0, 0, Header, 0, 1, 384
1, 0, Start_track
1, 0, Title_t, "Deux Etudes de S.--R. Yanagitani"
1, 0, Text_t, "2006 International Piano-e-Competition Recital Round"
1, 0, Text_t, "St. Paul, Minnesota, July 2006"
1, 0, Text_t, "http://www.piano-e-competition.com/"
1, 0, Instrument_name_t, "Yamaha Disklavier Pro Mark IV concert grand piano"
1, 0, Sequencer_specific, 39, 67, 113, 0, 1, 0, 1, 0, 68, 101, 117, 120, 32, 69, 116, 117, 100, 101, 115, 32, 100, 101, 32, 83, 82, 121, 111, 32, 89, 97, 110, 97, 103, 105, 116, 97, 110, 105, 32, 32
1, 0, Sequencer_specific, 6, 67, 113, 0, 0, 0, 69
1, 0, System_exclusive, 21, 67, 113, 126, 21, 0, 2, 2, 0, 14, 5, 1, 4, 4, 10, 13, 7, 2, 12, 4, 4, 247
1, 0, Sequencer_specific, 5, 67, 123, 12, 2, 1
1, 0, Tempo, 512820
1, 0, Time_signature, 4, 2, 24, 8
1, 0, System_exclusive, 5, 126, 127, 9, 1, 247
1, 1, System_exclusive, 8, 67, 16, 76, 0, 0, 126, 0, 247
1, 2, System_exclusive, 8, 67, 16, 76, 8, 9, 7, 1, 247
1, 3, Control_c, 0, 0, 0
1, 4, Control_c, 0, 32, 0
1, 5, Program_c, 0, 0
1, 6, Control_c, 0, 7, 100
1, 95, Control_c, 0, 67, 15
1, 184, Control_c, 0, 67, 31
1, 273, Control_c, 0, 67, 46
1, 362, Control_c, 0, 67, 63
1, 452, Control_c, 0, 67, 77
1, 541, Control_c, 0, 67, 94
1, 630, Control_c, 0, 67, 108
1, 719, Control_c, 0, 67, 127
1, 908, Control_c, 0, 64, 29
1, 910, Note_on_c, 0, 58, 42
1, 920, Note_on_c, 0, 60, 37
1, 922, Control_c, 0, 64, 41
1, 937, Control_c, 0, 64, 54
1, 952, Control_c, 0, 64, 61
1, 967, Control_c, 0, 64, 64
1, 982, Control_c, 0, 64, 66
1, 997, Control_c, 0, 64, 69
1, 1012, Control_c, 0, 64, 73
1, 1026, Control_c, 0, 64, 78
1, 1041, Control_c, 0, 64, 82
1, 1056, Control_c, 0, 64, 88
1, 1071, Control_c, 0, 64, 95
1, 1086, Control_c, 0, 64, 102
1, 1101, Control_c, 0, 64, 109
1, 1114, Note_off_c, 0, 58, 57
1, 1115, Control_c, 0, 64, 119
1, 1130, Control_c, 0, 64, 127
1, 1135, Note_off_c, 0, 60, 52
1, 1142, Note_on_c, 0, 62, 43
1, 1170, Note_on_c, 0, 64, 40
1, 1219, Note_on_c, 0, 68, 40
1, 1220, Note_off_c, 0, 64, 53
1, 1252, Note_off_c, 0, 62, 58
1, 1280, Note_on_c, 0, 69, 48
1, 1285, Note_on_c, 0, 71, 46
1, 1308, Note_off_c, 0, 68, 47
1, 1323, Poly_aftertouch_c, 0, 66, 0
1, 1325, Note_on_c, 0, 73, 57
1, 1337, Note_off_c, 0, 69, 61
1, 1342, Note_off_c, 0, 71, 59
1, 1351, Note_on_c, 0, 75, 60
1, 1372, Note_on_c, 0, 76, 55
1, 1381, Note_on_c, 0, 78, 67
1, 1387, Note_off_c, 0, 73, 61
1, 1391, Note_off_c, 0, 75, 64
1, 1404, Note_off_c, 0, 76, 66
1, 1429, Note_off_c, 0, 78, 61
1, 1549, Note_on_c, 0, 94, 81
1, 1555, Note_on_c, 0, 82, 56
1, 1568, Note_on_c, 0, 70, 38
1, 1575, Note_on_c, 0, 58, 45
1, 1587, Note_off_c, 0, 82, 65
1, 1594, Note_off_c, 0, 94, 57
1, 1637, Note_off_c, 0, 58, 56
1, 1638, Note_off_c, 0, 70, 53
1, 2435, Note_on_c, 0, 79, 40
1, 2443, Note_on_c, 0, 70, 35
1, 2445, Note_on_c, 0, 66, 29
1, 2452, Note_on_c, 0, 72, 31
1, 2464, Note_on_c, 0, 77, 34
1, 2465, Control_c, 0, 64, 122
1, 2466, Note_on_c, 0, 75, 33
1, 2469, Note_on_c, 0, 69, 28
1, 2472, Note_on_c, 0, 61, 22
1, 2476, Note_on_c, 0, 68, 24
1, 2480, Control_c, 0, 64, 87
1, 2487, Note_on_c, 0, 64, 29
1, 2494, Control_c, 0, 64, 73
1, 2509, Control_c, 0, 64, 63
1, 2524, Control_c, 0, 64, 59
1, 2539, Control_c, 0, 64, 60
1, 2554, Control_c, 0, 64, 63
1, 2568, Control_c, 0, 64, 66
1, 2583, Control_c, 0, 64, 70
1, 2598, Control_c, 0, 64, 74
1, 2613, Control_c, 0, 64, 76
1, 2627, Control_c, 0, 64, 79
1, 2642, Control_c, 0, 64, 82
1, 2657, Control_c, 0, 64, 85
1, 2672, Control_c, 0, 64, 89
1, 2687, Control_c, 0, 64, 94
1, 2702, Control_c, 0, 64, 99
1, 2717, Control_c, 0, 64, 105
1, 2732, Control_c, 0, 64, 112
1, 2746, Control_c, 0, 64, 127
1, 4123, Note_off_c, 0, 70, 41
1, 4237, Note_off_c, 0, 72, 30
1, 4252, Note_off_c, 0, 77, 19
1, 4252, Note_off_c, 0, 79, 35
1, 4271, Note_off_c, 0, 69, 38
1, 4378, Note_off_c, 0, 68, 39
1, 4383, Note_off_c, 0, 75, 26
1, 4386, Note_off_c, 0, 66, 36
1, 4487, Note_off_c, 0, 64, 43
1, 4541, Note_off_c, 0, 61, 40
1, 5052, Control_c, 0, 64, 76
1, 5067, Control_c, 0, 64, 57
1, 5081, Control_c, 0, 64, 39
1, 5093, Note_on_c, 0, 94, 56
1, 5096, Control_c, 0, 64, 37
1, 5115, Note_on_c, 0, 70, 35
1, 5117, Note_on_c, 0, 58, 35
1, 5119, Control_c, 0, 64, 42
1, 5119, Note_on_c, 0, 82, 32
1, 5134, Control_c, 0, 64, 54
1, 5149, Control_c, 0, 64, 63
1, 5163, Control_c, 0, 64, 73
1, 5178, Control_c, 0, 64, 86
1, 5193, Control_c, 0, 64, 104
1, 5208, Control_c, 0, 64, 127
1, 5232, Note_off_c, 0, 94, 64
1, 5258, Note_off_c, 0, 58, 55
1, 5263, Note_off_c, 0, 70, 60
1, 5290, Note_off_c, 0, 82, 60
1, 5712, Note_on_c, 0, 80, 55
1, 5721, Note_on_c, 0, 66, 36
1, 5729, Note_on_c, 0, 78, 47
1, 5735, Note_on_c, 0, 73, 30
1, 5736, Note_on_c, 0, 75, 39
1, 5737, Note_on_c, 0, 76, 42
1, 5738, Note_on_c, 0, 72, 33
1, 5753, Note_on_c, 0, 69, 30
1, 5755, Note_on_c, 0, 71, 23
1, 5768, Note_on_c, 0, 65, 23
1, 5804, Note_off_c, 0, 73, 53
1, 5811, Note_off_c, 0, 76, 48
1, 5814, Note_off_c, 0, 75, 47
1, 5819, Note_off_c, 0, 80, 53
1, 5897, Note_off_c, 0, 78, 35
1, 7497, Note_off_c, 0, 72, 31
1, 7587, Note_off_c, 0, 71, 38
1, 7610, Note_off_c, 0, 69, 42
1, 7883, Note_off_c, 0, 65, 41
1, 7914, Note_off_c, 0, 66, 42
1, 8515, Control_c, 0, 64, 119
1, 8529, Control_c, 0, 64, 85
1, 8541, Note_on_c, 0, 94, 53
1, 8542, Note_on_c, 0, 58, 33
1, 8544, Control_c, 0, 64, 69
1, 8551, Note_on_c, 0, 82, 31
1, 8559, Control_c, 0, 64, 59
1, 8565, Note_on_c, 0, 70, 25
1, 8574, Control_c, 0, 64, 53
1, 8589, Control_c, 0, 64, 52
1, 8604, Control_c, 0, 64, 54
1, 8619, Control_c, 0, 64, 58
1, 8634, Control_c, 0, 64, 63
1, 8649, Control_c, 0, 64, 69
1, 8663, Control_c, 0, 64, 77
1, 8678, Control_c, 0, 64, 87
1, 8682, Note_off_c, 0, 94, 62
1, 8693, Control_c, 0, 64, 93
1, 8708, Control_c, 0, 64, 96
1, 8723, Control_c, 0, 64, 100
1, 8737, Control_c, 0, 64, 106
1, 8752, Control_c, 0, 64, 113
1, 8765, Note_off_c, 0, 58, 39
1, 8765, Note_off_c, 0, 82, 57
1, 8767, Control_c, 0, 64, 127
1, 8772, Note_off_c, 0, 70, 42
1, 9374, Note_on_c, 0, 81, 52
1, 9379, Note_on_c, 0, 74, 48
1, 9382, Note_on_c, 0, 70, 35
1, 9382, Note_on_c, 0, 79, 45
1, 9384, Note_on_c, 0, 77, 44
1, 9385, Note_on_c, 0, 66, 40
1, 9385, Note_on_c, 0, 72, 38
1, 9389, Note_on_c, 0, 73, 38
1, 9390, Note_on_c, 0, 63, 38
1, 9411, Note_on_c, 0, 68, 35
1, 9431, Note_off_c, 0, 72, 51
1, 9438, Note_off_c, 0, 74, 57
1, 9483, Note_off_c, 0, 81, 57
1, 9490, Note_off_c, 0, 77, 54
1, 9501, Note_off_c, 0, 79, 56
1, 11022, Note_off_c, 0, 73, 38
1, 11285, Note_off_c, 0, 70, 36
1, 11424, Note_off_c, 0, 68, 33
1, 11517, Note_off_c, 0, 66, 40
1, 11566, Note_off_c, 0, 63, 41
1, 12318, Control_c, 0, 64, 103
1, 12333, Control_c, 0, 64, 82
1, 12333, Note_on_c, 0, 58, 36
1, 12336, Note_on_c, 0, 94, 49
1, 12348, Control_c, 0, 64, 69
1, 12357, Note_on_c, 0, 70, 25
1, 12358, Note_on_c, 0, 82, 23
1, 12363, Control_c, 0, 64, 60
1, 12378, Control_c, 0, 64, 57
1, 12391, Control_c, 0, 64, 57
1, 12405, Control_c, 0, 64, 60
1, 12420, Control_c, 0, 64, 63
1, 12435, Control_c, 0, 64, 68
1, 12437, Note_off_c, 0, 58, 0
1, 12437, Note_on_c, 0, 58, 3
1, 12450, Control_c, 0, 64, 75
1, 12465, Control_c, 0, 64, 84
1, 12479, Control_c, 0, 64, 90
1, 12494, Control_c, 0, 64, 94
1, 12509, Control_c, 0, 64, 99
1, 12524, Control_c, 0, 64, 104
1, 12539, Control_c, 0, 64, 111
1, 12554, Control_c, 0, 64, 127
1, 12566, Note_off_c, 0, 82, 38
1, 12621, Note_off_c, 0, 94, 32
1, 12667, Note_off_c, 0, 70, 37
1, 12839, Note_off_c, 0, 58, 38
1, 13973, Note_on_c, 0, 82, 68
1, 14017, Note_on_c, 0, 66, 14
1, 14017, Note_on_c, 0, 80, 41
1, 14024, Note_on_c, 0, 73, 35
1, 14032, Note_on_c, 0, 75, 31
1, 14035, Note_on_c, 0, 78, 29
1, 14041, Note_on_c, 0, 68, 17
1, 14044, Note_on_c, 0, 64, 30
1, 14050, Note_on_c, 0, 71, 27
1, 14061, Note_on_c, 0, 70, 20
1, 14374, Note_off_c, 0, 75, 47
1, 14394, Note_off_c, 0, 64, 42
1, 14404, Note_off_c, 0, 73, 60
1, 14422, Note_off_c, 0, 71, 39
1, 14436, Note_off_c, 0, 78, 38
1, 14439, Note_off_c, 0, 70, 41
1, 14459, Note_off_c, 0, 66, 42
1, 14464, Note_off_c, 0, 68, 39
1, 14469, Note_off_c, 0, 80, 35
1, 14471, Note_off_c, 0, 82, 63
1, 14732, Note_on_c, 0, 84, 75
1, 14762, Note_on_c, 0, 81, 50
1, 14778, Note_on_c, 0, 72, 24
1, 14779, Note_on_c, 0, 75, 39
1, 14781, Note_on_c, 0, 67, 30
1, 14787, Note_on_c, 0, 71, 29
1, 14790, Note_on_c, 0, 77, 33
1, 14805, Note_on_c, 0, 79, 22
1, 14807, Note_on_c, 0, 65, 32
1, 14820, Note_on_c, 0, 69, 19
1, 14956, Control_c, 0, 67, 114
1, 14956, Note_off_c, 0, 65, 54
1, 14971, Control_c, 0, 67, 100
1, 14974, Note_off_c, 0, 69, 41
1, 14980, Note_off_c, 0, 75, 62
1, 14986, Control_c, 0, 67, 88
1, 14992, Note_off_c, 0, 71, 39
1, 14993, Note_off_c, 0, 67, 38
1, 14998, Note_off_c, 0, 84, 62
1, 15000, Control_c, 0, 67, 76
1, 15001, Note_off_c, 0, 72, 52
1, 15004, Note_off_c, 0, 77, 40
1, 15007, Note_off_c, 0, 81, 62
1, 15015, Control_c, 0, 67, 64
1, 15025, Note_off_c, 0, 79, 41
1, 15031, Control_c, 0, 67, 49
1, 15046, Control_c, 0, 67, 0
1, 15255, Note_on_c, 0, 87, 82
1, 15282, Note_on_c, 0, 85, 59
1, 15294, Note_on_c, 0, 76, 43
1, 15299, Note_on_c, 0, 78, 51
1, 15306, Note_on_c, 0, 82, 40
1, 15314, Note_on_c, 0, 71, 35
1, 15317, Note_on_c, 0, 73, 29
1, 15318, Note_on_c, 0, 75, 44
1, 15323, Note_on_c, 0, 69, 34
1, 15327, Note_on_c, 0, 80, 33
1, 15428, Note_off_c, 0, 76, 63
1, 15433, Note_off_c, 0, 75, 61
1, 15454, Note_off_c, 0, 73, 58
1, 15458, Note_off_c, 0, 71, 53
1, 15462, Note_off_c, 0, 82, 61
1, 15463, Note_off_c, 0, 69, 60
1, 15465, Note_off_c, 0, 80, 63
1, 15481, Note_off_c, 0, 87, 64
1, 15486, Note_off_c, 0, 78, 56
1, 15486, Note_off_c, 0, 85, 60
1, 15710, Note_on_c, 0, 85, 85
1, 15738, Note_on_c, 0, 83, 63
1, 15743, Note_on_c, 0, 74, 53
1, 15749, Control_c, 0, 64, 95
1, 15752, Note_on_c, 0, 73, 41
1, 15752, Note_on_c, 0, 76, 43
1, 15760, Note_on_c, 0, 81, 40
1, 15761, Note_on_c, 0, 67, 44
1, 15764, Control_c, 0, 64, 68
1, 15768, Note_on_c, 0, 69, 36
1, 15779, Control_c, 0, 64, 57
1, 15779, Control_c, 0, 67, 51
1, 15783, Note_on_c, 0, 71, 37
1, 15794, Control_c, 0, 64, 54
1, 15794, Control_c, 0, 67, 82
1, 15808, Note_on_c, 0, 78, 17
1, 15809, Control_c, 0, 64, 57
1, 15809, Control_c, 0, 67, 116
1, 15824, Control_c, 0, 64, 61
1, 15824, Control_c, 0, 67, 127
1, 15839, Control_c, 0, 64, 67
1, 15853, Control_c, 0, 64, 76
1, 15868, Control_c, 0, 64, 93
1, 15883, Control_c, 0, 64, 127
1, 15889, Note_off_c, 0, 67, 61
1, 15893, Note_off_c, 0, 74, 62
1, 15899, Note_off_c, 0, 73, 57
1, 15921, Note_off_c, 0, 83, 64
1, 15925, Note_off_c, 0, 76, 64
1, 15934, Note_off_c, 0, 69, 51
1, 15934, Note_off_c, 0, 81, 54
1, 15940, Note_off_c, 0, 71, 51
1, 15940, Note_off_c, 0, 78, 49
1, 15968, Note_off_c, 0, 85, 54
1, 16136, Note_on_c, 0, 84, 71
1, 16159, Note_on_c, 0, 82, 54
1, 16161, Note_on_c, 0, 66, 47
1, 16165, Control_c, 0, 64, 101
1, 16171, Note_on_c, 0, 73, 37
1, 16175, Note_on_c, 0, 77, 47
1, 16180, Control_c, 0, 64, 70
1, 16182, Note_on_c, 0, 75, 46
1, 16184, Note_on_c, 0, 80, 42
1, 16195, Control_c, 0, 64, 57
1, 16202, Note_on_c, 0, 72, 26
1, 16210, Control_c, 0, 64, 54
1, 16214, Note_on_c, 0, 68, 31
1, 16225, Control_c, 0, 64, 55
1, 16227, Note_on_c, 0, 70, 28
1, 16239, Control_c, 0, 64, 58
1, 16254, Control_c, 0, 64, 61
1, 16269, Control_c, 0, 64, 65
1, 16284, Control_c, 0, 64, 72
1, 16298, Control_c, 0, 64, 83
1, 16313, Control_c, 0, 64, 91
1, 16317, Note_off_c, 0, 72, 36
1, 16328, Control_c, 0, 64, 95
1, 16351, Control_c, 0, 64, 97
1, 16366, Note_off_c, 0, 68, 51
1, 16366, Control_c, 0, 64, 102
1, 16370, Note_off_c, 0, 77, 60
1, 16378, Note_off_c, 0, 73, 55
1, 16380, Control_c, 0, 64, 108
1, 16384, Note_off_c, 0, 84, 59
1, 16390, Note_off_c, 0, 75, 55
1, 16395, Control_c, 0, 64, 117
1, 16396, Note_off_c, 0, 66, 38
1, 16398, Note_off_c, 0, 80, 58
1, 16398, Note_off_c, 0, 82, 58
1, 16402, Note_off_c, 0, 70, 37
1, 16410, Control_c, 0, 64, 127
1, 16602, Note_on_c, 0, 85, 63
1, 16602, Control_c, 0, 64, 111
1, 16617, Control_c, 0, 64, 91
1, 16630, Note_on_c, 0, 83, 46
1, 16633, Control_c, 0, 64, 75
1, 16646, Note_on_c, 0, 76, 32
1, 16648, Control_c, 0, 64, 62
1, 16649, Note_on_c, 0, 74, 36
1, 16655, Note_on_c, 0, 69, 27
1, 16655, Note_on_c, 0, 73, 20
1, 16658, Note_on_c, 0, 81, 20
1, 16663, Control_c, 0, 64, 54
1, 16673, Note_on_c, 0, 67, 19
1, 16677, Control_c, 0, 64, 51
1, 16692, Control_c, 0, 64, 52
1, 16707, Control_c, 0, 64, 54
1, 16721, Control_c, 0, 64, 57
1, 16724, Poly_aftertouch_c, 0, 78, 127
1, 16736, Control_c, 0, 64, 60
1, 16751, Control_c, 0, 64, 63
1, 16766, Poly_aftertouch_c, 0, 71, 127
1, 16766, Control_c, 0, 64, 68
1, 16781, Control_c, 0, 64, 75
1, 16795, Control_c, 0, 64, 84
1, 16810, Control_c, 0, 64, 90
1, 16812, Note_off_c, 0, 74, 58
1, 16825, Control_c, 0, 64, 93
1, 16827, Note_off_c, 0, 85, 58
1, 16837, Note_off_c, 0, 73, 46
1, 16840, Note_off_c, 0, 83, 58
1, 16840, Control_c, 0, 64, 96
1, 16855, Control_c, 0, 64, 98
1, 16869, Note_off_c, 0, 81, 44
1, 16870, Control_c, 0, 64, 102
1, 16873, Note_off_c, 0, 76, 43
1, 16875, Note_off_c, 0, 69, 50
1, 16879, Poly_aftertouch_c, 0, 71, 0
1, 16885, Control_c, 0, 64, 105
1, 16900, Control_c, 0, 64, 110
1, 16907, Poly_aftertouch_c, 0, 78, 0
1, 16908, Note_off_c, 0, 67, 44
1, 16914, Control_c, 0, 64, 116
1, 16929, Control_c, 0, 64, 127
1, 17200, Note_on_c, 0, 80, 48
1, 17218, Control_c, 0, 64, 107
1, 17221, Note_on_c, 0, 78, 40
1, 17233, Control_c, 0, 64, 90
1, 17243, Note_on_c, 0, 69, 22
1, 17245, Note_on_c, 0, 62, 20
1, 17246, Note_on_c, 0, 64, 21
1, 17248, Control_c, 0, 64, 75
1, 17251, Note_on_c, 0, 76, 24
1, 17253, Note_on_c, 0, 71, 28
1, 17255, Note_on_c, 0, 73, 10
1, 17263, Control_c, 0, 64, 63
1, 17277, Control_c, 0, 64, 53
1, 17288, Note_on_c, 0, 68, 5
1, 17292, Control_c, 0, 64, 48
1, 17303, Poly_aftertouch_c, 0, 66, 127
1, 17307, Control_c, 0, 64, 47
1, 17321, Control_c, 0, 64, 49
1, 17336, Control_c, 0, 64, 52
1, 17351, Control_c, 0, 64, 56
1, 17366, Control_c, 0, 64, 59
1, 17381, Control_c, 0, 64, 62
1, 17395, Control_c, 0, 64, 67
1, 17410, Control_c, 0, 64, 73
1, 17426, Control_c, 0, 64, 78
1, 17441, Control_c, 0, 64, 81
1, 17456, Control_c, 0, 64, 83
1, 17471, Control_c, 0, 64, 86
1, 17486, Control_c, 0, 64, 91
1, 17500, Control_c, 0, 64, 96
1, 17515, Control_c, 0, 64, 102
1, 17530, Control_c, 0, 64, 105
1, 17544, Note_off_c, 0, 62, 44
1, 17544, Control_c, 0, 64, 109
1, 17559, Control_c, 0, 64, 112
1, 17562, Note_off_c, 0, 71, 41
1, 17569, Note_off_c, 0, 80, 28
1, 17574, Note_off_c, 0, 69, 42
1, 17574, Control_c, 0, 64, 119
1, 17582, Note_off_c, 0, 64, 47
1, 17584, Note_off_c, 0, 68, 41
1, 17589, Control_c, 0, 64, 127
1, 17592, Poly_aftertouch_c, 0, 66, 0
1, 17603, Note_off_c, 0, 73, 41
1, 17609, Note_off_c, 0, 76, 40
1, 17644, Note_off_c, 0, 78, 39
1, 17953, Note_on_c, 0, 82, 47
1, 17963, Note_on_c, 0, 66, 26
1, 17979, Note_on_c, 0, 73, 28
1, 17979, Note_on_c, 0, 80, 39
1, 17982, Control_c, 0, 64, 114
1, 17994, Note_on_c, 0, 71, 26
1, 17996, Note_on_c, 0, 68, 20
1, 17997, Note_on_c, 0, 75, 32
1, 17997, Control_c, 0, 64, 91
1, 17999, Note_on_c, 0, 70, 24
1, 18003, Note_on_c, 0, 64, 19
1, 18005, Note_on_c, 0, 78, 33
1, 18012, Control_c, 0, 64, 74
1, 18026, Control_c, 0, 64, 59
1, 18041, Control_c, 0, 64, 50
1, 18056, Control_c, 0, 64, 49
1, 18071, Control_c, 0, 64, 51
1, 18086, Control_c, 0, 64, 56
1, 18100, Control_c, 0, 64, 61
1, 18115, Control_c, 0, 64, 66
1, 18130, Control_c, 0, 64, 72
1, 18144, Control_c, 0, 64, 81
1, 18159, Control_c, 0, 64, 89
1, 18174, Control_c, 0, 64, 95
1, 18178, Note_off_c, 0, 73, 53
1, 18189, Control_c, 0, 64, 100
1, 18204, Control_c, 0, 64, 107
1, 18217, Note_off_c, 0, 71, 42
1, 18220, Control_c, 0, 64, 118
1, 18222, Note_off_c, 0, 75, 39
1, 18235, Control_c, 0, 64, 127
1, 18240, Note_off_c, 0, 70, 44
1, 18258, Note_off_c, 0, 64, 44
1, 18268, Note_off_c, 0, 80, 52
1, 18271, Note_off_c, 0, 78, 40
1, 18275, Note_off_c, 0, 68, 40
1, 18282, Note_off_c, 0, 82, 60
1, 18296, Note_off_c, 0, 66, 42
1, 18748, Note_on_c, 0, 58, 24
1, 18757, Note_on_c, 0, 70, 19
1, 18759, Note_on_c, 0, 94, 37
1, 18769, Note_on_c, 0, 82, 24
1, 18870, Note_off_c, 0, 94, 46
1, 18904, Note_off_c, 0, 58, 50
1, 18920, Note_off_c, 0, 70, 44
1, 18942, Note_off_c, 0, 82, 40
1, 19285, Note_on_c, 0, 82, 34
1, 19287, Note_on_c, 0, 73, 36
1, 19295, Note_on_c, 0, 66, 24
1, 19305, Note_on_c, 0, 75, 32
1, 19308, Note_on_c, 0, 64, 31
1, 19317, Note_on_c, 0, 71, 22
1, 19320, Note_on_c, 0, 80, 30
1, 19322, Note_on_c, 0, 70, 18
1, 19344, Note_on_c, 0, 78, 11
1, 19362, Note_on_c, 0, 68, 7
1, 19363, Note_off_c, 0, 73, 58
1, 19376, Note_off_c, 0, 75, 48
1, 19441, Note_off_c, 0, 82, 37
1, 19442, Note_off_c, 0, 71, 38
1, 19443, Note_off_c, 0, 70, 37
1, 19453, Note_off_c, 0, 68, 49
1, 19463, Note_off_c, 0, 66, 55
1, 19463, Note_off_c, 0, 80, 64
1, 19469, Note_off_c, 0, 78, 32
1, 19476, Note_off_c, 0, 64, 37
1, 19812, Note_on_c, 0, 94, 55
1, 19836, Note_on_c, 0, 58, 37
1, 19845, Note_on_c, 0, 70, 28
1, 19849, Note_on_c, 0, 82, 28
1, 19902, Note_off_c, 0, 82, 56
1, 19916, Note_off_c, 0, 70, 53
1, 19937, Note_off_c, 0, 94, 62
1, 20024, Note_off_c, 0, 58, 58
1, 20340, Note_on_c, 0, 87, 76
1, 20360, Note_on_c, 0, 51, 33
1, 20376, Note_on_c, 0, 63, 28
1, 20378, Note_on_c, 0, 75, 50
1, 20544, Note_off_c, 0, 63, 51
1, 20553, Note_off_c, 0, 51, 40
1, 20558, Note_off_c, 0, 75, 62
1, 20833, Note_on_c, 0, 89, 76
1, 20873, Note_on_c, 0, 77, 50
1, 20876, Note_on_c, 0, 53, 35
1, 20878, Note_off_c, 0, 87, 64
1, 20892, Note_on_c, 0, 65, 31
1, 20999, Note_off_c, 0, 53, 60
1, 21049, Note_off_c, 0, 65, 47
1, 21121, Note_off_c, 0, 77, 43
1, 21552, Note_on_c, 0, 92, 74
1, 21560, Note_on_c, 0, 56, 38
1, 21574, Note_on_c, 0, 80, 56
1, 21592, Control_c, 0, 64, 116
1, 21595, Note_on_c, 0, 68, 37
1, 21598, Note_off_c, 0, 89, 58
1, 21607, Control_c, 0, 64, 87
1, 21622, Control_c, 0, 64, 70
1, 21637, Control_c, 0, 64, 58
1, 21652, Control_c, 0, 64, 48
1, 21666, Control_c, 0, 64, 45
1, 21681, Control_c, 0, 64, 46
1, 21696, Control_c, 0, 64, 51
1, 21711, Control_c, 0, 64, 59
1, 21726, Control_c, 0, 64, 65
1, 21741, Control_c, 0, 64, 72
1, 21756, Control_c, 0, 64, 83
1, 21771, Control_c, 0, 64, 93
1, 21785, Control_c, 0, 64, 102
1, 21800, Control_c, 0, 64, 127
1, 21827, Note_off_c, 0, 92, 63
1, 21886, Note_off_c, 0, 68, 37
1, 21903, Note_off_c, 0, 80, 58
1, 21909, Note_off_c, 0, 56, 34
1, 22397, Note_on_c, 0, 71, 24
1, 22397, Note_on_c, 0, 79, 25
1, 22403, Note_on_c, 0, 56, 7
1, 22411, Note_on_c, 0, 82, 31
1, 22412, Note_on_c, 0, 67, 20
1, 22412, Note_on_c, 0, 75, 30
1, 22429, Note_on_c, 0, 77, 25
1, 22435, Note_on_c, 0, 64, 13
1, 22444, Note_on_c, 0, 60, 21
1, 22478, Note_on_c, 0, 62, 3
1, 22561, Note_off_c, 0, 82, 48
1, 22578, Note_off_c, 0, 71, 43
1, 22613, Note_off_c, 0, 67, 44
1, 22649, Note_off_c, 0, 75, 40
1, 22653, Note_off_c, 0, 64, 44
1, 22675, Note_off_c, 0, 77, 44
1, 22677, Note_off_c, 0, 62, 43
1, 22695, Note_off_c, 0, 60, 37
1, 22707, Note_off_c, 0, 79, 38
1, 22751, Note_off_c, 0, 56, 39
1, 23238, Note_on_c, 0, 90, 50
1, 23252, Note_on_c, 0, 66, 29
1, 23270, Note_on_c, 0, 78, 28
1, 23273, Note_on_c, 0, 54, 8
1, 23435, Note_off_c, 0, 66, 45
1, 23517, Note_off_c, 0, 54, 41
1, 23693, Note_off_c, 0, 78, 33
1, 23713, Note_on_c, 0, 89, 71
1, 23727, Note_on_c, 0, 53, 38
1, 23738, Note_on_c, 0, 65, 30
1, 23743, Note_on_c, 0, 77, 44
1, 23801, Note_off_c, 0, 90, 37
1, 23869, Note_off_c, 0, 65, 54
1, 23887, Note_off_c, 0, 53, 61
1, 23925, Note_off_c, 0, 77, 59
1, 24138, Note_on_c, 0, 90, 70
1, 24158, Note_on_c, 0, 54, 41
1, 24160, Note_on_c, 0, 78, 51
1, 24163, Note_on_c, 0, 66, 38
1, 24197, Note_off_c, 0, 89, 56
1, 24219, Note_off_c, 0, 66, 62
1, 24269, Note_off_c, 0, 90, 65
1, 24279, Note_off_c, 0, 54, 60
1, 24281, Note_off_c, 0, 78, 57
1, 24541, Note_on_c, 0, 85, 68
1, 24565, Note_on_c, 0, 73, 48
1, 24596, Note_on_c, 0, 49, 34
1, 24598, Note_on_c, 0, 61, 31
1, 24686, Note_off_c, 0, 49, 61
1, 24747, Note_off_c, 0, 61, 35
1, 24747, Note_off_c, 0, 73, 62
1, 25003, Control_c, 0, 64, 115
1, 25008, Note_off_c, 0, 85, 56
1, 25017, Control_c, 0, 64, 83
1, 25020, Note_on_c, 0, 87, 60
1, 25032, Note_on_c, 0, 51, 38
1, 25032, Control_c, 0, 64, 65
1, 25036, Note_on_c, 0, 63, 37
1, 25039, Note_on_c, 0, 75, 41
1, 25047, Control_c, 0, 64, 51
1, 25062, Control_c, 0, 64, 44
1, 25076, Control_c, 0, 64, 45
1, 25091, Control_c, 0, 64, 51
1, 25106, Control_c, 0, 64, 57
1, 25120, Control_c, 0, 64, 63
1, 25134, Control_c, 0, 64, 69
1, 25149, Control_c, 0, 64, 78
1, 25164, Control_c, 0, 64, 93
1, 25178, Note_off_c, 0, 87, 61
1, 25179, Control_c, 0, 64, 103
1, 25181, Note_off_c, 0, 51, 60
1, 25194, Control_c, 0, 64, 114
1, 25208, Note_off_c, 0, 63, 59
1, 25208, Control_c, 0, 64, 127
1, 25249, Note_off_c, 0, 75, 58
1, 25599, Note_on_c, 0, 79, 34
1, 25604, Note_on_c, 0, 67, 32
1, 25605, Note_on_c, 0, 82, 35
1, 25607, Note_on_c, 0, 56, 25
1, 25610, Note_on_c, 0, 71, 29
1, 25616, Note_on_c, 0, 64, 28
1, 25624, Note_on_c, 0, 75, 44
1, 25634, Note_on_c, 0, 77, 34
1, 25640, Note_on_c, 0, 62, 25
1, 25654, Note_on_c, 0, 60, 21
1, 25691, Note_off_c, 0, 67, 56
1, 25693, Note_off_c, 0, 71, 57
1, 25693, Note_off_c, 0, 82, 58
1, 25696, Note_off_c, 0, 56, 58
1, 25711, Note_off_c, 0, 60, 60
1, 25715, Note_off_c, 0, 75, 57
1, 25716, Note_off_c, 0, 64, 57
1, 25720, Note_off_c, 0, 79, 56
1, 25721, Note_off_c, 0, 62, 56
1, 25721, Note_off_c, 0, 77, 57
1, 26475, Note_on_c, 0, 92, 69
1, 26501, Note_on_c, 0, 80, 40
1, 26517, Note_on_c, 0, 56, 29
1, 26531, Note_on_c, 0, 68, 28
1, 26954, Note_off_c, 0, 68, 41
1, 27142, Note_off_c, 0, 56, 41
1, 27432, Note_off_c, 0, 80, 35
1, 27917, Note_on_c, 0, 90, 50
1, 27924, Note_on_c, 0, 66, 29
1, 27927, Note_on_c, 0, 78, 33
1, 27937, Note_on_c, 0, 54, 13
1, 28081, Note_off_c, 0, 92, 36
1, 28172, Note_off_c, 0, 66, 44
1, 28208, Note_off_c, 0, 54, 46
1, 28271, Note_off_c, 0, 78, 36
1, 28382, Note_on_c, 0, 89, 67
1, 28397, Note_on_c, 0, 53, 42
1, 28408, Note_on_c, 0, 77, 48
1, 28415, Note_on_c, 0, 65, 34
1, 28459, Note_off_c, 0, 90, 35
1, 28507, Note_off_c, 0, 65, 57
1, 28542, Note_off_c, 0, 53, 61
1, 28562, Note_off_c, 0, 77, 62
1, 28773, Note_on_c, 0, 90, 71
1, 28794, Note_on_c, 0, 66, 47
1, 28796, Note_on_c, 0, 54, 42
1, 28798, Note_on_c, 0, 78, 53
1, 28823, Note_off_c, 0, 89, 60
1, 28869, Note_off_c, 0, 66, 62
1, 28910, Note_off_c, 0, 54, 56
1, 28916, Note_off_c, 0, 78, 58
1, 28916, Note_off_c, 0, 90, 64
1, 29238, Note_on_c, 0, 85, 63
1, 29262, Note_on_c, 0, 73, 47
1, 29267, Note_on_c, 0, 61, 29
1, 29268, Note_on_c, 0, 49, 32
1, 29408, Note_off_c, 0, 49, 48
1, 29444, Note_off_c, 0, 61, 44
1, 29461, Note_off_c, 0, 73, 55
1, 29846, Note_off_c, 0, 85, 25
1, 29894, Note_on_c, 0, 87, 50
1, 29902, Note_on_c, 0, 75, 39
1, 29905, Note_on_c, 0, 63, 33
1, 29909, Note_on_c, 0, 51, 32
1, 29917, Control_c, 0, 64, 110
1, 29932, Control_c, 0, 64, 88
1, 29947, Control_c, 0, 64, 72
1, 29962, Control_c, 0, 64, 58
1, 29977, Control_c, 0, 64, 47
1, 29992, Control_c, 0, 64, 42
1, 30006, Control_c, 0, 64, 41
1, 30021, Control_c, 0, 64, 42
1, 30036, Control_c, 0, 64, 45
1, 30050, Control_c, 0, 64, 53
1, 30065, Control_c, 0, 64, 62
1, 30080, Control_c, 0, 64, 67
1, 30095, Control_c, 0, 64, 74
1, 30110, Control_c, 0, 64, 81
1, 30124, Control_c, 0, 64, 87
1, 30139, Control_c, 0, 64, 92
1, 30150, Note_off_c, 0, 87, 60
1, 30154, Control_c, 0, 64, 97
1, 30169, Control_c, 0, 64, 105
1, 30174, Note_off_c, 0, 51, 40
1, 30184, Control_c, 0, 64, 116
1, 30200, Control_c, 0, 64, 127
1, 30219, Note_off_c, 0, 63, 41
1, 30299, Note_off_c, 0, 75, 44
1, 30646, Note_on_c, 0, 82, 42
1, 30665, Note_on_c, 0, 79, 33
1, 30666, Note_on_c, 0, 75, 38
1, 30667, Note_on_c, 0, 56, 11
1, 30672, Note_on_c, 0, 67, 14
1, 30675, Note_on_c, 0, 71, 23
1, 30683, Note_on_c, 0, 64, 27
1, 30706, Note_on_c, 0, 62, 24
1, 30714, Note_on_c, 0, 60, 11
1, 30839, Note_off_c, 0, 82, 52
1, 30883, Note_off_c, 0, 75, 39
1, 30925, Note_off_c, 0, 79, 34
1, 31186, Note_on_c, 0, 80, 40
1, 31190, Note_on_c, 0, 73, 36
1, 31200, Note_on_c, 0, 77, 36
1, 31251, Note_off_c, 0, 56, 41
1, 31259, Note_off_c, 0, 73, 56
1, 31260, Note_off_c, 0, 67, 43
1, 31260, Note_off_c, 0, 77, 56
1, 31264, Note_off_c, 0, 80, 53
1, 31265, Note_off_c, 0, 60, 41
1, 31267, Note_off_c, 0, 64, 43
1, 31277, Note_off_c, 0, 62, 44
1, 31286, Note_off_c, 0, 71, 41
1, 31613, Note_on_c, 0, 82, 39
1, 31619, Note_on_c, 0, 75, 39
1, 31625, Note_on_c, 0, 71, 29
1, 31633, Note_on_c, 0, 62, 31
1, 31634, Note_on_c, 0, 79, 29
1, 31635, Note_on_c, 0, 67, 30
1, 31654, Note_on_c, 0, 64, 28
1, 31657, Note_on_c, 0, 56, 18
1, 31667, Note_on_c, 0, 60, 17
1, 31711, Note_off_c, 0, 82, 62
1, 31763, Note_off_c, 0, 75, 37
1, 31822, Note_off_c, 0, 79, 44
1, 32007, Note_off_c, 0, 67, 42
1, 32052, Note_off_c, 0, 71, 24
1, 32099, Note_off_c, 0, 64, 42
1, 32100, Note_on_c, 0, 80, 31
1, 32106, Note_on_c, 0, 73, 28
1, 32118, Note_on_c, 0, 77, 32
1, 32147, Note_off_c, 0, 62, 42
1, 32157, Note_off_c, 0, 60, 39
1, 32192, Note_off_c, 0, 73, 49
1, 32208, Note_off_c, 0, 80, 48
1, 32212, Note_off_c, 0, 56, 40
1, 32242, Note_off_c, 0, 77, 38
1, 32670, Note_on_c, 0, 85, 72
1, 32708, Note_on_c, 0, 73, 43
1, 32716, Note_on_c, 0, 49, 26
1, 32718, Note_on_c, 0, 61, 28
1, 32814, Note_off_c, 0, 73, 62
1, 32848, Note_off_c, 0, 49, 54
1, 32907, Note_off_c, 0, 61, 44
1, 32955, Note_off_c, 0, 85, 63
1, 33106, Control_c, 0, 67, 123
1, 33121, Control_c, 0, 67, 119
1, 33136, Control_c, 0, 67, 114
1, 33150, Control_c, 0, 67, 111
1, 33178, Note_on_c, 0, 93, 81
1, 33204, Note_on_c, 0, 81, 48
1, 33224, Control_c, 0, 67, 109
1, 33225, Note_on_c, 0, 69, 42
1, 33232, Note_on_c, 0, 57, 42
1, 33310, Note_off_c, 0, 69, 59
1, 33333, Note_off_c, 0, 93, 62
1, 33341, Note_off_c, 0, 81, 61
1, 33363, Note_off_c, 0, 57, 63
1, 33536, Control_c, 0, 67, 111
1, 33572, Control_c, 0, 67, 114
1, 33602, Control_c, 0, 67, 117
1, 33617, Control_c, 0, 67, 119
1, 33632, Control_c, 0, 67, 123
1, 33647, Control_c, 0, 67, 126
1, 33653, Note_on_c, 0, 88, 77
1, 33685, Note_on_c, 0, 76, 49
1, 33695, Note_on_c, 0, 52, 40
1, 33701, Note_on_c, 0, 64, 34
1, 33839, Note_off_c, 0, 52, 56
1, 33846, Note_off_c, 0, 76, 61
1, 33862, Note_off_c, 0, 64, 35
1, 34373, Note_on_c, 0, 87, 57
1, 34383, Note_on_c, 0, 75, 39
1, 34396, Note_on_c, 0, 63, 29
1, 34401, Note_on_c, 0, 51, 34
1, 34441, Note_off_c, 0, 88, 61
1, 34454, Control_c, 0, 64, 103
1, 34469, Control_c, 0, 64, 80
1, 34484, Control_c, 0, 64, 65
1, 34499, Control_c, 0, 64, 55
1, 34514, Control_c, 0, 64, 49
1, 34529, Control_c, 0, 64, 48
1, 34544, Control_c, 0, 64, 50
1, 34559, Control_c, 0, 64, 57
1, 34574, Control_c, 0, 64, 63
1, 34588, Control_c, 0, 64, 68
1, 34603, Control_c, 0, 64, 75
1, 34618, Control_c, 0, 64, 83
1, 34633, Control_c, 0, 64, 91
1, 34643, Note_off_c, 0, 87, 64
1, 34647, Control_c, 0, 64, 97
1, 34660, Note_off_c, 0, 51, 45
1, 34662, Control_c, 0, 64, 104
1, 34677, Control_c, 0, 64, 111
1, 34692, Control_c, 0, 64, 127
1, 34694, Note_off_c, 0, 63, 42
1, 34728, Note_off_c, 0, 75, 61
1, 35047, Note_on_c, 0, 67, 28
1, 35065, Note_on_c, 0, 71, 25
1, 35066, Note_on_c, 0, 82, 35
1, 35069, Note_on_c, 0, 56, 25
1, 35072, Note_on_c, 0, 79, 21
1, 35074, Note_on_c, 0, 75, 35
1, 35076, Note_on_c, 0, 64, 26
1, 35088, Note_on_c, 0, 62, 21
1, 35105, Note_on_c, 0, 60, 22
1, 35107, Note_on_c, 0, 77, 25
1, 35162, Note_off_c, 0, 82, 37
1, 35223, Note_off_c, 0, 75, 36
1, 35223, Note_off_c, 0, 71, 44
1, 35237, Note_off_c, 0, 67, 41
1, 35240, Note_off_c, 0, 77, 36
1, 35244, Note_off_c, 0, 64, 42
1, 35250, Note_off_c, 0, 62, 49
1, 35267, Note_off_c, 0, 79, 45
1, 35279, Note_off_c, 0, 60, 44
1, 35313, Note_off_c, 0, 56, 42
1, 35599, Note_on_c, 0, 87, 48
1, 35628, Note_on_c, 0, 75, 45
1, 35650, Note_on_c, 0, 51, 38
1, 35708, Note_off_c, 0, 87, 62
1, 35748, Note_off_c, 0, 75, 51
1, 35751, Note_off_c, 0, 51, 55
1, 36161, Note_on_c, 0, 82, 41
1, 36167, Note_on_c, 0, 71, 33
1, 36167, Note_on_c, 0, 79, 30
1, 36180, Note_on_c, 0, 75, 36
1, 36190, Note_on_c, 0, 67, 28
1, 36200, Note_on_c, 0, 56, 13
1, 36230, Note_on_c, 0, 60, 19
1, 36252, Note_on_c, 0, 62, 18
1, 36252, Note_on_c, 0, 64, 9
1, 36362, Note_off_c, 0, 82, 56
1, 36362, Note_off_c, 0, 75, 56
1, 36460, Note_off_c, 0, 79, 43
1, 36701, Note_on_c, 0, 77, 35
1, 36701, Note_on_c, 0, 80, 28
1, 36703, Note_on_c, 0, 73, 29
1, 36779, Note_off_c, 0, 67, 43
1, 36810, Note_off_c, 0, 71, 40
1, 36841, Note_off_c, 0, 64, 43
1, 36861, Note_off_c, 0, 80, 33
1, 36878, Note_off_c, 0, 62, 44
1, 36887, Note_off_c, 0, 73, 44
1, 36899, Note_off_c, 0, 60, 40
1, 36906, Note_off_c, 0, 77, 37
1, 36946, Note_off_c, 0, 56, 40
1, 37454, Note_on_c, 0, 85, 63
1, 37482, Note_on_c, 0, 49, 34
1, 37489, Note_on_c, 0, 73, 32
1, 37495, Control_c, 0, 64, 91
1, 37498, Note_on_c, 0, 61, 31
1, 37510, Control_c, 0, 64, 69
1, 37525, Control_c, 0, 64, 52
1, 37540, Control_c, 0, 64, 49
1, 37554, Control_c, 0, 64, 53
1, 37569, Control_c, 0, 64, 59
1, 37584, Control_c, 0, 64, 65
1, 37599, Control_c, 0, 64, 73
1, 37614, Control_c, 0, 64, 89
1, 37629, Control_c, 0, 64, 127
1, 37637, Note_off_c, 0, 49, 61
1, 37638, Note_off_c, 0, 73, 63
1, 37707, Note_off_c, 0, 61, 46
1, 37749, Note_off_c, 0, 85, 63
1, 37821, Control_c, 0, 67, 123
1, 37836, Control_c, 0, 67, 119
1, 37850, Control_c, 0, 67, 115
1, 37998, Control_c, 0, 67, 118
1, 38028, Control_c, 0, 67, 122
1, 38030, Note_on_c, 0, 93, 79
1, 38061, Note_on_c, 0, 81, 48
1, 38064, Control_c, 0, 67, 124
1, 38069, Note_on_c, 0, 69, 25
1, 38077, Note_on_c, 0, 57, 34
1, 38079, Control_c, 0, 67, 126
1, 38162, Note_off_c, 0, 69, 50
1, 38167, Note_off_c, 0, 81, 47
1, 38169, Note_off_c, 0, 93, 60
1, 38245, Note_off_c, 0, 57, 51
1, 38808, Note_on_c, 0, 88, 57
1, 38823, Note_on_c, 0, 76, 40
1, 38829, Note_on_c, 0, 64, 28
1, 38830, Note_on_c, 0, 52, 31
1, 38898, Note_off_c, 0, 88, 59
1, 38900, Note_off_c, 0, 76, 55
1, 38916, Note_off_c, 0, 64, 49
1, 39047, Note_off_c, 0, 52, 41
1, 40008, Control_c, 0, 64, 116
1, 40014, Note_on_c, 0, 82, 50
1, 40023, Control_c, 0, 64, 81
1, 40026, Note_on_c, 0, 70, 43
1, 40031, Note_on_c, 0, 58, 36
1, 40037, Note_on_c, 0, 46, 35
1, 40038, Control_c, 0, 64, 62
1, 40052, Control_c, 0, 64, 37
1, 40067, Control_c, 0, 64, 0
1, 40229, Control_c, 0, 64, 38
1, 40244, Control_c, 0, 64, 51
1, 40258, Control_c, 0, 64, 61
1, 40273, Control_c, 0, 64, 64
1, 40288, Control_c, 0, 64, 67
1, 40311, Control_c, 0, 64, 70
1, 40326, Control_c, 0, 64, 74
1, 40340, Control_c, 0, 64, 80
1, 40355, Control_c, 0, 64, 87
1, 40370, Control_c, 0, 64, 98
1, 40384, Control_c, 0, 64, 113
1, 40399, Control_c, 0, 64, 127
1, 40404, Note_off_c, 0, 46, 56
1, 40453, Note_off_c, 0, 82, 50
1, 40482, Note_off_c, 0, 58, 41
1, 40601, Note_off_c, 0, 70, 40
1, 41017, Note_on_c, 0, 73, 30
1, 41030, Note_on_c, 0, 57, 27
1, 41030, Note_on_c, 0, 54, 18
1, 41033, Note_on_c, 0, 66, 33
1, 41033, Note_on_c, 0, 69, 31
1, 41038, Note_on_c, 0, 61, 22
1, 41071, Note_on_c, 0, 50, 23
1, 41078, Poly_aftertouch_c, 0, 62, 127
1, 41251, Note_off_c, 0, 69, 44
1, 41281, Note_off_c, 0, 57, 41
1, 41300, Note_off_c, 0, 73, 33
1, 41306, Note_off_c, 0, 66, 42
1, 41310, Note_off_c, 0, 61, 41
1, 41344, Note_off_c, 0, 54, 44
1, 41506, Poly_aftertouch_c, 0, 62, 0
1, 41580, Note_off_c, 0, 50, 38
1, 41621, Note_on_c, 0, 64, 32
1, 41626, Note_on_c, 0, 68, 34
1, 41631, Note_on_c, 0, 71, 32
1, 41635, Note_on_c, 0, 59, 34
1, 41639, Note_on_c, 0, 52, 30
1, 41648, Note_on_c, 0, 56, 24
1, 41693, Note_off_c, 0, 64, 60
1, 41706, Note_off_c, 0, 52, 57
1, 41719, Note_off_c, 0, 56, 57
1, 41722, Note_off_c, 0, 68, 62
1, 41728, Note_off_c, 0, 59, 60
1, 41737, Note_off_c, 0, 71, 30
1, 42050, Note_on_c, 0, 85, 47
1, 42080, Note_on_c, 0, 74, 31
1, 42085, Note_on_c, 0, 69, 34
1, 42087, Note_on_c, 0, 78, 34
1, 42097, Note_on_c, 0, 81, 31
1, 42098, Note_on_c, 0, 73, 39
1, 42111, Note_on_c, 0, 62, 32
1, 42112, Note_on_c, 0, 66, 28
1, 42164, Note_off_c, 0, 81, 60
1, 42181, Note_off_c, 0, 69, 59
1, 42191, Note_off_c, 0, 78, 54
1, 42193, Note_off_c, 0, 73, 62
1, 42206, Note_off_c, 0, 85, 56
1, 42260, Note_off_c, 0, 66, 34
1, 42283, Control_c, 0, 67, 96
1, 42298, Control_c, 0, 67, 60
1, 42313, Control_c, 0, 67, 0
1, 42317, Note_off_c, 0, 62, 29
1, 42354, Note_off_c, 0, 74, 43
1, 42433, Note_on_c, 0, 83, 54
1, 42440, Note_on_c, 0, 76, 43
1, 42451, Note_on_c, 0, 80, 43
1, 42463, Note_on_c, 0, 64, 41
1, 42464, Note_on_c, 0, 71, 42
1, 42477, Note_off_c, 0, 76, 62
1, 42480, Note_on_c, 0, 68, 26
1, 42498, Note_off_c, 0, 64, 63
1, 42508, Note_off_c, 0, 71, 61
1, 42512, Note_off_c, 0, 83, 63
1, 42518, Note_off_c, 0, 68, 48
1, 42520, Note_off_c, 0, 80, 59
1, 42820, Note_on_c, 0, 97, 57
1, 42837, Note_on_c, 0, 93, 43
1, 42837, Note_on_c, 0, 81, 43
1, 42843, Note_on_c, 0, 85, 48
1, 42843, Note_on_c, 0, 86, 46
1, 42847, Note_on_c, 0, 78, 39
1, 42849, Note_on_c, 0, 74, 44
1, 42868, Note_on_c, 0, 90, 36
1, 42918, Note_off_c, 0, 85, 61
1, 42921, Note_off_c, 0, 81, 61
1, 42926, Note_off_c, 0, 93, 59
1, 42933, Note_off_c, 0, 90, 56
1, 42949, Note_off_c, 0, 97, 59
1, 42953, Note_off_c, 0, 78, 50
1, 43063, Note_off_c, 0, 74, 26
1, 43167, Note_off_c, 0, 86, 36
1, 43199, Note_on_c, 0, 83, 36
1, 43201, Note_on_c, 0, 95, 55
1, 43204, Note_on_c, 0, 88, 45
1, 43208, Note_on_c, 0, 76, 44
1, 43210, Note_on_c, 0, 92, 48
1, 43212, Note_on_c, 0, 80, 39
1, 43227, Note_off_c, 0, 83, 55
1, 43240, Note_off_c, 0, 80, 63
1, 43245, Note_off_c, 0, 95, 63
1, 43246, Note_off_c, 0, 88, 65
1, 43258, Note_off_c, 0, 76, 65
1, 43262, Note_off_c, 0, 92, 62
1, 43351, Control_c, 0, 67, 44
1, 43366, Control_c, 0, 67, 85
1, 43381, Control_c, 0, 67, 127
1, 43569, Note_on_c, 0, 85, 52
1, 43587, Note_on_c, 0, 81, 40
1, 43591, Note_on_c, 0, 78, 35
1, 43592, Note_on_c, 0, 62, 33
1, 43594, Note_on_c, 0, 69, 37
1, 43594, Note_on_c, 0, 73, 35
1, 43595, Note_on_c, 0, 74, 38
1, 43597, Note_on_c, 0, 66, 39
1, 43650, Note_off_c, 0, 81, 55
1, 43663, Note_off_c, 0, 69, 55
1, 43663, Note_off_c, 0, 78, 48
1, 43663, Note_off_c, 0, 73, 59
1, 43683, Note_off_c, 0, 85, 58
1, 43697, Note_off_c, 0, 66, 52
1, 43814, Note_off_c, 0, 62, 38
1, 43836, Note_off_c, 0, 74, 31
1, 43943, Note_on_c, 0, 83, 45
1, 43946, Note_on_c, 0, 71, 27
1, 43949, Note_on_c, 0, 64, 39
1, 43951, Note_on_c, 0, 76, 31
1, 43953, Note_on_c, 0, 68, 26
1, 43954, Note_on_c, 0, 80, 39
1, 43983, Note_off_c, 0, 71, 55
1, 43987, Note_off_c, 0, 83, 60
1, 43989, Note_off_c, 0, 68, 57
1, 43995, Note_off_c, 0, 76, 63
1, 44008, Note_off_c, 0, 80, 60
1, 44030, Note_off_c, 0, 64, 64
1, 44359, Note_on_c, 0, 73, 26
1, 44371, Note_on_c, 0, 66, 30
1, 44378, Note_on_c, 0, 69, 21
1, 44380, Note_on_c, 0, 62, 22
1, 44381, Note_on_c, 0, 50, 19
1, 44399, Note_on_c, 0, 57, 34
1, 44408, Poly_aftertouch_c, 0, 61, 127
1, 44418, Poly_aftertouch_c, 0, 54, 127
1, 44426, Note_off_c, 0, 69, 48
1, 44452, Note_off_c, 0, 66, 48
1, 44469, Note_off_c, 0, 57, 56
1, 44481, Note_off_c, 0, 73, 49
1, 44493, Poly_aftertouch_c, 0, 61, 0
1, 44518, Poly_aftertouch_c, 0, 54, 0
1, 44738, Note_off_c, 0, 62, 37
1, 44829, Note_on_c, 0, 71, 36
1, 44841, Note_on_c, 0, 64, 28
1, 44842, Note_on_c, 0, 59, 30
1, 44842, Note_on_c, 0, 68, 31
1, 44852, Note_on_c, 0, 56, 20
1, 44864, Note_on_c, 0, 52, 28
1, 44911, Note_off_c, 0, 71, 55
1, 44917, Note_off_c, 0, 64, 45
1, 44920, Note_off_c, 0, 56, 47
1, 44929, Note_off_c, 0, 50, 25
1, 44935, Note_off_c, 0, 59, 57
1, 44941, Note_off_c, 0, 68, 60
1, 45025, Note_off_c, 0, 52, 33
1, 45385, Note_on_c, 0, 58, 62
1, 45409, Note_on_c, 0, 55, 50
1, 45412, Note_on_c, 0, 47, 41
1, 45421, Note_on_c, 0, 51, 41
1, 45636, Note_off_c, 0, 51, 56
1, 45659, Note_off_c, 0, 58, 58
1, 45853, Note_off_c, 0, 55, 36
1, 46067, Note_on_c, 0, 34, 60
1, 46080, Note_on_c, 0, 56, 42
1, 46083, Note_on_c, 0, 53, 39
1, 46086, Control_c, 0, 64, 102
1, 46101, Control_c, 0, 64, 76
1, 46116, Control_c, 0, 64, 59
1, 46117, Note_on_c, 0, 49, 25
1, 46131, Control_c, 0, 64, 38
1, 46145, Control_c, 0, 64, 0
1, 46206, Control_c, 0, 64, 32
1, 46220, Control_c, 0, 64, 49
1, 46235, Control_c, 0, 64, 62
1, 46250, Control_c, 0, 64, 70
1, 46265, Control_c, 0, 64, 79
1, 46280, Control_c, 0, 64, 92
1, 46302, Control_c, 0, 64, 111
1, 46306, Note_off_c, 0, 47, 32
1, 46317, Control_c, 0, 64, 127
1, 46322, Note_off_c, 0, 34, 61
1, 46382, Note_off_c, 0, 49, 48
1, 46397, Note_off_c, 0, 53, 59
1, 46442, Note_off_c, 0, 56, 24
1, 46854, Note_on_c, 0, 47, 26
1, 46855, Note_on_c, 0, 70, 45
1, 46864, Note_on_c, 0, 58, 33
1, 46867, Note_on_c, 0, 59, 30
1, 46881, Note_on_c, 0, 51, 35
1, 46882, Note_on_c, 0, 67, 37
1, 46886, Note_on_c, 0, 55, 37
1, 46895, Note_on_c, 0, 63, 30
1, 47012, Note_off_c, 0, 55, 59
1, 47052, Note_off_c, 0, 70, 59
1, 47055, Note_off_c, 0, 58, 53
1, 47088, Note_off_c, 0, 63, 39
1, 47129, Note_off_c, 0, 51, 41
1, 47175, Note_off_c, 0, 67, 41
1, 47216, Note_off_c, 0, 59, 42
1, 47300, Note_off_c, 0, 47, 26
1, 47338, Note_on_c, 0, 49, 45
1, 47343, Note_on_c, 0, 68, 50
1, 47344, Note_on_c, 0, 56, 43
1, 47344, Note_on_c, 0, 65, 49
1, 47357, Note_on_c, 0, 61, 36
1, 47359, Note_on_c, 0, 53, 38
1, 47396, Note_off_c, 0, 53, 62
1, 47397, Note_off_c, 0, 61, 63
1, 47409, Note_off_c, 0, 65, 50
1, 47414, Note_off_c, 0, 49, 60
1, 47421, Note_off_c, 0, 56, 61
1, 47438, Note_off_c, 0, 68, 55
1, 47699, Note_on_c, 0, 82, 65
1, 47733, Note_on_c, 0, 71, 43
1, 47737, Note_on_c, 0, 70, 50
1, 47738, Note_on_c, 0, 79, 45
1, 47739, Note_on_c, 0, 59, 44
1, 47739, Note_on_c, 0, 75, 45
1, 47740, Note_on_c, 0, 67, 48
1, 47764, Note_on_c, 0, 63, 42
1, 47825, Note_off_c, 0, 67, 61
1, 47841, Note_off_c, 0, 70, 58
1, 47848, Note_off_c, 0, 75, 61
1, 47869, Note_off_c, 0, 82, 62
1, 47874, Control_c, 0, 67, 123
1, 47880, Note_off_c, 0, 63, 57
1, 47889, Control_c, 0, 67, 118
1, 47904, Control_c, 0, 67, 112
1, 47918, Control_c, 0, 67, 103
1, 47932, Note_off_c, 0, 79, 49
1, 47933, Control_c, 0, 67, 93
1, 47948, Control_c, 0, 67, 83
1, 47963, Control_c, 0, 67, 71
1, 47964, Note_off_c, 0, 59, 38
1, 47978, Control_c, 0, 67, 62
1, 47985, Note_off_c, 0, 71, 41
1, 47992, Control_c, 0, 67, 54
1, 48007, Control_c, 0, 67, 47
1, 48022, Control_c, 0, 67, 40
1, 48037, Control_c, 0, 67, 33
1, 48052, Control_c, 0, 67, 0
1, 48062, Note_on_c, 0, 80, 71
1, 48070, Note_on_c, 0, 61, 53
1, 48077, Note_on_c, 0, 77, 61
1, 48077, Note_on_c, 0, 68, 56
1, 48080, Note_on_c, 0, 73, 54
1, 48092, Note_on_c, 0, 65, 41
1, 48121, Note_off_c, 0, 73, 62
1, 48122, Note_off_c, 0, 65, 60
1, 48124, Note_off_c, 0, 61, 57
1, 48140, Note_off_c, 0, 68, 61
1, 48143, Note_off_c, 0, 77, 62
1, 48161, Note_off_c, 0, 80, 62
1, 48426, Note_on_c, 0, 94, 72
1, 48444, Note_on_c, 0, 83, 44
1, 48447, Note_on_c, 0, 79, 48
1, 48449, Note_on_c, 0, 91, 53
1, 48460, Note_on_c, 0, 71, 48
1, 48462, Note_on_c, 0, 87, 50
1, 48465, Note_on_c, 0, 82, 40
1, 48503, Note_on_c, 0, 75, 30
1, 48533, Note_off_c, 0, 79, 63
1, 48548, Note_off_c, 0, 82, 61
1, 48562, Note_off_c, 0, 75, 53
1, 48564, Note_off_c, 0, 87, 63
1, 48590, Note_off_c, 0, 94, 62
1, 48626, Note_off_c, 0, 91, 60
1, 48658, Note_off_c, 0, 71, 30
1, 48791, Note_on_c, 0, 92, 60
1, 48795, Note_off_c, 0, 83, 22
1, 48801, Note_on_c, 0, 73, 42
1, 48807, Note_on_c, 0, 80, 29
1, 48814, Note_on_c, 0, 77, 38
1, 48818, Note_on_c, 0, 89, 47
1, 48823, Note_on_c, 0, 85, 49
1, 48840, Note_off_c, 0, 80, 45
1, 48846, Note_off_c, 0, 77, 50
1, 48850, Note_off_c, 0, 73, 63
1, 48858, Note_off_c, 0, 85, 65
1, 48858, Note_off_c, 0, 92, 65
1, 48864, Note_off_c, 0, 89, 63
1, 48874, Control_c, 0, 67, 42
1, 48888, Control_c, 0, 67, 53
1, 48903, Control_c, 0, 67, 67
1, 48918, Control_c, 0, 67, 86
1, 48933, Control_c, 0, 67, 103
1, 48947, Control_c, 0, 67, 116
1, 48962, Control_c, 0, 67, 127
1, 49173, Note_on_c, 0, 82, 49
1, 49191, Note_on_c, 0, 67, 29
1, 49193, Note_on_c, 0, 70, 30
1, 49198, Note_on_c, 0, 71, 31
1, 49199, Note_on_c, 0, 79, 37
1, 49210, Note_on_c, 0, 59, 37
1, 49219, Note_on_c, 0, 63, 33
1, 49219, Note_on_c, 0, 75, 21
1, 49306, Note_off_c, 0, 82, 56
1, 49318, Note_off_c, 0, 70, 62
1, 49320, Note_off_c, 0, 67, 35
1, 49356, Note_off_c, 0, 75, 39
1, 49396, Note_off_c, 0, 63, 36
1, 49429, Note_off_c, 0, 79, 34
1, 49651, Note_on_c, 0, 61, 34
1, 49659, Note_on_c, 0, 80, 40
1, 49669, Note_on_c, 0, 73, 34
1, 49675, Note_on_c, 0, 68, 34
1, 49681, Note_on_c, 0, 65, 29
1, 49681, Note_on_c, 0, 77, 36
1, 49749, Note_off_c, 0, 71, 39
1, 49765, Note_off_c, 0, 59, 36
1, 49809, Note_off_c, 0, 68, 50
1, 49842, Note_off_c, 0, 65, 37
1, 49857, Note_off_c, 0, 73, 48
1, 49866, Note_off_c, 0, 80, 37
1, 49878, Note_off_c, 0, 77, 34
1, 49892, Note_off_c, 0, 61, 42
1, 50273, Note_on_c, 0, 56, 56
1, 50343, Control_c, 0, 64, 83
1, 50358, Control_c, 0, 64, 62
1, 50373, Control_c, 0, 64, 35
1, 50387, Control_c, 0, 64, 0
1, 50773, Control_c, 0, 64, 29
1, 50795, Control_c, 0, 64, 51
1, 50810, Control_c, 0, 64, 65
1, 50825, Control_c, 0, 64, 75
1, 50825, Note_on_c, 0, 67, 59
1, 50840, Control_c, 0, 64, 96
1, 50840, Control_c, 0, 67, 100
1, 50855, Control_c, 0, 64, 127
1, 50855, Control_c, 0, 67, 70
1, 50869, Control_c, 0, 67, 0
1, 50900, Note_off_c, 0, 67, 62
1, 50903, Note_off_c, 0, 56, 61
1, 51227, Note_on_c, 0, 87, 77
1, 51279, Note_off_c, 0, 87, 59
1, 51699, Note_on_c, 0, 76, 62
1, 51728, Note_off_c, 0, 76, 66
1, 52259, Note_on_c, 0, 97, 97
1, 52271, Note_on_c, 0, 82, 78
1, 52291, Note_on_c, 0, 71, 66
1, 52292, Note_on_c, 0, 79, 62
1, 52296, Note_on_c, 0, 75, 61
1, 52304, Note_off_c, 0, 97, 66
1, 52737, Control_c, 0, 67, 39
1, 52752, Control_c, 0, 67, 69
1, 52767, Control_c, 0, 67, 101
1, 52782, Control_c, 0, 67, 127
1, 53211, Note_on_c, 0, 34, 32
1, 53383, Note_off_c, 0, 34, 43
1, 53413, Note_off_c, 0, 82, 32
1, 53505, Note_off_c, 0, 75, 36
1, 53640, Note_off_c, 0, 79, 38
1, 53912, Note_on_c, 0, 80, 40
1, 53922, Note_on_c, 0, 77, 33
1, 53923, Note_on_c, 0, 73, 34
1, 54170, Note_off_c, 0, 80, 38
1, 54175, Note_off_c, 0, 71, 32
1, 54197, Note_off_c, 0, 73, 36
1, 54251, Note_off_c, 0, 77, 40
1, 54608, Note_on_c, 0, 82, 43
1, 54610, Note_on_c, 0, 71, 35
1, 54616, Note_on_c, 0, 62, 17
1, 54622, Note_on_c, 0, 68, 18
1, 54626, Note_on_c, 0, 70, 29
1, 54627, Note_on_c, 0, 75, 38
1, 54627, Note_on_c, 0, 79, 39
1, 54640, Note_on_c, 0, 66, 31
1, 54658, Note_on_c, 0, 60, 18
1, 54667, Note_on_c, 0, 64, 34
1, 54810, Note_off_c, 0, 82, 56
1, 54850, Note_off_c, 0, 75, 56
1, 55114, Note_on_c, 0, 80, 63
1, 55116, Note_on_c, 0, 77, 53
1, 55129, Note_off_c, 0, 79, 40
1, 55133, Note_on_c, 0, 73, 45
1, 55248, Note_off_c, 0, 70, 45
1, 55257, Note_off_c, 0, 60, 42
1, 55272, Note_off_c, 0, 68, 39
1, 55273, Note_off_c, 0, 66, 42
1, 55276, Note_off_c, 0, 62, 41
1, 55292, Note_off_c, 0, 64, 46
1, 55305, Note_off_c, 0, 73, 62
1, 55310, Note_off_c, 0, 80, 60
1, 55336, Note_off_c, 0, 71, 41
1, 55347, Note_off_c, 0, 77, 60
1, 55533, Note_on_c, 0, 82, 71
1, 55547, Note_on_c, 0, 79, 55
1, 55555, Note_on_c, 0, 70, 41
1, 55557, Note_on_c, 0, 62, 37
1, 55559, Note_on_c, 0, 71, 39
1, 55565, Note_on_c, 0, 66, 38
1, 55566, Note_on_c, 0, 68, 36
1, 55568, Note_on_c, 0, 75, 49
1, 55589, Note_on_c, 0, 64, 38
1, 55595, Note_on_c, 0, 60, 32
1, 55723, Note_off_c, 0, 75, 57
1, 55732, Note_off_c, 0, 79, 62
1, 55783, Note_off_c, 0, 82, 57
1, 55845, Note_off_c, 0, 68, 40
1, 55855, Note_off_c, 0, 60, 41
1, 55863, Note_off_c, 0, 62, 58
1, 55863, Note_off_c, 0, 64, 59
1, 55904, Note_off_c, 0, 66, 36
1, 55932, Note_off_c, 0, 70, 37
1, 55956, Note_on_c, 0, 83, 73
1, 55972, Note_on_c, 0, 80, 63
1, 55989, Note_on_c, 0, 76, 54
1, 56099, Note_off_c, 0, 71, 41
1, 56121, Note_off_c, 0, 83, 60
1, 56136, Note_off_c, 0, 76, 60
1, 56173, Note_off_c, 0, 80, 62
1, 56650, Note_on_c, 0, 74, 30
1, 56658, Note_on_c, 0, 82, 38
1, 56659, Note_on_c, 0, 85, 46
1, 56668, Note_on_c, 0, 78, 33
1, 56680, Note_on_c, 0, 65, 26
1, 56680, Note_on_c, 0, 73, 26
1, 56683, Note_on_c, 0, 63, 12
1, 56685, Note_on_c, 0, 69, 16
1, 56695, Note_on_c, 0, 67, 30
1, 56704, Control_c, 0, 64, 104
1, 56719, Control_c, 0, 64, 87
1, 56734, Control_c, 0, 64, 72
1, 56749, Control_c, 0, 64, 59
1, 56763, Control_c, 0, 64, 43
1, 56785, Control_c, 0, 64, 0
1, 56933, Control_c, 0, 64, 29
1, 56948, Control_c, 0, 64, 39
1, 56963, Control_c, 0, 64, 50
1, 56978, Control_c, 0, 64, 58
1, 56993, Control_c, 0, 64, 62
1, 57008, Control_c, 0, 64, 64
1, 57023, Control_c, 0, 64, 67
1, 57037, Control_c, 0, 64, 72
1, 57052, Control_c, 0, 64, 76
1, 57059, Note_off_c, 0, 82, 48
1, 57067, Control_c, 0, 64, 81
1, 57070, Note_off_c, 0, 85, 40
1, 57081, Control_c, 0, 64, 85
1, 57094, Note_off_c, 0, 78, 32
1, 57096, Control_c, 0, 64, 91
1, 57111, Control_c, 0, 64, 103
1, 57126, Control_c, 0, 64, 127
1, 57327, Note_on_c, 0, 83, 40
1, 57344, Note_on_c, 0, 76, 31
1, 57348, Note_on_c, 0, 80, 39
1, 57392, Note_off_c, 0, 74, 34
1, 57397, Note_off_c, 0, 73, 35
1, 57412, Note_off_c, 0, 69, 36
1, 57429, Note_off_c, 0, 63, 35
1, 57429, Note_off_c, 0, 65, 37
1, 57455, Note_off_c, 0, 67, 33
1, 57469, Note_off_c, 0, 83, 53
1, 57507, Note_off_c, 0, 76, 45
1, 57516, Note_off_c, 0, 80, 57
1, 57761, Note_on_c, 0, 85, 45
1, 57783, Note_on_c, 0, 71, 36
1, 57786, Note_on_c, 0, 74, 34
1, 57788, Note_on_c, 0, 82, 43
1, 57795, Note_on_c, 0, 78, 35
1, 57801, Note_on_c, 0, 63, 20
1, 57810, Note_on_c, 0, 65, 33
1, 57813, Note_on_c, 0, 69, 29
1, 57831, Note_on_c, 0, 67, 28
1, 57923, Note_off_c, 0, 82, 56
1, 57947, Note_off_c, 0, 78, 48
1, 57952, Note_off_c, 0, 85, 52
1, 58163, Note_off_c, 0, 74, 39
1, 58187, Note_on_c, 0, 83, 56
1, 58195, Note_on_c, 0, 80, 50
1, 58203, Note_on_c, 0, 76, 44
1, 58236, Note_off_c, 0, 71, 59
1, 58314, Note_off_c, 0, 76, 55
1, 58319, Note_off_c, 0, 63, 38
1, 58322, Note_off_c, 0, 83, 59
1, 58341, Note_off_c, 0, 65, 33
1, 58352, Note_off_c, 0, 69, 42
1, 58365, Note_off_c, 0, 80, 60
1, 58370, Note_off_c, 0, 67, 43
1, 58574, Note_on_c, 0, 85, 68
1, 58584, Note_on_c, 0, 73, 51
1, 58593, Note_on_c, 0, 82, 53
1, 58600, Note_on_c, 0, 65, 41
1, 58600, Note_on_c, 0, 74, 39
1, 58606, Note_on_c, 0, 78, 42
1, 58609, Note_on_c, 0, 69, 44
1, 58619, Note_on_c, 0, 67, 41
1, 58644, Note_on_c, 0, 63, 27
1, 58746, Note_off_c, 0, 78, 56
1, 58746, Note_off_c, 0, 82, 60
1, 58749, Note_off_c, 0, 85, 63
1, 58951, Note_on_c, 0, 83, 74
1, 58966, Note_on_c, 0, 80, 61
1, 58979, Note_on_c, 0, 76, 51
1, 59079, Note_off_c, 0, 76, 59
1, 59092, Note_off_c, 0, 73, 56
1, 59096, Note_off_c, 0, 74, 34
1, 59111, Note_off_c, 0, 69, 28
1, 59112, Note_off_c, 0, 83, 61
1, 59127, Note_off_c, 0, 67, 47
1, 59134, Note_off_c, 0, 80, 63
1, 59148, Note_off_c, 0, 65, 34
1, 59157, Note_off_c, 0, 63, 36
1, 59419, Note_on_c, 0, 85, 67
1, 59440, Note_on_c, 0, 82, 52
1, 59454, Note_on_c, 0, 71, 39
1, 59462, Note_on_c, 0, 74, 40
1, 59463, Note_on_c, 0, 63, 31
1, 59463, Note_on_c, 0, 65, 34
1, 59463, Note_on_c, 0, 69, 34
1, 59467, Note_on_c, 0, 78, 42
1, 59488, Note_on_c, 0, 67, 33
1, 59521, Control_c, 0, 64, 94
1, 59536, Control_c, 0, 64, 75
1, 59550, Control_c, 0, 64, 62
1, 59565, Control_c, 0, 64, 49
1, 59580, Control_c, 0, 64, 45
1, 59609, Control_c, 0, 64, 48
1, 59624, Control_c, 0, 64, 53
1, 59639, Control_c, 0, 64, 59
1, 59654, Control_c, 0, 64, 63
1, 59669, Control_c, 0, 64, 68
1, 59683, Control_c, 0, 64, 73
1, 59698, Control_c, 0, 64, 79
1, 59702, Note_off_c, 0, 78, 30
1, 59713, Control_c, 0, 64, 83
1, 59728, Control_c, 0, 64, 88
1, 59743, Control_c, 0, 64, 94
1, 59759, Control_c, 0, 64, 102
1, 59780, Control_c, 0, 64, 110
1, 59792, Note_off_c, 0, 85, 51
1, 59795, Control_c, 0, 64, 127
1, 59805, Note_off_c, 0, 82, 24
1, 59858, Note_off_c, 0, 74, 28
1, 60022, Note_off_c, 0, 71, 38
1, 60077, Note_off_c, 0, 69, 35
1, 60082, Note_on_c, 0, 86, 42
1, 60093, Note_on_c, 0, 83, 39
1, 60104, Note_on_c, 0, 79, 25
1, 60109, Note_off_c, 0, 67, 39
1, 60141, Note_off_c, 0, 65, 32
1, 60182, Note_off_c, 0, 63, 48
1, 60190, Note_off_c, 0, 86, 61
1, 60212, Note_off_c, 0, 83, 57
1, 60222, Note_off_c, 0, 79, 37
1, 60793, Note_on_c, 0, 82, 38
1, 60795, Note_on_c, 0, 62, 37
1, 60796, Note_on_c, 0, 71, 33
1, 60802, Note_on_c, 0, 75, 37
1, 60806, Note_on_c, 0, 79, 39
1, 60813, Note_on_c, 0, 70, 34
1, 60814, Note_on_c, 0, 66, 38
1, 60817, Note_on_c, 0, 64, 41
1, 60822, Note_on_c, 0, 68, 30
1, 60838, Note_on_c, 0, 60, 21
1, 60841, Control_c, 0, 64, 97
1, 60855, Control_c, 0, 64, 77
1, 60870, Control_c, 0, 64, 63
1, 60885, Control_c, 0, 64, 51
1, 60900, Control_c, 0, 64, 50
1, 60915, Control_c, 0, 64, 51
1, 60929, Control_c, 0, 64, 53
1, 60944, Control_c, 0, 64, 55
1, 60959, Control_c, 0, 64, 58
1, 60974, Control_c, 0, 64, 61
1, 60989, Control_c, 0, 64, 64
1, 61003, Control_c, 0, 64, 68
1, 61018, Control_c, 0, 64, 73
1, 61033, Control_c, 0, 64, 78
1, 61047, Control_c, 0, 64, 81
1, 61062, Control_c, 0, 64, 84
1, 61077, Control_c, 0, 64, 88
1, 61090, Note_off_c, 0, 82, 34
1, 61092, Control_c, 0, 64, 96
1, 61104, Note_off_c, 0, 75, 32
1, 61107, Control_c, 0, 64, 105
1, 61121, Control_c, 0, 64, 125
1, 61136, Control_c, 0, 64, 127
1, 61283, Note_off_c, 0, 79, 37
1, 61443, Note_on_c, 0, 80, 43
1, 61453, Note_on_c, 0, 73, 38
1, 61454, Note_on_c, 0, 77, 38
1, 61526, Note_off_c, 0, 70, 56
1, 61538, Note_off_c, 0, 66, 57
1, 61539, Note_off_c, 0, 60, 43
1, 61540, Note_off_c, 0, 64, 56
1, 61547, Note_off_c, 0, 62, 56
1, 61547, Note_off_c, 0, 68, 41
1, 61548, Note_off_c, 0, 71, 32
1, 61557, Note_off_c, 0, 80, 55
1, 61589, Note_off_c, 0, 73, 56
1, 61616, Note_off_c, 0, 77, 38
1, 61953, Note_on_c, 0, 82, 56
1, 61969, Note_on_c, 0, 79, 49
1, 61971, Note_on_c, 0, 70, 45
1, 61972, Note_on_c, 0, 62, 44
1, 61973, Note_on_c, 0, 71, 42
1, 61974, Note_on_c, 0, 75, 50
1, 61975, Note_on_c, 0, 68, 40
1, 61977, Note_on_c, 0, 66, 45
1, 61983, Note_on_c, 0, 64, 42
1, 62021, Note_on_c, 0, 60, 37
1, 62135, Note_off_c, 0, 82, 56
1, 62178, Note_off_c, 0, 75, 50
1, 62227, Note_off_c, 0, 71, 38
1, 62296, Note_off_c, 0, 79, 34
1, 62378, Note_off_c, 0, 70, 50
1, 62402, Note_off_c, 0, 68, 38
1, 62433, Note_off_c, 0, 60, 40
1, 62446, Note_off_c, 0, 62, 57
1, 62458, Note_off_c, 0, 64, 54
1, 62479, Note_off_c, 0, 66, 37
1, 62493, Note_on_c, 0, 80, 48
1, 62513, Note_on_c, 0, 77, 48
1, 62516, Note_on_c, 0, 73, 41
1, 62615, Note_off_c, 0, 80, 59
1, 62629, Note_off_c, 0, 77, 53
1, 62632, Note_off_c, 0, 73, 48
1, 62664, Control_c, 0, 67, 120
1, 62679, Control_c, 0, 67, 112
1, 62693, Control_c, 0, 67, 107
1, 62708, Control_c, 0, 67, 101
1, 62723, Control_c, 0, 67, 98
1, 62738, Control_c, 0, 67, 95
1, 62753, Control_c, 0, 67, 91
1, 62775, Control_c, 0, 67, 85
1, 62790, Control_c, 0, 67, 77
1, 62805, Control_c, 0, 67, 69
1, 62819, Control_c, 0, 67, 61
1, 62834, Control_c, 0, 67, 54
1, 62849, Control_c, 0, 67, 48
1, 62864, Control_c, 0, 67, 41
1, 62879, Control_c, 0, 67, 35
1, 62893, Control_c, 0, 67, 0
1, 62922, Note_on_c, 0, 82, 64
1, 62937, Note_on_c, 0, 79, 54
1, 62951, Note_on_c, 0, 70, 46
1, 62952, Note_on_c, 0, 75, 46
1, 62952, Note_on_c, 0, 68, 40
1, 62959, Note_on_c, 0, 60, 38
1, 62964, Note_on_c, 0, 62, 46
1, 62966, Note_on_c, 0, 66, 47
1, 62970, Note_on_c, 0, 71, 44
1, 62979, Note_on_c, 0, 64, 48
1, 63076, Note_off_c, 0, 75, 55
1, 63103, Note_off_c, 0, 82, 61
1, 63179, Note_off_c, 0, 70, 53
1, 63205, Note_off_c, 0, 60, 35
1, 63214, Note_off_c, 0, 62, 58
1, 63214, Note_off_c, 0, 68, 37
1, 63216, Note_off_c, 0, 71, 33
1, 63217, Note_off_c, 0, 64, 50
1, 63217, Note_off_c, 0, 66, 56
1, 63275, Note_off_c, 0, 79, 29
1, 63371, Note_on_c, 0, 80, 60
1, 63386, Note_on_c, 0, 73, 47
1, 63387, Note_on_c, 0, 77, 46
1, 63482, Note_off_c, 0, 73, 62
1, 63483, Note_off_c, 0, 80, 55
1, 63494, Note_off_c, 0, 77, 62
1, 63782, Note_on_c, 0, 82, 77
1, 63789, Note_on_c, 0, 79, 61
1, 63790, Note_on_c, 0, 70, 53
1, 63801, Note_on_c, 0, 68, 61
1, 63802, Note_on_c, 0, 75, 63
1, 63804, Note_on_c, 0, 71, 49
1, 63813, Note_on_c, 0, 62, 55
1, 63813, Note_on_c, 0, 66, 61
1, 63826, Note_on_c, 0, 64, 54
1, 63828, Note_on_c, 0, 60, 48
1, 63851, Control_c, 0, 64, 98
1, 63865, Control_c, 0, 64, 73
1, 63880, Control_c, 0, 64, 58
1, 63895, Control_c, 0, 64, 48
1, 63910, Control_c, 0, 64, 50
1, 63925, Control_c, 0, 64, 56
1, 63940, Control_c, 0, 64, 62
1, 63954, Control_c, 0, 64, 70
1, 63969, Control_c, 0, 64, 80
1, 63984, Control_c, 0, 64, 91
1, 63998, Control_c, 0, 64, 98
1, 64009, Note_off_c, 0, 79, 61
1, 64013, Control_c, 0, 64, 104
1, 64018, Note_off_c, 0, 75, 51
1, 64028, Control_c, 0, 64, 122
1, 64043, Control_c, 0, 64, 127
1, 64052, Note_off_c, 0, 82, 60
1, 64091, Note_off_c, 0, 71, 55
1, 64201, Note_off_c, 0, 68, 46
1, 64224, Note_off_c, 0, 70, 37
1, 64228, Note_on_c, 0, 83, 70
1, 64231, Note_off_c, 0, 62, 58
1, 64237, Note_off_c, 0, 66, 39
1, 64247, Note_on_c, 0, 76, 56
1, 64248, Note_on_c, 0, 80, 59
1, 64257, Note_off_c, 0, 60, 36
1, 64257, Note_off_c, 0, 64, 38
1, 64335, Note_off_c, 0, 76, 60
1, 64359, Note_off_c, 0, 83, 62
1, 64386, Note_off_c, 0, 80, 61
1, 64812, Note_on_c, 0, 85, 75
1, 64828, Note_on_c, 0, 73, 78
1, 64831, Note_on_c, 0, 82, 61
1, 64850, Note_on_c, 0, 78, 48
1, 64851, Note_on_c, 0, 69, 57
1, 64854, Note_on_c, 0, 67, 59
1, 64857, Note_on_c, 0, 65, 59
1, 64858, Note_on_c, 0, 74, 49
1, 64860, Note_on_c, 0, 63, 55
1, 64939, Control_c, 0, 64, 82
1, 64954, Control_c, 0, 64, 63
1, 64968, Control_c, 0, 64, 46
1, 64983, Control_c, 0, 64, 40
1, 64998, Control_c, 0, 64, 42
1, 65020, Control_c, 0, 64, 48
1, 65035, Control_c, 0, 64, 58
1, 65050, Control_c, 0, 64, 65
1, 65065, Control_c, 0, 64, 73
1, 65080, Control_c, 0, 64, 82
1, 65094, Control_c, 0, 64, 90
1, 65109, Control_c, 0, 64, 102
1, 65118, Note_off_c, 0, 82, 57
1, 65124, Control_c, 0, 64, 127
1, 65128, Note_off_c, 0, 78, 53
1, 65154, Note_off_c, 0, 85, 62
1, 65306, Note_off_c, 0, 74, 35
1, 65411, Note_on_c, 0, 83, 64
1, 65412, Note_on_c, 0, 76, 48
1, 65428, Note_on_c, 0, 80, 53
1, 65480, Note_off_c, 0, 73, 59
1, 65524, Note_off_c, 0, 83, 59
1, 65533, Note_off_c, 0, 76, 57
1, 65539, Note_off_c, 0, 69, 33
1, 65543, Note_off_c, 0, 65, 35
1, 65561, Note_off_c, 0, 67, 29
1, 65563, Note_off_c, 0, 63, 37
1, 65587, Note_off_c, 0, 80, 62
1, 65837, Note_on_c, 0, 71, 82
1, 65847, Note_on_c, 0, 85, 67
1, 65866, Note_on_c, 0, 65, 55
1, 65871, Note_on_c, 0, 67, 49
1, 65872, Note_on_c, 0, 82, 52
1, 65876, Note_on_c, 0, 63, 47
1, 65877, Note_on_c, 0, 74, 41
1, 65883, Note_on_c, 0, 69, 46
1, 65885, Note_on_c, 0, 78, 40
1, 65996, Note_off_c, 0, 82, 56
1, 66010, Note_off_c, 0, 78, 46
1, 66019, Note_off_c, 0, 85, 64
1, 66108, Note_off_c, 0, 74, 63
1, 66169, Note_off_c, 0, 71, 57
1, 66211, Note_off_c, 0, 63, 54
1, 66215, Note_off_c, 0, 69, 47
1, 66229, Note_on_c, 0, 83, 76
1, 66239, Note_on_c, 0, 76, 65
1, 66243, Note_off_c, 0, 65, 43
1, 66246, Note_on_c, 0, 80, 67
1, 66273, Note_off_c, 0, 67, 37
1, 66335, Note_off_c, 0, 76, 62
1, 66339, Note_off_c, 0, 83, 58
1, 66368, Note_off_c, 0, 80, 63
1, 66609, Note_on_c, 0, 85, 76
1, 66614, Note_on_c, 0, 73, 86
1, 66629, Note_on_c, 0, 74, 67
1, 66631, Note_on_c, 0, 78, 63
1, 66633, Note_on_c, 0, 82, 64
1, 66636, Note_on_c, 0, 69, 59
1, 66637, Note_on_c, 0, 65, 65
1, 66639, Note_on_c, 0, 63, 59
1, 66642, Note_on_c, 0, 67, 59
1, 66770, Note_off_c, 0, 82, 61
1, 66774, Note_off_c, 0, 78, 58
1, 66803, Note_off_c, 0, 85, 63
1, 66931, Note_off_c, 0, 74, 51
1, 66993, Note_on_c, 0, 83, 80
1, 67001, Note_on_c, 0, 76, 77
1, 67009, Note_on_c, 0, 80, 72
1, 67083, Note_off_c, 0, 73, 58
1, 67086, Note_off_c, 0, 69, 35
1, 67096, Note_off_c, 0, 76, 62
1, 67098, Note_off_c, 0, 65, 37
1, 67099, Note_off_c, 0, 67, 53
1, 67101, Note_off_c, 0, 63, 49
1, 67116, Note_off_c, 0, 80, 62
1, 67118, Note_off_c, 0, 83, 60
1, 67435, Note_on_c, 0, 85, 88
1, 67444, Note_on_c, 0, 82, 79
1, 67444, Note_on_c, 0, 71, 89
1, 67448, Note_on_c, 0, 74, 75
1, 67456, Note_on_c, 0, 78, 70
1, 67456, Note_on_c, 0, 69, 66
1, 67460, Note_on_c, 0, 65, 61
1, 67462, Note_on_c, 0, 63, 64
1, 67463, Note_on_c, 0, 67, 63
1, 67475, Control_c, 0, 64, 76
1, 67489, Control_c, 0, 64, 52
1, 67504, Control_c, 0, 64, 0
1, 67534, Control_c, 0, 64, 42
1, 67549, Control_c, 0, 64, 56
1, 67563, Control_c, 0, 64, 66
1, 67578, Control_c, 0, 64, 79
1, 67593, Control_c, 0, 64, 103
1, 67608, Control_c, 0, 64, 127
1, 67668, Note_off_c, 0, 78, 57
1, 67675, Note_off_c, 0, 82, 59
1, 67714, Note_off_c, 0, 85, 60
1, 67924, Note_on_c, 0, 86, 86
1, 67939, Note_on_c, 0, 79, 65
1, 67943, Note_on_c, 0, 83, 69
1, 68013, Note_off_c, 0, 71, 59
1, 68046, Note_off_c, 0, 69, 61
1, 68068, Note_off_c, 0, 67, 60
1, 68069, Note_off_c, 0, 86, 61
1, 68079, Note_off_c, 0, 74, 56
1, 68084, Note_off_c, 0, 65, 61
1, 68085, Note_off_c, 0, 63, 62
1, 68106, Note_off_c, 0, 79, 62
1, 68111, Note_off_c, 0, 83, 60
1, 68493, Note_on_c, 0, 82, 85
1, 68502, Note_on_c, 0, 79, 75
1, 68506, Note_on_c, 0, 71, 72
1, 68510, Note_on_c, 0, 75, 73
1, 68516, Note_on_c, 0, 70, 71
1, 68517, Note_on_c, 0, 68, 68
1, 68534, Note_on_c, 0, 66, 62
1, 68535, Note_on_c, 0, 62, 58
1, 68539, Note_on_c, 0, 60, 49
1, 68544, Note_on_c, 0, 64, 53
1, 68581, Control_c, 0, 64, 97
1, 68595, Control_c, 0, 64, 70
1, 68610, Control_c, 0, 64, 41
1, 68625, Control_c, 0, 64, 0
1, 68714, Control_c, 0, 64, 29
1, 68729, Control_c, 0, 64, 50
1, 68744, Control_c, 0, 64, 67
1, 68766, Control_c, 0, 64, 77
1, 68781, Control_c, 0, 64, 94
1, 68795, Control_c, 0, 64, 111
1, 68810, Control_c, 0, 64, 127
1, 68824, Note_off_c, 0, 82, 59
1, 68841, Note_off_c, 0, 75, 59
1, 68920, Note_off_c, 0, 79, 40
1, 69090, Note_on_c, 0, 80, 79
1, 69107, Note_on_c, 0, 77, 68
1, 69113, Note_on_c, 0, 73, 64
1, 69176, Note_off_c, 0, 60, 55
1, 69181, Note_off_c, 0, 70, 37
1, 69196, Note_off_c, 0, 71, 58
1, 69197, Note_off_c, 0, 62, 57
1, 69201, Note_off_c, 0, 66, 56
1, 69204, Note_off_c, 0, 64, 54
1, 69209, Note_off_c, 0, 68, 49
1, 69256, Note_off_c, 0, 73, 61
1, 69328, Note_off_c, 0, 80, 58
1, 69492, Note_on_c, 0, 79, 76
1, 69516, Note_on_c, 0, 70, 54
1, 69519, Note_on_c, 0, 75, 60
1, 69520, Note_on_c, 0, 68, 44
1, 69529, Note_on_c, 0, 72, 56
1, 69531, Note_on_c, 0, 66, 53
1, 69534, Note_on_c, 0, 62, 47
1, 69548, Note_on_c, 0, 64, 49
1, 69558, Note_on_c, 0, 60, 41
1, 69560, Note_off_c, 0, 77, 52
1, 69611, Note_off_c, 0, 79, 61
1, 69641, Note_off_c, 0, 75, 63
1, 69651, Note_off_c, 0, 72, 60
1, 69710, Note_off_c, 0, 70, 56
1, 69739, Note_off_c, 0, 68, 47
1, 69867, Note_off_c, 0, 66, 38
1, 69879, Note_off_c, 0, 60, 36
1, 69895, Note_on_c, 0, 77, 82
1, 69912, Note_on_c, 0, 73, 58
1, 69917, Note_off_c, 0, 64, 33
1, 69919, Note_off_c, 0, 62, 37
1, 69930, Note_on_c, 0, 68, 52
1, 70029, Note_off_c, 0, 73, 62
1, 70042, Note_off_c, 0, 77, 57
1, 70043, Note_off_c, 0, 68, 57
1, 70298, Note_on_c, 0, 76, 67
1, 70318, Note_on_c, 0, 72, 57
1, 70330, Note_on_c, 0, 67, 51
1, 70337, Note_on_c, 0, 70, 44
1, 70342, Note_on_c, 0, 68, 34
1, 70347, Note_on_c, 0, 66, 40
1, 70348, Note_on_c, 0, 62, 40
1, 70348, Note_on_c, 0, 64, 47
1, 70379, Note_on_c, 0, 60, 27
1, 70456, Note_off_c, 0, 70, 57
1, 70457, Note_off_c, 0, 76, 59
1, 70490, Note_off_c, 0, 67, 38
1, 70516, Note_off_c, 0, 68, 38
1, 70517, Note_off_c, 0, 66, 55
1, 70538, Note_off_c, 0, 64, 55
1, 70541, Note_off_c, 0, 72, 57
1, 70574, Control_c, 0, 67, 38
1, 70589, Control_c, 0, 67, 49
1, 70595, Note_off_c, 0, 60, 41
1, 70598, Note_off_c, 0, 62, 35
1, 70604, Control_c, 0, 67, 59
1, 70619, Control_c, 0, 67, 69
1, 70633, Control_c, 0, 67, 79
1, 70648, Control_c, 0, 67, 88
1, 70663, Control_c, 0, 67, 97
1, 70678, Control_c, 0, 67, 108
1, 70693, Control_c, 0, 67, 117
1, 70700, Note_on_c, 0, 74, 70
1, 70707, Control_c, 0, 67, 126
1, 70720, Note_on_c, 0, 70, 51
1, 70733, Note_on_c, 0, 65, 44
1, 70793, Note_off_c, 0, 74, 63
1, 70803, Note_off_c, 0, 70, 63
1, 70833, Note_off_c, 0, 65, 54
1, 71156, Note_on_c, 0, 73, 57
1, 71164, Note_on_c, 0, 61, 66
1, 71173, Note_on_c, 0, 70, 51
1, 71180, Note_on_c, 0, 62, 40
1, 71184, Note_on_c, 0, 66, 46
1, 71191, Note_on_c, 0, 51, 45
1, 71191, Note_on_c, 0, 53, 45
1, 71191, Note_on_c, 0, 57, 47
1, 71203, Note_on_c, 0, 55, 41
1, 71234, Control_c, 0, 64, 114
1, 71249, Control_c, 0, 64, 82
1, 71263, Control_c, 0, 64, 65
1, 71278, Control_c, 0, 64, 52
1, 71293, Control_c, 0, 64, 44
1, 71308, Control_c, 0, 64, 45
1, 71323, Control_c, 0, 64, 53
1, 71337, Control_c, 0, 64, 60
1, 71352, Control_c, 0, 64, 65
1, 71367, Control_c, 0, 64, 69
1, 71382, Control_c, 0, 64, 75
1, 71391, Note_off_c, 0, 70, 58
1, 71397, Control_c, 0, 64, 82
1, 71412, Control_c, 0, 64, 87
1, 71414, Note_off_c, 0, 66, 57
1, 71423, Note_off_c, 0, 73, 60
1, 71426, Control_c, 0, 64, 93
1, 71441, Control_c, 0, 64, 101
1, 71456, Control_c, 0, 64, 116
1, 71471, Control_c, 0, 64, 127
1, 71607, Note_on_c, 0, 71, 55
1, 71620, Note_on_c, 0, 68, 45
1, 71629, Note_on_c, 0, 64, 47
1, 71652, Note_off_c, 0, 62, 28
1, 71685, Note_off_c, 0, 61, 57
1, 71694, Note_off_c, 0, 57, 36
1, 71734, Note_off_c, 0, 53, 33
1, 71734, Note_off_c, 0, 64, 60
1, 71738, Note_off_c, 0, 51, 32
1, 71738, Note_off_c, 0, 71, 57
1, 71744, Note_off_c, 0, 55, 34
1, 71769, Note_off_c, 0, 68, 57
1, 72050, Note_on_c, 0, 73, 57
1, 72055, Note_on_c, 0, 59, 52
1, 72071, Note_on_c, 0, 70, 49
1, 72078, Note_on_c, 0, 66, 47
1, 72079, Note_on_c, 0, 62, 33
1, 72095, Note_on_c, 0, 51, 40
1, 72101, Note_on_c, 0, 57, 31
1, 72103, Note_on_c, 0, 53, 30
1, 72113, Note_on_c, 0, 55, 23
1, 72117, Control_c, 0, 64, 96
1, 72131, Control_c, 0, 64, 72
1, 72146, Control_c, 0, 64, 55
1, 72161, Control_c, 0, 64, 36
1, 72176, Control_c, 0, 64, 0
1, 72235, Control_c, 0, 64, 33
1, 72250, Control_c, 0, 64, 44
1, 72265, Control_c, 0, 64, 54
1, 72279, Control_c, 0, 64, 60
1, 72294, Control_c, 0, 64, 64
1, 72309, Control_c, 0, 64, 66
1, 72324, Control_c, 0, 64, 68
1, 72327, Note_off_c, 0, 66, 39
1, 72339, Control_c, 0, 64, 71
1, 72354, Control_c, 0, 64, 74
1, 72356, Note_off_c, 0, 70, 36
1, 72368, Control_c, 0, 64, 77
1, 72373, Note_off_c, 0, 73, 59
1, 72383, Control_c, 0, 64, 81
1, 72398, Control_c, 0, 64, 85
1, 72413, Control_c, 0, 64, 90
1, 72428, Control_c, 0, 64, 97
1, 72443, Control_c, 0, 64, 104
1, 72458, Control_c, 0, 64, 113
1, 72473, Control_c, 0, 64, 127
1, 72539, Note_off_c, 0, 62, 42
1, 72564, Note_on_c, 0, 74, 62
1, 72590, Note_on_c, 0, 67, 44
1, 72592, Note_on_c, 0, 71, 45
1, 72610, Note_off_c, 0, 59, 50
1, 72655, Note_off_c, 0, 57, 41
1, 72677, Note_off_c, 0, 55, 39
1, 72696, Note_off_c, 0, 67, 47
1, 72699, Note_off_c, 0, 74, 60
1, 72706, Note_off_c, 0, 53, 40
1, 72730, Note_off_c, 0, 71, 60
1, 72750, Note_off_c, 0, 51, 43
1, 73235, Note_on_c, 0, 70, 51
1, 73242, Note_on_c, 0, 67, 48
1, 73255, Note_on_c, 0, 59, 36
1, 73257, Note_on_c, 0, 63, 43
1, 73267, Note_on_c, 0, 50, 37
1, 73278, Note_on_c, 0, 58, 38
1, 73281, Note_on_c, 0, 54, 35
1, 73283, Note_on_c, 0, 56, 28
1, 73302, Note_on_c, 0, 48, 32
1, 73302, Note_on_c, 0, 52, 40
1, 73316, Control_c, 0, 64, 101
1, 73332, Control_c, 0, 64, 79
1, 73347, Control_c, 0, 64, 62
1, 73362, Control_c, 0, 64, 49
1, 73377, Control_c, 0, 64, 38
1, 73391, Control_c, 0, 64, 32
1, 73465, Control_c, 0, 64, 36
1, 73480, Control_c, 0, 64, 42
1, 73495, Control_c, 0, 64, 51
1, 73510, Control_c, 0, 64, 58
1, 73525, Control_c, 0, 64, 63
1, 73540, Control_c, 0, 64, 65
1, 73555, Control_c, 0, 64, 68
1, 73570, Control_c, 0, 64, 70
1, 73584, Control_c, 0, 64, 72
1, 73591, Note_off_c, 0, 70, 36
1, 73599, Control_c, 0, 64, 75
1, 73614, Control_c, 0, 64, 78
1, 73629, Control_c, 0, 64, 83
1, 73644, Control_c, 0, 64, 89
1, 73644, Note_off_c, 0, 63, 35
1, 73658, Control_c, 0, 64, 95
1, 73673, Control_c, 0, 64, 102
1, 73688, Control_c, 0, 64, 111
1, 73703, Control_c, 0, 64, 127
1, 73853, Note_on_c, 0, 68, 50
1, 73861, Note_on_c, 0, 65, 53
1, 73883, Note_on_c, 0, 61, 40
1, 73885, Note_off_c, 0, 67, 32
1, 73894, Note_off_c, 0, 59, 42
1, 73949, Note_off_c, 0, 48, 40
1, 73978, Note_off_c, 0, 54, 32
1, 73978, Note_off_c, 0, 58, 39
1, 73995, Note_off_c, 0, 50, 31
1, 74011, Note_off_c, 0, 56, 37
1, 74017, Note_off_c, 0, 52, 33
1, 74020, Note_off_c, 0, 61, 58
1, 74032, Note_off_c, 0, 68, 60
1, 74273, Note_on_c, 0, 67, 56
1, 74290, Note_on_c, 0, 63, 46
1, 74295, Note_on_c, 0, 58, 36
1, 74297, Note_off_c, 0, 65, 54
1, 74297, Note_on_c, 0, 60, 42
1, 74300, Note_on_c, 0, 50, 38
1, 74303, Control_c, 0, 64, 98
1, 74304, Note_on_c, 0, 56, 29
1, 74310, Note_on_c, 0, 54, 35
1, 74318, Control_c, 0, 64, 76
1, 74319, Note_on_c, 0, 48, 40
1, 74321, Note_on_c, 0, 52, 37
1, 74333, Control_c, 0, 64, 62
1, 74348, Control_c, 0, 64, 49
1, 74363, Control_c, 0, 64, 43
1, 74378, Control_c, 0, 64, 46
1, 74392, Control_c, 0, 64, 53
1, 74407, Control_c, 0, 64, 59
1, 74422, Control_c, 0, 64, 63
1, 74437, Control_c, 0, 64, 67
1, 74452, Control_c, 0, 64, 73
1, 74467, Control_c, 0, 64, 80
1, 74481, Control_c, 0, 64, 85
1, 74485, Note_off_c, 0, 63, 59
1, 74491, Note_off_c, 0, 60, 58
1, 74496, Control_c, 0, 64, 90
1, 74511, Control_c, 0, 64, 95
1, 74525, Control_c, 0, 64, 101
1, 74540, Control_c, 0, 64, 110
1, 74555, Control_c, 0, 64, 127
1, 74566, Note_off_c, 0, 58, 41
1, 74588, Note_off_c, 0, 56, 41
1, 74634, Note_off_c, 0, 67, 37
1, 74687, Note_off_c, 0, 48, 32
1, 74710, Note_on_c, 0, 65, 56
1, 74711, Note_on_c, 0, 56, 51
1, 74724, Note_on_c, 0, 61, 50
1, 74738, Note_off_c, 0, 54, 33
1, 74767, Note_off_c, 0, 50, 41
1, 74772, Note_off_c, 0, 52, 39
1, 74834, Note_off_c, 0, 65, 58
1, 74863, Note_off_c, 0, 61, 53
1, 74886, Note_off_c, 0, 56, 53
1, 75202, Note_on_c, 0, 64, 52
1, 75214, Note_on_c, 0, 60, 43
1, 75230, Note_on_c, 0, 55, 32
1, 75234, Note_on_c, 0, 48, 27
1, 75244, Note_on_c, 0, 58, 34
1, 75245, Control_c, 0, 64, 116
1, 75247, Note_on_c, 0, 50, 39
1, 75257, Note_on_c, 0, 56, 24
1, 75260, Note_on_c, 0, 54, 27
1, 75260, Control_c, 0, 64, 87
1, 75271, Note_on_c, 0, 52, 33
1, 75275, Control_c, 0, 64, 67
1, 75290, Control_c, 0, 64, 54
1, 75305, Control_c, 0, 64, 42
1, 75320, Control_c, 0, 64, 37
1, 75349, Control_c, 0, 64, 37
1, 75364, Control_c, 0, 64, 40
1, 75379, Control_c, 0, 64, 47
1, 75394, Control_c, 0, 64, 54
1, 75409, Control_c, 0, 64, 60
1, 75423, Control_c, 0, 64, 64
1, 75438, Control_c, 0, 64, 68
1, 75453, Control_c, 0, 64, 73
1, 75468, Control_c, 0, 64, 76
1, 75483, Control_c, 0, 64, 81
1, 75486, Note_off_c, 0, 55, 42
1, 75490, Note_off_c, 0, 64, 36
1, 75504, Control_c, 0, 64, 85
1, 75517, Note_off_c, 0, 58, 41
1, 75519, Control_c, 0, 64, 90
1, 75534, Control_c, 0, 64, 96
1, 75546, Note_off_c, 0, 56, 38
1, 75549, Control_c, 0, 64, 101
1, 75552, Note_off_c, 0, 60, 31
1, 75564, Control_c, 0, 64, 109
1, 75579, Control_c, 0, 64, 125
1, 75594, Control_c, 0, 64, 127
1, 75647, Note_off_c, 0, 54, 36
1, 75740, Note_off_c, 0, 52, 36
1, 75860, Note_on_c, 0, 62, 40
1, 75871, Note_on_c, 0, 53, 30
1, 75872, Note_off_c, 0, 50, 28
1, 75875, Note_on_c, 0, 58, 31
1, 75950, Control_c, 0, 64, 93
1, 75965, Control_c, 0, 64, 74
1, 75979, Control_c, 0, 64, 61
1, 75994, Control_c, 0, 64, 50
1, 76009, Control_c, 0, 64, 49
1, 76024, Control_c, 0, 64, 51
1, 76039, Control_c, 0, 64, 57
1, 76053, Control_c, 0, 64, 61
1, 76068, Control_c, 0, 64, 64
1, 76083, Control_c, 0, 64, 67
1, 76098, Control_c, 0, 64, 72
1, 76112, Control_c, 0, 64, 77
1, 76127, Control_c, 0, 64, 80
1, 76130, Note_off_c, 0, 62, 52
1, 76142, Control_c, 0, 64, 83
1, 76157, Control_c, 0, 64, 86
1, 76172, Control_c, 0, 64, 90
1, 76179, Note_off_c, 0, 53, 30
1, 76187, Control_c, 0, 64, 96
1, 76202, Control_c, 0, 64, 102
1, 76217, Control_c, 0, 64, 108
1, 76228, Note_off_c, 0, 58, 47
1, 76232, Control_c, 0, 64, 117
1, 76253, Control_c, 0, 64, 127
1, 76312, Note_off_c, 0, 48, 40
1, 76732, Note_on_c, 0, 61, 41
1, 76743, Control_c, 0, 64, 125
1, 76758, Control_c, 0, 64, 83
1, 76773, Control_c, 0, 64, 63
1, 76786, Control_c, 0, 64, 42
1, 76801, Control_c, 0, 64, 0
1, 77312, Control_c, 0, 67, 118
1, 77328, Control_c, 0, 64, 46
1, 77328, Control_c, 0, 67, 37
1, 77335, Note_on_c, 0, 52, 105
1, 77340, Note_on_c, 0, 54, 96
1, 77341, Note_on_c, 0, 51, 97
1, 77342, Note_on_c, 0, 59, 87
1, 77343, Note_on_c, 0, 47, 88
1, 77343, Control_c, 0, 64, 127
1, 77343, Control_c, 0, 67, 0
1, 77344, Note_on_c, 0, 56, 85
1, 77344, Note_on_c, 0, 49, 89
1, 77344, Note_on_c, 0, 58, 83
1, 77376, Note_off_c, 0, 54, 66
1, 77380, Note_off_c, 0, 51, 66
1, 77380, Note_off_c, 0, 52, 65
1, 77389, Note_off_c, 0, 56, 62
1, 77394, Note_off_c, 0, 49, 63
1, 77396, Note_off_c, 0, 58, 64
1, 77400, Note_off_c, 0, 59, 65
1, 77402, Note_off_c, 0, 47, 64
1, 77417, Control_c, 0, 64, 109
1, 77431, Control_c, 0, 64, 77
1, 77446, Control_c, 0, 64, 61
1, 77461, Control_c, 0, 64, 41
1, 77476, Control_c, 0, 64, 0
1, 78017, Control_c, 0, 64, 33
1, 78031, Control_c, 0, 64, 47
1, 78046, Control_c, 0, 64, 55
1, 78061, Control_c, 0, 64, 59
1, 78075, Control_c, 0, 64, 61
1, 78090, Control_c, 0, 64, 64
1, 78105, Control_c, 0, 64, 67
1, 78121, Control_c, 0, 64, 70
1, 78136, Control_c, 0, 64, 74
1, 78150, Note_off_c, 0, 61, 59
1, 78151, Control_c, 0, 64, 78
1, 78166, Control_c, 0, 64, 83
1, 78180, Control_c, 0, 64, 89
1, 78195, Control_c, 0, 64, 97
1, 78210, Control_c, 0, 64, 106
1, 78225, Control_c, 0, 64, 127
1, 78288, Note_on_c, 0, 61, 46
1, 78831, Note_on_c, 0, 52, 107
1, 78831, Note_on_c, 0, 59, 83
1, 78832, Note_on_c, 0, 54, 86
1, 78834, Note_on_c, 0, 58, 80
1, 78834, Note_on_c, 0, 56, 82
1, 78837, Note_on_c, 0, 51, 94
1, 78837, Note_on_c, 0, 47, 92
1, 78840, Note_on_c, 0, 49, 88
1, 78840, Control_c, 0, 64, 79
1, 78855, Control_c, 0, 64, 37
1, 78870, Control_c, 0, 64, 0
1, 78879, Note_off_c, 0, 52, 66
1, 78885, Note_off_c, 0, 51, 64
1, 78886, Note_off_c, 0, 54, 61
1, 78889, Note_off_c, 0, 56, 62
1, 78894, Note_off_c, 0, 58, 62
1, 78900, Note_off_c, 0, 59, 65
1, 78902, Note_off_c, 0, 49, 64
1, 78903, Note_off_c, 0, 47, 64
1, 79293, Control_c, 0, 64, 34
1, 79308, Control_c, 0, 64, 46
1, 79322, Control_c, 0, 64, 56
1, 79337, Control_c, 0, 64, 60
1, 79352, Control_c, 0, 64, 62
1, 79367, Control_c, 0, 64, 64
1, 79382, Control_c, 0, 64, 66
1, 79396, Control_c, 0, 64, 69
1, 79411, Control_c, 0, 64, 73
1, 79426, Control_c, 0, 64, 77
1, 79439, Note_off_c, 0, 61, 58
1, 79441, Control_c, 0, 64, 81
1, 79456, Control_c, 0, 64, 86
1, 79470, Control_c, 0, 64, 91
1, 79485, Control_c, 0, 64, 97
1, 79500, Control_c, 0, 64, 104
1, 79515, Control_c, 0, 64, 122
1, 79529, Control_c, 0, 64, 127
1, 79559, Note_on_c, 0, 61, 39
1, 80231, Note_on_c, 0, 54, 74
1, 80232, Note_on_c, 0, 52, 85
1, 80233, Note_on_c, 0, 59, 67
1, 80236, Note_on_c, 0, 58, 69
1, 80237, Note_on_c, 0, 56, 69
1, 80239, Note_on_c, 0, 49, 79
1, 80241, Note_on_c, 0, 47, 72
1, 80248, Control_c, 0, 64, 73
1, 80249, Note_on_c, 0, 51, 62
1, 80263, Control_c, 0, 64, 33
1, 80264, Note_off_c, 0, 54, 62
1, 80265, Note_off_c, 0, 52, 65
1, 80267, Note_off_c, 0, 56, 65
1, 80268, Note_off_c, 0, 49, 67
1, 80268, Note_off_c, 0, 59, 66
1, 80271, Note_off_c, 0, 58, 63
1, 80271, Note_off_c, 0, 51, 61
1, 80273, Note_off_c, 0, 47, 67
1, 80277, Control_c, 0, 64, 0
1, 80723, Control_c, 0, 67, 34
1, 80745, Control_c, 0, 67, 36
1, 80760, Control_c, 0, 64, 28
1, 80760, Control_c, 0, 67, 38
1, 80775, Control_c, 0, 64, 38
1, 80775, Control_c, 0, 67, 50
1, 80789, Control_c, 0, 64, 49
1, 80789, Control_c, 0, 67, 77
1, 80804, Control_c, 0, 64, 57
1, 80804, Control_c, 0, 67, 103
1, 80819, Control_c, 0, 64, 59
1, 80819, Control_c, 0, 67, 123
1, 80834, Control_c, 0, 64, 61
1, 80834, Control_c, 0, 67, 127
1, 80849, Control_c, 0, 64, 63
1, 80864, Control_c, 0, 64, 64
1, 80879, Control_c, 0, 64, 66
1, 80893, Control_c, 0, 64, 68
1, 80908, Control_c, 0, 64, 71
1, 80923, Control_c, 0, 64, 74
1, 80938, Control_c, 0, 64, 78
1, 80953, Control_c, 0, 64, 82
1, 80967, Control_c, 0, 64, 86
1, 80982, Control_c, 0, 64, 91
1, 80997, Control_c, 0, 64, 97
1, 81012, Control_c, 0, 64, 103
1, 81027, Control_c, 0, 64, 108
1, 81041, Control_c, 0, 64, 115
1, 81056, Control_c, 0, 64, 127
1, 81291, Note_on_c, 0, 63, 49
1, 81343, Note_off_c, 0, 61, 42
1, 81457, Control_c, 0, 64, 121
1, 81472, Control_c, 0, 64, 111
1, 81495, Control_c, 0, 64, 105
1, 81510, Control_c, 0, 64, 99
1, 81524, Control_c, 0, 64, 93
1, 81539, Control_c, 0, 64, 88
1, 81554, Control_c, 0, 64, 83
1, 81569, Control_c, 0, 64, 79
1, 81584, Control_c, 0, 64, 75
1, 81598, Control_c, 0, 64, 70
1, 81613, Control_c, 0, 64, 65
1, 81628, Control_c, 0, 64, 62
1, 81643, Control_c, 0, 64, 60
1, 81658, Control_c, 0, 64, 60
1, 81717, Control_c, 0, 64, 59
1, 81910, Control_c, 0, 64, 59
1, 81939, Control_c, 0, 64, 58
1, 81964, Note_on_c, 0, 65, 43
1, 81969, Control_c, 0, 64, 58
1, 81984, Control_c, 0, 64, 57
1, 81998, Control_c, 0, 64, 57
1, 82013, Control_c, 0, 64, 56
1, 82018, Note_off_c, 0, 63, 46
1, 82028, Control_c, 0, 64, 56
1, 82042, Control_c, 0, 64, 55
1, 82057, Control_c, 0, 64, 54
1, 82072, Control_c, 0, 64, 53
1, 82102, Control_c, 0, 64, 53
1, 82133, Control_c, 0, 64, 52
1, 82162, Control_c, 0, 64, 52
1, 82192, Control_c, 0, 64, 51
1, 82478, Note_on_c, 0, 64, 53
1, 82560, Note_off_c, 0, 65, 38
1, 82930, Note_on_c, 0, 63, 65
1, 83007, Note_off_c, 0, 64, 55
1, 83303, Control_c, 0, 64, 51
1, 83351, Note_on_c, 0, 64, 67
1, 83399, Note_off_c, 0, 63, 60
1, 83687, Control_c, 0, 64, 50
1, 83812, Note_on_c, 0, 59, 54
1, 83830, Control_c, 0, 64, 50
1, 83860, Note_off_c, 0, 64, 55
1, 83978, Control_c, 0, 64, 49
1, 84185, Control_c, 0, 64, 49
1, 84442, Note_on_c, 0, 61, 48
1, 84489, Note_off_c, 0, 59, 61
1, 84668, Control_c, 0, 64, 48
1, 84933, Control_c, 0, 64, 49
1, 84978, Control_c, 0, 64, 49
1, 84993, Control_c, 0, 64, 50
1, 85007, Control_c, 0, 64, 50
1, 85023, Control_c, 0, 64, 51
1, 85038, Control_c, 0, 64, 51
1, 85053, Control_c, 0, 64, 52
1, 85067, Control_c, 0, 64, 52
1, 85082, Control_c, 0, 64, 53
1, 85097, Control_c, 0, 64, 53
1, 85112, Control_c, 0, 64, 54
1, 85127, Control_c, 0, 64, 55
1, 85142, Control_c, 0, 64, 56
1, 85157, Control_c, 0, 64, 57
1, 85171, Control_c, 0, 64, 58
1, 85186, Control_c, 0, 64, 59
1, 85201, Control_c, 0, 64, 60
1, 85216, Control_c, 0, 64, 62
1, 85238, Control_c, 0, 64, 63
1, 85253, Control_c, 0, 64, 64
1, 85267, Control_c, 0, 64, 66
1, 85282, Control_c, 0, 64, 68
1, 85297, Note_on_c, 0, 78, 42
1, 85297, Control_c, 0, 64, 71
1, 85299, Note_on_c, 0, 71, 37
1, 85303, Note_on_c, 0, 73, 38
1, 85306, Note_on_c, 0, 80, 36
1, 85307, Note_on_c, 0, 69, 37
1, 85312, Note_on_c, 0, 62, 17
1, 85313, Control_c, 0, 64, 74
1, 85316, Note_on_c, 0, 66, 36
1, 85324, Note_on_c, 0, 76, 37
1, 85328, Note_on_c, 0, 68, 28
1, 85328, Control_c, 0, 64, 77
1, 85343, Control_c, 0, 64, 81
1, 85358, Control_c, 0, 64, 84
1, 85372, Control_c, 0, 64, 87
1, 85387, Control_c, 0, 64, 92
1, 85402, Control_c, 0, 64, 97
1, 85417, Control_c, 0, 64, 102
1, 85432, Control_c, 0, 64, 107
1, 85446, Control_c, 0, 64, 114
1, 85461, Control_c, 0, 64, 127
1, 85804, Note_off_c, 0, 61, 31
1, 85932, Note_off_c, 0, 62, 36
1, 85985, Note_off_c, 0, 69, 33
1, 86049, Note_on_c, 0, 61, 68
1, 86063, Note_off_c, 0, 66, 19
1, 86088, Note_off_c, 0, 68, 36
1, 86100, Note_off_c, 0, 71, 41
1, 86104, Note_off_c, 0, 73, 42
1, 86118, Note_off_c, 0, 80, 41
1, 86121, Note_off_c, 0, 76, 41
1, 86131, Note_off_c, 0, 78, 40
1, 86404, Note_off_c, 0, 61, 34
1, 86695, Note_on_c, 0, 71, 36
1, 86697, Note_on_c, 0, 73, 33
1, 86703, Note_on_c, 0, 78, 37
1, 86705, Note_on_c, 0, 66, 38
1, 86707, Note_on_c, 0, 80, 40
1, 86707, Note_on_c, 0, 69, 30
1, 86716, Note_on_c, 0, 76, 35
1, 86716, Note_on_c, 0, 68, 23
1, 86732, Note_on_c, 0, 62, 30
1, 86951, Note_off_c, 0, 71, 41
1, 86978, Note_off_c, 0, 80, 32
1, 86980, Note_off_c, 0, 69, 41
1, 87002, Note_off_c, 0, 73, 0
1, 87023, Note_off_c, 0, 68, 35
1, 87034, Note_off_c, 0, 62, 37
1, 87047, Note_off_c, 0, 76, 31
1, 87057, Poly_aftertouch_c, 0, 73, 0
1, 87061, Note_off_c, 0, 66, 35
1, 87121, Note_off_c, 0, 78, 17
1, 87764, Note_on_c, 0, 61, 35
1, 87812, Control_c, 0, 64, 108
1, 87827, Control_c, 0, 64, 89
1, 87841, Control_c, 0, 64, 73
1, 87856, Control_c, 0, 64, 63
1, 87871, Control_c, 0, 64, 54
1, 87885, Control_c, 0, 64, 49
1, 87900, Control_c, 0, 64, 48
1, 87930, Control_c, 0, 64, 48
1, 87945, Control_c, 0, 64, 49
1, 87959, Control_c, 0, 64, 52
1, 87974, Control_c, 0, 64, 56
1, 87989, Control_c, 0, 64, 60
1, 88004, Control_c, 0, 64, 62
1, 88019, Control_c, 0, 64, 64
1, 88033, Control_c, 0, 64, 68
1, 88048, Control_c, 0, 64, 73
1, 88063, Control_c, 0, 64, 79
1, 88078, Control_c, 0, 64, 83
1, 88093, Control_c, 0, 64, 87
1, 88108, Control_c, 0, 64, 91
1, 88123, Control_c, 0, 64, 96
1, 88137, Control_c, 0, 64, 102
1, 88152, Control_c, 0, 64, 110
1, 88167, Control_c, 0, 64, 127
1, 88337, Note_off_c, 0, 61, 50
1, 88666, Note_on_c, 0, 80, 48
1, 88961, Note_on_c, 0, 78, 46
1, 89019, Note_off_c, 0, 80, 61
1, 89029, Note_off_c, 0, 78, 54
1, 89101, Note_on_c, 0, 76, 45
1, 89196, Note_off_c, 0, 76, 54
1, 89217, Note_on_c, 0, 73, 48
1, 89269, Note_off_c, 0, 73, 59
1, 89314, Note_on_c, 0, 71, 45
1, 89360, Note_off_c, 0, 71, 62
1, 89374, Note_on_c, 0, 69, 49
1, 89437, Note_on_c, 0, 68, 48
1, 89485, Note_on_c, 0, 66, 47
1, 89519, Note_on_c, 0, 64, 47
1, 89560, Note_on_c, 0, 62, 53
1, 89637, Note_on_c, 0, 54, 28
1, 89677, Note_off_c, 0, 54, 50
1, 89685, Note_off_c, 0, 62, 60
1, 89687, Note_off_c, 0, 69, 39
1, 89704, Note_off_c, 0, 66, 59
1, 89708, Note_on_c, 0, 47, 42
1, 89735, Note_off_c, 0, 64, 54
1, 89780, Note_off_c, 0, 47, 50
1, 89783, Note_off_c, 0, 68, 59
1, 89852, Note_on_c, 0, 40, 39
1, 90039, Note_off_c, 0, 40, 34
1, 91063, Note_on_c, 0, 78, 44
1, 91063, Note_on_c, 0, 80, 40
1, 91066, Note_on_c, 0, 64, 38
1, 91074, Note_on_c, 0, 71, 39
1, 91083, Note_on_c, 0, 69, 28
1, 91086, Note_on_c, 0, 68, 28
1, 91089, Note_on_c, 0, 73, 31
1, 91094, Note_on_c, 0, 76, 27
1, 91095, Note_on_c, 0, 66, 32
1, 91106, Note_off_c, 0, 71, 60
1, 91106, Note_on_c, 0, 62, 21
1, 91115, Note_off_c, 0, 80, 57
1, 91130, Note_off_c, 0, 69, 50
1, 91131, Note_off_c, 0, 68, 61
1, 91131, Note_off_c, 0, 73, 49
1, 91139, Note_off_c, 0, 76, 48
1, 91148, Note_off_c, 0, 62, 49
1, 91163, Note_off_c, 0, 78, 56
1, 91165, Note_off_c, 0, 66, 56
1, 91169, Note_off_c, 0, 64, 54
1, 92659, Note_on_c, 0, 71, 34
1, 92659, Note_on_c, 0, 73, 24
1, 92664, Note_on_c, 0, 78, 36
1, 92669, Note_on_c, 0, 64, 29
1, 92676, Note_on_c, 0, 69, 23
1, 92679, Note_on_c, 0, 76, 28
1, 92682, Note_on_c, 0, 68, 27
1, 92687, Note_on_c, 0, 66, 28
1, 92689, Note_on_c, 0, 80, 32
1, 92702, Note_on_c, 0, 62, 26
1, 92791, Note_off_c, 0, 80, 47
1, 92811, Note_off_c, 0, 71, 33
1, 92865, Note_off_c, 0, 76, 43
1, 92865, Note_off_c, 0, 68, 40
1, 92868, Note_off_c, 0, 78, 33
1, 92874, Note_off_c, 0, 73, 40
1, 92889, Note_off_c, 0, 69, 44
1, 92932, Note_off_c, 0, 66, 38
1, 93026, Note_off_c, 0, 64, 31
1, 93139, Note_off_c, 0, 62, 41
1, 93797, Note_on_c, 0, 59, 62
1, 93949, Control_c, 0, 64, 114
1, 93964, Control_c, 0, 64, 106
1, 93978, Control_c, 0, 64, 101
1, 93993, Control_c, 0, 64, 97
1, 94007, Control_c, 0, 64, 93
1, 94022, Control_c, 0, 64, 90
1, 94037, Control_c, 0, 64, 87
1, 94052, Control_c, 0, 64, 84
1, 94066, Control_c, 0, 64, 80
1, 94081, Control_c, 0, 64, 77
1, 94097, Control_c, 0, 64, 74
1, 94112, Control_c, 0, 64, 70
1, 94126, Control_c, 0, 64, 67
1, 94141, Control_c, 0, 64, 65
1, 94156, Control_c, 0, 64, 63
1, 94201, Control_c, 0, 64, 63
1, 94282, Control_c, 0, 64, 62
1, 94499, Note_on_c, 0, 58, 67
1, 94602, Note_off_c, 0, 59, 58
1, 94608, Control_c, 0, 64, 62
1, 94623, Control_c, 0, 64, 61
1, 94637, Control_c, 0, 64, 61
1, 94652, Control_c, 0, 64, 60
1, 94667, Control_c, 0, 64, 59
1, 94682, Control_c, 0, 64, 59
1, 94697, Control_c, 0, 64, 58
1, 94712, Control_c, 0, 64, 58
1, 94726, Control_c, 0, 64, 57
1, 94741, Control_c, 0, 64, 57
1, 94757, Control_c, 0, 64, 56
1, 94771, Control_c, 0, 64, 56
1, 94786, Control_c, 0, 64, 55
1, 94801, Control_c, 0, 64, 55
1, 94831, Control_c, 0, 64, 54
1, 94860, Control_c, 0, 64, 54
1, 94875, Control_c, 0, 64, 53
1, 94906, Control_c, 0, 64, 53
1, 94921, Control_c, 0, 67, 125
1, 94936, Control_c, 0, 64, 52
1, 94950, Control_c, 0, 64, 52
1, 94958, Note_on_c, 0, 59, 66
1, 94973, Control_c, 0, 64, 51
1, 95002, Control_c, 0, 64, 51
1, 95017, Control_c, 0, 64, 50
1, 95032, Control_c, 0, 64, 50
1, 95037, Note_off_c, 0, 58, 59
1, 95047, Control_c, 0, 64, 49
1, 95062, Control_c, 0, 64, 48
1, 95076, Control_c, 0, 64, 48
1, 95091, Control_c, 0, 64, 47
1, 95106, Control_c, 0, 64, 45
1, 95106, Control_c, 0, 67, 127
1, 95121, Control_c, 0, 64, 43
1, 95136, Control_c, 0, 64, 41
1, 95150, Control_c, 0, 64, 38
1, 95165, Control_c, 0, 64, 36
1, 95180, Control_c, 0, 64, 33
1, 95194, Control_c, 0, 64, 31
1, 95209, Control_c, 0, 64, 28
1, 95224, Control_c, 0, 64, 0
1, 95374, Note_on_c, 0, 54, 58
1, 95456, Note_off_c, 0, 59, 54
1, 95929, Note_on_c, 0, 56, 48
1, 95949, Note_on_c, 0, 46, 34
1, 95958, Note_on_c, 0, 34, 35
1, 95994, Note_off_c, 0, 54, 53
1, 96136, Control_c, 0, 64, 31
1, 96151, Control_c, 0, 64, 45
1, 96165, Control_c, 0, 64, 56
1, 96180, Control_c, 0, 64, 62
1, 96195, Control_c, 0, 64, 65
1, 96210, Control_c, 0, 64, 68
1, 96225, Control_c, 0, 64, 72
1, 96240, Control_c, 0, 64, 78
1, 96254, Control_c, 0, 64, 85
1, 96269, Control_c, 0, 64, 94
1, 96284, Control_c, 0, 64, 107
1, 96298, Note_off_c, 0, 34, 38
1, 96299, Control_c, 0, 64, 127
1, 96343, Note_off_c, 0, 46, 55
1, 96564, Note_on_c, 0, 48, 44
1, 96653, Note_off_c, 0, 56, 38
1, 97035, Note_on_c, 0, 51, 43
1, 97086, Note_off_c, 0, 48, 38
1, 97516, Note_on_c, 0, 58, 63
1, 97528, Note_on_c, 0, 49, 40
1, 97602, Note_off_c, 0, 51, 31
1, 97732, Note_off_c, 0, 58, 60
1, 97992, Note_on_c, 0, 60, 69
1, 98023, Note_on_c, 0, 48, 57
1, 98117, Control_c, 0, 64, 105
1, 98130, Note_off_c, 0, 49, 34
1, 98132, Control_c, 0, 64, 89
1, 98147, Control_c, 0, 64, 73
1, 98161, Control_c, 0, 64, 60
1, 98176, Control_c, 0, 64, 42
1, 98191, Control_c, 0, 64, 0
1, 98354, Control_c, 0, 64, 29
1, 98368, Control_c, 0, 64, 47
1, 98383, Control_c, 0, 64, 62
1, 98383, Control_c, 0, 67, 124
1, 98398, Control_c, 0, 64, 67
1, 98398, Control_c, 0, 67, 122
1, 98403, Note_on_c, 0, 63, 80
1, 98413, Control_c, 0, 64, 70
1, 98413, Control_c, 0, 67, 119
1, 98417, Note_on_c, 0, 46, 62
1, 98428, Control_c, 0, 64, 72
1, 98428, Control_c, 0, 67, 116
1, 98442, Control_c, 0, 64, 76
1, 98442, Control_c, 0, 67, 90
1, 98457, Control_c, 0, 64, 87
1, 98457, Control_c, 0, 67, 40
1, 98472, Control_c, 0, 64, 108
1, 98472, Control_c, 0, 67, 0
1, 98487, Control_c, 0, 64, 127
1, 98488, Note_off_c, 0, 48, 57
1, 98491, Note_off_c, 0, 60, 63
1, 98562, Note_off_c, 0, 63, 63
1, 98739, Note_off_c, 0, 46, 36
1, 98829, Note_on_c, 0, 70, 89
1, 98840, Note_on_c, 0, 60, 73
1, 98848, Note_on_c, 0, 44, 72
1, 98910, Control_c, 0, 64, 86
1, 98924, Control_c, 0, 64, 67
1, 98939, Control_c, 0, 64, 54
1, 98954, Control_c, 0, 64, 51
1, 98969, Control_c, 0, 64, 59
1, 98984, Control_c, 0, 64, 67
1, 98998, Control_c, 0, 64, 77
1, 99013, Control_c, 0, 64, 90
1, 99028, Control_c, 0, 64, 104
1, 99042, Control_c, 0, 64, 127
1, 99080, Note_off_c, 0, 70, 57
1, 99268, Note_on_c, 0, 72, 88
1, 99275, Note_on_c, 0, 65, 82
1, 99279, Note_on_c, 0, 58, 85
1, 99312, Note_off_c, 0, 60, 63
1, 99357, Note_off_c, 0, 65, 61
1, 99380, Note_off_c, 0, 72, 64
1, 99484, Note_off_c, 0, 58, 57
1, 99696, Note_on_c, 0, 75, 96
1, 99700, Note_on_c, 0, 70, 93
1, 99717, Note_on_c, 0, 53, 84
1, 99795, Note_off_c, 0, 70, 60
1, 99799, Note_off_c, 0, 53, 63
1, 99816, Note_off_c, 0, 75, 64
1, 99832, Note_off_c, 0, 44, 60
1, 100161, Note_on_c, 0, 82, 97
1, 100166, Note_on_c, 0, 73, 84
1, 100166, Note_on_c, 0, 78, 85
1, 100168, Note_on_c, 0, 68, 93
1, 100174, Note_on_c, 0, 43, 96
1, 100177, Control_c, 0, 64, 66
1, 100191, Control_c, 0, 64, 0
1, 100228, Control_c, 0, 64, 31
1, 100243, Control_c, 0, 64, 59
1, 100258, Control_c, 0, 64, 78
1, 100273, Control_c, 0, 64, 127
1, 100294, Note_off_c, 0, 68, 63
1, 100321, Note_off_c, 0, 43, 61
1, 100332, Note_off_c, 0, 82, 55
1, 100368, Note_off_c, 0, 73, 54
1, 100395, Note_off_c, 0, 78, 58
1, 100711, Note_on_c, 0, 84, 100
1, 100716, Note_on_c, 0, 74, 105
1, 100719, Note_on_c, 0, 79, 87
1, 100721, Note_on_c, 0, 64, 97
1, 100724, Note_on_c, 0, 53, 86
1, 100729, Note_on_c, 0, 59, 89
1, 100755, Note_off_c, 0, 74, 68
1, 100768, Note_off_c, 0, 79, 66
1, 100794, Note_off_c, 0, 84, 62
1, 101212, Note_off_c, 0, 64, 51
1, 101295, Note_off_c, 0, 59, 56
1, 101346, Note_off_c, 0, 53, 57
1, 101370, Note_on_c, 0, 87, 100
1, 101454, Note_off_c, 0, 87, 63
1, 101999, Note_on_c, 0, 36, 104
1, 102008, Control_c, 0, 64, 106
1, 102023, Control_c, 0, 64, 51
1, 102037, Control_c, 0, 64, 0
1, 102061, Note_on_c, 0, 38, 15
1, 102098, Control_c, 0, 64, 27
1, 102113, Control_c, 0, 64, 68
1, 102116, Note_off_c, 0, 38, 45
1, 102128, Control_c, 0, 64, 107
1, 102142, Control_c, 0, 64, 127
1, 102197, Note_off_c, 0, 36, 61
1, 102533, Note_on_c, 0, 52, 99
1, 102713, Note_off_c, 0, 52, 60
1, 102720, Note_on_c, 0, 58, 81
1, 102783, Note_off_c, 0, 58, 61
1, 102788, Note_on_c, 0, 63, 84
1, 102808, Note_off_c, 0, 63, 71
1, 102844, Note_on_c, 0, 68, 81
1, 102897, Note_on_c, 0, 75, 81
1, 102944, Note_on_c, 0, 76, 75
1, 102991, Note_on_c, 0, 80, 77
1, 103026, Note_on_c, 0, 82, 87
1, 103051, Note_off_c, 0, 68, 59
1, 103053, Note_off_c, 0, 76, 64
1, 103064, Note_off_c, 0, 75, 62
1, 103081, Note_off_c, 0, 80, 64
1, 103099, Note_on_c, 0, 97, 108
1, 103112, Note_off_c, 0, 82, 63
1, 103150, Note_on_c, 0, 98, 19
1, 103151, Note_off_c, 0, 97, 63
1, 103176, Note_off_c, 0, 98, 35
1, 103555, Note_on_c, 0, 96, 101
1, 103608, Note_off_c, 0, 96, 69
1, 103967, Note_on_c, 0, 97, 97
1, 104377, Note_on_c, 0, 92, 104
1, 104419, Note_off_c, 0, 97, 63
1, 104780, Control_c, 0, 64, 62
1, 104790, Note_on_c, 0, 29, 86
1, 104792, Note_on_c, 0, 41, 95
1, 104795, Control_c, 0, 64, 0
1, 104801, Note_on_c, 0, 94, 95
1, 104847, Note_off_c, 0, 92, 65
1, 104869, Control_c, 0, 64, 62
1, 104884, Control_c, 0, 64, 89
1, 104899, Control_c, 0, 64, 127
1, 104903, Note_off_c, 0, 29, 62
1, 104929, Note_off_c, 0, 41, 65
1, 104969, Note_off_c, 0, 94, 61
1, 105278, Note_on_c, 0, 51, 95
1, 105362, Poly_aftertouch_c, 0, 54, 127
1, 105397, Poly_aftertouch_c, 0, 54, 0
1, 105777, Note_on_c, 0, 75, 102
1, 105784, Note_on_c, 0, 66, 106
1, 105789, Note_on_c, 0, 62, 90
1, 105789, Note_on_c, 0, 71, 85
1, 105796, Note_on_c, 0, 57, 75
1, 106012, Poly_aftertouch_c, 0, 73, 127
1, 106035, Note_off_c, 0, 71, 58
1, 106074, Poly_aftertouch_c, 0, 73, 0
1, 106109, Note_off_c, 0, 75, 55
1, 106326, Note_on_c, 0, 77, 97
1, 106333, Note_on_c, 0, 72, 88
1, 106447, Note_off_c, 0, 77, 59
1, 106448, Note_off_c, 0, 62, 56
1, 106467, Note_off_c, 0, 72, 60
1, 106493, Note_off_c, 0, 57, 56
1, 106501, Note_off_c, 0, 51, 57
1, 106781, Control_c, 0, 64, 105
1, 106795, Note_on_c, 0, 80, 98
1, 106796, Control_c, 0, 64, 59
1, 106800, Note_on_c, 0, 78, 81
1, 106803, Note_on_c, 0, 73, 79
1, 106804, Note_on_c, 0, 61, 95
1, 106805, Note_on_c, 0, 74, 82
1, 106809, Note_on_c, 0, 50, 77
1, 106811, Control_c, 0, 64, 0
1, 106813, Note_on_c, 0, 56, 82
1, 106840, Control_c, 0, 64, 30
1, 106846, Note_off_c, 0, 61, 66
1, 106855, Control_c, 0, 64, 63
1, 106871, Control_c, 0, 64, 81
1, 106875, Note_off_c, 0, 50, 63
1, 106878, Note_off_c, 0, 56, 64
1, 106886, Control_c, 0, 64, 127
1, 107245, Note_off_c, 0, 74, 39
1, 107281, Note_on_c, 0, 34, 100
1, 107283, Note_off_c, 0, 78, 57
1, 107285, Note_off_c, 0, 73, 61
1, 107333, Note_off_c, 0, 66, 62
1, 107464, Note_off_c, 0, 80, 47
1, 107800, Note_on_c, 0, 78, 96
1, 107849, Note_on_c, 0, 77, 26
1, 107867, Note_off_c, 0, 78, 62
1, 107886, Note_off_c, 0, 77, 48
1, 108284, Note_on_c, 0, 77, 101
1, 108291, Note_on_c, 0, 72, 91
1, 108458, Note_off_c, 0, 72, 36
1, 108646, Note_off_c, 0, 77, 57
1, 108862, Note_on_c, 0, 78, 90
1, 108867, Note_on_c, 0, 71, 90
1, 108870, Note_on_c, 0, 76, 84
1, 108895, Control_c, 0, 64, 76
1, 108910, Control_c, 0, 64, 48
1, 108925, Control_c, 0, 64, 42
1, 108940, Control_c, 0, 64, 56
1, 108954, Control_c, 0, 64, 70
1, 108969, Control_c, 0, 64, 127
1, 109070, Note_off_c, 0, 76, 64
1, 109472, Note_on_c, 0, 73, 90
1, 109497, Note_off_c, 0, 71, 64
1, 109506, Note_off_c, 0, 78, 59
1, 109555, Note_off_c, 0, 73, 59
1, 109597, Note_off_c, 0, 34, 58
1, 110096, Control_c, 0, 64, 95
1, 110103, Note_on_c, 0, 75, 95
1, 110107, Note_on_c, 0, 63, 98
1, 110111, Control_c, 0, 64, 59
1, 110116, Note_on_c, 0, 39, 96
1, 110117, Note_on_c, 0, 27, 85
1, 110125, Control_c, 0, 64, 0
1, 110155, Control_c, 0, 64, 40
1, 110170, Control_c, 0, 64, 67
1, 110185, Control_c, 0, 64, 127
1, 110210, Note_off_c, 0, 27, 63
1, 110260, Note_off_c, 0, 39, 62
1, 110277, Note_off_c, 0, 75, 61
1, 110302, Note_off_c, 0, 63, 60
1, 110742, Note_on_c, 0, 72, 82
1, 110753, Note_on_c, 0, 61, 74
1, 110754, Note_on_c, 0, 58, 80
1, 110764, Note_on_c, 0, 69, 67
1, 110765, Note_on_c, 0, 46, 65
1, 110766, Note_on_c, 0, 65, 65
1, 110771, Note_on_c, 0, 55, 63
1, 110772, Note_on_c, 0, 51, 63
1, 110885, Note_off_c, 0, 72, 57
1, 110897, Note_off_c, 0, 61, 63
1, 110923, Note_off_c, 0, 65, 59
1, 110933, Note_off_c, 0, 69, 60
1, 111223, Note_on_c, 0, 75, 98
1, 111225, Note_on_c, 0, 63, 96
1, 111277, Note_on_c, 0, 73, 13
1, 111320, Note_off_c, 0, 73, 40
1, 111363, Note_off_c, 0, 55, 55
1, 111363, Note_off_c, 0, 58, 54
1, 111371, Note_off_c, 0, 75, 59
1, 111376, Note_off_c, 0, 51, 56
1, 111472, Note_off_c, 0, 63, 57
1, 111480, Note_off_c, 0, 46, 25
1, 111679, Note_on_c, 0, 72, 78
1, 111690, Note_on_c, 0, 61, 64
1, 111701, Note_on_c, 0, 58, 55
1, 111705, Note_on_c, 0, 65, 54
1, 111705, Note_on_c, 0, 69, 59
1, 111706, Note_on_c, 0, 46, 34
1, 111707, Note_on_c, 0, 51, 50
1, 111715, Note_on_c, 0, 55, 51
1, 111752, Note_off_c, 0, 61, 59
1, 111761, Note_off_c, 0, 72, 55
1, 111779, Note_off_c, 0, 65, 53
1, 111821, Note_off_c, 0, 69, 60
1, 111921, Note_off_c, 0, 58, 50
1, 111929, Note_off_c, 0, 55, 36
1, 111935, Control_c, 0, 67, 40
1, 111946, Note_off_c, 0, 46, 36
1, 111950, Control_c, 0, 67, 63
1, 111958, Note_off_c, 0, 51, 50
1, 111964, Control_c, 0, 67, 88
1, 111979, Control_c, 0, 67, 110
1, 111994, Control_c, 0, 67, 127
1, 112450, Note_on_c, 0, 84, 76
1, 112480, Note_off_c, 0, 84, 63
1, 112955, Note_on_c, 0, 73, 77
1, 112974, Note_on_c, 0, 55, 45
1, 112977, Note_off_c, 0, 73, 69
1, 113025, Note_off_c, 0, 55, 56
1, 113224, Control_c, 0, 67, 125
1, 113238, Control_c, 0, 67, 121
1, 113253, Control_c, 0, 67, 118
1, 113269, Control_c, 0, 67, 114
1, 113284, Control_c, 0, 67, 109
1, 113299, Control_c, 0, 67, 104
1, 113314, Control_c, 0, 67, 100
1, 113329, Control_c, 0, 67, 95
1, 113343, Control_c, 0, 67, 88
1, 113358, Control_c, 0, 67, 81
1, 113373, Control_c, 0, 67, 74
1, 113388, Control_c, 0, 67, 67
1, 113403, Control_c, 0, 67, 56
1, 113409, Note_on_c, 0, 66, 49
1, 113417, Control_c, 0, 67, 43
1, 113432, Control_c, 0, 67, 0
1, 113457, Note_off_c, 0, 66, 64
1, 113952, Note_on_c, 0, 73, 99
1, 113958, Note_on_c, 0, 61, 90
1, 114129, Note_off_c, 0, 61, 63
1, 114186, Note_off_c, 0, 73, 59
1, 114586, Note_on_c, 0, 81, 94
1, 114592, Note_on_c, 0, 69, 79
1, 114620, Note_on_c, 0, 78, 48
1, 114647, Note_off_c, 0, 78, 53
1, 114770, Note_off_c, 0, 81, 57
1, 114790, Note_off_c, 0, 69, 51
1, 115281, Note_on_c, 0, 76, 81
1, 115307, Note_on_c, 0, 64, 58
1, 115409, Note_off_c, 0, 64, 62
1, 115826, Note_on_c, 0, 63, 51
1, 115828, Note_on_c, 0, 75, 68
1, 115857, Note_on_c, 0, 39, 49
1, 115857, Note_on_c, 0, 27, 55
1, 115885, Note_off_c, 0, 76, 62
1, 115885, Control_c, 0, 64, 82
1, 115900, Control_c, 0, 64, 58
1, 115915, Control_c, 0, 64, 37
1, 115937, Control_c, 0, 64, 29
1, 115952, Control_c, 0, 64, 39
1, 115967, Control_c, 0, 64, 58
1, 115982, Control_c, 0, 64, 71
1, 115997, Control_c, 0, 64, 91
1, 116011, Control_c, 0, 64, 127
1, 116035, Note_off_c, 0, 27, 61
1, 116068, Note_off_c, 0, 39, 62
1, 116122, Note_off_c, 0, 75, 61
1, 116256, Note_off_c, 0, 63, 36
1, 116556, Note_on_c, 0, 72, 51
1, 116567, Note_on_c, 0, 58, 34
1, 116568, Note_on_c, 0, 51, 37
1, 116575, Note_on_c, 0, 61, 32
1, 116579, Note_on_c, 0, 55, 36
1, 116588, Note_on_c, 0, 64, 36
1, 116593, Note_on_c, 0, 46, 33
1, 116595, Note_on_c, 0, 69, 31
1, 116715, Note_off_c, 0, 72, 55
1, 116760, Note_off_c, 0, 61, 41
1, 116781, Note_off_c, 0, 64, 45
1, 116814, Note_off_c, 0, 69, 39
1, 117012, Control_c, 0, 67, 34
1, 117027, Control_c, 0, 67, 43
1, 117041, Control_c, 0, 67, 54
1, 117056, Control_c, 0, 67, 68
1, 117071, Control_c, 0, 67, 84
1, 117085, Note_off_c, 0, 55, 32
1, 117085, Control_c, 0, 67, 101
1, 117093, Note_on_c, 0, 75, 67
1, 117100, Control_c, 0, 67, 114
1, 117109, Note_off_c, 0, 58, 33
1, 117115, Control_c, 0, 67, 126
1, 117132, Note_on_c, 0, 63, 44
1, 117143, Note_off_c, 0, 51, 42
1, 117160, Note_off_c, 0, 46, 26
1, 117206, Note_off_c, 0, 75, 60
1, 117216, Note_off_c, 0, 63, 40
1, 117641, Note_on_c, 0, 72, 46
1, 117646, Note_on_c, 0, 51, 34
1, 117648, Note_on_c, 0, 58, 35
1, 117650, Note_on_c, 0, 55, 34
1, 117650, Note_on_c, 0, 61, 40
1, 117654, Note_on_c, 0, 46, 24
1, 117670, Note_on_c, 0, 64, 34
1, 117697, Note_on_c, 0, 69, 23
1, 117721, Note_off_c, 0, 58, 62
1, 117774, Note_off_c, 0, 55, 51
1, 117853, Note_off_c, 0, 51, 43
1, 117869, Note_off_c, 0, 46, 38
1, 118303, Note_on_c, 0, 41, 63
1, 118313, Note_on_c, 0, 29, 59
1, 118392, Control_c, 0, 64, 88
1, 118406, Control_c, 0, 64, 70
1, 118421, Control_c, 0, 64, 60
1, 118436, Control_c, 0, 64, 55
1, 118451, Control_c, 0, 64, 57
1, 118465, Control_c, 0, 64, 64
1, 118480, Control_c, 0, 64, 71
1, 118495, Control_c, 0, 64, 82
1, 118510, Control_c, 0, 64, 99
1, 118525, Control_c, 0, 64, 127
1, 118533, Note_off_c, 0, 29, 59
1, 118566, Note_off_c, 0, 41, 64
1, 118705, Note_off_c, 0, 72, 36
1, 118727, Note_off_c, 0, 61, 40
1, 118755, Note_off_c, 0, 64, 37
1, 118797, Note_off_c, 0, 69, 39
1, 118948, Note_on_c, 0, 44, 59
1, 118959, Note_on_c, 0, 32, 60
1, 119057, Note_off_c, 0, 44, 55
1, 119067, Note_off_c, 0, 32, 55
1, 119874, Control_c, 0, 64, 112
1, 119889, Control_c, 0, 64, 67
1, 119903, Control_c, 0, 64, 36
1, 119918, Control_c, 0, 64, 0
1, 119936, Note_on_c, 0, 75, 78
1, 119949, Note_on_c, 0, 30, 52
1, 119951, Note_on_c, 0, 42, 53
1, 119952, Note_on_c, 0, 63, 60
1, 119963, Control_c, 0, 64, 52
1, 119977, Control_c, 0, 64, 68
1, 119985, Note_off_c, 0, 75, 63
1, 119988, Note_off_c, 0, 63, 64
1, 119992, Control_c, 0, 64, 87
1, 120007, Control_c, 0, 64, 127
1, 120183, Note_off_c, 0, 30, 33
1, 120240, Note_off_c, 0, 42, 59
1, 120719, Note_on_c, 0, 42, 50
1, 120846, Control_c, 0, 67, 112
1, 120860, Control_c, 0, 67, 96
1, 120875, Control_c, 0, 67, 74
1, 120890, Control_c, 0, 67, 56
1, 120905, Control_c, 0, 67, 39
1, 120920, Control_c, 0, 67, 0
1, 121003, Note_off_c, 0, 42, 56
1, 121041, Note_on_c, 0, 49, 46
1, 121198, Note_off_c, 0, 49, 63
1, 121231, Note_on_c, 0, 54, 51
1, 121366, Note_off_c, 0, 54, 61
1, 121369, Note_on_c, 0, 58, 62
1, 121407, Note_off_c, 0, 58, 64
1, 121499, Note_on_c, 0, 52, 52
1, 121556, Note_off_c, 0, 52, 60
1, 121563, Note_on_c, 0, 57, 59
1, 121630, Note_on_c, 0, 60, 56
1, 121650, Note_off_c, 0, 57, 63
1, 121671, Note_on_c, 0, 63, 64
1, 121686, Note_off_c, 0, 60, 62
1, 121695, Note_off_c, 0, 63, 67
1, 121717, Note_on_c, 0, 66, 63
1, 121786, Note_on_c, 0, 70, 82
1, 121792, Note_off_c, 0, 66, 65
1, 121821, Note_off_c, 0, 70, 62
1, 121840, Note_on_c, 0, 64, 73
1, 121883, Note_on_c, 0, 69, 77
1, 121901, Note_off_c, 0, 64, 64
1, 121913, Note_on_c, 0, 72, 71
1, 121942, Note_off_c, 0, 69, 66
1, 121953, Note_on_c, 0, 75, 65
1, 121966, Note_off_c, 0, 72, 63
1, 121979, Note_off_c, 0, 75, 67
1, 121988, Note_on_c, 0, 78, 90
1, 122003, Note_off_c, 0, 78, 71
1, 122042, Note_on_c, 0, 82, 87
1, 122073, Note_on_c, 0, 76, 72
1, 122081, Note_off_c, 0, 82, 67
1, 122131, Note_on_c, 0, 81, 66
1, 122135, Note_on_c, 0, 80, 42
1, 122153, Note_on_c, 0, 84, 81
1, 122162, Note_off_c, 0, 80, 62
1, 122163, Note_off_c, 0, 76, 65
1, 122186, Note_off_c, 0, 81, 64
1, 122201, Note_on_c, 0, 87, 73
1, 122213, Note_off_c, 0, 84, 67
1, 122232, Note_off_c, 0, 87, 64
1, 122237, Note_on_c, 0, 90, 86
1, 122277, Note_on_c, 0, 94, 74
1, 122285, Note_off_c, 0, 90, 67
1, 122298, Note_off_c, 0, 94, 68
1, 122313, Note_on_c, 0, 88, 87
1, 122345, Note_on_c, 0, 89, 42
1, 122345, Note_off_c, 0, 89, 127
1, 122352, Note_on_c, 0, 93, 66
1, 122386, Note_on_c, 0, 96, 85
1, 122393, Note_off_c, 0, 88, 64
1, 122416, Note_off_c, 0, 93, 64
1, 122420, Note_on_c, 0, 99, 89
1, 122436, Note_off_c, 0, 96, 68
1, 122460, Note_off_c, 0, 99, 65
1, 122512, Note_on_c, 0, 106, 111
1, 122513, Note_on_c, 0, 94, 105
1, 122517, Note_on_c, 0, 82, 103
1, 122519, Note_on_c, 0, 70, 83
1, 122527, Note_off_c, 0, 94, 76
1, 122538, Note_on_c, 0, 107, 60
1, 122538, Note_off_c, 0, 107, 127
1, 122543, Note_off_c, 0, 106, 65
1, 122548, Note_off_c, 0, 82, 68
1, 122560, Note_off_c, 0, 70, 66
1, 123292, Note_on_c, 0, 106, 107
1, 123294, Note_on_c, 0, 70, 83
1, 123294, Note_on_c, 0, 94, 120
1, 123297, Note_on_c, 0, 82, 100
1, 123333, Note_off_c, 0, 106, 67
1, 123336, Note_off_c, 0, 94, 68
1, 123658, Note_off_c, 0, 82, 50
1, 124213, Note_off_c, 0, 70, 51
1, 125046, Note_on_c, 0, 106, 107
1, 125051, Note_on_c, 0, 94, 103
1, 125057, Note_on_c, 0, 70, 81
1, 125057, Note_on_c, 0, 82, 84
1, 125086, Note_off_c, 0, 94, 66
1, 125090, Note_off_c, 0, 106, 66
1, 125101, Note_off_c, 0, 82, 61
1, 126251, Control_c, 0, 67, 54
1, 126265, Control_c, 0, 67, 74
1, 126280, Control_c, 0, 67, 91
1, 126295, Control_c, 0, 67, 107
1, 126310, Control_c, 0, 67, 121
1, 126325, Control_c, 0, 67, 127
1, 126358, Note_off_c, 0, 70, 52
1, 127163, Control_c, 0, 64, 87
1, 127175, Note_on_c, 0, 59, 55
1, 127185, Control_c, 0, 64, 60
1, 127190, Note_on_c, 0, 61, 50
1, 127200, Control_c, 0, 64, 0
1, 127259, Control_c, 0, 64, 42
1, 127274, Control_c, 0, 64, 57
1, 127289, Control_c, 0, 64, 65
1, 127304, Control_c, 0, 64, 71
1, 127318, Control_c, 0, 64, 80
1, 127333, Control_c, 0, 64, 93
1, 127348, Control_c, 0, 64, 125
1, 127363, Control_c, 0, 64, 127
1, 127378, Note_off_c, 0, 61, 61
1, 127381, Note_on_c, 0, 57, 48
1, 127393, Note_off_c, 0, 59, 57
1, 127417, Note_off_c, 0, 57, 64
1, 127440, Note_on_c, 0, 56, 41
1, 127470, Note_off_c, 0, 56, 55
1, 127473, Note_on_c, 0, 54, 53
1, 127526, Note_on_c, 0, 50, 59
1, 127530, Note_on_c, 0, 52, 32
1, 127545, Note_on_c, 0, 49, 56
1, 127611, Note_off_c, 0, 49, 53
1, 127613, Note_on_c, 0, 47, 31
1, 127617, Note_off_c, 0, 52, 50
1, 127621, Note_off_c, 0, 50, 62
1, 127622, Note_off_c, 0, 54, 53
1, 127667, Note_off_c, 0, 47, 59
1, 127674, Note_on_c, 0, 40, 49
1, 127763, Note_off_c, 0, 40, 60
1, 128615, Control_c, 0, 64, 117
1, 128630, Control_c, 0, 64, 77
1, 128645, Control_c, 0, 64, 55
1, 128666, Control_c, 0, 64, 0
1, 128678, Note_on_c, 0, 94, 58
1, 128690, Note_on_c, 0, 82, 42
1, 128696, Note_on_c, 0, 70, 38
1, 128700, Note_on_c, 0, 58, 39
1, 128815, Control_c, 0, 64, 30
1, 128830, Control_c, 0, 64, 40
1, 128845, Control_c, 0, 64, 49
1, 128860, Control_c, 0, 64, 55
1, 128874, Control_c, 0, 64, 59
1, 128889, Control_c, 0, 64, 62
1, 128904, Control_c, 0, 64, 63
1, 128919, Control_c, 0, 64, 65
1, 128934, Control_c, 0, 64, 67
1, 128948, Control_c, 0, 64, 71
1, 128963, Control_c, 0, 64, 74
1, 128978, Control_c, 0, 64, 79
1, 128992, Control_c, 0, 64, 83
1, 129007, Control_c, 0, 64, 88
1, 129022, Control_c, 0, 64, 93
1, 129037, Control_c, 0, 64, 99
1, 129052, Control_c, 0, 64, 105
1, 129066, Control_c, 0, 64, 115
1, 129081, Control_c, 0, 64, 127
1, 129185, Note_off_c, 0, 58, 28
1, 129235, Note_off_c, 0, 94, 35
1, 129268, Note_off_c, 0, 70, 29
1, 129292, Note_off_c, 0, 82, 35
1, 129749, Note_on_c, 0, 94, 43
1, 129761, Note_on_c, 0, 58, 27
1, 129761, Note_on_c, 0, 70, 21
1, 129779, Note_on_c, 0, 82, 7
1, 129837, Note_off_c, 0, 82, 41
1, 129913, Note_off_c, 0, 94, 34
1, 130006, Note_off_c, 0, 70, 38
1, 131608, Note_off_c, 0, 58, 39
1, 132010, Note_on_c, 0, 64, 40
1, 132019, Note_on_c, 0, 62, 32
1, 132077, Control_c, 0, 64, 92
1, 132091, Control_c, 0, 64, 74
1, 132106, Control_c, 0, 64, 61
1, 132121, Control_c, 0, 64, 48
1, 132136, Control_c, 0, 64, 40
1, 132165, Control_c, 0, 64, 44
1, 132180, Control_c, 0, 64, 52
1, 132195, Control_c, 0, 64, 59
1, 132210, Control_c, 0, 64, 64
1, 132225, Control_c, 0, 64, 71
1, 132240, Control_c, 0, 64, 76
1, 132255, Control_c, 0, 64, 80
1, 132270, Control_c, 0, 64, 83
1, 132284, Control_c, 0, 64, 86
1, 132299, Control_c, 0, 64, 89
1, 132305, Note_on_c, 0, 60, 40
1, 132314, Note_on_c, 0, 58, 38
1, 132314, Control_c, 0, 64, 92
1, 132328, Control_c, 0, 64, 95
1, 132343, Control_c, 0, 64, 99
1, 132358, Control_c, 0, 64, 101
1, 132373, Control_c, 0, 64, 103
1, 132388, Control_c, 0, 64, 105
1, 132392, Note_off_c, 0, 60, 57
1, 132393, Note_off_c, 0, 58, 60
1, 132394, Note_off_c, 0, 64, 57
1, 132410, Control_c, 0, 64, 107
1, 132427, Note_on_c, 0, 54, 33
1, 132431, Note_off_c, 0, 62, 41
1, 132440, Control_c, 0, 64, 109
1, 132460, Note_on_c, 0, 56, 10
1, 132514, Control_c, 0, 64, 111
1, 132518, Note_off_c, 0, 56, 44
1, 132562, Note_off_c, 0, 54, 36
1, 132595, Note_on_c, 0, 52, 22
1, 132638, Note_off_c, 0, 52, 52
1, 132652, Note_on_c, 0, 50, 35
1, 132706, Note_off_c, 0, 50, 46
1, 132707, Control_c, 0, 64, 113
1, 132766, Control_c, 0, 64, 115
1, 132789, Note_on_c, 0, 48, 29
1, 132796, Control_c, 0, 64, 118
1, 132826, Control_c, 0, 64, 121
1, 132855, Control_c, 0, 64, 127
1, 132885, Note_off_c, 0, 48, 56
1, 133029, Note_on_c, 0, 34, 33
1, 133116, Note_off_c, 0, 34, 49
1, 134297, Note_on_c, 0, 94, 44
1, 134303, Note_on_c, 0, 82, 40
1, 134309, Note_on_c, 0, 58, 28
1, 134309, Control_c, 0, 64, 103
1, 134324, Control_c, 0, 64, 73
1, 134335, Note_on_c, 0, 70, 24
1, 134338, Control_c, 0, 64, 53
1, 134353, Control_c, 0, 64, 0
1, 135309, Control_c, 0, 64, 27
1, 135324, Control_c, 0, 64, 36
1, 135339, Control_c, 0, 64, 44
1, 135353, Control_c, 0, 64, 51
1, 135368, Control_c, 0, 64, 55
1, 135383, Control_c, 0, 64, 57
1, 135406, Control_c, 0, 64, 59
1, 135421, Control_c, 0, 64, 61
1, 135435, Control_c, 0, 64, 63
1, 135450, Control_c, 0, 64, 65
1, 135465, Control_c, 0, 64, 66
1, 135480, Control_c, 0, 64, 68
1, 135495, Control_c, 0, 64, 71
1, 135509, Control_c, 0, 64, 74
1, 135524, Control_c, 0, 64, 77
1, 135539, Control_c, 0, 64, 81
1, 135553, Control_c, 0, 64, 85
1, 135568, Control_c, 0, 64, 90
1, 135583, Control_c, 0, 64, 96
1, 135598, Control_c, 0, 64, 103
1, 135613, Control_c, 0, 64, 114
1, 135629, Control_c, 0, 64, 127
1, 135658, Note_off_c, 0, 70, 43
1, 135897, Note_off_c, 0, 58, 41
1, 137435, Note_on_c, 0, 27, 32
1, 137600, Note_off_c, 0, 27, 38
1, 137891, Note_off_c, 0, 82, 29
1, 138178, Note_off_c, 0, 94, 24
1, 140905, Note_on_c, 0, 94, 63
1, 140922, Note_on_c, 0, 82, 45
1, 140932, Note_on_c, 0, 58, 41
1, 140936, Note_on_c, 0, 70, 40
1, 140982, Note_off_c, 0, 94, 64
1, 140984, Note_off_c, 0, 82, 63
1, 141002, Note_off_c, 0, 58, 55
1, 141013, Note_off_c, 0, 70, 48
1, 141824, Note_on_c, 0, 61, 26
1, 141827, Note_on_c, 0, 75, 42
1, 141832, Note_on_c, 0, 79, 42
1, 141837, Note_on_c, 0, 70, 34
1, 141837, Note_on_c, 0, 77, 37
1, 141838, Note_on_c, 0, 69, 31
1, 141838, Note_on_c, 0, 72, 33
1, 141843, Note_on_c, 0, 64, 24
1, 141856, Note_on_c, 0, 66, 36
1, 141882, Note_on_c, 0, 68, 10
1, 143904, Note_off_c, 0, 70, 39
1, 143982, Note_off_c, 0, 72, 34
1, 143991, Note_off_c, 0, 69, 42
1, 144013, Note_off_c, 0, 79, 35
1, 144022, Note_off_c, 0, 68, 32
1, 144099, Note_off_c, 0, 66, 34
1, 144158, Note_off_c, 0, 64, 41
1, 144192, Note_off_c, 0, 75, 36
1, 144214, Note_off_c, 0, 77, 35
1, 144220, Note_off_c, 0, 61, 28
1, 145017, Note_on_c, 0, 58, 33
1, 145027, Note_on_c, 0, 94, 54
1, 145046, Note_on_c, 0, 70, 30
1, 145047, Note_on_c, 0, 82, 32
1, 145087, Control_c, 0, 64, 99
1, 145102, Control_c, 0, 64, 82
1, 145117, Control_c, 0, 64, 74
1, 145132, Control_c, 0, 64, 69
1, 145153, Control_c, 0, 64, 67
1, 145168, Control_c, 0, 64, 66
1, 145183, Control_c, 0, 64, 68
1, 145198, Control_c, 0, 64, 74
1, 145214, Control_c, 0, 64, 83
1, 145229, Control_c, 0, 64, 91
1, 145243, Control_c, 0, 64, 97
1, 145258, Control_c, 0, 64, 104
1, 145273, Control_c, 0, 64, 113
1, 145287, Control_c, 0, 64, 127
1, 145311, Note_off_c, 0, 94, 57
1, 145318, Note_off_c, 0, 58, 49
1, 145373, Note_off_c, 0, 70, 50
1, 145407, Note_off_c, 0, 82, 50
1, 146002, Note_on_c, 0, 80, 44
1, 146004, Note_on_c, 0, 73, 39
1, 146008, Note_on_c, 0, 66, 36
1, 146010, Note_on_c, 0, 78, 51
1, 146014, Note_on_c, 0, 75, 42
1, 146015, Note_on_c, 0, 76, 45
1, 146021, Note_on_c, 0, 72, 28
1, 146041, Note_on_c, 0, 71, 34
1, 146041, Note_on_c, 0, 69, 35
1, 146050, Note_on_c, 0, 65, 33
1, 146163, Note_off_c, 0, 80, 35
1, 146170, Note_off_c, 0, 73, 35
1, 146180, Note_off_c, 0, 75, 33
1, 146192, Note_off_c, 0, 76, 28
1, 146254, Note_off_c, 0, 78, 27
1, 148155, Note_off_c, 0, 72, 37
1, 148214, Note_off_c, 0, 71, 34
1, 148235, Note_off_c, 0, 69, 36
1, 148346, Note_off_c, 0, 65, 37
1, 148396, Note_off_c, 0, 66, 41
1, 149105, Note_on_c, 0, 94, 38
1, 149106, Note_on_c, 0, 82, 27
1, 149107, Note_on_c, 0, 58, 33
1, 149132, Note_on_c, 0, 70, 24
1, 149150, Control_c, 0, 64, 96
1, 149165, Control_c, 0, 64, 78
1, 149179, Control_c, 0, 64, 63
1, 149194, Control_c, 0, 64, 55
1, 149210, Control_c, 0, 64, 51
1, 149225, Control_c, 0, 64, 52
1, 149240, Control_c, 0, 64, 54
1, 149254, Control_c, 0, 64, 57
1, 149269, Control_c, 0, 64, 60
1, 149284, Control_c, 0, 64, 64
1, 149299, Control_c, 0, 64, 69
1, 149314, Control_c, 0, 64, 76
1, 149328, Control_c, 0, 64, 85
1, 149343, Control_c, 0, 64, 93
1, 149358, Control_c, 0, 64, 99
1, 149368, Note_off_c, 0, 94, 41
1, 149373, Control_c, 0, 64, 108
1, 149388, Control_c, 0, 64, 119
1, 149402, Note_off_c, 0, 58, 48
1, 149402, Control_c, 0, 64, 127
1, 149475, Note_off_c, 0, 82, 53
1, 149486, Note_off_c, 0, 70, 42
1, 150097, Note_on_c, 0, 81, 62
1, 150112, Note_on_c, 0, 79, 49
1, 150122, Note_on_c, 0, 77, 42
1, 150125, Note_on_c, 0, 73, 31
1, 150128, Note_on_c, 0, 66, 34
1, 150130, Note_on_c, 0, 70, 37
1, 150136, Note_on_c, 0, 72, 29
1, 150136, Note_on_c, 0, 74, 33
1, 150141, Note_on_c, 0, 63, 29
1, 150146, Note_on_c, 0, 68, 31
1, 150185, Note_off_c, 0, 74, 42
1, 150220, Note_off_c, 0, 72, 41
1, 150271, Note_off_c, 0, 81, 51
1, 150346, Note_off_c, 0, 77, 27
1, 150352, Note_off_c, 0, 79, 30
1, 151665, Note_off_c, 0, 73, 38
1, 151900, Note_off_c, 0, 70, 37
1, 151970, Note_off_c, 0, 68, 34
1, 152018, Note_off_c, 0, 66, 39
1, 152081, Note_off_c, 0, 63, 38
1, 153219, Note_on_c, 0, 58, 25
1, 153243, Note_on_c, 0, 94, 32
1, 153252, Note_on_c, 0, 70, 23
1, 153255, Note_on_c, 0, 82, 24
1, 153296, Control_c, 0, 64, 97
1, 153310, Control_c, 0, 64, 80
1, 153325, Control_c, 0, 64, 67
1, 153340, Control_c, 0, 64, 58
1, 153355, Control_c, 0, 64, 52
1, 153370, Control_c, 0, 64, 51
1, 153422, Control_c, 0, 64, 51
1, 153436, Control_c, 0, 64, 53
1, 153451, Control_c, 0, 64, 57
1, 153466, Control_c, 0, 64, 60
1, 153481, Control_c, 0, 64, 63
1, 153496, Control_c, 0, 64, 67
1, 153510, Control_c, 0, 64, 71
1, 153525, Control_c, 0, 64, 77
1, 153540, Control_c, 0, 64, 81
1, 153555, Control_c, 0, 64, 84
1, 153570, Control_c, 0, 64, 89
1, 153584, Control_c, 0, 64, 94
1, 153599, Control_c, 0, 64, 101
1, 153614, Control_c, 0, 64, 108
1, 153628, Control_c, 0, 64, 119
1, 153643, Control_c, 0, 64, 127
1, 153690, Note_off_c, 0, 94, 39
1, 153711, Note_off_c, 0, 70, 38
1, 153718, Note_off_c, 0, 58, 41
1, 153833, Note_off_c, 0, 82, 38
1, 154495, Control_c, 0, 67, 112
1, 154510, Control_c, 0, 67, 103
1, 154525, Control_c, 0, 67, 95
1, 154540, Control_c, 0, 67, 88
1, 154555, Control_c, 0, 67, 84
1, 154569, Control_c, 0, 67, 82
1, 154584, Control_c, 0, 67, 82
1, 154599, Control_c, 0, 67, 81
1, 154629, Control_c, 0, 67, 81
1, 154716, Control_c, 0, 67, 81
1, 154731, Control_c, 0, 67, 82
1, 154746, Control_c, 0, 67, 82
1, 154761, Control_c, 0, 67, 84
1, 154776, Control_c, 0, 67, 84
1, 154792, Control_c, 0, 67, 85
1, 154807, Control_c, 0, 67, 86
1, 154821, Control_c, 0, 67, 88
1, 154829, Note_on_c, 0, 82, 65
1, 154836, Control_c, 0, 67, 90
1, 154839, Note_on_c, 0, 66, 30
1, 154842, Note_on_c, 0, 80, 56
1, 154851, Control_c, 0, 67, 92
1, 154858, Note_on_c, 0, 78, 47
1, 154873, Control_c, 0, 67, 93
1, 154879, Note_on_c, 0, 73, 43
1, 154882, Note_on_c, 0, 71, 33
1, 154888, Control_c, 0, 67, 95
1, 154890, Note_on_c, 0, 75, 37
1, 154898, Note_on_c, 0, 68, 26
1, 154899, Note_on_c, 0, 64, 28
1, 154907, Note_on_c, 0, 70, 29
1, 154918, Control_c, 0, 67, 98
1, 154933, Control_c, 0, 67, 100
1, 154977, Control_c, 0, 67, 103
1, 155007, Control_c, 0, 67, 105
1, 155036, Control_c, 0, 67, 108
1, 155066, Control_c, 0, 67, 112
1, 155080, Control_c, 0, 67, 115
1, 155095, Control_c, 0, 67, 119
1, 155110, Control_c, 0, 67, 124
1, 155125, Control_c, 0, 67, 127
1, 158018, Note_off_c, 0, 71, 27
1, 158097, Note_off_c, 0, 70, 37
1, 158260, Note_off_c, 0, 68, 28
1, 158337, Note_off_c, 0, 66, 38
1, 158418, Note_off_c, 0, 64, 45
1, 158525, Note_off_c, 0, 80, 20
1, 158536, Note_off_c, 0, 82, 23
1, 158575, Note_off_c, 0, 73, 28
1, 158587, Note_off_c, 0, 75, 18
1, 158602, Note_off_c, 0, 78, 38
1, 161894, Control_c, 0, 64, 117
1, 161909, Control_c, 0, 64, 114
1, 161924, Control_c, 0, 64, 111
1, 161939, Control_c, 0, 64, 109
1, 161954, Control_c, 0, 64, 107
1, 161983, Control_c, 0, 64, 104
1, 162013, Control_c, 0, 64, 101
1, 162043, Control_c, 0, 64, 99
1, 162058, Control_c, 0, 64, 89
1, 162073, Control_c, 0, 64, 68
1, 162088, Control_c, 0, 64, 40
1, 162091, Note_on_c, 0, 46, 49
1, 162103, Control_c, 0, 64, 0
1, 162108, Note_on_c, 0, 22, 38
1, 162119, Note_off_c, 0, 46, 51
1, 162147, Note_off_c, 0, 22, 39
1, 174445, Control_c, 0, 64, 28
1, 174460, Control_c, 0, 64, 38
1, 174475, Control_c, 0, 64, 49
1, 174489, Control_c, 0, 64, 57
1, 174504, Control_c, 0, 64, 62
1, 174519, Control_c, 0, 64, 64
1, 174534, Control_c, 0, 64, 67
1, 174549, Control_c, 0, 64, 71
1, 174563, Control_c, 0, 64, 76
1, 174578, Control_c, 0, 64, 83
1, 174593, Control_c, 0, 64, 96
1, 174606, Note_on_c, 0, 60, 72
1, 174607, Note_on_c, 0, 48, 67
1, 174608, Control_c, 0, 64, 127
1, 174608, Control_c, 0, 67, 125
1, 174623, Control_c, 0, 67, 98
1, 174634, Note_off_c, 0, 60, 66
1, 174637, Note_off_c, 0, 48, 64
1, 174638, Control_c, 0, 67, 74
1, 174652, Control_c, 0, 67, 49
1, 174655, Note_on_c, 0, 73, 78
1, 174663, Note_on_c, 0, 61, 64
1, 174667, Control_c, 0, 67, 0
1, 174682, Note_off_c, 0, 73, 64
1, 174691, Note_off_c, 0, 61, 66
1, 174730, Note_on_c, 0, 62, 89
1, 174737, Note_on_c, 0, 50, 77
1, 174760, Note_off_c, 0, 62, 64
1, 174763, Note_off_c, 0, 50, 69
1, 174771, Note_on_c, 0, 63, 89
1, 174772, Note_on_c, 0, 75, 84
1, 174792, Note_off_c, 0, 63, 70
1, 174792, Note_off_c, 0, 75, 69
1, 174825, Note_on_c, 0, 64, 98
1, 174835, Note_on_c, 0, 52, 85
1, 174846, Note_on_c, 0, 66, 107
1, 174847, Note_on_c, 0, 78, 101
1, 174853, Note_off_c, 0, 64, 66
1, 174858, Note_off_c, 0, 52, 65
1, 174873, Note_off_c, 0, 66, 70
1, 174882, Note_off_c, 0, 78, 63
1, 174890, Note_on_c, 0, 65, 76
1, 174926, Note_on_c, 0, 53, 39
1, 174926, Note_off_c, 0, 53, 127
1, 174929, Note_on_c, 0, 55, 60
1, 174971, Note_off_c, 0, 65, 60
1, 174976, Poly_aftertouch_c, 0, 53, 127
1, 174980, Control_c, 0, 64, 102
1, 174984, Note_off_c, 0, 55, 64
1, 174994, Control_c, 0, 64, 61
1, 175009, Control_c, 0, 64, 0
1, 175028, Poly_aftertouch_c, 0, 53, 0
1, 175408, Note_on_c, 0, 70, 94
1, 175413, Note_on_c, 0, 73, 86
1, 175414, Note_on_c, 0, 82, 80
1, 175415, Note_on_c, 0, 61, 62
1, 175416, Control_c, 0, 64, 47
1, 175420, Note_on_c, 0, 75, 74
1, 175421, Note_on_c, 0, 80, 74
1, 175421, Note_on_c, 0, 78, 70
1, 175424, Note_on_c, 0, 68, 69
1, 175430, Note_on_c, 0, 63, 62
1, 175431, Control_c, 0, 64, 127
1, 175443, Note_on_c, 0, 66, 42
1, 175446, Note_off_c, 0, 61, 62
1, 175448, Note_off_c, 0, 68, 68
1, 175448, Note_off_c, 0, 73, 62
1, 175449, Note_off_c, 0, 63, 61
1, 175453, Note_off_c, 0, 70, 66
1, 175453, Note_off_c, 0, 75, 0
1, 175453, Note_off_c, 0, 78, 56
1, 175455, Note_off_c, 0, 82, 64
1, 175468, Note_on_c, 0, 83, 103
1, 175469, Note_on_c, 0, 69, 103
1, 175471, Note_on_c, 0, 74, 107
1, 175473, Note_on_c, 0, 60, 99
1, 175475, Note_off_c, 0, 80, 38
1, 175476, Poly_aftertouch_c, 0, 75, 0
1, 175478, Note_on_c, 0, 67, 100
1, 175478, Poly_aftertouch_c, 0, 78, 0
1, 175480, Note_on_c, 0, 76, 93
1, 175480, Note_on_c, 0, 81, 94
1, 175483, Note_on_c, 0, 65, 82
1, 175487, Note_on_c, 0, 79, 89
1, 175489, Note_on_c, 0, 62, 85
1, 175490, Note_off_c, 0, 69, 75
1, 175495, Note_off_c, 0, 66, 42
1, 175495, Note_off_c, 0, 74, 74
1, 175503, Note_off_c, 0, 76, 72
1, 175506, Note_off_c, 0, 79, 68
1, 175506, Note_off_c, 0, 83, 70
1, 175511, Note_off_c, 0, 81, 70
1, 175513, Note_off_c, 0, 60, 71
1, 175519, Note_off_c, 0, 67, 68
1, 175525, Note_on_c, 0, 72, 2
1, 175525, Note_off_c, 0, 72, 127
1, 175525, Note_off_c, 0, 65, 67
1, 175532, Note_off_c, 0, 62, 62
1, 175570, Poly_aftertouch_c, 0, 72, 0
1, 175714, Control_c, 0, 64, 98
1, 175729, Control_c, 0, 64, 66
1, 175743, Control_c, 0, 64, 29
1, 175758, Control_c, 0, 64, 0
1, 175982, Note_on_c, 0, 88, 107
1, 176017, Control_c, 0, 64, 127
1, 176022, Note_on_c, 0, 81, 43
1, 176047, Note_off_c, 0, 81, 40
1, 176174, Note_on_c, 0, 87, 65
1, 176189, Note_off_c, 0, 88, 60
1, 176214, Note_on_c, 0, 82, 80
1, 176229, Note_on_c, 0, 85, 38
1, 176247, Note_off_c, 0, 87, 66
1, 176256, Note_off_c, 0, 85, 49
1, 176274, Note_on_c, 0, 81, 90
1, 176275, Note_off_c, 0, 82, 66
1, 176291, Note_off_c, 0, 81, 74
1, 176325, Note_on_c, 0, 76, 81
1, 176370, Note_on_c, 0, 75, 88
1, 176391, Note_off_c, 0, 76, 61
1, 176420, Note_on_c, 0, 70, 73
1, 176433, Note_off_c, 0, 75, 66
1, 176455, Note_on_c, 0, 69, 70
1, 176458, Note_off_c, 0, 70, 68
1, 176479, Note_off_c, 0, 69, 70
1, 176528, Note_on_c, 0, 64, 45
1, 176575, Poly_aftertouch_c, 0, 71, 0
1, 176590, Note_on_c, 0, 63, 58
1, 176626, Note_on_c, 0, 58, 82
1, 176626, Note_off_c, 0, 64, 65
1, 176652, Note_off_c, 0, 63, 63
1, 176679, Note_on_c, 0, 57, 82
1, 176686, Note_off_c, 0, 58, 66
1, 176705, Note_off_c, 0, 57, 69
1, 176724, Note_on_c, 0, 52, 72
1, 176764, Note_on_c, 0, 51, 83
1, 176778, Note_off_c, 0, 52, 60
1, 176823, Note_on_c, 0, 46, 76
1, 176839, Note_off_c, 0, 51, 63
1, 176849, Note_off_c, 0, 46, 68
1, 176855, Note_on_c, 0, 45, 73
1, 176872, Note_on_c, 0, 47, 62
1, 176885, Note_off_c, 0, 45, 65
1, 176895, Note_off_c, 0, 47, 67
1, 176903, Note_on_c, 0, 40, 80
1, 176946, Note_on_c, 0, 39, 84
1, 176976, Note_off_c, 0, 40, 60
1, 176994, Note_on_c, 0, 34, 79
1, 177021, Note_off_c, 0, 39, 64
1, 177045, Note_on_c, 0, 33, 87
1, 177056, Note_off_c, 0, 34, 63
1, 177087, Note_off_c, 0, 33, 64
1, 177093, Note_on_c, 0, 21, 106
1, 177107, Control_c, 0, 64, 80
1, 177118, Note_on_c, 0, 23, 54
1, 177122, Control_c, 0, 64, 42
1, 177135, Note_off_c, 0, 21, 64
1, 177137, Control_c, 0, 64, 0
1, 177163, Note_off_c, 0, 23, 34
1, 177308, Note_on_c, 0, 27, 98
1, 177362, Note_off_c, 0, 27, 64
1, 177525, Note_on_c, 0, 21, 92
1, 177530, Control_c, 0, 64, 48
1, 177545, Control_c, 0, 64, 74
1, 177568, Note_off_c, 0, 21, 65
1, 177575, Control_c, 0, 64, 62
1, 177589, Control_c, 0, 64, 0
1, 177604, Note_on_c, 0, 21, 83
1, 177677, Note_off_c, 0, 21, 58
1, 177713, Note_on_c, 0, 27, 91
1, 177752, Note_off_c, 0, 27, 63
1, 177806, Note_on_c, 0, 21, 94
1, 177849, Note_off_c, 0, 21, 65
1, 178118, Note_on_c, 0, 27, 100
1, 178160, Note_off_c, 0, 27, 64
1, 178324, Note_on_c, 0, 21, 93
1, 178337, Control_c, 0, 64, 52
1, 178352, Control_c, 0, 64, 53
1, 178363, Note_off_c, 0, 21, 64
1, 178367, Control_c, 0, 64, 0
1, 178414, Note_on_c, 0, 21, 83
1, 178457, Note_off_c, 0, 21, 62
1, 178515, Note_on_c, 0, 27, 89
1, 178560, Note_off_c, 0, 27, 61
1, 178611, Note_on_c, 0, 21, 89
1, 178649, Control_c, 0, 64, 35
1, 178659, Note_off_c, 0, 21, 63
1, 178663, Control_c, 0, 64, 77
1, 178678, Control_c, 0, 64, 93
1, 178693, Control_c, 0, 64, 82
1, 178708, Control_c, 0, 64, 55
1, 178723, Control_c, 0, 64, 0
1, 178924, Note_on_c, 0, 27, 95
1, 178965, Note_off_c, 0, 27, 63
1, 179129, Note_on_c, 0, 21, 90
1, 179131, Control_c, 0, 64, 40
1, 179146, Control_c, 0, 64, 45
1, 179160, Control_c, 0, 64, 0
1, 179165, Note_off_c, 0, 21, 64
1, 179225, Note_on_c, 0, 21, 85
1, 179255, Note_off_c, 0, 21, 65
1, 179310, Note_on_c, 0, 27, 86
1, 179350, Note_off_c, 0, 27, 62
1, 179420, Note_on_c, 0, 21, 81
1, 179466, Note_off_c, 0, 21, 64
1, 179729, Note_on_c, 0, 27, 86
1, 179761, Note_off_c, 0, 27, 66
1, 179929, Note_on_c, 0, 21, 62
1, 179939, Control_c, 0, 64, 28
1, 179954, Control_c, 0, 64, 0
1, 179973, Note_off_c, 0, 21, 46
1, 180005, Note_on_c, 0, 22, 55
1, 180048, Note_off_c, 0, 22, 58
1, 180123, Note_on_c, 0, 27, 83
1, 180160, Note_off_c, 0, 27, 65
1, 180215, Note_on_c, 0, 21, 82
1, 180306, Note_on_c, 0, 45, 95
1, 180308, Control_c, 0, 64, 34
1, 180323, Control_c, 0, 64, 0
1, 180350, Note_off_c, 0, 45, 64
1, 180411, Note_on_c, 0, 45, 91
1, 180452, Note_off_c, 0, 45, 65
1, 180503, Note_on_c, 0, 43, 97
1, 180516, Note_off_c, 0, 21, 55
1, 180545, Note_off_c, 0, 43, 66
1, 180593, Note_on_c, 0, 40, 91
1, 180654, Note_off_c, 0, 40, 0
1, 180691, Poly_aftertouch_c, 0, 40, 127
1, 180703, Poly_aftertouch_c, 0, 40, 0
1, 180706, Note_on_c, 0, 27, 88
1, 180793, Note_on_c, 0, 39, 97
1, 180829, Note_off_c, 0, 27, 55
1, 180879, Control_c, 0, 64, 36
1, 180894, Control_c, 0, 64, 43
1, 180900, Note_off_c, 0, 39, 64
1, 180911, Note_on_c, 0, 28, 86
1, 180924, Control_c, 0, 64, 43
1, 180969, Control_c, 0, 64, 43
1, 180978, Note_off_c, 0, 28, 60
1, 180990, Note_on_c, 0, 37, 107
1, 180998, Control_c, 0, 64, 43
1, 181043, Control_c, 0, 64, 43
1, 181057, Control_c, 0, 64, 44
1, 181079, Control_c, 0, 64, 45
1, 181088, Note_off_c, 0, 37, 62
1, 181109, Control_c, 0, 64, 44
1, 181111, Note_on_c, 0, 27, 74
1, 181124, Control_c, 0, 64, 39
1, 181139, Control_c, 0, 64, 0
1, 181151, Note_off_c, 0, 27, 63
1, 181195, Note_on_c, 0, 36, 95
1, 181230, Note_on_c, 0, 28, 69
1, 181231, Note_off_c, 0, 36, 62
1, 181259, Note_off_c, 0, 28, 64
1, 181297, Note_on_c, 0, 33, 98
1, 181307, Note_on_c, 0, 21, 77
1, 181340, Note_off_c, 0, 21, 65
1, 181395, Note_on_c, 0, 21, 87
1, 181407, Note_off_c, 0, 33, 61
1, 181496, Note_on_c, 0, 31, 96
1, 181538, Note_on_c, 0, 39, 38
1, 181538, Note_off_c, 0, 39, 127
1, 181540, Note_off_c, 0, 31, 66
1, 181594, Note_on_c, 0, 33, 100
1, 181635, Note_off_c, 0, 33, 61
1, 181691, Note_on_c, 0, 31, 94
1, 181723, Note_off_c, 0, 21, 55
1, 181743, Note_off_c, 0, 31, 65
1, 181785, Note_on_c, 0, 33, 92
1, 181896, Note_off_c, 0, 33, 61
1, 181908, Note_on_c, 0, 27, 85
1, 181994, Note_on_c, 0, 39, 86
1, 182026, Note_off_c, 0, 27, 49
1, 182105, Note_on_c, 0, 28, 91
1, 182124, Note_off_c, 0, 39, 62
1, 182180, Note_off_c, 0, 28, 55
1, 182197, Note_on_c, 0, 37, 91
1, 182288, Note_off_c, 0, 37, 63
1, 182296, Note_on_c, 0, 27, 83
1, 182354, Note_off_c, 0, 27, 62
1, 182385, Note_on_c, 0, 36, 98
1, 182407, Note_on_c, 0, 28, 81
1, 182429, Note_off_c, 0, 36, 66
1, 182442, Note_off_c, 0, 28, 66
1, 182488, Note_on_c, 0, 33, 96
1, 182501, Note_on_c, 0, 21, 79
1, 182534, Note_off_c, 0, 21, 65
1, 182600, Note_on_c, 0, 21, 85
1, 182621, Note_off_c, 0, 33, 63
1, 182699, Note_on_c, 0, 31, 90
1, 182744, Note_off_c, 0, 31, 65
1, 182802, Note_on_c, 0, 33, 92
1, 182844, Note_off_c, 0, 33, 61
1, 182910, Note_on_c, 0, 31, 90
1, 182953, Note_off_c, 0, 31, 65
1, 183002, Note_on_c, 0, 33, 95
1, 183014, Note_off_c, 0, 21, 36
1, 183103, Note_off_c, 0, 33, 62
1, 183108, Note_on_c, 0, 27, 98
1, 183210, Note_on_c, 0, 39, 91
1, 183280, Note_off_c, 0, 27, 43
1, 183330, Note_on_c, 0, 28, 89
1, 183342, Note_off_c, 0, 39, 61
1, 183421, Note_on_c, 0, 37, 86
1, 183428, Note_off_c, 0, 28, 49
1, 183524, Note_off_c, 0, 37, 60
1, 183531, Note_on_c, 0, 27, 81
1, 183606, Note_off_c, 0, 27, 60
1, 183616, Note_on_c, 0, 36, 87
1, 183668, Note_off_c, 0, 36, 63
1, 183711, Note_on_c, 0, 33, 90
1, 183714, Note_on_c, 0, 25, 76
1, 183761, Note_off_c, 0, 33, 63
1, 183765, Note_off_c, 0, 25, 60
1, 183803, Note_on_c, 0, 39, 97
1, 183890, Control_c, 0, 64, 55
1, 183895, Note_on_c, 0, 27, 94
1, 183905, Control_c, 0, 64, 74
1, 183920, Control_c, 0, 64, 87
1, 183935, Control_c, 0, 64, 121
1, 183940, Note_off_c, 0, 39, 60
1, 183949, Control_c, 0, 64, 127
1, 183985, Note_off_c, 0, 27, 61
1, 183994, Note_on_c, 0, 37, 99
1, 184090, Control_c, 0, 64, 105
1, 184093, Note_on_c, 0, 28, 103
1, 184101, Note_off_c, 0, 37, 60
1, 184105, Control_c, 0, 64, 68
1, 184117, Poly_aftertouch_c, 0, 39, 0
1, 184120, Control_c, 0, 64, 27
1, 184134, Control_c, 0, 64, 0
1, 184196, Note_on_c, 0, 36, 98
1, 184211, Note_off_c, 0, 28, 55
1, 184245, Note_off_c, 0, 36, 67
1, 184258, Note_on_c, 0, 37, 12
1, 184310, Note_on_c, 0, 21, 104
1, 184311, Note_off_c, 0, 37, 27
1, 184491, Control_c, 0, 64, 27
1, 184499, Note_on_c, 0, 57, 110
1, 184505, Control_c, 0, 64, 32
1, 184520, Control_c, 0, 64, 33
1, 184550, Control_c, 0, 64, 32
1, 184576, Note_off_c, 0, 57, 64
1, 184680, Note_on_c, 0, 55, 101
1, 184721, Note_off_c, 0, 21, 56
1, 184751, Note_off_c, 0, 55, 59
1, 184772, Control_c, 0, 64, 32
1, 184842, Note_on_c, 0, 52, 102
1, 184846, Note_on_c, 0, 27, 91
1, 184883, Control_c, 0, 64, 30
1, 184908, Note_off_c, 0, 52, 63
1, 184987, Control_c, 0, 64, 28
1, 184990, Note_on_c, 0, 51, 91
1, 185031, Control_c, 0, 64, 0
1, 185053, Note_off_c, 0, 51, 64
1, 185128, Note_on_c, 0, 49, 94
1, 185158, Note_off_c, 0, 27, 54
1, 185214, Note_off_c, 0, 49, 61
1, 185271, Note_on_c, 0, 48, 98
1, 185285, Note_on_c, 0, 28, 86
1, 185363, Note_off_c, 0, 48, 60
1, 185431, Note_on_c, 0, 45, 94
1, 185503, Note_off_c, 0, 45, 64
1, 185516, Note_off_c, 0, 28, 54
1, 185555, Note_on_c, 0, 43, 99
1, 185634, Note_off_c, 0, 43, 64
1, 185701, Note_on_c, 0, 45, 88
1, 185707, Note_on_c, 0, 27, 77
1, 185751, Control_c, 0, 64, 45
1, 185766, Control_c, 0, 64, 58
1, 185780, Control_c, 0, 64, 61
1, 185795, Control_c, 0, 64, 65
1, 185810, Control_c, 0, 64, 70
1, 185825, Control_c, 0, 64, 82
1, 185840, Control_c, 0, 64, 100
1, 185854, Control_c, 0, 64, 127
1, 185872, Note_off_c, 0, 45, 63
1, 185877, Note_off_c, 0, 27, 34
1, 185897, Note_on_c, 0, 21, 94
1, 186090, Note_on_c, 0, 43, 98
1, 186093, Control_c, 0, 64, 113
1, 186108, Control_c, 0, 64, 64
1, 186123, Control_c, 0, 64, 0
1, 186138, Note_off_c, 0, 43, 65
1, 186190, Note_on_c, 0, 45, 86
1, 186209, Note_on_c, 0, 43, 57
1, 186209, Note_off_c, 0, 43, 127
1, 186230, Note_off_c, 0, 45, 65
1, 186287, Note_on_c, 0, 43, 84
1, 186310, Note_off_c, 0, 21, 36
1, 186341, Note_off_c, 0, 43, 61
1, 186385, Note_on_c, 0, 45, 89
1, 186475, Note_off_c, 0, 45, 60
1, 186498, Note_on_c, 0, 27, 89
1, 186515, Control_c, 0, 64, 32
1, 186530, Control_c, 0, 64, 30
1, 186544, Control_c, 0, 64, 0
1, 186589, Note_on_c, 0, 51, 90
1, 186657, Note_off_c, 0, 27, 57
1, 186677, Control_c, 0, 64, 28
1, 186703, Note_on_c, 0, 28, 88
1, 186707, Control_c, 0, 64, 0
1, 186725, Note_off_c, 0, 51, 60
1, 186797, Note_on_c, 0, 49, 94
1, 186804, Note_off_c, 0, 28, 53
1, 186874, Note_off_c, 0, 49, 63
1, 186905, Note_on_c, 0, 27, 81
1, 186946, Note_off_c, 0, 27, 63
1, 186984, Note_on_c, 0, 48, 95
1, 187011, Note_on_c, 0, 28, 81
1, 187018, Note_off_c, 0, 48, 66
1, 187043, Note_off_c, 0, 28, 67
1, 187091, Note_on_c, 0, 45, 94
1, 187104, Note_on_c, 0, 21, 83
1, 187138, Note_off_c, 0, 21, 66
1, 187189, Note_on_c, 0, 21, 82
1, 187215, Note_off_c, 0, 45, 61
1, 187296, Note_on_c, 0, 43, 95
1, 187341, Note_off_c, 0, 43, 65
1, 187391, Note_on_c, 0, 45, 92
1, 187427, Note_off_c, 0, 45, 65
1, 187493, Note_on_c, 0, 43, 90
1, 187543, Note_off_c, 0, 43, 61
1, 187578, Note_off_c, 0, 21, 35
1, 187588, Note_on_c, 0, 45, 85
1, 187688, Note_on_c, 0, 27, 81
1, 187696, Note_off_c, 0, 45, 59
1, 187791, Note_on_c, 0, 51, 81
1, 187849, Note_off_c, 0, 27, 47
1, 187904, Note_on_c, 0, 28, 89
1, 187923, Note_off_c, 0, 51, 61
1, 187923, Control_c, 0, 64, 27
1, 187938, Control_c, 0, 64, 0
1, 187997, Note_on_c, 0, 49, 91
1, 188029, Note_off_c, 0, 28, 59
1, 188092, Note_on_c, 0, 27, 95
1, 188093, Note_off_c, 0, 49, 63
1, 188117, Control_c, 0, 64, 48
1, 188131, Control_c, 0, 64, 40
1, 188146, Control_c, 0, 64, 0
1, 188174, Note_on_c, 0, 48, 107
1, 188188, Note_off_c, 0, 27, 62
1, 188230, Note_off_c, 0, 48, 65
1, 188278, Note_on_c, 0, 25, 90
1, 188278, Note_on_c, 0, 45, 96
1, 188323, Control_c, 0, 64, 45
1, 188338, Note_off_c, 0, 45, 63
1, 188339, Control_c, 0, 64, 43
1, 188354, Control_c, 0, 64, 0
1, 188364, Note_off_c, 0, 25, 60
1, 188382, Note_on_c, 0, 51, 67
1, 188389, Note_on_c, 0, 52, 92
1, 188435, Note_on_c, 0, 54, 16
1, 188442, Control_c, 0, 64, 39
1, 188454, Note_off_c, 0, 51, 61
1, 188454, Note_off_c, 0, 52, 63
1, 188457, Control_c, 0, 64, 56
1, 188472, Note_off_c, 0, 54, 28
1, 188472, Control_c, 0, 64, 58
1, 188478, Note_on_c, 0, 27, 100
1, 188516, Control_c, 0, 64, 60
1, 188531, Control_c, 0, 64, 62
1, 188546, Control_c, 0, 64, 63
1, 188561, Control_c, 0, 64, 64
1, 188583, Control_c, 0, 64, 65
1, 188596, Note_on_c, 0, 49, 95
1, 188597, Control_c, 0, 64, 67
1, 188601, Note_off_c, 0, 27, 58
1, 188612, Control_c, 0, 64, 73
1, 188627, Control_c, 0, 64, 87
1, 188642, Control_c, 0, 64, 127
1, 188674, Note_off_c, 0, 49, 57
1, 188687, Note_on_c, 0, 28, 105
1, 188731, Control_c, 0, 64, 91
1, 188746, Control_c, 0, 64, 62
1, 188761, Control_c, 0, 64, 0
1, 188768, Note_off_c, 0, 28, 61
1, 188779, Note_on_c, 0, 48, 104
1, 188830, Note_off_c, 0, 48, 66
1, 188934, Note_on_c, 0, 21, 104
1, 188968, Control_c, 0, 64, 65
1, 188983, Control_c, 0, 64, 127
1, 189003, Note_off_c, 0, 21, 62
1, 189110, Note_on_c, 0, 45, 99
1, 189215, Note_on_c, 0, 43, 64
1, 189215, Note_off_c, 0, 43, 127
1, 189218, Note_off_c, 0, 45, 55
1, 189291, Note_on_c, 0, 57, 82
1, 189354, Note_off_c, 0, 57, 63
1, 189393, Note_on_c, 0, 55, 93
1, 189428, Note_off_c, 0, 55, 65
1, 189480, Note_on_c, 0, 69, 92
1, 189557, Note_off_c, 0, 69, 60
1, 189575, Note_on_c, 0, 67, 90
1, 189590, Note_off_c, 0, 67, 73
1, 189652, Note_on_c, 0, 67, 35
1, 189661, Note_on_c, 0, 81, 97
1, 189674, Note_off_c, 0, 67, 62
1, 189700, Note_off_c, 0, 81, 67
1, 189747, Note_on_c, 0, 79, 96
1, 189781, Note_off_c, 0, 79, 71
1, 189908, Note_on_c, 0, 93, 104
1, 190035, Note_on_c, 0, 91, 97
1, 190056, Note_off_c, 0, 93, 59
1, 190084, Note_on_c, 0, 52, 83
1, 190087, Note_off_c, 0, 91, 70
1, 190152, Note_on_c, 0, 54, 75
1, 190189, Note_on_c, 0, 57, 76
1, 190289, Note_on_c, 0, 61, 102
1, 190289, Control_c, 0, 64, 72
1, 190290, Note_on_c, 0, 88, 98
1, 190295, Note_on_c, 0, 81, 98
1, 190304, Control_c, 0, 64, 0
1, 190407, Control_c, 0, 64, 51
1, 190415, Note_off_c, 0, 81, 55
1, 190422, Control_c, 0, 64, 67
1, 190437, Control_c, 0, 64, 87
1, 190451, Note_off_c, 0, 57, 61
1, 190451, Control_c, 0, 64, 127
1, 190484, Note_off_c, 0, 52, 61
1, 190489, Note_off_c, 0, 61, 57
1, 190494, Note_off_c, 0, 54, 61
1, 190515, Note_on_c, 0, 87, 90
1, 190524, Note_on_c, 0, 79, 81
1, 190541, Note_off_c, 0, 88, 63
1, 190565, Note_off_c, 0, 79, 64
1, 190681, Note_on_c, 0, 85, 92
1, 190684, Note_on_c, 0, 76, 89
1, 190694, Note_off_c, 0, 87, 65
1, 190702, Note_on_c, 0, 69, 72
1, 190712, Note_off_c, 0, 76, 62
1, 190716, Note_off_c, 0, 85, 68
1, 190731, Note_off_c, 0, 69, 61
1, 190831, Note_on_c, 0, 84, 91
1, 190838, Note_on_c, 0, 67, 77
1, 190840, Note_on_c, 0, 75, 90
1, 190883, Note_off_c, 0, 75, 63
1, 190907, Note_off_c, 0, 67, 58
1, 190942, Note_off_c, 0, 84, 51
1, 190952, Note_on_c, 0, 81, 83
1, 190957, Note_on_c, 0, 64, 71
1, 190958, Note_on_c, 0, 73, 91
1, 190963, Note_on_c, 0, 57, 72
1, 190979, Note_off_c, 0, 64, 68
1, 190987, Note_off_c, 0, 57, 66
1, 190987, Note_off_c, 0, 73, 62
1, 190991, Note_off_c, 0, 81, 61
1, 191071, Note_on_c, 0, 63, 84
1, 191077, Note_on_c, 0, 79, 83
1, 191080, Note_on_c, 0, 70, 91
1, 191085, Note_on_c, 0, 55, 65
1, 191126, Note_off_c, 0, 70, 63
1, 191127, Note_off_c, 0, 63, 60
1, 191187, Note_on_c, 0, 76, 87
1, 191187, Note_off_c, 0, 79, 61
1, 191192, Note_on_c, 0, 69, 88
1, 191199, Note_on_c, 0, 61, 85
1, 191209, Note_on_c, 0, 52, 75
1, 191213, Note_off_c, 0, 55, 59
1, 191224, Note_off_c, 0, 76, 68
1, 191225, Note_off_c, 0, 61, 70
1, 191225, Note_off_c, 0, 69, 62
1, 191237, Note_off_c, 0, 52, 67
1, 191309, Note_on_c, 0, 75, 92
1, 191319, Control_c, 0, 64, 109
1, 191320, Note_on_c, 0, 67, 79
1, 191323, Note_on_c, 0, 60, 82
1, 191330, Note_on_c, 0, 51, 73
1, 191334, Control_c, 0, 64, 68
1, 191348, Control_c, 0, 64, 46
1, 191363, Control_c, 0, 64, 40
1, 191378, Control_c, 0, 64, 52
1, 191393, Control_c, 0, 64, 65
1, 191408, Control_c, 0, 64, 79
1, 191420, Note_off_c, 0, 60, 60
1, 191423, Control_c, 0, 64, 127
1, 191427, Note_on_c, 0, 73, 87
1, 191428, Note_on_c, 0, 64, 86
1, 191429, Note_on_c, 0, 57, 71
1, 191432, Note_off_c, 0, 67, 62
1, 191437, Note_off_c, 0, 75, 66
1, 191445, Note_off_c, 0, 51, 61
1, 191447, Note_on_c, 0, 49, 75
1, 191460, Note_off_c, 0, 64, 64
1, 191461, Note_off_c, 0, 57, 69
1, 191470, Note_off_c, 0, 73, 65
1, 191494, Note_off_c, 0, 49, 59
1, 191542, Control_c, 0, 64, 101
1, 191557, Control_c, 0, 64, 68
1, 191559, Note_on_c, 0, 72, 89
1, 191579, Control_c, 0, 64, 40
1, 191581, Note_on_c, 0, 63, 78
1, 191586, Note_on_c, 0, 55, 79
1, 191594, Control_c, 0, 64, 0
1, 191597, Note_on_c, 0, 46, 67
1, 191705, Note_on_c, 0, 69, 79
1, 191706, Note_off_c, 0, 63, 62
1, 191712, Control_c, 0, 64, 30
1, 191715, Note_on_c, 0, 61, 79
1, 191726, Note_off_c, 0, 72, 59
1, 191727, Control_c, 0, 64, 52
1, 191737, Note_off_c, 0, 46, 56
1, 191740, Note_on_c, 0, 45, 64
1, 191742, Note_off_c, 0, 55, 58
1, 191742, Control_c, 0, 64, 65
1, 191748, Note_on_c, 0, 52, 57
1, 191757, Control_c, 0, 64, 72
1, 191767, Note_off_c, 0, 61, 64
1, 191772, Control_c, 0, 64, 81
1, 191781, Note_off_c, 0, 52, 63
1, 191786, Control_c, 0, 64, 90
1, 191801, Control_c, 0, 64, 99
1, 191816, Control_c, 0, 64, 106
1, 191831, Control_c, 0, 64, 109
1, 191876, Note_on_c, 0, 67, 84
1, 191876, Control_c, 0, 64, 100
1, 191879, Note_on_c, 0, 58, 75
1, 191889, Note_off_c, 0, 69, 61
1, 191890, Control_c, 0, 64, 83
1, 191892, Note_on_c, 0, 51, 68
1, 191892, Note_off_c, 0, 45, 61
1, 191902, Note_on_c, 0, 46, 62
1, 191905, Control_c, 0, 64, 65
1, 191920, Control_c, 0, 64, 40
1, 191935, Control_c, 0, 64, 0
1, 192112, Control_c, 0, 67, 47
1, 192118, Note_off_c, 0, 58, 53
1, 192127, Control_c, 0, 67, 62
1, 192133, Note_on_c, 0, 61, 52
1, 192133, Note_off_c, 0, 51, 35
1, 192135, Note_on_c, 0, 69, 61
1, 192138, Note_on_c, 0, 52, 42
1, 192139, Note_on_c, 0, 45, 43
1, 192141, Control_c, 0, 67, 77
1, 192146, Note_off_c, 0, 67, 51
1, 192155, Note_off_c, 0, 46, 36
1, 192156, Control_c, 0, 67, 92
1, 192171, Control_c, 0, 67, 109
1, 192186, Control_c, 0, 67, 120
1, 192201, Control_c, 0, 67, 127
1, 192358, Control_c, 0, 64, 31
1, 192373, Control_c, 0, 64, 50
1, 192388, Control_c, 0, 64, 62
1, 192402, Control_c, 0, 64, 68
1, 192417, Control_c, 0, 64, 74
1, 192432, Control_c, 0, 64, 80
1, 192439, Note_off_c, 0, 45, 47
1, 192440, Note_off_c, 0, 69, 47
1, 192442, Note_off_c, 0, 52, 54
1, 192446, Control_c, 0, 64, 88
1, 192457, Note_off_c, 0, 61, 60
1, 192461, Control_c, 0, 64, 100
1, 192476, Control_c, 0, 64, 118
1, 192491, Control_c, 0, 64, 127
1, 192609, Control_c, 0, 67, 123
1, 192624, Control_c, 0, 67, 58
1, 192639, Control_c, 0, 64, 109
1, 192639, Control_c, 0, 67, 0
1, 192654, Control_c, 0, 64, 56
1, 192654, Note_on_c, 0, 67, 82
1, 192657, Note_on_c, 0, 58, 82
1, 192660, Note_on_c, 0, 46, 64
1, 192660, Note_on_c, 0, 51, 68
1, 192669, Control_c, 0, 64, 0
1, 192681, Note_off_c, 0, 58, 69
1, 192693, Note_off_c, 0, 51, 62
1, 192694, Note_off_c, 0, 46, 62
1, 192743, Note_on_c, 0, 69, 80
1, 192747, Note_off_c, 0, 67, 57
1, 192749, Note_on_c, 0, 61, 72
1, 192749, Note_on_c, 0, 52, 69
1, 192760, Note_on_c, 0, 45, 59
1, 192777, Note_off_c, 0, 61, 65
1, 192779, Note_off_c, 0, 52, 64
1, 192797, Note_off_c, 0, 45, 61
1, 192827, Note_off_c, 0, 69, 49
1, 192836, Note_on_c, 0, 58, 57
1, 192844, Note_on_c, 0, 67, 75
1, 192851, Note_on_c, 0, 51, 66
1, 192854, Note_on_c, 0, 46, 59
1, 192876, Note_off_c, 0, 58, 66
1, 192883, Note_off_c, 0, 51, 64
1, 192885, Note_off_c, 0, 46, 62
1, 192925, Note_on_c, 0, 61, 78
1, 192932, Note_on_c, 0, 69, 80
1, 192934, Note_off_c, 0, 67, 57
1, 192945, Note_on_c, 0, 45, 75
1, 192945, Note_on_c, 0, 52, 81
1, 192946, Note_off_c, 0, 61, 70
1, 192949, Control_c, 0, 64, 63
1, 192951, Note_off_c, 0, 69, 73
1, 192964, Control_c, 0, 64, 127
1, 192970, Note_off_c, 0, 52, 65
1, 192983, Note_off_c, 0, 45, 63
1, 193119, Control_c, 0, 64, 75
1, 193135, Control_c, 0, 64, 37
1, 193150, Control_c, 0, 64, 0
1, 193159, Note_on_c, 0, 75, 91
1, 193164, Note_on_c, 0, 67, 88
1, 193167, Note_on_c, 0, 51, 78
1, 193171, Note_on_c, 0, 46, 75
1, 193180, Control_c, 0, 64, 32
1, 193191, Note_off_c, 0, 67, 65
1, 193192, Note_off_c, 0, 51, 69
1, 193194, Control_c, 0, 64, 62
1, 193202, Note_off_c, 0, 46, 67
1, 193209, Control_c, 0, 64, 77
1, 193217, Note_off_c, 0, 75, 62
1, 193224, Control_c, 0, 64, 111
1, 193239, Control_c, 0, 64, 127
1, 193328, Control_c, 0, 64, 74
1, 193342, Control_c, 0, 64, 48
1, 193357, Control_c, 0, 64, 0
1, 193368, Note_on_c, 0, 73, 87
1, 193372, Control_c, 0, 64, 39
1, 193376, Note_on_c, 0, 52, 78
1, 193376, Note_on_c, 0, 64, 73
1, 193381, Note_on_c, 0, 45, 69
1, 193387, Control_c, 0, 64, 64
1, 193399, Note_off_c, 0, 64, 69
1, 193399, Note_off_c, 0, 52, 68
1, 193402, Control_c, 0, 64, 82
1, 193405, Note_off_c, 0, 73, 61
1, 193410, Note_off_c, 0, 45, 64
1, 193417, Control_c, 0, 64, 127
1, 193521, Control_c, 0, 64, 117
1, 193535, Control_c, 0, 64, 77
1, 193550, Control_c, 0, 64, 53
1, 193565, Control_c, 0, 64, 0
1, 193569, Note_on_c, 0, 72, 81
1, 193576, Note_on_c, 0, 51, 74
1, 193576, Note_on_c, 0, 63, 77
1, 193582, Note_on_c, 0, 46, 59
1, 193599, Note_off_c, 0, 63, 69
1, 193607, Note_off_c, 0, 51, 64
1, 193610, Note_off_c, 0, 46, 64
1, 193611, Note_off_c, 0, 72, 63
1, 193657, Note_on_c, 0, 69, 80
1, 193672, Note_on_c, 0, 61, 74
1, 193673, Note_on_c, 0, 52, 77
1, 193677, Note_on_c, 0, 45, 71
1, 193683, Control_c, 0, 64, 63
1, 193690, Note_off_c, 0, 69, 64
1, 193696, Note_off_c, 0, 61, 67
1, 193697, Note_off_c, 0, 52, 65
1, 193698, Control_c, 0, 64, 79
1, 193703, Note_off_c, 0, 45, 65
1, 193712, Control_c, 0, 64, 94
1, 193727, Control_c, 0, 64, 107
1, 193742, Control_c, 0, 64, 127
1, 193868, Control_c, 0, 64, 72
1, 193874, Note_on_c, 0, 67, 85
1, 193879, Note_on_c, 0, 58, 83
1, 193882, Note_on_c, 0, 51, 81
1, 193883, Control_c, 0, 64, 0
1, 193892, Note_on_c, 0, 46, 64
1, 193903, Note_off_c, 0, 58, 70
1, 193909, Note_off_c, 0, 51, 67
1, 193913, Note_off_c, 0, 67, 60
1, 193917, Note_off_c, 0, 46, 61
1, 193969, Note_on_c, 0, 69, 79
1, 193977, Note_on_c, 0, 61, 74
1, 193985, Note_on_c, 0, 52, 67
1, 194001, Note_off_c, 0, 61, 68
1, 194002, Note_off_c, 0, 69, 56
1, 194008, Note_on_c, 0, 45, 39
1, 194012, Note_off_c, 0, 52, 65
1, 194043, Note_off_c, 0, 45, 43
1, 194064, Note_on_c, 0, 67, 76
1, 194067, Note_on_c, 0, 58, 79
1, 194085, Note_on_c, 0, 46, 65
1, 194085, Note_on_c, 0, 51, 67
1, 194091, Note_off_c, 0, 58, 67
1, 194102, Note_off_c, 0, 67, 64
1, 194112, Note_off_c, 0, 51, 64
1, 194115, Note_off_c, 0, 46, 63
1, 194162, Note_on_c, 0, 61, 73
1, 194166, Note_on_c, 0, 69, 82
1, 194178, Note_on_c, 0, 52, 83
1, 194184, Note_on_c, 0, 45, 72
1, 194184, Note_off_c, 0, 61, 68
1, 194186, Note_off_c, 0, 69, 71
1, 194195, Control_c, 0, 64, 70
1, 194201, Note_off_c, 0, 52, 68
1, 194210, Control_c, 0, 64, 127
1, 194210, Note_off_c, 0, 45, 65
1, 194329, Control_c, 0, 64, 82
1, 194343, Control_c, 0, 64, 55
1, 194357, Control_c, 0, 64, 0
1, 194365, Note_on_c, 0, 75, 86
1, 194368, Note_on_c, 0, 67, 81
1, 194371, Note_on_c, 0, 51, 80
1, 194372, Control_c, 0, 64, 30
1, 194387, Control_c, 0, 64, 59
1, 194388, Note_off_c, 0, 67, 72
1, 194392, Note_on_c, 0, 46, 52
1, 194400, Note_off_c, 0, 51, 68
1, 194402, Control_c, 0, 64, 75
1, 194409, Note_off_c, 0, 75, 60
1, 194416, Control_c, 0, 64, 102
1, 194420, Note_off_c, 0, 46, 55
1, 194431, Control_c, 0, 64, 127
1, 194520, Control_c, 0, 64, 80
1, 194535, Control_c, 0, 64, 54
1, 194550, Control_c, 0, 64, 0
1, 194570, Note_on_c, 0, 73, 81
1, 194575, Note_on_c, 0, 64, 79
1, 194577, Note_on_c, 0, 52, 74
1, 194583, Note_on_c, 0, 45, 63
1, 194587, Control_c, 0, 64, 46
1, 194597, Note_off_c, 0, 73, 64
1, 194598, Note_off_c, 0, 64, 68
1, 194601, Note_off_c, 0, 52, 66
1, 194602, Control_c, 0, 64, 66
1, 194612, Note_off_c, 0, 45, 64
1, 194616, Control_c, 0, 64, 76
1, 194631, Control_c, 0, 64, 91
1, 194646, Control_c, 0, 64, 111
1, 194661, Control_c, 0, 64, 127
1, 194759, Note_on_c, 0, 72, 74
1, 194766, Control_c, 0, 64, 77
1, 194772, Note_on_c, 0, 63, 66
1, 194774, Note_on_c, 0, 51, 68
1, 194776, Note_on_c, 0, 46, 63
1, 194780, Control_c, 0, 64, 47
1, 194795, Control_c, 0, 64, 0
1, 194800, Note_off_c, 0, 63, 67
1, 194801, Note_off_c, 0, 72, 48
1, 194803, Note_off_c, 0, 51, 64
1, 194809, Note_off_c, 0, 46, 64
1, 194853, Note_on_c, 0, 69, 70
1, 194864, Note_on_c, 0, 61, 65
1, 194876, Note_off_c, 0, 69, 70
1, 194878, Note_on_c, 0, 52, 74
1, 194880, Note_on_c, 0, 45, 68
1, 194885, Note_off_c, 0, 61, 65
1, 194904, Note_off_c, 0, 52, 66
1, 194908, Note_off_c, 0, 45, 64
1, 194955, Note_on_c, 0, 75, 99
1, 194958, Control_c, 0, 64, 35
1, 194958, Note_on_c, 0, 51, 97
1, 194963, Note_on_c, 0, 67, 84
1, 194964, Note_on_c, 0, 46, 81
1, 194973, Control_c, 0, 64, 127
1, 194983, Note_off_c, 0, 67, 73
1, 194994, Note_off_c, 0, 75, 61
1, 195001, Note_off_c, 0, 51, 65
1, 195009, Note_off_c, 0, 46, 60
1, 195137, Control_c, 0, 64, 77
1, 195152, Control_c, 0, 64, 43
1, 195161, Note_on_c, 0, 73, 86
1, 195166, Control_c, 0, 64, 0
1, 195169, Note_on_c, 0, 64, 77
1, 195172, Note_on_c, 0, 52, 80
1, 195176, Note_on_c, 0, 45, 73
1, 195194, Note_off_c, 0, 64, 71
1, 195206, Note_off_c, 0, 73, 63
1, 195211, Control_c, 0, 64, 61
1, 195225, Note_off_c, 0, 52, 61
1, 195226, Control_c, 0, 64, 75
1, 195240, Control_c, 0, 64, 112
1, 195253, Note_off_c, 0, 45, 56
1, 195255, Control_c, 0, 64, 127
1, 195378, Note_on_c, 0, 72, 77
1, 195381, Note_on_c, 0, 63, 65
1, 195388, Note_on_c, 0, 51, 50
1, 195404, Note_on_c, 0, 46, 53
1, 195411, Note_on_c, 0, 52, 51
1, 195420, Note_off_c, 0, 51, 63
1, 195422, Note_off_c, 0, 63, 62
1, 195426, Control_c, 0, 64, 100
1, 195435, Note_off_c, 0, 46, 63
1, 195435, Note_off_c, 0, 52, 61
1, 195440, Control_c, 0, 64, 69
1, 195441, Note_off_c, 0, 72, 62
1, 195455, Control_c, 0, 64, 37
1, 195465, Note_on_c, 0, 69, 61
1, 195467, Note_on_c, 0, 61, 68
1, 195470, Control_c, 0, 64, 0
1, 195489, Note_off_c, 0, 69, 64
1, 195493, Note_off_c, 0, 61, 66
1, 195592, Note_on_c, 0, 39, 75
1, 195593, Note_on_c, 0, 55, 87
1, 195596, Note_on_c, 0, 63, 88
1, 195597, Note_on_c, 0, 34, 72
1, 195614, Note_off_c, 0, 55, 71
1, 195618, Note_off_c, 0, 63, 69
1, 195619, Control_c, 0, 64, 71
1, 195620, Note_off_c, 0, 39, 63
1, 195623, Note_off_c, 0, 34, 59
1, 195634, Control_c, 0, 64, 127
1, 195724, Poly_aftertouch_c, 0, 40, 0
1, 195807, Note_on_c, 0, 57, 68
1, 195814, Note_on_c, 0, 33, 68
1, 195816, Note_on_c, 0, 40, 65
1, 195820, Note_on_c, 0, 49, 70
1, 195826, Control_c, 0, 64, 79
1, 195841, Control_c, 0, 64, 56
1, 195855, Control_c, 0, 64, 0
1, 195962, Note_off_c, 0, 49, 55
1, 195989, Note_off_c, 0, 33, 60
1, 195999, Note_on_c, 0, 63, 71
1, 196003, Note_off_c, 0, 40, 61
1, 196004, Note_off_c, 0, 57, 61
1, 196008, Note_on_c, 0, 39, 54
1, 196012, Note_on_c, 0, 34, 57
1, 196014, Note_on_c, 0, 55, 57
1, 196035, Note_off_c, 0, 63, 62
1, 196044, Note_off_c, 0, 55, 64
1, 196047, Note_off_c, 0, 34, 63
1, 196048, Note_off_c, 0, 39, 64
1, 196120, Note_on_c, 0, 57, 74
1, 196121, Note_on_c, 0, 49, 69
1, 196124, Note_on_c, 0, 40, 66
1, 196126, Note_on_c, 0, 33, 58
1, 196145, Note_off_c, 0, 49, 67
1, 196151, Note_off_c, 0, 57, 68
1, 196155, Note_off_c, 0, 40, 63
1, 196159, Note_off_c, 0, 33, 62
1, 196211, Note_on_c, 0, 63, 77
1, 196213, Note_on_c, 0, 39, 70
1, 196216, Note_on_c, 0, 55, 66
1, 196222, Note_on_c, 0, 34, 54
1, 196251, Note_off_c, 0, 39, 66
1, 196252, Note_off_c, 0, 63, 62
1, 196252, Note_off_c, 0, 55, 64
1, 196255, Note_off_c, 0, 34, 62
1, 196300, Note_on_c, 0, 57, 79
1, 196302, Note_on_c, 0, 49, 76
1, 196305, Note_on_c, 0, 40, 81
1, 196310, Note_on_c, 0, 33, 71
1, 196332, Note_off_c, 0, 49, 68
1, 196339, Note_off_c, 0, 40, 66
1, 196354, Note_off_c, 0, 57, 65
1, 196361, Note_off_c, 0, 33, 60
1, 196389, Note_on_c, 0, 55, 93
1, 196393, Note_on_c, 0, 39, 102
1, 196397, Note_on_c, 0, 63, 94
1, 196404, Note_on_c, 0, 34, 82
1, 196427, Control_c, 0, 64, 45
1, 196442, Control_c, 0, 64, 102
1, 196457, Control_c, 0, 64, 127
1, 196463, Note_off_c, 0, 63, 66
1, 196564, Note_off_c, 0, 55, 57
1, 196574, Note_off_c, 0, 39, 52
1, 196579, Note_off_c, 0, 34, 58
1, 196607, Note_on_c, 0, 57, 73
1, 196609, Note_on_c, 0, 33, 73
1, 196609, Note_on_c, 0, 40, 72
1, 196609, Note_on_c, 0, 49, 84
1, 196634, Control_c, 0, 64, 92
1, 196649, Control_c, 0, 64, 67
1, 196664, Control_c, 0, 64, 39
1, 196678, Control_c, 0, 64, 0
1, 196716, Note_off_c, 0, 49, 60
1, 196723, Control_c, 0, 64, 47
1, 196738, Control_c, 0, 64, 68
1, 196753, Control_c, 0, 64, 91
1, 196766, Note_off_c, 0, 33, 56
1, 196768, Control_c, 0, 64, 127
1, 196794, Note_on_c, 0, 34, 71
1, 196794, Note_on_c, 0, 39, 68
1, 196808, Note_off_c, 0, 40, 56
1, 196815, Note_on_c, 0, 55, 69
1, 196816, Note_on_c, 0, 63, 75
1, 196828, Note_off_c, 0, 57, 59
1, 196843, Note_off_c, 0, 34, 64
1, 196845, Note_off_c, 0, 39, 64
1, 196854, Note_off_c, 0, 55, 62
1, 196864, Control_c, 0, 64, 104
1, 196878, Note_off_c, 0, 63, 62
1, 196879, Control_c, 0, 64, 67
1, 196893, Control_c, 0, 64, 0
1, 196909, Note_on_c, 0, 49, 80
1, 196914, Note_on_c, 0, 33, 66
1, 196915, Note_on_c, 0, 40, 71
1, 196915, Note_on_c, 0, 57, 68
1, 196932, Note_off_c, 0, 49, 70
1, 196946, Note_off_c, 0, 40, 61
1, 196966, Note_off_c, 0, 57, 52
1, 196993, Note_on_c, 0, 39, 80
1, 196994, Note_off_c, 0, 33, 56
1, 196996, Note_on_c, 0, 55, 81
1, 197002, Note_on_c, 0, 34, 70
1, 197002, Note_on_c, 0, 63, 79
1, 197047, Note_off_c, 0, 34, 62
1, 197052, Note_off_c, 0, 55, 62
1, 197063, Note_off_c, 0, 39, 63
1, 197073, Note_off_c, 0, 63, 62
1, 197082, Note_on_c, 0, 57, 81
1, 197084, Note_on_c, 0, 40, 95
1, 197086, Note_on_c, 0, 49, 92
1, 197095, Note_on_c, 0, 33, 83
1, 197101, Control_c, 0, 64, 59
1, 197107, Note_off_c, 0, 49, 70
1, 197115, Note_off_c, 0, 40, 63
1, 197116, Control_c, 0, 64, 127
1, 197117, Note_off_c, 0, 57, 63
1, 197118, Note_off_c, 0, 33, 65
1, 197276, Note_on_c, 0, 75, 88
1, 197280, Note_on_c, 0, 67, 59
1, 197282, Note_on_c, 0, 69, 64
1, 197289, Note_on_c, 0, 51, 76
1, 197289, Note_on_c, 0, 52, 89
1, 197292, Note_on_c, 0, 45, 78
1, 197299, Note_on_c, 0, 61, 93
1, 197300, Note_on_c, 0, 46, 56
1, 197313, Note_off_c, 0, 67, 68
1, 197316, Note_off_c, 0, 75, 64
1, 197318, Note_off_c, 0, 45, 64
1, 197319, Note_off_c, 0, 51, 65
1, 197319, Note_off_c, 0, 61, 70
1, 197321, Note_off_c, 0, 69, 62
1, 197325, Note_off_c, 0, 52, 63
1, 197331, Note_off_c, 0, 46, 63
1, 197393, Poly_aftertouch_c, 0, 70, 0
1, 197483, Note_on_c, 0, 87, 86
1, 197483, Note_on_c, 0, 58, 29
1, 197489, Note_on_c, 0, 81, 59
1, 197492, Note_on_c, 0, 79, 49
1, 197503, Note_on_c, 0, 73, 104
1, 197504, Note_on_c, 0, 64, 78
1, 197514, Note_on_c, 0, 85, 59
1, 197519, Note_off_c, 0, 87, 70
1, 197523, Note_off_c, 0, 58, 61
1, 197526, Note_off_c, 0, 79, 68
1, 197527, Note_on_c, 0, 84, 40
1, 197528, Note_off_c, 0, 64, 69
1, 197532, Note_off_c, 0, 85, 62
1, 197533, Note_off_c, 0, 73, 67
1, 197533, Note_off_c, 0, 81, 62
1, 197563, Note_off_c, 0, 84, 57
1, 197730, Note_on_c, 0, 99, 95
1, 197739, Note_on_c, 0, 91, 81
1, 197745, Note_on_c, 0, 76, 92
1, 197747, Note_on_c, 0, 93, 67
1, 197752, Note_on_c, 0, 85, 105
1, 197761, Note_on_c, 0, 69, 60
1, 197768, Note_off_c, 0, 99, 66
1, 197771, Note_on_c, 0, 71, 75
1, 197775, Note_off_c, 0, 93, 67
1, 197778, Note_off_c, 0, 91, 69
1, 197779, Note_off_c, 0, 76, 67
1, 197784, Note_off_c, 0, 69, 63
1, 197787, Note_off_c, 0, 85, 68
1, 197792, Note_off_c, 0, 71, 70
1, 197976, Poly_aftertouch_c, 0, 58, 127
1, 197999, Note_on_c, 0, 57, 106
1, 198014, Control_c, 0, 64, 68
1, 198021, Poly_aftertouch_c, 0, 58, 0
1, 198028, Control_c, 0, 64, 0
1, 198147, Control_c, 0, 64, 37
1, 198148, Note_on_c, 0, 58, 70
1, 198162, Control_c, 0, 64, 100
1, 198172, Note_off_c, 0, 57, 63
1, 198176, Control_c, 0, 64, 127
1, 198207, Note_on_c, 0, 63, 88
1, 198246, Note_off_c, 0, 58, 64
1, 198251, Note_off_c, 0, 63, 67
1, 198259, Note_on_c, 0, 64, 87
1, 198279, Note_off_c, 0, 64, 73
1, 198288, Note_on_c, 0, 69, 79
1, 198334, Note_on_c, 0, 70, 81
1, 198357, Note_off_c, 0, 69, 61
1, 198369, Note_on_c, 0, 75, 80
1, 198404, Note_off_c, 0, 70, 62
1, 198413, Note_on_c, 0, 76, 81
1, 198441, Note_off_c, 0, 75, 66
1, 198462, Poly_aftertouch_c, 0, 73, 0
1, 198464, Note_on_c, 0, 81, 108
1, 198467, Note_off_c, 0, 76, 68
1, 198482, Note_off_c, 0, 81, 67
1, 198626, Note_on_c, 0, 81, 100
1, 198744, Note_on_c, 0, 82, 103
1, 198769, Note_off_c, 0, 81, 66
1, 198800, Note_on_c, 0, 83, 12
1, 198843, Note_off_c, 0, 83, 63
1, 198845, Note_off_c, 0, 82, 61
1, 198890, Note_on_c, 0, 88, 93
1, 198894, Note_on_c, 0, 69, 94
1, 198896, Control_c, 0, 64, 108
1, 198911, Control_c, 0, 64, 60
1, 198925, Control_c, 0, 64, 0
1, 198956, Note_off_c, 0, 69, 63
1, 198970, Control_c, 0, 64, 55
1, 198985, Control_c, 0, 64, 74
1, 198999, Control_c, 0, 64, 127
1, 199033, Note_on_c, 0, 69, 95
1, 199042, Note_off_c, 0, 88, 61
1, 199219, Note_on_c, 0, 70, 87
1, 199224, Note_on_c, 0, 86, 108
1, 199248, Note_off_c, 0, 69, 54
1, 199507, Note_on_c, 0, 89, 97
1, 199522, Note_on_c, 0, 74, 81
1, 199541, Control_c, 0, 64, 82
1, 199545, Note_off_c, 0, 86, 64
1, 199555, Control_c, 0, 64, 60
1, 199556, Note_off_c, 0, 70, 61
1, 199570, Control_c, 0, 64, 0
1, 199644, Control_c, 0, 64, 42
1, 199659, Control_c, 0, 64, 58
1, 199674, Control_c, 0, 64, 68
1, 199689, Control_c, 0, 64, 78
1, 199704, Control_c, 0, 64, 91
1, 199719, Control_c, 0, 64, 105
1, 199734, Control_c, 0, 64, 127
1, 199781, Note_on_c, 0, 88, 99
1, 199808, Note_on_c, 0, 72, 62
1, 199837, Note_off_c, 0, 89, 54
1, 199855, Note_off_c, 0, 74, 52
1, 200003, Note_on_c, 0, 86, 95
1, 200029, Note_on_c, 0, 71, 56
1, 200039, Note_off_c, 0, 72, 53
1, 200056, Note_off_c, 0, 88, 58
1, 200126, Control_c, 0, 67, 35
1, 200141, Control_c, 0, 67, 62
1, 200155, Control_c, 0, 67, 88
1, 200170, Control_c, 0, 67, 116
1, 200185, Control_c, 0, 67, 127
1, 200288, Control_c, 0, 64, 109
1, 200303, Control_c, 0, 64, 95
1, 200318, Control_c, 0, 64, 85
1, 200334, Control_c, 0, 64, 75
1, 200349, Control_c, 0, 64, 65
1, 200359, Note_on_c, 0, 69, 35
1, 200364, Control_c, 0, 64, 56
1, 200378, Control_c, 0, 64, 46
1, 200391, Note_off_c, 0, 71, 33
1, 200393, Control_c, 0, 64, 36
1, 200408, Control_c, 0, 64, 0
1, 200441, Note_off_c, 0, 86, 56
1, 200452, Note_on_c, 0, 93, 69
1, 200564, Control_c, 0, 64, 50
1, 200578, Control_c, 0, 64, 66
1, 200593, Control_c, 0, 64, 77
1, 200608, Control_c, 0, 64, 96
1, 200623, Control_c, 0, 64, 127
1, 200640, Note_off_c, 0, 93, 56
1, 200650, Note_off_c, 0, 69, 62
1, 200783, Note_on_c, 0, 93, 62
1, 200905, Note_off_c, 0, 93, 48
1, 200997, Note_on_c, 0, 91, 61
1, 201027, Note_off_c, 0, 91, 69
1, 201102, Note_on_c, 0, 52, 31
1, 201151, Note_on_c, 0, 54, 34
1, 201195, Note_on_c, 0, 57, 27
1, 201239, Note_on_c, 0, 61, 41
1, 201263, Note_on_c, 0, 88, 59
1, 201285, Note_on_c, 0, 81, 45
1, 201320, Note_off_c, 0, 81, 64
1, 201325, Note_off_c, 0, 61, 62
1, 201325, Note_off_c, 0, 52, 51
1, 201328, Note_off_c, 0, 54, 61
1, 201328, Note_off_c, 0, 57, 54
1, 201337, Note_off_c, 0, 88, 61
1, 201510, Note_on_c, 0, 88, 58
1, 201527, Note_on_c, 0, 81, 49
1, 201553, Note_off_c, 0, 81, 65
1, 201679, Note_off_c, 0, 88, 24
1, 201695, Note_on_c, 0, 87, 62
1, 201706, Note_on_c, 0, 79, 49
1, 201736, Note_off_c, 0, 79, 61
1, 201746, Note_off_c, 0, 87, 57
1, 201865, Note_on_c, 0, 85, 67
1, 201875, Note_on_c, 0, 69, 52
1, 201880, Note_on_c, 0, 76, 54
1, 201898, Note_off_c, 0, 85, 59
1, 201901, Note_off_c, 0, 76, 62
1, 201908, Note_off_c, 0, 69, 63
1, 202066, Note_on_c, 0, 85, 63
1, 202083, Note_on_c, 0, 76, 47
1, 202088, Note_on_c, 0, 69, 58
1, 202092, Note_off_c, 0, 85, 68
1, 202105, Note_off_c, 0, 76, 58
1, 202114, Note_off_c, 0, 69, 67
1, 202206, Note_on_c, 0, 84, 69
1, 202234, Note_on_c, 0, 67, 51
1, 202243, Note_on_c, 0, 75, 45
1, 202258, Note_off_c, 0, 84, 57
1, 202267, Note_off_c, 0, 75, 54
1, 202277, Note_off_c, 0, 67, 60
1, 202342, Note_on_c, 0, 73, 75
1, 202347, Note_on_c, 0, 81, 69
1, 202349, Note_on_c, 0, 57, 60
1, 202366, Note_on_c, 0, 64, 57
1, 202372, Note_off_c, 0, 73, 61
1, 202378, Note_off_c, 0, 57, 66
1, 202378, Note_off_c, 0, 81, 61
1, 202393, Note_off_c, 0, 64, 65
1, 202472, Note_on_c, 0, 57, 52
1, 202474, Note_on_c, 0, 81, 68
1, 202475, Note_on_c, 0, 64, 52
1, 202477, Note_on_c, 0, 73, 65
1, 202497, Note_off_c, 0, 64, 62
1, 202497, Note_off_c, 0, 81, 70
1, 202504, Note_off_c, 0, 73, 67
1, 202519, Note_off_c, 0, 57, 62
1, 202600, Note_on_c, 0, 79, 72
1, 202604, Note_on_c, 0, 63, 74
1, 202617, Note_on_c, 0, 55, 58
1, 202617, Note_on_c, 0, 70, 63
1, 202629, Note_off_c, 0, 63, 67
1, 202644, Note_off_c, 0, 70, 68
1, 202655, Note_off_c, 0, 79, 60
1, 202655, Note_off_c, 0, 55, 60
1, 202727, Note_on_c, 0, 76, 75
1, 202729, Note_on_c, 0, 69, 72
1, 202735, Note_on_c, 0, 61, 69
1, 202759, Note_off_c, 0, 69, 63
1, 202762, Note_off_c, 0, 76, 56
1, 202763, Note_off_c, 0, 61, 66
1, 202773, Note_on_c, 0, 52, 26
1, 202800, Poly_aftertouch_c, 0, 55, 127
1, 202837, Poly_aftertouch_c, 0, 55, 0
1, 202843, Note_off_c, 0, 52, 0
1, 202857, Note_on_c, 0, 52, 48
1, 202861, Note_on_c, 0, 76, 72
1, 202863, Note_on_c, 0, 69, 70
1, 202872, Note_on_c, 0, 61, 39
1, 202882, Note_off_c, 0, 76, 71
1, 202888, Note_off_c, 0, 69, 68
1, 202894, Note_off_c, 0, 61, 60
1, 202903, Note_off_c, 0, 52, 63
1, 202973, Control_c, 0, 64, 96
1, 202975, Note_on_c, 0, 75, 77
1, 202988, Control_c, 0, 64, 70
1, 202991, Note_on_c, 0, 67, 65
1, 203003, Note_on_c, 0, 60, 56
1, 203003, Control_c, 0, 64, 59
1, 203009, Note_on_c, 0, 51, 50
1, 203018, Control_c, 0, 64, 62
1, 203033, Control_c, 0, 64, 67
1, 203033, Note_off_c, 0, 60, 52
1, 203047, Control_c, 0, 64, 75
1, 203062, Control_c, 0, 64, 87
1, 203064, Note_off_c, 0, 67, 57
1, 203077, Control_c, 0, 64, 100
1, 203092, Control_c, 0, 64, 127
1, 203096, Note_off_c, 0, 75, 56
1, 203105, Note_off_c, 0, 51, 36
1, 203107, Note_on_c, 0, 73, 67
1, 203114, Note_on_c, 0, 64, 63
1, 203116, Note_on_c, 0, 49, 59
1, 203118, Note_on_c, 0, 57, 64
1, 203149, Note_off_c, 0, 49, 63
1, 203149, Note_off_c, 0, 64, 62
1, 203154, Note_off_c, 0, 57, 63
1, 203156, Note_off_c, 0, 73, 55
1, 203232, Note_on_c, 0, 49, 58
1, 203240, Note_on_c, 0, 73, 67
1, 203242, Note_on_c, 0, 64, 62
1, 203266, Note_off_c, 0, 73, 66
1, 203268, Note_off_c, 0, 64, 69
1, 203274, Note_on_c, 0, 57, 3
1, 203294, Note_off_c, 0, 49, 62
1, 203307, Note_off_c, 0, 57, 38
1, 203384, Note_on_c, 0, 72, 66
1, 203401, Note_on_c, 0, 55, 55
1, 203403, Control_c, 0, 64, 89
1, 203407, Note_on_c, 0, 63, 45
1, 203418, Control_c, 0, 64, 71
1, 203424, Note_on_c, 0, 46, 47
1, 203433, Control_c, 0, 64, 57
1, 203447, Control_c, 0, 64, 40
1, 203462, Control_c, 0, 64, 0
1, 203472, Note_off_c, 0, 63, 0
1, 203472, Note_on_c, 0, 63, 11
1, 203603, Note_off_c, 0, 63, 48
1, 203616, Note_off_c, 0, 72, 51
1, 203625, Note_off_c, 0, 55, 48
1, 203630, Note_off_c, 0, 46, 37
1, 203635, Note_on_c, 0, 61, 41
1, 203643, Note_on_c, 0, 69, 46
1, 203653, Note_on_c, 0, 45, 36
1, 203662, Note_on_c, 0, 52, 33
1, 203826, Control_c, 0, 64, 41
1, 203841, Control_c, 0, 64, 56
1, 203856, Control_c, 0, 64, 64
1, 203870, Control_c, 0, 64, 69
1, 203885, Control_c, 0, 64, 74
1, 203891, Note_off_c, 0, 45, 54
1, 203896, Note_off_c, 0, 52, 54
1, 203898, Note_off_c, 0, 69, 51
1, 203899, Note_off_c, 0, 61, 59
1, 203900, Control_c, 0, 64, 80
1, 203915, Control_c, 0, 64, 90
1, 203929, Control_c, 0, 64, 99
1, 203944, Control_c, 0, 64, 111
1, 203959, Control_c, 0, 64, 127
1, 204181, Control_c, 0, 64, 77
1, 204196, Control_c, 0, 64, 35
1, 204196, Note_on_c, 0, 58, 67
1, 204200, Note_on_c, 0, 51, 52
1, 204201, Note_on_c, 0, 67, 59
1, 204202, Note_on_c, 0, 46, 50
1, 204211, Control_c, 0, 64, 0
1, 204224, Note_off_c, 0, 58, 64
1, 204228, Note_off_c, 0, 46, 59
1, 204232, Note_off_c, 0, 51, 63
1, 204235, Note_off_c, 0, 67, 63
1, 204297, Note_on_c, 0, 69, 69
1, 204300, Note_on_c, 0, 52, 60
1, 204306, Note_on_c, 0, 61, 57
1, 204313, Note_on_c, 0, 45, 46
1, 204325, Note_off_c, 0, 69, 65
1, 204331, Note_off_c, 0, 52, 64
1, 204336, Note_off_c, 0, 61, 66
1, 204346, Note_off_c, 0, 45, 48
1, 204397, Note_on_c, 0, 58, 60
1, 204402, Note_on_c, 0, 67, 57
1, 204411, Note_on_c, 0, 46, 33
1, 204419, Note_on_c, 0, 51, 36
1, 204429, Note_off_c, 0, 58, 64
1, 204442, Note_off_c, 0, 46, 54
1, 204454, Note_off_c, 0, 51, 49
1, 204468, Note_off_c, 0, 67, 39
1, 204486, Control_c, 0, 64, 59
1, 204488, Note_on_c, 0, 61, 64
1, 204490, Note_on_c, 0, 69, 75
1, 204494, Note_on_c, 0, 45, 58
1, 204497, Note_on_c, 0, 52, 48
1, 204500, Control_c, 0, 64, 77
1, 204508, Note_off_c, 0, 61, 65
1, 204511, Note_off_c, 0, 69, 71
1, 204515, Control_c, 0, 64, 127
1, 204524, Note_off_c, 0, 45, 64
1, 204527, Note_off_c, 0, 52, 63
1, 204649, Control_c, 0, 64, 74
1, 204664, Control_c, 0, 64, 43
1, 204678, Control_c, 0, 64, 0
1, 204691, Note_on_c, 0, 75, 79
1, 204692, Note_on_c, 0, 51, 64
1, 204693, Control_c, 0, 64, 38
1, 204700, Note_on_c, 0, 67, 65
1, 204708, Control_c, 0, 64, 59
1, 204709, Note_on_c, 0, 46, 43
1, 204719, Note_off_c, 0, 51, 65
1, 204723, Control_c, 0, 64, 75
1, 204728, Note_off_c, 0, 67, 65
1, 204738, Control_c, 0, 64, 112
1, 204739, Note_off_c, 0, 46, 54
1, 204742, Note_off_c, 0, 75, 59
1, 204752, Control_c, 0, 64, 127
1, 204842, Control_c, 0, 64, 99
1, 204857, Control_c, 0, 64, 66
1, 204871, Control_c, 0, 64, 28
1, 204886, Control_c, 0, 64, 0
1, 204900, Note_on_c, 0, 73, 71
1, 204901, Control_c, 0, 64, 37
1, 204904, Note_on_c, 0, 52, 67
1, 204905, Note_on_c, 0, 45, 64
1, 204916, Note_on_c, 0, 64, 48
1, 204916, Control_c, 0, 64, 58
1, 204924, Note_off_c, 0, 73, 70
1, 204930, Note_off_c, 0, 52, 66
1, 204931, Control_c, 0, 64, 75
1, 204932, Note_off_c, 0, 45, 65
1, 204940, Note_off_c, 0, 64, 59
1, 204945, Control_c, 0, 64, 94
1, 204960, Control_c, 0, 64, 127
1, 205071, Control_c, 0, 64, 117
1, 205086, Control_c, 0, 64, 70
1, 205101, Control_c, 0, 64, 0
1, 205109, Note_on_c, 0, 72, 71
1, 205118, Note_on_c, 0, 51, 59
1, 205120, Note_on_c, 0, 63, 63
1, 205135, Note_off_c, 0, 72, 65
1, 205137, Note_on_c, 0, 46, 31
1, 205147, Note_off_c, 0, 51, 64
1, 205150, Note_off_c, 0, 63, 66
1, 205180, Note_off_c, 0, 46, 30
1, 205206, Note_on_c, 0, 69, 72
1, 205206, Control_c, 0, 64, 60
1, 205217, Note_on_c, 0, 52, 57
1, 205218, Note_on_c, 0, 61, 54
1, 205219, Note_on_c, 0, 45, 62
1, 205221, Control_c, 0, 64, 78
1, 205221, Control_c, 0, 67, 115
1, 205228, Note_off_c, 0, 69, 69
1, 205236, Control_c, 0, 64, 101
1, 205236, Control_c, 0, 67, 63
1, 205239, Note_off_c, 0, 61, 62
1, 205240, Note_off_c, 0, 52, 63
1, 205243, Note_off_c, 0, 45, 61
1, 205250, Control_c, 0, 64, 127
1, 205250, Control_c, 0, 67, 0
1, 205398, Control_c, 0, 64, 86
1, 205413, Control_c, 0, 64, 50
1, 205418, Note_on_c, 0, 58, 73
1, 205418, Note_on_c, 0, 67, 69
1, 205425, Note_on_c, 0, 51, 63
1, 205428, Control_c, 0, 64, 0
1, 205433, Note_on_c, 0, 46, 47
1, 205441, Note_off_c, 0, 58, 67
1, 205448, Note_off_c, 0, 67, 64
1, 205449, Note_off_c, 0, 51, 65
1, 205463, Note_off_c, 0, 46, 56
1, 205508, Note_on_c, 0, 69, 70
1, 205513, Note_on_c, 0, 52, 68
1, 205517, Note_on_c, 0, 45, 62
1, 205527, Note_on_c, 0, 61, 56
1, 205537, Note_off_c, 0, 69, 63
1, 205540, Note_off_c, 0, 52, 65
1, 205548, Note_off_c, 0, 45, 64
1, 205550, Note_off_c, 0, 61, 61
1, 205604, Note_on_c, 0, 58, 65
1, 205604, Note_on_c, 0, 67, 73
1, 205625, Note_on_c, 0, 51, 55
1, 205634, Note_off_c, 0, 58, 65
1, 205638, Note_on_c, 0, 46, 38
1, 205651, Note_off_c, 0, 51, 61
1, 205652, Note_off_c, 0, 67, 59
1, 205680, Note_off_c, 0, 46, 47
1, 205702, Note_on_c, 0, 61, 52
1, 205704, Note_on_c, 0, 69, 72
1, 205707, Control_c, 0, 64, 49
1, 205712, Note_on_c, 0, 52, 65
1, 205714, Note_on_c, 0, 45, 66
1, 205722, Control_c, 0, 64, 80
1, 205725, Note_off_c, 0, 61, 61
1, 205725, Note_off_c, 0, 69, 70
1, 205737, Note_off_c, 0, 52, 66
1, 205737, Control_c, 0, 64, 127
1, 205740, Note_off_c, 0, 45, 65
1, 205863, Control_c, 0, 64, 91
1, 205878, Control_c, 0, 64, 62
1, 205892, Control_c, 0, 64, 0
1, 205905, Note_on_c, 0, 75, 80
1, 205908, Note_on_c, 0, 51, 75
1, 205916, Note_on_c, 0, 67, 61
1, 205923, Control_c, 0, 64, 51
1, 205926, Note_on_c, 0, 46, 58
1, 205936, Note_off_c, 0, 51, 65
1, 205938, Control_c, 0, 64, 66
1, 205940, Note_off_c, 0, 67, 65
1, 205941, Note_off_c, 0, 75, 59
1, 205953, Control_c, 0, 64, 82
1, 205958, Note_off_c, 0, 46, 63
1, 205968, Control_c, 0, 64, 118
1, 205983, Control_c, 0, 64, 127
1, 206042, Control_c, 0, 64, 112
1, 206057, Control_c, 0, 64, 67
1, 206071, Control_c, 0, 64, 31
1, 206086, Control_c, 0, 64, 0
1, 206101, Control_c, 0, 64, 31
1, 206104, Note_on_c, 0, 73, 73
1, 206107, Note_on_c, 0, 64, 72
1, 206115, Note_on_c, 0, 52, 67
1, 206116, Control_c, 0, 64, 56
1, 206116, Note_on_c, 0, 45, 65
1, 206127, Note_off_c, 0, 73, 69
1, 206130, Note_off_c, 0, 64, 68
1, 206131, Control_c, 0, 64, 71
1, 206141, Note_off_c, 0, 52, 66
1, 206143, Note_off_c, 0, 45, 65
1, 206145, Control_c, 0, 64, 88
1, 206160, Control_c, 0, 64, 127
1, 206304, Note_on_c, 0, 51, 68
1, 206310, Note_on_c, 0, 63, 71
1, 206310, Note_on_c, 0, 72, 65
1, 206311, Note_on_c, 0, 46, 55
1, 206332, Note_off_c, 0, 51, 64
1, 206343, Note_off_c, 0, 46, 63
1, 206359, Note_off_c, 0, 63, 60
1, 206367, Note_off_c, 0, 72, 54
1, 206408, Note_on_c, 0, 69, 75
1, 206409, Note_on_c, 0, 52, 77
1, 206417, Note_on_c, 0, 45, 66
1, 206417, Note_on_c, 0, 61, 70
1, 206429, Note_off_c, 0, 69, 70
1, 206435, Note_off_c, 0, 52, 65
1, 206444, Note_off_c, 0, 45, 65
1, 206444, Note_off_c, 0, 61, 66
1, 206506, Note_on_c, 0, 51, 86
1, 206509, Note_on_c, 0, 67, 83
1, 206514, Note_on_c, 0, 58, 85
1, 206516, Note_on_c, 0, 46, 70
1, 206545, Note_off_c, 0, 51, 63
1, 206545, Note_off_c, 0, 58, 68
1, 206551, Note_off_c, 0, 46, 64
1, 206560, Note_off_c, 0, 67, 60
1, 206597, Control_c, 0, 64, 77
1, 206610, Note_on_c, 0, 52, 90
1, 206610, Note_on_c, 0, 69, 85
1, 206612, Control_c, 0, 64, 44
1, 206616, Note_on_c, 0, 45, 79
1, 206625, Note_on_c, 0, 61, 70
1, 206627, Control_c, 0, 64, 0
1, 206655, Note_off_c, 0, 52, 61
1, 206661, Note_off_c, 0, 61, 66
1, 206663, Note_off_c, 0, 69, 61
1, 206665, Note_off_c, 0, 45, 60
1, 206686, Control_c, 0, 64, 55
1, 206701, Control_c, 0, 64, 77
1, 206702, Note_on_c, 0, 51, 95
1, 206705, Note_on_c, 0, 67, 89
1, 206706, Note_on_c, 0, 58, 96
1, 206715, Note_on_c, 0, 46, 72
1, 206717, Control_c, 0, 64, 127
1, 206746, Note_off_c, 0, 58, 62
1, 206755, Note_off_c, 0, 51, 61
1, 206790, Note_on_c, 0, 61, 83
1, 206791, Note_on_c, 0, 69, 89
1, 206802, Note_on_c, 0, 45, 79
1, 206802, Note_on_c, 0, 52, 80
1, 206802, Note_off_c, 0, 67, 61
1, 206810, Note_off_c, 0, 61, 72
1, 206822, Note_off_c, 0, 69, 69
1, 206850, Control_c, 0, 64, 110
1, 206851, Note_off_c, 0, 46, 24
1, 206858, Note_off_c, 0, 52, 57
1, 206865, Control_c, 0, 64, 66
1, 206877, Note_off_c, 0, 45, 60
1, 206880, Control_c, 0, 64, 0
1, 206898, Note_on_c, 0, 51, 89
1, 206904, Note_on_c, 0, 46, 71
1, 206906, Note_on_c, 0, 75, 103
1, 206909, Note_on_c, 0, 67, 93
1, 206909, Control_c, 0, 64, 57
1, 206919, Note_off_c, 0, 75, 78
1, 206923, Note_off_c, 0, 51, 68
1, 206923, Note_off_c, 0, 67, 76
1, 206924, Control_c, 0, 64, 127
1, 206937, Note_off_c, 0, 46, 66
1, 207176, Control_c, 0, 64, 67
1, 207191, Control_c, 0, 64, 0
1, 207354, Note_on_c, 0, 40, 107
1, 207356, Note_on_c, 0, 28, 97
1, 207376, Control_c, 0, 64, 127
1, 207398, Note_off_c, 0, 28, 64
1, 207403, Note_on_c, 0, 31, 29
1, 207412, Note_off_c, 0, 40, 66
1, 207450, Note_off_c, 0, 31, 40
1, 207627, Note_on_c, 0, 47, 79
1, 207678, Note_on_c, 0, 52, 77
1, 207696, Note_on_c, 0, 50, 42
1, 207716, Note_off_c, 0, 47, 59
1, 207733, Note_off_c, 0, 50, 61
1, 207739, Note_on_c, 0, 56, 85
1, 207764, Note_on_c, 0, 77, 100
1, 207766, Note_on_c, 0, 65, 103
1, 207770, Note_on_c, 0, 70, 93
1, 207772, Note_on_c, 0, 73, 95
1, 207777, Note_on_c, 0, 62, 94
1, 207799, Note_off_c, 0, 77, 71
1, 207800, Note_off_c, 0, 65, 72
1, 207809, Note_off_c, 0, 70, 70
1, 207816, Note_off_c, 0, 73, 69
1, 207831, Note_off_c, 0, 52, 63
1, 207836, Note_off_c, 0, 56, 64
1, 207838, Note_off_c, 0, 62, 65
1, 208494, Note_on_c, 0, 74, 94
1, 208495, Note_on_c, 0, 86, 101
1, 208635, Note_on_c, 0, 91, 95
1, 208637, Note_on_c, 0, 79, 85
1, 208738, Note_on_c, 0, 80, 94
1, 208749, Note_on_c, 0, 92, 91
1, 208802, Note_off_c, 0, 91, 54
1, 208831, Note_off_c, 0, 79, 41
1, 208857, Note_on_c, 0, 85, 109
1, 208862, Note_on_c, 0, 97, 94
1, 208872, Note_off_c, 0, 74, 52
1, 208873, Note_off_c, 0, 92, 68
1, 208875, Note_off_c, 0, 86, 68
1, 208879, Note_off_c, 0, 80, 67
1, 208900, Note_off_c, 0, 97, 66
1, 208902, Note_off_c, 0, 85, 67
1, 208975, Note_on_c, 0, 97, 79
1, 209001, Note_off_c, 0, 97, 67
1, 209063, Note_on_c, 0, 97, 89
1, 209094, Note_off_c, 0, 97, 62
1, 209159, Note_on_c, 0, 97, 104
1, 209159, Note_on_c, 0, 85, 100
1, 209192, Note_off_c, 0, 85, 70
1, 209194, Note_off_c, 0, 97, 66
1, 209261, Note_on_c, 0, 97, 91
1, 209285, Note_off_c, 0, 97, 65
1, 209357, Note_on_c, 0, 97, 97
1, 209395, Note_off_c, 0, 97, 65
1, 209454, Note_on_c, 0, 97, 98
1, 209466, Note_on_c, 0, 85, 97
1, 209494, Note_off_c, 0, 97, 64
1, 209499, Note_off_c, 0, 85, 69
1, 209561, Note_on_c, 0, 97, 98
1, 209600, Note_off_c, 0, 97, 65
1, 209658, Note_on_c, 0, 97, 106
1, 209671, Note_on_c, 0, 85, 101
1, 209700, Note_off_c, 0, 97, 66
1, 209702, Note_off_c, 0, 85, 70
1, 209761, Note_on_c, 0, 97, 96
1, 209802, Note_off_c, 0, 97, 66
1, 209860, Note_on_c, 0, 97, 93
1, 209905, Note_off_c, 0, 97, 64
1, 209955, Note_on_c, 0, 97, 98
1, 209958, Note_on_c, 0, 85, 102
1, 209993, Note_off_c, 0, 85, 69
1, 209998, Note_off_c, 0, 97, 66
1, 210057, Note_on_c, 0, 97, 90
1, 210099, Note_off_c, 0, 97, 66
1, 210162, Note_on_c, 0, 97, 86
1, 210204, Note_off_c, 0, 97, 65
1, 210222, Note_on_c, 0, 85, 81
1, 210256, Note_on_c, 0, 97, 83
1, 210266, Note_off_c, 0, 85, 62
1, 210307, Note_off_c, 0, 97, 64
1, 210357, Note_on_c, 0, 97, 75
1, 210441, Note_off_c, 0, 97, 62
1, 210460, Note_on_c, 0, 103, 74
1, 210474, Note_on_c, 0, 91, 66
1, 210509, Note_off_c, 0, 91, 60
1, 210513, Note_off_c, 0, 103, 66
1, 210515, Note_on_c, 0, 98, 78
1, 210521, Note_on_c, 0, 86, 58
1, 210555, Note_on_c, 0, 85, 57
1, 210557, Note_off_c, 0, 86, 61
1, 210563, Note_on_c, 0, 97, 77
1, 210566, Note_off_c, 0, 98, 64
1, 210602, Note_off_c, 0, 85, 63
1, 210605, Note_on_c, 0, 80, 65
1, 210617, Note_off_c, 0, 97, 64
1, 210620, Note_on_c, 0, 92, 75
1, 210629, Note_off_c, 0, 80, 69
1, 210650, Note_off_c, 0, 92, 61
1, 210651, Note_on_c, 0, 88, 73
1, 210668, Note_on_c, 0, 100, 83
1, 210691, Note_on_c, 0, 83, 76
1, 210698, Note_off_c, 0, 88, 64
1, 210719, Note_on_c, 0, 95, 72
1, 210724, Note_on_c, 0, 82, 65
1, 210743, Note_off_c, 0, 83, 64
1, 210749, Note_off_c, 0, 100, 65
1, 210754, Note_on_c, 0, 94, 70
1, 210769, Note_off_c, 0, 95, 67
1, 210775, Note_off_c, 0, 82, 63
1, 210784, Note_on_c, 0, 77, 75
1, 210805, Note_off_c, 0, 94, 65
1, 210808, Note_on_c, 0, 89, 81
1, 210825, Note_off_c, 0, 77, 58
1, 210837, Note_on_c, 0, 85, 76
1, 210858, Note_on_c, 0, 97, 94
1, 210864, Note_on_c, 0, 80, 77
1, 210870, Note_off_c, 0, 89, 64
1, 210879, Note_off_c, 0, 85, 63
1, 210906, Note_on_c, 0, 92, 85
1, 210933, Note_off_c, 0, 97, 64
1, 210937, Note_on_c, 0, 91, 80
1, 210939, Note_on_c, 0, 79, 49
1, 210941, Note_off_c, 0, 80, 66
1, 210959, Note_on_c, 0, 74, 78
1, 210960, Note_off_c, 0, 92, 67
1, 210963, Note_off_c, 0, 79, 63
1, 210983, Note_on_c, 0, 86, 83
1, 210985, Note_off_c, 0, 91, 68
1, 211003, Note_on_c, 0, 82, 84
1, 211010, Note_off_c, 0, 74, 64
1, 211046, Note_off_c, 0, 82, 65
1, 211046, Note_on_c, 0, 94, 88
1, 211057, Note_off_c, 0, 86, 63
1, 211067, Note_on_c, 0, 77, 75
1, 211086, Note_on_c, 0, 76, 74
1, 211091, Note_on_c, 0, 89, 76
1, 211114, Note_off_c, 0, 77, 64
1, 211118, Note_off_c, 0, 94, 64
1, 211125, Note_on_c, 0, 88, 81
1, 211137, Note_off_c, 0, 76, 65
1, 211139, Note_off_c, 0, 89, 64
1, 211156, Note_on_c, 0, 71, 86
1, 211170, Note_off_c, 0, 88, 67
1, 211174, Note_on_c, 0, 83, 80
1, 211211, Note_on_c, 0, 79, 73
1, 211214, Note_off_c, 0, 71, 64
1, 211229, Note_on_c, 0, 91, 83
1, 211233, Note_off_c, 0, 83, 63
1, 211244, Note_on_c, 0, 74, 80
1, 211264, Note_off_c, 0, 79, 64
1, 211274, Note_on_c, 0, 86, 81
1, 211291, Note_on_c, 0, 73, 74
1, 211293, Note_off_c, 0, 91, 66
1, 211308, Note_on_c, 0, 85, 87
1, 211317, Note_off_c, 0, 74, 63
1, 211323, Note_off_c, 0, 86, 66
1, 211349, Note_on_c, 0, 68, 77
1, 211352, Note_off_c, 0, 73, 63
1, 211371, Note_off_c, 0, 85, 64
1, 211371, Note_on_c, 0, 80, 85
1, 211389, Note_on_c, 0, 76, 78
1, 211391, Note_off_c, 0, 68, 61
1, 211420, Note_on_c, 0, 88, 85
1, 211428, Note_off_c, 0, 80, 62
1, 211439, Note_on_c, 0, 71, 77
1, 211453, Note_off_c, 0, 76, 58
1, 211475, Note_on_c, 0, 83, 80
1, 211485, Note_on_c, 0, 70, 78
1, 211499, Note_off_c, 0, 71, 63
1, 211511, Note_off_c, 0, 88, 64
1, 211516, Note_on_c, 0, 82, 83
1, 211533, Note_off_c, 0, 83, 65
1, 211539, Note_off_c, 0, 70, 67
1, 211551, Note_on_c, 0, 65, 73
1, 211568, Note_off_c, 0, 82, 67
1, 211571, Note_on_c, 0, 77, 78
1, 211587, Note_on_c, 0, 73, 77
1, 211595, Note_off_c, 0, 65, 61
1, 211618, Note_on_c, 0, 85, 89
1, 211630, Note_on_c, 0, 68, 72
1, 211631, Note_off_c, 0, 77, 64
1, 211645, Note_off_c, 0, 73, 64
1, 211662, Note_on_c, 0, 80, 81
1, 211663, Note_on_c, 0, 67, 66
1, 211690, Note_off_c, 0, 68, 62
1, 211693, Note_off_c, 0, 85, 63
1, 211696, Note_on_c, 0, 79, 74
1, 211719, Note_off_c, 0, 80, 64
1, 211724, Note_off_c, 0, 67, 64
1, 211731, Note_on_c, 0, 62, 74
1, 211744, Note_off_c, 0, 79, 65
1, 211754, Note_on_c, 0, 74, 83
1, 211771, Note_on_c, 0, 70, 81
1, 211790, Note_off_c, 0, 62, 62
1, 211812, Note_on_c, 0, 82, 81
1, 211817, Note_off_c, 0, 70, 68
1, 211817, Note_off_c, 0, 74, 60
1, 211830, Note_on_c, 0, 65, 74
1, 211858, Note_on_c, 0, 77, 76
1, 211868, Note_on_c, 0, 64, 66
1, 211884, Note_off_c, 0, 65, 64
1, 211884, Note_off_c, 0, 82, 61
1, 211901, Note_on_c, 0, 76, 70
1, 211913, Note_off_c, 0, 77, 64
1, 211922, Note_off_c, 0, 64, 64
1, 211935, Note_on_c, 0, 59, 70
1, 211941, Note_off_c, 0, 76, 64
1, 211947, Note_on_c, 0, 71, 76
1, 211982, Note_off_c, 0, 59, 61
1, 211995, Note_on_c, 0, 67, 75
1, 211999, Note_on_c, 0, 79, 78
1, 212000, Note_off_c, 0, 71, 64
1, 212028, Note_on_c, 0, 62, 65
1, 212028, Note_off_c, 0, 67, 54
1, 212048, Note_on_c, 0, 74, 77
1, 212050, Note_off_c, 0, 79, 64
1, 212064, Note_on_c, 0, 61, 72
1, 212073, Note_off_c, 0, 62, 60
1, 212091, Note_off_c, 0, 74, 65
1, 212092, Control_c, 0, 67, 66
1, 212094, Note_on_c, 0, 72, 72
1, 212107, Control_c, 0, 67, 122
1, 212109, Note_on_c, 0, 73, 24
1, 212121, Note_off_c, 0, 61, 62
1, 212122, Control_c, 0, 67, 127
1, 212127, Note_off_c, 0, 72, 62
1, 212128, Note_on_c, 0, 56, 70
1, 212137, Note_on_c, 0, 68, 75
1, 212146, Note_off_c, 0, 73, 43
1, 212164, Note_off_c, 0, 56, 64
1, 212173, Note_on_c, 0, 64, 68
1, 212180, Note_off_c, 0, 68, 57
1, 212194, Note_on_c, 0, 76, 77
1, 212196, Control_c, 0, 64, 83
1, 212210, Control_c, 0, 64, 64
1, 212217, Note_off_c, 0, 64, 54
1, 212221, Note_on_c, 0, 59, 61
1, 212225, Control_c, 0, 64, 47
1, 212240, Control_c, 0, 64, 0
1, 212242, Note_on_c, 0, 71, 68
1, 212259, Note_off_c, 0, 76, 61
1, 212265, Note_on_c, 0, 58, 61
1, 212268, Note_on_c, 0, 70, 74
1, 212275, Note_off_c, 0, 71, 60
1, 212289, Note_off_c, 0, 59, 56
1, 212306, Note_off_c, 0, 58, 63
1, 212319, Note_off_c, 0, 70, 63
1, 212328, Note_on_c, 0, 65, 65
1, 212334, Note_on_c, 0, 53, 41
1, 212357, Note_off_c, 0, 65, 64
1, 212378, Note_off_c, 0, 53, 60
1, 213544, Control_c, 0, 64, 45
1, 213553, Note_on_c, 0, 40, 31
1, 213556, Note_on_c, 0, 28, 41
1, 213559, Control_c, 0, 64, 60
1, 213574, Control_c, 0, 64, 69
1, 213589, Control_c, 0, 64, 81
1, 213600, Note_off_c, 0, 28, 61
1, 213604, Control_c, 0, 64, 105
1, 213612, Note_off_c, 0, 40, 59
1, 213619, Control_c, 0, 64, 127
1, 213886, Note_on_c, 0, 47, 49
1, 213946, Note_off_c, 0, 47, 57
1, 213987, Note_on_c, 0, 52, 39
1, 214049, Note_off_c, 0, 52, 53
1, 214054, Note_on_c, 0, 56, 54
1, 214137, Note_off_c, 0, 56, 43
1, 214198, Note_on_c, 0, 62, 43
1, 214225, Note_on_c, 0, 77, 41
1, 214227, Note_on_c, 0, 73, 41
1, 214234, Note_off_c, 0, 62, 62
1, 214244, Note_on_c, 0, 70, 25
1, 214248, Note_on_c, 0, 65, 13
1, 214258, Note_off_c, 0, 73, 58
1, 214282, Note_off_c, 0, 70, 51
1, 214282, Note_off_c, 0, 77, 49
1, 214309, Note_off_c, 0, 65, 41
1, 215257, Note_on_c, 0, 74, 38
1, 215261, Note_on_c, 0, 86, 38
1, 215425, Note_off_c, 0, 74, 55
1, 215439, Note_off_c, 0, 86, 54
1, 215455, Note_on_c, 0, 79, 44
1, 215455, Note_on_c, 0, 91, 43
1, 215555, Note_off_c, 0, 91, 62
1, 215573, Note_off_c, 0, 79, 52
1, 215589, Note_on_c, 0, 92, 46
1, 215598, Note_on_c, 0, 80, 29
1, 215722, Note_off_c, 0, 80, 58
1, 215723, Note_off_c, 0, 92, 56
1, 215729, Note_on_c, 0, 97, 69
1, 215736, Note_on_c, 0, 85, 52
1, 215760, Note_off_c, 0, 97, 66
1, 215763, Note_off_c, 0, 85, 63
1, 215882, Note_on_c, 0, 97, 59
1, 215914, Note_off_c, 0, 97, 66
1, 216003, Note_on_c, 0, 97, 67
1, 216033, Note_off_c, 0, 97, 67
1, 216102, Note_on_c, 0, 97, 71
1, 216114, Note_on_c, 0, 85, 68
1, 216129, Note_off_c, 0, 97, 67
1, 216137, Note_off_c, 0, 85, 69
1, 216219, Note_on_c, 0, 97, 57
1, 216245, Note_off_c, 0, 97, 63
1, 216325, Note_on_c, 0, 97, 69
1, 216355, Note_off_c, 0, 97, 67
1, 216420, Note_on_c, 0, 85, 69
1, 216428, Note_on_c, 0, 97, 73
1, 216442, Note_off_c, 0, 85, 70
1, 216453, Note_off_c, 0, 97, 68
1, 216533, Note_on_c, 0, 97, 67
1, 216561, Note_off_c, 0, 97, 67
1, 216629, Note_on_c, 0, 97, 76
1, 216649, Note_on_c, 0, 85, 69
1, 216654, Note_off_c, 0, 97, 68
1, 216672, Note_off_c, 0, 85, 70
1, 216744, Note_on_c, 0, 97, 63
1, 216769, Note_off_c, 0, 97, 64
1, 216845, Note_on_c, 0, 97, 61
1, 216863, Note_off_c, 0, 97, 62
1, 216936, Note_on_c, 0, 97, 75
1, 216948, Note_on_c, 0, 85, 67
1, 216961, Note_off_c, 0, 97, 68
1, 216972, Note_off_c, 0, 85, 69
1, 217053, Note_on_c, 0, 97, 71
1, 217079, Note_off_c, 0, 97, 68
1, 217170, Note_on_c, 0, 97, 54
1, 217194, Note_off_c, 0, 97, 62
1, 217274, Note_on_c, 0, 97, 61
1, 217284, Note_on_c, 0, 85, 54
1, 217306, Note_off_c, 0, 97, 66
1, 217321, Note_off_c, 0, 85, 59
1, 217389, Note_on_c, 0, 97, 57
1, 217527, Note_off_c, 0, 97, 54
1, 217590, Note_on_c, 0, 103, 43
1, 217606, Note_on_c, 0, 91, 37
1, 217674, Note_off_c, 0, 91, 58
1, 217676, Note_off_c, 0, 103, 45
1, 217717, Note_on_c, 0, 86, 41
1, 217717, Note_on_c, 0, 98, 42
1, 217745, Note_off_c, 0, 98, 61
1, 217760, Note_off_c, 0, 86, 59
1, 217774, Note_on_c, 0, 97, 55
1, 217775, Note_on_c, 0, 85, 47
1, 217814, Note_off_c, 0, 97, 62
1, 217831, Note_off_c, 0, 85, 58
1, 217853, Note_on_c, 0, 92, 54
1, 217857, Note_on_c, 0, 80, 47
1, 217887, Note_off_c, 0, 92, 63
1, 217890, Note_off_c, 0, 80, 66
1, 217910, Note_on_c, 0, 88, 61
1, 217918, Note_on_c, 0, 100, 57
1, 217947, Note_off_c, 0, 88, 57
1, 217959, Note_off_c, 0, 100, 61
1, 217988, Note_on_c, 0, 83, 40
1, 217989, Note_on_c, 0, 95, 53
1, 218010, Note_on_c, 0, 82, 50
1, 218015, Note_off_c, 0, 83, 61
1, 218018, Note_off_c, 0, 95, 66
1, 218021, Note_on_c, 0, 94, 58
1, 218051, Note_off_c, 0, 82, 63
1, 218058, Note_off_c, 0, 94, 64
1, 218083, Note_on_c, 0, 77, 53
1, 218083, Note_on_c, 0, 89, 67
1, 218111, Note_off_c, 0, 89, 63
1, 218112, Note_off_c, 0, 77, 65
1, 218123, Note_on_c, 0, 85, 66
1, 218138, Note_on_c, 0, 97, 66
1, 218156, Note_off_c, 0, 85, 61
1, 218166, Note_on_c, 0, 80, 55
1, 218190, Note_on_c, 0, 92, 65
1, 218190, Note_off_c, 0, 97, 61
1, 218192, Note_on_c, 0, 79, 60
1, 218197, Note_off_c, 0, 80, 64
1, 218221, Note_off_c, 0, 92, 67
1, 218230, Note_off_c, 0, 79, 62
1, 218232, Note_on_c, 0, 91, 63
1, 218260, Note_off_c, 0, 91, 69
1, 218263, Note_on_c, 0, 74, 65
1, 218276, Note_on_c, 0, 86, 67
1, 218291, Note_off_c, 0, 74, 68
1, 218305, Note_off_c, 0, 86, 62
1, 218306, Note_on_c, 0, 82, 64
1, 218331, Note_off_c, 0, 82, 67
1, 218336, Note_on_c, 0, 94, 47
1, 218355, Note_on_c, 0, 77, 68
1, 218357, Note_off_c, 0, 94, 58
1, 218377, Note_on_c, 0, 89, 68
1, 218397, Note_on_c, 0, 76, 42
1, 218400, Note_off_c, 0, 77, 61
1, 218406, Note_off_c, 0, 89, 65
1, 218421, Note_on_c, 0, 88, 57
1, 218423, Note_off_c, 0, 76, 54
1, 218447, Note_off_c, 0, 88, 67
1, 218450, Note_on_c, 0, 71, 65
1, 218474, Note_on_c, 0, 83, 67
1, 218480, Note_off_c, 0, 71, 64
1, 218507, Note_off_c, 0, 83, 59
1, 218526, Note_on_c, 0, 91, 66
1, 218527, Note_on_c, 0, 79, 65
1, 218552, Note_off_c, 0, 79, 64
1, 218557, Note_on_c, 0, 74, 64
1, 218578, Note_off_c, 0, 91, 66
1, 218590, Note_off_c, 0, 74, 62
1, 218596, Note_on_c, 0, 86, 54
1, 218600, Note_on_c, 0, 73, 62
1, 218606, Note_on_c, 0, 85, 74
1, 218615, Note_off_c, 0, 86, 63
1, 218642, Note_off_c, 0, 73, 61
1, 218653, Note_on_c, 0, 68, 58
1, 218654, Note_off_c, 0, 85, 65
1, 218679, Note_on_c, 0, 80, 64
1, 218681, Note_off_c, 0, 68, 66
1, 218699, Note_on_c, 0, 76, 68
1, 218705, Note_off_c, 0, 80, 66
1, 218713, Note_on_c, 0, 88, 76
1, 218724, Note_off_c, 0, 76, 65
1, 218753, Note_on_c, 0, 71, 54
1, 218767, Note_on_c, 0, 70, 69
1, 218767, Note_off_c, 0, 88, 63
1, 218774, Note_on_c, 0, 83, 64
1, 218782, Note_off_c, 0, 71, 65
1, 218797, Note_off_c, 0, 83, 68
1, 218799, Note_off_c, 0, 70, 63
1, 218801, Note_on_c, 0, 82, 72
1, 218834, Note_on_c, 0, 65, 65
1, 218846, Note_off_c, 0, 82, 62
1, 218859, Note_on_c, 0, 77, 71
1, 218865, Note_off_c, 0, 65, 64
1, 218877, Note_on_c, 0, 73, 62
1, 218898, Note_on_c, 0, 85, 76
1, 218899, Note_off_c, 0, 77, 59
1, 218915, Note_off_c, 0, 73, 63
1, 218916, Note_on_c, 0, 68, 62
1, 218947, Note_on_c, 0, 67, 69
1, 218948, Note_off_c, 0, 68, 66
1, 218950, Note_on_c, 0, 80, 68
1, 218952, Note_off_c, 0, 85, 65
1, 218975, Note_off_c, 0, 80, 68
1, 218978, Note_on_c, 0, 79, 68
1, 218978, Note_off_c, 0, 67, 66
1, 219016, Note_off_c, 0, 79, 61
1, 219023, Note_on_c, 0, 62, 54
1, 219027, Note_on_c, 0, 74, 72
1, 219044, Note_on_c, 0, 70, 70
1, 219050, Note_off_c, 0, 62, 65
1, 219057, Note_off_c, 0, 74, 60
1, 219071, Note_off_c, 0, 70, 67
1, 219080, Note_on_c, 0, 82, 67
1, 219106, Note_on_c, 0, 65, 63
1, 219109, Note_off_c, 0, 82, 64
1, 219121, Note_on_c, 0, 77, 75
1, 219131, Note_off_c, 0, 65, 65
1, 219146, Note_on_c, 0, 64, 37
1, 219162, Note_off_c, 0, 77, 61
1, 219169, Note_on_c, 0, 76, 56
1, 219175, Note_off_c, 0, 64, 54
1, 219193, Note_on_c, 0, 59, 68
1, 219194, Note_off_c, 0, 76, 65
1, 219219, Note_on_c, 0, 71, 71
1, 219230, Note_off_c, 0, 59, 64
1, 219270, Note_on_c, 0, 79, 67
1, 219272, Note_on_c, 0, 67, 60
1, 219273, Note_off_c, 0, 71, 60
1, 219291, Note_off_c, 0, 67, 64
1, 219294, Note_on_c, 0, 62, 64
1, 219317, Note_off_c, 0, 79, 64
1, 219330, Note_off_c, 0, 62, 60
1, 219330, Note_on_c, 0, 74, 66
1, 219336, Note_on_c, 0, 61, 64
1, 219349, Note_on_c, 0, 73, 75
1, 219355, Note_off_c, 0, 74, 70
1, 219381, Note_off_c, 0, 61, 60
1, 219390, Note_on_c, 0, 56, 65
1, 219398, Note_off_c, 0, 73, 63
1, 219413, Note_on_c, 0, 68, 74
1, 219419, Note_off_c, 0, 56, 65
1, 219440, Note_off_c, 0, 68, 65
1, 219442, Note_on_c, 0, 64, 61
1, 219453, Note_on_c, 0, 76, 74
1, 219467, Note_off_c, 0, 64, 59
1, 219481, Note_on_c, 0, 59, 60
1, 219509, Note_off_c, 0, 76, 62
1, 219511, Note_off_c, 0, 59, 68
1, 219513, Note_on_c, 0, 71, 66
1, 219519, Note_on_c, 0, 58, 61
1, 219536, Control_c, 0, 64, 114
1, 219538, Note_on_c, 0, 70, 72
1, 219543, Note_off_c, 0, 71, 66
1, 219550, Control_c, 0, 64, 108
1, 219552, Note_off_c, 0, 58, 65
1, 219565, Control_c, 0, 64, 104
1, 219572, Note_on_c, 0, 53, 69
1, 219580, Control_c, 0, 64, 101
1, 219585, Note_off_c, 0, 70, 66
1, 219591, Note_on_c, 0, 65, 69
1, 219594, Control_c, 0, 64, 98
1, 219609, Control_c, 0, 64, 95
1, 219615, Note_off_c, 0, 53, 61
1, 219624, Control_c, 0, 64, 93
1, 219625, Note_on_c, 0, 61, 64
1, 219635, Note_on_c, 0, 73, 81
1, 219639, Control_c, 0, 64, 91
1, 219646, Note_off_c, 0, 65, 59
1, 219649, Note_on_c, 0, 56, 72
1, 219654, Control_c, 0, 64, 90
1, 219661, Note_off_c, 0, 61, 64
1, 219668, Control_c, 0, 64, 88
1, 219683, Control_c, 0, 64, 86
1, 219686, Note_on_c, 0, 68, 70
1, 219690, Note_on_c, 0, 55, 63
1, 219698, Control_c, 0, 64, 84
1, 219702, Note_off_c, 0, 56, 64
1, 219703, Note_off_c, 0, 73, 62
1, 219713, Control_c, 0, 64, 81
1, 219718, Note_on_c, 0, 67, 72
1, 219720, Note_off_c, 0, 68, 61
1, 219726, Note_off_c, 0, 55, 66
1, 219728, Control_c, 0, 64, 78
1, 219742, Control_c, 0, 64, 75
1, 219749, Note_on_c, 0, 50, 65
1, 219753, Note_off_c, 0, 67, 62
1, 219757, Control_c, 0, 64, 71
1, 219763, Note_on_c, 0, 62, 72
1, 219772, Control_c, 0, 64, 66
1, 219787, Control_c, 0, 64, 61
1, 219788, Note_off_c, 0, 50, 66
1, 219789, Note_on_c, 0, 58, 75
1, 219801, Control_c, 0, 64, 58
1, 219813, Note_on_c, 0, 70, 71
1, 219816, Control_c, 0, 64, 56
1, 219816, Note_off_c, 0, 62, 61
1, 219817, Note_off_c, 0, 58, 68
1, 219831, Control_c, 0, 64, 55
1, 219850, Note_on_c, 0, 53, 60
1, 219858, Note_off_c, 0, 70, 62
1, 219861, Control_c, 0, 64, 54
1, 219867, Note_on_c, 0, 65, 66
1, 219875, Control_c, 0, 64, 52
1, 219875, Note_on_c, 0, 52, 57
1, 219884, Note_off_c, 0, 53, 64
1, 219890, Control_c, 0, 64, 51
1, 219893, Note_off_c, 0, 65, 68
1, 219899, Note_on_c, 0, 64, 67
1, 219905, Control_c, 0, 64, 49
1, 219920, Note_off_c, 0, 52, 63
1, 219920, Control_c, 0, 64, 47
1, 219935, Note_off_c, 0, 64, 66
1, 219935, Control_c, 0, 64, 44
1, 219940, Note_on_c, 0, 47, 69
1, 219949, Control_c, 0, 64, 39
1, 219959, Note_on_c, 0, 59, 68
1, 219964, Control_c, 0, 64, 35
1, 219979, Note_off_c, 0, 47, 65
1, 219979, Control_c, 0, 64, 31
1, 219993, Control_c, 0, 64, 27
1, 219998, Note_off_c, 0, 59, 65
1, 220002, Note_on_c, 0, 67, 62
1, 220016, Control_c, 0, 64, 0
1, 220025, Note_on_c, 0, 55, 57
1, 220050, Note_on_c, 0, 50, 57
1, 220054, Note_off_c, 0, 67, 64
1, 220056, Note_off_c, 0, 55, 64
1, 220072, Note_on_c, 0, 62, 58
1, 220087, Note_off_c, 0, 50, 64
1, 220097, Note_on_c, 0, 49, 51
1, 220099, Note_off_c, 0, 62, 65
1, 220099, Note_on_c, 0, 61, 64
1, 220134, Note_off_c, 0, 49, 63
1, 220137, Note_off_c, 0, 61, 64
1, 220157, Note_on_c, 0, 56, 65
1, 220158, Note_on_c, 0, 44, 41
1, 220189, Note_off_c, 0, 56, 64
1, 220190, Note_off_c, 0, 44, 49
1, 220202, Note_on_c, 0, 52, 60
1, 220207, Note_on_c, 0, 64, 54
1, 220235, Note_off_c, 0, 52, 62
1, 220246, Note_off_c, 0, 64, 62
1, 220257, Note_on_c, 0, 47, 47
1, 220257, Note_on_c, 0, 59, 51
1, 220289, Note_off_c, 0, 59, 65
1, 220291, Note_on_c, 0, 58, 57
1, 220298, Note_off_c, 0, 47, 59
1, 220328, Note_off_c, 0, 58, 64
1, 220331, Note_on_c, 0, 46, 10
1, 220335, Note_on_c, 0, 41, 68
1, 220340, Note_on_c, 0, 53, 61
1, 220372, Note_off_c, 0, 53, 64
1, 220373, Note_off_c, 0, 41, 63
1, 220379, Note_off_c, 0, 46, 34
1, 221285, Control_c, 0, 67, 73
1, 221300, Control_c, 0, 67, 0
1, 221566, Note_on_c, 0, 21, 104
1, 221568, Note_on_c, 0, 51, 94
1, 221569, Note_on_c, 0, 43, 99
1, 221574, Control_c, 0, 64, 29
1, 221578, Note_on_c, 0, 48, 87
1, 221589, Control_c, 0, 64, 127
1, 221613, Note_off_c, 0, 21, 67
1, 221813, Note_off_c, 0, 48, 55
1, 221840, Note_off_c, 0, 43, 60
1, 221861, Note_off_c, 0, 51, 61
1, 222095, Note_on_c, 0, 49, 87
1, 222098, Note_on_c, 0, 57, 101
1, 222105, Note_on_c, 0, 54, 88
1, 222171, Note_off_c, 0, 57, 65
1, 222211, Note_off_c, 0, 54, 61
1, 222230, Note_off_c, 0, 49, 61
1, 222383, Note_on_c, 0, 55, 101
1, 222384, Note_on_c, 0, 63, 97
1, 222388, Note_on_c, 0, 60, 86
1, 222415, Note_off_c, 0, 55, 68
1, 222416, Note_off_c, 0, 60, 66
1, 222443, Note_off_c, 0, 63, 70
1, 222525, Poly_aftertouch_c, 0, 64, 127
1, 222574, Poly_aftertouch_c, 0, 64, 0
1, 222585, Note_on_c, 0, 61, 82
1, 222587, Note_on_c, 0, 69, 98
1, 222589, Note_on_c, 0, 66, 96
1, 222621, Note_off_c, 0, 69, 66
1, 222625, Note_on_c, 0, 67, 35
1, 222625, Note_off_c, 0, 67, 127
1, 222652, Note_off_c, 0, 61, 64
1, 222655, Poly_aftertouch_c, 0, 67, 0
1, 222656, Note_off_c, 0, 66, 66
1, 222730, Note_on_c, 0, 67, 95
1, 222734, Note_on_c, 0, 72, 91
1, 222737, Note_on_c, 0, 75, 88
1, 222761, Note_off_c, 0, 72, 63
1, 222763, Note_off_c, 0, 67, 68
1, 222781, Note_off_c, 0, 75, 67
1, 222877, Note_on_c, 0, 73, 95
1, 222879, Note_on_c, 0, 81, 104
1, 222883, Note_on_c, 0, 78, 87
1, 222905, Note_off_c, 0, 81, 70
1, 222934, Note_off_c, 0, 73, 58
1, 222940, Note_off_c, 0, 78, 51
1, 223019, Note_on_c, 0, 79, 87
1, 223020, Note_on_c, 0, 87, 96
1, 223021, Note_on_c, 0, 84, 89
1, 223042, Note_off_c, 0, 84, 68
1, 223050, Note_off_c, 0, 79, 69
1, 223065, Note_off_c, 0, 87, 70
1, 223171, Note_on_c, 0, 85, 91
1, 223173, Note_on_c, 0, 93, 97
1, 223175, Note_on_c, 0, 90, 87
1, 223246, Note_off_c, 0, 93, 63
1, 223280, Note_off_c, 0, 90, 62
1, 223290, Note_off_c, 0, 85, 60
1, 223347, Note_on_c, 0, 91, 102
1, 223349, Note_on_c, 0, 99, 105
1, 223351, Note_on_c, 0, 96, 84
1, 223397, Note_off_c, 0, 96, 65
1, 223531, Note_off_c, 0, 91, 63
1, 223551, Note_on_c, 0, 97, 97
1, 223551, Note_on_c, 0, 105, 97
1, 223554, Note_on_c, 0, 102, 95
1, 223557, Note_on_c, 0, 88, 102
1, 223590, Note_on_c, 0, 93, 39
1, 223591, Note_off_c, 0, 99, 65
1, 223592, Note_off_c, 0, 105, 67
1, 223608, Note_off_c, 0, 97, 67
1, 223609, Note_on_c, 0, 82, 29
1, 223610, Note_off_c, 0, 102, 68
1, 223624, Note_off_c, 0, 93, 52
1, 223644, Note_off_c, 0, 82, 51
1, 223678, Poly_aftertouch_c, 0, 81, 0
1, 223742, Note_on_c, 0, 87, 93
1, 223768, Note_off_c, 0, 88, 62
1, 223851, Note_off_c, 0, 87, 64
1, 223852, Note_on_c, 0, 82, 84
1, 223924, Note_on_c, 0, 83, 74
1, 223930, Note_on_c, 0, 81, 81
1, 223930, Note_off_c, 0, 82, 59
1, 223946, Note_off_c, 0, 83, 70
1, 223975, Note_off_c, 0, 81, 69
1, 224016, Note_on_c, 0, 76, 75
1, 224085, Note_on_c, 0, 75, 85
1, 224102, Note_off_c, 0, 76, 64
1, 224134, Note_on_c, 0, 70, 78
1, 224149, Note_on_c, 0, 73, 27
1, 224165, Note_off_c, 0, 75, 63
1, 224186, Note_off_c, 0, 73, 53
1, 224193, Note_off_c, 0, 70, 66
1, 224196, Note_on_c, 0, 69, 81
1, 224215, Note_off_c, 0, 69, 72
1, 224216, Note_on_c, 0, 64, 80
1, 224258, Note_on_c, 0, 63, 86
1, 224266, Note_off_c, 0, 64, 62
1, 224325, Note_on_c, 0, 58, 69
1, 224326, Note_on_c, 0, 57, 80
1, 224327, Note_off_c, 0, 63, 66
1, 224350, Note_off_c, 0, 58, 66
1, 224365, Note_off_c, 0, 57, 67
1, 224391, Note_on_c, 0, 52, 69
1, 224433, Note_on_c, 0, 51, 38
1, 224477, Note_on_c, 0, 46, 74
1, 224484, Note_off_c, 0, 52, 64
1, 224520, Note_off_c, 0, 51, 61
1, 224545, Note_on_c, 0, 45, 85
1, 224559, Note_off_c, 0, 46, 63
1, 224615, Note_off_c, 0, 45, 63
1, 224618, Note_on_c, 0, 25, 101
1, 224659, Control_c, 0, 64, 115
1, 224673, Control_c, 0, 64, 71
1, 224688, Control_c, 0, 64, 42
1, 224703, Control_c, 0, 64, 0
1, 225014, Control_c, 0, 64, 28
1, 225029, Control_c, 0, 64, 46
1, 225044, Control_c, 0, 64, 61
1, 225058, Control_c, 0, 64, 69
1, 225073, Control_c, 0, 64, 83
1, 225089, Control_c, 0, 64, 127
1, 225124, Note_off_c, 0, 25, 61
1, 225777, Note_on_c, 0, 61, 54
1, 225787, Note_on_c, 0, 97, 100
1, 225792, Note_on_c, 0, 87, 88
1, 225796, Note_on_c, 0, 85, 82
1, 225803, Note_off_c, 0, 61, 66
1, 225822, Note_off_c, 0, 85, 61
1, 225826, Note_off_c, 0, 87, 67
1, 225826, Note_off_c, 0, 97, 65
1, 225832, Note_on_c, 0, 76, 68
1, 225856, Note_off_c, 0, 76, 69
1, 226812, Note_on_c, 0, 56, 58
1, 226826, Note_on_c, 0, 94, 94
1, 226833, Note_on_c, 0, 85, 87
1, 226836, Note_on_c, 0, 82, 82
1, 226839, Note_off_c, 0, 56, 66
1, 226853, Note_on_c, 0, 71, 68
1, 226859, Note_off_c, 0, 85, 62
1, 226860, Note_off_c, 0, 82, 64
1, 226867, Note_off_c, 0, 94, 68
1, 226890, Note_off_c, 0, 71, 61
1, 227846, Note_on_c, 0, 86, 89
1, 227856, Note_on_c, 0, 85, 79
1, 227858, Note_on_c, 0, 74, 69
1, 227861, Note_on_c, 0, 76, 70
1, 227865, Note_on_c, 0, 73, 60
1, 227867, Note_on_c, 0, 66, 54
1, 227879, Note_on_c, 0, 78, 40
1, 227882, Note_on_c, 0, 69, 53
1, 227884, Note_off_c, 0, 76, 69
1, 227902, Note_off_c, 0, 85, 64
1, 227906, Note_off_c, 0, 86, 65
1, 227909, Note_off_c, 0, 78, 53
1, 227910, Note_off_c, 0, 74, 61
1, 227930, Note_off_c, 0, 69, 60
1, 227930, Note_off_c, 0, 73, 61
1, 227948, Poly_aftertouch_c, 0, 81, 0
1, 227956, Note_off_c, 0, 66, 61
1, 228908, Note_on_c, 0, 87, 74
1, 228912, Note_on_c, 0, 88, 73
1, 228925, Note_on_c, 0, 78, 57
1, 228928, Note_on_c, 0, 75, 63
1, 228930, Note_on_c, 0, 80, 53
1, 228933, Note_off_c, 0, 88, 72
1, 228939, Note_on_c, 0, 66, 63
1, 228943, Note_on_c, 0, 68, 57
1, 228948, Note_on_c, 0, 64, 39
1, 228949, Note_off_c, 0, 80, 62
1, 228952, Note_on_c, 0, 71, 46
1, 228955, Note_off_c, 0, 78, 65
1, 228957, Note_off_c, 0, 87, 65
1, 228965, Note_off_c, 0, 75, 58
1, 228979, Note_off_c, 0, 68, 63
1, 228979, Note_off_c, 0, 71, 57
1, 228983, Note_off_c, 0, 64, 51
1, 228991, Note_off_c, 0, 66, 61
1, 229272, Note_on_c, 0, 64, 97
1, 229287, Note_on_c, 0, 56, 86
1, 229287, Note_on_c, 0, 59, 79
1, 229497, Note_off_c, 0, 64, 62
1, 229498, Note_off_c, 0, 59, 62
1, 229504, Note_off_c, 0, 56, 61
1, 229730, Note_on_c, 0, 62, 90
1, 229738, Note_on_c, 0, 57, 82
1, 229742, Note_on_c, 0, 54, 81
1, 229926, Note_off_c, 0, 62, 62
1, 229936, Note_off_c, 0, 57, 64
1, 229955, Note_off_c, 0, 54, 61
1, 230168, Note_on_c, 0, 59, 95
1, 230175, Note_on_c, 0, 52, 89
1, 230176, Note_on_c, 0, 56, 85
1, 230226, Control_c, 0, 64, 115
1, 230241, Control_c, 0, 64, 76
1, 230256, Control_c, 0, 64, 58
1, 230271, Control_c, 0, 64, 51
1, 230285, Control_c, 0, 64, 52
1, 230300, Control_c, 0, 64, 57
1, 230315, Control_c, 0, 64, 66
1, 230330, Control_c, 0, 64, 79
1, 230344, Control_c, 0, 64, 127
1, 230368, Note_off_c, 0, 59, 63
1, 230376, Note_off_c, 0, 52, 60
1, 230388, Note_off_c, 0, 56, 66
1, 230571, Note_on_c, 0, 58, 94
1, 230578, Note_on_c, 0, 55, 75
1, 230579, Note_on_c, 0, 51, 88
1, 230661, Note_off_c, 0, 51, 62
1, 230681, Note_off_c, 0, 55, 57
1, 230695, Note_off_c, 0, 58, 59
1, 230798, Control_c, 0, 64, 88
1, 230802, Note_on_c, 0, 56, 96
1, 230806, Note_on_c, 0, 52, 72
1, 230807, Note_on_c, 0, 47, 90
1, 230812, Control_c, 0, 64, 53
1, 230827, Control_c, 0, 64, 0
1, 230872, Control_c, 0, 64, 52
1, 230887, Control_c, 0, 64, 73
1, 230901, Control_c, 0, 64, 98
1, 230916, Control_c, 0, 64, 127
1, 231006, Note_off_c, 0, 47, 57
1, 231007, Note_off_c, 0, 52, 62
1, 231035, Note_off_c, 0, 56, 59
1, 231277, Note_on_c, 0, 55, 91
1, 231284, Note_on_c, 0, 46, 93
1, 231288, Note_on_c, 0, 51, 85
1, 231438, Note_off_c, 0, 51, 59
1, 231489, Note_off_c, 0, 46, 54
1, 231659, Note_off_c, 0, 55, 28
1, 231798, Note_on_c, 0, 52, 86
1, 231800, Note_on_c, 0, 44, 87
1, 231801, Note_on_c, 0, 49, 84
1, 231812, Control_c, 0, 64, 74
1, 231827, Control_c, 0, 64, 0
1, 231835, Note_on_c, 0, 25, 95
1, 231930, Control_c, 0, 64, 48
1, 231945, Control_c, 0, 64, 73
1, 231960, Control_c, 0, 64, 127
1, 232036, Note_off_c, 0, 52, 52
1, 232045, Note_off_c, 0, 44, 62
1, 232049, Note_off_c, 0, 25, 59
1, 232086, Note_off_c, 0, 49, 56
1, 232864, Note_on_c, 0, 61, 45
1, 232875, Note_on_c, 0, 97, 97
1, 232887, Note_on_c, 0, 87, 77
1, 232887, Note_on_c, 0, 85, 78
1, 232893, Note_off_c, 0, 61, 66
1, 232894, Control_c, 0, 67, 55
1, 232909, Control_c, 0, 67, 109
1, 232914, Note_off_c, 0, 85, 64
1, 232923, Control_c, 0, 67, 127
1, 232929, Note_off_c, 0, 97, 63
1, 232930, Note_on_c, 0, 76, 50
1, 232935, Note_off_c, 0, 87, 64
1, 232953, Note_off_c, 0, 76, 59
1, 233820, Control_c, 0, 67, 124
1, 233835, Control_c, 0, 67, 114
1, 233850, Control_c, 0, 67, 100
1, 233865, Control_c, 0, 67, 80
1, 233881, Control_c, 0, 67, 51
1, 233896, Control_c, 0, 67, 0
1, 233900, Note_on_c, 0, 56, 64
1, 233912, Note_on_c, 0, 94, 100
1, 233916, Note_on_c, 0, 85, 89
1, 233920, Note_on_c, 0, 82, 81
1, 233926, Note_off_c, 0, 56, 65
1, 233945, Note_off_c, 0, 82, 61
1, 233954, Note_off_c, 0, 85, 60
1, 233954, Note_off_c, 0, 94, 67
1, 233969, Note_on_c, 0, 71, 63
1, 233999, Note_off_c, 0, 71, 65
1, 234956, Note_on_c, 0, 86, 84
1, 234965, Note_on_c, 0, 85, 77
1, 234971, Note_on_c, 0, 69, 48
1, 234971, Note_on_c, 0, 74, 54
1, 234971, Note_on_c, 0, 76, 66
1, 234972, Note_on_c, 0, 73, 47
1, 234983, Note_on_c, 0, 66, 43
1, 234983, Note_on_c, 0, 78, 56
1, 235007, Note_on_c, 0, 81, 44
1, 235034, Note_off_c, 0, 81, 55
1, 235037, Note_off_c, 0, 78, 44
1, 235047, Note_off_c, 0, 76, 54
1, 235062, Note_off_c, 0, 86, 61
1, 235099, Note_off_c, 0, 85, 54
1, 235203, Note_off_c, 0, 74, 38
1, 235227, Note_off_c, 0, 73, 52
1, 235237, Note_off_c, 0, 69, 53
1, 235309, Note_off_c, 0, 66, 53
1, 236109, Note_on_c, 0, 88, 71
1, 236112, Note_on_c, 0, 87, 66
1, 236125, Note_on_c, 0, 66, 46
1, 236130, Note_on_c, 0, 75, 58
1, 236139, Note_on_c, 0, 78, 45
1, 236142, Note_on_c, 0, 68, 41
1, 236145, Note_on_c, 0, 71, 48
1, 236148, Note_on_c, 0, 64, 41
1, 236168, Note_on_c, 0, 80, 27
1, 236174, Note_on_c, 0, 83, 21
1, 236214, Note_off_c, 0, 88, 61
1, 236236, Note_off_c, 0, 83, 42
1, 236253, Note_off_c, 0, 75, 58
1, 236253, Note_off_c, 0, 78, 54
1, 236266, Note_off_c, 0, 80, 32
1, 236282, Note_off_c, 0, 87, 57
1, 236283, Note_off_c, 0, 71, 50
1, 236306, Note_off_c, 0, 68, 53
1, 236360, Note_off_c, 0, 66, 33
1, 236370, Note_off_c, 0, 64, 32
1, 236940, Note_on_c, 0, 76, 80
1, 236941, Note_on_c, 0, 68, 98
1, 236971, Note_on_c, 0, 71, 51
1, 236978, Note_on_c, 0, 73, 42
1, 237009, Control_c, 0, 64, 90
1, 237023, Control_c, 0, 64, 80
1, 237038, Control_c, 0, 64, 77
1, 237069, Control_c, 0, 64, 79
1, 237084, Control_c, 0, 64, 91
1, 237099, Control_c, 0, 64, 127
1, 237350, Note_off_c, 0, 68, 57
1, 237351, Note_off_c, 0, 71, 37
1, 237370, Note_off_c, 0, 76, 62
1, 237372, Note_off_c, 0, 73, 52
1, 237652, Note_on_c, 0, 56, 27
1, 237707, Note_on_c, 0, 59, 33
1, 237738, Note_on_c, 0, 64, 46
1, 237752, Note_on_c, 0, 71, 75
1, 237758, Note_on_c, 0, 80, 68
1, 237787, Note_on_c, 0, 73, 41
1, 237818, Control_c, 0, 64, 80
1, 237818, Note_on_c, 0, 76, 24
1, 237832, Control_c, 0, 64, 61
1, 237847, Control_c, 0, 64, 42
1, 237862, Control_c, 0, 64, 27
1, 237892, Control_c, 0, 64, 39
1, 237907, Control_c, 0, 64, 56
1, 237911, Note_off_c, 0, 76, 0
1, 237922, Control_c, 0, 64, 65
1, 237937, Control_c, 0, 64, 75
1, 237948, Poly_aftertouch_c, 0, 76, 127
1, 237952, Control_c, 0, 64, 89
1, 237967, Control_c, 0, 64, 111
1, 237981, Control_c, 0, 64, 127
1, 238096, Note_off_c, 0, 71, 58
1, 238117, Note_off_c, 0, 80, 61
1, 238141, Note_off_c, 0, 73, 40
1, 238152, Poly_aftertouch_c, 0, 76, 0
1, 238308, Note_on_c, 0, 73, 84
1, 238319, Note_on_c, 0, 82, 70
1, 238324, Note_off_c, 0, 64, 56
1, 238350, Note_on_c, 0, 75, 47
1, 238363, Note_on_c, 0, 78, 35
1, 238396, Note_off_c, 0, 59, 41
1, 238424, Note_off_c, 0, 56, 47
1, 238473, Note_off_c, 0, 78, 51
1, 238473, Note_off_c, 0, 82, 57
1, 238488, Note_off_c, 0, 75, 59
1, 238569, Note_off_c, 0, 73, 60
1, 238677, Note_on_c, 0, 54, 46
1, 238682, Note_on_c, 0, 57, 39
1, 238697, Note_on_c, 0, 62, 49
1, 238706, Note_on_c, 0, 71, 77
1, 238717, Note_on_c, 0, 80, 64
1, 238737, Control_c, 0, 64, 110
1, 238752, Control_c, 0, 64, 80
1, 238766, Control_c, 0, 64, 63
1, 238768, Note_on_c, 0, 73, 26
1, 238780, Note_on_c, 0, 76, 21
1, 238781, Control_c, 0, 64, 50
1, 238796, Control_c, 0, 64, 42
1, 238811, Control_c, 0, 64, 44
1, 238826, Control_c, 0, 64, 54
1, 238834, Note_off_c, 0, 73, 0
1, 238840, Control_c, 0, 64, 64
1, 238855, Control_c, 0, 64, 72
1, 238870, Poly_aftertouch_c, 0, 73, 127
1, 238870, Control_c, 0, 64, 82
1, 238885, Control_c, 0, 64, 95
1, 238900, Control_c, 0, 64, 113
1, 238912, Note_off_c, 0, 80, 62
1, 238915, Control_c, 0, 64, 127
1, 238916, Note_off_c, 0, 76, 39
1, 238927, Note_off_c, 0, 71, 61
1, 238980, Poly_aftertouch_c, 0, 73, 0
1, 239010, Note_off_c, 0, 62, 56
1, 239067, Note_off_c, 0, 57, 58
1, 239093, Note_on_c, 0, 70, 79
1, 239099, Note_off_c, 0, 54, 37
1, 239102, Note_on_c, 0, 78, 65
1, 239104, Note_on_c, 0, 73, 43
1, 239122, Note_on_c, 0, 75, 51
1, 239210, Note_off_c, 0, 75, 56
1, 239214, Note_off_c, 0, 78, 59
1, 239260, Note_off_c, 0, 73, 35
1, 239292, Note_off_c, 0, 70, 60
1, 239481, Note_on_c, 0, 68, 71
1, 239496, Note_on_c, 0, 76, 57
1, 239503, Note_on_c, 0, 52, 40
1, 239507, Note_on_c, 0, 56, 41
1, 239511, Note_on_c, 0, 59, 43
1, 239511, Note_on_c, 0, 71, 44
1, 239515, Control_c, 0, 64, 88
1, 239530, Control_c, 0, 64, 65
1, 239532, Note_on_c, 0, 73, 23
1, 239545, Control_c, 0, 64, 42
1, 239560, Control_c, 0, 64, 27
1, 239575, Control_c, 0, 64, 0
1, 239589, Control_c, 0, 64, 31
1, 239604, Control_c, 0, 64, 41
1, 239619, Control_c, 0, 64, 53
1, 239634, Control_c, 0, 64, 62
1, 239649, Control_c, 0, 64, 70
1, 239650, Note_off_c, 0, 76, 62
1, 239663, Note_off_c, 0, 71, 59
1, 239663, Control_c, 0, 64, 79
1, 239678, Control_c, 0, 64, 88
1, 239683, Note_off_c, 0, 73, 35
1, 239693, Control_c, 0, 64, 96
1, 239708, Control_c, 0, 64, 105
1, 239722, Control_c, 0, 64, 127
1, 239805, Note_off_c, 0, 68, 60
1, 239856, Control_c, 0, 67, 38
1, 239871, Control_c, 0, 67, 42
1, 239886, Control_c, 0, 67, 47
1, 239887, Note_on_c, 0, 67, 67
1, 239901, Control_c, 0, 67, 50
1, 239910, Note_on_c, 0, 75, 58
1, 239915, Control_c, 0, 67, 51
1, 239945, Control_c, 0, 67, 52
1, 239948, Note_on_c, 0, 72, 35
1, 239967, Note_on_c, 0, 70, 13
1, 239975, Control_c, 0, 67, 53
1, 239983, Note_off_c, 0, 59, 49
1, 239989, Control_c, 0, 67, 53
1, 240020, Note_off_c, 0, 75, 60
1, 240024, Note_off_c, 0, 52, 36
1, 240033, Control_c, 0, 67, 54
1, 240042, Note_off_c, 0, 56, 60
1, 240044, Note_off_c, 0, 72, 38
1, 240048, Control_c, 0, 67, 54
1, 240063, Control_c, 0, 67, 55
1, 240070, Note_off_c, 0, 67, 39
1, 240078, Control_c, 0, 67, 56
1, 240107, Control_c, 0, 67, 59
1, 240120, Note_off_c, 0, 70, 39
1, 240122, Control_c, 0, 67, 76
1, 240137, Control_c, 0, 67, 92
1, 240152, Control_c, 0, 67, 103
1, 240167, Control_c, 0, 67, 108
1, 240447, Note_on_c, 0, 61, 59
1, 240462, Note_on_c, 0, 50, 37
1, 240462, Note_on_c, 0, 68, 54
1, 240472, Note_on_c, 0, 58, 41
1, 240482, Note_on_c, 0, 55, 33
1, 240486, Control_c, 0, 67, 110
1, 240512, Note_on_c, 0, 63, 30
1, 240545, Control_c, 0, 67, 112
1, 240560, Control_c, 0, 64, 84
1, 240572, Poly_aftertouch_c, 0, 64, 127
1, 240575, Control_c, 0, 64, 66
1, 240590, Control_c, 0, 64, 51
1, 240590, Control_c, 0, 67, 114
1, 240605, Control_c, 0, 64, 33
1, 240620, Control_c, 0, 64, 0
1, 240634, Control_c, 0, 67, 126
1, 240679, Control_c, 0, 64, 28
1, 240694, Control_c, 0, 64, 35
1, 240709, Control_c, 0, 64, 44
1, 240724, Control_c, 0, 64, 53
1, 240738, Control_c, 0, 64, 59
1, 240753, Control_c, 0, 64, 62
1, 240768, Control_c, 0, 64, 64
1, 240784, Control_c, 0, 64, 67
1, 240798, Control_c, 0, 64, 72
1, 240813, Control_c, 0, 64, 76
1, 240828, Control_c, 0, 64, 81
1, 240843, Control_c, 0, 64, 86
1, 240857, Note_off_c, 0, 58, 49
1, 240858, Control_c, 0, 64, 91
1, 240872, Control_c, 0, 64, 99
1, 240887, Control_c, 0, 64, 108
1, 240889, Note_off_c, 0, 50, 36
1, 240902, Control_c, 0, 64, 127
1, 240909, Note_off_c, 0, 55, 42
1, 241424, Note_on_c, 0, 47, 32
1, 241434, Note_on_c, 0, 56, 32
1, 241445, Note_on_c, 0, 52, 36
1, 241473, Control_c, 0, 64, 108
1, 241487, Control_c, 0, 64, 82
1, 241502, Control_c, 0, 64, 66
1, 241517, Control_c, 0, 64, 54
1, 241532, Control_c, 0, 64, 46
1, 241547, Control_c, 0, 64, 45
1, 241562, Control_c, 0, 64, 47
1, 241576, Control_c, 0, 64, 52
1, 241591, Control_c, 0, 64, 57
1, 241606, Control_c, 0, 64, 60
1, 241621, Control_c, 0, 64, 63
1, 241636, Control_c, 0, 64, 65
1, 241651, Control_c, 0, 64, 68
1, 241666, Control_c, 0, 64, 71
1, 241680, Control_c, 0, 64, 75
1, 241695, Control_c, 0, 64, 79
1, 241710, Control_c, 0, 64, 83
1, 241725, Control_c, 0, 64, 88
1, 241747, Control_c, 0, 64, 94
1, 241762, Control_c, 0, 64, 99
1, 241776, Control_c, 0, 64, 105
1, 241791, Control_c, 0, 64, 117
1, 241795, Note_off_c, 0, 63, 37
1, 241806, Control_c, 0, 64, 127
1, 241830, Poly_aftertouch_c, 0, 64, 0
1, 241834, Note_off_c, 0, 61, 59
1, 241916, Note_off_c, 0, 56, 41
1, 241962, Note_off_c, 0, 52, 36
1, 242034, Note_off_c, 0, 47, 40
1, 242047, Note_on_c, 0, 59, 65
1, 242061, Note_on_c, 0, 66, 54
1, 242107, Note_on_c, 0, 62, 23
1, 242119, Note_on_c, 0, 61, 9
1, 242161, Note_off_c, 0, 68, 34
1, 242163, Control_c, 0, 67, 114
1, 242178, Control_c, 0, 67, 82
1, 242192, Control_c, 0, 67, 58
1, 242207, Control_c, 0, 67, 41
1, 242222, Control_c, 0, 67, 0
1, 242244, Note_off_c, 0, 59, 63
1, 242262, Note_off_c, 0, 61, 42
1, 242265, Note_off_c, 0, 62, 43
1, 242384, Control_c, 0, 67, 34
1, 242399, Control_c, 0, 67, 36
1, 242402, Note_off_c, 0, 66, 38
1, 242414, Control_c, 0, 67, 39
1, 242428, Control_c, 0, 67, 42
1, 242443, Control_c, 0, 67, 45
1, 242458, Control_c, 0, 67, 49
1, 242462, Note_on_c, 0, 61, 53
1, 242473, Control_c, 0, 64, 110
1, 242473, Control_c, 0, 67, 57
1, 242489, Note_on_c, 0, 68, 57
1, 242495, Control_c, 0, 64, 76
1, 242495, Control_c, 0, 67, 70
1, 242501, Note_on_c, 0, 63, 47
1, 242504, Note_on_c, 0, 25, 46
1, 242509, Control_c, 0, 64, 59
1, 242509, Control_c, 0, 67, 91
1, 242524, Control_c, 0, 64, 37
1, 242524, Control_c, 0, 67, 114
1, 242530, Note_on_c, 0, 64, 15
1, 242539, Control_c, 0, 64, 0
1, 242539, Control_c, 0, 67, 127
1, 242584, Control_c, 0, 64, 33
1, 242599, Control_c, 0, 64, 47
1, 242614, Control_c, 0, 64, 57
1, 242629, Control_c, 0, 64, 64
1, 242631, Note_off_c, 0, 64, 0
1, 242643, Control_c, 0, 64, 69
1, 242659, Control_c, 0, 64, 75
1, 242668, Poly_aftertouch_c, 0, 64, 127
1, 242673, Control_c, 0, 64, 80
1, 242688, Control_c, 0, 64, 85
1, 242689, Note_off_c, 0, 61, 63
1, 242703, Control_c, 0, 64, 92
1, 242718, Control_c, 0, 64, 100
1, 242727, Note_off_c, 0, 63, 46
1, 242729, Note_off_c, 0, 68, 61
1, 242733, Control_c, 0, 64, 112
1, 242734, Poly_aftertouch_c, 0, 64, 0
1, 242748, Control_c, 0, 64, 127
1, 243018, Note_on_c, 0, 67, 65
1, 243028, Note_on_c, 0, 74, 64
1, 243055, Note_on_c, 0, 70, 44
1, 243058, Note_on_c, 0, 69, 41
1, 243085, Note_off_c, 0, 74, 64
1, 243088, Note_off_c, 0, 70, 66
1, 243088, Note_off_c, 0, 69, 63
1, 243089, Note_off_c, 0, 67, 63
1, 243666, Note_off_c, 0, 25, 56
1, 243688, Note_on_c, 0, 68, 51
1, 243704, Note_on_c, 0, 61, 40
1, 243726, Note_on_c, 0, 64, 35
1, 243732, Note_on_c, 0, 63, 28
1, 244182, Note_on_c, 0, 55, 44
1, 244184, Note_on_c, 0, 46, 40
1, 244194, Note_on_c, 0, 51, 41
1, 244321, Note_off_c, 0, 55, 59
1, 244342, Note_off_c, 0, 51, 60
1, 244363, Note_off_c, 0, 46, 60
1, 244585, Note_on_c, 0, 52, 55
1, 244585, Control_c, 0, 64, 100
1, 244593, Note_on_c, 0, 44, 53
1, 244597, Note_on_c, 0, 49, 55
1, 244600, Control_c, 0, 64, 75
1, 244615, Control_c, 0, 64, 61
1, 244629, Control_c, 0, 64, 52
1, 244644, Control_c, 0, 64, 55
1, 244659, Control_c, 0, 64, 61
1, 244674, Control_c, 0, 64, 67
1, 244689, Control_c, 0, 64, 75
1, 244703, Control_c, 0, 64, 86
1, 244718, Control_c, 0, 64, 96
1, 244740, Note_off_c, 0, 63, 53
1, 244741, Control_c, 0, 64, 110
1, 244741, Control_c, 0, 67, 103
1, 244756, Control_c, 0, 64, 127
1, 244756, Control_c, 0, 67, 74
1, 244758, Note_off_c, 0, 64, 41
1, 244771, Control_c, 0, 67, 38
1, 244772, Note_off_c, 0, 61, 64
1, 244785, Control_c, 0, 67, 0
1, 244823, Note_off_c, 0, 52, 61
1, 244858, Note_off_c, 0, 49, 61
1, 244906, Note_off_c, 0, 44, 60
1, 244963, Note_on_c, 0, 66, 67
1, 244972, Note_on_c, 0, 59, 63
1, 244979, Note_on_c, 0, 62, 50
1, 244982, Note_on_c, 0, 61, 48
1, 245092, Note_off_c, 0, 62, 61
1, 245099, Note_off_c, 0, 61, 63
1, 245103, Note_off_c, 0, 68, 30
1, 245107, Note_off_c, 0, 59, 63
1, 245146, Note_off_c, 0, 66, 63
1, 245326, Note_on_c, 0, 25, 58
1, 245334, Control_c, 0, 64, 95
1, 245345, Note_on_c, 0, 68, 69
1, 245349, Control_c, 0, 64, 64
1, 245350, Note_on_c, 0, 61, 72
1, 245361, Note_on_c, 0, 63, 55
1, 245364, Note_on_c, 0, 64, 54
1, 245364, Control_c, 0, 64, 40
1, 245379, Control_c, 0, 64, 0
1, 245394, Control_c, 0, 64, 27
1, 245408, Control_c, 0, 64, 46
1, 245423, Control_c, 0, 64, 62
1, 245438, Control_c, 0, 64, 76
1, 245452, Control_c, 0, 64, 127
1, 245455, Note_off_c, 0, 25, 61
1, 245481, Note_off_c, 0, 61, 64
1, 245509, Note_off_c, 0, 64, 64
1, 245511, Note_off_c, 0, 63, 63
1, 245526, Note_off_c, 0, 68, 59
1, 245804, Note_on_c, 0, 70, 88
1, 245807, Note_on_c, 0, 77, 74
1, 245814, Note_on_c, 0, 74, 61
1, 245821, Note_on_c, 0, 71, 57
1, 245824, Note_on_c, 0, 72, 54
1, 245831, Note_on_c, 0, 69, 53
1, 245833, Note_on_c, 0, 62, 43
1, 245844, Note_on_c, 0, 65, 37
1, 245947, Note_off_c, 0, 71, 60
1, 245967, Note_off_c, 0, 69, 61
1, 245997, Note_off_c, 0, 65, 62
1, 245999, Note_off_c, 0, 77, 60
1, 246013, Note_off_c, 0, 62, 62
1, 246029, Note_off_c, 0, 74, 59
1, 246035, Note_off_c, 0, 72, 58
1, 246058, Note_off_c, 0, 70, 57
1, 246378, Note_on_c, 0, 68, 72
1, 246379, Note_on_c, 0, 75, 68
1, 246385, Note_on_c, 0, 61, 40
1, 246396, Note_on_c, 0, 64, 44
1, 246400, Note_on_c, 0, 66, 52
1, 246431, Control_c, 0, 64, 99
1, 246435, Note_on_c, 0, 70, 27
1, 246446, Note_on_c, 0, 71, 26
1, 246446, Control_c, 0, 64, 72
1, 246461, Control_c, 0, 64, 53
1, 246476, Control_c, 0, 64, 0
1, 246520, Control_c, 0, 64, 32
1, 246535, Control_c, 0, 64, 47
1, 246549, Control_c, 0, 64, 61
1, 246549, Control_c, 0, 67, 38
1, 246564, Control_c, 0, 64, 69
1, 246564, Control_c, 0, 67, 51
1, 246579, Control_c, 0, 64, 79
1, 246579, Control_c, 0, 67, 61
1, 246594, Control_c, 0, 64, 88
1, 246594, Control_c, 0, 67, 70
1, 246598, Note_off_c, 0, 70, 37
1, 246605, Note_off_c, 0, 61, 62
1, 246608, Control_c, 0, 64, 99
1, 246608, Control_c, 0, 67, 76
1, 246623, Control_c, 0, 64, 127
1, 246623, Control_c, 0, 67, 80
1, 246624, Note_off_c, 0, 71, 35
1, 246630, Note_off_c, 0, 64, 56
1, 246630, Note_off_c, 0, 66, 54
1, 246638, Control_c, 0, 67, 83
1, 246654, Control_c, 0, 67, 85
1, 246669, Control_c, 0, 67, 86
1, 246684, Note_off_c, 0, 75, 62
1, 246684, Control_c, 0, 67, 91
1, 246698, Control_c, 0, 67, 97
1, 246713, Control_c, 0, 67, 103
1, 246726, Note_off_c, 0, 68, 57
1, 246728, Control_c, 0, 67, 107
1, 246743, Control_c, 0, 67, 112
1, 246758, Control_c, 0, 67, 116
1, 246772, Control_c, 0, 67, 120
1, 246787, Control_c, 0, 67, 123
1, 246802, Control_c, 0, 67, 127
1, 246862, Control_c, 0, 64, 122
1, 246865, Note_on_c, 0, 67, 66
1, 246867, Note_on_c, 0, 74, 63
1, 246877, Control_c, 0, 64, 79
1, 246882, Note_on_c, 0, 62, 38
1, 246887, Note_on_c, 0, 65, 49
1, 246889, Note_on_c, 0, 60, 27
1, 246891, Control_c, 0, 64, 63
1, 246897, Note_on_c, 0, 57, 42
1, 246906, Control_c, 0, 64, 49
1, 246907, Note_on_c, 0, 69, 26
1, 246917, Note_on_c, 0, 70, 23
1, 246921, Control_c, 0, 64, 46
1, 246936, Control_c, 0, 64, 49
1, 246951, Control_c, 0, 64, 56
1, 246966, Control_c, 0, 64, 63
1, 246987, Control_c, 0, 64, 70
1, 247002, Control_c, 0, 64, 80
1, 247015, Note_off_c, 0, 74, 59
1, 247017, Control_c, 0, 64, 88
1, 247020, Note_off_c, 0, 65, 61
1, 247032, Control_c, 0, 64, 93
1, 247046, Control_c, 0, 64, 97
1, 247049, Note_off_c, 0, 62, 63
1, 247061, Note_off_c, 0, 69, 41
1, 247061, Control_c, 0, 64, 99
1, 247063, Note_off_c, 0, 60, 55
1, 247064, Note_off_c, 0, 70, 37
1, 247070, Note_off_c, 0, 67, 61
1, 247072, Note_off_c, 0, 57, 60
1, 247076, Control_c, 0, 64, 103
1, 247091, Control_c, 0, 64, 108
1, 247106, Control_c, 0, 64, 113
1, 247121, Control_c, 0, 64, 121
1, 247136, Control_c, 0, 64, 127
1, 247361, Note_on_c, 0, 64, 50
1, 247362, Note_on_c, 0, 56, 38
1, 247364, Note_on_c, 0, 59, 38
1, 247365, Note_on_c, 0, 71, 49
1, 247365, Note_on_c, 0, 61, 34
1, 247378, Note_on_c, 0, 66, 38
1, 247387, Control_c, 0, 64, 96
1, 247394, Note_on_c, 0, 68, 29
1, 247402, Control_c, 0, 64, 75
1, 247417, Control_c, 0, 64, 57
1, 247431, Control_c, 0, 64, 0
1, 247507, Control_c, 0, 64, 37
1, 247522, Control_c, 0, 64, 52
1, 247537, Control_c, 0, 64, 63
1, 247552, Control_c, 0, 64, 70
1, 247567, Control_c, 0, 64, 79
1, 247582, Control_c, 0, 64, 88
1, 247596, Control_c, 0, 64, 105
1, 247596, Control_c, 0, 67, 124
1, 247611, Control_c, 0, 64, 127
1, 247611, Control_c, 0, 67, 106
1, 247626, Control_c, 0, 67, 87
1, 247637, Note_off_c, 0, 64, 61
1, 247641, Control_c, 0, 67, 70
1, 247655, Control_c, 0, 67, 53
1, 247670, Control_c, 0, 67, 42
1, 247684, Note_off_c, 0, 66, 58
1, 247685, Control_c, 0, 67, 0
1, 247717, Note_off_c, 0, 71, 59
1, 247759, Note_off_c, 0, 68, 40
1, 248007, Note_on_c, 0, 76, 73
1, 248011, Note_on_c, 0, 68, 78
1, 248038, Note_on_c, 0, 71, 49
1, 248041, Note_on_c, 0, 73, 50
1, 248157, Note_off_c, 0, 68, 60
1, 248167, Note_off_c, 0, 59, 59
1, 248197, Note_off_c, 0, 56, 61
1, 248202, Note_off_c, 0, 71, 36
1, 248221, Note_off_c, 0, 61, 40
1, 248273, Note_off_c, 0, 73, 0
1, 248289, Note_on_c, 0, 70, 98
1, 248292, Note_on_c, 0, 73, 31
1, 248409, Note_off_c, 0, 70, 56
1, 248481, Note_on_c, 0, 71, 98
1, 248511, Note_off_c, 0, 76, 62
1, 248512, Note_off_c, 0, 73, 53
1, 248528, Note_off_c, 0, 71, 67
1, 248568, Note_on_c, 0, 64, 65
1, 248632, Note_on_c, 0, 68, 67
1, 248835, Note_on_c, 0, 73, 84
1, 248840, Note_on_c, 0, 80, 73
1, 248856, Control_c, 0, 64, 93
1, 248858, Note_on_c, 0, 71, 60
1, 248871, Control_c, 0, 64, 72
1, 248886, Control_c, 0, 64, 52
1, 248901, Control_c, 0, 64, 0
1, 249018, Control_c, 0, 64, 41
1, 249033, Control_c, 0, 64, 57
1, 249049, Control_c, 0, 64, 66
1, 249064, Control_c, 0, 64, 75
1, 249072, Note_off_c, 0, 71, 59
1, 249079, Control_c, 0, 64, 86
1, 249084, Note_off_c, 0, 68, 62
1, 249085, Note_off_c, 0, 64, 63
1, 249093, Control_c, 0, 64, 101
1, 249108, Control_c, 0, 64, 127
1, 249479, Note_on_c, 0, 56, 59
1, 249495, Note_off_c, 0, 73, 60
1, 249526, Note_off_c, 0, 80, 61
1, 249586, Note_off_c, 0, 56, 57
1, 249747, Note_on_c, 0, 75, 73
1, 249759, Note_on_c, 0, 82, 60
1, 249795, Note_on_c, 0, 78, 37
1, 249878, Poly_aftertouch_c, 0, 76, 127
1, 249998, Control_c, 0, 67, 42
1, 250009, Note_on_c, 0, 73, 65
1, 250012, Control_c, 0, 67, 58
1, 250019, Note_on_c, 0, 66, 46
1, 250024, Note_on_c, 0, 70, 56
1, 250027, Note_on_c, 0, 63, 51
1, 250027, Control_c, 0, 67, 74
1, 250042, Control_c, 0, 67, 89
1, 250057, Control_c, 0, 67, 99
1, 250069, Note_off_c, 0, 73, 63
1, 250072, Note_off_c, 0, 70, 61
1, 250072, Control_c, 0, 67, 105
1, 250087, Control_c, 0, 67, 107
1, 250090, Note_off_c, 0, 66, 63
1, 250092, Note_off_c, 0, 63, 60
1, 250264, Control_c, 0, 67, 105
1, 250323, Control_c, 0, 67, 103
1, 250353, Control_c, 0, 67, 101
1, 250382, Control_c, 0, 67, 99
1, 250397, Control_c, 0, 67, 97
1, 250412, Control_c, 0, 67, 95
1, 250427, Control_c, 0, 67, 93
1, 250442, Note_on_c, 0, 56, 54
1, 250442, Control_c, 0, 67, 91
1, 250457, Control_c, 0, 67, 88
1, 250471, Control_c, 0, 67, 84
1, 250486, Control_c, 0, 67, 80
1, 250501, Control_c, 0, 67, 75
1, 250516, Control_c, 0, 67, 64
1, 250531, Control_c, 0, 67, 46
1, 250542, Note_off_c, 0, 82, 59
1, 250546, Control_c, 0, 67, 0
1, 250549, Note_off_c, 0, 75, 58
1, 250559, Note_off_c, 0, 56, 61
1, 250578, Poly_aftertouch_c, 0, 76, 0
1, 250582, Note_off_c, 0, 78, 55
1, 250898, Note_on_c, 0, 64, 45
1, 250959, Note_on_c, 0, 68, 39
1, 250999, Control_c, 0, 64, 122
1, 251011, Note_on_c, 0, 73, 73
1, 251012, Note_on_c, 0, 80, 71
1, 251014, Control_c, 0, 64, 81
1, 251017, Note_on_c, 0, 71, 55
1, 251029, Control_c, 0, 64, 62
1, 251031, Note_on_c, 0, 76, 64
1, 251044, Control_c, 0, 64, 43
1, 251059, Control_c, 0, 64, 30
1, 251073, Control_c, 0, 64, 36
1, 251088, Control_c, 0, 64, 52
1, 251103, Control_c, 0, 64, 64
1, 251118, Control_c, 0, 64, 74
1, 251133, Control_c, 0, 64, 89
1, 251143, Note_off_c, 0, 71, 56
1, 251147, Control_c, 0, 64, 111
1, 251162, Control_c, 0, 64, 127
1, 251193, Note_off_c, 0, 80, 62
1, 251203, Note_off_c, 0, 64, 52
1, 251215, Note_off_c, 0, 73, 61
1, 251220, Note_off_c, 0, 76, 63
1, 251245, Note_off_c, 0, 68, 36
1, 251334, Note_on_c, 0, 71, 94
1, 251337, Note_on_c, 0, 78, 84
1, 251346, Note_on_c, 0, 69, 58
1, 251352, Note_on_c, 0, 62, 37
1, 251353, Note_on_c, 0, 66, 60
1, 251362, Note_on_c, 0, 75, 56
1, 251384, Note_off_c, 0, 69, 61
1, 251400, Note_off_c, 0, 62, 61
1, 251422, Note_off_c, 0, 66, 62
1, 251428, Note_off_c, 0, 71, 62
1, 251562, Note_on_c, 0, 70, 96
1, 251579, Note_on_c, 0, 68, 67
1, 251582, Note_on_c, 0, 61, 60
1, 251589, Note_on_c, 0, 64, 61
1, 251626, Note_off_c, 0, 75, 58
1, 251626, Note_off_c, 0, 78, 58
1, 251629, Note_off_c, 0, 64, 63
1, 251640, Note_off_c, 0, 61, 59
1, 251641, Note_off_c, 0, 68, 60
1, 251667, Note_off_c, 0, 70, 61
1, 251759, Note_on_c, 0, 71, 77
1, 251763, Control_c, 0, 64, 100
1, 251773, Note_on_c, 0, 78, 68
1, 251777, Control_c, 0, 64, 66
1, 251778, Note_on_c, 0, 67, 62
1, 251780, Note_on_c, 0, 75, 58
1, 251783, Note_on_c, 0, 60, 53
1, 251792, Control_c, 0, 64, 38
1, 251805, Note_on_c, 0, 63, 52
1, 251805, Note_on_c, 0, 73, 33
1, 251807, Control_c, 0, 64, 0
1, 251896, Control_c, 0, 64, 38
1, 251911, Control_c, 0, 64, 53
1, 251926, Control_c, 0, 64, 62
1, 251941, Control_c, 0, 64, 67
1, 251955, Control_c, 0, 64, 70
1, 251957, Note_off_c, 0, 67, 58
1, 251970, Control_c, 0, 64, 74
1, 251977, Note_off_c, 0, 60, 63
1, 251985, Control_c, 0, 64, 80
1, 251992, Note_off_c, 0, 63, 61
1, 252000, Control_c, 0, 64, 87
1, 252015, Control_c, 0, 64, 95
1, 252029, Control_c, 0, 64, 107
1, 252044, Control_c, 0, 64, 127
1, 252121, Note_off_c, 0, 78, 52
1, 252131, Note_off_c, 0, 71, 57
1, 252183, Note_off_c, 0, 75, 60
1, 252187, Note_off_c, 0, 73, 7
1, 252207, Control_c, 0, 67, 36
1, 252211, Note_on_c, 0, 56, 59
1, 252229, Control_c, 0, 67, 59
1, 252245, Control_c, 0, 67, 90
1, 252260, Control_c, 0, 67, 114
1, 252275, Control_c, 0, 67, 127
1, 252305, Note_off_c, 0, 56, 58
1, 252602, Note_on_c, 0, 66, 68
1, 252663, Note_off_c, 0, 66, 63
1, 252723, Note_on_c, 0, 59, 35
1, 252732, Note_on_c, 0, 61, 41
1, 252775, Note_on_c, 0, 64, 42
1, 252789, Note_on_c, 0, 68, 55
1, 252806, Note_on_c, 0, 76, 44
1, 252822, Control_c, 0, 64, 87
1, 252830, Note_on_c, 0, 66, 47
1, 252836, Note_on_c, 0, 71, 37
1, 252837, Control_c, 0, 64, 66
1, 252851, Control_c, 0, 64, 43
1, 252865, Note_on_c, 0, 73, 7
1, 252866, Control_c, 0, 64, 0
1, 253007, Control_c, 0, 64, 34
1, 253022, Control_c, 0, 64, 45
1, 253037, Control_c, 0, 64, 55
1, 253053, Control_c, 0, 64, 62
1, 253067, Control_c, 0, 64, 65
1, 253082, Control_c, 0, 64, 68
1, 253097, Control_c, 0, 64, 72
1, 253112, Control_c, 0, 64, 79
1, 253113, Note_off_c, 0, 66, 62
1, 253121, Note_off_c, 0, 64, 57
1, 253127, Control_c, 0, 64, 86
1, 253141, Control_c, 0, 64, 94
1, 253149, Note_off_c, 0, 61, 61
1, 253156, Control_c, 0, 64, 102
1, 253171, Control_c, 0, 64, 117
1, 253174, Note_off_c, 0, 59, 49
1, 253186, Control_c, 0, 64, 127
1, 253422, Note_on_c, 0, 49, 45
1, 253480, Note_off_c, 0, 68, 61
1, 253512, Control_c, 0, 67, 120
1, 253527, Control_c, 0, 67, 102
1, 253536, Note_off_c, 0, 71, 40
1, 253538, Note_off_c, 0, 76, 37
1, 253542, Control_c, 0, 67, 88
1, 253557, Note_off_c, 0, 49, 59
1, 253557, Control_c, 0, 67, 76
1, 253572, Control_c, 0, 67, 67
1, 253577, Note_off_c, 0, 73, 41
1, 253586, Control_c, 0, 67, 59
1, 253601, Control_c, 0, 67, 51
1, 253616, Control_c, 0, 67, 44
1, 253631, Control_c, 0, 67, 38
1, 253646, Control_c, 0, 67, 35
1, 253660, Control_c, 0, 67, 0
1, 254066, Note_on_c, 0, 68, 60
1, 254079, Note_on_c, 0, 76, 48
1, 254093, Note_on_c, 0, 56, 31
1, 254108, Note_on_c, 0, 61, 26
1, 254111, Note_on_c, 0, 64, 33
1, 254133, Note_on_c, 0, 59, 33
1, 254144, Poly_aftertouch_c, 0, 71, 127
1, 254196, Poly_aftertouch_c, 0, 71, 0
1, 254217, Note_off_c, 0, 68, 60
1, 254280, Note_off_c, 0, 76, 27
1, 254471, Note_on_c, 0, 80, 71
1, 254474, Note_on_c, 0, 71, 73
1, 254507, Note_on_c, 0, 73, 34
1, 254511, Note_off_c, 0, 80, 59
1, 254518, Note_off_c, 0, 71, 61
1, 254537, Note_off_c, 0, 73, 50
1, 254558, Note_off_c, 0, 64, 44
1, 254615, Note_off_c, 0, 56, 47
1, 254638, Note_off_c, 0, 61, 36
1, 254704, Note_on_c, 0, 74, 78
1, 254707, Note_on_c, 0, 66, 81
1, 254726, Note_on_c, 0, 69, 42
1, 254728, Note_off_c, 0, 59, 40
1, 254752, Note_off_c, 0, 74, 63
1, 254757, Note_off_c, 0, 69, 55
1, 254761, Note_off_c, 0, 66, 64
1, 254773, Poly_aftertouch_c, 0, 71, 127
1, 254814, Poly_aftertouch_c, 0, 71, 0
1, 254823, Note_on_c, 0, 54, 52
1, 254826, Note_on_c, 0, 62, 61
1, 254841, Note_on_c, 0, 57, 53
1, 254931, Note_on_c, 0, 69, 92
1, 254936, Note_on_c, 0, 78, 84
1, 254941, Note_on_c, 0, 74, 72
1, 254943, Note_on_c, 0, 71, 48
1, 254964, Note_off_c, 0, 74, 69
1, 254970, Note_off_c, 0, 71, 54
1, 254973, Note_off_c, 0, 69, 67
1, 254976, Note_off_c, 0, 78, 62
1, 255042, Note_off_c, 0, 62, 58
1, 255047, Note_off_c, 0, 57, 60
1, 255086, Note_off_c, 0, 54, 61
1, 255107, Note_on_c, 0, 64, 97
1, 255110, Note_on_c, 0, 73, 88
1, 255114, Note_on_c, 0, 66, 75
1, 255121, Note_on_c, 0, 69, 71
1, 255137, Note_off_c, 0, 64, 66
1, 255140, Note_off_c, 0, 66, 69
1, 255140, Note_off_c, 0, 69, 71
1, 255151, Note_off_c, 0, 73, 64
1, 255187, Note_on_c, 0, 53, 80
1, 255254, Note_on_c, 0, 59, 72
1, 255328, Control_c, 0, 64, 93
1, 255343, Control_c, 0, 64, 55
1, 255358, Control_c, 0, 64, 0
1, 255359, Note_on_c, 0, 68, 103
1, 255363, Note_on_c, 0, 64, 97
1, 255365, Note_on_c, 0, 75, 86
1, 255374, Note_on_c, 0, 70, 77
1, 255381, Note_on_c, 0, 71, 72
1, 255392, Note_off_c, 0, 64, 71
1, 255398, Note_off_c, 0, 59, 65
1, 255402, Control_c, 0, 64, 27
1, 255415, Note_off_c, 0, 53, 67
1, 255417, Control_c, 0, 64, 68
1, 255432, Control_c, 0, 64, 127
1, 255484, Poly_aftertouch_c, 0, 55, 0
1, 255797, Note_on_c, 0, 31, 65
1, 255803, Note_on_c, 0, 43, 88
1, 255852, Note_off_c, 0, 31, 62
1, 255883, Note_off_c, 0, 43, 61
1, 255906, Note_off_c, 0, 75, 55
1, 255930, Note_off_c, 0, 71, 58
1, 255933, Note_off_c, 0, 70, 61
1, 255963, Note_off_c, 0, 68, 56
1, 256198, Note_on_c, 0, 73, 71
1, 256200, Note_on_c, 0, 66, 76
1, 256204, Note_on_c, 0, 69, 68
1, 256231, Note_on_c, 0, 53, 58
1, 256234, Note_on_c, 0, 59, 67
1, 256395, Note_off_c, 0, 66, 53
1, 256404, Note_off_c, 0, 69, 52
1, 256418, Note_off_c, 0, 73, 51
1, 256481, Note_on_c, 0, 64, 94
1, 256532, Note_off_c, 0, 64, 66
1, 256564, Note_off_c, 0, 53, 58
1, 256598, Note_off_c, 0, 59, 60
1, 256657, Note_on_c, 0, 63, 100
1, 256759, Note_on_c, 0, 52, 67
1, 256764, Note_off_c, 0, 63, 59
1, 256853, Note_on_c, 0, 58, 64
1, 256884, Control_c, 0, 64, 74
1, 256889, Note_on_c, 0, 64, 85
1, 256898, Control_c, 0, 64, 33
1, 256904, Note_on_c, 0, 71, 70
1, 256913, Control_c, 0, 64, 0
1, 256916, Note_on_c, 0, 68, 66
1, 256927, Note_on_c, 0, 66, 51
1, 256958, Control_c, 0, 64, 50
1, 256973, Note_off_c, 0, 58, 64
1, 256973, Control_c, 0, 64, 63
1, 256988, Control_c, 0, 64, 76
1, 256998, Note_off_c, 0, 52, 63
1, 257003, Control_c, 0, 64, 93
1, 257017, Control_c, 0, 64, 127
1, 257069, Note_off_c, 0, 66, 0
1, 257106, Poly_aftertouch_c, 0, 66, 127
1, 257119, Note_off_c, 0, 71, 56
1, 257179, Note_off_c, 0, 64, 62
1, 257181, Poly_aftertouch_c, 0, 66, 0
1, 257182, Note_off_c, 0, 68, 59
1, 257211, Note_on_c, 0, 48, 78
1, 257219, Note_on_c, 0, 36, 65
1, 257357, Note_off_c, 0, 36, 59
1, 257411, Note_off_c, 0, 48, 62
1, 257432, Note_on_c, 0, 59, 88
1, 257484, Note_off_c, 0, 59, 63
1, 257527, Note_on_c, 0, 61, 87
1, 257537, Note_on_c, 0, 68, 84
1, 257544, Note_on_c, 0, 64, 75
1, 257546, Note_on_c, 0, 63, 65
1, 257576, Note_off_c, 0, 63, 62
1, 257608, Note_off_c, 0, 68, 59
1, 257616, Note_off_c, 0, 61, 62
1, 257620, Note_off_c, 0, 64, 61
1, 257805, Note_on_c, 0, 52, 75
1, 257807, Note_on_c, 0, 58, 91
1, 257863, Note_off_c, 0, 52, 62
1, 257875, Note_off_c, 0, 58, 61
1, 257974, Note_on_c, 0, 51, 82
1, 258014, Note_on_c, 0, 57, 72
1, 258123, Control_c, 0, 64, 87
1, 258135, Note_on_c, 0, 62, 80
1, 258138, Control_c, 0, 64, 58
1, 258147, Note_on_c, 0, 73, 83
1, 258148, Note_on_c, 0, 66, 101
1, 258153, Control_c, 0, 64, 0
1, 258159, Note_on_c, 0, 68, 75
1, 258159, Note_on_c, 0, 69, 72
1, 258264, Note_off_c, 0, 62, 62
1, 258264, Control_c, 0, 64, 57
1, 258278, Control_c, 0, 64, 73
1, 258293, Control_c, 0, 64, 92
1, 258299, Note_off_c, 0, 57, 62
1, 258308, Control_c, 0, 64, 127
1, 258343, Note_off_c, 0, 51, 56
1, 258355, Note_off_c, 0, 66, 60
1, 258490, Note_on_c, 0, 64, 98
1, 258537, Note_off_c, 0, 69, 53
1, 258542, Note_off_c, 0, 68, 52
1, 258676, Note_on_c, 0, 29, 71
1, 258677, Note_on_c, 0, 41, 91
1, 258701, Note_off_c, 0, 64, 58
1, 258720, Note_off_c, 0, 29, 62
1, 258746, Note_off_c, 0, 73, 44
1, 258758, Note_off_c, 0, 41, 62
1, 258895, Note_on_c, 0, 63, 102
1, 258928, Note_on_c, 0, 62, 52
1, 258959, Note_off_c, 0, 62, 61
1, 259071, Note_off_c, 0, 63, 55
1, 259075, Note_on_c, 0, 51, 77
1, 259092, Note_on_c, 0, 57, 77
1, 259292, Note_on_c, 0, 64, 90
1, 259298, Note_on_c, 0, 71, 76
1, 259318, Note_on_c, 0, 68, 69
1, 259363, Note_off_c, 0, 71, 57
1, 259375, Note_off_c, 0, 64, 62
1, 259447, Note_off_c, 0, 68, 37
1, 259455, Note_off_c, 0, 57, 57
1, 259474, Note_off_c, 0, 51, 49
1, 259513, Note_on_c, 0, 59, 97
1, 259564, Note_off_c, 0, 59, 62
1, 259614, Note_on_c, 0, 50, 70
1, 259709, Note_on_c, 0, 56, 66
1, 259746, Control_c, 0, 64, 67
1, 259750, Note_on_c, 0, 61, 95
1, 259760, Control_c, 0, 64, 0
1, 259763, Note_on_c, 0, 68, 74
1, 259773, Note_on_c, 0, 63, 63
1, 259794, Note_on_c, 0, 64, 41
1, 259834, Control_c, 0, 64, 55
1, 259849, Control_c, 0, 64, 69
1, 259864, Control_c, 0, 64, 83
1, 259871, Note_off_c, 0, 56, 63
1, 259879, Control_c, 0, 64, 109
1, 259894, Note_off_c, 0, 50, 63
1, 259894, Control_c, 0, 64, 127
1, 259972, Note_off_c, 0, 61, 60
1, 259989, Note_off_c, 0, 63, 63
1, 259998, Note_off_c, 0, 68, 59
1, 260010, Note_off_c, 0, 64, 44
1, 260067, Note_on_c, 0, 46, 94
1, 260073, Note_on_c, 0, 34, 86
1, 260126, Note_off_c, 0, 34, 62
1, 260140, Note_off_c, 0, 46, 59
1, 260252, Note_on_c, 0, 64, 100
1, 260261, Note_on_c, 0, 71, 88
1, 260271, Note_on_c, 0, 66, 81
1, 260275, Note_on_c, 0, 68, 72
1, 260355, Control_c, 0, 64, 72
1, 260370, Control_c, 0, 64, 44
1, 260384, Control_c, 0, 64, 0
1, 260475, Note_on_c, 0, 60, 99
1, 260478, Note_on_c, 0, 49, 85
1, 260481, Control_c, 0, 64, 63
1, 260487, Note_on_c, 0, 55, 83
1, 260491, Note_off_c, 0, 71, 62
1, 260496, Control_c, 0, 64, 91
1, 260499, Note_off_c, 0, 64, 66
1, 260505, Note_off_c, 0, 60, 65
1, 260508, Note_off_c, 0, 66, 61
1, 260510, Control_c, 0, 64, 127
1, 260511, Note_off_c, 0, 68, 61
1, 260531, Note_off_c, 0, 55, 65
1, 260549, Note_off_c, 0, 49, 67
1, 260748, Note_on_c, 0, 63, 100
1, 260756, Note_on_c, 0, 70, 87
1, 260765, Note_on_c, 0, 65, 68
1, 260768, Note_on_c, 0, 67, 65
1, 260851, Control_c, 0, 64, 71
1, 260866, Control_c, 0, 64, 0
1, 260911, Note_off_c, 0, 70, 56
1, 260918, Note_off_c, 0, 67, 59
1, 260922, Note_off_c, 0, 65, 60
1, 260925, Control_c, 0, 64, 42
1, 260937, Note_on_c, 0, 27, 76
1, 260940, Note_on_c, 0, 39, 106
1, 260940, Control_c, 0, 64, 74
1, 260948, Note_off_c, 0, 63, 61
1, 260955, Control_c, 0, 64, 127
1, 260976, Note_off_c, 0, 27, 65
1, 260992, Note_off_c, 0, 39, 66
1, 261159, Note_on_c, 0, 66, 87
1, 261161, Note_on_c, 0, 59, 97
1, 261185, Note_on_c, 0, 64, 67
1, 261193, Note_on_c, 0, 61, 51
1, 261240, Note_off_c, 0, 59, 64
1, 261270, Note_off_c, 0, 66, 62
1, 261279, Note_off_c, 0, 64, 59
1, 261290, Note_on_c, 0, 48, 81
1, 261307, Note_off_c, 0, 61, 27
1, 261373, Note_on_c, 0, 54, 76
1, 261625, Note_on_c, 0, 56, 104
1, 261656, Note_on_c, 0, 80, 72
1, 261668, Note_on_c, 0, 88, 62
1, 261674, Control_c, 0, 64, 91
1, 261689, Control_c, 0, 64, 59
1, 261701, Note_on_c, 0, 83, 42
1, 261704, Control_c, 0, 64, 0
1, 261712, Note_on_c, 0, 85, 27
1, 261823, Control_c, 0, 64, 37
1, 261838, Control_c, 0, 64, 59
1, 261853, Control_c, 0, 64, 67
1, 261867, Control_c, 0, 64, 77
1, 261882, Control_c, 0, 64, 99
1, 261897, Control_c, 0, 64, 127
1, 261931, Note_off_c, 0, 56, 61
1, 261957, Note_off_c, 0, 54, 59
1, 261997, Note_off_c, 0, 48, 60
1, 262190, Note_off_c, 0, 80, 60
1, 262230, Note_off_c, 0, 83, 49
1, 262255, Note_off_c, 0, 85, 57
1, 262255, Note_on_c, 0, 32, 70
1, 262256, Note_on_c, 0, 44, 90
1, 262260, Note_off_c, 0, 88, 64
1, 262330, Note_off_c, 0, 32, 61
1, 262366, Note_off_c, 0, 44, 63
1, 262663, Note_on_c, 0, 83, 100
1, 262673, Note_on_c, 0, 92, 85
1, 262678, Note_on_c, 0, 85, 71
1, 262705, Note_on_c, 0, 88, 49
1, 262834, Note_off_c, 0, 83, 62
1, 262835, Note_off_c, 0, 92, 64
1, 262851, Note_off_c, 0, 85, 60
1, 262856, Note_off_c, 0, 88, 61
1, 263075, Note_on_c, 0, 85, 101
1, 263087, Note_on_c, 0, 94, 78
1, 263092, Note_on_c, 0, 87, 67
1, 263096, Note_on_c, 0, 64, 84
1, 263106, Note_on_c, 0, 90, 51
1, 263179, Note_off_c, 0, 90, 53
1, 263182, Note_off_c, 0, 64, 59
1, 263192, Note_off_c, 0, 94, 60
1, 263211, Note_off_c, 0, 87, 63
1, 263352, Note_off_c, 0, 85, 50
1, 263519, Note_on_c, 0, 83, 90
1, 263532, Note_on_c, 0, 56, 83
1, 263537, Note_on_c, 0, 92, 67
1, 263548, Note_on_c, 0, 48, 63
1, 263548, Note_on_c, 0, 85, 51
1, 263556, Note_on_c, 0, 88, 41
1, 263563, Note_on_c, 0, 54, 57
1, 263661, Note_off_c, 0, 56, 63
1, 263662, Note_off_c, 0, 88, 46
1, 263679, Note_off_c, 0, 92, 64
1, 263689, Note_off_c, 0, 54, 62
1, 263707, Note_off_c, 0, 48, 61
1, 263719, Note_off_c, 0, 83, 62
1, 263722, Note_off_c, 0, 85, 60
1, 263963, Note_on_c, 0, 82, 98
1, 263970, Note_on_c, 0, 90, 84
1, 263980, Note_on_c, 0, 85, 77
1, 263981, Note_on_c, 0, 87, 68
1, 264024, Control_c, 0, 64, 70
1, 264039, Control_c, 0, 64, 0
1, 264082, Note_on_c, 0, 25, 65
1, 264083, Control_c, 0, 64, 51
1, 264085, Note_on_c, 0, 37, 92
1, 264098, Control_c, 0, 64, 70
1, 264112, Note_off_c, 0, 25, 65
1, 264113, Control_c, 0, 64, 103
1, 264127, Control_c, 0, 64, 127
1, 264133, Note_off_c, 0, 37, 63
1, 264216, Note_off_c, 0, 90, 58
1, 264278, Note_on_c, 0, 44, 85
1, 264348, Note_off_c, 0, 82, 52
1, 264397, Note_off_c, 0, 44, 64
1, 264397, Note_off_c, 0, 87, 37
1, 264401, Note_off_c, 0, 85, 45
1, 264418, Note_on_c, 0, 49, 88
1, 264446, Note_off_c, 0, 49, 66
1, 264691, Note_on_c, 0, 80, 95
1, 264694, Note_on_c, 0, 88, 77
1, 264704, Note_on_c, 0, 63, 81
1, 264708, Note_on_c, 0, 83, 68
1, 264710, Note_on_c, 0, 52, 56
1, 264720, Note_on_c, 0, 56, 65
1, 264723, Note_on_c, 0, 85, 52
1, 264750, Note_off_c, 0, 85, 59
1, 264840, Note_off_c, 0, 83, 60
1, 264863, Note_off_c, 0, 88, 60
1, 265057, Note_off_c, 0, 80, 54
1, 265331, Note_on_c, 0, 79, 76
1, 265336, Note_on_c, 0, 87, 64
1, 265358, Note_on_c, 0, 82, 54
1, 265364, Note_on_c, 0, 84, 48
1, 265396, Note_off_c, 0, 87, 63
1, 265397, Note_off_c, 0, 84, 65
1, 265401, Note_off_c, 0, 82, 56
1, 265411, Note_off_c, 0, 79, 62
1, 265781, Control_c, 0, 67, 42
1, 265796, Control_c, 0, 67, 50
1, 265811, Control_c, 0, 67, 58
1, 265826, Control_c, 0, 67, 69
1, 265841, Control_c, 0, 67, 82
1, 265856, Control_c, 0, 67, 96
1, 265871, Control_c, 0, 67, 114
1, 265886, Control_c, 0, 67, 126
1, 266029, Note_on_c, 0, 73, 71
1, 266038, Note_on_c, 0, 80, 63
1, 266050, Note_off_c, 0, 52, 59
1, 266055, Note_on_c, 0, 76, 49
1, 266061, Note_on_c, 0, 75, 42
1, 266064, Note_off_c, 0, 56, 62
1, 266065, Note_off_c, 0, 63, 62
1, 266634, Control_c, 0, 64, 94
1, 266640, Note_on_c, 0, 56, 48
1, 266649, Control_c, 0, 64, 80
1, 266664, Control_c, 0, 64, 69
1, 266679, Control_c, 0, 64, 62
1, 266694, Control_c, 0, 64, 55
1, 266708, Control_c, 0, 64, 52
1, 266723, Control_c, 0, 64, 51
1, 266738, Control_c, 0, 64, 50
1, 266753, Control_c, 0, 64, 49
1, 266768, Control_c, 0, 64, 47
1, 266783, Control_c, 0, 64, 45
1, 266798, Control_c, 0, 64, 43
1, 266813, Control_c, 0, 64, 41
1, 266827, Control_c, 0, 64, 38
1, 266842, Control_c, 0, 64, 34
1, 266857, Control_c, 0, 64, 29
1, 266871, Control_c, 0, 64, 0
1, 267383, Control_c, 0, 64, 30
1, 267398, Note_on_c, 0, 68, 40
1, 267398, Control_c, 0, 64, 38
1, 267413, Control_c, 0, 64, 45
1, 267429, Control_c, 0, 64, 52
1, 267443, Control_c, 0, 64, 57
1, 267458, Control_c, 0, 64, 61
1, 267473, Control_c, 0, 64, 63
1, 267488, Control_c, 0, 64, 66
1, 267502, Control_c, 0, 64, 69
1, 267517, Control_c, 0, 64, 73
1, 267532, Control_c, 0, 64, 78
1, 267534, Note_off_c, 0, 56, 57
1, 267547, Control_c, 0, 64, 85
1, 267562, Control_c, 0, 64, 94
1, 267576, Control_c, 0, 64, 105
1, 267591, Control_c, 0, 64, 127
1, 267621, Note_off_c, 0, 76, 40
1, 267621, Note_off_c, 0, 68, 57
1, 267631, Note_off_c, 0, 75, 38
1, 267698, Note_off_c, 0, 73, 57
1, 267884, Note_on_c, 0, 71, 65
1, 267889, Note_on_c, 0, 78, 54
1, 267898, Note_off_c, 0, 80, 54
1, 267910, Note_on_c, 0, 73, 32
1, 267919, Note_on_c, 0, 62, 26
1, 267921, Note_on_c, 0, 69, 34
1, 267925, Note_on_c, 0, 66, 34
1, 267928, Note_on_c, 0, 74, 33
1, 268102, Note_off_c, 0, 62, 39
1, 268108, Note_off_c, 0, 74, 41
1, 268109, Note_off_c, 0, 71, 61
1, 268114, Note_off_c, 0, 73, 50
1, 268114, Note_off_c, 0, 66, 51
1, 268121, Note_off_c, 0, 69, 50
1, 268265, Control_c, 0, 67, 120
1, 268280, Control_c, 0, 67, 114
1, 268295, Control_c, 0, 67, 108
1, 268310, Control_c, 0, 67, 106
1, 268334, Note_off_c, 0, 78, 37
1, 268335, Note_on_c, 0, 73, 78
1, 268339, Note_on_c, 0, 80, 72
1, 268357, Note_on_c, 0, 75, 54
1, 268366, Note_on_c, 0, 64, 46
1, 268369, Note_on_c, 0, 76, 48
1, 268369, Control_c, 0, 64, 109
1, 268370, Note_on_c, 0, 71, 48
1, 268382, Note_on_c, 0, 68, 40
1, 268384, Control_c, 0, 64, 79
1, 268399, Control_c, 0, 64, 63
1, 268414, Control_c, 0, 64, 54
1, 268428, Control_c, 0, 64, 55
1, 268443, Control_c, 0, 64, 59
1, 268443, Control_c, 0, 67, 104
1, 268458, Control_c, 0, 64, 63
1, 268473, Control_c, 0, 64, 68
1, 268488, Control_c, 0, 64, 76
1, 268503, Control_c, 0, 64, 86
1, 268517, Control_c, 0, 64, 97
1, 268522, Note_off_c, 0, 64, 58
1, 268532, Control_c, 0, 64, 109
1, 268536, Note_off_c, 0, 73, 62
1, 268547, Control_c, 0, 64, 127
1, 268547, Control_c, 0, 67, 106
1, 268548, Note_off_c, 0, 68, 55
1, 268551, Note_off_c, 0, 71, 59
1, 268555, Note_off_c, 0, 75, 52
1, 268577, Control_c, 0, 67, 109
1, 268586, Note_off_c, 0, 76, 44
1, 268592, Note_off_c, 0, 80, 62
1, 268606, Control_c, 0, 67, 112
1, 268636, Control_c, 0, 67, 114
1, 268665, Control_c, 0, 67, 116
1, 268718, Control_c, 0, 67, 118
1, 268747, Control_c, 0, 67, 120
1, 268836, Control_c, 0, 67, 122
1, 268923, Note_on_c, 0, 79, 65
1, 268932, Note_on_c, 0, 86, 60
1, 268939, Control_c, 0, 67, 124
1, 268955, Note_on_c, 0, 77, 44
1, 268960, Note_on_c, 0, 73, 37
1, 268962, Note_on_c, 0, 69, 31
1, 268969, Control_c, 0, 64, 86
1, 268971, Note_on_c, 0, 75, 35
1, 268974, Note_on_c, 0, 82, 35
1, 268984, Control_c, 0, 64, 66
1, 268989, Note_on_c, 0, 81, 24
1, 268998, Control_c, 0, 64, 47
1, 268998, Control_c, 0, 67, 127
1, 269014, Control_c, 0, 64, 0
1, 269059, Control_c, 0, 64, 32
1, 269074, Control_c, 0, 64, 44
1, 269088, Control_c, 0, 64, 55
1, 269103, Control_c, 0, 64, 63
1, 269118, Control_c, 0, 64, 68
1, 269133, Control_c, 0, 64, 76
1, 269147, Note_off_c, 0, 77, 60
1, 269147, Control_c, 0, 64, 83
1, 269162, Control_c, 0, 64, 90
1, 269177, Control_c, 0, 64, 98
1, 269181, Note_off_c, 0, 86, 57
1, 269192, Control_c, 0, 64, 108
1, 269194, Note_off_c, 0, 75, 47
1, 269205, Note_off_c, 0, 79, 58
1, 269207, Control_c, 0, 64, 127
1, 269213, Note_off_c, 0, 73, 59
1, 269222, Note_off_c, 0, 69, 48
1, 269251, Note_off_c, 0, 81, 43
1, 269278, Note_off_c, 0, 82, 41
1, 269597, Note_on_c, 0, 73, 54
1, 269614, Note_on_c, 0, 80, 46
1, 269624, Note_on_c, 0, 71, 39
1, 269627, Note_on_c, 0, 64, 38
1, 269629, Control_c, 0, 64, 83
1, 269631, Note_on_c, 0, 68, 31
1, 269644, Control_c, 0, 64, 61
1, 269645, Note_on_c, 0, 75, 36
1, 269654, Note_on_c, 0, 76, 29
1, 269659, Control_c, 0, 64, 40
1, 269673, Control_c, 0, 64, 0
1, 269688, Control_c, 0, 64, 30
1, 269703, Control_c, 0, 64, 41
1, 269718, Control_c, 0, 64, 53
1, 269733, Control_c, 0, 64, 61
1, 269747, Control_c, 0, 64, 67
1, 269762, Control_c, 0, 64, 73
1, 269777, Control_c, 0, 64, 80
1, 269782, Note_off_c, 0, 71, 60
1, 269792, Control_c, 0, 64, 83
1, 269807, Control_c, 0, 64, 87
1, 269821, Note_off_c, 0, 68, 63
1, 269823, Control_c, 0, 64, 89
1, 269832, Note_off_c, 0, 64, 61
1, 269838, Control_c, 0, 64, 92
1, 269852, Control_c, 0, 64, 97
1, 269867, Control_c, 0, 64, 103
1, 269882, Control_c, 0, 64, 110
1, 269896, Control_c, 0, 64, 121
1, 269911, Control_c, 0, 64, 127
1, 270057, Note_on_c, 0, 56, 55
1, 270348, Note_off_c, 0, 73, 48
1, 270367, Note_off_c, 0, 75, 34
1, 270375, Note_off_c, 0, 76, 38
1, 270463, Note_on_c, 0, 68, 57
1, 270515, Note_off_c, 0, 56, 60
1, 270569, Note_off_c, 0, 68, 60
1, 270859, Note_on_c, 0, 71, 78
1, 270861, Note_on_c, 0, 78, 68
1, 270879, Note_on_c, 0, 66, 44
1, 270882, Note_on_c, 0, 69, 48
1, 270885, Note_on_c, 0, 74, 57
1, 270886, Note_on_c, 0, 73, 52
1, 270892, Note_on_c, 0, 62, 39
1, 270897, Control_c, 0, 64, 92
1, 270903, Note_off_c, 0, 80, 55
1, 270911, Control_c, 0, 64, 70
1, 270926, Control_c, 0, 64, 54
1, 270948, Control_c, 0, 64, 34
1, 270963, Control_c, 0, 64, 28
1, 270978, Control_c, 0, 64, 40
1, 270992, Control_c, 0, 64, 55
1, 271007, Control_c, 0, 64, 64
1, 271022, Control_c, 0, 64, 73
1, 271037, Control_c, 0, 64, 87
1, 271038, Note_off_c, 0, 62, 52
1, 271046, Note_off_c, 0, 74, 58
1, 271052, Control_c, 0, 64, 105
1, 271052, Control_c, 0, 67, 116
1, 271056, Note_off_c, 0, 66, 62
1, 271059, Note_off_c, 0, 73, 61
1, 271067, Note_off_c, 0, 69, 60
1, 271067, Control_c, 0, 64, 127
1, 271067, Control_c, 0, 67, 96
1, 271070, Note_off_c, 0, 71, 60
1, 271081, Control_c, 0, 67, 77
1, 271096, Control_c, 0, 67, 63
1, 271111, Control_c, 0, 67, 55
1, 271121, Note_off_c, 0, 78, 55
1, 271126, Control_c, 0, 67, 51
1, 271141, Control_c, 0, 67, 51
1, 271299, Note_on_c, 0, 80, 78
1, 271304, Control_c, 0, 64, 103
1, 271305, Note_on_c, 0, 73, 76
1, 271318, Control_c, 0, 64, 72
1, 271319, Note_on_c, 0, 76, 60
1, 271324, Note_on_c, 0, 64, 47
1, 271327, Note_on_c, 0, 71, 54
1, 271330, Note_on_c, 0, 75, 52
1, 271333, Control_c, 0, 64, 52
1, 271333, Control_c, 0, 67, 51
1, 271341, Note_on_c, 0, 68, 40
1, 271348, Control_c, 0, 64, 0
1, 271348, Control_c, 0, 67, 52
1, 271378, Control_c, 0, 64, 28
1, 271378, Control_c, 0, 67, 53
1, 271392, Control_c, 0, 64, 48
1, 271392, Control_c, 0, 67, 54
1, 271407, Control_c, 0, 64, 64
1, 271407, Control_c, 0, 67, 54
1, 271423, Control_c, 0, 64, 75
1, 271423, Control_c, 0, 67, 55
1, 271436, Note_off_c, 0, 64, 60
1, 271438, Control_c, 0, 64, 92
1, 271438, Control_c, 0, 67, 57
1, 271452, Note_off_c, 0, 73, 64
1, 271453, Control_c, 0, 64, 125
1, 271453, Control_c, 0, 67, 58
1, 271457, Note_off_c, 0, 68, 60
1, 271465, Note_off_c, 0, 71, 59
1, 271467, Control_c, 0, 64, 127
1, 271467, Control_c, 0, 67, 59
1, 271482, Control_c, 0, 67, 61
1, 271493, Note_off_c, 0, 75, 53
1, 271494, Note_off_c, 0, 76, 56
1, 271497, Control_c, 0, 67, 62
1, 271509, Note_off_c, 0, 80, 63
1, 271512, Control_c, 0, 67, 65
1, 271527, Control_c, 0, 67, 67
1, 271541, Control_c, 0, 67, 69
1, 271556, Control_c, 0, 67, 71
1, 271571, Control_c, 0, 67, 73
1, 271586, Control_c, 0, 67, 73
1, 271601, Control_c, 0, 67, 75
1, 271615, Control_c, 0, 67, 76
1, 271630, Control_c, 0, 67, 77
1, 271645, Control_c, 0, 67, 79
1, 271660, Control_c, 0, 67, 81
1, 271675, Control_c, 0, 67, 84
1, 271697, Control_c, 0, 67, 89
1, 271712, Control_c, 0, 67, 99
1, 271727, Control_c, 0, 67, 110
1, 271741, Control_c, 0, 67, 121
1, 271756, Control_c, 0, 67, 127
1, 272003, Note_on_c, 0, 89, 62
1, 272011, Note_on_c, 0, 77, 31
1, 272020, Note_on_c, 0, 82, 44
1, 272025, Note_on_c, 0, 81, 34
1, 272029, Note_on_c, 0, 86, 42
1, 272044, Note_on_c, 0, 83, 41
1, 272053, Control_c, 0, 64, 103
1, 272060, Note_on_c, 0, 84, 27
1, 272061, Note_on_c, 0, 74, 36
1, 272067, Control_c, 0, 64, 83
1, 272082, Control_c, 0, 64, 67
1, 272097, Control_c, 0, 64, 43
1, 272112, Control_c, 0, 64, 0
1, 272201, Control_c, 0, 64, 41
1, 272217, Control_c, 0, 64, 58
1, 272231, Control_c, 0, 64, 65
1, 272246, Control_c, 0, 64, 70
1, 272251, Note_off_c, 0, 81, 61
1, 272253, Note_off_c, 0, 83, 58
1, 272261, Control_c, 0, 64, 74
1, 272276, Control_c, 0, 64, 81
1, 272287, Note_off_c, 0, 89, 57
1, 272290, Control_c, 0, 64, 91
1, 272295, Note_off_c, 0, 77, 56
1, 272301, Note_off_c, 0, 74, 62
1, 272305, Control_c, 0, 64, 105
1, 272320, Control_c, 0, 64, 127
1, 272330, Note_off_c, 0, 86, 38
1, 272354, Note_off_c, 0, 84, 46
1, 272389, Note_off_c, 0, 82, 54
1, 272591, Note_on_c, 0, 87, 60
1, 272604, Note_on_c, 0, 80, 53
1, 272605, Note_on_c, 0, 83, 49
1, 272605, Note_on_c, 0, 73, 41
1, 272610, Note_on_c, 0, 82, 35
1, 272617, Note_on_c, 0, 76, 37
1, 272618, Note_on_c, 0, 78, 39
1, 272723, Note_off_c, 0, 78, 48
1, 272724, Note_off_c, 0, 73, 59
1, 272765, Note_off_c, 0, 83, 52
1, 272792, Note_off_c, 0, 76, 41
1, 272795, Note_off_c, 0, 82, 36
1, 272866, Note_off_c, 0, 87, 50
1, 272900, Note_off_c, 0, 80, 38
1, 273016, Note_on_c, 0, 86, 68
1, 273034, Note_on_c, 0, 79, 54
1, 273040, Note_on_c, 0, 82, 49
1, 273047, Note_on_c, 0, 69, 40
1, 273048, Note_on_c, 0, 77, 39
1, 273056, Note_on_c, 0, 72, 27
1, 273057, Note_on_c, 0, 81, 35
1, 273058, Note_on_c, 0, 74, 41
1, 273084, Note_off_c, 0, 77, 54
1, 273094, Note_off_c, 0, 86, 62
1, 273095, Note_off_c, 0, 74, 64
1, 273102, Note_off_c, 0, 81, 51
1, 273107, Note_off_c, 0, 72, 60
1, 273119, Note_off_c, 0, 82, 60
1, 273120, Note_off_c, 0, 79, 58
1, 273122, Note_off_c, 0, 69, 57
1, 273425, Note_on_c, 0, 73, 34
1, 273427, Note_on_c, 0, 68, 47
1, 273454, Note_off_c, 0, 73, 58
1, 273465, Note_on_c, 0, 83, 57
1, 273465, Note_off_c, 0, 68, 65
1, 273478, Note_on_c, 0, 76, 53
1, 273498, Note_on_c, 0, 80, 40
1, 273499, Note_on_c, 0, 78, 42
1, 273537, Note_off_c, 0, 83, 62
1, 273552, Note_off_c, 0, 76, 62
1, 273582, Note_off_c, 0, 80, 58
1, 273605, Note_off_c, 0, 78, 36
1, 273666, Note_on_c, 0, 56, 53
1, 273714, Note_off_c, 0, 56, 60
1, 273940, Note_on_c, 0, 77, 73
1, 273943, Note_on_c, 0, 70, 73
1, 273961, Note_on_c, 0, 74, 56
1, 273972, Note_on_c, 0, 65, 46
1, 273973, Note_on_c, 0, 72, 51
1, 273974, Note_on_c, 0, 71, 35
1, 273976, Note_on_c, 0, 69, 39
1, 273988, Control_c, 0, 64, 105
1, 273995, Note_on_c, 0, 62, 36
1, 274003, Control_c, 0, 64, 80
1, 274018, Control_c, 0, 64, 66
1, 274033, Control_c, 0, 64, 56
1, 274047, Control_c, 0, 64, 54
1, 274062, Control_c, 0, 64, 57
1, 274077, Control_c, 0, 64, 63
1, 274092, Control_c, 0, 64, 71
1, 274107, Control_c, 0, 64, 84
1, 274122, Control_c, 0, 64, 106
1, 274136, Control_c, 0, 64, 127
1, 274143, Note_off_c, 0, 69, 60
1, 274154, Note_off_c, 0, 71, 40
1, 274169, Note_off_c, 0, 77, 60
1, 274182, Note_off_c, 0, 65, 61
1, 274182, Note_off_c, 0, 74, 60
1, 274188, Note_off_c, 0, 72, 53
1, 274189, Note_off_c, 0, 62, 61
1, 274231, Note_off_c, 0, 70, 59
1, 274426, Note_on_c, 0, 68, 69
1, 274426, Note_on_c, 0, 75, 69
1, 274450, Note_on_c, 0, 61, 46
1, 274451, Note_on_c, 0, 66, 49
1, 274455, Note_on_c, 0, 64, 41
1, 274458, Note_on_c, 0, 71, 45
1, 274468, Note_on_c, 0, 70, 38
1, 274477, Control_c, 0, 64, 101
1, 274492, Control_c, 0, 64, 76
1, 274506, Control_c, 0, 64, 60
1, 274521, Control_c, 0, 64, 43
1, 274536, Control_c, 0, 64, 33
1, 274551, Control_c, 0, 64, 40
1, 274566, Control_c, 0, 64, 54
1, 274580, Control_c, 0, 64, 63
1, 274595, Control_c, 0, 64, 70
1, 274611, Control_c, 0, 64, 75
1, 274626, Control_c, 0, 64, 80
1, 274641, Control_c, 0, 64, 84
1, 274649, Note_off_c, 0, 70, 32
1, 274656, Control_c, 0, 64, 90
1, 274670, Control_c, 0, 64, 97
1, 274686, Note_off_c, 0, 66, 49
1, 274692, Control_c, 0, 64, 106
1, 274707, Control_c, 0, 64, 127
1, 274709, Note_off_c, 0, 71, 33
1, 274719, Note_off_c, 0, 61, 36
1, 274722, Note_off_c, 0, 64, 37
1, 274802, Note_off_c, 0, 75, 62
1, 274918, Note_off_c, 0, 68, 47
1, 275064, Note_on_c, 0, 60, 23
1, 275070, Note_on_c, 0, 74, 54
1, 275072, Note_on_c, 0, 67, 50
1, 275094, Note_on_c, 0, 65, 30
1, 275107, Note_on_c, 0, 57, 31
1, 275107, Control_c, 0, 64, 93
1, 275116, Note_on_c, 0, 70, 20
1, 275122, Control_c, 0, 64, 72
1, 275130, Note_on_c, 0, 69, 23
1, 275134, Note_on_c, 0, 62, 25
1, 275137, Control_c, 0, 64, 57
1, 275152, Control_c, 0, 64, 40
1, 275166, Control_c, 0, 64, 29
1, 275210, Control_c, 0, 64, 38
1, 275225, Control_c, 0, 64, 49
1, 275240, Control_c, 0, 64, 59
1, 275255, Control_c, 0, 64, 66
1, 275270, Note_off_c, 0, 65, 56
1, 275270, Control_c, 0, 64, 72
1, 275283, Note_off_c, 0, 74, 57
1, 275285, Control_c, 0, 64, 77
1, 275299, Control_c, 0, 64, 82
1, 275314, Control_c, 0, 64, 88
1, 275317, Note_off_c, 0, 62, 50
1, 275325, Note_off_c, 0, 60, 51
1, 275329, Control_c, 0, 64, 92
1, 275341, Note_off_c, 0, 69, 42
1, 275344, Control_c, 0, 64, 98
1, 275347, Note_off_c, 0, 57, 41
1, 275359, Control_c, 0, 64, 104
1, 275365, Note_off_c, 0, 70, 40
1, 275374, Control_c, 0, 64, 112
1, 275381, Note_off_c, 0, 67, 50
1, 275389, Control_c, 0, 64, 127
1, 275711, Note_on_c, 0, 71, 42
1, 275731, Note_on_c, 0, 56, 32
1, 275733, Note_on_c, 0, 64, 38
1, 275737, Note_on_c, 0, 59, 33
1, 275737, Note_on_c, 0, 61, 30
1, 275738, Control_c, 0, 64, 99
1, 275748, Note_on_c, 0, 66, 31
1, 275753, Control_c, 0, 64, 74
1, 275760, Note_on_c, 0, 68, 19
1, 275767, Control_c, 0, 64, 54
1, 275782, Control_c, 0, 64, 33
1, 275797, Control_c, 0, 64, 29
1, 275812, Control_c, 0, 64, 39
1, 275826, Control_c, 0, 64, 55
1, 275841, Control_c, 0, 64, 64
1, 275854, Note_off_c, 0, 61, 58
1, 275856, Control_c, 0, 64, 72
1, 275861, Note_off_c, 0, 59, 52
1, 275871, Control_c, 0, 64, 80
1, 275886, Control_c, 0, 64, 84
1, 275899, Note_off_c, 0, 56, 54
1, 275901, Control_c, 0, 64, 89
1, 275915, Control_c, 0, 64, 93
1, 275930, Control_c, 0, 64, 98
1, 275945, Control_c, 0, 64, 104
1, 275960, Control_c, 0, 64, 111
1, 275974, Control_c, 0, 64, 127
1, 276226, Note_on_c, 0, 49, 46
1, 276266, Note_off_c, 0, 49, 62
1, 277256, Note_on_c, 0, 37, 38
1, 277434, Note_off_c, 0, 37, 42
1, 277591, Note_off_c, 0, 64, 48
1, 277596, Note_off_c, 0, 66, 37
1, 277711, Note_on_c, 0, 35, 34
1, 277739, Note_off_c, 0, 68, 40
1, 277780, Note_off_c, 0, 71, 38
1, 277829, Note_off_c, 0, 35, 34
1, 278432, Note_on_c, 0, 82, 52
1, 278434, Note_on_c, 0, 22, 36
1, 278435, Control_c, 0, 64, 100
1, 278447, Note_on_c, 0, 79, 40
1, 278450, Control_c, 0, 64, 84
1, 278465, Control_c, 0, 64, 69
1, 278480, Control_c, 0, 64, 55
1, 278495, Control_c, 0, 64, 37
1, 278510, Control_c, 0, 64, 0
1, 278584, Control_c, 0, 64, 39
1, 278599, Control_c, 0, 64, 54
1, 278614, Control_c, 0, 64, 64
1, 278629, Control_c, 0, 64, 71
1, 278644, Control_c, 0, 64, 78
1, 278659, Control_c, 0, 64, 85
1, 278674, Control_c, 0, 64, 94
1, 278682, Note_off_c, 0, 22, 48
1, 278689, Control_c, 0, 64, 104
1, 278704, Control_c, 0, 64, 127
1, 278721, Note_off_c, 0, 79, 38
1, 279470, Note_off_c, 0, 82, 36
1, 279472, Note_on_c, 0, 80, 48
1, 279492, Note_on_c, 0, 77, 44
1, 279505, Note_on_c, 0, 64, 28
1, 279524, Note_on_c, 0, 53, 25
1, 279526, Note_on_c, 0, 50, 22
1, 279529, Note_on_c, 0, 59, 34
1, 279530, Note_on_c, 0, 56, 28
1, 279592, Note_off_c, 0, 77, 37
1, 280339, Note_on_c, 0, 85, 55
1, 280364, Note_on_c, 0, 76, 40
1, 280409, Note_off_c, 0, 76, 61
1, 280411, Note_off_c, 0, 80, 43
1, 280892, Note_off_c, 0, 64, 44
1, 280984, Note_on_c, 0, 82, 52
1, 280999, Note_off_c, 0, 85, 61
1, 281015, Note_off_c, 0, 59, 44
1, 281017, Note_on_c, 0, 74, 30
1, 281064, Note_off_c, 0, 56, 40
1, 281067, Note_off_c, 0, 74, 60
1, 281078, Note_off_c, 0, 53, 40
1, 281106, Note_off_c, 0, 50, 42
1, 281624, Note_off_c, 0, 82, 47
1, 281645, Note_on_c, 0, 76, 42
1, 281661, Note_on_c, 0, 32, 32
1, 281670, Note_on_c, 0, 73, 32
1, 281809, Note_off_c, 0, 32, 34
1, 281823, Note_off_c, 0, 73, 33
1, 282374, Note_off_c, 0, 76, 43
1, 282383, Note_on_c, 0, 74, 48
1, 282404, Note_on_c, 0, 71, 37
1, 282411, Note_on_c, 0, 52, 28
1, 282411, Note_on_c, 0, 56, 25
1, 282412, Note_on_c, 0, 61, 18
1, 282471, Note_off_c, 0, 71, 54
1, 283247, Note_on_c, 0, 76, 46
1, 283247, Note_off_c, 0, 74, 57
1, 283258, Note_on_c, 0, 70, 33
1, 283404, Note_off_c, 0, 70, 37
1, 284276, Note_on_c, 0, 82, 47
1, 284313, Note_on_c, 0, 68, 23
1, 284404, Note_off_c, 0, 76, 35
1, 284641, Note_off_c, 0, 82, 39
1, 284877, Note_off_c, 0, 52, 34
1, 284898, Note_off_c, 0, 56, 38
1, 284976, Note_off_c, 0, 68, 33
1, 285069, Note_off_c, 0, 61, 29
1, 286531, Note_on_c, 0, 54, 30
1, 286540, Note_on_c, 0, 63, 40
1, 286540, Note_on_c, 0, 65, 35
1, 286544, Note_on_c, 0, 72, 45
1, 286545, Note_on_c, 0, 68, 38
1, 286555, Note_on_c, 0, 57, 24
1, 286555, Note_on_c, 0, 60, 21
1, 286576, Control_c, 0, 64, 104
1, 286591, Control_c, 0, 64, 74
1, 286606, Control_c, 0, 64, 56
1, 286621, Control_c, 0, 64, 27
1, 286636, Control_c, 0, 64, 0
1, 289127, Control_c, 0, 64, 27
1, 289141, Control_c, 0, 64, 34
1, 289156, Control_c, 0, 64, 40
1, 289171, Control_c, 0, 64, 45
1, 289185, Control_c, 0, 64, 50
1, 289200, Control_c, 0, 64, 54
1, 289215, Control_c, 0, 64, 56
1, 289230, Control_c, 0, 64, 57
1, 289245, Control_c, 0, 64, 58
1, 289259, Control_c, 0, 64, 60
1, 289274, Control_c, 0, 64, 61
1, 289289, Control_c, 0, 64, 62
1, 289304, Control_c, 0, 64, 63
1, 289319, Control_c, 0, 64, 65
1, 289334, Control_c, 0, 64, 66
1, 289348, Control_c, 0, 64, 68
1, 289363, Control_c, 0, 64, 70
1, 289378, Control_c, 0, 64, 72
1, 289393, Control_c, 0, 64, 74
1, 289408, Control_c, 0, 64, 76
1, 289423, Control_c, 0, 64, 78
1, 289438, Control_c, 0, 64, 81
1, 289453, Control_c, 0, 64, 85
1, 289468, Control_c, 0, 64, 88
1, 289483, Control_c, 0, 64, 92
1, 289497, Control_c, 0, 64, 96
1, 289512, Control_c, 0, 64, 102
1, 289527, Control_c, 0, 64, 109
1, 289542, Control_c, 0, 64, 122
1, 289557, Control_c, 0, 64, 127
1, 289747, Note_off_c, 0, 72, 35
1, 289819, Note_off_c, 0, 60, 40
1, 289821, Note_off_c, 0, 68, 41
1, 289854, Note_off_c, 0, 65, 39
1, 289891, Note_off_c, 0, 57, 37
1, 289918, Note_off_c, 0, 63, 39
1, 289989, Note_off_c, 0, 54, 35
1, 290113, Control_c, 0, 67, 124
1, 290128, Control_c, 0, 67, 115
1, 290142, Control_c, 0, 67, 107
1, 290157, Control_c, 0, 67, 99
1, 290172, Control_c, 0, 67, 90
1, 290187, Control_c, 0, 67, 82
1, 290202, Control_c, 0, 67, 73
1, 290216, Control_c, 0, 67, 64
1, 290231, Control_c, 0, 67, 55
1, 290246, Control_c, 0, 67, 47
1, 290261, Control_c, 0, 67, 40
1, 290276, Control_c, 0, 67, 0
1, 290654, Control_c, 0, 64, 89
1, 290669, Control_c, 0, 64, 59
1, 290681, Note_on_c, 0, 58, 87
1, 290684, Note_on_c, 0, 22, 89
1, 290684, Control_c, 0, 64, 40
1, 290689, Note_on_c, 0, 50, 79
1, 290699, Note_on_c, 0, 55, 67
1, 290699, Control_c, 0, 64, 57
1, 290714, Control_c, 0, 64, 74
1, 290719, Note_off_c, 0, 50, 66
1, 290729, Control_c, 0, 64, 127
1, 290741, Note_off_c, 0, 55, 60
1, 290741, Note_off_c, 0, 58, 58
1, 290743, Note_off_c, 0, 22, 62
1, 291647, Note_on_c, 0, 64, 70
1, 291661, Note_on_c, 0, 56, 56
1, 291661, Note_on_c, 0, 61, 55
1, 291992, Note_off_c, 0, 61, 59
1, 292004, Note_off_c, 0, 56, 61
1, 292020, Note_off_c, 0, 64, 62
1, 292428, Note_on_c, 0, 97, 94
1, 292442, Note_on_c, 0, 87, 74
1, 292445, Note_on_c, 0, 70, 76
1, 292449, Note_on_c, 0, 85, 65
1, 292449, Note_on_c, 0, 62, 62
1, 292456, Note_on_c, 0, 67, 67
1, 292666, Note_off_c, 0, 97, 63
1, 292677, Note_off_c, 0, 67, 59
1, 292695, Note_off_c, 0, 62, 59
1, 292734, Note_off_c, 0, 70, 62
1, 292738, Note_off_c, 0, 87, 60
1, 292742, Note_off_c, 0, 85, 61
1, 293213, Note_on_c, 0, 94, 96
1, 293221, Note_on_c, 0, 85, 82
1, 293224, Note_on_c, 0, 76, 87
1, 293224, Note_on_c, 0, 82, 82
1, 293236, Note_on_c, 0, 68, 73
1, 293238, Note_on_c, 0, 71, 73
1, 293260, Note_off_c, 0, 94, 68
1, 293277, Note_off_c, 0, 85, 49
1, 293283, Note_off_c, 0, 82, 61
1, 293346, Note_off_c, 0, 76, 58
1, 293363, Note_off_c, 0, 71, 58
1, 293409, Note_off_c, 0, 68, 56
1, 293997, Note_on_c, 0, 86, 91
1, 294010, Note_on_c, 0, 76, 75
1, 294010, Note_on_c, 0, 85, 80
1, 294017, Note_on_c, 0, 74, 73
1, 294018, Note_on_c, 0, 81, 68
1, 294019, Note_on_c, 0, 73, 65
1, 294022, Note_on_c, 0, 69, 64
1, 294022, Note_on_c, 0, 78, 61
1, 294025, Note_on_c, 0, 66, 61
1, 294357, Note_off_c, 0, 76, 55
1, 294362, Note_off_c, 0, 86, 53
1, 294363, Note_off_c, 0, 74, 52
1, 294372, Note_off_c, 0, 81, 54
1, 294375, Note_off_c, 0, 78, 41
1, 294401, Note_off_c, 0, 69, 58
1, 294427, Note_off_c, 0, 73, 50
1, 294442, Note_off_c, 0, 85, 62
1, 294476, Note_off_c, 0, 66, 59
1, 294951, Note_on_c, 0, 88, 85
1, 294955, Note_on_c, 0, 87, 78
1, 294961, Note_on_c, 0, 78, 80
1, 294962, Note_on_c, 0, 80, 71
1, 294963, Note_on_c, 0, 75, 80
1, 294974, Note_on_c, 0, 64, 65
1, 294978, Note_on_c, 0, 66, 68
1, 294979, Note_on_c, 0, 68, 63
1, 294985, Note_off_c, 0, 80, 71
1, 294986, Note_off_c, 0, 88, 67
1, 294987, Note_on_c, 0, 71, 58
1, 294995, Note_off_c, 0, 78, 60
1, 294996, Note_off_c, 0, 87, 68
1, 295002, Note_on_c, 0, 83, 13
1, 295005, Note_off_c, 0, 75, 67
1, 295015, Note_off_c, 0, 71, 65
1, 295035, Note_off_c, 0, 68, 48
1, 295044, Note_off_c, 0, 66, 62
1, 295049, Note_off_c, 0, 83, 40
1, 295060, Note_off_c, 0, 64, 61
1, 295304, Note_on_c, 0, 64, 91
1, 295314, Note_on_c, 0, 59, 85
1, 295323, Note_on_c, 0, 56, 78
1, 295464, Note_off_c, 0, 64, 59
1, 295489, Note_off_c, 0, 56, 60
1, 295494, Note_off_c, 0, 59, 61
1, 295763, Note_on_c, 0, 62, 95
1, 295772, Note_on_c, 0, 57, 79
1, 295775, Note_on_c, 0, 54, 82
1, 295835, Control_c, 0, 64, 80
1, 295850, Control_c, 0, 64, 62
1, 295865, Control_c, 0, 64, 52
1, 295879, Control_c, 0, 64, 54
1, 295894, Control_c, 0, 64, 60
1, 295909, Control_c, 0, 64, 68
1, 295924, Control_c, 0, 64, 87
1, 295939, Control_c, 0, 64, 127
1, 295954, Note_off_c, 0, 62, 60
1, 295958, Note_off_c, 0, 57, 62
1, 295980, Note_off_c, 0, 54, 59
1, 296177, Note_on_c, 0, 59, 101
1, 296187, Note_on_c, 0, 52, 85
1, 296192, Note_on_c, 0, 56, 81
1, 296251, Control_c, 0, 64, 70
1, 296266, Control_c, 0, 64, 28
1, 296281, Control_c, 0, 64, 0
1, 296340, Control_c, 0, 64, 31
1, 296355, Control_c, 0, 64, 62
1, 296369, Control_c, 0, 64, 72
1, 296370, Note_off_c, 0, 59, 63
1, 296383, Note_off_c, 0, 56, 65
1, 296384, Control_c, 0, 64, 89
1, 296401, Note_off_c, 0, 52, 62
1, 296407, Control_c, 0, 64, 101
1, 296422, Control_c, 0, 64, 127
1, 296577, Note_on_c, 0, 58, 97
1, 296589, Note_on_c, 0, 50, 86
1, 296592, Note_on_c, 0, 55, 75
1, 296647, Note_off_c, 0, 55, 60
1, 296659, Note_off_c, 0, 50, 62
1, 296675, Note_off_c, 0, 58, 59
1, 296815, Note_on_c, 0, 56, 98
1, 296822, Note_on_c, 0, 47, 91
1, 296827, Note_on_c, 0, 52, 77
1, 296866, Control_c, 0, 64, 82
1, 296881, Control_c, 0, 64, 55
1, 296895, Control_c, 0, 64, 0
1, 296955, Control_c, 0, 64, 37
1, 296971, Control_c, 0, 64, 53
1, 296985, Control_c, 0, 64, 59
1, 297000, Control_c, 0, 64, 64
1, 297015, Control_c, 0, 64, 67
1, 297030, Control_c, 0, 64, 73
1, 297045, Control_c, 0, 64, 80
1, 297060, Control_c, 0, 64, 88
1, 297065, Note_off_c, 0, 47, 57
1, 297072, Note_off_c, 0, 56, 62
1, 297074, Control_c, 0, 64, 96
1, 297089, Control_c, 0, 64, 104
1, 297104, Control_c, 0, 64, 127
1, 297237, Note_off_c, 0, 52, 50
1, 297272, Note_on_c, 0, 55, 92
1, 297287, Note_on_c, 0, 46, 80
1, 297291, Note_on_c, 0, 51, 68
1, 297381, Note_off_c, 0, 46, 61
1, 297436, Note_off_c, 0, 51, 60
1, 297447, Note_off_c, 0, 55, 56
1, 297861, Note_on_c, 0, 73, 91
1, 297879, Note_on_c, 0, 65, 68
1, 297881, Note_on_c, 0, 53, 62
1, 297881, Note_on_c, 0, 68, 69
1, 297883, Note_on_c, 0, 49, 55
1, 297886, Note_on_c, 0, 44, 59
1, 297919, Control_c, 0, 64, 112
1, 297934, Control_c, 0, 64, 75
1, 297948, Control_c, 0, 64, 50
1, 297963, Control_c, 0, 64, 0
1, 298053, Control_c, 0, 64, 31
1, 298067, Control_c, 0, 64, 48
1, 298082, Control_c, 0, 64, 61
1, 298097, Control_c, 0, 64, 69
1, 298106, Note_off_c, 0, 53, 62
1, 298112, Control_c, 0, 64, 79
1, 298127, Control_c, 0, 64, 96
1, 298141, Control_c, 0, 64, 127
1, 298145, Note_off_c, 0, 49, 62
1, 298180, Note_off_c, 0, 44, 62
1, 298276, Note_off_c, 0, 65, 56
1, 298299, Note_off_c, 0, 68, 59
1, 298410, Note_off_c, 0, 73, 51
1, 298497, Note_on_c, 0, 71, 76
1, 298512, Note_on_c, 0, 67, 62
1, 298512, Note_on_c, 0, 62, 58
1, 298513, Note_on_c, 0, 25, 59
1, 298594, Note_off_c, 0, 62, 62
1, 298597, Note_off_c, 0, 25, 60
1, 298667, Note_off_c, 0, 67, 48
1, 298705, Note_off_c, 0, 71, 61
1, 298986, Note_on_c, 0, 85, 86
1, 299005, Note_on_c, 0, 80, 64
1, 299010, Note_on_c, 0, 77, 61
1, 299017, Note_on_c, 0, 61, 54
1, 299017, Note_on_c, 0, 65, 51
1, 299025, Note_on_c, 0, 68, 62
1, 299193, Note_off_c, 0, 77, 60
1, 299194, Note_off_c, 0, 68, 52
1, 299194, Note_off_c, 0, 80, 62
1, 299200, Note_off_c, 0, 85, 56
1, 299211, Note_off_c, 0, 61, 63
1, 299236, Note_off_c, 0, 65, 37
1, 299415, Note_on_c, 0, 83, 86
1, 299437, Note_on_c, 0, 67, 65
1, 299439, Note_on_c, 0, 59, 60
1, 299442, Note_on_c, 0, 74, 68
1, 299444, Note_on_c, 0, 79, 52
1, 299454, Note_on_c, 0, 62, 60
1, 299499, Note_off_c, 0, 67, 62
1, 299519, Note_off_c, 0, 62, 63
1, 299523, Note_off_c, 0, 83, 59
1, 299537, Note_off_c, 0, 59, 62
1, 299540, Note_off_c, 0, 74, 61
1, 299553, Note_off_c, 0, 79, 63
1, 299625, Note_on_c, 0, 82, 54
1, 299647, Note_off_c, 0, 82, 64
1, 299814, Note_on_c, 0, 80, 82
1, 299827, Note_on_c, 0, 56, 55
1, 299831, Note_on_c, 0, 65, 55
1, 299832, Note_on_c, 0, 61, 53
1, 299839, Note_on_c, 0, 77, 55
1, 299840, Note_on_c, 0, 73, 60
1, 299965, Note_off_c, 0, 77, 62
1, 299983, Note_off_c, 0, 80, 55
1, 299996, Note_off_c, 0, 73, 57
1, 300017, Note_off_c, 0, 65, 59
1, 300022, Note_off_c, 0, 61, 55
1, 300115, Note_off_c, 0, 56, 28
1, 300297, Note_on_c, 0, 79, 68
1, 300312, Note_on_c, 0, 59, 51
1, 300312, Note_on_c, 0, 67, 52
1, 300312, Note_on_c, 0, 74, 69
1, 300319, Note_on_c, 0, 71, 60
1, 300323, Note_on_c, 0, 62, 48
1, 300344, Note_off_c, 0, 74, 62
1, 300354, Note_off_c, 0, 71, 60
1, 300354, Note_off_c, 0, 79, 60
1, 300375, Note_off_c, 0, 67, 59
1, 300387, Note_off_c, 0, 62, 58
1, 300390, Note_off_c, 0, 59, 59
1, 300579, Note_on_c, 0, 77, 68
1, 300594, Note_on_c, 0, 73, 60
1, 300595, Note_on_c, 0, 68, 55
1, 300595, Control_c, 0, 64, 82
1, 300600, Note_on_c, 0, 65, 48
1, 300605, Note_on_c, 0, 61, 46
1, 300607, Note_on_c, 0, 56, 52
1, 300610, Control_c, 0, 64, 67
1, 300625, Control_c, 0, 64, 62
1, 300640, Control_c, 0, 64, 63
1, 300655, Control_c, 0, 64, 66
1, 300669, Control_c, 0, 64, 72
1, 300684, Control_c, 0, 64, 80
1, 300699, Control_c, 0, 64, 89
1, 300714, Control_c, 0, 64, 96
1, 300729, Control_c, 0, 64, 101
1, 300743, Control_c, 0, 64, 105
1, 300758, Control_c, 0, 64, 111
1, 300773, Control_c, 0, 64, 127
1, 300795, Note_off_c, 0, 73, 60
1, 300799, Note_off_c, 0, 77, 57
1, 300831, Note_off_c, 0, 65, 38
1, 300867, Note_off_c, 0, 56, 51
1, 300905, Note_off_c, 0, 68, 39
1, 300918, Note_off_c, 0, 61, 37
1, 301048, Control_c, 0, 64, 78
1, 301056, Note_on_c, 0, 76, 70
1, 301063, Control_c, 0, 64, 56
1, 301063, Note_on_c, 0, 71, 60
1, 301070, Note_on_c, 0, 67, 49
1, 301074, Note_on_c, 0, 55, 47
1, 301075, Note_on_c, 0, 64, 54
1, 301078, Control_c, 0, 64, 42
1, 301088, Note_on_c, 0, 59, 50
1, 301092, Control_c, 0, 64, 47
1, 301107, Control_c, 0, 64, 56
1, 301122, Control_c, 0, 64, 63
1, 301137, Control_c, 0, 64, 69
1, 301152, Control_c, 0, 64, 78
1, 301166, Control_c, 0, 64, 87
1, 301181, Control_c, 0, 64, 93
1, 301196, Control_c, 0, 64, 98
1, 301211, Control_c, 0, 64, 101
1, 301226, Control_c, 0, 64, 105
1, 301227, Note_off_c, 0, 64, 58
1, 301240, Control_c, 0, 64, 112
1, 301255, Control_c, 0, 64, 127
1, 301261, Note_off_c, 0, 55, 53
1, 301281, Note_off_c, 0, 59, 61
1, 301317, Note_off_c, 0, 67, 36
1, 301352, Note_off_c, 0, 71, 31
1, 301460, Note_off_c, 0, 76, 33
1, 301581, Control_c, 0, 64, 99
1, 301596, Note_on_c, 0, 73, 61
1, 301596, Control_c, 0, 64, 66
1, 301606, Note_on_c, 0, 68, 55
1, 301608, Note_on_c, 0, 65, 49
1, 301610, Note_on_c, 0, 61, 43
1, 301610, Control_c, 0, 64, 45
1, 301610, Control_c, 0, 67, 75
1, 301613, Note_on_c, 0, 56, 40
1, 301621, Note_on_c, 0, 53, 42
1, 301625, Control_c, 0, 64, 37
1, 301625, Control_c, 0, 67, 127
1, 301648, Control_c, 0, 64, 39
1, 301663, Control_c, 0, 64, 48
1, 301677, Control_c, 0, 64, 57
1, 301692, Control_c, 0, 64, 65
1, 301707, Control_c, 0, 64, 73
1, 301722, Control_c, 0, 64, 81
1, 301737, Control_c, 0, 64, 84
1, 301752, Control_c, 0, 64, 87
1, 301767, Control_c, 0, 64, 90
1, 301769, Note_off_c, 0, 61, 59
1, 301782, Control_c, 0, 64, 94
1, 301797, Control_c, 0, 64, 98
1, 301803, Note_off_c, 0, 56, 54
1, 301812, Control_c, 0, 64, 102
1, 301820, Note_off_c, 0, 53, 52
1, 301826, Control_c, 0, 64, 107
1, 301841, Control_c, 0, 64, 112
1, 301856, Control_c, 0, 64, 121
1, 301871, Control_c, 0, 64, 127
1, 302169, Note_on_c, 0, 43, 64
1, 302174, Note_on_c, 0, 31, 51
1, 302175, Note_off_c, 0, 68, 62
1, 302182, Note_off_c, 0, 65, 61
1, 302206, Note_off_c, 0, 31, 58
1, 302206, Note_off_c, 0, 43, 61
1, 302211, Note_off_c, 0, 73, 56
1, 302546, Note_on_c, 0, 71, 56
1, 302551, Note_on_c, 0, 62, 47
1, 302555, Note_on_c, 0, 67, 53
1, 302561, Note_on_c, 0, 50, 40
1, 302562, Note_on_c, 0, 59, 41
1, 302585, Note_on_c, 0, 55, 39
1, 302604, Note_off_c, 0, 59, 61
1, 302610, Note_off_c, 0, 62, 54
1, 302646, Note_off_c, 0, 67, 37
1, 302669, Note_off_c, 0, 71, 50
1, 302691, Note_off_c, 0, 50, 37
1, 302715, Note_off_c, 0, 55, 36
1, 302775, Note_on_c, 0, 73, 65
1, 302784, Note_on_c, 0, 68, 53
1, 302789, Note_on_c, 0, 65, 53
1, 302792, Note_on_c, 0, 56, 56
1, 302798, Note_on_c, 0, 61, 49
1, 302809, Note_on_c, 0, 53, 36
1, 302824, Note_off_c, 0, 68, 58
1, 302827, Control_c, 0, 67, 105
1, 302834, Note_off_c, 0, 65, 58
1, 302842, Control_c, 0, 67, 81
1, 302843, Note_off_c, 0, 61, 57
1, 302846, Note_off_c, 0, 56, 56
1, 302850, Note_off_c, 0, 53, 55
1, 302856, Control_c, 0, 67, 59
1, 302867, Note_off_c, 0, 73, 57
1, 302871, Control_c, 0, 67, 41
1, 302886, Control_c, 0, 67, 0
1, 302977, Note_on_c, 0, 50, 60
1, 302978, Note_on_c, 0, 67, 65
1, 302978, Note_on_c, 0, 71, 70
1, 302986, Note_on_c, 0, 62, 56
1, 302989, Note_on_c, 0, 59, 54
1, 302997, Note_on_c, 0, 55, 45
1, 303007, Note_off_c, 0, 62, 60
1, 303007, Note_off_c, 0, 67, 65
1, 303020, Note_off_c, 0, 59, 64
1, 303028, Note_off_c, 0, 50, 51
1, 303040, Note_off_c, 0, 71, 59
1, 303043, Note_off_c, 0, 55, 55
1, 303182, Note_on_c, 0, 73, 73
1, 303191, Note_on_c, 0, 68, 59
1, 303192, Note_on_c, 0, 56, 59
1, 303195, Note_on_c, 0, 61, 60
1, 303198, Note_on_c, 0, 65, 48
1, 303204, Note_on_c, 0, 53, 52
1, 303232, Note_off_c, 0, 65, 64
1, 303235, Note_off_c, 0, 68, 60
1, 303249, Note_off_c, 0, 73, 63
1, 303254, Note_off_c, 0, 53, 61
1, 303254, Note_off_c, 0, 56, 59
1, 303262, Note_off_c, 0, 61, 60
1, 303576, Note_on_c, 0, 79, 76
1, 303591, Note_on_c, 0, 74, 60
1, 303593, Note_on_c, 0, 67, 56
1, 303595, Note_on_c, 0, 59, 53
1, 303596, Note_on_c, 0, 71, 55
1, 303601, Note_on_c, 0, 62, 52
1, 303740, Note_off_c, 0, 79, 62
1, 303754, Note_off_c, 0, 74, 64
1, 303755, Note_off_c, 0, 67, 61
1, 303759, Note_off_c, 0, 71, 61
1, 303773, Note_off_c, 0, 62, 62
1, 303776, Note_off_c, 0, 59, 63
1, 303982, Note_on_c, 0, 77, 72
1, 304000, Note_on_c, 0, 73, 61
1, 304000, Note_on_c, 0, 68, 61
1, 304006, Note_on_c, 0, 56, 54
1, 304017, Note_on_c, 0, 65, 53
1, 304022, Note_on_c, 0, 61, 50
1, 304027, Control_c, 0, 67, 36
1, 304042, Control_c, 0, 67, 59
1, 304057, Control_c, 0, 67, 89
1, 304072, Control_c, 0, 67, 119
1, 304086, Control_c, 0, 67, 127
1, 304125, Note_off_c, 0, 65, 49
1, 304143, Note_off_c, 0, 73, 62
1, 304148, Note_off_c, 0, 77, 61
1, 304167, Note_off_c, 0, 56, 60
1, 304173, Note_off_c, 0, 61, 59
1, 304178, Note_off_c, 0, 68, 57
1, 304392, Note_on_c, 0, 76, 75
1, 304404, Note_on_c, 0, 71, 62
1, 304405, Note_on_c, 0, 67, 60
1, 304408, Note_on_c, 0, 64, 54
1, 304410, Note_on_c, 0, 55, 55
1, 304422, Note_on_c, 0, 59, 51
1, 304432, Note_off_c, 0, 71, 65
1, 304432, Note_off_c, 0, 64, 64
1, 304432, Note_off_c, 0, 67, 66
1, 304441, Note_off_c, 0, 76, 62
1, 304447, Note_off_c, 0, 59, 58
1, 304457, Note_off_c, 0, 55, 62
1, 304562, Control_c, 0, 67, 116
1, 304576, Control_c, 0, 67, 97
1, 304591, Control_c, 0, 67, 78
1, 304606, Control_c, 0, 67, 63
1, 304621, Control_c, 0, 67, 53
1, 304643, Control_c, 0, 67, 47
1, 304658, Control_c, 0, 67, 43
1, 304673, Control_c, 0, 67, 40
1, 304679, Note_on_c, 0, 73, 74
1, 304688, Control_c, 0, 67, 38
1, 304688, Note_on_c, 0, 65, 60
1, 304691, Note_on_c, 0, 49, 60
1, 304697, Note_on_c, 0, 37, 62
1, 304703, Note_on_c, 0, 68, 55
1, 304703, Control_c, 0, 64, 96
1, 304703, Control_c, 0, 67, 33
1, 304717, Control_c, 0, 64, 66
1, 304717, Control_c, 0, 67, 0
1, 304732, Control_c, 0, 64, 31
1, 304747, Control_c, 0, 64, 0
1, 304806, Control_c, 0, 64, 34
1, 304821, Control_c, 0, 64, 49
1, 304835, Control_c, 0, 64, 63
1, 304850, Control_c, 0, 64, 71
1, 304865, Control_c, 0, 64, 82
1, 304868, Note_off_c, 0, 37, 62
1, 304880, Control_c, 0, 64, 93
1, 304894, Note_off_c, 0, 49, 62
1, 304895, Control_c, 0, 64, 114
1, 304909, Control_c, 0, 64, 127
1, 304945, Note_off_c, 0, 65, 58
1, 304947, Note_off_c, 0, 68, 50
1, 304968, Note_off_c, 0, 73, 50
1, 305177, Note_on_c, 0, 71, 57
1, 305186, Note_on_c, 0, 67, 49
1, 305189, Note_on_c, 0, 62, 48
1, 305197, Note_on_c, 0, 50, 38
1, 305197, Note_on_c, 0, 59, 46
1, 305231, Note_off_c, 0, 62, 53
1, 305240, Note_on_c, 0, 55, 32
1, 305249, Note_off_c, 0, 59, 60
1, 305254, Note_off_c, 0, 67, 46
1, 305278, Note_off_c, 0, 71, 56
1, 305291, Note_off_c, 0, 50, 51
1, 305308, Note_off_c, 0, 55, 54
1, 305401, Note_on_c, 0, 73, 69
1, 305413, Note_on_c, 0, 68, 57
1, 305417, Note_on_c, 0, 65, 53
1, 305418, Note_on_c, 0, 56, 53
1, 305427, Note_on_c, 0, 61, 44
1, 305430, Note_on_c, 0, 53, 44
1, 305445, Note_off_c, 0, 68, 64
1, 305457, Note_off_c, 0, 61, 57
1, 305457, Note_off_c, 0, 65, 59
1, 305468, Note_off_c, 0, 56, 56
1, 305474, Note_off_c, 0, 53, 58
1, 305475, Note_off_c, 0, 73, 59
1, 305592, Note_on_c, 0, 67, 72
1, 305594, Note_on_c, 0, 71, 75
1, 305599, Note_on_c, 0, 50, 63
1, 305602, Note_on_c, 0, 62, 68
1, 305603, Note_on_c, 0, 59, 62
1, 305620, Note_on_c, 0, 55, 47
1, 305630, Note_off_c, 0, 62, 63
1, 305630, Note_off_c, 0, 67, 56
1, 305637, Note_off_c, 0, 59, 63
1, 305668, Note_off_c, 0, 50, 56
1, 305677, Note_off_c, 0, 71, 61
1, 305686, Note_off_c, 0, 55, 50
1, 305773, Note_on_c, 0, 73, 84
1, 305780, Note_on_c, 0, 61, 75
1, 305784, Note_on_c, 0, 65, 68
1, 305785, Note_on_c, 0, 53, 61
1, 305785, Note_on_c, 0, 56, 70
1, 305786, Note_on_c, 0, 68, 65
1, 305830, Note_off_c, 0, 65, 51
1, 305865, Note_off_c, 0, 73, 59
1, 305868, Note_off_c, 0, 53, 61
1, 305872, Note_off_c, 0, 61, 58
1, 305878, Note_off_c, 0, 56, 61
1, 305879, Note_off_c, 0, 68, 58
1, 306167, Note_on_c, 0, 79, 93
1, 306177, Note_on_c, 0, 71, 80
1, 306181, Note_on_c, 0, 67, 77
1, 306182, Note_on_c, 0, 59, 70
1, 306182, Note_on_c, 0, 74, 77
1, 306194, Note_on_c, 0, 62, 68
1, 306268, Note_off_c, 0, 67, 59
1, 306275, Note_off_c, 0, 79, 61
1, 306275, Note_off_c, 0, 71, 58
1, 306296, Note_off_c, 0, 62, 62
1, 306296, Note_off_c, 0, 74, 62
1, 306304, Note_off_c, 0, 59, 63
1, 306539, Note_on_c, 0, 77, 92
1, 306554, Note_on_c, 0, 56, 66
1, 306556, Note_on_c, 0, 68, 77
1, 306557, Note_on_c, 0, 73, 75
1, 306560, Note_on_c, 0, 65, 70
1, 306565, Note_on_c, 0, 61, 68
1, 306652, Note_off_c, 0, 65, 57
1, 306662, Note_off_c, 0, 77, 65
1, 306676, Note_off_c, 0, 73, 62
1, 306680, Note_off_c, 0, 68, 60
1, 306711, Note_off_c, 0, 61, 60
1, 306712, Note_off_c, 0, 56, 58
1, 306779, Control_c, 0, 67, 42
1, 306794, Control_c, 0, 67, 50
1, 306809, Control_c, 0, 67, 55
1, 306824, Control_c, 0, 67, 58
1, 306838, Control_c, 0, 67, 62
1, 306853, Control_c, 0, 67, 70
1, 306868, Control_c, 0, 67, 82
1, 306891, Control_c, 0, 67, 98
1, 306906, Control_c, 0, 67, 116
1, 306920, Control_c, 0, 67, 127
1, 306936, Note_on_c, 0, 76, 74
1, 306943, Note_on_c, 0, 71, 74
1, 306945, Note_on_c, 0, 67, 74
1, 306948, Note_on_c, 0, 55, 54
1, 306949, Note_on_c, 0, 64, 48
1, 306958, Note_on_c, 0, 59, 58
1, 306971, Note_off_c, 0, 71, 64
1, 306973, Note_off_c, 0, 64, 59
1, 306977, Note_off_c, 0, 67, 64
1, 306986, Note_off_c, 0, 59, 64
1, 306992, Note_off_c, 0, 55, 63
1, 307002, Note_off_c, 0, 76, 61
1, 307172, Control_c, 0, 64, 82
1, 307186, Control_c, 0, 64, 57
1, 307201, Control_c, 0, 64, 0
1, 307249, Note_on_c, 0, 73, 56
1, 307252, Note_on_c, 0, 31, 42
1, 307263, Note_on_c, 0, 43, 36
1, 307268, Note_on_c, 0, 65, 42
1, 307270, Note_on_c, 0, 68, 45
1, 307276, Control_c, 0, 64, 38
1, 307290, Note_off_c, 0, 31, 62
1, 307290, Control_c, 0, 64, 61
1, 307305, Control_c, 0, 64, 78
1, 307320, Control_c, 0, 64, 127
1, 307320, Note_off_c, 0, 68, 59
1, 307321, Note_off_c, 0, 43, 62
1, 307329, Note_off_c, 0, 65, 61
1, 307345, Note_off_c, 0, 73, 62
1, 307526, Note_on_c, 0, 79, 62
1, 307541, Note_on_c, 0, 59, 47
1, 307550, Note_on_c, 0, 62, 30
1, 307554, Note_on_c, 0, 74, 44
1, 307560, Note_on_c, 0, 67, 42
1, 307565, Note_on_c, 0, 71, 41
1, 307696, Note_off_c, 0, 79, 61
1, 307705, Note_off_c, 0, 74, 64
1, 307711, Note_off_c, 0, 67, 61
1, 307715, Note_off_c, 0, 71, 62
1, 307727, Note_off_c, 0, 62, 50
1, 307733, Note_off_c, 0, 59, 63
1, 307742, Control_c, 0, 67, 53
1, 307757, Control_c, 0, 67, 0
1, 307902, Note_on_c, 0, 77, 64
1, 307916, Note_on_c, 0, 73, 60
1, 307923, Note_on_c, 0, 61, 44
1, 307924, Note_on_c, 0, 68, 58
1, 307928, Note_on_c, 0, 56, 49
1, 307928, Note_on_c, 0, 65, 43
1, 308078, Note_off_c, 0, 65, 57
1, 308080, Note_off_c, 0, 73, 63
1, 308084, Note_off_c, 0, 77, 58
1, 308107, Note_off_c, 0, 56, 61
1, 308124, Note_off_c, 0, 68, 61
1, 308136, Note_off_c, 0, 61, 51
1, 308253, Note_on_c, 0, 64, 42
1, 308256, Note_on_c, 0, 55, 55
1, 308262, Note_on_c, 0, 76, 62
1, 308264, Note_on_c, 0, 59, 43
1, 308269, Note_on_c, 0, 71, 61
1, 308274, Note_on_c, 0, 67, 56
1, 308283, Note_off_c, 0, 64, 55
1, 308288, Note_off_c, 0, 55, 64
1, 308289, Note_off_c, 0, 59, 57
1, 308295, Note_off_c, 0, 71, 64
1, 308296, Note_off_c, 0, 76, 61
1, 308304, Note_off_c, 0, 67, 65
1, 308387, Control_c, 0, 64, 80
1, 308401, Control_c, 0, 64, 36
1, 308416, Control_c, 0, 64, 0
1, 308438, Note_on_c, 0, 73, 76
1, 308444, Note_on_c, 0, 65, 66
1, 308444, Note_on_c, 0, 49, 70
1, 308446, Control_c, 0, 64, 55
1, 308448, Note_on_c, 0, 68, 54
1, 308449, Note_on_c, 0, 37, 61
1, 308461, Control_c, 0, 64, 84
1, 308469, Note_off_c, 0, 68, 62
1, 308470, Note_off_c, 0, 65, 67
1, 308475, Control_c, 0, 64, 127
1, 308477, Note_off_c, 0, 49, 63
1, 308478, Note_off_c, 0, 73, 61
1, 308480, Note_off_c, 0, 37, 63
1, 308623, Note_on_c, 0, 79, 79
1, 308629, Note_on_c, 0, 74, 76
1, 308633, Note_on_c, 0, 71, 77
1, 308641, Note_on_c, 0, 67, 76
1, 308644, Note_on_c, 0, 59, 67
1, 308654, Note_on_c, 0, 62, 59
1, 308796, Note_off_c, 0, 79, 61
1, 308797, Note_off_c, 0, 74, 65
1, 308799, Note_off_c, 0, 67, 61
1, 308806, Note_off_c, 0, 71, 61
1, 308808, Note_off_c, 0, 62, 62
1, 308823, Note_off_c, 0, 59, 64
1, 308965, Note_on_c, 0, 77, 87
1, 308971, Note_on_c, 0, 65, 78
1, 308973, Note_on_c, 0, 56, 72
1, 308975, Note_on_c, 0, 68, 77
1, 308976, Note_on_c, 0, 73, 74
1, 308982, Note_on_c, 0, 61, 65
1, 309118, Note_off_c, 0, 65, 58
1, 309135, Note_off_c, 0, 73, 63
1, 309141, Note_off_c, 0, 77, 58
1, 309162, Note_off_c, 0, 61, 62
1, 309175, Note_off_c, 0, 68, 61
1, 309180, Note_off_c, 0, 56, 49
1, 309282, Note_on_c, 0, 55, 78
1, 309282, Note_on_c, 0, 64, 65
1, 309289, Note_on_c, 0, 76, 81
1, 309291, Note_on_c, 0, 59, 62
1, 309295, Note_on_c, 0, 67, 84
1, 309298, Note_on_c, 0, 71, 82
1, 309301, Note_off_c, 0, 64, 65
1, 309308, Note_off_c, 0, 59, 68
1, 309309, Note_off_c, 0, 55, 68
1, 309326, Note_off_c, 0, 71, 61
1, 309330, Note_off_c, 0, 67, 60
1, 309357, Note_off_c, 0, 76, 58
1, 309388, Control_c, 0, 64, 112
1, 309403, Control_c, 0, 64, 61
1, 309418, Control_c, 0, 64, 0
1, 309447, Control_c, 0, 64, 41
1, 309449, Note_on_c, 0, 73, 89
1, 309450, Note_on_c, 0, 65, 92
1, 309452, Note_on_c, 0, 68, 73
1, 309457, Note_on_c, 0, 43, 86
1, 309461, Note_on_c, 0, 31, 80
1, 309462, Control_c, 0, 64, 127
1, 309471, Note_off_c, 0, 65, 68
1, 309472, Note_off_c, 0, 68, 72
1, 309487, Note_off_c, 0, 31, 65
1, 309487, Note_off_c, 0, 73, 66
1, 309505, Note_off_c, 0, 43, 63
1, 309621, Note_on_c, 0, 79, 92
1, 309625, Note_on_c, 0, 71, 100
1, 309625, Note_on_c, 0, 74, 92
1, 309628, Note_on_c, 0, 61, 81
1, 309635, Note_on_c, 0, 59, 84
1, 309642, Note_on_c, 0, 67, 87
1, 309645, Note_off_c, 0, 61, 67
1, 309646, Note_on_c, 0, 62, 81
1, 309717, Poly_aftertouch_c, 0, 57, 127
1, 309720, Note_on_c, 0, 57, 4
1, 309746, Note_off_c, 0, 79, 60
1, 309753, Note_off_c, 0, 57, 44
1, 309753, Note_off_c, 0, 67, 58
1, 309759, Note_off_c, 0, 71, 63
1, 309762, Note_off_c, 0, 74, 64
1, 309763, Note_off_c, 0, 59, 58
1, 309771, Note_on_c, 0, 78, 10
1, 309776, Note_off_c, 0, 62, 61
1, 309819, Note_off_c, 0, 78, 38
1, 309942, Note_on_c, 0, 77, 93
1, 309949, Note_on_c, 0, 65, 93
1, 309951, Note_on_c, 0, 68, 99
1, 309953, Note_on_c, 0, 73, 90
1, 309955, Note_on_c, 0, 56, 81
1, 309958, Note_on_c, 0, 61, 80
1, 309991, Note_on_c, 0, 58, 42
1, 309991, Note_off_c, 0, 77, 63
1, 309997, Note_off_c, 0, 68, 64
1, 310003, Control_c, 0, 67, 80
1, 310015, Note_off_c, 0, 65, 61
1, 310018, Control_c, 0, 67, 99
1, 310019, Note_off_c, 0, 58, 55
1, 310024, Note_off_c, 0, 73, 61
1, 310033, Control_c, 0, 67, 84
1, 310048, Control_c, 0, 67, 44
1, 310052, Note_off_c, 0, 61, 63
1, 310062, Control_c, 0, 67, 0
1, 310072, Note_off_c, 0, 56, 61
1, 310256, Note_on_c, 0, 76, 95
1, 310257, Note_on_c, 0, 64, 86
1, 310260, Note_on_c, 0, 67, 99
1, 310261, Note_on_c, 0, 55, 80
1, 310263, Note_on_c, 0, 71, 91
1, 310267, Note_on_c, 0, 59, 83
1, 310277, Note_off_c, 0, 64, 73
1, 310288, Note_off_c, 0, 59, 69
1, 310290, Note_off_c, 0, 76, 67
1, 310292, Note_off_c, 0, 67, 68
1, 310295, Note_off_c, 0, 55, 64
1, 310297, Note_off_c, 0, 71, 68
1, 310400, Poly_aftertouch_c, 0, 59, 127
1, 310433, Poly_aftertouch_c, 0, 59, 0
1, 310477, Control_c, 0, 64, 60
1, 310492, Control_c, 0, 64, 0
1, 310511, Note_on_c, 0, 49, 101
1, 310516, Note_on_c, 0, 37, 87
1, 310566, Control_c, 0, 64, 48
1, 310581, Control_c, 0, 64, 80
1, 310596, Control_c, 0, 64, 115
1, 310611, Control_c, 0, 64, 127
1, 310680, Note_off_c, 0, 37, 62
1, 310700, Note_off_c, 0, 49, 63
1, 310772, Note_on_c, 0, 71, 92
1, 310778, Note_on_c, 0, 62, 93
1, 310781, Note_on_c, 0, 64, 84
1, 310784, Note_on_c, 0, 69, 82
1, 310784, Note_on_c, 0, 67, 80
1, 310802, Note_off_c, 0, 64, 70
1, 310808, Note_off_c, 0, 62, 63
1, 310816, Note_off_c, 0, 67, 63
1, 310823, Note_off_c, 0, 71, 63
1, 310828, Note_off_c, 0, 69, 63
1, 310890, Note_on_c, 0, 58, 92
1, 310903, Note_on_c, 0, 49, 58
1, 310907, Note_on_c, 0, 56, 74
1, 310915, Note_on_c, 0, 51, 63
1, 310927, Note_on_c, 0, 54, 49
1, 310961, Note_off_c, 0, 54, 62
1, 310967, Note_off_c, 0, 58, 54
1, 310975, Note_off_c, 0, 56, 60
1, 310979, Note_off_c, 0, 49, 57
1, 310983, Note_off_c, 0, 51, 60
1, 311002, Note_on_c, 0, 61, 96
1, 311003, Note_on_c, 0, 70, 87
1, 311014, Note_on_c, 0, 68, 76
1, 311017, Note_on_c, 0, 66, 73
1, 311036, Note_on_c, 0, 63, 35
1, 311036, Note_off_c, 0, 61, 65
1, 311037, Note_off_c, 0, 68, 70
1, 311040, Note_off_c, 0, 66, 68
1, 311050, Note_off_c, 0, 70, 66
1, 311067, Note_off_c, 0, 63, 53
1, 311103, Note_on_c, 0, 59, 88
1, 311110, Note_on_c, 0, 50, 69
1, 311121, Note_on_c, 0, 57, 64
1, 311124, Note_on_c, 0, 53, 62
1, 311129, Note_on_c, 0, 55, 56
1, 311134, Note_off_c, 0, 59, 63
1, 311137, Note_off_c, 0, 50, 66
1, 311147, Note_off_c, 0, 57, 66
1, 311151, Note_off_c, 0, 53, 63
1, 311153, Note_off_c, 0, 55, 60
1, 311184, Note_on_c, 0, 83, 97
1, 311184, Note_on_c, 0, 74, 100
1, 311189, Note_on_c, 0, 81, 80
1, 311194, Note_on_c, 0, 76, 70
1, 311202, Note_on_c, 0, 79, 63
1, 311220, Note_off_c, 0, 74, 66
1, 311225, Note_off_c, 0, 76, 59
1, 311228, Note_off_c, 0, 83, 65
1, 311229, Note_off_c, 0, 79, 67
1, 311256, Note_off_c, 0, 81, 61
1, 311288, Note_on_c, 0, 70, 94
1, 311297, Note_on_c, 0, 61, 67
1, 311299, Note_on_c, 0, 68, 70
1, 311306, Note_on_c, 0, 66, 64
1, 311324, Note_off_c, 0, 61, 68
1, 311328, Note_off_c, 0, 70, 62
1, 311343, Note_off_c, 0, 66, 63
1, 311344, Note_on_c, 0, 82, 97
1, 311347, Note_on_c, 0, 63, 32
1, 311347, Note_on_c, 0, 73, 89
1, 311349, Note_off_c, 0, 68, 53
1, 311353, Note_on_c, 0, 78, 70
1, 311367, Note_off_c, 0, 73, 71
1, 311384, Note_off_c, 0, 78, 67
1, 311389, Note_on_c, 0, 80, 40
1, 311395, Note_off_c, 0, 82, 65
1, 311397, Note_off_c, 0, 63, 41
1, 311415, Note_on_c, 0, 62, 82
1, 311415, Note_on_c, 0, 71, 100
1, 311418, Note_off_c, 0, 80, 53
1, 311427, Note_on_c, 0, 69, 73
1, 311441, Note_on_c, 0, 67, 56
1, 311443, Note_off_c, 0, 62, 66
1, 311444, Note_off_c, 0, 71, 60
1, 311450, Note_off_c, 0, 69, 67
1, 311461, Note_off_c, 0, 67, 64
1, 311493, Note_on_c, 0, 86, 97
1, 311494, Note_on_c, 0, 95, 92
1, 311500, Note_on_c, 0, 88, 79
1, 311502, Note_on_c, 0, 93, 74
1, 311507, Note_on_c, 0, 91, 65
1, 311519, Note_off_c, 0, 88, 74
1, 311523, Note_off_c, 0, 95, 65
1, 311526, Note_off_c, 0, 86, 66
1, 311527, Note_off_c, 0, 91, 67
1, 311529, Note_off_c, 0, 93, 66
1, 311532, Poly_aftertouch_c, 0, 64, 0
1, 311564, Note_on_c, 0, 82, 107
1, 311577, Note_on_c, 0, 73, 72
1, 311578, Note_on_c, 0, 81, 75
1, 311592, Note_off_c, 0, 82, 68
1, 311601, Note_off_c, 0, 73, 69
1, 311602, Note_on_c, 0, 75, 35
1, 311602, Note_off_c, 0, 81, 66
1, 311616, Note_on_c, 0, 85, 103
1, 311616, Note_on_c, 0, 94, 101
1, 311624, Note_on_c, 0, 87, 79
1, 311628, Note_off_c, 0, 85, 78
1, 311631, Note_off_c, 0, 75, 33
1, 311638, Note_off_c, 0, 94, 61
1, 311640, Note_on_c, 0, 95, 67
1, 311641, Note_on_c, 0, 91, 32
1, 311641, Note_off_c, 0, 91, 127
1, 311643, Note_off_c, 0, 87, 72
1, 311653, Note_on_c, 0, 83, 101
1, 311655, Note_off_c, 0, 95, 67
1, 311666, Note_on_c, 0, 74, 77
1, 311671, Note_on_c, 0, 81, 70
1, 311675, Note_on_c, 0, 79, 61
1, 311686, Note_off_c, 0, 83, 68
1, 311689, Note_off_c, 0, 74, 70
1, 311692, Note_off_c, 0, 81, 72
1, 311694, Note_off_c, 0, 79, 65
1, 311726, Note_on_c, 0, 98, 109
1, 311729, Note_on_c, 0, 107, 105
1, 311747, Note_on_c, 0, 104, 62
1, 311747, Note_off_c, 0, 104, 127
1, 311752, Note_off_c, 0, 98, 72
1, 311757, Note_on_c, 0, 100, 43
1, 311757, Note_off_c, 0, 100, 127
1, 311761, Note_off_c, 0, 107, 63
1, 311766, Poly_aftertouch_c, 0, 76, 0
1, 311791, Note_on_c, 0, 94, 113
1, 311800, Note_on_c, 0, 85, 83
1, 311807, Note_on_c, 0, 93, 88
1, 311814, Note_on_c, 0, 87, 61
1, 311816, Note_on_c, 0, 90, 46
1, 311816, Note_off_c, 0, 90, 127
1, 311824, Note_off_c, 0, 94, 61
1, 311830, Note_on_c, 0, 95, 69
1, 311834, Note_off_c, 0, 87, 39
1, 311840, Note_on_c, 0, 97, 103
1, 311843, Note_on_c, 0, 106, 109
1, 311853, Note_on_c, 0, 96, 89
1, 311853, Note_off_c, 0, 95, 54
1, 311857, Note_off_c, 0, 85, 62
1, 311860, Note_on_c, 0, 104, 65
1, 311860, Note_off_c, 0, 104, 127
1, 311860, Note_off_c, 0, 106, 69
1, 311869, Note_off_c, 0, 97, 65
1, 311871, Note_off_c, 0, 96, 75
1, 311872, Note_on_c, 0, 86, 88
1, 311879, Note_on_c, 0, 91, 87
1, 311903, Note_off_c, 0, 91, 69
1, 311909, Note_off_c, 0, 93, 67
1, 311911, Note_on_c, 0, 88, 46
1, 311920, Note_off_c, 0, 86, 68
1, 311938, Note_off_c, 0, 88, 59
1, 312090, Note_on_c, 0, 100, 104
1, 312093, Control_c, 0, 64, 112
1, 312108, Control_c, 0, 64, 55
1, 312131, Control_c, 0, 64, 0
1, 312260, Note_on_c, 0, 99, 88
1, 312265, Control_c, 0, 64, 54
1, 312280, Control_c, 0, 64, 88
1, 312294, Note_off_c, 0, 100, 66
1, 312295, Control_c, 0, 64, 127
1, 312340, Note_on_c, 0, 94, 80
1, 312376, Note_off_c, 0, 99, 64
1, 312403, Note_on_c, 0, 93, 87
1, 312409, Note_off_c, 0, 94, 66
1, 312436, Note_off_c, 0, 93, 63
1, 312465, Note_on_c, 0, 88, 81
1, 312521, Note_on_c, 0, 87, 82
1, 312537, Note_off_c, 0, 88, 65
1, 312576, Note_on_c, 0, 82, 77
1, 312579, Note_off_c, 0, 87, 67
1, 312617, Note_on_c, 0, 81, 54
1, 312617, Note_off_c, 0, 82, 65
1, 312640, Note_off_c, 0, 81, 68
1, 312658, Note_on_c, 0, 76, 76
1, 312695, Note_on_c, 0, 75, 78
1, 312720, Note_off_c, 0, 76, 66
1, 312746, Note_on_c, 0, 70, 78
1, 312770, Note_off_c, 0, 75, 64
1, 312795, Note_on_c, 0, 69, 90
1, 312802, Note_off_c, 0, 70, 66
1, 312828, Note_off_c, 0, 69, 67
1, 312850, Note_on_c, 0, 64, 77
1, 312912, Note_on_c, 0, 62, 61
1, 312914, Note_off_c, 0, 64, 62
1, 312915, Note_on_c, 0, 63, 51
1, 312954, Note_off_c, 0, 63, 50
1, 312966, Note_off_c, 0, 62, 62
1, 312994, Note_on_c, 0, 57, 70
1, 313020, Note_off_c, 0, 57, 66
1, 313028, Note_on_c, 0, 52, 82
1, 313052, Note_on_c, 0, 53, 42
1, 313068, Note_on_c, 0, 51, 80
1, 313088, Note_off_c, 0, 53, 32
1, 313095, Note_off_c, 0, 52, 62
1, 313127, Note_on_c, 0, 47, 74
1, 313141, Note_on_c, 0, 49, 23
1, 313148, Note_off_c, 0, 51, 62
1, 313172, Note_off_c, 0, 47, 64
1, 313173, Note_on_c, 0, 45, 83
1, 313179, Note_off_c, 0, 49, 44
1, 313196, Note_off_c, 0, 45, 69
1, 313202, Note_on_c, 0, 40, 84
1, 313255, Note_on_c, 0, 39, 59
1, 313271, Note_on_c, 0, 38, 74
1, 313309, Note_on_c, 0, 34, 71
1, 313315, Note_off_c, 0, 40, 31
1, 313318, Note_off_c, 0, 38, 61
1, 313325, Note_off_c, 0, 39, 62
1, 313328, Note_on_c, 0, 33, 80
1, 313339, Note_off_c, 0, 34, 65
1, 313363, Note_off_c, 0, 33, 66
1, 313392, Note_on_c, 0, 21, 113
1, 313410, Note_off_c, 0, 21, 74
1, 313443, Control_c, 0, 64, 118
1, 313458, Control_c, 0, 64, 69
1, 313467, Poly_aftertouch_c, 0, 35, 0
1, 313473, Control_c, 0, 64, 36
1, 313488, Control_c, 0, 64, 0
1, 313604, Note_on_c, 0, 27, 98
1, 313689, Note_off_c, 0, 27, 58
1, 313792, Control_c, 0, 64, 64
1, 313801, Note_on_c, 0, 21, 92
1, 313807, Control_c, 0, 64, 109
1, 313835, Note_off_c, 0, 21, 67
1, 313837, Control_c, 0, 64, 76
1, 313851, Control_c, 0, 64, 48
1, 313866, Control_c, 0, 64, 0
1, 313902, Note_on_c, 0, 21, 76
1, 313963, Note_off_c, 0, 21, 60
1, 314002, Note_on_c, 0, 27, 91
1, 314042, Note_off_c, 0, 27, 61
1, 314104, Note_on_c, 0, 21, 98
1, 314118, Control_c, 0, 64, 29
1, 314133, Control_c, 0, 64, 61
1, 314143, Note_off_c, 0, 21, 65
1, 314148, Control_c, 0, 64, 56
1, 314163, Control_c, 0, 64, 0
1, 314421, Note_on_c, 0, 27, 101
1, 314463, Note_off_c, 0, 27, 65
1, 314621, Note_on_c, 0, 21, 85
1, 314655, Note_off_c, 0, 21, 65
1, 314716, Note_on_c, 0, 21, 87
1, 314764, Note_off_c, 0, 21, 63
1, 314814, Note_on_c, 0, 27, 92
1, 314863, Note_off_c, 0, 27, 61
1, 314920, Note_on_c, 0, 21, 94
1, 314941, Control_c, 0, 64, 31
1, 314956, Control_c, 0, 64, 36
1, 314957, Note_off_c, 0, 21, 67
1, 314970, Control_c, 0, 64, 37
1, 314985, Control_c, 0, 64, 37
1, 315000, Control_c, 0, 64, 34
1, 315015, Control_c, 0, 64, 33
1, 315030, Control_c, 0, 64, 32
1, 315044, Control_c, 0, 64, 32
1, 315215, Control_c, 0, 64, 29
1, 315227, Note_on_c, 0, 27, 98
1, 315230, Control_c, 0, 64, 0
1, 315269, Note_off_c, 0, 27, 62
1, 315425, Note_on_c, 0, 21, 77
1, 315460, Note_off_c, 0, 21, 64
1, 315533, Note_on_c, 0, 21, 71
1, 315565, Note_off_c, 0, 21, 64
1, 315607, Note_on_c, 0, 27, 81
1, 315653, Note_off_c, 0, 27, 57
1, 315717, Note_on_c, 0, 21, 86
1, 315754, Note_off_c, 0, 21, 64
1, 316025, Note_on_c, 0, 27, 84
1, 316063, Note_off_c, 0, 27, 62
1, 316220, Note_on_c, 0, 21, 72
1, 316254, Note_off_c, 0, 21, 64
1, 316326, Note_on_c, 0, 21, 67
1, 316365, Note_off_c, 0, 21, 50
1, 316413, Note_on_c, 0, 27, 83
1, 316450, Note_off_c, 0, 27, 63
1, 316519, Note_on_c, 0, 21, 73
1, 316622, Note_on_c, 0, 45, 98
1, 316665, Note_off_c, 0, 45, 65
1, 316720, Note_on_c, 0, 45, 95
1, 316765, Note_off_c, 0, 45, 65
1, 316813, Note_on_c, 0, 43, 99
1, 316858, Note_off_c, 0, 43, 65
1, 316859, Note_off_c, 0, 21, 35
1, 316906, Note_on_c, 0, 40, 94
1, 317023, Note_on_c, 0, 27, 79
1, 317026, Note_off_c, 0, 40, 63
1, 317026, Control_c, 0, 64, 29
1, 317040, Control_c, 0, 64, 44
1, 317055, Control_c, 0, 64, 50
1, 317070, Control_c, 0, 64, 51
1, 317085, Control_c, 0, 64, 51
1, 317100, Control_c, 0, 64, 44
1, 317113, Note_on_c, 0, 39, 100
1, 317114, Control_c, 0, 64, 0
1, 317116, Note_off_c, 0, 27, 59
1, 317188, Control_c, 0, 64, 32
1, 317203, Control_c, 0, 64, 49
1, 317218, Control_c, 0, 64, 60
1, 317233, Control_c, 0, 64, 64
1, 317235, Note_off_c, 0, 39, 62
1, 317237, Note_on_c, 0, 28, 82
1, 317247, Control_c, 0, 64, 66
1, 317262, Control_c, 0, 64, 68
1, 317277, Control_c, 0, 64, 70
1, 317292, Control_c, 0, 64, 73
1, 317294, Note_off_c, 0, 28, 59
1, 317307, Control_c, 0, 64, 77
1, 317319, Note_on_c, 0, 37, 101
1, 317321, Control_c, 0, 64, 82
1, 317336, Control_c, 0, 64, 88
1, 317351, Control_c, 0, 64, 94
1, 317373, Control_c, 0, 64, 99
1, 317388, Control_c, 0, 64, 102
1, 317403, Control_c, 0, 64, 105
1, 317408, Note_off_c, 0, 37, 61
1, 317440, Note_on_c, 0, 27, 58
1, 317479, Note_off_c, 0, 27, 61
1, 317492, Control_c, 0, 64, 101
1, 317507, Control_c, 0, 64, 94
1, 317521, Control_c, 0, 64, 84
1, 317524, Note_on_c, 0, 36, 94
1, 317536, Control_c, 0, 64, 75
1, 317548, Note_on_c, 0, 28, 77
1, 317551, Control_c, 0, 64, 66
1, 317566, Control_c, 0, 64, 56
1, 317568, Note_off_c, 0, 36, 64
1, 317576, Note_off_c, 0, 28, 63
1, 317581, Control_c, 0, 64, 45
1, 317595, Control_c, 0, 64, 32
1, 317610, Control_c, 0, 64, 0
1, 317622, Note_on_c, 0, 33, 97
1, 317640, Note_on_c, 0, 21, 79
1, 317680, Note_off_c, 0, 21, 63
1, 317718, Note_on_c, 0, 21, 85
1, 317749, Note_off_c, 0, 33, 61
1, 317822, Note_on_c, 0, 31, 96
1, 317870, Note_off_c, 0, 31, 64
1, 317914, Note_on_c, 0, 33, 95
1, 317952, Note_off_c, 0, 33, 62
1, 318016, Note_on_c, 0, 31, 87
1, 318084, Note_off_c, 0, 21, 34
1, 318090, Note_off_c, 0, 31, 57
1, 318135, Note_on_c, 0, 33, 81
1, 318228, Note_off_c, 0, 33, 61
1, 318236, Note_on_c, 0, 27, 97
1, 318338, Note_on_c, 0, 39, 82
1, 318396, Note_off_c, 0, 27, 52
1, 318448, Note_on_c, 0, 28, 88
1, 318466, Note_off_c, 0, 39, 62
1, 318520, Note_off_c, 0, 28, 58
1, 318530, Note_on_c, 0, 37, 90
1, 318627, Note_off_c, 0, 37, 62
1, 318649, Note_on_c, 0, 27, 83
1, 318689, Note_off_c, 0, 27, 64
1, 318730, Note_on_c, 0, 36, 83
1, 318752, Note_on_c, 0, 28, 80
1, 318762, Note_off_c, 0, 36, 68
1, 318788, Note_off_c, 0, 28, 67
1, 318835, Note_on_c, 0, 33, 93
1, 318841, Note_on_c, 0, 21, 83
1, 318894, Note_off_c, 0, 21, 65
1, 318934, Note_on_c, 0, 21, 72
1, 318954, Note_off_c, 0, 33, 62
1, 319050, Note_on_c, 0, 31, 95
1, 319092, Note_off_c, 0, 31, 65
1, 319146, Note_on_c, 0, 33, 92
1, 319176, Note_off_c, 0, 33, 66
1, 319247, Note_on_c, 0, 31, 88
1, 319271, Note_off_c, 0, 21, 53
1, 319283, Note_off_c, 0, 31, 63
1, 319340, Note_on_c, 0, 33, 88
1, 319446, Note_on_c, 0, 27, 88
1, 319448, Note_off_c, 0, 33, 59
1, 319536, Note_on_c, 0, 39, 84
1, 319599, Note_off_c, 0, 27, 55
1, 319652, Note_on_c, 0, 28, 92
1, 319677, Note_off_c, 0, 39, 63
1, 319742, Note_on_c, 0, 37, 98
1, 319755, Note_off_c, 0, 28, 59
1, 319835, Note_off_c, 0, 37, 61
1, 319836, Note_on_c, 0, 27, 98
1, 319842, Control_c, 0, 64, 44
1, 319857, Control_c, 0, 64, 40
1, 319872, Control_c, 0, 64, 0
1, 319917, Note_on_c, 0, 36, 92
1, 319933, Note_off_c, 0, 27, 62
1, 319976, Note_off_c, 0, 36, 64
1, 320025, Note_on_c, 0, 33, 97
1, 320032, Note_on_c, 0, 25, 84
1, 320049, Control_c, 0, 64, 28
1, 320064, Control_c, 0, 64, 46
1, 320079, Note_off_c, 0, 33, 64
1, 320079, Control_c, 0, 64, 0
1, 320117, Note_on_c, 0, 39, 97
1, 320161, Note_off_c, 0, 25, 32
1, 320216, Note_on_c, 0, 27, 98
1, 320243, Control_c, 0, 64, 51
1, 320257, Control_c, 0, 64, 74
1, 320272, Control_c, 0, 64, 78
1, 320275, Note_off_c, 0, 39, 56
1, 320287, Control_c, 0, 64, 78
1, 320317, Control_c, 0, 64, 79
1, 320319, Note_off_c, 0, 27, 62
1, 320320, Note_on_c, 0, 37, 98
1, 320332, Control_c, 0, 64, 80
1, 320347, Control_c, 0, 64, 82
1, 320369, Control_c, 0, 64, 85
1, 320384, Control_c, 0, 64, 89
1, 320398, Control_c, 0, 64, 91
1, 320413, Control_c, 0, 64, 92
1, 320424, Note_off_c, 0, 37, 54
1, 320425, Note_on_c, 0, 28, 100
1, 320428, Control_c, 0, 64, 93
1, 320443, Control_c, 0, 64, 94
1, 320457, Control_c, 0, 64, 96
1, 320472, Control_c, 0, 64, 98
1, 320487, Control_c, 0, 64, 102
1, 320488, Note_on_c, 0, 36, 93
1, 320516, Note_off_c, 0, 28, 58
1, 320527, Note_off_c, 0, 36, 67
1, 320621, Control_c, 0, 64, 97
1, 320636, Control_c, 0, 64, 74
1, 320649, Note_on_c, 0, 21, 104
1, 320651, Control_c, 0, 64, 36
1, 320665, Control_c, 0, 64, 0
1, 320812, Note_on_c, 0, 57, 107
1, 320900, Note_off_c, 0, 57, 66
1, 320978, Note_on_c, 0, 55, 100
1, 321035, Note_off_c, 0, 21, 55
1, 321055, Note_off_c, 0, 55, 61
1, 321132, Note_on_c, 0, 52, 94
1, 321152, Note_on_c, 0, 27, 93
1, 321189, Note_off_c, 0, 52, 63
1, 321271, Note_on_c, 0, 51, 92
1, 321338, Note_off_c, 0, 51, 63
1, 321411, Note_on_c, 0, 49, 98
1, 321465, Note_off_c, 0, 27, 54
1, 321489, Note_off_c, 0, 49, 63
1, 321563, Note_on_c, 0, 48, 106
1, 321578, Note_on_c, 0, 28, 91
1, 321648, Note_off_c, 0, 48, 62
1, 321724, Note_on_c, 0, 45, 96
1, 321758, Note_off_c, 0, 28, 59
1, 321791, Note_off_c, 0, 45, 64
1, 321845, Note_on_c, 0, 43, 96
1, 321917, Note_off_c, 0, 43, 62
1, 321983, Note_on_c, 0, 45, 93
1, 322010, Note_on_c, 0, 27, 70
1, 322028, Control_c, 0, 64, 38
1, 322043, Control_c, 0, 64, 58
1, 322058, Control_c, 0, 64, 61
1, 322061, Note_off_c, 0, 27, 59
1, 322073, Control_c, 0, 64, 61
1, 322088, Control_c, 0, 64, 63
1, 322103, Control_c, 0, 64, 66
1, 322117, Control_c, 0, 64, 73
1, 322132, Control_c, 0, 64, 84
1, 322147, Control_c, 0, 64, 97
1, 322148, Note_off_c, 0, 45, 64
1, 322161, Control_c, 0, 64, 127
1, 322192, Note_on_c, 0, 21, 84
1, 322393, Note_on_c, 0, 43, 101
1, 322399, Control_c, 0, 64, 69
1, 322414, Control_c, 0, 64, 0
1, 322435, Note_off_c, 0, 43, 66
1, 322446, Note_off_c, 0, 21, 56
1, 322487, Note_on_c, 0, 45, 96
1, 322533, Note_off_c, 0, 45, 64
1, 322585, Note_on_c, 0, 43, 91
1, 322631, Note_off_c, 0, 43, 64
1, 322684, Note_on_c, 0, 45, 82
1, 322785, Note_on_c, 0, 27, 79
1, 322801, Note_off_c, 0, 45, 59
1, 322881, Note_on_c, 0, 51, 90
1, 322934, Note_off_c, 0, 27, 55
1, 322970, Control_c, 0, 64, 30
1, 322991, Note_on_c, 0, 28, 92
1, 323027, Note_off_c, 0, 51, 60
1, 323078, Note_on_c, 0, 49, 94
1, 323091, Note_off_c, 0, 28, 55
1, 323133, Control_c, 0, 64, 32
1, 323157, Note_off_c, 0, 49, 64
1, 323163, Control_c, 0, 64, 0
1, 323194, Note_on_c, 0, 27, 80
1, 323242, Note_off_c, 0, 27, 62
1, 323274, Note_on_c, 0, 48, 97
1, 323308, Note_on_c, 0, 28, 73
1, 323311, Note_off_c, 0, 48, 64
1, 323335, Note_off_c, 0, 28, 64
1, 323381, Note_on_c, 0, 45, 99
1, 323393, Note_on_c, 0, 21, 82
1, 323426, Note_off_c, 0, 21, 65
1, 323472, Note_on_c, 0, 21, 84
1, 323498, Note_off_c, 0, 45, 62
1, 323575, Note_on_c, 0, 43, 92
1, 323623, Note_off_c, 0, 43, 64
1, 323665, Note_on_c, 0, 45, 92
1, 323709, Note_off_c, 0, 45, 64
1, 323763, Note_on_c, 0, 43, 91
1, 323817, Note_off_c, 0, 43, 62
1, 323837, Note_off_c, 0, 21, 44
1, 323856, Note_on_c, 0, 45, 81
1, 323944, Note_on_c, 0, 27, 85
1, 323944, Note_off_c, 0, 45, 61
1, 323970, Control_c, 0, 64, 31
1, 323985, Control_c, 0, 64, 45
1, 323999, Control_c, 0, 64, 55
1, 324014, Control_c, 0, 64, 61
1, 324029, Control_c, 0, 64, 64
1, 324044, Control_c, 0, 64, 67
1, 324047, Note_on_c, 0, 51, 83
1, 324058, Control_c, 0, 64, 69
1, 324073, Control_c, 0, 64, 72
1, 324088, Control_c, 0, 64, 73
1, 324111, Control_c, 0, 64, 73
1, 324116, Note_off_c, 0, 27, 54
1, 324156, Control_c, 0, 64, 73
1, 324156, Note_on_c, 0, 28, 89
1, 324163, Note_off_c, 0, 51, 57
1, 324171, Control_c, 0, 64, 71
1, 324186, Control_c, 0, 64, 65
1, 324201, Control_c, 0, 64, 52
1, 324216, Control_c, 0, 64, 0
1, 324249, Note_on_c, 0, 49, 97
1, 324277, Note_off_c, 0, 28, 58
1, 324341, Note_off_c, 0, 49, 62
1, 324344, Note_on_c, 0, 27, 92
1, 324428, Note_on_c, 0, 48, 92
1, 324457, Note_off_c, 0, 27, 58
1, 324487, Note_off_c, 0, 48, 63
1, 324530, Note_on_c, 0, 25, 86
1, 324530, Note_on_c, 0, 45, 93
1, 324589, Note_off_c, 0, 45, 60
1, 324619, Note_off_c, 0, 25, 62
1, 324624, Note_on_c, 0, 51, 92
1, 324689, Control_c, 0, 64, 40
1, 324704, Control_c, 0, 64, 59
1, 324719, Control_c, 0, 64, 68
1, 324723, Note_on_c, 0, 27, 98
1, 324734, Control_c, 0, 64, 77
1, 324748, Control_c, 0, 64, 91
1, 324763, Control_c, 0, 64, 127
1, 324797, Poly_aftertouch_c, 0, 25, 127
1, 324806, Note_off_c, 0, 51, 59
1, 324827, Poly_aftertouch_c, 0, 25, 0
1, 324847, Note_off_c, 0, 27, 56
1, 324857, Note_on_c, 0, 49, 100
1, 324964, Note_off_c, 0, 49, 59
1, 324973, Note_on_c, 0, 28, 104
1, 324994, Control_c, 0, 64, 125
1, 325009, Control_c, 0, 64, 79
1, 325024, Control_c, 0, 64, 57
1, 325039, Control_c, 0, 64, 0
1, 325072, Note_on_c, 0, 48, 102
1, 325128, Note_off_c, 0, 48, 66
1, 325188, Note_off_c, 0, 28, 56
1, 325225, Note_on_c, 0, 21, 104
1, 325246, Note_on_c, 0, 22, 59
1, 325260, Control_c, 0, 64, 84
1, 325275, Control_c, 0, 64, 127
1, 325280, Note_off_c, 0, 22, 58
1, 325294, Note_off_c, 0, 21, 65
1, 325367, Note_on_c, 0, 45, 83
1, 325454, Note_on_c, 0, 43, 87
1, 325467, Note_off_c, 0, 45, 62
1, 325479, Note_off_c, 0, 43, 69
1, 325544, Note_on_c, 0, 57, 85
1, 325637, Note_on_c, 0, 55, 89
1, 325641, Note_off_c, 0, 57, 63
1, 325665, Note_off_c, 0, 55, 66
1, 325712, Note_on_c, 0, 69, 88
1, 325760, Note_off_c, 0, 69, 63
1, 325793, Note_on_c, 0, 67, 68
1, 325845, Note_off_c, 0, 67, 65
1, 325909, Note_on_c, 0, 81, 94
1, 325952, Note_off_c, 0, 81, 64
1, 325987, Note_on_c, 0, 79, 71
1, 326028, Note_off_c, 0, 79, 68
1, 326144, Note_on_c, 0, 93, 106
1, 326267, Note_on_c, 0, 91, 100
1, 326282, Note_off_c, 0, 93, 62
1, 326309, Note_off_c, 0, 91, 70
1, 326310, Note_on_c, 0, 52, 77
1, 326355, Note_on_c, 0, 54, 77
1, 326403, Note_on_c, 0, 57, 69
1, 326506, Control_c, 0, 64, 91
1, 326521, Control_c, 0, 64, 62
1, 326532, Note_on_c, 0, 88, 91
1, 326537, Control_c, 0, 64, 0
1, 326541, Note_on_c, 0, 81, 87
1, 326546, Note_on_c, 0, 61, 80
1, 326685, Control_c, 0, 64, 56
1, 326697, Note_off_c, 0, 81, 61
1, 326699, Control_c, 0, 64, 78
1, 326702, Note_off_c, 0, 57, 63
1, 326714, Control_c, 0, 64, 97
1, 326729, Note_off_c, 0, 52, 62
1, 326729, Control_c, 0, 64, 127
1, 326735, Note_off_c, 0, 61, 61
1, 326739, Note_off_c, 0, 54, 60
1, 326756, Note_on_c, 0, 87, 89
1, 326764, Note_on_c, 0, 79, 86
1, 326780, Note_off_c, 0, 88, 64
1, 326802, Note_off_c, 0, 79, 68
1, 326893, Note_on_c, 0, 85, 93
1, 326899, Note_on_c, 0, 76, 84
1, 326908, Note_off_c, 0, 87, 63
1, 326911, Note_on_c, 0, 69, 70
1, 326923, Note_off_c, 0, 76, 64
1, 326935, Note_off_c, 0, 85, 64
1, 326935, Note_off_c, 0, 69, 67
1, 327027, Note_on_c, 0, 67, 74
1, 327029, Note_on_c, 0, 84, 89
1, 327037, Note_on_c, 0, 75, 90
1, 327084, Note_off_c, 0, 75, 62
1, 327103, Note_off_c, 0, 67, 57
1, 327140, Note_off_c, 0, 84, 63
1, 327149, Note_on_c, 0, 81, 81
1, 327153, Note_on_c, 0, 64, 69
1, 327161, Note_on_c, 0, 57, 73
1, 327161, Note_on_c, 0, 73, 85
1, 327177, Note_off_c, 0, 64, 68
1, 327182, Note_off_c, 0, 73, 67
1, 327185, Note_off_c, 0, 57, 68
1, 327187, Note_off_c, 0, 81, 66
1, 327269, Note_on_c, 0, 63, 84
1, 327279, Note_on_c, 0, 79, 82
1, 327280, Note_on_c, 0, 70, 92
1, 327283, Note_on_c, 0, 55, 65
1, 327332, Note_off_c, 0, 70, 59
1, 327345, Note_off_c, 0, 63, 58
1, 327388, Note_on_c, 0, 76, 83
1, 327388, Note_off_c, 0, 79, 64
1, 327396, Note_on_c, 0, 61, 73
1, 327400, Note_on_c, 0, 69, 82
1, 327408, Note_off_c, 0, 55, 59
1, 327409, Note_on_c, 0, 52, 66
1, 327422, Note_off_c, 0, 69, 66
1, 327423, Note_off_c, 0, 61, 69
1, 327426, Note_off_c, 0, 76, 65
1, 327439, Note_off_c, 0, 52, 64
1, 327509, Note_on_c, 0, 75, 89
1, 327528, Note_on_c, 0, 67, 75
1, 327529, Note_on_c, 0, 60, 79
1, 327537, Control_c, 0, 64, 77
1, 327538, Note_on_c, 0, 51, 67
1, 327552, Control_c, 0, 64, 55
1, 327567, Control_c, 0, 64, 0
1, 327596, Control_c, 0, 64, 41
1, 327611, Control_c, 0, 64, 60
1, 327626, Control_c, 0, 64, 73
1, 327632, Note_on_c, 0, 73, 81
1, 327639, Note_on_c, 0, 64, 82
1, 327641, Control_c, 0, 64, 91
1, 327643, Note_off_c, 0, 67, 61
1, 327645, Note_off_c, 0, 75, 66
1, 327647, Note_on_c, 0, 57, 67
1, 327653, Note_off_c, 0, 60, 59
1, 327656, Control_c, 0, 64, 127
1, 327659, Note_on_c, 0, 49, 71
1, 327665, Note_off_c, 0, 51, 56
1, 327665, Note_off_c, 0, 64, 67
1, 327677, Note_off_c, 0, 57, 65
1, 327679, Note_off_c, 0, 73, 65
1, 327717, Note_off_c, 0, 49, 61
1, 327766, Note_on_c, 0, 72, 83
1, 327775, Note_on_c, 0, 63, 76
1, 327787, Note_on_c, 0, 55, 79
1, 327802, Note_on_c, 0, 46, 64
1, 327905, Note_off_c, 0, 63, 58
1, 327906, Note_on_c, 0, 69, 79
1, 327914, Note_on_c, 0, 61, 81
1, 327917, Note_off_c, 0, 46, 60
1, 327920, Note_off_c, 0, 72, 59
1, 327927, Note_off_c, 0, 55, 58
1, 327928, Note_on_c, 0, 45, 71
1, 327936, Note_on_c, 0, 52, 65
1, 327972, Note_off_c, 0, 52, 64
1, 327989, Control_c, 0, 64, 112
1, 327992, Note_off_c, 0, 61, 63
1, 328004, Control_c, 0, 64, 98
1, 328019, Control_c, 0, 64, 89
1, 328034, Control_c, 0, 64, 80
1, 328048, Control_c, 0, 64, 75
1, 328063, Control_c, 0, 64, 69
1, 328075, Note_on_c, 0, 67, 78
1, 328078, Control_c, 0, 64, 63
1, 328079, Note_on_c, 0, 58, 70
1, 328093, Control_c, 0, 64, 56
1, 328094, Note_off_c, 0, 69, 61
1, 328103, Note_on_c, 0, 51, 62
1, 328107, Control_c, 0, 64, 51
1, 328112, Note_off_c, 0, 45, 61
1, 328114, Note_on_c, 0, 46, 61
1, 328123, Control_c, 0, 64, 46
1, 328138, Control_c, 0, 64, 38
1, 328153, Control_c, 0, 64, 0
1, 328277, Note_off_c, 0, 58, 60
1, 328280, Note_off_c, 0, 51, 57
1, 328284, Note_on_c, 0, 69, 62
1, 328297, Note_on_c, 0, 52, 53
1, 328297, Note_on_c, 0, 61, 51
1, 328298, Note_off_c, 0, 67, 49
1, 328316, Note_on_c, 0, 45, 48
1, 328357, Note_off_c, 0, 46, 33
1, 328523, Control_c, 0, 64, 42
1, 328538, Control_c, 0, 64, 64
1, 328546, Note_off_c, 0, 69, 62
1, 328551, Note_off_c, 0, 45, 60
1, 328553, Control_c, 0, 64, 75
1, 328553, Note_off_c, 0, 52, 61
1, 328555, Note_off_c, 0, 61, 63
1, 328568, Control_c, 0, 64, 91
1, 328583, Control_c, 0, 64, 113
1, 328604, Control_c, 0, 64, 127
1, 328768, Control_c, 0, 64, 115
1, 328783, Control_c, 0, 64, 64
1, 328789, Note_on_c, 0, 51, 66
1, 328789, Note_on_c, 0, 58, 78
1, 328794, Note_on_c, 0, 67, 71
1, 328797, Control_c, 0, 64, 0
1, 328798, Note_on_c, 0, 46, 49
1, 328815, Note_off_c, 0, 58, 68
1, 328819, Note_off_c, 0, 51, 64
1, 328828, Note_off_c, 0, 46, 54
1, 328871, Note_off_c, 0, 67, 52
1, 328878, Note_on_c, 0, 69, 73
1, 328884, Note_on_c, 0, 52, 70
1, 328889, Note_on_c, 0, 45, 61
1, 328890, Note_on_c, 0, 61, 64
1, 328915, Note_off_c, 0, 52, 63
1, 328916, Note_off_c, 0, 61, 66
1, 328929, Note_off_c, 0, 45, 61
1, 328937, Note_off_c, 0, 69, 43
1, 328983, Note_on_c, 0, 67, 73
1, 328985, Note_on_c, 0, 58, 72
1, 328990, Note_on_c, 0, 51, 60
1, 328998, Note_on_c, 0, 46, 54
1, 329012, Note_off_c, 0, 58, 65
1, 329023, Note_off_c, 0, 51, 63
1, 329030, Note_off_c, 0, 46, 64
1, 329032, Note_off_c, 0, 67, 55
1, 329069, Note_on_c, 0, 61, 69
1, 329074, Note_on_c, 0, 69, 76
1, 329083, Note_on_c, 0, 45, 71
1, 329085, Note_on_c, 0, 52, 76
1, 329092, Note_off_c, 0, 61, 67
1, 329094, Control_c, 0, 64, 64
1, 329096, Note_off_c, 0, 69, 69
1, 329109, Control_c, 0, 64, 82
1, 329111, Note_off_c, 0, 45, 65
1, 329112, Note_off_c, 0, 52, 65
1, 329124, Control_c, 0, 64, 110
1, 329139, Control_c, 0, 64, 127
1, 329242, Control_c, 0, 64, 94
1, 329257, Control_c, 0, 64, 56
1, 329272, Control_c, 0, 64, 0
1, 329287, Note_on_c, 0, 75, 87
1, 329290, Note_on_c, 0, 67, 84
1, 329290, Note_on_c, 0, 51, 75
1, 329301, Control_c, 0, 64, 39
1, 329306, Note_on_c, 0, 46, 63
1, 329312, Note_off_c, 0, 67, 69
1, 329316, Control_c, 0, 64, 63
1, 329321, Note_off_c, 0, 51, 66
1, 329331, Control_c, 0, 64, 79
1, 329338, Note_off_c, 0, 46, 63
1, 329349, Note_off_c, 0, 75, 60
1, 329353, Control_c, 0, 64, 127
1, 329427, Control_c, 0, 64, 114
1, 329442, Control_c, 0, 64, 72
1, 329457, Control_c, 0, 64, 47
1, 329471, Control_c, 0, 64, 0
1, 329486, Control_c, 0, 64, 36
1, 329496, Note_on_c, 0, 73, 83
1, 329501, Control_c, 0, 64, 61
1, 329502, Note_on_c, 0, 64, 78
1, 329508, Note_on_c, 0, 52, 71
1, 329513, Note_on_c, 0, 45, 63
1, 329516, Control_c, 0, 64, 81
1, 329519, Note_off_c, 0, 73, 67
1, 329525, Note_off_c, 0, 64, 68
1, 329531, Control_c, 0, 64, 127
1, 329534, Note_off_c, 0, 52, 66
1, 329543, Note_off_c, 0, 45, 64
1, 329679, Control_c, 0, 64, 82
1, 329694, Control_c, 0, 64, 49
1, 329698, Note_on_c, 0, 72, 80
1, 329703, Note_on_c, 0, 51, 69
1, 329704, Note_on_c, 0, 63, 76
1, 329709, Control_c, 0, 64, 0
1, 329722, Note_on_c, 0, 46, 46
1, 329728, Note_off_c, 0, 63, 69
1, 329734, Note_off_c, 0, 51, 64
1, 329735, Note_off_c, 0, 72, 63
1, 329757, Note_off_c, 0, 46, 49
1, 329784, Note_on_c, 0, 69, 81
1, 329791, Note_on_c, 0, 61, 85
1, 329795, Note_on_c, 0, 52, 77
1, 329798, Note_on_c, 0, 45, 71
1, 329799, Control_c, 0, 64, 34
1, 329813, Note_off_c, 0, 61, 67
1, 329814, Note_off_c, 0, 69, 60
1, 329814, Control_c, 0, 64, 63
1, 329817, Note_off_c, 0, 52, 66
1, 329825, Note_off_c, 0, 45, 64
1, 329829, Control_c, 0, 64, 85
1, 329843, Control_c, 0, 64, 127
1, 329985, Note_on_c, 0, 58, 86
1, 329986, Note_on_c, 0, 67, 83
1, 329991, Control_c, 0, 64, 75
1, 329992, Note_on_c, 0, 51, 82
1, 330004, Note_on_c, 0, 46, 67
1, 330006, Control_c, 0, 64, 0
1, 330007, Note_off_c, 0, 58, 71
1, 330026, Note_off_c, 0, 51, 62
1, 330026, Note_off_c, 0, 67, 62
1, 330034, Note_off_c, 0, 46, 65
1, 330081, Note_on_c, 0, 61, 83
1, 330081, Note_on_c, 0, 69, 79
1, 330098, Note_on_c, 0, 52, 77
1, 330109, Note_on_c, 0, 45, 64
1, 330113, Note_off_c, 0, 61, 69
1, 330116, Note_off_c, 0, 69, 60
1, 330125, Note_off_c, 0, 52, 66
1, 330148, Note_off_c, 0, 45, 62
1, 330181, Note_on_c, 0, 58, 79
1, 330183, Note_on_c, 0, 67, 76
1, 330200, Note_on_c, 0, 51, 77
1, 330207, Note_off_c, 0, 58, 69
1, 330217, Note_on_c, 0, 46, 50
1, 330229, Note_off_c, 0, 67, 58
1, 330233, Note_off_c, 0, 51, 65
1, 330245, Note_off_c, 0, 46, 56
1, 330279, Note_on_c, 0, 61, 77
1, 330283, Note_on_c, 0, 69, 84
1, 330294, Control_c, 0, 64, 35
1, 330295, Note_on_c, 0, 52, 81
1, 330297, Note_on_c, 0, 45, 74
1, 330300, Note_off_c, 0, 61, 67
1, 330304, Note_off_c, 0, 69, 68
1, 330309, Control_c, 0, 64, 72
1, 330321, Note_off_c, 0, 52, 66
1, 330324, Control_c, 0, 64, 102
1, 330336, Note_off_c, 0, 45, 63
1, 330339, Control_c, 0, 64, 127
1, 330443, Control_c, 0, 64, 81
1, 330446, Poly_aftertouch_c, 0, 61, 0
1, 330458, Control_c, 0, 64, 54
1, 330473, Control_c, 0, 64, 0
1, 330484, Note_on_c, 0, 75, 95
1, 330488, Note_on_c, 0, 67, 84
1, 330488, Control_c, 0, 64, 29
1, 330490, Note_on_c, 0, 51, 82
1, 330497, Note_on_c, 0, 46, 68
1, 330502, Control_c, 0, 64, 53
1, 330508, Note_off_c, 0, 67, 70
1, 330518, Control_c, 0, 64, 73
1, 330523, Note_off_c, 0, 51, 65
1, 330533, Note_off_c, 0, 46, 64
1, 330533, Control_c, 0, 64, 101
1, 330534, Note_off_c, 0, 75, 64
1, 330547, Control_c, 0, 64, 127
1, 330637, Control_c, 0, 64, 94
1, 330652, Control_c, 0, 64, 64
1, 330666, Control_c, 0, 64, 0
1, 330690, Note_on_c, 0, 73, 81
1, 330695, Note_on_c, 0, 64, 77
1, 330696, Control_c, 0, 64, 37
1, 330700, Note_on_c, 0, 52, 72
1, 330702, Note_on_c, 0, 45, 69
1, 330710, Control_c, 0, 64, 59
1, 330718, Note_off_c, 0, 64, 70
1, 330724, Note_off_c, 0, 73, 64
1, 330725, Control_c, 0, 64, 71
1, 330729, Note_off_c, 0, 52, 65
1, 330736, Note_off_c, 0, 45, 61
1, 330740, Control_c, 0, 64, 83
1, 330755, Control_c, 0, 64, 99
1, 330770, Control_c, 0, 64, 127
1, 330887, Note_on_c, 0, 72, 60
1, 330890, Note_on_c, 0, 51, 70
1, 330896, Control_c, 0, 64, 80
1, 330899, Note_on_c, 0, 63, 57
1, 330902, Note_on_c, 0, 46, 51
1, 330908, Note_off_c, 0, 72, 61
1, 330911, Control_c, 0, 64, 54
1, 330917, Note_off_c, 0, 51, 64
1, 330919, Note_off_c, 0, 63, 62
1, 330925, Control_c, 0, 64, 0
1, 330930, Note_off_c, 0, 46, 50
1, 330980, Note_on_c, 0, 69, 70
1, 330983, Note_on_c, 0, 61, 72
1, 331000, Note_on_c, 0, 52, 67
1, 331003, Note_off_c, 0, 69, 69
1, 331007, Note_on_c, 0, 45, 57
1, 331009, Note_off_c, 0, 61, 67
1, 331027, Note_off_c, 0, 52, 65
1, 331038, Note_off_c, 0, 45, 64
1, 331084, Note_on_c, 0, 75, 96
1, 331087, Note_on_c, 0, 51, 92
1, 331088, Control_c, 0, 64, 52
1, 331090, Note_on_c, 0, 67, 87
1, 331096, Note_on_c, 0, 46, 68
1, 331103, Control_c, 0, 64, 127
1, 331111, Note_off_c, 0, 67, 72
1, 331120, Note_off_c, 0, 75, 58
1, 331128, Note_off_c, 0, 51, 65
1, 331133, Note_off_c, 0, 46, 63
1, 331251, Control_c, 0, 64, 87
1, 331266, Control_c, 0, 64, 57
1, 331281, Control_c, 0, 64, 0
1, 331285, Note_on_c, 0, 73, 87
1, 331293, Note_on_c, 0, 64, 77
1, 331299, Note_on_c, 0, 52, 78
1, 331302, Note_on_c, 0, 45, 72
1, 331311, Control_c, 0, 64, 27
1, 331318, Note_off_c, 0, 64, 71
1, 331326, Control_c, 0, 64, 58
1, 331331, Note_off_c, 0, 73, 61
1, 331340, Control_c, 0, 64, 72
1, 331345, Note_off_c, 0, 52, 58
1, 331355, Control_c, 0, 64, 95
1, 331356, Note_off_c, 0, 45, 53
1, 331370, Control_c, 0, 64, 127
1, 331474, Note_on_c, 0, 51, 62
1, 331481, Note_on_c, 0, 46, 56
1, 331482, Note_on_c, 0, 72, 64
1, 331486, Note_on_c, 0, 63, 69
1, 331522, Note_off_c, 0, 46, 58
1, 331525, Note_off_c, 0, 51, 57
1, 331548, Control_c, 0, 64, 109
1, 331552, Note_off_c, 0, 72, 64
1, 331558, Note_on_c, 0, 52, 68
1, 331560, Note_off_c, 0, 63, 55
1, 331563, Control_c, 0, 64, 73
1, 331567, Note_on_c, 0, 69, 73
1, 331568, Note_on_c, 0, 45, 64
1, 331578, Control_c, 0, 64, 43
1, 331579, Note_on_c, 0, 61, 61
1, 331582, Note_off_c, 0, 52, 64
1, 331598, Note_off_c, 0, 69, 70
1, 331600, Note_off_c, 0, 45, 62
1, 331600, Control_c, 0, 64, 0
1, 331607, Note_off_c, 0, 61, 64
1, 331690, Note_on_c, 0, 63, 89
1, 331691, Note_on_c, 0, 55, 89
1, 331700, Note_on_c, 0, 34, 74
1, 331704, Control_c, 0, 64, 105
1, 331707, Note_on_c, 0, 40, 66
1, 331711, Note_off_c, 0, 55, 71
1, 331714, Note_off_c, 0, 63, 66
1, 331719, Control_c, 0, 64, 127
1, 331727, Note_off_c, 0, 34, 63
1, 331731, Note_off_c, 0, 40, 59
1, 331880, Note_on_c, 0, 58, 42
1, 331896, Control_c, 0, 64, 83
1, 331907, Note_on_c, 0, 40, 62
1, 331911, Control_c, 0, 64, 52
1, 331919, Note_on_c, 0, 33, 62
1, 331926, Control_c, 0, 64, 0
1, 331931, Note_on_c, 0, 49, 58
1, 331977, Note_on_c, 0, 57, 30
1, 332017, Note_off_c, 0, 58, 52
1, 332029, Note_off_c, 0, 49, 62
1, 332084, Note_off_c, 0, 33, 61
1, 332091, Note_on_c, 0, 63, 74
1, 332096, Note_off_c, 0, 40, 60
1, 332105, Note_off_c, 0, 57, 50
1, 332107, Note_on_c, 0, 34, 55
1, 332107, Note_on_c, 0, 39, 56
1, 332117, Note_on_c, 0, 55, 55
1, 332142, Note_off_c, 0, 34, 63
1, 332147, Note_off_c, 0, 55, 64
1, 332148, Note_off_c, 0, 39, 64
1, 332154, Note_off_c, 0, 63, 62
1, 332202, Note_on_c, 0, 57, 70
1, 332207, Note_on_c, 0, 40, 64
1, 332208, Note_on_c, 0, 33, 61
1, 332208, Note_on_c, 0, 49, 58
1, 332236, Note_off_c, 0, 49, 63
1, 332238, Note_off_c, 0, 40, 63
1, 332241, Note_off_c, 0, 57, 62
1, 332243, Note_off_c, 0, 33, 62
1, 332288, Note_on_c, 0, 63, 73
1, 332289, Note_on_c, 0, 55, 65
1, 332290, Note_on_c, 0, 39, 75
1, 332299, Note_on_c, 0, 34, 56
1, 332330, Note_off_c, 0, 39, 64
1, 332331, Note_off_c, 0, 55, 64
1, 332342, Note_off_c, 0, 34, 64
1, 332354, Note_off_c, 0, 63, 62
1, 332384, Note_on_c, 0, 57, 79
1, 332396, Note_on_c, 0, 49, 80
1, 332399, Note_on_c, 0, 40, 76
1, 332402, Note_on_c, 0, 33, 71
1, 332425, Note_off_c, 0, 49, 67
1, 332437, Note_off_c, 0, 40, 63
1, 332458, Note_off_c, 0, 57, 63
1, 332464, Note_off_c, 0, 33, 59
1, 332483, Note_on_c, 0, 55, 90
1, 332488, Note_on_c, 0, 63, 96
1, 332491, Note_on_c, 0, 39, 97
1, 332494, Note_on_c, 0, 34, 86
1, 332527, Control_c, 0, 64, 46
1, 332542, Control_c, 0, 64, 88
1, 332557, Control_c, 0, 64, 127
1, 332631, Control_c, 0, 64, 80
1, 332645, Control_c, 0, 64, 53
1, 332653, Note_off_c, 0, 55, 61
1, 332660, Control_c, 0, 64, 0
1, 332664, Note_off_c, 0, 63, 60
1, 332679, Note_off_c, 0, 34, 60
1, 332684, Note_on_c, 0, 57, 75
1, 332689, Note_on_c, 0, 49, 79
1, 332690, Note_on_c, 0, 40, 70
1, 332691, Note_off_c, 0, 39, 57
1, 332694, Note_on_c, 0, 33, 72
1, 332704, Control_c, 0, 64, 46
1, 332719, Control_c, 0, 64, 65
1, 332734, Control_c, 0, 64, 75
1, 332749, Control_c, 0, 64, 89
1, 332763, Control_c, 0, 64, 98
1, 332777, Note_off_c, 0, 49, 58
1, 332778, Control_c, 0, 64, 108
1, 332793, Control_c, 0, 64, 127
1, 332823, Note_off_c, 0, 40, 53
1, 332861, Note_off_c, 0, 57, 52
1, 332864, Note_off_c, 0, 33, 36
1, 332884, Note_on_c, 0, 39, 70
1, 332885, Note_on_c, 0, 34, 67
1, 332887, Note_on_c, 0, 63, 75
1, 332889, Note_on_c, 0, 55, 73
1, 332896, Control_c, 0, 64, 80
1, 332912, Control_c, 0, 64, 40
1, 332917, Note_off_c, 0, 34, 64
1, 332923, Note_off_c, 0, 55, 65
1, 332924, Note_off_c, 0, 39, 65
1, 332927, Control_c, 0, 64, 0
1, 332938, Note_off_c, 0, 63, 63
1, 332983, Note_on_c, 0, 49, 77
1, 332986, Note_on_c, 0, 57, 69
1, 332995, Note_on_c, 0, 40, 72
1, 332998, Note_on_c, 0, 33, 69
1, 333008, Note_off_c, 0, 49, 68
1, 333029, Note_off_c, 0, 40, 63
1, 333035, Note_off_c, 0, 57, 56
1, 333064, Note_off_c, 0, 33, 41
1, 333074, Note_on_c, 0, 55, 78
1, 333081, Note_on_c, 0, 39, 81
1, 333081, Note_on_c, 0, 63, 75
1, 333097, Note_on_c, 0, 34, 68
1, 333138, Note_off_c, 0, 34, 66
1, 333140, Note_off_c, 0, 55, 61
1, 333141, Note_off_c, 0, 63, 64
1, 333149, Note_off_c, 0, 39, 63
1, 333174, Note_on_c, 0, 57, 81
1, 333176, Note_on_c, 0, 40, 98
1, 333177, Note_on_c, 0, 49, 94
1, 333182, Note_on_c, 0, 33, 91
1, 333195, Note_off_c, 0, 49, 78
1, 333201, Control_c, 0, 64, 98
1, 333205, Note_off_c, 0, 40, 65
1, 333206, Note_off_c, 0, 57, 68
1, 333207, Note_off_c, 0, 33, 66
1, 333216, Control_c, 0, 64, 127
1, 333219, Note_on_c, 0, 59, 18
1, 333261, Note_off_c, 0, 59, 47
1, 333363, Note_on_c, 0, 75, 74
1, 333371, Note_on_c, 0, 69, 62
1, 333379, Note_on_c, 0, 51, 76
1, 333381, Note_on_c, 0, 52, 93
1, 333384, Note_on_c, 0, 67, 74
1, 333385, Note_on_c, 0, 45, 76
1, 333389, Note_on_c, 0, 46, 62
1, 333396, Note_on_c, 0, 61, 92
1, 333409, Note_off_c, 0, 67, 69
1, 333410, Note_off_c, 0, 51, 67
1, 333411, Note_off_c, 0, 45, 65
1, 333411, Note_off_c, 0, 75, 63
1, 333416, Note_off_c, 0, 46, 63
1, 333417, Note_off_c, 0, 61, 70
1, 333418, Note_off_c, 0, 52, 63
1, 333418, Note_off_c, 0, 69, 64
1, 333483, Poly_aftertouch_c, 0, 70, 0
1, 333576, Note_on_c, 0, 87, 78
1, 333586, Note_on_c, 0, 81, 70
1, 333588, Note_on_c, 0, 64, 84
1, 333594, Note_on_c, 0, 79, 65
1, 333595, Note_on_c, 0, 73, 99
1, 333606, Note_on_c, 0, 58, 41
1, 333609, Note_off_c, 0, 87, 63
1, 333616, Note_off_c, 0, 79, 70
1, 333620, Note_off_c, 0, 81, 64
1, 333622, Note_off_c, 0, 64, 66
1, 333627, Note_on_c, 0, 57, 29
1, 333630, Note_off_c, 0, 73, 61
1, 333633, Note_off_c, 0, 58, 58
1, 333669, Note_off_c, 0, 57, 41
1, 333844, Note_on_c, 0, 99, 96
1, 333859, Note_on_c, 0, 91, 76
1, 333860, Note_on_c, 0, 76, 93
1, 333862, Note_on_c, 0, 93, 65
1, 333864, Note_on_c, 0, 69, 78
1, 333865, Note_on_c, 0, 75, 92
1, 333868, Note_on_c, 0, 85, 107
1, 333874, Note_on_c, 0, 70, 86
1, 333882, Note_off_c, 0, 99, 64
1, 333888, Note_off_c, 0, 76, 63
1, 333889, Note_off_c, 0, 69, 66
1, 333889, Note_off_c, 0, 91, 69
1, 333889, Note_off_c, 0, 93, 66
1, 333895, Note_on_c, 0, 87, 43
1, 333895, Note_off_c, 0, 87, 127
1, 333895, Note_off_c, 0, 75, 63
1, 333895, Note_off_c, 0, 85, 73
1, 333910, Note_off_c, 0, 70, 67
1, 334106, Note_on_c, 0, 57, 101
1, 334113, Control_c, 0, 64, 108
1, 334128, Control_c, 0, 64, 61
1, 334142, Control_c, 0, 64, 0
1, 334232, Note_on_c, 0, 58, 69
1, 334253, Note_off_c, 0, 57, 61
1, 334275, Control_c, 0, 64, 51
1, 334290, Control_c, 0, 64, 94
1, 334300, Note_on_c, 0, 63, 84
1, 334305, Control_c, 0, 64, 127
1, 334331, Note_off_c, 0, 58, 63
1, 334347, Note_off_c, 0, 63, 67
1, 334354, Note_on_c, 0, 64, 76
1, 334374, Note_off_c, 0, 64, 73
1, 334388, Note_on_c, 0, 69, 83
1, 334426, Note_on_c, 0, 70, 81
1, 334445, Note_off_c, 0, 69, 61
1, 334461, Note_on_c, 0, 75, 74
1, 334494, Note_off_c, 0, 70, 64
1, 334497, Note_on_c, 0, 76, 85
1, 334522, Note_off_c, 0, 75, 67
1, 334556, Note_off_c, 0, 76, 69
1, 334574, Note_on_c, 0, 81, 101
1, 334610, Note_off_c, 0, 81, 68
1, 334739, Note_on_c, 0, 81, 93
1, 334862, Note_on_c, 0, 82, 99
1, 334890, Note_off_c, 0, 81, 65
1, 335022, Note_on_c, 0, 88, 101
1, 335023, Control_c, 0, 64, 110
1, 335032, Note_on_c, 0, 69, 93
1, 335036, Note_off_c, 0, 82, 62
1, 335038, Control_c, 0, 64, 67
1, 335053, Control_c, 0, 64, 0
1, 335061, Note_on_c, 0, 87, 53
1, 335082, Note_off_c, 0, 87, 59
1, 335107, Note_off_c, 0, 69, 62
1, 335112, Control_c, 0, 64, 48
1, 335128, Control_c, 0, 64, 66
1, 335143, Control_c, 0, 64, 82
1, 335157, Control_c, 0, 64, 127
1, 335159, Note_off_c, 0, 88, 65
1, 335171, Note_on_c, 0, 69, 96
1, 335353, Note_on_c, 0, 86, 109
1, 335366, Note_on_c, 0, 70, 89
1, 335389, Note_off_c, 0, 69, 55
1, 335634, Note_on_c, 0, 89, 97
1, 335654, Control_c, 0, 64, 109
1, 335657, Note_on_c, 0, 74, 71
1, 335666, Note_off_c, 0, 86, 62
1, 335669, Control_c, 0, 64, 72
1, 335684, Note_off_c, 0, 70, 58
1, 335684, Control_c, 0, 64, 42
1, 335699, Control_c, 0, 64, 0
1, 335773, Control_c, 0, 64, 41
1, 335788, Control_c, 0, 64, 58
1, 335803, Control_c, 0, 64, 65
1, 335818, Control_c, 0, 64, 70
1, 335832, Control_c, 0, 64, 75
1, 335847, Control_c, 0, 64, 80
1, 335862, Control_c, 0, 64, 86
1, 335877, Control_c, 0, 64, 95
1, 335892, Control_c, 0, 64, 108
1, 335904, Note_on_c, 0, 88, 91
1, 335906, Control_c, 0, 64, 127
1, 335923, Note_on_c, 0, 72, 53
1, 335943, Note_off_c, 0, 89, 62
1, 335970, Note_off_c, 0, 74, 54
1, 336136, Note_on_c, 0, 86, 94
1, 336152, Note_off_c, 0, 88, 63
1, 336167, Note_on_c, 0, 71, 44
1, 336178, Note_off_c, 0, 72, 49
1, 336329, Control_c, 0, 67, 44
1, 336344, Control_c, 0, 67, 67
1, 336359, Control_c, 0, 67, 89
1, 336374, Control_c, 0, 67, 108
1, 336389, Control_c, 0, 67, 127
1, 336462, Control_c, 0, 64, 118
1, 336477, Note_on_c, 0, 69, 37
1, 336477, Control_c, 0, 64, 97
1, 336492, Control_c, 0, 64, 84
1, 336507, Control_c, 0, 64, 72
1, 336522, Control_c, 0, 64, 63
1, 336536, Control_c, 0, 64, 53
1, 336546, Note_on_c, 0, 93, 72
1, 336551, Control_c, 0, 64, 39
1, 336554, Note_off_c, 0, 71, 36
1, 336566, Control_c, 0, 64, 0
1, 336587, Note_off_c, 0, 86, 60
1, 336685, Control_c, 0, 64, 29
1, 336700, Control_c, 0, 64, 48
1, 336715, Control_c, 0, 64, 61
1, 336729, Control_c, 0, 64, 66
1, 336744, Control_c, 0, 64, 70
1, 336759, Control_c, 0, 64, 74
1, 336772, Note_off_c, 0, 93, 58
1, 336774, Control_c, 0, 64, 80
1, 336788, Control_c, 0, 64, 88
1, 336803, Control_c, 0, 64, 97
1, 336818, Control_c, 0, 64, 105
1, 336824, Note_off_c, 0, 69, 63
1, 336840, Control_c, 0, 64, 116
1, 336855, Control_c, 0, 64, 127
1, 336922, Note_on_c, 0, 93, 63
1, 337101, Note_off_c, 0, 93, 27
1, 337134, Note_on_c, 0, 91, 67
1, 337162, Note_off_c, 0, 91, 68
1, 337241, Note_on_c, 0, 52, 34
1, 337301, Note_on_c, 0, 54, 38
1, 337322, Note_on_c, 0, 57, 33
1, 337359, Control_c, 0, 64, 98
1, 337374, Control_c, 0, 64, 72
1, 337389, Control_c, 0, 64, 54
1, 337397, Note_on_c, 0, 88, 63
1, 337404, Control_c, 0, 64, 30
1, 337410, Note_on_c, 0, 81, 49
1, 337418, Control_c, 0, 64, 0
1, 337424, Note_on_c, 0, 61, 25
1, 337433, Control_c, 0, 64, 35
1, 337448, Control_c, 0, 64, 51
1, 337463, Control_c, 0, 64, 62
1, 337478, Control_c, 0, 64, 68
1, 337493, Control_c, 0, 64, 76
1, 337508, Control_c, 0, 64, 83
1, 337523, Control_c, 0, 64, 90
1, 337529, Note_off_c, 0, 81, 60
1, 337538, Control_c, 0, 64, 95
1, 337538, Note_off_c, 0, 88, 60
1, 337552, Control_c, 0, 64, 99
1, 337567, Control_c, 0, 64, 104
1, 337589, Control_c, 0, 64, 109
1, 337604, Control_c, 0, 64, 117
1, 337611, Note_off_c, 0, 54, 54
1, 337612, Note_off_c, 0, 52, 39
1, 337614, Note_off_c, 0, 57, 41
1, 337618, Control_c, 0, 64, 127
1, 337627, Note_off_c, 0, 61, 39
1, 337664, Note_on_c, 0, 88, 61
1, 337681, Note_on_c, 0, 81, 51
1, 337728, Note_off_c, 0, 81, 60
1, 337793, Note_off_c, 0, 88, 33
1, 337856, Note_on_c, 0, 87, 59
1, 337865, Note_on_c, 0, 79, 54
1, 337894, Note_off_c, 0, 79, 66
1, 337920, Note_off_c, 0, 87, 53
1, 338041, Note_on_c, 0, 76, 58
1, 338042, Note_on_c, 0, 85, 60
1, 338057, Note_on_c, 0, 69, 37
1, 338077, Note_off_c, 0, 76, 60
1, 338084, Note_off_c, 0, 85, 59
1, 338091, Note_off_c, 0, 69, 52
1, 338206, Note_on_c, 0, 85, 63
1, 338217, Note_on_c, 0, 76, 61
1, 338233, Note_off_c, 0, 85, 65
1, 338236, Note_on_c, 0, 69, 41
1, 338247, Note_off_c, 0, 76, 66
1, 338271, Note_off_c, 0, 69, 60
1, 338363, Note_on_c, 0, 84, 67
1, 338375, Note_on_c, 0, 67, 59
1, 338380, Note_on_c, 0, 75, 64
1, 338409, Note_off_c, 0, 75, 65
1, 338410, Note_off_c, 0, 67, 61
1, 338418, Note_off_c, 0, 84, 55
1, 338498, Note_on_c, 0, 73, 69
1, 338512, Note_on_c, 0, 81, 58
1, 338516, Note_on_c, 0, 57, 41
1, 338516, Note_on_c, 0, 64, 52
1, 338528, Note_off_c, 0, 73, 60
1, 338539, Note_off_c, 0, 81, 67
1, 338544, Note_off_c, 0, 57, 54
1, 338548, Note_off_c, 0, 64, 63
1, 338614, Note_on_c, 0, 81, 71
1, 338626, Note_on_c, 0, 73, 61
1, 338632, Note_on_c, 0, 57, 45
1, 338633, Note_on_c, 0, 64, 47
1, 338637, Note_off_c, 0, 81, 69
1, 338650, Note_off_c, 0, 73, 69
1, 338654, Note_off_c, 0, 57, 59
1, 338657, Note_off_c, 0, 64, 60
1, 338745, Note_on_c, 0, 79, 70
1, 338750, Note_on_c, 0, 63, 60
1, 338755, Note_on_c, 0, 70, 68
1, 338780, Note_off_c, 0, 63, 64
1, 338787, Note_off_c, 0, 70, 61
1, 338787, Note_on_c, 0, 55, 38
1, 338799, Note_off_c, 0, 79, 60
1, 338831, Note_off_c, 0, 55, 49
1, 338881, Note_on_c, 0, 76, 64
1, 338885, Note_on_c, 0, 69, 59
1, 338896, Note_on_c, 0, 61, 54
1, 338911, Note_off_c, 0, 76, 65
1, 338917, Note_off_c, 0, 69, 64
1, 338924, Note_off_c, 0, 61, 65
1, 339007, Note_on_c, 0, 52, 40
1, 339008, Note_on_c, 0, 76, 56
1, 339012, Note_on_c, 0, 69, 51
1, 339020, Note_on_c, 0, 61, 35
1, 339028, Note_off_c, 0, 76, 62
1, 339035, Note_off_c, 0, 69, 59
1, 339043, Note_off_c, 0, 52, 62
1, 339052, Note_off_c, 0, 61, 50
1, 339138, Note_on_c, 0, 75, 64
1, 339146, Control_c, 0, 64, 86
1, 339150, Note_on_c, 0, 60, 54
1, 339153, Note_on_c, 0, 67, 56
1, 339159, Note_on_c, 0, 51, 49
1, 339161, Control_c, 0, 64, 62
1, 339176, Control_c, 0, 64, 51
1, 339184, Note_off_c, 0, 60, 52
1, 339190, Control_c, 0, 64, 54
1, 339205, Control_c, 0, 64, 60
1, 339207, Note_off_c, 0, 51, 57
1, 339212, Note_off_c, 0, 67, 60
1, 339220, Note_off_c, 0, 75, 56
1, 339220, Control_c, 0, 64, 65
1, 339235, Control_c, 0, 64, 72
1, 339250, Control_c, 0, 64, 82
1, 339264, Control_c, 0, 64, 93
1, 339279, Control_c, 0, 64, 99
1, 339282, Note_on_c, 0, 73, 57
1, 339283, Note_on_c, 0, 57, 51
1, 339290, Note_on_c, 0, 49, 39
1, 339294, Control_c, 0, 64, 102
1, 339298, Note_on_c, 0, 64, 44
1, 339310, Control_c, 0, 64, 104
1, 339314, Note_off_c, 0, 73, 65
1, 339320, Note_off_c, 0, 57, 63
1, 339324, Note_off_c, 0, 49, 52
1, 339325, Control_c, 0, 64, 106
1, 339332, Note_off_c, 0, 64, 55
1, 339340, Control_c, 0, 64, 109
1, 339354, Control_c, 0, 64, 112
1, 339369, Control_c, 0, 64, 118
1, 339384, Control_c, 0, 64, 127
1, 339408, Note_on_c, 0, 49, 55
1, 339417, Note_on_c, 0, 73, 58
1, 339419, Note_on_c, 0, 64, 62
1, 339446, Note_off_c, 0, 73, 67
1, 339451, Note_off_c, 0, 64, 64
1, 339465, Note_off_c, 0, 49, 59
1, 339566, Note_on_c, 0, 72, 61
1, 339577, Control_c, 0, 64, 99
1, 339581, Note_on_c, 0, 55, 53
1, 339591, Note_on_c, 0, 63, 48
1, 339592, Control_c, 0, 64, 82
1, 339606, Control_c, 0, 64, 67
1, 339621, Control_c, 0, 64, 53
1, 339627, Note_on_c, 0, 46, 26
1, 339636, Control_c, 0, 64, 37
1, 339651, Control_c, 0, 64, 0
1, 339761, Note_off_c, 0, 72, 49
1, 339764, Note_off_c, 0, 63, 59
1, 339774, Note_off_c, 0, 55, 48
1, 339794, Note_off_c, 0, 46, 37
1, 339836, Note_on_c, 0, 45, 37
1, 339843, Note_on_c, 0, 69, 38
1, 339844, Note_on_c, 0, 61, 31
1, 339851, Note_on_c, 0, 52, 27
1, 339954, Control_c, 0, 64, 32
1, 339969, Control_c, 0, 64, 47
1, 339984, Control_c, 0, 64, 57
1, 339999, Control_c, 0, 64, 62
1, 340013, Control_c, 0, 64, 64
1, 340028, Control_c, 0, 64, 66
1, 340043, Control_c, 0, 64, 69
1, 340058, Control_c, 0, 64, 73
1, 340073, Control_c, 0, 64, 80
1, 340087, Control_c, 0, 64, 85
1, 340098, Note_off_c, 0, 52, 40
1, 340103, Control_c, 0, 64, 90
1, 340107, Note_off_c, 0, 69, 37
1, 340107, Note_off_c, 0, 61, 41
1, 340118, Control_c, 0, 64, 97
1, 340128, Note_off_c, 0, 45, 33
1, 340133, Control_c, 0, 64, 104
1, 340148, Control_c, 0, 64, 116
1, 340163, Control_c, 0, 64, 127
1, 340444, Control_c, 0, 64, 112
1, 340457, Note_on_c, 0, 51, 57
1, 340459, Control_c, 0, 64, 70
1, 340464, Note_on_c, 0, 58, 63
1, 340465, Note_on_c, 0, 67, 64
1, 340474, Control_c, 0, 64, 0
1, 340479, Note_on_c, 0, 46, 39
1, 340486, Note_off_c, 0, 58, 64
1, 340497, Note_off_c, 0, 51, 62
1, 340507, Note_off_c, 0, 67, 60
1, 340511, Note_off_c, 0, 46, 48
1, 340553, Note_on_c, 0, 69, 69
1, 340563, Note_on_c, 0, 52, 57
1, 340569, Note_on_c, 0, 61, 56
1, 340572, Note_on_c, 0, 45, 46
1, 340585, Note_off_c, 0, 69, 66
1, 340599, Note_off_c, 0, 52, 63
1, 340607, Note_off_c, 0, 61, 64
1, 340610, Note_off_c, 0, 45, 53
1, 340651, Note_on_c, 0, 67, 65
1, 340663, Note_on_c, 0, 58, 57
1, 340675, Note_on_c, 0, 46, 36
1, 340691, Note_off_c, 0, 58, 65
1, 340708, Note_off_c, 0, 46, 45
1, 340723, Note_off_c, 0, 67, 49
1, 340742, Note_on_c, 0, 61, 63
1, 340745, Note_on_c, 0, 52, 71
1, 340750, Note_on_c, 0, 45, 61
1, 340754, Note_on_c, 0, 69, 68
1, 340763, Control_c, 0, 64, 62
1, 340769, Note_off_c, 0, 52, 66
1, 340770, Note_off_c, 0, 61, 65
1, 340775, Note_off_c, 0, 69, 65
1, 340777, Control_c, 0, 64, 77
1, 340779, Note_off_c, 0, 45, 64
1, 340792, Control_c, 0, 64, 90
1, 340807, Control_c, 0, 64, 98
1, 340822, Control_c, 0, 64, 114
1, 340836, Control_c, 0, 64, 127
1, 340912, Control_c, 0, 64, 77
1, 340926, Control_c, 0, 64, 51
1, 340941, Control_c, 0, 64, 0
1, 340951, Note_on_c, 0, 75, 76
1, 340956, Control_c, 0, 64, 29
1, 340960, Note_on_c, 0, 67, 64
1, 340963, Note_on_c, 0, 51, 61
1, 340966, Note_on_c, 0, 46, 56
1, 340971, Control_c, 0, 64, 51
1, 340986, Control_c, 0, 64, 67
1, 340987, Note_off_c, 0, 75, 57
1, 340988, Note_off_c, 0, 67, 67
1, 340990, Note_off_c, 0, 51, 65
1, 340996, Note_off_c, 0, 46, 63
1, 341000, Control_c, 0, 64, 82
1, 341015, Control_c, 0, 64, 102
1, 341030, Control_c, 0, 64, 127
1, 341089, Control_c, 0, 64, 83
1, 341104, Control_c, 0, 64, 60
1, 341119, Control_c, 0, 64, 0
1, 341148, Control_c, 0, 64, 27
1, 341154, Note_on_c, 0, 73, 76
1, 341160, Note_on_c, 0, 64, 64
1, 341163, Control_c, 0, 64, 52
1, 341165, Note_on_c, 0, 52, 65
1, 341172, Note_on_c, 0, 45, 55
1, 341177, Note_off_c, 0, 73, 66
1, 341178, Control_c, 0, 64, 67
1, 341180, Note_off_c, 0, 64, 66
1, 341193, Control_c, 0, 64, 80
1, 341194, Note_off_c, 0, 52, 65
1, 341199, Note_off_c, 0, 45, 62
1, 341207, Control_c, 0, 64, 90
1, 341222, Control_c, 0, 64, 96
1, 341237, Control_c, 0, 64, 101
1, 341252, Control_c, 0, 64, 107
1, 341267, Control_c, 0, 64, 112
1, 341282, Control_c, 0, 64, 121
1, 341297, Control_c, 0, 64, 127
1, 341333, Control_c, 0, 64, 115
1, 341348, Control_c, 0, 64, 87
1, 341360, Note_on_c, 0, 72, 72
1, 341363, Control_c, 0, 64, 62
1, 341368, Note_on_c, 0, 51, 63
1, 341371, Note_on_c, 0, 63, 60
1, 341377, Control_c, 0, 64, 0
1, 341382, Note_on_c, 0, 46, 46
1, 341397, Note_off_c, 0, 72, 49
1, 341398, Note_off_c, 0, 51, 65
1, 341400, Note_off_c, 0, 63, 66
1, 341411, Note_off_c, 0, 46, 51
1, 341452, Control_c, 0, 64, 31
1, 341458, Note_on_c, 0, 69, 68
1, 341464, Note_on_c, 0, 61, 69
1, 341467, Control_c, 0, 64, 60
1, 341475, Note_on_c, 0, 45, 58
1, 341481, Note_on_c, 0, 52, 51
1, 341481, Note_off_c, 0, 69, 69
1, 341481, Control_c, 0, 64, 70
1, 341489, Note_off_c, 0, 61, 63
1, 341496, Control_c, 0, 64, 78
1, 341499, Note_off_c, 0, 45, 59
1, 341511, Note_off_c, 0, 52, 55
1, 341511, Control_c, 0, 64, 85
1, 341526, Control_c, 0, 64, 91
1, 341541, Control_c, 0, 64, 97
1, 341556, Control_c, 0, 64, 105
1, 341571, Control_c, 0, 64, 127
1, 341659, Control_c, 0, 64, 89
1, 341669, Note_on_c, 0, 67, 74
1, 341671, Note_on_c, 0, 58, 73
1, 341674, Control_c, 0, 64, 57
1, 341681, Note_on_c, 0, 51, 57
1, 341686, Note_on_c, 0, 46, 49
1, 341689, Control_c, 0, 64, 0
1, 341697, Note_off_c, 0, 58, 66
1, 341699, Note_off_c, 0, 67, 65
1, 341711, Note_off_c, 0, 51, 62
1, 341716, Note_off_c, 0, 46, 53
1, 341762, Note_on_c, 0, 69, 73
1, 341765, Note_on_c, 0, 52, 67
1, 341771, Note_on_c, 0, 61, 61
1, 341774, Note_on_c, 0, 45, 62
1, 341785, Note_off_c, 0, 69, 67
1, 341790, Note_off_c, 0, 52, 65
1, 341797, Note_off_c, 0, 61, 66
1, 341805, Note_off_c, 0, 45, 64
1, 341857, Note_on_c, 0, 67, 69
1, 341858, Note_on_c, 0, 58, 65
1, 341881, Note_on_c, 0, 51, 56
1, 341886, Note_off_c, 0, 58, 66
1, 341890, Note_on_c, 0, 46, 44
1, 341892, Note_off_c, 0, 67, 60
1, 341909, Note_off_c, 0, 51, 63
1, 341922, Note_off_c, 0, 46, 51
1, 341961, Note_on_c, 0, 61, 59
1, 341961, Note_on_c, 0, 69, 75
1, 341967, Note_on_c, 0, 52, 76
1, 341971, Note_on_c, 0, 45, 69
1, 341982, Note_off_c, 0, 61, 63
1, 341982, Note_off_c, 0, 69, 70
1, 341987, Control_c, 0, 64, 57
1, 341990, Note_off_c, 0, 52, 66
1, 341995, Note_off_c, 0, 45, 65
1, 342001, Control_c, 0, 64, 74
1, 342016, Control_c, 0, 64, 91
1, 342031, Control_c, 0, 64, 116
1, 342046, Control_c, 0, 64, 127
1, 342113, Control_c, 0, 64, 108
1, 342128, Control_c, 0, 64, 70
1, 342143, Control_c, 0, 64, 35
1, 342157, Control_c, 0, 64, 0
1, 342171, Note_on_c, 0, 75, 85
1, 342172, Control_c, 0, 64, 31
1, 342175, Note_on_c, 0, 51, 77
1, 342178, Note_on_c, 0, 67, 73
1, 342183, Note_on_c, 0, 46, 65
1, 342187, Control_c, 0, 64, 53
1, 342201, Note_off_c, 0, 67, 70
1, 342201, Control_c, 0, 64, 68
1, 342203, Note_off_c, 0, 51, 67
1, 342211, Note_off_c, 0, 46, 64
1, 342212, Note_off_c, 0, 75, 62
1, 342216, Control_c, 0, 64, 86
1, 342231, Control_c, 0, 64, 127
1, 342320, Control_c, 0, 64, 76
1, 342335, Control_c, 0, 64, 49
1, 342349, Control_c, 0, 64, 0
1, 342369, Note_on_c, 0, 73, 81
1, 342372, Note_on_c, 0, 64, 76
1, 342378, Note_on_c, 0, 52, 74
1, 342379, Control_c, 0, 64, 42
1, 342379, Control_c, 0, 67, 118
1, 342385, Note_on_c, 0, 45, 63
1, 342391, Note_off_c, 0, 73, 69
1, 342394, Note_off_c, 0, 64, 69
1, 342394, Control_c, 0, 64, 62
1, 342394, Control_c, 0, 67, 89
1, 342402, Note_off_c, 0, 52, 66
1, 342408, Control_c, 0, 64, 70
1, 342408, Control_c, 0, 67, 57
1, 342413, Note_off_c, 0, 45, 65
1, 342423, Control_c, 0, 64, 81
1, 342423, Control_c, 0, 67, 0
1, 342438, Control_c, 0, 64, 88
1, 342453, Control_c, 0, 64, 94
1, 342468, Control_c, 0, 64, 99
1, 342483, Control_c, 0, 64, 101
1, 342555, Note_on_c, 0, 72, 64
1, 342565, Note_on_c, 0, 63, 66
1, 342568, Note_on_c, 0, 51, 64
1, 342572, Control_c, 0, 64, 84
1, 342579, Note_on_c, 0, 46, 50
1, 342587, Control_c, 0, 64, 65
1, 342595, Note_off_c, 0, 51, 64
1, 342596, Note_off_c, 0, 63, 65
1, 342602, Note_off_c, 0, 72, 45
1, 342602, Control_c, 0, 64, 37
1, 342607, Note_off_c, 0, 46, 53
1, 342617, Control_c, 0, 64, 0
1, 342653, Note_on_c, 0, 69, 68
1, 342666, Note_on_c, 0, 61, 64
1, 342668, Note_on_c, 0, 52, 70
1, 342677, Note_on_c, 0, 45, 58
1, 342678, Note_off_c, 0, 69, 68
1, 342686, Note_off_c, 0, 61, 63
1, 342692, Note_off_c, 0, 52, 66
1, 342702, Note_off_c, 0, 45, 60
1, 342755, Note_on_c, 0, 58, 77
1, 342761, Note_on_c, 0, 67, 64
1, 342762, Note_on_c, 0, 51, 70
1, 342772, Note_on_c, 0, 46, 49
1, 342778, Note_off_c, 0, 58, 67
1, 342787, Note_off_c, 0, 51, 65
1, 342792, Note_off_c, 0, 67, 64
1, 342802, Note_off_c, 0, 46, 54
1, 342858, Note_on_c, 0, 52, 72
1, 342858, Note_on_c, 0, 69, 75
1, 342862, Note_on_c, 0, 61, 67
1, 342883, Note_off_c, 0, 69, 64
1, 342885, Note_off_c, 0, 52, 65
1, 342890, Note_off_c, 0, 61, 65
1, 342910, Note_on_c, 0, 43, 3
1, 342945, Note_on_c, 0, 67, 70
1, 342948, Note_on_c, 0, 58, 75
1, 342948, Note_off_c, 0, 43, 27
1, 342958, Note_on_c, 0, 51, 73
1, 342961, Note_on_c, 0, 46, 66
1, 342974, Note_off_c, 0, 58, 65
1, 342980, Note_off_c, 0, 51, 66
1, 342989, Note_off_c, 0, 46, 64
1, 343028, Note_on_c, 0, 61, 68
1, 343034, Note_on_c, 0, 69, 80
1, 343035, Note_off_c, 0, 67, 36
1, 343046, Note_on_c, 0, 45, 76
1, 343046, Note_on_c, 0, 52, 81
1, 343054, Note_off_c, 0, 61, 67
1, 343055, Note_off_c, 0, 69, 68
1, 343076, Note_off_c, 0, 52, 63
1, 343084, Note_off_c, 0, 45, 62
1, 343139, Note_on_c, 0, 51, 71
1, 343144, Note_on_c, 0, 75, 84
1, 343145, Note_on_c, 0, 67, 76
1, 343147, Note_on_c, 0, 46, 59
1, 343169, Note_off_c, 0, 67, 68
1, 343178, Note_off_c, 0, 51, 62
1, 343183, Note_off_c, 0, 46, 59
1, 343196, Note_off_c, 0, 75, 62
1, 343252, Note_on_c, 0, 61, 92
1, 343254, Note_on_c, 0, 69, 88
1, 343264, Note_on_c, 0, 52, 85
1, 343269, Note_on_c, 0, 45, 80
1, 343270, Note_off_c, 0, 61, 73
1, 343274, Note_off_c, 0, 69, 69
1, 343276, Control_c, 0, 64, 55
1, 343291, Control_c, 0, 64, 85
1, 343294, Note_off_c, 0, 52, 66
1, 343306, Control_c, 0, 64, 127
1, 343308, Note_off_c, 0, 45, 61
1, 343440, Control_c, 0, 64, 93
1, 343454, Control_c, 0, 64, 62
1, 343469, Control_c, 0, 64, 0
1, 343532, Note_on_c, 0, 93, 104
1, 343533, Note_on_c, 0, 81, 93
1, 343543, Control_c, 0, 64, 43
1, 343558, Control_c, 0, 64, 85
1, 343580, Control_c, 0, 64, 127
1, 343618, Note_off_c, 0, 81, 58
1, 343621, Note_off_c, 0, 93, 61
1, 343728, Note_on_c, 0, 91, 99
1, 343733, Note_on_c, 0, 79, 96
1, 343759, Note_off_c, 0, 79, 69
1, 343763, Note_off_c, 0, 91, 70
1, 343856, Note_on_c, 0, 88, 101
1, 343862, Note_on_c, 0, 76, 94
1, 343872, Note_off_c, 0, 88, 71
1, 343878, Note_off_c, 0, 76, 77
1, 343880, Note_on_c, 0, 77, 58
1, 343904, Note_off_c, 0, 77, 39
1, 343964, Note_on_c, 0, 73, 96
1, 343973, Note_on_c, 0, 64, 69
1, 343979, Note_on_c, 0, 69, 66
1, 343993, Note_off_c, 0, 73, 62
1, 344001, Note_off_c, 0, 64, 67
1, 344005, Note_off_c, 0, 69, 67
1, 344051, Note_on_c, 0, 75, 102
1, 344051, Note_on_c, 0, 87, 100
1, 344084, Note_off_c, 0, 87, 68
1, 344086, Note_off_c, 0, 75, 68
1, 344149, Note_on_c, 0, 63, 85
1, 344150, Note_on_c, 0, 72, 84
1, 344160, Note_on_c, 0, 68, 77
1, 344168, Note_off_c, 0, 72, 73
1, 344181, Note_off_c, 0, 68, 70
1, 344194, Note_off_c, 0, 63, 64
1, 344241, Note_on_c, 0, 85, 105
1, 344243, Note_on_c, 0, 73, 97
1, 344292, Control_c, 0, 64, 91
1, 344307, Control_c, 0, 64, 62
1, 344329, Control_c, 0, 64, 27
1, 344345, Note_on_c, 0, 69, 95
1, 344351, Note_on_c, 0, 64, 89
1, 344358, Control_c, 0, 64, 51
1, 344368, Note_on_c, 0, 61, 69
1, 344370, Note_off_c, 0, 73, 64
1, 344373, Control_c, 0, 64, 68
1, 344379, Note_off_c, 0, 85, 60
1, 344388, Control_c, 0, 64, 83
1, 344393, Note_off_c, 0, 69, 64
1, 344403, Control_c, 0, 64, 108
1, 344411, Note_off_c, 0, 64, 66
1, 344418, Control_c, 0, 64, 127
1, 344433, Note_off_c, 0, 61, 62
1, 344442, Note_on_c, 0, 72, 93
1, 344442, Note_on_c, 0, 84, 96
1, 344459, Note_off_c, 0, 72, 73
1, 344459, Note_off_c, 0, 84, 70
1, 344535, Note_on_c, 0, 81, 102
1, 344539, Note_on_c, 0, 69, 94
1, 344552, Note_off_c, 0, 69, 77
1, 344556, Note_off_c, 0, 81, 64
1, 344626, Note_on_c, 0, 67, 83
1, 344629, Note_on_c, 0, 58, 63
1, 344629, Note_on_c, 0, 63, 76
1, 344650, Note_off_c, 0, 67, 67
1, 344658, Note_off_c, 0, 58, 65
1, 344680, Note_off_c, 0, 63, 62
1, 344699, Control_c, 0, 64, 99
1, 344714, Control_c, 0, 64, 65
1, 344729, Control_c, 0, 64, 28
1, 344734, Note_on_c, 0, 57, 72
1, 344734, Note_on_c, 0, 64, 81
1, 344739, Note_on_c, 0, 67, 83
1, 344740, Note_on_c, 0, 79, 79
1, 344743, Control_c, 0, 64, 0
1, 344747, Note_on_c, 0, 61, 67
1, 344756, Note_off_c, 0, 67, 74
1, 344757, Note_off_c, 0, 79, 73
1, 344758, Control_c, 0, 64, 34
1, 344773, Control_c, 0, 64, 55
1, 344788, Control_c, 0, 64, 66
1, 344802, Control_c, 0, 64, 76
1, 344817, Control_c, 0, 64, 97
1, 344826, Note_on_c, 0, 69, 93
1, 344829, Note_on_c, 0, 81, 88
1, 344832, Control_c, 0, 64, 127
1, 344844, Note_off_c, 0, 69, 74
1, 344844, Note_off_c, 0, 81, 76
1, 344872, Note_off_c, 0, 64, 62
1, 344897, Note_off_c, 0, 61, 64
1, 344904, Note_off_c, 0, 57, 64
1, 344924, Note_on_c, 0, 79, 90
1, 344924, Note_on_c, 0, 67, 92
1, 344940, Note_off_c, 0, 67, 75
1, 344941, Note_off_c, 0, 79, 71
1, 345009, Note_on_c, 0, 81, 100
1, 345010, Note_on_c, 0, 69, 101
1, 345079, Control_c, 0, 64, 90
1, 345094, Control_c, 0, 64, 59
1, 345108, Control_c, 0, 64, 0
1, 345115, Note_off_c, 0, 69, 60
1, 345121, Note_on_c, 0, 63, 97
1, 345123, Control_c, 0, 64, 30
1, 345127, Note_off_c, 0, 81, 62
1, 345130, Note_on_c, 0, 58, 78
1, 345134, Note_on_c, 0, 55, 66
1, 345138, Control_c, 0, 64, 51
1, 345152, Control_c, 0, 64, 67
1, 345167, Control_c, 0, 64, 87
1, 345182, Control_c, 0, 64, 127
1, 345193, Note_off_c, 0, 63, 59
1, 345214, Note_off_c, 0, 58, 61
1, 345222, Note_off_c, 0, 55, 59
1, 345223, Note_on_c, 0, 75, 103
1, 345224, Note_on_c, 0, 87, 102
1, 345271, Control_c, 0, 64, 100
1, 345286, Control_c, 0, 64, 64
1, 345300, Control_c, 0, 64, 49
1, 345308, Poly_aftertouch_c, 0, 88, 0
1, 345310, Note_off_c, 0, 87, 61
1, 345315, Note_on_c, 0, 61, 98
1, 345315, Control_c, 0, 64, 57
1, 345318, Note_on_c, 0, 52, 80
1, 345318, Note_off_c, 0, 75, 62
1, 345330, Control_c, 0, 64, 69
1, 345332, Note_on_c, 0, 57, 74
1, 345345, Control_c, 0, 64, 94
1, 345360, Control_c, 0, 64, 127
1, 345389, Note_off_c, 0, 61, 54
1, 345398, Note_off_c, 0, 52, 61
1, 345406, Note_off_c, 0, 57, 60
1, 345412, Note_on_c, 0, 85, 98
1, 345413, Note_on_c, 0, 73, 94
1, 345449, Control_c, 0, 64, 81
1, 345458, Note_off_c, 0, 85, 66
1, 345464, Control_c, 0, 64, 56
1, 345466, Note_off_c, 0, 73, 58
1, 345479, Control_c, 0, 64, 29
1, 345493, Control_c, 0, 64, 38
1, 345506, Note_on_c, 0, 63, 90
1, 345508, Control_c, 0, 64, 55
1, 345514, Note_on_c, 0, 55, 70
1, 345517, Note_on_c, 0, 58, 74
1, 345523, Control_c, 0, 64, 67
1, 345538, Control_c, 0, 64, 83
1, 345552, Control_c, 0, 64, 127
1, 345586, Note_off_c, 0, 55, 61
1, 345589, Note_off_c, 0, 58, 62
1, 345595, Note_off_c, 0, 63, 48
1, 345600, Note_on_c, 0, 84, 79
1, 345601, Note_on_c, 0, 72, 82
1, 345617, Note_off_c, 0, 84, 74
1, 345620, Note_off_c, 0, 72, 71
1, 345698, Note_on_c, 0, 81, 92
1, 345703, Note_on_c, 0, 69, 90
1, 345742, Note_off_c, 0, 69, 54
1, 345754, Note_off_c, 0, 81, 60
1, 345782, Note_on_c, 0, 64, 94
1, 345786, Note_on_c, 0, 57, 79
1, 345796, Note_on_c, 0, 61, 80
1, 345857, Control_c, 0, 64, 99
1, 345872, Control_c, 0, 64, 65
1, 345887, Control_c, 0, 64, 38
1, 345890, Note_on_c, 0, 67, 90
1, 345890, Note_on_c, 0, 79, 87
1, 345902, Control_c, 0, 64, 34
1, 345911, Note_off_c, 0, 67, 68
1, 345917, Control_c, 0, 64, 45
1, 345923, Note_off_c, 0, 79, 67
1, 345931, Control_c, 0, 64, 62
1, 345946, Control_c, 0, 64, 78
1, 345961, Control_c, 0, 64, 127
1, 345978, Note_on_c, 0, 69, 98
1, 345980, Note_on_c, 0, 81, 88
1, 345990, Note_off_c, 0, 64, 60
1, 345997, Note_off_c, 0, 81, 75
1, 346000, Note_off_c, 0, 69, 66
1, 346023, Note_off_c, 0, 57, 55
1, 346030, Note_off_c, 0, 61, 57
1, 346072, Note_on_c, 0, 67, 99
1, 346075, Note_on_c, 0, 79, 92
1, 346097, Note_off_c, 0, 67, 62
1, 346098, Note_off_c, 0, 79, 66
1, 346171, Note_on_c, 0, 81, 93
1, 346172, Note_on_c, 0, 69, 104
1, 346186, Note_off_c, 0, 69, 75
1, 346186, Note_off_c, 0, 81, 76
1, 346242, Control_c, 0, 64, 110
1, 346257, Control_c, 0, 64, 64
1, 346271, Note_on_c, 0, 67, 92
1, 346272, Control_c, 0, 64, 0
1, 346274, Note_on_c, 0, 58, 77
1, 346276, Note_on_c, 0, 63, 80
1, 346302, Control_c, 0, 64, 39
1, 346316, Control_c, 0, 64, 63
1, 346331, Control_c, 0, 64, 80
1, 346332, Note_off_c, 0, 63, 61
1, 346334, Note_off_c, 0, 67, 59
1, 346340, Note_off_c, 0, 58, 63
1, 346346, Control_c, 0, 64, 127
1, 346358, Note_on_c, 0, 75, 107
1, 346358, Note_on_c, 0, 87, 98
1, 346390, Note_off_c, 0, 87, 67
1, 346391, Note_off_c, 0, 75, 64
1, 346394, Note_on_c, 0, 85, 37
1, 346394, Note_off_c, 0, 85, 127
1, 346455, Note_on_c, 0, 69, 93
1, 346461, Note_on_c, 0, 64, 77
1, 346463, Note_on_c, 0, 61, 74
1, 346497, Note_off_c, 0, 69, 64
1, 346509, Note_off_c, 0, 64, 66
1, 346521, Note_off_c, 0, 61, 65
1, 346545, Note_on_c, 0, 73, 105
1, 346545, Note_on_c, 0, 85, 101
1, 346571, Note_on_c, 0, 86, 76
1, 346587, Note_off_c, 0, 86, 71
1, 346590, Note_off_c, 0, 85, 67
1, 346591, Note_off_c, 0, 73, 65
1, 346640, Note_on_c, 0, 67, 94
1, 346644, Note_on_c, 0, 58, 86
1, 346644, Note_on_c, 0, 63, 86
1, 346674, Note_off_c, 0, 63, 55
1, 346680, Note_off_c, 0, 67, 59
1, 346685, Note_on_c, 0, 62, 51
1, 346695, Note_off_c, 0, 58, 58
1, 346710, Note_off_c, 0, 62, 57
1, 346740, Note_on_c, 0, 84, 97
1, 346741, Note_on_c, 0, 72, 100
1, 346768, Note_off_c, 0, 84, 71
1, 346770, Note_off_c, 0, 72, 69
1, 346843, Control_c, 0, 64, 83
1, 346858, Control_c, 0, 64, 53
1, 346866, Note_on_c, 0, 57, 76
1, 346866, Note_on_c, 0, 64, 90
1, 346872, Control_c, 0, 64, 0
1, 346879, Note_on_c, 0, 61, 76
1, 346884, Note_on_c, 0, 81, 99
1, 346886, Note_on_c, 0, 69, 101
1, 346887, Control_c, 0, 64, 38
1, 346902, Control_c, 0, 64, 60
1, 346917, Note_off_c, 0, 69, 67
1, 346917, Control_c, 0, 64, 80
1, 346919, Note_off_c, 0, 81, 67
1, 346932, Control_c, 0, 64, 127
1, 346966, Note_off_c, 0, 61, 61
1, 346975, Note_off_c, 0, 64, 60
1, 346978, Note_off_c, 0, 57, 63
1, 347017, Note_on_c, 0, 63, 82
1, 347026, Note_on_c, 0, 58, 68
1, 347034, Note_on_c, 0, 67, 105
1, 347035, Note_on_c, 0, 79, 97
1, 347063, Note_off_c, 0, 79, 70
1, 347064, Note_off_c, 0, 67, 66
1, 347086, Note_off_c, 0, 63, 61
1, 347094, Note_off_c, 0, 58, 61
1, 347139, Note_on_c, 0, 57, 74
1, 347142, Note_on_c, 0, 61, 69
1, 347148, Note_on_c, 0, 81, 100
1, 347149, Note_on_c, 0, 69, 102
1, 347154, Note_on_c, 0, 64, 63
1, 347166, Note_off_c, 0, 61, 66
1, 347169, Note_off_c, 0, 64, 68
1, 347171, Note_off_c, 0, 57, 66
1, 347176, Note_off_c, 0, 81, 67
1, 347178, Note_off_c, 0, 69, 64
1, 347270, Note_on_c, 0, 63, 89
1, 347271, Note_on_c, 0, 67, 107
1, 347271, Note_on_c, 0, 79, 97
1, 347275, Note_on_c, 0, 55, 67
1, 347291, Note_on_c, 0, 59, 65
1, 347303, Note_off_c, 0, 67, 70
1, 347305, Note_off_c, 0, 79, 67
1, 347327, Note_off_c, 0, 63, 62
1, 347336, Note_off_c, 0, 59, 60
1, 347369, Note_off_c, 0, 55, 60
1, 347383, Control_c, 0, 64, 72
1, 347398, Control_c, 0, 64, 51
1, 347402, Note_on_c, 0, 52, 79
1, 347403, Note_on_c, 0, 61, 88
1, 347407, Note_on_c, 0, 57, 61
1, 347407, Note_on_c, 0, 69, 109
1, 347408, Note_on_c, 0, 81, 98
1, 347413, Control_c, 0, 64, 53
1, 347428, Control_c, 0, 64, 67
1, 347430, Note_off_c, 0, 81, 71
1, 347431, Note_off_c, 0, 69, 70
1, 347443, Control_c, 0, 64, 90
1, 347458, Control_c, 0, 64, 127
1, 347462, Note_off_c, 0, 61, 60
1, 347506, Note_off_c, 0, 52, 60
1, 347506, Note_off_c, 0, 57, 45
1, 347532, Control_c, 0, 64, 93
1, 347546, Control_c, 0, 64, 56
1, 347561, Control_c, 0, 64, 0
1, 347571, Note_on_c, 0, 63, 100
1, 347576, Note_on_c, 0, 55, 82
1, 347576, Control_c, 0, 64, 54
1, 347577, Note_on_c, 0, 75, 112
1, 347578, Note_on_c, 0, 87, 103
1, 347580, Note_on_c, 0, 58, 84
1, 347591, Control_c, 0, 64, 93
1, 347592, Note_off_c, 0, 87, 76
1, 347598, Note_on_c, 0, 85, 58
1, 347600, Note_on_c, 0, 57, 27
1, 347600, Note_off_c, 0, 63, 71
1, 347604, Note_on_c, 0, 74, 66
1, 347606, Control_c, 0, 64, 127
1, 347613, Note_off_c, 0, 75, 62
1, 347617, Note_off_c, 0, 85, 60
1, 347619, Note_off_c, 0, 58, 67
1, 347620, Note_off_c, 0, 74, 67
1, 347622, Note_off_c, 0, 55, 65
1, 347631, Note_off_c, 0, 57, 55
1, 347888, Control_c, 0, 64, 63
1, 347902, Control_c, 0, 64, 0
1, 348016, Note_on_c, 0, 40, 104
1, 348017, Note_on_c, 0, 28, 96
1, 348036, Control_c, 0, 64, 93
1, 348041, Note_on_c, 0, 31, 56
1, 348051, Control_c, 0, 64, 127
1, 348058, Note_off_c, 0, 28, 65
1, 348079, Note_off_c, 0, 31, 56
1, 348081, Note_off_c, 0, 40, 67
1, 348275, Poly_aftertouch_c, 0, 54, 127
1, 348293, Note_on_c, 0, 48, 52
1, 348296, Note_on_c, 0, 47, 61
1, 348306, Poly_aftertouch_c, 0, 54, 0
1, 348343, Note_off_c, 0, 48, 63
1, 348353, Note_on_c, 0, 52, 78
1, 348359, Note_off_c, 0, 47, 64
1, 348377, Poly_aftertouch_c, 0, 51, 127
1, 348410, Note_on_c, 0, 56, 77
1, 348426, Poly_aftertouch_c, 0, 51, 0
1, 348430, Note_on_c, 0, 77, 99
1, 348430, Note_on_c, 0, 65, 105
1, 348436, Note_on_c, 0, 70, 96
1, 348436, Note_on_c, 0, 73, 89
1, 348445, Note_on_c, 0, 62, 95
1, 348463, Note_off_c, 0, 65, 72
1, 348465, Note_off_c, 0, 77, 69
1, 348469, Note_off_c, 0, 52, 57
1, 348471, Note_on_c, 0, 55, 60
1, 348475, Note_off_c, 0, 70, 70
1, 348478, Note_off_c, 0, 73, 70
1, 348494, Note_off_c, 0, 55, 60
1, 348496, Note_off_c, 0, 62, 67
1, 348499, Note_off_c, 0, 56, 63
1, 349186, Note_on_c, 0, 74, 95
1, 349188, Note_on_c, 0, 86, 95
1, 349338, Note_on_c, 0, 79, 88
1, 349340, Note_on_c, 0, 91, 93
1, 349457, Note_on_c, 0, 92, 91
1, 349458, Note_on_c, 0, 80, 92
1, 349478, Note_off_c, 0, 91, 61
1, 349508, Note_off_c, 0, 79, 52
1, 349510, Note_off_c, 0, 74, 61
1, 349574, Note_on_c, 0, 97, 101
1, 349575, Note_on_c, 0, 85, 103
1, 349575, Note_off_c, 0, 86, 62
1, 349585, Note_off_c, 0, 92, 66
1, 349592, Note_off_c, 0, 80, 61
1, 349608, Note_off_c, 0, 97, 65
1, 349610, Note_off_c, 0, 85, 68
1, 349677, Note_on_c, 0, 97, 83
1, 349700, Note_off_c, 0, 97, 70
1, 349760, Note_on_c, 0, 97, 93
1, 349796, Note_off_c, 0, 97, 62
1, 349862, Note_on_c, 0, 97, 99
1, 349867, Note_on_c, 0, 85, 106
1, 349897, Note_off_c, 0, 85, 72
1, 349897, Note_off_c, 0, 97, 69
1, 349960, Note_on_c, 0, 97, 91
1, 349988, Note_off_c, 0, 97, 63
1, 350060, Note_on_c, 0, 97, 92
1, 350090, Note_off_c, 0, 97, 61
1, 350153, Note_on_c, 0, 97, 99
1, 350169, Note_on_c, 0, 85, 104
1, 350189, Note_off_c, 0, 97, 66
1, 350199, Note_off_c, 0, 85, 69
1, 350250, Note_on_c, 0, 97, 93
1, 350286, Note_off_c, 0, 97, 62
1, 350353, Note_on_c, 0, 97, 106
1, 350356, Note_on_c, 0, 85, 107
1, 350387, Note_off_c, 0, 85, 70
1, 350391, Note_off_c, 0, 97, 66
1, 350457, Note_on_c, 0, 97, 94
1, 350491, Note_off_c, 0, 97, 62
1, 350552, Note_on_c, 0, 97, 98
1, 350596, Note_off_c, 0, 97, 64
1, 350645, Note_on_c, 0, 97, 100
1, 350655, Note_on_c, 0, 85, 93
1, 350690, Note_off_c, 0, 97, 67
1, 350695, Note_off_c, 0, 85, 66
1, 350758, Note_on_c, 0, 97, 94
1, 350796, Note_off_c, 0, 97, 62
1, 350865, Note_on_c, 0, 97, 78
1, 350888, Note_off_c, 0, 97, 69
1, 350949, Note_on_c, 0, 97, 96
1, 350956, Note_on_c, 0, 85, 76
1, 350988, Note_off_c, 0, 97, 67
1, 350988, Note_off_c, 0, 85, 60
1, 351071, Note_on_c, 0, 97, 81
1, 351137, Note_off_c, 0, 97, 57
1, 351169, Note_on_c, 0, 91, 63
1, 351173, Note_on_c, 0, 103, 68
1, 351198, Note_off_c, 0, 91, 62
1, 351205, Note_off_c, 0, 103, 67
1, 351217, Note_on_c, 0, 86, 57
1, 351217, Note_on_c, 0, 98, 75
1, 351249, Note_off_c, 0, 86, 66
1, 351250, Note_on_c, 0, 85, 63
1, 351253, Note_off_c, 0, 98, 64
1, 351255, Note_on_c, 0, 97, 77
1, 351282, Note_off_c, 0, 85, 66
1, 351295, Note_on_c, 0, 80, 66
1, 351306, Note_off_c, 0, 97, 64
1, 351312, Note_on_c, 0, 92, 77
1, 351318, Note_off_c, 0, 80, 68
1, 351336, Note_off_c, 0, 92, 67
1, 351339, Note_on_c, 0, 88, 75
1, 351359, Note_on_c, 0, 100, 85
1, 351377, Note_on_c, 0, 83, 70
1, 351385, Note_off_c, 0, 88, 65
1, 351402, Note_on_c, 0, 95, 71
1, 351410, Note_on_c, 0, 82, 59
1, 351418, Note_off_c, 0, 83, 61
1, 351435, Note_off_c, 0, 100, 61
1, 351441, Note_on_c, 0, 94, 81
1, 351455, Note_off_c, 0, 82, 57
1, 351457, Note_off_c, 0, 95, 67
1, 351470, Note_on_c, 0, 77, 70
1, 351485, Note_off_c, 0, 94, 65
1, 351495, Note_on_c, 0, 89, 80
1, 351506, Note_off_c, 0, 77, 61
1, 351529, Note_on_c, 0, 85, 76
1, 351547, Note_on_c, 0, 97, 89
1, 351553, Note_off_c, 0, 89, 57
1, 351554, Note_on_c, 0, 80, 71
1, 351554, Note_off_c, 0, 85, 66
1, 351595, Note_on_c, 0, 92, 85
1, 351601, Note_on_c, 0, 79, 62
1, 351619, Note_on_c, 0, 91, 75
1, 351621, Note_off_c, 0, 97, 64
1, 351625, Note_off_c, 0, 80, 66
1, 351632, Note_off_c, 0, 79, 65
1, 351646, Note_on_c, 0, 74, 78
1, 351649, Note_off_c, 0, 92, 67
1, 351670, Note_on_c, 0, 86, 80
1, 351673, Note_off_c, 0, 91, 67
1, 351685, Note_on_c, 0, 82, 86
1, 351696, Note_off_c, 0, 74, 62
1, 351721, Note_off_c, 0, 82, 66
1, 351727, Note_on_c, 0, 94, 83
1, 351731, Note_off_c, 0, 86, 64
1, 351748, Note_on_c, 0, 77, 81
1, 351757, Note_on_c, 0, 90, 81
1, 351762, Note_on_c, 0, 76, 75
1, 351786, Note_off_c, 0, 94, 63
1, 351791, Note_off_c, 0, 77, 63
1, 351802, Note_on_c, 0, 88, 84
1, 351816, Note_off_c, 0, 90, 65
1, 351819, Note_on_c, 0, 89, 40
1, 351822, Note_off_c, 0, 76, 65
1, 351842, Note_on_c, 0, 71, 76
1, 351848, Note_off_c, 0, 89, 46
1, 351855, Note_off_c, 0, 88, 68
1, 351869, Note_on_c, 0, 83, 81
1, 351883, Note_off_c, 0, 71, 60
1, 351900, Note_on_c, 0, 79, 79
1, 351914, Note_on_c, 0, 91, 78
1, 351923, Note_off_c, 0, 83, 64
1, 351931, Note_on_c, 0, 74, 74
1, 351941, Note_off_c, 0, 79, 62
1, 351958, Note_on_c, 0, 86, 83
1, 351968, Note_on_c, 0, 73, 73
1, 351971, Note_off_c, 0, 91, 67
1, 351990, Note_off_c, 0, 74, 64
1, 351991, Note_on_c, 0, 85, 78
1, 352005, Note_off_c, 0, 86, 67
1, 352027, Note_on_c, 0, 68, 80
1, 352029, Note_off_c, 0, 73, 62
1, 352044, Note_off_c, 0, 85, 65
1, 352052, Note_on_c, 0, 80, 86
1, 352068, Note_on_c, 0, 76, 79
1, 352075, Note_off_c, 0, 68, 61
1, 352093, Note_off_c, 0, 80, 65
1, 352100, Note_on_c, 0, 88, 85
1, 352126, Note_on_c, 0, 71, 74
1, 352126, Note_off_c, 0, 76, 62
1, 352149, Note_on_c, 0, 70, 74
1, 352153, Note_on_c, 0, 83, 74
1, 352174, Note_off_c, 0, 71, 62
1, 352181, Note_off_c, 0, 88, 62
1, 352193, Note_on_c, 0, 82, 58
1, 352208, Note_off_c, 0, 83, 65
1, 352211, Note_off_c, 0, 70, 63
1, 352237, Note_on_c, 0, 65, 64
1, 352244, Note_off_c, 0, 82, 65
1, 352250, Note_on_c, 0, 77, 83
1, 352265, Note_off_c, 0, 65, 66
1, 352278, Note_on_c, 0, 73, 79
1, 352301, Note_on_c, 0, 85, 92
1, 352306, Note_off_c, 0, 77, 61
1, 352319, Note_on_c, 0, 68, 77
1, 352327, Note_off_c, 0, 73, 65
1, 352347, Note_on_c, 0, 80, 78
1, 352370, Note_on_c, 0, 67, 52
1, 352374, Note_off_c, 0, 85, 64
1, 352377, Note_on_c, 0, 79, 75
1, 352391, Note_off_c, 0, 68, 62
1, 352401, Note_off_c, 0, 80, 63
1, 352415, Note_on_c, 0, 62, 71
1, 352415, Note_off_c, 0, 67, 62
1, 352429, Note_off_c, 0, 79, 66
1, 352430, Note_on_c, 0, 74, 82
1, 352467, Note_on_c, 0, 70, 78
1, 352475, Note_off_c, 0, 62, 63
1, 352489, Note_on_c, 0, 82, 81
1, 352493, Note_off_c, 0, 74, 62
1, 352514, Note_off_c, 0, 70, 67
1, 352522, Note_on_c, 0, 65, 74
1, 352533, Note_on_c, 0, 77, 80
1, 352564, Note_on_c, 0, 64, 65
1, 352573, Note_off_c, 0, 82, 61
1, 352582, Note_off_c, 0, 65, 63
1, 352590, Note_on_c, 0, 76, 75
1, 352599, Note_off_c, 0, 77, 65
1, 352624, Note_off_c, 0, 64, 64
1, 352633, Note_off_c, 0, 76, 66
1, 352641, Note_on_c, 0, 71, 74
1, 352642, Note_on_c, 0, 59, 73
1, 352687, Note_off_c, 0, 59, 60
1, 352690, Note_on_c, 0, 67, 74
1, 352692, Note_on_c, 0, 79, 80
1, 352696, Note_off_c, 0, 71, 63
1, 352731, Note_on_c, 0, 62, 64
1, 352737, Note_off_c, 0, 67, 64
1, 352737, Note_on_c, 0, 74, 78
1, 352768, Note_on_c, 0, 73, 84
1, 352768, Note_off_c, 0, 79, 62
1, 352773, Note_on_c, 0, 61, 72
1, 352782, Note_off_c, 0, 74, 65
1, 352791, Note_off_c, 0, 62, 63
1, 352827, Note_off_c, 0, 73, 65
1, 352832, Note_on_c, 0, 68, 78
1, 352837, Note_on_c, 0, 56, 70
1, 352841, Note_off_c, 0, 61, 62
1, 352871, Note_off_c, 0, 56, 65
1, 352874, Note_on_c, 0, 64, 76
1, 352882, Note_on_c, 0, 76, 83
1, 352889, Note_off_c, 0, 68, 63
1, 352919, Note_on_c, 0, 59, 75
1, 352933, Note_on_c, 0, 71, 81
1, 352941, Note_off_c, 0, 64, 60
1, 352957, Note_on_c, 0, 58, 82
1, 352970, Note_on_c, 0, 70, 85
1, 352978, Note_off_c, 0, 76, 58
1, 352990, Note_off_c, 0, 59, 64
1, 352998, Note_off_c, 0, 71, 64
1, 353008, Note_on_c, 0, 65, 87
1, 353008, Note_off_c, 0, 58, 64
1, 353011, Note_on_c, 0, 53, 75
1, 353023, Note_off_c, 0, 70, 68
1, 353026, Control_c, 0, 67, 42
1, 353040, Note_off_c, 0, 53, 65
1, 353041, Control_c, 0, 64, 73
1, 353041, Control_c, 0, 67, 119
1, 353055, Note_off_c, 0, 65, 67
1, 353056, Control_c, 0, 64, 31
1, 353056, Control_c, 0, 67, 127
1, 353071, Control_c, 0, 64, 0
1, 354562, Note_on_c, 0, 40, 23
1, 354581, Note_on_c, 0, 28, 36
1, 354583, Control_c, 0, 64, 41
1, 354598, Control_c, 0, 64, 55
1, 354612, Control_c, 0, 64, 62
1, 354627, Control_c, 0, 64, 68
1, 354642, Control_c, 0, 64, 75
1, 354654, Note_off_c, 0, 28, 62
1, 354657, Control_c, 0, 64, 87
1, 354672, Control_c, 0, 64, 116
1, 354677, Note_off_c, 0, 40, 54
1, 354687, Control_c, 0, 64, 127
1, 355021, Note_on_c, 0, 47, 33
1, 355058, Note_off_c, 0, 47, 49
1, 355092, Note_on_c, 0, 52, 41
1, 355137, Note_off_c, 0, 52, 52
1, 355150, Note_on_c, 0, 56, 50
1, 355247, Note_off_c, 0, 56, 53
1, 355271, Note_on_c, 0, 62, 33
1, 355271, Note_on_c, 0, 77, 54
1, 355286, Note_on_c, 0, 73, 37
1, 355294, Note_on_c, 0, 70, 33
1, 355298, Note_on_c, 0, 65, 29
1, 355320, Note_off_c, 0, 62, 58
1, 355330, Note_off_c, 0, 77, 53
1, 355343, Note_off_c, 0, 70, 58
1, 355349, Note_off_c, 0, 65, 45
1, 355375, Note_off_c, 0, 73, 53
1, 356245, Note_on_c, 0, 74, 43
1, 356259, Note_on_c, 0, 86, 29
1, 356391, Note_off_c, 0, 86, 49
1, 356401, Note_off_c, 0, 74, 60
1, 356439, Note_on_c, 0, 79, 33
1, 356447, Note_on_c, 0, 91, 49
1, 356544, Note_off_c, 0, 79, 62
1, 356579, Note_on_c, 0, 80, 45
1, 356598, Note_on_c, 0, 92, 53
1, 356604, Note_off_c, 0, 91, 34
1, 356730, Note_off_c, 0, 80, 53
1, 356750, Note_on_c, 0, 97, 59
1, 356753, Note_off_c, 0, 92, 32
1, 356755, Note_on_c, 0, 85, 51
1, 356782, Note_off_c, 0, 97, 66
1, 356792, Note_off_c, 0, 85, 64
1, 356895, Note_on_c, 0, 97, 51
1, 356927, Note_off_c, 0, 97, 64
1, 357013, Note_on_c, 0, 97, 59
1, 357033, Note_off_c, 0, 97, 60
1, 357099, Note_on_c, 0, 85, 67
1, 357109, Note_on_c, 0, 97, 69
1, 357125, Note_off_c, 0, 85, 68
1, 357134, Note_off_c, 0, 97, 65
1, 357209, Note_on_c, 0, 97, 67
1, 357237, Note_off_c, 0, 97, 66
1, 357304, Note_on_c, 0, 97, 71
1, 357331, Note_off_c, 0, 97, 68
1, 357408, Note_on_c, 0, 85, 61
1, 357411, Note_on_c, 0, 97, 73
1, 357435, Note_off_c, 0, 85, 65
1, 357437, Note_off_c, 0, 97, 68
1, 357528, Note_on_c, 0, 97, 47
1, 357550, Note_off_c, 0, 97, 57
1, 357618, Note_on_c, 0, 97, 81
1, 357632, Note_on_c, 0, 85, 73
1, 357646, Note_off_c, 0, 97, 64
1, 357651, Note_off_c, 0, 85, 72
1, 357741, Note_on_c, 0, 97, 63
1, 357769, Note_off_c, 0, 97, 65
1, 357844, Note_on_c, 0, 97, 70
1, 357872, Note_off_c, 0, 97, 67
1, 357938, Note_on_c, 0, 97, 76
1, 357942, Note_on_c, 0, 85, 75
1, 357961, Note_off_c, 0, 85, 72
1, 357964, Note_off_c, 0, 97, 65
1, 358042, Note_on_c, 0, 97, 71
1, 358070, Note_off_c, 0, 97, 67
1, 358145, Note_on_c, 0, 97, 68
1, 358175, Note_off_c, 0, 97, 65
1, 358267, Note_on_c, 0, 97, 60
1, 358277, Note_on_c, 0, 85, 41
1, 358360, Note_off_c, 0, 97, 61
1, 358361, Note_off_c, 0, 85, 43
1, 358416, Note_on_c, 0, 97, 63
1, 358470, Note_off_c, 0, 97, 61
1, 358619, Note_on_c, 0, 103, 52
1, 358627, Note_on_c, 0, 91, 43
1, 358715, Note_off_c, 0, 103, 64
1, 358724, Note_off_c, 0, 91, 53
1, 358765, Note_on_c, 0, 86, 46
1, 358767, Note_on_c, 0, 98, 45
1, 358807, Note_off_c, 0, 98, 62
1, 358814, Note_off_c, 0, 86, 53
1, 358817, Note_on_c, 0, 97, 55
1, 358839, Note_on_c, 0, 85, 40
1, 358863, Note_off_c, 0, 97, 63
1, 358885, Note_off_c, 0, 85, 62
1, 358896, Note_on_c, 0, 92, 56
1, 358912, Note_on_c, 0, 80, 48
1, 358916, Note_off_c, 0, 92, 62
1, 358947, Note_off_c, 0, 80, 66
1, 358961, Note_on_c, 0, 100, 58
1, 358970, Note_on_c, 0, 88, 51
1, 359002, Note_off_c, 0, 88, 61
1, 359004, Note_off_c, 0, 100, 60
1, 359018, Note_on_c, 0, 83, 54
1, 359021, Note_on_c, 0, 95, 55
1, 359050, Note_on_c, 0, 82, 53
1, 359052, Note_off_c, 0, 95, 66
1, 359054, Note_on_c, 0, 94, 67
1, 359057, Note_off_c, 0, 83, 59
1, 359102, Note_off_c, 0, 94, 65
1, 359108, Note_off_c, 0, 82, 63
1, 359129, Note_on_c, 0, 89, 65
1, 359147, Note_on_c, 0, 77, 45
1, 359157, Note_off_c, 0, 89, 66
1, 359170, Note_off_c, 0, 77, 60
1, 359173, Note_on_c, 0, 85, 58
1, 359176, Note_on_c, 0, 97, 71
1, 359210, Note_off_c, 0, 85, 63
1, 359218, Note_on_c, 0, 80, 57
1, 359227, Note_on_c, 0, 92, 65
1, 359241, Note_off_c, 0, 97, 62
1, 359248, Note_on_c, 0, 79, 57
1, 359251, Note_off_c, 0, 80, 62
1, 359260, Note_off_c, 0, 92, 66
1, 359281, Note_on_c, 0, 91, 60
1, 359283, Note_off_c, 0, 79, 62
1, 359313, Note_off_c, 0, 91, 67
1, 359331, Note_on_c, 0, 86, 60
1, 359337, Note_on_c, 0, 74, 50
1, 359358, Note_off_c, 0, 86, 68
1, 359358, Note_on_c, 0, 82, 67
1, 359358, Note_off_c, 0, 74, 60
1, 359382, Note_on_c, 0, 94, 53
1, 359382, Note_off_c, 0, 82, 69
1, 359406, Note_off_c, 0, 94, 56
1, 359412, Note_on_c, 0, 77, 57
1, 359430, Note_on_c, 0, 76, 62
1, 359437, Note_on_c, 0, 89, 52
1, 359448, Note_off_c, 0, 77, 65
1, 359459, Note_off_c, 0, 89, 61
1, 359460, Note_off_c, 0, 76, 67
1, 359465, Note_on_c, 0, 88, 69
1, 359496, Note_off_c, 0, 88, 65
1, 359515, Note_on_c, 0, 71, 54
1, 359519, Note_on_c, 0, 83, 64
1, 359536, Note_off_c, 0, 71, 61
1, 359551, Note_off_c, 0, 83, 63
1, 359552, Note_on_c, 0, 91, 72
1, 359564, Note_on_c, 0, 79, 60
1, 359587, Note_off_c, 0, 79, 60
1, 359597, Note_on_c, 0, 74, 60
1, 359601, Note_off_c, 0, 91, 64
1, 359618, Note_on_c, 0, 86, 60
1, 359629, Note_off_c, 0, 74, 67
1, 359637, Note_on_c, 0, 85, 72
1, 359640, Note_on_c, 0, 73, 48
1, 359646, Note_off_c, 0, 86, 67
1, 359674, Note_off_c, 0, 85, 61
1, 359675, Note_off_c, 0, 73, 65
1, 359690, Note_on_c, 0, 68, 57
1, 359699, Note_on_c, 0, 80, 70
1, 359719, Note_off_c, 0, 68, 66
1, 359720, Note_off_c, 0, 80, 72
1, 359734, Note_on_c, 0, 76, 68
1, 359740, Note_on_c, 0, 88, 68
1, 359766, Note_off_c, 0, 76, 58
1, 359775, Note_off_c, 0, 88, 55
1, 359781, Note_on_c, 0, 83, 63
1, 359795, Note_on_c, 0, 71, 40
1, 359796, Note_on_c, 0, 70, 68
1, 359811, Note_off_c, 0, 83, 65
1, 359816, Note_on_c, 0, 82, 73
1, 359827, Note_off_c, 0, 71, 51
1, 359832, Note_off_c, 0, 70, 58
1, 359850, Note_off_c, 0, 82, 61
1, 359862, Note_on_c, 0, 65, 64
1, 359875, Note_on_c, 0, 77, 71
1, 359889, Note_off_c, 0, 65, 67
1, 359909, Note_off_c, 0, 77, 56
1, 359910, Note_on_c, 0, 73, 67
1, 359912, Note_on_c, 0, 85, 76
1, 359939, Note_off_c, 0, 73, 66
1, 359939, Note_on_c, 0, 68, 61
1, 359958, Note_on_c, 0, 80, 68
1, 359970, Note_on_c, 0, 67, 64
1, 359970, Note_off_c, 0, 85, 62
1, 359987, Note_off_c, 0, 68, 59
1, 360001, Note_on_c, 0, 79, 58
1, 360002, Note_off_c, 0, 80, 62
1, 360008, Note_off_c, 0, 67, 63
1, 360027, Note_off_c, 0, 79, 68
1, 360038, Note_on_c, 0, 62, 59
1, 360049, Note_on_c, 0, 74, 69
1, 360077, Note_off_c, 0, 62, 63
1, 360088, Note_on_c, 0, 70, 69
1, 360088, Note_off_c, 0, 74, 56
1, 360097, Note_on_c, 0, 82, 70
1, 360109, Note_off_c, 0, 70, 72
1, 360137, Note_on_c, 0, 65, 60
1, 360139, Note_off_c, 0, 82, 60
1, 360154, Note_on_c, 0, 77, 63
1, 360160, Note_on_c, 0, 64, 56
1, 360171, Note_off_c, 0, 65, 65
1, 360179, Note_off_c, 0, 77, 69
1, 360187, Note_on_c, 0, 76, 62
1, 360191, Note_off_c, 0, 64, 66
1, 360213, Note_off_c, 0, 76, 69
1, 360232, Note_on_c, 0, 59, 68
1, 360244, Note_on_c, 0, 71, 68
1, 360264, Note_off_c, 0, 59, 65
1, 360276, Note_off_c, 0, 71, 61
1, 360286, Note_on_c, 0, 79, 62
1, 360296, Note_on_c, 0, 67, 63
1, 360321, Note_off_c, 0, 67, 68
1, 360324, Note_off_c, 0, 79, 62
1, 360327, Note_on_c, 0, 62, 62
1, 360342, Note_on_c, 0, 74, 62
1, 360359, Note_on_c, 0, 73, 71
1, 360366, Note_off_c, 0, 62, 65
1, 360368, Note_on_c, 0, 61, 62
1, 360370, Note_off_c, 0, 74, 65
1, 360402, Note_off_c, 0, 61, 66
1, 360407, Note_off_c, 0, 73, 61
1, 360416, Note_on_c, 0, 56, 64
1, 360427, Note_on_c, 0, 68, 68
1, 360446, Note_off_c, 0, 56, 64
1, 360450, Note_off_c, 0, 68, 69
1, 360461, Note_on_c, 0, 76, 69
1, 360463, Note_on_c, 0, 64, 68
1, 360500, Note_off_c, 0, 64, 54
1, 360512, Control_c, 0, 64, 119
1, 360515, Note_on_c, 0, 59, 55
1, 360515, Note_on_c, 0, 71, 67
1, 360525, Note_on_c, 0, 58, 73
1, 360526, Note_off_c, 0, 76, 62
1, 360527, Control_c, 0, 64, 102
1, 360541, Control_c, 0, 64, 96
1, 360543, Note_off_c, 0, 59, 66
1, 360543, Note_off_c, 0, 71, 65
1, 360544, Note_on_c, 0, 70, 72
1, 360556, Control_c, 0, 64, 92
1, 360571, Control_c, 0, 64, 89
1, 360574, Note_off_c, 0, 58, 63
1, 360586, Control_c, 0, 64, 86
1, 360592, Note_off_c, 0, 70, 64
1, 360601, Control_c, 0, 64, 84
1, 360602, Note_on_c, 0, 53, 64
1, 360612, Note_on_c, 0, 65, 68
1, 360616, Control_c, 0, 64, 82
1, 360631, Control_c, 0, 64, 80
1, 360631, Note_off_c, 0, 53, 66
1, 360644, Note_on_c, 0, 61, 61
1, 360644, Note_on_c, 0, 73, 76
1, 360646, Control_c, 0, 64, 75
1, 360647, Note_off_c, 0, 65, 63
1, 360661, Control_c, 0, 64, 70
1, 360674, Note_on_c, 0, 56, 67
1, 360675, Control_c, 0, 64, 64
1, 360681, Note_off_c, 0, 61, 66
1, 360690, Control_c, 0, 64, 60
1, 360697, Note_on_c, 0, 68, 71
1, 360703, Note_off_c, 0, 73, 64
1, 360705, Control_c, 0, 64, 56
1, 360711, Note_on_c, 0, 55, 64
1, 360720, Control_c, 0, 64, 55
1, 360720, Note_off_c, 0, 56, 63
1, 360729, Note_off_c, 0, 68, 66
1, 360729, Note_on_c, 0, 67, 62
1, 360735, Control_c, 0, 64, 54
1, 360749, Control_c, 0, 64, 54
1, 360753, Note_off_c, 0, 55, 62
1, 360760, Note_off_c, 0, 67, 67
1, 360779, Control_c, 0, 64, 53
1, 360780, Note_on_c, 0, 62, 69
1, 360795, Note_on_c, 0, 50, 57
1, 360816, Control_c, 0, 64, 52
1, 360828, Note_off_c, 0, 50, 65
1, 360829, Note_on_c, 0, 70, 70
1, 360830, Note_off_c, 0, 62, 59
1, 360832, Note_on_c, 0, 58, 72
1, 360860, Note_off_c, 0, 58, 68
1, 360876, Control_c, 0, 64, 51
1, 360881, Note_on_c, 0, 65, 68
1, 360881, Note_off_c, 0, 70, 62
1, 360887, Note_on_c, 0, 53, 52
1, 360891, Control_c, 0, 64, 51
1, 360905, Control_c, 0, 64, 50
1, 360909, Note_off_c, 0, 65, 66
1, 360911, Note_on_c, 0, 52, 50
1, 360913, Note_on_c, 0, 64, 63
1, 360920, Note_off_c, 0, 53, 63
1, 360943, Note_off_c, 0, 52, 64
1, 360950, Note_off_c, 0, 64, 66
1, 360950, Control_c, 0, 64, 50
1, 360965, Control_c, 0, 64, 49
1, 360973, Note_on_c, 0, 59, 63
1, 360977, Note_on_c, 0, 47, 68
1, 360980, Control_c, 0, 64, 48
1, 360994, Control_c, 0, 64, 47
1, 361009, Control_c, 0, 64, 46
1, 361014, Note_off_c, 0, 59, 64
1, 361015, Note_on_c, 0, 67, 70
1, 361017, Note_off_c, 0, 47, 64
1, 361024, Control_c, 0, 64, 45
1, 361027, Note_on_c, 0, 55, 61
1, 361039, Control_c, 0, 64, 45
1, 361054, Control_c, 0, 64, 44
1, 361058, Note_off_c, 0, 67, 63
1, 361070, Note_off_c, 0, 55, 64
1, 361078, Note_on_c, 0, 50, 55
1, 361082, Note_on_c, 0, 62, 52
1, 361084, Control_c, 0, 64, 44
1, 361098, Control_c, 0, 64, 43
1, 361107, Note_off_c, 0, 62, 63
1, 361108, Note_on_c, 0, 49, 60
1, 361108, Note_on_c, 0, 61, 54
1, 361111, Note_off_c, 0, 50, 65
1, 361113, Control_c, 0, 64, 42
1, 361128, Control_c, 0, 64, 41
1, 361132, Note_off_c, 0, 61, 60
1, 361143, Control_c, 0, 64, 40
1, 361151, Note_off_c, 0, 49, 64
1, 361158, Control_c, 0, 64, 37
1, 361165, Note_on_c, 0, 56, 61
1, 361170, Note_on_c, 0, 44, 58
1, 361172, Control_c, 0, 64, 32
1, 361187, Control_c, 0, 64, 0
1, 361191, Note_off_c, 0, 56, 60
1, 361200, Note_off_c, 0, 44, 64
1, 361214, Note_on_c, 0, 52, 53
1, 361215, Note_on_c, 0, 64, 60
1, 361250, Note_off_c, 0, 52, 61
1, 361251, Note_off_c, 0, 64, 64
1, 361258, Note_on_c, 0, 59, 57
1, 361263, Note_on_c, 0, 47, 60
1, 361287, Note_on_c, 0, 58, 55
1, 361298, Note_off_c, 0, 59, 65
1, 361299, Note_on_c, 0, 46, 45
1, 361300, Note_off_c, 0, 47, 63
1, 361326, Note_off_c, 0, 58, 65
1, 361330, Note_off_c, 0, 46, 62
1, 361343, Note_on_c, 0, 53, 64
1, 361353, Note_on_c, 0, 41, 68
1, 361370, Note_off_c, 0, 53, 65
1, 361380, Note_off_c, 0, 41, 66
1, 362174, Control_c, 0, 67, 0
1, 362455, Note_on_c, 0, 51, 97
1, 362457, Note_on_c, 0, 21, 98
1, 362457, Note_on_c, 0, 43, 101
1, 362462, Control_c, 0, 64, 61
1, 362464, Note_on_c, 0, 48, 94
1, 362478, Control_c, 0, 64, 127
1, 362500, Note_off_c, 0, 21, 65
1, 362593, Note_off_c, 0, 43, 53
1, 362634, Note_off_c, 0, 48, 48
1, 362660, Note_off_c, 0, 51, 60
1, 362962, Note_on_c, 0, 57, 99
1, 362963, Note_on_c, 0, 49, 97
1, 362971, Note_on_c, 0, 54, 93
1, 362999, Note_off_c, 0, 57, 69
1, 363030, Note_off_c, 0, 54, 63
1, 363036, Note_off_c, 0, 49, 62
1, 363204, Note_on_c, 0, 55, 96
1, 363204, Note_on_c, 0, 63, 92
1, 363208, Note_on_c, 0, 60, 88
1, 363236, Note_off_c, 0, 55, 69
1, 363236, Note_off_c, 0, 60, 67
1, 363261, Note_off_c, 0, 63, 66
1, 363386, Note_on_c, 0, 61, 98
1, 363394, Note_on_c, 0, 69, 97
1, 363396, Note_on_c, 0, 66, 90
1, 363434, Note_off_c, 0, 69, 63
1, 363469, Note_off_c, 0, 66, 65
1, 363470, Note_off_c, 0, 61, 61
1, 363525, Note_on_c, 0, 67, 98
1, 363525, Note_on_c, 0, 72, 94
1, 363528, Note_on_c, 0, 75, 97
1, 363557, Note_off_c, 0, 67, 69
1, 363557, Note_off_c, 0, 72, 68
1, 363572, Note_off_c, 0, 75, 68
1, 363660, Note_on_c, 0, 81, 101
1, 363662, Note_on_c, 0, 73, 97
1, 363667, Note_on_c, 0, 78, 77
1, 363683, Note_off_c, 0, 78, 43
1, 363689, Note_off_c, 0, 81, 70
1, 363694, Note_on_c, 0, 85, 46
1, 363697, Note_on_c, 0, 79, 48
1, 363716, Note_off_c, 0, 73, 60
1, 363722, Note_off_c, 0, 79, 58
1, 363725, Note_off_c, 0, 85, 45
1, 363796, Note_on_c, 0, 79, 92
1, 363798, Note_on_c, 0, 87, 96
1, 363802, Note_on_c, 0, 84, 87
1, 363817, Note_off_c, 0, 84, 76
1, 363826, Note_off_c, 0, 79, 70
1, 363840, Note_off_c, 0, 87, 67
1, 363946, Note_on_c, 0, 93, 106
1, 363948, Note_on_c, 0, 85, 97
1, 363951, Note_on_c, 0, 90, 87
1, 364027, Note_off_c, 0, 93, 56
1, 364073, Note_off_c, 0, 90, 61
1, 364090, Note_off_c, 0, 85, 62
1, 364098, Note_on_c, 0, 96, 92
1, 364098, Note_on_c, 0, 91, 93
1, 364100, Note_on_c, 0, 99, 95
1, 364166, Note_off_c, 0, 96, 66
1, 364292, Note_on_c, 0, 97, 93
1, 364293, Note_on_c, 0, 102, 95
1, 364293, Note_on_c, 0, 105, 99
1, 364319, Note_off_c, 0, 91, 68
1, 364327, Note_off_c, 0, 99, 62
1, 364367, Note_off_c, 0, 97, 62
1, 364492, Note_on_c, 0, 91, 103
1, 364496, Note_on_c, 0, 99, 101
1, 364498, Note_on_c, 0, 96, 92
1, 364501, Note_on_c, 0, 75, 103
1, 364501, Note_off_c, 0, 105, 64
1, 364502, Note_on_c, 0, 67, 75
1, 364509, Note_on_c, 0, 72, 90
1, 364522, Note_off_c, 0, 102, 68
1, 364529, Note_off_c, 0, 91, 70
1, 364531, Note_off_c, 0, 96, 70
1, 364550, Note_off_c, 0, 99, 67
1, 364574, Note_off_c, 0, 67, 51
1, 364578, Note_off_c, 0, 72, 60
1, 364601, Note_off_c, 0, 75, 62
1, 365103, Note_on_c, 0, 97, 89
1, 365103, Note_on_c, 0, 105, 85
1, 365106, Note_on_c, 0, 81, 94
1, 365109, Note_on_c, 0, 102, 85
1, 365112, Note_on_c, 0, 78, 90
1, 365117, Note_on_c, 0, 73, 83
1, 365140, Note_off_c, 0, 81, 69
1, 365155, Note_off_c, 0, 97, 65
1, 365157, Note_off_c, 0, 78, 62
1, 365177, Note_off_c, 0, 73, 62
1, 365220, Note_off_c, 0, 102, 56
1, 365339, Poly_aftertouch_c, 0, 102, 127
1, 365682, Note_on_c, 0, 99, 94
1, 365685, Note_on_c, 0, 91, 88
1, 365686, Note_on_c, 0, 96, 89
1, 365689, Note_on_c, 0, 75, 84
1, 365695, Note_on_c, 0, 67, 71
1, 365702, Note_on_c, 0, 72, 72
1, 365707, Note_off_c, 0, 105, 65
1, 365725, Poly_aftertouch_c, 0, 102, 0
1, 365734, Note_off_c, 0, 67, 61
1, 365737, Note_off_c, 0, 75, 62
1, 365737, Note_off_c, 0, 72, 60
1, 365771, Note_off_c, 0, 96, 66
1, 365859, Note_off_c, 0, 91, 60
1, 366405, Note_on_c, 0, 97, 85
1, 366405, Note_on_c, 0, 105, 85
1, 366408, Note_on_c, 0, 102, 82
1, 366409, Note_on_c, 0, 81, 72
1, 366415, Note_on_c, 0, 78, 72
1, 366416, Note_on_c, 0, 73, 69
1, 366435, Note_off_c, 0, 81, 65
1, 366438, Note_off_c, 0, 99, 63
1, 366442, Note_off_c, 0, 97, 67
1, 366455, Note_off_c, 0, 78, 56
1, 366479, Note_off_c, 0, 73, 62
1, 367277, Note_on_c, 0, 99, 70
1, 367279, Note_on_c, 0, 96, 66
1, 367281, Note_on_c, 0, 91, 53
1, 367285, Note_off_c, 0, 105, 48
1, 367290, Note_on_c, 0, 67, 55
1, 367293, Note_on_c, 0, 72, 57
1, 367297, Note_on_c, 0, 75, 52
1, 367327, Note_off_c, 0, 102, 39
1, 367350, Note_off_c, 0, 72, 59
1, 367356, Note_off_c, 0, 67, 57
1, 367359, Note_off_c, 0, 75, 56
1, 367366, Note_off_c, 0, 91, 65
1, 367371, Note_off_c, 0, 96, 65
1, 368382, Note_on_c, 0, 105, 62
1, 368390, Note_on_c, 0, 97, 59
1, 368392, Note_on_c, 0, 102, 61
1, 368396, Note_off_c, 0, 99, 55
1, 368398, Note_on_c, 0, 73, 45
1, 368402, Note_on_c, 0, 78, 44
1, 368404, Note_on_c, 0, 81, 48
1, 368423, Note_off_c, 0, 97, 65
1, 368449, Note_off_c, 0, 81, 60
1, 368459, Note_off_c, 0, 78, 54
1, 368489, Note_off_c, 0, 73, 60
1, 369301, Note_off_c, 0, 105, 41
1, 369513, Control_c, 0, 67, 39
1, 369528, Control_c, 0, 67, 54
1, 369543, Control_c, 0, 67, 65
1, 369558, Control_c, 0, 67, 73
1, 369573, Control_c, 0, 67, 80
1, 369587, Control_c, 0, 67, 89
1, 369602, Control_c, 0, 67, 99
1, 369617, Control_c, 0, 67, 109
1, 369631, Control_c, 0, 67, 120
1, 369646, Control_c, 0, 67, 127
1, 370116, Note_off_c, 0, 102, 30
1, 370251, Note_on_c, 0, 99, 55
1, 370263, Note_on_c, 0, 72, 32
1, 370268, Note_on_c, 0, 91, 26
1, 370274, Note_on_c, 0, 67, 44
1, 370274, Note_on_c, 0, 96, 41
1, 370281, Note_on_c, 0, 75, 37
1, 370324, Note_off_c, 0, 96, 45
1, 370333, Note_off_c, 0, 91, 61
1, 370341, Note_off_c, 0, 99, 55
1, 373976, Control_c, 0, 67, 124
1, 373991, Control_c, 0, 67, 116
1, 374006, Control_c, 0, 67, 104
1, 374011, Note_off_c, 0, 75, 57
1, 374020, Control_c, 0, 67, 86
1, 374028, Note_off_c, 0, 67, 61
1, 374035, Control_c, 0, 67, 44
1, 374050, Control_c, 0, 67, 0
1, 374051, Note_off_c, 0, 72, 51
1, 374054, Note_on_c, 0, 100, 109
1, 374065, Control_c, 0, 64, 70
1, 374080, Control_c, 0, 64, 0
1, 374339, Control_c, 0, 64, 45
1, 374341, Note_on_c, 0, 99, 97
1, 374353, Control_c, 0, 64, 80
1, 374368, Control_c, 0, 64, 127
1, 374490, Note_on_c, 0, 94, 96
1, 374525, Note_on_c, 0, 97, 27
1, 374568, Note_off_c, 0, 97, 37
1, 374612, Note_on_c, 0, 93, 104
1, 374626, Note_off_c, 0, 100, 63
1, 374642, Note_off_c, 0, 94, 67
1, 374642, Note_off_c, 0, 99, 64
1, 374656, Note_off_c, 0, 93, 68
1, 374701, Note_on_c, 0, 88, 88
1, 374780, Note_on_c, 0, 87, 84
1, 374796, Note_off_c, 0, 88, 66
1, 374811, Poly_aftertouch_c, 0, 81, 0
1, 374846, Note_on_c, 0, 82, 77
1, 374859, Note_off_c, 0, 87, 64
1, 374894, Note_on_c, 0, 81, 77
1, 374916, Note_off_c, 0, 82, 67
1, 374936, Note_off_c, 0, 81, 69
1, 374956, Note_on_c, 0, 76, 68
1, 375010, Note_on_c, 0, 75, 71
1, 375040, Note_off_c, 0, 76, 66
1, 375067, Note_on_c, 0, 70, 80
1, 375103, Note_off_c, 0, 75, 64
1, 375119, Note_on_c, 0, 69, 83
1, 375130, Note_off_c, 0, 70, 67
1, 375160, Note_off_c, 0, 69, 67
1, 375186, Note_on_c, 0, 64, 71
1, 375276, Note_off_c, 0, 64, 65
1, 375303, Note_on_c, 0, 57, 67
1, 375306, Note_on_c, 0, 61, 21
1, 375345, Note_off_c, 0, 61, 52
1, 375348, Note_off_c, 0, 57, 66
1, 375358, Note_on_c, 0, 53, 70
1, 375374, Note_on_c, 0, 52, 65
1, 375438, Note_off_c, 0, 53, 61
1, 375458, Note_on_c, 0, 47, 70
1, 375476, Note_off_c, 0, 52, 63
1, 375499, Note_on_c, 0, 45, 84
1, 375527, Note_off_c, 0, 45, 66
1, 375529, Note_off_c, 0, 47, 43
1, 375531, Note_on_c, 0, 40, 80
1, 375562, Note_on_c, 0, 39, 86
1, 375580, Note_off_c, 0, 40, 60
1, 375607, Note_on_c, 0, 38, 68
1, 375622, Note_on_c, 0, 34, 79
1, 375648, Note_off_c, 0, 38, 64
1, 375649, Note_on_c, 0, 33, 83
1, 375649, Note_off_c, 0, 39, 62
1, 375681, Note_off_c, 0, 34, 66
1, 375718, Note_off_c, 0, 33, 65
1, 375726, Control_c, 0, 64, 86
1, 375732, Note_on_c, 0, 21, 96
1, 375733, Note_on_c, 0, 23, 95
1, 375741, Control_c, 0, 64, 48
1, 375753, Note_off_c, 0, 23, 71
1, 375755, Control_c, 0, 64, 0
1, 375759, Note_off_c, 0, 21, 69
1, 375777, Control_c, 0, 64, 27
1, 375792, Control_c, 0, 64, 47
1, 375807, Control_c, 0, 64, 83
1, 375821, Control_c, 0, 64, 127
1, 375887, Poly_aftertouch_c, 0, 23, 127
1, 375917, Poly_aftertouch_c, 0, 23, 0
1, 376394, Note_on_c, 0, 33, 99
1, 376456, Note_off_c, 0, 33, 64
1, 376874, Note_on_c, 0, 40, 102
1, 377170, Note_off_c, 0, 40, 53
1, 377240, Note_on_c, 0, 45, 98
1, 377376, Poly_aftertouch_c, 0, 43, 0
1, 377515, Note_on_c, 0, 49, 101
1, 377589, Note_off_c, 0, 45, 0
1, 377626, Poly_aftertouch_c, 0, 45, 127
1, 377735, Note_on_c, 0, 52, 101
1, 377741, Poly_aftertouch_c, 0, 45, 0
1, 377758, Note_off_c, 0, 49, 62
1, 377780, Note_off_c, 0, 52, 68
1, 377914, Note_on_c, 0, 55, 92
1, 378086, Note_on_c, 0, 57, 95
1, 378108, Note_off_c, 0, 55, 64
1, 378221, Note_on_c, 0, 59, 100
1, 378281, Note_off_c, 0, 57, 47
1, 378346, Note_on_c, 0, 61, 98
1, 378363, Note_off_c, 0, 59, 63
1, 378386, Note_off_c, 0, 61, 67
1, 378459, Note_on_c, 0, 63, 101
1, 378545, Note_off_c, 0, 63, 66
1, 378549, Note_on_c, 0, 65, 88
1, 378638, Note_on_c, 0, 67, 91
1, 378653, Note_off_c, 0, 65, 65
1, 378713, Note_on_c, 0, 69, 86
1, 378734, Note_off_c, 0, 67, 67
1, 378770, Note_off_c, 0, 69, 65
1, 378814, Note_on_c, 0, 67, 85
1, 378865, Note_on_c, 0, 68, 81
1, 378889, Note_off_c, 0, 67, 61
1, 378924, Note_on_c, 0, 70, 59
1, 378927, Note_on_c, 0, 69, 89
1, 378936, Note_off_c, 0, 68, 57
1, 378947, Note_off_c, 0, 70, 57
1, 378965, Note_on_c, 0, 71, 82
1, 378987, Note_off_c, 0, 69, 67
1, 378995, Note_off_c, 0, 71, 64
1, 379002, Note_on_c, 0, 72, 89
1, 379039, Note_on_c, 0, 73, 85
1, 379056, Note_off_c, 0, 72, 65
1, 379065, Note_on_c, 0, 75, 80
1, 379076, Note_off_c, 0, 73, 66
1, 379094, Note_on_c, 0, 76, 87
1, 379097, Note_on_c, 0, 74, 59
1, 379100, Note_off_c, 0, 75, 69
1, 379118, Note_off_c, 0, 74, 61
1, 379125, Note_off_c, 0, 76, 69
1, 379169, Note_on_c, 0, 80, 88
1, 379180, Note_on_c, 0, 79, 76
1, 379198, Note_on_c, 0, 78, 26
1, 379202, Note_off_c, 0, 79, 64
1, 379215, Note_on_c, 0, 82, 93
1, 379229, Note_off_c, 0, 80, 57
1, 379234, Note_off_c, 0, 78, 53
1, 379241, Note_on_c, 0, 83, 83
1, 379243, Note_on_c, 0, 81, 75
1, 379255, Note_off_c, 0, 82, 64
1, 379267, Note_off_c, 0, 81, 61
1, 379273, Note_off_c, 0, 83, 67
1, 379279, Note_on_c, 0, 84, 88
1, 379300, Note_on_c, 0, 85, 89
1, 379324, Note_on_c, 0, 87, 77
1, 379326, Note_off_c, 0, 84, 67
1, 379345, Note_off_c, 0, 85, 66
1, 379353, Note_on_c, 0, 88, 80
1, 379365, Note_on_c, 0, 86, 39
1, 379372, Note_off_c, 0, 87, 69
1, 379393, Note_off_c, 0, 86, 56
1, 379395, Note_off_c, 0, 88, 70
1, 379411, Note_on_c, 0, 92, 100
1, 379434, Note_on_c, 0, 93, 91
1, 379460, Note_on_c, 0, 94, 81
1, 379464, Note_off_c, 0, 92, 63
1, 379472, Note_on_c, 0, 95, 93
1, 379488, Note_off_c, 0, 93, 46
1, 379493, Note_off_c, 0, 94, 63
1, 379522, Note_off_c, 0, 95, 69
1, 379533, Note_on_c, 0, 96, 81
1, 379533, Note_on_c, 0, 98, 76
1, 379543, Note_on_c, 0, 97, 94
1, 379564, Note_off_c, 0, 96, 66
1, 379566, Note_on_c, 0, 99, 85
1, 379566, Note_off_c, 0, 97, 65
1, 379579, Note_on_c, 0, 100, 83
1, 379589, Note_off_c, 0, 99, 66
1, 379598, Note_off_c, 0, 98, 65
1, 379607, Note_on_c, 0, 101, 55
1, 379623, Note_off_c, 0, 100, 68
1, 379632, Note_off_c, 0, 101, 57
1, 379664, Note_on_c, 0, 104, 78
1, 379665, Note_on_c, 0, 106, 91
1, 379681, Note_on_c, 0, 103, 41
1, 379700, Note_on_c, 0, 107, 100
1, 379703, Note_off_c, 0, 104, 55
1, 379706, Note_off_c, 0, 103, 58
1, 379726, Note_on_c, 0, 108, 126
1, 379729, Note_off_c, 0, 106, 65
1, 379749, Note_off_c, 0, 107, 67
1, 379755, Note_off_c, 0, 108, 71
1, 382776, Poly_aftertouch_c, 0, 61, 127
1, 382846, Poly_aftertouch_c, 0, 64, 127
1, 382957, Poly_aftertouch_c, 0, 68, 127
1, 382965, Poly_aftertouch_c, 0, 69, 127
1, 383532, Control_c, 0, 67, 41
1, 383547, Control_c, 0, 67, 76
1, 383562, Control_c, 0, 64, 105
1, 383562, Control_c, 0, 67, 125
1, 383577, Control_c, 0, 64, 76
1, 383577, Control_c, 0, 67, 127
1, 383592, Control_c, 0, 64, 59
1, 383606, Control_c, 0, 64, 33
1, 383621, Control_c, 0, 64, 0
1, 386882, Control_c, 0, 67, 0
1, 386893, Note_on_c, 0, 57, 105
1, 386896, Note_on_c, 0, 45, 100
1, 386912, Control_c, 0, 64, 127
1, 386931, Note_off_c, 0, 57, 69
1, 386932, Note_on_c, 0, 48, 52
1, 386936, Note_off_c, 0, 45, 67
1, 386955, Note_on_c, 0, 61, 18
1, 386955, Note_on_c, 0, 69, 26
1, 386965, Note_off_c, 0, 48, 51
1, 387038, Control_c, 0, 64, 96
1, 387053, Control_c, 0, 64, 74
1, 387068, Control_c, 0, 64, 62
1, 387082, Control_c, 0, 64, 49
1, 387097, Control_c, 0, 64, 33
1, 387112, Control_c, 0, 64, 0
1, 387842, Note_on_c, 0, 55, 106
1, 387846, Note_on_c, 0, 43, 97
1, 387861, Control_c, 0, 64, 94
1, 387876, Control_c, 0, 64, 127
1, 387881, Note_off_c, 0, 55, 68
1, 387892, Note_off_c, 0, 43, 64
1, 387894, Note_on_c, 0, 47, 28
1, 387915, Note_off_c, 0, 61, 0
1, 387915, Note_on_c, 0, 61, 10
1, 387936, Note_off_c, 0, 47, 40
1, 388040, Control_c, 0, 64, 91
1, 388055, Control_c, 0, 64, 70
1, 388070, Control_c, 0, 64, 57
1, 388085, Control_c, 0, 64, 42
1, 388100, Control_c, 0, 64, 0
1, 388517, Note_on_c, 0, 52, 102
1, 388520, Note_on_c, 0, 40, 98
1, 388536, Control_c, 0, 64, 78
1, 388551, Note_on_c, 0, 43, 47
1, 388551, Control_c, 0, 64, 127
1, 388567, Note_off_c, 0, 52, 66
1, 388574, Note_off_c, 0, 40, 64
1, 388579, Note_off_c, 0, 43, 56
1, 388759, Control_c, 0, 64, 113
1, 388773, Control_c, 0, 64, 79
1, 388788, Control_c, 0, 64, 61
1, 388803, Control_c, 0, 64, 32
1, 388818, Control_c, 0, 64, 0
1, 389417, Note_on_c, 0, 51, 111
1, 389418, Control_c, 0, 64, 74
1, 389419, Note_on_c, 0, 39, 91
1, 389432, Control_c, 0, 64, 127
1, 389484, Note_off_c, 0, 51, 67
1, 389490, Note_off_c, 0, 39, 64
1, 389501, Note_off_c, 0, 61, 0
1, 389501, Note_on_c, 0, 61, 5
1, 389686, Control_c, 0, 64, 114
1, 389700, Control_c, 0, 64, 73
1, 389715, Control_c, 0, 64, 52
1, 389730, Control_c, 0, 64, 0
1, 390812, Control_c, 0, 64, 28
1, 390827, Control_c, 0, 64, 36
1, 390842, Control_c, 0, 64, 43
1, 390857, Control_c, 0, 64, 50
1, 390872, Control_c, 0, 64, 55
1, 390887, Control_c, 0, 64, 56
1, 390902, Control_c, 0, 64, 57
1, 390917, Control_c, 0, 64, 58
1, 390931, Control_c, 0, 64, 61
1, 390946, Control_c, 0, 64, 65
1, 390961, Control_c, 0, 64, 71
1, 390976, Control_c, 0, 64, 84
1, 390991, Control_c, 0, 64, 127
1, 391012, Note_off_c, 0, 61, 51
1, 391044, Poly_aftertouch_c, 0, 64, 0
1, 391281, Note_on_c, 0, 64, 105
1, 391298, Poly_aftertouch_c, 0, 68, 0
1, 391301, Note_off_c, 0, 69, 48
1, 391317, Note_on_c, 0, 58, 59
1, 391340, Note_off_c, 0, 58, 60
1, 391507, Note_on_c, 0, 63, 68
1, 391507, Note_off_c, 0, 64, 59
1, 391522, Note_on_c, 0, 62, 76
1, 391574, Note_off_c, 0, 62, 64
1, 391584, Note_on_c, 0, 58, 63
1, 391607, Note_on_c, 0, 57, 65
1, 391612, Note_off_c, 0, 63, 48
1, 391620, Note_off_c, 0, 58, 51
1, 391640, Note_off_c, 0, 57, 68
1, 391644, Note_on_c, 0, 52, 77
1, 391684, Note_on_c, 0, 51, 78
1, 391722, Note_on_c, 0, 46, 89
1, 391727, Note_off_c, 0, 52, 65
1, 391758, Note_on_c, 0, 45, 81
1, 391764, Note_off_c, 0, 51, 64
1, 391797, Note_off_c, 0, 46, 64
1, 391815, Note_off_c, 0, 45, 65
1, 391827, Note_on_c, 0, 40, 78
1, 391832, Note_on_c, 0, 38, 90
1, 391871, Note_off_c, 0, 40, 54
1, 391896, Note_on_c, 0, 34, 76
1, 391927, Note_off_c, 0, 38, 62
1, 391931, Note_off_c, 0, 34, 67
1, 391939, Note_on_c, 0, 33, 73
1, 391968, Note_off_c, 0, 33, 64
1, 391970, Note_on_c, 0, 21, 115
1, 391983, Poly_aftertouch_c, 0, 31, 127
1, 391990, Note_off_c, 0, 21, 74
1, 392032, Poly_aftertouch_c, 0, 31, 0
1, 392037, Control_c, 0, 64, 94
1, 392051, Control_c, 0, 64, 61
1, 392066, Control_c, 0, 64, 0
1, 392066, End_track
0, 0, End_of_file
