0, 0, Header, 0, 1, 384
1, 0, Start_track
1, 0, Title_t, "Prel./Chor./Fug.--R. Yanagitani "
1, 0, Text_t, "2006 International Piano-e-Competition Recital Round"
1, 0, Text_t, "St. Paul, Minnesota, July 2006"
1, 0, Text_t, "http://www.piano-e-competition.com/"
1, 0, Instrument_name_t, "Yamaha Disklavier Pro Mark IV concert grand piano"
1, 0, Sequencer_specific, 39, 67, 113, 0, 1, 0, 1, 0, 80, 114, 101, 108, 46, 47, 67, 104, 111, 114, 46, 47, 70, 117, 103, 46, 82, 121, 111, 32, 89, 97, 110, 97, 103, 105, 116, 97, 110, 105, 32, 32
1, 0, Sequencer_specific, 6, 67, 113, 0, 0, 0, 69
1, 0, System_exclusive, 21, 67, 113, 126, 21, 0, 2, 2, 0, 14, 5, 1, 4, 4, 10, 13, 7, 2, 12, 4, 4, 247
1, 0, Sequencer_specific, 5, 67, 123, 12, 2, 1
1, 0, Tempo, 512820
1, 0, Time_signature, 4, 2, 24, 8
1, 0, System_exclusive, 5, 126, 127, 9, 1, 247
1, 1, System_exclusive, 8, 67, 16, 76, 0, 0, 126, 0, 247
1, 2, System_exclusive, 8, 67, 16, 76, 8, 9, 7, 1, 247
1, 3, Control_c, 0, 0, 0
1, 4, Control_c, 0, 32, 0
1, 5, Program_c, 0, 0
1, 6, Control_c, 0, 7, 100
1, 95, Control_c, 0, 67, 15
1, 184, Control_c, 0, 67, 31
1, 273, Control_c, 0, 67, 46
1, 362, Control_c, 0, 67, 63
1, 452, Control_c, 0, 67, 77
1, 541, Control_c, 0, 67, 94
1, 630, Control_c, 0, 67, 108
1, 719, Control_c, 0, 67, 127
1, 913, Control_c, 0, 64, 51
1, 913, Note_on_c, 0, 47, 29
1, 928, Control_c, 0, 64, 54
1, 943, Control_c, 0, 64, 55
1, 958, Control_c, 0, 64, 57
1, 972, Control_c, 0, 64, 58
1, 987, Control_c, 0, 64, 59
1, 1002, Control_c, 0, 64, 60
1, 1018, Control_c, 0, 64, 62
1, 1032, Control_c, 0, 64, 63
1, 1047, Control_c, 0, 64, 64
1, 1062, Control_c, 0, 64, 66
1, 1077, Control_c, 0, 64, 68
1, 1092, Control_c, 0, 64, 71
1, 1098, Note_on_c, 0, 66, 63
1, 1107, Control_c, 0, 64, 74
1, 1122, Control_c, 0, 64, 78
1, 1137, Control_c, 0, 64, 83
1, 1152, Control_c, 0, 64, 87
1, 1167, Control_c, 0, 64, 91
1, 1181, Control_c, 0, 64, 97
1, 1196, Control_c, 0, 64, 104
1, 1211, Control_c, 0, 64, 113
1, 1226, Control_c, 0, 64, 127
1, 1236, Note_off_c, 0, 47, 39
1, 1315, Note_off_c, 0, 66, 62
1, 1360, Note_on_c, 0, 74, 46
1, 1381, Note_on_c, 0, 71, 39
1, 1451, Note_on_c, 0, 66, 53
1, 1537, Note_off_c, 0, 74, 38
1, 1542, Note_on_c, 0, 62, 39
1, 1588, Note_off_c, 0, 71, 56
1, 1608, Note_on_c, 0, 54, 35
1, 1633, Note_off_c, 0, 66, 61
1, 1646, Note_off_c, 0, 54, 60
1, 1648, Note_off_c, 0, 62, 55
1, 1690, Note_on_c, 0, 59, 39
1, 1728, Note_off_c, 0, 59, 58
1, 1741, Note_on_c, 0, 54, 53
1, 1796, Note_off_c, 0, 54, 48
1, 1844, Note_on_c, 0, 47, 46
1, 1880, Note_on_c, 0, 64, 70
1, 1900, Control_c, 0, 64, 102
1, 1915, Control_c, 0, 64, 74
1, 1930, Control_c, 0, 64, 59
1, 1944, Control_c, 0, 64, 45
1, 1959, Control_c, 0, 64, 46
1, 1974, Control_c, 0, 64, 52
1, 1989, Control_c, 0, 64, 58
1, 2004, Control_c, 0, 64, 63
1, 2018, Control_c, 0, 64, 68
1, 2040, Control_c, 0, 64, 74
1, 2055, Control_c, 0, 64, 79
1, 2056, Note_off_c, 0, 64, 60
1, 2070, Control_c, 0, 64, 83
1, 2085, Control_c, 0, 64, 88
1, 2089, Note_on_c, 0, 70, 52
1, 2094, Note_on_c, 0, 73, 46
1, 2096, Note_off_c, 0, 47, 53
1, 2100, Control_c, 0, 64, 94
1, 2115, Control_c, 0, 64, 107
1, 2129, Control_c, 0, 64, 127
1, 2164, Note_on_c, 0, 64, 56
1, 2196, Note_off_c, 0, 73, 59
1, 2212, Note_off_c, 0, 70, 63
1, 2218, Note_on_c, 0, 61, 51
1, 2229, Note_off_c, 0, 64, 64
1, 2252, Note_off_c, 0, 61, 63
1, 2277, Note_on_c, 0, 55, 44
1, 2314, Note_off_c, 0, 55, 62
1, 2335, Note_on_c, 0, 58, 56
1, 2381, Control_c, 0, 67, 116
1, 2383, Note_off_c, 0, 58, 59
1, 2396, Control_c, 0, 67, 101
1, 2410, Control_c, 0, 67, 87
1, 2413, Note_on_c, 0, 55, 54
1, 2425, Control_c, 0, 67, 74
1, 2440, Control_c, 0, 67, 61
1, 2455, Control_c, 0, 67, 43
1, 2465, Note_off_c, 0, 55, 61
1, 2466, Note_on_c, 0, 47, 69
1, 2470, Control_c, 0, 67, 0
1, 2484, Control_c, 0, 64, 92
1, 2499, Control_c, 0, 64, 68
1, 2514, Note_on_c, 0, 67, 80
1, 2514, Control_c, 0, 64, 50
1, 2529, Control_c, 0, 64, 39
1, 2544, Control_c, 0, 64, 45
1, 2559, Control_c, 0, 64, 54
1, 2574, Control_c, 0, 64, 61
1, 2588, Control_c, 0, 64, 68
1, 2603, Control_c, 0, 64, 77
1, 2618, Control_c, 0, 64, 91
1, 2633, Control_c, 0, 64, 112
1, 2648, Control_c, 0, 64, 127
1, 2654, Note_off_c, 0, 47, 58
1, 2659, Note_off_c, 0, 67, 61
1, 2696, Note_on_c, 0, 76, 60
1, 2702, Note_on_c, 0, 73, 52
1, 2763, Note_on_c, 0, 67, 74
1, 2766, Note_off_c, 0, 76, 63
1, 2800, Note_off_c, 0, 73, 62
1, 2824, Note_on_c, 0, 64, 68
1, 2830, Note_off_c, 0, 67, 63
1, 2851, Note_off_c, 0, 64, 68
1, 2890, Note_on_c, 0, 52, 55
1, 2924, Note_off_c, 0, 52, 56
1, 2937, Poly_aftertouch_c, 0, 49, 127
1, 2946, Note_on_c, 0, 58, 72
1, 2970, Poly_aftertouch_c, 0, 49, 0
1, 3004, Note_off_c, 0, 58, 61
1, 3030, Note_on_c, 0, 52, 23
1, 3034, Note_on_c, 0, 49, 61
1, 3062, Note_off_c, 0, 52, 56
1, 3088, Note_on_c, 0, 47, 81
1, 3104, Note_off_c, 0, 49, 62
1, 3114, Control_c, 0, 64, 94
1, 3129, Control_c, 0, 64, 61
1, 3132, Note_on_c, 0, 66, 91
1, 3144, Control_c, 0, 64, 0
1, 3188, Control_c, 0, 64, 35
1, 3203, Control_c, 0, 64, 55
1, 3218, Control_c, 0, 64, 67
1, 3232, Control_c, 0, 64, 77
1, 3247, Control_c, 0, 64, 89
1, 3262, Control_c, 0, 64, 100
1, 3277, Control_c, 0, 64, 127
1, 3286, Note_off_c, 0, 66, 62
1, 3296, Note_on_c, 0, 74, 76
1, 3310, Note_on_c, 0, 71, 65
1, 3315, Note_off_c, 0, 47, 57
1, 3375, Note_on_c, 0, 66, 77
1, 3416, Note_off_c, 0, 74, 58
1, 3435, Note_on_c, 0, 62, 72
1, 3453, Note_off_c, 0, 71, 50
1, 3477, Note_off_c, 0, 62, 60
1, 3496, Note_off_c, 0, 66, 60
1, 3513, Note_on_c, 0, 50, 58
1, 3516, Note_on_c, 0, 54, 61
1, 3560, Note_off_c, 0, 50, 63
1, 3572, Note_off_c, 0, 54, 59
1, 3610, Note_on_c, 0, 59, 74
1, 3672, Note_off_c, 0, 59, 60
1, 3697, Note_on_c, 0, 50, 68
1, 3721, Note_off_c, 0, 50, 67
1, 3883, Note_on_c, 0, 35, 76
1, 4010, Note_on_c, 0, 69, 82
1, 4026, Control_c, 0, 64, 87
1, 4041, Control_c, 0, 64, 65
1, 4056, Control_c, 0, 64, 0
1, 4159, Control_c, 0, 64, 34
1, 4174, Control_c, 0, 64, 51
1, 4189, Control_c, 0, 64, 61
1, 4204, Control_c, 0, 64, 65
1, 4219, Control_c, 0, 64, 69
1, 4219, Control_c, 0, 67, 38
1, 4222, Note_off_c, 0, 35, 62
1, 4234, Control_c, 0, 64, 73
1, 4234, Control_c, 0, 67, 77
1, 4249, Control_c, 0, 64, 78
1, 4249, Control_c, 0, 67, 127
1, 4264, Control_c, 0, 64, 87
1, 4286, Control_c, 0, 64, 97
1, 4301, Control_c, 0, 64, 109
1, 4304, Note_off_c, 0, 69, 58
1, 4308, Note_on_c, 0, 78, 57
1, 4311, Note_on_c, 0, 75, 56
1, 4316, Control_c, 0, 64, 127
1, 4442, Note_on_c, 0, 69, 59
1, 4565, Note_on_c, 0, 66, 61
1, 4589, Note_off_c, 0, 78, 53
1, 4611, Note_off_c, 0, 75, 61
1, 4632, Note_off_c, 0, 69, 60
1, 4679, Note_on_c, 0, 60, 54
1, 4753, Note_off_c, 0, 60, 56
1, 4782, Note_on_c, 0, 59, 51
1, 4842, Note_off_c, 0, 66, 41
1, 4845, Note_off_c, 0, 59, 55
1, 4878, Note_on_c, 0, 60, 56
1, 4916, Note_off_c, 0, 60, 56
1, 4955, Note_on_c, 0, 57, 59
1, 4983, Note_off_c, 0, 57, 66
1, 5015, Note_on_c, 0, 66, 57
1, 5084, Note_off_c, 0, 66, 61
1, 5093, Note_on_c, 0, 75, 68
1, 5120, Note_on_c, 0, 72, 52
1, 5157, Note_on_c, 0, 66, 57
1, 5179, Note_off_c, 0, 75, 60
1, 5214, Note_off_c, 0, 72, 61
1, 5224, Note_on_c, 0, 63, 59
1, 5233, Note_off_c, 0, 66, 62
1, 5255, Note_off_c, 0, 63, 63
1, 5291, Note_on_c, 0, 57, 56
1, 5330, Note_off_c, 0, 57, 62
1, 5376, Note_on_c, 0, 55, 45
1, 5413, Note_off_c, 0, 55, 63
1, 5430, Note_on_c, 0, 57, 57
1, 5500, Note_off_c, 0, 57, 56
1, 5503, Note_on_c, 0, 54, 65
1, 5509, Control_c, 0, 64, 87
1, 5524, Control_c, 0, 64, 65
1, 5539, Control_c, 0, 64, 46
1, 5553, Control_c, 0, 64, 40
1, 5568, Control_c, 0, 64, 44
1, 5572, Note_on_c, 0, 63, 59
1, 5583, Control_c, 0, 64, 55
1, 5598, Control_c, 0, 64, 61
1, 5613, Control_c, 0, 64, 66
1, 5627, Control_c, 0, 64, 71
1, 5633, Note_off_c, 0, 63, 60
1, 5642, Control_c, 0, 64, 75
1, 5652, Note_on_c, 0, 72, 64
1, 5657, Control_c, 0, 64, 78
1, 5660, Note_off_c, 0, 54, 60
1, 5672, Control_c, 0, 64, 80
1, 5676, Note_on_c, 0, 69, 50
1, 5686, Control_c, 0, 64, 84
1, 5701, Control_c, 0, 64, 87
1, 5716, Control_c, 0, 64, 92
1, 5724, Note_off_c, 0, 72, 56
1, 5725, Note_on_c, 0, 63, 65
1, 5731, Control_c, 0, 64, 97
1, 5746, Control_c, 0, 64, 101
1, 5760, Control_c, 0, 64, 105
1, 5761, Note_off_c, 0, 69, 60
1, 5775, Control_c, 0, 64, 111
1, 5798, Control_c, 0, 64, 121
1, 5804, Note_on_c, 0, 60, 63
1, 5810, Note_off_c, 0, 63, 63
1, 5814, Control_c, 0, 64, 127
1, 5841, Note_off_c, 0, 60, 64
1, 5872, Note_on_c, 0, 54, 61
1, 5913, Note_off_c, 0, 54, 62
1, 5941, Note_on_c, 0, 52, 61
1, 5987, Note_off_c, 0, 52, 57
1, 6011, Note_on_c, 0, 54, 60
1, 6051, Control_c, 0, 64, 122
1, 6065, Control_c, 0, 64, 95
1, 6080, Control_c, 0, 64, 74
1, 6087, Note_off_c, 0, 54, 58
1, 6094, Note_on_c, 0, 51, 62
1, 6095, Control_c, 0, 64, 50
1, 6109, Control_c, 0, 64, 0
1, 6169, Note_on_c, 0, 60, 54
1, 6183, Control_c, 0, 64, 34
1, 6198, Control_c, 0, 64, 47
1, 6213, Control_c, 0, 64, 56
1, 6223, Note_off_c, 0, 60, 63
1, 6228, Control_c, 0, 64, 61
1, 6243, Control_c, 0, 64, 63
1, 6252, Note_on_c, 0, 69, 62
1, 6258, Control_c, 0, 64, 64
1, 6260, Note_on_c, 0, 66, 55
1, 6273, Control_c, 0, 64, 66
1, 6288, Control_c, 0, 64, 69
1, 6296, Note_off_c, 0, 51, 60
1, 6302, Control_c, 0, 64, 73
1, 6317, Control_c, 0, 64, 76
1, 6332, Control_c, 0, 64, 79
1, 6342, Note_on_c, 0, 60, 52
1, 6347, Control_c, 0, 64, 83
1, 6362, Control_c, 0, 64, 87
1, 6376, Control_c, 0, 64, 91
1, 6391, Control_c, 0, 64, 96
1, 6399, Note_off_c, 0, 69, 38
1, 6406, Control_c, 0, 64, 101
1, 6411, Note_on_c, 0, 57, 53
1, 6421, Control_c, 0, 64, 107
1, 6436, Control_c, 0, 64, 116
1, 6450, Note_off_c, 0, 57, 61
1, 6450, Control_c, 0, 64, 127
1, 6453, Note_off_c, 0, 66, 60
1, 6480, Note_off_c, 0, 60, 54
1, 6515, Note_on_c, 0, 51, 45
1, 6577, Note_off_c, 0, 51, 55
1, 6619, Note_on_c, 0, 50, 38
1, 6700, Note_off_c, 0, 50, 43
1, 6744, Note_on_c, 0, 51, 43
1, 6949, Note_on_c, 0, 47, 47
1, 6953, Note_off_c, 0, 51, 39
1, 7021, Control_c, 0, 64, 104
1, 7036, Control_c, 0, 64, 85
1, 7048, Note_on_c, 0, 67, 70
1, 7051, Control_c, 0, 64, 69
1, 7066, Control_c, 0, 64, 53
1, 7081, Control_c, 0, 64, 33
1, 7096, Control_c, 0, 64, 0
1, 7140, Control_c, 0, 64, 27
1, 7155, Control_c, 0, 64, 38
1, 7170, Control_c, 0, 64, 51
1, 7185, Control_c, 0, 64, 60
1, 7199, Control_c, 0, 64, 64
1, 7214, Control_c, 0, 64, 66
1, 7229, Control_c, 0, 64, 68
1, 7244, Control_c, 0, 64, 71
1, 7259, Control_c, 0, 64, 74
1, 7280, Control_c, 0, 64, 78
1, 7295, Control_c, 0, 64, 81
1, 7304, Note_off_c, 0, 67, 61
1, 7310, Control_c, 0, 64, 84
1, 7325, Control_c, 0, 64, 88
1, 7336, Note_off_c, 0, 47, 29
1, 7340, Control_c, 0, 64, 92
1, 7355, Control_c, 0, 64, 96
1, 7355, Note_on_c, 0, 74, 50
1, 7360, Note_on_c, 0, 71, 44
1, 7370, Control_c, 0, 64, 99
1, 7385, Control_c, 0, 64, 103
1, 7400, Control_c, 0, 64, 107
1, 7415, Control_c, 0, 64, 113
1, 7429, Control_c, 0, 64, 122
1, 7439, Note_on_c, 0, 67, 54
1, 7444, Control_c, 0, 64, 127
1, 7465, Note_off_c, 0, 74, 56
1, 7487, Note_on_c, 0, 62, 47
1, 7528, Note_off_c, 0, 62, 58
1, 7543, Note_off_c, 0, 67, 57
1, 7544, Note_on_c, 0, 55, 42
1, 7580, Note_off_c, 0, 55, 63
1, 7616, Note_on_c, 0, 59, 56
1, 7629, Note_off_c, 0, 71, 36
1, 7654, Note_off_c, 0, 59, 61
1, 7678, Note_on_c, 0, 55, 56
1, 7745, Note_off_c, 0, 55, 60
1, 7746, Note_on_c, 0, 47, 68
1, 7770, Control_c, 0, 64, 89
1, 7785, Control_c, 0, 64, 65
1, 7792, Note_on_c, 0, 66, 81
1, 7800, Control_c, 0, 64, 40
1, 7815, Control_c, 0, 64, 0
1, 7830, Control_c, 0, 64, 34
1, 7845, Control_c, 0, 64, 49
1, 7845, Control_c, 0, 67, 120
1, 7860, Control_c, 0, 64, 60
1, 7860, Control_c, 0, 67, 97
1, 7874, Control_c, 0, 64, 67
1, 7874, Control_c, 0, 67, 65
1, 7889, Control_c, 0, 64, 75
1, 7889, Control_c, 0, 67, 0
1, 7899, Note_off_c, 0, 47, 57
1, 7904, Control_c, 0, 64, 85
1, 7919, Control_c, 0, 64, 97
1, 7934, Control_c, 0, 64, 127
1, 7945, Note_off_c, 0, 66, 62
1, 7979, Note_on_c, 0, 72, 60
1, 8011, Note_on_c, 0, 69, 46
1, 8044, Note_on_c, 0, 66, 65
1, 8094, Note_off_c, 0, 72, 59
1, 8099, Note_on_c, 0, 63, 61
1, 8134, Note_off_c, 0, 63, 65
1, 8134, Note_off_c, 0, 66, 62
1, 8138, Note_off_c, 0, 69, 60
1, 8153, Note_on_c, 0, 57, 59
1, 8196, Note_off_c, 0, 57, 62
1, 8220, Note_on_c, 0, 60, 61
1, 8264, Note_off_c, 0, 60, 62
1, 8270, Note_on_c, 0, 57, 73
1, 8323, Note_off_c, 0, 57, 63
1, 8347, Note_on_c, 0, 47, 74
1, 8372, Control_c, 0, 64, 98
1, 8386, Control_c, 0, 64, 64
1, 8393, Note_on_c, 0, 69, 87
1, 8401, Control_c, 0, 64, 0
1, 8446, Control_c, 0, 64, 46
1, 8461, Control_c, 0, 64, 63
1, 8476, Control_c, 0, 64, 74
1, 8491, Control_c, 0, 64, 88
1, 8502, Note_off_c, 0, 47, 35
1, 8505, Control_c, 0, 64, 105
1, 8520, Control_c, 0, 64, 127
1, 8546, Note_off_c, 0, 69, 57
1, 8568, Note_on_c, 0, 78, 69
1, 8589, Note_on_c, 0, 72, 62
1, 8638, Note_on_c, 0, 69, 80
1, 8655, Note_off_c, 0, 78, 59
1, 8686, Note_on_c, 0, 66, 76
1, 8687, Note_off_c, 0, 72, 63
1, 8711, Note_off_c, 0, 69, 61
1, 8728, Note_off_c, 0, 66, 58
1, 8736, Note_on_c, 0, 51, 65
1, 8801, Note_off_c, 0, 51, 60
1, 8819, Note_on_c, 0, 60, 71
1, 8894, Note_on_c, 0, 51, 75
1, 8894, Note_off_c, 0, 60, 59
1, 8962, Note_on_c, 0, 47, 85
1, 8962, Note_off_c, 0, 51, 60
1, 8985, Control_c, 0, 64, 75
1, 9001, Control_c, 0, 64, 33
1, 9010, Note_on_c, 0, 67, 94
1, 9016, Control_c, 0, 64, 0
1, 9061, Control_c, 0, 64, 52
1, 9075, Control_c, 0, 64, 65
1, 9090, Control_c, 0, 64, 73
1, 9105, Control_c, 0, 64, 83
1, 9120, Control_c, 0, 64, 94
1, 9135, Control_c, 0, 64, 119
1, 9149, Control_c, 0, 64, 127
1, 9150, Note_on_c, 0, 74, 73
1, 9154, Note_on_c, 0, 79, 65
1, 9158, Note_off_c, 0, 67, 58
1, 9197, Note_off_c, 0, 79, 59
1, 9206, Note_off_c, 0, 47, 54
1, 9207, Note_off_c, 0, 74, 63
1, 9239, Note_on_c, 0, 67, 73
1, 9292, Note_off_c, 0, 67, 61
1, 9307, Note_on_c, 0, 62, 74
1, 9331, Note_off_c, 0, 62, 67
1, 9379, Note_on_c, 0, 50, 68
1, 9428, Note_off_c, 0, 50, 61
1, 9468, Note_on_c, 0, 59, 79
1, 9530, Note_off_c, 0, 59, 63
1, 9558, Note_on_c, 0, 50, 67
1, 9586, Note_off_c, 0, 50, 65
1, 9753, Note_on_c, 0, 35, 73
1, 9869, Control_c, 0, 64, 103
1, 9884, Control_c, 0, 64, 68
1, 9898, Note_on_c, 0, 71, 85
1, 9898, Control_c, 0, 64, 37
1, 9913, Control_c, 0, 64, 0
1, 10017, Control_c, 0, 64, 42
1, 10032, Control_c, 0, 64, 56
1, 10047, Control_c, 0, 64, 64
1, 10062, Control_c, 0, 64, 68
1, 10076, Control_c, 0, 64, 74
1, 10076, Note_off_c, 0, 35, 62
1, 10091, Control_c, 0, 64, 80
1, 10106, Control_c, 0, 64, 89
1, 10121, Control_c, 0, 64, 99
1, 10136, Control_c, 0, 64, 112
1, 10146, Note_off_c, 0, 71, 57
1, 10150, Control_c, 0, 64, 127
1, 10152, Note_on_c, 0, 80, 69
1, 10163, Note_on_c, 0, 77, 63
1, 10210, Control_c, 0, 67, 45
1, 10224, Control_c, 0, 67, 77
1, 10239, Control_c, 0, 67, 109
1, 10254, Control_c, 0, 67, 127
1, 10285, Note_on_c, 0, 71, 71
1, 10389, Note_off_c, 0, 80, 55
1, 10409, Note_on_c, 0, 68, 71
1, 10432, Note_off_c, 0, 71, 59
1, 10434, Note_off_c, 0, 77, 55
1, 10493, Note_on_c, 0, 62, 53
1, 10570, Note_off_c, 0, 62, 60
1, 10591, Note_on_c, 0, 61, 59
1, 10595, Note_off_c, 0, 68, 56
1, 10643, Note_off_c, 0, 61, 53
1, 10677, Note_on_c, 0, 62, 62
1, 10727, Note_off_c, 0, 62, 56
1, 10748, Note_on_c, 0, 59, 67
1, 10796, Note_off_c, 0, 59, 55
1, 10827, Note_on_c, 0, 68, 68
1, 10893, Note_off_c, 0, 68, 58
1, 10905, Note_on_c, 0, 77, 70
1, 10920, Note_on_c, 0, 74, 63
1, 10974, Note_on_c, 0, 68, 65
1, 10985, Note_off_c, 0, 77, 61
1, 11000, Note_off_c, 0, 74, 63
1, 11048, Note_on_c, 0, 65, 64
1, 11050, Note_off_c, 0, 68, 62
1, 11075, Note_off_c, 0, 65, 67
1, 11121, Note_on_c, 0, 59, 63
1, 11157, Note_off_c, 0, 59, 58
1, 11193, Note_on_c, 0, 57, 61
1, 11233, Note_off_c, 0, 57, 63
1, 11254, Note_on_c, 0, 59, 73
1, 11293, Control_c, 0, 64, 92
1, 11307, Control_c, 0, 64, 63
1, 11317, Note_off_c, 0, 59, 60
1, 11322, Control_c, 0, 64, 36
1, 11326, Note_on_c, 0, 56, 70
1, 11337, Control_c, 0, 64, 0
1, 11367, Control_c, 0, 64, 41
1, 11381, Control_c, 0, 64, 54
1, 11396, Control_c, 0, 64, 62
1, 11403, Note_on_c, 0, 65, 55
1, 11412, Control_c, 0, 64, 66
1, 11427, Control_c, 0, 64, 69
1, 11442, Control_c, 0, 64, 72
1, 11454, Note_off_c, 0, 65, 58
1, 11457, Control_c, 0, 64, 75
1, 11471, Control_c, 0, 64, 78
1, 11481, Note_on_c, 0, 74, 69
1, 11482, Note_off_c, 0, 56, 62
1, 11486, Control_c, 0, 64, 82
1, 11497, Note_on_c, 0, 71, 58
1, 11501, Control_c, 0, 64, 86
1, 11516, Control_c, 0, 64, 90
1, 11530, Control_c, 0, 64, 94
1, 11545, Control_c, 0, 64, 98
1, 11547, Note_off_c, 0, 74, 60
1, 11559, Note_on_c, 0, 65, 64
1, 11560, Control_c, 0, 64, 103
1, 11571, Note_off_c, 0, 71, 61
1, 11575, Control_c, 0, 64, 109
1, 11590, Control_c, 0, 64, 116
1, 11600, Note_off_c, 0, 65, 62
1, 11604, Control_c, 0, 64, 127
1, 11609, Note_on_c, 0, 62, 66
1, 11641, Note_off_c, 0, 62, 65
1, 11677, Note_on_c, 0, 56, 62
1, 11714, Note_off_c, 0, 56, 60
1, 11748, Note_on_c, 0, 54, 57
1, 11790, Note_off_c, 0, 54, 61
1, 11814, Note_on_c, 0, 56, 67
1, 11863, Control_c, 0, 64, 101
1, 11878, Control_c, 0, 64, 76
1, 11892, Note_off_c, 0, 56, 58
1, 11893, Control_c, 0, 64, 57
1, 11908, Control_c, 0, 64, 0
1, 11917, Note_on_c, 0, 53, 57
1, 11967, Control_c, 0, 64, 28
1, 11975, Note_on_c, 0, 62, 55
1, 11982, Control_c, 0, 64, 40
1, 11996, Control_c, 0, 64, 50
1, 12011, Control_c, 0, 64, 58
1, 12026, Control_c, 0, 64, 62
1, 12040, Note_off_c, 0, 62, 58
1, 12041, Control_c, 0, 64, 64
1, 12056, Control_c, 0, 64, 66
1, 12071, Control_c, 0, 64, 70
1, 12073, Note_off_c, 0, 53, 61
1, 12075, Note_on_c, 0, 71, 54
1, 12077, Note_on_c, 0, 68, 51
1, 12086, Control_c, 0, 64, 73
1, 12101, Control_c, 0, 64, 76
1, 12115, Control_c, 0, 64, 79
1, 12130, Control_c, 0, 64, 82
1, 12145, Control_c, 0, 64, 86
1, 12160, Control_c, 0, 64, 89
1, 12175, Control_c, 0, 64, 92
1, 12175, Note_on_c, 0, 62, 49
1, 12190, Control_c, 0, 64, 95
1, 12196, Note_off_c, 0, 71, 47
1, 12205, Control_c, 0, 64, 98
1, 12220, Control_c, 0, 64, 101
1, 12235, Control_c, 0, 64, 105
1, 12238, Note_on_c, 0, 59, 51
1, 12250, Control_c, 0, 64, 107
1, 12279, Control_c, 0, 64, 111
1, 12285, Note_off_c, 0, 59, 60
1, 12294, Control_c, 0, 64, 114
1, 12309, Control_c, 0, 64, 118
1, 12310, Note_off_c, 0, 62, 37
1, 12323, Control_c, 0, 64, 122
1, 12329, Note_off_c, 0, 68, 37
1, 12336, Note_on_c, 0, 53, 53
1, 12338, Control_c, 0, 64, 125
1, 12352, Control_c, 0, 64, 127
1, 12421, Note_off_c, 0, 53, 58
1, 12453, Note_on_c, 0, 52, 50
1, 12566, Note_off_c, 0, 52, 50
1, 12568, Note_on_c, 0, 53, 56
1, 12757, Note_on_c, 0, 50, 71
1, 12759, Control_c, 0, 64, 113
1, 12774, Control_c, 0, 64, 98
1, 12789, Control_c, 0, 64, 81
1, 12795, Note_off_c, 0, 53, 57
1, 12804, Control_c, 0, 64, 65
1, 12819, Control_c, 0, 64, 45
1, 12834, Control_c, 0, 64, 0
1, 12878, Control_c, 0, 64, 39
1, 12893, Control_c, 0, 64, 49
1, 12908, Control_c, 0, 64, 57
1, 12923, Control_c, 0, 64, 62
1, 12938, Control_c, 0, 64, 65
1, 12952, Control_c, 0, 64, 68
1, 12967, Control_c, 0, 64, 71
1, 12974, Note_on_c, 0, 56, 52
1, 12982, Control_c, 0, 64, 74
1, 12998, Control_c, 0, 64, 78
1, 13013, Control_c, 0, 64, 81
1, 13028, Control_c, 0, 64, 85
1, 13042, Control_c, 0, 64, 89
1, 13057, Control_c, 0, 64, 92
1, 13069, Note_off_c, 0, 56, 56
1, 13072, Note_on_c, 0, 65, 54
1, 13072, Control_c, 0, 64, 95
1, 13087, Control_c, 0, 64, 97
1, 13101, Control_c, 0, 64, 99
1, 13116, Control_c, 0, 64, 101
1, 13131, Control_c, 0, 64, 104
1, 13146, Control_c, 0, 64, 106
1, 13162, Note_on_c, 0, 70, 53
1, 13175, Control_c, 0, 64, 109
1, 13202, Note_off_c, 0, 65, 59
1, 13248, Note_on_c, 0, 49, 74
1, 13264, Control_c, 0, 64, 105
1, 13287, Control_c, 0, 64, 90
1, 13299, Note_off_c, 0, 70, 37
1, 13300, Note_off_c, 0, 50, 59
1, 13301, Control_c, 0, 64, 73
1, 13316, Control_c, 0, 64, 58
1, 13331, Control_c, 0, 64, 40
1, 13341, Note_on_c, 0, 71, 60
1, 13346, Control_c, 0, 64, 37
1, 13361, Control_c, 0, 64, 46
1, 13375, Control_c, 0, 64, 57
1, 13390, Control_c, 0, 64, 63
1, 13405, Control_c, 0, 64, 68
1, 13420, Control_c, 0, 64, 73
1, 13420, Control_c, 0, 67, 103
1, 13423, Note_off_c, 0, 71, 58
1, 13433, Note_on_c, 0, 65, 60
1, 13435, Control_c, 0, 64, 78
1, 13435, Control_c, 0, 67, 83
1, 13449, Control_c, 0, 64, 85
1, 13449, Control_c, 0, 67, 66
1, 13464, Control_c, 0, 64, 90
1, 13464, Control_c, 0, 67, 51
1, 13479, Control_c, 0, 64, 94
1, 13479, Control_c, 0, 67, 39
1, 13492, Note_on_c, 0, 56, 66
1, 13493, Control_c, 0, 64, 98
1, 13493, Control_c, 0, 67, 0
1, 13496, Note_off_c, 0, 65, 62
1, 13508, Control_c, 0, 64, 101
1, 13522, Note_off_c, 0, 56, 64
1, 13523, Control_c, 0, 64, 104
1, 13570, Note_on_c, 0, 54, 77
1, 13582, Control_c, 0, 64, 98
1, 13597, Control_c, 0, 64, 81
1, 13612, Control_c, 0, 64, 64
1, 13627, Control_c, 0, 64, 43
1, 13642, Control_c, 0, 64, 0
1, 13651, Note_off_c, 0, 49, 58
1, 13653, Note_on_c, 0, 61, 65
1, 13657, Control_c, 0, 64, 27
1, 13671, Control_c, 0, 64, 44
1, 13686, Control_c, 0, 64, 58
1, 13701, Control_c, 0, 64, 65
1, 13716, Control_c, 0, 64, 70
1, 13731, Note_on_c, 0, 70, 68
1, 13731, Control_c, 0, 64, 74
1, 13746, Control_c, 0, 64, 78
1, 13761, Control_c, 0, 64, 82
1, 13761, Note_off_c, 0, 61, 51
1, 13775, Control_c, 0, 64, 87
1, 13791, Control_c, 0, 64, 93
1, 13804, Note_on_c, 0, 75, 69
1, 13806, Control_c, 0, 64, 98
1, 13821, Control_c, 0, 64, 101
1, 13829, Note_off_c, 0, 70, 60
1, 13862, Note_off_c, 0, 75, 58
1, 13870, Note_on_c, 0, 55, 81
1, 13880, Control_c, 0, 64, 90
1, 13895, Control_c, 0, 64, 72
1, 13910, Note_off_c, 0, 54, 62
1, 13910, Control_c, 0, 64, 52
1, 13925, Control_c, 0, 64, 0
1, 13951, Note_on_c, 0, 76, 71
1, 13970, Control_c, 0, 64, 44
1, 13984, Control_c, 0, 64, 59
1, 13999, Control_c, 0, 64, 66
1, 14010, Note_off_c, 0, 76, 55
1, 14014, Control_c, 0, 64, 71
1, 14029, Note_on_c, 0, 70, 69
1, 14036, Control_c, 0, 64, 76
1, 14051, Control_c, 0, 64, 81
1, 14066, Control_c, 0, 64, 87
1, 14080, Control_c, 0, 64, 92
1, 14090, Note_on_c, 0, 61, 67
1, 14095, Control_c, 0, 64, 97
1, 14104, Note_off_c, 0, 70, 58
1, 14110, Control_c, 0, 64, 99
1, 14110, Control_c, 0, 67, 33
1, 14125, Control_c, 0, 67, 34
1, 14139, Control_c, 0, 67, 36
1, 14150, Note_off_c, 0, 61, 61
1, 14154, Control_c, 0, 67, 40
1, 14165, Note_on_c, 0, 56, 81
1, 14169, Control_c, 0, 64, 82
1, 14169, Control_c, 0, 67, 45
1, 14184, Control_c, 0, 64, 62
1, 14184, Control_c, 0, 67, 49
1, 14199, Control_c, 0, 64, 0
1, 14199, Control_c, 0, 67, 52
1, 14214, Control_c, 0, 67, 56
1, 14220, Note_off_c, 0, 55, 58
1, 14229, Control_c, 0, 67, 67
1, 14244, Control_c, 0, 67, 91
1, 14245, Note_on_c, 0, 62, 63
1, 14258, Control_c, 0, 67, 123
1, 14273, Control_c, 0, 64, 32
1, 14273, Control_c, 0, 67, 127
1, 14288, Control_c, 0, 64, 48
1, 14303, Control_c, 0, 64, 60
1, 14318, Control_c, 0, 64, 64
1, 14320, Note_off_c, 0, 62, 61
1, 14332, Control_c, 0, 64, 67
1, 14338, Note_on_c, 0, 71, 59
1, 14347, Control_c, 0, 64, 69
1, 14362, Control_c, 0, 64, 73
1, 14377, Control_c, 0, 64, 77
1, 14391, Control_c, 0, 64, 82
1, 14393, Note_on_c, 0, 77, 67
1, 14405, Note_off_c, 0, 71, 61
1, 14406, Control_c, 0, 64, 86
1, 14421, Control_c, 0, 64, 91
1, 14429, Note_off_c, 0, 77, 63
1, 14436, Control_c, 0, 64, 96
1, 14450, Control_c, 0, 64, 103
1, 14457, Note_on_c, 0, 62, 66
1, 14465, Control_c, 0, 64, 114
1, 14480, Control_c, 0, 64, 127
1, 14491, Note_off_c, 0, 56, 60
1, 14502, Note_off_c, 0, 62, 60
1, 14548, Note_on_c, 0, 80, 73
1, 14613, Note_on_c, 0, 71, 61
1, 14620, Note_off_c, 0, 80, 62
1, 14672, Note_off_c, 0, 71, 63
1, 14679, Note_on_c, 0, 65, 63
1, 14706, Note_off_c, 0, 65, 66
1, 14759, Note_on_c, 0, 65, 61
1, 14786, Note_off_c, 0, 65, 62
1, 14843, Note_on_c, 0, 83, 77
1, 14906, Note_off_c, 0, 83, 42
1, 14915, Note_on_c, 0, 74, 66
1, 14983, Note_off_c, 0, 74, 64
1, 14988, Note_on_c, 0, 68, 70
1, 15010, Note_off_c, 0, 68, 70
1, 15099, Note_on_c, 0, 68, 63
1, 15129, Note_off_c, 0, 68, 58
1, 15193, Note_on_c, 0, 86, 68
1, 15267, Note_off_c, 0, 86, 57
1, 15329, Note_on_c, 0, 77, 56
1, 15394, Note_off_c, 0, 77, 63
1, 15433, Note_on_c, 0, 71, 48
1, 15465, Note_off_c, 0, 71, 64
1, 15651, Note_on_c, 0, 43, 74
1, 15681, Control_c, 0, 64, 122
1, 15695, Control_c, 0, 64, 81
1, 15710, Control_c, 0, 64, 63
1, 15725, Control_c, 0, 64, 42
1, 15740, Control_c, 0, 64, 0
1, 15769, Control_c, 0, 64, 35
1, 15784, Control_c, 0, 64, 50
1, 15799, Control_c, 0, 64, 61
1, 15814, Control_c, 0, 64, 66
1, 15829, Control_c, 0, 64, 72
1, 15843, Control_c, 0, 64, 80
1, 15858, Control_c, 0, 64, 88
1, 15869, Note_on_c, 0, 49, 57
1, 15873, Control_c, 0, 64, 97
1, 15887, Control_c, 0, 64, 107
1, 15887, Control_c, 0, 67, 124
1, 15902, Control_c, 0, 64, 127
1, 15902, Control_c, 0, 67, 106
1, 15917, Control_c, 0, 67, 94
1, 15932, Control_c, 0, 67, 85
1, 15947, Control_c, 0, 67, 78
1, 15954, Note_off_c, 0, 49, 52
1, 15962, Control_c, 0, 67, 71
1, 15963, Note_on_c, 0, 58, 55
1, 15976, Control_c, 0, 67, 62
1, 15991, Control_c, 0, 67, 54
1, 16006, Control_c, 0, 67, 46
1, 16014, Note_on_c, 0, 63, 64
1, 16020, Control_c, 0, 67, 42
1, 16035, Control_c, 0, 67, 39
1, 16047, Note_off_c, 0, 58, 61
1, 16050, Control_c, 0, 67, 38
1, 16087, Note_on_c, 0, 42, 85
1, 16125, Control_c, 0, 64, 103
1, 16140, Control_c, 0, 64, 72
1, 16149, Note_off_c, 0, 43, 60
1, 16155, Control_c, 0, 64, 51
1, 16155, Control_c, 0, 67, 38
1, 16160, Note_off_c, 0, 63, 35
1, 16169, Control_c, 0, 64, 0
1, 16180, Note_on_c, 0, 64, 63
1, 16184, Control_c, 0, 67, 36
1, 16199, Control_c, 0, 64, 36
1, 16199, Control_c, 0, 67, 0
1, 16214, Control_c, 0, 64, 54
1, 16229, Control_c, 0, 64, 62
1, 16244, Control_c, 0, 64, 67
1, 16246, Note_off_c, 0, 64, 63
1, 16266, Control_c, 0, 64, 72
1, 16270, Note_on_c, 0, 58, 65
1, 16281, Control_c, 0, 64, 78
1, 16296, Control_c, 0, 64, 84
1, 16311, Control_c, 0, 64, 90
1, 16325, Control_c, 0, 64, 94
1, 16327, Note_on_c, 0, 49, 69
1, 16338, Note_off_c, 0, 58, 62
1, 16340, Control_c, 0, 64, 97
1, 16355, Control_c, 0, 64, 100
1, 16369, Note_off_c, 0, 49, 61
1, 16421, Note_on_c, 0, 47, 84
1, 16444, Control_c, 0, 64, 93
1, 16459, Control_c, 0, 64, 74
1, 16470, Note_off_c, 0, 42, 59
1, 16474, Control_c, 0, 64, 55
1, 16488, Control_c, 0, 64, 0
1, 16524, Note_on_c, 0, 54, 55
1, 16548, Control_c, 0, 64, 40
1, 16563, Control_c, 0, 64, 53
1, 16578, Control_c, 0, 64, 61
1, 16592, Control_c, 0, 64, 65
1, 16603, Note_on_c, 0, 63, 58
1, 16607, Control_c, 0, 64, 70
1, 16622, Control_c, 0, 64, 73
1, 16629, Note_off_c, 0, 54, 39
1, 16636, Control_c, 0, 64, 76
1, 16651, Control_c, 0, 64, 80
1, 16666, Control_c, 0, 64, 83
1, 16678, Note_on_c, 0, 68, 61
1, 16681, Control_c, 0, 64, 86
1, 16693, Note_off_c, 0, 63, 58
1, 16696, Control_c, 0, 64, 88
1, 16710, Control_c, 0, 64, 89
1, 16739, Note_on_c, 0, 48, 90
1, 16751, Note_off_c, 0, 68, 52
1, 16778, Note_off_c, 0, 47, 62
1, 16784, Control_c, 0, 64, 86
1, 16799, Control_c, 0, 64, 73
1, 16814, Control_c, 0, 64, 52
1, 16829, Control_c, 0, 64, 0
1, 16834, Note_on_c, 0, 69, 59
1, 16888, Control_c, 0, 64, 37
1, 16898, Note_off_c, 0, 69, 58
1, 16903, Control_c, 0, 64, 49
1, 16918, Control_c, 0, 64, 60
1, 16919, Note_on_c, 0, 63, 59
1, 16933, Control_c, 0, 64, 63
1, 16947, Control_c, 0, 64, 65
1, 16962, Control_c, 0, 64, 67
1, 16977, Control_c, 0, 64, 70
1, 16993, Control_c, 0, 64, 73
1, 17008, Control_c, 0, 64, 76
1, 17021, Note_on_c, 0, 54, 58
1, 17028, Note_off_c, 0, 63, 62
1, 17030, Control_c, 0, 64, 79
1, 17045, Control_c, 0, 64, 81
1, 17060, Control_c, 0, 64, 83
1, 17074, Control_c, 0, 64, 85
1, 17089, Control_c, 0, 64, 85
1, 17104, Control_c, 0, 64, 86
1, 17119, Control_c, 0, 64, 87
1, 17175, Note_off_c, 0, 54, 35
1, 17233, Note_on_c, 0, 50, 70
1, 17281, Control_c, 0, 64, 86
1, 17287, Note_off_c, 0, 48, 51
1, 17296, Control_c, 0, 64, 83
1, 17311, Control_c, 0, 64, 73
1, 17326, Control_c, 0, 64, 56
1, 17326, Control_c, 0, 67, 39
1, 17341, Control_c, 0, 64, 0
1, 17341, Control_c, 0, 67, 49
1, 17356, Control_c, 0, 67, 62
1, 17371, Control_c, 0, 67, 75
1, 17386, Control_c, 0, 67, 86
1, 17401, Control_c, 0, 67, 94
1, 17401, Note_on_c, 0, 55, 46
1, 17415, Control_c, 0, 64, 28
1, 17415, Control_c, 0, 67, 97
1, 17430, Control_c, 0, 64, 43
1, 17445, Control_c, 0, 64, 53
1, 17459, Control_c, 0, 64, 60
1, 17459, Control_c, 0, 67, 95
1, 17474, Control_c, 0, 64, 62
1, 17474, Control_c, 0, 67, 94
1, 17489, Control_c, 0, 64, 63
1, 17489, Control_c, 0, 67, 93
1, 17504, Control_c, 0, 64, 65
1, 17504, Control_c, 0, 67, 92
1, 17519, Control_c, 0, 64, 67
1, 17519, Control_c, 0, 67, 90
1, 17533, Control_c, 0, 64, 70
1, 17533, Control_c, 0, 67, 90
1, 17534, Note_on_c, 0, 64, 52
1, 17548, Control_c, 0, 64, 73
1, 17548, Control_c, 0, 67, 89
1, 17560, Note_off_c, 0, 55, 37
1, 17564, Control_c, 0, 64, 77
1, 17564, Control_c, 0, 67, 89
1, 17579, Control_c, 0, 64, 79
1, 17594, Control_c, 0, 64, 82
1, 17594, Control_c, 0, 67, 88
1, 17608, Control_c, 0, 64, 84
1, 17623, Control_c, 0, 64, 85
1, 17632, Note_on_c, 0, 69, 54
1, 17638, Control_c, 0, 64, 87
1, 17638, Control_c, 0, 67, 89
1, 17653, Control_c, 0, 64, 88
1, 17653, Control_c, 0, 67, 89
1, 17659, Note_off_c, 0, 64, 58
1, 17667, Control_c, 0, 64, 89
1, 17682, Control_c, 0, 64, 89
1, 17682, Control_c, 0, 67, 90
1, 17697, Control_c, 0, 67, 90
1, 17705, Note_off_c, 0, 69, 57
1, 17712, Control_c, 0, 67, 91
1, 17727, Control_c, 0, 67, 92
1, 17731, Note_on_c, 0, 49, 57
1, 17764, Control_c, 0, 67, 92
1, 17779, Control_c, 0, 64, 87
1, 17779, Control_c, 0, 67, 93
1, 17794, Control_c, 0, 64, 77
1, 17794, Control_c, 0, 67, 94
1, 17803, Note_off_c, 0, 50, 51
1, 17809, Control_c, 0, 64, 63
1, 17809, Control_c, 0, 67, 95
1, 17824, Control_c, 0, 64, 41
1, 17824, Control_c, 0, 67, 95
1, 17839, Control_c, 0, 64, 0
1, 17849, Note_on_c, 0, 70, 59
1, 17869, Control_c, 0, 64, 31
1, 17883, Control_c, 0, 64, 47
1, 17883, Control_c, 0, 67, 96
1, 17898, Control_c, 0, 64, 59
1, 17913, Control_c, 0, 64, 65
1, 17928, Control_c, 0, 64, 68
1, 17943, Control_c, 0, 64, 72
1, 17958, Control_c, 0, 64, 75
1, 17958, Control_c, 0, 67, 98
1, 17972, Control_c, 0, 64, 79
1, 17987, Note_on_c, 0, 64, 50
1, 17987, Control_c, 0, 64, 84
1, 17988, Note_off_c, 0, 70, 53
1, 18002, Control_c, 0, 64, 89
1, 18002, Control_c, 0, 67, 100
1, 18013, Note_off_c, 0, 49, 59
1, 18017, Control_c, 0, 64, 94
1, 18032, Control_c, 0, 64, 99
1, 18032, Control_c, 0, 67, 103
1, 18046, Control_c, 0, 64, 105
1, 18046, Control_c, 0, 67, 114
1, 18061, Control_c, 0, 64, 114
1, 18061, Control_c, 0, 67, 127
1, 18076, Control_c, 0, 64, 127
1, 18093, Note_off_c, 0, 64, 62
1, 18107, Note_on_c, 0, 55, 53
1, 18169, Note_off_c, 0, 55, 60
1, 18408, Note_on_c, 0, 55, 41
1, 18419, Note_on_c, 0, 42, 41
1, 18461, Control_c, 0, 64, 112
1, 18476, Control_c, 0, 64, 92
1, 18490, Control_c, 0, 64, 75
1, 18512, Control_c, 0, 64, 60
1, 18527, Control_c, 0, 64, 42
1, 18542, Control_c, 0, 64, 0
1, 18587, Control_c, 0, 64, 27
1, 18595, Note_on_c, 0, 64, 38
1, 18602, Control_c, 0, 64, 31
1, 18617, Control_c, 0, 64, 38
1, 18632, Control_c, 0, 64, 47
1, 18647, Control_c, 0, 64, 56
1, 18661, Control_c, 0, 64, 62
1, 18676, Control_c, 0, 64, 64
1, 18691, Control_c, 0, 64, 66
1, 18706, Control_c, 0, 64, 68
1, 18711, Note_on_c, 0, 70, 49
1, 18721, Control_c, 0, 64, 72
1, 18736, Control_c, 0, 64, 75
1, 18743, Note_off_c, 0, 55, 40
1, 18751, Control_c, 0, 64, 78
1, 18757, Note_off_c, 0, 64, 32
1, 18766, Control_c, 0, 64, 80
1, 18781, Control_c, 0, 64, 82
1, 18795, Control_c, 0, 64, 84
1, 18810, Control_c, 0, 64, 85
1, 18825, Control_c, 0, 64, 86
1, 18825, Note_off_c, 0, 70, 60
1, 18837, Note_on_c, 0, 76, 55
1, 18854, Control_c, 0, 64, 87
1, 18943, Control_c, 0, 64, 85
1, 18958, Control_c, 0, 64, 75
1, 18970, Note_on_c, 0, 54, 41
1, 18973, Control_c, 0, 64, 63
1, 18987, Control_c, 0, 64, 43
1, 19002, Control_c, 0, 64, 0
1, 19061, Control_c, 0, 64, 33
1, 19076, Control_c, 0, 64, 43
1, 19091, Control_c, 0, 64, 54
1, 19106, Control_c, 0, 64, 60
1, 19120, Control_c, 0, 64, 63
1, 19132, Note_on_c, 0, 64, 42
1, 19135, Control_c, 0, 64, 64
1, 19150, Control_c, 0, 64, 66
1, 19165, Control_c, 0, 64, 70
1, 19179, Control_c, 0, 64, 73
1, 19194, Control_c, 0, 64, 76
1, 19207, Note_off_c, 0, 42, 51
1, 19209, Control_c, 0, 64, 79
1, 19224, Control_c, 0, 64, 82
1, 19238, Control_c, 0, 64, 85
1, 19261, Control_c, 0, 64, 88
1, 19264, Note_off_c, 0, 54, 55
1, 19276, Control_c, 0, 64, 92
1, 19290, Control_c, 0, 64, 94
1, 19305, Note_off_c, 0, 64, 31
1, 19305, Control_c, 0, 64, 96
1, 19320, Control_c, 0, 64, 98
1, 19323, Note_on_c, 0, 74, 58
1, 19335, Note_on_c, 0, 70, 45
1, 19335, Control_c, 0, 64, 100
1, 19335, Note_off_c, 0, 76, 50
1, 19365, Control_c, 0, 64, 103
1, 19395, Control_c, 0, 64, 105
1, 19440, Control_c, 0, 64, 107
1, 19494, Note_on_c, 0, 73, 55
1, 19529, Note_off_c, 0, 74, 53
1, 19535, Note_off_c, 0, 70, 56
1, 19577, Note_off_c, 0, 73, 62
1, 19712, Note_on_c, 0, 59, 30
1, 19726, Note_on_c, 0, 47, 30
1, 19765, Control_c, 0, 64, 104
1, 19780, Control_c, 0, 64, 100
1, 19795, Control_c, 0, 64, 97
1, 19809, Control_c, 0, 64, 94
1, 19824, Control_c, 0, 64, 89
1, 19839, Control_c, 0, 64, 84
1, 19854, Control_c, 0, 64, 77
1, 19869, Control_c, 0, 64, 69
1, 19884, Control_c, 0, 64, 60
1, 19886, Note_on_c, 0, 66, 53
1, 19899, Control_c, 0, 64, 51
1, 19913, Control_c, 0, 64, 45
1, 19928, Control_c, 0, 64, 40
1, 19943, Control_c, 0, 64, 35
1, 19958, Control_c, 0, 64, 29
1, 19973, Control_c, 0, 64, 0
1, 20054, Control_c, 0, 64, 32
1, 20068, Control_c, 0, 64, 43
1, 20083, Control_c, 0, 64, 54
1, 20098, Control_c, 0, 64, 60
1, 20113, Control_c, 0, 64, 62
1, 20128, Control_c, 0, 64, 64
1, 20137, Note_off_c, 0, 66, 60
1, 20139, Note_on_c, 0, 71, 58
1, 20143, Control_c, 0, 64, 66
1, 20158, Control_c, 0, 64, 68
1, 20171, Note_off_c, 0, 47, 40
1, 20173, Control_c, 0, 64, 71
1, 20188, Control_c, 0, 64, 73
1, 20203, Control_c, 0, 64, 76
1, 20218, Control_c, 0, 64, 78
1, 20225, Note_off_c, 0, 59, 40
1, 20232, Control_c, 0, 64, 81
1, 20247, Control_c, 0, 64, 84
1, 20262, Control_c, 0, 64, 87
1, 20277, Control_c, 0, 64, 90
1, 20292, Control_c, 0, 64, 93
1, 20307, Control_c, 0, 64, 95
1, 20314, Note_on_c, 0, 66, 47
1, 20322, Control_c, 0, 64, 97
1, 20337, Control_c, 0, 64, 99
1, 20366, Control_c, 0, 64, 102
1, 20396, Control_c, 0, 64, 104
1, 20435, Note_on_c, 0, 62, 49
1, 20440, Control_c, 0, 64, 106
1, 20467, Note_off_c, 0, 71, 37
1, 20482, Note_off_c, 0, 66, 40
1, 20492, Note_off_c, 0, 62, 55
1, 20499, Control_c, 0, 64, 108
1, 20534, Note_on_c, 0, 54, 42
1, 20611, Note_off_c, 0, 54, 61
1, 20635, Note_on_c, 0, 58, 53
1, 20692, Note_off_c, 0, 58, 61
1, 20725, Note_on_c, 0, 59, 57
1, 20747, Note_off_c, 0, 59, 62
1, 20818, Control_c, 0, 64, 98
1, 20826, Note_on_c, 0, 59, 67
1, 20833, Control_c, 0, 64, 81
1, 20848, Control_c, 0, 64, 64
1, 20863, Control_c, 0, 64, 45
1, 20878, Control_c, 0, 64, 34
1, 20892, Control_c, 0, 64, 37
1, 20907, Control_c, 0, 64, 50
1, 20922, Control_c, 0, 64, 58
1, 20937, Control_c, 0, 64, 63
1, 20948, Note_on_c, 0, 50, 50
1, 20952, Control_c, 0, 64, 66
1, 20960, Note_off_c, 0, 59, 60
1, 20966, Control_c, 0, 64, 70
1, 20982, Control_c, 0, 64, 73
1, 20997, Control_c, 0, 64, 75
1, 21001, Note_off_c, 0, 50, 61
1, 21012, Control_c, 0, 64, 77
1, 21027, Control_c, 0, 64, 78
1, 21028, Note_on_c, 0, 53, 56
1, 21041, Control_c, 0, 64, 80
1, 21056, Control_c, 0, 64, 81
1, 21069, Note_off_c, 0, 53, 60
1, 21071, Control_c, 0, 64, 82
1, 21086, Control_c, 0, 64, 83
1, 21115, Control_c, 0, 64, 83
1, 21121, Note_on_c, 0, 54, 62
1, 21152, Note_off_c, 0, 54, 65
1, 21160, Control_c, 0, 64, 83
1, 21175, Control_c, 0, 64, 81
1, 21189, Control_c, 0, 64, 73
1, 21204, Control_c, 0, 64, 60
1, 21217, Note_on_c, 0, 54, 64
1, 21219, Control_c, 0, 64, 41
1, 21234, Control_c, 0, 64, 0
1, 21353, Note_on_c, 0, 47, 40
1, 21400, Note_off_c, 0, 54, 55
1, 21418, Note_off_c, 0, 47, 61
1, 21439, Note_on_c, 0, 49, 54
1, 21517, Note_off_c, 0, 49, 61
1, 21543, Note_on_c, 0, 50, 60
1, 21583, Note_off_c, 0, 50, 62
1, 21675, Note_on_c, 0, 50, 51
1, 21785, Note_on_c, 0, 42, 46
1, 21803, Note_off_c, 0, 50, 58
1, 21907, Note_on_c, 0, 46, 51
1, 21929, Note_off_c, 0, 42, 37
1, 22016, Note_off_c, 0, 46, 57
1, 22033, Note_on_c, 0, 47, 51
1, 22082, Note_off_c, 0, 47, 60
1, 22190, Note_on_c, 0, 47, 44
1, 22368, Note_on_c, 0, 38, 47
1, 22444, Note_off_c, 0, 47, 37
1, 22561, Note_on_c, 0, 41, 39
1, 22586, Note_off_c, 0, 38, 36
1, 22812, Note_on_c, 0, 42, 29
1, 22823, Note_off_c, 0, 41, 32
1, 23256, Note_on_c, 0, 35, 21
1, 23292, Note_off_c, 0, 42, 40
1, 23952, Note_off_c, 0, 35, 28
1, 24711, Control_c, 0, 64, 27
1, 24829, Control_c, 0, 64, 0
1, 24918, Control_c, 0, 67, 123
1, 24933, Control_c, 0, 64, 48
1, 24933, Control_c, 0, 67, 78
1, 24948, Control_c, 0, 64, 68
1, 24948, Control_c, 0, 67, 0
1, 24963, Control_c, 0, 64, 92
1, 24978, Control_c, 0, 64, 127
1, 25186, Note_on_c, 0, 90, 95
1, 25193, Note_on_c, 0, 78, 89
1, 25194, Note_on_c, 0, 86, 81
1, 25209, Note_on_c, 0, 74, 80
1, 25276, Note_off_c, 0, 74, 65
1, 25432, Note_off_c, 0, 86, 60
1, 25455, Note_off_c, 0, 90, 60
1, 25537, Note_off_c, 0, 78, 56
1, 25557, Note_on_c, 0, 58, 81
1, 25559, Note_on_c, 0, 66, 86
1, 25640, Note_off_c, 0, 58, 61
1, 25744, Note_on_c, 0, 88, 94
1, 25745, Note_off_c, 0, 66, 58
1, 25756, Note_on_c, 0, 76, 82
1, 25756, Note_on_c, 0, 85, 79
1, 25765, Note_on_c, 0, 73, 73
1, 25842, Note_off_c, 0, 85, 64
1, 25848, Note_off_c, 0, 73, 54
1, 25866, Note_off_c, 0, 76, 57
1, 25883, Note_off_c, 0, 88, 62
1, 25992, Note_on_c, 0, 88, 83
1, 26009, Note_on_c, 0, 76, 65
1, 26010, Note_on_c, 0, 73, 58
1, 26013, Note_on_c, 0, 85, 76
1, 26021, Note_on_c, 0, 66, 61
1, 26026, Note_on_c, 0, 59, 54
1, 26045, Control_c, 0, 64, 77
1, 26060, Control_c, 0, 64, 55
1, 26075, Control_c, 0, 64, 0
1, 26150, Control_c, 0, 64, 35
1, 26164, Control_c, 0, 64, 50
1, 26179, Control_c, 0, 64, 60
1, 26194, Control_c, 0, 64, 65
1, 26209, Control_c, 0, 64, 69
1, 26224, Control_c, 0, 64, 74
1, 26236, Note_off_c, 0, 88, 56
1, 26238, Control_c, 0, 64, 81
1, 26240, Note_off_c, 0, 73, 53
1, 26253, Control_c, 0, 64, 91
1, 26268, Control_c, 0, 64, 104
1, 26278, Note_off_c, 0, 85, 60
1, 26283, Control_c, 0, 64, 127
1, 26299, Note_off_c, 0, 76, 56
1, 26672, Note_on_c, 0, 86, 57
1, 26689, Note_on_c, 0, 74, 40
1, 26691, Note_on_c, 0, 83, 44
1, 26698, Note_on_c, 0, 71, 36
1, 26728, Control_c, 0, 64, 91
1, 26750, Control_c, 0, 64, 71
1, 26765, Control_c, 0, 64, 53
1, 26780, Control_c, 0, 64, 0
1, 26898, Control_c, 0, 64, 32
1, 26913, Control_c, 0, 64, 42
1, 26928, Control_c, 0, 64, 52
1, 26942, Control_c, 0, 64, 58
1, 26957, Control_c, 0, 64, 62
1, 26972, Control_c, 0, 64, 65
1, 26987, Control_c, 0, 64, 68
1, 27002, Control_c, 0, 64, 72
1, 27017, Control_c, 0, 64, 77
1, 27032, Control_c, 0, 64, 85
1, 27047, Control_c, 0, 64, 91
1, 27061, Control_c, 0, 64, 98
1, 27071, Note_off_c, 0, 86, 39
1, 27076, Control_c, 0, 64, 108
1, 27078, Note_off_c, 0, 71, 49
1, 27088, Note_off_c, 0, 74, 35
1, 27091, Control_c, 0, 64, 127
1, 27142, Note_off_c, 0, 66, 57
1, 27146, Note_off_c, 0, 59, 57
1, 27148, Note_off_c, 0, 83, 47
1, 27388, Control_c, 0, 64, 99
1, 27402, Control_c, 0, 64, 70
1, 27417, Control_c, 0, 64, 37
1, 27432, Control_c, 0, 64, 0
1, 27552, Note_on_c, 0, 86, 89
1, 27558, Control_c, 0, 64, 28
1, 27562, Note_on_c, 0, 74, 81
1, 27567, Note_on_c, 0, 78, 79
1, 27568, Note_on_c, 0, 66, 80
1, 27573, Control_c, 0, 64, 50
1, 27588, Control_c, 0, 64, 57
1, 27596, Note_off_c, 0, 66, 67
1, 27602, Control_c, 0, 64, 65
1, 27617, Control_c, 0, 64, 77
1, 27632, Control_c, 0, 64, 117
1, 27647, Control_c, 0, 64, 127
1, 27703, Note_off_c, 0, 86, 63
1, 27706, Note_off_c, 0, 74, 61
1, 27744, Note_off_c, 0, 78, 60
1, 27773, Note_on_c, 0, 46, 80
1, 27778, Note_on_c, 0, 55, 80
1, 27826, Note_off_c, 0, 46, 61
1, 27829, Note_off_c, 0, 55, 63
1, 27956, Note_on_c, 0, 85, 98
1, 27962, Note_on_c, 0, 73, 88
1, 27962, Note_on_c, 0, 76, 81
1, 27973, Note_on_c, 0, 64, 73
1, 28007, Note_off_c, 0, 64, 53
1, 28090, Control_c, 0, 64, 73
1, 28105, Control_c, 0, 64, 36
1, 28111, Note_on_c, 0, 55, 74
1, 28113, Note_on_c, 0, 47, 73
1, 28120, Control_c, 0, 64, 0
1, 28165, Control_c, 0, 64, 52
1, 28180, Control_c, 0, 64, 65
1, 28188, Note_off_c, 0, 76, 59
1, 28195, Control_c, 0, 64, 71
1, 28199, Note_off_c, 0, 47, 60
1, 28210, Control_c, 0, 64, 78
1, 28220, Note_off_c, 0, 85, 58
1, 28224, Control_c, 0, 64, 87
1, 28233, Note_off_c, 0, 73, 59
1, 28239, Control_c, 0, 64, 117
1, 28262, Control_c, 0, 64, 127
1, 28346, Note_on_c, 0, 85, 90
1, 28355, Note_on_c, 0, 73, 81
1, 28356, Note_on_c, 0, 76, 79
1, 28367, Note_on_c, 0, 64, 63
1, 28411, Note_off_c, 0, 64, 60
1, 28415, Note_off_c, 0, 73, 62
1, 28432, Note_off_c, 0, 85, 63
1, 28442, Note_off_c, 0, 76, 60
1, 28817, Poly_aftertouch_c, 0, 47, 127
1, 29181, Note_on_c, 0, 83, 65
1, 29187, Note_on_c, 0, 74, 48
1, 29205, Note_on_c, 0, 62, 33
1, 29206, Note_on_c, 0, 71, 41
1, 29247, Control_c, 0, 64, 116
1, 29262, Control_c, 0, 64, 91
1, 29277, Control_c, 0, 64, 74
1, 29292, Control_c, 0, 64, 62
1, 29307, Control_c, 0, 64, 46
1, 29321, Control_c, 0, 64, 27
1, 29336, Control_c, 0, 64, 0
1, 29426, Control_c, 0, 64, 28
1, 29440, Control_c, 0, 64, 39
1, 29455, Control_c, 0, 64, 49
1, 29470, Control_c, 0, 64, 58
1, 29485, Control_c, 0, 64, 62
1, 29500, Control_c, 0, 64, 64
1, 29514, Control_c, 0, 64, 66
1, 29529, Control_c, 0, 64, 69
1, 29543, Control_c, 0, 64, 73
1, 29558, Control_c, 0, 64, 78
1, 29572, Control_c, 0, 64, 85
1, 29587, Control_c, 0, 64, 94
1, 29602, Control_c, 0, 64, 105
1, 29617, Control_c, 0, 64, 127
1, 29670, Note_off_c, 0, 62, 44
1, 29672, Note_off_c, 0, 71, 35
1, 29762, Note_off_c, 0, 55, 36
1, 29816, Note_off_c, 0, 74, 35
1, 29837, Poly_aftertouch_c, 0, 47, 0
1, 29867, Note_off_c, 0, 83, 50
1, 29995, Control_c, 0, 64, 116
1, 30010, Control_c, 0, 64, 88
1, 30025, Control_c, 0, 64, 71
1, 30040, Control_c, 0, 64, 59
1, 30055, Control_c, 0, 64, 46
1, 30069, Control_c, 0, 64, 39
1, 30084, Control_c, 0, 64, 30
1, 30099, Control_c, 0, 64, 0
1, 30463, Note_on_c, 0, 82, 73
1, 30478, Note_on_c, 0, 70, 55
1, 30481, Note_on_c, 0, 73, 57
1, 30497, Note_on_c, 0, 61, 42
1, 30508, Control_c, 0, 64, 31
1, 30522, Control_c, 0, 64, 36
1, 30537, Control_c, 0, 64, 41
1, 30552, Control_c, 0, 64, 49
1, 30567, Control_c, 0, 64, 57
1, 30582, Control_c, 0, 64, 61
1, 30597, Control_c, 0, 64, 64
1, 30612, Control_c, 0, 64, 66
1, 30627, Control_c, 0, 64, 71
1, 30642, Control_c, 0, 64, 77
1, 30655, Note_off_c, 0, 61, 57
1, 30657, Control_c, 0, 64, 84
1, 30666, Note_off_c, 0, 70, 60
1, 30669, Note_off_c, 0, 82, 57
1, 30672, Note_off_c, 0, 73, 62
1, 30672, Control_c, 0, 64, 92
1, 30686, Control_c, 0, 64, 100
1, 30701, Control_c, 0, 64, 114
1, 30716, Control_c, 0, 64, 127
1, 30838, Note_on_c, 0, 82, 77
1, 30857, Note_on_c, 0, 73, 54
1, 30859, Note_on_c, 0, 70, 48
1, 30865, Note_on_c, 0, 61, 48
1, 30929, Note_off_c, 0, 61, 55
1, 30943, Note_off_c, 0, 73, 51
1, 30943, Note_off_c, 0, 70, 60
1, 30967, Note_off_c, 0, 82, 60
1, 31110, Note_on_c, 0, 83, 84
1, 31116, Control_c, 0, 64, 91
1, 31121, Note_on_c, 0, 74, 73
1, 31124, Note_on_c, 0, 71, 71
1, 31131, Control_c, 0, 64, 67
1, 31143, Note_on_c, 0, 62, 52
1, 31145, Control_c, 0, 64, 50
1, 31160, Control_c, 0, 64, 49
1, 31175, Control_c, 0, 64, 58
1, 31190, Control_c, 0, 64, 66
1, 31195, Note_off_c, 0, 62, 46
1, 31205, Control_c, 0, 64, 80
1, 31219, Control_c, 0, 64, 115
1, 31241, Control_c, 0, 64, 127
1, 31282, Note_off_c, 0, 74, 62
1, 31289, Note_on_c, 0, 47, 63
1, 31291, Note_on_c, 0, 55, 48
1, 31295, Note_off_c, 0, 83, 59
1, 31306, Note_off_c, 0, 71, 56
1, 31330, Note_off_c, 0, 47, 60
1, 31438, Note_on_c, 0, 83, 78
1, 31440, Note_on_c, 0, 74, 74
1, 31446, Note_on_c, 0, 71, 73
1, 31461, Note_on_c, 0, 62, 59
1, 31485, Note_off_c, 0, 83, 61
1, 31488, Note_off_c, 0, 71, 54
1, 31492, Note_off_c, 0, 62, 63
1, 31501, Note_off_c, 0, 74, 60
1, 31563, Note_off_c, 0, 55, 12
1, 31703, Note_on_c, 0, 78, 80
1, 31712, Note_on_c, 0, 66, 72
1, 31714, Note_on_c, 0, 70, 69
1, 31718, Note_on_c, 0, 58, 68
1, 31797, Note_off_c, 0, 58, 57
1, 31799, Note_off_c, 0, 66, 62
1, 31806, Note_off_c, 0, 70, 62
1, 31810, Note_off_c, 0, 78, 57
1, 31918, Note_on_c, 0, 78, 86
1, 31924, Note_on_c, 0, 66, 82
1, 31927, Note_on_c, 0, 58, 71
1, 31929, Note_on_c, 0, 70, 71
1, 32024, Note_off_c, 0, 58, 56
1, 32030, Note_off_c, 0, 66, 62
1, 32034, Note_off_c, 0, 78, 59
1, 32059, Note_off_c, 0, 70, 43
1, 32121, Note_on_c, 0, 79, 85
1, 32124, Note_on_c, 0, 67, 85
1, 32128, Note_on_c, 0, 71, 76
1, 32130, Note_on_c, 0, 59, 74
1, 32198, Note_off_c, 0, 59, 58
1, 32209, Note_off_c, 0, 79, 61
1, 32210, Note_off_c, 0, 71, 54
1, 32212, Note_off_c, 0, 67, 59
1, 32287, Control_c, 0, 64, 82
1, 32302, Control_c, 0, 64, 56
1, 32311, Note_on_c, 0, 79, 86
1, 32314, Note_on_c, 0, 59, 80
1, 32314, Note_on_c, 0, 67, 88
1, 32317, Control_c, 0, 64, 40
1, 32320, Note_on_c, 0, 71, 83
1, 32332, Control_c, 0, 64, 54
1, 32347, Control_c, 0, 64, 66
1, 32362, Control_c, 0, 64, 81
1, 32377, Control_c, 0, 64, 127
1, 32379, Note_off_c, 0, 59, 64
1, 32386, Note_off_c, 0, 79, 63
1, 32394, Note_off_c, 0, 67, 60
1, 32394, Note_off_c, 0, 71, 63
1, 32481, Note_on_c, 0, 78, 96
1, 32484, Note_on_c, 0, 66, 92
1, 32490, Note_on_c, 0, 58, 81
1, 32490, Note_on_c, 0, 70, 82
1, 32544, Note_off_c, 0, 58, 61
1, 32550, Note_off_c, 0, 66, 60
1, 32553, Note_off_c, 0, 78, 57
1, 32556, Note_off_c, 0, 70, 62
1, 32640, Note_on_c, 0, 78, 103
1, 32643, Note_on_c, 0, 66, 93
1, 32651, Note_on_c, 0, 70, 85
1, 32653, Note_on_c, 0, 58, 79
1, 32701, Note_off_c, 0, 66, 60
1, 32707, Note_off_c, 0, 78, 56
1, 32713, Note_off_c, 0, 58, 59
1, 32740, Note_off_c, 0, 70, 51
1, 32798, Control_c, 0, 64, 88
1, 32807, Note_on_c, 0, 79, 94
1, 32809, Note_on_c, 0, 67, 98
1, 32813, Control_c, 0, 64, 57
1, 32814, Note_on_c, 0, 71, 86
1, 32816, Note_on_c, 0, 59, 72
1, 32828, Control_c, 0, 64, 0
1, 32843, Control_c, 0, 64, 35
1, 32853, Note_off_c, 0, 59, 64
1, 32858, Control_c, 0, 64, 59
1, 32872, Control_c, 0, 64, 75
1, 32887, Control_c, 0, 64, 114
1, 32900, Note_on_c, 0, 43, 81
1, 32902, Control_c, 0, 64, 127
1, 32918, Note_off_c, 0, 79, 61
1, 32919, Note_on_c, 0, 52, 68
1, 32921, Note_off_c, 0, 71, 54
1, 32929, Note_off_c, 0, 67, 51
1, 32949, Note_off_c, 0, 43, 59
1, 33000, Note_on_c, 0, 71, 84
1, 33002, Note_on_c, 0, 67, 94
1, 33004, Note_on_c, 0, 79, 91
1, 33010, Note_on_c, 0, 59, 85
1, 33030, Note_off_c, 0, 79, 62
1, 33031, Note_off_c, 0, 71, 64
1, 33035, Note_off_c, 0, 67, 62
1, 33038, Note_off_c, 0, 59, 66
1, 33054, Note_off_c, 0, 52, 55
1, 33094, Poly_aftertouch_c, 0, 50, 127
1, 33167, Poly_aftertouch_c, 0, 50, 0
1, 33191, Note_on_c, 0, 54, 82
1, 33193, Note_on_c, 0, 75, 97
1, 33198, Note_on_c, 0, 63, 90
1, 33199, Note_on_c, 0, 66, 85
1, 33251, Note_off_c, 0, 54, 59
1, 33253, Note_off_c, 0, 63, 56
1, 33262, Note_off_c, 0, 66, 60
1, 33270, Note_off_c, 0, 75, 59
1, 33358, Note_on_c, 0, 63, 95
1, 33359, Note_on_c, 0, 75, 99
1, 33360, Note_on_c, 0, 54, 85
1, 33361, Note_on_c, 0, 66, 89
1, 33434, Note_off_c, 0, 63, 54
1, 33438, Note_off_c, 0, 54, 57
1, 33455, Note_off_c, 0, 75, 60
1, 33457, Note_off_c, 0, 66, 60
1, 33546, Note_on_c, 0, 64, 94
1, 33546, Note_on_c, 0, 67, 88
1, 33547, Note_on_c, 0, 76, 95
1, 33550, Note_on_c, 0, 55, 81
1, 33629, Note_off_c, 0, 67, 59
1, 33641, Note_off_c, 0, 55, 58
1, 33641, Note_off_c, 0, 76, 61
1, 33647, Note_off_c, 0, 64, 56
1, 33800, Control_c, 0, 64, 116
1, 33815, Control_c, 0, 64, 67
1, 33820, Note_on_c, 0, 67, 62
1, 33823, Note_on_c, 0, 76, 92
1, 33825, Note_on_c, 0, 64, 88
1, 33828, Note_on_c, 0, 55, 88
1, 33830, Control_c, 0, 64, 0
1, 33831, Note_on_c, 0, 43, 75
1, 33874, Control_c, 0, 64, 35
1, 33889, Control_c, 0, 64, 58
1, 33904, Control_c, 0, 64, 69
1, 33912, Note_off_c, 0, 76, 62
1, 33918, Control_c, 0, 64, 79
1, 33933, Control_c, 0, 64, 91
1, 33935, Note_off_c, 0, 67, 65
1, 33939, Note_off_c, 0, 55, 58
1, 33948, Control_c, 0, 64, 101
1, 33952, Note_off_c, 0, 64, 62
1, 33962, Control_c, 0, 64, 127
1, 34165, Note_on_c, 0, 72, 89
1, 34171, Note_on_c, 0, 64, 76
1, 34174, Note_on_c, 0, 60, 82
1, 34178, Note_on_c, 0, 52, 75
1, 34193, Note_off_c, 0, 43, 61
1, 34272, Note_off_c, 0, 52, 60
1, 34481, Note_on_c, 0, 41, 90
1, 34488, Control_c, 0, 64, 89
1, 34503, Control_c, 0, 64, 59
1, 34518, Control_c, 0, 64, 0
1, 34564, Control_c, 0, 64, 27
1, 34579, Control_c, 0, 64, 54
1, 34593, Control_c, 0, 64, 65
1, 34598, Note_off_c, 0, 64, 63
1, 34608, Control_c, 0, 64, 71
1, 34623, Control_c, 0, 64, 76
1, 34638, Control_c, 0, 64, 81
1, 34639, Note_off_c, 0, 72, 55
1, 34648, Note_off_c, 0, 60, 60
1, 34653, Control_c, 0, 64, 88
1, 34667, Control_c, 0, 64, 97
1, 34682, Control_c, 0, 64, 114
1, 34697, Control_c, 0, 64, 127
1, 34752, Note_on_c, 0, 71, 94
1, 34757, Note_on_c, 0, 62, 81
1, 34760, Note_on_c, 0, 59, 83
1, 34762, Note_on_c, 0, 50, 74
1, 34795, Note_off_c, 0, 41, 62
1, 34864, Note_off_c, 0, 50, 58
1, 34879, Note_off_c, 0, 62, 58
1, 34901, Note_off_c, 0, 71, 57
1, 34913, Note_off_c, 0, 59, 57
1, 35014, Note_on_c, 0, 71, 94
1, 35021, Note_on_c, 0, 59, 82
1, 35022, Note_on_c, 0, 62, 77
1, 35024, Note_on_c, 0, 42, 78
1, 35024, Note_on_c, 0, 50, 78
1, 35030, Control_c, 0, 64, 105
1, 35045, Control_c, 0, 64, 69
1, 35059, Control_c, 0, 64, 38
1, 35074, Control_c, 0, 64, 0
1, 35164, Control_c, 0, 64, 38
1, 35179, Control_c, 0, 64, 50
1, 35193, Control_c, 0, 64, 62
1, 35208, Control_c, 0, 64, 68
1, 35223, Control_c, 0, 64, 75
1, 35238, Control_c, 0, 64, 85
1, 35253, Control_c, 0, 64, 98
1, 35266, Note_off_c, 0, 71, 56
1, 35267, Control_c, 0, 64, 127
1, 35276, Note_off_c, 0, 59, 55
1, 35322, Note_off_c, 0, 62, 54
1, 35377, Note_off_c, 0, 50, 56
1, 35700, Note_on_c, 0, 70, 75
1, 35711, Note_on_c, 0, 61, 62
1, 35714, Note_on_c, 0, 49, 53
1, 35718, Note_on_c, 0, 58, 57
1, 35779, Control_c, 0, 64, 88
1, 35794, Control_c, 0, 64, 65
1, 35809, Control_c, 0, 64, 27
1, 35823, Control_c, 0, 64, 0
1, 35912, Control_c, 0, 64, 35
1, 35927, Control_c, 0, 64, 49
1, 35942, Control_c, 0, 64, 59
1, 35957, Control_c, 0, 64, 64
1, 35972, Control_c, 0, 64, 67
1, 35987, Control_c, 0, 64, 72
1, 36001, Control_c, 0, 64, 80
1, 36016, Control_c, 0, 64, 96
1, 36031, Control_c, 0, 64, 127
1, 36118, Note_off_c, 0, 70, 58
1, 36127, Note_off_c, 0, 58, 58
1, 36149, Note_off_c, 0, 49, 60
1, 36182, Note_off_c, 0, 42, 58
1, 36218, Note_off_c, 0, 61, 52
1, 36461, Control_c, 0, 64, 105
1, 36476, Control_c, 0, 64, 72
1, 36499, Control_c, 0, 64, 45
1, 36513, Control_c, 0, 64, 0
1, 36792, Note_on_c, 0, 61, 95
1, 36801, Note_on_c, 0, 52, 88
1, 36802, Note_on_c, 0, 42, 94
1, 36802, Note_on_c, 0, 58, 86
1, 36810, Note_on_c, 0, 30, 78
1, 36824, Control_c, 0, 64, 54
1, 36839, Control_c, 0, 64, 61
1, 36854, Control_c, 0, 64, 68
1, 36869, Control_c, 0, 64, 80
1, 36883, Control_c, 0, 64, 114
1, 36898, Control_c, 0, 64, 127
1, 36961, Note_off_c, 0, 52, 58
1, 36964, Note_off_c, 0, 30, 60
1, 37012, Note_off_c, 0, 42, 60
1, 37053, Note_off_c, 0, 58, 60
1, 37053, Note_off_c, 0, 61, 59
1, 37395, Note_on_c, 0, 64, 93
1, 37408, Note_on_c, 0, 54, 75
1, 37411, Note_on_c, 0, 59, 72
1, 37416, Note_on_c, 0, 47, 75
1, 37421, Note_on_c, 0, 35, 72
1, 37456, Control_c, 0, 64, 82
1, 37470, Control_c, 0, 64, 59
1, 37485, Control_c, 0, 64, 0
1, 38022, Note_on_c, 0, 63, 69
1, 38103, Note_off_c, 0, 64, 55
1, 38248, Control_c, 0, 64, 27
1, 38263, Control_c, 0, 64, 35
1, 38278, Control_c, 0, 64, 45
1, 38292, Control_c, 0, 64, 54
1, 38307, Control_c, 0, 64, 59
1, 38322, Control_c, 0, 64, 61
1, 38336, Control_c, 0, 64, 62
1, 38351, Control_c, 0, 64, 65
1, 38366, Control_c, 0, 64, 70
1, 38381, Control_c, 0, 64, 76
1, 38396, Control_c, 0, 64, 84
1, 38410, Control_c, 0, 64, 91
1, 38425, Control_c, 0, 64, 99
1, 38440, Control_c, 0, 64, 113
1, 38455, Control_c, 0, 64, 127
1, 38495, Note_off_c, 0, 47, 58
1, 38510, Note_off_c, 0, 54, 56
1, 38580, Note_off_c, 0, 35, 56
1, 38632, Note_off_c, 0, 59, 34
1, 38657, Note_off_c, 0, 63, 38
1, 38789, Control_c, 0, 64, 99
1, 38804, Control_c, 0, 64, 80
1, 38819, Control_c, 0, 64, 65
1, 38833, Control_c, 0, 64, 49
1, 38848, Control_c, 0, 64, 29
1, 38863, Control_c, 0, 64, 0
1, 39078, Note_on_c, 0, 59, 94
1, 39087, Note_on_c, 0, 56, 88
1, 39088, Note_on_c, 0, 53, 86
1, 39092, Note_on_c, 0, 50, 93
1, 39095, Note_on_c, 0, 38, 84
1, 39115, Control_c, 0, 64, 56
1, 39130, Control_c, 0, 64, 71
1, 39145, Control_c, 0, 64, 84
1, 39159, Control_c, 0, 64, 114
1, 39174, Control_c, 0, 64, 127
1, 39176, Note_off_c, 0, 50, 62
1, 39179, Note_off_c, 0, 38, 61
1, 39219, Note_off_c, 0, 53, 60
1, 39264, Note_off_c, 0, 59, 58
1, 39274, Note_off_c, 0, 56, 55
1, 39644, Note_on_c, 0, 62, 88
1, 39652, Note_on_c, 0, 52, 79
1, 39653, Note_on_c, 0, 58, 82
1, 39656, Note_on_c, 0, 54, 76
1, 39666, Note_on_c, 0, 42, 69
1, 39701, Control_c, 0, 64, 85
1, 39716, Control_c, 0, 64, 62
1, 39731, Control_c, 0, 64, 28
1, 39745, Control_c, 0, 64, 0
1, 40292, Note_on_c, 0, 61, 70
1, 40398, Note_off_c, 0, 62, 57
1, 41105, Note_off_c, 0, 52, 38
1, 41105, Note_off_c, 0, 54, 62
1, 41135, Note_off_c, 0, 61, 61
1, 41145, Note_off_c, 0, 42, 59
1, 41157, Note_off_c, 0, 58, 59
1, 41570, Note_on_c, 0, 61, 97
1, 41576, Note_on_c, 0, 52, 92
1, 41579, Note_on_c, 0, 58, 92
1, 41580, Note_on_c, 0, 42, 96
1, 41583, Note_on_c, 0, 30, 79
1, 41583, Control_c, 0, 64, 47
1, 41598, Control_c, 0, 64, 74
1, 41613, Control_c, 0, 64, 101
1, 41627, Control_c, 0, 64, 127
1, 41710, Note_off_c, 0, 52, 56
1, 41778, Note_off_c, 0, 30, 60
1, 41815, Note_off_c, 0, 61, 58
1, 41817, Note_off_c, 0, 42, 59
1, 41817, Note_off_c, 0, 58, 59
1, 42382, Note_on_c, 0, 64, 92
1, 42387, Note_on_c, 0, 55, 85
1, 42387, Note_on_c, 0, 59, 82
1, 42392, Note_on_c, 0, 47, 89
1, 42396, Note_on_c, 0, 35, 87
1, 42450, Control_c, 0, 64, 89
1, 42465, Control_c, 0, 64, 66
1, 42488, Control_c, 0, 64, 43
1, 42502, Control_c, 0, 64, 0
1, 42843, Note_on_c, 0, 63, 85
1, 42877, Note_off_c, 0, 64, 62
1, 43175, Note_on_c, 0, 62, 74
1, 43203, Note_off_c, 0, 63, 60
1, 43489, Control_c, 0, 64, 36
1, 43504, Control_c, 0, 64, 46
1, 43519, Control_c, 0, 64, 53
1, 43534, Control_c, 0, 64, 56
1, 43548, Control_c, 0, 64, 58
1, 43563, Control_c, 0, 64, 61
1, 43578, Control_c, 0, 64, 64
1, 43593, Control_c, 0, 64, 67
1, 43608, Control_c, 0, 64, 71
1, 43622, Control_c, 0, 64, 77
1, 43637, Control_c, 0, 64, 83
1, 43644, Note_off_c, 0, 55, 36
1, 43652, Control_c, 0, 64, 93
1, 43666, Control_c, 0, 64, 111
1, 43681, Control_c, 0, 64, 127
1, 43862, Note_off_c, 0, 59, 53
1, 43931, Note_off_c, 0, 62, 58
1, 43958, Note_off_c, 0, 47, 47
1, 44003, Note_off_c, 0, 35, 50
1, 44149, Control_c, 0, 64, 97
1, 44164, Control_c, 0, 64, 80
1, 44178, Control_c, 0, 64, 64
1, 44193, Control_c, 0, 64, 46
1, 44208, Control_c, 0, 64, 0
1, 44604, Note_on_c, 0, 59, 92
1, 44609, Note_on_c, 0, 53, 87
1, 44609, Note_on_c, 0, 56, 87
1, 44615, Note_on_c, 0, 50, 95
1, 44617, Note_on_c, 0, 38, 87
1, 44637, Control_c, 0, 64, 31
1, 44652, Control_c, 0, 64, 39
1, 44667, Control_c, 0, 64, 45
1, 44682, Control_c, 0, 64, 60
1, 44697, Control_c, 0, 64, 68
1, 44719, Control_c, 0, 64, 77
1, 44734, Control_c, 0, 64, 90
1, 44749, Control_c, 0, 64, 107
1, 44764, Control_c, 0, 64, 127
1, 44923, Note_off_c, 0, 50, 59
1, 44932, Note_off_c, 0, 53, 59
1, 44965, Note_off_c, 0, 38, 57
1, 44980, Note_off_c, 0, 56, 57
1, 45025, Note_off_c, 0, 59, 60
1, 45612, Note_on_c, 0, 62, 89
1, 45620, Note_on_c, 0, 52, 82
1, 45623, Note_on_c, 0, 58, 85
1, 45624, Note_on_c, 0, 54, 80
1, 45633, Note_on_c, 0, 42, 73
1, 45675, Control_c, 0, 64, 91
1, 45690, Control_c, 0, 64, 68
1, 45705, Control_c, 0, 64, 43
1, 45719, Control_c, 0, 64, 0
1, 46119, Note_on_c, 0, 60, 77
1, 46201, Note_off_c, 0, 62, 59
1, 46833, Note_on_c, 0, 61, 64
1, 46894, Note_off_c, 0, 60, 58
1, 48536, Note_off_c, 0, 52, 53
1, 48539, Note_off_c, 0, 54, 56
1, 48565, Note_off_c, 0, 61, 53
1, 48578, Note_off_c, 0, 42, 39
1, 48589, Note_off_c, 0, 58, 53
1, 49820, Note_on_c, 0, 35, 40
1, 50125, Control_c, 0, 64, 28
1, 50140, Control_c, 0, 64, 30
1, 50155, Control_c, 0, 64, 33
1, 50170, Control_c, 0, 64, 35
1, 50184, Control_c, 0, 64, 37
1, 50199, Control_c, 0, 64, 39
1, 50214, Control_c, 0, 64, 42
1, 50229, Control_c, 0, 64, 44
1, 50243, Control_c, 0, 64, 46
1, 50258, Control_c, 0, 64, 48
1, 50273, Control_c, 0, 64, 50
1, 50288, Control_c, 0, 64, 50
1, 50303, Control_c, 0, 64, 51
1, 50332, Control_c, 0, 64, 52
1, 50347, Control_c, 0, 64, 52
1, 50362, Control_c, 0, 64, 53
1, 50377, Control_c, 0, 64, 53
1, 50391, Control_c, 0, 64, 54
1, 50406, Control_c, 0, 64, 54
1, 50421, Control_c, 0, 64, 55
1, 50435, Control_c, 0, 64, 55
1, 50449, Note_on_c, 0, 42, 41
1, 50450, Control_c, 0, 64, 56
1, 50465, Control_c, 0, 64, 57
1, 50480, Control_c, 0, 64, 57
1, 50495, Control_c, 0, 64, 58
1, 50509, Control_c, 0, 64, 58
1, 50524, Control_c, 0, 64, 59
1, 50540, Control_c, 0, 64, 60
1, 50555, Control_c, 0, 64, 61
1, 50570, Control_c, 0, 64, 62
1, 50585, Control_c, 0, 64, 62
1, 50600, Control_c, 0, 64, 64
1, 50614, Control_c, 0, 64, 66
1, 50629, Control_c, 0, 64, 68
1, 50644, Control_c, 0, 64, 70
1, 50659, Control_c, 0, 64, 72
1, 50673, Control_c, 0, 64, 75
1, 50688, Control_c, 0, 64, 79
1, 50703, Control_c, 0, 64, 85
1, 50726, Control_c, 0, 64, 90
1, 50740, Control_c, 0, 64, 98
1, 50755, Control_c, 0, 64, 107
1, 50770, Control_c, 0, 64, 127
1, 50978, Note_on_c, 0, 47, 44
1, 51060, Note_off_c, 0, 35, 32
1, 51082, Note_off_c, 0, 42, 58
1, 51258, Control_c, 0, 67, 38
1, 51273, Control_c, 0, 67, 58
1, 51288, Control_c, 0, 67, 82
1, 51303, Control_c, 0, 67, 105
1, 51318, Control_c, 0, 67, 125
1, 51334, Control_c, 0, 67, 127
1, 51484, Note_on_c, 0, 62, 51
1, 51484, Note_on_c, 0, 59, 43
1, 51735, Note_on_c, 0, 66, 69
1, 51751, Note_on_c, 0, 54, 39
1, 52012, Note_on_c, 0, 67, 72
1, 52029, Note_on_c, 0, 55, 40
1, 52084, Note_off_c, 0, 54, 30
1, 52262, Note_off_c, 0, 47, 37
1, 52274, Note_on_c, 0, 69, 69
1, 52289, Note_on_c, 0, 57, 46
1, 52318, Note_off_c, 0, 66, 16
1, 52325, Note_off_c, 0, 62, 61
1, 52335, Note_off_c, 0, 59, 60
1, 52337, Note_off_c, 0, 55, 53
1, 52352, Note_off_c, 0, 67, 60
1, 52706, Note_on_c, 0, 67, 57
1, 52714, Note_on_c, 0, 62, 38
1, 52717, Note_on_c, 0, 59, 33
1, 52722, Note_on_c, 0, 55, 36
1, 52724, Note_on_c, 0, 50, 36
1, 52741, Control_c, 0, 64, 98
1, 52756, Control_c, 0, 64, 81
1, 52757, Note_off_c, 0, 57, 54
1, 52771, Control_c, 0, 64, 66
1, 52775, Note_off_c, 0, 69, 55
1, 52785, Control_c, 0, 64, 49
1, 52800, Control_c, 0, 64, 0
1, 52934, Control_c, 0, 64, 32
1, 52957, Control_c, 0, 64, 39
1, 52972, Control_c, 0, 64, 45
1, 52987, Control_c, 0, 64, 51
1, 53002, Control_c, 0, 64, 56
1, 53016, Control_c, 0, 64, 59
1, 53031, Control_c, 0, 64, 60
1, 53046, Control_c, 0, 64, 62
1, 53060, Control_c, 0, 64, 64
1, 53075, Control_c, 0, 64, 66
1, 53090, Control_c, 0, 64, 68
1, 53105, Control_c, 0, 64, 70
1, 53120, Control_c, 0, 64, 72
1, 53134, Control_c, 0, 64, 74
1, 53149, Control_c, 0, 64, 77
1, 53164, Control_c, 0, 64, 80
1, 53179, Control_c, 0, 64, 83
1, 53194, Control_c, 0, 64, 85
1, 53208, Control_c, 0, 64, 87
1, 53223, Control_c, 0, 64, 90
1, 53238, Control_c, 0, 64, 91
1, 53253, Control_c, 0, 64, 93
1, 53267, Control_c, 0, 64, 94
1, 53282, Control_c, 0, 64, 95
1, 53297, Control_c, 0, 64, 96
1, 53373, Note_on_c, 0, 66, 49
1, 53389, Note_on_c, 0, 54, 31
1, 53431, Control_c, 0, 64, 93
1, 53440, Note_off_c, 0, 67, 35
1, 53446, Control_c, 0, 64, 87
1, 53460, Control_c, 0, 64, 76
1, 53471, Note_off_c, 0, 55, 39
1, 53475, Control_c, 0, 64, 65
1, 53490, Control_c, 0, 64, 52
1, 53505, Control_c, 0, 64, 37
1, 53520, Control_c, 0, 64, 29
1, 53549, Control_c, 0, 64, 32
1, 53564, Control_c, 0, 64, 35
1, 53578, Control_c, 0, 64, 40
1, 53593, Control_c, 0, 64, 47
1, 53608, Control_c, 0, 64, 54
1, 53623, Control_c, 0, 64, 59
1, 53638, Control_c, 0, 64, 61
1, 53652, Control_c, 0, 64, 63
1, 53667, Control_c, 0, 64, 65
1, 53682, Control_c, 0, 64, 67
1, 53697, Control_c, 0, 64, 68
1, 53720, Control_c, 0, 64, 70
1, 53729, Note_off_c, 0, 59, 43
1, 53731, Note_off_c, 0, 62, 36
1, 53735, Control_c, 0, 64, 72
1, 53750, Control_c, 0, 64, 74
1, 53765, Control_c, 0, 64, 76
1, 53780, Control_c, 0, 64, 78
1, 53794, Control_c, 0, 64, 80
1, 53809, Control_c, 0, 64, 82
1, 53824, Control_c, 0, 64, 84
1, 53839, Control_c, 0, 64, 86
1, 53854, Control_c, 0, 64, 88
1, 53869, Control_c, 0, 64, 90
1, 53883, Control_c, 0, 64, 92
1, 53898, Control_c, 0, 64, 94
1, 53913, Control_c, 0, 64, 96
1, 53920, Note_off_c, 0, 50, 39
1, 53920, Note_off_c, 0, 66, 55
1, 53928, Control_c, 0, 64, 99
1, 53942, Note_on_c, 0, 47, 37
1, 53943, Control_c, 0, 64, 101
1, 53947, Note_on_c, 0, 59, 30
1, 53955, Note_on_c, 0, 62, 37
1, 53957, Control_c, 0, 64, 103
1, 53971, Note_off_c, 0, 54, 40
1, 53972, Control_c, 0, 64, 107
1, 53987, Control_c, 0, 64, 111
1, 54002, Control_c, 0, 64, 115
1, 54016, Control_c, 0, 64, 121
1, 54031, Control_c, 0, 64, 127
1, 54179, Note_on_c, 0, 66, 70
1, 54196, Note_on_c, 0, 54, 43
1, 54400, Control_c, 0, 67, 124
1, 54403, Note_on_c, 0, 67, 74
1, 54426, Note_on_c, 0, 55, 51
1, 54490, Note_off_c, 0, 54, 36
1, 54490, Note_off_c, 0, 66, 60
1, 54497, Control_c, 0, 67, 122
1, 54584, Note_off_c, 0, 47, 36
1, 54617, Control_c, 0, 67, 124
1, 54617, Note_off_c, 0, 59, 41
1, 54643, Note_off_c, 0, 62, 0
1, 54661, Control_c, 0, 67, 127
1, 54670, Note_on_c, 0, 69, 74
1, 54677, Note_on_c, 0, 57, 50
1, 54680, Poly_aftertouch_c, 0, 62, 127
1, 54708, Note_off_c, 0, 55, 51
1, 54724, Note_off_c, 0, 67, 59
1, 54728, Poly_aftertouch_c, 0, 62, 0
1, 55032, Note_on_c, 0, 67, 71
1, 55036, Note_on_c, 0, 59, 46
1, 55038, Note_on_c, 0, 62, 52
1, 55051, Note_on_c, 0, 50, 43
1, 55058, Note_on_c, 0, 55, 49
1, 55076, Control_c, 0, 64, 100
1, 55076, Note_off_c, 0, 69, 60
1, 55084, Note_off_c, 0, 57, 58
1, 55091, Control_c, 0, 64, 77
1, 55105, Control_c, 0, 64, 62
1, 55120, Control_c, 0, 64, 44
1, 55135, Control_c, 0, 64, 0
1, 55194, Control_c, 0, 64, 29
1, 55216, Control_c, 0, 64, 38
1, 55231, Control_c, 0, 64, 47
1, 55246, Control_c, 0, 64, 55
1, 55261, Control_c, 0, 64, 59
1, 55276, Control_c, 0, 64, 62
1, 55291, Control_c, 0, 64, 63
1, 55305, Control_c, 0, 64, 65
1, 55320, Control_c, 0, 64, 67
1, 55336, Control_c, 0, 64, 69
1, 55350, Control_c, 0, 64, 72
1, 55365, Control_c, 0, 64, 75
1, 55380, Control_c, 0, 64, 78
1, 55384, Note_off_c, 0, 67, 55
1, 55395, Control_c, 0, 64, 82
1, 55410, Control_c, 0, 64, 86
1, 55425, Control_c, 0, 64, 90
1, 55440, Control_c, 0, 64, 95
1, 55454, Control_c, 0, 64, 99
1, 55456, Note_off_c, 0, 55, 46
1, 55469, Control_c, 0, 64, 104
1, 55484, Control_c, 0, 64, 110
1, 55499, Control_c, 0, 64, 117
1, 55514, Control_c, 0, 64, 127
1, 55747, Note_on_c, 0, 66, 55
1, 55765, Note_on_c, 0, 54, 41
1, 55805, Note_off_c, 0, 54, 59
1, 55815, Note_off_c, 0, 66, 62
1, 55928, Control_c, 0, 64, 111
1, 55935, Note_on_c, 0, 54, 34
1, 55938, Note_on_c, 0, 66, 46
1, 55943, Control_c, 0, 64, 88
1, 55965, Control_c, 0, 64, 71
1, 55979, Control_c, 0, 64, 58
1, 55994, Control_c, 0, 64, 42
1, 56009, Control_c, 0, 64, 29
1, 56024, Control_c, 0, 64, 0
1, 56069, Control_c, 0, 64, 27
1, 56084, Control_c, 0, 64, 32
1, 56099, Control_c, 0, 64, 39
1, 56114, Control_c, 0, 64, 48
1, 56129, Control_c, 0, 64, 54
1, 56144, Control_c, 0, 64, 57
1, 56158, Control_c, 0, 64, 59
1, 56173, Control_c, 0, 64, 61
1, 56188, Control_c, 0, 64, 63
1, 56203, Control_c, 0, 64, 65
1, 56218, Control_c, 0, 64, 67
1, 56233, Control_c, 0, 64, 70
1, 56248, Control_c, 0, 64, 72
1, 56263, Control_c, 0, 64, 75
1, 56277, Control_c, 0, 64, 78
1, 56292, Control_c, 0, 64, 81
1, 56307, Control_c, 0, 64, 84
1, 56322, Control_c, 0, 64, 89
1, 56332, Note_off_c, 0, 62, 48
1, 56337, Control_c, 0, 64, 92
1, 56351, Control_c, 0, 64, 96
1, 56357, Note_off_c, 0, 59, 37
1, 56366, Control_c, 0, 64, 99
1, 56381, Control_c, 0, 64, 103
1, 56396, Control_c, 0, 64, 106
1, 56410, Control_c, 0, 64, 109
1, 56425, Control_c, 0, 64, 111
1, 56455, Control_c, 0, 64, 114
1, 56500, Control_c, 0, 64, 116
1, 56582, Note_on_c, 0, 47, 31
1, 56600, Note_off_c, 0, 50, 32
1, 56615, Note_on_c, 0, 59, 29
1, 56617, Note_off_c, 0, 66, 37
1, 56624, Note_on_c, 0, 62, 34
1, 56628, Note_off_c, 0, 54, 23
1, 56774, Control_c, 0, 64, 119
1, 56789, Control_c, 0, 64, 122
1, 56803, Control_c, 0, 64, 125
1, 56818, Control_c, 0, 64, 127
1, 56960, Note_on_c, 0, 66, 71
1, 56969, Note_on_c, 0, 54, 36
1, 56982, Control_c, 0, 67, 121
1, 56997, Control_c, 0, 67, 108
1, 57012, Control_c, 0, 67, 94
1, 57026, Control_c, 0, 67, 81
1, 57041, Control_c, 0, 67, 65
1, 57056, Control_c, 0, 67, 47
1, 57071, Control_c, 0, 67, 0
1, 57202, Note_on_c, 0, 56, 56
1, 57202, Note_on_c, 0, 68, 75
1, 57258, Note_off_c, 0, 47, 31
1, 57409, Note_on_c, 0, 69, 83
1, 57418, Note_on_c, 0, 57, 58
1, 57460, Note_off_c, 0, 66, 58
1, 57480, Note_off_c, 0, 56, 56
1, 57491, Note_off_c, 0, 54, 38
1, 57498, Note_off_c, 0, 68, 58
1, 57517, Note_off_c, 0, 62, 39
1, 57532, Note_off_c, 0, 57, 58
1, 57550, Note_off_c, 0, 59, 44
1, 57551, Note_off_c, 0, 69, 59
1, 57690, Note_on_c, 0, 69, 56
1, 57691, Note_on_c, 0, 57, 48
1, 57699, Note_on_c, 0, 62, 42
1, 57702, Note_on_c, 0, 53, 43
1, 57704, Note_on_c, 0, 59, 42
1, 57715, Control_c, 0, 64, 96
1, 57731, Control_c, 0, 64, 72
1, 57746, Control_c, 0, 64, 53
1, 57761, Control_c, 0, 64, 33
1, 57776, Control_c, 0, 64, 0
1, 57805, Control_c, 0, 64, 29
1, 57820, Control_c, 0, 64, 38
1, 57835, Control_c, 0, 64, 48
1, 57849, Control_c, 0, 64, 56
1, 57864, Control_c, 0, 64, 59
1, 57879, Control_c, 0, 64, 62
1, 57894, Control_c, 0, 64, 63
1, 57909, Control_c, 0, 64, 65
1, 57923, Control_c, 0, 64, 67
1, 57938, Control_c, 0, 64, 70
1, 57953, Control_c, 0, 64, 73
1, 57968, Control_c, 0, 64, 75
1, 57983, Control_c, 0, 64, 78
1, 57998, Control_c, 0, 64, 80
1, 58012, Control_c, 0, 64, 83
1, 58027, Control_c, 0, 64, 86
1, 58042, Control_c, 0, 64, 89
1, 58057, Control_c, 0, 64, 91
1, 58072, Control_c, 0, 64, 92
1, 58087, Control_c, 0, 64, 94
1, 58102, Control_c, 0, 64, 95
1, 58117, Control_c, 0, 64, 97
1, 58131, Control_c, 0, 64, 99
1, 58161, Control_c, 0, 64, 102
1, 58175, Control_c, 0, 64, 104
1, 58190, Control_c, 0, 64, 106
1, 58212, Control_c, 0, 64, 108
1, 58215, Note_on_c, 0, 68, 61
1, 58227, Control_c, 0, 64, 111
1, 58236, Note_on_c, 0, 56, 45
1, 58242, Control_c, 0, 64, 114
1, 58257, Control_c, 0, 64, 127
1, 58268, Note_off_c, 0, 62, 62
1, 58276, Note_off_c, 0, 69, 61
1, 58345, Note_off_c, 0, 59, 45
1, 58373, Note_off_c, 0, 57, 42
1, 58447, Note_off_c, 0, 56, 55
1, 58468, Note_off_c, 0, 53, 36
1, 58617, Note_off_c, 0, 68, 61
1, 58631, Note_on_c, 0, 65, 64
1, 58634, Note_on_c, 0, 50, 59
1, 58640, Note_on_c, 0, 62, 59
1, 58761, Control_c, 0, 64, 118
1, 58776, Control_c, 0, 64, 110
1, 58790, Control_c, 0, 64, 105
1, 58805, Control_c, 0, 64, 100
1, 58820, Control_c, 0, 64, 95
1, 58835, Control_c, 0, 64, 90
1, 58850, Control_c, 0, 64, 85
1, 58850, Note_on_c, 0, 69, 83
1, 58865, Note_on_c, 0, 57, 63
1, 58865, Control_c, 0, 64, 79
1, 58879, Control_c, 0, 64, 73
1, 58894, Control_c, 0, 64, 66
1, 58909, Control_c, 0, 64, 57
1, 58924, Control_c, 0, 64, 45
1, 58939, Control_c, 0, 64, 0
1, 59160, Note_on_c, 0, 71, 81
1, 59171, Note_on_c, 0, 59, 67
1, 59183, Control_c, 0, 64, 44
1, 59197, Control_c, 0, 64, 57
1, 59212, Control_c, 0, 64, 62
1, 59225, Note_off_c, 0, 57, 59
1, 59227, Control_c, 0, 64, 65
1, 59242, Control_c, 0, 64, 68
1, 59257, Control_c, 0, 64, 73
1, 59271, Control_c, 0, 64, 81
1, 59286, Control_c, 0, 64, 91
1, 59301, Control_c, 0, 64, 99
1, 59317, Control_c, 0, 64, 112
1, 59332, Control_c, 0, 64, 127
1, 59399, Note_off_c, 0, 69, 0
1, 59432, Note_on_c, 0, 72, 84
1, 59435, Poly_aftertouch_c, 0, 69, 127
1, 59470, Note_on_c, 0, 60, 55
1, 59488, Note_off_c, 0, 59, 55
1, 59583, Note_off_c, 0, 50, 55
1, 59593, Poly_aftertouch_c, 0, 69, 0
1, 59621, Note_off_c, 0, 72, 55
1, 59640, Note_off_c, 0, 60, 59
1, 59643, Note_off_c, 0, 65, 56
1, 59700, Note_off_c, 0, 62, 38
1, 59702, Note_off_c, 0, 71, 41
1, 59971, Note_on_c, 0, 74, 62
1, 59985, Note_on_c, 0, 56, 36
1, 59985, Note_on_c, 0, 62, 45
1, 59992, Note_on_c, 0, 71, 50
1, 60002, Note_on_c, 0, 49, 39
1, 60010, Note_on_c, 0, 65, 28
1, 60051, Control_c, 0, 64, 105
1, 60066, Control_c, 0, 64, 86
1, 60081, Control_c, 0, 64, 70
1, 60095, Control_c, 0, 64, 53
1, 60095, Control_c, 0, 67, 34
1, 60110, Control_c, 0, 64, 36
1, 60110, Control_c, 0, 67, 51
1, 60126, Control_c, 0, 64, 0
1, 60126, Control_c, 0, 67, 69
1, 60141, Control_c, 0, 67, 86
1, 60156, Control_c, 0, 67, 105
1, 60170, Control_c, 0, 64, 27
1, 60170, Control_c, 0, 67, 126
1, 60185, Control_c, 0, 64, 32
1, 60200, Control_c, 0, 64, 40
1, 60215, Control_c, 0, 64, 48
1, 60230, Control_c, 0, 64, 55
1, 60244, Control_c, 0, 64, 59
1, 60259, Control_c, 0, 64, 61
1, 60274, Control_c, 0, 64, 63
1, 60289, Control_c, 0, 64, 65
1, 60304, Control_c, 0, 64, 67
1, 60318, Control_c, 0, 64, 69
1, 60333, Control_c, 0, 64, 71
1, 60348, Control_c, 0, 64, 74
1, 60362, Control_c, 0, 64, 76
1, 60377, Control_c, 0, 64, 79
1, 60385, Note_off_c, 0, 74, 53
1, 60392, Control_c, 0, 64, 83
1, 60407, Control_c, 0, 64, 87
1, 60422, Control_c, 0, 64, 90
1, 60444, Control_c, 0, 64, 92
1, 60459, Control_c, 0, 64, 94
1, 60474, Control_c, 0, 64, 96
1, 60504, Control_c, 0, 64, 98
1, 60533, Control_c, 0, 64, 100
1, 60804, Note_off_c, 0, 62, 35
1, 60984, Note_on_c, 0, 73, 43
1, 60993, Control_c, 0, 64, 98
1, 61008, Control_c, 0, 64, 94
1, 61017, Note_on_c, 0, 61, 31
1, 61023, Control_c, 0, 64, 89
1, 61038, Control_c, 0, 64, 84
1, 61053, Control_c, 0, 64, 78
1, 61067, Control_c, 0, 64, 69
1, 61082, Control_c, 0, 64, 60
1, 61097, Control_c, 0, 64, 51
1, 61112, Control_c, 0, 64, 44
1, 61127, Control_c, 0, 64, 42
1, 61141, Control_c, 0, 64, 41
1, 61156, Control_c, 0, 64, 39
1, 61171, Control_c, 0, 64, 37
1, 61193, Control_c, 0, 64, 35
1, 61208, Control_c, 0, 64, 33
1, 61223, Control_c, 0, 64, 33
1, 61297, Control_c, 0, 64, 33
1, 61312, Control_c, 0, 64, 36
1, 61327, Control_c, 0, 64, 40
1, 61341, Control_c, 0, 64, 46
1, 61356, Control_c, 0, 64, 53
1, 61371, Control_c, 0, 64, 57
1, 61386, Control_c, 0, 64, 60
1, 61400, Control_c, 0, 64, 61
1, 61415, Control_c, 0, 64, 63
1, 61430, Control_c, 0, 64, 65
1, 61445, Control_c, 0, 64, 67
1, 61460, Control_c, 0, 64, 69
1, 61474, Control_c, 0, 64, 71
1, 61489, Control_c, 0, 64, 73
1, 61504, Control_c, 0, 64, 74
1, 61518, Control_c, 0, 64, 76
1, 61533, Control_c, 0, 64, 78
1, 61548, Control_c, 0, 64, 79
1, 61563, Control_c, 0, 64, 80
1, 61578, Control_c, 0, 64, 81
1, 61587, Note_off_c, 0, 65, 30
1, 61592, Control_c, 0, 64, 82
1, 61607, Control_c, 0, 64, 83
1, 61622, Control_c, 0, 64, 83
1, 61637, Control_c, 0, 64, 84
1, 61682, Control_c, 0, 64, 84
1, 61728, Note_off_c, 0, 73, 30
1, 61802, Note_off_c, 0, 61, 36
1, 61846, Note_off_c, 0, 71, 40
1, 61861, Control_c, 0, 64, 84
1, 61865, Note_off_c, 0, 49, 38
1, 61870, Note_off_c, 0, 56, 39
1, 61905, Control_c, 0, 64, 83
1, 61920, Control_c, 0, 64, 82
1, 61935, Control_c, 0, 64, 81
1, 61956, Control_c, 0, 64, 79
1, 61971, Control_c, 0, 64, 77
1, 61986, Control_c, 0, 64, 74
1, 62001, Control_c, 0, 64, 69
1, 62016, Control_c, 0, 64, 63
1, 62031, Control_c, 0, 64, 57
1, 62046, Control_c, 0, 64, 52
1, 62060, Control_c, 0, 64, 51
1, 62075, Control_c, 0, 64, 51
1, 62105, Control_c, 0, 64, 50
1, 62120, Control_c, 0, 64, 49
1, 62135, Control_c, 0, 64, 49
1, 62149, Control_c, 0, 64, 48
1, 62445, Control_c, 0, 64, 49
1, 62549, Control_c, 0, 64, 49
1, 62579, Control_c, 0, 64, 50
1, 62609, Control_c, 0, 64, 50
1, 62638, Control_c, 0, 64, 51
1, 62668, Control_c, 0, 64, 51
1, 62779, Control_c, 0, 64, 52
1, 63075, Control_c, 0, 64, 52
1, 63163, Control_c, 0, 64, 53
1, 63223, Control_c, 0, 64, 53
1, 63268, Control_c, 0, 64, 54
1, 63283, Control_c, 0, 64, 54
1, 63314, Control_c, 0, 64, 55
1, 63343, Control_c, 0, 64, 56
1, 63358, Control_c, 0, 64, 57
1, 63363, Note_on_c, 0, 54, 20
1, 63373, Control_c, 0, 64, 58
1, 63387, Control_c, 0, 64, 60
1, 63402, Control_c, 0, 64, 61
1, 63417, Control_c, 0, 64, 63
1, 63432, Control_c, 0, 64, 65
1, 63455, Control_c, 0, 64, 68
1, 63469, Control_c, 0, 64, 72
1, 63484, Control_c, 0, 64, 74
1, 63499, Control_c, 0, 64, 76
1, 63514, Control_c, 0, 64, 78
1, 63529, Control_c, 0, 64, 81
1, 63543, Control_c, 0, 64, 85
1, 63558, Control_c, 0, 64, 90
1, 63573, Control_c, 0, 64, 95
1, 63575, Note_on_c, 0, 73, 53
1, 63588, Control_c, 0, 64, 102
1, 63602, Control_c, 0, 64, 110
1, 63617, Control_c, 0, 64, 127
1, 63636, Note_off_c, 0, 54, 42
1, 63774, Note_off_c, 0, 73, 60
1, 63837, Note_on_c, 0, 81, 41
1, 63852, Note_on_c, 0, 78, 33
1, 63928, Note_on_c, 0, 73, 35
1, 63971, Note_off_c, 0, 81, 58
1, 64025, Note_on_c, 0, 69, 34
1, 64037, Note_off_c, 0, 78, 57
1, 64064, Note_off_c, 0, 69, 57
1, 64071, Note_off_c, 0, 73, 59
1, 64084, Note_on_c, 0, 61, 38
1, 64123, Note_off_c, 0, 61, 63
1, 64165, Note_on_c, 0, 66, 46
1, 64207, Note_off_c, 0, 66, 59
1, 64238, Note_on_c, 0, 61, 45
1, 64286, Note_off_c, 0, 61, 57
1, 64313, Note_on_c, 0, 54, 49
1, 64362, Note_on_c, 0, 71, 68
1, 64362, Note_off_c, 0, 54, 55
1, 64486, Note_off_c, 0, 71, 59
1, 64541, Note_on_c, 0, 80, 47
1, 64578, Note_on_c, 0, 77, 29
1, 64601, Note_on_c, 0, 71, 56
1, 64615, Note_off_c, 0, 80, 60
1, 64652, Note_off_c, 0, 77, 60
1, 64664, Note_on_c, 0, 68, 50
1, 64678, Note_off_c, 0, 71, 61
1, 64697, Note_off_c, 0, 68, 64
1, 64701, Note_on_c, 0, 62, 39
1, 64740, Note_off_c, 0, 62, 62
1, 64790, Note_on_c, 0, 65, 44
1, 64839, Note_on_c, 0, 62, 54
1, 64844, Note_off_c, 0, 65, 54
1, 64907, Note_on_c, 0, 54, 58
1, 64910, Note_off_c, 0, 62, 62
1, 64960, Note_on_c, 0, 74, 82
1, 65041, Note_off_c, 0, 54, 36
1, 65071, Note_off_c, 0, 74, 58
1, 65128, Note_on_c, 0, 83, 54
1, 65143, Note_on_c, 0, 80, 54
1, 65197, Note_off_c, 0, 83, 62
1, 65199, Note_on_c, 0, 74, 73
1, 65230, Note_off_c, 0, 80, 63
1, 65252, Note_off_c, 0, 74, 64
1, 65260, Note_on_c, 0, 71, 48
1, 65285, Note_off_c, 0, 71, 57
1, 65293, Note_on_c, 0, 59, 52
1, 65308, Control_c, 0, 67, 122
1, 65322, Control_c, 0, 67, 115
1, 65336, Note_off_c, 0, 59, 64
1, 65337, Control_c, 0, 67, 110
1, 65352, Control_c, 0, 67, 105
1, 65360, Poly_aftertouch_c, 0, 56, 127
1, 65366, Control_c, 0, 67, 100
1, 65368, Note_on_c, 0, 65, 64
1, 65381, Control_c, 0, 67, 91
1, 65393, Poly_aftertouch_c, 0, 56, 0
1, 65396, Control_c, 0, 67, 77
1, 65411, Control_c, 0, 67, 54
1, 65426, Control_c, 0, 67, 0
1, 65440, Note_off_c, 0, 65, 58
1, 65459, Note_on_c, 0, 59, 40
1, 65474, Note_on_c, 0, 56, 38
1, 65489, Note_off_c, 0, 59, 53
1, 65514, Note_on_c, 0, 54, 75
1, 65521, Note_off_c, 0, 56, 46
1, 65545, Control_c, 0, 64, 96
1, 65559, Control_c, 0, 64, 64
1, 65569, Note_on_c, 0, 73, 84
1, 65574, Control_c, 0, 64, 29
1, 65589, Control_c, 0, 64, 0
1, 65604, Control_c, 0, 64, 31
1, 65619, Control_c, 0, 64, 53
1, 65633, Control_c, 0, 64, 65
1, 65648, Control_c, 0, 64, 76
1, 65663, Control_c, 0, 64, 93
1, 65678, Control_c, 0, 64, 119
1, 65700, Control_c, 0, 64, 127
1, 65715, Note_off_c, 0, 73, 62
1, 65729, Note_on_c, 0, 81, 67
1, 65730, Note_off_c, 0, 54, 50
1, 65739, Note_on_c, 0, 78, 58
1, 65817, Note_on_c, 0, 73, 70
1, 65861, Note_off_c, 0, 81, 63
1, 65870, Note_on_c, 0, 69, 66
1, 65908, Note_off_c, 0, 69, 60
1, 65933, Note_off_c, 0, 78, 55
1, 65945, Note_on_c, 0, 61, 55
1, 65946, Note_off_c, 0, 73, 60
1, 65948, Note_on_c, 0, 57, 51
1, 65986, Note_off_c, 0, 57, 63
1, 65989, Note_off_c, 0, 61, 56
1, 66037, Note_on_c, 0, 66, 68
1, 66076, Note_off_c, 0, 66, 62
1, 66115, Note_on_c, 0, 57, 61
1, 66143, Note_off_c, 0, 57, 66
1, 66150, Poly_aftertouch_c, 0, 61, 127
1, 66189, Poly_aftertouch_c, 0, 61, 0
1, 66308, Note_on_c, 0, 42, 66
1, 66448, Control_c, 0, 64, 110
1, 66453, Note_on_c, 0, 76, 84
1, 66463, Control_c, 0, 64, 82
1, 66478, Control_c, 0, 64, 62
1, 66493, Control_c, 0, 64, 30
1, 66500, Poly_aftertouch_c, 0, 44, 0
1, 66508, Control_c, 0, 64, 0
1, 66568, Control_c, 0, 64, 27
1, 66583, Control_c, 0, 64, 48
1, 66583, Control_c, 0, 67, 34
1, 66597, Control_c, 0, 64, 63
1, 66597, Control_c, 0, 67, 66
1, 66612, Control_c, 0, 64, 70
1, 66612, Control_c, 0, 67, 114
1, 66627, Control_c, 0, 64, 77
1, 66627, Control_c, 0, 67, 127
1, 66642, Control_c, 0, 64, 85
1, 66650, Note_off_c, 0, 42, 62
1, 66657, Control_c, 0, 64, 94
1, 66672, Control_c, 0, 64, 105
1, 66686, Control_c, 0, 64, 125
1, 66701, Control_c, 0, 64, 127
1, 66722, Note_off_c, 0, 76, 60
1, 66760, Note_on_c, 0, 85, 61
1, 66773, Note_on_c, 0, 82, 46
1, 66905, Note_on_c, 0, 76, 57
1, 66985, Note_off_c, 0, 85, 56
1, 67013, Note_on_c, 0, 73, 60
1, 67057, Note_off_c, 0, 82, 59
1, 67072, Note_off_c, 0, 76, 62
1, 67093, Note_on_c, 0, 67, 55
1, 67113, Note_off_c, 0, 73, 61
1, 67152, Note_off_c, 0, 67, 52
1, 67199, Note_on_c, 0, 66, 54
1, 67243, Note_off_c, 0, 66, 60
1, 67288, Note_on_c, 0, 67, 53
1, 67325, Note_off_c, 0, 67, 62
1, 67358, Note_on_c, 0, 64, 58
1, 67387, Note_off_c, 0, 64, 65
1, 67422, Note_on_c, 0, 73, 55
1, 67480, Note_off_c, 0, 73, 60
1, 67489, Note_on_c, 0, 82, 61
1, 67520, Note_on_c, 0, 79, 47
1, 67560, Note_off_c, 0, 82, 60
1, 67563, Note_on_c, 0, 73, 61
1, 67603, Note_off_c, 0, 79, 60
1, 67626, Note_on_c, 0, 70, 54
1, 67635, Note_off_c, 0, 73, 63
1, 67659, Note_off_c, 0, 70, 65
1, 67692, Note_on_c, 0, 64, 54
1, 67728, Note_off_c, 0, 64, 64
1, 67767, Note_on_c, 0, 62, 51
1, 67803, Note_off_c, 0, 62, 63
1, 67826, Note_on_c, 0, 64, 62
1, 67875, Note_off_c, 0, 64, 58
1, 67897, Note_on_c, 0, 61, 58
1, 67942, Note_off_c, 0, 61, 63
1, 67961, Note_on_c, 0, 70, 59
1, 68024, Note_off_c, 0, 70, 63
1, 68038, Note_on_c, 0, 79, 57
1, 68064, Note_on_c, 0, 76, 51
1, 68097, Note_off_c, 0, 79, 62
1, 68100, Note_on_c, 0, 70, 61
1, 68134, Note_off_c, 0, 76, 62
1, 68168, Note_on_c, 0, 67, 59
1, 68171, Note_off_c, 0, 70, 64
1, 68198, Note_off_c, 0, 67, 65
1, 68238, Note_on_c, 0, 61, 62
1, 68286, Note_off_c, 0, 61, 60
1, 68318, Note_on_c, 0, 59, 52
1, 68361, Note_off_c, 0, 59, 63
1, 68394, Note_on_c, 0, 61, 55
1, 68428, Note_off_c, 0, 61, 60
1, 68451, Control_c, 0, 64, 97
1, 68459, Note_on_c, 0, 58, 61
1, 68465, Control_c, 0, 64, 72
1, 68480, Control_c, 0, 64, 52
1, 68495, Control_c, 0, 64, 45
1, 68509, Control_c, 0, 64, 48
1, 68524, Control_c, 0, 64, 54
1, 68526, Note_on_c, 0, 67, 54
1, 68539, Control_c, 0, 64, 59
1, 68554, Control_c, 0, 64, 63
1, 68569, Control_c, 0, 64, 68
1, 68571, Note_off_c, 0, 67, 61
1, 68583, Control_c, 0, 64, 76
1, 68596, Note_off_c, 0, 58, 60
1, 68598, Control_c, 0, 64, 81
1, 68612, Note_on_c, 0, 76, 61
1, 68613, Control_c, 0, 64, 84
1, 68622, Note_on_c, 0, 73, 53
1, 68628, Control_c, 0, 64, 86
1, 68643, Control_c, 0, 64, 89
1, 68657, Control_c, 0, 64, 92
1, 68672, Control_c, 0, 64, 96
1, 68695, Control_c, 0, 64, 102
1, 68701, Note_on_c, 0, 67, 57
1, 68704, Note_off_c, 0, 76, 60
1, 68709, Control_c, 0, 64, 107
1, 68724, Control_c, 0, 64, 114
1, 68739, Control_c, 0, 64, 127
1, 68765, Note_off_c, 0, 73, 61
1, 68767, Note_on_c, 0, 64, 42
1, 68795, Note_off_c, 0, 64, 56
1, 68811, Note_off_c, 0, 67, 38
1, 68823, Note_on_c, 0, 58, 53
1, 68882, Note_off_c, 0, 58, 60
1, 68931, Note_on_c, 0, 57, 43
1, 68989, Note_off_c, 0, 57, 64
1, 69036, Note_on_c, 0, 58, 53
1, 69089, Note_off_c, 0, 58, 56
1, 69217, Note_on_c, 0, 54, 48
1, 69259, Control_c, 0, 64, 105
1, 69274, Control_c, 0, 64, 80
1, 69288, Control_c, 0, 64, 61
1, 69303, Control_c, 0, 64, 34
1, 69310, Note_on_c, 0, 74, 78
1, 69318, Control_c, 0, 64, 0
1, 69362, Control_c, 0, 64, 27
1, 69377, Control_c, 0, 64, 41
1, 69392, Control_c, 0, 64, 57
1, 69406, Control_c, 0, 64, 63
1, 69421, Control_c, 0, 64, 66
1, 69444, Control_c, 0, 64, 69
1, 69459, Control_c, 0, 64, 72
1, 69474, Control_c, 0, 64, 76
1, 69488, Control_c, 0, 64, 80
1, 69502, Note_off_c, 0, 74, 60
1, 69503, Control_c, 0, 64, 85
1, 69518, Control_c, 0, 64, 89
1, 69532, Control_c, 0, 64, 93
1, 69541, Note_off_c, 0, 54, 38
1, 69547, Control_c, 0, 64, 98
1, 69554, Note_on_c, 0, 81, 43
1, 69557, Note_on_c, 0, 78, 45
1, 69562, Control_c, 0, 64, 104
1, 69577, Control_c, 0, 64, 112
1, 69592, Control_c, 0, 64, 127
1, 69641, Note_off_c, 0, 81, 57
1, 69642, Note_on_c, 0, 74, 49
1, 69692, Note_on_c, 0, 69, 37
1, 69707, Note_off_c, 0, 74, 63
1, 69723, Note_off_c, 0, 69, 54
1, 69731, Note_off_c, 0, 78, 56
1, 69762, Note_on_c, 0, 62, 35
1, 69795, Note_off_c, 0, 62, 60
1, 69829, Note_on_c, 0, 66, 60
1, 69883, Note_off_c, 0, 66, 57
1, 69888, Note_on_c, 0, 62, 59
1, 69959, Note_off_c, 0, 62, 61
1, 69961, Note_on_c, 0, 54, 68
1, 69978, Control_c, 0, 64, 91
1, 69993, Control_c, 0, 64, 66
1, 70001, Note_on_c, 0, 73, 81
1, 70008, Control_c, 0, 64, 50
1, 70008, Control_c, 0, 67, 125
1, 70022, Control_c, 0, 64, 54
1, 70022, Control_c, 0, 67, 96
1, 70037, Control_c, 0, 64, 60
1, 70037, Control_c, 0, 67, 62
1, 70052, Control_c, 0, 64, 67
1, 70052, Control_c, 0, 67, 0
1, 70067, Control_c, 0, 64, 80
1, 70081, Control_c, 0, 64, 119
1, 70096, Control_c, 0, 64, 127
1, 70106, Note_off_c, 0, 54, 51
1, 70157, Note_off_c, 0, 73, 61
1, 70172, Note_on_c, 0, 79, 59
1, 70190, Note_on_c, 0, 76, 54
1, 70250, Note_on_c, 0, 73, 64
1, 70280, Note_off_c, 0, 79, 61
1, 70293, Note_on_c, 0, 70, 62
1, 70313, Note_off_c, 0, 76, 61
1, 70321, Note_off_c, 0, 73, 60
1, 70329, Note_off_c, 0, 70, 61
1, 70354, Note_on_c, 0, 64, 53
1, 70388, Note_off_c, 0, 64, 64
1, 70421, Note_on_c, 0, 67, 68
1, 70467, Note_on_c, 0, 64, 71
1, 70476, Note_off_c, 0, 67, 61
1, 70525, Note_off_c, 0, 64, 64
1, 70544, Note_on_c, 0, 54, 77
1, 70549, Control_c, 0, 64, 103
1, 70564, Control_c, 0, 64, 67
1, 70578, Control_c, 0, 64, 40
1, 70593, Control_c, 0, 64, 0
1, 70595, Note_on_c, 0, 76, 90
1, 70608, Control_c, 0, 64, 32
1, 70623, Control_c, 0, 64, 52
1, 70638, Control_c, 0, 64, 65
1, 70652, Control_c, 0, 64, 78
1, 70658, Note_off_c, 0, 54, 54
1, 70667, Control_c, 0, 64, 102
1, 70682, Control_c, 0, 64, 127
1, 70721, Note_off_c, 0, 76, 58
1, 70741, Note_on_c, 0, 85, 72
1, 70756, Note_on_c, 0, 79, 56
1, 70814, Note_off_c, 0, 85, 64
1, 70817, Note_on_c, 0, 76, 81
1, 70850, Note_off_c, 0, 79, 63
1, 70877, Note_off_c, 0, 76, 64
1, 70883, Note_on_c, 0, 73, 76
1, 70905, Note_off_c, 0, 73, 69
1, 70934, Note_on_c, 0, 58, 62
1, 70984, Note_off_c, 0, 58, 62
1, 71006, Note_on_c, 0, 67, 76
1, 71072, Note_off_c, 0, 67, 61
1, 71088, Note_on_c, 0, 58, 71
1, 71143, Note_on_c, 0, 54, 83
1, 71145, Note_off_c, 0, 58, 62
1, 71149, Control_c, 0, 64, 88
1, 71164, Control_c, 0, 64, 58
1, 71178, Control_c, 0, 64, 0
1, 71186, Note_on_c, 0, 74, 97
1, 71208, Control_c, 0, 64, 30
1, 71223, Control_c, 0, 64, 52
1, 71238, Control_c, 0, 64, 68
1, 71252, Control_c, 0, 64, 83
1, 71267, Control_c, 0, 64, 105
1, 71282, Control_c, 0, 64, 127
1, 71309, Note_off_c, 0, 74, 60
1, 71332, Note_on_c, 0, 81, 67
1, 71337, Note_on_c, 0, 86, 71
1, 71338, Note_off_c, 0, 54, 35
1, 71360, Note_off_c, 0, 86, 70
1, 71381, Note_off_c, 0, 81, 62
1, 71409, Note_on_c, 0, 74, 80
1, 71454, Note_off_c, 0, 74, 66
1, 71474, Note_on_c, 0, 69, 80
1, 71492, Note_off_c, 0, 69, 73
1, 71550, Note_on_c, 0, 57, 73
1, 71605, Note_off_c, 0, 57, 63
1, 71636, Note_on_c, 0, 66, 85
1, 71685, Note_off_c, 0, 66, 64
1, 71720, Note_on_c, 0, 57, 67
1, 71742, Note_off_c, 0, 57, 65
1, 71926, Note_on_c, 0, 38, 89
1, 71987, Control_c, 0, 64, 106
1, 72001, Control_c, 0, 64, 67
1, 72016, Control_c, 0, 64, 0
1, 72090, Control_c, 0, 64, 42
1, 72100, Note_on_c, 0, 78, 90
1, 72106, Control_c, 0, 64, 57
1, 72121, Control_c, 0, 64, 64
1, 72136, Control_c, 0, 64, 70
1, 72150, Control_c, 0, 64, 82
1, 72165, Control_c, 0, 64, 99
1, 72169, Note_off_c, 0, 38, 60
1, 72180, Control_c, 0, 64, 127
1, 72295, Note_on_c, 0, 87, 74
1, 72310, Note_on_c, 0, 84, 71
1, 72310, Note_off_c, 0, 78, 58
1, 72424, Control_c, 0, 67, 48
1, 72433, Note_on_c, 0, 78, 74
1, 72439, Control_c, 0, 67, 79
1, 72454, Control_c, 0, 67, 109
1, 72469, Control_c, 0, 67, 127
1, 72514, Note_off_c, 0, 87, 53
1, 72520, Note_off_c, 0, 84, 56
1, 72550, Note_on_c, 0, 75, 78
1, 72553, Note_off_c, 0, 78, 59
1, 72583, Note_off_c, 0, 75, 60
1, 72648, Note_on_c, 0, 69, 66
1, 72705, Note_off_c, 0, 69, 51
1, 72741, Note_on_c, 0, 67, 56
1, 72772, Note_off_c, 0, 67, 65
1, 72805, Note_on_c, 0, 69, 64
1, 72836, Note_off_c, 0, 69, 58
1, 72870, Note_on_c, 0, 66, 68
1, 72902, Note_off_c, 0, 66, 64
1, 72945, Note_on_c, 0, 75, 68
1, 73012, Note_off_c, 0, 75, 61
1, 73020, Note_on_c, 0, 84, 73
1, 73041, Note_on_c, 0, 81, 62
1, 73078, Note_on_c, 0, 75, 68
1, 73085, Note_off_c, 0, 84, 62
1, 73105, Note_off_c, 0, 81, 63
1, 73138, Note_on_c, 0, 72, 69
1, 73144, Note_off_c, 0, 75, 64
1, 73164, Note_off_c, 0, 72, 68
1, 73215, Note_on_c, 0, 66, 63
1, 73253, Note_off_c, 0, 66, 64
1, 73282, Note_on_c, 0, 65, 56
1, 73332, Note_off_c, 0, 65, 58
1, 73349, Note_on_c, 0, 66, 63
1, 73421, Note_on_c, 0, 63, 73
1, 73425, Control_c, 0, 64, 102
1, 73435, Note_off_c, 0, 66, 61
1, 73440, Control_c, 0, 64, 71
1, 73454, Control_c, 0, 64, 54
1, 73469, Control_c, 0, 64, 47
1, 73484, Control_c, 0, 64, 54
1, 73485, Note_on_c, 0, 72, 65
1, 73498, Control_c, 0, 64, 60
1, 73513, Control_c, 0, 64, 65
1, 73528, Control_c, 0, 64, 72
1, 73535, Note_off_c, 0, 72, 62
1, 73543, Control_c, 0, 64, 81
1, 73550, Note_off_c, 0, 63, 62
1, 73558, Control_c, 0, 64, 86
1, 73564, Note_on_c, 0, 81, 68
1, 73573, Control_c, 0, 64, 89
1, 73578, Note_on_c, 0, 78, 58
1, 73588, Control_c, 0, 64, 92
1, 73603, Control_c, 0, 64, 95
1, 73617, Control_c, 0, 64, 98
1, 73623, Note_off_c, 0, 81, 61
1, 73631, Note_on_c, 0, 72, 63
1, 73632, Control_c, 0, 64, 100
1, 73647, Control_c, 0, 64, 103
1, 73661, Note_off_c, 0, 78, 56
1, 73662, Control_c, 0, 64, 107
1, 73677, Control_c, 0, 64, 112
1, 73692, Note_off_c, 0, 72, 61
1, 73692, Control_c, 0, 64, 119
1, 73697, Note_on_c, 0, 69, 64
1, 73707, Control_c, 0, 64, 127
1, 73726, Note_off_c, 0, 69, 66
1, 73769, Note_on_c, 0, 63, 64
1, 73822, Note_off_c, 0, 63, 59
1, 73841, Note_on_c, 0, 62, 61
1, 73887, Note_off_c, 0, 62, 54
1, 73900, Control_c, 0, 64, 125
1, 73915, Control_c, 0, 64, 94
1, 73932, Note_on_c, 0, 63, 64
1, 73936, Control_c, 0, 64, 71
1, 73951, Control_c, 0, 64, 52
1, 73966, Control_c, 0, 64, 28
1, 73981, Control_c, 0, 64, 0
1, 73996, Control_c, 0, 64, 37
1, 74002, Note_on_c, 0, 60, 62
1, 74006, Note_off_c, 0, 63, 54
1, 74011, Control_c, 0, 64, 49
1, 74026, Control_c, 0, 64, 58
1, 74041, Control_c, 0, 64, 63
1, 74056, Control_c, 0, 64, 67
1, 74059, Note_on_c, 0, 69, 51
1, 74071, Control_c, 0, 64, 70
1, 74085, Control_c, 0, 64, 73
1, 74100, Control_c, 0, 64, 75
1, 74103, Note_off_c, 0, 69, 59
1, 74106, Note_off_c, 0, 60, 63
1, 74115, Control_c, 0, 64, 78
1, 74126, Note_on_c, 0, 78, 61
1, 74129, Control_c, 0, 64, 81
1, 74144, Control_c, 0, 64, 84
1, 74154, Note_on_c, 0, 75, 48
1, 74159, Control_c, 0, 64, 87
1, 74174, Control_c, 0, 64, 89
1, 74189, Control_c, 0, 64, 91
1, 74203, Control_c, 0, 64, 94
1, 74218, Control_c, 0, 64, 97
1, 74220, Note_on_c, 0, 69, 59
1, 74228, Note_off_c, 0, 78, 53
1, 74233, Control_c, 0, 64, 100
1, 74247, Control_c, 0, 64, 103
1, 74262, Control_c, 0, 64, 105
1, 74277, Control_c, 0, 64, 109
1, 74282, Note_off_c, 0, 75, 60
1, 74292, Note_on_c, 0, 66, 50
1, 74292, Control_c, 0, 64, 115
1, 74307, Control_c, 0, 64, 127
1, 74314, Note_off_c, 0, 69, 49
1, 74320, Note_off_c, 0, 66, 59
1, 74383, Note_on_c, 0, 60, 51
1, 74455, Note_off_c, 0, 60, 61
1, 74485, Note_on_c, 0, 59, 48
1, 74530, Note_off_c, 0, 59, 60
1, 74583, Note_on_c, 0, 60, 59
1, 74717, Note_off_c, 0, 60, 51
1, 74766, Note_on_c, 0, 51, 73
1, 74819, Control_c, 0, 64, 88
1, 74834, Control_c, 0, 64, 67
1, 74849, Control_c, 0, 64, 47
1, 74863, Control_c, 0, 64, 33
1, 74878, Control_c, 0, 64, 35
1, 74893, Control_c, 0, 64, 43
1, 74908, Control_c, 0, 64, 55
1, 74923, Control_c, 0, 64, 62
1, 74938, Control_c, 0, 64, 66
1, 74952, Control_c, 0, 64, 71
1, 74967, Control_c, 0, 64, 75
1, 74982, Control_c, 0, 64, 79
1, 74997, Control_c, 0, 64, 82
1, 75001, Note_on_c, 0, 57, 52
1, 75012, Control_c, 0, 64, 87
1, 75026, Control_c, 0, 64, 90
1, 75041, Control_c, 0, 64, 94
1, 75056, Control_c, 0, 64, 97
1, 75070, Control_c, 0, 64, 100
1, 75085, Control_c, 0, 64, 104
1, 75091, Note_on_c, 0, 66, 57
1, 75100, Control_c, 0, 64, 108
1, 75115, Control_c, 0, 64, 112
1, 75117, Note_off_c, 0, 57, 49
1, 75130, Control_c, 0, 64, 118
1, 75144, Control_c, 0, 64, 127
1, 75164, Note_on_c, 0, 71, 58
1, 75191, Note_off_c, 0, 66, 62
1, 75230, Note_off_c, 0, 71, 60
1, 75235, Note_on_c, 0, 50, 79
1, 75248, Control_c, 0, 64, 109
1, 75263, Control_c, 0, 64, 82
1, 75267, Note_off_c, 0, 51, 60
1, 75278, Control_c, 0, 64, 63
1, 75293, Control_c, 0, 64, 40
1, 75308, Control_c, 0, 64, 31
1, 75312, Note_on_c, 0, 72, 64
1, 75323, Control_c, 0, 64, 40
1, 75338, Control_c, 0, 64, 54
1, 75353, Control_c, 0, 64, 63
1, 75353, Control_c, 0, 67, 115
1, 75367, Note_off_c, 0, 72, 62
1, 75367, Control_c, 0, 64, 70
1, 75367, Control_c, 0, 67, 85
1, 75382, Control_c, 0, 64, 78
1, 75382, Control_c, 0, 67, 59
1, 75393, Note_on_c, 0, 66, 67
1, 75397, Control_c, 0, 64, 84
1, 75397, Control_c, 0, 67, 35
1, 75412, Control_c, 0, 64, 90
1, 75412, Control_c, 0, 67, 0
1, 75435, Control_c, 0, 64, 99
1, 75449, Control_c, 0, 64, 106
1, 75460, Note_off_c, 0, 66, 63
1, 75464, Control_c, 0, 64, 119
1, 75466, Note_on_c, 0, 57, 71
1, 75479, Control_c, 0, 64, 127
1, 75492, Note_off_c, 0, 57, 66
1, 75553, Control_c, 0, 64, 101
1, 75554, Note_on_c, 0, 56, 88
1, 75568, Control_c, 0, 64, 75
1, 75582, Control_c, 0, 64, 56
1, 75597, Control_c, 0, 64, 32
1, 75602, Note_off_c, 0, 50, 62
1, 75612, Control_c, 0, 64, 28
1, 75627, Control_c, 0, 64, 43
1, 75642, Control_c, 0, 64, 58
1, 75644, Note_on_c, 0, 63, 67
1, 75656, Control_c, 0, 64, 66
1, 75671, Control_c, 0, 64, 73
1, 75686, Control_c, 0, 64, 79
1, 75701, Control_c, 0, 64, 84
1, 75716, Control_c, 0, 64, 90
1, 75723, Note_off_c, 0, 63, 63
1, 75731, Control_c, 0, 64, 98
1, 75740, Note_on_c, 0, 72, 66
1, 75746, Control_c, 0, 64, 104
1, 75761, Control_c, 0, 64, 115
1, 75775, Control_c, 0, 64, 127
1, 75793, Note_on_c, 0, 77, 70
1, 75810, Note_off_c, 0, 72, 61
1, 75863, Note_on_c, 0, 57, 84
1, 75864, Control_c, 0, 64, 96
1, 75866, Note_off_c, 0, 77, 57
1, 75879, Control_c, 0, 64, 72
1, 75893, Control_c, 0, 64, 52
1, 75906, Note_off_c, 0, 56, 62
1, 75908, Control_c, 0, 64, 0
1, 75934, Note_on_c, 0, 78, 70
1, 75938, Control_c, 0, 64, 41
1, 75953, Control_c, 0, 64, 57
1, 75968, Control_c, 0, 64, 67
1, 75983, Control_c, 0, 64, 75
1, 75998, Control_c, 0, 64, 84
1, 76005, Note_on_c, 0, 72, 65
1, 76009, Note_off_c, 0, 78, 57
1, 76013, Control_c, 0, 64, 92
1, 76027, Control_c, 0, 64, 102
1, 76042, Control_c, 0, 64, 114
1, 76057, Control_c, 0, 64, 127
1, 76066, Note_off_c, 0, 72, 59
1, 76075, Note_on_c, 0, 63, 66
1, 76136, Note_off_c, 0, 63, 57
1, 76147, Control_c, 0, 64, 117
1, 76148, Note_on_c, 0, 58, 85
1, 76169, Control_c, 0, 64, 82
1, 76184, Control_c, 0, 64, 61
1, 76198, Note_off_c, 0, 57, 62
1, 76199, Control_c, 0, 64, 28
1, 76214, Control_c, 0, 64, 0
1, 76244, Control_c, 0, 64, 34
1, 76245, Note_on_c, 0, 64, 65
1, 76259, Control_c, 0, 64, 52
1, 76273, Control_c, 0, 64, 62
1, 76288, Control_c, 0, 64, 67
1, 76303, Control_c, 0, 64, 71
1, 76303, Note_off_c, 0, 64, 62
1, 76314, Note_on_c, 0, 73, 56
1, 76318, Control_c, 0, 64, 74
1, 76332, Control_c, 0, 64, 79
1, 76347, Control_c, 0, 64, 85
1, 76362, Control_c, 0, 64, 91
1, 76377, Control_c, 0, 64, 97
1, 76379, Note_on_c, 0, 79, 60
1, 76384, Note_off_c, 0, 73, 63
1, 76392, Control_c, 0, 64, 102
1, 76392, Control_c, 0, 67, 50
1, 76406, Control_c, 0, 64, 110
1, 76406, Control_c, 0, 67, 91
1, 76410, Note_off_c, 0, 79, 65
1, 76420, Note_off_c, 0, 58, 62
1, 76421, Control_c, 0, 64, 125
1, 76421, Control_c, 0, 67, 127
1, 76436, Control_c, 0, 64, 127
1, 76442, Note_on_c, 0, 64, 68
1, 76473, Note_off_c, 0, 64, 68
1, 76519, Note_on_c, 0, 82, 73
1, 76571, Note_on_c, 0, 73, 75
1, 76589, Note_off_c, 0, 82, 62
1, 76635, Note_off_c, 0, 73, 62
1, 76651, Note_on_c, 0, 67, 49
1, 76673, Note_off_c, 0, 67, 0
1, 76697, Note_on_c, 0, 67, 54
1, 76731, Note_off_c, 0, 67, 64
1, 76774, Note_on_c, 0, 85, 80
1, 76842, Note_off_c, 0, 85, 63
1, 76843, Note_on_c, 0, 76, 59
1, 76865, Control_c, 0, 67, 110
1, 76880, Control_c, 0, 67, 85
1, 76896, Control_c, 0, 67, 57
1, 76901, Note_off_c, 0, 76, 64
1, 76918, Control_c, 0, 67, 0
1, 76929, Note_on_c, 0, 70, 63
1, 76953, Note_off_c, 0, 70, 65
1, 77003, Note_on_c, 0, 70, 53
1, 77020, Note_off_c, 0, 70, 64
1, 77076, Note_on_c, 0, 88, 76
1, 77174, Note_on_c, 0, 79, 67
1, 77176, Note_off_c, 0, 88, 55
1, 77242, Note_off_c, 0, 79, 62
1, 77248, Note_on_c, 0, 73, 61
1, 77268, Note_off_c, 0, 73, 66
1, 77397, Note_on_c, 0, 46, 86
1, 77421, Control_c, 0, 64, 96
1, 77436, Control_c, 0, 64, 67
1, 77451, Control_c, 0, 64, 42
1, 77465, Control_c, 0, 64, 0
1, 77480, Control_c, 0, 64, 33
1, 77495, Control_c, 0, 64, 51
1, 77510, Control_c, 0, 64, 63
1, 77525, Control_c, 0, 64, 72
1, 77539, Control_c, 0, 64, 81
1, 77554, Control_c, 0, 64, 91
1, 77569, Control_c, 0, 64, 99
1, 77584, Control_c, 0, 64, 113
1, 77597, Note_on_c, 0, 52, 63
1, 77598, Control_c, 0, 64, 127
1, 77679, Note_off_c, 0, 52, 58
1, 77683, Note_on_c, 0, 61, 64
1, 77760, Note_on_c, 0, 66, 72
1, 77777, Note_off_c, 0, 61, 62
1, 77819, Note_off_c, 0, 66, 61
1, 77823, Note_on_c, 0, 45, 82
1, 77829, Control_c, 0, 64, 103
1, 77844, Control_c, 0, 64, 70
1, 77851, Note_off_c, 0, 46, 62
1, 77859, Control_c, 0, 64, 44
1, 77874, Control_c, 0, 64, 0
1, 77903, Control_c, 0, 64, 32
1, 77905, Note_on_c, 0, 67, 69
1, 77918, Control_c, 0, 64, 52
1, 77933, Control_c, 0, 64, 63
1, 77948, Control_c, 0, 64, 69
1, 77961, Note_off_c, 0, 67, 61
1, 77963, Control_c, 0, 64, 75
1, 77977, Control_c, 0, 64, 82
1, 77979, Note_on_c, 0, 61, 66
1, 77992, Control_c, 0, 64, 90
1, 78007, Control_c, 0, 64, 99
1, 78022, Control_c, 0, 64, 111
1, 78036, Control_c, 0, 64, 127
1, 78037, Note_off_c, 0, 61, 63
1, 78053, Note_on_c, 0, 52, 65
1, 78076, Note_off_c, 0, 52, 63
1, 78145, Note_on_c, 0, 51, 88
1, 78184, Note_off_c, 0, 45, 62
1, 78184, Control_c, 0, 64, 98
1, 78199, Control_c, 0, 64, 69
1, 78214, Control_c, 0, 64, 44
1, 78229, Control_c, 0, 64, 0
1, 78259, Control_c, 0, 64, 27
1, 78274, Control_c, 0, 64, 50
1, 78284, Note_on_c, 0, 58, 64
1, 78288, Control_c, 0, 64, 62
1, 78303, Control_c, 0, 64, 68
1, 78318, Control_c, 0, 64, 73
1, 78333, Control_c, 0, 64, 77
1, 78348, Control_c, 0, 64, 81
1, 78362, Control_c, 0, 64, 86
1, 78364, Note_off_c, 0, 58, 62
1, 78368, Note_on_c, 0, 67, 68
1, 78377, Control_c, 0, 64, 90
1, 78392, Control_c, 0, 64, 94
1, 78407, Control_c, 0, 64, 98
1, 78429, Control_c, 0, 64, 103
1, 78444, Control_c, 0, 64, 107
1, 78445, Note_on_c, 0, 72, 66
1, 78458, Control_c, 0, 64, 111
1, 78461, Note_off_c, 0, 67, 61
1, 78473, Control_c, 0, 64, 115
1, 78488, Control_c, 0, 64, 121
1, 78504, Control_c, 0, 64, 127
1, 78518, Note_on_c, 0, 52, 89
1, 78527, Note_off_c, 0, 72, 59
1, 78548, Control_c, 0, 64, 118
1, 78563, Control_c, 0, 64, 96
1, 78575, Note_off_c, 0, 51, 60
1, 78578, Control_c, 0, 64, 74
1, 78593, Control_c, 0, 64, 53
1, 78607, Control_c, 0, 64, 32
1, 78616, Note_on_c, 0, 73, 61
1, 78622, Control_c, 0, 64, 32
1, 78637, Control_c, 0, 64, 43
1, 78652, Control_c, 0, 64, 57
1, 78667, Control_c, 0, 64, 65
1, 78682, Control_c, 0, 64, 70
1, 78692, Note_on_c, 0, 67, 63
1, 78697, Control_c, 0, 64, 77
1, 78712, Control_c, 0, 64, 81
1, 78726, Control_c, 0, 64, 87
1, 78741, Control_c, 0, 64, 93
1, 78742, Note_off_c, 0, 73, 51
1, 78756, Control_c, 0, 64, 101
1, 78762, Note_off_c, 0, 67, 61
1, 78771, Control_c, 0, 64, 111
1, 78786, Control_c, 0, 64, 127
1, 78807, Note_on_c, 0, 58, 63
1, 78879, Note_off_c, 0, 58, 61
1, 78982, Note_on_c, 0, 53, 82
1, 79023, Control_c, 0, 64, 103
1, 79024, Note_off_c, 0, 52, 60
1, 79037, Control_c, 0, 64, 73
1, 79052, Control_c, 0, 64, 51
1, 79067, Control_c, 0, 64, 0
1, 79111, Control_c, 0, 64, 33
1, 79126, Control_c, 0, 64, 48
1, 79141, Control_c, 0, 64, 60
1, 79156, Control_c, 0, 64, 65
1, 79168, Note_on_c, 0, 59, 65
1, 79179, Control_c, 0, 64, 69
1, 79193, Control_c, 0, 64, 73
1, 79208, Control_c, 0, 64, 79
1, 79223, Control_c, 0, 64, 85
1, 79230, Note_off_c, 0, 59, 62
1, 79238, Control_c, 0, 64, 92
1, 79252, Control_c, 0, 64, 99
1, 79267, Control_c, 0, 64, 109
1, 79268, Note_on_c, 0, 68, 61
1, 79282, Control_c, 0, 64, 127
1, 79354, Note_on_c, 0, 74, 66
1, 79365, Note_off_c, 0, 68, 62
1, 79383, Note_off_c, 0, 74, 67
1, 79429, Note_off_c, 0, 53, 59
1, 79434, Note_on_c, 0, 59, 69
1, 79465, Note_off_c, 0, 59, 64
1, 79498, Note_on_c, 0, 77, 75
1, 79539, Note_off_c, 0, 77, 62
1, 79564, Note_on_c, 0, 68, 64
1, 79615, Note_off_c, 0, 68, 60
1, 79635, Note_on_c, 0, 62, 61
1, 79656, Note_off_c, 0, 62, 62
1, 79698, Note_on_c, 0, 62, 63
1, 79722, Note_off_c, 0, 62, 66
1, 79764, Note_on_c, 0, 80, 77
1, 79844, Note_off_c, 0, 80, 63
1, 79845, Note_on_c, 0, 71, 62
1, 79906, Note_off_c, 0, 71, 63
1, 79940, Note_on_c, 0, 65, 51
1, 79964, Note_off_c, 0, 65, 59
1, 80025, Note_on_c, 0, 65, 84
1, 80069, Note_off_c, 0, 65, 63
1, 80118, Note_on_c, 0, 83, 78
1, 80222, Note_on_c, 0, 74, 70
1, 80259, Note_on_c, 0, 78, 34
1, 80265, Poly_aftertouch_c, 0, 81, 127
1, 80291, Note_off_c, 0, 83, 38
1, 80299, Poly_aftertouch_c, 0, 81, 0
1, 80310, Note_off_c, 0, 78, 56
1, 80321, Note_on_c, 0, 68, 82
1, 80324, Note_off_c, 0, 74, 65
1, 80402, Note_off_c, 0, 68, 58
1, 80436, Note_on_c, 0, 46, 15
1, 80486, Note_on_c, 0, 54, 95
1, 80493, Note_on_c, 0, 42, 80
1, 80504, Control_c, 0, 64, 87
1, 80519, Control_c, 0, 64, 55
1, 80534, Control_c, 0, 64, 0
1, 80545, Note_off_c, 0, 46, 30
1, 80578, Control_c, 0, 64, 31
1, 80593, Control_c, 0, 64, 56
1, 80608, Control_c, 0, 64, 69
1, 80617, Note_off_c, 0, 42, 63
1, 80623, Control_c, 0, 64, 85
1, 80637, Control_c, 0, 64, 114
1, 80645, Note_off_c, 0, 54, 63
1, 80652, Control_c, 0, 64, 127
1, 80682, Note_on_c, 0, 66, 85
1, 80765, Note_off_c, 0, 66, 62
1, 80790, Note_on_c, 0, 74, 80
1, 80888, Note_on_c, 0, 80, 84
1, 80900, Note_off_c, 0, 74, 63
1, 80947, Note_on_c, 0, 54, 70
1, 80977, Note_on_c, 0, 57, 70
1, 81011, Note_off_c, 0, 54, 62
1, 81016, Note_on_c, 0, 62, 75
1, 81037, Note_off_c, 0, 57, 63
1, 81068, Note_on_c, 0, 69, 84
1, 81097, Note_off_c, 0, 62, 63
1, 81106, Note_off_c, 0, 69, 64
1, 81123, Note_off_c, 0, 80, 52
1, 81176, Note_on_c, 0, 81, 86
1, 81199, Note_on_c, 0, 80, 40
1, 81228, Note_off_c, 0, 80, 56
1, 81272, Note_on_c, 0, 74, 83
1, 81286, Note_off_c, 0, 81, 58
1, 81359, Note_off_c, 0, 74, 62
1, 81364, Note_on_c, 0, 66, 90
1, 81424, Control_c, 0, 64, 91
1, 81430, Note_off_c, 0, 66, 61
1, 81438, Control_c, 0, 64, 51
1, 81453, Control_c, 0, 64, 0
1, 81460, Note_on_c, 0, 45, 99
1, 81460, Note_on_c, 0, 33, 85
1, 81483, Control_c, 0, 64, 42
1, 81498, Control_c, 0, 64, 87
1, 81508, Note_off_c, 0, 33, 61
1, 81512, Control_c, 0, 64, 127
1, 81513, Note_off_c, 0, 45, 67
1, 81597, Note_on_c, 0, 66, 84
1, 81663, Note_off_c, 0, 66, 62
1, 81696, Note_on_c, 0, 75, 79
1, 81786, Note_on_c, 0, 82, 81
1, 81796, Note_on_c, 0, 54, 70
1, 81812, Note_off_c, 0, 75, 62
1, 81851, Note_on_c, 0, 59, 68
1, 81883, Note_off_c, 0, 54, 61
1, 81892, Note_on_c, 0, 63, 83
1, 81916, Note_off_c, 0, 59, 64
1, 81931, Note_off_c, 0, 82, 55
1, 81939, Note_on_c, 0, 71, 88
1, 81943, Note_off_c, 0, 63, 68
1, 81975, Note_off_c, 0, 71, 64
1, 82022, Note_on_c, 0, 83, 88
1, 82056, Note_on_c, 0, 80, 48
1, 82117, Note_off_c, 0, 83, 55
1, 82129, Note_on_c, 0, 75, 82
1, 82160, Note_off_c, 0, 80, 32
1, 82230, Note_on_c, 0, 66, 87
1, 82238, Note_off_c, 0, 75, 63
1, 82273, Note_off_c, 0, 66, 65
1, 82276, Control_c, 0, 64, 94
1, 82291, Control_c, 0, 64, 53
1, 82306, Control_c, 0, 64, 0
1, 82319, Note_on_c, 0, 44, 106
1, 82324, Note_on_c, 0, 32, 91
1, 82350, Control_c, 0, 64, 64
1, 82357, Note_off_c, 0, 32, 64
1, 82365, Control_c, 0, 64, 127
1, 82381, Note_off_c, 0, 44, 66
1, 82442, Note_on_c, 0, 71, 83
1, 82536, Note_off_c, 0, 71, 56
1, 82538, Note_on_c, 0, 77, 81
1, 82626, Note_on_c, 0, 85, 89
1, 82652, Note_off_c, 0, 77, 62
1, 82671, Note_on_c, 0, 56, 78
1, 82723, Note_on_c, 0, 62, 70
1, 82756, Note_on_c, 0, 65, 75
1, 82762, Note_off_c, 0, 56, 62
1, 82788, Note_off_c, 0, 85, 57
1, 82791, Note_on_c, 0, 71, 97
1, 82827, Note_off_c, 0, 71, 67
1, 82839, Note_off_c, 0, 65, 63
1, 82864, Note_off_c, 0, 62, 56
1, 82882, Note_on_c, 0, 86, 91
1, 83005, Note_on_c, 0, 77, 67
1, 83007, Note_off_c, 0, 86, 61
1, 83117, Note_on_c, 0, 71, 88
1, 83125, Note_off_c, 0, 77, 63
1, 83163, Note_off_c, 0, 71, 63
1, 83218, Control_c, 0, 64, 106
1, 83233, Control_c, 0, 64, 60
1, 83248, Control_c, 0, 64, 0
1, 83255, Note_on_c, 0, 43, 103
1, 83263, Note_on_c, 0, 31, 87
1, 83293, Control_c, 0, 64, 32
1, 83308, Control_c, 0, 64, 66
1, 83323, Control_c, 0, 64, 88
1, 83336, Note_off_c, 0, 31, 65
1, 83338, Control_c, 0, 64, 127
1, 83357, Note_off_c, 0, 43, 65
1, 83406, Note_on_c, 0, 73, 95
1, 83487, Note_off_c, 0, 73, 56
1, 83528, Note_on_c, 0, 82, 91
1, 83634, Note_on_c, 0, 88, 89
1, 83643, Note_off_c, 0, 82, 61
1, 83647, Note_on_c, 0, 55, 78
1, 83672, Note_on_c, 0, 85, 54
1, 83694, Note_off_c, 0, 85, 58
1, 83713, Note_on_c, 0, 61, 81
1, 83731, Note_off_c, 0, 55, 60
1, 83745, Note_on_c, 0, 59, 22
1, 83773, Note_on_c, 0, 65, 77
1, 83785, Note_off_c, 0, 59, 53
1, 83815, Note_off_c, 0, 61, 60
1, 83824, Note_on_c, 0, 70, 103
1, 83855, Note_off_c, 0, 65, 64
1, 83864, Note_off_c, 0, 70, 69
1, 83973, Note_on_c, 0, 89, 90
1, 84008, Note_off_c, 0, 88, 62
1, 84113, Note_on_c, 0, 82, 91
1, 84120, Note_off_c, 0, 89, 64
1, 84126, Poly_aftertouch_c, 0, 88, 127
1, 84170, Poly_aftertouch_c, 0, 88, 0
1, 84241, Note_on_c, 0, 73, 92
1, 84244, Note_off_c, 0, 82, 52
1, 84293, Control_c, 0, 64, 85
1, 84300, Note_off_c, 0, 73, 60
1, 84308, Control_c, 0, 64, 44
1, 84312, Note_on_c, 0, 30, 96
1, 84323, Control_c, 0, 64, 0
1, 84397, Control_c, 0, 64, 33
1, 84419, Control_c, 0, 64, 91
1, 84434, Control_c, 0, 64, 127
1, 84446, Note_on_c, 0, 42, 89
1, 84456, Note_off_c, 0, 30, 66
1, 84471, Note_off_c, 0, 42, 69
1, 84608, Note_on_c, 0, 54, 84
1, 84692, Note_on_c, 0, 61, 70
1, 84705, Note_off_c, 0, 54, 61
1, 84790, Note_on_c, 0, 66, 84
1, 84830, Note_on_c, 0, 90, 88
1, 84841, Note_on_c, 0, 81, 92
1, 84858, Note_on_c, 0, 69, 88
1, 84875, Note_off_c, 0, 90, 68
1, 84876, Note_off_c, 0, 81, 69
1, 85141, Note_on_c, 0, 73, 96
1, 85171, Note_off_c, 0, 69, 55
1, 85237, Note_off_c, 0, 66, 55
1, 85322, Note_off_c, 0, 61, 57
1, 85352, Note_on_c, 0, 78, 92
1, 85370, Note_off_c, 0, 73, 58
1, 85499, Note_on_c, 0, 73, 88
1, 85627, Note_on_c, 0, 69, 90
1, 85681, Note_off_c, 0, 78, 56
1, 85689, Note_off_c, 0, 69, 60
1, 85721, Note_off_c, 0, 73, 60
1, 85726, Note_on_c, 0, 61, 77
1, 85834, Note_on_c, 0, 65, 70
1, 85842, Note_off_c, 0, 61, 61
1, 85912, Note_off_c, 0, 65, 63
1, 85934, Note_on_c, 0, 66, 89
1, 85973, Note_off_c, 0, 66, 64
1, 86024, Note_on_c, 0, 66, 83
1, 86051, Control_c, 0, 64, 73
1, 86066, Control_c, 0, 64, 45
1, 86081, Control_c, 0, 64, 0
1, 86125, Control_c, 0, 64, 40
1, 86140, Control_c, 0, 64, 58
1, 86150, Note_on_c, 0, 57, 68
1, 86155, Control_c, 0, 64, 68
1, 86170, Control_c, 0, 64, 77
1, 86176, Note_off_c, 0, 66, 64
1, 86184, Control_c, 0, 64, 89
1, 86199, Control_c, 0, 64, 104
1, 86212, Note_on_c, 0, 60, 76
1, 86214, Note_off_c, 0, 57, 63
1, 86214, Control_c, 0, 64, 127
1, 86262, Note_off_c, 0, 60, 63
1, 86290, Note_on_c, 0, 61, 81
1, 86319, Note_off_c, 0, 61, 65
1, 86381, Note_on_c, 0, 61, 78
1, 86391, Control_c, 0, 64, 90
1, 86406, Control_c, 0, 64, 63
1, 86421, Control_c, 0, 64, 0
1, 86481, Control_c, 0, 64, 44
1, 86492, Note_on_c, 0, 54, 67
1, 86496, Control_c, 0, 64, 58
1, 86510, Note_off_c, 0, 61, 61
1, 86511, Control_c, 0, 64, 66
1, 86525, Control_c, 0, 64, 71
1, 86540, Control_c, 0, 64, 76
1, 86555, Control_c, 0, 64, 82
1, 86570, Control_c, 0, 64, 91
1, 86573, Note_off_c, 0, 54, 58
1, 86575, Note_on_c, 0, 56, 75
1, 86585, Control_c, 0, 64, 101
1, 86599, Control_c, 0, 64, 118
1, 86614, Control_c, 0, 64, 127
1, 86624, Note_off_c, 0, 56, 62
1, 86643, Note_on_c, 0, 57, 70
1, 86677, Note_off_c, 0, 57, 66
1, 86745, Note_on_c, 0, 57, 72
1, 86755, Control_c, 0, 64, 111
1, 86770, Control_c, 0, 64, 74
1, 86784, Control_c, 0, 64, 46
1, 86799, Control_c, 0, 64, 0
1, 86867, Note_on_c, 0, 49, 64
1, 86888, Control_c, 0, 64, 32
1, 86903, Control_c, 0, 64, 42
1, 86908, Note_off_c, 0, 57, 60
1, 86918, Control_c, 0, 64, 53
1, 86933, Control_c, 0, 64, 60
1, 86948, Control_c, 0, 64, 64
1, 86963, Control_c, 0, 64, 68
1, 86973, Note_on_c, 0, 53, 62
1, 86977, Control_c, 0, 64, 73
1, 86978, Note_off_c, 0, 49, 57
1, 86992, Control_c, 0, 64, 78
1, 87007, Control_c, 0, 64, 82
1, 87022, Control_c, 0, 64, 87
1, 87037, Control_c, 0, 64, 91
1, 87046, Note_off_c, 0, 53, 61
1, 87051, Control_c, 0, 64, 94
1, 87066, Control_c, 0, 64, 96
1, 87072, Note_on_c, 0, 54, 71
1, 87107, Note_off_c, 0, 54, 61
1, 87184, Control_c, 0, 64, 93
1, 87199, Control_c, 0, 64, 85
1, 87204, Note_on_c, 0, 54, 70
1, 87214, Control_c, 0, 64, 73
1, 87229, Control_c, 0, 64, 60
1, 87244, Control_c, 0, 64, 39
1, 87258, Control_c, 0, 64, 0
1, 87345, Note_on_c, 0, 45, 63
1, 87422, Note_off_c, 0, 54, 57
1, 87524, Note_on_c, 0, 48, 66
1, 87533, Note_off_c, 0, 45, 61
1, 87739, Note_on_c, 0, 49, 62
1, 87752, Note_off_c, 0, 48, 58
1, 88097, Note_on_c, 0, 42, 50
1, 88125, Note_off_c, 0, 49, 60
1, 88356, Control_c, 0, 64, 27
1, 88371, Control_c, 0, 64, 39
1, 88385, Control_c, 0, 64, 51
1, 88400, Control_c, 0, 64, 57
1, 88415, Control_c, 0, 64, 60
1, 88430, Control_c, 0, 64, 62
1, 88444, Control_c, 0, 64, 64
1, 88459, Control_c, 0, 64, 67
1, 88474, Control_c, 0, 64, 69
1, 88489, Control_c, 0, 64, 72
1, 88504, Control_c, 0, 64, 75
1, 88519, Control_c, 0, 64, 78
1, 88534, Control_c, 0, 64, 81
1, 88549, Control_c, 0, 64, 83
1, 88564, Control_c, 0, 64, 85
1, 88578, Control_c, 0, 64, 86
1, 88593, Control_c, 0, 64, 87
1, 88598, Note_off_c, 0, 42, 28
1, 88608, Control_c, 0, 64, 88
1, 88622, Control_c, 0, 64, 88
1, 88712, Control_c, 0, 64, 88
1, 88742, Control_c, 0, 64, 87
1, 88756, Control_c, 0, 64, 86
1, 88771, Control_c, 0, 64, 84
1, 88786, Control_c, 0, 64, 80
1, 88801, Control_c, 0, 64, 74
1, 88816, Control_c, 0, 64, 68
1, 88830, Control_c, 0, 64, 62
1, 88845, Control_c, 0, 64, 55
1, 88860, Control_c, 0, 64, 51
1, 88876, Control_c, 0, 64, 49
1, 88891, Control_c, 0, 64, 49
1, 88913, Control_c, 0, 64, 47
1, 88927, Control_c, 0, 64, 45
1, 88942, Control_c, 0, 64, 42
1, 88957, Control_c, 0, 64, 38
1, 88972, Control_c, 0, 64, 35
1, 88987, Control_c, 0, 64, 33
1, 89002, Control_c, 0, 64, 30
1, 89017, Control_c, 0, 64, 28
1, 89032, Control_c, 0, 64, 0
1, 89914, Control_c, 0, 64, 35
1, 89929, Control_c, 0, 64, 50
1, 89944, Control_c, 0, 64, 63
1, 89958, Control_c, 0, 64, 74
1, 89973, Control_c, 0, 64, 96
1, 89988, Control_c, 0, 64, 127
1, 90072, Note_on_c, 0, 85, 98
1, 90083, Note_on_c, 0, 73, 90
1, 90090, Note_on_c, 0, 69, 73
1, 90090, Note_on_c, 0, 81, 77
1, 90178, Note_off_c, 0, 69, 59
1, 90332, Note_off_c, 0, 81, 58
1, 90346, Note_off_c, 0, 85, 60
1, 90439, Note_on_c, 0, 53, 78
1, 90442, Note_on_c, 0, 61, 84
1, 90448, Note_off_c, 0, 73, 58
1, 90522, Note_off_c, 0, 53, 62
1, 90635, Note_off_c, 0, 61, 59
1, 90638, Note_on_c, 0, 83, 93
1, 90644, Note_on_c, 0, 80, 80
1, 90648, Note_on_c, 0, 71, 82
1, 90668, Note_on_c, 0, 68, 79
1, 90740, Note_off_c, 0, 80, 60
1, 90753, Note_off_c, 0, 68, 49
1, 90773, Note_off_c, 0, 83, 59
1, 90815, Note_off_c, 0, 71, 38
1, 90901, Note_on_c, 0, 83, 79
1, 90912, Note_on_c, 0, 68, 60
1, 90919, Note_on_c, 0, 80, 70
1, 90920, Note_on_c, 0, 54, 54
1, 90921, Note_on_c, 0, 71, 68
1, 90924, Note_on_c, 0, 61, 56
1, 90943, Control_c, 0, 64, 81
1, 90958, Control_c, 0, 64, 61
1, 90973, Control_c, 0, 64, 33
1, 90988, Control_c, 0, 64, 0
1, 91062, Control_c, 0, 64, 32
1, 91077, Control_c, 0, 64, 45
1, 91091, Control_c, 0, 64, 57
1, 91106, Control_c, 0, 64, 64
1, 91121, Control_c, 0, 64, 69
1, 91136, Control_c, 0, 64, 76
1, 91158, Control_c, 0, 64, 84
1, 91173, Control_c, 0, 64, 95
1, 91181, Note_off_c, 0, 83, 56
1, 91188, Control_c, 0, 64, 109
1, 91203, Control_c, 0, 64, 127
1, 91214, Note_off_c, 0, 68, 53
1, 91236, Note_off_c, 0, 71, 51
1, 91238, Note_off_c, 0, 80, 61
1, 91590, Note_on_c, 0, 81, 56
1, 91598, Note_on_c, 0, 78, 50
1, 91601, Note_on_c, 0, 66, 47
1, 91617, Note_on_c, 0, 69, 39
1, 91648, Control_c, 0, 64, 91
1, 91663, Control_c, 0, 64, 68
1, 91678, Control_c, 0, 64, 49
1, 91692, Control_c, 0, 64, 0
1, 91780, Control_c, 0, 64, 35
1, 91795, Control_c, 0, 64, 47
1, 91810, Control_c, 0, 64, 58
1, 91825, Control_c, 0, 64, 63
1, 91840, Control_c, 0, 64, 66
1, 91855, Control_c, 0, 64, 70
1, 91870, Control_c, 0, 64, 75
1, 91884, Control_c, 0, 64, 81
1, 91907, Control_c, 0, 64, 88
1, 91921, Control_c, 0, 64, 97
1, 91936, Control_c, 0, 64, 108
1, 91951, Control_c, 0, 64, 127
1, 91966, Note_off_c, 0, 54, 57
1, 91970, Note_off_c, 0, 69, 37
1, 91990, Note_off_c, 0, 81, 39
1, 92027, Note_off_c, 0, 61, 57
1, 92033, Note_off_c, 0, 66, 59
1, 92071, Note_off_c, 0, 78, 46
1, 92382, Control_c, 0, 64, 100
1, 92396, Control_c, 0, 64, 66
1, 92411, Control_c, 0, 64, 0
1, 92570, Note_on_c, 0, 93, 100
1, 92574, Control_c, 0, 64, 66
1, 92575, Note_on_c, 0, 81, 93
1, 92576, Note_on_c, 0, 85, 89
1, 92588, Control_c, 0, 64, 82
1, 92593, Note_on_c, 0, 73, 85
1, 92603, Control_c, 0, 64, 101
1, 92612, Note_off_c, 0, 73, 71
1, 92618, Control_c, 0, 64, 127
1, 92741, Note_off_c, 0, 93, 62
1, 92755, Note_off_c, 0, 81, 62
1, 92806, Note_off_c, 0, 85, 62
1, 92835, Note_on_c, 0, 53, 71
1, 92840, Note_on_c, 0, 62, 79
1, 92876, Note_off_c, 0, 53, 61
1, 92885, Note_off_c, 0, 62, 60
1, 93042, Note_on_c, 0, 92, 100
1, 93048, Note_on_c, 0, 80, 88
1, 93048, Note_on_c, 0, 83, 86
1, 93057, Note_on_c, 0, 71, 75
1, 93088, Note_off_c, 0, 71, 56
1, 93160, Control_c, 0, 64, 111
1, 93175, Control_c, 0, 64, 65
1, 93185, Note_on_c, 0, 62, 66
1, 93190, Control_c, 0, 64, 0
1, 93191, Note_on_c, 0, 54, 77
1, 93234, Control_c, 0, 64, 44
1, 93249, Control_c, 0, 64, 63
1, 93264, Control_c, 0, 64, 78
1, 93279, Control_c, 0, 64, 127
1, 93281, Note_off_c, 0, 54, 61
1, 93286, Note_off_c, 0, 83, 58
1, 93304, Note_off_c, 0, 92, 64
1, 93327, Note_off_c, 0, 80, 57
1, 93440, Note_on_c, 0, 92, 95
1, 93446, Note_on_c, 0, 80, 86
1, 93447, Note_on_c, 0, 83, 84
1, 93458, Note_on_c, 0, 71, 75
1, 93501, Note_off_c, 0, 80, 63
1, 93502, Note_off_c, 0, 92, 69
1, 93524, Note_off_c, 0, 83, 59
1, 93541, Note_off_c, 0, 71, 61
1, 94310, Note_on_c, 0, 90, 76
1, 94326, Note_on_c, 0, 78, 52
1, 94326, Note_on_c, 0, 81, 62
1, 94338, Note_on_c, 0, 69, 52
1, 94389, Control_c, 0, 64, 116
1, 94404, Control_c, 0, 64, 79
1, 94419, Control_c, 0, 64, 66
1, 94434, Control_c, 0, 64, 61
1, 94464, Control_c, 0, 64, 63
1, 94479, Control_c, 0, 64, 70
1, 94494, Control_c, 0, 64, 81
1, 94509, Control_c, 0, 64, 94
1, 94524, Control_c, 0, 64, 99
1, 94538, Control_c, 0, 64, 109
1, 94553, Control_c, 0, 64, 127
1, 94742, Note_off_c, 0, 78, 53
1, 94795, Note_off_c, 0, 69, 37
1, 94847, Note_off_c, 0, 90, 24
1, 94877, Note_off_c, 0, 81, 49
1, 95053, Note_off_c, 0, 62, 38
1, 95197, Control_c, 0, 64, 115
1, 95212, Control_c, 0, 64, 91
1, 95227, Control_c, 0, 64, 75
1, 95242, Control_c, 0, 64, 65
1, 95257, Control_c, 0, 64, 58
1, 95273, Control_c, 0, 64, 53
1, 95287, Control_c, 0, 64, 49
1, 95302, Control_c, 0, 64, 44
1, 95317, Control_c, 0, 64, 38
1, 95332, Control_c, 0, 64, 28
1, 95347, Control_c, 0, 64, 0
1, 95651, Control_c, 0, 64, 29
1, 95666, Control_c, 0, 64, 34
1, 95681, Control_c, 0, 64, 41
1, 95691, Note_on_c, 0, 89, 71
1, 95695, Control_c, 0, 64, 47
1, 95710, Note_on_c, 0, 77, 48
1, 95710, Control_c, 0, 64, 52
1, 95722, Note_on_c, 0, 68, 41
1, 95724, Note_on_c, 0, 80, 52
1, 95725, Control_c, 0, 64, 55
1, 95739, Control_c, 0, 64, 58
1, 95754, Control_c, 0, 64, 60
1, 95769, Control_c, 0, 64, 62
1, 95784, Control_c, 0, 64, 64
1, 95799, Control_c, 0, 64, 67
1, 95813, Control_c, 0, 64, 71
1, 95828, Control_c, 0, 64, 76
1, 95843, Control_c, 0, 64, 85
1, 95858, Control_c, 0, 64, 103
1, 95873, Control_c, 0, 64, 127
1, 95906, Note_off_c, 0, 68, 57
1, 95915, Note_off_c, 0, 80, 56
1, 95936, Note_off_c, 0, 89, 57
1, 95939, Note_off_c, 0, 77, 60
1, 96093, Note_on_c, 0, 89, 85
1, 96105, Note_on_c, 0, 77, 71
1, 96106, Note_on_c, 0, 80, 72
1, 96110, Note_on_c, 0, 68, 60
1, 96211, Note_off_c, 0, 80, 60
1, 96213, Note_off_c, 0, 68, 59
1, 96228, Note_off_c, 0, 77, 59
1, 96246, Note_off_c, 0, 89, 59
1, 96362, Control_c, 0, 64, 100
1, 96369, Note_on_c, 0, 90, 91
1, 96377, Control_c, 0, 64, 69
1, 96378, Note_on_c, 0, 78, 82
1, 96379, Note_on_c, 0, 81, 73
1, 96399, Note_on_c, 0, 69, 64
1, 96400, Control_c, 0, 64, 50
1, 96415, Control_c, 0, 64, 49
1, 96430, Control_c, 0, 64, 59
1, 96444, Control_c, 0, 64, 68
1, 96454, Note_off_c, 0, 69, 52
1, 96459, Control_c, 0, 64, 92
1, 96474, Control_c, 0, 64, 127
1, 96535, Note_on_c, 0, 54, 58
1, 96535, Note_off_c, 0, 81, 61
1, 96541, Note_on_c, 0, 62, 60
1, 96555, Note_off_c, 0, 90, 61
1, 96572, Note_off_c, 0, 78, 56
1, 96581, Note_off_c, 0, 62, 59
1, 96606, Note_off_c, 0, 54, 57
1, 96725, Note_on_c, 0, 90, 74
1, 96728, Note_on_c, 0, 78, 69
1, 96731, Note_on_c, 0, 81, 68
1, 96745, Note_on_c, 0, 69, 56
1, 96794, Note_off_c, 0, 69, 51
1, 96805, Note_off_c, 0, 90, 64
1, 96812, Note_off_c, 0, 81, 59
1, 96813, Note_off_c, 0, 78, 52
1, 97021, Note_on_c, 0, 85, 77
1, 97033, Note_on_c, 0, 77, 65
1, 97043, Note_on_c, 0, 65, 52
1, 97047, Note_on_c, 0, 73, 53
1, 97101, Note_off_c, 0, 65, 50
1, 97115, Note_off_c, 0, 77, 60
1, 97140, Note_off_c, 0, 85, 60
1, 97156, Note_off_c, 0, 73, 52
1, 97266, Note_on_c, 0, 85, 82
1, 97268, Note_on_c, 0, 77, 71
1, 97270, Note_on_c, 0, 73, 72
1, 97282, Note_on_c, 0, 65, 63
1, 97326, Note_off_c, 0, 77, 62
1, 97337, Note_off_c, 0, 65, 59
1, 97359, Note_off_c, 0, 73, 61
1, 97379, Note_off_c, 0, 85, 62
1, 97465, Note_on_c, 0, 86, 92
1, 97471, Note_on_c, 0, 74, 87
1, 97477, Note_on_c, 0, 78, 78
1, 97479, Note_on_c, 0, 66, 79
1, 97547, Note_off_c, 0, 66, 58
1, 97563, Note_off_c, 0, 86, 61
1, 97565, Note_off_c, 0, 74, 58
1, 97569, Note_off_c, 0, 78, 59
1, 97638, Control_c, 0, 64, 70
1, 97649, Note_on_c, 0, 86, 97
1, 97652, Note_on_c, 0, 66, 85
1, 97652, Control_c, 0, 64, 49
1, 97655, Note_on_c, 0, 74, 88
1, 97658, Note_on_c, 0, 78, 84
1, 97668, Control_c, 0, 64, 52
1, 97682, Control_c, 0, 64, 62
1, 97697, Control_c, 0, 64, 76
1, 97712, Control_c, 0, 64, 127
1, 97729, Note_off_c, 0, 74, 64
1, 97729, Note_off_c, 0, 86, 66
1, 97756, Note_off_c, 0, 78, 60
1, 97757, Note_off_c, 0, 66, 57
1, 97818, Note_on_c, 0, 85, 92
1, 97820, Note_on_c, 0, 77, 83
1, 97822, Note_on_c, 0, 73, 88
1, 97831, Note_on_c, 0, 65, 80
1, 97888, Note_off_c, 0, 65, 61
1, 97908, Note_off_c, 0, 85, 59
1, 97909, Note_off_c, 0, 73, 60
1, 97918, Note_off_c, 0, 77, 57
1, 97929, Poly_aftertouch_c, 0, 80, 0
1, 97986, Note_on_c, 0, 85, 98
1, 97990, Note_on_c, 0, 73, 94
1, 97990, Note_on_c, 0, 77, 80
1, 97994, Note_on_c, 0, 65, 78
1, 98047, Note_off_c, 0, 77, 64
1, 98058, Note_off_c, 0, 73, 60
1, 98076, Note_off_c, 0, 85, 60
1, 98120, Control_c, 0, 64, 92
1, 98134, Control_c, 0, 64, 60
1, 98140, Note_on_c, 0, 86, 100
1, 98140, Note_off_c, 0, 65, 23
1, 98146, Note_on_c, 0, 74, 92
1, 98149, Control_c, 0, 64, 43
1, 98151, Note_on_c, 0, 78, 82
1, 98164, Control_c, 0, 64, 56
1, 98179, Control_c, 0, 64, 70
1, 98186, Note_on_c, 0, 65, 29
1, 98194, Control_c, 0, 64, 127
1, 98209, Note_off_c, 0, 65, 57
1, 98237, Poly_aftertouch_c, 0, 67, 127
1, 98243, Note_off_c, 0, 78, 58
1, 98249, Poly_aftertouch_c, 0, 66, 0
1, 98269, Note_off_c, 0, 86, 61
1, 98272, Note_off_c, 0, 74, 57
1, 98280, Note_on_c, 0, 58, 55
1, 98284, Poly_aftertouch_c, 0, 67, 0
1, 98289, Note_on_c, 0, 50, 72
1, 98307, Note_off_c, 0, 58, 63
1, 98327, Note_on_c, 0, 86, 90
1, 98328, Note_on_c, 0, 74, 91
1, 98332, Note_on_c, 0, 78, 88
1, 98353, Note_off_c, 0, 50, 62
1, 98364, Note_off_c, 0, 86, 68
1, 98369, Note_off_c, 0, 74, 66
1, 98377, Note_off_c, 0, 78, 60
1, 98484, Note_on_c, 0, 66, 73
1, 98507, Note_on_c, 0, 82, 97
1, 98510, Note_on_c, 0, 70, 95
1, 98516, Note_on_c, 0, 73, 84
1, 98532, Note_off_c, 0, 66, 63
1, 98551, Note_off_c, 0, 70, 60
1, 98553, Note_off_c, 0, 82, 60
1, 98575, Note_off_c, 0, 73, 60
1, 98616, Poly_aftertouch_c, 0, 83, 0
1, 98672, Note_on_c, 0, 82, 94
1, 98675, Note_on_c, 0, 70, 95
1, 98678, Note_on_c, 0, 73, 91
1, 98681, Note_on_c, 0, 61, 73
1, 98704, Note_on_c, 0, 80, 47
1, 98711, Note_off_c, 0, 61, 64
1, 98725, Note_off_c, 0, 70, 62
1, 98726, Note_off_c, 0, 80, 58
1, 98735, Note_off_c, 0, 73, 60
1, 98756, Note_off_c, 0, 82, 61
1, 98855, Note_on_c, 0, 71, 97
1, 98857, Note_on_c, 0, 83, 97
1, 98857, Note_on_c, 0, 74, 85
1, 98859, Note_on_c, 0, 62, 83
1, 98916, Note_off_c, 0, 74, 59
1, 98927, Note_off_c, 0, 62, 55
1, 98946, Note_off_c, 0, 83, 59
1, 98949, Note_off_c, 0, 71, 53
1, 99076, Control_c, 0, 64, 70
1, 99080, Note_on_c, 0, 83, 96
1, 99080, Note_on_c, 0, 74, 85
1, 99085, Note_on_c, 0, 71, 91
1, 99089, Note_on_c, 0, 62, 89
1, 99090, Control_c, 0, 64, 40
1, 99092, Note_on_c, 0, 50, 75
1, 99105, Control_c, 0, 64, 0
1, 99120, Control_c, 0, 64, 41
1, 99135, Control_c, 0, 64, 61
1, 99150, Control_c, 0, 64, 76
1, 99159, Note_off_c, 0, 83, 61
1, 99164, Control_c, 0, 64, 127
1, 99167, Note_off_c, 0, 74, 66
1, 99188, Note_off_c, 0, 62, 59
1, 99188, Note_off_c, 0, 71, 63
1, 99378, Note_on_c, 0, 79, 91
1, 99387, Note_on_c, 0, 67, 90
1, 99390, Note_on_c, 0, 71, 86
1, 99393, Note_on_c, 0, 59, 83
1, 99407, Note_off_c, 0, 50, 58
1, 99473, Note_off_c, 0, 59, 59
1, 99667, Note_on_c, 0, 48, 96
1, 99676, Control_c, 0, 64, 80
1, 99691, Control_c, 0, 64, 56
1, 99706, Control_c, 0, 64, 28
1, 99721, Control_c, 0, 64, 34
1, 99736, Control_c, 0, 64, 53
1, 99751, Control_c, 0, 64, 67
1, 99760, Note_off_c, 0, 79, 62
1, 99766, Control_c, 0, 64, 88
1, 99773, Note_off_c, 0, 71, 61
1, 99780, Control_c, 0, 64, 127
1, 99787, Note_off_c, 0, 67, 60
1, 100051, Note_on_c, 0, 78, 89
1, 100055, Note_on_c, 0, 69, 79
1, 100061, Note_on_c, 0, 66, 86
1, 100070, Note_on_c, 0, 57, 81
1, 100097, Note_off_c, 0, 48, 58
1, 100177, Note_off_c, 0, 69, 57
1, 100192, Note_off_c, 0, 57, 52
1, 100207, Note_off_c, 0, 78, 53
1, 100208, Note_off_c, 0, 66, 57
1, 100304, Note_on_c, 0, 78, 91
1, 100307, Control_c, 0, 64, 117
1, 100311, Note_on_c, 0, 69, 72
1, 100311, Note_on_c, 0, 57, 78
1, 100311, Note_on_c, 0, 66, 81
1, 100320, Note_on_c, 0, 49, 71
1, 100322, Control_c, 0, 64, 68
1, 100336, Control_c, 0, 64, 0
1, 100410, Control_c, 0, 64, 33
1, 100425, Control_c, 0, 64, 50
1, 100440, Control_c, 0, 64, 58
1, 100455, Control_c, 0, 64, 61
1, 100470, Control_c, 0, 64, 64
1, 100484, Control_c, 0, 64, 67
1, 100499, Control_c, 0, 64, 74
1, 100511, Note_off_c, 0, 78, 50
1, 100514, Note_off_c, 0, 66, 58
1, 100514, Control_c, 0, 64, 82
1, 100529, Control_c, 0, 64, 93
1, 100529, Note_off_c, 0, 69, 49
1, 100544, Control_c, 0, 64, 105
1, 100559, Control_c, 0, 64, 127
1, 100565, Note_off_c, 0, 57, 58
1, 101132, Note_on_c, 0, 77, 66
1, 101143, Note_on_c, 0, 65, 53
1, 101146, Note_on_c, 0, 68, 56
1, 101160, Note_on_c, 0, 56, 47
1, 101174, Control_c, 0, 64, 107
1, 101189, Control_c, 0, 64, 74
1, 101204, Control_c, 0, 64, 55
1, 101219, Control_c, 0, 64, 0
1, 101322, Control_c, 0, 64, 29
1, 101337, Control_c, 0, 64, 39
1, 101352, Control_c, 0, 64, 50
1, 101367, Control_c, 0, 64, 56
1, 101382, Control_c, 0, 64, 60
1, 101396, Control_c, 0, 64, 63
1, 101411, Control_c, 0, 64, 66
1, 101426, Control_c, 0, 64, 70
1, 101441, Control_c, 0, 64, 74
1, 101456, Control_c, 0, 64, 81
1, 101471, Control_c, 0, 64, 89
1, 101485, Control_c, 0, 64, 103
1, 101500, Control_c, 0, 64, 127
1, 101554, Note_off_c, 0, 49, 60
1, 101560, Note_off_c, 0, 56, 58
1, 101563, Note_off_c, 0, 77, 50
1, 101689, Note_off_c, 0, 68, 58
1, 101697, Note_off_c, 0, 65, 52
1, 101894, Control_c, 0, 64, 101
1, 101908, Control_c, 0, 64, 73
1, 101923, Control_c, 0, 64, 52
1, 101938, Control_c, 0, 64, 0
1, 102186, Note_on_c, 0, 68, 98
1, 102195, Note_on_c, 0, 59, 93
1, 102199, Note_on_c, 0, 49, 98
1, 102202, Note_on_c, 0, 37, 86
1, 102204, Note_on_c, 0, 65, 80
1, 102204, Control_c, 0, 64, 46
1, 102219, Control_c, 0, 64, 71
1, 102234, Control_c, 0, 64, 82
1, 102246, Note_off_c, 0, 59, 63
1, 102249, Control_c, 0, 64, 127
1, 102285, Note_off_c, 0, 65, 61
1, 102286, Note_off_c, 0, 68, 62
1, 102298, Note_off_c, 0, 37, 61
1, 102307, Note_off_c, 0, 49, 59
1, 102832, Note_on_c, 0, 71, 100
1, 102842, Note_on_c, 0, 61, 82
1, 102845, Note_on_c, 0, 54, 82
1, 102847, Note_on_c, 0, 66, 81
1, 102848, Note_on_c, 0, 42, 73
1, 102894, Control_c, 0, 64, 96
1, 102909, Control_c, 0, 64, 71
1, 102923, Control_c, 0, 64, 53
1, 102938, Control_c, 0, 64, 0
1, 103424, Note_on_c, 0, 70, 78
1, 103475, Note_off_c, 0, 71, 52
1, 103569, Control_c, 0, 64, 36
1, 103584, Control_c, 0, 64, 44
1, 103599, Control_c, 0, 64, 51
1, 103614, Control_c, 0, 64, 55
1, 103628, Control_c, 0, 64, 59
1, 103643, Control_c, 0, 64, 62
1, 103658, Control_c, 0, 64, 64
1, 103672, Control_c, 0, 64, 67
1, 103687, Control_c, 0, 64, 71
1, 103702, Control_c, 0, 64, 79
1, 103717, Control_c, 0, 64, 90
1, 103732, Control_c, 0, 64, 113
1, 103746, Control_c, 0, 64, 127
1, 103811, Note_off_c, 0, 61, 53
1, 103883, Note_off_c, 0, 66, 58
1, 103883, Note_off_c, 0, 70, 56
1, 103956, Note_off_c, 0, 42, 54
1, 103961, Note_off_c, 0, 54, 53
1, 104169, Control_c, 0, 64, 105
1, 104184, Control_c, 0, 64, 89
1, 104199, Control_c, 0, 64, 76
1, 104214, Control_c, 0, 64, 65
1, 104229, Control_c, 0, 64, 55
1, 104244, Control_c, 0, 64, 46
1, 104258, Control_c, 0, 64, 41
1, 104273, Control_c, 0, 64, 37
1, 104288, Control_c, 0, 64, 32
1, 104303, Control_c, 0, 64, 0
1, 104565, Note_on_c, 0, 66, 93
1, 104570, Note_on_c, 0, 63, 86
1, 104571, Note_on_c, 0, 60, 81
1, 104580, Note_on_c, 0, 57, 85
1, 104584, Note_on_c, 0, 45, 72
1, 104584, Control_c, 0, 64, 36
1, 104599, Control_c, 0, 64, 55
1, 104614, Control_c, 0, 64, 63
1, 104637, Control_c, 0, 64, 70
1, 104651, Control_c, 0, 64, 82
1, 104666, Control_c, 0, 64, 111
1, 104681, Control_c, 0, 64, 127
1, 104730, Note_off_c, 0, 45, 62
1, 104759, Note_off_c, 0, 57, 62
1, 104802, Note_off_c, 0, 60, 55
1, 104831, Note_off_c, 0, 63, 59
1, 104876, Note_off_c, 0, 66, 62
1, 105142, Note_on_c, 0, 69, 95
1, 105148, Note_on_c, 0, 65, 77
1, 105150, Note_on_c, 0, 59, 81
1, 105160, Note_on_c, 0, 61, 75
1, 105164, Note_on_c, 0, 49, 67
1, 105229, Control_c, 0, 64, 86
1, 105243, Control_c, 0, 64, 68
1, 105258, Control_c, 0, 64, 52
1, 105273, Control_c, 0, 64, 0
1, 105880, Note_on_c, 0, 68, 64
1, 105914, Note_off_c, 0, 69, 57
1, 106163, Control_c, 0, 64, 30
1, 106178, Control_c, 0, 64, 42
1, 106193, Control_c, 0, 64, 51
1, 106208, Control_c, 0, 64, 56
1, 106223, Control_c, 0, 64, 60
1, 106237, Control_c, 0, 64, 63
1, 106252, Control_c, 0, 64, 67
1, 106267, Control_c, 0, 64, 73
1, 106281, Control_c, 0, 64, 80
1, 106296, Control_c, 0, 64, 89
1, 106311, Control_c, 0, 64, 103
1, 106326, Control_c, 0, 64, 127
1, 106346, Note_off_c, 0, 59, 36
1, 106406, Note_off_c, 0, 65, 49
1, 106429, Note_off_c, 0, 61, 57
1, 106436, Note_off_c, 0, 68, 51
1, 106453, Note_off_c, 0, 49, 53
1, 106534, Control_c, 0, 67, 42
1, 106549, Control_c, 0, 67, 80
1, 106564, Control_c, 0, 67, 118
1, 106578, Control_c, 0, 67, 127
1, 106638, Control_c, 0, 64, 109
1, 106652, Control_c, 0, 64, 89
1, 106667, Control_c, 0, 64, 76
1, 106682, Control_c, 0, 64, 64
1, 106697, Control_c, 0, 64, 52
1, 106711, Control_c, 0, 64, 41
1, 106726, Control_c, 0, 64, 31
1, 106741, Control_c, 0, 64, 0
1, 107894, Note_on_c, 0, 66, 51
1, 107898, Control_c, 0, 64, 27
1, 107898, Note_on_c, 0, 63, 44
1, 107908, Note_on_c, 0, 57, 34
1, 107913, Control_c, 0, 64, 31
1, 107916, Note_on_c, 0, 47, 34
1, 107920, Note_on_c, 0, 35, 34
1, 107927, Control_c, 0, 64, 36
1, 107942, Control_c, 0, 64, 43
1, 107957, Control_c, 0, 64, 49
1, 107972, Control_c, 0, 64, 54
1, 107987, Control_c, 0, 64, 57
1, 108001, Control_c, 0, 64, 59
1, 108016, Control_c, 0, 64, 60
1, 108031, Control_c, 0, 64, 62
1, 108047, Control_c, 0, 64, 64
1, 108062, Control_c, 0, 64, 66
1, 108076, Control_c, 0, 64, 68
1, 108091, Control_c, 0, 64, 70
1, 108106, Control_c, 0, 64, 73
1, 108121, Control_c, 0, 64, 75
1, 108136, Control_c, 0, 64, 78
1, 108150, Control_c, 0, 64, 80
1, 108166, Control_c, 0, 64, 83
1, 108181, Control_c, 0, 64, 85
1, 108189, Note_off_c, 0, 35, 40
1, 108196, Control_c, 0, 64, 88
1, 108211, Control_c, 0, 64, 90
1, 108225, Control_c, 0, 64, 91
1, 108240, Control_c, 0, 64, 92
1, 108255, Control_c, 0, 64, 94
1, 108265, Note_off_c, 0, 47, 54
1, 108269, Control_c, 0, 64, 95
1, 108284, Control_c, 0, 64, 96
1, 108289, Note_off_c, 0, 63, 29
1, 108315, Note_off_c, 0, 57, 42
1, 108329, Control_c, 0, 64, 98
1, 108381, Control_c, 0, 64, 100
1, 108425, Control_c, 0, 64, 102
1, 108473, Note_off_c, 0, 66, 61
1, 108499, Control_c, 0, 64, 104
1, 108805, Note_on_c, 0, 69, 44
1, 108826, Note_on_c, 0, 64, 41
1, 108836, Note_on_c, 0, 40, 30
1, 108842, Note_on_c, 0, 52, 27
1, 108845, Note_on_c, 0, 60, 32
1, 108855, Control_c, 0, 64, 100
1, 108870, Control_c, 0, 64, 96
1, 108885, Control_c, 0, 64, 90
1, 108899, Control_c, 0, 64, 81
1, 108914, Control_c, 0, 64, 72
1, 108929, Control_c, 0, 64, 63
1, 108944, Control_c, 0, 64, 53
1, 108959, Control_c, 0, 64, 45
1, 108973, Control_c, 0, 64, 40
1, 108988, Control_c, 0, 64, 38
1, 109003, Control_c, 0, 64, 37
1, 109018, Control_c, 0, 64, 35
1, 109033, Control_c, 0, 64, 31
1, 109047, Control_c, 0, 64, 28
1, 109062, Control_c, 0, 64, 0
1, 109248, Note_on_c, 0, 68, 50
1, 109282, Note_off_c, 0, 69, 37
1, 109291, Control_c, 0, 64, 30
1, 109306, Control_c, 0, 64, 36
1, 109321, Control_c, 0, 64, 47
1, 109336, Control_c, 0, 64, 56
1, 109351, Control_c, 0, 64, 62
1, 109365, Control_c, 0, 64, 64
1, 109380, Control_c, 0, 64, 66
1, 109395, Control_c, 0, 64, 69
1, 109410, Control_c, 0, 64, 72
1, 109424, Note_off_c, 0, 68, 49
1, 109424, Control_c, 0, 64, 75
1, 109439, Control_c, 0, 64, 77
1, 109454, Control_c, 0, 64, 80
1, 109469, Control_c, 0, 64, 81
1, 109484, Control_c, 0, 64, 81
1, 109552, Note_on_c, 0, 67, 48
1, 109588, Control_c, 0, 64, 79
1, 109603, Control_c, 0, 64, 76
1, 109617, Control_c, 0, 64, 68
1, 109632, Control_c, 0, 64, 60
1, 109648, Control_c, 0, 64, 48
1, 109663, Control_c, 0, 64, 38
1, 109677, Control_c, 0, 64, 31
1, 109692, Control_c, 0, 64, 27
1, 109707, Control_c, 0, 64, 0
1, 109826, Control_c, 0, 64, 28
1, 109840, Control_c, 0, 64, 35
1, 109855, Control_c, 0, 64, 43
1, 109877, Control_c, 0, 64, 51
1, 109892, Control_c, 0, 64, 56
1, 109907, Control_c, 0, 64, 59
1, 109922, Control_c, 0, 64, 62
1, 109937, Control_c, 0, 64, 64
1, 109952, Control_c, 0, 64, 66
1, 109967, Control_c, 0, 64, 68
1, 109981, Control_c, 0, 64, 70
1, 109996, Control_c, 0, 64, 73
1, 110011, Control_c, 0, 64, 75
1, 110026, Control_c, 0, 64, 79
1, 110040, Control_c, 0, 64, 82
1, 110055, Control_c, 0, 64, 86
1, 110070, Control_c, 0, 64, 89
1, 110085, Control_c, 0, 64, 92
1, 110100, Control_c, 0, 64, 96
1, 110114, Control_c, 0, 64, 98
1, 110129, Control_c, 0, 64, 101
1, 110144, Control_c, 0, 64, 103
1, 110159, Control_c, 0, 64, 105
1, 110174, Control_c, 0, 64, 107
1, 110203, Note_off_c, 0, 60, 28
1, 110223, Note_off_c, 0, 64, 38
1, 110244, Note_off_c, 0, 40, 33
1, 110304, Note_off_c, 0, 67, 39
1, 110309, Note_off_c, 0, 52, 34
1, 110426, Control_c, 0, 64, 104
1, 110441, Control_c, 0, 64, 100
1, 110456, Control_c, 0, 64, 95
1, 110470, Control_c, 0, 64, 88
1, 110485, Control_c, 0, 64, 81
1, 110500, Control_c, 0, 64, 73
1, 110515, Control_c, 0, 64, 66
1, 110530, Control_c, 0, 64, 59
1, 110545, Control_c, 0, 64, 53
1, 110560, Control_c, 0, 64, 52
1, 110575, Control_c, 0, 64, 51
1, 110604, Control_c, 0, 64, 50
1, 110626, Control_c, 0, 64, 49
1, 110641, Control_c, 0, 64, 47
1, 110656, Control_c, 0, 64, 46
1, 110670, Control_c, 0, 64, 45
1, 110685, Control_c, 0, 64, 44
1, 110700, Control_c, 0, 64, 43
1, 110715, Control_c, 0, 64, 43
1, 110819, Control_c, 0, 64, 43
1, 110834, Control_c, 0, 64, 44
1, 110849, Control_c, 0, 64, 44
1, 110863, Control_c, 0, 64, 45
1, 110878, Control_c, 0, 64, 46
1, 110893, Control_c, 0, 64, 47
1, 110908, Control_c, 0, 64, 49
1, 110923, Control_c, 0, 64, 50
1, 110938, Control_c, 0, 64, 51
1, 110952, Control_c, 0, 64, 53
1, 110967, Control_c, 0, 64, 54
1, 110982, Control_c, 0, 64, 55
1, 110997, Control_c, 0, 64, 56
1, 111011, Control_c, 0, 64, 57
1, 111026, Control_c, 0, 64, 57
1, 111041, Control_c, 0, 64, 58
1, 111056, Control_c, 0, 64, 59
1, 111070, Control_c, 0, 64, 60
1, 111085, Control_c, 0, 64, 61
1, 111100, Control_c, 0, 64, 61
1, 111115, Control_c, 0, 64, 62
1, 111130, Control_c, 0, 64, 63
1, 111144, Control_c, 0, 64, 63
1, 111159, Control_c, 0, 64, 64
1, 111174, Control_c, 0, 64, 65
1, 111189, Control_c, 0, 64, 67
1, 111190, Note_on_c, 0, 61, 33
1, 111191, Note_on_c, 0, 64, 42
1, 111197, Note_on_c, 0, 58, 29
1, 111204, Control_c, 0, 64, 69
1, 111206, Note_on_c, 0, 43, 31
1, 111219, Control_c, 0, 64, 70
1, 111225, Note_on_c, 0, 55, 27
1, 111234, Control_c, 0, 64, 72
1, 111249, Control_c, 0, 64, 75
1, 111264, Control_c, 0, 64, 77
1, 111279, Control_c, 0, 64, 81
1, 111293, Control_c, 0, 64, 84
1, 111308, Control_c, 0, 64, 88
1, 111323, Control_c, 0, 64, 92
1, 111338, Control_c, 0, 64, 98
1, 111353, Control_c, 0, 64, 105
1, 111375, Control_c, 0, 64, 117
1, 111390, Control_c, 0, 64, 127
1, 111493, Note_off_c, 0, 43, 39
1, 111586, Note_off_c, 0, 61, 38
1, 111614, Note_off_c, 0, 55, 40
1, 111717, Note_off_c, 0, 58, 29
1, 111800, Note_off_c, 0, 64, 42
1, 112304, Note_on_c, 0, 63, 41
1, 112305, Note_on_c, 0, 67, 41
1, 112319, Note_on_c, 0, 57, 30
1, 112324, Note_on_c, 0, 47, 29
1, 112348, Note_on_c, 0, 59, 20
1, 112377, Control_c, 0, 64, 96
1, 112391, Control_c, 0, 64, 81
1, 112406, Control_c, 0, 64, 69
1, 112421, Control_c, 0, 64, 59
1, 112435, Control_c, 0, 64, 50
1, 112450, Control_c, 0, 64, 47
1, 112465, Control_c, 0, 64, 47
1, 112792, Note_on_c, 0, 65, 39
1, 112808, Note_off_c, 0, 67, 52
1, 113095, Control_c, 0, 64, 47
1, 113554, Control_c, 0, 64, 48
1, 113683, Note_on_c, 0, 66, 38
1, 113740, Note_off_c, 0, 65, 37
1, 114949, Control_c, 0, 64, 48
1, 115542, Note_off_c, 0, 57, 36
1, 115553, Note_off_c, 0, 63, 34
1, 115553, Note_off_c, 0, 59, 41
1, 115554, Note_off_c, 0, 47, 36
1, 115586, Note_off_c, 0, 66, 38
1, 116462, Control_c, 0, 64, 49
1, 116477, Control_c, 0, 64, 49
1, 116491, Control_c, 0, 64, 50
1, 116506, Control_c, 0, 64, 51
1, 116521, Control_c, 0, 64, 52
1, 116536, Control_c, 0, 64, 53
1, 116551, Control_c, 0, 64, 54
1, 116565, Control_c, 0, 64, 55
1, 116580, Control_c, 0, 64, 56
1, 116595, Control_c, 0, 64, 57
1, 116617, Control_c, 0, 64, 57
1, 116632, Control_c, 0, 64, 58
1, 116647, Control_c, 0, 64, 58
1, 116662, Control_c, 0, 64, 59
1, 116677, Control_c, 0, 64, 60
1, 116691, Control_c, 0, 64, 61
1, 116706, Control_c, 0, 64, 62
1, 116721, Control_c, 0, 64, 63
1, 116736, Control_c, 0, 64, 64
1, 116751, Control_c, 0, 64, 65
1, 116765, Control_c, 0, 64, 66
1, 116780, Control_c, 0, 64, 68
1, 116795, Control_c, 0, 64, 69
1, 116809, Control_c, 0, 64, 70
1, 116824, Control_c, 0, 64, 71
1, 116840, Control_c, 0, 64, 72
1, 116855, Control_c, 0, 64, 73
1, 116870, Control_c, 0, 64, 74
1, 116885, Control_c, 0, 64, 76
1, 116893, Note_on_c, 0, 28, 43
1, 116900, Control_c, 0, 64, 78
1, 116914, Control_c, 0, 64, 80
1, 116929, Control_c, 0, 64, 83
1, 116944, Control_c, 0, 64, 87
1, 116959, Control_c, 0, 64, 90
1, 116960, Note_on_c, 0, 40, 51
1, 116974, Control_c, 0, 64, 96
1, 116988, Control_c, 0, 64, 103
1, 117003, Control_c, 0, 64, 118
1, 117018, Control_c, 0, 64, 127
1, 117240, Note_off_c, 0, 28, 40
1, 117331, Note_off_c, 0, 40, 59
1, 117783, Note_on_c, 0, 47, 46
1, 118128, Control_c, 0, 67, 123
1, 118143, Control_c, 0, 67, 120
1, 118158, Control_c, 0, 67, 118
1, 118173, Control_c, 0, 67, 114
1, 118187, Control_c, 0, 67, 110
1, 118202, Control_c, 0, 67, 106
1, 118217, Control_c, 0, 67, 103
1, 118232, Control_c, 0, 67, 101
1, 118276, Control_c, 0, 67, 99
1, 118325, Note_on_c, 0, 52, 50
1, 118350, Control_c, 0, 67, 97
1, 118409, Control_c, 0, 67, 96
1, 118423, Note_off_c, 0, 47, 57
1, 118425, Control_c, 0, 67, 95
1, 118440, Control_c, 0, 67, 95
1, 118455, Control_c, 0, 67, 94
1, 118484, Control_c, 0, 67, 93
1, 118499, Control_c, 0, 67, 93
1, 118529, Control_c, 0, 67, 92
1, 118544, Control_c, 0, 67, 79
1, 118558, Control_c, 0, 67, 62
1, 118573, Control_c, 0, 67, 49
1, 118588, Control_c, 0, 67, 40
1, 118602, Control_c, 0, 67, 36
1, 118617, Control_c, 0, 67, 36
1, 118663, Control_c, 0, 67, 35
1, 118766, Control_c, 0, 67, 36
1, 118796, Control_c, 0, 67, 37
1, 118811, Control_c, 0, 67, 38
1, 118826, Control_c, 0, 67, 38
1, 118841, Control_c, 0, 67, 39
1, 118863, Control_c, 0, 67, 40
1, 118877, Control_c, 0, 67, 40
1, 118907, Control_c, 0, 67, 41
1, 118922, Control_c, 0, 67, 42
1, 118966, Control_c, 0, 67, 42
1, 118972, Note_on_c, 0, 67, 41
1, 118981, Note_on_c, 0, 64, 29
1, 119026, Control_c, 0, 67, 43
1, 119085, Control_c, 0, 67, 43
1, 119100, Control_c, 0, 67, 44
1, 119115, Control_c, 0, 67, 45
1, 119129, Control_c, 0, 67, 46
1, 119144, Control_c, 0, 67, 46
1, 119174, Control_c, 0, 67, 47
1, 119189, Control_c, 0, 67, 48
1, 119203, Control_c, 0, 67, 49
1, 119234, Control_c, 0, 67, 50
1, 119249, Control_c, 0, 67, 50
1, 119264, Control_c, 0, 67, 51
1, 119279, Control_c, 0, 67, 51
1, 119294, Control_c, 0, 67, 52
1, 119323, Control_c, 0, 67, 53
1, 119404, Note_on_c, 0, 71, 58
1, 119419, Note_on_c, 0, 59, 38
1, 119544, Control_c, 0, 67, 53
1, 119574, Control_c, 0, 67, 54
1, 119589, Control_c, 0, 67, 55
1, 119611, Control_c, 0, 67, 56
1, 119625, Control_c, 0, 67, 57
1, 119640, Control_c, 0, 67, 58
1, 119655, Control_c, 0, 67, 59
1, 119670, Control_c, 0, 67, 61
1, 119685, Control_c, 0, 67, 62
1, 119692, Note_off_c, 0, 67, 36
1, 119699, Note_on_c, 0, 60, 41
1, 119699, Control_c, 0, 67, 64
1, 119700, Note_on_c, 0, 72, 66
1, 119714, Control_c, 0, 67, 68
1, 119726, Note_off_c, 0, 64, 45
1, 119729, Control_c, 0, 67, 74
1, 119744, Control_c, 0, 67, 83
1, 119755, Note_off_c, 0, 59, 32
1, 119755, Note_off_c, 0, 71, 58
1, 119759, Control_c, 0, 67, 93
1, 119774, Control_c, 0, 67, 104
1, 119789, Control_c, 0, 67, 113
1, 119804, Control_c, 0, 67, 123
1, 119816, Note_off_c, 0, 52, 41
1, 119818, Control_c, 0, 67, 127
1, 119945, Note_off_c, 0, 60, 54
1, 119962, Note_on_c, 0, 74, 74
1, 119973, Note_on_c, 0, 62, 42
1, 120024, Note_off_c, 0, 62, 63
1, 120032, Note_off_c, 0, 72, 59
1, 120149, Poly_aftertouch_c, 0, 72, 127
1, 120164, Note_off_c, 0, 74, 50
1, 120196, Poly_aftertouch_c, 0, 72, 0
1, 120307, Note_on_c, 0, 43, 39
1, 120397, Note_on_c, 0, 72, 65
1, 120406, Note_on_c, 0, 67, 45
1, 120424, Note_on_c, 0, 60, 32
1, 120430, Note_on_c, 0, 64, 38
1, 120434, Control_c, 0, 64, 100
1, 120448, Control_c, 0, 64, 73
1, 120463, Control_c, 0, 64, 59
1, 120478, Control_c, 0, 64, 44
1, 120493, Control_c, 0, 64, 36
1, 120508, Control_c, 0, 64, 35
1, 120522, Control_c, 0, 64, 36
1, 120537, Control_c, 0, 64, 40
1, 120552, Control_c, 0, 64, 46
1, 120567, Control_c, 0, 64, 54
1, 120582, Control_c, 0, 64, 60
1, 120596, Control_c, 0, 64, 65
1, 120611, Control_c, 0, 64, 69
1, 120626, Control_c, 0, 64, 73
1, 120641, Control_c, 0, 64, 78
1, 120656, Control_c, 0, 64, 83
1, 120671, Control_c, 0, 64, 89
1, 120686, Control_c, 0, 64, 96
1, 120701, Control_c, 0, 64, 108
1, 120716, Control_c, 0, 64, 127
1, 120745, Control_c, 0, 67, 125
1, 120788, Note_off_c, 0, 72, 38
1, 120820, Control_c, 0, 67, 123
1, 120836, Note_on_c, 0, 52, 36
1, 120867, Note_off_c, 0, 43, 40
1, 120884, Note_off_c, 0, 60, 41
1, 121085, Note_on_c, 0, 54, 48
1, 121086, Control_c, 0, 67, 121
1, 121106, Note_on_c, 0, 71, 53
1, 121109, Note_off_c, 0, 52, 34
1, 121130, Note_on_c, 0, 59, 41
1, 121131, Note_off_c, 0, 64, 44
1, 121153, Control_c, 0, 67, 119
1, 121179, Note_off_c, 0, 67, 39
1, 121183, Control_c, 0, 67, 117
1, 121242, Control_c, 0, 67, 115
1, 121328, Note_on_c, 0, 55, 62
1, 121365, Note_off_c, 0, 54, 56
1, 121619, Note_on_c, 0, 54, 54
1, 121640, Note_on_c, 0, 47, 53
1, 121680, Note_on_c, 0, 67, 39
1, 121688, Control_c, 0, 67, 117
1, 121690, Note_off_c, 0, 55, 56
1, 121717, Control_c, 0, 64, 87
1, 121721, Note_on_c, 0, 64, 27
1, 121732, Control_c, 0, 64, 71
1, 121747, Control_c, 0, 64, 60
1, 121762, Control_c, 0, 64, 51
1, 121777, Control_c, 0, 64, 50
1, 121787, Note_off_c, 0, 71, 36
1, 121792, Control_c, 0, 64, 52
1, 121807, Control_c, 0, 64, 56
1, 121821, Control_c, 0, 64, 59
1, 121834, Note_off_c, 0, 59, 43
1, 121836, Control_c, 0, 64, 63
1, 121858, Control_c, 0, 64, 66
1, 121873, Control_c, 0, 64, 73
1, 121888, Control_c, 0, 64, 80
1, 121902, Control_c, 0, 64, 87
1, 121917, Control_c, 0, 64, 95
1, 121932, Control_c, 0, 64, 103
1, 121947, Control_c, 0, 64, 114
1, 121950, Note_on_c, 0, 71, 68
1, 121956, Note_on_c, 0, 59, 41
1, 121962, Control_c, 0, 64, 127
1, 122021, Control_c, 0, 67, 115
1, 122071, Note_off_c, 0, 71, 56
1, 122073, Note_off_c, 0, 59, 44
1, 122081, Control_c, 0, 67, 112
1, 122110, Control_c, 0, 67, 109
1, 122167, Note_on_c, 0, 72, 75
1, 122169, Control_c, 0, 67, 105
1, 122180, Note_on_c, 0, 60, 55
1, 122184, Note_on_c, 0, 52, 54
1, 122184, Control_c, 0, 67, 100
1, 122199, Control_c, 0, 67, 90
1, 122211, Note_off_c, 0, 54, 50
1, 122214, Control_c, 0, 67, 78
1, 122228, Control_c, 0, 67, 68
1, 122243, Control_c, 0, 67, 61
1, 122245, Note_off_c, 0, 47, 56
1, 122258, Control_c, 0, 67, 54
1, 122260, Note_off_c, 0, 60, 61
1, 122273, Control_c, 0, 67, 46
1, 122288, Control_c, 0, 67, 0
1, 122290, Note_off_c, 0, 72, 62
1, 122382, Note_on_c, 0, 74, 81
1, 122408, Note_on_c, 0, 62, 39
1, 122438, Note_off_c, 0, 64, 46
1, 122505, Note_off_c, 0, 62, 62
1, 122507, Note_off_c, 0, 67, 36
1, 122510, Note_off_c, 0, 74, 56
1, 122599, Note_on_c, 0, 43, 57
1, 122639, Note_off_c, 0, 52, 41
1, 122670, Note_on_c, 0, 72, 76
1, 122681, Control_c, 0, 64, 97
1, 122692, Note_on_c, 0, 67, 46
1, 122696, Control_c, 0, 64, 67
1, 122698, Note_on_c, 0, 60, 44
1, 122711, Control_c, 0, 64, 48
1, 122714, Note_on_c, 0, 64, 37
1, 122725, Control_c, 0, 64, 0
1, 122747, Note_off_c, 0, 60, 0
1, 122747, Note_on_c, 0, 60, 12
1, 122755, Control_c, 0, 64, 27
1, 122770, Control_c, 0, 64, 41
1, 122784, Control_c, 0, 64, 53
1, 122799, Control_c, 0, 64, 62
1, 122814, Control_c, 0, 64, 67
1, 122829, Control_c, 0, 64, 71
1, 122844, Control_c, 0, 64, 76
1, 122859, Control_c, 0, 64, 83
1, 122874, Control_c, 0, 64, 90
1, 122883, Note_off_c, 0, 72, 57
1, 122889, Control_c, 0, 64, 100
1, 122904, Control_c, 0, 64, 113
1, 122918, Note_off_c, 0, 60, 42
1, 122919, Control_c, 0, 64, 127
1, 122964, Note_off_c, 0, 43, 37
1, 122986, Note_on_c, 0, 52, 50
1, 123080, Note_on_c, 0, 71, 63
1, 123086, Note_on_c, 0, 59, 48
1, 123098, Note_off_c, 0, 64, 40
1, 123103, Note_off_c, 0, 67, 21
1, 123115, Note_off_c, 0, 59, 55
1, 123118, Note_off_c, 0, 71, 59
1, 123192, Note_off_c, 0, 52, 36
1, 123218, Note_on_c, 0, 59, 47
1, 123220, Note_on_c, 0, 71, 67
1, 123221, Note_on_c, 0, 54, 38
1, 123285, Note_off_c, 0, 54, 56
1, 123399, Note_on_c, 0, 55, 52
1, 123436, Note_off_c, 0, 55, 53
1, 123551, Note_on_c, 0, 40, 57
1, 123634, Note_off_c, 0, 40, 60
1, 123699, Note_on_c, 0, 67, 47
1, 123703, Note_on_c, 0, 54, 68
1, 123729, Note_on_c, 0, 64, 40
1, 123798, Note_off_c, 0, 71, 33
1, 123801, Note_off_c, 0, 59, 59
1, 123826, Note_off_c, 0, 54, 58
1, 123942, Note_on_c, 0, 71, 77
1, 123949, Note_on_c, 0, 59, 56
1, 123962, Note_off_c, 0, 64, 50
1, 123979, Note_off_c, 0, 67, 62
1, 123982, Note_off_c, 0, 59, 65
1, 124004, Note_off_c, 0, 71, 61
1, 124049, Note_on_c, 0, 52, 60
1, 124093, Note_off_c, 0, 52, 59
1, 124159, Note_on_c, 0, 73, 84
1, 124183, Note_on_c, 0, 61, 53
1, 124193, Note_on_c, 0, 52, 62
1, 124258, Note_off_c, 0, 52, 59
1, 124307, Note_off_c, 0, 61, 62
1, 124378, Note_on_c, 0, 74, 92
1, 124392, Note_on_c, 0, 62, 65
1, 124443, Note_off_c, 0, 73, 56
1, 124534, Note_off_c, 0, 74, 55
1, 124545, Note_off_c, 0, 62, 59
1, 124606, Note_on_c, 0, 46, 58
1, 124712, Control_c, 0, 64, 121
1, 124715, Note_on_c, 0, 74, 80
1, 124727, Control_c, 0, 64, 72
1, 124740, Note_on_c, 0, 67, 45
1, 124741, Control_c, 0, 64, 47
1, 124750, Note_on_c, 0, 62, 35
1, 124756, Control_c, 0, 64, 0
1, 124832, Control_c, 0, 64, 27
1, 124853, Control_c, 0, 64, 39
1, 124868, Control_c, 0, 64, 50
1, 124883, Control_c, 0, 64, 58
1, 124898, Control_c, 0, 64, 62
1, 124913, Control_c, 0, 64, 66
1, 124928, Control_c, 0, 64, 72
1, 124943, Control_c, 0, 64, 80
1, 124958, Control_c, 0, 64, 88
1, 124972, Control_c, 0, 64, 97
1, 124987, Note_on_c, 0, 52, 59
1, 124987, Control_c, 0, 64, 111
1, 125002, Control_c, 0, 64, 127
1, 125016, Note_off_c, 0, 74, 62
1, 125017, Note_off_c, 0, 62, 41
1, 125182, Note_on_c, 0, 73, 78
1, 125205, Note_on_c, 0, 61, 52
1, 125220, Note_on_c, 0, 54, 51
1, 125310, Note_off_c, 0, 67, 62
1, 125323, Note_off_c, 0, 52, 31
1, 125362, Note_off_c, 0, 54, 60
1, 125368, Note_off_c, 0, 46, 60
1, 125384, Note_on_c, 0, 55, 78
1, 125476, Control_c, 0, 64, 97
1, 125490, Control_c, 0, 64, 67
1, 125498, Note_off_c, 0, 55, 58
1, 125501, Note_on_c, 0, 43, 75
1, 125505, Control_c, 0, 64, 49
1, 125535, Control_c, 0, 64, 58
1, 125550, Control_c, 0, 64, 67
1, 125564, Control_c, 0, 64, 82
1, 125566, Note_off_c, 0, 43, 62
1, 125579, Control_c, 0, 64, 127
1, 125604, Note_on_c, 0, 70, 65
1, 125649, Note_on_c, 0, 58, 85
1, 125651, Note_off_c, 0, 61, 56
1, 125688, Note_off_c, 0, 73, 56
1, 125696, Note_off_c, 0, 58, 62
1, 125834, Note_on_c, 0, 74, 96
1, 125843, Note_on_c, 0, 62, 67
1, 125950, Note_off_c, 0, 62, 46
1, 125974, Note_off_c, 0, 74, 61
1, 126076, Note_on_c, 0, 76, 95
1, 126089, Note_on_c, 0, 64, 79
1, 126215, Note_off_c, 0, 64, 56
1, 126239, Note_off_c, 0, 76, 59
1, 126252, Note_off_c, 0, 70, 62
1, 126358, Note_on_c, 0, 77, 97
1, 126368, Note_on_c, 0, 65, 84
1, 126561, Note_off_c, 0, 65, 51
1, 126666, Note_on_c, 0, 42, 78
1, 126751, Control_c, 0, 64, 98
1, 126755, Note_on_c, 0, 79, 88
1, 126766, Control_c, 0, 64, 57
1, 126770, Note_on_c, 0, 67, 71
1, 126770, Note_on_c, 0, 73, 62
1, 126781, Control_c, 0, 64, 0
1, 126840, Control_c, 0, 64, 34
1, 126855, Note_off_c, 0, 77, 55
1, 126855, Control_c, 0, 64, 58
1, 126870, Control_c, 0, 64, 70
1, 126884, Control_c, 0, 64, 83
1, 126885, Note_off_c, 0, 42, 63
1, 126899, Control_c, 0, 64, 108
1, 126914, Control_c, 0, 64, 127
1, 127067, Note_off_c, 0, 79, 59
1, 127077, Note_on_c, 0, 58, 77
1, 127140, Note_off_c, 0, 67, 36
1, 127325, Note_on_c, 0, 59, 50
1, 127397, Note_off_c, 0, 58, 53
1, 127411, Note_on_c, 0, 78, 83
1, 127438, Note_on_c, 0, 66, 48
1, 127610, Note_on_c, 0, 60, 69
1, 127644, Note_off_c, 0, 59, 63
1, 127808, Note_on_c, 0, 62, 70
1, 127814, Note_off_c, 0, 60, 62
1, 127819, Note_on_c, 0, 70, 68
1, 127986, Note_off_c, 0, 73, 49
1, 128001, Note_on_c, 0, 61, 78
1, 128038, Note_off_c, 0, 62, 61
1, 128051, Note_off_c, 0, 78, 59
1, 128052, Note_off_c, 0, 66, 61
1, 128192, Note_on_c, 0, 58, 64
1, 128218, Note_on_c, 0, 76, 85
1, 128247, Note_on_c, 0, 64, 49
1, 128263, Note_off_c, 0, 61, 37
1, 128403, Note_on_c, 0, 55, 65
1, 128411, Note_off_c, 0, 58, 64
1, 128427, Note_off_c, 0, 76, 60
1, 128437, Note_off_c, 0, 55, 65
1, 128437, Note_off_c, 0, 70, 62
1, 128443, Note_off_c, 0, 64, 62
1, 128594, Note_on_c, 0, 42, 63
1, 128642, Control_c, 0, 64, 94
1, 128657, Control_c, 0, 64, 65
1, 128671, Control_c, 0, 64, 36
1, 128673, Note_on_c, 0, 75, 79
1, 128686, Control_c, 0, 64, 0
1, 128691, Note_on_c, 0, 63, 51
1, 128694, Note_on_c, 0, 69, 58
1, 128715, Control_c, 0, 64, 40
1, 128730, Control_c, 0, 64, 57
1, 128745, Control_c, 0, 64, 65
1, 128750, Note_off_c, 0, 42, 64
1, 128760, Control_c, 0, 64, 72
1, 128775, Control_c, 0, 64, 81
1, 128789, Control_c, 0, 64, 91
1, 128804, Control_c, 0, 64, 109
1, 128820, Control_c, 0, 64, 127
1, 128892, Note_on_c, 0, 54, 57
1, 128928, Note_off_c, 0, 63, 60
1, 128931, Note_off_c, 0, 75, 62
1, 129082, Note_off_c, 0, 54, 52
1, 129083, Note_on_c, 0, 74, 81
1, 129083, Note_on_c, 0, 55, 54
1, 129110, Note_on_c, 0, 62, 56
1, 129196, Note_off_c, 0, 69, 62
1, 129262, Note_on_c, 0, 56, 66
1, 129266, Note_off_c, 0, 55, 59
1, 129483, Note_on_c, 0, 58, 56
1, 129506, Note_on_c, 0, 66, 51
1, 129509, Control_c, 0, 64, 101
1, 129514, Note_off_c, 0, 56, 54
1, 129524, Control_c, 0, 64, 67
1, 129538, Control_c, 0, 64, 44
1, 129553, Control_c, 0, 64, 0
1, 129583, Control_c, 0, 64, 34
1, 129598, Control_c, 0, 64, 50
1, 129614, Control_c, 0, 64, 61
1, 129629, Control_c, 0, 64, 68
1, 129643, Control_c, 0, 64, 74
1, 129658, Control_c, 0, 64, 78
1, 129673, Control_c, 0, 64, 82
1, 129688, Control_c, 0, 64, 89
1, 129688, Note_on_c, 0, 57, 57
1, 129688, Note_off_c, 0, 58, 56
1, 129703, Control_c, 0, 64, 96
1, 129715, Note_off_c, 0, 74, 61
1, 129717, Control_c, 0, 64, 106
1, 129728, Note_off_c, 0, 62, 60
1, 129732, Control_c, 0, 64, 127
1, 129859, Note_off_c, 0, 57, 57
1, 129892, Note_on_c, 0, 54, 44
1, 129902, Note_on_c, 0, 73, 71
1, 129928, Note_on_c, 0, 61, 49
1, 130028, Control_c, 0, 67, 36
1, 130043, Control_c, 0, 67, 38
1, 130101, Note_off_c, 0, 54, 60
1, 130103, Note_on_c, 0, 51, 53
1, 130109, Control_c, 0, 67, 38
1, 130135, Note_off_c, 0, 51, 63
1, 130154, Control_c, 0, 67, 38
1, 130183, Control_c, 0, 67, 37
1, 130251, Note_off_c, 0, 61, 46
1, 130272, Control_c, 0, 67, 38
1, 130303, Note_off_c, 0, 73, 49
1, 130332, Control_c, 0, 67, 39
1, 130347, Control_c, 0, 67, 39
1, 130361, Control_c, 0, 67, 40
1, 130380, Note_on_c, 0, 35, 50
1, 130391, Control_c, 0, 67, 41
1, 130406, Control_c, 0, 67, 42
1, 130422, Control_c, 0, 64, 80
1, 130422, Control_c, 0, 67, 42
1, 130436, Control_c, 0, 64, 60
1, 130436, Control_c, 0, 67, 44
1, 130443, Note_on_c, 0, 72, 60
1, 130451, Control_c, 0, 64, 30
1, 130451, Control_c, 0, 67, 63
1, 130457, Note_on_c, 0, 60, 40
1, 130466, Control_c, 0, 64, 0
1, 130466, Control_c, 0, 67, 79
1, 130481, Control_c, 0, 67, 90
1, 130496, Control_c, 0, 64, 45
1, 130496, Control_c, 0, 67, 99
1, 130510, Control_c, 0, 64, 59
1, 130510, Control_c, 0, 67, 107
1, 130525, Control_c, 0, 64, 66
1, 130525, Control_c, 0, 67, 115
1, 130540, Control_c, 0, 64, 74
1, 130540, Control_c, 0, 67, 122
1, 130547, Note_off_c, 0, 35, 62
1, 130555, Control_c, 0, 64, 80
1, 130555, Control_c, 0, 67, 127
1, 130570, Control_c, 0, 64, 86
1, 130584, Control_c, 0, 64, 91
1, 130599, Control_c, 0, 64, 96
1, 130614, Control_c, 0, 64, 103
1, 130627, Control_c, 0, 64, 113
1, 130642, Control_c, 0, 64, 127
1, 130705, Note_off_c, 0, 72, 48
1, 130737, Note_off_c, 0, 60, 54
1, 130753, Note_on_c, 0, 51, 59
1, 130970, Note_off_c, 0, 51, 52
1, 130979, Note_on_c, 0, 71, 70
1, 130998, Note_on_c, 0, 52, 48
1, 131000, Note_off_c, 0, 66, 64
1, 131006, Note_on_c, 0, 59, 51
1, 131171, Note_off_c, 0, 52, 58
1, 131174, Note_on_c, 0, 53, 60
1, 131392, Note_off_c, 0, 53, 55
1, 131406, Control_c, 0, 64, 106
1, 131420, Note_on_c, 0, 55, 48
1, 131421, Control_c, 0, 64, 81
1, 131435, Note_on_c, 0, 63, 47
1, 131436, Control_c, 0, 64, 64
1, 131451, Control_c, 0, 64, 46
1, 131466, Control_c, 0, 64, 0
1, 131554, Control_c, 0, 64, 31
1, 131569, Control_c, 0, 64, 40
1, 131592, Control_c, 0, 64, 49
1, 131606, Control_c, 0, 64, 57
1, 131621, Control_c, 0, 64, 61
1, 131636, Control_c, 0, 64, 63
1, 131651, Control_c, 0, 64, 65
1, 131653, Note_on_c, 0, 54, 40
1, 131666, Control_c, 0, 64, 68
1, 131680, Control_c, 0, 64, 71
1, 131692, Note_off_c, 0, 55, 37
1, 131692, Note_off_c, 0, 71, 50
1, 131695, Control_c, 0, 64, 76
1, 131710, Control_c, 0, 64, 81
1, 131725, Control_c, 0, 64, 85
1, 131735, Note_off_c, 0, 59, 37
1, 131739, Control_c, 0, 64, 90
1, 131754, Control_c, 0, 64, 96
1, 131769, Control_c, 0, 64, 103
1, 131784, Control_c, 0, 64, 110
1, 131799, Control_c, 0, 64, 118
1, 131814, Control_c, 0, 64, 127
1, 131926, Note_on_c, 0, 69, 54
1, 131929, Note_on_c, 0, 51, 42
1, 131933, Note_on_c, 0, 57, 38
1, 131968, Note_off_c, 0, 54, 32
1, 131977, Control_c, 0, 64, 103
1, 131992, Control_c, 0, 64, 84
1, 132007, Control_c, 0, 64, 69
1, 132022, Control_c, 0, 64, 56
1, 132037, Control_c, 0, 64, 43
1, 132052, Control_c, 0, 64, 39
1, 132067, Control_c, 0, 64, 40
1, 132082, Control_c, 0, 64, 45
1, 132097, Control_c, 0, 64, 50
1, 132111, Control_c, 0, 64, 55
1, 132126, Control_c, 0, 64, 59
1, 132141, Control_c, 0, 64, 62
1, 132155, Control_c, 0, 64, 64
1, 132170, Control_c, 0, 64, 67
1, 132185, Control_c, 0, 64, 71
1, 132200, Control_c, 0, 64, 75
1, 132211, Note_on_c, 0, 48, 48
1, 132215, Control_c, 0, 64, 79
1, 132229, Control_c, 0, 64, 83
1, 132244, Control_c, 0, 64, 88
1, 132259, Control_c, 0, 64, 93
1, 132273, Control_c, 0, 64, 100
1, 132283, Note_off_c, 0, 63, 50
1, 132284, Note_off_c, 0, 51, 36
1, 132288, Control_c, 0, 64, 110
1, 132303, Control_c, 0, 64, 127
1, 132306, Note_off_c, 0, 57, 41
1, 132314, Note_off_c, 0, 48, 62
1, 132377, Note_off_c, 0, 69, 35
1, 132636, Note_on_c, 0, 69, 52
1, 132639, Note_on_c, 0, 40, 39
1, 132657, Note_on_c, 0, 57, 32
1, 132660, Note_on_c, 0, 62, 36
1, 132696, Control_c, 0, 64, 87
1, 132711, Control_c, 0, 64, 69
1, 132726, Control_c, 0, 64, 54
1, 132741, Control_c, 0, 64, 38
1, 132755, Control_c, 0, 64, 0
1, 132800, Control_c, 0, 64, 27
1, 132815, Control_c, 0, 64, 34
1, 132830, Control_c, 0, 64, 44
1, 132845, Control_c, 0, 64, 54
1, 132860, Control_c, 0, 64, 61
1, 132875, Control_c, 0, 64, 64
1, 132890, Control_c, 0, 64, 66
1, 132904, Control_c, 0, 64, 68
1, 132919, Control_c, 0, 64, 71
1, 132934, Control_c, 0, 64, 74
1, 132949, Control_c, 0, 64, 77
1, 132964, Control_c, 0, 64, 81
1, 132978, Control_c, 0, 64, 84
1, 132993, Control_c, 0, 64, 89
1, 133008, Control_c, 0, 64, 94
1, 133023, Control_c, 0, 64, 99
1, 133030, Note_off_c, 0, 69, 56
1, 133031, Note_on_c, 0, 47, 53
1, 133038, Control_c, 0, 64, 107
1, 133052, Control_c, 0, 64, 121
1, 133067, Control_c, 0, 64, 127
1, 133081, Note_off_c, 0, 57, 41
1, 133208, Control_c, 0, 67, 118
1, 133223, Control_c, 0, 67, 114
1, 133282, Control_c, 0, 67, 112
1, 133305, Note_off_c, 0, 47, 61
1, 133312, Note_on_c, 0, 46, 58
1, 133351, Note_on_c, 0, 68, 60
1, 133360, Note_on_c, 0, 56, 47
1, 133400, Control_c, 0, 67, 109
1, 133489, Control_c, 0, 67, 107
1, 133520, Note_off_c, 0, 62, 50
1, 133540, Note_on_c, 0, 47, 69
1, 133575, Note_off_c, 0, 46, 45
1, 133578, Control_c, 0, 67, 105
1, 133591, Note_off_c, 0, 40, 54
1, 133593, Control_c, 0, 67, 95
1, 133608, Control_c, 0, 67, 78
1, 133623, Control_c, 0, 67, 67
1, 133632, Note_off_c, 0, 47, 59
1, 133638, Control_c, 0, 67, 62
1, 133653, Control_c, 0, 67, 62
1, 133668, Control_c, 0, 67, 61
1, 133732, Note_off_c, 0, 56, 35
1, 133756, Control_c, 0, 67, 62
1, 133766, Note_on_c, 0, 48, 65
1, 133778, Note_on_c, 0, 41, 55
1, 133786, Control_c, 0, 67, 62
1, 133797, Note_on_c, 0, 63, 49
1, 133800, Control_c, 0, 64, 91
1, 133800, Control_c, 0, 67, 63
1, 133815, Control_c, 0, 64, 66
1, 133838, Control_c, 0, 64, 43
1, 133838, Control_c, 0, 67, 63
1, 133853, Control_c, 0, 64, 0
1, 133853, Control_c, 0, 67, 64
1, 133897, Control_c, 0, 64, 34
1, 133912, Control_c, 0, 64, 49
1, 133912, Control_c, 0, 67, 63
1, 133926, Control_c, 0, 64, 59
1, 133926, Control_c, 0, 67, 63
1, 133941, Control_c, 0, 64, 64
1, 133941, Control_c, 0, 67, 62
1, 133956, Control_c, 0, 64, 68
1, 133956, Control_c, 0, 67, 62
1, 133971, Control_c, 0, 64, 72
1, 133971, Control_c, 0, 67, 61
1, 133986, Control_c, 0, 64, 76
1, 133986, Control_c, 0, 67, 59
1, 134000, Control_c, 0, 64, 82
1, 134000, Control_c, 0, 67, 58
1, 134007, Note_off_c, 0, 68, 26
1, 134015, Control_c, 0, 64, 90
1, 134015, Control_c, 0, 67, 58
1, 134030, Control_c, 0, 64, 99
1, 134030, Control_c, 0, 67, 57
1, 134045, Control_c, 0, 64, 114
1, 134045, Control_c, 0, 67, 55
1, 134057, Note_off_c, 0, 41, 55
1, 134060, Control_c, 0, 64, 127
1, 134060, Control_c, 0, 67, 54
1, 134075, Control_c, 0, 67, 49
1, 134078, Note_on_c, 0, 69, 69
1, 134079, Note_off_c, 0, 48, 61
1, 134089, Control_c, 0, 67, 0
1, 134095, Note_on_c, 0, 57, 50
1, 134157, Note_off_c, 0, 57, 62
1, 134195, Note_off_c, 0, 69, 60
1, 134228, Note_off_c, 0, 63, 62
1, 134309, Note_on_c, 0, 71, 76
1, 134311, Note_on_c, 0, 57, 60
1, 134314, Note_on_c, 0, 59, 63
1, 134368, Note_off_c, 0, 57, 61
1, 134375, Note_off_c, 0, 59, 54
1, 134398, Note_off_c, 0, 71, 58
1, 134498, Note_on_c, 0, 72, 79
1, 134510, Note_on_c, 0, 60, 64
1, 134551, Note_off_c, 0, 72, 62
1, 134553, Note_off_c, 0, 60, 58
1, 134687, Note_on_c, 0, 40, 66
1, 134762, Note_on_c, 0, 69, 81
1, 134780, Control_c, 0, 64, 78
1, 134784, Note_on_c, 0, 62, 57
1, 134787, Note_on_c, 0, 57, 52
1, 134795, Control_c, 0, 64, 54
1, 134809, Control_c, 0, 64, 0
1, 134898, Control_c, 0, 64, 40
1, 134913, Control_c, 0, 64, 55
1, 134928, Control_c, 0, 64, 63
1, 134943, Control_c, 0, 64, 67
1, 134957, Control_c, 0, 64, 70
1, 134962, Note_off_c, 0, 69, 58
1, 134963, Note_off_c, 0, 57, 53
1, 134972, Control_c, 0, 64, 73
1, 134987, Control_c, 0, 64, 78
1, 135002, Control_c, 0, 64, 83
1, 135017, Control_c, 0, 64, 88
1, 135031, Control_c, 0, 64, 95
1, 135043, Note_on_c, 0, 47, 63
1, 135046, Control_c, 0, 64, 101
1, 135057, Note_off_c, 0, 62, 59
1, 135061, Control_c, 0, 64, 114
1, 135075, Control_c, 0, 64, 127
1, 135122, Note_on_c, 0, 56, 74
1, 135123, Note_on_c, 0, 68, 76
1, 135146, Note_off_c, 0, 68, 66
1, 135157, Note_off_c, 0, 56, 60
1, 135183, Note_off_c, 0, 47, 59
1, 135221, Note_on_c, 0, 46, 59
1, 135236, Note_on_c, 0, 68, 75
1, 135248, Note_on_c, 0, 56, 61
1, 135412, Note_off_c, 0, 56, 55
1, 135423, Note_on_c, 0, 47, 69
1, 135450, Note_off_c, 0, 46, 28
1, 135453, Note_off_c, 0, 40, 55
1, 135492, Note_off_c, 0, 47, 62
1, 135587, Control_c, 0, 64, 89
1, 135602, Control_c, 0, 64, 63
1, 135617, Note_on_c, 0, 48, 76
1, 135617, Control_c, 0, 64, 29
1, 135620, Note_on_c, 0, 41, 63
1, 135629, Note_on_c, 0, 63, 67
1, 135632, Control_c, 0, 64, 0
1, 135662, Control_c, 0, 64, 33
1, 135677, Control_c, 0, 64, 50
1, 135692, Control_c, 0, 64, 62
1, 135706, Control_c, 0, 64, 68
1, 135721, Control_c, 0, 64, 74
1, 135722, Note_off_c, 0, 68, 40
1, 135736, Control_c, 0, 64, 81
1, 135741, Note_off_c, 0, 41, 63
1, 135746, Note_off_c, 0, 48, 62
1, 135751, Control_c, 0, 64, 92
1, 135766, Control_c, 0, 64, 106
1, 135780, Control_c, 0, 64, 127
1, 135828, Note_on_c, 0, 69, 79
1, 135841, Note_on_c, 0, 57, 60
1, 135854, Control_c, 0, 64, 111
1, 135869, Control_c, 0, 64, 79
1, 135884, Control_c, 0, 64, 61
1, 135898, Control_c, 0, 64, 51
1, 135900, Note_on_c, 0, 42, 78
1, 135913, Control_c, 0, 64, 55
1, 135919, Note_off_c, 0, 57, 60
1, 135928, Control_c, 0, 64, 62
1, 135943, Control_c, 0, 64, 68
1, 135949, Note_off_c, 0, 69, 59
1, 135952, Note_off_c, 0, 63, 60
1, 135958, Control_c, 0, 64, 77
1, 135972, Control_c, 0, 64, 87
1, 135984, Note_off_c, 0, 42, 63
1, 135987, Control_c, 0, 64, 96
1, 136003, Control_c, 0, 64, 108
1, 136018, Control_c, 0, 64, 127
1, 136030, Note_on_c, 0, 71, 89
1, 136041, Note_on_c, 0, 59, 72
1, 136052, Note_on_c, 0, 57, 70
1, 136083, Note_off_c, 0, 59, 58
1, 136100, Note_off_c, 0, 57, 59
1, 136123, Note_off_c, 0, 71, 59
1, 136216, Note_on_c, 0, 72, 91
1, 136228, Note_on_c, 0, 60, 78
1, 136263, Note_off_c, 0, 60, 53
1, 136316, Note_off_c, 0, 72, 56
1, 136416, Note_on_c, 0, 43, 77
1, 136470, Note_on_c, 0, 72, 86
1, 136470, Control_c, 0, 64, 98
1, 136485, Control_c, 0, 64, 68
1, 136486, Note_on_c, 0, 60, 65
1, 136486, Note_on_c, 0, 65, 66
1, 136500, Control_c, 0, 64, 31
1, 136515, Control_c, 0, 64, 0
1, 136707, Control_c, 0, 64, 48
1, 136721, Control_c, 0, 64, 57
1, 136736, Control_c, 0, 64, 61
1, 136746, Note_on_c, 0, 50, 81
1, 136751, Control_c, 0, 64, 63
1, 136766, Control_c, 0, 64, 67
1, 136781, Control_c, 0, 64, 71
1, 136797, Control_c, 0, 64, 76
1, 136804, Note_off_c, 0, 72, 60
1, 136812, Control_c, 0, 64, 83
1, 136827, Note_off_c, 0, 60, 53
1, 136833, Control_c, 0, 64, 90
1, 136848, Control_c, 0, 64, 98
1, 136863, Control_c, 0, 64, 108
1, 136878, Control_c, 0, 64, 127
1, 136950, Note_on_c, 0, 49, 75
1, 136968, Note_on_c, 0, 71, 89
1, 136974, Note_off_c, 0, 50, 62
1, 136980, Note_on_c, 0, 59, 83
1, 136993, Note_off_c, 0, 65, 62
1, 137119, Note_on_c, 0, 50, 84
1, 137145, Note_off_c, 0, 43, 61
1, 137150, Note_off_c, 0, 49, 62
1, 137175, Note_off_c, 0, 50, 65
1, 137322, Control_c, 0, 64, 80
1, 137324, Note_on_c, 0, 51, 85
1, 137328, Note_on_c, 0, 44, 77
1, 137337, Note_on_c, 0, 66, 74
1, 137337, Control_c, 0, 64, 43
1, 137342, Note_off_c, 0, 59, 55
1, 137352, Control_c, 0, 64, 0
1, 137386, Note_off_c, 0, 71, 59
1, 137426, Control_c, 0, 64, 55
1, 137441, Control_c, 0, 64, 67
1, 137456, Control_c, 0, 64, 71
1, 137470, Control_c, 0, 64, 74
1, 137485, Control_c, 0, 64, 79
1, 137500, Control_c, 0, 64, 88
1, 137515, Control_c, 0, 64, 102
1, 137517, Note_on_c, 0, 72, 89
1, 137527, Note_on_c, 0, 60, 69
1, 137530, Control_c, 0, 64, 127
1, 137531, Note_off_c, 0, 44, 62
1, 137588, Note_off_c, 0, 66, 56
1, 137614, Note_off_c, 0, 60, 57
1, 137635, Note_off_c, 0, 72, 61
1, 137721, Note_on_c, 0, 74, 96
1, 137728, Note_on_c, 0, 60, 61
1, 137733, Note_on_c, 0, 62, 76
1, 137748, Note_off_c, 0, 60, 67
1, 137758, Note_off_c, 0, 62, 67
1, 137787, Note_off_c, 0, 74, 64
1, 137816, Note_off_c, 0, 51, 59
1, 137883, Note_on_c, 0, 75, 97
1, 137894, Note_on_c, 0, 63, 85
1, 137942, Note_off_c, 0, 63, 58
1, 137954, Note_off_c, 0, 75, 60
1, 138072, Note_on_c, 0, 43, 81
1, 138142, Note_on_c, 0, 72, 92
1, 138158, Note_on_c, 0, 60, 72
1, 138160, Control_c, 0, 64, 117
1, 138165, Note_on_c, 0, 65, 62
1, 138175, Control_c, 0, 64, 82
1, 138190, Control_c, 0, 64, 58
1, 138205, Control_c, 0, 64, 0
1, 138293, Control_c, 0, 64, 33
1, 138308, Control_c, 0, 64, 55
1, 138330, Control_c, 0, 64, 69
1, 138345, Control_c, 0, 64, 87
1, 138360, Control_c, 0, 64, 127
1, 138361, Note_off_c, 0, 72, 57
1, 138372, Note_off_c, 0, 60, 59
1, 138389, Note_on_c, 0, 50, 69
1, 138420, Note_off_c, 0, 65, 59
1, 138479, Note_on_c, 0, 71, 82
1, 138482, Note_on_c, 0, 59, 79
1, 138501, Note_off_c, 0, 71, 66
1, 138507, Note_off_c, 0, 59, 69
1, 138544, Note_off_c, 0, 50, 54
1, 138568, Note_on_c, 0, 59, 78
1, 138568, Note_on_c, 0, 71, 92
1, 138584, Note_on_c, 0, 49, 57
1, 138739, Note_on_c, 0, 50, 86
1, 138741, Note_off_c, 0, 43, 61
1, 138792, Note_off_c, 0, 50, 66
1, 138798, Note_off_c, 0, 49, 41
1, 138938, Control_c, 0, 64, 99
1, 138941, Note_on_c, 0, 44, 76
1, 138943, Note_on_c, 0, 51, 80
1, 138953, Control_c, 0, 64, 67
1, 138956, Note_on_c, 0, 66, 86
1, 138968, Control_c, 0, 64, 30
1, 138983, Control_c, 0, 64, 0
1, 139012, Control_c, 0, 64, 27
1, 139019, Note_off_c, 0, 71, 55
1, 139027, Control_c, 0, 64, 52
1, 139039, Note_off_c, 0, 59, 57
1, 139042, Control_c, 0, 64, 63
1, 139057, Control_c, 0, 64, 71
1, 139079, Control_c, 0, 64, 80
1, 139094, Control_c, 0, 64, 91
1, 139109, Control_c, 0, 64, 109
1, 139123, Control_c, 0, 64, 127
1, 139185, Note_off_c, 0, 44, 55
1, 139220, Note_on_c, 0, 72, 90
1, 139237, Note_on_c, 0, 60, 61
1, 139272, Control_c, 0, 64, 109
1, 139287, Control_c, 0, 64, 72
1, 139302, Control_c, 0, 64, 44
1, 139317, Control_c, 0, 64, 0
1, 139324, Note_on_c, 0, 45, 75
1, 139376, Control_c, 0, 64, 44
1, 139391, Control_c, 0, 64, 59
1, 139406, Control_c, 0, 64, 68
1, 139410, Note_off_c, 0, 60, 57
1, 139421, Control_c, 0, 64, 77
1, 139433, Note_off_c, 0, 45, 59
1, 139436, Control_c, 0, 64, 85
1, 139450, Note_off_c, 0, 72, 56
1, 139451, Control_c, 0, 64, 92
1, 139465, Control_c, 0, 64, 102
1, 139480, Control_c, 0, 64, 118
1, 139495, Control_c, 0, 64, 127
1, 139557, Note_on_c, 0, 74, 84
1, 139567, Note_on_c, 0, 60, 62
1, 139591, Note_on_c, 0, 62, 42
1, 139665, Note_off_c, 0, 60, 59
1, 139680, Note_off_c, 0, 62, 56
1, 139714, Note_off_c, 0, 74, 61
1, 139732, Note_off_c, 0, 66, 60
1, 139749, Note_off_c, 0, 51, 60
1, 139910, Note_on_c, 0, 75, 83
1, 139944, Note_on_c, 0, 63, 53
1, 140048, Note_off_c, 0, 63, 56
1, 140106, Note_off_c, 0, 75, 55
1, 140199, Control_c, 0, 67, 40
1, 140214, Control_c, 0, 67, 56
1, 140229, Control_c, 0, 67, 69
1, 140244, Control_c, 0, 67, 80
1, 140259, Control_c, 0, 67, 89
1, 140273, Control_c, 0, 67, 97
1, 140288, Control_c, 0, 67, 105
1, 140303, Control_c, 0, 67, 113
1, 140318, Control_c, 0, 67, 121
1, 140333, Control_c, 0, 67, 126
1, 140473, Note_on_c, 0, 75, 65
1, 140492, Note_on_c, 0, 34, 40
1, 140502, Note_on_c, 0, 46, 37
1, 140540, Control_c, 0, 64, 98
1, 140555, Control_c, 0, 64, 76
1, 140577, Control_c, 0, 64, 60
1, 140592, Control_c, 0, 64, 40
1, 140607, Control_c, 0, 64, 0
1, 140681, Control_c, 0, 64, 34
1, 140695, Control_c, 0, 64, 45
1, 140710, Control_c, 0, 64, 55
1, 140725, Control_c, 0, 64, 62
1, 140740, Control_c, 0, 64, 64
1, 140755, Control_c, 0, 64, 67
1, 140769, Control_c, 0, 64, 70
1, 140784, Control_c, 0, 64, 74
1, 140800, Control_c, 0, 64, 78
1, 140815, Control_c, 0, 64, 83
1, 140830, Control_c, 0, 64, 88
1, 140844, Control_c, 0, 64, 94
1, 140859, Control_c, 0, 64, 103
1, 140874, Control_c, 0, 64, 119
1, 140889, Control_c, 0, 64, 127
1, 140893, Note_on_c, 0, 63, 44
1, 140896, Note_off_c, 0, 34, 45
1, 140950, Note_off_c, 0, 46, 36
1, 140983, Note_off_c, 0, 63, 54
1, 141156, Note_on_c, 0, 67, 51
1, 141164, Note_on_c, 0, 35, 53
1, 141171, Control_c, 0, 64, 91
1, 141180, Note_on_c, 0, 47, 33
1, 141186, Control_c, 0, 64, 72
1, 141189, Note_on_c, 0, 62, 41
1, 141200, Control_c, 0, 64, 60
1, 141215, Control_c, 0, 64, 49
1, 141230, Control_c, 0, 64, 47
1, 141245, Control_c, 0, 64, 50
1, 141260, Control_c, 0, 64, 55
1, 141275, Control_c, 0, 64, 59
1, 141279, Note_off_c, 0, 62, 61
1, 141290, Control_c, 0, 64, 62
1, 141305, Control_c, 0, 64, 66
1, 141326, Control_c, 0, 64, 72
1, 141341, Control_c, 0, 64, 82
1, 141356, Control_c, 0, 64, 92
1, 141371, Control_c, 0, 64, 104
1, 141386, Control_c, 0, 64, 127
1, 141427, Note_off_c, 0, 35, 57
1, 141432, Note_on_c, 0, 63, 53
1, 141457, Note_off_c, 0, 47, 58
1, 141499, Note_off_c, 0, 63, 56
1, 141512, Note_off_c, 0, 75, 50
1, 141581, Note_off_c, 0, 67, 37
1, 141651, Note_on_c, 0, 36, 47
1, 141655, Note_on_c, 0, 63, 46
1, 141663, Note_on_c, 0, 48, 45
1, 141683, Control_c, 0, 64, 85
1, 141698, Control_c, 0, 64, 67
1, 141713, Control_c, 0, 64, 54
1, 141728, Control_c, 0, 64, 49
1, 141742, Control_c, 0, 64, 54
1, 141757, Control_c, 0, 64, 61
1, 141772, Control_c, 0, 64, 66
1, 141787, Control_c, 0, 64, 71
1, 141802, Control_c, 0, 64, 76
1, 141816, Control_c, 0, 64, 81
1, 141831, Control_c, 0, 64, 85
1, 141846, Control_c, 0, 64, 90
1, 141855, Note_on_c, 0, 67, 72
1, 141859, Control_c, 0, 64, 96
1, 141874, Control_c, 0, 64, 103
1, 141886, Note_off_c, 0, 48, 56
1, 141889, Control_c, 0, 64, 108
1, 141902, Note_off_c, 0, 36, 52
1, 141904, Control_c, 0, 64, 117
1, 141919, Control_c, 0, 64, 127
1, 142050, Note_on_c, 0, 66, 79
1, 142071, Note_on_c, 0, 35, 52
1, 142074, Note_on_c, 0, 47, 47
1, 142074, Control_c, 0, 64, 125
1, 142089, Control_c, 0, 64, 91
1, 142104, Control_c, 0, 64, 71
1, 142115, Note_off_c, 0, 67, 57
1, 142119, Control_c, 0, 64, 56
1, 142134, Control_c, 0, 64, 43
1, 142148, Control_c, 0, 64, 40
1, 142163, Control_c, 0, 64, 45
1, 142178, Control_c, 0, 64, 55
1, 142193, Control_c, 0, 64, 62
1, 142208, Control_c, 0, 64, 66
1, 142223, Control_c, 0, 64, 70
1, 142238, Control_c, 0, 64, 75
1, 142241, Note_off_c, 0, 47, 60
1, 142243, Note_on_c, 0, 67, 74
1, 142248, Note_off_c, 0, 35, 59
1, 142253, Control_c, 0, 64, 80
1, 142267, Control_c, 0, 64, 84
1, 142282, Control_c, 0, 64, 90
1, 142286, Note_off_c, 0, 66, 57
1, 142297, Control_c, 0, 64, 95
1, 142303, Note_off_c, 0, 63, 58
1, 142312, Control_c, 0, 64, 100
1, 142327, Control_c, 0, 64, 104
1, 142341, Control_c, 0, 64, 107
1, 142371, Control_c, 0, 64, 111
1, 142476, Control_c, 0, 64, 106
1, 142481, Note_on_c, 0, 68, 66
1, 142490, Control_c, 0, 64, 91
1, 142491, Note_off_c, 0, 67, 60
1, 142498, Note_on_c, 0, 46, 43
1, 142501, Note_on_c, 0, 34, 46
1, 142505, Control_c, 0, 64, 75
1, 142520, Control_c, 0, 64, 62
1, 142535, Control_c, 0, 64, 47
1, 142550, Control_c, 0, 64, 38
1, 142564, Control_c, 0, 64, 37
1, 142579, Control_c, 0, 64, 41
1, 142594, Control_c, 0, 64, 50
1, 142609, Control_c, 0, 64, 56
1, 142623, Control_c, 0, 64, 60
1, 142638, Control_c, 0, 64, 63
1, 142653, Control_c, 0, 64, 67
1, 142668, Control_c, 0, 64, 72
1, 142683, Control_c, 0, 64, 77
1, 142697, Control_c, 0, 64, 81
1, 142712, Control_c, 0, 64, 85
1, 142727, Control_c, 0, 64, 90
1, 142735, Note_on_c, 0, 63, 50
1, 142742, Control_c, 0, 64, 95
1, 142757, Control_c, 0, 64, 99
1, 142768, Note_off_c, 0, 46, 37
1, 142771, Control_c, 0, 64, 104
1, 142786, Control_c, 0, 64, 108
1, 142801, Control_c, 0, 64, 111
1, 142816, Note_off_c, 0, 63, 52
1, 142822, Note_off_c, 0, 34, 44
1, 142838, Control_c, 0, 64, 115
1, 142927, Control_c, 0, 64, 100
1, 142938, Note_on_c, 0, 67, 65
1, 142942, Control_c, 0, 64, 83
1, 142955, Note_on_c, 0, 62, 53
1, 142957, Control_c, 0, 64, 68
1, 142961, Note_on_c, 0, 33, 51
1, 142962, Note_on_c, 0, 45, 46
1, 142965, Note_off_c, 0, 68, 37
1, 142971, Control_c, 0, 64, 55
1, 142986, Control_c, 0, 64, 48
1, 143001, Control_c, 0, 64, 52
1, 143016, Control_c, 0, 64, 59
1, 143030, Note_off_c, 0, 62, 57
1, 143031, Control_c, 0, 64, 64
1, 143046, Control_c, 0, 64, 69
1, 143061, Control_c, 0, 64, 76
1, 143075, Control_c, 0, 64, 86
1, 143090, Control_c, 0, 64, 96
1, 143105, Control_c, 0, 64, 110
1, 143120, Control_c, 0, 64, 127
1, 143127, Note_off_c, 0, 45, 60
1, 143143, Note_off_c, 0, 33, 58
1, 143157, Note_on_c, 0, 63, 61
1, 143222, Note_off_c, 0, 67, 57
1, 143230, Note_off_c, 0, 63, 62
1, 143373, Note_on_c, 0, 44, 50
1, 143374, Note_on_c, 0, 32, 53
1, 143391, Note_on_c, 0, 63, 50
1, 143416, Control_c, 0, 64, 96
1, 143431, Control_c, 0, 64, 79
1, 143445, Control_c, 0, 64, 66
1, 143460, Control_c, 0, 64, 55
1, 143475, Control_c, 0, 64, 49
1, 143490, Control_c, 0, 64, 48
1, 143505, Control_c, 0, 64, 52
1, 143520, Control_c, 0, 64, 56
1, 143535, Control_c, 0, 64, 60
1, 143549, Control_c, 0, 64, 63
1, 143572, Control_c, 0, 64, 67
1, 143587, Control_c, 0, 64, 72
1, 143591, Note_on_c, 0, 67, 71
1, 143601, Control_c, 0, 64, 78
1, 143616, Control_c, 0, 64, 86
1, 143631, Control_c, 0, 64, 92
1, 143645, Control_c, 0, 64, 97
1, 143660, Control_c, 0, 64, 103
1, 143675, Control_c, 0, 64, 113
1, 143690, Control_c, 0, 64, 127
1, 143723, Note_off_c, 0, 32, 56
1, 143734, Note_off_c, 0, 44, 58
1, 143889, Note_on_c, 0, 66, 73
1, 143914, Note_on_c, 0, 33, 49
1, 143914, Note_on_c, 0, 45, 37
1, 143953, Note_off_c, 0, 67, 59
1, 143971, Control_c, 0, 64, 89
1, 143988, Control_c, 0, 64, 70
1, 144003, Control_c, 0, 64, 57
1, 144017, Control_c, 0, 64, 43
1, 144032, Control_c, 0, 64, 40
1, 144047, Control_c, 0, 64, 44
1, 144061, Control_c, 0, 64, 51
1, 144076, Control_c, 0, 64, 57
1, 144091, Control_c, 0, 64, 62
1, 144106, Control_c, 0, 64, 65
1, 144121, Control_c, 0, 64, 70
1, 144135, Control_c, 0, 64, 75
1, 144140, Note_off_c, 0, 45, 59
1, 144150, Control_c, 0, 64, 80
1, 144164, Note_on_c, 0, 67, 75
1, 144165, Control_c, 0, 64, 84
1, 144180, Control_c, 0, 64, 88
1, 144195, Control_c, 0, 64, 93
1, 144196, Note_off_c, 0, 63, 56
1, 144206, Note_off_c, 0, 66, 57
1, 144209, Control_c, 0, 64, 99
1, 144220, Note_off_c, 0, 33, 35
1, 144224, Control_c, 0, 64, 109
1, 144239, Control_c, 0, 64, 125
1, 144253, Control_c, 0, 64, 127
1, 144423, Note_on_c, 0, 70, 67
1, 144438, Note_off_c, 0, 67, 59
1, 144451, Note_on_c, 0, 46, 40
1, 144454, Control_c, 0, 64, 102
1, 144457, Note_on_c, 0, 34, 45
1, 144468, Control_c, 0, 64, 80
1, 144483, Control_c, 0, 64, 65
1, 144498, Control_c, 0, 64, 52
1, 144513, Control_c, 0, 64, 44
1, 144528, Control_c, 0, 64, 45
1, 144542, Control_c, 0, 64, 50
1, 144557, Control_c, 0, 64, 55
1, 144572, Control_c, 0, 64, 60
1, 144587, Control_c, 0, 64, 64
1, 144602, Control_c, 0, 64, 67
1, 144617, Control_c, 0, 64, 71
1, 144632, Control_c, 0, 64, 77
1, 144646, Control_c, 0, 64, 82
1, 144661, Control_c, 0, 64, 86
1, 144676, Control_c, 0, 64, 91
1, 144691, Control_c, 0, 64, 96
1, 144703, Note_off_c, 0, 34, 41
1, 144706, Control_c, 0, 64, 103
1, 144721, Control_c, 0, 64, 111
1, 144735, Control_c, 0, 64, 127
1, 144740, Note_off_c, 0, 46, 37
1, 144773, Note_on_c, 0, 68, 63
1, 144792, Note_off_c, 0, 70, 34
1, 144807, Note_on_c, 0, 63, 37
1, 144881, Note_off_c, 0, 63, 44
1, 144936, Note_off_c, 0, 68, 54
1, 145002, Control_c, 0, 64, 111
1, 145015, Note_on_c, 0, 67, 57
1, 145017, Control_c, 0, 64, 83
1, 145032, Control_c, 0, 64, 63
1, 145038, Note_on_c, 0, 62, 47
1, 145039, Note_on_c, 0, 35, 41
1, 145043, Note_on_c, 0, 47, 36
1, 145047, Control_c, 0, 64, 50
1, 145070, Control_c, 0, 64, 49
1, 145084, Control_c, 0, 64, 55
1, 145099, Control_c, 0, 64, 62
1, 145114, Control_c, 0, 64, 67
1, 145129, Control_c, 0, 64, 73
1, 145140, Note_off_c, 0, 62, 56
1, 145144, Control_c, 0, 64, 80
1, 145158, Control_c, 0, 64, 85
1, 145173, Control_c, 0, 64, 91
1, 145188, Control_c, 0, 64, 97
1, 145203, Control_c, 0, 64, 103
1, 145217, Control_c, 0, 64, 111
1, 145232, Control_c, 0, 64, 127
1, 145276, Note_on_c, 0, 63, 51
1, 145284, Note_off_c, 0, 35, 52
1, 145323, Note_off_c, 0, 47, 58
1, 145329, Note_off_c, 0, 67, 56
1, 145346, Note_off_c, 0, 63, 55
1, 145510, Note_on_c, 0, 63, 47
1, 145514, Control_c, 0, 64, 92
1, 145518, Note_on_c, 0, 36, 47
1, 145522, Note_on_c, 0, 48, 49
1, 145529, Control_c, 0, 64, 76
1, 145543, Control_c, 0, 64, 63
1, 145558, Control_c, 0, 64, 57
1, 145573, Control_c, 0, 64, 56
1, 145588, Control_c, 0, 64, 59
1, 145603, Control_c, 0, 64, 62
1, 145618, Control_c, 0, 64, 64
1, 145633, Control_c, 0, 64, 67
1, 145648, Control_c, 0, 64, 72
1, 145663, Control_c, 0, 64, 78
1, 145678, Control_c, 0, 64, 83
1, 145693, Control_c, 0, 64, 88
1, 145707, Control_c, 0, 64, 93
1, 145722, Control_c, 0, 64, 99
1, 145731, Note_on_c, 0, 67, 67
1, 145737, Control_c, 0, 64, 107
1, 145752, Control_c, 0, 64, 125
1, 145767, Control_c, 0, 64, 127
1, 145794, Note_off_c, 0, 48, 55
1, 145846, Note_off_c, 0, 36, 35
1, 145940, Note_on_c, 0, 66, 81
1, 145961, Note_on_c, 0, 47, 56
1, 145963, Note_on_c, 0, 35, 57
1, 145996, Control_c, 0, 64, 103
1, 146002, Note_off_c, 0, 67, 60
1, 146011, Control_c, 0, 64, 82
1, 146026, Control_c, 0, 64, 67
1, 146040, Control_c, 0, 64, 58
1, 146055, Control_c, 0, 64, 55
1, 146070, Control_c, 0, 64, 58
1, 146085, Control_c, 0, 64, 61
1, 146100, Control_c, 0, 64, 64
1, 146114, Control_c, 0, 64, 68
1, 146129, Control_c, 0, 64, 74
1, 146144, Note_off_c, 0, 47, 60
1, 146144, Control_c, 0, 64, 81
1, 146149, Note_on_c, 0, 67, 79
1, 146158, Control_c, 0, 64, 89
1, 146160, Note_off_c, 0, 35, 58
1, 146173, Control_c, 0, 64, 93
1, 146188, Control_c, 0, 64, 98
1, 146191, Note_off_c, 0, 66, 57
1, 146203, Control_c, 0, 64, 104
1, 146205, Note_off_c, 0, 63, 58
1, 146218, Control_c, 0, 64, 111
1, 146232, Control_c, 0, 64, 127
1, 146382, Control_c, 0, 64, 100
1, 146383, Note_on_c, 0, 68, 62
1, 146396, Note_on_c, 0, 46, 44
1, 146397, Control_c, 0, 64, 81
1, 146402, Note_on_c, 0, 34, 48
1, 146411, Control_c, 0, 64, 65
1, 146414, Note_off_c, 0, 67, 61
1, 146426, Control_c, 0, 64, 53
1, 146441, Control_c, 0, 64, 45
1, 146456, Control_c, 0, 64, 44
1, 146471, Control_c, 0, 64, 46
1, 146486, Control_c, 0, 64, 50
1, 146501, Control_c, 0, 64, 54
1, 146515, Control_c, 0, 64, 57
1, 146530, Control_c, 0, 64, 60
1, 146545, Control_c, 0, 64, 63
1, 146567, Control_c, 0, 64, 66
1, 146582, Control_c, 0, 64, 71
1, 146597, Control_c, 0, 64, 74
1, 146611, Control_c, 0, 64, 78
1, 146626, Control_c, 0, 64, 81
1, 146641, Control_c, 0, 64, 85
1, 146656, Control_c, 0, 64, 90
1, 146670, Control_c, 0, 64, 97
1, 146685, Control_c, 0, 64, 103
1, 146700, Note_on_c, 0, 67, 60
1, 146700, Control_c, 0, 64, 111
1, 146709, Note_on_c, 0, 63, 49
1, 146715, Control_c, 0, 64, 127
1, 146727, Note_off_c, 0, 34, 38
1, 146746, Note_off_c, 0, 46, 32
1, 146769, Note_off_c, 0, 63, 40
1, 146779, Note_off_c, 0, 68, 29
1, 146878, Control_c, 0, 64, 94
1, 146893, Control_c, 0, 64, 74
1, 146908, Control_c, 0, 64, 60
1, 146913, Note_on_c, 0, 45, 45
1, 146915, Note_on_c, 0, 33, 51
1, 146923, Control_c, 0, 64, 50
1, 146925, Note_on_c, 0, 62, 58
1, 146937, Control_c, 0, 64, 53
1, 146952, Control_c, 0, 64, 60
1, 146967, Control_c, 0, 64, 66
1, 146981, Control_c, 0, 64, 75
1, 146996, Control_c, 0, 64, 85
1, 146999, Note_off_c, 0, 62, 62
1, 147011, Control_c, 0, 64, 95
1, 147013, Note_off_c, 0, 67, 62
1, 147026, Control_c, 0, 64, 107
1, 147041, Control_c, 0, 64, 127
1, 147082, Note_off_c, 0, 45, 60
1, 147115, Note_on_c, 0, 67, 83
1, 147129, Note_off_c, 0, 33, 58
1, 147137, Note_on_c, 0, 63, 62
1, 147317, Note_off_c, 0, 63, 39
1, 147358, Note_on_c, 0, 32, 50
1, 147365, Note_on_c, 0, 44, 43
1, 147419, Control_c, 0, 64, 109
1, 147434, Control_c, 0, 64, 83
1, 147436, Note_on_c, 0, 71, 72
1, 147449, Control_c, 0, 64, 66
1, 147464, Control_c, 0, 64, 53
1, 147472, Note_off_c, 0, 67, 59
1, 147479, Control_c, 0, 64, 45
1, 147493, Control_c, 0, 64, 43
1, 147508, Control_c, 0, 64, 44
1, 147523, Control_c, 0, 64, 49
1, 147538, Control_c, 0, 64, 55
1, 147553, Control_c, 0, 64, 60
1, 147568, Control_c, 0, 64, 63
1, 147583, Control_c, 0, 64, 67
1, 147598, Control_c, 0, 64, 74
1, 147612, Control_c, 0, 64, 81
1, 147627, Control_c, 0, 64, 86
1, 147642, Control_c, 0, 64, 90
1, 147657, Control_c, 0, 64, 94
1, 147672, Control_c, 0, 64, 98
1, 147686, Control_c, 0, 64, 103
1, 147701, Control_c, 0, 64, 108
1, 147715, Note_off_c, 0, 32, 33
1, 147716, Note_on_c, 0, 70, 70
1, 147716, Control_c, 0, 64, 113
1, 147717, Note_off_c, 0, 44, 31
1, 147721, Note_off_c, 0, 71, 48
1, 147731, Control_c, 0, 64, 118
1, 147738, Note_on_c, 0, 63, 51
1, 147746, Control_c, 0, 64, 127
1, 147846, Note_off_c, 0, 63, 50
1, 147909, Control_c, 0, 64, 114
1, 147924, Control_c, 0, 64, 94
1, 147939, Control_c, 0, 64, 76
1, 147953, Control_c, 0, 64, 62
1, 147968, Control_c, 0, 64, 49
1, 147984, Control_c, 0, 64, 40
1, 147993, Note_on_c, 0, 62, 42
1, 147994, Note_on_c, 0, 31, 34
1, 147997, Note_on_c, 0, 43, 32
1, 147999, Control_c, 0, 64, 39
1, 148014, Control_c, 0, 64, 40
1, 148028, Control_c, 0, 64, 44
1, 148043, Control_c, 0, 64, 50
1, 148066, Control_c, 0, 64, 56
1, 148080, Control_c, 0, 64, 60
1, 148095, Control_c, 0, 64, 63
1, 148110, Control_c, 0, 64, 67
1, 148125, Control_c, 0, 64, 70
1, 148134, Note_off_c, 0, 62, 62
1, 148138, Note_off_c, 0, 70, 55
1, 148140, Control_c, 0, 64, 73
1, 148155, Control_c, 0, 64, 75
1, 148170, Control_c, 0, 64, 78
1, 148184, Control_c, 0, 64, 80
1, 148199, Control_c, 0, 64, 82
1, 148214, Control_c, 0, 64, 85
1, 148229, Control_c, 0, 64, 87
1, 148243, Control_c, 0, 64, 89
1, 148258, Control_c, 0, 64, 90
1, 148269, Note_off_c, 0, 43, 39
1, 148273, Control_c, 0, 64, 92
1, 148288, Control_c, 0, 64, 92
1, 148303, Control_c, 0, 64, 94
1, 148317, Control_c, 0, 64, 95
1, 148329, Note_on_c, 0, 70, 58
1, 148332, Control_c, 0, 64, 95
1, 148345, Note_off_c, 0, 31, 40
1, 148358, Note_on_c, 0, 63, 34
1, 148377, Control_c, 0, 64, 97
1, 148417, Note_off_c, 0, 63, 41
1, 148480, Control_c, 0, 64, 99
1, 148653, Note_off_c, 0, 70, 29
1, 148940, Note_on_c, 0, 42, 23
1, 148955, Note_on_c, 0, 71, 53
1, 148972, Note_on_c, 0, 30, 28
1, 148977, Note_on_c, 0, 63, 33
1, 148991, Control_c, 0, 64, 95
1, 149006, Control_c, 0, 64, 90
1, 149021, Control_c, 0, 64, 80
1, 149036, Control_c, 0, 64, 68
1, 149051, Control_c, 0, 64, 56
1, 149065, Control_c, 0, 64, 43
1, 149080, Control_c, 0, 64, 33
1, 149095, Control_c, 0, 64, 28
1, 149139, Control_c, 0, 64, 32
1, 149154, Control_c, 0, 64, 38
1, 149169, Control_c, 0, 64, 48
1, 149183, Control_c, 0, 64, 56
1, 149198, Control_c, 0, 64, 61
1, 149213, Control_c, 0, 64, 64
1, 149228, Control_c, 0, 64, 66
1, 149243, Control_c, 0, 64, 68
1, 149258, Control_c, 0, 64, 70
1, 149273, Control_c, 0, 64, 72
1, 149288, Control_c, 0, 64, 74
1, 149303, Control_c, 0, 64, 76
1, 149306, Note_off_c, 0, 30, 41
1, 149317, Control_c, 0, 64, 79
1, 149332, Control_c, 0, 64, 81
1, 149347, Control_c, 0, 64, 83
1, 149362, Control_c, 0, 64, 85
1, 149365, Note_off_c, 0, 42, 39
1, 149376, Control_c, 0, 64, 87
1, 149391, Control_c, 0, 64, 88
1, 149406, Control_c, 0, 64, 90
1, 149421, Control_c, 0, 64, 91
1, 149428, Note_on_c, 0, 59, 19
1, 149430, Note_off_c, 0, 63, 39
1, 149436, Control_c, 0, 64, 91
1, 149450, Control_c, 0, 64, 92
1, 149465, Control_c, 0, 64, 93
1, 149480, Control_c, 0, 64, 94
1, 149494, Note_off_c, 0, 59, 49
1, 149495, Control_c, 0, 64, 95
1, 149539, Control_c, 0, 64, 97
1, 149613, Note_off_c, 0, 71, 31
1, 149746, Note_on_c, 0, 63, 45
1, 149751, Note_on_c, 0, 31, 32
1, 149755, Note_on_c, 0, 58, 34
1, 149759, Note_on_c, 0, 43, 27
1, 149908, Note_off_c, 0, 58, 34
1, 149976, Note_off_c, 0, 43, 37
1, 150019, Note_off_c, 0, 31, 42
1, 150024, Note_on_c, 0, 59, 45
1, 150121, Note_off_c, 0, 59, 52
1, 150125, Note_off_c, 0, 63, 41
1, 150276, Note_on_c, 0, 59, 38
1, 150288, Control_c, 0, 64, 96
1, 150304, Note_on_c, 0, 32, 43
1, 150310, Control_c, 0, 64, 89
1, 150311, Note_on_c, 0, 44, 37
1, 150325, Control_c, 0, 64, 81
1, 150340, Control_c, 0, 64, 72
1, 150355, Control_c, 0, 64, 63
1, 150370, Control_c, 0, 64, 58
1, 150385, Control_c, 0, 64, 57
1, 150400, Control_c, 0, 64, 58
1, 150415, Control_c, 0, 64, 60
1, 150429, Control_c, 0, 64, 62
1, 150444, Control_c, 0, 64, 63
1, 150459, Control_c, 0, 64, 65
1, 150474, Control_c, 0, 64, 67
1, 150489, Control_c, 0, 64, 71
1, 150504, Control_c, 0, 64, 74
1, 150519, Control_c, 0, 64, 77
1, 150528, Note_on_c, 0, 63, 57
1, 150534, Control_c, 0, 64, 78
1, 150549, Control_c, 0, 64, 80
1, 150564, Control_c, 0, 64, 81
1, 150578, Control_c, 0, 64, 83
1, 150587, Note_off_c, 0, 44, 52
1, 150593, Control_c, 0, 64, 84
1, 150608, Control_c, 0, 64, 86
1, 150622, Control_c, 0, 64, 86
1, 150637, Control_c, 0, 64, 87
1, 150652, Control_c, 0, 64, 87
1, 150667, Control_c, 0, 64, 88
1, 150696, Control_c, 0, 64, 88
1, 150746, Note_off_c, 0, 63, 55
1, 150751, Note_on_c, 0, 62, 61
1, 150760, Note_on_c, 0, 43, 45
1, 150769, Note_on_c, 0, 31, 38
1, 150770, Control_c, 0, 64, 88
1, 150785, Control_c, 0, 64, 85
1, 150800, Control_c, 0, 64, 79
1, 150815, Control_c, 0, 64, 70
1, 150829, Control_c, 0, 64, 62
1, 150845, Control_c, 0, 64, 54
1, 150860, Control_c, 0, 64, 54
1, 150868, Note_off_c, 0, 32, 41
1, 150875, Control_c, 0, 64, 55
1, 150890, Control_c, 0, 64, 58
1, 150904, Control_c, 0, 64, 60
1, 150919, Control_c, 0, 64, 63
1, 150934, Control_c, 0, 64, 66
1, 150948, Control_c, 0, 64, 71
1, 150952, Note_off_c, 0, 43, 58
1, 150962, Note_on_c, 0, 63, 73
1, 150963, Control_c, 0, 64, 77
1, 150975, Note_off_c, 0, 31, 39
1, 150978, Control_c, 0, 64, 81
1, 150993, Control_c, 0, 64, 84
1, 151008, Control_c, 0, 64, 86
1, 151023, Control_c, 0, 64, 88
1, 151024, Note_off_c, 0, 62, 55
1, 151037, Control_c, 0, 64, 90
1, 151060, Control_c, 0, 64, 93
1, 151075, Control_c, 0, 64, 94
1, 151090, Control_c, 0, 64, 94
1, 151097, Note_off_c, 0, 59, 42
1, 151104, Control_c, 0, 64, 95
1, 151194, Control_c, 0, 64, 94
1, 151209, Control_c, 0, 64, 93
1, 151224, Control_c, 0, 64, 86
1, 151225, Note_on_c, 0, 42, 40
1, 151228, Note_on_c, 0, 64, 56
1, 151230, Note_on_c, 0, 30, 39
1, 151239, Control_c, 0, 64, 75
1, 151253, Control_c, 0, 64, 64
1, 151259, Note_off_c, 0, 63, 52
1, 151268, Control_c, 0, 64, 50
1, 151283, Control_c, 0, 64, 43
1, 151298, Control_c, 0, 64, 43
1, 151313, Control_c, 0, 64, 46
1, 151327, Control_c, 0, 64, 50
1, 151342, Control_c, 0, 64, 55
1, 151357, Control_c, 0, 64, 59
1, 151371, Control_c, 0, 64, 63
1, 151386, Control_c, 0, 64, 67
1, 151401, Control_c, 0, 64, 71
1, 151416, Control_c, 0, 64, 74
1, 151431, Control_c, 0, 64, 76
1, 151444, Note_off_c, 0, 42, 36
1, 151446, Control_c, 0, 64, 78
1, 151461, Control_c, 0, 64, 80
1, 151476, Note_off_c, 0, 30, 40
1, 151476, Control_c, 0, 64, 82
1, 151491, Control_c, 0, 64, 84
1, 151502, Note_on_c, 0, 59, 50
1, 151505, Control_c, 0, 64, 86
1, 151520, Control_c, 0, 64, 87
1, 151535, Control_c, 0, 64, 88
1, 151541, Note_off_c, 0, 59, 60
1, 151550, Control_c, 0, 64, 89
1, 151565, Control_c, 0, 64, 90
1, 151579, Control_c, 0, 64, 90
1, 151609, Control_c, 0, 64, 91
1, 151668, Control_c, 0, 64, 91
1, 151721, Note_on_c, 0, 63, 52
1, 151735, Note_on_c, 0, 41, 37
1, 151737, Note_on_c, 0, 58, 49
1, 151737, Note_off_c, 0, 64, 34
1, 151745, Note_on_c, 0, 29, 46
1, 151757, Control_c, 0, 64, 92
1, 151786, Control_c, 0, 64, 92
1, 151824, Control_c, 0, 64, 93
1, 151839, Control_c, 0, 64, 93
1, 151851, Note_off_c, 0, 58, 55
1, 151853, Control_c, 0, 64, 94
1, 151868, Control_c, 0, 64, 95
1, 151883, Control_c, 0, 64, 95
1, 151913, Control_c, 0, 64, 96
1, 151942, Control_c, 0, 64, 98
1, 151944, Note_on_c, 0, 59, 60
1, 151998, Note_off_c, 0, 41, 52
1, 152002, Control_c, 0, 64, 100
1, 152043, Note_off_c, 0, 63, 34
1, 152062, Note_off_c, 0, 29, 40
1, 152075, Note_off_c, 0, 59, 52
1, 152262, Note_on_c, 0, 59, 40
1, 152267, Note_on_c, 0, 40, 42
1, 152271, Note_on_c, 0, 28, 49
1, 152328, Control_c, 0, 64, 93
1, 152342, Control_c, 0, 64, 83
1, 152357, Control_c, 0, 64, 72
1, 152372, Control_c, 0, 64, 61
1, 152387, Control_c, 0, 64, 51
1, 152401, Control_c, 0, 64, 49
1, 152416, Control_c, 0, 64, 50
1, 152431, Control_c, 0, 64, 53
1, 152446, Control_c, 0, 64, 57
1, 152461, Control_c, 0, 64, 61
1, 152475, Control_c, 0, 64, 64
1, 152490, Control_c, 0, 64, 67
1, 152505, Control_c, 0, 64, 71
1, 152519, Control_c, 0, 64, 74
1, 152534, Control_c, 0, 64, 77
1, 152557, Control_c, 0, 64, 79
1, 152572, Control_c, 0, 64, 81
1, 152587, Control_c, 0, 64, 83
1, 152601, Control_c, 0, 64, 86
1, 152616, Control_c, 0, 64, 88
1, 152617, Note_on_c, 0, 63, 49
1, 152618, Note_off_c, 0, 28, 57
1, 152619, Note_off_c, 0, 40, 57
1, 152631, Control_c, 0, 64, 90
1, 152646, Control_c, 0, 64, 92
1, 152661, Control_c, 0, 64, 92
1, 152675, Control_c, 0, 64, 93
1, 152705, Control_c, 0, 64, 94
1, 152810, Control_c, 0, 64, 92
1, 152816, Note_on_c, 0, 29, 41
1, 152824, Control_c, 0, 64, 88
1, 152825, Note_on_c, 0, 41, 44
1, 152832, Note_on_c, 0, 62, 60
1, 152839, Control_c, 0, 64, 80
1, 152846, Note_off_c, 0, 63, 48
1, 152854, Control_c, 0, 64, 69
1, 152869, Control_c, 0, 64, 59
1, 152884, Control_c, 0, 64, 50
1, 152898, Control_c, 0, 64, 46
1, 152913, Control_c, 0, 64, 46
1, 152928, Control_c, 0, 64, 47
1, 152943, Control_c, 0, 64, 49
1, 152957, Control_c, 0, 64, 54
1, 152972, Control_c, 0, 64, 59
1, 152987, Control_c, 0, 64, 63
1, 153002, Control_c, 0, 64, 69
1, 153017, Note_off_c, 0, 41, 58
1, 153017, Control_c, 0, 64, 74
1, 153032, Control_c, 0, 64, 78
1, 153042, Note_on_c, 0, 63, 71
1, 153047, Control_c, 0, 64, 80
1, 153061, Control_c, 0, 64, 82
1, 153076, Control_c, 0, 64, 85
1, 153091, Control_c, 0, 64, 87
1, 153104, Note_off_c, 0, 62, 52
1, 153106, Control_c, 0, 64, 90
1, 153121, Control_c, 0, 64, 92
1, 153136, Control_c, 0, 64, 93
1, 153150, Control_c, 0, 64, 94
1, 153152, Note_off_c, 0, 29, 39
1, 153156, Note_off_c, 0, 59, 38
1, 153180, Control_c, 0, 64, 94
1, 153269, Control_c, 0, 64, 94
1, 153282, Note_on_c, 0, 66, 67
1, 153284, Control_c, 0, 64, 92
1, 153288, Note_on_c, 0, 30, 41
1, 153288, Note_on_c, 0, 42, 46
1, 153306, Control_c, 0, 64, 82
1, 153321, Control_c, 0, 64, 71
1, 153333, Note_off_c, 0, 63, 58
1, 153336, Control_c, 0, 64, 60
1, 153350, Control_c, 0, 64, 49
1, 153365, Control_c, 0, 64, 44
1, 153395, Control_c, 0, 64, 46
1, 153410, Control_c, 0, 64, 50
1, 153424, Control_c, 0, 64, 54
1, 153439, Control_c, 0, 64, 57
1, 153454, Control_c, 0, 64, 59
1, 153469, Control_c, 0, 64, 61
1, 153484, Control_c, 0, 64, 64
1, 153498, Control_c, 0, 64, 67
1, 153513, Control_c, 0, 64, 71
1, 153528, Control_c, 0, 64, 74
1, 153535, Note_off_c, 0, 30, 41
1, 153542, Control_c, 0, 64, 76
1, 153557, Control_c, 0, 64, 78
1, 153573, Control_c, 0, 64, 80
1, 153588, Control_c, 0, 64, 82
1, 153601, Note_on_c, 0, 64, 57
1, 153601, Note_off_c, 0, 42, 37
1, 153603, Control_c, 0, 64, 84
1, 153618, Control_c, 0, 64, 85
1, 153624, Note_off_c, 0, 66, 37
1, 153631, Note_on_c, 0, 59, 36
1, 153633, Control_c, 0, 64, 86
1, 153647, Control_c, 0, 64, 87
1, 153662, Control_c, 0, 64, 88
1, 153673, Note_off_c, 0, 59, 49
1, 153677, Control_c, 0, 64, 89
1, 153707, Control_c, 0, 64, 89
1, 153810, Control_c, 0, 64, 87
1, 153824, Note_off_c, 0, 64, 54
1, 153825, Control_c, 0, 64, 80
1, 153827, Note_on_c, 0, 63, 59
1, 153841, Control_c, 0, 64, 69
1, 153844, Note_on_c, 0, 58, 42
1, 153854, Note_on_c, 0, 31, 34
1, 153855, Control_c, 0, 64, 58
1, 153857, Note_on_c, 0, 43, 29
1, 153870, Control_c, 0, 64, 46
1, 153885, Control_c, 0, 64, 41
1, 153900, Control_c, 0, 64, 43
1, 153915, Control_c, 0, 64, 49
1, 153918, Note_off_c, 0, 58, 0
1, 153918, Note_on_c, 0, 58, 8
1, 153929, Control_c, 0, 64, 55
1, 153944, Control_c, 0, 64, 61
1, 153959, Control_c, 0, 64, 65
1, 153974, Control_c, 0, 64, 70
1, 153989, Control_c, 0, 64, 76
1, 154001, Note_off_c, 0, 58, 58
1, 154003, Control_c, 0, 64, 80
1, 154018, Control_c, 0, 64, 84
1, 154033, Control_c, 0, 64, 88
1, 154049, Note_off_c, 0, 43, 41
1, 154051, Note_on_c, 0, 59, 64
1, 154055, Control_c, 0, 64, 93
1, 154070, Control_c, 0, 64, 98
1, 154085, Control_c, 0, 64, 103
1, 154100, Control_c, 0, 64, 107
1, 154110, Note_off_c, 0, 31, 42
1, 154115, Control_c, 0, 64, 111
1, 154129, Control_c, 0, 64, 116
1, 154144, Control_c, 0, 64, 121
1, 154159, Control_c, 0, 64, 125
1, 154165, Note_off_c, 0, 59, 60
1, 154188, Control_c, 0, 64, 127
1, 154263, Control_c, 0, 64, 125
1, 154278, Control_c, 0, 64, 122
1, 154286, Note_on_c, 0, 32, 53
1, 154287, Note_on_c, 0, 44, 52
1, 154290, Note_off_c, 0, 63, 33
1, 154292, Note_on_c, 0, 59, 55
1, 154292, Control_c, 0, 64, 114
1, 154307, Control_c, 0, 64, 100
1, 154322, Control_c, 0, 64, 84
1, 154337, Control_c, 0, 64, 67
1, 154352, Control_c, 0, 64, 55
1, 154367, Control_c, 0, 64, 47
1, 154397, Control_c, 0, 64, 52
1, 154412, Control_c, 0, 64, 58
1, 154427, Control_c, 0, 64, 63
1, 154442, Control_c, 0, 64, 66
1, 154457, Control_c, 0, 64, 70
1, 154471, Control_c, 0, 64, 75
1, 154486, Control_c, 0, 64, 80
1, 154492, Note_on_c, 0, 63, 70
1, 154501, Control_c, 0, 64, 83
1, 154516, Control_c, 0, 64, 85
1, 154531, Control_c, 0, 64, 88
1, 154545, Control_c, 0, 64, 91
1, 154560, Control_c, 0, 64, 94
1, 154575, Control_c, 0, 64, 96
1, 154579, Note_off_c, 0, 44, 53
1, 154604, Control_c, 0, 64, 98
1, 154702, Note_on_c, 0, 62, 74
1, 154704, Note_on_c, 0, 43, 54
1, 154709, Note_on_c, 0, 31, 49
1, 154719, Note_off_c, 0, 32, 42
1, 154751, Note_off_c, 0, 63, 60
1, 154752, Control_c, 0, 64, 87
1, 154767, Control_c, 0, 64, 75
1, 154782, Control_c, 0, 64, 63
1, 154804, Control_c, 0, 64, 52
1, 154819, Control_c, 0, 64, 47
1, 154849, Control_c, 0, 64, 50
1, 154864, Control_c, 0, 64, 55
1, 154878, Control_c, 0, 64, 58
1, 154893, Control_c, 0, 64, 61
1, 154908, Control_c, 0, 64, 64
1, 154913, Note_on_c, 0, 63, 74
1, 154922, Control_c, 0, 64, 68
1, 154923, Note_off_c, 0, 43, 59
1, 154928, Note_off_c, 0, 31, 61
1, 154937, Control_c, 0, 64, 73
1, 154952, Control_c, 0, 64, 78
1, 154967, Control_c, 0, 64, 81
1, 154972, Note_off_c, 0, 62, 62
1, 154977, Note_off_c, 0, 59, 60
1, 154982, Control_c, 0, 64, 82
1, 154996, Control_c, 0, 64, 85
1, 155011, Control_c, 0, 64, 87
1, 155026, Control_c, 0, 64, 90
1, 155041, Control_c, 0, 64, 92
1, 155056, Control_c, 0, 64, 93
1, 155071, Control_c, 0, 64, 94
1, 155100, Control_c, 0, 64, 94
1, 155216, Note_on_c, 0, 42, 40
1, 155220, Control_c, 0, 64, 94
1, 155222, Note_off_c, 0, 63, 52
1, 155223, Note_on_c, 0, 30, 38
1, 155226, Note_on_c, 0, 64, 67
1, 155235, Control_c, 0, 64, 92
1, 155249, Control_c, 0, 64, 86
1, 155264, Control_c, 0, 64, 76
1, 155279, Control_c, 0, 64, 66
1, 155294, Control_c, 0, 64, 54
1, 155309, Control_c, 0, 64, 44
1, 155324, Control_c, 0, 64, 40
1, 155353, Control_c, 0, 64, 41
1, 155368, Control_c, 0, 64, 43
1, 155383, Control_c, 0, 64, 46
1, 155398, Control_c, 0, 64, 51
1, 155412, Control_c, 0, 64, 57
1, 155427, Control_c, 0, 64, 61
1, 155442, Control_c, 0, 64, 64
1, 155457, Control_c, 0, 64, 67
1, 155472, Control_c, 0, 64, 69
1, 155487, Control_c, 0, 64, 73
1, 155491, Note_off_c, 0, 42, 51
1, 155501, Control_c, 0, 64, 75
1, 155516, Control_c, 0, 64, 77
1, 155531, Control_c, 0, 64, 79
1, 155533, Note_on_c, 0, 63, 59
1, 155544, Note_off_c, 0, 30, 41
1, 155548, Note_off_c, 0, 64, 54
1, 155549, Note_on_c, 0, 59, 53
1, 155553, Control_c, 0, 64, 82
1, 155568, Control_c, 0, 64, 84
1, 155583, Control_c, 0, 64, 87
1, 155593, Note_off_c, 0, 59, 60
1, 155598, Control_c, 0, 64, 89
1, 155613, Control_c, 0, 64, 91
1, 155627, Control_c, 0, 64, 93
1, 155642, Control_c, 0, 64, 94
1, 155657, Control_c, 0, 64, 96
1, 155760, Control_c, 0, 64, 94
1, 155774, Note_on_c, 0, 41, 48
1, 155774, Note_on_c, 0, 58, 65
1, 155775, Control_c, 0, 64, 84
1, 155786, Note_on_c, 0, 29, 49
1, 155790, Control_c, 0, 64, 70
1, 155805, Control_c, 0, 64, 57
1, 155819, Control_c, 0, 64, 45
1, 155834, Control_c, 0, 64, 46
1, 155849, Control_c, 0, 64, 53
1, 155864, Control_c, 0, 64, 61
1, 155879, Control_c, 0, 64, 65
1, 155893, Control_c, 0, 64, 70
1, 155896, Note_off_c, 0, 63, 60
1, 155899, Note_off_c, 0, 58, 60
1, 155908, Control_c, 0, 64, 75
1, 155923, Control_c, 0, 64, 80
1, 155938, Control_c, 0, 64, 83
1, 155953, Control_c, 0, 64, 87
1, 155968, Control_c, 0, 64, 90
1, 155983, Control_c, 0, 64, 92
1, 155989, Note_off_c, 0, 41, 55
1, 155995, Note_on_c, 0, 63, 84
1, 155998, Control_c, 0, 64, 95
1, 156010, Note_on_c, 0, 59, 66
1, 156013, Control_c, 0, 64, 97
1, 156036, Note_off_c, 0, 29, 53
1, 156042, Control_c, 0, 64, 101
1, 156057, Control_c, 0, 64, 103
1, 156072, Control_c, 0, 64, 105
1, 156102, Control_c, 0, 64, 108
1, 156174, Note_off_c, 0, 59, 38
1, 156226, Note_on_c, 0, 67, 72
1, 156227, Note_on_c, 0, 40, 46
1, 156234, Note_on_c, 0, 28, 51
1, 156236, Control_c, 0, 64, 102
1, 156250, Control_c, 0, 64, 89
1, 156264, Note_off_c, 0, 63, 59
1, 156265, Control_c, 0, 64, 70
1, 156280, Control_c, 0, 64, 55
1, 156302, Control_c, 0, 64, 40
1, 156317, Control_c, 0, 64, 32
1, 156332, Control_c, 0, 64, 34
1, 156346, Control_c, 0, 64, 41
1, 156361, Control_c, 0, 64, 50
1, 156376, Control_c, 0, 64, 57
1, 156391, Control_c, 0, 64, 61
1, 156406, Control_c, 0, 64, 63
1, 156421, Control_c, 0, 64, 66
1, 156436, Control_c, 0, 64, 69
1, 156450, Control_c, 0, 64, 72
1, 156451, Note_off_c, 0, 40, 55
1, 156465, Control_c, 0, 64, 73
1, 156480, Control_c, 0, 64, 75
1, 156483, Note_off_c, 0, 28, 53
1, 156495, Control_c, 0, 64, 76
1, 156507, Note_on_c, 0, 66, 63
1, 156510, Control_c, 0, 64, 79
1, 156522, Note_off_c, 0, 67, 52
1, 156524, Control_c, 0, 64, 81
1, 156525, Note_on_c, 0, 59, 48
1, 156539, Control_c, 0, 64, 84
1, 156554, Control_c, 0, 64, 87
1, 156566, Note_off_c, 0, 59, 61
1, 156568, Control_c, 0, 64, 89
1, 156583, Control_c, 0, 64, 91
1, 156598, Control_c, 0, 64, 93
1, 156613, Control_c, 0, 64, 94
1, 156628, Control_c, 0, 64, 95
1, 156642, Control_c, 0, 64, 95
1, 156657, Control_c, 0, 64, 96
1, 156746, Control_c, 0, 64, 95
1, 156761, Control_c, 0, 64, 90
1, 156773, Note_on_c, 0, 58, 55
1, 156777, Control_c, 0, 64, 77
1, 156782, Note_on_c, 0, 39, 47
1, 156788, Note_on_c, 0, 27, 45
1, 156791, Control_c, 0, 64, 63
1, 156806, Control_c, 0, 64, 49
1, 156821, Control_c, 0, 64, 37
1, 156835, Control_c, 0, 64, 36
1, 156850, Control_c, 0, 64, 43
1, 156864, Control_c, 0, 64, 53
1, 156879, Control_c, 0, 64, 61
1, 156894, Control_c, 0, 64, 64
1, 156909, Control_c, 0, 64, 68
1, 156924, Control_c, 0, 64, 71
1, 156938, Control_c, 0, 64, 73
1, 156942, Note_off_c, 0, 58, 59
1, 156953, Control_c, 0, 64, 75
1, 156958, Note_off_c, 0, 66, 56
1, 156968, Control_c, 0, 64, 77
1, 156982, Control_c, 0, 64, 79
1, 156989, Note_off_c, 0, 27, 37
1, 156997, Control_c, 0, 64, 81
1, 157012, Control_c, 0, 64, 84
1, 157022, Note_off_c, 0, 39, 32
1, 157027, Control_c, 0, 64, 86
1, 157050, Control_c, 0, 64, 88
1, 157064, Control_c, 0, 64, 89
1, 157079, Control_c, 0, 64, 91
1, 157082, Note_on_c, 0, 66, 82
1, 157094, Control_c, 0, 64, 93
1, 157109, Control_c, 0, 64, 94
1, 157116, Note_on_c, 0, 59, 59
1, 157123, Control_c, 0, 64, 95
1, 157153, Control_c, 0, 64, 98
1, 157183, Control_c, 0, 64, 100
1, 157212, Control_c, 0, 64, 102
1, 157231, Note_on_c, 0, 26, 43
1, 157271, Control_c, 0, 64, 104
1, 157330, Control_c, 0, 64, 106
1, 157343, Note_off_c, 0, 59, 38
1, 157541, Note_on_c, 0, 38, 42
1, 157628, Control_c, 0, 64, 104
1, 157636, Note_on_c, 0, 69, 77
1, 157643, Control_c, 0, 64, 101
1, 157658, Control_c, 0, 64, 94
1, 157673, Control_c, 0, 64, 83
1, 157688, Control_c, 0, 64, 70
1, 157703, Control_c, 0, 64, 55
1, 157718, Control_c, 0, 64, 40
1, 157733, Control_c, 0, 64, 29
1, 157733, Note_off_c, 0, 66, 50
1, 157777, Control_c, 0, 64, 36
1, 157799, Control_c, 0, 64, 51
1, 157813, Control_c, 0, 64, 61
1, 157828, Control_c, 0, 64, 67
1, 157843, Control_c, 0, 64, 71
1, 157858, Control_c, 0, 64, 74
1, 157861, Note_off_c, 0, 26, 55
1, 157873, Control_c, 0, 64, 76
1, 157888, Control_c, 0, 64, 79
1, 157902, Control_c, 0, 64, 82
1, 157917, Control_c, 0, 64, 86
1, 157931, Note_off_c, 0, 38, 50
1, 157932, Control_c, 0, 64, 90
1, 157947, Control_c, 0, 64, 93
1, 157962, Control_c, 0, 64, 97
1, 157977, Control_c, 0, 64, 101
1, 157992, Control_c, 0, 64, 106
1, 158007, Control_c, 0, 64, 114
1, 158021, Control_c, 0, 64, 127
1, 158105, Note_on_c, 0, 59, 38
1, 158111, Note_off_c, 0, 69, 53
1, 158380, Note_on_c, 0, 67, 64
1, 158394, Note_on_c, 0, 50, 38
1, 158414, Note_on_c, 0, 58, 48
1, 158435, Note_off_c, 0, 59, 35
1, 158621, Note_off_c, 0, 58, 56
1, 158627, Note_on_c, 0, 59, 45
1, 158784, Note_off_c, 0, 59, 37
1, 158812, Note_on_c, 0, 53, 60
1, 158960, Note_off_c, 0, 50, 32
1, 158992, Note_off_c, 0, 67, 60
1, 159023, Note_on_c, 0, 59, 58
1, 159092, Note_off_c, 0, 53, 37
1, 159227, Note_on_c, 0, 66, 76
1, 159257, Note_on_c, 0, 54, 49
1, 159257, Note_off_c, 0, 59, 46
1, 159270, Note_on_c, 0, 61, 44
1, 159348, Note_off_c, 0, 54, 59
1, 159461, Note_on_c, 0, 62, 62
1, 159495, Note_off_c, 0, 61, 62
1, 159522, Note_off_c, 0, 66, 57
1, 159546, Note_off_c, 0, 62, 61
1, 159659, Note_on_c, 0, 37, 53
1, 159704, Note_on_c, 0, 66, 80
1, 159710, Control_c, 0, 64, 94
1, 159725, Control_c, 0, 64, 72
1, 159740, Control_c, 0, 64, 55
1, 159755, Control_c, 0, 64, 0
1, 159814, Control_c, 0, 64, 37
1, 159829, Control_c, 0, 64, 52
1, 159844, Control_c, 0, 64, 64
1, 159858, Control_c, 0, 64, 68
1, 159872, Note_off_c, 0, 37, 62
1, 159873, Control_c, 0, 64, 73
1, 159888, Control_c, 0, 64, 75
1, 159903, Control_c, 0, 64, 79
1, 159918, Control_c, 0, 64, 83
1, 159932, Control_c, 0, 64, 87
1, 159947, Control_c, 0, 64, 92
1, 159963, Control_c, 0, 64, 96
1, 159971, Note_on_c, 0, 59, 50
1, 159978, Control_c, 0, 64, 99
1, 159993, Control_c, 0, 64, 103
1, 160007, Control_c, 0, 64, 105
1, 160022, Control_c, 0, 64, 107
1, 160045, Control_c, 0, 64, 110
1, 160075, Control_c, 0, 64, 112
1, 160102, Note_off_c, 0, 66, 25
1, 160119, Control_c, 0, 64, 114
1, 160183, Note_on_c, 0, 65, 70
1, 160210, Note_on_c, 0, 55, 41
1, 160213, Note_on_c, 0, 58, 40
1, 160220, Note_off_c, 0, 59, 36
1, 160394, Note_off_c, 0, 58, 60
1, 160410, Note_on_c, 0, 59, 48
1, 160563, Control_c, 0, 64, 107
1, 160579, Control_c, 0, 64, 91
1, 160594, Control_c, 0, 64, 73
1, 160606, Note_on_c, 0, 56, 75
1, 160608, Control_c, 0, 64, 58
1, 160623, Control_c, 0, 64, 41
1, 160638, Control_c, 0, 64, 38
1, 160653, Control_c, 0, 64, 51
1, 160654, Note_off_c, 0, 55, 60
1, 160667, Control_c, 0, 64, 63
1, 160682, Control_c, 0, 64, 72
1, 160691, Note_off_c, 0, 59, 58
1, 160697, Control_c, 0, 64, 84
1, 160697, Control_c, 0, 67, 109
1, 160712, Control_c, 0, 64, 95
1, 160712, Control_c, 0, 67, 81
1, 160726, Control_c, 0, 64, 105
1, 160726, Control_c, 0, 67, 40
1, 160741, Control_c, 0, 64, 127
1, 160741, Control_c, 0, 67, 0
1, 160787, Note_off_c, 0, 56, 61
1, 160798, Note_off_c, 0, 65, 60
1, 160812, Note_on_c, 0, 59, 77
1, 161077, Note_on_c, 0, 71, 88
1, 161083, Note_on_c, 0, 65, 51
1, 161106, Note_off_c, 0, 59, 55
1, 161111, Note_on_c, 0, 61, 50
1, 161150, Note_off_c, 0, 65, 62
1, 161402, Note_off_c, 0, 61, 61
1, 161402, Note_on_c, 0, 62, 59
1, 161510, Note_off_c, 0, 62, 60
1, 161632, Note_off_c, 0, 71, 33
1, 161638, Note_on_c, 0, 30, 48
1, 161722, Note_on_c, 0, 42, 52
1, 161736, Control_c, 0, 64, 103
1, 161748, Note_on_c, 0, 71, 80
1, 161751, Control_c, 0, 64, 72
1, 161766, Control_c, 0, 64, 52
1, 161780, Control_c, 0, 64, 0
1, 161810, Control_c, 0, 64, 35
1, 161825, Control_c, 0, 64, 51
1, 161839, Note_off_c, 0, 30, 62
1, 161840, Control_c, 0, 64, 62
1, 161854, Control_c, 0, 64, 69
1, 161865, Note_off_c, 0, 42, 63
1, 161869, Control_c, 0, 64, 74
1, 161884, Control_c, 0, 64, 79
1, 161899, Control_c, 0, 64, 83
1, 161913, Control_c, 0, 64, 87
1, 161928, Control_c, 0, 64, 92
1, 161943, Control_c, 0, 64, 97
1, 161958, Control_c, 0, 64, 103
1, 161973, Control_c, 0, 64, 111
1, 161987, Control_c, 0, 64, 127
1, 162062, Note_on_c, 0, 49, 51
1, 162283, Note_on_c, 0, 59, 43
1, 162284, Note_on_c, 0, 67, 51
1, 162286, Note_on_c, 0, 64, 50
1, 162293, Note_on_c, 0, 50, 54
1, 162389, Note_off_c, 0, 71, 51
1, 162445, Note_off_c, 0, 64, 61
1, 162458, Note_off_c, 0, 59, 43
1, 162466, Note_off_c, 0, 67, 58
1, 162487, Note_on_c, 0, 52, 67
1, 162532, Note_off_c, 0, 50, 62
1, 162535, Note_off_c, 0, 49, 14
1, 162738, Note_off_c, 0, 52, 54
1, 162778, Note_on_c, 0, 62, 81
1, 162988, Control_c, 0, 64, 113
1, 163002, Control_c, 0, 64, 99
1, 163017, Control_c, 0, 64, 90
1, 163020, Note_on_c, 0, 53, 54
1, 163039, Control_c, 0, 64, 81
1, 163054, Control_c, 0, 64, 73
1, 163068, Control_c, 0, 64, 65
1, 163083, Control_c, 0, 64, 58
1, 163098, Control_c, 0, 64, 50
1, 163113, Control_c, 0, 64, 45
1, 163128, Control_c, 0, 64, 43
1, 163143, Control_c, 0, 64, 42
1, 163173, Control_c, 0, 64, 43
1, 163188, Control_c, 0, 64, 46
1, 163203, Control_c, 0, 64, 52
1, 163218, Control_c, 0, 64, 60
1, 163232, Control_c, 0, 64, 64
1, 163244, Note_on_c, 0, 59, 42
1, 163246, Note_on_c, 0, 54, 49
1, 163247, Control_c, 0, 64, 69
1, 163262, Control_c, 0, 64, 74
1, 163277, Control_c, 0, 64, 78
1, 163292, Control_c, 0, 64, 81
1, 163301, Note_off_c, 0, 53, 37
1, 163307, Control_c, 0, 64, 84
1, 163322, Control_c, 0, 64, 88
1, 163337, Control_c, 0, 64, 93
1, 163352, Control_c, 0, 64, 98
1, 163352, Control_c, 0, 67, 42
1, 163366, Control_c, 0, 64, 104
1, 163366, Control_c, 0, 67, 57
1, 163381, Control_c, 0, 64, 114
1, 163381, Control_c, 0, 67, 72
1, 163396, Control_c, 0, 64, 127
1, 163396, Control_c, 0, 67, 87
1, 163411, Control_c, 0, 67, 104
1, 163425, Control_c, 0, 67, 124
1, 163440, Control_c, 0, 67, 127
1, 163449, Note_off_c, 0, 54, 60
1, 163480, Note_on_c, 0, 56, 56
1, 163482, Note_off_c, 0, 62, 61
1, 163545, Note_off_c, 0, 56, 54
1, 163842, Note_on_c, 0, 42, 37
1, 163936, Note_on_c, 0, 62, 57
1, 163997, Control_c, 0, 64, 117
1, 164012, Control_c, 0, 64, 90
1, 164027, Control_c, 0, 64, 72
1, 164030, Note_off_c, 0, 59, 37
1, 164042, Control_c, 0, 64, 56
1, 164056, Control_c, 0, 64, 41
1, 164071, Control_c, 0, 64, 31
1, 164086, Control_c, 0, 64, 29
1, 164115, Control_c, 0, 64, 31
1, 164130, Control_c, 0, 64, 37
1, 164145, Control_c, 0, 64, 45
1, 164160, Control_c, 0, 64, 54
1, 164175, Control_c, 0, 64, 60
1, 164189, Control_c, 0, 64, 64
1, 164204, Control_c, 0, 64, 66
1, 164219, Control_c, 0, 64, 68
1, 164234, Control_c, 0, 64, 71
1, 164249, Control_c, 0, 64, 73
1, 164264, Control_c, 0, 64, 75
1, 164274, Note_off_c, 0, 42, 41
1, 164279, Control_c, 0, 64, 77
1, 164294, Control_c, 0, 64, 79
1, 164308, Control_c, 0, 64, 82
1, 164308, Note_on_c, 0, 55, 37
1, 164323, Control_c, 0, 64, 85
1, 164338, Control_c, 0, 64, 89
1, 164353, Control_c, 0, 64, 93
1, 164368, Control_c, 0, 64, 97
1, 164382, Control_c, 0, 64, 100
1, 164397, Control_c, 0, 64, 104
1, 164412, Control_c, 0, 64, 109
1, 164427, Control_c, 0, 64, 116
1, 164442, Control_c, 0, 64, 127
1, 164549, Note_off_c, 0, 55, 41
1, 164571, Note_on_c, 0, 54, 35
1, 164573, Note_on_c, 0, 58, 38
1, 164677, Note_off_c, 0, 62, 59
1, 164765, Note_off_c, 0, 54, 43
1, 164767, Note_off_c, 0, 58, 36
1, 164794, Note_on_c, 0, 52, 39
1, 164888, Note_off_c, 0, 52, 57
1, 165046, Note_on_c, 0, 58, 55
1, 165191, Control_c, 0, 64, 110
1, 165205, Control_c, 0, 64, 99
1, 165220, Control_c, 0, 64, 89
1, 165235, Control_c, 0, 64, 81
1, 165249, Control_c, 0, 64, 72
1, 165264, Control_c, 0, 64, 65
1, 165286, Control_c, 0, 64, 57
1, 165301, Control_c, 0, 64, 50
1, 165316, Control_c, 0, 64, 45
1, 165319, Note_on_c, 0, 52, 34
1, 165331, Control_c, 0, 64, 41
1, 165346, Control_c, 0, 64, 39
1, 165361, Control_c, 0, 64, 39
1, 165391, Control_c, 0, 64, 41
1, 165405, Control_c, 0, 64, 46
1, 165420, Control_c, 0, 64, 55
1, 165435, Control_c, 0, 64, 61
1, 165449, Control_c, 0, 64, 64
1, 165464, Control_c, 0, 64, 68
1, 165479, Control_c, 0, 64, 71
1, 165494, Control_c, 0, 64, 74
1, 165509, Control_c, 0, 64, 75
1, 165523, Control_c, 0, 64, 77
1, 165538, Control_c, 0, 64, 79
1, 165554, Control_c, 0, 64, 81
1, 165569, Control_c, 0, 64, 83
1, 165584, Control_c, 0, 64, 85
1, 165599, Control_c, 0, 64, 87
1, 165614, Control_c, 0, 64, 89
1, 165628, Control_c, 0, 64, 92
1, 165635, Note_on_c, 0, 54, 41
1, 165638, Note_off_c, 0, 52, 0
1, 165643, Note_on_c, 0, 50, 36
1, 165643, Control_c, 0, 64, 94
1, 165658, Control_c, 0, 64, 98
1, 165673, Control_c, 0, 64, 101
1, 165675, Poly_aftertouch_c, 0, 52, 127
1, 165687, Control_c, 0, 64, 104
1, 165702, Control_c, 0, 64, 109
1, 165717, Control_c, 0, 64, 116
1, 165732, Control_c, 0, 64, 127
1, 165858, Poly_aftertouch_c, 0, 52, 0
1, 165955, Note_off_c, 0, 50, 36
1, 165991, Note_on_c, 0, 49, 28
1, 166014, Note_off_c, 0, 54, 29
1, 166097, Note_off_c, 0, 49, 59
1, 166146, Note_off_c, 0, 58, 48
1, 166551, Note_on_c, 0, 35, 34
1, 166644, Control_c, 0, 64, 122
1, 166658, Control_c, 0, 64, 112
1, 166673, Control_c, 0, 64, 103
1, 166688, Control_c, 0, 64, 94
1, 166702, Control_c, 0, 64, 83
1, 166717, Control_c, 0, 64, 69
1, 166721, Note_on_c, 0, 59, 54
1, 166732, Control_c, 0, 64, 57
1, 166747, Control_c, 0, 64, 42
1, 166762, Control_c, 0, 64, 29
1, 166784, Control_c, 0, 64, 0
1, 166814, Control_c, 0, 64, 31
1, 166828, Control_c, 0, 64, 40
1, 166843, Control_c, 0, 64, 51
1, 166858, Control_c, 0, 64, 59
1, 166873, Control_c, 0, 64, 64
1, 166888, Control_c, 0, 64, 66
1, 166902, Control_c, 0, 64, 68
1, 166917, Control_c, 0, 64, 70
1, 166932, Control_c, 0, 64, 71
1, 166947, Control_c, 0, 64, 73
1, 166962, Control_c, 0, 64, 75
1, 166976, Control_c, 0, 64, 77
1, 166991, Control_c, 0, 64, 79
1, 167006, Control_c, 0, 64, 81
1, 167013, Note_off_c, 0, 59, 52
1, 167021, Control_c, 0, 64, 82
1, 167036, Control_c, 0, 64, 84
1, 167051, Control_c, 0, 64, 86
1, 167066, Control_c, 0, 64, 88
1, 167081, Control_c, 0, 64, 90
1, 167081, Note_on_c, 0, 66, 51
1, 167096, Note_on_c, 0, 62, 30
1, 167096, Control_c, 0, 64, 93
1, 167110, Control_c, 0, 64, 95
1, 167125, Control_c, 0, 64, 97
1, 167140, Control_c, 0, 64, 99
1, 167155, Control_c, 0, 64, 101
1, 167170, Control_c, 0, 64, 104
1, 167192, Note_off_c, 0, 66, 56
1, 167200, Control_c, 0, 64, 107
1, 167202, Note_off_c, 0, 35, 36
1, 167202, Note_off_c, 0, 62, 53
1, 167230, Control_c, 0, 64, 109
1, 167235, Note_on_c, 0, 54, 42
1, 167260, Control_c, 0, 64, 111
1, 167264, Note_off_c, 0, 54, 58
1, 167388, Note_on_c, 0, 42, 42
1, 167482, Note_on_c, 0, 52, 41
1, 167541, Note_off_c, 0, 52, 59
1, 167562, Note_on_c, 0, 50, 52
1, 167578, Control_c, 0, 64, 113
1, 167607, Control_c, 0, 64, 115
1, 167611, Note_off_c, 0, 50, 62
1, 167637, Control_c, 0, 64, 122
1, 167648, Note_on_c, 0, 49, 59
1, 167651, Control_c, 0, 64, 127
1, 167681, Note_off_c, 0, 49, 64
1, 167740, Control_c, 0, 64, 118
1, 167751, Note_on_c, 0, 47, 58
1, 167755, Control_c, 0, 64, 94
1, 167770, Control_c, 0, 64, 76
1, 167785, Control_c, 0, 64, 63
1, 167796, Note_off_c, 0, 42, 40
1, 167799, Control_c, 0, 64, 56
1, 167814, Control_c, 0, 64, 57
1, 167829, Control_c, 0, 64, 60
1, 167838, Note_on_c, 0, 66, 58
1, 167844, Control_c, 0, 64, 63
1, 167859, Control_c, 0, 64, 66
1, 167874, Control_c, 0, 64, 71
1, 167889, Control_c, 0, 64, 76
1, 167903, Control_c, 0, 64, 80
1, 167912, Note_on_c, 0, 71, 65
1, 167918, Control_c, 0, 64, 83
1, 167922, Note_off_c, 0, 66, 58
1, 167933, Control_c, 0, 64, 86
1, 167948, Control_c, 0, 64, 89
1, 167962, Note_off_c, 0, 71, 59
1, 167963, Control_c, 0, 64, 94
1, 167978, Note_on_c, 0, 59, 56
1, 167978, Control_c, 0, 64, 97
1, 167993, Control_c, 0, 64, 100
1, 168011, Note_off_c, 0, 59, 65
1, 168046, Note_off_c, 0, 47, 62
1, 168052, Note_on_c, 0, 49, 62
1, 168052, Control_c, 0, 64, 98
1, 168067, Control_c, 0, 64, 84
1, 168082, Control_c, 0, 64, 67
1, 168097, Control_c, 0, 64, 49
1, 168112, Control_c, 0, 64, 33
1, 168119, Note_on_c, 0, 55, 57
1, 168127, Control_c, 0, 64, 37
1, 168141, Control_c, 0, 64, 48
1, 168156, Control_c, 0, 64, 59
1, 168167, Note_off_c, 0, 55, 62
1, 168171, Control_c, 0, 64, 65
1, 168186, Note_on_c, 0, 54, 63
1, 168186, Control_c, 0, 64, 72
1, 168201, Control_c, 0, 64, 81
1, 168215, Control_c, 0, 64, 89
1, 168230, Control_c, 0, 64, 98
1, 168241, Note_off_c, 0, 54, 59
1, 168245, Control_c, 0, 64, 109
1, 168260, Control_c, 0, 64, 127
1, 168265, Note_on_c, 0, 52, 64
1, 168300, Note_off_c, 0, 52, 63
1, 168327, Control_c, 0, 64, 95
1, 168342, Note_off_c, 0, 49, 62
1, 168342, Control_c, 0, 64, 71
1, 168348, Note_on_c, 0, 50, 61
1, 168356, Control_c, 0, 64, 50
1, 168371, Control_c, 0, 64, 0
1, 168409, Note_off_c, 0, 50, 60
1, 168410, Note_on_c, 0, 66, 70
1, 168416, Control_c, 0, 64, 46
1, 168430, Control_c, 0, 64, 60
1, 168445, Control_c, 0, 64, 67
1, 168460, Control_c, 0, 64, 72
1, 168474, Control_c, 0, 64, 78
1, 168476, Note_on_c, 0, 71, 71
1, 168478, Note_off_c, 0, 66, 63
1, 168489, Control_c, 0, 64, 84
1, 168504, Control_c, 0, 64, 91
1, 168519, Control_c, 0, 64, 101
1, 168534, Control_c, 0, 64, 113
1, 168539, Note_on_c, 0, 59, 69
1, 168539, Note_off_c, 0, 71, 60
1, 168548, Control_c, 0, 64, 127
1, 168569, Note_off_c, 0, 59, 66
1, 168613, Note_on_c, 0, 54, 59
1, 168669, Note_on_c, 0, 71, 67
1, 168731, Note_off_c, 0, 54, 36
1, 168732, Note_off_c, 0, 71, 61
1, 168742, Note_on_c, 0, 74, 72
1, 168801, Note_off_c, 0, 74, 61
1, 168808, Note_on_c, 0, 62, 66
1, 168840, Note_off_c, 0, 62, 62
1, 168882, Note_on_c, 0, 59, 55
1, 168890, Control_c, 0, 64, 88
1, 168905, Control_c, 0, 64, 65
1, 168920, Control_c, 0, 64, 37
1, 168935, Control_c, 0, 64, 0
1, 168944, Note_on_c, 0, 74, 60
1, 168950, Control_c, 0, 64, 30
1, 168965, Control_c, 0, 64, 45
1, 168979, Control_c, 0, 64, 57
1, 168994, Control_c, 0, 64, 64
1, 169009, Control_c, 0, 64, 70
1, 169031, Control_c, 0, 64, 76
1, 169032, Note_off_c, 0, 74, 60
1, 169033, Note_on_c, 0, 78, 69
1, 169045, Control_c, 0, 64, 80
1, 169060, Control_c, 0, 64, 84
1, 169075, Control_c, 0, 64, 88
1, 169090, Control_c, 0, 64, 92
1, 169095, Note_off_c, 0, 78, 59
1, 169105, Control_c, 0, 64, 97
1, 169106, Note_on_c, 0, 66, 70
1, 169120, Control_c, 0, 64, 100
1, 169135, Control_c, 0, 64, 105
1, 169139, Note_off_c, 0, 66, 64
1, 169149, Control_c, 0, 64, 108
1, 169164, Control_c, 0, 64, 110
1, 169179, Control_c, 0, 64, 112
1, 169194, Control_c, 0, 64, 115
1, 169208, Note_off_c, 0, 59, 33
1, 169209, Control_c, 0, 64, 119
1, 169212, Note_on_c, 0, 62, 51
1, 169223, Control_c, 0, 64, 125
1, 169238, Control_c, 0, 64, 127
1, 169285, Note_off_c, 0, 62, 54
1, 169300, Note_on_c, 0, 78, 51
1, 169381, Note_on_c, 0, 83, 61
1, 169466, Note_off_c, 0, 83, 59
1, 169501, Note_on_c, 0, 71, 41
1, 169531, Note_off_c, 0, 78, 35
1, 169559, Note_off_c, 0, 71, 43
1, 169794, Note_on_c, 0, 47, 37
1, 169823, Control_c, 0, 64, 125
1, 169838, Control_c, 0, 64, 114
1, 169852, Control_c, 0, 64, 108
1, 169867, Control_c, 0, 64, 104
1, 169882, Control_c, 0, 64, 98
1, 169897, Control_c, 0, 64, 90
1, 169912, Control_c, 0, 64, 79
1, 169915, Note_on_c, 0, 67, 63
1, 169926, Control_c, 0, 64, 65
1, 169941, Control_c, 0, 64, 50
1, 169956, Control_c, 0, 64, 30
1, 169971, Control_c, 0, 64, 0
1, 170000, Control_c, 0, 64, 27
1, 170015, Control_c, 0, 64, 38
1, 170030, Control_c, 0, 64, 49
1, 170044, Control_c, 0, 64, 59
1, 170059, Control_c, 0, 64, 64
1, 170074, Control_c, 0, 64, 67
1, 170089, Control_c, 0, 64, 69
1, 170104, Control_c, 0, 64, 72
1, 170118, Control_c, 0, 64, 75
1, 170133, Control_c, 0, 64, 79
1, 170148, Control_c, 0, 64, 82
1, 170163, Control_c, 0, 64, 86
1, 170178, Control_c, 0, 64, 89
1, 170193, Control_c, 0, 64, 92
1, 170208, Control_c, 0, 64, 95
1, 170223, Control_c, 0, 64, 97
1, 170237, Control_c, 0, 64, 100
1, 170238, Note_off_c, 0, 67, 58
1, 170252, Control_c, 0, 64, 103
1, 170264, Note_off_c, 0, 47, 32
1, 170267, Control_c, 0, 64, 106
1, 170282, Control_c, 0, 64, 109
1, 170291, Note_on_c, 0, 74, 40
1, 170297, Control_c, 0, 64, 111
1, 170306, Note_on_c, 0, 71, 38
1, 170312, Control_c, 0, 64, 114
1, 170327, Control_c, 0, 64, 118
1, 170342, Control_c, 0, 64, 122
1, 170357, Control_c, 0, 64, 127
1, 170391, Note_on_c, 0, 67, 40
1, 170473, Note_on_c, 0, 62, 23
1, 170538, Note_on_c, 0, 55, 30
1, 170562, Note_off_c, 0, 74, 38
1, 170563, Note_off_c, 0, 67, 43
1, 170574, Note_off_c, 0, 55, 60
1, 170605, Note_off_c, 0, 71, 38
1, 170613, Note_on_c, 0, 59, 39
1, 170653, Note_off_c, 0, 59, 60
1, 170677, Note_on_c, 0, 55, 46
1, 170710, Note_off_c, 0, 55, 54
1, 170756, Note_on_c, 0, 47, 56
1, 170774, Note_off_c, 0, 62, 41
1, 170790, Note_on_c, 0, 67, 76
1, 170827, Note_off_c, 0, 47, 49
1, 170957, Note_off_c, 0, 67, 57
1, 171009, Note_on_c, 0, 74, 39
1, 171024, Note_on_c, 0, 71, 32
1, 171060, Note_on_c, 0, 67, 50
1, 171097, Note_off_c, 0, 74, 37
1, 171123, Note_on_c, 0, 62, 44
1, 171123, Note_off_c, 0, 67, 59
1, 171173, Note_off_c, 0, 71, 41
1, 171177, Note_off_c, 0, 62, 45
1, 171178, Note_on_c, 0, 55, 48
1, 171221, Note_off_c, 0, 55, 60
1, 171261, Note_on_c, 0, 59, 50
1, 171314, Note_off_c, 0, 59, 61
1, 171328, Note_on_c, 0, 55, 53
1, 171393, Note_off_c, 0, 55, 58
1, 171436, Note_on_c, 0, 47, 49
1, 171481, Note_on_c, 0, 68, 75
1, 171484, Control_c, 0, 64, 107
1, 171498, Control_c, 0, 64, 76
1, 171513, Control_c, 0, 64, 57
1, 171528, Control_c, 0, 64, 31
1, 171543, Control_c, 0, 64, 0
1, 171573, Control_c, 0, 64, 44
1, 171588, Control_c, 0, 64, 57
1, 171603, Control_c, 0, 64, 64
1, 171617, Control_c, 0, 64, 68
1, 171632, Control_c, 0, 64, 72
1, 171647, Control_c, 0, 64, 75
1, 171662, Control_c, 0, 64, 78
1, 171671, Note_off_c, 0, 68, 58
1, 171677, Control_c, 0, 64, 82
1, 171689, Note_off_c, 0, 47, 36
1, 171691, Control_c, 0, 64, 85
1, 171700, Note_on_c, 0, 74, 45
1, 171706, Control_c, 0, 64, 88
1, 171719, Note_on_c, 0, 71, 42
1, 171721, Control_c, 0, 64, 92
1, 171736, Control_c, 0, 64, 95
1, 171751, Control_c, 0, 64, 98
1, 171758, Note_on_c, 0, 68, 45
1, 171765, Control_c, 0, 64, 101
1, 171780, Control_c, 0, 64, 105
1, 171795, Control_c, 0, 64, 109
1, 171810, Note_off_c, 0, 74, 33
1, 171810, Control_c, 0, 64, 114
1, 171820, Note_on_c, 0, 62, 45
1, 171824, Control_c, 0, 64, 127
1, 171877, Note_on_c, 0, 56, 41
1, 171905, Note_off_c, 0, 68, 59
1, 171908, Note_off_c, 0, 56, 55
1, 171925, Note_off_c, 0, 71, 34
1, 171965, Note_on_c, 0, 59, 23
1, 172002, Note_on_c, 0, 56, 58
1, 172002, Note_off_c, 0, 59, 54
1, 172060, Note_off_c, 0, 56, 57
1, 172106, Note_on_c, 0, 47, 50
1, 172129, Control_c, 0, 64, 108
1, 172144, Control_c, 0, 64, 79
1, 172159, Control_c, 0, 64, 60
1, 172166, Note_on_c, 0, 67, 61
1, 172174, Control_c, 0, 64, 35
1, 172188, Control_c, 0, 64, 0
1, 172201, Note_off_c, 0, 62, 36
1, 172218, Control_c, 0, 64, 38
1, 172233, Control_c, 0, 64, 51
1, 172247, Control_c, 0, 64, 60
1, 172262, Control_c, 0, 64, 65
1, 172277, Control_c, 0, 64, 68
1, 172292, Control_c, 0, 64, 71
1, 172307, Control_c, 0, 64, 73
1, 172321, Control_c, 0, 64, 76
1, 172334, Note_off_c, 0, 67, 60
1, 172336, Control_c, 0, 64, 79
1, 172351, Control_c, 0, 64, 82
1, 172366, Control_c, 0, 64, 85
1, 172372, Note_on_c, 0, 74, 45
1, 172381, Control_c, 0, 64, 89
1, 172387, Note_off_c, 0, 47, 32
1, 172396, Control_c, 0, 64, 93
1, 172397, Note_on_c, 0, 71, 37
1, 172411, Control_c, 0, 64, 96
1, 172425, Control_c, 0, 64, 99
1, 172440, Control_c, 0, 64, 103
1, 172447, Note_on_c, 0, 67, 37
1, 172455, Control_c, 0, 64, 106
1, 172470, Control_c, 0, 64, 110
1, 172485, Control_c, 0, 64, 114
1, 172500, Control_c, 0, 64, 121
1, 172501, Note_on_c, 0, 62, 47
1, 172509, Note_off_c, 0, 74, 40
1, 172514, Control_c, 0, 64, 127
1, 172576, Note_on_c, 0, 55, 42
1, 172585, Note_off_c, 0, 67, 60
1, 172634, Note_off_c, 0, 71, 37
1, 172637, Note_off_c, 0, 55, 60
1, 172687, Note_on_c, 0, 59, 45
1, 172741, Note_off_c, 0, 59, 59
1, 172781, Note_on_c, 0, 55, 44
1, 172813, Note_off_c, 0, 55, 63
1, 173057, Note_on_c, 0, 35, 47
1, 173157, Note_on_c, 0, 66, 61
1, 173159, Control_c, 0, 64, 116
1, 173174, Control_c, 0, 64, 92
1, 173189, Control_c, 0, 64, 74
1, 173204, Control_c, 0, 64, 59
1, 173218, Control_c, 0, 64, 39
1, 173230, Note_off_c, 0, 62, 38
1, 173233, Control_c, 0, 64, 29
1, 173263, Control_c, 0, 64, 34
1, 173278, Control_c, 0, 64, 42
1, 173293, Control_c, 0, 64, 51
1, 173308, Control_c, 0, 64, 59
1, 173323, Control_c, 0, 64, 64
1, 173337, Control_c, 0, 64, 68
1, 173352, Control_c, 0, 64, 73
1, 173367, Control_c, 0, 64, 77
1, 173382, Control_c, 0, 64, 81
1, 173386, Note_off_c, 0, 35, 61
1, 173396, Control_c, 0, 64, 85
1, 173411, Control_c, 0, 64, 91
1, 173426, Control_c, 0, 64, 96
1, 173441, Control_c, 0, 64, 101
1, 173456, Control_c, 0, 64, 106
1, 173462, Note_off_c, 0, 66, 59
1, 173470, Control_c, 0, 64, 112
1, 173485, Control_c, 0, 64, 119
1, 173500, Control_c, 0, 64, 127
1, 173548, Note_on_c, 0, 74, 40
1, 173561, Note_on_c, 0, 71, 36
1, 173609, Note_on_c, 0, 66, 49
1, 173684, Note_on_c, 0, 62, 50
1, 173701, Note_off_c, 0, 74, 35
1, 173720, Note_off_c, 0, 62, 62
1, 173737, Note_off_c, 0, 66, 60
1, 173748, Note_on_c, 0, 54, 33
1, 173786, Note_off_c, 0, 54, 62
1, 173789, Note_off_c, 0, 71, 38
1, 173840, Note_on_c, 0, 59, 31
1, 173880, Note_off_c, 0, 59, 49
1, 173883, Note_on_c, 0, 54, 53
1, 173969, Note_off_c, 0, 54, 36
1, 173987, Note_on_c, 0, 47, 49
1, 174023, Note_off_c, 0, 47, 62
1, 174053, Note_on_c, 0, 78, 53
1, 174124, Note_off_c, 0, 78, 59
1, 174151, Note_on_c, 0, 86, 57
1, 174166, Note_on_c, 0, 83, 49
1, 174214, Note_on_c, 0, 78, 56
1, 174214, Note_off_c, 0, 86, 61
1, 174245, Note_off_c, 0, 83, 60
1, 174284, Note_on_c, 0, 74, 55
1, 174297, Note_off_c, 0, 78, 60
1, 174316, Note_off_c, 0, 74, 62
1, 174330, Note_on_c, 0, 66, 52
1, 174367, Note_off_c, 0, 66, 66
1, 174418, Note_on_c, 0, 71, 45
1, 174475, Note_off_c, 0, 71, 60
1, 174477, Note_on_c, 0, 66, 51
1, 174548, Note_off_c, 0, 66, 60
1, 174572, Note_on_c, 0, 59, 45
1, 174603, Note_off_c, 0, 59, 54
1, 174626, Note_on_c, 0, 74, 55
1, 174670, Note_off_c, 0, 74, 59
1, 174695, Note_on_c, 0, 78, 50
1, 174711, Note_on_c, 0, 83, 61
1, 174780, Note_off_c, 0, 83, 58
1, 174783, Note_on_c, 0, 74, 65
1, 174788, Note_off_c, 0, 78, 62
1, 174841, Note_off_c, 0, 74, 62
1, 174846, Note_on_c, 0, 71, 53
1, 174876, Note_off_c, 0, 71, 65
1, 174906, Note_on_c, 0, 62, 42
1, 174936, Note_off_c, 0, 62, 62
1, 174974, Note_on_c, 0, 66, 54
1, 175022, Note_off_c, 0, 66, 62
1, 175029, Note_on_c, 0, 62, 60
1, 175097, Note_off_c, 0, 62, 60
1, 175108, Note_on_c, 0, 54, 62
1, 175171, Note_off_c, 0, 54, 59
1, 175174, Note_on_c, 0, 71, 56
1, 175211, Note_off_c, 0, 71, 59
1, 175233, Note_on_c, 0, 78, 65
1, 175261, Note_on_c, 0, 74, 56
1, 175314, Note_on_c, 0, 71, 60
1, 175325, Note_off_c, 0, 78, 55
1, 175360, Note_on_c, 0, 66, 67
1, 175369, Note_off_c, 0, 74, 63
1, 175377, Note_off_c, 0, 71, 61
1, 175394, Note_off_c, 0, 66, 67
1, 175409, Note_on_c, 0, 59, 54
1, 175448, Note_off_c, 0, 59, 62
1, 175491, Note_on_c, 0, 62, 50
1, 175540, Note_off_c, 0, 62, 61
1, 175555, Note_on_c, 0, 59, 55
1, 175584, Note_off_c, 0, 59, 64
1, 175744, Note_on_c, 0, 47, 41
1, 175858, Control_c, 0, 64, 109
1, 175865, Note_on_c, 0, 67, 70
1, 175872, Control_c, 0, 64, 84
1, 175887, Control_c, 0, 64, 67
1, 175902, Control_c, 0, 64, 50
1, 175917, Control_c, 0, 64, 27
1, 175932, Control_c, 0, 64, 0
1, 175992, Control_c, 0, 64, 28
1, 176007, Control_c, 0, 64, 41
1, 176021, Control_c, 0, 64, 54
1, 176036, Control_c, 0, 64, 63
1, 176051, Control_c, 0, 64, 66
1, 176066, Control_c, 0, 64, 70
1, 176081, Control_c, 0, 64, 74
1, 176095, Control_c, 0, 64, 78
1, 176110, Control_c, 0, 64, 82
1, 176125, Control_c, 0, 64, 86
1, 176140, Control_c, 0, 64, 90
1, 176155, Control_c, 0, 64, 94
1, 176169, Control_c, 0, 64, 100
1, 176180, Note_off_c, 0, 67, 58
1, 176184, Control_c, 0, 64, 106
1, 176199, Control_c, 0, 64, 115
1, 176208, Note_off_c, 0, 47, 34
1, 176214, Control_c, 0, 64, 127
1, 176241, Note_on_c, 0, 74, 41
1, 176259, Note_on_c, 0, 71, 43
1, 176322, Note_on_c, 0, 67, 44
1, 176355, Note_off_c, 0, 74, 52
1, 176373, Note_on_c, 0, 62, 37
1, 176393, Note_off_c, 0, 71, 53
1, 176393, Note_off_c, 0, 67, 58
1, 176421, Note_off_c, 0, 62, 46
1, 176431, Note_on_c, 0, 55, 40
1, 176466, Note_off_c, 0, 55, 63
1, 176514, Note_on_c, 0, 59, 43
1, 176545, Note_off_c, 0, 59, 55
1, 176577, Note_on_c, 0, 55, 50
1, 176639, Note_off_c, 0, 55, 55
1, 176680, Note_on_c, 0, 47, 49
1, 176738, Note_on_c, 0, 67, 76
1, 176846, Note_off_c, 0, 47, 36
1, 176917, Note_off_c, 0, 67, 60
1, 176965, Note_on_c, 0, 74, 49
1, 176983, Note_on_c, 0, 71, 41
1, 177033, Note_on_c, 0, 67, 55
1, 177039, Note_off_c, 0, 74, 55
1, 177071, Note_off_c, 0, 71, 55
1, 177089, Note_off_c, 0, 67, 62
1, 177091, Note_on_c, 0, 62, 50
1, 177118, Note_on_c, 0, 55, 42
1, 177123, Note_off_c, 0, 62, 64
1, 177151, Note_off_c, 0, 55, 62
1, 177189, Note_on_c, 0, 59, 56
1, 177235, Note_off_c, 0, 59, 56
1, 177240, Note_on_c, 0, 55, 61
1, 177335, Note_off_c, 0, 55, 60
1, 177347, Note_on_c, 0, 47, 64
1, 177406, Note_on_c, 0, 68, 82
1, 177430, Control_c, 0, 64, 94
1, 177445, Control_c, 0, 64, 69
1, 177460, Control_c, 0, 64, 50
1, 177475, Control_c, 0, 64, 0
1, 177505, Control_c, 0, 64, 38
1, 177519, Control_c, 0, 64, 55
1, 177535, Control_c, 0, 64, 64
1, 177550, Control_c, 0, 64, 70
1, 177565, Control_c, 0, 64, 76
1, 177579, Note_off_c, 0, 68, 60
1, 177579, Control_c, 0, 64, 80
1, 177589, Note_off_c, 0, 47, 52
1, 177594, Control_c, 0, 64, 84
1, 177606, Note_on_c, 0, 74, 53
1, 177609, Control_c, 0, 64, 89
1, 177624, Control_c, 0, 64, 94
1, 177631, Note_on_c, 0, 71, 46
1, 177639, Control_c, 0, 64, 98
1, 177653, Control_c, 0, 64, 104
1, 177668, Control_c, 0, 64, 111
1, 177672, Note_on_c, 0, 68, 60
1, 177683, Control_c, 0, 64, 127
1, 177690, Note_off_c, 0, 74, 42
1, 177716, Note_off_c, 0, 71, 56
1, 177730, Note_on_c, 0, 62, 55
1, 177764, Note_off_c, 0, 68, 60
1, 177779, Note_on_c, 0, 56, 49
1, 177780, Note_off_c, 0, 62, 57
1, 177809, Note_off_c, 0, 56, 62
1, 177862, Note_on_c, 0, 59, 47
1, 177892, Note_off_c, 0, 59, 57
1, 177902, Note_on_c, 0, 56, 57
1, 177973, Note_off_c, 0, 56, 61
1, 178027, Note_on_c, 0, 47, 50
1, 178104, Control_c, 0, 64, 90
1, 178107, Note_on_c, 0, 67, 73
1, 178119, Control_c, 0, 64, 64
1, 178134, Control_c, 0, 64, 42
1, 178149, Control_c, 0, 64, 0
1, 178193, Control_c, 0, 64, 44
1, 178208, Control_c, 0, 64, 58
1, 178223, Control_c, 0, 64, 65
1, 178238, Control_c, 0, 64, 68
1, 178253, Control_c, 0, 64, 71
1, 178265, Note_off_c, 0, 67, 61
1, 178267, Control_c, 0, 64, 73
1, 178277, Note_off_c, 0, 47, 54
1, 178282, Control_c, 0, 64, 76
1, 178297, Note_on_c, 0, 74, 56
1, 178297, Control_c, 0, 64, 79
1, 178312, Control_c, 0, 64, 82
1, 178328, Note_on_c, 0, 71, 40
1, 178328, Control_c, 0, 64, 85
1, 178343, Control_c, 0, 64, 88
1, 178357, Control_c, 0, 64, 91
1, 178372, Control_c, 0, 64, 94
1, 178387, Control_c, 0, 64, 98
1, 178387, Note_on_c, 0, 67, 42
1, 178401, Control_c, 0, 64, 101
1, 178407, Note_off_c, 0, 74, 50
1, 178416, Control_c, 0, 64, 105
1, 178431, Control_c, 0, 64, 108
1, 178446, Control_c, 0, 64, 112
1, 178447, Note_on_c, 0, 62, 52
1, 178461, Control_c, 0, 64, 119
1, 178475, Control_c, 0, 64, 127
1, 178495, Note_off_c, 0, 62, 58
1, 178500, Note_off_c, 0, 67, 35
1, 178544, Note_on_c, 0, 55, 46
1, 178566, Note_off_c, 0, 71, 40
1, 178601, Note_off_c, 0, 55, 57
1, 178661, Note_on_c, 0, 59, 46
1, 178728, Note_off_c, 0, 59, 57
1, 178766, Note_on_c, 0, 55, 44
1, 178795, Note_off_c, 0, 55, 59
1, 179061, Note_on_c, 0, 34, 45
1, 179150, Control_c, 0, 64, 122
1, 179165, Control_c, 0, 64, 103
1, 179180, Control_c, 0, 64, 87
1, 179195, Control_c, 0, 64, 71
1, 179198, Note_on_c, 0, 66, 64
1, 179210, Control_c, 0, 64, 57
1, 179225, Control_c, 0, 64, 41
1, 179239, Control_c, 0, 64, 29
1, 179313, Control_c, 0, 64, 38
1, 179328, Control_c, 0, 64, 49
1, 179343, Control_c, 0, 64, 59
1, 179358, Control_c, 0, 64, 64
1, 179372, Control_c, 0, 64, 68
1, 179387, Control_c, 0, 64, 72
1, 179402, Control_c, 0, 64, 77
1, 179417, Control_c, 0, 64, 81
1, 179431, Control_c, 0, 64, 87
1, 179446, Control_c, 0, 64, 94
1, 179454, Note_off_c, 0, 34, 41
1, 179461, Control_c, 0, 64, 102
1, 179476, Control_c, 0, 64, 114
1, 179491, Control_c, 0, 64, 127
1, 179542, Note_off_c, 0, 66, 60
1, 179618, Note_on_c, 0, 75, 41
1, 179635, Note_on_c, 0, 70, 33
1, 179703, Note_on_c, 0, 66, 41
1, 179804, Note_on_c, 0, 63, 40
1, 179842, Note_off_c, 0, 63, 63
1, 179847, Note_off_c, 0, 75, 38
1, 179869, Note_off_c, 0, 66, 57
1, 179878, Note_on_c, 0, 54, 41
1, 179899, Note_off_c, 0, 70, 61
1, 179917, Note_off_c, 0, 54, 61
1, 179961, Note_on_c, 0, 58, 46
1, 180003, Note_off_c, 0, 58, 58
1, 180042, Note_on_c, 0, 54, 40
1, 180132, Note_off_c, 0, 54, 33
1, 180202, Note_on_c, 0, 46, 43
1, 180307, Note_off_c, 0, 46, 59
1, 180320, Note_on_c, 0, 78, 45
1, 180418, Note_off_c, 0, 78, 59
1, 180456, Note_on_c, 0, 87, 51
1, 180472, Note_on_c, 0, 82, 49
1, 180535, Note_off_c, 0, 87, 58
1, 180539, Note_on_c, 0, 78, 59
1, 180585, Note_off_c, 0, 82, 62
1, 180614, Note_off_c, 0, 78, 60
1, 180616, Note_on_c, 0, 75, 41
1, 180641, Note_off_c, 0, 75, 60
1, 180646, Note_on_c, 0, 66, 49
1, 180685, Note_off_c, 0, 66, 64
1, 180724, Note_on_c, 0, 70, 57
1, 180770, Note_off_c, 0, 70, 56
1, 180794, Note_on_c, 0, 66, 55
1, 180863, Note_on_c, 0, 58, 62
1, 180864, Note_off_c, 0, 66, 63
1, 180903, Note_off_c, 0, 58, 59
1, 180948, Note_on_c, 0, 75, 54
1, 180982, Note_off_c, 0, 75, 65
1, 180993, Note_on_c, 0, 82, 58
1, 181031, Note_on_c, 0, 78, 52
1, 181076, Note_on_c, 0, 75, 70
1, 181101, Note_off_c, 0, 82, 61
1, 181127, Note_off_c, 0, 78, 60
1, 181140, Note_on_c, 0, 70, 63
1, 181149, Note_off_c, 0, 75, 63
1, 181169, Note_off_c, 0, 70, 67
1, 181189, Control_c, 0, 67, 124
1, 181204, Control_c, 0, 67, 117
1, 181207, Note_on_c, 0, 63, 57
1, 181219, Control_c, 0, 67, 109
1, 181234, Control_c, 0, 67, 101
1, 181247, Note_off_c, 0, 63, 63
1, 181249, Control_c, 0, 67, 90
1, 181264, Control_c, 0, 67, 78
1, 181277, Note_on_c, 0, 66, 66
1, 181278, Control_c, 0, 67, 66
1, 181293, Control_c, 0, 67, 53
1, 181308, Control_c, 0, 67, 38
1, 181322, Control_c, 0, 67, 0
1, 181334, Note_off_c, 0, 66, 63
1, 181344, Note_on_c, 0, 63, 66
1, 181374, Note_off_c, 0, 63, 64
1, 181406, Note_on_c, 0, 54, 66
1, 181453, Note_on_c, 0, 70, 65
1, 181479, Note_off_c, 0, 54, 59
1, 181514, Note_off_c, 0, 70, 63
1, 181531, Note_on_c, 0, 78, 63
1, 181550, Note_on_c, 0, 75, 60
1, 181595, Note_on_c, 0, 70, 60
1, 181613, Note_off_c, 0, 78, 60
1, 181648, Note_on_c, 0, 66, 58
1, 181651, Note_off_c, 0, 75, 62
1, 181677, Note_off_c, 0, 70, 64
1, 181679, Note_off_c, 0, 66, 68
1, 181700, Note_on_c, 0, 58, 60
1, 181734, Note_off_c, 0, 58, 63
1, 181780, Note_on_c, 0, 63, 66
1, 181822, Note_off_c, 0, 63, 61
1, 181838, Note_on_c, 0, 58, 68
1, 181872, Note_off_c, 0, 58, 64
1, 181980, Note_on_c, 0, 54, 78
1, 181991, Note_on_c, 0, 42, 69
1, 182026, Control_c, 0, 64, 108
1, 182041, Control_c, 0, 64, 68
1, 182056, Control_c, 0, 64, 29
1, 182061, Note_on_c, 0, 72, 87
1, 182071, Control_c, 0, 64, 0
1, 182100, Control_c, 0, 64, 42
1, 182115, Control_c, 0, 64, 63
1, 182130, Control_c, 0, 64, 76
1, 182145, Control_c, 0, 64, 117
1, 182147, Note_off_c, 0, 42, 62
1, 182159, Control_c, 0, 64, 127
1, 182175, Note_off_c, 0, 54, 60
1, 182244, Note_off_c, 0, 72, 58
1, 182272, Note_on_c, 0, 82, 62
1, 182280, Note_on_c, 0, 75, 59
1, 182333, Note_off_c, 0, 82, 62
1, 182345, Note_on_c, 0, 72, 79
1, 182375, Note_off_c, 0, 75, 64
1, 182392, Note_off_c, 0, 72, 68
1, 182402, Note_on_c, 0, 70, 75
1, 182423, Note_off_c, 0, 70, 71
1, 182444, Note_on_c, 0, 58, 53
1, 182479, Note_off_c, 0, 58, 63
1, 182513, Note_on_c, 0, 63, 70
1, 182569, Note_off_c, 0, 63, 61
1, 182571, Note_on_c, 0, 58, 77
1, 182595, Note_off_c, 0, 58, 69
1, 182681, Note_on_c, 0, 51, 92
1, 182689, Note_on_c, 0, 39, 78
1, 182704, Note_off_c, 0, 51, 68
1, 182712, Note_on_c, 0, 72, 91
1, 182716, Note_off_c, 0, 39, 67
1, 182861, Note_off_c, 0, 72, 55
1, 182871, Note_on_c, 0, 78, 78
1, 182873, Note_on_c, 0, 82, 80
1, 182948, Note_on_c, 0, 72, 89
1, 182951, Note_off_c, 0, 82, 66
1, 182968, Note_off_c, 0, 78, 64
1, 183002, Note_on_c, 0, 70, 78
1, 183002, Note_off_c, 0, 72, 66
1, 183033, Note_off_c, 0, 70, 64
1, 183066, Note_on_c, 0, 58, 68
1, 183125, Note_off_c, 0, 58, 62
1, 183139, Note_on_c, 0, 66, 81
1, 183168, Note_off_c, 0, 66, 65
1, 183273, Poly_aftertouch_c, 0, 57, 127
1, 183307, Poly_aftertouch_c, 0, 57, 0
1, 183353, Note_on_c, 0, 48, 87
1, 183359, Note_on_c, 0, 36, 80
1, 183420, Control_c, 0, 64, 115
1, 183432, Note_on_c, 0, 73, 94
1, 183435, Control_c, 0, 64, 65
1, 183450, Control_c, 0, 64, 0
1, 183509, Control_c, 0, 64, 46
1, 183515, Note_off_c, 0, 36, 63
1, 183524, Control_c, 0, 64, 68
1, 183539, Control_c, 0, 64, 88
1, 183553, Note_off_c, 0, 48, 62
1, 183553, Control_c, 0, 64, 127
1, 183616, Note_off_c, 0, 73, 60
1, 183621, Note_on_c, 0, 82, 75
1, 183628, Note_on_c, 0, 79, 69
1, 183690, Note_on_c, 0, 73, 82
1, 183707, Note_off_c, 0, 82, 57
1, 183726, Note_off_c, 0, 79, 60
1, 183747, Note_on_c, 0, 70, 83
1, 183771, Note_off_c, 0, 73, 61
1, 183792, Note_off_c, 0, 70, 64
1, 183801, Note_on_c, 0, 61, 53
1, 183846, Note_off_c, 0, 61, 62
1, 183872, Note_on_c, 0, 64, 68
1, 183925, Note_off_c, 0, 64, 62
1, 183947, Note_on_c, 0, 61, 59
1, 183966, Note_off_c, 0, 61, 65
1, 184068, Note_on_c, 0, 40, 76
1, 184068, Note_on_c, 0, 52, 78
1, 184080, Control_c, 0, 64, 107
1, 184094, Control_c, 0, 64, 69
1, 184109, Control_c, 0, 64, 40
1, 184117, Note_on_c, 0, 72, 89
1, 184124, Control_c, 0, 64, 0
1, 184153, Control_c, 0, 64, 40
1, 184168, Control_c, 0, 64, 62
1, 184183, Control_c, 0, 64, 76
1, 184198, Control_c, 0, 64, 101
1, 184213, Note_off_c, 0, 40, 61
1, 184213, Control_c, 0, 64, 127
1, 184244, Note_off_c, 0, 52, 62
1, 184264, Note_off_c, 0, 72, 59
1, 184283, Note_on_c, 0, 79, 64
1, 184296, Note_on_c, 0, 76, 55
1, 184341, Note_on_c, 0, 72, 68
1, 184341, Note_off_c, 0, 79, 62
1, 184364, Note_off_c, 0, 76, 63
1, 184395, Note_on_c, 0, 67, 70
1, 184414, Note_off_c, 0, 72, 62
1, 184424, Note_off_c, 0, 67, 64
1, 184471, Note_on_c, 0, 60, 52
1, 184504, Note_off_c, 0, 60, 65
1, 184540, Note_on_c, 0, 64, 63
1, 184586, Note_off_c, 0, 64, 57
1, 184617, Note_on_c, 0, 60, 55
1, 184645, Note_off_c, 0, 60, 65
1, 184782, Note_on_c, 0, 54, 63
1, 184799, Note_on_c, 0, 42, 50
1, 184837, Note_on_c, 0, 71, 84
1, 184843, Control_c, 0, 64, 88
1, 184858, Control_c, 0, 64, 60
1, 184873, Control_c, 0, 64, 31
1, 184888, Control_c, 0, 64, 0
1, 184917, Control_c, 0, 64, 39
1, 184932, Control_c, 0, 64, 58
1, 184947, Control_c, 0, 64, 69
1, 184962, Control_c, 0, 64, 85
1, 184976, Control_c, 0, 64, 102
1, 184977, Note_off_c, 0, 42, 61
1, 184991, Control_c, 0, 64, 127
1, 185003, Note_off_c, 0, 54, 59
1, 185015, Note_off_c, 0, 71, 59
1, 185040, Note_on_c, 0, 78, 52
1, 185054, Note_on_c, 0, 75, 49
1, 185098, Note_on_c, 0, 71, 61
1, 185099, Note_off_c, 0, 78, 56
1, 185127, Note_off_c, 0, 75, 62
1, 185146, Note_off_c, 0, 71, 60
1, 185158, Note_on_c, 0, 66, 60
1, 185179, Note_off_c, 0, 66, 65
1, 185216, Note_on_c, 0, 59, 46
1, 185254, Note_off_c, 0, 59, 64
1, 185294, Note_on_c, 0, 63, 57
1, 185333, Note_off_c, 0, 63, 59
1, 185354, Note_on_c, 0, 59, 56
1, 185423, Note_off_c, 0, 59, 64
1, 185425, Note_on_c, 0, 54, 64
1, 185464, Note_off_c, 0, 54, 60
1, 185482, Note_on_c, 0, 63, 90
1, 185634, Note_off_c, 0, 63, 61
1, 185670, Note_on_c, 0, 71, 54
1, 185671, Note_on_c, 0, 66, 50
1, 185718, Note_off_c, 0, 71, 58
1, 185749, Note_on_c, 0, 63, 63
1, 185775, Note_off_c, 0, 66, 64
1, 185785, Note_on_c, 0, 59, 55
1, 185817, Note_off_c, 0, 59, 61
1, 185855, Note_off_c, 0, 63, 57
1, 185866, Note_on_c, 0, 54, 46
1, 185904, Note_off_c, 0, 54, 63
1, 185938, Note_on_c, 0, 59, 52
1, 186010, Note_off_c, 0, 59, 58
1, 186032, Note_on_c, 0, 54, 49
1, 186061, Note_off_c, 0, 54, 65
1, 186213, Note_on_c, 0, 42, 48
1, 186214, Control_c, 0, 67, 35
1, 186229, Control_c, 0, 67, 43
1, 186251, Control_c, 0, 67, 46
1, 186310, Control_c, 0, 67, 47
1, 186325, Note_on_c, 0, 62, 75
1, 186356, Control_c, 0, 67, 46
1, 186385, Control_c, 0, 64, 90
1, 186400, Control_c, 0, 64, 67
1, 186415, Control_c, 0, 64, 51
1, 186430, Control_c, 0, 64, 35
1, 186430, Control_c, 0, 67, 46
1, 186445, Control_c, 0, 64, 30
1, 186445, Control_c, 0, 67, 45
1, 186460, Control_c, 0, 64, 33
1, 186474, Control_c, 0, 64, 42
1, 186489, Control_c, 0, 64, 55
1, 186504, Control_c, 0, 64, 62
1, 186504, Control_c, 0, 67, 44
1, 186519, Control_c, 0, 64, 68
1, 186519, Control_c, 0, 67, 44
1, 186534, Control_c, 0, 64, 73
1, 186534, Control_c, 0, 67, 43
1, 186548, Control_c, 0, 64, 79
1, 186548, Control_c, 0, 67, 44
1, 186563, Control_c, 0, 64, 84
1, 186563, Control_c, 0, 67, 45
1, 186573, Note_off_c, 0, 62, 59
1, 186578, Control_c, 0, 64, 92
1, 186578, Control_c, 0, 67, 46
1, 186593, Control_c, 0, 64, 102
1, 186593, Control_c, 0, 67, 47
1, 186608, Control_c, 0, 64, 114
1, 186608, Control_c, 0, 67, 49
1, 186620, Note_on_c, 0, 70, 44
1, 186622, Control_c, 0, 64, 127
1, 186622, Control_c, 0, 67, 53
1, 186630, Note_on_c, 0, 67, 40
1, 186637, Control_c, 0, 67, 80
1, 186652, Control_c, 0, 67, 116
1, 186667, Control_c, 0, 67, 127
1, 186671, Note_off_c, 0, 42, 29
1, 186708, Note_on_c, 0, 62, 45
1, 186724, Note_off_c, 0, 70, 61
1, 186744, Note_on_c, 0, 58, 40
1, 186761, Note_off_c, 0, 62, 53
1, 186770, Note_off_c, 0, 67, 52
1, 186781, Note_off_c, 0, 58, 58
1, 186801, Note_on_c, 0, 52, 39
1, 186853, Note_off_c, 0, 52, 59
1, 186892, Note_on_c, 0, 55, 40
1, 186928, Note_off_c, 0, 55, 52
1, 186966, Note_on_c, 0, 52, 51
1, 187053, Note_off_c, 0, 52, 55
1, 187132, Note_on_c, 0, 42, 47
1, 187221, Note_on_c, 0, 61, 61
1, 187224, Control_c, 0, 64, 102
1, 187239, Control_c, 0, 64, 76
1, 187253, Control_c, 0, 64, 60
1, 187268, Control_c, 0, 64, 44
1, 187283, Control_c, 0, 64, 33
1, 187298, Control_c, 0, 64, 34
1, 187313, Control_c, 0, 64, 43
1, 187327, Control_c, 0, 64, 53
1, 187342, Control_c, 0, 64, 60
1, 187357, Control_c, 0, 64, 65
1, 187372, Control_c, 0, 64, 69
1, 187387, Control_c, 0, 64, 73
1, 187402, Control_c, 0, 64, 77
1, 187416, Control_c, 0, 64, 82
1, 187427, Note_off_c, 0, 42, 54
1, 187431, Control_c, 0, 64, 86
1, 187444, Note_off_c, 0, 61, 60
1, 187446, Control_c, 0, 64, 92
1, 187461, Control_c, 0, 64, 101
1, 187476, Control_c, 0, 64, 119
1, 187489, Note_on_c, 0, 70, 48
1, 187491, Control_c, 0, 64, 127
1, 187511, Note_on_c, 0, 66, 48
1, 187578, Note_on_c, 0, 61, 53
1, 187625, Note_off_c, 0, 70, 55
1, 187670, Note_on_c, 0, 58, 44
1, 187709, Note_off_c, 0, 58, 63
1, 187727, Control_c, 0, 67, 119
1, 187750, Control_c, 0, 67, 95
1, 187755, Note_off_c, 0, 61, 58
1, 187759, Note_on_c, 0, 52, 48
1, 187764, Control_c, 0, 67, 74
1, 187767, Note_off_c, 0, 66, 37
1, 187779, Control_c, 0, 67, 55
1, 187794, Control_c, 0, 67, 35
1, 187809, Control_c, 0, 67, 0
1, 187834, Note_off_c, 0, 52, 56
1, 187857, Note_on_c, 0, 54, 67
1, 187940, Note_off_c, 0, 54, 59
1, 187946, Note_on_c, 0, 52, 75
1, 188057, Note_on_c, 0, 47, 86
1, 188067, Note_off_c, 0, 52, 52
1, 188165, Control_c, 0, 64, 71
1, 188180, Control_c, 0, 64, 0
1, 188188, Note_on_c, 0, 68, 100
1, 188239, Control_c, 0, 64, 53
1, 188254, Control_c, 0, 64, 70
1, 188269, Control_c, 0, 64, 93
1, 188283, Control_c, 0, 64, 127
1, 188394, Note_off_c, 0, 47, 54
1, 188421, Note_off_c, 0, 68, 58
1, 188436, Note_on_c, 0, 74, 80
1, 188446, Note_on_c, 0, 71, 70
1, 188510, Note_on_c, 0, 68, 85
1, 188531, Note_off_c, 0, 74, 61
1, 188549, Note_off_c, 0, 71, 62
1, 188582, Note_on_c, 0, 62, 78
1, 188591, Note_off_c, 0, 68, 65
1, 188629, Note_off_c, 0, 62, 64
1, 188645, Note_on_c, 0, 53, 59
1, 188683, Note_off_c, 0, 53, 63
1, 188695, Note_on_c, 0, 59, 75
1, 188756, Note_on_c, 0, 53, 74
1, 188758, Note_off_c, 0, 59, 63
1, 188826, Note_on_c, 0, 47, 86
1, 188850, Note_off_c, 0, 53, 61
1, 188869, Note_on_c, 0, 68, 93
1, 188884, Control_c, 0, 64, 122
1, 188898, Control_c, 0, 64, 67
1, 188913, Control_c, 0, 64, 36
1, 188928, Control_c, 0, 64, 29
1, 188943, Control_c, 0, 64, 51
1, 188958, Control_c, 0, 64, 68
1, 188972, Control_c, 0, 64, 91
1, 188987, Control_c, 0, 64, 127
1, 189051, Note_off_c, 0, 68, 63
1, 189053, Note_on_c, 0, 74, 75
1, 189062, Note_on_c, 0, 71, 73
1, 189073, Note_off_c, 0, 47, 37
1, 189113, Note_off_c, 0, 74, 64
1, 189115, Note_on_c, 0, 68, 80
1, 189140, Note_off_c, 0, 71, 63
1, 189159, Note_on_c, 0, 62, 80
1, 189181, Note_off_c, 0, 68, 65
1, 189203, Note_off_c, 0, 62, 62
1, 189212, Note_on_c, 0, 53, 66
1, 189270, Note_off_c, 0, 53, 61
1, 189288, Note_on_c, 0, 59, 74
1, 189342, Note_on_c, 0, 53, 69
1, 189356, Note_off_c, 0, 59, 61
1, 189423, Note_on_c, 0, 47, 84
1, 189442, Note_off_c, 0, 53, 61
1, 189483, Control_c, 0, 64, 99
1, 189488, Note_on_c, 0, 70, 98
1, 189498, Control_c, 0, 64, 63
1, 189514, Control_c, 0, 64, 0
1, 189558, Control_c, 0, 64, 40
1, 189573, Control_c, 0, 64, 62
1, 189588, Control_c, 0, 64, 73
1, 189603, Control_c, 0, 64, 92
1, 189618, Control_c, 0, 64, 127
1, 189652, Note_off_c, 0, 70, 59
1, 189670, Note_on_c, 0, 74, 68
1, 189704, Note_on_c, 0, 71, 60
1, 189752, Note_off_c, 0, 74, 62
1, 189754, Note_on_c, 0, 70, 81
1, 189759, Note_off_c, 0, 47, 34
1, 189798, Note_off_c, 0, 71, 58
1, 189815, Note_on_c, 0, 62, 71
1, 189843, Note_off_c, 0, 62, 65
1, 189861, Note_on_c, 0, 52, 54
1, 189873, Note_off_c, 0, 70, 61
1, 189906, Note_off_c, 0, 52, 62
1, 189936, Note_on_c, 0, 59, 68
1, 190010, Note_on_c, 0, 52, 64
1, 190022, Note_off_c, 0, 59, 62
1, 190073, Note_on_c, 0, 47, 82
1, 190111, Note_off_c, 0, 52, 54
1, 190135, Note_on_c, 0, 68, 93
1, 190144, Control_c, 0, 64, 72
1, 190159, Control_c, 0, 64, 28
1, 190174, Control_c, 0, 64, 0
1, 190204, Control_c, 0, 64, 32
1, 190218, Control_c, 0, 64, 54
1, 190233, Control_c, 0, 64, 66
1, 190248, Control_c, 0, 64, 76
1, 190263, Control_c, 0, 64, 90
1, 190278, Control_c, 0, 64, 106
1, 190279, Note_off_c, 0, 68, 59
1, 190282, Note_off_c, 0, 47, 54
1, 190292, Control_c, 0, 64, 127
1, 190293, Note_on_c, 0, 74, 75
1, 190309, Note_on_c, 0, 71, 65
1, 190371, Note_on_c, 0, 68, 79
1, 190382, Note_off_c, 0, 74, 60
1, 190395, Note_off_c, 0, 71, 61
1, 190414, Note_on_c, 0, 62, 73
1, 190445, Note_off_c, 0, 62, 64
1, 190447, Note_off_c, 0, 68, 49
1, 190492, Note_on_c, 0, 53, 60
1, 190544, Note_off_c, 0, 53, 59
1, 190574, Note_on_c, 0, 59, 68
1, 190610, Note_off_c, 0, 59, 65
1, 190630, Note_on_c, 0, 53, 67
1, 190657, Note_off_c, 0, 53, 65
1, 190807, Note_on_c, 0, 47, 65
1, 190812, Note_on_c, 0, 35, 68
1, 190834, Control_c, 0, 64, 119
1, 190849, Control_c, 0, 64, 73
1, 190863, Control_c, 0, 64, 44
1, 190878, Control_c, 0, 64, 0
1, 190884, Note_on_c, 0, 66, 83
1, 190937, Control_c, 0, 64, 36
1, 190949, Note_off_c, 0, 35, 63
1, 190952, Control_c, 0, 64, 55
1, 190967, Control_c, 0, 64, 66
1, 190982, Control_c, 0, 64, 77
1, 190996, Control_c, 0, 64, 89
1, 190999, Note_off_c, 0, 47, 63
1, 191011, Control_c, 0, 64, 102
1, 191026, Control_c, 0, 64, 127
1, 191058, Note_on_c, 0, 75, 57
1, 191072, Note_on_c, 0, 71, 55
1, 191094, Note_off_c, 0, 66, 60
1, 191099, Note_off_c, 0, 75, 59
1, 191107, Note_off_c, 0, 71, 63
1, 191144, Note_on_c, 0, 63, 62
1, 191174, Note_off_c, 0, 63, 64
1, 191216, Note_on_c, 0, 54, 61
1, 191263, Note_on_c, 0, 64, 59
1, 191306, Note_off_c, 0, 64, 64
1, 191321, Note_on_c, 0, 63, 57
1, 191366, Note_off_c, 0, 63, 64
1, 191397, Note_on_c, 0, 61, 68
1, 191423, Note_off_c, 0, 61, 65
1, 191453, Note_off_c, 0, 54, 61
1, 191476, Note_on_c, 0, 59, 73
1, 191541, Note_on_c, 0, 78, 72
1, 191605, Note_on_c, 0, 83, 74
1, 191614, Note_off_c, 0, 78, 59
1, 191649, Note_off_c, 0, 83, 62
1, 191668, Note_on_c, 0, 71, 71
1, 191692, Note_off_c, 0, 71, 67
1, 191722, Note_on_c, 0, 61, 82
1, 191755, Note_off_c, 0, 59, 60
1, 191760, Control_c, 0, 64, 78
1, 191775, Control_c, 0, 64, 58
1, 191787, Note_on_c, 0, 67, 68
1, 191790, Control_c, 0, 64, 51
1, 191805, Control_c, 0, 64, 57
1, 191819, Control_c, 0, 64, 65
1, 191825, Note_off_c, 0, 67, 65
1, 191834, Control_c, 0, 64, 76
1, 191837, Note_on_c, 0, 66, 67
1, 191849, Control_c, 0, 64, 100
1, 191864, Control_c, 0, 64, 127
1, 191888, Note_off_c, 0, 66, 65
1, 191905, Note_on_c, 0, 64, 71
1, 191934, Note_off_c, 0, 64, 68
1, 191977, Note_on_c, 0, 63, 92
1, 192009, Note_off_c, 0, 61, 63
1, 192046, Note_on_c, 0, 78, 77
1, 192079, Note_off_c, 0, 63, 65
1, 192108, Note_on_c, 0, 83, 78
1, 192109, Note_off_c, 0, 78, 62
1, 192165, Note_off_c, 0, 83, 63
1, 192176, Note_on_c, 0, 71, 59
1, 192197, Note_off_c, 0, 71, 61
1, 192205, Control_c, 0, 64, 84
1, 192215, Note_on_c, 0, 66, 92
1, 192220, Control_c, 0, 64, 56
1, 192242, Control_c, 0, 64, 36
1, 192257, Control_c, 0, 64, 47
1, 192272, Control_c, 0, 64, 62
1, 192286, Control_c, 0, 64, 75
1, 192290, Poly_aftertouch_c, 0, 72, 0
1, 192297, Note_on_c, 0, 83, 77
1, 192301, Control_c, 0, 64, 127
1, 192375, Note_on_c, 0, 87, 85
1, 192377, Note_off_c, 0, 83, 63
1, 192430, Note_on_c, 0, 75, 67
1, 192433, Note_off_c, 0, 87, 65
1, 192460, Note_off_c, 0, 75, 64
1, 192471, Note_off_c, 0, 66, 60
1, 192489, Note_on_c, 0, 71, 93
1, 192539, Note_off_c, 0, 71, 65
1, 192556, Note_on_c, 0, 87, 81
1, 192601, Note_on_c, 0, 88, 58
1, 192620, Note_on_c, 0, 90, 86
1, 192623, Note_off_c, 0, 87, 62
1, 192627, Note_off_c, 0, 88, 67
1, 192690, Note_on_c, 0, 78, 72
1, 192695, Note_off_c, 0, 90, 64
1, 192720, Note_off_c, 0, 78, 58
1, 192731, Note_on_c, 0, 75, 95
1, 192761, Note_off_c, 0, 75, 69
1, 192803, Note_on_c, 0, 90, 85
1, 192892, Note_on_c, 0, 95, 87
1, 192951, Note_on_c, 0, 83, 87
1, 192954, Note_off_c, 0, 95, 66
1, 192966, Note_off_c, 0, 90, 55
1, 192967, Note_off_c, 0, 83, 75
1, 193101, Note_on_c, 0, 47, 92
1, 193140, Control_c, 0, 64, 73
1, 193155, Control_c, 0, 64, 35
1, 193170, Control_c, 0, 64, 0
1, 193214, Control_c, 0, 64, 48
1, 193229, Control_c, 0, 64, 69
1, 193235, Note_on_c, 0, 68, 99
1, 193244, Control_c, 0, 64, 91
1, 193258, Control_c, 0, 64, 127
1, 193400, Note_off_c, 0, 47, 38
1, 193427, Note_off_c, 0, 68, 58
1, 193432, Note_on_c, 0, 74, 69
1, 193432, Note_on_c, 0, 77, 76
1, 193500, Note_off_c, 0, 77, 60
1, 193503, Note_on_c, 0, 68, 80
1, 193525, Note_off_c, 0, 74, 63
1, 193548, Note_on_c, 0, 65, 72
1, 193563, Note_off_c, 0, 68, 62
1, 193579, Note_off_c, 0, 65, 64
1, 193587, Note_on_c, 0, 56, 71
1, 193645, Note_off_c, 0, 56, 63
1, 193661, Note_on_c, 0, 62, 72
1, 193715, Note_on_c, 0, 56, 80
1, 193723, Note_off_c, 0, 62, 63
1, 193787, Note_on_c, 0, 47, 88
1, 193796, Note_off_c, 0, 56, 62
1, 193842, Note_on_c, 0, 68, 98
1, 193867, Poly_aftertouch_c, 0, 50, 127
1, 193907, Note_off_c, 0, 47, 55
1, 193922, Poly_aftertouch_c, 0, 50, 0
1, 193983, Note_off_c, 0, 68, 60
1, 193992, Note_on_c, 0, 77, 77
1, 193995, Note_on_c, 0, 74, 68
1, 194057, Note_on_c, 0, 68, 83
1, 194063, Note_off_c, 0, 77, 64
1, 194084, Note_off_c, 0, 74, 63
1, 194116, Note_off_c, 0, 68, 65
1, 194120, Note_on_c, 0, 65, 67
1, 194144, Note_off_c, 0, 65, 69
1, 194160, Note_on_c, 0, 56, 64
1, 194201, Note_off_c, 0, 56, 63
1, 194231, Note_on_c, 0, 62, 75
1, 194284, Note_on_c, 0, 56, 80
1, 194295, Note_off_c, 0, 62, 60
1, 194365, Note_on_c, 0, 47, 84
1, 194368, Note_off_c, 0, 56, 60
1, 194408, Control_c, 0, 64, 102
1, 194422, Note_on_c, 0, 70, 102
1, 194423, Control_c, 0, 64, 59
1, 194437, Control_c, 0, 64, 0
1, 194490, Control_c, 0, 64, 49
1, 194493, Note_off_c, 0, 47, 54
1, 194505, Control_c, 0, 64, 68
1, 194519, Control_c, 0, 64, 84
1, 194534, Control_c, 0, 64, 127
1, 194601, Note_off_c, 0, 70, 63
1, 194606, Note_on_c, 0, 77, 74
1, 194613, Note_on_c, 0, 74, 69
1, 194670, Note_on_c, 0, 70, 86
1, 194673, Note_off_c, 0, 77, 65
1, 194690, Note_off_c, 0, 74, 63
1, 194714, Note_on_c, 0, 65, 76
1, 194729, Note_off_c, 0, 70, 65
1, 194748, Note_off_c, 0, 65, 61
1, 194788, Note_on_c, 0, 58, 62
1, 194828, Note_off_c, 0, 58, 63
1, 194858, Note_on_c, 0, 62, 66
1, 194909, Note_on_c, 0, 58, 73
1, 194915, Note_off_c, 0, 62, 61
1, 194958, Note_off_c, 0, 58, 64
1, 194993, Control_c, 0, 64, 112
1, 195008, Control_c, 0, 64, 68
1, 195010, Note_on_c, 0, 47, 88
1, 195021, Control_c, 0, 64, 30
1, 195036, Control_c, 0, 64, 0
1, 195051, Note_on_c, 0, 68, 92
1, 195065, Control_c, 0, 64, 50
1, 195080, Control_c, 0, 64, 65
1, 195095, Control_c, 0, 64, 80
1, 195110, Control_c, 0, 64, 112
1, 195125, Control_c, 0, 64, 127
1, 195170, Note_off_c, 0, 47, 59
1, 195206, Note_off_c, 0, 68, 60
1, 195208, Note_on_c, 0, 77, 79
1, 195215, Note_on_c, 0, 74, 72
1, 195290, Note_on_c, 0, 68, 81
1, 195298, Note_off_c, 0, 77, 58
1, 195315, Note_off_c, 0, 74, 64
1, 195340, Note_on_c, 0, 65, 81
1, 195369, Note_off_c, 0, 68, 62
1, 195387, Note_off_c, 0, 65, 61
1, 195405, Note_on_c, 0, 56, 70
1, 195467, Note_off_c, 0, 56, 63
1, 195501, Note_on_c, 0, 62, 75
1, 195548, Note_off_c, 0, 62, 63
1, 195551, Note_on_c, 0, 56, 78
1, 195581, Note_off_c, 0, 56, 65
1, 195717, Note_on_c, 0, 46, 94
1, 195721, Note_on_c, 0, 34, 87
1, 195784, Control_c, 0, 64, 93
1, 195799, Control_c, 0, 64, 61
1, 195814, Control_c, 0, 64, 0
1, 195826, Note_on_c, 0, 67, 89
1, 195907, Note_off_c, 0, 34, 63
1, 195919, Control_c, 0, 64, 64
1, 195928, Note_off_c, 0, 46, 63
1, 195933, Control_c, 0, 64, 99
1, 195948, Control_c, 0, 64, 127
1, 195999, Note_on_c, 0, 75, 86
1, 196001, Note_on_c, 0, 73, 80
1, 196025, Note_off_c, 0, 67, 60
1, 196112, Note_on_c, 0, 63, 80
1, 196122, Note_off_c, 0, 73, 61
1, 196146, Note_off_c, 0, 75, 58
1, 196153, Note_off_c, 0, 63, 60
1, 196189, Note_on_c, 0, 58, 84
1, 196267, Note_on_c, 0, 68, 71
1, 196315, Note_off_c, 0, 58, 55
1, 196328, Note_on_c, 0, 67, 71
1, 196333, Note_off_c, 0, 68, 62
1, 196377, Note_off_c, 0, 67, 63
1, 196393, Note_on_c, 0, 65, 74
1, 196416, Note_off_c, 0, 65, 69
1, 196449, Note_on_c, 0, 63, 91
1, 196536, Note_on_c, 0, 82, 60
1, 196577, Note_on_c, 0, 83, 33
1, 196583, Note_off_c, 0, 63, 55
1, 196589, Note_on_c, 0, 87, 66
1, 196601, Note_on_c, 0, 84, 13
1, 196613, Note_off_c, 0, 83, 48
1, 196639, Note_off_c, 0, 82, 35
1, 196644, Note_off_c, 0, 84, 53
1, 196646, Note_on_c, 0, 75, 79
1, 196646, Note_off_c, 0, 87, 62
1, 196670, Note_off_c, 0, 75, 66
1, 196718, Note_on_c, 0, 65, 93
1, 196783, Note_on_c, 0, 71, 78
1, 196817, Note_off_c, 0, 65, 56
1, 196835, Note_on_c, 0, 70, 81
1, 196836, Note_off_c, 0, 71, 63
1, 196885, Note_off_c, 0, 70, 65
1, 196905, Note_on_c, 0, 68, 81
1, 196943, Note_off_c, 0, 68, 63
1, 196970, Note_on_c, 0, 67, 103
1, 196972, Control_c, 0, 64, 87
1, 196987, Control_c, 0, 64, 61
1, 197002, Control_c, 0, 64, 50
1, 197017, Control_c, 0, 64, 59
1, 197031, Note_off_c, 0, 67, 64
1, 197031, Control_c, 0, 64, 70
1, 197044, Note_on_c, 0, 82, 88
1, 197046, Control_c, 0, 64, 92
1, 197061, Control_c, 0, 64, 127
1, 197124, Note_on_c, 0, 87, 85
1, 197131, Note_off_c, 0, 82, 62
1, 197172, Note_on_c, 0, 75, 81
1, 197191, Note_off_c, 0, 87, 65
1, 197198, Note_off_c, 0, 75, 65
1, 197229, Note_on_c, 0, 70, 95
1, 197309, Note_on_c, 0, 85, 89
1, 197328, Note_off_c, 0, 70, 58
1, 197365, Note_on_c, 0, 91, 80
1, 197376, Note_off_c, 0, 85, 62
1, 197438, Note_on_c, 0, 79, 67
1, 197438, Note_off_c, 0, 91, 67
1, 197463, Note_off_c, 0, 79, 65
1, 197480, Note_on_c, 0, 75, 98
1, 197553, Note_on_c, 0, 85, 81
1, 197572, Note_on_c, 0, 84, 80
1, 197587, Note_off_c, 0, 75, 61
1, 197633, Note_on_c, 0, 94, 85
1, 197633, Note_off_c, 0, 84, 66
1, 197653, Note_off_c, 0, 85, 61
1, 197681, Note_off_c, 0, 94, 65
1, 197721, Note_on_c, 0, 82, 53
1, 197721, Note_off_c, 0, 82, 127
1, 197768, Note_on_c, 0, 79, 91
1, 197807, Note_off_c, 0, 79, 67
1, 197860, Note_on_c, 0, 94, 97
1, 197983, Note_on_c, 0, 99, 92
1, 198082, Note_off_c, 0, 99, 64
1, 198085, Note_on_c, 0, 85, 88
1, 198098, Note_off_c, 0, 94, 64
1, 198100, Note_off_c, 0, 85, 75
1, 198279, Note_on_c, 0, 56, 101
1, 198282, Note_on_c, 0, 44, 85
1, 198307, Control_c, 0, 64, 76
1, 198322, Control_c, 0, 64, 28
1, 198336, Control_c, 0, 64, 0
1, 198425, Control_c, 0, 64, 30
1, 198440, Control_c, 0, 64, 69
1, 198455, Control_c, 0, 64, 98
1, 198470, Control_c, 0, 64, 127
1, 198474, Note_on_c, 0, 75, 100
1, 198488, Note_on_c, 0, 63, 91
1, 198538, Note_off_c, 0, 44, 62
1, 198538, Note_off_c, 0, 56, 59
1, 198579, Note_off_c, 0, 63, 49
1, 198587, Poly_aftertouch_c, 0, 73, 0
1, 198645, Note_on_c, 0, 71, 76
1, 198723, Note_on_c, 0, 68, 78
1, 198734, Note_off_c, 0, 71, 59
1, 198780, Note_on_c, 0, 62, 72
1, 198798, Note_off_c, 0, 68, 62
1, 198818, Note_off_c, 0, 62, 55
1, 198845, Note_on_c, 0, 63, 74
1, 198896, Note_off_c, 0, 63, 64
1, 198900, Note_on_c, 0, 59, 72
1, 198937, Note_off_c, 0, 59, 65
1, 198945, Note_on_c, 0, 56, 74
1, 198977, Note_off_c, 0, 56, 69
1, 199054, Note_on_c, 0, 51, 97
1, 199060, Note_on_c, 0, 39, 87
1, 199080, Note_off_c, 0, 51, 65
1, 199084, Note_off_c, 0, 39, 67
1, 199177, Note_on_c, 0, 63, 78
1, 199273, Note_on_c, 0, 71, 78
1, 199273, Note_off_c, 0, 63, 64
1, 199319, Note_on_c, 0, 68, 78
1, 199349, Note_off_c, 0, 71, 62
1, 199385, Note_on_c, 0, 62, 79
1, 199400, Note_off_c, 0, 68, 64
1, 199415, Note_off_c, 0, 62, 56
1, 199440, Note_on_c, 0, 63, 73
1, 199491, Note_off_c, 0, 63, 62
1, 199513, Note_on_c, 0, 59, 54
1, 199538, Note_off_c, 0, 59, 67
1, 199541, Note_on_c, 0, 56, 72
1, 199564, Note_on_c, 0, 60, 3
1, 199584, Note_off_c, 0, 56, 60
1, 199604, Note_off_c, 0, 60, 51
1, 199633, Control_c, 0, 64, 95
1, 199636, Note_on_c, 0, 59, 80
1, 199647, Note_on_c, 0, 47, 91
1, 199648, Control_c, 0, 64, 57
1, 199663, Control_c, 0, 64, 0
1, 199707, Control_c, 0, 64, 52
1, 199730, Control_c, 0, 64, 66
1, 199745, Control_c, 0, 64, 77
1, 199759, Control_c, 0, 64, 98
1, 199774, Control_c, 0, 64, 127
1, 199801, Note_off_c, 0, 47, 64
1, 199804, Note_on_c, 0, 63, 76
1, 199823, Note_off_c, 0, 59, 64
1, 199886, Note_on_c, 0, 71, 76
1, 199893, Note_off_c, 0, 63, 61
1, 199930, Note_off_c, 0, 75, 58
1, 199930, Note_on_c, 0, 68, 79
1, 199965, Note_off_c, 0, 71, 63
1, 199996, Note_on_c, 0, 62, 79
1, 200012, Note_off_c, 0, 68, 64
1, 200031, Note_off_c, 0, 62, 62
1, 200038, Note_on_c, 0, 63, 82
1, 200100, Note_off_c, 0, 63, 63
1, 200106, Note_on_c, 0, 59, 77
1, 200154, Note_off_c, 0, 59, 66
1, 200162, Note_on_c, 0, 56, 75
1, 200206, Note_off_c, 0, 56, 61
1, 200292, Note_on_c, 0, 55, 90
1, 200300, Note_on_c, 0, 43, 79
1, 200367, Control_c, 0, 64, 96
1, 200382, Control_c, 0, 64, 63
1, 200397, Control_c, 0, 64, 0
1, 200431, Note_on_c, 0, 76, 97
1, 200443, Note_on_c, 0, 64, 94
1, 200456, Control_c, 0, 64, 52
1, 200479, Control_c, 0, 64, 66
1, 200494, Control_c, 0, 64, 80
1, 200508, Control_c, 0, 64, 110
1, 200523, Control_c, 0, 64, 127
1, 200547, Note_off_c, 0, 43, 61
1, 200574, Note_off_c, 0, 55, 61
1, 200646, Note_off_c, 0, 64, 61
1, 200684, Note_on_c, 0, 73, 69
1, 200711, Note_off_c, 0, 76, 62
1, 200747, Note_on_c, 0, 70, 71
1, 200768, Note_off_c, 0, 73, 63
1, 200797, Note_on_c, 0, 63, 76
1, 200816, Note_off_c, 0, 70, 64
1, 200829, Note_off_c, 0, 63, 60
1, 200854, Note_on_c, 0, 64, 75
1, 200928, Note_on_c, 0, 61, 80
1, 200930, Note_off_c, 0, 64, 62
1, 200988, Note_off_c, 0, 61, 65
1, 200990, Note_on_c, 0, 58, 75
1, 201020, Note_off_c, 0, 58, 66
1, 201138, Note_on_c, 0, 56, 93
1, 201147, Note_on_c, 0, 44, 73
1, 201186, Note_on_c, 0, 43, 45
1, 201223, Note_off_c, 0, 43, 53
1, 201227, Control_c, 0, 64, 82
1, 201242, Control_c, 0, 64, 54
1, 201250, Note_on_c, 0, 75, 97
1, 201257, Control_c, 0, 64, 0
1, 201258, Note_on_c, 0, 63, 90
1, 201301, Control_c, 0, 64, 41
1, 201316, Control_c, 0, 64, 62
1, 201331, Control_c, 0, 64, 77
1, 201346, Control_c, 0, 64, 115
1, 201361, Control_c, 0, 64, 127
1, 201363, Note_off_c, 0, 44, 62
1, 201382, Note_off_c, 0, 56, 61
1, 201413, Note_off_c, 0, 63, 59
1, 201418, Note_on_c, 0, 71, 73
1, 201480, Note_on_c, 0, 70, 80
1, 201504, Note_off_c, 0, 71, 62
1, 201543, Note_on_c, 0, 62, 67
1, 201549, Note_off_c, 0, 70, 66
1, 201579, Note_off_c, 0, 62, 62
1, 201600, Note_on_c, 0, 63, 75
1, 201658, Note_off_c, 0, 63, 62
1, 201664, Note_on_c, 0, 59, 75
1, 201703, Note_off_c, 0, 59, 64
1, 201706, Note_on_c, 0, 56, 76
1, 201739, Note_off_c, 0, 56, 65
1, 201806, Note_on_c, 0, 51, 95
1, 201812, Note_on_c, 0, 39, 85
1, 201831, Note_off_c, 0, 51, 63
1, 201839, Note_off_c, 0, 39, 65
1, 201897, Note_on_c, 0, 63, 80
1, 201994, Note_on_c, 0, 71, 78
1, 201998, Note_off_c, 0, 63, 64
1, 202037, Note_on_c, 0, 68, 81
1, 202063, Note_off_c, 0, 71, 62
1, 202104, Note_on_c, 0, 62, 77
1, 202116, Note_off_c, 0, 68, 64
1, 202150, Note_off_c, 0, 62, 62
1, 202154, Note_on_c, 0, 63, 78
1, 202219, Note_off_c, 0, 63, 63
1, 202228, Note_on_c, 0, 59, 72
1, 202273, Note_on_c, 0, 56, 73
1, 202273, Note_off_c, 0, 59, 63
1, 202312, Note_off_c, 0, 56, 65
1, 202363, Control_c, 0, 64, 77
1, 202377, Control_c, 0, 64, 51
1, 202378, Note_on_c, 0, 59, 103
1, 202386, Note_on_c, 0, 47, 86
1, 202392, Control_c, 0, 64, 0
1, 202422, Control_c, 0, 64, 50
1, 202437, Control_c, 0, 64, 68
1, 202451, Control_c, 0, 64, 90
1, 202466, Control_c, 0, 64, 127
1, 202543, Note_off_c, 0, 47, 64
1, 202547, Note_on_c, 0, 63, 68
1, 202570, Note_off_c, 0, 59, 62
1, 202633, Note_on_c, 0, 71, 76
1, 202646, Note_off_c, 0, 63, 63
1, 202682, Note_on_c, 0, 68, 79
1, 202694, Note_off_c, 0, 75, 56
1, 202724, Note_off_c, 0, 71, 62
1, 202756, Note_on_c, 0, 62, 79
1, 202798, Note_off_c, 0, 62, 64
1, 202809, Note_on_c, 0, 63, 78
1, 202833, Note_off_c, 0, 68, 54
1, 202880, Note_on_c, 0, 59, 74
1, 202881, Note_off_c, 0, 63, 63
1, 202926, Note_off_c, 0, 59, 66
1, 202935, Note_on_c, 0, 56, 72
1, 202979, Note_off_c, 0, 56, 63
1, 203067, Note_on_c, 0, 55, 89
1, 203075, Note_on_c, 0, 43, 83
1, 203156, Control_c, 0, 64, 83
1, 203165, Note_on_c, 0, 76, 99
1, 203170, Note_on_c, 0, 64, 95
1, 203170, Control_c, 0, 64, 51
1, 203185, Control_c, 0, 64, 0
1, 203230, Control_c, 0, 64, 55
1, 203244, Control_c, 0, 64, 70
1, 203255, Note_off_c, 0, 43, 62
1, 203259, Control_c, 0, 64, 91
1, 203274, Control_c, 0, 64, 127
1, 203290, Note_off_c, 0, 55, 60
1, 203346, Note_off_c, 0, 64, 62
1, 203373, Note_on_c, 0, 73, 77
1, 203390, Note_off_c, 0, 76, 61
1, 203430, Note_on_c, 0, 70, 79
1, 203436, Note_off_c, 0, 73, 66
1, 203487, Note_on_c, 0, 63, 80
1, 203495, Note_off_c, 0, 70, 65
1, 203532, Note_off_c, 0, 63, 61
1, 203546, Note_on_c, 0, 64, 75
1, 203624, Note_off_c, 0, 64, 63
1, 203625, Note_on_c, 0, 61, 74
1, 203656, Note_off_c, 0, 61, 66
1, 203668, Note_on_c, 0, 58, 70
1, 203700, Note_off_c, 0, 58, 64
1, 203779, Note_on_c, 0, 56, 97
1, 203785, Note_on_c, 0, 44, 90
1, 203799, Control_c, 0, 64, 95
1, 203814, Control_c, 0, 64, 61
1, 203829, Control_c, 0, 64, 0
1, 203871, Note_on_c, 0, 75, 93
1, 203874, Note_on_c, 0, 63, 92
1, 203874, Control_c, 0, 64, 44
1, 203889, Control_c, 0, 64, 63
1, 203904, Control_c, 0, 64, 77
1, 203919, Control_c, 0, 64, 116
1, 203934, Control_c, 0, 64, 127
1, 203940, Note_off_c, 0, 44, 61
1, 203958, Note_off_c, 0, 56, 60
1, 203998, Note_on_c, 0, 71, 84
1, 204001, Note_off_c, 0, 63, 56
1, 204058, Note_off_c, 0, 75, 61
1, 204067, Note_on_c, 0, 70, 84
1, 204095, Note_off_c, 0, 71, 64
1, 204114, Note_on_c, 0, 62, 80
1, 204154, Note_off_c, 0, 70, 63
1, 204160, Note_off_c, 0, 62, 64
1, 204182, Note_on_c, 0, 63, 80
1, 204255, Note_off_c, 0, 63, 64
1, 204273, Note_on_c, 0, 59, 58
1, 204283, Note_on_c, 0, 56, 73
1, 204296, Note_off_c, 0, 59, 59
1, 204309, Note_off_c, 0, 56, 68
1, 204410, Note_on_c, 0, 40, 86
1, 204430, Control_c, 0, 64, 75
1, 204445, Control_c, 0, 64, 0
1, 204489, Control_c, 0, 64, 44
1, 204504, Control_c, 0, 64, 64
1, 204505, Note_off_c, 0, 40, 63
1, 204519, Control_c, 0, 64, 78
1, 204534, Control_c, 0, 64, 112
1, 204548, Control_c, 0, 64, 127
1, 204600, Note_on_c, 0, 56, 100
1, 204636, Note_off_c, 0, 56, 67
1, 204709, Note_on_c, 0, 76, 90
1, 204715, Note_on_c, 0, 64, 83
1, 204896, Note_on_c, 0, 71, 64
1, 204978, Note_off_c, 0, 76, 57
1, 204987, Note_off_c, 0, 64, 53
1, 204991, Note_on_c, 0, 68, 63
1, 205001, Note_off_c, 0, 71, 61
1, 205034, Note_off_c, 0, 68, 62
1, 205084, Note_on_c, 0, 55, 89
1, 205163, Note_on_c, 0, 71, 96
1, 205174, Note_on_c, 0, 59, 85
1, 205235, Note_off_c, 0, 55, 58
1, 205289, Note_off_c, 0, 59, 51
1, 205317, Note_on_c, 0, 67, 68
1, 205418, Note_on_c, 0, 59, 64
1, 205442, Note_off_c, 0, 71, 48
1, 205448, Note_off_c, 0, 59, 64
1, 205495, Note_off_c, 0, 67, 52
1, 205498, Note_on_c, 0, 42, 77
1, 205676, Note_on_c, 0, 54, 75
1, 205792, Note_on_c, 0, 74, 93
1, 205807, Note_on_c, 0, 62, 77
1, 205824, Control_c, 0, 64, 87
1, 205838, Control_c, 0, 64, 61
1, 205853, Control_c, 0, 64, 0
1, 205913, Control_c, 0, 64, 44
1, 205928, Control_c, 0, 64, 60
1, 205943, Control_c, 0, 64, 69
1, 205958, Control_c, 0, 64, 82
1, 205973, Control_c, 0, 64, 106
1, 205983, Note_off_c, 0, 42, 62
1, 205987, Control_c, 0, 64, 127
1, 206012, Note_off_c, 0, 54, 58
1, 206041, Note_off_c, 0, 62, 57
1, 206092, Note_on_c, 0, 71, 61
1, 206108, Note_off_c, 0, 74, 40
1, 206161, Note_on_c, 0, 66, 59
1, 206184, Note_off_c, 0, 71, 61
1, 206224, Note_on_c, 0, 61, 65
1, 206255, Note_off_c, 0, 66, 63
1, 206257, Note_off_c, 0, 61, 66
1, 206290, Note_on_c, 0, 62, 65
1, 206351, Note_on_c, 0, 59, 70
1, 206351, Note_off_c, 0, 62, 62
1, 206393, Note_off_c, 0, 59, 63
1, 206432, Note_on_c, 0, 54, 63
1, 206467, Note_off_c, 0, 54, 65
1, 206567, Note_on_c, 0, 42, 73
1, 206657, Note_on_c, 0, 73, 86
1, 206679, Note_on_c, 0, 61, 67
1, 206692, Control_c, 0, 64, 82
1, 206707, Control_c, 0, 64, 58
1, 206722, Control_c, 0, 64, 0
1, 206781, Control_c, 0, 64, 39
1, 206795, Control_c, 0, 64, 58
1, 206810, Control_c, 0, 64, 67
1, 206825, Control_c, 0, 64, 76
1, 206840, Control_c, 0, 64, 88
1, 206855, Control_c, 0, 64, 106
1, 206860, Note_off_c, 0, 42, 61
1, 206870, Control_c, 0, 64, 127
1, 206952, Note_on_c, 0, 70, 64
1, 206977, Note_off_c, 0, 61, 58
1, 207037, Note_on_c, 0, 64, 58
1, 207084, Note_off_c, 0, 73, 59
1, 207116, Note_on_c, 0, 60, 60
1, 207148, Note_off_c, 0, 70, 54
1, 207151, Note_off_c, 0, 60, 64
1, 207155, Note_off_c, 0, 64, 59
1, 207219, Note_on_c, 0, 61, 69
1, 207298, Note_off_c, 0, 61, 60
1, 207314, Note_on_c, 0, 58, 72
1, 207391, Note_off_c, 0, 58, 54
1, 207425, Note_on_c, 0, 52, 72
1, 207460, Note_off_c, 0, 52, 66
1, 207654, Note_on_c, 0, 35, 74
1, 207824, Control_c, 0, 64, 98
1, 207825, Note_on_c, 0, 71, 89
1, 207839, Control_c, 0, 64, 71
1, 207849, Note_on_c, 0, 59, 64
1, 207854, Control_c, 0, 64, 49
1, 207869, Control_c, 0, 64, 0
1, 207967, Control_c, 0, 64, 31
1, 207982, Control_c, 0, 64, 49
1, 207996, Control_c, 0, 64, 62
1, 208011, Control_c, 0, 64, 69
1, 208026, Control_c, 0, 64, 77
1, 208040, Control_c, 0, 64, 85
1, 208054, Note_off_c, 0, 35, 61
1, 208055, Control_c, 0, 64, 96
1, 208070, Control_c, 0, 64, 116
1, 208085, Control_c, 0, 64, 127
1, 208095, Note_on_c, 0, 66, 60
1, 208111, Note_off_c, 0, 59, 59
1, 208246, Note_on_c, 0, 62, 61
1, 208247, Control_c, 0, 67, 36
1, 208262, Control_c, 0, 67, 51
1, 208277, Control_c, 0, 67, 67
1, 208292, Control_c, 0, 67, 85
1, 208307, Control_c, 0, 67, 101
1, 208321, Control_c, 0, 67, 116
1, 208335, Note_off_c, 0, 71, 34
1, 208336, Control_c, 0, 67, 127
1, 208378, Note_on_c, 0, 58, 61
1, 208428, Note_off_c, 0, 66, 63
1, 208447, Note_off_c, 0, 62, 61
1, 208463, Note_off_c, 0, 58, 55
1, 208474, Note_on_c, 0, 59, 63
1, 208542, Note_off_c, 0, 59, 62
1, 208559, Note_on_c, 0, 54, 60
1, 208613, Note_off_c, 0, 54, 59
1, 208637, Note_on_c, 0, 50, 60
1, 208721, Note_on_c, 0, 47, 69
1, 208745, Control_c, 0, 64, 81
1, 208760, Control_c, 0, 64, 62
1, 208769, Note_off_c, 0, 50, 56
1, 208775, Control_c, 0, 64, 50
1, 208789, Control_c, 0, 64, 53
1, 208804, Control_c, 0, 64, 58
1, 208819, Note_on_c, 0, 66, 72
1, 208819, Control_c, 0, 64, 63
1, 208834, Control_c, 0, 64, 70
1, 208849, Control_c, 0, 64, 79
1, 208863, Control_c, 0, 64, 91
1, 208876, Note_off_c, 0, 47, 59
1, 208878, Control_c, 0, 64, 101
1, 208893, Control_c, 0, 64, 111
1, 208904, Note_on_c, 0, 62, 68
1, 208908, Control_c, 0, 64, 127
1, 208941, Note_off_c, 0, 66, 59
1, 208953, Note_on_c, 0, 59, 67
1, 208980, Note_off_c, 0, 62, 62
1, 209013, Note_on_c, 0, 53, 68
1, 209013, Note_off_c, 0, 59, 63
1, 209062, Note_off_c, 0, 53, 55
1, 209094, Note_on_c, 0, 54, 63
1, 209151, Note_on_c, 0, 50, 58
1, 209151, Note_off_c, 0, 54, 61
1, 209189, Control_c, 0, 64, 91
1, 209204, Control_c, 0, 64, 67
1, 209207, Note_off_c, 0, 50, 61
1, 209210, Note_on_c, 0, 47, 65
1, 209219, Control_c, 0, 64, 46
1, 209234, Control_c, 0, 64, 0
1, 209282, Note_on_c, 0, 42, 70
1, 209293, Control_c, 0, 64, 32
1, 209299, Note_off_c, 0, 47, 54
1, 209308, Control_c, 0, 64, 44
1, 209323, Control_c, 0, 64, 55
1, 209337, Control_c, 0, 64, 61
1, 209352, Control_c, 0, 64, 65
1, 209367, Control_c, 0, 64, 68
1, 209371, Note_on_c, 0, 62, 62
1, 209381, Control_c, 0, 64, 71
1, 209396, Control_c, 0, 64, 75
1, 209411, Note_off_c, 0, 42, 60
1, 209411, Control_c, 0, 64, 80
1, 209426, Control_c, 0, 64, 84
1, 209433, Note_off_c, 0, 62, 62
1, 209441, Control_c, 0, 64, 90
1, 209457, Note_on_c, 0, 59, 62
1, 209463, Control_c, 0, 64, 93
1, 209478, Control_c, 0, 64, 96
1, 209493, Control_c, 0, 64, 98
1, 209507, Note_on_c, 0, 54, 64
1, 209508, Note_off_c, 0, 59, 60
1, 209508, Control_c, 0, 64, 100
1, 209523, Control_c, 0, 64, 102
1, 209575, Note_off_c, 0, 54, 62
1, 209580, Note_on_c, 0, 49, 63
1, 209624, Note_off_c, 0, 49, 58
1, 209650, Note_on_c, 0, 50, 58
1, 209705, Note_off_c, 0, 50, 59
1, 209716, Control_c, 0, 64, 100
1, 209717, Note_on_c, 0, 47, 57
1, 209731, Control_c, 0, 64, 95
1, 209746, Control_c, 0, 64, 88
1, 209760, Control_c, 0, 64, 77
1, 209764, Note_off_c, 0, 47, 61
1, 209775, Control_c, 0, 64, 66
1, 209789, Note_on_c, 0, 42, 61
1, 209790, Control_c, 0, 64, 51
1, 209804, Control_c, 0, 64, 29
1, 209819, Control_c, 0, 64, 0
1, 209875, Note_on_c, 0, 38, 61
1, 209915, Note_off_c, 0, 42, 38
1, 209923, Control_c, 0, 64, 34
1, 209938, Control_c, 0, 64, 46
1, 209952, Control_c, 0, 64, 56
1, 209967, Control_c, 0, 64, 61
1, 209970, Note_on_c, 0, 59, 56
1, 209982, Control_c, 0, 64, 63
1, 209997, Control_c, 0, 64, 65
1, 209998, Note_off_c, 0, 38, 57
1, 210012, Control_c, 0, 64, 66
1, 210027, Control_c, 0, 64, 68
1, 210037, Note_off_c, 0, 59, 61
1, 210041, Control_c, 0, 64, 71
1, 210056, Control_c, 0, 64, 73
1, 210062, Note_on_c, 0, 54, 49
1, 210071, Control_c, 0, 64, 74
1, 210086, Control_c, 0, 64, 75
1, 210101, Control_c, 0, 64, 75
1, 210146, Note_on_c, 0, 50, 55
1, 210146, Control_c, 0, 64, 76
1, 210148, Note_off_c, 0, 54, 62
1, 210222, Note_on_c, 0, 46, 63
1, 210228, Note_off_c, 0, 50, 60
1, 210257, Control_c, 0, 64, 75
1, 210286, Note_off_c, 0, 46, 55
1, 210288, Control_c, 0, 64, 75
1, 210303, Control_c, 0, 64, 74
1, 210315, Note_on_c, 0, 47, 54
1, 210317, Control_c, 0, 64, 72
1, 210332, Control_c, 0, 64, 69
1, 210347, Control_c, 0, 64, 65
1, 210362, Control_c, 0, 64, 59
1, 210377, Control_c, 0, 64, 53
1, 210391, Control_c, 0, 64, 50
1, 210392, Note_off_c, 0, 47, 60
1, 210406, Control_c, 0, 64, 48
1, 210412, Note_on_c, 0, 42, 56
1, 210421, Control_c, 0, 64, 46
1, 210435, Control_c, 0, 64, 44
1, 210450, Control_c, 0, 64, 41
1, 210465, Control_c, 0, 64, 36
1, 210480, Control_c, 0, 64, 30
1, 210483, Note_off_c, 0, 42, 57
1, 210495, Control_c, 0, 64, 0
1, 210537, Note_on_c, 0, 38, 45
1, 210690, Note_off_c, 0, 38, 34
1, 210703, Note_on_c, 0, 35, 45
1, 211532, Note_on_c, 0, 62, 39
1, 211534, Note_on_c, 0, 54, 32
1, 211537, Note_on_c, 0, 59, 33
1, 211546, Note_on_c, 0, 47, 23
1, 212550, Note_off_c, 0, 35, 36
1, 212566, Note_off_c, 0, 62, 36
1, 212587, Note_off_c, 0, 54, 41
1, 212597, Note_off_c, 0, 59, 35
1, 212602, Note_off_c, 0, 47, 37
1, 214239, Control_c, 0, 64, 27
1, 214250, Note_on_c, 0, 35, 36
1, 214253, Control_c, 0, 64, 31
1, 214268, Control_c, 0, 64, 35
1, 214283, Control_c, 0, 64, 39
1, 214298, Control_c, 0, 64, 44
1, 214313, Control_c, 0, 64, 49
1, 214328, Control_c, 0, 64, 53
1, 214343, Control_c, 0, 64, 55
1, 214358, Control_c, 0, 64, 58
1, 214373, Control_c, 0, 64, 60
1, 214388, Control_c, 0, 64, 61
1, 214402, Control_c, 0, 64, 63
1, 214417, Control_c, 0, 64, 65
1, 214432, Control_c, 0, 64, 68
1, 214447, Control_c, 0, 64, 71
1, 214462, Control_c, 0, 64, 75
1, 214476, Control_c, 0, 64, 79
1, 214491, Control_c, 0, 64, 83
1, 214506, Control_c, 0, 64, 87
1, 214521, Control_c, 0, 64, 91
1, 214536, Control_c, 0, 64, 95
1, 214550, Control_c, 0, 64, 101
1, 214565, Control_c, 0, 64, 108
1, 214580, Control_c, 0, 64, 122
1, 214594, Control_c, 0, 64, 127
1, 214594, Control_c, 0, 67, 119
1, 214609, Control_c, 0, 67, 109
1, 214624, Control_c, 0, 67, 96
1, 214639, Control_c, 0, 67, 85
1, 214654, Control_c, 0, 67, 76
1, 214668, Control_c, 0, 67, 67
1, 214683, Control_c, 0, 67, 58
1, 214706, Control_c, 0, 67, 50
1, 214721, Control_c, 0, 67, 43
1, 214736, Control_c, 0, 67, 33
1, 214750, Control_c, 0, 67, 0
1, 215147, Note_on_c, 0, 63, 55
1, 215154, Note_on_c, 0, 59, 47
1, 215181, Note_on_c, 0, 54, 26
1, 215183, Note_on_c, 0, 47, 31
1, 215457, Note_off_c, 0, 35, 37
1, 215526, Note_off_c, 0, 47, 40
1, 216167, Note_on_c, 0, 35, 61
1, 216336, Note_off_c, 0, 54, 40
1, 216356, Note_off_c, 0, 63, 50
1, 216403, Note_off_c, 0, 59, 38
1, 217798, Note_on_c, 0, 66, 69
1, 217821, Note_on_c, 0, 63, 55
1, 217830, Note_on_c, 0, 57, 41
1, 217834, Note_on_c, 0, 47, 41
1, 218027, Control_c, 0, 67, 34
1, 218042, Control_c, 0, 67, 41
1, 218057, Control_c, 0, 67, 49
1, 218072, Control_c, 0, 64, 114
1, 218072, Control_c, 0, 67, 59
1, 218087, Control_c, 0, 64, 109
1, 218087, Control_c, 0, 67, 70
1, 218101, Control_c, 0, 64, 105
1, 218101, Control_c, 0, 67, 81
1, 218116, Control_c, 0, 64, 103
1, 218116, Control_c, 0, 67, 93
1, 218131, Control_c, 0, 64, 101
1, 218131, Control_c, 0, 67, 102
1, 218145, Control_c, 0, 67, 109
1, 218160, Control_c, 0, 64, 98
1, 218160, Control_c, 0, 67, 117
1, 218175, Control_c, 0, 67, 126
1, 219172, Note_off_c, 0, 47, 32
1, 219273, Note_off_c, 0, 35, 31
1, 219348, Control_c, 0, 64, 96
1, 219363, Control_c, 0, 64, 95
1, 219378, Note_off_c, 0, 63, 36
1, 219378, Control_c, 0, 64, 94
1, 219392, Control_c, 0, 64, 92
1, 219407, Control_c, 0, 64, 90
1, 219422, Control_c, 0, 64, 87
1, 219433, Note_off_c, 0, 57, 34
1, 219437, Control_c, 0, 64, 83
1, 219452, Control_c, 0, 64, 78
1, 219466, Control_c, 0, 64, 75
1, 219481, Control_c, 0, 64, 71
1, 219496, Control_c, 0, 64, 67
1, 219511, Control_c, 0, 64, 64
1, 219525, Control_c, 0, 64, 62
1, 219540, Control_c, 0, 64, 62
1, 219555, Control_c, 0, 64, 61
1, 219585, Control_c, 0, 64, 61
1, 219614, Control_c, 0, 64, 60
1, 219644, Control_c, 0, 64, 60
1, 219659, Control_c, 0, 64, 59
1, 219688, Control_c, 0, 64, 59
1, 219703, Control_c, 0, 64, 58
1, 219717, Control_c, 0, 64, 58
1, 219732, Control_c, 0, 64, 57
1, 219747, Control_c, 0, 64, 57
1, 219777, Control_c, 0, 64, 56
1, 219792, Control_c, 0, 64, 56
1, 219807, Control_c, 0, 64, 55
1, 219822, Control_c, 0, 64, 55
1, 219837, Control_c, 0, 64, 54
1, 219867, Control_c, 0, 64, 54
1, 219882, Control_c, 0, 64, 53
1, 219896, Control_c, 0, 64, 53
1, 219911, Control_c, 0, 64, 52
1, 219948, Control_c, 0, 64, 52
1, 219963, Control_c, 0, 64, 51
1, 219978, Control_c, 0, 64, 51
1, 219993, Control_c, 0, 64, 50
1, 220008, Control_c, 0, 64, 50
1, 220037, Control_c, 0, 64, 49
1, 220067, Control_c, 0, 64, 49
1, 220082, Control_c, 0, 64, 48
1, 220126, Control_c, 0, 64, 48
1, 220141, Control_c, 0, 64, 47
1, 220171, Control_c, 0, 64, 47
1, 220200, Control_c, 0, 64, 46
1, 220215, Control_c, 0, 64, 46
1, 220230, Control_c, 0, 64, 45
1, 220275, Control_c, 0, 64, 45
1, 220304, Control_c, 0, 64, 44
1, 220348, Control_c, 0, 64, 44
1, 220378, Control_c, 0, 64, 43
1, 220844, Control_c, 0, 64, 44
1, 221081, Control_c, 0, 64, 44
1, 221563, Control_c, 0, 64, 45
1, 221771, Control_c, 0, 64, 45
1, 221845, Control_c, 0, 64, 46
1, 221859, Control_c, 0, 64, 46
1, 221889, Control_c, 0, 64, 47
1, 221933, Control_c, 0, 64, 47
1, 221963, Control_c, 0, 64, 48
1, 221979, Control_c, 0, 64, 48
1, 222008, Control_c, 0, 64, 49
1, 222038, Control_c, 0, 64, 49
1, 222053, Control_c, 0, 64, 50
1, 222082, Control_c, 0, 64, 50
1, 222097, Control_c, 0, 64, 51
1, 222126, Control_c, 0, 64, 51
1, 222171, Control_c, 0, 64, 52
1, 222193, Control_c, 0, 64, 52
1, 222223, Control_c, 0, 64, 53
1, 222252, Control_c, 0, 64, 53
1, 222269, Control_c, 0, 64, 54
1, 222298, Control_c, 0, 64, 54
1, 222313, Control_c, 0, 64, 55
1, 222328, Control_c, 0, 64, 55
1, 222342, Control_c, 0, 64, 56
1, 222357, Control_c, 0, 64, 56
1, 222387, Control_c, 0, 64, 57
1, 222402, Control_c, 0, 64, 57
1, 222416, Control_c, 0, 64, 58
1, 222431, Control_c, 0, 64, 59
1, 222446, Control_c, 0, 64, 60
1, 222458, Note_on_c, 0, 39, 27
1, 222461, Control_c, 0, 64, 61
1, 222472, Note_on_c, 0, 55, 7
1, 222476, Control_c, 0, 64, 61
1, 222477, Note_on_c, 0, 58, 22
1, 222484, Note_on_c, 0, 51, 9
1, 222490, Control_c, 0, 64, 62
1, 222505, Control_c, 0, 64, 63
1, 222520, Control_c, 0, 64, 64
1, 222534, Control_c, 0, 64, 65
1, 222549, Control_c, 0, 64, 67
1, 222564, Control_c, 0, 64, 69
1, 222579, Control_c, 0, 64, 71
1, 222594, Control_c, 0, 64, 73
1, 222609, Control_c, 0, 64, 74
1, 222624, Control_c, 0, 64, 77
1, 222639, Control_c, 0, 64, 80
1, 222654, Control_c, 0, 64, 85
1, 222669, Control_c, 0, 64, 90
1, 222683, Control_c, 0, 64, 97
1, 222698, Control_c, 0, 64, 108
1, 222713, Control_c, 0, 64, 127
1, 222880, Note_off_c, 0, 58, 40
1, 223079, Note_off_c, 0, 51, 40
1, 223340, Note_on_c, 0, 67, 42
1, 223351, Note_off_c, 0, 39, 43
1, 223458, Note_off_c, 0, 66, 32
1, 223568, Note_off_c, 0, 55, 41
1, 223897, Note_on_c, 0, 65, 41
1, 223937, Note_on_c, 0, 55, 23
1, 223938, Note_on_c, 0, 36, 34
1, 223940, Note_on_c, 0, 60, 19
1, 223960, Note_on_c, 0, 48, 30
1, 224002, Control_c, 0, 64, 90
1, 224017, Control_c, 0, 64, 73
1, 224032, Control_c, 0, 64, 60
1, 224047, Control_c, 0, 64, 51
1, 224049, Note_off_c, 0, 67, 42
1, 224061, Control_c, 0, 64, 50
1, 224076, Control_c, 0, 64, 51
1, 224091, Control_c, 0, 64, 53
1, 224105, Control_c, 0, 64, 56
1, 224120, Control_c, 0, 64, 59
1, 224135, Control_c, 0, 64, 63
1, 224150, Control_c, 0, 64, 69
1, 224165, Control_c, 0, 64, 76
1, 224180, Control_c, 0, 64, 82
1, 224195, Control_c, 0, 64, 87
1, 224210, Control_c, 0, 64, 92
1, 224225, Control_c, 0, 64, 98
1, 224240, Control_c, 0, 64, 106
1, 224254, Control_c, 0, 64, 127
1, 224329, Note_off_c, 0, 48, 42
1, 224379, Note_on_c, 0, 63, 57
1, 224466, Note_off_c, 0, 36, 40
1, 224532, Note_off_c, 0, 65, 53
1, 224576, Note_off_c, 0, 60, 44
1, 224585, Note_off_c, 0, 63, 63
1, 224589, Note_off_c, 0, 55, 40
1, 224839, Note_on_c, 0, 63, 51
1, 224848, Note_on_c, 0, 31, 33
1, 224859, Note_on_c, 0, 55, 26
1, 224863, Note_on_c, 0, 58, 41
1, 224870, Control_c, 0, 64, 90
1, 224875, Note_on_c, 0, 43, 26
1, 224884, Control_c, 0, 64, 74
1, 224899, Control_c, 0, 64, 62
1, 224914, Control_c, 0, 64, 52
1, 224928, Control_c, 0, 64, 48
1, 224943, Control_c, 0, 64, 47
1, 224958, Control_c, 0, 64, 48
1, 224973, Control_c, 0, 64, 48
1, 224988, Control_c, 0, 64, 50
1, 225003, Control_c, 0, 64, 52
1, 225018, Control_c, 0, 64, 55
1, 225032, Control_c, 0, 64, 59
1, 225047, Control_c, 0, 64, 62
1, 225062, Control_c, 0, 64, 66
1, 225077, Control_c, 0, 64, 70
1, 225092, Control_c, 0, 64, 76
1, 225107, Control_c, 0, 64, 80
1, 225122, Control_c, 0, 64, 84
1, 225136, Control_c, 0, 64, 88
1, 225151, Control_c, 0, 64, 92
1, 225166, Control_c, 0, 64, 99
1, 225188, Control_c, 0, 64, 105
1, 225202, Note_off_c, 0, 63, 31
1, 225203, Control_c, 0, 64, 114
1, 225217, Control_c, 0, 64, 127
1, 225474, Note_on_c, 0, 62, 42
1, 225619, Note_off_c, 0, 55, 40
1, 225629, Note_off_c, 0, 43, 40
1, 225632, Note_off_c, 0, 58, 40
1, 225715, Note_off_c, 0, 31, 41
1, 225971, Note_on_c, 0, 59, 39
1, 225985, Note_on_c, 0, 56, 35
1, 225987, Note_on_c, 0, 29, 33
1, 225999, Note_on_c, 0, 41, 28
1, 226012, Control_c, 0, 64, 110
1, 226027, Control_c, 0, 64, 90
1, 226041, Control_c, 0, 64, 75
1, 226056, Control_c, 0, 64, 64
1, 226071, Control_c, 0, 64, 57
1, 226085, Control_c, 0, 64, 54
1, 226115, Control_c, 0, 64, 54
1, 226130, Control_c, 0, 64, 55
1, 226145, Control_c, 0, 64, 58
1, 226159, Control_c, 0, 64, 61
1, 226174, Control_c, 0, 64, 65
1, 226189, Control_c, 0, 64, 71
1, 226204, Control_c, 0, 64, 79
1, 226219, Control_c, 0, 64, 84
1, 226228, Note_off_c, 0, 62, 56
1, 226234, Control_c, 0, 64, 89
1, 226249, Control_c, 0, 64, 94
1, 226264, Control_c, 0, 64, 99
1, 226279, Control_c, 0, 64, 106
1, 226294, Control_c, 0, 64, 119
1, 226308, Control_c, 0, 64, 127
1, 226353, Note_off_c, 0, 41, 41
1, 226435, Note_on_c, 0, 62, 55
1, 226477, Note_off_c, 0, 29, 40
1, 226483, Note_off_c, 0, 59, 55
1, 226606, Note_off_c, 0, 56, 41
1, 227091, Note_on_c, 0, 59, 36
1, 227093, Note_on_c, 0, 27, 37
1, 227101, Note_on_c, 0, 54, 29
1, 227106, Note_on_c, 0, 39, 34
1, 227131, Control_c, 0, 64, 114
1, 227146, Control_c, 0, 64, 93
1, 227161, Control_c, 0, 64, 78
1, 227176, Control_c, 0, 64, 67
1, 227191, Control_c, 0, 64, 58
1, 227206, Control_c, 0, 64, 53
1, 227220, Control_c, 0, 64, 53
1, 227235, Control_c, 0, 64, 54
1, 227250, Control_c, 0, 64, 56
1, 227265, Control_c, 0, 64, 60
1, 227280, Control_c, 0, 64, 64
1, 227295, Control_c, 0, 64, 69
1, 227310, Control_c, 0, 64, 80
1, 227324, Control_c, 0, 64, 91
1, 227339, Control_c, 0, 64, 100
1, 227354, Control_c, 0, 64, 112
1, 227360, Note_off_c, 0, 62, 58
1, 227369, Control_c, 0, 64, 127
1, 227582, Note_on_c, 0, 63, 59
1, 227628, Note_off_c, 0, 27, 40
1, 227710, Note_off_c, 0, 59, 40
1, 227714, Note_off_c, 0, 54, 46
1, 227751, Note_off_c, 0, 39, 42
1, 227997, Note_on_c, 0, 61, 62
1, 228022, Note_on_c, 0, 57, 48
1, 228025, Note_on_c, 0, 51, 37
1, 228026, Note_on_c, 0, 42, 39
1, 228041, Note_on_c, 0, 30, 39
1, 228063, Note_off_c, 0, 63, 64
1, 228073, Control_c, 0, 64, 93
1, 228087, Control_c, 0, 64, 75
1, 228102, Control_c, 0, 64, 63
1, 228117, Control_c, 0, 64, 53
1, 228132, Control_c, 0, 64, 51
1, 228146, Control_c, 0, 64, 52
1, 228161, Control_c, 0, 64, 55
1, 228183, Control_c, 0, 64, 59
1, 228198, Control_c, 0, 64, 62
1, 228213, Control_c, 0, 64, 66
1, 228228, Control_c, 0, 64, 72
1, 228243, Control_c, 0, 64, 82
1, 228258, Control_c, 0, 64, 88
1, 228273, Control_c, 0, 64, 91
1, 228287, Control_c, 0, 64, 93
1, 228302, Control_c, 0, 64, 96
1, 228317, Control_c, 0, 64, 100
1, 228332, Control_c, 0, 64, 105
1, 228347, Control_c, 0, 64, 109
1, 228361, Control_c, 0, 64, 111
1, 228376, Control_c, 0, 64, 114
1, 228391, Control_c, 0, 64, 118
1, 228404, Note_on_c, 0, 59, 71
1, 228406, Control_c, 0, 64, 125
1, 228421, Control_c, 0, 64, 127
1, 228451, Note_off_c, 0, 30, 41
1, 228481, Note_off_c, 0, 42, 36
1, 228615, Note_off_c, 0, 57, 54
1, 228647, Note_off_c, 0, 59, 55
1, 228651, Note_off_c, 0, 51, 31
1, 228694, Note_off_c, 0, 61, 40
1, 228987, Note_on_c, 0, 59, 55
1, 229003, Note_on_c, 0, 31, 34
1, 229007, Note_on_c, 0, 51, 36
1, 229018, Note_on_c, 0, 43, 28
1, 229037, Control_c, 0, 64, 117
1, 229052, Control_c, 0, 64, 98
1, 229066, Control_c, 0, 64, 86
1, 229081, Control_c, 0, 64, 73
1, 229096, Control_c, 0, 64, 62
1, 229110, Control_c, 0, 64, 50
1, 229125, Control_c, 0, 64, 41
1, 229140, Control_c, 0, 64, 31
1, 229155, Control_c, 0, 64, 0
1, 229475, Note_on_c, 0, 58, 57
1, 229475, Note_off_c, 0, 59, 57
1, 229586, Control_c, 0, 64, 27
1, 229600, Control_c, 0, 64, 37
1, 229615, Control_c, 0, 64, 49
1, 229630, Control_c, 0, 64, 58
1, 229644, Control_c, 0, 64, 62
1, 229659, Control_c, 0, 64, 65
1, 229682, Control_c, 0, 64, 68
1, 229689, Note_off_c, 0, 43, 51
1, 229697, Control_c, 0, 64, 72
1, 229712, Control_c, 0, 64, 76
1, 229726, Control_c, 0, 64, 81
1, 229741, Control_c, 0, 64, 86
1, 229754, Note_off_c, 0, 51, 41
1, 229756, Control_c, 0, 64, 90
1, 229771, Control_c, 0, 64, 96
1, 229783, Note_off_c, 0, 31, 41
1, 229786, Control_c, 0, 64, 99
1, 229800, Control_c, 0, 64, 103
1, 229815, Control_c, 0, 64, 105
1, 229830, Control_c, 0, 64, 107
1, 229908, Note_on_c, 0, 53, 38
1, 229910, Note_on_c, 0, 32, 44
1, 229920, Note_on_c, 0, 44, 39
1, 229922, Note_on_c, 0, 50, 36
1, 229948, Control_c, 0, 64, 100
1, 229963, Control_c, 0, 64, 86
1, 229978, Control_c, 0, 64, 74
1, 229993, Control_c, 0, 64, 64
1, 230008, Control_c, 0, 64, 55
1, 230022, Control_c, 0, 64, 52
1, 230037, Control_c, 0, 64, 54
1, 230052, Control_c, 0, 64, 58
1, 230067, Control_c, 0, 64, 64
1, 230082, Control_c, 0, 64, 70
1, 230097, Control_c, 0, 64, 77
1, 230111, Note_off_c, 0, 58, 58
1, 230112, Control_c, 0, 64, 85
1, 230112, Control_c, 0, 67, 123
1, 230126, Control_c, 0, 64, 91
1, 230126, Control_c, 0, 67, 108
1, 230141, Control_c, 0, 64, 99
1, 230141, Control_c, 0, 67, 93
1, 230156, Control_c, 0, 64, 109
1, 230156, Control_c, 0, 67, 76
1, 230171, Control_c, 0, 64, 127
1, 230171, Control_c, 0, 67, 58
1, 230186, Control_c, 0, 67, 42
1, 230200, Control_c, 0, 67, 0
1, 230296, Note_on_c, 0, 58, 68
1, 230363, Note_off_c, 0, 44, 49
1, 230427, Note_off_c, 0, 53, 52
1, 230436, Note_off_c, 0, 32, 40
1, 230452, Note_off_c, 0, 50, 57
1, 230500, Note_off_c, 0, 58, 61
1, 230688, Note_on_c, 0, 31, 31
1, 230693, Note_on_c, 0, 43, 27
1, 230739, Note_on_c, 0, 58, 65
1, 230756, Control_c, 0, 64, 93
1, 230771, Control_c, 0, 64, 73
1, 230786, Note_on_c, 0, 51, 32
1, 230786, Control_c, 0, 64, 56
1, 230801, Control_c, 0, 64, 40
1, 230816, Control_c, 0, 64, 31
1, 230860, Control_c, 0, 64, 33
1, 230875, Control_c, 0, 64, 38
1, 230890, Control_c, 0, 64, 48
1, 230905, Control_c, 0, 64, 56
1, 230920, Control_c, 0, 64, 61
1, 230935, Control_c, 0, 64, 64
1, 230949, Control_c, 0, 64, 65
1, 230964, Control_c, 0, 64, 66
1, 230979, Control_c, 0, 64, 69
1, 230994, Control_c, 0, 64, 72
1, 231008, Control_c, 0, 64, 75
1, 231023, Control_c, 0, 64, 78
1, 231038, Control_c, 0, 64, 80
1, 231054, Control_c, 0, 64, 83
1, 231069, Control_c, 0, 64, 86
1, 231084, Control_c, 0, 64, 89
1, 231098, Control_c, 0, 64, 92
1, 231103, Note_off_c, 0, 51, 45
1, 231113, Control_c, 0, 64, 94
1, 231128, Control_c, 0, 64, 95
1, 231143, Control_c, 0, 64, 95
1, 231158, Control_c, 0, 64, 96
1, 231306, Note_on_c, 0, 63, 64
1, 231328, Control_c, 0, 64, 98
1, 231373, Note_off_c, 0, 58, 54
1, 231431, Control_c, 0, 64, 100
1, 231456, Note_off_c, 0, 31, 40
1, 231491, Control_c, 0, 64, 102
1, 231518, Note_off_c, 0, 43, 41
1, 231535, Control_c, 0, 64, 104
1, 231565, Control_c, 0, 64, 106
1, 231623, Control_c, 0, 64, 108
1, 231882, Note_on_c, 0, 56, 38
1, 231888, Note_on_c, 0, 53, 25
1, 231894, Note_on_c, 0, 35, 40
1, 231898, Note_on_c, 0, 47, 33
1, 231928, Control_c, 0, 64, 105
1, 231943, Control_c, 0, 64, 95
1, 231958, Control_c, 0, 64, 83
1, 231973, Control_c, 0, 64, 70
1, 231988, Control_c, 0, 64, 60
1, 232002, Control_c, 0, 64, 50
1, 232017, Control_c, 0, 64, 48
1, 232032, Control_c, 0, 64, 49
1, 232047, Control_c, 0, 64, 51
1, 232061, Control_c, 0, 64, 55
1, 232076, Control_c, 0, 64, 59
1, 232091, Control_c, 0, 64, 63
1, 232106, Control_c, 0, 64, 66
1, 232121, Control_c, 0, 64, 73
1, 232136, Control_c, 0, 64, 78
1, 232151, Control_c, 0, 64, 81
1, 232166, Control_c, 0, 64, 83
1, 232181, Control_c, 0, 64, 86
1, 232195, Control_c, 0, 64, 90
1, 232210, Control_c, 0, 64, 96
1, 232225, Control_c, 0, 64, 100
1, 232240, Control_c, 0, 64, 105
1, 232254, Control_c, 0, 64, 111
1, 232269, Control_c, 0, 64, 122
1, 232284, Control_c, 0, 64, 127
1, 232325, Note_on_c, 0, 62, 61
1, 232380, Note_off_c, 0, 56, 46
1, 232388, Note_off_c, 0, 63, 62
1, 232451, Note_off_c, 0, 53, 47
1, 232703, Note_on_c, 0, 63, 71
1, 232707, Control_c, 0, 64, 102
1, 232722, Control_c, 0, 64, 73
1, 232724, Note_on_c, 0, 57, 46
1, 232735, Note_on_c, 0, 54, 30
1, 232737, Control_c, 0, 64, 58
1, 232751, Control_c, 0, 64, 48
1, 232759, Note_off_c, 0, 62, 61
1, 232781, Control_c, 0, 64, 51
1, 232796, Control_c, 0, 64, 57
1, 232811, Control_c, 0, 64, 64
1, 232825, Control_c, 0, 64, 74
1, 232840, Control_c, 0, 64, 86
1, 232855, Control_c, 0, 64, 100
1, 232869, Control_c, 0, 64, 127
1, 232884, Note_off_c, 0, 57, 63
1, 232908, Note_off_c, 0, 54, 59
1, 233112, Note_off_c, 0, 35, 57
1, 233228, Note_off_c, 0, 47, 53
1, 233233, Note_on_c, 0, 66, 75
1, 233342, Note_off_c, 0, 63, 56
1, 233699, Note_on_c, 0, 50, 53
1, 233702, Note_on_c, 0, 59, 41
1, 233708, Note_on_c, 0, 38, 52
1, 233711, Note_on_c, 0, 56, 33
1, 233752, Control_c, 0, 64, 89
1, 233766, Control_c, 0, 64, 65
1, 233781, Control_c, 0, 64, 46
1, 233796, Control_c, 0, 64, 32
1, 233811, Control_c, 0, 64, 33
1, 233826, Control_c, 0, 64, 42
1, 233841, Control_c, 0, 64, 55
1, 233856, Control_c, 0, 64, 68
1, 233871, Control_c, 0, 64, 80
1, 233886, Control_c, 0, 64, 94
1, 233900, Control_c, 0, 64, 105
1, 233915, Control_c, 0, 64, 125
1, 233930, Control_c, 0, 64, 127
1, 234081, Note_on_c, 0, 65, 74
1, 234104, Note_off_c, 0, 59, 63
1, 234133, Note_off_c, 0, 56, 38
1, 234151, Note_off_c, 0, 66, 62
1, 234476, Note_on_c, 0, 66, 89
1, 234487, Note_on_c, 0, 57, 52
1, 234500, Control_c, 0, 64, 109
1, 234503, Note_on_c, 0, 60, 51
1, 234514, Control_c, 0, 64, 72
1, 234529, Control_c, 0, 64, 49
1, 234544, Control_c, 0, 64, 0
1, 234566, Note_off_c, 0, 65, 52
1, 234589, Control_c, 0, 64, 46
1, 234603, Control_c, 0, 64, 62
1, 234618, Control_c, 0, 64, 72
1, 234633, Control_c, 0, 64, 81
1, 234647, Control_c, 0, 64, 89
1, 234662, Control_c, 0, 64, 98
1, 234677, Control_c, 0, 64, 114
1, 234684, Note_off_c, 0, 66, 62
1, 234692, Control_c, 0, 64, 127
1, 234886, Note_on_c, 0, 68, 85
1, 234953, Note_off_c, 0, 50, 58
1, 234962, Note_off_c, 0, 38, 33
1, 235003, Note_off_c, 0, 60, 61
1, 235052, Note_off_c, 0, 57, 59
1, 235169, Note_off_c, 0, 68, 58
1, 235406, Note_on_c, 0, 69, 75
1, 235430, Note_on_c, 0, 54, 44
1, 235435, Note_on_c, 0, 61, 48
1, 235436, Note_on_c, 0, 42, 40
1, 235443, Note_on_c, 0, 64, 49
1, 235501, Control_c, 0, 64, 84
1, 235516, Control_c, 0, 64, 61
1, 235531, Control_c, 0, 64, 32
1, 235545, Control_c, 0, 64, 0
1, 235575, Control_c, 0, 64, 41
1, 235589, Control_c, 0, 64, 56
1, 235604, Control_c, 0, 64, 65
1, 235619, Control_c, 0, 64, 70
1, 235634, Control_c, 0, 64, 75
1, 235649, Control_c, 0, 64, 80
1, 235671, Control_c, 0, 64, 87
1, 235686, Control_c, 0, 64, 97
1, 235701, Control_c, 0, 64, 110
1, 235716, Control_c, 0, 64, 127
1, 235790, Note_off_c, 0, 69, 54
1, 235926, Note_on_c, 0, 70, 74
1, 236141, Note_off_c, 0, 54, 55
1, 236168, Note_off_c, 0, 70, 58
1, 236186, Note_off_c, 0, 64, 54
1, 236228, Note_off_c, 0, 42, 37
1, 236251, Note_off_c, 0, 61, 33
1, 236539, Control_c, 0, 67, 39
1, 236554, Control_c, 0, 67, 57
1, 236568, Control_c, 0, 67, 77
1, 236583, Control_c, 0, 67, 98
1, 236598, Control_c, 0, 67, 116
1, 236613, Control_c, 0, 67, 127
1, 236713, Note_on_c, 0, 70, 52
1, 236728, Note_on_c, 0, 65, 38
1, 236731, Note_on_c, 0, 62, 31
1, 236750, Note_on_c, 0, 41, 32
1, 236756, Note_on_c, 0, 53, 28
1, 236791, Control_c, 0, 64, 90
1, 236806, Control_c, 0, 64, 68
1, 236821, Control_c, 0, 64, 54
1, 236835, Control_c, 0, 64, 39
1, 236850, Control_c, 0, 64, 30
1, 236909, Control_c, 0, 64, 35
1, 236924, Control_c, 0, 64, 45
1, 236939, Control_c, 0, 64, 55
1, 236954, Control_c, 0, 64, 62
1, 236969, Control_c, 0, 64, 65
1, 236983, Control_c, 0, 64, 68
1, 236998, Control_c, 0, 64, 70
1, 237013, Control_c, 0, 64, 75
1, 237028, Control_c, 0, 64, 80
1, 237042, Control_c, 0, 64, 85
1, 237049, Note_off_c, 0, 70, 61
1, 237057, Control_c, 0, 64, 90
1, 237062, Note_off_c, 0, 65, 62
1, 237072, Control_c, 0, 64, 96
1, 237087, Control_c, 0, 64, 107
1, 237102, Control_c, 0, 64, 127
1, 237131, Note_off_c, 0, 62, 41
1, 237404, Note_off_c, 0, 53, 51
1, 237408, Note_on_c, 0, 65, 53
1, 237418, Note_on_c, 0, 62, 45
1, 237460, Note_on_c, 0, 58, 21
1, 237568, Note_off_c, 0, 41, 40
1, 237609, Note_off_c, 0, 58, 40
1, 237883, Note_on_c, 0, 53, 36
1, 237895, Note_on_c, 0, 57, 36
1, 237899, Note_on_c, 0, 29, 41
1, 237901, Note_on_c, 0, 41, 41
1, 237918, Control_c, 0, 64, 92
1, 237933, Control_c, 0, 64, 73
1, 237947, Control_c, 0, 64, 62
1, 237962, Control_c, 0, 64, 55
1, 237977, Control_c, 0, 64, 55
1, 237991, Control_c, 0, 64, 59
1, 238006, Control_c, 0, 64, 62
1, 238021, Control_c, 0, 64, 66
1, 238036, Control_c, 0, 64, 74
1, 238051, Control_c, 0, 64, 81
1, 238065, Control_c, 0, 64, 86
1, 238080, Control_c, 0, 64, 93
1, 238093, Note_off_c, 0, 65, 56
1, 238095, Control_c, 0, 64, 102
1, 238110, Control_c, 0, 64, 121
1, 238125, Control_c, 0, 64, 127
1, 238187, Note_off_c, 0, 29, 40
1, 238190, Note_off_c, 0, 62, 36
1, 238197, Note_off_c, 0, 41, 36
1, 238312, Note_on_c, 0, 63, 65
1, 238331, Note_on_c, 0, 60, 50
1, 238408, Note_off_c, 0, 57, 39
1, 238558, Note_off_c, 0, 63, 38
1, 238563, Note_off_c, 0, 53, 35
1, 238592, Note_off_c, 0, 60, 38
1, 238983, Note_on_c, 0, 63, 51
1, 238998, Note_on_c, 0, 34, 39
1, 239007, Note_on_c, 0, 46, 30
1, 239009, Note_on_c, 0, 53, 34
1, 239011, Note_on_c, 0, 58, 42
1, 239082, Control_c, 0, 64, 97
1, 239097, Control_c, 0, 64, 79
1, 239111, Control_c, 0, 64, 65
1, 239126, Control_c, 0, 64, 55
1, 239141, Control_c, 0, 64, 48
1, 239156, Control_c, 0, 64, 46
1, 239201, Control_c, 0, 64, 47
1, 239216, Control_c, 0, 64, 49
1, 239230, Control_c, 0, 64, 53
1, 239245, Control_c, 0, 64, 58
1, 239260, Control_c, 0, 64, 63
1, 239275, Control_c, 0, 64, 66
1, 239290, Control_c, 0, 64, 69
1, 239305, Control_c, 0, 64, 73
1, 239319, Control_c, 0, 64, 77
1, 239334, Control_c, 0, 64, 81
1, 239349, Control_c, 0, 64, 85
1, 239364, Control_c, 0, 64, 89
1, 239378, Control_c, 0, 64, 92
1, 239393, Control_c, 0, 64, 96
1, 239415, Control_c, 0, 64, 100
1, 239428, Note_off_c, 0, 46, 36
1, 239430, Control_c, 0, 64, 105
1, 239445, Control_c, 0, 64, 111
1, 239447, Note_off_c, 0, 34, 41
1, 239460, Control_c, 0, 64, 122
1, 239475, Control_c, 0, 64, 127
1, 239524, Note_off_c, 0, 63, 30
1, 239593, Note_off_c, 0, 58, 0
1, 239603, Note_on_c, 0, 62, 49
1, 239630, Poly_aftertouch_c, 0, 58, 127
1, 239671, Poly_aftertouch_c, 0, 58, 0
1, 239673, Note_off_c, 0, 53, 41
1, 239693, Note_off_c, 0, 62, 55
1, 239833, Note_on_c, 0, 62, 51
1, 239852, Note_on_c, 0, 46, 35
1, 239854, Note_on_c, 0, 53, 26
1, 239855, Note_on_c, 0, 58, 36
1, 239859, Note_on_c, 0, 34, 33
1, 239890, Control_c, 0, 64, 96
1, 239905, Control_c, 0, 64, 78
1, 239920, Control_c, 0, 64, 64
1, 239934, Control_c, 0, 64, 51
1, 239949, Control_c, 0, 64, 44
1, 239964, Control_c, 0, 64, 43
1, 239979, Control_c, 0, 64, 45
1, 239994, Control_c, 0, 64, 49
1, 240008, Control_c, 0, 64, 53
1, 240023, Control_c, 0, 64, 57
1, 240038, Control_c, 0, 64, 61
1, 240053, Control_c, 0, 64, 64
1, 240068, Control_c, 0, 64, 70
1, 240083, Control_c, 0, 64, 76
1, 240098, Control_c, 0, 64, 82
1, 240113, Control_c, 0, 64, 86
1, 240127, Control_c, 0, 64, 90
1, 240142, Control_c, 0, 64, 95
1, 240164, Control_c, 0, 64, 100
1, 240179, Control_c, 0, 64, 108
1, 240193, Control_c, 0, 64, 125
1, 240208, Control_c, 0, 64, 127
1, 240268, Control_c, 0, 67, 121
1, 240280, Note_off_c, 0, 34, 41
1, 240283, Control_c, 0, 67, 117
1, 240298, Control_c, 0, 67, 112
1, 240313, Control_c, 0, 67, 107
1, 240323, Note_off_c, 0, 58, 53
1, 240327, Control_c, 0, 67, 99
1, 240337, Note_off_c, 0, 46, 57
1, 240339, Note_off_c, 0, 53, 41
1, 240342, Control_c, 0, 67, 90
1, 240357, Control_c, 0, 67, 82
1, 240372, Control_c, 0, 67, 74
1, 240386, Control_c, 0, 67, 67
1, 240401, Control_c, 0, 67, 60
1, 240416, Control_c, 0, 67, 52
1, 240431, Control_c, 0, 67, 45
1, 240446, Control_c, 0, 67, 39
1, 240460, Control_c, 0, 67, 34
1, 240475, Control_c, 0, 67, 0
1, 240685, Note_on_c, 0, 36, 47
1, 240690, Note_on_c, 0, 48, 43
1, 240693, Note_on_c, 0, 53, 29
1, 240694, Note_on_c, 0, 58, 36
1, 240850, Note_off_c, 0, 62, 35
1, 241079, Note_on_c, 0, 62, 66
1, 241086, Note_off_c, 0, 48, 54
1, 241097, Note_off_c, 0, 36, 60
1, 241194, Note_off_c, 0, 58, 52
1, 241217, Note_off_c, 0, 53, 60
1, 241439, Note_on_c, 0, 63, 75
1, 241450, Note_on_c, 0, 58, 53
1, 241457, Note_on_c, 0, 46, 50
1, 241464, Note_on_c, 0, 34, 46
1, 241464, Note_on_c, 0, 53, 38
1, 241496, Note_off_c, 0, 62, 61
1, 241605, Note_off_c, 0, 46, 59
1, 241638, Note_off_c, 0, 34, 40
1, 241660, Note_off_c, 0, 58, 59
1, 241817, Note_on_c, 0, 65, 74
1, 241872, Note_off_c, 0, 53, 19
1, 241909, Note_off_c, 0, 63, 57
1, 242329, Note_on_c, 0, 63, 62
1, 242333, Note_on_c, 0, 32, 46
1, 242345, Note_on_c, 0, 53, 42
1, 242348, Note_on_c, 0, 44, 38
1, 242356, Note_on_c, 0, 59, 46
1, 242425, Note_off_c, 0, 65, 59
1, 242441, Control_c, 0, 64, 95
1, 242455, Control_c, 0, 64, 75
1, 242470, Control_c, 0, 64, 61
1, 242485, Control_c, 0, 64, 46
1, 242500, Control_c, 0, 64, 36
1, 242515, Control_c, 0, 64, 31
1, 242574, Control_c, 0, 64, 32
1, 242588, Control_c, 0, 64, 37
1, 242603, Control_c, 0, 64, 44
1, 242618, Control_c, 0, 64, 53
1, 242633, Control_c, 0, 64, 59
1, 242648, Control_c, 0, 64, 63
1, 242662, Control_c, 0, 64, 66
1, 242677, Control_c, 0, 64, 69
1, 242692, Control_c, 0, 64, 72
1, 242707, Control_c, 0, 64, 75
1, 242722, Control_c, 0, 64, 79
1, 242736, Control_c, 0, 64, 82
1, 242751, Control_c, 0, 64, 87
1, 242766, Control_c, 0, 64, 91
1, 242781, Control_c, 0, 64, 95
1, 242796, Control_c, 0, 64, 99
1, 242811, Control_c, 0, 64, 103
1, 242825, Control_c, 0, 64, 107
1, 242840, Control_c, 0, 64, 112
1, 242849, Note_off_c, 0, 44, 35
1, 242855, Control_c, 0, 64, 117
1, 242863, Note_off_c, 0, 63, 36
1, 242865, Note_off_c, 0, 32, 37
1, 242870, Control_c, 0, 64, 127
1, 242879, Note_off_c, 0, 59, 36
1, 242966, Note_off_c, 0, 53, 29
1, 243037, Note_on_c, 0, 62, 54
1, 243116, Note_off_c, 0, 62, 59
1, 243270, Note_on_c, 0, 62, 41
1, 243290, Note_on_c, 0, 44, 28
1, 243291, Note_on_c, 0, 32, 41
1, 243296, Note_on_c, 0, 53, 30
1, 243305, Note_on_c, 0, 59, 38
1, 243323, Control_c, 0, 64, 97
1, 243338, Control_c, 0, 64, 77
1, 243352, Control_c, 0, 64, 64
1, 243367, Control_c, 0, 64, 52
1, 243382, Control_c, 0, 64, 45
1, 243397, Control_c, 0, 64, 44
1, 243426, Control_c, 0, 64, 44
1, 243441, Control_c, 0, 64, 47
1, 243456, Control_c, 0, 64, 52
1, 243471, Control_c, 0, 64, 58
1, 243485, Control_c, 0, 64, 63
1, 243500, Control_c, 0, 64, 68
1, 243515, Control_c, 0, 64, 74
1, 243529, Control_c, 0, 64, 80
1, 243544, Control_c, 0, 64, 86
1, 243559, Control_c, 0, 64, 93
1, 243574, Control_c, 0, 64, 103
1, 243589, Control_c, 0, 64, 127
1, 243687, Note_off_c, 0, 32, 39
1, 243710, Note_off_c, 0, 44, 41
1, 243754, Note_off_c, 0, 59, 42
1, 243779, Note_off_c, 0, 53, 37
1, 244044, Note_on_c, 0, 46, 51
1, 244063, Note_on_c, 0, 34, 52
1, 244066, Note_on_c, 0, 59, 42
1, 244070, Note_on_c, 0, 53, 39
1, 244162, Note_off_c, 0, 62, 44
1, 244409, Note_on_c, 0, 62, 81
1, 244492, Note_off_c, 0, 59, 62
1, 244496, Note_off_c, 0, 46, 58
1, 244568, Note_off_c, 0, 53, 36
1, 244569, Note_off_c, 0, 34, 42
1, 244757, Note_on_c, 0, 63, 83
1, 244777, Note_on_c, 0, 44, 61
1, 244786, Note_on_c, 0, 32, 60
1, 244799, Note_on_c, 0, 53, 37
1, 244805, Control_c, 0, 64, 114
1, 244816, Note_on_c, 0, 59, 12
1, 244820, Control_c, 0, 64, 74
1, 244831, Note_off_c, 0, 62, 63
1, 244835, Control_c, 0, 64, 51
1, 244850, Control_c, 0, 64, 0
1, 244894, Control_c, 0, 64, 32
1, 244909, Control_c, 0, 64, 51
1, 244924, Control_c, 0, 64, 64
1, 244939, Control_c, 0, 64, 71
1, 244954, Control_c, 0, 64, 77
1, 244969, Control_c, 0, 64, 82
1, 244983, Control_c, 0, 64, 88
1, 244998, Control_c, 0, 64, 95
1, 245013, Control_c, 0, 64, 105
1, 245028, Control_c, 0, 64, 127
1, 245131, Note_on_c, 0, 65, 84
1, 245189, Note_off_c, 0, 63, 63
1, 245222, Note_off_c, 0, 44, 38
1, 245277, Note_off_c, 0, 32, 36
1, 245285, Note_off_c, 0, 59, 46
1, 245316, Note_off_c, 0, 53, 34
1, 245431, Note_off_c, 0, 65, 58
1, 245483, Note_on_c, 0, 31, 43
1, 245708, Note_on_c, 0, 68, 69
1, 245741, Note_on_c, 0, 53, 46
1, 245741, Note_on_c, 0, 59, 50
1, 245747, Note_on_c, 0, 43, 46
1, 245821, Control_c, 0, 64, 84
1, 245836, Control_c, 0, 64, 63
1, 245851, Control_c, 0, 64, 41
1, 245866, Control_c, 0, 64, 0
1, 245940, Control_c, 0, 64, 32
1, 245955, Control_c, 0, 64, 44
1, 245970, Control_c, 0, 64, 54
1, 245985, Control_c, 0, 64, 60
1, 245999, Control_c, 0, 64, 63
1, 246014, Control_c, 0, 64, 65
1, 246029, Control_c, 0, 64, 68
1, 246044, Control_c, 0, 64, 71
1, 246059, Control_c, 0, 64, 75
1, 246073, Control_c, 0, 64, 79
1, 246088, Control_c, 0, 64, 85
1, 246103, Control_c, 0, 64, 91
1, 246117, Control_c, 0, 64, 98
1, 246132, Control_c, 0, 64, 110
1, 246155, Control_c, 0, 64, 127
1, 246197, Note_off_c, 0, 53, 33
1, 246229, Note_off_c, 0, 68, 34
1, 246330, Note_off_c, 0, 59, 35
1, 246343, Note_off_c, 0, 43, 36
1, 246403, Note_on_c, 0, 67, 62
1, 246456, Note_off_c, 0, 31, 41
1, 246528, Note_off_c, 0, 67, 49
1, 246668, Note_on_c, 0, 67, 68
1, 246688, Note_on_c, 0, 53, 49
1, 246697, Note_on_c, 0, 59, 52
1, 246699, Note_on_c, 0, 41, 44
1, 246706, Note_on_c, 0, 29, 47
1, 246805, Note_off_c, 0, 67, 56
1, 246828, Note_off_c, 0, 53, 61
1, 246907, Note_off_c, 0, 59, 35
1, 247023, Note_on_c, 0, 51, 76
1, 247094, Note_off_c, 0, 41, 50
1, 247111, Poly_aftertouch_c, 0, 63, 127
1, 247149, Poly_aftertouch_c, 0, 63, 0
1, 247159, Note_off_c, 0, 51, 61
1, 247163, Note_off_c, 0, 29, 36
1, 247303, Note_on_c, 0, 50, 77
1, 247400, Note_off_c, 0, 50, 57
1, 247602, Note_on_c, 0, 55, 76
1, 247618, Note_on_c, 0, 39, 74
1, 247621, Note_on_c, 0, 27, 65
1, 247651, Note_on_c, 0, 59, 48
1, 247666, Control_c, 0, 64, 90
1, 247681, Control_c, 0, 64, 66
1, 247696, Control_c, 0, 64, 48
1, 247710, Control_c, 0, 64, 33
1, 247725, Control_c, 0, 64, 30
1, 247740, Control_c, 0, 64, 36
1, 247755, Control_c, 0, 64, 51
1, 247770, Control_c, 0, 64, 65
1, 247784, Control_c, 0, 64, 79
1, 247799, Control_c, 0, 64, 111
1, 247814, Control_c, 0, 64, 127
1, 247900, Note_off_c, 0, 39, 60
1, 247902, Note_off_c, 0, 27, 54
1, 248018, Note_on_c, 0, 67, 88
1, 248215, Note_off_c, 0, 67, 59
1, 248248, Note_off_c, 0, 59, 56
1, 248252, Note_off_c, 0, 55, 60
1, 248424, Note_on_c, 0, 68, 89
1, 248430, Note_on_c, 0, 59, 63
1, 248446, Note_on_c, 0, 55, 69
1, 248450, Note_on_c, 0, 38, 74
1, 248453, Note_on_c, 0, 26, 62
1, 248504, Control_c, 0, 64, 116
1, 248519, Control_c, 0, 64, 72
1, 248534, Control_c, 0, 64, 47
1, 248549, Control_c, 0, 64, 0
1, 248579, Control_c, 0, 64, 32
1, 248593, Control_c, 0, 64, 55
1, 248608, Control_c, 0, 64, 69
1, 248623, Control_c, 0, 64, 81
1, 248638, Control_c, 0, 64, 94
1, 248653, Control_c, 0, 64, 109
1, 248668, Control_c, 0, 64, 127
1, 248734, Note_off_c, 0, 68, 57
1, 248744, Note_off_c, 0, 55, 60
1, 248804, Note_off_c, 0, 59, 61
1, 248840, Note_on_c, 0, 65, 90
1, 248976, Note_off_c, 0, 38, 57
1, 249036, Note_off_c, 0, 26, 58
1, 249053, Note_off_c, 0, 65, 60
1, 249257, Note_on_c, 0, 65, 89
1, 249272, Note_on_c, 0, 55, 78
1, 249273, Note_on_c, 0, 60, 71
1, 249281, Note_on_c, 0, 36, 81
1, 249285, Note_on_c, 0, 24, 80
1, 249312, Control_c, 0, 64, 77
1, 249327, Control_c, 0, 64, 54
1, 249341, Control_c, 0, 64, 0
1, 249386, Control_c, 0, 64, 45
1, 249401, Control_c, 0, 64, 64
1, 249416, Control_c, 0, 64, 78
1, 249431, Control_c, 0, 64, 127
1, 249479, Note_off_c, 0, 55, 60
1, 249496, Note_off_c, 0, 24, 62
1, 249498, Note_off_c, 0, 36, 60
1, 249616, Note_off_c, 0, 60, 54
1, 249696, Note_on_c, 0, 63, 90
1, 249796, Note_off_c, 0, 65, 59
1, 249830, Note_off_c, 0, 63, 60
1, 250157, Note_on_c, 0, 67, 89
1, 250165, Note_on_c, 0, 63, 82
1, 250167, Note_on_c, 0, 60, 78
1, 250177, Note_on_c, 0, 46, 81
1, 250180, Note_on_c, 0, 34, 80
1, 250239, Control_c, 0, 64, 69
1, 250254, Control_c, 0, 64, 0
1, 250328, Control_c, 0, 64, 37
1, 250343, Control_c, 0, 64, 64
1, 250358, Control_c, 0, 64, 77
1, 250373, Control_c, 0, 64, 112
1, 250388, Control_c, 0, 64, 127
1, 250434, Note_off_c, 0, 63, 62
1, 250445, Note_off_c, 0, 67, 61
1, 250633, Note_on_c, 0, 72, 99
1, 250890, Note_off_c, 0, 46, 60
1, 250917, Note_off_c, 0, 60, 61
1, 250953, Note_off_c, 0, 34, 56
1, 251229, Note_on_c, 0, 74, 101
1, 251241, Note_on_c, 0, 62, 67
1, 251242, Note_on_c, 0, 33, 81
1, 251242, Note_on_c, 0, 45, 83
1, 251244, Note_on_c, 0, 66, 78
1, 251246, Note_on_c, 0, 60, 72
1, 251299, Control_c, 0, 64, 104
1, 251314, Control_c, 0, 64, 66
1, 251327, Note_off_c, 0, 72, 58
1, 251329, Control_c, 0, 64, 0
1, 251346, Poly_aftertouch_c, 0, 64, 0
1, 251485, Control_c, 0, 64, 42
1, 251499, Control_c, 0, 64, 51
1, 251514, Control_c, 0, 64, 63
1, 251529, Control_c, 0, 64, 72
1, 251543, Control_c, 0, 64, 91
1, 251558, Control_c, 0, 64, 127
1, 251576, Note_off_c, 0, 74, 62
1, 251929, Note_on_c, 0, 75, 89
1, 252129, Note_off_c, 0, 66, 61
1, 252168, Note_off_c, 0, 60, 62
1, 252170, Note_off_c, 0, 62, 62
1, 252185, Note_off_c, 0, 45, 59
1, 252220, Note_off_c, 0, 33, 54
1, 252514, Note_on_c, 0, 44, 68
1, 252522, Note_on_c, 0, 63, 53
1, 252522, Note_on_c, 0, 32, 68
1, 252545, Note_on_c, 0, 66, 53
1, 252589, Control_c, 0, 64, 75
1, 252604, Control_c, 0, 64, 48
1, 252620, Control_c, 0, 64, 0
1, 252678, Control_c, 0, 64, 41
1, 252693, Control_c, 0, 64, 52
1, 252707, Control_c, 0, 64, 59
1, 252722, Control_c, 0, 64, 63
1, 252737, Control_c, 0, 64, 68
1, 252752, Control_c, 0, 64, 75
1, 252767, Control_c, 0, 64, 84
1, 252776, Note_off_c, 0, 66, 63
1, 252782, Control_c, 0, 64, 97
1, 252797, Control_c, 0, 64, 122
1, 252811, Control_c, 0, 64, 127
1, 253046, Note_on_c, 0, 72, 84
1, 253078, Note_off_c, 0, 44, 57
1, 253109, Note_off_c, 0, 75, 59
1, 253115, Note_off_c, 0, 32, 55
1, 253260, Note_on_c, 0, 31, 72
1, 253370, Note_off_c, 0, 63, 54
1, 253401, Note_off_c, 0, 72, 56
1, 253697, Note_on_c, 0, 72, 91
1, 253710, Note_on_c, 0, 63, 74
1, 253719, Note_on_c, 0, 67, 71
1, 253736, Note_on_c, 0, 43, 72
1, 253790, Control_c, 0, 64, 86
1, 253805, Control_c, 0, 64, 60
1, 253819, Control_c, 0, 64, 0
1, 253908, Control_c, 0, 64, 36
1, 253923, Control_c, 0, 64, 49
1, 253938, Control_c, 0, 64, 59
1, 253953, Control_c, 0, 64, 64
1, 253968, Control_c, 0, 64, 68
1, 253983, Control_c, 0, 64, 74
1, 253998, Control_c, 0, 64, 82
1, 254012, Control_c, 0, 64, 91
1, 254027, Control_c, 0, 64, 103
1, 254042, Control_c, 0, 64, 127
1, 254180, Note_on_c, 0, 71, 87
1, 254208, Note_off_c, 0, 72, 61
1, 254216, Note_off_c, 0, 67, 62
1, 254336, Note_off_c, 0, 63, 60
1, 254510, Note_off_c, 0, 31, 60
1, 254519, Note_off_c, 0, 71, 53
1, 254549, Note_on_c, 0, 60, 92
1, 254553, Note_off_c, 0, 43, 61
1, 254559, Note_on_c, 0, 72, 77
1, 254570, Note_on_c, 0, 64, 57
1, 254833, Note_off_c, 0, 64, 60
1, 254880, Note_on_c, 0, 70, 93
1, 254918, Note_off_c, 0, 72, 62
1, 255015, Note_on_c, 0, 43, 79
1, 255017, Note_off_c, 0, 60, 63
1, 255038, Note_off_c, 0, 70, 59
1, 255372, Note_on_c, 0, 70, 88
1, 255378, Note_on_c, 0, 61, 81
1, 255389, Note_on_c, 0, 65, 69
1, 255407, Control_c, 0, 64, 97
1, 255422, Control_c, 0, 64, 65
1, 255437, Control_c, 0, 64, 33
1, 255452, Control_c, 0, 64, 0
1, 255481, Control_c, 0, 64, 46
1, 255496, Control_c, 0, 64, 62
1, 255510, Control_c, 0, 64, 72
1, 255525, Control_c, 0, 64, 81
1, 255536, Poly_aftertouch_c, 0, 48, 127
1, 255540, Control_c, 0, 64, 88
1, 255555, Control_c, 0, 64, 94
1, 255570, Control_c, 0, 64, 103
1, 255584, Control_c, 0, 64, 125
1, 255599, Control_c, 0, 64, 127
1, 255819, Note_on_c, 0, 69, 84
1, 255842, Note_off_c, 0, 65, 60
1, 255869, Note_off_c, 0, 70, 60
1, 255948, Note_off_c, 0, 61, 61
1, 256190, Note_on_c, 0, 70, 91
1, 256197, Note_on_c, 0, 58, 83
1, 256197, Note_on_c, 0, 62, 70
1, 256238, Note_off_c, 0, 69, 59
1, 256293, Note_off_c, 0, 43, 58
1, 256318, Poly_aftertouch_c, 0, 71, 0
1, 256336, Poly_aftertouch_c, 0, 48, 0
1, 256368, Note_off_c, 0, 70, 59
1, 256447, Note_off_c, 0, 58, 59
1, 256634, Note_on_c, 0, 68, 93
1, 256645, Note_on_c, 0, 59, 78
1, 256896, Note_off_c, 0, 59, 57
1, 256911, Note_off_c, 0, 68, 59
1, 257014, Note_off_c, 0, 62, 51
1, 257180, Note_on_c, 0, 67, 94
1, 257196, Note_on_c, 0, 43, 76
1, 257198, Note_on_c, 0, 60, 72
1, 257202, Note_on_c, 0, 31, 72
1, 257202, Note_on_c, 0, 63, 70
1, 257215, Control_c, 0, 64, 70
1, 257229, Control_c, 0, 64, 42
1, 257244, Control_c, 0, 64, 0
1, 257304, Control_c, 0, 64, 45
1, 257319, Control_c, 0, 64, 60
1, 257334, Control_c, 0, 64, 65
1, 257348, Control_c, 0, 64, 69
1, 257363, Control_c, 0, 64, 75
1, 257385, Control_c, 0, 64, 82
1, 257400, Control_c, 0, 64, 94
1, 257416, Control_c, 0, 64, 111
1, 257431, Control_c, 0, 64, 127
1, 257461, Note_off_c, 0, 60, 59
1, 257467, Note_off_c, 0, 63, 59
1, 257505, Note_off_c, 0, 67, 57
1, 257587, Note_on_c, 0, 65, 85
1, 257807, Note_off_c, 0, 65, 59
1, 257874, Note_on_c, 0, 63, 94
1, 257983, Note_off_c, 0, 63, 63
1, 257998, Note_off_c, 0, 43, 57
1, 258029, Note_off_c, 0, 31, 57
1, 258217, Note_on_c, 0, 63, 89
1, 258228, Note_on_c, 0, 53, 74
1, 258233, Note_on_c, 0, 60, 71
1, 258239, Note_on_c, 0, 44, 75
1, 258253, Note_on_c, 0, 32, 65
1, 258284, Control_c, 0, 64, 119
1, 258299, Control_c, 0, 64, 76
1, 258314, Control_c, 0, 64, 54
1, 258328, Control_c, 0, 64, 0
1, 258417, Control_c, 0, 64, 27
1, 258432, Control_c, 0, 64, 40
1, 258447, Control_c, 0, 64, 55
1, 258462, Control_c, 0, 64, 62
1, 258476, Control_c, 0, 64, 66
1, 258491, Control_c, 0, 64, 70
1, 258506, Control_c, 0, 64, 75
1, 258516, Note_off_c, 0, 32, 56
1, 258521, Control_c, 0, 64, 81
1, 258535, Control_c, 0, 64, 89
1, 258550, Control_c, 0, 64, 102
1, 258565, Control_c, 0, 64, 127
1, 258584, Note_off_c, 0, 44, 55
1, 258848, Note_off_c, 0, 53, 32
1, 259206, Note_on_c, 0, 55, 73
1, 259226, Note_on_c, 0, 31, 56
1, 259230, Note_on_c, 0, 43, 60
1, 259284, Control_c, 0, 64, 90
1, 259299, Control_c, 0, 64, 64
1, 259314, Control_c, 0, 64, 35
1, 259329, Control_c, 0, 64, 0
1, 259390, Note_off_c, 0, 63, 58
1, 259403, Control_c, 0, 64, 39
1, 259418, Control_c, 0, 64, 50
1, 259431, Control_c, 0, 64, 59
1, 259446, Control_c, 0, 64, 63
1, 259461, Control_c, 0, 64, 65
1, 259475, Control_c, 0, 64, 68
1, 259490, Control_c, 0, 64, 72
1, 259505, Control_c, 0, 64, 77
1, 259520, Control_c, 0, 64, 82
1, 259535, Control_c, 0, 64, 87
1, 259549, Control_c, 0, 64, 94
1, 259564, Control_c, 0, 64, 105
1, 259579, Control_c, 0, 64, 127
1, 259708, Note_on_c, 0, 63, 83
1, 259985, Note_off_c, 0, 60, 54
1, 259987, Note_off_c, 0, 43, 34
1, 259991, Note_off_c, 0, 55, 57
1, 260042, Note_off_c, 0, 63, 53
1, 260100, Note_off_c, 0, 31, 33
1, 260342, Note_on_c, 0, 63, 81
1, 260363, Note_on_c, 0, 56, 60
1, 260363, Note_on_c, 0, 59, 59
1, 260379, Note_on_c, 0, 41, 52
1, 260380, Note_on_c, 0, 29, 55
1, 260454, Control_c, 0, 64, 102
1, 260469, Control_c, 0, 64, 73
1, 260484, Control_c, 0, 64, 54
1, 260499, Control_c, 0, 64, 0
1, 260587, Control_c, 0, 64, 36
1, 260603, Control_c, 0, 64, 48
1, 260618, Control_c, 0, 64, 58
1, 260633, Control_c, 0, 64, 63
1, 260648, Control_c, 0, 64, 65
1, 260663, Control_c, 0, 64, 68
1, 260677, Control_c, 0, 64, 71
1, 260692, Control_c, 0, 64, 75
1, 260707, Control_c, 0, 64, 80
1, 260721, Control_c, 0, 64, 85
1, 260736, Control_c, 0, 64, 90
1, 260751, Control_c, 0, 64, 96
1, 260762, Note_off_c, 0, 63, 55
1, 260766, Control_c, 0, 64, 104
1, 260781, Control_c, 0, 64, 122
1, 260796, Control_c, 0, 64, 127
1, 260966, Note_on_c, 0, 65, 76
1, 261166, Note_off_c, 0, 41, 51
1, 261251, Note_off_c, 0, 65, 54
1, 261301, Note_off_c, 0, 56, 39
1, 261321, Control_c, 0, 67, 40
1, 261323, Note_off_c, 0, 59, 38
1, 261334, Note_off_c, 0, 29, 41
1, 261336, Control_c, 0, 67, 58
1, 261351, Control_c, 0, 67, 67
1, 261366, Control_c, 0, 67, 72
1, 261381, Control_c, 0, 67, 73
1, 261411, Control_c, 0, 67, 73
1, 261426, Control_c, 0, 67, 74
1, 261441, Control_c, 0, 67, 75
1, 261485, Control_c, 0, 67, 76
1, 261500, Control_c, 0, 67, 76
1, 261515, Control_c, 0, 67, 77
1, 261530, Control_c, 0, 67, 77
1, 261545, Control_c, 0, 67, 78
1, 261574, Control_c, 0, 67, 78
1, 261589, Control_c, 0, 67, 89
1, 261604, Control_c, 0, 67, 108
1, 261619, Control_c, 0, 67, 122
1, 261633, Control_c, 0, 67, 127
1, 261762, Note_on_c, 0, 63, 70
1, 261774, Note_on_c, 0, 60, 62
1, 261784, Note_on_c, 0, 55, 55
1, 261793, Note_on_c, 0, 24, 55
1, 261795, Note_on_c, 0, 36, 47
1, 261856, Control_c, 0, 64, 84
1, 261878, Control_c, 0, 64, 63
1, 261893, Control_c, 0, 64, 42
1, 261908, Control_c, 0, 64, 0
1, 261938, Control_c, 0, 64, 27
1, 261952, Control_c, 0, 64, 40
1, 261967, Control_c, 0, 64, 51
1, 261982, Control_c, 0, 64, 60
1, 261996, Control_c, 0, 64, 64
1, 262011, Control_c, 0, 64, 68
1, 262026, Control_c, 0, 64, 74
1, 262041, Control_c, 0, 64, 78
1, 262056, Control_c, 0, 64, 82
1, 262057, Note_off_c, 0, 60, 59
1, 262070, Control_c, 0, 64, 86
1, 262082, Note_off_c, 0, 63, 59
1, 262085, Control_c, 0, 64, 91
1, 262097, Note_off_c, 0, 55, 51
1, 262100, Control_c, 0, 64, 96
1, 262115, Control_c, 0, 64, 101
1, 262130, Control_c, 0, 64, 108
1, 262145, Control_c, 0, 64, 117
1, 262160, Control_c, 0, 64, 127
1, 262232, Note_on_c, 0, 62, 72
1, 262377, Note_off_c, 0, 62, 57
1, 262379, Note_off_c, 0, 24, 39
1, 262443, Note_off_c, 0, 36, 57
1, 262592, Note_on_c, 0, 60, 69
1, 262773, Note_off_c, 0, 60, 55
1, 263055, Note_on_c, 0, 60, 64
1, 263082, Note_on_c, 0, 48, 45
1, 263084, Note_on_c, 0, 55, 52
1, 263089, Note_on_c, 0, 36, 42
1, 263089, Note_on_c, 0, 51, 51
1, 263161, Control_c, 0, 64, 95
1, 263176, Control_c, 0, 64, 73
1, 263190, Control_c, 0, 64, 57
1, 263205, Control_c, 0, 64, 39
1, 263220, Control_c, 0, 64, 0
1, 263264, Control_c, 0, 64, 27
1, 263279, Control_c, 0, 64, 30
1, 263294, Control_c, 0, 64, 35
1, 263309, Control_c, 0, 64, 42
1, 263323, Control_c, 0, 64, 48
1, 263338, Control_c, 0, 64, 54
1, 263353, Control_c, 0, 64, 57
1, 263376, Control_c, 0, 64, 60
1, 263391, Control_c, 0, 64, 63
1, 263405, Control_c, 0, 64, 66
1, 263420, Control_c, 0, 64, 69
1, 263435, Control_c, 0, 64, 71
1, 263449, Control_c, 0, 64, 74
1, 263464, Control_c, 0, 64, 76
1, 263479, Control_c, 0, 64, 78
1, 263494, Control_c, 0, 64, 81
1, 263509, Control_c, 0, 64, 84
1, 263523, Control_c, 0, 64, 87
1, 263538, Control_c, 0, 64, 90
1, 263553, Control_c, 0, 64, 94
1, 263568, Control_c, 0, 64, 98
1, 263583, Control_c, 0, 64, 103
1, 263597, Control_c, 0, 64, 108
1, 263612, Control_c, 0, 64, 115
1, 263627, Control_c, 0, 64, 127
1, 263661, Note_off_c, 0, 36, 38
1, 263677, Note_off_c, 0, 55, 31
1, 263690, Note_off_c, 0, 48, 35
1, 263703, Note_off_c, 0, 51, 34
1, 264155, Note_on_c, 0, 55, 35
1, 264164, Note_on_c, 0, 36, 36
1, 264164, Note_on_c, 0, 48, 40
1, 264164, Note_on_c, 0, 51, 35
1, 264354, Note_off_c, 0, 51, 44
1, 264403, Note_off_c, 0, 60, 36
1, 264407, Note_off_c, 0, 55, 39
1, 264491, Note_off_c, 0, 48, 33
1, 264500, Note_off_c, 0, 36, 38
1, 265185, Control_c, 0, 64, 87
1, 265200, Control_c, 0, 64, 65
1, 265215, Control_c, 0, 64, 53
1, 265223, Note_on_c, 0, 36, 44
1, 265229, Control_c, 0, 64, 52
1, 265244, Control_c, 0, 64, 56
1, 265259, Control_c, 0, 64, 63
1, 265274, Control_c, 0, 64, 71
1, 265277, Note_off_c, 0, 36, 62
1, 265289, Control_c, 0, 64, 89
1, 265303, Control_c, 0, 64, 127
1, 265313, Note_on_c, 0, 48, 38
1, 265350, Note_off_c, 0, 48, 55
1, 265370, Note_on_c, 0, 60, 48
1, 265406, Note_on_c, 0, 63, 53
1, 265459, Note_on_c, 0, 67, 56
1, 265525, Note_on_c, 0, 72, 60
1, 265597, Note_on_c, 0, 84, 62
1, 265683, Note_off_c, 0, 84, 61
1, 265916, Note_off_c, 0, 60, 37
1, 265944, Note_off_c, 0, 72, 55
1, 265991, Note_off_c, 0, 67, 41
1, 266041, Note_off_c, 0, 63, 40
1, 266401, Control_c, 0, 64, 99
1, 266416, Control_c, 0, 64, 71
1, 266431, Control_c, 0, 64, 62
1, 266448, Note_on_c, 0, 34, 55
1, 266461, Control_c, 0, 64, 65
1, 266475, Control_c, 0, 64, 71
1, 266486, Note_off_c, 0, 34, 64
1, 266490, Control_c, 0, 64, 81
1, 266501, Note_on_c, 0, 46, 51
1, 266505, Control_c, 0, 64, 104
1, 266520, Control_c, 0, 64, 127
1, 266529, Note_off_c, 0, 46, 55
1, 266539, Note_on_c, 0, 55, 49
1, 266601, Note_on_c, 0, 60, 53
1, 266649, Note_on_c, 0, 63, 57
1, 266707, Note_on_c, 0, 67, 61
1, 266771, Note_on_c, 0, 79, 67
1, 266855, Note_off_c, 0, 79, 58
1, 266965, Note_off_c, 0, 55, 40
1, 267159, Note_off_c, 0, 60, 40
1, 267183, Note_off_c, 0, 67, 55
1, 267276, Note_off_c, 0, 63, 55
1, 267594, Control_c, 0, 64, 104
1, 267609, Control_c, 0, 64, 73
1, 267624, Control_c, 0, 64, 57
1, 267638, Note_on_c, 0, 32, 51
1, 267638, Control_c, 0, 64, 52
1, 267653, Control_c, 0, 64, 56
1, 267668, Control_c, 0, 64, 62
1, 267683, Control_c, 0, 64, 70
1, 267697, Note_off_c, 0, 32, 61
1, 267698, Control_c, 0, 64, 85
1, 267708, Note_on_c, 0, 44, 49
1, 267713, Control_c, 0, 64, 119
1, 267728, Control_c, 0, 64, 127
1, 267737, Note_off_c, 0, 44, 57
1, 267741, Note_on_c, 0, 56, 53
1, 267801, Note_on_c, 0, 60, 53
1, 267832, Note_off_c, 0, 56, 60
1, 267836, Note_on_c, 0, 63, 56
1, 267895, Note_on_c, 0, 68, 61
1, 267896, Note_off_c, 0, 60, 50
1, 267982, Note_on_c, 0, 80, 74
1, 268005, Note_off_c, 0, 80, 66
1, 268219, Note_off_c, 0, 68, 51
1, 268340, Note_off_c, 0, 63, 41
1, 268810, Control_c, 0, 64, 102
1, 268825, Control_c, 0, 64, 73
1, 268840, Control_c, 0, 64, 57
1, 268855, Note_on_c, 0, 31, 45
1, 268855, Control_c, 0, 64, 53
1, 268870, Control_c, 0, 64, 59
1, 268885, Control_c, 0, 64, 67
1, 268899, Note_off_c, 0, 31, 61
1, 268899, Control_c, 0, 64, 82
1, 268911, Note_on_c, 0, 43, 59
1, 268914, Control_c, 0, 64, 127
1, 268940, Note_off_c, 0, 43, 64
1, 268965, Note_on_c, 0, 51, 49
1, 269013, Note_off_c, 0, 51, 60
1, 269014, Note_on_c, 0, 56, 56
1, 269058, Note_on_c, 0, 60, 55
1, 269102, Note_off_c, 0, 56, 56
1, 269111, Note_on_c, 0, 63, 62
1, 269149, Note_off_c, 0, 60, 58
1, 269168, Note_on_c, 0, 75, 70
1, 269196, Note_off_c, 0, 75, 62
1, 269959, Control_c, 0, 64, 110
1, 269974, Control_c, 0, 64, 74
1, 269989, Control_c, 0, 64, 54
1, 270004, Control_c, 0, 64, 53
1, 270007, Note_on_c, 0, 29, 44
1, 270018, Control_c, 0, 64, 60
1, 270033, Control_c, 0, 64, 67
1, 270048, Control_c, 0, 64, 79
1, 270050, Note_off_c, 0, 29, 50
1, 270054, Note_on_c, 0, 41, 60
1, 270063, Control_c, 0, 64, 104
1, 270078, Control_c, 0, 64, 127
1, 270083, Note_off_c, 0, 41, 65
1, 270116, Note_on_c, 0, 53, 48
1, 270148, Note_off_c, 0, 63, 38
1, 270172, Note_on_c, 0, 56, 53
1, 270211, Note_off_c, 0, 53, 60
1, 270218, Note_on_c, 0, 60, 52
1, 270250, Note_off_c, 0, 56, 59
1, 270273, Note_on_c, 0, 65, 54
1, 270308, Note_off_c, 0, 60, 58
1, 270361, Note_on_c, 0, 77, 68
1, 270438, Note_off_c, 0, 77, 60
1, 270805, Note_off_c, 0, 65, 62
1, 271190, Control_c, 0, 64, 109
1, 271205, Control_c, 0, 64, 70
1, 271216, Note_on_c, 0, 27, 54
1, 271220, Control_c, 0, 64, 53
1, 271235, Control_c, 0, 64, 50
1, 271250, Control_c, 0, 64, 58
1, 271264, Control_c, 0, 64, 67
1, 271279, Control_c, 0, 64, 80
1, 271286, Note_off_c, 0, 27, 62
1, 271294, Control_c, 0, 64, 110
1, 271296, Note_on_c, 0, 39, 52
1, 271309, Control_c, 0, 64, 127
1, 271328, Note_off_c, 0, 39, 53
1, 271332, Note_on_c, 0, 55, 48
1, 271394, Note_on_c, 0, 60, 55
1, 271427, Note_on_c, 0, 63, 58
1, 271488, Note_on_c, 0, 67, 62
1, 271493, Note_off_c, 0, 55, 60
1, 271567, Note_on_c, 0, 79, 70
1, 271615, Note_off_c, 0, 60, 36
1, 271621, Note_off_c, 0, 79, 60
1, 271654, Note_off_c, 0, 63, 48
1, 271781, Note_off_c, 0, 67, 38
1, 272420, Control_c, 0, 64, 81
1, 272435, Note_on_c, 0, 26, 37
1, 272435, Control_c, 0, 64, 60
1, 272450, Control_c, 0, 64, 54
1, 272465, Control_c, 0, 64, 58
1, 272479, Control_c, 0, 64, 64
1, 272494, Control_c, 0, 64, 72
1, 272496, Note_off_c, 0, 26, 62
1, 272509, Control_c, 0, 64, 90
1, 272513, Note_on_c, 0, 38, 54
1, 272524, Control_c, 0, 64, 127
1, 272548, Note_off_c, 0, 38, 63
1, 272569, Note_on_c, 0, 48, 57
1, 272649, Note_on_c, 0, 53, 47
1, 272703, Note_on_c, 0, 55, 46
1, 272801, Note_on_c, 0, 60, 49
1, 272867, Note_on_c, 0, 72, 68
1, 272943, Note_off_c, 0, 72, 55
1, 273252, Note_off_c, 0, 53, 40
1, 273260, Note_off_c, 0, 55, 40
1, 273270, Note_off_c, 0, 48, 30
1, 274149, Note_on_c, 0, 55, 34
1, 274154, Note_on_c, 0, 48, 31
1, 274158, Note_on_c, 0, 24, 39
1, 274158, Note_on_c, 0, 51, 29
1, 274180, Note_on_c, 0, 36, 29
1, 274214, Control_c, 0, 64, 106
1, 274229, Control_c, 0, 64, 78
1, 274244, Control_c, 0, 64, 62
1, 274259, Control_c, 0, 64, 47
1, 274273, Control_c, 0, 64, 37
1, 274288, Control_c, 0, 64, 35
1, 274318, Control_c, 0, 64, 35
1, 274333, Control_c, 0, 64, 37
1, 274347, Control_c, 0, 64, 42
1, 274362, Control_c, 0, 64, 49
1, 274377, Control_c, 0, 64, 58
1, 274392, Control_c, 0, 64, 63
1, 274407, Control_c, 0, 64, 67
1, 274422, Control_c, 0, 64, 70
1, 274437, Control_c, 0, 64, 72
1, 274452, Control_c, 0, 64, 74
1, 274467, Control_c, 0, 64, 78
1, 274481, Control_c, 0, 64, 81
1, 274496, Control_c, 0, 64, 86
1, 274511, Control_c, 0, 64, 92
1, 274526, Control_c, 0, 64, 99
1, 274541, Control_c, 0, 64, 106
1, 274555, Control_c, 0, 64, 116
1, 274570, Control_c, 0, 64, 127
1, 274709, Note_off_c, 0, 48, 41
1, 274802, Note_off_c, 0, 24, 41
1, 274917, Note_off_c, 0, 36, 40
1, 274982, Note_off_c, 0, 60, 25
1, 274989, Note_off_c, 0, 51, 37
1, 275064, Note_off_c, 0, 55, 38
1, 275419, Note_on_c, 0, 36, 33
1, 275457, Note_off_c, 0, 36, 53
1, 275463, Note_on_c, 0, 48, 55
1, 275491, Note_off_c, 0, 48, 59
1, 275511, Note_on_c, 0, 60, 50
1, 275560, Note_on_c, 0, 63, 58
1, 275601, Note_on_c, 0, 67, 61
1, 275663, Note_on_c, 0, 72, 63
1, 275737, Note_on_c, 0, 84, 71
1, 275746, Note_off_c, 0, 63, 54
1, 275755, Note_off_c, 0, 60, 37
1, 275818, Note_off_c, 0, 84, 63
1, 275984, Note_off_c, 0, 72, 38
1, 276095, Note_off_c, 0, 67, 43
1, 276519, Control_c, 0, 64, 89
1, 276534, Control_c, 0, 64, 66
1, 276549, Control_c, 0, 64, 58
1, 276550, Note_on_c, 0, 34, 57
1, 276564, Control_c, 0, 64, 60
1, 276580, Control_c, 0, 64, 65
1, 276595, Control_c, 0, 64, 75
1, 276598, Note_on_c, 0, 46, 60
1, 276598, Note_off_c, 0, 34, 64
1, 276609, Control_c, 0, 64, 94
1, 276624, Control_c, 0, 64, 127
1, 276628, Note_off_c, 0, 46, 64
1, 276655, Note_on_c, 0, 55, 51
1, 276714, Note_on_c, 0, 60, 46
1, 276742, Note_on_c, 0, 63, 56
1, 276748, Note_off_c, 0, 55, 57
1, 276808, Note_on_c, 0, 67, 58
1, 276854, Note_off_c, 0, 60, 36
1, 276894, Note_on_c, 0, 79, 66
1, 276975, Note_off_c, 0, 79, 59
1, 277042, Note_off_c, 0, 63, 30
1, 277634, Note_off_c, 0, 67, 58
1, 277678, Control_c, 0, 64, 82
1, 277693, Control_c, 0, 64, 63
1, 277707, Control_c, 0, 64, 56
1, 277713, Note_on_c, 0, 32, 55
1, 277722, Control_c, 0, 64, 59
1, 277737, Control_c, 0, 64, 65
1, 277751, Control_c, 0, 64, 78
1, 277753, Note_off_c, 0, 32, 61
1, 277756, Note_on_c, 0, 44, 53
1, 277766, Control_c, 0, 64, 104
1, 277781, Control_c, 0, 64, 127
1, 277789, Note_off_c, 0, 44, 64
1, 277793, Note_on_c, 0, 56, 54
1, 277860, Note_on_c, 0, 60, 47
1, 277872, Note_off_c, 0, 56, 60
1, 277893, Note_on_c, 0, 63, 54
1, 277933, Note_on_c, 0, 68, 61
1, 277991, Note_off_c, 0, 60, 33
1, 278025, Note_on_c, 0, 80, 77
1, 278056, Note_off_c, 0, 80, 55
1, 278283, Note_off_c, 0, 68, 50
1, 278392, Note_off_c, 0, 63, 42
1, 278826, Control_c, 0, 64, 81
1, 278837, Note_on_c, 0, 31, 49
1, 278840, Control_c, 0, 64, 62
1, 278855, Control_c, 0, 64, 53
1, 278870, Control_c, 0, 64, 59
1, 278885, Control_c, 0, 64, 66
1, 278890, Note_off_c, 0, 31, 63
1, 278899, Control_c, 0, 64, 78
1, 278907, Note_on_c, 0, 43, 60
1, 278914, Control_c, 0, 64, 115
1, 278929, Control_c, 0, 64, 127
1, 278938, Note_on_c, 0, 51, 56
1, 278939, Note_off_c, 0, 43, 64
1, 278992, Note_on_c, 0, 56, 53
1, 279012, Note_off_c, 0, 51, 60
1, 279043, Note_on_c, 0, 60, 55
1, 279085, Note_off_c, 0, 56, 57
1, 279124, Note_on_c, 0, 63, 60
1, 279157, Note_off_c, 0, 60, 61
1, 279185, Note_on_c, 0, 75, 75
1, 279246, Note_off_c, 0, 75, 61
1, 279968, Control_c, 0, 64, 103
1, 279982, Control_c, 0, 64, 69
1, 279996, Note_on_c, 0, 29, 48
1, 279997, Control_c, 0, 64, 58
1, 280012, Control_c, 0, 64, 59
1, 280027, Control_c, 0, 64, 64
1, 280042, Control_c, 0, 64, 73
1, 280043, Note_off_c, 0, 29, 60
1, 280054, Note_on_c, 0, 41, 55
1, 280057, Control_c, 0, 64, 92
1, 280072, Control_c, 0, 64, 127
1, 280085, Note_off_c, 0, 41, 65
1, 280121, Note_on_c, 0, 53, 37
1, 280138, Note_off_c, 0, 63, 53
1, 280190, Note_on_c, 0, 56, 38
1, 280221, Note_off_c, 0, 53, 52
1, 280236, Note_on_c, 0, 60, 42
1, 280278, Note_off_c, 0, 56, 52
1, 280304, Note_on_c, 0, 65, 48
1, 280336, Note_off_c, 0, 60, 59
1, 280363, Note_on_c, 0, 77, 59
1, 280446, Note_off_c, 0, 77, 62
1, 280950, Note_off_c, 0, 65, 52
1, 281176, Control_c, 0, 64, 81
1, 281191, Control_c, 0, 64, 60
1, 281202, Note_on_c, 0, 27, 54
1, 281206, Control_c, 0, 64, 51
1, 281221, Control_c, 0, 64, 55
1, 281236, Control_c, 0, 64, 62
1, 281247, Note_on_c, 0, 39, 65
1, 281250, Control_c, 0, 64, 72
1, 281257, Note_off_c, 0, 27, 63
1, 281265, Control_c, 0, 64, 93
1, 281277, Note_off_c, 0, 39, 64
1, 281280, Control_c, 0, 64, 127
1, 281292, Note_on_c, 0, 55, 42
1, 281372, Note_on_c, 0, 60, 48
1, 281407, Note_on_c, 0, 63, 52
1, 281470, Note_on_c, 0, 67, 61
1, 281552, Note_on_c, 0, 79, 66
1, 281595, Note_off_c, 0, 79, 60
1, 281618, Note_off_c, 0, 55, 34
1, 281782, Note_off_c, 0, 67, 47
1, 281857, Note_off_c, 0, 60, 39
1, 281863, Note_off_c, 0, 63, 61
1, 282362, Control_c, 0, 64, 115
1, 282363, Note_on_c, 0, 26, 36
1, 282377, Control_c, 0, 64, 77
1, 282392, Control_c, 0, 64, 58
1, 282407, Control_c, 0, 64, 46
1, 282421, Control_c, 0, 64, 49
1, 282436, Control_c, 0, 64, 60
1, 282443, Note_off_c, 0, 26, 60
1, 282451, Control_c, 0, 64, 69
1, 282453, Note_on_c, 0, 38, 55
1, 282466, Control_c, 0, 64, 82
1, 282481, Control_c, 0, 64, 106
1, 282488, Note_off_c, 0, 38, 63
1, 282495, Control_c, 0, 64, 127
1, 282509, Note_on_c, 0, 48, 46
1, 282582, Note_on_c, 0, 53, 39
1, 282629, Note_on_c, 0, 55, 48
1, 282757, Note_on_c, 0, 60, 44
1, 282852, Note_on_c, 0, 72, 58
1, 282939, Note_off_c, 0, 72, 54
1, 283205, Note_off_c, 0, 48, 31
1, 283220, Note_off_c, 0, 53, 41
1, 283235, Note_off_c, 0, 55, 33
1, 284173, Note_on_c, 0, 24, 41
1, 284174, Note_on_c, 0, 36, 27
1, 284183, Note_on_c, 0, 48, 17
1, 284183, Note_on_c, 0, 55, 33
1, 284197, Note_on_c, 0, 51, 34
1, 284260, Control_c, 0, 64, 92
1, 284275, Control_c, 0, 64, 69
1, 284290, Control_c, 0, 64, 54
1, 284305, Control_c, 0, 64, 36
1, 284320, Control_c, 0, 64, 0
1, 284416, Control_c, 0, 64, 35
1, 284431, Control_c, 0, 64, 44
1, 284446, Control_c, 0, 64, 53
1, 284460, Control_c, 0, 64, 58
1, 284475, Control_c, 0, 64, 61
1, 284490, Control_c, 0, 64, 63
1, 284505, Control_c, 0, 64, 66
1, 284519, Control_c, 0, 64, 68
1, 284534, Control_c, 0, 64, 71
1, 284549, Control_c, 0, 64, 74
1, 284565, Control_c, 0, 64, 77
1, 284580, Control_c, 0, 64, 82
1, 284595, Control_c, 0, 64, 87
1, 284609, Control_c, 0, 64, 93
1, 284624, Control_c, 0, 64, 99
1, 284639, Control_c, 0, 64, 107
1, 284654, Control_c, 0, 64, 127
1, 284737, Note_off_c, 0, 48, 40
1, 284828, Note_off_c, 0, 24, 40
1, 284892, Note_off_c, 0, 60, 36
1, 284943, Note_off_c, 0, 36, 40
1, 284946, Note_off_c, 0, 51, 43
1, 285003, Note_off_c, 0, 55, 41
1, 285437, Note_on_c, 0, 48, 56
1, 285469, Note_off_c, 0, 48, 65
1, 285485, Note_on_c, 0, 60, 51
1, 285513, Note_off_c, 0, 60, 65
1, 285545, Note_on_c, 0, 63, 57
1, 285592, Note_on_c, 0, 67, 58
1, 285655, Note_on_c, 0, 75, 70
1, 285733, Note_on_c, 0, 87, 82
1, 285766, Note_off_c, 0, 63, 49
1, 285784, Note_off_c, 0, 87, 57
1, 286025, Note_off_c, 0, 75, 51
1, 286084, Note_off_c, 0, 67, 40
1, 286491, Control_c, 0, 64, 80
1, 286505, Control_c, 0, 64, 59
1, 286518, Note_on_c, 0, 44, 60
1, 286520, Control_c, 0, 64, 51
1, 286535, Control_c, 0, 64, 57
1, 286550, Control_c, 0, 64, 67
1, 286563, Note_on_c, 0, 56, 69
1, 286565, Note_off_c, 0, 44, 62
1, 286565, Control_c, 0, 64, 86
1, 286587, Control_c, 0, 64, 127
1, 286597, Note_off_c, 0, 56, 66
1, 286635, Note_on_c, 0, 60, 63
1, 286678, Note_on_c, 0, 62, 58
1, 286717, Note_on_c, 0, 65, 62
1, 286718, Note_off_c, 0, 60, 63
1, 286785, Note_on_c, 0, 72, 77
1, 286791, Note_off_c, 0, 62, 61
1, 286839, Note_off_c, 0, 65, 59
1, 286843, Note_on_c, 0, 84, 84
1, 286962, Note_off_c, 0, 84, 58
1, 287131, Note_off_c, 0, 72, 56
1, 287589, Control_c, 0, 64, 117
1, 287604, Control_c, 0, 64, 74
1, 287618, Control_c, 0, 64, 57
1, 287632, Note_on_c, 0, 43, 55
1, 287633, Control_c, 0, 64, 54
1, 287648, Control_c, 0, 64, 58
1, 287662, Control_c, 0, 64, 64
1, 287675, Note_off_c, 0, 43, 64
1, 287677, Control_c, 0, 64, 74
1, 287688, Note_on_c, 0, 55, 57
1, 287692, Control_c, 0, 64, 95
1, 287707, Control_c, 0, 64, 127
1, 287719, Note_on_c, 0, 60, 51
1, 287719, Note_off_c, 0, 55, 64
1, 287771, Note_on_c, 0, 63, 56
1, 287816, Note_on_c, 0, 67, 57
1, 287888, Note_on_c, 0, 72, 63
1, 287897, Note_off_c, 0, 60, 51
1, 287901, Note_off_c, 0, 63, 51
1, 287956, Note_on_c, 0, 84, 74
1, 287968, Note_off_c, 0, 67, 47
1, 288022, Note_off_c, 0, 84, 59
1, 288843, Note_on_c, 0, 41, 43
1, 288863, Control_c, 0, 64, 93
1, 288878, Control_c, 0, 64, 68
1, 288893, Control_c, 0, 64, 56
1, 288907, Control_c, 0, 64, 54
1, 288922, Control_c, 0, 64, 57
1, 288937, Control_c, 0, 64, 62
1, 288939, Note_on_c, 0, 53, 36
1, 288952, Control_c, 0, 64, 67
1, 288967, Control_c, 0, 64, 77
1, 288982, Control_c, 0, 64, 87
1, 288989, Note_on_c, 0, 60, 43
1, 288997, Control_c, 0, 64, 93
1, 289012, Control_c, 0, 64, 96
1, 289026, Control_c, 0, 64, 98
1, 289041, Control_c, 0, 64, 101
1, 289056, Control_c, 0, 64, 105
1, 289071, Control_c, 0, 64, 111
1, 289071, Note_on_c, 0, 62, 41
1, 289086, Control_c, 0, 64, 119
1, 289100, Control_c, 0, 64, 127
1, 289151, Note_on_c, 0, 68, 47
1, 289216, Note_off_c, 0, 60, 36
1, 289240, Note_off_c, 0, 62, 32
1, 289299, Note_off_c, 0, 72, 41
1, 289378, Note_off_c, 0, 68, 47
1, 289590, Note_off_c, 0, 53, 39
1, 289687, Note_off_c, 0, 41, 42
1, 289849, Control_c, 0, 64, 77
1, 289864, Control_c, 0, 64, 56
1, 289879, Control_c, 0, 64, 47
1, 289888, Note_on_c, 0, 40, 58
1, 289894, Control_c, 0, 64, 56
1, 289909, Control_c, 0, 64, 66
1, 289920, Note_off_c, 0, 40, 63
1, 289924, Control_c, 0, 64, 81
1, 289930, Note_on_c, 0, 52, 69
1, 289938, Control_c, 0, 64, 127
1, 289958, Note_off_c, 0, 52, 65
1, 289993, Note_on_c, 0, 61, 60
1, 290025, Note_on_c, 0, 67, 66
1, 290071, Note_on_c, 0, 70, 63
1, 290103, Note_on_c, 0, 73, 72
1, 290168, Note_on_c, 0, 85, 88
1, 290219, Note_off_c, 0, 85, 61
1, 290291, Note_off_c, 0, 61, 52
1, 290432, Note_off_c, 0, 73, 54
1, 290474, Note_off_c, 0, 67, 36
1, 290503, Note_off_c, 0, 70, 57
1, 290910, Control_c, 0, 64, 85
1, 290925, Control_c, 0, 64, 60
1, 290940, Control_c, 0, 64, 46
1, 290951, Note_on_c, 0, 42, 66
1, 290955, Control_c, 0, 64, 50
1, 290970, Control_c, 0, 64, 57
1, 290985, Control_c, 0, 64, 67
1, 291000, Control_c, 0, 64, 86
1, 291006, Note_on_c, 0, 54, 70
1, 291015, Note_off_c, 0, 42, 62
1, 291015, Control_c, 0, 64, 127
1, 291031, Note_off_c, 0, 54, 66
1, 291059, Note_on_c, 0, 58, 57
1, 291104, Note_on_c, 0, 60, 63
1, 291161, Note_on_c, 0, 63, 59
1, 291174, Note_off_c, 0, 58, 58
1, 291221, Note_off_c, 0, 60, 55
1, 291227, Note_on_c, 0, 70, 67
1, 291267, Note_on_c, 0, 82, 84
1, 291304, Note_off_c, 0, 82, 50
1, 291355, Note_off_c, 0, 63, 33
1, 292022, Control_c, 0, 64, 105
1, 292037, Control_c, 0, 64, 69
1, 292052, Control_c, 0, 64, 57
1, 292067, Note_on_c, 0, 41, 53
1, 292082, Control_c, 0, 64, 62
1, 292097, Control_c, 0, 64, 69
1, 292112, Control_c, 0, 64, 83
1, 292115, Note_off_c, 0, 41, 64
1, 292126, Control_c, 0, 64, 111
1, 292136, Note_on_c, 0, 53, 55
1, 292141, Control_c, 0, 64, 127
1, 292168, Note_off_c, 0, 53, 64
1, 292202, Note_on_c, 0, 58, 59
1, 292228, Note_off_c, 0, 70, 38
1, 292260, Note_on_c, 0, 61, 49
1, 292281, Note_off_c, 0, 58, 59
1, 292308, Note_on_c, 0, 65, 53
1, 292330, Note_off_c, 0, 61, 48
1, 292375, Note_on_c, 0, 70, 55
1, 292393, Note_on_c, 0, 82, 75
1, 292406, Note_off_c, 0, 65, 58
1, 292439, Note_off_c, 0, 82, 44
1, 293301, Note_on_c, 0, 39, 47
1, 293304, Control_c, 0, 64, 82
1, 293326, Control_c, 0, 64, 62
1, 293341, Control_c, 0, 64, 52
1, 293357, Control_c, 0, 64, 54
1, 293372, Control_c, 0, 64, 58
1, 293386, Control_c, 0, 64, 62
1, 293392, Note_on_c, 0, 51, 42
1, 293401, Control_c, 0, 64, 68
1, 293416, Control_c, 0, 64, 77
1, 293431, Control_c, 0, 64, 90
1, 293446, Control_c, 0, 64, 101
1, 293460, Control_c, 0, 64, 111
1, 293468, Note_on_c, 0, 58, 46
1, 293475, Control_c, 0, 64, 125
1, 293490, Control_c, 0, 64, 127
1, 293563, Note_on_c, 0, 60, 47
1, 293589, Note_off_c, 0, 58, 47
1, 293679, Note_on_c, 0, 66, 44
1, 293721, Note_off_c, 0, 60, 37
1, 293867, Note_off_c, 0, 70, 38
1, 293936, Note_off_c, 0, 66, 51
1, 294099, Note_off_c, 0, 51, 35
1, 294229, Note_off_c, 0, 39, 42
1, 294388, Control_c, 0, 64, 89
1, 294402, Control_c, 0, 64, 65
1, 294417, Control_c, 0, 64, 56
1, 294428, Note_on_c, 0, 38, 67
1, 294432, Control_c, 0, 64, 59
1, 294446, Control_c, 0, 64, 64
1, 294461, Control_c, 0, 64, 75
1, 294476, Control_c, 0, 64, 127
1, 294477, Note_off_c, 0, 38, 61
1, 294486, Note_on_c, 0, 50, 69
1, 294512, Note_off_c, 0, 50, 66
1, 294546, Note_on_c, 0, 59, 72
1, 294610, Note_on_c, 0, 65, 64
1, 294681, Note_on_c, 0, 71, 78
1, 294738, Note_on_c, 0, 83, 83
1, 294885, Note_off_c, 0, 83, 57
1, 295026, Note_off_c, 0, 59, 55
1, 295238, Note_on_c, 0, 80, 82
1, 295246, Note_on_c, 0, 68, 59
1, 295257, Note_off_c, 0, 71, 58
1, 295271, Note_off_c, 0, 65, 56
1, 295291, Note_off_c, 0, 80, 65
1, 295492, Control_c, 0, 64, 85
1, 295507, Control_c, 0, 64, 58
1, 295522, Control_c, 0, 64, 50
1, 295525, Note_on_c, 0, 39, 69
1, 295536, Control_c, 0, 64, 53
1, 295551, Control_c, 0, 64, 60
1, 295573, Note_off_c, 0, 39, 65
1, 295573, Control_c, 0, 64, 68
1, 295588, Control_c, 0, 64, 84
1, 295589, Note_on_c, 0, 51, 67
1, 295602, Control_c, 0, 64, 127
1, 295609, Note_off_c, 0, 51, 63
1, 295674, Note_on_c, 0, 60, 67
1, 295699, Note_off_c, 0, 68, 60
1, 295725, Note_on_c, 0, 67, 62
1, 295769, Note_off_c, 0, 60, 63
1, 295824, Note_on_c, 0, 79, 76
1, 295871, Note_off_c, 0, 79, 62
1, 296067, Note_off_c, 0, 67, 52
1, 296515, Control_c, 0, 64, 103
1, 296529, Control_c, 0, 64, 64
1, 296545, Control_c, 0, 64, 38
1, 296560, Control_c, 0, 64, 27
1, 296565, Note_on_c, 0, 35, 65
1, 296575, Control_c, 0, 64, 41
1, 296589, Control_c, 0, 64, 59
1, 296601, Note_off_c, 0, 35, 66
1, 296604, Control_c, 0, 64, 70
1, 296619, Control_c, 0, 64, 88
1, 296631, Note_on_c, 0, 47, 65
1, 296634, Control_c, 0, 64, 127
1, 296653, Note_off_c, 0, 47, 62
1, 296698, Note_on_c, 0, 56, 52
1, 296747, Note_on_c, 0, 62, 58
1, 296767, Note_off_c, 0, 56, 61
1, 296832, Note_on_c, 0, 68, 62
1, 296893, Note_on_c, 0, 80, 82
1, 296948, Note_off_c, 0, 80, 61
1, 297281, Note_off_c, 0, 68, 36
1, 297459, Note_on_c, 0, 77, 72
1, 297498, Note_off_c, 0, 77, 62
1, 297507, Note_on_c, 0, 65, 44
1, 297542, Note_off_c, 0, 62, 50
1, 297683, Note_off_c, 0, 65, 61
1, 297796, Control_c, 0, 64, 91
1, 297819, Control_c, 0, 64, 65
1, 297834, Control_c, 0, 64, 49
1, 297838, Note_on_c, 0, 36, 51
1, 297849, Control_c, 0, 64, 45
1, 297864, Control_c, 0, 64, 51
1, 297878, Control_c, 0, 64, 60
1, 297893, Control_c, 0, 64, 68
1, 297896, Note_off_c, 0, 36, 62
1, 297907, Note_on_c, 0, 48, 56
1, 297908, Control_c, 0, 64, 81
1, 297923, Control_c, 0, 64, 104
1, 297936, Note_off_c, 0, 48, 58
1, 297938, Control_c, 0, 64, 127
1, 297974, Note_on_c, 0, 56, 51
1, 298031, Note_on_c, 0, 63, 56
1, 298060, Note_off_c, 0, 56, 58
1, 298141, Note_on_c, 0, 75, 71
1, 298162, Note_off_c, 0, 75, 63
1, 298612, Note_off_c, 0, 63, 54
1, 298939, Control_c, 0, 64, 84
1, 298950, Note_on_c, 0, 31, 51
1, 298954, Control_c, 0, 64, 64
1, 298969, Control_c, 0, 64, 52
1, 298984, Control_c, 0, 64, 55
1, 298998, Control_c, 0, 64, 62
1, 299013, Control_c, 0, 64, 69
1, 299017, Note_off_c, 0, 31, 61
1, 299028, Control_c, 0, 64, 82
1, 299042, Control_c, 0, 64, 107
1, 299044, Note_on_c, 0, 43, 48
1, 299057, Control_c, 0, 64, 127
1, 299078, Note_off_c, 0, 43, 63
1, 299118, Note_on_c, 0, 53, 39
1, 299217, Note_on_c, 0, 59, 51
1, 299403, Note_on_c, 0, 65, 33
1, 299453, Note_on_c, 0, 77, 66
1, 299561, Note_off_c, 0, 77, 52
1, 300062, Note_on_c, 0, 73, 55
1, 300082, Note_on_c, 0, 61, 46
1, 300104, Note_off_c, 0, 65, 55
1, 300134, Note_off_c, 0, 73, 61
1, 300161, Note_off_c, 0, 59, 35
1, 300252, Note_off_c, 0, 53, 37
1, 300569, Control_c, 0, 64, 89
1, 300584, Control_c, 0, 64, 65
1, 300593, Note_on_c, 0, 32, 49
1, 300599, Control_c, 0, 64, 44
1, 300614, Control_c, 0, 64, 40
1, 300629, Control_c, 0, 64, 49
1, 300644, Control_c, 0, 64, 62
1, 300659, Control_c, 0, 64, 71
1, 300674, Control_c, 0, 64, 88
1, 300682, Note_on_c, 0, 44, 51
1, 300682, Note_off_c, 0, 32, 60
1, 300688, Control_c, 0, 64, 122
1, 300703, Control_c, 0, 64, 127
1, 300716, Note_off_c, 0, 44, 64
1, 300792, Note_on_c, 0, 53, 34
1, 300880, Note_on_c, 0, 60, 52
1, 300905, Note_off_c, 0, 61, 40
1, 300992, Note_off_c, 0, 53, 59
1, 301048, Note_on_c, 0, 72, 62
1, 301124, Note_off_c, 0, 72, 53
1, 301513, Note_off_c, 0, 60, 54
1, 302052, Control_c, 0, 64, 97
1, 302067, Control_c, 0, 64, 70
1, 302068, Note_on_c, 0, 29, 48
1, 302082, Control_c, 0, 64, 54
1, 302097, Control_c, 0, 64, 44
1, 302111, Control_c, 0, 64, 46
1, 302127, Control_c, 0, 64, 56
1, 302136, Note_off_c, 0, 29, 60
1, 302142, Control_c, 0, 64, 66
1, 302151, Note_on_c, 0, 41, 46
1, 302157, Control_c, 0, 64, 74
1, 302172, Control_c, 0, 64, 86
1, 302186, Control_c, 0, 64, 95
1, 302188, Note_off_c, 0, 41, 63
1, 302201, Control_c, 0, 64, 100
1, 302216, Control_c, 0, 64, 106
1, 302222, Note_on_c, 0, 50, 41
1, 302231, Control_c, 0, 64, 119
1, 302246, Control_c, 0, 64, 127
1, 302356, Note_on_c, 0, 56, 45
1, 302613, Note_on_c, 0, 72, 62
1, 302634, Note_on_c, 0, 60, 38
1, 302745, Note_off_c, 0, 72, 32
1, 303122, Note_off_c, 0, 50, 38
1, 303335, Note_off_c, 0, 56, 32
1, 304334, Note_on_c, 0, 55, 29
1, 304338, Note_on_c, 0, 24, 30
1, 304340, Note_on_c, 0, 51, 27
1, 304348, Note_on_c, 0, 36, 18
1, 304432, Control_c, 0, 64, 91
1, 304447, Control_c, 0, 64, 74
1, 304462, Control_c, 0, 64, 62
1, 304476, Control_c, 0, 64, 50
1, 304491, Control_c, 0, 64, 44
1, 304506, Control_c, 0, 64, 42
1, 304536, Control_c, 0, 64, 42
1, 304559, Control_c, 0, 64, 44
1, 304574, Control_c, 0, 64, 47
1, 304588, Control_c, 0, 64, 54
1, 304603, Control_c, 0, 64, 59
1, 304618, Control_c, 0, 64, 62
1, 304633, Control_c, 0, 64, 65
1, 304648, Control_c, 0, 64, 67
1, 304662, Control_c, 0, 64, 71
1, 304677, Control_c, 0, 64, 74
1, 304692, Control_c, 0, 64, 78
1, 304707, Control_c, 0, 64, 80
1, 304722, Control_c, 0, 64, 82
1, 304736, Control_c, 0, 64, 85
1, 304751, Control_c, 0, 64, 88
1, 304766, Control_c, 0, 64, 92
1, 304781, Control_c, 0, 64, 97
1, 304795, Control_c, 0, 64, 102
1, 304810, Control_c, 0, 64, 109
1, 304825, Control_c, 0, 64, 119
1, 304840, Control_c, 0, 64, 127
1, 305219, Note_off_c, 0, 51, 43
1, 305453, Note_off_c, 0, 24, 39
1, 305454, Note_off_c, 0, 60, 38
1, 305467, Note_off_c, 0, 55, 34
1, 305625, Note_off_c, 0, 36, 39
1, 306018, Control_c, 0, 67, 122
1, 306033, Control_c, 0, 67, 114
1, 306056, Control_c, 0, 67, 106
1, 306071, Control_c, 0, 67, 96
1, 306085, Control_c, 0, 67, 85
1, 306100, Control_c, 0, 67, 74
1, 306115, Control_c, 0, 67, 64
1, 306131, Control_c, 0, 67, 54
1, 306146, Control_c, 0, 67, 41
1, 306161, Control_c, 0, 67, 0
1, 306814, Note_on_c, 0, 72, 80
1, 306848, Note_on_c, 0, 48, 57
1, 306850, Note_on_c, 0, 60, 49
1, 306855, Note_on_c, 0, 63, 54
1, 307173, Note_on_c, 0, 70, 87
1, 307277, Note_off_c, 0, 72, 58
1, 307412, Note_off_c, 0, 60, 53
1, 307454, Note_on_c, 0, 68, 84
1, 307479, Note_off_c, 0, 48, 59
1, 307519, Note_off_c, 0, 70, 58
1, 307627, Note_off_c, 0, 68, 58
1, 307659, Note_off_c, 0, 63, 50
1, 307672, Note_on_c, 0, 47, 42
1, 307768, Note_on_c, 0, 59, 31
1, 307830, Note_on_c, 0, 68, 64
1, 307853, Note_on_c, 0, 62, 44
1, 307895, Control_c, 0, 64, 96
1, 307910, Control_c, 0, 64, 73
1, 307925, Control_c, 0, 64, 59
1, 307940, Control_c, 0, 64, 48
1, 307954, Control_c, 0, 64, 45
1, 307969, Control_c, 0, 64, 46
1, 307984, Control_c, 0, 64, 49
1, 307998, Control_c, 0, 64, 53
1, 308013, Control_c, 0, 64, 58
1, 308028, Control_c, 0, 64, 61
1, 308043, Control_c, 0, 64, 64
1, 308058, Control_c, 0, 64, 68
1, 308072, Control_c, 0, 64, 73
1, 308087, Control_c, 0, 64, 78
1, 308102, Control_c, 0, 64, 82
1, 308117, Control_c, 0, 64, 86
1, 308131, Control_c, 0, 64, 90
1, 308146, Control_c, 0, 64, 94
1, 308161, Control_c, 0, 64, 99
1, 308176, Control_c, 0, 64, 103
1, 308191, Control_c, 0, 64, 105
1, 308206, Control_c, 0, 64, 107
1, 308235, Control_c, 0, 64, 110
1, 308259, Note_on_c, 0, 67, 58
1, 308278, Note_off_c, 0, 68, 57
1, 308280, Control_c, 0, 64, 101
1, 308302, Control_c, 0, 64, 84
1, 308317, Control_c, 0, 64, 68
1, 308331, Control_c, 0, 64, 57
1, 308346, Control_c, 0, 64, 51
1, 308361, Control_c, 0, 64, 55
1, 308376, Control_c, 0, 64, 61
1, 308391, Control_c, 0, 64, 66
1, 308405, Control_c, 0, 64, 75
1, 308420, Control_c, 0, 64, 87
1, 308435, Control_c, 0, 64, 99
1, 308450, Control_c, 0, 64, 111
1, 308465, Control_c, 0, 64, 127
1, 308483, Note_off_c, 0, 47, 59
1, 308531, Note_off_c, 0, 59, 47
1, 308723, Note_on_c, 0, 63, 39
1, 308738, Note_on_c, 0, 48, 42
1, 308749, Note_on_c, 0, 60, 34
1, 308792, Control_c, 0, 64, 98
1, 308807, Control_c, 0, 64, 76
1, 308821, Control_c, 0, 64, 62
1, 308836, Control_c, 0, 64, 51
1, 308851, Control_c, 0, 64, 47
1, 308858, Note_off_c, 0, 62, 37
1, 308881, Control_c, 0, 64, 48
1, 308895, Control_c, 0, 64, 50
1, 308910, Control_c, 0, 64, 55
1, 308925, Control_c, 0, 64, 59
1, 308940, Control_c, 0, 64, 63
1, 308954, Control_c, 0, 64, 66
1, 308969, Control_c, 0, 64, 72
1, 308984, Control_c, 0, 64, 79
1, 308999, Control_c, 0, 64, 86
1, 309014, Control_c, 0, 64, 92
1, 309028, Control_c, 0, 64, 98
1, 309051, Control_c, 0, 64, 104
1, 309066, Control_c, 0, 64, 113
1, 309081, Control_c, 0, 64, 127
1, 309170, Note_off_c, 0, 60, 40
1, 309175, Note_off_c, 0, 48, 59
1, 309239, Note_off_c, 0, 63, 62
1, 309585, Note_on_c, 0, 46, 35
1, 309595, Note_on_c, 0, 62, 36
1, 309612, Note_on_c, 0, 58, 34
1, 309615, Control_c, 0, 64, 104
1, 309630, Control_c, 0, 64, 79
1, 309644, Control_c, 0, 64, 64
1, 309659, Control_c, 0, 64, 55
1, 309674, Control_c, 0, 64, 53
1, 309689, Control_c, 0, 64, 57
1, 309704, Control_c, 0, 64, 62
1, 309718, Control_c, 0, 64, 66
1, 309733, Control_c, 0, 64, 72
1, 309748, Control_c, 0, 64, 81
1, 309762, Control_c, 0, 64, 90
1, 309777, Control_c, 0, 64, 97
1, 309783, Note_off_c, 0, 67, 61
1, 309800, Control_c, 0, 64, 107
1, 309815, Control_c, 0, 64, 127
1, 309985, Note_on_c, 0, 67, 73
1, 310052, Note_off_c, 0, 58, 42
1, 310159, Note_off_c, 0, 46, 40
1, 310183, Note_off_c, 0, 62, 41
1, 310459, Note_on_c, 0, 44, 27
1, 310497, Note_on_c, 0, 56, 17
1, 310581, Note_on_c, 0, 68, 53
1, 310586, Note_on_c, 0, 60, 33
1, 310593, Control_c, 0, 64, 117
1, 310608, Control_c, 0, 64, 78
1, 310611, Note_off_c, 0, 67, 36
1, 310623, Control_c, 0, 64, 62
1, 310638, Control_c, 0, 64, 52
1, 310653, Control_c, 0, 64, 50
1, 310668, Control_c, 0, 64, 51
1, 310683, Control_c, 0, 64, 56
1, 310698, Control_c, 0, 64, 61
1, 310713, Control_c, 0, 64, 67
1, 310727, Control_c, 0, 64, 74
1, 310742, Control_c, 0, 64, 81
1, 310757, Control_c, 0, 64, 86
1, 310772, Control_c, 0, 64, 92
1, 310787, Control_c, 0, 64, 99
1, 310801, Control_c, 0, 64, 109
1, 310816, Control_c, 0, 64, 127
1, 310872, Note_off_c, 0, 68, 53
1, 310895, Note_on_c, 0, 67, 54
1, 310965, Control_c, 0, 67, 38
1, 310980, Control_c, 0, 67, 52
1, 310995, Control_c, 0, 67, 67
1, 311010, Control_c, 0, 67, 84
1, 311024, Control_c, 0, 67, 104
1, 311039, Control_c, 0, 67, 127
1, 311043, Note_off_c, 0, 56, 41
1, 311126, Note_on_c, 0, 65, 58
1, 311126, Note_off_c, 0, 44, 40
1, 311140, Note_off_c, 0, 67, 35
1, 311148, Note_off_c, 0, 60, 23
1, 311224, Note_off_c, 0, 65, 60
1, 311402, Note_on_c, 0, 65, 54
1, 311420, Note_on_c, 0, 43, 37
1, 311430, Control_c, 0, 64, 93
1, 311432, Note_on_c, 0, 59, 39
1, 311433, Note_on_c, 0, 55, 31
1, 311445, Control_c, 0, 64, 73
1, 311460, Control_c, 0, 64, 58
1, 311475, Control_c, 0, 64, 46
1, 311490, Control_c, 0, 64, 39
1, 311519, Control_c, 0, 64, 42
1, 311534, Control_c, 0, 64, 47
1, 311548, Control_c, 0, 64, 52
1, 311563, Control_c, 0, 64, 56
1, 311578, Control_c, 0, 64, 59
1, 311593, Control_c, 0, 64, 62
1, 311608, Control_c, 0, 64, 64
1, 311622, Control_c, 0, 64, 67
1, 311637, Control_c, 0, 64, 70
1, 311652, Control_c, 0, 64, 72
1, 311666, Control_c, 0, 64, 74
1, 311681, Control_c, 0, 64, 77
1, 311696, Control_c, 0, 64, 80
1, 311711, Control_c, 0, 64, 82
1, 311727, Control_c, 0, 64, 84
1, 311742, Control_c, 0, 64, 86
1, 311757, Control_c, 0, 64, 88
1, 311771, Control_c, 0, 64, 90
1, 311786, Control_c, 0, 64, 91
1, 311801, Control_c, 0, 64, 93
1, 311816, Control_c, 0, 64, 94
1, 311819, Note_on_c, 0, 63, 63
1, 311831, Control_c, 0, 64, 96
1, 311860, Control_c, 0, 64, 99
1, 311875, Control_c, 0, 64, 102
1, 311890, Control_c, 0, 64, 105
1, 311904, Note_off_c, 0, 65, 51
1, 311905, Control_c, 0, 64, 109
1, 311920, Control_c, 0, 64, 113
1, 311935, Control_c, 0, 64, 119
1, 311950, Control_c, 0, 64, 127
1, 311998, Note_off_c, 0, 43, 40
1, 312008, Note_off_c, 0, 55, 40
1, 312064, Note_off_c, 0, 59, 36
1, 312235, Note_on_c, 0, 59, 37
1, 312252, Note_on_c, 0, 44, 37
1, 312256, Note_on_c, 0, 56, 36
1, 312283, Control_c, 0, 64, 108
1, 312297, Control_c, 0, 64, 85
1, 312312, Control_c, 0, 64, 70
1, 312327, Control_c, 0, 64, 58
1, 312342, Control_c, 0, 64, 48
1, 312357, Control_c, 0, 64, 47
1, 312371, Control_c, 0, 64, 47
1, 312386, Control_c, 0, 64, 48
1, 312401, Control_c, 0, 64, 49
1, 312416, Control_c, 0, 64, 52
1, 312431, Control_c, 0, 64, 56
1, 312445, Control_c, 0, 64, 60
1, 312460, Control_c, 0, 64, 63
1, 312475, Control_c, 0, 64, 66
1, 312489, Control_c, 0, 64, 71
1, 312504, Control_c, 0, 64, 75
1, 312521, Control_c, 0, 64, 79
1, 312536, Control_c, 0, 64, 82
1, 312550, Control_c, 0, 64, 87
1, 312565, Control_c, 0, 64, 91
1, 312580, Control_c, 0, 64, 97
1, 312594, Control_c, 0, 64, 104
1, 312609, Control_c, 0, 64, 114
1, 312624, Control_c, 0, 64, 127
1, 312679, Note_off_c, 0, 56, 42
1, 312714, Note_off_c, 0, 59, 57
1, 312796, Note_off_c, 0, 44, 42
1, 313160, Note_on_c, 0, 58, 43
1, 313161, Note_on_c, 0, 43, 36
1, 313172, Note_on_c, 0, 55, 30
1, 313194, Control_c, 0, 64, 92
1, 313209, Control_c, 0, 64, 73
1, 313224, Control_c, 0, 64, 61
1, 313239, Control_c, 0, 64, 53
1, 313254, Control_c, 0, 64, 52
1, 313268, Control_c, 0, 64, 55
1, 313283, Control_c, 0, 64, 60
1, 313298, Control_c, 0, 64, 64
1, 313314, Control_c, 0, 64, 68
1, 313329, Control_c, 0, 64, 73
1, 313343, Control_c, 0, 64, 81
1, 313348, Note_off_c, 0, 63, 60
1, 313358, Control_c, 0, 64, 89
1, 313373, Control_c, 0, 64, 96
1, 313388, Control_c, 0, 64, 102
1, 313403, Control_c, 0, 64, 108
1, 313417, Control_c, 0, 64, 118
1, 313432, Control_c, 0, 64, 127
1, 313574, Note_on_c, 0, 63, 69
1, 313647, Control_c, 0, 67, 118
1, 313662, Control_c, 0, 67, 105
1, 313677, Control_c, 0, 67, 94
1, 313691, Control_c, 0, 67, 85
1, 313706, Control_c, 0, 67, 79
1, 313721, Control_c, 0, 67, 74
1, 313722, Note_off_c, 0, 58, 56
1, 313736, Control_c, 0, 67, 67
1, 313748, Note_off_c, 0, 55, 42
1, 313750, Control_c, 0, 67, 59
1, 313765, Control_c, 0, 67, 47
1, 313780, Control_c, 0, 67, 34
1, 313786, Note_off_c, 0, 43, 49
1, 313795, Control_c, 0, 67, 0
1, 314024, Note_on_c, 0, 65, 69
1, 314035, Note_on_c, 0, 56, 47
1, 314043, Note_on_c, 0, 59, 49
1, 314045, Note_on_c, 0, 53, 45
1, 314046, Note_on_c, 0, 41, 45
1, 314091, Control_c, 0, 64, 94
1, 314106, Control_c, 0, 64, 74
1, 314108, Note_off_c, 0, 63, 54
1, 314122, Control_c, 0, 64, 61
1, 314137, Control_c, 0, 64, 53
1, 314152, Control_c, 0, 64, 54
1, 314166, Control_c, 0, 64, 59
1, 314181, Control_c, 0, 64, 65
1, 314196, Control_c, 0, 64, 72
1, 314211, Control_c, 0, 64, 82
1, 314226, Control_c, 0, 64, 92
1, 314240, Control_c, 0, 64, 101
1, 314255, Control_c, 0, 64, 114
1, 314270, Control_c, 0, 64, 127
1, 314316, Note_off_c, 0, 53, 59
1, 314326, Note_off_c, 0, 59, 37
1, 314339, Note_on_c, 0, 63, 74
1, 314341, Note_off_c, 0, 41, 57
1, 314426, Note_off_c, 0, 65, 60
1, 314500, Note_off_c, 0, 56, 50
1, 314576, Note_on_c, 0, 62, 82
1, 314620, Note_off_c, 0, 63, 62
1, 314847, Note_on_c, 0, 67, 67
1, 314868, Note_on_c, 0, 60, 49
1, 314872, Note_on_c, 0, 55, 42
1, 314881, Note_on_c, 0, 39, 49
1, 314892, Note_on_c, 0, 51, 46
1, 314893, Note_off_c, 0, 62, 59
1, 314915, Control_c, 0, 64, 91
1, 314930, Control_c, 0, 64, 71
1, 314945, Control_c, 0, 64, 57
1, 314960, Control_c, 0, 64, 45
1, 314975, Control_c, 0, 64, 38
1, 314989, Control_c, 0, 64, 36
1, 315019, Control_c, 0, 64, 39
1, 315041, Control_c, 0, 64, 45
1, 315056, Control_c, 0, 64, 54
1, 315071, Control_c, 0, 64, 61
1, 315086, Control_c, 0, 64, 65
1, 315100, Control_c, 0, 64, 71
1, 315115, Control_c, 0, 64, 76
1, 315130, Control_c, 0, 64, 81
1, 315145, Control_c, 0, 64, 86
1, 315157, Note_off_c, 0, 55, 33
1, 315160, Control_c, 0, 64, 91
1, 315175, Control_c, 0, 64, 98
1, 315178, Note_off_c, 0, 67, 52
1, 315189, Control_c, 0, 64, 108
1, 315204, Control_c, 0, 64, 127
1, 315213, Note_off_c, 0, 39, 41
1, 315229, Note_off_c, 0, 60, 58
1, 315239, Note_off_c, 0, 51, 48
1, 315535, Note_on_c, 0, 63, 62
1, 315666, Note_off_c, 0, 63, 58
1, 315770, Note_on_c, 0, 60, 54
1, 315786, Note_on_c, 0, 56, 43
1, 315800, Note_on_c, 0, 54, 43
1, 315803, Note_on_c, 0, 51, 40
1, 315809, Note_on_c, 0, 44, 39
1, 315834, Control_c, 0, 64, 121
1, 315849, Control_c, 0, 64, 90
1, 315864, Control_c, 0, 64, 73
1, 315879, Control_c, 0, 64, 61
1, 315893, Control_c, 0, 64, 50
1, 315908, Control_c, 0, 64, 46
1, 315923, Control_c, 0, 64, 46
1, 315953, Control_c, 0, 64, 47
1, 315968, Control_c, 0, 64, 51
1, 315983, Control_c, 0, 64, 55
1, 315998, Control_c, 0, 64, 60
1, 316012, Control_c, 0, 64, 65
1, 316027, Control_c, 0, 64, 72
1, 316042, Control_c, 0, 64, 80
1, 316057, Control_c, 0, 64, 89
1, 316072, Control_c, 0, 64, 98
1, 316086, Control_c, 0, 64, 109
1, 316101, Control_c, 0, 64, 127
1, 316235, Note_off_c, 0, 56, 53
1, 316303, Note_off_c, 0, 54, 60
1, 316363, Note_off_c, 0, 44, 37
1, 316444, Note_off_c, 0, 51, 34
1, 316616, Note_on_c, 0, 55, 65
1, 316637, Note_on_c, 0, 43, 64
1, 316638, Note_on_c, 0, 51, 50
1, 316658, Control_c, 0, 64, 109
1, 316673, Control_c, 0, 64, 77
1, 316687, Control_c, 0, 64, 61
1, 316702, Control_c, 0, 64, 52
1, 316717, Control_c, 0, 64, 51
1, 316732, Control_c, 0, 64, 55
1, 316747, Control_c, 0, 64, 62
1, 316761, Control_c, 0, 64, 70
1, 316776, Control_c, 0, 64, 80
1, 316791, Control_c, 0, 64, 89
1, 316806, Control_c, 0, 64, 96
1, 316821, Control_c, 0, 64, 112
1, 316825, Note_off_c, 0, 60, 64
1, 316829, Note_off_c, 0, 51, 61
1, 316835, Control_c, 0, 64, 127
1, 317025, Note_on_c, 0, 60, 81
1, 317160, Note_off_c, 0, 55, 56
1, 317226, Note_off_c, 0, 43, 60
1, 317455, Note_on_c, 0, 65, 80
1, 317470, Note_on_c, 0, 59, 65
1, 317470, Note_on_c, 0, 56, 64
1, 317473, Note_on_c, 0, 53, 70
1, 317478, Note_on_c, 0, 41, 65
1, 317497, Note_off_c, 0, 60, 61
1, 317525, Control_c, 0, 64, 81
1, 317540, Control_c, 0, 64, 60
1, 317555, Control_c, 0, 64, 36
1, 317570, Control_c, 0, 64, 30
1, 317584, Control_c, 0, 64, 38
1, 317599, Control_c, 0, 64, 54
1, 317614, Control_c, 0, 64, 66
1, 317629, Control_c, 0, 64, 81
1, 317644, Control_c, 0, 64, 127
1, 317688, Note_off_c, 0, 59, 61
1, 317690, Note_off_c, 0, 53, 62
1, 317721, Note_off_c, 0, 56, 57
1, 317744, Note_off_c, 0, 41, 62
1, 317828, Note_on_c, 0, 63, 92
1, 317891, Note_off_c, 0, 65, 58
1, 318002, Note_off_c, 0, 63, 53
1, 318090, Note_on_c, 0, 62, 91
1, 318189, Poly_aftertouch_c, 0, 63, 127
1, 318216, Poly_aftertouch_c, 0, 63, 0
1, 318257, Note_off_c, 0, 62, 58
1, 318389, Note_on_c, 0, 67, 93
1, 318395, Note_on_c, 0, 60, 79
1, 318402, Note_on_c, 0, 55, 78
1, 318406, Note_on_c, 0, 39, 76
1, 318407, Note_on_c, 0, 51, 82
1, 318451, Control_c, 0, 64, 107
1, 318466, Control_c, 0, 64, 66
1, 318481, Control_c, 0, 64, 35
1, 318496, Control_c, 0, 64, 0
1, 318570, Control_c, 0, 64, 47
1, 318585, Control_c, 0, 64, 62
1, 318600, Control_c, 0, 64, 71
1, 318614, Control_c, 0, 64, 85
1, 318629, Control_c, 0, 64, 108
1, 318644, Control_c, 0, 64, 127
1, 318730, Note_off_c, 0, 55, 51
1, 318771, Note_off_c, 0, 51, 59
1, 318773, Note_off_c, 0, 60, 60
1, 318805, Note_off_c, 0, 67, 55
1, 318850, Note_off_c, 0, 39, 57
1, 319009, Note_on_c, 0, 63, 90
1, 319081, Control_c, 0, 64, 62
1, 319096, Control_c, 0, 64, 0
1, 319101, Note_on_c, 0, 38, 86
1, 319155, Control_c, 0, 64, 54
1, 319170, Control_c, 0, 64, 71
1, 319173, Note_on_c, 0, 50, 89
1, 319185, Control_c, 0, 64, 98
1, 319187, Note_off_c, 0, 63, 57
1, 319200, Control_c, 0, 64, 127
1, 319238, Note_on_c, 0, 53, 80
1, 319297, Note_on_c, 0, 59, 81
1, 319306, Note_off_c, 0, 53, 60
1, 319366, Note_on_c, 0, 68, 93
1, 319414, Note_on_c, 0, 66, 26
1, 319454, Note_off_c, 0, 66, 44
1, 319495, Note_off_c, 0, 59, 60
1, 319544, Note_off_c, 0, 68, 59
1, 319879, Note_off_c, 0, 50, 57
1, 319906, Note_off_c, 0, 38, 59
1, 320071, Note_on_c, 0, 65, 92
1, 320172, Control_c, 0, 64, 81
1, 320178, Note_on_c, 0, 37, 86
1, 320186, Control_c, 0, 64, 44
1, 320201, Control_c, 0, 64, 0
1, 320291, Note_on_c, 0, 49, 92
1, 320342, Control_c, 0, 64, 48
1, 320357, Control_c, 0, 64, 58
1, 320372, Control_c, 0, 64, 64
1, 320386, Control_c, 0, 64, 71
1, 320401, Control_c, 0, 64, 80
1, 320415, Note_on_c, 0, 55, 89
1, 320416, Control_c, 0, 64, 98
1, 320430, Control_c, 0, 64, 127
1, 320474, Note_off_c, 0, 65, 50
1, 320556, Note_on_c, 0, 64, 86
1, 320645, Note_off_c, 0, 55, 45
1, 320937, Note_on_c, 0, 70, 88
1, 320980, Control_c, 0, 64, 121
1, 320995, Control_c, 0, 64, 76
1, 321009, Control_c, 0, 64, 58
1, 321032, Control_c, 0, 64, 44
1, 321047, Control_c, 0, 64, 47
1, 321061, Control_c, 0, 64, 56
1, 321076, Control_c, 0, 64, 64
1, 321091, Control_c, 0, 64, 72
1, 321106, Control_c, 0, 64, 83
1, 321121, Control_c, 0, 64, 93
1, 321135, Control_c, 0, 64, 99
1, 321150, Control_c, 0, 64, 108
1, 321165, Control_c, 0, 64, 127
1, 321515, Note_off_c, 0, 64, 55
1, 321641, Note_off_c, 0, 49, 51
1, 321807, Note_off_c, 0, 37, 37
1, 322369, Note_on_c, 0, 64, 31
1, 322393, Note_on_c, 0, 48, 37
1, 322402, Note_on_c, 0, 36, 38
1, 322424, Note_on_c, 0, 60, 13
1, 322435, Note_on_c, 0, 58, 17
1, 322477, Control_c, 0, 64, 102
1, 322492, Control_c, 0, 64, 77
1, 322506, Control_c, 0, 64, 62
1, 322529, Control_c, 0, 64, 51
1, 322544, Control_c, 0, 64, 46
1, 322559, Control_c, 0, 64, 46
1, 322574, Control_c, 0, 64, 48
1, 322588, Control_c, 0, 64, 52
1, 322603, Control_c, 0, 64, 58
1, 322618, Control_c, 0, 64, 63
1, 322632, Control_c, 0, 64, 70
1, 322647, Control_c, 0, 64, 82
1, 322662, Control_c, 0, 64, 96
1, 322677, Control_c, 0, 64, 112
1, 322692, Control_c, 0, 64, 127
1, 322741, Note_off_c, 0, 70, 61
1, 322923, Note_on_c, 0, 68, 58
1, 323119, Note_off_c, 0, 48, 39
1, 323155, Note_off_c, 0, 68, 34
1, 323193, Note_off_c, 0, 64, 42
1, 323221, Note_off_c, 0, 60, 40
1, 323244, Note_off_c, 0, 36, 39
1, 323262, Note_off_c, 0, 58, 38
1, 323343, Note_on_c, 0, 67, 67
1, 323598, Note_off_c, 0, 67, 54
1, 324013, Note_on_c, 0, 67, 50
1, 324048, Note_on_c, 0, 56, 32
1, 324049, Note_on_c, 0, 41, 28
1, 324055, Note_on_c, 0, 29, 32
1, 324057, Note_on_c, 0, 60, 32
1, 324144, Control_c, 0, 64, 119
1, 324159, Control_c, 0, 64, 84
1, 324174, Control_c, 0, 64, 67
1, 324189, Control_c, 0, 64, 52
1, 324204, Control_c, 0, 64, 45
1, 324219, Control_c, 0, 64, 44
1, 324219, Control_c, 0, 67, 37
1, 324233, Control_c, 0, 64, 46
1, 324233, Control_c, 0, 67, 42
1, 324248, Control_c, 0, 64, 51
1, 324248, Control_c, 0, 67, 44
1, 324263, Control_c, 0, 64, 55
1, 324263, Control_c, 0, 67, 45
1, 324277, Control_c, 0, 64, 59
1, 324277, Control_c, 0, 67, 46
1, 324292, Control_c, 0, 64, 63
1, 324307, Control_c, 0, 64, 67
1, 324307, Control_c, 0, 67, 46
1, 324322, Control_c, 0, 64, 71
1, 324322, Control_c, 0, 67, 47
1, 324337, Control_c, 0, 64, 77
1, 324351, Control_c, 0, 64, 81
1, 324366, Control_c, 0, 64, 85
1, 324381, Control_c, 0, 64, 90
1, 324395, Control_c, 0, 64, 97
1, 324410, Control_c, 0, 64, 104
1, 324425, Control_c, 0, 64, 114
1, 324425, Control_c, 0, 67, 47
1, 324440, Control_c, 0, 64, 127
1, 324500, Control_c, 0, 67, 48
1, 324515, Control_c, 0, 67, 49
1, 324589, Control_c, 0, 67, 49
1, 324686, Note_off_c, 0, 29, 40
1, 324741, Note_off_c, 0, 41, 49
1, 324831, Note_on_c, 0, 65, 52
1, 324863, Control_c, 0, 67, 50
1, 324923, Control_c, 0, 67, 50
1, 324952, Control_c, 0, 67, 51
1, 324967, Control_c, 0, 67, 51
1, 324971, Note_off_c, 0, 67, 35
1, 324997, Control_c, 0, 67, 52
1, 325012, Control_c, 0, 67, 53
1, 325026, Control_c, 0, 67, 57
1, 325041, Control_c, 0, 67, 87
1, 325056, Control_c, 0, 67, 116
1, 325064, Note_off_c, 0, 60, 42
1, 325071, Control_c, 0, 67, 127
1, 325084, Note_off_c, 0, 56, 42
1, 325319, Note_on_c, 0, 60, 36
1, 325319, Note_on_c, 0, 56, 34
1, 325329, Note_on_c, 0, 41, 34
1, 325334, Note_on_c, 0, 53, 31
1, 325717, Note_off_c, 0, 56, 42
1, 325779, Note_off_c, 0, 60, 38
1, 325782, Note_off_c, 0, 41, 41
1, 325791, Note_off_c, 0, 53, 36
1, 326335, Note_on_c, 0, 56, 37
1, 326346, Note_on_c, 0, 53, 32
1, 326347, Note_on_c, 0, 41, 30
1, 326347, Note_on_c, 0, 60, 28
1, 326487, Note_off_c, 0, 56, 48
1, 326619, Note_off_c, 0, 41, 40
1, 326653, Note_off_c, 0, 60, 42
1, 326653, Note_off_c, 0, 53, 32
1, 326735, Note_off_c, 0, 65, 41
1, 327274, Control_c, 0, 64, 101
1, 327289, Control_c, 0, 64, 74
1, 327303, Control_c, 0, 64, 60
1, 327317, Note_on_c, 0, 41, 42
1, 327318, Control_c, 0, 64, 56
1, 327333, Control_c, 0, 64, 58
1, 327348, Control_c, 0, 64, 64
1, 327360, Note_off_c, 0, 41, 62
1, 327363, Control_c, 0, 64, 71
1, 327377, Control_c, 0, 64, 86
1, 327392, Control_c, 0, 64, 112
1, 327394, Note_on_c, 0, 53, 35
1, 327407, Control_c, 0, 64, 127
1, 327428, Note_off_c, 0, 53, 47
1, 327432, Note_on_c, 0, 65, 46
1, 327481, Note_on_c, 0, 68, 51
1, 327532, Note_on_c, 0, 72, 53
1, 327604, Note_on_c, 0, 77, 62
1, 327698, Note_on_c, 0, 89, 68
1, 327758, Note_off_c, 0, 89, 60
1, 327844, Note_off_c, 0, 65, 40
1, 327929, Note_off_c, 0, 77, 57
1, 328063, Note_off_c, 0, 72, 35
1, 328068, Note_off_c, 0, 68, 37
1, 328497, Control_c, 0, 64, 98
1, 328519, Control_c, 0, 64, 73
1, 328534, Control_c, 0, 64, 63
1, 328548, Control_c, 0, 64, 62
1, 328550, Note_on_c, 0, 39, 49
1, 328563, Control_c, 0, 64, 65
1, 328578, Control_c, 0, 64, 70
1, 328593, Control_c, 0, 64, 79
1, 328601, Note_off_c, 0, 39, 62
1, 328608, Control_c, 0, 64, 91
1, 328610, Note_on_c, 0, 51, 57
1, 328622, Control_c, 0, 64, 109
1, 328636, Note_off_c, 0, 51, 60
1, 328637, Control_c, 0, 64, 127
1, 328653, Note_on_c, 0, 60, 47
1, 328703, Note_on_c, 0, 65, 52
1, 328733, Note_on_c, 0, 68, 55
1, 328792, Note_on_c, 0, 72, 64
1, 328876, Note_on_c, 0, 84, 77
1, 328879, Note_off_c, 0, 60, 35
1, 328957, Note_off_c, 0, 84, 57
1, 329010, Note_off_c, 0, 65, 39
1, 329185, Note_off_c, 0, 68, 35
1, 329697, Control_c, 0, 64, 81
1, 329712, Control_c, 0, 64, 64
1, 329723, Note_off_c, 0, 72, 33
1, 329727, Control_c, 0, 64, 55
1, 329731, Note_on_c, 0, 37, 51
1, 329742, Control_c, 0, 64, 56
1, 329757, Control_c, 0, 64, 61
1, 329771, Control_c, 0, 64, 68
1, 329780, Note_off_c, 0, 37, 63
1, 329786, Control_c, 0, 64, 81
1, 329792, Note_on_c, 0, 49, 47
1, 329801, Control_c, 0, 64, 114
1, 329816, Control_c, 0, 64, 127
1, 329819, Note_off_c, 0, 49, 59
1, 329829, Note_on_c, 0, 61, 46
1, 329890, Note_on_c, 0, 65, 46
1, 329924, Note_on_c, 0, 68, 50
1, 329934, Note_off_c, 0, 61, 58
1, 329972, Note_on_c, 0, 73, 61
1, 330068, Note_on_c, 0, 85, 69
1, 330103, Note_off_c, 0, 85, 56
1, 330110, Note_off_c, 0, 65, 23
1, 330305, Note_off_c, 0, 73, 38
1, 330415, Note_off_c, 0, 68, 41
1, 330839, Control_c, 0, 64, 82
1, 330854, Control_c, 0, 64, 65
1, 330869, Control_c, 0, 64, 60
1, 330871, Note_on_c, 0, 36, 52
1, 330884, Control_c, 0, 64, 63
1, 330899, Control_c, 0, 64, 69
1, 330914, Control_c, 0, 64, 82
1, 330916, Note_off_c, 0, 36, 63
1, 330923, Note_on_c, 0, 48, 65
1, 330929, Control_c, 0, 64, 127
1, 330950, Note_off_c, 0, 48, 65
1, 330968, Note_on_c, 0, 56, 54
1, 331024, Note_on_c, 0, 61, 52
1, 331046, Note_off_c, 0, 56, 59
1, 331063, Note_on_c, 0, 65, 56
1, 331123, Note_on_c, 0, 68, 61
1, 331147, Note_off_c, 0, 61, 36
1, 331170, Note_off_c, 0, 65, 53
1, 331203, Note_on_c, 0, 80, 75
1, 331246, Note_off_c, 0, 80, 58
1, 332004, Control_c, 0, 64, 84
1, 332018, Control_c, 0, 64, 64
1, 332030, Note_on_c, 0, 34, 56
1, 332033, Control_c, 0, 64, 58
1, 332048, Control_c, 0, 64, 62
1, 332062, Control_c, 0, 64, 68
1, 332077, Control_c, 0, 64, 81
1, 332086, Note_off_c, 0, 34, 63
1, 332088, Note_on_c, 0, 46, 57
1, 332092, Control_c, 0, 64, 121
1, 332106, Control_c, 0, 64, 127
1, 332118, Note_off_c, 0, 46, 64
1, 332140, Note_off_c, 0, 68, 51
1, 332170, Note_on_c, 0, 58, 53
1, 332226, Note_off_c, 0, 58, 53
1, 332230, Note_on_c, 0, 61, 46
1, 332292, Note_on_c, 0, 65, 46
1, 332294, Note_off_c, 0, 61, 55
1, 332357, Note_on_c, 0, 70, 56
1, 332384, Note_off_c, 0, 65, 56
1, 332391, Note_on_c, 0, 82, 66
1, 332420, Note_off_c, 0, 82, 61
1, 332762, Note_off_c, 0, 70, 58
1, 333234, Control_c, 0, 64, 81
1, 333248, Control_c, 0, 64, 62
1, 333251, Note_on_c, 0, 32, 51
1, 333263, Control_c, 0, 64, 55
1, 333278, Control_c, 0, 64, 60
1, 333294, Control_c, 0, 64, 66
1, 333309, Control_c, 0, 64, 76
1, 333311, Note_off_c, 0, 32, 61
1, 333317, Note_on_c, 0, 44, 56
1, 333324, Control_c, 0, 64, 98
1, 333338, Control_c, 0, 64, 127
1, 333349, Note_off_c, 0, 44, 64
1, 333381, Note_on_c, 0, 60, 41
1, 333439, Note_on_c, 0, 65, 46
1, 333476, Note_on_c, 0, 68, 50
1, 333546, Note_on_c, 0, 72, 52
1, 333613, Note_on_c, 0, 84, 70
1, 333674, Note_off_c, 0, 84, 61
1, 333849, Note_off_c, 0, 72, 56
1, 333860, Note_off_c, 0, 60, 41
1, 333895, Note_off_c, 0, 68, 60
1, 333958, Note_off_c, 0, 65, 38
1, 334443, Control_c, 0, 64, 113
1, 334458, Control_c, 0, 64, 78
1, 334471, Note_on_c, 0, 31, 41
1, 334473, Control_c, 0, 64, 63
1, 334487, Control_c, 0, 64, 60
1, 334509, Control_c, 0, 64, 63
1, 334513, Note_off_c, 0, 31, 54
1, 334524, Control_c, 0, 64, 68
1, 334528, Note_on_c, 0, 43, 51
1, 334539, Control_c, 0, 64, 78
1, 334554, Control_c, 0, 64, 98
1, 334562, Note_off_c, 0, 43, 63
1, 334569, Control_c, 0, 64, 127
1, 334593, Note_on_c, 0, 53, 42
1, 334654, Note_on_c, 0, 58, 46
1, 334700, Note_on_c, 0, 60, 46
1, 334797, Note_on_c, 0, 65, 46
1, 334846, Note_on_c, 0, 77, 62
1, 334906, Note_off_c, 0, 77, 61
1, 335114, Note_off_c, 0, 53, 34
1, 335180, Note_off_c, 0, 58, 41
1, 335195, Note_off_c, 0, 60, 43
1, 335913, Note_on_c, 0, 29, 35
1, 335978, Note_on_c, 0, 41, 35
1, 336052, Control_c, 0, 64, 88
1, 336054, Note_on_c, 0, 53, 35
1, 336066, Control_c, 0, 64, 69
1, 336081, Control_c, 0, 64, 58
1, 336096, Control_c, 0, 64, 50
1, 336111, Control_c, 0, 64, 49
1, 336126, Control_c, 0, 64, 51
1, 336137, Note_on_c, 0, 56, 19
1, 336140, Control_c, 0, 64, 54
1, 336155, Control_c, 0, 64, 57
1, 336170, Control_c, 0, 64, 60
1, 336184, Control_c, 0, 64, 63
1, 336191, Note_on_c, 0, 60, 37
1, 336199, Control_c, 0, 64, 67
1, 336214, Control_c, 0, 64, 72
1, 336229, Control_c, 0, 64, 80
1, 336244, Control_c, 0, 64, 85
1, 336259, Control_c, 0, 64, 90
1, 336274, Control_c, 0, 64, 93
1, 336289, Control_c, 0, 64, 98
1, 336304, Control_c, 0, 64, 104
1, 336319, Control_c, 0, 64, 112
1, 336333, Control_c, 0, 64, 127
1, 336456, Note_off_c, 0, 53, 38
1, 336474, Note_off_c, 0, 29, 41
1, 336565, Note_off_c, 0, 41, 40
1, 336590, Note_off_c, 0, 65, 38
1, 336661, Note_off_c, 0, 56, 39
1, 336715, Note_off_c, 0, 60, 37
1, 337351, Note_on_c, 0, 41, 54
1, 337383, Note_off_c, 0, 41, 63
1, 337407, Note_on_c, 0, 53, 51
1, 337432, Note_off_c, 0, 53, 61
1, 337473, Note_on_c, 0, 65, 54
1, 337520, Note_on_c, 0, 68, 58
1, 337563, Note_on_c, 0, 72, 59
1, 337633, Note_on_c, 0, 77, 67
1, 337696, Note_on_c, 0, 89, 59
1, 337765, Note_off_c, 0, 89, 64
1, 337771, Note_off_c, 0, 65, 32
1, 337906, Note_off_c, 0, 77, 53
1, 337913, Note_off_c, 0, 68, 13
1, 338041, Note_off_c, 0, 72, 36
1, 338431, Control_c, 0, 64, 91
1, 338446, Control_c, 0, 64, 63
1, 338460, Control_c, 0, 64, 45
1, 338475, Control_c, 0, 64, 47
1, 338483, Note_on_c, 0, 39, 56
1, 338490, Control_c, 0, 64, 57
1, 338505, Control_c, 0, 64, 67
1, 338520, Control_c, 0, 64, 87
1, 338534, Note_off_c, 0, 39, 62
1, 338534, Control_c, 0, 64, 127
1, 338537, Note_on_c, 0, 51, 66
1, 338566, Note_off_c, 0, 51, 64
1, 338599, Note_on_c, 0, 60, 60
1, 338647, Note_on_c, 0, 65, 53
1, 338688, Note_on_c, 0, 68, 57
1, 338747, Note_on_c, 0, 72, 66
1, 338806, Note_on_c, 0, 84, 78
1, 338938, Note_off_c, 0, 60, 40
1, 339091, Note_off_c, 0, 65, 34
1, 339147, Note_off_c, 0, 72, 57
1, 339319, Note_off_c, 0, 68, 28
1, 339789, Note_on_c, 0, 61, 49
1, 339847, Note_off_c, 0, 61, 49
1, 339853, Note_on_c, 0, 65, 50
1, 339892, Note_on_c, 0, 68, 53
1, 339928, Note_off_c, 0, 65, 60
1, 339931, Note_off_c, 0, 84, 56
1, 339940, Note_on_c, 0, 85, 61
1, 339966, Note_on_c, 0, 73, 55
1, 340021, Note_off_c, 0, 68, 56
1, 340022, Note_off_c, 0, 85, 63
1, 340216, Note_off_c, 0, 73, 58
1, 340459, Note_on_c, 0, 49, 51
1, 340472, Note_on_c, 0, 37, 49
1, 340570, Note_off_c, 0, 49, 56
1, 340572, Note_off_c, 0, 37, 52
1, 340677, Control_c, 0, 64, 84
1, 340692, Control_c, 0, 64, 57
1, 340707, Control_c, 0, 64, 36
1, 340709, Note_on_c, 0, 36, 54
1, 340721, Control_c, 0, 64, 42
1, 340736, Control_c, 0, 64, 57
1, 340751, Control_c, 0, 64, 71
1, 340763, Note_off_c, 0, 36, 62
1, 340766, Control_c, 0, 64, 99
1, 340781, Control_c, 0, 64, 127
1, 340783, Note_on_c, 0, 48, 53
1, 340812, Note_off_c, 0, 48, 54
1, 340837, Note_on_c, 0, 56, 51
1, 340873, Note_on_c, 0, 61, 59
1, 340910, Note_off_c, 0, 56, 59
1, 340927, Note_on_c, 0, 65, 57
1, 340963, Note_off_c, 0, 61, 56
1, 340987, Note_on_c, 0, 68, 59
1, 341051, Note_on_c, 0, 80, 82
1, 341100, Note_off_c, 0, 65, 36
1, 341288, Note_off_c, 0, 68, 54
1, 342075, Note_on_c, 0, 58, 48
1, 342120, Note_off_c, 0, 58, 59
1, 342146, Note_on_c, 0, 61, 41
1, 342185, Note_off_c, 0, 61, 62
1, 342196, Note_on_c, 0, 65, 45
1, 342229, Note_off_c, 0, 80, 53
1, 342231, Note_on_c, 0, 82, 63
1, 342256, Note_on_c, 0, 70, 52
1, 342262, Note_off_c, 0, 65, 51
1, 342326, Note_off_c, 0, 82, 63
1, 342797, Note_on_c, 0, 46, 32
1, 342799, Note_on_c, 0, 34, 43
1, 342874, Note_off_c, 0, 46, 58
1, 342897, Note_off_c, 0, 34, 55
1, 342998, Control_c, 0, 64, 76
1, 343013, Control_c, 0, 64, 51
1, 343028, Control_c, 0, 64, 36
1, 343038, Note_on_c, 0, 32, 58
1, 343042, Control_c, 0, 64, 46
1, 343057, Control_c, 0, 64, 60
1, 343072, Control_c, 0, 64, 73
1, 343087, Control_c, 0, 64, 100
1, 343102, Control_c, 0, 64, 127
1, 343107, Note_off_c, 0, 32, 59
1, 343115, Note_on_c, 0, 44, 48
1, 343145, Note_off_c, 0, 44, 61
1, 343171, Note_off_c, 0, 70, 36
1, 343207, Note_on_c, 0, 60, 39
1, 343267, Note_on_c, 0, 65, 43
1, 343318, Note_on_c, 0, 68, 45
1, 343398, Note_on_c, 0, 72, 52
1, 343427, Note_on_c, 0, 84, 70
1, 343517, Note_off_c, 0, 84, 63
1, 343578, Note_off_c, 0, 72, 61
1, 343604, Note_off_c, 0, 68, 61
1, 343649, Note_off_c, 0, 65, 40
1, 343765, Note_off_c, 0, 60, 40
1, 344372, Note_on_c, 0, 53, 31
1, 344447, Note_on_c, 0, 58, 39
1, 344507, Note_on_c, 0, 60, 42
1, 344581, Note_on_c, 0, 77, 55
1, 344586, Note_on_c, 0, 65, 47
1, 344674, Note_off_c, 0, 77, 61
1, 344862, Note_off_c, 0, 53, 37
1, 344963, Note_off_c, 0, 58, 41
1, 345018, Note_off_c, 0, 60, 42
1, 345109, Note_on_c, 0, 43, 36
1, 345110, Note_on_c, 0, 31, 15
1, 345285, Note_off_c, 0, 43, 34
1, 345362, Note_off_c, 0, 31, 42
1, 345586, Note_on_c, 0, 29, 40
1, 345664, Note_on_c, 0, 41, 31
1, 345703, Note_on_c, 0, 53, 22
1, 345770, Control_c, 0, 64, 121
1, 345777, Note_on_c, 0, 56, 28
1, 345785, Control_c, 0, 64, 89
1, 345800, Control_c, 0, 64, 73
1, 345802, Note_on_c, 0, 60, 34
1, 345815, Control_c, 0, 64, 62
1, 345830, Control_c, 0, 64, 51
1, 345844, Control_c, 0, 64, 46
1, 345859, Control_c, 0, 64, 44
1, 345874, Control_c, 0, 64, 45
1, 345903, Control_c, 0, 64, 47
1, 345918, Control_c, 0, 64, 50
1, 345933, Control_c, 0, 64, 56
1, 345948, Control_c, 0, 64, 61
1, 345962, Control_c, 0, 64, 64
1, 345977, Control_c, 0, 64, 68
1, 345992, Control_c, 0, 64, 73
1, 346007, Control_c, 0, 64, 77
1, 346022, Control_c, 0, 64, 80
1, 346036, Control_c, 0, 64, 82
1, 346051, Control_c, 0, 64, 85
1, 346067, Control_c, 0, 64, 90
1, 346082, Control_c, 0, 64, 96
1, 346097, Control_c, 0, 64, 103
1, 346111, Control_c, 0, 64, 112
1, 346126, Control_c, 0, 64, 127
1, 346254, Note_off_c, 0, 53, 39
1, 346366, Note_off_c, 0, 65, 36
1, 346391, Note_off_c, 0, 29, 38
1, 346476, Note_off_c, 0, 56, 41
1, 346502, Note_off_c, 0, 41, 40
1, 346543, Note_off_c, 0, 60, 42
1, 346910, Note_on_c, 0, 41, 46
1, 346957, Note_off_c, 0, 41, 62
1, 346976, Note_on_c, 0, 53, 52
1, 347006, Note_off_c, 0, 53, 63
1, 347024, Note_on_c, 0, 61, 51
1, 347074, Note_on_c, 0, 65, 59
1, 347103, Note_off_c, 0, 61, 59
1, 347125, Note_on_c, 0, 68, 57
1, 347170, Note_off_c, 0, 65, 50
1, 347207, Note_on_c, 0, 80, 85
1, 347265, Note_off_c, 0, 80, 61
1, 347586, Note_off_c, 0, 68, 58
1, 348007, Note_on_c, 0, 41, 53
1, 348040, Note_off_c, 0, 41, 64
1, 348062, Note_on_c, 0, 53, 53
1, 348088, Note_off_c, 0, 53, 62
1, 348135, Note_on_c, 0, 61, 52
1, 348190, Note_on_c, 0, 68, 51
1, 348214, Note_off_c, 0, 61, 58
1, 348334, Note_on_c, 0, 84, 83
1, 348344, Note_on_c, 0, 72, 51
1, 348437, Note_off_c, 0, 84, 63
1, 348707, Note_off_c, 0, 68, 58
1, 349124, Note_on_c, 0, 44, 50
1, 349174, Note_on_c, 0, 56, 62
1, 349174, Note_off_c, 0, 44, 62
1, 349204, Note_off_c, 0, 56, 64
1, 349275, Note_on_c, 0, 61, 41
1, 349306, Note_on_c, 0, 65, 50
1, 349327, Note_off_c, 0, 72, 37
1, 349382, Note_on_c, 0, 70, 53
1, 349416, Note_on_c, 0, 82, 75
1, 349473, Note_off_c, 0, 82, 61
1, 349684, Note_off_c, 0, 61, 41
1, 349719, Note_off_c, 0, 65, 39
1, 350320, Note_on_c, 0, 43, 46
1, 350394, Note_on_c, 0, 55, 42
1, 350413, Note_on_c, 0, 61, 42
1, 350436, Note_on_c, 0, 67, 56
1, 350470, Control_c, 0, 64, 80
1, 350484, Control_c, 0, 64, 62
1, 350499, Control_c, 0, 64, 47
1, 350514, Control_c, 0, 64, 46
1, 350529, Control_c, 0, 64, 53
1, 350544, Control_c, 0, 64, 61
1, 350558, Control_c, 0, 64, 69
1, 350573, Control_c, 0, 64, 82
1, 350588, Control_c, 0, 64, 108
1, 350603, Control_c, 0, 64, 127
1, 350603, Control_c, 0, 67, 118
1, 350618, Control_c, 0, 67, 101
1, 350633, Control_c, 0, 67, 86
1, 350648, Control_c, 0, 67, 72
1, 350663, Control_c, 0, 67, 56
1, 350677, Control_c, 0, 67, 38
1, 350692, Control_c, 0, 67, 0
1, 350761, Note_off_c, 0, 61, 63
1, 350793, Note_off_c, 0, 55, 55
1, 350829, Note_off_c, 0, 70, 56
1, 350834, Note_off_c, 0, 67, 58
1, 350865, Note_off_c, 0, 43, 58
1, 351086, Control_c, 0, 64, 89
1, 351101, Control_c, 0, 64, 65
1, 351115, Control_c, 0, 64, 56
1, 351123, Note_on_c, 0, 41, 68
1, 351130, Control_c, 0, 64, 60
1, 351145, Control_c, 0, 64, 67
1, 351160, Control_c, 0, 64, 84
1, 351160, Note_off_c, 0, 41, 65
1, 351175, Control_c, 0, 64, 127
1, 351180, Note_on_c, 0, 53, 45
1, 351211, Note_off_c, 0, 53, 53
1, 351215, Note_on_c, 0, 61, 58
1, 351263, Note_on_c, 0, 68, 59
1, 351307, Note_on_c, 0, 70, 71
1, 351389, Note_on_c, 0, 82, 86
1, 351405, Note_off_c, 0, 61, 57
1, 351414, Note_off_c, 0, 82, 56
1, 351698, Note_off_c, 0, 70, 56
1, 351707, Note_off_c, 0, 68, 55
1, 352056, Control_c, 0, 64, 103
1, 352071, Control_c, 0, 64, 68
1, 352076, Note_on_c, 0, 39, 73
1, 352086, Control_c, 0, 64, 57
1, 352101, Control_c, 0, 64, 61
1, 352116, Control_c, 0, 64, 68
1, 352130, Note_on_c, 0, 51, 74
1, 352130, Control_c, 0, 64, 84
1, 352138, Note_off_c, 0, 39, 63
1, 352145, Control_c, 0, 64, 127
1, 352156, Note_off_c, 0, 51, 65
1, 352183, Note_on_c, 0, 61, 67
1, 352215, Note_on_c, 0, 66, 69
1, 352269, Note_on_c, 0, 69, 74
1, 352317, Note_on_c, 0, 73, 81
1, 352398, Note_on_c, 0, 85, 95
1, 352437, Note_off_c, 0, 85, 64
1, 352504, Note_off_c, 0, 61, 56
1, 352725, Note_off_c, 0, 73, 54
1, 352758, Note_off_c, 0, 66, 52
1, 353086, Control_c, 0, 64, 79
1, 353101, Control_c, 0, 64, 62
1, 353116, Control_c, 0, 64, 60
1, 353123, Note_on_c, 0, 42, 67
1, 353131, Control_c, 0, 64, 64
1, 353146, Control_c, 0, 64, 72
1, 353159, Note_off_c, 0, 69, 41
1, 353161, Control_c, 0, 64, 92
1, 353176, Control_c, 0, 64, 127
1, 353178, Note_on_c, 0, 54, 72
1, 353187, Note_off_c, 0, 42, 63
1, 353202, Note_off_c, 0, 54, 66
1, 353241, Note_on_c, 0, 60, 51
1, 353292, Note_on_c, 0, 63, 62
1, 353347, Note_on_c, 0, 69, 61
1, 353392, Note_on_c, 0, 72, 66
1, 353454, Note_on_c, 0, 84, 79
1, 353527, Note_off_c, 0, 60, 39
1, 353542, Note_off_c, 0, 84, 60
1, 353755, Note_off_c, 0, 63, 38
1, 353858, Note_off_c, 0, 69, 57
1, 354244, Control_c, 0, 64, 88
1, 354249, Note_on_c, 0, 41, 53
1, 354258, Control_c, 0, 64, 71
1, 354273, Control_c, 0, 64, 65
1, 354288, Control_c, 0, 64, 65
1, 354303, Control_c, 0, 64, 70
1, 354307, Note_on_c, 0, 53, 58
1, 354318, Control_c, 0, 64, 78
1, 354332, Control_c, 0, 64, 92
1, 354347, Control_c, 0, 64, 119
1, 354362, Control_c, 0, 64, 127
1, 354383, Note_on_c, 0, 60, 58
1, 354427, Note_on_c, 0, 65, 62
1, 354478, Note_off_c, 0, 60, 62
1, 354493, Note_on_c, 0, 69, 62
1, 354533, Note_off_c, 0, 65, 57
1, 354598, Note_off_c, 0, 72, 58
1, 354627, Note_off_c, 0, 69, 61
1, 354808, Note_off_c, 0, 53, 55
1, 354827, Note_off_c, 0, 41, 56
1, 355259, Control_c, 0, 64, 93
1, 355269, Note_on_c, 0, 39, 72
1, 355274, Control_c, 0, 64, 61
1, 355289, Control_c, 0, 64, 40
1, 355304, Control_c, 0, 64, 45
1, 355319, Control_c, 0, 64, 61
1, 355319, Note_on_c, 0, 51, 82
1, 355334, Control_c, 0, 64, 79
1, 355335, Note_off_c, 0, 39, 64
1, 355345, Note_off_c, 0, 51, 68
1, 355348, Control_c, 0, 64, 127
1, 355369, Note_on_c, 0, 60, 67
1, 355411, Note_on_c, 0, 66, 76
1, 355452, Note_on_c, 0, 69, 72
1, 355494, Note_on_c, 0, 72, 84
1, 355563, Note_on_c, 0, 84, 97
1, 355611, Note_off_c, 0, 84, 68
1, 355754, Note_off_c, 0, 60, 62
1, 355961, Note_off_c, 0, 72, 54
1, 355975, Note_off_c, 0, 66, 39
1, 356036, Note_off_c, 0, 69, 57
1, 356511, Note_on_c, 0, 38, 74
1, 356565, Control_c, 0, 64, 102
1, 356580, Control_c, 0, 64, 61
1, 356595, Control_c, 0, 64, 0
1, 356602, Note_on_c, 0, 50, 93
1, 356624, Control_c, 0, 64, 45
1, 356639, Control_c, 0, 64, 67
1, 356654, Control_c, 0, 64, 85
1, 356664, Note_off_c, 0, 38, 62
1, 356669, Control_c, 0, 64, 127
1, 356692, Note_off_c, 0, 50, 65
1, 356704, Note_on_c, 0, 65, 85
1, 356810, Note_on_c, 0, 70, 85
1, 356957, Note_on_c, 0, 77, 90
1, 356962, Note_on_c, 0, 89, 103
1, 357003, Note_off_c, 0, 89, 69
1, 357027, Note_off_c, 0, 70, 0
1, 357063, Poly_aftertouch_c, 0, 70, 127
1, 357340, Poly_aftertouch_c, 0, 70, 0
1, 357343, Note_off_c, 0, 65, 43
1, 357676, Note_on_c, 0, 37, 88
1, 357721, Control_c, 0, 64, 74
1, 357736, Control_c, 0, 64, 39
1, 357750, Control_c, 0, 64, 0
1, 357794, Control_c, 0, 64, 58
1, 357809, Control_c, 0, 64, 74
1, 357811, Note_on_c, 0, 49, 93
1, 357824, Control_c, 0, 64, 109
1, 357839, Control_c, 0, 64, 127
1, 357854, Note_off_c, 0, 37, 62
1, 357879, Note_off_c, 0, 49, 64
1, 357932, Note_on_c, 0, 66, 91
1, 357941, Poly_aftertouch_c, 0, 74, 127
1, 358067, Note_on_c, 0, 70, 88
1, 358085, Note_off_c, 0, 77, 57
1, 358126, Note_off_c, 0, 66, 58
1, 358326, Poly_aftertouch_c, 0, 74, 0
1, 358362, Poly_aftertouch_c, 0, 74, 127
1, 358374, Note_on_c, 0, 80, 76
1, 358380, Note_on_c, 0, 92, 102
1, 358493, Poly_aftertouch_c, 0, 74, 0
1, 358511, Note_off_c, 0, 92, 63
1, 358700, Note_off_c, 0, 80, 57
1, 359200, Note_on_c, 0, 78, 67
1, 359201, Note_on_c, 0, 90, 88
1, 359444, Note_off_c, 0, 70, 48
1, 359483, Note_off_c, 0, 90, 49
1, 359604, Note_off_c, 0, 78, 28
1, 359650, Note_on_c, 0, 65, 49
1, 359700, Note_on_c, 0, 71, 57
1, 359750, Note_on_c, 0, 89, 82
1, 359754, Note_on_c, 0, 77, 68
1, 359874, Note_off_c, 0, 89, 61
1, 359949, Note_off_c, 0, 65, 38
1, 360276, Note_on_c, 0, 85, 75
1, 360307, Note_on_c, 0, 73, 65
1, 360311, Note_off_c, 0, 77, 55
1, 360317, Note_off_c, 0, 85, 66
1, 360340, Note_off_c, 0, 71, 58
1, 360411, Note_off_c, 0, 73, 62
1, 360561, Control_c, 0, 67, 38
1, 360576, Control_c, 0, 67, 52
1, 360591, Control_c, 0, 67, 66
1, 360606, Control_c, 0, 67, 81
1, 360620, Control_c, 0, 67, 99
1, 360632, Note_on_c, 0, 37, 50
1, 360635, Control_c, 0, 67, 117
1, 360650, Control_c, 0, 67, 127
1, 360684, Note_on_c, 0, 49, 64
1, 360690, Note_off_c, 0, 37, 62
1, 360721, Note_off_c, 0, 49, 65
1, 360756, Note_on_c, 0, 58, 56
1, 360830, Note_on_c, 0, 64, 54
1, 360832, Note_off_c, 0, 58, 60
1, 360929, Note_on_c, 0, 70, 62
1, 360980, Note_on_c, 0, 82, 84
1, 361024, Note_off_c, 0, 82, 59
1, 361342, Note_off_c, 0, 70, 32
1, 361781, Note_on_c, 0, 79, 60
1, 361814, Note_on_c, 0, 67, 47
1, 361858, Note_off_c, 0, 64, 37
1, 361883, Note_off_c, 0, 79, 61
1, 361984, Note_off_c, 0, 67, 62
1, 362539, Control_c, 0, 64, 88
1, 362554, Control_c, 0, 64, 62
1, 362559, Note_on_c, 0, 41, 53
1, 362569, Control_c, 0, 64, 0
1, 362598, Control_c, 0, 64, 38
1, 362613, Control_c, 0, 64, 56
1, 362628, Control_c, 0, 64, 65
1, 362631, Note_off_c, 0, 41, 64
1, 362639, Note_on_c, 0, 53, 57
1, 362643, Control_c, 0, 64, 75
1, 362658, Control_c, 0, 64, 89
1, 362667, Note_off_c, 0, 53, 64
1, 362673, Control_c, 0, 64, 108
1, 362688, Control_c, 0, 64, 127
1, 362694, Note_on_c, 0, 56, 52
1, 362752, Note_off_c, 0, 56, 60
1, 362754, Note_on_c, 0, 60, 52
1, 362844, Note_on_c, 0, 65, 54
1, 362885, Note_on_c, 0, 77, 72
1, 362943, Note_off_c, 0, 77, 61
1, 363061, Note_off_c, 0, 60, 20
1, 364051, Control_c, 0, 64, 101
1, 364066, Control_c, 0, 64, 71
1, 364071, Note_on_c, 0, 34, 51
1, 364081, Control_c, 0, 64, 53
1, 364096, Control_c, 0, 64, 39
1, 364110, Control_c, 0, 64, 42
1, 364125, Control_c, 0, 64, 52
1, 364140, Control_c, 0, 64, 61
1, 364154, Control_c, 0, 64, 67
1, 364169, Control_c, 0, 64, 75
1, 364179, Note_on_c, 0, 46, 54
1, 364184, Control_c, 0, 64, 85
1, 364199, Note_off_c, 0, 34, 61
1, 364199, Control_c, 0, 64, 94
1, 364214, Control_c, 0, 64, 100
1, 364229, Control_c, 0, 64, 108
1, 364235, Note_off_c, 0, 46, 59
1, 364244, Control_c, 0, 64, 125
1, 364259, Control_c, 0, 64, 127
1, 364323, Note_on_c, 0, 55, 44
1, 364437, Note_off_c, 0, 65, 36
1, 364473, Note_on_c, 0, 61, 46
1, 364849, Note_on_c, 0, 77, 57
1, 364860, Note_on_c, 0, 65, 43
1, 364978, Note_off_c, 0, 77, 56
1, 365439, Note_off_c, 0, 55, 31
1, 365651, Note_off_c, 0, 61, 31
1, 366598, Note_on_c, 0, 60, 32
1, 366604, Note_on_c, 0, 41, 25
1, 366613, Note_on_c, 0, 56, 25
1, 366614, Note_on_c, 0, 29, 30
1, 366669, Control_c, 0, 64, 102
1, 366684, Control_c, 0, 64, 81
1, 366699, Control_c, 0, 64, 67
1, 366721, Control_c, 0, 64, 56
1, 366736, Control_c, 0, 64, 46
1, 366751, Control_c, 0, 64, 38
1, 366765, Control_c, 0, 64, 35
1, 366780, Control_c, 0, 64, 34
1, 366825, Control_c, 0, 64, 35
1, 366840, Control_c, 0, 64, 37
1, 366855, Control_c, 0, 64, 43
1, 366870, Control_c, 0, 64, 48
1, 366885, Control_c, 0, 64, 53
1, 366900, Control_c, 0, 64, 57
1, 366915, Control_c, 0, 64, 60
1, 366929, Control_c, 0, 64, 62
1, 366944, Control_c, 0, 64, 64
1, 366959, Control_c, 0, 64, 66
1, 366974, Control_c, 0, 64, 68
1, 366988, Control_c, 0, 64, 70
1, 367003, Control_c, 0, 64, 72
1, 367018, Control_c, 0, 64, 75
1, 367033, Control_c, 0, 64, 78
1, 367048, Control_c, 0, 64, 80
1, 367062, Control_c, 0, 64, 83
1, 367077, Control_c, 0, 64, 86
1, 367092, Control_c, 0, 64, 90
1, 367107, Control_c, 0, 64, 93
1, 367122, Control_c, 0, 64, 97
1, 367136, Control_c, 0, 64, 102
1, 367151, Control_c, 0, 64, 108
1, 367166, Control_c, 0, 64, 122
1, 367180, Control_c, 0, 64, 127
1, 367460, Note_off_c, 0, 56, 32
1, 367523, Note_off_c, 0, 29, 39
1, 367569, Note_off_c, 0, 60, 35
1, 367569, Note_off_c, 0, 65, 29
1, 367661, Note_off_c, 0, 41, 40
1, 367885, Control_c, 0, 67, 124
1, 367915, Control_c, 0, 67, 122
1, 367959, Control_c, 0, 67, 120
1, 368032, Control_c, 0, 67, 118
1, 368121, Control_c, 0, 67, 116
1, 368232, Control_c, 0, 67, 114
1, 368307, Control_c, 0, 67, 95
1, 368321, Control_c, 0, 67, 69
1, 368336, Control_c, 0, 67, 50
1, 368351, Control_c, 0, 67, 36
1, 368366, Control_c, 0, 67, 0
1, 368754, Note_on_c, 0, 65, 65
1, 368789, Note_on_c, 0, 56, 36
1, 368792, Note_on_c, 0, 61, 43
1, 368799, Note_on_c, 0, 53, 34
1, 368811, Note_on_c, 0, 41, 37
1, 369448, Note_off_c, 0, 61, 24
1, 369490, Note_off_c, 0, 53, 56
1, 369493, Note_off_c, 0, 41, 50
1, 369505, Note_off_c, 0, 56, 36
1, 369657, Note_on_c, 0, 66, 82
1, 369720, Note_off_c, 0, 65, 37
1, 369775, Note_off_c, 0, 66, 62
1, 369807, Note_on_c, 0, 65, 85
1, 369822, Note_on_c, 0, 58, 62
1, 369830, Note_on_c, 0, 61, 60
1, 369832, Note_on_c, 0, 54, 63
1, 369834, Note_on_c, 0, 42, 60
1, 369894, Control_c, 0, 64, 103
1, 369908, Control_c, 0, 64, 72
1, 369923, Control_c, 0, 64, 50
1, 369938, Control_c, 0, 64, 28
1, 369953, Control_c, 0, 64, 0
1, 369997, Control_c, 0, 64, 39
1, 370012, Control_c, 0, 64, 55
1, 370028, Control_c, 0, 64, 63
1, 370043, Control_c, 0, 64, 68
1, 370058, Control_c, 0, 64, 75
1, 370072, Control_c, 0, 64, 84
1, 370087, Control_c, 0, 64, 96
1, 370102, Control_c, 0, 64, 127
1, 370224, Note_off_c, 0, 42, 62
1, 370245, Note_off_c, 0, 54, 58
1, 370328, Note_off_c, 0, 61, 38
1, 370384, Note_off_c, 0, 58, 39
1, 370753, Note_on_c, 0, 64, 83
1, 370760, Note_on_c, 0, 58, 74
1, 370763, Note_on_c, 0, 61, 75
1, 370772, Note_on_c, 0, 55, 76
1, 370775, Note_on_c, 0, 43, 69
1, 370787, Note_off_c, 0, 65, 62
1, 370821, Control_c, 0, 64, 78
1, 370836, Control_c, 0, 64, 55
1, 370851, Control_c, 0, 64, 32
1, 370866, Control_c, 0, 64, 0
1, 370895, Control_c, 0, 64, 40
1, 370910, Control_c, 0, 64, 57
1, 370925, Control_c, 0, 64, 68
1, 370940, Control_c, 0, 64, 82
1, 370954, Control_c, 0, 64, 96
1, 370969, Control_c, 0, 64, 111
1, 370984, Control_c, 0, 64, 127
1, 370988, Note_off_c, 0, 43, 60
1, 371037, Note_off_c, 0, 55, 57
1, 371173, Note_off_c, 0, 61, 52
1, 371231, Note_off_c, 0, 64, 61
1, 371502, Note_on_c, 0, 68, 83
1, 371547, Note_off_c, 0, 58, 55
1, 371596, Note_off_c, 0, 68, 60
1, 371627, Note_on_c, 0, 67, 88
1, 371642, Note_on_c, 0, 56, 86
1, 371643, Note_on_c, 0, 60, 73
1, 371648, Note_on_c, 0, 44, 71
1, 371648, Note_on_c, 0, 63, 72
1, 371675, Control_c, 0, 64, 97
1, 371690, Control_c, 0, 64, 65
1, 371705, Control_c, 0, 64, 29
1, 371719, Control_c, 0, 64, 0
1, 371778, Control_c, 0, 64, 38
1, 371793, Control_c, 0, 64, 51
1, 371808, Control_c, 0, 64, 60
1, 371823, Control_c, 0, 64, 66
1, 371838, Control_c, 0, 64, 74
1, 371852, Control_c, 0, 64, 89
1, 371867, Control_c, 0, 64, 127
1, 371958, Note_off_c, 0, 60, 54
1, 372013, Note_off_c, 0, 63, 59
1, 372043, Note_off_c, 0, 67, 59
1, 372166, Note_off_c, 0, 56, 56
1, 372176, Note_off_c, 0, 44, 53
1, 372470, Note_on_c, 0, 66, 91
1, 372477, Note_on_c, 0, 63, 84
1, 372483, Note_on_c, 0, 60, 71
1, 372489, Note_on_c, 0, 57, 79
1, 372496, Note_on_c, 0, 45, 71
1, 372528, Control_c, 0, 64, 85
1, 372542, Control_c, 0, 64, 62
1, 372557, Control_c, 0, 64, 35
1, 372572, Control_c, 0, 64, 0
1, 372601, Control_c, 0, 64, 42
1, 372616, Control_c, 0, 64, 59
1, 372631, Control_c, 0, 64, 70
1, 372646, Control_c, 0, 64, 81
1, 372661, Control_c, 0, 64, 93
1, 372675, Control_c, 0, 64, 107
1, 372697, Control_c, 0, 64, 127
1, 372710, Note_off_c, 0, 45, 60
1, 372716, Note_off_c, 0, 57, 60
1, 372873, Note_off_c, 0, 63, 57
1, 372881, Note_off_c, 0, 60, 50
1, 372899, Note_off_c, 0, 66, 59
1, 373196, Note_on_c, 0, 70, 91
1, 373296, Note_off_c, 0, 70, 62
1, 373338, Note_on_c, 0, 69, 83
1, 373359, Note_on_c, 0, 58, 67
1, 373368, Note_on_c, 0, 46, 59
1, 373374, Note_on_c, 0, 62, 68
1, 373395, Control_c, 0, 64, 83
1, 373410, Control_c, 0, 64, 62
1, 373424, Control_c, 0, 64, 38
1, 373446, Control_c, 0, 64, 0
1, 373476, Control_c, 0, 64, 30
1, 373491, Control_c, 0, 64, 49
1, 373505, Control_c, 0, 64, 61
1, 373520, Control_c, 0, 64, 67
1, 373535, Control_c, 0, 64, 72
1, 373550, Control_c, 0, 64, 78
1, 373565, Control_c, 0, 64, 84
1, 373580, Control_c, 0, 64, 92
1, 373595, Control_c, 0, 64, 107
1, 373610, Control_c, 0, 64, 127
1, 373750, Note_on_c, 0, 67, 83
1, 373843, Note_off_c, 0, 58, 56
1, 373844, Note_off_c, 0, 69, 53
1, 373923, Note_off_c, 0, 62, 57
1, 374149, Note_on_c, 0, 54, 48
1, 374149, Note_on_c, 0, 57, 53
1, 374150, Note_on_c, 0, 60, 40
1, 374151, Note_on_c, 0, 63, 48
1, 374225, Control_c, 0, 64, 102
1, 374240, Control_c, 0, 64, 76
1, 374254, Control_c, 0, 64, 60
1, 374269, Control_c, 0, 64, 44
1, 374284, Control_c, 0, 64, 35
1, 374314, Control_c, 0, 64, 41
1, 374328, Control_c, 0, 64, 50
1, 374343, Control_c, 0, 64, 57
1, 374358, Control_c, 0, 64, 62
1, 374373, Control_c, 0, 64, 65
1, 374388, Control_c, 0, 64, 70
1, 374403, Control_c, 0, 64, 76
1, 374417, Control_c, 0, 64, 81
1, 374432, Control_c, 0, 64, 86
1, 374447, Control_c, 0, 64, 90
1, 374462, Control_c, 0, 64, 96
1, 374477, Control_c, 0, 64, 103
1, 374491, Control_c, 0, 64, 115
1, 374506, Control_c, 0, 64, 127
1, 374529, Note_off_c, 0, 54, 57
1, 374561, Note_off_c, 0, 57, 61
1, 374570, Note_off_c, 0, 60, 60
1, 374634, Note_off_c, 0, 63, 39
1, 375018, Note_on_c, 0, 62, 35
1, 375023, Note_on_c, 0, 58, 37
1, 375030, Note_on_c, 0, 55, 36
1, 375106, Control_c, 0, 64, 87
1, 375120, Control_c, 0, 64, 66
1, 375135, Control_c, 0, 64, 52
1, 375150, Control_c, 0, 64, 43
1, 375165, Control_c, 0, 64, 41
1, 375180, Control_c, 0, 64, 43
1, 375194, Control_c, 0, 64, 47
1, 375209, Control_c, 0, 64, 53
1, 375224, Control_c, 0, 64, 57
1, 375239, Control_c, 0, 64, 61
1, 375254, Control_c, 0, 64, 64
1, 375268, Control_c, 0, 64, 68
1, 375283, Control_c, 0, 64, 73
1, 375298, Control_c, 0, 64, 77
1, 375312, Control_c, 0, 64, 81
1, 375327, Control_c, 0, 64, 85
1, 375342, Control_c, 0, 64, 90
1, 375357, Control_c, 0, 64, 95
1, 375372, Control_c, 0, 64, 100
1, 375386, Control_c, 0, 64, 106
1, 375401, Note_off_c, 0, 62, 43
1, 375401, Control_c, 0, 64, 114
1, 375416, Control_c, 0, 64, 127
1, 375455, Note_off_c, 0, 67, 55
1, 375456, Note_off_c, 0, 58, 40
1, 375470, Note_off_c, 0, 55, 33
1, 375470, Note_off_c, 0, 46, 37
1, 376106, Note_on_c, 0, 70, 54
1, 376114, Note_on_c, 0, 61, 36
1, 376118, Note_on_c, 0, 66, 49
1, 376133, Note_on_c, 0, 46, 32
1, 376133, Note_on_c, 0, 58, 38
1, 376211, Control_c, 0, 64, 115
1, 376225, Control_c, 0, 64, 82
1, 376240, Control_c, 0, 64, 63
1, 376255, Control_c, 0, 64, 51
1, 376269, Control_c, 0, 64, 45
1, 376284, Control_c, 0, 64, 47
1, 376299, Control_c, 0, 64, 52
1, 376314, Control_c, 0, 64, 58
1, 376329, Control_c, 0, 64, 63
1, 376343, Control_c, 0, 64, 68
1, 376358, Control_c, 0, 64, 74
1, 376373, Control_c, 0, 64, 82
1, 376388, Control_c, 0, 64, 91
1, 376403, Control_c, 0, 64, 102
1, 376419, Control_c, 0, 64, 127
1, 376567, Note_off_c, 0, 70, 33
1, 376605, Note_off_c, 0, 58, 54
1, 376632, Note_off_c, 0, 66, 40
1, 376640, Note_off_c, 0, 46, 49
1, 376685, Note_off_c, 0, 61, 42
1, 376763, Note_on_c, 0, 71, 73
1, 376862, Note_off_c, 0, 71, 56
1, 376928, Note_on_c, 0, 70, 83
1, 376946, Note_on_c, 0, 59, 69
1, 376948, Note_on_c, 0, 47, 65
1, 376950, Note_on_c, 0, 63, 67
1, 376964, Note_on_c, 0, 66, 57
1, 377019, Control_c, 0, 64, 99
1, 377034, Control_c, 0, 64, 70
1, 377048, Control_c, 0, 64, 49
1, 377063, Control_c, 0, 64, 30
1, 377078, Control_c, 0, 64, 0
1, 377092, Control_c, 0, 64, 32
1, 377107, Control_c, 0, 64, 46
1, 377122, Control_c, 0, 64, 58
1, 377137, Control_c, 0, 64, 65
1, 377152, Control_c, 0, 64, 72
1, 377166, Control_c, 0, 64, 82
1, 377181, Control_c, 0, 64, 99
1, 377204, Control_c, 0, 64, 127
1, 377341, Note_off_c, 0, 47, 61
1, 377354, Note_off_c, 0, 63, 54
1, 377366, Note_off_c, 0, 66, 53
1, 377390, Note_off_c, 0, 59, 62
1, 377441, Note_off_c, 0, 70, 56
1, 377698, Note_on_c, 0, 69, 88
1, 377705, Note_on_c, 0, 66, 84
1, 377711, Note_on_c, 0, 63, 75
1, 377723, Note_on_c, 0, 60, 81
1, 377724, Note_on_c, 0, 48, 77
1, 377768, Control_c, 0, 64, 85
1, 377782, Control_c, 0, 64, 58
1, 377797, Control_c, 0, 64, 0
1, 377842, Control_c, 0, 64, 45
1, 377857, Control_c, 0, 64, 63
1, 377871, Control_c, 0, 64, 80
1, 377886, Control_c, 0, 64, 127
1, 377965, Note_off_c, 0, 48, 61
1, 377985, Note_off_c, 0, 60, 60
1, 378025, Note_off_c, 0, 63, 60
1, 378050, Note_off_c, 0, 66, 61
1, 378054, Note_off_c, 0, 69, 57
1, 378307, Note_on_c, 0, 73, 95
1, 378433, Note_off_c, 0, 73, 59
1, 378482, Note_on_c, 0, 72, 91
1, 378495, Note_on_c, 0, 61, 89
1, 378497, Note_on_c, 0, 65, 82
1, 378501, Note_on_c, 0, 49, 74
1, 378501, Note_on_c, 0, 68, 75
1, 378516, Control_c, 0, 64, 95
1, 378531, Control_c, 0, 64, 62
1, 378546, Control_c, 0, 64, 0
1, 378591, Control_c, 0, 64, 51
1, 378605, Control_c, 0, 64, 66
1, 378620, Control_c, 0, 64, 81
1, 378635, Control_c, 0, 64, 108
1, 378650, Control_c, 0, 64, 127
1, 378728, Note_off_c, 0, 65, 51
1, 378796, Note_off_c, 0, 68, 54
1, 378805, Note_off_c, 0, 72, 57
1, 378885, Note_off_c, 0, 61, 56
1, 378903, Note_off_c, 0, 49, 54
1, 379282, Note_on_c, 0, 71, 89
1, 379288, Note_on_c, 0, 65, 76
1, 379288, Note_on_c, 0, 68, 81
1, 379296, Note_on_c, 0, 50, 75
1, 379296, Note_on_c, 0, 62, 82
1, 379354, Control_c, 0, 64, 89
1, 379369, Control_c, 0, 64, 63
1, 379384, Control_c, 0, 64, 34
1, 379399, Control_c, 0, 64, 0
1, 379435, Control_c, 0, 64, 44
1, 379450, Control_c, 0, 64, 60
1, 379465, Control_c, 0, 64, 70
1, 379480, Control_c, 0, 64, 81
1, 379494, Control_c, 0, 64, 92
1, 379509, Control_c, 0, 64, 127
1, 379548, Note_off_c, 0, 65, 49
1, 379609, Note_off_c, 0, 68, 57
1, 379616, Note_off_c, 0, 71, 55
1, 379625, Note_off_c, 0, 62, 59
1, 379633, Note_off_c, 0, 50, 60
1, 379929, Note_on_c, 0, 75, 95
1, 380109, Note_off_c, 0, 75, 56
1, 380228, Note_on_c, 0, 74, 91
1, 380245, Note_on_c, 0, 67, 76
1, 380251, Note_on_c, 0, 63, 73
1, 380254, Note_on_c, 0, 51, 69
1, 380303, Control_c, 0, 64, 80
1, 380317, Control_c, 0, 64, 59
1, 380332, Control_c, 0, 64, 0
1, 380377, Control_c, 0, 64, 36
1, 380391, Control_c, 0, 64, 50
1, 380407, Control_c, 0, 64, 59
1, 380422, Control_c, 0, 64, 65
1, 380437, Control_c, 0, 64, 70
1, 380452, Control_c, 0, 64, 77
1, 380467, Control_c, 0, 64, 86
1, 380481, Control_c, 0, 64, 100
1, 380496, Control_c, 0, 64, 127
1, 380637, Note_on_c, 0, 72, 86
1, 380688, Note_off_c, 0, 63, 55
1, 380719, Note_off_c, 0, 74, 60
1, 380826, Note_off_c, 0, 67, 59
1, 381008, Note_on_c, 0, 62, 69
1, 381013, Note_on_c, 0, 59, 65
1, 381014, Note_on_c, 0, 65, 52
1, 381017, Note_on_c, 0, 68, 58
1, 381081, Control_c, 0, 64, 89
1, 381096, Control_c, 0, 64, 66
1, 381111, Control_c, 0, 64, 46
1, 381126, Control_c, 0, 64, 29
1, 381140, Control_c, 0, 64, 33
1, 381155, Control_c, 0, 64, 47
1, 381170, Control_c, 0, 64, 59
1, 381185, Control_c, 0, 64, 67
1, 381200, Control_c, 0, 64, 73
1, 381216, Control_c, 0, 64, 79
1, 381230, Control_c, 0, 64, 86
1, 381245, Control_c, 0, 64, 97
1, 381260, Control_c, 0, 64, 117
1, 381275, Control_c, 0, 64, 127
1, 381458, Note_off_c, 0, 59, 58
1, 381465, Note_off_c, 0, 62, 58
1, 381518, Note_off_c, 0, 65, 54
1, 381580, Note_off_c, 0, 68, 61
1, 381897, Note_on_c, 0, 67, 48
1, 381912, Note_on_c, 0, 63, 43
1, 381917, Note_on_c, 0, 60, 40
1, 381964, Control_c, 0, 64, 103
1, 381979, Control_c, 0, 64, 74
1, 381994, Control_c, 0, 64, 58
1, 382010, Control_c, 0, 64, 42
1, 382025, Control_c, 0, 64, 37
1, 382040, Control_c, 0, 64, 41
1, 382054, Control_c, 0, 64, 51
1, 382069, Control_c, 0, 64, 61
1, 382084, Control_c, 0, 64, 68
1, 382099, Control_c, 0, 64, 76
1, 382113, Control_c, 0, 64, 87
1, 382128, Control_c, 0, 64, 104
1, 382143, Control_c, 0, 64, 127
1, 382185, Note_off_c, 0, 63, 63
1, 382235, Note_off_c, 0, 60, 63
1, 382256, Note_off_c, 0, 67, 58
1, 382287, Note_off_c, 0, 51, 61
1, 382320, Note_off_c, 0, 72, 58
1, 382549, Note_on_c, 0, 40, 85
1, 382579, Control_c, 0, 64, 116
1, 382594, Control_c, 0, 64, 69
1, 382609, Control_c, 0, 64, 41
1, 382624, Control_c, 0, 64, 27
1, 382638, Control_c, 0, 64, 46
1, 382653, Control_c, 0, 64, 66
1, 382667, Note_on_c, 0, 52, 96
1, 382668, Control_c, 0, 64, 92
1, 382683, Control_c, 0, 64, 127
1, 382708, Note_off_c, 0, 40, 62
1, 382740, Note_off_c, 0, 52, 65
1, 382790, Note_on_c, 0, 67, 105
1, 382988, Note_on_c, 0, 61, 82
1, 383072, Note_on_c, 0, 79, 98
1, 383089, Note_off_c, 0, 61, 61
1, 383362, Note_off_c, 0, 79, 59
1, 383545, Note_off_c, 0, 67, 41
1, 383903, Note_on_c, 0, 72, 91
1, 384136, Note_off_c, 0, 72, 60
1, 384146, Note_on_c, 0, 70, 90
1, 384158, Note_on_c, 0, 61, 84
1, 384163, Note_on_c, 0, 53, 83
1, 384166, Note_on_c, 0, 65, 75
1, 384168, Note_on_c, 0, 41, 73
1, 384210, Control_c, 0, 64, 98
1, 384225, Control_c, 0, 64, 67
1, 384240, Control_c, 0, 64, 42
1, 384254, Control_c, 0, 64, 0
1, 384314, Control_c, 0, 64, 27
1, 384329, Control_c, 0, 64, 38
1, 384344, Control_c, 0, 64, 49
1, 384358, Control_c, 0, 64, 58
1, 384373, Control_c, 0, 64, 64
1, 384388, Control_c, 0, 64, 69
1, 384403, Control_c, 0, 64, 77
1, 384418, Control_c, 0, 64, 87
1, 384433, Control_c, 0, 64, 103
1, 384448, Control_c, 0, 64, 127
1, 384625, Note_off_c, 0, 65, 57
1, 384645, Note_off_c, 0, 53, 56
1, 384645, Note_off_c, 0, 61, 59
1, 384659, Note_off_c, 0, 41, 57
1, 385034, Note_on_c, 0, 68, 80
1, 385042, Note_on_c, 0, 44, 53
1, 385044, Note_on_c, 0, 56, 65
1, 385044, Note_on_c, 0, 61, 62
1, 385050, Note_on_c, 0, 65, 66
1, 385082, Note_off_c, 0, 70, 61
1, 385331, Note_off_c, 0, 56, 61
1, 385366, Note_off_c, 0, 61, 59
1, 385366, Note_off_c, 0, 65, 51
1, 385398, Note_off_c, 0, 44, 60
1, 385957, Note_on_c, 0, 41, 60
1, 385959, Note_on_c, 0, 53, 59
1, 385966, Note_on_c, 0, 65, 56
1, 385970, Note_on_c, 0, 61, 49
1, 385975, Control_c, 0, 64, 95
1, 385990, Control_c, 0, 64, 66
1, 386006, Control_c, 0, 64, 36
1, 386020, Control_c, 0, 64, 0
1, 386109, Control_c, 0, 64, 40
1, 386124, Control_c, 0, 64, 56
1, 386139, Control_c, 0, 64, 65
1, 386153, Control_c, 0, 64, 74
1, 386168, Control_c, 0, 64, 84
1, 386191, Control_c, 0, 64, 98
1, 386206, Control_c, 0, 64, 127
1, 386296, Note_off_c, 0, 61, 63
1, 386354, Note_off_c, 0, 53, 60
1, 386357, Note_off_c, 0, 65, 53
1, 386389, Note_off_c, 0, 68, 55
1, 386425, Note_off_c, 0, 41, 63
1, 386665, Note_on_c, 0, 38, 77
1, 386709, Control_c, 0, 64, 104
1, 386723, Control_c, 0, 64, 67
1, 386738, Control_c, 0, 64, 33
1, 386752, Control_c, 0, 64, 0
1, 386774, Note_on_c, 0, 50, 76
1, 386798, Control_c, 0, 64, 47
1, 386813, Control_c, 0, 64, 61
1, 386827, Note_off_c, 0, 38, 60
1, 386828, Control_c, 0, 64, 69
1, 386842, Control_c, 0, 64, 77
1, 386857, Control_c, 0, 64, 87
1, 386872, Control_c, 0, 64, 97
1, 386880, Note_off_c, 0, 50, 61
1, 386887, Control_c, 0, 64, 112
1, 386894, Note_on_c, 0, 65, 81
1, 386901, Control_c, 0, 64, 127
1, 387131, Note_on_c, 0, 59, 57
1, 387232, Note_on_c, 0, 77, 84
1, 387371, Note_off_c, 0, 59, 50
1, 387476, Note_off_c, 0, 77, 59
1, 387660, Note_off_c, 0, 65, 39
1, 388063, Note_on_c, 0, 70, 78
1, 388180, Note_off_c, 0, 70, 61
1, 388313, Note_on_c, 0, 68, 74
1, 388331, Note_on_c, 0, 39, 60
1, 388332, Note_on_c, 0, 51, 58
1, 388336, Note_on_c, 0, 59, 59
1, 388347, Note_on_c, 0, 63, 52
1, 388383, Control_c, 0, 64, 89
1, 388400, Control_c, 0, 64, 67
1, 388422, Control_c, 0, 64, 50
1, 388437, Control_c, 0, 64, 30
1, 388452, Control_c, 0, 64, 0
1, 388481, Control_c, 0, 64, 27
1, 388496, Control_c, 0, 64, 36
1, 388511, Control_c, 0, 64, 46
1, 388526, Control_c, 0, 64, 55
1, 388541, Control_c, 0, 64, 62
1, 388555, Control_c, 0, 64, 66
1, 388570, Control_c, 0, 64, 70
1, 388585, Control_c, 0, 64, 74
1, 388600, Control_c, 0, 64, 78
1, 388615, Control_c, 0, 64, 83
1, 388629, Control_c, 0, 64, 89
1, 388644, Control_c, 0, 64, 97
1, 388659, Control_c, 0, 64, 109
1, 388673, Control_c, 0, 64, 127
1, 388856, Note_off_c, 0, 39, 59
1, 388901, Note_off_c, 0, 63, 62
1, 388902, Note_off_c, 0, 51, 49
1, 388925, Note_off_c, 0, 59, 38
1, 389250, Note_on_c, 0, 66, 72
1, 389257, Note_on_c, 0, 42, 53
1, 389262, Note_on_c, 0, 54, 51
1, 389267, Note_on_c, 0, 59, 52
1, 389268, Note_on_c, 0, 63, 58
1, 389363, Control_c, 0, 64, 86
1, 389366, Note_off_c, 0, 68, 60
1, 389377, Control_c, 0, 64, 66
1, 389392, Control_c, 0, 64, 50
1, 389407, Control_c, 0, 64, 35
1, 389421, Control_c, 0, 64, 30
1, 389436, Control_c, 0, 64, 32
1, 389451, Control_c, 0, 64, 37
1, 389466, Control_c, 0, 64, 44
1, 389481, Control_c, 0, 64, 53
1, 389495, Control_c, 0, 64, 59
1, 389510, Control_c, 0, 64, 64
1, 389525, Control_c, 0, 64, 67
1, 389540, Control_c, 0, 64, 70
1, 389555, Control_c, 0, 64, 74
1, 389569, Control_c, 0, 64, 79
1, 389584, Control_c, 0, 64, 86
1, 389599, Control_c, 0, 64, 92
1, 389614, Control_c, 0, 64, 101
1, 389629, Control_c, 0, 64, 112
1, 389644, Control_c, 0, 64, 127
1, 389724, Note_off_c, 0, 54, 59
1, 389737, Note_off_c, 0, 59, 35
1, 389741, Note_off_c, 0, 63, 60
1, 389826, Note_off_c, 0, 42, 37
1, 390195, Note_on_c, 0, 63, 49
1, 390200, Note_on_c, 0, 51, 55
1, 390204, Note_on_c, 0, 59, 47
1, 390210, Note_on_c, 0, 39, 54
1, 390421, Note_off_c, 0, 59, 53
1, 390508, Note_off_c, 0, 63, 52
1, 390510, Note_off_c, 0, 51, 60
1, 390521, Note_off_c, 0, 66, 61
1, 390582, Note_off_c, 0, 39, 60
1, 390833, Note_on_c, 0, 36, 80
1, 390875, Control_c, 0, 64, 82
1, 390890, Control_c, 0, 64, 58
1, 390905, Control_c, 0, 64, 0
1, 390949, Control_c, 0, 64, 46
1, 390964, Control_c, 0, 64, 60
1, 390970, Note_on_c, 0, 48, 86
1, 390979, Control_c, 0, 64, 68
1, 390993, Control_c, 0, 64, 75
1, 391008, Control_c, 0, 64, 84
1, 391023, Control_c, 0, 64, 94
1, 391032, Note_off_c, 0, 36, 60
1, 391038, Control_c, 0, 64, 118
1, 391053, Control_c, 0, 64, 127
1, 391093, Note_off_c, 0, 48, 62
1, 391095, Note_on_c, 0, 63, 95
1, 391331, Note_on_c, 0, 57, 66
1, 391426, Note_on_c, 0, 75, 95
1, 391532, Note_off_c, 0, 57, 58
1, 391725, Note_off_c, 0, 75, 59
1, 391940, Note_off_c, 0, 63, 50
1, 392186, Note_on_c, 0, 68, 87
1, 392214, Note_on_c, 0, 69, 65
1, 392276, Note_off_c, 0, 69, 57
1, 392323, Note_off_c, 0, 68, 60
1, 392517, Note_on_c, 0, 66, 93
1, 392535, Note_on_c, 0, 47, 67
1, 392535, Note_on_c, 0, 57, 66
1, 392539, Note_on_c, 0, 35, 66
1, 392540, Note_on_c, 0, 63, 64
1, 392610, Control_c, 0, 64, 77
1, 392625, Control_c, 0, 64, 56
1, 392640, Control_c, 0, 64, 0
1, 392684, Control_c, 0, 64, 34
1, 392699, Control_c, 0, 64, 48
1, 392713, Control_c, 0, 64, 59
1, 392728, Control_c, 0, 64, 65
1, 392743, Control_c, 0, 64, 69
1, 392758, Control_c, 0, 64, 74
1, 392773, Control_c, 0, 64, 81
1, 392787, Control_c, 0, 64, 90
1, 392802, Control_c, 0, 64, 103
1, 392817, Control_c, 0, 64, 127
1, 392863, Note_off_c, 0, 35, 59
1, 392932, Note_off_c, 0, 47, 61
1, 392974, Note_off_c, 0, 57, 47
1, 393067, Note_off_c, 0, 63, 56
1, 393078, Note_off_c, 0, 66, 50
1, 393436, Note_on_c, 0, 65, 71
1, 393457, Note_on_c, 0, 62, 59
1, 393459, Note_on_c, 0, 56, 55
1, 393459, Note_on_c, 0, 59, 52
1, 393468, Note_on_c, 0, 47, 47
1, 393536, Control_c, 0, 64, 118
1, 393551, Control_c, 0, 64, 85
1, 393566, Control_c, 0, 64, 69
1, 393581, Control_c, 0, 64, 59
1, 393595, Control_c, 0, 64, 52
1, 393610, Control_c, 0, 64, 51
1, 393625, Control_c, 0, 64, 52
1, 393640, Control_c, 0, 64, 54
1, 393655, Control_c, 0, 64, 57
1, 393677, Control_c, 0, 64, 61
1, 393692, Control_c, 0, 64, 65
1, 393707, Control_c, 0, 64, 72
1, 393722, Control_c, 0, 64, 81
1, 393737, Control_c, 0, 64, 91
1, 393751, Control_c, 0, 64, 104
1, 393766, Control_c, 0, 64, 127
1, 393800, Note_off_c, 0, 59, 59
1, 393898, Note_off_c, 0, 56, 55
1, 393914, Note_off_c, 0, 47, 61
1, 394127, Note_on_c, 0, 58, 50
1, 394210, Note_off_c, 0, 58, 56
1, 394352, Note_on_c, 0, 59, 53
1, 394360, Note_on_c, 0, 44, 38
1, 394362, Note_on_c, 0, 32, 43
1, 394410, Control_c, 0, 64, 81
1, 394425, Control_c, 0, 64, 64
1, 394440, Control_c, 0, 64, 51
1, 394455, Control_c, 0, 64, 44
1, 394485, Control_c, 0, 64, 46
1, 394500, Control_c, 0, 64, 53
1, 394515, Control_c, 0, 64, 59
1, 394530, Control_c, 0, 64, 62
1, 394544, Control_c, 0, 64, 65
1, 394559, Control_c, 0, 64, 70
1, 394574, Control_c, 0, 64, 75
1, 394589, Control_c, 0, 64, 81
1, 394604, Control_c, 0, 64, 86
1, 394618, Control_c, 0, 64, 92
1, 394633, Control_c, 0, 64, 96
1, 394648, Control_c, 0, 64, 101
1, 394663, Control_c, 0, 64, 107
1, 394678, Control_c, 0, 64, 115
1, 394692, Control_c, 0, 64, 127
1, 394798, Note_off_c, 0, 59, 52
1, 394815, Note_off_c, 0, 62, 43
1, 394886, Note_off_c, 0, 65, 57
1, 395048, Note_off_c, 0, 32, 42
1, 395114, Note_off_c, 0, 44, 41
1, 395460, Note_on_c, 0, 71, 84
1, 395471, Note_on_c, 0, 62, 67
1, 395483, Note_on_c, 0, 56, 50
1, 395487, Note_on_c, 0, 46, 63
1, 395492, Note_on_c, 0, 34, 58
1, 395522, Note_off_c, 0, 56, 0
1, 395522, Note_on_c, 0, 56, 20
1, 395560, Control_c, 0, 64, 125
1, 395575, Control_c, 0, 64, 80
1, 395591, Control_c, 0, 64, 61
1, 395606, Control_c, 0, 64, 42
1, 395621, Control_c, 0, 64, 0
1, 395650, Control_c, 0, 64, 29
1, 395665, Control_c, 0, 64, 40
1, 395680, Control_c, 0, 64, 51
1, 395695, Control_c, 0, 64, 60
1, 395710, Control_c, 0, 64, 65
1, 395725, Control_c, 0, 64, 70
1, 395739, Control_c, 0, 64, 76
1, 395754, Control_c, 0, 64, 83
1, 395769, Control_c, 0, 64, 91
1, 395783, Control_c, 0, 64, 104
1, 395798, Control_c, 0, 64, 127
1, 395964, Note_off_c, 0, 62, 40
1, 396005, Note_off_c, 0, 56, 37
1, 396129, Note_off_c, 0, 34, 34
1, 396153, Note_off_c, 0, 46, 37
1, 396205, Note_on_c, 0, 68, 78
1, 396256, Note_off_c, 0, 71, 58
1, 396325, Note_off_c, 0, 68, 57
1, 396405, Note_on_c, 0, 66, 71
1, 396418, Note_on_c, 0, 57, 49
1, 396425, Note_on_c, 0, 63, 59
1, 396437, Note_on_c, 0, 35, 50
1, 396439, Note_on_c, 0, 47, 50
1, 396458, Control_c, 0, 64, 102
1, 396473, Control_c, 0, 64, 74
1, 396488, Control_c, 0, 64, 56
1, 396503, Control_c, 0, 64, 35
1, 396518, Control_c, 0, 64, 0
1, 396577, Control_c, 0, 64, 37
1, 396592, Control_c, 0, 64, 49
1, 396606, Control_c, 0, 64, 59
1, 396621, Control_c, 0, 64, 64
1, 396636, Control_c, 0, 64, 68
1, 396651, Control_c, 0, 64, 73
1, 396673, Control_c, 0, 64, 77
1, 396688, Control_c, 0, 64, 84
1, 396703, Control_c, 0, 64, 92
1, 396718, Control_c, 0, 64, 102
1, 396732, Control_c, 0, 64, 119
1, 396747, Control_c, 0, 64, 127
1, 396751, Note_off_c, 0, 35, 36
1, 396810, Note_off_c, 0, 47, 61
1, 396898, Note_off_c, 0, 57, 37
1, 396950, Note_off_c, 0, 66, 63
1, 396991, Note_off_c, 0, 63, 59
1, 397386, Note_on_c, 0, 65, 63
1, 397415, Note_on_c, 0, 56, 45
1, 397422, Note_on_c, 0, 59, 43
1, 397427, Note_on_c, 0, 62, 42
1, 397435, Note_on_c, 0, 47, 35
1, 397481, Control_c, 0, 64, 113
1, 397496, Control_c, 0, 64, 84
1, 397510, Control_c, 0, 64, 68
1, 397525, Control_c, 0, 64, 57
1, 397540, Control_c, 0, 64, 49
1, 397555, Control_c, 0, 64, 48
1, 397569, Control_c, 0, 64, 49
1, 397584, Control_c, 0, 64, 54
1, 397599, Control_c, 0, 64, 58
1, 397614, Control_c, 0, 64, 62
1, 397629, Control_c, 0, 64, 67
1, 397643, Control_c, 0, 64, 73
1, 397658, Control_c, 0, 64, 81
1, 397673, Control_c, 0, 64, 88
1, 397688, Control_c, 0, 64, 95
1, 397703, Control_c, 0, 64, 103
1, 397717, Control_c, 0, 64, 114
1, 397732, Control_c, 0, 64, 127
1, 397763, Note_off_c, 0, 59, 58
1, 397830, Note_off_c, 0, 56, 56
1, 397891, Note_off_c, 0, 47, 59
1, 398059, Control_c, 0, 67, 35
1, 398074, Control_c, 0, 67, 51
1, 398089, Control_c, 0, 67, 64
1, 398099, Note_on_c, 0, 58, 52
1, 398104, Control_c, 0, 67, 72
1, 398119, Control_c, 0, 67, 78
1, 398134, Control_c, 0, 67, 84
1, 398148, Control_c, 0, 67, 91
1, 398171, Control_c, 0, 67, 98
1, 398185, Control_c, 0, 67, 105
1, 398196, Note_off_c, 0, 58, 50
1, 398200, Control_c, 0, 67, 112
1, 398215, Control_c, 0, 67, 117
1, 398230, Control_c, 0, 67, 122
1, 398245, Control_c, 0, 67, 126
1, 398341, Note_on_c, 0, 59, 48
1, 398361, Note_on_c, 0, 32, 41
1, 398378, Note_on_c, 0, 44, 32
1, 398378, Control_c, 0, 64, 101
1, 398393, Control_c, 0, 64, 77
1, 398408, Control_c, 0, 64, 61
1, 398423, Control_c, 0, 64, 50
1, 398438, Control_c, 0, 64, 46
1, 398452, Control_c, 0, 64, 45
1, 398467, Control_c, 0, 64, 47
1, 398482, Control_c, 0, 64, 49
1, 398497, Control_c, 0, 64, 53
1, 398512, Control_c, 0, 64, 57
1, 398527, Control_c, 0, 64, 61
1, 398541, Control_c, 0, 64, 64
1, 398556, Control_c, 0, 64, 68
1, 398571, Control_c, 0, 64, 73
1, 398585, Control_c, 0, 64, 77
1, 398600, Control_c, 0, 64, 81
1, 398615, Control_c, 0, 64, 85
1, 398630, Control_c, 0, 64, 89
1, 398645, Control_c, 0, 64, 94
1, 398659, Control_c, 0, 64, 99
1, 398674, Control_c, 0, 64, 105
1, 398689, Control_c, 0, 64, 112
1, 398703, Control_c, 0, 64, 127
1, 398772, Note_off_c, 0, 44, 39
1, 398846, Note_off_c, 0, 65, 51
1, 398849, Note_off_c, 0, 59, 47
1, 398914, Note_off_c, 0, 32, 39
1, 398983, Note_off_c, 0, 62, 36
1, 399735, Note_on_c, 0, 71, 52
1, 399750, Note_on_c, 0, 56, 39
1, 399765, Note_on_c, 0, 62, 44
1, 399766, Note_on_c, 0, 29, 39
1, 399773, Note_on_c, 0, 41, 30
1, 399831, Control_c, 0, 64, 92
1, 399846, Control_c, 0, 64, 72
1, 399861, Control_c, 0, 64, 58
1, 399876, Control_c, 0, 64, 45
1, 399891, Control_c, 0, 64, 37
1, 399905, Control_c, 0, 64, 35
1, 399920, Control_c, 0, 64, 36
1, 399935, Control_c, 0, 64, 39
1, 399949, Control_c, 0, 64, 42
1, 399964, Control_c, 0, 64, 48
1, 399979, Control_c, 0, 64, 53
1, 399994, Control_c, 0, 64, 57
1, 400009, Control_c, 0, 64, 60
1, 400023, Control_c, 0, 64, 62
1, 400038, Control_c, 0, 64, 64
1, 400053, Control_c, 0, 64, 66
1, 400068, Control_c, 0, 64, 69
1, 400083, Control_c, 0, 64, 72
1, 400098, Control_c, 0, 64, 75
1, 400113, Control_c, 0, 64, 77
1, 400128, Control_c, 0, 64, 80
1, 400143, Control_c, 0, 64, 83
1, 400157, Control_c, 0, 64, 87
1, 400172, Control_c, 0, 64, 92
1, 400187, Control_c, 0, 64, 97
1, 400202, Control_c, 0, 64, 104
1, 400217, Control_c, 0, 64, 111
1, 400231, Control_c, 0, 64, 127
1, 400275, Note_off_c, 0, 56, 41
1, 400304, Note_off_c, 0, 71, 37
1, 400382, Note_off_c, 0, 62, 37
1, 400441, Note_off_c, 0, 29, 41
1, 400458, Note_off_c, 0, 41, 36
1, 400829, Note_on_c, 0, 68, 57
1, 401063, Note_off_c, 0, 68, 52
1, 401173, Note_on_c, 0, 67, 53
1, 401200, Note_on_c, 0, 63, 42
1, 401205, Note_on_c, 0, 46, 33
1, 401210, Note_on_c, 0, 55, 35
1, 401214, Note_on_c, 0, 34, 38
1, 401269, Control_c, 0, 64, 106
1, 401284, Control_c, 0, 64, 83
1, 401299, Control_c, 0, 64, 67
1, 401314, Control_c, 0, 64, 55
1, 401329, Control_c, 0, 64, 47
1, 401344, Control_c, 0, 64, 45
1, 401358, Control_c, 0, 64, 47
1, 401373, Control_c, 0, 64, 51
1, 401388, Control_c, 0, 64, 56
1, 401402, Control_c, 0, 64, 60
1, 401417, Control_c, 0, 64, 63
1, 401432, Control_c, 0, 64, 68
1, 401447, Control_c, 0, 64, 74
1, 401462, Control_c, 0, 64, 81
1, 401476, Control_c, 0, 64, 86
1, 401491, Control_c, 0, 64, 93
1, 401506, Control_c, 0, 64, 101
1, 401521, Control_c, 0, 64, 113
1, 401535, Control_c, 0, 64, 127
1, 401542, Note_off_c, 0, 34, 40
1, 401593, Note_off_c, 0, 46, 59
1, 401729, Note_off_c, 0, 67, 49
1, 401787, Note_off_c, 0, 55, 27
1, 401808, Note_off_c, 0, 63, 35
1, 401943, Control_c, 0, 67, 124
1, 401958, Control_c, 0, 67, 116
1, 401973, Control_c, 0, 67, 105
1, 401988, Control_c, 0, 67, 89
1, 402003, Control_c, 0, 67, 76
1, 402018, Control_c, 0, 67, 63
1, 402033, Control_c, 0, 67, 50
1, 402047, Control_c, 0, 67, 38
1, 402062, Control_c, 0, 67, 0
1, 402138, Note_on_c, 0, 68, 64
1, 402155, Note_on_c, 0, 58, 48
1, 402158, Note_on_c, 0, 46, 43
1, 402166, Note_on_c, 0, 63, 52
1, 402169, Note_on_c, 0, 55, 42
1, 402485, Note_off_c, 0, 68, 56
1, 402505, Note_off_c, 0, 55, 53
1, 402552, Note_off_c, 0, 46, 37
1, 402583, Note_off_c, 0, 58, 52
1, 402802, Note_on_c, 0, 67, 70
1, 402849, Note_off_c, 0, 63, 61
1, 402888, Note_off_c, 0, 67, 60
1, 403007, Note_on_c, 0, 68, 62
1, 403046, Note_on_c, 0, 59, 45
1, 403046, Note_on_c, 0, 62, 50
1, 403048, Control_c, 0, 64, 114
1, 403050, Note_on_c, 0, 47, 41
1, 403063, Control_c, 0, 64, 78
1, 403064, Note_on_c, 0, 53, 38
1, 403078, Control_c, 0, 64, 60
1, 403093, Control_c, 0, 64, 42
1, 403108, Control_c, 0, 64, 32
1, 403122, Control_c, 0, 64, 28
1, 403167, Control_c, 0, 64, 35
1, 403181, Control_c, 0, 64, 43
1, 403195, Control_c, 0, 64, 54
1, 403210, Control_c, 0, 64, 60
1, 403225, Control_c, 0, 64, 64
1, 403240, Control_c, 0, 64, 69
1, 403255, Control_c, 0, 64, 76
1, 403270, Control_c, 0, 64, 85
1, 403285, Control_c, 0, 64, 97
1, 403299, Control_c, 0, 64, 116
1, 403314, Control_c, 0, 64, 127
1, 403342, Note_off_c, 0, 59, 60
1, 403361, Note_off_c, 0, 62, 50
1, 403416, Note_off_c, 0, 53, 56
1, 403466, Note_off_c, 0, 47, 58
1, 403477, Note_off_c, 0, 68, 50
1, 403859, Note_on_c, 0, 70, 69
1, 403878, Note_on_c, 0, 59, 47
1, 403882, Note_on_c, 0, 62, 47
1, 403890, Note_on_c, 0, 41, 58
1, 403898, Note_on_c, 0, 29, 52
1, 404003, Note_off_c, 0, 29, 58
1, 404011, Note_off_c, 0, 41, 54
1, 404152, Note_off_c, 0, 70, 62
1, 404266, Note_off_c, 0, 59, 39
1, 404399, Note_off_c, 0, 62, 31
1, 404453, Note_on_c, 0, 68, 70
1, 404594, Note_off_c, 0, 68, 53
1, 404668, Note_on_c, 0, 67, 68
1, 404683, Note_on_c, 0, 34, 64
1, 404683, Note_on_c, 0, 58, 61
1, 404689, Note_on_c, 0, 46, 60
1, 404689, Note_on_c, 0, 63, 60
1, 404709, Control_c, 0, 64, 84
1, 404724, Control_c, 0, 64, 60
1, 404739, Control_c, 0, 64, 34
1, 404753, Control_c, 0, 64, 0
1, 404798, Control_c, 0, 64, 41
1, 404813, Control_c, 0, 64, 55
1, 404827, Control_c, 0, 64, 65
1, 404842, Control_c, 0, 64, 71
1, 404857, Control_c, 0, 64, 80
1, 404871, Control_c, 0, 64, 91
1, 404886, Control_c, 0, 64, 114
1, 404909, Control_c, 0, 64, 127
1, 404974, Note_off_c, 0, 58, 52
1, 405024, Note_off_c, 0, 34, 61
1, 405046, Note_on_c, 0, 68, 78
1, 405063, Note_off_c, 0, 46, 61
1, 405091, Note_off_c, 0, 67, 59
1, 405122, Note_off_c, 0, 63, 60
1, 405174, Note_off_c, 0, 68, 54
1, 405407, Note_on_c, 0, 68, 80
1, 405413, Note_on_c, 0, 55, 70
1, 405418, Note_on_c, 0, 63, 66
1, 405419, Note_on_c, 0, 58, 79
1, 405421, Note_on_c, 0, 46, 69
1, 405519, Poly_aftertouch_c, 0, 66, 0
1, 405600, Note_off_c, 0, 68, 61
1, 405607, Note_off_c, 0, 55, 31
1, 405769, Note_on_c, 0, 67, 90
1, 405816, Note_off_c, 0, 63, 62
1, 405830, Note_off_c, 0, 46, 52
1, 405833, Note_off_c, 0, 58, 55
1, 405926, Note_off_c, 0, 67, 35
1, 406103, Note_on_c, 0, 67, 90
1, 406116, Note_on_c, 0, 62, 77
1, 406122, Note_on_c, 0, 59, 83
1, 406128, Note_on_c, 0, 47, 73
1, 406132, Control_c, 0, 64, 75
1, 406139, Note_on_c, 0, 53, 69
1, 406147, Control_c, 0, 64, 44
1, 406162, Control_c, 0, 64, 0
1, 406191, Control_c, 0, 64, 47
1, 406206, Control_c, 0, 64, 63
1, 406221, Control_c, 0, 64, 75
1, 406236, Control_c, 0, 64, 98
1, 406251, Control_c, 0, 64, 127
1, 406265, Note_off_c, 0, 59, 62
1, 406286, Note_off_c, 0, 67, 61
1, 406307, Note_off_c, 0, 53, 60
1, 406315, Note_off_c, 0, 47, 60
1, 406481, Note_on_c, 0, 68, 91
1, 406513, Note_off_c, 0, 62, 64
1, 406924, Note_on_c, 0, 41, 58
1, 406933, Note_on_c, 0, 29, 57
1, 407004, Note_on_c, 0, 71, 90
1, 407014, Note_on_c, 0, 62, 56
1, 407023, Note_on_c, 0, 59, 56
1, 407082, Note_off_c, 0, 68, 55
1, 407238, Note_off_c, 0, 29, 58
1, 407276, Note_off_c, 0, 41, 62
1, 407354, Note_off_c, 0, 62, 55
1, 407423, Note_on_c, 0, 68, 92
1, 407462, Note_off_c, 0, 71, 55
1, 407497, Note_off_c, 0, 59, 64
1, 407512, Note_off_c, 0, 68, 64
1, 407734, Note_on_c, 0, 68, 95
1, 407745, Note_on_c, 0, 58, 81
1, 407752, Note_on_c, 0, 63, 75
1, 407757, Note_on_c, 0, 46, 83
1, 407759, Note_on_c, 0, 34, 79
1, 407763, Control_c, 0, 64, 75
1, 407778, Control_c, 0, 64, 29
1, 407793, Control_c, 0, 64, 0
1, 407823, Control_c, 0, 64, 35
1, 407837, Control_c, 0, 64, 59
1, 407852, Control_c, 0, 64, 73
1, 407867, Control_c, 0, 64, 95
1, 407882, Control_c, 0, 64, 127
1, 407899, Note_off_c, 0, 34, 61
1, 407924, Note_off_c, 0, 46, 60
1, 407950, Note_off_c, 0, 58, 60
1, 407967, Note_off_c, 0, 68, 50
1, 408024, Note_off_c, 0, 63, 56
1, 408080, Note_on_c, 0, 67, 97
1, 408151, Note_off_c, 0, 67, 66
1, 408450, Note_on_c, 0, 70, 91
1, 408453, Note_on_c, 0, 63, 88
1, 408454, Note_on_c, 0, 67, 88
1, 408464, Note_on_c, 0, 49, 91
1, 408468, Control_c, 0, 64, 73
1, 408468, Note_on_c, 0, 37, 78
1, 408483, Control_c, 0, 64, 0
1, 408542, Control_c, 0, 64, 54
1, 408557, Control_c, 0, 64, 70
1, 408572, Control_c, 0, 64, 83
1, 408586, Control_c, 0, 64, 102
1, 408601, Control_c, 0, 64, 127
1, 408647, Note_off_c, 0, 67, 59
1, 408673, Note_off_c, 0, 70, 60
1, 408851, Note_on_c, 0, 75, 100
1, 408951, Note_off_c, 0, 49, 58
1, 408991, Note_off_c, 0, 63, 58
1, 408993, Note_off_c, 0, 75, 56
1, 409002, Note_off_c, 0, 37, 56
1, 409288, Note_on_c, 0, 77, 95
1, 409297, Note_on_c, 0, 63, 89
1, 409298, Note_on_c, 0, 69, 84
1, 409303, Note_on_c, 0, 48, 95
1, 409305, Note_on_c, 0, 36, 80
1, 409335, Control_c, 0, 64, 68
1, 409348, Note_on_c, 0, 75, 30
1, 409350, Control_c, 0, 64, 0
1, 409389, Note_off_c, 0, 75, 32
1, 409416, Control_c, 0, 64, 36
1, 409431, Control_c, 0, 64, 56
1, 409446, Control_c, 0, 64, 62
1, 409461, Control_c, 0, 64, 67
1, 409476, Control_c, 0, 64, 72
1, 409491, Control_c, 0, 64, 83
1, 409506, Control_c, 0, 64, 105
1, 409506, Note_off_c, 0, 77, 59
1, 409521, Control_c, 0, 64, 127
1, 409574, Note_off_c, 0, 63, 62
1, 409862, Note_on_c, 0, 78, 99
1, 409980, Note_off_c, 0, 48, 56
1, 409993, Note_off_c, 0, 69, 60
1, 410049, Note_off_c, 0, 36, 56
1, 410328, Note_on_c, 0, 66, 82
1, 410334, Note_on_c, 0, 69, 70
1, 410334, Note_on_c, 0, 47, 90
1, 410343, Note_on_c, 0, 35, 83
1, 410388, Control_c, 0, 64, 113
1, 410403, Control_c, 0, 64, 68
1, 410418, Control_c, 0, 64, 0
1, 410491, Control_c, 0, 64, 46
1, 410506, Control_c, 0, 64, 60
1, 410521, Control_c, 0, 64, 67
1, 410536, Control_c, 0, 64, 76
1, 410551, Control_c, 0, 64, 91
1, 410565, Control_c, 0, 64, 127
1, 410570, Note_off_c, 0, 78, 53
1, 410581, Note_off_c, 0, 69, 59
1, 410656, Note_off_c, 0, 47, 60
1, 410673, Note_off_c, 0, 35, 57
1, 410812, Note_on_c, 0, 75, 101
1, 411008, Note_on_c, 0, 34, 97
1, 411114, Note_off_c, 0, 75, 49
1, 411121, Note_off_c, 0, 66, 60
1, 411430, Note_on_c, 0, 75, 101
1, 411434, Note_on_c, 0, 66, 95
1, 411439, Note_on_c, 0, 70, 87
1, 411446, Note_on_c, 0, 46, 92
1, 411462, Control_c, 0, 64, 112
1, 411477, Control_c, 0, 64, 63
1, 411492, Control_c, 0, 64, 0
1, 411941, Note_on_c, 0, 74, 84
1, 411959, Control_c, 0, 64, 44
1, 411969, Note_off_c, 0, 75, 60
1, 411974, Control_c, 0, 64, 57
1, 411989, Control_c, 0, 64, 58
1, 412004, Control_c, 0, 64, 65
1, 412019, Control_c, 0, 64, 80
1, 412033, Control_c, 0, 64, 127
1, 412071, Note_off_c, 0, 70, 56
1, 412168, Note_off_c, 0, 66, 61
1, 412321, Note_on_c, 0, 63, 105
1, 412332, Note_off_c, 0, 34, 62
1, 412338, Note_on_c, 0, 75, 80
1, 412342, Note_on_c, 0, 67, 64
1, 412347, Note_off_c, 0, 46, 61
1, 412409, Note_off_c, 0, 74, 37
1, 412463, Note_off_c, 0, 75, 59
1, 412671, Note_on_c, 0, 73, 94
1, 412792, Note_on_c, 0, 46, 91
1, 412795, Note_off_c, 0, 67, 39
1, 412866, Note_off_c, 0, 73, 52
1, 412969, Note_off_c, 0, 63, 41
1, 413096, Note_on_c, 0, 64, 98
1, 413100, Note_on_c, 0, 73, 96
1, 413108, Control_c, 0, 64, 122
1, 413109, Note_on_c, 0, 58, 99
1, 413110, Note_on_c, 0, 68, 83
1, 413123, Control_c, 0, 64, 67
1, 413145, Control_c, 0, 64, 0
1, 413205, Control_c, 0, 64, 43
1, 413220, Control_c, 0, 64, 60
1, 413235, Control_c, 0, 64, 66
1, 413250, Control_c, 0, 64, 71
1, 413265, Control_c, 0, 64, 77
1, 413279, Control_c, 0, 64, 87
1, 413294, Control_c, 0, 64, 109
1, 413309, Control_c, 0, 64, 127
1, 413446, Note_off_c, 0, 73, 59
1, 413476, Note_on_c, 0, 72, 91
1, 413498, Note_off_c, 0, 68, 60
1, 413598, Note_off_c, 0, 64, 61
1, 413867, Note_off_c, 0, 72, 0
1, 413888, Note_on_c, 0, 61, 99
1, 413889, Note_on_c, 0, 73, 95
1, 413895, Note_on_c, 0, 65, 80
1, 413911, Poly_aftertouch_c, 0, 72, 127
1, 413929, Poly_aftertouch_c, 0, 72, 0
1, 413974, Note_off_c, 0, 58, 62
1, 413982, Note_off_c, 0, 46, 58
1, 414054, Note_off_c, 0, 73, 58
1, 414160, Note_off_c, 0, 61, 57
1, 414356, Note_on_c, 0, 71, 98
1, 414362, Note_on_c, 0, 62, 93
1, 414429, Note_off_c, 0, 62, 65
1, 414429, Note_off_c, 0, 71, 61
1, 414437, Note_off_c, 0, 65, 64
1, 414849, Note_on_c, 0, 70, 100
1, 414850, Control_c, 0, 64, 77
1, 414855, Note_on_c, 0, 63, 95
1, 414858, Note_on_c, 0, 66, 90
1, 414865, Note_on_c, 0, 46, 92
1, 414865, Control_c, 0, 64, 28
1, 414868, Note_on_c, 0, 34, 81
1, 414880, Control_c, 0, 64, 0
1, 414904, Note_on_c, 0, 64, 33
1, 414904, Note_off_c, 0, 64, 127
1, 414910, Control_c, 0, 64, 29
1, 414925, Control_c, 0, 64, 57
1, 414940, Control_c, 0, 64, 74
1, 414954, Control_c, 0, 64, 104
1, 414969, Control_c, 0, 64, 127
1, 415041, Note_off_c, 0, 70, 53
1, 415074, Note_off_c, 0, 66, 60
1, 415097, Note_off_c, 0, 63, 58
1, 415232, Note_on_c, 0, 68, 94
1, 415338, Note_off_c, 0, 68, 58
1, 415340, Poly_aftertouch_c, 0, 69, 127
1, 415369, Poly_aftertouch_c, 0, 69, 0
1, 415530, Note_on_c, 0, 66, 102
1, 415625, Note_off_c, 0, 66, 55
1, 415643, Note_off_c, 0, 46, 50
1, 415657, Note_off_c, 0, 34, 54
1, 415792, Control_c, 0, 64, 110
1, 415799, Note_on_c, 0, 66, 96
1, 415801, Note_on_c, 0, 56, 93
1, 415807, Control_c, 0, 64, 60
1, 415814, Note_on_c, 0, 62, 79
1, 415816, Note_on_c, 0, 47, 96
1, 415822, Control_c, 0, 64, 0
1, 415822, Note_on_c, 0, 35, 83
1, 415881, Control_c, 0, 64, 43
1, 415896, Control_c, 0, 64, 62
1, 415910, Control_c, 0, 64, 71
1, 415925, Control_c, 0, 64, 85
1, 415940, Control_c, 0, 64, 106
1, 415955, Control_c, 0, 64, 127
1, 415959, Note_off_c, 0, 35, 61
1, 415964, Note_off_c, 0, 47, 61
1, 416096, Note_off_c, 0, 56, 56
1, 416169, Note_off_c, 0, 62, 53
1, 416758, Note_on_c, 0, 63, 89
1, 416761, Note_on_c, 0, 54, 85
1, 416764, Note_on_c, 0, 58, 86
1, 416769, Note_on_c, 0, 46, 93
1, 416774, Note_on_c, 0, 34, 87
1, 416778, Control_c, 0, 64, 94
1, 416793, Control_c, 0, 64, 53
1, 416807, Control_c, 0, 64, 0
1, 416889, Poly_aftertouch_c, 0, 61, 0
1, 416933, Control_c, 0, 64, 48
1, 416948, Control_c, 0, 64, 65
1, 416963, Control_c, 0, 64, 70
1, 416978, Control_c, 0, 64, 78
1, 416993, Control_c, 0, 64, 83
1, 417007, Control_c, 0, 64, 95
1, 417022, Control_c, 0, 64, 117
1, 417037, Control_c, 0, 64, 127
1, 417041, Note_off_c, 0, 66, 48
1, 417092, Note_off_c, 0, 58, 55
1, 417107, Note_off_c, 0, 63, 60
1, 417340, Note_on_c, 0, 66, 102
1, 417514, Note_off_c, 0, 66, 50
1, 417549, Note_off_c, 0, 54, 55
1, 417563, Note_off_c, 0, 46, 57
1, 417626, Note_off_c, 0, 34, 37
1, 417920, Control_c, 0, 64, 79
1, 417935, Control_c, 0, 64, 31
1, 417942, Note_on_c, 0, 66, 95
1, 417942, Note_on_c, 0, 54, 102
1, 417949, Note_on_c, 0, 59, 81
1, 417951, Control_c, 0, 64, 0
1, 417952, Note_on_c, 0, 62, 78
1, 417954, Note_on_c, 0, 44, 100
1, 417956, Note_on_c, 0, 32, 89
1, 418010, Control_c, 0, 64, 56
1, 418025, Control_c, 0, 64, 77
1, 418040, Control_c, 0, 64, 108
1, 418042, Note_off_c, 0, 32, 61
1, 418054, Control_c, 0, 64, 127
1, 418070, Note_off_c, 0, 44, 61
1, 418297, Note_off_c, 0, 54, 54
1, 418362, Note_off_c, 0, 66, 60
1, 418630, Note_on_c, 0, 68, 93
1, 418746, Note_off_c, 0, 68, 60
1, 418752, Note_off_c, 0, 59, 61
1, 418779, Note_off_c, 0, 62, 59
1, 419403, Note_on_c, 0, 66, 94
1, 419405, Note_on_c, 0, 58, 89
1, 419407, Note_on_c, 0, 54, 89
1, 419415, Note_on_c, 0, 39, 95
1, 419417, Note_on_c, 0, 27, 85
1, 419446, Control_c, 0, 64, 73
1, 419461, Control_c, 0, 64, 0
1, 419640, Control_c, 0, 64, 55
1, 419655, Control_c, 0, 64, 63
1, 419669, Control_c, 0, 64, 70
1, 419684, Control_c, 0, 64, 96
1, 419699, Control_c, 0, 64, 127
1, 419772, Note_off_c, 0, 66, 60
1, 419776, Note_off_c, 0, 54, 57
1, 419805, Note_off_c, 0, 58, 56
1, 419879, Note_on_c, 0, 65, 93
1, 420117, Note_off_c, 0, 65, 46
1, 420202, Note_on_c, 0, 63, 100
1, 420284, Note_off_c, 0, 27, 60
1, 420319, Note_off_c, 0, 39, 62
1, 420320, Note_off_c, 0, 63, 63
1, 420542, Note_on_c, 0, 63, 97
1, 420546, Note_on_c, 0, 54, 89
1, 420549, Note_on_c, 0, 58, 86
1, 420553, Note_on_c, 0, 51, 90
1, 420561, Note_on_c, 0, 39, 83
1, 420582, Control_c, 0, 64, 73
1, 420597, Control_c, 0, 64, 27
1, 420612, Control_c, 0, 64, 0
1, 420678, Control_c, 0, 64, 49
1, 420693, Control_c, 0, 64, 58
1, 420708, Control_c, 0, 64, 62
1, 420723, Control_c, 0, 64, 66
1, 420738, Control_c, 0, 64, 74
1, 420753, Control_c, 0, 64, 91
1, 420768, Control_c, 0, 64, 127
1, 420964, Note_off_c, 0, 54, 58
1, 421018, Note_off_c, 0, 39, 58
1, 421019, Note_off_c, 0, 51, 59
1, 421054, Note_off_c, 0, 58, 47
1, 421602, Note_on_c, 0, 58, 68
1, 421605, Note_on_c, 0, 54, 61
1, 421607, Note_on_c, 0, 51, 78
1, 421609, Note_on_c, 0, 39, 73
1, 421700, Note_off_c, 0, 54, 60
1, 421739, Note_off_c, 0, 63, 53
1, 421752, Note_off_c, 0, 58, 53
1, 421999, Note_off_c, 0, 51, 59
1, 422031, Note_off_c, 0, 39, 37
1, 422442, Control_c, 0, 64, 70
1, 422457, Control_c, 0, 64, 0
1, 422480, Note_on_c, 0, 39, 86
1, 422501, Control_c, 0, 64, 33
1, 422516, Control_c, 0, 64, 65
1, 422531, Control_c, 0, 64, 104
1, 422536, Note_on_c, 0, 51, 83
1, 422541, Note_off_c, 0, 39, 65
1, 422545, Control_c, 0, 64, 127
1, 422559, Note_off_c, 0, 51, 66
1, 422591, Note_on_c, 0, 63, 85
1, 422637, Note_on_c, 0, 66, 84
1, 422688, Note_on_c, 0, 70, 81
1, 422728, Note_on_c, 0, 75, 91
1, 422785, Note_on_c, 0, 87, 98
1, 422833, Note_off_c, 0, 87, 64
1, 423074, Note_off_c, 0, 63, 57
1, 423125, Note_off_c, 0, 75, 53
1, 423202, Note_off_c, 0, 66, 56
1, 423233, Note_off_c, 0, 70, 61
1, 423591, Control_c, 0, 64, 114
1, 423606, Control_c, 0, 64, 61
1, 423623, Note_on_c, 0, 37, 90
1, 423629, Control_c, 0, 64, 0
1, 423643, Control_c, 0, 64, 34
1, 423658, Control_c, 0, 64, 56
1, 423673, Control_c, 0, 64, 73
1, 423683, Note_on_c, 0, 49, 80
1, 423688, Control_c, 0, 64, 106
1, 423692, Note_off_c, 0, 37, 62
1, 423703, Control_c, 0, 64, 127
1, 423707, Note_off_c, 0, 49, 67
1, 423736, Note_on_c, 0, 58, 83
1, 423785, Note_on_c, 0, 63, 82
1, 423832, Note_on_c, 0, 66, 83
1, 423868, Note_on_c, 0, 70, 87
1, 423924, Note_on_c, 0, 82, 97
1, 423976, Note_off_c, 0, 82, 59
1, 424040, Poly_aftertouch_c, 0, 83, 0
1, 424239, Note_off_c, 0, 58, 59
1, 424342, Note_off_c, 0, 70, 52
1, 424395, Note_off_c, 0, 63, 51
1, 424489, Note_off_c, 0, 66, 59
1, 424674, Control_c, 0, 64, 91
1, 424689, Control_c, 0, 64, 58
1, 424701, Note_on_c, 0, 35, 83
1, 424704, Control_c, 0, 64, 0
1, 424719, Control_c, 0, 64, 37
1, 424734, Control_c, 0, 64, 61
1, 424748, Control_c, 0, 64, 79
1, 424753, Note_off_c, 0, 35, 63
1, 424756, Note_on_c, 0, 47, 81
1, 424763, Control_c, 0, 64, 127
1, 424777, Note_off_c, 0, 47, 67
1, 424802, Note_on_c, 0, 59, 84
1, 424844, Note_on_c, 0, 63, 76
1, 424899, Note_on_c, 0, 66, 87
1, 424940, Note_on_c, 0, 71, 87
1, 425007, Note_on_c, 0, 83, 98
1, 425090, Note_off_c, 0, 83, 55
1, 425189, Note_off_c, 0, 59, 62
1, 425241, Note_off_c, 0, 71, 53
1, 425334, Note_off_c, 0, 63, 52
1, 425368, Note_off_c, 0, 66, 58
1, 425764, Control_c, 0, 64, 98
1, 425778, Control_c, 0, 64, 61
1, 425789, Note_on_c, 0, 34, 89
1, 425793, Control_c, 0, 64, 33
1, 425808, Control_c, 0, 64, 42
1, 425823, Control_c, 0, 64, 60
1, 425838, Note_on_c, 0, 46, 88
1, 425838, Control_c, 0, 64, 78
1, 425853, Note_off_c, 0, 34, 64
1, 425853, Control_c, 0, 64, 127
1, 425868, Note_off_c, 0, 46, 70
1, 425896, Note_on_c, 0, 54, 81
1, 425945, Note_on_c, 0, 59, 74
1, 425987, Note_on_c, 0, 63, 81
1, 426031, Note_on_c, 0, 66, 89
1, 426092, Note_on_c, 0, 78, 98
1, 426136, Note_off_c, 0, 78, 60
1, 426253, Note_off_c, 0, 54, 57
1, 426436, Note_off_c, 0, 59, 46
1, 426517, Note_off_c, 0, 63, 55
1, 426920, Control_c, 0, 64, 85
1, 426932, Note_off_c, 0, 66, 59
1, 426934, Control_c, 0, 64, 55
1, 426939, Note_on_c, 0, 32, 84
1, 426949, Control_c, 0, 64, 32
1, 426964, Control_c, 0, 64, 45
1, 426979, Control_c, 0, 64, 65
1, 426986, Note_on_c, 0, 44, 79
1, 426993, Control_c, 0, 64, 90
1, 427000, Note_off_c, 0, 32, 61
1, 427008, Control_c, 0, 64, 127
1, 427012, Note_off_c, 0, 44, 66
1, 427048, Note_on_c, 0, 56, 73
1, 427084, Note_on_c, 0, 59, 73
1, 427120, Note_on_c, 0, 63, 76
1, 427163, Note_on_c, 0, 68, 79
1, 427203, Note_off_c, 0, 56, 52
1, 427207, Note_off_c, 0, 59, 53
1, 427227, Note_on_c, 0, 80, 93
1, 427267, Note_off_c, 0, 80, 61
1, 427525, Note_off_c, 0, 63, 54
1, 427566, Note_off_c, 0, 68, 52
1, 428083, Control_c, 0, 64, 77
1, 428098, Control_c, 0, 64, 37
1, 428112, Note_on_c, 0, 30, 85
1, 428121, Control_c, 0, 64, 0
1, 428135, Control_c, 0, 64, 42
1, 428150, Control_c, 0, 64, 64
1, 428165, Control_c, 0, 64, 87
1, 428170, Note_on_c, 0, 42, 85
1, 428180, Control_c, 0, 64, 127
1, 428184, Note_off_c, 0, 30, 63
1, 428194, Note_off_c, 0, 42, 67
1, 428223, Note_on_c, 0, 58, 83
1, 428270, Note_on_c, 0, 63, 82
1, 428315, Note_on_c, 0, 66, 85
1, 428350, Note_on_c, 0, 70, 85
1, 428411, Note_on_c, 0, 82, 96
1, 428450, Note_off_c, 0, 82, 63
1, 428658, Note_off_c, 0, 58, 59
1, 428668, Note_off_c, 0, 70, 58
1, 428792, Note_off_c, 0, 63, 51
1, 428801, Note_off_c, 0, 66, 60
1, 429225, Control_c, 0, 64, 93
1, 429240, Control_c, 0, 64, 64
1, 429251, Note_on_c, 0, 29, 80
1, 429254, Control_c, 0, 64, 46
1, 429269, Control_c, 0, 64, 52
1, 429284, Control_c, 0, 64, 63
1, 429299, Control_c, 0, 64, 78
1, 429302, Note_on_c, 0, 41, 81
1, 429308, Note_off_c, 0, 29, 63
1, 429314, Control_c, 0, 64, 127
1, 429325, Note_off_c, 0, 41, 68
1, 429361, Note_on_c, 0, 51, 79
1, 429408, Note_on_c, 0, 56, 74
1, 429453, Note_on_c, 0, 58, 78
1, 429502, Note_on_c, 0, 63, 79
1, 429559, Note_on_c, 0, 75, 87
1, 429615, Note_off_c, 0, 75, 61
1, 429841, Note_off_c, 0, 51, 56
1, 429971, Note_off_c, 0, 56, 50
1, 430009, Note_off_c, 0, 58, 60
1, 430493, Note_on_c, 0, 27, 76
1, 430555, Note_on_c, 0, 39, 75
1, 430560, Control_c, 0, 64, 77
1, 430575, Control_c, 0, 64, 54
1, 430590, Control_c, 0, 64, 0
1, 430602, Note_on_c, 0, 51, 67
1, 430619, Control_c, 0, 64, 44
1, 430634, Control_c, 0, 64, 61
1, 430649, Note_on_c, 0, 54, 68
1, 430649, Control_c, 0, 64, 73
1, 430664, Control_c, 0, 64, 89
1, 430678, Control_c, 0, 64, 113
1, 430689, Note_on_c, 0, 58, 75
1, 430693, Control_c, 0, 64, 127
1, 430745, Note_off_c, 0, 51, 34
1, 430822, Note_off_c, 0, 63, 60
1, 430842, Note_off_c, 0, 54, 46
1, 430880, Note_off_c, 0, 58, 59
1, 431050, Note_off_c, 0, 27, 56
1, 431123, Note_off_c, 0, 39, 59
1, 431710, Control_c, 0, 64, 90
1, 431724, Control_c, 0, 64, 60
1, 431739, Control_c, 0, 64, 42
1, 431747, Note_on_c, 0, 39, 85
1, 431754, Control_c, 0, 64, 53
1, 431769, Control_c, 0, 64, 69
1, 431783, Control_c, 0, 64, 97
1, 431798, Control_c, 0, 64, 127
1, 431811, Note_on_c, 0, 51, 80
1, 431813, Note_off_c, 0, 39, 61
1, 431834, Note_off_c, 0, 51, 66
1, 431864, Note_on_c, 0, 63, 86
1, 431904, Note_on_c, 0, 66, 83
1, 431953, Note_on_c, 0, 70, 85
1, 431993, Note_on_c, 0, 75, 96
1, 432046, Note_on_c, 0, 87, 101
1, 432095, Note_off_c, 0, 87, 62
1, 432311, Note_off_c, 0, 63, 59
1, 432382, Note_off_c, 0, 75, 57
1, 432444, Note_off_c, 0, 66, 57
1, 432473, Note_off_c, 0, 70, 60
1, 432746, Control_c, 0, 64, 82
1, 432761, Control_c, 0, 64, 56
1, 432769, Note_on_c, 0, 37, 81
1, 432776, Control_c, 0, 64, 43
1, 432791, Control_c, 0, 64, 57
1, 432805, Control_c, 0, 64, 71
1, 432820, Control_c, 0, 64, 107
1, 432834, Note_on_c, 0, 49, 87
1, 432835, Control_c, 0, 64, 127
1, 432849, Note_off_c, 0, 37, 62
1, 432854, Note_off_c, 0, 49, 68
1, 432892, Note_on_c, 0, 58, 86
1, 432933, Note_on_c, 0, 63, 80
1, 432980, Note_on_c, 0, 66, 86
1, 432995, Poly_aftertouch_c, 0, 49, 0
1, 433020, Note_on_c, 0, 70, 85
1, 433089, Note_on_c, 0, 82, 105
1, 433151, Note_on_c, 0, 83, 7
1, 433153, Note_off_c, 0, 82, 61
1, 433206, Note_off_c, 0, 83, 34
1, 433312, Note_off_c, 0, 58, 58
1, 433600, Note_off_c, 0, 66, 59
1, 433604, Note_off_c, 0, 63, 38
1, 433663, Note_off_c, 0, 70, 47
1, 433988, Note_on_c, 0, 59, 68
1, 434037, Note_on_c, 0, 63, 67
1, 434074, Note_on_c, 0, 66, 79
1, 434125, Note_on_c, 0, 71, 86
1, 434156, Note_on_c, 0, 83, 90
1, 434208, Note_off_c, 0, 59, 60
1, 434210, Note_off_c, 0, 83, 68
1, 434322, Note_off_c, 0, 71, 56
1, 434333, Note_off_c, 0, 63, 53
1, 434379, Note_off_c, 0, 66, 62
1, 434634, Note_on_c, 0, 35, 79
1, 434639, Note_on_c, 0, 47, 85
1, 434704, Note_off_c, 0, 47, 61
1, 434717, Note_off_c, 0, 35, 60
1, 434823, Control_c, 0, 64, 84
1, 434838, Control_c, 0, 64, 44
1, 434840, Note_on_c, 0, 34, 87
1, 434861, Control_c, 0, 64, 29
1, 434875, Control_c, 0, 64, 49
1, 434890, Control_c, 0, 64, 68
1, 434900, Note_on_c, 0, 46, 86
1, 434905, Control_c, 0, 64, 103
1, 434909, Note_off_c, 0, 34, 63
1, 434920, Control_c, 0, 64, 127
1, 434921, Note_off_c, 0, 46, 66
1, 434954, Note_on_c, 0, 54, 78
1, 434996, Note_on_c, 0, 59, 72
1, 435037, Note_on_c, 0, 63, 82
1, 435077, Note_on_c, 0, 66, 90
1, 435145, Note_on_c, 0, 78, 99
1, 435206, Note_off_c, 0, 78, 60
1, 435275, Note_off_c, 0, 54, 56
1, 435435, Note_off_c, 0, 59, 38
1, 435551, Note_off_c, 0, 63, 46
1, 435910, Note_off_c, 0, 66, 48
1, 436071, Note_on_c, 0, 56, 69
1, 436131, Note_off_c, 0, 56, 61
1, 436136, Note_on_c, 0, 59, 68
1, 436180, Note_on_c, 0, 63, 72
1, 436226, Note_on_c, 0, 68, 76
1, 436247, Note_on_c, 0, 80, 85
1, 436268, Note_off_c, 0, 59, 50
1, 436308, Note_off_c, 0, 80, 66
1, 436538, Note_off_c, 0, 68, 57
1, 436561, Note_off_c, 0, 63, 57
1, 436763, Note_on_c, 0, 32, 81
1, 436766, Note_on_c, 0, 44, 82
1, 436836, Note_off_c, 0, 44, 60
1, 436849, Note_off_c, 0, 32, 60
1, 436951, Control_c, 0, 64, 65
1, 436965, Control_c, 0, 64, 0
1, 436968, Note_on_c, 0, 30, 86
1, 436995, Control_c, 0, 64, 41
1, 437010, Control_c, 0, 64, 67
1, 437022, Note_on_c, 0, 42, 88
1, 437025, Control_c, 0, 64, 97
1, 437037, Note_off_c, 0, 30, 64
1, 437039, Control_c, 0, 64, 127
1, 437048, Note_off_c, 0, 42, 68
1, 437102, Note_on_c, 0, 58, 84
1, 437145, Note_on_c, 0, 63, 76
1, 437191, Note_on_c, 0, 66, 82
1, 437232, Note_on_c, 0, 70, 89
1, 437310, Note_on_c, 0, 82, 104
1, 437360, Note_off_c, 0, 82, 60
1, 437489, Note_off_c, 0, 70, 58
1, 437534, Note_off_c, 0, 66, 62
1, 437535, Note_off_c, 0, 58, 45
1, 437552, Note_off_c, 0, 63, 56
1, 438263, Note_on_c, 0, 51, 65
1, 438322, Note_on_c, 0, 56, 64
1, 438363, Note_on_c, 0, 58, 70
1, 438422, Note_on_c, 0, 75, 86
1, 438423, Note_on_c, 0, 63, 79
1, 438496, Note_off_c, 0, 75, 64
1, 438679, Note_off_c, 0, 51, 51
1, 438928, Note_on_c, 0, 41, 78
1, 438928, Note_off_c, 0, 56, 50
1, 438937, Note_on_c, 0, 29, 72
1, 438948, Note_off_c, 0, 58, 60
1, 439022, Note_off_c, 0, 41, 64
1, 439054, Note_off_c, 0, 29, 60
1, 439270, Note_on_c, 0, 27, 72
1, 439329, Control_c, 0, 64, 90
1, 439349, Note_on_c, 0, 39, 73
1, 439351, Control_c, 0, 64, 63
1, 439365, Control_c, 0, 64, 37
1, 439380, Control_c, 0, 64, 0
1, 439410, Note_on_c, 0, 51, 68
1, 439410, Control_c, 0, 64, 43
1, 439425, Control_c, 0, 64, 60
1, 439440, Control_c, 0, 64, 67
1, 439455, Control_c, 0, 64, 73
1, 439470, Control_c, 0, 64, 78
1, 439474, Note_on_c, 0, 54, 66
1, 439485, Control_c, 0, 64, 83
1, 439499, Control_c, 0, 64, 92
1, 439512, Note_off_c, 0, 51, 57
1, 439514, Control_c, 0, 64, 109
1, 439524, Note_on_c, 0, 58, 74
1, 439529, Control_c, 0, 64, 127
1, 439687, Note_off_c, 0, 63, 53
1, 439727, Note_off_c, 0, 54, 50
1, 439774, Note_off_c, 0, 58, 56
1, 439927, Note_off_c, 0, 27, 60
1, 439986, Note_off_c, 0, 39, 61
1, 440427, Control_c, 0, 64, 73
1, 440442, Control_c, 0, 64, 40
1, 440450, Note_on_c, 0, 51, 86
1, 440457, Control_c, 0, 64, 31
1, 440472, Control_c, 0, 64, 54
1, 440486, Control_c, 0, 64, 75
1, 440501, Control_c, 0, 64, 127
1, 440511, Note_on_c, 0, 63, 91
1, 440525, Note_off_c, 0, 51, 64
1, 440534, Note_off_c, 0, 63, 68
1, 440581, Note_on_c, 0, 66, 89
1, 440638, Note_on_c, 0, 70, 87
1, 440714, Note_on_c, 0, 78, 90
1, 440790, Note_on_c, 0, 90, 111
1, 440842, Note_off_c, 0, 90, 66
1, 441094, Note_off_c, 0, 66, 62
1, 441151, Note_off_c, 0, 78, 53
1, 441205, Note_off_c, 0, 70, 53
1, 441502, Control_c, 0, 64, 79
1, 441517, Control_c, 0, 64, 49
1, 441529, Note_on_c, 0, 47, 84
1, 441532, Control_c, 0, 64, 0
1, 441547, Control_c, 0, 64, 27
1, 441561, Control_c, 0, 64, 50
1, 441576, Control_c, 0, 64, 69
1, 441589, Note_off_c, 0, 47, 65
1, 441589, Note_on_c, 0, 59, 83
1, 441598, Control_c, 0, 64, 98
1, 441612, Note_off_c, 0, 59, 69
1, 441613, Control_c, 0, 64, 127
1, 441625, Note_on_c, 0, 63, 77
1, 441661, Note_on_c, 0, 65, 78
1, 441708, Note_on_c, 0, 68, 78
1, 441751, Note_on_c, 0, 75, 93
1, 441813, Note_on_c, 0, 87, 104
1, 441851, Note_off_c, 0, 87, 67
1, 441979, Note_off_c, 0, 63, 60
1, 442042, Note_off_c, 0, 65, 48
1, 442164, Note_off_c, 0, 68, 49
1, 442540, Control_c, 0, 64, 118
1, 442555, Control_c, 0, 64, 66
1, 442570, Control_c, 0, 64, 29
1, 442584, Note_on_c, 0, 46, 85
1, 442584, Control_c, 0, 64, 27
1, 442599, Control_c, 0, 64, 56
1, 442605, Note_off_c, 0, 75, 55
1, 442614, Control_c, 0, 64, 73
1, 442629, Control_c, 0, 64, 127
1, 442635, Note_on_c, 0, 58, 85
1, 442643, Note_off_c, 0, 46, 63
1, 442656, Note_off_c, 0, 58, 70
1, 442704, Note_on_c, 0, 63, 75
1, 442740, Note_on_c, 0, 66, 79
1, 442787, Note_on_c, 0, 70, 77
1, 442825, Note_on_c, 0, 75, 84
1, 442881, Note_on_c, 0, 87, 95
1, 442925, Note_off_c, 0, 87, 64
1, 443045, Note_off_c, 0, 63, 56
1, 443166, Note_off_c, 0, 66, 53
1, 443220, Note_off_c, 0, 70, 62
1, 443754, Note_on_c, 0, 44, 64
1, 443778, Control_c, 0, 64, 86
1, 443793, Control_c, 0, 64, 64
1, 443804, Note_on_c, 0, 56, 74
1, 443808, Control_c, 0, 64, 48
1, 443823, Control_c, 0, 64, 44
1, 443845, Control_c, 0, 64, 52
1, 443860, Control_c, 0, 64, 63
1, 443875, Control_c, 0, 64, 76
1, 443878, Note_on_c, 0, 63, 69
1, 443889, Control_c, 0, 64, 101
1, 443904, Control_c, 0, 64, 127
1, 443925, Note_on_c, 0, 65, 72
1, 443983, Note_off_c, 0, 63, 49
1, 444004, Note_on_c, 0, 71, 76
1, 444027, Note_off_c, 0, 65, 57
1, 444084, Note_off_c, 0, 75, 59
1, 444156, Note_off_c, 0, 71, 58
1, 444397, Note_off_c, 0, 56, 60
1, 444511, Note_off_c, 0, 44, 54
1, 444698, Control_c, 0, 64, 96
1, 444712, Control_c, 0, 64, 62
1, 444727, Control_c, 0, 64, 40
1, 444739, Note_on_c, 0, 43, 87
1, 444742, Control_c, 0, 64, 51
1, 444757, Control_c, 0, 64, 64
1, 444772, Control_c, 0, 64, 87
1, 444786, Control_c, 0, 64, 127
1, 444789, Note_on_c, 0, 55, 76
1, 444789, Note_off_c, 0, 43, 63
1, 444813, Note_off_c, 0, 55, 67
1, 444834, Note_on_c, 0, 64, 81
1, 444878, Note_on_c, 0, 70, 82
1, 444931, Note_on_c, 0, 73, 82
1, 444975, Note_on_c, 0, 76, 85
1, 445038, Note_on_c, 0, 88, 100
1, 445113, Note_off_c, 0, 88, 62
1, 445199, Note_off_c, 0, 64, 62
1, 445287, Note_off_c, 0, 76, 56
1, 445411, Note_off_c, 0, 70, 55
1, 445414, Note_off_c, 0, 73, 54
1, 445728, Control_c, 0, 64, 94
1, 445742, Control_c, 0, 64, 58
1, 445757, Control_c, 0, 64, 0
1, 445776, Note_on_c, 0, 45, 81
1, 445787, Control_c, 0, 64, 44
1, 445801, Control_c, 0, 64, 65
1, 445816, Control_c, 0, 64, 83
1, 445823, Note_on_c, 0, 57, 91
1, 445831, Note_off_c, 0, 45, 64
1, 445831, Control_c, 0, 64, 127
1, 445846, Note_off_c, 0, 57, 70
1, 445872, Note_on_c, 0, 61, 80
1, 445910, Note_on_c, 0, 63, 87
1, 445956, Note_on_c, 0, 66, 84
1, 445991, Note_on_c, 0, 73, 85
1, 446060, Note_on_c, 0, 85, 103
1, 446106, Note_off_c, 0, 85, 65
1, 446263, Note_off_c, 0, 61, 60
1, 446371, Note_off_c, 0, 63, 52
1, 446416, Note_off_c, 0, 66, 54
1, 446871, Control_c, 0, 64, 82
1, 446886, Control_c, 0, 64, 54
1, 446899, Note_on_c, 0, 44, 74
1, 446901, Control_c, 0, 64, 39
1, 446915, Control_c, 0, 64, 50
1, 446930, Control_c, 0, 64, 64
1, 446938, Note_off_c, 0, 73, 56
1, 446945, Control_c, 0, 64, 78
1, 446947, Note_on_c, 0, 56, 81
1, 446960, Control_c, 0, 64, 127
1, 446964, Note_off_c, 0, 44, 63
1, 446974, Note_off_c, 0, 56, 68
1, 447016, Note_on_c, 0, 61, 73
1, 447063, Note_on_c, 0, 64, 73
1, 447098, Note_on_c, 0, 68, 73
1, 447135, Note_on_c, 0, 73, 80
1, 447196, Note_on_c, 0, 85, 90
1, 447241, Note_off_c, 0, 85, 61
1, 447375, Note_off_c, 0, 61, 46
1, 447491, Note_off_c, 0, 64, 38
1, 447521, Note_off_c, 0, 68, 60
1, 448148, Note_on_c, 0, 42, 64
1, 448167, Control_c, 0, 64, 84
1, 448181, Control_c, 0, 64, 63
1, 448196, Control_c, 0, 64, 46
1, 448204, Note_on_c, 0, 54, 67
1, 448211, Control_c, 0, 64, 48
1, 448226, Control_c, 0, 64, 58
1, 448241, Control_c, 0, 64, 66
1, 448255, Control_c, 0, 64, 79
1, 448262, Note_on_c, 0, 61, 65
1, 448270, Control_c, 0, 64, 105
1, 448285, Control_c, 0, 64, 127
1, 448335, Note_on_c, 0, 63, 75
1, 448344, Note_off_c, 0, 61, 62
1, 448387, Note_off_c, 0, 63, 63
1, 448398, Note_on_c, 0, 69, 68
1, 448547, Note_off_c, 0, 73, 47
1, 448562, Note_off_c, 0, 69, 54
1, 448888, Note_off_c, 0, 54, 50
1, 449007, Note_off_c, 0, 42, 57
1, 449190, Control_c, 0, 64, 89
1, 449205, Control_c, 0, 64, 58
1, 449220, Control_c, 0, 64, 36
1, 449223, Note_on_c, 0, 41, 84
1, 449235, Control_c, 0, 64, 42
1, 449250, Control_c, 0, 64, 57
1, 449265, Control_c, 0, 64, 73
1, 449271, Note_on_c, 0, 53, 88
1, 449280, Control_c, 0, 64, 127
1, 449280, Note_off_c, 0, 41, 65
1, 449292, Note_off_c, 0, 53, 71
1, 449336, Note_on_c, 0, 62, 82
1, 449401, Note_on_c, 0, 68, 80
1, 449491, Note_on_c, 0, 74, 82
1, 449542, Note_on_c, 0, 86, 99
1, 449651, Note_off_c, 0, 86, 63
1, 449935, Note_off_c, 0, 62, 57
1, 450022, Note_on_c, 0, 83, 84
1, 450039, Note_on_c, 0, 71, 77
1, 450055, Note_off_c, 0, 83, 67
1, 450067, Note_off_c, 0, 74, 51
1, 450123, Note_off_c, 0, 68, 51
1, 450152, Note_off_c, 0, 71, 60
1, 450266, Control_c, 0, 64, 106
1, 450281, Control_c, 0, 64, 66
1, 450284, Note_on_c, 0, 42, 86
1, 450296, Control_c, 0, 64, 42
1, 450325, Control_c, 0, 64, 56
1, 450340, Control_c, 0, 64, 71
1, 450341, Note_off_c, 0, 42, 63
1, 450354, Note_on_c, 0, 54, 74
1, 450355, Control_c, 0, 64, 125
1, 450370, Control_c, 0, 64, 127
1, 450380, Note_off_c, 0, 54, 67
1, 450404, Note_on_c, 0, 63, 75
1, 450460, Note_on_c, 0, 70, 80
1, 450553, Note_on_c, 0, 82, 95
1, 450588, Note_off_c, 0, 82, 59
1, 450892, Note_off_c, 0, 63, 55
1, 451012, Note_off_c, 0, 70, 53
1, 451221, Control_c, 0, 64, 65
1, 451236, Control_c, 0, 64, 0
1, 451240, Note_on_c, 0, 38, 84
1, 451265, Control_c, 0, 64, 49
1, 451280, Control_c, 0, 64, 70
1, 451287, Note_on_c, 0, 50, 87
1, 451295, Control_c, 0, 64, 96
1, 451297, Note_off_c, 0, 38, 62
1, 451310, Note_off_c, 0, 50, 72
1, 451310, Control_c, 0, 64, 127
1, 451346, Note_on_c, 0, 59, 81
1, 451394, Note_on_c, 0, 65, 74
1, 451462, Note_on_c, 0, 71, 86
1, 451544, Note_on_c, 0, 83, 98
1, 451612, Note_off_c, 0, 83, 60
1, 451873, Note_off_c, 0, 59, 58
1, 452039, Note_off_c, 0, 71, 58
1, 452040, Note_on_c, 0, 80, 81
1, 452049, Note_on_c, 0, 68, 68
1, 452086, Note_off_c, 0, 80, 66
1, 452087, Note_off_c, 0, 65, 58
1, 452304, Control_c, 0, 64, 70
1, 452318, Control_c, 0, 64, 45
1, 452332, Note_on_c, 0, 39, 83
1, 452333, Control_c, 0, 64, 39
1, 452348, Control_c, 0, 64, 55
1, 452363, Control_c, 0, 64, 68
1, 452378, Control_c, 0, 64, 91
1, 452380, Note_on_c, 0, 51, 79
1, 452389, Note_off_c, 0, 39, 60
1, 452392, Control_c, 0, 64, 127
1, 452398, Note_off_c, 0, 68, 0
1, 452406, Note_off_c, 0, 51, 66
1, 452423, Note_on_c, 0, 68, 13
1, 452449, Note_on_c, 0, 59, 73
1, 452494, Note_on_c, 0, 66, 76
1, 452497, Note_off_c, 0, 68, 54
1, 452583, Note_on_c, 0, 78, 87
1, 452616, Note_off_c, 0, 78, 53
1, 452843, Note_off_c, 0, 59, 38
1, 453069, Note_off_c, 0, 66, 55
1, 453289, Control_c, 0, 64, 88
1, 453298, Note_on_c, 0, 34, 88
1, 453304, Control_c, 0, 64, 53
1, 453319, Control_c, 0, 64, 0
1, 453334, Control_c, 0, 64, 29
1, 453349, Control_c, 0, 64, 51
1, 453364, Control_c, 0, 64, 67
1, 453367, Note_on_c, 0, 46, 77
1, 453378, Note_off_c, 0, 34, 63
1, 453379, Control_c, 0, 64, 84
1, 453393, Control_c, 0, 64, 127
1, 453395, Note_off_c, 0, 46, 67
1, 453423, Note_on_c, 0, 56, 70
1, 453504, Note_on_c, 0, 62, 70
1, 453549, Note_off_c, 0, 56, 58
1, 453623, Note_on_c, 0, 68, 77
1, 453735, Note_on_c, 0, 80, 92
1, 453832, Note_off_c, 0, 80, 57
1, 454173, Note_off_c, 0, 68, 29
1, 454256, Note_on_c, 0, 76, 76
1, 454271, Note_on_c, 0, 64, 65
1, 454297, Note_off_c, 0, 76, 63
1, 454323, Note_off_c, 0, 62, 57
1, 454374, Note_off_c, 0, 64, 65
1, 454579, Control_c, 0, 64, 89
1, 454594, Control_c, 0, 64, 60
1, 454604, Note_on_c, 0, 35, 75
1, 454609, Control_c, 0, 64, 38
1, 454623, Control_c, 0, 64, 48
1, 454635, Note_off_c, 0, 35, 67
1, 454638, Control_c, 0, 64, 66
1, 454640, Note_on_c, 0, 47, 75
1, 454653, Control_c, 0, 64, 89
1, 454663, Note_off_c, 0, 47, 67
1, 454668, Control_c, 0, 64, 127
1, 454677, Note_on_c, 0, 56, 69
1, 454734, Note_on_c, 0, 63, 79
1, 454842, Note_on_c, 0, 73, 65
1, 454860, Note_off_c, 0, 73, 66
1, 455293, Note_off_c, 0, 56, 62
1, 455356, Note_off_c, 0, 63, 60
1, 455581, Control_c, 0, 64, 82
1, 455595, Control_c, 0, 64, 54
1, 455610, Control_c, 0, 64, 32
1, 455618, Note_on_c, 0, 34, 81
1, 455625, Control_c, 0, 64, 45
1, 455640, Control_c, 0, 64, 62
1, 455655, Control_c, 0, 64, 82
1, 455669, Note_on_c, 0, 46, 76
1, 455669, Control_c, 0, 64, 127
1, 455680, Note_off_c, 0, 34, 63
1, 455697, Note_off_c, 0, 46, 63
1, 455719, Note_on_c, 0, 55, 74
1, 455781, Note_on_c, 0, 61, 73
1, 455858, Note_on_c, 0, 63, 79
1, 455962, Note_on_c, 0, 75, 91
1, 456011, Note_off_c, 0, 75, 62
1, 456288, Note_off_c, 0, 55, 36
1, 456507, Note_off_c, 0, 61, 59
1, 456982, Note_on_c, 0, 59, 79
1, 456987, Note_on_c, 0, 56, 81
1, 456992, Note_on_c, 0, 44, 84
1, 456998, Note_on_c, 0, 32, 78
1, 457078, Control_c, 0, 64, 83
1, 457094, Control_c, 0, 64, 58
1, 457108, Control_c, 0, 64, 35
1, 457123, Control_c, 0, 64, 0
1, 457138, Control_c, 0, 64, 31
1, 457153, Control_c, 0, 64, 51
1, 457168, Control_c, 0, 64, 68
1, 457182, Control_c, 0, 64, 103
1, 457197, Control_c, 0, 64, 127
1, 457283, Note_off_c, 0, 56, 61
1, 457356, Note_off_c, 0, 59, 53
1, 457393, Note_off_c, 0, 63, 59
1, 457446, Note_off_c, 0, 44, 61
1, 457509, Note_off_c, 0, 32, 53
1, 457738, Control_c, 0, 64, 71
1, 457753, Control_c, 0, 64, 42
1, 457762, Note_on_c, 0, 30, 86
1, 457767, Control_c, 0, 64, 34
1, 457782, Control_c, 0, 64, 54
1, 457797, Control_c, 0, 64, 76
1, 457812, Control_c, 0, 64, 127
1, 457817, Note_on_c, 0, 42, 91
1, 457831, Note_off_c, 0, 30, 63
1, 457841, Note_off_c, 0, 42, 70
1, 457853, Note_on_c, 0, 54, 79
1, 457889, Note_on_c, 0, 59, 73
1, 457942, Note_on_c, 0, 63, 79
1, 457979, Note_on_c, 0, 61, 56
1, 457987, Note_on_c, 0, 66, 92
1, 458011, Note_off_c, 0, 61, 65
1, 458045, Note_on_c, 0, 78, 105
1, 458083, Note_off_c, 0, 78, 64
1, 458297, Note_off_c, 0, 54, 55
1, 458447, Note_off_c, 0, 59, 55
1, 458452, Note_off_c, 0, 66, 55
1, 458521, Note_off_c, 0, 63, 52
1, 458768, Note_on_c, 0, 30, 87
1, 458828, Note_on_c, 0, 42, 95
1, 458843, Note_off_c, 0, 30, 64
1, 458856, Note_off_c, 0, 42, 69
1, 458891, Note_on_c, 0, 58, 85
1, 458941, Note_on_c, 0, 59, 73
1, 458984, Note_on_c, 0, 63, 83
1, 459056, Note_on_c, 0, 70, 83
1, 459096, Note_on_c, 0, 82, 111
1, 459108, Note_on_c, 0, 66, 26
1, 459116, Note_on_c, 0, 83, 75
1, 459130, Note_off_c, 0, 83, 69
1, 459143, Note_off_c, 0, 82, 57
1, 459144, Note_off_c, 0, 66, 54
1, 459333, Note_off_c, 0, 58, 53
1, 459373, Note_off_c, 0, 70, 54
1, 459488, Note_off_c, 0, 59, 53
1, 459561, Note_off_c, 0, 63, 57
1, 459828, Note_on_c, 0, 27, 95
1, 459883, Note_on_c, 0, 39, 88
1, 459893, Note_off_c, 0, 27, 63
1, 459908, Note_off_c, 0, 39, 66
1, 459933, Note_on_c, 0, 56, 79
1, 459973, Note_on_c, 0, 59, 74
1, 460036, Note_on_c, 0, 66, 82
1, 460072, Note_on_c, 0, 63, 50
1, 460089, Note_on_c, 0, 68, 86
1, 460105, Note_off_c, 0, 63, 64
1, 460157, Note_on_c, 0, 80, 101
1, 460215, Note_off_c, 0, 80, 62
1, 460444, Note_off_c, 0, 56, 56
1, 460610, Note_off_c, 0, 59, 51
1, 460724, Note_off_c, 0, 66, 54
1, 461117, Note_on_c, 0, 65, 79
1, 461122, Note_on_c, 0, 56, 81
1, 461126, Note_on_c, 0, 41, 91
1, 461129, Note_on_c, 0, 59, 76
1, 461134, Note_on_c, 0, 29, 82
1, 461186, Control_c, 0, 64, 104
1, 461201, Control_c, 0, 64, 65
1, 461215, Control_c, 0, 64, 0
1, 461260, Control_c, 0, 64, 30
1, 461275, Control_c, 0, 64, 59
1, 461290, Control_c, 0, 64, 71
1, 461305, Control_c, 0, 64, 88
1, 461320, Control_c, 0, 64, 127
1, 461373, Note_off_c, 0, 56, 63
1, 461385, Poly_aftertouch_c, 0, 62, 127
1, 461409, Note_off_c, 0, 68, 54
1, 461439, Note_off_c, 0, 59, 55
1, 461454, Note_off_c, 0, 65, 57
1, 461469, Note_off_c, 0, 29, 58
1, 461480, Poly_aftertouch_c, 0, 62, 0
1, 461496, Note_off_c, 0, 41, 60
1, 461793, Control_c, 0, 64, 108
1, 461815, Control_c, 0, 64, 62
1, 461829, Control_c, 0, 64, 0
1, 461840, Note_on_c, 0, 30, 92
1, 461859, Control_c, 0, 64, 52
1, 461874, Control_c, 0, 64, 75
1, 461890, Control_c, 0, 64, 127
1, 461891, Note_on_c, 0, 29, 36
1, 461895, Note_on_c, 0, 42, 91
1, 461907, Note_off_c, 0, 30, 64
1, 461919, Note_off_c, 0, 42, 70
1, 461934, Note_on_c, 0, 56, 83
1, 461939, Note_off_c, 0, 29, 42
1, 461977, Note_on_c, 0, 59, 72
1, 462024, Note_on_c, 0, 63, 84
1, 462077, Note_on_c, 0, 68, 92
1, 462133, Note_on_c, 0, 80, 111
1, 462171, Note_off_c, 0, 80, 65
1, 462300, Note_off_c, 0, 56, 61
1, 462423, Note_off_c, 0, 59, 56
1, 462433, Note_off_c, 0, 68, 54
1, 462471, Note_off_c, 0, 63, 61
1, 462846, Control_c, 0, 64, 71
1, 462855, Note_on_c, 0, 28, 94
1, 462861, Control_c, 0, 64, 36
1, 462876, Control_c, 0, 64, 0
1, 462891, Control_c, 0, 64, 46
1, 462906, Control_c, 0, 64, 71
1, 462917, Note_on_c, 0, 40, 93
1, 462920, Control_c, 0, 64, 127
1, 462925, Note_off_c, 0, 28, 64
1, 462941, Note_off_c, 0, 40, 69
1, 462969, Note_on_c, 0, 59, 86
1, 463016, Note_on_c, 0, 61, 84
1, 463081, Note_on_c, 0, 67, 81
1, 463141, Note_on_c, 0, 71, 93
1, 463197, Note_on_c, 0, 83, 105
1, 463257, Note_off_c, 0, 83, 65
1, 463394, Note_off_c, 0, 59, 60
1, 463496, Note_off_c, 0, 71, 53
1, 463556, Note_off_c, 0, 61, 57
1, 463583, Note_off_c, 0, 67, 58
1, 463907, Control_c, 0, 64, 90
1, 463920, Note_on_c, 0, 25, 91
1, 463921, Control_c, 0, 64, 51
1, 463936, Control_c, 0, 64, 33
1, 463951, Control_c, 0, 64, 52
1, 463966, Control_c, 0, 64, 69
1, 463981, Control_c, 0, 64, 127
1, 463988, Note_on_c, 0, 37, 95
1, 464003, Note_off_c, 0, 25, 63
1, 464014, Note_off_c, 0, 37, 68
1, 464040, Note_on_c, 0, 58, 92
1, 464090, Note_on_c, 0, 64, 76
1, 464146, Note_on_c, 0, 67, 83
1, 464190, Note_on_c, 0, 65, 38
1, 464196, Note_on_c, 0, 70, 90
1, 464223, Note_off_c, 0, 65, 51
1, 464268, Note_on_c, 0, 82, 106
1, 464329, Note_off_c, 0, 82, 60
1, 464639, Note_off_c, 0, 58, 49
1, 464746, Note_off_c, 0, 64, 57
1, 464924, Note_off_c, 0, 67, 33
1, 465252, Note_on_c, 0, 58, 86
1, 465252, Note_on_c, 0, 67, 83
1, 465258, Note_on_c, 0, 63, 81
1, 465259, Note_on_c, 0, 39, 101
1, 465263, Note_on_c, 0, 27, 90
1, 465329, Control_c, 0, 64, 87
1, 465344, Control_c, 0, 64, 55
1, 465359, Control_c, 0, 64, 0
1, 465368, Note_off_c, 0, 70, 57
1, 465403, Control_c, 0, 64, 46
1, 465418, Control_c, 0, 64, 63
1, 465433, Control_c, 0, 64, 75
1, 465447, Control_c, 0, 64, 102
1, 465462, Control_c, 0, 64, 127
1, 465487, Note_off_c, 0, 58, 63
1, 465526, Note_off_c, 0, 67, 57
1, 465550, Note_off_c, 0, 63, 54
1, 465633, Note_off_c, 0, 27, 58
1, 465646, Note_off_c, 0, 39, 56
1, 465974, Control_c, 0, 64, 103
1, 465989, Control_c, 0, 64, 59
1, 465991, Note_on_c, 0, 28, 93
1, 466003, Control_c, 0, 64, 0
1, 466033, Control_c, 0, 64, 37
1, 466048, Control_c, 0, 64, 69
1, 466063, Control_c, 0, 64, 127
1, 466064, Note_on_c, 0, 40, 94
1, 466077, Note_off_c, 0, 28, 64
1, 466089, Note_off_c, 0, 40, 69
1, 466145, Note_on_c, 0, 58, 96
1, 466215, Note_on_c, 0, 61, 89
1, 466298, Note_on_c, 0, 67, 77
1, 466411, Note_on_c, 0, 70, 92
1, 466413, Poly_aftertouch_c, 0, 64, 127
1, 466432, Note_on_c, 0, 82, 110
1, 466472, Poly_aftertouch_c, 0, 64, 0
1, 466491, Note_off_c, 0, 82, 62
1, 466644, Note_off_c, 0, 58, 60
1, 466711, Note_off_c, 0, 70, 54
1, 466742, Note_off_c, 0, 61, 55
1, 466742, Note_off_c, 0, 67, 55
1, 467116, Note_on_c, 0, 23, 100
1, 467131, Control_c, 0, 64, 67
1, 467146, Control_c, 0, 64, 0
1, 467205, Control_c, 0, 64, 42
1, 467220, Control_c, 0, 64, 90
1, 467232, Note_on_c, 0, 35, 102
1, 467234, Control_c, 0, 64, 127
1, 467259, Note_off_c, 0, 23, 63
1, 467280, Note_off_c, 0, 35, 67
1, 467350, Note_on_c, 0, 63, 95
1, 467447, Note_on_c, 0, 69, 83
1, 467713, Note_on_c, 0, 87, 103
1, 467714, Note_on_c, 0, 75, 98
1, 467782, Note_off_c, 0, 87, 64
1, 468188, Note_off_c, 0, 63, 60
1, 468256, Note_off_c, 0, 69, 58
1, 468455, Note_on_c, 0, 35, 90
1, 468516, Control_c, 0, 64, 71
1, 468531, Control_c, 0, 64, 0
1, 468598, Control_c, 0, 64, 48
1, 468599, Note_on_c, 0, 47, 96
1, 468613, Control_c, 0, 64, 76
1, 468628, Control_c, 0, 64, 127
1, 468668, Note_off_c, 0, 35, 63
1, 468697, Note_off_c, 0, 47, 64
1, 468724, Note_on_c, 0, 64, 93
1, 468863, Note_on_c, 0, 68, 89
1, 468908, Note_off_c, 0, 64, 59
1, 468924, Note_off_c, 0, 75, 56
1, 469240, Note_on_c, 0, 90, 102
1, 469256, Note_on_c, 0, 78, 85
1, 469545, Note_off_c, 0, 78, 59
1, 469809, Note_off_c, 0, 90, 56
1, 470098, Note_on_c, 0, 76, 73
1, 470109, Note_on_c, 0, 88, 92
1, 470292, Note_off_c, 0, 88, 62
1, 470307, Note_off_c, 0, 68, 55
1, 470324, Note_off_c, 0, 76, 61
1, 470610, Note_on_c, 0, 63, 59
1, 470668, Note_on_c, 0, 69, 58
1, 470700, Note_on_c, 0, 87, 87
1, 470704, Note_on_c, 0, 75, 71
1, 470748, Note_off_c, 0, 63, 38
1, 470920, Note_off_c, 0, 87, 60
1, 471106, Note_off_c, 0, 75, 54
1, 471317, Note_on_c, 0, 83, 74
1, 471339, Note_on_c, 0, 71, 60
1, 471389, Note_off_c, 0, 83, 63
1, 471409, Note_off_c, 0, 69, 47
1, 471497, Note_off_c, 0, 71, 58
1, 471595, Control_c, 0, 67, 39
1, 471610, Control_c, 0, 67, 53
1, 471624, Control_c, 0, 67, 65
1, 471639, Control_c, 0, 67, 76
1, 471654, Control_c, 0, 67, 86
1, 471669, Control_c, 0, 67, 96
1, 471684, Control_c, 0, 67, 104
1, 471698, Control_c, 0, 67, 114
1, 471713, Control_c, 0, 67, 120
1, 471728, Control_c, 0, 67, 126
1, 471854, Note_on_c, 0, 35, 62
1, 471861, Control_c, 0, 64, 95
1, 471875, Control_c, 0, 64, 70
1, 471890, Control_c, 0, 64, 64
1, 471905, Control_c, 0, 64, 68
1, 471917, Note_on_c, 0, 47, 67
1, 471920, Control_c, 0, 64, 79
1, 471925, Note_off_c, 0, 35, 63
1, 471935, Control_c, 0, 64, 113
1, 471949, Note_off_c, 0, 47, 64
1, 471950, Control_c, 0, 64, 127
1, 471992, Note_on_c, 0, 56, 55
1, 472055, Note_on_c, 0, 62, 58
1, 472057, Note_off_c, 0, 56, 62
1, 472152, Note_on_c, 0, 68, 60
1, 472198, Note_on_c, 0, 80, 86
1, 472247, Note_off_c, 0, 80, 62
1, 472513, Note_off_c, 0, 68, 47
1, 473111, Note_on_c, 0, 77, 67
1, 473134, Note_on_c, 0, 65, 50
1, 473165, Note_off_c, 0, 62, 61
1, 473222, Note_off_c, 0, 77, 61
1, 473237, Note_off_c, 0, 65, 63
1, 474033, Control_c, 0, 64, 79
1, 474048, Control_c, 0, 64, 56
1, 474063, Control_c, 0, 64, 27
1, 474077, Note_on_c, 0, 39, 60
1, 474078, Control_c, 0, 64, 29
1, 474093, Control_c, 0, 64, 46
1, 474108, Control_c, 0, 64, 62
1, 474123, Control_c, 0, 64, 73
1, 474137, Control_c, 0, 64, 98
1, 474144, Note_on_c, 0, 51, 63
1, 474147, Note_off_c, 0, 39, 62
1, 474152, Control_c, 0, 64, 127
1, 474171, Note_off_c, 0, 51, 64
1, 474200, Note_on_c, 0, 54, 56
1, 474275, Note_on_c, 0, 58, 55
1, 474330, Note_on_c, 0, 63, 65
1, 474386, Note_on_c, 0, 75, 83
1, 474412, Note_off_c, 0, 75, 59
1, 474744, Note_off_c, 0, 54, 36
1, 475041, Note_off_c, 0, 58, 34
1, 475902, Note_on_c, 0, 32, 51
1, 475947, Control_c, 0, 64, 96
1, 475962, Control_c, 0, 64, 74
1, 475976, Control_c, 0, 64, 56
1, 475991, Control_c, 0, 64, 36
1, 476006, Control_c, 0, 64, 0
1, 476057, Control_c, 0, 64, 33
1, 476072, Control_c, 0, 64, 45
1, 476087, Control_c, 0, 64, 58
1, 476102, Control_c, 0, 64, 64
1, 476117, Control_c, 0, 64, 68
1, 476120, Note_on_c, 0, 44, 41
1, 476132, Control_c, 0, 64, 71
1, 476147, Control_c, 0, 64, 73
1, 476162, Control_c, 0, 64, 76
1, 476177, Control_c, 0, 64, 81
1, 476191, Control_c, 0, 64, 85
1, 476206, Control_c, 0, 64, 91
1, 476221, Control_c, 0, 64, 99
1, 476235, Control_c, 0, 64, 112
1, 476250, Control_c, 0, 64, 127
1, 476260, Note_off_c, 0, 32, 39
1, 476292, Note_off_c, 0, 44, 60
1, 476320, Note_on_c, 0, 53, 38
1, 476555, Note_on_c, 0, 59, 50
1, 476584, Note_off_c, 0, 63, 36
1, 477163, Note_on_c, 0, 75, 55
1, 477184, Note_on_c, 0, 63, 42
1, 477279, Note_off_c, 0, 75, 57
1, 478508, Note_off_c, 0, 53, 22
1, 478975, Note_off_c, 0, 59, 38
1, 479739, Note_on_c, 0, 58, 29
1, 479747, Note_on_c, 0, 54, 28
1, 479751, Note_on_c, 0, 39, 26
1, 479751, Note_on_c, 0, 27, 33
1, 479830, Control_c, 0, 64, 98
1, 479845, Control_c, 0, 64, 83
1, 479860, Control_c, 0, 64, 71
1, 479874, Control_c, 0, 64, 63
1, 479889, Control_c, 0, 64, 57
1, 479904, Control_c, 0, 64, 53
1, 479919, Control_c, 0, 64, 52
1, 479934, Control_c, 0, 64, 51
1, 479963, Control_c, 0, 64, 50
1, 479978, Control_c, 0, 64, 49
1, 479993, Control_c, 0, 64, 48
1, 480007, Control_c, 0, 64, 47
1, 480037, Control_c, 0, 64, 47
1, 480290, Control_c, 0, 64, 47
1, 480350, Control_c, 0, 64, 48
1, 480394, Control_c, 0, 64, 48
1, 480497, Control_c, 0, 64, 49
1, 480638, Control_c, 0, 64, 49
1, 480697, Control_c, 0, 64, 50
1, 480801, Control_c, 0, 64, 50
1, 480919, Control_c, 0, 64, 51
1, 481083, Control_c, 0, 64, 51
1, 484142, Note_off_c, 0, 54, 26
1, 484166, Note_off_c, 0, 63, 36
1, 484189, Note_off_c, 0, 39, 40
1, 484192, Note_off_c, 0, 58, 37
1, 484208, Note_off_c, 0, 27, 39
1, 484211, Control_c, 0, 64, 51
1, 484242, Control_c, 0, 64, 50
1, 484257, Control_c, 0, 64, 49
1, 484279, Control_c, 0, 64, 48
1, 484294, Control_c, 0, 64, 47
1, 484308, Control_c, 0, 64, 45
1, 484323, Control_c, 0, 64, 43
1, 484338, Control_c, 0, 64, 41
1, 484353, Control_c, 0, 64, 37
1, 484368, Control_c, 0, 64, 34
1, 484383, Control_c, 0, 64, 30
1, 484397, Control_c, 0, 64, 27
1, 484412, Control_c, 0, 64, 0
1, 485294, Control_c, 0, 64, 36
1, 485309, Control_c, 0, 64, 46
1, 485324, Control_c, 0, 64, 55
1, 485339, Control_c, 0, 64, 60
1, 485354, Control_c, 0, 64, 62
1, 485368, Control_c, 0, 64, 65
1, 485383, Control_c, 0, 64, 68
1, 485383, Control_c, 0, 67, 123
1, 485398, Control_c, 0, 64, 73
1, 485398, Control_c, 0, 67, 87
1, 485412, Control_c, 0, 64, 81
1, 485412, Control_c, 0, 67, 48
1, 485427, Control_c, 0, 64, 93
1, 485427, Control_c, 0, 67, 0
1, 485430, Note_on_c, 0, 63, 87
1, 485442, Control_c, 0, 64, 127
1, 485808, Note_off_c, 0, 63, 58
1, 486195, Note_on_c, 0, 63, 71
1, 486220, Note_on_c, 0, 56, 49
1, 486231, Note_on_c, 0, 41, 38
1, 486239, Note_on_c, 0, 47, 38
1, 486310, Control_c, 0, 64, 103
1, 486325, Control_c, 0, 64, 87
1, 486340, Control_c, 0, 64, 75
1, 486355, Control_c, 0, 64, 65
1, 486369, Control_c, 0, 64, 57
1, 486384, Control_c, 0, 64, 51
1, 486399, Control_c, 0, 64, 49
1, 486414, Control_c, 0, 64, 48
1, 486429, Control_c, 0, 64, 46
1, 486443, Control_c, 0, 64, 44
1, 486458, Control_c, 0, 64, 41
1, 486473, Control_c, 0, 64, 36
1, 486488, Control_c, 0, 64, 32
1, 486503, Control_c, 0, 64, 28
1, 486525, Control_c, 0, 64, 0
1, 486833, Note_on_c, 0, 62, 50
1, 486844, Note_off_c, 0, 63, 55
1, 487285, Note_off_c, 0, 56, 37
1, 487307, Note_off_c, 0, 47, 31
1, 487307, Note_off_c, 0, 62, 37
1, 487340, Note_off_c, 0, 41, 39
1, 487793, Note_on_c, 0, 61, 78
1, 487822, Control_c, 0, 64, 42
1, 487837, Control_c, 0, 64, 60
1, 487852, Control_c, 0, 64, 71
1, 487867, Control_c, 0, 64, 90
1, 487881, Control_c, 0, 64, 127
1, 488015, Note_off_c, 0, 61, 56
1, 488234, Note_on_c, 0, 61, 85
1, 488252, Note_on_c, 0, 53, 61
1, 488273, Note_on_c, 0, 50, 51
1, 488274, Note_on_c, 0, 44, 50
1, 488319, Control_c, 0, 64, 100
1, 488334, Control_c, 0, 64, 81
1, 488349, Control_c, 0, 64, 67
1, 488363, Control_c, 0, 64, 55
1, 488378, Control_c, 0, 64, 43
1, 488393, Control_c, 0, 64, 31
1, 488408, Control_c, 0, 64, 0
1, 488744, Note_on_c, 0, 59, 54
1, 488786, Note_off_c, 0, 61, 56
1, 489195, Note_off_c, 0, 53, 37
1, 489200, Note_off_c, 0, 50, 50
1, 489252, Note_off_c, 0, 44, 37
1, 489267, Note_off_c, 0, 59, 37
1, 489695, Note_on_c, 0, 58, 86
1, 489743, Control_c, 0, 64, 41
1, 489758, Control_c, 0, 64, 59
1, 489772, Control_c, 0, 64, 71
1, 489787, Control_c, 0, 64, 103
1, 489802, Control_c, 0, 64, 127
1, 489893, Note_off_c, 0, 58, 59
1, 490085, Note_on_c, 0, 58, 87
1, 490111, Note_on_c, 0, 54, 67
1, 490114, Control_c, 0, 64, 108
1, 490116, Note_on_c, 0, 51, 62
1, 490121, Note_on_c, 0, 48, 64
1, 490128, Control_c, 0, 64, 74
1, 490143, Control_c, 0, 64, 56
1, 490158, Control_c, 0, 64, 27
1, 490173, Control_c, 0, 64, 0
1, 490188, Control_c, 0, 64, 35
1, 490202, Control_c, 0, 64, 56
1, 490217, Control_c, 0, 64, 69
1, 490232, Control_c, 0, 64, 84
1, 490247, Control_c, 0, 64, 112
1, 490270, Control_c, 0, 64, 127
1, 490281, Note_off_c, 0, 54, 60
1, 490288, Note_off_c, 0, 48, 58
1, 490297, Note_off_c, 0, 51, 59
1, 490368, Note_off_c, 0, 58, 54
1, 490479, Note_on_c, 0, 57, 90
1, 490592, Note_off_c, 0, 57, 64
1, 490846, Note_on_c, 0, 56, 84
1, 490864, Note_on_c, 0, 53, 63
1, 490876, Control_c, 0, 64, 102
1, 490880, Note_on_c, 0, 47, 58
1, 490883, Note_on_c, 0, 38, 58
1, 490891, Control_c, 0, 64, 75
1, 490905, Control_c, 0, 64, 58
1, 490920, Control_c, 0, 64, 40
1, 490935, Control_c, 0, 64, 27
1, 490950, Control_c, 0, 64, 29
1, 490965, Control_c, 0, 64, 45
1, 490980, Control_c, 0, 64, 62
1, 490995, Control_c, 0, 64, 71
1, 491017, Control_c, 0, 64, 82
1, 491028, Note_off_c, 0, 47, 60
1, 491031, Note_off_c, 0, 56, 62
1, 491031, Control_c, 0, 64, 90
1, 491046, Control_c, 0, 64, 97
1, 491061, Control_c, 0, 64, 105
1, 491076, Control_c, 0, 64, 127
1, 491084, Note_off_c, 0, 38, 50
1, 491099, Note_off_c, 0, 53, 35
1, 491212, Note_on_c, 0, 54, 84
1, 491230, Note_on_c, 0, 51, 66
1, 491233, Note_on_c, 0, 46, 65
1, 491236, Note_on_c, 0, 39, 63
1, 491269, Control_c, 0, 64, 84
1, 491284, Control_c, 0, 64, 62
1, 491299, Control_c, 0, 64, 43
1, 491313, Control_c, 0, 64, 29
1, 491328, Control_c, 0, 64, 35
1, 491343, Control_c, 0, 64, 52
1, 491357, Control_c, 0, 64, 65
1, 491372, Control_c, 0, 64, 76
1, 491387, Control_c, 0, 64, 90
1, 491399, Note_off_c, 0, 46, 56
1, 491402, Control_c, 0, 64, 97
1, 491415, Note_off_c, 0, 39, 60
1, 491417, Control_c, 0, 64, 103
1, 491430, Note_off_c, 0, 54, 57
1, 491433, Note_off_c, 0, 51, 57
1, 491433, Control_c, 0, 64, 109
1, 491448, Control_c, 0, 64, 119
1, 491462, Control_c, 0, 64, 127
1, 491585, Note_on_c, 0, 53, 82
1, 491596, Note_on_c, 0, 44, 67
1, 491606, Note_on_c, 0, 35, 60
1, 491625, Control_c, 0, 64, 95
1, 491640, Control_c, 0, 64, 73
1, 491654, Control_c, 0, 64, 55
1, 491669, Control_c, 0, 64, 29
1, 491684, Control_c, 0, 64, 0
1, 491728, Control_c, 0, 64, 42
1, 491743, Control_c, 0, 64, 56
1, 491766, Control_c, 0, 64, 64
1, 491780, Control_c, 0, 64, 70
1, 491795, Control_c, 0, 64, 75
1, 491810, Control_c, 0, 64, 78
1, 491825, Control_c, 0, 64, 82
1, 491840, Control_c, 0, 64, 86
1, 491844, Note_off_c, 0, 53, 60
1, 491854, Control_c, 0, 64, 90
1, 491869, Control_c, 0, 64, 95
1, 491884, Control_c, 0, 64, 98
1, 491899, Control_c, 0, 64, 102
1, 491914, Control_c, 0, 64, 104
1, 491928, Control_c, 0, 64, 106
1, 491943, Control_c, 0, 64, 109
1, 491958, Control_c, 0, 64, 114
1, 491959, Note_on_c, 0, 51, 82
1, 491973, Control_c, 0, 64, 121
1, 491987, Control_c, 0, 64, 127
1, 492037, Note_off_c, 0, 51, 61
1, 492114, Note_on_c, 0, 53, 82
1, 492148, Note_off_c, 0, 35, 59
1, 492187, Note_off_c, 0, 53, 61
1, 492244, Note_off_c, 0, 44, 36
1, 492315, Control_c, 0, 64, 112
1, 492320, Note_on_c, 0, 50, 80
1, 492322, Note_on_c, 0, 34, 75
1, 492330, Control_c, 0, 64, 79
1, 492345, Control_c, 0, 64, 61
1, 492360, Control_c, 0, 64, 40
1, 492375, Control_c, 0, 64, 29
1, 492390, Control_c, 0, 64, 37
1, 492404, Control_c, 0, 64, 58
1, 492419, Control_c, 0, 64, 68
1, 492434, Control_c, 0, 64, 78
1, 492449, Control_c, 0, 64, 89
1, 492452, Note_off_c, 0, 50, 63
1, 492464, Control_c, 0, 64, 97
1, 492478, Control_c, 0, 64, 105
1, 492493, Control_c, 0, 64, 118
1, 492515, Control_c, 0, 64, 127
1, 492703, Note_on_c, 0, 47, 76
1, 492718, Note_on_c, 0, 56, 54
1, 492723, Note_on_c, 0, 65, 56
1, 492733, Note_on_c, 0, 63, 55
1, 492737, Control_c, 0, 64, 115
1, 492752, Control_c, 0, 64, 82
1, 492767, Control_c, 0, 64, 64
1, 492782, Control_c, 0, 64, 48
1, 492797, Control_c, 0, 64, 36
1, 492811, Control_c, 0, 64, 39
1, 492826, Control_c, 0, 64, 51
1, 492841, Control_c, 0, 64, 62
1, 492856, Control_c, 0, 64, 69
1, 492871, Control_c, 0, 64, 77
1, 492885, Control_c, 0, 64, 83
1, 492900, Control_c, 0, 64, 89
1, 492915, Control_c, 0, 64, 97
1, 492920, Note_off_c, 0, 47, 61
1, 492929, Control_c, 0, 64, 104
1, 492944, Control_c, 0, 64, 114
1, 492948, Note_off_c, 0, 65, 48
1, 492959, Control_c, 0, 64, 127
1, 492965, Note_off_c, 0, 63, 34
1, 493069, Note_on_c, 0, 46, 69
1, 493075, Note_on_c, 0, 70, 69
1, 493093, Control_c, 0, 64, 100
1, 493096, Note_on_c, 0, 62, 46
1, 493108, Control_c, 0, 64, 77
1, 493123, Control_c, 0, 64, 56
1, 493138, Control_c, 0, 64, 34
1, 493152, Control_c, 0, 64, 0
1, 493182, Control_c, 0, 64, 31
1, 493197, Control_c, 0, 64, 47
1, 493211, Note_off_c, 0, 56, 55
1, 493212, Control_c, 0, 64, 61
1, 493226, Control_c, 0, 64, 66
1, 493241, Control_c, 0, 64, 71
1, 493263, Control_c, 0, 64, 76
1, 493278, Control_c, 0, 64, 81
1, 493293, Control_c, 0, 64, 88
1, 493308, Control_c, 0, 64, 94
1, 493323, Control_c, 0, 64, 104
1, 493338, Control_c, 0, 64, 116
1, 493353, Control_c, 0, 64, 127
1, 493382, Note_off_c, 0, 46, 37
1, 493427, Note_off_c, 0, 62, 53
1, 493448, Note_on_c, 0, 44, 68
1, 493454, Note_off_c, 0, 70, 58
1, 493553, Note_off_c, 0, 44, 58
1, 493604, Note_on_c, 0, 46, 77
1, 493812, Control_c, 0, 64, 117
1, 493827, Control_c, 0, 64, 95
1, 493832, Note_off_c, 0, 46, 56
1, 493837, Note_on_c, 0, 42, 71
1, 493842, Control_c, 0, 64, 77
1, 493856, Control_c, 0, 64, 63
1, 493856, Control_c, 0, 67, 36
1, 493871, Control_c, 0, 64, 50
1, 493871, Control_c, 0, 67, 45
1, 493886, Control_c, 0, 64, 38
1, 493886, Control_c, 0, 67, 55
1, 493901, Control_c, 0, 64, 31
1, 493901, Control_c, 0, 67, 68
1, 493916, Control_c, 0, 67, 80
1, 493931, Control_c, 0, 64, 32
1, 493931, Control_c, 0, 67, 93
1, 493946, Control_c, 0, 64, 37
1, 493946, Control_c, 0, 67, 106
1, 493961, Control_c, 0, 64, 47
1, 493961, Control_c, 0, 67, 119
1, 493975, Control_c, 0, 64, 58
1, 493975, Control_c, 0, 67, 127
1, 493990, Control_c, 0, 64, 65
1, 494012, Control_c, 0, 64, 70
1, 494027, Control_c, 0, 64, 76
1, 494042, Control_c, 0, 64, 80
1, 494056, Control_c, 0, 64, 84
1, 494071, Control_c, 0, 64, 87
1, 494086, Control_c, 0, 64, 90
1, 494101, Control_c, 0, 64, 94
1, 494116, Control_c, 0, 64, 97
1, 494131, Control_c, 0, 64, 100
1, 494145, Control_c, 0, 64, 102
1, 494268, Note_on_c, 0, 58, 61
1, 494273, Note_on_c, 0, 41, 55
1, 494283, Note_on_c, 0, 56, 54
1, 494296, Note_on_c, 0, 50, 40
1, 494308, Control_c, 0, 64, 95
1, 494323, Control_c, 0, 64, 83
1, 494337, Note_off_c, 0, 42, 45
1, 494338, Control_c, 0, 64, 70
1, 494353, Control_c, 0, 64, 55
1, 494368, Control_c, 0, 64, 43
1, 494382, Control_c, 0, 64, 38
1, 494397, Control_c, 0, 64, 38
1, 494412, Control_c, 0, 64, 40
1, 494427, Control_c, 0, 64, 45
1, 494442, Control_c, 0, 64, 56
1, 494443, Note_off_c, 0, 34, 48
1, 494456, Control_c, 0, 64, 64
1, 494471, Control_c, 0, 64, 71
1, 494486, Control_c, 0, 64, 80
1, 494500, Control_c, 0, 64, 86
1, 494515, Control_c, 0, 64, 91
1, 494528, Note_off_c, 0, 50, 57
1, 494530, Control_c, 0, 64, 95
1, 494545, Control_c, 0, 64, 99
1, 494560, Control_c, 0, 64, 102
1, 494575, Control_c, 0, 64, 104
1, 494679, Control_c, 0, 64, 94
1, 494688, Note_off_c, 0, 41, 33
1, 494694, Control_c, 0, 64, 75
1, 494709, Control_c, 0, 64, 58
1, 494724, Control_c, 0, 64, 32
1, 494734, Note_on_c, 0, 39, 52
1, 494736, Note_on_c, 0, 54, 48
1, 494739, Control_c, 0, 64, 0
1, 494765, Note_on_c, 0, 51, 32
1, 494791, Control_c, 0, 64, 39
1, 494805, Control_c, 0, 64, 57
1, 494820, Control_c, 0, 64, 67
1, 494835, Control_c, 0, 64, 75
1, 494847, Note_off_c, 0, 56, 41
1, 494849, Note_off_c, 0, 58, 33
1, 494850, Control_c, 0, 64, 82
1, 494853, Note_off_c, 0, 39, 63
1, 494865, Control_c, 0, 64, 89
1, 494879, Control_c, 0, 64, 96
1, 494894, Control_c, 0, 64, 105
1, 494909, Control_c, 0, 64, 127
1, 494992, Note_on_c, 0, 59, 58
1, 495063, Note_off_c, 0, 51, 42
1, 495116, Note_off_c, 0, 54, 34
1, 495222, Note_off_c, 0, 59, 35
1, 495235, Note_on_c, 0, 66, 53
1, 495236, Note_on_c, 0, 70, 55
1, 495243, Note_on_c, 0, 63, 55
1, 495409, Note_on_c, 0, 61, 55
1, 495441, Note_off_c, 0, 63, 37
1, 495595, Note_off_c, 0, 61, 61
1, 495596, Note_on_c, 0, 59, 58
1, 495651, Note_off_c, 0, 59, 63
1, 495734, Note_on_c, 0, 71, 48
1, 495749, Note_off_c, 0, 70, 34
1, 495940, Note_off_c, 0, 71, 59
1, 495943, Note_on_c, 0, 82, 59
1, 495954, Note_on_c, 0, 78, 49
1, 495965, Note_on_c, 0, 75, 49
1, 496029, Control_c, 0, 64, 107
1, 496044, Control_c, 0, 64, 97
1, 496059, Control_c, 0, 64, 89
1, 496073, Control_c, 0, 64, 81
1, 496088, Control_c, 0, 64, 75
1, 496103, Control_c, 0, 64, 70
1, 496118, Control_c, 0, 64, 65
1, 496133, Control_c, 0, 64, 62
1, 496140, Note_on_c, 0, 73, 45
1, 496144, Note_off_c, 0, 75, 51
1, 496147, Control_c, 0, 64, 60
1, 496162, Control_c, 0, 64, 59
1, 496370, Note_on_c, 0, 71, 43
1, 496393, Control_c, 0, 64, 60
1, 496402, Note_off_c, 0, 73, 48
1, 496452, Control_c, 0, 64, 60
1, 496482, Control_c, 0, 64, 61
1, 496511, Control_c, 0, 64, 61
1, 496541, Control_c, 0, 64, 62
1, 496553, Note_on_c, 0, 83, 52
1, 496556, Control_c, 0, 64, 62
1, 496570, Control_c, 0, 64, 63
1, 496585, Control_c, 0, 64, 63
1, 496599, Note_off_c, 0, 82, 56
1, 496600, Control_c, 0, 64, 64
1, 496615, Control_c, 0, 64, 65
1, 496630, Control_c, 0, 64, 66
1, 496644, Control_c, 0, 64, 67
1, 496659, Control_c, 0, 64, 67
1, 496748, Control_c, 0, 64, 67
1, 496792, Control_c, 0, 64, 66
1, 496810, Note_on_c, 0, 87, 46
1, 496838, Note_off_c, 0, 83, 34
1, 496882, Control_c, 0, 64, 67
1, 496896, Control_c, 0, 64, 67
1, 496911, Control_c, 0, 64, 69
1, 496926, Control_c, 0, 64, 70
1, 496941, Control_c, 0, 64, 72
1, 496956, Control_c, 0, 64, 74
1, 496970, Control_c, 0, 64, 76
1, 496985, Control_c, 0, 64, 77
1, 497007, Control_c, 0, 64, 79
1, 497022, Control_c, 0, 64, 80
1, 497038, Control_c, 0, 64, 82
1, 497039, Note_on_c, 0, 85, 53
1, 497053, Control_c, 0, 64, 83
1, 497068, Control_c, 0, 64, 85
1, 497082, Control_c, 0, 64, 87
1, 497085, Note_off_c, 0, 87, 37
1, 497097, Control_c, 0, 64, 89
1, 497112, Control_c, 0, 64, 91
1, 497126, Control_c, 0, 64, 92
1, 497141, Control_c, 0, 64, 94
1, 497156, Control_c, 0, 64, 95
1, 497174, Note_off_c, 0, 71, 35
1, 497201, Control_c, 0, 64, 98
1, 497231, Control_c, 0, 64, 100
1, 497236, Note_off_c, 0, 78, 34
1, 497275, Control_c, 0, 64, 102
1, 497282, Note_off_c, 0, 66, 38
1, 497319, Control_c, 0, 64, 105
1, 497379, Control_c, 0, 64, 107
1, 497395, Note_on_c, 0, 83, 39
1, 497432, Note_off_c, 0, 85, 23
1, 497688, Note_off_c, 0, 83, 34
1, 497770, Control_c, 0, 64, 105
1, 497800, Control_c, 0, 64, 102
1, 497815, Control_c, 0, 64, 99
1, 497830, Control_c, 0, 64, 95
1, 497845, Control_c, 0, 64, 92
1, 497860, Control_c, 0, 64, 89
1, 497875, Control_c, 0, 64, 85
1, 497890, Control_c, 0, 64, 81
1, 497904, Control_c, 0, 64, 76
1, 497919, Control_c, 0, 64, 71
1, 497934, Control_c, 0, 64, 67
1, 497949, Control_c, 0, 64, 64
1, 497964, Control_c, 0, 64, 62
1, 497979, Control_c, 0, 64, 62
1, 498038, Control_c, 0, 64, 61
1, 498053, Control_c, 0, 64, 60
1, 498068, Control_c, 0, 64, 60
1, 498097, Control_c, 0, 64, 59
1, 498112, Control_c, 0, 64, 59
1, 498127, Control_c, 0, 64, 58
1, 498142, Control_c, 0, 64, 58
1, 498156, Control_c, 0, 64, 57
1, 498171, Control_c, 0, 64, 56
1, 498186, Control_c, 0, 64, 55
1, 498201, Control_c, 0, 64, 55
1, 498215, Control_c, 0, 64, 54
1, 498230, Control_c, 0, 64, 53
1, 498245, Control_c, 0, 64, 53
1, 498260, Control_c, 0, 64, 52
1, 498274, Control_c, 0, 64, 52
1, 498304, Control_c, 0, 64, 51
1, 498319, Control_c, 0, 64, 50
1, 498334, Control_c, 0, 64, 50
1, 498363, Control_c, 0, 64, 49
1, 498378, Control_c, 0, 64, 49
1, 498393, Control_c, 0, 64, 48
1, 498438, Control_c, 0, 64, 48
1, 498453, Control_c, 0, 64, 47
1, 498467, Control_c, 0, 64, 47
1, 498920, Control_c, 0, 64, 47
1, 498950, Control_c, 0, 64, 48
1, 498979, Control_c, 0, 64, 48
1, 498994, Control_c, 0, 64, 49
1, 499009, Control_c, 0, 64, 50
1, 499024, Control_c, 0, 64, 51
1, 499039, Control_c, 0, 64, 52
1, 499054, Control_c, 0, 64, 52
1, 499069, Control_c, 0, 64, 53
1, 499084, Control_c, 0, 64, 54
1, 499098, Control_c, 0, 64, 56
1, 499113, Control_c, 0, 64, 57
1, 499128, Control_c, 0, 64, 58
1, 499143, Control_c, 0, 64, 59
1, 499158, Control_c, 0, 64, 60
1, 499172, Control_c, 0, 64, 62
1, 499187, Control_c, 0, 64, 64
1, 499202, Control_c, 0, 64, 66
1, 499217, Control_c, 0, 64, 68
1, 499232, Control_c, 0, 64, 70
1, 499254, Control_c, 0, 64, 73
1, 499269, Control_c, 0, 64, 77
1, 499284, Control_c, 0, 64, 82
1, 499298, Control_c, 0, 64, 87
1, 499313, Control_c, 0, 64, 93
1, 499313, Control_c, 0, 67, 118
1, 499328, Control_c, 0, 64, 102
1, 499328, Control_c, 0, 67, 103
1, 499343, Control_c, 0, 64, 127
1, 499343, Control_c, 0, 67, 86
1, 499358, Control_c, 0, 67, 69
1, 499372, Control_c, 0, 67, 52
1, 499387, Control_c, 0, 67, 0
1, 499409, Note_on_c, 0, 78, 83
1, 499442, Note_on_c, 0, 63, 56
1, 499687, Note_off_c, 0, 63, 38
1, 499725, Note_off_c, 0, 78, 53
1, 499968, Note_on_c, 0, 78, 84
1, 500004, Note_on_c, 0, 59, 47
1, 500006, Note_on_c, 0, 63, 49
1, 500009, Note_on_c, 0, 51, 42
1, 500012, Note_on_c, 0, 66, 46
1, 500223, Note_off_c, 0, 63, 58
1, 500256, Note_off_c, 0, 59, 36
1, 500291, Note_off_c, 0, 66, 37
1, 500536, Note_on_c, 0, 77, 59
1, 500563, Note_on_c, 0, 62, 36
1, 500596, Note_off_c, 0, 78, 48
1, 500611, Control_c, 0, 64, 118
1, 500626, Control_c, 0, 64, 91
1, 500641, Control_c, 0, 64, 76
1, 500656, Control_c, 0, 64, 65
1, 500670, Control_c, 0, 64, 56
1, 500685, Control_c, 0, 64, 54
1, 500700, Control_c, 0, 64, 54
1, 500715, Control_c, 0, 64, 57
1, 500730, Control_c, 0, 64, 62
1, 500751, Control_c, 0, 64, 67
1, 500766, Control_c, 0, 64, 76
1, 500781, Control_c, 0, 64, 91
1, 500796, Note_off_c, 0, 77, 59
1, 500796, Control_c, 0, 64, 103
1, 500811, Control_c, 0, 64, 115
1, 500826, Control_c, 0, 64, 127
1, 500848, Note_off_c, 0, 62, 44
1, 500866, Note_off_c, 0, 51, 40
1, 500934, Note_on_c, 0, 58, 61
1, 500944, Note_on_c, 0, 67, 59
1, 500944, Control_c, 0, 64, 118
1, 500959, Control_c, 0, 64, 81
1, 500974, Control_c, 0, 64, 60
1, 500989, Control_c, 0, 64, 28
1, 501004, Control_c, 0, 64, 0
1, 501049, Control_c, 0, 64, 36
1, 501064, Control_c, 0, 64, 55
1, 501079, Control_c, 0, 64, 70
1, 501093, Control_c, 0, 64, 85
1, 501108, Control_c, 0, 64, 125
1, 501123, Control_c, 0, 64, 127
1, 501277, Note_on_c, 0, 76, 90
1, 501284, Note_on_c, 0, 61, 66
1, 501416, Note_off_c, 0, 58, 59
1, 501483, Note_off_c, 0, 76, 52
1, 501507, Note_off_c, 0, 61, 47
1, 501537, Note_off_c, 0, 67, 38
1, 501776, Note_on_c, 0, 76, 69
1, 501800, Note_on_c, 0, 61, 44
1, 501803, Note_on_c, 0, 69, 47
1, 501812, Note_on_c, 0, 54, 41
1, 501820, Note_on_c, 0, 51, 37
1, 501842, Control_c, 0, 64, 115
1, 501857, Control_c, 0, 64, 86
1, 501871, Control_c, 0, 64, 69
1, 501886, Control_c, 0, 64, 56
1, 501901, Control_c, 0, 64, 42
1, 501915, Control_c, 0, 64, 34
1, 501930, Control_c, 0, 64, 33
1, 501960, Control_c, 0, 64, 35
1, 501975, Control_c, 0, 64, 41
1, 501989, Control_c, 0, 64, 51
1, 502004, Control_c, 0, 64, 61
1, 502019, Control_c, 0, 64, 66
1, 502035, Control_c, 0, 64, 71
1, 502050, Control_c, 0, 64, 76
1, 502064, Control_c, 0, 64, 80
1, 502079, Control_c, 0, 64, 85
1, 502094, Control_c, 0, 64, 91
1, 502108, Control_c, 0, 64, 98
1, 502123, Control_c, 0, 64, 106
1, 502138, Control_c, 0, 64, 119
1, 502153, Control_c, 0, 64, 127
1, 502196, Note_on_c, 0, 75, 67
1, 502217, Note_on_c, 0, 60, 48
1, 502225, Note_off_c, 0, 54, 34
1, 502254, Note_off_c, 0, 76, 59
1, 502291, Note_off_c, 0, 61, 29
1, 502301, Note_off_c, 0, 69, 54
1, 502304, Note_off_c, 0, 51, 42
1, 502361, Note_off_c, 0, 60, 49
1, 502551, Note_on_c, 0, 55, 64
1, 502554, Note_on_c, 0, 70, 77
1, 502561, Control_c, 0, 64, 119
1, 502564, Note_on_c, 0, 52, 64
1, 502564, Note_off_c, 0, 75, 59
1, 502575, Control_c, 0, 64, 76
1, 502590, Control_c, 0, 64, 51
1, 502605, Control_c, 0, 64, 0
1, 502665, Control_c, 0, 64, 39
1, 502680, Control_c, 0, 64, 57
1, 502695, Control_c, 0, 64, 67
1, 502710, Control_c, 0, 64, 82
1, 502724, Control_c, 0, 64, 104
1, 502739, Control_c, 0, 64, 127
1, 502888, Note_on_c, 0, 73, 93
1, 502907, Note_on_c, 0, 64, 73
1, 502956, Note_off_c, 0, 52, 37
1, 502957, Note_off_c, 0, 55, 61
1, 503030, Note_off_c, 0, 64, 57
1, 503033, Note_off_c, 0, 70, 61
1, 503057, Note_off_c, 0, 73, 60
1, 503230, Note_on_c, 0, 73, 94
1, 503243, Note_on_c, 0, 66, 83
1, 503250, Control_c, 0, 64, 102
1, 503252, Note_on_c, 0, 64, 75
1, 503257, Note_on_c, 0, 57, 68
1, 503264, Control_c, 0, 64, 69
1, 503279, Control_c, 0, 64, 43
1, 503294, Control_c, 0, 64, 0
1, 503339, Control_c, 0, 64, 43
1, 503353, Control_c, 0, 64, 60
1, 503368, Control_c, 0, 64, 69
1, 503383, Control_c, 0, 64, 79
1, 503398, Control_c, 0, 64, 90
1, 503414, Control_c, 0, 64, 100
1, 503429, Control_c, 0, 64, 127
1, 503565, Note_on_c, 0, 72, 85
1, 503577, Note_off_c, 0, 64, 62
1, 503578, Note_on_c, 0, 63, 77
1, 503600, Note_off_c, 0, 73, 50
1, 503622, Note_off_c, 0, 63, 63
1, 503629, Note_off_c, 0, 57, 63
1, 503637, Note_off_c, 0, 66, 54
1, 503671, Note_off_c, 0, 72, 62
1, 503908, Note_on_c, 0, 71, 92
1, 503920, Note_on_c, 0, 50, 67
1, 503924, Note_on_c, 0, 56, 72
1, 503931, Note_on_c, 0, 65, 76
1, 503938, Control_c, 0, 64, 84
1, 503953, Control_c, 0, 64, 63
1, 503968, Control_c, 0, 64, 41
1, 503982, Control_c, 0, 64, 29
1, 503997, Control_c, 0, 64, 38
1, 504012, Control_c, 0, 64, 55
1, 504027, Control_c, 0, 64, 66
1, 504042, Control_c, 0, 64, 78
1, 504057, Control_c, 0, 64, 91
1, 504072, Control_c, 0, 64, 108
1, 504082, Note_off_c, 0, 50, 58
1, 504086, Control_c, 0, 64, 127
1, 504094, Note_off_c, 0, 56, 58
1, 504132, Note_off_c, 0, 65, 58
1, 504139, Note_off_c, 0, 71, 52
1, 504246, Note_on_c, 0, 69, 89
1, 504259, Note_on_c, 0, 66, 82
1, 504272, Note_on_c, 0, 48, 69
1, 504277, Note_on_c, 0, 51, 64
1, 504361, Note_off_c, 0, 69, 62
1, 504362, Note_off_c, 0, 66, 65
1, 504379, Note_off_c, 0, 48, 55
1, 504379, Note_off_c, 0, 51, 56
1, 504627, Note_on_c, 0, 68, 89
1, 504629, Note_on_c, 0, 59, 83
1, 504641, Note_on_c, 0, 53, 72
1, 504642, Note_on_c, 0, 49, 67
1, 504657, Control_c, 0, 64, 98
1, 504672, Control_c, 0, 64, 69
1, 504687, Control_c, 0, 64, 46
1, 504702, Control_c, 0, 64, 0
1, 504746, Control_c, 0, 64, 39
1, 504761, Control_c, 0, 64, 58
1, 504776, Control_c, 0, 64, 67
1, 504790, Control_c, 0, 64, 73
1, 504805, Control_c, 0, 64, 80
1, 504820, Control_c, 0, 64, 86
1, 504823, Note_off_c, 0, 53, 60
1, 504835, Control_c, 0, 64, 95
1, 504850, Control_c, 0, 64, 108
1, 504865, Control_c, 0, 64, 127
1, 504874, Note_off_c, 0, 68, 57
1, 504876, Note_off_c, 0, 49, 62
1, 504984, Note_on_c, 0, 66, 90
1, 505071, Note_off_c, 0, 66, 63
1, 505130, Note_on_c, 0, 68, 86
1, 505249, Note_off_c, 0, 68, 53
1, 505327, Note_on_c, 0, 65, 86
1, 505369, Note_off_c, 0, 59, 65
1, 505392, Note_off_c, 0, 65, 63
1, 505687, Note_on_c, 0, 62, 92
1, 505700, Note_on_c, 0, 47, 72
1, 505701, Note_on_c, 0, 57, 80
1, 505702, Note_on_c, 0, 37, 70
1, 505705, Note_on_c, 0, 42, 72
1, 505747, Control_c, 0, 64, 88
1, 505762, Control_c, 0, 64, 64
1, 505777, Control_c, 0, 64, 35
1, 505792, Control_c, 0, 64, 0
1, 505808, Control_c, 0, 64, 28
1, 505823, Control_c, 0, 64, 50
1, 505837, Control_c, 0, 64, 64
1, 505852, Control_c, 0, 64, 72
1, 505867, Control_c, 0, 64, 83
1, 505875, Note_off_c, 0, 62, 59
1, 505881, Control_c, 0, 64, 94
1, 505896, Control_c, 0, 64, 108
1, 505906, Note_off_c, 0, 57, 59
1, 505911, Control_c, 0, 64, 127
1, 505935, Note_off_c, 0, 47, 53
1, 505956, Note_off_c, 0, 42, 55
1, 505971, Note_off_c, 0, 37, 32
1, 506128, Note_on_c, 0, 61, 93
1, 506138, Note_on_c, 0, 56, 80
1, 506141, Note_on_c, 0, 37, 73
1, 506141, Note_on_c, 0, 47, 79
1, 506147, Note_on_c, 0, 41, 73
1, 506170, Control_c, 0, 64, 94
1, 506185, Control_c, 0, 64, 61
1, 506200, Control_c, 0, 64, 0
1, 506260, Control_c, 0, 64, 28
1, 506275, Control_c, 0, 64, 47
1, 506289, Control_c, 0, 64, 61
1, 506304, Control_c, 0, 64, 68
1, 506319, Control_c, 0, 64, 74
1, 506334, Control_c, 0, 64, 81
1, 506349, Control_c, 0, 64, 87
1, 506363, Control_c, 0, 64, 96
1, 506378, Control_c, 0, 64, 108
1, 506393, Control_c, 0, 64, 127
1, 506421, Note_off_c, 0, 61, 51
1, 506452, Note_off_c, 0, 56, 54
1, 506544, Note_on_c, 0, 59, 91
1, 506633, Note_off_c, 0, 59, 63
1, 506701, Note_on_c, 0, 61, 91
1, 506826, Note_off_c, 0, 61, 55
1, 506902, Note_on_c, 0, 57, 89
1, 506905, Control_c, 0, 64, 75
1, 506919, Control_c, 0, 64, 52
1, 506934, Control_c, 0, 64, 0
1, 506964, Control_c, 0, 64, 33
1, 506978, Control_c, 0, 64, 55
1, 506993, Control_c, 0, 64, 66
1, 507008, Control_c, 0, 64, 77
1, 507015, Note_off_c, 0, 47, 59
1, 507016, Note_off_c, 0, 57, 63
1, 507023, Control_c, 0, 64, 89
1, 507038, Control_c, 0, 64, 101
1, 507053, Note_off_c, 0, 41, 62
1, 507053, Control_c, 0, 64, 127
1, 507077, Note_off_c, 0, 37, 60
1, 507327, Note_on_c, 0, 56, 86
1, 507328, Note_on_c, 0, 37, 96
1, 507337, Note_on_c, 0, 47, 74
1, 507342, Note_on_c, 0, 53, 71
1, 507393, Control_c, 0, 64, 103
1, 507409, Control_c, 0, 64, 67
1, 507424, Control_c, 0, 64, 42
1, 507439, Control_c, 0, 64, 0
1, 507491, Control_c, 0, 64, 33
1, 507506, Control_c, 0, 64, 50
1, 507521, Control_c, 0, 64, 62
1, 507535, Control_c, 0, 64, 69
1, 507550, Control_c, 0, 64, 76
1, 507553, Note_off_c, 0, 47, 50
1, 507565, Control_c, 0, 64, 84
1, 507580, Control_c, 0, 64, 92
1, 507586, Note_off_c, 0, 56, 60
1, 507595, Control_c, 0, 64, 101
1, 507609, Control_c, 0, 64, 112
1, 507624, Control_c, 0, 64, 127
1, 507633, Note_off_c, 0, 53, 56
1, 507896, Note_on_c, 0, 54, 88
1, 507906, Note_on_c, 0, 45, 81
1, 507909, Note_on_c, 0, 50, 71
1, 507950, Control_c, 0, 64, 96
1, 507965, Control_c, 0, 64, 71
1, 507980, Control_c, 0, 64, 52
1, 507995, Control_c, 0, 64, 0
1, 508180, Note_on_c, 0, 38, 88
1, 508214, Note_off_c, 0, 37, 61
1, 508525, Note_on_c, 0, 42, 97
1, 508576, Note_off_c, 0, 38, 58
1, 508775, Note_on_c, 0, 40, 83
1, 508793, Note_off_c, 0, 42, 61
1, 509071, Note_on_c, 0, 38, 89
1, 509098, Note_off_c, 0, 40, 61
1, 509151, Control_c, 0, 64, 52
1, 509166, Control_c, 0, 64, 65
1, 509181, Control_c, 0, 64, 67
1, 509196, Control_c, 0, 64, 71
1, 509199, Note_off_c, 0, 45, 35
1, 509211, Control_c, 0, 64, 76
1, 509226, Control_c, 0, 64, 87
1, 509240, Control_c, 0, 64, 109
1, 509255, Control_c, 0, 64, 127
1, 509268, Note_off_c, 0, 50, 52
1, 509301, Note_off_c, 0, 54, 55
1, 509828, Note_off_c, 0, 38, 32
1, 509852, Note_on_c, 0, 54, 83
1, 509864, Note_on_c, 0, 36, 86
1, 509864, Note_on_c, 0, 50, 73
1, 509867, Note_on_c, 0, 45, 74
1, 509915, Control_c, 0, 64, 103
1, 509929, Control_c, 0, 64, 72
1, 509944, Control_c, 0, 64, 51
1, 509959, Control_c, 0, 64, 0
1, 510019, Control_c, 0, 64, 30
1, 510034, Control_c, 0, 64, 43
1, 510049, Control_c, 0, 64, 55
1, 510063, Control_c, 0, 64, 64
1, 510078, Control_c, 0, 64, 68
1, 510093, Control_c, 0, 64, 72
1, 510108, Control_c, 0, 64, 76
1, 510120, Note_off_c, 0, 45, 52
1, 510123, Control_c, 0, 64, 81
1, 510137, Control_c, 0, 64, 88
1, 510152, Control_c, 0, 64, 97
1, 510167, Control_c, 0, 64, 115
1, 510182, Control_c, 0, 64, 127
1, 510221, Note_off_c, 0, 50, 58
1, 510265, Note_off_c, 0, 54, 53
1, 510886, Note_on_c, 0, 66, 80
1, 510889, Note_on_c, 0, 62, 70
1, 510915, Note_on_c, 0, 57, 41
1, 510955, Note_off_c, 0, 36, 60
1, 511079, Note_off_c, 0, 66, 57
1, 511131, Note_off_c, 0, 62, 52
1, 511134, Note_off_c, 0, 57, 36
1, 511196, Control_c, 0, 67, 35
1, 511211, Control_c, 0, 67, 50
1, 511234, Control_c, 0, 67, 59
1, 511249, Control_c, 0, 67, 67
1, 511264, Control_c, 0, 67, 74
1, 511278, Control_c, 0, 67, 82
1, 511290, Note_on_c, 0, 35, 49
1, 511293, Control_c, 0, 67, 91
1, 511308, Control_c, 0, 67, 100
1, 511323, Control_c, 0, 67, 109
1, 511338, Control_c, 0, 67, 119
1, 511352, Control_c, 0, 67, 127
1, 511373, Note_on_c, 0, 66, 71
1, 511393, Note_on_c, 0, 63, 51
1, 511404, Note_on_c, 0, 57, 46
1, 511428, Control_c, 0, 64, 89
1, 511443, Control_c, 0, 64, 69
1, 511457, Control_c, 0, 64, 50
1, 511472, Control_c, 0, 64, 0
1, 511605, Control_c, 0, 64, 31
1, 511620, Control_c, 0, 64, 39
1, 511634, Control_c, 0, 64, 50
1, 511649, Control_c, 0, 64, 59
1, 511664, Control_c, 0, 64, 63
1, 511679, Control_c, 0, 64, 66
1, 511694, Control_c, 0, 64, 69
1, 511709, Control_c, 0, 64, 71
1, 511724, Control_c, 0, 64, 74
1, 511729, Note_on_c, 0, 42, 45
1, 511739, Control_c, 0, 64, 78
1, 511739, Note_off_c, 0, 35, 34
1, 511754, Control_c, 0, 64, 81
1, 511769, Control_c, 0, 64, 85
1, 511783, Control_c, 0, 64, 89
1, 511798, Control_c, 0, 64, 94
1, 511813, Control_c, 0, 64, 98
1, 511827, Control_c, 0, 64, 103
1, 511842, Control_c, 0, 64, 109
1, 511857, Control_c, 0, 64, 114
1, 511872, Control_c, 0, 64, 125
1, 511887, Control_c, 0, 64, 127
1, 511896, Note_off_c, 0, 42, 35
1, 511923, Note_on_c, 0, 35, 47
1, 511974, Note_off_c, 0, 35, 55
1, 512067, Note_on_c, 0, 42, 39
1, 512141, Note_off_c, 0, 42, 62
1, 512182, Note_on_c, 0, 47, 47
1, 512243, Note_off_c, 0, 47, 50
1, 512317, Note_on_c, 0, 54, 50
1, 512387, Note_off_c, 0, 54, 59
1, 512442, Note_on_c, 0, 47, 37
1, 512476, Note_off_c, 0, 47, 56
1, 512532, Note_on_c, 0, 42, 39
1, 512600, Note_off_c, 0, 42, 62
1, 512654, Note_on_c, 0, 35, 51
1, 512708, Note_off_c, 0, 35, 54
1, 512791, Note_on_c, 0, 42, 38
1, 512841, Note_off_c, 0, 42, 59
1, 512895, Note_on_c, 0, 35, 46
1, 512952, Note_off_c, 0, 35, 55
1, 513018, Note_on_c, 0, 42, 45
1, 513068, Note_off_c, 0, 42, 59
1, 513073, Control_c, 0, 64, 114
1, 513088, Control_c, 0, 64, 80
1, 513103, Control_c, 0, 64, 62
1, 513118, Control_c, 0, 64, 51
1, 513125, Note_on_c, 0, 35, 47
1, 513133, Control_c, 0, 64, 52
1, 513147, Control_c, 0, 64, 56
1, 513162, Control_c, 0, 64, 61
1, 513177, Control_c, 0, 64, 66
1, 513192, Note_off_c, 0, 35, 56
1, 513192, Control_c, 0, 64, 72
1, 513207, Control_c, 0, 64, 81
1, 513221, Control_c, 0, 64, 89
1, 513236, Control_c, 0, 64, 92
1, 513251, Control_c, 0, 64, 95
1, 513256, Note_on_c, 0, 42, 41
1, 513265, Control_c, 0, 64, 98
1, 513280, Control_c, 0, 64, 101
1, 513295, Note_off_c, 0, 42, 57
1, 513295, Control_c, 0, 64, 105
1, 513310, Control_c, 0, 64, 109
1, 513325, Control_c, 0, 64, 114
1, 513339, Control_c, 0, 64, 121
1, 513354, Note_on_c, 0, 35, 43
1, 513354, Control_c, 0, 64, 127
1, 513396, Note_off_c, 0, 35, 54
1, 513476, Note_on_c, 0, 42, 48
1, 513510, Note_off_c, 0, 57, 39
1, 513536, Note_off_c, 0, 42, 61
1, 513577, Note_on_c, 0, 47, 40
1, 513578, Note_off_c, 0, 66, 51
1, 513588, Note_off_c, 0, 63, 41
1, 513626, Note_off_c, 0, 47, 57
1, 513699, Note_on_c, 0, 54, 40
1, 513748, Note_off_c, 0, 54, 61
1, 513798, Note_on_c, 0, 47, 49
1, 513831, Note_off_c, 0, 47, 64
1, 513912, Note_on_c, 0, 42, 45
1, 513965, Note_off_c, 0, 42, 61
1, 514029, Note_on_c, 0, 35, 49
1, 514088, Note_off_c, 0, 35, 54
1, 514148, Note_on_c, 0, 70, 72
1, 514173, Note_on_c, 0, 42, 40
1, 514228, Note_off_c, 0, 42, 58
1, 514288, Note_on_c, 0, 35, 48
1, 514338, Note_off_c, 0, 35, 55
1, 514402, Note_on_c, 0, 42, 41
1, 514511, Control_c, 0, 64, 86
1, 514526, Control_c, 0, 64, 66
1, 514529, Note_off_c, 0, 42, 57
1, 514541, Control_c, 0, 64, 51
1, 514550, Note_on_c, 0, 63, 51
1, 514555, Control_c, 0, 64, 44
1, 514563, Note_on_c, 0, 57, 45
1, 514570, Control_c, 0, 64, 47
1, 514579, Note_on_c, 0, 35, 45
1, 514585, Control_c, 0, 64, 57
1, 514600, Control_c, 0, 64, 64
1, 514615, Control_c, 0, 64, 72
1, 514630, Control_c, 0, 64, 83
1, 514645, Control_c, 0, 64, 97
1, 514660, Control_c, 0, 64, 113
1, 514675, Control_c, 0, 64, 127
1, 514677, Note_off_c, 0, 57, 49
1, 514695, Note_off_c, 0, 70, 61
1, 514755, Note_off_c, 0, 63, 59
1, 514770, Note_off_c, 0, 35, 36
1, 514789, Note_on_c, 0, 42, 38
1, 514830, Note_on_c, 0, 71, 71
1, 514920, Note_off_c, 0, 71, 58
1, 514932, Note_off_c, 0, 42, 35
1, 514955, Note_on_c, 0, 35, 39
1, 515004, Note_off_c, 0, 35, 55
1, 515061, Note_on_c, 0, 42, 50
1, 515065, Note_on_c, 0, 74, 72
1, 515134, Note_off_c, 0, 74, 56
1, 515156, Note_off_c, 0, 42, 60
1, 515197, Note_on_c, 0, 47, 48
1, 515230, Note_on_c, 0, 72, 69
1, 515295, Note_off_c, 0, 47, 35
1, 515308, Note_off_c, 0, 72, 51
1, 515346, Note_on_c, 0, 54, 47
1, 515390, Note_off_c, 0, 54, 62
1, 515407, Note_on_c, 0, 71, 71
1, 515441, Note_on_c, 0, 47, 46
1, 515459, Note_off_c, 0, 71, 61
1, 515471, Note_off_c, 0, 47, 63
1, 515508, Note_on_c, 0, 42, 60
1, 515568, Note_off_c, 0, 42, 58
1, 515633, Note_on_c, 0, 35, 54
1, 515660, Note_off_c, 0, 35, 60
1, 515757, Control_c, 0, 64, 92
1, 515768, Note_on_c, 0, 70, 71
1, 515772, Control_c, 0, 64, 70
1, 515782, Note_on_c, 0, 53, 64
1, 515783, Note_on_c, 0, 62, 56
1, 515787, Control_c, 0, 64, 61
1, 515802, Control_c, 0, 64, 63
1, 515817, Control_c, 0, 64, 67
1, 515832, Control_c, 0, 64, 74
1, 515843, Note_off_c, 0, 53, 53
1, 515846, Control_c, 0, 64, 84
1, 515861, Control_c, 0, 64, 98
1, 515876, Control_c, 0, 64, 122
1, 515891, Control_c, 0, 64, 127
1, 515924, Note_on_c, 0, 42, 50
1, 516001, Note_off_c, 0, 42, 60
1, 516011, Note_off_c, 0, 70, 62
1, 516030, Note_off_c, 0, 62, 55
1, 516064, Note_on_c, 0, 35, 27
1, 516105, Note_off_c, 0, 35, 40
1, 516190, Note_on_c, 0, 69, 78
1, 516198, Note_on_c, 0, 53, 67
1, 516211, Note_on_c, 0, 62, 51
1, 516246, Note_off_c, 0, 53, 60
1, 516288, Note_off_c, 0, 62, 59
1, 516330, Note_on_c, 0, 42, 52
1, 516397, Note_off_c, 0, 42, 57
1, 516484, Note_on_c, 0, 35, 56
1, 516535, Control_c, 0, 64, 89
1, 516550, Control_c, 0, 64, 67
1, 516565, Control_c, 0, 64, 51
1, 516567, Note_on_c, 0, 63, 55
1, 516571, Note_off_c, 0, 35, 54
1, 516579, Control_c, 0, 64, 42
1, 516594, Control_c, 0, 64, 44
1, 516599, Note_on_c, 0, 54, 42
1, 516609, Control_c, 0, 64, 54
1, 516623, Control_c, 0, 64, 64
1, 516625, Note_on_c, 0, 42, 54
1, 516638, Control_c, 0, 64, 74
1, 516653, Control_c, 0, 64, 93
1, 516668, Control_c, 0, 64, 127
1, 516710, Note_off_c, 0, 54, 61
1, 516714, Note_off_c, 0, 42, 62
1, 516730, Note_on_c, 0, 47, 49
1, 516798, Note_off_c, 0, 69, 48
1, 516803, Note_off_c, 0, 47, 58
1, 516836, Poly_aftertouch_c, 0, 66, 127
1, 516842, Note_on_c, 0, 54, 57
1, 516853, Note_off_c, 0, 63, 61
1, 516884, Poly_aftertouch_c, 0, 66, 0
1, 516897, Note_off_c, 0, 54, 60
1, 516931, Note_on_c, 0, 47, 56
1, 516975, Note_off_c, 0, 47, 57
1, 517041, Note_on_c, 0, 42, 44
1, 517128, Note_off_c, 0, 42, 61
1, 517170, Note_on_c, 0, 35, 56
1, 517251, Note_off_c, 0, 35, 55
1, 517267, Note_on_c, 0, 74, 73
1, 517307, Note_on_c, 0, 42, 51
1, 517358, Note_off_c, 0, 42, 62
1, 517402, Note_on_c, 0, 35, 63
1, 517459, Note_off_c, 0, 35, 55
1, 517476, Control_c, 0, 67, 122
1, 517491, Control_c, 0, 67, 114
1, 517506, Control_c, 0, 67, 104
1, 517512, Note_on_c, 0, 42, 50
1, 517520, Control_c, 0, 67, 90
1, 517535, Control_c, 0, 67, 76
1, 517550, Control_c, 0, 67, 63
1, 517553, Note_off_c, 0, 74, 36
1, 517564, Control_c, 0, 67, 53
1, 517576, Note_off_c, 0, 42, 59
1, 517579, Control_c, 0, 67, 42
1, 517594, Control_c, 0, 67, 0
1, 517596, Note_on_c, 0, 69, 66
1, 517608, Note_on_c, 0, 60, 58
1, 517610, Note_on_c, 0, 66, 58
1, 517624, Note_on_c, 0, 35, 57
1, 517638, Note_off_c, 0, 60, 66
1, 517642, Note_off_c, 0, 66, 65
1, 517653, Note_off_c, 0, 35, 58
1, 517655, Note_off_c, 0, 69, 62
1, 517699, Note_on_c, 0, 42, 61
1, 517784, Note_off_c, 0, 42, 60
1, 517795, Note_on_c, 0, 75, 80
1, 517830, Note_on_c, 0, 47, 33
1, 517867, Note_off_c, 0, 47, 43
1, 517877, Note_off_c, 0, 75, 61
1, 517990, Note_on_c, 0, 63, 65
1, 517996, Note_on_c, 0, 78, 78
1, 518014, Note_on_c, 0, 54, 51
1, 518017, Note_off_c, 0, 63, 66
1, 518060, Note_off_c, 0, 54, 57
1, 518103, Note_off_c, 0, 78, 57
1, 518161, Note_on_c, 0, 76, 75
1, 518182, Note_on_c, 0, 47, 59
1, 518219, Note_off_c, 0, 47, 61
1, 518243, Note_off_c, 0, 76, 61
1, 518255, Note_on_c, 0, 42, 59
1, 518312, Note_off_c, 0, 42, 53
1, 518321, Note_on_c, 0, 75, 84
1, 518346, Note_on_c, 0, 35, 69
1, 518385, Note_off_c, 0, 75, 61
1, 518444, Note_on_c, 0, 42, 58
1, 518457, Note_off_c, 0, 35, 54
1, 518514, Note_off_c, 0, 42, 63
1, 518532, Note_on_c, 0, 47, 62
1, 518563, Note_off_c, 0, 47, 64
1, 518687, Note_on_c, 0, 74, 75
1, 518690, Note_on_c, 0, 55, 67
1, 518692, Note_on_c, 0, 64, 66
1, 518699, Control_c, 0, 64, 79
1, 518722, Control_c, 0, 64, 60
1, 518737, Control_c, 0, 64, 44
1, 518752, Control_c, 0, 64, 45
1, 518766, Control_c, 0, 64, 54
1, 518781, Control_c, 0, 64, 64
1, 518796, Control_c, 0, 64, 73
1, 518810, Control_c, 0, 64, 90
1, 518825, Control_c, 0, 64, 127
1, 518841, Note_on_c, 0, 46, 60
1, 518842, Note_off_c, 0, 55, 55
1, 518863, Note_off_c, 0, 74, 60
1, 518874, Note_off_c, 0, 64, 63
1, 518938, Note_off_c, 0, 46, 57
1, 518941, Note_on_c, 0, 47, 60
1, 519052, Note_on_c, 0, 73, 87
1, 519062, Note_on_c, 0, 64, 70
1, 519063, Control_c, 0, 64, 76
1, 519067, Note_on_c, 0, 55, 65
1, 519068, Note_off_c, 0, 47, 60
1, 519078, Control_c, 0, 64, 56
1, 519092, Control_c, 0, 64, 36
1, 519107, Control_c, 0, 64, 35
1, 519122, Control_c, 0, 64, 49
1, 519136, Control_c, 0, 64, 64
1, 519151, Control_c, 0, 64, 78
1, 519166, Control_c, 0, 64, 100
1, 519169, Note_on_c, 0, 46, 71
1, 519175, Note_off_c, 0, 55, 59
1, 519181, Control_c, 0, 64, 127
1, 519264, Note_on_c, 0, 47, 63
1, 519295, Note_off_c, 0, 46, 39
1, 519345, Note_off_c, 0, 64, 59
1, 519358, Note_off_c, 0, 47, 61
1, 519380, Note_on_c, 0, 65, 82
1, 519388, Note_on_c, 0, 56, 67
1, 519498, Note_off_c, 0, 56, 62
1, 519507, Note_on_c, 0, 46, 58
1, 519590, Note_off_c, 0, 46, 54
1, 519596, Note_on_c, 0, 47, 60
1, 519706, Note_off_c, 0, 47, 60
1, 519707, Control_c, 0, 64, 95
1, 519722, Control_c, 0, 64, 64
1, 519730, Note_on_c, 0, 40, 75
1, 519737, Control_c, 0, 64, 38
1, 519766, Control_c, 0, 64, 56
1, 519781, Control_c, 0, 64, 68
1, 519782, Note_off_c, 0, 65, 59
1, 519796, Control_c, 0, 64, 83
1, 519811, Control_c, 0, 64, 127
1, 519839, Note_on_c, 0, 48, 78
1, 519845, Note_off_c, 0, 40, 62
1, 519897, Note_off_c, 0, 73, 45
1, 519928, Note_on_c, 0, 49, 80
1, 519934, Note_off_c, 0, 48, 63
1, 520026, Note_on_c, 0, 73, 89
1, 520030, Note_on_c, 0, 67, 78
1, 520035, Note_on_c, 0, 58, 81
1, 520038, Note_on_c, 0, 55, 80
1, 520047, Note_off_c, 0, 49, 57
1, 520100, Note_off_c, 0, 58, 62
1, 520107, Note_off_c, 0, 67, 60
1, 520123, Note_off_c, 0, 55, 59
1, 520130, Note_off_c, 0, 73, 62
1, 520136, Note_on_c, 0, 48, 82
1, 520243, Note_on_c, 0, 49, 77
1, 520252, Note_off_c, 0, 48, 61
1, 520338, Control_c, 0, 64, 118
1, 520353, Control_c, 0, 64, 65
1, 520357, Note_on_c, 0, 73, 92
1, 520359, Note_on_c, 0, 67, 83
1, 520364, Note_on_c, 0, 58, 83
1, 520366, Note_on_c, 0, 41, 82
1, 520368, Control_c, 0, 64, 0
1, 520370, Note_off_c, 0, 49, 63
1, 520412, Control_c, 0, 64, 44
1, 520427, Control_c, 0, 64, 65
1, 520442, Control_c, 0, 64, 84
1, 520457, Control_c, 0, 64, 127
1, 520469, Note_on_c, 0, 48, 82
1, 520484, Note_off_c, 0, 58, 61
1, 520487, Note_off_c, 0, 41, 64
1, 520497, Note_off_c, 0, 67, 62
1, 520559, Note_on_c, 0, 49, 80
1, 520560, Note_off_c, 0, 48, 61
1, 520649, Note_off_c, 0, 49, 59
1, 520659, Note_on_c, 0, 56, 88
1, 520667, Note_on_c, 0, 68, 91
1, 520670, Note_on_c, 0, 59, 94
1, 520747, Note_off_c, 0, 56, 62
1, 520756, Note_on_c, 0, 48, 73
1, 520771, Poly_aftertouch_c, 0, 70, 0
1, 520834, Note_off_c, 0, 48, 59
1, 520842, Note_on_c, 0, 49, 69
1, 520874, Note_off_c, 0, 49, 62
1, 520945, Control_c, 0, 64, 87
1, 520962, Note_off_c, 0, 59, 57
1, 520968, Control_c, 0, 64, 54
1, 520981, Note_off_c, 0, 73, 60
1, 520983, Control_c, 0, 64, 0
1, 520987, Note_on_c, 0, 43, 94
1, 520988, Note_on_c, 0, 31, 86
1, 520998, Control_c, 0, 64, 54
1, 521001, Note_off_c, 0, 68, 60
1, 521009, Note_off_c, 0, 31, 66
1, 521012, Control_c, 0, 64, 74
1, 521017, Note_off_c, 0, 43, 65
1, 521027, Control_c, 0, 64, 127
1, 521132, Note_on_c, 0, 48, 79
1, 521226, Note_on_c, 0, 49, 84
1, 521245, Note_off_c, 0, 48, 61
1, 521328, Note_on_c, 0, 73, 96
1, 521330, Note_on_c, 0, 61, 99
1, 521330, Note_on_c, 0, 70, 89
1, 521336, Note_on_c, 0, 64, 84
1, 521344, Note_on_c, 0, 58, 100
1, 521373, Note_off_c, 0, 49, 62
1, 521406, Note_off_c, 0, 73, 62
1, 521409, Note_off_c, 0, 61, 62
1, 521409, Note_off_c, 0, 64, 63
1, 521431, Note_off_c, 0, 70, 63
1, 521436, Note_off_c, 0, 58, 48
1, 521470, Note_on_c, 0, 48, 74
1, 521568, Note_on_c, 0, 49, 87
1, 521576, Note_off_c, 0, 48, 62
1, 521589, Note_off_c, 0, 49, 71
1, 521746, Control_c, 0, 64, 72
1, 521761, Control_c, 0, 64, 0
1, 521767, Note_on_c, 0, 73, 97
1, 521769, Note_on_c, 0, 61, 96
1, 521773, Note_on_c, 0, 70, 84
1, 521774, Note_on_c, 0, 64, 81
1, 521781, Note_on_c, 0, 44, 99
1, 521783, Note_on_c, 0, 32, 88
1, 521822, Control_c, 0, 64, 48
1, 521824, Note_off_c, 0, 32, 61
1, 521836, Control_c, 0, 64, 86
1, 521843, Note_off_c, 0, 44, 63
1, 521851, Control_c, 0, 64, 127
1, 521904, Note_off_c, 0, 61, 62
1, 521927, Note_off_c, 0, 64, 60
1, 521957, Note_off_c, 0, 73, 50
1, 521963, Note_off_c, 0, 70, 60
1, 521975, Note_on_c, 0, 50, 78
1, 522080, Note_on_c, 0, 53, 77
1, 522104, Note_off_c, 0, 50, 59
1, 522191, Note_on_c, 0, 74, 97
1, 522197, Note_on_c, 0, 71, 87
1, 522198, Note_on_c, 0, 59, 83
1, 522199, Note_on_c, 0, 62, 90
1, 522199, Note_on_c, 0, 65, 81
1, 522263, Note_off_c, 0, 59, 59
1, 522299, Note_on_c, 0, 56, 77
1, 522318, Note_off_c, 0, 53, 29
1, 522324, Note_off_c, 0, 56, 68
1, 522370, Note_off_c, 0, 62, 63
1, 522414, Note_off_c, 0, 74, 55
1, 522416, Note_on_c, 0, 53, 83
1, 522426, Note_off_c, 0, 65, 60
1, 522467, Note_off_c, 0, 71, 58
1, 522538, Note_on_c, 0, 50, 82
1, 522544, Note_off_c, 0, 53, 57
1, 522614, Control_c, 0, 64, 111
1, 522629, Control_c, 0, 64, 79
1, 522644, Control_c, 0, 64, 74
1, 522652, Note_on_c, 0, 47, 82
1, 522658, Control_c, 0, 64, 77
1, 522673, Control_c, 0, 64, 89
1, 522677, Note_off_c, 0, 50, 63
1, 522688, Control_c, 0, 64, 127
1, 522772, Note_on_c, 0, 44, 76
1, 522786, Note_off_c, 0, 47, 63
1, 522821, Note_off_c, 0, 44, 64
1, 522931, Note_on_c, 0, 41, 67
1, 523029, Control_c, 0, 64, 79
1, 523039, Note_on_c, 0, 81, 86
1, 523044, Control_c, 0, 64, 60
1, 523058, Control_c, 0, 64, 34
1, 523071, Note_on_c, 0, 71, 61
1, 523073, Control_c, 0, 64, 0
1, 523086, Note_on_c, 0, 77, 53
1, 523244, Control_c, 0, 64, 27
1, 523258, Control_c, 0, 64, 44
1, 523273, Control_c, 0, 64, 57
1, 523283, Note_on_c, 0, 38, 36
1, 523288, Control_c, 0, 64, 63
1, 523288, Control_c, 0, 67, 73
1, 523303, Control_c, 0, 64, 66
1, 523303, Control_c, 0, 67, 127
1, 523317, Control_c, 0, 64, 70
1, 523332, Control_c, 0, 64, 77
1, 523339, Note_off_c, 0, 41, 37
1, 523347, Control_c, 0, 64, 84
1, 523362, Control_c, 0, 64, 93
1, 523378, Control_c, 0, 64, 101
1, 523379, Note_off_c, 0, 71, 60
1, 523387, Note_off_c, 0, 38, 46
1, 523393, Control_c, 0, 64, 111
1, 523407, Control_c, 0, 64, 127
1, 523411, Note_on_c, 0, 35, 43
1, 523514, Note_off_c, 0, 77, 38
1, 523600, Control_c, 0, 64, 101
1, 523600, Note_off_c, 0, 35, 41
1, 523602, Note_on_c, 0, 30, 45
1, 523615, Control_c, 0, 64, 80
1, 523630, Control_c, 0, 64, 65
1, 523644, Control_c, 0, 64, 46
1, 523659, Control_c, 0, 64, 32
1, 523674, Control_c, 0, 64, 28
1, 523686, Note_on_c, 0, 70, 48
1, 523689, Control_c, 0, 64, 33
1, 523693, Note_on_c, 0, 76, 41
1, 523704, Control_c, 0, 64, 46
1, 523719, Control_c, 0, 64, 59
1, 523733, Control_c, 0, 64, 69
1, 523748, Control_c, 0, 64, 80
1, 523763, Control_c, 0, 64, 91
1, 523778, Control_c, 0, 64, 100
1, 523793, Control_c, 0, 64, 111
1, 523807, Control_c, 0, 64, 127
1, 523813, Note_off_c, 0, 30, 38
1, 523823, Note_on_c, 0, 37, 50
1, 523871, Note_off_c, 0, 70, 36
1, 523877, Note_off_c, 0, 81, 61
1, 523880, Note_on_c, 0, 82, 58
1, 523910, Note_off_c, 0, 37, 58
1, 523917, Note_off_c, 0, 76, 36
1, 523944, Note_on_c, 0, 42, 48
1, 523984, Note_off_c, 0, 82, 62
1, 524017, Note_off_c, 0, 42, 57
1, 524073, Note_on_c, 0, 85, 69
1, 524080, Note_on_c, 0, 49, 47
1, 524153, Note_off_c, 0, 49, 62
1, 524176, Note_off_c, 0, 85, 58
1, 524193, Note_on_c, 0, 42, 43
1, 524230, Note_on_c, 0, 83, 64
1, 524245, Note_off_c, 0, 42, 60
1, 524283, Note_on_c, 0, 37, 52
1, 524387, Note_off_c, 0, 37, 60
1, 524388, Note_on_c, 0, 82, 65
1, 524395, Note_off_c, 0, 83, 42
1, 524426, Note_on_c, 0, 30, 52
1, 524438, Note_off_c, 0, 82, 62
1, 524482, Note_off_c, 0, 30, 59
1, 524513, Note_on_c, 0, 37, 58
1, 524573, Note_off_c, 0, 37, 59
1, 524607, Note_on_c, 0, 42, 53
1, 524676, Note_off_c, 0, 42, 56
1, 524736, Note_on_c, 0, 69, 80
1, 524757, Note_on_c, 0, 50, 42
1, 524762, Note_on_c, 0, 65, 58
1, 524770, Note_on_c, 0, 59, 47
1, 524771, Control_c, 0, 64, 100
1, 524786, Control_c, 0, 64, 72
1, 524801, Control_c, 0, 64, 57
1, 524816, Control_c, 0, 64, 53
1, 524828, Note_off_c, 0, 50, 55
1, 524831, Control_c, 0, 64, 58
1, 524846, Control_c, 0, 64, 66
1, 524851, Note_on_c, 0, 42, 48
1, 524861, Control_c, 0, 64, 77
1, 524876, Control_c, 0, 64, 103
1, 524890, Control_c, 0, 64, 127
1, 524895, Note_off_c, 0, 59, 64
1, 524920, Note_off_c, 0, 69, 58
1, 524927, Note_off_c, 0, 42, 61
1, 524930, Note_on_c, 0, 38, 56
1, 524930, Note_off_c, 0, 65, 58
1, 524962, Note_off_c, 0, 38, 62
1, 525054, Control_c, 0, 64, 79
1, 525069, Control_c, 0, 64, 54
1, 525076, Note_on_c, 0, 69, 61
1, 525084, Control_c, 0, 64, 0
1, 525084, Note_on_c, 0, 30, 56
1, 525098, Note_on_c, 0, 58, 46
1, 525102, Note_on_c, 0, 64, 44
1, 525128, Control_c, 0, 64, 40
1, 525143, Control_c, 0, 64, 56
1, 525158, Control_c, 0, 64, 64
1, 525169, Note_off_c, 0, 30, 62
1, 525173, Control_c, 0, 64, 70
1, 525187, Note_on_c, 0, 37, 59
1, 525187, Control_c, 0, 64, 74
1, 525202, Control_c, 0, 64, 79
1, 525205, Note_off_c, 0, 69, 58
1, 525217, Control_c, 0, 64, 84
1, 525232, Control_c, 0, 64, 90
1, 525247, Control_c, 0, 64, 96
1, 525261, Control_c, 0, 64, 104
1, 525271, Note_off_c, 0, 37, 60
1, 525276, Control_c, 0, 64, 121
1, 525291, Control_c, 0, 64, 127
1, 525299, Note_on_c, 0, 42, 47
1, 525372, Note_off_c, 0, 42, 47
1, 525424, Note_on_c, 0, 70, 68
1, 525435, Note_on_c, 0, 49, 45
1, 525476, Control_c, 0, 64, 92
1, 525491, Control_c, 0, 64, 68
1, 525505, Control_c, 0, 64, 49
1, 525520, Control_c, 0, 64, 30
1, 525535, Control_c, 0, 64, 32
1, 525550, Control_c, 0, 64, 46
1, 525551, Note_off_c, 0, 49, 60
1, 525565, Control_c, 0, 64, 61
1, 525573, Note_on_c, 0, 42, 43
1, 525579, Control_c, 0, 64, 70
1, 525594, Control_c, 0, 64, 80
1, 525609, Control_c, 0, 64, 90
1, 525624, Control_c, 0, 64, 100
1, 525630, Note_off_c, 0, 42, 62
1, 525639, Control_c, 0, 64, 114
1, 525654, Control_c, 0, 64, 127
1, 525675, Note_on_c, 0, 37, 53
1, 525699, Note_off_c, 0, 58, 62
1, 525746, Note_off_c, 0, 64, 60
1, 525756, Note_off_c, 0, 37, 60
1, 525767, Note_off_c, 0, 70, 62
1, 525797, Note_on_c, 0, 30, 46
1, 525841, Note_off_c, 0, 30, 56
1, 525892, Note_on_c, 0, 37, 49
1, 525958, Note_off_c, 0, 37, 52
1, 526005, Note_on_c, 0, 42, 43
1, 526108, Note_on_c, 0, 75, 75
1, 526122, Note_off_c, 0, 42, 38
1, 526158, Note_on_c, 0, 49, 37
1, 526217, Note_off_c, 0, 49, 60
1, 526254, Note_on_c, 0, 42, 50
1, 526291, Note_off_c, 0, 42, 62
1, 526353, Note_on_c, 0, 37, 52
1, 526452, Note_off_c, 0, 37, 60
1, 526469, Note_on_c, 0, 70, 49
1, 526489, Note_on_c, 0, 67, 46
1, 526491, Note_on_c, 0, 61, 43
1, 526499, Note_on_c, 0, 30, 28
1, 526522, Note_off_c, 0, 61, 63
1, 526523, Note_off_c, 0, 70, 58
1, 526536, Note_off_c, 0, 67, 62
1, 526593, Note_off_c, 0, 75, 59
1, 526652, Note_off_c, 0, 30, 42
1, 526659, Note_on_c, 0, 37, 42
1, 526731, Note_on_c, 0, 76, 69
1, 526824, Note_on_c, 0, 42, 43
1, 526825, Note_off_c, 0, 76, 63
1, 526832, Note_off_c, 0, 37, 34
1, 526991, Note_on_c, 0, 79, 66
1, 527001, Note_off_c, 0, 42, 57
1, 527040, Note_on_c, 0, 49, 35
1, 527126, Note_off_c, 0, 49, 57
1, 527137, Note_off_c, 0, 79, 46
1, 527165, Note_on_c, 0, 42, 41
1, 527193, Note_on_c, 0, 78, 71
1, 527230, Note_off_c, 0, 42, 58
1, 527280, Note_on_c, 0, 37, 43
1, 527323, Note_off_c, 0, 78, 37
1, 527379, Note_off_c, 0, 37, 57
1, 527383, Note_on_c, 0, 76, 69
1, 527418, Note_on_c, 0, 30, 39
1, 527433, Note_off_c, 0, 76, 60
1, 527461, Note_off_c, 0, 30, 48
1, 527536, Note_on_c, 0, 37, 35
1, 527573, Note_off_c, 0, 37, 52
1, 527625, Note_on_c, 0, 42, 44
1, 527705, Note_off_c, 0, 42, 51
1, 527752, Note_on_c, 0, 67, 69
1, 527777, Note_on_c, 0, 57, 43
1, 527779, Note_on_c, 0, 64, 47
1, 527781, Control_c, 0, 64, 103
1, 527791, Note_on_c, 0, 48, 36
1, 527796, Control_c, 0, 64, 77
1, 527811, Control_c, 0, 64, 61
1, 527826, Control_c, 0, 64, 47
1, 527841, Control_c, 0, 64, 46
1, 527855, Control_c, 0, 64, 52
1, 527870, Control_c, 0, 64, 60
1, 527885, Control_c, 0, 64, 66
1, 527899, Control_c, 0, 64, 74
1, 527903, Note_on_c, 0, 42, 26
1, 527914, Control_c, 0, 64, 83
1, 527929, Control_c, 0, 64, 95
1, 527936, Note_off_c, 0, 48, 33
1, 527944, Control_c, 0, 64, 108
1, 527959, Control_c, 0, 64, 127
1, 527960, Note_off_c, 0, 57, 60
1, 527982, Note_off_c, 0, 64, 61
1, 528009, Note_off_c, 0, 67, 51
1, 528010, Note_on_c, 0, 36, 54
1, 528041, Note_off_c, 0, 42, 42
1, 528053, Note_off_c, 0, 36, 62
1, 528212, Note_on_c, 0, 67, 58
1, 528220, Note_on_c, 0, 30, 48
1, 528226, Control_c, 0, 64, 94
1, 528228, Note_on_c, 0, 58, 40
1, 528234, Note_on_c, 0, 64, 47
1, 528242, Control_c, 0, 64, 73
1, 528257, Control_c, 0, 64, 60
1, 528271, Control_c, 0, 64, 49
1, 528286, Control_c, 0, 64, 46
1, 528301, Control_c, 0, 64, 48
1, 528316, Control_c, 0, 64, 55
1, 528330, Control_c, 0, 64, 63
1, 528342, Note_off_c, 0, 30, 43
1, 528345, Control_c, 0, 64, 68
1, 528360, Note_on_c, 0, 37, 49
1, 528360, Control_c, 0, 64, 76
1, 528375, Control_c, 0, 64, 84
1, 528390, Control_c, 0, 64, 91
1, 528405, Control_c, 0, 64, 97
1, 528420, Control_c, 0, 64, 101
1, 528435, Control_c, 0, 64, 106
1, 528453, Note_off_c, 0, 37, 61
1, 528457, Control_c, 0, 64, 112
1, 528464, Note_off_c, 0, 58, 55
1, 528472, Control_c, 0, 64, 127
1, 528491, Note_on_c, 0, 42, 38
1, 528562, Note_off_c, 0, 42, 55
1, 528580, Note_on_c, 0, 66, 58
1, 528617, Note_on_c, 0, 49, 44
1, 528641, Note_off_c, 0, 67, 50
1, 528679, Note_off_c, 0, 49, 57
1, 528686, Note_off_c, 0, 64, 38
1, 528700, Note_on_c, 0, 42, 47
1, 528760, Note_off_c, 0, 42, 62
1, 528786, Note_off_c, 0, 66, 63
1, 528793, Note_on_c, 0, 37, 53
1, 528885, Note_off_c, 0, 37, 60
1, 528924, Note_on_c, 0, 30, 40
1, 528964, Note_off_c, 0, 30, 54
1, 529028, Note_on_c, 0, 37, 45
1, 529082, Note_off_c, 0, 37, 60
1, 529125, Note_on_c, 0, 42, 47
1, 529255, Note_off_c, 0, 42, 51
1, 529289, Note_on_c, 0, 49, 42
1, 529308, Note_on_c, 0, 75, 66
1, 529407, Note_off_c, 0, 49, 55
1, 529437, Note_on_c, 0, 42, 38
1, 529511, Note_off_c, 0, 42, 59
1, 529561, Note_on_c, 0, 37, 41
1, 529645, Note_off_c, 0, 37, 47
1, 529729, Note_on_c, 0, 30, 45
1, 529833, Note_off_c, 0, 30, 56
1, 529839, Note_off_c, 0, 75, 58
1, 529891, Note_on_c, 0, 42, 44
1, 529919, Note_off_c, 0, 42, 57
1, 529994, Note_on_c, 0, 76, 70
1, 530074, Note_off_c, 0, 76, 59
1, 530107, Note_on_c, 0, 49, 58
1, 530259, Note_off_c, 0, 49, 57
1, 530266, Note_on_c, 0, 55, 49
1, 530374, Note_on_c, 0, 69, 83
1, 530380, Note_on_c, 0, 79, 71
1, 530387, Note_off_c, 0, 55, 54
1, 530454, Note_off_c, 0, 79, 59
1, 530483, Note_on_c, 0, 49, 40
1, 530519, Note_off_c, 0, 49, 62
1, 530658, Note_on_c, 0, 78, 69
1, 530696, Note_on_c, 0, 42, 47
1, 530743, Note_off_c, 0, 78, 60
1, 530760, Note_off_c, 0, 42, 56
1, 530837, Note_on_c, 0, 30, 44
1, 530868, Note_on_c, 0, 76, 62
1, 530903, Note_off_c, 0, 30, 57
1, 530961, Note_on_c, 0, 42, 38
1, 530994, Note_off_c, 0, 42, 53
1, 531040, Note_off_c, 0, 76, 56
1, 531050, Note_on_c, 0, 70, 66
1, 531067, Note_off_c, 0, 69, 56
1, 531097, Note_off_c, 0, 70, 60
1, 531112, Note_on_c, 0, 49, 56
1, 531222, Note_off_c, 0, 49, 56
1, 531261, Note_on_c, 0, 55, 32
1, 531294, Note_on_c, 0, 63, 85
1, 531295, Control_c, 0, 67, 90
1, 531296, Note_on_c, 0, 73, 78
1, 531310, Control_c, 0, 67, 47
1, 531319, Note_off_c, 0, 55, 43
1, 531324, Control_c, 0, 67, 0
1, 531359, Note_on_c, 0, 49, 48
1, 531380, Note_off_c, 0, 73, 50
1, 531401, Note_off_c, 0, 49, 62
1, 531505, Note_on_c, 0, 71, 67
1, 531535, Note_on_c, 0, 42, 55
1, 531540, Note_off_c, 0, 63, 54
1, 531600, Note_off_c, 0, 42, 59
1, 531641, Note_on_c, 0, 30, 66
1, 531660, Note_on_c, 0, 70, 80
1, 531677, Note_off_c, 0, 71, 61
1, 531720, Note_off_c, 0, 30, 60
1, 531748, Note_on_c, 0, 42, 56
1, 531772, Note_off_c, 0, 42, 63
1, 531799, Note_on_c, 0, 64, 83
1, 531813, Note_off_c, 0, 70, 61
1, 531842, Note_off_c, 0, 64, 66
1, 531874, Note_on_c, 0, 49, 66
1, 531958, Note_off_c, 0, 49, 59
1, 531961, Note_on_c, 0, 57, 85
1, 531962, Note_on_c, 0, 67, 79
1, 531975, Note_on_c, 0, 55, 77
1, 532012, Note_off_c, 0, 55, 62
1, 532014, Note_off_c, 0, 67, 61
1, 532069, Note_on_c, 0, 49, 39
1, 532092, Note_off_c, 0, 49, 61
1, 532122, Note_on_c, 0, 66, 88
1, 532152, Note_on_c, 0, 42, 78
1, 532198, Note_off_c, 0, 66, 60
1, 532231, Note_off_c, 0, 42, 61
1, 532263, Note_on_c, 0, 64, 88
1, 532265, Note_on_c, 0, 30, 71
1, 532324, Note_off_c, 0, 57, 57
1, 532332, Note_on_c, 0, 42, 68
1, 532333, Note_off_c, 0, 30, 61
1, 532360, Note_off_c, 0, 42, 66
1, 532367, Poly_aftertouch_c, 0, 32, 127
1, 532392, Note_on_c, 0, 58, 91
1, 532404, Poly_aftertouch_c, 0, 32, 0
1, 532418, Note_off_c, 0, 64, 63
1, 532438, Note_on_c, 0, 49, 78
1, 532485, Note_off_c, 0, 58, 60
1, 532498, Poly_aftertouch_c, 0, 57, 0
1, 532512, Note_off_c, 0, 49, 64
1, 532536, Note_on_c, 0, 55, 83
1, 532543, Note_on_c, 0, 61, 90
1, 532586, Note_off_c, 0, 55, 62
1, 532600, Note_on_c, 0, 49, 76
1, 532627, Note_off_c, 0, 49, 66
1, 532658, Note_on_c, 0, 59, 94
1, 532686, Note_off_c, 0, 61, 62
1, 532762, Control_c, 0, 64, 85
1, 532777, Control_c, 0, 64, 50
1, 532792, Control_c, 0, 64, 0
1, 532807, Note_on_c, 0, 42, 88
1, 532809, Note_on_c, 0, 30, 66
1, 532813, Note_on_c, 0, 57, 84
1, 532814, Note_off_c, 0, 59, 63
1, 532836, Control_c, 0, 64, 41
1, 532839, Note_off_c, 0, 30, 61
1, 532846, Note_off_c, 0, 42, 62
1, 532851, Control_c, 0, 64, 68
1, 532866, Control_c, 0, 64, 88
1, 532880, Control_c, 0, 64, 127
1, 532981, Note_on_c, 0, 58, 78
1, 533027, Note_off_c, 0, 57, 51
1, 533133, Note_on_c, 0, 64, 68
1, 533145, Note_on_c, 0, 70, 80
1, 533157, Note_on_c, 0, 61, 67
1, 533198, Note_off_c, 0, 58, 44
1, 533279, Note_on_c, 0, 59, 77
1, 533306, Note_off_c, 0, 61, 61
1, 533332, Note_off_c, 0, 64, 62
1, 533371, Note_off_c, 0, 70, 52
1, 533386, Note_off_c, 0, 59, 64
1, 533388, Note_on_c, 0, 57, 82
1, 533501, Note_on_c, 0, 58, 81
1, 533535, Note_off_c, 0, 57, 62
1, 533610, Note_on_c, 0, 64, 78
1, 533610, Note_on_c, 0, 73, 88
1, 533613, Note_on_c, 0, 67, 78
1, 533626, Note_off_c, 0, 58, 61
1, 533699, Note_off_c, 0, 73, 60
1, 533709, Note_off_c, 0, 67, 56
1, 533717, Note_on_c, 0, 61, 77
1, 533723, Note_off_c, 0, 64, 62
1, 533815, Control_c, 0, 64, 118
1, 533830, Note_on_c, 0, 57, 75
1, 533830, Control_c, 0, 64, 71
1, 533836, Note_on_c, 0, 76, 81
1, 533844, Note_on_c, 0, 73, 59
1, 533845, Note_off_c, 0, 61, 58
1, 533845, Control_c, 0, 64, 40
1, 533855, Note_on_c, 0, 67, 59
1, 533860, Control_c, 0, 64, 0
1, 533890, Control_c, 0, 64, 40
1, 533905, Control_c, 0, 64, 59
1, 533920, Control_c, 0, 64, 72
1, 533932, Note_off_c, 0, 76, 61
1, 533935, Control_c, 0, 64, 92
1, 533941, Note_on_c, 0, 58, 79
1, 533949, Control_c, 0, 64, 127
1, 533976, Note_off_c, 0, 73, 64
1, 533985, Note_off_c, 0, 57, 62
1, 533999, Note_off_c, 0, 67, 63
1, 534038, Note_on_c, 0, 61, 80
1, 534059, Note_off_c, 0, 58, 60
1, 534129, Note_on_c, 0, 59, 75
1, 534137, Note_off_c, 0, 61, 61
1, 534211, Note_off_c, 0, 59, 65
1, 534215, Control_c, 0, 64, 80
1, 534226, Note_on_c, 0, 57, 74
1, 534231, Note_on_c, 0, 42, 77
1, 534231, Control_c, 0, 64, 59
1, 534246, Control_c, 0, 64, 34
1, 534247, Note_on_c, 0, 30, 63
1, 534260, Control_c, 0, 64, 0
1, 534275, Control_c, 0, 64, 35
1, 534290, Control_c, 0, 64, 53
1, 534305, Control_c, 0, 64, 65
1, 534320, Control_c, 0, 64, 74
1, 534327, Note_off_c, 0, 57, 57
1, 534329, Note_on_c, 0, 58, 73
1, 534334, Control_c, 0, 64, 82
1, 534349, Control_c, 0, 64, 86
1, 534364, Control_c, 0, 64, 88
1, 534379, Control_c, 0, 64, 91
1, 534394, Control_c, 0, 64, 96
1, 534408, Control_c, 0, 64, 101
1, 534423, Control_c, 0, 64, 107
1, 534426, Note_on_c, 0, 67, 77
1, 534437, Note_off_c, 0, 58, 62
1, 534446, Control_c, 0, 64, 112
1, 534461, Control_c, 0, 64, 127
1, 534510, Note_on_c, 0, 64, 74
1, 534516, Note_off_c, 0, 67, 62
1, 534586, Note_off_c, 0, 64, 64
1, 534603, Note_on_c, 0, 60, 83
1, 534671, Note_off_c, 0, 60, 62
1, 534687, Note_on_c, 0, 61, 80
1, 534692, Note_off_c, 0, 30, 60
1, 534701, Note_off_c, 0, 42, 62
1, 534767, Note_on_c, 0, 70, 78
1, 534768, Note_off_c, 0, 61, 63
1, 534850, Note_on_c, 0, 67, 75
1, 534861, Note_off_c, 0, 70, 61
1, 534921, Note_off_c, 0, 67, 63
1, 534929, Note_on_c, 0, 63, 84
1, 535019, Note_on_c, 0, 64, 80
1, 535029, Note_off_c, 0, 63, 63
1, 535097, Note_on_c, 0, 73, 84
1, 535102, Note_off_c, 0, 64, 63
1, 535181, Note_on_c, 0, 70, 80
1, 535195, Control_c, 0, 64, 103
1, 535210, Control_c, 0, 64, 63
1, 535216, Note_off_c, 0, 73, 60
1, 535224, Control_c, 0, 64, 0
1, 535239, Control_c, 0, 64, 32
1, 535254, Control_c, 0, 64, 57
1, 535257, Note_off_c, 0, 70, 65
1, 535269, Note_on_c, 0, 54, 90
1, 535269, Control_c, 0, 64, 79
1, 535270, Note_on_c, 0, 42, 70
1, 535277, Note_on_c, 0, 69, 92
1, 535284, Control_c, 0, 64, 127
1, 535291, Note_off_c, 0, 54, 67
1, 535294, Note_off_c, 0, 42, 66
1, 535389, Note_on_c, 0, 70, 81
1, 535520, Note_on_c, 0, 76, 75
1, 535526, Note_on_c, 0, 73, 85
1, 535532, Note_on_c, 0, 82, 92
1, 535543, Note_off_c, 0, 70, 63
1, 535550, Note_off_c, 0, 69, 61
1, 535616, Note_off_c, 0, 76, 64
1, 535631, Note_on_c, 0, 71, 89
1, 535637, Note_off_c, 0, 73, 61
1, 535649, Note_off_c, 0, 82, 56
1, 535705, Note_off_c, 0, 71, 66
1, 535718, Note_on_c, 0, 69, 91
1, 535791, Note_on_c, 0, 70, 88
1, 535812, Note_off_c, 0, 69, 59
1, 535879, Note_on_c, 0, 76, 88
1, 535881, Note_on_c, 0, 85, 106
1, 535887, Note_off_c, 0, 70, 63
1, 535889, Note_on_c, 0, 79, 81
1, 535916, Note_on_c, 0, 81, 40
1, 535951, Note_off_c, 0, 81, 54
1, 535957, Note_off_c, 0, 85, 57
1, 535971, Note_on_c, 0, 73, 82
1, 535990, Note_off_c, 0, 79, 52
1, 535996, Note_off_c, 0, 76, 63
1, 536047, Note_on_c, 0, 88, 99
1, 536054, Note_on_c, 0, 69, 83
1, 536054, Note_on_c, 0, 85, 88
1, 536060, Note_off_c, 0, 73, 62
1, 536060, Note_on_c, 0, 79, 69
1, 536076, Note_off_c, 0, 88, 70
1, 536090, Note_off_c, 0, 85, 70
1, 536104, Note_off_c, 0, 79, 67
1, 536139, Note_on_c, 0, 70, 86
1, 536169, Note_off_c, 0, 69, 60
1, 536225, Note_on_c, 0, 73, 79
1, 536246, Note_off_c, 0, 70, 58
1, 536313, Note_on_c, 0, 71, 85
1, 536325, Note_off_c, 0, 73, 62
1, 536352, Poly_aftertouch_c, 0, 70, 127
1, 536359, Control_c, 0, 64, 88
1, 536372, Note_off_c, 0, 71, 64
1, 536374, Control_c, 0, 64, 56
1, 536376, Poly_aftertouch_c, 0, 70, 0
1, 536379, Note_on_c, 0, 54, 93
1, 536380, Note_on_c, 0, 69, 87
1, 536382, Note_on_c, 0, 42, 84
1, 536389, Control_c, 0, 64, 0
1, 536404, Control_c, 0, 64, 42
1, 536418, Control_c, 0, 64, 61
1, 536429, Note_off_c, 0, 54, 65
1, 536433, Note_off_c, 0, 42, 63
1, 536433, Control_c, 0, 64, 77
1, 536443, Note_off_c, 0, 69, 56
1, 536448, Control_c, 0, 64, 113
1, 536462, Control_c, 0, 64, 127
1, 536463, Note_on_c, 0, 70, 86
1, 536545, Note_off_c, 0, 70, 63
1, 536554, Note_on_c, 0, 79, 78
1, 536621, Note_on_c, 0, 76, 79
1, 536631, Note_off_c, 0, 79, 63
1, 536671, Note_off_c, 0, 76, 65
1, 536706, Note_on_c, 0, 63, 77
1, 536708, Note_on_c, 0, 72, 86
1, 536747, Note_off_c, 0, 72, 63
1, 536781, Note_off_c, 0, 63, 62
1, 536784, Note_on_c, 0, 73, 80
1, 536787, Note_on_c, 0, 64, 64
1, 536825, Note_off_c, 0, 73, 61
1, 536865, Note_on_c, 0, 73, 60
1, 536867, Note_on_c, 0, 82, 80
1, 536874, Note_off_c, 0, 64, 61
1, 536935, Note_on_c, 0, 79, 69
1, 536942, Note_off_c, 0, 73, 59
1, 536943, Note_off_c, 0, 82, 62
1, 536954, Note_on_c, 0, 70, 70
1, 536988, Note_off_c, 0, 79, 65
1, 537008, Note_on_c, 0, 75, 92
1, 537009, Note_on_c, 0, 66, 82
1, 537017, Note_off_c, 0, 70, 62
1, 537076, Note_on_c, 0, 76, 84
1, 537077, Note_off_c, 0, 75, 59
1, 537088, Note_on_c, 0, 67, 69
1, 537100, Note_off_c, 0, 66, 60
1, 537136, Note_off_c, 0, 76, 61
1, 537162, Note_on_c, 0, 85, 81
1, 537172, Note_off_c, 0, 67, 60
1, 537177, Note_on_c, 0, 76, 66
1, 537236, Note_on_c, 0, 82, 78
1, 537237, Note_off_c, 0, 76, 63
1, 537247, Note_on_c, 0, 73, 75
1, 537247, Note_off_c, 0, 85, 62
1, 537294, Note_off_c, 0, 82, 61
1, 537294, Note_on_c, 0, 78, 85
1, 537302, Note_off_c, 0, 73, 60
1, 537313, Note_on_c, 0, 69, 83
1, 537366, Note_on_c, 0, 79, 83
1, 537377, Note_off_c, 0, 78, 57
1, 537389, Note_on_c, 0, 70, 75
1, 537395, Note_off_c, 0, 69, 57
1, 537413, Note_off_c, 0, 79, 64
1, 537453, Note_on_c, 0, 88, 87
1, 537464, Note_on_c, 0, 79, 71
1, 537481, Note_off_c, 0, 70, 62
1, 537515, Note_off_c, 0, 79, 63
1, 537529, Note_on_c, 0, 85, 87
1, 537529, Note_on_c, 0, 76, 74
1, 537531, Note_off_c, 0, 88, 67
1, 537576, Note_off_c, 0, 85, 66
1, 537577, Note_off_c, 0, 76, 65
1, 537598, Note_on_c, 0, 81, 96
1, 537603, Note_on_c, 0, 72, 84
1, 537659, Note_off_c, 0, 72, 64
1, 537661, Note_on_c, 0, 73, 81
1, 537671, Note_on_c, 0, 82, 93
1, 537677, Note_off_c, 0, 81, 62
1, 537711, Note_off_c, 0, 82, 68
1, 537747, Note_on_c, 0, 91, 91
1, 537750, Note_on_c, 0, 82, 69
1, 537759, Note_off_c, 0, 73, 60
1, 537801, Note_off_c, 0, 82, 63
1, 537810, Note_on_c, 0, 79, 66
1, 537816, Note_on_c, 0, 88, 86
1, 537838, Note_off_c, 0, 91, 65
1, 537865, Note_off_c, 0, 88, 65
1, 537871, Control_c, 0, 64, 71
1, 537881, Note_off_c, 0, 79, 62
1, 537886, Control_c, 0, 64, 36
1, 537887, Note_on_c, 0, 84, 93
1, 537901, Control_c, 0, 64, 0
1, 537902, Note_on_c, 0, 75, 86
1, 537915, Control_c, 0, 64, 41
1, 537930, Control_c, 0, 64, 64
1, 537945, Control_c, 0, 64, 78
1, 537960, Control_c, 0, 64, 127
1, 537965, Note_on_c, 0, 85, 95
1, 537967, Note_off_c, 0, 84, 60
1, 537977, Note_on_c, 0, 76, 73
1, 537992, Note_off_c, 0, 75, 61
1, 538003, Note_off_c, 0, 85, 69
1, 538044, Note_on_c, 0, 94, 92
1, 538053, Note_on_c, 0, 85, 81
1, 538070, Note_off_c, 0, 76, 62
1, 538108, Note_on_c, 0, 91, 83
1, 538120, Note_off_c, 0, 85, 64
1, 538121, Note_on_c, 0, 82, 77
1, 538142, Note_off_c, 0, 94, 63
1, 538194, Note_on_c, 0, 75, 87
1, 538195, Note_off_c, 0, 91, 66
1, 538199, Note_on_c, 0, 84, 97
1, 538201, Note_off_c, 0, 82, 61
1, 538275, Note_on_c, 0, 85, 98
1, 538287, Note_on_c, 0, 76, 70
1, 538288, Note_off_c, 0, 84, 66
1, 538310, Note_off_c, 0, 75, 62
1, 538322, Note_off_c, 0, 85, 69
1, 538349, Note_on_c, 0, 94, 98
1, 538352, Note_on_c, 0, 85, 75
1, 538405, Note_on_c, 0, 95, 14
1, 538415, Note_off_c, 0, 76, 52
1, 538429, Note_off_c, 0, 85, 64
1, 538431, Note_on_c, 0, 91, 89
1, 538433, Note_on_c, 0, 82, 82
1, 538439, Note_on_c, 0, 92, 50
1, 538442, Note_off_c, 0, 95, 36
1, 538465, Note_off_c, 0, 92, 54
1, 538469, Note_off_c, 0, 94, 63
1, 538486, Control_c, 0, 64, 75
1, 538501, Control_c, 0, 64, 0
1, 538502, Note_on_c, 0, 75, 91
1, 538502, Note_on_c, 0, 84, 95
1, 538509, Note_off_c, 0, 82, 61
1, 538522, Note_off_c, 0, 91, 67
1, 538546, Control_c, 0, 64, 47
1, 538561, Control_c, 0, 64, 72
1, 538576, Control_c, 0, 64, 127
1, 538617, Note_on_c, 0, 85, 94
1, 538623, Note_off_c, 0, 84, 66
1, 538628, Note_on_c, 0, 76, 77
1, 538644, Note_off_c, 0, 75, 59
1, 538656, Note_off_c, 0, 85, 67
1, 538717, Note_on_c, 0, 88, 99
1, 538721, Note_off_c, 0, 76, 63
1, 538724, Note_on_c, 0, 79, 81
1, 538817, Note_on_c, 0, 91, 100
1, 538844, Note_on_c, 0, 82, 86
1, 538848, Note_off_c, 0, 79, 66
1, 538974, Note_on_c, 0, 100, 107
1, 538978, Note_on_c, 0, 85, 100
1, 538978, Note_on_c, 0, 94, 98
1, 538999, Note_off_c, 0, 82, 57
1, 539008, Note_off_c, 0, 91, 65
1, 539061, Poly_aftertouch_c, 0, 84, 127
1, 539086, Poly_aftertouch_c, 0, 84, 0
1, 539106, Note_on_c, 0, 82, 78
1, 539111, Note_on_c, 0, 91, 86
1, 539116, Note_off_c, 0, 88, 62
1, 539117, Note_off_c, 0, 85, 60
1, 539121, Note_off_c, 0, 100, 66
1, 539151, Note_off_c, 0, 94, 64
1, 539152, Note_off_c, 0, 82, 66
1, 539189, Note_off_c, 0, 91, 67
1, 539216, Note_on_c, 0, 88, 83
1, 539229, Note_on_c, 0, 79, 75
1, 539282, Note_off_c, 0, 79, 60
1, 539306, Note_off_c, 0, 88, 69
1, 539306, Note_on_c, 0, 76, 82
1, 539327, Note_on_c, 0, 86, 71
1, 539375, Note_off_c, 0, 76, 62
1, 539386, Note_on_c, 0, 73, 78
1, 539407, Note_on_c, 0, 82, 74
1, 539412, Note_off_c, 0, 86, 63
1, 539420, Note_on_c, 0, 81, 80
1, 539467, Note_off_c, 0, 73, 61
1, 539468, Note_off_c, 0, 81, 60
1, 539476, Note_off_c, 0, 82, 62
1, 539479, Note_on_c, 0, 70, 60
1, 539490, Note_on_c, 0, 79, 73
1, 539506, Note_off_c, 0, 70, 67
1, 539513, Note_on_c, 0, 67, 69
1, 539546, Note_off_c, 0, 79, 65
1, 539555, Note_on_c, 0, 76, 85
1, 539619, Note_off_c, 0, 76, 62
1, 539620, Note_on_c, 0, 78, 50
1, 539622, Note_on_c, 0, 70, 73
1, 539622, Note_on_c, 0, 79, 86
1, 539623, Note_off_c, 0, 67, 63
1, 539644, Note_off_c, 0, 78, 42
1, 539690, Note_off_c, 0, 79, 66
1, 539692, Note_on_c, 0, 82, 87
1, 539695, Note_on_c, 0, 88, 84
1, 539697, Note_on_c, 0, 73, 86
1, 539700, Note_off_c, 0, 70, 64
1, 539750, Note_off_c, 0, 73, 65
1, 539756, Note_on_c, 0, 70, 60
1, 539760, Note_on_c, 0, 79, 80
1, 539764, Note_off_c, 0, 88, 66
1, 539774, Note_off_c, 0, 82, 63
1, 539789, Note_off_c, 0, 70, 68
1, 539801, Note_off_c, 0, 79, 66
1, 539826, Note_on_c, 0, 76, 77
1, 539846, Note_on_c, 0, 67, 82
1, 539873, Note_off_c, 0, 76, 65
1, 539902, Note_on_c, 0, 73, 82
1, 539902, Note_off_c, 0, 67, 59
1, 539920, Note_on_c, 0, 64, 76
1, 539971, Note_on_c, 0, 61, 77
1, 539971, Note_off_c, 0, 64, 66
1, 539974, Note_on_c, 0, 70, 79
1, 539975, Note_off_c, 0, 73, 62
1, 540035, Note_on_c, 0, 67, 76
1, 540042, Note_off_c, 0, 70, 64
1, 540045, Note_off_c, 0, 61, 63
1, 540066, Note_on_c, 0, 58, 61
1, 540092, Note_on_c, 0, 55, 67
1, 540093, Note_off_c, 0, 58, 65
1, 540093, Note_off_c, 0, 67, 62
1, 540098, Note_on_c, 0, 64, 83
1, 540165, Note_on_c, 0, 67, 86
1, 540170, Note_off_c, 0, 64, 64
1, 540191, Note_off_c, 0, 55, 60
1, 540214, Note_on_c, 0, 58, 66
1, 540222, Note_on_c, 0, 76, 82
1, 540224, Note_off_c, 0, 67, 65
1, 540228, Note_on_c, 0, 70, 89
1, 540229, Note_on_c, 0, 61, 53
1, 540251, Note_on_c, 0, 74, 46
1, 540262, Note_on_c, 0, 59, 64
1, 540277, Note_off_c, 0, 74, 37
1, 540278, Note_off_c, 0, 76, 62
1, 540278, Note_off_c, 0, 61, 63
1, 540282, Note_off_c, 0, 59, 65
1, 540290, Note_on_c, 0, 67, 86
1, 540296, Note_off_c, 0, 58, 61
1, 540301, Note_off_c, 0, 70, 65
1, 540330, Note_off_c, 0, 67, 65
1, 540354, Note_on_c, 0, 64, 76
1, 540365, Note_on_c, 0, 55, 74
1, 540391, Note_off_c, 0, 55, 63
1, 540397, Note_off_c, 0, 64, 65
1, 540436, Note_on_c, 0, 52, 73
1, 540436, Note_on_c, 0, 61, 80
1, 540490, Note_on_c, 0, 49, 76
1, 540491, Note_off_c, 0, 52, 63
1, 540497, Note_on_c, 0, 58, 81
1, 540505, Note_off_c, 0, 61, 59
1, 540553, Note_on_c, 0, 55, 82
1, 540579, Note_off_c, 0, 58, 64
1, 540583, Note_on_c, 0, 43, 76
1, 540617, Note_off_c, 0, 55, 61
1, 540617, Note_off_c, 0, 49, 58
1, 540622, Note_on_c, 0, 52, 86
1, 540680, Note_off_c, 0, 52, 63
1, 540684, Note_on_c, 0, 55, 77
1, 540705, Note_off_c, 0, 43, 61
1, 540714, Note_on_c, 0, 46, 71
1, 540728, Note_on_c, 0, 64, 86
1, 540741, Note_off_c, 0, 55, 63
1, 540749, Note_on_c, 0, 58, 89
1, 540781, Note_off_c, 0, 64, 64
1, 540791, Note_off_c, 0, 46, 63
1, 540811, Note_on_c, 0, 55, 80
1, 540823, Note_off_c, 0, 58, 64
1, 540852, Note_on_c, 0, 43, 63
1, 540852, Note_off_c, 0, 55, 62
1, 540873, Note_on_c, 0, 52, 77
1, 540877, Note_off_c, 0, 43, 63
1, 540964, Note_on_c, 0, 49, 82
1, 540965, Note_off_c, 0, 52, 52
1, 541015, Control_c, 0, 64, 69
1, 541020, Note_on_c, 0, 46, 97
1, 541023, Note_on_c, 0, 37, 98
1, 541030, Control_c, 0, 64, 0
1, 541032, Note_on_c, 0, 30, 83
1, 541043, Note_off_c, 0, 49, 66
1, 541059, Note_off_c, 0, 30, 64
1, 541063, Note_off_c, 0, 37, 60
1, 541069, Note_off_c, 0, 46, 65
1, 541074, Control_c, 0, 64, 33
1, 541078, Note_on_c, 0, 28, 48
1, 541084, Note_on_c, 0, 36, 28
1, 541089, Control_c, 0, 64, 66
1, 541104, Control_c, 0, 64, 89
1, 541111, Note_off_c, 0, 28, 51
1, 541119, Control_c, 0, 64, 127
1, 541128, Note_off_c, 0, 36, 39
1, 541183, Poly_aftertouch_c, 0, 35, 0
1, 541378, Control_c, 0, 64, 91
1, 541393, Control_c, 0, 64, 64
1, 541408, Control_c, 0, 64, 0
1, 541539, Note_on_c, 0, 30, 95
1, 541571, Control_c, 0, 64, 55
1, 541585, Control_c, 0, 64, 127
1, 541609, Note_off_c, 0, 30, 64
1, 541819, Note_on_c, 0, 57, 100
1, 541828, Note_on_c, 0, 52, 90
1, 541829, Note_on_c, 0, 42, 80
1, 541834, Note_on_c, 0, 48, 78
1, 542143, Note_on_c, 0, 67, 99
1, 542190, Note_off_c, 0, 57, 67
1, 542191, Note_off_c, 0, 67, 66
1, 542233, Note_off_c, 0, 48, 55
1, 542437, Control_c, 0, 64, 67
1, 542452, Control_c, 0, 64, 0
1, 542454, Note_on_c, 0, 58, 104
1, 542454, Note_on_c, 0, 67, 97
1, 542465, Note_on_c, 0, 49, 91
1, 542486, Note_off_c, 0, 52, 64
1, 542496, Control_c, 0, 64, 51
1, 542510, Note_off_c, 0, 49, 66
1, 542511, Control_c, 0, 64, 74
1, 542525, Note_off_c, 0, 42, 64
1, 542526, Control_c, 0, 64, 127
1, 542774, Note_on_c, 0, 66, 99
1, 542813, Note_off_c, 0, 67, 62
1, 542830, Control_c, 0, 64, 96
1, 542845, Control_c, 0, 64, 56
1, 542860, Control_c, 0, 64, 0
1, 542897, Note_on_c, 0, 30, 98
1, 542919, Control_c, 0, 64, 66
1, 542934, Control_c, 0, 64, 127
1, 542964, Note_off_c, 0, 30, 63
1, 543044, Note_off_c, 0, 58, 57
1, 543157, Note_on_c, 0, 57, 99
1, 543161, Note_on_c, 0, 52, 99
1, 543165, Note_on_c, 0, 42, 88
1, 543170, Note_on_c, 0, 48, 86
1, 543190, Note_off_c, 0, 66, 65
1, 543524, Note_on_c, 0, 67, 101
1, 543565, Note_off_c, 0, 57, 68
1, 543566, Note_on_c, 0, 66, 40
1, 543566, Note_off_c, 0, 67, 70
1, 543594, Note_off_c, 0, 66, 57
1, 543629, Note_off_c, 0, 48, 56
1, 543972, Note_on_c, 0, 67, 101
1, 543974, Note_on_c, 0, 58, 108
1, 543979, Control_c, 0, 64, 80
1, 543984, Note_on_c, 0, 49, 85
1, 543994, Control_c, 0, 64, 35
1, 544009, Control_c, 0, 64, 0
1, 544443, Note_on_c, 0, 66, 93
1, 544469, Note_off_c, 0, 67, 60
1, 544491, Control_c, 0, 64, 78
1, 544506, Control_c, 0, 64, 127
1, 544549, Note_off_c, 0, 52, 57
1, 544589, Note_off_c, 0, 58, 56
1, 544591, Note_off_c, 0, 49, 59
1, 544598, Note_off_c, 0, 66, 61
1, 544628, Note_off_c, 0, 42, 62
1, 544891, Control_c, 0, 64, 72
1, 544897, Note_on_c, 0, 58, 94
1, 544900, Note_on_c, 0, 52, 89
1, 544900, Note_on_c, 0, 54, 87
1, 544906, Control_c, 0, 64, 30
1, 544907, Note_on_c, 0, 42, 100
1, 544911, Note_on_c, 0, 30, 80
1, 544928, Control_c, 0, 64, 0
1, 544959, Control_c, 0, 64, 27
1, 544973, Control_c, 0, 64, 66
1, 544978, Note_off_c, 0, 30, 62
1, 544988, Control_c, 0, 64, 97
1, 544994, Note_off_c, 0, 42, 63
1, 545003, Control_c, 0, 64, 127
1, 545294, Note_off_c, 0, 54, 52
1, 545309, Note_off_c, 0, 58, 58
1, 545465, Note_on_c, 0, 64, 100
1, 545717, Note_off_c, 0, 52, 60
1, 545731, Note_off_c, 0, 64, 55
1, 546085, Note_on_c, 0, 64, 95
1, 546091, Note_on_c, 0, 54, 94
1, 546094, Note_on_c, 0, 59, 88
1, 546103, Note_on_c, 0, 47, 90
1, 546104, Note_on_c, 0, 35, 83
1, 546122, Control_c, 0, 64, 83
1, 546137, Control_c, 0, 64, 59
1, 546152, Control_c, 0, 64, 0
1, 546640, Note_on_c, 0, 63, 80
1, 546682, Note_off_c, 0, 64, 58
1, 547247, Note_off_c, 0, 59, 49
1, 547259, Note_off_c, 0, 54, 51
1, 547292, Note_off_c, 0, 47, 58
1, 547298, Note_off_c, 0, 63, 58
1, 547352, Note_off_c, 0, 35, 56
1, 547539, Note_on_c, 0, 62, 86
1, 547635, Control_c, 0, 64, 36
1, 547650, Control_c, 0, 64, 51
1, 547665, Control_c, 0, 64, 60
1, 547679, Control_c, 0, 64, 65
1, 547694, Control_c, 0, 64, 69
1, 547709, Control_c, 0, 64, 75
1, 547724, Control_c, 0, 64, 84
1, 547739, Control_c, 0, 64, 93
1, 547754, Control_c, 0, 64, 103
1, 547768, Control_c, 0, 64, 117
1, 547783, Control_c, 0, 64, 127
1, 547799, Note_off_c, 0, 62, 54
1, 547932, Note_on_c, 0, 62, 84
1, 548027, Control_c, 0, 64, 101
1, 548042, Control_c, 0, 64, 82
1, 548057, Control_c, 0, 64, 69
1, 548072, Control_c, 0, 64, 59
1, 548087, Control_c, 0, 64, 47
1, 548101, Control_c, 0, 64, 38
1, 548116, Control_c, 0, 64, 33
1, 548131, Control_c, 0, 64, 31
1, 548162, Control_c, 0, 64, 28
1, 548177, Control_c, 0, 64, 0
1, 548378, Note_on_c, 0, 61, 66
1, 548465, Note_off_c, 0, 62, 52
1, 548635, Control_c, 0, 64, 35
1, 548650, Control_c, 0, 64, 50
1, 548672, Control_c, 0, 64, 59
1, 548687, Control_c, 0, 64, 63
1, 548702, Control_c, 0, 64, 64
1, 548717, Control_c, 0, 64, 65
1, 548732, Control_c, 0, 64, 67
1, 548747, Control_c, 0, 64, 68
1, 548761, Control_c, 0, 64, 70
1, 548776, Control_c, 0, 64, 72
1, 548791, Control_c, 0, 64, 72
1, 548806, Control_c, 0, 64, 73
1, 548824, Note_off_c, 0, 61, 58
1, 548924, Control_c, 0, 64, 72
1, 548940, Control_c, 0, 64, 71
1, 548955, Control_c, 0, 64, 69
1, 548970, Control_c, 0, 64, 65
1, 548985, Control_c, 0, 64, 59
1, 548999, Control_c, 0, 64, 51
1, 549014, Control_c, 0, 64, 45
1, 549029, Control_c, 0, 64, 40
1, 549044, Control_c, 0, 64, 36
1, 549059, Control_c, 0, 64, 33
1, 549073, Control_c, 0, 64, 28
1, 549088, Control_c, 0, 64, 0
1, 549258, Note_on_c, 0, 59, 84
1, 549340, Control_c, 0, 64, 35
1, 549355, Control_c, 0, 64, 52
1, 549370, Control_c, 0, 64, 61
1, 549384, Control_c, 0, 64, 65
1, 549399, Control_c, 0, 64, 68
1, 549421, Control_c, 0, 64, 71
1, 549436, Control_c, 0, 64, 74
1, 549451, Control_c, 0, 64, 77
1, 549465, Control_c, 0, 64, 81
1, 549480, Control_c, 0, 64, 85
1, 549495, Control_c, 0, 64, 87
1, 549510, Control_c, 0, 64, 89
1, 549516, Note_off_c, 0, 59, 59
1, 549525, Control_c, 0, 64, 90
1, 549665, Note_on_c, 0, 59, 79
1, 549673, Control_c, 0, 64, 89
1, 549688, Control_c, 0, 64, 88
1, 549703, Control_c, 0, 64, 87
1, 549717, Control_c, 0, 64, 84
1, 549733, Control_c, 0, 64, 81
1, 549748, Control_c, 0, 64, 77
1, 549763, Control_c, 0, 64, 73
1, 549778, Control_c, 0, 64, 67
1, 549793, Control_c, 0, 64, 63
1, 549808, Control_c, 0, 64, 58
1, 549822, Control_c, 0, 64, 55
1, 549837, Control_c, 0, 64, 53
1, 549852, Control_c, 0, 64, 53
1, 549911, Control_c, 0, 64, 52
1, 549926, Control_c, 0, 64, 52
1, 549970, Control_c, 0, 64, 51
1, 550014, Control_c, 0, 64, 51
1, 550032, Note_on_c, 0, 58, 81
1, 550059, Control_c, 0, 64, 50
1, 550074, Control_c, 0, 64, 50
1, 550088, Control_c, 0, 64, 49
1, 550097, Note_off_c, 0, 59, 52
1, 550103, Control_c, 0, 64, 47
1, 550118, Control_c, 0, 64, 45
1, 550133, Control_c, 0, 64, 40
1, 550148, Control_c, 0, 64, 33
1, 550170, Control_c, 0, 64, 0
1, 550416, Note_on_c, 0, 57, 70
1, 550472, Note_off_c, 0, 58, 57
1, 550801, Note_on_c, 0, 55, 74
1, 550811, Note_off_c, 0, 57, 63
1, 551188, Note_on_c, 0, 54, 69
1, 551288, Note_off_c, 0, 55, 59
1, 551555, Note_on_c, 0, 52, 66
1, 551606, Note_off_c, 0, 54, 58
1, 551721, Note_on_c, 0, 54, 68
1, 551769, Note_off_c, 0, 52, 57
1, 551903, Note_on_c, 0, 50, 68
1, 551927, Note_off_c, 0, 54, 62
1, 552055, Note_on_c, 0, 49, 69
1, 552089, Note_off_c, 0, 50, 60
1, 552244, Note_on_c, 0, 71, 83
1, 552273, Note_on_c, 0, 47, 59
1, 552307, Note_off_c, 0, 49, 53
1, 552336, Control_c, 0, 64, 44
1, 552351, Control_c, 0, 64, 61
1, 552365, Control_c, 0, 64, 68
1, 552365, Note_off_c, 0, 47, 62
1, 552380, Control_c, 0, 64, 78
1, 552395, Control_c, 0, 64, 93
1, 552416, Note_on_c, 0, 62, 71
1, 552416, Control_c, 0, 64, 127
1, 552469, Note_off_c, 0, 71, 57
1, 552627, Note_on_c, 0, 71, 81
1, 552648, Note_on_c, 0, 61, 57
1, 552698, Control_c, 0, 64, 108
1, 552713, Control_c, 0, 64, 89
1, 552717, Note_off_c, 0, 62, 49
1, 552728, Control_c, 0, 64, 74
1, 552742, Control_c, 0, 64, 64
1, 552757, Control_c, 0, 64, 55
1, 552772, Control_c, 0, 64, 50
1, 552787, Control_c, 0, 64, 47
1, 552802, Control_c, 0, 64, 45
1, 552816, Control_c, 0, 64, 44
1, 552831, Control_c, 0, 64, 40
1, 552846, Control_c, 0, 64, 36
1, 552861, Control_c, 0, 64, 30
1, 552876, Control_c, 0, 64, 0
1, 553006, Note_on_c, 0, 70, 61
1, 553012, Note_on_c, 0, 67, 47
1, 553080, Note_off_c, 0, 71, 46
1, 553117, Note_off_c, 0, 61, 37
1, 553379, Note_on_c, 0, 66, 61
1, 553431, Note_off_c, 0, 67, 62
1, 553501, Note_off_c, 0, 70, 43
1, 553733, Note_on_c, 0, 69, 83
1, 553754, Note_on_c, 0, 65, 55
1, 553775, Control_c, 0, 64, 33
1, 553789, Control_c, 0, 64, 48
1, 553800, Note_off_c, 0, 66, 60
1, 553804, Control_c, 0, 64, 61
1, 553819, Control_c, 0, 64, 67
1, 553834, Control_c, 0, 64, 74
1, 553849, Control_c, 0, 64, 89
1, 553863, Control_c, 0, 64, 127
1, 553983, Note_off_c, 0, 69, 49
1, 554096, Note_on_c, 0, 69, 81
1, 554123, Note_on_c, 0, 64, 56
1, 554168, Note_off_c, 0, 65, 38
1, 554211, Control_c, 0, 64, 97
1, 554226, Control_c, 0, 64, 81
1, 554241, Control_c, 0, 64, 70
1, 554255, Control_c, 0, 64, 60
1, 554270, Control_c, 0, 64, 50
1, 554285, Control_c, 0, 64, 47
1, 554300, Control_c, 0, 64, 45
1, 554315, Control_c, 0, 64, 44
1, 554330, Control_c, 0, 64, 41
1, 554345, Control_c, 0, 64, 36
1, 554360, Control_c, 0, 64, 29
1, 554374, Control_c, 0, 64, 0
1, 554484, Note_on_c, 0, 68, 61
1, 554490, Note_on_c, 0, 65, 40
1, 554518, Note_off_c, 0, 64, 54
1, 554562, Note_off_c, 0, 69, 50
1, 554860, Note_on_c, 0, 64, 60
1, 554890, Note_off_c, 0, 65, 56
1, 554955, Note_off_c, 0, 68, 32
1, 555200, Note_on_c, 0, 66, 86
1, 555224, Note_on_c, 0, 62, 49
1, 555251, Note_off_c, 0, 64, 63
1, 555284, Control_c, 0, 64, 39
1, 555299, Control_c, 0, 64, 54
1, 555314, Control_c, 0, 64, 63
1, 555330, Control_c, 0, 64, 67
1, 555344, Control_c, 0, 64, 72
1, 555359, Control_c, 0, 64, 78
1, 555374, Control_c, 0, 64, 87
1, 555389, Control_c, 0, 64, 100
1, 555412, Control_c, 0, 64, 127
1, 555424, Note_off_c, 0, 66, 60
1, 555572, Note_on_c, 0, 66, 83
1, 555597, Note_on_c, 0, 61, 51
1, 555628, Note_off_c, 0, 62, 52
1, 555693, Control_c, 0, 64, 125
1, 555707, Control_c, 0, 64, 101
1, 555722, Control_c, 0, 64, 89
1, 555737, Control_c, 0, 64, 78
1, 555752, Control_c, 0, 64, 69
1, 555767, Control_c, 0, 64, 60
1, 555782, Control_c, 0, 64, 51
1, 555796, Control_c, 0, 64, 46
1, 555811, Control_c, 0, 64, 44
1, 555826, Control_c, 0, 64, 43
1, 555841, Control_c, 0, 64, 42
1, 555856, Control_c, 0, 64, 40
1, 555871, Control_c, 0, 64, 37
1, 555886, Control_c, 0, 64, 35
1, 555900, Control_c, 0, 64, 33
1, 555929, Note_on_c, 0, 65, 77
1, 555930, Control_c, 0, 64, 31
1, 555934, Note_on_c, 0, 56, 50
1, 555970, Note_off_c, 0, 61, 52
1, 555998, Note_off_c, 0, 66, 57
1, 556285, Note_on_c, 0, 64, 67
1, 556306, Note_on_c, 0, 58, 49
1, 556314, Note_off_c, 0, 65, 62
1, 556333, Note_off_c, 0, 56, 51
1, 556353, Control_c, 0, 64, 29
1, 556427, Control_c, 0, 64, 27
1, 556442, Control_c, 0, 64, 0
1, 556652, Note_on_c, 0, 62, 61
1, 556655, Note_on_c, 0, 59, 41
1, 556685, Note_off_c, 0, 58, 50
1, 556734, Note_off_c, 0, 64, 39
1, 556753, Control_c, 0, 64, 27
1, 556768, Control_c, 0, 64, 39
1, 556782, Control_c, 0, 64, 54
1, 556797, Control_c, 0, 64, 63
1, 556812, Control_c, 0, 64, 69
1, 556827, Control_c, 0, 64, 74
1, 556842, Control_c, 0, 64, 78
1, 556856, Control_c, 0, 64, 83
1, 556871, Control_c, 0, 64, 89
1, 556886, Control_c, 0, 64, 94
1, 556908, Control_c, 0, 64, 99
1, 556923, Control_c, 0, 64, 103
1, 556953, Control_c, 0, 64, 105
1, 557010, Note_on_c, 0, 61, 60
1, 557057, Control_c, 0, 64, 103
1, 557072, Control_c, 0, 64, 99
1, 557075, Note_off_c, 0, 62, 50
1, 557087, Control_c, 0, 64, 93
1, 557102, Control_c, 0, 64, 87
1, 557117, Control_c, 0, 64, 78
1, 557131, Control_c, 0, 64, 69
1, 557146, Control_c, 0, 64, 59
1, 557161, Control_c, 0, 64, 48
1, 557176, Control_c, 0, 64, 41
1, 557180, Note_on_c, 0, 57, 48
1, 557189, Note_off_c, 0, 59, 47
1, 557191, Control_c, 0, 64, 36
1, 557205, Control_c, 0, 64, 33
1, 557220, Control_c, 0, 64, 30
1, 557235, Control_c, 0, 64, 27
1, 557250, Control_c, 0, 64, 0
1, 557326, Note_off_c, 0, 57, 59
1, 557339, Note_on_c, 0, 59, 64
1, 557339, Note_off_c, 0, 61, 63
1, 557342, Note_on_c, 0, 56, 48
1, 557496, Note_off_c, 0, 56, 57
1, 557504, Note_on_c, 0, 61, 66
1, 557516, Note_on_c, 0, 57, 40
1, 557528, Note_off_c, 0, 59, 61
1, 557612, Note_off_c, 0, 57, 53
1, 557668, Note_off_c, 0, 61, 64
1, 557686, Note_on_c, 0, 57, 58
1, 557692, Note_on_c, 0, 54, 51
1, 557702, Control_c, 0, 64, 28
1, 557717, Control_c, 0, 64, 46
1, 557733, Control_c, 0, 64, 62
1, 557743, Note_off_c, 0, 57, 60
1, 557748, Control_c, 0, 64, 67
1, 557762, Control_c, 0, 64, 72
1, 557777, Control_c, 0, 64, 78
1, 557792, Control_c, 0, 64, 86
1, 557807, Control_c, 0, 64, 98
1, 557822, Control_c, 0, 64, 125
1, 557836, Control_c, 0, 64, 127
1, 557859, Note_on_c, 0, 57, 61
1, 557872, Note_off_c, 0, 54, 49
1, 558007, Note_on_c, 0, 69, 78
1, 558032, Note_off_c, 0, 57, 61
1, 558047, Note_on_c, 0, 61, 57
1, 558190, Note_on_c, 0, 64, 67
1, 558205, Note_off_c, 0, 61, 58
1, 558363, Note_on_c, 0, 66, 80
1, 558435, Note_off_c, 0, 69, 56
1, 558435, Control_c, 0, 64, 106
1, 558450, Control_c, 0, 64, 80
1, 558465, Control_c, 0, 64, 65
1, 558479, Control_c, 0, 64, 52
1, 558494, Control_c, 0, 64, 42
1, 558509, Control_c, 0, 64, 38
1, 558525, Control_c, 0, 64, 37
1, 558530, Note_on_c, 0, 62, 60
1, 558540, Control_c, 0, 64, 38
1, 558542, Note_off_c, 0, 64, 58
1, 558555, Control_c, 0, 64, 44
1, 558570, Control_c, 0, 64, 52
1, 558584, Control_c, 0, 64, 61
1, 558599, Control_c, 0, 64, 68
1, 558614, Control_c, 0, 64, 77
1, 558629, Control_c, 0, 64, 86
1, 558644, Control_c, 0, 64, 94
1, 558658, Control_c, 0, 64, 107
1, 558658, Control_c, 0, 67, 36
1, 558673, Control_c, 0, 64, 127
1, 558673, Control_c, 0, 67, 52
1, 558688, Control_c, 0, 67, 62
1, 558694, Note_on_c, 0, 64, 76
1, 558694, Note_off_c, 0, 62, 57
1, 558697, Note_off_c, 0, 66, 65
1, 558703, Control_c, 0, 67, 70
1, 558708, Note_on_c, 0, 61, 53
1, 558718, Control_c, 0, 67, 78
1, 558733, Control_c, 0, 67, 82
1, 558748, Control_c, 0, 67, 81
1, 558762, Control_c, 0, 67, 79
1, 558777, Control_c, 0, 67, 76
1, 558792, Control_c, 0, 67, 74
1, 558807, Control_c, 0, 67, 72
1, 558822, Control_c, 0, 67, 70
1, 558834, Note_off_c, 0, 61, 60
1, 558837, Control_c, 0, 67, 67
1, 558851, Control_c, 0, 67, 66
1, 558856, Note_on_c, 0, 66, 81
1, 558866, Note_on_c, 0, 62, 58
1, 558866, Control_c, 0, 67, 65
1, 558881, Control_c, 0, 67, 64
1, 558891, Note_off_c, 0, 64, 60
1, 558910, Control_c, 0, 67, 63
1, 558940, Control_c, 0, 64, 90
1, 558952, Note_off_c, 0, 62, 51
1, 558955, Control_c, 0, 64, 67
1, 558955, Control_c, 0, 67, 63
1, 558969, Control_c, 0, 64, 45
1, 558984, Control_c, 0, 64, 0
1, 558984, Control_c, 0, 67, 62
1, 558999, Control_c, 0, 67, 62
1, 559014, Control_c, 0, 67, 61
1, 559029, Control_c, 0, 67, 59
1, 559035, Note_off_c, 0, 66, 62
1, 559037, Note_on_c, 0, 62, 72
1, 559041, Note_on_c, 0, 59, 56
1, 559043, Control_c, 0, 67, 55
1, 559058, Control_c, 0, 67, 51
1, 559073, Control_c, 0, 64, 29
1, 559073, Control_c, 0, 67, 46
1, 559088, Control_c, 0, 64, 46
1, 559088, Control_c, 0, 67, 34
1, 559102, Control_c, 0, 64, 60
1, 559102, Control_c, 0, 67, 0
1, 559116, Note_off_c, 0, 62, 56
1, 559117, Control_c, 0, 64, 67
1, 559132, Control_c, 0, 64, 73
1, 559155, Control_c, 0, 64, 81
1, 559170, Control_c, 0, 64, 92
1, 559184, Control_c, 0, 64, 108
1, 559199, Control_c, 0, 64, 127
1, 559204, Note_on_c, 0, 62, 66
1, 559207, Note_off_c, 0, 59, 61
1, 559365, Note_on_c, 0, 74, 86
1, 559385, Note_off_c, 0, 62, 61
1, 559400, Note_on_c, 0, 66, 59
1, 559538, Note_on_c, 0, 69, 65
1, 559540, Note_off_c, 0, 66, 62
1, 559733, Control_c, 0, 67, 42
1, 559748, Control_c, 0, 67, 53
1, 559763, Control_c, 0, 67, 62
1, 559778, Control_c, 0, 67, 69
1, 559792, Control_c, 0, 67, 75
1, 559807, Control_c, 0, 67, 80
1, 559822, Control_c, 0, 67, 85
1, 559827, Note_on_c, 0, 71, 74
1, 559837, Control_c, 0, 67, 90
1, 559852, Control_c, 0, 67, 97
1, 559866, Control_c, 0, 67, 101
1, 559872, Note_off_c, 0, 74, 59
1, 559881, Control_c, 0, 64, 99
1, 559881, Control_c, 0, 67, 105
1, 559904, Control_c, 0, 64, 82
1, 559904, Control_c, 0, 67, 110
1, 559919, Control_c, 0, 64, 66
1, 559919, Control_c, 0, 67, 116
1, 559933, Control_c, 0, 64, 51
1, 559933, Control_c, 0, 67, 122
1, 559948, Control_c, 0, 64, 34
1, 559948, Control_c, 0, 67, 127
1, 559963, Control_c, 0, 64, 0
1, 560067, Control_c, 0, 64, 33
1, 560081, Control_c, 0, 64, 45
1, 560096, Control_c, 0, 64, 55
1, 560105, Note_on_c, 0, 68, 44
1, 560111, Control_c, 0, 64, 61
1, 560127, Control_c, 0, 64, 64
1, 560142, Control_c, 0, 64, 66
1, 560156, Control_c, 0, 64, 67
1, 560171, Control_c, 0, 64, 70
1, 560186, Control_c, 0, 64, 72
1, 560187, Note_off_c, 0, 69, 37
1, 560201, Control_c, 0, 64, 75
1, 560216, Control_c, 0, 64, 77
1, 560230, Control_c, 0, 64, 79
1, 560245, Control_c, 0, 64, 81
1, 560260, Control_c, 0, 64, 81
1, 560314, Note_on_c, 0, 66, 50
1, 560314, Note_on_c, 0, 80, 69
1, 560324, Note_off_c, 0, 68, 51
1, 560334, Control_c, 0, 64, 79
1, 560348, Control_c, 0, 64, 73
1, 560363, Control_c, 0, 64, 66
1, 560366, Note_off_c, 0, 71, 57
1, 560378, Control_c, 0, 64, 57
1, 560393, Control_c, 0, 64, 53
1, 560408, Control_c, 0, 64, 55
1, 560423, Control_c, 0, 64, 59
1, 560438, Control_c, 0, 64, 63
1, 560453, Control_c, 0, 64, 67
1, 560468, Control_c, 0, 64, 70
1, 560471, Note_off_c, 0, 66, 60
1, 560482, Control_c, 0, 64, 72
1, 560485, Note_on_c, 0, 68, 50
1, 560497, Control_c, 0, 64, 73
1, 560512, Control_c, 0, 64, 74
1, 560527, Control_c, 0, 64, 75
1, 560542, Control_c, 0, 64, 76
1, 560557, Control_c, 0, 64, 77
1, 560572, Control_c, 0, 64, 77
1, 560587, Control_c, 0, 64, 78
1, 560616, Control_c, 0, 64, 78
1, 560664, Note_on_c, 0, 66, 57
1, 560682, Control_c, 0, 64, 79
1, 560701, Note_off_c, 0, 80, 53
1, 560706, Note_off_c, 0, 68, 37
1, 560815, Note_on_c, 0, 65, 63
1, 560831, Note_off_c, 0, 66, 53
1, 560950, Control_c, 0, 64, 78
1, 560965, Control_c, 0, 64, 75
1, 560976, Note_on_c, 0, 71, 76
1, 560980, Control_c, 0, 64, 69
1, 560983, Note_off_c, 0, 65, 57
1, 560995, Control_c, 0, 64, 58
1, 560997, Note_on_c, 0, 63, 53
1, 561010, Control_c, 0, 64, 46
1, 561025, Control_c, 0, 64, 36
1, 561040, Control_c, 0, 64, 31
1, 561084, Control_c, 0, 64, 32
1, 561098, Control_c, 0, 64, 40
1, 561113, Control_c, 0, 64, 53
1, 561120, Note_on_c, 0, 65, 59
1, 561128, Control_c, 0, 64, 62
1, 561143, Control_c, 0, 64, 67
1, 561144, Note_off_c, 0, 63, 57
1, 561158, Control_c, 0, 64, 72
1, 561172, Control_c, 0, 64, 75
1, 561187, Control_c, 0, 64, 78
1, 561202, Control_c, 0, 64, 81
1, 561217, Control_c, 0, 64, 84
1, 561232, Control_c, 0, 64, 86
1, 561246, Control_c, 0, 64, 87
1, 561261, Control_c, 0, 64, 88
1, 561350, Control_c, 0, 64, 87
1, 561365, Note_on_c, 0, 69, 64
1, 561374, Note_on_c, 0, 68, 47
1, 561378, Note_off_c, 0, 65, 38
1, 561380, Control_c, 0, 64, 85
1, 561402, Control_c, 0, 64, 81
1, 561410, Note_off_c, 0, 71, 59
1, 561417, Control_c, 0, 64, 71
1, 561432, Control_c, 0, 64, 60
1, 561446, Control_c, 0, 64, 46
1, 561461, Control_c, 0, 64, 35
1, 561476, Control_c, 0, 64, 32
1, 561491, Control_c, 0, 64, 32
1, 561505, Control_c, 0, 64, 35
1, 561520, Control_c, 0, 64, 42
1, 561535, Control_c, 0, 64, 51
1, 561550, Control_c, 0, 64, 59
1, 561565, Control_c, 0, 64, 65
1, 561579, Control_c, 0, 64, 69
1, 561588, Note_on_c, 0, 66, 49
1, 561594, Control_c, 0, 64, 72
1, 561609, Control_c, 0, 64, 74
1, 561624, Control_c, 0, 64, 75
1, 561639, Control_c, 0, 64, 76
1, 561645, Note_off_c, 0, 68, 36
1, 561654, Control_c, 0, 64, 77
1, 561669, Control_c, 0, 64, 78
1, 561714, Control_c, 0, 64, 78
1, 561740, Note_off_c, 0, 66, 58
1, 561751, Note_on_c, 0, 65, 45
1, 561754, Note_on_c, 0, 78, 67
1, 561761, Note_off_c, 0, 69, 55
1, 561863, Control_c, 0, 64, 78
1, 561877, Control_c, 0, 64, 76
1, 561892, Control_c, 0, 64, 74
1, 561898, Note_off_c, 0, 65, 61
1, 561907, Control_c, 0, 64, 70
1, 561921, Control_c, 0, 64, 63
1, 561924, Note_on_c, 0, 66, 59
1, 561935, Control_c, 0, 64, 53
1, 561950, Control_c, 0, 64, 43
1, 561965, Control_c, 0, 64, 34
1, 561980, Control_c, 0, 64, 29
1, 562068, Control_c, 0, 64, 32
1, 562083, Control_c, 0, 64, 41
1, 562088, Note_on_c, 0, 64, 60
1, 562098, Note_off_c, 0, 66, 56
1, 562098, Control_c, 0, 64, 53
1, 562113, Control_c, 0, 64, 63
1, 562128, Control_c, 0, 64, 68
1, 562150, Control_c, 0, 64, 72
1, 562155, Note_off_c, 0, 78, 53
1, 562165, Control_c, 0, 64, 75
1, 562180, Control_c, 0, 64, 78
1, 562194, Control_c, 0, 64, 81
1, 562209, Control_c, 0, 64, 85
1, 562224, Control_c, 0, 64, 88
1, 562238, Note_off_c, 0, 64, 55
1, 562239, Control_c, 0, 64, 89
1, 562251, Note_on_c, 0, 63, 52
1, 562253, Control_c, 0, 64, 90
1, 562283, Control_c, 0, 64, 91
1, 562372, Control_c, 0, 64, 90
1, 562402, Control_c, 0, 64, 88
1, 562411, Note_on_c, 0, 69, 74
1, 562417, Control_c, 0, 64, 83
1, 562417, Note_off_c, 0, 63, 57
1, 562432, Control_c, 0, 64, 72
1, 562446, Control_c, 0, 64, 61
1, 562461, Control_c, 0, 64, 47
1, 562462, Note_on_c, 0, 61, 40
1, 562476, Control_c, 0, 64, 36
1, 562491, Control_c, 0, 64, 32
1, 562506, Control_c, 0, 64, 33
1, 562521, Control_c, 0, 64, 34
1, 562536, Control_c, 0, 64, 39
1, 562551, Control_c, 0, 64, 47
1, 562566, Control_c, 0, 64, 56
1, 562581, Control_c, 0, 64, 63
1, 562596, Control_c, 0, 64, 67
1, 562610, Control_c, 0, 64, 71
1, 562612, Note_on_c, 0, 63, 47
1, 562625, Control_c, 0, 64, 73
1, 562640, Control_c, 0, 64, 76
1, 562655, Note_off_c, 0, 61, 34
1, 562655, Control_c, 0, 64, 78
1, 562670, Control_c, 0, 64, 80
1, 562684, Control_c, 0, 64, 82
1, 562699, Control_c, 0, 64, 83
1, 562714, Control_c, 0, 64, 83
1, 562847, Control_c, 0, 64, 82
1, 562861, Note_on_c, 0, 68, 56
1, 562862, Control_c, 0, 64, 79
1, 562870, Note_on_c, 0, 66, 42
1, 562876, Control_c, 0, 64, 73
1, 562896, Note_off_c, 0, 63, 29
1, 562899, Note_off_c, 0, 69, 53
1, 562899, Control_c, 0, 64, 64
1, 562914, Control_c, 0, 64, 53
1, 562929, Control_c, 0, 64, 43
1, 562943, Control_c, 0, 64, 38
1, 562958, Control_c, 0, 64, 38
1, 562973, Control_c, 0, 64, 38
1, 562988, Control_c, 0, 64, 40
1, 563003, Control_c, 0, 64, 44
1, 563017, Control_c, 0, 64, 52
1, 563032, Control_c, 0, 64, 60
1, 563047, Control_c, 0, 64, 65
1, 563062, Control_c, 0, 64, 69
1, 563076, Control_c, 0, 64, 72
1, 563077, Note_on_c, 0, 64, 42
1, 563091, Control_c, 0, 64, 74
1, 563095, Note_off_c, 0, 66, 37
1, 563106, Control_c, 0, 64, 75
1, 563121, Control_c, 0, 64, 76
1, 563136, Control_c, 0, 64, 76
1, 563165, Control_c, 0, 64, 77
1, 563225, Control_c, 0, 64, 76
1, 563240, Note_off_c, 0, 64, 51
1, 563244, Note_on_c, 0, 76, 63
1, 563255, Control_c, 0, 64, 75
1, 563261, Note_off_c, 0, 68, 51
1, 563265, Note_on_c, 0, 63, 45
1, 563269, Control_c, 0, 64, 73
1, 563284, Control_c, 0, 64, 70
1, 563299, Control_c, 0, 64, 64
1, 563314, Control_c, 0, 64, 56
1, 563329, Control_c, 0, 64, 45
1, 563344, Control_c, 0, 64, 35
1, 563359, Control_c, 0, 64, 30
1, 563374, Control_c, 0, 64, 28
1, 563387, Note_off_c, 0, 63, 58
1, 563409, Note_on_c, 0, 64, 47
1, 563434, Control_c, 0, 64, 33
1, 563448, Control_c, 0, 64, 42
1, 563463, Control_c, 0, 64, 52
1, 563478, Control_c, 0, 64, 59
1, 563493, Control_c, 0, 64, 64
1, 563508, Control_c, 0, 64, 67
1, 563523, Control_c, 0, 64, 70
1, 563538, Control_c, 0, 64, 73
1, 563553, Control_c, 0, 64, 78
1, 563567, Control_c, 0, 64, 82
1, 563571, Note_off_c, 0, 64, 56
1, 563578, Note_on_c, 0, 62, 55
1, 563582, Control_c, 0, 64, 88
1, 563597, Control_c, 0, 64, 95
1, 563610, Note_off_c, 0, 76, 53
1, 563612, Control_c, 0, 64, 104
1, 563627, Control_c, 0, 64, 122
1, 563648, Control_c, 0, 64, 127
1, 563678, Control_c, 0, 67, 120
1, 563693, Control_c, 0, 67, 102
1, 563708, Control_c, 0, 67, 84
1, 563723, Control_c, 0, 67, 70
1, 563738, Control_c, 0, 67, 60
1, 563746, Note_off_c, 0, 62, 51
1, 563753, Control_c, 0, 67, 58
1, 563753, Note_on_c, 0, 61, 53
1, 563812, Control_c, 0, 67, 59
1, 563827, Control_c, 0, 67, 60
1, 563842, Control_c, 0, 67, 63
1, 563856, Control_c, 0, 67, 65
1, 563871, Control_c, 0, 67, 67
1, 563886, Control_c, 0, 67, 70
1, 563900, Control_c, 0, 64, 91
1, 563900, Control_c, 0, 67, 72
1, 563901, Note_on_c, 0, 76, 78
1, 563903, Note_off_c, 0, 61, 0
1, 563915, Control_c, 0, 64, 73
1, 563915, Control_c, 0, 67, 75
1, 563930, Control_c, 0, 64, 61
1, 563930, Control_c, 0, 67, 77
1, 563931, Note_on_c, 0, 67, 55
1, 563931, Poly_aftertouch_c, 0, 61, 0
1, 563935, Note_on_c, 0, 59, 43
1, 563945, Control_c, 0, 64, 48
1, 563945, Control_c, 0, 67, 79
1, 563960, Control_c, 0, 64, 44
1, 563960, Control_c, 0, 67, 80
1, 563974, Control_c, 0, 64, 47
1, 563974, Control_c, 0, 67, 81
1, 563989, Control_c, 0, 64, 56
1, 563989, Control_c, 0, 67, 82
1, 564004, Control_c, 0, 64, 63
1, 564004, Control_c, 0, 67, 82
1, 564019, Control_c, 0, 64, 70
1, 564019, Control_c, 0, 67, 84
1, 564034, Control_c, 0, 64, 80
1, 564034, Control_c, 0, 67, 85
1, 564047, Note_off_c, 0, 67, 61
1, 564048, Control_c, 0, 64, 91
1, 564048, Control_c, 0, 67, 85
1, 564063, Control_c, 0, 64, 102
1, 564063, Control_c, 0, 67, 86
1, 564067, Note_off_c, 0, 76, 62
1, 564072, Note_on_c, 0, 61, 45
1, 564078, Control_c, 0, 64, 110
1, 564078, Control_c, 0, 67, 86
1, 564092, Control_c, 0, 64, 122
1, 564098, Note_off_c, 0, 59, 34
1, 564107, Control_c, 0, 64, 127
1, 564123, Control_c, 0, 67, 87
1, 564138, Control_c, 0, 67, 88
1, 564197, Control_c, 0, 67, 88
1, 564242, Control_c, 0, 67, 89
1, 564257, Control_c, 0, 67, 89
1, 564271, Control_c, 0, 67, 90
1, 564286, Note_on_c, 0, 76, 72
1, 564286, Control_c, 0, 64, 109
1, 564286, Control_c, 0, 67, 91
1, 564289, Note_off_c, 0, 61, 37
1, 564301, Control_c, 0, 64, 90
1, 564301, Control_c, 0, 67, 92
1, 564311, Note_on_c, 0, 58, 42
1, 564312, Note_on_c, 0, 66, 46
1, 564316, Control_c, 0, 64, 74
1, 564316, Control_c, 0, 67, 102
1, 564331, Control_c, 0, 64, 62
1, 564331, Control_c, 0, 67, 123
1, 564346, Control_c, 0, 64, 51
1, 564346, Control_c, 0, 67, 127
1, 564361, Control_c, 0, 64, 45
1, 564376, Note_off_c, 0, 66, 0
1, 564376, Note_on_c, 0, 66, 14
1, 564376, Control_c, 0, 64, 46
1, 564397, Control_c, 0, 64, 50
1, 564412, Control_c, 0, 64, 56
1, 564427, Control_c, 0, 64, 61
1, 564442, Control_c, 0, 64, 66
1, 564457, Control_c, 0, 64, 71
1, 564471, Control_c, 0, 64, 78
1, 564486, Control_c, 0, 64, 83
1, 564501, Control_c, 0, 64, 86
1, 564516, Control_c, 0, 64, 89
1, 564531, Control_c, 0, 64, 91
1, 564545, Control_c, 0, 64, 92
1, 564560, Control_c, 0, 64, 93
1, 564565, Note_off_c, 0, 66, 44
1, 564575, Control_c, 0, 64, 94
1, 564605, Control_c, 0, 64, 94
1, 564647, Note_on_c, 0, 75, 64
1, 564649, Control_c, 0, 64, 93
1, 564664, Note_off_c, 0, 76, 51
1, 564664, Control_c, 0, 64, 88
1, 564673, Note_on_c, 0, 72, 45
1, 564679, Control_c, 0, 64, 78
1, 564686, Note_on_c, 0, 57, 37
1, 564694, Control_c, 0, 64, 67
1, 564709, Control_c, 0, 64, 57
1, 564723, Control_c, 0, 64, 50
1, 564738, Control_c, 0, 64, 51
1, 564753, Control_c, 0, 64, 56
1, 564768, Control_c, 0, 64, 62
1, 564783, Control_c, 0, 64, 69
1, 564797, Control_c, 0, 64, 77
1, 564812, Control_c, 0, 64, 86
1, 564827, Control_c, 0, 64, 92
1, 564841, Control_c, 0, 64, 98
1, 564854, Note_off_c, 0, 58, 19
1, 564856, Control_c, 0, 64, 102
1, 564871, Control_c, 0, 64, 105
1, 564876, Note_off_c, 0, 57, 53
1, 564886, Control_c, 0, 64, 108
1, 564996, Note_on_c, 0, 71, 48
1, 564996, Note_off_c, 0, 72, 24
1, 565020, Control_c, 0, 64, 103
1, 565035, Control_c, 0, 64, 95
1, 565050, Control_c, 0, 64, 81
1, 565065, Control_c, 0, 64, 66
1, 565080, Control_c, 0, 64, 41
1, 565085, Note_off_c, 0, 75, 41
1, 565094, Control_c, 0, 64, 0
1, 565159, Note_on_c, 0, 55, 46
1, 565176, Control_c, 0, 64, 40
1, 565191, Control_c, 0, 64, 59
1, 565206, Control_c, 0, 64, 68
1, 565220, Control_c, 0, 64, 76
1, 565220, Control_c, 0, 67, 119
1, 565235, Control_c, 0, 64, 83
1, 565235, Control_c, 0, 67, 92
1, 565250, Control_c, 0, 64, 89
1, 565250, Control_c, 0, 67, 67
1, 565264, Control_c, 0, 64, 96
1, 565264, Control_c, 0, 67, 46
1, 565273, Note_off_c, 0, 71, 51
1, 565279, Control_c, 0, 64, 101
1, 565279, Control_c, 0, 67, 0
1, 565294, Control_c, 0, 64, 105
1, 565320, Note_on_c, 0, 74, 82
1, 565333, Note_on_c, 0, 56, 50
1, 565334, Note_on_c, 0, 70, 68
1, 565383, Control_c, 0, 64, 108
1, 565395, Note_off_c, 0, 55, 34
1, 565398, Control_c, 0, 64, 112
1, 565413, Control_c, 0, 64, 127
1, 565475, Note_off_c, 0, 70, 57
1, 565480, Note_on_c, 0, 65, 49
1, 565486, Note_off_c, 0, 56, 60
1, 565515, Note_off_c, 0, 74, 57
1, 565520, Note_off_c, 0, 65, 60
1, 565672, Note_on_c, 0, 74, 75
1, 565679, Control_c, 0, 64, 117
1, 565694, Control_c, 0, 64, 83
1, 565700, Note_on_c, 0, 64, 45
1, 565703, Note_on_c, 0, 69, 51
1, 565710, Control_c, 0, 64, 66
1, 565725, Control_c, 0, 64, 53
1, 565725, Control_c, 0, 67, 47
1, 565740, Control_c, 0, 64, 41
1, 565740, Control_c, 0, 67, 63
1, 565755, Control_c, 0, 64, 39
1, 565755, Control_c, 0, 67, 78
1, 565769, Control_c, 0, 64, 42
1, 565769, Control_c, 0, 67, 92
1, 565784, Control_c, 0, 64, 50
1, 565784, Control_c, 0, 67, 103
1, 565799, Control_c, 0, 64, 60
1, 565799, Control_c, 0, 67, 111
1, 565814, Control_c, 0, 64, 65
1, 565814, Control_c, 0, 67, 117
1, 565829, Control_c, 0, 64, 71
1, 565829, Control_c, 0, 67, 123
1, 565843, Control_c, 0, 64, 78
1, 565843, Control_c, 0, 67, 126
1, 565845, Note_on_c, 0, 54, 48
1, 565858, Control_c, 0, 64, 84
1, 565873, Control_c, 0, 64, 87
1, 565891, Note_off_c, 0, 64, 35
1, 565895, Control_c, 0, 64, 90
1, 565910, Control_c, 0, 64, 93
1, 565925, Control_c, 0, 64, 95
1, 565955, Control_c, 0, 64, 97
1, 565969, Control_c, 0, 67, 124
1, 566040, Note_on_c, 0, 73, 60
1, 566043, Control_c, 0, 64, 95
1, 566045, Note_off_c, 0, 69, 38
1, 566053, Note_on_c, 0, 55, 42
1, 566055, Note_on_c, 0, 70, 46
1, 566058, Control_c, 0, 64, 89
1, 566073, Control_c, 0, 64, 78
1, 566087, Control_c, 0, 64, 66
1, 566102, Control_c, 0, 64, 52
1, 566107, Note_off_c, 0, 74, 54
1, 566117, Control_c, 0, 64, 43
1, 566122, Note_off_c, 0, 54, 29
1, 566132, Control_c, 0, 64, 40
1, 566132, Control_c, 0, 67, 122
1, 566161, Control_c, 0, 64, 43
1, 566176, Control_c, 0, 64, 48
1, 566191, Control_c, 0, 64, 57
1, 566206, Control_c, 0, 64, 65
1, 566221, Control_c, 0, 64, 73
1, 566236, Control_c, 0, 64, 83
1, 566236, Control_c, 0, 67, 120
1, 566251, Control_c, 0, 64, 91
1, 566252, Note_off_c, 0, 70, 40
1, 566265, Control_c, 0, 64, 98
1, 566280, Control_c, 0, 64, 105
1, 566280, Control_c, 0, 67, 116
1, 566289, Note_off_c, 0, 55, 57
1, 566295, Control_c, 0, 64, 111
1, 566310, Control_c, 0, 64, 119
1, 566325, Control_c, 0, 64, 122
1, 566325, Control_c, 0, 67, 114
1, 566340, Control_c, 0, 64, 125
1, 566355, Control_c, 0, 67, 112
1, 566361, Note_off_c, 0, 73, 31
1, 566384, Control_c, 0, 67, 110
1, 566392, Note_on_c, 0, 69, 66
1, 566399, Control_c, 0, 64, 122
1, 566413, Control_c, 0, 64, 118
1, 566427, Control_c, 0, 64, 108
1, 566442, Control_c, 0, 64, 90
1, 566442, Control_c, 0, 67, 108
1, 566457, Control_c, 0, 64, 72
1, 566472, Control_c, 0, 64, 54
1, 566486, Control_c, 0, 64, 0
1, 566501, Control_c, 0, 67, 105
1, 566517, Control_c, 0, 67, 101
1, 566531, Note_on_c, 0, 52, 61
1, 566532, Control_c, 0, 67, 96
1, 566547, Control_c, 0, 64, 35
1, 566547, Control_c, 0, 67, 84
1, 566562, Control_c, 0, 64, 50
1, 566562, Control_c, 0, 67, 63
1, 566577, Control_c, 0, 64, 61
1, 566577, Control_c, 0, 67, 37
1, 566591, Control_c, 0, 64, 66
1, 566591, Control_c, 0, 67, 0
1, 566606, Control_c, 0, 64, 71
1, 566621, Control_c, 0, 64, 74
1, 566641, Note_off_c, 0, 69, 60
1, 566644, Control_c, 0, 64, 78
1, 566659, Control_c, 0, 64, 83
1, 566673, Control_c, 0, 64, 89
1, 566688, Control_c, 0, 64, 96
1, 566703, Control_c, 0, 64, 104
1, 566716, Note_on_c, 0, 71, 83
1, 566717, Control_c, 0, 64, 127
1, 566720, Note_on_c, 0, 53, 52
1, 566733, Note_on_c, 0, 67, 62
1, 566785, Note_off_c, 0, 52, 34
1, 566831, Note_off_c, 0, 67, 61
1, 566835, Note_off_c, 0, 71, 62
1, 566857, Note_off_c, 0, 53, 60
1, 566869, Note_on_c, 0, 62, 70
1, 566910, Note_off_c, 0, 62, 61
1, 567058, Note_on_c, 0, 71, 83
1, 567073, Note_on_c, 0, 66, 75
1, 567076, Note_on_c, 0, 61, 75
1, 567088, Control_c, 0, 64, 98
1, 567103, Control_c, 0, 64, 71
1, 567117, Control_c, 0, 64, 48
1, 567132, Control_c, 0, 64, 0
1, 567162, Control_c, 0, 64, 34
1, 567178, Control_c, 0, 64, 53
1, 567192, Control_c, 0, 64, 65
1, 567207, Control_c, 0, 64, 74
1, 567211, Note_off_c, 0, 71, 60
1, 567222, Control_c, 0, 64, 87
1, 567236, Control_c, 0, 64, 98
1, 567241, Note_off_c, 0, 66, 64
1, 567251, Control_c, 0, 64, 116
1, 567266, Control_c, 0, 64, 127
1, 567272, Note_off_c, 0, 61, 58
1, 567416, Note_on_c, 0, 70, 89
1, 567434, Note_on_c, 0, 54, 61
1, 567442, Note_on_c, 0, 61, 61
1, 567482, Control_c, 0, 64, 98
1, 567497, Control_c, 0, 64, 73
1, 567511, Control_c, 0, 64, 56
1, 567526, Control_c, 0, 64, 39
1, 567541, Control_c, 0, 64, 36
1, 567556, Control_c, 0, 64, 47
1, 567571, Control_c, 0, 64, 59
1, 567586, Control_c, 0, 64, 67
1, 567601, Control_c, 0, 64, 77
1, 567615, Control_c, 0, 64, 90
1, 567630, Control_c, 0, 64, 104
1, 567645, Control_c, 0, 64, 127
1, 567680, Note_off_c, 0, 70, 61
1, 567757, Note_on_c, 0, 69, 84
1, 567783, Note_on_c, 0, 60, 53
1, 567785, Note_on_c, 0, 63, 61
1, 567808, Note_off_c, 0, 61, 54
1, 567822, Control_c, 0, 64, 91
1, 567837, Control_c, 0, 64, 66
1, 567849, Note_off_c, 0, 54, 26
1, 567852, Control_c, 0, 64, 48
1, 567866, Control_c, 0, 64, 31
1, 567881, Control_c, 0, 64, 28
1, 567896, Control_c, 0, 64, 38
1, 567911, Control_c, 0, 64, 53
1, 567926, Control_c, 0, 64, 63
1, 567935, Note_off_c, 0, 69, 59
1, 567940, Control_c, 0, 64, 71
1, 567955, Control_c, 0, 64, 78
1, 567970, Control_c, 0, 64, 83
1, 567985, Control_c, 0, 64, 89
1, 568000, Control_c, 0, 64, 94
1, 568014, Control_c, 0, 64, 98
1, 568029, Control_c, 0, 64, 102
1, 568044, Control_c, 0, 64, 104
1, 568076, Note_off_c, 0, 63, 54
1, 568096, Note_on_c, 0, 67, 73
1, 568116, Note_on_c, 0, 64, 57
1, 568123, Note_on_c, 0, 59, 51
1, 568156, Control_c, 0, 64, 92
1, 568158, Note_off_c, 0, 60, 37
1, 568170, Control_c, 0, 64, 76
1, 568185, Control_c, 0, 64, 62
1, 568200, Control_c, 0, 64, 45
1, 568215, Control_c, 0, 64, 32
1, 568245, Control_c, 0, 64, 40
1, 568260, Control_c, 0, 64, 52
1, 568275, Control_c, 0, 64, 61
1, 568289, Control_c, 0, 64, 66
1, 568304, Control_c, 0, 64, 71
1, 568319, Control_c, 0, 64, 75
1, 568334, Control_c, 0, 64, 78
1, 568349, Control_c, 0, 64, 82
1, 568363, Control_c, 0, 64, 85
1, 568378, Control_c, 0, 64, 87
1, 568393, Control_c, 0, 64, 89
1, 568407, Control_c, 0, 64, 89
1, 568437, Control_c, 0, 64, 90
1, 568455, Note_off_c, 0, 67, 35
1, 568490, Note_on_c, 0, 66, 68
1, 568496, Control_c, 0, 64, 89
1, 568503, Note_on_c, 0, 58, 60
1, 568511, Control_c, 0, 64, 87
1, 568526, Control_c, 0, 64, 80
1, 568540, Note_off_c, 0, 59, 38
1, 568541, Control_c, 0, 64, 70
1, 568555, Control_c, 0, 64, 57
1, 568570, Control_c, 0, 64, 48
1, 568571, Note_off_c, 0, 64, 34
1, 568585, Control_c, 0, 64, 47
1, 568600, Control_c, 0, 64, 51
1, 568614, Control_c, 0, 64, 57
1, 568629, Control_c, 0, 64, 62
1, 568644, Control_c, 0, 64, 65
1, 568659, Control_c, 0, 64, 68
1, 568674, Control_c, 0, 64, 72
1, 568683, Note_on_c, 0, 62, 52
1, 568688, Control_c, 0, 64, 75
1, 568703, Control_c, 0, 64, 78
1, 568707, Note_off_c, 0, 66, 58
1, 568718, Control_c, 0, 64, 80
1, 568733, Control_c, 0, 64, 82
1, 568748, Control_c, 0, 64, 85
1, 568762, Control_c, 0, 64, 87
1, 568775, Note_off_c, 0, 62, 56
1, 568777, Control_c, 0, 64, 88
1, 568792, Control_c, 0, 64, 90
1, 568806, Control_c, 0, 64, 92
1, 568821, Control_c, 0, 64, 94
1, 568836, Control_c, 0, 64, 96
1, 568841, Note_on_c, 0, 64, 66
1, 568851, Control_c, 0, 64, 99
1, 568853, Note_on_c, 0, 61, 61
1, 568866, Control_c, 0, 64, 101
1, 568888, Control_c, 0, 64, 103
1, 568899, Note_off_c, 0, 61, 59
1, 568903, Control_c, 0, 64, 106
1, 568918, Control_c, 0, 64, 111
1, 568933, Control_c, 0, 64, 117
1, 568948, Control_c, 0, 64, 127
1, 568960, Note_off_c, 0, 58, 59
1, 569004, Note_on_c, 0, 62, 57
1, 569004, Note_on_c, 0, 66, 60
1, 569011, Note_off_c, 0, 64, 60
1, 569032, Note_off_c, 0, 62, 64
1, 569038, Note_off_c, 0, 66, 65
1, 569156, Control_c, 0, 64, 112
1, 569160, Note_on_c, 0, 59, 77
1, 569166, Note_on_c, 0, 62, 52
1, 569171, Control_c, 0, 64, 85
1, 569185, Control_c, 0, 64, 67
1, 569200, Control_c, 0, 64, 52
1, 569215, Control_c, 0, 64, 41
1, 569229, Control_c, 0, 64, 41
1, 569244, Control_c, 0, 64, 50
1, 569259, Control_c, 0, 64, 60
1, 569274, Control_c, 0, 64, 69
1, 569289, Control_c, 0, 64, 79
1, 569303, Control_c, 0, 64, 91
1, 569315, Note_on_c, 0, 66, 62
1, 569318, Control_c, 0, 64, 105
1, 569328, Note_off_c, 0, 62, 58
1, 569333, Control_c, 0, 64, 127
1, 569343, Note_off_c, 0, 59, 59
1, 569362, Note_off_c, 0, 66, 56
1, 569501, Note_on_c, 0, 59, 90
1, 569518, Note_on_c, 0, 71, 59
1, 569524, Note_on_c, 0, 67, 57
1, 569526, Control_c, 0, 64, 86
1, 569541, Control_c, 0, 64, 66
1, 569556, Control_c, 0, 64, 52
1, 569571, Control_c, 0, 64, 50
1, 569585, Control_c, 0, 64, 57
1, 569600, Control_c, 0, 64, 65
1, 569615, Control_c, 0, 64, 76
1, 569637, Control_c, 0, 64, 94
1, 569652, Control_c, 0, 64, 127
1, 569656, Note_off_c, 0, 71, 59
1, 569658, Note_off_c, 0, 67, 51
1, 569664, Note_off_c, 0, 59, 59
1, 569676, Note_on_c, 0, 74, 67
1, 569685, Note_on_c, 0, 66, 59
1, 569772, Note_off_c, 0, 66, 59
1, 569847, Note_on_c, 0, 59, 92
1, 569852, Note_off_c, 0, 74, 62
1, 569860, Control_c, 0, 64, 91
1, 569868, Note_on_c, 0, 73, 67
1, 569874, Note_on_c, 0, 65, 63
1, 569875, Control_c, 0, 64, 65
1, 569890, Control_c, 0, 64, 42
1, 569905, Control_c, 0, 64, 35
1, 569920, Control_c, 0, 64, 42
1, 569934, Control_c, 0, 64, 56
1, 569949, Control_c, 0, 64, 66
1, 569964, Control_c, 0, 64, 77
1, 569979, Control_c, 0, 64, 97
1, 569991, Note_off_c, 0, 65, 50
1, 569994, Control_c, 0, 64, 121
1, 570004, Note_on_c, 0, 68, 59
1, 570008, Control_c, 0, 64, 127
1, 570018, Note_off_c, 0, 73, 61
1, 570037, Note_off_c, 0, 68, 66
1, 570181, Note_off_c, 0, 59, 36
1, 570198, Note_on_c, 0, 79, 71
1, 570200, Note_on_c, 0, 58, 61
1, 570201, Note_on_c, 0, 61, 61
1, 570201, Control_c, 0, 64, 118
1, 570216, Control_c, 0, 64, 81
1, 570231, Control_c, 0, 64, 63
1, 570246, Control_c, 0, 64, 51
1, 570260, Control_c, 0, 64, 51
1, 570275, Control_c, 0, 64, 58
1, 570290, Control_c, 0, 64, 66
1, 570305, Control_c, 0, 64, 75
1, 570320, Control_c, 0, 64, 90
1, 570322, Note_off_c, 0, 79, 61
1, 570334, Control_c, 0, 64, 108
1, 570349, Control_c, 0, 64, 127
1, 570360, Note_on_c, 0, 64, 61
1, 570363, Note_off_c, 0, 61, 53
1, 570426, Note_off_c, 0, 58, 35
1, 570426, Note_off_c, 0, 64, 53
1, 570534, Note_on_c, 0, 78, 75
1, 570536, Control_c, 0, 64, 86
1, 570551, Control_c, 0, 64, 65
1, 570555, Note_on_c, 0, 64, 53
1, 570565, Control_c, 0, 64, 51
1, 570580, Control_c, 0, 64, 49
1, 570595, Control_c, 0, 64, 57
1, 570610, Control_c, 0, 64, 65
1, 570625, Control_c, 0, 64, 74
1, 570639, Control_c, 0, 64, 91
1, 570654, Control_c, 0, 64, 125
1, 570669, Control_c, 0, 64, 127
1, 570691, Note_on_c, 0, 63, 64
1, 570700, Note_off_c, 0, 64, 32
1, 570719, Note_off_c, 0, 63, 66
1, 570753, Note_off_c, 0, 78, 60
1, 570832, Control_c, 0, 64, 112
1, 570835, Note_on_c, 0, 77, 88
1, 570841, Note_on_c, 0, 56, 80
1, 570847, Control_c, 0, 64, 75
1, 570862, Control_c, 0, 64, 54
1, 570876, Control_c, 0, 64, 37
1, 570891, Control_c, 0, 64, 42
1, 570906, Control_c, 0, 64, 57
1, 570921, Control_c, 0, 64, 66
1, 570936, Control_c, 0, 64, 77
1, 570950, Control_c, 0, 64, 93
1, 570965, Control_c, 0, 64, 115
1, 570980, Control_c, 0, 64, 127
1, 570989, Note_on_c, 0, 72, 66
1, 571032, Note_off_c, 0, 56, 60
1, 571056, Note_off_c, 0, 77, 59
1, 571065, Note_off_c, 0, 72, 61
1, 571162, Note_on_c, 0, 76, 87
1, 571169, Note_on_c, 0, 57, 78
1, 571172, Note_on_c, 0, 73, 78
1, 571180, Control_c, 0, 64, 90
1, 571195, Control_c, 0, 64, 65
1, 571209, Control_c, 0, 64, 39
1, 571224, Control_c, 0, 64, 31
1, 571239, Control_c, 0, 64, 39
1, 571254, Control_c, 0, 64, 54
1, 571269, Control_c, 0, 64, 64
1, 571283, Control_c, 0, 64, 73
1, 571298, Control_c, 0, 64, 87
1, 571314, Control_c, 0, 64, 105
1, 571329, Control_c, 0, 64, 127
1, 571353, Note_on_c, 0, 71, 69
1, 571354, Note_on_c, 0, 64, 61
1, 571368, Note_off_c, 0, 57, 61
1, 571378, Note_off_c, 0, 71, 67
1, 571392, Note_off_c, 0, 64, 60
1, 571396, Note_off_c, 0, 73, 61
1, 571396, Note_off_c, 0, 76, 58
1, 571517, Note_on_c, 0, 77, 80
1, 571529, Note_on_c, 0, 56, 58
1, 571536, Note_on_c, 0, 64, 56
1, 571536, Control_c, 0, 64, 98
1, 571545, Note_on_c, 0, 71, 60
1, 571551, Control_c, 0, 64, 73
1, 571566, Control_c, 0, 64, 56
1, 571580, Control_c, 0, 64, 38
1, 571595, Control_c, 0, 64, 32
1, 571610, Control_c, 0, 64, 38
1, 571625, Control_c, 0, 64, 51
1, 571640, Control_c, 0, 64, 62
1, 571655, Control_c, 0, 64, 69
1, 571670, Control_c, 0, 64, 78
1, 571670, Note_off_c, 0, 71, 62
1, 571685, Note_off_c, 0, 64, 60
1, 571685, Control_c, 0, 64, 90
1, 571686, Note_on_c, 0, 69, 71
1, 571687, Note_on_c, 0, 62, 62
1, 571699, Control_c, 0, 64, 102
1, 571704, Note_off_c, 0, 77, 59
1, 571714, Control_c, 0, 64, 127
1, 571715, Note_off_c, 0, 69, 63
1, 571719, Note_off_c, 0, 62, 64
1, 571739, Note_off_c, 0, 56, 57
1, 571845, Note_on_c, 0, 76, 83
1, 571846, Note_on_c, 0, 62, 65
1, 571857, Note_on_c, 0, 71, 70
1, 571884, Control_c, 0, 64, 85
1, 571899, Control_c, 0, 64, 63
1, 571914, Control_c, 0, 64, 43
1, 571929, Control_c, 0, 64, 37
1, 571944, Control_c, 0, 64, 48
1, 571959, Control_c, 0, 64, 62
1, 571969, Note_off_c, 0, 71, 62
1, 571974, Control_c, 0, 64, 71
1, 571988, Control_c, 0, 64, 87
1, 571991, Note_on_c, 0, 61, 72
1, 571994, Note_off_c, 0, 62, 62
1, 572003, Control_c, 0, 64, 117
1, 572005, Note_on_c, 0, 69, 69
1, 572008, Note_off_c, 0, 76, 59
1, 572018, Control_c, 0, 64, 127
1, 572024, Note_off_c, 0, 61, 64
1, 572031, Note_off_c, 0, 69, 66
1, 572171, Note_on_c, 0, 61, 82
1, 572172, Note_on_c, 0, 74, 89
1, 572180, Note_on_c, 0, 54, 66
1, 572197, Control_c, 0, 64, 90
1, 572197, Note_on_c, 0, 68, 65
1, 572211, Control_c, 0, 64, 66
1, 572226, Control_c, 0, 64, 43
1, 572241, Control_c, 0, 64, 39
1, 572255, Control_c, 0, 64, 50
1, 572270, Control_c, 0, 64, 63
1, 572285, Control_c, 0, 64, 75
1, 572300, Control_c, 0, 64, 97
1, 572306, Note_off_c, 0, 61, 60
1, 572312, Note_off_c, 0, 68, 62
1, 572314, Note_off_c, 0, 74, 60
1, 572315, Control_c, 0, 64, 127
1, 572317, Note_on_c, 0, 59, 73
1, 572341, Note_on_c, 0, 65, 67
1, 572343, Note_off_c, 0, 59, 66
1, 572344, Note_off_c, 0, 54, 61
1, 572368, Note_off_c, 0, 65, 67
1, 572503, Note_on_c, 0, 73, 83
1, 572513, Note_on_c, 0, 68, 65
1, 572521, Control_c, 0, 64, 79
1, 572527, Note_on_c, 0, 54, 87
1, 572536, Control_c, 0, 64, 53
1, 572551, Control_c, 0, 64, 33
1, 572566, Control_c, 0, 64, 36
1, 572573, Note_on_c, 0, 53, 60
1, 572581, Control_c, 0, 64, 50
1, 572591, Note_off_c, 0, 73, 64
1, 572595, Control_c, 0, 64, 62
1, 572610, Control_c, 0, 64, 72
1, 572633, Control_c, 0, 64, 88
1, 572636, Note_off_c, 0, 68, 62
1, 572648, Control_c, 0, 64, 103
1, 572658, Note_off_c, 0, 53, 61
1, 572658, Note_off_c, 0, 54, 61
1, 572662, Control_c, 0, 64, 127
1, 572680, Note_on_c, 0, 59, 69
1, 572785, Note_off_c, 0, 59, 60
1, 572831, Note_on_c, 0, 68, 79
1, 572842, Note_on_c, 0, 62, 70
1, 572848, Note_on_c, 0, 53, 92
1, 572869, Control_c, 0, 64, 103
1, 572884, Control_c, 0, 64, 74
1, 572900, Control_c, 0, 64, 55
1, 572915, Control_c, 0, 64, 35
1, 572930, Control_c, 0, 64, 29
1, 572944, Control_c, 0, 64, 40
1, 572959, Control_c, 0, 64, 55
1, 572974, Control_c, 0, 64, 65
1, 572989, Control_c, 0, 64, 74
1, 572990, Note_off_c, 0, 62, 62
1, 573003, Note_on_c, 0, 61, 74
1, 573004, Control_c, 0, 64, 85
1, 573019, Control_c, 0, 64, 96
1, 573033, Control_c, 0, 64, 109
1, 573039, Note_off_c, 0, 68, 58
1, 573048, Control_c, 0, 64, 127
1, 573086, Note_off_c, 0, 61, 61
1, 573106, Note_off_c, 0, 53, 54
1, 573191, Note_on_c, 0, 70, 74
1, 573199, Note_on_c, 0, 52, 87
1, 573199, Note_on_c, 0, 61, 67
1, 573241, Control_c, 0, 64, 91
1, 573256, Control_c, 0, 64, 67
1, 573271, Control_c, 0, 64, 46
1, 573285, Control_c, 0, 64, 0
1, 573315, Control_c, 0, 64, 36
1, 573330, Control_c, 0, 64, 54
1, 573345, Control_c, 0, 64, 66
1, 573360, Control_c, 0, 64, 73
1, 573382, Control_c, 0, 64, 81
1, 573384, Note_on_c, 0, 67, 70
1, 573392, Note_off_c, 0, 52, 61
1, 573397, Control_c, 0, 64, 89
1, 573411, Control_c, 0, 64, 99
1, 573426, Control_c, 0, 64, 109
1, 573431, Note_off_c, 0, 61, 60
1, 573440, Note_off_c, 0, 70, 59
1, 573441, Control_c, 0, 64, 125
1, 573456, Control_c, 0, 64, 127
1, 573469, Note_off_c, 0, 67, 56
1, 573573, Note_on_c, 0, 71, 77
1, 573582, Note_on_c, 0, 50, 81
1, 573584, Note_on_c, 0, 67, 70
1, 573604, Control_c, 0, 64, 112
1, 573619, Control_c, 0, 64, 85
1, 573634, Control_c, 0, 64, 66
1, 573649, Control_c, 0, 64, 47
1, 573664, Control_c, 0, 64, 0
1, 573709, Control_c, 0, 64, 39
1, 573724, Control_c, 0, 64, 53
1, 573739, Control_c, 0, 64, 63
1, 573753, Control_c, 0, 64, 70
1, 573756, Note_on_c, 0, 66, 77
1, 573768, Control_c, 0, 64, 76
1, 573783, Control_c, 0, 64, 81
1, 573795, Note_off_c, 0, 67, 60
1, 573798, Control_c, 0, 64, 85
1, 573813, Control_c, 0, 64, 88
1, 573827, Control_c, 0, 64, 92
1, 573842, Control_c, 0, 64, 95
1, 573857, Control_c, 0, 64, 98
1, 573868, Note_off_c, 0, 66, 61
1, 573887, Control_c, 0, 64, 100
1, 573975, Note_on_c, 0, 49, 75
1, 573998, Note_on_c, 0, 65, 73
1, 574005, Control_c, 0, 64, 91
1, 574007, Note_on_c, 0, 61, 64
1, 574019, Control_c, 0, 64, 74
1, 574022, Note_off_c, 0, 50, 34
1, 574034, Control_c, 0, 64, 57
1, 574049, Control_c, 0, 64, 0
1, 574108, Control_c, 0, 64, 28
1, 574131, Control_c, 0, 64, 38
1, 574146, Control_c, 0, 64, 47
1, 574161, Control_c, 0, 64, 56
1, 574175, Control_c, 0, 64, 62
1, 574190, Control_c, 0, 64, 65
1, 574205, Control_c, 0, 64, 67
1, 574210, Note_on_c, 0, 69, 70
1, 574220, Control_c, 0, 64, 68
1, 574222, Note_off_c, 0, 65, 58
1, 574234, Control_c, 0, 64, 70
1, 574249, Control_c, 0, 64, 71
1, 574264, Control_c, 0, 64, 72
1, 574279, Control_c, 0, 64, 73
1, 574362, Note_on_c, 0, 68, 78
1, 574362, Note_off_c, 0, 49, 59
1, 574365, Note_on_c, 0, 47, 58
1, 574393, Note_off_c, 0, 61, 47
1, 574397, Note_off_c, 0, 71, 54
1, 574397, Control_c, 0, 64, 73
1, 574402, Note_off_c, 0, 69, 58
1, 574412, Control_c, 0, 64, 72
1, 574427, Control_c, 0, 64, 68
1, 574442, Control_c, 0, 64, 61
1, 574457, Control_c, 0, 64, 47
1, 574472, Control_c, 0, 64, 0
1, 574502, Note_on_c, 0, 49, 62
1, 574509, Note_on_c, 0, 69, 81
1, 574516, Note_off_c, 0, 47, 57
1, 574544, Note_off_c, 0, 68, 60
1, 574678, Note_on_c, 0, 45, 66
1, 574685, Note_on_c, 0, 66, 77
1, 574699, Note_off_c, 0, 49, 51
1, 574720, Note_off_c, 0, 69, 57
1, 574724, Control_c, 0, 64, 36
1, 574739, Control_c, 0, 64, 53
1, 574746, Note_off_c, 0, 45, 62
1, 574754, Control_c, 0, 64, 64
1, 574769, Control_c, 0, 64, 72
1, 574784, Control_c, 0, 64, 78
1, 574798, Control_c, 0, 64, 83
1, 574813, Control_c, 0, 64, 88
1, 574828, Control_c, 0, 64, 93
1, 574830, Note_off_c, 0, 66, 60
1, 574833, Note_on_c, 0, 65, 74
1, 574842, Control_c, 0, 64, 98
1, 574857, Control_c, 0, 64, 104
1, 574880, Control_c, 0, 64, 110
1, 574895, Control_c, 0, 64, 114
1, 574898, Note_off_c, 0, 65, 61
1, 574910, Control_c, 0, 64, 116
1, 574983, Control_c, 0, 64, 106
1, 574998, Control_c, 0, 64, 87
1, 575002, Note_on_c, 0, 69, 83
1, 575012, Note_on_c, 0, 57, 65
1, 575013, Control_c, 0, 64, 70
1, 575026, Note_on_c, 0, 65, 61
1, 575028, Control_c, 0, 64, 55
1, 575030, Note_on_c, 0, 48, 63
1, 575043, Control_c, 0, 64, 40
1, 575057, Control_c, 0, 64, 40
1, 575072, Control_c, 0, 64, 48
1, 575087, Control_c, 0, 64, 61
1, 575101, Note_off_c, 0, 57, 62
1, 575102, Control_c, 0, 64, 67
1, 575117, Control_c, 0, 64, 75
1, 575131, Control_c, 0, 64, 83
1, 575146, Control_c, 0, 64, 89
1, 575161, Control_c, 0, 64, 95
1, 575162, Note_off_c, 0, 48, 62
1, 575171, Note_on_c, 0, 64, 67
1, 575175, Control_c, 0, 64, 101
1, 575185, Note_off_c, 0, 65, 57
1, 575190, Control_c, 0, 64, 109
1, 575205, Control_c, 0, 64, 117
1, 575220, Control_c, 0, 64, 127
1, 575225, Note_off_c, 0, 64, 63
1, 575339, Note_on_c, 0, 47, 64
1, 575345, Note_on_c, 0, 63, 71
1, 575346, Note_on_c, 0, 59, 61
1, 575354, Control_c, 0, 64, 112
1, 575369, Control_c, 0, 64, 94
1, 575384, Control_c, 0, 64, 78
1, 575399, Control_c, 0, 64, 62
1, 575414, Control_c, 0, 64, 47
1, 575429, Control_c, 0, 64, 33
1, 575444, Control_c, 0, 64, 0
1, 575489, Note_on_c, 0, 67, 69
1, 575530, Note_off_c, 0, 63, 57
1, 575588, Note_off_c, 0, 69, 38
1, 575675, Note_off_c, 0, 47, 55
1, 575676, Note_on_c, 0, 45, 52
1, 575678, Note_on_c, 0, 66, 77
1, 575725, Note_off_c, 0, 67, 57
1, 575733, Note_off_c, 0, 59, 46
1, 575834, Note_off_c, 0, 45, 53
1, 575837, Note_on_c, 0, 67, 72
1, 575841, Note_on_c, 0, 47, 45
1, 575874, Note_off_c, 0, 66, 60
1, 576038, Note_on_c, 0, 64, 62
1, 576052, Note_on_c, 0, 43, 50
1, 576081, Note_off_c, 0, 47, 47
1, 576103, Control_c, 0, 64, 35
1, 576118, Control_c, 0, 64, 51
1, 576133, Control_c, 0, 64, 62
1, 576148, Control_c, 0, 64, 66
1, 576149, Note_off_c, 0, 43, 62
1, 576163, Control_c, 0, 64, 71
1, 576177, Control_c, 0, 64, 75
1, 576183, Note_off_c, 0, 67, 31
1, 576192, Control_c, 0, 64, 80
1, 576207, Control_c, 0, 64, 86
1, 576222, Control_c, 0, 64, 91
1, 576222, Note_off_c, 0, 64, 62
1, 576225, Note_on_c, 0, 63, 68
1, 576237, Control_c, 0, 64, 95
1, 576251, Control_c, 0, 64, 100
1, 576266, Control_c, 0, 64, 104
1, 576281, Control_c, 0, 64, 108
1, 576296, Control_c, 0, 64, 112
1, 576311, Control_c, 0, 64, 116
1, 576341, Control_c, 0, 64, 121
1, 576365, Note_off_c, 0, 63, 52
1, 576481, Control_c, 0, 64, 118
1, 576496, Control_c, 0, 64, 109
1, 576503, Note_on_c, 0, 67, 68
1, 576511, Control_c, 0, 64, 90
1, 576515, Note_on_c, 0, 46, 41
1, 576520, Note_on_c, 0, 55, 46
1, 576526, Control_c, 0, 64, 72
1, 576527, Note_on_c, 0, 63, 50
1, 576541, Control_c, 0, 64, 57
1, 576555, Control_c, 0, 64, 39
1, 576570, Control_c, 0, 64, 0
1, 576600, Control_c, 0, 64, 32
1, 576615, Control_c, 0, 64, 45
1, 576629, Control_c, 0, 64, 55
1, 576644, Control_c, 0, 64, 63
1, 576659, Control_c, 0, 64, 68
1, 576659, Control_c, 0, 67, 36
1, 576674, Control_c, 0, 64, 73
1, 576674, Control_c, 0, 67, 43
1, 576689, Control_c, 0, 64, 77
1, 576689, Control_c, 0, 67, 54
1, 576703, Control_c, 0, 64, 80
1, 576703, Control_c, 0, 67, 66
1, 576718, Control_c, 0, 64, 82
1, 576718, Control_c, 0, 67, 78
1, 576733, Control_c, 0, 64, 84
1, 576733, Control_c, 0, 67, 90
1, 576737, Note_off_c, 0, 55, 50
1, 576747, Control_c, 0, 64, 86
1, 576747, Control_c, 0, 67, 101
1, 576758, Note_off_c, 0, 46, 36
1, 576762, Control_c, 0, 64, 87
1, 576762, Control_c, 0, 67, 112
1, 576771, Note_off_c, 0, 63, 59
1, 576777, Control_c, 0, 64, 87
1, 576777, Control_c, 0, 67, 124
1, 576792, Control_c, 0, 67, 127
1, 576839, Note_on_c, 0, 62, 48
1, 576897, Control_c, 0, 64, 82
1, 576912, Control_c, 0, 64, 69
1, 576926, Control_c, 0, 64, 45
1, 576941, Control_c, 0, 64, 0
1, 576959, Note_on_c, 0, 45, 50
1, 577030, Control_c, 0, 64, 44
1, 577044, Control_c, 0, 64, 57
1, 577059, Control_c, 0, 64, 63
1, 577074, Control_c, 0, 64, 66
1, 577079, Note_off_c, 0, 45, 60
1, 577089, Control_c, 0, 64, 68
1, 577100, Note_on_c, 0, 52, 48
1, 577104, Control_c, 0, 64, 71
1, 577126, Control_c, 0, 64, 74
1, 577141, Control_c, 0, 64, 77
1, 577156, Control_c, 0, 64, 80
1, 577159, Note_off_c, 0, 62, 37
1, 577171, Control_c, 0, 64, 82
1, 577186, Control_c, 0, 64, 84
1, 577200, Control_c, 0, 64, 85
1, 577215, Control_c, 0, 64, 86
1, 577230, Control_c, 0, 64, 87
1, 577244, Control_c, 0, 64, 87
1, 577274, Control_c, 0, 64, 88
1, 577304, Control_c, 0, 64, 88
1, 577305, Note_off_c, 0, 67, 28
1, 577319, Note_off_c, 0, 52, 32
1, 577319, Control_c, 0, 64, 89
1, 577334, Control_c, 0, 64, 90
1, 577348, Control_c, 0, 64, 91
1, 577356, Note_on_c, 0, 61, 58
1, 577363, Note_on_c, 0, 66, 54
1, 577363, Control_c, 0, 64, 93
1, 577378, Control_c, 0, 64, 97
1, 577393, Control_c, 0, 64, 101
1, 577408, Control_c, 0, 64, 106
1, 577417, Note_off_c, 0, 61, 63
1, 577423, Control_c, 0, 64, 112
1, 577438, Control_c, 0, 64, 127
1, 577678, Note_on_c, 0, 67, 70
1, 577678, Note_off_c, 0, 66, 42
1, 577903, Note_on_c, 0, 85, 66
1, 577907, Note_on_c, 0, 76, 55
1, 577919, Note_on_c, 0, 82, 59
1, 577950, Note_off_c, 0, 67, 37
1, 577981, Note_off_c, 0, 85, 62
1, 577992, Note_off_c, 0, 82, 60
1, 578070, Note_on_c, 0, 73, 60
1, 578076, Note_off_c, 0, 76, 54
1, 578210, Note_off_c, 0, 73, 62
1, 578237, Note_on_c, 0, 69, 62
1, 578389, Note_off_c, 0, 69, 50
1, 578398, Note_on_c, 0, 70, 62
1, 578490, Note_off_c, 0, 70, 63
1, 578557, Note_on_c, 0, 79, 58
1, 578572, Note_on_c, 0, 73, 59
1, 578582, Note_on_c, 0, 64, 47
1, 578587, Control_c, 0, 64, 90
1, 578602, Control_c, 0, 64, 71
1, 578624, Control_c, 0, 64, 59
1, 578639, Control_c, 0, 64, 51
1, 578654, Control_c, 0, 64, 52
1, 578669, Control_c, 0, 64, 58
1, 578684, Control_c, 0, 64, 64
1, 578698, Control_c, 0, 64, 70
1, 578713, Control_c, 0, 64, 79
1, 578728, Control_c, 0, 64, 88
1, 578730, Note_on_c, 0, 76, 67
1, 578743, Control_c, 0, 64, 95
1, 578758, Control_c, 0, 64, 103
1, 578767, Note_off_c, 0, 79, 60
1, 578772, Control_c, 0, 64, 112
1, 578785, Note_off_c, 0, 73, 61
1, 578787, Control_c, 0, 64, 127
1, 578871, Note_off_c, 0, 64, 59
1, 578881, Note_off_c, 0, 76, 61
1, 578897, Note_on_c, 0, 72, 67
1, 579048, Note_on_c, 0, 73, 65
1, 579075, Note_off_c, 0, 72, 57
1, 579242, Note_on_c, 0, 67, 71
1, 579256, Note_on_c, 0, 82, 52
1, 579258, Note_off_c, 0, 73, 53
1, 579261, Control_c, 0, 64, 107
1, 579276, Control_c, 0, 64, 76
1, 579292, Control_c, 0, 64, 59
1, 579307, Control_c, 0, 64, 42
1, 579321, Control_c, 0, 64, 33
1, 579336, Control_c, 0, 64, 35
1, 579351, Control_c, 0, 64, 44
1, 579373, Control_c, 0, 64, 55
1, 579388, Control_c, 0, 64, 62
1, 579402, Control_c, 0, 64, 67
1, 579411, Note_off_c, 0, 82, 55
1, 579417, Control_c, 0, 64, 72
1, 579420, Note_on_c, 0, 79, 48
1, 579432, Control_c, 0, 64, 76
1, 579447, Control_c, 0, 64, 80
1, 579462, Control_c, 0, 64, 82
1, 579477, Control_c, 0, 64, 86
1, 579492, Control_c, 0, 64, 88
1, 579507, Control_c, 0, 64, 90
1, 579521, Control_c, 0, 64, 91
1, 579536, Control_c, 0, 64, 92
1, 579551, Control_c, 0, 64, 93
1, 579565, Control_c, 0, 64, 94
1, 579580, Control_c, 0, 64, 94
1, 579595, Control_c, 0, 64, 95
1, 579597, Note_on_c, 0, 70, 71
1, 579610, Control_c, 0, 64, 95
1, 579621, Note_on_c, 0, 76, 46
1, 579622, Note_off_c, 0, 79, 38
1, 579625, Control_c, 0, 64, 96
1, 579669, Control_c, 0, 64, 98
1, 579699, Control_c, 0, 64, 100
1, 579728, Control_c, 0, 64, 103
1, 579754, Note_off_c, 0, 67, 31
1, 579758, Control_c, 0, 64, 105
1, 579760, Note_off_c, 0, 70, 60
1, 579763, Note_off_c, 0, 76, 58
1, 579784, Note_on_c, 0, 73, 51
1, 579787, Control_c, 0, 64, 108
1, 579832, Control_c, 0, 64, 110
1, 579891, Control_c, 0, 64, 112
1, 579972, Note_off_c, 0, 73, 57
1, 580016, Note_on_c, 0, 64, 63
1, 580016, Note_on_c, 0, 70, 43
1, 580055, Control_c, 0, 64, 114
1, 580100, Control_c, 0, 64, 117
1, 580150, Note_off_c, 0, 64, 62
1, 580152, Control_c, 0, 64, 119
1, 580160, Note_off_c, 0, 70, 39
1, 580211, Control_c, 0, 64, 122
1, 580256, Control_c, 0, 64, 125
1, 580262, Note_on_c, 0, 67, 53
1, 580285, Control_c, 0, 64, 127
1, 580320, Note_off_c, 0, 67, 61
1, 580536, Note_on_c, 0, 63, 53
1, 580538, Control_c, 0, 64, 125
1, 580552, Control_c, 0, 64, 122
1, 580562, Note_on_c, 0, 67, 46
1, 580567, Control_c, 0, 64, 117
1, 580582, Control_c, 0, 64, 111
1, 580596, Control_c, 0, 64, 101
1, 580611, Control_c, 0, 64, 88
1, 580626, Control_c, 0, 64, 74
1, 580641, Control_c, 0, 64, 60
1, 580654, Control_c, 0, 64, 45
1, 580669, Control_c, 0, 64, 31
1, 580684, Control_c, 0, 64, 0
1, 580714, Control_c, 0, 64, 28
1, 580729, Control_c, 0, 64, 34
1, 580743, Control_c, 0, 64, 43
1, 580758, Note_on_c, 0, 48, 52
1, 580758, Control_c, 0, 64, 53
1, 580773, Control_c, 0, 64, 60
1, 580787, Control_c, 0, 64, 64
1, 580802, Control_c, 0, 64, 66
1, 580817, Control_c, 0, 64, 68
1, 580832, Control_c, 0, 64, 70
1, 580847, Control_c, 0, 64, 72
1, 580869, Control_c, 0, 64, 74
1, 580884, Control_c, 0, 64, 77
1, 580899, Control_c, 0, 64, 79
1, 580914, Control_c, 0, 64, 82
1, 580929, Control_c, 0, 64, 85
1, 580937, Note_on_c, 0, 66, 58
1, 580944, Control_c, 0, 64, 87
1, 580955, Note_on_c, 0, 57, 43
1, 580959, Control_c, 0, 64, 89
1, 580973, Control_c, 0, 64, 91
1, 580978, Note_off_c, 0, 67, 38
1, 580988, Control_c, 0, 64, 92
1, 581003, Control_c, 0, 64, 94
1, 581018, Control_c, 0, 64, 95
1, 581070, Note_off_c, 0, 48, 36
1, 581078, Control_c, 0, 64, 97
1, 581106, Note_off_c, 0, 57, 49
1, 581107, Note_on_c, 0, 54, 45
1, 581225, Control_c, 0, 64, 93
1, 581240, Control_c, 0, 64, 80
1, 581255, Control_c, 0, 64, 65
1, 581259, Note_on_c, 0, 50, 61
1, 581270, Control_c, 0, 64, 47
1, 581283, Note_off_c, 0, 54, 39
1, 581284, Control_c, 0, 64, 28
1, 581299, Control_c, 0, 64, 0
1, 581314, Control_c, 0, 64, 35
1, 581322, Note_off_c, 0, 66, 64
1, 581329, Control_c, 0, 64, 47
1, 581343, Control_c, 0, 64, 57
1, 581358, Control_c, 0, 64, 63
1, 581373, Control_c, 0, 64, 68
1, 581388, Control_c, 0, 64, 72
1, 581403, Control_c, 0, 64, 74
1, 581411, Note_on_c, 0, 51, 58
1, 581417, Control_c, 0, 64, 77
1, 581432, Control_c, 0, 64, 80
1, 581447, Control_c, 0, 64, 82
1, 581462, Control_c, 0, 64, 85
1, 581477, Control_c, 0, 64, 88
1, 581490, Note_off_c, 0, 63, 57
1, 581492, Control_c, 0, 64, 90
1, 581507, Control_c, 0, 64, 92
1, 581522, Control_c, 0, 64, 93
1, 581536, Control_c, 0, 64, 95
1, 581551, Control_c, 0, 64, 98
1, 581566, Control_c, 0, 64, 100
1, 581576, Note_on_c, 0, 78, 73
1, 581581, Control_c, 0, 64, 103
1, 581593, Note_on_c, 0, 60, 50
1, 581596, Control_c, 0, 64, 106
1, 581604, Note_on_c, 0, 69, 51
1, 581617, Control_c, 0, 64, 110
1, 581632, Control_c, 0, 64, 114
1, 581647, Control_c, 0, 64, 127
1, 581662, Control_c, 0, 67, 123
1, 581677, Control_c, 0, 67, 115
1, 581693, Control_c, 0, 67, 105
1, 581708, Control_c, 0, 67, 95
1, 581712, Note_off_c, 0, 50, 39
1, 581721, Note_off_c, 0, 51, 56
1, 581722, Control_c, 0, 67, 85
1, 581737, Control_c, 0, 67, 77
1, 581752, Control_c, 0, 67, 71
1, 581754, Note_off_c, 0, 60, 55
1, 581756, Note_on_c, 0, 57, 53
1, 581758, Note_off_c, 0, 78, 54
1, 581766, Control_c, 0, 67, 66
1, 581778, Note_off_c, 0, 69, 52
1, 581781, Control_c, 0, 67, 61
1, 581796, Control_c, 0, 67, 55
1, 581811, Control_c, 0, 67, 49
1, 581826, Control_c, 0, 67, 46
1, 581841, Control_c, 0, 67, 46
1, 581856, Control_c, 0, 67, 45
1, 581897, Note_off_c, 0, 57, 57
1, 581905, Note_on_c, 0, 53, 71
1, 581930, Control_c, 0, 64, 101
1, 581945, Control_c, 0, 64, 77
1, 581959, Control_c, 0, 64, 61
1, 581974, Control_c, 0, 64, 48
1, 581989, Control_c, 0, 64, 47
1, 581989, Control_c, 0, 67, 46
1, 582004, Control_c, 0, 64, 51
1, 582019, Control_c, 0, 64, 59
1, 582033, Control_c, 0, 64, 65
1, 582048, Control_c, 0, 64, 73
1, 582063, Note_on_c, 0, 54, 64
1, 582063, Control_c, 0, 64, 83
1, 582078, Control_c, 0, 64, 91
1, 582081, Note_off_c, 0, 53, 59
1, 582093, Control_c, 0, 64, 99
1, 582107, Control_c, 0, 64, 108
1, 582122, Control_c, 0, 64, 127
1, 582122, Control_c, 0, 67, 46
1, 582137, Control_c, 0, 67, 47
1, 582152, Control_c, 0, 67, 49
1, 582166, Control_c, 0, 67, 51
1, 582181, Control_c, 0, 67, 53
1, 582196, Control_c, 0, 67, 54
1, 582211, Control_c, 0, 67, 55
1, 582226, Control_c, 0, 64, 102
1, 582226, Control_c, 0, 67, 57
1, 582240, Control_c, 0, 64, 77
1, 582240, Control_c, 0, 67, 58
1, 582241, Note_on_c, 0, 69, 73
1, 582243, Note_on_c, 0, 63, 68
1, 582255, Control_c, 0, 64, 59
1, 582255, Control_c, 0, 67, 58
1, 582270, Control_c, 0, 64, 36
1, 582270, Control_c, 0, 67, 59
1, 582285, Control_c, 0, 64, 0
1, 582315, Control_c, 0, 64, 35
1, 582329, Control_c, 0, 64, 54
1, 582344, Control_c, 0, 64, 64
1, 582366, Control_c, 0, 64, 72
1, 582374, Note_off_c, 0, 63, 62
1, 582381, Control_c, 0, 64, 80
1, 582381, Control_c, 0, 67, 58
1, 582394, Note_on_c, 0, 60, 61
1, 582396, Control_c, 0, 64, 85
1, 582411, Control_c, 0, 64, 92
1, 582426, Control_c, 0, 64, 99
1, 582429, Note_off_c, 0, 60, 65
1, 582440, Control_c, 0, 64, 109
1, 582440, Control_c, 0, 67, 58
1, 582452, Note_off_c, 0, 54, 37
1, 582455, Control_c, 0, 64, 122
1, 582470, Control_c, 0, 64, 127
1, 582486, Control_c, 0, 67, 58
1, 582501, Control_c, 0, 67, 59
1, 582505, Note_off_c, 0, 69, 35
1, 582516, Control_c, 0, 67, 59
1, 582531, Control_c, 0, 67, 60
1, 582545, Control_c, 0, 64, 116
1, 582545, Control_c, 0, 67, 61
1, 582560, Control_c, 0, 64, 92
1, 582560, Control_c, 0, 67, 62
1, 582561, Note_on_c, 0, 72, 68
1, 582571, Note_on_c, 0, 57, 61
1, 582575, Control_c, 0, 64, 73
1, 582575, Control_c, 0, 67, 63
1, 582589, Note_on_c, 0, 63, 53
1, 582589, Control_c, 0, 64, 58
1, 582589, Control_c, 0, 67, 63
1, 582604, Control_c, 0, 64, 43
1, 582619, Control_c, 0, 64, 39
1, 582634, Control_c, 0, 64, 44
1, 582649, Control_c, 0, 64, 57
1, 582663, Control_c, 0, 64, 65
1, 582678, Control_c, 0, 64, 73
1, 582682, Note_off_c, 0, 72, 62
1, 582693, Control_c, 0, 64, 81
1, 582701, Note_off_c, 0, 57, 59
1, 582708, Control_c, 0, 64, 87
1, 582723, Control_c, 0, 64, 92
1, 582726, Note_off_c, 0, 63, 62
1, 582729, Note_on_c, 0, 54, 60
1, 582738, Control_c, 0, 64, 98
1, 582753, Control_c, 0, 64, 103
1, 582768, Control_c, 0, 64, 109
1, 582768, Control_c, 0, 67, 63
1, 582782, Control_c, 0, 64, 115
1, 582797, Control_c, 0, 64, 122
1, 582812, Control_c, 0, 64, 127
1, 582871, Control_c, 0, 64, 125
1, 582871, Control_c, 0, 67, 63
1, 582886, Control_c, 0, 64, 108
1, 582886, Control_c, 0, 67, 64
1, 582897, Note_on_c, 0, 66, 68
1, 582901, Control_c, 0, 64, 89
1, 582901, Control_c, 0, 67, 65
1, 582916, Control_c, 0, 64, 71
1, 582916, Control_c, 0, 67, 65
1, 582922, Note_off_c, 0, 54, 34
1, 582923, Note_on_c, 0, 51, 52
1, 582930, Control_c, 0, 64, 57
1, 582930, Control_c, 0, 67, 66
1, 582936, Note_on_c, 0, 57, 43
1, 582945, Control_c, 0, 64, 46
1, 582945, Control_c, 0, 67, 66
1, 582960, Control_c, 0, 64, 48
1, 582960, Control_c, 0, 67, 67
1, 582975, Control_c, 0, 64, 56
1, 582989, Control_c, 0, 64, 62
1, 582989, Control_c, 0, 67, 67
1, 583004, Control_c, 0, 64, 68
1, 583004, Control_c, 0, 67, 68
1, 583009, Note_off_c, 0, 57, 58
1, 583019, Control_c, 0, 64, 75
1, 583019, Control_c, 0, 67, 70
1, 583034, Control_c, 0, 64, 84
1, 583034, Control_c, 0, 67, 72
1, 583049, Control_c, 0, 64, 93
1, 583049, Control_c, 0, 67, 74
1, 583063, Control_c, 0, 64, 102
1, 583063, Control_c, 0, 67, 76
1, 583078, Control_c, 0, 64, 110
1, 583078, Control_c, 0, 67, 84
1, 583091, Note_on_c, 0, 48, 58
1, 583093, Control_c, 0, 64, 122
1, 583093, Control_c, 0, 67, 98
1, 583109, Note_off_c, 0, 66, 62
1, 583112, Note_off_c, 0, 51, 53
1, 583115, Control_c, 0, 64, 127
1, 583115, Control_c, 0, 67, 116
1, 583130, Control_c, 0, 67, 127
1, 583135, Note_off_c, 0, 48, 62
1, 583339, Control_c, 0, 64, 109
1, 583354, Control_c, 0, 64, 80
1, 583367, Note_on_c, 0, 57, 50
1, 583367, Note_on_c, 0, 65, 57
1, 583368, Control_c, 0, 64, 62
1, 583371, Note_on_c, 0, 48, 55
1, 583383, Control_c, 0, 64, 43
1, 583398, Control_c, 0, 64, 0
1, 583427, Control_c, 0, 64, 29
1, 583442, Control_c, 0, 64, 42
1, 583457, Control_c, 0, 64, 55
1, 583472, Control_c, 0, 64, 62
1, 583486, Control_c, 0, 64, 65
1, 583501, Control_c, 0, 64, 68
1, 583516, Control_c, 0, 64, 71
1, 583531, Control_c, 0, 64, 74
1, 583546, Control_c, 0, 64, 76
1, 583561, Control_c, 0, 64, 80
1, 583570, Note_off_c, 0, 65, 35
1, 583571, Note_off_c, 0, 57, 59
1, 583572, Note_off_c, 0, 48, 58
1, 583576, Control_c, 0, 64, 83
1, 583590, Control_c, 0, 64, 86
1, 583605, Control_c, 0, 64, 89
1, 583620, Control_c, 0, 64, 91
1, 583635, Control_c, 0, 64, 93
1, 583637, Note_on_c, 0, 74, 65
1, 583650, Control_c, 0, 64, 94
1, 583665, Control_c, 0, 64, 96
1, 583842, Control_c, 0, 64, 95
1, 583865, Control_c, 0, 64, 83
1, 583874, Note_on_c, 0, 56, 57
1, 583880, Control_c, 0, 64, 69
1, 583881, Note_on_c, 0, 83, 57
1, 583886, Note_on_c, 0, 47, 47
1, 583894, Control_c, 0, 64, 55
1, 583909, Control_c, 0, 64, 41
1, 583924, Control_c, 0, 64, 39
1, 583932, Note_off_c, 0, 74, 54
1, 583938, Control_c, 0, 64, 43
1, 583953, Control_c, 0, 64, 51
1, 583968, Control_c, 0, 64, 58
1, 583983, Control_c, 0, 64, 63
1, 583998, Control_c, 0, 64, 68
1, 584012, Control_c, 0, 64, 75
1, 584027, Control_c, 0, 64, 82
1, 584042, Control_c, 0, 64, 87
1, 584048, Note_off_c, 0, 47, 62
1, 584053, Note_on_c, 0, 80, 62
1, 584057, Control_c, 0, 64, 91
1, 584061, Note_off_c, 0, 83, 51
1, 584072, Control_c, 0, 64, 97
1, 584080, Note_off_c, 0, 56, 64
1, 584088, Control_c, 0, 64, 103
1, 584103, Control_c, 0, 64, 114
1, 584117, Control_c, 0, 64, 127
1, 584160, Note_off_c, 0, 80, 62
1, 584213, Note_on_c, 0, 76, 57
1, 584306, Note_off_c, 0, 76, 58
1, 584366, Note_on_c, 0, 77, 60
1, 584429, Note_off_c, 0, 77, 58
1, 584437, Note_on_c, 0, 65, 38
1, 584467, Note_off_c, 0, 65, 52
1, 584486, Note_on_c, 0, 74, 56
1, 584549, Note_on_c, 0, 86, 58
1, 584578, Note_on_c, 0, 80, 63
1, 584582, Note_off_c, 0, 74, 60
1, 584614, Note_off_c, 0, 80, 66
1, 584704, Note_on_c, 0, 83, 67
1, 584729, Note_off_c, 0, 86, 58
1, 584860, Note_off_c, 0, 83, 59
1, 584869, Note_on_c, 0, 79, 73
1, 585021, Note_on_c, 0, 80, 82
1, 585074, Note_off_c, 0, 79, 56
1, 585209, Note_on_c, 0, 62, 59
1, 585209, Note_on_c, 0, 89, 71
1, 585213, Note_on_c, 0, 71, 61
1, 585221, Control_c, 0, 64, 90
1, 585236, Control_c, 0, 64, 69
1, 585251, Control_c, 0, 64, 54
1, 585266, Control_c, 0, 64, 39
1, 585270, Note_off_c, 0, 80, 55
1, 585281, Control_c, 0, 64, 35
1, 585295, Control_c, 0, 64, 39
1, 585310, Control_c, 0, 64, 49
1, 585325, Control_c, 0, 64, 57
1, 585340, Control_c, 0, 64, 63
1, 585362, Control_c, 0, 64, 68
1, 585377, Control_c, 0, 64, 73
1, 585384, Note_on_c, 0, 86, 68
1, 585391, Control_c, 0, 64, 77
1, 585406, Control_c, 0, 64, 79
1, 585421, Control_c, 0, 64, 82
1, 585436, Control_c, 0, 64, 84
1, 585451, Control_c, 0, 64, 87
1, 585465, Control_c, 0, 64, 89
1, 585478, Note_off_c, 0, 89, 37
1, 585480, Control_c, 0, 64, 91
1, 585495, Control_c, 0, 64, 92
1, 585510, Control_c, 0, 64, 94
1, 585525, Control_c, 0, 64, 95
1, 585554, Note_off_c, 0, 62, 32
1, 585555, Control_c, 0, 64, 97
1, 585558, Note_on_c, 0, 74, 59
1, 585563, Note_on_c, 0, 83, 65
1, 585574, Note_on_c, 0, 65, 47
1, 585579, Note_off_c, 0, 71, 37
1, 585599, Control_c, 0, 64, 99
1, 585613, Note_off_c, 0, 86, 53
1, 585629, Note_off_c, 0, 74, 60
1, 585634, Note_off_c, 0, 65, 57
1, 585658, Control_c, 0, 64, 101
1, 585726, Note_on_c, 0, 80, 64
1, 585755, Note_off_c, 0, 83, 56
1, 585881, Note_off_c, 0, 80, 62
1, 585907, Note_on_c, 0, 77, 56
1, 585910, Note_on_c, 0, 59, 45
1, 585916, Note_on_c, 0, 68, 44
1, 585955, Control_c, 0, 64, 103
1, 586072, Note_off_c, 0, 59, 51
1, 586112, Note_on_c, 0, 74, 62
1, 586112, Note_off_c, 0, 77, 40
1, 586131, Note_off_c, 0, 68, 49
1, 586204, Note_off_c, 0, 74, 60
1, 586389, Note_on_c, 0, 74, 56
1, 586422, Control_c, 0, 64, 98
1, 586437, Control_c, 0, 64, 94
1, 586452, Control_c, 0, 64, 86
1, 586467, Control_c, 0, 64, 77
1, 586482, Control_c, 0, 64, 68
1, 586497, Control_c, 0, 64, 60
1, 586512, Control_c, 0, 64, 52
1, 586527, Control_c, 0, 64, 50
1, 586542, Control_c, 0, 64, 49
1, 586556, Control_c, 0, 64, 48
1, 586571, Control_c, 0, 64, 47
1, 586586, Control_c, 0, 64, 45
1, 586600, Note_on_c, 0, 75, 60
1, 586601, Control_c, 0, 64, 43
1, 586616, Control_c, 0, 64, 43
1, 586630, Control_c, 0, 64, 42
1, 586636, Note_off_c, 0, 74, 55
1, 586691, Control_c, 0, 64, 43
1, 586705, Control_c, 0, 64, 44
1, 586720, Control_c, 0, 64, 47
1, 586735, Control_c, 0, 64, 50
1, 586749, Control_c, 0, 64, 55
1, 586764, Control_c, 0, 64, 58
1, 586779, Control_c, 0, 64, 61
1, 586781, Note_on_c, 0, 84, 56
1, 586783, Note_off_c, 0, 75, 58
1, 586786, Note_on_c, 0, 60, 36
1, 586794, Control_c, 0, 64, 63
1, 586795, Note_on_c, 0, 68, 34
1, 586809, Control_c, 0, 64, 66
1, 586823, Control_c, 0, 64, 71
1, 586838, Control_c, 0, 64, 74
1, 586860, Control_c, 0, 64, 77
1, 586875, Control_c, 0, 64, 80
1, 586890, Control_c, 0, 64, 83
1, 586905, Control_c, 0, 64, 87
1, 586920, Control_c, 0, 64, 90
1, 586935, Control_c, 0, 64, 94
1, 586944, Note_on_c, 0, 80, 61
1, 586950, Control_c, 0, 64, 96
1, 586964, Control_c, 0, 64, 99
1, 586972, Note_off_c, 0, 84, 39
1, 586979, Control_c, 0, 64, 102
1, 586994, Control_c, 0, 64, 104
1, 586996, Note_off_c, 0, 60, 32
1, 587009, Control_c, 0, 64, 106
1, 587024, Control_c, 0, 64, 109
1, 587038, Control_c, 0, 64, 111
1, 587068, Control_c, 0, 64, 114
1, 587098, Control_c, 0, 64, 118
1, 587107, Note_off_c, 0, 80, 59
1, 587113, Note_off_c, 0, 68, 41
1, 587116, Note_on_c, 0, 75, 63
1, 587117, Note_on_c, 0, 63, 48
1, 587121, Note_on_c, 0, 72, 36
1, 587127, Control_c, 0, 64, 125
1, 587142, Control_c, 0, 64, 127
1, 587152, Note_off_c, 0, 72, 52
1, 587162, Note_off_c, 0, 63, 60
1, 587232, Note_off_c, 0, 75, 62
1, 587263, Note_on_c, 0, 72, 57
1, 587426, Note_off_c, 0, 72, 51
1, 587442, Note_on_c, 0, 63, 43
1, 587451, Note_on_c, 0, 70, 56
1, 587479, Note_on_c, 0, 54, 33
1, 587553, Note_off_c, 0, 63, 55
1, 587561, Note_off_c, 0, 54, 54
1, 587596, Note_off_c, 0, 70, 61
1, 587609, Note_on_c, 0, 69, 61
1, 587668, Note_off_c, 0, 69, 56
1, 587772, Control_c, 0, 64, 122
1, 587775, Note_on_c, 0, 69, 69
1, 587786, Control_c, 0, 64, 111
1, 587801, Control_c, 0, 64, 103
1, 587816, Control_c, 0, 64, 95
1, 587831, Control_c, 0, 64, 87
1, 587846, Control_c, 0, 64, 78
1, 587860, Control_c, 0, 64, 70
1, 587875, Control_c, 0, 64, 63
1, 587890, Control_c, 0, 64, 57
1, 587904, Control_c, 0, 64, 53
1, 587919, Control_c, 0, 64, 52
1, 587929, Note_on_c, 0, 70, 67
1, 587934, Control_c, 0, 64, 50
1, 587949, Control_c, 0, 64, 48
1, 587962, Note_off_c, 0, 69, 55
1, 587964, Control_c, 0, 64, 44
1, 587978, Control_c, 0, 64, 39
1, 587993, Control_c, 0, 64, 32
1, 588008, Control_c, 0, 64, 27
1, 588023, Control_c, 0, 64, 0
1, 588105, Note_on_c, 0, 52, 43
1, 588109, Note_on_c, 0, 79, 55
1, 588113, Note_off_c, 0, 70, 60
1, 588123, Note_on_c, 0, 61, 35
1, 588157, Control_c, 0, 64, 36
1, 588172, Control_c, 0, 64, 49
1, 588187, Control_c, 0, 64, 59
1, 588202, Control_c, 0, 64, 64
1, 588217, Control_c, 0, 64, 66
1, 588232, Control_c, 0, 64, 67
1, 588247, Control_c, 0, 64, 70
1, 588261, Control_c, 0, 64, 72
1, 588271, Note_off_c, 0, 79, 59
1, 588276, Note_on_c, 0, 76, 58
1, 588276, Control_c, 0, 64, 74
1, 588291, Control_c, 0, 64, 77
1, 588306, Control_c, 0, 64, 79
1, 588320, Control_c, 0, 64, 82
1, 588335, Control_c, 0, 64, 84
1, 588357, Control_c, 0, 64, 87
1, 588359, Note_off_c, 0, 52, 30
1, 588372, Control_c, 0, 64, 89
1, 588387, Control_c, 0, 64, 91
1, 588402, Control_c, 0, 64, 93
1, 588417, Control_c, 0, 64, 95
1, 588431, Control_c, 0, 64, 98
1, 588446, Control_c, 0, 64, 102
1, 588449, Note_on_c, 0, 73, 56
1, 588455, Note_on_c, 0, 64, 42
1, 588455, Note_off_c, 0, 61, 41
1, 588461, Control_c, 0, 64, 108
1, 588464, Note_on_c, 0, 55, 34
1, 588476, Control_c, 0, 64, 115
1, 588480, Note_off_c, 0, 76, 44
1, 588488, Note_off_c, 0, 64, 62
1, 588491, Control_c, 0, 64, 127
1, 588518, Note_off_c, 0, 55, 60
1, 588613, Note_on_c, 0, 70, 57
1, 588643, Note_off_c, 0, 73, 55
1, 588750, Note_off_c, 0, 70, 61
1, 588768, Note_on_c, 0, 58, 43
1, 588783, Note_on_c, 0, 49, 36
1, 588786, Note_on_c, 0, 67, 55
1, 588873, Note_off_c, 0, 58, 60
1, 588895, Note_off_c, 0, 49, 52
1, 588901, Note_off_c, 0, 67, 60
1, 588938, Note_on_c, 0, 64, 55
1, 588980, Note_off_c, 0, 64, 59
1, 589084, Control_c, 0, 64, 113
1, 589106, Control_c, 0, 64, 94
1, 589120, Note_on_c, 0, 64, 52
1, 589121, Control_c, 0, 64, 79
1, 589136, Control_c, 0, 64, 66
1, 589150, Control_c, 0, 64, 52
1, 589165, Control_c, 0, 64, 36
1, 589180, Control_c, 0, 64, 0
1, 589293, Note_on_c, 0, 65, 49
1, 589318, Note_off_c, 0, 64, 56
1, 589451, Note_off_c, 0, 65, 58
1, 589459, Note_on_c, 0, 50, 43
1, 589466, Note_on_c, 0, 74, 56
1, 589470, Note_on_c, 0, 58, 35
1, 589476, Control_c, 0, 64, 36
1, 589491, Control_c, 0, 64, 50
1, 589506, Control_c, 0, 64, 60
1, 589521, Control_c, 0, 64, 64
1, 589536, Control_c, 0, 64, 67
1, 589550, Control_c, 0, 64, 70
1, 589565, Control_c, 0, 64, 73
1, 589580, Control_c, 0, 64, 76
1, 589585, Note_off_c, 0, 74, 60
1, 589595, Control_c, 0, 64, 79
1, 589601, Note_off_c, 0, 50, 37
1, 589610, Control_c, 0, 64, 83
1, 589615, Note_off_c, 0, 58, 30
1, 589621, Note_on_c, 0, 70, 55
1, 589624, Control_c, 0, 64, 87
1, 589640, Control_c, 0, 64, 90
1, 589655, Control_c, 0, 64, 94
1, 589671, Control_c, 0, 64, 97
1, 589686, Control_c, 0, 64, 102
1, 589701, Control_c, 0, 64, 106
1, 589716, Control_c, 0, 64, 111
1, 589730, Control_c, 0, 64, 118
1, 589745, Control_c, 0, 64, 127
1, 589759, Note_off_c, 0, 70, 37
1, 589823, Note_on_c, 0, 65, 50
1, 589824, Note_on_c, 0, 62, 36
1, 589841, Note_on_c, 0, 53, 27
1, 589862, Note_off_c, 0, 62, 53
1, 589912, Note_off_c, 0, 53, 60
1, 589953, Note_off_c, 0, 65, 57
1, 590004, Note_on_c, 0, 62, 50
1, 590117, Note_off_c, 0, 62, 59
1, 590234, Note_on_c, 0, 60, 51
1, 590243, Note_on_c, 0, 44, 35
1, 590243, Note_on_c, 0, 53, 38
1, 590300, Control_c, 0, 64, 104
1, 590315, Control_c, 0, 64, 83
1, 590330, Control_c, 0, 64, 68
1, 590345, Control_c, 0, 64, 57
1, 590360, Control_c, 0, 64, 47
1, 590374, Control_c, 0, 64, 44
1, 590404, Control_c, 0, 64, 45
1, 590419, Control_c, 0, 64, 47
1, 590434, Control_c, 0, 64, 50
1, 590448, Control_c, 0, 64, 55
1, 590463, Control_c, 0, 64, 60
1, 590464, Note_off_c, 0, 60, 63
1, 590473, Note_on_c, 0, 59, 62
1, 590479, Control_c, 0, 64, 63
1, 590494, Control_c, 0, 64, 68
1, 590509, Control_c, 0, 64, 73
1, 590523, Control_c, 0, 64, 77
1, 590538, Control_c, 0, 64, 80
1, 590553, Control_c, 0, 64, 83
1, 590568, Control_c, 0, 64, 87
1, 590571, Note_off_c, 0, 59, 57
1, 590583, Control_c, 0, 64, 92
1, 590604, Control_c, 0, 64, 98
1, 590619, Control_c, 0, 64, 103
1, 590634, Control_c, 0, 64, 110
1, 590649, Control_c, 0, 64, 125
1, 590661, Note_off_c, 0, 53, 50
1, 590664, Control_c, 0, 64, 127
1, 590697, Note_off_c, 0, 44, 37
1, 590724, Note_on_c, 0, 59, 60
1, 590768, Control_c, 0, 67, 122
1, 590783, Control_c, 0, 67, 106
1, 590798, Control_c, 0, 67, 89
1, 590812, Control_c, 0, 67, 72
1, 590827, Control_c, 0, 67, 53
1, 590842, Control_c, 0, 67, 36
1, 590857, Control_c, 0, 67, 0
1, 590953, Note_on_c, 0, 60, 61
1, 590974, Note_off_c, 0, 59, 54
1, 591233, Note_on_c, 0, 53, 69
1, 591250, Note_on_c, 0, 45, 54
1, 591269, Note_on_c, 0, 69, 41
1, 591287, Control_c, 0, 64, 103
1, 591301, Control_c, 0, 64, 81
1, 591316, Note_off_c, 0, 60, 34
1, 591316, Control_c, 0, 64, 64
1, 591331, Control_c, 0, 64, 51
1, 591353, Control_c, 0, 64, 45
1, 591383, Control_c, 0, 64, 48
1, 591397, Control_c, 0, 64, 53
1, 591412, Control_c, 0, 64, 57
1, 591427, Control_c, 0, 64, 62
1, 591442, Control_c, 0, 64, 65
1, 591450, Note_on_c, 0, 65, 42
1, 591457, Control_c, 0, 64, 69
1, 591472, Control_c, 0, 64, 75
1, 591475, Note_off_c, 0, 69, 50
1, 591487, Control_c, 0, 64, 79
1, 591501, Control_c, 0, 64, 82
1, 591516, Control_c, 0, 64, 87
1, 591531, Control_c, 0, 64, 91
1, 591545, Control_c, 0, 64, 96
1, 591560, Control_c, 0, 64, 101
1, 591575, Control_c, 0, 64, 107
1, 591590, Note_off_c, 0, 65, 57
1, 591590, Control_c, 0, 64, 113
1, 591605, Control_c, 0, 64, 127
1, 591654, Note_on_c, 0, 62, 57
1, 591812, Note_on_c, 0, 63, 56
1, 591840, Note_off_c, 0, 62, 48
1, 591992, Note_on_c, 0, 54, 57
1, 591999, Note_off_c, 0, 53, 52
1, 592000, Note_on_c, 0, 72, 50
1, 592008, Note_off_c, 0, 63, 38
1, 592112, Note_off_c, 0, 45, 48
1, 592146, Note_off_c, 0, 54, 60
1, 592161, Note_off_c, 0, 72, 56
1, 592169, Note_on_c, 0, 69, 63
1, 592321, Note_on_c, 0, 61, 77
1, 592333, Note_off_c, 0, 69, 60
1, 592368, Control_c, 0, 64, 121
1, 592383, Control_c, 0, 64, 101
1, 592398, Control_c, 0, 64, 88
1, 592413, Control_c, 0, 64, 75
1, 592428, Control_c, 0, 64, 63
1, 592442, Control_c, 0, 64, 48
1, 592457, Control_c, 0, 64, 30
1, 592472, Control_c, 0, 64, 0
1, 592474, Note_on_c, 0, 62, 75
1, 592514, Note_off_c, 0, 61, 61
1, 592700, Note_on_c, 0, 55, 85
1, 592707, Note_on_c, 0, 47, 66
1, 592724, Control_c, 0, 64, 35
1, 592724, Note_on_c, 0, 71, 58
1, 592739, Control_c, 0, 64, 51
1, 592754, Control_c, 0, 64, 60
1, 592768, Control_c, 0, 64, 64
1, 592783, Control_c, 0, 64, 67
1, 592793, Note_off_c, 0, 62, 55
1, 592798, Control_c, 0, 64, 72
1, 592813, Control_c, 0, 64, 80
1, 592827, Control_c, 0, 64, 92
1, 592849, Control_c, 0, 64, 122
1, 592864, Control_c, 0, 64, 127
1, 592894, Note_on_c, 0, 67, 56
1, 592919, Note_off_c, 0, 71, 58
1, 593007, Note_off_c, 0, 67, 61
1, 593064, Note_on_c, 0, 64, 77
1, 593214, Note_on_c, 0, 65, 76
1, 593246, Note_off_c, 0, 64, 63
1, 593395, Note_on_c, 0, 56, 77
1, 593395, Note_off_c, 0, 65, 59
1, 593399, Note_off_c, 0, 55, 57
1, 593402, Note_on_c, 0, 74, 73
1, 593474, Note_off_c, 0, 47, 56
1, 593521, Note_off_c, 0, 56, 62
1, 593545, Note_on_c, 0, 71, 75
1, 593613, Note_off_c, 0, 74, 54
1, 593733, Note_on_c, 0, 66, 87
1, 593791, Note_off_c, 0, 71, 58
1, 593865, Control_c, 0, 64, 106
1, 593880, Control_c, 0, 64, 82
1, 593894, Note_off_c, 0, 66, 65
1, 593895, Control_c, 0, 64, 64
1, 593897, Note_on_c, 0, 67, 89
1, 593910, Control_c, 0, 64, 43
1, 593925, Control_c, 0, 64, 0
1, 594103, Note_on_c, 0, 49, 76
1, 594110, Note_on_c, 0, 57, 83
1, 594137, Note_on_c, 0, 79, 63
1, 594161, Control_c, 0, 64, 36
1, 594176, Control_c, 0, 64, 55
1, 594191, Control_c, 0, 64, 66
1, 594206, Control_c, 0, 64, 75
1, 594220, Control_c, 0, 64, 88
1, 594235, Control_c, 0, 64, 107
1, 594245, Note_off_c, 0, 67, 34
1, 594250, Control_c, 0, 64, 127
1, 594298, Note_on_c, 0, 76, 70
1, 594322, Note_off_c, 0, 79, 40
1, 594357, Note_off_c, 0, 49, 60
1, 594559, Note_on_c, 0, 64, 91
1, 594575, Note_on_c, 0, 55, 58
1, 594596, Note_on_c, 0, 73, 54
1, 594603, Note_off_c, 0, 76, 38
1, 594632, Note_off_c, 0, 57, 13
1, 594735, Note_off_c, 0, 73, 63
1, 594737, Note_off_c, 0, 64, 58
1, 594764, Note_off_c, 0, 55, 34
1, 594778, Note_on_c, 0, 69, 60
1, 594934, Note_off_c, 0, 69, 0
1, 594945, Note_on_c, 0, 62, 91
1, 594953, Note_on_c, 0, 69, 38
1, 594955, Control_c, 0, 64, 80
1, 594958, Note_on_c, 0, 58, 79
1, 594959, Note_on_c, 0, 50, 70
1, 594969, Control_c, 0, 64, 60
1, 594984, Control_c, 0, 64, 44
1, 594999, Control_c, 0, 64, 48
1, 595014, Control_c, 0, 64, 58
1, 595029, Control_c, 0, 64, 66
1, 595039, Note_off_c, 0, 62, 58
1, 595043, Note_off_c, 0, 58, 63
1, 595043, Control_c, 0, 64, 78
1, 595058, Control_c, 0, 64, 100
1, 595068, Note_off_c, 0, 50, 63
1, 595073, Control_c, 0, 64, 127
1, 595115, Note_on_c, 0, 68, 68
1, 595124, Note_off_c, 0, 69, 58
1, 595169, Note_off_c, 0, 68, 61
1, 595274, Control_c, 0, 64, 99
1, 595289, Control_c, 0, 64, 65
1, 595293, Note_on_c, 0, 45, 74
1, 595295, Note_on_c, 0, 52, 80
1, 595304, Control_c, 0, 64, 38
1, 595308, Note_on_c, 0, 61, 76
1, 595318, Control_c, 0, 64, 0
1, 595328, Note_on_c, 0, 59, 58
1, 595333, Control_c, 0, 64, 35
1, 595348, Control_c, 0, 64, 56
1, 595363, Note_off_c, 0, 45, 62
1, 595363, Control_c, 0, 64, 69
1, 595372, Note_off_c, 0, 52, 62
1, 595378, Control_c, 0, 64, 83
1, 595392, Control_c, 0, 64, 127
1, 595466, Note_off_c, 0, 59, 34
1, 595475, Note_on_c, 0, 67, 61
1, 595479, Note_off_c, 0, 61, 62
1, 595502, Note_off_c, 0, 67, 66
1, 595529, Note_on_c, 0, 49, 80
1, 595587, Note_on_c, 0, 57, 77
1, 595634, Note_off_c, 0, 49, 62
1, 595663, Note_on_c, 0, 64, 96
1, 595699, Note_on_c, 0, 83, 73
1, 595787, Note_off_c, 0, 64, 59
1, 595823, Note_off_c, 0, 83, 59
1, 595829, Note_on_c, 0, 79, 68
1, 595863, Note_off_c, 0, 57, 51
1, 595864, Note_off_c, 0, 79, 64
1, 595906, Note_on_c, 0, 52, 70
1, 596020, Note_on_c, 0, 61, 90
1, 596020, Note_on_c, 0, 71, 100
1, 596036, Control_c, 0, 64, 93
1, 596039, Note_on_c, 0, 76, 74
1, 596051, Control_c, 0, 64, 66
1, 596068, Control_c, 0, 64, 43
1, 596083, Control_c, 0, 64, 30
1, 596097, Control_c, 0, 64, 40
1, 596112, Control_c, 0, 64, 60
1, 596127, Control_c, 0, 64, 72
1, 596141, Control_c, 0, 64, 94
1, 596156, Control_c, 0, 64, 127
1, 596206, Note_on_c, 0, 73, 69
1, 596212, Note_off_c, 0, 76, 54
1, 596223, Note_off_c, 0, 61, 59
1, 596228, Note_off_c, 0, 71, 57
1, 596246, Note_off_c, 0, 52, 52
1, 596283, Note_on_c, 0, 53, 68
1, 596305, Note_off_c, 0, 73, 61
1, 596349, Note_on_c, 0, 70, 100
1, 596349, Control_c, 0, 64, 87
1, 596351, Note_on_c, 0, 76, 83
1, 596355, Note_on_c, 0, 62, 86
1, 596364, Control_c, 0, 64, 64
1, 596379, Control_c, 0, 64, 53
1, 596394, Control_c, 0, 64, 58
1, 596407, Note_off_c, 0, 62, 65
1, 596409, Control_c, 0, 64, 64
1, 596423, Control_c, 0, 64, 77
1, 596438, Control_c, 0, 64, 127
1, 596445, Note_off_c, 0, 53, 63
1, 596501, Note_on_c, 0, 74, 76
1, 596505, Note_off_c, 0, 76, 60
1, 596521, Note_off_c, 0, 70, 63
1, 596542, Note_off_c, 0, 74, 58
1, 596618, Note_on_c, 0, 45, 64
1, 596686, Note_on_c, 0, 54, 96
1, 596688, Note_on_c, 0, 69, 91
1, 596697, Control_c, 0, 64, 70
1, 596712, Control_c, 0, 64, 27
1, 596727, Control_c, 0, 64, 0
1, 596757, Control_c, 0, 64, 40
1, 596772, Control_c, 0, 64, 59
1, 596787, Control_c, 0, 64, 70
1, 596802, Control_c, 0, 64, 79
1, 596816, Control_c, 0, 64, 87
1, 596831, Control_c, 0, 64, 94
1, 596839, Note_off_c, 0, 69, 53
1, 596846, Control_c, 0, 64, 101
1, 596852, Note_on_c, 0, 75, 81
1, 596861, Control_c, 0, 64, 108
1, 596863, Note_on_c, 0, 63, 76
1, 596874, Note_off_c, 0, 54, 56
1, 596876, Control_c, 0, 64, 118
1, 596891, Control_c, 0, 64, 127
1, 596906, Note_off_c, 0, 63, 54
1, 596930, Note_off_c, 0, 75, 59
1, 597017, Note_on_c, 0, 55, 87
1, 597017, Note_on_c, 0, 63, 95
1, 597019, Note_on_c, 0, 75, 100
1, 597025, Note_on_c, 0, 73, 75
1, 597064, Note_off_c, 0, 63, 59
1, 597080, Note_off_c, 0, 73, 53
1, 597087, Note_off_c, 0, 75, 59
1, 597091, Note_off_c, 0, 55, 58
1, 597185, Note_on_c, 0, 76, 91
1, 597190, Note_on_c, 0, 64, 94
1, 597212, Note_off_c, 0, 64, 68
1, 597228, Note_off_c, 0, 76, 63
1, 597387, Note_on_c, 0, 76, 99
1, 597387, Control_c, 0, 64, 94
1, 597395, Note_on_c, 0, 58, 96
1, 597402, Control_c, 0, 64, 61
1, 597416, Control_c, 0, 64, 0
1, 597461, Control_c, 0, 64, 39
1, 597476, Control_c, 0, 64, 59
1, 597490, Control_c, 0, 64, 71
1, 597505, Control_c, 0, 64, 83
1, 597520, Control_c, 0, 64, 97
1, 597535, Control_c, 0, 64, 111
1, 597550, Control_c, 0, 64, 127
1, 597553, Note_off_c, 0, 76, 60
1, 597554, Note_on_c, 0, 79, 77
1, 597559, Note_off_c, 0, 58, 58
1, 597565, Note_on_c, 0, 67, 77
1, 597592, Note_off_c, 0, 67, 66
1, 597598, Note_off_c, 0, 79, 62
1, 597816, Note_on_c, 0, 74, 101
1, 597818, Control_c, 0, 64, 90
1, 597822, Note_on_c, 0, 56, 94
1, 597833, Control_c, 0, 64, 57
1, 597848, Control_c, 0, 64, 0
1, 597876, Note_on_c, 0, 75, 45
1, 597891, Control_c, 0, 64, 46
1, 597893, Note_on_c, 0, 73, 41
1, 597905, Control_c, 0, 64, 64
1, 597907, Note_off_c, 0, 75, 51
1, 597909, Note_on_c, 0, 78, 45
1, 597920, Note_off_c, 0, 73, 52
1, 597920, Control_c, 0, 64, 77
1, 597935, Control_c, 0, 64, 98
1, 597938, Note_off_c, 0, 78, 51
1, 597950, Control_c, 0, 64, 119
1, 597965, Control_c, 0, 64, 127
1, 598097, Note_off_c, 0, 56, 58
1, 598102, Note_off_c, 0, 45, 59
1, 598122, Note_on_c, 0, 78, 86
1, 598127, Note_on_c, 0, 66, 82
1, 598131, Note_off_c, 0, 74, 63
1, 598166, Note_off_c, 0, 66, 62
1, 598168, Note_off_c, 0, 78, 59
1, 598212, Note_on_c, 0, 45, 76
1, 598396, Note_on_c, 0, 74, 102
1, 598402, Control_c, 0, 64, 85
1, 598411, Note_on_c, 0, 76, 89
1, 598414, Note_on_c, 0, 55, 88
1, 598417, Control_c, 0, 64, 50
1, 598432, Control_c, 0, 64, 0
1, 598492, Control_c, 0, 64, 55
1, 598507, Control_c, 0, 64, 65
1, 598522, Control_c, 0, 64, 70
1, 598536, Control_c, 0, 64, 73
1, 598551, Control_c, 0, 64, 78
1, 598566, Control_c, 0, 64, 87
1, 598581, Control_c, 0, 64, 99
1, 598596, Control_c, 0, 64, 116
1, 598610, Control_c, 0, 64, 127
1, 598650, Note_off_c, 0, 45, 61
1, 598661, Note_off_c, 0, 55, 58
1, 598681, Note_on_c, 0, 64, 86
1, 598772, Note_off_c, 0, 64, 55
1, 598890, Note_on_c, 0, 73, 94
1, 598896, Note_on_c, 0, 59, 83
1, 598925, Note_off_c, 0, 74, 56
1, 598973, Note_off_c, 0, 59, 56
1, 599046, Note_off_c, 0, 76, 61
1, 599071, Note_off_c, 0, 73, 63
1, 599088, Note_on_c, 0, 67, 70
1, 599118, Note_off_c, 0, 67, 62
1, 599237, Note_on_c, 0, 57, 88
1, 599280, Note_off_c, 0, 57, 66
1, 599399, Note_on_c, 0, 66, 90
1, 599448, Note_off_c, 0, 66, 65
1, 599561, Note_on_c, 0, 72, 98
1, 599567, Control_c, 0, 64, 89
1, 599573, Note_on_c, 0, 55, 86
1, 599589, Control_c, 0, 64, 58
1, 599604, Control_c, 0, 64, 0
1, 599634, Control_c, 0, 64, 34
1, 599649, Control_c, 0, 64, 53
1, 599663, Control_c, 0, 64, 66
1, 599678, Control_c, 0, 64, 78
1, 599693, Control_c, 0, 64, 98
1, 599708, Control_c, 0, 64, 127
1, 599726, Note_on_c, 0, 64, 77
1, 599766, Note_off_c, 0, 72, 58
1, 599768, Note_off_c, 0, 64, 65
1, 599810, Note_off_c, 0, 55, 50
1, 599893, Note_on_c, 0, 72, 98
1, 599897, Note_on_c, 0, 47, 77
1, 599899, Note_on_c, 0, 54, 81
1, 599900, Control_c, 0, 64, 76
1, 599915, Control_c, 0, 64, 53
1, 599930, Control_c, 0, 64, 0
1, 599959, Control_c, 0, 64, 39
1, 599974, Control_c, 0, 64, 56
1, 599989, Control_c, 0, 64, 68
1, 600003, Control_c, 0, 64, 78
1, 600018, Control_c, 0, 64, 87
1, 600033, Control_c, 0, 64, 92
1, 600048, Control_c, 0, 64, 100
1, 600064, Control_c, 0, 64, 109
1, 600067, Note_on_c, 0, 63, 72
1, 600079, Control_c, 0, 64, 127
1, 600102, Note_off_c, 0, 72, 57
1, 600184, Note_off_c, 0, 63, 33
1, 600212, Note_on_c, 0, 71, 86
1, 600230, Note_on_c, 0, 57, 75
1, 600231, Note_off_c, 0, 54, 58
1, 600257, Control_c, 0, 64, 80
1, 600272, Control_c, 0, 64, 59
1, 600286, Control_c, 0, 64, 28
1, 600301, Control_c, 0, 64, 0
1, 600316, Control_c, 0, 64, 34
1, 600338, Control_c, 0, 64, 52
1, 600353, Control_c, 0, 64, 65
1, 600368, Control_c, 0, 64, 75
1, 600382, Note_on_c, 0, 63, 66
1, 600382, Control_c, 0, 64, 87
1, 600391, Note_on_c, 0, 66, 69
1, 600397, Control_c, 0, 64, 100
1, 600412, Control_c, 0, 64, 127
1, 600501, Note_off_c, 0, 63, 58
1, 600510, Note_off_c, 0, 66, 57
1, 600549, Note_on_c, 0, 56, 88
1, 600561, Control_c, 0, 64, 89
1, 600569, Note_off_c, 0, 71, 35
1, 600576, Control_c, 0, 64, 66
1, 600576, Note_off_c, 0, 57, 61
1, 600578, Note_off_c, 0, 47, 62
1, 600590, Control_c, 0, 64, 47
1, 600605, Control_c, 0, 64, 40
1, 600620, Control_c, 0, 64, 50
1, 600634, Control_c, 0, 64, 62
1, 600649, Control_c, 0, 64, 72
1, 600664, Control_c, 0, 64, 88
1, 600679, Control_c, 0, 64, 114
1, 600694, Control_c, 0, 64, 127
1, 600699, Note_on_c, 0, 65, 61
1, 600718, Note_on_c, 0, 62, 48
1, 600762, Note_off_c, 0, 62, 54
1, 600772, Note_off_c, 0, 65, 57
1, 600854, Note_on_c, 0, 69, 87
1, 600869, Note_on_c, 0, 55, 76
1, 600870, Note_on_c, 0, 49, 70
1, 600876, Note_off_c, 0, 56, 60
1, 600887, Control_c, 0, 64, 95
1, 600902, Control_c, 0, 64, 68
1, 600917, Control_c, 0, 64, 39
1, 600931, Control_c, 0, 64, 0
1, 600961, Control_c, 0, 64, 39
1, 600976, Control_c, 0, 64, 56
1, 600991, Control_c, 0, 64, 65
1, 601005, Control_c, 0, 64, 74
1, 601020, Control_c, 0, 64, 81
1, 601035, Control_c, 0, 64, 86
1, 601036, Note_on_c, 0, 64, 59
1, 601050, Control_c, 0, 64, 92
1, 601064, Control_c, 0, 64, 97
1, 601067, Note_off_c, 0, 69, 55
1, 601072, Note_off_c, 0, 64, 64
1, 601087, Control_c, 0, 64, 102
1, 601102, Control_c, 0, 64, 106
1, 601117, Control_c, 0, 64, 111
1, 601132, Control_c, 0, 64, 114
1, 601146, Control_c, 0, 64, 117
1, 601191, Control_c, 0, 64, 112
1, 601194, Note_off_c, 0, 55, 55
1, 601198, Note_on_c, 0, 69, 86
1, 601202, Note_off_c, 0, 49, 51
1, 601204, Note_on_c, 0, 54, 65
1, 601206, Note_on_c, 0, 50, 58
1, 601206, Control_c, 0, 64, 93
1, 601220, Control_c, 0, 64, 70
1, 601235, Control_c, 0, 64, 52
1, 601250, Control_c, 0, 64, 32
1, 601279, Control_c, 0, 64, 44
1, 601294, Control_c, 0, 64, 58
1, 601309, Control_c, 0, 64, 66
1, 601324, Control_c, 0, 64, 76
1, 601339, Control_c, 0, 64, 83
1, 601354, Control_c, 0, 64, 89
1, 601369, Control_c, 0, 64, 96
1, 601378, Note_on_c, 0, 64, 43
1, 601383, Control_c, 0, 64, 103
1, 601398, Control_c, 0, 64, 114
1, 601413, Control_c, 0, 64, 127
1, 601419, Note_off_c, 0, 64, 59
1, 601521, Note_on_c, 0, 68, 83
1, 601531, Control_c, 0, 64, 100
1, 601543, Note_on_c, 0, 46, 59
1, 601543, Note_on_c, 0, 53, 64
1, 601546, Control_c, 0, 64, 74
1, 601553, Note_off_c, 0, 69, 58
1, 601559, Note_off_c, 0, 54, 54
1, 601561, Control_c, 0, 64, 57
1, 601576, Control_c, 0, 64, 40
1, 601591, Control_c, 0, 64, 42
1, 601598, Note_off_c, 0, 50, 39
1, 601605, Control_c, 0, 64, 52
1, 601619, Control_c, 0, 64, 63
1, 601634, Control_c, 0, 64, 71
1, 601650, Control_c, 0, 64, 81
1, 601665, Control_c, 0, 64, 91
1, 601666, Note_off_c, 0, 53, 39
1, 601679, Control_c, 0, 64, 99
1, 601694, Control_c, 0, 64, 108
1, 601706, Note_on_c, 0, 62, 48
1, 601709, Control_c, 0, 64, 121
1, 601724, Control_c, 0, 64, 127
1, 601757, Note_off_c, 0, 68, 57
1, 601771, Note_off_c, 0, 62, 51
1, 601848, Note_on_c, 0, 67, 83
1, 601865, Control_c, 0, 64, 98
1, 601879, Note_on_c, 0, 52, 62
1, 601879, Control_c, 0, 64, 73
1, 601894, Control_c, 0, 64, 56
1, 601909, Control_c, 0, 64, 42
1, 601924, Control_c, 0, 64, 44
1, 601939, Control_c, 0, 64, 54
1, 601954, Control_c, 0, 64, 62
1, 601968, Control_c, 0, 64, 69
1, 601983, Control_c, 0, 64, 76
1, 601998, Note_off_c, 0, 52, 56
1, 601998, Control_c, 0, 64, 83
1, 602012, Control_c, 0, 64, 88
1, 602015, Note_on_c, 0, 61, 55
1, 602027, Control_c, 0, 64, 94
1, 602042, Control_c, 0, 64, 98
1, 602057, Control_c, 0, 64, 103
1, 602064, Note_off_c, 0, 61, 52
1, 602066, Note_off_c, 0, 46, 35
1, 602072, Control_c, 0, 64, 108
1, 602087, Control_c, 0, 64, 117
1, 602102, Control_c, 0, 64, 127
1, 602104, Note_off_c, 0, 67, 0
1, 602141, Poly_aftertouch_c, 0, 67, 127
1, 602147, Note_on_c, 0, 66, 83
1, 602161, Control_c, 0, 64, 99
1, 602168, Note_on_c, 0, 50, 65
1, 602176, Control_c, 0, 64, 75
1, 602176, Note_on_c, 0, 45, 62
1, 602191, Control_c, 0, 64, 57
1, 602197, Poly_aftertouch_c, 0, 67, 0
1, 602205, Control_c, 0, 64, 37
1, 602220, Control_c, 0, 64, 35
1, 602235, Control_c, 0, 64, 47
1, 602250, Control_c, 0, 64, 59
1, 602265, Control_c, 0, 64, 66
1, 602279, Control_c, 0, 64, 75
1, 602293, Note_off_c, 0, 50, 60
1, 602294, Control_c, 0, 64, 85
1, 602309, Control_c, 0, 64, 93
1, 602322, Note_on_c, 0, 62, 67
1, 602324, Control_c, 0, 64, 101
1, 602327, Note_off_c, 0, 45, 54
1, 602339, Control_c, 0, 64, 112
1, 602340, Note_off_c, 0, 66, 55
1, 602353, Control_c, 0, 64, 127
1, 602382, Note_off_c, 0, 62, 57
1, 602442, Control_c, 0, 64, 94
1, 602458, Control_c, 0, 64, 70
1, 602473, Control_c, 0, 64, 49
1, 602484, Note_on_c, 0, 64, 75
1, 602488, Control_c, 0, 64, 31
1, 602492, Note_on_c, 0, 45, 55
1, 602492, Note_on_c, 0, 52, 62
1, 602502, Note_on_c, 0, 61, 53
1, 602502, Control_c, 0, 64, 34
1, 602517, Control_c, 0, 64, 48
1, 602528, Note_off_c, 0, 45, 63
1, 602532, Control_c, 0, 64, 61
1, 602533, Note_off_c, 0, 52, 62
1, 602547, Control_c, 0, 64, 70
1, 602562, Control_c, 0, 64, 79
1, 602584, Control_c, 0, 64, 87
1, 602599, Control_c, 0, 64, 92
1, 602614, Control_c, 0, 64, 98
1, 602628, Control_c, 0, 64, 104
1, 602632, Note_off_c, 0, 61, 54
1, 602643, Control_c, 0, 64, 116
1, 602656, Note_on_c, 0, 40, 66
1, 602658, Control_c, 0, 64, 127
1, 602810, Note_on_c, 0, 62, 81
1, 602819, Note_on_c, 0, 41, 64
1, 602826, Note_on_c, 0, 56, 68
1, 602828, Note_off_c, 0, 40, 61
1, 602844, Note_off_c, 0, 64, 64
1, 602931, Note_off_c, 0, 56, 54
1, 602963, Note_on_c, 0, 40, 69
1, 602964, Note_on_c, 0, 64, 84
1, 602999, Note_off_c, 0, 62, 60
1, 603000, Note_off_c, 0, 41, 57
1, 603016, Note_off_c, 0, 40, 60
1, 603151, Note_on_c, 0, 45, 78
1, 603153, Note_on_c, 0, 61, 82
1, 603157, Note_on_c, 0, 57, 68
1, 603179, Note_on_c, 0, 63, 39
1, 603181, Note_off_c, 0, 64, 62
1, 603207, Control_c, 0, 64, 97
1, 603209, Note_off_c, 0, 63, 49
1, 603221, Control_c, 0, 64, 76
1, 603236, Control_c, 0, 64, 59
1, 603252, Control_c, 0, 64, 0
1, 603312, Note_on_c, 0, 49, 81
1, 603362, Note_off_c, 0, 57, 54
1, 603363, Control_c, 0, 64, 37
1, 603378, Control_c, 0, 64, 58
1, 603393, Control_c, 0, 64, 71
1, 603407, Control_c, 0, 64, 91
1, 603422, Control_c, 0, 64, 127
1, 603436, Note_off_c, 0, 45, 55
1, 603476, Note_on_c, 0, 52, 85
1, 603476, Note_off_c, 0, 61, 58
1, 603525, Note_off_c, 0, 49, 62
1, 603614, Note_off_c, 0, 52, 55
1, 603615, Note_on_c, 0, 55, 94
1, 603679, Note_off_c, 0, 55, 63
1, 603832, Note_on_c, 0, 55, 95
1, 603867, Control_c, 0, 64, 82
1, 603881, Control_c, 0, 64, 59
1, 603896, Control_c, 0, 64, 0
1, 604064, Note_on_c, 0, 69, 77
1, 604085, Note_on_c, 0, 60, 61
1, 604269, Note_on_c, 0, 54, 81
1, 604299, Note_off_c, 0, 55, 60
1, 604335, Control_c, 0, 64, 29
1, 604349, Control_c, 0, 64, 56
1, 604364, Control_c, 0, 64, 64
1, 604377, Note_off_c, 0, 54, 63
1, 604379, Control_c, 0, 64, 69
1, 604394, Control_c, 0, 64, 74
1, 604408, Control_c, 0, 64, 82
1, 604423, Control_c, 0, 64, 93
1, 604429, Note_off_c, 0, 60, 36
1, 604434, Note_off_c, 0, 69, 58
1, 604438, Control_c, 0, 64, 112
1, 604440, Note_on_c, 0, 72, 69
1, 604453, Control_c, 0, 64, 127
1, 604472, Note_on_c, 0, 64, 60
1, 604616, Note_on_c, 0, 38, 81
1, 604630, Control_c, 0, 64, 82
1, 604645, Control_c, 0, 64, 61
1, 604648, Note_off_c, 0, 72, 58
1, 604660, Control_c, 0, 64, 40
1, 604674, Control_c, 0, 64, 35
1, 604689, Control_c, 0, 64, 48
1, 604704, Control_c, 0, 64, 60
1, 604719, Control_c, 0, 64, 68
1, 604734, Control_c, 0, 64, 80
1, 604737, Note_off_c, 0, 38, 62
1, 604749, Control_c, 0, 64, 96
1, 604764, Control_c, 0, 64, 125
1, 604779, Control_c, 0, 64, 127
1, 604784, Note_on_c, 0, 71, 71
1, 604795, Note_on_c, 0, 62, 60
1, 604811, Note_off_c, 0, 64, 63
1, 604872, Note_off_c, 0, 71, 61
1, 604878, Note_off_c, 0, 62, 58
1, 604947, Note_on_c, 0, 53, 89
1, 604965, Control_c, 0, 64, 112
1, 604979, Control_c, 0, 64, 77
1, 604994, Control_c, 0, 64, 55
1, 605009, Control_c, 0, 64, 34
1, 605023, Control_c, 0, 64, 30
1, 605038, Control_c, 0, 64, 42
1, 605053, Control_c, 0, 64, 57
1, 605068, Control_c, 0, 64, 66
1, 605083, Control_c, 0, 64, 75
1, 605091, Note_on_c, 0, 69, 71
1, 605098, Control_c, 0, 64, 88
1, 605113, Control_c, 0, 64, 96
1, 605115, Note_on_c, 0, 62, 57
1, 605123, Note_on_c, 0, 59, 56
1, 605127, Control_c, 0, 64, 105
1, 605142, Control_c, 0, 64, 116
1, 605154, Note_off_c, 0, 53, 58
1, 605157, Control_c, 0, 64, 127
1, 605238, Note_off_c, 0, 59, 50
1, 605254, Note_off_c, 0, 62, 59
1, 605265, Note_on_c, 0, 53, 84
1, 605276, Control_c, 0, 64, 114
1, 605291, Control_c, 0, 64, 83
1, 605305, Control_c, 0, 64, 60
1, 605320, Control_c, 0, 64, 31
1, 605335, Control_c, 0, 64, 0
1, 605394, Control_c, 0, 64, 35
1, 605409, Control_c, 0, 64, 50
1, 605411, Note_off_c, 0, 69, 58
1, 605423, Control_c, 0, 64, 61
1, 605425, Note_on_c, 0, 68, 73
1, 605438, Control_c, 0, 64, 67
1, 605440, Note_on_c, 0, 59, 67
1, 605453, Control_c, 0, 64, 73
1, 605468, Control_c, 0, 64, 78
1, 605483, Control_c, 0, 64, 84
1, 605497, Control_c, 0, 64, 92
1, 605512, Control_c, 0, 64, 97
1, 605527, Control_c, 0, 64, 100
1, 605594, Control_c, 0, 64, 92
1, 605599, Note_on_c, 0, 52, 82
1, 605609, Control_c, 0, 64, 71
1, 605624, Control_c, 0, 64, 52
1, 605625, Note_off_c, 0, 53, 62
1, 605638, Control_c, 0, 64, 0
1, 605669, Control_c, 0, 64, 30
1, 605684, Control_c, 0, 64, 51
1, 605699, Control_c, 0, 64, 64
1, 605704, Note_off_c, 0, 52, 62
1, 605714, Control_c, 0, 64, 75
1, 605718, Note_off_c, 0, 59, 33
1, 605728, Control_c, 0, 64, 85
1, 605743, Control_c, 0, 64, 92
1, 605752, Note_on_c, 0, 71, 70
1, 605758, Control_c, 0, 64, 102
1, 605773, Control_c, 0, 64, 117
1, 605779, Note_on_c, 0, 62, 54
1, 605787, Note_off_c, 0, 68, 54
1, 605788, Control_c, 0, 64, 127
1, 605836, Note_off_c, 0, 71, 62
1, 605923, Note_on_c, 0, 40, 75
1, 605935, Control_c, 0, 64, 104
1, 605950, Control_c, 0, 64, 74
1, 605965, Control_c, 0, 64, 56
1, 605980, Control_c, 0, 64, 32
1, 605995, Control_c, 0, 64, 0
1, 606010, Control_c, 0, 64, 37
1, 606025, Control_c, 0, 64, 54
1, 606040, Control_c, 0, 64, 65
1, 606054, Control_c, 0, 64, 73
1, 606069, Control_c, 0, 64, 82
1, 606071, Note_off_c, 0, 40, 60
1, 606084, Control_c, 0, 64, 91
1, 606095, Note_on_c, 0, 70, 65
1, 606099, Control_c, 0, 64, 102
1, 606102, Note_on_c, 0, 61, 65
1, 606113, Control_c, 0, 64, 127
1, 606125, Note_off_c, 0, 62, 22
1, 606258, Note_off_c, 0, 61, 50
1, 606284, Note_off_c, 0, 70, 37
1, 606334, Note_on_c, 0, 50, 80
1, 606347, Note_on_c, 0, 42, 69
1, 606386, Control_c, 0, 64, 106
1, 606401, Control_c, 0, 64, 79
1, 606416, Control_c, 0, 64, 61
1, 606431, Control_c, 0, 64, 40
1, 606447, Control_c, 0, 64, 0
1, 606506, Control_c, 0, 64, 33
1, 606521, Control_c, 0, 64, 44
1, 606536, Control_c, 0, 64, 57
1, 606550, Control_c, 0, 64, 64
1, 606565, Control_c, 0, 64, 69
1, 606574, Note_on_c, 0, 69, 59
1, 606580, Control_c, 0, 64, 73
1, 606582, Note_on_c, 0, 60, 55
1, 606595, Control_c, 0, 64, 78
1, 606596, Note_on_c, 0, 62, 39
1, 606600, Note_off_c, 0, 42, 50
1, 606601, Note_off_c, 0, 50, 54
1, 606609, Control_c, 0, 64, 85
1, 606624, Control_c, 0, 64, 94
1, 606639, Control_c, 0, 64, 101
1, 606654, Control_c, 0, 64, 108
1, 606669, Control_c, 0, 64, 121
1, 606683, Control_c, 0, 64, 127
1, 606708, Note_off_c, 0, 62, 51
1, 606719, Note_off_c, 0, 60, 58
1, 606722, Note_off_c, 0, 69, 58
1, 606808, Note_on_c, 0, 50, 71
1, 606820, Note_on_c, 0, 43, 59
1, 606847, Control_c, 0, 64, 110
1, 606862, Control_c, 0, 64, 84
1, 606876, Control_c, 0, 64, 66
1, 606891, Control_c, 0, 64, 52
1, 606906, Control_c, 0, 64, 39
1, 606921, Control_c, 0, 64, 37
1, 606936, Control_c, 0, 64, 43
1, 606950, Control_c, 0, 64, 52
1, 606965, Control_c, 0, 64, 60
1, 606980, Control_c, 0, 64, 65
1, 606994, Control_c, 0, 64, 71
1, 606999, Note_on_c, 0, 69, 58
1, 607009, Control_c, 0, 64, 77
1, 607012, Note_on_c, 0, 59, 54
1, 607017, Note_on_c, 0, 62, 44
1, 607024, Control_c, 0, 64, 83
1, 607039, Control_c, 0, 64, 89
1, 607054, Control_c, 0, 64, 94
1, 607076, Control_c, 0, 64, 99
1, 607081, Note_off_c, 0, 69, 55
1, 607091, Control_c, 0, 64, 107
1, 607106, Control_c, 0, 64, 121
1, 607121, Control_c, 0, 64, 127
1, 607128, Note_off_c, 0, 62, 56
1, 607128, Note_off_c, 0, 59, 55
1, 607178, Note_on_c, 0, 49, 71
1, 607194, Control_c, 0, 64, 98
1, 607196, Note_off_c, 0, 50, 52
1, 607209, Control_c, 0, 64, 76
1, 607224, Control_c, 0, 64, 60
1, 607239, Control_c, 0, 64, 44
1, 607255, Control_c, 0, 64, 41
1, 607270, Control_c, 0, 64, 46
1, 607285, Control_c, 0, 64, 55
1, 607299, Control_c, 0, 64, 63
1, 607314, Control_c, 0, 64, 69
1, 607321, Note_on_c, 0, 67, 56
1, 607329, Control_c, 0, 64, 80
1, 607338, Note_on_c, 0, 63, 57
1, 607340, Note_on_c, 0, 58, 56
1, 607344, Control_c, 0, 64, 90
1, 607359, Control_c, 0, 64, 102
1, 607373, Control_c, 0, 64, 127
1, 607432, Note_off_c, 0, 63, 51
1, 607435, Note_off_c, 0, 58, 55
1, 607457, Note_off_c, 0, 67, 37
1, 607492, Control_c, 0, 64, 91
1, 607496, Note_on_c, 0, 48, 76
1, 607502, Note_off_c, 0, 49, 59
1, 607506, Control_c, 0, 64, 68
1, 607521, Control_c, 0, 64, 49
1, 607536, Control_c, 0, 64, 32
1, 607551, Control_c, 0, 64, 33
1, 607566, Control_c, 0, 64, 45
1, 607581, Control_c, 0, 64, 58
1, 607596, Control_c, 0, 64, 65
1, 607611, Control_c, 0, 64, 71
1, 607625, Control_c, 0, 64, 78
1, 607640, Control_c, 0, 64, 86
1, 607655, Control_c, 0, 64, 95
1, 607657, Note_on_c, 0, 66, 58
1, 607661, Note_on_c, 0, 57, 50
1, 607662, Note_on_c, 0, 62, 52
1, 607670, Control_c, 0, 64, 107
1, 607685, Control_c, 0, 64, 127
1, 607748, Note_off_c, 0, 66, 56
1, 607750, Note_off_c, 0, 62, 56
1, 607755, Note_off_c, 0, 57, 56
1, 607825, Note_on_c, 0, 47, 73
1, 607825, Control_c, 0, 64, 84
1, 607840, Control_c, 0, 64, 63
1, 607855, Control_c, 0, 64, 36
1, 607861, Note_off_c, 0, 48, 61
1, 607870, Control_c, 0, 64, 0
1, 607885, Control_c, 0, 64, 29
1, 607899, Control_c, 0, 64, 48
1, 607914, Control_c, 0, 64, 62
1, 607929, Control_c, 0, 64, 70
1, 607944, Control_c, 0, 64, 79
1, 607946, Note_off_c, 0, 43, 38
1, 607958, Control_c, 0, 64, 88
1, 607970, Note_on_c, 0, 67, 63
1, 607973, Control_c, 0, 64, 96
1, 607974, Note_on_c, 0, 62, 34
1, 607980, Note_off_c, 0, 47, 61
1, 607984, Note_on_c, 0, 55, 49
1, 607988, Control_c, 0, 64, 107
1, 608003, Control_c, 0, 64, 127
1, 608046, Note_off_c, 0, 62, 61
1, 608076, Note_off_c, 0, 67, 61
1, 608078, Note_off_c, 0, 55, 57
1, 608150, Note_on_c, 0, 45, 76
1, 608152, Control_c, 0, 64, 104
1, 608167, Control_c, 0, 64, 71
1, 608182, Control_c, 0, 64, 52
1, 608196, Control_c, 0, 64, 28
1, 608211, Control_c, 0, 64, 0
1, 608226, Control_c, 0, 64, 30
1, 608240, Control_c, 0, 64, 47
1, 608255, Control_c, 0, 64, 60
1, 608270, Control_c, 0, 64, 66
1, 608285, Control_c, 0, 64, 72
1, 608294, Note_on_c, 0, 66, 61
1, 608300, Control_c, 0, 64, 78
1, 608302, Note_on_c, 0, 62, 50
1, 608304, Note_on_c, 0, 57, 53
1, 608314, Control_c, 0, 64, 84
1, 608329, Control_c, 0, 64, 90
1, 608344, Control_c, 0, 64, 97
1, 608359, Control_c, 0, 64, 105
1, 608364, Note_off_c, 0, 57, 55
1, 608364, Note_off_c, 0, 62, 58
1, 608374, Control_c, 0, 64, 118
1, 608385, Note_off_c, 0, 66, 55
1, 608389, Control_c, 0, 64, 127
1, 608459, Note_on_c, 0, 43, 77
1, 608462, Control_c, 0, 64, 102
1, 608469, Note_off_c, 0, 45, 54
1, 608477, Control_c, 0, 64, 76
1, 608492, Control_c, 0, 64, 58
1, 608507, Control_c, 0, 64, 38
1, 608521, Control_c, 0, 64, 32
1, 608536, Control_c, 0, 64, 39
1, 608551, Control_c, 0, 64, 54
1, 608573, Control_c, 0, 64, 66
1, 608588, Control_c, 0, 64, 75
1, 608603, Control_c, 0, 64, 87
1, 608609, Note_off_c, 0, 43, 61
1, 608618, Control_c, 0, 64, 99
1, 608619, Note_on_c, 0, 45, 74
1, 608619, Note_on_c, 0, 64, 67
1, 608630, Note_on_c, 0, 61, 63
1, 608633, Control_c, 0, 64, 115
1, 608634, Note_on_c, 0, 57, 58
1, 608647, Control_c, 0, 64, 127
1, 608663, Note_off_c, 0, 45, 60
1, 608696, Note_off_c, 0, 61, 59
1, 608697, Note_off_c, 0, 57, 50
1, 608707, Note_off_c, 0, 64, 61
1, 608765, Note_on_c, 0, 42, 85
1, 608780, Control_c, 0, 64, 99
1, 608795, Control_c, 0, 64, 69
1, 608810, Control_c, 0, 64, 40
1, 608825, Control_c, 0, 64, 0
1, 608930, Control_c, 0, 64, 52
1, 608931, Note_on_c, 0, 62, 75
1, 608934, Note_on_c, 0, 45, 76
1, 608940, Note_on_c, 0, 57, 66
1, 608944, Control_c, 0, 64, 66
1, 608959, Control_c, 0, 64, 73
1, 608971, Note_off_c, 0, 42, 61
1, 608974, Control_c, 0, 64, 81
1, 608987, Note_off_c, 0, 57, 59
1, 608988, Control_c, 0, 64, 88
1, 609003, Control_c, 0, 64, 101
1, 609004, Note_off_c, 0, 62, 61
1, 609018, Control_c, 0, 64, 127
1, 609090, Note_on_c, 0, 50, 82
1, 609133, Note_off_c, 0, 45, 60
1, 609196, Control_c, 0, 64, 84
1, 609211, Control_c, 0, 64, 62
1, 609226, Control_c, 0, 64, 32
1, 609241, Control_c, 0, 64, 0
1, 609280, Note_on_c, 0, 54, 84
1, 609286, Control_c, 0, 64, 28
1, 609291, Note_on_c, 0, 74, 73
1, 609301, Note_on_c, 0, 62, 62
1, 609301, Control_c, 0, 64, 45
1, 609302, Note_on_c, 0, 69, 59
1, 609323, Control_c, 0, 64, 60
1, 609338, Control_c, 0, 64, 69
1, 609352, Control_c, 0, 64, 78
1, 609367, Control_c, 0, 64, 88
1, 609382, Control_c, 0, 64, 99
1, 609390, Note_off_c, 0, 50, 54
1, 609396, Control_c, 0, 64, 113
1, 609399, Note_off_c, 0, 74, 64
1, 609411, Control_c, 0, 64, 127
1, 609412, Note_off_c, 0, 62, 51
1, 609417, Note_off_c, 0, 54, 59
1, 609424, Note_off_c, 0, 69, 60
1, 609530, Note_on_c, 0, 54, 78
1, 609560, Control_c, 0, 64, 114
1, 609575, Control_c, 0, 64, 89
1, 609590, Control_c, 0, 64, 68
1, 609604, Control_c, 0, 64, 52
1, 609619, Control_c, 0, 64, 32
1, 609634, Control_c, 0, 64, 0
1, 609694, Control_c, 0, 64, 32
1, 609709, Control_c, 0, 64, 45
1, 609723, Note_on_c, 0, 73, 64
1, 609724, Control_c, 0, 64, 58
1, 609732, Note_on_c, 0, 62, 50
1, 609736, Note_on_c, 0, 69, 48
1, 609739, Control_c, 0, 64, 66
1, 609754, Control_c, 0, 64, 73
1, 609768, Control_c, 0, 64, 80
1, 609783, Control_c, 0, 64, 86
1, 609798, Control_c, 0, 64, 95
1, 609812, Control_c, 0, 64, 105
1, 609824, Note_off_c, 0, 73, 60
1, 609826, Note_off_c, 0, 54, 37
1, 609827, Control_c, 0, 64, 127
1, 609851, Note_off_c, 0, 62, 48
1, 609853, Note_off_c, 0, 69, 54
1, 609888, Note_on_c, 0, 53, 85
1, 609916, Control_c, 0, 64, 112
1, 609931, Control_c, 0, 64, 81
1, 609946, Control_c, 0, 64, 62
1, 609960, Control_c, 0, 64, 45
1, 609975, Control_c, 0, 64, 42
1, 609990, Control_c, 0, 64, 53
1, 610005, Control_c, 0, 64, 63
1, 610019, Control_c, 0, 64, 72
1, 610034, Control_c, 0, 64, 88
1, 610041, Note_on_c, 0, 71, 79
1, 610047, Note_on_c, 0, 67, 69
1, 610049, Control_c, 0, 64, 127
1, 610050, Note_on_c, 0, 62, 74
1, 610116, Note_off_c, 0, 62, 62
1, 610117, Note_off_c, 0, 67, 63
1, 610137, Note_off_c, 0, 71, 59
1, 610203, Note_on_c, 0, 52, 87
1, 610232, Note_off_c, 0, 53, 50
1, 610234, Control_c, 0, 64, 102
1, 610249, Control_c, 0, 64, 72
1, 610264, Control_c, 0, 64, 51
1, 610279, Control_c, 0, 64, 0
1, 610323, Control_c, 0, 64, 32
1, 610338, Control_c, 0, 64, 50
1, 610351, Note_on_c, 0, 70, 73
1, 610353, Control_c, 0, 64, 63
1, 610356, Note_on_c, 0, 66, 77
1, 610362, Note_on_c, 0, 61, 70
1, 610368, Control_c, 0, 64, 71
1, 610383, Control_c, 0, 64, 80
1, 610398, Control_c, 0, 64, 89
1, 610413, Control_c, 0, 64, 98
1, 610427, Control_c, 0, 64, 110
1, 610442, Control_c, 0, 64, 127
1, 610469, Note_off_c, 0, 66, 57
1, 610479, Note_off_c, 0, 70, 54
1, 610487, Note_off_c, 0, 52, 58
1, 610500, Note_off_c, 0, 61, 54
1, 610517, Note_on_c, 0, 50, 89
1, 610562, Control_c, 0, 64, 88
1, 610577, Control_c, 0, 64, 64
1, 610591, Control_c, 0, 64, 36
1, 610606, Control_c, 0, 64, 0
1, 610650, Control_c, 0, 64, 39
1, 610665, Control_c, 0, 64, 55
1, 610672, Note_on_c, 0, 71, 82
1, 610677, Note_on_c, 0, 59, 80
1, 610680, Control_c, 0, 64, 65
1, 610681, Note_on_c, 0, 66, 77
1, 610695, Control_c, 0, 64, 73
1, 610709, Control_c, 0, 64, 83
1, 610721, Note_off_c, 0, 59, 59
1, 610724, Control_c, 0, 64, 89
1, 610729, Note_off_c, 0, 71, 62
1, 610739, Control_c, 0, 64, 95
1, 610743, Note_off_c, 0, 66, 63
1, 610746, Note_off_c, 0, 50, 51
1, 610754, Control_c, 0, 64, 102
1, 610768, Control_c, 0, 64, 114
1, 610783, Control_c, 0, 64, 127
1, 610840, Note_on_c, 0, 49, 94
1, 610865, Control_c, 0, 64, 85
1, 610880, Control_c, 0, 64, 59
1, 610895, Control_c, 0, 64, 0
1, 610968, Control_c, 0, 64, 38
1, 610983, Control_c, 0, 64, 59
1, 610992, Note_on_c, 0, 69, 81
1, 610994, Note_on_c, 0, 66, 80
1, 610996, Note_on_c, 0, 61, 80
1, 610998, Control_c, 0, 64, 65
1, 611013, Control_c, 0, 64, 72
1, 611028, Control_c, 0, 64, 78
1, 611042, Note_off_c, 0, 61, 63
1, 611042, Control_c, 0, 64, 86
1, 611057, Control_c, 0, 64, 96
1, 611060, Note_off_c, 0, 66, 56
1, 611068, Note_off_c, 0, 49, 52
1, 611072, Control_c, 0, 64, 111
1, 611080, Note_off_c, 0, 69, 56
1, 611087, Control_c, 0, 64, 127
1, 611152, Note_on_c, 0, 47, 88
1, 611191, Control_c, 0, 64, 99
1, 611206, Control_c, 0, 64, 65
1, 611220, Control_c, 0, 64, 0
1, 611295, Control_c, 0, 64, 36
1, 611310, Control_c, 0, 64, 59
1, 611315, Note_on_c, 0, 68, 76
1, 611320, Note_on_c, 0, 65, 75
1, 611322, Note_on_c, 0, 61, 76
1, 611325, Control_c, 0, 64, 67
1, 611331, Note_on_c, 0, 49, 83
1, 611340, Control_c, 0, 64, 75
1, 611349, Note_off_c, 0, 47, 62
1, 611355, Control_c, 0, 64, 82
1, 611369, Control_c, 0, 64, 91
1, 611381, Note_off_c, 0, 61, 55
1, 611381, Note_off_c, 0, 65, 52
1, 611384, Control_c, 0, 64, 102
1, 611399, Control_c, 0, 64, 121
1, 611402, Note_off_c, 0, 68, 57
1, 611414, Control_c, 0, 64, 127
1, 611467, Note_off_c, 0, 49, 60
1, 611488, Control_c, 0, 64, 88
1, 611495, Note_on_c, 0, 45, 94
1, 611503, Control_c, 0, 64, 61
1, 611518, Control_c, 0, 64, 0
1, 611659, Control_c, 0, 64, 46
1, 611673, Control_c, 0, 64, 67
1, 611676, Note_on_c, 0, 66, 88
1, 611682, Note_on_c, 0, 61, 83
1, 611682, Note_on_c, 0, 49, 81
1, 611688, Control_c, 0, 64, 74
1, 611703, Control_c, 0, 64, 86
1, 611712, Note_off_c, 0, 45, 58
1, 611712, Note_off_c, 0, 61, 65
1, 611718, Control_c, 0, 64, 97
1, 611727, Note_off_c, 0, 66, 67
1, 611733, Control_c, 0, 64, 127
1, 611869, Note_on_c, 0, 54, 89
1, 611895, Control_c, 0, 64, 84
1, 611901, Note_off_c, 0, 49, 62
1, 611909, Control_c, 0, 64, 60
1, 611924, Control_c, 0, 64, 27
1, 611939, Control_c, 0, 64, 0
1, 611954, Control_c, 0, 64, 29
1, 611969, Control_c, 0, 64, 51
1, 611984, Control_c, 0, 64, 63
1, 611998, Control_c, 0, 64, 71
1, 612013, Control_c, 0, 64, 80
1, 612028, Control_c, 0, 64, 87
1, 612044, Control_c, 0, 64, 97
1, 612059, Control_c, 0, 64, 112
1, 612074, Control_c, 0, 64, 127
1, 612076, Note_on_c, 0, 57, 83
1, 612079, Note_on_c, 0, 78, 81
1, 612085, Note_on_c, 0, 66, 77
1, 612088, Note_on_c, 0, 73, 76
1, 612109, Note_off_c, 0, 54, 61
1, 612192, Note_off_c, 0, 78, 60
1, 612195, Note_off_c, 0, 57, 59
1, 612201, Note_off_c, 0, 66, 59
1, 612232, Note_off_c, 0, 73, 60
1, 612363, Note_on_c, 0, 57, 92
1, 612421, Control_c, 0, 64, 91
1, 612436, Control_c, 0, 64, 70
1, 612451, Control_c, 0, 64, 48
1, 612466, Control_c, 0, 64, 0
1, 612569, Control_c, 0, 64, 36
1, 612584, Control_c, 0, 64, 51
1, 612597, Note_on_c, 0, 76, 72
1, 612599, Control_c, 0, 64, 62
1, 612607, Note_on_c, 0, 72, 57
1, 612611, Note_on_c, 0, 66, 67
1, 612613, Control_c, 0, 64, 69
1, 612628, Control_c, 0, 64, 77
1, 612642, Note_off_c, 0, 72, 62
1, 612643, Control_c, 0, 64, 87
1, 612652, Note_off_c, 0, 66, 60
1, 612658, Control_c, 0, 64, 96
1, 612673, Control_c, 0, 64, 104
1, 612675, Note_off_c, 0, 76, 60
1, 612687, Control_c, 0, 64, 114
1, 612702, Control_c, 0, 64, 127
1, 612806, Control_c, 0, 64, 105
1, 612808, Note_on_c, 0, 56, 80
1, 612821, Control_c, 0, 64, 79
1, 612821, Note_on_c, 0, 76, 65
1, 612827, Note_off_c, 0, 57, 56
1, 612836, Control_c, 0, 64, 62
1, 612852, Control_c, 0, 64, 43
1, 612867, Control_c, 0, 64, 37
1, 612882, Control_c, 0, 64, 42
1, 612897, Control_c, 0, 64, 54
1, 612911, Control_c, 0, 64, 62
1, 612926, Control_c, 0, 64, 68
1, 612941, Control_c, 0, 64, 76
1, 612955, Control_c, 0, 64, 88
1, 612963, Note_off_c, 0, 76, 58
1, 612970, Control_c, 0, 64, 99
1, 612979, Note_on_c, 0, 74, 68
1, 612985, Control_c, 0, 64, 114
1, 612994, Note_on_c, 0, 65, 65
1, 612998, Note_on_c, 0, 70, 61
1, 613000, Control_c, 0, 64, 127
1, 613045, Note_off_c, 0, 74, 63
1, 613048, Note_off_c, 0, 65, 60
1, 613062, Note_off_c, 0, 70, 61
1, 613152, Note_on_c, 0, 55, 79
1, 613167, Note_off_c, 0, 56, 52
1, 613170, Control_c, 0, 64, 85
1, 613185, Control_c, 0, 64, 66
1, 613200, Control_c, 0, 64, 51
1, 613215, Control_c, 0, 64, 41
1, 613230, Control_c, 0, 64, 42
1, 613244, Control_c, 0, 64, 51
1, 613259, Control_c, 0, 64, 62
1, 613274, Control_c, 0, 64, 69
1, 613289, Control_c, 0, 64, 79
1, 613304, Control_c, 0, 64, 94
1, 613310, Note_on_c, 0, 64, 62
1, 613310, Note_on_c, 0, 73, 71
1, 613318, Note_on_c, 0, 69, 59
1, 613319, Control_c, 0, 64, 114
1, 613334, Control_c, 0, 64, 127
1, 613368, Note_off_c, 0, 69, 56
1, 613371, Note_off_c, 0, 64, 60
1, 613371, Note_off_c, 0, 73, 62
1, 613452, Control_c, 0, 64, 111
1, 613464, Note_on_c, 0, 54, 75
1, 613467, Control_c, 0, 64, 73
1, 613468, Note_on_c, 0, 73, 81
1, 613482, Control_c, 0, 64, 55
1, 613497, Control_c, 0, 64, 40
1, 613505, Note_off_c, 0, 55, 60
1, 613511, Control_c, 0, 64, 44
1, 613526, Control_c, 0, 64, 57
1, 613541, Control_c, 0, 64, 68
1, 613556, Control_c, 0, 64, 82
1, 613560, Note_off_c, 0, 73, 61
1, 613570, Control_c, 0, 64, 127
1, 613582, Note_off_c, 0, 54, 61
1, 613620, Note_on_c, 0, 74, 87
1, 613632, Note_on_c, 0, 69, 66
1, 613632, Note_on_c, 0, 62, 69
1, 613650, Note_off_c, 0, 62, 64
1, 613657, Note_off_c, 0, 69, 68
1, 613662, Note_off_c, 0, 74, 63
1, 613764, Control_c, 0, 64, 100
1, 613778, Note_on_c, 0, 59, 92
1, 613778, Control_c, 0, 64, 73
1, 613782, Note_on_c, 0, 47, 82
1, 613793, Control_c, 0, 64, 59
1, 613816, Control_c, 0, 64, 53
1, 613831, Control_c, 0, 64, 58
1, 613846, Control_c, 0, 64, 66
1, 613860, Control_c, 0, 64, 80
1, 613875, Control_c, 0, 64, 127
1, 613909, Note_off_c, 0, 59, 63
1, 613925, Note_off_c, 0, 47, 61
1, 613930, Note_on_c, 0, 78, 83
1, 613938, Note_on_c, 0, 68, 74
1, 613938, Note_on_c, 0, 74, 76
1, 613966, Note_off_c, 0, 68, 61
1, 613979, Note_off_c, 0, 74, 55
1, 613999, Note_off_c, 0, 78, 58
1, 614053, Control_c, 0, 64, 93
1, 614067, Control_c, 0, 64, 68
1, 614081, Note_on_c, 0, 78, 85
1, 614082, Control_c, 0, 64, 56
1, 614089, Note_on_c, 0, 58, 94
1, 614097, Control_c, 0, 64, 59
1, 614100, Note_on_c, 0, 46, 78
1, 614112, Control_c, 0, 64, 66
1, 614127, Control_c, 0, 64, 77
1, 614142, Control_c, 0, 64, 102
1, 614157, Control_c, 0, 64, 127
1, 614180, Note_off_c, 0, 78, 58
1, 614225, Note_off_c, 0, 58, 57
1, 614236, Note_on_c, 0, 76, 85
1, 614243, Note_on_c, 0, 67, 82
1, 614251, Note_on_c, 0, 72, 72
1, 614270, Note_off_c, 0, 46, 59
1, 614274, Note_off_c, 0, 72, 69
1, 614279, Note_off_c, 0, 67, 61
1, 614287, Note_off_c, 0, 76, 65
1, 614364, Control_c, 0, 64, 85
1, 614379, Control_c, 0, 64, 53
1, 614393, Control_c, 0, 64, 0
1, 614400, Note_on_c, 0, 57, 96
1, 614407, Note_on_c, 0, 45, 86
1, 614423, Control_c, 0, 64, 31
1, 614439, Control_c, 0, 64, 52
1, 614454, Control_c, 0, 64, 66
1, 614469, Control_c, 0, 64, 77
1, 614483, Control_c, 0, 64, 98
1, 614498, Control_c, 0, 64, 127
1, 614514, Note_off_c, 0, 57, 62
1, 614529, Note_off_c, 0, 45, 61
1, 614541, Note_on_c, 0, 75, 84
1, 614548, Note_on_c, 0, 66, 84
1, 614563, Note_on_c, 0, 71, 70
1, 614604, Note_off_c, 0, 71, 51
1, 614631, Note_off_c, 0, 66, 60
1, 614638, Note_off_c, 0, 75, 63
1, 614708, Note_on_c, 0, 56, 109
1, 614714, Note_on_c, 0, 44, 89
1, 614715, Note_on_c, 0, 75, 88
1, 614743, Note_off_c, 0, 56, 68
1, 614761, Note_off_c, 0, 44, 61
1, 614797, Note_off_c, 0, 75, 60
1, 614853, Note_on_c, 0, 76, 92
1, 614858, Note_on_c, 0, 71, 90
1, 614864, Note_on_c, 0, 64, 88
1, 614882, Note_off_c, 0, 64, 73
1, 614888, Note_off_c, 0, 71, 62
1, 614898, Note_off_c, 0, 76, 67
1, 615024, Control_c, 0, 64, 80
1, 615028, Note_on_c, 0, 50, 106
1, 615033, Note_on_c, 0, 38, 100
1, 615039, Control_c, 0, 64, 42
1, 615054, Control_c, 0, 64, 0
1, 615083, Control_c, 0, 64, 40
1, 615098, Control_c, 0, 64, 63
1, 615105, Note_on_c, 0, 41, 3
1, 615107, Note_off_c, 0, 41, 0
1, 615113, Control_c, 0, 64, 78
1, 615128, Control_c, 0, 64, 109
1, 615142, Control_c, 0, 64, 127
1, 615153, Poly_aftertouch_c, 0, 41, 0
1, 615158, Note_off_c, 0, 50, 61
1, 615182, Note_on_c, 0, 81, 92
1, 615187, Note_off_c, 0, 38, 61
1, 615190, Note_on_c, 0, 71, 91
1, 615193, Note_on_c, 0, 77, 84
1, 615235, Note_off_c, 0, 71, 63
1, 615264, Note_off_c, 0, 77, 58
1, 615279, Note_off_c, 0, 81, 58
1, 615352, Note_on_c, 0, 81, 92
1, 615359, Note_on_c, 0, 49, 101
1, 615370, Note_on_c, 0, 37, 85
1, 615462, Note_off_c, 0, 37, 61
1, 615470, Note_off_c, 0, 81, 59
1, 615471, Note_off_c, 0, 49, 57
1, 615516, Note_on_c, 0, 79, 82
1, 615522, Note_on_c, 0, 70, 97
1, 615523, Note_on_c, 0, 75, 87
1, 615557, Note_off_c, 0, 70, 65
1, 615561, Note_off_c, 0, 75, 60
1, 615567, Note_off_c, 0, 79, 67
1, 615699, Control_c, 0, 64, 80
1, 615702, Note_on_c, 0, 48, 103
1, 615707, Note_on_c, 0, 36, 95
1, 615713, Control_c, 0, 64, 0
1, 615772, Control_c, 0, 64, 40
1, 615787, Control_c, 0, 64, 64
1, 615802, Control_c, 0, 64, 74
1, 615817, Control_c, 0, 64, 95
1, 615832, Control_c, 0, 64, 127
1, 615838, Note_off_c, 0, 48, 58
1, 615886, Note_on_c, 0, 78, 90
1, 615888, Note_off_c, 0, 36, 58
1, 615889, Note_on_c, 0, 69, 89
1, 615891, Note_on_c, 0, 74, 88
1, 615940, Note_off_c, 0, 74, 59
1, 615965, Note_off_c, 0, 69, 52
1, 615984, Note_off_c, 0, 78, 55
1, 616093, Control_c, 0, 64, 109
1, 616108, Control_c, 0, 64, 66
1, 616122, Note_on_c, 0, 69, 82
1, 616122, Note_on_c, 0, 78, 94
1, 616123, Note_on_c, 0, 47, 99
1, 616123, Note_on_c, 0, 74, 87
1, 616123, Control_c, 0, 64, 0
1, 616128, Note_on_c, 0, 35, 94
1, 616137, Control_c, 0, 64, 31
1, 616152, Control_c, 0, 64, 57
1, 616155, Note_off_c, 0, 74, 66
1, 616162, Note_off_c, 0, 69, 63
1, 616167, Control_c, 0, 64, 74
1, 616182, Control_c, 0, 64, 110
1, 616185, Note_off_c, 0, 47, 64
1, 616196, Control_c, 0, 64, 127
1, 616197, Note_off_c, 0, 78, 62
1, 616200, Note_off_c, 0, 35, 64
1, 616229, Poly_aftertouch_c, 0, 38, 127
1, 616258, Poly_aftertouch_c, 0, 38, 0
1, 616372, Note_on_c, 0, 86, 99
1, 616374, Note_on_c, 0, 74, 103
1, 616378, Note_on_c, 0, 79, 90
1, 616449, Note_off_c, 0, 79, 57
1, 616465, Note_off_c, 0, 74, 58
1, 616490, Note_off_c, 0, 86, 59
1, 616759, Note_on_c, 0, 86, 104
1, 616762, Note_on_c, 0, 76, 96
1, 616764, Note_on_c, 0, 74, 96
1, 616766, Note_on_c, 0, 79, 86
1, 616781, Note_on_c, 0, 33, 90
1, 616786, Note_on_c, 0, 45, 91
1, 616841, Control_c, 0, 64, 66
1, 616844, Note_on_c, 0, 36, 18
1, 616856, Control_c, 0, 64, 0
1, 616887, Note_off_c, 0, 36, 38
1, 616945, Control_c, 0, 64, 54
1, 616959, Control_c, 0, 64, 89
1, 616974, Control_c, 0, 64, 127
1, 616976, Note_off_c, 0, 33, 62
1, 616978, Note_off_c, 0, 45, 62
1, 617056, Note_off_c, 0, 86, 60
1, 617066, Note_off_c, 0, 76, 52
1, 617074, Poly_aftertouch_c, 0, 36, 0
1, 617096, Note_off_c, 0, 74, 45
1, 617110, Note_on_c, 0, 49, 97
1, 617123, Note_on_c, 0, 37, 78
1, 617150, Note_off_c, 0, 49, 65
1, 617157, Note_off_c, 0, 37, 63
1, 617329, Note_on_c, 0, 85, 98
1, 617331, Note_on_c, 0, 73, 95
1, 617339, Note_on_c, 0, 52, 91
1, 617342, Note_on_c, 0, 40, 77
1, 617397, Note_off_c, 0, 40, 61
1, 617410, Note_off_c, 0, 52, 62
1, 617477, Note_off_c, 0, 73, 60
1, 617492, Note_off_c, 0, 79, 52
1, 617492, Note_off_c, 0, 85, 57
1, 617514, Note_on_c, 0, 55, 99
1, 617522, Note_on_c, 0, 43, 83
1, 617562, Note_off_c, 0, 55, 66
1, 617568, Note_off_c, 0, 43, 61
1, 617694, Note_on_c, 0, 56, 103
1, 617702, Note_on_c, 0, 44, 83
1, 617739, Note_off_c, 0, 44, 62
1, 617752, Note_off_c, 0, 56, 59
1, 617850, Note_on_c, 0, 57, 97
1, 617856, Note_on_c, 0, 45, 88
1, 617929, Note_off_c, 0, 57, 66
1, 617938, Note_off_c, 0, 45, 63
1, 617990, Control_c, 0, 64, 93
1, 618005, Control_c, 0, 64, 62
1, 618020, Control_c, 0, 64, 0
1, 618023, Note_on_c, 0, 84, 95
1, 618027, Note_on_c, 0, 72, 102
1, 618029, Note_on_c, 0, 75, 90
1, 618029, Note_on_c, 0, 81, 91
1, 618039, Note_on_c, 0, 58, 106
1, 618044, Note_on_c, 0, 46, 85
1, 618049, Control_c, 0, 64, 38
1, 618064, Control_c, 0, 64, 66
1, 618079, Control_c, 0, 64, 92
1, 618094, Control_c, 0, 64, 127
1, 618132, Note_off_c, 0, 46, 59
1, 618132, Note_off_c, 0, 58, 58
1, 618197, Note_off_c, 0, 72, 61
1, 618199, Note_off_c, 0, 75, 64
1, 618201, Note_off_c, 0, 81, 61
1, 618212, Note_off_c, 0, 84, 61
1, 618223, Note_on_c, 0, 59, 96
1, 618226, Note_on_c, 0, 47, 87
1, 618240, Note_off_c, 0, 59, 72
1, 618265, Note_off_c, 0, 47, 67
1, 618353, Poly_aftertouch_c, 0, 59, 127
1, 618390, Poly_aftertouch_c, 0, 59, 0
1, 618472, Control_c, 0, 64, 84
1, 618481, Note_on_c, 0, 84, 95
1, 618482, Note_on_c, 0, 72, 99
1, 618485, Note_on_c, 0, 74, 95
1, 618485, Note_on_c, 0, 80, 93
1, 618487, Control_c, 0, 64, 41
1, 618489, Note_on_c, 0, 40, 92
1, 618491, Note_on_c, 0, 28, 96
1, 618502, Control_c, 0, 64, 0
1, 618503, Note_on_c, 0, 85, 68
1, 618503, Note_off_c, 0, 85, 127
1, 618561, Control_c, 0, 64, 52
1, 618575, Control_c, 0, 64, 78
1, 618584, Note_off_c, 0, 28, 63
1, 618590, Control_c, 0, 64, 113
1, 618598, Note_off_c, 0, 40, 62
1, 618605, Control_c, 0, 64, 127
1, 618622, Poly_aftertouch_c, 0, 31, 0
1, 618670, Note_off_c, 0, 84, 58
1, 618711, Note_off_c, 0, 72, 60
1, 618737, Note_on_c, 0, 44, 93
1, 618747, Note_on_c, 0, 32, 80
1, 618778, Note_off_c, 0, 32, 62
1, 618784, Note_off_c, 0, 44, 59
1, 618912, Note_on_c, 0, 83, 88
1, 618917, Note_on_c, 0, 71, 93
1, 618928, Note_on_c, 0, 47, 85
1, 618932, Note_on_c, 0, 35, 81
1, 618973, Note_off_c, 0, 47, 63
1, 618973, Note_off_c, 0, 71, 60
1, 618980, Note_off_c, 0, 83, 63
1, 618983, Note_off_c, 0, 35, 58
1, 619007, Note_off_c, 0, 74, 60
1, 619024, Note_off_c, 0, 80, 61
1, 619096, Note_on_c, 0, 50, 92
1, 619099, Note_on_c, 0, 38, 88
1, 619133, Note_off_c, 0, 50, 66
1, 619134, Note_off_c, 0, 38, 62
1, 619245, Note_on_c, 0, 51, 97
1, 619254, Note_on_c, 0, 39, 86
1, 619287, Note_off_c, 0, 39, 67
1, 619287, Note_off_c, 0, 51, 64
1, 619381, Note_on_c, 0, 52, 97
1, 619388, Note_on_c, 0, 40, 82
1, 619436, Note_off_c, 0, 52, 62
1, 619451, Note_off_c, 0, 40, 62
1, 619516, Control_c, 0, 64, 91
1, 619531, Control_c, 0, 64, 60
1, 619540, Note_on_c, 0, 81, 97
1, 619543, Note_on_c, 0, 69, 94
1, 619545, Note_on_c, 0, 74, 88
1, 619546, Control_c, 0, 64, 0
1, 619546, Note_on_c, 0, 53, 89
1, 619551, Note_on_c, 0, 41, 83
1, 619591, Control_c, 0, 64, 45
1, 619602, Note_off_c, 0, 53, 63
1, 619605, Control_c, 0, 64, 65
1, 619615, Note_off_c, 0, 41, 64
1, 619620, Control_c, 0, 64, 79
1, 619635, Control_c, 0, 64, 115
1, 619650, Control_c, 0, 64, 127
1, 619698, Note_on_c, 0, 54, 102
1, 619702, Note_off_c, 0, 81, 59
1, 619707, Note_on_c, 0, 42, 84
1, 619710, Note_off_c, 0, 69, 59
1, 619718, Note_off_c, 0, 74, 61
1, 619734, Note_off_c, 0, 54, 65
1, 619743, Note_off_c, 0, 42, 65
1, 619925, Note_on_c, 0, 81, 100
1, 619926, Note_on_c, 0, 69, 103
1, 619927, Note_on_c, 0, 74, 97
1, 619938, Control_c, 0, 64, 78
1, 619953, Control_c, 0, 64, 0
1, 620134, Note_on_c, 0, 35, 81
1, 620134, Note_on_c, 0, 47, 89
1, 620146, Control_c, 0, 64, 63
1, 620161, Control_c, 0, 64, 108
1, 620174, Note_off_c, 0, 35, 60
1, 620176, Control_c, 0, 64, 127
1, 620187, Note_off_c, 0, 81, 56
1, 620191, Note_off_c, 0, 69, 58
1, 620201, Note_off_c, 0, 47, 65
1, 620311, Note_on_c, 0, 80, 92
1, 620316, Note_on_c, 0, 68, 94
1, 620330, Note_on_c, 0, 53, 80
1, 620334, Note_off_c, 0, 74, 64
1, 620338, Note_on_c, 0, 41, 72
1, 620355, Note_off_c, 0, 80, 70
1, 620360, Note_off_c, 0, 68, 65
1, 620368, Note_off_c, 0, 53, 59
1, 620374, Note_off_c, 0, 41, 65
1, 620470, Note_on_c, 0, 52, 92
1, 620482, Note_on_c, 0, 40, 83
1, 620493, Note_off_c, 0, 52, 68
1, 620515, Note_off_c, 0, 40, 65
1, 620628, Control_c, 0, 64, 68
1, 620631, Note_on_c, 0, 79, 96
1, 620634, Note_on_c, 0, 67, 93
1, 620638, Note_on_c, 0, 73, 89
1, 620643, Control_c, 0, 64, 0
1, 620732, Control_c, 0, 64, 61
1, 620747, Control_c, 0, 64, 110
1, 620761, Control_c, 0, 64, 127
1, 620766, Note_off_c, 0, 79, 62
1, 620786, Note_on_c, 0, 46, 94
1, 620789, Note_on_c, 0, 34, 86
1, 620792, Note_off_c, 0, 67, 62
1, 620819, Note_off_c, 0, 34, 68
1, 620827, Note_off_c, 0, 46, 65
1, 620890, Note_off_c, 0, 73, 61
1, 620930, Note_on_c, 0, 78, 87
1, 620933, Note_on_c, 0, 66, 94
1, 620937, Note_on_c, 0, 74, 76
1, 620959, Note_off_c, 0, 74, 70
1, 620960, Note_on_c, 0, 58, 98
1, 620967, Note_off_c, 0, 78, 66
1, 620968, Note_off_c, 0, 66, 67
1, 620971, Note_on_c, 0, 46, 73
1, 620996, Note_off_c, 0, 46, 67
1, 621010, Note_off_c, 0, 58, 59
1, 621085, Note_on_c, 0, 57, 93
1, 621092, Note_on_c, 0, 45, 87
1, 621112, Note_off_c, 0, 57, 66
1, 621142, Note_off_c, 0, 45, 64
1, 621264, Note_on_c, 0, 76, 97
1, 621266, Control_c, 0, 64, 78
1, 621268, Note_on_c, 0, 64, 94
1, 621274, Note_on_c, 0, 73, 87
1, 621275, Note_on_c, 0, 67, 87
1, 621281, Control_c, 0, 64, 37
1, 621302, Control_c, 0, 64, 0
1, 621421, Control_c, 0, 64, 31
1, 621436, Control_c, 0, 64, 89
1, 621450, Note_on_c, 0, 45, 94
1, 621451, Control_c, 0, 64, 127
1, 621452, Note_on_c, 0, 33, 81
1, 621466, Note_off_c, 0, 67, 61
1, 621478, Note_off_c, 0, 76, 56
1, 621484, Note_off_c, 0, 33, 66
1, 621493, Note_off_c, 0, 64, 62
1, 621502, Note_off_c, 0, 45, 65
1, 621598, Note_off_c, 0, 73, 60
1, 621636, Note_on_c, 0, 74, 93
1, 621646, Note_on_c, 0, 62, 86
1, 621648, Note_on_c, 0, 68, 79
1, 621662, Note_on_c, 0, 53, 75
1, 621666, Note_on_c, 0, 41, 70
1, 621698, Note_off_c, 0, 53, 55
1, 621701, Note_off_c, 0, 62, 56
1, 621713, Note_off_c, 0, 41, 59
1, 621723, Note_off_c, 0, 74, 61
1, 621808, Note_on_c, 0, 76, 97
1, 621810, Note_on_c, 0, 64, 90
1, 621822, Note_off_c, 0, 68, 64
1, 621829, Note_on_c, 0, 52, 78
1, 621836, Note_on_c, 0, 40, 67
1, 621836, Note_off_c, 0, 64, 63
1, 621839, Note_off_c, 0, 76, 61
1, 621877, Note_off_c, 0, 40, 60
1, 621895, Note_off_c, 0, 52, 59
1, 621996, Note_on_c, 0, 73, 93
1, 621999, Note_on_c, 0, 64, 67
1, 622005, Note_on_c, 0, 61, 75
1, 622005, Note_on_c, 0, 69, 73
1, 622029, Control_c, 0, 64, 99
1, 622052, Control_c, 0, 64, 69
1, 622067, Control_c, 0, 64, 39
1, 622081, Control_c, 0, 64, 0
1, 622172, Note_on_c, 0, 45, 79
1, 622205, Note_off_c, 0, 69, 61
1, 622214, Control_c, 0, 64, 34
1, 622225, Note_off_c, 0, 64, 64
1, 622229, Control_c, 0, 64, 66
1, 622244, Control_c, 0, 64, 81
1, 622259, Control_c, 0, 64, 96
1, 622260, Note_off_c, 0, 61, 57
1, 622274, Control_c, 0, 64, 104
1, 622289, Control_c, 0, 64, 127
1, 622399, Note_off_c, 0, 73, 59
1, 622402, Note_off_c, 0, 45, 59
1, 622408, Note_on_c, 0, 71, 91
1, 622422, Note_on_c, 0, 61, 83
1, 622428, Note_on_c, 0, 57, 71
1, 622575, Note_off_c, 0, 71, 56
1, 622607, Note_off_c, 0, 57, 54
1, 622622, Note_off_c, 0, 61, 0
1, 622627, Note_on_c, 0, 73, 88
1, 622635, Note_on_c, 0, 55, 73
1, 622660, Poly_aftertouch_c, 0, 61, 127
1, 622683, Poly_aftertouch_c, 0, 61, 0
1, 622689, Note_off_c, 0, 55, 60
1, 622715, Poly_aftertouch_c, 0, 61, 0
1, 622733, Note_off_c, 0, 73, 60
1, 622778, Control_c, 0, 64, 87
1, 622801, Control_c, 0, 64, 61
1, 622807, Note_on_c, 0, 69, 89
1, 622816, Control_c, 0, 64, 0
1, 622816, Note_on_c, 0, 55, 72
1, 622820, Note_on_c, 0, 62, 76
1, 622845, Control_c, 0, 64, 28
1, 622860, Control_c, 0, 64, 54
1, 622874, Control_c, 0, 64, 66
1, 622889, Control_c, 0, 64, 76
1, 622904, Control_c, 0, 64, 94
1, 622919, Control_c, 0, 64, 127
1, 622922, Note_off_c, 0, 69, 59
1, 622945, Note_off_c, 0, 62, 58
1, 622946, Note_off_c, 0, 55, 54
1, 622965, Note_on_c, 0, 54, 67
1, 623055, Note_off_c, 0, 54, 52
1, 623120, Note_on_c, 0, 67, 87
1, 623126, Control_c, 0, 64, 90
1, 623131, Note_on_c, 0, 57, 79
1, 623141, Control_c, 0, 64, 64
1, 623144, Note_on_c, 0, 54, 63
1, 623156, Control_c, 0, 64, 34
1, 623171, Control_c, 0, 64, 0
1, 623186, Control_c, 0, 64, 35
1, 623201, Control_c, 0, 64, 56
1, 623207, Note_off_c, 0, 54, 41
1, 623216, Control_c, 0, 64, 68
1, 623228, Note_off_c, 0, 57, 52
1, 623231, Control_c, 0, 64, 78
1, 623245, Control_c, 0, 64, 92
1, 623260, Control_c, 0, 64, 108
1, 623273, Note_on_c, 0, 69, 86
1, 623275, Control_c, 0, 64, 127
1, 623283, Note_on_c, 0, 52, 56
1, 623296, Note_off_c, 0, 67, 59
1, 623330, Note_off_c, 0, 52, 61
1, 623424, Control_c, 0, 64, 81
1, 623439, Control_c, 0, 64, 58
1, 623439, Note_on_c, 0, 66, 87
1, 623440, Note_on_c, 0, 52, 70
1, 623445, Note_on_c, 0, 57, 77
1, 623453, Control_c, 0, 64, 0
1, 623466, Note_off_c, 0, 69, 57
1, 623497, Control_c, 0, 64, 40
1, 623512, Control_c, 0, 64, 59
1, 623517, Note_off_c, 0, 57, 57
1, 623527, Control_c, 0, 64, 69
1, 623549, Control_c, 0, 64, 80
1, 623564, Control_c, 0, 64, 95
1, 623579, Control_c, 0, 64, 127
1, 623597, Note_on_c, 0, 50, 69
1, 623599, Note_off_c, 0, 66, 62
1, 623605, Note_off_c, 0, 52, 32
1, 623641, Note_off_c, 0, 50, 61
1, 623841, Note_on_c, 0, 71, 88
1, 623852, Note_on_c, 0, 61, 74
1, 623859, Note_on_c, 0, 57, 62
1, 623904, Control_c, 0, 64, 98
1, 623919, Control_c, 0, 64, 72
1, 623934, Control_c, 0, 64, 55
1, 623949, Control_c, 0, 64, 32
1, 623964, Control_c, 0, 64, 0
1, 624008, Control_c, 0, 64, 40
1, 624024, Control_c, 0, 64, 53
1, 624039, Control_c, 0, 64, 63
1, 624054, Control_c, 0, 64, 69
1, 624068, Control_c, 0, 64, 75
1, 624083, Control_c, 0, 64, 84
1, 624085, Note_on_c, 0, 73, 86
1, 624093, Note_on_c, 0, 55, 53
1, 624095, Note_off_c, 0, 57, 57
1, 624098, Control_c, 0, 64, 92
1, 624113, Control_c, 0, 64, 103
1, 624115, Note_off_c, 0, 71, 60
1, 624128, Control_c, 0, 64, 127
1, 624135, Note_off_c, 0, 61, 59
1, 624140, Note_off_c, 0, 55, 60
1, 624220, Note_off_c, 0, 73, 58
1, 624247, Note_on_c, 0, 71, 77
1, 624262, Note_on_c, 0, 55, 64
1, 624264, Note_on_c, 0, 62, 67
1, 624276, Control_c, 0, 64, 83
1, 624298, Control_c, 0, 64, 64
1, 624313, Control_c, 0, 64, 46
1, 624327, Control_c, 0, 64, 33
1, 624342, Control_c, 0, 64, 37
1, 624357, Control_c, 0, 64, 51
1, 624372, Control_c, 0, 64, 63
1, 624387, Control_c, 0, 64, 74
1, 624402, Control_c, 0, 64, 87
1, 624403, Note_on_c, 0, 69, 78
1, 624405, Note_off_c, 0, 55, 54
1, 624417, Control_c, 0, 64, 100
1, 624419, Note_on_c, 0, 54, 63
1, 624424, Note_off_c, 0, 71, 60
1, 624432, Control_c, 0, 64, 122
1, 624440, Note_off_c, 0, 62, 54
1, 624447, Control_c, 0, 64, 127
1, 624450, Note_off_c, 0, 69, 62
1, 624481, Note_off_c, 0, 54, 55
1, 624565, Control_c, 0, 64, 95
1, 624569, Note_on_c, 0, 67, 80
1, 624580, Control_c, 0, 64, 70
1, 624585, Note_on_c, 0, 54, 66
1, 624585, Note_on_c, 0, 57, 62
1, 624594, Control_c, 0, 64, 48
1, 624609, Control_c, 0, 64, 27
1, 624639, Control_c, 0, 64, 42
1, 624653, Control_c, 0, 64, 58
1, 624668, Control_c, 0, 64, 67
1, 624683, Control_c, 0, 64, 76
1, 624698, Control_c, 0, 64, 88
1, 624710, Note_on_c, 0, 69, 77
1, 624710, Note_off_c, 0, 67, 61
1, 624712, Control_c, 0, 64, 96
1, 624713, Note_off_c, 0, 57, 57
1, 624714, Note_on_c, 0, 52, 64
1, 624727, Control_c, 0, 64, 104
1, 624734, Note_off_c, 0, 54, 36
1, 624742, Control_c, 0, 64, 114
1, 624746, Note_off_c, 0, 52, 63
1, 624757, Control_c, 0, 64, 127
1, 624847, Control_c, 0, 64, 98
1, 624862, Control_c, 0, 64, 73
1, 624866, Note_on_c, 0, 67, 76
1, 624876, Note_off_c, 0, 69, 48
1, 624877, Control_c, 0, 64, 54
1, 624878, Note_on_c, 0, 52, 64
1, 624881, Note_on_c, 0, 57, 63
1, 624891, Control_c, 0, 64, 0
1, 624936, Control_c, 0, 64, 30
1, 624950, Control_c, 0, 64, 47
1, 624965, Control_c, 0, 64, 59
1, 624972, Note_off_c, 0, 57, 55
1, 624977, Note_off_c, 0, 52, 54
1, 624980, Control_c, 0, 64, 66
1, 624995, Control_c, 0, 64, 74
1, 625010, Control_c, 0, 64, 83
1, 625012, Note_on_c, 0, 66, 80
1, 625021, Note_on_c, 0, 50, 65
1, 625021, Note_off_c, 0, 67, 61
1, 625025, Control_c, 0, 64, 94
1, 625047, Control_c, 0, 64, 111
1, 625054, Note_off_c, 0, 50, 66
1, 625062, Control_c, 0, 64, 127
1, 625100, Note_off_c, 0, 66, 53
1, 625194, Note_on_c, 0, 45, 72
1, 625195, Note_on_c, 0, 67, 76
1, 625195, Note_on_c, 0, 61, 78
1, 625195, Control_c, 0, 64, 82
1, 625210, Control_c, 0, 64, 62
1, 625212, Note_on_c, 0, 40, 55
1, 625225, Control_c, 0, 64, 39
1, 625240, Control_c, 0, 64, 0
1, 625269, Control_c, 0, 64, 35
1, 625284, Control_c, 0, 64, 54
1, 625299, Control_c, 0, 64, 65
1, 625314, Control_c, 0, 64, 73
1, 625329, Control_c, 0, 64, 80
1, 625335, Note_on_c, 0, 69, 74
1, 625337, Note_off_c, 0, 40, 57
1, 625343, Control_c, 0, 64, 85
1, 625350, Note_off_c, 0, 67, 55
1, 625358, Control_c, 0, 64, 91
1, 625359, Note_on_c, 0, 42, 60
1, 625365, Note_off_c, 0, 61, 58
1, 625373, Control_c, 0, 64, 96
1, 625388, Control_c, 0, 64, 101
1, 625403, Control_c, 0, 64, 107
1, 625417, Control_c, 0, 64, 112
1, 625432, Control_c, 0, 64, 117
1, 625462, Control_c, 0, 64, 119
1, 625478, Note_off_c, 0, 42, 56
1, 625491, Control_c, 0, 64, 115
1, 625506, Control_c, 0, 64, 92
1, 625508, Note_off_c, 0, 69, 60
1, 625520, Note_on_c, 0, 62, 70
1, 625520, Note_on_c, 0, 67, 70
1, 625521, Control_c, 0, 64, 70
1, 625529, Note_on_c, 0, 40, 53
1, 625536, Control_c, 0, 64, 50
1, 625550, Control_c, 0, 64, 0
1, 625596, Control_c, 0, 64, 28
1, 625612, Control_c, 0, 64, 47
1, 625627, Control_c, 0, 64, 59
1, 625641, Control_c, 0, 64, 66
1, 625656, Control_c, 0, 64, 74
1, 625671, Control_c, 0, 64, 83
1, 625676, Note_on_c, 0, 66, 73
1, 625678, Note_off_c, 0, 67, 59
1, 625680, Note_off_c, 0, 62, 61
1, 625685, Control_c, 0, 64, 98
1, 625688, Note_on_c, 0, 38, 60
1, 625700, Control_c, 0, 64, 127
1, 625709, Note_off_c, 0, 40, 32
1, 625725, Note_off_c, 0, 38, 62
1, 625733, Note_off_c, 0, 66, 61
1, 625750, Note_off_c, 0, 45, 37
1, 625856, Control_c, 0, 64, 89
1, 625869, Note_on_c, 0, 67, 69
1, 625871, Control_c, 0, 64, 66
1, 625884, Note_on_c, 0, 57, 54
1, 625886, Control_c, 0, 64, 45
1, 625886, Note_on_c, 0, 52, 55
1, 625900, Control_c, 0, 64, 0
1, 625930, Control_c, 0, 64, 32
1, 625945, Control_c, 0, 64, 50
1, 625960, Control_c, 0, 64, 61
1, 625974, Control_c, 0, 64, 66
1, 625989, Control_c, 0, 64, 71
1, 626004, Control_c, 0, 64, 75
1, 626019, Control_c, 0, 64, 82
1, 626029, Note_off_c, 0, 57, 30
1, 626030, Note_on_c, 0, 69, 69
1, 626034, Control_c, 0, 64, 89
1, 626035, Note_off_c, 0, 67, 39
1, 626040, Note_on_c, 0, 54, 56
1, 626048, Control_c, 0, 64, 95
1, 626060, Note_off_c, 0, 52, 41
1, 626063, Control_c, 0, 64, 101
1, 626078, Control_c, 0, 64, 106
1, 626092, Control_c, 0, 64, 111
1, 626107, Control_c, 0, 64, 117
1, 626122, Control_c, 0, 64, 127
1, 626182, Control_c, 0, 64, 106
1, 626186, Note_on_c, 0, 67, 81
1, 626186, Note_off_c, 0, 54, 58
1, 626196, Control_c, 0, 64, 84
1, 626202, Note_on_c, 0, 57, 76
1, 626203, Note_on_c, 0, 52, 57
1, 626211, Control_c, 0, 64, 65
1, 626216, Note_off_c, 0, 69, 55
1, 626226, Control_c, 0, 64, 43
1, 626241, Control_c, 0, 64, 0
1, 626256, Control_c, 0, 64, 28
1, 626271, Control_c, 0, 64, 46
1, 626282, Note_off_c, 0, 57, 60
1, 626286, Control_c, 0, 64, 61
1, 626300, Control_c, 0, 64, 70
1, 626315, Control_c, 0, 64, 81
1, 626330, Control_c, 0, 64, 98
1, 626337, Note_off_c, 0, 52, 57
1, 626338, Note_on_c, 0, 66, 88
1, 626340, Note_on_c, 0, 50, 69
1, 626345, Control_c, 0, 64, 122
1, 626360, Control_c, 0, 64, 127
1, 626362, Note_off_c, 0, 67, 63
1, 626366, Note_off_c, 0, 50, 66
1, 626523, Note_on_c, 0, 61, 89
1, 626528, Note_on_c, 0, 45, 70
1, 626530, Note_on_c, 0, 67, 84
1, 626545, Note_on_c, 0, 40, 61
1, 626560, Control_c, 0, 64, 87
1, 626569, Note_off_c, 0, 66, 61
1, 626575, Control_c, 0, 64, 63
1, 626590, Control_c, 0, 64, 33
1, 626605, Control_c, 0, 64, 0
1, 626664, Control_c, 0, 64, 33
1, 626679, Control_c, 0, 64, 47
1, 626694, Control_c, 0, 64, 59
1, 626709, Control_c, 0, 64, 65
1, 626723, Control_c, 0, 64, 71
1, 626738, Note_on_c, 0, 69, 83
1, 626738, Control_c, 0, 64, 78
1, 626747, Note_off_c, 0, 67, 61
1, 626748, Note_off_c, 0, 40, 55
1, 626750, Note_on_c, 0, 42, 64
1, 626753, Control_c, 0, 64, 84
1, 626768, Control_c, 0, 64, 91
1, 626783, Control_c, 0, 64, 99
1, 626797, Control_c, 0, 64, 108
1, 626812, Control_c, 0, 64, 127
1, 626849, Note_off_c, 0, 61, 58
1, 626972, Note_on_c, 0, 40, 62
1, 626980, Note_off_c, 0, 69, 56
1, 627005, Note_on_c, 0, 60, 86
1, 627010, Note_off_c, 0, 42, 39
1, 627019, Control_c, 0, 64, 112
1, 627031, Note_on_c, 0, 67, 74
1, 627034, Control_c, 0, 64, 74
1, 627049, Control_c, 0, 64, 55
1, 627064, Control_c, 0, 64, 28
1, 627078, Control_c, 0, 64, 0
1, 627108, Control_c, 0, 64, 32
1, 627122, Control_c, 0, 64, 47
1, 627137, Control_c, 0, 64, 59
1, 627152, Control_c, 0, 64, 64
1, 627167, Control_c, 0, 64, 67
1, 627182, Control_c, 0, 64, 70
1, 627196, Control_c, 0, 64, 73
1, 627212, Control_c, 0, 64, 78
1, 627227, Control_c, 0, 64, 82
1, 627242, Control_c, 0, 64, 89
1, 627257, Control_c, 0, 64, 96
1, 627271, Note_off_c, 0, 40, 60
1, 627271, Control_c, 0, 64, 104
1, 627290, Note_on_c, 0, 66, 72
1, 627293, Control_c, 0, 64, 114
1, 627308, Control_c, 0, 64, 127
1, 627326, Note_off_c, 0, 67, 58
1, 627382, Note_off_c, 0, 66, 63
1, 627485, Note_on_c, 0, 39, 58
1, 627491, Note_on_c, 0, 66, 77
1, 627501, Control_c, 0, 64, 90
1, 627516, Control_c, 0, 64, 68
1, 627531, Control_c, 0, 64, 50
1, 627545, Control_c, 0, 64, 33
1, 627560, Control_c, 0, 64, 36
1, 627575, Control_c, 0, 64, 49
1, 627590, Control_c, 0, 64, 59
1, 627605, Control_c, 0, 64, 66
1, 627619, Control_c, 0, 64, 72
1, 627634, Control_c, 0, 64, 77
1, 627649, Control_c, 0, 64, 83
1, 627663, Control_c, 0, 64, 87
1, 627678, Control_c, 0, 64, 91
1, 627689, Note_on_c, 0, 72, 74
1, 627693, Note_off_c, 0, 39, 37
1, 627693, Control_c, 0, 64, 95
1, 627704, Note_off_c, 0, 45, 55
1, 627708, Control_c, 0, 64, 99
1, 627723, Control_c, 0, 64, 103
1, 627724, Note_off_c, 0, 66, 61
1, 627738, Control_c, 0, 64, 107
1, 627753, Control_c, 0, 64, 112
1, 627758, Note_on_c, 0, 38, 52
1, 627767, Control_c, 0, 64, 115
1, 627782, Control_c, 0, 64, 121
1, 627784, Note_off_c, 0, 72, 54
1, 627797, Control_c, 0, 64, 127
1, 627800, Note_off_c, 0, 60, 48
1, 627937, Note_on_c, 0, 46, 53
1, 627945, Control_c, 0, 64, 101
1, 627946, Note_on_c, 0, 72, 60
1, 627957, Note_on_c, 0, 65, 58
1, 627960, Control_c, 0, 64, 76
1, 627975, Control_c, 0, 64, 59
1, 627990, Control_c, 0, 64, 37
1, 628005, Control_c, 0, 64, 0
1, 628042, Control_c, 0, 64, 40
1, 628057, Control_c, 0, 64, 53
1, 628072, Control_c, 0, 64, 61
1, 628087, Control_c, 0, 64, 65
1, 628101, Control_c, 0, 64, 68
1, 628116, Control_c, 0, 64, 72
1, 628131, Control_c, 0, 64, 76
1, 628146, Control_c, 0, 64, 80
1, 628161, Note_off_c, 0, 65, 59
1, 628161, Control_c, 0, 64, 84
1, 628162, Note_on_c, 0, 70, 75
1, 628176, Control_c, 0, 64, 89
1, 628191, Control_c, 0, 64, 94
1, 628206, Control_c, 0, 64, 100
1, 628206, Note_off_c, 0, 72, 56
1, 628221, Control_c, 0, 64, 109
1, 628235, Control_c, 0, 64, 127
1, 628328, Note_on_c, 0, 65, 75
1, 628328, Note_off_c, 0, 46, 56
1, 628371, Note_off_c, 0, 70, 59
1, 628437, Note_off_c, 0, 38, 31
1, 628466, Note_off_c, 0, 65, 63
1, 628484, Note_on_c, 0, 62, 69
1, 628530, Note_off_c, 0, 62, 61
1, 628650, Control_c, 0, 64, 94
1, 628660, Note_on_c, 0, 45, 61
1, 628665, Control_c, 0, 64, 66
1, 628671, Note_on_c, 0, 55, 79
1, 628674, Note_on_c, 0, 40, 51
1, 628674, Note_on_c, 0, 62, 62
1, 628680, Control_c, 0, 64, 48
1, 628694, Control_c, 0, 64, 30
1, 628724, Control_c, 0, 64, 45
1, 628739, Control_c, 0, 64, 58
1, 628754, Control_c, 0, 64, 65
1, 628769, Control_c, 0, 64, 74
1, 628791, Control_c, 0, 64, 82
1, 628806, Control_c, 0, 64, 90
1, 628822, Control_c, 0, 64, 100
1, 628825, Note_off_c, 0, 40, 58
1, 628837, Control_c, 0, 64, 114
1, 628842, Note_on_c, 0, 61, 69
1, 628852, Control_c, 0, 64, 127
1, 628882, Note_off_c, 0, 62, 62
1, 628909, Note_off_c, 0, 61, 62
1, 629009, Note_on_c, 0, 39, 62
1, 629013, Note_on_c, 0, 61, 75
1, 629014, Control_c, 0, 64, 114
1, 629029, Control_c, 0, 64, 80
1, 629044, Control_c, 0, 64, 61
1, 629059, Control_c, 0, 64, 43
1, 629073, Control_c, 0, 64, 37
1, 629088, Control_c, 0, 64, 47
1, 629103, Control_c, 0, 64, 58
1, 629118, Control_c, 0, 64, 65
1, 629133, Control_c, 0, 64, 72
1, 629140, Note_off_c, 0, 39, 58
1, 629146, Note_off_c, 0, 45, 57
1, 629148, Control_c, 0, 64, 83
1, 629162, Control_c, 0, 64, 93
1, 629174, Note_on_c, 0, 67, 72
1, 629177, Control_c, 0, 64, 102
1, 629192, Control_c, 0, 64, 107
1, 629198, Note_off_c, 0, 61, 60
1, 629207, Control_c, 0, 64, 111
1, 629209, Note_off_c, 0, 55, 55
1, 629222, Control_c, 0, 64, 113
1, 629235, Note_on_c, 0, 38, 48
1, 629236, Control_c, 0, 64, 116
1, 629251, Note_off_c, 0, 67, 57
1, 629251, Control_c, 0, 64, 119
1, 629266, Control_c, 0, 64, 122
1, 629281, Control_c, 0, 64, 127
1, 629355, Control_c, 0, 64, 122
1, 629367, Note_on_c, 0, 67, 73
1, 629370, Control_c, 0, 64, 105
1, 629371, Note_on_c, 0, 46, 55
1, 629384, Note_on_c, 0, 62, 59
1, 629384, Control_c, 0, 64, 81
1, 629399, Control_c, 0, 64, 64
1, 629414, Control_c, 0, 64, 45
1, 629429, Control_c, 0, 64, 0
1, 629488, Control_c, 0, 64, 38
1, 629502, Control_c, 0, 64, 49
1, 629517, Control_c, 0, 64, 59
1, 629540, Control_c, 0, 64, 65
1, 629550, Note_on_c, 0, 65, 70
1, 629555, Control_c, 0, 64, 69
1, 629570, Control_c, 0, 64, 72
1, 629574, Note_off_c, 0, 62, 57
1, 629584, Control_c, 0, 64, 75
1, 629599, Control_c, 0, 64, 80
1, 629615, Control_c, 0, 64, 85
1, 629619, Note_off_c, 0, 67, 39
1, 629630, Control_c, 0, 64, 91
1, 629645, Control_c, 0, 64, 97
1, 629659, Control_c, 0, 64, 103
1, 629674, Control_c, 0, 64, 111
1, 629683, Note_off_c, 0, 46, 53
1, 629689, Control_c, 0, 64, 127
1, 629717, Note_off_c, 0, 38, 35
1, 629717, Note_on_c, 0, 62, 71
1, 629759, Note_off_c, 0, 65, 61
1, 629894, Note_on_c, 0, 58, 82
1, 629899, Note_off_c, 0, 62, 62
1, 630003, Note_off_c, 0, 58, 61
1, 630109, Note_on_c, 0, 56, 83
1, 630134, Note_on_c, 0, 53, 55
1, 630141, Note_on_c, 0, 41, 46
1, 630148, Control_c, 0, 64, 89
1, 630163, Control_c, 0, 64, 68
1, 630178, Control_c, 0, 64, 53
1, 630192, Control_c, 0, 64, 37
1, 630207, Control_c, 0, 64, 33
1, 630222, Control_c, 0, 64, 40
1, 630237, Control_c, 0, 64, 53
1, 630251, Note_off_c, 0, 53, 61
1, 630252, Control_c, 0, 64, 61
1, 630266, Control_c, 0, 64, 66
1, 630289, Control_c, 0, 64, 71
1, 630301, Note_on_c, 0, 62, 65
1, 630304, Control_c, 0, 64, 78
1, 630313, Note_off_c, 0, 41, 61
1, 630319, Control_c, 0, 64, 83
1, 630334, Control_c, 0, 64, 87
1, 630348, Control_c, 0, 64, 91
1, 630363, Control_c, 0, 64, 95
1, 630376, Note_off_c, 0, 56, 57
1, 630378, Control_c, 0, 64, 99
1, 630393, Control_c, 0, 64, 104
1, 630408, Control_c, 0, 64, 109
1, 630423, Control_c, 0, 64, 113
1, 630438, Control_c, 0, 64, 117
1, 630453, Control_c, 0, 64, 121
1, 630486, Note_on_c, 0, 55, 77
1, 630497, Note_on_c, 0, 65, 65
1, 630500, Note_off_c, 0, 62, 58
1, 630504, Note_on_c, 0, 46, 55
1, 630512, Control_c, 0, 64, 105
1, 630513, Note_on_c, 0, 61, 50
1, 630516, Note_on_c, 0, 34, 53
1, 630527, Control_c, 0, 64, 87
1, 630542, Control_c, 0, 64, 71
1, 630556, Control_c, 0, 64, 58
1, 630571, Control_c, 0, 64, 48
1, 630586, Control_c, 0, 64, 48
1, 630601, Control_c, 0, 64, 56
1, 630616, Control_c, 0, 64, 64
1, 630630, Control_c, 0, 64, 71
1, 630645, Control_c, 0, 64, 79
1, 630658, Note_off_c, 0, 34, 60
1, 630660, Control_c, 0, 64, 87
1, 630675, Note_on_c, 0, 64, 72
1, 630675, Control_c, 0, 64, 94
1, 630676, Note_off_c, 0, 65, 61
1, 630689, Control_c, 0, 64, 101
1, 630693, Note_off_c, 0, 46, 57
1, 630693, Note_off_c, 0, 55, 62
1, 630699, Note_off_c, 0, 61, 62
1, 630704, Control_c, 0, 64, 107
1, 630719, Control_c, 0, 64, 118
1, 630734, Control_c, 0, 64, 127
1, 630869, Note_off_c, 0, 64, 60
1, 630888, Note_on_c, 0, 54, 75
1, 630907, Note_on_c, 0, 51, 52
1, 630911, Control_c, 0, 67, 49
1, 630926, Control_c, 0, 64, 116
1, 630926, Control_c, 0, 67, 70
1, 630933, Note_on_c, 0, 39, 48
1, 630941, Control_c, 0, 64, 89
1, 630941, Control_c, 0, 67, 85
1, 630955, Control_c, 0, 64, 71
1, 630955, Control_c, 0, 67, 97
1, 630970, Control_c, 0, 64, 59
1, 630970, Control_c, 0, 67, 107
1, 630985, Control_c, 0, 64, 48
1, 630985, Control_c, 0, 67, 119
1, 631000, Control_c, 0, 64, 44
1, 631000, Control_c, 0, 67, 127
1, 631014, Control_c, 0, 64, 47
1, 631037, Control_c, 0, 64, 52
1, 631052, Control_c, 0, 64, 57
1, 631067, Control_c, 0, 64, 61
1, 631082, Control_c, 0, 64, 64
1, 631084, Note_off_c, 0, 51, 60
1, 631096, Control_c, 0, 64, 68
1, 631111, Control_c, 0, 64, 73
1, 631126, Control_c, 0, 64, 79
1, 631130, Note_on_c, 0, 60, 65
1, 631141, Control_c, 0, 64, 83
1, 631156, Control_c, 0, 64, 87
1, 631170, Control_c, 0, 64, 91
1, 631181, Note_off_c, 0, 39, 39
1, 631185, Control_c, 0, 64, 95
1, 631200, Control_c, 0, 64, 99
1, 631216, Control_c, 0, 64, 103
1, 631223, Note_off_c, 0, 54, 55
1, 631231, Control_c, 0, 64, 107
1, 631246, Control_c, 0, 64, 112
1, 631260, Control_c, 0, 64, 116
1, 631275, Control_c, 0, 64, 122
1, 631290, Control_c, 0, 64, 127
1, 631392, Note_on_c, 0, 53, 66
1, 631408, Note_off_c, 0, 60, 55
1, 631418, Note_on_c, 0, 44, 43
1, 631426, Note_on_c, 0, 32, 46
1, 631428, Note_on_c, 0, 58, 56
1, 631428, Note_on_c, 0, 63, 51
1, 631437, Control_c, 0, 64, 114
1, 631452, Control_c, 0, 64, 94
1, 631467, Control_c, 0, 64, 75
1, 631482, Control_c, 0, 64, 61
1, 631497, Control_c, 0, 64, 46
1, 631511, Control_c, 0, 64, 36
1, 631526, Control_c, 0, 64, 37
1, 631541, Control_c, 0, 64, 43
1, 631556, Control_c, 0, 64, 52
1, 631571, Control_c, 0, 64, 57
1, 631586, Control_c, 0, 64, 61
1, 631601, Control_c, 0, 64, 63
1, 631616, Control_c, 0, 64, 66
1, 631630, Control_c, 0, 64, 71
1, 631645, Control_c, 0, 64, 74
1, 631660, Control_c, 0, 64, 78
1, 631675, Control_c, 0, 64, 81
1, 631690, Control_c, 0, 64, 84
1, 631699, Note_on_c, 0, 62, 65
1, 631704, Control_c, 0, 64, 88
1, 631717, Note_off_c, 0, 58, 61
1, 631719, Control_c, 0, 64, 92
1, 631721, Note_off_c, 0, 63, 37
1, 631734, Control_c, 0, 64, 96
1, 631737, Note_off_c, 0, 44, 52
1, 631747, Note_off_c, 0, 32, 41
1, 631749, Control_c, 0, 64, 98
1, 631756, Note_off_c, 0, 53, 61
1, 631786, Control_c, 0, 64, 101
1, 631801, Control_c, 0, 64, 103
1, 631830, Control_c, 0, 64, 105
1, 631890, Control_c, 0, 64, 107
1, 632057, Note_on_c, 0, 54, 47
1, 632067, Note_on_c, 0, 45, 32
1, 632069, Note_on_c, 0, 33, 38
1, 632070, Note_on_c, 0, 57, 52
1, 632074, Note_off_c, 0, 62, 59
1, 632083, Control_c, 0, 64, 101
1, 632098, Control_c, 0, 64, 90
1, 632113, Control_c, 0, 64, 77
1, 632128, Control_c, 0, 64, 65
1, 632142, Control_c, 0, 64, 52
1, 632157, Control_c, 0, 64, 46
1, 632172, Control_c, 0, 64, 45
1, 632187, Control_c, 0, 64, 48
1, 632201, Control_c, 0, 64, 52
1, 632216, Control_c, 0, 64, 55
1, 632231, Control_c, 0, 64, 57
1, 632246, Control_c, 0, 64, 60
1, 632260, Control_c, 0, 64, 61
1, 632275, Control_c, 0, 64, 63
1, 632290, Control_c, 0, 64, 65
1, 632305, Control_c, 0, 64, 67
1, 632320, Control_c, 0, 64, 70
1, 632334, Control_c, 0, 64, 72
1, 632349, Control_c, 0, 64, 74
1, 632361, Note_on_c, 0, 62, 68
1, 632364, Note_off_c, 0, 57, 64
1, 632364, Control_c, 0, 64, 76
1, 632379, Control_c, 0, 64, 78
1, 632394, Control_c, 0, 64, 80
1, 632409, Control_c, 0, 64, 82
1, 632424, Control_c, 0, 64, 84
1, 632428, Note_off_c, 0, 54, 38
1, 632438, Control_c, 0, 64, 85
1, 632453, Control_c, 0, 64, 87
1, 632468, Control_c, 0, 64, 89
1, 632483, Control_c, 0, 64, 90
1, 632498, Control_c, 0, 64, 92
1, 632513, Control_c, 0, 64, 92
1, 632534, Control_c, 0, 64, 93
1, 632549, Control_c, 0, 64, 93
1, 632564, Control_c, 0, 64, 94
1, 632594, Control_c, 0, 64, 94
1, 632623, Note_on_c, 0, 55, 36
1, 632623, Note_on_c, 0, 58, 53
1, 632623, Note_off_c, 0, 62, 58
1, 632623, Control_c, 0, 64, 95
1, 632638, Control_c, 0, 64, 95
1, 632653, Control_c, 0, 64, 96
1, 632801, Control_c, 0, 64, 98
1, 632827, Note_on_c, 0, 63, 74
1, 632832, Note_off_c, 0, 58, 58
1, 632859, Note_off_c, 0, 55, 59
1, 632936, Control_c, 0, 64, 100
1, 633035, Note_on_c, 0, 59, 61
1, 633039, Control_c, 0, 64, 93
1, 633041, Note_on_c, 0, 56, 54
1, 633054, Control_c, 0, 64, 80
1, 633068, Control_c, 0, 64, 64
1, 633082, Control_c, 0, 64, 51
1, 633086, Note_off_c, 0, 63, 50
1, 633097, Control_c, 0, 64, 46
1, 633112, Control_c, 0, 64, 50
1, 633127, Control_c, 0, 64, 57
1, 633142, Control_c, 0, 64, 62
1, 633157, Control_c, 0, 64, 67
1, 633172, Control_c, 0, 64, 74
1, 633187, Control_c, 0, 64, 81
1, 633202, Control_c, 0, 64, 87
1, 633217, Control_c, 0, 64, 93
1, 633231, Control_c, 0, 64, 98
1, 633246, Control_c, 0, 64, 103
1, 633252, Note_on_c, 0, 64, 68
1, 633261, Control_c, 0, 64, 112
1, 633282, Control_c, 0, 64, 127
1, 633298, Note_off_c, 0, 59, 62
1, 633356, Note_off_c, 0, 56, 58
1, 633586, Note_off_c, 0, 64, 60
1, 633599, Note_on_c, 0, 67, 58
1, 633614, Note_on_c, 0, 57, 39
1, 633621, Note_on_c, 0, 61, 44
1, 633625, Control_c, 0, 64, 106
1, 633639, Control_c, 0, 64, 83
1, 633654, Control_c, 0, 64, 68
1, 633669, Control_c, 0, 64, 56
1, 633684, Control_c, 0, 64, 49
1, 633699, Control_c, 0, 64, 49
1, 633713, Control_c, 0, 64, 51
1, 633728, Control_c, 0, 64, 56
1, 633743, Control_c, 0, 64, 59
1, 633758, Control_c, 0, 64, 62
1, 633773, Control_c, 0, 64, 65
1, 633787, Control_c, 0, 64, 68
1, 633795, Note_off_c, 0, 61, 50
1, 633802, Control_c, 0, 64, 73
1, 633815, Note_off_c, 0, 57, 36
1, 633817, Control_c, 0, 64, 76
1, 633831, Control_c, 0, 64, 78
1, 633846, Control_c, 0, 64, 80
1, 633861, Control_c, 0, 64, 81
1, 633876, Control_c, 0, 64, 83
1, 633891, Control_c, 0, 64, 85
1, 633905, Control_c, 0, 64, 87
1, 633920, Control_c, 0, 64, 89
1, 633935, Control_c, 0, 64, 91
1, 633937, Note_on_c, 0, 66, 64
1, 633950, Control_c, 0, 64, 94
1, 633965, Control_c, 0, 64, 95
1, 633968, Note_off_c, 0, 45, 37
1, 633970, Note_off_c, 0, 67, 36
1, 633995, Control_c, 0, 64, 97
1, 634031, Control_c, 0, 64, 99
1, 634069, Note_off_c, 0, 33, 37
1, 634105, Control_c, 0, 64, 101
1, 634242, Note_off_c, 0, 66, 51
1, 634267, Note_on_c, 0, 38, 40
1, 634269, Note_on_c, 0, 64, 47
1, 634269, Control_c, 0, 64, 99
1, 634277, Note_on_c, 0, 45, 32
1, 634284, Control_c, 0, 64, 92
1, 634297, Note_on_c, 0, 54, 38
1, 634298, Control_c, 0, 64, 79
1, 634313, Control_c, 0, 64, 66
1, 634328, Control_c, 0, 64, 53
1, 634343, Control_c, 0, 64, 44
1, 634358, Control_c, 0, 64, 40
1, 634372, Control_c, 0, 64, 42
1, 634387, Control_c, 0, 64, 48
1, 634403, Control_c, 0, 64, 54
1, 634418, Control_c, 0, 64, 58
1, 634433, Control_c, 0, 64, 61
1, 634448, Control_c, 0, 64, 64
1, 634462, Control_c, 0, 64, 67
1, 634477, Control_c, 0, 64, 70
1, 634492, Control_c, 0, 64, 73
1, 634501, Note_on_c, 0, 62, 54
1, 634501, Note_off_c, 0, 64, 38
1, 634507, Note_off_c, 0, 54, 54
1, 634507, Control_c, 0, 64, 76
1, 634522, Control_c, 0, 64, 78
1, 634536, Control_c, 0, 64, 79
1, 634551, Control_c, 0, 64, 81
1, 634566, Control_c, 0, 64, 83
1, 634581, Control_c, 0, 64, 84
1, 634596, Control_c, 0, 64, 86
1, 634610, Control_c, 0, 64, 88
1, 634625, Control_c, 0, 64, 90
1, 634640, Control_c, 0, 64, 91
1, 634654, Control_c, 0, 64, 92
1, 634669, Control_c, 0, 64, 93
1, 634684, Control_c, 0, 64, 94
1, 634686, Note_off_c, 0, 62, 36
1, 634699, Control_c, 0, 64, 95
1, 634714, Note_on_c, 0, 66, 51
1, 634714, Control_c, 0, 64, 96
1, 634757, Note_off_c, 0, 66, 64
1, 634781, Control_c, 0, 64, 98
1, 634835, Note_off_c, 0, 45, 35
1, 634961, Note_on_c, 0, 69, 55
1, 634988, Control_c, 0, 64, 94
1, 635002, Control_c, 0, 64, 89
1, 635017, Control_c, 0, 64, 82
1, 635032, Control_c, 0, 64, 73
1, 635047, Control_c, 0, 64, 64
1, 635062, Control_c, 0, 64, 56
1, 635077, Control_c, 0, 64, 52
1, 635091, Control_c, 0, 64, 51
1, 635136, Control_c, 0, 64, 51
1, 635151, Control_c, 0, 64, 50
1, 635166, Control_c, 0, 64, 49
1, 635180, Control_c, 0, 64, 48
1, 635196, Control_c, 0, 64, 46
1, 635211, Control_c, 0, 64, 42
1, 635226, Control_c, 0, 64, 37
1, 635241, Control_c, 0, 64, 29
1, 635255, Control_c, 0, 64, 0
1, 635307, Note_off_c, 0, 69, 52
1, 635326, Note_on_c, 0, 74, 48
1, 635410, Note_off_c, 0, 38, 54
1, 635449, Control_c, 0, 64, 39
1, 635464, Control_c, 0, 64, 51
1, 635478, Control_c, 0, 64, 59
1, 635493, Control_c, 0, 64, 62
1, 635508, Control_c, 0, 64, 64
1, 635530, Control_c, 0, 64, 66
1, 635545, Control_c, 0, 64, 68
1, 635559, Control_c, 0, 64, 71
1, 635574, Control_c, 0, 64, 74
1, 635589, Control_c, 0, 64, 78
1, 635604, Control_c, 0, 64, 81
1, 635619, Control_c, 0, 64, 87
1, 635634, Control_c, 0, 64, 91
1, 635649, Control_c, 0, 64, 97
1, 635664, Control_c, 0, 64, 102
1, 635678, Control_c, 0, 64, 110
1, 635693, Control_c, 0, 64, 127
1, 635726, Note_off_c, 0, 74, 47
1, 636112, Note_on_c, 0, 50, 28
1, 636129, Note_on_c, 0, 38, 33
1, 636326, Note_off_c, 0, 38, 37
1, 636358, Note_off_c, 0, 50, 43
1, 636678, Note_on_c, 0, 50, 48
1, 636689, Note_on_c, 0, 38, 47
1, 636694, Control_c, 0, 64, 93
1, 636708, Control_c, 0, 64, 73
1, 636723, Control_c, 0, 64, 61
1, 636738, Control_c, 0, 64, 54
1, 636752, Control_c, 0, 64, 56
1, 636767, Control_c, 0, 64, 61
1, 636782, Control_c, 0, 64, 65
1, 636798, Control_c, 0, 64, 71
1, 636813, Control_c, 0, 64, 79
1, 636828, Control_c, 0, 64, 86
1, 636842, Control_c, 0, 64, 92
1, 636857, Control_c, 0, 64, 97
1, 636872, Control_c, 0, 64, 104
1, 636887, Note_off_c, 0, 50, 56
1, 636887, Control_c, 0, 64, 115
1, 636902, Control_c, 0, 64, 127
1, 636910, Note_off_c, 0, 38, 49
1, 637315, Note_on_c, 0, 67, 39
1, 637336, Note_on_c, 0, 58, 36
1, 637342, Note_on_c, 0, 51, 34
1, 637352, Note_on_c, 0, 39, 37
1, 637369, Control_c, 0, 64, 108
1, 637383, Control_c, 0, 64, 85
1, 637398, Control_c, 0, 64, 70
1, 637413, Control_c, 0, 64, 60
1, 637428, Control_c, 0, 64, 54
1, 637443, Control_c, 0, 64, 54
1, 637457, Control_c, 0, 64, 55
1, 637472, Control_c, 0, 64, 57
1, 637487, Control_c, 0, 64, 58
1, 637502, Control_c, 0, 64, 61
1, 637517, Control_c, 0, 64, 63
1, 637531, Control_c, 0, 64, 66
1, 637546, Control_c, 0, 64, 71
1, 637560, Control_c, 0, 64, 75
1, 637575, Control_c, 0, 64, 79
1, 637589, Control_c, 0, 64, 81
1, 637605, Control_c, 0, 64, 83
1, 637620, Control_c, 0, 64, 85
1, 637622, Note_off_c, 0, 58, 41
1, 637635, Control_c, 0, 64, 87
1, 637636, Note_off_c, 0, 67, 37
1, 637650, Control_c, 0, 64, 89
1, 637665, Control_c, 0, 64, 91
1, 637679, Control_c, 0, 64, 93
1, 637694, Control_c, 0, 64, 95
1, 637709, Control_c, 0, 64, 97
1, 637739, Control_c, 0, 64, 100
1, 637776, Control_c, 0, 64, 102
1, 637800, Note_on_c, 0, 67, 51
1, 637805, Control_c, 0, 64, 104
1, 637818, Note_on_c, 0, 58, 48
1, 637828, Note_off_c, 0, 51, 44
1, 637835, Control_c, 0, 64, 107
1, 637855, Note_off_c, 0, 39, 42
1, 637865, Control_c, 0, 64, 110
1, 637883, Note_off_c, 0, 58, 52
1, 637894, Control_c, 0, 64, 114
1, 637924, Control_c, 0, 64, 117
1, 637953, Control_c, 0, 64, 119
1, 637998, Control_c, 0, 64, 122
1, 638091, Note_off_c, 0, 67, 32
1, 638205, Control_c, 0, 64, 119
1, 638220, Control_c, 0, 64, 110
1, 638235, Control_c, 0, 64, 96
1, 638250, Control_c, 0, 64, 80
1, 638255, Note_on_c, 0, 52, 38
1, 638257, Note_on_c, 0, 40, 33
1, 638262, Note_on_c, 0, 62, 39
1, 638262, Note_on_c, 0, 68, 44
1, 638265, Control_c, 0, 64, 65
1, 638279, Control_c, 0, 64, 54
1, 638294, Control_c, 0, 64, 47
1, 638310, Control_c, 0, 64, 46
1, 638325, Control_c, 0, 64, 48
1, 638340, Control_c, 0, 64, 53
1, 638354, Control_c, 0, 64, 59
1, 638369, Control_c, 0, 64, 64
1, 638384, Control_c, 0, 64, 70
1, 638400, Control_c, 0, 64, 78
1, 638415, Control_c, 0, 64, 88
1, 638429, Control_c, 0, 64, 99
1, 638444, Control_c, 0, 64, 110
1, 638459, Control_c, 0, 64, 127
1, 638460, Note_off_c, 0, 40, 45
1, 638478, Note_off_c, 0, 52, 55
1, 638490, Note_off_c, 0, 62, 48
1, 638531, Note_off_c, 0, 68, 37
1, 638675, Note_on_c, 0, 52, 55
1, 638686, Note_on_c, 0, 40, 46
1, 638689, Control_c, 0, 64, 98
1, 638703, Control_c, 0, 64, 78
1, 638718, Control_c, 0, 64, 65
1, 638733, Control_c, 0, 64, 56
1, 638748, Control_c, 0, 64, 55
1, 638763, Control_c, 0, 64, 58
1, 638777, Control_c, 0, 64, 63
1, 638792, Control_c, 0, 64, 68
1, 638807, Control_c, 0, 64, 75
1, 638821, Control_c, 0, 64, 83
1, 638836, Control_c, 0, 64, 91
1, 638851, Control_c, 0, 64, 97
1, 638866, Control_c, 0, 64, 101
1, 638868, Note_off_c, 0, 40, 52
1, 638881, Control_c, 0, 64, 109
1, 638895, Control_c, 0, 64, 119
1, 638902, Note_off_c, 0, 52, 55
1, 638910, Control_c, 0, 64, 127
1, 639095, Note_on_c, 0, 69, 58
1, 639120, Note_on_c, 0, 60, 39
1, 639126, Note_on_c, 0, 53, 41
1, 639137, Note_on_c, 0, 41, 40
1, 639147, Control_c, 0, 64, 99
1, 639162, Control_c, 0, 64, 79
1, 639177, Control_c, 0, 64, 64
1, 639193, Control_c, 0, 64, 51
1, 639208, Control_c, 0, 64, 45
1, 639238, Control_c, 0, 64, 47
1, 639252, Control_c, 0, 64, 52
1, 639274, Control_c, 0, 64, 57
1, 639289, Control_c, 0, 64, 62
1, 639304, Control_c, 0, 64, 66
1, 639319, Control_c, 0, 64, 72
1, 639333, Control_c, 0, 64, 79
1, 639348, Control_c, 0, 64, 85
1, 639363, Control_c, 0, 64, 90
1, 639378, Control_c, 0, 64, 94
1, 639393, Control_c, 0, 64, 99
1, 639394, Note_off_c, 0, 60, 57
1, 639405, Note_off_c, 0, 69, 55
1, 639408, Control_c, 0, 64, 104
1, 639423, Control_c, 0, 64, 108
1, 639438, Control_c, 0, 64, 112
1, 639441, Note_off_c, 0, 53, 51
1, 639452, Control_c, 0, 64, 115
1, 639467, Control_c, 0, 64, 125
1, 639475, Note_off_c, 0, 41, 35
1, 639482, Control_c, 0, 64, 127
1, 639518, Note_on_c, 0, 69, 75
1, 639543, Note_on_c, 0, 60, 44
1, 639742, Note_off_c, 0, 60, 39
1, 639970, Control_c, 0, 64, 114
1, 639986, Control_c, 0, 64, 105
1, 639994, Note_off_c, 0, 69, 38
1, 640001, Control_c, 0, 64, 96
1, 640023, Control_c, 0, 64, 88
1, 640029, Note_on_c, 0, 71, 48
1, 640031, Note_on_c, 0, 65, 41
1, 640032, Note_on_c, 0, 55, 34
1, 640035, Note_on_c, 0, 43, 31
1, 640038, Control_c, 0, 64, 79
1, 640053, Control_c, 0, 64, 70
1, 640068, Control_c, 0, 64, 61
1, 640082, Control_c, 0, 64, 51
1, 640097, Control_c, 0, 64, 45
1, 640112, Control_c, 0, 64, 40
1, 640127, Control_c, 0, 64, 40
1, 640156, Control_c, 0, 64, 41
1, 640171, Control_c, 0, 64, 43
1, 640186, Control_c, 0, 64, 49
1, 640201, Control_c, 0, 64, 55
1, 640216, Control_c, 0, 64, 61
1, 640231, Control_c, 0, 64, 64
1, 640245, Control_c, 0, 64, 68
1, 640260, Control_c, 0, 64, 72
1, 640275, Control_c, 0, 64, 75
1, 640290, Control_c, 0, 64, 79
1, 640305, Control_c, 0, 64, 82
1, 640320, Control_c, 0, 64, 85
1, 640330, Note_off_c, 0, 43, 40
1, 640335, Control_c, 0, 64, 89
1, 640335, Note_off_c, 0, 55, 42
1, 640348, Note_off_c, 0, 65, 36
1, 640349, Control_c, 0, 64, 93
1, 640364, Control_c, 0, 64, 97
1, 640379, Control_c, 0, 64, 102
1, 640393, Control_c, 0, 64, 106
1, 640408, Control_c, 0, 64, 117
1, 640423, Control_c, 0, 64, 127
1, 640491, Note_off_c, 0, 71, 35
1, 640572, Note_on_c, 0, 55, 39
1, 640591, Note_on_c, 0, 43, 37
1, 640751, Note_off_c, 0, 43, 58
1, 640772, Note_off_c, 0, 55, 54
1, 640821, Note_on_c, 0, 71, 60
1, 640904, Note_off_c, 0, 71, 59
1, 641042, Note_on_c, 0, 71, 60
1, 641051, Note_on_c, 0, 56, 45
1, 641053, Note_on_c, 0, 65, 50
1, 641053, Control_c, 0, 64, 113
1, 641058, Note_on_c, 0, 44, 39
1, 641068, Control_c, 0, 64, 88
1, 641083, Control_c, 0, 64, 72
1, 641098, Control_c, 0, 64, 62
1, 641113, Control_c, 0, 64, 55
1, 641143, Control_c, 0, 64, 58
1, 641158, Control_c, 0, 64, 62
1, 641172, Control_c, 0, 64, 66
1, 641187, Control_c, 0, 64, 72
1, 641202, Control_c, 0, 64, 79
1, 641216, Control_c, 0, 64, 86
1, 641221, Note_on_c, 0, 72, 66
1, 641231, Control_c, 0, 64, 92
1, 641246, Control_c, 0, 64, 95
1, 641258, Note_off_c, 0, 44, 56
1, 641261, Note_off_c, 0, 71, 58
1, 641261, Control_c, 0, 64, 98
1, 641276, Control_c, 0, 64, 102
1, 641283, Note_off_c, 0, 56, 58
1, 641290, Control_c, 0, 64, 107
1, 641292, Note_off_c, 0, 72, 57
1, 641304, Control_c, 0, 64, 111
1, 641319, Control_c, 0, 64, 113
1, 641334, Control_c, 0, 64, 115
1, 641363, Control_c, 0, 64, 118
1, 641408, Note_on_c, 0, 72, 62
1, 641417, Note_on_c, 0, 57, 63
1, 641428, Note_on_c, 0, 45, 60
1, 641438, Control_c, 0, 64, 106
1, 641453, Control_c, 0, 64, 90
1, 641468, Control_c, 0, 64, 74
1, 641483, Control_c, 0, 64, 61
1, 641497, Control_c, 0, 64, 50
1, 641519, Control_c, 0, 64, 46
1, 641534, Control_c, 0, 64, 50
1, 641548, Control_c, 0, 64, 57
1, 641563, Control_c, 0, 64, 63
1, 641578, Control_c, 0, 64, 68
1, 641582, Note_on_c, 0, 68, 67
1, 641588, Note_off_c, 0, 45, 59
1, 641594, Control_c, 0, 64, 77
1, 641609, Control_c, 0, 64, 88
1, 641616, Note_off_c, 0, 72, 55
1, 641624, Control_c, 0, 64, 98
1, 641632, Note_off_c, 0, 57, 62
1, 641638, Control_c, 0, 64, 105
1, 641644, Note_off_c, 0, 68, 61
1, 641646, Note_off_c, 0, 65, 58
1, 641653, Control_c, 0, 64, 112
1, 641668, Control_c, 0, 64, 122
1, 641683, Control_c, 0, 64, 127
1, 641769, Note_on_c, 0, 59, 70
1, 641772, Note_on_c, 0, 47, 62
1, 641783, Note_on_c, 0, 68, 58
1, 641802, Note_on_c, 0, 65, 41
1, 641802, Control_c, 0, 64, 99
1, 641816, Control_c, 0, 64, 80
1, 641831, Control_c, 0, 64, 65
1, 641846, Control_c, 0, 64, 50
1, 641861, Control_c, 0, 64, 46
1, 641876, Control_c, 0, 64, 50
1, 641891, Control_c, 0, 64, 58
1, 641906, Control_c, 0, 64, 65
1, 641920, Control_c, 0, 64, 71
1, 641935, Control_c, 0, 64, 81
1, 641939, Note_off_c, 0, 47, 59
1, 641944, Note_on_c, 0, 69, 68
1, 641950, Control_c, 0, 64, 90
1, 641958, Note_off_c, 0, 68, 58
1, 641964, Control_c, 0, 64, 99
1, 641979, Control_c, 0, 64, 106
1, 641980, Note_off_c, 0, 65, 59
1, 641994, Control_c, 0, 64, 111
1, 641998, Note_off_c, 0, 59, 57
1, 641999, Note_off_c, 0, 69, 62
1, 642009, Control_c, 0, 64, 115
1, 642024, Control_c, 0, 64, 119
1, 642038, Control_c, 0, 64, 125
1, 642054, Control_c, 0, 64, 127
1, 642113, Control_c, 0, 64, 125
1, 642128, Control_c, 0, 64, 112
1, 642143, Control_c, 0, 64, 91
1, 642147, Note_on_c, 0, 69, 62
1, 642158, Note_on_c, 0, 60, 57
1, 642158, Control_c, 0, 64, 73
1, 642163, Note_on_c, 0, 64, 56
1, 642165, Note_on_c, 0, 48, 58
1, 642172, Control_c, 0, 64, 58
1, 642187, Control_c, 0, 64, 42
1, 642202, Control_c, 0, 64, 31
1, 642232, Control_c, 0, 64, 36
1, 642246, Control_c, 0, 64, 47
1, 642269, Control_c, 0, 64, 57
1, 642284, Control_c, 0, 64, 63
1, 642299, Control_c, 0, 64, 67
1, 642314, Control_c, 0, 64, 71
1, 642314, Note_off_c, 0, 48, 59
1, 642317, Note_off_c, 0, 64, 53
1, 642328, Control_c, 0, 64, 75
1, 642343, Control_c, 0, 64, 79
1, 642358, Control_c, 0, 64, 83
1, 642367, Note_off_c, 0, 60, 59
1, 642372, Control_c, 0, 64, 86
1, 642376, Note_on_c, 0, 76, 66
1, 642388, Control_c, 0, 64, 89
1, 642403, Control_c, 0, 64, 92
1, 642412, Note_off_c, 0, 69, 60
1, 642418, Control_c, 0, 64, 95
1, 642433, Control_c, 0, 64, 97
1, 642462, Control_c, 0, 64, 99
1, 642467, Note_off_c, 0, 76, 56
1, 642551, Control_c, 0, 64, 97
1, 642566, Control_c, 0, 64, 84
1, 642581, Control_c, 0, 64, 68
1, 642595, Control_c, 0, 64, 51
1, 642602, Note_on_c, 0, 76, 60
1, 642610, Control_c, 0, 64, 32
1, 642614, Note_on_c, 0, 62, 43
1, 642616, Note_on_c, 0, 69, 51
1, 642625, Control_c, 0, 64, 28
1, 642629, Note_on_c, 0, 50, 37
1, 642640, Control_c, 0, 64, 36
1, 642655, Control_c, 0, 64, 53
1, 642669, Control_c, 0, 64, 62
1, 642684, Control_c, 0, 64, 67
1, 642697, Note_off_c, 0, 62, 60
1, 642699, Control_c, 0, 64, 71
1, 642705, Note_off_c, 0, 50, 58
1, 642714, Control_c, 0, 64, 75
1, 642729, Control_c, 0, 64, 78
1, 642743, Control_c, 0, 64, 81
1, 642758, Control_c, 0, 64, 83
1, 642773, Control_c, 0, 64, 85
1, 642788, Control_c, 0, 64, 87
1, 642803, Control_c, 0, 64, 89
1, 642818, Control_c, 0, 64, 91
1, 642826, Note_on_c, 0, 77, 64
1, 642833, Control_c, 0, 64, 93
1, 642848, Control_c, 0, 64, 94
1, 642855, Note_on_c, 0, 48, 51
1, 642858, Note_on_c, 0, 60, 42
1, 642862, Note_off_c, 0, 76, 64
1, 642862, Control_c, 0, 64, 95
1, 642892, Control_c, 0, 64, 97
1, 642898, Note_off_c, 0, 48, 57
1, 642910, Note_off_c, 0, 77, 59
1, 642916, Note_off_c, 0, 60, 60
1, 643136, Control_c, 0, 64, 93
1, 643151, Control_c, 0, 64, 82
1, 643166, Control_c, 0, 64, 67
1, 643170, Note_on_c, 0, 77, 51
1, 643181, Control_c, 0, 64, 54
1, 643197, Control_c, 0, 64, 43
1, 643197, Note_on_c, 0, 64, 41
1, 643206, Note_on_c, 0, 52, 32
1, 643211, Control_c, 0, 64, 38
1, 643226, Control_c, 0, 64, 39
1, 643241, Control_c, 0, 64, 43
1, 643256, Control_c, 0, 64, 50
1, 643271, Control_c, 0, 64, 57
1, 643286, Control_c, 0, 64, 62
1, 643300, Control_c, 0, 64, 66
1, 643315, Control_c, 0, 64, 71
1, 643330, Control_c, 0, 64, 75
1, 643345, Control_c, 0, 64, 78
1, 643360, Control_c, 0, 64, 81
1, 643374, Control_c, 0, 64, 83
1, 643389, Control_c, 0, 64, 86
1, 643391, Note_off_c, 0, 64, 60
1, 643404, Control_c, 0, 64, 88
1, 643418, Control_c, 0, 64, 90
1, 643433, Control_c, 0, 64, 91
1, 643448, Control_c, 0, 64, 92
1, 643463, Control_c, 0, 64, 94
1, 643478, Control_c, 0, 64, 95
1, 643492, Control_c, 0, 64, 95
1, 643493, Note_off_c, 0, 52, 39
1, 643498, Note_on_c, 0, 74, 52
1, 643522, Control_c, 0, 64, 97
1, 643523, Note_off_c, 0, 77, 45
1, 643545, Note_off_c, 0, 69, 36
1, 643566, Control_c, 0, 64, 99
1, 643611, Control_c, 0, 64, 102
1, 643796, Control_c, 0, 67, 118
1, 643797, Note_off_c, 0, 74, 34
1, 643807, Note_on_c, 0, 52, 56
1, 643807, Note_on_c, 0, 72, 46
1, 643811, Control_c, 0, 64, 95
1, 643811, Control_c, 0, 67, 109
1, 643814, Note_on_c, 0, 40, 50
1, 643823, Note_on_c, 0, 68, 41
1, 643826, Control_c, 0, 64, 82
1, 643826, Control_c, 0, 67, 100
1, 643840, Control_c, 0, 64, 67
1, 643840, Control_c, 0, 67, 91
1, 643855, Control_c, 0, 64, 54
1, 643855, Control_c, 0, 67, 82
1, 643870, Control_c, 0, 64, 46
1, 643870, Control_c, 0, 67, 73
1, 643885, Control_c, 0, 64, 48
1, 643885, Control_c, 0, 67, 64
1, 643900, Control_c, 0, 64, 55
1, 643900, Control_c, 0, 67, 53
1, 643915, Control_c, 0, 64, 61
1, 643915, Control_c, 0, 67, 37
1, 643930, Control_c, 0, 64, 66
1, 643930, Control_c, 0, 67, 0
1, 643944, Control_c, 0, 64, 71
1, 643959, Control_c, 0, 64, 78
1, 643974, Control_c, 0, 64, 84
1, 643989, Control_c, 0, 64, 90
1, 644004, Control_c, 0, 64, 95
1, 644019, Control_c, 0, 64, 101
1, 644034, Control_c, 0, 64, 108
1, 644049, Control_c, 0, 64, 122
1, 644064, Control_c, 0, 64, 127
1, 644090, Note_on_c, 0, 71, 53
1, 644094, Note_off_c, 0, 52, 53
1, 644096, Note_off_c, 0, 40, 37
1, 644180, Note_off_c, 0, 72, 30
1, 644189, Note_off_c, 0, 68, 36
1, 644221, Note_off_c, 0, 71, 55
1, 644331, Note_on_c, 0, 52, 64
1, 644339, Note_on_c, 0, 40, 55
1, 644389, Control_c, 0, 64, 86
1, 644404, Control_c, 0, 64, 70
1, 644419, Control_c, 0, 64, 61
1, 644434, Control_c, 0, 64, 57
1, 644449, Control_c, 0, 64, 58
1, 644463, Control_c, 0, 64, 62
1, 644478, Control_c, 0, 64, 66
1, 644493, Control_c, 0, 64, 73
1, 644515, Control_c, 0, 64, 82
1, 644530, Control_c, 0, 64, 90
1, 644545, Control_c, 0, 64, 97
1, 644559, Note_off_c, 0, 40, 56
1, 644560, Control_c, 0, 64, 105
1, 644574, Control_c, 0, 64, 118
1, 644589, Control_c, 0, 64, 127
1, 644590, Note_off_c, 0, 52, 56
1, 644797, Note_on_c, 0, 69, 61
1, 644808, Note_on_c, 0, 53, 59
1, 644809, Note_on_c, 0, 60, 53
1, 644821, Note_on_c, 0, 41, 50
1, 644842, Control_c, 0, 64, 99
1, 644857, Control_c, 0, 64, 76
1, 644872, Control_c, 0, 64, 61
1, 644887, Control_c, 0, 64, 47
1, 644902, Control_c, 0, 64, 42
1, 644917, Control_c, 0, 64, 44
1, 644931, Control_c, 0, 64, 52
1, 644946, Control_c, 0, 64, 60
1, 644961, Control_c, 0, 64, 65
1, 644976, Control_c, 0, 64, 71
1, 644990, Control_c, 0, 64, 78
1, 645005, Control_c, 0, 64, 86
1, 645020, Control_c, 0, 64, 93
1, 645035, Control_c, 0, 64, 100
1, 645049, Note_off_c, 0, 41, 59
1, 645049, Control_c, 0, 64, 108
1, 645055, Note_off_c, 0, 53, 54
1, 645060, Note_off_c, 0, 69, 51
1, 645063, Control_c, 0, 64, 122
1, 645078, Control_c, 0, 64, 127
1, 645119, Note_off_c, 0, 60, 49
1, 645251, Note_on_c, 0, 60, 54
1, 645262, Note_on_c, 0, 69, 62
1, 645483, Note_off_c, 0, 60, 33
1, 645497, Note_off_c, 0, 69, 58
1, 645698, Note_on_c, 0, 70, 65
1, 645706, Note_on_c, 0, 54, 65
1, 645715, Note_on_c, 0, 42, 60
1, 645718, Note_on_c, 0, 64, 49
1, 645724, Control_c, 0, 64, 107
1, 645738, Control_c, 0, 64, 81
1, 645753, Control_c, 0, 64, 65
1, 645768, Control_c, 0, 64, 52
1, 645783, Control_c, 0, 64, 44
1, 645798, Control_c, 0, 64, 45
1, 645812, Control_c, 0, 64, 51
1, 645827, Control_c, 0, 64, 59
1, 645842, Control_c, 0, 64, 63
1, 645857, Control_c, 0, 64, 69
1, 645872, Control_c, 0, 64, 77
1, 645886, Control_c, 0, 64, 88
1, 645901, Control_c, 0, 64, 98
1, 645916, Control_c, 0, 64, 111
1, 645930, Control_c, 0, 64, 127
1, 645946, Note_off_c, 0, 42, 50
1, 645951, Note_off_c, 0, 64, 53
1, 645955, Note_off_c, 0, 54, 53
1, 645975, Note_off_c, 0, 70, 47
1, 646112, Note_on_c, 0, 54, 72
1, 646121, Note_on_c, 0, 42, 66
1, 646265, Note_off_c, 0, 42, 58
1, 646306, Note_off_c, 0, 54, 53
1, 646520, Note_on_c, 0, 71, 82
1, 646528, Note_on_c, 0, 55, 78
1, 646532, Note_on_c, 0, 62, 70
1, 646535, Note_on_c, 0, 43, 69
1, 646576, Control_c, 0, 64, 84
1, 646591, Control_c, 0, 64, 64
1, 646606, Control_c, 0, 64, 46
1, 646621, Control_c, 0, 64, 30
1, 646635, Control_c, 0, 64, 0
1, 646650, Control_c, 0, 64, 27
1, 646665, Control_c, 0, 64, 36
1, 646680, Control_c, 0, 64, 49
1, 646695, Control_c, 0, 64, 60
1, 646709, Control_c, 0, 64, 67
1, 646724, Control_c, 0, 64, 74
1, 646739, Control_c, 0, 64, 81
1, 646761, Control_c, 0, 64, 88
1, 646776, Control_c, 0, 64, 97
1, 646791, Note_off_c, 0, 71, 52
1, 646791, Control_c, 0, 64, 108
1, 646806, Control_c, 0, 64, 127
1, 646809, Note_off_c, 0, 55, 59
1, 646813, Note_off_c, 0, 43, 59
1, 646833, Note_off_c, 0, 62, 58
1, 646933, Note_on_c, 0, 71, 85
1, 646950, Note_on_c, 0, 62, 67
1, 647299, Note_off_c, 0, 62, 52
1, 647340, Note_on_c, 0, 57, 66
1, 647340, Control_c, 0, 64, 109
1, 647346, Note_on_c, 0, 73, 73
1, 647351, Note_on_c, 0, 45, 61
1, 647355, Control_c, 0, 64, 77
1, 647357, Note_on_c, 0, 67, 53
1, 647370, Control_c, 0, 64, 58
1, 647376, Note_off_c, 0, 71, 60
1, 647384, Control_c, 0, 64, 35
1, 647399, Control_c, 0, 64, 0
1, 647429, Control_c, 0, 64, 39
1, 647444, Control_c, 0, 64, 53
1, 647458, Control_c, 0, 64, 64
1, 647473, Control_c, 0, 64, 70
1, 647488, Control_c, 0, 64, 77
1, 647510, Control_c, 0, 64, 85
1, 647525, Control_c, 0, 64, 93
1, 647540, Control_c, 0, 64, 105
1, 647546, Note_off_c, 0, 67, 56
1, 647555, Control_c, 0, 64, 127
1, 647561, Note_off_c, 0, 45, 55
1, 647576, Note_off_c, 0, 73, 54
1, 647579, Note_off_c, 0, 57, 60
1, 647745, Note_on_c, 0, 57, 84
1, 647752, Note_on_c, 0, 45, 74
1, 647883, Note_off_c, 0, 45, 61
1, 647886, Note_off_c, 0, 57, 62
1, 647919, Note_on_c, 0, 73, 86
1, 648023, Note_off_c, 0, 73, 60
1, 648121, Note_on_c, 0, 73, 88
1, 648130, Note_on_c, 0, 58, 87
1, 648130, Note_on_c, 0, 67, 76
1, 648139, Note_on_c, 0, 46, 74
1, 648148, Control_c, 0, 64, 91
1, 648163, Control_c, 0, 64, 64
1, 648178, Control_c, 0, 64, 45
1, 648193, Control_c, 0, 64, 29
1, 648222, Control_c, 0, 64, 39
1, 648237, Control_c, 0, 64, 54
1, 648259, Control_c, 0, 64, 64
1, 648274, Control_c, 0, 64, 73
1, 648288, Control_c, 0, 64, 83
1, 648303, Control_c, 0, 64, 92
1, 648306, Note_on_c, 0, 74, 95
1, 648318, Control_c, 0, 64, 102
1, 648324, Note_off_c, 0, 73, 62
1, 648333, Control_c, 0, 64, 113
1, 648343, Note_off_c, 0, 46, 58
1, 648346, Note_off_c, 0, 58, 60
1, 648348, Control_c, 0, 64, 127
1, 648374, Note_off_c, 0, 74, 59
1, 648479, Note_on_c, 0, 74, 87
1, 648487, Note_on_c, 0, 59, 84
1, 648494, Note_on_c, 0, 47, 75
1, 648496, Control_c, 0, 64, 89
1, 648511, Control_c, 0, 64, 66
1, 648526, Control_c, 0, 64, 46
1, 648540, Control_c, 0, 64, 27
1, 648555, Control_c, 0, 64, 32
1, 648570, Control_c, 0, 64, 49
1, 648585, Control_c, 0, 64, 63
1, 648600, Control_c, 0, 64, 70
1, 648614, Control_c, 0, 64, 79
1, 648629, Control_c, 0, 64, 90
1, 648644, Control_c, 0, 64, 101
1, 648646, Note_off_c, 0, 47, 62
1, 648649, Note_on_c, 0, 70, 83
1, 648649, Note_off_c, 0, 59, 62
1, 648659, Control_c, 0, 64, 127
1, 648702, Note_off_c, 0, 74, 56
1, 648705, Note_off_c, 0, 67, 60
1, 648721, Note_off_c, 0, 70, 62
1, 648823, Note_on_c, 0, 70, 87
1, 648826, Note_on_c, 0, 61, 90
1, 648827, Note_on_c, 0, 67, 72
1, 648830, Note_on_c, 0, 49, 75
1, 648852, Control_c, 0, 64, 111
1, 648867, Control_c, 0, 64, 77
1, 648882, Control_c, 0, 64, 55
1, 648897, Control_c, 0, 64, 34
1, 648911, Control_c, 0, 64, 29
1, 648926, Poly_aftertouch_c, 0, 48, 127
1, 648926, Control_c, 0, 64, 38
1, 648941, Control_c, 0, 64, 54
1, 648953, Poly_aftertouch_c, 0, 48, 0
1, 648956, Control_c, 0, 64, 64
1, 648971, Control_c, 0, 64, 71
1, 648985, Control_c, 0, 64, 79
1, 648987, Note_on_c, 0, 71, 84
1, 649008, Control_c, 0, 64, 84
1, 649022, Note_off_c, 0, 70, 63
1, 649023, Control_c, 0, 64, 89
1, 649026, Note_off_c, 0, 67, 64
1, 649037, Control_c, 0, 64, 96
1, 649051, Note_off_c, 0, 49, 57
1, 649052, Control_c, 0, 64, 102
1, 649057, Note_off_c, 0, 71, 61
1, 649061, Note_off_c, 0, 61, 60
1, 649067, Control_c, 0, 64, 106
1, 649082, Control_c, 0, 64, 111
1, 649097, Control_c, 0, 64, 114
1, 649111, Control_c, 0, 64, 117
1, 649141, Control_c, 0, 64, 119
1, 649175, Note_on_c, 0, 71, 89
1, 649190, Note_on_c, 0, 66, 76
1, 649194, Note_on_c, 0, 62, 79
1, 649200, Control_c, 0, 64, 115
1, 649203, Note_on_c, 0, 50, 70
1, 649215, Control_c, 0, 64, 95
1, 649230, Control_c, 0, 64, 74
1, 649245, Control_c, 0, 64, 56
1, 649260, Control_c, 0, 64, 31
1, 649275, Control_c, 0, 64, 0
1, 649304, Control_c, 0, 64, 44
1, 649319, Control_c, 0, 64, 58
1, 649334, Control_c, 0, 64, 65
1, 649349, Control_c, 0, 64, 71
1, 649363, Control_c, 0, 64, 77
1, 649378, Control_c, 0, 64, 83
1, 649387, Note_on_c, 0, 78, 91
1, 649393, Control_c, 0, 64, 95
1, 649394, Note_off_c, 0, 50, 59
1, 649408, Control_c, 0, 64, 107
1, 649423, Note_off_c, 0, 71, 61
1, 649423, Control_c, 0, 64, 127
1, 649430, Note_off_c, 0, 66, 63
1, 649437, Note_off_c, 0, 62, 58
1, 649513, Note_off_c, 0, 78, 58
1, 649646, Control_c, 0, 64, 114
1, 649647, Note_on_c, 0, 78, 84
1, 649660, Control_c, 0, 64, 80
1, 649663, Note_on_c, 0, 71, 72
1, 649674, Note_on_c, 0, 64, 58
1, 649675, Control_c, 0, 64, 62
1, 649681, Note_on_c, 0, 52, 54
1, 649690, Control_c, 0, 64, 46
1, 649705, Control_c, 0, 64, 49
1, 649720, Control_c, 0, 64, 57
1, 649734, Control_c, 0, 64, 63
1, 649757, Control_c, 0, 64, 70
1, 649772, Control_c, 0, 64, 80
1, 649786, Control_c, 0, 64, 91
1, 649798, Note_off_c, 0, 64, 62
1, 649801, Control_c, 0, 64, 102
1, 649808, Note_off_c, 0, 52, 61
1, 649816, Control_c, 0, 64, 114
1, 649831, Control_c, 0, 64, 127
1, 649893, Note_on_c, 0, 79, 84
1, 649938, Note_on_c, 0, 50, 62
1, 649939, Note_on_c, 0, 62, 61
1, 649942, Note_off_c, 0, 78, 58
1, 650005, Note_off_c, 0, 50, 62
1, 650009, Note_off_c, 0, 62, 61
1, 650020, Note_off_c, 0, 79, 52
1, 650241, Note_on_c, 0, 79, 64
1, 650246, Control_c, 0, 64, 115
1, 650260, Note_on_c, 0, 66, 63
1, 650260, Control_c, 0, 64, 85
1, 650275, Control_c, 0, 64, 69
1, 650282, Note_on_c, 0, 54, 49
1, 650290, Control_c, 0, 64, 58
1, 650304, Control_c, 0, 64, 54
1, 650319, Control_c, 0, 64, 58
1, 650334, Control_c, 0, 64, 65
1, 650349, Control_c, 0, 64, 73
1, 650364, Control_c, 0, 64, 83
1, 650380, Control_c, 0, 64, 94
1, 650395, Control_c, 0, 64, 106
1, 650409, Control_c, 0, 64, 127
1, 650434, Note_off_c, 0, 66, 63
1, 650512, Note_off_c, 0, 54, 60
1, 650552, Note_on_c, 0, 76, 73
1, 650589, Note_off_c, 0, 79, 55
1, 650599, Note_off_c, 0, 71, 49
1, 650776, Note_on_c, 0, 74, 77
1, 650779, Note_on_c, 0, 54, 82
1, 650787, Note_on_c, 0, 70, 63
1, 650793, Note_on_c, 0, 42, 68
1, 650828, Note_off_c, 0, 76, 57
1, 650992, Note_on_c, 0, 73, 86
1, 651010, Note_off_c, 0, 70, 61
1, 651014, Note_off_c, 0, 54, 56
1, 651014, Note_off_c, 0, 74, 63
1, 651022, Note_off_c, 0, 42, 59
1, 651084, Note_off_c, 0, 73, 61
1, 651184, Note_on_c, 0, 54, 95
1, 651191, Note_on_c, 0, 42, 80
1, 651232, Control_c, 0, 64, 96
1, 651254, Control_c, 0, 64, 70
1, 651269, Control_c, 0, 64, 55
1, 651284, Control_c, 0, 64, 50
1, 651299, Control_c, 0, 64, 55
1, 651314, Control_c, 0, 64, 62
1, 651328, Control_c, 0, 64, 71
1, 651343, Control_c, 0, 64, 86
1, 651358, Control_c, 0, 64, 127
1, 651405, Note_off_c, 0, 42, 58
1, 651415, Note_off_c, 0, 54, 56
1, 651570, Note_on_c, 0, 74, 89
1, 651571, Note_on_c, 0, 55, 91
1, 651573, Note_on_c, 0, 62, 87
1, 651579, Note_on_c, 0, 43, 79
1, 651580, Control_c, 0, 64, 94
1, 651582, Note_on_c, 0, 71, 77
1, 651595, Control_c, 0, 64, 67
1, 651610, Control_c, 0, 64, 49
1, 651624, Control_c, 0, 64, 32
1, 651639, Control_c, 0, 64, 30
1, 651654, Control_c, 0, 64, 39
1, 651669, Control_c, 0, 64, 54
1, 651683, Control_c, 0, 64, 66
1, 651698, Control_c, 0, 64, 80
1, 651713, Control_c, 0, 64, 108
1, 651728, Control_c, 0, 64, 127
1, 651740, Note_off_c, 0, 55, 59
1, 651760, Note_off_c, 0, 43, 60
1, 651806, Note_off_c, 0, 74, 59
1, 651807, Note_off_c, 0, 71, 58
1, 651811, Note_off_c, 0, 62, 61
1, 651972, Note_on_c, 0, 74, 97
1, 651977, Note_on_c, 0, 62, 91
1, 651978, Note_on_c, 0, 71, 84
1, 652106, Note_off_c, 0, 74, 58
1, 652137, Note_off_c, 0, 62, 60
1, 652139, Note_off_c, 0, 71, 59
1, 652359, Control_c, 0, 64, 112
1, 652364, Note_on_c, 0, 73, 90
1, 652366, Note_on_c, 0, 52, 96
1, 652367, Note_on_c, 0, 61, 88
1, 652369, Note_on_c, 0, 70, 77
1, 652371, Note_on_c, 0, 40, 83
1, 652373, Control_c, 0, 64, 69
1, 652388, Control_c, 0, 64, 39
1, 652403, Control_c, 0, 64, 0
1, 652433, Control_c, 0, 64, 35
1, 652447, Control_c, 0, 64, 57
1, 652462, Control_c, 0, 64, 71
1, 652477, Control_c, 0, 64, 85
1, 652492, Control_c, 0, 64, 109
1, 652506, Control_c, 0, 64, 127
1, 652530, Note_off_c, 0, 73, 55
1, 652533, Note_off_c, 0, 61, 62
1, 652559, Note_off_c, 0, 70, 56
1, 652561, Note_off_c, 0, 40, 57
1, 652563, Note_off_c, 0, 52, 57
1, 652760, Note_on_c, 0, 52, 98
1, 652765, Note_on_c, 0, 40, 87
1, 652782, Control_c, 0, 64, 88
1, 652796, Control_c, 0, 64, 64
1, 652811, Control_c, 0, 64, 44
1, 652826, Control_c, 0, 64, 41
1, 652841, Control_c, 0, 64, 53
1, 652856, Control_c, 0, 64, 64
1, 652870, Control_c, 0, 64, 78
1, 652885, Control_c, 0, 64, 99
1, 652900, Control_c, 0, 64, 127
1, 652959, Note_off_c, 0, 40, 56
1, 652995, Note_off_c, 0, 52, 56
1, 653149, Note_on_c, 0, 71, 94
1, 653150, Note_on_c, 0, 59, 92
1, 653151, Note_on_c, 0, 62, 81
1, 653154, Note_on_c, 0, 53, 94
1, 653157, Note_on_c, 0, 41, 86
1, 653182, Control_c, 0, 64, 80
1, 653196, Control_c, 0, 64, 53
1, 653211, Control_c, 0, 64, 0
1, 653270, Control_c, 0, 64, 49
1, 653285, Control_c, 0, 64, 63
1, 653300, Control_c, 0, 64, 72
1, 653315, Control_c, 0, 64, 80
1, 653329, Control_c, 0, 64, 87
1, 653344, Control_c, 0, 64, 98
1, 653359, Control_c, 0, 64, 125
1, 653374, Control_c, 0, 64, 127
1, 653379, Note_off_c, 0, 53, 57
1, 653380, Note_off_c, 0, 41, 62
1, 653382, Note_off_c, 0, 62, 58
1, 653392, Note_off_c, 0, 71, 57
1, 653400, Note_off_c, 0, 59, 57
1, 653528, Note_on_c, 0, 71, 93
1, 653531, Note_on_c, 0, 59, 91
1, 653532, Note_on_c, 0, 62, 81
1, 653674, Note_off_c, 0, 71, 49
1, 653676, Note_off_c, 0, 62, 58
1, 653694, Note_off_c, 0, 59, 60
1, 653903, Note_on_c, 0, 70, 91
1, 653904, Note_on_c, 0, 58, 94
1, 653906, Note_on_c, 0, 61, 82
1, 653909, Note_on_c, 0, 54, 95
1, 653913, Note_on_c, 0, 42, 83
1, 653916, Control_c, 0, 64, 77
1, 653931, Control_c, 0, 64, 51
1, 653945, Control_c, 0, 64, 0
1, 653975, Control_c, 0, 64, 29
1, 653990, Control_c, 0, 64, 56
1, 654005, Control_c, 0, 64, 68
1, 654019, Control_c, 0, 64, 81
1, 654034, Control_c, 0, 64, 97
1, 654049, Control_c, 0, 64, 115
1, 654064, Control_c, 0, 64, 127
1, 654071, Note_off_c, 0, 58, 59
1, 654078, Note_off_c, 0, 70, 56
1, 654122, Note_off_c, 0, 61, 53
1, 654126, Note_off_c, 0, 54, 55
1, 654136, Note_off_c, 0, 42, 38
1, 654297, Note_on_c, 0, 54, 100
1, 654303, Note_on_c, 0, 42, 84
1, 654308, Control_c, 0, 64, 96
1, 654323, Control_c, 0, 64, 67
1, 654338, Control_c, 0, 64, 45
1, 654352, Control_c, 0, 64, 0
1, 654383, Control_c, 0, 64, 36
1, 654398, Control_c, 0, 64, 58
1, 654413, Control_c, 0, 64, 68
1, 654428, Control_c, 0, 64, 78
1, 654443, Control_c, 0, 64, 88
1, 654457, Control_c, 0, 64, 95
1, 654472, Control_c, 0, 64, 101
1, 654487, Control_c, 0, 64, 107
1, 654501, Control_c, 0, 64, 125
1, 654516, Control_c, 0, 64, 127
1, 654530, Note_off_c, 0, 42, 60
1, 654563, Note_off_c, 0, 54, 53
1, 654742, Note_on_c, 0, 74, 97
1, 654747, Note_on_c, 0, 62, 89
1, 654749, Note_on_c, 0, 71, 79
1, 654756, Note_on_c, 0, 55, 79
1, 654760, Note_on_c, 0, 43, 71
1, 654783, Control_c, 0, 64, 82
1, 654798, Control_c, 0, 64, 53
1, 654813, Control_c, 0, 64, 0
1, 654888, Control_c, 0, 64, 42
1, 654902, Control_c, 0, 64, 60
1, 654917, Control_c, 0, 64, 68
1, 654932, Control_c, 0, 64, 77
1, 654947, Control_c, 0, 64, 84
1, 654962, Control_c, 0, 64, 90
1, 654976, Control_c, 0, 64, 97
1, 654977, Note_off_c, 0, 55, 57
1, 654982, Note_off_c, 0, 43, 58
1, 654998, Control_c, 0, 64, 108
1, 655013, Control_c, 0, 64, 127
1, 655019, Note_off_c, 0, 74, 55
1, 655026, Note_off_c, 0, 62, 59
1, 655031, Note_off_c, 0, 71, 59
1, 655142, Note_on_c, 0, 74, 92
1, 655150, Note_on_c, 0, 62, 88
1, 655150, Note_on_c, 0, 71, 82
1, 655302, Note_off_c, 0, 74, 59
1, 655310, Note_off_c, 0, 62, 61
1, 655395, Note_off_c, 0, 71, 53
1, 655520, Note_on_c, 0, 70, 82
1, 655520, Note_on_c, 0, 73, 88
1, 655523, Note_on_c, 0, 61, 83
1, 655523, Note_on_c, 0, 52, 88
1, 655529, Note_on_c, 0, 40, 77
1, 655532, Control_c, 0, 64, 82
1, 655547, Control_c, 0, 64, 58
1, 655562, Control_c, 0, 64, 0
1, 655606, Control_c, 0, 64, 35
1, 655621, Control_c, 0, 64, 56
1, 655636, Control_c, 0, 64, 65
1, 655651, Control_c, 0, 64, 73
1, 655666, Control_c, 0, 64, 80
1, 655681, Control_c, 0, 64, 85
1, 655695, Control_c, 0, 64, 92
1, 655710, Control_c, 0, 64, 100
1, 655715, Note_off_c, 0, 40, 57
1, 655725, Note_off_c, 0, 73, 59
1, 655725, Control_c, 0, 64, 114
1, 655737, Note_off_c, 0, 52, 54
1, 655747, Control_c, 0, 64, 127
1, 655755, Note_off_c, 0, 61, 58
1, 655791, Note_off_c, 0, 70, 54
1, 655904, Note_on_c, 0, 52, 85
1, 655912, Note_on_c, 0, 40, 73
1, 655940, Control_c, 0, 64, 81
1, 655955, Control_c, 0, 64, 60
1, 655970, Control_c, 0, 64, 34
1, 655985, Control_c, 0, 64, 0
1, 656015, Control_c, 0, 64, 40
1, 656029, Control_c, 0, 64, 58
1, 656044, Control_c, 0, 64, 65
1, 656059, Control_c, 0, 64, 70
1, 656074, Control_c, 0, 64, 73
1, 656089, Note_off_c, 0, 40, 54
1, 656089, Control_c, 0, 64, 76
1, 656104, Control_c, 0, 64, 80
1, 656119, Control_c, 0, 64, 84
1, 656132, Note_off_c, 0, 52, 56
1, 656134, Control_c, 0, 64, 88
1, 656148, Control_c, 0, 64, 92
1, 656163, Control_c, 0, 64, 95
1, 656178, Control_c, 0, 64, 99
1, 656193, Control_c, 0, 64, 103
1, 656208, Control_c, 0, 64, 106
1, 656222, Control_c, 0, 64, 109
1, 656237, Control_c, 0, 64, 111
1, 656252, Control_c, 0, 64, 114
1, 656266, Control_c, 0, 64, 116
1, 656352, Note_on_c, 0, 71, 78
1, 656373, Note_on_c, 0, 53, 55
1, 656375, Note_on_c, 0, 59, 59
1, 656375, Note_on_c, 0, 62, 60
1, 656382, Note_on_c, 0, 41, 48
1, 656414, Control_c, 0, 64, 104
1, 656429, Control_c, 0, 64, 81
1, 656444, Control_c, 0, 64, 63
1, 656459, Control_c, 0, 64, 40
1, 656473, Control_c, 0, 64, 0
1, 656525, Control_c, 0, 64, 28
1, 656540, Control_c, 0, 64, 43
1, 656554, Control_c, 0, 64, 56
1, 656569, Control_c, 0, 64, 64
1, 656584, Control_c, 0, 64, 69
1, 656599, Control_c, 0, 64, 74
1, 656614, Control_c, 0, 64, 78
1, 656621, Note_off_c, 0, 62, 56
1, 656629, Control_c, 0, 64, 81
1, 656643, Control_c, 0, 64, 85
1, 656648, Note_off_c, 0, 59, 57
1, 656656, Note_off_c, 0, 71, 52
1, 656658, Control_c, 0, 64, 89
1, 656673, Control_c, 0, 64, 93
1, 656688, Control_c, 0, 64, 96
1, 656703, Control_c, 0, 64, 99
1, 656733, Control_c, 0, 64, 101
1, 656763, Control_c, 0, 64, 103
1, 656801, Note_on_c, 0, 71, 73
1, 656819, Note_on_c, 0, 59, 48
1, 656828, Note_on_c, 0, 62, 50
1, 656837, Control_c, 0, 64, 96
1, 656852, Control_c, 0, 64, 78
1, 656867, Control_c, 0, 64, 63
1, 656882, Control_c, 0, 64, 44
1, 656896, Control_c, 0, 64, 0
1, 656941, Control_c, 0, 64, 38
1, 656956, Control_c, 0, 64, 51
1, 656970, Control_c, 0, 64, 60
1, 656977, Note_off_c, 0, 41, 61
1, 656985, Control_c, 0, 64, 64
1, 656987, Note_off_c, 0, 53, 60
1, 657000, Control_c, 0, 64, 68
1, 657015, Control_c, 0, 64, 72
1, 657030, Control_c, 0, 64, 76
1, 657044, Control_c, 0, 64, 80
1, 657052, Note_off_c, 0, 71, 48
1, 657059, Control_c, 0, 64, 83
1, 657074, Control_c, 0, 64, 88
1, 657079, Note_off_c, 0, 59, 47
1, 657083, Note_off_c, 0, 62, 58
1, 657088, Control_c, 0, 64, 92
1, 657103, Control_c, 0, 64, 96
1, 657118, Control_c, 0, 64, 101
1, 657133, Control_c, 0, 64, 105
1, 657148, Control_c, 0, 64, 112
1, 657162, Control_c, 0, 64, 121
1, 657177, Control_c, 0, 64, 127
1, 657354, Note_on_c, 0, 69, 67
1, 657377, Note_on_c, 0, 54, 41
1, 657382, Note_on_c, 0, 61, 45
1, 657387, Note_on_c, 0, 57, 41
1, 657399, Note_on_c, 0, 42, 39
1, 657407, Control_c, 0, 64, 106
1, 657422, Control_c, 0, 64, 86
1, 657437, Control_c, 0, 64, 70
1, 657437, Control_c, 0, 67, 40
1, 657451, Control_c, 0, 64, 58
1, 657451, Control_c, 0, 67, 50
1, 657466, Control_c, 0, 64, 47
1, 657466, Control_c, 0, 67, 59
1, 657481, Control_c, 0, 64, 46
1, 657481, Control_c, 0, 67, 66
1, 657496, Control_c, 0, 64, 48
1, 657496, Control_c, 0, 67, 72
1, 657511, Control_c, 0, 64, 55
1, 657511, Control_c, 0, 67, 78
1, 657526, Control_c, 0, 64, 60
1, 657526, Control_c, 0, 67, 87
1, 657541, Control_c, 0, 64, 64
1, 657541, Control_c, 0, 67, 96
1, 657556, Control_c, 0, 64, 67
1, 657556, Control_c, 0, 67, 107
1, 657571, Control_c, 0, 64, 73
1, 657571, Control_c, 0, 67, 115
1, 657585, Control_c, 0, 64, 78
1, 657585, Control_c, 0, 67, 120
1, 657588, Note_off_c, 0, 54, 59
1, 657600, Control_c, 0, 64, 82
1, 657600, Control_c, 0, 67, 122
1, 657615, Control_c, 0, 64, 84
1, 657630, Control_c, 0, 64, 87
1, 657645, Control_c, 0, 64, 90
1, 657660, Control_c, 0, 64, 94
1, 657675, Control_c, 0, 64, 97
1, 657690, Control_c, 0, 64, 99
1, 657705, Control_c, 0, 64, 101
1, 657705, Control_c, 0, 67, 124
1, 657707, Note_off_c, 0, 42, 41
1, 657734, Control_c, 0, 64, 104
1, 657749, Control_c, 0, 64, 106
1, 657749, Control_c, 0, 67, 126
1, 657764, Control_c, 0, 64, 110
1, 657779, Control_c, 0, 64, 112
1, 657808, Control_c, 0, 64, 116
1, 657823, Control_c, 0, 64, 121
1, 657838, Control_c, 0, 64, 127
1, 658060, Note_on_c, 0, 47, 36
1, 658075, Note_on_c, 0, 35, 38
1, 658082, Control_c, 0, 64, 114
1, 658097, Control_c, 0, 64, 98
1, 658112, Control_c, 0, 64, 82
1, 658126, Control_c, 0, 64, 68
1, 658141, Control_c, 0, 64, 56
1, 658156, Control_c, 0, 64, 45
1, 658171, Control_c, 0, 64, 40
1, 658186, Control_c, 0, 64, 39
1, 658215, Control_c, 0, 64, 40
1, 658230, Control_c, 0, 64, 42
1, 658244, Control_c, 0, 64, 48
1, 658259, Control_c, 0, 64, 54
1, 658274, Control_c, 0, 64, 61
1, 658289, Control_c, 0, 64, 65
1, 658304, Control_c, 0, 64, 68
1, 658319, Control_c, 0, 64, 72
1, 658334, Control_c, 0, 64, 74
1, 658349, Control_c, 0, 64, 77
1, 658364, Control_c, 0, 64, 80
1, 658379, Control_c, 0, 64, 85
1, 658394, Control_c, 0, 64, 90
1, 658408, Control_c, 0, 64, 94
1, 658423, Control_c, 0, 64, 100
1, 658438, Control_c, 0, 64, 107
1, 658453, Control_c, 0, 64, 121
1, 658459, Note_off_c, 0, 57, 40
1, 658468, Control_c, 0, 64, 127
1, 658479, Note_off_c, 0, 61, 28
1, 658500, Note_off_c, 0, 69, 30
1, 658660, Note_on_c, 0, 69, 82
1, 658685, Note_on_c, 0, 61, 58
1, 658686, Note_on_c, 0, 57, 54
1, 658756, Control_c, 0, 67, 122
1, 658771, Control_c, 0, 67, 108
1, 658786, Control_c, 0, 67, 92
1, 658801, Control_c, 0, 67, 72
1, 658815, Control_c, 0, 67, 50
1, 658830, Control_c, 0, 67, 0
1, 658880, Note_off_c, 0, 35, 35
1, 658966, Note_off_c, 0, 47, 51
1, 659030, Note_off_c, 0, 57, 48
1, 659037, Note_off_c, 0, 61, 57
1, 659049, Note_off_c, 0, 69, 37
1, 659216, Control_c, 0, 67, 34
1, 659231, Control_c, 0, 67, 46
1, 659246, Note_on_c, 0, 69, 83
1, 659246, Control_c, 0, 67, 58
1, 659261, Control_c, 0, 67, 70
1, 659273, Note_on_c, 0, 57, 52
1, 659275, Note_on_c, 0, 61, 56
1, 659276, Control_c, 0, 67, 83
1, 659289, Note_on_c, 0, 50, 44
1, 659290, Control_c, 0, 67, 96
1, 659304, Note_on_c, 0, 38, 45
1, 659305, Control_c, 0, 67, 108
1, 659320, Control_c, 0, 67, 122
1, 659335, Control_c, 0, 64, 106
1, 659335, Control_c, 0, 67, 127
1, 659350, Control_c, 0, 64, 82
1, 659364, Control_c, 0, 64, 66
1, 659379, Control_c, 0, 64, 55
1, 659394, Control_c, 0, 64, 46
1, 659409, Control_c, 0, 64, 44
1, 659438, Control_c, 0, 64, 44
1, 659453, Control_c, 0, 64, 47
1, 659468, Control_c, 0, 64, 52
1, 659490, Control_c, 0, 64, 57
1, 659505, Control_c, 0, 64, 63
1, 659520, Control_c, 0, 64, 66
1, 659535, Control_c, 0, 64, 71
1, 659550, Control_c, 0, 64, 75
1, 659564, Control_c, 0, 64, 80
1, 659579, Control_c, 0, 64, 85
1, 659594, Control_c, 0, 64, 91
1, 659609, Control_c, 0, 64, 99
1, 659624, Control_c, 0, 64, 106
1, 659638, Control_c, 0, 64, 119
1, 659653, Control_c, 0, 64, 127
1, 659666, Note_off_c, 0, 69, 40
1, 659752, Note_off_c, 0, 57, 37
1, 659757, Note_off_c, 0, 61, 30
1, 660085, Note_on_c, 0, 67, 55
1, 660105, Note_on_c, 0, 59, 38
1, 660116, Note_on_c, 0, 55, 33
1, 660173, Control_c, 0, 64, 91
1, 660187, Control_c, 0, 64, 74
1, 660202, Control_c, 0, 64, 62
1, 660217, Control_c, 0, 64, 52
1, 660238, Control_c, 0, 64, 50
1, 660268, Control_c, 0, 64, 50
1, 660283, Control_c, 0, 64, 51
1, 660298, Control_c, 0, 64, 52
1, 660313, Control_c, 0, 64, 56
1, 660328, Control_c, 0, 64, 60
1, 660343, Control_c, 0, 64, 64
1, 660358, Control_c, 0, 64, 69
1, 660373, Control_c, 0, 64, 74
1, 660387, Control_c, 0, 64, 80
1, 660399, Note_off_c, 0, 50, 59
1, 660402, Control_c, 0, 64, 84
1, 660417, Control_c, 0, 64, 90
1, 660431, Control_c, 0, 64, 94
1, 660443, Note_off_c, 0, 38, 40
1, 660446, Control_c, 0, 64, 98
1, 660461, Control_c, 0, 64, 102
1, 660476, Control_c, 0, 64, 106
1, 660491, Control_c, 0, 64, 110
1, 660506, Control_c, 0, 64, 115
1, 660520, Control_c, 0, 64, 122
1, 660535, Control_c, 0, 64, 127
1, 660666, Note_on_c, 0, 49, 52
1, 660683, Control_c, 0, 64, 112
1, 660684, Note_on_c, 0, 37, 48
1, 660698, Control_c, 0, 64, 94
1, 660712, Control_c, 0, 64, 77
1, 660727, Control_c, 0, 64, 61
1, 660742, Control_c, 0, 64, 50
1, 660758, Control_c, 0, 64, 45
1, 660788, Control_c, 0, 64, 47
1, 660803, Control_c, 0, 64, 51
1, 660817, Control_c, 0, 64, 55
1, 660832, Control_c, 0, 64, 60
1, 660847, Control_c, 0, 64, 63
1, 660861, Control_c, 0, 64, 65
1, 660866, Note_off_c, 0, 67, 53
1, 660876, Control_c, 0, 64, 69
1, 660891, Control_c, 0, 64, 73
1, 660906, Control_c, 0, 64, 76
1, 660921, Control_c, 0, 64, 80
1, 660927, Note_off_c, 0, 55, 33
1, 660936, Control_c, 0, 64, 84
1, 660951, Control_c, 0, 64, 89
1, 660966, Control_c, 0, 64, 93
1, 660987, Note_off_c, 0, 59, 31
1, 660988, Control_c, 0, 64, 98
1, 661003, Control_c, 0, 64, 103
1, 661017, Control_c, 0, 64, 109
1, 661032, Control_c, 0, 64, 118
1, 661047, Control_c, 0, 64, 127
1, 661376, Note_on_c, 0, 66, 74
1, 661407, Note_on_c, 0, 57, 50
1, 661410, Note_on_c, 0, 54, 39
1, 661447, Control_c, 0, 64, 118
1, 661461, Control_c, 0, 64, 100
1, 661476, Control_c, 0, 64, 85
1, 661491, Control_c, 0, 64, 71
1, 661506, Control_c, 0, 64, 60
1, 661522, Control_c, 0, 64, 50
1, 661536, Control_c, 0, 64, 45
1, 661551, Control_c, 0, 64, 44
1, 661582, Control_c, 0, 64, 44
1, 661597, Control_c, 0, 64, 45
1, 661612, Control_c, 0, 64, 48
1, 661627, Control_c, 0, 64, 53
1, 661641, Control_c, 0, 64, 59
1, 661656, Control_c, 0, 64, 62
1, 661671, Control_c, 0, 64, 65
1, 661685, Control_c, 0, 64, 68
1, 661700, Control_c, 0, 64, 72
1, 661715, Control_c, 0, 64, 76
1, 661738, Control_c, 0, 64, 79
1, 661753, Control_c, 0, 64, 82
1, 661767, Control_c, 0, 64, 86
1, 661782, Control_c, 0, 64, 90
1, 661797, Control_c, 0, 64, 94
1, 661812, Control_c, 0, 64, 98
1, 661827, Control_c, 0, 64, 102
1, 661830, Note_off_c, 0, 54, 32
1, 661841, Control_c, 0, 64, 105
1, 661856, Control_c, 0, 64, 111
1, 661871, Control_c, 0, 64, 118
1, 661885, Control_c, 0, 64, 127
1, 661961, Note_off_c, 0, 57, 29
1, 662141, Note_on_c, 0, 62, 37
1, 662150, Note_on_c, 0, 59, 39
1, 662226, Control_c, 0, 64, 103
1, 662241, Control_c, 0, 64, 85
1, 662256, Control_c, 0, 64, 69
1, 662270, Control_c, 0, 64, 58
1, 662284, Control_c, 0, 64, 51
1, 662299, Control_c, 0, 64, 48
1, 662329, Control_c, 0, 64, 49
1, 662344, Control_c, 0, 64, 50
1, 662360, Control_c, 0, 64, 52
1, 662375, Control_c, 0, 64, 55
1, 662389, Control_c, 0, 64, 58
1, 662404, Control_c, 0, 64, 61
1, 662419, Control_c, 0, 64, 64
1, 662434, Control_c, 0, 64, 67
1, 662449, Control_c, 0, 64, 71
1, 662463, Control_c, 0, 64, 74
1, 662486, Control_c, 0, 64, 77
1, 662501, Control_c, 0, 64, 79
1, 662515, Control_c, 0, 64, 81
1, 662530, Control_c, 0, 64, 83
1, 662545, Control_c, 0, 64, 86
1, 662560, Control_c, 0, 64, 89
1, 662575, Control_c, 0, 64, 92
1, 662577, Note_off_c, 0, 66, 37
1, 662589, Control_c, 0, 64, 95
1, 662604, Control_c, 0, 64, 97
1, 662619, Control_c, 0, 64, 100
1, 662633, Control_c, 0, 64, 103
1, 662640, Note_off_c, 0, 59, 40
1, 662648, Control_c, 0, 64, 106
1, 662663, Control_c, 0, 64, 109
1, 662678, Control_c, 0, 64, 111
1, 662693, Control_c, 0, 64, 114
1, 662707, Control_c, 0, 64, 118
1, 662722, Control_c, 0, 64, 125
1, 662737, Control_c, 0, 64, 127
1, 662790, Note_off_c, 0, 62, 35
1, 663276, Note_on_c, 0, 65, 35
1, 663294, Control_c, 0, 64, 117
1, 663294, Note_on_c, 0, 56, 31
1, 663309, Control_c, 0, 64, 108
1, 663314, Note_on_c, 0, 61, 29
1, 663324, Control_c, 0, 64, 100
1, 663338, Control_c, 0, 64, 92
1, 663353, Control_c, 0, 64, 82
1, 663368, Control_c, 0, 64, 72
1, 663383, Control_c, 0, 64, 61
1, 663398, Control_c, 0, 64, 52
1, 663412, Control_c, 0, 64, 47
1, 663427, Control_c, 0, 64, 45
1, 663530, Control_c, 0, 64, 46
1, 663545, Control_c, 0, 64, 49
1, 663560, Control_c, 0, 64, 52
1, 663575, Control_c, 0, 64, 55
1, 663590, Control_c, 0, 64, 58
1, 663604, Control_c, 0, 64, 60
1, 663619, Control_c, 0, 64, 61
1, 663634, Control_c, 0, 64, 63
1, 663649, Control_c, 0, 64, 65
1, 663663, Control_c, 0, 64, 67
1, 663678, Control_c, 0, 64, 70
1, 663693, Control_c, 0, 64, 72
1, 663708, Control_c, 0, 64, 74
1, 663723, Control_c, 0, 64, 75
1, 663738, Control_c, 0, 64, 77
1, 663753, Control_c, 0, 64, 78
1, 663768, Control_c, 0, 64, 81
1, 663782, Control_c, 0, 64, 83
1, 663797, Control_c, 0, 64, 85
1, 663812, Control_c, 0, 64, 88
1, 663827, Control_c, 0, 64, 90
1, 663842, Control_c, 0, 64, 93
1, 663856, Control_c, 0, 64, 96
1, 663871, Control_c, 0, 64, 99
1, 663886, Control_c, 0, 64, 103
1, 663901, Control_c, 0, 64, 107
1, 663916, Control_c, 0, 64, 112
1, 663930, Control_c, 0, 64, 117
1, 663946, Control_c, 0, 64, 127
1, 663987, Note_off_c, 0, 65, 40
1, 663991, Note_off_c, 0, 56, 39
1, 664051, Note_off_c, 0, 49, 54
1, 664139, Note_off_c, 0, 61, 40
1, 664212, Note_off_c, 0, 37, 40
1, 664695, Control_c, 0, 64, 118
1, 664710, Control_c, 0, 64, 105
1, 664732, Control_c, 0, 64, 96
1, 664747, Control_c, 0, 64, 87
1, 664763, Control_c, 0, 64, 78
1, 664777, Control_c, 0, 64, 70
1, 664780, Note_on_c, 0, 42, 41
1, 664792, Control_c, 0, 64, 61
1, 664807, Control_c, 0, 64, 51
1, 664808, Note_on_c, 0, 30, 33
1, 664822, Control_c, 0, 64, 43
1, 664836, Control_c, 0, 64, 36
1, 664851, Control_c, 0, 64, 33
1, 664881, Control_c, 0, 64, 34
1, 664896, Control_c, 0, 64, 39
1, 664910, Control_c, 0, 64, 50
1, 664925, Control_c, 0, 64, 59
1, 664940, Control_c, 0, 64, 64
1, 664955, Control_c, 0, 64, 68
1, 664964, Note_off_c, 0, 30, 54
1, 664970, Control_c, 0, 64, 72
1, 664984, Control_c, 0, 64, 74
1, 664989, Note_on_c, 0, 54, 42
1, 664993, Note_off_c, 0, 42, 62
1, 664999, Control_c, 0, 64, 78
1, 665014, Control_c, 0, 64, 82
1, 665029, Control_c, 0, 64, 86
1, 665044, Control_c, 0, 64, 90
1, 665059, Control_c, 0, 64, 95
1, 665073, Control_c, 0, 64, 101
1, 665076, Note_off_c, 0, 54, 62
1, 665088, Control_c, 0, 64, 109
1, 665103, Control_c, 0, 64, 122
1, 665111, Note_on_c, 0, 53, 50
1, 665118, Control_c, 0, 64, 127
1, 665194, Note_off_c, 0, 53, 56
1, 665200, Note_on_c, 0, 54, 60
1, 665288, Note_on_c, 0, 56, 60
1, 665291, Note_off_c, 0, 54, 60
1, 665360, Note_on_c, 0, 57, 66
1, 665368, Note_off_c, 0, 56, 62
1, 665396, Note_off_c, 0, 57, 62
1, 665414, Control_c, 0, 64, 95
1, 665428, Control_c, 0, 64, 73
1, 665443, Control_c, 0, 64, 57
1, 665458, Control_c, 0, 64, 41
1, 665461, Note_on_c, 0, 71, 58
1, 665479, Note_on_c, 0, 62, 48
1, 665481, Control_c, 0, 64, 33
1, 665486, Note_on_c, 0, 57, 66
1, 665496, Control_c, 0, 64, 35
1, 665510, Control_c, 0, 64, 44
1, 665525, Control_c, 0, 64, 54
1, 665540, Control_c, 0, 64, 62
1, 665556, Control_c, 0, 64, 66
1, 665563, Note_off_c, 0, 57, 62
1, 665571, Control_c, 0, 64, 72
1, 665576, Note_on_c, 0, 56, 68
1, 665586, Control_c, 0, 64, 79
1, 665601, Control_c, 0, 64, 86
1, 665614, Note_off_c, 0, 71, 61
1, 665615, Control_c, 0, 64, 96
1, 665630, Control_c, 0, 64, 114
1, 665643, Note_off_c, 0, 62, 61
1, 665645, Control_c, 0, 64, 127
1, 665664, Note_on_c, 0, 57, 72
1, 665666, Note_off_c, 0, 56, 60
1, 665749, Note_on_c, 0, 58, 78
1, 665753, Note_off_c, 0, 57, 64
1, 665837, Note_on_c, 0, 59, 71
1, 665850, Note_off_c, 0, 58, 52
1, 665916, Note_off_c, 0, 59, 62
1, 665923, Note_on_c, 0, 53, 63
1, 665941, Control_c, 0, 64, 95
1, 665956, Control_c, 0, 64, 76
1, 665971, Control_c, 0, 64, 61
1, 665986, Control_c, 0, 64, 43
1, 665995, Note_off_c, 0, 53, 46
1, 666000, Control_c, 0, 64, 0
1, 666033, Note_on_c, 0, 42, 50
1, 666036, Note_on_c, 0, 30, 47
1, 666074, Control_c, 0, 64, 31
1, 666089, Control_c, 0, 64, 43
1, 666104, Control_c, 0, 64, 54
1, 666119, Control_c, 0, 64, 61
1, 666131, Note_on_c, 0, 54, 51
1, 666133, Control_c, 0, 64, 64
1, 666141, Note_off_c, 0, 30, 60
1, 666148, Control_c, 0, 64, 67
1, 666163, Control_c, 0, 64, 69
1, 666169, Note_off_c, 0, 42, 63
1, 666177, Control_c, 0, 64, 74
1, 666192, Control_c, 0, 64, 79
1, 666198, Note_off_c, 0, 54, 63
1, 666207, Control_c, 0, 64, 85
1, 666224, Note_on_c, 0, 53, 68
1, 666230, Control_c, 0, 64, 92
1, 666245, Control_c, 0, 64, 101
1, 666259, Control_c, 0, 64, 112
1, 666274, Control_c, 0, 64, 127
1, 666315, Note_on_c, 0, 54, 73
1, 666330, Note_off_c, 0, 53, 57
1, 666391, Note_off_c, 0, 54, 64
1, 666398, Note_on_c, 0, 57, 72
1, 666474, Note_off_c, 0, 57, 64
1, 666483, Note_on_c, 0, 62, 65
1, 666527, Control_c, 0, 64, 106
1, 666542, Note_off_c, 0, 62, 60
1, 666542, Control_c, 0, 64, 77
1, 666556, Control_c, 0, 64, 61
1, 666571, Control_c, 0, 64, 47
1, 666586, Control_c, 0, 64, 38
1, 666600, Control_c, 0, 64, 34
1, 666611, Note_on_c, 0, 76, 60
1, 666615, Control_c, 0, 64, 35
1, 666621, Note_on_c, 0, 62, 54
1, 666626, Note_on_c, 0, 67, 43
1, 666630, Control_c, 0, 64, 37
1, 666645, Control_c, 0, 64, 44
1, 666660, Control_c, 0, 64, 52
1, 666674, Control_c, 0, 64, 59
1, 666689, Control_c, 0, 64, 64
1, 666704, Control_c, 0, 64, 69
1, 666719, Control_c, 0, 64, 74
1, 666731, Note_off_c, 0, 62, 62
1, 666734, Control_c, 0, 64, 80
1, 666749, Control_c, 0, 64, 89
1, 666752, Note_on_c, 0, 61, 58
1, 666763, Control_c, 0, 64, 98
1, 666766, Note_off_c, 0, 76, 62
1, 666778, Control_c, 0, 64, 111
1, 666793, Control_c, 0, 64, 127
1, 666801, Note_off_c, 0, 67, 60
1, 666820, Note_off_c, 0, 61, 62
1, 666841, Note_on_c, 0, 62, 66
1, 666922, Note_off_c, 0, 62, 60
1, 666922, Note_on_c, 0, 63, 70
1, 667021, Note_on_c, 0, 64, 65
1, 667048, Note_off_c, 0, 63, 46
1, 667081, Note_on_c, 0, 58, 70
1, 667089, Note_off_c, 0, 64, 63
1, 667135, Note_off_c, 0, 58, 58
1, 667141, Control_c, 0, 64, 101
1, 667157, Control_c, 0, 64, 73
1, 667172, Control_c, 0, 64, 58
1, 667184, Note_on_c, 0, 54, 62
1, 667186, Control_c, 0, 64, 43
1, 667192, Note_on_c, 0, 42, 50
1, 667201, Control_c, 0, 64, 37
1, 667216, Control_c, 0, 64, 40
1, 667217, Note_on_c, 0, 50, 50
1, 667230, Control_c, 0, 64, 50
1, 667245, Control_c, 0, 64, 60
1, 667260, Control_c, 0, 64, 67
1, 667275, Control_c, 0, 64, 73
1, 667290, Control_c, 0, 64, 80
1, 667293, Note_on_c, 0, 57, 54
1, 667304, Control_c, 0, 64, 85
1, 667319, Control_c, 0, 64, 91
1, 667334, Control_c, 0, 64, 98
1, 667349, Control_c, 0, 64, 108
1, 667361, Note_off_c, 0, 57, 63
1, 667364, Control_c, 0, 64, 127
1, 667370, Note_off_c, 0, 54, 55
1, 667372, Note_on_c, 0, 56, 71
1, 667389, Note_off_c, 0, 42, 55
1, 667392, Note_off_c, 0, 50, 51
1, 667427, Note_off_c, 0, 56, 63
1, 667472, Note_on_c, 0, 57, 74
1, 667562, Note_on_c, 0, 62, 64
1, 667651, Note_on_c, 0, 66, 75
1, 667657, Note_off_c, 0, 62, 62
1, 667667, Note_on_c, 0, 42, 71
1, 667691, Control_c, 0, 64, 94
1, 667700, Note_off_c, 0, 57, 57
1, 667705, Control_c, 0, 64, 74
1, 667727, Note_on_c, 0, 50, 64
1, 667727, Control_c, 0, 64, 60
1, 667742, Control_c, 0, 64, 49
1, 667756, Note_off_c, 0, 66, 56
1, 667756, Control_c, 0, 64, 48
1, 667763, Note_off_c, 0, 42, 63
1, 667771, Control_c, 0, 64, 54
1, 667786, Control_c, 0, 64, 62
1, 667793, Note_on_c, 0, 56, 86
1, 667801, Control_c, 0, 64, 68
1, 667816, Control_c, 0, 64, 76
1, 667831, Control_c, 0, 64, 85
1, 667846, Control_c, 0, 64, 94
1, 667861, Control_c, 0, 64, 103
1, 667875, Control_c, 0, 64, 127
1, 667887, Note_on_c, 0, 59, 68
1, 667896, Note_off_c, 0, 56, 60
1, 667905, Control_c, 0, 67, 122
1, 667912, Note_off_c, 0, 50, 56
1, 667920, Control_c, 0, 67, 112
1, 667935, Control_c, 0, 67, 104
1, 667950, Control_c, 0, 67, 95
1, 667962, Note_off_c, 0, 59, 63
1, 667965, Control_c, 0, 67, 88
1, 667972, Note_on_c, 0, 58, 71
1, 667980, Control_c, 0, 67, 82
1, 667995, Control_c, 0, 67, 80
1, 668010, Control_c, 0, 67, 77
1, 668025, Control_c, 0, 67, 75
1, 668030, Note_off_c, 0, 58, 63
1, 668039, Control_c, 0, 67, 72
1, 668054, Control_c, 0, 67, 68
1, 668067, Note_on_c, 0, 59, 76
1, 668069, Control_c, 0, 67, 64
1, 668084, Control_c, 0, 67, 60
1, 668099, Control_c, 0, 67, 57
1, 668114, Control_c, 0, 67, 54
1, 668143, Control_c, 0, 67, 54
1, 668176, Note_on_c, 0, 65, 69
1, 668217, Note_off_c, 0, 59, 60
1, 668266, Note_on_c, 0, 68, 76
1, 668266, Note_off_c, 0, 65, 63
1, 668276, Control_c, 0, 64, 85
1, 668287, Note_on_c, 0, 42, 77
1, 668291, Control_c, 0, 64, 65
1, 668306, Control_c, 0, 64, 49
1, 668317, Note_off_c, 0, 68, 57
1, 668320, Control_c, 0, 64, 42
1, 668323, Note_on_c, 0, 50, 69
1, 668335, Control_c, 0, 64, 46
1, 668347, Note_off_c, 0, 42, 63
1, 668350, Control_c, 0, 64, 57
1, 668350, Control_c, 0, 67, 53
1, 668365, Control_c, 0, 64, 64
1, 668365, Control_c, 0, 67, 53
1, 668379, Control_c, 0, 64, 71
1, 668379, Control_c, 0, 67, 51
1, 668385, Note_on_c, 0, 57, 82
1, 668394, Control_c, 0, 64, 80
1, 668394, Control_c, 0, 67, 50
1, 668409, Control_c, 0, 64, 91
1, 668409, Control_c, 0, 67, 48
1, 668424, Control_c, 0, 64, 104
1, 668424, Control_c, 0, 67, 43
1, 668439, Control_c, 0, 64, 127
1, 668439, Control_c, 0, 67, 0
1, 668475, Note_off_c, 0, 57, 59
1, 668481, Note_on_c, 0, 62, 81
1, 668506, Note_off_c, 0, 50, 61
1, 668579, Note_on_c, 0, 66, 83
1, 668579, Note_off_c, 0, 62, 63
1, 668653, Note_off_c, 0, 66, 62
1, 668663, Note_on_c, 0, 69, 76
1, 668692, Note_off_c, 0, 69, 63
1, 668757, Note_on_c, 0, 76, 81
1, 668788, Control_c, 0, 64, 81
1, 668803, Control_c, 0, 64, 62
1, 668817, Control_c, 0, 64, 46
1, 668831, Note_on_c, 0, 42, 63
1, 668832, Control_c, 0, 64, 40
1, 668847, Control_c, 0, 64, 45
1, 668853, Note_off_c, 0, 76, 62
1, 668858, Note_on_c, 0, 74, 78
1, 668862, Control_c, 0, 64, 57
1, 668877, Control_c, 0, 64, 65
1, 668883, Note_off_c, 0, 42, 62
1, 668892, Control_c, 0, 64, 75
1, 668902, Note_on_c, 0, 52, 65
1, 668907, Control_c, 0, 64, 86
1, 668922, Control_c, 0, 64, 96
1, 668937, Control_c, 0, 64, 105
1, 668951, Control_c, 0, 64, 121
1, 668966, Control_c, 0, 64, 127
1, 668967, Note_on_c, 0, 73, 76
1, 668969, Note_off_c, 0, 74, 61
1, 668977, Note_on_c, 0, 58, 77
1, 668981, Control_c, 0, 67, 34
1, 668995, Control_c, 0, 67, 63
1, 669005, Note_off_c, 0, 52, 59
1, 669010, Control_c, 0, 67, 104
1, 669025, Control_c, 0, 67, 127
1, 669032, Note_off_c, 0, 58, 61
1, 669056, Note_off_c, 0, 73, 62
1, 669057, Note_on_c, 0, 70, 74
1, 669130, Note_off_c, 0, 70, 64
1, 669148, Note_on_c, 0, 67, 79
1, 669198, Note_off_c, 0, 67, 63
1, 669256, Note_on_c, 0, 64, 78
1, 669345, Note_off_c, 0, 64, 59
1, 669348, Note_on_c, 0, 62, 68
1, 669429, Note_off_c, 0, 62, 61
1, 669443, Note_on_c, 0, 61, 59
1, 669447, Control_c, 0, 64, 101
1, 669462, Control_c, 0, 64, 75
1, 669476, Control_c, 0, 64, 58
1, 669491, Control_c, 0, 64, 37
1, 669503, Note_off_c, 0, 61, 63
1, 669506, Control_c, 0, 64, 0
1, 669536, Control_c, 0, 64, 35
1, 669538, Note_on_c, 0, 42, 63
1, 669540, Note_on_c, 0, 30, 51
1, 669552, Control_c, 0, 64, 52
1, 669566, Control_c, 0, 64, 63
1, 669576, Note_off_c, 0, 30, 62
1, 669578, Note_off_c, 0, 42, 65
1, 669581, Control_c, 0, 64, 70
1, 669596, Control_c, 0, 64, 76
1, 669611, Control_c, 0, 64, 82
1, 669625, Control_c, 0, 64, 87
1, 669631, Note_on_c, 0, 59, 54
1, 669640, Control_c, 0, 64, 92
1, 669655, Control_c, 0, 64, 98
1, 669670, Control_c, 0, 64, 105
1, 669685, Control_c, 0, 64, 112
1, 669700, Control_c, 0, 64, 119
1, 669712, Note_off_c, 0, 59, 62
1, 669715, Control_c, 0, 64, 127
1, 669727, Note_on_c, 0, 58, 65
1, 669792, Note_off_c, 0, 58, 62
1, 669818, Control_c, 0, 64, 105
1, 669825, Note_on_c, 0, 59, 70
1, 669828, Note_on_c, 0, 54, 67
1, 669833, Control_c, 0, 64, 83
1, 669848, Control_c, 0, 64, 67
1, 669863, Control_c, 0, 64, 56
1, 669878, Control_c, 0, 64, 55
1, 669892, Control_c, 0, 64, 62
1, 669907, Control_c, 0, 64, 71
1, 669920, Note_on_c, 0, 61, 69
1, 669922, Control_c, 0, 64, 84
1, 669926, Note_off_c, 0, 59, 54
1, 669935, Note_off_c, 0, 54, 61
1, 669937, Control_c, 0, 64, 102
1, 669952, Control_c, 0, 64, 127
1, 670010, Note_on_c, 0, 62, 65
1, 670010, Note_off_c, 0, 61, 62
1, 670046, Note_off_c, 0, 62, 64
1, 670078, Control_c, 0, 64, 83
1, 670093, Control_c, 0, 64, 61
1, 670107, Control_c, 0, 64, 38
1, 670122, Control_c, 0, 64, 0
1, 670123, Note_on_c, 0, 64, 59
1, 670127, Note_on_c, 0, 67, 58
1, 670129, Note_on_c, 0, 62, 68
1, 670137, Control_c, 0, 64, 30
1, 670151, Control_c, 0, 64, 48
1, 670166, Control_c, 0, 64, 62
1, 670181, Control_c, 0, 64, 70
1, 670196, Control_c, 0, 64, 78
1, 670201, Note_off_c, 0, 67, 60
1, 670211, Control_c, 0, 64, 86
1, 670213, Note_off_c, 0, 62, 63
1, 670213, Note_off_c, 0, 64, 59
1, 670216, Note_on_c, 0, 61, 74
1, 670225, Control_c, 0, 64, 96
1, 670240, Control_c, 0, 64, 117
1, 670255, Control_c, 0, 64, 127
1, 670299, Note_on_c, 0, 62, 75
1, 670302, Note_off_c, 0, 61, 58
1, 670393, Note_on_c, 0, 63, 78
1, 670424, Note_off_c, 0, 62, 60
1, 670490, Note_on_c, 0, 64, 74
1, 670520, Note_off_c, 0, 63, 58
1, 670575, Note_on_c, 0, 58, 58
1, 670581, Control_c, 0, 64, 101
1, 670595, Control_c, 0, 64, 74
1, 670596, Note_off_c, 0, 64, 57
1, 670610, Control_c, 0, 64, 53
1, 670625, Control_c, 0, 64, 0
1, 670652, Note_off_c, 0, 58, 60
1, 670663, Note_on_c, 0, 30, 58
1, 670671, Note_on_c, 0, 42, 58
1, 670684, Control_c, 0, 64, 32
1, 670699, Control_c, 0, 64, 50
1, 670709, Note_off_c, 0, 30, 63
1, 670714, Control_c, 0, 64, 61
1, 670726, Note_off_c, 0, 42, 63
1, 670736, Control_c, 0, 64, 68
1, 670751, Control_c, 0, 64, 75
1, 670766, Control_c, 0, 64, 83
1, 670770, Note_on_c, 0, 59, 58
1, 670780, Control_c, 0, 64, 92
1, 670795, Control_c, 0, 64, 103
1, 670810, Control_c, 0, 64, 127
1, 670841, Note_off_c, 0, 59, 63
1, 670853, Note_on_c, 0, 58, 69
1, 670919, Note_off_c, 0, 58, 64
1, 670947, Note_on_c, 0, 54, 61
1, 670955, Note_on_c, 0, 59, 75
1, 670999, Note_off_c, 0, 54, 56
1, 671038, Note_off_c, 0, 59, 61
1, 671044, Note_on_c, 0, 62, 72
1, 671129, Note_off_c, 0, 62, 61
1, 671135, Note_on_c, 0, 67, 66
1, 671200, Note_off_c, 0, 67, 63
1, 671315, Control_c, 0, 64, 118
1, 671330, Control_c, 0, 64, 87
1, 671338, Note_on_c, 0, 67, 61
1, 671345, Control_c, 0, 64, 67
1, 671351, Note_on_c, 0, 72, 63
1, 671358, Note_on_c, 0, 69, 48
1, 671360, Control_c, 0, 64, 55
1, 671375, Control_c, 0, 64, 44
1, 671389, Control_c, 0, 64, 38
1, 671404, Control_c, 0, 64, 37
1, 671419, Control_c, 0, 64, 37
1, 671434, Control_c, 0, 64, 40
1, 671449, Control_c, 0, 64, 47
1, 671470, Control_c, 0, 64, 56
1, 671485, Control_c, 0, 64, 64
1, 671500, Control_c, 0, 64, 70
1, 671515, Control_c, 0, 64, 77
1, 671530, Control_c, 0, 64, 85
1, 671533, Note_off_c, 0, 67, 61
1, 671538, Note_off_c, 0, 72, 61
1, 671542, Note_on_c, 0, 66, 74
1, 671545, Control_c, 0, 64, 94
1, 671560, Control_c, 0, 64, 108
1, 671575, Control_c, 0, 64, 127
1, 671577, Note_off_c, 0, 69, 63
1, 671636, Note_on_c, 0, 67, 82
1, 671730, Note_off_c, 0, 66, 44
1, 671739, Note_on_c, 0, 68, 74
1, 671765, Note_off_c, 0, 67, 58
1, 671818, Note_on_c, 0, 69, 74
1, 671909, Note_on_c, 0, 63, 80
1, 671912, Note_off_c, 0, 68, 38
1, 671942, Note_off_c, 0, 69, 58
1, 671946, Control_c, 0, 64, 101
1, 671961, Control_c, 0, 64, 69
1, 671975, Control_c, 0, 64, 47
1, 671979, Note_off_c, 0, 63, 62
1, 671990, Control_c, 0, 64, 0
1, 672006, Note_on_c, 0, 59, 79
1, 672018, Note_on_c, 0, 47, 62
1, 672019, Control_c, 0, 64, 38
1, 672025, Note_on_c, 0, 55, 61
1, 672034, Control_c, 0, 64, 58
1, 672047, Note_off_c, 0, 59, 61
1, 672049, Control_c, 0, 64, 72
1, 672064, Control_c, 0, 64, 87
1, 672065, Note_off_c, 0, 55, 64
1, 672079, Control_c, 0, 64, 108
1, 672093, Control_c, 0, 64, 127
1, 672093, Control_c, 0, 67, 114
1, 672100, Note_off_c, 0, 47, 64
1, 672108, Control_c, 0, 67, 95
1, 672120, Note_on_c, 0, 62, 63
1, 672123, Control_c, 0, 67, 77
1, 672138, Control_c, 0, 67, 62
1, 672153, Control_c, 0, 67, 52
1, 672168, Control_c, 0, 67, 46
1, 672183, Control_c, 0, 67, 44
1, 672207, Note_off_c, 0, 62, 62
1, 672220, Note_on_c, 0, 61, 73
1, 672274, Note_off_c, 0, 61, 64
1, 672299, Note_on_c, 0, 42, 70
1, 672310, Note_on_c, 0, 30, 47
1, 672311, Note_on_c, 0, 62, 80
1, 672338, Note_off_c, 0, 42, 65
1, 672347, Note_off_c, 0, 30, 51
1, 672398, Control_c, 0, 67, 43
1, 672403, Note_on_c, 0, 67, 70
1, 672471, Note_on_c, 0, 71, 80
1, 672474, Note_off_c, 0, 62, 44
1, 672487, Note_off_c, 0, 67, 62
1, 672495, Note_on_c, 0, 47, 74
1, 672516, Control_c, 0, 64, 89
1, 672531, Control_c, 0, 64, 65
1, 672545, Control_c, 0, 64, 51
1, 672545, Control_c, 0, 67, 42
1, 672547, Note_off_c, 0, 71, 58
1, 672560, Control_c, 0, 64, 57
1, 672560, Control_c, 0, 67, 40
1, 672567, Note_on_c, 0, 55, 70
1, 672571, Note_off_c, 0, 47, 63
1, 672575, Control_c, 0, 64, 66
1, 672575, Control_c, 0, 67, 38
1, 672590, Control_c, 0, 64, 80
1, 672590, Control_c, 0, 67, 0
1, 672605, Control_c, 0, 64, 127
1, 672612, Note_on_c, 0, 61, 96
1, 672654, Note_off_c, 0, 61, 66
1, 672654, Note_off_c, 0, 55, 62
1, 672711, Note_on_c, 0, 64, 73
1, 672793, Note_off_c, 0, 64, 63
1, 672798, Note_on_c, 0, 63, 81
1, 672860, Note_off_c, 0, 63, 65
1, 672894, Note_on_c, 0, 64, 82
1, 672895, Note_on_c, 0, 42, 90
1, 672902, Note_on_c, 0, 30, 70
1, 672926, Note_off_c, 0, 42, 66
1, 672929, Note_off_c, 0, 30, 64
1, 672996, Note_on_c, 0, 70, 79
1, 673073, Note_off_c, 0, 64, 54
1, 673083, Note_on_c, 0, 73, 86
1, 673094, Note_off_c, 0, 70, 62
1, 673112, Note_on_c, 0, 47, 75
1, 673116, Control_c, 0, 64, 97
1, 673131, Control_c, 0, 64, 66
1, 673137, Note_off_c, 0, 73, 63
1, 673146, Control_c, 0, 64, 44
1, 673161, Control_c, 0, 64, 42
1, 673175, Note_on_c, 0, 55, 81
1, 673175, Control_c, 0, 64, 59
1, 673176, Note_off_c, 0, 47, 64
1, 673190, Control_c, 0, 64, 72
1, 673205, Control_c, 0, 64, 105
1, 673212, Note_on_c, 0, 62, 103
1, 673220, Control_c, 0, 64, 127
1, 673248, Note_off_c, 0, 62, 67
1, 673273, Note_off_c, 0, 55, 63
1, 673308, Note_on_c, 0, 67, 92
1, 673413, Note_on_c, 0, 71, 88
1, 673430, Note_off_c, 0, 67, 56
1, 673501, Note_on_c, 0, 42, 100
1, 673507, Note_on_c, 0, 74, 90
1, 673511, Note_on_c, 0, 30, 73
1, 673513, Note_off_c, 0, 71, 60
1, 673538, Note_off_c, 0, 30, 65
1, 673546, Note_off_c, 0, 42, 64
1, 673549, Note_off_c, 0, 74, 68
1, 673611, Note_on_c, 0, 81, 93
1, 673700, Note_on_c, 0, 48, 79
1, 673719, Note_on_c, 0, 79, 83
1, 673746, Control_c, 0, 64, 74
1, 673761, Control_c, 0, 64, 48
1, 673776, Control_c, 0, 64, 30
1, 673777, Note_on_c, 0, 57, 76
1, 673779, Note_off_c, 0, 48, 62
1, 673790, Control_c, 0, 64, 44
1, 673805, Control_c, 0, 64, 65
1, 673810, Note_off_c, 0, 81, 61
1, 673820, Control_c, 0, 64, 86
1, 673828, Note_on_c, 0, 63, 102
1, 673835, Control_c, 0, 64, 127
1, 673843, Note_on_c, 0, 78, 91
1, 673862, Note_off_c, 0, 63, 70
1, 673867, Note_off_c, 0, 57, 64
1, 673870, Note_off_c, 0, 79, 63
1, 673873, Poly_aftertouch_c, 0, 55, 127
1, 673915, Poly_aftertouch_c, 0, 55, 0
1, 673946, Note_on_c, 0, 75, 93
1, 673963, Note_off_c, 0, 78, 59
1, 674048, Note_off_c, 0, 75, 62
1, 674055, Note_on_c, 0, 72, 95
1, 674099, Note_off_c, 0, 72, 67
1, 674173, Note_on_c, 0, 69, 102
1, 674174, Note_on_c, 0, 42, 98
1, 674179, Note_on_c, 0, 30, 73
1, 674210, Note_off_c, 0, 30, 65
1, 674225, Note_off_c, 0, 42, 64
1, 674301, Note_on_c, 0, 68, 94
1, 674329, Note_off_c, 0, 69, 60
1, 674433, Note_on_c, 0, 66, 99
1, 674456, Note_off_c, 0, 68, 65
1, 674487, Note_off_c, 0, 66, 68
1, 674657, Note_on_c, 0, 65, 97
1, 674667, Note_on_c, 0, 49, 94
1, 674675, Note_on_c, 0, 37, 80
1, 674688, Control_c, 0, 64, 78
1, 674703, Control_c, 0, 64, 36
1, 674718, Control_c, 0, 64, 0
1, 674792, Control_c, 0, 64, 43
1, 674807, Control_c, 0, 64, 69
1, 674821, Note_on_c, 0, 56, 70
1, 674821, Control_c, 0, 64, 75
1, 674836, Control_c, 0, 64, 80
1, 674851, Control_c, 0, 64, 81
1, 674866, Control_c, 0, 64, 84
1, 674881, Control_c, 0, 64, 88
1, 674895, Control_c, 0, 64, 95
1, 674910, Note_off_c, 0, 56, 63
1, 674910, Control_c, 0, 64, 108
1, 674925, Control_c, 0, 64, 127
1, 674928, Note_on_c, 0, 55, 76
1, 675012, Note_off_c, 0, 55, 45
1, 675021, Note_on_c, 0, 56, 80
1, 675054, Note_off_c, 0, 65, 54
1, 675104, Note_off_c, 0, 56, 63
1, 675119, Note_on_c, 0, 58, 72
1, 675139, Note_off_c, 0, 37, 60
1, 675141, Note_off_c, 0, 49, 56
1, 675171, Note_off_c, 0, 58, 64
1, 675194, Note_on_c, 0, 59, 69
1, 675311, Note_on_c, 0, 66, 81
1, 675319, Control_c, 0, 64, 93
1, 675327, Note_off_c, 0, 59, 63
1, 675334, Control_c, 0, 64, 66
1, 675338, Note_on_c, 0, 50, 63
1, 675349, Control_c, 0, 64, 40
1, 675349, Note_on_c, 0, 38, 58
1, 675363, Control_c, 0, 64, 0
1, 675393, Control_c, 0, 64, 31
1, 675408, Control_c, 0, 64, 50
1, 675423, Control_c, 0, 64, 62
1, 675426, Note_on_c, 0, 58, 75
1, 675437, Control_c, 0, 64, 68
1, 675452, Control_c, 0, 64, 75
1, 675467, Control_c, 0, 64, 84
1, 675482, Control_c, 0, 64, 96
1, 675493, Note_off_c, 0, 50, 62
1, 675497, Control_c, 0, 64, 119
1, 675498, Note_off_c, 0, 38, 59
1, 675503, Note_off_c, 0, 58, 63
1, 675511, Control_c, 0, 64, 127
1, 675513, Note_off_c, 0, 66, 0
1, 675519, Note_on_c, 0, 59, 83
1, 675550, Poly_aftertouch_c, 0, 66, 127
1, 675576, Poly_aftertouch_c, 0, 66, 0
1, 675603, Note_on_c, 0, 60, 86
1, 675623, Note_off_c, 0, 59, 44
1, 675665, Note_off_c, 0, 60, 66
1, 675700, Note_on_c, 0, 61, 87
1, 675760, Note_off_c, 0, 61, 59
1, 675793, Note_on_c, 0, 62, 80
1, 675843, Note_off_c, 0, 62, 64
1, 675889, Note_on_c, 0, 65, 93
1, 675896, Control_c, 0, 64, 100
1, 675911, Control_c, 0, 64, 70
1, 675915, Note_on_c, 0, 49, 73
1, 675925, Note_on_c, 0, 37, 60
1, 675926, Control_c, 0, 64, 36
1, 675942, Control_c, 0, 64, 0
1, 676023, Control_c, 0, 64, 35
1, 676037, Note_on_c, 0, 56, 66
1, 676038, Control_c, 0, 64, 51
1, 676053, Control_c, 0, 64, 62
1, 676067, Control_c, 0, 64, 69
1, 676082, Control_c, 0, 64, 76
1, 676097, Control_c, 0, 64, 85
1, 676108, Note_off_c, 0, 56, 64
1, 676112, Control_c, 0, 64, 94
1, 676127, Control_c, 0, 64, 110
1, 676135, Note_on_c, 0, 55, 64
1, 676142, Control_c, 0, 64, 127
1, 676177, Note_off_c, 0, 37, 61
1, 676187, Note_off_c, 0, 49, 60
1, 676205, Note_off_c, 0, 55, 59
1, 676217, Note_on_c, 0, 56, 76
1, 676255, Note_off_c, 0, 65, 55
1, 676302, Note_off_c, 0, 56, 61
1, 676314, Note_on_c, 0, 58, 64
1, 676376, Note_off_c, 0, 58, 63
1, 676410, Note_on_c, 0, 59, 59
1, 676497, Control_c, 0, 64, 89
1, 676512, Control_c, 0, 64, 68
1, 676516, Note_on_c, 0, 66, 71
1, 676523, Note_on_c, 0, 50, 44
1, 676523, Note_off_c, 0, 59, 62
1, 676526, Note_on_c, 0, 38, 43
1, 676527, Control_c, 0, 64, 51
1, 676541, Control_c, 0, 64, 33
1, 676556, Control_c, 0, 64, 30
1, 676571, Control_c, 0, 64, 35
1, 676586, Control_c, 0, 64, 47
1, 676601, Control_c, 0, 64, 58
1, 676615, Control_c, 0, 64, 65
1, 676624, Note_on_c, 0, 58, 67
1, 676630, Control_c, 0, 64, 74
1, 676645, Control_c, 0, 64, 89
1, 676653, Note_off_c, 0, 50, 62
1, 676660, Control_c, 0, 64, 108
1, 676662, Note_off_c, 0, 38, 50
1, 676675, Control_c, 0, 64, 127
1, 676694, Note_off_c, 0, 58, 62
1, 676721, Note_on_c, 0, 59, 74
1, 676783, Note_off_c, 0, 66, 25
1, 676797, Note_off_c, 0, 59, 54
1, 676813, Note_on_c, 0, 60, 72
1, 676846, Control_c, 0, 64, 72
1, 676861, Control_c, 0, 64, 47
1, 676876, Control_c, 0, 64, 0
1, 676887, Note_off_c, 0, 60, 58
1, 676910, Note_on_c, 0, 61, 72
1, 676981, Note_off_c, 0, 61, 53
1, 677007, Note_on_c, 0, 62, 61
1, 677075, Note_off_c, 0, 62, 57
1, 677100, Note_on_c, 0, 65, 70
1, 677120, Note_on_c, 0, 49, 54
1, 677134, Note_on_c, 0, 37, 48
1, 677142, Control_c, 0, 64, 41
1, 677157, Control_c, 0, 64, 54
1, 677172, Control_c, 0, 64, 57
1, 677187, Control_c, 0, 64, 62
1, 677202, Control_c, 0, 64, 65
1, 677211, Note_on_c, 0, 56, 70
1, 677216, Control_c, 0, 64, 71
1, 677231, Control_c, 0, 64, 81
1, 677246, Control_c, 0, 64, 97
1, 677261, Control_c, 0, 64, 127
1, 677282, Note_off_c, 0, 56, 63
1, 677304, Note_on_c, 0, 55, 73
1, 677310, Note_off_c, 0, 37, 62
1, 677332, Note_off_c, 0, 49, 60
1, 677385, Note_on_c, 0, 56, 85
1, 677390, Note_off_c, 0, 55, 59
1, 677445, Note_off_c, 0, 65, 59
1, 677478, Note_on_c, 0, 58, 89
1, 677482, Note_off_c, 0, 56, 61
1, 677534, Note_off_c, 0, 58, 66
1, 677564, Note_on_c, 0, 59, 86
1, 677666, Note_on_c, 0, 68, 94
1, 677669, Control_c, 0, 64, 74
1, 677680, Note_on_c, 0, 53, 83
1, 677682, Note_off_c, 0, 59, 67
1, 677683, Note_on_c, 0, 41, 74
1, 677684, Control_c, 0, 64, 47
1, 677699, Control_c, 0, 64, 0
1, 677728, Control_c, 0, 64, 35
1, 677743, Control_c, 0, 64, 56
1, 677757, Control_c, 0, 64, 66
1, 677772, Control_c, 0, 64, 78
1, 677782, Note_on_c, 0, 59, 85
1, 677787, Control_c, 0, 64, 91
1, 677802, Control_c, 0, 64, 114
1, 677808, Note_off_c, 0, 41, 63
1, 677808, Note_off_c, 0, 53, 59
1, 677817, Control_c, 0, 64, 127
1, 677873, Note_on_c, 0, 58, 87
1, 677883, Note_off_c, 0, 59, 62
1, 677933, Note_off_c, 0, 58, 64
1, 677966, Note_on_c, 0, 59, 87
1, 678028, Note_off_c, 0, 59, 57
1, 678056, Note_on_c, 0, 61, 84
1, 678064, Note_off_c, 0, 68, 61
1, 678098, Note_off_c, 0, 61, 63
1, 678142, Note_on_c, 0, 62, 91
1, 678225, Control_c, 0, 64, 96
1, 678239, Control_c, 0, 64, 62
1, 678246, Note_on_c, 0, 71, 100
1, 678254, Control_c, 0, 64, 0
1, 678255, Note_on_c, 0, 56, 97
1, 678255, Note_on_c, 0, 44, 79
1, 678266, Note_off_c, 0, 62, 61
1, 678298, Control_c, 0, 64, 42
1, 678313, Control_c, 0, 64, 63
1, 678328, Control_c, 0, 64, 74
1, 678344, Control_c, 0, 64, 93
1, 678347, Note_off_c, 0, 44, 63
1, 678353, Note_on_c, 0, 62, 91
1, 678355, Note_off_c, 0, 56, 59
1, 678359, Control_c, 0, 64, 127
1, 678434, Note_on_c, 0, 61, 88
1, 678445, Note_off_c, 0, 62, 63
1, 678457, Note_off_c, 0, 71, 59
1, 678474, Note_off_c, 0, 61, 66
1, 678486, Note_on_c, 0, 47, 78
1, 678607, Note_on_c, 0, 74, 100
1, 678610, Control_c, 0, 64, 76
1, 678611, Note_on_c, 0, 59, 84
1, 678625, Control_c, 0, 64, 53
1, 678640, Control_c, 0, 64, 28
1, 678654, Control_c, 0, 64, 34
1, 678669, Control_c, 0, 64, 53
1, 678684, Control_c, 0, 64, 69
1, 678699, Control_c, 0, 64, 85
1, 678714, Control_c, 0, 64, 127
1, 678717, Note_off_c, 0, 74, 60
1, 678725, Note_off_c, 0, 59, 62
1, 678744, Note_on_c, 0, 62, 77
1, 678761, Note_off_c, 0, 47, 62
1, 678809, Note_off_c, 0, 62, 61
1, 678845, Note_on_c, 0, 63, 71
1, 678862, Control_c, 0, 67, 52
1, 678877, Control_c, 0, 67, 81
1, 678892, Control_c, 0, 67, 112
1, 678906, Control_c, 0, 67, 127
1, 678915, Note_off_c, 0, 63, 62
1, 678936, Control_c, 0, 64, 96
1, 678941, Note_on_c, 0, 64, 71
1, 678943, Note_on_c, 0, 56, 73
1, 678958, Control_c, 0, 64, 68
1, 678959, Note_on_c, 0, 44, 60
1, 678973, Control_c, 0, 64, 49
1, 678988, Control_c, 0, 64, 42
1, 679003, Control_c, 0, 64, 51
1, 679018, Control_c, 0, 64, 62
1, 679033, Control_c, 0, 64, 70
1, 679042, Note_off_c, 0, 64, 62
1, 679048, Note_on_c, 0, 65, 64
1, 679048, Control_c, 0, 64, 82
1, 679055, Note_off_c, 0, 56, 61
1, 679062, Control_c, 0, 64, 94
1, 679077, Control_c, 0, 64, 103
1, 679092, Control_c, 0, 64, 110
1, 679106, Control_c, 0, 64, 122
1, 679121, Control_c, 0, 64, 127
1, 679128, Note_off_c, 0, 65, 60
1, 679137, Note_off_c, 0, 44, 36
1, 679147, Note_on_c, 0, 66, 70
1, 679205, Note_off_c, 0, 66, 63
1, 679256, Control_c, 0, 64, 108
1, 679271, Control_c, 0, 64, 78
1, 679285, Control_c, 0, 64, 56
1, 679296, Note_on_c, 0, 71, 70
1, 679300, Control_c, 0, 64, 0
1, 679304, Note_on_c, 0, 67, 54
1, 679317, Note_on_c, 0, 41, 55
1, 679322, Note_on_c, 0, 53, 50
1, 679366, Note_off_c, 0, 67, 54
1, 679374, Control_c, 0, 64, 37
1, 679376, Note_off_c, 0, 53, 58
1, 679389, Control_c, 0, 64, 54
1, 679394, Note_off_c, 0, 41, 62
1, 679403, Control_c, 0, 64, 63
1, 679418, Control_c, 0, 64, 66
1, 679433, Control_c, 0, 64, 69
1, 679437, Note_on_c, 0, 68, 58
1, 679448, Control_c, 0, 64, 72
1, 679463, Control_c, 0, 64, 74
1, 679477, Control_c, 0, 64, 75
1, 679492, Control_c, 0, 64, 76
1, 679519, Note_off_c, 0, 68, 60
1, 679546, Note_off_c, 0, 71, 60
1, 679555, Note_on_c, 0, 62, 53
1, 679567, Control_c, 0, 64, 75
1, 679581, Control_c, 0, 64, 70
1, 679596, Control_c, 0, 64, 59
1, 679598, Note_off_c, 0, 62, 59
1, 679611, Control_c, 0, 64, 30
1, 679626, Control_c, 0, 64, 0
1, 679641, Control_c, 0, 64, 40
1, 679647, Note_on_c, 0, 54, 55
1, 679647, Note_on_c, 0, 71, 74
1, 679654, Note_on_c, 0, 42, 56
1, 679656, Control_c, 0, 64, 58
1, 679671, Control_c, 0, 64, 66
1, 679674, Note_off_c, 0, 54, 64
1, 679685, Control_c, 0, 64, 73
1, 679707, Control_c, 0, 64, 80
1, 679709, Note_off_c, 0, 42, 63
1, 679722, Control_c, 0, 64, 86
1, 679736, Control_c, 0, 64, 92
1, 679751, Control_c, 0, 64, 97
1, 679757, Note_off_c, 0, 71, 33
1, 679765, Note_on_c, 0, 61, 55
1, 679766, Control_c, 0, 64, 100
1, 679781, Control_c, 0, 64, 103
1, 679796, Control_c, 0, 64, 105
1, 679811, Control_c, 0, 64, 110
1, 679818, Note_off_c, 0, 61, 61
1, 679826, Control_c, 0, 64, 115
1, 679841, Control_c, 0, 64, 121
1, 679861, Note_on_c, 0, 60, 56
1, 679900, Control_c, 0, 64, 107
1, 679913, Note_off_c, 0, 60, 53
1, 679915, Control_c, 0, 64, 81
1, 679930, Control_c, 0, 64, 61
1, 679939, Note_on_c, 0, 70, 74
1, 679945, Control_c, 0, 64, 30
1, 679951, Note_on_c, 0, 61, 58
1, 679959, Note_on_c, 0, 42, 62
1, 679960, Control_c, 0, 64, 0
1, 679966, Note_on_c, 0, 30, 53
1, 679990, Control_c, 0, 64, 40
1, 680002, Note_off_c, 0, 30, 61
1, 680003, Note_off_c, 0, 42, 63
1, 680005, Control_c, 0, 64, 58
1, 680020, Control_c, 0, 64, 66
1, 680025, Note_off_c, 0, 61, 62
1, 680034, Control_c, 0, 64, 72
1, 680048, Note_on_c, 0, 63, 61
1, 680049, Control_c, 0, 64, 77
1, 680064, Control_c, 0, 64, 82
1, 680079, Control_c, 0, 64, 87
1, 680094, Control_c, 0, 64, 94
1, 680108, Control_c, 0, 64, 99
1, 680109, Note_off_c, 0, 63, 62
1, 680123, Control_c, 0, 64, 103
1, 680127, Note_on_c, 0, 64, 73
1, 680155, Note_off_c, 0, 64, 66
1, 680167, Control_c, 0, 64, 100
1, 680182, Control_c, 0, 64, 80
1, 680197, Control_c, 0, 64, 55
1, 680212, Control_c, 0, 64, 0
1, 680251, Note_on_c, 0, 64, 75
1, 680271, Control_c, 0, 64, 36
1, 680286, Control_c, 0, 64, 64
1, 680300, Control_c, 0, 64, 73
1, 680303, Note_off_c, 0, 64, 58
1, 680304, Note_off_c, 0, 70, 56
1, 680315, Control_c, 0, 64, 81
1, 680330, Control_c, 0, 64, 83
1, 680342, Note_on_c, 0, 63, 75
1, 680345, Control_c, 0, 64, 84
1, 680359, Control_c, 0, 64, 86
1, 680371, Note_off_c, 0, 63, 64
1, 680374, Control_c, 0, 64, 87
1, 680389, Control_c, 0, 64, 88
1, 680434, Note_on_c, 0, 64, 69
1, 680456, Control_c, 0, 64, 87
1, 680471, Control_c, 0, 64, 80
1, 680486, Control_c, 0, 64, 63
1, 680501, Control_c, 0, 64, 0
1, 680512, Note_off_c, 0, 64, 56
1, 680536, Note_on_c, 0, 69, 78
1, 680555, Note_on_c, 0, 65, 58
1, 680558, Note_on_c, 0, 39, 62
1, 680559, Note_on_c, 0, 51, 62
1, 680574, Control_c, 0, 64, 51
1, 680589, Control_c, 0, 64, 67
1, 680599, Note_off_c, 0, 51, 61
1, 680604, Control_c, 0, 64, 74
1, 680605, Note_off_c, 0, 39, 62
1, 680619, Control_c, 0, 64, 81
1, 680622, Note_off_c, 0, 65, 61
1, 680633, Note_off_c, 0, 69, 59
1, 680634, Control_c, 0, 64, 83
1, 680643, Note_on_c, 0, 66, 67
1, 680649, Control_c, 0, 64, 86
1, 680664, Control_c, 0, 64, 88
1, 680678, Control_c, 0, 64, 90
1, 680693, Control_c, 0, 64, 91
1, 680700, Note_off_c, 0, 66, 63
1, 680708, Control_c, 0, 64, 92
1, 680723, Control_c, 0, 64, 92
1, 680735, Note_on_c, 0, 59, 70
1, 680753, Control_c, 0, 64, 92
1, 680768, Control_c, 0, 64, 86
1, 680783, Control_c, 0, 64, 67
1, 680792, Note_off_c, 0, 59, 58
1, 680798, Control_c, 0, 64, 37
1, 680813, Control_c, 0, 64, 0
1, 680832, Note_on_c, 0, 69, 79
1, 680847, Note_on_c, 0, 52, 67
1, 680849, Note_on_c, 0, 40, 61
1, 680857, Control_c, 0, 64, 42
1, 680872, Control_c, 0, 64, 62
1, 680877, Note_off_c, 0, 69, 60
1, 680887, Control_c, 0, 64, 69
1, 680897, Note_off_c, 0, 40, 57
1, 680901, Control_c, 0, 64, 76
1, 680911, Note_off_c, 0, 52, 53
1, 680916, Control_c, 0, 64, 81
1, 680922, Note_on_c, 0, 59, 71
1, 680931, Control_c, 0, 64, 86
1, 680946, Control_c, 0, 64, 89
1, 680961, Control_c, 0, 64, 92
1, 680965, Note_off_c, 0, 59, 56
1, 680975, Control_c, 0, 64, 94
1, 680990, Control_c, 0, 64, 96
1, 681005, Control_c, 0, 64, 99
1, 681020, Control_c, 0, 64, 102
1, 681022, Note_on_c, 0, 58, 71
1, 681035, Control_c, 0, 64, 105
1, 681078, Note_off_c, 0, 58, 62
1, 681094, Control_c, 0, 64, 89
1, 681108, Control_c, 0, 64, 67
1, 681115, Note_on_c, 0, 68, 76
1, 681123, Control_c, 0, 64, 34
1, 681124, Note_on_c, 0, 59, 63
1, 681137, Note_on_c, 0, 53, 56
1, 681138, Control_c, 0, 64, 0
1, 681141, Note_on_c, 0, 41, 56
1, 681182, Control_c, 0, 64, 31
1, 681205, Control_c, 0, 64, 53
1, 681209, Note_off_c, 0, 59, 56
1, 681220, Control_c, 0, 64, 63
1, 681232, Note_off_c, 0, 53, 58
1, 681235, Control_c, 0, 64, 70
1, 681237, Note_on_c, 0, 61, 67
1, 681250, Control_c, 0, 64, 78
1, 681254, Note_off_c, 0, 41, 58
1, 681264, Control_c, 0, 64, 86
1, 681279, Control_c, 0, 64, 95
1, 681294, Control_c, 0, 64, 107
1, 681296, Note_off_c, 0, 61, 60
1, 681308, Control_c, 0, 64, 127
1, 681318, Note_on_c, 0, 62, 61
1, 681323, Note_off_c, 0, 68, 60
1, 681349, Note_off_c, 0, 62, 64
1, 681368, Control_c, 0, 64, 102
1, 681382, Control_c, 0, 64, 70
1, 681397, Control_c, 0, 64, 37
1, 681412, Control_c, 0, 64, 0
1, 681414, Note_on_c, 0, 62, 68
1, 681471, Control_c, 0, 64, 52
1, 681474, Note_off_c, 0, 62, 63
1, 681486, Control_c, 0, 64, 65
1, 681501, Control_c, 0, 64, 71
1, 681513, Note_on_c, 0, 60, 68
1, 681516, Control_c, 0, 64, 77
1, 681531, Control_c, 0, 64, 81
1, 681546, Control_c, 0, 64, 87
1, 681561, Control_c, 0, 64, 94
1, 681562, Note_off_c, 0, 60, 51
1, 681576, Control_c, 0, 64, 102
1, 681591, Control_c, 0, 64, 115
1, 681603, Note_on_c, 0, 61, 63
1, 681606, Control_c, 0, 64, 127
1, 681656, Note_off_c, 0, 61, 56
1, 681680, Control_c, 0, 64, 84
1, 681695, Control_c, 0, 64, 61
1, 681698, Note_on_c, 0, 66, 84
1, 681710, Control_c, 0, 64, 0
1, 681712, Note_on_c, 0, 54, 60
1, 681713, Note_on_c, 0, 59, 69
1, 681722, Note_on_c, 0, 42, 57
1, 681739, Control_c, 0, 64, 29
1, 681747, Note_off_c, 0, 54, 62
1, 681754, Control_c, 0, 64, 53
1, 681769, Note_off_c, 0, 59, 62
1, 681769, Control_c, 0, 64, 65
1, 681784, Control_c, 0, 64, 73
1, 681794, Note_off_c, 0, 42, 61
1, 681798, Control_c, 0, 64, 83
1, 681813, Control_c, 0, 64, 91
1, 681814, Note_on_c, 0, 56, 67
1, 681828, Control_c, 0, 64, 99
1, 681843, Control_c, 0, 64, 108
1, 681858, Control_c, 0, 64, 127
1, 681876, Note_off_c, 0, 56, 40
1, 681918, Note_on_c, 0, 57, 62
1, 681936, Note_off_c, 0, 66, 58
1, 682096, Note_off_c, 0, 57, 60
1, 682104, Note_on_c, 0, 66, 84
1, 682118, Note_on_c, 0, 56, 60
1, 682130, Note_on_c, 0, 47, 47
1, 682139, Note_on_c, 0, 35, 52
1, 682146, Control_c, 0, 64, 88
1, 682161, Control_c, 0, 64, 64
1, 682176, Control_c, 0, 64, 43
1, 682191, Control_c, 0, 64, 28
1, 682205, Control_c, 0, 64, 33
1, 682220, Control_c, 0, 64, 47
1, 682235, Control_c, 0, 64, 60
1, 682239, Note_off_c, 0, 47, 60
1, 682249, Control_c, 0, 64, 66
1, 682264, Control_c, 0, 64, 73
1, 682279, Control_c, 0, 64, 77
1, 682285, Note_off_c, 0, 56, 39
1, 682287, Note_off_c, 0, 35, 58
1, 682288, Note_on_c, 0, 59, 48
1, 682294, Control_c, 0, 64, 81
1, 682309, Control_c, 0, 64, 85
1, 682325, Control_c, 0, 64, 89
1, 682340, Control_c, 0, 64, 93
1, 682348, Note_off_c, 0, 59, 59
1, 682354, Control_c, 0, 64, 98
1, 682369, Control_c, 0, 64, 103
1, 682384, Control_c, 0, 64, 109
1, 682398, Note_off_c, 0, 66, 57
1, 682399, Note_on_c, 0, 62, 51
1, 682399, Control_c, 0, 64, 118
1, 682414, Control_c, 0, 64, 127
1, 682481, Note_on_c, 0, 65, 86
1, 682503, Control_c, 0, 64, 104
1, 682513, Note_on_c, 0, 32, 71
1, 682515, Note_on_c, 0, 44, 62
1, 682518, Control_c, 0, 64, 76
1, 682527, Note_off_c, 0, 62, 56
1, 682533, Control_c, 0, 64, 58
1, 682547, Control_c, 0, 64, 42
1, 682562, Control_c, 0, 64, 45
1, 682577, Control_c, 0, 64, 55
1, 682592, Control_c, 0, 64, 63
1, 682601, Note_on_c, 0, 61, 62
1, 682607, Control_c, 0, 64, 70
1, 682614, Note_off_c, 0, 32, 58
1, 682617, Note_off_c, 0, 44, 58
1, 682621, Control_c, 0, 64, 79
1, 682636, Control_c, 0, 64, 91
1, 682651, Control_c, 0, 64, 106
1, 682661, Note_off_c, 0, 65, 52
1, 682666, Control_c, 0, 64, 127
1, 682681, Note_on_c, 0, 56, 65
1, 682708, Note_off_c, 0, 61, 59
1, 682756, Note_off_c, 0, 56, 58
1, 682783, Note_on_c, 0, 64, 91
1, 682792, Control_c, 0, 64, 96
1, 682805, Note_on_c, 0, 55, 68
1, 682807, Control_c, 0, 64, 68
1, 682813, Note_on_c, 0, 34, 69
1, 682815, Note_on_c, 0, 46, 68
1, 682822, Control_c, 0, 64, 49
1, 682836, Control_c, 0, 64, 42
1, 682851, Control_c, 0, 64, 49
1, 682866, Control_c, 0, 64, 60
1, 682880, Control_c, 0, 64, 70
1, 682892, Note_off_c, 0, 34, 58
1, 682893, Note_off_c, 0, 46, 51
1, 682895, Control_c, 0, 64, 82
1, 682899, Note_on_c, 0, 58, 72
1, 682910, Control_c, 0, 64, 95
1, 682921, Note_off_c, 0, 55, 55
1, 682925, Control_c, 0, 64, 107
1, 682925, Control_c, 0, 67, 119
1, 682940, Control_c, 0, 64, 127
1, 682940, Control_c, 0, 67, 111
1, 682954, Control_c, 0, 67, 104
1, 682969, Control_c, 0, 67, 98
1, 682984, Control_c, 0, 67, 92
1, 682989, Note_off_c, 0, 64, 61
1, 682999, Control_c, 0, 67, 87
1, 683000, Note_off_c, 0, 58, 61
1, 683012, Note_on_c, 0, 61, 70
1, 683014, Control_c, 0, 67, 83
1, 683028, Control_c, 0, 67, 81
1, 683043, Control_c, 0, 67, 80
1, 683058, Control_c, 0, 67, 76
1, 683072, Control_c, 0, 67, 65
1, 683087, Control_c, 0, 64, 78
1, 683087, Control_c, 0, 67, 53
1, 683089, Note_on_c, 0, 62, 86
1, 683102, Control_c, 0, 64, 56
1, 683102, Control_c, 0, 67, 39
1, 683117, Control_c, 0, 64, 35
1, 683117, Control_c, 0, 67, 0
1, 683125, Note_on_c, 0, 47, 70
1, 683128, Note_on_c, 0, 35, 70
1, 683133, Control_c, 0, 64, 37
1, 683141, Note_off_c, 0, 61, 60
1, 683148, Control_c, 0, 64, 50
1, 683163, Control_c, 0, 64, 63
1, 683165, Note_off_c, 0, 47, 61
1, 683176, Note_off_c, 0, 35, 57
1, 683177, Control_c, 0, 64, 75
1, 683192, Control_c, 0, 64, 89
1, 683207, Control_c, 0, 64, 100
1, 683208, Note_on_c, 0, 54, 54
1, 683222, Control_c, 0, 64, 111
1, 683237, Control_c, 0, 64, 127
1, 683274, Note_off_c, 0, 62, 61
1, 683282, Note_on_c, 0, 59, 73
1, 683307, Note_off_c, 0, 54, 60
1, 683379, Note_on_c, 0, 61, 90
1, 683381, Note_off_c, 0, 59, 63
1, 683383, Control_c, 0, 64, 76
1, 683398, Control_c, 0, 64, 48
1, 683406, Note_on_c, 0, 37, 75
1, 683409, Note_on_c, 0, 49, 75
1, 683413, Control_c, 0, 64, 0
1, 683465, Control_c, 0, 64, 47
1, 683480, Control_c, 0, 64, 63
1, 683486, Note_off_c, 0, 37, 64
1, 683492, Note_off_c, 0, 49, 59
1, 683495, Control_c, 0, 64, 74
1, 683509, Control_c, 0, 64, 85
1, 683517, Note_on_c, 0, 56, 72
1, 683524, Control_c, 0, 64, 95
1, 683539, Control_c, 0, 64, 105
1, 683554, Control_c, 0, 64, 127
1, 683575, Note_off_c, 0, 56, 50
1, 683615, Note_on_c, 0, 57, 75
1, 683665, Note_off_c, 0, 61, 52
1, 683686, Note_off_c, 0, 57, 64
1, 683742, Note_on_c, 0, 59, 88
1, 683826, Note_off_c, 0, 59, 59
1, 683853, Note_on_c, 0, 56, 66
1, 683916, Note_off_c, 0, 56, 60
1, 683918, Note_on_c, 0, 61, 87
1, 683991, Note_off_c, 0, 61, 63
1, 683995, Note_on_c, 0, 57, 56
1, 684029, Note_off_c, 0, 57, 62
1, 684118, Note_on_c, 0, 54, 84
1, 684118, Control_c, 0, 64, 94
1, 684122, Note_on_c, 0, 57, 70
1, 684133, Control_c, 0, 64, 65
1, 684148, Control_c, 0, 64, 37
1, 684163, Control_c, 0, 64, 0
1, 684199, Control_c, 0, 64, 34
1, 684214, Control_c, 0, 64, 54
1, 684229, Control_c, 0, 64, 65
1, 684244, Control_c, 0, 64, 75
1, 684259, Control_c, 0, 64, 87
1, 684273, Control_c, 0, 64, 100
1, 684280, Note_on_c, 0, 61, 67
1, 684288, Control_c, 0, 64, 127
1, 684292, Note_off_c, 0, 54, 62
1, 684311, Note_off_c, 0, 57, 60
1, 684379, Note_on_c, 0, 62, 73
1, 684386, Note_off_c, 0, 61, 63
1, 684411, Note_off_c, 0, 62, 64
1, 684558, Note_on_c, 0, 55, 95
1, 684565, Note_on_c, 0, 43, 78
1, 684574, Note_on_c, 0, 61, 63
1, 684583, Note_on_c, 0, 63, 67
1, 684599, Control_c, 0, 64, 76
1, 684614, Control_c, 0, 64, 56
1, 684629, Control_c, 0, 64, 27
1, 684643, Control_c, 0, 64, 0
1, 684673, Control_c, 0, 64, 44
1, 684688, Control_c, 0, 64, 59
1, 684703, Control_c, 0, 64, 68
1, 684712, Note_on_c, 0, 64, 64
1, 684719, Control_c, 0, 64, 76
1, 684734, Control_c, 0, 64, 87
1, 684741, Note_off_c, 0, 63, 59
1, 684748, Control_c, 0, 64, 99
1, 684763, Control_c, 0, 64, 118
1, 684778, Control_c, 0, 64, 127
1, 684795, Note_off_c, 0, 43, 58
1, 684810, Note_off_c, 0, 55, 54
1, 684840, Note_off_c, 0, 61, 38
1, 684843, Note_off_c, 0, 64, 61
1, 684845, Note_on_c, 0, 70, 74
1, 684946, Note_off_c, 0, 70, 62
1, 684989, Note_on_c, 0, 55, 94
1, 684992, Note_on_c, 0, 43, 79
1, 684993, Control_c, 0, 64, 101
1, 684998, Note_on_c, 0, 62, 76
1, 685008, Control_c, 0, 64, 72
1, 685022, Control_c, 0, 64, 50
1, 685037, Control_c, 0, 64, 29
1, 685052, Control_c, 0, 64, 27
1, 685067, Control_c, 0, 64, 40
1, 685081, Control_c, 0, 64, 56
1, 685096, Control_c, 0, 64, 65
1, 685111, Control_c, 0, 64, 73
1, 685115, Note_on_c, 0, 69, 69
1, 685126, Control_c, 0, 64, 85
1, 685141, Control_c, 0, 64, 94
1, 685153, Note_off_c, 0, 55, 54
1, 685156, Control_c, 0, 64, 104
1, 685166, Note_off_c, 0, 43, 60
1, 685171, Control_c, 0, 64, 116
1, 685186, Control_c, 0, 64, 127
1, 685208, Note_on_c, 0, 68, 72
1, 685212, Note_off_c, 0, 69, 61
1, 685307, Note_on_c, 0, 69, 79
1, 685319, Control_c, 0, 64, 103
1, 685323, Note_off_c, 0, 68, 57
1, 685334, Control_c, 0, 64, 72
1, 685339, Note_on_c, 0, 54, 81
1, 685347, Note_on_c, 0, 42, 72
1, 685348, Control_c, 0, 64, 50
1, 685363, Control_c, 0, 64, 0
1, 685408, Control_c, 0, 64, 48
1, 685422, Note_on_c, 0, 71, 77
1, 685422, Control_c, 0, 64, 64
1, 685431, Note_off_c, 0, 54, 60
1, 685435, Note_off_c, 0, 42, 60
1, 685437, Control_c, 0, 64, 72
1, 685450, Note_off_c, 0, 69, 60
1, 685452, Control_c, 0, 64, 81
1, 685466, Control_c, 0, 64, 93
1, 685481, Control_c, 0, 64, 114
1, 685496, Control_c, 0, 64, 127
1, 685513, Note_on_c, 0, 72, 86
1, 685531, Note_off_c, 0, 71, 62
1, 685552, Note_off_c, 0, 72, 66
1, 685586, Control_c, 0, 64, 89
1, 685601, Control_c, 0, 64, 56
1, 685615, Note_on_c, 0, 72, 92
1, 685616, Control_c, 0, 64, 0
1, 685675, Control_c, 0, 64, 44
1, 685697, Control_c, 0, 64, 66
1, 685712, Note_off_c, 0, 72, 65
1, 685712, Control_c, 0, 64, 77
1, 685719, Note_on_c, 0, 71, 83
1, 685727, Control_c, 0, 64, 95
1, 685742, Control_c, 0, 64, 113
1, 685757, Control_c, 0, 64, 127
1, 685800, Note_off_c, 0, 62, 61
1, 685810, Note_on_c, 0, 72, 86
1, 685816, Note_off_c, 0, 71, 55
1, 685859, Note_off_c, 0, 72, 65
1, 685908, Note_on_c, 0, 59, 90
1, 685919, Control_c, 0, 64, 92
1, 685934, Control_c, 0, 64, 63
1, 685949, Control_c, 0, 64, 42
1, 685958, Note_off_c, 0, 59, 53
1, 685964, Control_c, 0, 64, 41
1, 685978, Control_c, 0, 64, 54
1, 685993, Control_c, 0, 64, 67
1, 686003, Note_on_c, 0, 53, 92
1, 686008, Note_on_c, 0, 41, 80
1, 686008, Control_c, 0, 64, 85
1, 686023, Control_c, 0, 64, 127
1, 686027, Note_on_c, 0, 73, 86
1, 686078, Note_off_c, 0, 73, 65
1, 686108, Note_off_c, 0, 53, 58
1, 686113, Note_off_c, 0, 41, 64
1, 686162, Note_on_c, 0, 74, 83
1, 686237, Note_off_c, 0, 74, 59
1, 686269, Note_on_c, 0, 67, 85
1, 686365, Note_off_c, 0, 67, 60
1, 686385, Note_on_c, 0, 60, 82
1, 686388, Note_on_c, 0, 53, 87
1, 686394, Control_c, 0, 64, 77
1, 686397, Note_on_c, 0, 41, 74
1, 686409, Control_c, 0, 64, 56
1, 686424, Control_c, 0, 64, 31
1, 686447, Control_c, 0, 64, 0
1, 686461, Control_c, 0, 64, 41
1, 686476, Control_c, 0, 64, 58
1, 686491, Control_c, 0, 64, 66
1, 686506, Control_c, 0, 64, 75
1, 686517, Note_on_c, 0, 67, 68
1, 686518, Note_off_c, 0, 60, 51
1, 686521, Control_c, 0, 64, 83
1, 686535, Control_c, 0, 64, 90
1, 686539, Note_off_c, 0, 53, 54
1, 686550, Control_c, 0, 64, 98
1, 686565, Control_c, 0, 64, 105
1, 686580, Control_c, 0, 64, 119
1, 686590, Note_off_c, 0, 41, 60
1, 686595, Control_c, 0, 64, 127
1, 686611, Note_on_c, 0, 66, 80
1, 686611, Note_off_c, 0, 67, 61
1, 686715, Note_on_c, 0, 67, 79
1, 686718, Note_on_c, 0, 52, 76
1, 686721, Note_on_c, 0, 61, 68
1, 686729, Note_off_c, 0, 66, 62
1, 686732, Note_on_c, 0, 40, 66
1, 686742, Control_c, 0, 64, 81
1, 686757, Control_c, 0, 64, 58
1, 686772, Control_c, 0, 64, 36
1, 686787, Control_c, 0, 64, 28
1, 686801, Control_c, 0, 64, 37
1, 686816, Control_c, 0, 64, 54
1, 686817, Note_on_c, 0, 69, 73
1, 686831, Control_c, 0, 64, 65
1, 686837, Note_off_c, 0, 52, 55
1, 686843, Note_off_c, 0, 67, 59
1, 686846, Control_c, 0, 64, 73
1, 686861, Control_c, 0, 64, 84
1, 686866, Note_off_c, 0, 40, 57
1, 686876, Control_c, 0, 64, 93
1, 686891, Control_c, 0, 64, 107
1, 686906, Control_c, 0, 64, 127
1, 686921, Note_on_c, 0, 70, 82
1, 686935, Note_off_c, 0, 69, 60
1, 686955, Note_off_c, 0, 70, 61
1, 686963, Note_off_c, 0, 61, 64
1, 686995, Control_c, 0, 64, 76
1, 687010, Control_c, 0, 64, 48
1, 687022, Note_on_c, 0, 70, 87
1, 687025, Control_c, 0, 64, 0
1, 687069, Control_c, 0, 64, 39
1, 687084, Control_c, 0, 64, 58
1, 687099, Control_c, 0, 64, 68
1, 687114, Control_c, 0, 64, 82
1, 687118, Note_on_c, 0, 68, 74
1, 687121, Note_off_c, 0, 70, 62
1, 687129, Control_c, 0, 64, 103
1, 687144, Control_c, 0, 64, 127
1, 687240, Note_on_c, 0, 69, 66
1, 687248, Note_off_c, 0, 68, 62
1, 687266, Note_off_c, 0, 69, 68
1, 687314, Control_c, 0, 64, 77
1, 687324, Note_on_c, 0, 67, 89
1, 687329, Note_on_c, 0, 50, 80
1, 687329, Control_c, 0, 64, 55
1, 687335, Note_on_c, 0, 38, 72
1, 687344, Control_c, 0, 64, 28
1, 687346, Note_on_c, 0, 62, 73
1, 687359, Control_c, 0, 64, 30
1, 687374, Control_c, 0, 64, 52
1, 687388, Control_c, 0, 64, 66
1, 687403, Control_c, 0, 64, 78
1, 687418, Control_c, 0, 64, 101
1, 687433, Control_c, 0, 64, 127
1, 687439, Note_on_c, 0, 64, 78
1, 687451, Note_off_c, 0, 50, 56
1, 687472, Note_off_c, 0, 62, 62
1, 687472, Note_off_c, 0, 67, 60
1, 687487, Note_off_c, 0, 38, 53
1, 687518, Note_off_c, 0, 64, 64
1, 687531, Note_on_c, 0, 65, 75
1, 687573, Note_off_c, 0, 65, 60
1, 687611, Control_c, 0, 64, 84
1, 687625, Control_c, 0, 64, 61
1, 687630, Note_on_c, 0, 50, 92
1, 687635, Note_on_c, 0, 38, 75
1, 687636, Note_on_c, 0, 64, 77
1, 687639, Note_on_c, 0, 55, 83
1, 687640, Control_c, 0, 64, 49
1, 687655, Control_c, 0, 64, 54
1, 687669, Control_c, 0, 64, 65
1, 687684, Control_c, 0, 64, 77
1, 687686, Note_off_c, 0, 50, 60
1, 687699, Control_c, 0, 64, 107
1, 687707, Note_off_c, 0, 55, 53
1, 687713, Note_off_c, 0, 38, 58
1, 687714, Control_c, 0, 64, 127
1, 687740, Note_on_c, 0, 67, 74
1, 687779, Note_off_c, 0, 64, 62
1, 687824, Note_on_c, 0, 70, 79
1, 687833, Note_off_c, 0, 67, 61
1, 687865, Note_off_c, 0, 70, 66
1, 687891, Control_c, 0, 64, 99
1, 687906, Control_c, 0, 64, 71
1, 687922, Control_c, 0, 64, 62
1, 687929, Note_on_c, 0, 49, 98
1, 687944, Note_on_c, 0, 37, 88
1, 687944, Control_c, 0, 64, 64
1, 687956, Note_on_c, 0, 52, 90
1, 687959, Control_c, 0, 64, 72
1, 687973, Control_c, 0, 64, 87
1, 687988, Control_c, 0, 64, 127
1, 688006, Note_off_c, 0, 52, 61
1, 688052, Note_off_c, 0, 37, 56
1, 688053, Note_off_c, 0, 49, 56
1, 688060, Note_on_c, 0, 69, 82
1, 688135, Poly_aftertouch_c, 0, 67, 127
1, 688147, Note_off_c, 0, 69, 60
1, 688159, Note_on_c, 0, 64, 73
1, 688168, Poly_aftertouch_c, 0, 67, 0
1, 688240, Control_c, 0, 64, 90
1, 688244, Note_on_c, 0, 54, 85
1, 688251, Note_on_c, 0, 48, 107
1, 688253, Note_off_c, 0, 64, 62
1, 688255, Control_c, 0, 64, 63
1, 688256, Note_on_c, 0, 36, 94
1, 688256, Note_on_c, 0, 63, 78
1, 688270, Control_c, 0, 64, 46
1, 688285, Control_c, 0, 64, 50
1, 688299, Control_c, 0, 64, 61
1, 688314, Control_c, 0, 64, 74
1, 688329, Control_c, 0, 64, 121
1, 688338, Note_off_c, 0, 48, 63
1, 688344, Control_c, 0, 64, 127
1, 688349, Note_on_c, 0, 66, 80
1, 688350, Note_off_c, 0, 54, 57
1, 688359, Note_off_c, 0, 36, 59
1, 688360, Note_off_c, 0, 63, 61
1, 688456, Note_on_c, 0, 69, 79
1, 688522, Note_off_c, 0, 66, 54
1, 688533, Note_off_c, 0, 69, 58
1, 688556, Note_on_c, 0, 55, 92
1, 688557, Note_on_c, 0, 46, 99
1, 688566, Note_on_c, 0, 34, 96
1, 688566, Control_c, 0, 64, 73
1, 688581, Control_c, 0, 64, 46
1, 688596, Control_c, 0, 64, 0
1, 688610, Control_c, 0, 64, 34
1, 688625, Control_c, 0, 64, 51
1, 688640, Control_c, 0, 64, 65
1, 688655, Control_c, 0, 64, 78
1, 688659, Note_on_c, 0, 62, 73
1, 688670, Control_c, 0, 64, 100
1, 688691, Control_c, 0, 64, 127
1, 688729, Note_off_c, 0, 55, 57
1, 688732, Note_off_c, 0, 46, 53
1, 688751, Note_off_c, 0, 34, 53
1, 688762, Note_on_c, 0, 67, 82
1, 688816, Note_off_c, 0, 62, 56
1, 688870, Note_on_c, 0, 57, 96
1, 688870, Control_c, 0, 64, 71
1, 688883, Note_on_c, 0, 45, 98
1, 688885, Control_c, 0, 64, 30
1, 688887, Note_on_c, 0, 33, 91
1, 688900, Control_c, 0, 64, 0
1, 688919, Note_off_c, 0, 67, 60
1, 688930, Control_c, 0, 64, 33
1, 688944, Control_c, 0, 64, 58
1, 688959, Control_c, 0, 64, 70
1, 688974, Control_c, 0, 64, 84
1, 688977, Note_off_c, 0, 45, 56
1, 688983, Note_on_c, 0, 64, 84
1, 688989, Control_c, 0, 64, 99
1, 688992, Note_off_c, 0, 33, 61
1, 689004, Control_c, 0, 64, 122
1, 689019, Control_c, 0, 64, 127
1, 689088, Note_on_c, 0, 65, 86
1, 689118, Note_off_c, 0, 64, 64
1, 689166, Note_off_c, 0, 57, 55
1, 689198, Note_on_c, 0, 43, 103
1, 689200, Note_on_c, 0, 31, 88
1, 689219, Note_off_c, 0, 65, 59
1, 689260, Note_off_c, 0, 31, 61
1, 689260, Note_off_c, 0, 43, 62
1, 689301, Note_on_c, 0, 64, 102
1, 689358, Note_off_c, 0, 64, 64
1, 689377, Note_on_c, 0, 45, 96
1, 689381, Note_on_c, 0, 33, 91
1, 689419, Note_off_c, 0, 45, 65
1, 689423, Note_off_c, 0, 33, 56
1, 689451, Note_on_c, 0, 65, 98
1, 689531, Control_c, 0, 64, 99
1, 689538, Note_off_c, 0, 65, 61
1, 689545, Control_c, 0, 64, 61
1, 689560, Control_c, 0, 64, 0
1, 689566, Note_on_c, 0, 41, 101
1, 689568, Note_on_c, 0, 29, 93
1, 689570, Note_on_c, 0, 62, 103
1, 689598, Note_off_c, 0, 29, 69
1, 689605, Control_c, 0, 64, 63
1, 689611, Note_off_c, 0, 62, 70
1, 689619, Control_c, 0, 64, 80
1, 689620, Note_off_c, 0, 41, 67
1, 689634, Control_c, 0, 64, 127
1, 689705, Poly_aftertouch_c, 0, 31, 0
1, 689711, Note_on_c, 0, 45, 85
1, 689818, Note_on_c, 0, 46, 92
1, 689829, Note_off_c, 0, 45, 54
1, 689878, Note_off_c, 0, 46, 63
1, 689976, Note_on_c, 0, 47, 91
1, 690005, Note_on_c, 0, 48, 56
1, 690019, Control_c, 0, 64, 92
1, 690029, Note_on_c, 0, 75, 100
1, 690033, Note_off_c, 0, 48, 55
1, 690034, Control_c, 0, 64, 56
1, 690038, Note_on_c, 0, 69, 94
1, 690049, Control_c, 0, 64, 0
1, 690050, Note_on_c, 0, 81, 89
1, 690167, Control_c, 0, 64, 41
1, 690190, Control_c, 0, 64, 81
1, 690205, Control_c, 0, 64, 127
1, 690208, Note_on_c, 0, 48, 80
1, 690217, Note_off_c, 0, 81, 57
1, 690235, Note_off_c, 0, 69, 58
1, 690236, Note_off_c, 0, 47, 63
1, 690276, Note_off_c, 0, 75, 62
1, 690320, Note_off_c, 0, 48, 62
1, 690335, Note_on_c, 0, 54, 91
1, 690375, Note_off_c, 0, 54, 63
1, 690491, Note_on_c, 0, 75, 107
1, 690495, Note_on_c, 0, 70, 105
1, 690502, Note_on_c, 0, 82, 95
1, 690516, Control_c, 0, 64, 82
1, 690531, Control_c, 0, 64, 33
1, 690546, Control_c, 0, 64, 0
1, 690634, Note_on_c, 0, 53, 68
1, 690635, Control_c, 0, 64, 63
1, 690650, Control_c, 0, 64, 80
1, 690664, Control_c, 0, 64, 97
1, 690679, Control_c, 0, 64, 115
1, 690694, Control_c, 0, 64, 127
1, 690700, Note_off_c, 0, 75, 53
1, 690723, Note_off_c, 0, 70, 54
1, 690731, Note_off_c, 0, 53, 59
1, 690739, Note_on_c, 0, 52, 81
1, 690829, Note_off_c, 0, 82, 63
1, 690833, Note_on_c, 0, 74, 103
1, 690838, Note_on_c, 0, 53, 78
1, 690843, Control_c, 0, 64, 101
1, 690845, Note_off_c, 0, 52, 63
1, 690846, Note_on_c, 0, 70, 90
1, 690858, Control_c, 0, 64, 68
1, 690873, Control_c, 0, 64, 41
1, 690887, Control_c, 0, 64, 0
1, 690902, Control_c, 0, 64, 38
1, 690917, Control_c, 0, 64, 57
1, 690939, Control_c, 0, 64, 71
1, 690941, Note_on_c, 0, 55, 75
1, 690943, Note_off_c, 0, 53, 61
1, 690954, Control_c, 0, 64, 88
1, 690969, Control_c, 0, 64, 127
1, 690992, Note_off_c, 0, 70, 62
1, 691022, Note_off_c, 0, 55, 62
1, 691022, Note_off_c, 0, 74, 53
1, 691028, Note_on_c, 0, 56, 85
1, 691075, Note_off_c, 0, 56, 65
1, 691132, Control_c, 0, 64, 77
1, 691139, Note_on_c, 0, 56, 89
1, 691147, Control_c, 0, 64, 28
1, 691162, Control_c, 0, 64, 0
1, 691222, Control_c, 0, 64, 49
1, 691228, Note_off_c, 0, 56, 64
1, 691237, Control_c, 0, 64, 68
1, 691237, Note_on_c, 0, 55, 76
1, 691251, Control_c, 0, 64, 80
1, 691266, Control_c, 0, 64, 91
1, 691281, Control_c, 0, 64, 100
1, 691296, Control_c, 0, 64, 127
1, 691323, Note_on_c, 0, 56, 87
1, 691347, Note_off_c, 0, 55, 62
1, 691414, Control_c, 0, 64, 79
1, 691427, Note_on_c, 0, 57, 78
1, 691429, Control_c, 0, 64, 57
1, 691434, Note_on_c, 0, 73, 97
1, 691438, Note_on_c, 0, 67, 98
1, 691440, Note_on_c, 0, 79, 87
1, 691443, Control_c, 0, 64, 48
1, 691458, Control_c, 0, 64, 60
1, 691465, Note_off_c, 0, 56, 36
1, 691473, Control_c, 0, 64, 72
1, 691478, Note_off_c, 0, 67, 63
1, 691479, Note_off_c, 0, 57, 65
1, 691481, Note_off_c, 0, 79, 64
1, 691487, Control_c, 0, 64, 94
1, 691502, Control_c, 0, 64, 127
1, 691510, Note_off_c, 0, 73, 66
1, 691535, Note_on_c, 0, 58, 86
1, 691618, Note_off_c, 0, 58, 55
1, 691624, Note_on_c, 0, 51, 82
1, 691716, Note_off_c, 0, 51, 59
1, 691747, Control_c, 0, 64, 94
1, 691750, Note_on_c, 0, 73, 101
1, 691752, Note_on_c, 0, 68, 98
1, 691757, Note_on_c, 0, 80, 95
1, 691761, Control_c, 0, 64, 53
1, 691776, Control_c, 0, 64, 0
1, 691795, Note_on_c, 0, 78, 37
1, 691821, Control_c, 0, 64, 48
1, 691829, Note_off_c, 0, 78, 34
1, 691835, Control_c, 0, 64, 66
1, 691850, Control_c, 0, 64, 77
1, 691857, Note_on_c, 0, 51, 82
1, 691865, Control_c, 0, 64, 101
1, 691880, Control_c, 0, 64, 127
1, 691949, Note_off_c, 0, 51, 61
1, 691957, Note_on_c, 0, 50, 74
1, 691958, Note_off_c, 0, 73, 56
1, 691964, Note_off_c, 0, 68, 54
1, 692004, Note_off_c, 0, 80, 60
1, 692052, Note_on_c, 0, 51, 80
1, 692056, Note_on_c, 0, 72, 92
1, 692066, Note_on_c, 0, 69, 87
1, 692066, Note_off_c, 0, 50, 61
1, 692072, Note_on_c, 0, 81, 83
1, 692073, Control_c, 0, 64, 92
1, 692088, Control_c, 0, 64, 65
1, 692103, Control_c, 0, 64, 42
1, 692118, Control_c, 0, 64, 35
1, 692132, Control_c, 0, 64, 48
1, 692137, Note_off_c, 0, 51, 55
1, 692147, Control_c, 0, 64, 63
1, 692151, Note_on_c, 0, 53, 78
1, 692162, Control_c, 0, 64, 76
1, 692177, Control_c, 0, 64, 99
1, 692192, Control_c, 0, 64, 127
1, 692200, Note_off_c, 0, 53, 64
1, 692208, Note_off_c, 0, 81, 56
1, 692230, Note_off_c, 0, 69, 54
1, 692248, Note_on_c, 0, 54, 88
1, 692260, Note_off_c, 0, 72, 56
1, 692281, Note_off_c, 0, 54, 61
1, 692325, Control_c, 0, 64, 95
1, 692340, Control_c, 0, 64, 63
1, 692348, Note_on_c, 0, 54, 77
1, 692355, Control_c, 0, 64, 0
1, 692384, Control_c, 0, 64, 37
1, 692399, Control_c, 0, 64, 58
1, 692414, Control_c, 0, 64, 69
1, 692415, Note_off_c, 0, 54, 53
1, 692436, Control_c, 0, 64, 80
1, 692450, Note_on_c, 0, 52, 75
1, 692451, Control_c, 0, 64, 94
1, 692465, Control_c, 0, 64, 116
1, 692480, Control_c, 0, 64, 127
1, 692501, Note_off_c, 0, 52, 60
1, 692538, Note_on_c, 0, 53, 87
1, 692638, Note_off_c, 0, 53, 42
1, 692643, Note_on_c, 0, 51, 83
1, 692644, Control_c, 0, 64, 81
1, 692651, Note_on_c, 0, 82, 90
1, 692653, Note_on_c, 0, 70, 93
1, 692658, Control_c, 0, 64, 58
1, 692673, Control_c, 0, 64, 45
1, 692688, Control_c, 0, 64, 55
1, 692696, Note_off_c, 0, 82, 67
1, 692703, Control_c, 0, 64, 63
1, 692711, Note_off_c, 0, 70, 64
1, 692718, Control_c, 0, 64, 72
1, 692724, Note_off_c, 0, 51, 58
1, 692733, Control_c, 0, 64, 87
1, 692742, Note_on_c, 0, 48, 81
1, 692748, Control_c, 0, 64, 114
1, 692763, Control_c, 0, 64, 127
1, 692826, Note_on_c, 0, 49, 83
1, 692830, Note_off_c, 0, 48, 63
1, 692911, Control_c, 0, 64, 105
1, 692915, Note_off_c, 0, 49, 61
1, 692926, Control_c, 0, 64, 67
1, 692928, Note_on_c, 0, 70, 101
1, 692934, Note_on_c, 0, 48, 83
1, 692935, Note_on_c, 0, 75, 90
1, 692939, Note_on_c, 0, 63, 94
1, 692941, Control_c, 0, 64, 29
1, 692955, Control_c, 0, 64, 0
1, 692985, Control_c, 0, 64, 37
1, 693000, Control_c, 0, 64, 59
1, 693015, Control_c, 0, 64, 70
1, 693029, Control_c, 0, 64, 87
1, 693044, Control_c, 0, 64, 118
1, 693048, Note_on_c, 0, 51, 80
1, 693048, Note_off_c, 0, 75, 58
1, 693059, Control_c, 0, 64, 127
1, 693061, Note_off_c, 0, 70, 59
1, 693106, Note_off_c, 0, 63, 62
1, 693137, Note_on_c, 0, 54, 78
1, 693198, Note_off_c, 0, 51, 55
1, 693216, Note_off_c, 0, 48, 50
1, 693234, Note_on_c, 0, 69, 100
1, 693241, Note_off_c, 0, 54, 58
1, 693244, Control_c, 0, 64, 107
1, 693255, Note_on_c, 0, 60, 82
1, 693255, Note_on_c, 0, 72, 78
1, 693259, Control_c, 0, 64, 71
1, 693274, Control_c, 0, 64, 51
1, 693288, Control_c, 0, 64, 50
1, 693303, Control_c, 0, 64, 60
1, 693318, Control_c, 0, 64, 72
1, 693333, Control_c, 0, 64, 95
1, 693348, Control_c, 0, 64, 127
1, 693357, Note_on_c, 0, 53, 75
1, 693364, Note_off_c, 0, 72, 61
1, 693424, Note_off_c, 0, 60, 57
1, 693441, Note_on_c, 0, 48, 76
1, 693472, Note_off_c, 0, 53, 55
1, 693526, Control_c, 0, 64, 121
1, 693531, Note_on_c, 0, 68, 101
1, 693541, Control_c, 0, 64, 71
1, 693544, Note_on_c, 0, 62, 90
1, 693546, Note_on_c, 0, 74, 88
1, 693556, Control_c, 0, 64, 46
1, 693561, Note_off_c, 0, 69, 57
1, 693563, Note_on_c, 0, 47, 73
1, 693571, Control_c, 0, 64, 0
1, 693586, Control_c, 0, 64, 34
1, 693595, Note_off_c, 0, 48, 38
1, 693598, Note_off_c, 0, 74, 63
1, 693601, Control_c, 0, 64, 55
1, 693616, Control_c, 0, 64, 67
1, 693627, Note_on_c, 0, 50, 53
1, 693630, Control_c, 0, 64, 81
1, 693639, Note_off_c, 0, 62, 55
1, 693645, Control_c, 0, 64, 112
1, 693648, Note_off_c, 0, 68, 64
1, 693660, Control_c, 0, 64, 127
1, 693724, Note_off_c, 0, 47, 59
1, 693748, Note_on_c, 0, 53, 73
1, 693764, Note_off_c, 0, 50, 63
1, 693844, Note_on_c, 0, 66, 90
1, 693846, Note_on_c, 0, 63, 97
1, 693846, Note_on_c, 0, 75, 94
1, 693862, Note_off_c, 0, 53, 52
1, 693924, Note_off_c, 0, 66, 63
1, 693927, Note_on_c, 0, 46, 66
1, 693984, Note_off_c, 0, 63, 59
1, 694021, Note_off_c, 0, 46, 62
1, 694048, Note_on_c, 0, 51, 85
1, 694138, Note_off_c, 0, 51, 60
1, 694179, Note_off_c, 0, 75, 59
1, 694186, Control_c, 0, 64, 79
1, 694194, Note_on_c, 0, 41, 83
1, 694197, Note_on_c, 0, 65, 95
1, 694198, Note_on_c, 0, 77, 89
1, 694200, Note_on_c, 0, 70, 61
1, 694201, Control_c, 0, 64, 42
1, 694216, Control_c, 0, 64, 0
1, 694260, Control_c, 0, 64, 47
1, 694275, Control_c, 0, 64, 62
1, 694277, Note_off_c, 0, 77, 64
1, 694290, Control_c, 0, 64, 71
1, 694306, Control_c, 0, 64, 87
1, 694321, Control_c, 0, 64, 108
1, 694322, Note_off_c, 0, 65, 63
1, 694325, Note_off_c, 0, 70, 64
1, 694329, Note_on_c, 0, 48, 77
1, 694335, Control_c, 0, 64, 127
1, 694438, Note_on_c, 0, 49, 82
1, 694447, Note_off_c, 0, 48, 59
1, 694553, Note_on_c, 0, 63, 100
1, 694553, Note_on_c, 0, 69, 92
1, 694592, Note_off_c, 0, 49, 55
1, 694668, Note_on_c, 0, 48, 83
1, 694689, Note_off_c, 0, 63, 55
1, 694710, Note_off_c, 0, 69, 52
1, 694759, Note_on_c, 0, 65, 95
1, 694796, Note_on_c, 0, 49, 79
1, 694798, Note_off_c, 0, 41, 64
1, 694818, Note_off_c, 0, 48, 60
1, 694837, Note_off_c, 0, 49, 62
1, 694859, Note_off_c, 0, 65, 52
1, 694950, Control_c, 0, 64, 73
1, 694965, Control_c, 0, 64, 42
1, 694976, Note_on_c, 0, 70, 89
1, 694978, Note_on_c, 0, 61, 96
1, 694980, Control_c, 0, 64, 0
1, 694986, Note_on_c, 0, 46, 93
1, 694989, Note_on_c, 0, 34, 81
1, 694994, Control_c, 0, 64, 30
1, 695009, Control_c, 0, 64, 53
1, 695024, Control_c, 0, 64, 70
1, 695025, Note_off_c, 0, 34, 67
1, 695031, Note_off_c, 0, 61, 65
1, 695032, Note_off_c, 0, 70, 65
1, 695039, Control_c, 0, 64, 84
1, 695045, Note_off_c, 0, 46, 62
1, 695054, Control_c, 0, 64, 108
1, 695068, Control_c, 0, 64, 127
1, 695148, Note_on_c, 0, 58, 104
1, 695266, Note_on_c, 0, 61, 92
1, 695294, Note_off_c, 0, 58, 63
1, 695306, Control_c, 0, 64, 93
1, 695321, Control_c, 0, 64, 60
1, 695336, Control_c, 0, 64, 0
1, 695395, Note_on_c, 0, 57, 97
1, 695402, Note_on_c, 0, 54, 82
1, 695404, Note_on_c, 0, 51, 81
1, 695447, Control_c, 0, 64, 45
1, 695462, Control_c, 0, 64, 89
1, 695477, Control_c, 0, 64, 127
1, 695504, Note_off_c, 0, 57, 63
1, 695507, Note_on_c, 0, 60, 84
1, 695541, Note_off_c, 0, 61, 60
1, 695559, Note_off_c, 0, 54, 60
1, 695568, Note_off_c, 0, 51, 57
1, 695608, Note_on_c, 0, 61, 83
1, 695612, Note_off_c, 0, 60, 61
1, 695638, Note_off_c, 0, 61, 66
1, 695692, Note_on_c, 0, 58, 96
1, 695699, Note_on_c, 0, 49, 74
1, 695703, Note_on_c, 0, 53, 78
1, 695738, Note_off_c, 0, 49, 61
1, 695742, Note_off_c, 0, 53, 61
1, 695744, Note_off_c, 0, 58, 60
1, 695773, Control_c, 0, 64, 117
1, 695788, Control_c, 0, 64, 78
1, 695794, Note_on_c, 0, 70, 101
1, 695802, Control_c, 0, 64, 58
1, 695817, Control_c, 0, 64, 0
1, 695877, Note_on_c, 0, 73, 87
1, 695902, Note_off_c, 0, 70, 65
1, 695979, Note_on_c, 0, 69, 96
1, 695982, Note_on_c, 0, 66, 90
1, 695985, Note_on_c, 0, 63, 82
1, 696024, Control_c, 0, 64, 76
1, 696036, Note_off_c, 0, 73, 53
1, 696039, Control_c, 0, 64, 127
1, 696057, Note_off_c, 0, 69, 58
1, 696072, Note_off_c, 0, 66, 65
1, 696072, Note_on_c, 0, 72, 85
1, 696081, Note_off_c, 0, 63, 60
1, 696130, Note_off_c, 0, 72, 62
1, 696167, Note_on_c, 0, 73, 86
1, 696208, Note_off_c, 0, 73, 61
1, 696283, Note_on_c, 0, 70, 67
1, 696298, Control_c, 0, 67, 58
1, 696300, Note_on_c, 0, 61, 58
1, 696301, Note_off_c, 0, 70, 67
1, 696303, Note_on_c, 0, 65, 60
1, 696313, Control_c, 0, 67, 103
1, 696328, Control_c, 0, 67, 127
1, 696334, Note_off_c, 0, 65, 64
1, 696342, Note_off_c, 0, 61, 65
1, 696430, Note_on_c, 0, 57, 79
1, 696476, Control_c, 0, 64, 99
1, 696491, Control_c, 0, 64, 78
1, 696505, Control_c, 0, 64, 63
1, 696520, Control_c, 0, 64, 48
1, 696525, Note_off_c, 0, 57, 62
1, 696535, Control_c, 0, 64, 31
1, 696541, Note_on_c, 0, 58, 74
1, 696550, Control_c, 0, 64, 0
1, 696608, Note_off_c, 0, 58, 63
1, 696623, Note_on_c, 0, 54, 65
1, 696625, Note_on_c, 0, 57, 67
1, 696629, Note_on_c, 0, 51, 59
1, 696632, Note_on_c, 0, 59, 78
1, 696657, Note_off_c, 0, 57, 62
1, 696660, Note_off_c, 0, 54, 62
1, 696663, Note_off_c, 0, 51, 60
1, 696716, Note_off_c, 0, 59, 61
1, 696717, Note_on_c, 0, 60, 75
1, 696805, Note_off_c, 0, 60, 62
1, 696814, Note_on_c, 0, 66, 79
1, 696906, Control_c, 0, 64, 48
1, 696909, Note_on_c, 0, 59, 68
1, 696924, Note_on_c, 0, 56, 66
1, 696928, Control_c, 0, 64, 65
1, 696943, Control_c, 0, 64, 87
1, 696946, Note_off_c, 0, 59, 64
1, 696955, Note_off_c, 0, 56, 64
1, 696958, Control_c, 0, 64, 112
1, 696962, Note_on_c, 0, 50, 16
1, 696973, Control_c, 0, 64, 115
1, 697003, Control_c, 0, 64, 125
1, 697008, Note_off_c, 0, 66, 0
1, 697014, Note_off_c, 0, 50, 49
1, 697017, Control_c, 0, 64, 127
1, 697021, Note_on_c, 0, 65, 76
1, 697045, Poly_aftertouch_c, 0, 66, 127
1, 697073, Note_off_c, 0, 65, 63
1, 697100, Poly_aftertouch_c, 0, 66, 0
1, 697106, Control_c, 0, 64, 102
1, 697112, Note_on_c, 0, 64, 77
1, 697115, Note_on_c, 0, 47, 71
1, 697121, Control_c, 0, 64, 73
1, 697136, Control_c, 0, 64, 51
1, 697151, Control_c, 0, 64, 0
1, 697157, Note_off_c, 0, 47, 59
1, 697171, Note_on_c, 0, 56, 72
1, 697180, Note_off_c, 0, 64, 61
1, 697180, Control_c, 0, 64, 46
1, 697195, Control_c, 0, 64, 65
1, 697210, Note_on_c, 0, 65, 73
1, 697210, Control_c, 0, 64, 76
1, 697224, Note_on_c, 0, 62, 68
1, 697225, Control_c, 0, 64, 96
1, 697236, Note_off_c, 0, 56, 64
1, 697240, Control_c, 0, 64, 121
1, 697250, Note_off_c, 0, 62, 65
1, 697254, Control_c, 0, 64, 127
1, 697265, Note_off_c, 0, 65, 61
1, 697300, Note_on_c, 0, 66, 84
1, 697395, Note_on_c, 0, 68, 76
1, 697397, Note_off_c, 0, 66, 61
1, 697411, Note_on_c, 0, 46, 65
1, 697432, Control_c, 0, 64, 88
1, 697446, Control_c, 0, 64, 61
1, 697460, Note_on_c, 0, 54, 65
1, 697461, Control_c, 0, 64, 0
1, 697479, Note_off_c, 0, 46, 62
1, 697512, Note_on_c, 0, 61, 77
1, 697528, Note_off_c, 0, 54, 62
1, 697530, Note_off_c, 0, 68, 61
1, 697538, Note_off_c, 0, 61, 66
1, 697584, Note_on_c, 0, 65, 74
1, 697678, Note_off_c, 0, 65, 60
1, 697691, Note_on_c, 0, 66, 80
1, 697765, Note_off_c, 0, 66, 64
1, 697785, Note_on_c, 0, 65, 74
1, 697789, Note_on_c, 0, 62, 61
1, 697795, Note_on_c, 0, 59, 60
1, 697797, Control_c, 0, 64, 42
1, 697798, Note_on_c, 0, 67, 75
1, 697811, Control_c, 0, 64, 62
1, 697816, Note_off_c, 0, 62, 65
1, 697819, Note_off_c, 0, 65, 58
1, 697826, Control_c, 0, 64, 66
1, 697834, Note_off_c, 0, 59, 66
1, 697841, Control_c, 0, 64, 69
1, 697856, Control_c, 0, 64, 72
1, 697871, Control_c, 0, 64, 77
1, 697879, Note_off_c, 0, 67, 55
1, 697885, Control_c, 0, 64, 82
1, 697887, Note_on_c, 0, 68, 80
1, 697900, Control_c, 0, 64, 86
1, 697915, Control_c, 0, 64, 88
1, 697930, Control_c, 0, 64, 89
1, 697937, Note_off_c, 0, 68, 61
1, 697975, Note_on_c, 0, 74, 83
1, 697989, Control_c, 0, 64, 85
1, 698003, Control_c, 0, 64, 72
1, 698018, Control_c, 0, 64, 53
1, 698033, Control_c, 0, 64, 0
1, 698081, Note_on_c, 0, 58, 54
1, 698081, Note_on_c, 0, 67, 72
1, 698090, Note_on_c, 0, 64, 64
1, 698093, Control_c, 0, 64, 49
1, 698104, Note_off_c, 0, 58, 62
1, 698104, Note_off_c, 0, 74, 61
1, 698108, Control_c, 0, 64, 64
1, 698112, Note_off_c, 0, 67, 62
1, 698121, Note_off_c, 0, 64, 65
1, 698123, Control_c, 0, 64, 71
1, 698138, Control_c, 0, 64, 81
1, 698152, Control_c, 0, 64, 88
1, 698167, Control_c, 0, 64, 93
1, 698174, Note_on_c, 0, 73, 73
1, 698182, Control_c, 0, 64, 98
1, 698211, Control_c, 0, 64, 100
1, 698227, Note_off_c, 0, 73, 62
1, 698255, Control_c, 0, 64, 92
1, 698266, Note_on_c, 0, 55, 61
1, 698266, Note_on_c, 0, 72, 72
1, 698269, Control_c, 0, 64, 75
1, 698284, Control_c, 0, 64, 51
1, 698299, Note_off_c, 0, 55, 64
1, 698300, Control_c, 0, 64, 0
1, 698316, Note_on_c, 0, 64, 58
1, 698330, Control_c, 0, 64, 42
1, 698333, Note_off_c, 0, 72, 62
1, 698345, Control_c, 0, 64, 61
1, 698360, Control_c, 0, 64, 71
1, 698363, Note_on_c, 0, 73, 74
1, 698374, Control_c, 0, 64, 82
1, 698377, Note_off_c, 0, 64, 64
1, 698386, Note_on_c, 0, 70, 74
1, 698389, Control_c, 0, 64, 93
1, 698404, Control_c, 0, 64, 100
1, 698409, Note_off_c, 0, 70, 70
1, 698409, Note_off_c, 0, 73, 65
1, 698426, Control_c, 0, 64, 109
1, 698441, Control_c, 0, 64, 115
1, 698456, Control_c, 0, 64, 125
1, 698457, Note_on_c, 0, 74, 81
1, 698471, Control_c, 0, 64, 127
1, 698528, Note_off_c, 0, 74, 55
1, 698555, Note_on_c, 0, 76, 71
1, 698567, Note_on_c, 0, 54, 58
1, 698589, Control_c, 0, 64, 91
1, 698604, Control_c, 0, 64, 63
1, 698615, Note_on_c, 0, 62, 62
1, 698619, Control_c, 0, 64, 0
1, 698651, Note_off_c, 0, 54, 63
1, 698678, Note_off_c, 0, 62, 63
1, 698678, Control_c, 0, 64, 51
1, 698686, Note_on_c, 0, 69, 79
1, 698693, Control_c, 0, 64, 67
1, 698707, Control_c, 0, 64, 78
1, 698716, Note_off_c, 0, 69, 62
1, 698722, Control_c, 0, 64, 95
1, 698737, Control_c, 0, 64, 127
1, 698739, Note_off_c, 0, 76, 54
1, 698767, Control_c, 0, 67, 119
1, 698773, Note_on_c, 0, 73, 70
1, 698781, Control_c, 0, 67, 105
1, 698796, Control_c, 0, 67, 96
1, 698811, Control_c, 0, 67, 91
1, 698826, Control_c, 0, 67, 89
1, 698835, Note_off_c, 0, 73, 62
1, 698841, Control_c, 0, 67, 88
1, 698871, Control_c, 0, 67, 89
1, 698874, Note_on_c, 0, 74, 71
1, 698886, Control_c, 0, 67, 90
1, 698915, Control_c, 0, 67, 91
1, 698930, Control_c, 0, 67, 92
1, 698945, Control_c, 0, 67, 94
1, 698951, Note_off_c, 0, 74, 59
1, 698960, Control_c, 0, 64, 100
1, 698960, Control_c, 0, 67, 95
1, 698973, Note_on_c, 0, 67, 85
1, 698974, Control_c, 0, 64, 72
1, 698989, Control_c, 0, 64, 52
1, 698999, Note_on_c, 0, 75, 60
1, 699004, Control_c, 0, 64, 32
1, 699018, Control_c, 0, 64, 42
1, 699033, Control_c, 0, 64, 58
1, 699048, Control_c, 0, 64, 68
1, 699048, Control_c, 0, 67, 95
1, 699049, Note_off_c, 0, 75, 59
1, 699063, Control_c, 0, 64, 79
1, 699078, Control_c, 0, 64, 93
1, 699078, Control_c, 0, 67, 97
1, 699094, Control_c, 0, 64, 107
1, 699109, Control_c, 0, 64, 127
1, 699113, Note_on_c, 0, 76, 58
1, 699123, Control_c, 0, 67, 100
1, 699145, Note_off_c, 0, 67, 54
1, 699153, Control_c, 0, 67, 103
1, 699190, Control_c, 0, 67, 105
1, 699205, Control_c, 0, 67, 107
1, 699217, Note_off_c, 0, 76, 57
1, 699220, Control_c, 0, 67, 109
1, 699231, Note_on_c, 0, 82, 52
1, 699235, Control_c, 0, 67, 112
1, 699264, Control_c, 0, 67, 115
1, 699294, Control_c, 0, 67, 122
1, 699309, Control_c, 0, 67, 127
1, 699353, Control_c, 0, 64, 100
1, 699361, Note_on_c, 0, 67, 61
1, 699368, Note_on_c, 0, 75, 63
1, 699368, Control_c, 0, 64, 79
1, 699372, Note_on_c, 0, 72, 56
1, 699383, Control_c, 0, 64, 66
1, 699397, Control_c, 0, 64, 61
1, 699412, Control_c, 0, 64, 62
1, 699427, Control_c, 0, 64, 65
1, 699442, Control_c, 0, 64, 70
1, 699456, Control_c, 0, 64, 77
1, 699471, Control_c, 0, 64, 84
1, 699479, Note_on_c, 0, 81, 53
1, 699486, Note_off_c, 0, 75, 55
1, 699486, Control_c, 0, 64, 90
1, 699501, Control_c, 0, 64, 95
1, 699516, Control_c, 0, 64, 98
1, 699527, Note_off_c, 0, 82, 31
1, 699530, Control_c, 0, 64, 100
1, 699545, Control_c, 0, 64, 103
1, 699560, Note_off_c, 0, 81, 63
1, 699560, Control_c, 0, 64, 106
1, 699574, Control_c, 0, 64, 111
1, 699577, Note_on_c, 0, 80, 64
1, 699589, Control_c, 0, 64, 121
1, 699604, Control_c, 0, 64, 127
1, 699652, Note_off_c, 0, 80, 47
1, 699661, Note_on_c, 0, 66, 66
1, 699666, Note_off_c, 0, 72, 40
1, 699673, Note_on_c, 0, 81, 67
1, 699690, Note_off_c, 0, 66, 67
1, 699704, Note_off_c, 0, 67, 43
1, 699747, Note_off_c, 0, 81, 63
1, 699761, Note_on_c, 0, 82, 63
1, 699856, Control_c, 0, 64, 106
1, 699861, Note_on_c, 0, 84, 69
1, 699871, Control_c, 0, 64, 80
1, 699873, Note_off_c, 0, 82, 62
1, 699881, Note_on_c, 0, 54, 58
1, 699886, Control_c, 0, 64, 63
1, 699902, Control_c, 0, 64, 53
1, 699911, Note_off_c, 0, 84, 61
1, 699924, Control_c, 0, 64, 56
1, 699939, Control_c, 0, 64, 62
1, 699943, Note_on_c, 0, 62, 58
1, 699953, Note_off_c, 0, 54, 62
1, 699953, Control_c, 0, 64, 67
1, 699968, Control_c, 0, 64, 75
1, 699983, Control_c, 0, 64, 86
1, 699998, Control_c, 0, 64, 98
1, 700004, Note_on_c, 0, 69, 70
1, 700013, Control_c, 0, 64, 105
1, 700016, Note_off_c, 0, 62, 59
1, 700027, Note_off_c, 0, 69, 68
1, 700027, Control_c, 0, 64, 110
1, 700042, Control_c, 0, 64, 114
1, 700057, Control_c, 0, 64, 118
1, 700072, Control_c, 0, 64, 127
1, 700090, Note_on_c, 0, 73, 61
1, 700159, Note_off_c, 0, 73, 62
1, 700206, Note_on_c, 0, 74, 57
1, 700294, Control_c, 0, 64, 104
1, 700308, Note_off_c, 0, 74, 56
1, 700309, Control_c, 0, 64, 79
1, 700312, Note_on_c, 0, 55, 83
1, 700324, Control_c, 0, 64, 60
1, 700339, Control_c, 0, 64, 49
1, 700346, Note_on_c, 0, 75, 51
1, 700353, Control_c, 0, 64, 51
1, 700368, Control_c, 0, 64, 58
1, 700383, Control_c, 0, 64, 64
1, 700397, Control_c, 0, 64, 70
1, 700412, Control_c, 0, 64, 79
1, 700427, Control_c, 0, 64, 88
1, 700439, Note_off_c, 0, 75, 60
1, 700442, Control_c, 0, 64, 94
1, 700457, Control_c, 0, 64, 99
1, 700469, Note_on_c, 0, 76, 53
1, 700472, Control_c, 0, 64, 104
1, 700487, Control_c, 0, 64, 109
1, 700495, Note_off_c, 0, 55, 54
1, 700502, Control_c, 0, 64, 113
1, 700517, Control_c, 0, 64, 119
1, 700532, Control_c, 0, 64, 127
1, 700578, Note_off_c, 0, 76, 61
1, 700592, Note_on_c, 0, 82, 48
1, 700665, Note_off_c, 0, 82, 63
1, 700748, Control_c, 0, 64, 105
1, 700749, Note_on_c, 0, 55, 63
1, 700762, Note_on_c, 0, 42, 51
1, 700763, Control_c, 0, 64, 80
1, 700772, Note_on_c, 0, 49, 47
1, 700777, Control_c, 0, 64, 63
1, 700792, Control_c, 0, 64, 48
1, 700807, Control_c, 0, 64, 44
1, 700821, Control_c, 0, 64, 48
1, 700836, Control_c, 0, 64, 57
1, 700851, Control_c, 0, 64, 62
1, 700866, Control_c, 0, 64, 66
1, 700871, Note_off_c, 0, 55, 58
1, 700881, Control_c, 0, 64, 70
1, 700895, Control_c, 0, 64, 74
1, 700910, Note_on_c, 0, 73, 59
1, 700910, Control_c, 0, 64, 78
1, 700925, Control_c, 0, 64, 80
1, 700940, Control_c, 0, 64, 82
1, 700955, Control_c, 0, 64, 83
1, 700963, Note_off_c, 0, 73, 61
1, 700969, Control_c, 0, 64, 84
1, 700984, Control_c, 0, 64, 85
1, 700999, Control_c, 0, 64, 86
1, 701014, Control_c, 0, 64, 88
1, 701026, Note_on_c, 0, 88, 62
1, 701029, Control_c, 0, 64, 89
1, 701044, Control_c, 0, 64, 90
1, 701059, Control_c, 0, 64, 91
1, 701074, Control_c, 0, 64, 92
1, 701089, Control_c, 0, 64, 94
1, 701103, Control_c, 0, 64, 95
1, 701126, Note_on_c, 0, 54, 65
1, 701132, Note_off_c, 0, 88, 60
1, 701133, Control_c, 0, 64, 98
1, 701137, Note_on_c, 0, 85, 69
1, 701148, Control_c, 0, 64, 100
1, 701163, Control_c, 0, 64, 104
1, 701177, Control_c, 0, 64, 110
1, 701192, Control_c, 0, 64, 117
1, 701198, Note_off_c, 0, 49, 53
1, 701199, Note_off_c, 0, 42, 59
1, 701207, Control_c, 0, 64, 127
1, 701225, Note_on_c, 0, 82, 73
1, 701240, Note_off_c, 0, 85, 62
1, 701243, Note_off_c, 0, 54, 58
1, 701316, Note_off_c, 0, 82, 63
1, 701317, Note_on_c, 0, 79, 74
1, 701369, Note_off_c, 0, 79, 65
1, 701414, Note_on_c, 0, 76, 74
1, 701458, Note_off_c, 0, 76, 52
1, 701511, Note_on_c, 0, 73, 85
1, 701526, Control_c, 0, 64, 83
1, 701526, Control_c, 0, 67, 96
1, 701541, Control_c, 0, 64, 62
1, 701541, Control_c, 0, 67, 69
1, 701556, Control_c, 0, 64, 52
1, 701556, Control_c, 0, 67, 47
1, 701571, Control_c, 0, 64, 59
1, 701571, Control_c, 0, 67, 0
1, 701586, Control_c, 0, 64, 67
1, 701593, Note_on_c, 0, 47, 73
1, 701600, Note_on_c, 0, 70, 89
1, 701600, Control_c, 0, 64, 82
1, 701615, Control_c, 0, 64, 127
1, 701620, Note_off_c, 0, 73, 63
1, 701655, Note_on_c, 0, 54, 75
1, 701658, Note_off_c, 0, 47, 63
1, 701677, Note_off_c, 0, 70, 61
1, 701762, Note_on_c, 0, 63, 99
1, 701783, Note_on_c, 0, 69, 102
1, 701795, Note_off_c, 0, 63, 68
1, 701809, Note_off_c, 0, 54, 60
1, 701918, Note_on_c, 0, 67, 91
1, 701935, Note_off_c, 0, 69, 63
1, 702025, Note_on_c, 0, 66, 101
1, 702031, Note_off_c, 0, 67, 65
1, 702079, Note_off_c, 0, 66, 64
1, 702103, Control_c, 0, 64, 113
1, 702117, Control_c, 0, 64, 66
1, 702132, Control_c, 0, 64, 0
1, 702137, Note_on_c, 0, 40, 99
1, 702141, Note_on_c, 0, 28, 91
1, 702169, Control_c, 0, 64, 30
1, 702184, Control_c, 0, 64, 55
1, 702194, Note_off_c, 0, 28, 62
1, 702199, Control_c, 0, 64, 72
1, 702205, Note_off_c, 0, 40, 67
1, 702214, Control_c, 0, 64, 95
1, 702229, Control_c, 0, 64, 127
1, 702252, Note_on_c, 0, 52, 93
1, 702275, Poly_aftertouch_c, 0, 31, 0
1, 702343, Note_on_c, 0, 55, 85
1, 702364, Note_off_c, 0, 52, 58
1, 702422, Control_c, 0, 64, 80
1, 702437, Control_c, 0, 64, 43
1, 702440, Note_on_c, 0, 51, 107
1, 702442, Note_off_c, 0, 55, 60
1, 702450, Note_on_c, 0, 45, 79
1, 702452, Control_c, 0, 64, 0
1, 702454, Note_on_c, 0, 48, 84
1, 702511, Control_c, 0, 64, 61
1, 702526, Control_c, 0, 64, 76
1, 702534, Note_on_c, 0, 54, 84
1, 702540, Control_c, 0, 64, 96
1, 702543, Note_off_c, 0, 51, 56
1, 702553, Note_off_c, 0, 48, 59
1, 702555, Control_c, 0, 64, 127
1, 702556, Note_off_c, 0, 45, 59
1, 702617, Note_off_c, 0, 54, 61
1, 702621, Note_on_c, 0, 55, 90
1, 702663, Note_off_c, 0, 55, 64
1, 702704, Control_c, 0, 64, 96
1, 702719, Control_c, 0, 64, 63
1, 702733, Note_on_c, 0, 52, 93
1, 702734, Control_c, 0, 64, 0
1, 702736, Note_on_c, 0, 43, 75
1, 702740, Note_on_c, 0, 47, 80
1, 702773, Note_off_c, 0, 43, 65
1, 702787, Note_off_c, 0, 52, 64
1, 702794, Note_off_c, 0, 47, 61
1, 702822, Note_on_c, 0, 64, 95
1, 702908, Note_on_c, 0, 67, 89
1, 702942, Note_off_c, 0, 64, 64
1, 703021, Note_on_c, 0, 63, 97
1, 703029, Note_on_c, 0, 60, 75
1, 703032, Note_on_c, 0, 57, 68
1, 703035, Note_off_c, 0, 67, 54
1, 703037, Control_c, 0, 64, 48
1, 703052, Control_c, 0, 64, 79
1, 703052, Control_c, 0, 67, 52
1, 703066, Control_c, 0, 64, 112
1, 703066, Control_c, 0, 67, 84
1, 703081, Control_c, 0, 64, 127
1, 703081, Control_c, 0, 67, 108
1, 703097, Control_c, 0, 67, 122
1, 703101, Note_on_c, 0, 66, 80
1, 703105, Note_off_c, 0, 63, 59
1, 703107, Note_off_c, 0, 57, 62
1, 703112, Control_c, 0, 67, 127
1, 703118, Note_off_c, 0, 60, 61
1, 703168, Note_off_c, 0, 66, 56
1, 703187, Note_on_c, 0, 67, 77
1, 703230, Note_off_c, 0, 67, 58
1, 703280, Note_on_c, 0, 64, 75
1, 703291, Note_on_c, 0, 55, 69
1, 703301, Note_off_c, 0, 64, 68
1, 703306, Note_on_c, 0, 59, 58
1, 703319, Control_c, 0, 64, 99
1, 703322, Note_off_c, 0, 55, 67
1, 703333, Note_off_c, 0, 59, 65
1, 703334, Control_c, 0, 64, 78
1, 703349, Control_c, 0, 64, 65
1, 703363, Control_c, 0, 64, 53
1, 703378, Control_c, 0, 64, 43
1, 703393, Control_c, 0, 64, 36
1, 703408, Control_c, 0, 64, 34
1, 703423, Control_c, 0, 64, 32
1, 703431, Note_on_c, 0, 51, 44
1, 703438, Control_c, 0, 64, 28
1, 703453, Control_c, 0, 64, 0
1, 703466, Note_off_c, 0, 51, 55
1, 703516, Note_on_c, 0, 52, 67
1, 703599, Note_off_c, 0, 52, 62
1, 703615, Note_on_c, 0, 53, 56
1, 703646, Control_c, 0, 64, 47
1, 703649, Note_on_c, 0, 75, 72
1, 703657, Note_on_c, 0, 69, 43
1, 703657, Note_on_c, 0, 72, 36
1, 703668, Control_c, 0, 64, 61
1, 703683, Control_c, 0, 64, 65
1, 703693, Note_off_c, 0, 72, 57
1, 703697, Control_c, 0, 64, 67
1, 703712, Note_off_c, 0, 75, 53
1, 703712, Control_c, 0, 64, 68
1, 703717, Note_off_c, 0, 69, 60
1, 703725, Note_on_c, 0, 54, 73
1, 703730, Note_off_c, 0, 53, 62
1, 703757, Control_c, 0, 64, 67
1, 703772, Control_c, 0, 64, 65
1, 703786, Control_c, 0, 64, 61
1, 703801, Control_c, 0, 64, 49
1, 703812, Note_on_c, 0, 60, 82
1, 703813, Note_off_c, 0, 54, 63
1, 703816, Control_c, 0, 64, 34
1, 703831, Control_c, 0, 64, 0
1, 703921, Control_c, 0, 64, 48
1, 703924, Note_on_c, 0, 77, 79
1, 703927, Note_on_c, 0, 74, 74
1, 703935, Control_c, 0, 64, 64
1, 703942, Note_off_c, 0, 60, 65
1, 703946, Note_on_c, 0, 68, 28
1, 703950, Control_c, 0, 64, 72
1, 703961, Note_off_c, 0, 77, 57
1, 703965, Control_c, 0, 64, 83
1, 703980, Control_c, 0, 64, 93
1, 703981, Note_off_c, 0, 68, 43
1, 703987, Note_off_c, 0, 74, 59
1, 703995, Control_c, 0, 64, 105
1, 704010, Control_c, 0, 64, 127
1, 704028, Note_on_c, 0, 59, 52
1, 704061, Note_off_c, 0, 59, 60
1, 704095, Note_on_c, 0, 58, 73
1, 704113, Control_c, 0, 64, 107
1, 704116, Note_on_c, 0, 65, 47
1, 704128, Control_c, 0, 64, 75
1, 704141, Note_off_c, 0, 65, 57
1, 704143, Control_c, 0, 64, 55
1, 704152, Note_off_c, 0, 58, 63
1, 704156, Note_on_c, 0, 74, 70
1, 704158, Control_c, 0, 64, 38
1, 704172, Control_c, 0, 64, 47
1, 704187, Control_c, 0, 64, 61
1, 704194, Note_on_c, 0, 59, 65
1, 704202, Control_c, 0, 64, 73
1, 704217, Control_c, 0, 64, 106
1, 704227, Note_on_c, 0, 80, 78
1, 704232, Control_c, 0, 64, 127
1, 704237, Note_off_c, 0, 74, 64
1, 704245, Note_off_c, 0, 80, 73
1, 704266, Poly_aftertouch_c, 0, 65, 127
1, 704277, Note_on_c, 0, 70, 6
1, 704284, Note_off_c, 0, 59, 60
1, 704296, Note_on_c, 0, 60, 78
1, 704307, Poly_aftertouch_c, 0, 65, 0
1, 704327, Note_off_c, 0, 70, 52
1, 704359, Note_off_c, 0, 60, 63
1, 704387, Note_on_c, 0, 62, 77
1, 704455, Note_off_c, 0, 62, 63
1, 704476, Control_c, 0, 64, 84
1, 704491, Control_c, 0, 64, 58
1, 704506, Control_c, 0, 64, 0
1, 704508, Note_on_c, 0, 55, 75
1, 704511, Note_on_c, 0, 52, 65
1, 704550, Note_off_c, 0, 55, 63
1, 704550, Control_c, 0, 64, 47
1, 704561, Note_off_c, 0, 52, 61
1, 704565, Control_c, 0, 64, 65
1, 704579, Control_c, 0, 64, 74
1, 704593, Note_on_c, 0, 59, 79
1, 704594, Control_c, 0, 64, 87
1, 704609, Control_c, 0, 64, 97
1, 704624, Control_c, 0, 64, 110
1, 704639, Control_c, 0, 64, 121
1, 704654, Control_c, 0, 64, 127
1, 704684, Note_on_c, 0, 60, 79
1, 704695, Note_off_c, 0, 59, 60
1, 704779, Note_off_c, 0, 60, 61
1, 704786, Note_on_c, 0, 61, 77
1, 704795, Note_on_c, 0, 83, 74
1, 704799, Note_on_c, 0, 80, 66
1, 704802, Note_on_c, 0, 77, 56
1, 704818, Control_c, 0, 64, 99
1, 704831, Note_off_c, 0, 83, 54
1, 704833, Control_c, 0, 64, 73
1, 704836, Note_off_c, 0, 77, 66
1, 704837, Note_off_c, 0, 61, 64
1, 704848, Control_c, 0, 64, 55
1, 704850, Note_off_c, 0, 80, 61
1, 704862, Control_c, 0, 64, 0
1, 704886, Note_on_c, 0, 62, 76
1, 704979, Note_off_c, 0, 62, 56
1, 704982, Note_on_c, 0, 68, 70
1, 705091, Note_on_c, 0, 85, 73
1, 705099, Control_c, 0, 64, 42
1, 705100, Note_on_c, 0, 82, 63
1, 705114, Control_c, 0, 64, 59
1, 705129, Control_c, 0, 64, 67
1, 705138, Note_off_c, 0, 82, 58
1, 705143, Note_off_c, 0, 85, 55
1, 705143, Control_c, 0, 64, 74
1, 705166, Control_c, 0, 64, 81
1, 705168, Poly_aftertouch_c, 0, 76, 0
1, 705181, Control_c, 0, 64, 89
1, 705195, Control_c, 0, 64, 97
1, 705201, Note_on_c, 0, 67, 63
1, 705210, Control_c, 0, 64, 104
1, 705217, Note_off_c, 0, 68, 35
1, 705225, Control_c, 0, 64, 111
1, 705240, Control_c, 0, 64, 117
1, 705259, Note_off_c, 0, 67, 60
1, 705280, Note_on_c, 0, 66, 72
1, 705284, Control_c, 0, 64, 109
1, 705299, Control_c, 0, 64, 87
1, 705308, Note_on_c, 0, 73, 66
1, 705314, Control_c, 0, 64, 68
1, 705321, Note_off_c, 0, 66, 56
1, 705328, Control_c, 0, 64, 48
1, 705343, Control_c, 0, 64, 44
1, 705358, Control_c, 0, 64, 54
1, 705373, Control_c, 0, 64, 64
1, 705375, Note_off_c, 0, 73, 62
1, 705381, Note_on_c, 0, 82, 56
1, 705388, Control_c, 0, 64, 72
1, 705402, Control_c, 0, 64, 86
1, 705417, Control_c, 0, 64, 103
1, 705432, Control_c, 0, 64, 127
1, 705439, Note_on_c, 0, 67, 55
1, 705455, Note_on_c, 0, 88, 75
1, 705464, Note_off_c, 0, 82, 61
1, 705474, Note_off_c, 0, 88, 72
1, 705487, Poly_aftertouch_c, 0, 80, 127
1, 705526, Poly_aftertouch_c, 0, 80, 0
1, 705573, Note_off_c, 0, 67, 53
1, 705577, Note_on_c, 0, 68, 60
1, 705705, Note_on_c, 0, 70, 66
1, 705723, Note_off_c, 0, 68, 61
1, 705758, Note_off_c, 0, 70, 60
1, 705930, Control_c, 0, 64, 107
1, 705941, Note_on_c, 0, 60, 51
1, 705944, Note_on_c, 0, 63, 57
1, 705944, Control_c, 0, 64, 81
1, 705959, Control_c, 0, 64, 64
1, 705974, Control_c, 0, 64, 49
1, 705989, Control_c, 0, 64, 36
1, 706004, Control_c, 0, 64, 33
1, 706018, Control_c, 0, 64, 37
1, 706033, Control_c, 0, 64, 46
1, 706048, Control_c, 0, 64, 56
1, 706063, Control_c, 0, 64, 61
1, 706078, Control_c, 0, 64, 65
1, 706092, Control_c, 0, 64, 69
1, 706106, Note_on_c, 0, 67, 40
1, 706107, Control_c, 0, 64, 73
1, 706122, Control_c, 0, 64, 77
1, 706137, Control_c, 0, 64, 81
1, 706150, Note_off_c, 0, 60, 54
1, 706151, Control_c, 0, 64, 84
1, 706164, Note_off_c, 0, 63, 53
1, 706166, Control_c, 0, 64, 88
1, 706181, Control_c, 0, 64, 91
1, 706195, Note_off_c, 0, 67, 47
1, 706196, Control_c, 0, 64, 93
1, 706211, Control_c, 0, 64, 94
1, 706225, Control_c, 0, 64, 95
1, 706245, Note_on_c, 0, 68, 50
1, 706255, Control_c, 0, 64, 97
1, 706330, Control_c, 0, 64, 90
1, 706333, Note_on_c, 0, 61, 80
1, 706345, Control_c, 0, 64, 77
1, 706349, Note_off_c, 0, 68, 62
1, 706359, Control_c, 0, 64, 66
1, 706374, Control_c, 0, 64, 60
1, 706395, Note_on_c, 0, 69, 51
1, 706404, Control_c, 0, 64, 63
1, 706419, Control_c, 0, 64, 67
1, 706433, Control_c, 0, 64, 73
1, 706448, Control_c, 0, 64, 81
1, 706463, Control_c, 0, 64, 87
1, 706478, Control_c, 0, 64, 92
1, 706491, Note_off_c, 0, 61, 57
1, 706493, Control_c, 0, 64, 95
1, 706502, Note_off_c, 0, 69, 50
1, 706508, Control_c, 0, 64, 97
1, 706534, Note_on_c, 0, 70, 51
1, 706553, Control_c, 0, 64, 99
1, 706582, Control_c, 0, 64, 102
1, 706672, Note_on_c, 0, 76, 47
1, 706702, Note_off_c, 0, 70, 37
1, 706776, Note_off_c, 0, 76, 39
1, 706786, Note_on_c, 0, 61, 50
1, 706788, Note_on_c, 0, 69, 60
1, 706797, Control_c, 0, 64, 104
1, 706800, Note_on_c, 0, 66, 55
1, 706917, Note_on_c, 0, 75, 48
1, 706952, Note_off_c, 0, 69, 36
1, 706983, Note_off_c, 0, 75, 62
1, 707014, Note_on_c, 0, 74, 58
1, 707063, Control_c, 0, 64, 100
1, 707078, Control_c, 0, 64, 87
1, 707094, Control_c, 0, 64, 71
1, 707104, Note_off_c, 0, 74, 52
1, 707106, Note_on_c, 0, 60, 52
1, 707109, Control_c, 0, 64, 60
1, 707113, Note_on_c, 0, 75, 59
1, 707124, Control_c, 0, 64, 54
1, 707138, Control_c, 0, 64, 57
1, 707153, Control_c, 0, 64, 62
1, 707160, Note_off_c, 0, 66, 51
1, 707168, Control_c, 0, 64, 68
1, 707174, Note_off_c, 0, 61, 39
1, 707182, Control_c, 0, 64, 74
1, 707197, Note_off_c, 0, 60, 56
1, 707197, Control_c, 0, 64, 82
1, 707212, Control_c, 0, 64, 89
1, 707219, Note_on_c, 0, 76, 60
1, 707227, Control_c, 0, 64, 95
1, 707242, Control_c, 0, 64, 101
1, 707244, Note_off_c, 0, 75, 32
1, 707256, Control_c, 0, 64, 105
1, 707271, Control_c, 0, 64, 109
1, 707286, Control_c, 0, 64, 111
1, 707301, Control_c, 0, 64, 114
1, 707316, Control_c, 0, 64, 118
1, 707319, Note_off_c, 0, 76, 61
1, 707321, Note_on_c, 0, 78, 68
1, 707331, Control_c, 0, 64, 121
1, 707366, Note_off_c, 0, 78, 52
1, 707375, Control_c, 0, 64, 104
1, 707390, Control_c, 0, 64, 84
1, 707412, Control_c, 0, 64, 68
1, 707427, Control_c, 0, 64, 57
1, 707437, Note_on_c, 0, 60, 50
1, 707439, Note_on_c, 0, 63, 58
1, 707442, Control_c, 0, 64, 53
1, 707457, Control_c, 0, 64, 56
1, 707471, Control_c, 0, 64, 62
1, 707486, Control_c, 0, 64, 67
1, 707501, Control_c, 0, 64, 74
1, 707516, Control_c, 0, 64, 82
1, 707530, Control_c, 0, 64, 89
1, 707542, Note_off_c, 0, 63, 63
1, 707545, Control_c, 0, 64, 94
1, 707560, Control_c, 0, 64, 98
1, 707561, Note_on_c, 0, 67, 56
1, 707571, Note_off_c, 0, 60, 64
1, 707575, Control_c, 0, 64, 102
1, 707590, Control_c, 0, 64, 106
1, 707605, Control_c, 0, 64, 110
1, 707620, Control_c, 0, 64, 115
1, 707635, Control_c, 0, 64, 125
1, 707650, Control_c, 0, 64, 127
1, 707675, Note_off_c, 0, 67, 58
1, 707693, Note_on_c, 0, 68, 54
1, 707879, Note_off_c, 0, 68, 61
1, 707897, Note_on_c, 0, 49, 74
1, 707902, Control_c, 0, 64, 102
1, 707917, Control_c, 0, 64, 80
1, 707932, Control_c, 0, 64, 64
1, 707933, Note_on_c, 0, 69, 44
1, 707947, Control_c, 0, 64, 52
1, 707961, Control_c, 0, 64, 44
1, 707976, Control_c, 0, 64, 45
1, 707991, Control_c, 0, 64, 51
1, 708006, Control_c, 0, 64, 59
1, 708020, Control_c, 0, 64, 64
1, 708035, Control_c, 0, 64, 69
1, 708050, Control_c, 0, 64, 75
1, 708065, Control_c, 0, 64, 80
1, 708080, Control_c, 0, 64, 85
1, 708094, Control_c, 0, 64, 90
1, 708109, Control_c, 0, 64, 94
1, 708124, Note_on_c, 0, 70, 46
1, 708124, Control_c, 0, 64, 99
1, 708139, Control_c, 0, 64, 104
1, 708159, Note_off_c, 0, 69, 37
1, 708161, Control_c, 0, 64, 110
1, 708173, Note_off_c, 0, 49, 51
1, 708176, Control_c, 0, 64, 121
1, 708191, Control_c, 0, 64, 127
1, 708293, Note_on_c, 0, 76, 44
1, 708353, Note_off_c, 0, 70, 44
1, 708358, Note_off_c, 0, 76, 56
1, 708513, Note_on_c, 0, 49, 50
1, 708515, Note_on_c, 0, 36, 43
1, 708531, Control_c, 0, 64, 119
1, 708535, Note_on_c, 0, 43, 45
1, 708546, Control_c, 0, 64, 89
1, 708561, Control_c, 0, 64, 71
1, 708576, Control_c, 0, 64, 59
1, 708591, Control_c, 0, 64, 50
1, 708605, Control_c, 0, 64, 51
1, 708620, Control_c, 0, 64, 56
1, 708635, Control_c, 0, 64, 61
1, 708650, Control_c, 0, 64, 65
1, 708665, Control_c, 0, 64, 69
1, 708681, Note_on_c, 0, 67, 50
1, 708681, Control_c, 0, 64, 74
1, 708696, Control_c, 0, 64, 81
1, 708710, Control_c, 0, 64, 85
1, 708725, Control_c, 0, 64, 88
1, 708740, Control_c, 0, 64, 91
1, 708749, Note_off_c, 0, 67, 51
1, 708754, Control_c, 0, 64, 94
1, 708765, Note_off_c, 0, 49, 48
1, 708769, Control_c, 0, 64, 98
1, 708784, Control_c, 0, 64, 101
1, 708799, Control_c, 0, 64, 106
1, 708814, Control_c, 0, 64, 111
1, 708824, Note_on_c, 0, 82, 58
1, 708829, Control_c, 0, 64, 118
1, 708843, Control_c, 0, 64, 127
1, 708951, Note_on_c, 0, 48, 52
1, 708951, Note_off_c, 0, 82, 57
1, 708974, Note_on_c, 0, 79, 52
1, 709041, Note_off_c, 0, 48, 58
1, 709045, Note_off_c, 0, 79, 63
1, 709072, Note_off_c, 0, 43, 55
1, 709082, Note_on_c, 0, 76, 60
1, 709113, Note_off_c, 0, 76, 61
1, 709133, Note_off_c, 0, 36, 39
1, 709185, Note_on_c, 0, 73, 53
1, 709256, Note_off_c, 0, 73, 61
1, 709270, Note_on_c, 0, 70, 60
1, 709342, Note_off_c, 0, 70, 62
1, 709368, Note_on_c, 0, 67, 58
1, 709407, Note_off_c, 0, 67, 65
1, 709453, Note_on_c, 0, 64, 53
1, 709487, Control_c, 0, 64, 108
1, 709488, Note_off_c, 0, 64, 61
1, 709492, Note_on_c, 0, 32, 72
1, 709502, Control_c, 0, 64, 78
1, 709517, Control_c, 0, 64, 61
1, 709531, Control_c, 0, 64, 60
1, 709546, Control_c, 0, 64, 65
1, 709554, Note_off_c, 0, 32, 62
1, 709561, Control_c, 0, 64, 74
1, 709575, Note_on_c, 0, 63, 53
1, 709575, Control_c, 0, 64, 91
1, 709579, Note_on_c, 0, 47, 79
1, 709590, Control_c, 0, 64, 127
1, 709689, Note_off_c, 0, 63, 59
1, 709692, Note_on_c, 0, 59, 59
1, 709739, Note_off_c, 0, 47, 56
1, 709756, Note_off_c, 0, 59, 63
1, 709799, Note_on_c, 0, 56, 64
1, 709830, Note_off_c, 0, 56, 65
1, 709935, Note_on_c, 0, 47, 78
1, 709939, Control_c, 0, 64, 110
1, 709948, Note_on_c, 0, 34, 62
1, 709954, Control_c, 0, 64, 76
1, 709969, Control_c, 0, 64, 58
1, 709983, Control_c, 0, 64, 42
1, 709998, Control_c, 0, 64, 39
1, 710013, Control_c, 0, 64, 47
1, 710028, Control_c, 0, 64, 61
1, 710043, Control_c, 0, 64, 69
1, 710044, Note_on_c, 0, 65, 54
1, 710057, Control_c, 0, 64, 80
1, 710072, Control_c, 0, 64, 92
1, 710073, Note_off_c, 0, 47, 61
1, 710087, Control_c, 0, 64, 102
1, 710095, Note_off_c, 0, 65, 53
1, 710101, Control_c, 0, 64, 112
1, 710116, Control_c, 0, 64, 127
1, 710162, Note_on_c, 0, 80, 64
1, 710246, Note_on_c, 0, 46, 71
1, 710250, Control_c, 0, 64, 107
1, 710265, Control_c, 0, 64, 82
1, 710276, Note_on_c, 0, 77, 61
1, 710281, Control_c, 0, 64, 67
1, 710285, Note_off_c, 0, 80, 48
1, 710296, Control_c, 0, 64, 61
1, 710325, Control_c, 0, 64, 64
1, 710340, Control_c, 0, 64, 68
1, 710355, Control_c, 0, 64, 75
1, 710365, Note_off_c, 0, 77, 61
1, 710368, Note_on_c, 0, 74, 73
1, 710370, Control_c, 0, 64, 83
1, 710385, Control_c, 0, 64, 91
1, 710407, Control_c, 0, 64, 98
1, 710422, Control_c, 0, 64, 105
1, 710436, Note_off_c, 0, 74, 63
1, 710437, Control_c, 0, 64, 119
1, 710437, Note_off_c, 0, 46, 59
1, 710452, Control_c, 0, 64, 127
1, 710464, Note_on_c, 0, 71, 72
1, 710506, Note_off_c, 0, 34, 60
1, 710522, Note_off_c, 0, 71, 57
1, 710577, Note_on_c, 0, 68, 61
1, 710657, Note_off_c, 0, 68, 60
1, 710679, Note_on_c, 0, 65, 61
1, 710744, Note_off_c, 0, 65, 63
1, 710762, Control_c, 0, 64, 106
1, 710777, Control_c, 0, 64, 77
1, 710780, Note_on_c, 0, 62, 59
1, 710792, Control_c, 0, 64, 62
1, 710806, Control_c, 0, 64, 51
1, 710821, Control_c, 0, 64, 53
1, 710827, Note_on_c, 0, 30, 65
1, 710836, Control_c, 0, 64, 61
1, 710851, Control_c, 0, 64, 67
1, 710866, Control_c, 0, 64, 77
1, 710881, Control_c, 0, 64, 91
1, 710896, Control_c, 0, 64, 106
1, 710910, Note_off_c, 0, 62, 38
1, 710911, Control_c, 0, 64, 127
1, 710917, Note_off_c, 0, 30, 63
1, 710951, Note_on_c, 0, 45, 75
1, 710952, Note_on_c, 0, 61, 48
1, 711069, Note_off_c, 0, 45, 54
1, 711153, Note_on_c, 0, 57, 48
1, 711161, Note_off_c, 0, 61, 45
1, 711230, Note_off_c, 0, 57, 62
1, 711254, Note_on_c, 0, 54, 53
1, 711309, Note_off_c, 0, 54, 56
1, 711463, Note_on_c, 0, 45, 67
1, 711467, Control_c, 0, 64, 100
1, 711473, Note_on_c, 0, 32, 61
1, 711482, Control_c, 0, 64, 75
1, 711497, Control_c, 0, 64, 58
1, 711511, Control_c, 0, 64, 41
1, 711526, Control_c, 0, 64, 29
1, 711555, Control_c, 0, 64, 35
1, 711570, Control_c, 0, 64, 47
1, 711585, Control_c, 0, 64, 56
1, 711600, Control_c, 0, 64, 62
1, 711615, Control_c, 0, 64, 65
1, 711629, Control_c, 0, 64, 68
1, 711644, Control_c, 0, 64, 70
1, 711650, Note_on_c, 0, 63, 43
1, 711659, Control_c, 0, 64, 73
1, 711674, Control_c, 0, 64, 75
1, 711685, Note_off_c, 0, 45, 52
1, 711689, Control_c, 0, 64, 78
1, 711704, Control_c, 0, 64, 80
1, 711719, Control_c, 0, 64, 84
1, 711734, Control_c, 0, 64, 87
1, 711745, Note_off_c, 0, 63, 57
1, 711748, Control_c, 0, 64, 91
1, 711763, Control_c, 0, 64, 93
1, 711778, Control_c, 0, 64, 95
1, 711793, Control_c, 0, 64, 99
1, 711799, Note_on_c, 0, 78, 60
1, 711808, Control_c, 0, 64, 104
1, 711823, Control_c, 0, 64, 110
1, 711837, Control_c, 0, 64, 117
1, 711852, Control_c, 0, 64, 127
1, 711936, Note_on_c, 0, 44, 68
1, 711941, Note_off_c, 0, 78, 57
1, 711949, Note_on_c, 0, 75, 64
1, 711958, Note_off_c, 0, 32, 60
1, 712003, Note_off_c, 0, 44, 62
1, 712062, Note_on_c, 0, 72, 61
1, 712093, Note_off_c, 0, 75, 58
1, 712163, Note_off_c, 0, 72, 60
1, 712166, Note_on_c, 0, 69, 62
1, 712193, Note_off_c, 0, 69, 67
1, 712347, Note_on_c, 0, 66, 78
1, 712364, Control_c, 0, 64, 98
1, 712377, Note_on_c, 0, 61, 46
1, 712378, Control_c, 0, 64, 73
1, 712393, Control_c, 0, 64, 61
1, 712408, Control_c, 0, 64, 50
1, 712423, Control_c, 0, 64, 47
1, 712438, Control_c, 0, 64, 47
1, 712452, Control_c, 0, 64, 50
1, 712467, Control_c, 0, 64, 56
1, 712482, Control_c, 0, 64, 62
1, 712496, Control_c, 0, 64, 68
1, 712511, Control_c, 0, 64, 77
1, 712526, Control_c, 0, 64, 89
1, 712541, Control_c, 0, 64, 99
1, 712550, Note_on_c, 0, 45, 45
1, 712556, Control_c, 0, 64, 108
1, 712570, Control_c, 0, 64, 127
1, 712583, Note_off_c, 0, 61, 43
1, 712601, Note_off_c, 0, 66, 56
1, 712675, Note_off_c, 0, 45, 56
1, 712678, Note_on_c, 0, 49, 51
1, 712747, Note_on_c, 0, 67, 63
1, 712756, Note_on_c, 0, 61, 51
1, 712786, Note_off_c, 0, 49, 61
1, 712801, Note_off_c, 0, 61, 58
1, 712806, Note_on_c, 0, 51, 52
1, 712819, Note_off_c, 0, 67, 57
1, 712876, Note_off_c, 0, 51, 60
1, 712896, Note_on_c, 0, 57, 56
1, 712919, Note_off_c, 0, 57, 62
1, 712986, Note_on_c, 0, 61, 60
1, 713027, Note_off_c, 0, 61, 63
1, 713103, Note_on_c, 0, 45, 68
1, 713116, Note_on_c, 0, 32, 71
1, 713126, Control_c, 0, 64, 83
1, 713141, Control_c, 0, 64, 64
1, 713156, Control_c, 0, 64, 52
1, 713171, Control_c, 0, 64, 51
1, 713186, Control_c, 0, 64, 58
1, 713201, Control_c, 0, 64, 65
1, 713209, Note_on_c, 0, 63, 53
1, 713216, Control_c, 0, 64, 73
1, 713231, Control_c, 0, 64, 86
1, 713242, Note_off_c, 0, 45, 60
1, 713246, Control_c, 0, 64, 107
1, 713261, Control_c, 0, 64, 127
1, 713297, Note_off_c, 0, 63, 63
1, 713305, Control_c, 0, 67, 113
1, 713319, Control_c, 0, 67, 92
1, 713334, Note_on_c, 0, 78, 67
1, 713334, Control_c, 0, 67, 72
1, 713349, Control_c, 0, 67, 53
1, 713364, Control_c, 0, 67, 36
1, 713379, Control_c, 0, 67, 0
1, 713453, Note_on_c, 0, 44, 76
1, 713474, Note_off_c, 0, 78, 58
1, 713478, Note_on_c, 0, 75, 62
1, 713483, Note_off_c, 0, 32, 60
1, 713522, Note_off_c, 0, 44, 63
1, 713578, Note_on_c, 0, 72, 64
1, 713616, Note_off_c, 0, 75, 59
1, 713671, Note_off_c, 0, 72, 61
1, 713676, Note_on_c, 0, 69, 60
1, 713704, Note_off_c, 0, 69, 66
1, 713802, Control_c, 0, 64, 103
1, 713816, Note_on_c, 0, 66, 82
1, 713817, Control_c, 0, 64, 73
1, 713832, Control_c, 0, 64, 56
1, 713835, Note_on_c, 0, 61, 61
1, 713847, Control_c, 0, 64, 40
1, 713862, Control_c, 0, 64, 34
1, 713876, Control_c, 0, 64, 38
1, 713891, Control_c, 0, 64, 51
1, 713906, Control_c, 0, 64, 63
1, 713921, Control_c, 0, 64, 70
1, 713927, Note_on_c, 0, 45, 49
1, 713936, Control_c, 0, 64, 77
1, 713950, Control_c, 0, 64, 83
1, 713965, Control_c, 0, 64, 90
1, 713980, Control_c, 0, 64, 99
1, 713995, Control_c, 0, 64, 116
1, 714010, Control_c, 0, 64, 127
1, 714015, Note_off_c, 0, 61, 49
1, 714035, Note_off_c, 0, 66, 58
1, 714039, Control_c, 0, 67, 38
1, 714041, Note_on_c, 0, 49, 56
1, 714054, Control_c, 0, 67, 61
1, 714067, Note_off_c, 0, 45, 47
1, 714068, Control_c, 0, 67, 90
1, 714083, Control_c, 0, 67, 123
1, 714098, Control_c, 0, 67, 127
1, 714169, Note_on_c, 0, 67, 67
1, 714184, Note_off_c, 0, 49, 54
1, 714190, Note_on_c, 0, 61, 43
1, 714191, Note_on_c, 0, 51, 45
1, 714236, Note_off_c, 0, 61, 48
1, 714249, Note_off_c, 0, 67, 55
1, 714281, Note_off_c, 0, 51, 56
1, 714306, Note_on_c, 0, 57, 57
1, 714346, Note_off_c, 0, 57, 63
1, 714450, Note_on_c, 0, 61, 60
1, 714496, Note_off_c, 0, 61, 55
1, 714670, Note_on_c, 0, 44, 45
1, 714670, Control_c, 0, 64, 87
1, 714670, Note_on_c, 0, 32, 50
1, 714685, Control_c, 0, 64, 68
1, 714699, Control_c, 0, 64, 53
1, 714714, Control_c, 0, 64, 44
1, 714729, Control_c, 0, 64, 48
1, 714744, Control_c, 0, 64, 58
1, 714759, Control_c, 0, 64, 66
1, 714773, Control_c, 0, 64, 73
1, 714788, Control_c, 0, 64, 82
1, 714803, Control_c, 0, 64, 89
1, 714818, Control_c, 0, 64, 97
1, 714821, Note_off_c, 0, 32, 47
1, 714832, Note_on_c, 0, 63, 50
1, 714833, Control_c, 0, 64, 105
1, 714837, Note_off_c, 0, 44, 62
1, 714847, Control_c, 0, 64, 114
1, 714862, Control_c, 0, 64, 127
1, 714926, Note_off_c, 0, 63, 62
1, 714988, Note_on_c, 0, 78, 58
1, 715109, Note_on_c, 0, 57, 38
1, 715120, Note_on_c, 0, 75, 54
1, 715138, Note_on_c, 0, 45, 48
1, 715150, Note_off_c, 0, 78, 47
1, 715177, Note_off_c, 0, 57, 64
1, 715225, Note_off_c, 0, 45, 61
1, 715236, Note_off_c, 0, 75, 57
1, 715240, Note_on_c, 0, 72, 56
1, 715336, Note_on_c, 0, 66, 62
1, 715336, Note_off_c, 0, 72, 57
1, 715389, Control_c, 0, 64, 105
1, 715403, Control_c, 0, 64, 77
1, 715410, Note_off_c, 0, 66, 59
1, 715415, Note_on_c, 0, 34, 62
1, 715415, Note_on_c, 0, 46, 63
1, 715418, Control_c, 0, 64, 61
1, 715433, Control_c, 0, 64, 56
1, 715448, Control_c, 0, 64, 61
1, 715463, Control_c, 0, 64, 68
1, 715478, Control_c, 0, 64, 80
1, 715492, Control_c, 0, 64, 101
1, 715494, Note_off_c, 0, 34, 63
1, 715507, Note_off_c, 0, 46, 61
1, 715507, Control_c, 0, 64, 127
1, 715516, Note_on_c, 0, 65, 56
1, 715575, Note_off_c, 0, 65, 57
1, 715630, Note_on_c, 0, 80, 71
1, 715717, Note_on_c, 0, 59, 72
1, 715737, Note_on_c, 0, 47, 65
1, 715752, Control_c, 0, 67, 123
1, 715757, Note_on_c, 0, 77, 68
1, 715767, Control_c, 0, 67, 104
1, 715782, Control_c, 0, 67, 84
1, 715784, Note_off_c, 0, 80, 57
1, 715791, Note_off_c, 0, 59, 64
1, 715796, Control_c, 0, 67, 62
1, 715811, Control_c, 0, 67, 33
1, 715826, Control_c, 0, 67, 0
1, 715835, Note_off_c, 0, 47, 63
1, 715847, Note_on_c, 0, 74, 74
1, 715886, Note_off_c, 0, 77, 61
1, 715937, Note_off_c, 0, 74, 61
1, 715939, Note_on_c, 0, 68, 67
1, 716019, Control_c, 0, 64, 114
1, 716023, Note_off_c, 0, 68, 61
1, 716034, Control_c, 0, 64, 76
1, 716041, Note_on_c, 0, 48, 85
1, 716045, Note_on_c, 0, 36, 71
1, 716049, Control_c, 0, 64, 55
1, 716064, Control_c, 0, 64, 49
1, 716078, Control_c, 0, 64, 55
1, 716093, Control_c, 0, 64, 64
1, 716108, Control_c, 0, 64, 73
1, 716111, Note_off_c, 0, 36, 62
1, 716123, Control_c, 0, 64, 92
1, 716136, Note_on_c, 0, 67, 68
1, 716138, Control_c, 0, 64, 127
1, 716141, Note_off_c, 0, 48, 63
1, 716196, Note_off_c, 0, 67, 58
1, 716252, Note_on_c, 0, 82, 73
1, 716349, Note_on_c, 0, 61, 92
1, 716355, Note_on_c, 0, 49, 82
1, 716386, Note_on_c, 0, 79, 63
1, 716437, Note_off_c, 0, 82, 57
1, 716438, Note_off_c, 0, 61, 64
1, 716469, Note_off_c, 0, 49, 62
1, 716495, Note_on_c, 0, 76, 70
1, 716580, Note_off_c, 0, 79, 39
1, 716616, Note_on_c, 0, 70, 78
1, 716637, Note_off_c, 0, 76, 60
1, 716769, Note_off_c, 0, 70, 62
1, 716826, Note_on_c, 0, 50, 88
1, 716829, Note_on_c, 0, 37, 70
1, 716843, Note_on_c, 0, 44, 64
1, 716901, Control_c, 0, 64, 82
1, 716916, Control_c, 0, 64, 63
1, 716931, Control_c, 0, 64, 45
1, 716946, Control_c, 0, 64, 32
1, 716961, Control_c, 0, 64, 32
1, 716975, Control_c, 0, 64, 47
1, 716990, Control_c, 0, 64, 60
1, 717005, Control_c, 0, 64, 67
1, 717020, Control_c, 0, 64, 73
1, 717022, Note_on_c, 0, 68, 55
1, 717035, Control_c, 0, 64, 80
1, 717049, Control_c, 0, 64, 87
1, 717064, Control_c, 0, 64, 97
1, 717079, Control_c, 0, 64, 108
1, 717082, Note_off_c, 0, 50, 56
1, 717093, Control_c, 0, 64, 127
1, 717101, Note_off_c, 0, 68, 62
1, 717170, Note_on_c, 0, 83, 56
1, 717311, Note_off_c, 0, 83, 61
1, 717314, Note_on_c, 0, 49, 79
1, 717331, Note_on_c, 0, 80, 57
1, 717442, Note_on_c, 0, 77, 58
1, 717449, Note_off_c, 0, 44, 29
1, 717454, Note_off_c, 0, 37, 57
1, 717461, Note_off_c, 0, 80, 62
1, 717485, Note_off_c, 0, 49, 61
1, 717523, Note_off_c, 0, 77, 63
1, 717531, Note_on_c, 0, 74, 67
1, 717557, Note_off_c, 0, 74, 69
1, 717706, Note_on_c, 0, 71, 88
1, 717732, Note_on_c, 0, 66, 60
1, 717754, Control_c, 0, 64, 84
1, 717769, Control_c, 0, 64, 60
1, 717784, Control_c, 0, 64, 0
1, 717813, Control_c, 0, 64, 41
1, 717828, Control_c, 0, 64, 63
1, 717843, Control_c, 0, 64, 77
1, 717852, Note_on_c, 0, 50, 76
1, 717858, Control_c, 0, 64, 104
1, 717872, Control_c, 0, 64, 127
1, 717908, Note_off_c, 0, 66, 53
1, 717954, Note_off_c, 0, 71, 45
1, 717965, Note_on_c, 0, 54, 72
1, 717987, Note_off_c, 0, 50, 60
1, 718046, Note_on_c, 0, 72, 81
1, 718050, Note_on_c, 0, 66, 77
1, 718058, Note_on_c, 0, 56, 70
1, 718093, Note_off_c, 0, 54, 57
1, 718110, Note_off_c, 0, 66, 60
1, 718156, Note_on_c, 0, 62, 81
1, 718162, Note_off_c, 0, 56, 63
1, 718178, Note_off_c, 0, 62, 67
1, 718207, Note_off_c, 0, 72, 59
1, 718250, Note_on_c, 0, 66, 86
1, 718291, Note_off_c, 0, 66, 63
1, 718369, Note_on_c, 0, 50, 93
1, 718370, Note_on_c, 0, 37, 82
1, 718399, Control_c, 0, 64, 85
1, 718414, Control_c, 0, 64, 60
1, 718429, Control_c, 0, 64, 28
1, 718444, Control_c, 0, 64, 0
1, 718458, Control_c, 0, 64, 34
1, 718473, Control_c, 0, 64, 56
1, 718488, Control_c, 0, 64, 70
1, 718503, Control_c, 0, 64, 86
1, 718515, Note_on_c, 0, 68, 69
1, 718518, Control_c, 0, 64, 122
1, 718533, Control_c, 0, 64, 127
1, 718575, Note_off_c, 0, 50, 58
1, 718588, Note_off_c, 0, 68, 60
1, 718631, Note_on_c, 0, 83, 60
1, 718757, Note_on_c, 0, 49, 83
1, 718766, Note_off_c, 0, 83, 58
1, 718777, Note_on_c, 0, 80, 63
1, 718820, Note_off_c, 0, 37, 61
1, 718870, Note_off_c, 0, 49, 59
1, 718878, Note_on_c, 0, 77, 72
1, 718902, Note_off_c, 0, 80, 63
1, 718964, Note_off_c, 0, 77, 63
1, 718967, Note_on_c, 0, 74, 71
1, 718996, Note_off_c, 0, 74, 64
1, 719184, Note_on_c, 0, 71, 93
1, 719201, Note_on_c, 0, 66, 78
1, 719237, Control_c, 0, 64, 85
1, 719239, Note_off_c, 0, 66, 0
1, 719251, Control_c, 0, 64, 60
1, 719266, Control_c, 0, 64, 0
1, 719277, Poly_aftertouch_c, 0, 66, 127
1, 719311, Control_c, 0, 64, 38
1, 719326, Control_c, 0, 64, 57
1, 719341, Control_c, 0, 64, 68
1, 719356, Control_c, 0, 64, 80
1, 719368, Note_on_c, 0, 50, 65
1, 719370, Control_c, 0, 64, 100
1, 719385, Control_c, 0, 64, 127
1, 719445, Poly_aftertouch_c, 0, 66, 0
1, 719516, Note_on_c, 0, 54, 59
1, 719523, Note_off_c, 0, 71, 53
1, 719549, Note_off_c, 0, 50, 53
1, 719633, Note_on_c, 0, 72, 64
1, 719648, Note_on_c, 0, 66, 59
1, 719651, Note_on_c, 0, 56, 54
1, 719652, Note_off_c, 0, 54, 52
1, 719690, Note_off_c, 0, 66, 58
1, 719769, Note_on_c, 0, 62, 68
1, 719789, Note_off_c, 0, 56, 62
1, 719803, Note_off_c, 0, 62, 63
1, 719913, Note_on_c, 0, 66, 68
1, 719916, Note_off_c, 0, 72, 56
1, 719944, Note_off_c, 0, 66, 64
1, 720077, Note_on_c, 0, 49, 71
1, 720081, Note_on_c, 0, 37, 66
1, 720090, Control_c, 0, 64, 92
1, 720105, Control_c, 0, 64, 67
1, 720119, Control_c, 0, 64, 49
1, 720142, Control_c, 0, 64, 42
1, 720157, Control_c, 0, 64, 54
1, 720172, Control_c, 0, 64, 68
1, 720187, Control_c, 0, 64, 85
1, 720201, Control_c, 0, 64, 127
1, 720210, Note_off_c, 0, 37, 62
1, 720236, Note_off_c, 0, 49, 63
1, 720238, Note_on_c, 0, 68, 65
1, 720307, Note_off_c, 0, 68, 61
1, 720334, Note_on_c, 0, 83, 71
1, 720453, Note_on_c, 0, 62, 70
1, 720460, Note_on_c, 0, 80, 74
1, 720463, Note_on_c, 0, 50, 68
1, 720488, Note_off_c, 0, 83, 61
1, 720512, Note_off_c, 0, 62, 63
1, 720555, Note_off_c, 0, 50, 63
1, 720577, Note_on_c, 0, 77, 74
1, 720620, Note_off_c, 0, 80, 62
1, 720630, Poly_aftertouch_c, 0, 79, 127
1, 720660, Poly_aftertouch_c, 0, 79, 0
1, 720664, Note_off_c, 0, 77, 64
1, 720667, Note_on_c, 0, 71, 80
1, 720733, Note_off_c, 0, 71, 62
1, 720749, Control_c, 0, 64, 107
1, 720760, Note_on_c, 0, 51, 95
1, 720763, Note_on_c, 0, 39, 83
1, 720764, Control_c, 0, 64, 68
1, 720779, Control_c, 0, 64, 49
1, 720794, Control_c, 0, 64, 51
1, 720808, Control_c, 0, 64, 62
1, 720823, Control_c, 0, 64, 74
1, 720837, Note_off_c, 0, 39, 64
1, 720838, Control_c, 0, 64, 127
1, 720856, Note_on_c, 0, 70, 86
1, 720858, Note_off_c, 0, 51, 62
1, 720940, Note_off_c, 0, 70, 62
1, 720967, Note_on_c, 0, 85, 87
1, 721063, Note_on_c, 0, 64, 93
1, 721068, Note_on_c, 0, 52, 85
1, 721073, Note_on_c, 0, 82, 84
1, 721110, Note_off_c, 0, 64, 67
1, 721129, Note_off_c, 0, 85, 62
1, 721148, Note_off_c, 0, 52, 64
1, 721165, Note_on_c, 0, 79, 82
1, 721201, Note_off_c, 0, 82, 59
1, 721240, Poly_aftertouch_c, 0, 81, 127
1, 721248, Note_on_c, 0, 73, 94
1, 721266, Note_off_c, 0, 79, 64
1, 721271, Poly_aftertouch_c, 0, 81, 0
1, 721292, Note_on_c, 0, 85, 30
1, 721328, Note_off_c, 0, 85, 41
1, 721349, Control_c, 0, 64, 72
1, 721352, Note_off_c, 0, 73, 59
1, 721355, Note_on_c, 0, 53, 104
1, 721360, Note_on_c, 0, 41, 89
1, 721364, Control_c, 0, 64, 43
1, 721379, Control_c, 0, 64, 36
1, 721389, Note_on_c, 0, 44, 50
1, 721389, Note_off_c, 0, 44, 127
1, 721393, Control_c, 0, 64, 54
1, 721408, Control_c, 0, 64, 67
1, 721413, Note_off_c, 0, 41, 65
1, 721423, Control_c, 0, 64, 86
1, 721429, Note_off_c, 0, 53, 67
1, 721438, Control_c, 0, 64, 127
1, 721448, Note_on_c, 0, 72, 92
1, 721515, Note_off_c, 0, 72, 55
1, 721559, Note_on_c, 0, 87, 85
1, 721681, Note_on_c, 0, 66, 110
1, 721688, Note_on_c, 0, 54, 87
1, 721698, Note_on_c, 0, 84, 78
1, 721740, Note_off_c, 0, 87, 63
1, 721782, Note_off_c, 0, 54, 59
1, 721814, Note_on_c, 0, 81, 87
1, 721859, Note_off_c, 0, 66, 55
1, 721866, Note_off_c, 0, 84, 58
1, 721925, Note_on_c, 0, 75, 99
1, 721943, Note_off_c, 0, 81, 59
1, 722041, Note_off_c, 0, 75, 61
1, 722053, Control_c, 0, 64, 116
1, 722068, Control_c, 0, 64, 55
1, 722083, Control_c, 0, 64, 0
1, 722087, Note_on_c, 0, 67, 101
1, 722089, Note_on_c, 0, 54, 79
1, 722094, Note_on_c, 0, 64, 91
1, 722103, Note_on_c, 0, 58, 74
1, 722128, Control_c, 0, 64, 58
1, 722143, Control_c, 0, 64, 78
1, 722158, Control_c, 0, 64, 127
1, 722225, Note_on_c, 0, 73, 72
1, 722244, Note_off_c, 0, 67, 56
1, 722293, Note_off_c, 0, 73, 63
1, 722310, Note_off_c, 0, 64, 56
1, 722340, Note_on_c, 0, 88, 74
1, 722469, Note_on_c, 0, 66, 91
1, 722486, Note_on_c, 0, 85, 73
1, 722506, Note_off_c, 0, 66, 63
1, 722510, Note_off_c, 0, 58, 64
1, 722515, Note_off_c, 0, 88, 63
1, 722543, Note_off_c, 0, 54, 40
1, 722616, Note_on_c, 0, 82, 76
1, 722645, Note_off_c, 0, 85, 62
1, 722715, Note_off_c, 0, 82, 62
1, 722717, Note_on_c, 0, 76, 78
1, 722747, Note_off_c, 0, 76, 64
1, 722802, Note_on_c, 0, 42, 85
1, 722802, Note_on_c, 0, 55, 101
1, 722808, Note_on_c, 0, 52, 87
1, 722818, Note_on_c, 0, 46, 71
1, 722894, Note_off_c, 0, 55, 59
1, 722912, Note_on_c, 0, 61, 84
1, 722924, Note_off_c, 0, 52, 58
1, 722974, Note_off_c, 0, 61, 61
1, 723029, Note_on_c, 0, 76, 78
1, 723118, Note_on_c, 0, 54, 91
1, 723146, Note_off_c, 0, 42, 63
1, 723147, Note_on_c, 0, 73, 75
1, 723161, Note_off_c, 0, 46, 61
1, 723167, Note_off_c, 0, 54, 63
1, 723204, Note_off_c, 0, 76, 60
1, 723240, Note_on_c, 0, 70, 77
1, 723265, Note_off_c, 0, 73, 61
1, 723316, Note_off_c, 0, 70, 62
1, 723329, Note_on_c, 0, 64, 78
1, 723361, Note_off_c, 0, 64, 67
1, 723432, Control_c, 0, 64, 84
1, 723447, Control_c, 0, 64, 53
1, 723457, Note_on_c, 0, 67, 106
1, 723458, Note_on_c, 0, 64, 94
1, 723459, Note_on_c, 0, 54, 85
1, 723461, Control_c, 0, 64, 31
1, 723471, Note_on_c, 0, 58, 79
1, 723476, Control_c, 0, 64, 52
1, 723491, Control_c, 0, 64, 68
1, 723506, Control_c, 0, 64, 92
1, 723521, Control_c, 0, 64, 127
1, 723553, Note_on_c, 0, 73, 87
1, 723556, Note_off_c, 0, 67, 52
1, 723593, Note_off_c, 0, 64, 56
1, 723625, Note_off_c, 0, 73, 62
1, 723644, Note_off_c, 0, 54, 53
1, 723664, Note_on_c, 0, 88, 83
1, 723747, Note_on_c, 0, 66, 99
1, 723748, Note_on_c, 0, 54, 70
1, 723780, Note_off_c, 0, 66, 67
1, 723783, Note_on_c, 0, 85, 86
1, 723785, Note_off_c, 0, 58, 64
1, 723802, Note_off_c, 0, 54, 63
1, 723803, Note_off_c, 0, 88, 65
1, 723893, Note_on_c, 0, 82, 84
1, 723902, Note_on_c, 0, 84, 21
1, 723914, Note_off_c, 0, 85, 61
1, 723943, Note_off_c, 0, 84, 42
1, 723985, Note_on_c, 0, 76, 85
1, 723985, Note_off_c, 0, 82, 61
1, 724025, Note_off_c, 0, 76, 66
1, 724063, Control_c, 0, 64, 94
1, 724077, Control_c, 0, 64, 55
1, 724088, Note_on_c, 0, 42, 87
1, 724089, Note_on_c, 0, 55, 101
1, 724092, Note_on_c, 0, 52, 96
1, 724092, Control_c, 0, 64, 0
1, 724102, Note_on_c, 0, 46, 79
1, 724107, Control_c, 0, 64, 50
1, 724122, Control_c, 0, 64, 72
1, 724137, Control_c, 0, 64, 127
1, 724173, Note_off_c, 0, 55, 55
1, 724215, Note_off_c, 0, 52, 48
1, 724222, Poly_aftertouch_c, 0, 49, 0
1, 724226, Note_on_c, 0, 61, 85
1, 724286, Note_off_c, 0, 61, 61
1, 724349, Note_on_c, 0, 76, 85
1, 724415, Note_on_c, 0, 54, 99
1, 724436, Note_off_c, 0, 42, 0
1, 724454, Note_off_c, 0, 46, 59
1, 724459, Poly_aftertouch_c, 0, 42, 0
1, 724471, Note_on_c, 0, 73, 88
1, 724485, Note_off_c, 0, 54, 55
1, 724495, Note_off_c, 0, 76, 63
1, 724569, Note_on_c, 0, 70, 86
1, 724595, Note_off_c, 0, 73, 62
1, 724657, Note_on_c, 0, 64, 87
1, 724663, Note_off_c, 0, 70, 65
1, 724663, Control_c, 0, 64, 104
1, 724672, Note_on_c, 0, 42, 89
1, 724678, Control_c, 0, 64, 59
1, 724693, Control_c, 0, 64, 0
1, 724694, Note_off_c, 0, 64, 69
1, 724737, Control_c, 0, 64, 51
1, 724740, Note_on_c, 0, 49, 80
1, 724752, Control_c, 0, 64, 88
1, 724753, Note_on_c, 0, 46, 41
1, 724767, Control_c, 0, 64, 127
1, 724774, Note_off_c, 0, 42, 63
1, 724792, Note_off_c, 0, 46, 62
1, 724824, Note_on_c, 0, 52, 63
1, 724873, Note_off_c, 0, 49, 62
1, 724890, Note_on_c, 0, 58, 102
1, 724921, Note_off_c, 0, 52, 63
1, 724931, Note_off_c, 0, 58, 65
1, 725100, Note_on_c, 0, 85, 105
1, 725132, Note_on_c, 0, 99, 54
1, 725157, Note_off_c, 0, 99, 55
1, 725214, Note_off_c, 0, 85, 61
1, 725343, Note_on_c, 0, 100, 101
1, 725536, Note_on_c, 0, 97, 93
1, 725546, Note_on_c, 0, 88, 93
1, 725566, Note_off_c, 0, 100, 66
1, 725695, Note_on_c, 0, 94, 91
1, 725702, Note_on_c, 0, 85, 84
1, 725705, Note_off_c, 0, 88, 61
1, 725726, Note_off_c, 0, 97, 63
1, 725815, Note_on_c, 0, 91, 82
1, 725824, Note_on_c, 0, 82, 72
1, 725827, Note_off_c, 0, 85, 60
1, 725833, Note_off_c, 0, 94, 61
1, 725867, Note_off_c, 0, 82, 65
1, 725884, Note_off_c, 0, 91, 66
1, 725914, Note_on_c, 0, 88, 80
1, 725933, Note_on_c, 0, 79, 77
1, 725970, Note_off_c, 0, 88, 63
1, 726023, Note_on_c, 0, 85, 82
1, 726024, Note_off_c, 0, 79, 61
1, 726033, Note_on_c, 0, 76, 73
1, 726115, Note_off_c, 0, 76, 59
1, 726116, Note_on_c, 0, 73, 74
1, 726122, Note_on_c, 0, 82, 82
1, 726130, Note_off_c, 0, 85, 64
1, 726209, Note_off_c, 0, 82, 64
1, 726212, Note_on_c, 0, 79, 80
1, 726218, Note_off_c, 0, 73, 62
1, 726219, Note_on_c, 0, 70, 72
1, 726241, Note_off_c, 0, 70, 72
1, 726263, Note_off_c, 0, 79, 67
1, 726308, Note_on_c, 0, 76, 77
1, 726312, Note_on_c, 0, 67, 83
1, 726367, Note_off_c, 0, 76, 62
1, 726376, Note_off_c, 0, 67, 56
1, 726396, Note_on_c, 0, 64, 79
1, 726397, Note_on_c, 0, 73, 82
1, 726479, Note_on_c, 0, 61, 75
1, 726481, Note_off_c, 0, 64, 62
1, 726485, Note_off_c, 0, 73, 64
1, 726487, Note_on_c, 0, 70, 84
1, 726559, Note_off_c, 0, 70, 65
1, 726566, Note_on_c, 0, 67, 84
1, 726573, Note_off_c, 0, 61, 65
1, 726574, Note_on_c, 0, 58, 72
1, 726605, Note_off_c, 0, 58, 66
1, 726632, Note_off_c, 0, 67, 64
1, 726661, Note_on_c, 0, 64, 86
1, 726665, Note_on_c, 0, 55, 83
1, 726718, Note_off_c, 0, 64, 65
1, 726742, Note_off_c, 0, 55, 57
1, 726759, Note_on_c, 0, 51, 93
1, 726760, Note_on_c, 0, 60, 96
1, 726784, Control_c, 0, 64, 70
1, 726799, Control_c, 0, 64, 47
1, 726813, Control_c, 0, 64, 45
1, 726828, Control_c, 0, 64, 57
1, 726843, Control_c, 0, 64, 70
1, 726855, Note_off_c, 0, 51, 64
1, 726858, Control_c, 0, 64, 103
1, 726865, Note_on_c, 0, 52, 83
1, 726871, Note_on_c, 0, 61, 92
1, 726873, Control_c, 0, 64, 127
1, 726891, Note_off_c, 0, 60, 60
1, 726934, Note_off_c, 0, 61, 65
1, 726969, Note_off_c, 0, 52, 59
1, 726984, Note_on_c, 0, 64, 101
1, 726985, Note_on_c, 0, 49, 83
1, 727079, Note_off_c, 0, 49, 60
1, 727103, Control_c, 0, 64, 70
1, 727109, Note_on_c, 0, 67, 96
1, 727118, Control_c, 0, 64, 0
1, 727121, Note_on_c, 0, 46, 90
1, 727163, Control_c, 0, 64, 53
1, 727177, Control_c, 0, 64, 82
1, 727192, Control_c, 0, 64, 127
1, 727221, Poly_aftertouch_c, 0, 48, 127
1, 727241, Note_on_c, 0, 70, 93
1, 727242, Note_off_c, 0, 46, 61
1, 727252, Note_on_c, 0, 52, 73
1, 727255, Note_on_c, 0, 58, 92
1, 727255, Poly_aftertouch_c, 0, 48, 0
1, 727258, Note_off_c, 0, 67, 62
1, 727336, Note_off_c, 0, 58, 59
1, 727342, Note_off_c, 0, 70, 63
1, 727360, Note_off_c, 0, 52, 49
1, 727371, Note_on_c, 0, 73, 94
1, 727377, Note_on_c, 0, 70, 68
1, 727388, Note_on_c, 0, 46, 80
1, 727398, Note_off_c, 0, 70, 66
1, 727400, Note_off_c, 0, 64, 67
1, 727464, Note_off_c, 0, 46, 61
1, 727485, Note_off_c, 0, 73, 53
1, 727517, Control_c, 0, 64, 65
1, 727532, Control_c, 0, 64, 0
1, 727549, Note_on_c, 0, 76, 101
1, 727552, Note_on_c, 0, 64, 101
1, 727553, Note_on_c, 0, 67, 102
1, 727561, Note_on_c, 0, 47, 84
1, 727562, Control_c, 0, 64, 33
1, 727576, Note_on_c, 0, 73, 68
1, 727576, Control_c, 0, 64, 76
1, 727584, Note_off_c, 0, 64, 68
1, 727591, Control_c, 0, 64, 127
1, 727592, Note_off_c, 0, 73, 66
1, 727592, Note_off_c, 0, 76, 71
1, 727594, Note_off_c, 0, 67, 65
1, 727622, Note_on_c, 0, 48, 11
1, 727707, Note_off_c, 0, 47, 60
1, 727709, Note_on_c, 0, 52, 70
1, 727714, Note_off_c, 0, 48, 33
1, 727718, Note_on_c, 0, 59, 80
1, 727777, Note_off_c, 0, 59, 61
1, 727796, Note_off_c, 0, 52, 57
1, 727860, Note_on_c, 0, 47, 81
1, 727911, Note_off_c, 0, 47, 63
1, 727935, Poly_aftertouch_c, 0, 48, 127
1, 727976, Poly_aftertouch_c, 0, 48, 0
1, 727994, Note_on_c, 0, 50, 38
1, 728029, Control_c, 0, 64, 73
1, 728044, Control_c, 0, 64, 0
1, 728053, Note_on_c, 0, 58, 99
1, 728054, Note_on_c, 0, 46, 86
1, 728057, Note_off_c, 0, 50, 44
1, 728058, Note_on_c, 0, 66, 92
1, 728058, Note_on_c, 0, 76, 101
1, 728060, Note_on_c, 0, 64, 102
1, 728083, Note_off_c, 0, 58, 66
1, 728088, Control_c, 0, 64, 57
1, 728103, Control_c, 0, 64, 98
1, 728117, Note_off_c, 0, 46, 61
1, 728118, Control_c, 0, 64, 127
1, 728240, Note_off_c, 0, 76, 58
1, 728263, Note_off_c, 0, 64, 61
1, 728277, Note_on_c, 0, 42, 100
1, 728288, Note_on_c, 0, 30, 71
1, 728289, Note_off_c, 0, 66, 64
1, 728313, Note_off_c, 0, 42, 63
1, 728314, Note_off_c, 0, 30, 65
1, 728328, Note_on_c, 0, 32, 22
1, 728386, Note_off_c, 0, 32, 50
1, 728496, Note_on_c, 0, 75, 95
1, 728498, Note_on_c, 0, 57, 76
1, 728498, Note_on_c, 0, 63, 95
1, 728500, Note_on_c, 0, 72, 84
1, 728503, Note_on_c, 0, 45, 76
1, 728522, Note_off_c, 0, 57, 67
1, 728542, Note_off_c, 0, 45, 62
1, 728668, Note_off_c, 0, 63, 59
1, 728677, Note_on_c, 0, 42, 98
1, 728701, Note_on_c, 0, 30, 56
1, 728719, Note_off_c, 0, 42, 62
1, 728738, Note_off_c, 0, 30, 56
1, 728783, Note_off_c, 0, 75, 59
1, 728808, Note_off_c, 0, 72, 58
1, 728842, Note_on_c, 0, 71, 97
1, 728879, Note_off_c, 0, 71, 69
1, 728986, Note_on_c, 0, 55, 97
1, 728988, Note_on_c, 0, 43, 88
1, 729030, Note_off_c, 0, 55, 65
1, 729038, Note_off_c, 0, 43, 62
1, 729170, Control_c, 0, 64, 115
1, 729185, Control_c, 0, 64, 62
1, 729199, Control_c, 0, 64, 0
1, 729215, Note_on_c, 0, 74, 109
1, 729216, Note_on_c, 0, 62, 108
1, 729218, Note_on_c, 0, 56, 101
1, 729222, Note_on_c, 0, 70, 94
1, 729223, Note_on_c, 0, 44, 85
1, 729259, Control_c, 0, 64, 64
1, 729273, Control_c, 0, 64, 117
1, 729277, Note_off_c, 0, 44, 64
1, 729288, Control_c, 0, 64, 127
1, 729291, Note_off_c, 0, 56, 60
1, 729406, Note_on_c, 0, 65, 94
1, 729407, Note_on_c, 0, 53, 88
1, 729434, Note_off_c, 0, 70, 61
1, 729440, Note_off_c, 0, 65, 62
1, 729449, Note_off_c, 0, 53, 63
1, 729479, Note_off_c, 0, 74, 54
1, 729480, Note_off_c, 0, 62, 56
1, 729556, Control_c, 0, 64, 92
1, 729571, Control_c, 0, 64, 57
1, 729575, Note_on_c, 0, 64, 97
1, 729575, Note_on_c, 0, 74, 105
1, 729577, Note_on_c, 0, 62, 104
1, 729577, Note_on_c, 0, 69, 96
1, 729580, Note_on_c, 0, 52, 89
1, 729586, Control_c, 0, 64, 0
1, 729594, Note_off_c, 0, 64, 72
1, 729601, Control_c, 0, 64, 29
1, 729616, Control_c, 0, 64, 53
1, 729619, Note_off_c, 0, 52, 65
1, 729630, Control_c, 0, 64, 74
1, 729645, Control_c, 0, 64, 107
1, 729660, Control_c, 0, 64, 127
1, 729696, Note_off_c, 0, 74, 63
1, 729728, Note_off_c, 0, 62, 60
1, 729731, Note_off_c, 0, 69, 64
1, 729747, Note_on_c, 0, 54, 95
1, 729751, Note_on_c, 0, 42, 80
1, 729785, Note_off_c, 0, 42, 66
1, 729785, Note_off_c, 0, 54, 61
1, 729792, Note_on_c, 0, 41, 33
1, 729831, Note_off_c, 0, 41, 44
1, 729890, Control_c, 0, 64, 102
1, 729905, Control_c, 0, 64, 63
1, 729917, Note_on_c, 0, 55, 90
1, 729919, Note_on_c, 0, 73, 92
1, 729920, Control_c, 0, 64, 0
1, 729921, Note_on_c, 0, 61, 95
1, 729921, Note_on_c, 0, 70, 88
1, 729924, Note_on_c, 0, 43, 84
1, 729938, Note_off_c, 0, 55, 71
1, 729950, Control_c, 0, 64, 47
1, 729965, Control_c, 0, 64, 67
1, 729971, Note_off_c, 0, 43, 60
1, 729979, Control_c, 0, 64, 83
1, 729994, Control_c, 0, 64, 127
1, 730078, Note_on_c, 0, 42, 103
1, 730084, Note_off_c, 0, 61, 56
1, 730089, Note_on_c, 0, 30, 79
1, 730114, Note_off_c, 0, 42, 65
1, 730119, Note_off_c, 0, 30, 65
1, 730196, Note_off_c, 0, 73, 53
1, 730206, Note_off_c, 0, 70, 57
1, 730242, Note_on_c, 0, 69, 99
1, 730281, Note_off_c, 0, 69, 70
1, 730386, Note_on_c, 0, 52, 101
1, 730392, Note_on_c, 0, 40, 85
1, 730435, Note_off_c, 0, 52, 62
1, 730436, Note_on_c, 0, 42, 15
1, 730445, Note_off_c, 0, 40, 62
1, 730467, Note_off_c, 0, 42, 53
1, 730543, Control_c, 0, 64, 122
1, 730558, Control_c, 0, 64, 65
1, 730572, Control_c, 0, 64, 0
1, 730577, Note_on_c, 0, 71, 104
1, 730579, Note_on_c, 0, 67, 95
1, 730581, Note_on_c, 0, 59, 102
1, 730585, Note_on_c, 0, 53, 95
1, 730587, Note_on_c, 0, 41, 87
1, 730617, Control_c, 0, 64, 50
1, 730639, Note_off_c, 0, 41, 65
1, 730639, Control_c, 0, 64, 72
1, 730653, Control_c, 0, 64, 114
1, 730656, Note_off_c, 0, 53, 62
1, 730668, Control_c, 0, 64, 127
1, 730773, Note_on_c, 0, 62, 91
1, 730774, Note_on_c, 0, 50, 92
1, 730795, Note_off_c, 0, 62, 70
1, 730806, Note_off_c, 0, 50, 62
1, 730813, Note_off_c, 0, 67, 57
1, 730850, Note_off_c, 0, 59, 49
1, 730889, Note_off_c, 0, 71, 43
1, 730950, Control_c, 0, 64, 69
1, 730965, Control_c, 0, 64, 0
1, 730986, Note_on_c, 0, 71, 100
1, 730989, Note_on_c, 0, 61, 96
1, 730990, Note_on_c, 0, 59, 98
1, 730991, Note_on_c, 0, 66, 97
1, 730995, Note_on_c, 0, 49, 84
1, 731009, Control_c, 0, 64, 44
1, 731024, Note_off_c, 0, 61, 64
1, 731024, Control_c, 0, 64, 77
1, 731025, Note_on_c, 0, 68, 47
1, 731039, Control_c, 0, 64, 127
1, 731044, Note_on_c, 0, 51, 11
1, 731048, Note_off_c, 0, 68, 59
1, 731053, Note_off_c, 0, 49, 63
1, 731089, Note_off_c, 0, 71, 62
1, 731094, Note_off_c, 0, 51, 47
1, 731124, Note_off_c, 0, 59, 57
1, 731200, Note_on_c, 0, 42, 97
1, 731209, Note_on_c, 0, 30, 77
1, 731238, Note_off_c, 0, 30, 65
1, 731241, Note_off_c, 0, 42, 62
1, 731326, Note_off_c, 0, 66, 54
1, 731347, Note_on_c, 0, 70, 95
1, 731353, Note_on_c, 0, 58, 100
1, 731355, Note_on_c, 0, 61, 88
1, 731375, Note_on_c, 0, 54, 98
1, 731378, Note_on_c, 0, 42, 93
1, 731392, Note_off_c, 0, 54, 75
1, 731404, Note_off_c, 0, 42, 60
1, 731409, Note_off_c, 0, 58, 65
1, 731409, Note_off_c, 0, 70, 70
1, 731419, Note_off_c, 0, 61, 66
1, 731423, Note_on_c, 0, 41, 36
1, 731461, Note_off_c, 0, 41, 55
1, 731527, Note_on_c, 0, 42, 80
1, 731531, Note_on_c, 0, 30, 65
1, 731545, Note_on_c, 0, 39, 48
1, 731551, Note_off_c, 0, 42, 66
1, 731562, Note_off_c, 0, 30, 64
1, 731577, Note_off_c, 0, 39, 56
1, 731669, Control_c, 0, 64, 66
1, 731682, Note_on_c, 0, 69, 95
1, 731682, Note_on_c, 0, 57, 93
1, 731683, Control_c, 0, 64, 35
1, 731688, Note_on_c, 0, 63, 94
1, 731694, Note_on_c, 0, 60, 88
1, 731697, Note_on_c, 0, 48, 93
1, 731698, Control_c, 0, 64, 34
1, 731713, Control_c, 0, 64, 54
1, 731715, Note_off_c, 0, 60, 73
1, 731723, Note_off_c, 0, 48, 70
1, 731728, Control_c, 0, 64, 68
1, 731729, Note_on_c, 0, 66, 34
1, 731734, Note_on_c, 0, 59, 26
1, 731734, Note_off_c, 0, 59, 127
1, 731742, Control_c, 0, 64, 86
1, 731757, Control_c, 0, 64, 127
1, 731762, Note_off_c, 0, 66, 33
1, 731768, Poly_aftertouch_c, 0, 59, 0
1, 731815, Note_off_c, 0, 69, 58
1, 731835, Note_off_c, 0, 63, 62
1, 731840, Note_on_c, 0, 42, 98
1, 731848, Note_on_c, 0, 30, 76
1, 731864, Note_off_c, 0, 57, 59
1, 731867, Note_off_c, 0, 42, 68
1, 731873, Note_off_c, 0, 30, 65
1, 731965, Control_c, 0, 64, 110
1, 731980, Control_c, 0, 64, 69
1, 731995, Note_on_c, 0, 67, 101
1, 731995, Control_c, 0, 64, 55
1, 732001, Note_on_c, 0, 55, 100
1, 732004, Note_on_c, 0, 64, 92
1, 732010, Control_c, 0, 64, 58
1, 732013, Note_on_c, 0, 59, 89
1, 732015, Note_on_c, 0, 47, 95
1, 732025, Control_c, 0, 64, 67
1, 732031, Note_off_c, 0, 59, 72
1, 732036, Note_off_c, 0, 47, 72
1, 732039, Control_c, 0, 64, 86
1, 732054, Control_c, 0, 64, 127
1, 732084, Note_off_c, 0, 55, 59
1, 732085, Note_off_c, 0, 67, 65
1, 732102, Note_off_c, 0, 64, 64
1, 732156, Note_on_c, 0, 42, 98
1, 732160, Note_on_c, 0, 30, 79
1, 732179, Note_off_c, 0, 42, 70
1, 732183, Note_off_c, 0, 30, 66
1, 732284, Control_c, 0, 64, 95
1, 732299, Control_c, 0, 64, 58
1, 732314, Control_c, 0, 64, 0
1, 732326, Note_on_c, 0, 66, 93
1, 732334, Note_on_c, 0, 54, 92
1, 732335, Note_on_c, 0, 58, 97
1, 732335, Note_on_c, 0, 64, 85
1, 732336, Note_on_c, 0, 46, 97
1, 732352, Note_off_c, 0, 58, 74
1, 732358, Control_c, 0, 64, 56
1, 732373, Control_c, 0, 64, 75
1, 732381, Note_off_c, 0, 46, 58
1, 732388, Control_c, 0, 64, 127
1, 732483, Note_on_c, 0, 62, 79
1, 732504, Note_off_c, 0, 64, 64
1, 732507, Note_on_c, 0, 42, 101
1, 732508, Note_off_c, 0, 54, 63
1, 732513, Note_off_c, 0, 66, 61
1, 732516, Note_on_c, 0, 30, 81
1, 732527, Note_off_c, 0, 62, 63
1, 732544, Note_on_c, 0, 29, 49
1, 732586, Note_off_c, 0, 29, 51
1, 732650, Note_on_c, 0, 64, 100
1, 732654, Note_on_c, 0, 52, 98
1, 732662, Note_on_c, 0, 61, 83
1, 732678, Note_off_c, 0, 52, 68
1, 732687, Note_off_c, 0, 42, 61
1, 732698, Note_off_c, 0, 64, 65
1, 732699, Note_off_c, 0, 30, 52
1, 732731, Note_off_c, 0, 61, 58
1, 732789, Control_c, 0, 64, 85
1, 732794, Note_on_c, 0, 54, 98
1, 732794, Note_on_c, 0, 62, 82
1, 732795, Note_on_c, 0, 66, 99
1, 732804, Control_c, 0, 64, 56
1, 732809, Note_on_c, 0, 42, 96
1, 732815, Note_on_c, 0, 30, 87
1, 732819, Control_c, 0, 64, 0
1, 732848, Control_c, 0, 64, 37
1, 732871, Control_c, 0, 64, 60
1, 732874, Note_off_c, 0, 62, 61
1, 732884, Note_off_c, 0, 54, 63
1, 732886, Control_c, 0, 64, 73
1, 732901, Control_c, 0, 64, 99
1, 732916, Control_c, 0, 64, 127
1, 732917, Note_off_c, 0, 66, 59
1, 732921, Poly_aftertouch_c, 0, 29, 127
1, 732944, Note_off_c, 0, 30, 60
1, 732949, Poly_aftertouch_c, 0, 29, 0
1, 732966, Note_on_c, 0, 62, 105
1, 732966, Note_off_c, 0, 42, 61
1, 733073, Note_off_c, 0, 62, 61
1, 733114, Note_on_c, 0, 66, 95
1, 733119, Note_on_c, 0, 59, 88
1, 733120, Note_on_c, 0, 50, 81
1, 733162, Note_off_c, 0, 59, 64
1, 733217, Note_off_c, 0, 66, 58
1, 733262, Note_on_c, 0, 71, 90
1, 733266, Note_on_c, 0, 62, 84
1, 733281, Note_on_c, 0, 55, 79
1, 733291, Note_off_c, 0, 62, 65
1, 733309, Note_off_c, 0, 71, 64
1, 733342, Note_off_c, 0, 55, 60
1, 733361, Note_off_c, 0, 50, 61
1, 733399, Note_on_c, 0, 74, 96
1, 733402, Note_on_c, 0, 62, 91
1, 733408, Note_on_c, 0, 54, 68
1, 733413, Note_on_c, 0, 66, 65
1, 733413, Note_off_c, 0, 66, 127
1, 733414, Note_off_c, 0, 74, 74
1, 733428, Note_off_c, 0, 62, 68
1, 733464, Note_off_c, 0, 54, 59
1, 733488, Poly_aftertouch_c, 0, 65, 127
1, 733508, Note_on_c, 0, 47, 82
1, 733528, Poly_aftertouch_c, 0, 65, 0
1, 733597, Control_c, 0, 64, 64
1, 733619, Control_c, 0, 64, 0
1, 733632, Note_on_c, 0, 55, 106
1, 733632, Note_on_c, 0, 67, 96
1, 733634, Note_on_c, 0, 66, 92
1, 733639, Note_on_c, 0, 59, 104
1, 733649, Control_c, 0, 64, 33
1, 733660, Note_off_c, 0, 59, 71
1, 733664, Note_on_c, 0, 63, 43
1, 733664, Note_off_c, 0, 63, 127
1, 733664, Control_c, 0, 64, 63
1, 733667, Note_on_c, 0, 50, 47
1, 733679, Control_c, 0, 64, 86
1, 733691, Note_off_c, 0, 47, 66
1, 733694, Control_c, 0, 64, 127
1, 733699, Note_off_c, 0, 50, 56
1, 733779, Note_off_c, 0, 55, 57
1, 733780, Note_off_c, 0, 67, 59
1, 733827, Note_on_c, 0, 64, 76
1, 733843, Note_on_c, 0, 42, 108
1, 733851, Note_on_c, 0, 30, 93
1, 733852, Note_off_c, 0, 66, 62
1, 733870, Note_off_c, 0, 64, 65
1, 733923, Note_off_c, 0, 42, 52
1, 733926, Poly_aftertouch_c, 0, 34, 0
1, 733978, Poly_aftertouch_c, 0, 34, 0
1, 733992, Note_on_c, 0, 54, 99
1, 733992, Note_on_c, 0, 62, 87
1, 733992, Note_on_c, 0, 66, 95
1, 734046, Note_off_c, 0, 30, 44
1, 734059, Note_off_c, 0, 54, 56
1, 734070, Note_off_c, 0, 62, 60
1, 734085, Note_off_c, 0, 66, 60
1, 734123, Control_c, 0, 64, 104
1, 734138, Control_c, 0, 64, 65
1, 734139, Note_on_c, 0, 67, 97
1, 734141, Note_on_c, 0, 55, 99
1, 734147, Note_on_c, 0, 42, 109
1, 734147, Note_on_c, 0, 64, 88
1, 734148, Note_on_c, 0, 30, 78
1, 734153, Control_c, 0, 64, 0
1, 734179, Note_off_c, 0, 55, 63
1, 734183, Control_c, 0, 64, 33
1, 734190, Note_on_c, 0, 32, 37
1, 734197, Control_c, 0, 64, 57
1, 734205, Note_off_c, 0, 64, 65
1, 734212, Control_c, 0, 64, 74
1, 734215, Note_off_c, 0, 67, 63
1, 734227, Control_c, 0, 64, 101
1, 734233, Note_off_c, 0, 30, 64
1, 734242, Control_c, 0, 64, 127
1, 734254, Note_off_c, 0, 32, 41
1, 734261, Note_off_c, 0, 42, 63
1, 734305, Note_on_c, 0, 64, 100
1, 734316, Note_on_c, 0, 65, 72
1, 734334, Note_off_c, 0, 65, 40
1, 734380, Note_off_c, 0, 64, 56
1, 734467, Note_on_c, 0, 67, 82
1, 734468, Note_on_c, 0, 52, 86
1, 734473, Note_on_c, 0, 61, 96
1, 734554, Note_off_c, 0, 61, 58
1, 734624, Note_on_c, 0, 73, 92
1, 734627, Note_on_c, 0, 57, 80
1, 734627, Note_on_c, 0, 64, 87
1, 734627, Note_off_c, 0, 67, 56
1, 734655, Note_off_c, 0, 64, 67
1, 734679, Note_off_c, 0, 73, 64
1, 734705, Note_off_c, 0, 57, 59
1, 734758, Note_on_c, 0, 55, 84
1, 734763, Note_off_c, 0, 52, 36
1, 734767, Note_on_c, 0, 76, 103
1, 734773, Note_on_c, 0, 64, 91
1, 734773, Note_on_c, 0, 67, 88
1, 734792, Note_off_c, 0, 67, 70
1, 734797, Note_off_c, 0, 64, 69
1, 734800, Note_off_c, 0, 55, 59
1, 734805, Note_off_c, 0, 76, 66
1, 734871, Note_on_c, 0, 51, 95
1, 734959, Control_c, 0, 64, 93
1, 734974, Control_c, 0, 64, 57
1, 734989, Control_c, 0, 64, 0
1, 735002, Note_on_c, 0, 63, 100
1, 735003, Note_on_c, 0, 72, 98
1, 735005, Note_on_c, 0, 60, 103
1, 735006, Note_on_c, 0, 57, 77
1, 735011, Note_on_c, 0, 67, 87
1, 735018, Control_c, 0, 64, 39
1, 735025, Note_off_c, 0, 63, 68
1, 735033, Control_c, 0, 64, 74
1, 735047, Note_off_c, 0, 57, 66
1, 735049, Control_c, 0, 64, 127
1, 735058, Note_off_c, 0, 60, 66
1, 735062, Note_off_c, 0, 67, 64
1, 735063, Note_off_c, 0, 72, 66
1, 735064, Note_off_c, 0, 51, 62
1, 735249, Control_c, 0, 64, 79
1, 735258, Note_on_c, 0, 69, 102
1, 735259, Note_on_c, 0, 57, 104
1, 735264, Note_on_c, 0, 66, 92
1, 735264, Control_c, 0, 64, 47
1, 735267, Note_on_c, 0, 42, 106
1, 735274, Note_on_c, 0, 30, 91
1, 735279, Control_c, 0, 64, 0
1, 735294, Control_c, 0, 64, 27
1, 735309, Control_c, 0, 64, 49
1, 735323, Control_c, 0, 64, 68
1, 735338, Control_c, 0, 64, 93
1, 735353, Control_c, 0, 64, 127
1, 735358, Note_off_c, 0, 66, 62
1, 735371, Note_off_c, 0, 57, 60
1, 735380, Note_off_c, 0, 69, 60
1, 735462, Note_on_c, 0, 66, 100
1, 735475, Note_off_c, 0, 30, 54
1, 735476, Note_off_c, 0, 42, 57
1, 735532, Note_off_c, 0, 66, 61
1, 735624, Note_on_c, 0, 30, 67
1, 735627, Note_on_c, 0, 42, 99
1, 735664, Note_on_c, 0, 32, 37
1, 735697, Note_on_c, 0, 59, 106
1, 735697, Note_on_c, 0, 67, 96
1, 735697, Note_on_c, 0, 71, 110
1, 735698, Note_off_c, 0, 30, 60
1, 735703, Note_off_c, 0, 42, 62
1, 735709, Note_off_c, 0, 32, 46
1, 735723, Control_c, 0, 64, 93
1, 735738, Control_c, 0, 64, 50
1, 735753, Control_c, 0, 64, 0
1, 735795, Note_on_c, 0, 42, 103
1, 735797, Control_c, 0, 64, 41
1, 735799, Note_on_c, 0, 30, 89
1, 735803, Note_off_c, 0, 67, 61
1, 735812, Control_c, 0, 64, 90
1, 735827, Control_c, 0, 64, 127
1, 735828, Note_off_c, 0, 30, 69
1, 735828, Note_off_c, 0, 59, 58
1, 735843, Note_off_c, 0, 71, 56
1, 735848, Note_off_c, 0, 42, 63
1, 736019, Note_on_c, 0, 60, 95
1, 736019, Note_on_c, 0, 67, 98
1, 736022, Note_on_c, 0, 64, 101
1, 736023, Note_on_c, 0, 52, 81
1, 736025, Note_on_c, 0, 55, 86
1, 736054, Note_off_c, 0, 64, 70
1, 736065, Note_off_c, 0, 52, 65
1, 736072, Note_off_c, 0, 55, 65
1, 736147, Note_off_c, 0, 60, 54
1, 736240, Note_off_c, 0, 67, 47
1, 736285, Note_on_c, 0, 64, 97
1, 736287, Note_on_c, 0, 72, 97
1, 736322, Note_off_c, 0, 64, 70
1, 736336, Note_off_c, 0, 72, 68
1, 736495, Note_on_c, 0, 76, 98
1, 736497, Note_on_c, 0, 48, 81
1, 736502, Note_on_c, 0, 67, 102
1, 736503, Note_on_c, 0, 55, 83
1, 736506, Note_on_c, 0, 52, 83
1, 736564, Note_off_c, 0, 48, 58
1, 736596, Note_off_c, 0, 67, 57
1, 736603, Note_off_c, 0, 55, 54
1, 736637, Note_off_c, 0, 52, 49
1, 736638, Note_off_c, 0, 76, 57
1, 736669, Note_on_c, 0, 55, 58
1, 736676, Note_on_c, 0, 60, 91
1, 736681, Note_on_c, 0, 72, 97
1, 736686, Note_on_c, 0, 79, 91
1, 736696, Note_on_c, 0, 52, 27
1, 736705, Note_off_c, 0, 55, 61
1, 736729, Note_off_c, 0, 60, 65
1, 736734, Note_off_c, 0, 52, 55
1, 736739, Note_off_c, 0, 72, 63
1, 736786, Note_off_c, 0, 79, 58
1, 736830, Note_on_c, 0, 64, 87
1, 736832, Note_on_c, 0, 60, 79
1, 736833, Note_on_c, 0, 76, 91
1, 736837, Note_on_c, 0, 67, 93
1, 736867, Note_on_c, 0, 75, 48
1, 736877, Note_off_c, 0, 64, 63
1, 736883, Note_off_c, 0, 67, 59
1, 736890, Note_off_c, 0, 75, 55
1, 736914, Note_off_c, 0, 60, 61
1, 736922, Note_off_c, 0, 76, 61
1, 736970, Note_on_c, 0, 72, 91
1, 736974, Note_on_c, 0, 79, 93
1, 736985, Note_on_c, 0, 64, 87
1, 736985, Note_on_c, 0, 67, 98
1, 737003, Note_off_c, 0, 72, 62
1, 737013, Note_on_c, 0, 60, 49
1, 737013, Note_off_c, 0, 79, 67
1, 737029, Note_off_c, 0, 60, 69
1, 737035, Note_off_c, 0, 67, 59
1, 737058, Note_off_c, 0, 64, 56
1, 737129, Note_on_c, 0, 84, 99
1, 737132, Note_on_c, 0, 76, 102
1, 737133, Note_on_c, 0, 55, 81
1, 737136, Note_on_c, 0, 60, 49
1, 737138, Note_on_c, 0, 64, 85
1, 737206, Note_off_c, 0, 64, 57
1, 737231, Note_off_c, 0, 76, 57
1, 737265, Note_off_c, 0, 84, 58
1, 737287, Note_off_c, 0, 55, 46
1, 737295, Note_on_c, 0, 64, 87
1, 737296, Note_on_c, 0, 67, 101
1, 737298, Note_on_c, 0, 79, 98
1, 737299, Note_on_c, 0, 88, 101
1, 737329, Note_off_c, 0, 60, 57
1, 737337, Note_off_c, 0, 64, 65
1, 737348, Note_off_c, 0, 67, 63
1, 737390, Note_off_c, 0, 79, 54
1, 737428, Note_off_c, 0, 88, 56
1, 737483, Note_on_c, 0, 67, 70
1, 737485, Note_on_c, 0, 84, 94
1, 737486, Note_on_c, 0, 76, 99
1, 737489, Note_on_c, 0, 72, 100
1, 737490, Note_on_c, 0, 64, 84
1, 737512, Note_on_c, 0, 82, 69
1, 737530, Note_off_c, 0, 67, 64
1, 737536, Note_off_c, 0, 82, 69
1, 737545, Note_off_c, 0, 72, 56
1, 737551, Note_off_c, 0, 64, 64
1, 737560, Note_off_c, 0, 76, 59
1, 737623, Note_off_c, 0, 84, 57
1, 737660, Note_on_c, 0, 79, 86
1, 737662, Note_on_c, 0, 88, 94
1, 737664, Note_on_c, 0, 67, 73
1, 737668, Note_on_c, 0, 72, 69
1, 737669, Note_on_c, 0, 76, 95
1, 737678, Note_off_c, 0, 79, 70
1, 737701, Note_off_c, 0, 88, 70
1, 737721, Note_off_c, 0, 72, 63
1, 737721, Note_off_c, 0, 67, 62
1, 737722, Note_off_c, 0, 76, 62
1, 737887, Note_on_c, 0, 76, 77
1, 737887, Note_on_c, 0, 91, 97
1, 737888, Note_on_c, 0, 84, 97
1, 737888, Note_on_c, 0, 88, 99
1, 737888, Note_on_c, 0, 79, 92
1, 737889, Note_on_c, 0, 72, 75
1, 737908, Note_on_c, 0, 92, 55
1, 737918, Note_off_c, 0, 88, 71
1, 737930, Note_off_c, 0, 92, 39
1, 737933, Note_off_c, 0, 84, 67
1, 737941, Note_off_c, 0, 79, 62
1, 737941, Note_off_c, 0, 76, 66
1, 737944, Note_off_c, 0, 72, 62
1, 737977, Note_off_c, 0, 91, 64
1, 738156, Note_on_c, 0, 84, 101
1, 738159, Note_on_c, 0, 76, 88
1, 738162, Note_on_c, 0, 96, 104
1, 738164, Note_on_c, 0, 88, 103
1, 738165, Note_on_c, 0, 79, 61
1, 738165, Note_on_c, 0, 91, 103
1, 738178, Note_off_c, 0, 84, 65
1, 738185, Note_on_c, 0, 78, 48
1, 738188, Note_off_c, 0, 79, 70
1, 738198, Note_off_c, 0, 76, 68
1, 738199, Note_on_c, 0, 93, 55
1, 738213, Note_off_c, 0, 78, 36
1, 738225, Note_off_c, 0, 93, 54
1, 738412, Note_off_c, 0, 96, 63
1, 738419, Note_off_c, 0, 88, 61
1, 738424, Note_on_c, 0, 54, 97
1, 738425, Note_off_c, 0, 91, 65
1, 738437, Control_c, 0, 64, 71
1, 738452, Control_c, 0, 64, 0
1, 738555, Note_on_c, 0, 61, 79
1, 738556, Control_c, 0, 64, 39
1, 738569, Note_off_c, 0, 54, 64
1, 738571, Control_c, 0, 64, 90
1, 738585, Control_c, 0, 64, 127
1, 738645, Note_on_c, 0, 64, 77
1, 738663, Note_off_c, 0, 61, 64
1, 738724, Note_on_c, 0, 70, 85
1, 738730, Note_off_c, 0, 64, 66
1, 738743, Note_off_c, 0, 70, 71
1, 738797, Note_on_c, 0, 85, 101
1, 738823, Note_on_c, 0, 88, 63
1, 738823, Note_off_c, 0, 88, 127
1, 738891, Note_on_c, 0, 90, 86
1, 738982, Note_on_c, 0, 94, 95
1, 739143, Note_on_c, 0, 100, 109
1, 739197, Note_off_c, 0, 100, 70
1, 740651, Note_off_c, 0, 85, 57
1, 740767, Note_off_c, 0, 90, 58
1, 740783, Note_off_c, 0, 94, 58
1, 740803, Control_c, 0, 64, 94
1, 740818, Control_c, 0, 64, 68
1, 740833, Control_c, 0, 64, 50
1, 740848, Control_c, 0, 64, 0
1, 742046, Note_on_c, 0, 61, 98
1, 742062, Control_c, 0, 64, 69
1, 742076, Control_c, 0, 64, 127
1, 742103, Note_off_c, 0, 61, 65
1, 742412, Note_on_c, 0, 64, 76
1, 742557, Note_on_c, 0, 67, 78
1, 742637, Note_off_c, 0, 64, 63
1, 742654, Note_on_c, 0, 70, 81
1, 742684, Note_off_c, 0, 67, 59
1, 742702, Note_off_c, 0, 70, 66
1, 742741, Note_on_c, 0, 71, 76
1, 742816, Note_on_c, 0, 70, 81
1, 742841, Note_off_c, 0, 71, 60
1, 742873, Note_on_c, 0, 76, 73
1, 742908, Note_off_c, 0, 70, 60
1, 742914, Note_on_c, 0, 79, 80
1, 742939, Note_off_c, 0, 76, 65
1, 742987, Note_on_c, 0, 61, 94
1, 742990, Note_off_c, 0, 79, 60
1, 743080, Poly_aftertouch_c, 0, 62, 127
1, 743168, Note_on_c, 0, 64, 54
1, 743209, Note_off_c, 0, 61, 57
1, 743221, Poly_aftertouch_c, 0, 62, 0
1, 743239, Note_on_c, 0, 67, 66
1, 743283, Note_off_c, 0, 64, 58
1, 743292, Note_on_c, 0, 70, 69
1, 743301, Note_off_c, 0, 67, 62
1, 743320, Note_off_c, 0, 70, 64
1, 743343, Note_on_c, 0, 71, 70
1, 743412, Note_on_c, 0, 70, 87
1, 743428, Note_off_c, 0, 71, 57
1, 743466, Note_on_c, 0, 76, 77
1, 743480, Note_off_c, 0, 70, 61
1, 743489, Note_on_c, 0, 79, 83
1, 743509, Note_off_c, 0, 76, 63
1, 743534, Note_off_c, 0, 79, 63
1, 743535, Note_on_c, 0, 61, 95
1, 743635, Poly_aftertouch_c, 0, 62, 127
1, 743655, Note_on_c, 0, 64, 70
1, 743670, Poly_aftertouch_c, 0, 62, 0
1, 743686, Note_off_c, 0, 61, 59
1, 743707, Note_on_c, 0, 67, 64
1, 743757, Note_off_c, 0, 64, 62
1, 743765, Note_on_c, 0, 70, 72
1, 743775, Note_off_c, 0, 67, 62
1, 743792, Note_off_c, 0, 70, 62
1, 743813, Note_on_c, 0, 71, 70
1, 743870, Note_on_c, 0, 70, 86
1, 743888, Note_off_c, 0, 71, 61
1, 743919, Note_on_c, 0, 76, 73
1, 743938, Note_off_c, 0, 70, 59
1, 743958, Note_on_c, 0, 79, 78
1, 743973, Note_off_c, 0, 76, 64
1, 744005, Control_c, 0, 64, 76
1, 744011, Note_on_c, 0, 61, 90
1, 744020, Control_c, 0, 64, 53
1, 744024, Note_off_c, 0, 79, 48
1, 744035, Control_c, 0, 64, 37
1, 744050, Control_c, 0, 64, 49
1, 744065, Control_c, 0, 64, 63
1, 744079, Control_c, 0, 64, 78
1, 744102, Control_c, 0, 64, 127
1, 744139, Note_on_c, 0, 64, 63
1, 744196, Note_on_c, 0, 67, 69
1, 744209, Note_off_c, 0, 61, 58
1, 744263, Note_off_c, 0, 67, 63
1, 744264, Note_on_c, 0, 70, 68
1, 744285, Note_on_c, 0, 71, 72
1, 744287, Note_off_c, 0, 64, 33
1, 744291, Note_off_c, 0, 70, 64
1, 744337, Note_on_c, 0, 70, 75
1, 744348, Note_off_c, 0, 71, 58
1, 744393, Note_on_c, 0, 76, 68
1, 744412, Note_off_c, 0, 70, 60
1, 744428, Note_on_c, 0, 79, 71
1, 744452, Note_off_c, 0, 76, 63
1, 744487, Control_c, 0, 64, 99
1, 744491, Note_on_c, 0, 60, 79
1, 744502, Control_c, 0, 64, 65
1, 744517, Control_c, 0, 64, 32
1, 744517, Control_c, 0, 67, 59
1, 744531, Control_c, 0, 64, 0
1, 744531, Control_c, 0, 67, 95
1, 744546, Control_c, 0, 64, 36
1, 744546, Control_c, 0, 67, 126
1, 744561, Control_c, 0, 64, 58
1, 744568, Note_on_c, 0, 64, 66
1, 744576, Control_c, 0, 64, 71
1, 744580, Note_off_c, 0, 79, 33
1, 744591, Control_c, 0, 64, 90
1, 744605, Control_c, 0, 64, 127
1, 744621, Note_on_c, 0, 67, 66
1, 744628, Note_off_c, 0, 60, 62
1, 744693, Note_on_c, 0, 70, 71
1, 744699, Note_off_c, 0, 64, 63
1, 744699, Note_off_c, 0, 67, 62
1, 744741, Note_on_c, 0, 72, 63
1, 744741, Note_off_c, 0, 70, 63
1, 744782, Note_on_c, 0, 70, 63
1, 744812, Note_off_c, 0, 72, 57
1, 744838, Note_off_c, 0, 70, 65
1, 744841, Note_on_c, 0, 76, 70
1, 744895, Note_on_c, 0, 79, 70
1, 744905, Note_off_c, 0, 76, 64
1, 744941, Note_off_c, 0, 79, 58
1, 744947, Note_on_c, 0, 58, 64
1, 745000, Note_on_c, 0, 60, 58
1, 745024, Note_off_c, 0, 58, 62
1, 745051, Note_on_c, 0, 64, 67
1, 745066, Note_off_c, 0, 60, 65
1, 745102, Note_off_c, 0, 64, 64
1, 745105, Note_on_c, 0, 67, 67
1, 745135, Note_off_c, 0, 67, 62
1, 745149, Note_on_c, 0, 69, 64
1, 745215, Note_on_c, 0, 67, 75
1, 745221, Note_off_c, 0, 69, 57
1, 745259, Note_on_c, 0, 72, 65
1, 745261, Note_off_c, 0, 67, 61
1, 745314, Note_on_c, 0, 76, 70
1, 745317, Note_off_c, 0, 72, 62
1, 745342, Note_off_c, 0, 76, 64
1, 745364, Note_on_c, 0, 55, 58
1, 745415, Note_on_c, 0, 58, 63
1, 745435, Note_off_c, 0, 55, 61
1, 745448, Note_on_c, 0, 60, 66
1, 745483, Note_off_c, 0, 58, 61
1, 745491, Note_off_c, 0, 60, 62
1, 745504, Note_on_c, 0, 64, 63
1, 745524, Note_off_c, 0, 64, 65
1, 745529, Note_on_c, 0, 65, 58
1, 745582, Note_off_c, 0, 65, 53
1, 745600, Note_on_c, 0, 64, 79
1, 745654, Note_on_c, 0, 67, 64
1, 745654, Note_off_c, 0, 64, 59
1, 745702, Note_on_c, 0, 72, 68
1, 745713, Note_off_c, 0, 67, 62
1, 745728, Note_off_c, 0, 72, 66
1, 745777, Control_c, 0, 64, 74
1, 745783, Note_on_c, 0, 36, 72
1, 745792, Control_c, 0, 64, 57
1, 745807, Control_c, 0, 64, 55
1, 745822, Control_c, 0, 64, 61
1, 745837, Control_c, 0, 64, 71
1, 745842, Note_on_c, 0, 48, 79
1, 745844, Note_off_c, 0, 36, 63
1, 745851, Control_c, 0, 64, 97
1, 745866, Control_c, 0, 64, 127
1, 745867, Note_off_c, 0, 48, 64
1, 745894, Note_on_c, 0, 55, 66
1, 745925, Control_c, 0, 67, 118
1, 745936, Note_off_c, 0, 55, 57
1, 745940, Control_c, 0, 67, 73
1, 745951, Note_on_c, 0, 58, 75
1, 745955, Control_c, 0, 67, 0
1, 745984, Note_off_c, 0, 58, 65
1, 746009, Note_on_c, 0, 62, 54
1, 746044, Note_off_c, 0, 62, 63
1, 746072, Note_on_c, 0, 60, 65
1, 746085, Note_on_c, 0, 59, 44
1, 746109, Note_off_c, 0, 60, 62
1, 746114, Note_off_c, 0, 59, 54
1, 746130, Note_on_c, 0, 64, 77
1, 746169, Note_off_c, 0, 64, 64
1, 746171, Note_on_c, 0, 67, 70
1, 746196, Note_off_c, 0, 67, 67
1, 746233, Note_on_c, 0, 55, 95
1, 746237, Control_c, 0, 64, 99
1, 746252, Control_c, 0, 64, 63
1, 746267, Control_c, 0, 64, 0
1, 746312, Control_c, 0, 64, 37
1, 746326, Control_c, 0, 64, 65
1, 746341, Control_c, 0, 64, 85
1, 746363, Control_c, 0, 64, 127
1, 746408, Note_on_c, 0, 58, 70
1, 746461, Note_off_c, 0, 55, 57
1, 746491, Note_on_c, 0, 61, 60
1, 746502, Note_off_c, 0, 58, 62
1, 746536, Note_on_c, 0, 64, 69
1, 746547, Note_off_c, 0, 61, 63
1, 746559, Note_off_c, 0, 64, 68
1, 746596, Note_on_c, 0, 65, 62
1, 746625, Note_on_c, 0, 64, 71
1, 746688, Note_off_c, 0, 65, 60
1, 746694, Note_on_c, 0, 70, 73
1, 746711, Note_off_c, 0, 64, 61
1, 746727, Note_on_c, 0, 73, 81
1, 746749, Note_off_c, 0, 70, 64
1, 746763, Control_c, 0, 64, 117
1, 746765, Note_on_c, 0, 55, 93
1, 746778, Control_c, 0, 64, 68
1, 746792, Control_c, 0, 64, 52
1, 746794, Note_off_c, 0, 73, 60
1, 746807, Control_c, 0, 64, 54
1, 746822, Control_c, 0, 64, 64
1, 746837, Control_c, 0, 64, 79
1, 746852, Control_c, 0, 64, 127
1, 746880, Note_on_c, 0, 58, 69
1, 746920, Note_off_c, 0, 55, 55
1, 746951, Note_on_c, 0, 61, 66
1, 746955, Note_off_c, 0, 58, 63
1, 746993, Note_on_c, 0, 64, 71
1, 746998, Note_off_c, 0, 61, 62
1, 747025, Note_off_c, 0, 64, 66
1, 747037, Note_on_c, 0, 65, 68
1, 747099, Note_on_c, 0, 64, 72
1, 747122, Note_off_c, 0, 65, 61
1, 747146, Note_on_c, 0, 70, 78
1, 747170, Note_off_c, 0, 64, 55
1, 747184, Note_on_c, 0, 73, 78
1, 747206, Note_off_c, 0, 70, 63
1, 747223, Note_on_c, 0, 55, 97
1, 747256, Note_off_c, 0, 73, 57
1, 747330, Note_on_c, 0, 58, 72
1, 747360, Note_off_c, 0, 55, 59
1, 747393, Note_off_c, 0, 58, 63
1, 747401, Note_on_c, 0, 61, 68
1, 747449, Note_off_c, 0, 61, 52
1, 747465, Note_on_c, 0, 64, 64
1, 747491, Note_on_c, 0, 65, 62
1, 747491, Note_off_c, 0, 64, 66
1, 747562, Note_on_c, 0, 64, 74
1, 747575, Note_off_c, 0, 65, 60
1, 747609, Note_on_c, 0, 70, 68
1, 747629, Note_off_c, 0, 64, 59
1, 747656, Note_on_c, 0, 73, 72
1, 747677, Note_off_c, 0, 70, 61
1, 747770, Note_on_c, 0, 55, 88
1, 747778, Control_c, 0, 64, 87
1, 747793, Control_c, 0, 64, 61
1, 747808, Control_c, 0, 64, 46
1, 747823, Control_c, 0, 64, 45
1, 747829, Note_off_c, 0, 73, 38
1, 747845, Control_c, 0, 64, 53
1, 747860, Control_c, 0, 64, 63
1, 747875, Control_c, 0, 64, 73
1, 747890, Control_c, 0, 64, 93
1, 747904, Control_c, 0, 64, 127
1, 747991, Note_on_c, 0, 58, 59
1, 748038, Control_c, 0, 67, 35
1, 748053, Control_c, 0, 67, 51
1, 748068, Control_c, 0, 67, 65
1, 748069, Note_off_c, 0, 55, 57
1, 748080, Note_on_c, 0, 61, 56
1, 748083, Control_c, 0, 67, 80
1, 748097, Control_c, 0, 67, 93
1, 748112, Control_c, 0, 67, 106
1, 748124, Note_off_c, 0, 58, 59
1, 748127, Control_c, 0, 67, 119
1, 748142, Control_c, 0, 67, 127
1, 748146, Note_on_c, 0, 64, 72
1, 748176, Note_off_c, 0, 61, 58
1, 748186, Note_off_c, 0, 64, 62
1, 748216, Note_on_c, 0, 65, 58
1, 748288, Note_off_c, 0, 65, 62
1, 748289, Note_on_c, 0, 64, 70
1, 748347, Note_on_c, 0, 70, 68
1, 748356, Note_off_c, 0, 64, 63
1, 748405, Note_off_c, 0, 70, 62
1, 748407, Note_on_c, 0, 73, 66
1, 748534, Note_on_c, 0, 54, 72
1, 748592, Control_c, 0, 64, 94
1, 748607, Control_c, 0, 64, 65
1, 748623, Control_c, 0, 64, 47
1, 748638, Control_c, 0, 64, 31
1, 748653, Control_c, 0, 64, 29
1, 748667, Control_c, 0, 64, 39
1, 748682, Control_c, 0, 64, 56
1, 748697, Control_c, 0, 64, 66
1, 748701, Note_on_c, 0, 58, 49
1, 748712, Control_c, 0, 64, 76
1, 748727, Control_c, 0, 64, 85
1, 748741, Control_c, 0, 64, 91
1, 748756, Control_c, 0, 64, 100
1, 748762, Note_on_c, 0, 61, 49
1, 748771, Control_c, 0, 64, 113
1, 748786, Control_c, 0, 64, 127
1, 748809, Note_off_c, 0, 58, 58
1, 748836, Note_off_c, 0, 61, 63
1, 748849, Note_on_c, 0, 64, 58
1, 748855, Note_off_c, 0, 54, 37
1, 748869, Note_off_c, 0, 73, 57
1, 748870, Note_off_c, 0, 64, 65
1, 748885, Note_on_c, 0, 66, 57
1, 748948, Note_on_c, 0, 64, 64
1, 748970, Note_off_c, 0, 66, 60
1, 749001, Note_on_c, 0, 70, 63
1, 749013, Note_off_c, 0, 64, 62
1, 749050, Note_on_c, 0, 73, 67
1, 749050, Note_off_c, 0, 70, 62
1, 749086, Note_on_c, 0, 52, 62
1, 749087, Note_off_c, 0, 73, 59
1, 749138, Note_on_c, 0, 54, 70
1, 749158, Note_off_c, 0, 52, 60
1, 749191, Note_on_c, 0, 58, 78
1, 749198, Note_off_c, 0, 54, 60
1, 749235, Note_on_c, 0, 61, 69
1, 749240, Note_off_c, 0, 58, 64
1, 749263, Note_off_c, 0, 61, 69
1, 749296, Note_on_c, 0, 62, 68
1, 749364, Note_on_c, 0, 61, 77
1, 749372, Control_c, 0, 67, 115
1, 749387, Control_c, 0, 67, 85
1, 749389, Note_off_c, 0, 62, 60
1, 749401, Control_c, 0, 67, 65
1, 749410, Note_on_c, 0, 66, 70
1, 749417, Control_c, 0, 67, 51
1, 749432, Control_c, 0, 67, 40
1, 749435, Note_off_c, 0, 61, 58
1, 749447, Control_c, 0, 67, 0
1, 749459, Note_on_c, 0, 70, 73
1, 749475, Note_off_c, 0, 66, 64
1, 749513, Note_on_c, 0, 49, 74
1, 749513, Note_off_c, 0, 70, 64
1, 749521, Control_c, 0, 64, 81
1, 749536, Control_c, 0, 64, 61
1, 749550, Control_c, 0, 64, 59
1, 749565, Control_c, 0, 64, 64
1, 749572, Note_on_c, 0, 52, 67
1, 749580, Control_c, 0, 64, 75
1, 749595, Control_c, 0, 64, 102
1, 749610, Control_c, 0, 64, 127
1, 749614, Note_on_c, 0, 54, 71
1, 749624, Note_off_c, 0, 49, 60
1, 749653, Note_on_c, 0, 58, 75
1, 749656, Note_off_c, 0, 52, 61
1, 749677, Note_off_c, 0, 54, 63
1, 749689, Note_off_c, 0, 58, 63
1, 749694, Note_on_c, 0, 59, 63
1, 749764, Note_on_c, 0, 58, 79
1, 749779, Note_off_c, 0, 59, 63
1, 749818, Note_on_c, 0, 61, 65
1, 749854, Note_off_c, 0, 58, 57
1, 749870, Note_on_c, 0, 66, 77
1, 749883, Note_off_c, 0, 61, 64
1, 749915, Note_off_c, 0, 66, 62
1, 749936, Note_on_c, 0, 30, 73
1, 749950, Control_c, 0, 64, 75
1, 749965, Control_c, 0, 64, 51
1, 749980, Control_c, 0, 64, 31
1, 749980, Control_c, 0, 67, 68
1, 749995, Control_c, 0, 64, 38
1, 749995, Control_c, 0, 67, 103
1, 750010, Control_c, 0, 64, 54
1, 750010, Control_c, 0, 67, 127
1, 750017, Note_on_c, 0, 42, 75
1, 750024, Control_c, 0, 64, 72
1, 750033, Note_off_c, 0, 30, 63
1, 750039, Control_c, 0, 64, 99
1, 750053, Note_off_c, 0, 42, 64
1, 750054, Control_c, 0, 64, 127
1, 750077, Note_on_c, 0, 49, 72
1, 750151, Note_on_c, 0, 52, 68
1, 750157, Note_off_c, 0, 49, 58
1, 750202, Note_on_c, 0, 55, 66
1, 750206, Note_off_c, 0, 52, 60
1, 750256, Note_off_c, 0, 55, 60
1, 750312, Note_on_c, 0, 54, 67
1, 750370, Note_off_c, 0, 54, 55
1, 750410, Note_on_c, 0, 58, 63
1, 750497, Note_off_c, 0, 58, 59
1, 750501, Note_on_c, 0, 61, 62
1, 750628, Note_off_c, 0, 61, 53
1, 750817, Control_c, 0, 64, 108
1, 750832, Control_c, 0, 64, 92
1, 750855, Control_c, 0, 64, 77
1, 750870, Control_c, 0, 64, 66
1, 750876, Note_on_c, 0, 61, 55
1, 750885, Control_c, 0, 64, 54
1, 750899, Control_c, 0, 64, 35
1, 750914, Control_c, 0, 64, 0
1, 751359, Control_c, 0, 64, 31
1, 751374, Control_c, 0, 64, 44
1, 751378, Note_on_c, 0, 64, 36
1, 751388, Control_c, 0, 64, 53
1, 751403, Control_c, 0, 64, 57
1, 751418, Control_c, 0, 64, 59
1, 751433, Control_c, 0, 64, 61
1, 751448, Control_c, 0, 64, 63
1, 751463, Control_c, 0, 64, 66
1, 751478, Control_c, 0, 64, 68
1, 751493, Control_c, 0, 64, 70
1, 751508, Control_c, 0, 64, 74
1, 751517, Note_on_c, 0, 67, 42
1, 751522, Control_c, 0, 64, 78
1, 751537, Control_c, 0, 64, 83
1, 751552, Control_c, 0, 64, 87
1, 751567, Note_off_c, 0, 61, 36
1, 751567, Control_c, 0, 64, 92
1, 751588, Control_c, 0, 64, 96
1, 751602, Note_on_c, 0, 70, 47
1, 751603, Control_c, 0, 64, 101
1, 751618, Control_c, 0, 64, 106
1, 751622, Note_off_c, 0, 67, 38
1, 751633, Control_c, 0, 64, 113
1, 751648, Control_c, 0, 64, 125
1, 751652, Note_off_c, 0, 70, 56
1, 751663, Control_c, 0, 64, 127
1, 751703, Note_on_c, 0, 71, 48
1, 751706, Note_off_c, 0, 64, 40
1, 751750, Note_off_c, 0, 71, 60
1, 751770, Note_on_c, 0, 70, 55
1, 751803, Note_off_c, 0, 70, 60
1, 751837, Note_on_c, 0, 76, 48
1, 751873, Note_off_c, 0, 76, 61
1, 751874, Note_on_c, 0, 79, 57
1, 751922, Note_off_c, 0, 79, 59
1, 751941, Note_on_c, 0, 61, 61
1, 752181, Note_on_c, 0, 64, 35
1, 752212, Note_off_c, 0, 61, 37
1, 752261, Note_on_c, 0, 67, 46
1, 752322, Note_on_c, 0, 70, 56
1, 752323, Note_off_c, 0, 64, 33
1, 752342, Note_off_c, 0, 67, 50
1, 752361, Note_off_c, 0, 70, 64
1, 752411, Note_on_c, 0, 71, 56
1, 752460, Note_on_c, 0, 70, 68
1, 752485, Note_off_c, 0, 71, 47
1, 752508, Note_on_c, 0, 76, 62
1, 752509, Note_off_c, 0, 70, 54
1, 752552, Note_off_c, 0, 76, 55
1, 752553, Note_on_c, 0, 79, 60
1, 752605, Note_off_c, 0, 79, 58
1, 752611, Note_on_c, 0, 61, 78
1, 752716, Note_off_c, 0, 61, 61
1, 752718, Note_on_c, 0, 64, 58
1, 752757, Note_off_c, 0, 64, 65
1, 752763, Note_on_c, 0, 67, 62
1, 752797, Note_off_c, 0, 67, 65
1, 752831, Note_on_c, 0, 70, 63
1, 752861, Note_off_c, 0, 70, 64
1, 752884, Note_on_c, 0, 71, 63
1, 752942, Note_on_c, 0, 70, 78
1, 752955, Note_off_c, 0, 71, 56
1, 752996, Note_off_c, 0, 70, 62
1, 752998, Note_on_c, 0, 76, 66
1, 753048, Note_on_c, 0, 79, 64
1, 753062, Note_off_c, 0, 76, 61
1, 753131, Control_c, 0, 64, 91
1, 753132, Note_on_c, 0, 61, 77
1, 753146, Control_c, 0, 64, 71
1, 753161, Control_c, 0, 64, 56
1, 753168, Note_off_c, 0, 79, 58
1, 753175, Control_c, 0, 64, 44
1, 753190, Control_c, 0, 64, 45
1, 753205, Control_c, 0, 64, 56
1, 753219, Control_c, 0, 64, 65
1, 753234, Control_c, 0, 64, 72
1, 753249, Control_c, 0, 64, 81
1, 753264, Control_c, 0, 64, 87
1, 753279, Control_c, 0, 64, 94
1, 753293, Control_c, 0, 64, 102
1, 753308, Control_c, 0, 64, 109
1, 753323, Control_c, 0, 64, 117
1, 753338, Control_c, 0, 64, 127
1, 753339, Note_on_c, 0, 64, 45
1, 753412, Note_on_c, 0, 67, 48
1, 753416, Note_off_c, 0, 61, 54
1, 753464, Note_on_c, 0, 70, 60
1, 753495, Note_off_c, 0, 67, 39
1, 753501, Note_off_c, 0, 70, 60
1, 753542, Note_off_c, 0, 64, 33
1, 753565, Note_on_c, 0, 71, 48
1, 753625, Note_on_c, 0, 70, 57
1, 753628, Note_off_c, 0, 71, 51
1, 753698, Note_off_c, 0, 70, 59
1, 753711, Note_on_c, 0, 76, 50
1, 753787, Note_on_c, 0, 79, 53
1, 753794, Note_off_c, 0, 76, 59
1, 753920, Note_on_c, 0, 60, 52
1, 753939, Control_c, 0, 64, 96
1, 753954, Control_c, 0, 64, 75
1, 753969, Control_c, 0, 64, 62
1, 753984, Control_c, 0, 64, 50
1, 753998, Control_c, 0, 64, 46
1, 754028, Control_c, 0, 64, 47
1, 754042, Control_c, 0, 64, 49
1, 754057, Control_c, 0, 64, 52
1, 754072, Control_c, 0, 64, 56
1, 754087, Control_c, 0, 64, 59
1, 754102, Control_c, 0, 64, 62
1, 754116, Control_c, 0, 64, 65
1, 754131, Control_c, 0, 64, 69
1, 754146, Control_c, 0, 64, 74
1, 754161, Control_c, 0, 64, 78
1, 754176, Control_c, 0, 64, 80
1, 754185, Note_on_c, 0, 64, 40
1, 754191, Control_c, 0, 64, 83
1, 754206, Control_c, 0, 64, 86
1, 754221, Control_c, 0, 64, 90
1, 754227, Note_off_c, 0, 60, 55
1, 754236, Control_c, 0, 64, 94
1, 754251, Control_c, 0, 64, 98
1, 754256, Note_on_c, 0, 67, 42
1, 754265, Control_c, 0, 64, 103
1, 754280, Control_c, 0, 64, 108
1, 754295, Control_c, 0, 64, 113
1, 754310, Control_c, 0, 64, 122
1, 754321, Note_off_c, 0, 64, 61
1, 754325, Control_c, 0, 64, 127
1, 754331, Note_off_c, 0, 67, 60
1, 754335, Note_on_c, 0, 70, 54
1, 754353, Note_off_c, 0, 79, 38
1, 754366, Note_off_c, 0, 70, 65
1, 754405, Note_on_c, 0, 72, 45
1, 754444, Note_on_c, 0, 70, 67
1, 754499, Note_off_c, 0, 70, 52
1, 754520, Note_on_c, 0, 76, 50
1, 754521, Note_off_c, 0, 72, 52
1, 754554, Note_off_c, 0, 76, 65
1, 754555, Note_on_c, 0, 79, 54
1, 754590, Note_off_c, 0, 79, 66
1, 754608, Note_on_c, 0, 58, 56
1, 754659, Note_off_c, 0, 58, 59
1, 754664, Note_on_c, 0, 60, 52
1, 754711, Note_on_c, 0, 64, 54
1, 754715, Note_off_c, 0, 60, 57
1, 754775, Note_off_c, 0, 64, 64
1, 754775, Note_on_c, 0, 67, 58
1, 754808, Note_off_c, 0, 67, 64
1, 754832, Note_on_c, 0, 69, 60
1, 754897, Note_on_c, 0, 67, 69
1, 754899, Note_off_c, 0, 69, 60
1, 754925, Note_off_c, 0, 67, 62
1, 754939, Note_on_c, 0, 72, 56
1, 754983, Note_on_c, 0, 76, 70
1, 754995, Note_off_c, 0, 72, 59
1, 755019, Note_off_c, 0, 76, 60
1, 755041, Note_on_c, 0, 55, 48
1, 755091, Note_on_c, 0, 58, 59
1, 755102, Note_off_c, 0, 55, 60
1, 755130, Note_on_c, 0, 60, 62
1, 755156, Note_off_c, 0, 58, 61
1, 755172, Note_off_c, 0, 60, 64
1, 755194, Note_on_c, 0, 64, 56
1, 755217, Note_off_c, 0, 64, 60
1, 755225, Note_on_c, 0, 65, 62
1, 755290, Note_on_c, 0, 64, 70
1, 755308, Note_off_c, 0, 65, 53
1, 755355, Note_off_c, 0, 64, 63
1, 755357, Note_on_c, 0, 67, 56
1, 755401, Note_on_c, 0, 72, 65
1, 755419, Note_off_c, 0, 67, 62
1, 755434, Note_off_c, 0, 72, 60
1, 755466, Control_c, 0, 64, 94
1, 755478, Note_on_c, 0, 36, 62
1, 755481, Control_c, 0, 64, 69
1, 755496, Control_c, 0, 64, 54
1, 755511, Control_c, 0, 64, 50
1, 755526, Control_c, 0, 64, 54
1, 755538, Note_on_c, 0, 48, 69
1, 755541, Control_c, 0, 64, 62
1, 755550, Note_off_c, 0, 36, 61
1, 755556, Control_c, 0, 64, 74
1, 755570, Control_c, 0, 64, 93
1, 755580, Note_off_c, 0, 48, 63
1, 755585, Control_c, 0, 64, 125
1, 755600, Control_c, 0, 64, 127
1, 755606, Note_on_c, 0, 55, 54
1, 755657, Note_off_c, 0, 55, 60
1, 755675, Note_on_c, 0, 58, 61
1, 755701, Note_off_c, 0, 58, 65
1, 755714, Note_on_c, 0, 62, 56
1, 755751, Note_off_c, 0, 62, 65
1, 755800, Note_on_c, 0, 60, 62
1, 755845, Note_off_c, 0, 60, 55
1, 755882, Note_on_c, 0, 64, 56
1, 755938, Note_off_c, 0, 64, 61
1, 755940, Note_on_c, 0, 67, 62
1, 755987, Note_off_c, 0, 67, 57
1, 756120, Note_on_c, 0, 55, 63
1, 756142, Control_c, 0, 64, 125
1, 756157, Control_c, 0, 64, 85
1, 756172, Control_c, 0, 64, 60
1, 756186, Control_c, 0, 64, 32
1, 756201, Control_c, 0, 64, 0
1, 756290, Control_c, 0, 64, 31
1, 756305, Control_c, 0, 64, 42
1, 756319, Control_c, 0, 64, 54
1, 756334, Control_c, 0, 64, 61
1, 756349, Control_c, 0, 64, 64
1, 756364, Control_c, 0, 64, 66
1, 756379, Control_c, 0, 64, 68
1, 756393, Control_c, 0, 64, 70
1, 756408, Control_c, 0, 64, 74
1, 756423, Control_c, 0, 64, 77
1, 756438, Control_c, 0, 64, 81
1, 756453, Control_c, 0, 64, 85
1, 756468, Control_c, 0, 64, 90
1, 756480, Note_on_c, 0, 58, 41
1, 756483, Control_c, 0, 64, 95
1, 756498, Control_c, 0, 64, 101
1, 756512, Control_c, 0, 64, 107
1, 756527, Control_c, 0, 64, 113
1, 756542, Control_c, 0, 64, 121
1, 756557, Control_c, 0, 64, 127
1, 756569, Note_on_c, 0, 61, 39
1, 756593, Note_off_c, 0, 55, 37
1, 756653, Note_on_c, 0, 64, 44
1, 756660, Note_off_c, 0, 61, 58
1, 756660, Note_off_c, 0, 58, 37
1, 756688, Note_off_c, 0, 64, 62
1, 756710, Note_on_c, 0, 65, 43
1, 756766, Note_off_c, 0, 65, 58
1, 756775, Note_on_c, 0, 64, 58
1, 756812, Note_off_c, 0, 64, 58
1, 756815, Note_on_c, 0, 70, 60
1, 756857, Note_on_c, 0, 73, 60
1, 756868, Note_off_c, 0, 70, 55
1, 756912, Note_off_c, 0, 73, 57
1, 756914, Note_on_c, 0, 55, 73
1, 757042, Note_on_c, 0, 58, 52
1, 757046, Note_off_c, 0, 55, 59
1, 757119, Note_off_c, 0, 58, 59
1, 757135, Note_on_c, 0, 61, 43
1, 757174, Note_off_c, 0, 61, 61
1, 757183, Note_on_c, 0, 64, 51
1, 757206, Note_off_c, 0, 64, 62
1, 757240, Note_on_c, 0, 65, 46
1, 757283, Note_on_c, 0, 64, 66
1, 757292, Note_off_c, 0, 65, 52
1, 757346, Note_off_c, 0, 64, 59
1, 757348, Note_on_c, 0, 70, 64
1, 757386, Note_off_c, 0, 70, 59
1, 757392, Note_on_c, 0, 73, 53
1, 757425, Note_on_c, 0, 55, 75
1, 757429, Note_off_c, 0, 73, 63
1, 757516, Note_on_c, 0, 58, 62
1, 757520, Note_off_c, 0, 55, 59
1, 757573, Note_off_c, 0, 58, 57
1, 757605, Note_on_c, 0, 61, 52
1, 757651, Note_off_c, 0, 61, 64
1, 757669, Note_on_c, 0, 64, 42
1, 757694, Note_off_c, 0, 64, 58
1, 757724, Note_on_c, 0, 65, 51
1, 757784, Note_on_c, 0, 64, 59
1, 757792, Note_off_c, 0, 65, 61
1, 757861, Note_on_c, 0, 70, 60
1, 757863, Note_off_c, 0, 64, 61
1, 757914, Note_on_c, 0, 73, 59
1, 757929, Note_off_c, 0, 70, 58
1, 757984, Note_off_c, 0, 73, 59
1, 757994, Note_on_c, 0, 55, 70
1, 758009, Control_c, 0, 64, 92
1, 758024, Control_c, 0, 64, 70
1, 758039, Control_c, 0, 64, 53
1, 758054, Control_c, 0, 64, 39
1, 758069, Control_c, 0, 64, 40
1, 758083, Control_c, 0, 64, 50
1, 758098, Control_c, 0, 64, 63
1, 758113, Control_c, 0, 64, 70
1, 758128, Control_c, 0, 64, 77
1, 758143, Control_c, 0, 64, 82
1, 758157, Control_c, 0, 64, 85
1, 758172, Control_c, 0, 64, 89
1, 758173, Note_on_c, 0, 58, 50
1, 758187, Control_c, 0, 64, 94
1, 758203, Control_c, 0, 64, 101
1, 758218, Control_c, 0, 64, 109
1, 758232, Control_c, 0, 64, 127
1, 758243, Note_off_c, 0, 55, 55
1, 758288, Note_on_c, 0, 61, 20
1, 758346, Note_on_c, 0, 64, 54
1, 758348, Note_off_c, 0, 61, 43
1, 758384, Note_off_c, 0, 64, 59
1, 758394, Note_on_c, 0, 65, 37
1, 758425, Note_off_c, 0, 58, 38
1, 758483, Note_on_c, 0, 64, 50
1, 758486, Note_off_c, 0, 65, 57
1, 758582, Note_off_c, 0, 64, 48
1, 758595, Note_on_c, 0, 70, 50
1, 758722, Note_on_c, 0, 73, 45
1, 758814, Note_off_c, 0, 70, 37
1, 758820, Note_off_c, 0, 73, 51
1, 759009, Note_on_c, 0, 65, 42
1, 759022, Note_on_c, 0, 56, 42
1, 759022, Note_on_c, 0, 58, 37
1, 759033, Note_on_c, 0, 62, 33
1, 759055, Control_c, 0, 64, 95
1, 759078, Control_c, 0, 64, 76
1, 759093, Control_c, 0, 64, 62
1, 759108, Control_c, 0, 64, 46
1, 759123, Control_c, 0, 64, 27
1, 759137, Control_c, 0, 64, 0
1, 759211, Control_c, 0, 64, 35
1, 759226, Control_c, 0, 64, 50
1, 759241, Control_c, 0, 64, 60
1, 759255, Control_c, 0, 64, 65
1, 759270, Control_c, 0, 64, 68
1, 759285, Control_c, 0, 64, 72
1, 759300, Control_c, 0, 64, 75
1, 759315, Control_c, 0, 64, 80
1, 759327, Note_on_c, 0, 77, 55
1, 759330, Control_c, 0, 64, 86
1, 759344, Control_c, 0, 64, 93
1, 759359, Control_c, 0, 64, 102
1, 759366, Note_off_c, 0, 62, 50
1, 759371, Note_off_c, 0, 56, 57
1, 759371, Note_off_c, 0, 58, 60
1, 759374, Control_c, 0, 64, 114
1, 759381, Note_off_c, 0, 65, 57
1, 759389, Control_c, 0, 64, 127
1, 759449, Note_off_c, 0, 77, 62
1, 759484, Note_on_c, 0, 86, 61
1, 759495, Note_on_c, 0, 82, 51
1, 759591, Note_on_c, 0, 77, 50
1, 759603, Note_off_c, 0, 86, 62
1, 759661, Note_off_c, 0, 82, 61
1, 759667, Note_on_c, 0, 74, 50
1, 759673, Note_off_c, 0, 77, 63
1, 759691, Note_off_c, 0, 74, 60
1, 759721, Note_on_c, 0, 70, 51
1, 759771, Note_off_c, 0, 70, 63
1, 759785, Note_on_c, 0, 74, 54
1, 759862, Note_off_c, 0, 74, 61
1, 759878, Note_on_c, 0, 70, 47
1, 759921, Note_on_c, 0, 65, 53
1, 759924, Note_off_c, 0, 70, 62
1, 759958, Note_off_c, 0, 65, 61
1, 759981, Note_on_c, 0, 74, 61
1, 760012, Note_off_c, 0, 74, 66
1, 760032, Note_on_c, 0, 82, 59
1, 760059, Note_on_c, 0, 77, 57
1, 760090, Note_off_c, 0, 82, 61
1, 760108, Note_on_c, 0, 74, 71
1, 760125, Note_off_c, 0, 77, 61
1, 760142, Note_on_c, 0, 70, 67
1, 760149, Note_off_c, 0, 74, 60
1, 760170, Note_off_c, 0, 70, 65
1, 760202, Note_on_c, 0, 65, 47
1, 760236, Note_off_c, 0, 65, 64
1, 760270, Note_on_c, 0, 70, 63
1, 760299, Note_off_c, 0, 70, 64
1, 760322, Note_on_c, 0, 65, 59
1, 760364, Note_off_c, 0, 65, 58
1, 760371, Note_on_c, 0, 62, 58
1, 760414, Note_off_c, 0, 62, 60
1, 760439, Note_on_c, 0, 70, 63
1, 760493, Note_off_c, 0, 70, 62
1, 760510, Note_on_c, 0, 77, 63
1, 760534, Note_on_c, 0, 74, 55
1, 760553, Note_off_c, 0, 77, 60
1, 760562, Note_on_c, 0, 70, 64
1, 760604, Note_off_c, 0, 74, 56
1, 760621, Note_on_c, 0, 65, 56
1, 760622, Note_off_c, 0, 70, 63
1, 760650, Note_off_c, 0, 65, 64
1, 760689, Note_on_c, 0, 62, 52
1, 760721, Note_off_c, 0, 62, 64
1, 760752, Note_on_c, 0, 65, 56
1, 760808, Note_off_c, 0, 65, 56
1, 760817, Note_on_c, 0, 62, 44
1, 760867, Note_off_c, 0, 62, 62
1, 760875, Note_on_c, 0, 58, 59
1, 760920, Note_off_c, 0, 58, 58
1, 760945, Note_on_c, 0, 65, 49
1, 760978, Note_off_c, 0, 65, 63
1, 761012, Note_on_c, 0, 74, 63
1, 761038, Note_on_c, 0, 70, 46
1, 761080, Note_off_c, 0, 74, 59
1, 761087, Note_on_c, 0, 65, 55
1, 761122, Note_off_c, 0, 65, 60
1, 761137, Note_on_c, 0, 62, 57
1, 761160, Note_off_c, 0, 62, 60
1, 761179, Note_off_c, 0, 70, 53
1, 761206, Note_on_c, 0, 58, 55
1, 761248, Note_off_c, 0, 58, 57
1, 761276, Note_on_c, 0, 62, 42
1, 761370, Note_off_c, 0, 62, 53
1, 761410, Note_on_c, 0, 58, 48
1, 761594, Note_on_c, 0, 55, 72
1, 761619, Control_c, 0, 64, 105
1, 761630, Note_off_c, 0, 58, 60
1, 761634, Control_c, 0, 64, 77
1, 761649, Control_c, 0, 64, 60
1, 761664, Control_c, 0, 64, 39
1, 761679, Control_c, 0, 64, 0
1, 761708, Control_c, 0, 64, 41
1, 761723, Control_c, 0, 64, 57
1, 761738, Control_c, 0, 64, 64
1, 761753, Control_c, 0, 64, 69
1, 761767, Control_c, 0, 64, 74
1, 761782, Control_c, 0, 64, 77
1, 761797, Control_c, 0, 64, 81
1, 761812, Control_c, 0, 64, 85
1, 761827, Control_c, 0, 64, 91
1, 761841, Control_c, 0, 64, 97
1, 761856, Control_c, 0, 64, 105
1, 761872, Control_c, 0, 64, 127
1, 761872, Note_on_c, 0, 58, 46
1, 761923, Note_off_c, 0, 55, 54
1, 761982, Note_on_c, 0, 61, 40
1, 762018, Note_off_c, 0, 58, 52
1, 762057, Note_on_c, 0, 64, 46
1, 762084, Note_off_c, 0, 61, 54
1, 762112, Note_off_c, 0, 64, 60
1, 762137, Note_on_c, 0, 65, 37
1, 762219, Note_on_c, 0, 64, 50
1, 762237, Note_off_c, 0, 65, 56
1, 762262, Note_off_c, 0, 64, 58
1, 762266, Note_on_c, 0, 70, 56
1, 762323, Note_on_c, 0, 73, 51
1, 762343, Note_off_c, 0, 70, 59
1, 762376, Note_on_c, 0, 55, 74
1, 762387, Note_off_c, 0, 73, 59
1, 762544, Note_on_c, 0, 58, 44
1, 762560, Note_off_c, 0, 55, 56
1, 762625, Note_off_c, 0, 58, 59
1, 762653, Note_on_c, 0, 61, 40
1, 762691, Note_off_c, 0, 61, 63
1, 762703, Note_on_c, 0, 64, 51
1, 762734, Note_off_c, 0, 64, 64
1, 762757, Note_on_c, 0, 65, 53
1, 762808, Note_on_c, 0, 64, 60
1, 762844, Note_off_c, 0, 65, 59
1, 762864, Note_on_c, 0, 70, 68
1, 762874, Note_off_c, 0, 64, 62
1, 762892, Note_on_c, 0, 73, 68
1, 762915, Note_off_c, 0, 70, 59
1, 762945, Note_on_c, 0, 55, 75
1, 762948, Note_off_c, 0, 73, 61
1, 763043, Note_on_c, 0, 58, 65
1, 763052, Note_off_c, 0, 55, 60
1, 763111, Note_off_c, 0, 58, 61
1, 763148, Note_on_c, 0, 61, 38
1, 763173, Note_off_c, 0, 61, 56
1, 763186, Note_on_c, 0, 64, 53
1, 763208, Note_off_c, 0, 64, 64
1, 763214, Note_on_c, 0, 65, 48
1, 763291, Note_on_c, 0, 64, 60
1, 763297, Note_off_c, 0, 65, 60
1, 763353, Note_on_c, 0, 70, 58
1, 763353, Note_off_c, 0, 64, 61
1, 763390, Note_on_c, 0, 73, 56
1, 763398, Note_off_c, 0, 70, 57
1, 763470, Note_on_c, 0, 55, 70
1, 763483, Note_off_c, 0, 73, 58
1, 763517, Control_c, 0, 64, 86
1, 763532, Control_c, 0, 64, 65
1, 763546, Control_c, 0, 64, 47
1, 763568, Control_c, 0, 64, 31
1, 763583, Control_c, 0, 64, 32
1, 763598, Control_c, 0, 64, 46
1, 763613, Control_c, 0, 64, 62
1, 763628, Control_c, 0, 64, 70
1, 763643, Control_c, 0, 64, 80
1, 763658, Control_c, 0, 64, 88
1, 763666, Note_on_c, 0, 58, 50
1, 763673, Control_c, 0, 64, 92
1, 763688, Control_c, 0, 64, 98
1, 763702, Control_c, 0, 64, 105
1, 763717, Control_c, 0, 64, 127
1, 763750, Note_off_c, 0, 55, 59
1, 763794, Note_on_c, 0, 61, 50
1, 763801, Note_off_c, 0, 58, 60
1, 763852, Note_on_c, 0, 64, 42
1, 763887, Note_off_c, 0, 64, 57
1, 763913, Note_off_c, 0, 61, 36
1, 763926, Note_on_c, 0, 65, 44
1, 764015, Note_off_c, 0, 65, 58
1, 764022, Note_on_c, 0, 64, 50
1, 764100, Note_off_c, 0, 64, 55
1, 764141, Note_on_c, 0, 70, 47
1, 764251, Note_on_c, 0, 73, 47
1, 764358, Note_off_c, 0, 70, 37
1, 764374, Note_off_c, 0, 73, 57
1, 764529, Note_on_c, 0, 59, 42
1, 764530, Note_on_c, 0, 63, 35
1, 764534, Note_on_c, 0, 57, 39
1, 764542, Note_on_c, 0, 54, 36
1, 764600, Control_c, 0, 64, 96
1, 764615, Control_c, 0, 64, 75
1, 764630, Control_c, 0, 64, 56
1, 764645, Control_c, 0, 64, 38
1, 764659, Control_c, 0, 64, 0
1, 764719, Control_c, 0, 64, 33
1, 764734, Control_c, 0, 64, 45
1, 764748, Control_c, 0, 64, 55
1, 764763, Control_c, 0, 64, 62
1, 764778, Control_c, 0, 64, 65
1, 764792, Control_c, 0, 64, 68
1, 764807, Control_c, 0, 64, 71
1, 764822, Control_c, 0, 64, 75
1, 764837, Control_c, 0, 64, 82
1, 764842, Note_off_c, 0, 59, 56
1, 764843, Note_off_c, 0, 57, 61
1, 764849, Note_on_c, 0, 75, 55
1, 764852, Control_c, 0, 64, 89
1, 764856, Note_off_c, 0, 54, 49
1, 764866, Control_c, 0, 64, 98
1, 764881, Control_c, 0, 64, 111
1, 764885, Note_off_c, 0, 63, 61
1, 764896, Control_c, 0, 64, 127
1, 764981, Note_off_c, 0, 75, 60
1, 765014, Note_on_c, 0, 83, 53
1, 765037, Note_on_c, 0, 81, 44
1, 765136, Note_on_c, 0, 75, 47
1, 765140, Note_off_c, 0, 83, 49
1, 765156, Note_off_c, 0, 81, 61
1, 765202, Note_on_c, 0, 71, 44
1, 765211, Note_off_c, 0, 75, 61
1, 765232, Note_off_c, 0, 71, 54
1, 765248, Note_on_c, 0, 69, 40
1, 765283, Note_off_c, 0, 69, 62
1, 765315, Note_on_c, 0, 71, 55
1, 765358, Note_off_c, 0, 71, 56
1, 765387, Note_on_c, 0, 69, 52
1, 765445, Note_off_c, 0, 69, 60
1, 765453, Note_on_c, 0, 63, 54
1, 765498, Note_off_c, 0, 63, 59
1, 765509, Note_on_c, 0, 71, 43
1, 765542, Note_off_c, 0, 71, 54
1, 765569, Note_on_c, 0, 81, 62
1, 765572, Note_on_c, 0, 75, 47
1, 765634, Note_on_c, 0, 71, 64
1, 765639, Note_off_c, 0, 81, 54
1, 765676, Note_off_c, 0, 75, 61
1, 765688, Note_on_c, 0, 69, 58
1, 765694, Note_off_c, 0, 71, 58
1, 765716, Note_off_c, 0, 69, 66
1, 765744, Note_on_c, 0, 63, 50
1, 765773, Note_off_c, 0, 63, 57
1, 765802, Note_on_c, 0, 69, 52
1, 765879, Note_on_c, 0, 63, 55
1, 765880, Note_off_c, 0, 69, 57
1, 765962, Note_on_c, 0, 59, 50
1, 765964, Note_off_c, 0, 63, 59
1, 765999, Note_off_c, 0, 59, 62
1, 766019, Note_on_c, 0, 69, 54
1, 766060, Note_off_c, 0, 69, 61
1, 766074, Note_on_c, 0, 75, 65
1, 766123, Note_on_c, 0, 71, 49
1, 766143, Note_off_c, 0, 75, 60
1, 766169, Note_on_c, 0, 69, 49
1, 766202, Note_off_c, 0, 69, 66
1, 766202, Note_off_c, 0, 71, 57
1, 766224, Note_on_c, 0, 63, 46
1, 766247, Note_off_c, 0, 63, 58
1, 766275, Note_on_c, 0, 59, 48
1, 766308, Note_off_c, 0, 59, 64
1, 766338, Note_on_c, 0, 63, 48
1, 766393, Note_off_c, 0, 63, 56
1, 766408, Note_on_c, 0, 59, 47
1, 766476, Note_off_c, 0, 59, 63
1, 766503, Note_on_c, 0, 57, 42
1, 766531, Note_off_c, 0, 57, 56
1, 766582, Note_on_c, 0, 63, 42
1, 766610, Note_off_c, 0, 63, 62
1, 766637, Note_on_c, 0, 71, 44
1, 766673, Note_on_c, 0, 69, 46
1, 766711, Note_on_c, 0, 63, 47
1, 766767, Note_off_c, 0, 71, 41
1, 766783, Note_off_c, 0, 63, 52
1, 766785, Note_on_c, 0, 59, 44
1, 766813, Note_off_c, 0, 59, 55
1, 766856, Note_off_c, 0, 69, 37
1, 766864, Note_on_c, 0, 57, 35
1, 766898, Note_off_c, 0, 57, 54
1, 766948, Note_on_c, 0, 59, 40
1, 767005, Note_off_c, 0, 59, 59
1, 767030, Note_on_c, 0, 57, 34
1, 767256, Note_on_c, 0, 55, 68
1, 767313, Control_c, 0, 64, 91
1, 767327, Note_off_c, 0, 57, 38
1, 767328, Control_c, 0, 64, 70
1, 767342, Control_c, 0, 64, 55
1, 767357, Control_c, 0, 64, 40
1, 767372, Control_c, 0, 64, 32
1, 767387, Control_c, 0, 64, 34
1, 767402, Control_c, 0, 64, 41
1, 767417, Control_c, 0, 64, 51
1, 767432, Control_c, 0, 64, 59
1, 767447, Control_c, 0, 64, 64
1, 767461, Control_c, 0, 64, 69
1, 767476, Control_c, 0, 64, 73
1, 767491, Control_c, 0, 64, 77
1, 767506, Control_c, 0, 64, 80
1, 767521, Control_c, 0, 64, 83
1, 767536, Control_c, 0, 64, 88
1, 767550, Control_c, 0, 64, 93
1, 767565, Control_c, 0, 64, 100
1, 767580, Control_c, 0, 64, 109
1, 767594, Control_c, 0, 64, 127
1, 767600, Note_off_c, 0, 55, 58
1, 767601, Note_on_c, 0, 58, 40
1, 767686, Note_on_c, 0, 61, 42
1, 767696, Note_off_c, 0, 58, 58
1, 767754, Note_off_c, 0, 61, 51
1, 767756, Note_on_c, 0, 64, 42
1, 767805, Note_off_c, 0, 64, 59
1, 767829, Note_on_c, 0, 65, 38
1, 767898, Note_on_c, 0, 64, 54
1, 767909, Note_off_c, 0, 65, 52
1, 767941, Note_off_c, 0, 64, 57
1, 767950, Note_on_c, 0, 70, 58
1, 768013, Note_on_c, 0, 73, 53
1, 768025, Note_off_c, 0, 70, 60
1, 768076, Note_on_c, 0, 55, 71
1, 768093, Note_off_c, 0, 73, 60
1, 768261, Note_on_c, 0, 58, 43
1, 768275, Note_off_c, 0, 55, 58
1, 768337, Note_off_c, 0, 58, 60
1, 768353, Note_on_c, 0, 61, 39
1, 768402, Note_on_c, 0, 64, 48
1, 768446, Note_off_c, 0, 64, 60
1, 768481, Note_off_c, 0, 61, 37
1, 768487, Note_on_c, 0, 65, 44
1, 768565, Note_on_c, 0, 64, 47
1, 768572, Note_off_c, 0, 65, 55
1, 768669, Note_off_c, 0, 64, 56
1, 768669, Note_on_c, 0, 70, 46
1, 768765, Note_on_c, 0, 73, 43
1, 768878, Note_off_c, 0, 70, 33
1, 768886, Note_off_c, 0, 73, 59
1, 769001, Note_on_c, 0, 54, 37
1, 769015, Note_on_c, 0, 63, 37
1, 769021, Note_on_c, 0, 59, 41
1, 769028, Note_on_c, 0, 57, 38
1, 769048, Control_c, 0, 64, 117
1, 769063, Control_c, 0, 64, 87
1, 769078, Control_c, 0, 64, 68
1, 769093, Control_c, 0, 64, 53
1, 769107, Control_c, 0, 64, 37
1, 769122, Control_c, 0, 64, 0
1, 769137, Control_c, 0, 64, 27
1, 769152, Control_c, 0, 64, 34
1, 769167, Control_c, 0, 64, 44
1, 769181, Control_c, 0, 64, 55
1, 769196, Control_c, 0, 64, 63
1, 769211, Control_c, 0, 64, 68
1, 769226, Control_c, 0, 64, 74
1, 769241, Control_c, 0, 64, 78
1, 769256, Control_c, 0, 64, 82
1, 769271, Control_c, 0, 64, 88
1, 769274, Note_off_c, 0, 59, 60
1, 769285, Note_off_c, 0, 57, 51
1, 769285, Control_c, 0, 64, 95
1, 769292, Note_off_c, 0, 54, 58
1, 769300, Control_c, 0, 64, 104
1, 769304, Note_on_c, 0, 75, 51
1, 769310, Note_off_c, 0, 63, 60
1, 769315, Control_c, 0, 64, 125
1, 769330, Control_c, 0, 64, 127
1, 769377, Note_off_c, 0, 75, 60
1, 769400, Note_on_c, 0, 83, 52
1, 769429, Note_on_c, 0, 81, 50
1, 769480, Note_off_c, 0, 83, 57
1, 769496, Note_on_c, 0, 75, 56
1, 769531, Note_off_c, 0, 81, 62
1, 769544, Note_on_c, 0, 71, 48
1, 769576, Note_off_c, 0, 71, 57
1, 769578, Note_off_c, 0, 75, 61
1, 769605, Note_on_c, 0, 69, 44
1, 769651, Note_off_c, 0, 69, 61
1, 769668, Note_on_c, 0, 71, 53
1, 769714, Note_off_c, 0, 71, 57
1, 769749, Note_on_c, 0, 69, 52
1, 769798, Note_off_c, 0, 69, 60
1, 769813, Note_on_c, 0, 63, 62
1, 769862, Note_off_c, 0, 63, 59
1, 769881, Note_on_c, 0, 71, 57
1, 769920, Note_off_c, 0, 71, 62
1, 769957, Note_on_c, 0, 81, 58
1, 769960, Note_on_c, 0, 75, 56
1, 770013, Note_off_c, 0, 81, 61
1, 770042, Note_on_c, 0, 71, 52
1, 770064, Note_off_c, 0, 75, 62
1, 770088, Note_on_c, 0, 69, 47
1, 770106, Note_off_c, 0, 71, 54
1, 770112, Note_off_c, 0, 69, 59
1, 770162, Note_on_c, 0, 63, 40
1, 770209, Note_off_c, 0, 63, 63
1, 770231, Note_on_c, 0, 69, 48
1, 770321, Note_off_c, 0, 69, 55
1, 770354, Note_on_c, 0, 63, 50
1, 770549, Note_off_c, 0, 63, 55
1, 770565, Note_on_c, 0, 55, 54
1, 770635, Control_c, 0, 64, 104
1, 770650, Control_c, 0, 64, 82
1, 770665, Control_c, 0, 64, 64
1, 770680, Control_c, 0, 64, 50
1, 770694, Control_c, 0, 64, 38
1, 770709, Control_c, 0, 64, 34
1, 770738, Control_c, 0, 64, 36
1, 770753, Control_c, 0, 64, 41
1, 770768, Control_c, 0, 64, 48
1, 770783, Control_c, 0, 64, 56
1, 770798, Control_c, 0, 64, 61
1, 770812, Control_c, 0, 64, 65
1, 770827, Control_c, 0, 64, 68
1, 770842, Control_c, 0, 64, 72
1, 770857, Control_c, 0, 64, 77
1, 770872, Control_c, 0, 64, 81
1, 770886, Control_c, 0, 64, 86
1, 770899, Note_on_c, 0, 58, 39
1, 770901, Control_c, 0, 64, 91
1, 770916, Control_c, 0, 64, 97
1, 770930, Control_c, 0, 64, 104
1, 770945, Control_c, 0, 64, 113
1, 770960, Control_c, 0, 64, 127
1, 771030, Note_on_c, 0, 61, 33
1, 771112, Note_off_c, 0, 55, 35
1, 771148, Note_on_c, 0, 64, 37
1, 771184, Note_off_c, 0, 58, 25
1, 771192, Note_off_c, 0, 64, 58
1, 771229, Note_off_c, 0, 61, 26
1, 771229, Note_on_c, 0, 66, 45
1, 771332, Note_on_c, 0, 64, 44
1, 771355, Note_off_c, 0, 66, 52
1, 771453, Note_on_c, 0, 70, 48
1, 771471, Note_off_c, 0, 64, 47
1, 771624, Note_on_c, 0, 73, 49
1, 771690, Note_off_c, 0, 70, 33
1, 771825, Note_on_c, 0, 55, 56
1, 771832, Note_off_c, 0, 73, 47
1, 772106, Note_on_c, 0, 58, 41
1, 772270, Note_on_c, 0, 61, 32
1, 772359, Note_off_c, 0, 55, 27
1, 772401, Note_off_c, 0, 58, 31
1, 772444, Note_on_c, 0, 64, 35
1, 772586, Note_off_c, 0, 64, 37
1, 772617, Note_on_c, 0, 66, 44
1, 772795, Note_off_c, 0, 66, 49
1, 772804, Note_on_c, 0, 64, 32
1, 773050, Note_on_c, 0, 70, 39
1, 773116, Note_off_c, 0, 64, 39
1, 773405, Note_on_c, 0, 73, 39
1, 773414, Note_off_c, 0, 61, 41
1, 773704, Note_off_c, 0, 70, 36
1, 773722, Note_off_c, 0, 73, 37
1, 773934, Note_on_c, 0, 61, 15
1, 773942, Note_on_c, 0, 64, 35
1, 773950, Note_on_c, 0, 54, 35
1, 773953, Note_on_c, 0, 58, 32
1, 774028, Control_c, 0, 64, 105
1, 774043, Control_c, 0, 64, 84
1, 774066, Control_c, 0, 64, 68
1, 774080, Control_c, 0, 64, 56
1, 774095, Control_c, 0, 64, 43
1, 774110, Control_c, 0, 64, 33
1, 774125, Control_c, 0, 64, 28
1, 774185, Control_c, 0, 64, 32
1, 774200, Control_c, 0, 64, 38
1, 774215, Control_c, 0, 64, 46
1, 774230, Control_c, 0, 64, 54
1, 774245, Control_c, 0, 64, 58
1, 774259, Control_c, 0, 64, 60
1, 774274, Control_c, 0, 64, 62
1, 774289, Control_c, 0, 64, 64
1, 774303, Control_c, 0, 64, 66
1, 774318, Control_c, 0, 64, 68
1, 774333, Control_c, 0, 64, 71
1, 774348, Control_c, 0, 64, 72
1, 774363, Control_c, 0, 64, 74
1, 774377, Control_c, 0, 64, 77
1, 774392, Control_c, 0, 64, 80
1, 774407, Control_c, 0, 64, 83
1, 774422, Control_c, 0, 64, 87
1, 774437, Control_c, 0, 64, 91
1, 774452, Control_c, 0, 64, 95
1, 774465, Note_on_c, 0, 73, 45
1, 774467, Control_c, 0, 64, 101
1, 774482, Control_c, 0, 64, 108
1, 774496, Control_c, 0, 64, 122
1, 774511, Control_c, 0, 64, 127
1, 774723, Note_off_c, 0, 73, 57
1, 774759, Note_on_c, 0, 82, 53
1, 774778, Note_off_c, 0, 64, 43
1, 774780, Note_on_c, 0, 76, 34
1, 774789, Note_off_c, 0, 58, 40
1, 774821, Note_off_c, 0, 61, 43
1, 774825, Note_off_c, 0, 54, 32
1, 774967, Note_on_c, 0, 73, 45
1, 775092, Note_on_c, 0, 70, 51
1, 775167, Note_off_c, 0, 73, 48
1, 775173, Note_off_c, 0, 70, 56
1, 775179, Note_on_c, 0, 61, 35
1, 775201, Note_off_c, 0, 82, 36
1, 775219, Note_off_c, 0, 76, 42
1, 775231, Note_off_c, 0, 61, 58
1, 775280, Note_on_c, 0, 64, 35
1, 775343, Note_off_c, 0, 64, 59
1, 775355, Note_on_c, 0, 61, 40
1, 775417, Note_off_c, 0, 61, 53
1, 775459, Note_on_c, 0, 54, 48
1, 775564, Note_on_c, 0, 76, 35
1, 775586, Note_off_c, 0, 54, 46
1, 775602, Note_off_c, 0, 76, 59
1, 775645, Note_on_c, 0, 85, 60
1, 775665, Note_on_c, 0, 79, 38
1, 775740, Note_on_c, 0, 76, 39
1, 775814, Note_off_c, 0, 85, 62
1, 775843, Note_on_c, 0, 73, 47
1, 775868, Note_off_c, 0, 76, 54
1, 775879, Note_off_c, 0, 73, 51
1, 775882, Note_off_c, 0, 79, 52
1, 775903, Note_on_c, 0, 61, 31
1, 776016, Note_off_c, 0, 61, 53
1, 776038, Note_on_c, 0, 70, 44
1, 776090, Note_off_c, 0, 70, 61
1, 776199, Poly_aftertouch_c, 0, 61, 127
1, 776248, Poly_aftertouch_c, 0, 61, 0
1, 776258, Note_on_c, 0, 54, 28
1, 776323, Note_on_c, 0, 73, 38
1, 776390, Note_off_c, 0, 73, 58
1, 776396, Note_off_c, 0, 54, 25
1, 776420, Note_on_c, 0, 82, 56
1, 776441, Note_on_c, 0, 76, 37
1, 776520, Note_on_c, 0, 73, 51
1, 776616, Note_on_c, 0, 70, 43
1, 776667, Note_off_c, 0, 70, 57
1, 776674, Note_off_c, 0, 82, 38
1, 776678, Note_off_c, 0, 73, 51
1, 776712, Note_on_c, 0, 61, 36
1, 776739, Note_off_c, 0, 76, 42
1, 776780, Note_off_c, 0, 61, 56
1, 776836, Note_on_c, 0, 64, 34
1, 776902, Note_off_c, 0, 64, 60
1, 776943, Note_on_c, 0, 61, 29
1, 777057, Note_off_c, 0, 61, 38
1, 777075, Note_on_c, 0, 54, 33
1, 777172, Note_on_c, 0, 76, 45
1, 777275, Note_off_c, 0, 54, 33
1, 777328, Note_on_c, 0, 85, 61
1, 777337, Note_off_c, 0, 76, 35
1, 777361, Note_on_c, 0, 79, 31
1, 777469, Note_on_c, 0, 76, 34
1, 777582, Note_on_c, 0, 73, 30
1, 777591, Note_off_c, 0, 85, 54
1, 777705, Note_on_c, 0, 61, 32
1, 777723, Note_off_c, 0, 76, 41
1, 777736, Note_off_c, 0, 73, 36
1, 777763, Note_off_c, 0, 79, 43
1, 777888, Note_off_c, 0, 61, 42
1, 777910, Note_on_c, 0, 70, 28
1, 778044, Note_off_c, 0, 70, 37
1, 778095, Note_on_c, 0, 61, 31
1, 778388, Note_off_c, 0, 61, 31
1, 778434, Note_on_c, 0, 54, 27
1, 778890, Note_on_c, 0, 71, 63
1, 778930, Control_c, 0, 64, 118
1, 778944, Control_c, 0, 64, 91
1, 778959, Control_c, 0, 64, 74
1, 778975, Control_c, 0, 64, 62
1, 778990, Control_c, 0, 64, 52
1, 779005, Control_c, 0, 64, 48
1, 779020, Control_c, 0, 64, 50
1, 779035, Control_c, 0, 64, 55
1, 779049, Control_c, 0, 64, 61
1, 779064, Control_c, 0, 64, 66
1, 779079, Control_c, 0, 64, 73
1, 779093, Control_c, 0, 64, 80
1, 779108, Control_c, 0, 64, 86
1, 779123, Control_c, 0, 64, 91
1, 779138, Control_c, 0, 64, 97
1, 779153, Control_c, 0, 64, 103
1, 779168, Control_c, 0, 64, 112
1, 779182, Control_c, 0, 64, 127
1, 779191, Note_off_c, 0, 54, 42
1, 779230, Note_off_c, 0, 71, 60
1, 779286, Note_on_c, 0, 74, 23
1, 779300, Note_on_c, 0, 78, 36
1, 779442, Note_on_c, 0, 71, 14
1, 779531, Note_on_c, 0, 66, 39
1, 779536, Note_off_c, 0, 78, 30
1, 779571, Note_off_c, 0, 74, 43
1, 779582, Note_off_c, 0, 66, 48
1, 779615, Note_on_c, 0, 62, 34
1, 779625, Note_off_c, 0, 71, 42
1, 779756, Note_off_c, 0, 62, 35
1, 779758, Note_on_c, 0, 66, 30
1, 779827, Note_off_c, 0, 66, 57
1, 779883, Note_on_c, 0, 62, 22
1, 780023, Note_on_c, 0, 57, 35
1, 780032, Note_off_c, 0, 62, 31
1, 780101, Note_on_c, 0, 66, 66
1, 780217, Note_off_c, 0, 57, 53
1, 780321, Note_off_c, 0, 66, 59
1, 780392, Note_on_c, 0, 74, 37
1, 780413, Note_on_c, 0, 71, 36
1, 780468, Note_on_c, 0, 66, 49
1, 780545, Note_on_c, 0, 62, 35
1, 780562, Note_off_c, 0, 66, 62
1, 780580, Note_off_c, 0, 62, 52
1, 780618, Note_on_c, 0, 59, 47
1, 780647, Note_off_c, 0, 71, 38
1, 780663, Note_off_c, 0, 59, 61
1, 780714, Note_on_c, 0, 62, 15
1, 780727, Note_off_c, 0, 74, 14
1, 780800, Note_off_c, 0, 62, 53
1, 780804, Note_on_c, 0, 59, 29
1, 780872, Note_off_c, 0, 59, 54
1, 780923, Note_on_c, 0, 55, 37
1, 780971, Note_on_c, 0, 67, 63
1, 780984, Control_c, 0, 64, 103
1, 780999, Control_c, 0, 64, 81
1, 781014, Control_c, 0, 64, 67
1, 781028, Control_c, 0, 64, 58
1, 781043, Control_c, 0, 64, 54
1, 781058, Control_c, 0, 64, 56
1, 781072, Control_c, 0, 64, 63
1, 781087, Control_c, 0, 64, 69
1, 781102, Control_c, 0, 64, 80
1, 781117, Control_c, 0, 64, 92
1, 781132, Control_c, 0, 64, 102
1, 781147, Control_c, 0, 64, 108
1, 781162, Control_c, 0, 64, 114
1, 781177, Control_c, 0, 64, 127
1, 781183, Note_off_c, 0, 67, 58
1, 781192, Note_off_c, 0, 55, 55
1, 781248, Note_on_c, 0, 74, 40
1, 781269, Note_on_c, 0, 71, 37
1, 781325, Note_on_c, 0, 67, 42
1, 781328, Note_off_c, 0, 74, 54
1, 781374, Note_off_c, 0, 67, 59
1, 781377, Note_on_c, 0, 62, 37
1, 781382, Note_off_c, 0, 71, 54
1, 781417, Note_off_c, 0, 62, 59
1, 781435, Note_on_c, 0, 59, 39
1, 781472, Note_off_c, 0, 59, 63
1, 781534, Note_on_c, 0, 62, 25
1, 781575, Note_off_c, 0, 62, 54
1, 781586, Note_on_c, 0, 59, 47
1, 781656, Note_off_c, 0, 59, 48
1, 781718, Note_on_c, 0, 54, 41
1, 781779, Note_on_c, 0, 62, 60
1, 781897, Note_off_c, 0, 54, 56
1, 781945, Note_off_c, 0, 62, 58
1, 782005, Note_on_c, 0, 71, 48
1, 782047, Note_on_c, 0, 67, 29
1, 782077, Note_on_c, 0, 62, 49
1, 782133, Note_on_c, 0, 59, 42
1, 782144, Note_off_c, 0, 62, 56
1, 782175, Note_off_c, 0, 59, 50
1, 782182, Note_off_c, 0, 71, 27
1, 782197, Note_on_c, 0, 55, 36
1, 782201, Note_off_c, 0, 67, 40
1, 782234, Note_off_c, 0, 55, 60
1, 782277, Note_on_c, 0, 59, 44
1, 782330, Note_off_c, 0, 59, 47
1, 782345, Note_on_c, 0, 55, 46
1, 782431, Note_off_c, 0, 55, 51
1, 782479, Note_on_c, 0, 52, 39
1, 782510, Note_on_c, 0, 64, 61
1, 782526, Control_c, 0, 64, 93
1, 782541, Control_c, 0, 64, 74
1, 782556, Control_c, 0, 64, 62
1, 782571, Control_c, 0, 64, 55
1, 782600, Control_c, 0, 64, 60
1, 782615, Control_c, 0, 64, 66
1, 782630, Control_c, 0, 64, 74
1, 782644, Control_c, 0, 64, 85
1, 782659, Control_c, 0, 64, 93
1, 782674, Control_c, 0, 64, 96
1, 782679, Note_off_c, 0, 64, 61
1, 782682, Note_off_c, 0, 52, 51
1, 782689, Control_c, 0, 64, 98
1, 782704, Control_c, 0, 64, 102
1, 782718, Control_c, 0, 64, 108
1, 782727, Note_on_c, 0, 71, 41
1, 782733, Control_c, 0, 64, 127
1, 782742, Note_on_c, 0, 67, 38
1, 782798, Note_on_c, 0, 64, 43
1, 782808, Note_off_c, 0, 71, 49
1, 782857, Note_on_c, 0, 59, 45
1, 782868, Note_off_c, 0, 67, 53
1, 782870, Note_off_c, 0, 64, 62
1, 782896, Note_off_c, 0, 59, 58
1, 782918, Note_on_c, 0, 55, 36
1, 782952, Note_off_c, 0, 55, 54
1, 783004, Note_on_c, 0, 59, 45
1, 783060, Note_off_c, 0, 59, 59
1, 783066, Note_on_c, 0, 55, 40
1, 783156, Note_off_c, 0, 55, 55
1, 783186, Note_on_c, 0, 50, 43
1, 783230, Control_c, 0, 64, 99
1, 783238, Note_on_c, 0, 66, 60
1, 783245, Control_c, 0, 64, 76
1, 783260, Control_c, 0, 64, 62
1, 783275, Control_c, 0, 64, 52
1, 783290, Control_c, 0, 64, 50
1, 783305, Control_c, 0, 64, 53
1, 783320, Control_c, 0, 64, 59
1, 783335, Control_c, 0, 64, 65
1, 783349, Control_c, 0, 64, 72
1, 783364, Control_c, 0, 64, 82
1, 783379, Control_c, 0, 64, 90
1, 783394, Control_c, 0, 64, 96
1, 783408, Note_off_c, 0, 66, 54
1, 783409, Control_c, 0, 64, 102
1, 783412, Note_off_c, 0, 50, 35
1, 783419, Note_on_c, 0, 71, 51
1, 783423, Control_c, 0, 64, 108
1, 783438, Control_c, 0, 64, 122
1, 783453, Control_c, 0, 64, 127
1, 783494, Note_on_c, 0, 66, 42
1, 783511, Note_off_c, 0, 71, 55
1, 783582, Note_on_c, 0, 59, 46
1, 783583, Note_off_c, 0, 66, 64
1, 783609, Note_off_c, 0, 59, 56
1, 783631, Note_on_c, 0, 54, 33
1, 783670, Note_off_c, 0, 54, 62
1, 783714, Note_on_c, 0, 59, 40
1, 783747, Note_off_c, 0, 59, 53
1, 783779, Note_on_c, 0, 54, 45
1, 783863, Note_off_c, 0, 54, 50
1, 783906, Note_on_c, 0, 49, 42
1, 783963, Note_on_c, 0, 59, 59
1, 783979, Control_c, 0, 64, 86
1, 783994, Control_c, 0, 64, 66
1, 784009, Control_c, 0, 64, 53
1, 784024, Control_c, 0, 64, 46
1, 784038, Control_c, 0, 64, 47
1, 784053, Control_c, 0, 64, 53
1, 784068, Control_c, 0, 64, 60
1, 784083, Control_c, 0, 64, 66
1, 784098, Control_c, 0, 64, 73
1, 784113, Control_c, 0, 64, 82
1, 784128, Control_c, 0, 64, 90
1, 784143, Control_c, 0, 64, 95
1, 784152, Note_off_c, 0, 59, 61
1, 784158, Control_c, 0, 64, 101
1, 784172, Control_c, 0, 64, 110
1, 784187, Control_c, 0, 64, 127
1, 784203, Note_on_c, 0, 66, 29
1, 784210, Note_on_c, 0, 64, 43
1, 784337, Poly_aftertouch_c, 0, 59, 127
1, 784350, Note_on_c, 0, 54, 23
1, 784387, Note_off_c, 0, 54, 51
1, 784389, Poly_aftertouch_c, 0, 59, 0
1, 784404, Note_off_c, 0, 49, 38
1, 784415, Note_on_c, 0, 52, 28
1, 784472, Note_off_c, 0, 52, 59
1, 784500, Note_on_c, 0, 54, 47
1, 784554, Note_off_c, 0, 54, 55
1, 784606, Note_on_c, 0, 52, 44
1, 784634, Note_off_c, 0, 52, 59
1, 784809, Note_on_c, 0, 42, 47
1, 784855, Note_on_c, 0, 47, 30
1, 784876, Control_c, 0, 64, 86
1, 784882, Note_off_c, 0, 66, 29
1, 784891, Note_on_c, 0, 59, 42
1, 784891, Note_off_c, 0, 64, 44
1, 784891, Control_c, 0, 64, 67
1, 784906, Control_c, 0, 64, 53
1, 784921, Control_c, 0, 64, 45
1, 784936, Control_c, 0, 64, 45
1, 784950, Control_c, 0, 64, 55
1, 784965, Control_c, 0, 64, 64
1, 784980, Control_c, 0, 64, 73
1, 784995, Control_c, 0, 64, 85
1, 785004, Note_off_c, 0, 47, 60
1, 785010, Control_c, 0, 64, 95
1, 785013, Note_off_c, 0, 42, 62
1, 785025, Control_c, 0, 64, 101
1, 785039, Control_c, 0, 64, 108
1, 785054, Control_c, 0, 64, 125
1, 785069, Control_c, 0, 64, 127
1, 785086, Note_off_c, 0, 59, 60
1, 785141, Note_on_c, 0, 66, 43
1, 785150, Note_on_c, 0, 62, 36
1, 785228, Note_on_c, 0, 59, 41
1, 785323, Note_on_c, 0, 54, 46
1, 785344, Note_off_c, 0, 66, 44
1, 785350, Note_off_c, 0, 54, 63
1, 785355, Note_off_c, 0, 59, 47
1, 785418, Note_off_c, 0, 62, 41
1, 785451, Note_on_c, 0, 66, 57
1, 785487, Note_off_c, 0, 66, 62
1, 785594, Note_on_c, 0, 71, 38
1, 785648, Note_off_c, 0, 71, 43
1, 785713, Note_on_c, 0, 66, 36
1, 785802, Note_off_c, 0, 66, 37
1, 785866, Note_on_c, 0, 59, 30
1, 785961, Note_on_c, 0, 71, 67
1, 786126, Note_off_c, 0, 59, 58
1, 786268, Note_off_c, 0, 71, 56
1, 786334, Note_on_c, 0, 78, 39
1, 786362, Note_on_c, 0, 74, 37
1, 786435, Note_on_c, 0, 71, 35
1, 786470, Note_off_c, 0, 78, 33
1, 786483, Note_off_c, 0, 74, 56
1, 786509, Note_on_c, 0, 66, 42
1, 786538, Note_off_c, 0, 66, 55
1, 786540, Note_off_c, 0, 71, 37
1, 786569, Note_on_c, 0, 62, 37
1, 786643, Note_off_c, 0, 62, 60
1, 786690, Note_on_c, 0, 66, 42
1, 786743, Note_off_c, 0, 66, 60
1, 786798, Note_on_c, 0, 62, 39
1, 786857, Note_off_c, 0, 62, 51
1, 786950, Note_on_c, 0, 57, 35
1, 786984, Note_on_c, 0, 66, 66
1, 787136, Note_off_c, 0, 57, 38
1, 787206, Note_off_c, 0, 66, 63
1, 787268, Note_on_c, 0, 74, 41
1, 787302, Note_on_c, 0, 71, 32
1, 787347, Note_on_c, 0, 66, 49
1, 787399, Note_off_c, 0, 66, 55
1, 787409, Note_on_c, 0, 62, 32
1, 787422, Note_off_c, 0, 74, 30
1, 787445, Note_off_c, 0, 62, 55
1, 787445, Note_on_c, 0, 59, 37
1, 787453, Note_off_c, 0, 71, 38
1, 787487, Note_off_c, 0, 59, 60
1, 787570, Note_on_c, 0, 62, 33
1, 787604, Note_on_c, 0, 59, 49
1, 787609, Note_off_c, 0, 62, 48
1, 787728, Note_on_c, 0, 55, 42
1, 787732, Note_off_c, 0, 59, 35
1, 787767, Control_c, 0, 64, 93
1, 787775, Note_on_c, 0, 67, 64
1, 787782, Control_c, 0, 64, 71
1, 787797, Control_c, 0, 64, 57
1, 787812, Control_c, 0, 64, 49
1, 787827, Control_c, 0, 64, 51
1, 787842, Control_c, 0, 64, 55
1, 787856, Control_c, 0, 64, 61
1, 787871, Control_c, 0, 64, 67
1, 787886, Control_c, 0, 64, 76
1, 787901, Control_c, 0, 64, 90
1, 787916, Control_c, 0, 64, 100
1, 787930, Control_c, 0, 64, 105
1, 787945, Control_c, 0, 64, 110
1, 787949, Note_off_c, 0, 67, 59
1, 787960, Control_c, 0, 64, 115
1, 787964, Note_off_c, 0, 55, 50
1, 787975, Control_c, 0, 64, 127
1, 788010, Note_on_c, 0, 74, 41
1, 788032, Note_on_c, 0, 71, 39
1, 788070, Note_off_c, 0, 74, 57
1, 788074, Note_on_c, 0, 67, 45
1, 788115, Note_off_c, 0, 71, 57
1, 788122, Note_on_c, 0, 62, 48
1, 788131, Note_off_c, 0, 67, 53
1, 788152, Note_off_c, 0, 62, 63
1, 788185, Note_on_c, 0, 59, 43
1, 788226, Note_off_c, 0, 59, 63
1, 788252, Note_on_c, 0, 62, 45
1, 788319, Note_off_c, 0, 62, 57
1, 788344, Note_on_c, 0, 59, 42
1, 788413, Note_off_c, 0, 59, 49
1, 788461, Note_on_c, 0, 54, 45
1, 788493, Note_on_c, 0, 62, 66
1, 788516, Control_c, 0, 64, 87
1, 788530, Control_c, 0, 64, 71
1, 788545, Control_c, 0, 64, 61
1, 788560, Control_c, 0, 64, 57
1, 788575, Control_c, 0, 64, 58
1, 788590, Control_c, 0, 64, 62
1, 788605, Control_c, 0, 64, 66
1, 788620, Control_c, 0, 64, 75
1, 788635, Control_c, 0, 64, 85
1, 788650, Control_c, 0, 64, 93
1, 788665, Control_c, 0, 64, 99
1, 788679, Control_c, 0, 64, 103
1, 788692, Note_off_c, 0, 62, 58
1, 788694, Control_c, 0, 64, 107
1, 788706, Note_off_c, 0, 54, 48
1, 788709, Control_c, 0, 64, 116
1, 788724, Control_c, 0, 64, 127
1, 788724, Note_on_c, 0, 71, 46
1, 788762, Note_on_c, 0, 67, 34
1, 788798, Note_on_c, 0, 62, 45
1, 788850, Note_off_c, 0, 71, 34
1, 788859, Note_on_c, 0, 59, 44
1, 788861, Note_off_c, 0, 62, 59
1, 788885, Note_off_c, 0, 59, 57
1, 788891, Note_off_c, 0, 67, 30
1, 788909, Note_on_c, 0, 55, 41
1, 788940, Note_off_c, 0, 55, 56
1, 788979, Note_on_c, 0, 59, 46
1, 789050, Note_off_c, 0, 59, 57
1, 789052, Note_on_c, 0, 55, 41
1, 789165, Note_on_c, 0, 52, 47
1, 789181, Note_off_c, 0, 55, 34
1, 789198, Note_on_c, 0, 64, 71
1, 789219, Control_c, 0, 64, 94
1, 789234, Control_c, 0, 64, 68
1, 789249, Control_c, 0, 64, 54
1, 789264, Control_c, 0, 64, 51
1, 789279, Control_c, 0, 64, 54
1, 789294, Control_c, 0, 64, 59
1, 789309, Control_c, 0, 64, 63
1, 789323, Control_c, 0, 64, 70
1, 789338, Control_c, 0, 64, 82
1, 789354, Control_c, 0, 64, 94
1, 789368, Note_off_c, 0, 64, 61
1, 789369, Control_c, 0, 64, 102
1, 789383, Control_c, 0, 64, 106
1, 789398, Control_c, 0, 64, 111
1, 789413, Note_on_c, 0, 71, 39
1, 789413, Control_c, 0, 64, 125
1, 789419, Note_on_c, 0, 67, 46
1, 789425, Note_off_c, 0, 52, 36
1, 789428, Control_c, 0, 64, 127
1, 789478, Note_off_c, 0, 71, 55
1, 789495, Note_on_c, 0, 64, 47
1, 789522, Note_off_c, 0, 67, 59
1, 789532, Note_off_c, 0, 64, 64
1, 789534, Note_on_c, 0, 59, 40
1, 789564, Note_off_c, 0, 59, 55
1, 789589, Note_on_c, 0, 55, 40
1, 789625, Note_off_c, 0, 55, 62
1, 789654, Note_on_c, 0, 59, 53
1, 789706, Note_off_c, 0, 59, 56
1, 789739, Note_on_c, 0, 55, 44
1, 789777, Note_off_c, 0, 55, 63
1, 789952, Note_on_c, 0, 42, 50
1, 789963, Note_on_c, 0, 50, 45
1, 790027, Control_c, 0, 64, 109
1, 790032, Note_on_c, 0, 66, 71
1, 790042, Control_c, 0, 64, 79
1, 790057, Control_c, 0, 64, 59
1, 790072, Control_c, 0, 64, 45
1, 790087, Control_c, 0, 64, 39
1, 790101, Control_c, 0, 64, 41
1, 790116, Control_c, 0, 64, 50
1, 790131, Control_c, 0, 64, 60
1, 790146, Control_c, 0, 64, 69
1, 790162, Control_c, 0, 64, 78
1, 790177, Control_c, 0, 64, 89
1, 790187, Note_off_c, 0, 50, 59
1, 790192, Control_c, 0, 64, 99
1, 790206, Control_c, 0, 64, 108
1, 790220, Note_off_c, 0, 42, 60
1, 790221, Control_c, 0, 64, 121
1, 790236, Control_c, 0, 64, 127
1, 790264, Note_off_c, 0, 66, 60
1, 790307, Note_on_c, 0, 71, 38
1, 790364, Note_off_c, 0, 71, 53
1, 790379, Note_on_c, 0, 66, 58
1, 790444, Note_on_c, 0, 59, 41
1, 790446, Note_off_c, 0, 66, 61
1, 790474, Note_off_c, 0, 59, 57
1, 790497, Note_on_c, 0, 54, 41
1, 790540, Note_off_c, 0, 54, 59
1, 790584, Note_on_c, 0, 59, 43
1, 790659, Note_off_c, 0, 59, 56
1, 790696, Note_on_c, 0, 54, 38
1, 790735, Note_off_c, 0, 54, 62
1, 790900, Note_on_c, 0, 40, 44
1, 791003, Note_on_c, 0, 59, 60
1, 791044, Control_c, 0, 64, 118
1, 791059, Control_c, 0, 64, 84
1, 791074, Control_c, 0, 64, 63
1, 791089, Control_c, 0, 64, 50
1, 791104, Control_c, 0, 64, 44
1, 791119, Control_c, 0, 64, 46
1, 791134, Control_c, 0, 64, 54
1, 791148, Control_c, 0, 64, 61
1, 791163, Control_c, 0, 64, 66
1, 791178, Control_c, 0, 64, 74
1, 791193, Control_c, 0, 64, 81
1, 791207, Control_c, 0, 64, 85
1, 791222, Control_c, 0, 64, 89
1, 791237, Control_c, 0, 64, 92
1, 791252, Control_c, 0, 64, 96
1, 791267, Control_c, 0, 64, 101
1, 791272, Note_off_c, 0, 59, 61
1, 791289, Control_c, 0, 64, 106
1, 791304, Control_c, 0, 64, 110
1, 791319, Control_c, 0, 64, 114
1, 791334, Control_c, 0, 64, 118
1, 791349, Note_on_c, 0, 67, 41
1, 791349, Control_c, 0, 64, 127
1, 791353, Note_off_c, 0, 40, 32
1, 791358, Note_on_c, 0, 64, 40
1, 791436, Note_on_c, 0, 59, 40
1, 791503, Note_on_c, 0, 55, 38
1, 791515, Note_off_c, 0, 64, 52
1, 791520, Note_off_c, 0, 67, 32
1, 791528, Note_off_c, 0, 59, 50
1, 791562, Note_on_c, 0, 47, 31
1, 791619, Note_off_c, 0, 47, 58
1, 791677, Note_on_c, 0, 52, 42
1, 791711, Note_off_c, 0, 52, 55
1, 791747, Note_on_c, 0, 47, 42
1, 791808, Note_off_c, 0, 47, 55
1, 791851, Note_on_c, 0, 39, 52
1, 791867, Control_c, 0, 64, 104
1, 791882, Control_c, 0, 64, 79
1, 791896, Control_c, 0, 64, 65
1, 791911, Control_c, 0, 64, 55
1, 791926, Note_on_c, 0, 59, 35
1, 791926, Control_c, 0, 64, 50
1, 791941, Control_c, 0, 64, 50
1, 791956, Control_c, 0, 64, 55
1, 791970, Control_c, 0, 64, 61
1, 791985, Control_c, 0, 64, 67
1, 792000, Control_c, 0, 64, 73
1, 792015, Control_c, 0, 64, 81
1, 792037, Control_c, 0, 64, 85
1, 792043, Note_off_c, 0, 59, 61
1, 792052, Control_c, 0, 64, 88
1, 792067, Control_c, 0, 64, 91
1, 792070, Note_off_c, 0, 55, 36
1, 792082, Control_c, 0, 64, 95
1, 792085, Note_on_c, 0, 67, 32
1, 792096, Note_on_c, 0, 63, 42
1, 792097, Control_c, 0, 64, 100
1, 792111, Control_c, 0, 64, 106
1, 792126, Control_c, 0, 64, 111
1, 792141, Control_c, 0, 64, 118
1, 792155, Note_off_c, 0, 39, 32
1, 792156, Control_c, 0, 64, 127
1, 792192, Note_on_c, 0, 59, 45
1, 792264, Note_on_c, 0, 55, 41
1, 792298, Note_off_c, 0, 67, 41
1, 792339, Note_off_c, 0, 55, 54
1, 792375, Note_off_c, 0, 63, 51
1, 792380, Note_on_c, 0, 47, 23
1, 792397, Note_off_c, 0, 59, 39
1, 792486, Note_off_c, 0, 47, 38
1, 792545, Note_on_c, 0, 51, 26
1, 792632, Note_off_c, 0, 51, 40
1, 792663, Note_on_c, 0, 47, 26
1, 792721, Note_off_c, 0, 47, 59
1, 793029, Note_on_c, 0, 38, 37
1, 793032, Note_on_c, 0, 50, 32
1, 793112, Control_c, 0, 64, 103
1, 793127, Control_c, 0, 64, 88
1, 793142, Control_c, 0, 64, 76
1, 793157, Control_c, 0, 64, 65
1, 793171, Control_c, 0, 64, 54
1, 793186, Control_c, 0, 64, 45
1, 793201, Control_c, 0, 64, 40
1, 793216, Control_c, 0, 64, 39
1, 793245, Control_c, 0, 64, 40
1, 793260, Control_c, 0, 64, 42
1, 793275, Control_c, 0, 64, 46
1, 793290, Control_c, 0, 64, 52
1, 793305, Control_c, 0, 64, 58
1, 793319, Control_c, 0, 64, 63
1, 793323, Note_on_c, 0, 79, 59
1, 793334, Control_c, 0, 64, 68
1, 793350, Control_c, 0, 64, 73
1, 793365, Control_c, 0, 64, 79
1, 793380, Control_c, 0, 64, 86
1, 793382, Note_off_c, 0, 38, 39
1, 793394, Control_c, 0, 64, 94
1, 793409, Control_c, 0, 64, 103
1, 793423, Note_off_c, 0, 50, 48
1, 793424, Control_c, 0, 64, 127
1, 793547, Note_off_c, 0, 79, 50
1, 793756, Note_on_c, 0, 86, 30
1, 793764, Note_on_c, 0, 82, 22
1, 793912, Note_on_c, 0, 79, 33
1, 793983, Note_off_c, 0, 86, 36
1, 793992, Note_on_c, 0, 74, 46
1, 794015, Note_off_c, 0, 82, 53
1, 794030, Note_off_c, 0, 74, 59
1, 794065, Note_on_c, 0, 70, 43
1, 794086, Note_off_c, 0, 79, 36
1, 794110, Note_off_c, 0, 70, 56
1, 794172, Note_on_c, 0, 74, 35
1, 794259, Note_on_c, 0, 70, 40
1, 794286, Note_off_c, 0, 74, 37
1, 794378, Note_off_c, 0, 70, 48
1, 794439, Note_on_c, 0, 65, 43
1, 794543, Note_on_c, 0, 74, 71
1, 794618, Note_off_c, 0, 65, 58
1, 794717, Note_off_c, 0, 74, 57
1, 794842, Note_on_c, 0, 82, 38
1, 794856, Note_on_c, 0, 79, 35
1, 794905, Note_off_c, 0, 82, 51
1, 794916, Note_on_c, 0, 74, 48
1, 794961, Note_off_c, 0, 79, 56
1, 794974, Note_off_c, 0, 74, 54
1, 794987, Note_on_c, 0, 70, 46
1, 795011, Note_off_c, 0, 70, 62
1, 795028, Note_on_c, 0, 67, 43
1, 795078, Note_off_c, 0, 67, 61
1, 795118, Note_on_c, 0, 70, 42
1, 795187, Note_off_c, 0, 70, 59
1, 795215, Note_on_c, 0, 67, 34
1, 795304, Note_on_c, 0, 63, 43
1, 795341, Note_off_c, 0, 67, 31
1, 795347, Note_on_c, 0, 75, 62
1, 795474, Note_off_c, 0, 75, 57
1, 795476, Note_off_c, 0, 63, 36
1, 795561, Note_on_c, 0, 82, 41
1, 795605, Note_on_c, 0, 79, 28
1, 795622, Note_on_c, 0, 75, 49
1, 795639, Note_off_c, 0, 82, 59
1, 795659, Note_off_c, 0, 79, 57
1, 795673, Note_on_c, 0, 70, 47
1, 795703, Note_off_c, 0, 75, 59
1, 795710, Note_off_c, 0, 70, 58
1, 795740, Note_on_c, 0, 67, 40
1, 795785, Note_off_c, 0, 67, 62
1, 795814, Note_on_c, 0, 70, 54
1, 795876, Note_off_c, 0, 70, 57
1, 795890, Note_on_c, 0, 67, 48
1, 795991, Note_on_c, 0, 62, 50
1, 796003, Note_off_c, 0, 67, 48
1, 796043, Note_on_c, 0, 70, 70
1, 796104, Note_off_c, 0, 62, 60
1, 796217, Note_off_c, 0, 70, 61
1, 796257, Note_on_c, 0, 79, 46
1, 796266, Note_on_c, 0, 75, 47
1, 796343, Note_on_c, 0, 70, 54
1, 796343, Note_off_c, 0, 79, 48
1, 796387, Note_on_c, 0, 67, 53
1, 796408, Note_off_c, 0, 75, 55
1, 796418, Note_off_c, 0, 67, 57
1, 796420, Note_on_c, 0, 63, 43
1, 796427, Note_off_c, 0, 70, 60
1, 796453, Note_off_c, 0, 63, 63
1, 796508, Note_on_c, 0, 67, 56
1, 796564, Note_off_c, 0, 67, 59
1, 796573, Note_on_c, 0, 63, 54
1, 796663, Note_on_c, 0, 60, 58
1, 796693, Control_c, 0, 64, 86
1, 796708, Control_c, 0, 64, 66
1, 796715, Note_on_c, 0, 72, 69
1, 796716, Note_off_c, 0, 63, 38
1, 796723, Control_c, 0, 64, 53
1, 796738, Control_c, 0, 64, 51
1, 796753, Control_c, 0, 64, 54
1, 796767, Control_c, 0, 64, 59
1, 796782, Control_c, 0, 64, 65
1, 796797, Control_c, 0, 64, 73
1, 796812, Control_c, 0, 64, 87
1, 796826, Control_c, 0, 64, 104
1, 796841, Control_c, 0, 64, 125
1, 796856, Control_c, 0, 64, 127
1, 796867, Note_off_c, 0, 72, 59
1, 796889, Note_off_c, 0, 60, 55
1, 796904, Note_on_c, 0, 79, 40
1, 796914, Note_on_c, 0, 75, 42
1, 796969, Note_off_c, 0, 79, 58
1, 796972, Note_on_c, 0, 72, 51
1, 797021, Note_off_c, 0, 72, 52
1, 797023, Note_off_c, 0, 75, 48
1, 797029, Note_on_c, 0, 67, 44
1, 797059, Note_off_c, 0, 67, 56
1, 797072, Note_on_c, 0, 63, 46
1, 797101, Note_off_c, 0, 63, 63
1, 797154, Note_on_c, 0, 67, 42
1, 797208, Note_off_c, 0, 67, 54
1, 797212, Note_on_c, 0, 63, 48
1, 797342, Note_on_c, 0, 58, 52
1, 797368, Control_c, 0, 64, 90
1, 797373, Note_off_c, 0, 63, 35
1, 797383, Control_c, 0, 64, 68
1, 797387, Note_on_c, 0, 74, 71
1, 797398, Control_c, 0, 64, 51
1, 797413, Control_c, 0, 64, 49
1, 797428, Control_c, 0, 64, 52
1, 797442, Control_c, 0, 64, 59
1, 797457, Control_c, 0, 64, 63
1, 797472, Control_c, 0, 64, 70
1, 797487, Control_c, 0, 64, 80
1, 797502, Control_c, 0, 64, 93
1, 797516, Control_c, 0, 64, 100
1, 797531, Control_c, 0, 64, 104
1, 797542, Note_off_c, 0, 74, 59
1, 797546, Control_c, 0, 64, 109
1, 797561, Control_c, 0, 64, 119
1, 797575, Control_c, 0, 64, 127
1, 797579, Note_on_c, 0, 79, 36
1, 797598, Note_off_c, 0, 58, 34
1, 797623, Note_off_c, 0, 79, 55
1, 797643, Note_on_c, 0, 74, 56
1, 797698, Note_off_c, 0, 74, 61
1, 797714, Note_on_c, 0, 67, 43
1, 797745, Note_off_c, 0, 67, 58
1, 797774, Note_on_c, 0, 62, 32
1, 797820, Note_off_c, 0, 62, 59
1, 797853, Note_on_c, 0, 67, 40
1, 797897, Note_off_c, 0, 67, 55
1, 797934, Note_on_c, 0, 62, 44
1, 798021, Note_off_c, 0, 62, 50
1, 798040, Note_on_c, 0, 57, 45
1, 798072, Control_c, 0, 64, 101
1, 798087, Note_on_c, 0, 67, 62
1, 798087, Control_c, 0, 64, 81
1, 798102, Control_c, 0, 64, 68
1, 798117, Control_c, 0, 64, 58
1, 798132, Control_c, 0, 64, 55
1, 798147, Control_c, 0, 64, 57
1, 798162, Control_c, 0, 64, 61
1, 798177, Control_c, 0, 64, 65
1, 798192, Control_c, 0, 64, 71
1, 798207, Control_c, 0, 64, 78
1, 798221, Control_c, 0, 64, 86
1, 798236, Note_off_c, 0, 67, 59
1, 798236, Control_c, 0, 64, 89
1, 798251, Control_c, 0, 64, 92
1, 798266, Control_c, 0, 64, 95
1, 798281, Control_c, 0, 64, 98
1, 798281, Note_on_c, 0, 72, 45
1, 798284, Note_off_c, 0, 57, 48
1, 798290, Note_on_c, 0, 74, 43
1, 798296, Control_c, 0, 64, 103
1, 798311, Control_c, 0, 64, 109
1, 798326, Control_c, 0, 64, 118
1, 798340, Control_c, 0, 64, 127
1, 798353, Note_off_c, 0, 74, 50
1, 798375, Note_on_c, 0, 67, 46
1, 798410, Note_off_c, 0, 67, 57
1, 798416, Note_on_c, 0, 62, 35
1, 798445, Note_off_c, 0, 72, 55
1, 798449, Note_off_c, 0, 62, 54
1, 798484, Note_on_c, 0, 60, 46
1, 798530, Note_off_c, 0, 60, 60
1, 798591, Note_on_c, 0, 62, 36
1, 798643, Note_off_c, 0, 62, 57
1, 798676, Note_on_c, 0, 60, 43
1, 798699, Note_off_c, 0, 60, 62
1, 798880, Note_on_c, 0, 55, 31
1, 798897, Note_on_c, 0, 50, 47
1, 798925, Control_c, 0, 64, 108
1, 798941, Control_c, 0, 64, 81
1, 798954, Note_on_c, 0, 67, 53
1, 798956, Control_c, 0, 64, 67
1, 798970, Control_c, 0, 64, 58
1, 798985, Control_c, 0, 64, 53
1, 799000, Control_c, 0, 64, 54
1, 799014, Control_c, 0, 64, 57
1, 799029, Control_c, 0, 64, 64
1, 799044, Control_c, 0, 64, 72
1, 799059, Control_c, 0, 64, 86
1, 799074, Control_c, 0, 64, 102
1, 799078, Note_off_c, 0, 50, 61
1, 799089, Control_c, 0, 64, 114
1, 799095, Note_off_c, 0, 55, 48
1, 799104, Control_c, 0, 64, 127
1, 799166, Note_off_c, 0, 67, 59
1, 799226, Note_on_c, 0, 70, 43
1, 799248, Note_on_c, 0, 74, 36
1, 799302, Note_off_c, 0, 74, 41
1, 799317, Note_on_c, 0, 67, 35
1, 799360, Note_off_c, 0, 67, 49
1, 799373, Note_off_c, 0, 70, 34
1, 799375, Note_on_c, 0, 62, 44
1, 799404, Note_off_c, 0, 62, 54
1, 799457, Note_on_c, 0, 74, 56
1, 799540, Note_off_c, 0, 74, 55
1, 799580, Note_on_c, 0, 79, 40
1, 799637, Note_off_c, 0, 79, 59
1, 799687, Note_on_c, 0, 74, 42
1, 799735, Note_off_c, 0, 74, 52
1, 799790, Note_on_c, 0, 67, 44
1, 799897, Note_on_c, 0, 79, 68
1, 800030, Note_off_c, 0, 67, 47
1, 800132, Note_off_c, 0, 79, 59
1, 800211, Note_on_c, 0, 82, 41
1, 800213, Note_on_c, 0, 86, 46
1, 800290, Note_on_c, 0, 79, 34
1, 800307, Note_off_c, 0, 86, 64
1, 800324, Note_off_c, 0, 82, 61
1, 800341, Note_on_c, 0, 74, 51
1, 800342, Note_off_c, 0, 79, 51
1, 800378, Note_off_c, 0, 74, 63
1, 800427, Note_on_c, 0, 70, 41
1, 800476, Note_off_c, 0, 70, 59
1, 800546, Note_on_c, 0, 74, 28
1, 800600, Note_off_c, 0, 74, 43
1, 800636, Note_on_c, 0, 70, 32
1, 800699, Note_off_c, 0, 70, 51
1, 800752, Note_on_c, 0, 65, 41
1, 800812, Note_on_c, 0, 74, 75
1, 800882, Note_off_c, 0, 65, 59
1, 801000, Note_off_c, 0, 74, 59
1, 801073, Note_on_c, 0, 82, 41
1, 801109, Note_on_c, 0, 79, 33
1, 801140, Note_on_c, 0, 74, 57
1, 801167, Note_off_c, 0, 82, 50
1, 801208, Note_off_c, 0, 74, 59
1, 801213, Note_on_c, 0, 70, 26
1, 801220, Note_off_c, 0, 79, 37
1, 801241, Note_on_c, 0, 67, 39
1, 801250, Note_off_c, 0, 70, 47
1, 801286, Note_off_c, 0, 67, 60
1, 801348, Note_on_c, 0, 70, 45
1, 801384, Note_off_c, 0, 70, 57
1, 801402, Note_on_c, 0, 67, 49
1, 801486, Note_on_c, 0, 63, 56
1, 801542, Note_on_c, 0, 75, 78
1, 801542, Control_c, 0, 64, 101
1, 801557, Control_c, 0, 64, 75
1, 801572, Control_c, 0, 64, 60
1, 801580, Note_off_c, 0, 67, 27
1, 801587, Control_c, 0, 64, 53
1, 801602, Control_c, 0, 64, 57
1, 801616, Control_c, 0, 64, 62
1, 801631, Control_c, 0, 64, 68
1, 801646, Control_c, 0, 64, 78
1, 801661, Control_c, 0, 64, 94
1, 801676, Control_c, 0, 64, 116
1, 801690, Control_c, 0, 64, 127
1, 801710, Note_off_c, 0, 75, 59
1, 801743, Note_on_c, 0, 82, 47
1, 801794, Note_on_c, 0, 79, 32
1, 801822, Note_off_c, 0, 82, 58
1, 801824, Note_on_c, 0, 75, 59
1, 801844, Note_off_c, 0, 79, 57
1, 801881, Note_on_c, 0, 70, 47
1, 801885, Note_off_c, 0, 75, 62
1, 801904, Note_off_c, 0, 70, 61
1, 801906, Note_off_c, 0, 63, 29
1, 801936, Note_on_c, 0, 67, 52
1, 801980, Note_off_c, 0, 67, 62
1, 802013, Note_on_c, 0, 70, 53
1, 802089, Note_off_c, 0, 70, 62
1, 802096, Note_on_c, 0, 67, 56
1, 802153, Note_on_c, 0, 62, 64
1, 802187, Control_c, 0, 64, 104
1, 802198, Note_on_c, 0, 70, 80
1, 802198, Note_off_c, 0, 67, 50
1, 802202, Control_c, 0, 64, 72
1, 802217, Control_c, 0, 64, 57
1, 802231, Control_c, 0, 64, 52
1, 802246, Control_c, 0, 64, 56
1, 802261, Control_c, 0, 64, 61
1, 802276, Control_c, 0, 64, 66
1, 802291, Control_c, 0, 64, 77
1, 802305, Control_c, 0, 64, 93
1, 802320, Control_c, 0, 64, 114
1, 802335, Control_c, 0, 64, 127
1, 802353, Note_off_c, 0, 62, 61
1, 802376, Note_off_c, 0, 70, 62
1, 802413, Note_on_c, 0, 79, 53
1, 802422, Note_on_c, 0, 75, 53
1, 802481, Note_off_c, 0, 79, 55
1, 802493, Note_on_c, 0, 70, 61
1, 802537, Note_on_c, 0, 67, 55
1, 802571, Note_off_c, 0, 75, 52
1, 802572, Note_off_c, 0, 67, 63
1, 802580, Note_off_c, 0, 70, 62
1, 802600, Note_on_c, 0, 63, 51
1, 802646, Note_off_c, 0, 63, 62
1, 802672, Note_on_c, 0, 67, 55
1, 802749, Note_off_c, 0, 67, 57
1, 802757, Note_on_c, 0, 63, 65
1, 802831, Note_on_c, 0, 60, 65
1, 802854, Note_off_c, 0, 63, 58
1, 802875, Control_c, 0, 64, 94
1, 802886, Note_on_c, 0, 72, 82
1, 802890, Control_c, 0, 64, 70
1, 802904, Control_c, 0, 64, 53
1, 802919, Control_c, 0, 64, 49
1, 802935, Control_c, 0, 64, 55
1, 802950, Control_c, 0, 64, 63
1, 802965, Control_c, 0, 64, 70
1, 802979, Control_c, 0, 64, 83
1, 802994, Control_c, 0, 64, 99
1, 803009, Control_c, 0, 64, 121
1, 803024, Control_c, 0, 64, 127
1, 803025, Note_off_c, 0, 60, 55
1, 803049, Note_off_c, 0, 72, 60
1, 803071, Note_on_c, 0, 75, 54
1, 803077, Note_on_c, 0, 79, 49
1, 803128, Note_off_c, 0, 79, 60
1, 803147, Note_on_c, 0, 72, 63
1, 803164, Note_off_c, 0, 75, 62
1, 803191, Note_off_c, 0, 72, 58
1, 803197, Note_on_c, 0, 67, 61
1, 803225, Note_off_c, 0, 67, 66
1, 803275, Note_on_c, 0, 63, 49
1, 803316, Note_off_c, 0, 63, 63
1, 803349, Note_on_c, 0, 67, 45
1, 803419, Note_off_c, 0, 67, 60
1, 803427, Note_on_c, 0, 63, 60
1, 803457, Note_off_c, 0, 63, 65
1, 803617, Note_on_c, 0, 50, 55
1, 803617, Note_on_c, 0, 58, 55
1, 803683, Control_c, 0, 64, 103
1, 803698, Control_c, 0, 64, 77
1, 803708, Note_on_c, 0, 74, 80
1, 803712, Control_c, 0, 64, 62
1, 803728, Control_c, 0, 64, 50
1, 803743, Control_c, 0, 64, 49
1, 803758, Control_c, 0, 64, 51
1, 803773, Control_c, 0, 64, 58
1, 803788, Control_c, 0, 64, 65
1, 803802, Control_c, 0, 64, 74
1, 803817, Control_c, 0, 64, 87
1, 803832, Control_c, 0, 64, 103
1, 803847, Control_c, 0, 64, 119
1, 803851, Note_off_c, 0, 50, 60
1, 803862, Control_c, 0, 64, 127
1, 803866, Note_off_c, 0, 58, 61
1, 803930, Note_off_c, 0, 74, 58
1, 803979, Note_on_c, 0, 79, 43
1, 804058, Note_on_c, 0, 74, 61
1, 804075, Note_off_c, 0, 79, 34
1, 804113, Note_off_c, 0, 74, 62
1, 804130, Note_on_c, 0, 67, 57
1, 804159, Note_off_c, 0, 67, 65
1, 804184, Note_on_c, 0, 62, 47
1, 804225, Note_off_c, 0, 62, 63
1, 804265, Note_on_c, 0, 67, 50
1, 804328, Note_off_c, 0, 67, 61
1, 804347, Note_on_c, 0, 62, 52
1, 804380, Note_off_c, 0, 62, 63
1, 804497, Note_on_c, 0, 48, 73
1, 804589, Note_on_c, 0, 67, 81
1, 804612, Control_c, 0, 64, 86
1, 804626, Control_c, 0, 64, 65
1, 804641, Control_c, 0, 64, 48
1, 804656, Control_c, 0, 64, 44
1, 804671, Control_c, 0, 64, 51
1, 804686, Control_c, 0, 64, 63
1, 804686, Control_c, 0, 67, 125
1, 804701, Control_c, 0, 64, 74
1, 804701, Control_c, 0, 67, 123
1, 804715, Control_c, 0, 64, 92
1, 804715, Control_c, 0, 67, 114
1, 804730, Control_c, 0, 64, 127
1, 804730, Control_c, 0, 67, 80
1, 804745, Control_c, 0, 67, 0
1, 804810, Note_off_c, 0, 67, 58
1, 804861, Note_on_c, 0, 75, 53
1, 804869, Note_off_c, 0, 48, 52
1, 804872, Note_on_c, 0, 72, 49
1, 804933, Note_on_c, 0, 67, 62
1, 804967, Note_off_c, 0, 75, 54
1, 804987, Note_off_c, 0, 72, 39
1, 805000, Note_on_c, 0, 63, 56
1, 805004, Note_off_c, 0, 67, 61
1, 805035, Note_off_c, 0, 63, 64
1, 805065, Note_on_c, 0, 55, 51
1, 805119, Note_off_c, 0, 55, 62
1, 805153, Note_on_c, 0, 60, 62
1, 805196, Note_off_c, 0, 60, 58
1, 805230, Note_on_c, 0, 55, 67
1, 805295, Note_on_c, 0, 47, 77
1, 805296, Note_off_c, 0, 55, 60
1, 805331, Control_c, 0, 64, 88
1, 805346, Control_c, 0, 64, 65
1, 805361, Control_c, 0, 64, 45
1, 805375, Control_c, 0, 64, 42
1, 805379, Note_on_c, 0, 67, 65
1, 805390, Control_c, 0, 64, 49
1, 805405, Control_c, 0, 64, 60
1, 805420, Control_c, 0, 64, 68
1, 805435, Control_c, 0, 64, 79
1, 805449, Control_c, 0, 64, 94
1, 805464, Control_c, 0, 64, 104
1, 805468, Note_off_c, 0, 67, 59
1, 805479, Control_c, 0, 64, 127
1, 805490, Note_on_c, 0, 75, 68
1, 805511, Note_on_c, 0, 71, 60
1, 805550, Note_off_c, 0, 47, 55
1, 805570, Note_on_c, 0, 67, 71
1, 805602, Note_off_c, 0, 71, 61
1, 805608, Note_off_c, 0, 75, 60
1, 805650, Note_on_c, 0, 63, 68
1, 805665, Note_off_c, 0, 67, 63
1, 805689, Note_off_c, 0, 63, 60
1, 805739, Note_on_c, 0, 55, 57
1, 805821, Note_off_c, 0, 55, 60
1, 805846, Note_on_c, 0, 59, 71
1, 805923, Note_off_c, 0, 59, 61
1, 805936, Note_on_c, 0, 55, 64
1, 805990, Note_off_c, 0, 55, 60
1, 806153, Note_on_c, 0, 58, 97
1, 806162, Note_on_c, 0, 46, 69
1, 806243, Control_c, 0, 64, 89
1, 806265, Control_c, 0, 64, 62
1, 806279, Control_c, 0, 64, 0
1, 806337, Note_on_c, 0, 87, 91
1, 806350, Note_on_c, 0, 75, 84
1, 806383, Control_c, 0, 64, 41
1, 806398, Control_c, 0, 64, 58
1, 806413, Control_c, 0, 64, 65
1, 806428, Control_c, 0, 64, 73
1, 806435, Note_off_c, 0, 46, 62
1, 806443, Control_c, 0, 64, 84
1, 806458, Control_c, 0, 64, 101
1, 806464, Note_off_c, 0, 58, 61
1, 806472, Control_c, 0, 64, 127
1, 806557, Note_off_c, 0, 75, 50
1, 806588, Note_on_c, 0, 82, 56
1, 806675, Note_on_c, 0, 78, 55
1, 806723, Note_off_c, 0, 82, 63
1, 806732, Note_off_c, 0, 87, 60
1, 806748, Note_on_c, 0, 74, 48
1, 806773, Note_off_c, 0, 74, 56
1, 806788, Note_off_c, 0, 78, 55
1, 806821, Note_on_c, 0, 75, 61
1, 806863, Note_off_c, 0, 75, 54
1, 806906, Note_on_c, 0, 70, 57
1, 806952, Note_off_c, 0, 70, 61
1, 806967, Note_on_c, 0, 66, 60
1, 807053, Note_on_c, 0, 61, 73
1, 807062, Note_off_c, 0, 66, 62
1, 807110, Note_on_c, 0, 82, 90
1, 807137, Note_on_c, 0, 70, 70
1, 807146, Note_off_c, 0, 61, 56
1, 807248, Note_off_c, 0, 70, 57
1, 807289, Note_on_c, 0, 78, 55
1, 807331, Note_on_c, 0, 75, 61
1, 807336, Note_off_c, 0, 82, 50
1, 807374, Note_off_c, 0, 78, 60
1, 807403, Note_on_c, 0, 69, 57
1, 807432, Note_off_c, 0, 69, 66
1, 807474, Note_off_c, 0, 75, 51
1, 807487, Note_on_c, 0, 70, 64
1, 807556, Note_off_c, 0, 70, 64
1, 807581, Note_on_c, 0, 66, 57
1, 807638, Note_on_c, 0, 63, 68
1, 807643, Note_off_c, 0, 66, 64
1, 807667, Note_off_c, 0, 63, 68
1, 807827, Note_on_c, 0, 51, 87
1, 807832, Note_on_c, 0, 47, 69
1, 807846, Note_on_c, 0, 39, 75
1, 807896, Control_c, 0, 64, 96
1, 807910, Control_c, 0, 64, 61
1, 807915, Note_on_c, 0, 83, 90
1, 807925, Control_c, 0, 64, 0
1, 807926, Note_on_c, 0, 71, 85
1, 807970, Control_c, 0, 64, 42
1, 807984, Control_c, 0, 64, 60
1, 807999, Control_c, 0, 64, 73
1, 808014, Control_c, 0, 64, 98
1, 808029, Control_c, 0, 64, 127
1, 808042, Note_off_c, 0, 39, 63
1, 808052, Note_off_c, 0, 47, 61
1, 808073, Note_off_c, 0, 51, 63
1, 808124, Note_off_c, 0, 71, 62
1, 808128, Note_off_c, 0, 83, 58
1, 808138, Note_on_c, 0, 78, 67
1, 808201, Note_on_c, 0, 75, 74
1, 808211, Note_off_c, 0, 78, 62
1, 808264, Note_off_c, 0, 75, 64
1, 808272, Note_on_c, 0, 68, 77
1, 808294, Note_off_c, 0, 68, 69
1, 808334, Note_on_c, 0, 69, 68
1, 808395, Note_on_c, 0, 66, 80
1, 808398, Note_off_c, 0, 69, 62
1, 808440, Note_on_c, 0, 63, 72
1, 808445, Note_off_c, 0, 66, 66
1, 808464, Note_off_c, 0, 63, 69
1, 808603, Note_on_c, 0, 46, 96
1, 808607, Note_on_c, 0, 34, 89
1, 808660, Control_c, 0, 64, 81
1, 808674, Control_c, 0, 64, 55
1, 808675, Note_on_c, 0, 78, 91
1, 808677, Note_on_c, 0, 66, 88
1, 808689, Control_c, 0, 64, 0
1, 808716, Poly_aftertouch_c, 0, 44, 0
1, 808748, Control_c, 0, 64, 37
1, 808763, Control_c, 0, 64, 59
1, 808778, Control_c, 0, 64, 72
1, 808791, Note_off_c, 0, 34, 63
1, 808793, Control_c, 0, 64, 92
1, 808807, Control_c, 0, 64, 127
1, 808821, Note_off_c, 0, 46, 62
1, 808885, Note_on_c, 0, 75, 72
1, 808902, Note_off_c, 0, 66, 58
1, 808920, Note_off_c, 0, 78, 59
1, 808938, Note_on_c, 0, 70, 68
1, 808963, Note_off_c, 0, 75, 62
1, 809000, Note_on_c, 0, 65, 71
1, 809024, Note_off_c, 0, 65, 68
1, 809055, Note_off_c, 0, 70, 60
1, 809095, Note_on_c, 0, 66, 64
1, 809152, Note_off_c, 0, 66, 63
1, 809159, Note_on_c, 0, 70, 77
1, 809235, Note_on_c, 0, 66, 76
1, 809247, Note_off_c, 0, 70, 61
1, 809298, Note_on_c, 0, 63, 88
1, 809319, Note_off_c, 0, 66, 63
1, 809334, Control_c, 0, 64, 86
1, 809346, Note_on_c, 0, 87, 93
1, 809349, Control_c, 0, 64, 52
1, 809352, Note_on_c, 0, 75, 96
1, 809364, Control_c, 0, 64, 0
1, 809394, Control_c, 0, 64, 41
1, 809409, Control_c, 0, 64, 59
1, 809423, Control_c, 0, 64, 72
1, 809438, Control_c, 0, 64, 90
1, 809453, Control_c, 0, 64, 127
1, 809496, Note_off_c, 0, 63, 59
1, 809540, Note_off_c, 0, 75, 59
1, 809552, Note_on_c, 0, 82, 66
1, 809594, Note_off_c, 0, 87, 57
1, 809613, Note_on_c, 0, 78, 73
1, 809638, Note_off_c, 0, 82, 64
1, 809659, Note_on_c, 0, 74, 74
1, 809697, Note_off_c, 0, 74, 61
1, 809707, Note_off_c, 0, 78, 59
1, 809750, Note_on_c, 0, 75, 74
1, 809809, Note_on_c, 0, 70, 75
1, 809810, Note_off_c, 0, 75, 63
1, 809865, Note_on_c, 0, 66, 78
1, 809875, Note_off_c, 0, 70, 64
1, 809926, Note_on_c, 0, 61, 95
1, 809927, Control_c, 0, 64, 78
1, 809941, Control_c, 0, 64, 42
1, 809944, Note_off_c, 0, 66, 63
1, 809956, Control_c, 0, 64, 0
1, 809983, Note_on_c, 0, 82, 94
1, 809986, Control_c, 0, 64, 47
1, 809999, Note_on_c, 0, 70, 94
1, 810008, Control_c, 0, 64, 66
1, 810023, Control_c, 0, 64, 84
1, 810038, Control_c, 0, 64, 127
1, 810080, Note_off_c, 0, 61, 57
1, 810155, Note_on_c, 0, 78, 75
1, 810156, Note_off_c, 0, 70, 58
1, 810199, Note_on_c, 0, 75, 73
1, 810229, Note_off_c, 0, 82, 58
1, 810252, Note_off_c, 0, 78, 60
1, 810261, Note_on_c, 0, 69, 79
1, 810292, Note_off_c, 0, 69, 61
1, 810322, Note_off_c, 0, 75, 47
1, 810329, Note_on_c, 0, 70, 82
1, 810386, Note_off_c, 0, 70, 63
1, 810389, Note_on_c, 0, 66, 75
1, 810422, Note_on_c, 0, 63, 76
1, 810438, Note_off_c, 0, 66, 65
1, 810464, Note_off_c, 0, 63, 63
1, 810583, Note_on_c, 0, 51, 101
1, 810584, Note_on_c, 0, 47, 72
1, 810592, Note_on_c, 0, 39, 79
1, 810616, Control_c, 0, 64, 72
1, 810631, Control_c, 0, 64, 0
1, 810642, Note_on_c, 0, 71, 104
1, 810643, Note_on_c, 0, 83, 95
1, 810705, Control_c, 0, 64, 64
1, 810720, Control_c, 0, 64, 94
1, 810735, Control_c, 0, 64, 127
1, 810774, Note_off_c, 0, 39, 63
1, 810786, Note_off_c, 0, 47, 62
1, 810798, Note_off_c, 0, 51, 63
1, 810813, Note_off_c, 0, 71, 59
1, 810844, Note_off_c, 0, 83, 61
1, 810845, Note_on_c, 0, 78, 72
1, 810895, Note_on_c, 0, 75, 78
1, 810915, Note_off_c, 0, 78, 63
1, 810964, Note_off_c, 0, 75, 66
1, 810971, Note_on_c, 0, 68, 74
1, 810998, Note_off_c, 0, 68, 64
1, 811041, Note_on_c, 0, 69, 75
1, 811111, Note_off_c, 0, 69, 61
1, 811117, Note_on_c, 0, 66, 75
1, 811156, Note_on_c, 0, 63, 74
1, 811165, Note_off_c, 0, 66, 63
1, 811182, Note_off_c, 0, 63, 69
1, 811315, Note_on_c, 0, 46, 98
1, 811323, Note_on_c, 0, 34, 80
1, 811358, Note_on_c, 0, 33, 51
1, 811380, Control_c, 0, 64, 95
1, 811390, Note_on_c, 0, 78, 97
1, 811390, Note_on_c, 0, 66, 101
1, 811394, Control_c, 0, 64, 63
1, 811404, Note_off_c, 0, 33, 51
1, 811409, Control_c, 0, 64, 0
1, 811520, Control_c, 0, 64, 36
1, 811535, Control_c, 0, 64, 65
1, 811550, Control_c, 0, 64, 74
1, 811565, Control_c, 0, 64, 87
1, 811579, Note_on_c, 0, 75, 79
1, 811580, Control_c, 0, 64, 101
1, 811594, Control_c, 0, 64, 127
1, 811621, Note_off_c, 0, 34, 62
1, 811636, Note_off_c, 0, 46, 61
1, 811640, Note_off_c, 0, 66, 57
1, 811692, Note_on_c, 0, 70, 69
1, 811792, Note_on_c, 0, 65, 77
1, 811806, Note_off_c, 0, 78, 54
1, 811811, Poly_aftertouch_c, 0, 73, 0
1, 811832, Note_off_c, 0, 70, 62
1, 811841, Note_off_c, 0, 65, 63
1, 811843, Note_off_c, 0, 75, 61
1, 811906, Note_on_c, 0, 66, 85
1, 812001, Note_on_c, 0, 63, 76
1, 812008, Note_off_c, 0, 66, 62
1, 812110, Note_on_c, 0, 58, 88
1, 812122, Note_off_c, 0, 63, 56
1, 812313, Control_c, 0, 64, 118
1, 812328, Control_c, 0, 64, 72
1, 812337, Note_on_c, 0, 66, 103
1, 812337, Note_off_c, 0, 58, 56
1, 812339, Note_on_c, 0, 59, 71
1, 812340, Note_on_c, 0, 62, 77
1, 812342, Control_c, 0, 64, 30
1, 812357, Control_c, 0, 64, 0
1, 812471, Note_on_c, 0, 83, 106
1, 812480, Note_on_c, 0, 71, 98
1, 812506, Control_c, 0, 64, 34
1, 812521, Control_c, 0, 64, 83
1, 812536, Control_c, 0, 64, 127
1, 812583, Note_off_c, 0, 66, 64
1, 812607, Note_off_c, 0, 62, 62
1, 812626, Note_off_c, 0, 59, 64
1, 812697, Note_off_c, 0, 83, 57
1, 812706, Note_off_c, 0, 71, 52
1, 812708, Note_on_c, 0, 78, 42
1, 812778, Note_off_c, 0, 78, 60
1, 812792, Note_on_c, 0, 74, 55
1, 812840, Note_off_c, 0, 74, 57
1, 812893, Note_on_c, 0, 30, 69
1, 812893, Note_on_c, 0, 42, 85
1, 812907, Note_on_c, 0, 70, 52
1, 812939, Note_off_c, 0, 30, 63
1, 812962, Note_off_c, 0, 42, 62
1, 813007, Note_on_c, 0, 71, 56
1, 813052, Note_off_c, 0, 70, 29
1, 813082, Note_off_c, 0, 71, 59
1, 813100, Note_on_c, 0, 74, 60
1, 813166, Note_on_c, 0, 78, 70
1, 813173, Note_off_c, 0, 74, 60
1, 813207, Note_off_c, 0, 78, 56
1, 813270, Note_on_c, 0, 62, 98
1, 813280, Note_on_c, 0, 57, 81
1, 813280, Note_on_c, 0, 59, 85
1, 813311, Note_off_c, 0, 62, 69
1, 813337, Note_off_c, 0, 59, 65
1, 813342, Note_off_c, 0, 57, 64
1, 813347, Note_on_c, 0, 78, 100
1, 813352, Note_on_c, 0, 66, 102
1, 813509, Note_on_c, 0, 74, 53
1, 813516, Note_off_c, 0, 66, 52
1, 813549, Note_off_c, 0, 78, 51
1, 813597, Note_on_c, 0, 71, 46
1, 813598, Note_off_c, 0, 74, 48
1, 813661, Note_off_c, 0, 71, 60
1, 813699, Note_on_c, 0, 42, 92
1, 813699, Note_on_c, 0, 65, 60
1, 813710, Note_on_c, 0, 30, 72
1, 813722, Note_off_c, 0, 65, 64
1, 813755, Note_off_c, 0, 30, 63
1, 813760, Note_off_c, 0, 42, 61
1, 813826, Note_on_c, 0, 66, 76
1, 813907, Note_on_c, 0, 71, 67
1, 813945, Note_off_c, 0, 66, 62
1, 813952, Note_on_c, 0, 74, 75
1, 813961, Note_off_c, 0, 71, 62
1, 814002, Note_off_c, 0, 74, 64
1, 814032, Note_on_c, 0, 59, 99
1, 814039, Note_on_c, 0, 47, 85
1, 814044, Note_on_c, 0, 53, 79
1, 814047, Control_c, 0, 64, 80
1, 814062, Control_c, 0, 64, 53
1, 814077, Control_c, 0, 64, 0
1, 814102, Note_on_c, 0, 79, 96
1, 814107, Note_on_c, 0, 67, 101
1, 814107, Control_c, 0, 64, 46
1, 814122, Control_c, 0, 64, 67
1, 814136, Control_c, 0, 64, 98
1, 814151, Control_c, 0, 64, 127
1, 814156, Note_off_c, 0, 59, 62
1, 814198, Note_off_c, 0, 53, 63
1, 814225, Note_off_c, 0, 47, 63
1, 814250, Note_on_c, 0, 74, 63
1, 814261, Note_off_c, 0, 67, 58
1, 814271, Note_off_c, 0, 79, 55
1, 814324, Note_on_c, 0, 71, 52
1, 814329, Note_off_c, 0, 74, 60
1, 814371, Note_off_c, 0, 71, 62
1, 814426, Note_on_c, 0, 42, 90
1, 814433, Note_on_c, 0, 66, 55
1, 814448, Note_on_c, 0, 30, 47
1, 814458, Note_off_c, 0, 42, 64
1, 814471, Note_off_c, 0, 66, 63
1, 814491, Note_off_c, 0, 30, 53
1, 814519, Note_on_c, 0, 67, 63
1, 814587, Note_off_c, 0, 67, 59
1, 814608, Note_on_c, 0, 71, 66
1, 814664, Note_on_c, 0, 74, 72
1, 814682, Note_off_c, 0, 71, 61
1, 814715, Note_off_c, 0, 74, 61
1, 814742, Note_on_c, 0, 54, 100
1, 814746, Note_on_c, 0, 42, 83
1, 814759, Note_on_c, 0, 47, 79
1, 814767, Control_c, 0, 64, 89
1, 814782, Control_c, 0, 64, 60
1, 814797, Control_c, 0, 64, 27
1, 814811, Control_c, 0, 64, 0
1, 814814, Note_on_c, 0, 74, 101
1, 814820, Note_on_c, 0, 62, 97
1, 814826, Control_c, 0, 64, 47
1, 814841, Control_c, 0, 64, 65
1, 814856, Control_c, 0, 64, 85
1, 814857, Note_off_c, 0, 54, 58
1, 814870, Control_c, 0, 64, 127
1, 814912, Note_off_c, 0, 47, 63
1, 814941, Note_off_c, 0, 42, 61
1, 814961, Note_on_c, 0, 71, 61
1, 814961, Note_off_c, 0, 62, 61
1, 814977, Note_off_c, 0, 74, 54
1, 815023, Note_off_c, 0, 71, 61
1, 815038, Note_on_c, 0, 66, 56
1, 815116, Note_off_c, 0, 66, 61
1, 815117, Note_on_c, 0, 42, 97
1, 815129, Note_on_c, 0, 30, 72
1, 815156, Note_on_c, 0, 61, 67
1, 815160, Note_off_c, 0, 30, 64
1, 815165, Note_off_c, 0, 42, 62
1, 815218, Note_off_c, 0, 61, 64
1, 815241, Note_on_c, 0, 62, 63
1, 815310, Note_on_c, 0, 66, 65
1, 815326, Note_off_c, 0, 62, 57
1, 815364, Note_on_c, 0, 71, 64
1, 815371, Note_off_c, 0, 66, 64
1, 815409, Note_off_c, 0, 71, 61
1, 815451, Note_on_c, 0, 55, 101
1, 815461, Note_on_c, 0, 43, 86
1, 815463, Note_on_c, 0, 47, 83
1, 815472, Control_c, 0, 64, 71
1, 815486, Control_c, 0, 64, 38
1, 815501, Control_c, 0, 64, 0
1, 815519, Note_on_c, 0, 76, 97
1, 815525, Note_on_c, 0, 64, 97
1, 815531, Control_c, 0, 64, 38
1, 815543, Note_off_c, 0, 55, 62
1, 815546, Control_c, 0, 64, 62
1, 815560, Control_c, 0, 64, 84
1, 815575, Control_c, 0, 64, 127
1, 815609, Note_off_c, 0, 47, 61
1, 815618, Note_off_c, 0, 43, 62
1, 815663, Note_off_c, 0, 64, 63
1, 815673, Note_on_c, 0, 73, 61
1, 815689, Note_off_c, 0, 76, 55
1, 815740, Note_on_c, 0, 70, 56
1, 815748, Note_off_c, 0, 73, 61
1, 815810, Note_off_c, 0, 70, 61
1, 815821, Note_on_c, 0, 42, 97
1, 815829, Note_on_c, 0, 30, 81
1, 815849, Note_on_c, 0, 63, 70
1, 815865, Note_off_c, 0, 42, 62
1, 815866, Note_off_c, 0, 30, 65
1, 815919, Note_off_c, 0, 63, 66
1, 815938, Note_on_c, 0, 64, 69
1, 816006, Note_on_c, 0, 70, 69
1, 816044, Note_off_c, 0, 64, 60
1, 816073, Note_on_c, 0, 73, 73
1, 816096, Note_off_c, 0, 70, 63
1, 816142, Note_off_c, 0, 73, 59
1, 816146, Control_c, 0, 64, 73
1, 816149, Note_on_c, 0, 50, 101
1, 816152, Note_on_c, 0, 47, 87
1, 816155, Note_on_c, 0, 38, 90
1, 816161, Control_c, 0, 64, 29
1, 816176, Control_c, 0, 64, 0
1, 816205, Control_c, 0, 64, 44
1, 816211, Note_off_c, 0, 50, 64
1, 816214, Note_on_c, 0, 66, 103
1, 816215, Note_on_c, 0, 78, 100
1, 816220, Control_c, 0, 64, 67
1, 816230, Note_off_c, 0, 47, 66
1, 816235, Control_c, 0, 64, 90
1, 816250, Control_c, 0, 64, 127
1, 816259, Note_off_c, 0, 38, 63
1, 816339, Note_on_c, 0, 74, 68
1, 816390, Note_off_c, 0, 66, 57
1, 816390, Note_off_c, 0, 78, 56
1, 816405, Note_off_c, 0, 74, 62
1, 816407, Note_on_c, 0, 71, 58
1, 816445, Note_off_c, 0, 71, 62
1, 816468, Note_on_c, 0, 30, 75
1, 816478, Note_on_c, 0, 42, 96
1, 816523, Note_off_c, 0, 30, 63
1, 816530, Note_on_c, 0, 65, 32
1, 816534, Note_off_c, 0, 42, 62
1, 816565, Note_off_c, 0, 65, 53
1, 816569, Note_on_c, 0, 66, 70
1, 816624, Note_off_c, 0, 66, 52
1, 816654, Note_on_c, 0, 71, 60
1, 816666, Note_on_c, 0, 40, 79
1, 816701, Note_on_c, 0, 74, 71
1, 816716, Note_off_c, 0, 71, 61
1, 816739, Note_on_c, 0, 47, 84
1, 816750, Note_off_c, 0, 74, 62
1, 816836, Control_c, 0, 64, 91
1, 816849, Note_on_c, 0, 52, 103
1, 816851, Control_c, 0, 64, 51
1, 816865, Control_c, 0, 64, 0
1, 816907, Note_on_c, 0, 71, 100
1, 816910, Control_c, 0, 64, 40
1, 816912, Note_on_c, 0, 59, 93
1, 816925, Control_c, 0, 64, 76
1, 816930, Note_on_c, 0, 43, 5
1, 816939, Control_c, 0, 64, 127
1, 816965, Note_off_c, 0, 40, 63
1, 816967, Note_off_c, 0, 43, 43
1, 816969, Note_off_c, 0, 47, 59
1, 817000, Note_off_c, 0, 52, 61
1, 817015, Note_off_c, 0, 59, 60
1, 817022, Poly_aftertouch_c, 0, 72, 0
1, 817050, Note_off_c, 0, 71, 37
1, 817052, Note_on_c, 0, 67, 63
1, 817132, Note_off_c, 0, 67, 62
1, 817167, Note_on_c, 0, 58, 63
1, 817228, Note_off_c, 0, 58, 44
1, 817276, Note_on_c, 0, 64, 99
1, 817277, Note_on_c, 0, 52, 91
1, 817335, Note_off_c, 0, 64, 68
1, 817343, Note_on_c, 0, 59, 68
1, 817390, Note_off_c, 0, 52, 64
1, 817415, Note_on_c, 0, 67, 63
1, 817480, Note_off_c, 0, 59, 48
1, 817493, Note_on_c, 0, 70, 58
1, 817546, Note_off_c, 0, 67, 60
1, 817551, Note_on_c, 0, 71, 65
1, 817584, Note_off_c, 0, 70, 64
1, 817608, Note_off_c, 0, 71, 61
1, 817627, Note_on_c, 0, 42, 91
1, 817718, Control_c, 0, 64, 64
1, 817733, Control_c, 0, 64, 0
1, 817752, Note_on_c, 0, 64, 99
1, 817757, Note_on_c, 0, 54, 99
1, 817758, Note_on_c, 0, 52, 96
1, 817777, Control_c, 0, 64, 59
1, 817792, Control_c, 0, 64, 88
1, 817794, Note_on_c, 0, 44, 33
1, 817797, Note_off_c, 0, 52, 58
1, 817807, Control_c, 0, 64, 127
1, 817836, Note_off_c, 0, 44, 49
1, 817839, Note_off_c, 0, 64, 64
1, 817845, Note_off_c, 0, 42, 62
1, 817845, Note_off_c, 0, 54, 61
1, 817950, Note_on_c, 0, 59, 65
1, 817980, Note_off_c, 0, 59, 64
1, 818045, Note_on_c, 0, 71, 64
1, 818101, Note_off_c, 0, 71, 62
1, 818114, Note_on_c, 0, 66, 58
1, 818167, Note_off_c, 0, 66, 60
1, 818185, Note_on_c, 0, 63, 105
1, 818188, Note_on_c, 0, 51, 87
1, 818238, Note_off_c, 0, 63, 68
1, 818273, Note_off_c, 0, 51, 64
1, 818308, Note_on_c, 0, 58, 70
1, 818332, Poly_aftertouch_c, 0, 70, 127
1, 818369, Poly_aftertouch_c, 0, 70, 0
1, 818372, Note_off_c, 0, 58, 63
1, 818402, Note_on_c, 0, 66, 45
1, 818431, Note_on_c, 0, 67, 56
1, 818444, Note_off_c, 0, 66, 47
1, 818462, Note_off_c, 0, 67, 65
1, 818473, Note_on_c, 0, 71, 54
1, 818478, Note_on_c, 0, 35, 89
1, 818482, Poly_aftertouch_c, 0, 39, 127
1, 818501, Note_off_c, 0, 71, 65
1, 818584, Poly_aftertouch_c, 0, 39, 0
1, 818611, Note_on_c, 0, 47, 96
1, 818659, Control_c, 0, 64, 80
1, 818674, Control_c, 0, 64, 47
1, 818689, Control_c, 0, 64, 0
1, 818698, Note_on_c, 0, 83, 100
1, 818703, Note_on_c, 0, 71, 102
1, 818718, Control_c, 0, 64, 53
1, 818733, Control_c, 0, 64, 79
1, 818748, Control_c, 0, 64, 127
1, 818772, Note_off_c, 0, 35, 62
1, 818800, Note_off_c, 0, 47, 65
1, 818833, Note_off_c, 0, 71, 59
1, 818855, Note_off_c, 0, 83, 56
1, 818857, Note_on_c, 0, 78, 60
1, 818930, Note_off_c, 0, 78, 60
1, 818945, Note_on_c, 0, 74, 47
1, 818972, Note_off_c, 0, 74, 57
1, 819013, Note_on_c, 0, 70, 59
1, 819033, Note_off_c, 0, 70, 64
1, 819045, Note_on_c, 0, 62, 104
1, 819052, Note_on_c, 0, 50, 99
1, 819101, Note_off_c, 0, 62, 56
1, 819135, Note_on_c, 0, 71, 58
1, 819142, Note_off_c, 0, 50, 60
1, 819187, Note_on_c, 0, 66, 72
1, 819198, Note_off_c, 0, 71, 61
1, 819249, Note_off_c, 0, 66, 64
1, 819270, Note_on_c, 0, 62, 70
1, 819292, Note_off_c, 0, 62, 66
1, 819387, Note_on_c, 0, 62, 97
1, 819392, Note_on_c, 0, 50, 91
1, 819423, Control_c, 0, 64, 82
1, 819438, Control_c, 0, 64, 55
1, 819450, Note_on_c, 0, 66, 106
1, 819453, Note_on_c, 0, 78, 97
1, 819453, Control_c, 0, 64, 0
1, 819482, Control_c, 0, 64, 49
1, 819497, Control_c, 0, 64, 72
1, 819512, Control_c, 0, 64, 127
1, 819571, Note_off_c, 0, 62, 59
1, 819591, Note_off_c, 0, 50, 60
1, 819597, Note_on_c, 0, 76, 61
1, 819618, Note_off_c, 0, 66, 56
1, 819627, Note_off_c, 0, 78, 58
1, 819651, Note_on_c, 0, 70, 66
1, 819658, Note_off_c, 0, 76, 65
1, 819710, Note_off_c, 0, 70, 64
1, 819767, Note_on_c, 0, 61, 105
1, 819773, Note_on_c, 0, 49, 88
1, 819784, Note_on_c, 0, 65, 19
1, 819800, Note_off_c, 0, 61, 69
1, 819829, Note_off_c, 0, 65, 51
1, 819833, Note_off_c, 0, 49, 65
1, 819836, Note_on_c, 0, 66, 68
1, 819906, Note_on_c, 0, 64, 63
1, 819932, Note_off_c, 0, 66, 62
1, 819958, Note_off_c, 0, 64, 65
1, 819984, Note_on_c, 0, 58, 71
1, 820010, Note_off_c, 0, 58, 66
1, 820019, Note_on_c, 0, 30, 89
1, 820137, Note_on_c, 0, 42, 104
1, 820157, Control_c, 0, 64, 79
1, 820172, Control_c, 0, 64, 48
1, 820187, Control_c, 0, 64, 0
1, 820196, Note_on_c, 0, 67, 96
1, 820197, Note_on_c, 0, 79, 92
1, 820216, Control_c, 0, 64, 49
1, 820231, Control_c, 0, 64, 70
1, 820246, Control_c, 0, 64, 106
1, 820257, Note_off_c, 0, 30, 61
1, 820261, Control_c, 0, 64, 127
1, 820277, Note_off_c, 0, 42, 63
1, 820322, Note_off_c, 0, 67, 60
1, 820340, Note_on_c, 0, 74, 62
1, 820349, Note_off_c, 0, 79, 60
1, 820394, Note_off_c, 0, 74, 61
1, 820466, Poly_aftertouch_c, 0, 71, 127
1, 820491, Note_on_c, 0, 66, 68
1, 820517, Note_on_c, 0, 59, 105
1, 820518, Note_off_c, 0, 66, 67
1, 820518, Poly_aftertouch_c, 0, 71, 0
1, 820522, Note_on_c, 0, 47, 100
1, 820554, Note_off_c, 0, 59, 68
1, 820588, Note_off_c, 0, 47, 61
1, 820601, Note_on_c, 0, 67, 66
1, 820660, Note_on_c, 0, 62, 69
1, 820678, Note_off_c, 0, 67, 59
1, 820718, Note_off_c, 0, 62, 63
1, 820737, Note_on_c, 0, 59, 74
1, 820758, Note_off_c, 0, 59, 67
1, 820843, Note_on_c, 0, 59, 98
1, 820847, Note_on_c, 0, 47, 90
1, 820891, Control_c, 0, 64, 85
1, 820906, Control_c, 0, 64, 53
1, 820909, Note_on_c, 0, 74, 102
1, 820913, Note_on_c, 0, 62, 98
1, 820921, Control_c, 0, 64, 0
1, 820966, Control_c, 0, 64, 55
1, 820980, Control_c, 0, 64, 74
1, 820995, Control_c, 0, 64, 105
1, 821010, Control_c, 0, 64, 127
1, 821013, Note_off_c, 0, 62, 63
1, 821033, Note_off_c, 0, 59, 57
1, 821034, Note_on_c, 0, 66, 74
1, 821050, Note_off_c, 0, 74, 61
1, 821056, Note_off_c, 0, 47, 57
1, 821099, Note_off_c, 0, 66, 64
1, 821124, Note_on_c, 0, 62, 58
1, 821154, Note_off_c, 0, 62, 64
1, 821192, Note_on_c, 0, 58, 103
1, 821199, Note_on_c, 0, 46, 84
1, 821214, Note_on_c, 0, 62, 61
1, 821217, Control_c, 0, 64, 77
1, 821239, Control_c, 0, 64, 57
1, 821247, Note_off_c, 0, 62, 68
1, 821254, Control_c, 0, 64, 49
1, 821269, Control_c, 0, 64, 56
1, 821284, Control_c, 0, 64, 68
1, 821299, Control_c, 0, 64, 88
1, 821308, Note_on_c, 0, 61, 79
1, 821315, Control_c, 0, 64, 127
1, 821371, Note_off_c, 0, 58, 57
1, 821383, Note_on_c, 0, 66, 75
1, 821400, Note_off_c, 0, 61, 61
1, 821404, Note_off_c, 0, 46, 55
1, 821448, Note_on_c, 0, 73, 68
1, 821457, Note_off_c, 0, 66, 64
1, 821485, Note_off_c, 0, 73, 61
1, 821505, Note_on_c, 0, 57, 99
1, 821514, Note_on_c, 0, 45, 89
1, 821522, Control_c, 0, 64, 98
1, 821536, Control_c, 0, 64, 67
1, 821551, Control_c, 0, 64, 49
1, 821566, Control_c, 0, 64, 45
1, 821577, Note_on_c, 0, 64, 90
1, 821580, Note_on_c, 0, 76, 88
1, 821581, Control_c, 0, 64, 59
1, 821596, Control_c, 0, 64, 72
1, 821610, Control_c, 0, 64, 105
1, 821625, Control_c, 0, 64, 127
1, 821645, Note_off_c, 0, 57, 58
1, 821672, Note_off_c, 0, 64, 64
1, 821683, Note_on_c, 0, 72, 82
1, 821687, Note_off_c, 0, 76, 56
1, 821698, Note_off_c, 0, 45, 59
1, 821741, Note_off_c, 0, 72, 63
1, 821769, Note_on_c, 0, 60, 77
1, 821793, Note_off_c, 0, 60, 70
1, 821826, Note_on_c, 0, 55, 99
1, 821832, Note_on_c, 0, 43, 94
1, 821848, Note_on_c, 0, 60, 85
1, 821864, Note_off_c, 0, 55, 67
1, 821885, Note_off_c, 0, 60, 65
1, 821887, Note_off_c, 0, 43, 62
1, 821922, Note_on_c, 0, 59, 82
1, 821996, Note_off_c, 0, 59, 63
1, 822000, Note_on_c, 0, 64, 71
1, 822065, Note_on_c, 0, 71, 80
1, 822065, Note_off_c, 0, 64, 66
1, 822097, Note_off_c, 0, 71, 62
1, 822137, Control_c, 0, 64, 85
1, 822144, Note_on_c, 0, 54, 103
1, 822150, Note_on_c, 0, 42, 91
1, 822152, Control_c, 0, 64, 51
1, 822167, Control_c, 0, 64, 0
1, 822212, Control_c, 0, 64, 54
1, 822214, Note_on_c, 0, 66, 102
1, 822221, Note_on_c, 0, 78, 95
1, 822226, Control_c, 0, 64, 72
1, 822241, Control_c, 0, 64, 101
1, 822256, Control_c, 0, 64, 127
1, 822270, Note_off_c, 0, 54, 59
1, 822343, Note_off_c, 0, 42, 56
1, 822349, Note_on_c, 0, 73, 75
1, 822358, Note_off_c, 0, 66, 59
1, 822398, Note_off_c, 0, 78, 58
1, 822423, Note_on_c, 0, 70, 65
1, 822429, Note_off_c, 0, 73, 62
1, 822483, Note_off_c, 0, 70, 64
1, 822496, Note_on_c, 0, 52, 102
1, 822503, Note_on_c, 0, 40, 86
1, 822508, Note_on_c, 0, 65, 58
1, 822540, Note_off_c, 0, 52, 66
1, 822543, Note_off_c, 0, 65, 63
1, 822547, Note_off_c, 0, 40, 60
1, 822602, Note_on_c, 0, 66, 64
1, 822674, Note_on_c, 0, 54, 101
1, 822680, Note_on_c, 0, 42, 94
1, 822686, Note_on_c, 0, 61, 70
1, 822702, Note_off_c, 0, 66, 63
1, 822716, Note_off_c, 0, 54, 66
1, 822743, Note_off_c, 0, 42, 60
1, 822758, Note_off_c, 0, 61, 64
1, 822792, Note_on_c, 0, 58, 75
1, 822874, Note_off_c, 0, 58, 62
1, 822909, Note_on_c, 0, 50, 104
1, 822916, Note_on_c, 0, 38, 90
1, 822945, Control_c, 0, 64, 73
1, 822960, Control_c, 0, 64, 46
1, 822975, Control_c, 0, 64, 0
1, 822978, Note_on_c, 0, 71, 97
1, 822979, Note_on_c, 0, 59, 99
1, 823020, Control_c, 0, 64, 52
1, 823034, Control_c, 0, 64, 66
1, 823049, Control_c, 0, 64, 76
1, 823064, Control_c, 0, 64, 87
1, 823073, Note_off_c, 0, 50, 57
1, 823079, Control_c, 0, 64, 96
1, 823094, Control_c, 0, 64, 113
1, 823094, Note_off_c, 0, 38, 58
1, 823105, Note_on_c, 0, 66, 79
1, 823108, Control_c, 0, 64, 127
1, 823110, Note_off_c, 0, 59, 58
1, 823193, Note_on_c, 0, 59, 75
1, 823198, Note_off_c, 0, 66, 63
1, 823261, Note_off_c, 0, 59, 60
1, 823273, Note_on_c, 0, 49, 101
1, 823281, Note_on_c, 0, 37, 91
1, 823326, Note_off_c, 0, 49, 62
1, 823361, Note_off_c, 0, 37, 59
1, 823362, Note_on_c, 0, 66, 85
1, 823430, Note_on_c, 0, 64, 80
1, 823482, Note_off_c, 0, 66, 62
1, 823514, Note_on_c, 0, 59, 76
1, 823517, Note_off_c, 0, 64, 65
1, 823574, Note_off_c, 0, 59, 60
1, 823579, Note_on_c, 0, 47, 99
1, 823585, Note_on_c, 0, 35, 91
1, 823589, Control_c, 0, 64, 77
1, 823604, Control_c, 0, 64, 51
1, 823619, Control_c, 0, 64, 0
1, 823649, Control_c, 0, 64, 38
1, 823663, Control_c, 0, 64, 59
1, 823669, Note_on_c, 0, 66, 78
1, 823678, Control_c, 0, 64, 70
1, 823690, Note_off_c, 0, 47, 59
1, 823693, Control_c, 0, 64, 83
1, 823709, Control_c, 0, 64, 96
1, 823723, Control_c, 0, 64, 110
1, 823732, Note_off_c, 0, 35, 61
1, 823738, Note_on_c, 0, 62, 73
1, 823738, Control_c, 0, 64, 127
1, 823744, Note_off_c, 0, 71, 53
1, 823803, Note_off_c, 0, 66, 62
1, 823822, Note_off_c, 0, 62, 63
1, 823824, Note_on_c, 0, 59, 84
1, 823890, Note_on_c, 0, 45, 99
1, 823890, Note_off_c, 0, 59, 62
1, 823896, Note_on_c, 0, 33, 98
1, 823950, Note_off_c, 0, 45, 61
1, 823956, Note_off_c, 0, 33, 60
1, 823979, Note_on_c, 0, 72, 87
1, 823987, Note_on_c, 0, 66, 84
1, 824063, Note_on_c, 0, 60, 87
1, 824064, Note_on_c, 0, 47, 91
1, 824066, Note_on_c, 0, 35, 92
1, 824093, Note_off_c, 0, 47, 57
1, 824126, Note_off_c, 0, 35, 60
1, 824155, Note_on_c, 0, 63, 85
1, 824179, Note_off_c, 0, 60, 61
1, 824191, Note_off_c, 0, 66, 63
1, 824191, Note_off_c, 0, 72, 58
1, 824213, Note_off_c, 0, 63, 64
1, 824242, Note_on_c, 0, 43, 102
1, 824248, Note_on_c, 0, 31, 93
1, 824265, Control_c, 0, 64, 71
1, 824280, Control_c, 0, 64, 28
1, 824295, Control_c, 0, 64, 0
1, 824298, Note_on_c, 0, 72, 89
1, 824314, Note_on_c, 0, 67, 82
1, 824325, Control_c, 0, 64, 34
1, 824339, Control_c, 0, 64, 60
1, 824354, Control_c, 0, 64, 76
1, 824365, Note_off_c, 0, 43, 59
1, 824369, Control_c, 0, 64, 104
1, 824376, Note_off_c, 0, 31, 55
1, 824383, Control_c, 0, 64, 127
1, 824394, Note_on_c, 0, 60, 79
1, 824468, Note_on_c, 0, 64, 69
1, 824477, Note_off_c, 0, 67, 62
1, 824479, Note_off_c, 0, 72, 61
1, 824485, Note_off_c, 0, 60, 61
1, 824511, Note_off_c, 0, 64, 64
1, 824523, Note_on_c, 0, 30, 91
1, 824641, Poly_aftertouch_c, 0, 32, 127
1, 824651, Control_c, 0, 64, 90
1, 824659, Note_on_c, 0, 69, 100
1, 824662, Note_on_c, 0, 57, 102
1, 824665, Note_on_c, 0, 42, 104
1, 824666, Control_c, 0, 64, 59
1, 824680, Control_c, 0, 64, 0
1, 824704, Note_on_c, 0, 32, 3
1, 824707, Note_off_c, 0, 32, 48
1, 824710, Control_c, 0, 64, 34
1, 824713, Note_on_c, 0, 66, 30
1, 824713, Note_off_c, 0, 66, 127
1, 824725, Control_c, 0, 64, 59
1, 824740, Control_c, 0, 64, 75
1, 824754, Control_c, 0, 64, 127
1, 824784, Note_off_c, 0, 57, 58
1, 824807, Note_off_c, 0, 42, 59
1, 824838, Note_on_c, 0, 71, 69
1, 824841, Note_off_c, 0, 30, 58
1, 824892, Note_off_c, 0, 69, 53
1, 824915, Note_on_c, 0, 59, 76
1, 824990, Note_on_c, 0, 28, 93
1, 825000, Note_off_c, 0, 71, 58
1, 825020, Note_off_c, 0, 59, 62
1, 825021, Note_on_c, 0, 63, 67
1, 825079, Note_off_c, 0, 63, 63
1, 825101, Control_c, 0, 64, 66
1, 825116, Control_c, 0, 64, 0
1, 825136, Note_on_c, 0, 40, 105
1, 825147, Note_on_c, 0, 57, 108
1, 825148, Note_on_c, 0, 69, 100
1, 825160, Control_c, 0, 64, 59
1, 825166, Note_on_c, 0, 31, 43
1, 825172, Note_off_c, 0, 28, 65
1, 825175, Control_c, 0, 64, 127
1, 825182, Note_off_c, 0, 57, 67
1, 825201, Note_off_c, 0, 40, 66
1, 825202, Note_off_c, 0, 69, 57
1, 825205, Note_off_c, 0, 31, 52
1, 825308, Note_on_c, 0, 64, 72
1, 825380, Note_off_c, 0, 64, 61
1, 825381, Note_on_c, 0, 76, 72
1, 825446, Note_on_c, 0, 71, 65
1, 825491, Note_off_c, 0, 76, 57
1, 825491, Note_on_c, 0, 68, 101
1, 825499, Note_on_c, 0, 56, 83
1, 825524, Note_off_c, 0, 68, 70
1, 825556, Note_off_c, 0, 56, 66
1, 825567, Note_off_c, 0, 71, 57
1, 825586, Note_on_c, 0, 63, 74
1, 825628, Note_off_c, 0, 63, 64
1, 825658, Note_on_c, 0, 52, 91
1, 825661, Note_on_c, 0, 40, 84
1, 825667, Note_on_c, 0, 71, 64
1, 825679, Note_off_c, 0, 52, 70
1, 825688, Note_off_c, 0, 40, 67
1, 825724, Note_off_c, 0, 71, 63
1, 825729, Note_on_c, 0, 76, 51
1, 825748, Note_off_c, 0, 76, 61
1, 825810, Note_on_c, 0, 55, 104
1, 825813, Note_on_c, 0, 43, 91
1, 825837, Note_on_c, 0, 46, 51
1, 825850, Control_c, 0, 64, 73
1, 825864, Note_off_c, 0, 46, 56
1, 825865, Control_c, 0, 64, 46
1, 825876, Note_on_c, 0, 76, 99
1, 825877, Note_on_c, 0, 88, 105
1, 825880, Control_c, 0, 64, 53
1, 825884, Note_off_c, 0, 43, 64
1, 825891, Note_off_c, 0, 55, 59
1, 825894, Control_c, 0, 64, 69
1, 825905, Note_on_c, 0, 85, 54
1, 825909, Control_c, 0, 64, 105
1, 825924, Control_c, 0, 64, 127
1, 825929, Note_off_c, 0, 85, 43
1, 826003, Note_on_c, 0, 59, 86
1, 826010, Note_on_c, 0, 47, 73
1, 826018, Note_off_c, 0, 76, 57
1, 826020, Note_on_c, 0, 83, 71
1, 826024, Note_off_c, 0, 59, 70
1, 826039, Note_off_c, 0, 47, 64
1, 826046, Note_off_c, 0, 88, 55
1, 826094, Note_on_c, 0, 79, 71
1, 826095, Note_off_c, 0, 83, 63
1, 826130, Note_on_c, 0, 52, 89
1, 826177, Control_c, 0, 64, 71
1, 826192, Control_c, 0, 64, 41
1, 826206, Control_c, 0, 64, 36
1, 826219, Note_on_c, 0, 59, 82
1, 826221, Control_c, 0, 64, 58
1, 826236, Control_c, 0, 64, 81
1, 826249, Note_off_c, 0, 52, 59
1, 826251, Control_c, 0, 64, 127
1, 826280, Note_off_c, 0, 79, 63
1, 826284, Note_on_c, 0, 67, 105
1, 826297, Note_off_c, 0, 59, 67
1, 826305, Note_on_c, 0, 75, 81
1, 826325, Note_off_c, 0, 67, 70
1, 826328, Note_off_c, 0, 75, 69
1, 826350, Note_on_c, 0, 60, 2
1, 826363, Note_off_c, 0, 60, 0
1, 826396, Poly_aftertouch_c, 0, 60, 0
1, 826423, Note_on_c, 0, 76, 80
1, 826529, Note_on_c, 0, 55, 86
1, 826547, Note_on_c, 0, 71, 84
1, 826590, Note_off_c, 0, 55, 60
1, 826597, Note_off_c, 0, 76, 62
1, 826635, Note_on_c, 0, 67, 92
1, 826635, Note_off_c, 0, 71, 64
1, 826678, Note_off_c, 0, 67, 66
1, 826796, Note_on_c, 0, 67, 104
1, 826802, Note_on_c, 0, 55, 97
1, 826806, Control_c, 0, 64, 98
1, 826821, Control_c, 0, 64, 57
1, 826836, Control_c, 0, 64, 0
1, 826840, Note_on_c, 0, 59, 38
1, 826872, Note_off_c, 0, 59, 33
1, 826880, Control_c, 0, 64, 43
1, 826896, Control_c, 0, 64, 68
1, 826904, Note_on_c, 0, 83, 96
1, 826905, Note_on_c, 0, 71, 97
1, 826911, Control_c, 0, 64, 89
1, 826926, Control_c, 0, 64, 127
1, 827036, Note_off_c, 0, 67, 56
1, 827037, Note_off_c, 0, 83, 64
1, 827039, Note_on_c, 0, 81, 76
1, 827045, Note_off_c, 0, 71, 61
1, 827050, Note_off_c, 0, 55, 55
1, 827110, Note_off_c, 0, 81, 64
1, 827124, Note_on_c, 0, 75, 80
1, 827181, Note_off_c, 0, 75, 64
1, 827204, Note_on_c, 0, 66, 97
1, 827210, Note_on_c, 0, 54, 84
1, 827226, Note_on_c, 0, 70, 78
1, 827237, Note_off_c, 0, 66, 66
1, 827249, Note_off_c, 0, 70, 70
1, 827268, Note_off_c, 0, 54, 61
1, 827320, Note_on_c, 0, 71, 77
1, 827324, Note_on_c, 0, 70, 24
1, 827357, Note_off_c, 0, 70, 51
1, 827369, Note_on_c, 0, 54, 92
1, 827372, Note_on_c, 0, 69, 74
1, 827374, Note_off_c, 0, 71, 61
1, 827381, Note_on_c, 0, 42, 77
1, 827408, Note_off_c, 0, 54, 62
1, 827411, Note_off_c, 0, 42, 66
1, 827434, Note_off_c, 0, 69, 60
1, 827443, Note_on_c, 0, 63, 78
1, 827485, Note_off_c, 0, 63, 61
1, 827529, Note_on_c, 0, 55, 104
1, 827532, Note_on_c, 0, 43, 93
1, 827541, Control_c, 0, 64, 71
1, 827556, Control_c, 0, 64, 28
1, 827571, Control_c, 0, 64, 0
1, 827586, Control_c, 0, 64, 43
1, 827598, Note_off_c, 0, 43, 64
1, 827600, Control_c, 0, 64, 65
1, 827612, Note_off_c, 0, 55, 65
1, 827615, Control_c, 0, 64, 90
1, 827616, Note_on_c, 0, 84, 103
1, 827619, Note_on_c, 0, 72, 104
1, 827630, Control_c, 0, 64, 127
1, 827726, Note_on_c, 0, 60, 92
1, 827729, Note_on_c, 0, 79, 70
1, 827731, Note_off_c, 0, 72, 57
1, 827732, Note_on_c, 0, 48, 95
1, 827755, Note_off_c, 0, 60, 65
1, 827759, Note_off_c, 0, 48, 67
1, 827804, Note_off_c, 0, 84, 39
1, 827816, Note_on_c, 0, 76, 78
1, 827834, Note_off_c, 0, 79, 63
1, 827935, Note_on_c, 0, 64, 109
1, 827937, Note_off_c, 0, 76, 64
1, 827938, Note_on_c, 0, 52, 105
1, 827971, Note_on_c, 0, 71, 72
1, 828009, Note_off_c, 0, 71, 61
1, 828087, Note_on_c, 0, 72, 72
1, 828120, Note_off_c, 0, 64, 42
1, 828147, Note_on_c, 0, 55, 72
1, 828190, Note_off_c, 0, 52, 57
1, 828191, Note_on_c, 0, 67, 67
1, 828212, Note_off_c, 0, 72, 61
1, 828248, Note_off_c, 0, 55, 54
1, 828257, Note_off_c, 0, 67, 64
1, 828284, Note_on_c, 0, 64, 78
1, 828309, Note_off_c, 0, 64, 65
1, 828437, Control_c, 0, 64, 72
1, 828439, Note_on_c, 0, 64, 104
1, 828444, Note_on_c, 0, 52, 95
1, 828452, Control_c, 0, 64, 36
1, 828467, Control_c, 0, 64, 0
1, 828482, Control_c, 0, 64, 32
1, 828486, Note_on_c, 0, 55, 33
1, 828498, Control_c, 0, 64, 56
1, 828512, Control_c, 0, 64, 75
1, 828527, Control_c, 0, 64, 127
1, 828543, Note_on_c, 0, 67, 89
1, 828547, Note_on_c, 0, 79, 80
1, 828547, Note_off_c, 0, 64, 63
1, 828564, Note_off_c, 0, 52, 60
1, 828611, Note_off_c, 0, 55, 43
1, 828663, Note_off_c, 0, 67, 59
1, 828665, Note_on_c, 0, 71, 76
1, 828701, Note_off_c, 0, 79, 59
1, 828743, Note_off_c, 0, 71, 63
1, 828770, Note_on_c, 0, 67, 79
1, 828801, Note_off_c, 0, 67, 62
1, 828840, Note_on_c, 0, 63, 105
1, 828848, Note_on_c, 0, 51, 96
1, 828879, Note_on_c, 0, 67, 64
1, 828910, Note_off_c, 0, 63, 55
1, 828914, Note_off_c, 0, 67, 65
1, 828939, Note_off_c, 0, 51, 56
1, 828952, Note_on_c, 0, 66, 88
1, 829030, Note_on_c, 0, 71, 77
1, 829038, Note_off_c, 0, 66, 59
1, 829107, Note_on_c, 0, 78, 81
1, 829111, Note_off_c, 0, 71, 63
1, 829154, Note_off_c, 0, 78, 60
1, 829171, Control_c, 0, 64, 75
1, 829172, Note_on_c, 0, 62, 101
1, 829176, Note_on_c, 0, 50, 94
1, 829186, Control_c, 0, 64, 48
1, 829201, Control_c, 0, 64, 41
1, 829216, Control_c, 0, 64, 56
1, 829231, Control_c, 0, 64, 70
1, 829245, Note_on_c, 0, 69, 88
1, 829245, Note_on_c, 0, 81, 89
1, 829245, Control_c, 0, 64, 107
1, 829248, Note_off_c, 0, 62, 61
1, 829260, Control_c, 0, 64, 127
1, 829284, Note_off_c, 0, 50, 60
1, 829294, Note_off_c, 0, 69, 58
1, 829335, Note_on_c, 0, 77, 82
1, 829338, Note_off_c, 0, 81, 59
1, 829384, Note_off_c, 0, 77, 64
1, 829411, Note_on_c, 0, 65, 79
1, 829444, Note_off_c, 0, 65, 61
1, 829484, Note_on_c, 0, 60, 98
1, 829488, Note_on_c, 0, 48, 92
1, 829509, Note_on_c, 0, 65, 76
1, 829520, Note_off_c, 0, 60, 67
1, 829542, Note_off_c, 0, 65, 60
1, 829543, Note_off_c, 0, 48, 61
1, 829578, Note_on_c, 0, 62, 71
1, 829590, Note_on_c, 0, 64, 57
1, 829599, Note_off_c, 0, 62, 70
1, 829611, Note_off_c, 0, 64, 63
1, 829636, Note_on_c, 0, 69, 81
1, 829700, Note_off_c, 0, 69, 61
1, 829715, Note_on_c, 0, 76, 81
1, 829742, Note_off_c, 0, 76, 64
1, 829791, Note_on_c, 0, 59, 109
1, 829801, Note_on_c, 0, 47, 86
1, 829801, Control_c, 0, 64, 77
1, 829816, Control_c, 0, 64, 40
1, 829822, Note_on_c, 0, 48, 67
1, 829831, Control_c, 0, 64, 0
1, 829852, Note_off_c, 0, 48, 59
1, 829861, Control_c, 0, 64, 35
1, 829862, Note_on_c, 0, 71, 96
1, 829865, Note_on_c, 0, 83, 89
1, 829876, Control_c, 0, 64, 63
1, 829888, Note_off_c, 0, 59, 56
1, 829891, Control_c, 0, 64, 76
1, 829905, Control_c, 0, 64, 115
1, 829920, Control_c, 0, 64, 127
1, 829929, Note_off_c, 0, 47, 62
1, 829953, Note_off_c, 0, 71, 60
1, 829968, Note_on_c, 0, 78, 76
1, 829971, Note_off_c, 0, 83, 63
1, 830033, Note_off_c, 0, 78, 63
1, 830036, Note_on_c, 0, 75, 78
1, 830086, Note_off_c, 0, 75, 65
1, 830106, Note_on_c, 0, 70, 75
1, 830111, Note_on_c, 0, 57, 93
1, 830116, Note_on_c, 0, 45, 81
1, 830137, Note_off_c, 0, 70, 63
1, 830152, Note_off_c, 0, 45, 63
1, 830153, Note_off_c, 0, 57, 65
1, 830199, Note_on_c, 0, 71, 73
1, 830232, Poly_aftertouch_c, 0, 70, 127
1, 830260, Note_off_c, 0, 71, 61
1, 830263, Note_on_c, 0, 59, 89
1, 830266, Note_on_c, 0, 66, 80
1, 830266, Poly_aftertouch_c, 0, 70, 0
1, 830269, Note_on_c, 0, 47, 85
1, 830296, Note_off_c, 0, 59, 62
1, 830305, Note_off_c, 0, 47, 50
1, 830312, Note_off_c, 0, 66, 65
1, 830347, Note_on_c, 0, 63, 78
1, 830394, Note_off_c, 0, 63, 64
1, 830424, Note_on_c, 0, 55, 99
1, 830429, Note_on_c, 0, 43, 96
1, 830432, Control_c, 0, 64, 75
1, 830447, Control_c, 0, 64, 50
1, 830462, Control_c, 0, 64, 0
1, 830477, Control_c, 0, 64, 38
1, 830491, Control_c, 0, 64, 60
1, 830496, Note_on_c, 0, 76, 83
1, 830499, Note_on_c, 0, 64, 87
1, 830506, Control_c, 0, 64, 76
1, 830521, Control_c, 0, 64, 127
1, 830534, Note_off_c, 0, 55, 57
1, 830536, Note_on_c, 0, 46, 30
1, 830536, Note_off_c, 0, 43, 59
1, 830574, Note_off_c, 0, 46, 48
1, 830588, Note_on_c, 0, 71, 80
1, 830594, Note_off_c, 0, 64, 64
1, 830676, Note_off_c, 0, 71, 62
1, 830678, Note_on_c, 0, 64, 83
1, 830734, Note_off_c, 0, 64, 59
1, 830739, Note_on_c, 0, 54, 98
1, 830750, Note_on_c, 0, 42, 90
1, 830804, Note_off_c, 0, 54, 59
1, 830819, Note_on_c, 0, 71, 86
1, 830830, Note_off_c, 0, 42, 58
1, 830894, Note_on_c, 0, 69, 85
1, 830925, Note_off_c, 0, 71, 59
1, 830980, Note_off_c, 0, 69, 63
1, 830982, Note_on_c, 0, 64, 86
1, 831038, Note_off_c, 0, 64, 62
1, 831048, Control_c, 0, 64, 104
1, 831051, Note_on_c, 0, 52, 102
1, 831058, Note_on_c, 0, 40, 94
1, 831063, Control_c, 0, 64, 67
1, 831078, Control_c, 0, 64, 36
1, 831093, Control_c, 0, 64, 0
1, 831108, Control_c, 0, 64, 37
1, 831122, Control_c, 0, 64, 60
1, 831126, Note_on_c, 0, 71, 80
1, 831137, Control_c, 0, 64, 74
1, 831152, Control_c, 0, 64, 103
1, 831166, Control_c, 0, 64, 127
1, 831175, Note_off_c, 0, 52, 57
1, 831202, Note_off_c, 0, 40, 59
1, 831214, Note_on_c, 0, 67, 79
1, 831262, Note_off_c, 0, 71, 63
1, 831264, Note_off_c, 0, 76, 63
1, 831281, Note_off_c, 0, 67, 64
1, 831283, Note_on_c, 0, 64, 83
1, 831330, Control_c, 0, 64, 83
1, 831345, Control_c, 0, 64, 61
1, 831348, Note_off_c, 0, 64, 60
1, 831354, Note_on_c, 0, 50, 100
1, 831357, Note_on_c, 0, 38, 90
1, 831359, Control_c, 0, 64, 55
1, 831374, Control_c, 0, 64, 64
1, 831389, Control_c, 0, 64, 80
1, 831404, Control_c, 0, 64, 127
1, 831427, Note_off_c, 0, 50, 61
1, 831429, Note_off_c, 0, 38, 60
1, 831432, Note_on_c, 0, 77, 87
1, 831443, Note_on_c, 0, 71, 66
1, 831451, Note_on_c, 0, 72, 66
1, 831480, Note_off_c, 0, 72, 55
1, 831515, Note_on_c, 0, 65, 88
1, 831521, Note_on_c, 0, 52, 84
1, 831526, Note_on_c, 0, 40, 81
1, 831557, Note_off_c, 0, 52, 60
1, 831592, Note_off_c, 0, 40, 60
1, 831595, Note_on_c, 0, 68, 81
1, 831623, Note_off_c, 0, 71, 60
1, 831629, Note_off_c, 0, 65, 59
1, 831660, Note_off_c, 0, 77, 60
1, 831666, Note_off_c, 0, 68, 62
1, 831700, Note_on_c, 0, 48, 102
1, 831717, Note_on_c, 0, 36, 85
1, 831738, Control_c, 0, 64, 73
1, 831739, Note_on_c, 0, 38, 60
1, 831752, Control_c, 0, 64, 50
1, 831764, Note_off_c, 0, 38, 58
1, 831767, Control_c, 0, 64, 0
1, 831777, Note_on_c, 0, 77, 86
1, 831781, Note_on_c, 0, 72, 79
1, 831796, Control_c, 0, 64, 48
1, 831811, Control_c, 0, 64, 67
1, 831826, Control_c, 0, 64, 85
1, 831841, Control_c, 0, 64, 127
1, 831859, Note_off_c, 0, 48, 57
1, 831870, Note_off_c, 0, 36, 61
1, 831876, Note_on_c, 0, 65, 75
1, 831933, Note_on_c, 0, 69, 64
1, 831950, Note_off_c, 0, 72, 58
1, 831963, Note_off_c, 0, 77, 60
1, 831978, Note_off_c, 0, 65, 59
1, 831986, Note_on_c, 0, 35, 80
1, 831997, Note_off_c, 0, 69, 62
1, 832126, Note_on_c, 0, 74, 101
1, 832131, Note_on_c, 0, 47, 99
1, 832133, Note_on_c, 0, 62, 104
1, 832137, Control_c, 0, 64, 79
1, 832152, Control_c, 0, 64, 54
1, 832167, Control_c, 0, 64, 0
1, 832196, Control_c, 0, 64, 50
1, 832211, Control_c, 0, 64, 70
1, 832226, Control_c, 0, 64, 94
1, 832241, Control_c, 0, 64, 127
1, 832278, Note_off_c, 0, 62, 58
1, 832290, Note_off_c, 0, 47, 61
1, 832314, Note_off_c, 0, 35, 57
1, 832318, Note_on_c, 0, 76, 73
1, 832347, Note_off_c, 0, 74, 59
1, 832420, Note_on_c, 0, 64, 81
1, 832524, Note_off_c, 0, 64, 62
1, 832526, Note_on_c, 0, 68, 76
1, 832531, Note_on_c, 0, 34, 75
1, 832551, Note_off_c, 0, 76, 42
1, 832576, Note_off_c, 0, 68, 62
1, 832667, Note_on_c, 0, 74, 100
1, 832676, Note_on_c, 0, 62, 94
1, 832679, Control_c, 0, 64, 105
1, 832683, Note_on_c, 0, 46, 92
1, 832693, Control_c, 0, 64, 66
1, 832707, Note_on_c, 0, 64, 45
1, 832707, Note_off_c, 0, 64, 127
1, 832708, Control_c, 0, 64, 27
1, 832723, Control_c, 0, 64, 0
1, 832737, Control_c, 0, 64, 27
1, 832752, Control_c, 0, 64, 52
1, 832767, Control_c, 0, 64, 66
1, 832773, Note_off_c, 0, 62, 57
1, 832782, Control_c, 0, 64, 79
1, 832797, Control_c, 0, 64, 101
1, 832812, Control_c, 0, 64, 127
1, 832812, Control_c, 0, 67, 59
1, 832827, Control_c, 0, 67, 92
1, 832842, Control_c, 0, 67, 127
1, 832851, Note_on_c, 0, 76, 64
1, 832881, Note_off_c, 0, 74, 53
1, 832895, Note_off_c, 0, 46, 60
1, 832895, Note_off_c, 0, 34, 61
1, 832915, Note_off_c, 0, 76, 61
1, 832919, Note_on_c, 0, 64, 53
1, 832965, Note_off_c, 0, 64, 64
1, 832997, Note_on_c, 0, 67, 56
1, 833024, Note_off_c, 0, 67, 64
1, 833082, Note_on_c, 0, 54, 79
1, 833083, Note_on_c, 0, 61, 85
1, 833083, Note_on_c, 0, 73, 76
1, 833089, Note_on_c, 0, 42, 68
1, 833103, Note_off_c, 0, 61, 71
1, 833105, Note_off_c, 0, 73, 70
1, 833115, Note_off_c, 0, 54, 57
1, 833122, Note_off_c, 0, 42, 64
1, 833155, Poly_aftertouch_c, 0, 70, 127
1, 833176, Note_on_c, 0, 58, 83
1, 833210, Poly_aftertouch_c, 0, 70, 0
1, 833232, Note_off_c, 0, 58, 58
1, 833242, Note_on_c, 0, 61, 56
1, 833271, Note_on_c, 0, 55, 61
1, 833280, Note_on_c, 0, 43, 59
1, 833301, Note_off_c, 0, 55, 63
1, 833307, Note_off_c, 0, 61, 64
1, 833320, Note_on_c, 0, 64, 70
1, 833336, Note_off_c, 0, 43, 58
1, 833350, Note_off_c, 0, 64, 66
1, 833411, Note_on_c, 0, 67, 86
1, 833414, Note_on_c, 0, 52, 85
1, 833421, Note_on_c, 0, 40, 81
1, 833428, Control_c, 0, 64, 75
1, 833442, Control_c, 0, 64, 58
1, 833457, Control_c, 0, 64, 57
1, 833472, Control_c, 0, 64, 64
1, 833487, Control_c, 0, 64, 75
1, 833489, Note_on_c, 0, 70, 83
1, 833502, Control_c, 0, 64, 97
1, 833509, Note_off_c, 0, 67, 58
1, 833516, Control_c, 0, 64, 127
1, 833540, Note_off_c, 0, 52, 59
1, 833560, Control_c, 0, 67, 116
1, 833566, Note_off_c, 0, 40, 60
1, 833566, Note_off_c, 0, 70, 65
1, 833573, Note_on_c, 0, 73, 62
1, 833575, Control_c, 0, 67, 96
1, 833590, Control_c, 0, 67, 71
1, 833605, Control_c, 0, 67, 44
1, 833620, Control_c, 0, 67, 0
1, 833632, Note_on_c, 0, 79, 76
1, 833645, Note_off_c, 0, 73, 64
1, 833684, Note_off_c, 0, 79, 64
1, 833692, Note_on_c, 0, 38, 72
1, 833754, Note_on_c, 0, 78, 95
1, 833754, Control_c, 0, 64, 75
1, 833759, Note_on_c, 0, 66, 98
1, 833769, Note_on_c, 0, 50, 82
1, 833769, Control_c, 0, 64, 53
1, 833784, Control_c, 0, 64, 44
1, 833799, Control_c, 0, 64, 56
1, 833813, Control_c, 0, 64, 68
1, 833828, Control_c, 0, 64, 95
1, 833843, Control_c, 0, 64, 127
1, 833857, Note_off_c, 0, 66, 62
1, 833877, Note_off_c, 0, 50, 62
1, 833901, Note_off_c, 0, 38, 59
1, 833912, Note_on_c, 0, 79, 70
1, 833930, Note_off_c, 0, 78, 50
1, 834007, Note_off_c, 0, 79, 39
1, 834017, Note_on_c, 0, 67, 69
1, 834076, Note_on_c, 0, 37, 64
1, 834088, Note_off_c, 0, 67, 61
1, 834101, Note_on_c, 0, 71, 67
1, 834149, Note_off_c, 0, 71, 60
1, 834222, Control_c, 0, 64, 91
1, 834237, Note_on_c, 0, 78, 98
1, 834237, Control_c, 0, 64, 62
1, 834237, Control_c, 0, 67, 73
1, 834243, Note_on_c, 0, 66, 91
1, 834248, Note_on_c, 0, 49, 83
1, 834252, Control_c, 0, 64, 47
1, 834252, Control_c, 0, 67, 125
1, 834266, Control_c, 0, 64, 59
1, 834266, Control_c, 0, 67, 127
1, 834281, Control_c, 0, 64, 70
1, 834296, Control_c, 0, 64, 97
1, 834300, Note_off_c, 0, 66, 60
1, 834309, Note_off_c, 0, 78, 58
1, 834311, Control_c, 0, 64, 127
1, 834332, Note_off_c, 0, 37, 59
1, 834339, Note_off_c, 0, 49, 62
1, 834377, Note_on_c, 0, 79, 77
1, 834451, Note_off_c, 0, 79, 50
1, 834465, Note_on_c, 0, 67, 74
1, 834526, Note_off_c, 0, 67, 60
1, 834541, Note_on_c, 0, 70, 66
1, 834566, Note_off_c, 0, 70, 69
1, 834642, Note_on_c, 0, 76, 84
1, 834647, Note_on_c, 0, 46, 59
1, 834648, Note_on_c, 0, 58, 70
1, 834648, Note_on_c, 0, 64, 74
1, 834659, Note_off_c, 0, 76, 71
1, 834672, Note_off_c, 0, 58, 66
1, 834673, Note_off_c, 0, 64, 69
1, 834676, Note_off_c, 0, 46, 64
1, 834743, Note_on_c, 0, 61, 87
1, 834796, Note_off_c, 0, 61, 62
1, 834808, Note_on_c, 0, 64, 63
1, 834818, Note_on_c, 0, 59, 67
1, 834826, Note_on_c, 0, 47, 67
1, 834846, Note_off_c, 0, 59, 64
1, 834868, Note_off_c, 0, 64, 64
1, 834877, Note_on_c, 0, 67, 74
1, 834878, Note_off_c, 0, 47, 60
1, 834904, Note_off_c, 0, 67, 66
1, 834955, Control_c, 0, 64, 103
1, 834970, Note_on_c, 0, 55, 77
1, 834970, Control_c, 0, 64, 69
1, 834973, Note_on_c, 0, 70, 94
1, 834980, Note_on_c, 0, 43, 65
1, 834985, Control_c, 0, 64, 57
1, 835000, Control_c, 0, 64, 58
1, 835015, Control_c, 0, 64, 63
1, 835030, Control_c, 0, 64, 70
1, 835045, Control_c, 0, 64, 85
1, 835045, Note_on_c, 0, 73, 79
1, 835059, Control_c, 0, 64, 127
1, 835068, Note_off_c, 0, 55, 60
1, 835096, Note_off_c, 0, 43, 58
1, 835125, Note_on_c, 0, 76, 71
1, 835157, Note_off_c, 0, 73, 61
1, 835205, Note_off_c, 0, 70, 56
1, 835210, Note_on_c, 0, 82, 76
1, 835216, Note_off_c, 0, 76, 63
1, 835249, Note_off_c, 0, 82, 63
1, 835253, Note_on_c, 0, 42, 66
1, 835296, Control_c, 0, 64, 80
1, 835311, Control_c, 0, 64, 57
1, 835325, Note_on_c, 0, 69, 93
1, 835325, Note_on_c, 0, 81, 84
1, 835325, Control_c, 0, 64, 41
1, 835340, Control_c, 0, 64, 46
1, 835344, Note_on_c, 0, 54, 70
1, 835355, Control_c, 0, 64, 58
1, 835370, Control_c, 0, 64, 69
1, 835385, Control_c, 0, 64, 85
1, 835399, Control_c, 0, 64, 127
1, 835433, Note_off_c, 0, 69, 60
1, 835482, Note_off_c, 0, 54, 57
1, 835494, Note_off_c, 0, 81, 58
1, 835504, Note_on_c, 0, 83, 63
1, 835513, Note_off_c, 0, 42, 57
1, 835597, Note_on_c, 0, 71, 62
1, 835646, Note_on_c, 0, 41, 51
1, 835697, Note_on_c, 0, 75, 59
1, 835700, Note_off_c, 0, 83, 34
1, 835701, Note_off_c, 0, 71, 54
1, 835760, Note_off_c, 0, 75, 58
1, 835823, Control_c, 0, 64, 98
1, 835837, Control_c, 0, 64, 69
1, 835846, Note_on_c, 0, 81, 78
1, 835852, Control_c, 0, 64, 49
1, 835859, Note_on_c, 0, 69, 75
1, 835865, Note_on_c, 0, 53, 61
1, 835867, Control_c, 0, 64, 38
1, 835882, Control_c, 0, 64, 50
1, 835897, Control_c, 0, 64, 63
1, 835912, Control_c, 0, 64, 76
1, 835927, Control_c, 0, 64, 105
1, 835942, Control_c, 0, 64, 127
1, 835948, Note_off_c, 0, 41, 60
1, 835978, Note_off_c, 0, 69, 53
1, 835995, Note_off_c, 0, 53, 61
1, 836042, Note_off_c, 0, 81, 54
1, 836061, Note_on_c, 0, 83, 49
1, 836150, Note_on_c, 0, 71, 48
1, 836150, Note_off_c, 0, 83, 55
1, 836228, Note_on_c, 0, 53, 44
1, 836251, Note_off_c, 0, 71, 56
1, 836277, Note_on_c, 0, 74, 55
1, 836340, Note_off_c, 0, 74, 55
1, 836348, Control_c, 0, 64, 87
1, 836362, Control_c, 0, 64, 67
1, 836377, Control_c, 0, 64, 61
1, 836392, Control_c, 0, 64, 66
1, 836401, Note_on_c, 0, 80, 70
1, 836402, Note_on_c, 0, 62, 52
1, 836404, Note_on_c, 0, 68, 65
1, 836407, Control_c, 0, 64, 74
1, 836422, Control_c, 0, 64, 93
1, 836429, Note_off_c, 0, 68, 69
1, 836437, Control_c, 0, 64, 127
1, 836454, Note_off_c, 0, 80, 59
1, 836504, Note_off_c, 0, 62, 60
1, 836580, Note_on_c, 0, 83, 67
1, 836589, Note_off_c, 0, 53, 60
1, 836658, Note_off_c, 0, 83, 57
1, 836682, Note_on_c, 0, 95, 51
1, 836763, Note_on_c, 0, 92, 58
1, 836765, Note_off_c, 0, 95, 58
1, 836860, Note_on_c, 0, 68, 84
1, 836869, Note_off_c, 0, 92, 62
1, 836872, Note_on_c, 0, 59, 64
1, 836882, Note_on_c, 0, 61, 59
1, 836884, Note_on_c, 0, 89, 51
1, 836930, Note_off_c, 0, 89, 61
1, 836931, Note_off_c, 0, 61, 52
1, 836965, Note_on_c, 0, 85, 54
1, 836973, Note_off_c, 0, 68, 58
1, 836979, Note_off_c, 0, 59, 58
1, 836997, Note_off_c, 0, 85, 66
1, 837042, Note_on_c, 0, 83, 59
1, 837075, Note_off_c, 0, 83, 56
1, 837117, Note_on_c, 0, 80, 62
1, 837194, Note_off_c, 0, 80, 58
1, 837203, Note_on_c, 0, 78, 57
1, 837211, Note_on_c, 0, 66, 93
1, 837223, Note_on_c, 0, 54, 65
1, 837226, Note_on_c, 0, 62, 66
1, 837230, Note_on_c, 0, 58, 69
1, 837244, Note_off_c, 0, 78, 60
1, 837250, Note_off_c, 0, 62, 66
1, 837255, Note_off_c, 0, 66, 63
1, 837262, Note_off_c, 0, 58, 66
1, 837281, Note_on_c, 0, 74, 61
1, 837281, Note_off_c, 0, 54, 62
1, 837316, Note_off_c, 0, 74, 59
1, 837369, Note_on_c, 0, 74, 20
1, 837407, Note_on_c, 0, 49, 68
1, 837429, Note_on_c, 0, 72, 60
1, 837432, Note_off_c, 0, 74, 56
1, 837454, Control_c, 0, 64, 93
1, 837469, Control_c, 0, 64, 61
1, 837483, Control_c, 0, 64, 0
1, 837485, Note_on_c, 0, 56, 71
1, 837498, Control_c, 0, 64, 28
1, 837505, Note_on_c, 0, 71, 59
1, 837513, Control_c, 0, 64, 49
1, 837519, Note_off_c, 0, 72, 61
1, 837523, Note_off_c, 0, 49, 63
1, 837527, Control_c, 0, 64, 65
1, 837534, Note_on_c, 0, 65, 81
1, 837537, Note_off_c, 0, 71, 65
1, 837542, Control_c, 0, 64, 84
1, 837544, Note_on_c, 0, 63, 85
1, 837554, Note_off_c, 0, 65, 71
1, 837557, Control_c, 0, 64, 127
1, 837560, Note_off_c, 0, 56, 64
1, 837571, Note_off_c, 0, 63, 64
1, 837692, Note_on_c, 0, 87, 72
1, 837725, Note_off_c, 0, 87, 63
1, 837733, Note_on_c, 0, 53, 66
1, 837768, Note_on_c, 0, 97, 47
1, 837799, Note_off_c, 0, 53, 62
1, 837799, Note_off_c, 0, 97, 48
1, 837802, Note_on_c, 0, 61, 71
1, 837804, Note_on_c, 0, 98, 20
1, 837818, Note_on_c, 0, 94, 48
1, 837843, Note_off_c, 0, 98, 40
1, 837844, Note_off_c, 0, 94, 47
1, 837877, Note_on_c, 0, 92, 68
1, 837889, Note_on_c, 0, 68, 96
1, 837921, Note_off_c, 0, 61, 58
1, 837936, Note_off_c, 0, 92, 66
1, 837967, Note_on_c, 0, 89, 59
1, 837976, Note_off_c, 0, 68, 53
1, 838004, Note_off_c, 0, 89, 63
1, 838024, Note_on_c, 0, 87, 55
1, 838052, Note_off_c, 0, 87, 68
1, 838110, Note_on_c, 0, 56, 66
1, 838115, Note_on_c, 0, 83, 72
1, 838237, Note_on_c, 0, 75, 95
1, 838239, Note_on_c, 0, 65, 79
1, 838246, Control_c, 0, 64, 84
1, 838261, Control_c, 0, 64, 65
1, 838270, Note_off_c, 0, 83, 32
1, 838274, Note_on_c, 0, 74, 48
1, 838276, Control_c, 0, 64, 55
1, 838291, Control_c, 0, 64, 58
1, 838298, Note_off_c, 0, 74, 37
1, 838305, Control_c, 0, 64, 65
1, 838320, Control_c, 0, 64, 78
1, 838335, Control_c, 0, 64, 108
1, 838349, Control_c, 0, 64, 127
1, 838372, Note_on_c, 0, 80, 57
1, 838395, Note_off_c, 0, 65, 57
1, 838403, Note_off_c, 0, 56, 56
1, 838407, Note_off_c, 0, 75, 56
1, 838461, Note_off_c, 0, 80, 55
1, 838465, Note_on_c, 0, 83, 68
1, 838529, Note_on_c, 0, 77, 67
1, 838534, Note_off_c, 0, 83, 55
1, 838537, Note_on_c, 0, 57, 51
1, 838594, Control_c, 0, 64, 111
1, 838598, Note_off_c, 0, 77, 63
1, 838602, Note_on_c, 0, 74, 86
1, 838609, Control_c, 0, 64, 75
1, 838623, Control_c, 0, 64, 59
1, 838638, Control_c, 0, 64, 57
1, 838641, Note_on_c, 0, 66, 73
1, 838653, Control_c, 0, 64, 63
1, 838668, Control_c, 0, 64, 70
1, 838682, Control_c, 0, 64, 84
1, 838688, Note_off_c, 0, 74, 61
1, 838697, Control_c, 0, 64, 109
1, 838699, Note_off_c, 0, 66, 64
1, 838704, Note_on_c, 0, 77, 64
1, 838712, Control_c, 0, 64, 127
1, 838750, Note_off_c, 0, 57, 63
1, 838771, Note_off_c, 0, 77, 62
1, 838797, Note_on_c, 0, 80, 56
1, 838857, Note_off_c, 0, 80, 62
1, 838864, Note_on_c, 0, 78, 63
1, 838920, Control_c, 0, 64, 95
1, 838935, Control_c, 0, 64, 64
1, 838939, Note_on_c, 0, 58, 46
1, 838939, Note_on_c, 0, 73, 78
1, 838941, Note_off_c, 0, 78, 62
1, 838950, Control_c, 0, 64, 47
1, 838965, Control_c, 0, 64, 47
1, 838973, Note_off_c, 0, 58, 49
1, 838979, Control_c, 0, 64, 56
1, 838994, Control_c, 0, 64, 65
1, 839009, Control_c, 0, 64, 74
1, 839024, Control_c, 0, 64, 90
1, 839039, Control_c, 0, 64, 121
1, 839045, Note_on_c, 0, 67, 58
1, 839054, Control_c, 0, 64, 127
1, 839071, Note_off_c, 0, 67, 64
1, 839113, Note_on_c, 0, 49, 57
1, 839176, Note_on_c, 0, 67, 61
1, 839209, Control_c, 0, 64, 110
1, 839224, Note_off_c, 0, 49, 49
1, 839224, Control_c, 0, 64, 72
1, 839233, Note_off_c, 0, 67, 61
1, 839239, Control_c, 0, 64, 54
1, 839254, Control_c, 0, 64, 51
1, 839254, Note_off_c, 0, 73, 58
1, 839257, Note_on_c, 0, 77, 78
1, 839264, Note_on_c, 0, 59, 63
1, 839268, Control_c, 0, 64, 57
1, 839283, Control_c, 0, 64, 65
1, 839298, Control_c, 0, 64, 78
1, 839312, Note_off_c, 0, 59, 53
1, 839313, Control_c, 0, 64, 127
1, 839344, Note_on_c, 0, 68, 73
1, 839370, Note_off_c, 0, 68, 64
1, 839392, Note_off_c, 0, 77, 56
1, 839422, Note_on_c, 0, 49, 56
1, 839483, Note_on_c, 0, 68, 63
1, 839520, Control_c, 0, 64, 97
1, 839526, Note_off_c, 0, 49, 51
1, 839535, Control_c, 0, 64, 66
1, 839539, Note_off_c, 0, 68, 61
1, 839550, Control_c, 0, 64, 42
1, 839565, Note_on_c, 0, 80, 76
1, 839565, Control_c, 0, 64, 40
1, 839579, Control_c, 0, 64, 53
1, 839590, Note_on_c, 0, 62, 56
1, 839594, Control_c, 0, 64, 66
1, 839609, Control_c, 0, 64, 81
1, 839624, Control_c, 0, 64, 121
1, 839637, Note_off_c, 0, 62, 56
1, 839639, Control_c, 0, 64, 127
1, 839660, Note_on_c, 0, 77, 59
1, 839676, Note_on_c, 0, 71, 56
1, 839697, Note_off_c, 0, 77, 59
1, 839708, Note_off_c, 0, 71, 63
1, 839750, Note_on_c, 0, 49, 53
1, 839808, Note_on_c, 0, 71, 53
1, 839816, Note_on_c, 0, 77, 50
1, 839830, Note_off_c, 0, 49, 48
1, 839832, Control_c, 0, 64, 91
1, 839841, Note_off_c, 0, 71, 61
1, 839847, Control_c, 0, 64, 64
1, 839855, Note_off_c, 0, 77, 61
1, 839862, Control_c, 0, 64, 43
1, 839877, Control_c, 0, 64, 48
1, 839878, Note_off_c, 0, 80, 35
1, 839889, Note_on_c, 0, 81, 80
1, 839891, Control_c, 0, 64, 61
1, 839906, Control_c, 0, 64, 75
1, 839912, Note_on_c, 0, 61, 57
1, 839921, Control_c, 0, 64, 110
1, 839936, Control_c, 0, 64, 127
1, 840002, Note_off_c, 0, 61, 60
1, 840008, Note_on_c, 0, 71, 53
1, 840008, Note_on_c, 0, 77, 50
1, 840043, Note_off_c, 0, 71, 63
1, 840049, Note_off_c, 0, 81, 33
1, 840072, Note_off_c, 0, 77, 56
1, 840074, Note_on_c, 0, 49, 46
1, 840103, Note_off_c, 0, 49, 55
1, 840132, Note_on_c, 0, 71, 56
1, 840132, Note_on_c, 0, 77, 40
1, 840151, Note_off_c, 0, 71, 64
1, 840181, Control_c, 0, 64, 78
1, 840196, Control_c, 0, 64, 55
1, 840196, Note_off_c, 0, 77, 61
1, 840210, Control_c, 0, 64, 0
1, 840240, Control_c, 0, 64, 28
1, 840254, Control_c, 0, 64, 48
1, 840258, Note_on_c, 0, 30, 56
1, 840261, Note_on_c, 0, 42, 53
1, 840264, Note_on_c, 0, 82, 56
1, 840269, Control_c, 0, 64, 68
1, 840277, Note_on_c, 0, 76, 48
1, 840284, Control_c, 0, 64, 85
1, 840286, Note_on_c, 0, 70, 58
1, 840299, Control_c, 0, 64, 127
1, 840312, Note_off_c, 0, 30, 61
1, 840326, Note_off_c, 0, 42, 60
1, 840336, Note_off_c, 0, 70, 62
1, 840351, Note_off_c, 0, 82, 60
1, 840362, Note_off_c, 0, 76, 63
1, 840580, Note_on_c, 0, 46, 68
1, 840590, Note_on_c, 0, 54, 73
1, 840669, Note_on_c, 0, 76, 59
1, 840708, Control_c, 0, 67, 102
1, 840718, Note_off_c, 0, 46, 58
1, 840723, Control_c, 0, 67, 72
1, 840738, Control_c, 0, 67, 42
1, 840741, Note_off_c, 0, 76, 40
1, 840748, Note_on_c, 0, 88, 68
1, 840752, Control_c, 0, 67, 0
1, 840816, Note_off_c, 0, 88, 63
1, 840824, Note_on_c, 0, 85, 65
1, 840883, Note_off_c, 0, 54, 61
1, 840894, Note_off_c, 0, 85, 63
1, 840896, Note_on_c, 0, 82, 58
1, 840898, Note_on_c, 0, 61, 95
1, 840907, Note_on_c, 0, 52, 67
1, 840947, Note_off_c, 0, 82, 63
1, 840970, Note_on_c, 0, 78, 54
1, 841010, Note_off_c, 0, 52, 56
1, 841017, Note_off_c, 0, 61, 59
1, 841018, Note_off_c, 0, 78, 59
1, 841057, Note_on_c, 0, 76, 55
1, 841085, Note_off_c, 0, 76, 63
1, 841093, Control_c, 0, 67, 34
1, 841108, Control_c, 0, 67, 53
1, 841123, Control_c, 0, 67, 72
1, 841138, Control_c, 0, 67, 91
1, 841142, Note_on_c, 0, 73, 52
1, 841152, Control_c, 0, 67, 111
1, 841167, Control_c, 0, 67, 127
1, 841200, Note_off_c, 0, 73, 40
1, 841212, Control_c, 0, 64, 80
1, 841215, Note_on_c, 0, 59, 90
1, 841218, Note_on_c, 0, 71, 59
1, 841226, Control_c, 0, 64, 61
1, 841229, Note_on_c, 0, 47, 72
1, 841232, Note_on_c, 0, 55, 69
1, 841241, Control_c, 0, 64, 57
1, 841256, Control_c, 0, 64, 66
1, 841267, Note_off_c, 0, 71, 62
1, 841272, Control_c, 0, 64, 80
1, 841281, Note_off_c, 0, 55, 61
1, 841284, Note_off_c, 0, 59, 59
1, 841287, Control_c, 0, 64, 127
1, 841313, Note_off_c, 0, 47, 63
1, 841315, Note_on_c, 0, 67, 57
1, 841358, Note_off_c, 0, 67, 59
1, 841404, Note_on_c, 0, 66, 63
1, 841446, Note_on_c, 0, 42, 74
1, 841471, Note_off_c, 0, 66, 64
1, 841486, Note_on_c, 0, 65, 61
1, 841501, Control_c, 0, 64, 78
1, 841510, Note_on_c, 0, 49, 60
1, 841516, Control_c, 0, 64, 54
1, 841531, Control_c, 0, 64, 31
1, 841543, Note_off_c, 0, 42, 59
1, 841546, Control_c, 0, 64, 36
1, 841558, Note_off_c, 0, 65, 59
1, 841561, Control_c, 0, 64, 53
1, 841575, Control_c, 0, 64, 70
1, 841578, Note_on_c, 0, 58, 84
1, 841590, Control_c, 0, 64, 99
1, 841598, Note_on_c, 0, 56, 73
1, 841604, Note_off_c, 0, 58, 67
1, 841605, Note_off_c, 0, 49, 63
1, 841605, Control_c, 0, 64, 127
1, 841635, Note_on_c, 0, 64, 5
1, 841641, Note_off_c, 0, 56, 53
1, 841674, Note_off_c, 0, 64, 45
1, 841765, Note_on_c, 0, 80, 64
1, 841782, Note_on_c, 0, 46, 60
1, 841790, Note_off_c, 0, 80, 68
1, 841833, Note_on_c, 0, 92, 64
1, 841867, Note_on_c, 0, 54, 61
1, 841875, Note_off_c, 0, 46, 60
1, 841909, Note_off_c, 0, 92, 64
1, 841933, Note_on_c, 0, 88, 56
1, 841972, Note_on_c, 0, 61, 89
1, 841987, Note_off_c, 0, 88, 57
1, 841987, Note_on_c, 0, 85, 56
1, 842062, Note_off_c, 0, 85, 63
1, 842073, Note_on_c, 0, 82, 55
1, 842092, Note_off_c, 0, 61, 56
1, 842132, Note_off_c, 0, 82, 63
1, 842142, Note_off_c, 0, 54, 26
1, 842165, Note_on_c, 0, 80, 46
1, 842194, Note_off_c, 0, 80, 59
1, 842236, Note_on_c, 0, 49, 56
1, 842268, Note_on_c, 0, 76, 60
1, 842446, Note_on_c, 0, 58, 61
1, 842506, Note_on_c, 0, 68, 84
1, 842515, Control_c, 0, 64, 83
1, 842530, Note_off_c, 0, 76, 54
1, 842530, Control_c, 0, 64, 64
1, 842545, Control_c, 0, 64, 50
1, 842560, Control_c, 0, 64, 42
1, 842575, Control_c, 0, 64, 44
1, 842589, Control_c, 0, 64, 52
1, 842604, Control_c, 0, 64, 61
1, 842619, Control_c, 0, 64, 69
1, 842634, Control_c, 0, 64, 78
1, 842649, Control_c, 0, 64, 88
1, 842664, Control_c, 0, 64, 95
1, 842679, Control_c, 0, 64, 102
1, 842694, Control_c, 0, 64, 109
1, 842698, Note_on_c, 0, 73, 49
1, 842708, Control_c, 0, 64, 127
1, 842714, Note_off_c, 0, 49, 53
1, 842790, Note_off_c, 0, 73, 44
1, 842792, Note_off_c, 0, 68, 52
1, 842805, Note_on_c, 0, 76, 56
1, 842822, Note_off_c, 0, 58, 32
1, 842868, Note_on_c, 0, 50, 43
1, 842895, Note_on_c, 0, 70, 53
1, 842963, Note_off_c, 0, 76, 40
1, 842985, Note_on_c, 0, 67, 72
1, 842986, Note_off_c, 0, 70, 62
1, 842998, Control_c, 0, 64, 101
1, 843013, Control_c, 0, 64, 74
1, 843027, Control_c, 0, 64, 56
1, 843039, Note_on_c, 0, 59, 44
1, 843042, Control_c, 0, 64, 50
1, 843057, Control_c, 0, 64, 53
1, 843072, Control_c, 0, 64, 60
1, 843087, Control_c, 0, 64, 66
1, 843102, Control_c, 0, 64, 74
1, 843117, Control_c, 0, 64, 85
1, 843125, Note_on_c, 0, 70, 55
1, 843125, Note_off_c, 0, 59, 61
1, 843132, Control_c, 0, 64, 97
1, 843146, Control_c, 0, 64, 105
1, 843161, Control_c, 0, 64, 112
1, 843176, Note_off_c, 0, 50, 60
1, 843176, Control_c, 0, 64, 117
1, 843191, Control_c, 0, 64, 127
1, 843213, Note_off_c, 0, 67, 38
1, 843257, Note_off_c, 0, 70, 54
1, 843259, Note_on_c, 0, 73, 45
1, 843337, Note_off_c, 0, 73, 51
1, 843343, Note_on_c, 0, 71, 51
1, 843450, Note_off_c, 0, 71, 54
1, 843503, Note_on_c, 0, 66, 68
1, 843527, Note_on_c, 0, 51, 40
1, 843532, Control_c, 0, 64, 92
1, 843546, Control_c, 0, 64, 72
1, 843561, Control_c, 0, 64, 59
1, 843576, Control_c, 0, 64, 48
1, 843591, Control_c, 0, 64, 47
1, 843606, Control_c, 0, 64, 51
1, 843621, Control_c, 0, 64, 59
1, 843636, Control_c, 0, 64, 66
1, 843650, Control_c, 0, 64, 72
1, 843666, Control_c, 0, 64, 81
1, 843668, Note_on_c, 0, 60, 34
1, 843674, Note_off_c, 0, 51, 0
1, 843681, Control_c, 0, 64, 90
1, 843703, Control_c, 0, 64, 99
1, 843707, Note_off_c, 0, 60, 53
1, 843718, Control_c, 0, 64, 113
1, 843728, Poly_aftertouch_c, 0, 51, 0
1, 843733, Control_c, 0, 64, 127
1, 843752, Note_on_c, 0, 42, 50
1, 843815, Note_on_c, 0, 60, 60
1, 843853, Note_off_c, 0, 42, 51
1, 843881, Control_c, 0, 64, 93
1, 843886, Note_off_c, 0, 60, 59
1, 843895, Control_c, 0, 64, 67
1, 843901, Note_off_c, 0, 66, 40
1, 843904, Note_on_c, 0, 52, 59
1, 843908, Note_on_c, 0, 70, 73
1, 843910, Control_c, 0, 64, 45
1, 843925, Control_c, 0, 64, 0
1, 843955, Control_c, 0, 64, 34
1, 843966, Note_off_c, 0, 52, 54
1, 843969, Control_c, 0, 64, 55
1, 843984, Control_c, 0, 64, 67
1, 843999, Control_c, 0, 64, 77
1, 844002, Note_on_c, 0, 61, 70
1, 844014, Control_c, 0, 64, 91
1, 844029, Control_c, 0, 64, 111
1, 844044, Note_off_c, 0, 61, 57
1, 844044, Control_c, 0, 64, 127
1, 844074, Note_on_c, 0, 42, 59
1, 844077, Note_off_c, 0, 70, 55
1, 844145, Note_off_c, 0, 42, 55
1, 844152, Note_on_c, 0, 61, 65
1, 844204, Note_off_c, 0, 61, 59
1, 844234, Note_on_c, 0, 73, 69
1, 844236, Control_c, 0, 64, 84
1, 844251, Control_c, 0, 64, 59
1, 844256, Note_on_c, 0, 55, 47
1, 844266, Control_c, 0, 64, 28
1, 844281, Control_c, 0, 64, 0
1, 844340, Note_on_c, 0, 70, 50
1, 844340, Control_c, 0, 64, 27
1, 844355, Control_c, 0, 64, 35
1, 844369, Control_c, 0, 64, 45
1, 844372, Note_on_c, 0, 64, 45
1, 844375, Note_off_c, 0, 55, 37
1, 844384, Control_c, 0, 64, 56
1, 844399, Control_c, 0, 64, 62
1, 844414, Control_c, 0, 64, 65
1, 844420, Note_off_c, 0, 64, 57
1, 844425, Note_off_c, 0, 70, 61
1, 844428, Control_c, 0, 64, 67
1, 844451, Control_c, 0, 64, 70
1, 844467, Control_c, 0, 64, 73
1, 844482, Control_c, 0, 64, 79
1, 844497, Control_c, 0, 64, 85
1, 844500, Note_on_c, 0, 42, 45
1, 844512, Control_c, 0, 64, 91
1, 844526, Control_c, 0, 64, 97
1, 844541, Control_c, 0, 64, 104
1, 844556, Control_c, 0, 64, 117
1, 844571, Control_c, 0, 64, 127
1, 844580, Note_off_c, 0, 73, 53
1, 844603, Note_on_c, 0, 64, 37
1, 844603, Note_on_c, 0, 70, 40
1, 844660, Note_off_c, 0, 64, 49
1, 844662, Note_off_c, 0, 42, 31
1, 844665, Note_off_c, 0, 70, 51
1, 844797, Note_on_c, 0, 54, 37
1, 844801, Note_on_c, 0, 73, 51
1, 844807, Control_c, 0, 64, 116
1, 844822, Control_c, 0, 64, 96
1, 844837, Control_c, 0, 64, 84
1, 844852, Control_c, 0, 64, 74
1, 844867, Control_c, 0, 64, 63
1, 844882, Control_c, 0, 64, 53
1, 844896, Control_c, 0, 64, 45
1, 844911, Control_c, 0, 64, 40
1, 844926, Control_c, 0, 64, 37
1, 844941, Control_c, 0, 64, 35
1, 844956, Control_c, 0, 64, 29
1, 844971, Control_c, 0, 64, 0
1, 845025, Note_on_c, 0, 64, 37
1, 845028, Note_on_c, 0, 70, 34
1, 845090, Note_off_c, 0, 54, 30
1, 845159, Note_off_c, 0, 64, 33
1, 845171, Note_off_c, 0, 70, 34
1, 845180, Note_on_c, 0, 42, 17
1, 845386, Note_off_c, 0, 42, 42
1, 845449, Note_on_c, 0, 70, 33
1, 845463, Note_on_c, 0, 64, 15
1, 845586, Control_c, 0, 64, 31
1, 845601, Control_c, 0, 64, 40
1, 845615, Control_c, 0, 64, 49
1, 845630, Control_c, 0, 64, 56
1, 845640, Note_off_c, 0, 64, 47
1, 845645, Control_c, 0, 64, 58
1, 845660, Control_c, 0, 64, 60
1, 845674, Control_c, 0, 64, 61
1, 845689, Control_c, 0, 64, 62
1, 845704, Control_c, 0, 64, 64
1, 845719, Control_c, 0, 64, 65
1, 845733, Note_off_c, 0, 70, 36
1, 845734, Control_c, 0, 64, 66
1, 845749, Control_c, 0, 64, 68
1, 845764, Control_c, 0, 64, 70
1, 845779, Control_c, 0, 64, 72
1, 845794, Control_c, 0, 64, 73
1, 845809, Control_c, 0, 64, 74
1, 845812, Note_off_c, 0, 73, 33
1, 845823, Control_c, 0, 64, 76
1, 845838, Control_c, 0, 64, 77
1, 845853, Control_c, 0, 64, 78
1, 845867, Control_c, 0, 64, 79
1, 845869, Note_on_c, 0, 42, 35
1, 845882, Control_c, 0, 64, 79
1, 845897, Control_c, 0, 64, 80
1, 846008, Control_c, 0, 64, 80
1, 846023, Control_c, 0, 64, 81
1, 846038, Control_c, 0, 64, 82
1, 846053, Control_c, 0, 64, 83
1, 846068, Control_c, 0, 64, 85
1, 846083, Control_c, 0, 64, 89
1, 846098, Control_c, 0, 64, 92
1, 846113, Control_c, 0, 64, 95
1, 846128, Control_c, 0, 64, 99
1, 846142, Control_c, 0, 64, 104
1, 846157, Control_c, 0, 64, 114
1, 846172, Control_c, 0, 64, 127
1, 846243, Note_on_c, 0, 54, 29
1, 846321, Note_off_c, 0, 42, 42
1, 846345, Note_on_c, 0, 73, 63
1, 846365, Note_on_c, 0, 69, 49
1, 846380, Note_on_c, 0, 63, 46
1, 846433, Note_off_c, 0, 63, 61
1, 846459, Note_off_c, 0, 69, 61
1, 846469, Note_off_c, 0, 54, 35
1, 846478, Note_off_c, 0, 73, 60
1, 846497, Note_on_c, 0, 42, 45
1, 846566, Note_off_c, 0, 42, 62
1, 846587, Control_c, 0, 67, 124
1, 846602, Control_c, 0, 67, 112
1, 846616, Control_c, 0, 67, 100
1, 846631, Control_c, 0, 67, 87
1, 846646, Control_c, 0, 67, 75
1, 846661, Note_on_c, 0, 41, 50
1, 846661, Control_c, 0, 67, 63
1, 846676, Control_c, 0, 67, 48
1, 846697, Control_c, 0, 67, 36
1, 846712, Control_c, 0, 67, 0
1, 846743, Note_on_c, 0, 73, 77
1, 846771, Control_c, 0, 64, 88
1, 846786, Control_c, 0, 64, 72
1, 846801, Control_c, 0, 64, 64
1, 846816, Control_c, 0, 64, 64
1, 846831, Control_c, 0, 64, 71
1, 846846, Control_c, 0, 64, 90
1, 846861, Control_c, 0, 64, 127
1, 846917, Note_off_c, 0, 41, 37
1, 846930, Note_on_c, 0, 53, 47
1, 847016, Note_on_c, 0, 71, 65
1, 847034, Note_off_c, 0, 73, 61
1, 847034, Note_on_c, 0, 67, 50
1, 847056, Note_on_c, 0, 62, 27
1, 847078, Note_off_c, 0, 53, 24
1, 847082, Note_off_c, 0, 67, 58
1, 847098, Note_off_c, 0, 71, 59
1, 847104, Note_off_c, 0, 62, 48
1, 847120, Note_on_c, 0, 41, 51
1, 847152, Note_off_c, 0, 41, 65
1, 847202, Control_c, 0, 64, 87
1, 847217, Control_c, 0, 64, 71
1, 847231, Control_c, 0, 64, 68
1, 847236, Note_on_c, 0, 40, 58
1, 847246, Control_c, 0, 64, 73
1, 847261, Control_c, 0, 64, 85
1, 847276, Control_c, 0, 64, 127
1, 847334, Note_off_c, 0, 40, 59
1, 847382, Note_on_c, 0, 52, 46
1, 847424, Note_on_c, 0, 70, 64
1, 847442, Note_on_c, 0, 61, 63
1, 847445, Note_on_c, 0, 66, 57
1, 847451, Note_off_c, 0, 52, 53
1, 847478, Note_off_c, 0, 61, 62
1, 847494, Note_on_c, 0, 40, 49
1, 847497, Note_off_c, 0, 66, 57
1, 847532, Note_off_c, 0, 40, 60
1, 847532, Note_off_c, 0, 70, 55
1, 847639, Note_on_c, 0, 39, 61
1, 847639, Control_c, 0, 64, 89
1, 847654, Control_c, 0, 64, 64
1, 847669, Control_c, 0, 64, 43
1, 847679, Note_on_c, 0, 70, 71
1, 847684, Control_c, 0, 64, 32
1, 847699, Control_c, 0, 64, 38
1, 847714, Control_c, 0, 64, 56
1, 847729, Control_c, 0, 64, 73
1, 847743, Control_c, 0, 64, 102
1, 847758, Control_c, 0, 64, 127
1, 847803, Note_on_c, 0, 51, 61
1, 847818, Note_off_c, 0, 39, 61
1, 847862, Note_off_c, 0, 51, 45
1, 847873, Note_on_c, 0, 71, 80
1, 847885, Note_on_c, 0, 66, 69
1, 847891, Note_on_c, 0, 59, 57
1, 847893, Note_off_c, 0, 70, 50
1, 847913, Note_off_c, 0, 59, 61
1, 847927, Note_off_c, 0, 66, 62
1, 847934, Note_on_c, 0, 39, 62
1, 847941, Note_off_c, 0, 71, 61
1, 847964, Note_off_c, 0, 39, 63
1, 848025, Control_c, 0, 64, 109
1, 848036, Note_on_c, 0, 44, 80
1, 848040, Control_c, 0, 64, 71
1, 848054, Control_c, 0, 64, 54
1, 848069, Control_c, 0, 64, 55
1, 848084, Control_c, 0, 64, 65
1, 848099, Control_c, 0, 64, 82
1, 848114, Control_c, 0, 64, 127
1, 848152, Note_on_c, 0, 56, 74
1, 848156, Note_off_c, 0, 44, 59
1, 848225, Note_on_c, 0, 75, 86
1, 848236, Note_on_c, 0, 71, 69
1, 848238, Note_on_c, 0, 65, 69
1, 848248, Note_off_c, 0, 56, 60
1, 848262, Note_off_c, 0, 65, 67
1, 848265, Note_off_c, 0, 71, 65
1, 848287, Note_on_c, 0, 44, 75
1, 848294, Note_off_c, 0, 75, 63
1, 848349, Note_off_c, 0, 44, 63
1, 848416, Note_on_c, 0, 43, 84
1, 848417, Control_c, 0, 64, 89
1, 848424, Note_on_c, 0, 75, 94
1, 848432, Control_c, 0, 64, 63
1, 848447, Control_c, 0, 64, 59
1, 848463, Control_c, 0, 64, 66
1, 848478, Control_c, 0, 64, 81
1, 848492, Control_c, 0, 64, 127
1, 848518, Note_off_c, 0, 43, 62
1, 848538, Note_on_c, 0, 55, 75
1, 848602, Note_on_c, 0, 73, 86
1, 848608, Note_off_c, 0, 75, 60
1, 848608, Note_on_c, 0, 64, 81
1, 848610, Note_off_c, 0, 55, 57
1, 848614, Note_on_c, 0, 69, 67
1, 848633, Note_off_c, 0, 64, 68
1, 848637, Note_off_c, 0, 69, 68
1, 848641, Note_on_c, 0, 43, 71
1, 848668, Note_off_c, 0, 73, 65
1, 848685, Note_off_c, 0, 43, 59
1, 848759, Note_on_c, 0, 42, 96
1, 848774, Control_c, 0, 64, 73
1, 848789, Control_c, 0, 64, 0
1, 848818, Control_c, 0, 64, 47
1, 848833, Control_c, 0, 64, 127
1, 848858, Note_off_c, 0, 42, 62
1, 848882, Note_on_c, 0, 54, 77
1, 848953, Note_on_c, 0, 72, 84
1, 848953, Note_on_c, 0, 63, 85
1, 848962, Note_off_c, 0, 54, 57
1, 848965, Note_on_c, 0, 68, 68
1, 848985, Note_off_c, 0, 63, 59
1, 848992, Note_off_c, 0, 68, 64
1, 849009, Note_on_c, 0, 42, 77
1, 849035, Note_off_c, 0, 72, 61
1, 849036, Note_on_c, 0, 44, 44
1, 849072, Note_off_c, 0, 44, 54
1, 849079, Note_off_c, 0, 42, 63
1, 849122, Control_c, 0, 64, 90
1, 849126, Note_on_c, 0, 72, 89
1, 849132, Note_on_c, 0, 41, 93
1, 849137, Control_c, 0, 64, 54
1, 849152, Control_c, 0, 64, 0
1, 849166, Control_c, 0, 64, 36
1, 849181, Control_c, 0, 64, 61
1, 849196, Control_c, 0, 64, 86
1, 849210, Control_c, 0, 64, 127
1, 849232, Note_off_c, 0, 41, 64
1, 849245, Note_on_c, 0, 53, 83
1, 849297, Note_on_c, 0, 68, 79
1, 849298, Note_on_c, 0, 73, 92
1, 849304, Note_on_c, 0, 61, 80
1, 849309, Note_off_c, 0, 53, 55
1, 849320, Note_off_c, 0, 72, 62
1, 849329, Note_off_c, 0, 61, 69
1, 849342, Note_off_c, 0, 68, 63
1, 849346, Note_on_c, 0, 41, 84
1, 849361, Note_off_c, 0, 73, 65
1, 849395, Note_off_c, 0, 41, 64
1, 849463, Note_on_c, 0, 35, 100
1, 849463, Control_c, 0, 64, 66
1, 849478, Control_c, 0, 64, 0
1, 849508, Control_c, 0, 64, 36
1, 849523, Control_c, 0, 64, 66
1, 849538, Control_c, 0, 64, 102
1, 849553, Control_c, 0, 64, 127
1, 849577, Note_on_c, 0, 47, 81
1, 849584, Note_off_c, 0, 35, 64
1, 849602, Note_on_c, 0, 42, 39
1, 849640, Note_off_c, 0, 42, 52
1, 849645, Note_off_c, 0, 47, 60
1, 849654, Note_on_c, 0, 78, 96
1, 849659, Note_on_c, 0, 74, 82
1, 849661, Note_on_c, 0, 68, 85
1, 849695, Note_on_c, 0, 35, 86
1, 849740, Note_off_c, 0, 35, 64
1, 849744, Note_off_c, 0, 74, 59
1, 849774, Note_off_c, 0, 68, 44
1, 849791, Note_off_c, 0, 78, 55
1, 849812, Note_on_c, 0, 34, 106
1, 849841, Control_c, 0, 64, 76
1, 849856, Control_c, 0, 64, 40
1, 849861, Note_on_c, 0, 78, 99
1, 849871, Control_c, 0, 64, 0
1, 849886, Control_c, 0, 64, 42
1, 849901, Control_c, 0, 64, 66
1, 849915, Control_c, 0, 64, 101
1, 849930, Control_c, 0, 64, 127
1, 849961, Note_off_c, 0, 34, 60
1, 849967, Note_on_c, 0, 46, 73
1, 849984, Note_on_c, 0, 39, 40
1, 849996, Note_off_c, 0, 78, 58
1, 850024, Note_off_c, 0, 39, 45
1, 850028, Note_on_c, 0, 76, 78
1, 850035, Note_on_c, 0, 67, 89
1, 850037, Note_on_c, 0, 72, 79
1, 850057, Note_off_c, 0, 46, 58
1, 850059, Note_off_c, 0, 72, 71
1, 850065, Note_off_c, 0, 67, 62
1, 850083, Note_on_c, 0, 34, 90
1, 850105, Note_off_c, 0, 76, 63
1, 850146, Note_off_c, 0, 34, 63
1, 850210, Note_on_c, 0, 33, 98
1, 850212, Control_c, 0, 64, 114
1, 850226, Control_c, 0, 64, 61
1, 850241, Control_c, 0, 64, 0
1, 850271, Control_c, 0, 64, 27
1, 850286, Control_c, 0, 64, 64
1, 850301, Control_c, 0, 64, 90
1, 850316, Control_c, 0, 64, 127
1, 850325, Note_on_c, 0, 45, 88
1, 850351, Note_off_c, 0, 33, 60
1, 850364, Note_on_c, 0, 75, 90
1, 850367, Note_on_c, 0, 71, 84
1, 850370, Note_on_c, 0, 66, 87
1, 850392, Note_off_c, 0, 71, 66
1, 850405, Note_off_c, 0, 66, 63
1, 850430, Note_off_c, 0, 45, 57
1, 850453, Note_off_c, 0, 75, 56
1, 850460, Note_on_c, 0, 33, 90
1, 850524, Note_off_c, 0, 33, 62
1, 850605, Note_on_c, 0, 75, 101
1, 850608, Note_on_c, 0, 32, 101
1, 850619, Control_c, 0, 64, 93
1, 850634, Control_c, 0, 64, 51
1, 850649, Control_c, 0, 64, 0
1, 850723, Control_c, 0, 64, 50
1, 850737, Control_c, 0, 64, 127
1, 850762, Note_on_c, 0, 44, 98
1, 850778, Note_on_c, 0, 34, 32
1, 850811, Note_off_c, 0, 75, 60
1, 850827, Note_off_c, 0, 34, 51
1, 850839, Note_off_c, 0, 32, 58
1, 850854, Note_on_c, 0, 83, 97
1, 850855, Note_on_c, 0, 71, 98
1, 850858, Note_on_c, 0, 76, 93
1, 850921, Note_off_c, 0, 44, 60
1, 850954, Note_on_c, 0, 32, 92
1, 850988, Note_off_c, 0, 83, 56
1, 851006, Note_off_c, 0, 32, 62
1, 851007, Note_off_c, 0, 71, 56
1, 851025, Note_off_c, 0, 76, 53
1, 851100, Note_on_c, 0, 30, 89
1, 851198, Poly_aftertouch_c, 0, 32, 127
1, 851219, Control_c, 0, 64, 110
1, 851226, Note_on_c, 0, 83, 101
1, 851228, Poly_aftertouch_c, 0, 32, 0
1, 851230, Note_on_c, 0, 71, 107
1, 851231, Note_on_c, 0, 42, 103
1, 851232, Note_on_c, 0, 73, 94
1, 851234, Note_on_c, 0, 76, 96
1, 851234, Control_c, 0, 64, 59
1, 851243, Poly_aftertouch_c, 0, 32, 0
1, 851249, Control_c, 0, 64, 0
1, 851325, Poly_aftertouch_c, 0, 32, 0
1, 851353, Control_c, 0, 64, 40
1, 851368, Control_c, 0, 64, 82
1, 851383, Control_c, 0, 64, 127
1, 851411, Note_off_c, 0, 30, 62
1, 851431, Note_off_c, 0, 42, 62
1, 851463, Note_off_c, 0, 83, 56
1, 851506, Note_off_c, 0, 71, 59
1, 851538, Note_on_c, 0, 46, 94
1, 851542, Note_on_c, 0, 34, 89
1, 851627, Note_off_c, 0, 34, 61
1, 851633, Note_off_c, 0, 46, 59
1, 851756, Note_on_c, 0, 82, 93
1, 851764, Note_on_c, 0, 70, 86
1, 851778, Note_on_c, 0, 49, 81
1, 851791, Note_on_c, 0, 37, 67
1, 851824, Note_off_c, 0, 49, 56
1, 851830, Note_off_c, 0, 37, 63
1, 851937, Note_on_c, 0, 52, 91
1, 851943, Note_on_c, 0, 40, 82
1, 851995, Note_off_c, 0, 52, 61
1, 852005, Note_off_c, 0, 40, 61
1, 852017, Note_off_c, 0, 70, 60
1, 852033, Note_off_c, 0, 82, 59
1, 852036, Note_off_c, 0, 73, 57
1, 852055, Note_off_c, 0, 76, 54
1, 852098, Note_on_c, 0, 53, 97
1, 852102, Note_on_c, 0, 41, 89
1, 852135, Note_off_c, 0, 53, 66
1, 852146, Note_off_c, 0, 41, 63
1, 852247, Note_on_c, 0, 54, 99
1, 852256, Note_on_c, 0, 42, 86
1, 852296, Note_off_c, 0, 42, 59
1, 852304, Note_off_c, 0, 54, 57
1, 852383, Control_c, 0, 64, 100
1, 852389, Note_on_c, 0, 81, 97
1, 852391, Note_on_c, 0, 69, 97
1, 852395, Note_on_c, 0, 78, 94
1, 852396, Note_on_c, 0, 72, 96
1, 852398, Control_c, 0, 64, 58
1, 852409, Note_on_c, 0, 55, 91
1, 852413, Control_c, 0, 64, 0
1, 852414, Note_on_c, 0, 43, 91
1, 852458, Control_c, 0, 64, 38
1, 852464, Note_off_c, 0, 55, 62
1, 852472, Control_c, 0, 64, 75
1, 852487, Control_c, 0, 64, 127
1, 852489, Note_off_c, 0, 43, 60
1, 852539, Note_off_c, 0, 81, 57
1, 852544, Note_on_c, 0, 56, 101
1, 852551, Note_off_c, 0, 72, 64
1, 852556, Note_on_c, 0, 44, 82
1, 852559, Note_off_c, 0, 69, 60
1, 852566, Note_off_c, 0, 56, 69
1, 852571, Note_off_c, 0, 78, 60
1, 852592, Note_off_c, 0, 44, 65
1, 852761, Control_c, 0, 64, 70
1, 852774, Note_on_c, 0, 81, 95
1, 852775, Control_c, 0, 64, 0
1, 852777, Note_on_c, 0, 69, 99
1, 852777, Note_on_c, 0, 71, 92
1, 852778, Note_on_c, 0, 77, 88
1, 852786, Note_on_c, 0, 37, 95
1, 852788, Note_on_c, 0, 25, 88
1, 852835, Control_c, 0, 64, 47
1, 852844, Note_off_c, 0, 25, 61
1, 852847, Note_off_c, 0, 37, 63
1, 852849, Control_c, 0, 64, 82
1, 852864, Control_c, 0, 64, 127
1, 852952, Note_off_c, 0, 81, 55
1, 852960, Note_on_c, 0, 41, 72
1, 852973, Note_on_c, 0, 29, 68
1, 852983, Note_off_c, 0, 41, 67
1, 852996, Note_off_c, 0, 69, 58
1, 853009, Note_off_c, 0, 29, 62
1, 853127, Note_on_c, 0, 80, 97
1, 853134, Note_on_c, 0, 68, 85
1, 853142, Note_on_c, 0, 44, 77
1, 853155, Note_on_c, 0, 32, 65
1, 853174, Note_off_c, 0, 44, 63
1, 853188, Note_off_c, 0, 32, 59
1, 853224, Note_off_c, 0, 68, 62
1, 853260, Note_off_c, 0, 80, 60
1, 853267, Note_off_c, 0, 71, 56
1, 853273, Note_on_c, 0, 47, 78
1, 853277, Note_off_c, 0, 77, 59
1, 853281, Note_on_c, 0, 35, 74
1, 853320, Note_off_c, 0, 35, 62
1, 853320, Note_off_c, 0, 47, 60
1, 853419, Note_on_c, 0, 48, 94
1, 853431, Note_on_c, 0, 36, 83
1, 853460, Note_off_c, 0, 48, 63
1, 853466, Note_off_c, 0, 36, 66
1, 853570, Note_on_c, 0, 49, 89
1, 853584, Note_on_c, 0, 37, 70
1, 853610, Note_off_c, 0, 37, 65
1, 853618, Note_off_c, 0, 49, 60
1, 853754, Note_on_c, 0, 78, 104
1, 853759, Note_on_c, 0, 66, 96
1, 853759, Note_on_c, 0, 71, 84
1, 853760, Note_on_c, 0, 50, 82
1, 853766, Note_on_c, 0, 38, 80
1, 853777, Control_c, 0, 64, 97
1, 853792, Control_c, 0, 64, 63
1, 853806, Control_c, 0, 64, 0
1, 853857, Note_off_c, 0, 50, 62
1, 853866, Control_c, 0, 64, 54
1, 853880, Note_off_c, 0, 38, 62
1, 853881, Control_c, 0, 64, 70
1, 853896, Control_c, 0, 64, 94
1, 853911, Control_c, 0, 64, 127
1, 853943, Note_on_c, 0, 51, 87
1, 853958, Note_on_c, 0, 39, 82
1, 853973, Poly_aftertouch_c, 0, 43, 127
1, 853980, Note_off_c, 0, 71, 57
1, 853989, Note_off_c, 0, 51, 63
1, 853991, Note_off_c, 0, 78, 55
1, 854012, Note_off_c, 0, 66, 57
1, 854018, Poly_aftertouch_c, 0, 43, 0
1, 854027, Note_off_c, 0, 39, 62
1, 854200, Note_on_c, 0, 78, 98
1, 854206, Note_on_c, 0, 71, 81
1, 854208, Note_on_c, 0, 66, 94
1, 854259, Control_c, 0, 64, 87
1, 854274, Control_c, 0, 64, 60
1, 854289, Control_c, 0, 64, 0
1, 854412, Note_on_c, 0, 44, 75
1, 854415, Note_on_c, 0, 32, 73
1, 854422, Control_c, 0, 64, 53
1, 854437, Control_c, 0, 64, 86
1, 854452, Control_c, 0, 64, 127
1, 854456, Note_off_c, 0, 32, 63
1, 854470, Note_off_c, 0, 44, 60
1, 854540, Note_off_c, 0, 78, 56
1, 854540, Note_off_c, 0, 66, 61
1, 854629, Note_on_c, 0, 77, 94
1, 854629, Note_on_c, 0, 50, 65
1, 854639, Note_on_c, 0, 65, 79
1, 854643, Note_on_c, 0, 38, 58
1, 854679, Note_off_c, 0, 50, 57
1, 854695, Note_off_c, 0, 38, 58
1, 854744, Note_off_c, 0, 77, 58
1, 854761, Note_off_c, 0, 65, 42
1, 854766, Note_off_c, 0, 71, 62
1, 854807, Note_on_c, 0, 49, 89
1, 854819, Note_on_c, 0, 37, 74
1, 854840, Note_off_c, 0, 49, 63
1, 854857, Note_off_c, 0, 37, 63
1, 854981, Note_on_c, 0, 76, 95
1, 854985, Note_on_c, 0, 64, 94
1, 854988, Note_on_c, 0, 70, 85
1, 855023, Control_c, 0, 64, 72
1, 855038, Control_c, 0, 64, 37
1, 855052, Control_c, 0, 64, 0
1, 855112, Control_c, 0, 64, 41
1, 855127, Control_c, 0, 64, 68
1, 855136, Note_on_c, 0, 43, 90
1, 855136, Note_on_c, 0, 31, 79
1, 855142, Control_c, 0, 64, 94
1, 855148, Note_off_c, 0, 76, 59
1, 855157, Control_c, 0, 64, 127
1, 855169, Note_off_c, 0, 31, 67
1, 855180, Note_off_c, 0, 64, 59
1, 855188, Note_off_c, 0, 43, 64
1, 855240, Note_off_c, 0, 70, 61
1, 855294, Note_on_c, 0, 75, 97
1, 855296, Note_on_c, 0, 71, 82
1, 855298, Note_on_c, 0, 63, 96
1, 855306, Note_on_c, 0, 55, 87
1, 855312, Note_on_c, 0, 43, 73
1, 855331, Note_off_c, 0, 55, 65
1, 855345, Note_off_c, 0, 43, 64
1, 855405, Note_off_c, 0, 75, 54
1, 855428, Note_on_c, 0, 54, 96
1, 855429, Note_off_c, 0, 63, 58
1, 855437, Note_on_c, 0, 42, 85
1, 855457, Note_off_c, 0, 54, 62
1, 855488, Note_off_c, 0, 42, 60
1, 855562, Note_off_c, 0, 71, 37
1, 855588, Note_on_c, 0, 75, 99
1, 855589, Note_on_c, 0, 63, 104
1, 855590, Note_on_c, 0, 68, 89
1, 855616, Control_c, 0, 64, 76
1, 855631, Control_c, 0, 64, 40
1, 855646, Control_c, 0, 64, 0
1, 855698, Control_c, 0, 64, 54
1, 855713, Control_c, 0, 64, 77
1, 855728, Control_c, 0, 64, 127
1, 855744, Note_on_c, 0, 41, 95
1, 855746, Note_on_c, 0, 29, 85
1, 855781, Note_off_c, 0, 29, 66
1, 855794, Note_off_c, 0, 41, 65
1, 855812, Note_off_c, 0, 75, 59
1, 855814, Note_off_c, 0, 63, 57
1, 855889, Note_on_c, 0, 74, 102
1, 855890, Note_on_c, 0, 62, 98
1, 855901, Note_on_c, 0, 47, 88
1, 855903, Note_on_c, 0, 35, 84
1, 855918, Note_off_c, 0, 68, 61
1, 855929, Note_off_c, 0, 47, 65
1, 855932, Note_off_c, 0, 62, 64
1, 855935, Note_off_c, 0, 35, 65
1, 855938, Note_off_c, 0, 74, 67
1, 856018, Note_on_c, 0, 46, 102
1, 856024, Note_on_c, 0, 34, 96
1, 856053, Note_off_c, 0, 46, 60
1, 856057, Note_off_c, 0, 34, 66
1, 856146, Note_on_c, 0, 73, 100
1, 856150, Note_on_c, 0, 61, 96
1, 856152, Note_on_c, 0, 67, 93
1, 856157, Control_c, 0, 64, 80
1, 856172, Control_c, 0, 64, 38
1, 856173, Note_on_c, 0, 74, 71
1, 856187, Control_c, 0, 64, 0
1, 856210, Note_off_c, 0, 74, 42
1, 856232, Control_c, 0, 64, 27
1, 856247, Control_c, 0, 64, 59
1, 856262, Control_c, 0, 64, 87
1, 856276, Control_c, 0, 64, 127
1, 856286, Note_on_c, 0, 28, 76
1, 856287, Note_on_c, 0, 41, 84
1, 856289, Note_on_c, 0, 40, 80
1, 856312, Note_on_c, 0, 29, 54
1, 856313, Note_off_c, 0, 73, 60
1, 856317, Note_off_c, 0, 28, 64
1, 856323, Note_off_c, 0, 40, 64
1, 856327, Note_off_c, 0, 41, 65
1, 856345, Note_off_c, 0, 61, 59
1, 856355, Note_off_c, 0, 29, 46
1, 856391, Note_off_c, 0, 67, 56
1, 856427, Note_on_c, 0, 72, 92
1, 856430, Note_on_c, 0, 60, 98
1, 856438, Note_on_c, 0, 68, 82
1, 856449, Note_on_c, 0, 52, 94
1, 856452, Note_on_c, 0, 40, 81
1, 856471, Note_off_c, 0, 60, 65
1, 856480, Note_off_c, 0, 52, 64
1, 856485, Note_off_c, 0, 40, 66
1, 856486, Note_off_c, 0, 72, 61
1, 856494, Note_off_c, 0, 68, 60
1, 856559, Note_on_c, 0, 51, 99
1, 856566, Note_on_c, 0, 39, 95
1, 856586, Note_off_c, 0, 51, 62
1, 856591, Note_on_c, 0, 52, 50
1, 856608, Note_off_c, 0, 52, 68
1, 856616, Note_off_c, 0, 39, 57
1, 856709, Note_on_c, 0, 59, 105
1, 856710, Note_on_c, 0, 71, 106
1, 856712, Note_on_c, 0, 64, 97
1, 856714, Control_c, 0, 64, 96
1, 856729, Control_c, 0, 64, 53
1, 856744, Control_c, 0, 64, 0
1, 856847, Note_on_c, 0, 37, 98
1, 856847, Control_c, 0, 64, 71
1, 856850, Note_on_c, 0, 25, 72
1, 856850, Note_off_c, 0, 71, 60
1, 856862, Control_c, 0, 64, 127
1, 856868, Note_off_c, 0, 59, 61
1, 856888, Note_off_c, 0, 25, 66
1, 856892, Note_off_c, 0, 37, 64
1, 856985, Note_on_c, 0, 70, 96
1, 856987, Note_on_c, 0, 58, 92
1, 857006, Note_on_c, 0, 43, 90
1, 857011, Note_on_c, 0, 31, 81
1, 857011, Note_off_c, 0, 64, 67
1, 857032, Note_off_c, 0, 43, 67
1, 857038, Note_off_c, 0, 70, 69
1, 857041, Note_off_c, 0, 58, 63
1, 857041, Note_off_c, 0, 31, 65
1, 857117, Note_on_c, 0, 42, 106
1, 857127, Note_on_c, 0, 30, 86
1, 857151, Note_off_c, 0, 42, 63
1, 857157, Note_off_c, 0, 30, 60
1, 857276, Note_on_c, 0, 69, 97
1, 857282, Note_on_c, 0, 57, 88
1, 857290, Note_on_c, 0, 63, 82
1, 857315, Control_c, 0, 64, 75
1, 857329, Control_c, 0, 64, 28
1, 857344, Control_c, 0, 64, 0
1, 857413, Note_on_c, 0, 36, 94
1, 857415, Note_on_c, 0, 24, 83
1, 857418, Control_c, 0, 64, 60
1, 857433, Control_c, 0, 64, 102
1, 857440, Note_off_c, 0, 69, 60
1, 857447, Control_c, 0, 64, 127
1, 857450, Note_off_c, 0, 24, 63
1, 857458, Note_off_c, 0, 57, 63
1, 857469, Note_off_c, 0, 36, 62
1, 857521, Note_off_c, 0, 63, 62
1, 857555, Note_on_c, 0, 68, 95
1, 857559, Note_on_c, 0, 56, 98
1, 857565, Note_on_c, 0, 64, 84
1, 857582, Note_on_c, 0, 48, 96
1, 857584, Note_on_c, 0, 36, 73
1, 857607, Note_off_c, 0, 56, 63
1, 857609, Note_off_c, 0, 68, 69
1, 857619, Note_off_c, 0, 64, 64
1, 857622, Note_off_c, 0, 48, 62
1, 857625, Note_off_c, 0, 36, 61
1, 857671, Poly_aftertouch_c, 0, 38, 127
1, 857696, Note_on_c, 0, 47, 99
1, 857705, Note_on_c, 0, 35, 96
1, 857709, Poly_aftertouch_c, 0, 38, 0
1, 857730, Note_off_c, 0, 47, 67
1, 857753, Note_off_c, 0, 35, 64
1, 857929, Note_on_c, 0, 71, 104
1, 857932, Note_on_c, 0, 59, 99
1, 857935, Note_on_c, 0, 64, 86
1, 857988, Control_c, 0, 64, 76
1, 858003, Control_c, 0, 64, 44
1, 858018, Control_c, 0, 64, 0
1, 858116, Note_on_c, 0, 25, 73
1, 858120, Note_on_c, 0, 37, 86
1, 858138, Control_c, 0, 64, 57
1, 858152, Control_c, 0, 64, 92
1, 858167, Control_c, 0, 64, 127
1, 858168, Note_off_c, 0, 71, 64
1, 858175, Note_off_c, 0, 25, 61
1, 858177, Note_off_c, 0, 37, 62
1, 858201, Note_off_c, 0, 59, 55
1, 858289, Note_on_c, 0, 58, 106
1, 858290, Note_on_c, 0, 70, 91
1, 858296, Note_on_c, 0, 43, 91
1, 858302, Note_on_c, 0, 31, 75
1, 858313, Note_on_c, 0, 66, 7
1, 858315, Note_off_c, 0, 64, 63
1, 858331, Note_off_c, 0, 43, 63
1, 858340, Note_off_c, 0, 31, 65
1, 858352, Note_off_c, 0, 58, 61
1, 858358, Note_off_c, 0, 70, 62
1, 858368, Note_off_c, 0, 66, 46
1, 858421, Note_on_c, 0, 42, 104
1, 858430, Note_on_c, 0, 30, 85
1, 858463, Note_off_c, 0, 42, 65
1, 858486, Note_off_c, 0, 30, 59
1, 858607, Note_on_c, 0, 69, 95
1, 858609, Note_on_c, 0, 57, 92
1, 858616, Note_on_c, 0, 63, 85
1, 858677, Control_c, 0, 64, 90
1, 858692, Control_c, 0, 64, 60
1, 858707, Control_c, 0, 64, 0
1, 858798, Note_on_c, 0, 36, 93
1, 858799, Note_on_c, 0, 24, 81
1, 858819, Note_off_c, 0, 69, 58
1, 858826, Control_c, 0, 64, 60
1, 858841, Control_c, 0, 64, 80
1, 858844, Note_off_c, 0, 24, 64
1, 858853, Note_off_c, 0, 57, 63
1, 858856, Control_c, 0, 64, 109
1, 858862, Note_off_c, 0, 36, 63
1, 858871, Control_c, 0, 64, 127
1, 858886, Note_off_c, 0, 63, 63
1, 859075, Note_on_c, 0, 68, 95
1, 859077, Note_on_c, 0, 56, 96
1, 859083, Note_on_c, 0, 64, 81
1, 859089, Note_on_c, 0, 48, 89
1, 859094, Note_on_c, 0, 36, 76
1, 859108, Control_c, 0, 64, 102
1, 859123, Control_c, 0, 64, 68
1, 859137, Control_c, 0, 64, 42
1, 859152, Control_c, 0, 64, 27
1, 859167, Control_c, 0, 64, 49
1, 859182, Control_c, 0, 64, 68
1, 859197, Control_c, 0, 64, 93
1, 859211, Control_c, 0, 64, 127
1, 859226, Note_off_c, 0, 48, 59
1, 859238, Note_off_c, 0, 36, 61
1, 859289, Note_off_c, 0, 56, 60
1, 859291, Note_off_c, 0, 68, 58
1, 859372, Note_on_c, 0, 69, 93
1, 859376, Note_on_c, 0, 57, 87
1, 859390, Control_c, 0, 64, 118
1, 859390, Note_on_c, 0, 47, 89
1, 859398, Note_on_c, 0, 66, 61
1, 859399, Note_on_c, 0, 35, 75
1, 859404, Control_c, 0, 64, 73
1, 859426, Control_c, 0, 64, 52
1, 859441, Control_c, 0, 64, 29
1, 859456, Control_c, 0, 64, 36
1, 859458, Note_off_c, 0, 66, 40
1, 859471, Control_c, 0, 64, 58
1, 859486, Control_c, 0, 64, 74
1, 859500, Control_c, 0, 64, 121
1, 859504, Note_off_c, 0, 69, 57
1, 859512, Note_off_c, 0, 47, 61
1, 859515, Control_c, 0, 64, 127
1, 859531, Note_off_c, 0, 57, 61
1, 859554, Note_off_c, 0, 35, 58
1, 859554, Note_off_c, 0, 64, 60
1, 859783, Note_on_c, 0, 66, 97
1, 859795, Note_on_c, 0, 54, 76
1, 859799, Note_on_c, 0, 63, 73
1, 859842, Control_c, 0, 64, 114
1, 859857, Control_c, 0, 64, 79
1, 859872, Control_c, 0, 64, 54
1, 859887, Control_c, 0, 64, 0
1, 859944, Note_on_c, 0, 30, 77
1, 860021, Control_c, 0, 64, 29
1, 860036, Control_c, 0, 64, 56
1, 860050, Control_c, 0, 64, 63
1, 860065, Control_c, 0, 64, 68
1, 860070, Note_off_c, 0, 30, 62
1, 860080, Control_c, 0, 64, 73
1, 860084, Note_on_c, 0, 42, 73
1, 860095, Control_c, 0, 64, 84
1, 860108, Note_off_c, 0, 54, 59
1, 860109, Control_c, 0, 64, 105
1, 860117, Note_off_c, 0, 42, 64
1, 860124, Control_c, 0, 64, 127
1, 860141, Note_off_c, 0, 63, 63
1, 860241, Note_on_c, 0, 42, 63
1, 860357, Note_on_c, 0, 64, 82
1, 860376, Note_on_c, 0, 54, 66
1, 860379, Note_on_c, 0, 51, 64
1, 860380, Note_off_c, 0, 42, 49
1, 860409, Note_off_c, 0, 66, 59
1, 860419, Note_off_c, 0, 51, 59
1, 860484, Note_on_c, 0, 42, 70
1, 860515, Note_off_c, 0, 54, 54
1, 860559, Note_off_c, 0, 42, 61
1, 860588, Note_on_c, 0, 66, 86
1, 860598, Note_on_c, 0, 49, 67
1, 860618, Note_off_c, 0, 64, 62
1, 860633, Note_off_c, 0, 49, 61
1, 860677, Note_on_c, 0, 42, 68
1, 860758, Note_off_c, 0, 42, 62
1, 860759, Note_on_c, 0, 63, 84
1, 860767, Note_on_c, 0, 54, 80
1, 860769, Control_c, 0, 64, 87
1, 860779, Note_on_c, 0, 49, 69
1, 860784, Control_c, 0, 64, 61
1, 860798, Control_c, 0, 64, 48
1, 860811, Note_off_c, 0, 49, 61
1, 860813, Control_c, 0, 64, 55
1, 860828, Control_c, 0, 64, 64
1, 860829, Note_off_c, 0, 66, 53
1, 860843, Control_c, 0, 64, 75
1, 860856, Note_on_c, 0, 42, 79
1, 860858, Control_c, 0, 64, 95
1, 860866, Note_off_c, 0, 54, 60
1, 860872, Control_c, 0, 64, 127
1, 860926, Note_off_c, 0, 63, 62
1, 860931, Note_off_c, 0, 42, 63
1, 860943, Note_on_c, 0, 47, 61
1, 861029, Note_on_c, 0, 42, 75
1, 861050, Note_off_c, 0, 47, 36
1, 861087, Control_c, 0, 64, 101
1, 861090, Note_off_c, 0, 42, 62
1, 861102, Control_c, 0, 64, 71
1, 861115, Note_on_c, 0, 68, 82
1, 861116, Note_on_c, 0, 58, 75
1, 861116, Control_c, 0, 64, 57
1, 861125, Note_on_c, 0, 54, 66
1, 861131, Control_c, 0, 64, 58
1, 861146, Control_c, 0, 64, 65
1, 861157, Note_off_c, 0, 54, 61
1, 861161, Control_c, 0, 64, 76
1, 861176, Control_c, 0, 64, 94
1, 861190, Control_c, 0, 64, 127
1, 861208, Note_on_c, 0, 42, 75
1, 861266, Note_off_c, 0, 58, 58
1, 861279, Note_off_c, 0, 42, 60
1, 861289, Note_on_c, 0, 52, 67
1, 861289, Note_on_c, 0, 70, 87
1, 861316, Note_off_c, 0, 68, 58
1, 861326, Note_off_c, 0, 52, 62
1, 861375, Note_on_c, 0, 42, 84
1, 861429, Control_c, 0, 64, 103
1, 861441, Note_off_c, 0, 42, 62
1, 861443, Control_c, 0, 64, 69
1, 861449, Note_on_c, 0, 68, 82
1, 861455, Note_on_c, 0, 52, 72
1, 861458, Control_c, 0, 64, 50
1, 861461, Note_on_c, 0, 59, 82
1, 861473, Control_c, 0, 64, 46
1, 861482, Note_off_c, 0, 70, 65
1, 861488, Control_c, 0, 64, 59
1, 861503, Control_c, 0, 64, 70
1, 861505, Note_off_c, 0, 52, 61
1, 861518, Control_c, 0, 64, 92
1, 861533, Control_c, 0, 64, 127
1, 861539, Note_on_c, 0, 42, 84
1, 861595, Note_on_c, 0, 41, 24
1, 861607, Note_on_c, 0, 66, 88
1, 861611, Note_off_c, 0, 42, 62
1, 861626, Note_on_c, 0, 51, 78
1, 861627, Note_off_c, 0, 59, 64
1, 861630, Note_off_c, 0, 68, 61
1, 861634, Note_off_c, 0, 41, 44
1, 861667, Note_off_c, 0, 66, 65
1, 861687, Note_off_c, 0, 51, 60
1, 861715, Note_on_c, 0, 42, 85
1, 861718, Control_c, 0, 64, 112
1, 861733, Control_c, 0, 64, 74
1, 861747, Control_c, 0, 64, 60
1, 861762, Control_c, 0, 64, 58
1, 861774, Note_off_c, 0, 42, 62
1, 861777, Control_c, 0, 64, 63
1, 861786, Note_on_c, 0, 64, 82
1, 861789, Note_on_c, 0, 51, 80
1, 861792, Control_c, 0, 64, 74
1, 861798, Note_on_c, 0, 54, 75
1, 861807, Control_c, 0, 64, 127
1, 861840, Note_off_c, 0, 51, 59
1, 861871, Note_on_c, 0, 42, 83
1, 861873, Note_off_c, 0, 54, 57
1, 861909, Note_off_c, 0, 64, 59
1, 861938, Note_off_c, 0, 42, 62
1, 861941, Note_on_c, 0, 51, 80
1, 861947, Note_on_c, 0, 66, 93
1, 861975, Note_off_c, 0, 51, 65
1, 862035, Note_on_c, 0, 42, 74
1, 862083, Note_on_c, 0, 41, 18
1, 862098, Note_on_c, 0, 64, 84
1, 862103, Note_off_c, 0, 42, 62
1, 862105, Note_on_c, 0, 49, 78
1, 862105, Note_on_c, 0, 54, 93
1, 862118, Control_c, 0, 64, 61
1, 862125, Note_off_c, 0, 41, 41
1, 862133, Note_off_c, 0, 49, 65
1, 862133, Control_c, 0, 64, 0
1, 862140, Note_off_c, 0, 66, 62
1, 862162, Control_c, 0, 64, 49
1, 862177, Control_c, 0, 64, 72
1, 862188, Note_on_c, 0, 42, 93
1, 862192, Control_c, 0, 64, 127
1, 862200, Note_off_c, 0, 54, 57
1, 862256, Note_on_c, 0, 63, 87
1, 862262, Poly_aftertouch_c, 0, 43, 127
1, 862265, Note_off_c, 0, 64, 64
1, 862267, Note_off_c, 0, 42, 60
1, 862270, Note_on_c, 0, 47, 75
1, 862284, Note_off_c, 0, 63, 65
1, 862297, Poly_aftertouch_c, 0, 43, 0
1, 862343, Note_off_c, 0, 47, 64
1, 862356, Note_on_c, 0, 42, 59
1, 862399, Note_off_c, 0, 42, 46
1, 862400, Control_c, 0, 64, 85
1, 862422, Control_c, 0, 64, 57
1, 862442, Note_on_c, 0, 76, 90
1, 862445, Note_on_c, 0, 64, 84
1, 862451, Control_c, 0, 64, 67
1, 862455, Note_on_c, 0, 70, 72
1, 862466, Note_on_c, 0, 61, 83
1, 862466, Note_off_c, 0, 64, 72
1, 862466, Control_c, 0, 64, 86
1, 862475, Note_off_c, 0, 76, 58
1, 862479, Note_on_c, 0, 49, 58
1, 862481, Control_c, 0, 64, 127
1, 862484, Note_off_c, 0, 70, 62
1, 862515, Note_off_c, 0, 49, 62
1, 862532, Note_on_c, 0, 54, 74
1, 862532, Note_off_c, 0, 61, 62
1, 862603, Note_on_c, 0, 66, 95
1, 862603, Note_on_c, 0, 78, 93
1, 862613, Note_on_c, 0, 51, 81
1, 862615, Note_on_c, 0, 63, 88
1, 862629, Note_off_c, 0, 54, 40
1, 862645, Note_off_c, 0, 66, 61
1, 862669, Note_off_c, 0, 78, 47
1, 862678, Note_off_c, 0, 63, 55
1, 862683, Note_off_c, 0, 51, 62
1, 862685, Note_on_c, 0, 54, 66
1, 862748, Control_c, 0, 64, 69
1, 862755, Note_off_c, 0, 54, 61
1, 862762, Control_c, 0, 64, 49
1, 862764, Note_on_c, 0, 76, 95
1, 862765, Note_on_c, 0, 64, 97
1, 862770, Note_on_c, 0, 71, 78
1, 862773, Note_on_c, 0, 61, 92
1, 862777, Control_c, 0, 64, 57
1, 862779, Note_on_c, 0, 49, 76
1, 862792, Control_c, 0, 64, 71
1, 862799, Note_off_c, 0, 64, 67
1, 862806, Note_off_c, 0, 71, 59
1, 862807, Control_c, 0, 64, 105
1, 862812, Note_off_c, 0, 49, 61
1, 862817, Note_off_c, 0, 61, 60
1, 862822, Control_c, 0, 64, 127
1, 862839, Note_off_c, 0, 76, 61
1, 862898, Note_on_c, 0, 59, 83
1, 862904, Note_on_c, 0, 47, 80
1, 862910, Note_on_c, 0, 75, 88
1, 862913, Note_on_c, 0, 63, 85
1, 862914, Note_on_c, 0, 54, 63
1, 862920, Note_off_c, 0, 59, 69
1, 862930, Note_off_c, 0, 75, 72
1, 862933, Note_off_c, 0, 63, 71
1, 862938, Note_off_c, 0, 54, 66
1, 862957, Note_off_c, 0, 47, 63
1, 863038, Poly_aftertouch_c, 0, 59, 127
1, 863059, Control_c, 0, 64, 108
1, 863062, Poly_aftertouch_c, 0, 59, 0
1, 863074, Control_c, 0, 64, 69
1, 863088, Note_on_c, 0, 64, 82
1, 863089, Control_c, 0, 64, 54
1, 863098, Note_on_c, 0, 37, 77
1, 863099, Note_on_c, 0, 54, 76
1, 863103, Control_c, 0, 64, 57
1, 863118, Control_c, 0, 64, 66
1, 863133, Control_c, 0, 64, 96
1, 863146, Note_on_c, 0, 36, 31
1, 863148, Control_c, 0, 64, 127
1, 863154, Note_off_c, 0, 54, 47
1, 863174, Note_off_c, 0, 37, 62
1, 863174, Note_off_c, 0, 64, 64
1, 863187, Note_on_c, 0, 49, 77
1, 863197, Note_off_c, 0, 36, 44
1, 863247, Note_off_c, 0, 49, 58
1, 863260, Note_on_c, 0, 66, 104
1, 863269, Note_on_c, 0, 39, 88
1, 863280, Note_on_c, 0, 54, 66
1, 863300, Note_off_c, 0, 54, 65
1, 863343, Note_off_c, 0, 39, 64
1, 863353, Note_on_c, 0, 51, 85
1, 863363, Note_off_c, 0, 66, 59
1, 863378, Control_c, 0, 64, 95
1, 863388, Note_off_c, 0, 51, 63
1, 863392, Control_c, 0, 64, 55
1, 863407, Control_c, 0, 64, 0
1, 863420, Note_on_c, 0, 64, 95
1, 863422, Control_c, 0, 64, 29
1, 863423, Note_on_c, 0, 54, 85
1, 863437, Control_c, 0, 64, 57
1, 863451, Note_on_c, 0, 37, 85
1, 863452, Control_c, 0, 64, 82
1, 863455, Note_on_c, 0, 49, 88
1, 863466, Control_c, 0, 64, 127
1, 863480, Note_off_c, 0, 37, 61
1, 863485, Note_off_c, 0, 54, 58
1, 863511, Note_off_c, 0, 49, 61
1, 863545, Note_off_c, 0, 64, 59
1, 863586, Note_on_c, 0, 63, 96
1, 863589, Note_on_c, 0, 35, 91
1, 863596, Poly_aftertouch_c, 0, 37, 127
1, 863615, Note_off_c, 0, 35, 69
1, 863619, Note_off_c, 0, 63, 69
1, 863643, Poly_aftertouch_c, 0, 37, 0
1, 863749, Control_c, 0, 64, 95
1, 863763, Control_c, 0, 64, 59
1, 863777, Note_on_c, 0, 76, 95
1, 863778, Control_c, 0, 64, 0
1, 863784, Note_on_c, 0, 64, 87
1, 863786, Note_on_c, 0, 49, 69
1, 863793, Note_on_c, 0, 61, 87
1, 863793, Note_on_c, 0, 70, 80
1, 863806, Note_on_c, 0, 51, 64
1, 863807, Control_c, 0, 64, 45
1, 863822, Control_c, 0, 64, 67
1, 863837, Note_off_c, 0, 51, 59
1, 863837, Control_c, 0, 64, 104
1, 863846, Note_off_c, 0, 64, 41
1, 863852, Control_c, 0, 64, 127
1, 863861, Note_off_c, 0, 76, 62
1, 863882, Note_on_c, 0, 54, 78
1, 863894, Note_off_c, 0, 61, 59
1, 863896, Note_off_c, 0, 49, 57
1, 863938, Note_off_c, 0, 70, 62
1, 864016, Note_off_c, 0, 54, 60
1, 864020, Note_on_c, 0, 78, 97
1, 864022, Note_on_c, 0, 66, 100
1, 864035, Note_on_c, 0, 51, 86
1, 864037, Note_on_c, 0, 63, 92
1, 864061, Note_off_c, 0, 66, 64
1, 864067, Note_off_c, 0, 78, 59
1, 864085, Note_off_c, 0, 63, 57
1, 864111, Poly_aftertouch_c, 0, 68, 127
1, 864121, Note_off_c, 0, 51, 60
1, 864127, Note_on_c, 0, 54, 82
1, 864140, Poly_aftertouch_c, 0, 68, 0
1, 864245, Control_c, 0, 64, 67
1, 864245, Note_on_c, 0, 76, 99
1, 864249, Note_on_c, 0, 64, 95
1, 864252, Note_on_c, 0, 69, 89
1, 864255, Note_on_c, 0, 49, 82
1, 864260, Control_c, 0, 64, 0
1, 864304, Control_c, 0, 64, 48
1, 864319, Control_c, 0, 64, 66
1, 864329, Note_off_c, 0, 64, 64
1, 864333, Control_c, 0, 64, 83
1, 864348, Control_c, 0, 64, 127
1, 864357, Note_off_c, 0, 76, 60
1, 864371, Note_off_c, 0, 69, 59
1, 864442, Note_on_c, 0, 75, 96
1, 864446, Note_on_c, 0, 63, 94
1, 864460, Note_off_c, 0, 49, 55
1, 864474, Note_off_c, 0, 63, 62
1, 864496, Note_off_c, 0, 75, 59
1, 864601, Control_c, 0, 64, 95
1, 864612, Note_on_c, 0, 48, 84
1, 864615, Note_on_c, 0, 75, 97
1, 864616, Control_c, 0, 64, 62
1, 864630, Control_c, 0, 64, 34
1, 864645, Control_c, 0, 64, 38
1, 864668, Control_c, 0, 64, 59
1, 864669, Note_on_c, 0, 73, 34
1, 864683, Control_c, 0, 64, 76
1, 864698, Control_c, 0, 64, 127
1, 864702, Note_off_c, 0, 73, 34
1, 864744, Note_off_c, 0, 48, 62
1, 864746, Note_off_c, 0, 54, 57
1, 864751, Note_off_c, 0, 75, 59
1, 864799, Note_on_c, 0, 81, 101
1, 864805, Note_on_c, 0, 69, 97
1, 864816, Control_c, 0, 64, 79
1, 864830, Control_c, 0, 64, 34
1, 864845, Control_c, 0, 64, 0
1, 864854, Note_on_c, 0, 47, 86
1, 864889, Control_c, 0, 64, 49
1, 864904, Control_c, 0, 64, 101
1, 864919, Control_c, 0, 64, 127
1, 864924, Note_on_c, 0, 55, 89
1, 864971, Note_off_c, 0, 81, 52
1, 864975, Note_off_c, 0, 47, 60
1, 864993, Note_off_c, 0, 69, 49
1, 865071, Note_on_c, 0, 62, 82
1, 865072, Note_on_c, 0, 81, 98
1, 865076, Note_on_c, 0, 69, 93
1, 865077, Note_on_c, 0, 74, 91
1, 865101, Note_off_c, 0, 55, 62
1, 865133, Note_off_c, 0, 62, 60
1, 865144, Note_off_c, 0, 81, 60
1, 865150, Note_off_c, 0, 69, 57
1, 865155, Note_off_c, 0, 74, 66
1, 865310, Note_on_c, 0, 79, 87
1, 865319, Note_on_c, 0, 67, 86
1, 865409, Note_off_c, 0, 79, 58
1, 865412, Note_off_c, 0, 67, 57
1, 865480, Note_on_c, 0, 74, 94
1, 865489, Note_on_c, 0, 62, 76
1, 865593, Note_off_c, 0, 74, 58
1, 865613, Note_off_c, 0, 62, 59
1, 865620, Note_on_c, 0, 59, 79
1, 865621, Note_on_c, 0, 71, 86
1, 865644, Note_off_c, 0, 59, 69
1, 865656, Note_off_c, 0, 71, 59
1, 865777, Note_on_c, 0, 71, 93
1, 865781, Note_on_c, 0, 54, 90
1, 865787, Note_on_c, 0, 49, 81
1, 865792, Note_on_c, 0, 59, 70
1, 865802, Control_c, 0, 64, 73
1, 865812, Note_on_c, 0, 65, 36
1, 865812, Note_off_c, 0, 59, 71
1, 865816, Control_c, 0, 64, 52
1, 865822, Note_on_c, 0, 64, 48
1, 865831, Control_c, 0, 64, 44
1, 865846, Control_c, 0, 64, 56
1, 865861, Control_c, 0, 64, 67
1, 865876, Control_c, 0, 64, 83
1, 865885, Note_off_c, 0, 71, 58
1, 865891, Control_c, 0, 64, 127
1, 865903, Note_off_c, 0, 64, 33
1, 865908, Note_off_c, 0, 65, 41
1, 865945, Note_off_c, 0, 54, 55
1, 865953, Note_on_c, 0, 70, 89
1, 865955, Note_on_c, 0, 58, 93
1, 865983, Note_off_c, 0, 58, 64
1, 866030, Note_off_c, 0, 70, 60
1, 866060, Poly_aftertouch_c, 0, 68, 0
1, 866086, Note_off_c, 0, 49, 35
1, 866115, Control_c, 0, 64, 81
1, 866123, Note_on_c, 0, 48, 90
1, 866125, Note_on_c, 0, 54, 93
1, 866129, Control_c, 0, 64, 59
1, 866130, Note_on_c, 0, 70, 101
1, 866144, Control_c, 0, 64, 48
1, 866166, Control_c, 0, 64, 58
1, 866181, Control_c, 0, 64, 72
1, 866196, Control_c, 0, 64, 127
1, 866210, Note_off_c, 0, 54, 58
1, 866219, Note_off_c, 0, 70, 60
1, 866220, Note_off_c, 0, 48, 61
1, 866313, Note_on_c, 0, 76, 96
1, 866317, Note_on_c, 0, 64, 98
1, 866350, Note_off_c, 0, 64, 69
1, 866350, Note_off_c, 0, 76, 67
1, 866367, Note_on_c, 0, 47, 84
1, 866433, Note_on_c, 0, 50, 30
1, 866436, Note_on_c, 0, 55, 83
1, 866473, Note_off_c, 0, 50, 55
1, 866551, Control_c, 0, 64, 97
1, 866563, Note_on_c, 0, 76, 100
1, 866565, Note_on_c, 0, 59, 100
1, 866566, Control_c, 0, 64, 61
1, 866568, Note_on_c, 0, 67, 89
1, 866570, Note_on_c, 0, 64, 97
1, 866581, Control_c, 0, 64, 0
1, 866610, Control_c, 0, 64, 35
1, 866625, Control_c, 0, 64, 61
1, 866640, Control_c, 0, 64, 76
1, 866655, Control_c, 0, 64, 127
1, 866672, Note_off_c, 0, 47, 63
1, 866679, Note_off_c, 0, 55, 60
1, 866690, Note_off_c, 0, 76, 59
1, 866694, Note_off_c, 0, 59, 64
1, 866696, Note_off_c, 0, 64, 64
1, 866704, Note_off_c, 0, 67, 56
1, 866808, Note_on_c, 0, 74, 99
1, 866816, Note_on_c, 0, 62, 83
1, 866891, Note_off_c, 0, 62, 56
1, 866909, Note_off_c, 0, 74, 57
1, 866994, Note_on_c, 0, 71, 91
1, 867003, Note_on_c, 0, 59, 79
1, 867099, Note_off_c, 0, 71, 56
1, 867116, Note_off_c, 0, 59, 58
1, 867149, Note_on_c, 0, 67, 89
1, 867151, Note_on_c, 0, 55, 73
1, 867172, Note_off_c, 0, 55, 66
1, 867182, Note_off_c, 0, 67, 66
1, 867330, Control_c, 0, 64, 122
1, 867345, Control_c, 0, 64, 71
1, 867352, Note_on_c, 0, 50, 100
1, 867353, Note_on_c, 0, 65, 95
1, 867358, Note_on_c, 0, 38, 88
1, 867359, Control_c, 0, 64, 50
1, 867360, Note_on_c, 0, 53, 94
1, 867374, Control_c, 0, 64, 46
1, 867389, Control_c, 0, 64, 60
1, 867390, Note_off_c, 0, 53, 63
1, 867401, Note_off_c, 0, 50, 64
1, 867404, Control_c, 0, 64, 75
1, 867419, Note_off_c, 0, 65, 57
1, 867419, Control_c, 0, 64, 127
1, 867449, Note_off_c, 0, 38, 62
1, 867578, Note_on_c, 0, 71, 101
1, 867583, Note_on_c, 0, 59, 99
1, 867611, Control_c, 0, 64, 78
1, 867626, Control_c, 0, 64, 58
1, 867641, Control_c, 0, 64, 61
1, 867644, Note_on_c, 0, 31, 86
1, 867663, Control_c, 0, 64, 71
1, 867671, Note_off_c, 0, 59, 34
1, 867678, Control_c, 0, 64, 105
1, 867693, Control_c, 0, 64, 127
1, 867701, Note_off_c, 0, 71, 57
1, 867722, Poly_aftertouch_c, 0, 60, 0
1, 867726, Note_off_c, 0, 31, 63
1, 867736, Note_on_c, 0, 43, 83
1, 867786, Note_off_c, 0, 43, 63
1, 867800, Note_on_c, 0, 64, 73
1, 867802, Note_on_c, 0, 62, 98
1, 867803, Note_on_c, 0, 74, 102
1, 867826, Note_on_c, 0, 52, 90
1, 867835, Note_off_c, 0, 74, 69
1, 867839, Note_on_c, 0, 50, 49
1, 867839, Note_off_c, 0, 50, 127
1, 867840, Note_off_c, 0, 62, 66
1, 867844, Note_off_c, 0, 52, 68
1, 867846, Note_off_c, 0, 64, 65
1, 867866, Poly_aftertouch_c, 0, 50, 0
1, 868003, Note_on_c, 0, 61, 99
1, 868004, Note_on_c, 0, 73, 93
1, 868036, Note_off_c, 0, 61, 64
1, 868037, Note_off_c, 0, 73, 59
1, 868181, Control_c, 0, 64, 91
1, 868196, Control_c, 0, 64, 63
1, 868210, Note_on_c, 0, 48, 106
1, 868211, Control_c, 0, 64, 55
1, 868213, Note_on_c, 0, 63, 101
1, 868214, Note_on_c, 0, 51, 99
1, 868216, Note_on_c, 0, 36, 90
1, 868226, Control_c, 0, 64, 68
1, 868237, Note_off_c, 0, 51, 66
1, 868241, Control_c, 0, 64, 92
1, 868247, Note_off_c, 0, 48, 67
1, 868249, Note_on_c, 0, 61, 37
1, 868249, Note_off_c, 0, 61, 127
1, 868249, Note_off_c, 0, 63, 63
1, 868255, Control_c, 0, 64, 127
1, 868282, Note_off_c, 0, 36, 64
1, 868321, Poly_aftertouch_c, 0, 47, 0
1, 868457, Note_on_c, 0, 69, 101
1, 868458, Note_on_c, 0, 57, 102
1, 868472, Control_c, 0, 64, 76
1, 868486, Control_c, 0, 64, 47
1, 868501, Control_c, 0, 64, 28
1, 868516, Control_c, 0, 64, 46
1, 868519, Note_on_c, 0, 29, 91
1, 868530, Control_c, 0, 64, 65
1, 868545, Control_c, 0, 64, 106
1, 868560, Control_c, 0, 64, 127
1, 868594, Note_off_c, 0, 57, 59
1, 868607, Note_on_c, 0, 41, 89
1, 868608, Note_off_c, 0, 69, 51
1, 868612, Note_off_c, 0, 29, 61
1, 868660, Note_off_c, 0, 41, 66
1, 868733, Note_on_c, 0, 72, 96
1, 868734, Note_on_c, 0, 50, 101
1, 868735, Note_on_c, 0, 60, 101
1, 868735, Note_on_c, 0, 62, 86
1, 868764, Note_off_c, 0, 50, 69
1, 868827, Note_off_c, 0, 72, 58
1, 868844, Note_off_c, 0, 60, 57
1, 868875, Note_off_c, 0, 62, 52
1, 869067, Note_on_c, 0, 59, 101
1, 869069, Note_on_c, 0, 71, 97
1, 869185, Note_on_c, 0, 30, 102
1, 869219, Control_c, 0, 64, 112
1, 869235, Control_c, 0, 64, 69
1, 869250, Control_c, 0, 64, 27
1, 869265, Control_c, 0, 64, 0
1, 869348, Note_on_c, 0, 42, 92
1, 869353, Control_c, 0, 64, 37
1, 869360, Note_on_c, 0, 34, 63
1, 869367, Note_on_c, 0, 32, 45
1, 869368, Control_c, 0, 64, 127
1, 869371, Note_off_c, 0, 30, 63
1, 869394, Note_off_c, 0, 34, 59
1, 869408, Note_off_c, 0, 42, 63
1, 869410, Note_off_c, 0, 32, 49
1, 869594, Note_on_c, 0, 63, 98
1, 869594, Note_on_c, 0, 66, 95
1, 869596, Note_on_c, 0, 54, 96
1, 869605, Note_on_c, 0, 51, 94
1, 869608, Note_off_c, 0, 71, 58
1, 869620, Note_off_c, 0, 59, 65
1, 869638, Note_on_c, 0, 64, 58
1, 869652, Note_off_c, 0, 63, 59
1, 869667, Note_off_c, 0, 64, 66
1, 869688, Note_off_c, 0, 66, 61
1, 870005, Note_on_c, 0, 71, 96
1, 870005, Note_on_c, 0, 59, 106
1, 870042, Note_on_c, 0, 68, 44
1, 870042, Note_off_c, 0, 54, 54
1, 870067, Note_off_c, 0, 68, 56
1, 870088, Note_off_c, 0, 51, 52
1, 870316, Note_on_c, 0, 55, 100
1, 870321, Note_on_c, 0, 67, 83
1, 870324, Note_on_c, 0, 52, 85
1, 870324, Note_on_c, 0, 64, 82
1, 870333, Note_off_c, 0, 71, 55
1, 870404, Note_off_c, 0, 59, 55
1, 870553, Note_off_c, 0, 55, 57
1, 870559, Note_off_c, 0, 64, 58
1, 870571, Note_off_c, 0, 52, 61
1, 870577, Note_off_c, 0, 67, 56
1, 870595, Note_on_c, 0, 60, 106
1, 870595, Note_on_c, 0, 72, 101
1, 870616, Note_on_c, 0, 70, 65
1, 870635, Note_off_c, 0, 70, 65
1, 870726, Note_on_c, 0, 53, 86
1, 870906, Note_on_c, 0, 56, 104
1, 870908, Note_on_c, 0, 68, 96
1, 870908, Note_off_c, 0, 72, 61
1, 870911, Note_on_c, 0, 65, 89
1, 870911, Control_c, 0, 64, 90
1, 870926, Control_c, 0, 64, 62
1, 870941, Control_c, 0, 64, 51
1, 870955, Control_c, 0, 64, 57
1, 870970, Control_c, 0, 64, 65
1, 870979, Note_off_c, 0, 60, 59
1, 870985, Control_c, 0, 64, 82
1, 871000, Control_c, 0, 64, 127
1, 871257, Note_off_c, 0, 65, 0
1, 871266, Note_off_c, 0, 56, 53
1, 871270, Note_on_c, 0, 61, 99
1, 871271, Note_on_c, 0, 73, 95
1, 871274, Note_off_c, 0, 53, 58
1, 871283, Note_off_c, 0, 68, 64
1, 871284, Poly_aftertouch_c, 0, 65, 0
1, 871319, Note_off_c, 0, 61, 62
1, 871343, Note_off_c, 0, 73, 58
1, 871703, Note_on_c, 0, 64, 102
1, 871704, Note_on_c, 0, 76, 97
1, 871708, Note_on_c, 0, 58, 97
1, 871708, Note_on_c, 0, 66, 95
1, 871715, Note_on_c, 0, 70, 91
1, 871716, Note_on_c, 0, 54, 84
1, 871719, Control_c, 0, 64, 70
1, 871734, Control_c, 0, 64, 38
1, 871748, Control_c, 0, 64, 31
1, 871763, Control_c, 0, 64, 43
1, 871778, Control_c, 0, 64, 62
1, 871793, Control_c, 0, 64, 85
1, 871808, Control_c, 0, 64, 127
1, 871828, Note_off_c, 0, 76, 58
1, 871936, Note_off_c, 0, 64, 59
1, 872106, Note_off_c, 0, 58, 54
1, 872260, Note_on_c, 0, 75, 100
1, 872261, Note_on_c, 0, 63, 110
1, 872284, Note_off_c, 0, 70, 64
1, 872288, Note_off_c, 0, 66, 64
1, 872319, Note_off_c, 0, 75, 69
1, 872325, Note_off_c, 0, 54, 38
1, 872327, Note_off_c, 0, 63, 65
1, 872779, Control_c, 0, 64, 89
1, 872794, Control_c, 0, 64, 45
1, 872808, Note_on_c, 0, 59, 108
1, 872808, Note_on_c, 0, 75, 92
1, 872809, Control_c, 0, 64, 0
1, 872810, Note_on_c, 0, 63, 104
1, 872812, Note_on_c, 0, 47, 88
1, 872815, Note_on_c, 0, 66, 91
1, 872818, Note_on_c, 0, 54, 91
1, 872819, Note_on_c, 0, 71, 81
1, 872839, Control_c, 0, 64, 39
1, 872853, Control_c, 0, 64, 69
1, 872868, Control_c, 0, 64, 127
1, 872882, Note_off_c, 0, 63, 67
1, 872883, Note_off_c, 0, 75, 64
1, 872896, Note_off_c, 0, 47, 65
1, 872909, Note_off_c, 0, 71, 63
1, 872911, Note_off_c, 0, 66, 63
1, 872917, Note_off_c, 0, 59, 65
1, 872921, Note_off_c, 0, 54, 64
1, 873269, Note_on_c, 0, 66, 107
1, 873278, Note_on_c, 0, 63, 89
1, 873278, Note_on_c, 0, 59, 86
1, 873418, Note_on_c, 0, 71, 98
1, 873447, Note_off_c, 0, 66, 58
1, 873462, Note_off_c, 0, 59, 61
1, 873473, Note_off_c, 0, 63, 58
1, 873531, Note_on_c, 0, 83, 87
1, 873534, Note_on_c, 0, 75, 81
1, 873535, Note_on_c, 0, 78, 83
1, 873541, Note_off_c, 0, 71, 60
1, 873623, Note_on_c, 0, 71, 88
1, 873627, Note_off_c, 0, 75, 65
1, 873631, Note_off_c, 0, 83, 57
1, 873638, Note_off_c, 0, 78, 60
1, 873657, Note_off_c, 0, 71, 63
1, 873705, Note_on_c, 0, 63, 92
1, 873709, Note_on_c, 0, 59, 76
1, 873710, Note_on_c, 0, 58, 73
1, 873766, Note_off_c, 0, 63, 56
1, 873778, Note_off_c, 0, 58, 60
1, 873781, Note_on_c, 0, 66, 83
1, 873787, Note_off_c, 0, 59, 60
1, 873834, Note_on_c, 0, 71, 60
1, 873841, Note_on_c, 0, 75, 70
1, 873846, Note_off_c, 0, 66, 60
1, 873848, Note_on_c, 0, 78, 80
1, 873914, Note_on_c, 0, 66, 84
1, 873926, Note_off_c, 0, 78, 60
1, 873946, Note_off_c, 0, 71, 55
1, 873957, Note_off_c, 0, 66, 64
1, 873971, Note_off_c, 0, 75, 34
1, 873972, Note_on_c, 0, 63, 87
1, 873979, Note_on_c, 0, 56, 80
1, 873989, Note_on_c, 0, 59, 73
1, 874008, Note_off_c, 0, 63, 61
1, 874015, Note_off_c, 0, 59, 66
1, 874037, Note_on_c, 0, 68, 76
1, 874046, Note_off_c, 0, 56, 63
1, 874082, Note_on_c, 0, 71, 61
1, 874085, Note_on_c, 0, 80, 81
1, 874088, Note_off_c, 0, 68, 62
1, 874089, Note_on_c, 0, 75, 69
1, 874136, Note_off_c, 0, 80, 64
1, 874149, Note_off_c, 0, 71, 61
1, 874151, Note_off_c, 0, 75, 59
1, 874157, Note_on_c, 0, 68, 77
1, 874178, Note_off_c, 0, 68, 70
1, 874214, Note_on_c, 0, 59, 87
1, 874216, Note_on_c, 0, 54, 79
1, 874217, Control_c, 0, 64, 94
1, 874232, Control_c, 0, 64, 66
1, 874247, Control_c, 0, 64, 60
1, 874261, Control_c, 0, 64, 67
1, 874265, Note_on_c, 0, 63, 80
1, 874273, Note_off_c, 0, 59, 63
1, 874276, Control_c, 0, 64, 81
1, 874291, Control_c, 0, 64, 127
1, 874309, Note_on_c, 0, 66, 79
1, 874315, Note_off_c, 0, 63, 62
1, 874323, Note_on_c, 0, 71, 60
1, 874332, Note_on_c, 0, 75, 73
1, 874337, Note_off_c, 0, 54, 30
1, 874379, Note_off_c, 0, 66, 56
1, 874395, Note_on_c, 0, 63, 81
1, 874409, Note_off_c, 0, 71, 62
1, 874410, Note_off_c, 0, 75, 63
1, 874430, Note_off_c, 0, 63, 60
1, 874454, Note_on_c, 0, 59, 93
1, 874455, Note_on_c, 0, 52, 84
1, 874493, Note_off_c, 0, 59, 65
1, 874506, Note_off_c, 0, 52, 63
1, 874509, Note_on_c, 0, 64, 86
1, 874559, Note_off_c, 0, 64, 66
1, 874562, Note_on_c, 0, 76, 73
1, 874565, Poly_aftertouch_c, 0, 54, 0
1, 874566, Note_on_c, 0, 66, 77
1, 874571, Note_on_c, 0, 71, 60
1, 874607, Note_off_c, 0, 76, 66
1, 874609, Note_off_c, 0, 71, 62
1, 874619, Note_off_c, 0, 66, 64
1, 874631, Note_on_c, 0, 64, 87
1, 874652, Note_off_c, 0, 64, 70
1, 874669, Control_c, 0, 64, 111
1, 874675, Note_on_c, 0, 59, 88
1, 874682, Note_on_c, 0, 54, 75
1, 874684, Control_c, 0, 64, 77
1, 874685, Note_on_c, 0, 51, 81
1, 874699, Control_c, 0, 64, 73
1, 874700, Note_off_c, 0, 59, 68
1, 874714, Control_c, 0, 64, 81
1, 874726, Note_off_c, 0, 54, 62
1, 874729, Control_c, 0, 64, 108
1, 874731, Note_on_c, 0, 66, 89
1, 874738, Note_off_c, 0, 51, 64
1, 874743, Control_c, 0, 64, 127
1, 874763, Poly_aftertouch_c, 0, 64, 127
1, 874776, Note_off_c, 0, 66, 60
1, 874789, Note_on_c, 0, 78, 77
1, 874795, Note_on_c, 0, 71, 62
1, 874795, Poly_aftertouch_c, 0, 64, 0
1, 874799, Note_on_c, 0, 75, 73
1, 874831, Note_off_c, 0, 71, 61
1, 874837, Note_off_c, 0, 78, 62
1, 874854, Note_on_c, 0, 66, 87
1, 874866, Note_off_c, 0, 75, 61
1, 874872, Note_off_c, 0, 66, 73
1, 874907, Control_c, 0, 64, 99
1, 874922, Control_c, 0, 64, 63
1, 874924, Note_on_c, 0, 49, 94
1, 874929, Note_on_c, 0, 37, 79
1, 874937, Control_c, 0, 64, 38
1, 874952, Control_c, 0, 64, 45
1, 874954, Note_on_c, 0, 42, 35
1, 874964, Note_on_c, 0, 43, 57
1, 874966, Control_c, 0, 64, 61
1, 874970, Note_on_c, 0, 59, 88
1, 874981, Control_c, 0, 64, 76
1, 874996, Control_c, 0, 64, 106
1, 874997, Note_off_c, 0, 43, 63
1, 874998, Note_off_c, 0, 37, 59
1, 875001, Note_off_c, 0, 42, 47
1, 875011, Control_c, 0, 64, 127
1, 875021, Note_off_c, 0, 49, 56
1, 875022, Note_off_c, 0, 59, 60
1, 875032, Poly_aftertouch_c, 0, 36, 127
1, 875033, Note_on_c, 0, 64, 73
1, 875035, Note_on_c, 0, 71, 82
1, 875036, Note_on_c, 0, 66, 76
1, 875063, Poly_aftertouch_c, 0, 36, 0
1, 875086, Note_off_c, 0, 64, 63
1, 875090, Note_off_c, 0, 71, 50
1, 875094, Note_on_c, 0, 59, 85
1, 875098, Note_off_c, 0, 66, 64
1, 875115, Note_off_c, 0, 59, 68
1, 875152, Control_c, 0, 64, 79
1, 875158, Note_on_c, 0, 35, 86
1, 875158, Note_on_c, 0, 47, 87
1, 875166, Control_c, 0, 64, 41
1, 875170, Note_on_c, 0, 42, 82
1, 875181, Control_c, 0, 64, 0
1, 875203, Note_off_c, 0, 35, 64
1, 875208, Note_on_c, 0, 59, 83
1, 875211, Control_c, 0, 64, 41
1, 875212, Note_off_c, 0, 47, 67
1, 875215, Note_off_c, 0, 42, 62
1, 875226, Control_c, 0, 64, 69
1, 875240, Control_c, 0, 64, 127
1, 875248, Note_off_c, 0, 59, 62
1, 875256, Note_on_c, 0, 63, 74
1, 875258, Note_on_c, 0, 66, 79
1, 875280, Note_on_c, 0, 71, 67
1, 875303, Note_off_c, 0, 71, 67
1, 875311, Note_off_c, 0, 63, 62
1, 875320, Note_on_c, 0, 59, 86
1, 875322, Note_off_c, 0, 66, 62
1, 875337, Note_off_c, 0, 59, 74
1, 875388, Note_on_c, 0, 58, 33
1, 875416, Note_on_c, 0, 66, 85
1, 875423, Note_on_c, 0, 59, 45
1, 875423, Note_on_c, 0, 63, 69
1, 875438, Note_off_c, 0, 58, 43
1, 875443, Note_off_c, 0, 66, 60
1, 875451, Note_off_c, 0, 63, 62
1, 875460, Note_off_c, 0, 59, 62
1, 875463, Note_on_c, 0, 71, 80
1, 875517, Note_on_c, 0, 75, 76
1, 875517, Note_on_c, 0, 83, 86
1, 875519, Note_off_c, 0, 71, 59
1, 875529, Note_on_c, 0, 78, 68
1, 875559, Note_off_c, 0, 83, 65
1, 875570, Poly_aftertouch_c, 0, 72, 0
1, 875573, Note_on_c, 0, 71, 84
1, 875574, Note_off_c, 0, 75, 63
1, 875587, Note_off_c, 0, 78, 62
1, 875600, Note_off_c, 0, 71, 63
1, 875644, Note_on_c, 0, 63, 89
1, 875651, Note_on_c, 0, 59, 69
1, 875680, Note_on_c, 0, 57, 51
1, 875698, Note_on_c, 0, 66, 92
1, 875711, Note_off_c, 0, 63, 61
1, 875712, Note_off_c, 0, 57, 66
1, 875715, Poly_aftertouch_c, 0, 58, 127
1, 875728, Note_off_c, 0, 59, 60
1, 875741, Note_off_c, 0, 66, 61
1, 875755, Note_on_c, 0, 78, 80
1, 875757, Poly_aftertouch_c, 0, 58, 0
1, 875761, Note_on_c, 0, 71, 58
1, 875774, Note_on_c, 0, 74, 57
1, 875793, Note_off_c, 0, 74, 60
1, 875811, Note_on_c, 0, 66, 100
1, 875824, Note_off_c, 0, 71, 61
1, 875827, Note_off_c, 0, 78, 58
1, 875847, Note_off_c, 0, 66, 66
1, 875877, Note_on_c, 0, 63, 88
1, 875877, Control_c, 0, 64, 103
1, 875878, Note_on_c, 0, 56, 87
1, 875892, Note_on_c, 0, 59, 76
1, 875900, Control_c, 0, 64, 70
1, 875911, Note_off_c, 0, 63, 65
1, 875915, Control_c, 0, 64, 63
1, 875925, Note_off_c, 0, 59, 64
1, 875929, Control_c, 0, 64, 70
1, 875931, Note_on_c, 0, 68, 86
1, 875944, Control_c, 0, 64, 88
1, 875956, Note_off_c, 0, 56, 64
1, 875959, Control_c, 0, 64, 127
1, 875981, Note_on_c, 0, 80, 82
1, 875983, Note_off_c, 0, 68, 64
1, 875986, Note_on_c, 0, 75, 70
1, 875987, Note_on_c, 0, 71, 67
1, 876028, Note_off_c, 0, 80, 64
1, 876036, Note_off_c, 0, 75, 62
1, 876037, Note_on_c, 0, 68, 80
1, 876043, Note_off_c, 0, 71, 63
1, 876057, Note_off_c, 0, 68, 67
1, 876104, Note_on_c, 0, 59, 96
1, 876107, Control_c, 0, 64, 108
1, 876109, Note_on_c, 0, 54, 83
1, 876121, Control_c, 0, 64, 70
1, 876136, Control_c, 0, 64, 61
1, 876151, Control_c, 0, 64, 66
1, 876157, Note_on_c, 0, 63, 82
1, 876166, Control_c, 0, 64, 78
1, 876169, Note_off_c, 0, 54, 55
1, 876176, Note_off_c, 0, 59, 55
1, 876181, Control_c, 0, 64, 127
1, 876202, Note_off_c, 0, 63, 61
1, 876206, Note_on_c, 0, 66, 76
1, 876208, Note_on_c, 0, 71, 70
1, 876220, Note_on_c, 0, 75, 75
1, 876270, Note_on_c, 0, 63, 90
1, 876285, Note_off_c, 0, 66, 64
1, 876297, Note_off_c, 0, 71, 60
1, 876297, Note_off_c, 0, 75, 52
1, 876314, Note_off_c, 0, 63, 65
1, 876329, Control_c, 0, 64, 84
1, 876333, Note_on_c, 0, 59, 97
1, 876336, Note_on_c, 0, 52, 89
1, 876344, Control_c, 0, 64, 57
1, 876359, Control_c, 0, 64, 50
1, 876373, Note_off_c, 0, 59, 68
1, 876374, Control_c, 0, 64, 59
1, 876385, Note_on_c, 0, 64, 90
1, 876386, Note_off_c, 0, 52, 63
1, 876388, Control_c, 0, 64, 72
1, 876403, Control_c, 0, 64, 127
1, 876436, Note_off_c, 0, 64, 66
1, 876442, Note_on_c, 0, 66, 73
1, 876442, Note_on_c, 0, 71, 69
1, 876444, Note_on_c, 0, 76, 74
1, 876482, Note_on_c, 0, 74, 36
1, 876488, Note_off_c, 0, 76, 67
1, 876500, Note_on_c, 0, 64, 92
1, 876500, Note_off_c, 0, 66, 63
1, 876504, Note_off_c, 0, 71, 61
1, 876513, Note_off_c, 0, 74, 53
1, 876523, Note_off_c, 0, 64, 72
1, 876548, Note_on_c, 0, 59, 90
1, 876558, Note_on_c, 0, 54, 82
1, 876559, Note_on_c, 0, 51, 82
1, 876567, Note_off_c, 0, 59, 71
1, 876592, Note_off_c, 0, 54, 63
1, 876604, Note_off_c, 0, 51, 62
1, 876610, Note_on_c, 0, 66, 90
1, 876664, Note_off_c, 0, 66, 59
1, 876670, Note_on_c, 0, 78, 81
1, 876670, Note_on_c, 0, 75, 76
1, 876673, Note_on_c, 0, 71, 65
1, 876725, Note_off_c, 0, 71, 59
1, 876725, Note_off_c, 0, 78, 55
1, 876729, Note_on_c, 0, 66, 85
1, 876735, Note_off_c, 0, 75, 63
1, 876744, Note_off_c, 0, 66, 75
1, 876752, Control_c, 0, 64, 74
1, 876767, Control_c, 0, 64, 0
1, 876785, Note_on_c, 0, 49, 94
1, 876800, Note_on_c, 0, 37, 65
1, 876811, Control_c, 0, 64, 34
1, 876812, Note_on_c, 0, 39, 50
1, 876825, Note_off_c, 0, 49, 52
1, 876826, Control_c, 0, 64, 63
1, 876839, Note_off_c, 0, 37, 62
1, 876840, Note_on_c, 0, 60, 78
1, 876841, Control_c, 0, 64, 78
1, 876848, Note_off_c, 0, 39, 51
1, 876856, Control_c, 0, 64, 127
1, 876876, Note_off_c, 0, 60, 59
1, 876903, Note_on_c, 0, 72, 72
1, 876904, Note_on_c, 0, 71, 69
1, 876913, Note_on_c, 0, 64, 44
1, 876914, Note_on_c, 0, 65, 48
1, 876926, Note_on_c, 0, 67, 55
1, 876935, Note_off_c, 0, 72, 63
1, 876935, Note_off_c, 0, 71, 61
1, 876942, Note_off_c, 0, 65, 58
1, 876943, Note_off_c, 0, 64, 65
1, 876948, Note_off_c, 0, 67, 61
1, 876970, Note_on_c, 0, 59, 79
1, 876989, Control_c, 0, 64, 98
1, 876992, Note_on_c, 0, 47, 92
1, 876993, Note_off_c, 0, 59, 69
1, 876998, Note_on_c, 0, 35, 82
1, 877004, Note_on_c, 0, 42, 79
1, 877004, Control_c, 0, 64, 49
1, 877019, Control_c, 0, 64, 0
1, 877026, Note_off_c, 0, 35, 68
1, 877039, Note_off_c, 0, 47, 62
1, 877041, Note_off_c, 0, 42, 67
1, 877057, Note_on_c, 0, 59, 76
1, 877063, Control_c, 0, 64, 47
1, 877078, Control_c, 0, 64, 75
1, 877093, Control_c, 0, 64, 127
1, 877107, Note_off_c, 0, 59, 65
1, 877114, Note_on_c, 0, 63, 77
1, 877122, Note_on_c, 0, 66, 77
1, 877141, Note_on_c, 0, 70, 39
1, 877164, Note_off_c, 0, 66, 56
1, 877166, Note_off_c, 0, 63, 64
1, 877170, Note_off_c, 0, 70, 55
1, 877176, Note_on_c, 0, 57, 66
1, 877176, Note_on_c, 0, 71, 19
1, 877177, Note_on_c, 0, 59, 80
1, 877195, Note_off_c, 0, 59, 73
1, 877196, Note_off_c, 0, 57, 64
1, 877206, Note_off_c, 0, 71, 0
1, 877229, Poly_aftertouch_c, 0, 71, 0
1, 877252, Note_on_c, 0, 66, 89
1, 877257, Note_on_c, 0, 59, 68
1, 877306, Note_on_c, 0, 71, 86
1, 877311, Note_off_c, 0, 66, 64
1, 877320, Note_off_c, 0, 59, 65
1, 877358, Note_on_c, 0, 83, 87
1, 877362, Note_on_c, 0, 75, 78
1, 877366, Note_off_c, 0, 71, 60
1, 877375, Note_on_c, 0, 78, 68
1, 877408, Note_off_c, 0, 78, 65
1, 877408, Note_off_c, 0, 83, 65
1, 877425, Note_off_c, 0, 75, 64
1, 877435, Note_on_c, 0, 71, 74
1, 877451, Note_off_c, 0, 71, 72
1, 877478, Note_on_c, 0, 58, 74
1, 877484, Note_on_c, 0, 59, 77
1, 877484, Note_on_c, 0, 63, 84
1, 877527, Note_off_c, 0, 63, 64
1, 877537, Note_off_c, 0, 58, 60
1, 877542, Note_on_c, 0, 66, 98
1, 877549, Note_off_c, 0, 59, 64
1, 877585, Note_on_c, 0, 71, 55
1, 877597, Note_on_c, 0, 78, 87
1, 877598, Note_off_c, 0, 66, 58
1, 877601, Note_on_c, 0, 75, 75
1, 877652, Note_on_c, 0, 66, 92
1, 877677, Note_off_c, 0, 71, 61
1, 877678, Note_off_c, 0, 78, 53
1, 877685, Note_off_c, 0, 75, 53
1, 877689, Note_off_c, 0, 66, 67
1, 877710, Note_on_c, 0, 63, 93
1, 877714, Note_on_c, 0, 56, 86
1, 877723, Note_on_c, 0, 59, 75
1, 877754, Note_off_c, 0, 63, 65
1, 877767, Note_on_c, 0, 68, 86
1, 877783, Note_off_c, 0, 56, 61
1, 877794, Note_off_c, 0, 59, 58
1, 877808, Note_on_c, 0, 71, 65
1, 877809, Note_on_c, 0, 75, 69
1, 877809, Note_on_c, 0, 80, 82
1, 877809, Note_off_c, 0, 68, 65
1, 877866, Note_on_c, 0, 68, 83
1, 877868, Note_off_c, 0, 80, 60
1, 877876, Note_off_c, 0, 71, 62
1, 877876, Note_off_c, 0, 75, 62
1, 877889, Note_off_c, 0, 68, 68
1, 877922, Note_on_c, 0, 54, 90
1, 877923, Note_on_c, 0, 59, 90
1, 877930, Control_c, 0, 64, 94
1, 877945, Control_c, 0, 64, 62
1, 877955, Note_off_c, 0, 59, 67
1, 877959, Control_c, 0, 64, 50
1, 877974, Control_c, 0, 64, 58
1, 877976, Note_off_c, 0, 54, 61
1, 877978, Note_on_c, 0, 63, 89
1, 877989, Control_c, 0, 64, 68
1, 878005, Control_c, 0, 64, 95
1, 878020, Control_c, 0, 64, 127
1, 878024, Note_on_c, 0, 71, 73
1, 878024, Note_off_c, 0, 63, 64
1, 878028, Note_on_c, 0, 66, 77
1, 878032, Note_on_c, 0, 75, 79
1, 878051, Note_on_c, 0, 68, 37
1, 878077, Note_off_c, 0, 71, 61
1, 878080, Note_off_c, 0, 68, 52
1, 878087, Note_on_c, 0, 63, 83
1, 878089, Note_off_c, 0, 75, 57
1, 878092, Note_off_c, 0, 66, 65
1, 878106, Note_off_c, 0, 63, 68
1, 878158, Note_on_c, 0, 59, 75
1, 878161, Note_on_c, 0, 63, 72
1, 878164, Note_on_c, 0, 66, 89
1, 878215, Note_off_c, 0, 66, 63
1, 878218, Note_on_c, 0, 71, 91
1, 878220, Note_off_c, 0, 63, 61
1, 878226, Note_off_c, 0, 59, 64
1, 878265, Note_off_c, 0, 71, 54
1, 878269, Note_on_c, 0, 83, 89
1, 878279, Note_on_c, 0, 75, 79
1, 878290, Note_on_c, 0, 78, 71
1, 878310, Note_off_c, 0, 83, 64
1, 878331, Note_on_c, 0, 71, 81
1, 878336, Note_off_c, 0, 75, 65
1, 878342, Note_off_c, 0, 78, 59
1, 878352, Note_off_c, 0, 71, 70
1, 878385, Note_on_c, 0, 63, 95
1, 878387, Note_on_c, 0, 58, 77
1, 878391, Note_on_c, 0, 59, 75
1, 878434, Note_off_c, 0, 58, 59
1, 878443, Note_off_c, 0, 63, 58
1, 878444, Note_on_c, 0, 66, 91
1, 878469, Note_off_c, 0, 59, 63
1, 878485, Note_off_c, 0, 66, 65
1, 878487, Note_on_c, 0, 71, 65
1, 878500, Note_on_c, 0, 75, 71
1, 878500, Note_on_c, 0, 78, 86
1, 878546, Note_on_c, 0, 66, 93
1, 878561, Note_off_c, 0, 71, 62
1, 878569, Note_off_c, 0, 75, 59
1, 878575, Note_off_c, 0, 78, 56
1, 878592, Note_off_c, 0, 66, 66
1, 878613, Note_on_c, 0, 63, 97
1, 878616, Note_on_c, 0, 56, 82
1, 878619, Control_c, 0, 64, 79
1, 878625, Note_on_c, 0, 59, 76
1, 878634, Control_c, 0, 64, 59
1, 878649, Control_c, 0, 64, 57
1, 878662, Note_on_c, 0, 68, 90
1, 878664, Note_off_c, 0, 63, 64
1, 878664, Control_c, 0, 64, 67
1, 878679, Control_c, 0, 64, 84
1, 878694, Control_c, 0, 64, 127
1, 878695, Note_off_c, 0, 56, 63
1, 878708, Note_on_c, 0, 71, 71
1, 878708, Note_on_c, 0, 80, 86
1, 878710, Note_off_c, 0, 59, 56
1, 878716, Note_off_c, 0, 68, 64
1, 878717, Note_on_c, 0, 75, 76
1, 878762, Note_off_c, 0, 80, 64
1, 878774, Note_on_c, 0, 68, 80
1, 878774, Note_off_c, 0, 75, 62
1, 878780, Note_off_c, 0, 71, 64
1, 878794, Note_off_c, 0, 68, 66
1, 878828, Note_on_c, 0, 54, 89
1, 878831, Note_on_c, 0, 60, 82
1, 878843, Control_c, 0, 64, 101
1, 878857, Control_c, 0, 64, 63
1, 878864, Note_off_c, 0, 60, 67
1, 878867, Note_on_c, 0, 59, 31
1, 878872, Control_c, 0, 64, 38
1, 878894, Control_c, 0, 64, 46
1, 878895, Note_off_c, 0, 59, 37
1, 878900, Note_on_c, 0, 63, 85
1, 878906, Note_off_c, 0, 54, 59
1, 878909, Control_c, 0, 64, 61
1, 878924, Control_c, 0, 64, 76
1, 878938, Control_c, 0, 64, 127
1, 878941, Note_on_c, 0, 66, 81
1, 878942, Note_off_c, 0, 63, 64
1, 878951, Note_on_c, 0, 71, 72
1, 878951, Note_on_c, 0, 75, 72
1, 879007, Note_on_c, 0, 63, 92
1, 879009, Note_off_c, 0, 66, 66
1, 879012, Note_off_c, 0, 71, 61
1, 879013, Note_off_c, 0, 75, 54
1, 879038, Note_off_c, 0, 63, 66
1, 879102, Note_on_c, 0, 59, 84
1, 879103, Note_on_c, 0, 63, 86
1, 879146, Control_c, 0, 64, 104
1, 879161, Control_c, 0, 64, 68
1, 879176, Control_c, 0, 64, 55
1, 879191, Note_on_c, 0, 71, 89
1, 879191, Control_c, 0, 64, 58
1, 879206, Control_c, 0, 64, 68
1, 879215, Note_off_c, 0, 59, 55
1, 879220, Control_c, 0, 64, 87
1, 879227, Note_off_c, 0, 63, 55
1, 879235, Control_c, 0, 64, 127
1, 879281, Note_on_c, 0, 83, 90
1, 879281, Note_on_c, 0, 75, 81
1, 879285, Note_on_c, 0, 78, 80
1, 879291, Note_off_c, 0, 71, 64
1, 879358, Note_on_c, 0, 71, 88
1, 879362, Poly_aftertouch_c, 0, 80, 127
1, 879365, Note_off_c, 0, 75, 61
1, 879365, Note_off_c, 0, 83, 59
1, 879369, Note_off_c, 0, 78, 61
1, 879388, Poly_aftertouch_c, 0, 80, 0
1, 879389, Note_off_c, 0, 71, 64
1, 879415, Note_on_c, 0, 66, 90
1, 879421, Note_on_c, 0, 61, 76
1, 879423, Note_on_c, 0, 63, 78
1, 879478, Note_off_c, 0, 66, 56
1, 879481, Note_off_c, 0, 63, 62
1, 879485, Note_on_c, 0, 73, 89
1, 879498, Note_off_c, 0, 61, 56
1, 879532, Note_on_c, 0, 85, 86
1, 879557, Note_on_c, 0, 75, 80
1, 879599, Note_off_c, 0, 85, 62
1, 879605, Note_off_c, 0, 75, 62
1, 879610, Note_off_c, 0, 73, 62
1, 879654, Note_on_c, 0, 66, 94
1, 879659, Note_on_c, 0, 59, 76
1, 879659, Note_on_c, 0, 63, 86
1, 879688, Note_off_c, 0, 59, 61
1, 879701, Note_off_c, 0, 66, 64
1, 879704, Note_off_c, 0, 63, 63
1, 879708, Note_on_c, 0, 71, 85
1, 879740, Note_off_c, 0, 71, 55
1, 879755, Note_on_c, 0, 75, 72
1, 879761, Note_on_c, 0, 83, 78
1, 879807, Note_off_c, 0, 83, 61
1, 879811, Note_on_c, 0, 71, 86
1, 879812, Note_off_c, 0, 75, 64
1, 879830, Note_off_c, 0, 71, 67
1, 879866, Control_c, 0, 64, 113
1, 879874, Note_on_c, 0, 64, 89
1, 879877, Note_on_c, 0, 71, 96
1, 879880, Note_on_c, 0, 66, 82
1, 879881, Control_c, 0, 64, 68
1, 879895, Control_c, 0, 64, 56
1, 879910, Control_c, 0, 64, 62
1, 879925, Control_c, 0, 64, 72
1, 879937, Note_on_c, 0, 76, 95
1, 879940, Note_off_c, 0, 71, 56
1, 879940, Control_c, 0, 64, 103
1, 879949, Note_off_c, 0, 66, 63
1, 879952, Note_off_c, 0, 64, 63
1, 879955, Control_c, 0, 64, 127
1, 879968, Note_off_c, 0, 76, 67
1, 879979, Note_on_c, 0, 88, 82
1, 880000, Note_on_c, 0, 83, 62
1, 880004, Note_on_c, 0, 78, 82
1, 880027, Note_off_c, 0, 88, 66
1, 880038, Note_on_c, 0, 76, 87
1, 880047, Note_off_c, 0, 83, 61
1, 880048, Note_off_c, 0, 78, 63
1, 880060, Note_off_c, 0, 76, 68
1, 880090, Note_on_c, 0, 63, 90
1, 880090, Note_on_c, 0, 71, 104
1, 880095, Note_on_c, 0, 66, 84
1, 880126, Note_off_c, 0, 71, 67
1, 880137, Note_off_c, 0, 66, 66
1, 880148, Note_on_c, 0, 75, 91
1, 880155, Note_off_c, 0, 63, 62
1, 880190, Note_off_c, 0, 75, 62
1, 880201, Note_on_c, 0, 83, 68
1, 880206, Note_on_c, 0, 87, 81
1, 880217, Note_on_c, 0, 78, 27
1, 880253, Note_off_c, 0, 78, 31
1, 880254, Note_on_c, 0, 75, 92
1, 880259, Note_off_c, 0, 83, 63
1, 880268, Note_off_c, 0, 87, 60
1, 880271, Poly_aftertouch_c, 0, 80, 127
1, 880289, Note_off_c, 0, 75, 67
1, 880295, Poly_aftertouch_c, 0, 80, 0
1, 880310, Control_c, 0, 64, 121
1, 880312, Note_on_c, 0, 71, 85
1, 880319, Note_on_c, 0, 68, 65
1, 880324, Note_on_c, 0, 75, 82
1, 880325, Control_c, 0, 64, 68
1, 880340, Control_c, 0, 64, 49
1, 880354, Control_c, 0, 64, 54
1, 880369, Control_c, 0, 64, 64
1, 880378, Note_on_c, 0, 80, 96
1, 880387, Note_off_c, 0, 71, 58
1, 880392, Control_c, 0, 64, 82
1, 880403, Note_off_c, 0, 75, 61
1, 880407, Control_c, 0, 64, 127
1, 880420, Note_off_c, 0, 68, 61
1, 880430, Note_off_c, 0, 80, 64
1, 880434, Note_on_c, 0, 92, 87
1, 880445, Note_on_c, 0, 87, 68
1, 880447, Note_on_c, 0, 83, 66
1, 880493, Note_on_c, 0, 80, 95
1, 880505, Note_off_c, 0, 87, 64
1, 880506, Note_off_c, 0, 83, 65
1, 880508, Note_off_c, 0, 92, 67
1, 880530, Note_off_c, 0, 80, 67
1, 880556, Note_on_c, 0, 75, 103
1, 880557, Note_on_c, 0, 66, 87
1, 880560, Note_on_c, 0, 71, 86
1, 880603, Note_off_c, 0, 75, 64
1, 880608, Note_off_c, 0, 71, 62
1, 880614, Note_on_c, 0, 78, 92
1, 880626, Note_off_c, 0, 66, 62
1, 880633, Note_on_c, 0, 82, 63
1, 880649, Note_off_c, 0, 78, 65
1, 880653, Note_off_c, 0, 82, 60
1, 880655, Note_on_c, 0, 83, 71
1, 880657, Note_on_c, 0, 87, 79
1, 880670, Note_on_c, 0, 90, 88
1, 880701, Note_off_c, 0, 83, 42
1, 880710, Note_on_c, 0, 78, 90
1, 880718, Note_off_c, 0, 87, 65
1, 880728, Note_off_c, 0, 90, 65
1, 880741, Note_off_c, 0, 78, 60
1, 880742, Note_on_c, 0, 71, 87
1, 880930, Note_on_c, 0, 75, 94
1, 880930, Note_on_c, 0, 83, 110
1, 880933, Note_on_c, 0, 78, 104
1, 880934, Note_on_c, 0, 95, 98
1, 880935, Note_on_c, 0, 87, 92
1, 880938, Note_on_c, 0, 90, 92
1, 880956, Control_c, 0, 64, 64
1, 880971, Control_c, 0, 64, 0
1, 880974, Note_on_c, 0, 92, 55
1, 881000, Note_off_c, 0, 92, 53
1, 881089, Control_c, 0, 64, 29
1, 881103, Control_c, 0, 64, 59
1, 881118, Control_c, 0, 64, 67
1, 881141, Control_c, 0, 64, 75
1, 881156, Control_c, 0, 64, 84
1, 881170, Control_c, 0, 64, 104
1, 881185, Control_c, 0, 64, 127
1, 881308, Note_off_c, 0, 83, 61
1, 881374, Note_off_c, 0, 95, 60
1, 881407, Note_off_c, 0, 71, 60
1, 881414, Note_off_c, 0, 87, 52
1, 881425, Note_off_c, 0, 75, 58
1, 881431, Note_off_c, 0, 78, 50
1, 881447, Note_off_c, 0, 90, 56
1, 882090, Note_on_c, 0, 87, 103
1, 882091, Note_on_c, 0, 99, 99
1, 882095, Note_on_c, 0, 83, 97
1, 882097, Note_on_c, 0, 71, 86
1, 882098, Note_on_c, 0, 95, 84
1, 882105, Note_on_c, 0, 78, 87
1, 882181, Note_off_c, 0, 95, 62
1, 882182, Note_off_c, 0, 71, 58
1, 882185, Note_off_c, 0, 78, 58
1, 882190, Note_off_c, 0, 87, 56
1, 882191, Note_off_c, 0, 83, 55
1, 882192, Note_off_c, 0, 99, 62
1, 882258, Note_on_c, 0, 83, 106
1, 882261, Note_on_c, 0, 87, 112
1, 882263, Note_on_c, 0, 71, 88
1, 882264, Note_on_c, 0, 99, 107
1, 882270, Note_on_c, 0, 78, 94
1, 882271, Note_on_c, 0, 95, 95
1, 882350, Note_off_c, 0, 99, 64
1, 882351, Note_off_c, 0, 87, 64
1, 882361, Note_off_c, 0, 95, 65
1, 882426, Note_off_c, 0, 83, 55
1, 882532, Note_off_c, 0, 78, 38
1, 882782, Note_off_c, 0, 71, 51
1, 883902, Note_on_c, 0, 47, 100
1, 883902, Note_on_c, 0, 59, 97
1, 883911, Note_on_c, 0, 35, 96
1, 883912, Note_on_c, 0, 23, 91
1, 884065, Note_off_c, 0, 35, 57
1, 884081, Note_off_c, 0, 23, 59
1, 884092, Note_off_c, 0, 59, 55
1, 884100, Note_off_c, 0, 47, 58
1, 884200, Note_on_c, 0, 47, 101
1, 884202, Note_on_c, 0, 59, 98
1, 884206, Note_on_c, 0, 35, 101
1, 884206, Note_on_c, 0, 23, 90
1, 885687, Note_off_c, 0, 35, 34
1, 886951, Note_off_c, 0, 23, 33
1, 889735, Note_off_c, 0, 47, 38
1, 889860, Note_off_c, 0, 59, 50
1, 889866, Control_c, 0, 64, 109
1, 889881, Control_c, 0, 64, 94
1, 889896, Control_c, 0, 64, 83
1, 889911, Control_c, 0, 64, 73
1, 889925, Control_c, 0, 64, 66
1, 889940, Control_c, 0, 64, 62
1, 889955, Control_c, 0, 64, 59
1, 889970, Control_c, 0, 64, 56
1, 889986, Control_c, 0, 64, 53
1, 890000, Control_c, 0, 64, 49
1, 890015, Control_c, 0, 64, 44
1, 890030, Control_c, 0, 64, 38
1, 890045, Control_c, 0, 64, 32
1, 890060, Control_c, 0, 64, 0
1, 890060, End_track
0, 0, End_of_file
