0, 0, Header, 0, 1, 384
1, 0, Start_track
1, 0, Title_t, "Sonata #3 in f, Op.5--Yang      "
1, 0, Text_t, "2009 International Piano-e-Competition finals"
1, 0, Text_t, "captured June-July 2009"
1, 0, Text_t, "http://www.piano-e-competition.com/"
1, 0, Text_t, "standard-resolution version"
1, 0, Text_t, "File processed for distribution by software from Zenph Studios, Inc., http://www.zenph.com"
1, 0, Instrument_name_t, "Yamaha Disklavier Pro Mark IV concert grand piano, model DCFIIISM4PRO"
1, 0, Sequencer_specific, 39, 67, 113, 0, 1, 0, 1, 0, 83, 111, 110, 97, 116, 97, 32, 70, 109, 44, 32, 79, 112, 46, 53, 32, 67, 108, 97, 114, 97, 32, 89, 97, 110, 103, 32, 32, 32, 32, 32, 32
1, 0, Sequencer_specific, 6, 67, 113, 0, 0, 0, 69
1, 0, System_exclusive, 21, 67, 113, 126, 21, 0, 2, 2, 2, 3, 12, 8, 4, 10, 4, 10, 10, 7, 0, 3, 2, 247
1, 0, Sequencer_specific, 5, 67, 123, 12, 2, 1
1, 0, Tempo, 512820
1, 0, Time_signature, 4, 2, 24, 8
1, 0, System_exclusive, 5, 126, 127, 9, 1, 247
1, 1, System_exclusive, 8, 67, 16, 76, 0, 0, 126, 0, 247
1, 2, System_exclusive, 8, 67, 16, 76, 8, 9, 7, 1, 247
1, 3, Control_c, 0, 0, 0
1, 3, Control_c, 1, 0, 0
1, 3, Control_c, 2, 0, 0
1, 3, Control_c, 3, 0, 0
1, 3, Control_c, 4, 0, 0
1, 3, Control_c, 5, 0, 0
1, 3, Control_c, 6, 0, 0
1, 3, Control_c, 7, 0, 0
1, 3, Control_c, 8, 0, 0
1, 3, Control_c, 9, 0, 127
1, 3, Control_c, 10, 0, 0
1, 3, Control_c, 11, 0, 0
1, 3, Control_c, 12, 0, 0
1, 3, Control_c, 13, 0, 0
1, 3, Control_c, 14, 0, 0
1, 3, Control_c, 15, 0, 0
1, 4, Control_c, 0, 32, 0
1, 4, Control_c, 1, 32, 0
1, 4, Control_c, 2, 32, 0
1, 4, Control_c, 3, 32, 0
1, 4, Control_c, 4, 32, 0
1, 4, Control_c, 5, 32, 0
1, 4, Control_c, 6, 32, 0
1, 4, Control_c, 7, 32, 0
1, 4, Control_c, 8, 32, 0
1, 4, Control_c, 9, 32, 0
1, 4, Control_c, 10, 32, 0
1, 4, Control_c, 11, 32, 0
1, 4, Control_c, 12, 32, 0
1, 4, Control_c, 13, 32, 0
1, 4, Control_c, 14, 32, 0
1, 4, Control_c, 15, 32, 0
1, 5, Program_c, 0, 0
1, 5, Program_c, 1, 0
1, 5, Program_c, 2, 0
1, 5, Program_c, 3, 0
1, 5, Program_c, 4, 0
1, 5, Program_c, 5, 0
1, 5, Program_c, 6, 0
1, 5, Program_c, 7, 0
1, 5, Program_c, 8, 0
1, 5, Program_c, 9, 0
1, 5, Program_c, 10, 0
1, 5, Program_c, 11, 0
1, 5, Program_c, 12, 0
1, 5, Program_c, 13, 0
1, 5, Program_c, 14, 0
1, 5, Program_c, 15, 0
1, 6, Control_c, 0, 7, 100
1, 6, Control_c, 1, 7, 100
1, 6, Control_c, 2, 7, 100
1, 6, Control_c, 3, 7, 100
1, 6, Control_c, 4, 7, 100
1, 6, Control_c, 5, 7, 100
1, 6, Control_c, 6, 7, 100
1, 6, Control_c, 7, 7, 100
1, 6, Control_c, 8, 7, 100
1, 6, Control_c, 9, 7, 100
1, 6, Control_c, 10, 7, 100
1, 6, Control_c, 11, 7, 100
1, 6, Control_c, 12, 7, 100
1, 6, Control_c, 13, 7, 100
1, 6, Control_c, 14, 7, 100
1, 6, Control_c, 15, 7, 100
1, 117, Control_c, 0, 64, 15
1, 229, Control_c, 0, 64, 31
1, 341, Control_c, 0, 64, 46
1, 452, Control_c, 0, 64, 63
1, 564, Control_c, 0, 64, 77
1, 676, Control_c, 0, 64, 94
1, 787, Control_c, 0, 64, 108
1, 899, Control_c, 0, 64, 127
1, 1128, Note_on_c, 0, 53, 86
1, 1133, Note_on_c, 0, 41, 86
1, 1133, Note_on_c, 0, 29, 80
1, 1184, Note_off_c, 0, 29, 63
1, 1203, Note_off_c, 0, 41, 62
1, 1211, Note_off_c, 0, 53, 66
1, 1724, Note_on_c, 0, 53, 70
1, 1732, Note_on_c, 0, 80, 86
1, 1735, Note_on_c, 0, 65, 68
1, 1736, Note_on_c, 0, 72, 59
1, 1741, Note_on_c, 0, 68, 73
1, 1743, Note_on_c, 0, 60, 69
1, 1840, Note_off_c, 0, 53, 64
1, 1840, Note_off_c, 0, 68, 63
1, 1874, Note_off_c, 0, 72, 64
1, 2106, Note_off_c, 0, 60, 36
1, 2145, Note_off_c, 0, 80, 56
1, 2149, Note_on_c, 0, 55, 74
1, 2153, Note_on_c, 0, 79, 71
1, 2153, Note_off_c, 0, 65, 56
1, 2201, Note_off_c, 0, 79, 62
1, 2206, Note_on_c, 0, 77, 85
1, 2214, Note_on_c, 0, 56, 80
1, 2251, Control_c, 0, 64, 108
1, 2256, Note_off_c, 0, 55, 63
1, 2257, Note_on_c, 0, 58, 80
1, 2265, Control_c, 0, 64, 70
1, 2267, Note_on_c, 0, 61, 80
1, 2268, Note_on_c, 0, 85, 89
1, 2271, Note_on_c, 0, 79, 69
1, 2273, Note_on_c, 0, 73, 84
1, 2277, Note_on_c, 0, 67, 76
1, 2280, Control_c, 0, 64, 0
1, 2307, Note_off_c, 0, 77, 61
1, 2308, Note_off_c, 0, 56, 64
1, 2335, Note_off_c, 0, 67, 63
1, 2339, Control_c, 0, 64, 63
1, 2349, Note_off_c, 0, 73, 64
1, 2354, Control_c, 0, 64, 83
1, 2364, Note_off_c, 0, 61, 61
1, 2369, Control_c, 0, 64, 127
1, 2373, Note_off_c, 0, 85, 66
1, 2382, Note_off_c, 0, 58, 57
1, 2396, Note_off_c, 0, 79, 61
1, 2761, Control_c, 0, 64, 93
1, 2768, Note_on_c, 0, 52, 98
1, 2776, Control_c, 0, 64, 61
1, 2777, Note_on_c, 0, 40, 95
1, 2785, Note_on_c, 0, 28, 80
1, 2791, Control_c, 0, 64, 0
1, 2809, Note_off_c, 0, 28, 63
1, 2815, Note_off_c, 0, 52, 64
1, 2820, Control_c, 0, 64, 52
1, 2826, Note_off_c, 0, 40, 66
1, 2836, Control_c, 0, 64, 76
1, 2851, Control_c, 0, 64, 127
1, 3341, Note_on_c, 0, 85, 99
1, 3342, Note_on_c, 0, 58, 86
1, 3345, Note_on_c, 0, 73, 88
1, 3347, Note_on_c, 0, 67, 83
1, 3348, Note_on_c, 0, 79, 76
1, 3353, Note_on_c, 0, 64, 70
1, 3470, Note_off_c, 0, 73, 64
1, 3479, Note_off_c, 0, 58, 60
1, 3491, Note_off_c, 0, 79, 62
1, 3679, Note_off_c, 0, 64, 51
1, 3703, Note_off_c, 0, 85, 59
1, 3717, Note_off_c, 0, 67, 35
1, 3730, Note_on_c, 0, 60, 74
1, 3730, Note_on_c, 0, 84, 76
1, 3789, Note_on_c, 0, 82, 91
1, 3792, Note_on_c, 0, 61, 44
1, 3798, Note_off_c, 0, 84, 60
1, 3814, Note_off_c, 0, 60, 62
1, 3822, Note_on_c, 0, 66, 76
1, 3837, Control_c, 0, 64, 90
1, 3846, Note_on_c, 0, 90, 97
1, 3852, Control_c, 0, 64, 0
1, 3852, Note_on_c, 0, 78, 87
1, 3859, Note_on_c, 0, 84, 67
1, 3861, Note_on_c, 0, 69, 91
1, 3867, Note_on_c, 0, 60, 61
1, 3869, Note_off_c, 0, 61, 0
1, 3891, Note_off_c, 0, 82, 64
1, 3897, Control_c, 0, 64, 42
1, 3898, Note_off_c, 0, 69, 65
1, 3906, Poly_aftertouch_c, 0, 61, 127
1, 3908, Note_off_c, 0, 78, 66
1, 3911, Control_c, 0, 64, 81
1, 3926, Note_off_c, 0, 60, 64
1, 3926, Note_off_c, 0, 66, 62
1, 3926, Control_c, 0, 64, 127
1, 3938, Poly_aftertouch_c, 0, 61, 0
1, 3941, Note_off_c, 0, 90, 66
1, 3956, Note_off_c, 0, 84, 59
1, 4377, Control_c, 0, 64, 100
1, 4392, Control_c, 0, 64, 64
1, 4394, Note_on_c, 0, 51, 102
1, 4403, Note_on_c, 0, 39, 93
1, 4407, Control_c, 0, 64, 0
1, 4409, Note_on_c, 0, 27, 90
1, 4437, Note_off_c, 0, 27, 67
1, 4438, Control_c, 0, 64, 40
1, 4439, Note_off_c, 0, 51, 64
1, 4453, Control_c, 0, 64, 80
1, 4455, Note_off_c, 0, 39, 64
1, 4467, Control_c, 0, 64, 127
1, 4997, Note_on_c, 0, 90, 99
1, 4999, Note_on_c, 0, 78, 93
1, 5004, Note_on_c, 0, 63, 86
1, 5006, Note_on_c, 0, 84, 86
1, 5007, Note_on_c, 0, 72, 90
1, 5008, Note_on_c, 0, 69, 77
1, 5126, Note_off_c, 0, 78, 65
1, 5133, Note_off_c, 0, 63, 61
1, 5138, Note_off_c, 0, 84, 66
1, 5187, Note_off_c, 0, 72, 54
1, 5348, Note_off_c, 0, 69, 54
1, 5369, Note_off_c, 0, 90, 59
1, 5381, Note_on_c, 0, 65, 57
1, 5381, Note_on_c, 0, 89, 81
1, 5411, Note_on_c, 0, 66, 79
1, 5445, Note_off_c, 0, 65, 62
1, 5455, Note_on_c, 0, 87, 90
1, 5456, Note_off_c, 0, 66, 65
1, 5472, Note_off_c, 0, 89, 60
1, 5497, Control_c, 0, 64, 70
1, 5511, Note_on_c, 0, 94, 105
1, 5512, Control_c, 0, 64, 0
1, 5513, Note_on_c, 0, 82, 100
1, 5518, Note_on_c, 0, 77, 99
1, 5521, Note_on_c, 0, 65, 95
1, 5521, Note_on_c, 0, 70, 92
1, 5522, Note_on_c, 0, 89, 82
1, 5539, Note_off_c, 0, 65, 71
1, 5539, Note_off_c, 0, 77, 63
1, 5542, Control_c, 0, 64, 27
1, 5548, Note_off_c, 0, 87, 65
1, 5557, Control_c, 0, 64, 81
1, 5566, Note_off_c, 0, 70, 65
1, 5572, Control_c, 0, 64, 127
1, 5577, Note_off_c, 0, 82, 66
1, 5601, Note_off_c, 0, 94, 70
1, 5623, Note_off_c, 0, 89, 57
1, 6054, Control_c, 0, 64, 105
1, 6069, Control_c, 0, 64, 68
1, 6082, Note_on_c, 0, 50, 114
1, 6084, Control_c, 0, 64, 0
1, 6088, Note_on_c, 0, 38, 103
1, 6091, Note_on_c, 0, 26, 92
1, 6117, Note_off_c, 0, 26, 70
1, 6117, Note_off_c, 0, 50, 73
1, 6128, Control_c, 0, 64, 69
1, 6132, Note_off_c, 0, 38, 67
1, 6143, Control_c, 0, 64, 98
1, 6155, Note_on_c, 0, 32, 3
1, 6157, Control_c, 0, 64, 127
1, 6195, Note_off_c, 0, 32, 51
1, 6670, Note_on_c, 0, 101, 102
1, 6671, Note_on_c, 0, 65, 96
1, 6671, Note_on_c, 0, 77, 99
1, 6672, Note_on_c, 0, 89, 106
1, 6673, Note_on_c, 0, 94, 104
1, 6675, Note_on_c, 0, 70, 94
1, 6698, Note_off_c, 0, 77, 71
1, 6705, Note_off_c, 0, 65, 68
1, 6721, Note_off_c, 0, 70, 69
1, 6734, Note_off_c, 0, 89, 62
1, 6740, Note_off_c, 0, 101, 68
1, 6768, Note_off_c, 0, 94, 59
1, 7240, Control_c, 0, 64, 95
1, 7254, Control_c, 0, 64, 69
1, 7259, Note_on_c, 0, 49, 115
1, 7265, Note_on_c, 0, 37, 94
1, 7268, Note_on_c, 0, 25, 92
1, 7269, Control_c, 0, 64, 63
1, 7284, Control_c, 0, 64, 74
1, 7290, Note_off_c, 0, 49, 70
1, 7296, Note_off_c, 0, 37, 65
1, 7299, Control_c, 0, 64, 94
1, 7301, Note_off_c, 0, 25, 65
1, 7314, Control_c, 0, 64, 127
1, 7346, Poly_aftertouch_c, 0, 27, 127
1, 7405, Poly_aftertouch_c, 0, 27, 0
1, 7557, Note_on_c, 0, 24, 94
1, 7566, Control_c, 0, 64, 85
1, 7580, Control_c, 0, 64, 0
1, 7635, Note_on_c, 0, 29, 52
1, 7641, Control_c, 0, 64, 68
1, 7656, Control_c, 0, 64, 104
1, 7661, Note_on_c, 0, 36, 98
1, 7670, Control_c, 0, 64, 127
1, 7672, Note_off_c, 0, 24, 63
1, 7683, Note_off_c, 0, 29, 63
1, 7702, Note_off_c, 0, 36, 62
1, 7993, Poly_aftertouch_c, 0, 96, 0
1, 8007, Note_on_c, 0, 96, 57
1, 8010, Note_on_c, 0, 92, 102
1, 8011, Note_on_c, 0, 77, 100
1, 8011, Note_on_c, 0, 101, 105
1, 8012, Note_on_c, 0, 65, 88
1, 8012, Note_on_c, 0, 89, 102
1, 8015, Note_on_c, 0, 68, 85
1, 8015, Note_on_c, 0, 72, 84
1, 8689, Note_off_c, 0, 101, 57
1, 8705, Note_off_c, 0, 89, 58
1, 8743, Note_off_c, 0, 77, 55
1, 8750, Note_off_c, 0, 96, 59
1, 8767, Note_off_c, 0, 65, 49
1, 8774, Note_off_c, 0, 92, 62
1, 8842, Note_off_c, 0, 72, 49
1, 8855, Note_off_c, 0, 68, 57
1, 9197, Control_c, 0, 64, 110
1, 9203, Note_on_c, 0, 91, 91
1, 9206, Note_on_c, 0, 100, 92
1, 9210, Note_on_c, 0, 88, 100
1, 9210, Note_on_c, 0, 96, 84
1, 9212, Control_c, 0, 64, 80
1, 9214, Note_on_c, 0, 76, 97
1, 9218, Note_on_c, 0, 64, 82
1, 9220, Note_on_c, 0, 72, 80
1, 9223, Note_on_c, 0, 67, 75
1, 9228, Control_c, 0, 64, 69
1, 9242, Control_c, 0, 64, 76
1, 9256, Note_off_c, 0, 76, 66
1, 9257, Control_c, 0, 64, 95
1, 9272, Control_c, 0, 64, 127
1, 9277, Note_off_c, 0, 72, 65
1, 9287, Note_off_c, 0, 67, 61
1, 9294, Note_off_c, 0, 64, 62
1, 9295, Note_off_c, 0, 91, 67
1, 9307, Note_off_c, 0, 88, 63
1, 9308, Note_off_c, 0, 100, 62
1, 9311, Note_off_c, 0, 96, 65
1, 9462, Note_on_c, 0, 72, 35
1, 9477, Note_on_c, 0, 89, 85
1, 9477, Note_on_c, 0, 96, 88
1, 9481, Note_on_c, 0, 86, 100
1, 9481, Note_on_c, 0, 98, 101
1, 9483, Note_on_c, 0, 74, 96
1, 9491, Note_on_c, 0, 62, 39
1, 9492, Note_on_c, 0, 65, 56
1, 9519, Note_off_c, 0, 74, 69
1, 9525, Note_off_c, 0, 62, 62
1, 9528, Note_off_c, 0, 86, 67
1, 9529, Note_off_c, 0, 89, 62
1, 9532, Note_off_c, 0, 72, 63
1, 9563, Note_off_c, 0, 65, 57
1, 9581, Note_off_c, 0, 98, 63
1, 9589, Poly_aftertouch_c, 0, 64, 0
1, 9596, Poly_aftertouch_c, 0, 66, 0
1, 9602, Note_off_c, 0, 96, 39
1, 9653, Note_on_c, 0, 60, 72
1, 9700, Note_on_c, 0, 67, 68
1, 9719, Note_off_c, 0, 60, 63
1, 9733, Note_on_c, 0, 72, 82
1, 9763, Note_on_c, 0, 91, 94
1, 9764, Note_on_c, 0, 100, 102
1, 9765, Note_on_c, 0, 96, 82
1, 9768, Note_on_c, 0, 88, 99
1, 9769, Note_on_c, 0, 76, 104
1, 9769, Control_c, 0, 64, 81
1, 9782, Note_off_c, 0, 67, 59
1, 9783, Control_c, 0, 64, 49
1, 9795, Note_off_c, 0, 72, 66
1, 9795, Note_off_c, 0, 76, 70
1, 9796, Poly_aftertouch_c, 0, 62, 0
1, 9798, Control_c, 0, 64, 64
1, 9811, Note_off_c, 0, 88, 65
1, 9811, Note_off_c, 0, 100, 69
1, 9813, Control_c, 0, 64, 78
1, 9828, Control_c, 0, 64, 119
1, 9838, Note_off_c, 0, 91, 65
1, 9839, Note_off_c, 0, 96, 66
1, 9843, Control_c, 0, 64, 127
1, 10036, Control_c, 0, 64, 117
1, 10051, Control_c, 0, 64, 82
1, 10066, Control_c, 0, 64, 51
1, 10076, Poly_aftertouch_c, 0, 56, 127
1, 10080, Control_c, 0, 64, 0
1, 10123, Poly_aftertouch_c, 0, 56, 0
1, 10208, Note_on_c, 0, 48, 67
1, 10270, Note_on_c, 0, 55, 64
1, 10294, Note_off_c, 0, 48, 63
1, 10309, Note_on_c, 0, 60, 82
1, 10338, Note_on_c, 0, 84, 97
1, 10339, Control_c, 0, 64, 78
1, 10341, Note_on_c, 0, 76, 87
1, 10342, Note_on_c, 0, 72, 96
1, 10345, Note_off_c, 0, 55, 63
1, 10346, Note_on_c, 0, 79, 79
1, 10347, Note_on_c, 0, 64, 96
1, 10354, Control_c, 0, 64, 127
1, 10359, Poly_aftertouch_c, 0, 50, 0
1, 10370, Note_off_c, 0, 60, 64
1, 10374, Note_off_c, 0, 64, 73
1, 10377, Note_off_c, 0, 72, 68
1, 10391, Note_off_c, 0, 76, 65
1, 10392, Poly_aftertouch_c, 0, 50, 0
1, 10398, Note_off_c, 0, 84, 64
1, 10398, Note_off_c, 0, 79, 61
1, 10739, Control_c, 0, 67, 9
1, 10754, Control_c, 0, 67, 14
1, 10769, Control_c, 0, 67, 19
1, 10784, Control_c, 0, 67, 21
1, 10798, Control_c, 0, 67, 23
1, 10813, Control_c, 0, 67, 23
1, 10829, Control_c, 0, 64, 101
1, 10829, Control_c, 0, 67, 24
1, 10844, Control_c, 0, 64, 82
1, 10844, Control_c, 0, 67, 25
1, 10859, Control_c, 0, 64, 69
1, 10859, Control_c, 0, 67, 28
1, 10874, Control_c, 0, 64, 35
1, 10874, Control_c, 0, 67, 31
1, 10889, Control_c, 0, 64, 0
1, 10889, Control_c, 0, 67, 34
1, 10911, Control_c, 0, 67, 38
1, 10926, Control_c, 0, 67, 41
1, 10940, Control_c, 0, 67, 44
1, 10955, Control_c, 0, 67, 48
1, 10970, Control_c, 0, 67, 52
1, 10985, Control_c, 0, 67, 57
1, 11000, Control_c, 0, 67, 61
1, 11015, Control_c, 0, 67, 66
1, 11029, Control_c, 0, 67, 71
1, 11044, Control_c, 0, 67, 76
1, 11059, Control_c, 0, 67, 83
1, 11074, Control_c, 0, 67, 89
1, 11089, Control_c, 0, 67, 96
1, 11103, Control_c, 0, 67, 104
1, 11118, Control_c, 0, 67, 112
1, 11133, Control_c, 0, 67, 122
1, 11147, Control_c, 0, 67, 127
1, 11311, Control_c, 0, 64, 11
1, 11326, Control_c, 0, 64, 31
1, 11341, Control_c, 0, 64, 41
1, 11355, Control_c, 0, 64, 49
1, 11370, Control_c, 0, 64, 54
1, 11385, Control_c, 0, 64, 58
1, 11400, Control_c, 0, 64, 61
1, 11415, Control_c, 0, 64, 63
1, 11429, Control_c, 0, 64, 65
1, 11444, Control_c, 0, 64, 66
1, 11459, Control_c, 0, 64, 68
1, 11474, Control_c, 0, 64, 70
1, 11489, Control_c, 0, 64, 71
1, 11504, Control_c, 0, 64, 73
1, 11519, Control_c, 0, 64, 75
1, 11534, Control_c, 0, 64, 78
1, 11548, Control_c, 0, 64, 80
1, 11563, Control_c, 0, 64, 83
1, 11578, Control_c, 0, 64, 85
1, 11593, Control_c, 0, 64, 88
1, 11608, Control_c, 0, 64, 92
1, 11623, Control_c, 0, 64, 95
1, 11638, Control_c, 0, 64, 99
1, 11660, Control_c, 0, 64, 104
1, 11675, Control_c, 0, 64, 110
1, 11690, Control_c, 0, 64, 120
1, 11705, Control_c, 0, 64, 127
1, 11709, Note_on_c, 0, 63, 53
1, 11720, Note_on_c, 0, 36, 31
1, 11723, Note_on_c, 0, 43, 24
1, 11727, Note_on_c, 0, 55, 30
1, 11728, Note_on_c, 0, 60, 37
1, 11830, Note_off_c, 0, 43, 37
1, 11845, Note_off_c, 0, 36, 33
1, 11918, Note_on_c, 0, 36, 28
1, 11938, Note_on_c, 0, 43, 28
1, 11980, Note_off_c, 0, 43, 51
1, 11983, Note_off_c, 0, 36, 51
1, 12063, Note_off_c, 0, 55, 46
1, 12085, Note_on_c, 0, 43, 46
1, 12102, Note_on_c, 0, 36, 37
1, 12121, Note_off_c, 0, 43, 58
1, 12129, Note_off_c, 0, 63, 60
1, 12132, Note_off_c, 0, 60, 38
1, 12138, Note_off_c, 0, 36, 51
1, 12277, Note_on_c, 0, 62, 60
1, 12283, Note_on_c, 0, 36, 21
1, 12285, Note_on_c, 0, 43, 32
1, 12285, Note_on_c, 0, 53, 51
1, 12291, Note_on_c, 0, 60, 44
1, 12297, Control_c, 0, 64, 106
1, 12312, Control_c, 0, 64, 90
1, 12327, Control_c, 0, 64, 79
1, 12341, Control_c, 0, 64, 72
1, 12356, Control_c, 0, 64, 70
1, 12371, Control_c, 0, 64, 71
1, 12386, Control_c, 0, 64, 75
1, 12395, Note_off_c, 0, 53, 61
1, 12408, Control_c, 0, 64, 79
1, 12424, Control_c, 0, 64, 85
1, 12437, Note_off_c, 0, 62, 58
1, 12439, Control_c, 0, 64, 92
1, 12454, Control_c, 0, 64, 99
1, 12459, Note_off_c, 0, 60, 62
1, 12469, Control_c, 0, 64, 111
1, 12483, Control_c, 0, 64, 127
1, 12543, Note_on_c, 0, 60, 68
1, 12556, Note_on_c, 0, 51, 62
1, 12581, Note_off_c, 0, 43, 40
1, 12605, Note_off_c, 0, 36, 40
1, 12614, Note_off_c, 0, 51, 58
1, 12717, Note_off_c, 0, 60, 55
1, 12808, Control_c, 0, 64, 118
1, 12823, Note_on_c, 0, 36, 38
1, 12823, Control_c, 0, 64, 91
1, 12824, Note_on_c, 0, 62, 65
1, 12830, Note_on_c, 0, 60, 51
1, 12831, Note_on_c, 0, 43, 38
1, 12838, Control_c, 0, 64, 73
1, 12842, Note_on_c, 0, 53, 47
1, 12853, Control_c, 0, 64, 62
1, 12867, Control_c, 0, 64, 50
1, 12875, Note_off_c, 0, 36, 56
1, 12877, Note_off_c, 0, 43, 57
1, 12882, Control_c, 0, 64, 54
1, 12897, Control_c, 0, 64, 62
1, 12912, Control_c, 0, 64, 66
1, 12926, Control_c, 0, 64, 71
1, 12941, Control_c, 0, 64, 76
1, 12956, Control_c, 0, 64, 82
1, 12971, Control_c, 0, 64, 88
1, 12986, Control_c, 0, 64, 95
1, 12993, Note_on_c, 0, 43, 42
1, 13000, Control_c, 0, 64, 104
1, 13002, Note_on_c, 0, 36, 44
1, 13015, Control_c, 0, 64, 119
1, 13015, Control_c, 0, 67, 124
1, 13030, Control_c, 0, 64, 127
1, 13030, Control_c, 0, 67, 117
1, 13033, Note_off_c, 0, 53, 62
1, 13038, Note_off_c, 0, 43, 55
1, 13042, Note_off_c, 0, 36, 50
1, 13045, Control_c, 0, 67, 107
1, 13060, Control_c, 0, 67, 96
1, 13075, Control_c, 0, 67, 84
1, 13081, Note_off_c, 0, 62, 58
1, 13088, Note_off_c, 0, 60, 63
1, 13090, Control_c, 0, 67, 71
1, 13105, Control_c, 0, 67, 60
1, 13119, Control_c, 0, 67, 51
1, 13141, Control_c, 0, 67, 44
1, 13152, Note_on_c, 0, 36, 54
1, 13156, Control_c, 0, 67, 39
1, 13158, Note_on_c, 0, 43, 49
1, 13171, Control_c, 0, 67, 35
1, 13186, Control_c, 0, 67, 33
1, 13197, Note_off_c, 0, 36, 58
1, 13197, Note_off_c, 0, 43, 60
1, 13200, Control_c, 0, 67, 32
1, 13215, Control_c, 0, 67, 31
1, 13246, Control_c, 0, 67, 31
1, 13335, Control_c, 0, 67, 31
1, 13364, Control_c, 0, 67, 32
1, 13394, Note_on_c, 0, 65, 74
1, 13394, Control_c, 0, 67, 33
1, 13409, Control_c, 0, 67, 33
1, 13414, Note_on_c, 0, 43, 32
1, 13414, Note_on_c, 0, 60, 49
1, 13415, Note_on_c, 0, 36, 39
1, 13424, Control_c, 0, 67, 34
1, 13427, Note_on_c, 0, 56, 43
1, 13438, Control_c, 0, 67, 34
1, 13453, Control_c, 0, 67, 35
1, 13468, Control_c, 0, 64, 100
1, 13468, Control_c, 0, 67, 35
1, 13483, Control_c, 0, 64, 81
1, 13497, Control_c, 0, 64, 66
1, 13497, Control_c, 0, 67, 36
1, 13512, Control_c, 0, 64, 0
1, 13541, Control_c, 0, 67, 36
1, 13556, Control_c, 0, 67, 37
1, 13571, Control_c, 0, 64, 27
1, 13586, Control_c, 0, 64, 56
1, 13586, Control_c, 0, 67, 37
1, 13601, Control_c, 0, 64, 65
1, 13615, Control_c, 0, 64, 70
1, 13630, Control_c, 0, 64, 75
1, 13645, Control_c, 0, 64, 83
1, 13645, Control_c, 0, 67, 38
1, 13660, Control_c, 0, 64, 93
1, 13675, Control_c, 0, 64, 110
1, 13675, Control_c, 0, 67, 38
1, 13689, Control_c, 0, 64, 127
1, 13704, Control_c, 0, 67, 39
1, 13748, Control_c, 0, 67, 40
1, 13767, Note_off_c, 0, 56, 61
1, 13770, Note_off_c, 0, 43, 56
1, 13793, Control_c, 0, 67, 40
1, 13794, Note_off_c, 0, 36, 57
1, 13838, Control_c, 0, 67, 41
1, 13856, Note_off_c, 0, 65, 58
1, 13868, Control_c, 0, 67, 41
1, 13904, Control_c, 0, 67, 42
1, 13919, Control_c, 0, 67, 42
1, 13941, Note_off_c, 0, 60, 0
1, 13948, Control_c, 0, 67, 43
1, 13963, Control_c, 0, 67, 44
1, 13969, Note_on_c, 0, 60, 13
1, 13977, Note_on_c, 0, 36, 37
1, 13978, Control_c, 0, 67, 45
1, 13981, Note_on_c, 0, 63, 61
1, 13988, Note_on_c, 0, 55, 46
1, 13990, Note_on_c, 0, 43, 37
1, 13993, Control_c, 0, 64, 110
1, 13993, Control_c, 0, 67, 46
1, 14008, Control_c, 0, 64, 87
1, 14008, Control_c, 0, 67, 47
1, 14024, Control_c, 0, 64, 72
1, 14024, Control_c, 0, 67, 48
1, 14031, Note_off_c, 0, 36, 55
1, 14032, Note_off_c, 0, 43, 56
1, 14038, Control_c, 0, 64, 63
1, 14038, Control_c, 0, 67, 49
1, 14052, Note_off_c, 0, 55, 56
1, 14053, Control_c, 0, 64, 59
1, 14053, Control_c, 0, 67, 51
1, 14068, Control_c, 0, 64, 62
1, 14068, Control_c, 0, 67, 52
1, 14083, Control_c, 0, 64, 66
1, 14083, Control_c, 0, 67, 53
1, 14098, Control_c, 0, 64, 71
1, 14098, Control_c, 0, 67, 55
1, 14113, Control_c, 0, 64, 77
1, 14113, Control_c, 0, 67, 56
1, 14127, Control_c, 0, 64, 84
1, 14127, Control_c, 0, 67, 58
1, 14142, Note_on_c, 0, 36, 41
1, 14142, Control_c, 0, 64, 94
1, 14142, Control_c, 0, 67, 59
1, 14148, Note_on_c, 0, 43, 40
1, 14157, Control_c, 0, 64, 110
1, 14157, Control_c, 0, 67, 60
1, 14172, Control_c, 0, 64, 127
1, 14172, Control_c, 0, 67, 62
1, 14187, Control_c, 0, 67, 64
1, 14188, Note_off_c, 0, 43, 50
1, 14193, Note_off_c, 0, 36, 47
1, 14202, Control_c, 0, 67, 66
1, 14216, Control_c, 0, 67, 68
1, 14220, Note_on_c, 0, 62, 60
1, 14229, Note_off_c, 0, 63, 38
1, 14231, Control_c, 0, 67, 72
1, 14233, Note_on_c, 0, 53, 53
1, 14246, Control_c, 0, 67, 76
1, 14261, Control_c, 0, 67, 81
1, 14276, Control_c, 0, 67, 86
1, 14282, Note_off_c, 0, 53, 59
1, 14290, Control_c, 0, 67, 92
1, 14305, Control_c, 0, 67, 98
1, 14317, Note_on_c, 0, 36, 48
1, 14320, Control_c, 0, 67, 105
1, 14331, Note_on_c, 0, 43, 34
1, 14333, Note_off_c, 0, 62, 59
1, 14335, Control_c, 0, 67, 111
1, 14350, Control_c, 0, 67, 119
1, 14354, Note_off_c, 0, 60, 45
1, 14360, Note_off_c, 0, 36, 58
1, 14364, Control_c, 0, 67, 126
1, 14369, Note_off_c, 0, 43, 51
1, 14379, Control_c, 0, 67, 127
1, 14502, Note_on_c, 0, 36, 34
1, 14510, Note_on_c, 0, 43, 20
1, 14512, Note_on_c, 0, 63, 58
1, 14518, Note_on_c, 0, 60, 37
1, 14527, Control_c, 0, 64, 116
1, 14532, Note_on_c, 0, 55, 40
1, 14542, Control_c, 0, 64, 87
1, 14557, Control_c, 0, 64, 72
1, 14571, Control_c, 0, 64, 61
1, 14586, Control_c, 0, 64, 46
1, 14601, Control_c, 0, 64, 52
1, 14616, Control_c, 0, 64, 62
1, 14631, Control_c, 0, 64, 67
1, 14653, Control_c, 0, 64, 73
1, 14668, Control_c, 0, 64, 79
1, 14683, Control_c, 0, 64, 86
1, 14697, Control_c, 0, 64, 95
1, 14712, Control_c, 0, 64, 109
1, 14727, Control_c, 0, 64, 127
1, 14762, Note_off_c, 0, 55, 57
1, 14817, Control_c, 0, 67, 126
1, 14828, Note_off_c, 0, 60, 49
1, 14831, Note_off_c, 0, 36, 56
1, 14832, Control_c, 0, 67, 123
1, 14834, Note_off_c, 0, 63, 59
1, 14836, Note_off_c, 0, 43, 40
1, 14847, Control_c, 0, 67, 118
1, 14861, Control_c, 0, 67, 112
1, 14876, Control_c, 0, 67, 105
1, 14891, Control_c, 0, 67, 97
1, 14906, Control_c, 0, 67, 89
1, 14920, Control_c, 0, 67, 81
1, 14935, Control_c, 0, 67, 74
1, 14950, Control_c, 0, 67, 66
1, 14965, Control_c, 0, 67, 60
1, 14980, Control_c, 0, 67, 55
1, 14995, Control_c, 0, 67, 51
1, 15009, Control_c, 0, 67, 48
1, 15024, Control_c, 0, 67, 46
1, 15039, Control_c, 0, 67, 44
1, 15054, Control_c, 0, 67, 42
1, 15069, Control_c, 0, 67, 41
1, 15083, Note_on_c, 0, 60, 42
1, 15084, Control_c, 0, 67, 41
1, 15085, Note_on_c, 0, 36, 40
1, 15089, Note_on_c, 0, 67, 67
1, 15095, Note_on_c, 0, 43, 35
1, 15097, Note_on_c, 0, 58, 53
1, 15113, Control_c, 0, 64, 110
1, 15128, Control_c, 0, 64, 88
1, 15138, Note_off_c, 0, 43, 58
1, 15142, Note_off_c, 0, 36, 55
1, 15143, Control_c, 0, 64, 77
1, 15158, Control_c, 0, 64, 72
1, 15173, Control_c, 0, 64, 71
1, 15187, Control_c, 0, 64, 75
1, 15192, Note_off_c, 0, 58, 55
1, 15202, Control_c, 0, 64, 81
1, 15217, Control_c, 0, 64, 92
1, 15217, Control_c, 0, 67, 41
1, 15230, Note_off_c, 0, 67, 61
1, 15232, Control_c, 0, 64, 102
1, 15241, Note_on_c, 0, 36, 46
1, 15247, Control_c, 0, 64, 113
1, 15247, Control_c, 0, 67, 42
1, 15248, Note_on_c, 0, 43, 48
1, 15261, Control_c, 0, 64, 127
1, 15261, Control_c, 0, 67, 42
1, 15291, Note_off_c, 0, 36, 53
1, 15291, Control_c, 0, 67, 43
1, 15292, Note_off_c, 0, 43, 56
1, 15306, Control_c, 0, 67, 44
1, 15319, Note_on_c, 0, 65, 76
1, 15320, Control_c, 0, 67, 44
1, 15321, Note_on_c, 0, 56, 71
1, 15335, Control_c, 0, 67, 45
1, 15350, Control_c, 0, 67, 45
1, 15365, Control_c, 0, 67, 46
1, 15375, Note_off_c, 0, 56, 62
1, 15380, Control_c, 0, 67, 46
1, 15400, Note_off_c, 0, 60, 59
1, 15402, Control_c, 0, 67, 47
1, 15417, Control_c, 0, 67, 47
1, 15429, Note_on_c, 0, 36, 59
1, 15437, Note_on_c, 0, 43, 49
1, 15455, Note_off_c, 0, 65, 62
1, 15462, Control_c, 0, 67, 48
1, 15471, Note_off_c, 0, 43, 62
1, 15479, Note_off_c, 0, 36, 57
1, 15506, Control_c, 0, 67, 48
1, 15594, Control_c, 0, 67, 49
1, 15629, Note_on_c, 0, 68, 79
1, 15641, Note_on_c, 0, 36, 32
1, 15653, Note_on_c, 0, 43, 38
1, 15653, Note_on_c, 0, 60, 43
1, 15670, Control_c, 0, 64, 106
1, 15670, Control_c, 0, 67, 49
1, 15685, Control_c, 0, 64, 86
1, 15699, Control_c, 0, 64, 70
1, 15714, Control_c, 0, 64, 55
1, 15729, Control_c, 0, 64, 32
1, 15743, Control_c, 0, 64, 31
1, 15773, Control_c, 0, 64, 37
1, 15788, Control_c, 0, 64, 54
1, 15803, Control_c, 0, 64, 63
1, 15817, Control_c, 0, 64, 68
1, 15832, Control_c, 0, 64, 73
1, 15847, Control_c, 0, 64, 81
1, 15862, Control_c, 0, 64, 90
1, 15877, Control_c, 0, 64, 107
1, 15892, Control_c, 0, 64, 127
1, 15951, Note_off_c, 0, 43, 51
1, 15990, Note_off_c, 0, 36, 53
1, 15996, Control_c, 0, 67, 50
1, 16025, Control_c, 0, 67, 50
1, 16089, Note_off_c, 0, 68, 59
1, 16114, Control_c, 0, 67, 51
1, 16129, Control_c, 0, 67, 51
1, 16147, Note_off_c, 0, 60, 30
1, 16166, Control_c, 0, 67, 52
1, 16196, Control_c, 0, 67, 52
1, 16211, Control_c, 0, 67, 53
1, 16214, Note_on_c, 0, 36, 39
1, 16214, Note_on_c, 0, 67, 69
1, 16223, Note_on_c, 0, 60, 23
1, 16225, Control_c, 0, 67, 53
1, 16226, Note_on_c, 0, 43, 38
1, 16227, Note_on_c, 0, 58, 52
1, 16240, Control_c, 0, 67, 54
1, 16255, Control_c, 0, 64, 96
1, 16255, Control_c, 0, 67, 56
1, 16268, Note_off_c, 0, 43, 58
1, 16269, Note_off_c, 0, 36, 53
1, 16269, Control_c, 0, 64, 81
1, 16269, Control_c, 0, 67, 57
1, 16284, Control_c, 0, 64, 74
1, 16284, Control_c, 0, 67, 58
1, 16299, Control_c, 0, 64, 72
1, 16299, Control_c, 0, 67, 59
1, 16314, Control_c, 0, 64, 75
1, 16314, Control_c, 0, 67, 60
1, 16318, Note_off_c, 0, 58, 55
1, 16329, Control_c, 0, 64, 82
1, 16329, Control_c, 0, 67, 61
1, 16343, Control_c, 0, 64, 92
1, 16343, Control_c, 0, 67, 62
1, 16354, Note_off_c, 0, 67, 57
1, 16358, Control_c, 0, 64, 109
1, 16358, Control_c, 0, 67, 64
1, 16373, Control_c, 0, 64, 127
1, 16373, Control_c, 0, 67, 66
1, 16384, Note_on_c, 0, 36, 41
1, 16388, Control_c, 0, 67, 67
1, 16403, Control_c, 0, 67, 68
1, 16404, Note_on_c, 0, 43, 27
1, 16419, Control_c, 0, 67, 68
1, 16437, Note_off_c, 0, 36, 48
1, 16446, Note_off_c, 0, 43, 50
1, 16452, Note_on_c, 0, 56, 65
1, 16455, Note_on_c, 0, 65, 71
1, 16463, Control_c, 0, 67, 69
1, 16478, Control_c, 0, 67, 69
1, 16493, Control_c, 0, 67, 71
1, 16508, Control_c, 0, 67, 73
1, 16522, Control_c, 0, 67, 77
1, 16537, Control_c, 0, 67, 81
1, 16552, Control_c, 0, 67, 86
1, 16557, Note_on_c, 0, 36, 48
1, 16557, Note_off_c, 0, 56, 59
1, 16559, Note_on_c, 0, 43, 37
1, 16566, Control_c, 0, 67, 91
1, 16581, Control_c, 0, 67, 95
1, 16596, Control_c, 0, 67, 100
1, 16602, Note_off_c, 0, 36, 57
1, 16602, Note_off_c, 0, 43, 55
1, 16604, Note_off_c, 0, 65, 56
1, 16611, Control_c, 0, 67, 104
1, 16626, Control_c, 0, 67, 107
1, 16640, Control_c, 0, 67, 110
1, 16647, Note_off_c, 0, 60, 45
1, 16655, Control_c, 0, 67, 113
1, 16670, Control_c, 0, 67, 115
1, 16685, Control_c, 0, 67, 117
1, 16700, Control_c, 0, 67, 119
1, 16714, Control_c, 0, 67, 121
1, 16729, Control_c, 0, 64, 112
1, 16729, Control_c, 0, 67, 124
1, 16733, Note_on_c, 0, 63, 63
1, 16738, Note_on_c, 0, 43, 29
1, 16740, Note_on_c, 0, 60, 49
1, 16744, Note_on_c, 0, 55, 52
1, 16744, Control_c, 0, 64, 81
1, 16744, Control_c, 0, 67, 126
1, 16756, Note_on_c, 0, 36, 15
1, 16759, Control_c, 0, 64, 62
1, 16759, Control_c, 0, 67, 127
1, 16774, Control_c, 0, 64, 0
1, 16863, Control_c, 0, 64, 53
1, 16873, Note_off_c, 0, 55, 62
1, 16878, Control_c, 0, 64, 65
1, 16899, Control_c, 0, 64, 70
1, 16911, Note_off_c, 0, 60, 55
1, 16913, Note_off_c, 0, 63, 58
1, 16914, Control_c, 0, 64, 77
1, 16929, Control_c, 0, 64, 86
1, 16944, Control_c, 0, 64, 96
1, 16959, Control_c, 0, 64, 106
1, 16974, Control_c, 0, 64, 121
1, 16989, Control_c, 0, 64, 127
1, 17002, Note_on_c, 0, 60, 44
1, 17013, Note_on_c, 0, 62, 66
1, 17017, Note_on_c, 0, 53, 58
1, 17056, Note_off_c, 0, 53, 60
1, 17069, Note_off_c, 0, 43, 40
1, 17084, Note_off_c, 0, 62, 58
1, 17087, Note_off_c, 0, 60, 60
1, 17122, Note_off_c, 0, 36, 38
1, 17301, Control_c, 0, 64, 92
1, 17315, Control_c, 0, 64, 70
1, 17320, Note_on_c, 0, 60, 56
1, 17330, Control_c, 0, 64, 28
1, 17339, Note_on_c, 0, 51, 47
1, 17343, Note_on_c, 0, 43, 36
1, 17343, Note_on_c, 0, 36, 37
1, 17345, Control_c, 0, 64, 0
1, 17375, Control_c, 0, 64, 40
1, 17383, Note_off_c, 0, 43, 54
1, 17388, Note_off_c, 0, 36, 52
1, 17389, Control_c, 0, 64, 62
1, 17404, Control_c, 0, 64, 68
1, 17419, Control_c, 0, 64, 74
1, 17434, Control_c, 0, 64, 81
1, 17449, Control_c, 0, 64, 89
1, 17463, Control_c, 0, 64, 99
1, 17478, Control_c, 0, 64, 108
1, 17493, Control_c, 0, 64, 127
1, 17503, Note_on_c, 0, 36, 38
1, 17507, Note_on_c, 0, 43, 36
1, 17541, Note_off_c, 0, 36, 49
1, 17542, Note_off_c, 0, 43, 52
1, 17648, Note_on_c, 0, 36, 47
1, 17648, Note_on_c, 0, 43, 41
1, 17690, Note_off_c, 0, 43, 56
1, 17695, Note_off_c, 0, 36, 53
1, 17847, Note_on_c, 0, 36, 39
1, 17852, Note_on_c, 0, 43, 39
1, 17871, Control_c, 0, 64, 113
1, 17886, Control_c, 0, 64, 91
1, 17891, Note_off_c, 0, 51, 59
1, 17901, Control_c, 0, 64, 76
1, 17915, Control_c, 0, 64, 65
1, 17930, Control_c, 0, 64, 54
1, 17945, Control_c, 0, 64, 52
1, 17960, Control_c, 0, 64, 57
1, 17975, Control_c, 0, 64, 63
1, 17990, Control_c, 0, 64, 66
1, 18005, Control_c, 0, 64, 69
1, 18020, Control_c, 0, 64, 73
1, 18035, Control_c, 0, 64, 78
1, 18050, Control_c, 0, 64, 83
1, 18065, Control_c, 0, 64, 90
1, 18080, Control_c, 0, 64, 95
1, 18095, Control_c, 0, 64, 101
1, 18110, Control_c, 0, 64, 107
1, 18124, Control_c, 0, 64, 114
1, 18139, Control_c, 0, 64, 127
1, 18174, Note_off_c, 0, 43, 53
1, 18187, Note_on_c, 0, 62, 54
1, 18190, Note_on_c, 0, 50, 41
1, 18221, Note_off_c, 0, 36, 56
1, 18233, Note_off_c, 0, 60, 60
1, 18281, Note_off_c, 0, 50, 58
1, 18361, Note_off_c, 0, 62, 54
1, 18487, Control_c, 0, 64, 98
1, 18502, Control_c, 0, 64, 80
1, 18515, Note_on_c, 0, 62, 47
1, 18517, Control_c, 0, 64, 65
1, 18527, Note_on_c, 0, 43, 40
1, 18530, Note_on_c, 0, 50, 36
1, 18531, Note_on_c, 0, 31, 39
1, 18531, Note_on_c, 0, 55, 38
1, 18532, Control_c, 0, 64, 0
1, 18534, Note_on_c, 0, 59, 41
1, 18595, Note_off_c, 0, 43, 58
1, 18596, Note_off_c, 0, 31, 57
1, 18606, Control_c, 0, 64, 56
1, 18621, Control_c, 0, 64, 65
1, 18636, Control_c, 0, 64, 70
1, 18651, Control_c, 0, 64, 75
1, 18665, Control_c, 0, 64, 80
1, 18680, Control_c, 0, 64, 86
1, 18695, Control_c, 0, 64, 92
1, 18701, Note_on_c, 0, 43, 36
1, 18704, Note_on_c, 0, 31, 38
1, 18710, Control_c, 0, 64, 98
1, 18725, Control_c, 0, 64, 104
1, 18739, Control_c, 0, 64, 114
1, 18741, Note_off_c, 0, 43, 49
1, 18750, Note_off_c, 0, 31, 48
1, 18754, Control_c, 0, 64, 127
1, 18850, Note_on_c, 0, 43, 44
1, 18860, Note_on_c, 0, 31, 43
1, 18891, Note_off_c, 0, 43, 54
1, 18905, Note_off_c, 0, 31, 49
1, 19027, Note_on_c, 0, 31, 39
1, 19040, Note_on_c, 0, 43, 34
1, 19052, Control_c, 0, 64, 118
1, 19066, Control_c, 0, 64, 95
1, 19081, Control_c, 0, 64, 79
1, 19096, Control_c, 0, 64, 65
1, 19111, Control_c, 0, 64, 0
1, 19207, Control_c, 0, 64, 54
1, 19222, Control_c, 0, 64, 64
1, 19236, Control_c, 0, 64, 69
1, 19251, Control_c, 0, 64, 73
1, 19266, Control_c, 0, 64, 79
1, 19281, Control_c, 0, 64, 86
1, 19296, Control_c, 0, 64, 94
1, 19311, Control_c, 0, 64, 103
1, 19326, Control_c, 0, 64, 111
1, 19341, Control_c, 0, 64, 127
1, 19431, Note_off_c, 0, 43, 41
1, 19433, Note_off_c, 0, 31, 41
1, 19622, Control_c, 0, 64, 111
1, 19627, Note_on_c, 0, 31, 43
1, 19630, Note_on_c, 0, 38, 49
1, 19637, Control_c, 0, 64, 96
1, 19652, Control_c, 0, 64, 90
1, 19666, Control_c, 0, 64, 89
1, 19678, Note_off_c, 0, 38, 59
1, 19679, Note_off_c, 0, 31, 57
1, 19686, Note_off_c, 0, 50, 47
1, 19696, Control_c, 0, 64, 91
1, 19710, Control_c, 0, 64, 97
1, 19725, Control_c, 0, 64, 106
1, 19734, Note_off_c, 0, 55, 59
1, 19740, Control_c, 0, 64, 127
1, 19766, Note_off_c, 0, 59, 54
1, 19779, Note_off_c, 0, 62, 58
1, 19799, Note_on_c, 0, 38, 47
1, 19804, Note_on_c, 0, 31, 40
1, 19830, Control_c, 0, 67, 123
1, 19833, Note_off_c, 0, 38, 58
1, 19844, Control_c, 0, 67, 117
1, 19852, Note_off_c, 0, 31, 47
1, 19859, Control_c, 0, 67, 109
1, 19874, Control_c, 0, 67, 98
1, 19896, Control_c, 0, 67, 86
1, 19910, Control_c, 0, 67, 76
1, 19925, Control_c, 0, 67, 68
1, 19940, Control_c, 0, 67, 61
1, 19949, Note_on_c, 0, 38, 52
1, 19955, Control_c, 0, 67, 58
1, 19958, Note_on_c, 0, 31, 53
1, 19970, Control_c, 0, 67, 57
1, 19985, Control_c, 0, 67, 56
1, 19999, Note_off_c, 0, 31, 60
1, 20009, Note_off_c, 0, 38, 58
1, 20074, Control_c, 0, 67, 57
1, 20089, Control_c, 0, 67, 58
1, 20104, Control_c, 0, 67, 59
1, 20118, Control_c, 0, 67, 60
1, 20133, Control_c, 0, 67, 61
1, 20148, Control_c, 0, 67, 62
1, 20154, Note_on_c, 0, 74, 72
1, 20163, Control_c, 0, 67, 62
1, 20165, Note_on_c, 0, 70, 62
1, 20171, Note_on_c, 0, 62, 41
1, 20172, Note_on_c, 0, 38, 41
1, 20173, Note_on_c, 0, 31, 29
1, 20192, Control_c, 0, 64, 95
1, 20192, Control_c, 0, 67, 63
1, 20207, Control_c, 0, 64, 78
1, 20222, Control_c, 0, 64, 65
1, 20236, Control_c, 0, 64, 46
1, 20251, Control_c, 0, 64, 43
1, 20266, Control_c, 0, 64, 53
1, 20266, Control_c, 0, 67, 62
1, 20281, Control_c, 0, 64, 62
1, 20281, Control_c, 0, 67, 61
1, 20296, Control_c, 0, 64, 67
1, 20296, Control_c, 0, 67, 61
1, 20310, Control_c, 0, 64, 71
1, 20310, Control_c, 0, 67, 60
1, 20325, Control_c, 0, 64, 77
1, 20325, Control_c, 0, 67, 58
1, 20340, Control_c, 0, 64, 83
1, 20340, Control_c, 0, 67, 58
1, 20355, Control_c, 0, 64, 91
1, 20355, Control_c, 0, 67, 56
1, 20370, Control_c, 0, 64, 98
1, 20370, Control_c, 0, 67, 56
1, 20384, Control_c, 0, 64, 108
1, 20384, Control_c, 0, 67, 54
1, 20400, Control_c, 0, 64, 127
1, 20400, Control_c, 0, 67, 52
1, 20415, Control_c, 0, 67, 47
1, 20430, Control_c, 0, 67, 42
1, 20445, Control_c, 0, 67, 39
1, 20447, Note_off_c, 0, 70, 63
1, 20459, Note_off_c, 0, 62, 60
1, 20460, Control_c, 0, 67, 36
1, 20474, Control_c, 0, 67, 34
1, 20489, Control_c, 0, 67, 33
1, 20548, Note_off_c, 0, 38, 40
1, 20569, Note_off_c, 0, 31, 40
1, 20645, Control_c, 0, 67, 34
1, 20659, Control_c, 0, 67, 34
1, 20674, Control_c, 0, 67, 35
1, 20704, Control_c, 0, 67, 36
1, 20712, Note_on_c, 0, 38, 46
1, 20718, Note_on_c, 0, 60, 53
1, 20719, Control_c, 0, 67, 36
1, 20721, Note_on_c, 0, 31, 32
1, 20721, Note_on_c, 0, 69, 60
1, 20748, Control_c, 0, 67, 37
1, 20769, Note_off_c, 0, 38, 57
1, 20778, Control_c, 0, 67, 37
1, 20779, Note_off_c, 0, 31, 45
1, 20792, Note_off_c, 0, 60, 62
1, 20807, Control_c, 0, 67, 38
1, 20809, Note_off_c, 0, 74, 48
1, 20867, Control_c, 0, 67, 38
1, 20895, Note_on_c, 0, 31, 37
1, 20898, Note_on_c, 0, 38, 47
1, 20935, Note_off_c, 0, 38, 54
1, 20941, Note_off_c, 0, 31, 48
1, 20941, Control_c, 0, 67, 39
1, 20956, Control_c, 0, 67, 39
1, 20963, Note_on_c, 0, 67, 70
1, 20976, Note_on_c, 0, 58, 59
1, 20988, Note_off_c, 0, 69, 60
1, 21009, Note_off_c, 0, 58, 65
1, 21046, Control_c, 0, 67, 40
1, 21047, Note_off_c, 0, 67, 60
1, 21075, Control_c, 0, 67, 40
1, 21092, Note_on_c, 0, 38, 50
1, 21105, Control_c, 0, 67, 41
1, 21111, Note_on_c, 0, 31, 30
1, 21133, Note_off_c, 0, 38, 60
1, 21134, Control_c, 0, 67, 41
1, 21148, Note_off_c, 0, 31, 53
1, 21164, Control_c, 0, 67, 42
1, 21179, Control_c, 0, 67, 42
1, 21225, Control_c, 0, 67, 43
1, 21260, Note_on_c, 0, 74, 71
1, 21263, Note_on_c, 0, 69, 60
1, 21266, Note_on_c, 0, 60, 59
1, 21270, Note_on_c, 0, 38, 43
1, 21279, Note_on_c, 0, 31, 32
1, 21283, Control_c, 0, 64, 111
1, 21298, Control_c, 0, 64, 87
1, 21313, Control_c, 0, 64, 73
1, 21328, Control_c, 0, 64, 64
1, 21328, Control_c, 0, 67, 42
1, 21343, Control_c, 0, 64, 61
1, 21343, Control_c, 0, 67, 42
1, 21357, Control_c, 0, 64, 63
1, 21357, Control_c, 0, 67, 41
1, 21380, Control_c, 0, 64, 66
1, 21380, Control_c, 0, 67, 40
1, 21395, Control_c, 0, 64, 71
1, 21395, Control_c, 0, 67, 38
1, 21409, Control_c, 0, 64, 78
1, 21409, Control_c, 0, 67, 37
1, 21424, Control_c, 0, 64, 86
1, 21424, Control_c, 0, 67, 35
1, 21439, Control_c, 0, 64, 97
1, 21439, Control_c, 0, 67, 33
1, 21454, Control_c, 0, 64, 114
1, 21454, Control_c, 0, 67, 31
1, 21469, Control_c, 0, 64, 127
1, 21469, Control_c, 0, 67, 27
1, 21483, Control_c, 0, 67, 19
1, 21498, Control_c, 0, 67, 8
1, 21513, Control_c, 0, 67, 0
1, 21520, Note_off_c, 0, 60, 58
1, 21565, Note_off_c, 0, 38, 57
1, 21594, Note_off_c, 0, 69, 62
1, 21619, Note_off_c, 0, 31, 39
1, 21848, Note_on_c, 0, 72, 71
1, 21850, Note_on_c, 0, 38, 44
1, 21856, Note_on_c, 0, 31, 39
1, 21863, Note_on_c, 0, 63, 52
1, 21883, Control_c, 0, 64, 105
1, 21898, Control_c, 0, 64, 88
1, 21904, Note_off_c, 0, 38, 56
1, 21906, Note_off_c, 0, 31, 54
1, 21913, Control_c, 0, 64, 77
1, 21928, Control_c, 0, 64, 70
1, 21943, Control_c, 0, 64, 69
1, 21957, Control_c, 0, 64, 71
1, 21972, Control_c, 0, 64, 76
1, 21987, Control_c, 0, 64, 82
1, 22003, Control_c, 0, 64, 91
1, 22018, Control_c, 0, 64, 102
1, 22032, Note_on_c, 0, 38, 44
1, 22032, Control_c, 0, 64, 127
1, 22039, Note_on_c, 0, 31, 38
1, 22080, Note_off_c, 0, 38, 47
1, 22089, Note_off_c, 0, 31, 47
1, 22189, Note_off_c, 0, 63, 60
1, 22197, Note_on_c, 0, 38, 47
1, 22214, Note_on_c, 0, 31, 32
1, 22229, Note_off_c, 0, 38, 56
1, 22252, Note_off_c, 0, 31, 52
1, 22261, Note_off_c, 0, 72, 58
1, 22267, Note_off_c, 0, 74, 58
1, 22385, Note_on_c, 0, 74, 68
1, 22390, Note_on_c, 0, 38, 35
1, 22391, Note_on_c, 0, 70, 59
1, 22392, Note_on_c, 0, 31, 24
1, 22405, Note_on_c, 0, 62, 48
1, 22410, Control_c, 0, 64, 103
1, 22424, Control_c, 0, 64, 84
1, 22439, Control_c, 0, 64, 69
1, 22454, Control_c, 0, 64, 61
1, 22469, Control_c, 0, 64, 59
1, 22484, Control_c, 0, 64, 62
1, 22499, Control_c, 0, 64, 66
1, 22513, Control_c, 0, 64, 70
1, 22515, Note_off_c, 0, 62, 59
1, 22528, Control_c, 0, 64, 77
1, 22535, Note_off_c, 0, 70, 62
1, 22543, Control_c, 0, 64, 86
1, 22558, Control_c, 0, 64, 97
1, 22573, Control_c, 0, 64, 116
1, 22587, Control_c, 0, 64, 127
1, 22645, Note_on_c, 0, 69, 64
1, 22646, Note_on_c, 0, 60, 64
1, 22698, Note_off_c, 0, 60, 60
1, 22717, Note_off_c, 0, 69, 62
1, 22728, Note_off_c, 0, 38, 41
1, 22738, Note_off_c, 0, 31, 40
1, 22932, Note_on_c, 0, 31, 40
1, 22932, Note_on_c, 0, 38, 45
1, 22935, Note_on_c, 0, 62, 57
1, 22942, Note_on_c, 0, 70, 61
1, 22951, Control_c, 0, 64, 103
1, 22966, Control_c, 0, 64, 84
1, 22981, Control_c, 0, 64, 71
1, 22996, Control_c, 0, 64, 64
1, 23001, Note_off_c, 0, 38, 55
1, 23005, Note_off_c, 0, 31, 51
1, 23010, Control_c, 0, 64, 64
1, 23025, Control_c, 0, 64, 67
1, 23040, Control_c, 0, 64, 72
1, 23055, Control_c, 0, 64, 79
1, 23070, Control_c, 0, 64, 90
1, 23085, Control_c, 0, 64, 104
1, 23100, Control_c, 0, 64, 127
1, 23111, Note_on_c, 0, 38, 49
1, 23126, Note_off_c, 0, 62, 52
1, 23130, Note_on_c, 0, 31, 33
1, 23150, Note_off_c, 0, 38, 59
1, 23171, Note_off_c, 0, 74, 60
1, 23174, Note_off_c, 0, 31, 51
1, 23209, Note_off_c, 0, 70, 63
1, 23250, Note_on_c, 0, 38, 61
1, 23261, Note_on_c, 0, 31, 58
1, 23304, Note_off_c, 0, 31, 58
1, 23305, Note_off_c, 0, 38, 60
1, 23454, Note_on_c, 0, 74, 79
1, 23463, Note_on_c, 0, 38, 43
1, 23466, Note_on_c, 0, 65, 60
1, 23472, Note_on_c, 0, 31, 37
1, 23499, Control_c, 0, 64, 105
1, 23514, Control_c, 0, 64, 84
1, 23528, Control_c, 0, 64, 70
1, 23543, Control_c, 0, 64, 63
1, 23558, Control_c, 0, 64, 65
1, 23565, Note_off_c, 0, 65, 57
1, 23573, Control_c, 0, 64, 70
1, 23588, Control_c, 0, 64, 76
1, 23603, Control_c, 0, 64, 86
1, 23618, Control_c, 0, 64, 101
1, 23640, Control_c, 0, 64, 127
1, 23647, Note_off_c, 0, 74, 63
1, 23718, Note_off_c, 0, 31, 49
1, 23725, Note_on_c, 0, 72, 80
1, 23732, Note_off_c, 0, 38, 41
1, 23735, Note_on_c, 0, 63, 72
1, 23770, Note_off_c, 0, 63, 59
1, 23819, Note_off_c, 0, 72, 64
1, 24054, Note_on_c, 0, 77, 80
1, 24060, Note_on_c, 0, 38, 44
1, 24068, Note_on_c, 0, 31, 41
1, 24071, Control_c, 0, 64, 92
1, 24075, Note_on_c, 0, 72, 52
1, 24081, Note_on_c, 0, 68, 50
1, 24085, Control_c, 0, 64, 75
1, 24100, Control_c, 0, 64, 63
1, 24115, Control_c, 0, 64, 49
1, 24130, Control_c, 0, 64, 51
1, 24136, Note_off_c, 0, 31, 53
1, 24137, Note_off_c, 0, 38, 57
1, 24144, Control_c, 0, 64, 59
1, 24159, Control_c, 0, 64, 65
1, 24174, Control_c, 0, 64, 70
1, 24189, Control_c, 0, 64, 76
1, 24204, Control_c, 0, 64, 84
1, 24219, Control_c, 0, 64, 95
1, 24233, Control_c, 0, 64, 112
1, 24248, Control_c, 0, 64, 127
1, 24252, Note_on_c, 0, 38, 42
1, 24271, Note_on_c, 0, 31, 40
1, 24310, Note_off_c, 0, 38, 57
1, 24321, Note_off_c, 0, 31, 49
1, 24401, Note_off_c, 0, 72, 62
1, 24414, Note_off_c, 0, 68, 61
1, 24429, Note_on_c, 0, 38, 52
1, 24440, Note_on_c, 0, 31, 42
1, 24468, Note_off_c, 0, 38, 61
1, 24478, Note_off_c, 0, 31, 51
1, 24629, Note_on_c, 0, 75, 70
1, 24636, Note_on_c, 0, 67, 49
1, 24640, Note_on_c, 0, 38, 38
1, 24642, Control_c, 0, 64, 106
1, 24645, Note_on_c, 0, 72, 53
1, 24656, Control_c, 0, 64, 84
1, 24671, Control_c, 0, 64, 70
1, 24686, Control_c, 0, 64, 52
1, 24700, Control_c, 0, 64, 23
1, 24705, Poly_aftertouch_c, 0, 31, 127
1, 24715, Control_c, 0, 64, 24
1, 24730, Control_c, 0, 64, 43
1, 24745, Control_c, 0, 64, 57
1, 24760, Note_off_c, 0, 67, 59
1, 24760, Control_c, 0, 64, 64
1, 24772, Note_off_c, 0, 72, 60
1, 24775, Control_c, 0, 64, 67
1, 24790, Control_c, 0, 64, 71
1, 24791, Note_off_c, 0, 77, 45
1, 24805, Control_c, 0, 64, 76
1, 24820, Control_c, 0, 64, 83
1, 24834, Control_c, 0, 64, 92
1, 24849, Control_c, 0, 64, 103
1, 24864, Control_c, 0, 64, 127
1, 24921, Note_on_c, 0, 74, 76
1, 24931, Note_on_c, 0, 65, 46
1, 24947, Note_on_c, 0, 72, 61
1, 24976, Poly_aftertouch_c, 0, 31, 0
1, 24990, Note_off_c, 0, 65, 59
1, 24997, Note_off_c, 0, 38, 40
1, 25050, Note_off_c, 0, 75, 38
1, 25069, Note_off_c, 0, 72, 60
1, 25083, Note_off_c, 0, 74, 59
1, 25153, Control_c, 0, 67, 8
1, 25168, Control_c, 0, 67, 10
1, 25182, Control_c, 0, 67, 12
1, 25197, Control_c, 0, 67, 14
1, 25201, Note_on_c, 0, 72, 63
1, 25206, Note_on_c, 0, 38, 42
1, 25213, Control_c, 0, 64, 97
1, 25213, Control_c, 0, 67, 17
1, 25215, Note_on_c, 0, 31, 39
1, 25216, Note_on_c, 0, 63, 56
1, 25228, Control_c, 0, 64, 78
1, 25228, Control_c, 0, 67, 21
1, 25243, Control_c, 0, 64, 65
1, 25243, Control_c, 0, 67, 24
1, 25257, Control_c, 0, 64, 56
1, 25257, Control_c, 0, 67, 27
1, 25272, Note_off_c, 0, 31, 57
1, 25272, Note_off_c, 0, 38, 55
1, 25272, Control_c, 0, 64, 60
1, 25272, Control_c, 0, 67, 30
1, 25287, Control_c, 0, 64, 65
1, 25287, Control_c, 0, 67, 33
1, 25288, Note_off_c, 0, 63, 53
1, 25302, Control_c, 0, 64, 73
1, 25302, Control_c, 0, 67, 37
1, 25317, Control_c, 0, 64, 82
1, 25317, Control_c, 0, 67, 43
1, 25331, Control_c, 0, 64, 96
1, 25331, Control_c, 0, 67, 48
1, 25346, Control_c, 0, 64, 127
1, 25346, Control_c, 0, 67, 53
1, 25361, Control_c, 0, 67, 57
1, 25376, Control_c, 0, 67, 62
1, 25391, Control_c, 0, 67, 66
1, 25405, Control_c, 0, 67, 70
1, 25410, Note_on_c, 0, 31, 39
1, 25416, Note_on_c, 0, 38, 48
1, 25420, Control_c, 0, 67, 75
1, 25435, Control_c, 0, 67, 79
1, 25449, Control_c, 0, 67, 83
1, 25464, Control_c, 0, 67, 87
1, 25479, Control_c, 0, 67, 92
1, 25480, Note_off_c, 0, 38, 52
1, 25494, Control_c, 0, 67, 95
1, 25509, Control_c, 0, 67, 99
1, 25523, Note_on_c, 0, 74, 67
1, 25523, Control_c, 0, 67, 104
1, 25529, Note_on_c, 0, 65, 44
1, 25538, Control_c, 0, 64, 94
1, 25538, Control_c, 0, 67, 108
1, 25543, Note_off_c, 0, 31, 33
1, 25553, Control_c, 0, 64, 76
1, 25553, Control_c, 0, 67, 112
1, 25568, Control_c, 0, 64, 64
1, 25568, Control_c, 0, 67, 115
1, 25571, Note_off_c, 0, 72, 57
1, 25583, Control_c, 0, 64, 59
1, 25583, Control_c, 0, 67, 119
1, 25598, Control_c, 0, 64, 63
1, 25598, Control_c, 0, 67, 122
1, 25612, Control_c, 0, 64, 68
1, 25612, Control_c, 0, 67, 125
1, 25627, Control_c, 0, 64, 75
1, 25627, Control_c, 0, 67, 127
1, 25642, Control_c, 0, 64, 85
1, 25642, Control_c, 0, 67, 127
1, 25657, Control_c, 0, 64, 97
1, 25672, Control_c, 0, 64, 113
1, 25678, Note_on_c, 0, 38, 44
1, 25680, Note_on_c, 0, 31, 44
1, 25687, Control_c, 0, 64, 127
1, 25694, Note_off_c, 0, 74, 64
1, 25704, Note_off_c, 0, 65, 59
1, 25754, Note_off_c, 0, 31, 46
1, 25782, Note_off_c, 0, 38, 36
1, 25976, Control_c, 0, 64, 102
1, 25991, Control_c, 0, 64, 84
1, 25994, Note_on_c, 0, 71, 55
1, 26006, Note_on_c, 0, 65, 41
1, 26006, Control_c, 0, 64, 70
1, 26016, Note_on_c, 0, 62, 37
1, 26018, Note_on_c, 0, 38, 27
1, 26021, Control_c, 0, 64, 57
1, 26032, Note_on_c, 0, 31, 4
1, 26036, Control_c, 0, 64, 0
1, 26110, Control_c, 0, 64, 33
1, 26125, Control_c, 0, 64, 57
1, 26140, Control_c, 0, 64, 65
1, 26154, Control_c, 0, 64, 69
1, 26169, Control_c, 0, 64, 74
1, 26184, Control_c, 0, 64, 80
1, 26199, Control_c, 0, 64, 88
1, 26212, Control_c, 0, 64, 97
1, 26227, Control_c, 0, 64, 108
1, 26241, Control_c, 0, 64, 127
1, 26293, Note_off_c, 0, 38, 41
1, 26374, Note_off_c, 0, 31, 39
1, 26894, Note_on_c, 0, 24, 42
1, 26901, Control_c, 0, 64, 95
1, 26903, Note_on_c, 0, 36, 39
1, 26916, Control_c, 0, 64, 80
1, 26931, Control_c, 0, 64, 68
1, 26946, Control_c, 0, 64, 62
1, 26961, Control_c, 0, 64, 61
1, 26975, Control_c, 0, 64, 64
1, 26990, Control_c, 0, 64, 67
1, 27005, Control_c, 0, 64, 72
1, 27014, Note_off_c, 0, 65, 57
1, 27020, Control_c, 0, 64, 77
1, 27030, Note_off_c, 0, 62, 58
1, 27035, Control_c, 0, 64, 84
1, 27049, Control_c, 0, 64, 90
1, 27064, Control_c, 0, 64, 98
1, 27073, Note_off_c, 0, 36, 42
1, 27079, Control_c, 0, 64, 104
1, 27089, Note_off_c, 0, 24, 40
1, 27094, Control_c, 0, 64, 114
1, 27109, Control_c, 0, 64, 127
1, 27234, Note_on_c, 0, 24, 35
1, 27234, Note_on_c, 0, 36, 31
1, 27303, Note_off_c, 0, 36, 42
1, 27332, Note_off_c, 0, 24, 36
1, 27355, Note_on_c, 0, 72, 53
1, 27383, Note_on_c, 0, 64, 44
1, 27386, Note_off_c, 0, 71, 54
1, 27391, Note_on_c, 0, 60, 36
1, 27442, Control_c, 0, 64, 122
1, 27457, Control_c, 0, 64, 99
1, 27472, Control_c, 0, 64, 84
1, 27487, Control_c, 0, 64, 68
1, 27501, Control_c, 0, 64, 44
1, 27516, Control_c, 0, 64, 0
1, 27542, Note_on_c, 0, 24, 27
1, 27552, Note_on_c, 0, 36, 27
1, 27575, Control_c, 0, 64, 26
1, 27590, Control_c, 0, 64, 55
1, 27606, Control_c, 0, 64, 64
1, 27621, Control_c, 0, 64, 67
1, 27636, Control_c, 0, 64, 71
1, 27650, Control_c, 0, 64, 75
1, 27665, Control_c, 0, 64, 81
1, 27680, Control_c, 0, 64, 86
1, 27686, Note_off_c, 0, 60, 38
1, 27695, Control_c, 0, 64, 90
1, 27699, Note_off_c, 0, 36, 38
1, 27710, Note_off_c, 0, 64, 38
1, 27711, Control_c, 0, 64, 93
1, 27725, Note_off_c, 0, 72, 40
1, 27725, Control_c, 0, 64, 97
1, 27726, Note_off_c, 0, 24, 42
1, 27740, Control_c, 0, 64, 101
1, 27755, Control_c, 0, 64, 107
1, 27770, Control_c, 0, 64, 113
1, 27785, Control_c, 0, 64, 120
1, 27799, Control_c, 0, 64, 127
1, 28081, Control_c, 0, 64, 121
1, 28087, Note_on_c, 0, 72, 44
1, 28096, Note_on_c, 0, 24, 31
1, 28096, Control_c, 0, 64, 106
1, 28104, Note_on_c, 0, 36, 25
1, 28109, Note_on_c, 0, 64, 40
1, 28110, Control_c, 0, 64, 94
1, 28119, Note_on_c, 0, 60, 31
1, 28132, Control_c, 0, 64, 83
1, 28147, Control_c, 0, 64, 71
1, 28162, Control_c, 0, 64, 63
1, 28177, Control_c, 0, 64, 56
1, 28192, Control_c, 0, 64, 54
1, 28206, Control_c, 0, 64, 54
1, 28221, Control_c, 0, 64, 57
1, 28236, Control_c, 0, 64, 60
1, 28251, Control_c, 0, 64, 63
1, 28265, Control_c, 0, 64, 64
1, 28280, Control_c, 0, 64, 66
1, 28295, Control_c, 0, 64, 68
1, 28310, Control_c, 0, 64, 69
1, 28325, Control_c, 0, 64, 71
1, 28340, Control_c, 0, 64, 74
1, 28355, Control_c, 0, 64, 76
1, 28369, Control_c, 0, 64, 78
1, 28384, Control_c, 0, 64, 81
1, 28400, Control_c, 0, 64, 85
1, 28415, Control_c, 0, 64, 88
1, 28429, Control_c, 0, 64, 92
1, 28444, Control_c, 0, 64, 94
1, 28459, Control_c, 0, 64, 97
1, 28474, Control_c, 0, 64, 100
1, 28489, Control_c, 0, 64, 104
1, 28504, Control_c, 0, 64, 109
1, 28519, Control_c, 0, 64, 116
1, 28534, Control_c, 0, 64, 127
1, 29901, Note_off_c, 0, 72, 30
1, 30105, Note_off_c, 0, 24, 28
1, 30125, Note_off_c, 0, 64, 39
1, 30134, Poly_aftertouch_c, 0, 26, 127
1, 30148, Note_off_c, 0, 60, 42
1, 30224, Poly_aftertouch_c, 0, 26, 0
1, 30295, Note_off_c, 0, 36, 37
1, 30541, Control_c, 0, 64, 100
1, 30556, Control_c, 0, 64, 70
1, 30571, Control_c, 0, 64, 0
1, 30773, Note_on_c, 0, 36, 52
1, 30775, Note_on_c, 0, 60, 67
1, 30784, Note_on_c, 0, 48, 54
1, 30804, Note_off_c, 0, 60, 68
1, 30806, Note_off_c, 0, 36, 58
1, 30810, Note_off_c, 0, 48, 58
1, 30889, Note_on_c, 0, 34, 58
1, 30889, Note_on_c, 0, 58, 79
1, 30920, Note_off_c, 0, 34, 62
1, 30929, Note_off_c, 0, 58, 60
1, 30972, Control_c, 0, 64, 61
1, 30987, Control_c, 0, 64, 56
1, 30990, Note_on_c, 0, 32, 83
1, 30994, Note_on_c, 0, 56, 93
1, 31002, Control_c, 0, 64, 56
1, 31002, Control_c, 0, 67, 110
1, 31017, Control_c, 0, 64, 56
1, 31017, Control_c, 0, 67, 73
1, 31032, Control_c, 0, 64, 57
1, 31032, Control_c, 0, 67, 30
1, 31040, Note_off_c, 0, 56, 65
1, 31041, Note_off_c, 0, 32, 60
1, 31047, Control_c, 0, 64, 58
1, 31047, Control_c, 0, 67, 0
1, 31061, Control_c, 0, 64, 59
1, 31076, Control_c, 0, 64, 60
1, 31091, Control_c, 0, 64, 60
1, 31093, Note_on_c, 0, 36, 79
1, 31100, Note_on_c, 0, 60, 88
1, 31103, Note_on_c, 0, 48, 81
1, 31106, Control_c, 0, 64, 61
1, 31136, Note_off_c, 0, 36, 63
1, 31139, Note_off_c, 0, 48, 66
1, 31155, Note_off_c, 0, 60, 65
1, 31187, Control_c, 0, 64, 61
1, 31205, Note_on_c, 0, 31, 84
1, 31211, Note_on_c, 0, 55, 91
1, 31248, Note_off_c, 0, 31, 61
1, 31261, Control_c, 0, 64, 62
1, 31263, Note_off_c, 0, 55, 60
1, 31301, Note_on_c, 0, 36, 91
1, 31306, Control_c, 0, 64, 61
1, 31309, Note_on_c, 0, 60, 91
1, 31311, Note_on_c, 0, 48, 85
1, 31321, Control_c, 0, 64, 47
1, 31336, Control_c, 0, 64, 0
1, 31346, Note_off_c, 0, 48, 62
1, 31346, Note_off_c, 0, 36, 60
1, 31355, Note_off_c, 0, 60, 65
1, 31420, Note_on_c, 0, 41, 101
1, 31421, Note_on_c, 0, 53, 98
1, 31422, Note_on_c, 0, 29, 95
1, 31439, Control_c, 0, 64, 69
1, 31447, Note_off_c, 0, 29, 68
1, 31450, Note_off_c, 0, 41, 64
1, 31454, Control_c, 0, 64, 102
1, 31459, Note_off_c, 0, 53, 68
1, 31468, Control_c, 0, 64, 127
1, 31971, Note_on_c, 0, 60, 88
1, 31971, Note_on_c, 0, 65, 91
1, 31978, Note_on_c, 0, 56, 82
1, 31980, Control_c, 0, 64, 123
1, 31995, Control_c, 0, 64, 76
1, 32010, Control_c, 0, 64, 0
1, 32039, Control_c, 0, 64, 58
1, 32054, Control_c, 0, 64, 76
1, 32069, Control_c, 0, 64, 114
1, 32084, Control_c, 0, 64, 127
1, 32282, Note_off_c, 0, 60, 58
1, 32286, Note_on_c, 0, 55, 68
1, 32312, Note_off_c, 0, 56, 61
1, 32328, Note_off_c, 0, 65, 59
1, 32346, Note_on_c, 0, 53, 83
1, 32354, Note_off_c, 0, 55, 64
1, 32382, Note_off_c, 0, 53, 64
1, 32411, Control_c, 0, 64, 77
1, 32426, Control_c, 0, 64, 0
1, 32439, Note_on_c, 0, 70, 90
1, 32439, Note_on_c, 0, 82, 91
1, 32442, Note_on_c, 0, 79, 81
1, 32446, Note_on_c, 0, 61, 85
1, 32448, Note_on_c, 0, 67, 82
1, 32470, Control_c, 0, 64, 65
1, 32472, Note_off_c, 0, 67, 65
1, 32473, Note_off_c, 0, 61, 62
1, 32485, Control_c, 0, 64, 84
1, 32500, Control_c, 0, 64, 127
1, 32575, Note_off_c, 0, 70, 61
1, 32580, Note_off_c, 0, 79, 60
1, 32590, Note_off_c, 0, 82, 64
1, 32704, Note_on_c, 0, 84, 91
1, 32716, Note_on_c, 0, 72, 64
1, 32725, Note_off_c, 0, 84, 66
1, 32734, Note_off_c, 0, 72, 66
1, 32771, Note_on_c, 0, 85, 96
1, 32775, Note_on_c, 0, 73, 94
1, 32793, Note_off_c, 0, 73, 69
1, 32807, Note_off_c, 0, 85, 65
1, 32811, Note_on_c, 0, 84, 6
1, 32869, Note_off_c, 0, 84, 48
1, 32951, Control_c, 0, 64, 90
1, 32966, Control_c, 0, 64, 59
1, 32981, Control_c, 0, 64, 0
1, 32987, Note_on_c, 0, 40, 91
1, 32991, Note_on_c, 0, 52, 78
1, 32996, Note_on_c, 0, 53, 71
1, 32999, Note_on_c, 0, 28, 70
1, 33020, Note_off_c, 0, 52, 64
1, 33023, Note_off_c, 0, 53, 66
1, 33026, Control_c, 0, 64, 69
1, 33030, Note_off_c, 0, 28, 60
1, 33031, Note_off_c, 0, 40, 65
1, 33040, Control_c, 0, 64, 89
1, 33055, Control_c, 0, 64, 127
1, 33539, Note_on_c, 0, 67, 93
1, 33542, Note_on_c, 0, 61, 93
1, 33596, Control_c, 0, 64, 98
1, 33611, Control_c, 0, 64, 92
1, 33626, Control_c, 0, 64, 94
1, 33641, Control_c, 0, 64, 112
1, 33655, Control_c, 0, 64, 127
1, 33846, Note_off_c, 0, 61, 56
1, 33854, Note_on_c, 0, 60, 61
1, 33887, Note_off_c, 0, 67, 56
1, 33912, Note_on_c, 0, 58, 82
1, 33923, Note_off_c, 0, 60, 64
1, 33960, Note_off_c, 0, 58, 63
1, 33967, Control_c, 0, 64, 86
1, 33983, Control_c, 0, 64, 11
1, 33992, Note_on_c, 0, 84, 96
1, 33998, Note_on_c, 0, 72, 88
1, 33998, Control_c, 0, 64, 0
1, 33999, Note_on_c, 0, 66, 85
1, 33999, Note_on_c, 0, 69, 89
1, 34001, Note_on_c, 0, 78, 86
1, 34016, Note_off_c, 0, 69, 70
1, 34017, Note_off_c, 0, 66, 72
1, 34027, Control_c, 0, 64, 54
1, 34042, Control_c, 0, 64, 79
1, 34057, Control_c, 0, 64, 127
1, 34087, Note_off_c, 0, 72, 62
1, 34117, Note_off_c, 0, 84, 61
1, 34131, Note_off_c, 0, 78, 63
1, 34242, Note_on_c, 0, 73, 83
1, 34247, Note_on_c, 0, 85, 77
1, 34260, Note_off_c, 0, 73, 71
1, 34261, Note_off_c, 0, 85, 69
1, 34308, Note_on_c, 0, 87, 100
1, 34311, Note_on_c, 0, 75, 89
1, 34323, Note_on_c, 0, 88, 82
1, 34333, Note_off_c, 0, 75, 65
1, 34338, Note_off_c, 0, 88, 69
1, 34349, Note_off_c, 0, 87, 66
1, 34508, Control_c, 0, 64, 86
1, 34523, Control_c, 0, 64, 0
1, 34550, Note_on_c, 0, 51, 101
1, 34555, Note_on_c, 0, 39, 94
1, 34560, Note_on_c, 0, 27, 89
1, 34576, Note_off_c, 0, 51, 67
1, 34582, Control_c, 0, 64, 64
1, 34586, Note_off_c, 0, 27, 67
1, 34597, Note_off_c, 0, 39, 63
1, 34597, Control_c, 0, 64, 85
1, 34612, Control_c, 0, 64, 127
1, 35116, Note_on_c, 0, 72, 96
1, 35119, Note_on_c, 0, 69, 89
1, 35125, Note_on_c, 0, 66, 86
1, 35426, Note_off_c, 0, 69, 58
1, 35444, Note_on_c, 0, 65, 68
1, 35447, Note_off_c, 0, 66, 56
1, 35462, Note_off_c, 0, 72, 59
1, 35503, Note_on_c, 0, 63, 81
1, 35512, Note_off_c, 0, 65, 62
1, 35550, Note_off_c, 0, 63, 62
1, 35554, Control_c, 0, 64, 94
1, 35568, Control_c, 0, 64, 62
1, 35584, Control_c, 0, 64, 0
1, 35585, Note_on_c, 0, 82, 98
1, 35585, Note_on_c, 0, 89, 96
1, 35590, Note_on_c, 0, 77, 91
1, 35591, Note_on_c, 0, 75, 94
1, 35595, Note_on_c, 0, 70, 84
1, 35621, Control_c, 0, 64, 30
1, 35631, Note_off_c, 0, 70, 63
1, 35632, Note_off_c, 0, 75, 65
1, 35636, Control_c, 0, 64, 70
1, 35651, Control_c, 0, 64, 104
1, 35665, Control_c, 0, 64, 127
1, 35703, Note_off_c, 0, 77, 60
1, 35705, Note_off_c, 0, 82, 64
1, 35725, Note_off_c, 0, 89, 63
1, 35837, Note_on_c, 0, 93, 98
1, 35839, Note_on_c, 0, 81, 85
1, 35854, Note_off_c, 0, 81, 74
1, 35865, Note_off_c, 0, 93, 62
1, 35908, Note_on_c, 0, 94, 100
1, 35911, Note_on_c, 0, 82, 106
1, 35932, Note_off_c, 0, 82, 63
1, 35941, Note_off_c, 0, 94, 68
1, 36125, Control_c, 0, 64, 76
1, 36139, Control_c, 0, 64, 0
1, 36159, Note_on_c, 0, 50, 110
1, 36163, Note_on_c, 0, 38, 96
1, 36169, Note_on_c, 0, 26, 86
1, 36183, Control_c, 0, 64, 33
1, 36188, Note_off_c, 0, 50, 68
1, 36197, Note_off_c, 0, 26, 64
1, 36198, Control_c, 0, 64, 68
1, 36205, Note_off_c, 0, 38, 65
1, 36213, Control_c, 0, 64, 86
1, 36228, Control_c, 0, 64, 127
1, 36615, Note_on_c, 0, 65, 72
1, 36669, Note_on_c, 0, 70, 72
1, 36709, Note_on_c, 0, 77, 102
1, 36720, Note_on_c, 0, 94, 102
1, 36721, Note_on_c, 0, 82, 99
1, 36723, Note_on_c, 0, 89, 95
1, 36725, Note_off_c, 0, 65, 64
1, 36733, Note_off_c, 0, 70, 68
1, 36736, Note_off_c, 0, 77, 72
1, 36788, Note_off_c, 0, 82, 69
1, 36809, Note_off_c, 0, 89, 61
1, 36823, Note_off_c, 0, 94, 67
1, 37003, Note_on_c, 0, 86, 93
1, 37004, Note_on_c, 0, 98, 97
1, 37019, Note_off_c, 0, 86, 74
1, 37027, Note_off_c, 0, 98, 68
1, 37079, Note_on_c, 0, 101, 103
1, 37080, Note_on_c, 0, 89, 102
1, 37122, Note_off_c, 0, 89, 66
1, 37126, Note_off_c, 0, 101, 69
1, 37298, Control_c, 0, 64, 122
1, 37301, Note_on_c, 0, 49, 102
1, 37305, Note_on_c, 0, 37, 97
1, 37312, Control_c, 0, 64, 74
1, 37327, Control_c, 0, 64, 0
1, 37372, Control_c, 0, 64, 67
1, 37383, Poly_aftertouch_c, 0, 43, 127
1, 37386, Control_c, 0, 64, 91
1, 37401, Control_c, 0, 64, 127
1, 37427, Poly_aftertouch_c, 0, 43, 0
1, 37549, Note_off_c, 0, 49, 63
1, 37560, Note_off_c, 0, 37, 57
1, 37845, Control_c, 0, 64, 73
1, 37867, Control_c, 0, 64, 0
1, 37873, Note_on_c, 0, 65, 99
1, 37875, Note_on_c, 0, 48, 101
1, 37877, Note_on_c, 0, 68, 90
1, 37883, Note_on_c, 0, 36, 79
1, 37894, Note_off_c, 0, 48, 68
1, 37895, Note_on_c, 0, 43, 28
1, 37906, Note_off_c, 0, 36, 62
1, 37912, Control_c, 0, 64, 73
1, 37923, Note_off_c, 0, 43, 47
1, 37927, Control_c, 0, 64, 113
1, 37941, Control_c, 0, 64, 127
1, 37952, Note_on_c, 0, 48, 36
1, 37966, Note_off_c, 0, 48, 66
1, 38111, Poly_aftertouch_c, 0, 48, 0
1, 38164, Note_off_c, 0, 65, 54
1, 38178, Note_on_c, 0, 72, 82
1, 38183, Note_off_c, 0, 68, 61
1, 38245, Note_off_c, 0, 72, 64
1, 38246, Note_on_c, 0, 77, 91
1, 38278, Note_off_c, 0, 77, 67
1, 38284, Note_on_c, 0, 48, 70
1, 38321, Note_on_c, 0, 50, 36
1, 38329, Note_off_c, 0, 48, 60
1, 38338, Note_on_c, 0, 56, 79
1, 38349, Note_off_c, 0, 50, 62
1, 38365, Note_on_c, 0, 60, 73
1, 38386, Control_c, 0, 64, 90
1, 38401, Control_c, 0, 64, 67
1, 38407, Note_on_c, 0, 80, 92
1, 38408, Note_on_c, 0, 92, 107
1, 38415, Control_c, 0, 64, 63
1, 38416, Note_on_c, 0, 65, 97
1, 38430, Control_c, 0, 64, 72
1, 38433, Note_off_c, 0, 80, 64
1, 38445, Control_c, 0, 64, 89
1, 38453, Note_off_c, 0, 92, 64
1, 38460, Control_c, 0, 64, 127
1, 38499, Poly_aftertouch_c, 0, 93, 127
1, 38525, Poly_aftertouch_c, 0, 93, 0
1, 38629, Note_off_c, 0, 65, 58
1, 38658, Note_off_c, 0, 60, 63
1, 38660, Note_on_c, 0, 96, 91
1, 38664, Note_off_c, 0, 56, 62
1, 38666, Note_on_c, 0, 84, 65
1, 38675, Note_off_c, 0, 96, 76
1, 38681, Note_off_c, 0, 84, 67
1, 38737, Note_on_c, 0, 101, 100
1, 38740, Note_on_c, 0, 89, 94
1, 38764, Note_off_c, 0, 89, 62
1, 38768, Note_off_c, 0, 101, 65
1, 38769, Note_on_c, 0, 48, 86
1, 38805, Note_on_c, 0, 55, 56
1, 38812, Note_off_c, 0, 48, 61
1, 38824, Note_on_c, 0, 50, 61
1, 38824, Control_c, 0, 64, 88
1, 38834, Note_on_c, 0, 60, 80
1, 38839, Control_c, 0, 64, 58
1, 38849, Note_on_c, 0, 64, 107
1, 38849, Note_off_c, 0, 50, 60
1, 38854, Control_c, 0, 64, 36
1, 38862, Note_off_c, 0, 55, 53
1, 38869, Control_c, 0, 64, 67
1, 38883, Control_c, 0, 64, 84
1, 38898, Control_c, 0, 64, 127
1, 38911, Note_on_c, 0, 91, 54
1, 38938, Note_off_c, 0, 64, 58
1, 38975, Note_off_c, 0, 91, 0
1, 38975, Note_on_c, 0, 91, 41
1, 38977, Note_off_c, 0, 60, 58
1, 38984, Note_on_c, 0, 100, 98
1, 38985, Note_on_c, 0, 88, 96
1, 38985, Note_on_c, 0, 96, 85
1, 39030, Note_off_c, 0, 88, 64
1, 39039, Note_off_c, 0, 91, 64
1, 39046, Note_off_c, 0, 100, 62
1, 39047, Note_off_c, 0, 96, 66
1, 39064, Note_on_c, 0, 48, 87
1, 39078, Note_on_c, 0, 53, 63
1, 39105, Note_off_c, 0, 48, 58
1, 39113, Note_on_c, 0, 50, 61
1, 39133, Note_on_c, 0, 60, 80
1, 39143, Note_off_c, 0, 50, 67
1, 39144, Note_on_c, 0, 62, 97
1, 39164, Note_off_c, 0, 53, 61
1, 39207, Note_off_c, 0, 62, 63
1, 39242, Note_on_c, 0, 96, 93
1, 39245, Note_on_c, 0, 86, 96
1, 39245, Note_on_c, 0, 98, 100
1, 39249, Note_on_c, 0, 89, 76
1, 39262, Note_off_c, 0, 60, 37
1, 39266, Note_off_c, 0, 89, 67
1, 39281, Note_off_c, 0, 86, 68
1, 39288, Note_on_c, 0, 90, 26
1, 39289, Note_off_c, 0, 90, 127
1, 39295, Note_on_c, 0, 48, 89
1, 39331, Note_off_c, 0, 98, 64
1, 39335, Note_on_c, 0, 55, 52
1, 39357, Note_off_c, 0, 48, 62
1, 39365, Note_on_c, 0, 50, 45
1, 39369, Note_on_c, 0, 60, 77
1, 39382, Note_off_c, 0, 96, 48
1, 39393, Control_c, 0, 64, 82
1, 39397, Note_off_c, 0, 50, 56
1, 39399, Note_on_c, 0, 91, 75
1, 39402, Note_on_c, 0, 96, 56
1, 39403, Note_on_c, 0, 64, 102
1, 39405, Note_on_c, 0, 100, 103
1, 39406, Note_off_c, 0, 55, 63
1, 39408, Note_on_c, 0, 88, 100
1, 39408, Control_c, 0, 64, 0
1, 39431, Note_off_c, 0, 64, 71
1, 39435, Note_off_c, 0, 60, 65
1, 39438, Control_c, 0, 64, 69
1, 39447, Note_off_c, 0, 88, 66
1, 39453, Control_c, 0, 64, 102
1, 39456, Note_off_c, 0, 100, 68
1, 39468, Control_c, 0, 64, 127
1, 39475, Note_off_c, 0, 91, 66
1, 39479, Note_off_c, 0, 96, 66
1, 39631, Control_c, 0, 64, 117
1, 39646, Control_c, 0, 64, 75
1, 39661, Control_c, 0, 64, 0
1, 39870, Note_on_c, 0, 36, 70
1, 39903, Note_on_c, 0, 43, 68
1, 39912, Control_c, 0, 64, 19
1, 39914, Note_off_c, 0, 36, 60
1, 39927, Control_c, 0, 64, 70
1, 39936, Note_on_c, 0, 48, 85
1, 39942, Control_c, 0, 64, 127
1, 39953, Note_on_c, 0, 84, 94
1, 39957, Note_on_c, 0, 76, 88
1, 39960, Note_on_c, 0, 72, 93
1, 39961, Note_on_c, 0, 79, 84
1, 39969, Note_on_c, 0, 52, 100
1, 39971, Note_off_c, 0, 43, 62
1, 39983, Note_off_c, 0, 48, 65
1, 39987, Note_off_c, 0, 72, 64
1, 39992, Note_off_c, 0, 52, 69
1, 39994, Note_off_c, 0, 76, 66
1, 39999, Note_off_c, 0, 84, 62
1, 40007, Note_off_c, 0, 79, 61
1, 40335, Control_c, 0, 64, 112
1, 40349, Control_c, 0, 64, 96
1, 40364, Control_c, 0, 64, 82
1, 40380, Control_c, 0, 64, 69
1, 40395, Control_c, 0, 64, 47
1, 40410, Control_c, 0, 64, 0
1, 40661, Control_c, 0, 64, 14
1, 40676, Control_c, 0, 64, 28
1, 40691, Control_c, 0, 64, 33
1, 40706, Control_c, 0, 64, 37
1, 40720, Control_c, 0, 64, 43
1, 40735, Control_c, 0, 64, 49
1, 40750, Control_c, 0, 64, 54
1, 40765, Control_c, 0, 64, 56
1, 40779, Control_c, 0, 64, 57
1, 40861, Control_c, 0, 64, 58
1, 40876, Control_c, 0, 64, 58
1, 40891, Control_c, 0, 64, 59
1, 40906, Control_c, 0, 64, 59
1, 40921, Control_c, 0, 64, 60
1, 40950, Control_c, 0, 64, 60
1, 40965, Control_c, 0, 64, 61
1, 40979, Control_c, 0, 64, 61
1, 41009, Control_c, 0, 64, 62
1, 41024, Control_c, 0, 64, 62
1, 41039, Control_c, 0, 64, 63
1, 41068, Control_c, 0, 64, 63
1, 41113, Control_c, 0, 64, 64
1, 41143, Control_c, 0, 64, 64
1, 41158, Control_c, 0, 64, 65
1, 41212, Note_on_c, 0, 72, 83
1, 41216, Note_on_c, 0, 63, 75
1, 41218, Note_on_c, 0, 60, 74
1, 41220, Note_on_c, 0, 68, 78
1, 41277, Control_c, 0, 64, 65
1, 41366, Control_c, 0, 64, 66
1, 41381, Control_c, 0, 64, 66
1, 41395, Control_c, 0, 64, 67
1, 41410, Control_c, 0, 64, 67
1, 41425, Control_c, 0, 64, 68
1, 41455, Control_c, 0, 64, 68
1, 41484, Control_c, 0, 64, 69
1, 41514, Control_c, 0, 64, 69
1, 41543, Control_c, 0, 64, 70
1, 41573, Control_c, 0, 64, 70
1, 41744, Note_on_c, 0, 36, 86
1, 41769, Note_off_c, 0, 36, 68
1, 41773, Control_c, 0, 64, 70
1, 41817, Control_c, 0, 64, 70
1, 41876, Control_c, 0, 64, 71
1, 41936, Control_c, 0, 64, 71
1, 41999, Note_off_c, 0, 72, 59
1, 42011, Control_c, 0, 64, 72
1, 42017, Note_off_c, 0, 60, 59
1, 42025, Control_c, 0, 64, 72
1, 42028, Note_on_c, 0, 34, 81
1, 42040, Note_off_c, 0, 68, 59
1, 42040, Control_c, 0, 64, 73
1, 42048, Note_off_c, 0, 63, 61
1, 42055, Control_c, 0, 64, 73
1, 42060, Note_off_c, 0, 34, 65
1, 42070, Control_c, 0, 64, 74
1, 42085, Control_c, 0, 64, 75
1, 42100, Control_c, 0, 64, 77
1, 42106, Note_on_c, 0, 32, 84
1, 42115, Control_c, 0, 64, 79
1, 42130, Control_c, 0, 64, 81
1, 42144, Control_c, 0, 64, 83
1, 42146, Note_off_c, 0, 32, 63
1, 42159, Control_c, 0, 64, 84
1, 42189, Control_c, 0, 64, 77
1, 42204, Control_c, 0, 64, 62
1, 42214, Note_on_c, 0, 70, 86
1, 42215, Note_on_c, 0, 39, 82
1, 42215, Note_on_c, 0, 58, 86
1, 42216, Note_on_c, 0, 67, 73
1, 42218, Note_on_c, 0, 63, 77
1, 42218, Control_c, 0, 64, 0
1, 42246, Note_off_c, 0, 39, 66
1, 42419, Control_c, 0, 64, 68
1, 42433, Control_c, 0, 64, 77
1, 42448, Control_c, 0, 64, 93
1, 42455, Note_off_c, 0, 58, 65
1, 42463, Control_c, 0, 64, 127
1, 42495, Note_off_c, 0, 70, 60
1, 42498, Note_off_c, 0, 67, 59
1, 42499, Note_off_c, 0, 63, 59
1, 42738, Note_on_c, 0, 73, 89
1, 42741, Note_on_c, 0, 61, 84
1, 42742, Note_on_c, 0, 68, 76
1, 42746, Note_on_c, 0, 65, 78
1, 42759, Control_c, 0, 64, 108
1, 42774, Control_c, 0, 64, 74
1, 42789, Control_c, 0, 64, 0
1, 43263, Note_on_c, 0, 41, 94
1, 43295, Note_off_c, 0, 41, 66
1, 43558, Note_on_c, 0, 39, 80
1, 43589, Note_off_c, 0, 39, 65
1, 43639, Note_on_c, 0, 37, 83
1, 43678, Note_off_c, 0, 37, 62
1, 43732, Control_c, 0, 64, 11
1, 43743, Note_on_c, 0, 49, 84
1, 43746, Control_c, 0, 64, 14
1, 43761, Control_c, 0, 64, 17
1, 43853, Note_off_c, 0, 49, 65
1, 43858, Control_c, 0, 64, 21
1, 43887, Control_c, 0, 64, 23
1, 43902, Control_c, 0, 64, 24
1, 43961, Control_c, 0, 64, 23
1, 43991, Control_c, 0, 64, 21
1, 44020, Control_c, 0, 64, 19
1, 44035, Control_c, 0, 64, 17
1, 44094, Control_c, 0, 64, 19
1, 44109, Control_c, 0, 64, 23
1, 44124, Control_c, 0, 64, 30
1, 44139, Control_c, 0, 64, 35
1, 44154, Control_c, 0, 64, 37
1, 44169, Control_c, 0, 64, 38
1, 44183, Control_c, 0, 64, 40
1, 44197, Control_c, 0, 64, 41
1, 44212, Control_c, 0, 64, 43
1, 44227, Control_c, 0, 64, 44
1, 44242, Control_c, 0, 64, 47
1, 44257, Control_c, 0, 64, 49
1, 44271, Control_c, 0, 64, 52
1, 44286, Control_c, 0, 64, 53
1, 44301, Control_c, 0, 64, 54
1, 44315, Control_c, 0, 64, 55
1, 44330, Control_c, 0, 64, 56
1, 44345, Control_c, 0, 64, 57
1, 44359, Note_off_c, 0, 68, 53
1, 44360, Note_off_c, 0, 61, 59
1, 44360, Note_off_c, 0, 73, 58
1, 44360, Control_c, 0, 64, 58
1, 44370, Note_off_c, 0, 65, 54
1, 44376, Control_c, 0, 64, 59
1, 44391, Control_c, 0, 64, 59
1, 44420, Control_c, 0, 64, 60
1, 44424, Note_on_c, 0, 61, 82
1, 44424, Note_on_c, 0, 65, 69
1, 44427, Note_on_c, 0, 73, 83
1, 44428, Note_on_c, 0, 70, 80
1, 44494, Control_c, 0, 64, 60
1, 44583, Control_c, 0, 64, 61
1, 44635, Control_c, 0, 64, 61
1, 44724, Control_c, 0, 64, 62
1, 44857, Control_c, 0, 64, 62
1, 44902, Control_c, 0, 64, 60
1, 44917, Control_c, 0, 64, 38
1, 44932, Control_c, 0, 64, 0
1, 44941, Note_on_c, 0, 37, 83
1, 44963, Note_off_c, 0, 37, 67
1, 45035, Control_c, 0, 64, 27
1, 45050, Control_c, 0, 64, 43
1, 45065, Control_c, 0, 64, 47
1, 45080, Control_c, 0, 64, 51
1, 45094, Control_c, 0, 64, 54
1, 45109, Control_c, 0, 64, 57
1, 45124, Control_c, 0, 64, 60
1, 45138, Control_c, 0, 64, 61
1, 45153, Control_c, 0, 64, 62
1, 45169, Control_c, 0, 64, 63
1, 45184, Control_c, 0, 64, 63
1, 45197, Note_on_c, 0, 36, 78
1, 45214, Control_c, 0, 64, 64
1, 45228, Note_off_c, 0, 36, 67
1, 45229, Control_c, 0, 64, 64
1, 45274, Note_off_c, 0, 70, 58
1, 45275, Note_off_c, 0, 61, 63
1, 45281, Note_on_c, 0, 34, 85
1, 45287, Note_off_c, 0, 73, 62
1, 45288, Control_c, 0, 64, 65
1, 45289, Note_off_c, 0, 65, 38
1, 45303, Control_c, 0, 64, 65
1, 45313, Note_off_c, 0, 34, 65
1, 45317, Control_c, 0, 64, 66
1, 45332, Control_c, 0, 64, 67
1, 45355, Control_c, 0, 64, 68
1, 45384, Control_c, 0, 64, 67
1, 45397, Note_on_c, 0, 41, 87
1, 45399, Note_on_c, 0, 72, 90
1, 45399, Control_c, 0, 64, 62
1, 45405, Note_on_c, 0, 60, 83
1, 45408, Note_on_c, 0, 68, 76
1, 45409, Note_on_c, 0, 65, 77
1, 45414, Control_c, 0, 64, 0
1, 45434, Note_off_c, 0, 41, 65
1, 45591, Control_c, 0, 64, 67
1, 45606, Control_c, 0, 64, 88
1, 45621, Control_c, 0, 64, 114
1, 45628, Note_off_c, 0, 60, 63
1, 45635, Control_c, 0, 64, 127
1, 45637, Note_off_c, 0, 72, 62
1, 45666, Note_off_c, 0, 65, 63
1, 45686, Note_off_c, 0, 68, 60
1, 45933, Note_on_c, 0, 75, 85
1, 45939, Note_on_c, 0, 66, 71
1, 45940, Note_on_c, 0, 63, 76
1, 45942, Note_on_c, 0, 70, 73
1, 45963, Control_c, 0, 64, 99
1, 45978, Control_c, 0, 64, 74
1, 45992, Control_c, 0, 64, 0
1, 46445, Note_on_c, 0, 42, 87
1, 46460, Control_c, 0, 64, 11
1, 46470, Note_off_c, 0, 42, 68
1, 46474, Control_c, 0, 64, 14
1, 46489, Control_c, 0, 64, 23
1, 46504, Control_c, 0, 64, 31
1, 46518, Control_c, 0, 64, 36
1, 46533, Control_c, 0, 64, 38
1, 46548, Control_c, 0, 64, 41
1, 46563, Control_c, 0, 64, 44
1, 46578, Control_c, 0, 64, 46
1, 46592, Control_c, 0, 64, 49
1, 46607, Control_c, 0, 64, 51
1, 46622, Control_c, 0, 64, 52
1, 46637, Control_c, 0, 64, 53
1, 46652, Control_c, 0, 64, 55
1, 46667, Control_c, 0, 64, 56
1, 46682, Control_c, 0, 64, 57
1, 46696, Control_c, 0, 64, 58
1, 46711, Control_c, 0, 64, 59
1, 46719, Note_on_c, 0, 41, 77
1, 46726, Control_c, 0, 64, 59
1, 46752, Note_off_c, 0, 41, 65
1, 46756, Control_c, 0, 64, 60
1, 46771, Control_c, 0, 64, 61
1, 46786, Control_c, 0, 64, 62
1, 46801, Control_c, 0, 64, 62
1, 46804, Note_on_c, 0, 39, 78
1, 46816, Control_c, 0, 64, 63
1, 46831, Control_c, 0, 64, 64
1, 46833, Note_off_c, 0, 39, 66
1, 46853, Control_c, 0, 64, 64
1, 46868, Control_c, 0, 64, 65
1, 46897, Control_c, 0, 64, 64
1, 46912, Control_c, 0, 64, 61
1, 46920, Note_on_c, 0, 51, 83
1, 46927, Control_c, 0, 64, 36
1, 46941, Control_c, 0, 64, 0
1, 46987, Note_off_c, 0, 51, 63
1, 47149, Control_c, 0, 64, 56
1, 47164, Control_c, 0, 64, 73
1, 47169, Note_off_c, 0, 63, 61
1, 47179, Control_c, 0, 64, 83
1, 47194, Control_c, 0, 64, 101
1, 47201, Note_off_c, 0, 66, 59
1, 47209, Control_c, 0, 64, 127
1, 47227, Note_off_c, 0, 70, 57
1, 47248, Note_off_c, 0, 75, 62
1, 47460, Note_on_c, 0, 75, 75
1, 47467, Note_on_c, 0, 72, 56
1, 47474, Control_c, 0, 64, 93
1, 47477, Note_on_c, 0, 66, 55
1, 47489, Control_c, 0, 64, 79
1, 47492, Note_on_c, 0, 70, 47
1, 47504, Control_c, 0, 64, 73
1, 47519, Control_c, 0, 64, 76
1, 47534, Control_c, 0, 64, 89
1, 47549, Control_c, 0, 64, 127
1, 47620, Note_off_c, 0, 66, 61
1, 47622, Note_off_c, 0, 72, 61
1, 47637, Note_off_c, 0, 70, 56
1, 47647, Note_off_c, 0, 75, 62
1, 47713, Note_on_c, 0, 73, 92
1, 47721, Note_on_c, 0, 70, 78
1, 47723, Note_on_c, 0, 65, 69
1, 47735, Control_c, 0, 64, 86
1, 47744, Note_off_c, 0, 65, 66
1, 47750, Control_c, 0, 64, 71
1, 47764, Control_c, 0, 64, 69
1, 47769, Note_off_c, 0, 70, 61
1, 47779, Control_c, 0, 64, 76
1, 47786, Note_off_c, 0, 73, 63
1, 47794, Control_c, 0, 64, 90
1, 47809, Control_c, 0, 64, 127
1, 47957, Control_c, 0, 64, 104
1, 47963, Note_on_c, 0, 78, 86
1, 47972, Control_c, 0, 64, 79
1, 47976, Note_on_c, 0, 70, 67
1, 47981, Note_on_c, 0, 72, 56
1, 47987, Control_c, 0, 64, 61
1, 48002, Control_c, 0, 64, 0
1, 48090, Control_c, 0, 64, 27
1, 48105, Control_c, 0, 64, 36
1, 48120, Control_c, 0, 64, 40
1, 48135, Control_c, 0, 64, 42
1, 48150, Control_c, 0, 64, 43
1, 48164, Control_c, 0, 64, 44
1, 48179, Control_c, 0, 64, 45
1, 48194, Control_c, 0, 64, 49
1, 48209, Control_c, 0, 64, 54
1, 48220, Note_on_c, 0, 30, 71
1, 48224, Control_c, 0, 64, 56
1, 48249, Note_off_c, 0, 30, 63
1, 48268, Control_c, 0, 64, 57
1, 48282, Control_c, 0, 64, 57
1, 48297, Control_c, 0, 64, 60
1, 48302, Note_on_c, 0, 29, 83
1, 48312, Control_c, 0, 64, 62
1, 48327, Control_c, 0, 64, 64
1, 48344, Note_off_c, 0, 29, 68
1, 48350, Control_c, 0, 64, 65
1, 48366, Control_c, 0, 64, 66
1, 48381, Control_c, 0, 64, 66
1, 48395, Control_c, 0, 64, 67
1, 48418, Note_on_c, 0, 41, 79
1, 48440, Control_c, 0, 64, 66
1, 48446, Note_off_c, 0, 41, 65
1, 48455, Control_c, 0, 64, 63
1, 48469, Control_c, 0, 64, 55
1, 48470, Note_off_c, 0, 70, 55
1, 48484, Control_c, 0, 64, 0
1, 48505, Note_off_c, 0, 72, 53
1, 48634, Note_on_c, 0, 77, 73
1, 48634, Note_on_c, 0, 72, 57
1, 48640, Note_on_c, 0, 68, 56
1, 48661, Control_c, 0, 64, 47
1, 48676, Control_c, 0, 64, 70
1, 48691, Control_c, 0, 64, 76
1, 48703, Note_off_c, 0, 68, 61
1, 48706, Note_off_c, 0, 78, 56
1, 48706, Control_c, 0, 64, 88
1, 48720, Note_off_c, 0, 77, 62
1, 48720, Control_c, 0, 64, 118
1, 48726, Note_off_c, 0, 72, 63
1, 48735, Control_c, 0, 64, 127
1, 48867, Note_on_c, 0, 75, 71
1, 48880, Note_on_c, 0, 70, 62
1, 48883, Control_c, 0, 64, 93
1, 48893, Note_on_c, 0, 66, 52
1, 48898, Control_c, 0, 64, 74
1, 48912, Control_c, 0, 64, 65
1, 48927, Control_c, 0, 64, 68
1, 48942, Control_c, 0, 64, 76
1, 48945, Note_off_c, 0, 66, 53
1, 48950, Note_off_c, 0, 70, 62
1, 48957, Control_c, 0, 64, 91
1, 48972, Control_c, 0, 64, 127
1, 49090, Note_on_c, 0, 73, 80
1, 49093, Note_on_c, 0, 65, 71
1, 49106, Note_on_c, 0, 68, 72
1, 49112, Control_c, 0, 64, 105
1, 49127, Control_c, 0, 64, 83
1, 49133, Note_off_c, 0, 65, 58
1, 49140, Note_off_c, 0, 75, 60
1, 49142, Control_c, 0, 64, 71
1, 49157, Control_c, 0, 64, 69
1, 49162, Note_off_c, 0, 68, 61
1, 49173, Control_c, 0, 64, 77
1, 49180, Note_off_c, 0, 73, 61
1, 49188, Control_c, 0, 64, 92
1, 49203, Control_c, 0, 64, 127
1, 49327, Note_on_c, 0, 70, 74
1, 49335, Control_c, 0, 64, 91
1, 49337, Note_on_c, 0, 61, 63
1, 49339, Note_on_c, 0, 64, 56
1, 49350, Control_c, 0, 64, 70
1, 49365, Control_c, 0, 64, 0
1, 49380, Note_on_c, 0, 67, 25
1, 49579, Note_on_c, 0, 31, 67
1, 49608, Note_off_c, 0, 61, 61
1, 49609, Note_off_c, 0, 31, 60
1, 49618, Control_c, 0, 64, 27
1, 49633, Control_c, 0, 64, 38
1, 49648, Control_c, 0, 64, 39
1, 49673, Note_on_c, 0, 29, 64
1, 49677, Control_c, 0, 64, 36
1, 49692, Control_c, 0, 64, 0
1, 49705, Note_off_c, 0, 29, 62
1, 49785, Note_on_c, 0, 41, 76
1, 49812, Note_off_c, 0, 41, 64
1, 50026, Control_c, 0, 64, 63
1, 50034, Note_on_c, 0, 72, 60
1, 50041, Control_c, 0, 64, 68
1, 50048, Note_on_c, 0, 60, 43
1, 50056, Control_c, 0, 64, 76
1, 50071, Control_c, 0, 64, 87
1, 50086, Control_c, 0, 64, 106
1, 50091, Note_off_c, 0, 70, 55
1, 50094, Note_off_c, 0, 64, 62
1, 50094, Note_off_c, 0, 67, 47
1, 50101, Control_c, 0, 64, 127
1, 50118, Note_off_c, 0, 60, 56
1, 50164, Note_off_c, 0, 72, 57
1, 50292, Control_c, 0, 64, 98
1, 50294, Note_on_c, 0, 72, 55
1, 50298, Note_on_c, 0, 65, 50
1, 50300, Note_on_c, 0, 69, 55
1, 50304, Note_on_c, 0, 60, 42
1, 50307, Control_c, 0, 64, 77
1, 50322, Control_c, 0, 64, 48
1, 50322, Control_c, 0, 67, 8
1, 50337, Control_c, 0, 64, 0
1, 50337, Control_c, 0, 67, 11
1, 50352, Control_c, 0, 67, 15
1, 50366, Control_c, 0, 67, 20
1, 50381, Control_c, 0, 67, 27
1, 50396, Control_c, 0, 67, 35
1, 50411, Control_c, 0, 67, 42
1, 50426, Control_c, 0, 67, 48
1, 50440, Control_c, 0, 67, 54
1, 50455, Control_c, 0, 67, 62
1, 50470, Control_c, 0, 67, 68
1, 50485, Control_c, 0, 67, 74
1, 50500, Control_c, 0, 67, 80
1, 50515, Control_c, 0, 67, 86
1, 50530, Control_c, 0, 67, 92
1, 50545, Control_c, 0, 67, 97
1, 50559, Control_c, 0, 67, 103
1, 50574, Control_c, 0, 67, 107
1, 50596, Control_c, 0, 67, 111
1, 50611, Control_c, 0, 67, 116
1, 50626, Control_c, 0, 67, 120
1, 50640, Control_c, 0, 67, 124
1, 50655, Control_c, 0, 67, 127
1, 50853, Note_on_c, 0, 33, 64
1, 50891, Note_off_c, 0, 33, 63
1, 51385, Note_on_c, 0, 31, 58
1, 51417, Note_off_c, 0, 31, 62
1, 51651, Note_on_c, 0, 29, 61
1, 51684, Note_off_c, 0, 29, 63
1, 51920, Note_on_c, 0, 41, 59
1, 51955, Note_off_c, 0, 41, 63
1, 53118, Note_off_c, 0, 72, 38
1, 53168, Note_off_c, 0, 69, 56
1, 53176, Note_off_c, 0, 60, 60
1, 53187, Note_off_c, 0, 65, 59
1, 53810, Note_on_c, 0, 58, 39
1, 53811, Note_on_c, 0, 62, 52
1, 53824, Note_on_c, 0, 53, 39
1, 53828, Note_on_c, 0, 50, 37
1, 54368, Note_on_c, 0, 38, 53
1, 54398, Note_off_c, 0, 38, 55
1, 54616, Note_off_c, 0, 53, 64
1, 54624, Note_on_c, 0, 36, 60
1, 54635, Note_off_c, 0, 58, 61
1, 54638, Note_off_c, 0, 50, 64
1, 54655, Note_off_c, 0, 36, 61
1, 54720, Note_on_c, 0, 34, 59
1, 54748, Note_off_c, 0, 34, 56
1, 54855, Note_on_c, 0, 60, 61
1, 54858, Note_off_c, 0, 62, 60
1, 54876, Note_on_c, 0, 57, 50
1, 54897, Note_on_c, 0, 53, 46
1, 55083, Note_off_c, 0, 53, 65
1, 55096, Note_off_c, 0, 57, 63
1, 55102, Note_on_c, 0, 41, 66
1, 55130, Note_off_c, 0, 41, 63
1, 55364, Note_on_c, 0, 63, 66
1, 55369, Note_on_c, 0, 55, 47
1, 55370, Note_on_c, 0, 51, 54
1, 55380, Note_on_c, 0, 58, 60
1, 55419, Note_off_c, 0, 60, 59
1, 55857, Note_on_c, 0, 67, 64
1, 55880, Note_off_c, 0, 67, 63
1, 56000, Control_c, 0, 67, 127
1, 56088, Note_on_c, 0, 65, 64
1, 56114, Note_off_c, 0, 63, 58
1, 56115, Note_off_c, 0, 65, 68
1, 56176, Note_on_c, 0, 63, 66
1, 56203, Note_off_c, 0, 63, 66
1, 56311, Note_on_c, 0, 59, 49
1, 56372, Control_c, 0, 67, 127
1, 56529, Note_on_c, 0, 75, 70
1, 56548, Note_off_c, 0, 58, 41
1, 56551, Note_off_c, 0, 75, 70
1, 56560, Note_off_c, 0, 59, 59
1, 56563, Note_off_c, 0, 51, 61
1, 56589, Note_off_c, 0, 55, 36
1, 56795, Note_on_c, 0, 60, 58
1, 56800, Note_on_c, 0, 63, 63
1, 56809, Note_on_c, 0, 55, 49
1, 56810, Note_on_c, 0, 51, 48
1, 57305, Note_on_c, 0, 39, 66
1, 57337, Note_off_c, 0, 39, 60
1, 57520, Note_off_c, 0, 55, 63
1, 57522, Note_off_c, 0, 60, 60
1, 57531, Note_off_c, 0, 51, 64
1, 57550, Note_on_c, 0, 38, 61
1, 57577, Note_off_c, 0, 38, 59
1, 57635, Note_on_c, 0, 36, 69
1, 57663, Note_off_c, 0, 36, 61
1, 57765, Note_on_c, 0, 62, 67
1, 57778, Note_on_c, 0, 58, 63
1, 57781, Note_on_c, 0, 55, 54
1, 57800, Note_off_c, 0, 63, 53
1, 57957, Note_off_c, 0, 55, 60
1, 57993, Note_on_c, 0, 43, 70
1, 58000, Note_off_c, 0, 58, 63
1, 58018, Note_off_c, 0, 43, 66
1, 58269, Note_on_c, 0, 65, 70
1, 58280, Note_on_c, 0, 60, 45
1, 58285, Note_on_c, 0, 58, 43
1, 58293, Note_on_c, 0, 53, 41
1, 58343, Note_off_c, 0, 62, 53
1, 58755, Note_on_c, 0, 70, 69
1, 58780, Note_off_c, 0, 70, 68
1, 58987, Note_on_c, 0, 67, 63
1, 59010, Note_off_c, 0, 58, 62
1, 59014, Note_off_c, 0, 67, 65
1, 59043, Note_off_c, 0, 65, 0
1, 59079, Poly_aftertouch_c, 0, 65, 127
1, 59099, Poly_aftertouch_c, 0, 65, 0
1, 59210, Note_on_c, 0, 56, 53
1, 59351, Control_c, 0, 67, 126
1, 59366, Control_c, 0, 67, 123
1, 59381, Control_c, 0, 67, 115
1, 59395, Control_c, 0, 67, 104
1, 59410, Control_c, 0, 67, 89
1, 59425, Control_c, 0, 67, 71
1, 59429, Note_off_c, 0, 56, 53
1, 59440, Control_c, 0, 67, 58
1, 59443, Note_on_c, 0, 77, 71
1, 59455, Control_c, 0, 67, 49
1, 59466, Note_off_c, 0, 77, 70
1, 59467, Note_off_c, 0, 53, 63
1, 59470, Control_c, 0, 67, 43
1, 59484, Note_off_c, 0, 60, 63
1, 59484, Control_c, 0, 67, 41
1, 59559, Control_c, 0, 67, 42
1, 59597, Control_c, 0, 67, 42
1, 59700, Control_c, 0, 64, 31
1, 59715, Control_c, 0, 64, 57
1, 59720, Note_on_c, 0, 65, 57
1, 59727, Note_on_c, 0, 44, 51
1, 59730, Control_c, 0, 64, 65
1, 59730, Control_c, 0, 67, 42
1, 59744, Control_c, 0, 64, 71
1, 59744, Control_c, 0, 67, 41
1, 59753, Note_on_c, 0, 60, 22
1, 59759, Control_c, 0, 64, 78
1, 59759, Control_c, 0, 67, 40
1, 59774, Control_c, 0, 64, 87
1, 59774, Control_c, 0, 67, 38
1, 59789, Control_c, 0, 64, 99
1, 59789, Control_c, 0, 67, 32
1, 59804, Control_c, 0, 64, 127
1, 59804, Control_c, 0, 67, 25
1, 59819, Control_c, 0, 67, 16
1, 59820, Note_off_c, 0, 65, 62
1, 59833, Control_c, 0, 67, 0
1, 59866, Note_off_c, 0, 44, 35
1, 59961, Note_on_c, 0, 63, 73
1, 59969, Note_on_c, 0, 43, 51
1, 59971, Note_on_c, 0, 58, 62
1, 59973, Note_off_c, 0, 60, 42
1, 59997, Control_c, 0, 64, 120
1, 60012, Control_c, 0, 64, 94
1, 60026, Control_c, 0, 64, 81
1, 60041, Control_c, 0, 64, 76
1, 60044, Note_off_c, 0, 58, 58
1, 60046, Note_off_c, 0, 43, 62
1, 60056, Control_c, 0, 64, 77
1, 60070, Control_c, 0, 64, 84
1, 60085, Control_c, 0, 64, 100
1, 60100, Control_c, 0, 64, 127
1, 60119, Note_off_c, 0, 63, 62
1, 60309, Note_on_c, 0, 68, 72
1, 60334, Note_on_c, 0, 61, 54
1, 60338, Note_on_c, 0, 41, 40
1, 60340, Note_on_c, 0, 56, 50
1, 60345, Note_on_c, 0, 29, 39
1, 60390, Control_c, 0, 64, 103
1, 60405, Control_c, 0, 64, 83
1, 60420, Control_c, 0, 64, 68
1, 60435, Control_c, 0, 64, 45
1, 60449, Control_c, 0, 64, 11
1, 60464, Control_c, 0, 64, 35
1, 60479, Control_c, 0, 64, 56
1, 60493, Control_c, 0, 64, 64
1, 60508, Control_c, 0, 64, 68
1, 60523, Control_c, 0, 64, 73
1, 60538, Control_c, 0, 64, 80
1, 60553, Control_c, 0, 64, 89
1, 60567, Control_c, 0, 64, 103
1, 60582, Control_c, 0, 64, 127
1, 60699, Note_off_c, 0, 56, 61
1, 60719, Note_off_c, 0, 41, 50
1, 60744, Note_off_c, 0, 29, 41
1, 60776, Note_off_c, 0, 68, 59
1, 60878, Note_on_c, 0, 67, 68
1, 60893, Control_c, 0, 64, 104
1, 60899, Note_on_c, 0, 58, 50
1, 60903, Note_on_c, 0, 43, 46
1, 60906, Note_on_c, 0, 31, 43
1, 60908, Control_c, 0, 64, 87
1, 60923, Control_c, 0, 64, 79
1, 60938, Control_c, 0, 64, 77
1, 60953, Control_c, 0, 64, 81
1, 60964, Note_off_c, 0, 43, 61
1, 60967, Control_c, 0, 64, 91
1, 60970, Note_off_c, 0, 31, 57
1, 60982, Control_c, 0, 64, 112
1, 60997, Control_c, 0, 64, 127
1, 61023, Note_off_c, 0, 58, 56
1, 61023, Note_off_c, 0, 67, 60
1, 61130, Note_on_c, 0, 65, 75
1, 61134, Note_on_c, 0, 56, 69
1, 61138, Control_c, 0, 64, 112
1, 61139, Note_on_c, 0, 32, 56
1, 61139, Note_on_c, 0, 44, 59
1, 61154, Control_c, 0, 64, 87
1, 61169, Control_c, 0, 64, 73
1, 61184, Control_c, 0, 64, 66
1, 61198, Control_c, 0, 64, 69
1, 61210, Note_off_c, 0, 44, 63
1, 61210, Note_off_c, 0, 32, 61
1, 61213, Control_c, 0, 64, 78
1, 61228, Control_c, 0, 64, 97
1, 61238, Note_off_c, 0, 56, 61
1, 61242, Control_c, 0, 64, 127
1, 61282, Note_off_c, 0, 65, 61
1, 61308, Note_off_c, 0, 61, 41
1, 61361, Control_c, 0, 64, 99
1, 61364, Note_on_c, 0, 63, 70
1, 61374, Note_on_c, 0, 61, 57
1, 61376, Control_c, 0, 64, 80
1, 61377, Note_on_c, 0, 55, 64
1, 61378, Note_on_c, 0, 46, 56
1, 61379, Note_on_c, 0, 34, 50
1, 61390, Control_c, 0, 64, 69
1, 61405, Control_c, 0, 64, 68
1, 61420, Control_c, 0, 64, 75
1, 61435, Control_c, 0, 64, 87
1, 61449, Control_c, 0, 64, 112
1, 61457, Note_off_c, 0, 34, 60
1, 61458, Note_off_c, 0, 46, 61
1, 61464, Control_c, 0, 64, 127
1, 61469, Note_off_c, 0, 61, 61
1, 61470, Note_off_c, 0, 55, 61
1, 61483, Note_off_c, 0, 63, 60
1, 61613, Control_c, 0, 64, 88
1, 61614, Note_on_c, 0, 61, 71
1, 61617, Note_on_c, 0, 56, 59
1, 61628, Control_c, 0, 64, 67
1, 61628, Note_on_c, 0, 37, 49
1, 61628, Note_on_c, 0, 49, 52
1, 61634, Note_on_c, 0, 53, 37
1, 61642, Control_c, 0, 64, 0
1, 61672, Control_c, 0, 64, 30
1, 61687, Control_c, 0, 64, 64
1, 61702, Control_c, 0, 64, 73
1, 61716, Note_off_c, 0, 49, 58
1, 61716, Control_c, 0, 64, 83
1, 61720, Note_off_c, 0, 37, 56
1, 61727, Note_off_c, 0, 56, 64
1, 61731, Control_c, 0, 64, 98
1, 61735, Note_off_c, 0, 53, 39
1, 61746, Control_c, 0, 64, 121
1, 61761, Control_c, 0, 64, 127
1, 61919, Note_on_c, 0, 58, 57
1, 61926, Note_on_c, 0, 39, 33
1, 61929, Note_on_c, 0, 55, 39
1, 61931, Control_c, 0, 64, 106
1, 61943, Note_on_c, 0, 51, 36
1, 61947, Control_c, 0, 64, 86
1, 61962, Control_c, 0, 64, 70
1, 61977, Control_c, 0, 64, 37
1, 61991, Control_c, 0, 64, 0
1, 62016, Note_off_c, 0, 61, 52
1, 62154, Control_c, 0, 67, 8
1, 62169, Control_c, 0, 67, 9
1, 62184, Control_c, 0, 67, 9
1, 62199, Control_c, 0, 67, 10
1, 62213, Control_c, 0, 64, 46
1, 62213, Control_c, 0, 67, 11
1, 62228, Control_c, 0, 64, 63
1, 62228, Control_c, 0, 67, 13
1, 62243, Control_c, 0, 64, 68
1, 62243, Control_c, 0, 67, 17
1, 62258, Control_c, 0, 64, 73
1, 62258, Control_c, 0, 67, 23
1, 62272, Control_c, 0, 64, 80
1, 62272, Control_c, 0, 67, 32
1, 62287, Control_c, 0, 64, 85
1, 62287, Control_c, 0, 67, 41
1, 62302, Control_c, 0, 64, 90
1, 62302, Control_c, 0, 67, 50
1, 62317, Control_c, 0, 64, 94
1, 62317, Control_c, 0, 67, 57
1, 62332, Control_c, 0, 64, 97
1, 62332, Control_c, 0, 67, 65
1, 62346, Control_c, 0, 64, 99
1, 62346, Control_c, 0, 67, 71
1, 62361, Control_c, 0, 64, 101
1, 62361, Control_c, 0, 67, 77
1, 62376, Control_c, 0, 64, 101
1, 62376, Control_c, 0, 67, 82
1, 62391, Control_c, 0, 67, 88
1, 62406, Control_c, 0, 67, 93
1, 62421, Control_c, 0, 67, 99
1, 62436, Control_c, 0, 67, 104
1, 62450, Control_c, 0, 64, 100
1, 62450, Control_c, 0, 67, 111
1, 62465, Control_c, 0, 64, 95
1, 62465, Control_c, 0, 67, 118
1, 62480, Control_c, 0, 64, 84
1, 62480, Control_c, 0, 67, 125
1, 62495, Control_c, 0, 64, 71
1, 62495, Control_c, 0, 67, 127
1, 62499, Note_on_c, 0, 63, 47
1, 62510, Control_c, 0, 64, 0
1, 62525, Note_off_c, 0, 58, 54
1, 62665, Control_c, 0, 64, 46
1, 62680, Control_c, 0, 64, 64
1, 62695, Note_off_c, 0, 55, 58
1, 62695, Control_c, 0, 64, 73
1, 62707, Note_off_c, 0, 39, 55
1, 62710, Control_c, 0, 64, 82
1, 62725, Control_c, 0, 64, 96
1, 62740, Control_c, 0, 64, 127
1, 62753, Note_off_c, 0, 63, 60
1, 62763, Note_off_c, 0, 51, 52
1, 63041, Note_on_c, 0, 89, 63
1, 63069, Note_on_c, 0, 84, 34
1, 63077, Note_on_c, 0, 80, 12
1, 63126, Note_off_c, 0, 89, 61
1, 63142, Note_off_c, 0, 80, 43
1, 63268, Note_off_c, 0, 84, 58
1, 63270, Note_on_c, 0, 87, 81
1, 63282, Note_on_c, 0, 82, 59
1, 63288, Control_c, 0, 67, 125
1, 63298, Note_on_c, 0, 79, 37
1, 63303, Control_c, 0, 67, 122
1, 63316, Note_off_c, 0, 82, 61
1, 63325, Control_c, 0, 67, 118
1, 63336, Note_off_c, 0, 79, 53
1, 63340, Control_c, 0, 67, 113
1, 63355, Control_c, 0, 67, 107
1, 63367, Note_off_c, 0, 87, 65
1, 63369, Control_c, 0, 67, 101
1, 63384, Control_c, 0, 67, 93
1, 63399, Control_c, 0, 67, 86
1, 63413, Control_c, 0, 67, 78
1, 63428, Control_c, 0, 67, 68
1, 63443, Control_c, 0, 67, 61
1, 63458, Control_c, 0, 67, 56
1, 63473, Control_c, 0, 67, 52
1, 63488, Control_c, 0, 67, 48
1, 63503, Control_c, 0, 67, 45
1, 63515, Note_on_c, 0, 92, 80
1, 63518, Control_c, 0, 67, 43
1, 63527, Note_on_c, 0, 80, 53
1, 63529, Note_on_c, 0, 85, 56
1, 63533, Control_c, 0, 67, 41
1, 63541, Note_on_c, 0, 77, 46
1, 63548, Control_c, 0, 67, 39
1, 63563, Control_c, 0, 67, 37
1, 63578, Control_c, 0, 67, 34
1, 63592, Control_c, 0, 67, 32
1, 63607, Control_c, 0, 67, 30
1, 63622, Control_c, 0, 67, 27
1, 63637, Control_c, 0, 67, 24
1, 63652, Control_c, 0, 67, 20
1, 63667, Control_c, 0, 67, 15
1, 63682, Control_c, 0, 67, 9
1, 63697, Control_c, 0, 67, 0
1, 63753, Note_on_c, 0, 65, 58
1, 63816, Note_off_c, 0, 80, 61
1, 63887, Note_off_c, 0, 77, 57
1, 63893, Note_off_c, 0, 92, 66
1, 63971, Note_off_c, 0, 65, 55
1, 63986, Note_on_c, 0, 91, 81
1, 64005, Note_on_c, 0, 82, 61
1, 64007, Note_on_c, 0, 67, 52
1, 64120, Note_off_c, 0, 82, 59
1, 64131, Note_off_c, 0, 91, 63
1, 64214, Note_off_c, 0, 67, 57
1, 64231, Note_on_c, 0, 89, 75
1, 64237, Note_on_c, 0, 68, 57
1, 64239, Note_on_c, 0, 80, 63
1, 64292, Note_off_c, 0, 68, 60
1, 64341, Note_off_c, 0, 80, 58
1, 64364, Note_off_c, 0, 89, 59
1, 64409, Note_off_c, 0, 85, 43
1, 64517, Note_on_c, 0, 87, 66
1, 64521, Note_on_c, 0, 70, 43
1, 64522, Note_on_c, 0, 85, 55
1, 64531, Note_on_c, 0, 63, 36
1, 64533, Control_c, 0, 64, 100
1, 64538, Note_on_c, 0, 79, 48
1, 64548, Control_c, 0, 64, 78
1, 64563, Control_c, 0, 64, 65
1, 64578, Control_c, 0, 64, 62
1, 64593, Control_c, 0, 64, 65
1, 64607, Control_c, 0, 64, 70
1, 64622, Control_c, 0, 64, 78
1, 64637, Control_c, 0, 64, 91
1, 64652, Control_c, 0, 64, 124
1, 64666, Control_c, 0, 64, 127
1, 64670, Note_off_c, 0, 87, 63
1, 64671, Note_off_c, 0, 85, 62
1, 64674, Note_off_c, 0, 79, 58
1, 64866, Control_c, 0, 64, 120
1, 64874, Note_on_c, 0, 85, 60
1, 64881, Control_c, 0, 64, 87
1, 64883, Note_on_c, 0, 80, 46
1, 64889, Note_on_c, 0, 73, 40
1, 64896, Control_c, 0, 64, 68
1, 64904, Note_on_c, 0, 77, 39
1, 64911, Control_c, 0, 64, 0
1, 64934, Note_off_c, 0, 80, 0
1, 64934, Note_on_c, 0, 80, 13
1, 64984, Control_c, 0, 64, 26
1, 64984, Control_c, 0, 67, 8
1, 64999, Control_c, 0, 64, 63
1, 65014, Control_c, 0, 64, 71
1, 65026, Note_off_c, 0, 70, 58
1, 65029, Control_c, 0, 64, 81
1, 65035, Note_off_c, 0, 80, 57
1, 65044, Control_c, 0, 64, 93
1, 65044, Control_c, 0, 67, 8
1, 65053, Note_off_c, 0, 77, 61
1, 65059, Control_c, 0, 64, 113
1, 65060, Note_off_c, 0, 73, 53
1, 65074, Control_c, 0, 64, 127
1, 65074, Control_c, 0, 67, 9
1, 65089, Control_c, 0, 67, 10
1, 65103, Control_c, 0, 67, 11
1, 65118, Control_c, 0, 67, 12
1, 65134, Control_c, 0, 67, 14
1, 65148, Control_c, 0, 67, 16
1, 65163, Control_c, 0, 67, 19
1, 65178, Control_c, 0, 67, 22
1, 65193, Control_c, 0, 67, 25
1, 65208, Control_c, 0, 67, 27
1, 65223, Control_c, 0, 67, 29
1, 65237, Control_c, 0, 67, 31
1, 65252, Control_c, 0, 67, 33
1, 65267, Control_c, 0, 67, 35
1, 65281, Control_c, 0, 67, 37
1, 65296, Control_c, 0, 67, 39
1, 65311, Control_c, 0, 67, 41
1, 65315, Note_on_c, 0, 82, 55
1, 65326, Control_c, 0, 67, 44
1, 65336, Note_on_c, 0, 79, 43
1, 65341, Control_c, 0, 64, 104
1, 65341, Control_c, 0, 67, 45
1, 65345, Note_on_c, 0, 75, 38
1, 65356, Control_c, 0, 64, 86
1, 65356, Control_c, 0, 67, 47
1, 65370, Control_c, 0, 64, 71
1, 65370, Control_c, 0, 67, 49
1, 65385, Control_c, 0, 64, 51
1, 65385, Control_c, 0, 67, 50
1, 65400, Control_c, 0, 64, 0
1, 65400, Control_c, 0, 67, 52
1, 65414, Control_c, 0, 67, 54
1, 65429, Control_c, 0, 67, 56
1, 65444, Control_c, 0, 67, 58
1, 65459, Control_c, 0, 67, 61
1, 65468, Note_off_c, 0, 85, 52
1, 65474, Control_c, 0, 67, 62
1, 65488, Control_c, 0, 67, 64
1, 65503, Control_c, 0, 67, 66
1, 65518, Control_c, 0, 67, 69
1, 65533, Control_c, 0, 67, 71
1, 65548, Control_c, 0, 67, 73
1, 65570, Control_c, 0, 67, 75
1, 65585, Control_c, 0, 67, 78
1, 65600, Control_c, 0, 64, 51
1, 65600, Control_c, 0, 67, 81
1, 65614, Control_c, 0, 64, 64
1, 65614, Control_c, 0, 67, 84
1, 65629, Control_c, 0, 64, 69
1, 65629, Control_c, 0, 67, 86
1, 65644, Control_c, 0, 64, 73
1, 65644, Control_c, 0, 67, 89
1, 65659, Control_c, 0, 64, 79
1, 65659, Control_c, 0, 67, 92
1, 65674, Control_c, 0, 64, 85
1, 65674, Control_c, 0, 67, 95
1, 65688, Control_c, 0, 64, 94
1, 65688, Control_c, 0, 67, 98
1, 65703, Control_c, 0, 64, 101
1, 65703, Control_c, 0, 67, 100
1, 65718, Control_c, 0, 64, 110
1, 65718, Control_c, 0, 67, 104
1, 65733, Control_c, 0, 64, 127
1, 65733, Control_c, 0, 67, 107
1, 65748, Control_c, 0, 67, 110
1, 65762, Control_c, 0, 67, 113
1, 65777, Control_c, 0, 67, 116
1, 65792, Control_c, 0, 67, 120
1, 65807, Control_c, 0, 67, 123
1, 65822, Control_c, 0, 67, 127
1, 65837, Control_c, 0, 67, 127
1, 66075, Control_c, 0, 64, 107
1, 66085, Note_on_c, 0, 87, 47
1, 66090, Control_c, 0, 64, 93
1, 66096, Note_on_c, 0, 73, 43
1, 66105, Control_c, 0, 64, 81
1, 66120, Control_c, 0, 64, 69
1, 66135, Control_c, 0, 64, 54
1, 66137, Note_off_c, 0, 87, 0
1, 66137, Note_on_c, 0, 87, 5
1, 66150, Control_c, 0, 64, 0
1, 66196, Note_off_c, 0, 82, 52
1, 66244, Note_off_c, 0, 75, 44
1, 66253, Control_c, 0, 64, 51
1, 66268, Control_c, 0, 64, 64
1, 66283, Control_c, 0, 64, 67
1, 66298, Control_c, 0, 64, 70
1, 66320, Control_c, 0, 64, 74
1, 66335, Control_c, 0, 64, 78
1, 66350, Control_c, 0, 64, 84
1, 66364, Control_c, 0, 64, 91
1, 66379, Control_c, 0, 64, 97
1, 66394, Control_c, 0, 64, 104
1, 66406, Note_off_c, 0, 73, 47
1, 66409, Control_c, 0, 64, 116
1, 66424, Control_c, 0, 64, 127
1, 66540, Note_off_c, 0, 63, 40
1, 66624, Note_off_c, 0, 79, 41
1, 66630, Note_off_c, 0, 87, 44
1, 67483, Control_c, 0, 64, 110
1, 67496, Note_on_c, 0, 72, 56
1, 67498, Control_c, 0, 64, 95
1, 67510, Note_on_c, 0, 44, 33
1, 67513, Control_c, 0, 64, 84
1, 67529, Control_c, 0, 64, 74
1, 67532, Note_on_c, 0, 68, 29
1, 67544, Control_c, 0, 64, 65
1, 67558, Control_c, 0, 64, 49
1, 67573, Control_c, 0, 64, 39
1, 67602, Control_c, 0, 64, 43
1, 67617, Control_c, 0, 64, 53
1, 67632, Control_c, 0, 64, 62
1, 67647, Control_c, 0, 64, 66
1, 67662, Control_c, 0, 64, 69
1, 67676, Control_c, 0, 64, 73
1, 67691, Control_c, 0, 64, 76
1, 67706, Control_c, 0, 64, 80
1, 67721, Control_c, 0, 64, 84
1, 67736, Control_c, 0, 64, 88
1, 67751, Control_c, 0, 64, 92
1, 67765, Control_c, 0, 64, 96
1, 67780, Control_c, 0, 64, 101
1, 67795, Control_c, 0, 64, 106
1, 67810, Note_off_c, 0, 44, 44
1, 67817, Control_c, 0, 64, 112
1, 67832, Control_c, 0, 64, 123
1, 67847, Control_c, 0, 64, 127
1, 67883, Note_on_c, 0, 51, 27
1, 68064, Note_off_c, 0, 51, 23
1, 68084, Note_on_c, 0, 63, 29
1, 68209, Note_off_c, 0, 63, 30
1, 68242, Note_on_c, 0, 51, 34
1, 68399, Note_on_c, 0, 63, 42
1, 68413, Note_off_c, 0, 51, 45
1, 68450, Note_off_c, 0, 68, 40
1, 68491, Note_off_c, 0, 63, 55
1, 68568, Note_on_c, 0, 51, 36
1, 68769, Note_on_c, 0, 70, 62
1, 68770, Note_on_c, 0, 44, 48
1, 68771, Note_on_c, 0, 68, 51
1, 68774, Control_c, 0, 64, 100
1, 68788, Control_c, 0, 64, 83
1, 68803, Control_c, 0, 64, 71
1, 68813, Note_off_c, 0, 51, 46
1, 68818, Control_c, 0, 64, 61
1, 68833, Control_c, 0, 64, 54
1, 68848, Control_c, 0, 64, 57
1, 68862, Control_c, 0, 64, 62
1, 68877, Control_c, 0, 64, 65
1, 68893, Control_c, 0, 64, 68
1, 68907, Control_c, 0, 64, 71
1, 68922, Control_c, 0, 64, 75
1, 68931, Note_off_c, 0, 44, 52
1, 68937, Control_c, 0, 64, 79
1, 68952, Control_c, 0, 64, 84
1, 68959, Note_on_c, 0, 51, 30
1, 68967, Control_c, 0, 64, 89
1, 68982, Control_c, 0, 64, 94
1, 68997, Control_c, 0, 64, 99
1, 69011, Control_c, 0, 64, 107
1, 69026, Control_c, 0, 64, 117
1, 69041, Control_c, 0, 64, 127
1, 69055, Note_off_c, 0, 72, 54
1, 69146, Note_on_c, 0, 62, 39
1, 69148, Note_off_c, 0, 51, 45
1, 69175, Control_c, 0, 67, 127
1, 69190, Control_c, 0, 67, 124
1, 69205, Control_c, 0, 67, 122
1, 69220, Control_c, 0, 67, 120
1, 69223, Note_off_c, 0, 62, 48
1, 69235, Control_c, 0, 67, 119
1, 69249, Control_c, 0, 67, 118
1, 69264, Control_c, 0, 67, 117
1, 69279, Control_c, 0, 67, 116
1, 69294, Control_c, 0, 67, 115
1, 69316, Control_c, 0, 67, 115
1, 69330, Note_on_c, 0, 51, 35
1, 69405, Control_c, 0, 67, 115
1, 69435, Control_c, 0, 67, 116
1, 69450, Control_c, 0, 67, 116
1, 69494, Control_c, 0, 64, 94
1, 69494, Control_c, 0, 67, 117
1, 69497, Note_on_c, 0, 67, 53
1, 69509, Control_c, 0, 64, 77
1, 69513, Note_on_c, 0, 61, 38
1, 69524, Control_c, 0, 64, 64
1, 69536, Note_off_c, 0, 51, 45
1, 69538, Control_c, 0, 64, 31
1, 69553, Control_c, 0, 64, 29
1, 69568, Control_c, 0, 64, 47
1, 69582, Control_c, 0, 64, 61
1, 69597, Control_c, 0, 64, 67
1, 69612, Control_c, 0, 64, 72
1, 69627, Control_c, 0, 64, 79
1, 69641, Control_c, 0, 64, 86
1, 69652, Note_off_c, 0, 67, 61
1, 69655, Control_c, 0, 64, 94
1, 69670, Control_c, 0, 64, 101
1, 69677, Note_off_c, 0, 68, 57
1, 69679, Note_on_c, 0, 51, 37
1, 69685, Control_c, 0, 64, 113
1, 69687, Note_off_c, 0, 61, 41
1, 69695, Note_off_c, 0, 70, 62
1, 69700, Control_c, 0, 64, 127
1, 69863, Control_c, 0, 67, 117
1, 69924, Control_c, 0, 67, 118
1, 69956, Note_on_c, 0, 44, 39
1, 69961, Note_on_c, 0, 75, 66
1, 69965, Note_on_c, 0, 70, 49
1, 69968, Control_c, 0, 67, 118
1, 69983, Control_c, 0, 64, 98
1, 69984, Note_on_c, 0, 63, 45
1, 69997, Control_c, 0, 64, 81
1, 70012, Control_c, 0, 64, 67
1, 70013, Note_off_c, 0, 51, 43
1, 70027, Control_c, 0, 64, 48
1, 70042, Control_c, 0, 64, 32
1, 70064, Control_c, 0, 64, 38
1, 70079, Control_c, 0, 64, 52
1, 70094, Control_c, 0, 64, 62
1, 70108, Control_c, 0, 64, 66
1, 70123, Control_c, 0, 64, 70
1, 70138, Control_c, 0, 64, 75
1, 70153, Control_c, 0, 64, 80
1, 70168, Control_c, 0, 64, 85
1, 70178, Note_on_c, 0, 51, 30
1, 70183, Control_c, 0, 64, 91
1, 70183, Control_c, 0, 67, 118
1, 70185, Note_off_c, 0, 44, 42
1, 70198, Control_c, 0, 64, 97
1, 70212, Control_c, 0, 64, 103
1, 70227, Control_c, 0, 64, 112
1, 70242, Control_c, 0, 64, 127
1, 70257, Control_c, 0, 67, 117
1, 70316, Control_c, 0, 67, 117
1, 70360, Control_c, 0, 67, 116
1, 70364, Note_on_c, 0, 60, 41
1, 70401, Note_off_c, 0, 51, 45
1, 70404, Control_c, 0, 67, 116
1, 70434, Control_c, 0, 67, 115
1, 70517, Note_off_c, 0, 60, 36
1, 70545, Note_on_c, 0, 51, 34
1, 70582, Control_c, 0, 67, 116
1, 70627, Control_c, 0, 67, 116
1, 70671, Control_c, 0, 67, 117
1, 70686, Control_c, 0, 67, 117
1, 70701, Control_c, 0, 67, 118
1, 70716, Control_c, 0, 67, 119
1, 70731, Control_c, 0, 67, 119
1, 70741, Note_on_c, 0, 68, 51
1, 70746, Control_c, 0, 64, 108
1, 70746, Control_c, 0, 67, 120
1, 70752, Note_on_c, 0, 60, 35
1, 70761, Control_c, 0, 64, 81
1, 70761, Control_c, 0, 67, 121
1, 70776, Control_c, 0, 64, 57
1, 70791, Control_c, 0, 64, 0
1, 70794, Note_off_c, 0, 51, 43
1, 70887, Control_c, 0, 64, 60
1, 70901, Control_c, 0, 64, 69
1, 70901, Control_c, 0, 67, 120
1, 70916, Note_off_c, 0, 60, 52
1, 70916, Control_c, 0, 64, 80
1, 70916, Control_c, 0, 67, 119
1, 70931, Note_on_c, 0, 51, 41
1, 70931, Control_c, 0, 64, 94
1, 70946, Control_c, 0, 64, 119
1, 70946, Control_c, 0, 67, 119
1, 70961, Control_c, 0, 64, 127
1, 70976, Note_off_c, 0, 70, 33
1, 70976, Control_c, 0, 67, 118
1, 71050, Control_c, 0, 67, 118
1, 71140, Note_on_c, 0, 44, 40
1, 71169, Note_off_c, 0, 51, 46
1, 71219, Note_off_c, 0, 75, 61
1, 71302, Note_off_c, 0, 44, 41
1, 71324, Note_on_c, 0, 51, 33
1, 71480, Control_c, 0, 67, 117
1, 71554, Note_on_c, 0, 75, 54
1, 71557, Note_on_c, 0, 59, 31
1, 71598, Note_off_c, 0, 51, 45
1, 71731, Note_off_c, 0, 59, 42
1, 71752, Note_on_c, 0, 51, 34
1, 71799, Control_c, 0, 67, 118
1, 71888, Control_c, 0, 67, 118
1, 71948, Control_c, 0, 67, 119
1, 71977, Control_c, 0, 64, 109
1, 71982, Note_on_c, 0, 76, 53
1, 71982, Note_off_c, 0, 51, 43
1, 71983, Note_on_c, 0, 59, 28
1, 71992, Control_c, 0, 64, 89
1, 71992, Control_c, 0, 67, 119
1, 72007, Control_c, 0, 64, 73
1, 72010, Note_off_c, 0, 75, 57
1, 72022, Control_c, 0, 64, 42
1, 72037, Control_c, 0, 64, 0
1, 72051, Control_c, 0, 67, 120
1, 72125, Control_c, 0, 64, 49
1, 72140, Control_c, 0, 64, 65
1, 72140, Control_c, 0, 67, 119
1, 72155, Control_c, 0, 64, 73
1, 72169, Control_c, 0, 64, 80
1, 72169, Control_c, 0, 67, 119
1, 72180, Note_on_c, 0, 51, 36
1, 72184, Control_c, 0, 64, 89
1, 72199, Control_c, 0, 64, 98
1, 72214, Control_c, 0, 64, 107
1, 72214, Control_c, 0, 67, 118
1, 72229, Control_c, 0, 64, 118
1, 72237, Note_off_c, 0, 59, 42
1, 72243, Control_c, 0, 64, 127
1, 72258, Note_off_c, 0, 51, 57
1, 72258, Control_c, 0, 67, 118
1, 72337, Note_off_c, 0, 63, 50
1, 72338, Note_off_c, 0, 76, 60
1, 72382, Note_off_c, 0, 68, 60
1, 72543, Note_on_c, 0, 42, 37
1, 72593, Control_c, 0, 67, 118
1, 72681, Control_c, 0, 67, 119
1, 72689, Note_on_c, 0, 63, 56
1, 72711, Control_c, 0, 64, 102
1, 72726, Control_c, 0, 64, 84
1, 72741, Control_c, 0, 64, 70
1, 72755, Control_c, 0, 64, 52
1, 72770, Control_c, 0, 64, 0
1, 72830, Control_c, 0, 64, 50
1, 72845, Control_c, 0, 64, 64
1, 72860, Control_c, 0, 64, 68
1, 72874, Control_c, 0, 64, 72
1, 72880, Note_on_c, 0, 71, 39
1, 72889, Control_c, 0, 64, 76
1, 72904, Control_c, 0, 64, 81
1, 72919, Control_c, 0, 64, 88
1, 72934, Control_c, 0, 64, 94
1, 72934, Control_c, 0, 67, 118
1, 72948, Control_c, 0, 64, 101
1, 72963, Control_c, 0, 64, 110
1, 72978, Control_c, 0, 64, 127
1, 73039, Note_on_c, 0, 78, 52
1, 73195, Note_off_c, 0, 42, 43
1, 73247, Note_on_c, 0, 51, 31
1, 73424, Note_off_c, 0, 78, 31
1, 73428, Note_off_c, 0, 51, 44
1, 73449, Note_on_c, 0, 59, 32
1, 73519, Control_c, 0, 67, 118
1, 73563, Control_c, 0, 67, 117
1, 73573, Note_off_c, 0, 59, 35
1, 73578, Control_c, 0, 67, 117
1, 73593, Control_c, 0, 67, 116
1, 73611, Note_off_c, 0, 63, 38
1, 73622, Control_c, 0, 67, 115
1, 73631, Note_on_c, 0, 51, 30
1, 73652, Control_c, 0, 67, 115
1, 73667, Control_c, 0, 67, 114
1, 73682, Control_c, 0, 67, 114
1, 73690, Note_off_c, 0, 71, 35
1, 73711, Control_c, 0, 67, 113
1, 73726, Control_c, 0, 67, 113
1, 73741, Control_c, 0, 67, 112
1, 73755, Control_c, 0, 67, 109
1, 73770, Control_c, 0, 67, 104
1, 73785, Control_c, 0, 67, 99
1, 73787, Note_on_c, 0, 59, 44
1, 73808, Control_c, 0, 67, 94
1, 73814, Note_off_c, 0, 51, 47
1, 73822, Control_c, 0, 67, 90
1, 73837, Control_c, 0, 67, 86
1, 73852, Control_c, 0, 67, 82
1, 73867, Control_c, 0, 67, 78
1, 73882, Control_c, 0, 67, 74
1, 73897, Control_c, 0, 67, 70
1, 73911, Control_c, 0, 67, 67
1, 73927, Control_c, 0, 67, 64
1, 73928, Note_off_c, 0, 59, 46
1, 73942, Control_c, 0, 67, 62
1, 73957, Control_c, 0, 67, 61
1, 73962, Note_on_c, 0, 51, 45
1, 73972, Control_c, 0, 67, 60
1, 73987, Control_c, 0, 67, 59
1, 73999, Note_off_c, 0, 51, 63
1, 74001, Control_c, 0, 67, 58
1, 74031, Control_c, 0, 67, 58
1, 74167, Note_on_c, 0, 42, 47
1, 74193, Control_c, 0, 67, 58
1, 74208, Control_c, 0, 67, 59
1, 74238, Control_c, 0, 67, 59
1, 74252, Control_c, 0, 64, 100
1, 74267, Control_c, 0, 64, 83
1, 74272, Note_on_c, 0, 61, 64
1, 74282, Control_c, 0, 64, 71
1, 74297, Control_c, 0, 64, 63
1, 74312, Control_c, 0, 64, 62
1, 74326, Control_c, 0, 64, 64
1, 74341, Control_c, 0, 64, 68
1, 74356, Control_c, 0, 64, 72
1, 74371, Control_c, 0, 64, 77
1, 74386, Control_c, 0, 64, 83
1, 74401, Control_c, 0, 64, 88
1, 74416, Control_c, 0, 64, 93
1, 74431, Control_c, 0, 64, 100
1, 74437, Note_off_c, 0, 61, 60
1, 74440, Note_on_c, 0, 71, 47
1, 74445, Control_c, 0, 64, 106
1, 74460, Control_c, 0, 64, 115
1, 74475, Control_c, 0, 64, 127
1, 74591, Note_on_c, 0, 78, 62
1, 74601, Control_c, 0, 67, 59
1, 74675, Control_c, 0, 67, 58
1, 74735, Note_on_c, 0, 49, 51
1, 74765, Control_c, 0, 67, 58
1, 74869, Control_c, 0, 67, 57
1, 74897, Note_off_c, 0, 49, 62
1, 74924, Note_on_c, 0, 54, 52
1, 74987, Control_c, 0, 67, 57
1, 75005, Note_off_c, 0, 42, 41
1, 75046, Control_c, 0, 67, 56
1, 75075, Control_c, 0, 67, 56
1, 75096, Note_off_c, 0, 54, 39
1, 75104, Note_on_c, 0, 42, 52
1, 75105, Control_c, 0, 67, 52
1, 75119, Control_c, 0, 67, 49
1, 75134, Control_c, 0, 67, 45
1, 75149, Control_c, 0, 67, 42
1, 75164, Control_c, 0, 67, 40
1, 75179, Control_c, 0, 67, 37
1, 75194, Control_c, 0, 67, 34
1, 75209, Control_c, 0, 67, 32
1, 75224, Control_c, 0, 67, 30
1, 75239, Control_c, 0, 67, 28
1, 75253, Control_c, 0, 67, 25
1, 75268, Control_c, 0, 67, 23
1, 75269, Note_on_c, 0, 70, 66
1, 75283, Control_c, 0, 67, 20
1, 75295, Note_on_c, 0, 52, 49
1, 75305, Control_c, 0, 67, 17
1, 75308, Note_off_c, 0, 42, 59
1, 75319, Control_c, 0, 67, 15
1, 75334, Control_c, 0, 67, 12
1, 75349, Control_c, 0, 67, 9
1, 75350, Note_off_c, 0, 71, 55
1, 75364, Control_c, 0, 67, 0
1, 75411, Note_off_c, 0, 52, 62
1, 75446, Note_off_c, 0, 78, 52
1, 75455, Note_on_c, 0, 42, 46
1, 75553, Note_off_c, 0, 70, 35
1, 75621, Note_on_c, 0, 51, 58
1, 75632, Poly_aftertouch_c, 0, 78, 127
1, 75695, Poly_aftertouch_c, 0, 78, 0
1, 75717, Note_on_c, 0, 66, 70
1, 75736, Control_c, 0, 64, 120
1, 75751, Control_c, 0, 64, 96
1, 75766, Control_c, 0, 64, 80
1, 75781, Control_c, 0, 64, 67
1, 75796, Control_c, 0, 64, 50
1, 75811, Control_c, 0, 64, 37
1, 75821, Note_off_c, 0, 42, 59
1, 75825, Control_c, 0, 64, 38
1, 75840, Control_c, 0, 64, 45
1, 75855, Control_c, 0, 64, 58
1, 75858, Note_on_c, 0, 73, 64
1, 75870, Control_c, 0, 64, 65
1, 75885, Control_c, 0, 64, 69
1, 75899, Control_c, 0, 64, 74
1, 75914, Control_c, 0, 64, 79
1, 75929, Control_c, 0, 64, 86
1, 75943, Control_c, 0, 64, 92
1, 75958, Note_on_c, 0, 78, 63
1, 75958, Control_c, 0, 64, 100
1, 75973, Control_c, 0, 64, 108
1, 75988, Control_c, 0, 64, 127
1, 76094, Note_on_c, 0, 42, 47
1, 76113, Note_off_c, 0, 51, 56
1, 76260, Note_on_c, 0, 51, 51
1, 76318, Note_off_c, 0, 42, 60
1, 76440, Note_on_c, 0, 42, 57
1, 76441, Note_off_c, 0, 51, 57
1, 76619, Note_on_c, 0, 51, 53
1, 76622, Note_on_c, 0, 71, 67
1, 76654, Note_off_c, 0, 42, 59
1, 76777, Note_on_c, 0, 42, 59
1, 76781, Note_off_c, 0, 73, 61
1, 76796, Note_off_c, 0, 71, 63
1, 76798, Note_off_c, 0, 51, 59
1, 77000, Note_on_c, 0, 72, 66
1, 77009, Note_on_c, 0, 50, 52
1, 77026, Control_c, 0, 64, 96
1, 77040, Control_c, 0, 64, 79
1, 77053, Note_off_c, 0, 42, 61
1, 77055, Control_c, 0, 64, 67
1, 77070, Control_c, 0, 64, 59
1, 77085, Control_c, 0, 64, 60
1, 77099, Control_c, 0, 64, 64
1, 77116, Control_c, 0, 64, 69
1, 77129, Control_c, 0, 64, 75
1, 77143, Note_off_c, 0, 78, 61
1, 77143, Control_c, 0, 64, 83
1, 77158, Control_c, 0, 64, 93
1, 77173, Control_c, 0, 64, 105
1, 77175, Note_off_c, 0, 50, 62
1, 77176, Note_on_c, 0, 42, 60
1, 77188, Control_c, 0, 64, 127
1, 77370, Note_on_c, 0, 78, 71
1, 77382, Note_on_c, 0, 50, 47
1, 77421, Note_off_c, 0, 42, 59
1, 77518, Note_off_c, 0, 50, 62
1, 77546, Note_on_c, 0, 42, 63
1, 77673, Note_off_c, 0, 66, 53
1, 77709, Note_on_c, 0, 50, 51
1, 77716, Note_on_c, 0, 80, 85
1, 77741, Note_off_c, 0, 42, 56
1, 77859, Note_off_c, 0, 72, 55
1, 77876, Note_on_c, 0, 42, 60
1, 77882, Note_off_c, 0, 50, 59
1, 77935, Note_off_c, 0, 78, 57
1, 77969, Note_off_c, 0, 80, 58
1, 78101, Note_on_c, 0, 49, 69
1, 78174, Control_c, 0, 64, 126
1, 78189, Control_c, 0, 64, 93
1, 78199, Note_on_c, 0, 66, 71
1, 78204, Control_c, 0, 64, 78
1, 78218, Control_c, 0, 64, 68
1, 78233, Control_c, 0, 64, 64
1, 78248, Control_c, 0, 64, 66
1, 78263, Control_c, 0, 64, 69
1, 78278, Control_c, 0, 64, 74
1, 78282, Note_on_c, 0, 73, 68
1, 78300, Control_c, 0, 64, 80
1, 78315, Control_c, 0, 64, 88
1, 78326, Note_off_c, 0, 66, 63
1, 78329, Note_off_c, 0, 42, 58
1, 78330, Control_c, 0, 64, 97
1, 78343, Note_on_c, 0, 78, 69
1, 78344, Control_c, 0, 64, 112
1, 78359, Control_c, 0, 64, 127
1, 78424, Note_on_c, 0, 82, 84
1, 78580, Note_on_c, 0, 42, 53
1, 78616, Note_off_c, 0, 49, 58
1, 78726, Note_off_c, 0, 82, 62
1, 78775, Note_on_c, 0, 49, 65
1, 78786, Note_off_c, 0, 78, 28
1, 78814, Note_off_c, 0, 73, 58
1, 78862, Note_off_c, 0, 42, 40
1, 78958, Note_on_c, 0, 42, 67
1, 79024, Note_off_c, 0, 49, 61
1, 79144, Note_on_c, 0, 49, 80
1, 79203, Note_off_c, 0, 42, 62
1, 79304, Note_on_c, 0, 42, 79
1, 79326, Note_off_c, 0, 49, 64
1, 79366, Note_off_c, 0, 42, 61
1, 79524, Note_on_c, 0, 54, 77
1, 79625, Note_on_c, 0, 84, 82
1, 79628, Note_on_c, 0, 75, 73
1, 79628, Control_c, 0, 64, 112
1, 79630, Note_on_c, 0, 80, 71
1, 79632, Note_on_c, 0, 72, 75
1, 79643, Control_c, 0, 64, 83
1, 79657, Control_c, 0, 64, 63
1, 79672, Control_c, 0, 64, 0
1, 79687, Control_c, 0, 64, 33
1, 79702, Control_c, 0, 64, 58
1, 79717, Control_c, 0, 64, 67
1, 79731, Control_c, 0, 64, 76
1, 79746, Control_c, 0, 64, 89
1, 79761, Control_c, 0, 64, 127
1, 79807, Note_off_c, 0, 54, 64
1, 79919, Note_on_c, 0, 39, 68
1, 79996, Note_off_c, 0, 39, 61
1, 80077, Note_off_c, 0, 72, 55
1, 80119, Note_off_c, 0, 84, 55
1, 80124, Note_on_c, 0, 54, 85
1, 80219, Note_off_c, 0, 80, 58
1, 80241, Note_off_c, 0, 75, 53
1, 80257, Note_off_c, 0, 54, 62
1, 80313, Note_on_c, 0, 39, 79
1, 80387, Note_off_c, 0, 39, 63
1, 80484, Note_on_c, 0, 54, 89
1, 80577, Note_off_c, 0, 54, 62
1, 80679, Note_on_c, 0, 39, 79
1, 80729, Note_off_c, 0, 39, 61
1, 80852, Note_on_c, 0, 53, 86
1, 80917, Control_c, 0, 64, 108
1, 80931, Control_c, 0, 64, 80
1, 80933, Note_on_c, 0, 85, 95
1, 80934, Note_on_c, 0, 73, 89
1, 80936, Note_on_c, 0, 80, 78
1, 80938, Note_on_c, 0, 77, 76
1, 80946, Control_c, 0, 64, 61
1, 80961, Control_c, 0, 64, 0
1, 80976, Control_c, 0, 64, 42
1, 80991, Control_c, 0, 64, 65
1, 81005, Control_c, 0, 64, 77
1, 81020, Control_c, 0, 64, 98
1, 81035, Control_c, 0, 64, 127
1, 81042, Note_off_c, 0, 53, 64
1, 81212, Note_on_c, 0, 37, 85
1, 81262, Note_off_c, 0, 37, 62
1, 81420, Note_off_c, 0, 73, 56
1, 81422, Note_on_c, 0, 53, 93
1, 81468, Note_off_c, 0, 53, 65
1, 81486, Note_off_c, 0, 85, 58
1, 81501, Note_off_c, 0, 77, 58
1, 81551, Note_off_c, 0, 80, 58
1, 81600, Note_on_c, 0, 37, 90
1, 81652, Note_off_c, 0, 37, 61
1, 81844, Note_on_c, 0, 80, 78
1, 81847, Note_on_c, 0, 87, 98
1, 81848, Note_on_c, 0, 78, 81
1, 81850, Note_on_c, 0, 75, 92
1, 81856, Note_on_c, 0, 51, 98
1, 81874, Control_c, 0, 64, 94
1, 81888, Control_c, 0, 64, 65
1, 81904, Control_c, 0, 64, 0
1, 81934, Control_c, 0, 64, 64
1, 81949, Control_c, 0, 64, 82
1, 81963, Control_c, 0, 64, 127
1, 82012, Note_off_c, 0, 51, 61
1, 82021, Note_off_c, 0, 75, 60
1, 82077, Note_off_c, 0, 87, 62
1, 82113, Note_off_c, 0, 80, 52
1, 82114, Note_on_c, 0, 36, 90
1, 82116, Note_off_c, 0, 78, 53
1, 82236, Note_off_c, 0, 36, 60
1, 82315, Note_on_c, 0, 51, 95
1, 82423, Note_off_c, 0, 51, 65
1, 82509, Note_on_c, 0, 36, 92
1, 82557, Note_off_c, 0, 36, 63
1, 82741, Control_c, 0, 64, 94
1, 82753, Note_on_c, 0, 80, 95
1, 82753, Note_on_c, 0, 89, 100
1, 82756, Control_c, 0, 64, 61
1, 82757, Note_on_c, 0, 77, 92
1, 82758, Note_on_c, 0, 85, 85
1, 82759, Note_on_c, 0, 49, 101
1, 82771, Control_c, 0, 64, 0
1, 82808, Control_c, 0, 64, 14
1, 82823, Control_c, 0, 64, 68
1, 82838, Control_c, 0, 64, 87
1, 82853, Control_c, 0, 64, 127
1, 82902, Note_off_c, 0, 49, 64
1, 83011, Note_on_c, 0, 35, 90
1, 83034, Note_off_c, 0, 77, 61
1, 83072, Note_off_c, 0, 89, 60
1, 83125, Note_off_c, 0, 35, 60
1, 83145, Note_off_c, 0, 80, 59
1, 83147, Note_on_c, 0, 41, 24
1, 83148, Note_off_c, 0, 85, 62
1, 83227, Note_on_c, 0, 49, 96
1, 83245, Note_off_c, 0, 41, 0
1, 83282, Poly_aftertouch_c, 0, 41, 127
1, 83327, Poly_aftertouch_c, 0, 41, 0
1, 83339, Note_off_c, 0, 49, 62
1, 83408, Note_on_c, 0, 35, 87
1, 83457, Note_off_c, 0, 35, 62
1, 83610, Note_on_c, 0, 34, 82
1, 83658, Note_off_c, 0, 34, 64
1, 83661, Control_c, 0, 64, 94
1, 83675, Note_on_c, 0, 90, 99
1, 83676, Control_c, 0, 64, 49
1, 83677, Note_on_c, 0, 78, 96
1, 83683, Note_on_c, 0, 85, 89
1, 83691, Control_c, 0, 64, 0
1, 83692, Note_on_c, 0, 49, 94
1, 83698, Note_on_c, 0, 41, 4
1, 83713, Note_off_c, 0, 49, 72
1, 83720, Control_c, 0, 64, 68
1, 83735, Control_c, 0, 64, 103
1, 83750, Control_c, 0, 64, 127
1, 83752, Note_off_c, 0, 41, 25
1, 83788, Poly_aftertouch_c, 0, 42, 0
1, 83899, Note_off_c, 0, 85, 61
1, 83984, Note_on_c, 0, 46, 70
1, 84009, Note_off_c, 0, 46, 65
1, 84037, Note_off_c, 0, 78, 22
1, 84070, Note_on_c, 0, 61, 65
1, 84097, Note_off_c, 0, 61, 65
1, 84134, Control_c, 0, 64, 100
1, 84135, Note_on_c, 0, 48, 89
1, 84146, Poly_aftertouch_c, 0, 54, 0
1, 84148, Control_c, 0, 64, 61
1, 84155, Note_on_c, 0, 78, 94
1, 84157, Note_off_c, 0, 48, 68
1, 84158, Note_on_c, 0, 80, 88
1, 84158, Note_on_c, 0, 87, 85
1, 84163, Note_on_c, 0, 53, 59
1, 84163, Control_c, 0, 64, 0
1, 84184, Note_on_c, 0, 63, 87
1, 84188, Note_off_c, 0, 53, 63
1, 84193, Note_on_c, 0, 56, 58
1, 84194, Note_off_c, 0, 56, 127
1, 84194, Control_c, 0, 64, 14
1, 84202, Note_off_c, 0, 63, 71
1, 84208, Control_c, 0, 64, 75
1, 84223, Control_c, 0, 64, 127
1, 84313, Note_off_c, 0, 90, 59
1, 84332, Note_off_c, 0, 87, 62
1, 84370, Note_off_c, 0, 78, 61
1, 84515, Note_on_c, 0, 49, 69
1, 84551, Note_on_c, 0, 56, 77
1, 84554, Note_off_c, 0, 49, 65
1, 84581, Note_off_c, 0, 80, 53
1, 84614, Note_on_c, 0, 80, 75
1, 84617, Control_c, 0, 64, 87
1, 84622, Note_on_c, 0, 89, 98
1, 84625, Note_on_c, 0, 65, 94
1, 84625, Note_on_c, 0, 85, 84
1, 84627, Note_on_c, 0, 77, 90
1, 84632, Control_c, 0, 64, 50
1, 84642, Note_off_c, 0, 56, 64
1, 84647, Control_c, 0, 64, 0
1, 84664, Note_off_c, 0, 65, 65
1, 84676, Control_c, 0, 64, 52
1, 84691, Note_off_c, 0, 77, 63
1, 84691, Control_c, 0, 64, 72
1, 84706, Control_c, 0, 64, 108
1, 84721, Control_c, 0, 64, 127
1, 84732, Note_off_c, 0, 89, 63
1, 84738, Note_off_c, 0, 80, 61
1, 84760, Note_off_c, 0, 85, 63
1, 85004, Note_on_c, 0, 34, 87
1, 85061, Note_off_c, 0, 34, 65
1, 85084, Control_c, 0, 64, 105
1, 85087, Note_on_c, 0, 41, 27
1, 85090, Note_on_c, 0, 82, 100
1, 85092, Note_on_c, 0, 94, 96
1, 85093, Note_on_c, 0, 85, 89
1, 85095, Note_on_c, 0, 90, 89
1, 85099, Control_c, 0, 64, 69
1, 85100, Note_on_c, 0, 49, 93
1, 85114, Note_off_c, 0, 41, 52
1, 85114, Control_c, 0, 64, 24
1, 85123, Note_off_c, 0, 49, 71
1, 85129, Control_c, 0, 64, 67
1, 85131, Note_on_c, 0, 42, 18
1, 85132, Note_off_c, 0, 42, 127
1, 85144, Control_c, 0, 64, 87
1, 85159, Control_c, 0, 64, 127
1, 85161, Note_off_c, 0, 82, 66
1, 85165, Note_off_c, 0, 94, 66
1, 85180, Poly_aftertouch_c, 0, 42, 0
1, 85184, Note_off_c, 0, 85, 63
1, 85187, Note_off_c, 0, 90, 64
1, 85375, Note_on_c, 0, 46, 82
1, 85421, Note_off_c, 0, 46, 64
1, 85428, Note_on_c, 0, 90, 87
1, 85430, Note_on_c, 0, 85, 76
1, 85431, Note_on_c, 0, 78, 83
1, 85454, Note_off_c, 0, 85, 66
1, 85457, Note_off_c, 0, 78, 63
1, 85460, Note_on_c, 0, 61, 64
1, 85480, Note_off_c, 0, 61, 62
1, 85499, Control_c, 0, 64, 84
1, 85508, Note_on_c, 0, 78, 91
1, 85510, Note_on_c, 0, 87, 86
1, 85514, Note_on_c, 0, 80, 85
1, 85514, Control_c, 0, 64, 0
1, 85519, Note_on_c, 0, 50, 68
1, 85520, Note_on_c, 0, 48, 71
1, 85541, Note_off_c, 0, 48, 39
1, 85544, Note_off_c, 0, 50, 67
1, 85554, Note_on_c, 0, 63, 87
1, 85558, Control_c, 0, 64, 67
1, 85573, Control_c, 0, 64, 97
1, 85579, Note_off_c, 0, 63, 66
1, 85588, Control_c, 0, 64, 127
1, 85684, Note_off_c, 0, 87, 57
1, 85693, Note_off_c, 0, 90, 62
1, 85703, Note_off_c, 0, 78, 62
1, 85859, Note_on_c, 0, 49, 76
1, 85895, Note_on_c, 0, 56, 80
1, 85909, Note_off_c, 0, 49, 65
1, 85937, Control_c, 0, 64, 105
1, 85941, Note_off_c, 0, 80, 0
1, 85952, Note_on_c, 0, 80, 70
1, 85952, Control_c, 0, 64, 67
1, 85959, Note_on_c, 0, 85, 88
1, 85960, Note_on_c, 0, 65, 93
1, 85960, Note_on_c, 0, 89, 97
1, 85964, Note_on_c, 0, 77, 98
1, 85967, Control_c, 0, 64, 0
1, 85978, Note_off_c, 0, 56, 65
1, 85985, Note_off_c, 0, 65, 67
1, 86012, Control_c, 0, 64, 69
1, 86019, Note_off_c, 0, 77, 64
1, 86026, Control_c, 0, 64, 98
1, 86041, Control_c, 0, 64, 127
1, 86043, Note_off_c, 0, 89, 65
1, 86063, Note_off_c, 0, 80, 65
1, 86077, Note_off_c, 0, 85, 63
1, 86308, Note_on_c, 0, 34, 93
1, 86369, Note_on_c, 0, 41, 4
1, 86478, Note_off_c, 0, 34, 64
1, 86548, Note_on_c, 0, 97, 105
1, 86548, Note_on_c, 0, 49, 91
1, 86551, Note_on_c, 0, 85, 103
1, 86551, Control_c, 0, 64, 78
1, 86552, Note_on_c, 0, 90, 92
1, 86553, Note_on_c, 0, 94, 85
1, 86554, Note_off_c, 0, 41, 55
1, 86566, Control_c, 0, 64, 0
1, 86569, Note_off_c, 0, 49, 72
1, 86581, Note_on_c, 0, 42, 23
1, 86582, Note_off_c, 0, 42, 127
1, 86584, Poly_aftertouch_c, 0, 35, 0
1, 86596, Control_c, 0, 64, 52
1, 86602, Poly_aftertouch_c, 0, 37, 0
1, 86611, Control_c, 0, 64, 81
1, 86626, Control_c, 0, 64, 127
1, 86704, Note_off_c, 0, 85, 61
1, 86706, Note_off_c, 0, 97, 62
1, 86734, Note_off_c, 0, 90, 63
1, 86736, Note_off_c, 0, 94, 62
1, 86859, Note_on_c, 0, 46, 76
1, 86894, Note_off_c, 0, 46, 64
1, 86921, Note_on_c, 0, 90, 65
1, 86928, Note_on_c, 0, 82, 90
1, 86928, Note_on_c, 0, 94, 83
1, 86937, Note_on_c, 0, 61, 77
1, 86961, Note_off_c, 0, 61, 66
1, 86969, Note_off_c, 0, 94, 65
1, 86971, Note_off_c, 0, 82, 61
1, 86973, Note_off_c, 0, 90, 64
1, 86997, Control_c, 0, 64, 89
1, 87007, Note_on_c, 0, 47, 93
1, 87012, Control_c, 0, 64, 69
1, 87027, Control_c, 0, 64, 66
1, 87028, Note_on_c, 0, 92, 90
1, 87029, Note_on_c, 0, 80, 92
1, 87030, Note_on_c, 0, 89, 81
1, 87042, Control_c, 0, 64, 74
1, 87051, Note_off_c, 0, 47, 68
1, 87056, Control_c, 0, 64, 89
1, 87071, Note_on_c, 0, 53, 8
1, 87071, Control_c, 0, 64, 127
1, 87091, Note_on_c, 0, 60, 80
1, 87132, Note_off_c, 0, 53, 48
1, 87143, Note_off_c, 0, 80, 60
1, 87146, Note_off_c, 0, 60, 61
1, 87149, Note_off_c, 0, 92, 65
1, 87161, Note_off_c, 0, 89, 62
1, 87189, Note_on_c, 0, 48, 81
1, 87204, Control_c, 0, 64, 91
1, 87219, Control_c, 0, 64, 64
1, 87225, Note_off_c, 0, 48, 60
1, 87231, Note_on_c, 0, 90, 102
1, 87233, Note_on_c, 0, 78, 96
1, 87234, Control_c, 0, 64, 0
1, 87247, Note_on_c, 0, 53, 27
1, 87251, Note_on_c, 0, 87, 58
1, 87260, Note_on_c, 0, 88, 62
1, 87264, Note_on_c, 0, 63, 87
1, 87264, Control_c, 0, 64, 66
1, 87282, Note_on_c, 0, 80, 29
1, 87286, Control_c, 0, 64, 84
1, 87298, Note_off_c, 0, 53, 51
1, 87300, Control_c, 0, 64, 127
1, 87301, Note_off_c, 0, 63, 62
1, 87305, Note_off_c, 0, 88, 57
1, 87314, Note_off_c, 0, 80, 35
1, 87328, Note_off_c, 0, 87, 60
1, 87338, Note_off_c, 0, 78, 65
1, 87349, Note_off_c, 0, 90, 64
1, 87385, Note_on_c, 0, 49, 88
1, 87404, Control_c, 0, 64, 116
1, 87416, Note_off_c, 0, 49, 66
1, 87419, Control_c, 0, 64, 78
1, 87427, Note_on_c, 0, 89, 104
1, 87430, Note_on_c, 0, 77, 98
1, 87433, Note_on_c, 0, 85, 84
1, 87434, Control_c, 0, 64, 0
1, 87463, Note_on_c, 0, 64, 68
1, 87463, Control_c, 0, 64, 65
1, 87477, Note_on_c, 0, 65, 48
1, 87478, Control_c, 0, 64, 83
1, 87492, Note_on_c, 0, 86, 43
1, 87493, Note_off_c, 0, 64, 66
1, 87493, Control_c, 0, 64, 127
1, 87503, Note_off_c, 0, 65, 58
1, 87514, Note_off_c, 0, 77, 60
1, 87518, Note_off_c, 0, 86, 59
1, 87518, Note_off_c, 0, 89, 62
1, 87523, Note_off_c, 0, 85, 64
1, 87579, Note_on_c, 0, 51, 82
1, 87597, Control_c, 0, 64, 114
1, 87612, Control_c, 0, 64, 78
1, 87619, Note_off_c, 0, 51, 67
1, 87627, Control_c, 0, 64, 52
1, 87631, Note_on_c, 0, 87, 96
1, 87632, Note_on_c, 0, 75, 96
1, 87634, Note_on_c, 0, 85, 85
1, 87642, Control_c, 0, 64, 50
1, 87657, Note_on_c, 0, 66, 81
1, 87657, Control_c, 0, 64, 73
1, 87672, Note_on_c, 0, 58, 9
1, 87672, Control_c, 0, 64, 97
1, 87687, Control_c, 0, 64, 127
1, 87705, Note_off_c, 0, 66, 62
1, 87714, Note_off_c, 0, 75, 61
1, 87719, Note_off_c, 0, 87, 66
1, 87722, Note_off_c, 0, 58, 51
1, 87732, Note_off_c, 0, 85, 60
1, 87771, Note_on_c, 0, 53, 70
1, 87781, Note_on_c, 0, 52, 54
1, 87791, Control_c, 0, 64, 99
1, 87803, Note_off_c, 0, 53, 67
1, 87805, Control_c, 0, 64, 75
1, 87808, Note_off_c, 0, 52, 59
1, 87820, Control_c, 0, 64, 67
1, 87831, Note_on_c, 0, 73, 99
1, 87831, Note_on_c, 0, 85, 101
1, 87835, Control_c, 0, 64, 76
1, 87845, Note_on_c, 0, 68, 82
1, 87850, Control_c, 0, 64, 93
1, 87865, Control_c, 0, 64, 127
1, 87869, Note_off_c, 0, 73, 63
1, 87887, Note_off_c, 0, 68, 59
1, 87893, Note_off_c, 0, 85, 58
1, 87949, Note_on_c, 0, 55, 80
1, 87976, Note_off_c, 0, 55, 65
1, 88012, Control_c, 0, 64, 95
1, 88035, Control_c, 0, 64, 68
1, 88040, Note_on_c, 0, 87, 99
1, 88041, Note_on_c, 0, 70, 83
1, 88042, Note_on_c, 0, 75, 95
1, 88045, Note_on_c, 0, 82, 82
1, 88049, Control_c, 0, 64, 59
1, 88064, Control_c, 0, 64, 69
1, 88071, Note_off_c, 0, 70, 65
1, 88079, Control_c, 0, 64, 84
1, 88082, Note_off_c, 0, 75, 63
1, 88094, Control_c, 0, 64, 127
1, 88098, Note_off_c, 0, 87, 65
1, 88104, Note_off_c, 0, 82, 63
1, 88168, Note_on_c, 0, 56, 84
1, 88191, Note_on_c, 0, 58, 62
1, 88219, Note_on_c, 0, 63, 65
1, 88236, Note_off_c, 0, 58, 44
1, 88385, Note_on_c, 0, 85, 93
1, 88387, Note_on_c, 0, 75, 82
1, 88387, Note_on_c, 0, 80, 74
1, 88388, Note_on_c, 0, 73, 90
1, 88390, Note_on_c, 0, 68, 83
1, 88406, Control_c, 0, 64, 78
1, 88420, Control_c, 0, 64, 0
1, 88480, Control_c, 0, 64, 49
1, 88495, Control_c, 0, 64, 74
1, 88510, Control_c, 0, 64, 118
1, 88524, Control_c, 0, 64, 127
1, 88551, Note_off_c, 0, 56, 63
1, 88563, Note_off_c, 0, 68, 63
1, 88618, Note_off_c, 0, 63, 57
1, 88666, Note_off_c, 0, 85, 60
1, 88744, Note_off_c, 0, 73, 58
1, 88963, Note_on_c, 0, 84, 87
1, 88972, Note_on_c, 0, 72, 76
1, 89065, Note_off_c, 0, 72, 59
1, 89123, Note_off_c, 0, 84, 57
1, 89139, Note_off_c, 0, 75, 59
1, 89164, Note_off_c, 0, 80, 60
1, 89332, Note_on_c, 0, 41, 66
1, 89350, Note_on_c, 0, 40, 27
1, 89359, Note_off_c, 0, 41, 63
1, 89362, Control_c, 0, 64, 115
1, 89377, Control_c, 0, 64, 84
1, 89385, Note_on_c, 0, 48, 45
1, 89388, Note_off_c, 0, 40, 52
1, 89392, Control_c, 0, 64, 67
1, 89407, Control_c, 0, 64, 66
1, 89407, Note_on_c, 0, 85, 92
1, 89410, Note_on_c, 0, 73, 89
1, 89412, Note_on_c, 0, 80, 78
1, 89413, Note_on_c, 0, 56, 83
1, 89420, Note_off_c, 0, 48, 50
1, 89422, Control_c, 0, 64, 74
1, 89437, Control_c, 0, 64, 90
1, 89451, Control_c, 0, 64, 127
1, 89453, Note_off_c, 0, 73, 63
1, 89478, Note_off_c, 0, 80, 61
1, 89507, Note_off_c, 0, 56, 38
1, 89507, Note_off_c, 0, 85, 65
1, 89650, Note_on_c, 0, 89, 103
1, 89655, Note_on_c, 0, 77, 89
1, 89672, Note_on_c, 0, 43, 79
1, 89710, Control_c, 0, 64, 93
1, 89724, Note_off_c, 0, 43, 64
1, 89725, Control_c, 0, 64, 79
1, 89734, Note_off_c, 0, 77, 61
1, 89740, Control_c, 0, 64, 79
1, 89742, Note_off_c, 0, 89, 65
1, 89755, Control_c, 0, 64, 90
1, 89764, Note_on_c, 0, 58, 85
1, 89770, Control_c, 0, 64, 127
1, 89807, Note_off_c, 0, 58, 64
1, 89848, Note_on_c, 0, 87, 99
1, 89850, Note_on_c, 0, 75, 95
1, 89854, Note_on_c, 0, 82, 87
1, 89901, Note_off_c, 0, 75, 60
1, 89923, Note_off_c, 0, 87, 65
1, 89926, Note_off_c, 0, 82, 63
1, 89952, Note_on_c, 0, 44, 77
1, 90033, Note_on_c, 0, 51, 81
1, 90035, Note_off_c, 0, 44, 63
1, 90121, Note_on_c, 0, 56, 85
1, 90274, Note_on_c, 0, 75, 79
1, 90274, Note_on_c, 0, 85, 91
1, 90277, Note_on_c, 0, 80, 73
1, 90279, Note_on_c, 0, 73, 84
1, 90289, Note_on_c, 0, 63, 78
1, 90325, Control_c, 0, 64, 91
1, 90340, Control_c, 0, 64, 64
1, 90355, Control_c, 0, 64, 0
1, 90429, Control_c, 0, 64, 21
1, 90443, Control_c, 0, 64, 67
1, 90458, Control_c, 0, 64, 80
1, 90473, Control_c, 0, 64, 103
1, 90488, Control_c, 0, 64, 127
1, 90745, Note_off_c, 0, 85, 29
1, 90783, Note_off_c, 0, 73, 59
1, 91088, Control_c, 0, 64, 113
1, 91094, Note_on_c, 0, 84, 73
1, 91103, Control_c, 0, 64, 88
1, 91112, Note_on_c, 0, 72, 52
1, 91118, Control_c, 0, 64, 71
1, 91133, Control_c, 0, 64, 21
1, 91147, Control_c, 0, 64, 0
1, 91147, Control_c, 0, 67, 8
1, 91177, Control_c, 0, 67, 8
1, 91192, Control_c, 0, 67, 9
1, 91207, Control_c, 0, 67, 10
1, 91221, Control_c, 0, 67, 12
1, 91236, Control_c, 0, 67, 14
1, 91251, Control_c, 0, 67, 18
1, 91265, Control_c, 0, 67, 23
1, 91280, Control_c, 0, 64, 51
1, 91280, Control_c, 0, 67, 28
1, 91295, Control_c, 0, 64, 64
1, 91295, Control_c, 0, 67, 34
1, 91310, Control_c, 0, 64, 69
1, 91310, Control_c, 0, 67, 41
1, 91325, Control_c, 0, 64, 73
1, 91325, Control_c, 0, 67, 48
1, 91338, Note_off_c, 0, 51, 60
1, 91340, Control_c, 0, 64, 79
1, 91340, Control_c, 0, 67, 56
1, 91355, Control_c, 0, 64, 85
1, 91355, Control_c, 0, 67, 65
1, 91370, Control_c, 0, 64, 92
1, 91370, Control_c, 0, 67, 72
1, 91385, Control_c, 0, 64, 98
1, 91385, Control_c, 0, 67, 80
1, 91394, Note_off_c, 0, 84, 42
1, 91400, Control_c, 0, 64, 103
1, 91400, Control_c, 0, 67, 88
1, 91414, Control_c, 0, 64, 111
1, 91414, Control_c, 0, 67, 96
1, 91416, Note_off_c, 0, 63, 40
1, 91417, Note_off_c, 0, 56, 40
1, 91429, Control_c, 0, 64, 127
1, 91429, Control_c, 0, 67, 105
1, 91444, Control_c, 0, 67, 113
1, 91448, Note_off_c, 0, 72, 50
1, 91459, Control_c, 0, 67, 120
1, 91473, Control_c, 0, 67, 126
1, 91488, Control_c, 0, 67, 127
1, 91532, Note_off_c, 0, 80, 53
1, 91558, Note_off_c, 0, 75, 41
1, 91756, Control_c, 0, 67, 126
1, 91778, Control_c, 0, 67, 125
1, 91793, Control_c, 0, 67, 125
1, 91808, Control_c, 0, 67, 124
1, 91823, Control_c, 0, 67, 124
1, 91838, Control_c, 0, 67, 123
1, 91852, Control_c, 0, 67, 123
1, 91882, Control_c, 0, 67, 122
1, 91911, Control_c, 0, 67, 122
1, 92045, Control_c, 0, 67, 121
1, 92312, Control_c, 0, 67, 122
1, 92334, Note_on_c, 0, 80, 59
1, 92342, Control_c, 0, 64, 104
1, 92357, Control_c, 0, 64, 89
1, 92358, Note_on_c, 0, 75, 43
1, 92363, Note_on_c, 0, 72, 35
1, 92372, Control_c, 0, 64, 77
1, 92387, Control_c, 0, 64, 65
1, 92401, Control_c, 0, 64, 0
1, 92461, Control_c, 0, 64, 21
1, 92475, Control_c, 0, 64, 58
1, 92490, Control_c, 0, 64, 66
1, 92505, Control_c, 0, 64, 71
1, 92527, Control_c, 0, 64, 76
1, 92537, Note_off_c, 0, 72, 55
1, 92542, Control_c, 0, 64, 81
1, 92557, Control_c, 0, 64, 87
1, 92572, Control_c, 0, 64, 92
1, 92587, Control_c, 0, 64, 98
1, 92601, Control_c, 0, 64, 103
1, 92616, Control_c, 0, 64, 110
1, 92631, Control_c, 0, 64, 127
1, 92713, Note_on_c, 0, 56, 48
1, 92769, Note_off_c, 0, 56, 58
1, 92939, Note_on_c, 0, 72, 46
1, 92976, Note_off_c, 0, 72, 51
1, 93121, Note_on_c, 0, 56, 53
1, 93160, Note_off_c, 0, 56, 63
1, 93292, Note_on_c, 0, 72, 55
1, 93321, Note_off_c, 0, 72, 63
1, 93472, Note_on_c, 0, 56, 45
1, 93506, Note_off_c, 0, 56, 59
1, 93694, Note_on_c, 0, 79, 62
1, 93703, Note_on_c, 0, 74, 42
1, 93705, Control_c, 0, 64, 109
1, 93712, Note_on_c, 0, 71, 42
1, 93720, Control_c, 0, 64, 90
1, 93735, Control_c, 0, 64, 76
1, 93735, Control_c, 0, 67, 122
1, 93750, Control_c, 0, 64, 66
1, 93765, Control_c, 0, 64, 61
1, 93795, Control_c, 0, 64, 64
1, 93809, Control_c, 0, 64, 66
1, 93811, Note_off_c, 0, 75, 45
1, 93819, Note_off_c, 0, 71, 57
1, 93824, Control_c, 0, 64, 70
1, 93839, Control_c, 0, 64, 73
1, 93854, Control_c, 0, 64, 77
1, 93857, Note_off_c, 0, 80, 36
1, 93868, Control_c, 0, 64, 80
1, 93884, Control_c, 0, 64, 84
1, 93899, Control_c, 0, 64, 88
1, 93914, Control_c, 0, 64, 92
1, 93923, Note_on_c, 0, 56, 54
1, 93929, Control_c, 0, 64, 97
1, 93944, Control_c, 0, 64, 102
1, 93958, Control_c, 0, 64, 109
1, 93973, Control_c, 0, 64, 126
1, 93988, Control_c, 0, 64, 127
1, 94006, Note_off_c, 0, 56, 50
1, 94054, Control_c, 0, 67, 122
1, 94084, Control_c, 0, 67, 121
1, 94114, Note_on_c, 0, 71, 40
1, 94114, Control_c, 0, 67, 121
1, 94143, Control_c, 0, 67, 120
1, 94148, Note_off_c, 0, 71, 51
1, 94173, Control_c, 0, 67, 120
1, 94271, Note_on_c, 0, 56, 50
1, 94365, Control_c, 0, 67, 120
1, 94395, Control_c, 0, 67, 121
1, 94410, Control_c, 0, 67, 121
1, 94424, Control_c, 0, 67, 122
1, 94451, Note_on_c, 0, 73, 53
1, 94451, Note_on_c, 0, 78, 65
1, 94454, Control_c, 0, 64, 111
1, 94454, Control_c, 0, 67, 122
1, 94462, Note_on_c, 0, 70, 44
1, 94469, Control_c, 0, 64, 89
1, 94475, Note_off_c, 0, 56, 36
1, 94484, Control_c, 0, 64, 75
1, 94484, Control_c, 0, 67, 123
1, 94498, Control_c, 0, 64, 64
1, 94513, Control_c, 0, 64, 60
1, 94520, Note_off_c, 0, 74, 53
1, 94528, Control_c, 0, 64, 63
1, 94543, Control_c, 0, 64, 66
1, 94558, Control_c, 0, 64, 70
1, 94573, Control_c, 0, 64, 75
1, 94575, Note_off_c, 0, 79, 51
1, 94588, Control_c, 0, 64, 82
1, 94603, Control_c, 0, 64, 90
1, 94617, Control_c, 0, 64, 98
1, 94632, Control_c, 0, 64, 108
1, 94638, Note_off_c, 0, 70, 38
1, 94647, Control_c, 0, 64, 127
1, 94647, Note_off_c, 0, 73, 60
1, 94665, Note_on_c, 0, 56, 46
1, 94680, Note_off_c, 0, 78, 63
1, 94884, Note_on_c, 0, 72, 43
1, 94892, Control_c, 0, 67, 123
1, 94909, Note_on_c, 0, 69, 37
1, 94921, Control_c, 0, 67, 124
1, 94925, Note_off_c, 0, 56, 32
1, 94936, Control_c, 0, 64, 122
1, 94949, Note_on_c, 0, 84, 57
1, 94951, Control_c, 0, 64, 93
1, 94951, Control_c, 0, 67, 124
1, 94966, Control_c, 0, 64, 76
1, 94981, Control_c, 0, 64, 65
1, 94996, Control_c, 0, 64, 59
1, 95011, Control_c, 0, 64, 60
1, 95026, Control_c, 0, 64, 64
1, 95040, Control_c, 0, 64, 67
1, 95040, Control_c, 0, 67, 125
1, 95055, Control_c, 0, 64, 71
1, 95070, Control_c, 0, 64, 75
1, 95085, Control_c, 0, 64, 80
1, 95093, Note_off_c, 0, 69, 52
1, 95094, Note_off_c, 0, 72, 60
1, 95100, Control_c, 0, 64, 85
1, 95114, Control_c, 0, 64, 89
1, 95129, Control_c, 0, 64, 94
1, 95134, Note_on_c, 0, 56, 45
1, 95144, Control_c, 0, 64, 100
1, 95159, Control_c, 0, 64, 108
1, 95174, Control_c, 0, 64, 122
1, 95188, Control_c, 0, 64, 127
1, 95247, Control_c, 0, 67, 124
1, 95275, Note_on_c, 0, 71, 58
1, 95277, Control_c, 0, 67, 124
1, 95279, Note_on_c, 0, 77, 59
1, 95282, Note_off_c, 0, 84, 39
1, 95292, Control_c, 0, 67, 123
1, 95295, Note_on_c, 0, 68, 50
1, 95300, Note_off_c, 0, 56, 53
1, 95307, Control_c, 0, 67, 123
1, 95321, Control_c, 0, 67, 122
1, 95336, Control_c, 0, 67, 122
1, 95351, Control_c, 0, 67, 121
1, 95373, Note_off_c, 0, 71, 64
1, 95381, Control_c, 0, 67, 121
1, 95395, Control_c, 0, 67, 120
1, 95410, Note_off_c, 0, 68, 54
1, 95410, Control_c, 0, 67, 120
1, 95411, Note_off_c, 0, 77, 61
1, 95425, Control_c, 0, 67, 119
1, 95430, Note_on_c, 0, 56, 51
1, 95455, Control_c, 0, 67, 119
1, 95470, Control_c, 0, 67, 118
1, 95485, Control_c, 0, 67, 118
1, 95500, Control_c, 0, 67, 114
1, 95523, Control_c, 0, 67, 108
1, 95535, Note_on_c, 0, 76, 65
1, 95537, Control_c, 0, 67, 102
1, 95541, Note_on_c, 0, 70, 56
1, 95552, Control_c, 0, 67, 96
1, 95567, Control_c, 0, 67, 88
1, 95569, Note_on_c, 0, 82, 76
1, 95574, Note_off_c, 0, 56, 61
1, 95582, Control_c, 0, 67, 81
1, 95595, Note_on_c, 0, 67, 41
1, 95597, Control_c, 0, 67, 73
1, 95611, Control_c, 0, 67, 66
1, 95626, Control_c, 0, 67, 58
1, 95638, Note_off_c, 0, 76, 61
1, 95641, Note_off_c, 0, 67, 58
1, 95641, Control_c, 0, 67, 51
1, 95656, Control_c, 0, 67, 47
1, 95670, Note_off_c, 0, 70, 53
1, 95670, Control_c, 0, 67, 44
1, 95685, Control_c, 0, 67, 42
1, 95697, Note_on_c, 0, 56, 53
1, 95700, Control_c, 0, 67, 41
1, 95801, Note_on_c, 0, 75, 78
1, 95810, Note_on_c, 0, 69, 66
1, 95819, Note_on_c, 0, 66, 59
1, 95828, Note_off_c, 0, 82, 58
1, 95831, Note_off_c, 0, 56, 61
1, 95884, Note_off_c, 0, 69, 61
1, 95909, Note_off_c, 0, 66, 59
1, 95929, Note_off_c, 0, 75, 62
1, 95944, Note_on_c, 0, 56, 60
1, 95997, Control_c, 0, 67, 42
1, 96011, Control_c, 0, 67, 43
1, 96026, Control_c, 0, 67, 43
1, 96041, Control_c, 0, 67, 44
1, 96042, Note_on_c, 0, 74, 68
1, 96044, Note_on_c, 0, 68, 52
1, 96055, Control_c, 0, 64, 100
1, 96069, Note_off_c, 0, 56, 59
1, 96070, Control_c, 0, 64, 82
1, 96070, Control_c, 0, 67, 45
1, 96080, Note_on_c, 0, 80, 70
1, 96085, Control_c, 0, 64, 71
1, 96089, Note_on_c, 0, 65, 43
1, 96100, Control_c, 0, 64, 68
1, 96100, Control_c, 0, 67, 45
1, 96115, Control_c, 0, 64, 71
1, 96130, Control_c, 0, 64, 77
1, 96144, Control_c, 0, 64, 87
1, 96159, Control_c, 0, 64, 101
1, 96171, Note_off_c, 0, 74, 63
1, 96174, Control_c, 0, 64, 127
1, 96179, Note_off_c, 0, 65, 50
1, 96188, Control_c, 0, 67, 46
1, 96194, Note_off_c, 0, 68, 52
1, 96198, Note_on_c, 0, 56, 51
1, 96233, Control_c, 0, 67, 46
1, 96248, Control_c, 0, 67, 47
1, 96270, Control_c, 0, 67, 48
1, 96285, Control_c, 0, 67, 48
1, 96301, Control_c, 0, 67, 49
1, 96316, Control_c, 0, 67, 50
1, 96331, Control_c, 0, 67, 50
1, 96346, Control_c, 0, 67, 51
1, 96348, Note_on_c, 0, 73, 69
1, 96352, Note_on_c, 0, 67, 59
1, 96360, Control_c, 0, 64, 92
1, 96360, Control_c, 0, 67, 52
1, 96363, Note_on_c, 0, 64, 48
1, 96363, Note_off_c, 0, 56, 59
1, 96375, Control_c, 0, 64, 75
1, 96375, Control_c, 0, 67, 52
1, 96383, Note_off_c, 0, 80, 46
1, 96390, Control_c, 0, 64, 64
1, 96390, Control_c, 0, 67, 53
1, 96405, Control_c, 0, 64, 62
1, 96405, Control_c, 0, 67, 53
1, 96420, Control_c, 0, 64, 66
1, 96435, Control_c, 0, 64, 72
1, 96435, Control_c, 0, 67, 54
1, 96449, Control_c, 0, 64, 80
1, 96449, Control_c, 0, 67, 55
1, 96457, Note_off_c, 0, 67, 58
1, 96464, Control_c, 0, 64, 90
1, 96464, Control_c, 0, 67, 57
1, 96479, Control_c, 0, 64, 101
1, 96479, Control_c, 0, 67, 60
1, 96493, Control_c, 0, 64, 118
1, 96493, Control_c, 0, 67, 62
1, 96503, Note_on_c, 0, 56, 48
1, 96503, Note_off_c, 0, 73, 62
1, 96506, Note_off_c, 0, 64, 44
1, 96508, Control_c, 0, 64, 127
1, 96508, Control_c, 0, 67, 64
1, 96523, Control_c, 0, 67, 65
1, 96538, Control_c, 0, 67, 66
1, 96553, Control_c, 0, 67, 66
1, 96567, Control_c, 0, 67, 68
1, 96582, Control_c, 0, 67, 69
1, 96597, Control_c, 0, 67, 70
1, 96612, Control_c, 0, 67, 72
1, 96627, Control_c, 0, 67, 73
1, 96641, Control_c, 0, 67, 73
1, 96656, Control_c, 0, 67, 74
1, 96657, Note_on_c, 0, 66, 41
1, 96671, Control_c, 0, 67, 75
1, 96678, Note_on_c, 0, 72, 59
1, 96682, Note_off_c, 0, 56, 53
1, 96686, Control_c, 0, 67, 76
1, 96694, Note_on_c, 0, 63, 43
1, 96701, Control_c, 0, 67, 77
1, 96716, Control_c, 0, 64, 97
1, 96716, Control_c, 0, 67, 80
1, 96727, Note_on_c, 0, 78, 59
1, 96731, Control_c, 0, 64, 79
1, 96731, Control_c, 0, 67, 82
1, 96746, Control_c, 0, 64, 65
1, 96746, Control_c, 0, 67, 84
1, 96760, Control_c, 0, 64, 0
1, 96760, Control_c, 0, 67, 85
1, 96775, Control_c, 0, 67, 86
1, 96790, Control_c, 0, 67, 88
1, 96804, Control_c, 0, 67, 89
1, 96819, Control_c, 0, 67, 91
1, 96834, Control_c, 0, 67, 93
1, 96838, Note_off_c, 0, 63, 57
1, 96849, Control_c, 0, 67, 95
1, 96864, Control_c, 0, 67, 96
1, 96871, Note_on_c, 0, 56, 43
1, 96923, Control_c, 0, 64, 57
1, 96938, Control_c, 0, 64, 65
1, 96952, Control_c, 0, 64, 70
1, 96952, Control_c, 0, 67, 95
1, 96967, Control_c, 0, 64, 76
1, 96967, Control_c, 0, 67, 94
1, 96982, Control_c, 0, 64, 83
1, 96982, Control_c, 0, 67, 94
1, 96997, Control_c, 0, 64, 91
1, 96997, Control_c, 0, 67, 93
1, 97019, Control_c, 0, 64, 101
1, 97019, Control_c, 0, 67, 92
1, 97034, Control_c, 0, 64, 113
1, 97034, Control_c, 0, 67, 92
1, 97049, Control_c, 0, 64, 127
1, 97049, Control_c, 0, 67, 91
1, 97051, Note_off_c, 0, 56, 58
1, 97054, Note_on_c, 0, 63, 44
1, 97064, Control_c, 0, 67, 90
1, 97109, Control_c, 0, 67, 90
1, 97124, Control_c, 0, 67, 89
1, 97154, Control_c, 0, 67, 89
1, 97187, Note_off_c, 0, 63, 57
1, 97220, Note_on_c, 0, 56, 38
1, 97241, Note_off_c, 0, 66, 38
1, 97331, Control_c, 0, 67, 89
1, 97362, Control_c, 0, 67, 90
1, 97391, Control_c, 0, 67, 90
1, 97421, Control_c, 0, 64, 106
1, 97421, Control_c, 0, 67, 91
1, 97422, Note_on_c, 0, 67, 58
1, 97430, Note_on_c, 0, 64, 41
1, 97434, Note_off_c, 0, 56, 52
1, 97435, Control_c, 0, 64, 83
1, 97435, Control_c, 0, 67, 91
1, 97450, Control_c, 0, 64, 64
1, 97450, Control_c, 0, 67, 92
1, 97465, Control_c, 0, 64, 0
1, 97465, Control_c, 0, 67, 92
1, 97480, Control_c, 0, 67, 93
1, 97509, Control_c, 0, 64, 40
1, 97509, Control_c, 0, 67, 93
1, 97524, Control_c, 0, 64, 61
1, 97528, Note_off_c, 0, 72, 61
1, 97539, Control_c, 0, 64, 67
1, 97539, Control_c, 0, 67, 94
1, 97554, Control_c, 0, 64, 72
1, 97554, Control_c, 0, 67, 94
1, 97569, Control_c, 0, 64, 78
1, 97583, Control_c, 0, 64, 84
1, 97583, Control_c, 0, 67, 95
1, 97587, Note_off_c, 0, 64, 55
1, 97598, Control_c, 0, 64, 91
1, 97598, Control_c, 0, 67, 95
1, 97607, Note_on_c, 0, 56, 40
1, 97613, Control_c, 0, 64, 96
1, 97613, Control_c, 0, 67, 96
1, 97628, Control_c, 0, 64, 103
1, 97628, Control_c, 0, 67, 96
1, 97643, Control_c, 0, 64, 108
1, 97643, Control_c, 0, 67, 97
1, 97658, Control_c, 0, 64, 114
1, 97673, Control_c, 0, 64, 127
1, 97673, Control_c, 0, 67, 97
1, 97688, Control_c, 0, 67, 98
1, 97702, Control_c, 0, 67, 102
1, 97717, Control_c, 0, 67, 105
1, 97732, Control_c, 0, 67, 108
1, 97747, Control_c, 0, 67, 111
1, 97769, Control_c, 0, 67, 114
1, 97783, Control_c, 0, 67, 117
1, 97798, Control_c, 0, 67, 120
1, 97813, Control_c, 0, 67, 123
1, 97828, Control_c, 0, 67, 127
1, 97873, Control_c, 0, 64, 121
1, 97888, Note_on_c, 0, 68, 51
1, 97888, Control_c, 0, 64, 103
1, 97898, Note_on_c, 0, 72, 52
1, 97902, Note_on_c, 0, 65, 37
1, 97903, Control_c, 0, 64, 89
1, 97918, Control_c, 0, 64, 74
1, 97932, Control_c, 0, 64, 60
1, 97935, Note_off_c, 0, 56, 55
1, 97947, Control_c, 0, 64, 0
1, 98008, Note_off_c, 0, 67, 44
1, 98069, Note_off_c, 0, 78, 35
1, 98088, Note_off_c, 0, 65, 51
1, 98126, Note_on_c, 0, 56, 32
1, 98170, Control_c, 0, 64, 41
1, 98185, Control_c, 0, 64, 60
1, 98200, Control_c, 0, 64, 65
1, 98214, Control_c, 0, 64, 69
1, 98229, Control_c, 0, 64, 72
1, 98244, Control_c, 0, 64, 77
1, 98258, Control_c, 0, 64, 82
1, 98273, Control_c, 0, 64, 87
1, 98288, Control_c, 0, 64, 94
1, 98303, Control_c, 0, 64, 99
1, 98318, Control_c, 0, 64, 104
1, 98322, Note_on_c, 0, 65, 30
1, 98331, Note_off_c, 0, 56, 42
1, 98332, Control_c, 0, 64, 112
1, 98347, Control_c, 0, 64, 127
1, 98510, Note_on_c, 0, 56, 34
1, 98541, Note_off_c, 0, 65, 36
1, 98726, Control_c, 0, 64, 112
1, 98741, Control_c, 0, 64, 100
1, 98746, Note_on_c, 0, 66, 39
1, 98755, Control_c, 0, 64, 88
1, 98770, Control_c, 0, 64, 75
1, 98779, Note_on_c, 0, 63, 21
1, 98784, Note_off_c, 0, 56, 38
1, 98785, Control_c, 0, 64, 65
1, 98790, Note_off_c, 0, 68, 51
1, 98800, Control_c, 0, 64, 26
1, 98815, Control_c, 0, 64, 0
1, 98933, Control_c, 0, 64, 50
1, 98948, Control_c, 0, 64, 62
1, 98962, Control_c, 0, 64, 66
1, 98977, Control_c, 0, 64, 68
1, 98990, Note_off_c, 0, 72, 55
1, 98992, Control_c, 0, 64, 71
1, 99006, Control_c, 0, 64, 75
1, 99020, Note_on_c, 0, 56, 35
1, 99021, Control_c, 0, 64, 79
1, 99036, Control_c, 0, 64, 83
1, 99051, Control_c, 0, 64, 88
1, 99054, Note_off_c, 0, 66, 55
1, 99066, Control_c, 0, 64, 91
1, 99068, Note_off_c, 0, 63, 42
1, 99080, Control_c, 0, 64, 95
1, 99095, Control_c, 0, 64, 99
1, 99110, Control_c, 0, 64, 103
1, 99125, Control_c, 0, 64, 108
1, 99140, Control_c, 0, 64, 113
1, 99154, Control_c, 0, 64, 124
1, 99169, Control_c, 0, 64, 127
1, 99181, Note_off_c, 0, 56, 37
1, 99526, Note_on_c, 0, 68, 56
1, 99533, Note_on_c, 0, 60, 34
1, 99533, Control_c, 0, 64, 113
1, 99548, Control_c, 0, 64, 92
1, 99551, Note_on_c, 0, 63, 35
1, 99563, Control_c, 0, 64, 77
1, 99578, Control_c, 0, 64, 65
1, 99593, Control_c, 0, 64, 53
1, 99607, Control_c, 0, 64, 52
1, 99622, Control_c, 0, 64, 59
1, 99637, Control_c, 0, 64, 64
1, 99652, Control_c, 0, 64, 68
1, 99667, Control_c, 0, 64, 72
1, 99682, Control_c, 0, 64, 76
1, 99697, Control_c, 0, 64, 81
1, 99711, Control_c, 0, 64, 86
1, 99712, Note_off_c, 0, 60, 59
1, 99726, Control_c, 0, 64, 92
1, 99741, Control_c, 0, 64, 97
1, 99756, Control_c, 0, 64, 103
1, 99771, Control_c, 0, 64, 110
1, 99785, Control_c, 0, 64, 127
1, 99884, Note_on_c, 0, 44, 38
1, 99931, Note_off_c, 0, 44, 49
1, 100116, Note_on_c, 0, 60, 45
1, 100160, Note_off_c, 0, 60, 60
1, 100302, Note_on_c, 0, 44, 51
1, 100335, Note_off_c, 0, 44, 64
1, 100479, Note_on_c, 0, 60, 50
1, 100516, Note_off_c, 0, 60, 63
1, 100663, Note_on_c, 0, 44, 48
1, 100695, Note_off_c, 0, 44, 62
1, 100925, Note_on_c, 0, 67, 54
1, 100933, Note_on_c, 0, 59, 37
1, 100941, Control_c, 0, 64, 121
1, 100945, Note_on_c, 0, 62, 43
1, 100956, Control_c, 0, 64, 93
1, 100971, Control_c, 0, 64, 78
1, 100985, Control_c, 0, 64, 66
1, 101000, Control_c, 0, 64, 52
1, 101015, Control_c, 0, 64, 46
1, 101030, Control_c, 0, 64, 50
1, 101045, Control_c, 0, 64, 58
1, 101049, Note_off_c, 0, 68, 36
1, 101059, Control_c, 0, 64, 64
1, 101071, Note_off_c, 0, 63, 35
1, 101075, Control_c, 0, 64, 67
1, 101077, Note_off_c, 0, 59, 44
1, 101091, Control_c, 0, 64, 70
1, 101106, Control_c, 0, 64, 73
1, 101121, Control_c, 0, 64, 76
1, 101136, Control_c, 0, 64, 80
1, 101150, Control_c, 0, 64, 85
1, 101165, Control_c, 0, 64, 89
1, 101167, Note_on_c, 0, 44, 54
1, 101180, Control_c, 0, 64, 94
1, 101195, Control_c, 0, 64, 99
1, 101210, Control_c, 0, 64, 103
1, 101224, Control_c, 0, 64, 109
1, 101239, Control_c, 0, 64, 119
1, 101254, Control_c, 0, 64, 127
1, 101258, Note_off_c, 0, 44, 59
1, 101353, Note_on_c, 0, 59, 47
1, 101402, Note_off_c, 0, 59, 53
1, 101533, Note_on_c, 0, 44, 47
1, 101741, Note_on_c, 0, 66, 62
1, 101745, Note_on_c, 0, 61, 46
1, 101747, Note_on_c, 0, 58, 44
1, 101753, Note_off_c, 0, 44, 31
1, 101765, Control_c, 0, 64, 101
1, 101780, Control_c, 0, 64, 82
1, 101795, Control_c, 0, 64, 68
1, 101809, Control_c, 0, 64, 48
1, 101824, Control_c, 0, 64, 40
1, 101839, Control_c, 0, 64, 44
1, 101854, Control_c, 0, 64, 53
1, 101859, Note_off_c, 0, 67, 50
1, 101869, Control_c, 0, 64, 62
1, 101873, Note_off_c, 0, 62, 39
1, 101885, Control_c, 0, 64, 65
1, 101899, Control_c, 0, 64, 69
1, 101914, Control_c, 0, 64, 74
1, 101929, Control_c, 0, 64, 79
1, 101944, Control_c, 0, 64, 85
1, 101959, Note_on_c, 0, 44, 46
1, 101959, Control_c, 0, 64, 91
1, 101968, Note_off_c, 0, 58, 37
1, 101974, Control_c, 0, 64, 97
1, 101980, Note_off_c, 0, 61, 60
1, 101988, Control_c, 0, 64, 104
1, 102003, Control_c, 0, 64, 115
1, 102010, Note_off_c, 0, 66, 61
1, 102018, Control_c, 0, 64, 127
1, 102198, Note_on_c, 0, 60, 40
1, 102210, Note_on_c, 0, 57, 34
1, 102221, Note_off_c, 0, 44, 40
1, 102284, Note_on_c, 0, 72, 54
1, 102336, Control_c, 0, 64, 106
1, 102351, Control_c, 0, 64, 88
1, 102366, Control_c, 0, 64, 76
1, 102380, Control_c, 0, 64, 66
1, 102395, Control_c, 0, 64, 63
1, 102410, Control_c, 0, 64, 63
1, 102424, Control_c, 0, 64, 66
1, 102439, Control_c, 0, 64, 69
1, 102440, Note_off_c, 0, 57, 53
1, 102454, Control_c, 0, 64, 72
1, 102466, Note_off_c, 0, 60, 62
1, 102467, Note_on_c, 0, 44, 42
1, 102469, Control_c, 0, 64, 76
1, 102484, Control_c, 0, 64, 80
1, 102499, Control_c, 0, 64, 84
1, 102514, Control_c, 0, 64, 88
1, 102529, Control_c, 0, 64, 92
1, 102544, Control_c, 0, 64, 97
1, 102559, Control_c, 0, 64, 103
1, 102573, Control_c, 0, 64, 114
1, 102586, Control_c, 0, 64, 127
1, 102630, Control_c, 0, 67, 126
1, 102631, Note_on_c, 0, 65, 60
1, 102632, Note_on_c, 0, 59, 55
1, 102640, Note_off_c, 0, 72, 40
1, 102645, Note_on_c, 0, 56, 49
1, 102645, Control_c, 0, 67, 122
1, 102660, Control_c, 0, 67, 116
1, 102676, Control_c, 0, 67, 110
1, 102684, Note_off_c, 0, 44, 42
1, 102691, Control_c, 0, 67, 102
1, 102706, Control_c, 0, 67, 95
1, 102721, Control_c, 0, 67, 87
1, 102735, Control_c, 0, 67, 81
1, 102736, Note_off_c, 0, 59, 59
1, 102750, Control_c, 0, 67, 75
1, 102765, Control_c, 0, 67, 71
1, 102773, Note_off_c, 0, 65, 61
1, 102780, Control_c, 0, 67, 69
1, 102785, Note_off_c, 0, 56, 49
1, 102795, Control_c, 0, 67, 68
1, 102797, Note_on_c, 0, 44, 51
1, 102809, Control_c, 0, 67, 67
1, 102824, Control_c, 0, 67, 66
1, 102839, Control_c, 0, 67, 66
1, 102897, Note_on_c, 0, 64, 63
1, 102913, Note_on_c, 0, 58, 54
1, 102913, Control_c, 0, 64, 96
1, 102928, Control_c, 0, 64, 80
1, 102930, Note_off_c, 0, 44, 59
1, 102943, Control_c, 0, 64, 69
1, 102944, Note_on_c, 0, 70, 69
1, 102951, Note_on_c, 0, 55, 46
1, 102958, Control_c, 0, 64, 68
1, 102972, Control_c, 0, 64, 71
1, 102987, Control_c, 0, 64, 77
1, 103005, Note_off_c, 0, 55, 59
1, 103009, Control_c, 0, 64, 86
1, 103018, Note_off_c, 0, 64, 62
1, 103024, Control_c, 0, 64, 97
1, 103039, Control_c, 0, 64, 116
1, 103053, Control_c, 0, 64, 127
1, 103066, Note_off_c, 0, 58, 36
1, 103068, Note_on_c, 0, 44, 53
1, 103113, Control_c, 0, 67, 66
1, 103128, Control_c, 0, 67, 67
1, 103143, Control_c, 0, 67, 67
1, 103158, Control_c, 0, 67, 68
1, 103172, Control_c, 0, 67, 69
1, 103183, Note_on_c, 0, 63, 68
1, 103185, Note_on_c, 0, 57, 63
1, 103187, Control_c, 0, 67, 69
1, 103200, Note_on_c, 0, 54, 57
1, 103202, Control_c, 0, 64, 100
1, 103202, Control_c, 0, 67, 70
1, 103217, Control_c, 0, 64, 82
1, 103217, Control_c, 0, 67, 70
1, 103223, Note_off_c, 0, 44, 59
1, 103232, Control_c, 0, 64, 70
1, 103232, Control_c, 0, 67, 71
1, 103233, Note_off_c, 0, 70, 59
1, 103246, Control_c, 0, 64, 67
1, 103261, Control_c, 0, 64, 70
1, 103261, Control_c, 0, 67, 72
1, 103276, Control_c, 0, 64, 78
1, 103281, Note_off_c, 0, 57, 59
1, 103291, Control_c, 0, 64, 90
1, 103291, Control_c, 0, 67, 72
1, 103306, Control_c, 0, 64, 110
1, 103313, Note_off_c, 0, 54, 58
1, 103320, Control_c, 0, 64, 127
1, 103326, Note_off_c, 0, 63, 59
1, 103343, Note_on_c, 0, 44, 61
1, 103417, Note_on_c, 0, 56, 61
1, 103419, Note_on_c, 0, 62, 64
1, 103424, Control_c, 0, 67, 73
1, 103453, Control_c, 0, 67, 73
1, 103460, Note_on_c, 0, 68, 80
1, 103469, Control_c, 0, 64, 94
1, 103477, Note_off_c, 0, 44, 60
1, 103484, Control_c, 0, 64, 75
1, 103485, Note_on_c, 0, 53, 40
1, 103499, Control_c, 0, 64, 62
1, 103514, Control_c, 0, 64, 49
1, 103529, Control_c, 0, 64, 58
1, 103544, Control_c, 0, 64, 66
1, 103558, Control_c, 0, 64, 73
1, 103566, Note_off_c, 0, 62, 59
1, 103572, Note_off_c, 0, 53, 58
1, 103573, Control_c, 0, 64, 83
1, 103588, Control_c, 0, 64, 98
1, 103588, Control_c, 0, 67, 74
1, 103599, Note_on_c, 0, 44, 56
1, 103602, Control_c, 0, 64, 127
1, 103608, Note_off_c, 0, 56, 63
1, 103660, Note_off_c, 0, 68, 59
1, 103750, Note_on_c, 0, 55, 52
1, 103750, Note_on_c, 0, 61, 58
1, 103763, Note_off_c, 0, 44, 60
1, 103771, Note_on_c, 0, 52, 43
1, 103773, Control_c, 0, 67, 74
1, 103788, Control_c, 0, 64, 100
1, 103802, Control_c, 0, 64, 79
1, 103817, Control_c, 0, 64, 62
1, 103832, Control_c, 0, 64, 43
1, 103847, Control_c, 0, 64, 48
1, 103847, Control_c, 0, 67, 75
1, 103862, Control_c, 0, 64, 62
1, 103876, Control_c, 0, 64, 68
1, 103885, Note_off_c, 0, 55, 63
1, 103891, Control_c, 0, 64, 74
1, 103894, Note_off_c, 0, 52, 56
1, 103906, Control_c, 0, 64, 84
1, 103908, Note_on_c, 0, 44, 44
1, 103921, Control_c, 0, 64, 96
1, 103925, Note_off_c, 0, 61, 62
1, 103936, Control_c, 0, 64, 109
1, 103951, Control_c, 0, 64, 127
1, 104100, Control_c, 0, 67, 75
1, 104115, Control_c, 0, 67, 76
1, 104118, Note_on_c, 0, 54, 39
1, 104120, Note_on_c, 0, 60, 53
1, 104135, Note_on_c, 0, 51, 42
1, 104144, Control_c, 0, 64, 117
1, 104144, Control_c, 0, 67, 76
1, 104149, Note_off_c, 0, 44, 41
1, 104150, Note_on_c, 0, 66, 57
1, 104159, Control_c, 0, 64, 91
1, 104174, Control_c, 0, 64, 75
1, 104189, Control_c, 0, 64, 59
1, 104189, Control_c, 0, 67, 77
1, 104203, Control_c, 0, 64, 0
1, 104308, Note_off_c, 0, 51, 56
1, 104308, Control_c, 0, 64, 14
1, 104323, Control_c, 0, 64, 55
1, 104329, Note_on_c, 0, 44, 41
1, 104338, Control_c, 0, 64, 64
1, 104338, Control_c, 0, 67, 76
1, 104353, Control_c, 0, 64, 68
1, 104367, Control_c, 0, 64, 71
1, 104382, Control_c, 0, 64, 76
1, 104397, Control_c, 0, 64, 82
1, 104397, Control_c, 0, 67, 76
1, 104412, Control_c, 0, 64, 87
1, 104426, Control_c, 0, 64, 93
1, 104426, Control_c, 0, 67, 75
1, 104441, Control_c, 0, 64, 98
1, 104456, Control_c, 0, 64, 103
1, 104456, Control_c, 0, 67, 75
1, 104471, Control_c, 0, 64, 112
1, 104486, Control_c, 0, 64, 127
1, 104527, Note_on_c, 0, 51, 45
1, 104548, Note_off_c, 0, 44, 42
1, 104553, Control_c, 0, 67, 74
1, 104672, Note_off_c, 0, 51, 58
1, 104687, Note_off_c, 0, 54, 44
1, 104702, Note_on_c, 0, 44, 39
1, 104745, Control_c, 0, 67, 75
1, 104789, Control_c, 0, 67, 75
1, 104819, Control_c, 0, 67, 76
1, 104878, Control_c, 0, 67, 76
1, 104907, Control_c, 0, 67, 77
1, 104935, Note_on_c, 0, 55, 57
1, 104937, Control_c, 0, 64, 99
1, 104946, Note_on_c, 0, 52, 42
1, 104951, Control_c, 0, 64, 79
1, 104966, Control_c, 0, 64, 66
1, 104981, Control_c, 0, 64, 29
1, 104992, Note_off_c, 0, 44, 51
1, 104996, Control_c, 0, 64, 0
1, 104996, Control_c, 0, 67, 77
1, 105055, Control_c, 0, 64, 30
1, 105071, Control_c, 0, 64, 58
1, 105082, Note_off_c, 0, 60, 62
1, 105086, Control_c, 0, 64, 65
1, 105101, Control_c, 0, 64, 69
1, 105115, Control_c, 0, 64, 73
1, 105115, Control_c, 0, 67, 78
1, 105130, Control_c, 0, 64, 78
1, 105145, Control_c, 0, 64, 86
1, 105146, Note_on_c, 0, 44, 36
1, 105160, Control_c, 0, 64, 92
1, 105160, Control_c, 0, 67, 78
1, 105167, Note_off_c, 0, 52, 38
1, 105175, Control_c, 0, 64, 97
1, 105189, Control_c, 0, 64, 101
1, 105189, Control_c, 0, 67, 79
1, 105204, Control_c, 0, 64, 104
1, 105219, Control_c, 0, 64, 108
1, 105219, Control_c, 0, 67, 80
1, 105234, Control_c, 0, 64, 111
1, 105234, Control_c, 0, 67, 80
1, 105256, Control_c, 0, 64, 115
1, 105256, Control_c, 0, 67, 83
1, 105271, Control_c, 0, 64, 119
1, 105271, Control_c, 0, 67, 86
1, 105286, Control_c, 0, 64, 121
1, 105286, Control_c, 0, 67, 89
1, 105301, Control_c, 0, 67, 92
1, 105316, Control_c, 0, 67, 96
1, 105330, Control_c, 0, 67, 99
1, 105345, Control_c, 0, 67, 102
1, 105360, Control_c, 0, 64, 120
1, 105360, Control_c, 0, 67, 105
1, 105374, Control_c, 0, 64, 119
1, 105374, Control_c, 0, 67, 107
1, 105389, Control_c, 0, 64, 113
1, 105389, Control_c, 0, 67, 110
1, 105404, Control_c, 0, 64, 106
1, 105404, Control_c, 0, 67, 113
1, 105419, Control_c, 0, 64, 95
1, 105419, Control_c, 0, 67, 116
1, 105433, Note_on_c, 0, 56, 50
1, 105434, Control_c, 0, 64, 82
1, 105434, Control_c, 0, 67, 119
1, 105442, Note_on_c, 0, 60, 43
1, 105448, Control_c, 0, 64, 70
1, 105448, Control_c, 0, 67, 121
1, 105450, Note_on_c, 0, 53, 33
1, 105463, Control_c, 0, 64, 52
1, 105463, Control_c, 0, 67, 123
1, 105478, Control_c, 0, 64, 0
1, 105478, Control_c, 0, 67, 125
1, 105493, Control_c, 0, 67, 127
1, 105503, Note_off_c, 0, 44, 50
1, 105521, Note_off_c, 0, 55, 53
1, 105599, Note_off_c, 0, 66, 37
1, 105661, Note_off_c, 0, 53, 46
1, 105690, Note_on_c, 0, 44, 38
1, 105834, Control_c, 0, 64, 52
1, 105848, Control_c, 0, 64, 63
1, 105864, Control_c, 0, 64, 67
1, 105879, Control_c, 0, 64, 70
1, 105891, Note_on_c, 0, 53, 27
1, 105894, Control_c, 0, 64, 75
1, 105903, Note_off_c, 0, 44, 48
1, 105909, Control_c, 0, 64, 79
1, 105924, Control_c, 0, 64, 84
1, 105938, Control_c, 0, 64, 87
1, 105953, Control_c, 0, 64, 91
1, 105968, Control_c, 0, 64, 94
1, 105983, Control_c, 0, 64, 97
1, 106004, Control_c, 0, 64, 100
1, 106019, Control_c, 0, 64, 103
1, 106034, Control_c, 0, 64, 107
1, 106049, Control_c, 0, 64, 111
1, 106056, Note_off_c, 0, 53, 49
1, 106064, Control_c, 0, 64, 116
1, 106079, Control_c, 0, 64, 123
1, 106094, Control_c, 0, 64, 127
1, 106121, Note_on_c, 0, 44, 34
1, 106360, Control_c, 0, 64, 124
1, 106375, Control_c, 0, 64, 115
1, 106390, Control_c, 0, 64, 109
1, 106404, Control_c, 0, 64, 102
1, 106419, Control_c, 0, 64, 94
1, 106427, Note_on_c, 0, 51, 37
1, 106434, Control_c, 0, 64, 85
1, 106441, Note_on_c, 0, 54, 37
1, 106449, Control_c, 0, 64, 76
1, 106464, Control_c, 0, 64, 65
1, 106467, Note_off_c, 0, 44, 44
1, 106478, Control_c, 0, 64, 47
1, 106493, Control_c, 0, 64, 0
1, 106497, Note_off_c, 0, 56, 55
1, 106702, Control_c, 0, 64, 32
1, 106717, Control_c, 0, 64, 54
1, 106732, Control_c, 0, 64, 61
1, 106754, Control_c, 0, 64, 64
1, 106768, Control_c, 0, 64, 66
1, 106783, Control_c, 0, 64, 68
1, 106797, Note_on_c, 0, 44, 37
1, 106798, Control_c, 0, 64, 69
1, 106813, Control_c, 0, 64, 70
1, 106827, Control_c, 0, 64, 71
1, 106842, Control_c, 0, 64, 72
1, 106857, Control_c, 0, 64, 74
1, 106872, Control_c, 0, 64, 77
1, 106874, Note_off_c, 0, 60, 38
1, 106887, Control_c, 0, 64, 80
1, 106902, Control_c, 0, 64, 83
1, 106917, Control_c, 0, 64, 87
1, 106932, Control_c, 0, 64, 91
1, 106946, Control_c, 0, 64, 95
1, 106961, Control_c, 0, 64, 100
1, 106976, Control_c, 0, 64, 105
1, 106980, Note_off_c, 0, 54, 44
1, 106991, Control_c, 0, 64, 111
1, 107006, Control_c, 0, 64, 124
1, 107013, Note_off_c, 0, 51, 43
1, 107020, Control_c, 0, 64, 127
1, 107525, Note_on_c, 0, 65, 44
1, 107529, Note_on_c, 0, 37, 34
1, 107533, Control_c, 0, 64, 106
1, 107537, Note_on_c, 0, 56, 41
1, 107542, Note_on_c, 0, 53, 32
1, 107548, Control_c, 0, 64, 90
1, 107549, Note_on_c, 0, 61, 39
1, 107553, Note_on_c, 0, 49, 20
1, 107563, Control_c, 0, 64, 77
1, 107578, Control_c, 0, 64, 65
1, 107593, Control_c, 0, 64, 0
1, 107696, Control_c, 0, 64, 28
1, 107711, Control_c, 0, 64, 51
1, 107725, Control_c, 0, 64, 60
1, 107740, Control_c, 0, 64, 64
1, 107755, Control_c, 0, 64, 66
1, 107769, Control_c, 0, 64, 68
1, 107784, Control_c, 0, 64, 71
1, 107799, Control_c, 0, 64, 74
1, 107814, Control_c, 0, 64, 78
1, 107829, Control_c, 0, 64, 81
1, 107844, Control_c, 0, 64, 84
1, 107859, Control_c, 0, 64, 88
1, 107873, Control_c, 0, 64, 91
1, 107888, Control_c, 0, 64, 94
1, 107903, Control_c, 0, 64, 99
1, 107918, Control_c, 0, 64, 104
1, 107933, Control_c, 0, 64, 110
1, 107948, Control_c, 0, 64, 121
1, 107962, Control_c, 0, 64, 127
1, 108845, Control_c, 0, 64, 116
1, 108854, Note_off_c, 0, 65, 36
1, 108859, Control_c, 0, 64, 102
1, 108874, Control_c, 0, 64, 91
1, 108889, Control_c, 0, 64, 81
1, 108893, Note_off_c, 0, 37, 42
1, 108904, Control_c, 0, 64, 72
1, 108915, Note_off_c, 0, 53, 46
1, 108918, Control_c, 0, 64, 64
1, 108922, Note_off_c, 0, 49, 44
1, 108933, Control_c, 0, 64, 53
1, 108948, Control_c, 0, 64, 51
1, 108951, Note_off_c, 0, 56, 38
1, 108970, Note_off_c, 0, 61, 41
1, 108981, Note_off_c, 0, 44, 44
1, 109075, Control_c, 0, 64, 52
1, 109090, Control_c, 0, 64, 53
1, 109105, Control_c, 0, 64, 55
1, 109120, Control_c, 0, 64, 56
1, 109134, Control_c, 0, 64, 56
1, 109149, Control_c, 0, 64, 57
1, 109164, Control_c, 0, 64, 58
1, 109179, Control_c, 0, 64, 59
1, 109194, Control_c, 0, 64, 59
1, 109209, Control_c, 0, 64, 60
1, 109223, Control_c, 0, 64, 61
1, 109238, Control_c, 0, 64, 61
1, 109253, Control_c, 0, 64, 62
1, 109268, Control_c, 0, 64, 62
1, 109283, Control_c, 0, 64, 63
1, 109297, Control_c, 0, 64, 63
1, 109326, Control_c, 0, 64, 64
1, 109356, Control_c, 0, 64, 64
1, 109400, Control_c, 0, 64, 65
1, 109430, Control_c, 0, 64, 65
1, 109474, Control_c, 0, 64, 66
1, 109519, Control_c, 0, 64, 66
1, 109548, Control_c, 0, 64, 67
1, 109563, Control_c, 0, 64, 67
1, 109578, Control_c, 0, 64, 68
1, 109593, Control_c, 0, 64, 68
1, 109608, Control_c, 0, 64, 69
1, 109622, Control_c, 0, 64, 70
1, 109637, Control_c, 0, 64, 71
1, 109652, Control_c, 0, 64, 73
1, 109667, Control_c, 0, 64, 75
1, 109681, Control_c, 0, 64, 77
1, 109696, Control_c, 0, 64, 80
1, 109706, Note_on_c, 0, 65, 42
1, 109711, Control_c, 0, 64, 83
1, 109712, Note_on_c, 0, 56, 36
1, 109724, Note_on_c, 0, 53, 29
1, 109726, Control_c, 0, 64, 86
1, 109728, Note_on_c, 0, 37, 31
1, 109740, Note_on_c, 0, 61, 34
1, 109748, Control_c, 0, 64, 89
1, 109749, Note_on_c, 0, 44, 33
1, 109758, Note_on_c, 0, 49, 17
1, 109763, Control_c, 0, 64, 93
1, 109778, Control_c, 0, 64, 97
1, 109793, Control_c, 0, 64, 102
1, 109808, Control_c, 0, 64, 108
1, 109822, Control_c, 0, 64, 116
1, 109837, Control_c, 0, 64, 127
1, 111134, Note_off_c, 0, 65, 35
1, 111165, Control_c, 0, 64, 123
1, 111180, Control_c, 0, 64, 107
1, 111194, Control_c, 0, 64, 98
1, 111209, Control_c, 0, 64, 91
1, 111216, Note_off_c, 0, 53, 44
1, 111224, Control_c, 0, 64, 83
1, 111247, Control_c, 0, 64, 77
1, 111248, Note_off_c, 0, 37, 41
1, 111261, Control_c, 0, 64, 70
1, 111272, Note_off_c, 0, 44, 42
1, 111274, Note_off_c, 0, 49, 44
1, 111276, Control_c, 0, 64, 65
1, 111280, Note_off_c, 0, 56, 41
1, 111281, Note_off_c, 0, 61, 36
1, 111291, Control_c, 0, 64, 61
1, 111306, Control_c, 0, 64, 60
1, 111335, Control_c, 0, 64, 59
1, 111409, Control_c, 0, 64, 60
1, 111424, Control_c, 0, 64, 60
1, 111439, Control_c, 0, 64, 61
1, 111454, Control_c, 0, 64, 61
1, 111484, Control_c, 0, 64, 62
1, 111514, Control_c, 0, 64, 62
1, 111529, Control_c, 0, 64, 63
1, 111558, Control_c, 0, 64, 63
1, 111603, Control_c, 0, 64, 64
1, 111632, Control_c, 0, 64, 64
1, 111677, Control_c, 0, 64, 65
1, 111707, Control_c, 0, 64, 65
1, 111736, Control_c, 0, 64, 66
1, 111766, Control_c, 0, 64, 66
1, 111796, Control_c, 0, 64, 67
1, 111810, Control_c, 0, 64, 67
1, 111825, Control_c, 0, 64, 68
1, 111840, Control_c, 0, 64, 68
1, 111855, Control_c, 0, 64, 69
1, 111870, Control_c, 0, 64, 69
1, 111884, Control_c, 0, 64, 70
1, 111899, Control_c, 0, 64, 71
1, 111914, Control_c, 0, 64, 72
1, 111929, Control_c, 0, 64, 73
1, 111943, Control_c, 0, 64, 74
1, 111958, Control_c, 0, 64, 74
1, 111973, Control_c, 0, 64, 76
1, 111996, Control_c, 0, 64, 77
1, 112011, Control_c, 0, 64, 78
1, 112025, Control_c, 0, 64, 79
1, 112040, Control_c, 0, 64, 81
1, 112055, Control_c, 0, 64, 82
1, 112070, Control_c, 0, 64, 83
1, 112085, Control_c, 0, 64, 85
1, 112099, Control_c, 0, 64, 86
1, 112114, Control_c, 0, 64, 88
1, 112129, Control_c, 0, 64, 90
1, 112143, Control_c, 0, 64, 92
1, 112158, Control_c, 0, 64, 94
1, 112173, Control_c, 0, 64, 97
1, 112175, Note_on_c, 0, 65, 38
1, 112186, Note_on_c, 0, 56, 36
1, 112188, Control_c, 0, 64, 100
1, 112199, Note_on_c, 0, 53, 30
1, 112203, Control_c, 0, 64, 104
1, 112205, Note_on_c, 0, 37, 25
1, 112206, Note_on_c, 0, 49, 28
1, 112217, Note_on_c, 0, 44, 34
1, 112217, Control_c, 0, 64, 109
1, 112225, Note_on_c, 0, 61, 31
1, 112232, Control_c, 0, 64, 115
1, 112247, Control_c, 0, 64, 127
1, 115374, Control_c, 0, 64, 99
1, 115379, Note_off_c, 0, 53, 43
1, 115389, Note_off_c, 0, 65, 35
1, 115389, Control_c, 0, 64, 73
1, 115390, Note_off_c, 0, 49, 53
1, 115391, Note_off_c, 0, 44, 54
1, 115391, Note_off_c, 0, 56, 61
1, 115395, Note_off_c, 0, 37, 49
1, 115404, Control_c, 0, 64, 0
1, 115410, Note_off_c, 0, 61, 49
1, 115494, Control_c, 0, 64, 19
1, 115509, Control_c, 0, 64, 24
1, 115523, Control_c, 0, 64, 26
1, 115538, Control_c, 0, 64, 27
1, 115553, Control_c, 0, 64, 28
1, 115568, Control_c, 0, 64, 29
1, 115624, Note_on_c, 0, 48, 74
1, 115628, Note_on_c, 0, 36, 69
1, 115642, Control_c, 0, 64, 31
1, 115651, Note_off_c, 0, 48, 65
1, 115659, Note_off_c, 0, 36, 62
1, 115672, Control_c, 0, 64, 32
1, 115736, Note_on_c, 0, 46, 85
1, 115744, Note_on_c, 0, 34, 76
1, 115761, Note_off_c, 0, 46, 67
1, 115770, Note_off_c, 0, 34, 63
1, 115842, Control_c, 0, 67, 115
1, 115850, Note_on_c, 0, 32, 94
1, 115854, Note_on_c, 0, 44, 89
1, 115856, Control_c, 0, 64, 33
1, 115856, Control_c, 0, 67, 94
1, 115871, Control_c, 0, 64, 34
1, 115871, Control_c, 0, 67, 62
1, 115874, Note_off_c, 0, 32, 69
1, 115879, Note_off_c, 0, 44, 70
1, 115886, Control_c, 0, 64, 35
1, 115886, Control_c, 0, 67, 29
1, 115901, Control_c, 0, 64, 36
1, 115901, Control_c, 0, 67, 0
1, 115916, Control_c, 0, 64, 37
1, 115931, Control_c, 0, 64, 38
1, 115946, Control_c, 0, 64, 39
1, 115961, Control_c, 0, 64, 40
1, 115965, Note_on_c, 0, 48, 98
1, 115969, Note_on_c, 0, 36, 95
1, 115976, Control_c, 0, 64, 42
1, 115983, Note_off_c, 0, 48, 73
1, 115990, Control_c, 0, 64, 44
1, 115992, Note_off_c, 0, 36, 70
1, 116005, Control_c, 0, 64, 46
1, 116020, Control_c, 0, 64, 50
1, 116035, Control_c, 0, 64, 53
1, 116050, Control_c, 0, 64, 56
1, 116064, Control_c, 0, 64, 60
1, 116066, Poly_aftertouch_c, 0, 37, 0
1, 116079, Control_c, 0, 64, 62
1, 116082, Note_on_c, 0, 31, 97
1, 116085, Note_on_c, 0, 43, 98
1, 116094, Control_c, 0, 64, 63
1, 116104, Note_off_c, 0, 31, 71
1, 116107, Note_off_c, 0, 43, 72
1, 116108, Control_c, 0, 64, 64
1, 116138, Control_c, 0, 64, 63
1, 116153, Control_c, 0, 64, 61
1, 116168, Control_c, 0, 64, 43
1, 116182, Control_c, 0, 64, 0
1, 116190, Note_on_c, 0, 48, 96
1, 116194, Note_on_c, 0, 36, 92
1, 116211, Note_off_c, 0, 48, 72
1, 116220, Note_off_c, 0, 36, 67
1, 116381, Note_on_c, 0, 42, 96
1, 116382, Note_on_c, 0, 30, 101
1, 116391, Control_c, 0, 64, 81
1, 116403, Note_off_c, 0, 42, 70
1, 116405, Note_off_c, 0, 30, 70
1, 116405, Control_c, 0, 64, 127
1, 116536, Note_on_c, 0, 93, 11
1, 116585, Note_off_c, 0, 93, 51
1, 116662, Note_on_c, 0, 93, 92
1, 116663, Note_on_c, 0, 81, 83
1, 116685, Note_off_c, 0, 81, 66
1, 116700, Note_off_c, 0, 93, 61
1, 116765, Note_on_c, 0, 79, 92
1, 116765, Note_on_c, 0, 91, 97
1, 116777, Note_on_c, 0, 54, 80
1, 116793, Note_on_c, 0, 57, 74
1, 116795, Note_off_c, 0, 79, 61
1, 116804, Note_off_c, 0, 91, 63
1, 116830, Note_on_c, 0, 63, 78
1, 116831, Note_off_c, 0, 54, 64
1, 116834, Note_on_c, 0, 60, 52
1, 116861, Note_off_c, 0, 57, 58
1, 116880, Note_on_c, 0, 62, 45
1, 116881, Note_on_c, 0, 90, 99
1, 116882, Note_on_c, 0, 78, 90
1, 116885, Note_on_c, 0, 69, 100
1, 116908, Note_off_c, 0, 60, 0
1, 116911, Note_off_c, 0, 78, 60
1, 116914, Note_off_c, 0, 62, 50
1, 116921, Note_off_c, 0, 90, 67
1, 116944, Poly_aftertouch_c, 0, 60, 127
1, 116949, Note_on_c, 0, 58, 43
1, 116990, Note_on_c, 0, 93, 101
1, 116992, Note_on_c, 0, 81, 95
1, 117012, Note_off_c, 0, 81, 63
1, 117025, Note_off_c, 0, 93, 62
1, 117102, Note_on_c, 0, 76, 89
1, 117102, Note_on_c, 0, 88, 99
1, 117120, Note_off_c, 0, 76, 73
1, 117124, Note_off_c, 0, 88, 65
1, 117206, Note_on_c, 0, 93, 100
1, 117209, Note_on_c, 0, 81, 98
1, 117229, Note_off_c, 0, 69, 58
1, 117231, Note_off_c, 0, 93, 67
1, 117234, Note_off_c, 0, 81, 66
1, 117268, Poly_aftertouch_c, 0, 60, 0
1, 117270, Note_off_c, 0, 63, 56
1, 117318, Note_off_c, 0, 58, 40
1, 117338, Note_on_c, 0, 87, 102
1, 117339, Note_on_c, 0, 75, 94
1, 117538, Note_off_c, 0, 75, 62
1, 117580, Note_off_c, 0, 87, 60
1, 117614, Note_on_c, 0, 45, 102
1, 117615, Note_on_c, 0, 33, 90
1, 117638, Note_off_c, 0, 45, 67
1, 117651, Note_off_c, 0, 33, 60
1, 117651, Note_on_c, 0, 34, 33
1, 117693, Note_off_c, 0, 34, 50
1, 117737, Note_on_c, 0, 43, 96
1, 117741, Note_on_c, 0, 31, 91
1, 117744, Poly_aftertouch_c, 0, 39, 0
1, 117761, Note_off_c, 0, 43, 70
1, 117764, Note_on_c, 0, 41, 50
1, 117765, Note_off_c, 0, 41, 127
1, 117767, Note_off_c, 0, 31, 67
1, 117785, Note_on_c, 0, 32, 15
1, 117798, Note_on_c, 0, 92, 30
1, 117829, Note_off_c, 0, 92, 47
1, 117835, Note_off_c, 0, 32, 46
1, 117862, Note_on_c, 0, 30, 96
1, 117865, Note_on_c, 0, 42, 96
1, 117865, Note_on_c, 0, 87, 98
1, 117865, Note_on_c, 0, 96, 99
1, 117868, Note_on_c, 0, 93, 88
1, 117868, Note_on_c, 0, 84, 95
1, 117889, Note_off_c, 0, 42, 69
1, 117893, Note_off_c, 0, 30, 65
1, 117904, Control_c, 0, 64, 87
1, 117919, Control_c, 0, 64, 65
1, 117934, Control_c, 0, 64, 0
1, 117969, Note_on_c, 0, 45, 98
1, 117982, Note_on_c, 0, 33, 85
1, 117997, Note_off_c, 0, 45, 70
1, 118004, Note_off_c, 0, 33, 69
1, 118015, Control_c, 0, 64, 17
1, 118030, Control_c, 0, 64, 29
1, 118045, Control_c, 0, 64, 42
1, 118059, Control_c, 0, 64, 54
1, 118074, Control_c, 0, 64, 63
1, 118089, Control_c, 0, 64, 64
1, 118093, Note_on_c, 0, 28, 91
1, 118093, Note_on_c, 0, 40, 99
1, 118104, Control_c, 0, 64, 63
1, 118115, Note_off_c, 0, 40, 72
1, 118116, Note_off_c, 0, 28, 66
1, 118119, Control_c, 0, 64, 52
1, 118134, Control_c, 0, 64, 0
1, 118199, Note_on_c, 0, 45, 99
1, 118205, Note_on_c, 0, 33, 87
1, 118220, Note_off_c, 0, 45, 74
1, 118230, Note_off_c, 0, 33, 66
1, 118339, Note_on_c, 0, 27, 101
1, 118339, Note_on_c, 0, 39, 99
1, 118356, Control_c, 0, 64, 127
1, 118361, Note_off_c, 0, 27, 70
1, 118363, Note_off_c, 0, 39, 65
1, 118391, Note_off_c, 0, 87, 62
1, 118439, Note_off_c, 0, 84, 54
1, 118460, Note_off_c, 0, 93, 36
1, 118467, Poly_aftertouch_c, 0, 27, 127
1, 118475, Note_off_c, 0, 96, 61
1, 118518, Poly_aftertouch_c, 0, 27, 0
1, 118593, Note_on_c, 0, 84, 83
1, 118593, Note_on_c, 0, 96, 86
1, 118617, Note_off_c, 0, 84, 64
1, 118634, Note_off_c, 0, 96, 62
1, 118697, Note_on_c, 0, 95, 96
1, 118703, Note_on_c, 0, 83, 81
1, 118708, Note_on_c, 0, 51, 85
1, 118730, Note_off_c, 0, 83, 67
1, 118749, Note_off_c, 0, 95, 63
1, 118760, Note_on_c, 0, 60, 64
1, 118766, Note_on_c, 0, 57, 67
1, 118772, Note_off_c, 0, 51, 67
1, 118819, Note_on_c, 0, 66, 101
1, 118821, Note_on_c, 0, 81, 90
1, 118821, Note_on_c, 0, 93, 97
1, 118843, Note_off_c, 0, 81, 65
1, 118857, Note_off_c, 0, 93, 68
1, 118935, Note_on_c, 0, 84, 91
1, 118935, Note_on_c, 0, 96, 98
1, 118959, Note_off_c, 0, 84, 64
1, 118963, Note_off_c, 0, 96, 61
1, 119047, Note_on_c, 0, 79, 93
1, 119050, Note_on_c, 0, 91, 93
1, 119062, Note_off_c, 0, 79, 74
1, 119070, Note_off_c, 0, 91, 68
1, 119072, Note_on_c, 0, 89, 51
1, 119073, Note_off_c, 0, 89, 127
1, 119150, Note_on_c, 0, 96, 102
1, 119153, Note_on_c, 0, 84, 100
1, 119167, Note_off_c, 0, 96, 69
1, 119171, Note_off_c, 0, 84, 70
1, 119213, Note_off_c, 0, 66, 66
1, 119221, Note_off_c, 0, 60, 59
1, 119222, Note_off_c, 0, 57, 60
1, 119286, Note_on_c, 0, 90, 107
1, 119288, Note_on_c, 0, 78, 99
1, 119444, Note_on_c, 0, 30, 54
1, 119487, Note_off_c, 0, 30, 59
1, 119562, Note_off_c, 0, 78, 59
1, 119576, Note_on_c, 0, 30, 95
1, 119579, Note_on_c, 0, 42, 93
1, 119601, Note_on_c, 0, 32, 51
1, 119609, Note_off_c, 0, 90, 59
1, 119624, Note_off_c, 0, 42, 61
1, 119632, Note_off_c, 0, 30, 62
1, 119636, Note_off_c, 0, 32, 56
1, 119729, Note_on_c, 0, 40, 97
1, 119734, Note_on_c, 0, 28, 92
1, 119757, Note_off_c, 0, 40, 61
1, 119764, Note_off_c, 0, 28, 63
1, 119850, Poly_aftertouch_c, 0, 27, 0
1, 119860, Note_on_c, 0, 27, 81
1, 119866, Note_on_c, 0, 39, 100
1, 119867, Note_on_c, 0, 102, 98
1, 119868, Note_on_c, 0, 93, 94
1, 119869, Note_on_c, 0, 90, 98
1, 119871, Note_on_c, 0, 99, 94
1, 119887, Note_on_c, 0, 30, 58
1, 119890, Note_off_c, 0, 39, 63
1, 119898, Control_c, 0, 64, 122
1, 119905, Note_off_c, 0, 27, 64
1, 119913, Control_c, 0, 64, 81
1, 119921, Note_off_c, 0, 30, 54
1, 119928, Control_c, 0, 64, 53
1, 119942, Control_c, 0, 64, 0
1, 119978, Note_on_c, 0, 42, 95
1, 119986, Note_on_c, 0, 30, 88
1, 120006, Note_off_c, 0, 42, 66
1, 120012, Note_off_c, 0, 30, 66
1, 120026, Note_on_c, 0, 32, 13
1, 120027, Note_off_c, 0, 32, 127
1, 120061, Control_c, 0, 64, 17
1, 120075, Control_c, 0, 64, 46
1, 120090, Control_c, 0, 64, 55
1, 120092, Note_on_c, 0, 25, 103
1, 120096, Note_on_c, 0, 37, 84
1, 120105, Control_c, 0, 64, 58
1, 120113, Note_on_c, 0, 27, 60
1, 120117, Note_off_c, 0, 37, 72
1, 120120, Control_c, 0, 64, 59
1, 120124, Note_off_c, 0, 25, 65
1, 120135, Control_c, 0, 64, 60
1, 120143, Note_off_c, 0, 27, 58
1, 120149, Control_c, 0, 64, 61
1, 120164, Control_c, 0, 64, 60
1, 120179, Control_c, 0, 64, 58
1, 120194, Control_c, 0, 64, 50
1, 120202, Note_on_c, 0, 42, 94
1, 120203, Note_on_c, 0, 30, 102
1, 120209, Control_c, 0, 64, 0
1, 120229, Note_off_c, 0, 42, 69
1, 120238, Note_off_c, 0, 30, 63
1, 120254, Note_on_c, 0, 29, 37
1, 120298, Note_off_c, 0, 29, 48
1, 120318, Note_on_c, 0, 42, 3
1, 120319, Note_off_c, 0, 42, 127
1, 120390, Note_off_c, 0, 90, 63
1, 120396, Note_off_c, 0, 93, 59
1, 120399, Note_on_c, 0, 23, 102
1, 120410, Control_c, 0, 64, 73
1, 120420, Note_off_c, 0, 99, 63
1, 120425, Control_c, 0, 64, 127
1, 120432, Note_off_c, 0, 23, 64
1, 120435, Note_off_c, 0, 102, 62
1, 120569, Note_on_c, 0, 102, 38
1, 120613, Note_off_c, 0, 102, 47
1, 120707, Note_on_c, 0, 102, 83
1, 120714, Note_on_c, 0, 90, 81
1, 120749, Note_off_c, 0, 102, 64
1, 120751, Note_off_c, 0, 90, 61
1, 120824, Note_on_c, 0, 100, 91
1, 120825, Note_on_c, 0, 48, 79
1, 120826, Note_on_c, 0, 88, 89
1, 120849, Note_on_c, 0, 51, 72
1, 120852, Note_off_c, 0, 88, 62
1, 120857, Note_on_c, 0, 57, 58
1, 120861, Note_off_c, 0, 100, 66
1, 120865, Note_on_c, 0, 54, 71
1, 120873, Note_off_c, 0, 48, 61
1, 120928, Note_on_c, 0, 63, 100
1, 120935, Note_on_c, 0, 87, 96
1, 120936, Note_on_c, 0, 99, 104
1, 120958, Note_off_c, 0, 87, 65
1, 120972, Note_off_c, 0, 99, 63
1, 121060, Note_on_c, 0, 102, 98
1, 121061, Note_on_c, 0, 90, 98
1, 121079, Note_off_c, 0, 90, 66
1, 121080, Note_off_c, 0, 102, 63
1, 121103, Note_off_c, 0, 57, 58
1, 121106, Note_off_c, 0, 51, 62
1, 121109, Note_off_c, 0, 63, 65
1, 121116, Note_off_c, 0, 54, 57
1, 121183, Note_on_c, 0, 85, 85
1, 121188, Note_on_c, 0, 96, 94
1, 121200, Note_off_c, 0, 85, 71
1, 121202, Note_off_c, 0, 96, 73
1, 121291, Note_on_c, 0, 102, 111
1, 121292, Note_on_c, 0, 90, 94
1, 121310, Note_off_c, 0, 90, 68
1, 121324, Note_off_c, 0, 102, 60
1, 121381, Control_c, 0, 64, 71
1, 121395, Control_c, 0, 64, 0
1, 121407, Note_on_c, 0, 44, 99
1, 121410, Note_on_c, 0, 32, 93
1, 121413, Note_on_c, 0, 84, 102
1, 121419, Note_on_c, 0, 96, 95
1, 121422, Note_on_c, 0, 95, 82
1, 121425, Control_c, 0, 64, 62
1, 121428, Note_off_c, 0, 84, 73
1, 121440, Note_off_c, 0, 95, 74
1, 121440, Note_off_c, 0, 96, 67
1, 121440, Control_c, 0, 64, 91
1, 121455, Control_c, 0, 64, 127
1, 121460, Note_on_c, 0, 34, 10
1, 121461, Note_off_c, 0, 34, 127
1, 121520, Poly_aftertouch_c, 0, 34, 127
1, 121534, Note_on_c, 0, 102, 100
1, 121536, Note_off_c, 0, 32, 64
1, 121538, Note_on_c, 0, 90, 93
1, 121546, Poly_aftertouch_c, 0, 38, 127
1, 121551, Note_off_c, 0, 44, 63
1, 121556, Note_off_c, 0, 90, 70
1, 121556, Note_off_c, 0, 102, 65
1, 121589, Poly_aftertouch_c, 0, 34, 0
1, 121598, Poly_aftertouch_c, 0, 38, 0
1, 121663, Note_on_c, 0, 81, 96
1, 121664, Note_on_c, 0, 93, 100
1, 121677, Note_off_c, 0, 81, 77
1, 121685, Note_off_c, 0, 93, 66
1, 121789, Note_on_c, 0, 90, 100
1, 121790, Note_on_c, 0, 102, 101
1, 121791, Note_on_c, 0, 56, 73
1, 121803, Note_off_c, 0, 90, 74
1, 121805, Note_off_c, 0, 102, 73
1, 121819, Note_on_c, 0, 60, 71
1, 121824, Note_on_c, 0, 99, 42
1, 121825, Note_off_c, 0, 99, 127
1, 121851, Note_off_c, 0, 56, 65
1, 121855, Note_on_c, 0, 63, 68
1, 121858, Note_on_c, 0, 66, 76
1, 121893, Note_off_c, 0, 60, 57
1, 121914, Note_on_c, 0, 72, 102
1, 121916, Note_on_c, 0, 80, 100
1, 121919, Note_on_c, 0, 92, 110
1, 121937, Note_off_c, 0, 80, 63
1, 121938, Note_on_c, 0, 90, 64
1, 121939, Note_off_c, 0, 90, 127
1, 121940, Note_on_c, 0, 61, 45
1, 121946, Note_off_c, 0, 92, 65
1, 122013, Poly_aftertouch_c, 0, 60, 127
1, 122049, Note_on_c, 0, 87, 99
1, 122049, Note_on_c, 0, 99, 102
1, 122060, Poly_aftertouch_c, 0, 60, 0
1, 122066, Note_off_c, 0, 99, 72
1, 122069, Note_off_c, 0, 87, 68
1, 122111, Note_off_c, 0, 72, 60
1, 122157, Note_off_c, 0, 66, 58
1, 122173, Note_off_c, 0, 63, 60
1, 122188, Note_on_c, 0, 90, 100
1, 122190, Note_off_c, 0, 61, 39
1, 122191, Note_on_c, 0, 78, 87
1, 122205, Note_on_c, 0, 91, 83
1, 122207, Note_off_c, 0, 78, 71
1, 122211, Note_off_c, 0, 90, 62
1, 122218, Note_off_c, 0, 91, 70
1, 122238, Note_on_c, 0, 80, 15
1, 122279, Note_off_c, 0, 80, 51
1, 122328, Note_on_c, 0, 99, 96
1, 122331, Note_on_c, 0, 87, 96
1, 122352, Note_off_c, 0, 87, 65
1, 122355, Note_off_c, 0, 99, 62
1, 122371, Note_on_c, 0, 44, 84
1, 122429, Note_on_c, 0, 51, 85
1, 122438, Note_on_c, 0, 54, 83
1, 122441, Control_c, 0, 64, 79
1, 122453, Note_off_c, 0, 44, 65
1, 122456, Control_c, 0, 64, 0
1, 122486, Note_on_c, 0, 88, 102
1, 122487, Note_on_c, 0, 76, 96
1, 122492, Control_c, 0, 64, 30
1, 122493, Note_on_c, 0, 56, 94
1, 122503, Note_off_c, 0, 76, 74
1, 122507, Control_c, 0, 64, 75
1, 122518, Note_off_c, 0, 88, 62
1, 122522, Control_c, 0, 64, 127
1, 122661, Note_on_c, 0, 96, 99
1, 122668, Note_on_c, 0, 84, 91
1, 122683, Note_off_c, 0, 84, 74
1, 122688, Note_off_c, 0, 96, 66
1, 122830, Note_on_c, 0, 87, 106
1, 122831, Note_on_c, 0, 75, 92
1, 122845, Note_off_c, 0, 75, 75
1, 122861, Note_off_c, 0, 87, 62
1, 122880, Note_off_c, 0, 56, 66
1, 122917, Note_off_c, 0, 54, 63
1, 122930, Note_off_c, 0, 51, 62
1, 123016, Note_on_c, 0, 84, 91
1, 123016, Note_on_c, 0, 96, 102
1, 123035, Note_off_c, 0, 84, 67
1, 123048, Note_off_c, 0, 96, 67
1, 123188, Note_on_c, 0, 37, 81
1, 123236, Note_on_c, 0, 44, 83
1, 123242, Control_c, 0, 64, 73
1, 123251, Note_off_c, 0, 37, 65
1, 123256, Control_c, 0, 64, 0
1, 123262, Note_on_c, 0, 97, 99
1, 123265, Note_on_c, 0, 88, 91
1, 123265, Note_on_c, 0, 92, 87
1, 123266, Note_on_c, 0, 85, 94
1, 123271, Control_c, 0, 67, 8
1, 123272, Note_on_c, 0, 52, 95
1, 123286, Control_c, 0, 64, 43
1, 123291, Note_off_c, 0, 44, 66
1, 123294, Note_off_c, 0, 52, 72
1, 123300, Poly_aftertouch_c, 0, 39, 127
1, 123300, Control_c, 0, 64, 98
1, 123300, Control_c, 0, 67, 0
1, 123309, Note_off_c, 0, 97, 70
1, 123311, Note_off_c, 0, 85, 66
1, 123315, Control_c, 0, 64, 127
1, 123328, Note_off_c, 0, 88, 65
1, 123331, Poly_aftertouch_c, 0, 39, 0
1, 123341, Note_off_c, 0, 92, 65
1, 123362, Poly_aftertouch_c, 0, 42, 0
1, 123382, Poly_aftertouch_c, 0, 46, 0
1, 123833, Note_on_c, 0, 80, 94
1, 123833, Note_on_c, 0, 88, 96
1, 123835, Note_on_c, 0, 76, 92
1, 123836, Note_on_c, 0, 61, 79
1, 123837, Note_on_c, 0, 73, 89
1, 123840, Note_on_c, 0, 68, 77
1, 123940, Note_off_c, 0, 76, 62
1, 123947, Note_off_c, 0, 61, 60
1, 123957, Note_off_c, 0, 80, 66
1, 124137, Note_off_c, 0, 73, 59
1, 124186, Note_off_c, 0, 68, 58
1, 124220, Note_on_c, 0, 63, 50
1, 124229, Note_on_c, 0, 87, 87
1, 124234, Note_off_c, 0, 88, 61
1, 124235, Note_on_c, 0, 64, 64
1, 124265, Note_off_c, 0, 64, 66
1, 124286, Note_off_c, 0, 63, 61
1, 124292, Note_off_c, 0, 87, 66
1, 124294, Note_on_c, 0, 85, 87
1, 124315, Note_off_c, 0, 85, 68
1, 124317, Control_c, 0, 64, 89
1, 124332, Control_c, 0, 64, 49
1, 124346, Control_c, 0, 64, 0
1, 124355, Note_on_c, 0, 92, 97
1, 124361, Control_c, 0, 64, 61
1, 124363, Note_on_c, 0, 80, 90
1, 124364, Note_on_c, 0, 73, 87
1, 124364, Note_on_c, 0, 77, 87
1, 124367, Note_on_c, 0, 65, 77
1, 124367, Note_on_c, 0, 85, 82
1, 124376, Control_c, 0, 64, 78
1, 124380, Note_on_c, 0, 68, 69
1, 124381, Note_off_c, 0, 77, 74
1, 124383, Note_off_c, 0, 65, 68
1, 124391, Control_c, 0, 64, 127
1, 124397, Note_off_c, 0, 73, 54
1, 124409, Note_off_c, 0, 68, 66
1, 124409, Note_off_c, 0, 80, 65
1, 124421, Note_off_c, 0, 92, 68
1, 124462, Note_off_c, 0, 85, 62
1, 124843, Control_c, 0, 64, 97
1, 124857, Note_on_c, 0, 60, 99
1, 124858, Control_c, 0, 64, 65
1, 124861, Note_on_c, 0, 48, 97
1, 124865, Note_on_c, 0, 36, 85
1, 124872, Control_c, 0, 64, 0
1, 124889, Note_off_c, 0, 36, 65
1, 124892, Note_off_c, 0, 60, 67
1, 124898, Note_off_c, 0, 48, 64
1, 124902, Control_c, 0, 64, 40
1, 124917, Control_c, 0, 64, 78
1, 124932, Control_c, 0, 64, 127
1, 125365, Note_on_c, 0, 92, 98
1, 125368, Note_on_c, 0, 80, 87
1, 125373, Note_on_c, 0, 65, 84
1, 125373, Note_on_c, 0, 85, 87
1, 125374, Note_on_c, 0, 77, 86
1, 125379, Note_on_c, 0, 73, 83
1, 125491, Note_off_c, 0, 80, 63
1, 125518, Note_off_c, 0, 65, 62
1, 125520, Note_off_c, 0, 85, 64
1, 125549, Note_off_c, 0, 77, 58
1, 125678, Note_off_c, 0, 73, 60
1, 125691, Note_on_c, 0, 66, 69
1, 125697, Note_on_c, 0, 90, 87
1, 125704, Note_off_c, 0, 92, 65
1, 125743, Note_on_c, 0, 68, 71
1, 125765, Note_off_c, 0, 68, 68
1, 125765, Note_off_c, 0, 66, 63
1, 125773, Note_off_c, 0, 90, 67
1, 125777, Note_on_c, 0, 89, 90
1, 125839, Note_off_c, 0, 89, 0
1, 125845, Control_c, 0, 64, 94
1, 125860, Control_c, 0, 64, 27
1, 125863, Note_on_c, 0, 97, 100
1, 125865, Note_on_c, 0, 85, 94
1, 125870, Note_on_c, 0, 92, 84
1, 125874, Control_c, 0, 64, 0
1, 125876, Poly_aftertouch_c, 0, 89, 127
1, 125878, Note_on_c, 0, 47, 93
1, 125885, Note_on_c, 0, 35, 76
1, 125887, Note_on_c, 0, 33, 71
1, 125904, Control_c, 0, 64, 61
1, 125911, Note_on_c, 0, 45, 35
1, 125918, Control_c, 0, 64, 79
1, 125933, Note_off_c, 0, 33, 50
1, 125933, Control_c, 0, 64, 127
1, 125945, Note_off_c, 0, 97, 69
1, 125953, Note_off_c, 0, 45, 35
1, 125963, Note_off_c, 0, 85, 61
1, 125989, Poly_aftertouch_c, 0, 89, 0
1, 125991, Note_off_c, 0, 92, 64
1, 126059, Note_off_c, 0, 35, 60
1, 126074, Note_off_c, 0, 47, 60
1, 126355, Control_c, 0, 64, 106
1, 126369, Note_on_c, 0, 58, 102
1, 126370, Control_c, 0, 64, 68
1, 126384, Note_on_c, 0, 46, 97
1, 126385, Control_c, 0, 64, 0
1, 126390, Note_on_c, 0, 34, 86
1, 126415, Note_off_c, 0, 34, 69
1, 126430, Control_c, 0, 64, 71
1, 126433, Note_off_c, 0, 58, 63
1, 126433, Note_off_c, 0, 46, 63
1, 126444, Control_c, 0, 64, 103
1, 126459, Control_c, 0, 64, 127
1, 126888, Note_on_c, 0, 97, 100
1, 126889, Note_on_c, 0, 85, 93
1, 126893, Note_on_c, 0, 90, 91
1, 126897, Note_on_c, 0, 78, 89
1, 126898, Note_on_c, 0, 66, 82
1, 126904, Note_on_c, 0, 73, 80
1, 127019, Note_off_c, 0, 85, 63
1, 127028, Note_off_c, 0, 90, 65
1, 127033, Note_off_c, 0, 66, 59
1, 127126, Note_off_c, 0, 78, 46
1, 127204, Note_off_c, 0, 73, 61
1, 127214, Note_on_c, 0, 68, 70
1, 127223, Note_on_c, 0, 95, 84
1, 127247, Note_off_c, 0, 97, 61
1, 127275, Note_on_c, 0, 70, 78
1, 127295, Note_off_c, 0, 70, 71
1, 127305, Note_off_c, 0, 68, 62
1, 127306, Note_on_c, 0, 94, 88
1, 127348, Note_off_c, 0, 94, 65
1, 127351, Note_off_c, 0, 95, 67
1, 127416, Control_c, 0, 64, 87
1, 127417, Note_on_c, 0, 102, 104
1, 127419, Note_on_c, 0, 90, 96
1, 127425, Note_on_c, 0, 45, 93
1, 127428, Note_on_c, 0, 33, 91
1, 127428, Note_on_c, 0, 97, 90
1, 127431, Control_c, 0, 64, 38
1, 127446, Control_c, 0, 64, 0
1, 127476, Note_on_c, 0, 89, 18
1, 127491, Control_c, 0, 64, 63
1, 127499, Note_off_c, 0, 89, 35
1, 127506, Control_c, 0, 64, 82
1, 127521, Control_c, 0, 64, 127
1, 127613, Note_off_c, 0, 90, 59
1, 127619, Note_off_c, 0, 33, 55
1, 127651, Note_off_c, 0, 97, 62
1, 127652, Note_off_c, 0, 102, 58
1, 127664, Note_off_c, 0, 45, 60
1, 128023, Note_on_c, 0, 102, 99
1, 128025, Note_on_c, 0, 90, 93
1, 128027, Note_on_c, 0, 96, 81
1, 128029, Note_on_c, 0, 99, 85
1, 128034, Note_on_c, 0, 44, 97
1, 128036, Note_on_c, 0, 32, 88
1, 128045, Control_c, 0, 64, 70
1, 128060, Control_c, 0, 64, 0
1, 128069, Note_on_c, 0, 38, 15
1, 128116, Note_off_c, 0, 38, 48
1, 128163, Control_c, 0, 64, 69
1, 128178, Control_c, 0, 64, 108
1, 128193, Control_c, 0, 64, 127
1, 128209, Note_off_c, 0, 32, 61
1, 128249, Note_off_c, 0, 44, 63
1, 128662, Note_on_c, 0, 68, 69
1, 128664, Note_on_c, 0, 56, 66
1, 128767, Note_off_c, 0, 56, 61
1, 128770, Note_off_c, 0, 68, 60
1, 128869, Note_on_c, 0, 56, 65
1, 128870, Note_on_c, 0, 68, 72
1, 128927, Note_off_c, 0, 68, 58
1, 128931, Note_off_c, 0, 56, 60
1, 129005, Note_on_c, 0, 56, 66
1, 129008, Note_on_c, 0, 68, 69
1, 129070, Note_off_c, 0, 56, 62
1, 129071, Note_off_c, 0, 68, 57
1, 129165, Note_on_c, 0, 68, 67
1, 129170, Note_off_c, 0, 102, 63
1, 129173, Note_on_c, 0, 56, 59
1, 129214, Note_off_c, 0, 99, 58
1, 129217, Note_off_c, 0, 96, 60
1, 129241, Note_off_c, 0, 68, 60
1, 129245, Note_off_c, 0, 90, 63
1, 129253, Note_off_c, 0, 56, 58
1, 129942, Note_on_c, 0, 40, 61
1, 129944, Note_on_c, 0, 61, 61
1, 129946, Note_on_c, 0, 52, 65
1, 129979, Note_on_c, 0, 68, 51
1, 129980, Note_on_c, 0, 56, 48
1, 129996, Control_c, 0, 64, 110
1, 130011, Control_c, 0, 64, 84
1, 130026, Control_c, 0, 64, 67
1, 130040, Control_c, 0, 64, 27
1, 130055, Control_c, 0, 64, 0
1, 130070, Control_c, 0, 64, 33
1, 130084, Control_c, 0, 64, 59
1, 130088, Note_off_c, 0, 56, 59
1, 130090, Note_off_c, 0, 68, 58
1, 130099, Control_c, 0, 64, 67
1, 130114, Control_c, 0, 64, 74
1, 130129, Control_c, 0, 64, 82
1, 130144, Control_c, 0, 64, 95
1, 130159, Control_c, 0, 64, 110
1, 130174, Control_c, 0, 64, 127
1, 130220, Note_on_c, 0, 56, 40
1, 130222, Note_on_c, 0, 68, 47
1, 130253, Note_off_c, 0, 56, 57
1, 130266, Note_off_c, 0, 68, 58
1, 130278, Note_off_c, 0, 52, 62
1, 130357, Note_on_c, 0, 56, 47
1, 130357, Note_on_c, 0, 68, 57
1, 130383, Note_off_c, 0, 56, 60
1, 130389, Note_off_c, 0, 68, 61
1, 130528, Note_on_c, 0, 51, 65
1, 130533, Note_on_c, 0, 56, 42
1, 130543, Note_on_c, 0, 68, 56
1, 130546, Note_on_c, 0, 39, 55
1, 130588, Control_c, 0, 64, 118
1, 130602, Control_c, 0, 64, 89
1, 130606, Note_off_c, 0, 40, 62
1, 130617, Control_c, 0, 64, 70
1, 130633, Control_c, 0, 64, 56
1, 130648, Control_c, 0, 64, 42
1, 130655, Note_off_c, 0, 51, 64
1, 130663, Control_c, 0, 64, 47
1, 130677, Control_c, 0, 64, 60
1, 130692, Control_c, 0, 64, 67
1, 130714, Control_c, 0, 64, 74
1, 130729, Control_c, 0, 64, 83
1, 130744, Control_c, 0, 64, 97
1, 130759, Control_c, 0, 64, 127
1, 130813, Note_on_c, 0, 49, 73
1, 130814, Note_on_c, 0, 37, 64
1, 130847, Note_off_c, 0, 56, 61
1, 130872, Note_off_c, 0, 61, 62
1, 130877, Note_off_c, 0, 68, 56
1, 130879, Note_off_c, 0, 39, 56
1, 130900, Note_off_c, 0, 37, 63
1, 130904, Note_off_c, 0, 49, 62
1, 131055, Note_on_c, 0, 60, 71
1, 131070, Control_c, 0, 64, 113
1, 131072, Note_on_c, 0, 68, 68
1, 131085, Control_c, 0, 64, 82
1, 131091, Note_on_c, 0, 39, 55
1, 131092, Note_on_c, 0, 51, 54
1, 131099, Control_c, 0, 64, 67
1, 131114, Control_c, 0, 64, 64
1, 131129, Control_c, 0, 64, 70
1, 131144, Control_c, 0, 64, 80
1, 131145, Note_off_c, 0, 68, 59
1, 131159, Control_c, 0, 64, 98
1, 131173, Control_c, 0, 64, 127
1, 131178, Note_on_c, 0, 56, 60
1, 131181, Note_off_c, 0, 60, 63
1, 131246, Note_on_c, 0, 68, 39
1, 131292, Control_c, 0, 64, 93
1, 131294, Note_on_c, 0, 58, 88
1, 131300, Note_off_c, 0, 56, 64
1, 131306, Control_c, 0, 64, 77
1, 131321, Control_c, 0, 64, 71
1, 131336, Control_c, 0, 64, 74
1, 131348, Note_off_c, 0, 68, 50
1, 131351, Control_c, 0, 64, 84
1, 131366, Control_c, 0, 64, 119
1, 131381, Control_c, 0, 64, 127
1, 131384, Note_off_c, 0, 51, 64
1, 131388, Note_off_c, 0, 39, 60
1, 131405, Note_on_c, 0, 56, 69
1, 131418, Note_off_c, 0, 58, 63
1, 131482, Note_off_c, 0, 56, 51
1, 131620, Note_on_c, 0, 42, 69
1, 131624, Note_on_c, 0, 63, 75
1, 131627, Note_on_c, 0, 54, 73
1, 131633, Note_on_c, 0, 56, 67
1, 131640, Note_on_c, 0, 68, 70
1, 131685, Control_c, 0, 64, 110
1, 131700, Control_c, 0, 64, 83
1, 131715, Control_c, 0, 64, 64
1, 131730, Control_c, 0, 64, 0
1, 131834, Control_c, 0, 64, 60
1, 131849, Control_c, 0, 64, 70
1, 131863, Control_c, 0, 64, 78
1, 131878, Control_c, 0, 64, 90
1, 131893, Control_c, 0, 64, 110
1, 131908, Control_c, 0, 64, 127
1, 131951, Note_off_c, 0, 68, 53
1, 131952, Note_off_c, 0, 56, 60
1, 131976, Note_off_c, 0, 54, 64
1, 132213, Note_on_c, 0, 52, 62
1, 132220, Note_on_c, 0, 56, 54
1, 132224, Note_on_c, 0, 40, 54
1, 132226, Note_on_c, 0, 68, 52
1, 132226, Control_c, 0, 64, 115
1, 132242, Control_c, 0, 64, 90
1, 132257, Control_c, 0, 64, 77
1, 132272, Control_c, 0, 64, 70
1, 132273, Note_off_c, 0, 42, 57
1, 132274, Note_off_c, 0, 56, 56
1, 132286, Control_c, 0, 64, 71
1, 132291, Note_off_c, 0, 68, 59
1, 132301, Control_c, 0, 64, 77
1, 132305, Note_off_c, 0, 52, 62
1, 132316, Control_c, 0, 64, 88
1, 132331, Control_c, 0, 64, 118
1, 132346, Control_c, 0, 64, 127
1, 132385, Note_on_c, 0, 56, 52
1, 132390, Note_on_c, 0, 68, 55
1, 132415, Note_off_c, 0, 56, 61
1, 132455, Note_on_c, 0, 39, 64
1, 132460, Note_on_c, 0, 51, 65
1, 132483, Note_off_c, 0, 40, 56
1, 132496, Note_off_c, 0, 68, 0
1, 132518, Note_on_c, 0, 68, 33
1, 132526, Note_on_c, 0, 56, 52
1, 132533, Note_off_c, 0, 51, 62
1, 132559, Note_off_c, 0, 39, 54
1, 132577, Note_off_c, 0, 56, 59
1, 132581, Note_off_c, 0, 68, 55
1, 132597, Note_off_c, 0, 63, 58
1, 132703, Note_on_c, 0, 61, 73
1, 132705, Note_on_c, 0, 68, 69
1, 132714, Note_on_c, 0, 56, 56
1, 132716, Control_c, 0, 64, 103
1, 132717, Note_on_c, 0, 40, 58
1, 132725, Note_on_c, 0, 52, 53
1, 132731, Control_c, 0, 64, 79
1, 132746, Control_c, 0, 64, 61
1, 132761, Control_c, 0, 64, 0
1, 132805, Control_c, 0, 64, 54
1, 132820, Control_c, 0, 64, 66
1, 132835, Control_c, 0, 64, 74
1, 132850, Control_c, 0, 64, 83
1, 132862, Note_off_c, 0, 61, 61
1, 132865, Control_c, 0, 64, 98
1, 132879, Control_c, 0, 64, 127
1, 132952, Note_off_c, 0, 40, 61
1, 132955, Note_off_c, 0, 52, 61
1, 132964, Note_on_c, 0, 60, 82
1, 133035, Note_off_c, 0, 56, 60
1, 133098, Note_off_c, 0, 60, 61
1, 133126, Note_off_c, 0, 68, 60
1, 133214, Control_c, 0, 64, 114
1, 133217, Note_on_c, 0, 56, 69
1, 133223, Note_on_c, 0, 64, 77
1, 133223, Note_on_c, 0, 44, 59
1, 133228, Control_c, 0, 64, 85
1, 133241, Note_on_c, 0, 68, 65
1, 133243, Control_c, 0, 64, 70
1, 133258, Control_c, 0, 64, 66
1, 133262, Note_off_c, 0, 56, 64
1, 133273, Control_c, 0, 64, 72
1, 133288, Control_c, 0, 64, 81
1, 133302, Control_c, 0, 64, 100
1, 133317, Control_c, 0, 64, 127
1, 133354, Note_on_c, 0, 56, 72
1, 133423, Note_off_c, 0, 56, 60
1, 133459, Note_on_c, 0, 42, 76
1, 133460, Note_on_c, 0, 54, 70
1, 133461, Note_on_c, 0, 63, 88
1, 133465, Control_c, 0, 64, 100
1, 133480, Control_c, 0, 64, 74
1, 133491, Note_off_c, 0, 64, 62
1, 133492, Note_off_c, 0, 44, 63
1, 133495, Control_c, 0, 64, 43
1, 133509, Control_c, 0, 64, 0
1, 133524, Control_c, 0, 64, 35
1, 133539, Control_c, 0, 64, 64
1, 133554, Control_c, 0, 64, 77
1, 133557, Note_off_c, 0, 42, 64
1, 133560, Note_off_c, 0, 54, 64
1, 133569, Control_c, 0, 64, 94
1, 133573, Note_on_c, 0, 56, 59
1, 133584, Control_c, 0, 64, 127
1, 133643, Note_off_c, 0, 56, 61
1, 133675, Note_off_c, 0, 63, 57
1, 133679, Note_off_c, 0, 68, 45
1, 133800, Note_on_c, 0, 66, 78
1, 133813, Note_on_c, 0, 68, 72
1, 133817, Note_on_c, 0, 56, 62
1, 133829, Control_c, 0, 64, 92
1, 133835, Note_on_c, 0, 57, 54
1, 133837, Note_on_c, 0, 45, 56
1, 133844, Control_c, 0, 64, 71
1, 133858, Control_c, 0, 64, 32
1, 133873, Control_c, 0, 64, 0
1, 133992, Control_c, 0, 64, 33
1, 134007, Control_c, 0, 64, 64
1, 134022, Control_c, 0, 64, 72
1, 134036, Control_c, 0, 64, 83
1, 134050, Control_c, 0, 64, 99
1, 134065, Control_c, 0, 64, 127
1, 134108, Note_off_c, 0, 57, 61
1, 134147, Note_off_c, 0, 45, 64
1, 134226, Note_off_c, 0, 56, 56
1, 134252, Note_off_c, 0, 68, 56
1, 134255, Note_off_c, 0, 66, 58
1, 134349, Note_on_c, 0, 56, 66
1, 134351, Note_on_c, 0, 64, 68
1, 134362, Control_c, 0, 64, 98
1, 134372, Note_on_c, 0, 68, 54
1, 134374, Note_on_c, 0, 44, 47
1, 134377, Control_c, 0, 64, 78
1, 134392, Control_c, 0, 64, 65
1, 134406, Control_c, 0, 64, 63
1, 134407, Note_off_c, 0, 68, 49
1, 134421, Control_c, 0, 64, 68
1, 134430, Note_off_c, 0, 56, 60
1, 134436, Control_c, 0, 64, 76
1, 134457, Control_c, 0, 64, 90
1, 134472, Control_c, 0, 64, 127
1, 134514, Note_on_c, 0, 56, 34
1, 134525, Note_off_c, 0, 64, 61
1, 134532, Note_on_c, 0, 68, 56
1, 134579, Note_off_c, 0, 56, 55
1, 134606, Control_c, 0, 64, 109
1, 134615, Note_on_c, 0, 42, 63
1, 134618, Note_on_c, 0, 63, 73
1, 134620, Note_on_c, 0, 54, 59
1, 134621, Control_c, 0, 64, 84
1, 134636, Control_c, 0, 64, 70
1, 134642, Note_off_c, 0, 44, 45
1, 134651, Control_c, 0, 64, 65
1, 134666, Control_c, 0, 64, 68
1, 134667, Note_off_c, 0, 54, 59
1, 134681, Control_c, 0, 64, 75
1, 134696, Control_c, 0, 64, 87
1, 134696, Note_off_c, 0, 68, 33
1, 134703, Note_off_c, 0, 42, 62
1, 134711, Control_c, 0, 64, 127
1, 134739, Note_on_c, 0, 56, 44
1, 134767, Note_off_c, 0, 63, 58
1, 134782, Note_off_c, 0, 56, 59
1, 134873, Note_on_c, 0, 56, 52
1, 134873, Note_on_c, 0, 68, 56
1, 134873, Control_c, 0, 64, 89
1, 134880, Note_on_c, 0, 61, 63
1, 134884, Note_on_c, 0, 52, 37
1, 134886, Note_on_c, 0, 40, 34
1, 134888, Control_c, 0, 64, 67
1, 134903, Control_c, 0, 64, 36
1, 134918, Control_c, 0, 64, 42
1, 134933, Control_c, 0, 64, 63
1, 134947, Control_c, 0, 64, 71
1, 134948, Note_off_c, 0, 52, 60
1, 134962, Control_c, 0, 64, 83
1, 134977, Control_c, 0, 64, 107
1, 134991, Control_c, 0, 64, 127
1, 135003, Note_off_c, 0, 61, 61
1, 135125, Control_c, 0, 64, 108
1, 135140, Control_c, 0, 64, 79
1, 135144, Note_on_c, 0, 51, 52
1, 135146, Note_on_c, 0, 60, 59
1, 135154, Note_on_c, 0, 39, 39
1, 135155, Control_c, 0, 64, 60
1, 135170, Control_c, 0, 64, 0
1, 135185, Control_c, 0, 64, 33
1, 135206, Control_c, 0, 64, 63
1, 135221, Note_off_c, 0, 40, 49
1, 135221, Control_c, 0, 64, 72
1, 135229, Note_off_c, 0, 51, 63
1, 135236, Control_c, 0, 64, 83
1, 135251, Control_c, 0, 64, 103
1, 135254, Note_off_c, 0, 56, 55
1, 135266, Control_c, 0, 64, 127
1, 135274, Note_off_c, 0, 68, 56
1, 135290, Note_off_c, 0, 60, 63
1, 135310, Note_off_c, 0, 39, 36
1, 135445, Control_c, 0, 64, 111
1, 135459, Note_on_c, 0, 58, 62
1, 135459, Control_c, 0, 64, 77
1, 135469, Note_on_c, 0, 37, 43
1, 135474, Note_on_c, 0, 68, 53
1, 135474, Control_c, 0, 64, 52
1, 135480, Note_on_c, 0, 56, 42
1, 135489, Control_c, 0, 64, 0
1, 135493, Note_on_c, 0, 49, 30
1, 135518, Note_off_c, 0, 56, 60
1, 135518, Control_c, 0, 64, 37
1, 135524, Note_off_c, 0, 68, 57
1, 135533, Control_c, 0, 64, 64
1, 135533, Control_c, 0, 67, 8
1, 135548, Control_c, 0, 64, 72
1, 135548, Control_c, 0, 67, 9
1, 135563, Control_c, 0, 64, 82
1, 135563, Control_c, 0, 67, 10
1, 135578, Control_c, 0, 64, 94
1, 135578, Control_c, 0, 67, 10
1, 135593, Control_c, 0, 64, 108
1, 135593, Control_c, 0, 67, 11
1, 135608, Control_c, 0, 64, 127
1, 135608, Control_c, 0, 67, 13
1, 135622, Control_c, 0, 67, 16
1, 135635, Note_on_c, 0, 56, 46
1, 135637, Control_c, 0, 67, 21
1, 135649, Note_on_c, 0, 68, 44
1, 135652, Control_c, 0, 67, 27
1, 135667, Control_c, 0, 67, 32
1, 135676, Note_off_c, 0, 56, 58
1, 135680, Note_off_c, 0, 68, 56
1, 135682, Control_c, 0, 67, 37
1, 135696, Control_c, 0, 67, 43
1, 135711, Control_c, 0, 67, 49
1, 135726, Control_c, 0, 67, 55
1, 135741, Control_c, 0, 67, 62
1, 135756, Control_c, 0, 67, 68
1, 135770, Control_c, 0, 67, 73
1, 135784, Note_on_c, 0, 68, 45
1, 135785, Control_c, 0, 67, 78
1, 135793, Note_on_c, 0, 56, 39
1, 135800, Control_c, 0, 67, 84
1, 135814, Control_c, 0, 67, 89
1, 135822, Note_off_c, 0, 56, 56
1, 135829, Control_c, 0, 67, 94
1, 135836, Note_off_c, 0, 68, 55
1, 135844, Control_c, 0, 67, 100
1, 135859, Control_c, 0, 67, 105
1, 135874, Control_c, 0, 67, 109
1, 135888, Control_c, 0, 67, 112
1, 135900, Note_off_c, 0, 49, 50
1, 135903, Control_c, 0, 67, 114
1, 135918, Control_c, 0, 67, 115
1, 135933, Control_c, 0, 67, 116
1, 135973, Note_on_c, 0, 68, 53
1, 135982, Note_on_c, 0, 56, 15
1, 136042, Note_off_c, 0, 58, 54
1, 136089, Control_c, 0, 67, 115
1, 136118, Control_c, 0, 67, 115
1, 136238, Control_c, 0, 67, 115
1, 136252, Control_c, 0, 64, 106
1, 136252, Control_c, 0, 67, 116
1, 136259, Note_on_c, 0, 32, 39
1, 136260, Note_on_c, 0, 60, 50
1, 136261, Note_on_c, 0, 44, 44
1, 136267, Control_c, 0, 64, 84
1, 136267, Control_c, 0, 67, 117
1, 136283, Control_c, 0, 64, 69
1, 136283, Control_c, 0, 67, 117
1, 136284, Note_off_c, 0, 37, 47
1, 136298, Control_c, 0, 64, 57
1, 136298, Control_c, 0, 67, 119
1, 136313, Control_c, 0, 64, 58
1, 136313, Control_c, 0, 67, 121
1, 136327, Control_c, 0, 64, 64
1, 136327, Control_c, 0, 67, 125
1, 136342, Control_c, 0, 64, 70
1, 136342, Control_c, 0, 67, 127
1, 136357, Control_c, 0, 64, 77
1, 136372, Control_c, 0, 64, 88
1, 136387, Control_c, 0, 64, 101
1, 136398, Note_off_c, 0, 68, 52
1, 136401, Control_c, 0, 64, 121
1, 136409, Note_off_c, 0, 56, 44
1, 136416, Note_off_c, 0, 60, 60
1, 136416, Control_c, 0, 64, 127
1, 136429, Note_off_c, 0, 44, 49
1, 136442, Note_off_c, 0, 32, 44
1, 136594, Control_c, 0, 64, 99
1, 136602, Note_on_c, 0, 60, 44
1, 136609, Control_c, 0, 64, 78
1, 136611, Note_on_c, 0, 56, 45
1, 136615, Note_on_c, 0, 68, 43
1, 136618, Note_on_c, 0, 32, 33
1, 136624, Control_c, 0, 64, 64
1, 136631, Note_on_c, 0, 44, 21
1, 136639, Control_c, 0, 64, 49
1, 136653, Control_c, 0, 64, 57
1, 136658, Note_off_c, 0, 56, 60
1, 136664, Note_off_c, 0, 68, 59
1, 136668, Control_c, 0, 64, 64
1, 136683, Control_c, 0, 64, 70
1, 136705, Control_c, 0, 64, 78
1, 136720, Control_c, 0, 64, 86
1, 136735, Control_c, 0, 64, 96
1, 136750, Control_c, 0, 64, 106
1, 136764, Control_c, 0, 64, 117
1, 136779, Control_c, 0, 64, 127
1, 136800, Note_on_c, 0, 68, 38
1, 136806, Note_on_c, 0, 56, 31
1, 136836, Note_off_c, 0, 68, 50
1, 136843, Note_off_c, 0, 56, 54
1, 136942, Note_on_c, 0, 68, 38
1, 136948, Note_on_c, 0, 56, 29
1, 136978, Note_off_c, 0, 68, 50
1, 136985, Note_off_c, 0, 56, 54
1, 137112, Note_on_c, 0, 68, 38
1, 137113, Note_on_c, 0, 56, 28
1, 137240, Note_off_c, 0, 32, 41
1, 137277, Note_off_c, 0, 56, 46
1, 137312, Note_off_c, 0, 60, 49
1, 137325, Note_off_c, 0, 44, 42
1, 137408, Note_off_c, 0, 68, 58
1, 137765, Control_c, 0, 64, 100
1, 137780, Control_c, 0, 64, 83
1, 137794, Control_c, 0, 64, 71
1, 137804, Note_on_c, 0, 63, 36
1, 137809, Control_c, 0, 64, 65
1, 137811, Note_on_c, 0, 75, 42
1, 137840, Control_c, 0, 64, 68
1, 137855, Control_c, 0, 64, 72
1, 137870, Control_c, 0, 64, 78
1, 137874, Note_off_c, 0, 63, 57
1, 137885, Control_c, 0, 64, 86
1, 137895, Note_off_c, 0, 75, 55
1, 137899, Control_c, 0, 64, 94
1, 137914, Control_c, 0, 64, 103
1, 137929, Control_c, 0, 64, 119
1, 137944, Control_c, 0, 64, 127
1, 137965, Note_on_c, 0, 75, 50
1, 137981, Note_on_c, 0, 63, 45
1, 138019, Note_off_c, 0, 63, 59
1, 138035, Note_off_c, 0, 75, 59
1, 138119, Note_on_c, 0, 63, 55
1, 138124, Note_on_c, 0, 75, 61
1, 138204, Note_off_c, 0, 63, 51
1, 138222, Note_off_c, 0, 75, 55
1, 138345, Note_on_c, 0, 75, 61
1, 138353, Note_on_c, 0, 63, 43
1, 138356, Note_on_c, 0, 68, 55
1, 138359, Note_on_c, 0, 59, 68
1, 138368, Note_on_c, 0, 47, 61
1, 138499, Control_c, 0, 67, 126
1, 138514, Control_c, 0, 67, 122
1, 138528, Control_c, 0, 67, 117
1, 138542, Control_c, 0, 67, 111
1, 138557, Control_c, 0, 67, 106
1, 138572, Control_c, 0, 67, 101
1, 138587, Control_c, 0, 67, 96
1, 138602, Control_c, 0, 67, 92
1, 138618, Control_c, 0, 67, 88
1, 138633, Control_c, 0, 67, 83
1, 138645, Note_off_c, 0, 75, 49
1, 138647, Control_c, 0, 67, 80
1, 138662, Control_c, 0, 67, 78
1, 138666, Note_off_c, 0, 63, 55
1, 138677, Control_c, 0, 67, 77
1, 138692, Control_c, 0, 67, 77
1, 138702, Note_off_c, 0, 59, 62
1, 138736, Control_c, 0, 67, 77
1, 138751, Control_c, 0, 67, 78
1, 138766, Control_c, 0, 67, 79
1, 138781, Control_c, 0, 67, 80
1, 138795, Control_c, 0, 67, 80
1, 138810, Control_c, 0, 67, 81
1, 138825, Control_c, 0, 67, 81
1, 138839, Control_c, 0, 67, 82
1, 138869, Control_c, 0, 67, 82
1, 138884, Control_c, 0, 67, 83
1, 138932, Note_on_c, 0, 75, 58
1, 138946, Note_on_c, 0, 58, 67
1, 138947, Note_on_c, 0, 46, 56
1, 138947, Note_on_c, 0, 63, 47
1, 138984, Note_off_c, 0, 47, 64
1, 138987, Note_off_c, 0, 63, 61
1, 139007, Note_off_c, 0, 75, 60
1, 139025, Control_c, 0, 67, 82
1, 139031, Note_off_c, 0, 58, 62
1, 139040, Control_c, 0, 67, 81
1, 139054, Control_c, 0, 67, 80
1, 139069, Control_c, 0, 67, 79
1, 139084, Note_on_c, 0, 63, 58
1, 139084, Control_c, 0, 67, 78
1, 139099, Control_c, 0, 67, 77
1, 139102, Note_on_c, 0, 75, 64
1, 139114, Control_c, 0, 67, 76
1, 139117, Note_off_c, 0, 63, 60
1, 139128, Control_c, 0, 67, 76
1, 139143, Control_c, 0, 67, 75
1, 139158, Control_c, 0, 67, 72
1, 139164, Note_off_c, 0, 75, 59
1, 139173, Control_c, 0, 67, 69
1, 139176, Note_on_c, 0, 44, 73
1, 139179, Note_on_c, 0, 56, 68
1, 139188, Control_c, 0, 67, 67
1, 139203, Control_c, 0, 67, 66
1, 139208, Note_off_c, 0, 46, 61
1, 139218, Control_c, 0, 67, 65
1, 139233, Control_c, 0, 67, 65
1, 139243, Note_off_c, 0, 56, 63
1, 139245, Note_off_c, 0, 44, 63
1, 139255, Note_on_c, 0, 63, 51
1, 139256, Note_on_c, 0, 75, 58
1, 139298, Note_off_c, 0, 63, 61
1, 139320, Note_off_c, 0, 68, 59
1, 139333, Note_off_c, 0, 75, 59
1, 139411, Control_c, 0, 67, 64
1, 139426, Control_c, 0, 67, 64
1, 139438, Note_on_c, 0, 67, 64
1, 139441, Note_on_c, 0, 75, 71
1, 139441, Control_c, 0, 64, 95
1, 139441, Control_c, 0, 67, 62
1, 139444, Note_on_c, 0, 46, 60
1, 139453, Note_on_c, 0, 58, 56
1, 139454, Note_on_c, 0, 63, 54
1, 139456, Control_c, 0, 64, 72
1, 139456, Control_c, 0, 67, 58
1, 139471, Control_c, 0, 64, 58
1, 139471, Control_c, 0, 67, 53
1, 139486, Control_c, 0, 64, 45
1, 139486, Control_c, 0, 67, 46
1, 139501, Control_c, 0, 64, 53
1, 139501, Control_c, 0, 67, 38
1, 139516, Control_c, 0, 64, 64
1, 139516, Control_c, 0, 67, 28
1, 139531, Control_c, 0, 64, 70
1, 139531, Control_c, 0, 67, 16
1, 139545, Control_c, 0, 64, 80
1, 139545, Control_c, 0, 67, 0
1, 139560, Control_c, 0, 64, 94
1, 139575, Control_c, 0, 64, 127
1, 139593, Note_off_c, 0, 67, 61
1, 139626, Note_off_c, 0, 75, 62
1, 139726, Note_on_c, 0, 65, 82
1, 139752, Note_off_c, 0, 63, 60
1, 139783, Note_off_c, 0, 58, 62
1, 139784, Note_off_c, 0, 46, 61
1, 139784, Note_off_c, 0, 65, 63
1, 140041, Control_c, 0, 64, 101
1, 140049, Note_on_c, 0, 75, 69
1, 140049, Note_on_c, 0, 49, 72
1, 140052, Note_on_c, 0, 70, 66
1, 140052, Note_on_c, 0, 61, 75
1, 140055, Note_on_c, 0, 63, 59
1, 140056, Control_c, 0, 64, 80
1, 140070, Control_c, 0, 64, 67
1, 140085, Control_c, 0, 64, 56
1, 140100, Control_c, 0, 64, 56
1, 140115, Control_c, 0, 64, 63
1, 140123, Note_off_c, 0, 63, 53
1, 140130, Control_c, 0, 64, 68
1, 140136, Note_off_c, 0, 75, 60
1, 140145, Control_c, 0, 64, 75
1, 140160, Control_c, 0, 64, 86
1, 140175, Control_c, 0, 64, 104
1, 140189, Control_c, 0, 64, 127
1, 140234, Note_on_c, 0, 63, 58
1, 140240, Note_on_c, 0, 75, 56
1, 140281, Note_off_c, 0, 63, 56
1, 140288, Note_off_c, 0, 75, 58
1, 140382, Note_off_c, 0, 61, 63
1, 140386, Note_on_c, 0, 63, 55
1, 140387, Note_on_c, 0, 75, 60
1, 140428, Note_off_c, 0, 63, 60
1, 140448, Note_off_c, 0, 75, 58
1, 140586, Note_on_c, 0, 75, 55
1, 140598, Note_on_c, 0, 47, 64
1, 140601, Note_on_c, 0, 59, 67
1, 140604, Note_on_c, 0, 63, 51
1, 140642, Control_c, 0, 64, 94
1, 140657, Control_c, 0, 64, 77
1, 140660, Note_off_c, 0, 49, 56
1, 140672, Control_c, 0, 64, 65
1, 140687, Control_c, 0, 64, 57
1, 140701, Control_c, 0, 64, 58
1, 140716, Control_c, 0, 64, 63
1, 140731, Control_c, 0, 64, 66
1, 140745, Control_c, 0, 64, 72
1, 140757, Note_off_c, 0, 59, 63
1, 140760, Control_c, 0, 64, 80
1, 140774, Control_c, 0, 64, 92
1, 140789, Control_c, 0, 64, 121
1, 140804, Control_c, 0, 64, 127
1, 140857, Note_on_c, 0, 46, 77
1, 140860, Note_on_c, 0, 58, 83
1, 140884, Note_off_c, 0, 63, 59
1, 140887, Note_off_c, 0, 47, 55
1, 140900, Note_off_c, 0, 70, 61
1, 140902, Note_off_c, 0, 75, 59
1, 140979, Note_off_c, 0, 58, 57
1, 141008, Note_off_c, 0, 46, 60
1, 141101, Control_c, 0, 64, 88
1, 141115, Control_c, 0, 64, 70
1, 141119, Note_on_c, 0, 68, 66
1, 141121, Note_on_c, 0, 47, 71
1, 141122, Note_on_c, 0, 59, 65
1, 141123, Note_on_c, 0, 75, 65
1, 141130, Control_c, 0, 64, 63
1, 141137, Note_on_c, 0, 63, 37
1, 141145, Control_c, 0, 64, 67
1, 141160, Control_c, 0, 64, 76
1, 141170, Note_off_c, 0, 63, 52
1, 141175, Control_c, 0, 64, 90
1, 141197, Control_c, 0, 64, 127
1, 141214, Note_off_c, 0, 75, 59
1, 141258, Note_on_c, 0, 63, 57
1, 141266, Note_off_c, 0, 68, 62
1, 141283, Note_on_c, 0, 75, 58
1, 141345, Control_c, 0, 64, 94
1, 141360, Note_off_c, 0, 47, 65
1, 141360, Control_c, 0, 64, 79
1, 141362, Note_off_c, 0, 59, 61
1, 141367, Note_on_c, 0, 67, 83
1, 141373, Note_off_c, 0, 63, 60
1, 141373, Note_off_c, 0, 75, 63
1, 141374, Control_c, 0, 64, 77
1, 141389, Control_c, 0, 64, 83
1, 141404, Control_c, 0, 64, 101
1, 141419, Control_c, 0, 64, 127
1, 141456, Note_on_c, 0, 75, 69
1, 141467, Note_off_c, 0, 67, 60
1, 141480, Note_on_c, 0, 63, 67
1, 141510, Note_off_c, 0, 63, 63
1, 141523, Note_off_c, 0, 75, 61
1, 141615, Note_on_c, 0, 63, 74
1, 141617, Note_on_c, 0, 71, 78
1, 141622, Note_on_c, 0, 51, 71
1, 141625, Note_on_c, 0, 75, 72
1, 141626, Control_c, 0, 64, 104
1, 141641, Control_c, 0, 64, 69
1, 141656, Control_c, 0, 64, 0
1, 141745, Control_c, 0, 64, 59
1, 141749, Note_off_c, 0, 63, 63
1, 141759, Control_c, 0, 64, 70
1, 141774, Control_c, 0, 64, 81
1, 141789, Control_c, 0, 64, 100
1, 141804, Control_c, 0, 64, 127
1, 141893, Note_on_c, 0, 70, 85
1, 141896, Note_on_c, 0, 61, 88
1, 141898, Note_on_c, 0, 49, 84
1, 141915, Note_off_c, 0, 71, 62
1, 141927, Note_off_c, 0, 75, 56
1, 141946, Note_off_c, 0, 51, 61
1, 142008, Note_off_c, 0, 49, 64
1, 142017, Note_off_c, 0, 61, 61
1, 142057, Note_off_c, 0, 70, 60
1, 142284, Note_on_c, 0, 75, 70
1, 142295, Note_on_c, 0, 66, 79
1, 142302, Control_c, 0, 64, 119
1, 142303, Note_on_c, 0, 54, 72
1, 142317, Control_c, 0, 64, 89
1, 142332, Control_c, 0, 64, 73
1, 142346, Control_c, 0, 64, 61
1, 142361, Control_c, 0, 64, 51
1, 142376, Control_c, 0, 64, 55
1, 142378, Note_off_c, 0, 75, 60
1, 142390, Control_c, 0, 64, 64
1, 142405, Control_c, 0, 64, 71
1, 142420, Control_c, 0, 64, 79
1, 142435, Control_c, 0, 64, 93
1, 142450, Control_c, 0, 64, 117
1, 142464, Control_c, 0, 64, 127
1, 142479, Note_on_c, 0, 75, 66
1, 142535, Note_off_c, 0, 75, 59
1, 142610, Note_off_c, 0, 66, 63
1, 142620, Note_on_c, 0, 75, 67
1, 142631, Note_off_c, 0, 54, 65
1, 142634, Note_on_c, 0, 63, 47
1, 142667, Note_off_c, 0, 63, 59
1, 142693, Note_off_c, 0, 75, 58
1, 142798, Note_on_c, 0, 63, 47
1, 142804, Note_on_c, 0, 73, 68
1, 142806, Note_on_c, 0, 75, 62
1, 142807, Note_on_c, 0, 52, 60
1, 142813, Note_on_c, 0, 64, 52
1, 142813, Control_c, 0, 64, 107
1, 142828, Control_c, 0, 64, 84
1, 142843, Control_c, 0, 64, 69
1, 142858, Control_c, 0, 64, 60
1, 142866, Note_off_c, 0, 63, 59
1, 142873, Control_c, 0, 64, 59
1, 142880, Note_off_c, 0, 64, 64
1, 142887, Control_c, 0, 64, 63
1, 142902, Control_c, 0, 64, 67
1, 142917, Control_c, 0, 64, 73
1, 142932, Control_c, 0, 64, 79
1, 142947, Control_c, 0, 64, 88
1, 142962, Control_c, 0, 64, 99
1, 142977, Control_c, 0, 64, 127
1, 143067, Note_on_c, 0, 71, 67
1, 143072, Note_on_c, 0, 63, 59
1, 143081, Note_on_c, 0, 51, 55
1, 143090, Note_off_c, 0, 52, 60
1, 143107, Note_off_c, 0, 63, 61
1, 143139, Note_off_c, 0, 51, 61
1, 143186, Note_off_c, 0, 75, 53
1, 143188, Note_off_c, 0, 71, 61
1, 143195, Note_off_c, 0, 73, 37
1, 143258, Control_c, 0, 64, 117
1, 143273, Control_c, 0, 64, 90
1, 143287, Control_c, 0, 64, 77
1, 143302, Control_c, 0, 64, 73
1, 143308, Note_on_c, 0, 75, 51
1, 143310, Note_on_c, 0, 70, 59
1, 143313, Note_on_c, 0, 49, 58
1, 143313, Note_on_c, 0, 61, 57
1, 143317, Control_c, 0, 64, 76
1, 143322, Note_on_c, 0, 63, 44
1, 143331, Control_c, 0, 64, 85
1, 143346, Control_c, 0, 64, 106
1, 143359, Note_off_c, 0, 63, 54
1, 143361, Control_c, 0, 64, 127
1, 143385, Note_off_c, 0, 75, 59
1, 143386, Note_off_c, 0, 61, 57
1, 143397, Note_off_c, 0, 49, 60
1, 143443, Note_off_c, 0, 70, 61
1, 143472, Note_on_c, 0, 63, 51
1, 143501, Note_on_c, 0, 75, 45
1, 143517, Note_off_c, 0, 63, 53
1, 143533, Control_c, 0, 64, 98
1, 143548, Control_c, 0, 64, 69
1, 143562, Control_c, 0, 64, 0
1, 143579, Note_on_c, 0, 59, 59
1, 143579, Note_on_c, 0, 68, 66
1, 143591, Note_off_c, 0, 75, 51
1, 143592, Note_on_c, 0, 47, 42
1, 143607, Control_c, 0, 64, 50
1, 143622, Control_c, 0, 64, 68
1, 143635, Note_off_c, 0, 59, 56
1, 143636, Control_c, 0, 64, 83
1, 143651, Control_c, 0, 64, 108
1, 143666, Control_c, 0, 64, 127
1, 143680, Note_off_c, 0, 47, 38
1, 143688, Note_off_c, 0, 68, 57
1, 143692, Note_on_c, 0, 75, 55
1, 143698, Note_on_c, 0, 63, 37
1, 143735, Note_off_c, 0, 63, 52
1, 143743, Note_off_c, 0, 75, 56
1, 143879, Note_on_c, 0, 63, 38
1, 143880, Note_on_c, 0, 67, 56
1, 143889, Control_c, 0, 64, 88
1, 143892, Note_on_c, 0, 58, 45
1, 143892, Note_on_c, 0, 75, 38
1, 143898, Note_on_c, 0, 46, 38
1, 143904, Control_c, 0, 64, 65
1, 143904, Control_c, 0, 67, 9
1, 143918, Control_c, 0, 64, 0
1, 143918, Control_c, 0, 67, 12
1, 143933, Control_c, 0, 67, 15
1, 143948, Control_c, 0, 67, 17
1, 143962, Control_c, 0, 67, 20
1, 143977, Control_c, 0, 67, 24
1, 143992, Control_c, 0, 67, 28
1, 144007, Control_c, 0, 64, 59
1, 144007, Control_c, 0, 67, 32
1, 144022, Control_c, 0, 64, 69
1, 144022, Control_c, 0, 67, 36
1, 144036, Control_c, 0, 64, 79
1, 144036, Control_c, 0, 67, 39
1, 144045, Note_off_c, 0, 58, 61
1, 144051, Control_c, 0, 64, 93
1, 144051, Control_c, 0, 67, 42
1, 144066, Control_c, 0, 64, 127
1, 144066, Control_c, 0, 67, 45
1, 144081, Control_c, 0, 67, 48
1, 144096, Control_c, 0, 67, 50
1, 144110, Control_c, 0, 67, 51
1, 144125, Control_c, 0, 67, 53
1, 144140, Control_c, 0, 67, 55
1, 144154, Control_c, 0, 67, 58
1, 144169, Control_c, 0, 67, 60
1, 144175, Note_off_c, 0, 46, 45
1, 144192, Control_c, 0, 67, 63
1, 144208, Control_c, 0, 67, 66
1, 144223, Control_c, 0, 67, 69
1, 144238, Control_c, 0, 67, 72
1, 144252, Control_c, 0, 67, 76
1, 144267, Control_c, 0, 67, 79
1, 144282, Control_c, 0, 67, 83
1, 144297, Control_c, 0, 67, 86
1, 144312, Control_c, 0, 67, 90
1, 144327, Control_c, 0, 67, 94
1, 144341, Control_c, 0, 67, 97
1, 144356, Control_c, 0, 67, 100
1, 144371, Control_c, 0, 67, 104
1, 144385, Control_c, 0, 67, 107
1, 144400, Control_c, 0, 67, 111
1, 144415, Control_c, 0, 67, 115
1, 144430, Control_c, 0, 67, 119
1, 144445, Control_c, 0, 67, 122
1, 144459, Control_c, 0, 67, 125
1, 144474, Control_c, 0, 67, 127
1, 144516, Note_on_c, 0, 73, 49
1, 144532, Note_on_c, 0, 39, 34
1, 144533, Control_c, 0, 64, 121
1, 144541, Note_on_c, 0, 51, 36
1, 144548, Control_c, 0, 64, 89
1, 144562, Control_c, 0, 64, 69
1, 144577, Control_c, 0, 64, 0
1, 144666, Control_c, 0, 64, 58
1, 144681, Control_c, 0, 64, 70
1, 144696, Control_c, 0, 64, 78
1, 144711, Control_c, 0, 64, 91
1, 144726, Note_off_c, 0, 51, 52
1, 144726, Control_c, 0, 64, 111
1, 144740, Control_c, 0, 64, 127
1, 144800, Note_off_c, 0, 67, 58
1, 144810, Note_off_c, 0, 63, 41
1, 144835, Note_off_c, 0, 75, 49
1, 144836, Note_off_c, 0, 39, 41
1, 144837, Note_off_c, 0, 73, 60
1, 145089, Control_c, 0, 64, 116
1, 145096, Note_on_c, 0, 72, 47
1, 145103, Note_on_c, 0, 63, 37
1, 145104, Control_c, 0, 64, 86
1, 145110, Note_on_c, 0, 75, 43
1, 145119, Control_c, 0, 64, 69
1, 145122, Note_on_c, 0, 32, 36
1, 145129, Note_on_c, 0, 44, 36
1, 145134, Control_c, 0, 64, 40
1, 145136, Note_on_c, 0, 68, 29
1, 145149, Control_c, 0, 64, 0
1, 145163, Control_c, 0, 64, 37
1, 145178, Control_c, 0, 64, 60
1, 145193, Control_c, 0, 64, 67
1, 145199, Note_off_c, 0, 68, 43
1, 145207, Control_c, 0, 64, 73
1, 145222, Control_c, 0, 64, 81
1, 145237, Control_c, 0, 64, 91
1, 145252, Control_c, 0, 64, 103
1, 145268, Control_c, 0, 64, 119
1, 145282, Control_c, 0, 64, 127
1, 145401, Note_on_c, 0, 68, 40
1, 145632, Note_off_c, 0, 68, 62
1, 145906, Note_on_c, 0, 68, 48
1, 146133, Note_off_c, 0, 68, 61
1, 146412, Note_on_c, 0, 68, 44
1, 146432, Note_off_c, 0, 63, 53
1, 146661, Note_on_c, 0, 67, 45
1, 146712, Note_off_c, 0, 67, 59
1, 146724, Note_off_c, 0, 68, 61
1, 146932, Note_on_c, 0, 67, 41
1, 146940, Note_on_c, 0, 68, 41
1, 147142, Note_off_c, 0, 67, 59
1, 147153, Note_off_c, 0, 68, 61
1, 147439, Note_on_c, 0, 68, 36
1, 147454, Note_on_c, 0, 67, 34
1, 147679, Note_off_c, 0, 67, 48
1, 147695, Note_off_c, 0, 68, 59
1, 147949, Note_on_c, 0, 68, 38
1, 147951, Note_on_c, 0, 67, 32
1, 147984, Note_off_c, 0, 67, 54
1, 148202, Note_on_c, 0, 66, 37
1, 148204, Control_c, 0, 64, 97
1, 148219, Control_c, 0, 64, 82
1, 148233, Control_c, 0, 64, 71
1, 148248, Control_c, 0, 64, 64
1, 148263, Control_c, 0, 64, 63
1, 148278, Control_c, 0, 64, 64
1, 148293, Control_c, 0, 64, 67
1, 148307, Control_c, 0, 64, 70
1, 148322, Control_c, 0, 64, 74
1, 148327, Note_off_c, 0, 68, 59
1, 148336, Note_off_c, 0, 66, 55
1, 148337, Control_c, 0, 64, 79
1, 148351, Control_c, 0, 64, 83
1, 148366, Control_c, 0, 64, 88
1, 148381, Control_c, 0, 64, 92
1, 148396, Control_c, 0, 64, 97
1, 148411, Control_c, 0, 64, 101
1, 148426, Control_c, 0, 64, 106
1, 148441, Control_c, 0, 64, 112
1, 148456, Control_c, 0, 64, 121
1, 148470, Control_c, 0, 64, 127
1, 148479, Note_on_c, 0, 68, 37
1, 148485, Note_on_c, 0, 66, 27
1, 148491, Note_off_c, 0, 32, 41
1, 148506, Note_off_c, 0, 44, 42
1, 148559, Control_c, 0, 64, 108
1, 148574, Control_c, 0, 64, 89
1, 148589, Control_c, 0, 64, 76
1, 148604, Control_c, 0, 64, 67
1, 148619, Control_c, 0, 64, 63
1, 148633, Control_c, 0, 64, 65
1, 148648, Control_c, 0, 64, 70
1, 148663, Control_c, 0, 64, 79
1, 148685, Control_c, 0, 64, 92
1, 148700, Control_c, 0, 64, 107
1, 148715, Control_c, 0, 64, 127
1, 148819, Note_off_c, 0, 68, 47
1, 148828, Note_off_c, 0, 66, 46
1, 149060, Note_on_c, 0, 66, 33
1, 149067, Note_on_c, 0, 68, 31
1, 149481, Note_on_c, 0, 44, 45
1, 149496, Note_off_c, 0, 66, 42
1, 149496, Note_off_c, 0, 68, 41
1, 149850, Note_on_c, 0, 48, 51
1, 149857, Note_on_c, 0, 68, 40
1, 149868, Note_on_c, 0, 66, 37
1, 149919, Note_off_c, 0, 48, 60
1, 149948, Note_off_c, 0, 72, 57
1, 149970, Note_off_c, 0, 75, 37
1, 149984, Note_off_c, 0, 68, 55
1, 149998, Note_off_c, 0, 66, 35
1, 150013, Note_off_c, 0, 44, 33
1, 150029, Note_on_c, 0, 37, 48
1, 150071, Note_off_c, 0, 37, 56
1, 150281, Note_on_c, 0, 54, 56
1, 150479, Control_c, 0, 64, 123
1, 150494, Control_c, 0, 64, 114
1, 150509, Control_c, 0, 64, 110
1, 150523, Control_c, 0, 64, 106
1, 150538, Control_c, 0, 64, 102
1, 150553, Control_c, 0, 64, 99
1, 150568, Control_c, 0, 64, 97
1, 150583, Note_on_c, 0, 63, 37
1, 150583, Control_c, 0, 64, 94
1, 150586, Note_on_c, 0, 68, 39
1, 150599, Control_c, 0, 64, 91
1, 150614, Control_c, 0, 64, 88
1, 150628, Control_c, 0, 64, 84
1, 150643, Control_c, 0, 64, 81
1, 150658, Control_c, 0, 64, 77
1, 150673, Control_c, 0, 64, 73
1, 150688, Control_c, 0, 64, 70
1, 150702, Control_c, 0, 64, 68
1, 150717, Control_c, 0, 64, 67
1, 150746, Control_c, 0, 64, 68
1, 150776, Control_c, 0, 64, 68
1, 150791, Control_c, 0, 64, 69
1, 150799, Note_on_c, 0, 53, 63
1, 150806, Control_c, 0, 64, 70
1, 150835, Control_c, 0, 64, 70
1, 150868, Note_off_c, 0, 68, 51
1, 150894, Control_c, 0, 64, 70
1, 150948, Note_off_c, 0, 63, 36
1, 150976, Control_c, 0, 64, 69
1, 151003, Note_off_c, 0, 54, 38
1, 151021, Control_c, 0, 64, 69
1, 151039, Note_on_c, 0, 51, 57
1, 151040, Note_on_c, 0, 68, 33
1, 151050, Control_c, 0, 64, 68
1, 151055, Note_on_c, 0, 66, 43
1, 151080, Control_c, 0, 64, 68
1, 151109, Control_c, 0, 64, 67
1, 151124, Control_c, 0, 64, 67
1, 151137, Note_off_c, 0, 53, 61
1, 151139, Control_c, 0, 64, 66
1, 151153, Control_c, 0, 64, 65
1, 151168, Control_c, 0, 64, 63
1, 151183, Control_c, 0, 64, 61
1, 151198, Control_c, 0, 64, 55
1, 151213, Control_c, 0, 64, 42
1, 151228, Control_c, 0, 64, 0
1, 151328, Note_on_c, 0, 53, 54
1, 151349, Note_off_c, 0, 66, 37
1, 151356, Note_off_c, 0, 68, 30
1, 151410, Note_off_c, 0, 51, 58
1, 151525, Control_c, 0, 64, 14
1, 151540, Control_c, 0, 64, 53
1, 151555, Control_c, 0, 64, 61
1, 151569, Control_c, 0, 64, 64
1, 151584, Control_c, 0, 64, 66
1, 151599, Control_c, 0, 64, 69
1, 151614, Control_c, 0, 64, 73
1, 151629, Control_c, 0, 64, 76
1, 151643, Control_c, 0, 64, 79
1, 151651, Note_off_c, 0, 53, 61
1, 151658, Control_c, 0, 64, 83
1, 151681, Control_c, 0, 64, 87
1, 151696, Control_c, 0, 64, 91
1, 151711, Control_c, 0, 64, 95
1, 151719, Note_on_c, 0, 68, 30
1, 151725, Control_c, 0, 64, 102
1, 151729, Note_on_c, 0, 65, 33
1, 151740, Control_c, 0, 64, 110
1, 151755, Control_c, 0, 64, 127
1, 152021, Note_on_c, 0, 37, 32
1, 152030, Note_off_c, 0, 65, 38
1, 152059, Note_off_c, 0, 68, 41
1, 152295, Note_on_c, 0, 68, 30
1, 152310, Note_on_c, 0, 65, 27
1, 152505, Note_off_c, 0, 65, 41
1, 152523, Note_off_c, 0, 68, 42
1, 152524, Note_on_c, 0, 49, 55
1, 152623, Control_c, 0, 67, 125
1, 152638, Control_c, 0, 67, 122
1, 152653, Control_c, 0, 67, 119
1, 152667, Control_c, 0, 67, 116
1, 152682, Control_c, 0, 67, 113
1, 152697, Control_c, 0, 67, 110
1, 152712, Control_c, 0, 67, 108
1, 152726, Control_c, 0, 67, 106
1, 152741, Control_c, 0, 67, 105
1, 152745, Note_off_c, 0, 37, 41
1, 152755, Control_c, 0, 67, 105
1, 152784, Note_on_c, 0, 68, 22
1, 152805, Note_on_c, 0, 65, 25
1, 152837, Note_off_c, 0, 49, 59
1, 152888, Control_c, 0, 67, 105
1, 152903, Control_c, 0, 67, 106
1, 152933, Control_c, 0, 67, 106
1, 152978, Control_c, 0, 67, 107
1, 152993, Control_c, 0, 67, 107
1, 153008, Control_c, 0, 67, 108
1, 153022, Control_c, 0, 67, 108
1, 153037, Control_c, 0, 67, 109
1, 153058, Note_off_c, 0, 65, 39
1, 153067, Note_off_c, 0, 68, 36
1, 153067, Control_c, 0, 67, 109
1, 153082, Control_c, 0, 67, 110
1, 153103, Note_on_c, 0, 47, 51
1, 153112, Control_c, 0, 67, 110
1, 153115, Note_on_c, 0, 38, 37
1, 153156, Control_c, 0, 67, 111
1, 153193, Control_c, 0, 64, 118
1, 153208, Control_c, 0, 64, 104
1, 153208, Control_c, 0, 67, 111
1, 153222, Control_c, 0, 64, 95
1, 153237, Control_c, 0, 64, 87
1, 153252, Control_c, 0, 64, 80
1, 153267, Control_c, 0, 64, 73
1, 153282, Control_c, 0, 64, 66
1, 153297, Control_c, 0, 64, 59
1, 153311, Control_c, 0, 64, 48
1, 153326, Control_c, 0, 64, 32
1, 153341, Control_c, 0, 64, 0
1, 153341, Control_c, 0, 67, 112
1, 153356, Control_c, 0, 67, 112
1, 153416, Control_c, 0, 67, 113
1, 153422, Note_on_c, 0, 68, 31
1, 153434, Note_on_c, 0, 65, 32
1, 153445, Control_c, 0, 64, 43
1, 153445, Control_c, 0, 67, 113
1, 153460, Control_c, 0, 64, 60
1, 153475, Control_c, 0, 64, 65
1, 153475, Control_c, 0, 67, 114
1, 153490, Control_c, 0, 64, 67
1, 153503, Control_c, 0, 64, 71
1, 153503, Control_c, 0, 67, 114
1, 153518, Control_c, 0, 64, 76
1, 153533, Control_c, 0, 64, 82
1, 153533, Control_c, 0, 67, 115
1, 153547, Control_c, 0, 64, 88
1, 153547, Control_c, 0, 67, 115
1, 153562, Control_c, 0, 64, 94
1, 153577, Control_c, 0, 64, 101
1, 153577, Control_c, 0, 67, 116
1, 153592, Control_c, 0, 64, 107
1, 153592, Control_c, 0, 67, 117
1, 153607, Control_c, 0, 64, 115
1, 153607, Control_c, 0, 67, 117
1, 153621, Control_c, 0, 64, 127
1, 153621, Control_c, 0, 67, 118
1, 153636, Control_c, 0, 67, 118
1, 153643, Note_on_c, 0, 39, 38
1, 153651, Control_c, 0, 67, 119
1, 153666, Control_c, 0, 67, 121
1, 153681, Control_c, 0, 67, 123
1, 153695, Note_off_c, 0, 68, 37
1, 153696, Control_c, 0, 67, 125
1, 153711, Control_c, 0, 67, 126
1, 153726, Control_c, 0, 67, 127
1, 153750, Note_off_c, 0, 65, 42
1, 153806, Note_off_c, 0, 38, 39
1, 153905, Control_c, 0, 64, 110
1, 153924, Note_on_c, 0, 65, 25
1, 153926, Control_c, 0, 64, 99
1, 153941, Control_c, 0, 64, 90
1, 153947, Note_on_c, 0, 66, 39
1, 153956, Control_c, 0, 64, 81
1, 153970, Control_c, 0, 64, 73
1, 153985, Control_c, 0, 64, 64
1, 154000, Control_c, 0, 64, 45
1, 154015, Control_c, 0, 64, 21
1, 154030, Control_c, 0, 64, 0
1, 154119, Control_c, 0, 64, 33
1, 154134, Control_c, 0, 64, 55
1, 154149, Control_c, 0, 64, 63
1, 154164, Control_c, 0, 64, 66
1, 154178, Control_c, 0, 64, 69
1, 154193, Control_c, 0, 64, 72
1, 154208, Control_c, 0, 64, 75
1, 154223, Control_c, 0, 64, 79
1, 154238, Control_c, 0, 64, 83
1, 154252, Control_c, 0, 64, 87
1, 154267, Control_c, 0, 64, 92
1, 154282, Control_c, 0, 64, 98
1, 154296, Control_c, 0, 64, 104
1, 154311, Control_c, 0, 64, 111
1, 154322, Note_off_c, 0, 47, 46
1, 154326, Control_c, 0, 64, 127
1, 154369, Note_off_c, 0, 39, 39
1, 154371, Note_off_c, 0, 66, 34
1, 154373, Note_off_c, 0, 65, 40
1, 154516, Note_on_c, 0, 65, 35
1, 154519, Note_on_c, 0, 66, 34
1, 154571, Note_off_c, 0, 65, 45
1, 154682, Note_off_c, 0, 66, 45
1, 154796, Note_on_c, 0, 46, 58
1, 154942, Control_c, 0, 64, 113
1, 154957, Control_c, 0, 64, 100
1, 154972, Control_c, 0, 64, 88
1, 154987, Control_c, 0, 64, 77
1, 155001, Control_c, 0, 64, 65
1, 155016, Control_c, 0, 64, 28
1, 155031, Control_c, 0, 64, 0
1, 155119, Control_c, 0, 64, 36
1, 155134, Control_c, 0, 64, 58
1, 155140, Note_on_c, 0, 51, 66
1, 155149, Control_c, 0, 64, 63
1, 155153, Note_on_c, 0, 66, 48
1, 155160, Note_on_c, 0, 63, 44
1, 155164, Control_c, 0, 64, 65
1, 155179, Control_c, 0, 64, 68
1, 155193, Control_c, 0, 64, 71
1, 155208, Control_c, 0, 64, 75
1, 155223, Control_c, 0, 64, 80
1, 155238, Control_c, 0, 64, 85
1, 155246, Note_off_c, 0, 46, 36
1, 155253, Control_c, 0, 64, 90
1, 155267, Note_off_c, 0, 63, 37
1, 155267, Control_c, 0, 64, 94
1, 155274, Note_off_c, 0, 51, 60
1, 155282, Control_c, 0, 64, 98
1, 155292, Note_off_c, 0, 66, 37
1, 155297, Control_c, 0, 64, 103
1, 155306, Note_on_c, 0, 39, 55
1, 155312, Control_c, 0, 64, 107
1, 155326, Control_c, 0, 64, 112
1, 155326, Control_c, 0, 67, 126
1, 155341, Control_c, 0, 64, 116
1, 155341, Control_c, 0, 67, 123
1, 155344, Note_off_c, 0, 39, 61
1, 155356, Control_c, 0, 64, 118
1, 155356, Control_c, 0, 67, 119
1, 155371, Control_c, 0, 64, 119
1, 155371, Control_c, 0, 67, 115
1, 155387, Control_c, 0, 64, 120
1, 155387, Control_c, 0, 67, 110
1, 155402, Control_c, 0, 64, 121
1, 155402, Control_c, 0, 67, 107
1, 155424, Control_c, 0, 64, 122
1, 155424, Control_c, 0, 67, 103
1, 155439, Control_c, 0, 64, 123
1, 155439, Control_c, 0, 67, 99
1, 155454, Control_c, 0, 67, 95
1, 155469, Note_on_c, 0, 56, 75
1, 155469, Control_c, 0, 67, 92
1, 155484, Control_c, 0, 67, 87
1, 155498, Control_c, 0, 67, 82
1, 155513, Control_c, 0, 67, 78
1, 155528, Control_c, 0, 67, 73
1, 155542, Control_c, 0, 67, 69
1, 155557, Control_c, 0, 67, 66
1, 155572, Control_c, 0, 67, 62
1, 155587, Control_c, 0, 64, 122
1, 155587, Control_c, 0, 67, 59
1, 155602, Control_c, 0, 67, 56
1, 155616, Control_c, 0, 64, 120
1, 155616, Control_c, 0, 67, 54
1, 155631, Control_c, 0, 64, 118
1, 155631, Control_c, 0, 67, 53
1, 155646, Control_c, 0, 64, 116
1, 155646, Control_c, 0, 67, 52
1, 155661, Control_c, 0, 64, 114
1, 155661, Control_c, 0, 67, 51
1, 155676, Control_c, 0, 64, 112
1, 155690, Control_c, 0, 64, 111
1, 155705, Control_c, 0, 64, 109
1, 155716, Note_on_c, 0, 70, 53
1, 155720, Control_c, 0, 64, 108
1, 155724, Note_on_c, 0, 65, 45
1, 155735, Control_c, 0, 64, 107
1, 155750, Control_c, 0, 64, 105
1, 155765, Control_c, 0, 64, 103
1, 155780, Control_c, 0, 64, 102
1, 155795, Control_c, 0, 64, 100
1, 155809, Control_c, 0, 64, 98
1, 155824, Control_c, 0, 64, 96
1, 155839, Control_c, 0, 64, 94
1, 155854, Control_c, 0, 64, 92
1, 155865, Note_off_c, 0, 65, 55
1, 155869, Control_c, 0, 64, 90
1, 155869, Control_c, 0, 67, 52
1, 155884, Control_c, 0, 64, 88
1, 155898, Control_c, 0, 64, 86
1, 155898, Control_c, 0, 67, 52
1, 155913, Control_c, 0, 64, 84
1, 155925, Note_on_c, 0, 54, 76
1, 155928, Control_c, 0, 64, 82
1, 155928, Control_c, 0, 67, 53
1, 155942, Control_c, 0, 64, 80
1, 155953, Note_off_c, 0, 70, 56
1, 155957, Control_c, 0, 64, 78
1, 155957, Control_c, 0, 67, 53
1, 155972, Control_c, 0, 64, 76
1, 155987, Control_c, 0, 64, 74
1, 155987, Control_c, 0, 67, 54
1, 156002, Control_c, 0, 64, 72
1, 156002, Control_c, 0, 67, 54
1, 156016, Control_c, 0, 64, 70
1, 156031, Control_c, 0, 64, 68
1, 156031, Control_c, 0, 67, 55
1, 156046, Control_c, 0, 64, 67
1, 156046, Control_c, 0, 67, 55
1, 156060, Control_c, 0, 64, 67
1, 156060, Control_c, 0, 67, 56
1, 156075, Control_c, 0, 67, 56
1, 156090, Control_c, 0, 64, 66
1, 156090, Control_c, 0, 67, 57
1, 156105, Control_c, 0, 64, 65
1, 156105, Control_c, 0, 67, 57
1, 156120, Control_c, 0, 64, 65
1, 156120, Control_c, 0, 67, 58
1, 156134, Control_c, 0, 64, 64
1, 156134, Control_c, 0, 67, 58
1, 156149, Control_c, 0, 64, 63
1, 156149, Control_c, 0, 67, 59
1, 156167, Note_on_c, 0, 70, 58
1, 156170, Note_on_c, 0, 68, 56
1, 156172, Control_c, 0, 64, 62
1, 156172, Control_c, 0, 67, 59
1, 156179, Note_on_c, 0, 53, 71
1, 156188, Control_c, 0, 64, 61
1, 156188, Control_c, 0, 67, 60
1, 156194, Note_off_c, 0, 56, 41
1, 156203, Control_c, 0, 64, 59
1, 156203, Control_c, 0, 67, 61
1, 156218, Control_c, 0, 64, 58
1, 156218, Control_c, 0, 67, 61
1, 156233, Control_c, 0, 64, 56
1, 156233, Control_c, 0, 67, 62
1, 156247, Control_c, 0, 64, 53
1, 156247, Control_c, 0, 67, 63
1, 156262, Control_c, 0, 64, 50
1, 156262, Control_c, 0, 67, 64
1, 156264, Note_off_c, 0, 54, 62
1, 156277, Control_c, 0, 64, 42
1, 156277, Control_c, 0, 67, 65
1, 156292, Control_c, 0, 64, 28
1, 156292, Control_c, 0, 67, 68
1, 156307, Control_c, 0, 64, 0
1, 156307, Control_c, 0, 67, 71
1, 156321, Control_c, 0, 67, 74
1, 156336, Control_c, 0, 67, 78
1, 156351, Control_c, 0, 67, 84
1, 156365, Control_c, 0, 67, 90
1, 156380, Control_c, 0, 67, 95
1, 156395, Control_c, 0, 67, 101
1, 156410, Control_c, 0, 67, 106
1, 156418, Note_on_c, 0, 54, 70
1, 156423, Note_off_c, 0, 68, 49
1, 156425, Control_c, 0, 67, 110
1, 156439, Control_c, 0, 67, 115
1, 156454, Control_c, 0, 67, 121
1, 156469, Note_off_c, 0, 70, 31
1, 156469, Control_c, 0, 67, 127
1, 156482, Note_off_c, 0, 53, 64
1, 156617, Control_c, 0, 64, 42
1, 156632, Control_c, 0, 64, 59
1, 156647, Control_c, 0, 64, 65
1, 156662, Control_c, 0, 64, 70
1, 156677, Control_c, 0, 64, 75
1, 156684, Note_on_c, 0, 70, 40
1, 156689, Note_on_c, 0, 66, 39
1, 156691, Control_c, 0, 64, 81
1, 156706, Control_c, 0, 64, 88
1, 156721, Control_c, 0, 64, 95
1, 156731, Note_off_c, 0, 54, 57
1, 156736, Control_c, 0, 64, 100
1, 156751, Control_c, 0, 64, 109
1, 156765, Control_c, 0, 64, 127
1, 156933, Note_on_c, 0, 39, 33
1, 156981, Note_off_c, 0, 66, 36
1, 156984, Note_off_c, 0, 70, 36
1, 157178, Note_on_c, 0, 66, 34
1, 157181, Note_on_c, 0, 70, 31
1, 157292, Control_c, 0, 67, 125
1, 157306, Control_c, 0, 67, 121
1, 157321, Control_c, 0, 67, 117
1, 157336, Control_c, 0, 67, 112
1, 157349, Note_off_c, 0, 66, 41
1, 157351, Control_c, 0, 67, 107
1, 157366, Control_c, 0, 67, 102
1, 157374, Note_off_c, 0, 70, 40
1, 157380, Control_c, 0, 67, 97
1, 157395, Control_c, 0, 67, 89
1, 157404, Note_on_c, 0, 51, 66
1, 157410, Control_c, 0, 67, 82
1, 157425, Control_c, 0, 67, 75
1, 157440, Control_c, 0, 67, 70
1, 157455, Control_c, 0, 67, 65
1, 157470, Control_c, 0, 67, 60
1, 157485, Control_c, 0, 67, 56
1, 157500, Control_c, 0, 67, 52
1, 157514, Control_c, 0, 67, 49
1, 157529, Control_c, 0, 67, 46
1, 157544, Control_c, 0, 67, 43
1, 157559, Control_c, 0, 67, 40
1, 157574, Control_c, 0, 67, 38
1, 157588, Control_c, 0, 67, 36
1, 157603, Control_c, 0, 67, 34
1, 157605, Note_off_c, 0, 39, 42
1, 157618, Control_c, 0, 67, 34
1, 157669, Note_on_c, 0, 66, 41
1, 157669, Note_on_c, 0, 70, 36
1, 157713, Note_off_c, 0, 51, 62
1, 157767, Note_off_c, 0, 70, 56
1, 157789, Note_off_c, 0, 66, 55
1, 157848, Control_c, 0, 67, 34
1, 157893, Control_c, 0, 67, 35
1, 157923, Control_c, 0, 67, 35
1, 157982, Control_c, 0, 67, 36
1, 158018, Note_on_c, 0, 49, 62
1, 158027, Control_c, 0, 67, 36
1, 158036, Note_on_c, 0, 40, 49
1, 158086, Control_c, 0, 64, 105
1, 158086, Control_c, 0, 67, 37
1, 158101, Control_c, 0, 64, 94
1, 158116, Control_c, 0, 64, 86
1, 158131, Control_c, 0, 64, 79
1, 158145, Control_c, 0, 64, 72
1, 158145, Control_c, 0, 67, 37
1, 158160, Control_c, 0, 64, 64
1, 158175, Control_c, 0, 64, 52
1, 158190, Control_c, 0, 64, 35
1, 158205, Control_c, 0, 64, 0
1, 158219, Control_c, 0, 67, 38
1, 158278, Control_c, 0, 67, 38
1, 158308, Control_c, 0, 67, 39
1, 158337, Control_c, 0, 67, 40
1, 158353, Note_on_c, 0, 70, 41
1, 158363, Note_on_c, 0, 67, 35
1, 158367, Control_c, 0, 67, 40
1, 158382, Control_c, 0, 67, 41
1, 158397, Control_c, 0, 64, 50
1, 158397, Control_c, 0, 67, 41
1, 158419, Control_c, 0, 64, 65
1, 158419, Control_c, 0, 67, 42
1, 158434, Control_c, 0, 64, 70
1, 158434, Control_c, 0, 67, 42
1, 158449, Control_c, 0, 64, 76
1, 158449, Control_c, 0, 67, 43
1, 158463, Control_c, 0, 64, 86
1, 158463, Control_c, 0, 67, 43
1, 158478, Control_c, 0, 64, 97
1, 158478, Control_c, 0, 67, 44
1, 158493, Control_c, 0, 64, 113
1, 158493, Control_c, 0, 67, 45
1, 158508, Control_c, 0, 64, 127
1, 158508, Control_c, 0, 67, 45
1, 158523, Control_c, 0, 67, 46
1, 158537, Control_c, 0, 67, 48
1, 158552, Control_c, 0, 67, 51
1, 158567, Control_c, 0, 67, 55
1, 158582, Control_c, 0, 67, 60
1, 158595, Note_on_c, 0, 41, 37
1, 158598, Control_c, 0, 67, 65
1, 158613, Control_c, 0, 67, 70
1, 158628, Control_c, 0, 67, 74
1, 158630, Note_off_c, 0, 70, 53
1, 158642, Control_c, 0, 67, 79
1, 158657, Control_c, 0, 67, 84
1, 158672, Control_c, 0, 67, 88
1, 158680, Note_off_c, 0, 67, 40
1, 158687, Control_c, 0, 67, 94
1, 158702, Control_c, 0, 67, 99
1, 158716, Control_c, 0, 67, 105
1, 158719, Note_off_c, 0, 40, 34
1, 158731, Control_c, 0, 67, 110
1, 158746, Control_c, 0, 67, 115
1, 158760, Control_c, 0, 67, 119
1, 158775, Control_c, 0, 67, 123
1, 158790, Control_c, 0, 67, 127
1, 158844, Note_on_c, 0, 68, 47
1, 158850, Control_c, 0, 64, 115
1, 158852, Note_on_c, 0, 67, 43
1, 158865, Control_c, 0, 64, 97
1, 158880, Control_c, 0, 64, 84
1, 158894, Control_c, 0, 64, 72
1, 158909, Control_c, 0, 64, 59
1, 158924, Control_c, 0, 64, 0
1, 159028, Control_c, 0, 64, 62
1, 159042, Control_c, 0, 64, 69
1, 159057, Control_c, 0, 64, 76
1, 159072, Control_c, 0, 64, 86
1, 159086, Control_c, 0, 64, 100
1, 159101, Control_c, 0, 64, 127
1, 159185, Note_off_c, 0, 68, 54
1, 159208, Note_off_c, 0, 67, 37
1, 159211, Note_off_c, 0, 41, 40
1, 159217, Note_off_c, 0, 49, 61
1, 159272, Control_c, 0, 67, 126
1, 159286, Control_c, 0, 67, 119
1, 159301, Control_c, 0, 67, 113
1, 159316, Control_c, 0, 67, 104
1, 159317, Note_on_c, 0, 67, 59
1, 159331, Control_c, 0, 67, 96
1, 159346, Control_c, 0, 67, 87
1, 159348, Note_on_c, 0, 69, 52
1, 159360, Control_c, 0, 67, 78
1, 159375, Control_c, 0, 67, 70
1, 159391, Control_c, 0, 67, 59
1, 159406, Control_c, 0, 67, 50
1, 159414, Note_off_c, 0, 69, 46
1, 159421, Note_off_c, 0, 67, 44
1, 159421, Control_c, 0, 67, 42
1, 159436, Control_c, 0, 67, 37
1, 159451, Control_c, 0, 67, 33
1, 159465, Control_c, 0, 67, 31
1, 159480, Control_c, 0, 67, 30
1, 159494, Control_c, 0, 67, 28
1, 159509, Control_c, 0, 67, 27
1, 159519, Note_on_c, 0, 48, 76
1, 159524, Control_c, 0, 67, 26
1, 159539, Control_c, 0, 67, 25
1, 159687, Control_c, 0, 64, 110
1, 159702, Control_c, 0, 64, 80
1, 159716, Control_c, 0, 64, 62
1, 159731, Control_c, 0, 64, 0
1, 159761, Control_c, 0, 67, 24
1, 159776, Control_c, 0, 64, 30
1, 159776, Control_c, 0, 67, 23
1, 159790, Control_c, 0, 64, 63
1, 159790, Control_c, 0, 67, 22
1, 159805, Control_c, 0, 64, 70
1, 159805, Control_c, 0, 67, 18
1, 159820, Control_c, 0, 64, 80
1, 159820, Control_c, 0, 67, 11
1, 159829, Note_on_c, 0, 68, 60
1, 159831, Note_on_c, 0, 53, 78
1, 159835, Note_on_c, 0, 65, 55
1, 159835, Control_c, 0, 64, 96
1, 159835, Control_c, 0, 67, 0
1, 159850, Control_c, 0, 64, 127
1, 159937, Note_off_c, 0, 53, 65
1, 159998, Note_off_c, 0, 48, 57
1, 160021, Note_on_c, 0, 41, 66
1, 160063, Note_off_c, 0, 41, 63
1, 160102, Note_off_c, 0, 68, 48
1, 160149, Note_on_c, 0, 58, 85
1, 160173, Note_off_c, 0, 65, 30
1, 160397, Note_on_c, 0, 72, 68
1, 160403, Note_on_c, 0, 65, 61
1, 160584, Control_c, 0, 64, 103
1, 160599, Control_c, 0, 64, 80
1, 160608, Note_on_c, 0, 56, 80
1, 160613, Control_c, 0, 64, 64
1, 160628, Control_c, 0, 64, 53
1, 160643, Control_c, 0, 64, 62
1, 160665, Control_c, 0, 64, 68
1, 160674, Note_off_c, 0, 65, 57
1, 160680, Control_c, 0, 64, 77
1, 160695, Control_c, 0, 64, 92
1, 160695, Note_off_c, 0, 72, 57
1, 160710, Control_c, 0, 64, 127
1, 160740, Note_off_c, 0, 58, 53
1, 160822, Note_on_c, 0, 55, 83
1, 160827, Note_on_c, 0, 72, 67
1, 160838, Note_on_c, 0, 65, 73
1, 160850, Note_off_c, 0, 56, 65
1, 160877, Note_off_c, 0, 55, 65
1, 161095, Note_on_c, 0, 56, 79
1, 161154, Control_c, 0, 64, 92
1, 161157, Note_off_c, 0, 65, 53
1, 161169, Control_c, 0, 64, 71
1, 161184, Control_c, 0, 64, 38
1, 161199, Control_c, 0, 64, 0
1, 161218, Note_off_c, 0, 72, 54
1, 161229, Control_c, 0, 64, 56
1, 161244, Control_c, 0, 64, 68
1, 161258, Control_c, 0, 64, 79
1, 161273, Note_on_c, 0, 60, 78
1, 161273, Control_c, 0, 64, 98
1, 161288, Control_c, 0, 64, 127
1, 161342, Note_on_c, 0, 72, 78
1, 161346, Note_on_c, 0, 68, 81
1, 161452, Note_on_c, 0, 63, 88
1, 161454, Note_off_c, 0, 68, 62
1, 161469, Note_off_c, 0, 56, 61
1, 161482, Note_off_c, 0, 72, 58
1, 161500, Note_off_c, 0, 60, 55
1, 161540, Note_off_c, 0, 63, 61
1, 161712, Note_on_c, 0, 66, 79
1, 161713, Note_on_c, 0, 53, 74
1, 161860, Control_c, 0, 64, 103
1, 161875, Control_c, 0, 64, 89
1, 161890, Control_c, 0, 64, 77
1, 161904, Control_c, 0, 64, 68
1, 161919, Control_c, 0, 64, 54
1, 161934, Control_c, 0, 64, 0
1, 161992, Note_on_c, 0, 69, 55
1, 161995, Note_on_c, 0, 72, 57
1, 162097, Control_c, 0, 64, 51
1, 162111, Control_c, 0, 64, 64
1, 162126, Control_c, 0, 64, 69
1, 162141, Control_c, 0, 64, 74
1, 162164, Control_c, 0, 64, 80
1, 162179, Control_c, 0, 64, 90
1, 162193, Control_c, 0, 64, 104
1, 162208, Control_c, 0, 64, 127
1, 162299, Note_off_c, 0, 69, 52
1, 162333, Note_off_c, 0, 72, 57
1, 162531, Note_on_c, 0, 75, 63
1, 162537, Note_on_c, 0, 72, 49
1, 162546, Note_on_c, 0, 69, 45
1, 162681, Note_off_c, 0, 66, 56
1, 162715, Note_off_c, 0, 69, 58
1, 162761, Note_off_c, 0, 72, 62
1, 162782, Note_off_c, 0, 75, 62
1, 162952, Note_off_c, 0, 53, 41
1, 163083, Note_on_c, 0, 78, 67
1, 163089, Note_on_c, 0, 72, 45
1, 163110, Note_on_c, 0, 69, 37
1, 163125, Note_on_c, 0, 66, 23
1, 163335, Note_on_c, 0, 41, 41
1, 163348, Note_off_c, 0, 66, 42
1, 163418, Note_off_c, 0, 78, 51
1, 163432, Note_off_c, 0, 69, 38
1, 163437, Note_off_c, 0, 72, 34
1, 163527, Note_off_c, 0, 41, 39
1, 163587, Note_on_c, 0, 78, 56
1, 163593, Note_on_c, 0, 69, 41
1, 163595, Note_on_c, 0, 72, 44
1, 163606, Note_on_c, 0, 66, 36
1, 163837, Note_off_c, 0, 66, 40
1, 163894, Note_on_c, 0, 65, 59
1, 163933, Note_off_c, 0, 72, 21
1, 163971, Note_off_c, 0, 78, 33
1, 163976, Note_off_c, 0, 69, 23
1, 164135, Note_on_c, 0, 78, 34
1, 164156, Note_on_c, 0, 69, 33
1, 164167, Note_on_c, 0, 66, 5
1, 164176, Note_on_c, 0, 72, 27
1, 164350, Note_off_c, 0, 66, 38
1, 164406, Note_off_c, 0, 78, 39
1, 164413, Note_on_c, 0, 63, 49
1, 164421, Note_off_c, 0, 72, 36
1, 164459, Note_off_c, 0, 69, 28
1, 164599, Note_off_c, 0, 65, 55
1, 164676, Control_c, 0, 67, 8
1, 164680, Note_on_c, 0, 69, 32
1, 164690, Note_on_c, 0, 72, 32
1, 164691, Control_c, 0, 67, 11
1, 164692, Note_on_c, 0, 78, 39
1, 164705, Control_c, 0, 67, 13
1, 164718, Poly_aftertouch_c, 0, 66, 127
1, 164720, Control_c, 0, 67, 16
1, 164736, Control_c, 0, 67, 20
1, 164751, Control_c, 0, 67, 24
1, 164766, Control_c, 0, 67, 29
1, 164780, Control_c, 0, 67, 34
1, 164795, Control_c, 0, 67, 39
1, 164810, Control_c, 0, 67, 44
1, 164825, Control_c, 0, 67, 49
1, 164839, Control_c, 0, 67, 54
1, 164844, Poly_aftertouch_c, 0, 66, 0
1, 164854, Control_c, 0, 67, 60
1, 164869, Control_c, 0, 67, 67
1, 164871, Note_off_c, 0, 69, 52
1, 164884, Control_c, 0, 67, 73
1, 164894, Note_off_c, 0, 72, 35
1, 164899, Control_c, 0, 67, 79
1, 164913, Control_c, 0, 67, 85
1, 164928, Control_c, 0, 67, 91
1, 164943, Control_c, 0, 67, 97
1, 164958, Control_c, 0, 67, 104
1, 164973, Note_off_c, 0, 78, 36
1, 164974, Control_c, 0, 67, 111
1, 164985, Note_on_c, 0, 61, 47
1, 164989, Control_c, 0, 67, 117
1, 165003, Control_c, 0, 67, 122
1, 165014, Note_on_c, 0, 54, 37
1, 165018, Control_c, 0, 67, 127
1, 165047, Control_c, 0, 64, 110
1, 165062, Control_c, 0, 64, 98
1, 165077, Control_c, 0, 64, 90
1, 165092, Control_c, 0, 64, 83
1, 165107, Control_c, 0, 64, 75
1, 165122, Control_c, 0, 64, 65
1, 165137, Control_c, 0, 64, 56
1, 165159, Control_c, 0, 64, 41
1, 165174, Control_c, 0, 64, 32
1, 165180, Note_off_c, 0, 63, 38
1, 165189, Control_c, 0, 64, 17
1, 165203, Control_c, 0, 64, 0
1, 165269, Note_on_c, 0, 78, 41
1, 165271, Note_on_c, 0, 66, 26
1, 165271, Note_on_c, 0, 73, 38
1, 165274, Note_on_c, 0, 70, 34
1, 165322, Control_c, 0, 64, 28
1, 165336, Control_c, 0, 64, 50
1, 165351, Control_c, 0, 64, 60
1, 165366, Control_c, 0, 64, 64
1, 165381, Control_c, 0, 64, 66
1, 165396, Control_c, 0, 64, 69
1, 165411, Control_c, 0, 64, 74
1, 165426, Control_c, 0, 64, 79
1, 165441, Control_c, 0, 64, 85
1, 165455, Control_c, 0, 64, 91
1, 165470, Control_c, 0, 64, 97
1, 165483, Control_c, 0, 64, 104
1, 165498, Control_c, 0, 64, 116
1, 165504, Note_off_c, 0, 61, 48
1, 165513, Control_c, 0, 64, 127
1, 165587, Note_off_c, 0, 54, 47
1, 165610, Note_off_c, 0, 66, 42
1, 165634, Note_off_c, 0, 78, 36
1, 165654, Note_off_c, 0, 70, 40
1, 165660, Note_off_c, 0, 73, 41
1, 165748, Note_on_c, 0, 78, 53
1, 165775, Note_on_c, 0, 66, 32
1, 165784, Note_on_c, 0, 70, 40
1, 165792, Note_on_c, 0, 73, 40
1, 165921, Note_off_c, 0, 66, 37
1, 165947, Note_off_c, 0, 78, 53
1, 166018, Note_off_c, 0, 70, 37
1, 166022, Note_on_c, 0, 42, 38
1, 166030, Note_off_c, 0, 73, 40
1, 166240, Note_on_c, 0, 77, 58
1, 166250, Note_off_c, 0, 42, 38
1, 166254, Note_on_c, 0, 70, 40
1, 166257, Note_on_c, 0, 65, 36
1, 166260, Note_on_c, 0, 73, 43
1, 166321, Control_c, 0, 64, 104
1, 166336, Control_c, 0, 64, 82
1, 166350, Control_c, 0, 64, 64
1, 166365, Control_c, 0, 64, 0
1, 166380, Control_c, 0, 64, 11
1, 166392, Note_on_c, 0, 43, 41
1, 166395, Control_c, 0, 64, 51
1, 166409, Control_c, 0, 64, 64
1, 166424, Control_c, 0, 64, 70
1, 166439, Control_c, 0, 64, 79
1, 166454, Control_c, 0, 64, 91
1, 166457, Note_off_c, 0, 43, 61
1, 166469, Control_c, 0, 64, 106
1, 166484, Control_c, 0, 64, 127
1, 166530, Note_off_c, 0, 77, 53
1, 166535, Note_off_c, 0, 70, 57
1, 166549, Note_off_c, 0, 73, 61
1, 166550, Note_off_c, 0, 65, 55
1, 166596, Note_on_c, 0, 60, 63
1, 166840, Note_on_c, 0, 67, 42
1, 166849, Note_on_c, 0, 76, 52
1, 166857, Note_on_c, 0, 73, 50
1, 166865, Note_on_c, 0, 64, 41
1, 167102, Note_off_c, 0, 64, 37
1, 167140, Note_off_c, 0, 76, 38
1, 167144, Note_off_c, 0, 67, 52
1, 167163, Note_off_c, 0, 73, 55
1, 167290, Note_on_c, 0, 67, 40
1, 167294, Note_on_c, 0, 73, 57
1, 167300, Note_on_c, 0, 64, 49
1, 167301, Note_on_c, 0, 76, 59
1, 167515, Note_on_c, 0, 58, 73
1, 167567, Control_c, 0, 67, 123
1, 167569, Note_off_c, 0, 64, 34
1, 167582, Control_c, 0, 67, 119
1, 167589, Note_off_c, 0, 76, 38
1, 167596, Control_c, 0, 67, 115
1, 167602, Note_off_c, 0, 73, 31
1, 167607, Note_off_c, 0, 67, 35
1, 167611, Control_c, 0, 67, 110
1, 167626, Control_c, 0, 67, 103
1, 167627, Note_off_c, 0, 60, 63
1, 167641, Control_c, 0, 67, 95
1, 167656, Control_c, 0, 67, 86
1, 167670, Control_c, 0, 67, 71
1, 167685, Control_c, 0, 67, 59
1, 167695, Note_off_c, 0, 58, 61
1, 167700, Control_c, 0, 67, 49
1, 167715, Control_c, 0, 67, 42
1, 167730, Control_c, 0, 67, 38
1, 167745, Note_on_c, 0, 73, 55
1, 167745, Control_c, 0, 67, 36
1, 167752, Note_on_c, 0, 67, 52
1, 167759, Note_on_c, 0, 76, 63
1, 167760, Control_c, 0, 67, 35
1, 167764, Note_on_c, 0, 64, 51
1, 167775, Control_c, 0, 67, 35
1, 167790, Control_c, 0, 67, 34
1, 167830, Note_off_c, 0, 64, 52
1, 167837, Note_off_c, 0, 67, 60
1, 167890, Note_off_c, 0, 73, 57
1, 167921, Note_off_c, 0, 76, 62
1, 167923, Control_c, 0, 67, 35
1, 167938, Control_c, 0, 67, 36
1, 167953, Control_c, 0, 67, 36
1, 167968, Control_c, 0, 67, 37
1, 167971, Note_on_c, 0, 45, 65
1, 167977, Note_on_c, 0, 57, 63
1, 167997, Control_c, 0, 67, 37
1, 168027, Control_c, 0, 67, 38
1, 168041, Control_c, 0, 64, 96
1, 168056, Control_c, 0, 64, 74
1, 168071, Control_c, 0, 64, 60
1, 168086, Control_c, 0, 64, 43
1, 168101, Control_c, 0, 64, 50
1, 168115, Control_c, 0, 64, 61
1, 168130, Control_c, 0, 64, 66
1, 168153, Control_c, 0, 64, 73
1, 168168, Control_c, 0, 64, 83
1, 168175, Note_off_c, 0, 45, 59
1, 168183, Control_c, 0, 64, 95
1, 168183, Control_c, 0, 67, 37
1, 168196, Note_on_c, 0, 77, 75
1, 168198, Control_c, 0, 64, 111
1, 168198, Control_c, 0, 67, 37
1, 168207, Note_on_c, 0, 65, 59
1, 168208, Note_on_c, 0, 72, 59
1, 168213, Control_c, 0, 64, 127
1, 168213, Control_c, 0, 67, 36
1, 168228, Control_c, 0, 67, 35
1, 168243, Control_c, 0, 67, 35
1, 168258, Control_c, 0, 67, 34
1, 168272, Control_c, 0, 67, 33
1, 168287, Control_c, 0, 67, 31
1, 168302, Control_c, 0, 67, 26
1, 168317, Control_c, 0, 67, 20
1, 168332, Control_c, 0, 67, 13
1, 168346, Control_c, 0, 67, 0
1, 168431, Note_on_c, 0, 53, 79
1, 168461, Note_off_c, 0, 65, 49
1, 168485, Note_off_c, 0, 77, 56
1, 168532, Note_off_c, 0, 57, 55
1, 168540, Note_off_c, 0, 72, 38
1, 168635, Note_on_c, 0, 52, 80
1, 168641, Note_on_c, 0, 77, 75
1, 168649, Note_on_c, 0, 72, 51
1, 168652, Note_on_c, 0, 65, 71
1, 168668, Note_off_c, 0, 53, 66
1, 168693, Note_off_c, 0, 52, 63
1, 168713, Note_off_c, 0, 65, 61
1, 168793, Note_off_c, 0, 77, 58
1, 168878, Note_on_c, 0, 53, 82
1, 168925, Note_off_c, 0, 72, 32
1, 168976, Control_c, 0, 64, 102
1, 168991, Control_c, 0, 64, 78
1, 169006, Control_c, 0, 64, 59
1, 169021, Control_c, 0, 64, 0
1, 169035, Note_on_c, 0, 57, 80
1, 169080, Control_c, 0, 64, 43
1, 169095, Control_c, 0, 64, 64
1, 169110, Control_c, 0, 64, 74
1, 169113, Note_on_c, 0, 81, 86
1, 169120, Note_on_c, 0, 72, 72
1, 169125, Control_c, 0, 64, 84
1, 169126, Note_on_c, 0, 77, 69
1, 169127, Note_on_c, 0, 69, 70
1, 169140, Control_c, 0, 64, 103
1, 169155, Control_c, 0, 64, 127
1, 169184, Note_off_c, 0, 69, 60
1, 169220, Note_on_c, 0, 60, 83
1, 169239, Note_off_c, 0, 57, 62
1, 169253, Note_off_c, 0, 81, 56
1, 169259, Note_off_c, 0, 53, 66
1, 169277, Note_off_c, 0, 60, 66
1, 169285, Note_off_c, 0, 77, 55
1, 169287, Note_off_c, 0, 72, 52
1, 169534, Note_on_c, 0, 66, 77
1, 169536, Note_on_c, 0, 53, 71
1, 169564, Poly_aftertouch_c, 0, 60, 127
1, 169613, Poly_aftertouch_c, 0, 60, 0
1, 169650, Control_c, 0, 64, 100
1, 169665, Control_c, 0, 64, 85
1, 169680, Control_c, 0, 64, 71
1, 169694, Control_c, 0, 64, 61
1, 169709, Control_c, 0, 64, 32
1, 169724, Control_c, 0, 64, 0
1, 169852, Note_on_c, 0, 90, 68
1, 169864, Note_on_c, 0, 81, 49
1, 169867, Note_on_c, 0, 78, 38
1, 169876, Note_on_c, 0, 84, 46
1, 169948, Control_c, 0, 64, 35
1, 169963, Control_c, 0, 64, 65
1, 169977, Control_c, 0, 64, 74
1, 169991, Control_c, 0, 64, 86
1, 170006, Control_c, 0, 64, 105
1, 170021, Control_c, 0, 64, 127
1, 170023, Note_off_c, 0, 66, 60
1, 170073, Note_off_c, 0, 53, 59
1, 170152, Note_off_c, 0, 78, 44
1, 170180, Note_off_c, 0, 90, 57
1, 170185, Note_off_c, 0, 81, 54
1, 170189, Note_off_c, 0, 84, 56
1, 170310, Note_on_c, 0, 90, 64
1, 170324, Note_on_c, 0, 81, 46
1, 170333, Note_on_c, 0, 78, 41
1, 170335, Note_on_c, 0, 84, 47
1, 170572, Note_on_c, 0, 41, 30
1, 170578, Note_off_c, 0, 78, 44
1, 170592, Note_off_c, 0, 84, 31
1, 170604, Note_off_c, 0, 81, 36
1, 170608, Note_off_c, 0, 90, 38
1, 170800, Note_on_c, 0, 90, 55
1, 170807, Note_on_c, 0, 78, 34
1, 170815, Note_on_c, 0, 81, 34
1, 170836, Note_on_c, 0, 84, 38
1, 170948, Control_c, 0, 67, 8
1, 170963, Control_c, 0, 67, 9
1, 170978, Control_c, 0, 67, 10
1, 170992, Control_c, 0, 67, 12
1, 171007, Control_c, 0, 67, 15
1, 171022, Control_c, 0, 67, 19
1, 171037, Note_off_c, 0, 78, 42
1, 171037, Control_c, 0, 67, 23
1, 171052, Control_c, 0, 67, 30
1, 171065, Note_on_c, 0, 53, 33
1, 171066, Control_c, 0, 67, 36
1, 171075, Note_off_c, 0, 90, 32
1, 171081, Control_c, 0, 67, 43
1, 171087, Note_off_c, 0, 84, 32
1, 171091, Note_off_c, 0, 41, 40
1, 171094, Note_off_c, 0, 81, 39
1, 171096, Control_c, 0, 67, 51
1, 171111, Control_c, 0, 67, 58
1, 171126, Control_c, 0, 67, 66
1, 171148, Control_c, 0, 67, 73
1, 171163, Control_c, 0, 67, 80
1, 171178, Control_c, 0, 67, 85
1, 171192, Control_c, 0, 67, 90
1, 171206, Note_off_c, 0, 53, 58
1, 171207, Control_c, 0, 67, 93
1, 171222, Control_c, 0, 67, 95
1, 171237, Control_c, 0, 67, 96
1, 171331, Note_on_c, 0, 90, 50
1, 171338, Note_on_c, 0, 78, 36
1, 171341, Note_on_c, 0, 81, 38
1, 171350, Note_on_c, 0, 84, 40
1, 171355, Control_c, 0, 67, 96
1, 171386, Control_c, 0, 67, 95
1, 171401, Control_c, 0, 67, 94
1, 171415, Control_c, 0, 67, 94
1, 171430, Control_c, 0, 67, 93
1, 171445, Control_c, 0, 67, 93
1, 171475, Control_c, 0, 67, 92
1, 171489, Control_c, 0, 67, 92
1, 171504, Control_c, 0, 67, 91
1, 171549, Control_c, 0, 67, 90
1, 171556, Note_off_c, 0, 78, 42
1, 171578, Control_c, 0, 67, 90
1, 171593, Control_c, 0, 67, 89
1, 171595, Note_on_c, 0, 65, 56
1, 171607, Note_off_c, 0, 90, 34
1, 171615, Note_off_c, 0, 84, 28
1, 171623, Control_c, 0, 67, 89
1, 171635, Note_off_c, 0, 81, 38
1, 171638, Control_c, 0, 67, 88
1, 171742, Control_c, 0, 67, 88
1, 171845, Control_c, 0, 67, 88
1, 171846, Note_on_c, 0, 90, 41
1, 171850, Note_on_c, 0, 78, 20
1, 171855, Note_on_c, 0, 81, 29
1, 171875, Control_c, 0, 67, 89
1, 171880, Note_on_c, 0, 84, 30
1, 171897, Control_c, 0, 67, 89
1, 171927, Control_c, 0, 67, 90
1, 171942, Control_c, 0, 67, 90
1, 171957, Control_c, 0, 67, 91
1, 171971, Control_c, 0, 67, 92
1, 171986, Control_c, 0, 67, 92
1, 172001, Control_c, 0, 67, 93
1, 172015, Control_c, 0, 67, 93
1, 172030, Control_c, 0, 67, 94
1, 172045, Control_c, 0, 67, 94
1, 172060, Control_c, 0, 67, 95
1, 172070, Note_off_c, 0, 78, 41
1, 172075, Control_c, 0, 67, 96
1, 172104, Control_c, 0, 67, 96
1, 172119, Control_c, 0, 67, 97
1, 172122, Note_on_c, 0, 63, 49
1, 172132, Note_off_c, 0, 84, 35
1, 172134, Control_c, 0, 67, 97
1, 172148, Control_c, 0, 67, 98
1, 172153, Note_off_c, 0, 81, 36
1, 172165, Control_c, 0, 67, 100
1, 172174, Note_off_c, 0, 90, 38
1, 172180, Control_c, 0, 67, 104
1, 172194, Control_c, 0, 67, 107
1, 172209, Control_c, 0, 67, 110
1, 172224, Control_c, 0, 67, 113
1, 172238, Control_c, 0, 67, 117
1, 172253, Control_c, 0, 67, 121
1, 172268, Control_c, 0, 67, 125
1, 172283, Control_c, 0, 67, 127
1, 172377, Note_on_c, 0, 90, 41
1, 172386, Note_off_c, 0, 65, 34
1, 172401, Note_on_c, 0, 81, 24
1, 172412, Poly_aftertouch_c, 0, 78, 127
1, 172416, Note_on_c, 0, 84, 29
1, 172553, Note_off_c, 0, 84, 31
1, 172555, Note_off_c, 0, 81, 40
1, 172562, Poly_aftertouch_c, 0, 78, 0
1, 172616, Note_off_c, 0, 90, 43
1, 172693, Note_on_c, 0, 61, 46
1, 172713, Note_on_c, 0, 54, 30
1, 172735, Control_c, 0, 64, 109
1, 172750, Control_c, 0, 64, 97
1, 172764, Control_c, 0, 64, 88
1, 172779, Control_c, 0, 64, 80
1, 172794, Control_c, 0, 64, 72
1, 172809, Control_c, 0, 64, 64
1, 172824, Control_c, 0, 64, 42
1, 172838, Note_off_c, 0, 63, 51
1, 172838, Control_c, 0, 64, 0
1, 172949, Note_on_c, 0, 90, 42
1, 172962, Note_on_c, 0, 82, 35
1, 172963, Note_on_c, 0, 78, 21
1, 172987, Note_on_c, 0, 85, 26
1, 173003, Control_c, 0, 64, 38
1, 173017, Control_c, 0, 64, 61
1, 173032, Control_c, 0, 64, 66
1, 173047, Control_c, 0, 64, 70
1, 173061, Control_c, 0, 64, 75
1, 173076, Control_c, 0, 64, 81
1, 173091, Control_c, 0, 64, 88
1, 173106, Control_c, 0, 64, 97
1, 173121, Control_c, 0, 64, 104
1, 173135, Control_c, 0, 64, 116
1, 173150, Control_c, 0, 64, 127
1, 173165, Note_off_c, 0, 61, 49
1, 173245, Note_off_c, 0, 78, 44
1, 173251, Note_off_c, 0, 54, 45
1, 173279, Note_off_c, 0, 90, 37
1, 173295, Note_off_c, 0, 85, 37
1, 173295, Note_off_c, 0, 82, 40
1, 173434, Note_on_c, 0, 90, 53
1, 173450, Note_on_c, 0, 82, 43
1, 173468, Note_on_c, 0, 78, 34
1, 173469, Note_on_c, 0, 85, 39
1, 173616, Note_off_c, 0, 78, 44
1, 173674, Note_off_c, 0, 85, 39
1, 173679, Note_off_c, 0, 90, 41
1, 173682, Note_on_c, 0, 42, 38
1, 173722, Note_off_c, 0, 82, 36
1, 173899, Note_on_c, 0, 89, 63
1, 173917, Note_off_c, 0, 42, 40
1, 173918, Note_on_c, 0, 82, 42
1, 173924, Note_on_c, 0, 77, 39
1, 173924, Note_on_c, 0, 85, 43
1, 173987, Control_c, 0, 64, 96
1, 174002, Control_c, 0, 64, 77
1, 174017, Control_c, 0, 64, 64
1, 174032, Control_c, 0, 64, 58
1, 174047, Control_c, 0, 64, 63
1, 174049, Note_on_c, 0, 43, 36
1, 174061, Control_c, 0, 64, 67
1, 174076, Control_c, 0, 64, 73
1, 174091, Control_c, 0, 64, 81
1, 174095, Note_off_c, 0, 43, 61
1, 174106, Control_c, 0, 64, 93
1, 174121, Control_c, 0, 64, 108
1, 174143, Control_c, 0, 64, 127
1, 174181, Note_off_c, 0, 82, 56
1, 174186, Note_off_c, 0, 89, 50
1, 174194, Note_off_c, 0, 85, 60
1, 174211, Note_off_c, 0, 77, 57
1, 174229, Note_on_c, 0, 60, 63
1, 174488, Note_on_c, 0, 88, 51
1, 174494, Note_on_c, 0, 79, 37
1, 174499, Note_on_c, 0, 76, 39
1, 174517, Note_on_c, 0, 85, 41
1, 174720, Note_off_c, 0, 76, 43
1, 174780, Note_off_c, 0, 88, 36
1, 174796, Note_off_c, 0, 85, 37
1, 174798, Note_off_c, 0, 79, 42
1, 174987, Note_on_c, 0, 88, 52
1, 174996, Note_on_c, 0, 79, 36
1, 175009, Note_on_c, 0, 76, 29
1, 175012, Note_on_c, 0, 85, 32
1, 175207, Note_off_c, 0, 76, 39
1, 175229, Note_on_c, 0, 58, 67
1, 175246, Note_off_c, 0, 85, 39
1, 175273, Note_off_c, 0, 79, 40
1, 175274, Note_off_c, 0, 88, 31
1, 175349, Note_off_c, 0, 60, 62
1, 175451, Note_off_c, 0, 58, 60
1, 175482, Note_on_c, 0, 88, 48
1, 175483, Note_on_c, 0, 79, 38
1, 175495, Note_on_c, 0, 85, 36
1, 175508, Note_on_c, 0, 76, 20
1, 175623, Note_off_c, 0, 76, 41
1, 175629, Note_off_c, 0, 79, 41
1, 175661, Note_off_c, 0, 85, 50
1, 175669, Note_off_c, 0, 88, 60
1, 175728, Note_on_c, 0, 56, 56
1, 175755, Note_on_c, 0, 44, 44
1, 175819, Control_c, 0, 64, 118
1, 175834, Control_c, 0, 64, 101
1, 175849, Control_c, 0, 64, 91
1, 175863, Control_c, 0, 64, 82
1, 175878, Control_c, 0, 64, 73
1, 175893, Control_c, 0, 64, 65
1, 175908, Control_c, 0, 64, 59
1, 175923, Control_c, 0, 64, 56
1, 175937, Control_c, 0, 64, 56
1, 175952, Control_c, 0, 64, 55
1, 175986, Note_on_c, 0, 89, 56
1, 176000, Note_on_c, 0, 77, 38
1, 176001, Note_on_c, 0, 85, 43
1, 176004, Note_on_c, 0, 80, 36
1, 176011, Control_c, 0, 64, 58
1, 176026, Control_c, 0, 64, 62
1, 176041, Control_c, 0, 64, 65
1, 176056, Control_c, 0, 64, 68
1, 176071, Control_c, 0, 64, 71
1, 176086, Control_c, 0, 64, 74
1, 176100, Control_c, 0, 64, 78
1, 176115, Control_c, 0, 64, 82
1, 176130, Control_c, 0, 64, 88
1, 176145, Control_c, 0, 64, 95
1, 176160, Control_c, 0, 64, 101
1, 176175, Control_c, 0, 64, 110
1, 176190, Control_c, 0, 64, 127
1, 176261, Note_off_c, 0, 77, 39
1, 176288, Note_off_c, 0, 89, 51
1, 176299, Note_off_c, 0, 80, 49
1, 176302, Note_off_c, 0, 85, 53
1, 176479, Note_on_c, 0, 85, 35
1, 176481, Note_on_c, 0, 89, 55
1, 176494, Note_on_c, 0, 77, 35
1, 176497, Note_on_c, 0, 80, 27
1, 176716, Note_on_c, 0, 49, 55
1, 176738, Note_off_c, 0, 77, 43
1, 176751, Note_off_c, 0, 89, 37
1, 176772, Note_off_c, 0, 80, 41
1, 176786, Note_off_c, 0, 85, 38
1, 176883, Note_off_c, 0, 56, 59
1, 176957, Note_on_c, 0, 89, 55
1, 176962, Note_on_c, 0, 85, 37
1, 176980, Note_on_c, 0, 80, 37
1, 176980, Note_off_c, 0, 44, 60
1, 176985, Note_on_c, 0, 77, 30
1, 177075, Note_off_c, 0, 89, 57
1, 177090, Note_off_c, 0, 77, 40
1, 177109, Note_off_c, 0, 85, 41
1, 177135, Note_off_c, 0, 80, 58
1, 177221, Note_on_c, 0, 51, 40
1, 177230, Note_on_c, 0, 44, 43
1, 177302, Control_c, 0, 64, 114
1, 177317, Control_c, 0, 64, 101
1, 177332, Control_c, 0, 64, 91
1, 177344, Note_off_c, 0, 49, 51
1, 177346, Control_c, 0, 64, 82
1, 177361, Control_c, 0, 64, 74
1, 177376, Control_c, 0, 64, 64
1, 177391, Control_c, 0, 64, 56
1, 177406, Control_c, 0, 64, 49
1, 177421, Control_c, 0, 64, 45
1, 177435, Control_c, 0, 64, 38
1, 177450, Control_c, 0, 64, 30
1, 177466, Control_c, 0, 64, 23
1, 177481, Control_c, 0, 64, 21
1, 177482, Note_on_c, 0, 90, 49
1, 177490, Note_on_c, 0, 78, 32
1, 177494, Note_on_c, 0, 84, 37
1, 177495, Note_on_c, 0, 80, 31
1, 177510, Control_c, 0, 64, 27
1, 177525, Control_c, 0, 64, 44
1, 177540, Control_c, 0, 64, 59
1, 177554, Control_c, 0, 64, 64
1, 177569, Control_c, 0, 64, 68
1, 177584, Control_c, 0, 64, 71
1, 177599, Control_c, 0, 64, 75
1, 177614, Control_c, 0, 64, 80
1, 177628, Control_c, 0, 64, 86
1, 177643, Control_c, 0, 64, 91
1, 177658, Control_c, 0, 64, 97
1, 177673, Control_c, 0, 64, 105
1, 177688, Control_c, 0, 64, 116
1, 177702, Control_c, 0, 64, 127
1, 177773, Note_off_c, 0, 78, 43
1, 177792, Note_off_c, 0, 90, 38
1, 177836, Note_off_c, 0, 80, 40
1, 177846, Note_off_c, 0, 84, 34
1, 178001, Note_on_c, 0, 90, 44
1, 178002, Note_on_c, 0, 78, 42
1, 178005, Note_on_c, 0, 80, 32
1, 178014, Note_off_c, 0, 51, 55
1, 178015, Note_on_c, 0, 84, 41
1, 178204, Note_off_c, 0, 90, 33
1, 178222, Note_off_c, 0, 78, 36
1, 178237, Note_on_c, 0, 53, 55
1, 178265, Note_off_c, 0, 84, 20
1, 178280, Note_off_c, 0, 80, 42
1, 178433, Note_off_c, 0, 53, 52
1, 178486, Note_on_c, 0, 90, 47
1, 178491, Note_on_c, 0, 78, 29
1, 178502, Note_off_c, 0, 44, 62
1, 178521, Note_on_c, 0, 80, 19
1, 178523, Note_on_c, 0, 84, 28
1, 178595, Note_off_c, 0, 90, 46
1, 178664, Note_off_c, 0, 84, 27
1, 178679, Note_off_c, 0, 78, 47
1, 178701, Note_off_c, 0, 80, 34
1, 178747, Note_on_c, 0, 37, 43
1, 178751, Note_on_c, 0, 49, 40
1, 178888, Control_c, 0, 64, 123
1, 178903, Control_c, 0, 64, 106
1, 178918, Control_c, 0, 64, 96
1, 178933, Control_c, 0, 64, 87
1, 178948, Control_c, 0, 64, 77
1, 178962, Control_c, 0, 64, 67
1, 178977, Control_c, 0, 64, 49
1, 178984, Note_on_c, 0, 89, 54
1, 178992, Control_c, 0, 64, 0
1, 179008, Note_on_c, 0, 85, 35
1, 179013, Note_on_c, 0, 80, 34
1, 179014, Note_on_c, 0, 77, 33
1, 179095, Control_c, 0, 64, 44
1, 179110, Control_c, 0, 64, 63
1, 179124, Control_c, 0, 64, 67
1, 179139, Control_c, 0, 64, 72
1, 179154, Control_c, 0, 64, 78
1, 179169, Control_c, 0, 64, 85
1, 179184, Control_c, 0, 64, 93
1, 179198, Control_c, 0, 64, 99
1, 179213, Control_c, 0, 64, 107
1, 179228, Control_c, 0, 64, 120
1, 179233, Note_off_c, 0, 77, 43
1, 179243, Control_c, 0, 64, 127
1, 179298, Note_off_c, 0, 89, 37
1, 179301, Note_off_c, 0, 85, 42
1, 179314, Note_off_c, 0, 80, 39
1, 179462, Note_on_c, 0, 85, 41
1, 179463, Note_on_c, 0, 80, 43
1, 179465, Note_on_c, 0, 89, 53
1, 179478, Note_on_c, 0, 77, 37
1, 179765, Note_off_c, 0, 77, 41
1, 179770, Note_off_c, 0, 85, 31
1, 179801, Note_off_c, 0, 80, 38
1, 179812, Note_off_c, 0, 89, 31
1, 179943, Note_off_c, 0, 49, 59
1, 179961, Note_off_c, 0, 37, 42
1, 179963, Note_on_c, 0, 89, 52
1, 179972, Note_on_c, 0, 80, 33
1, 179973, Note_on_c, 0, 85, 41
1, 179997, Note_on_c, 0, 77, 31
1, 180110, Note_off_c, 0, 85, 59
1, 180111, Note_off_c, 0, 89, 37
1, 180117, Note_off_c, 0, 80, 40
1, 180157, Note_off_c, 0, 77, 41
1, 180208, Note_on_c, 0, 37, 44
1, 180214, Note_on_c, 0, 51, 49
1, 180371, Control_c, 0, 64, 109
1, 180385, Control_c, 0, 64, 96
1, 180400, Control_c, 0, 64, 86
1, 180415, Control_c, 0, 64, 74
1, 180430, Control_c, 0, 64, 64
1, 180445, Control_c, 0, 64, 47
1, 180459, Control_c, 0, 64, 38
1, 180461, Note_on_c, 0, 88, 54
1, 180473, Note_on_c, 0, 79, 42
1, 180474, Control_c, 0, 64, 38
1, 180479, Note_on_c, 0, 76, 37
1, 180480, Note_on_c, 0, 82, 41
1, 180489, Control_c, 0, 64, 37
1, 180519, Control_c, 0, 64, 42
1, 180533, Control_c, 0, 64, 54
1, 180548, Control_c, 0, 64, 63
1, 180563, Control_c, 0, 64, 66
1, 180578, Control_c, 0, 64, 69
1, 180593, Control_c, 0, 64, 73
1, 180608, Control_c, 0, 64, 79
1, 180622, Control_c, 0, 64, 85
1, 180637, Control_c, 0, 64, 92
1, 180652, Control_c, 0, 64, 99
1, 180667, Control_c, 0, 64, 108
1, 180682, Control_c, 0, 64, 127
1, 180763, Note_off_c, 0, 76, 42
1, 180801, Note_off_c, 0, 88, 38
1, 180819, Note_off_c, 0, 79, 43
1, 180825, Note_off_c, 0, 82, 36
1, 180941, Note_on_c, 0, 88, 49
1, 180959, Note_on_c, 0, 79, 34
1, 180965, Note_on_c, 0, 82, 45
1, 180972, Note_off_c, 0, 51, 62
1, 180977, Note_on_c, 0, 76, 31
1, 181007, Note_off_c, 0, 37, 42
1, 181176, Note_on_c, 0, 52, 45
1, 181206, Note_off_c, 0, 76, 39
1, 181207, Note_off_c, 0, 82, 38
1, 181235, Note_off_c, 0, 88, 34
1, 181237, Note_off_c, 0, 79, 41
1, 181330, Note_off_c, 0, 52, 55
1, 181427, Note_on_c, 0, 82, 35
1, 181430, Note_on_c, 0, 88, 53
1, 181442, Note_on_c, 0, 76, 34
1, 181451, Note_on_c, 0, 79, 33
1, 181499, Note_off_c, 0, 82, 38
1, 181542, Note_off_c, 0, 76, 38
1, 181542, Note_off_c, 0, 79, 38
1, 181563, Note_off_c, 0, 88, 60
1, 181676, Note_on_c, 0, 49, 44
1, 181698, Note_on_c, 0, 37, 37
1, 181883, Control_c, 0, 64, 110
1, 181898, Control_c, 0, 64, 98
1, 181913, Control_c, 0, 64, 88
1, 181919, Note_on_c, 0, 89, 52
1, 181928, Control_c, 0, 64, 79
1, 181938, Note_on_c, 0, 80, 33
1, 181943, Control_c, 0, 64, 66
1, 181946, Note_on_c, 0, 85, 34
1, 181955, Note_on_c, 0, 77, 34
1, 181957, Control_c, 0, 64, 36
1, 181967, Note_off_c, 0, 89, 0
1, 181967, Note_on_c, 0, 89, 15
1, 181972, Control_c, 0, 64, 0
1, 182091, Control_c, 0, 64, 17
1, 182105, Control_c, 0, 64, 58
1, 182120, Control_c, 0, 64, 65
1, 182135, Control_c, 0, 64, 69
1, 182149, Control_c, 0, 64, 73
1, 182164, Control_c, 0, 64, 79
1, 182179, Control_c, 0, 64, 85
1, 182188, Note_off_c, 0, 77, 43
1, 182194, Control_c, 0, 64, 92
1, 182209, Control_c, 0, 64, 98
1, 182223, Control_c, 0, 64, 106
1, 182238, Control_c, 0, 64, 114
1, 182241, Note_off_c, 0, 80, 40
1, 182248, Note_off_c, 0, 89, 39
1, 182249, Note_off_c, 0, 85, 40
1, 182253, Control_c, 0, 64, 127
1, 182420, Note_on_c, 0, 89, 53
1, 182429, Note_on_c, 0, 85, 37
1, 182435, Note_on_c, 0, 80, 34
1, 182444, Note_on_c, 0, 77, 35
1, 182703, Note_off_c, 0, 77, 42
1, 182784, Note_off_c, 0, 80, 40
1, 182793, Note_off_c, 0, 89, 32
1, 182841, Note_off_c, 0, 85, 34
1, 182849, Note_off_c, 0, 49, 47
1, 182854, Note_off_c, 0, 37, 41
1, 182944, Note_on_c, 0, 89, 49
1, 182949, Note_on_c, 0, 85, 25
1, 182952, Note_on_c, 0, 80, 33
1, 182966, Note_on_c, 0, 77, 33
1, 183066, Note_off_c, 0, 77, 38
1, 183105, Note_off_c, 0, 80, 42
1, 183127, Note_off_c, 0, 89, 60
1, 183129, Note_off_c, 0, 85, 43
1, 183185, Note_on_c, 0, 37, 40
1, 183192, Note_on_c, 0, 51, 47
1, 183425, Control_c, 0, 64, 112
1, 183427, Note_on_c, 0, 91, 58
1, 183440, Control_c, 0, 64, 96
1, 183450, Note_on_c, 0, 79, 42
1, 183450, Note_on_c, 0, 85, 49
1, 183454, Note_on_c, 0, 82, 48
1, 183455, Control_c, 0, 64, 83
1, 183466, Note_off_c, 0, 91, 0
1, 183466, Note_on_c, 0, 91, 26
1, 183470, Control_c, 0, 64, 70
1, 183484, Control_c, 0, 64, 58
1, 183499, Control_c, 0, 64, 38
1, 183514, Control_c, 0, 64, 38
1, 183544, Control_c, 0, 64, 40
1, 183559, Control_c, 0, 64, 50
1, 183574, Control_c, 0, 64, 60
1, 183588, Control_c, 0, 64, 65
1, 183603, Control_c, 0, 64, 68
1, 183618, Control_c, 0, 64, 71
1, 183633, Control_c, 0, 64, 75
1, 183648, Control_c, 0, 64, 81
1, 183663, Control_c, 0, 64, 87
1, 183677, Control_c, 0, 64, 94
1, 183692, Control_c, 0, 64, 100
1, 183707, Control_c, 0, 64, 108
1, 183721, Control_c, 0, 64, 121
1, 183736, Control_c, 0, 64, 127
1, 183789, Note_off_c, 0, 79, 36
1, 183842, Note_off_c, 0, 91, 37
1, 183852, Note_off_c, 0, 85, 34
1, 183854, Note_off_c, 0, 82, 33
1, 183891, Note_off_c, 0, 51, 59
1, 183934, Note_on_c, 0, 82, 34
1, 183944, Note_on_c, 0, 91, 60
1, 183963, Note_on_c, 0, 85, 33
1, 183964, Note_on_c, 0, 79, 36
1, 183970, Note_off_c, 0, 37, 42
1, 184176, Note_on_c, 0, 52, 44
1, 184204, Note_off_c, 0, 79, 40
1, 184246, Note_off_c, 0, 91, 38
1, 184257, Note_off_c, 0, 85, 37
1, 184271, Note_off_c, 0, 82, 42
1, 184316, Note_off_c, 0, 52, 57
1, 184395, Note_on_c, 0, 91, 60
1, 184403, Note_on_c, 0, 82, 47
1, 184409, Note_on_c, 0, 85, 39
1, 184413, Note_on_c, 0, 79, 46
1, 184459, Note_off_c, 0, 79, 54
1, 184493, Note_off_c, 0, 91, 59
1, 184521, Note_off_c, 0, 82, 51
1, 184539, Note_off_c, 0, 85, 56
1, 184655, Note_on_c, 0, 49, 45
1, 184671, Note_on_c, 0, 37, 37
1, 184848, Control_c, 0, 64, 120
1, 184863, Control_c, 0, 64, 110
1, 184878, Control_c, 0, 64, 102
1, 184892, Control_c, 0, 64, 91
1, 184897, Note_on_c, 0, 92, 53
1, 184898, Note_on_c, 0, 85, 48
1, 184907, Control_c, 0, 64, 81
1, 184909, Note_on_c, 0, 80, 34
1, 184909, Note_on_c, 0, 83, 42
1, 184922, Control_c, 0, 64, 71
1, 184937, Control_c, 0, 64, 60
1, 184953, Control_c, 0, 64, 0
1, 185071, Control_c, 0, 64, 49
1, 185086, Control_c, 0, 64, 63
1, 185101, Control_c, 0, 64, 68
1, 185115, Control_c, 0, 64, 72
1, 185130, Control_c, 0, 64, 77
1, 185145, Control_c, 0, 64, 84
1, 185146, Note_off_c, 0, 80, 43
1, 185160, Control_c, 0, 64, 91
1, 185174, Control_c, 0, 64, 101
1, 185189, Control_c, 0, 64, 110
1, 185203, Note_off_c, 0, 83, 37
1, 185204, Control_c, 0, 64, 127
1, 185205, Note_off_c, 0, 85, 54
1, 185206, Note_off_c, 0, 92, 54
1, 185416, Note_on_c, 0, 92, 48
1, 185419, Note_on_c, 0, 85, 40
1, 185431, Note_on_c, 0, 83, 39
1, 185443, Note_on_c, 0, 80, 27
1, 185473, Note_off_c, 0, 92, 0
1, 185473, Note_on_c, 0, 92, 5
1, 185715, Control_c, 0, 67, 125
1, 185730, Control_c, 0, 67, 121
1, 185746, Control_c, 0, 67, 116
1, 185761, Control_c, 0, 67, 110
1, 185776, Control_c, 0, 67, 104
1, 185785, Note_off_c, 0, 80, 42
1, 185790, Control_c, 0, 67, 97
1, 185791, Note_off_c, 0, 37, 41
1, 185799, Note_off_c, 0, 92, 44
1, 185803, Note_off_c, 0, 49, 60
1, 185805, Control_c, 0, 67, 89
1, 185813, Note_off_c, 0, 85, 32
1, 185816, Note_off_c, 0, 83, 38
1, 185820, Control_c, 0, 67, 80
1, 185835, Control_c, 0, 67, 73
1, 185850, Control_c, 0, 67, 68
1, 185864, Control_c, 0, 67, 63
1, 185879, Control_c, 0, 67, 59
1, 185894, Control_c, 0, 67, 56
1, 185906, Note_on_c, 0, 92, 54
1, 185909, Control_c, 0, 67, 52
1, 185917, Note_on_c, 0, 85, 51
1, 185920, Note_on_c, 0, 80, 34
1, 185923, Control_c, 0, 67, 49
1, 185938, Control_c, 0, 67, 46
1, 185939, Note_on_c, 0, 83, 47
1, 185953, Control_c, 0, 67, 44
1, 185968, Control_c, 0, 67, 42
1, 185978, Note_off_c, 0, 80, 46
1, 185983, Control_c, 0, 67, 41
1, 185997, Control_c, 0, 67, 40
1, 186008, Note_off_c, 0, 83, 61
1, 186029, Note_off_c, 0, 85, 60
1, 186037, Note_on_c, 0, 37, 53
1, 186055, Note_off_c, 0, 92, 57
1, 186092, Note_on_c, 0, 43, 56
1, 186168, Control_c, 0, 67, 41
1, 186212, Control_c, 0, 67, 41
1, 186247, Note_on_c, 0, 51, 69
1, 186257, Control_c, 0, 67, 42
1, 186271, Control_c, 0, 67, 42
1, 186301, Control_c, 0, 67, 43
1, 186316, Control_c, 0, 67, 43
1, 186361, Control_c, 0, 67, 44
1, 186405, Control_c, 0, 67, 44
1, 186450, Control_c, 0, 64, 104
1, 186465, Control_c, 0, 64, 88
1, 186479, Control_c, 0, 64, 75
1, 186494, Control_c, 0, 64, 64
1, 186509, Control_c, 0, 64, 0
1, 186516, Note_on_c, 0, 94, 69
1, 186517, Note_on_c, 0, 91, 59
1, 186519, Note_on_c, 0, 82, 61
1, 186524, Note_on_c, 0, 85, 51
1, 186584, Control_c, 0, 64, 50
1, 186599, Control_c, 0, 64, 64
1, 186613, Control_c, 0, 64, 69
1, 186628, Control_c, 0, 64, 74
1, 186643, Control_c, 0, 64, 82
1, 186658, Control_c, 0, 64, 92
1, 186658, Control_c, 0, 67, 44
1, 186673, Control_c, 0, 64, 107
1, 186687, Control_c, 0, 64, 127
1, 186746, Control_c, 0, 67, 43
1, 186812, Note_off_c, 0, 82, 54
1, 186850, Control_c, 0, 67, 43
1, 186859, Note_off_c, 0, 94, 51
1, 186873, Control_c, 0, 67, 42
1, 186888, Note_off_c, 0, 85, 55
1, 186899, Note_off_c, 0, 91, 54
1, 186932, Control_c, 0, 67, 42
1, 186976, Control_c, 0, 67, 41
1, 186985, Note_on_c, 0, 94, 77
1, 186992, Note_on_c, 0, 82, 75
1, 186993, Note_on_c, 0, 91, 74
1, 186996, Note_on_c, 0, 85, 69
1, 187006, Control_c, 0, 67, 41
1, 187045, Note_off_c, 0, 51, 63
1, 187065, Control_c, 0, 67, 40
1, 187094, Note_off_c, 0, 37, 60
1, 187109, Control_c, 0, 67, 40
1, 187154, Control_c, 0, 67, 39
1, 187183, Control_c, 0, 67, 38
1, 187199, Control_c, 0, 67, 38
1, 187213, Control_c, 0, 67, 36
1, 187228, Control_c, 0, 67, 31
1, 187231, Note_on_c, 0, 52, 83
1, 187243, Control_c, 0, 67, 25
1, 187253, Poly_aftertouch_c, 0, 42, 127
1, 187253, Poly_aftertouch_c, 0, 44, 127
1, 187258, Control_c, 0, 67, 19
1, 187264, Note_off_c, 0, 82, 49
1, 187273, Control_c, 0, 67, 11
1, 187288, Control_c, 0, 67, 0
1, 187290, Note_off_c, 0, 43, 32
1, 187311, Note_off_c, 0, 94, 48
1, 187365, Note_off_c, 0, 52, 60
1, 187385, Note_off_c, 0, 91, 37
1, 187388, Note_off_c, 0, 85, 48
1, 187394, Poly_aftertouch_c, 0, 44, 0
1, 187410, Poly_aftertouch_c, 0, 42, 0
1, 187467, Note_on_c, 0, 94, 87
1, 187469, Note_on_c, 0, 82, 78
1, 187470, Note_on_c, 0, 85, 64
1, 187479, Note_on_c, 0, 91, 69
1, 187603, Note_on_c, 0, 37, 76
1, 187637, Control_c, 0, 64, 95
1, 187651, Control_c, 0, 64, 68
1, 187664, Note_on_c, 0, 44, 79
1, 187666, Control_c, 0, 64, 0
1, 187673, Note_off_c, 0, 37, 65
1, 187696, Control_c, 0, 64, 52
1, 187702, Note_off_c, 0, 82, 63
1, 187711, Control_c, 0, 64, 65
1, 187723, Note_off_c, 0, 91, 55
1, 187726, Control_c, 0, 64, 77
1, 187741, Control_c, 0, 64, 105
1, 187750, Note_on_c, 0, 53, 92
1, 187753, Note_off_c, 0, 94, 60
1, 187756, Note_off_c, 0, 85, 56
1, 187756, Control_c, 0, 64, 127
1, 188014, Note_on_c, 0, 95, 97
1, 188019, Note_on_c, 0, 83, 83
1, 188019, Note_on_c, 0, 89, 75
1, 188020, Note_on_c, 0, 85, 82
1, 188224, Note_off_c, 0, 83, 56
1, 188274, Note_off_c, 0, 95, 51
1, 188338, Note_off_c, 0, 85, 56
1, 188413, Note_off_c, 0, 89, 36
1, 188546, Note_on_c, 0, 95, 99
1, 188547, Note_on_c, 0, 89, 71
1, 188551, Note_on_c, 0, 85, 87
1, 188552, Note_on_c, 0, 83, 87
1, 188716, Note_off_c, 0, 53, 60
1, 188810, Note_off_c, 0, 44, 58
1, 188919, Note_off_c, 0, 83, 60
1, 188946, Note_off_c, 0, 95, 59
1, 188951, Note_off_c, 0, 85, 62
1, 188994, Note_off_c, 0, 89, 0
1, 189009, Note_on_c, 0, 89, 57
1, 189014, Note_on_c, 0, 85, 86
1, 189017, Note_on_c, 0, 95, 100
1, 189018, Note_on_c, 0, 83, 90
1, 189102, Note_off_c, 0, 83, 65
1, 189129, Note_on_c, 0, 37, 78
1, 189148, Note_off_c, 0, 95, 64
1, 189151, Note_off_c, 0, 85, 63
1, 189167, Note_off_c, 0, 89, 62
1, 189184, Note_on_c, 0, 42, 81
1, 189287, Note_on_c, 0, 51, 94
1, 189351, Poly_aftertouch_c, 0, 43, 127
1, 189389, Poly_aftertouch_c, 0, 43, 0
1, 189533, Control_c, 0, 64, 114
1, 189536, Note_on_c, 0, 84, 97
1, 189536, Note_on_c, 0, 87, 100
1, 189538, Note_on_c, 0, 96, 102
1, 189542, Note_on_c, 0, 93, 89
1, 189548, Control_c, 0, 64, 67
1, 189563, Control_c, 0, 64, 0
1, 189622, Control_c, 0, 64, 54
1, 189637, Control_c, 0, 64, 80
1, 189652, Control_c, 0, 64, 127
1, 189734, Note_off_c, 0, 84, 59
1, 189765, Note_off_c, 0, 96, 55
1, 189826, Note_off_c, 0, 87, 58
1, 189885, Note_off_c, 0, 93, 35
1, 190105, Note_on_c, 0, 96, 101
1, 190107, Note_on_c, 0, 84, 99
1, 190108, Note_on_c, 0, 87, 98
1, 190108, Note_on_c, 0, 93, 95
1, 190424, Note_off_c, 0, 37, 58
1, 190439, Note_off_c, 0, 84, 45
1, 190477, Note_off_c, 0, 96, 53
1, 190513, Note_off_c, 0, 87, 50
1, 190543, Note_off_c, 0, 51, 60
1, 190589, Note_off_c, 0, 93, 0
1, 190600, Note_on_c, 0, 93, 65
1, 190618, Note_on_c, 0, 87, 104
1, 190618, Note_off_c, 0, 42, 56
1, 190619, Note_on_c, 0, 96, 99
1, 190621, Note_on_c, 0, 84, 100
1, 190653, Note_off_c, 0, 84, 68
1, 190682, Note_off_c, 0, 87, 68
1, 190689, Note_off_c, 0, 96, 69
1, 190700, Note_off_c, 0, 93, 66
1, 190957, Control_c, 0, 64, 91
1, 190963, Note_on_c, 0, 99, 109
1, 190966, Note_on_c, 0, 87, 104
1, 190971, Note_on_c, 0, 92, 94
1, 190972, Control_c, 0, 64, 0
1, 190972, Note_on_c, 0, 95, 89
1, 190975, Note_on_c, 0, 49, 98
1, 190979, Note_on_c, 0, 37, 88
1, 190980, Note_on_c, 0, 41, 84
1, 191013, Note_off_c, 0, 37, 65
1, 191016, Control_c, 0, 64, 68
1, 191029, Note_off_c, 0, 87, 67
1, 191031, Control_c, 0, 64, 117
1, 191032, Note_off_c, 0, 99, 68
1, 191035, Note_off_c, 0, 41, 62
1, 191035, Note_off_c, 0, 49, 67
1, 191046, Control_c, 0, 64, 127
1, 191047, Note_off_c, 0, 95, 68
1, 191056, Note_off_c, 0, 92, 68
1, 191094, Poly_aftertouch_c, 0, 43, 0
1, 191568, Note_on_c, 0, 75, 97
1, 191569, Note_on_c, 0, 87, 99
1, 191574, Note_on_c, 0, 83, 85
1, 191577, Note_on_c, 0, 71, 87
1, 191578, Note_on_c, 0, 80, 91
1, 191580, Note_on_c, 0, 68, 80
1, 191598, Note_off_c, 0, 75, 69
1, 191613, Note_off_c, 0, 71, 64
1, 191619, Note_off_c, 0, 68, 66
1, 191762, Note_off_c, 0, 87, 60
1, 191787, Note_off_c, 0, 83, 60
1, 191789, Note_off_c, 0, 80, 59
1, 191803, Poly_aftertouch_c, 0, 85, 127
1, 191828, Poly_aftertouch_c, 0, 85, 0
1, 192055, Note_on_c, 0, 65, 75
1, 192058, Note_on_c, 0, 77, 76
1, 192095, Note_on_c, 0, 75, 82
1, 192096, Note_on_c, 0, 63, 74
1, 192141, Note_on_c, 0, 68, 93
1, 192142, Note_on_c, 0, 80, 79
1, 192150, Note_on_c, 0, 71, 97
1, 192154, Note_on_c, 0, 83, 87
1, 192167, Note_off_c, 0, 65, 60
1, 192167, Note_off_c, 0, 71, 70
1, 192188, Note_off_c, 0, 68, 67
1, 192195, Note_off_c, 0, 63, 62
1, 192315, Note_off_c, 0, 83, 62
1, 192343, Note_off_c, 0, 75, 62
1, 192363, Note_off_c, 0, 77, 61
1, 192369, Note_off_c, 0, 80, 61
1, 192644, Note_on_c, 0, 71, 81
1, 192650, Note_on_c, 0, 59, 68
1, 192653, Note_on_c, 0, 56, 84
1, 192695, Note_on_c, 0, 68, 85
1, 192734, Note_on_c, 0, 65, 98
1, 192736, Control_c, 0, 64, 102
1, 192738, Note_on_c, 0, 75, 80
1, 192740, Note_on_c, 0, 62, 77
1, 192740, Note_on_c, 0, 63, 63
1, 192742, Note_on_c, 0, 77, 88
1, 192750, Control_c, 0, 64, 70
1, 192758, Note_off_c, 0, 65, 68
1, 192765, Control_c, 0, 64, 0
1, 192767, Note_off_c, 0, 63, 68
1, 192769, Note_off_c, 0, 56, 66
1, 192769, Note_off_c, 0, 59, 61
1, 192770, Note_off_c, 0, 62, 63
1, 192780, Control_c, 0, 64, 38
1, 192795, Control_c, 0, 64, 68
1, 192810, Control_c, 0, 64, 91
1, 192824, Control_c, 0, 64, 127
1, 192889, Note_off_c, 0, 77, 63
1, 192908, Note_off_c, 0, 68, 60
1, 192924, Note_off_c, 0, 71, 63
1, 192929, Note_off_c, 0, 75, 61
1, 193196, Note_on_c, 0, 65, 69
1, 193200, Note_on_c, 0, 53, 75
1, 193220, Note_on_c, 0, 63, 83
1, 193246, Note_on_c, 0, 51, 72
1, 193278, Control_c, 0, 64, 97
1, 193279, Note_on_c, 0, 68, 78
1, 193287, Note_on_c, 0, 56, 85
1, 193291, Note_on_c, 0, 71, 86
1, 193293, Control_c, 0, 64, 65
1, 193300, Note_on_c, 0, 59, 88
1, 193307, Control_c, 0, 64, 0
1, 193320, Note_off_c, 0, 59, 68
1, 193333, Note_off_c, 0, 53, 64
1, 193337, Control_c, 0, 64, 56
1, 193343, Note_off_c, 0, 56, 67
1, 193352, Control_c, 0, 64, 78
1, 193353, Note_off_c, 0, 51, 66
1, 193367, Control_c, 0, 64, 127
1, 193412, Note_off_c, 0, 71, 64
1, 193425, Note_off_c, 0, 63, 58
1, 193440, Note_off_c, 0, 65, 60
1, 193456, Note_off_c, 0, 68, 57
1, 193792, Note_on_c, 0, 61, 100
1, 193793, Note_on_c, 0, 49, 94
1, 193801, Note_on_c, 0, 37, 85
1, 193819, Control_c, 0, 64, 119
1, 193834, Control_c, 0, 64, 94
1, 193849, Control_c, 0, 64, 81
1, 193864, Control_c, 0, 64, 72
1, 193867, Note_off_c, 0, 49, 64
1, 193879, Control_c, 0, 64, 65
1, 193890, Note_off_c, 0, 37, 62
1, 193893, Control_c, 0, 64, 63
1, 193908, Control_c, 0, 64, 62
1, 193923, Control_c, 0, 64, 60
1, 193926, Note_off_c, 0, 61, 58
1, 193938, Control_c, 0, 64, 58
1, 193953, Control_c, 0, 64, 56
1, 193968, Control_c, 0, 64, 55
1, 194001, Note_on_c, 0, 47, 99
1, 194003, Note_on_c, 0, 35, 89
1, 194007, Note_on_c, 0, 59, 83
1, 194041, Note_off_c, 0, 47, 63
1, 194047, Note_off_c, 0, 35, 61
1, 194067, Note_off_c, 0, 59, 63
1, 194117, Control_c, 0, 64, 56
1, 194131, Control_c, 0, 64, 57
1, 194146, Control_c, 0, 64, 58
1, 194161, Control_c, 0, 64, 59
1, 194162, Note_on_c, 0, 46, 98
1, 194163, Note_on_c, 0, 34, 92
1, 194165, Note_on_c, 0, 58, 91
1, 194191, Control_c, 0, 64, 60
1, 194196, Note_off_c, 0, 46, 57
1, 194205, Control_c, 0, 64, 60
1, 194209, Note_off_c, 0, 34, 58
1, 194210, Note_off_c, 0, 58, 64
1, 194235, Control_c, 0, 64, 61
1, 194249, Control_c, 0, 64, 61
1, 194279, Control_c, 0, 64, 62
1, 194294, Note_on_c, 0, 44, 99
1, 194296, Note_on_c, 0, 56, 104
1, 194297, Note_on_c, 0, 32, 91
1, 194321, Note_off_c, 0, 44, 67
1, 194323, Note_off_c, 0, 32, 68
1, 194340, Note_off_c, 0, 56, 64
1, 194435, Control_c, 0, 64, 60
1, 194450, Control_c, 0, 64, 29
1, 194464, Control_c, 0, 64, 0
1, 194509, Note_on_c, 0, 54, 104
1, 194522, Note_on_c, 0, 42, 96
1, 194528, Note_on_c, 0, 30, 88
1, 194546, Note_off_c, 0, 54, 66
1, 194551, Note_off_c, 0, 30, 65
1, 194562, Note_off_c, 0, 42, 66
1, 194569, Control_c, 0, 64, 71
1, 194584, Control_c, 0, 64, 127
1, 195148, Note_on_c, 0, 82, 96
1, 195151, Note_on_c, 0, 73, 87
1, 195152, Note_on_c, 0, 70, 88
1, 195155, Note_on_c, 0, 66, 86
1, 195157, Note_on_c, 0, 54, 78
1, 195160, Note_on_c, 0, 61, 77
1, 195253, Note_off_c, 0, 70, 63
1, 195277, Note_off_c, 0, 54, 63
1, 195299, Note_off_c, 0, 73, 61
1, 195319, Note_off_c, 0, 66, 57
1, 195514, Note_on_c, 0, 56, 54
1, 195521, Note_off_c, 0, 61, 60
1, 195529, Note_off_c, 0, 82, 59
1, 195539, Note_on_c, 0, 80, 79
1, 195566, Note_on_c, 0, 58, 71
1, 195596, Note_off_c, 0, 58, 66
1, 195598, Note_off_c, 0, 56, 63
1, 195604, Note_on_c, 0, 78, 89
1, 195613, Note_off_c, 0, 80, 60
1, 195643, Note_off_c, 0, 78, 60
1, 195643, Control_c, 0, 64, 103
1, 195658, Control_c, 0, 64, 67
1, 195672, Note_on_c, 0, 87, 97
1, 195673, Control_c, 0, 64, 0
1, 195675, Note_on_c, 0, 78, 73
1, 195676, Note_on_c, 0, 68, 91
1, 195679, Note_on_c, 0, 59, 75
1, 195679, Note_on_c, 0, 75, 89
1, 195681, Note_on_c, 0, 66, 83
1, 195685, Note_on_c, 0, 80, 74
1, 195694, Note_off_c, 0, 68, 70
1, 195695, Note_off_c, 0, 59, 67
1, 195702, Control_c, 0, 64, 47
1, 195715, Note_on_c, 0, 85, 23
1, 195716, Note_off_c, 0, 85, 127
1, 195717, Note_off_c, 0, 66, 50
1, 195717, Control_c, 0, 64, 78
1, 195721, Note_off_c, 0, 75, 66
1, 195732, Control_c, 0, 64, 127
1, 195753, Note_off_c, 0, 87, 65
1, 195781, Note_off_c, 0, 80, 58
1, 195798, Note_off_c, 0, 78, 55
1, 196178, Note_on_c, 0, 47, 95
1, 196183, Note_on_c, 0, 35, 83
1, 196185, Control_c, 0, 64, 83
1, 196186, Note_on_c, 0, 59, 104
1, 196199, Control_c, 0, 64, 69
1, 196206, Note_off_c, 0, 35, 67
1, 196208, Note_off_c, 0, 47, 63
1, 196213, Note_off_c, 0, 59, 62
1, 196214, Control_c, 0, 64, 73
1, 196219, Note_on_c, 0, 57, 35
1, 196220, Note_off_c, 0, 57, 127
1, 196229, Control_c, 0, 64, 89
1, 196244, Control_c, 0, 64, 127
1, 196252, Poly_aftertouch_c, 0, 57, 0
1, 196445, Note_on_c, 0, 68, 84
1, 196448, Note_on_c, 0, 87, 88
1, 196451, Note_on_c, 0, 75, 74
1, 196453, Note_on_c, 0, 66, 69
1, 196454, Note_on_c, 0, 59, 75
1, 196455, Note_on_c, 0, 80, 76
1, 196456, Note_on_c, 0, 78, 82
1, 196462, Note_off_c, 0, 68, 71
1, 196480, Note_off_c, 0, 66, 67
1, 196483, Note_off_c, 0, 59, 64
1, 196493, Note_off_c, 0, 75, 64
1, 196498, Note_on_c, 0, 85, 19
1, 196502, Note_off_c, 0, 87, 67
1, 196522, Note_off_c, 0, 78, 63
1, 196522, Note_off_c, 0, 80, 62
1, 196546, Note_off_c, 0, 85, 49
1, 196681, Control_c, 0, 64, 90
1, 196695, Control_c, 0, 64, 29
1, 196710, Control_c, 0, 64, 0
1, 196731, Note_on_c, 0, 49, 99
1, 196733, Note_on_c, 0, 61, 104
1, 196738, Note_on_c, 0, 37, 78
1, 196740, Control_c, 0, 64, 53
1, 196755, Control_c, 0, 64, 82
1, 196757, Note_off_c, 0, 49, 65
1, 196765, Note_off_c, 0, 37, 65
1, 196767, Note_off_c, 0, 61, 60
1, 196770, Control_c, 0, 64, 127
1, 196952, Note_on_c, 0, 56, 71
1, 196992, Note_on_c, 0, 61, 68
1, 197005, Note_on_c, 0, 65, 60
1, 197027, Note_off_c, 0, 56, 65
1, 197071, Note_on_c, 0, 77, 83
1, 197071, Note_on_c, 0, 80, 82
1, 197071, Note_on_c, 0, 87, 100
1, 197072, Note_on_c, 0, 75, 94
1, 197074, Note_on_c, 0, 71, 97
1, 197101, Note_on_c, 0, 85, 52
1, 197125, Note_off_c, 0, 85, 60
1, 197131, Note_off_c, 0, 71, 65
1, 197155, Note_off_c, 0, 87, 68
1, 197174, Note_off_c, 0, 75, 58
1, 197260, Note_on_c, 0, 56, 62
1, 197262, Note_off_c, 0, 77, 0
1, 197283, Note_off_c, 0, 56, 67
1, 197285, Note_on_c, 0, 77, 41
1, 197302, Note_on_c, 0, 85, 97
1, 197304, Note_on_c, 0, 73, 104
1, 197315, Note_on_c, 0, 71, 90
1, 197334, Note_off_c, 0, 71, 66
1, 197351, Note_off_c, 0, 85, 68
1, 197356, Note_off_c, 0, 77, 63
1, 197359, Note_off_c, 0, 73, 65
1, 197365, Note_off_c, 0, 80, 64
1, 197459, Note_off_c, 0, 65, 0
1, 197469, Note_on_c, 0, 56, 57
1, 197485, Note_on_c, 0, 65, 12
1, 197534, Control_c, 0, 64, 100
1, 197545, Note_off_c, 0, 56, 63
1, 197549, Control_c, 0, 64, 78
1, 197551, Note_on_c, 0, 83, 90
1, 197553, Note_on_c, 0, 73, 86
1, 197557, Note_on_c, 0, 71, 83
1, 197558, Note_on_c, 0, 68, 90
1, 197563, Control_c, 0, 64, 72
1, 197566, Note_on_c, 0, 77, 73
1, 197575, Note_off_c, 0, 68, 72
1, 197578, Control_c, 0, 64, 82
1, 197593, Control_c, 0, 64, 107
1, 197595, Note_off_c, 0, 71, 66
1, 197596, Note_off_c, 0, 65, 59
1, 197608, Note_off_c, 0, 61, 62
1, 197608, Control_c, 0, 64, 127
1, 197611, Note_off_c, 0, 83, 66
1, 197625, Note_off_c, 0, 77, 64
1, 197629, Note_off_c, 0, 73, 62
1, 197846, Control_c, 0, 64, 101
1, 197861, Control_c, 0, 64, 65
1, 197876, Control_c, 0, 64, 0
1, 197882, Note_on_c, 0, 54, 105
1, 197889, Note_on_c, 0, 42, 99
1, 197897, Note_on_c, 0, 30, 80
1, 197920, Note_off_c, 0, 30, 65
1, 197920, Control_c, 0, 64, 69
1, 197924, Note_off_c, 0, 54, 67
1, 197931, Note_off_c, 0, 42, 66
1, 197935, Control_c, 0, 64, 110
1, 197950, Control_c, 0, 64, 127
1, 198459, Note_on_c, 0, 82, 95
1, 198462, Note_on_c, 0, 70, 81
1, 198463, Note_on_c, 0, 73, 83
1, 198469, Note_on_c, 0, 54, 81
1, 198471, Note_on_c, 0, 66, 85
1, 198479, Note_on_c, 0, 61, 74
1, 198569, Note_off_c, 0, 70, 63
1, 198593, Note_off_c, 0, 73, 62
1, 198608, Note_off_c, 0, 54, 64
1, 198667, Note_off_c, 0, 66, 49
1, 198827, Note_off_c, 0, 61, 61
1, 198832, Note_on_c, 0, 56, 69
1, 198837, Note_on_c, 0, 80, 73
1, 198839, Note_off_c, 0, 82, 63
1, 198876, Note_on_c, 0, 58, 68
1, 198908, Note_off_c, 0, 56, 64
1, 198908, Note_off_c, 0, 80, 61
1, 198909, Note_on_c, 0, 78, 86
1, 198910, Note_off_c, 0, 58, 65
1, 198926, Note_off_c, 0, 78, 71
1, 198973, Control_c, 0, 64, 83
1, 198988, Control_c, 0, 64, 0
1, 198988, Note_on_c, 0, 68, 90
1, 198994, Note_on_c, 0, 60, 73
1, 198994, Note_on_c, 0, 90, 101
1, 198995, Note_on_c, 0, 66, 77
1, 198995, Note_on_c, 0, 78, 92
1, 198997, Note_on_c, 0, 80, 93
1, 199006, Note_off_c, 0, 68, 70
1, 199007, Note_on_c, 0, 87, 78
1, 199011, Note_off_c, 0, 60, 68
1, 199027, Note_off_c, 0, 66, 62
1, 199029, Note_off_c, 0, 78, 53
1, 199032, Control_c, 0, 64, 64
1, 199046, Control_c, 0, 64, 84
1, 199055, Note_off_c, 0, 90, 68
1, 199061, Control_c, 0, 64, 127
1, 199086, Note_off_c, 0, 80, 52
1, 199093, Note_off_c, 0, 87, 64
1, 199521, Note_on_c, 0, 32, 81
1, 199521, Control_c, 0, 64, 86
1, 199522, Note_on_c, 0, 56, 103
1, 199525, Note_on_c, 0, 44, 81
1, 199536, Control_c, 0, 64, 64
1, 199550, Control_c, 0, 64, 55
1, 199551, Note_off_c, 0, 56, 62
1, 199551, Note_off_c, 0, 32, 65
1, 199554, Note_off_c, 0, 44, 67
1, 199565, Control_c, 0, 64, 67
1, 199580, Control_c, 0, 64, 83
1, 199602, Control_c, 0, 64, 127
1, 199797, Note_on_c, 0, 90, 99
1, 199798, Note_on_c, 0, 68, 82
1, 199799, Note_on_c, 0, 78, 88
1, 199805, Note_on_c, 0, 87, 89
1, 199807, Note_on_c, 0, 80, 85
1, 199808, Note_on_c, 0, 60, 71
1, 199812, Note_on_c, 0, 66, 70
1, 199816, Note_off_c, 0, 68, 70
1, 199831, Note_off_c, 0, 60, 68
1, 199832, Note_off_c, 0, 66, 66
1, 199835, Note_off_c, 0, 78, 66
1, 199849, Note_off_c, 0, 90, 67
1, 199869, Note_off_c, 0, 87, 65
1, 199870, Note_off_c, 0, 80, 62
1, 200032, Control_c, 0, 64, 96
1, 200047, Control_c, 0, 64, 63
1, 200062, Control_c, 0, 64, 0
1, 200085, Note_on_c, 0, 61, 110
1, 200086, Note_on_c, 0, 49, 98
1, 200097, Note_on_c, 0, 37, 72
1, 200106, Control_c, 0, 64, 74
1, 200107, Note_off_c, 0, 61, 69
1, 200116, Note_off_c, 0, 49, 63
1, 200122, Control_c, 0, 64, 127
1, 200128, Note_off_c, 0, 37, 64
1, 200308, Note_on_c, 0, 56, 69
1, 200334, Note_on_c, 0, 61, 68
1, 200360, Note_on_c, 0, 65, 61
1, 200377, Note_off_c, 0, 56, 64
1, 200425, Note_on_c, 0, 89, 95
1, 200428, Note_on_c, 0, 80, 83
1, 200429, Note_on_c, 0, 83, 79
1, 200430, Note_on_c, 0, 77, 87
1, 200434, Note_on_c, 0, 71, 88
1, 200487, Note_off_c, 0, 71, 66
1, 200532, Note_off_c, 0, 77, 61
1, 200532, Note_off_c, 0, 89, 62
1, 200564, Note_off_c, 0, 65, 37
1, 200621, Note_on_c, 0, 56, 61
1, 200654, Note_off_c, 0, 56, 67
1, 200668, Note_on_c, 0, 65, 54
1, 200698, Note_on_c, 0, 87, 99
1, 200700, Note_off_c, 0, 83, 0
1, 200700, Note_on_c, 0, 83, 28
1, 200702, Note_on_c, 0, 71, 95
1, 200703, Note_on_c, 0, 75, 98
1, 200738, Note_off_c, 0, 71, 65
1, 200749, Note_off_c, 0, 83, 63
1, 200761, Note_off_c, 0, 87, 68
1, 200763, Note_off_c, 0, 80, 62
1, 200767, Note_off_c, 0, 75, 61
1, 200785, Note_off_c, 0, 65, 58
1, 200800, Note_off_c, 0, 61, 56
1, 200854, Note_on_c, 0, 56, 73
1, 200878, Note_on_c, 0, 61, 41
1, 200887, Note_on_c, 0, 65, 30
1, 200910, Note_off_c, 0, 56, 63
1, 200950, Note_on_c, 0, 85, 96
1, 200955, Note_on_c, 0, 71, 92
1, 200958, Note_on_c, 0, 73, 95
1, 200958, Note_on_c, 0, 80, 81
1, 200961, Note_on_c, 0, 77, 74
1, 200972, Note_off_c, 0, 71, 76
1, 200995, Note_off_c, 0, 65, 63
1, 201010, Note_off_c, 0, 73, 66
1, 201026, Note_off_c, 0, 61, 50
1, 201034, Note_off_c, 0, 85, 67
1, 201053, Note_off_c, 0, 77, 59
1, 201094, Note_off_c, 0, 80, 56
1, 201248, Control_c, 0, 67, 8
1, 201263, Control_c, 0, 67, 15
1, 201278, Control_c, 0, 67, 28
1, 201293, Control_c, 0, 67, 45
1, 201308, Control_c, 0, 64, 102
1, 201308, Control_c, 0, 67, 58
1, 201322, Control_c, 0, 64, 86
1, 201322, Control_c, 0, 67, 69
1, 201337, Control_c, 0, 64, 70
1, 201337, Control_c, 0, 67, 78
1, 201352, Control_c, 0, 64, 55
1, 201352, Control_c, 0, 67, 88
1, 201367, Control_c, 0, 64, 0
1, 201367, Control_c, 0, 67, 98
1, 201382, Control_c, 0, 67, 108
1, 201396, Control_c, 0, 67, 115
1, 201402, Note_on_c, 0, 30, 35
1, 201411, Control_c, 0, 67, 121
1, 201426, Control_c, 0, 67, 126
1, 201441, Control_c, 0, 67, 127
1, 201575, Control_c, 0, 64, 56
1, 201589, Control_c, 0, 64, 66
1, 201604, Control_c, 0, 64, 72
1, 201619, Control_c, 0, 64, 79
1, 201634, Control_c, 0, 64, 88
1, 201643, Note_off_c, 0, 30, 54
1, 201648, Control_c, 0, 64, 101
1, 201663, Control_c, 0, 64, 127
1, 201694, Note_on_c, 0, 82, 51
1, 201699, Note_on_c, 0, 70, 36
1, 201706, Note_on_c, 0, 78, 44
1, 201727, Note_on_c, 0, 73, 34
1, 201960, Note_on_c, 0, 58, 55
1, 202004, Note_off_c, 0, 70, 35
1, 202049, Note_off_c, 0, 78, 32
1, 202049, Note_off_c, 0, 73, 42
1, 202061, Note_off_c, 0, 82, 36
1, 202234, Note_on_c, 0, 70, 33
1, 202236, Note_on_c, 0, 82, 44
1, 202240, Note_on_c, 0, 73, 34
1, 202253, Note_on_c, 0, 78, 34
1, 202368, Note_on_c, 0, 56, 41
1, 202380, Note_off_c, 0, 70, 28
1, 202402, Note_off_c, 0, 58, 35
1, 202416, Note_off_c, 0, 56, 57
1, 202441, Note_on_c, 0, 54, 47
1, 202444, Note_off_c, 0, 82, 34
1, 202476, Note_off_c, 0, 78, 36
1, 202479, Note_off_c, 0, 54, 60
1, 202521, Note_off_c, 0, 73, 30
1, 202728, Note_on_c, 0, 73, 38
1, 202729, Note_on_c, 0, 82, 53
1, 202750, Note_on_c, 0, 78, 37
1, 202772, Poly_aftertouch_c, 0, 70, 127
1, 202803, Note_off_c, 0, 73, 58
1, 202811, Note_off_c, 0, 78, 40
1, 202812, Poly_aftertouch_c, 0, 70, 0
1, 202827, Note_off_c, 0, 82, 55
1, 202954, Control_c, 0, 64, 114
1, 202967, Note_on_c, 0, 37, 54
1, 202968, Control_c, 0, 64, 90
1, 202983, Control_c, 0, 64, 72
1, 202998, Control_c, 0, 64, 50
1, 203012, Control_c, 0, 64, 0
1, 203072, Control_c, 0, 64, 48
1, 203087, Control_c, 0, 64, 62
1, 203101, Control_c, 0, 64, 66
1, 203116, Control_c, 0, 64, 70
1, 203131, Control_c, 0, 64, 74
1, 203146, Control_c, 0, 64, 81
1, 203154, Note_off_c, 0, 37, 63
1, 203161, Control_c, 0, 64, 88
1, 203176, Control_c, 0, 64, 96
1, 203191, Control_c, 0, 64, 104
1, 203206, Control_c, 0, 64, 112
1, 203218, Note_on_c, 0, 80, 51
1, 203220, Control_c, 0, 64, 127
1, 203223, Note_on_c, 0, 73, 49
1, 203223, Note_on_c, 0, 85, 60
1, 203227, Note_on_c, 0, 77, 47
1, 203462, Note_on_c, 0, 56, 59
1, 203597, Note_off_c, 0, 73, 45
1, 203618, Note_off_c, 0, 85, 53
1, 203640, Note_off_c, 0, 80, 32
1, 203647, Note_off_c, 0, 77, 38
1, 203745, Note_on_c, 0, 85, 54
1, 203761, Note_on_c, 0, 80, 50
1, 203768, Note_on_c, 0, 77, 42
1, 203781, Note_on_c, 0, 73, 10
1, 203877, Note_off_c, 0, 73, 33
1, 203895, Note_on_c, 0, 54, 34
1, 203917, Note_off_c, 0, 56, 38
1, 203936, Note_off_c, 0, 54, 56
1, 203970, Note_on_c, 0, 53, 48
1, 204020, Note_off_c, 0, 53, 60
1, 204037, Note_off_c, 0, 85, 36
1, 204061, Note_off_c, 0, 80, 23
1, 204127, Note_off_c, 0, 77, 35
1, 204139, Control_c, 0, 67, 127
1, 204154, Control_c, 0, 67, 124
1, 204169, Control_c, 0, 67, 121
1, 204184, Control_c, 0, 67, 116
1, 204199, Control_c, 0, 67, 112
1, 204213, Control_c, 0, 67, 109
1, 204228, Note_on_c, 0, 85, 64
1, 204228, Control_c, 0, 67, 106
1, 204231, Note_on_c, 0, 77, 41
1, 204233, Note_on_c, 0, 80, 48
1, 204240, Note_on_c, 0, 73, 34
1, 204243, Control_c, 0, 67, 104
1, 204258, Control_c, 0, 67, 104
1, 204273, Control_c, 0, 67, 103
1, 204273, Note_off_c, 0, 73, 54
1, 204290, Note_off_c, 0, 77, 58
1, 204303, Control_c, 0, 67, 104
1, 204318, Control_c, 0, 67, 104
1, 204322, Note_off_c, 0, 80, 59
1, 204327, Note_off_c, 0, 85, 56
1, 204333, Control_c, 0, 67, 105
1, 204347, Control_c, 0, 67, 106
1, 204362, Control_c, 0, 67, 107
1, 204377, Control_c, 0, 67, 108
1, 204392, Control_c, 0, 67, 109
1, 204407, Control_c, 0, 67, 109
1, 204421, Control_c, 0, 67, 110
1, 204436, Control_c, 0, 64, 103
1, 204436, Control_c, 0, 67, 110
1, 204451, Control_c, 0, 64, 82
1, 204461, Note_on_c, 0, 34, 60
1, 204465, Control_c, 0, 64, 65
1, 204465, Control_c, 0, 67, 111
1, 204480, Control_c, 0, 64, 47
1, 204495, Control_c, 0, 64, 43
1, 204510, Control_c, 0, 64, 52
1, 204525, Control_c, 0, 64, 61
1, 204539, Control_c, 0, 64, 66
1, 204539, Control_c, 0, 67, 110
1, 204554, Control_c, 0, 64, 70
1, 204569, Control_c, 0, 64, 76
1, 204569, Control_c, 0, 67, 109
1, 204584, Control_c, 0, 64, 82
1, 204584, Control_c, 0, 67, 109
1, 204599, Control_c, 0, 64, 89
1, 204599, Control_c, 0, 67, 108
1, 204613, Control_c, 0, 64, 98
1, 204613, Control_c, 0, 67, 107
1, 204628, Control_c, 0, 64, 110
1, 204628, Control_c, 0, 67, 106
1, 204643, Control_c, 0, 64, 127
1, 204643, Control_c, 0, 67, 105
1, 204649, Note_off_c, 0, 34, 61
1, 204657, Control_c, 0, 67, 105
1, 204672, Control_c, 0, 67, 104
1, 204687, Control_c, 0, 67, 103
1, 204702, Control_c, 0, 67, 102
1, 204710, Note_on_c, 0, 90, 76
1, 204717, Control_c, 0, 67, 101
1, 204718, Note_on_c, 0, 78, 54
1, 204718, Note_on_c, 0, 85, 57
1, 204723, Note_on_c, 0, 82, 54
1, 204732, Control_c, 0, 67, 97
1, 204747, Control_c, 0, 67, 91
1, 204762, Control_c, 0, 67, 84
1, 204777, Control_c, 0, 67, 74
1, 204791, Control_c, 0, 67, 67
1, 204806, Control_c, 0, 67, 61
1, 204821, Control_c, 0, 67, 56
1, 204843, Control_c, 0, 67, 53
1, 204858, Control_c, 0, 67, 50
1, 204872, Control_c, 0, 67, 48
1, 204887, Control_c, 0, 67, 47
1, 204902, Control_c, 0, 67, 46
1, 204974, Note_on_c, 0, 61, 69
1, 205125, Control_c, 0, 67, 47
1, 205133, Note_off_c, 0, 78, 51
1, 205140, Control_c, 0, 67, 47
1, 205155, Control_c, 0, 67, 48
1, 205162, Note_off_c, 0, 82, 52
1, 205168, Note_off_c, 0, 90, 56
1, 205169, Control_c, 0, 67, 48
1, 205180, Note_off_c, 0, 85, 45
1, 205184, Control_c, 0, 67, 49
1, 205199, Control_c, 0, 67, 49
1, 205228, Control_c, 0, 67, 50
1, 205243, Control_c, 0, 67, 50
1, 205258, Control_c, 0, 67, 51
1, 205273, Control_c, 0, 67, 52
1, 205277, Note_on_c, 0, 90, 67
1, 205285, Note_on_c, 0, 82, 56
1, 205285, Note_on_c, 0, 85, 58
1, 205287, Control_c, 0, 67, 53
1, 205292, Note_on_c, 0, 78, 27
1, 205302, Control_c, 0, 67, 53
1, 205317, Control_c, 0, 67, 54
1, 205332, Control_c, 0, 67, 55
1, 205347, Control_c, 0, 67, 55
1, 205361, Control_c, 0, 67, 56
1, 205376, Control_c, 0, 67, 57
1, 205391, Control_c, 0, 67, 58
1, 205406, Control_c, 0, 67, 58
1, 205406, Note_on_c, 0, 59, 49
1, 205419, Note_off_c, 0, 78, 40
1, 205421, Control_c, 0, 67, 60
1, 205427, Note_off_c, 0, 61, 50
1, 205435, Control_c, 0, 67, 63
1, 205450, Control_c, 0, 67, 67
1, 205457, Note_off_c, 0, 90, 37
1, 205465, Control_c, 0, 67, 73
1, 205477, Note_off_c, 0, 59, 59
1, 205480, Control_c, 0, 67, 79
1, 205490, Note_off_c, 0, 85, 35
1, 205494, Note_on_c, 0, 58, 60
1, 205495, Control_c, 0, 67, 86
1, 205498, Note_off_c, 0, 82, 30
1, 205510, Control_c, 0, 67, 93
1, 205525, Note_off_c, 0, 58, 65
1, 205525, Control_c, 0, 67, 99
1, 205540, Control_c, 0, 67, 104
1, 205554, Control_c, 0, 67, 108
1, 205569, Control_c, 0, 67, 113
1, 205591, Control_c, 0, 67, 117
1, 205606, Control_c, 0, 67, 121
1, 205620, Control_c, 0, 67, 125
1, 205635, Control_c, 0, 67, 127
1, 205758, Note_on_c, 0, 90, 65
1, 205766, Note_on_c, 0, 78, 52
1, 205773, Note_on_c, 0, 85, 52
1, 205774, Note_on_c, 0, 82, 49
1, 205840, Note_off_c, 0, 78, 55
1, 205876, Note_off_c, 0, 90, 57
1, 205896, Note_off_c, 0, 85, 56
1, 205917, Note_off_c, 0, 82, 47
1, 205948, Control_c, 0, 64, 114
1, 205963, Control_c, 0, 64, 103
1, 205978, Control_c, 0, 64, 92
1, 205993, Control_c, 0, 64, 79
1, 206008, Control_c, 0, 64, 67
1, 206010, Note_on_c, 0, 36, 41
1, 206023, Control_c, 0, 64, 31
1, 206037, Control_c, 0, 64, 0
1, 206097, Control_c, 0, 64, 26
1, 206111, Control_c, 0, 64, 59
1, 206126, Control_c, 0, 64, 66
1, 206141, Control_c, 0, 64, 71
1, 206156, Control_c, 0, 64, 76
1, 206171, Control_c, 0, 64, 84
1, 206185, Control_c, 0, 64, 91
1, 206200, Control_c, 0, 64, 99
1, 206208, Note_off_c, 0, 36, 45
1, 206215, Control_c, 0, 64, 107
1, 206229, Control_c, 0, 64, 117
1, 206244, Control_c, 0, 64, 127
1, 206276, Note_on_c, 0, 88, 55
1, 206289, Note_on_c, 0, 82, 44
1, 206292, Note_on_c, 0, 84, 36
1, 206300, Note_on_c, 0, 76, 22
1, 206523, Note_on_c, 0, 58, 48
1, 206595, Note_off_c, 0, 88, 48
1, 206607, Note_off_c, 0, 76, 42
1, 206614, Note_off_c, 0, 82, 43
1, 206619, Note_off_c, 0, 84, 42
1, 206817, Note_on_c, 0, 88, 46
1, 206825, Note_on_c, 0, 84, 36
1, 206825, Note_on_c, 0, 82, 35
1, 206833, Note_on_c, 0, 76, 30
1, 206949, Note_on_c, 0, 56, 26
1, 206960, Note_off_c, 0, 58, 37
1, 206964, Note_off_c, 0, 82, 45
1, 206965, Note_off_c, 0, 76, 42
1, 206971, Note_off_c, 0, 88, 39
1, 206986, Note_off_c, 0, 84, 42
1, 206989, Note_off_c, 0, 56, 45
1, 206997, Note_on_c, 0, 55, 52
1, 207035, Note_off_c, 0, 55, 59
1, 207149, Control_c, 0, 64, 119
1, 207164, Control_c, 0, 64, 116
1, 207179, Control_c, 0, 64, 113
1, 207193, Control_c, 0, 64, 111
1, 207208, Control_c, 0, 64, 109
1, 207223, Control_c, 0, 64, 108
1, 207238, Control_c, 0, 64, 107
1, 207253, Control_c, 0, 64, 106
1, 207267, Control_c, 0, 64, 104
1, 207281, Note_on_c, 0, 88, 57
1, 207282, Control_c, 0, 64, 103
1, 207294, Note_on_c, 0, 84, 44
1, 207296, Note_on_c, 0, 82, 46
1, 207296, Note_on_c, 0, 76, 41
1, 207297, Control_c, 0, 64, 102
1, 207313, Control_c, 0, 64, 101
1, 207328, Control_c, 0, 64, 100
1, 207343, Control_c, 0, 64, 98
1, 207357, Control_c, 0, 64, 97
1, 207372, Control_c, 0, 64, 96
1, 207387, Control_c, 0, 64, 95
1, 207402, Control_c, 0, 64, 93
1, 207416, Control_c, 0, 64, 92
1, 207429, Note_off_c, 0, 76, 42
1, 207431, Control_c, 0, 64, 90
1, 207445, Note_off_c, 0, 88, 37
1, 207446, Control_c, 0, 64, 86
1, 207461, Control_c, 0, 64, 80
1, 207465, Note_off_c, 0, 82, 62
1, 207468, Note_off_c, 0, 84, 39
1, 207476, Control_c, 0, 64, 70
1, 207490, Control_c, 0, 64, 56
1, 207505, Control_c, 0, 64, 0
1, 207528, Note_on_c, 0, 35, 44
1, 207594, Control_c, 0, 64, 42
1, 207609, Control_c, 0, 64, 63
1, 207623, Control_c, 0, 64, 67
1, 207638, Control_c, 0, 64, 71
1, 207653, Control_c, 0, 64, 76
1, 207668, Control_c, 0, 64, 83
1, 207683, Control_c, 0, 64, 91
1, 207698, Control_c, 0, 64, 103
1, 207707, Note_off_c, 0, 35, 50
1, 207713, Control_c, 0, 64, 118
1, 207728, Control_c, 0, 64, 127
1, 207775, Note_on_c, 0, 89, 62
1, 207781, Note_on_c, 0, 85, 50
1, 207788, Note_on_c, 0, 77, 45
1, 207791, Note_on_c, 0, 80, 41
1, 208046, Note_on_c, 0, 56, 55
1, 208098, Note_off_c, 0, 77, 38
1, 208121, Note_off_c, 0, 89, 50
1, 208131, Note_off_c, 0, 85, 57
1, 208135, Note_off_c, 0, 80, 55
1, 208283, Note_on_c, 0, 85, 49
1, 208286, Note_on_c, 0, 89, 58
1, 208294, Note_on_c, 0, 80, 43
1, 208301, Note_on_c, 0, 77, 42
1, 208370, Note_off_c, 0, 56, 56
1, 208395, Note_on_c, 0, 54, 48
1, 208413, Note_off_c, 0, 77, 32
1, 208437, Note_off_c, 0, 54, 65
1, 208468, Note_on_c, 0, 53, 48
1, 208478, Note_off_c, 0, 85, 46
1, 208495, Note_off_c, 0, 80, 40
1, 208497, Note_off_c, 0, 53, 57
1, 208497, Note_off_c, 0, 89, 29
1, 208566, Note_on_c, 0, 68, 55
1, 208659, Note_off_c, 0, 68, 59
1, 208765, Control_c, 0, 64, 123
1, 208780, Control_c, 0, 64, 118
1, 208795, Control_c, 0, 64, 114
1, 208810, Control_c, 0, 64, 110
1, 208819, Note_on_c, 0, 89, 66
1, 208820, Note_on_c, 0, 85, 57
1, 208825, Control_c, 0, 64, 107
1, 208828, Note_on_c, 0, 80, 51
1, 208834, Note_on_c, 0, 77, 52
1, 208839, Control_c, 0, 64, 103
1, 208854, Control_c, 0, 64, 100
1, 208869, Control_c, 0, 64, 96
1, 208884, Control_c, 0, 64, 92
1, 208899, Control_c, 0, 64, 87
1, 208914, Control_c, 0, 64, 83
1, 208920, Note_off_c, 0, 77, 51
1, 208929, Control_c, 0, 64, 78
1, 208944, Control_c, 0, 64, 69
1, 208959, Control_c, 0, 64, 58
1, 208974, Control_c, 0, 64, 0
1, 208974, Note_off_c, 0, 89, 55
1, 208995, Note_off_c, 0, 80, 61
1, 209014, Note_off_c, 0, 85, 57
1, 209048, Note_on_c, 0, 34, 62
1, 209122, Control_c, 0, 64, 56
1, 209136, Control_c, 0, 64, 66
1, 209151, Control_c, 0, 64, 71
1, 209166, Control_c, 0, 64, 77
1, 209180, Control_c, 0, 64, 85
1, 209195, Control_c, 0, 64, 93
1, 209210, Control_c, 0, 64, 104
1, 209225, Control_c, 0, 64, 127
1, 209241, Note_off_c, 0, 34, 61
1, 209287, Note_on_c, 0, 90, 73
1, 209297, Note_on_c, 0, 85, 63
1, 209301, Note_on_c, 0, 78, 54
1, 209366, Control_c, 0, 67, 124
1, 209380, Control_c, 0, 67, 119
1, 209395, Control_c, 0, 67, 114
1, 209410, Control_c, 0, 67, 107
1, 209425, Control_c, 0, 67, 100
1, 209440, Control_c, 0, 67, 92
1, 209454, Control_c, 0, 67, 83
1, 209469, Control_c, 0, 67, 74
1, 209484, Control_c, 0, 67, 68
1, 209499, Control_c, 0, 67, 62
1, 209514, Control_c, 0, 67, 58
1, 209528, Control_c, 0, 67, 56
1, 209543, Control_c, 0, 67, 54
1, 209552, Note_on_c, 0, 58, 70
1, 209558, Control_c, 0, 67, 52
1, 209573, Control_c, 0, 67, 52
1, 209668, Note_off_c, 0, 78, 57
1, 209692, Control_c, 0, 67, 52
1, 209698, Note_off_c, 0, 90, 56
1, 209702, Note_off_c, 0, 85, 60
1, 209707, Control_c, 0, 67, 53
1, 209722, Control_c, 0, 67, 54
1, 209737, Control_c, 0, 67, 54
1, 209752, Control_c, 0, 67, 55
1, 209782, Control_c, 0, 67, 56
1, 209809, Note_on_c, 0, 90, 69
1, 209817, Note_on_c, 0, 85, 64
1, 209827, Note_on_c, 0, 78, 46
1, 209926, Note_off_c, 0, 58, 58
1, 209931, Note_on_c, 0, 56, 58
1, 209945, Control_c, 0, 67, 55
1, 209975, Note_off_c, 0, 56, 57
1, 209982, Note_on_c, 0, 54, 62
1, 209989, Control_c, 0, 67, 55
1, 210003, Control_c, 0, 67, 54
1, 210013, Note_off_c, 0, 85, 55
1, 210019, Note_off_c, 0, 54, 67
1, 210035, Note_off_c, 0, 78, 49
1, 210062, Note_off_c, 0, 90, 53
1, 210092, Note_on_c, 0, 70, 73
1, 210187, Note_off_c, 0, 70, 62
1, 210307, Control_c, 0, 67, 55
1, 210322, Control_c, 0, 67, 56
1, 210328, Note_on_c, 0, 90, 80
1, 210337, Control_c, 0, 67, 56
1, 210338, Note_on_c, 0, 85, 62
1, 210339, Note_on_c, 0, 78, 63
1, 210351, Control_c, 0, 67, 57
1, 210366, Control_c, 0, 64, 115
1, 210366, Control_c, 0, 67, 57
1, 210381, Control_c, 0, 64, 109
1, 210381, Control_c, 0, 67, 58
1, 210396, Control_c, 0, 64, 103
1, 210411, Control_c, 0, 64, 98
1, 210411, Control_c, 0, 67, 58
1, 210426, Control_c, 0, 64, 94
1, 210426, Control_c, 0, 67, 59
1, 210440, Control_c, 0, 64, 90
1, 210440, Control_c, 0, 67, 59
1, 210455, Control_c, 0, 64, 83
1, 210470, Control_c, 0, 64, 75
1, 210470, Control_c, 0, 67, 60
1, 210482, Note_off_c, 0, 78, 60
1, 210485, Control_c, 0, 64, 64
1, 210500, Control_c, 0, 64, 0
1, 210548, Note_off_c, 0, 85, 61
1, 210548, Note_off_c, 0, 90, 57
1, 210569, Note_on_c, 0, 30, 75
1, 210634, Control_c, 0, 64, 14
1, 210649, Control_c, 0, 64, 57
1, 210664, Control_c, 0, 64, 65
1, 210664, Control_c, 0, 67, 59
1, 210679, Control_c, 0, 64, 71
1, 210694, Control_c, 0, 64, 77
1, 210694, Control_c, 0, 67, 59
1, 210708, Control_c, 0, 64, 87
1, 210708, Control_c, 0, 67, 58
1, 210723, Control_c, 0, 64, 101
1, 210738, Control_c, 0, 64, 127
1, 210745, Note_off_c, 0, 30, 62
1, 210768, Control_c, 0, 67, 58
1, 210821, Note_on_c, 0, 94, 81
1, 210823, Note_on_c, 0, 90, 73
1, 210836, Note_on_c, 0, 82, 69
1, 210837, Note_on_c, 0, 85, 69
1, 210879, Control_c, 0, 67, 57
1, 211129, Note_on_c, 0, 58, 33
1, 211138, Note_on_c, 0, 61, 74
1, 211178, Note_off_c, 0, 58, 47
1, 211262, Note_off_c, 0, 82, 51
1, 211291, Note_off_c, 0, 94, 54
1, 211300, Note_off_c, 0, 90, 55
1, 211307, Note_off_c, 0, 85, 58
1, 211418, Note_on_c, 0, 90, 64
1, 211419, Note_on_c, 0, 85, 63
1, 211423, Note_on_c, 0, 94, 67
1, 211426, Note_on_c, 0, 82, 58
1, 211517, Note_off_c, 0, 61, 59
1, 211528, Note_on_c, 0, 59, 57
1, 211561, Control_c, 0, 67, 58
1, 211595, Note_off_c, 0, 82, 49
1, 211598, Control_c, 0, 67, 58
1, 211608, Note_off_c, 0, 59, 60
1, 211613, Control_c, 0, 67, 59
1, 211615, Note_on_c, 0, 58, 64
1, 211622, Note_off_c, 0, 85, 50
1, 211628, Control_c, 0, 67, 59
1, 211636, Note_off_c, 0, 90, 48
1, 211643, Control_c, 0, 67, 60
1, 211654, Note_off_c, 0, 94, 35
1, 211657, Control_c, 0, 67, 60
1, 211672, Note_off_c, 0, 58, 58
1, 211672, Control_c, 0, 67, 61
1, 211687, Control_c, 0, 67, 62
1, 211702, Control_c, 0, 67, 62
1, 211717, Control_c, 0, 67, 64
1, 211731, Control_c, 0, 67, 64
1, 211743, Note_on_c, 0, 73, 70
1, 211746, Control_c, 0, 67, 66
1, 211761, Control_c, 0, 67, 69
1, 211776, Control_c, 0, 67, 73
1, 211791, Control_c, 0, 67, 78
1, 211806, Control_c, 0, 67, 82
1, 211821, Control_c, 0, 67, 86
1, 211835, Control_c, 0, 67, 91
1, 211850, Control_c, 0, 67, 96
1, 211859, Note_off_c, 0, 73, 62
1, 211865, Control_c, 0, 67, 102
1, 211880, Control_c, 0, 67, 107
1, 211895, Control_c, 0, 64, 119
1, 211895, Control_c, 0, 67, 111
1, 211910, Control_c, 0, 64, 115
1, 211910, Control_c, 0, 67, 114
1, 211924, Control_c, 0, 64, 112
1, 211924, Control_c, 0, 67, 117
1, 211939, Control_c, 0, 64, 110
1, 211939, Control_c, 0, 67, 118
1, 211954, Control_c, 0, 64, 107
1, 211954, Control_c, 0, 67, 120
1, 211969, Control_c, 0, 64, 103
1, 211969, Control_c, 0, 67, 121
1, 211983, Control_c, 0, 64, 99
1, 211983, Control_c, 0, 67, 122
1, 211998, Control_c, 0, 64, 95
1, 211998, Control_c, 0, 67, 124
1, 212013, Control_c, 0, 64, 92
1, 212013, Control_c, 0, 67, 126
1, 212020, Note_on_c, 0, 94, 68
1, 212023, Note_on_c, 0, 90, 56
1, 212027, Note_on_c, 0, 85, 51
1, 212028, Control_c, 0, 64, 89
1, 212028, Control_c, 0, 67, 127
1, 212029, Note_on_c, 0, 82, 58
1, 212043, Control_c, 0, 64, 87
1, 212057, Control_c, 0, 64, 85
1, 212072, Control_c, 0, 64, 82
1, 212087, Control_c, 0, 64, 80
1, 212103, Control_c, 0, 64, 77
1, 212118, Control_c, 0, 64, 75
1, 212133, Control_c, 0, 64, 72
1, 212147, Control_c, 0, 64, 69
1, 212162, Control_c, 0, 64, 68
1, 212177, Control_c, 0, 64, 67
1, 212190, Note_off_c, 0, 94, 60
1, 212206, Control_c, 0, 64, 67
1, 212213, Note_off_c, 0, 90, 59
1, 212218, Note_off_c, 0, 82, 56
1, 212220, Note_off_c, 0, 85, 58
1, 212221, Control_c, 0, 64, 66
1, 212236, Control_c, 0, 64, 63
1, 212251, Control_c, 0, 64, 57
1, 212266, Control_c, 0, 64, 36
1, 212280, Control_c, 0, 64, 0
1, 212286, Note_on_c, 0, 36, 42
1, 212451, Control_c, 0, 64, 52
1, 212466, Control_c, 0, 64, 64
1, 212480, Control_c, 0, 64, 68
1, 212495, Control_c, 0, 64, 72
1, 212510, Control_c, 0, 64, 77
1, 212525, Control_c, 0, 64, 84
1, 212540, Control_c, 0, 64, 92
1, 212544, Note_off_c, 0, 36, 50
1, 212554, Control_c, 0, 64, 102
1, 212569, Control_c, 0, 64, 115
1, 212584, Control_c, 0, 64, 127
1, 212599, Note_on_c, 0, 88, 50
1, 212600, Note_on_c, 0, 76, 39
1, 212600, Note_on_c, 0, 84, 39
1, 212611, Note_on_c, 0, 82, 41
1, 212892, Note_on_c, 0, 58, 43
1, 212934, Note_off_c, 0, 76, 42
1, 212948, Note_off_c, 0, 82, 45
1, 212948, Note_off_c, 0, 88, 37
1, 212959, Note_off_c, 0, 84, 37
1, 213187, Note_on_c, 0, 88, 40
1, 213192, Note_on_c, 0, 84, 38
1, 213201, Note_on_c, 0, 76, 30
1, 213201, Note_on_c, 0, 82, 37
1, 213283, Note_off_c, 0, 58, 53
1, 213299, Note_on_c, 0, 56, 44
1, 213332, Note_off_c, 0, 82, 33
1, 213356, Note_off_c, 0, 76, 41
1, 213356, Note_off_c, 0, 84, 30
1, 213374, Note_off_c, 0, 56, 57
1, 213381, Note_off_c, 0, 88, 39
1, 213386, Note_on_c, 0, 55, 56
1, 213418, Note_off_c, 0, 55, 65
1, 213567, Note_on_c, 0, 72, 41
1, 213659, Control_c, 0, 64, 109
1, 213674, Control_c, 0, 64, 100
1, 213689, Control_c, 0, 64, 93
1, 213705, Control_c, 0, 64, 88
1, 213719, Control_c, 0, 64, 83
1, 213734, Control_c, 0, 64, 79
1, 213749, Control_c, 0, 64, 74
1, 213764, Control_c, 0, 64, 68
1, 213779, Control_c, 0, 64, 64
1, 213793, Control_c, 0, 64, 63
1, 213830, Control_c, 0, 64, 62
1, 213845, Control_c, 0, 64, 60
1, 213858, Note_off_c, 0, 72, 61
1, 213860, Control_c, 0, 64, 55
1, 213874, Control_c, 0, 64, 44
1, 213889, Control_c, 0, 64, 0
1, 213946, Note_on_c, 0, 88, 40
1, 213946, Note_on_c, 0, 82, 36
1, 213955, Note_on_c, 0, 84, 33
1, 213970, Note_on_c, 0, 76, 21
1, 214052, Control_c, 0, 64, 46
1, 214067, Control_c, 0, 64, 65
1, 214082, Control_c, 0, 64, 73
1, 214097, Control_c, 0, 64, 81
1, 214112, Control_c, 0, 64, 92
1, 214126, Control_c, 0, 64, 109
1, 214141, Control_c, 0, 64, 127
1, 214204, Note_off_c, 0, 76, 42
1, 214212, Note_off_c, 0, 88, 45
1, 214223, Note_off_c, 0, 82, 56
1, 214234, Note_off_c, 0, 84, 51
1, 214467, Control_c, 0, 64, 111
1, 214477, Note_on_c, 0, 89, 54
1, 214482, Control_c, 0, 64, 88
1, 214486, Note_on_c, 0, 80, 43
1, 214488, Note_on_c, 0, 32, 36
1, 214497, Control_c, 0, 64, 73
1, 214506, Note_on_c, 0, 77, 23
1, 214509, Note_on_c, 0, 41, 20
1, 214512, Control_c, 0, 64, 63
1, 214527, Note_off_c, 0, 80, 47
1, 214527, Control_c, 0, 64, 53
1, 214537, Note_off_c, 0, 89, 39
1, 214539, Note_off_c, 0, 77, 49
1, 214542, Control_c, 0, 64, 54
1, 214557, Control_c, 0, 64, 58
1, 214558, Poly_aftertouch_c, 0, 84, 0
1, 214579, Control_c, 0, 64, 61
1, 214594, Control_c, 0, 64, 61
1, 214608, Control_c, 0, 64, 62
1, 214658, Note_on_c, 0, 89, 58
1, 214662, Note_on_c, 0, 80, 45
1, 214666, Note_on_c, 0, 77, 33
1, 214668, Control_c, 0, 64, 62
1, 214679, Note_on_c, 0, 84, 45
1, 214690, Note_off_c, 0, 80, 55
1, 214695, Note_off_c, 0, 89, 50
1, 214697, Note_off_c, 0, 77, 55
1, 214703, Note_off_c, 0, 84, 60
1, 214765, Note_off_c, 0, 32, 53
1, 214787, Note_on_c, 0, 31, 54
1, 214787, Note_on_c, 0, 80, 55
1, 214789, Note_on_c, 0, 77, 51
1, 214789, Note_on_c, 0, 84, 50
1, 214794, Note_on_c, 0, 89, 61
1, 214822, Note_off_c, 0, 77, 56
1, 214826, Note_off_c, 0, 80, 60
1, 214836, Note_off_c, 0, 31, 63
1, 214836, Note_off_c, 0, 84, 56
1, 214843, Note_on_c, 0, 29, 63
1, 214846, Note_off_c, 0, 41, 46
1, 214870, Note_off_c, 0, 89, 55
1, 214876, Note_off_c, 0, 29, 62
1, 214995, Note_on_c, 0, 44, 59
1, 215010, Note_on_c, 0, 53, 43
1, 215347, Note_off_c, 0, 44, 58
1, 215376, Note_on_c, 0, 43, 48
1, 215392, Note_off_c, 0, 53, 54
1, 215417, Note_off_c, 0, 43, 62
1, 215424, Note_on_c, 0, 41, 55
1, 215446, Control_c, 0, 64, 62
1, 215459, Note_off_c, 0, 41, 61
1, 215520, Control_c, 0, 64, 61
1, 215555, Note_on_c, 0, 49, 49
1, 215562, Note_on_c, 0, 53, 32
1, 215622, Note_off_c, 0, 53, 60
1, 215636, Note_off_c, 0, 49, 48
1, 215846, Note_on_c, 0, 89, 54
1, 215854, Note_on_c, 0, 82, 45
1, 215857, Note_on_c, 0, 77, 37
1, 215875, Note_on_c, 0, 85, 37
1, 215895, Note_off_c, 0, 77, 51
1, 215904, Note_off_c, 0, 82, 60
1, 215916, Note_off_c, 0, 85, 49
1, 215931, Note_off_c, 0, 89, 58
1, 216167, Note_on_c, 0, 91, 60
1, 216169, Note_on_c, 0, 40, 44
1, 216177, Note_on_c, 0, 31, 51
1, 216177, Note_on_c, 0, 85, 47
1, 216179, Note_on_c, 0, 79, 44
1, 216185, Note_on_c, 0, 82, 41
1, 216209, Note_off_c, 0, 79, 54
1, 216213, Note_off_c, 0, 82, 56
1, 216215, Note_off_c, 0, 85, 60
1, 216217, Note_off_c, 0, 91, 50
1, 216226, Control_c, 0, 64, 62
1, 216328, Note_on_c, 0, 91, 72
1, 216334, Note_on_c, 0, 85, 56
1, 216335, Note_on_c, 0, 82, 49
1, 216341, Note_on_c, 0, 79, 42
1, 216360, Note_off_c, 0, 82, 59
1, 216367, Note_off_c, 0, 79, 57
1, 216368, Note_off_c, 0, 85, 65
1, 216378, Note_off_c, 0, 91, 57
1, 216462, Note_on_c, 0, 82, 60
1, 216463, Note_on_c, 0, 29, 58
1, 216463, Note_on_c, 0, 85, 61
1, 216465, Note_on_c, 0, 79, 52
1, 216468, Note_off_c, 0, 31, 54
1, 216475, Note_on_c, 0, 91, 66
1, 216491, Control_c, 0, 64, 61
1, 216496, Note_off_c, 0, 40, 47
1, 216500, Note_off_c, 0, 79, 56
1, 216501, Note_off_c, 0, 82, 60
1, 216503, Note_on_c, 0, 28, 67
1, 216507, Note_off_c, 0, 29, 65
1, 216507, Note_off_c, 0, 85, 56
1, 216529, Note_off_c, 0, 28, 61
1, 216537, Note_off_c, 0, 91, 59
1, 216550, Control_c, 0, 64, 61
1, 216609, Control_c, 0, 64, 60
1, 216624, Control_c, 0, 64, 60
1, 216638, Control_c, 0, 64, 59
1, 216653, Control_c, 0, 64, 58
1, 216666, Note_on_c, 0, 43, 50
1, 216666, Note_on_c, 0, 52, 55
1, 216668, Control_c, 0, 64, 55
1, 216683, Control_c, 0, 64, 49
1, 216698, Control_c, 0, 64, 29
1, 216712, Control_c, 0, 64, 0
1, 217013, Note_off_c, 0, 43, 58
1, 217022, Note_on_c, 0, 41, 52
1, 217034, Note_off_c, 0, 52, 55
1, 217068, Note_off_c, 0, 41, 63
1, 217073, Note_on_c, 0, 40, 64
1, 217106, Note_off_c, 0, 40, 64
1, 217219, Note_on_c, 0, 55, 54
1, 217302, Note_off_c, 0, 55, 60
1, 217514, Note_on_c, 0, 91, 59
1, 217529, Note_on_c, 0, 79, 37
1, 217529, Note_on_c, 0, 85, 43
1, 217538, Note_on_c, 0, 82, 44
1, 217582, Note_off_c, 0, 79, 48
1, 217584, Note_off_c, 0, 85, 61
1, 217588, Note_off_c, 0, 82, 51
1, 217637, Note_off_c, 0, 91, 59
1, 217885, Note_on_c, 0, 39, 49
1, 217886, Note_on_c, 0, 30, 50
1, 217887, Note_on_c, 0, 90, 59
1, 217890, Note_on_c, 0, 84, 53
1, 217893, Note_on_c, 0, 93, 58
1, 217898, Note_on_c, 0, 81, 42
1, 217921, Note_off_c, 0, 84, 55
1, 217922, Note_off_c, 0, 81, 56
1, 217924, Note_off_c, 0, 93, 49
1, 217934, Note_off_c, 0, 90, 57
1, 218042, Note_on_c, 0, 90, 68
1, 218044, Note_on_c, 0, 84, 59
1, 218046, Note_on_c, 0, 81, 50
1, 218054, Note_on_c, 0, 93, 58
1, 218071, Note_off_c, 0, 81, 58
1, 218074, Note_off_c, 0, 84, 65
1, 218075, Note_off_c, 0, 93, 57
1, 218086, Note_off_c, 0, 90, 59
1, 218152, Note_off_c, 0, 30, 54
1, 218167, Note_on_c, 0, 84, 65
1, 218171, Note_on_c, 0, 81, 57
1, 218174, Note_on_c, 0, 29, 53
1, 218174, Note_on_c, 0, 93, 57
1, 218182, Note_on_c, 0, 90, 61
1, 218197, Note_off_c, 0, 39, 59
1, 218200, Note_off_c, 0, 81, 57
1, 218204, Note_off_c, 0, 84, 59
1, 218209, Note_on_c, 0, 27, 74
1, 218210, Note_off_c, 0, 29, 61
1, 218220, Note_off_c, 0, 90, 54
1, 218241, Note_off_c, 0, 27, 67
1, 218274, Note_off_c, 0, 93, 36
1, 218381, Note_on_c, 0, 51, 63
1, 218381, Control_c, 0, 64, 11
1, 218401, Note_on_c, 0, 42, 53
1, 218411, Control_c, 0, 64, 14
1, 218425, Control_c, 0, 64, 17
1, 218440, Control_c, 0, 64, 19
1, 218455, Control_c, 0, 64, 21
1, 218470, Control_c, 0, 64, 24
1, 218501, Control_c, 0, 64, 26
1, 218515, Control_c, 0, 64, 27
1, 218739, Note_on_c, 0, 41, 46
1, 218753, Note_off_c, 0, 42, 35
1, 218766, Note_off_c, 0, 51, 52
1, 218772, Note_on_c, 0, 39, 71
1, 218773, Note_off_c, 0, 41, 62
1, 218802, Note_off_c, 0, 39, 65
1, 218885, Control_c, 0, 64, 26
1, 218917, Note_on_c, 0, 51, 53
1, 218935, Note_on_c, 0, 57, 46
1, 218989, Control_c, 0, 64, 27
1, 219009, Note_off_c, 0, 57, 61
1, 219048, Control_c, 0, 64, 28
1, 219070, Control_c, 0, 64, 29
1, 219081, Note_off_c, 0, 51, 54
1, 219100, Control_c, 0, 64, 30
1, 219145, Control_c, 0, 64, 31
1, 219219, Note_on_c, 0, 93, 64
1, 219220, Note_on_c, 0, 90, 54
1, 219223, Note_on_c, 0, 81, 47
1, 219223, Note_on_c, 0, 84, 53
1, 219255, Note_off_c, 0, 81, 57
1, 219286, Note_off_c, 0, 84, 63
1, 219309, Note_off_c, 0, 93, 60
1, 219323, Note_off_c, 0, 90, 63
1, 219502, Control_c, 0, 64, 32
1, 219563, Note_on_c, 0, 29, 52
1, 219571, Note_on_c, 0, 89, 60
1, 219574, Note_on_c, 0, 94, 61
1, 219576, Control_c, 0, 64, 33
1, 219580, Note_on_c, 0, 38, 38
1, 219583, Note_on_c, 0, 82, 47
1, 219590, Control_c, 0, 64, 34
1, 219605, Control_c, 0, 64, 36
1, 219612, Note_off_c, 0, 82, 55
1, 219620, Control_c, 0, 64, 37
1, 219621, Note_off_c, 0, 89, 62
1, 219631, Note_off_c, 0, 94, 60
1, 219635, Control_c, 0, 64, 38
1, 219650, Control_c, 0, 64, 39
1, 219664, Control_c, 0, 64, 40
1, 219679, Control_c, 0, 64, 41
1, 219694, Control_c, 0, 64, 42
1, 219708, Control_c, 0, 64, 44
1, 219723, Control_c, 0, 64, 45
1, 219729, Note_on_c, 0, 82, 51
1, 219734, Note_on_c, 0, 89, 65
1, 219738, Control_c, 0, 64, 46
1, 219742, Note_on_c, 0, 94, 60
1, 219753, Control_c, 0, 64, 47
1, 219761, Note_off_c, 0, 82, 52
1, 219769, Note_off_c, 0, 94, 61
1, 219774, Note_off_c, 0, 89, 59
1, 219872, Note_on_c, 0, 27, 65
1, 219872, Note_on_c, 0, 82, 54
1, 219875, Note_on_c, 0, 94, 63
1, 219878, Note_off_c, 0, 29, 47
1, 219878, Note_on_c, 0, 89, 68
1, 219879, Control_c, 0, 64, 46
1, 219895, Note_off_c, 0, 82, 61
1, 219897, Note_off_c, 0, 38, 52
1, 219919, Note_on_c, 0, 26, 69
1, 219920, Note_off_c, 0, 89, 59
1, 219934, Note_off_c, 0, 27, 63
1, 219942, Note_off_c, 0, 94, 60
1, 219946, Note_off_c, 0, 26, 63
1, 220057, Control_c, 0, 64, 47
1, 220082, Note_on_c, 0, 41, 60
1, 220087, Control_c, 0, 64, 48
1, 220088, Note_on_c, 0, 50, 63
1, 220102, Control_c, 0, 64, 48
1, 220117, Control_c, 0, 64, 49
1, 220146, Control_c, 0, 64, 49
1, 220161, Control_c, 0, 64, 50
1, 220206, Control_c, 0, 64, 50
1, 220220, Control_c, 0, 64, 51
1, 220235, Control_c, 0, 64, 51
1, 220250, Control_c, 0, 64, 52
1, 220265, Control_c, 0, 64, 53
1, 220280, Control_c, 0, 64, 54
1, 220294, Control_c, 0, 64, 54
1, 220309, Control_c, 0, 64, 55
1, 220324, Control_c, 0, 64, 56
1, 220338, Control_c, 0, 64, 56
1, 220353, Control_c, 0, 64, 57
1, 220368, Control_c, 0, 64, 57
1, 220411, Note_on_c, 0, 39, 60
1, 220417, Note_off_c, 0, 41, 57
1, 220423, Note_off_c, 0, 50, 59
1, 220457, Control_c, 0, 64, 58
1, 220472, Control_c, 0, 64, 58
1, 220473, Note_on_c, 0, 38, 60
1, 220483, Note_off_c, 0, 39, 61
1, 220486, Control_c, 0, 64, 59
1, 220508, Note_off_c, 0, 38, 64
1, 220516, Control_c, 0, 64, 56
1, 220531, Control_c, 0, 64, 0
1, 220618, Note_on_c, 0, 49, 50
1, 220627, Note_on_c, 0, 41, 48
1, 220631, Note_on_c, 0, 101, 65
1, 220640, Note_on_c, 0, 94, 49
1, 220647, Note_on_c, 0, 89, 41
1, 220678, Note_off_c, 0, 101, 52
1, 220682, Note_off_c, 0, 94, 50
1, 220685, Note_off_c, 0, 89, 49
1, 220716, Control_c, 0, 64, 61
1, 220731, Control_c, 0, 64, 71
1, 220745, Control_c, 0, 64, 81
1, 220760, Control_c, 0, 64, 98
1, 220775, Control_c, 0, 64, 127
1, 220796, Note_on_c, 0, 101, 66
1, 220800, Note_on_c, 0, 89, 51
1, 220800, Note_on_c, 0, 94, 57
1, 220835, Control_c, 0, 67, 123
1, 220838, Note_off_c, 0, 94, 60
1, 220840, Note_off_c, 0, 89, 49
1, 220847, Note_off_c, 0, 101, 62
1, 220850, Control_c, 0, 67, 119
1, 220865, Control_c, 0, 67, 114
1, 220880, Control_c, 0, 67, 109
1, 220895, Control_c, 0, 67, 102
1, 220910, Control_c, 0, 67, 96
1, 220924, Control_c, 0, 67, 92
1, 220948, Note_off_c, 0, 41, 57
1, 220951, Note_on_c, 0, 94, 62
1, 220951, Note_on_c, 0, 89, 55
1, 220952, Note_on_c, 0, 39, 65
1, 220953, Note_on_c, 0, 101, 72
1, 220954, Note_off_c, 0, 49, 63
1, 220954, Control_c, 0, 67, 93
1, 220969, Control_c, 0, 67, 94
1, 220984, Control_c, 0, 67, 95
1, 220989, Note_off_c, 0, 94, 58
1, 220990, Note_off_c, 0, 39, 61
1, 220991, Note_on_c, 0, 37, 47
1, 220997, Note_off_c, 0, 89, 50
1, 220999, Control_c, 0, 67, 96
1, 221008, Note_off_c, 0, 101, 62
1, 221014, Control_c, 0, 67, 96
1, 221024, Note_off_c, 0, 37, 53
1, 221029, Control_c, 0, 67, 97
1, 221043, Control_c, 0, 67, 97
1, 221058, Control_c, 0, 67, 98
1, 221073, Control_c, 0, 67, 98
1, 221088, Control_c, 0, 67, 99
1, 221103, Control_c, 0, 64, 107
1, 221116, Note_on_c, 0, 101, 74
1, 221117, Control_c, 0, 64, 79
1, 221120, Note_on_c, 0, 89, 59
1, 221125, Note_on_c, 0, 96, 56
1, 221126, Note_on_c, 0, 92, 64
1, 221127, Note_on_c, 0, 29, 56
1, 221132, Control_c, 0, 64, 58
1, 221136, Note_on_c, 0, 36, 57
1, 221147, Control_c, 0, 64, 29
1, 221161, Control_c, 0, 64, 57
1, 221161, Control_c, 0, 67, 98
1, 221169, Note_off_c, 0, 92, 57
1, 221176, Control_c, 0, 64, 67
1, 221176, Control_c, 0, 67, 98
1, 221178, Note_off_c, 0, 89, 41
1, 221189, Note_off_c, 0, 101, 63
1, 221191, Control_c, 0, 64, 77
1, 221191, Control_c, 0, 67, 97
1, 221201, Note_off_c, 0, 96, 63
1, 221206, Control_c, 0, 64, 101
1, 221206, Control_c, 0, 67, 96
1, 221221, Control_c, 0, 64, 127
1, 221221, Control_c, 0, 67, 96
1, 221235, Control_c, 0, 67, 94
1, 221250, Control_c, 0, 67, 93
1, 221265, Control_c, 0, 67, 92
1, 221277, Note_on_c, 0, 96, 55
1, 221280, Control_c, 0, 67, 91
1, 221283, Note_on_c, 0, 92, 63
1, 221283, Note_on_c, 0, 101, 75
1, 221285, Note_on_c, 0, 89, 56
1, 221295, Control_c, 0, 67, 89
1, 221317, Control_c, 0, 67, 85
1, 221331, Note_off_c, 0, 89, 47
1, 221332, Note_off_c, 0, 92, 59
1, 221332, Control_c, 0, 67, 79
1, 221346, Note_off_c, 0, 101, 61
1, 221347, Control_c, 0, 67, 73
1, 221351, Note_off_c, 0, 96, 63
1, 221361, Control_c, 0, 67, 66
1, 221376, Control_c, 0, 67, 58
1, 221391, Control_c, 0, 67, 51
1, 221406, Control_c, 0, 67, 46
1, 221421, Control_c, 0, 67, 42
1, 221434, Note_on_c, 0, 96, 60
1, 221435, Control_c, 0, 67, 39
1, 221437, Note_on_c, 0, 92, 65
1, 221438, Note_on_c, 0, 89, 61
1, 221440, Note_on_c, 0, 101, 70
1, 221449, Note_on_c, 0, 25, 73
1, 221450, Control_c, 0, 67, 37
1, 221453, Note_off_c, 0, 36, 35
1, 221455, Note_off_c, 0, 29, 59
1, 221465, Control_c, 0, 67, 36
1, 221479, Note_on_c, 0, 100, 30
1, 221480, Control_c, 0, 67, 36
1, 221486, Note_off_c, 0, 25, 63
1, 221491, Note_off_c, 0, 96, 61
1, 221493, Note_on_c, 0, 24, 32
1, 221496, Note_off_c, 0, 92, 54
1, 221517, Note_off_c, 0, 101, 62
1, 221517, Note_off_c, 0, 89, 58
1, 221518, Note_off_c, 0, 100, 50
1, 221544, Note_off_c, 0, 24, 51
1, 221608, Note_on_c, 0, 91, 81
1, 221608, Note_on_c, 0, 96, 81
1, 221611, Note_on_c, 0, 88, 80
1, 221613, Control_c, 0, 64, 87
1, 221615, Note_on_c, 0, 100, 67
1, 221616, Note_on_c, 0, 43, 89
1, 221617, Note_on_c, 0, 48, 84
1, 221628, Control_c, 0, 64, 68
1, 221640, Note_on_c, 0, 98, 43
1, 221643, Control_c, 0, 64, 62
1, 221658, Control_c, 0, 64, 67
1, 221658, Control_c, 0, 67, 35
1, 221664, Note_off_c, 0, 91, 64
1, 221667, Note_off_c, 0, 88, 56
1, 221671, Note_off_c, 0, 98, 56
1, 221672, Note_off_c, 0, 100, 63
1, 221672, Control_c, 0, 64, 79
1, 221674, Note_off_c, 0, 96, 64
1, 221688, Control_c, 0, 64, 103
1, 221688, Control_c, 0, 67, 35
1, 221703, Control_c, 0, 64, 127
1, 221703, Control_c, 0, 67, 34
1, 221718, Control_c, 0, 67, 34
1, 221732, Control_c, 0, 67, 32
1, 221747, Control_c, 0, 67, 29
1, 221762, Control_c, 0, 67, 26
1, 221771, Note_on_c, 0, 91, 80
1, 221771, Note_on_c, 0, 88, 79
1, 221774, Note_on_c, 0, 96, 77
1, 221776, Note_on_c, 0, 100, 76
1, 221777, Control_c, 0, 67, 21
1, 221792, Control_c, 0, 67, 16
1, 221807, Control_c, 0, 67, 10
1, 221822, Control_c, 0, 67, 0
1, 221822, Note_off_c, 0, 91, 64
1, 221825, Note_off_c, 0, 88, 58
1, 221825, Note_off_c, 0, 100, 61
1, 221840, Note_off_c, 0, 96, 64
1, 221882, Note_off_c, 0, 48, 55
1, 221902, Note_off_c, 0, 43, 62
1, 221903, Note_on_c, 0, 40, 72
1, 221925, Note_on_c, 0, 91, 81
1, 221928, Note_on_c, 0, 88, 78
1, 221929, Note_on_c, 0, 100, 73
1, 221932, Note_on_c, 0, 96, 72
1, 221953, Note_on_c, 0, 36, 77
1, 221959, Note_off_c, 0, 40, 64
1, 221971, Note_off_c, 0, 91, 64
1, 221983, Note_off_c, 0, 36, 63
1, 221996, Note_off_c, 0, 88, 59
1, 222013, Note_off_c, 0, 100, 64
1, 222016, Note_off_c, 0, 96, 63
1, 222096, Control_c, 0, 64, 97
1, 222105, Note_on_c, 0, 98, 101
1, 222106, Note_on_c, 0, 53, 97
1, 222107, Note_on_c, 0, 86, 96
1, 222108, Note_on_c, 0, 92, 99
1, 222110, Control_c, 0, 64, 70
1, 222112, Note_on_c, 0, 95, 81
1, 222113, Note_on_c, 0, 60, 83
1, 222125, Control_c, 0, 64, 38
1, 222140, Control_c, 0, 64, 61
1, 222155, Control_c, 0, 64, 72
1, 222170, Control_c, 0, 64, 90
1, 222172, Note_off_c, 0, 86, 63
1, 222184, Control_c, 0, 64, 127
1, 222185, Note_off_c, 0, 92, 65
1, 222194, Note_off_c, 0, 95, 65
1, 222194, Note_off_c, 0, 98, 64
1, 222271, Note_on_c, 0, 98, 96
1, 222272, Note_on_c, 0, 86, 85
1, 222277, Note_on_c, 0, 92, 86
1, 222295, Note_on_c, 0, 96, 57
1, 222297, Note_on_c, 0, 95, 67
1, 222319, Note_off_c, 0, 86, 62
1, 222325, Note_off_c, 0, 95, 66
1, 222326, Note_off_c, 0, 96, 66
1, 222332, Note_off_c, 0, 98, 66
1, 222334, Note_off_c, 0, 92, 64
1, 222399, Note_off_c, 0, 53, 64
1, 222403, Note_on_c, 0, 50, 77
1, 222416, Note_on_c, 0, 98, 91
1, 222417, Note_on_c, 0, 86, 83
1, 222422, Note_off_c, 0, 60, 53
1, 222432, Note_on_c, 0, 92, 63
1, 222435, Note_on_c, 0, 95, 55
1, 222465, Note_on_c, 0, 48, 56
1, 222465, Note_off_c, 0, 50, 60
1, 222471, Note_off_c, 0, 86, 60
1, 222493, Note_off_c, 0, 48, 56
1, 222493, Note_off_c, 0, 95, 65
1, 222502, Note_off_c, 0, 92, 63
1, 222513, Note_off_c, 0, 98, 63
1, 222571, Control_c, 0, 64, 87
1, 222577, Note_on_c, 0, 91, 99
1, 222579, Note_on_c, 0, 88, 91
1, 222579, Note_on_c, 0, 96, 91
1, 222581, Note_on_c, 0, 100, 90
1, 222585, Note_on_c, 0, 67, 90
1, 222586, Control_c, 0, 64, 44
1, 222592, Note_on_c, 0, 72, 85
1, 222601, Control_c, 0, 64, 0
1, 222613, Note_on_c, 0, 98, 58
1, 222614, Note_off_c, 0, 98, 127
1, 222630, Control_c, 0, 64, 64
1, 222645, Control_c, 0, 64, 83
1, 222647, Note_off_c, 0, 88, 63
1, 222656, Note_off_c, 0, 91, 66
1, 222659, Note_off_c, 0, 100, 65
1, 222660, Control_c, 0, 64, 127
1, 222665, Note_off_c, 0, 96, 66
1, 222740, Note_on_c, 0, 96, 85
1, 222741, Note_on_c, 0, 88, 79
1, 222746, Note_on_c, 0, 91, 74
1, 222746, Note_on_c, 0, 100, 75
1, 222771, Note_off_c, 0, 88, 59
1, 222780, Note_off_c, 0, 91, 61
1, 222790, Note_off_c, 0, 100, 57
1, 222802, Note_off_c, 0, 96, 65
1, 222824, Note_off_c, 0, 72, 60
1, 222834, Note_on_c, 0, 64, 74
1, 222843, Note_off_c, 0, 67, 57
1, 222874, Note_on_c, 0, 88, 85
1, 222875, Note_on_c, 0, 96, 79
1, 222877, Note_on_c, 0, 91, 87
1, 222883, Note_on_c, 0, 100, 79
1, 222908, Note_off_c, 0, 100, 63
1, 222913, Note_on_c, 0, 60, 89
1, 222918, Note_off_c, 0, 64, 64
1, 222924, Note_off_c, 0, 88, 63
1, 222938, Note_off_c, 0, 96, 65
1, 222939, Note_off_c, 0, 60, 66
1, 222941, Note_off_c, 0, 91, 66
1, 223068, Control_c, 0, 64, 78
1, 223082, Control_c, 0, 64, 0
1, 223086, Note_on_c, 0, 53, 95
1, 223086, Note_on_c, 0, 77, 89
1, 223086, Note_on_c, 0, 86, 92
1, 223088, Note_on_c, 0, 60, 91
1, 223088, Note_on_c, 0, 74, 93
1, 223089, Note_on_c, 0, 72, 91
1, 223090, Note_on_c, 0, 80, 82
1, 223096, Note_on_c, 0, 83, 74
1, 223110, Note_on_c, 0, 50, 50
1, 223113, Note_on_c, 0, 78, 46
1, 223127, Control_c, 0, 64, 64
1, 223128, Note_on_c, 0, 84, 21
1, 223138, Note_off_c, 0, 50, 58
1, 223141, Control_c, 0, 64, 85
1, 223144, Note_off_c, 0, 78, 34
1, 223156, Control_c, 0, 64, 127
1, 223166, Note_off_c, 0, 72, 62
1, 223168, Note_off_c, 0, 74, 62
1, 223168, Note_off_c, 0, 84, 33
1, 223175, Note_off_c, 0, 86, 62
1, 223178, Note_off_c, 0, 83, 65
1, 223179, Note_off_c, 0, 77, 60
1, 223186, Note_off_c, 0, 80, 63
1, 223262, Note_on_c, 0, 72, 92
1, 223264, Note_on_c, 0, 74, 95
1, 223264, Note_on_c, 0, 77, 81
1, 223265, Note_on_c, 0, 86, 88
1, 223266, Note_on_c, 0, 80, 82
1, 223266, Note_on_c, 0, 83, 85
1, 223291, Note_on_c, 0, 78, 54
1, 223292, Note_off_c, 0, 78, 127
1, 223317, Note_off_c, 0, 74, 56
1, 223323, Note_off_c, 0, 72, 56
1, 223333, Note_off_c, 0, 77, 64
1, 223333, Note_off_c, 0, 86, 64
1, 223337, Note_off_c, 0, 83, 65
1, 223341, Note_off_c, 0, 80, 63
1, 223366, Poly_aftertouch_c, 0, 84, 0
1, 223373, Note_off_c, 0, 60, 59
1, 223404, Note_off_c, 0, 53, 66
1, 223407, Note_on_c, 0, 50, 88
1, 223411, Note_on_c, 0, 77, 89
1, 223412, Note_on_c, 0, 72, 88
1, 223413, Note_on_c, 0, 74, 92
1, 223413, Note_on_c, 0, 80, 81
1, 223416, Note_on_c, 0, 86, 83
1, 223416, Note_on_c, 0, 83, 84
1, 223438, Note_on_c, 0, 48, 85
1, 223449, Note_off_c, 0, 50, 67
1, 223452, Note_on_c, 0, 84, 42
1, 223464, Note_off_c, 0, 48, 67
1, 223481, Note_off_c, 0, 84, 53
1, 223509, Note_off_c, 0, 74, 57
1, 223509, Note_off_c, 0, 72, 59
1, 223515, Note_off_c, 0, 86, 62
1, 223522, Note_off_c, 0, 77, 60
1, 223528, Note_off_c, 0, 83, 63
1, 223536, Note_off_c, 0, 80, 61
1, 223579, Control_c, 0, 64, 101
1, 223584, Note_on_c, 0, 48, 82
1, 223586, Note_on_c, 0, 41, 98
1, 223587, Note_on_c, 0, 80, 77
1, 223589, Note_on_c, 0, 77, 91
1, 223592, Note_on_c, 0, 72, 97
1, 223592, Note_on_c, 0, 86, 95
1, 223593, Note_on_c, 0, 83, 83
1, 223594, Control_c, 0, 64, 72
1, 223597, Note_on_c, 0, 74, 92
1, 223609, Note_on_c, 0, 84, 68
1, 223609, Control_c, 0, 64, 47
1, 223624, Control_c, 0, 64, 63
1, 223627, Note_off_c, 0, 84, 63
1, 223638, Control_c, 0, 64, 74
1, 223653, Control_c, 0, 64, 97
1, 223662, Note_off_c, 0, 74, 61
1, 223664, Note_off_c, 0, 72, 64
1, 223668, Control_c, 0, 64, 127
1, 223673, Note_off_c, 0, 86, 62
1, 223674, Note_off_c, 0, 77, 62
1, 223679, Note_off_c, 0, 83, 64
1, 223682, Note_off_c, 0, 80, 63
1, 223754, Note_on_c, 0, 77, 95
1, 223755, Note_on_c, 0, 80, 87
1, 223756, Note_on_c, 0, 72, 88
1, 223759, Note_on_c, 0, 86, 84
1, 223760, Note_on_c, 0, 74, 89
1, 223763, Note_on_c, 0, 83, 83
1, 223783, Note_on_c, 0, 84, 58
1, 223804, Note_off_c, 0, 84, 60
1, 223813, Note_off_c, 0, 74, 44
1, 223818, Note_off_c, 0, 72, 60
1, 223819, Note_off_c, 0, 77, 56
1, 223819, Note_off_c, 0, 83, 62
1, 223823, Note_off_c, 0, 86, 62
1, 223831, Note_off_c, 0, 80, 60
1, 223881, Note_on_c, 0, 38, 87
1, 223884, Note_on_c, 0, 80, 77
1, 223891, Note_off_c, 0, 41, 60
1, 223894, Note_on_c, 0, 86, 81
1, 223895, Note_on_c, 0, 77, 82
1, 223898, Note_on_c, 0, 72, 78
1, 223903, Note_on_c, 0, 83, 78
1, 223908, Note_on_c, 0, 74, 72
1, 223917, Note_off_c, 0, 48, 62
1, 223922, Note_on_c, 0, 84, 35
1, 223933, Note_off_c, 0, 74, 66
1, 223941, Note_off_c, 0, 72, 64
1, 223944, Note_on_c, 0, 36, 87
1, 223956, Note_off_c, 0, 38, 64
1, 223958, Note_off_c, 0, 84, 50
1, 223965, Note_off_c, 0, 77, 62
1, 223971, Note_off_c, 0, 86, 63
1, 223988, Note_off_c, 0, 83, 64
1, 223989, Note_off_c, 0, 80, 63
1, 224008, Note_off_c, 0, 36, 57
1, 224126, Note_on_c, 0, 72, 77
1, 224156, Note_on_c, 0, 79, 80
1, 224181, Note_off_c, 0, 72, 62
1, 224197, Note_on_c, 0, 84, 85
1, 224216, Control_c, 0, 64, 83
1, 224231, Control_c, 0, 64, 0
1, 224233, Note_on_c, 0, 88, 98
1, 224239, Note_on_c, 0, 43, 85
1, 224239, Note_on_c, 0, 48, 101
1, 224251, Note_off_c, 0, 79, 64
1, 224260, Control_c, 0, 64, 65
1, 224261, Note_off_c, 0, 84, 69
1, 224265, Note_off_c, 0, 48, 68
1, 224271, Note_off_c, 0, 88, 69
1, 224275, Control_c, 0, 64, 89
1, 224284, Note_off_c, 0, 43, 65
1, 224290, Control_c, 0, 64, 127
1, 224891, Control_c, 0, 64, 98
1, 224906, Control_c, 0, 64, 61
1, 224921, Control_c, 0, 64, 0
1, 225129, Note_on_c, 0, 60, 75
1, 225134, Note_on_c, 0, 36, 62
1, 225141, Note_on_c, 0, 48, 57
1, 225161, Note_off_c, 0, 60, 63
1, 225166, Note_off_c, 0, 36, 62
1, 225166, Note_off_c, 0, 48, 60
1, 225250, Note_on_c, 0, 58, 86
1, 225252, Note_on_c, 0, 34, 69
1, 225285, Note_off_c, 0, 34, 65
1, 225295, Note_off_c, 0, 58, 65
1, 225342, Control_c, 0, 64, 62
1, 225354, Note_on_c, 0, 32, 82
1, 225357, Note_on_c, 0, 56, 97
1, 225357, Control_c, 0, 64, 66
1, 225372, Control_c, 0, 64, 62
1, 225388, Control_c, 0, 64, 61
1, 225402, Note_off_c, 0, 56, 66
1, 225405, Note_off_c, 0, 32, 62
1, 225447, Control_c, 0, 64, 61
1, 225462, Control_c, 0, 64, 62
1, 225464, Note_on_c, 0, 36, 78
1, 225465, Note_on_c, 0, 60, 88
1, 225470, Note_on_c, 0, 48, 85
1, 225477, Control_c, 0, 64, 62
1, 225491, Control_c, 0, 64, 63
1, 225495, Note_off_c, 0, 36, 67
1, 225497, Note_off_c, 0, 48, 67
1, 225511, Note_off_c, 0, 60, 65
1, 225569, Note_on_c, 0, 31, 88
1, 225574, Note_on_c, 0, 55, 91
1, 225580, Control_c, 0, 64, 62
1, 225595, Control_c, 0, 64, 62
1, 225610, Control_c, 0, 64, 61
1, 225613, Note_off_c, 0, 31, 61
1, 225616, Note_off_c, 0, 55, 66
1, 225625, Control_c, 0, 64, 58
1, 225640, Control_c, 0, 64, 40
1, 225654, Control_c, 0, 64, 0
1, 225672, Note_on_c, 0, 36, 93
1, 225676, Note_on_c, 0, 48, 90
1, 225678, Note_on_c, 0, 60, 92
1, 225706, Note_off_c, 0, 36, 63
1, 225712, Note_off_c, 0, 48, 61
1, 225721, Note_off_c, 0, 60, 63
1, 225790, Note_on_c, 0, 41, 99
1, 225790, Note_on_c, 0, 53, 103
1, 225792, Note_on_c, 0, 29, 92
1, 225811, Control_c, 0, 64, 50
1, 225823, Note_off_c, 0, 41, 67
1, 225825, Note_off_c, 0, 29, 67
1, 225826, Control_c, 0, 64, 78
1, 225837, Note_off_c, 0, 53, 64
1, 225840, Control_c, 0, 64, 110
1, 225855, Control_c, 0, 64, 127
1, 226237, Note_on_c, 0, 53, 67
1, 226287, Note_on_c, 0, 60, 62
1, 226329, Note_off_c, 0, 53, 65
1, 226329, Control_c, 0, 64, 72
1, 226332, Note_on_c, 0, 80, 97
1, 226334, Note_on_c, 0, 68, 91
1, 226337, Note_on_c, 0, 72, 88
1, 226338, Note_on_c, 0, 65, 88
1, 226344, Control_c, 0, 64, 0
1, 226353, Note_off_c, 0, 60, 65
1, 226354, Note_off_c, 0, 65, 74
1, 226373, Control_c, 0, 64, 59
1, 226388, Control_c, 0, 64, 81
1, 226403, Control_c, 0, 64, 127
1, 226507, Control_c, 0, 64, 95
1, 226522, Control_c, 0, 64, 59
1, 226537, Control_c, 0, 64, 0
1, 226580, Note_off_c, 0, 72, 60
1, 226589, Control_c, 0, 64, 61
1, 226596, Note_off_c, 0, 68, 59
1, 226604, Control_c, 0, 64, 74
1, 226619, Control_c, 0, 64, 98
1, 226634, Control_c, 0, 64, 127
1, 226749, Note_on_c, 0, 79, 84
1, 226753, Note_off_c, 0, 80, 63
1, 226814, Note_on_c, 0, 77, 84
1, 226817, Note_off_c, 0, 79, 59
1, 226841, Control_c, 0, 64, 97
1, 226856, Control_c, 0, 64, 51
1, 226860, Note_off_c, 0, 77, 0
1, 226871, Control_c, 0, 64, 0
1, 226883, Note_on_c, 0, 85, 103
1, 226888, Note_on_c, 0, 46, 98
1, 226888, Note_on_c, 0, 73, 99
1, 226892, Note_on_c, 0, 34, 94
1, 226894, Note_on_c, 0, 79, 87
1, 226898, Poly_aftertouch_c, 0, 77, 127
1, 226930, Control_c, 0, 64, 69
1, 226931, Note_on_c, 0, 40, 14
1, 226945, Control_c, 0, 64, 103
1, 226960, Control_c, 0, 64, 127
1, 226982, Note_off_c, 0, 40, 46
1, 227103, Note_off_c, 0, 34, 58
1, 227113, Note_off_c, 0, 46, 60
1, 227239, Note_on_c, 0, 48, 88
1, 227243, Note_on_c, 0, 36, 81
1, 227259, Note_off_c, 0, 48, 67
1, 227263, Note_off_c, 0, 36, 62
1, 227331, Note_on_c, 0, 49, 97
1, 227335, Note_on_c, 0, 37, 90
1, 227352, Note_off_c, 0, 49, 70
1, 227359, Note_off_c, 0, 37, 69
1, 227368, Control_c, 0, 64, 97
1, 227383, Control_c, 0, 64, 54
1, 227387, Note_off_c, 0, 73, 58
1, 227393, Poly_aftertouch_c, 0, 48, 0
1, 227398, Control_c, 0, 64, 0
1, 227402, Poly_aftertouch_c, 0, 77, 0
1, 227425, Note_on_c, 0, 49, 19
1, 227427, Control_c, 0, 64, 63
1, 227429, Note_off_c, 0, 79, 53
1, 227429, Note_on_c, 0, 40, 103
1, 227432, Note_on_c, 0, 28, 90
1, 227439, Note_off_c, 0, 85, 60
1, 227442, Control_c, 0, 64, 83
1, 227451, Note_off_c, 0, 40, 71
1, 227456, Note_off_c, 0, 28, 64
1, 227457, Control_c, 0, 64, 127
1, 227465, Note_off_c, 0, 49, 33
1, 227845, Note_on_c, 0, 52, 67
1, 227911, Note_off_c, 0, 52, 61
1, 227913, Note_on_c, 0, 58, 68
1, 227923, Note_on_c, 0, 61, 71
1, 227960, Control_c, 0, 64, 73
1, 227966, Note_on_c, 0, 85, 102
1, 227968, Note_on_c, 0, 73, 99
1, 227970, Note_on_c, 0, 67, 94
1, 227975, Note_on_c, 0, 79, 87
1, 227975, Control_c, 0, 64, 0
1, 227982, Note_off_c, 0, 61, 65
1, 227988, Note_off_c, 0, 58, 62
1, 227992, Note_off_c, 0, 67, 67
1, 228019, Control_c, 0, 64, 74
1, 228034, Control_c, 0, 64, 127
1, 228132, Control_c, 0, 64, 76
1, 228147, Control_c, 0, 64, 0
1, 228257, Note_off_c, 0, 79, 58
1, 228279, Control_c, 0, 64, 65
1, 228283, Note_off_c, 0, 73, 57
1, 228294, Control_c, 0, 64, 86
1, 228309, Control_c, 0, 64, 127
1, 228386, Note_on_c, 0, 84, 81
1, 228450, Note_on_c, 0, 82, 97
1, 228451, Note_off_c, 0, 85, 53
1, 228475, Note_off_c, 0, 84, 61
1, 228494, Note_off_c, 0, 82, 62
1, 228502, Control_c, 0, 64, 99
1, 228517, Control_c, 0, 64, 0
1, 228525, Note_on_c, 0, 90, 100
1, 228529, Note_on_c, 0, 45, 100
1, 228530, Note_on_c, 0, 78, 95
1, 228532, Note_on_c, 0, 33, 93
1, 228532, Note_on_c, 0, 84, 77
1, 228534, Note_on_c, 0, 82, 50
1, 228555, Note_off_c, 0, 82, 62
1, 228576, Control_c, 0, 64, 73
1, 228591, Control_c, 0, 64, 116
1, 228606, Control_c, 0, 64, 127
1, 228701, Note_off_c, 0, 33, 58
1, 228725, Note_off_c, 0, 45, 63
1, 228902, Note_on_c, 0, 48, 91
1, 228903, Note_on_c, 0, 36, 86
1, 228925, Note_off_c, 0, 48, 67
1, 228929, Note_off_c, 0, 36, 64
1, 228983, Note_on_c, 0, 51, 101
1, 228988, Note_on_c, 0, 39, 87
1, 228999, Control_c, 0, 64, 100
1, 229002, Note_off_c, 0, 51, 74
1, 229011, Note_off_c, 0, 39, 65
1, 229014, Control_c, 0, 64, 65
1, 229029, Control_c, 0, 64, 0
1, 229056, Poly_aftertouch_c, 0, 48, 0
1, 229073, Control_c, 0, 64, 69
1, 229074, Note_off_c, 0, 78, 59
1, 229080, Note_on_c, 0, 39, 77
1, 229088, Control_c, 0, 64, 104
1, 229089, Note_on_c, 0, 27, 90
1, 229095, Note_on_c, 0, 30, 77
1, 229095, Note_on_c, 0, 40, 78
1, 229102, Control_c, 0, 64, 127
1, 229110, Note_off_c, 0, 90, 62
1, 229111, Note_off_c, 0, 39, 62
1, 229116, Note_off_c, 0, 40, 65
1, 229116, Note_off_c, 0, 27, 64
1, 229120, Note_off_c, 0, 30, 61
1, 229122, Note_off_c, 0, 84, 60
1, 229235, Poly_aftertouch_c, 0, 28, 0
1, 229500, Note_on_c, 0, 51, 73
1, 229558, Note_on_c, 0, 57, 65
1, 229567, Note_on_c, 0, 60, 68
1, 229579, Note_off_c, 0, 51, 66
1, 229598, Control_c, 0, 64, 108
1, 229613, Control_c, 0, 64, 67
1, 229617, Note_on_c, 0, 90, 105
1, 229620, Note_on_c, 0, 78, 98
1, 229623, Note_on_c, 0, 66, 95
1, 229623, Note_on_c, 0, 84, 90
1, 229627, Control_c, 0, 64, 0
1, 229632, Note_off_c, 0, 57, 61
1, 229641, Note_off_c, 0, 60, 64
1, 229655, Note_off_c, 0, 66, 64
1, 229657, Control_c, 0, 64, 66
1, 229673, Control_c, 0, 64, 99
1, 229688, Control_c, 0, 64, 127
1, 229777, Control_c, 0, 64, 80
1, 229792, Control_c, 0, 64, 0
1, 229905, Note_off_c, 0, 84, 58
1, 229933, Note_off_c, 0, 78, 57
1, 229969, Control_c, 0, 64, 63
1, 229984, Control_c, 0, 64, 85
1, 229998, Control_c, 0, 64, 127
1, 230042, Note_on_c, 0, 89, 87
1, 230115, Note_on_c, 0, 87, 99
1, 230122, Note_off_c, 0, 90, 32
1, 230144, Note_off_c, 0, 89, 61
1, 230162, Note_off_c, 0, 87, 66
1, 230192, Control_c, 0, 64, 75
1, 230193, Note_on_c, 0, 94, 100
1, 230194, Note_on_c, 0, 46, 106
1, 230197, Note_on_c, 0, 82, 98
1, 230198, Note_on_c, 0, 34, 94
1, 230204, Note_on_c, 0, 89, 78
1, 230206, Control_c, 0, 64, 0
1, 230232, Note_on_c, 0, 87, 15
1, 230250, Control_c, 0, 64, 69
1, 230265, Control_c, 0, 64, 98
1, 230280, Note_off_c, 0, 87, 38
1, 230280, Control_c, 0, 64, 127
1, 230390, Note_off_c, 0, 34, 58
1, 230412, Note_off_c, 0, 46, 55
1, 230572, Note_on_c, 0, 50, 93
1, 230573, Note_on_c, 0, 38, 89
1, 230594, Note_off_c, 0, 50, 69
1, 230597, Note_off_c, 0, 38, 66
1, 230656, Note_on_c, 0, 53, 100
1, 230657, Note_on_c, 0, 41, 92
1, 230675, Note_off_c, 0, 53, 74
1, 230681, Note_off_c, 0, 41, 70
1, 230687, Control_c, 0, 64, 95
1, 230690, Note_on_c, 0, 42, 40
1, 230702, Control_c, 0, 64, 45
1, 230717, Control_c, 0, 64, 0
1, 230726, Note_off_c, 0, 42, 53
1, 230746, Control_c, 0, 64, 47
1, 230750, Note_off_c, 0, 82, 63
1, 230761, Control_c, 0, 64, 74
1, 230763, Note_on_c, 0, 40, 98
1, 230767, Note_on_c, 0, 28, 96
1, 230776, Control_c, 0, 64, 105
1, 230791, Note_off_c, 0, 28, 64
1, 230791, Note_off_c, 0, 89, 58
1, 230791, Control_c, 0, 64, 127
1, 230792, Note_off_c, 0, 40, 65
1, 230795, Note_off_c, 0, 94, 63
1, 230798, Note_on_c, 0, 38, 24
1, 230829, Note_off_c, 0, 38, 55
1, 230852, Poly_aftertouch_c, 0, 34, 0
1, 230903, Poly_aftertouch_c, 0, 34, 0
1, 230917, Poly_aftertouch_c, 0, 28, 127
1, 230956, Poly_aftertouch_c, 0, 28, 0
1, 231223, Note_on_c, 0, 50, 77
1, 231246, Note_on_c, 0, 53, 75
1, 231268, Note_on_c, 0, 58, 84
1, 231274, Control_c, 0, 64, 95
1, 231274, Note_off_c, 0, 50, 65
1, 231289, Control_c, 0, 64, 45
1, 231295, Note_off_c, 0, 53, 66
1, 231299, Note_on_c, 0, 86, 101
1, 231299, Note_on_c, 0, 98, 106
1, 231303, Note_on_c, 0, 94, 97
1, 231303, Control_c, 0, 64, 0
1, 231313, Note_on_c, 0, 65, 103
1, 231328, Note_off_c, 0, 58, 66
1, 231333, Control_c, 0, 64, 67
1, 231337, Note_off_c, 0, 65, 69
1, 231348, Control_c, 0, 64, 107
1, 231363, Control_c, 0, 64, 127
1, 231466, Control_c, 0, 64, 100
1, 231481, Control_c, 0, 64, 65
1, 231492, Note_off_c, 0, 94, 63
1, 231495, Control_c, 0, 64, 0
1, 231599, Control_c, 0, 64, 36
1, 231614, Control_c, 0, 64, 75
1, 231629, Control_c, 0, 64, 94
1, 231641, Note_off_c, 0, 86, 42
1, 231644, Control_c, 0, 64, 127
1, 231663, Note_on_c, 0, 96, 86
1, 231686, Note_off_c, 0, 98, 64
1, 231751, Note_on_c, 0, 94, 91
1, 231763, Note_off_c, 0, 96, 58
1, 231799, Note_off_c, 0, 94, 66
1, 231828, Control_c, 0, 64, 81
1, 231843, Control_c, 0, 64, 0
1, 231846, Note_on_c, 0, 89, 99
1, 231846, Note_on_c, 0, 94, 91
1, 231849, Note_on_c, 0, 37, 95
1, 231850, Note_on_c, 0, 101, 95
1, 231851, Note_on_c, 0, 25, 89
1, 231855, Note_on_c, 0, 103, 95
1, 231864, Note_on_c, 0, 31, 60
1, 231888, Control_c, 0, 64, 66
1, 231903, Control_c, 0, 64, 90
1, 231918, Control_c, 0, 64, 127
1, 231923, Note_off_c, 0, 31, 42
1, 231948, Note_off_c, 0, 103, 63
1, 232023, Note_off_c, 0, 25, 60
1, 232032, Note_off_c, 0, 37, 60
1, 232156, Note_on_c, 0, 41, 96
1, 232177, Note_off_c, 0, 41, 66
1, 232186, Note_on_c, 0, 31, 42
1, 232187, Note_off_c, 0, 101, 62
1, 232192, Note_off_c, 0, 94, 63
1, 232207, Note_off_c, 0, 89, 59
1, 232229, Note_off_c, 0, 31, 49
1, 232244, Note_on_c, 0, 46, 99
1, 232248, Note_on_c, 0, 34, 95
1, 232264, Note_off_c, 0, 46, 71
1, 232289, Note_off_c, 0, 34, 54
1, 232437, Control_c, 0, 64, 76
1, 232451, Note_on_c, 0, 89, 93
1, 232452, Note_on_c, 0, 92, 96
1, 232452, Control_c, 0, 64, 0
1, 232453, Note_on_c, 0, 101, 92
1, 232460, Note_on_c, 0, 36, 105
1, 232461, Note_on_c, 0, 24, 90
1, 232462, Note_on_c, 0, 103, 82
1, 232478, Note_off_c, 0, 103, 43
1, 232479, Note_off_c, 0, 36, 71
1, 232489, Note_off_c, 0, 24, 64
1, 232497, Control_c, 0, 64, 69
1, 232511, Control_c, 0, 64, 127
1, 232655, Note_off_c, 0, 101, 63
1, 232681, Note_off_c, 0, 89, 61
1, 232700, Note_off_c, 0, 92, 51
1, 232806, Note_on_c, 0, 41, 65
1, 232888, Note_on_c, 0, 44, 86
1, 232897, Note_off_c, 0, 41, 62
1, 232949, Control_c, 0, 64, 87
1, 232964, Control_c, 0, 64, 14
1, 232967, Note_on_c, 0, 48, 98
1, 232967, Note_on_c, 0, 91, 96
1, 232967, Note_on_c, 0, 96, 93
1, 232970, Note_on_c, 0, 100, 102
1, 232970, Note_on_c, 0, 88, 103
1, 232972, Note_on_c, 0, 36, 72
1, 232979, Control_c, 0, 64, 0
1, 232995, Note_off_c, 0, 44, 65
1, 232996, Note_off_c, 0, 48, 64
1, 233000, Note_off_c, 0, 36, 56
1, 233009, Control_c, 0, 64, 70
1, 233024, Control_c, 0, 64, 98
1, 233039, Control_c, 0, 64, 127
1, 233178, Note_off_c, 0, 100, 38
1, 233194, Note_off_c, 0, 88, 57
1, 233198, Note_off_c, 0, 91, 63
1, 233223, Note_off_c, 0, 96, 63
1, 233322, Note_on_c, 0, 52, 67
1, 233391, Note_on_c, 0, 55, 85
1, 233418, Note_off_c, 0, 52, 62
1, 233461, Control_c, 0, 64, 78
1, 233470, Note_on_c, 0, 98, 103
1, 233473, Note_on_c, 0, 86, 101
1, 233474, Note_on_c, 0, 60, 97
1, 233475, Note_on_c, 0, 92, 97
1, 233475, Control_c, 0, 64, 0
1, 233476, Note_on_c, 0, 95, 93
1, 233477, Note_on_c, 0, 48, 76
1, 233498, Note_off_c, 0, 55, 67
1, 233501, Note_off_c, 0, 48, 67
1, 233505, Note_off_c, 0, 60, 61
1, 233505, Control_c, 0, 64, 45
1, 233520, Control_c, 0, 64, 72
1, 233535, Control_c, 0, 64, 99
1, 233549, Control_c, 0, 64, 127
1, 233659, Note_off_c, 0, 86, 58
1, 233709, Note_off_c, 0, 92, 63
1, 233717, Note_off_c, 0, 95, 56
1, 233746, Note_off_c, 0, 98, 57
1, 233786, Note_on_c, 0, 65, 71
1, 233869, Note_on_c, 0, 68, 85
1, 233889, Note_off_c, 0, 65, 62
1, 233906, Control_c, 0, 64, 103
1, 233921, Control_c, 0, 64, 69
1, 233936, Control_c, 0, 64, 0
1, 233936, Note_on_c, 0, 96, 80
1, 233936, Note_on_c, 0, 100, 101
1, 233937, Note_on_c, 0, 91, 97
1, 233939, Note_on_c, 0, 88, 100
1, 233951, Note_on_c, 0, 72, 96
1, 233957, Note_on_c, 0, 60, 85
1, 233965, Control_c, 0, 64, 66
1, 233974, Note_off_c, 0, 68, 66
1, 233977, Note_off_c, 0, 60, 69
1, 233978, Note_off_c, 0, 72, 67
1, 233980, Note_off_c, 0, 88, 63
1, 233980, Control_c, 0, 64, 82
1, 233984, Note_off_c, 0, 100, 68
1, 233995, Control_c, 0, 64, 127
1, 234001, Note_off_c, 0, 91, 68
1, 234001, Note_off_c, 0, 96, 65
1, 234235, Note_on_c, 0, 65, 74
1, 234292, Note_on_c, 0, 86, 88
1, 234295, Note_on_c, 0, 74, 93
1, 234302, Note_on_c, 0, 83, 73
1, 234311, Note_on_c, 0, 80, 72
1, 234353, Note_off_c, 0, 80, 57
1, 234361, Note_off_c, 0, 74, 63
1, 234363, Note_on_c, 0, 68, 88
1, 234371, Note_off_c, 0, 83, 63
1, 234377, Note_off_c, 0, 86, 63
1, 234388, Note_off_c, 0, 65, 62
1, 234416, Control_c, 0, 64, 116
1, 234431, Control_c, 0, 64, 71
1, 234445, Note_on_c, 0, 76, 94
1, 234446, Control_c, 0, 64, 0
1, 234446, Note_on_c, 0, 79, 95
1, 234446, Note_on_c, 0, 88, 95
1, 234447, Note_on_c, 0, 84, 92
1, 234452, Note_on_c, 0, 72, 91
1, 234454, Note_on_c, 0, 60, 86
1, 234462, Note_off_c, 0, 76, 73
1, 234468, Note_off_c, 0, 72, 74
1, 234470, Note_off_c, 0, 68, 66
1, 234485, Note_off_c, 0, 60, 64
1, 234491, Control_c, 0, 64, 69
1, 234493, Note_off_c, 0, 79, 63
1, 234496, Note_off_c, 0, 88, 66
1, 234504, Note_off_c, 0, 84, 67
1, 234506, Control_c, 0, 64, 102
1, 234520, Control_c, 0, 64, 127
1, 234728, Note_on_c, 0, 53, 79
1, 234796, Note_on_c, 0, 62, 87
1, 234797, Note_on_c, 0, 71, 81
1, 234797, Note_on_c, 0, 74, 90
1, 234805, Note_on_c, 0, 68, 75
1, 234840, Note_off_c, 0, 68, 49
1, 234851, Note_off_c, 0, 62, 62
1, 234857, Note_on_c, 0, 56, 88
1, 234865, Note_off_c, 0, 71, 63
1, 234870, Note_off_c, 0, 74, 64
1, 234891, Note_off_c, 0, 53, 65
1, 234914, Control_c, 0, 64, 101
1, 234928, Control_c, 0, 64, 68
1, 234943, Control_c, 0, 64, 0
1, 234944, Note_on_c, 0, 64, 99
1, 234945, Note_on_c, 0, 76, 95
1, 234946, Note_on_c, 0, 67, 92
1, 234951, Note_on_c, 0, 60, 91
1, 234955, Note_on_c, 0, 48, 86
1, 234955, Note_on_c, 0, 72, 80
1, 234967, Note_off_c, 0, 60, 77
1, 234967, Note_off_c, 0, 64, 67
1, 234970, Note_off_c, 0, 56, 68
1, 234973, Control_c, 0, 64, 64
1, 234979, Note_off_c, 0, 48, 69
1, 234982, Note_on_c, 0, 74, 42
1, 234983, Note_off_c, 0, 74, 127
1, 234987, Note_off_c, 0, 67, 59
1, 234988, Control_c, 0, 64, 87
1, 234991, Note_off_c, 0, 76, 65
1, 234997, Note_off_c, 0, 72, 63
1, 235002, Control_c, 0, 64, 127
1, 235244, Note_on_c, 0, 41, 75
1, 235285, Note_on_c, 0, 56, 95
1, 235286, Note_on_c, 0, 59, 80
1, 235291, Note_on_c, 0, 62, 79
1, 235337, Note_off_c, 0, 56, 62
1, 235352, Note_off_c, 0, 59, 58
1, 235355, Note_on_c, 0, 44, 93
1, 235361, Note_off_c, 0, 62, 62
1, 235382, Note_off_c, 0, 41, 62
1, 235418, Control_c, 0, 64, 116
1, 235433, Control_c, 0, 64, 72
1, 235448, Control_c, 0, 64, 0
1, 235449, Note_on_c, 0, 48, 94
1, 235450, Note_on_c, 0, 55, 100
1, 235450, Note_on_c, 0, 64, 99
1, 235452, Note_on_c, 0, 36, 90
1, 235453, Note_on_c, 0, 60, 91
1, 235473, Note_off_c, 0, 44, 65
1, 235473, Note_off_c, 0, 48, 69
1, 235480, Note_off_c, 0, 55, 69
1, 235490, Note_off_c, 0, 36, 62
1, 235492, Control_c, 0, 64, 71
1, 235502, Note_off_c, 0, 64, 64
1, 235507, Control_c, 0, 64, 108
1, 235522, Control_c, 0, 64, 127
1, 235525, Note_off_c, 0, 60, 62
1, 235574, Control_c, 0, 67, 9
1, 235589, Control_c, 0, 67, 12
1, 235604, Control_c, 0, 67, 15
1, 235618, Control_c, 0, 67, 18
1, 235633, Control_c, 0, 67, 22
1, 235648, Control_c, 0, 64, 116
1, 235648, Control_c, 0, 67, 28
1, 235662, Control_c, 0, 64, 84
1, 235662, Control_c, 0, 67, 35
1, 235677, Control_c, 0, 64, 63
1, 235677, Control_c, 0, 67, 40
1, 235692, Control_c, 0, 64, 0
1, 235692, Control_c, 0, 67, 43
1, 235707, Control_c, 0, 67, 44
1, 235811, Control_c, 0, 67, 43
1, 235826, Control_c, 0, 67, 42
1, 235841, Control_c, 0, 67, 41
1, 235856, Control_c, 0, 67, 40
1, 235870, Control_c, 0, 67, 39
1, 235885, Control_c, 0, 67, 38
1, 235900, Control_c, 0, 67, 38
1, 235930, Control_c, 0, 67, 37
1, 235944, Control_c, 0, 67, 37
1, 235959, Control_c, 0, 67, 36
1, 235974, Control_c, 0, 67, 36
1, 236003, Control_c, 0, 67, 35
1, 236033, Control_c, 0, 64, 67
1, 236040, Note_on_c, 0, 60, 91
1, 236041, Note_on_c, 0, 55, 88
1, 236042, Note_on_c, 0, 52, 89
1, 236048, Control_c, 0, 64, 100
1, 236050, Note_on_c, 0, 36, 96
1, 236052, Note_on_c, 0, 24, 86
1, 236064, Note_off_c, 0, 52, 71
1, 236064, Control_c, 0, 64, 127
1, 236064, Control_c, 0, 67, 34
1, 236077, Note_off_c, 0, 24, 64
1, 236077, Note_off_c, 0, 36, 67
1, 236079, Control_c, 0, 67, 32
1, 236084, Note_off_c, 0, 60, 69
1, 236089, Note_off_c, 0, 55, 65
1, 236093, Control_c, 0, 67, 25
1, 236108, Control_c, 0, 67, 12
1, 236123, Control_c, 0, 67, 0
1, 236441, Control_c, 0, 64, 111
1, 236456, Control_c, 0, 64, 95
1, 236471, Control_c, 0, 64, 83
1, 236485, Control_c, 0, 64, 69
1, 236500, Control_c, 0, 64, 0
1, 237005, Control_c, 0, 64, 11
1, 237020, Control_c, 0, 64, 19
1, 237042, Control_c, 0, 64, 26
1, 237057, Control_c, 0, 64, 30
1, 237072, Control_c, 0, 64, 34
1, 237087, Control_c, 0, 64, 39
1, 237102, Control_c, 0, 64, 42
1, 237116, Control_c, 0, 64, 44
1, 237131, Control_c, 0, 64, 45
1, 237146, Control_c, 0, 64, 45
1, 237161, Control_c, 0, 64, 46
1, 237176, Control_c, 0, 64, 47
1, 237190, Control_c, 0, 64, 48
1, 237205, Control_c, 0, 64, 49
1, 237220, Control_c, 0, 64, 50
1, 237266, Note_on_c, 0, 69, 86
1, 237274, Note_on_c, 0, 65, 72
1, 237275, Note_on_c, 0, 60, 73
1, 237277, Note_on_c, 0, 57, 74
1, 237279, Control_c, 0, 64, 49
1, 237323, Control_c, 0, 64, 50
1, 237338, Control_c, 0, 64, 52
1, 237353, Control_c, 0, 64, 54
1, 237368, Control_c, 0, 64, 56
1, 237382, Control_c, 0, 64, 57
1, 237397, Control_c, 0, 64, 59
1, 237412, Control_c, 0, 64, 61
1, 237427, Control_c, 0, 64, 62
1, 237441, Control_c, 0, 64, 63
1, 237456, Control_c, 0, 64, 64
1, 237471, Control_c, 0, 64, 64
1, 237516, Control_c, 0, 64, 65
1, 237649, Control_c, 0, 64, 65
1, 237817, Note_on_c, 0, 33, 86
1, 237820, Control_c, 0, 64, 64
1, 237835, Control_c, 0, 64, 50
1, 237844, Note_off_c, 0, 33, 67
1, 237850, Control_c, 0, 64, 0
1, 237999, Control_c, 0, 64, 37
1, 238013, Control_c, 0, 64, 50
1, 238028, Control_c, 0, 64, 56
1, 238043, Control_c, 0, 64, 59
1, 238057, Control_c, 0, 64, 62
1, 238072, Control_c, 0, 64, 63
1, 238087, Control_c, 0, 64, 64
1, 238102, Control_c, 0, 64, 65
1, 238103, Note_on_c, 0, 31, 83
1, 238118, Control_c, 0, 64, 65
1, 238132, Control_c, 0, 64, 66
1, 238134, Note_off_c, 0, 31, 67
1, 238147, Control_c, 0, 64, 66
1, 238162, Control_c, 0, 64, 67
1, 238173, Note_off_c, 0, 69, 58
1, 238177, Control_c, 0, 64, 68
1, 238184, Note_on_c, 0, 29, 88
1, 238188, Note_off_c, 0, 65, 62
1, 238189, Note_off_c, 0, 57, 60
1, 238192, Control_c, 0, 64, 70
1, 238206, Control_c, 0, 64, 71
1, 238215, Note_off_c, 0, 29, 69
1, 238221, Control_c, 0, 64, 73
1, 238227, Note_off_c, 0, 60, 40
1, 238236, Control_c, 0, 64, 75
1, 238251, Control_c, 0, 64, 76
1, 238265, Control_c, 0, 64, 76
1, 238280, Control_c, 0, 64, 76
1, 238288, Note_on_c, 0, 67, 90
1, 238288, Note_on_c, 0, 55, 88
1, 238291, Note_on_c, 0, 60, 68
1, 238291, Note_on_c, 0, 36, 87
1, 238295, Note_on_c, 0, 64, 69
1, 238295, Control_c, 0, 64, 68
1, 238310, Control_c, 0, 64, 0
1, 238323, Note_off_c, 0, 36, 65
1, 238514, Note_off_c, 0, 55, 63
1, 238518, Control_c, 0, 64, 78
1, 238541, Control_c, 0, 64, 95
1, 238542, Note_off_c, 0, 67, 63
1, 238556, Control_c, 0, 64, 127
1, 238565, Note_off_c, 0, 60, 63
1, 238576, Note_off_c, 0, 64, 61
1, 238810, Note_on_c, 0, 70, 92
1, 238813, Note_on_c, 0, 58, 86
1, 238821, Note_on_c, 0, 65, 72
1, 238823, Note_on_c, 0, 62, 73
1, 238851, Control_c, 0, 64, 96
1, 238866, Control_c, 0, 64, 70
1, 238881, Control_c, 0, 64, 0
1, 239117, Control_c, 0, 64, 14
1, 239147, Control_c, 0, 64, 17
1, 239161, Control_c, 0, 64, 21
1, 239176, Control_c, 0, 64, 28
1, 239191, Control_c, 0, 64, 33
1, 239206, Control_c, 0, 64, 37
1, 239221, Control_c, 0, 64, 40
1, 239236, Control_c, 0, 64, 40
1, 239289, Control_c, 0, 64, 40
1, 239304, Control_c, 0, 64, 39
1, 239318, Control_c, 0, 64, 38
1, 239323, Note_on_c, 0, 38, 90
1, 239333, Control_c, 0, 64, 36
1, 239348, Control_c, 0, 64, 34
1, 239350, Note_off_c, 0, 38, 69
1, 239363, Control_c, 0, 64, 31
1, 239378, Control_c, 0, 64, 29
1, 239392, Control_c, 0, 64, 28
1, 239407, Control_c, 0, 64, 27
1, 239451, Control_c, 0, 64, 28
1, 239466, Control_c, 0, 64, 29
1, 239481, Control_c, 0, 64, 30
1, 239496, Control_c, 0, 64, 31
1, 239525, Control_c, 0, 64, 32
1, 239540, Control_c, 0, 64, 33
1, 239555, Control_c, 0, 64, 35
1, 239570, Control_c, 0, 64, 37
1, 239585, Control_c, 0, 64, 38
1, 239600, Control_c, 0, 64, 40
1, 239618, Note_on_c, 0, 36, 73
1, 239629, Control_c, 0, 64, 38
1, 239644, Control_c, 0, 64, 28
1, 239650, Note_off_c, 0, 36, 62
1, 239659, Control_c, 0, 64, 0
1, 239696, Note_on_c, 0, 34, 78
1, 239726, Note_off_c, 0, 34, 67
1, 239795, Note_on_c, 0, 46, 83
1, 239922, Note_off_c, 0, 46, 63
1, 239940, Control_c, 0, 64, 17
1, 239955, Control_c, 0, 64, 29
1, 239970, Control_c, 0, 64, 37
1, 239984, Control_c, 0, 64, 40
1, 239999, Control_c, 0, 64, 43
1, 240014, Control_c, 0, 64, 44
1, 240036, Control_c, 0, 64, 45
1, 240051, Control_c, 0, 64, 46
1, 240067, Control_c, 0, 64, 47
1, 240082, Control_c, 0, 64, 48
1, 240097, Control_c, 0, 64, 48
1, 240112, Control_c, 0, 64, 49
1, 240127, Control_c, 0, 64, 50
1, 240141, Control_c, 0, 64, 51
1, 240156, Control_c, 0, 64, 52
1, 240171, Control_c, 0, 64, 52
1, 240186, Control_c, 0, 64, 53
1, 240201, Control_c, 0, 64, 55
1, 240215, Control_c, 0, 64, 56
1, 240230, Control_c, 0, 64, 58
1, 240245, Control_c, 0, 64, 59
1, 240259, Control_c, 0, 64, 59
1, 240274, Control_c, 0, 64, 60
1, 240289, Control_c, 0, 64, 61
1, 240304, Control_c, 0, 64, 61
1, 240319, Control_c, 0, 64, 62
1, 240333, Control_c, 0, 64, 63
1, 240348, Control_c, 0, 64, 63
1, 240363, Control_c, 0, 64, 64
1, 240378, Control_c, 0, 64, 64
1, 240407, Control_c, 0, 64, 65
1, 240420, Note_off_c, 0, 65, 50
1, 240426, Note_off_c, 0, 58, 56
1, 240440, Note_off_c, 0, 70, 57
1, 240450, Note_off_c, 0, 62, 54
1, 240482, Control_c, 0, 64, 64
1, 240497, Control_c, 0, 64, 64
1, 240504, Note_on_c, 0, 70, 80
1, 240509, Note_on_c, 0, 62, 61
1, 240509, Note_on_c, 0, 67, 79
1, 240512, Note_on_c, 0, 58, 84
1, 240512, Control_c, 0, 64, 63
1, 240541, Control_c, 0, 64, 63
1, 240674, Control_c, 0, 64, 63
1, 240748, Control_c, 0, 64, 64
1, 240800, Control_c, 0, 64, 64
1, 240890, Control_c, 0, 64, 65
1, 241035, Note_on_c, 0, 34, 86
1, 241060, Note_off_c, 0, 34, 66
1, 241128, Control_c, 0, 64, 65
1, 241187, Control_c, 0, 64, 65
1, 241202, Control_c, 0, 64, 65
1, 241246, Control_c, 0, 64, 66
1, 241290, Control_c, 0, 64, 66
1, 241311, Note_on_c, 0, 33, 80
1, 241320, Control_c, 0, 64, 67
1, 241343, Note_off_c, 0, 33, 66
1, 241350, Control_c, 0, 64, 67
1, 241361, Note_off_c, 0, 58, 64
1, 241364, Note_off_c, 0, 67, 57
1, 241364, Control_c, 0, 64, 68
1, 241370, Note_off_c, 0, 62, 49
1, 241370, Note_off_c, 0, 70, 57
1, 241379, Control_c, 0, 64, 68
1, 241389, Note_on_c, 0, 31, 85
1, 241394, Control_c, 0, 64, 69
1, 241409, Control_c, 0, 64, 69
1, 241427, Note_off_c, 0, 31, 62
1, 241454, Control_c, 0, 64, 68
1, 241469, Control_c, 0, 64, 62
1, 241483, Control_c, 0, 64, 0
1, 241484, Note_on_c, 0, 69, 87
1, 241488, Note_on_c, 0, 38, 90
1, 241491, Note_on_c, 0, 57, 81
1, 241493, Note_on_c, 0, 62, 74
1, 241494, Note_on_c, 0, 65, 68
1, 241541, Note_off_c, 0, 38, 64
1, 241684, Control_c, 0, 64, 24
1, 241699, Control_c, 0, 64, 78
1, 241713, Control_c, 0, 64, 92
1, 241716, Note_off_c, 0, 57, 63
1, 241728, Control_c, 0, 64, 127
1, 241740, Note_off_c, 0, 69, 60
1, 241750, Note_off_c, 0, 62, 61
1, 241767, Note_off_c, 0, 65, 62
1, 242024, Note_on_c, 0, 72, 88
1, 242032, Note_on_c, 0, 63, 80
1, 242035, Note_on_c, 0, 60, 79
1, 242040, Note_on_c, 0, 67, 71
1, 242068, Control_c, 0, 64, 91
1, 242083, Control_c, 0, 64, 69
1, 242097, Control_c, 0, 64, 0
1, 242260, Control_c, 0, 64, 11
1, 242282, Control_c, 0, 64, 21
1, 242297, Control_c, 0, 64, 29
1, 242312, Control_c, 0, 64, 35
1, 242327, Control_c, 0, 64, 37
1, 242342, Control_c, 0, 64, 38
1, 242357, Control_c, 0, 64, 40
1, 242372, Control_c, 0, 64, 42
1, 242386, Control_c, 0, 64, 43
1, 242401, Control_c, 0, 64, 44
1, 242416, Control_c, 0, 64, 44
1, 242430, Control_c, 0, 64, 45
1, 242445, Control_c, 0, 64, 45
1, 242461, Control_c, 0, 64, 46
1, 242476, Control_c, 0, 64, 46
1, 242491, Control_c, 0, 64, 47
1, 242521, Control_c, 0, 64, 48
1, 242535, Control_c, 0, 64, 49
1, 242550, Control_c, 0, 64, 50
1, 242565, Control_c, 0, 64, 50
1, 242580, Control_c, 0, 64, 51
1, 242581, Note_on_c, 0, 39, 85
1, 242605, Note_off_c, 0, 39, 67
1, 242624, Control_c, 0, 64, 51
1, 242639, Control_c, 0, 64, 52
1, 242653, Control_c, 0, 64, 53
1, 242668, Control_c, 0, 64, 54
1, 242683, Control_c, 0, 64, 55
1, 242698, Control_c, 0, 64, 56
1, 242713, Control_c, 0, 64, 57
1, 242727, Control_c, 0, 64, 58
1, 242742, Control_c, 0, 64, 59
1, 242757, Control_c, 0, 64, 60
1, 242771, Control_c, 0, 64, 61
1, 242786, Control_c, 0, 64, 62
1, 242801, Control_c, 0, 64, 63
1, 242816, Control_c, 0, 64, 63
1, 242846, Control_c, 0, 64, 64
1, 242867, Note_on_c, 0, 38, 75
1, 242876, Control_c, 0, 64, 64
1, 242895, Note_off_c, 0, 38, 66
1, 242947, Note_on_c, 0, 36, 82
1, 242975, Note_off_c, 0, 36, 67
1, 243009, Control_c, 0, 64, 65
1, 243031, Control_c, 0, 64, 64
1, 243046, Control_c, 0, 64, 64
1, 243053, Note_on_c, 0, 48, 88
1, 243060, Control_c, 0, 64, 62
1, 243075, Control_c, 0, 64, 54
1, 243090, Control_c, 0, 64, 0
1, 243111, Note_off_c, 0, 48, 62
1, 243284, Control_c, 0, 64, 67
1, 243299, Control_c, 0, 64, 77
1, 243308, Note_off_c, 0, 60, 61
1, 243314, Control_c, 0, 64, 90
1, 243329, Control_c, 0, 64, 124
1, 243344, Control_c, 0, 64, 127
1, 243360, Note_off_c, 0, 63, 60
1, 243365, Note_off_c, 0, 67, 59
1, 243374, Note_off_c, 0, 72, 57
1, 243614, Note_on_c, 0, 72, 72
1, 243618, Note_on_c, 0, 67, 42
1, 243636, Note_on_c, 0, 63, 52
1, 243639, Control_c, 0, 64, 95
1, 243654, Control_c, 0, 64, 80
1, 243669, Control_c, 0, 64, 73
1, 243683, Control_c, 0, 64, 74
1, 243698, Control_c, 0, 64, 80
1, 243713, Control_c, 0, 64, 94
1, 243728, Control_c, 0, 64, 127
1, 243779, Note_off_c, 0, 63, 60
1, 243806, Note_off_c, 0, 72, 61
1, 243830, Note_off_c, 0, 67, 36
1, 243874, Note_on_c, 0, 70, 88
1, 243882, Note_on_c, 0, 62, 69
1, 243883, Control_c, 0, 64, 99
1, 243884, Note_on_c, 0, 67, 62
1, 243898, Control_c, 0, 64, 81
1, 243910, Note_off_c, 0, 62, 65
1, 243913, Note_off_c, 0, 67, 66
1, 243913, Control_c, 0, 64, 72
1, 243928, Control_c, 0, 64, 74
1, 243943, Note_off_c, 0, 70, 66
1, 243943, Control_c, 0, 64, 84
1, 243958, Control_c, 0, 64, 104
1, 243973, Control_c, 0, 64, 127
1, 244117, Note_on_c, 0, 75, 89
1, 244122, Control_c, 0, 64, 100
1, 244133, Note_on_c, 0, 69, 47
1, 244134, Note_on_c, 0, 67, 65
1, 244137, Control_c, 0, 64, 78
1, 244151, Control_c, 0, 64, 63
1, 244166, Control_c, 0, 64, 17
1, 244196, Control_c, 0, 64, 44
1, 244211, Control_c, 0, 64, 55
1, 244225, Control_c, 0, 64, 58
1, 244240, Control_c, 0, 64, 59
1, 244255, Control_c, 0, 64, 59
1, 244270, Control_c, 0, 64, 60
1, 244299, Control_c, 0, 64, 60
1, 244329, Control_c, 0, 64, 61
1, 244344, Control_c, 0, 64, 62
1, 244359, Control_c, 0, 64, 63
1, 244373, Control_c, 0, 64, 63
1, 244384, Note_on_c, 0, 27, 74
1, 244388, Control_c, 0, 64, 64
1, 244410, Note_off_c, 0, 27, 64
1, 244418, Control_c, 0, 64, 64
1, 244447, Control_c, 0, 64, 65
1, 244462, Control_c, 0, 64, 65
1, 244470, Note_on_c, 0, 26, 81
1, 244477, Control_c, 0, 64, 66
1, 244492, Control_c, 0, 64, 67
1, 244506, Note_off_c, 0, 26, 66
1, 244506, Control_c, 0, 64, 68
1, 244574, Control_c, 0, 64, 67
1, 244575, Note_on_c, 0, 38, 81
1, 244578, Note_off_c, 0, 67, 59
1, 244589, Control_c, 0, 64, 61
1, 244604, Control_c, 0, 64, 14
1, 244606, Note_off_c, 0, 38, 67
1, 244607, Note_off_c, 0, 69, 57
1, 244619, Control_c, 0, 64, 0
1, 244775, Note_on_c, 0, 74, 76
1, 244777, Note_on_c, 0, 65, 61
1, 244786, Note_on_c, 0, 69, 64
1, 244796, Control_c, 0, 64, 65
1, 244811, Control_c, 0, 64, 74
1, 244825, Control_c, 0, 64, 84
1, 244828, Note_off_c, 0, 65, 58
1, 244840, Control_c, 0, 64, 104
1, 244845, Note_off_c, 0, 75, 56
1, 244852, Note_off_c, 0, 69, 61
1, 244855, Note_off_c, 0, 74, 65
1, 244856, Control_c, 0, 64, 127
1, 245015, Note_on_c, 0, 72, 72
1, 245018, Note_on_c, 0, 67, 58
1, 245019, Control_c, 0, 64, 89
1, 245034, Control_c, 0, 64, 72
1, 245038, Note_on_c, 0, 63, 53
1, 245049, Control_c, 0, 64, 65
1, 245064, Control_c, 0, 64, 68
1, 245079, Control_c, 0, 64, 76
1, 245093, Control_c, 0, 64, 91
1, 245099, Note_off_c, 0, 67, 61
1, 245108, Control_c, 0, 64, 127
1, 245141, Note_off_c, 0, 63, 58
1, 245242, Control_c, 0, 64, 109
1, 245247, Note_on_c, 0, 70, 77
1, 245252, Note_on_c, 0, 62, 65
1, 245256, Control_c, 0, 64, 81
1, 245263, Note_on_c, 0, 65, 70
1, 245278, Control_c, 0, 64, 65
1, 245293, Control_c, 0, 64, 54
1, 245302, Note_off_c, 0, 72, 60
1, 245308, Control_c, 0, 64, 64
1, 245323, Control_c, 0, 64, 71
1, 245324, Note_off_c, 0, 62, 60
1, 245338, Control_c, 0, 64, 83
1, 245349, Note_off_c, 0, 65, 63
1, 245353, Control_c, 0, 64, 127
1, 245354, Note_off_c, 0, 70, 62
1, 245544, Note_on_c, 0, 67, 67
1, 245545, Control_c, 0, 64, 97
1, 245560, Control_c, 0, 64, 77
1, 245563, Note_on_c, 0, 58, 47
1, 245568, Note_on_c, 0, 64, 47
1, 245573, Note_on_c, 0, 61, 41
1, 245574, Control_c, 0, 64, 63
1, 245589, Control_c, 0, 64, 0
1, 245709, Control_c, 0, 64, 14
1, 245724, Control_c, 0, 64, 24
1, 245739, Control_c, 0, 64, 32
1, 245753, Control_c, 0, 64, 38
1, 245768, Control_c, 0, 64, 40
1, 245783, Control_c, 0, 64, 42
1, 245796, Note_on_c, 0, 28, 68
1, 245797, Control_c, 0, 64, 43
1, 245812, Control_c, 0, 64, 43
1, 245827, Control_c, 0, 64, 44
1, 245829, Note_off_c, 0, 28, 62
1, 245842, Control_c, 0, 64, 46
1, 245857, Control_c, 0, 64, 47
1, 245863, Note_off_c, 0, 58, 62
1, 245871, Control_c, 0, 64, 49
1, 245886, Note_on_c, 0, 26, 60
1, 245886, Control_c, 0, 64, 49
1, 245916, Control_c, 0, 64, 48
1, 245919, Note_off_c, 0, 26, 60
1, 245931, Control_c, 0, 64, 39
1, 245946, Control_c, 0, 64, 0
1, 245994, Note_on_c, 0, 38, 67
1, 246029, Note_off_c, 0, 38, 64
1, 246262, Note_on_c, 0, 69, 55
1, 246273, Note_on_c, 0, 57, 42
1, 246279, Control_c, 0, 64, 53
1, 246294, Control_c, 0, 64, 67
1, 246309, Control_c, 0, 64, 71
1, 246320, Note_off_c, 0, 64, 58
1, 246324, Control_c, 0, 64, 78
1, 246339, Control_c, 0, 64, 88
1, 246345, Note_off_c, 0, 67, 58
1, 246353, Control_c, 0, 64, 102
1, 246367, Note_off_c, 0, 57, 57
1, 246368, Control_c, 0, 64, 127
1, 246385, Note_off_c, 0, 61, 41
1, 246399, Note_off_c, 0, 69, 56
1, 246521, Note_on_c, 0, 69, 61
1, 246527, Note_on_c, 0, 57, 42
1, 246532, Control_c, 0, 64, 105
1, 246539, Note_on_c, 0, 62, 47
1, 246539, Note_on_c, 0, 66, 53
1, 246547, Control_c, 0, 64, 81
1, 246562, Control_c, 0, 64, 64
1, 246576, Control_c, 0, 64, 0
1, 246650, Control_c, 0, 67, 11
1, 246665, Control_c, 0, 67, 14
1, 246680, Control_c, 0, 67, 20
1, 246694, Control_c, 0, 67, 25
1, 246709, Control_c, 0, 67, 30
1, 246724, Control_c, 0, 67, 34
1, 246739, Control_c, 0, 67, 39
1, 246754, Control_c, 0, 67, 43
1, 246776, Control_c, 0, 67, 48
1, 246791, Control_c, 0, 67, 52
1, 246806, Control_c, 0, 67, 56
1, 246821, Control_c, 0, 67, 60
1, 246835, Control_c, 0, 67, 63
1, 246850, Control_c, 0, 67, 67
1, 246865, Control_c, 0, 67, 71
1, 246880, Control_c, 0, 67, 75
1, 246895, Control_c, 0, 67, 78
1, 246909, Control_c, 0, 67, 81
1, 246924, Control_c, 0, 67, 85
1, 246939, Control_c, 0, 67, 88
1, 246954, Control_c, 0, 67, 92
1, 246968, Control_c, 0, 67, 96
1, 246983, Control_c, 0, 67, 99
1, 246998, Control_c, 0, 67, 103
1, 247013, Control_c, 0, 67, 106
1, 247028, Control_c, 0, 67, 110
1, 247043, Control_c, 0, 67, 113
1, 247058, Control_c, 0, 67, 116
1, 247073, Control_c, 0, 67, 120
1, 247088, Control_c, 0, 67, 123
1, 247102, Control_c, 0, 67, 126
1, 247117, Control_c, 0, 67, 127
1, 247125, Note_on_c, 0, 30, 67
1, 247174, Note_off_c, 0, 30, 62
1, 247681, Note_on_c, 0, 28, 54
1, 247716, Note_off_c, 0, 28, 61
1, 247957, Note_on_c, 0, 26, 51
1, 247991, Note_off_c, 0, 26, 58
1, 248254, Note_on_c, 0, 38, 47
1, 248292, Note_off_c, 0, 38, 55
1, 249416, Note_off_c, 0, 69, 47
1, 249478, Note_off_c, 0, 57, 59
1, 249490, Note_off_c, 0, 66, 61
1, 249492, Note_off_c, 0, 62, 58
1, 250088, Note_on_c, 0, 59, 50
1, 250099, Note_on_c, 0, 55, 39
1, 250101, Note_on_c, 0, 50, 41
1, 250118, Note_on_c, 0, 47, 33
1, 250619, Note_on_c, 0, 35, 54
1, 250647, Note_off_c, 0, 35, 59
1, 250844, Note_off_c, 0, 50, 64
1, 250851, Note_off_c, 0, 55, 56
1, 250856, Note_on_c, 0, 33, 63
1, 250861, Note_off_c, 0, 47, 58
1, 250888, Note_off_c, 0, 33, 61
1, 250948, Note_on_c, 0, 31, 61
1, 250978, Note_off_c, 0, 31, 57
1, 251092, Note_on_c, 0, 57, 56
1, 251109, Note_on_c, 0, 54, 51
1, 251111, Note_on_c, 0, 50, 44
1, 251115, Note_off_c, 0, 59, 48
1, 251308, Note_off_c, 0, 50, 64
1, 251308, Note_off_c, 0, 54, 65
1, 251335, Note_on_c, 0, 38, 56
1, 251362, Note_off_c, 0, 38, 58
1, 251604, Note_on_c, 0, 60, 59
1, 251622, Note_on_c, 0, 52, 42
1, 251625, Note_on_c, 0, 48, 35
1, 251626, Note_on_c, 0, 55, 43
1, 251671, Note_off_c, 0, 57, 51
1, 251996, Control_c, 0, 64, 11
1, 252105, Note_on_c, 0, 64, 63
1, 252125, Note_off_c, 0, 64, 66
1, 252167, Control_c, 0, 64, 14
1, 252286, Control_c, 0, 64, 17
1, 252331, Note_on_c, 0, 62, 67
1, 252360, Note_off_c, 0, 62, 65
1, 252366, Note_off_c, 0, 60, 61
1, 252430, Note_on_c, 0, 60, 58
1, 252448, Control_c, 0, 64, 14
1, 252450, Note_off_c, 0, 60, 63
1, 252563, Note_on_c, 0, 56, 49
1, 252567, Control_c, 0, 67, 126
1, 252581, Control_c, 0, 64, 17
1, 252581, Control_c, 0, 67, 125
1, 252596, Control_c, 0, 67, 124
1, 252611, Control_c, 0, 64, 19
1, 252611, Control_c, 0, 67, 123
1, 252626, Control_c, 0, 64, 23
1, 252626, Control_c, 0, 67, 122
1, 252641, Control_c, 0, 64, 24
1, 252641, Control_c, 0, 67, 122
1, 252656, Control_c, 0, 64, 26
1, 252656, Control_c, 0, 67, 121
1, 252671, Control_c, 0, 64, 28
1, 252671, Control_c, 0, 67, 120
1, 252685, Control_c, 0, 64, 29
1, 252685, Control_c, 0, 67, 120
1, 252700, Control_c, 0, 64, 30
1, 252715, Control_c, 0, 64, 31
1, 252730, Control_c, 0, 64, 32
1, 252745, Control_c, 0, 64, 33
1, 252766, Control_c, 0, 64, 36
1, 252766, Control_c, 0, 67, 120
1, 252781, Control_c, 0, 64, 37
1, 252781, Control_c, 0, 67, 121
1, 252789, Note_off_c, 0, 55, 50
1, 252796, Control_c, 0, 64, 38
1, 252796, Control_c, 0, 67, 121
1, 252798, Note_on_c, 0, 72, 62
1, 252807, Note_off_c, 0, 52, 54
1, 252811, Note_off_c, 0, 56, 62
1, 252811, Control_c, 0, 64, 39
1, 252817, Note_off_c, 0, 48, 48
1, 252824, Note_off_c, 0, 72, 65
1, 252826, Control_c, 0, 64, 40
1, 252826, Control_c, 0, 67, 122
1, 252842, Control_c, 0, 64, 40
1, 252842, Control_c, 0, 67, 122
1, 252857, Control_c, 0, 64, 42
1, 252857, Control_c, 0, 67, 123
1, 252871, Control_c, 0, 64, 42
1, 252871, Control_c, 0, 67, 123
1, 252886, Control_c, 0, 64, 43
1, 252886, Control_c, 0, 67, 124
1, 252901, Control_c, 0, 67, 124
1, 252916, Control_c, 0, 64, 43
1, 252916, Control_c, 0, 67, 125
1, 252945, Control_c, 0, 67, 125
1, 252990, Control_c, 0, 67, 126
1, 253005, Control_c, 0, 64, 43
1, 253020, Control_c, 0, 64, 42
1, 253035, Control_c, 0, 64, 42
1, 253041, Note_on_c, 0, 60, 63
1, 253049, Control_c, 0, 64, 41
1, 253052, Note_on_c, 0, 57, 51
1, 253055, Note_on_c, 0, 52, 48
1, 253062, Note_on_c, 0, 48, 43
1, 253064, Control_c, 0, 64, 40
1, 253079, Control_c, 0, 64, 40
1, 253108, Control_c, 0, 64, 39
1, 253123, Control_c, 0, 67, 126
1, 253137, Control_c, 0, 64, 38
1, 253211, Control_c, 0, 64, 38
1, 253345, Control_c, 0, 67, 126
1, 253580, Note_on_c, 0, 36, 72
1, 253610, Note_off_c, 0, 36, 62
1, 253679, Control_c, 0, 67, 126
1, 253693, Control_c, 0, 64, 38
1, 253812, Control_c, 0, 64, 39
1, 253818, Note_on_c, 0, 35, 68
1, 253826, Note_off_c, 0, 52, 62
1, 253827, Control_c, 0, 67, 127
1, 253827, Note_off_c, 0, 57, 59
1, 253837, Note_off_c, 0, 48, 57
1, 253845, Note_off_c, 0, 35, 65
1, 253902, Note_on_c, 0, 33, 71
1, 253917, Control_c, 0, 67, 127
1, 253934, Note_off_c, 0, 33, 62
1, 254046, Note_on_c, 0, 59, 69
1, 254065, Control_c, 0, 64, 40
1, 254066, Note_on_c, 0, 55, 56
1, 254069, Note_on_c, 0, 52, 44
1, 254075, Note_off_c, 0, 60, 62
1, 254212, Control_c, 0, 64, 40
1, 254285, Note_on_c, 0, 40, 66
1, 254287, Note_off_c, 0, 52, 61
1, 254307, Note_off_c, 0, 55, 64
1, 254311, Note_off_c, 0, 40, 65
1, 254398, Control_c, 0, 64, 40
1, 254427, Control_c, 0, 67, 127
1, 254443, Control_c, 0, 67, 126
1, 254458, Control_c, 0, 67, 126
1, 254488, Control_c, 0, 64, 39
1, 254488, Control_c, 0, 67, 125
1, 254561, Control_c, 0, 67, 125
1, 254566, Note_on_c, 0, 62, 66
1, 254590, Note_on_c, 0, 57, 51
1, 254594, Note_on_c, 0, 55, 41
1, 254608, Note_on_c, 0, 50, 20
1, 254651, Note_off_c, 0, 59, 49
1, 254665, Control_c, 0, 67, 124
1, 254724, Control_c, 0, 64, 40
1, 254724, Control_c, 0, 67, 124
1, 254754, Control_c, 0, 67, 123
1, 254768, Control_c, 0, 64, 40
1, 254768, Control_c, 0, 67, 123
1, 254798, Control_c, 0, 67, 122
1, 254813, Control_c, 0, 67, 122
1, 254828, Control_c, 0, 67, 121
1, 254857, Control_c, 0, 67, 121
1, 254887, Control_c, 0, 64, 41
1, 254887, Control_c, 0, 67, 120
1, 254931, Control_c, 0, 67, 120
1, 255057, Control_c, 0, 67, 119
1, 255085, Note_on_c, 0, 67, 62
1, 255107, Note_off_c, 0, 67, 63
1, 255190, Control_c, 0, 64, 42
1, 255236, Control_c, 0, 64, 42
1, 255265, Control_c, 0, 64, 43
1, 255295, Note_on_c, 0, 64, 64
1, 255295, Control_c, 0, 64, 43
1, 255310, Note_off_c, 0, 55, 64
1, 255310, Control_c, 0, 64, 44
1, 255323, Note_off_c, 0, 64, 68
1, 255337, Note_off_c, 0, 62, 56
1, 255354, Control_c, 0, 64, 44
1, 255375, Note_on_c, 0, 62, 61
1, 255404, Note_off_c, 0, 62, 66
1, 255443, Control_c, 0, 64, 45
1, 255457, Control_c, 0, 64, 45
1, 255457, Control_c, 0, 67, 120
1, 255472, Control_c, 0, 67, 120
1, 255487, Control_c, 0, 64, 46
1, 255502, Control_c, 0, 64, 46
1, 255502, Control_c, 0, 67, 121
1, 255516, Control_c, 0, 64, 47
1, 255531, Control_c, 0, 67, 122
1, 255535, Note_on_c, 0, 53, 49
1, 255561, Control_c, 0, 67, 122
1, 255576, Control_c, 0, 67, 123
1, 255590, Control_c, 0, 67, 123
1, 255605, Control_c, 0, 67, 124
1, 255620, Control_c, 0, 67, 124
1, 255635, Control_c, 0, 67, 125
1, 255650, Control_c, 0, 67, 125
1, 255664, Control_c, 0, 67, 126
1, 255679, Control_c, 0, 67, 126
1, 255694, Control_c, 0, 67, 127
1, 255723, Control_c, 0, 64, 46
1, 255738, Control_c, 0, 64, 46
1, 255747, Note_off_c, 0, 50, 46
1, 255761, Control_c, 0, 64, 45
1, 255767, Note_on_c, 0, 74, 65
1, 255776, Control_c, 0, 64, 45
1, 255785, Note_off_c, 0, 74, 67
1, 255789, Note_off_c, 0, 53, 60
1, 255812, Note_off_c, 0, 57, 56
1, 255908, Control_c, 0, 64, 41
1, 255923, Control_c, 0, 64, 23
1, 255938, Control_c, 0, 64, 0
1, 256038, Note_on_c, 0, 41, 43
1, 256042, Note_on_c, 0, 62, 54
1, 256043, Control_c, 0, 67, 127
1, 256045, Note_on_c, 0, 57, 38
1, 256058, Control_c, 0, 64, 58
1, 256058, Control_c, 0, 67, 124
1, 256073, Control_c, 0, 64, 66
1, 256073, Control_c, 0, 67, 122
1, 256087, Control_c, 0, 64, 74
1, 256087, Control_c, 0, 67, 120
1, 256102, Control_c, 0, 64, 83
1, 256102, Control_c, 0, 67, 117
1, 256117, Control_c, 0, 64, 98
1, 256117, Control_c, 0, 67, 109
1, 256132, Control_c, 0, 64, 127
1, 256132, Control_c, 0, 67, 95
1, 256147, Control_c, 0, 67, 72
1, 256157, Note_off_c, 0, 57, 54
1, 256162, Control_c, 0, 67, 51
1, 256176, Control_c, 0, 67, 35
1, 256191, Control_c, 0, 67, 24
1, 256195, Note_off_c, 0, 62, 59
1, 256200, Note_off_c, 0, 41, 41
1, 256206, Control_c, 0, 67, 16
1, 256221, Control_c, 0, 67, 9
1, 256236, Control_c, 0, 67, 0
1, 256277, Note_on_c, 0, 60, 71
1, 256282, Note_on_c, 0, 40, 57
1, 256287, Note_on_c, 0, 55, 56
1, 256310, Control_c, 0, 64, 96
1, 256325, Control_c, 0, 64, 83
1, 256339, Control_c, 0, 64, 80
1, 256354, Control_c, 0, 64, 81
1, 256357, Note_off_c, 0, 40, 62
1, 256369, Control_c, 0, 64, 90
1, 256369, Control_c, 0, 67, 8
1, 256384, Control_c, 0, 64, 107
1, 256384, Control_c, 0, 67, 8
1, 256386, Note_off_c, 0, 55, 62
1, 256399, Control_c, 0, 64, 127
1, 256399, Control_c, 0, 67, 9
1, 256412, Note_off_c, 0, 60, 64
1, 256413, Control_c, 0, 67, 9
1, 256428, Control_c, 0, 67, 10
1, 256443, Control_c, 0, 67, 11
1, 256473, Control_c, 0, 67, 11
1, 256510, Control_c, 0, 67, 12
1, 256539, Control_c, 0, 67, 12
1, 256584, Control_c, 0, 67, 13
1, 256633, Note_on_c, 0, 65, 69
1, 256638, Note_on_c, 0, 26, 46
1, 256640, Note_on_c, 0, 58, 50
1, 256647, Note_on_c, 0, 38, 44
1, 256658, Control_c, 0, 67, 13
1, 256659, Note_on_c, 0, 53, 48
1, 256673, Control_c, 0, 64, 113
1, 256687, Control_c, 0, 64, 89
1, 256702, Control_c, 0, 64, 72
1, 256717, Control_c, 0, 64, 54
1, 256731, Control_c, 0, 64, 0
1, 256776, Control_c, 0, 64, 23
1, 256791, Control_c, 0, 64, 54
1, 256805, Control_c, 0, 64, 64
1, 256820, Control_c, 0, 64, 68
1, 256836, Control_c, 0, 64, 74
1, 256851, Control_c, 0, 64, 84
1, 256866, Control_c, 0, 64, 98
1, 256881, Control_c, 0, 64, 127
1, 256984, Control_c, 0, 67, 14
1, 257000, Note_off_c, 0, 53, 62
1, 257023, Note_off_c, 0, 26, 40
1, 257032, Note_off_c, 0, 38, 40
1, 257039, Note_off_c, 0, 65, 59
1, 257153, Note_off_c, 0, 58, 0
1, 257191, Poly_aftertouch_c, 0, 58, 127
1, 257192, Control_c, 0, 64, 105
1, 257193, Note_on_c, 0, 64, 66
1, 257207, Control_c, 0, 64, 85
1, 257208, Note_on_c, 0, 40, 46
1, 257208, Note_on_c, 0, 55, 53
1, 257212, Note_on_c, 0, 28, 44
1, 257222, Control_c, 0, 64, 72
1, 257236, Control_c, 0, 64, 68
1, 257258, Control_c, 0, 64, 70
1, 257273, Control_c, 0, 64, 77
1, 257288, Control_c, 0, 64, 88
1, 257303, Control_c, 0, 64, 107
1, 257318, Control_c, 0, 64, 127
1, 257330, Note_off_c, 0, 55, 60
1, 257349, Note_off_c, 0, 28, 34
1, 257357, Note_off_c, 0, 64, 63
1, 257360, Note_off_c, 0, 40, 32
1, 257422, Control_c, 0, 64, 126
1, 257431, Note_on_c, 0, 58, 15
1, 257436, Control_c, 0, 64, 97
1, 257445, Note_on_c, 0, 62, 73
1, 257450, Note_on_c, 0, 41, 57
1, 257451, Control_c, 0, 64, 89
1, 257452, Note_on_c, 0, 29, 56
1, 257457, Note_on_c, 0, 53, 61
1, 257466, Control_c, 0, 64, 88
1, 257480, Control_c, 0, 64, 94
1, 257495, Control_c, 0, 64, 109
1, 257510, Control_c, 0, 64, 127
1, 257521, Note_off_c, 0, 41, 60
1, 257531, Note_off_c, 0, 29, 58
1, 257531, Note_off_c, 0, 53, 62
1, 257583, Note_off_c, 0, 62, 59
1, 257631, Control_c, 0, 64, 119
1, 257646, Control_c, 0, 64, 88
1, 257660, Control_c, 0, 64, 71
1, 257673, Note_on_c, 0, 60, 71
1, 257675, Control_c, 0, 64, 62
1, 257679, Note_on_c, 0, 43, 59
1, 257679, Note_on_c, 0, 52, 61
1, 257680, Note_on_c, 0, 31, 57
1, 257690, Control_c, 0, 64, 63
1, 257705, Control_c, 0, 64, 69
1, 257715, Note_off_c, 0, 43, 63
1, 257715, Note_off_c, 0, 31, 58
1, 257720, Control_c, 0, 64, 77
1, 257732, Note_off_c, 0, 52, 57
1, 257734, Control_c, 0, 64, 89
1, 257734, Control_c, 0, 67, 13
1, 257744, Note_off_c, 0, 58, 57
1, 257749, Control_c, 0, 64, 110
1, 257751, Note_off_c, 0, 60, 63
1, 257764, Control_c, 0, 64, 127
1, 257793, Control_c, 0, 67, 13
1, 257896, Control_c, 0, 64, 101
1, 257908, Note_on_c, 0, 34, 58
1, 257911, Note_on_c, 0, 58, 69
1, 257911, Control_c, 0, 64, 77
1, 257914, Note_on_c, 0, 53, 55
1, 257920, Note_on_c, 0, 46, 49
1, 257926, Control_c, 0, 64, 58
1, 257933, Note_on_c, 0, 50, 37
1, 257941, Control_c, 0, 64, 0
1, 257971, Control_c, 0, 64, 61
1, 257986, Control_c, 0, 64, 70
1, 258008, Control_c, 0, 64, 79
1, 258016, Note_off_c, 0, 53, 66
1, 258019, Note_off_c, 0, 50, 56
1, 258023, Note_off_c, 0, 46, 60
1, 258023, Control_c, 0, 64, 91
1, 258027, Note_off_c, 0, 34, 60
1, 258038, Control_c, 0, 64, 104
1, 258053, Control_c, 0, 64, 120
1, 258067, Control_c, 0, 64, 127
1, 258082, Control_c, 0, 67, 12
1, 258111, Control_c, 0, 67, 12
1, 258197, Note_on_c, 0, 55, 56
1, 258200, Control_c, 0, 64, 116
1, 258200, Control_c, 0, 67, 12
1, 258211, Note_on_c, 0, 36, 37
1, 258212, Note_on_c, 0, 52, 41
1, 258215, Control_c, 0, 64, 98
1, 258217, Note_on_c, 0, 48, 33
1, 258230, Control_c, 0, 64, 83
1, 258230, Control_c, 0, 67, 13
1, 258245, Control_c, 0, 64, 69
1, 258245, Control_c, 0, 67, 14
1, 258260, Control_c, 0, 64, 0
1, 258260, Control_c, 0, 67, 14
1, 258275, Control_c, 0, 67, 15
1, 258290, Control_c, 0, 67, 16
1, 258297, Note_off_c, 0, 58, 46
1, 258304, Control_c, 0, 67, 16
1, 258319, Control_c, 0, 67, 17
1, 258334, Control_c, 0, 67, 18
1, 258349, Control_c, 0, 67, 20
1, 258364, Control_c, 0, 67, 22
1, 258378, Control_c, 0, 67, 24
1, 258393, Control_c, 0, 67, 27
1, 258408, Control_c, 0, 67, 30
1, 258423, Control_c, 0, 67, 34
1, 258439, Control_c, 0, 67, 37
1, 258454, Control_c, 0, 67, 40
1, 258469, Control_c, 0, 67, 42
1, 258483, Control_c, 0, 67, 44
1, 258498, Control_c, 0, 67, 46
1, 258513, Control_c, 0, 67, 50
1, 258527, Control_c, 0, 67, 54
1, 258542, Control_c, 0, 64, 52
1, 258542, Control_c, 0, 67, 59
1, 258557, Control_c, 0, 64, 63
1, 258557, Control_c, 0, 67, 62
1, 258572, Control_c, 0, 64, 67
1, 258572, Control_c, 0, 67, 65
1, 258587, Control_c, 0, 64, 71
1, 258587, Control_c, 0, 67, 68
1, 258601, Control_c, 0, 64, 75
1, 258601, Control_c, 0, 67, 71
1, 258616, Control_c, 0, 64, 79
1, 258616, Control_c, 0, 67, 74
1, 258631, Control_c, 0, 64, 83
1, 258631, Control_c, 0, 67, 76
1, 258646, Control_c, 0, 64, 85
1, 258646, Control_c, 0, 67, 80
1, 258661, Control_c, 0, 64, 87
1, 258661, Control_c, 0, 67, 84
1, 258675, Control_c, 0, 64, 87
1, 258675, Control_c, 0, 67, 88
1, 258690, Control_c, 0, 67, 94
1, 258705, Control_c, 0, 67, 102
1, 258719, Control_c, 0, 64, 87
1, 258719, Control_c, 0, 67, 110
1, 258734, Control_c, 0, 64, 84
1, 258734, Control_c, 0, 67, 121
1, 258757, Control_c, 0, 64, 76
1, 258757, Control_c, 0, 67, 127
1, 258772, Control_c, 0, 64, 65
1, 258787, Control_c, 0, 64, 0
1, 258797, Note_on_c, 0, 60, 42
1, 258801, Note_off_c, 0, 55, 58
1, 258949, Control_c, 0, 64, 61
1, 258964, Control_c, 0, 64, 67
1, 258979, Control_c, 0, 64, 75
1, 258985, Note_off_c, 0, 36, 51
1, 258989, Note_off_c, 0, 52, 56
1, 258994, Control_c, 0, 64, 85
1, 259008, Control_c, 0, 64, 101
1, 259023, Control_c, 0, 64, 127
1, 259029, Note_off_c, 0, 48, 53
1, 259038, Note_off_c, 0, 60, 61
1, 259370, Note_on_c, 0, 86, 61
1, 259385, Note_on_c, 0, 81, 29
1, 259390, Note_on_c, 0, 77, 36
1, 259441, Note_off_c, 0, 81, 47
1, 259506, Note_off_c, 0, 86, 62
1, 259545, Note_off_c, 0, 77, 46
1, 259587, Note_on_c, 0, 76, 55
1, 259597, Note_on_c, 0, 84, 73
1, 259613, Note_off_c, 0, 76, 64
1, 259614, Note_on_c, 0, 79, 51
1, 259635, Note_off_c, 0, 79, 61
1, 259664, Note_off_c, 0, 84, 65
1, 259757, Control_c, 0, 67, 125
1, 259772, Control_c, 0, 67, 121
1, 259787, Control_c, 0, 67, 117
1, 259802, Control_c, 0, 67, 111
1, 259817, Control_c, 0, 67, 105
1, 259831, Control_c, 0, 67, 97
1, 259846, Control_c, 0, 67, 89
1, 259851, Note_on_c, 0, 89, 77
1, 259855, Note_on_c, 0, 74, 48
1, 259861, Control_c, 0, 67, 82
1, 259875, Note_on_c, 0, 82, 57
1, 259875, Control_c, 0, 67, 75
1, 259888, Note_on_c, 0, 77, 44
1, 259890, Control_c, 0, 67, 69
1, 259905, Control_c, 0, 67, 64
1, 259920, Control_c, 0, 67, 59
1, 259935, Control_c, 0, 67, 55
1, 259949, Control_c, 0, 67, 51
1, 259964, Control_c, 0, 67, 48
1, 259979, Control_c, 0, 67, 45
1, 259994, Control_c, 0, 67, 42
1, 260009, Control_c, 0, 67, 40
1, 260025, Control_c, 0, 67, 37
1, 260040, Control_c, 0, 67, 33
1, 260054, Control_c, 0, 67, 29
1, 260069, Control_c, 0, 67, 25
1, 260084, Control_c, 0, 67, 21
1, 260099, Control_c, 0, 67, 17
1, 260110, Note_on_c, 0, 62, 46
1, 260114, Control_c, 0, 67, 12
1, 260128, Control_c, 0, 67, 0
1, 260156, Note_off_c, 0, 77, 61
1, 260186, Note_off_c, 0, 89, 61
1, 260239, Note_off_c, 0, 74, 37
1, 260335, Note_off_c, 0, 82, 0
1, 260335, Note_on_c, 0, 82, 17
1, 260343, Note_on_c, 0, 88, 75
1, 260350, Note_off_c, 0, 62, 32
1, 260353, Note_on_c, 0, 79, 65
1, 260354, Note_on_c, 0, 64, 46
1, 260447, Note_off_c, 0, 79, 58
1, 260493, Note_off_c, 0, 88, 62
1, 260516, Note_off_c, 0, 82, 44
1, 260591, Note_on_c, 0, 65, 50
1, 260594, Note_on_c, 0, 86, 69
1, 260601, Note_on_c, 0, 82, 50
1, 260614, Note_on_c, 0, 77, 48
1, 260628, Note_off_c, 0, 64, 32
1, 260660, Note_off_c, 0, 65, 61
1, 260661, Note_off_c, 0, 77, 59
1, 260712, Note_off_c, 0, 86, 61
1, 260733, Note_off_c, 0, 82, 38
1, 260863, Control_c, 0, 67, 8
1, 260877, Control_c, 0, 67, 10
1, 260881, Note_on_c, 0, 84, 59
1, 260886, Note_on_c, 0, 82, 48
1, 260891, Note_on_c, 0, 67, 45
1, 260892, Control_c, 0, 64, 95
1, 260892, Control_c, 0, 67, 12
1, 260901, Note_on_c, 0, 60, 41
1, 260901, Note_on_c, 0, 76, 44
1, 260907, Control_c, 0, 64, 77
1, 260907, Control_c, 0, 67, 14
1, 260922, Control_c, 0, 64, 65
1, 260922, Control_c, 0, 67, 17
1, 260937, Control_c, 0, 64, 63
1, 260937, Control_c, 0, 67, 19
1, 260952, Control_c, 0, 64, 66
1, 260952, Control_c, 0, 67, 21
1, 260967, Control_c, 0, 64, 71
1, 260967, Control_c, 0, 67, 23
1, 260982, Control_c, 0, 64, 77
1, 260982, Control_c, 0, 67, 26
1, 261003, Control_c, 0, 64, 87
1, 261003, Control_c, 0, 67, 29
1, 261018, Control_c, 0, 64, 99
1, 261018, Control_c, 0, 67, 31
1, 261020, Note_off_c, 0, 84, 63
1, 261027, Note_off_c, 0, 76, 45
1, 261032, Note_off_c, 0, 82, 62
1, 261033, Control_c, 0, 64, 124
1, 261033, Control_c, 0, 67, 33
1, 261048, Control_c, 0, 64, 127
1, 261048, Control_c, 0, 67, 35
1, 261063, Control_c, 0, 67, 36
1, 261077, Control_c, 0, 67, 37
1, 261092, Control_c, 0, 67, 38
1, 261107, Control_c, 0, 67, 38
1, 261122, Control_c, 0, 67, 39
1, 261137, Control_c, 0, 67, 40
1, 261152, Control_c, 0, 67, 41
1, 261166, Control_c, 0, 67, 42
1, 261181, Control_c, 0, 67, 42
1, 261196, Control_c, 0, 67, 43
1, 261211, Control_c, 0, 67, 44
1, 261226, Control_c, 0, 67, 45
1, 261241, Control_c, 0, 67, 47
1, 261256, Control_c, 0, 67, 49
1, 261260, Note_on_c, 0, 82, 52
1, 261270, Control_c, 0, 64, 103
1, 261270, Control_c, 0, 67, 51
1, 261274, Note_on_c, 0, 70, 42
1, 261277, Note_on_c, 0, 77, 40
1, 261285, Control_c, 0, 64, 81
1, 261285, Control_c, 0, 67, 53
1, 261294, Note_on_c, 0, 74, 34
1, 261300, Control_c, 0, 64, 64
1, 261300, Control_c, 0, 67, 55
1, 261315, Control_c, 0, 64, 0
1, 261315, Control_c, 0, 67, 57
1, 261329, Control_c, 0, 67, 58
1, 261337, Note_off_c, 0, 67, 56
1, 261344, Control_c, 0, 67, 60
1, 261359, Control_c, 0, 67, 62
1, 261374, Control_c, 0, 67, 64
1, 261389, Control_c, 0, 67, 66
1, 261399, Note_off_c, 0, 77, 61
1, 261403, Control_c, 0, 67, 68
1, 261418, Control_c, 0, 64, 64
1, 261418, Control_c, 0, 67, 69
1, 261433, Control_c, 0, 64, 71
1, 261433, Control_c, 0, 67, 70
1, 261445, Note_off_c, 0, 74, 62
1, 261447, Control_c, 0, 64, 79
1, 261447, Control_c, 0, 67, 71
1, 261462, Control_c, 0, 64, 89
1, 261462, Control_c, 0, 67, 73
1, 261477, Control_c, 0, 64, 103
1, 261477, Control_c, 0, 67, 74
1, 261492, Control_c, 0, 64, 127
1, 261492, Control_c, 0, 67, 75
1, 261500, Note_off_c, 0, 70, 63
1, 261507, Control_c, 0, 67, 76
1, 261521, Control_c, 0, 67, 78
1, 261536, Control_c, 0, 67, 80
1, 261551, Control_c, 0, 67, 81
1, 261566, Control_c, 0, 67, 83
1, 261581, Control_c, 0, 67, 85
1, 261596, Control_c, 0, 67, 88
1, 261611, Control_c, 0, 67, 90
1, 261626, Control_c, 0, 67, 93
1, 261641, Control_c, 0, 67, 96
1, 261656, Control_c, 0, 67, 98
1, 261671, Control_c, 0, 67, 101
1, 261686, Control_c, 0, 67, 104
1, 261700, Control_c, 0, 67, 106
1, 261715, Control_c, 0, 67, 110
1, 261730, Control_c, 0, 67, 113
1, 261733, Note_on_c, 0, 79, 52
1, 261752, Control_c, 0, 67, 116
1, 261757, Note_on_c, 0, 76, 40
1, 261767, Control_c, 0, 64, 119
1, 261767, Control_c, 0, 67, 119
1, 261770, Note_on_c, 0, 72, 35
1, 261782, Control_c, 0, 64, 98
1, 261782, Control_c, 0, 67, 123
1, 261797, Control_c, 0, 64, 84
1, 261797, Control_c, 0, 67, 127
1, 261812, Control_c, 0, 64, 73
1, 261812, Control_c, 0, 67, 127
1, 261826, Control_c, 0, 64, 64
1, 261841, Control_c, 0, 64, 39
1, 261856, Control_c, 0, 64, 0
1, 261873, Note_off_c, 0, 82, 37
1, 262049, Control_c, 0, 64, 37
1, 262064, Control_c, 0, 64, 63
1, 262078, Control_c, 0, 64, 68
1, 262093, Control_c, 0, 64, 73
1, 262108, Control_c, 0, 64, 78
1, 262123, Control_c, 0, 64, 85
1, 262138, Control_c, 0, 64, 94
1, 262152, Control_c, 0, 64, 104
1, 262167, Control_c, 0, 64, 123
1, 262182, Control_c, 0, 64, 127
1, 262663, Note_on_c, 0, 84, 36
1, 262676, Note_on_c, 0, 70, 35
1, 262679, Control_c, 0, 64, 112
1, 262694, Control_c, 0, 64, 100
1, 262708, Control_c, 0, 64, 91
1, 262723, Control_c, 0, 64, 83
1, 262738, Control_c, 0, 64, 74
1, 262753, Control_c, 0, 64, 66
1, 262768, Control_c, 0, 64, 57
1, 262782, Control_c, 0, 64, 38
1, 262796, Note_off_c, 0, 79, 40
1, 262797, Control_c, 0, 64, 14
1, 262812, Control_c, 0, 64, 0
1, 262843, Note_off_c, 0, 72, 43
1, 262961, Control_c, 0, 64, 49
1, 262975, Control_c, 0, 64, 63
1, 262990, Control_c, 0, 64, 67
1, 263005, Control_c, 0, 64, 70
1, 263020, Control_c, 0, 64, 74
1, 263035, Control_c, 0, 64, 79
1, 263049, Control_c, 0, 64, 84
1, 263064, Control_c, 0, 64, 89
1, 263079, Control_c, 0, 64, 93
1, 263091, Note_off_c, 0, 70, 38
1, 263093, Control_c, 0, 64, 99
1, 263108, Control_c, 0, 64, 105
1, 263123, Control_c, 0, 64, 115
1, 263138, Control_c, 0, 64, 127
1, 263174, Note_off_c, 0, 60, 35
1, 263298, Note_off_c, 0, 84, 42
1, 263396, Note_off_c, 0, 76, 42
1, 264207, Control_c, 0, 64, 106
1, 264210, Note_on_c, 0, 69, 52
1, 264219, Note_on_c, 0, 41, 36
1, 264221, Control_c, 0, 64, 93
1, 264236, Control_c, 0, 64, 83
1, 264243, Note_on_c, 0, 65, 35
1, 264251, Control_c, 0, 64, 73
1, 264265, Control_c, 0, 64, 63
1, 264280, Control_c, 0, 64, 52
1, 264295, Control_c, 0, 64, 48
1, 264325, Control_c, 0, 64, 49
1, 264339, Control_c, 0, 64, 53
1, 264354, Control_c, 0, 64, 60
1, 264369, Control_c, 0, 64, 64
1, 264384, Control_c, 0, 64, 67
1, 264399, Control_c, 0, 64, 70
1, 264414, Control_c, 0, 64, 73
1, 264428, Control_c, 0, 64, 76
1, 264443, Control_c, 0, 64, 79
1, 264458, Control_c, 0, 64, 84
1, 264472, Control_c, 0, 64, 88
1, 264487, Control_c, 0, 64, 92
1, 264502, Control_c, 0, 64, 96
1, 264517, Control_c, 0, 64, 100
1, 264532, Control_c, 0, 64, 105
1, 264547, Control_c, 0, 64, 114
1, 264562, Control_c, 0, 64, 127
1, 264587, Note_on_c, 0, 48, 32
1, 264595, Note_off_c, 0, 41, 40
1, 264722, Note_off_c, 0, 48, 34
1, 264839, Note_on_c, 0, 60, 24
1, 264946, Note_off_c, 0, 60, 34
1, 264997, Note_on_c, 0, 48, 43
1, 265147, Note_off_c, 0, 48, 56
1, 265168, Note_on_c, 0, 60, 38
1, 265217, Note_off_c, 0, 65, 37
1, 265246, Note_off_c, 0, 60, 53
1, 265331, Note_on_c, 0, 48, 43
1, 265510, Control_c, 0, 64, 99
1, 265525, Control_c, 0, 64, 83
1, 265530, Note_on_c, 0, 67, 57
1, 265537, Note_on_c, 0, 65, 44
1, 265540, Control_c, 0, 64, 71
1, 265544, Note_on_c, 0, 41, 39
1, 265554, Note_off_c, 0, 48, 37
1, 265555, Control_c, 0, 64, 62
1, 265569, Control_c, 0, 64, 54
1, 265584, Control_c, 0, 64, 55
1, 265599, Control_c, 0, 64, 61
1, 265614, Control_c, 0, 64, 64
1, 265630, Control_c, 0, 64, 66
1, 265645, Control_c, 0, 64, 70
1, 265660, Control_c, 0, 64, 73
1, 265674, Control_c, 0, 64, 78
1, 265689, Control_c, 0, 64, 83
1, 265704, Control_c, 0, 64, 89
1, 265706, Note_off_c, 0, 41, 42
1, 265717, Note_on_c, 0, 48, 40
1, 265718, Control_c, 0, 64, 95
1, 265733, Control_c, 0, 64, 101
1, 265748, Control_c, 0, 64, 110
1, 265763, Control_c, 0, 64, 127
1, 265838, Control_c, 0, 67, 126
1, 265852, Control_c, 0, 67, 125
1, 265867, Control_c, 0, 67, 123
1, 265882, Control_c, 0, 67, 123
1, 265897, Control_c, 0, 67, 122
1, 265902, Note_on_c, 0, 59, 47
1, 265926, Control_c, 0, 67, 122
1, 265927, Note_off_c, 0, 69, 30
1, 265933, Note_off_c, 0, 48, 32
1, 266030, Note_off_c, 0, 59, 37
1, 266044, Control_c, 0, 67, 122
1, 266058, Note_on_c, 0, 48, 49
1, 266104, Control_c, 0, 67, 123
1, 266133, Control_c, 0, 67, 123
1, 266148, Control_c, 0, 67, 124
1, 266163, Control_c, 0, 67, 125
1, 266178, Control_c, 0, 67, 125
1, 266192, Control_c, 0, 67, 126
1, 266222, Control_c, 0, 64, 122
1, 266222, Control_c, 0, 67, 126
1, 266244, Control_c, 0, 64, 92
1, 266252, Note_on_c, 0, 64, 54
1, 266259, Control_c, 0, 64, 73
1, 266261, Note_off_c, 0, 48, 52
1, 266267, Note_on_c, 0, 58, 43
1, 266274, Control_c, 0, 64, 60
1, 266274, Control_c, 0, 67, 127
1, 266289, Control_c, 0, 64, 41
1, 266304, Control_c, 0, 64, 43
1, 266318, Control_c, 0, 64, 55
1, 266333, Control_c, 0, 64, 63
1, 266348, Control_c, 0, 64, 67
1, 266363, Control_c, 0, 64, 73
1, 266378, Control_c, 0, 64, 80
1, 266378, Control_c, 0, 67, 126
1, 266392, Control_c, 0, 64, 88
1, 266407, Control_c, 0, 64, 98
1, 266407, Control_c, 0, 67, 126
1, 266413, Note_off_c, 0, 64, 59
1, 266423, Control_c, 0, 64, 110
1, 266423, Control_c, 0, 67, 125
1, 266434, Note_off_c, 0, 58, 55
1, 266434, Note_on_c, 0, 48, 50
1, 266438, Control_c, 0, 64, 127
1, 266442, Note_off_c, 0, 67, 61
1, 266443, Note_off_c, 0, 65, 38
1, 266453, Control_c, 0, 67, 125
1, 266675, Control_c, 0, 67, 125
1, 266690, Control_c, 0, 67, 126
1, 266705, Control_c, 0, 67, 127
1, 266720, Control_c, 0, 67, 127
1, 266734, Note_on_c, 0, 72, 66
1, 266753, Note_on_c, 0, 67, 47
1, 266760, Note_on_c, 0, 41, 41
1, 266764, Control_c, 0, 64, 105
1, 266771, Note_on_c, 0, 60, 37
1, 266779, Control_c, 0, 64, 87
1, 266794, Note_off_c, 0, 48, 33
1, 266794, Control_c, 0, 64, 73
1, 266809, Control_c, 0, 64, 59
1, 266823, Control_c, 0, 64, 0
1, 266897, Control_c, 0, 64, 28
1, 266912, Control_c, 0, 64, 56
1, 266927, Control_c, 0, 64, 65
1, 266941, Control_c, 0, 64, 68
1, 266956, Control_c, 0, 64, 72
1, 266958, Note_on_c, 0, 48, 27
1, 266968, Note_off_c, 0, 41, 42
1, 266971, Control_c, 0, 64, 76
1, 266994, Control_c, 0, 64, 81
1, 267009, Control_c, 0, 64, 86
1, 267023, Control_c, 0, 64, 92
1, 267038, Control_c, 0, 64, 98
1, 267053, Control_c, 0, 64, 104
1, 267067, Control_c, 0, 64, 112
1, 267082, Control_c, 0, 64, 127
1, 267112, Control_c, 0, 67, 127
1, 267127, Control_c, 0, 67, 126
1, 267141, Control_c, 0, 67, 126
1, 267143, Note_on_c, 0, 57, 45
1, 267156, Control_c, 0, 67, 125
1, 267164, Note_off_c, 0, 48, 42
1, 267186, Control_c, 0, 67, 125
1, 267201, Control_c, 0, 67, 124
1, 267261, Control_c, 0, 67, 124
1, 267301, Note_on_c, 0, 48, 44
1, 267313, Note_off_c, 0, 57, 35
1, 267394, Control_c, 0, 67, 124
1, 267408, Control_c, 0, 67, 125
1, 267423, Control_c, 0, 67, 126
1, 267438, Control_c, 0, 67, 127
1, 267453, Control_c, 0, 67, 127
1, 267497, Note_on_c, 0, 65, 52
1, 267499, Note_on_c, 0, 57, 32
1, 267512, Control_c, 0, 64, 94
1, 267527, Note_off_c, 0, 48, 42
1, 267527, Control_c, 0, 64, 76
1, 267542, Control_c, 0, 64, 62
1, 267557, Control_c, 0, 64, 39
1, 267571, Control_c, 0, 64, 43
1, 267586, Control_c, 0, 64, 59
1, 267601, Control_c, 0, 64, 65
1, 267616, Control_c, 0, 64, 71
1, 267627, Note_off_c, 0, 57, 52
1, 267631, Control_c, 0, 64, 79
1, 267637, Note_off_c, 0, 67, 56
1, 267645, Control_c, 0, 64, 89
1, 267657, Note_on_c, 0, 48, 46
1, 267660, Control_c, 0, 64, 103
1, 267675, Control_c, 0, 64, 127
1, 267816, Control_c, 0, 64, 116
1, 267831, Control_c, 0, 64, 86
1, 267844, Note_off_c, 0, 48, 50
1, 267845, Control_c, 0, 64, 69
1, 267849, Note_on_c, 0, 41, 39
1, 267860, Control_c, 0, 64, 53
1, 267875, Control_c, 0, 64, 58
1, 267889, Control_c, 0, 64, 65
1, 267904, Control_c, 0, 64, 71
1, 267919, Control_c, 0, 64, 78
1, 267934, Control_c, 0, 64, 87
1, 267949, Control_c, 0, 64, 97
1, 267957, Note_off_c, 0, 72, 63
1, 267963, Control_c, 0, 64, 109
1, 267978, Control_c, 0, 64, 124
1, 267984, Note_off_c, 0, 41, 33
1, 267992, Note_on_c, 0, 48, 45
1, 267993, Control_c, 0, 64, 127
1, 268098, Control_c, 0, 67, 127
1, 268112, Control_c, 0, 67, 126
1, 268127, Control_c, 0, 67, 125
1, 268142, Control_c, 0, 67, 124
1, 268157, Control_c, 0, 67, 123
1, 268172, Control_c, 0, 67, 123
1, 268186, Control_c, 0, 67, 122
1, 268201, Control_c, 0, 67, 121
1, 268216, Note_on_c, 0, 72, 57
1, 268216, Control_c, 0, 67, 121
1, 268228, Note_off_c, 0, 48, 40
1, 268231, Control_c, 0, 67, 120
1, 268237, Note_on_c, 0, 56, 33
1, 268246, Control_c, 0, 67, 119
1, 268261, Control_c, 0, 67, 116
1, 268276, Control_c, 0, 67, 112
1, 268291, Control_c, 0, 67, 109
1, 268306, Control_c, 0, 67, 106
1, 268320, Control_c, 0, 67, 102
1, 268335, Control_c, 0, 67, 100
1, 268350, Control_c, 0, 67, 97
1, 268365, Control_c, 0, 67, 96
1, 268380, Control_c, 0, 67, 95
1, 268404, Note_off_c, 0, 56, 43
1, 268428, Note_on_c, 0, 48, 34
1, 268491, Control_c, 0, 67, 96
1, 268535, Control_c, 0, 67, 96
1, 268550, Control_c, 0, 67, 97
1, 268565, Control_c, 0, 67, 97
1, 268580, Control_c, 0, 67, 98
1, 268594, Control_c, 0, 67, 99
1, 268609, Control_c, 0, 67, 100
1, 268624, Control_c, 0, 67, 100
1, 268638, Control_c, 0, 67, 101
1, 268650, Note_on_c, 0, 73, 58
1, 268651, Note_off_c, 0, 48, 40
1, 268653, Control_c, 0, 64, 102
1, 268653, Control_c, 0, 67, 102
1, 268668, Control_c, 0, 64, 82
1, 268668, Control_c, 0, 67, 103
1, 268672, Note_on_c, 0, 56, 21
1, 268683, Control_c, 0, 64, 65
1, 268683, Control_c, 0, 67, 103
1, 268698, Control_c, 0, 64, 0
1, 268698, Control_c, 0, 67, 104
1, 268712, Control_c, 0, 67, 104
1, 268732, Note_off_c, 0, 72, 57
1, 268742, Control_c, 0, 67, 105
1, 268774, Note_off_c, 0, 60, 36
1, 268817, Control_c, 0, 64, 53
1, 268832, Control_c, 0, 64, 67
1, 268847, Control_c, 0, 64, 75
1, 268847, Control_c, 0, 67, 104
1, 268854, Note_on_c, 0, 48, 33
1, 268861, Control_c, 0, 64, 85
1, 268876, Control_c, 0, 64, 99
1, 268891, Control_c, 0, 64, 126
1, 268906, Control_c, 0, 64, 127
1, 268906, Control_c, 0, 67, 104
1, 268908, Note_off_c, 0, 56, 44
1, 268914, Note_off_c, 0, 65, 60
1, 268920, Note_off_c, 0, 48, 56
1, 269001, Note_off_c, 0, 73, 61
1, 269158, Control_c, 0, 67, 104
1, 269164, Note_on_c, 0, 39, 35
1, 269203, Control_c, 0, 67, 105
1, 269254, Control_c, 0, 64, 117
1, 269254, Control_c, 0, 67, 105
1, 269266, Note_on_c, 0, 60, 56
1, 269269, Control_c, 0, 64, 90
1, 269283, Control_c, 0, 64, 74
1, 269298, Control_c, 0, 64, 59
1, 269313, Control_c, 0, 64, 49
1, 269328, Control_c, 0, 64, 53
1, 269343, Control_c, 0, 64, 61
1, 269358, Control_c, 0, 64, 66
1, 269373, Control_c, 0, 64, 70
1, 269388, Control_c, 0, 64, 76
1, 269403, Control_c, 0, 64, 83
1, 269417, Control_c, 0, 64, 90
1, 269417, Control_c, 0, 67, 105
1, 269432, Control_c, 0, 64, 97
1, 269447, Control_c, 0, 64, 105
1, 269461, Control_c, 0, 64, 117
1, 269476, Control_c, 0, 64, 127
1, 269483, Note_off_c, 0, 60, 50
1, 269504, Note_on_c, 0, 68, 41
1, 269565, Control_c, 0, 67, 104
1, 269660, Note_on_c, 0, 75, 48
1, 269788, Note_off_c, 0, 39, 41
1, 269829, Note_on_c, 0, 48, 40
1, 269966, Control_c, 0, 67, 104
1, 270027, Note_off_c, 0, 48, 39
1, 270036, Note_on_c, 0, 56, 36
1, 270180, Note_on_c, 0, 48, 37
1, 270188, Note_off_c, 0, 56, 43
1, 270328, Note_off_c, 0, 75, 36
1, 270344, Control_c, 0, 67, 103
1, 270361, Note_off_c, 0, 68, 41
1, 270363, Note_on_c, 0, 56, 46
1, 270370, Note_off_c, 0, 48, 46
1, 270403, Control_c, 0, 67, 103
1, 270449, Control_c, 0, 67, 102
1, 270491, Note_off_c, 0, 56, 59
1, 270507, Control_c, 0, 67, 102
1, 270526, Note_on_c, 0, 48, 45
1, 270563, Note_off_c, 0, 48, 62
1, 270567, Control_c, 0, 67, 101
1, 270596, Control_c, 0, 67, 101
1, 270726, Note_on_c, 0, 39, 43
1, 270781, Control_c, 0, 67, 101
1, 270826, Control_c, 0, 64, 109
1, 270840, Control_c, 0, 64, 89
1, 270851, Note_on_c, 0, 58, 67
1, 270855, Control_c, 0, 64, 76
1, 270870, Control_c, 0, 64, 69
1, 270885, Control_c, 0, 64, 67
1, 270900, Control_c, 0, 64, 69
1, 270914, Control_c, 0, 64, 72
1, 270929, Control_c, 0, 64, 77
1, 270944, Control_c, 0, 64, 83
1, 270959, Control_c, 0, 64, 88
1, 270974, Control_c, 0, 64, 93
1, 270989, Control_c, 0, 64, 98
1, 271002, Note_off_c, 0, 58, 60
1, 271003, Control_c, 0, 64, 103
1, 271003, Control_c, 0, 67, 101
1, 271013, Note_on_c, 0, 68, 49
1, 271018, Control_c, 0, 64, 108
1, 271033, Control_c, 0, 64, 115
1, 271048, Control_c, 0, 64, 127
1, 271108, Control_c, 0, 67, 100
1, 271154, Note_on_c, 0, 75, 55
1, 271215, Note_on_c, 0, 46, 44
1, 271256, Control_c, 0, 67, 100
1, 271372, Note_off_c, 0, 46, 48
1, 271382, Note_on_c, 0, 51, 54
1, 271390, Control_c, 0, 67, 99
1, 271490, Note_off_c, 0, 39, 40
1, 271531, Note_off_c, 0, 51, 64
1, 271581, Note_on_c, 0, 39, 58
1, 271605, Control_c, 0, 67, 99
1, 271634, Control_c, 0, 67, 98
1, 271649, Control_c, 0, 67, 98
1, 271663, Control_c, 0, 67, 97
1, 271678, Control_c, 0, 67, 97
1, 271693, Control_c, 0, 67, 96
1, 271708, Control_c, 0, 67, 96
1, 271720, Note_on_c, 0, 67, 66
1, 271723, Control_c, 0, 67, 95
1, 271730, Note_on_c, 0, 49, 59
1, 271737, Control_c, 0, 67, 95
1, 271743, Note_off_c, 0, 68, 59
1, 271752, Control_c, 0, 67, 94
1, 271782, Control_c, 0, 67, 93
1, 271790, Note_off_c, 0, 39, 56
1, 271797, Control_c, 0, 67, 90
1, 271811, Control_c, 0, 67, 86
1, 271826, Control_c, 0, 67, 83
1, 271841, Control_c, 0, 67, 80
1, 271856, Control_c, 0, 67, 78
1, 271871, Control_c, 0, 67, 76
1, 271876, Note_off_c, 0, 67, 56
1, 271886, Control_c, 0, 67, 74
1, 271893, Note_off_c, 0, 49, 60
1, 271901, Control_c, 0, 67, 73
1, 271912, Note_on_c, 0, 39, 60
1, 271916, Control_c, 0, 67, 72
1, 271930, Control_c, 0, 67, 72
1, 272050, Control_c, 0, 67, 72
1, 272059, Note_on_c, 0, 48, 57
1, 272079, Control_c, 0, 67, 73
1, 272094, Control_c, 0, 67, 73
1, 272109, Control_c, 0, 67, 74
1, 272124, Control_c, 0, 67, 74
1, 272139, Control_c, 0, 67, 75
1, 272153, Control_c, 0, 67, 76
1, 272157, Note_off_c, 0, 75, 41
1, 272166, Note_on_c, 0, 63, 71
1, 272168, Control_c, 0, 67, 76
1, 272198, Control_c, 0, 64, 117
1, 272198, Control_c, 0, 67, 77
1, 272213, Control_c, 0, 64, 94
1, 272235, Control_c, 0, 64, 81
1, 272235, Control_c, 0, 67, 77
1, 272249, Control_c, 0, 64, 68
1, 272261, Note_off_c, 0, 39, 56
1, 272264, Control_c, 0, 64, 59
1, 272279, Control_c, 0, 64, 56
1, 272294, Control_c, 0, 64, 58
1, 272309, Control_c, 0, 64, 61
1, 272324, Control_c, 0, 64, 64
1, 272327, Note_on_c, 0, 70, 59
1, 272339, Control_c, 0, 64, 68
1, 272354, Control_c, 0, 64, 72
1, 272368, Control_c, 0, 64, 77
1, 272383, Control_c, 0, 64, 82
1, 272398, Control_c, 0, 64, 87
1, 272412, Control_c, 0, 64, 93
1, 272418, Note_on_c, 0, 75, 67
1, 272427, Control_c, 0, 64, 98
1, 272427, Control_c, 0, 67, 77
1, 272442, Control_c, 0, 64, 105
1, 272457, Control_c, 0, 64, 113
1, 272472, Control_c, 0, 64, 127
1, 272472, Control_c, 0, 67, 76
1, 272516, Control_c, 0, 67, 76
1, 272531, Control_c, 0, 67, 75
1, 272536, Note_on_c, 0, 39, 50
1, 272560, Note_off_c, 0, 48, 58
1, 272560, Control_c, 0, 67, 75
1, 272575, Control_c, 0, 67, 74
1, 272604, Control_c, 0, 67, 74
1, 272619, Control_c, 0, 67, 73
1, 272634, Control_c, 0, 67, 73
1, 272664, Control_c, 0, 67, 72
1, 272694, Control_c, 0, 67, 72
1, 272702, Note_on_c, 0, 48, 54
1, 272709, Control_c, 0, 67, 71
1, 272723, Control_c, 0, 67, 71
1, 272738, Control_c, 0, 67, 70
1, 272749, Note_off_c, 0, 39, 56
1, 272768, Control_c, 0, 67, 70
1, 272783, Control_c, 0, 67, 69
1, 272798, Control_c, 0, 67, 66
1, 272813, Control_c, 0, 67, 62
1, 272828, Control_c, 0, 67, 59
1, 272843, Control_c, 0, 67, 56
1, 272858, Control_c, 0, 67, 54
1, 272872, Control_c, 0, 67, 51
1, 272875, Note_on_c, 0, 39, 59
1, 272875, Note_off_c, 0, 48, 58
1, 272887, Control_c, 0, 67, 49
1, 272902, Control_c, 0, 67, 46
1, 272917, Control_c, 0, 67, 43
1, 272932, Control_c, 0, 67, 40
1, 272947, Control_c, 0, 67, 37
1, 272962, Control_c, 0, 67, 34
1, 272983, Control_c, 0, 67, 31
1, 272998, Control_c, 0, 67, 27
1, 273013, Control_c, 0, 67, 23
1, 273028, Control_c, 0, 67, 18
1, 273042, Control_c, 0, 67, 13
1, 273057, Control_c, 0, 67, 0
1, 273058, Note_on_c, 0, 48, 44
1, 273067, Note_on_c, 0, 68, 64
1, 273096, Note_off_c, 0, 39, 53
1, 273216, Note_off_c, 0, 48, 62
1, 273224, Note_on_c, 0, 39, 57
1, 273236, Note_off_c, 0, 70, 61
1, 273252, Note_off_c, 0, 68, 61
1, 273418, Note_on_c, 0, 69, 66
1, 273428, Control_c, 0, 64, 115
1, 273440, Note_on_c, 0, 47, 46
1, 273443, Control_c, 0, 64, 90
1, 273458, Control_c, 0, 64, 75
1, 273473, Control_c, 0, 64, 65
1, 273488, Control_c, 0, 64, 58
1, 273501, Note_off_c, 0, 39, 52
1, 273502, Control_c, 0, 64, 60
1, 273517, Control_c, 0, 64, 63
1, 273532, Control_c, 0, 64, 66
1, 273547, Control_c, 0, 64, 70
1, 273562, Control_c, 0, 64, 75
1, 273574, Note_off_c, 0, 75, 62
1, 273576, Control_c, 0, 64, 82
1, 273591, Control_c, 0, 64, 89
1, 273592, Note_off_c, 0, 47, 60
1, 273606, Note_on_c, 0, 39, 58
1, 273607, Control_c, 0, 64, 96
1, 273622, Control_c, 0, 64, 104
1, 273637, Control_c, 0, 64, 114
1, 273651, Control_c, 0, 64, 127
1, 273830, Note_on_c, 0, 75, 70
1, 273836, Note_on_c, 0, 47, 41
1, 273889, Note_off_c, 0, 39, 36
1, 273958, Note_off_c, 0, 63, 57
1, 273977, Note_off_c, 0, 47, 60
1, 273999, Note_on_c, 0, 39, 57
1, 274169, Note_on_c, 0, 77, 83
1, 274184, Note_off_c, 0, 69, 60
1, 274187, Note_on_c, 0, 47, 49
1, 274219, Note_off_c, 0, 39, 52
1, 274345, Note_on_c, 0, 39, 60
1, 274345, Note_off_c, 0, 77, 56
1, 274349, Note_off_c, 0, 47, 59
1, 274386, Note_off_c, 0, 75, 57
1, 274590, Note_on_c, 0, 46, 69
1, 274629, Control_c, 0, 64, 112
1, 274644, Control_c, 0, 64, 88
1, 274659, Control_c, 0, 64, 73
1, 274674, Control_c, 0, 64, 63
1, 274679, Note_on_c, 0, 63, 65
1, 274688, Control_c, 0, 64, 59
1, 274703, Control_c, 0, 64, 61
1, 274718, Control_c, 0, 64, 64
1, 274733, Control_c, 0, 64, 67
1, 274748, Control_c, 0, 64, 71
1, 274757, Note_on_c, 0, 70, 69
1, 274762, Control_c, 0, 64, 76
1, 274774, Note_off_c, 0, 63, 62
1, 274777, Control_c, 0, 64, 82
1, 274792, Control_c, 0, 64, 89
1, 274798, Note_off_c, 0, 39, 56
1, 274807, Control_c, 0, 64, 96
1, 274822, Control_c, 0, 64, 106
1, 274825, Note_on_c, 0, 75, 67
1, 274837, Control_c, 0, 64, 120
1, 274852, Control_c, 0, 64, 127
1, 274902, Note_on_c, 0, 79, 79
1, 275062, Note_on_c, 0, 39, 57
1, 275114, Note_off_c, 0, 46, 56
1, 275210, Note_off_c, 0, 79, 50
1, 275260, Note_off_c, 0, 70, 63
1, 275266, Note_on_c, 0, 46, 68
1, 275312, Note_off_c, 0, 75, 34
1, 275342, Note_off_c, 0, 39, 58
1, 275454, Note_on_c, 0, 39, 72
1, 275511, Note_off_c, 0, 46, 60
1, 275622, Note_on_c, 0, 46, 79
1, 275675, Note_off_c, 0, 39, 59
1, 275790, Note_on_c, 0, 39, 75
1, 275807, Note_off_c, 0, 46, 62
1, 275847, Note_off_c, 0, 39, 59
1, 276025, Note_on_c, 0, 51, 68
1, 276142, Control_c, 0, 64, 118
1, 276144, Note_on_c, 0, 81, 85
1, 276148, Note_on_c, 0, 72, 70
1, 276152, Note_on_c, 0, 77, 69
1, 276154, Note_on_c, 0, 69, 69
1, 276157, Control_c, 0, 64, 87
1, 276172, Control_c, 0, 64, 69
1, 276187, Control_c, 0, 64, 42
1, 276201, Control_c, 0, 64, 0
1, 276216, Control_c, 0, 64, 28
1, 276231, Control_c, 0, 64, 57
1, 276246, Control_c, 0, 64, 66
1, 276260, Control_c, 0, 64, 73
1, 276275, Control_c, 0, 64, 83
1, 276290, Control_c, 0, 64, 98
1, 276306, Control_c, 0, 64, 127
1, 276314, Note_off_c, 0, 51, 62
1, 276401, Note_on_c, 0, 36, 73
1, 276512, Note_off_c, 0, 36, 57
1, 276616, Note_on_c, 0, 51, 82
1, 276628, Note_off_c, 0, 69, 55
1, 276662, Note_off_c, 0, 81, 55
1, 276749, Note_off_c, 0, 77, 52
1, 276751, Note_off_c, 0, 51, 60
1, 276774, Note_off_c, 0, 72, 54
1, 276815, Note_on_c, 0, 36, 81
1, 276910, Note_off_c, 0, 36, 59
1, 276991, Note_on_c, 0, 51, 86
1, 277093, Note_off_c, 0, 51, 63
1, 277180, Note_on_c, 0, 36, 83
1, 277249, Note_off_c, 0, 36, 58
1, 277356, Note_on_c, 0, 50, 83
1, 277454, Control_c, 0, 64, 88
1, 277460, Poly_aftertouch_c, 0, 43, 127
1, 277463, Note_on_c, 0, 82, 96
1, 277465, Note_on_c, 0, 70, 88
1, 277466, Note_on_c, 0, 74, 74
1, 277469, Note_on_c, 0, 77, 72
1, 277469, Control_c, 0, 64, 61
1, 277491, Control_c, 0, 64, 0
1, 277536, Control_c, 0, 64, 59
1, 277550, Control_c, 0, 64, 72
1, 277562, Poly_aftertouch_c, 0, 43, 0
1, 277565, Control_c, 0, 64, 92
1, 277567, Note_off_c, 0, 50, 65
1, 277580, Control_c, 0, 64, 127
1, 277600, Poly_aftertouch_c, 0, 43, 127
1, 277639, Poly_aftertouch_c, 0, 43, 0
1, 277733, Note_on_c, 0, 34, 84
1, 277785, Note_off_c, 0, 34, 60
1, 277940, Note_on_c, 0, 50, 93
1, 277986, Note_off_c, 0, 50, 68
1, 278008, Note_off_c, 0, 70, 62
1, 278024, Note_off_c, 0, 74, 56
1, 278073, Note_off_c, 0, 82, 57
1, 278086, Note_off_c, 0, 77, 58
1, 278125, Note_on_c, 0, 34, 88
1, 278178, Note_off_c, 0, 34, 61
1, 278378, Note_on_c, 0, 84, 93
1, 278381, Note_on_c, 0, 72, 92
1, 278381, Note_on_c, 0, 77, 82
1, 278383, Note_on_c, 0, 75, 83
1, 278384, Note_on_c, 0, 48, 102
1, 278404, Control_c, 0, 64, 100
1, 278406, Note_on_c, 0, 83, 53
1, 278419, Control_c, 0, 64, 74
1, 278428, Note_off_c, 0, 83, 59
1, 278434, Control_c, 0, 64, 26
1, 278463, Control_c, 0, 64, 59
1, 278478, Control_c, 0, 64, 69
1, 278493, Control_c, 0, 64, 82
1, 278508, Control_c, 0, 64, 127
1, 278529, Note_off_c, 0, 48, 60
1, 278601, Note_off_c, 0, 72, 59
1, 278629, Note_on_c, 0, 33, 88
1, 278644, Note_off_c, 0, 84, 59
1, 278680, Note_off_c, 0, 75, 54
1, 278688, Note_off_c, 0, 77, 59
1, 278760, Note_off_c, 0, 33, 56
1, 278825, Note_on_c, 0, 48, 94
1, 278914, Note_off_c, 0, 48, 58
1, 279020, Note_on_c, 0, 33, 91
1, 279068, Note_off_c, 0, 33, 58
1, 279222, Note_on_c, 0, 46, 98
1, 279285, Control_c, 0, 64, 86
1, 279300, Control_c, 0, 64, 35
1, 279301, Note_on_c, 0, 86, 96
1, 279304, Note_on_c, 0, 74, 96
1, 279305, Note_on_c, 0, 77, 85
1, 279305, Note_on_c, 0, 82, 87
1, 279315, Control_c, 0, 64, 0
1, 279332, Note_on_c, 0, 78, 49
1, 279359, Note_off_c, 0, 78, 39
1, 279359, Control_c, 0, 64, 53
1, 279374, Control_c, 0, 64, 75
1, 279389, Control_c, 0, 64, 97
1, 279404, Control_c, 0, 64, 127
1, 279447, Note_off_c, 0, 46, 59
1, 279527, Note_on_c, 0, 32, 87
1, 279621, Note_off_c, 0, 74, 59
1, 279624, Note_off_c, 0, 32, 62
1, 279655, Note_off_c, 0, 86, 58
1, 279727, Note_on_c, 0, 46, 95
1, 279740, Note_off_c, 0, 77, 59
1, 279752, Note_off_c, 0, 82, 63
1, 279861, Note_off_c, 0, 46, 53
1, 279910, Note_on_c, 0, 32, 79
1, 279952, Note_off_c, 0, 32, 62
1, 280089, Note_on_c, 0, 31, 82
1, 280149, Note_on_c, 0, 38, 49
1, 280155, Note_off_c, 0, 31, 61
1, 280167, Control_c, 0, 64, 79
1, 280182, Note_on_c, 0, 87, 97
1, 280182, Control_c, 0, 64, 0
1, 280184, Note_on_c, 0, 75, 95
1, 280187, Note_on_c, 0, 46, 93
1, 280187, Note_on_c, 0, 82, 93
1, 280194, Note_off_c, 0, 38, 62
1, 280208, Note_off_c, 0, 46, 70
1, 280226, Control_c, 0, 64, 69
1, 280241, Control_c, 0, 64, 98
1, 280256, Control_c, 0, 64, 127
1, 280363, Note_off_c, 0, 82, 60
1, 280477, Note_off_c, 0, 75, 49
1, 280480, Note_on_c, 0, 43, 78
1, 280516, Note_off_c, 0, 43, 64
1, 280554, Note_on_c, 0, 50, 11
1, 280560, Note_on_c, 0, 58, 76
1, 280582, Note_off_c, 0, 58, 67
1, 280608, Note_off_c, 0, 50, 54
1, 280619, Control_c, 0, 64, 68
1, 280626, Note_on_c, 0, 45, 96
1, 280634, Control_c, 0, 64, 0
1, 280642, Note_on_c, 0, 77, 89
1, 280642, Note_on_c, 0, 84, 76
1, 280645, Note_on_c, 0, 75, 85
1, 280648, Note_off_c, 0, 45, 73
1, 280679, Control_c, 0, 64, 73
1, 280680, Note_on_c, 0, 60, 84
1, 280693, Control_c, 0, 64, 127
1, 280719, Note_off_c, 0, 60, 64
1, 280765, Note_off_c, 0, 87, 59
1, 280773, Note_off_c, 0, 75, 61
1, 280792, Note_off_c, 0, 84, 59
1, 280993, Note_on_c, 0, 46, 70
1, 281029, Note_on_c, 0, 53, 62
1, 281037, Note_off_c, 0, 46, 62
1, 281094, Control_c, 0, 64, 90
1, 281098, Note_on_c, 0, 62, 96
1, 281098, Note_on_c, 0, 86, 92
1, 281100, Note_on_c, 0, 82, 86
1, 281102, Note_on_c, 0, 74, 91
1, 281108, Control_c, 0, 64, 68
1, 281109, Note_off_c, 0, 53, 57
1, 281123, Control_c, 0, 64, 59
1, 281132, Note_on_c, 0, 54, 30
1, 281133, Note_off_c, 0, 54, 127
1, 281138, Control_c, 0, 64, 66
1, 281139, Note_off_c, 0, 62, 65
1, 281153, Control_c, 0, 64, 76
1, 281167, Control_c, 0, 64, 98
1, 281171, Note_off_c, 0, 74, 67
1, 281182, Control_c, 0, 64, 127
1, 281199, Note_off_c, 0, 77, 62
1, 281221, Note_off_c, 0, 86, 66
1, 281251, Note_off_c, 0, 82, 63
1, 281501, Note_on_c, 0, 31, 82
1, 281545, Control_c, 0, 64, 109
1, 281549, Note_on_c, 0, 38, 58
1, 281554, Note_off_c, 0, 31, 61
1, 281560, Control_c, 0, 64, 67
1, 281571, Note_on_c, 0, 87, 90
1, 281571, Note_on_c, 0, 91, 95
1, 281572, Note_on_c, 0, 82, 99
1, 281573, Note_on_c, 0, 79, 95
1, 281574, Control_c, 0, 64, 0
1, 281587, Note_on_c, 0, 46, 86
1, 281587, Note_off_c, 0, 38, 65
1, 281590, Control_c, 0, 64, 46
1, 281604, Note_off_c, 0, 79, 64
1, 281605, Control_c, 0, 64, 69
1, 281611, Note_off_c, 0, 46, 66
1, 281618, Note_off_c, 0, 91, 67
1, 281620, Control_c, 0, 64, 90
1, 281633, Note_off_c, 0, 82, 67
1, 281635, Control_c, 0, 64, 127
1, 281640, Note_off_c, 0, 87, 66
1, 281753, Poly_aftertouch_c, 0, 46, 0
1, 281852, Note_on_c, 0, 43, 78
1, 281905, Note_off_c, 0, 43, 64
1, 281917, Note_on_c, 0, 87, 86
1, 281922, Note_on_c, 0, 82, 68
1, 281922, Note_on_c, 0, 75, 70
1, 281940, Note_on_c, 0, 58, 76
1, 281946, Note_off_c, 0, 82, 68
1, 281957, Poly_aftertouch_c, 0, 50, 127
1, 281958, Note_off_c, 0, 75, 62
1, 281970, Note_off_c, 0, 58, 67
1, 282013, Note_on_c, 0, 45, 94
1, 282026, Note_on_c, 0, 84, 82
1, 282027, Note_on_c, 0, 75, 90
1, 282027, Control_c, 0, 64, 81
1, 282028, Note_on_c, 0, 77, 91
1, 282036, Note_off_c, 0, 45, 69
1, 282037, Poly_aftertouch_c, 0, 50, 0
1, 282042, Control_c, 0, 64, 0
1, 282063, Note_on_c, 0, 60, 93
1, 282086, Note_off_c, 0, 60, 67
1, 282086, Control_c, 0, 64, 53
1, 282091, Note_on_c, 0, 51, 37
1, 282092, Note_off_c, 0, 51, 127
1, 282095, Note_on_c, 0, 47, 3
1, 282096, Note_off_c, 0, 47, 127
1, 282101, Control_c, 0, 64, 81
1, 282116, Control_c, 0, 64, 127
1, 282143, Poly_aftertouch_c, 0, 51, 0
1, 282167, Note_off_c, 0, 87, 62
1, 282185, Note_off_c, 0, 84, 59
1, 282194, Note_off_c, 0, 75, 62
1, 282392, Note_on_c, 0, 46, 76
1, 282427, Note_on_c, 0, 53, 69
1, 282449, Note_off_c, 0, 46, 64
1, 282482, Note_off_c, 0, 77, 0
1, 282502, Control_c, 0, 64, 84
1, 282503, Note_on_c, 0, 62, 98
1, 282503, Note_on_c, 0, 86, 99
1, 282504, Note_on_c, 0, 82, 88
1, 282507, Note_on_c, 0, 74, 102
1, 282517, Control_c, 0, 64, 0
1, 282519, Poly_aftertouch_c, 0, 77, 127
1, 282521, Note_off_c, 0, 53, 59
1, 282524, Note_on_c, 0, 54, 54
1, 282540, Note_off_c, 0, 62, 60
1, 282548, Note_off_c, 0, 74, 69
1, 282549, Note_off_c, 0, 54, 36
1, 282561, Control_c, 0, 64, 66
1, 282576, Control_c, 0, 64, 84
1, 282591, Control_c, 0, 64, 127
1, 282596, Poly_aftertouch_c, 0, 77, 0
1, 282596, Note_off_c, 0, 86, 65
1, 282642, Note_off_c, 0, 82, 63
1, 282894, Note_on_c, 0, 31, 97
1, 283001, Poly_aftertouch_c, 0, 38, 127
1, 283098, Note_off_c, 0, 31, 58
1, 283118, Control_c, 0, 64, 100
1, 283125, Note_on_c, 0, 91, 70
1, 283133, Control_c, 0, 64, 65
1, 283134, Note_on_c, 0, 94, 98
1, 283134, Note_on_c, 0, 82, 97
1, 283135, Note_on_c, 0, 87, 92
1, 283143, Note_on_c, 0, 46, 87
1, 283147, Control_c, 0, 64, 0
1, 283163, Note_on_c, 0, 33, 2
1, 283166, Poly_aftertouch_c, 0, 38, 0
1, 283167, Note_off_c, 0, 46, 68
1, 283177, Control_c, 0, 64, 63
1, 283192, Control_c, 0, 64, 83
1, 283205, Note_off_c, 0, 33, 46
1, 283207, Control_c, 0, 64, 127
1, 283286, Note_off_c, 0, 94, 62
1, 283309, Note_off_c, 0, 82, 61
1, 283314, Note_off_c, 0, 91, 63
1, 283323, Note_off_c, 0, 87, 62
1, 283429, Note_on_c, 0, 43, 73
1, 283480, Note_on_c, 0, 45, 27
1, 283487, Note_off_c, 0, 43, 63
1, 283514, Note_on_c, 0, 87, 56
1, 283521, Note_on_c, 0, 58, 90
1, 283521, Note_off_c, 0, 45, 51
1, 283522, Note_on_c, 0, 91, 94
1, 283526, Note_on_c, 0, 79, 88
1, 283553, Note_off_c, 0, 58, 61
1, 283555, Note_off_c, 0, 79, 60
1, 283565, Note_off_c, 0, 91, 67
1, 283570, Note_off_c, 0, 87, 65
1, 283598, Note_on_c, 0, 44, 91
1, 283600, Control_c, 0, 64, 90
1, 283615, Control_c, 0, 64, 67
1, 283628, Note_on_c, 0, 89, 98
1, 283630, Control_c, 0, 64, 55
1, 283634, Note_on_c, 0, 77, 93
1, 283635, Note_on_c, 0, 86, 84
1, 283639, Note_off_c, 0, 44, 68
1, 283644, Control_c, 0, 64, 66
1, 283659, Control_c, 0, 64, 80
1, 283660, Note_off_c, 0, 77, 64
1, 283663, Note_on_c, 0, 59, 89
1, 283664, Note_off_c, 0, 89, 64
1, 283674, Control_c, 0, 64, 109
1, 283681, Note_off_c, 0, 86, 65
1, 283689, Control_c, 0, 64, 127
1, 283693, Note_on_c, 0, 51, 26
1, 283747, Note_off_c, 0, 59, 58
1, 283752, Note_off_c, 0, 51, 42
1, 283801, Note_on_c, 0, 45, 84
1, 283836, Control_c, 0, 64, 80
1, 283840, Note_off_c, 0, 45, 66
1, 283851, Control_c, 0, 64, 0
1, 283852, Note_on_c, 0, 84, 76
1, 283853, Note_on_c, 0, 87, 94
1, 283854, Note_on_c, 0, 75, 94
1, 283875, Note_on_c, 0, 60, 90
1, 283896, Control_c, 0, 64, 63
1, 283911, Control_c, 0, 64, 81
1, 283923, Note_off_c, 0, 60, 66
1, 283926, Control_c, 0, 64, 127
1, 283955, Note_off_c, 0, 84, 63
1, 283956, Note_off_c, 0, 75, 64
1, 283972, Note_off_c, 0, 87, 64
1, 284003, Note_on_c, 0, 46, 86
1, 284039, Note_off_c, 0, 46, 65
1, 284045, Control_c, 0, 64, 82
1, 284049, Note_on_c, 0, 82, 94
1, 284051, Note_on_c, 0, 86, 100
1, 284052, Note_on_c, 0, 74, 98
1, 284060, Control_c, 0, 64, 0
1, 284075, Note_on_c, 0, 62, 76
1, 284100, Note_on_c, 0, 60, 43
1, 284105, Control_c, 0, 64, 69
1, 284110, Note_off_c, 0, 62, 63
1, 284119, Control_c, 0, 64, 101
1, 284123, Note_off_c, 0, 60, 36
1, 284134, Control_c, 0, 64, 127
1, 284164, Note_off_c, 0, 74, 60
1, 284164, Note_off_c, 0, 82, 64
1, 284166, Note_off_c, 0, 86, 63
1, 284191, Note_on_c, 0, 48, 87
1, 284230, Control_c, 0, 64, 88
1, 284240, Note_off_c, 0, 48, 64
1, 284245, Control_c, 0, 64, 67
1, 284258, Note_on_c, 0, 84, 101
1, 284260, Control_c, 0, 64, 61
1, 284263, Note_on_c, 0, 72, 92
1, 284263, Note_on_c, 0, 82, 95
1, 284273, Note_on_c, 0, 55, 35
1, 284274, Control_c, 0, 64, 72
1, 284284, Note_on_c, 0, 63, 84
1, 284289, Control_c, 0, 64, 91
1, 284296, Note_off_c, 0, 72, 66
1, 284304, Control_c, 0, 64, 127
1, 284309, Note_off_c, 0, 55, 32
1, 284309, Note_off_c, 0, 84, 59
1, 284329, Note_off_c, 0, 82, 63
1, 284334, Note_off_c, 0, 63, 64
1, 284391, Note_on_c, 0, 50, 81
1, 284420, Note_off_c, 0, 50, 68
1, 284423, Control_c, 0, 64, 85
1, 284438, Control_c, 0, 64, 68
1, 284447, Note_on_c, 0, 82, 101
1, 284452, Note_on_c, 0, 70, 93
1, 284453, Control_c, 0, 64, 65
1, 284466, Note_on_c, 0, 65, 79
1, 284467, Control_c, 0, 64, 75
1, 284482, Control_c, 0, 64, 93
1, 284483, Note_on_c, 0, 64, 47
1, 284491, Note_off_c, 0, 70, 66
1, 284497, Control_c, 0, 64, 127
1, 284512, Note_off_c, 0, 64, 59
1, 284516, Note_off_c, 0, 82, 64
1, 284522, Note_off_c, 0, 65, 61
1, 284538, Poly_aftertouch_c, 0, 83, 127
1, 284561, Poly_aftertouch_c, 0, 83, 0
1, 284583, Note_on_c, 0, 52, 76
1, 284608, Note_on_c, 0, 53, 60
1, 284613, Note_off_c, 0, 52, 66
1, 284629, Control_c, 0, 64, 89
1, 284635, Note_off_c, 0, 53, 66
1, 284644, Control_c, 0, 64, 63
1, 284653, Note_on_c, 0, 84, 95
1, 284656, Note_on_c, 0, 72, 91
1, 284657, Note_on_c, 0, 79, 82
1, 284659, Control_c, 0, 64, 0
1, 284665, Note_on_c, 0, 67, 86
1, 284674, Control_c, 0, 64, 21
1, 284689, Control_c, 0, 64, 68
1, 284689, Note_off_c, 0, 72, 66
1, 284699, Note_off_c, 0, 67, 62
1, 284704, Note_off_c, 0, 84, 66
1, 284704, Control_c, 0, 64, 93
1, 284715, Note_off_c, 0, 79, 64
1, 284718, Control_c, 0, 64, 127
1, 284772, Note_on_c, 0, 53, 81
1, 284800, Note_on_c, 0, 60, 70
1, 285015, Note_on_c, 0, 82, 94
1, 285020, Note_on_c, 0, 70, 87
1, 285023, Note_on_c, 0, 77, 80
1, 285030, Note_on_c, 0, 65, 88
1, 285038, Control_c, 0, 64, 93
1, 285052, Control_c, 0, 64, 56
1, 285067, Control_c, 0, 64, 0
1, 285127, Control_c, 0, 64, 68
1, 285141, Control_c, 0, 64, 88
1, 285156, Control_c, 0, 64, 127
1, 285203, Note_off_c, 0, 53, 58
1, 285219, Note_off_c, 0, 65, 63
1, 285248, Note_off_c, 0, 60, 59
1, 285315, Note_off_c, 0, 70, 59
1, 285335, Note_off_c, 0, 82, 58
1, 285622, Note_on_c, 0, 81, 88
1, 285626, Note_on_c, 0, 69, 78
1, 285767, Note_off_c, 0, 69, 57
1, 285805, Note_off_c, 0, 81, 59
1, 285866, Note_off_c, 0, 77, 57
1, 286031, Note_on_c, 0, 38, 80
1, 286061, Note_off_c, 0, 38, 63
1, 286069, Control_c, 0, 64, 95
1, 286080, Note_on_c, 0, 45, 48
1, 286084, Control_c, 0, 64, 73
1, 286093, Note_on_c, 0, 40, 46
1, 286098, Note_on_c, 0, 77, 37
1, 286099, Control_c, 0, 64, 64
1, 286099, Note_on_c, 0, 82, 91
1, 286100, Note_on_c, 0, 70, 86
1, 286113, Note_off_c, 0, 45, 52
1, 286113, Control_c, 0, 64, 69
1, 286114, Note_on_c, 0, 53, 90
1, 286128, Control_c, 0, 64, 79
1, 286129, Note_off_c, 0, 40, 31
1, 286143, Control_c, 0, 64, 98
1, 286157, Control_c, 0, 64, 127
1, 286158, Note_off_c, 0, 70, 64
1, 286171, Note_off_c, 0, 53, 61
1, 286179, Note_off_c, 0, 77, 62
1, 286206, Note_off_c, 0, 82, 65
1, 286350, Note_on_c, 0, 86, 98
1, 286355, Note_on_c, 0, 74, 93
1, 286384, Note_on_c, 0, 40, 79
1, 286395, Control_c, 0, 64, 115
1, 286410, Control_c, 0, 64, 82
1, 286423, Note_off_c, 0, 40, 60
1, 286425, Control_c, 0, 64, 67
1, 286440, Control_c, 0, 64, 66
1, 286462, Control_c, 0, 64, 73
1, 286468, Note_off_c, 0, 74, 65
1, 286469, Note_on_c, 0, 55, 86
1, 286474, Note_off_c, 0, 86, 67
1, 286477, Control_c, 0, 64, 85
1, 286492, Control_c, 0, 64, 110
1, 286507, Control_c, 0, 64, 127
1, 286532, Note_off_c, 0, 55, 61
1, 286559, Note_on_c, 0, 84, 92
1, 286561, Note_on_c, 0, 72, 89
1, 286565, Note_on_c, 0, 79, 84
1, 286587, Note_off_c, 0, 72, 60
1, 286610, Note_off_c, 0, 84, 62
1, 286626, Note_off_c, 0, 79, 62
1, 286631, Note_on_c, 0, 41, 79
1, 286671, Note_on_c, 0, 48, 58
1, 286688, Note_off_c, 0, 41, 61
1, 286734, Note_on_c, 0, 53, 84
1, 286877, Note_on_c, 0, 82, 92
1, 286877, Note_on_c, 0, 70, 81
1, 286882, Note_on_c, 0, 77, 74
1, 286893, Note_on_c, 0, 60, 74
1, 286904, Note_off_c, 0, 48, 33
1, 286921, Control_c, 0, 64, 101
1, 286936, Control_c, 0, 64, 73
1, 286951, Control_c, 0, 64, 0
1, 287025, Control_c, 0, 64, 57
1, 287040, Control_c, 0, 64, 68
1, 287054, Control_c, 0, 64, 78
1, 287069, Control_c, 0, 64, 92
1, 287084, Control_c, 0, 64, 127
1, 287291, Note_off_c, 0, 82, 56
1, 287343, Note_off_c, 0, 70, 57
1, 287631, Note_on_c, 0, 81, 68
1, 287649, Note_on_c, 0, 69, 46
1, 287670, Control_c, 0, 64, 102
1, 287685, Control_c, 0, 64, 83
1, 287699, Control_c, 0, 64, 67
1, 287714, Control_c, 0, 64, 0
1, 287759, Control_c, 0, 67, 9
1, 287774, Control_c, 0, 67, 12
1, 287789, Control_c, 0, 67, 16
1, 287803, Control_c, 0, 67, 21
1, 287818, Control_c, 0, 67, 27
1, 287833, Control_c, 0, 67, 33
1, 287848, Control_c, 0, 67, 39
1, 287863, Control_c, 0, 67, 46
1, 287877, Control_c, 0, 67, 55
1, 287892, Control_c, 0, 64, 31
1, 287892, Control_c, 0, 67, 62
1, 287907, Control_c, 0, 64, 60
1, 287907, Control_c, 0, 67, 69
1, 287922, Control_c, 0, 64, 66
1, 287922, Control_c, 0, 67, 75
1, 287936, Control_c, 0, 64, 70
1, 287936, Control_c, 0, 67, 81
1, 287959, Control_c, 0, 64, 74
1, 287959, Control_c, 0, 67, 86
1, 287974, Control_c, 0, 64, 79
1, 287974, Control_c, 0, 67, 92
1, 287989, Control_c, 0, 64, 84
1, 287989, Control_c, 0, 67, 97
1, 288004, Control_c, 0, 64, 88
1, 288004, Control_c, 0, 67, 101
1, 288012, Note_off_c, 0, 53, 49
1, 288019, Control_c, 0, 64, 90
1, 288019, Control_c, 0, 67, 106
1, 288033, Control_c, 0, 64, 92
1, 288033, Control_c, 0, 67, 110
1, 288039, Note_off_c, 0, 60, 37
1, 288048, Control_c, 0, 64, 94
1, 288048, Control_c, 0, 67, 114
1, 288063, Control_c, 0, 64, 95
1, 288063, Control_c, 0, 67, 117
1, 288078, Control_c, 0, 64, 98
1, 288078, Control_c, 0, 67, 118
1, 288087, Note_off_c, 0, 81, 34
1, 288093, Control_c, 0, 64, 102
1, 288093, Control_c, 0, 67, 119
1, 288108, Control_c, 0, 64, 107
1, 288123, Control_c, 0, 64, 119
1, 288138, Control_c, 0, 64, 127
1, 288212, Note_off_c, 0, 69, 38
1, 288230, Note_off_c, 0, 77, 46
1, 288256, Control_c, 0, 67, 118
1, 288271, Control_c, 0, 67, 118
1, 288301, Control_c, 0, 67, 117
1, 288330, Control_c, 0, 67, 117
1, 288359, Control_c, 0, 67, 116
1, 288374, Control_c, 0, 67, 115
1, 288419, Control_c, 0, 67, 115
1, 288433, Control_c, 0, 67, 114
1, 288463, Control_c, 0, 67, 114
1, 288493, Control_c, 0, 67, 113
1, 288507, Control_c, 0, 67, 113
1, 288537, Control_c, 0, 67, 112
1, 288567, Control_c, 0, 67, 112
1, 288582, Control_c, 0, 67, 111
1, 288626, Control_c, 0, 67, 111
1, 288876, Note_on_c, 0, 69, 33
1, 288901, Control_c, 0, 64, 121
1, 288916, Control_c, 0, 64, 97
1, 288931, Control_c, 0, 64, 83
1, 288933, Note_on_c, 0, 77, 61
1, 288946, Control_c, 0, 64, 71
1, 288960, Control_c, 0, 64, 61
1, 288972, Note_on_c, 0, 72, 34
1, 288975, Control_c, 0, 64, 48
1, 289005, Control_c, 0, 64, 50
1, 289020, Control_c, 0, 64, 57
1, 289032, Note_off_c, 0, 72, 0
1, 289032, Note_on_c, 0, 72, 10
1, 289035, Control_c, 0, 64, 63
1, 289050, Control_c, 0, 64, 66
1, 289064, Control_c, 0, 64, 70
1, 289079, Control_c, 0, 64, 74
1, 289094, Control_c, 0, 64, 78
1, 289109, Control_c, 0, 64, 82
1, 289115, Note_off_c, 0, 69, 41
1, 289124, Control_c, 0, 64, 87
1, 289138, Control_c, 0, 64, 92
1, 289153, Control_c, 0, 64, 97
1, 289168, Control_c, 0, 64, 104
1, 289182, Control_c, 0, 64, 111
1, 289197, Control_c, 0, 64, 127
1, 289212, Control_c, 0, 67, 110
1, 289320, Note_on_c, 0, 53, 38
1, 289388, Note_off_c, 0, 53, 54
1, 289390, Control_c, 0, 67, 110
1, 289548, Note_on_c, 0, 69, 39
1, 289598, Note_off_c, 0, 69, 45
1, 289740, Note_on_c, 0, 53, 41
1, 289768, Control_c, 0, 67, 109
1, 289772, Note_off_c, 0, 53, 55
1, 289873, Control_c, 0, 67, 109
1, 289917, Control_c, 0, 67, 108
1, 289917, Note_on_c, 0, 69, 36
1, 289945, Note_off_c, 0, 69, 53
1, 289946, Control_c, 0, 67, 108
1, 289976, Control_c, 0, 67, 107
1, 290083, Note_on_c, 0, 53, 46
1, 290139, Note_off_c, 0, 53, 54
1, 290250, Control_c, 0, 67, 108
1, 290279, Control_c, 0, 67, 108
1, 290303, Note_on_c, 0, 76, 60
1, 290316, Note_on_c, 0, 71, 39
1, 290323, Control_c, 0, 64, 98
1, 290323, Control_c, 0, 67, 109
1, 290336, Note_on_c, 0, 68, 36
1, 290338, Control_c, 0, 64, 83
1, 290353, Control_c, 0, 64, 71
1, 290368, Control_c, 0, 64, 64
1, 290384, Control_c, 0, 64, 61
1, 290399, Control_c, 0, 64, 63
1, 290414, Control_c, 0, 64, 65
1, 290428, Note_off_c, 0, 77, 54
1, 290428, Control_c, 0, 64, 67
1, 290443, Control_c, 0, 64, 71
1, 290458, Control_c, 0, 64, 74
1, 290473, Control_c, 0, 64, 78
1, 290480, Note_off_c, 0, 68, 37
1, 290488, Control_c, 0, 64, 83
1, 290502, Control_c, 0, 64, 87
1, 290517, Control_c, 0, 64, 92
1, 290532, Control_c, 0, 64, 96
1, 290539, Note_on_c, 0, 53, 45
1, 290547, Control_c, 0, 64, 100
1, 290561, Control_c, 0, 64, 106
1, 290576, Control_c, 0, 64, 112
1, 290591, Control_c, 0, 64, 127
1, 290591, Control_c, 0, 67, 108
1, 290605, Note_off_c, 0, 72, 38
1, 290606, Control_c, 0, 67, 108
1, 290621, Control_c, 0, 67, 107
1, 290627, Note_off_c, 0, 53, 36
1, 290651, Control_c, 0, 67, 107
1, 290665, Control_c, 0, 67, 106
1, 290695, Control_c, 0, 67, 106
1, 290714, Note_on_c, 0, 68, 54
1, 290725, Control_c, 0, 67, 105
1, 290740, Control_c, 0, 67, 105
1, 290769, Control_c, 0, 67, 104
1, 290784, Control_c, 0, 67, 102
1, 290799, Control_c, 0, 67, 102
1, 290800, Note_off_c, 0, 68, 59
1, 290883, Note_on_c, 0, 53, 53
1, 290932, Control_c, 0, 67, 102
1, 290954, Control_c, 0, 67, 103
1, 290969, Control_c, 0, 67, 104
1, 290984, Control_c, 0, 67, 105
1, 290999, Control_c, 0, 67, 106
1, 291008, Note_off_c, 0, 53, 38
1, 291014, Control_c, 0, 67, 106
1, 291028, Control_c, 0, 67, 107
1, 291043, Control_c, 0, 67, 107
1, 291053, Note_on_c, 0, 75, 68
1, 291058, Control_c, 0, 64, 99
1, 291058, Control_c, 0, 67, 108
1, 291070, Note_on_c, 0, 70, 60
1, 291071, Note_on_c, 0, 67, 42
1, 291073, Control_c, 0, 64, 80
1, 291087, Control_c, 0, 64, 68
1, 291087, Control_c, 0, 67, 109
1, 291102, Control_c, 0, 64, 58
1, 291102, Control_c, 0, 67, 109
1, 291117, Control_c, 0, 64, 55
1, 291132, Control_c, 0, 64, 58
1, 291132, Control_c, 0, 67, 110
1, 291147, Control_c, 0, 64, 63
1, 291147, Control_c, 0, 67, 110
1, 291159, Note_off_c, 0, 71, 41
1, 291161, Control_c, 0, 64, 68
1, 291163, Note_off_c, 0, 76, 50
1, 291177, Control_c, 0, 64, 73
1, 291177, Control_c, 0, 67, 111
1, 291184, Note_off_c, 0, 67, 51
1, 291192, Control_c, 0, 64, 80
1, 291207, Control_c, 0, 64, 89
1, 291222, Control_c, 0, 64, 101
1, 291222, Control_c, 0, 67, 111
1, 291237, Control_c, 0, 64, 123
1, 291251, Control_c, 0, 64, 127
1, 291257, Note_on_c, 0, 53, 51
1, 291274, Note_off_c, 0, 70, 61
1, 291306, Note_off_c, 0, 75, 63
1, 291479, Note_on_c, 0, 66, 43
1, 291503, Note_on_c, 0, 69, 45
1, 291518, Control_c, 0, 67, 112
1, 291547, Note_on_c, 0, 81, 60
1, 291548, Control_c, 0, 64, 110
1, 291548, Control_c, 0, 67, 112
1, 291563, Control_c, 0, 64, 88
1, 291574, Note_off_c, 0, 53, 34
1, 291577, Control_c, 0, 64, 74
1, 291592, Control_c, 0, 64, 64
1, 291607, Control_c, 0, 64, 55
1, 291622, Control_c, 0, 64, 56
1, 291637, Control_c, 0, 64, 61
1, 291651, Control_c, 0, 64, 64
1, 291666, Control_c, 0, 64, 67
1, 291678, Note_off_c, 0, 69, 60
1, 291681, Control_c, 0, 64, 70
1, 291696, Control_c, 0, 64, 74
1, 291718, Control_c, 0, 64, 77
1, 291733, Control_c, 0, 64, 81
1, 291745, Note_off_c, 0, 66, 56
1, 291748, Control_c, 0, 64, 85
1, 291756, Note_on_c, 0, 53, 43
1, 291762, Control_c, 0, 64, 89
1, 291777, Control_c, 0, 64, 93
1, 291792, Control_c, 0, 64, 98
1, 291807, Control_c, 0, 64, 104
1, 291822, Control_c, 0, 64, 111
1, 291837, Control_c, 0, 64, 127
1, 291897, Note_on_c, 0, 74, 64
1, 291900, Note_on_c, 0, 68, 57
1, 291910, Control_c, 0, 67, 111
1, 291916, Note_off_c, 0, 53, 37
1, 291925, Control_c, 0, 67, 111
1, 291926, Note_on_c, 0, 65, 48
1, 291940, Control_c, 0, 67, 110
1, 291970, Control_c, 0, 67, 110
1, 292000, Control_c, 0, 67, 109
1, 292017, Note_off_c, 0, 81, 52
1, 292021, Note_off_c, 0, 68, 59
1, 292022, Note_off_c, 0, 65, 56
1, 292028, Note_off_c, 0, 74, 66
1, 292045, Control_c, 0, 67, 109
1, 292054, Note_on_c, 0, 53, 52
1, 292074, Control_c, 0, 67, 108
1, 292089, Control_c, 0, 67, 108
1, 292104, Control_c, 0, 67, 107
1, 292119, Control_c, 0, 67, 107
1, 292133, Control_c, 0, 67, 106
1, 292148, Control_c, 0, 67, 106
1, 292163, Control_c, 0, 67, 105
1, 292178, Control_c, 0, 67, 104
1, 292184, Note_on_c, 0, 73, 67
1, 292192, Note_on_c, 0, 67, 48
1, 292193, Control_c, 0, 67, 103
1, 292195, Note_off_c, 0, 53, 59
1, 292207, Control_c, 0, 67, 102
1, 292213, Note_on_c, 0, 64, 52
1, 292219, Note_on_c, 0, 79, 72
1, 292222, Control_c, 0, 67, 101
1, 292237, Control_c, 0, 67, 101
1, 292252, Control_c, 0, 67, 99
1, 292257, Note_off_c, 0, 67, 57
1, 292267, Control_c, 0, 67, 94
1, 292274, Note_off_c, 0, 64, 56
1, 292281, Control_c, 0, 67, 88
1, 292285, Note_off_c, 0, 73, 61
1, 292296, Control_c, 0, 67, 82
1, 292311, Control_c, 0, 67, 77
1, 292326, Control_c, 0, 67, 71
1, 292329, Note_on_c, 0, 53, 52
1, 292341, Control_c, 0, 67, 65
1, 292356, Control_c, 0, 67, 58
1, 292371, Control_c, 0, 67, 52
1, 292385, Control_c, 0, 67, 48
1, 292400, Control_c, 0, 64, 104
1, 292400, Control_c, 0, 67, 44
1, 292415, Control_c, 0, 64, 90
1, 292415, Control_c, 0, 67, 41
1, 292430, Control_c, 0, 64, 85
1, 292430, Control_c, 0, 67, 39
1, 292452, Control_c, 0, 67, 36
1, 292455, Note_on_c, 0, 72, 70
1, 292462, Note_on_c, 0, 66, 68
1, 292467, Control_c, 0, 64, 89
1, 292467, Control_c, 0, 67, 34
1, 292474, Note_on_c, 0, 63, 54
1, 292481, Control_c, 0, 64, 100
1, 292481, Control_c, 0, 67, 33
1, 292494, Note_off_c, 0, 53, 51
1, 292496, Control_c, 0, 64, 127
1, 292496, Control_c, 0, 67, 32
1, 292511, Control_c, 0, 67, 31
1, 292526, Control_c, 0, 67, 31
1, 292529, Note_off_c, 0, 79, 50
1, 292540, Control_c, 0, 67, 30
1, 292565, Note_off_c, 0, 63, 58
1, 292570, Note_off_c, 0, 66, 61
1, 292585, Note_off_c, 0, 72, 60
1, 292612, Note_on_c, 0, 53, 60
1, 292700, Note_on_c, 0, 65, 62
1, 292704, Control_c, 0, 64, 109
1, 292711, Note_on_c, 0, 71, 71
1, 292719, Note_off_c, 0, 53, 62
1, 292719, Control_c, 0, 64, 85
1, 292733, Control_c, 0, 64, 71
1, 292741, Note_on_c, 0, 62, 42
1, 292748, Control_c, 0, 64, 65
1, 292749, Note_on_c, 0, 77, 77
1, 292763, Control_c, 0, 64, 66
1, 292778, Control_c, 0, 64, 73
1, 292793, Control_c, 0, 64, 81
1, 292801, Note_off_c, 0, 71, 63
1, 292808, Control_c, 0, 64, 95
1, 292813, Note_off_c, 0, 65, 57
1, 292822, Control_c, 0, 64, 127
1, 292849, Note_off_c, 0, 62, 47
1, 292851, Note_on_c, 0, 53, 57
1, 292926, Control_c, 0, 67, 31
1, 292941, Control_c, 0, 67, 32
1, 292955, Control_c, 0, 67, 33
1, 292970, Control_c, 0, 67, 34
1, 292985, Control_c, 0, 64, 98
1, 293000, Control_c, 0, 64, 75
1, 293000, Control_c, 0, 67, 34
1, 293003, Note_on_c, 0, 70, 68
1, 293005, Note_on_c, 0, 64, 55
1, 293015, Control_c, 0, 64, 54
1, 293018, Note_on_c, 0, 61, 49
1, 293020, Note_off_c, 0, 53, 58
1, 293029, Control_c, 0, 64, 0
1, 293029, Control_c, 0, 67, 35
1, 293042, Note_off_c, 0, 77, 38
1, 293074, Control_c, 0, 64, 60
1, 293074, Control_c, 0, 67, 35
1, 293089, Control_c, 0, 64, 69
1, 293104, Control_c, 0, 64, 78
1, 293119, Control_c, 0, 64, 90
1, 293134, Control_c, 0, 64, 108
1, 293134, Control_c, 0, 67, 36
1, 293137, Note_off_c, 0, 64, 63
1, 293146, Note_off_c, 0, 61, 58
1, 293148, Control_c, 0, 64, 127
1, 293166, Note_on_c, 0, 53, 49
1, 293175, Note_off_c, 0, 70, 63
1, 293178, Control_c, 0, 67, 36
1, 293229, Control_c, 0, 67, 37
1, 293274, Control_c, 0, 67, 37
1, 293304, Control_c, 0, 67, 38
1, 293318, Control_c, 0, 67, 38
1, 293324, Note_on_c, 0, 63, 41
1, 293333, Control_c, 0, 67, 39
1, 293336, Note_on_c, 0, 69, 52
1, 293348, Note_off_c, 0, 53, 59
1, 293348, Control_c, 0, 67, 40
1, 293361, Note_on_c, 0, 60, 47
1, 293363, Control_c, 0, 67, 40
1, 293378, Control_c, 0, 67, 41
1, 293387, Note_on_c, 0, 75, 65
1, 293393, Control_c, 0, 64, 96
1, 293393, Control_c, 0, 67, 41
1, 293408, Control_c, 0, 64, 79
1, 293422, Control_c, 0, 64, 64
1, 293422, Control_c, 0, 67, 42
1, 293437, Control_c, 0, 64, 0
1, 293437, Control_c, 0, 67, 42
1, 293452, Control_c, 0, 67, 43
1, 293467, Control_c, 0, 67, 43
1, 293481, Control_c, 0, 67, 45
1, 293496, Control_c, 0, 67, 47
1, 293511, Control_c, 0, 67, 48
1, 293521, Note_off_c, 0, 60, 60
1, 293526, Control_c, 0, 67, 50
1, 293541, Control_c, 0, 67, 50
1, 293554, Note_on_c, 0, 53, 41
1, 293555, Control_c, 0, 67, 51
1, 293616, Control_c, 0, 64, 47
1, 293631, Control_c, 0, 64, 65
1, 293645, Control_c, 0, 64, 71
1, 293660, Control_c, 0, 64, 78
1, 293675, Control_c, 0, 64, 87
1, 293690, Control_c, 0, 64, 99
1, 293705, Control_c, 0, 64, 115
1, 293715, Note_off_c, 0, 53, 59
1, 293719, Control_c, 0, 64, 127
1, 293725, Note_on_c, 0, 60, 43
1, 293808, Control_c, 0, 67, 52
1, 293838, Control_c, 0, 67, 52
1, 293851, Note_off_c, 0, 60, 62
1, 293852, Control_c, 0, 67, 53
1, 293867, Control_c, 0, 67, 53
1, 293882, Control_c, 0, 67, 56
1, 293887, Note_on_c, 0, 53, 41
1, 293891, Note_off_c, 0, 63, 37
1, 293897, Control_c, 0, 67, 60
1, 293912, Control_c, 0, 67, 64
1, 293927, Control_c, 0, 67, 68
1, 293941, Control_c, 0, 67, 70
1, 293964, Control_c, 0, 67, 74
1, 293978, Control_c, 0, 67, 77
1, 293993, Control_c, 0, 67, 79
1, 294008, Control_c, 0, 67, 82
1, 294023, Control_c, 0, 67, 84
1, 294038, Control_c, 0, 67, 86
1, 294052, Control_c, 0, 67, 88
1, 294067, Control_c, 0, 67, 89
1, 294082, Control_c, 0, 67, 90
1, 294091, Note_on_c, 0, 64, 57
1, 294097, Control_c, 0, 67, 90
1, 294106, Note_off_c, 0, 53, 60
1, 294111, Note_on_c, 0, 61, 42
1, 294111, Control_c, 0, 64, 105
1, 294111, Control_c, 0, 67, 91
1, 294126, Control_c, 0, 64, 84
1, 294126, Control_c, 0, 67, 92
1, 294141, Control_c, 0, 64, 69
1, 294156, Control_c, 0, 64, 49
1, 294156, Control_c, 0, 67, 92
1, 294171, Control_c, 0, 64, 17
1, 294186, Control_c, 0, 64, 23
1, 294201, Control_c, 0, 64, 46
1, 294201, Control_c, 0, 67, 93
1, 294216, Control_c, 0, 64, 60
1, 294224, Note_off_c, 0, 69, 61
1, 294231, Control_c, 0, 64, 66
1, 294231, Control_c, 0, 67, 93
1, 294245, Control_c, 0, 64, 70
1, 294245, Control_c, 0, 67, 94
1, 294253, Note_off_c, 0, 61, 57
1, 294260, Control_c, 0, 64, 75
1, 294260, Control_c, 0, 67, 96
1, 294275, Control_c, 0, 64, 81
1, 294275, Control_c, 0, 67, 97
1, 294283, Note_on_c, 0, 53, 35
1, 294290, Control_c, 0, 64, 87
1, 294290, Control_c, 0, 67, 98
1, 294304, Control_c, 0, 64, 94
1, 294304, Control_c, 0, 67, 100
1, 294319, Control_c, 0, 64, 100
1, 294319, Control_c, 0, 67, 101
1, 294334, Control_c, 0, 64, 105
1, 294334, Control_c, 0, 67, 102
1, 294349, Control_c, 0, 64, 111
1, 294349, Control_c, 0, 67, 104
1, 294364, Control_c, 0, 64, 118
1, 294364, Control_c, 0, 67, 106
1, 294380, Control_c, 0, 64, 127
1, 294380, Control_c, 0, 67, 108
1, 294394, Control_c, 0, 67, 110
1, 294409, Control_c, 0, 67, 113
1, 294424, Control_c, 0, 67, 115
1, 294439, Control_c, 0, 67, 118
1, 294454, Control_c, 0, 67, 122
1, 294468, Control_c, 0, 67, 125
1, 294483, Control_c, 0, 67, 127
1, 294527, Control_c, 0, 64, 112
1, 294535, Note_on_c, 0, 65, 50
1, 294537, Note_on_c, 0, 69, 54
1, 294542, Control_c, 0, 64, 99
1, 294543, Note_on_c, 0, 62, 35
1, 294557, Control_c, 0, 64, 86
1, 294572, Control_c, 0, 64, 73
1, 294587, Control_c, 0, 64, 57
1, 294594, Note_off_c, 0, 53, 53
1, 294601, Control_c, 0, 64, 0
1, 294633, Note_off_c, 0, 75, 39
1, 294668, Note_off_c, 0, 64, 37
1, 294749, Note_off_c, 0, 62, 46
1, 294771, Note_on_c, 0, 53, 30
1, 294831, Control_c, 0, 64, 17
1, 294846, Control_c, 0, 64, 59
1, 294861, Control_c, 0, 64, 65
1, 294875, Control_c, 0, 64, 70
1, 294890, Control_c, 0, 64, 74
1, 294905, Control_c, 0, 64, 79
1, 294919, Control_c, 0, 64, 84
1, 294934, Control_c, 0, 64, 89
1, 294949, Control_c, 0, 64, 93
1, 294950, Note_on_c, 0, 62, 32
1, 294964, Control_c, 0, 64, 98
1, 294979, Control_c, 0, 64, 102
1, 294985, Note_off_c, 0, 53, 48
1, 294994, Control_c, 0, 64, 107
1, 295009, Control_c, 0, 64, 113
1, 295023, Control_c, 0, 64, 122
1, 295038, Control_c, 0, 64, 127
1, 295127, Note_on_c, 0, 53, 30
1, 295179, Note_off_c, 0, 62, 31
1, 295335, Control_c, 0, 64, 117
1, 295349, Control_c, 0, 64, 109
1, 295364, Control_c, 0, 64, 102
1, 295378, Note_on_c, 0, 63, 35
1, 295379, Control_c, 0, 64, 93
1, 295383, Note_on_c, 0, 60, 37
1, 295394, Control_c, 0, 64, 84
1, 295409, Control_c, 0, 64, 75
1, 295416, Note_off_c, 0, 53, 45
1, 295423, Control_c, 0, 64, 66
1, 295426, Note_off_c, 0, 65, 56
1, 295446, Control_c, 0, 64, 36
1, 295461, Control_c, 0, 64, 0
1, 295579, Control_c, 0, 64, 40
1, 295594, Control_c, 0, 64, 60
1, 295609, Control_c, 0, 64, 64
1, 295623, Control_c, 0, 64, 66
1, 295638, Control_c, 0, 64, 69
1, 295653, Control_c, 0, 64, 72
1, 295654, Note_off_c, 0, 69, 38
1, 295667, Note_off_c, 0, 60, 36
1, 295667, Control_c, 0, 64, 75
1, 295669, Note_on_c, 0, 53, 20
1, 295682, Control_c, 0, 64, 78
1, 295697, Control_c, 0, 64, 81
1, 295712, Control_c, 0, 64, 84
1, 295727, Control_c, 0, 64, 87
1, 295730, Note_off_c, 0, 63, 54
1, 295742, Control_c, 0, 64, 90
1, 295757, Control_c, 0, 64, 93
1, 295772, Control_c, 0, 64, 96
1, 295787, Control_c, 0, 64, 100
1, 295802, Control_c, 0, 64, 104
1, 295816, Note_off_c, 0, 53, 41
1, 295816, Control_c, 0, 64, 110
1, 295831, Control_c, 0, 64, 119
1, 295846, Control_c, 0, 64, 127
1, 296138, Note_on_c, 0, 65, 53
1, 296156, Note_on_c, 0, 60, 35
1, 296159, Control_c, 0, 64, 99
1, 296160, Note_on_c, 0, 57, 32
1, 296173, Control_c, 0, 64, 85
1, 296195, Control_c, 0, 64, 73
1, 296210, Control_c, 0, 64, 63
1, 296225, Control_c, 0, 64, 58
1, 296240, Control_c, 0, 64, 59
1, 296255, Control_c, 0, 64, 62
1, 296270, Control_c, 0, 64, 64
1, 296284, Control_c, 0, 64, 67
1, 296299, Control_c, 0, 64, 72
1, 296314, Control_c, 0, 64, 76
1, 296329, Control_c, 0, 64, 80
1, 296338, Note_off_c, 0, 57, 45
1, 296344, Control_c, 0, 64, 84
1, 296359, Control_c, 0, 64, 87
1, 296373, Control_c, 0, 64, 90
1, 296388, Control_c, 0, 64, 95
1, 296403, Control_c, 0, 64, 99
1, 296418, Control_c, 0, 64, 104
1, 296433, Control_c, 0, 64, 110
1, 296447, Control_c, 0, 64, 118
1, 296462, Control_c, 0, 64, 127
1, 296508, Note_on_c, 0, 41, 41
1, 296574, Note_off_c, 0, 41, 49
1, 296729, Note_on_c, 0, 57, 41
1, 296784, Note_off_c, 0, 57, 57
1, 296909, Note_on_c, 0, 41, 50
1, 296955, Note_off_c, 0, 41, 50
1, 297098, Note_on_c, 0, 57, 39
1, 297139, Note_off_c, 0, 57, 51
1, 297268, Note_on_c, 0, 41, 46
1, 297375, Note_off_c, 0, 41, 37
1, 297532, Note_on_c, 0, 64, 56
1, 297543, Note_on_c, 0, 59, 39
1, 297551, Control_c, 0, 64, 108
1, 297556, Note_on_c, 0, 56, 40
1, 297567, Control_c, 0, 64, 93
1, 297582, Control_c, 0, 64, 81
1, 297597, Control_c, 0, 64, 70
1, 297611, Control_c, 0, 64, 59
1, 297626, Control_c, 0, 64, 34
1, 297641, Control_c, 0, 64, 30
1, 297666, Note_off_c, 0, 65, 57
1, 297708, Control_c, 0, 64, 35
1, 297723, Control_c, 0, 64, 45
1, 297738, Control_c, 0, 64, 54
1, 297743, Note_off_c, 0, 56, 56
1, 297745, Note_off_c, 0, 60, 46
1, 297752, Control_c, 0, 64, 60
1, 297767, Control_c, 0, 64, 63
1, 297782, Control_c, 0, 64, 65
1, 297793, Note_on_c, 0, 41, 50
1, 297797, Control_c, 0, 64, 67
1, 297812, Control_c, 0, 64, 69
1, 297826, Control_c, 0, 64, 71
1, 297841, Control_c, 0, 64, 74
1, 297856, Control_c, 0, 64, 77
1, 297871, Control_c, 0, 64, 81
1, 297886, Control_c, 0, 64, 84
1, 297900, Control_c, 0, 64, 88
1, 297915, Control_c, 0, 64, 94
1, 297924, Note_off_c, 0, 41, 35
1, 297930, Control_c, 0, 64, 99
1, 297945, Control_c, 0, 64, 105
1, 297960, Control_c, 0, 64, 114
1, 297975, Control_c, 0, 64, 127
1, 297977, Note_on_c, 0, 56, 51
1, 298071, Note_off_c, 0, 56, 58
1, 298140, Note_on_c, 0, 41, 55
1, 298303, Note_off_c, 0, 41, 38
1, 298339, Note_on_c, 0, 58, 50
1, 298340, Note_on_c, 0, 55, 39
1, 298342, Note_on_c, 0, 63, 64
1, 298375, Control_c, 0, 64, 102
1, 298390, Control_c, 0, 64, 85
1, 298405, Control_c, 0, 64, 71
1, 298420, Control_c, 0, 64, 60
1, 298442, Control_c, 0, 64, 44
1, 298457, Control_c, 0, 64, 45
1, 298472, Control_c, 0, 64, 52
1, 298475, Note_off_c, 0, 55, 42
1, 298479, Note_off_c, 0, 59, 37
1, 298479, Note_off_c, 0, 64, 40
1, 298487, Control_c, 0, 64, 61
1, 298501, Control_c, 0, 64, 65
1, 298516, Control_c, 0, 64, 69
1, 298521, Note_on_c, 0, 41, 51
1, 298531, Control_c, 0, 64, 74
1, 298546, Control_c, 0, 64, 80
1, 298561, Control_c, 0, 64, 86
1, 298568, Note_off_c, 0, 58, 61
1, 298575, Control_c, 0, 64, 93
1, 298590, Control_c, 0, 64, 99
1, 298593, Note_off_c, 0, 63, 61
1, 298605, Control_c, 0, 64, 105
1, 298620, Control_c, 0, 64, 114
1, 298635, Control_c, 0, 64, 127
1, 298774, Note_on_c, 0, 54, 42
1, 298828, Note_on_c, 0, 57, 43
1, 298869, Note_on_c, 0, 69, 58
1, 298875, Note_off_c, 0, 41, 39
1, 298932, Control_c, 0, 64, 96
1, 298946, Control_c, 0, 64, 81
1, 298961, Control_c, 0, 64, 70
1, 298976, Control_c, 0, 64, 65
1, 298998, Note_off_c, 0, 57, 59
1, 299006, Control_c, 0, 64, 68
1, 299021, Control_c, 0, 64, 71
1, 299035, Control_c, 0, 64, 75
1, 299050, Control_c, 0, 64, 81
1, 299051, Note_on_c, 0, 41, 42
1, 299055, Note_off_c, 0, 54, 55
1, 299065, Control_c, 0, 64, 87
1, 299080, Control_c, 0, 64, 93
1, 299094, Control_c, 0, 64, 99
1, 299109, Control_c, 0, 64, 104
1, 299124, Control_c, 0, 64, 107
1, 299154, Control_c, 0, 64, 106
1, 299170, Control_c, 0, 64, 103
1, 299191, Control_c, 0, 64, 101
1, 299206, Control_c, 0, 64, 101
1, 299210, Note_on_c, 0, 62, 58
1, 299224, Note_on_c, 0, 56, 61
1, 299236, Control_c, 0, 64, 102
1, 299243, Note_on_c, 0, 53, 52
1, 299251, Control_c, 0, 64, 108
1, 299252, Note_off_c, 0, 41, 39
1, 299265, Control_c, 0, 64, 127
1, 299334, Note_off_c, 0, 56, 62
1, 299349, Note_off_c, 0, 69, 38
1, 299351, Note_off_c, 0, 62, 61
1, 299352, Note_off_c, 0, 53, 62
1, 299369, Note_on_c, 0, 41, 53
1, 299483, Note_on_c, 0, 55, 62
1, 299488, Control_c, 0, 64, 100
1, 299490, Note_on_c, 0, 61, 69
1, 299503, Control_c, 0, 64, 93
1, 299508, Note_off_c, 0, 41, 56
1, 299514, Note_on_c, 0, 67, 69
1, 299519, Note_on_c, 0, 52, 51
1, 299531, Control_c, 0, 64, 95
1, 299531, Control_c, 0, 67, 125
1, 299546, Control_c, 0, 64, 103
1, 299546, Control_c, 0, 67, 121
1, 299558, Note_off_c, 0, 55, 63
1, 299561, Control_c, 0, 64, 127
1, 299561, Control_c, 0, 67, 117
1, 299569, Note_off_c, 0, 61, 62
1, 299576, Control_c, 0, 67, 111
1, 299590, Control_c, 0, 67, 103
1, 299596, Note_off_c, 0, 52, 59
1, 299605, Control_c, 0, 67, 92
1, 299620, Control_c, 0, 67, 82
1, 299635, Control_c, 0, 67, 73
1, 299637, Note_on_c, 0, 41, 59
1, 299650, Control_c, 0, 67, 64
1, 299665, Control_c, 0, 67, 60
1, 299680, Control_c, 0, 67, 57
1, 299695, Control_c, 0, 67, 57
1, 299724, Control_c, 0, 64, 116
1, 299739, Control_c, 0, 64, 88
1, 299739, Control_c, 0, 67, 57
1, 299745, Note_on_c, 0, 60, 57
1, 299754, Control_c, 0, 64, 72
1, 299754, Control_c, 0, 67, 58
1, 299756, Note_on_c, 0, 54, 65
1, 299769, Control_c, 0, 64, 64
1, 299769, Control_c, 0, 67, 59
1, 299776, Note_on_c, 0, 51, 54
1, 299793, Note_off_c, 0, 41, 59
1, 299798, Control_c, 0, 64, 68
1, 299798, Control_c, 0, 67, 60
1, 299813, Control_c, 0, 64, 76
1, 299813, Control_c, 0, 67, 60
1, 299828, Control_c, 0, 64, 87
1, 299828, Control_c, 0, 67, 61
1, 299836, Note_off_c, 0, 67, 57
1, 299842, Control_c, 0, 64, 103
1, 299857, Control_c, 0, 64, 127
1, 299857, Control_c, 0, 67, 61
1, 299865, Note_off_c, 0, 60, 63
1, 299871, Note_off_c, 0, 54, 64
1, 299888, Note_off_c, 0, 51, 56
1, 299916, Note_on_c, 0, 41, 57
1, 299931, Control_c, 0, 67, 62
1, 299954, Control_c, 0, 67, 62
1, 299969, Control_c, 0, 67, 63
1, 299984, Control_c, 0, 67, 64
1, 299999, Control_c, 0, 67, 64
1, 300014, Control_c, 0, 67, 65
1, 300027, Note_on_c, 0, 59, 65
1, 300029, Control_c, 0, 64, 102
1, 300029, Control_c, 0, 67, 65
1, 300031, Note_on_c, 0, 53, 55
1, 300043, Control_c, 0, 64, 78
1, 300043, Control_c, 0, 67, 66
1, 300046, Note_off_c, 0, 41, 54
1, 300058, Control_c, 0, 64, 63
1, 300059, Note_on_c, 0, 65, 68
1, 300067, Note_on_c, 0, 50, 45
1, 300073, Control_c, 0, 64, 0
1, 300073, Control_c, 0, 67, 66
1, 300088, Control_c, 0, 64, 14
1, 300103, Control_c, 0, 64, 55
1, 300118, Control_c, 0, 64, 65
1, 300133, Control_c, 0, 64, 73
1, 300136, Note_off_c, 0, 59, 60
1, 300147, Control_c, 0, 64, 82
1, 300160, Note_off_c, 0, 53, 61
1, 300162, Control_c, 0, 64, 96
1, 300177, Control_c, 0, 64, 124
1, 300192, Note_on_c, 0, 41, 47
1, 300192, Control_c, 0, 64, 127
1, 300221, Note_off_c, 0, 50, 37
1, 300325, Control_c, 0, 64, 124
1, 300325, Control_c, 0, 67, 67
1, 300339, Control_c, 0, 64, 88
1, 300339, Control_c, 0, 67, 67
1, 300342, Note_on_c, 0, 58, 63
1, 300344, Note_off_c, 0, 65, 54
1, 300347, Note_on_c, 0, 52, 53
1, 300354, Control_c, 0, 64, 69
1, 300367, Note_on_c, 0, 49, 46
1, 300369, Control_c, 0, 64, 21
1, 300369, Control_c, 0, 67, 68
1, 300371, Note_off_c, 0, 41, 58
1, 300384, Control_c, 0, 64, 0
1, 300413, Control_c, 0, 64, 52
1, 300413, Control_c, 0, 67, 68
1, 300428, Control_c, 0, 64, 65
1, 300443, Control_c, 0, 64, 72
1, 300443, Control_c, 0, 67, 69
1, 300458, Control_c, 0, 64, 81
1, 300473, Control_c, 0, 64, 95
1, 300488, Control_c, 0, 64, 110
1, 300492, Note_off_c, 0, 52, 60
1, 300502, Control_c, 0, 64, 127
1, 300510, Note_off_c, 0, 49, 59
1, 300527, Note_off_c, 0, 58, 62
1, 300538, Note_on_c, 0, 41, 44
1, 300562, Control_c, 0, 67, 69
1, 300592, Control_c, 0, 67, 70
1, 300621, Control_c, 0, 67, 71
1, 300636, Control_c, 0, 67, 73
1, 300651, Control_c, 0, 67, 74
1, 300665, Control_c, 0, 67, 76
1, 300687, Control_c, 0, 67, 77
1, 300702, Control_c, 0, 67, 79
1, 300717, Control_c, 0, 64, 113
1, 300717, Control_c, 0, 67, 80
1, 300718, Note_on_c, 0, 51, 39
1, 300732, Control_c, 0, 64, 94
1, 300732, Control_c, 0, 67, 82
1, 300737, Note_on_c, 0, 57, 51
1, 300747, Control_c, 0, 64, 80
1, 300747, Control_c, 0, 67, 84
1, 300762, Control_c, 0, 64, 66
1, 300762, Control_c, 0, 67, 85
1, 300771, Note_on_c, 0, 48, 36
1, 300777, Control_c, 0, 64, 42
1, 300777, Control_c, 0, 67, 87
1, 300781, Note_on_c, 0, 63, 53
1, 300788, Note_off_c, 0, 41, 42
1, 300792, Control_c, 0, 64, 0
1, 300792, Control_c, 0, 67, 88
1, 300807, Control_c, 0, 67, 91
1, 300822, Control_c, 0, 67, 94
1, 300836, Control_c, 0, 67, 99
1, 300851, Control_c, 0, 67, 103
1, 300866, Control_c, 0, 67, 107
1, 300881, Control_c, 0, 67, 111
1, 300896, Control_c, 0, 67, 115
1, 300911, Control_c, 0, 67, 119
1, 300926, Control_c, 0, 67, 123
1, 300941, Control_c, 0, 64, 36
1, 300941, Control_c, 0, 67, 127
1, 300955, Note_off_c, 0, 48, 52
1, 300956, Control_c, 0, 64, 54
1, 300970, Control_c, 0, 64, 61
1, 300972, Note_on_c, 0, 41, 37
1, 300985, Control_c, 0, 64, 65
1, 301000, Control_c, 0, 64, 68
1, 301015, Control_c, 0, 64, 72
1, 301030, Control_c, 0, 64, 76
1, 301044, Control_c, 0, 64, 82
1, 301059, Control_c, 0, 64, 87
1, 301074, Control_c, 0, 64, 92
1, 301088, Control_c, 0, 64, 97
1, 301103, Control_c, 0, 64, 103
1, 301118, Control_c, 0, 64, 111
1, 301133, Control_c, 0, 64, 127
1, 301135, Note_on_c, 0, 48, 42
1, 301156, Note_off_c, 0, 41, 39
1, 301280, Note_off_c, 0, 48, 51
1, 301289, Note_on_c, 0, 41, 42
1, 301319, Note_off_c, 0, 51, 44
1, 301498, Note_on_c, 0, 52, 59
1, 301508, Note_on_c, 0, 49, 48
1, 301525, Control_c, 0, 64, 96
1, 301540, Control_c, 0, 64, 80
1, 301552, Note_off_c, 0, 41, 47
1, 301555, Control_c, 0, 64, 68
1, 301571, Control_c, 0, 64, 61
1, 301585, Control_c, 0, 64, 60
1, 301600, Control_c, 0, 64, 63
1, 301615, Control_c, 0, 64, 66
1, 301629, Note_off_c, 0, 57, 56
1, 301630, Control_c, 0, 64, 70
1, 301645, Control_c, 0, 64, 74
1, 301659, Control_c, 0, 64, 79
1, 301674, Control_c, 0, 64, 84
1, 301675, Note_off_c, 0, 49, 61
1, 301689, Control_c, 0, 64, 87
1, 301699, Note_on_c, 0, 41, 36
1, 301704, Control_c, 0, 64, 89
1, 301719, Control_c, 0, 64, 91
1, 301734, Control_c, 0, 64, 92
1, 301748, Control_c, 0, 64, 93
1, 301764, Control_c, 0, 64, 94
1, 301912, Control_c, 0, 64, 93
1, 301927, Control_c, 0, 64, 92
1, 301942, Control_c, 0, 64, 90
1, 301957, Control_c, 0, 64, 87
1, 301972, Control_c, 0, 64, 81
1, 301975, Note_on_c, 0, 57, 39
1, 301986, Control_c, 0, 64, 75
1, 301989, Note_on_c, 0, 53, 49
1, 302001, Control_c, 0, 64, 68
1, 302016, Control_c, 0, 64, 64
1, 302020, Note_on_c, 0, 50, 30
1, 302030, Control_c, 0, 64, 58
1, 302045, Control_c, 0, 64, 43
1, 302060, Control_c, 0, 64, 0
1, 302091, Note_off_c, 0, 41, 54
1, 302102, Note_off_c, 0, 52, 48
1, 302113, Note_off_c, 0, 63, 38
1, 302277, Note_on_c, 0, 41, 35
1, 302291, Note_off_c, 0, 50, 44
1, 302424, Control_c, 0, 64, 51
1, 302439, Control_c, 0, 64, 63
1, 302454, Control_c, 0, 64, 67
1, 302469, Control_c, 0, 64, 71
1, 302483, Control_c, 0, 64, 77
1, 302484, Note_on_c, 0, 50, 29
1, 302498, Control_c, 0, 64, 83
1, 302513, Control_c, 0, 64, 87
1, 302515, Note_off_c, 0, 41, 43
1, 302528, Control_c, 0, 64, 91
1, 302542, Control_c, 0, 64, 94
1, 302557, Control_c, 0, 64, 98
1, 302572, Control_c, 0, 64, 102
1, 302587, Control_c, 0, 64, 105
1, 302602, Control_c, 0, 64, 108
1, 302616, Control_c, 0, 64, 110
1, 302631, Control_c, 0, 64, 111
1, 302671, Note_on_c, 0, 41, 37
1, 302676, Control_c, 0, 64, 111
1, 302690, Note_off_c, 0, 50, 40
1, 302735, Control_c, 0, 64, 111
1, 302809, Control_c, 0, 64, 110
1, 302824, Control_c, 0, 64, 108
1, 302839, Control_c, 0, 64, 104
1, 302853, Control_c, 0, 64, 93
1, 302865, Note_on_c, 0, 51, 42
1, 302868, Control_c, 0, 64, 81
1, 302869, Note_off_c, 0, 41, 41
1, 302882, Note_on_c, 0, 48, 37
1, 302883, Control_c, 0, 64, 68
1, 302898, Control_c, 0, 64, 52
1, 302913, Control_c, 0, 64, 0
1, 302932, Note_off_c, 0, 53, 58
1, 302965, Control_c, 0, 64, 21
1, 302980, Control_c, 0, 64, 44
1, 302995, Control_c, 0, 64, 59
1, 303009, Control_c, 0, 64, 64
1, 303024, Control_c, 0, 64, 67
1, 303039, Control_c, 0, 64, 70
1, 303044, Note_off_c, 0, 48, 53
1, 303054, Control_c, 0, 64, 74
1, 303068, Control_c, 0, 64, 78
1, 303075, Note_on_c, 0, 41, 31
1, 303083, Control_c, 0, 64, 83
1, 303098, Control_c, 0, 64, 87
1, 303113, Control_c, 0, 64, 89
1, 303128, Control_c, 0, 64, 92
1, 303142, Control_c, 0, 64, 94
1, 303158, Control_c, 0, 64, 96
1, 303173, Control_c, 0, 64, 97
1, 303188, Control_c, 0, 64, 98
1, 303203, Control_c, 0, 64, 98
1, 303276, Control_c, 0, 64, 98
1, 303290, Control_c, 0, 64, 97
1, 303300, Note_off_c, 0, 41, 40
1, 303305, Control_c, 0, 64, 96
1, 303309, Note_on_c, 0, 48, 39
1, 303320, Control_c, 0, 64, 94
1, 303335, Control_c, 0, 64, 89
1, 303350, Control_c, 0, 64, 83
1, 303364, Control_c, 0, 64, 76
1, 303379, Control_c, 0, 64, 67
1, 303394, Control_c, 0, 64, 58
1, 303409, Control_c, 0, 64, 37
1, 303424, Control_c, 0, 64, 0
1, 303513, Control_c, 0, 64, 38
1, 303528, Control_c, 0, 64, 53
1, 303543, Control_c, 0, 64, 60
1, 303557, Control_c, 0, 64, 63
1, 303572, Control_c, 0, 64, 64
1, 303587, Control_c, 0, 64, 66
1, 303602, Control_c, 0, 64, 68
1, 303609, Note_on_c, 0, 42, 36
1, 303617, Control_c, 0, 64, 70
1, 303623, Note_off_c, 0, 48, 43
1, 303631, Control_c, 0, 64, 72
1, 303646, Control_c, 0, 64, 74
1, 303661, Control_c, 0, 64, 77
1, 303683, Control_c, 0, 64, 79
1, 303698, Control_c, 0, 64, 82
1, 303713, Control_c, 0, 64, 85
1, 303728, Control_c, 0, 64, 88
1, 303743, Control_c, 0, 64, 90
1, 303757, Control_c, 0, 64, 93
1, 303772, Control_c, 0, 64, 95
1, 303787, Control_c, 0, 64, 98
1, 303796, Note_off_c, 0, 57, 36
1, 303802, Control_c, 0, 64, 103
1, 303816, Control_c, 0, 64, 107
1, 303817, Note_on_c, 0, 48, 44
1, 303831, Control_c, 0, 64, 113
1, 303844, Note_off_c, 0, 42, 42
1, 303846, Control_c, 0, 64, 127
1, 303865, Note_off_c, 0, 51, 36
1, 303993, Note_off_c, 0, 48, 61
1, 304014, Note_on_c, 0, 42, 41
1, 304025, Control_c, 0, 67, 126
1, 304040, Control_c, 0, 67, 124
1, 304054, Control_c, 0, 67, 122
1, 304069, Control_c, 0, 67, 120
1, 304084, Control_c, 0, 67, 118
1, 304099, Control_c, 0, 67, 117
1, 304113, Control_c, 0, 67, 116
1, 304128, Control_c, 0, 67, 116
1, 304143, Control_c, 0, 67, 115
1, 304219, Note_on_c, 0, 64, 59
1, 304226, Note_on_c, 0, 49, 44
1, 304243, Note_on_c, 0, 52, 44
1, 304247, Control_c, 0, 64, 126
1, 304261, Control_c, 0, 64, 100
1, 304276, Control_c, 0, 64, 84
1, 304287, Note_off_c, 0, 42, 42
1, 304291, Control_c, 0, 64, 74
1, 304306, Control_c, 0, 64, 66
1, 304321, Control_c, 0, 64, 63
1, 304351, Control_c, 0, 64, 64
1, 304351, Control_c, 0, 67, 115
1, 304366, Control_c, 0, 64, 65
1, 304380, Control_c, 0, 64, 67
1, 304395, Control_c, 0, 64, 70
1, 304395, Control_c, 0, 67, 114
1, 304410, Control_c, 0, 64, 73
1, 304421, Note_off_c, 0, 49, 57
1, 304431, Control_c, 0, 64, 77
1, 304431, Control_c, 0, 67, 114
1, 304436, Note_on_c, 0, 42, 34
1, 304446, Control_c, 0, 64, 80
1, 304461, Control_c, 0, 64, 83
1, 304461, Control_c, 0, 67, 113
1, 304476, Control_c, 0, 64, 86
1, 304476, Control_c, 0, 67, 110
1, 304491, Control_c, 0, 64, 89
1, 304491, Control_c, 0, 67, 106
1, 304506, Control_c, 0, 64, 92
1, 304506, Control_c, 0, 67, 104
1, 304521, Control_c, 0, 64, 95
1, 304521, Control_c, 0, 67, 101
1, 304536, Control_c, 0, 64, 97
1, 304536, Control_c, 0, 67, 99
1, 304551, Control_c, 0, 64, 98
1, 304551, Control_c, 0, 67, 98
1, 304565, Control_c, 0, 64, 100
1, 304565, Control_c, 0, 67, 97
1, 304580, Control_c, 0, 64, 100
1, 304580, Control_c, 0, 67, 96
1, 304595, Control_c, 0, 64, 101
1, 304610, Control_c, 0, 67, 96
1, 304699, Control_c, 0, 67, 96
1, 304713, Control_c, 0, 64, 100
1, 304713, Control_c, 0, 67, 97
1, 304728, Control_c, 0, 64, 99
1, 304728, Control_c, 0, 67, 97
1, 304743, Control_c, 0, 64, 97
1, 304759, Control_c, 0, 64, 94
1, 304759, Control_c, 0, 67, 98
1, 304774, Control_c, 0, 64, 89
1, 304774, Control_c, 0, 67, 98
1, 304789, Control_c, 0, 64, 84
1, 304789, Control_c, 0, 67, 99
1, 304803, Control_c, 0, 64, 77
1, 304803, Control_c, 0, 67, 99
1, 304818, Control_c, 0, 64, 71
1, 304818, Control_c, 0, 67, 100
1, 304825, Note_on_c, 0, 54, 49
1, 304828, Note_on_c, 0, 58, 46
1, 304833, Control_c, 0, 64, 65
1, 304833, Control_c, 0, 67, 101
1, 304841, Note_on_c, 0, 51, 31
1, 304848, Control_c, 0, 64, 58
1, 304848, Control_c, 0, 67, 101
1, 304862, Control_c, 0, 64, 47
1, 304862, Control_c, 0, 67, 102
1, 304877, Control_c, 0, 64, 0
1, 304877, Control_c, 0, 67, 103
1, 304892, Control_c, 0, 67, 104
1, 304907, Control_c, 0, 67, 105
1, 304922, Control_c, 0, 67, 106
1, 304936, Control_c, 0, 67, 107
1, 304945, Note_off_c, 0, 42, 54
1, 304950, Note_off_c, 0, 64, 38
1, 304951, Control_c, 0, 67, 107
1, 304966, Control_c, 0, 67, 108
1, 304981, Control_c, 0, 67, 108
1, 305054, Control_c, 0, 67, 108
1, 305069, Control_c, 0, 67, 107
1, 305084, Control_c, 0, 67, 107
1, 305099, Control_c, 0, 67, 106
1, 305109, Note_off_c, 0, 52, 33
1, 305114, Control_c, 0, 67, 106
1, 305117, Note_off_c, 0, 51, 45
1, 305120, Note_on_c, 0, 42, 29
1, 305129, Control_c, 0, 67, 105
1, 305159, Control_c, 0, 64, 44
1, 305159, Control_c, 0, 67, 104
1, 305181, Control_c, 0, 64, 58
1, 305181, Control_c, 0, 67, 103
1, 305196, Control_c, 0, 64, 64
1, 305196, Control_c, 0, 67, 103
1, 305210, Control_c, 0, 64, 66
1, 305210, Control_c, 0, 67, 102
1, 305225, Control_c, 0, 64, 70
1, 305225, Control_c, 0, 67, 102
1, 305240, Control_c, 0, 64, 74
1, 305254, Control_c, 0, 64, 78
1, 305254, Control_c, 0, 67, 101
1, 305269, Control_c, 0, 64, 83
1, 305284, Control_c, 0, 64, 88
1, 305299, Control_c, 0, 64, 93
1, 305308, Note_on_c, 0, 51, 45
1, 305314, Control_c, 0, 64, 98
1, 305329, Control_c, 0, 64, 105
1, 305335, Note_off_c, 0, 42, 42
1, 305343, Control_c, 0, 64, 112
1, 305358, Control_c, 0, 64, 126
1, 305373, Control_c, 0, 64, 127
1, 305388, Control_c, 0, 67, 102
1, 305403, Control_c, 0, 67, 102
1, 305433, Control_c, 0, 67, 103
1, 305448, Control_c, 0, 67, 104
1, 305477, Control_c, 0, 67, 104
1, 305492, Control_c, 0, 67, 105
1, 305493, Note_on_c, 0, 42, 40
1, 305506, Control_c, 0, 67, 105
1, 305521, Control_c, 0, 67, 106
1, 305523, Note_off_c, 0, 51, 34
1, 305535, Control_c, 0, 67, 107
1, 305551, Control_c, 0, 67, 107
1, 305566, Control_c, 0, 67, 108
1, 305581, Control_c, 0, 67, 109
1, 305596, Control_c, 0, 67, 110
1, 305611, Control_c, 0, 67, 112
1, 305625, Control_c, 0, 67, 117
1, 305640, Control_c, 0, 67, 121
1, 305655, Control_c, 0, 64, 108
1, 305655, Control_c, 0, 67, 125
1, 305670, Control_c, 0, 64, 89
1, 305670, Control_c, 0, 67, 127
1, 305674, Note_on_c, 0, 52, 44
1, 305684, Control_c, 0, 64, 74
1, 305693, Note_on_c, 0, 49, 40
1, 305699, Control_c, 0, 64, 56
1, 305707, Note_off_c, 0, 42, 47
1, 305714, Control_c, 0, 64, 0
1, 305758, Control_c, 0, 64, 27
1, 305773, Control_c, 0, 64, 55
1, 305788, Control_c, 0, 64, 64
1, 305803, Control_c, 0, 64, 69
1, 305818, Control_c, 0, 64, 74
1, 305832, Control_c, 0, 64, 79
1, 305834, Note_off_c, 0, 54, 0
1, 305847, Control_c, 0, 64, 84
1, 305858, Note_on_c, 0, 42, 38
1, 305862, Control_c, 0, 64, 88
1, 305877, Note_off_c, 0, 49, 42
1, 305877, Poly_aftertouch_c, 0, 54, 0
1, 305877, Control_c, 0, 64, 90
1, 305892, Control_c, 0, 64, 93
1, 305907, Control_c, 0, 64, 95
1, 305929, Control_c, 0, 64, 97
1, 305944, Control_c, 0, 64, 99
1, 305958, Control_c, 0, 64, 100
1, 305973, Control_c, 0, 64, 100
1, 306047, Control_c, 0, 64, 99
1, 306062, Control_c, 0, 64, 94
1, 306077, Control_c, 0, 64, 86
1, 306089, Note_on_c, 0, 49, 38
1, 306092, Control_c, 0, 64, 73
1, 306106, Note_off_c, 0, 42, 43
1, 306107, Control_c, 0, 64, 63
1, 306121, Control_c, 0, 64, 28
1, 306136, Control_c, 0, 64, 0
1, 306225, Control_c, 0, 64, 44
1, 306235, Note_off_c, 0, 49, 56
1, 306240, Control_c, 0, 64, 59
1, 306255, Control_c, 0, 64, 64
1, 306262, Note_on_c, 0, 43, 38
1, 306269, Control_c, 0, 64, 67
1, 306284, Control_c, 0, 64, 70
1, 306299, Control_c, 0, 64, 74
1, 306314, Control_c, 0, 64, 78
1, 306329, Control_c, 0, 64, 82
1, 306344, Control_c, 0, 64, 87
1, 306360, Control_c, 0, 64, 92
1, 306374, Control_c, 0, 64, 97
1, 306376, Note_off_c, 0, 52, 59
1, 306389, Control_c, 0, 64, 102
1, 306404, Control_c, 0, 64, 109
1, 306419, Control_c, 0, 64, 121
1, 306434, Control_c, 0, 64, 127
1, 306441, Note_on_c, 0, 49, 50
1, 306444, Note_off_c, 0, 58, 56
1, 306463, Control_c, 0, 67, 125
1, 306465, Note_off_c, 0, 43, 41
1, 306478, Control_c, 0, 67, 121
1, 306493, Control_c, 0, 67, 116
1, 306507, Control_c, 0, 67, 111
1, 306522, Control_c, 0, 67, 105
1, 306537, Control_c, 0, 67, 99
1, 306552, Control_c, 0, 67, 93
1, 306560, Note_off_c, 0, 49, 61
1, 306567, Control_c, 0, 67, 87
1, 306581, Control_c, 0, 67, 81
1, 306590, Note_on_c, 0, 43, 41
1, 306596, Control_c, 0, 67, 76
1, 306611, Control_c, 0, 67, 72
1, 306625, Control_c, 0, 67, 69
1, 306640, Control_c, 0, 67, 67
1, 306655, Control_c, 0, 67, 66
1, 306752, Control_c, 0, 67, 66
1, 306767, Control_c, 0, 67, 67
1, 306781, Control_c, 0, 67, 68
1, 306796, Control_c, 0, 67, 68
1, 306810, Note_on_c, 0, 50, 41
1, 306811, Note_on_c, 0, 65, 58
1, 306811, Control_c, 0, 67, 69
1, 306825, Control_c, 0, 67, 69
1, 306840, Control_c, 0, 67, 70
1, 306841, Note_on_c, 0, 53, 39
1, 306855, Control_c, 0, 64, 105
1, 306855, Control_c, 0, 67, 70
1, 306870, Note_off_c, 0, 43, 41
1, 306870, Control_c, 0, 64, 87
1, 306885, Control_c, 0, 64, 74
1, 306885, Control_c, 0, 67, 71
1, 306899, Control_c, 0, 64, 65
1, 306914, Control_c, 0, 64, 57
1, 306914, Control_c, 0, 67, 71
1, 306929, Control_c, 0, 64, 55
1, 306929, Control_c, 0, 67, 72
1, 306944, Control_c, 0, 64, 56
1, 306959, Control_c, 0, 64, 59
1, 306974, Control_c, 0, 64, 63
1, 306974, Control_c, 0, 67, 72
1, 306989, Control_c, 0, 64, 65
1, 307004, Control_c, 0, 64, 68
1, 307019, Control_c, 0, 64, 71
1, 307032, Note_on_c, 0, 43, 33
1, 307033, Note_off_c, 0, 50, 56
1, 307033, Control_c, 0, 64, 75
1, 307048, Control_c, 0, 64, 80
1, 307063, Control_c, 0, 64, 85
1, 307063, Control_c, 0, 67, 73
1, 307078, Control_c, 0, 64, 90
1, 307093, Note_off_c, 0, 53, 60
1, 307093, Control_c, 0, 64, 95
1, 307107, Control_c, 0, 64, 99
1, 307107, Control_c, 0, 67, 73
1, 307122, Control_c, 0, 64, 105
1, 307137, Control_c, 0, 64, 112
1, 307153, Control_c, 0, 64, 123
1, 307153, Control_c, 0, 67, 74
1, 307168, Control_c, 0, 64, 127
1, 307183, Control_c, 0, 67, 74
1, 307197, Control_c, 0, 67, 75
1, 307227, Control_c, 0, 67, 75
1, 307242, Control_c, 0, 67, 76
1, 307271, Control_c, 0, 67, 76
1, 307301, Control_c, 0, 67, 77
1, 307330, Control_c, 0, 67, 77
1, 307331, Note_on_c, 0, 59, 47
1, 307338, Note_on_c, 0, 52, 38
1, 307338, Note_on_c, 0, 55, 45
1, 307345, Control_c, 0, 67, 78
1, 307390, Control_c, 0, 67, 78
1, 307397, Note_off_c, 0, 43, 41
1, 307404, Control_c, 0, 64, 100
1, 307411, Note_off_c, 0, 65, 54
1, 307427, Control_c, 0, 64, 84
1, 307442, Control_c, 0, 64, 72
1, 307456, Control_c, 0, 64, 63
1, 307471, Control_c, 0, 64, 54
1, 307486, Control_c, 0, 64, 53
1, 307501, Control_c, 0, 64, 55
1, 307516, Control_c, 0, 64, 60
1, 307530, Control_c, 0, 64, 64
1, 307534, Note_on_c, 0, 43, 40
1, 307545, Control_c, 0, 64, 67
1, 307545, Control_c, 0, 67, 78
1, 307552, Note_off_c, 0, 52, 41
1, 307560, Control_c, 0, 64, 70
1, 307560, Control_c, 0, 67, 77
1, 307575, Control_c, 0, 64, 74
1, 307575, Control_c, 0, 67, 77
1, 307590, Control_c, 0, 64, 78
1, 307590, Control_c, 0, 67, 76
1, 307604, Control_c, 0, 64, 83
1, 307604, Control_c, 0, 67, 74
1, 307619, Control_c, 0, 64, 88
1, 307619, Control_c, 0, 67, 73
1, 307634, Control_c, 0, 64, 93
1, 307634, Control_c, 0, 67, 72
1, 307648, Control_c, 0, 64, 99
1, 307648, Control_c, 0, 67, 70
1, 307651, Note_off_c, 0, 55, 62
1, 307663, Control_c, 0, 64, 105
1, 307663, Control_c, 0, 67, 69
1, 307678, Control_c, 0, 64, 115
1, 307678, Control_c, 0, 67, 67
1, 307693, Control_c, 0, 64, 127
1, 307693, Control_c, 0, 67, 66
1, 307705, Note_on_c, 0, 52, 51
1, 307707, Note_off_c, 0, 59, 58
1, 307708, Control_c, 0, 67, 64
1, 307722, Control_c, 0, 67, 60
1, 307731, Note_off_c, 0, 43, 46
1, 307737, Control_c, 0, 67, 54
1, 307752, Control_c, 0, 67, 48
1, 307767, Control_c, 0, 67, 41
1, 307782, Control_c, 0, 67, 34
1, 307797, Control_c, 0, 67, 27
1, 307812, Control_c, 0, 67, 20
1, 307827, Control_c, 0, 67, 12
1, 307841, Control_c, 0, 67, 0
1, 307856, Note_on_c, 0, 43, 54
1, 307867, Note_off_c, 0, 52, 55
1, 308077, Note_on_c, 0, 65, 72
1, 308077, Note_on_c, 0, 50, 51
1, 308099, Note_on_c, 0, 53, 55
1, 308099, Note_off_c, 0, 43, 58
1, 308153, Control_c, 0, 64, 123
1, 308175, Control_c, 0, 64, 90
1, 308190, Control_c, 0, 64, 74
1, 308205, Control_c, 0, 64, 62
1, 308220, Control_c, 0, 64, 43
1, 308235, Control_c, 0, 64, 40
1, 308250, Control_c, 0, 64, 41
1, 308265, Control_c, 0, 64, 48
1, 308279, Note_on_c, 0, 43, 46
1, 308279, Control_c, 0, 64, 60
1, 308287, Note_off_c, 0, 50, 55
1, 308294, Control_c, 0, 64, 65
1, 308309, Control_c, 0, 64, 69
1, 308324, Control_c, 0, 64, 74
1, 308339, Control_c, 0, 64, 81
1, 308353, Control_c, 0, 64, 89
1, 308368, Control_c, 0, 64, 100
1, 308380, Note_off_c, 0, 53, 64
1, 308383, Control_c, 0, 64, 110
1, 308397, Control_c, 0, 64, 127
1, 308543, Note_on_c, 0, 55, 55
1, 308546, Control_c, 0, 67, 8
1, 308548, Note_on_c, 0, 59, 58
1, 308551, Note_on_c, 0, 52, 50
1, 308596, Note_off_c, 0, 43, 58
1, 308650, Control_c, 0, 64, 97
1, 308650, Control_c, 0, 67, 8
1, 308665, Control_c, 0, 64, 79
1, 308679, Control_c, 0, 64, 65
1, 308694, Control_c, 0, 64, 30
1, 308709, Control_c, 0, 64, 0
1, 308733, Note_on_c, 0, 43, 56
1, 308735, Note_off_c, 0, 52, 58
1, 308739, Control_c, 0, 64, 17
1, 308755, Control_c, 0, 64, 41
1, 308769, Note_off_c, 0, 65, 53
1, 308769, Control_c, 0, 64, 55
1, 308784, Control_c, 0, 64, 62
1, 308784, Control_c, 0, 67, 8
1, 308799, Control_c, 0, 64, 65
1, 308814, Control_c, 0, 64, 69
1, 308814, Control_c, 0, 67, 0
1, 308815, Note_off_c, 0, 55, 59
1, 308829, Control_c, 0, 64, 74
1, 308843, Control_c, 0, 64, 82
1, 308858, Control_c, 0, 64, 92
1, 308873, Control_c, 0, 64, 104
1, 308888, Control_c, 0, 64, 127
1, 308890, Note_off_c, 0, 59, 60
1, 308906, Note_on_c, 0, 52, 73
1, 308967, Note_off_c, 0, 43, 62
1, 309045, Note_off_c, 0, 52, 60
1, 309079, Note_on_c, 0, 43, 66
1, 309265, Note_on_c, 0, 69, 82
1, 309273, Note_on_c, 0, 57, 72
1, 309285, Note_on_c, 0, 53, 63
1, 309296, Control_c, 0, 64, 110
1, 309310, Control_c, 0, 64, 85
1, 309325, Control_c, 0, 64, 67
1, 309340, Control_c, 0, 64, 53
1, 309353, Note_off_c, 0, 43, 60
1, 309355, Control_c, 0, 64, 49
1, 309369, Control_c, 0, 64, 57
1, 309384, Control_c, 0, 64, 64
1, 309399, Control_c, 0, 64, 69
1, 309414, Control_c, 0, 64, 78
1, 309428, Control_c, 0, 64, 88
1, 309443, Control_c, 0, 64, 102
1, 309458, Control_c, 0, 64, 127
1, 309459, Note_off_c, 0, 53, 66
1, 309464, Note_on_c, 0, 43, 67
1, 309525, Note_off_c, 0, 57, 60
1, 309720, Note_on_c, 0, 55, 59
1, 309724, Note_on_c, 0, 59, 63
1, 309727, Note_on_c, 0, 62, 67
1, 309764, Control_c, 0, 64, 108
1, 309779, Control_c, 0, 64, 83
1, 309794, Control_c, 0, 64, 64
1, 309803, Note_off_c, 0, 43, 57
1, 309808, Control_c, 0, 64, 0
1, 309918, Note_on_c, 0, 43, 68
1, 309926, Note_off_c, 0, 55, 57
1, 309926, Control_c, 0, 64, 59
1, 309941, Control_c, 0, 64, 67
1, 309956, Control_c, 0, 64, 74
1, 309971, Control_c, 0, 64, 83
1, 309986, Control_c, 0, 64, 99
1, 310000, Note_off_c, 0, 59, 61
1, 310000, Control_c, 0, 64, 127
1, 310022, Note_off_c, 0, 69, 51
1, 310076, Note_off_c, 0, 62, 60
1, 310093, Note_on_c, 0, 55, 79
1, 310140, Note_off_c, 0, 43, 61
1, 310211, Note_off_c, 0, 55, 60
1, 310250, Note_on_c, 0, 43, 75
1, 310340, Note_off_c, 0, 43, 54
1, 310401, Control_c, 0, 64, 103
1, 310423, Control_c, 0, 64, 80
1, 310432, Note_on_c, 0, 72, 85
1, 310437, Note_on_c, 0, 60, 81
1, 310438, Control_c, 0, 64, 66
1, 310449, Note_on_c, 0, 57, 82
1, 310453, Control_c, 0, 64, 65
1, 310468, Control_c, 0, 64, 71
1, 310482, Control_c, 0, 64, 81
1, 310497, Control_c, 0, 64, 105
1, 310512, Control_c, 0, 64, 127
1, 310573, Note_off_c, 0, 57, 60
1, 310612, Note_on_c, 0, 43, 78
1, 310644, Note_off_c, 0, 60, 63
1, 310685, Note_off_c, 0, 43, 54
1, 310846, Note_on_c, 0, 65, 77
1, 310849, Note_on_c, 0, 62, 73
1, 310858, Note_on_c, 0, 59, 79
1, 310867, Control_c, 0, 64, 119
1, 310882, Control_c, 0, 64, 83
1, 310897, Control_c, 0, 64, 61
1, 310912, Control_c, 0, 64, 0
1, 310956, Control_c, 0, 64, 19
1, 310971, Control_c, 0, 64, 65
1, 310986, Control_c, 0, 64, 78
1, 311000, Note_off_c, 0, 59, 56
1, 311000, Control_c, 0, 64, 98
1, 311015, Control_c, 0, 64, 127
1, 311064, Note_on_c, 0, 43, 80
1, 311088, Note_off_c, 0, 62, 62
1, 311147, Note_off_c, 0, 43, 60
1, 311152, Note_off_c, 0, 72, 62
1, 311156, Note_on_c, 0, 68, 39
1, 311176, Note_off_c, 0, 65, 62
1, 311202, Note_off_c, 0, 68, 61
1, 311237, Note_on_c, 0, 59, 89
1, 311296, Note_off_c, 0, 59, 62
1, 311403, Note_on_c, 0, 43, 88
1, 311439, Note_off_c, 0, 43, 58
1, 311543, Control_c, 0, 64, 117
1, 311558, Control_c, 0, 64, 89
1, 311572, Control_c, 0, 64, 76
1, 311577, Note_on_c, 0, 60, 85
1, 311580, Note_on_c, 0, 76, 93
1, 311584, Note_on_c, 0, 64, 88
1, 311587, Control_c, 0, 64, 73
1, 311602, Control_c, 0, 64, 79
1, 311616, Control_c, 0, 64, 92
1, 311629, Note_off_c, 0, 60, 66
1, 311631, Control_c, 0, 64, 127
1, 311751, Note_on_c, 0, 43, 92
1, 311757, Note_off_c, 0, 64, 65
1, 311782, Note_off_c, 0, 43, 67
1, 311995, Note_on_c, 0, 62, 83
1, 311995, Note_on_c, 0, 65, 86
1, 311997, Note_on_c, 0, 69, 86
1, 312010, Control_c, 0, 64, 104
1, 312025, Control_c, 0, 64, 76
1, 312040, Control_c, 0, 64, 0
1, 312099, Control_c, 0, 64, 35
1, 312108, Note_off_c, 0, 62, 63
1, 312114, Control_c, 0, 64, 66
1, 312128, Control_c, 0, 64, 77
1, 312143, Control_c, 0, 64, 96
1, 312158, Control_c, 0, 64, 127
1, 312228, Note_on_c, 0, 43, 80
1, 312280, Note_off_c, 0, 43, 63
1, 312304, Note_off_c, 0, 76, 49
1, 312395, Note_off_c, 0, 65, 60
1, 312414, Note_on_c, 0, 62, 93
1, 312435, Note_off_c, 0, 69, 59
1, 312462, Note_off_c, 0, 62, 63
1, 312585, Note_on_c, 0, 43, 90
1, 312624, Note_off_c, 0, 43, 61
1, 312787, Note_on_c, 0, 77, 97
1, 312791, Note_on_c, 0, 69, 85
1, 312793, Note_on_c, 0, 65, 91
1, 312798, Note_on_c, 0, 62, 87
1, 312838, Note_off_c, 0, 62, 61
1, 312953, Note_off_c, 0, 65, 62
1, 312969, Note_on_c, 0, 43, 92
1, 312986, Note_off_c, 0, 69, 62
1, 312989, Note_off_c, 0, 77, 54
1, 312994, Note_off_c, 0, 43, 68
1, 313247, Note_on_c, 0, 62, 84
1, 313249, Note_on_c, 0, 77, 91
1, 313250, Note_on_c, 0, 71, 88
1, 313251, Note_on_c, 0, 53, 77
1, 313252, Note_on_c, 0, 65, 88
1, 313255, Note_on_c, 0, 55, 76
1, 313262, Control_c, 0, 64, 80
1, 313277, Control_c, 0, 64, 41
1, 313292, Control_c, 0, 64, 0
1, 313322, Control_c, 0, 64, 63
1, 313336, Control_c, 0, 64, 75
1, 313337, Note_off_c, 0, 62, 63
1, 313351, Control_c, 0, 64, 99
1, 313366, Control_c, 0, 64, 127
1, 313375, Note_off_c, 0, 55, 63
1, 313393, Note_off_c, 0, 53, 65
1, 313507, Note_on_c, 0, 43, 93
1, 313544, Note_off_c, 0, 43, 63
1, 313731, Note_on_c, 0, 62, 87
1, 313732, Note_on_c, 0, 55, 80
1, 313740, Note_on_c, 0, 53, 81
1, 313800, Note_off_c, 0, 62, 63
1, 313839, Note_off_c, 0, 55, 62
1, 313857, Note_off_c, 0, 53, 65
1, 313965, Note_on_c, 0, 43, 85
1, 314003, Note_off_c, 0, 43, 62
1, 314077, Poly_aftertouch_c, 0, 45, 0
1, 314180, Note_on_c, 0, 62, 94
1, 314182, Note_on_c, 0, 55, 84
1, 314191, Note_on_c, 0, 53, 78
1, 314218, Note_off_c, 0, 62, 64
1, 314245, Note_off_c, 0, 55, 61
1, 314257, Note_off_c, 0, 53, 66
1, 314388, Note_on_c, 0, 43, 93
1, 314388, Note_off_c, 0, 65, 60
1, 314415, Note_off_c, 0, 43, 67
1, 314429, Note_off_c, 0, 71, 64
1, 314432, Note_off_c, 0, 77, 59
1, 314656, Control_c, 0, 64, 98
1, 314671, Control_c, 0, 64, 62
1, 314673, Note_on_c, 0, 60, 80
1, 314675, Note_on_c, 0, 64, 97
1, 314679, Note_on_c, 0, 52, 80
1, 314679, Note_on_c, 0, 55, 76
1, 314679, Note_on_c, 0, 79, 96
1, 314680, Note_on_c, 0, 70, 93
1, 314680, Note_on_c, 0, 67, 94
1, 314682, Note_on_c, 0, 76, 81
1, 314686, Control_c, 0, 64, 0
1, 314715, Control_c, 0, 64, 44
1, 314721, Note_off_c, 0, 64, 67
1, 314730, Control_c, 0, 64, 76
1, 314745, Control_c, 0, 64, 127
1, 314750, Note_off_c, 0, 60, 66
1, 314760, Note_off_c, 0, 52, 61
1, 314770, Note_off_c, 0, 55, 65
1, 314940, Note_on_c, 0, 48, 101
1, 314945, Note_on_c, 0, 36, 94
1, 314966, Note_off_c, 0, 36, 69
1, 314966, Note_off_c, 0, 48, 64
1, 315216, Note_on_c, 0, 64, 98
1, 315219, Note_on_c, 0, 60, 82
1, 315222, Note_on_c, 0, 52, 78
1, 315226, Note_on_c, 0, 55, 72
1, 315266, Note_off_c, 0, 64, 69
1, 315302, Note_off_c, 0, 60, 66
1, 315321, Note_off_c, 0, 52, 60
1, 315325, Note_off_c, 0, 55, 64
1, 315489, Note_on_c, 0, 48, 100
1, 315494, Note_on_c, 0, 36, 91
1, 315514, Note_off_c, 0, 36, 71
1, 315514, Note_off_c, 0, 48, 68
1, 315810, Note_on_c, 0, 64, 96
1, 315811, Note_on_c, 0, 60, 78
1, 315815, Note_on_c, 0, 52, 83
1, 315818, Note_on_c, 0, 55, 72
1, 315865, Note_off_c, 0, 64, 66
1, 315904, Note_off_c, 0, 60, 65
1, 315926, Note_off_c, 0, 55, 64
1, 315928, Note_off_c, 0, 52, 56
1, 316141, Note_on_c, 0, 48, 101
1, 316146, Note_on_c, 0, 36, 95
1, 316171, Note_off_c, 0, 48, 66
1, 316173, Note_off_c, 0, 36, 64
1, 316477, Note_off_c, 0, 79, 50
1, 316501, Note_off_c, 0, 76, 34
1, 316510, Note_off_c, 0, 70, 50
1, 316525, Note_off_c, 0, 67, 49
1, 316620, Control_c, 0, 64, 90
1, 316632, Note_on_c, 0, 41, 103
1, 316635, Control_c, 0, 64, 0
1, 316638, Note_on_c, 0, 29, 89
1, 316662, Note_off_c, 0, 29, 65
1, 316671, Note_off_c, 0, 41, 67
1, 316680, Control_c, 0, 64, 68
1, 316695, Control_c, 0, 64, 98
1, 316710, Control_c, 0, 64, 127
1, 317081, Control_c, 0, 64, 117
1, 317096, Control_c, 0, 64, 91
1, 317110, Control_c, 0, 64, 66
1, 317125, Control_c, 0, 64, 0
1, 317286, Note_on_c, 0, 53, 86
1, 317287, Note_on_c, 0, 81, 98
1, 317288, Note_on_c, 0, 65, 92
1, 317291, Note_on_c, 0, 69, 94
1, 317291, Note_on_c, 0, 72, 91
1, 317292, Note_on_c, 0, 60, 81
1, 317310, Control_c, 0, 64, 34
1, 317316, Note_off_c, 0, 53, 69
1, 317316, Note_off_c, 0, 65, 67
1, 317325, Control_c, 0, 64, 85
1, 317334, Note_off_c, 0, 60, 66
1, 317340, Control_c, 0, 64, 127
1, 317574, Note_off_c, 0, 72, 59
1, 317578, Control_c, 0, 64, 85
1, 317592, Note_off_c, 0, 69, 58
1, 317592, Control_c, 0, 64, 61
1, 317607, Control_c, 0, 64, 0
1, 317667, Control_c, 0, 64, 60
1, 317681, Control_c, 0, 64, 69
1, 317696, Control_c, 0, 64, 80
1, 317711, Control_c, 0, 64, 101
1, 317726, Control_c, 0, 64, 127
1, 317761, Note_off_c, 0, 81, 40
1, 317762, Note_on_c, 0, 79, 88
1, 317830, Note_on_c, 0, 77, 94
1, 317868, Note_off_c, 0, 79, 59
1, 317878, Note_off_c, 0, 77, 63
1, 317911, Control_c, 0, 64, 106
1, 317914, Note_on_c, 0, 46, 96
1, 317915, Note_on_c, 0, 77, 76
1, 317918, Note_on_c, 0, 34, 94
1, 317918, Note_on_c, 0, 79, 75
1, 317920, Note_on_c, 0, 74, 96
1, 317921, Note_on_c, 0, 86, 93
1, 317926, Control_c, 0, 64, 68
1, 317941, Control_c, 0, 64, 0
1, 317985, Control_c, 0, 64, 71
1, 318000, Control_c, 0, 64, 102
1, 318012, Poly_aftertouch_c, 0, 40, 0
1, 318015, Control_c, 0, 64, 127
1, 318135, Note_off_c, 0, 46, 59
1, 318160, Note_off_c, 0, 34, 57
1, 318330, Note_on_c, 0, 45, 91
1, 318336, Note_on_c, 0, 33, 86
1, 318355, Note_off_c, 0, 45, 70
1, 318361, Note_off_c, 0, 33, 63
1, 318414, Note_on_c, 0, 43, 92
1, 318416, Note_on_c, 0, 31, 80
1, 318437, Note_off_c, 0, 43, 66
1, 318439, Note_on_c, 0, 33, 36
1, 318440, Note_off_c, 0, 31, 61
1, 318459, Note_off_c, 0, 33, 66
1, 318504, Control_c, 0, 64, 79
1, 318512, Note_on_c, 0, 43, 82
1, 318515, Note_on_c, 0, 55, 105
1, 318519, Control_c, 0, 64, 0
1, 318570, Note_off_c, 0, 74, 58
1, 318571, Note_off_c, 0, 77, 60
1, 318582, Note_off_c, 0, 86, 59
1, 318585, Note_off_c, 0, 79, 59
1, 318652, Control_c, 0, 64, 50
1, 318674, Control_c, 0, 64, 59
1, 318689, Control_c, 0, 64, 62
1, 318689, Note_off_c, 0, 55, 61
1, 318692, Note_off_c, 0, 43, 63
1, 318704, Control_c, 0, 64, 63
1, 318719, Control_c, 0, 64, 64
1, 318734, Control_c, 0, 64, 64
1, 318749, Control_c, 0, 64, 64
1, 318763, Control_c, 0, 64, 49
1, 318778, Control_c, 0, 64, 0
1, 318839, Note_on_c, 0, 74, 91
1, 318839, Note_on_c, 0, 86, 94
1, 318840, Note_on_c, 0, 77, 78
1, 318842, Note_on_c, 0, 82, 83
1, 318849, Note_on_c, 0, 79, 69
1, 318866, Note_on_c, 0, 80, 53
1, 319114, Note_off_c, 0, 80, 11
1, 319118, Control_c, 0, 64, 70
1, 319120, Note_off_c, 0, 74, 60
1, 319132, Note_on_c, 0, 52, 98
1, 319133, Note_on_c, 0, 40, 92
1, 319134, Control_c, 0, 64, 103
1, 319149, Control_c, 0, 64, 127
1, 319154, Note_off_c, 0, 77, 61
1, 319154, Note_off_c, 0, 86, 57
1, 319169, Note_off_c, 0, 79, 60
1, 319180, Note_off_c, 0, 82, 64
1, 319372, Note_off_c, 0, 52, 59
1, 319396, Note_on_c, 0, 82, 81
1, 319398, Note_off_c, 0, 40, 59
1, 319398, Note_on_c, 0, 74, 88
1, 319398, Note_on_c, 0, 76, 88
1, 319398, Note_on_c, 0, 86, 94
1, 319410, Note_on_c, 0, 79, 70
1, 319501, Note_on_c, 0, 50, 82
1, 319512, Note_on_c, 0, 38, 68
1, 319525, Note_off_c, 0, 50, 68
1, 319536, Note_off_c, 0, 38, 60
1, 319548, Note_off_c, 0, 86, 56
1, 319550, Note_off_c, 0, 82, 59
1, 319563, Note_off_c, 0, 74, 58
1, 319576, Note_on_c, 0, 36, 88
1, 319580, Note_on_c, 0, 48, 87
1, 319601, Note_off_c, 0, 36, 65
1, 319604, Note_off_c, 0, 48, 67
1, 319605, Note_off_c, 0, 76, 49
1, 319628, Note_off_c, 0, 79, 49
1, 319675, Control_c, 0, 64, 109
1, 319690, Control_c, 0, 64, 73
1, 319693, Note_on_c, 0, 84, 91
1, 319697, Note_on_c, 0, 79, 72
1, 319699, Note_on_c, 0, 48, 77
1, 319701, Note_on_c, 0, 72, 89
1, 319701, Note_on_c, 0, 76, 85
1, 319703, Note_on_c, 0, 60, 92
1, 319704, Control_c, 0, 64, 0
1, 319723, Note_off_c, 0, 48, 68
1, 319723, Note_off_c, 0, 60, 69
1, 319749, Control_c, 0, 64, 65
1, 319763, Control_c, 0, 64, 82
1, 319778, Control_c, 0, 64, 127
1, 319783, Note_off_c, 0, 72, 62
1, 319793, Note_off_c, 0, 84, 64
1, 319838, Note_off_c, 0, 79, 55
1, 319854, Note_off_c, 0, 76, 59
1, 319999, Note_on_c, 0, 82, 96
1, 320001, Control_c, 0, 64, 95
1, 320003, Note_on_c, 0, 70, 91
1, 320004, Note_on_c, 0, 76, 77
1, 320007, Note_on_c, 0, 79, 75
1, 320016, Control_c, 0, 64, 58
1, 320031, Control_c, 0, 64, 0
1, 320105, Control_c, 0, 64, 54
1, 320120, Control_c, 0, 64, 71
1, 320135, Control_c, 0, 64, 81
1, 320157, Control_c, 0, 64, 103
1, 320172, Control_c, 0, 64, 127
1, 320334, Note_off_c, 0, 76, 49
1, 320350, Note_off_c, 0, 79, 54
1, 320377, Note_off_c, 0, 70, 62
1, 320378, Note_off_c, 0, 82, 58
1, 320388, Note_on_c, 0, 53, 98
1, 320388, Note_on_c, 0, 41, 95
1, 320409, Control_c, 0, 64, 111
1, 320424, Control_c, 0, 64, 73
1, 320439, Control_c, 0, 64, 0
1, 320482, Control_c, 0, 64, 64
1, 320497, Control_c, 0, 64, 81
1, 320512, Control_c, 0, 64, 127
1, 320607, Note_off_c, 0, 53, 63
1, 320621, Note_off_c, 0, 41, 58
1, 320848, Note_on_c, 0, 51, 79
1, 320853, Note_on_c, 0, 39, 72
1, 320869, Note_off_c, 0, 51, 68
1, 320881, Note_off_c, 0, 39, 63
1, 320934, Note_on_c, 0, 37, 76
1, 320936, Note_on_c, 0, 49, 82
1, 320957, Note_off_c, 0, 49, 67
1, 320962, Note_off_c, 0, 37, 65
1, 320964, Control_c, 0, 64, 85
1, 320979, Control_c, 0, 64, 44
1, 320994, Control_c, 0, 64, 0
1, 321008, Control_c, 0, 64, 63
1, 321017, Note_on_c, 0, 68, 88
1, 321017, Note_on_c, 0, 80, 93
1, 321018, Note_on_c, 0, 73, 83
1, 321023, Control_c, 0, 64, 82
1, 321029, Note_on_c, 0, 77, 73
1, 321035, Note_on_c, 0, 49, 59
1, 321038, Control_c, 0, 64, 127
1, 321040, Note_on_c, 0, 61, 94
1, 321056, Note_on_c, 0, 48, 61
1, 321058, Note_off_c, 0, 61, 72
1, 321077, Note_off_c, 0, 49, 64
1, 321080, Note_off_c, 0, 48, 59
1, 321101, Poly_aftertouch_c, 0, 51, 127
1, 321141, Poly_aftertouch_c, 0, 51, 0
1, 321172, Control_c, 0, 64, 76
1, 321187, Control_c, 0, 64, 0
1, 321321, Control_c, 0, 64, 66
1, 321335, Control_c, 0, 64, 103
1, 321340, Note_off_c, 0, 80, 61
1, 321350, Control_c, 0, 64, 127
1, 321363, Note_off_c, 0, 77, 56
1, 321372, Note_off_c, 0, 68, 59
1, 321381, Note_off_c, 0, 73, 59
1, 321466, Note_on_c, 0, 78, 89
1, 321470, Note_on_c, 0, 66, 74
1, 321488, Note_off_c, 0, 78, 63
1, 321494, Note_off_c, 0, 66, 68
1, 321540, Note_on_c, 0, 65, 75
1, 321543, Note_on_c, 0, 77, 91
1, 321563, Note_off_c, 0, 65, 70
1, 321574, Note_off_c, 0, 77, 69
1, 321583, Note_on_c, 0, 76, 5
1, 321603, Control_c, 0, 64, 86
1, 321618, Control_c, 0, 64, 60
1, 321624, Note_off_c, 0, 76, 42
1, 321632, Control_c, 0, 64, 0
1, 321643, Note_on_c, 0, 46, 93
1, 321654, Note_on_c, 0, 34, 92
1, 321655, Control_c, 0, 64, 65
1, 321663, Note_on_c, 0, 90, 102
1, 321664, Note_on_c, 0, 78, 96
1, 321670, Control_c, 0, 64, 80
1, 321673, Note_on_c, 0, 85, 87
1, 321685, Control_c, 0, 64, 127
1, 321691, Note_on_c, 0, 40, 26
1, 321747, Note_off_c, 0, 40, 43
1, 321885, Note_off_c, 0, 46, 60
1, 321906, Note_off_c, 0, 34, 54
1, 322092, Note_on_c, 0, 44, 93
1, 322096, Note_on_c, 0, 32, 82
1, 322115, Note_off_c, 0, 44, 68
1, 322123, Note_off_c, 0, 32, 64
1, 322156, Note_on_c, 0, 37, 13
1, 322183, Note_on_c, 0, 42, 81
1, 322183, Note_on_c, 0, 32, 69
1, 322209, Note_off_c, 0, 32, 64
1, 322212, Note_off_c, 0, 37, 46
1, 322212, Note_off_c, 0, 42, 64
1, 322238, Note_on_c, 0, 34, 3
1, 322247, Control_c, 0, 64, 96
1, 322260, Note_off_c, 0, 34, 51
1, 322262, Control_c, 0, 64, 65
1, 322265, Note_off_c, 0, 78, 63
1, 322269, Poly_aftertouch_c, 0, 43, 0
1, 322276, Note_on_c, 0, 42, 93
1, 322277, Control_c, 0, 64, 0
1, 322281, Note_on_c, 0, 54, 101
1, 322293, Note_off_c, 0, 90, 59
1, 322310, Note_off_c, 0, 85, 63
1, 322323, Note_on_c, 0, 44, 15
1, 322355, Note_off_c, 0, 44, 30
1, 322418, Control_c, 0, 64, 34
1, 322433, Control_c, 0, 64, 55
1, 322448, Control_c, 0, 64, 59
1, 322460, Note_off_c, 0, 54, 59
1, 322463, Control_c, 0, 64, 61
1, 322478, Control_c, 0, 64, 63
1, 322478, Note_off_c, 0, 42, 56
1, 322493, Control_c, 0, 64, 64
1, 322522, Control_c, 0, 64, 57
1, 322537, Control_c, 0, 64, 0
1, 322584, Note_on_c, 0, 82, 96
1, 322584, Note_on_c, 0, 90, 89
1, 322584, Note_on_c, 0, 94, 92
1, 322588, Note_on_c, 0, 85, 84
1, 322869, Note_on_c, 0, 52, 97
1, 322871, Note_on_c, 0, 40, 96
1, 322877, Control_c, 0, 64, 77
1, 322883, Note_off_c, 0, 85, 63
1, 322886, Note_off_c, 0, 90, 64
1, 322892, Control_c, 0, 64, 110
1, 322905, Note_off_c, 0, 82, 59
1, 322907, Control_c, 0, 64, 127
1, 323050, Note_off_c, 0, 94, 20
1, 323133, Note_on_c, 0, 84, 85
1, 323133, Note_on_c, 0, 94, 97
1, 323134, Note_on_c, 0, 91, 84
1, 323136, Note_on_c, 0, 82, 89
1, 323143, Note_off_c, 0, 52, 61
1, 323170, Note_off_c, 0, 40, 62
1, 323271, Note_off_c, 0, 91, 61
1, 323293, Note_off_c, 0, 94, 60
1, 323294, Note_off_c, 0, 82, 60
1, 323296, Note_on_c, 0, 50, 82
1, 323307, Note_on_c, 0, 38, 61
1, 323310, Note_off_c, 0, 84, 57
1, 323321, Note_off_c, 0, 50, 68
1, 323334, Note_off_c, 0, 38, 59
1, 323354, Poly_aftertouch_c, 0, 92, 0
1, 323375, Note_on_c, 0, 36, 90
1, 323376, Note_on_c, 0, 48, 91
1, 323400, Note_off_c, 0, 36, 67
1, 323400, Note_off_c, 0, 48, 70
1, 323449, Control_c, 0, 64, 118
1, 323464, Control_c, 0, 64, 73
1, 323470, Note_on_c, 0, 88, 78
1, 323473, Note_on_c, 0, 84, 86
1, 323475, Note_on_c, 0, 93, 103
1, 323476, Note_on_c, 0, 81, 95
1, 323478, Control_c, 0, 64, 0
1, 323492, Note_on_c, 0, 48, 88
1, 323494, Note_on_c, 0, 60, 101
1, 323508, Control_c, 0, 64, 51
1, 323516, Note_off_c, 0, 48, 70
1, 323517, Note_off_c, 0, 60, 70
1, 323522, Control_c, 0, 64, 71
1, 323537, Control_c, 0, 64, 97
1, 323552, Control_c, 0, 64, 127
1, 323561, Note_off_c, 0, 81, 62
1, 323566, Note_off_c, 0, 84, 65
1, 323566, Note_off_c, 0, 93, 63
1, 323572, Note_off_c, 0, 88, 64
1, 323733, Note_on_c, 0, 87, 26
1, 323759, Control_c, 0, 64, 99
1, 323770, Note_off_c, 0, 87, 47
1, 323774, Note_on_c, 0, 88, 89
1, 323774, Control_c, 0, 64, 66
1, 323775, Note_on_c, 0, 91, 96
1, 323776, Note_on_c, 0, 82, 91
1, 323778, Note_on_c, 0, 79, 93
1, 323789, Control_c, 0, 64, 0
1, 323834, Control_c, 0, 64, 65
1, 323849, Control_c, 0, 64, 81
1, 323864, Control_c, 0, 64, 127
1, 323910, Note_off_c, 0, 91, 63
1, 323918, Note_off_c, 0, 79, 55
1, 323934, Note_off_c, 0, 88, 63
1, 323961, Note_off_c, 0, 82, 64
1, 324197, Note_on_c, 0, 84, 88
1, 324197, Note_on_c, 0, 89, 103
1, 324198, Note_on_c, 0, 77, 95
1, 324200, Note_on_c, 0, 81, 87
1, 324208, Note_on_c, 0, 41, 103
1, 324211, Note_on_c, 0, 29, 97
1, 324213, Control_c, 0, 64, 95
1, 324227, Control_c, 0, 64, 65
1, 324242, Control_c, 0, 64, 0
1, 324272, Control_c, 0, 64, 54
1, 324287, Control_c, 0, 64, 73
1, 324301, Control_c, 0, 64, 104
1, 324316, Control_c, 0, 64, 127
1, 324356, Note_off_c, 0, 84, 60
1, 324372, Note_off_c, 0, 81, 59
1, 324380, Note_off_c, 0, 29, 62
1, 324397, Note_off_c, 0, 41, 62
1, 324433, Note_off_c, 0, 89, 54
1, 324435, Note_off_c, 0, 77, 56
1, 324665, Note_on_c, 0, 85, 98
1, 324665, Note_on_c, 0, 89, 100
1, 324667, Note_on_c, 0, 45, 93
1, 324668, Note_on_c, 0, 77, 102
1, 324669, Note_on_c, 0, 33, 90
1, 324709, Note_on_c, 0, 39, 20
1, 324774, Note_off_c, 0, 85, 64
1, 324778, Note_off_c, 0, 89, 63
1, 324779, Note_off_c, 0, 39, 36
1, 324782, Note_off_c, 0, 45, 65
1, 324794, Note_off_c, 0, 77, 61
1, 324797, Note_off_c, 0, 33, 60
1, 324974, Note_on_c, 0, 82, 91
1, 324976, Note_on_c, 0, 46, 102
1, 324976, Control_c, 0, 64, 93
1, 324977, Note_on_c, 0, 34, 96
1, 324977, Note_on_c, 0, 74, 93
1, 324977, Note_on_c, 0, 86, 103
1, 324982, Note_on_c, 0, 77, 76
1, 324991, Control_c, 0, 64, 68
1, 325005, Control_c, 0, 64, 53
1, 325008, Note_on_c, 0, 78, 49
1, 325009, Note_off_c, 0, 78, 127
1, 325011, Note_off_c, 0, 74, 63
1, 325020, Control_c, 0, 64, 66
1, 325021, Note_off_c, 0, 77, 51
1, 325035, Control_c, 0, 64, 75
1, 325039, Note_off_c, 0, 86, 64
1, 325044, Note_off_c, 0, 82, 64
1, 325050, Control_c, 0, 64, 93
1, 325065, Control_c, 0, 64, 127
1, 325088, Note_off_c, 0, 34, 63
1, 325092, Note_off_c, 0, 46, 64
1, 325198, Control_c, 0, 64, 106
1, 325213, Control_c, 0, 64, 78
1, 325222, Note_on_c, 0, 82, 93
1, 325224, Note_on_c, 0, 70, 95
1, 325226, Note_on_c, 0, 50, 93
1, 325228, Control_c, 0, 64, 67
1, 325230, Note_on_c, 0, 78, 85
1, 325231, Note_on_c, 0, 38, 90
1, 325242, Control_c, 0, 64, 72
1, 325256, Note_on_c, 0, 80, 49
1, 325257, Control_c, 0, 64, 86
1, 325259, Note_off_c, 0, 38, 66
1, 325267, Note_off_c, 0, 50, 66
1, 325272, Control_c, 0, 64, 127
1, 325277, Note_off_c, 0, 78, 64
1, 325282, Note_off_c, 0, 80, 60
1, 325292, Note_off_c, 0, 70, 62
1, 325292, Note_off_c, 0, 82, 65
1, 325454, Note_on_c, 0, 75, 79
1, 325457, Control_c, 0, 64, 76
1, 325458, Note_on_c, 0, 70, 79
1, 325462, Note_on_c, 0, 51, 98
1, 325462, Note_on_c, 0, 79, 93
1, 325464, Note_on_c, 0, 39, 90
1, 325464, Note_on_c, 0, 67, 84
1, 325472, Control_c, 0, 64, 0
1, 325501, Control_c, 0, 64, 65
1, 325509, Note_off_c, 0, 67, 60
1, 325516, Control_c, 0, 64, 79
1, 325517, Note_off_c, 0, 79, 65
1, 325524, Note_off_c, 0, 70, 61
1, 325527, Note_off_c, 0, 75, 65
1, 325533, Control_c, 0, 64, 127
1, 325601, Note_off_c, 0, 39, 62
1, 325605, Note_off_c, 0, 51, 65
1, 325692, Poly_aftertouch_c, 0, 66, 127
1, 325695, Control_c, 0, 64, 93
1, 325710, Control_c, 0, 64, 65
1, 325718, Note_on_c, 0, 70, 78
1, 325719, Note_on_c, 0, 61, 97
1, 325719, Note_on_c, 0, 73, 94
1, 325721, Poly_aftertouch_c, 0, 66, 0
1, 325725, Control_c, 0, 64, 0
1, 325730, Note_on_c, 0, 52, 98
1, 325734, Note_on_c, 0, 40, 89
1, 325740, Control_c, 0, 64, 54
1, 325742, Note_on_c, 0, 67, 57
1, 325755, Control_c, 0, 64, 68
1, 325768, Note_off_c, 0, 40, 66
1, 325769, Note_off_c, 0, 67, 66
1, 325770, Control_c, 0, 64, 83
1, 325772, Note_off_c, 0, 52, 65
1, 325778, Note_off_c, 0, 61, 64
1, 325781, Note_off_c, 0, 70, 63
1, 325785, Control_c, 0, 64, 116
1, 325799, Control_c, 0, 64, 127
1, 325802, Note_off_c, 0, 73, 63
1, 325962, Control_c, 0, 64, 87
1, 325977, Control_c, 0, 64, 29
1, 325992, Control_c, 0, 64, 0
1, 326007, Note_on_c, 0, 69, 76
1, 326009, Note_on_c, 0, 63, 85
1, 326010, Note_on_c, 0, 72, 92
1, 326013, Note_on_c, 0, 60, 90
1, 326015, Note_on_c, 0, 53, 100
1, 326016, Note_on_c, 0, 41, 93
1, 326022, Control_c, 0, 64, 63
1, 326037, Control_c, 0, 64, 85
1, 326037, Note_off_c, 0, 53, 71
1, 326046, Note_off_c, 0, 60, 64
1, 326052, Control_c, 0, 64, 127
1, 326059, Note_off_c, 0, 41, 64
1, 326061, Note_off_c, 0, 63, 63
1, 326066, Note_off_c, 0, 69, 64
1, 326072, Note_off_c, 0, 72, 69
1, 326222, Control_c, 0, 64, 87
1, 326237, Control_c, 0, 64, 63
1, 326252, Control_c, 0, 64, 0
1, 326326, Control_c, 0, 64, 26
1, 326341, Control_c, 0, 64, 23
1, 326356, Control_c, 0, 64, 0
1, 326395, Note_on_c, 0, 86, 94
1, 326396, Note_on_c, 0, 77, 83
1, 326397, Note_on_c, 0, 74, 89
1, 326397, Note_on_c, 0, 82, 84
1, 326403, Note_on_c, 0, 46, 87
1, 326407, Note_on_c, 0, 34, 83
1, 326409, Note_on_c, 0, 41, 76
1, 326622, Control_c, 0, 64, 76
1, 326637, Control_c, 0, 64, 92
1, 326652, Control_c, 0, 64, 127
1, 326846, Note_off_c, 0, 34, 59
1, 326881, Note_off_c, 0, 41, 56
1, 326884, Note_off_c, 0, 86, 42
1, 327010, Note_off_c, 0, 46, 60
1, 327068, Note_off_c, 0, 77, 57
1, 327068, Note_off_c, 0, 82, 61
1, 327072, Note_off_c, 0, 74, 61
1, 327437, Note_on_c, 0, 76, 44
1, 327445, Control_c, 0, 64, 105
1, 327455, Note_on_c, 0, 55, 32
1, 327455, Note_on_c, 0, 60, 21
1, 327456, Note_on_c, 0, 64, 32
1, 327459, Note_on_c, 0, 70, 37
1, 327460, Control_c, 0, 64, 85
1, 327465, Note_on_c, 0, 48, 22
1, 327475, Control_c, 0, 64, 73
1, 327489, Control_c, 0, 64, 62
1, 327504, Control_c, 0, 64, 28
1, 327519, Control_c, 0, 64, 0
1, 327554, Note_off_c, 0, 70, 0
1, 327591, Poly_aftertouch_c, 0, 70, 127
1, 327660, Control_c, 0, 64, 17
1, 327675, Control_c, 0, 64, 26
1, 327686, Note_off_c, 0, 60, 38
1, 327690, Control_c, 0, 64, 29
1, 327704, Control_c, 0, 64, 33
1, 327719, Control_c, 0, 64, 37
1, 327734, Control_c, 0, 64, 40
1, 327737, Note_off_c, 0, 48, 14
1, 327740, Note_off_c, 0, 55, 42
1, 327749, Control_c, 0, 64, 43
1, 327757, Note_off_c, 0, 76, 44
1, 327764, Control_c, 0, 64, 44
1, 327766, Note_off_c, 0, 64, 43
1, 327778, Control_c, 0, 64, 44
1, 327793, Control_c, 0, 64, 45
1, 327794, Poly_aftertouch_c, 0, 70, 0
1, 327808, Control_c, 0, 64, 46
1, 327823, Control_c, 0, 64, 48
1, 327838, Control_c, 0, 64, 50
1, 327852, Control_c, 0, 64, 52
1, 327867, Control_c, 0, 64, 53
1, 327882, Control_c, 0, 64, 54
1, 327897, Control_c, 0, 64, 55
1, 327912, Control_c, 0, 64, 55
1, 327928, Control_c, 0, 64, 56
1, 327942, Control_c, 0, 64, 57
1, 327957, Control_c, 0, 64, 58
1, 327973, Control_c, 0, 64, 59
1, 327988, Control_c, 0, 64, 60
1, 328002, Control_c, 0, 64, 61
1, 328017, Control_c, 0, 64, 61
1, 328032, Control_c, 0, 64, 62
1, 328091, Control_c, 0, 64, 61
1, 328106, Control_c, 0, 64, 38
1, 328121, Control_c, 0, 64, 0
1, 328445, Note_on_c, 0, 89, 98
1, 328450, Note_on_c, 0, 43, 88
1, 328450, Note_on_c, 0, 82, 89
1, 328451, Note_on_c, 0, 31, 83
1, 328451, Note_on_c, 0, 86, 81
1, 328452, Note_on_c, 0, 77, 90
1, 328458, Note_on_c, 0, 38, 78
1, 328499, Control_c, 0, 64, 52
1, 328514, Control_c, 0, 64, 68
1, 328528, Control_c, 0, 64, 80
1, 328543, Control_c, 0, 64, 111
1, 328558, Control_c, 0, 64, 127
1, 328801, Note_off_c, 0, 31, 37
1, 328867, Note_off_c, 0, 89, 41
1, 328884, Note_off_c, 0, 38, 38
1, 328905, Note_off_c, 0, 43, 51
1, 329012, Note_off_c, 0, 86, 39
1, 329038, Note_off_c, 0, 82, 53
1, 329065, Note_off_c, 0, 77, 55
1, 329443, Note_on_c, 0, 48, 42
1, 329457, Note_on_c, 0, 60, 35
1, 329458, Note_on_c, 0, 76, 48
1, 329462, Note_on_c, 0, 55, 45
1, 329468, Control_c, 0, 64, 104
1, 329472, Note_on_c, 0, 70, 38
1, 329483, Control_c, 0, 64, 86
1, 329486, Note_on_c, 0, 64, 30
1, 329498, Control_c, 0, 64, 73
1, 329514, Control_c, 0, 64, 61
1, 329529, Control_c, 0, 64, 0
1, 329659, Note_off_c, 0, 48, 42
1, 329705, Note_off_c, 0, 64, 44
1, 329707, Control_c, 0, 64, 11
1, 329721, Control_c, 0, 64, 14
1, 329723, Note_off_c, 0, 60, 41
1, 329735, Note_off_c, 0, 55, 36
1, 329755, Note_off_c, 0, 76, 49
1, 329760, Note_off_c, 0, 70, 58
1, 329766, Control_c, 0, 64, 0
1, 329855, Control_c, 0, 64, 14
1, 329870, Control_c, 0, 64, 21
1, 329891, Control_c, 0, 64, 26
1, 329906, Control_c, 0, 64, 28
1, 329921, Control_c, 0, 64, 32
1, 329936, Control_c, 0, 64, 35
1, 329951, Control_c, 0, 64, 39
1, 329966, Control_c, 0, 64, 43
1, 329981, Control_c, 0, 64, 46
1, 329996, Control_c, 0, 64, 48
1, 330010, Control_c, 0, 64, 50
1, 330025, Control_c, 0, 64, 52
1, 330040, Control_c, 0, 64, 54
1, 330055, Control_c, 0, 64, 55
1, 330085, Control_c, 0, 64, 51
1, 330099, Control_c, 0, 64, 26
1, 330114, Control_c, 0, 64, 0
1, 330450, Note_on_c, 0, 94, 103
1, 330453, Note_on_c, 0, 82, 105
1, 330458, Note_on_c, 0, 89, 90
1, 330463, Note_on_c, 0, 38, 102
1, 330467, Note_on_c, 0, 26, 94
1, 330470, Control_c, 0, 64, 77
1, 330485, Control_c, 0, 64, 127
1, 330664, Note_off_c, 0, 26, 60
1, 330689, Note_off_c, 0, 38, 61
1, 330716, Note_off_c, 0, 82, 54
1, 330721, Note_off_c, 0, 94, 56
1, 330782, Note_off_c, 0, 89, 55
1, 331030, Note_on_c, 0, 82, 105
1, 331030, Note_on_c, 0, 94, 104
1, 331034, Note_on_c, 0, 91, 100
1, 331036, Note_on_c, 0, 27, 93
1, 331037, Note_on_c, 0, 39, 95
1, 331039, Control_c, 0, 64, 74
1, 331054, Control_c, 0, 64, 0
1, 331069, Note_on_c, 0, 33, 34
1, 331075, Note_on_c, 0, 26, 46
1, 331096, Note_off_c, 0, 26, 66
1, 331099, Control_c, 0, 64, 65
1, 331113, Note_off_c, 0, 33, 47
1, 331114, Note_off_c, 0, 27, 63
1, 331115, Control_c, 0, 64, 96
1, 331126, Note_off_c, 0, 39, 62
1, 331130, Control_c, 0, 64, 127
1, 331139, Note_off_c, 0, 82, 62
1, 331140, Note_off_c, 0, 94, 69
1, 331169, Note_off_c, 0, 91, 64
1, 331593, Note_on_c, 0, 70, 95
1, 331596, Note_on_c, 0, 63, 98
1, 331597, Note_on_c, 0, 67, 92
1, 331602, Note_on_c, 0, 51, 84
1, 331604, Note_on_c, 0, 58, 86
1, 331628, Note_off_c, 0, 63, 64
1, 331644, Note_off_c, 0, 58, 67
1, 331644, Note_off_c, 0, 67, 63
1, 331653, Note_off_c, 0, 51, 65
1, 331683, Note_off_c, 0, 70, 69
1, 332192, Note_on_c, 0, 94, 103
1, 332193, Note_on_c, 0, 82, 107
1, 332200, Note_on_c, 0, 91, 95
1, 332206, Note_on_c, 0, 39, 98
1, 332212, Control_c, 0, 64, 105
1, 332213, Note_on_c, 0, 27, 95
1, 332227, Control_c, 0, 64, 64
1, 332241, Control_c, 0, 64, 0
1, 332253, Note_on_c, 0, 33, 11
1, 332300, Control_c, 0, 64, 69
1, 332303, Note_off_c, 0, 33, 48
1, 332315, Control_c, 0, 64, 102
1, 332330, Control_c, 0, 64, 127
1, 332429, Note_off_c, 0, 39, 61
1, 332439, Poly_aftertouch_c, 0, 29, 127
1, 332440, Note_off_c, 0, 82, 60
1, 332506, Note_off_c, 0, 91, 53
1, 332517, Note_off_c, 0, 94, 55
1, 332526, Poly_aftertouch_c, 0, 29, 0
1, 332528, Note_off_c, 0, 27, 60
1, 332761, Control_c, 0, 64, 80
1, 332767, Note_on_c, 0, 88, 90
1, 332768, Note_on_c, 0, 94, 92
1, 332770, Note_on_c, 0, 84, 94
1, 332770, Note_on_c, 0, 96, 100
1, 332774, Note_on_c, 0, 36, 103
1, 332776, Control_c, 0, 64, 0
1, 332777, Note_on_c, 0, 24, 93
1, 332780, Note_on_c, 0, 91, 75
1, 332805, Control_c, 0, 64, 59
1, 332820, Control_c, 0, 64, 96
1, 332827, Note_off_c, 0, 24, 61
1, 332835, Control_c, 0, 64, 127
1, 332845, Note_off_c, 0, 36, 63
1, 332860, Note_off_c, 0, 84, 65
1, 332863, Note_off_c, 0, 96, 67
1, 332919, Note_off_c, 0, 94, 64
1, 332921, Note_off_c, 0, 91, 65
1, 332925, Note_off_c, 0, 88, 60
1, 333346, Note_on_c, 0, 60, 94
1, 333346, Note_on_c, 0, 72, 87
1, 333346, Note_on_c, 0, 64, 92
1, 333349, Note_on_c, 0, 67, 85
1, 333349, Note_on_c, 0, 70, 79
1, 333350, Note_on_c, 0, 48, 87
1, 333352, Note_on_c, 0, 55, 83
1, 333367, Note_off_c, 0, 60, 71
1, 333387, Note_off_c, 0, 55, 66
1, 333393, Note_off_c, 0, 64, 65
1, 333399, Note_off_c, 0, 48, 65
1, 333436, Note_off_c, 0, 67, 59
1, 333449, Note_off_c, 0, 70, 67
1, 333460, Note_off_c, 0, 72, 61
1, 333946, Control_c, 0, 64, 92
1, 333953, Note_on_c, 0, 94, 99
1, 333954, Note_on_c, 0, 88, 94
1, 333956, Note_on_c, 0, 84, 100
1, 333956, Note_on_c, 0, 96, 104
1, 333959, Note_on_c, 0, 48, 104
1, 333962, Control_c, 0, 64, 67
1, 333966, Note_on_c, 0, 91, 80
1, 333966, Note_on_c, 0, 36, 92
1, 333977, Control_c, 0, 64, 57
1, 333992, Control_c, 0, 64, 68
1, 334006, Control_c, 0, 64, 83
1, 334021, Control_c, 0, 64, 127
1, 334059, Note_off_c, 0, 84, 63
1, 334079, Note_off_c, 0, 91, 63
1, 334081, Note_off_c, 0, 88, 63
1, 334127, Note_off_c, 0, 94, 63
1, 334127, Note_off_c, 0, 96, 65
1, 334153, Note_off_c, 0, 48, 54
1, 334187, Note_off_c, 0, 36, 56
1, 334651, Note_on_c, 0, 96, 96
1, 334651, Note_on_c, 0, 101, 102
1, 334652, Control_c, 0, 64, 78
1, 334654, Note_on_c, 0, 89, 102
1, 334655, Note_on_c, 0, 93, 90
1, 334657, Note_on_c, 0, 41, 104
1, 334661, Note_on_c, 0, 29, 98
1, 334667, Control_c, 0, 64, 0
1, 334673, Note_on_c, 0, 94, 62
1, 334693, Note_off_c, 0, 94, 43
1, 334711, Control_c, 0, 64, 54
1, 334725, Control_c, 0, 64, 80
1, 334740, Control_c, 0, 64, 127
1, 334883, Note_off_c, 0, 101, 59
1, 334887, Note_off_c, 0, 29, 60
1, 334909, Note_off_c, 0, 41, 60
1, 334940, Note_off_c, 0, 96, 56
1, 334947, Note_off_c, 0, 89, 58
1, 334958, Poly_aftertouch_c, 0, 36, 127
1, 335000, Poly_aftertouch_c, 0, 36, 0
1, 335075, Note_off_c, 0, 93, 38
1, 335121, Note_on_c, 0, 96, 78
1, 335126, Note_on_c, 0, 93, 80
1, 335135, Note_on_c, 0, 100, 96
1, 335138, Note_on_c, 0, 88, 92
1, 335146, Note_on_c, 0, 33, 97
1, 335149, Note_on_c, 0, 45, 86
1, 335150, Note_on_c, 0, 47, 90
1, 335173, Note_off_c, 0, 47, 68
1, 335181, Note_on_c, 0, 35, 42
1, 335216, Note_off_c, 0, 35, 59
1, 335236, Note_off_c, 0, 93, 65
1, 335240, Note_off_c, 0, 96, 65
1, 335247, Note_off_c, 0, 33, 60
1, 335251, Note_off_c, 0, 45, 65
1, 335254, Note_off_c, 0, 100, 67
1, 335266, Note_off_c, 0, 88, 64
1, 335439, Note_on_c, 0, 94, 76
1, 335445, Control_c, 0, 64, 104
1, 335446, Note_on_c, 0, 98, 101
1, 335447, Note_on_c, 0, 89, 94
1, 335451, Note_on_c, 0, 86, 98
1, 335451, Note_on_c, 0, 46, 99
1, 335455, Note_on_c, 0, 34, 94
1, 335459, Control_c, 0, 64, 66
1, 335474, Control_c, 0, 64, 0
1, 335482, Note_on_c, 0, 90, 39
1, 335483, Note_off_c, 0, 90, 127
1, 335486, Note_on_c, 0, 40, 32
1, 335503, Control_c, 0, 64, 65
1, 335518, Control_c, 0, 64, 80
1, 335522, Note_off_c, 0, 40, 53
1, 335529, Note_off_c, 0, 89, 63
1, 335533, Control_c, 0, 64, 127
1, 335539, Note_off_c, 0, 94, 66
1, 335546, Note_off_c, 0, 98, 66
1, 335567, Note_off_c, 0, 86, 65
1, 335584, Note_off_c, 0, 34, 63
1, 335589, Note_off_c, 0, 46, 60
1, 335598, Note_on_c, 0, 90, 69
1, 335691, Note_off_c, 0, 90, 64
1, 335696, Control_c, 0, 64, 106
1, 335710, Note_on_c, 0, 96, 104
1, 335710, Control_c, 0, 64, 69
1, 335716, Note_on_c, 0, 88, 84
1, 335716, Note_on_c, 0, 84, 94
1, 335719, Note_on_c, 0, 48, 99
1, 335725, Note_on_c, 0, 36, 92
1, 335725, Control_c, 0, 64, 0
1, 335728, Note_on_c, 0, 94, 73
1, 335729, Note_on_c, 0, 89, 67
1, 335743, Note_off_c, 0, 94, 69
1, 335748, Note_off_c, 0, 89, 40
1, 335754, Note_off_c, 0, 36, 66
1, 335755, Control_c, 0, 64, 65
1, 335759, Note_off_c, 0, 48, 65
1, 335770, Control_c, 0, 64, 82
1, 335784, Control_c, 0, 64, 127
1, 335805, Note_off_c, 0, 96, 61
1, 335820, Note_off_c, 0, 84, 62
1, 335853, Note_off_c, 0, 88, 53
1, 335971, Control_c, 0, 64, 106
1, 335975, Note_on_c, 0, 88, 85
1, 335980, Note_on_c, 0, 93, 93
1, 335981, Note_on_c, 0, 49, 104
1, 335981, Note_on_c, 0, 81, 103
1, 335981, Note_on_c, 0, 95, 95
1, 335986, Control_c, 0, 64, 67
1, 335989, Note_on_c, 0, 37, 86
1, 336001, Control_c, 0, 64, 0
1, 336015, Control_c, 0, 64, 54
1, 336030, Control_c, 0, 64, 76
1, 336045, Control_c, 0, 64, 114
1, 336050, Note_off_c, 0, 95, 66
1, 336060, Control_c, 0, 64, 127
1, 336074, Note_off_c, 0, 88, 66
1, 336076, Note_off_c, 0, 93, 66
1, 336077, Note_off_c, 0, 81, 58
1, 336122, Note_off_c, 0, 49, 63
1, 336123, Note_off_c, 0, 37, 65
1, 336252, Control_c, 0, 64, 96
1, 336267, Control_c, 0, 64, 65
1, 336282, Control_c, 0, 64, 0
1, 336289, Note_on_c, 0, 86, 86
1, 336290, Note_on_c, 0, 50, 94
1, 336291, Note_on_c, 0, 89, 97
1, 336292, Note_on_c, 0, 77, 100
1, 336293, Note_on_c, 0, 81, 91
1, 336300, Note_on_c, 0, 38, 87
1, 336312, Control_c, 0, 64, 67
1, 336312, Note_off_c, 0, 50, 72
1, 336327, Control_c, 0, 64, 83
1, 336341, Control_c, 0, 64, 127
1, 336343, Note_off_c, 0, 38, 62
1, 336446, Note_on_c, 0, 31, 91
1, 336459, Control_c, 0, 64, 79
1, 336474, Control_c, 0, 64, 0
1, 336532, Note_on_c, 0, 43, 97
1, 336533, Control_c, 0, 64, 70
1, 336542, Note_off_c, 0, 31, 62
1, 336542, Note_off_c, 0, 89, 62
1, 336548, Control_c, 0, 64, 127
1, 336552, Note_off_c, 0, 77, 60
1, 336558, Note_off_c, 0, 86, 63
1, 336565, Note_off_c, 0, 81, 63
1, 336566, Note_off_c, 0, 43, 66
1, 336633, Poly_aftertouch_c, 0, 34, 0
1, 336840, Note_on_c, 0, 55, 86
1, 336841, Note_on_c, 0, 65, 95
1, 336843, Note_on_c, 0, 86, 103
1, 336844, Note_on_c, 0, 82, 87
1, 336847, Note_on_c, 0, 74, 99
1, 336848, Note_on_c, 0, 58, 83
1, 336848, Note_on_c, 0, 62, 82
1, 336849, Note_on_c, 0, 77, 88
1, 336885, Note_off_c, 0, 55, 66
1, 336887, Note_off_c, 0, 65, 66
1, 336908, Note_off_c, 0, 58, 65
1, 336911, Note_off_c, 0, 62, 62
1, 337059, Note_off_c, 0, 74, 58
1, 337119, Note_off_c, 0, 77, 52
1, 337350, Note_off_c, 0, 82, 43
1, 337543, Control_c, 0, 64, 82
1, 337558, Control_c, 0, 64, 0
1, 337568, Note_on_c, 0, 36, 88
1, 337589, Note_off_c, 0, 86, 59
1, 337603, Control_c, 0, 64, 62
1, 337618, Control_c, 0, 64, 74
1, 337633, Control_c, 0, 64, 101
1, 337639, Note_on_c, 0, 48, 91
1, 337639, Note_off_c, 0, 36, 61
1, 337648, Control_c, 0, 64, 127
1, 337675, Note_off_c, 0, 48, 65
1, 337691, Poly_aftertouch_c, 0, 42, 127
1, 337730, Poly_aftertouch_c, 0, 42, 0
1, 337788, Note_on_c, 0, 84, 92
1, 337790, Note_on_c, 0, 76, 94
1, 337790, Note_on_c, 0, 82, 91
1, 337793, Note_on_c, 0, 72, 100
1, 337794, Note_on_c, 0, 64, 96
1, 337798, Note_on_c, 0, 55, 79
1, 337800, Note_on_c, 0, 60, 77
1, 337800, Note_on_c, 0, 79, 76
1, 337810, Note_off_c, 0, 64, 75
1, 337811, Note_on_c, 0, 58, 70
1, 337820, Note_off_c, 0, 55, 68
1, 337828, Note_off_c, 0, 60, 66
1, 337832, Note_off_c, 0, 58, 64
1, 337922, Note_off_c, 0, 72, 53
1, 338067, Note_off_c, 0, 84, 54
1, 338098, Note_off_c, 0, 79, 24
1, 338100, Note_off_c, 0, 82, 62
1, 338133, Note_off_c, 0, 76, 48
1, 338500, Control_c, 0, 64, 118
1, 338514, Note_on_c, 0, 29, 93
1, 338515, Control_c, 0, 64, 77
1, 338529, Control_c, 0, 64, 0
1, 338559, Control_c, 0, 64, 14
1, 338574, Control_c, 0, 64, 66
1, 338589, Control_c, 0, 64, 90
1, 338598, Note_on_c, 0, 41, 94
1, 338598, Note_off_c, 0, 29, 63
1, 338603, Control_c, 0, 64, 127
1, 338632, Note_off_c, 0, 41, 64
1, 338677, Poly_aftertouch_c, 0, 36, 127
1, 338714, Poly_aftertouch_c, 0, 36, 0
1, 338823, Note_on_c, 0, 84, 88
1, 338825, Note_on_c, 0, 93, 99
1, 338828, Note_on_c, 0, 81, 98
1, 338831, Note_on_c, 0, 53, 89
1, 338831, Note_on_c, 0, 65, 100
1, 338831, Note_on_c, 0, 89, 90
1, 338832, Note_on_c, 0, 60, 73
1, 338844, Note_on_c, 0, 57, 76
1, 339302, Note_off_c, 0, 53, 33
1, 339365, Note_off_c, 0, 65, 56
1, 339445, Note_off_c, 0, 57, 39
1, 339480, Note_off_c, 0, 60, 55
1, 339786, Note_off_c, 0, 81, 51
1, 339969, Note_off_c, 0, 84, 36
1, 340217, Note_on_c, 0, 29, 80
1, 340238, Note_off_c, 0, 89, 38
1, 340252, Note_off_c, 0, 93, 49
1, 340292, Note_on_c, 0, 36, 81
1, 340294, Note_off_c, 0, 29, 62
1, 340353, Note_off_c, 0, 36, 60
1, 340357, Note_on_c, 0, 41, 81
1, 340389, Note_off_c, 0, 41, 65
1, 340450, Note_on_c, 0, 48, 102
1, 340455, Note_on_c, 0, 84, 95
1, 340460, Note_on_c, 0, 81, 94
1, 340460, Note_on_c, 0, 93, 99
1, 340461, Note_on_c, 0, 89, 90
1, 340482, Note_off_c, 0, 48, 68
1, 341093, Note_on_c, 0, 29, 75
1, 341142, Note_off_c, 0, 81, 51
1, 341158, Note_off_c, 0, 84, 56
1, 341174, Note_off_c, 0, 93, 55
1, 341182, Note_off_c, 0, 89, 57
1, 341185, Note_on_c, 0, 36, 79
1, 341195, Note_off_c, 0, 29, 61
1, 341257, Note_on_c, 0, 41, 83
1, 341261, Note_off_c, 0, 36, 59
1, 341290, Note_off_c, 0, 41, 67
1, 341377, Note_on_c, 0, 48, 104
1, 341380, Note_on_c, 0, 84, 91
1, 341383, Note_on_c, 0, 89, 77
1, 341386, Note_on_c, 0, 81, 95
1, 341386, Note_on_c, 0, 93, 100
1, 341411, Note_off_c, 0, 48, 68
1, 342197, Note_on_c, 0, 29, 97
1, 342474, Note_on_c, 0, 36, 90
1, 342501, Note_off_c, 0, 29, 61
1, 342667, Note_on_c, 0, 41, 96
1, 342693, Note_off_c, 0, 36, 60
1, 342708, Note_off_c, 0, 41, 66
1, 342862, Note_on_c, 0, 48, 100
1, 342885, Note_off_c, 0, 48, 69
1, 343221, Note_on_c, 0, 53, 86
1, 343287, Note_off_c, 0, 81, 49
1, 343320, Note_off_c, 0, 93, 42
1, 343347, Note_on_c, 0, 57, 85
1, 343414, Note_off_c, 0, 84, 50
1, 343462, Note_on_c, 0, 60, 89
1, 343482, Note_off_c, 0, 89, 26
1, 343793, Note_on_c, 0, 93, 100
1, 343795, Note_on_c, 0, 81, 95
1, 343795, Note_on_c, 0, 84, 90
1, 343800, Note_on_c, 0, 89, 86
1, 343803, Note_on_c, 0, 65, 95
1, 348085, Note_off_c, 0, 53, 53
1, 348119, Note_off_c, 0, 65, 58
1, 348142, Note_off_c, 0, 93, 52
1, 348182, Note_off_c, 0, 60, 34
1, 348206, Note_off_c, 0, 57, 39
1, 348209, Note_off_c, 0, 81, 51
1, 348249, Note_off_c, 0, 89, 56
1, 348271, Note_off_c, 0, 84, 54
1, 348529, Control_c, 0, 64, 120
1, 348544, Control_c, 0, 64, 106
1, 348558, Control_c, 0, 64, 97
1, 348573, Control_c, 0, 64, 89
1, 348588, Control_c, 0, 64, 82
1, 348611, Control_c, 0, 64, 75
1, 348626, Control_c, 0, 64, 69
1, 348640, Control_c, 0, 64, 64
1, 348655, Control_c, 0, 64, 61
1, 348670, Control_c, 0, 64, 59
1, 348686, Control_c, 0, 64, 58
1, 348701, Control_c, 0, 64, 56
1, 348716, Control_c, 0, 64, 52
1, 348731, Control_c, 0, 64, 48
1, 348745, Control_c, 0, 64, 46
1, 348760, Control_c, 0, 64, 45
1, 348863, Control_c, 0, 64, 46
1, 348878, Control_c, 0, 64, 47
1, 348893, Control_c, 0, 64, 47
1, 348908, Control_c, 0, 64, 48
1, 348923, Control_c, 0, 64, 49
1, 348937, Control_c, 0, 64, 50
1, 348952, Control_c, 0, 64, 51
1, 348967, Control_c, 0, 64, 52
1, 348981, Control_c, 0, 64, 52
1, 348996, Control_c, 0, 64, 53
1, 349130, Control_c, 0, 64, 53
1, 349204, Control_c, 0, 64, 55
1, 349219, Control_c, 0, 64, 55
1, 349263, Control_c, 0, 64, 56
1, 349278, Control_c, 0, 64, 56
1, 349293, Control_c, 0, 64, 57
1, 349337, Control_c, 0, 64, 58
1, 349352, Control_c, 0, 64, 59
1, 349374, Control_c, 0, 64, 60
1, 349404, Control_c, 0, 64, 60
1, 349419, Control_c, 0, 64, 61
1, 349434, Control_c, 0, 64, 61
1, 349463, Control_c, 0, 64, 62
1, 349478, Control_c, 0, 64, 62
1, 349494, Control_c, 0, 64, 63
1, 349509, Control_c, 0, 64, 63
1, 349568, Control_c, 0, 64, 63
1, 349598, Control_c, 0, 64, 62
1, 349627, Control_c, 0, 64, 63
1, 349657, Control_c, 0, 64, 63
1, 349672, Control_c, 0, 64, 64
1, 349731, Control_c, 0, 64, 64
1, 349760, Control_c, 0, 64, 65
1, 349804, Control_c, 0, 64, 65
1, 349819, Control_c, 0, 64, 66
1, 349834, Control_c, 0, 64, 66
1, 349893, Control_c, 0, 64, 67
1, 349908, Control_c, 0, 64, 67
1, 349938, Control_c, 0, 64, 68
1, 349953, Control_c, 0, 64, 69
1, 349997, Control_c, 0, 64, 69
1, 350072, Control_c, 0, 64, 70
1, 350182, Control_c, 0, 64, 69
1, 350242, Control_c, 0, 64, 69
1, 350302, Control_c, 0, 64, 68
1, 350361, Control_c, 0, 64, 68
1, 350406, Control_c, 0, 64, 67
1, 350435, Control_c, 0, 64, 67
1, 350627, Control_c, 0, 64, 66
1, 350672, Control_c, 0, 64, 66
1, 350687, Control_c, 0, 64, 65
1, 350701, Control_c, 0, 64, 65
1, 350716, Control_c, 0, 64, 64
1, 350731, Control_c, 0, 64, 64
1, 350746, Control_c, 0, 64, 63
1, 350746, Control_c, 0, 67, 9
1, 350761, Control_c, 0, 64, 61
1, 350761, Control_c, 0, 67, 12
1, 350775, Control_c, 0, 64, 58
1, 350775, Control_c, 0, 67, 16
1, 350790, Control_c, 0, 64, 51
1, 350790, Control_c, 0, 67, 23
1, 350805, Control_c, 0, 64, 32
1, 350805, Control_c, 0, 67, 30
1, 350820, Control_c, 0, 64, 0
1, 350820, Control_c, 0, 67, 40
1, 350835, Control_c, 0, 67, 48
1, 350857, Control_c, 0, 67, 56
1, 350872, Control_c, 0, 67, 63
1, 350887, Control_c, 0, 67, 72
1, 350902, Control_c, 0, 67, 81
1, 350916, Control_c, 0, 67, 90
1, 350931, Control_c, 0, 67, 104
1, 350946, Control_c, 0, 67, 115
1, 350960, Control_c, 0, 67, 125
1, 350975, Control_c, 0, 67, 127
1, 351154, Control_c, 0, 64, 24
1, 351169, Control_c, 0, 64, 44
1, 351184, Control_c, 0, 64, 56
1, 351199, Control_c, 0, 64, 61
1, 351214, Control_c, 0, 64, 63
1, 351229, Control_c, 0, 64, 64
1, 351243, Control_c, 0, 64, 66
1, 351258, Control_c, 0, 64, 68
1, 351273, Control_c, 0, 64, 70
1, 351288, Control_c, 0, 64, 73
1, 351303, Control_c, 0, 64, 76
1, 351318, Control_c, 0, 64, 79
1, 351332, Control_c, 0, 64, 84
1, 351347, Control_c, 0, 64, 89
1, 351362, Control_c, 0, 64, 95
1, 351376, Control_c, 0, 64, 101
1, 351391, Control_c, 0, 64, 109
1, 351406, Control_c, 0, 64, 127
1, 355365, Control_c, 0, 64, 105
1, 355380, Control_c, 0, 64, 91
1, 355395, Control_c, 0, 64, 78
1, 355410, Control_c, 0, 64, 67
1, 355424, Control_c, 0, 64, 53
1, 355439, Control_c, 0, 64, 49
1, 355454, Control_c, 0, 64, 52
1, 355469, Control_c, 0, 64, 56
1, 355484, Control_c, 0, 64, 59
1, 355498, Control_c, 0, 64, 62
1, 355513, Control_c, 0, 64, 64
1, 355528, Control_c, 0, 64, 66
1, 355543, Control_c, 0, 64, 68
1, 355557, Control_c, 0, 64, 70
1, 355572, Control_c, 0, 64, 72
1, 355587, Control_c, 0, 64, 74
1, 355602, Control_c, 0, 64, 76
1, 355617, Control_c, 0, 64, 80
1, 355631, Control_c, 0, 64, 83
1, 355646, Control_c, 0, 64, 86
1, 355661, Control_c, 0, 64, 89
1, 355676, Control_c, 0, 64, 91
1, 355691, Control_c, 0, 64, 94
1, 355706, Control_c, 0, 64, 97
1, 355721, Control_c, 0, 64, 100
1, 355736, Control_c, 0, 64, 103
1, 355750, Control_c, 0, 64, 108
1, 355765, Control_c, 0, 64, 114
1, 355780, Control_c, 0, 64, 127
1, 356454, Control_c, 0, 67, 124
1, 356469, Control_c, 0, 67, 120
1, 356472, Note_on_c, 0, 75, 55
1, 356478, Note_on_c, 0, 60, 26
1, 356484, Control_c, 0, 67, 116
1, 356499, Control_c, 0, 67, 110
1, 356514, Control_c, 0, 67, 105
1, 356528, Control_c, 0, 67, 99
1, 356543, Control_c, 0, 67, 92
1, 356558, Control_c, 0, 67, 86
1, 356572, Control_c, 0, 67, 80
1, 356587, Control_c, 0, 67, 73
1, 356602, Control_c, 0, 67, 68
1, 356617, Control_c, 0, 67, 64
1, 356632, Control_c, 0, 67, 61
1, 356646, Control_c, 0, 67, 58
1, 356661, Control_c, 0, 67, 56
1, 356677, Control_c, 0, 67, 54
1, 356692, Control_c, 0, 67, 52
1, 356707, Control_c, 0, 67, 50
1, 356722, Control_c, 0, 67, 48
1, 356737, Control_c, 0, 67, 46
1, 356751, Control_c, 0, 67, 45
1, 356766, Control_c, 0, 67, 43
1, 356781, Control_c, 0, 67, 41
1, 356795, Control_c, 0, 67, 39
1, 356803, Note_off_c, 0, 60, 44
1, 356809, Note_on_c, 0, 63, 33
1, 356810, Control_c, 0, 67, 38
1, 356825, Control_c, 0, 67, 37
1, 356840, Control_c, 0, 67, 36
1, 356862, Control_c, 0, 67, 36
1, 357059, Note_on_c, 0, 72, 56
1, 357071, Note_off_c, 0, 63, 43
1, 357071, Note_on_c, 0, 56, 35
1, 357114, Control_c, 0, 67, 36
1, 357217, Control_c, 0, 67, 37
1, 357257, Note_off_c, 0, 56, 42
1, 357293, Note_on_c, 0, 60, 37
1, 357336, Control_c, 0, 67, 37
1, 357381, Control_c, 0, 67, 38
1, 357410, Control_c, 0, 67, 38
1, 357425, Control_c, 0, 67, 39
1, 357440, Control_c, 0, 67, 39
1, 357455, Control_c, 0, 67, 40
1, 357471, Control_c, 0, 67, 41
1, 357485, Control_c, 0, 67, 41
1, 357499, Note_on_c, 0, 68, 65
1, 357500, Control_c, 0, 67, 42
1, 357515, Control_c, 0, 67, 42
1, 357516, Note_on_c, 0, 53, 38
1, 357530, Control_c, 0, 67, 43
1, 357545, Control_c, 0, 64, 108
1, 357545, Control_c, 0, 67, 44
1, 357560, Control_c, 0, 64, 90
1, 357560, Control_c, 0, 67, 44
1, 357574, Control_c, 0, 64, 76
1, 357574, Control_c, 0, 67, 45
1, 357589, Control_c, 0, 64, 65
1, 357611, Control_c, 0, 64, 50
1, 357611, Control_c, 0, 67, 45
1, 357626, Control_c, 0, 64, 51
1, 357634, Note_off_c, 0, 75, 37
1, 357640, Control_c, 0, 64, 58
1, 357655, Control_c, 0, 64, 63
1, 357670, Control_c, 0, 64, 67
1, 357685, Control_c, 0, 64, 72
1, 357697, Note_off_c, 0, 60, 30
1, 357700, Control_c, 0, 64, 79
1, 357710, Note_on_c, 0, 56, 50
1, 357715, Control_c, 0, 64, 87
1, 357730, Control_c, 0, 64, 97
1, 357741, Note_off_c, 0, 53, 41
1, 357745, Control_c, 0, 64, 110
1, 357759, Control_c, 0, 64, 127
1, 357848, Control_c, 0, 67, 46
1, 357863, Control_c, 0, 67, 46
1, 357878, Control_c, 0, 67, 47
1, 357893, Control_c, 0, 67, 48
1, 357907, Control_c, 0, 67, 50
1, 357908, Note_off_c, 0, 56, 54
1, 357921, Note_on_c, 0, 49, 47
1, 357922, Control_c, 0, 67, 53
1, 357932, Note_on_c, 0, 65, 64
1, 357937, Control_c, 0, 67, 58
1, 357951, Control_c, 0, 67, 64
1, 357966, Control_c, 0, 64, 110
1, 357966, Control_c, 0, 67, 68
1, 357981, Control_c, 0, 64, 84
1, 357981, Control_c, 0, 67, 72
1, 357996, Control_c, 0, 64, 69
1, 357996, Control_c, 0, 67, 76
1, 358010, Note_off_c, 0, 72, 32
1, 358011, Control_c, 0, 64, 52
1, 358011, Control_c, 0, 67, 79
1, 358025, Control_c, 0, 64, 32
1, 358025, Control_c, 0, 67, 80
1, 358040, Control_c, 0, 64, 40
1, 358040, Control_c, 0, 67, 81
1, 358055, Control_c, 0, 64, 56
1, 358070, Control_c, 0, 64, 64
1, 358085, Control_c, 0, 64, 69
1, 358085, Control_c, 0, 67, 80
1, 358091, Note_off_c, 0, 68, 60
1, 358096, Note_off_c, 0, 49, 62
1, 358099, Control_c, 0, 64, 74
1, 358099, Control_c, 0, 67, 80
1, 358114, Control_c, 0, 64, 81
1, 358114, Control_c, 0, 67, 79
1, 358129, Control_c, 0, 64, 89
1, 358131, Note_on_c, 0, 53, 43
1, 358144, Control_c, 0, 64, 98
1, 358144, Control_c, 0, 67, 78
1, 358159, Control_c, 0, 64, 106
1, 358159, Control_c, 0, 67, 78
1, 358174, Control_c, 0, 64, 114
1, 358189, Control_c, 0, 64, 127
1, 358189, Control_c, 0, 67, 77
1, 358308, Control_c, 0, 67, 78
1, 358323, Control_c, 0, 67, 78
1, 358345, Control_c, 0, 67, 79
1, 358359, Note_on_c, 0, 46, 42
1, 358360, Control_c, 0, 67, 79
1, 358373, Note_on_c, 0, 61, 62
1, 358374, Control_c, 0, 64, 99
1, 358374, Control_c, 0, 67, 80
1, 358389, Control_c, 0, 64, 82
1, 358404, Control_c, 0, 64, 68
1, 358404, Control_c, 0, 67, 80
1, 358409, Note_off_c, 0, 65, 56
1, 358419, Control_c, 0, 64, 41
1, 358434, Control_c, 0, 64, 0
1, 358434, Control_c, 0, 67, 81
1, 358463, Control_c, 0, 67, 81
1, 358478, Control_c, 0, 64, 34
1, 358493, Control_c, 0, 64, 59
1, 358493, Control_c, 0, 67, 82
1, 358508, Control_c, 0, 64, 65
1, 358523, Control_c, 0, 64, 70
1, 358538, Control_c, 0, 64, 75
1, 358553, Control_c, 0, 64, 81
1, 358553, Control_c, 0, 67, 82
1, 358567, Control_c, 0, 64, 90
1, 358570, Note_on_c, 0, 49, 53
1, 358573, Note_off_c, 0, 46, 45
1, 358582, Control_c, 0, 64, 97
1, 358582, Control_c, 0, 67, 84
1, 358597, Control_c, 0, 64, 105
1, 358597, Control_c, 0, 67, 86
1, 358612, Control_c, 0, 64, 113
1, 358612, Control_c, 0, 67, 87
1, 358627, Control_c, 0, 64, 127
1, 358627, Control_c, 0, 67, 88
1, 358720, Note_off_c, 0, 53, 33
1, 358753, Note_off_c, 0, 49, 50
1, 358781, Note_on_c, 0, 43, 38
1, 358789, Control_c, 0, 67, 88
1, 358794, Note_on_c, 0, 58, 54
1, 358804, Control_c, 0, 64, 114
1, 358819, Control_c, 0, 64, 97
1, 358834, Control_c, 0, 64, 81
1, 358848, Control_c, 0, 64, 65
1, 358863, Control_c, 0, 64, 0
1, 358880, Note_off_c, 0, 61, 59
1, 358907, Control_c, 0, 67, 88
1, 358937, Control_c, 0, 64, 55
1, 358937, Control_c, 0, 67, 87
1, 358952, Control_c, 0, 64, 65
1, 358952, Control_c, 0, 67, 86
1, 358967, Control_c, 0, 64, 71
1, 358967, Control_c, 0, 67, 86
1, 358982, Control_c, 0, 64, 77
1, 358991, Note_off_c, 0, 43, 51
1, 358997, Control_c, 0, 64, 84
1, 358997, Control_c, 0, 67, 85
1, 359012, Control_c, 0, 64, 90
1, 359012, Control_c, 0, 67, 85
1, 359015, Note_on_c, 0, 46, 44
1, 359027, Control_c, 0, 64, 95
1, 359041, Control_c, 0, 64, 98
1, 359041, Control_c, 0, 67, 84
1, 359056, Control_c, 0, 64, 100
1, 359071, Control_c, 0, 64, 101
1, 359071, Control_c, 0, 67, 84
1, 359143, Note_off_c, 0, 58, 59
1, 359181, Note_off_c, 0, 46, 39
1, 359183, Note_on_c, 0, 60, 47
1, 359195, Note_on_c, 0, 44, 42
1, 359216, Note_off_c, 0, 60, 60
1, 359243, Note_on_c, 0, 61, 58
1, 359271, Control_c, 0, 64, 100
1, 359278, Note_off_c, 0, 61, 63
1, 359286, Control_c, 0, 64, 100
1, 359298, Note_on_c, 0, 60, 65
1, 359301, Control_c, 0, 64, 99
1, 359316, Control_c, 0, 64, 98
1, 359331, Control_c, 0, 64, 97
1, 359346, Control_c, 0, 64, 96
1, 359346, Note_off_c, 0, 60, 59
1, 359359, Note_off_c, 0, 44, 48
1, 359360, Control_c, 0, 64, 95
1, 359375, Control_c, 0, 64, 93
1, 359376, Note_on_c, 0, 48, 30
1, 359377, Note_on_c, 0, 61, 55
1, 359390, Control_c, 0, 64, 91
1, 359399, Note_off_c, 0, 61, 62
1, 359405, Note_on_c, 0, 60, 53
1, 359405, Control_c, 0, 64, 89
1, 359420, Control_c, 0, 64, 88
1, 359435, Control_c, 0, 64, 86
1, 359441, Note_off_c, 0, 60, 65
1, 359450, Control_c, 0, 64, 84
1, 359465, Control_c, 0, 64, 82
1, 359465, Control_c, 0, 67, 84
1, 359471, Note_on_c, 0, 58, 56
1, 359480, Control_c, 0, 64, 79
1, 359495, Control_c, 0, 64, 77
1, 359509, Control_c, 0, 64, 75
1, 359509, Control_c, 0, 67, 85
1, 359516, Note_off_c, 0, 58, 59
1, 359524, Control_c, 0, 64, 73
1, 359539, Control_c, 0, 64, 70
1, 359539, Control_c, 0, 67, 85
1, 359554, Note_on_c, 0, 60, 50
1, 359554, Control_c, 0, 64, 67
1, 359569, Control_c, 0, 64, 65
1, 359569, Control_c, 0, 67, 86
1, 359572, Note_off_c, 0, 48, 53
1, 359584, Control_c, 0, 64, 63
1, 359584, Control_c, 0, 67, 86
1, 359598, Control_c, 0, 64, 60
1, 359598, Control_c, 0, 67, 87
1, 359613, Control_c, 0, 64, 49
1, 359613, Control_c, 0, 67, 88
1, 359627, Note_on_c, 0, 46, 30
1, 359628, Control_c, 0, 64, 0
1, 359628, Control_c, 0, 67, 88
1, 359643, Control_c, 0, 67, 89
1, 359647, Note_off_c, 0, 60, 53
1, 359656, Note_on_c, 0, 61, 42
1, 359658, Control_c, 0, 67, 90
1, 359672, Control_c, 0, 67, 95
1, 359687, Control_c, 0, 67, 104
1, 359702, Control_c, 0, 67, 110
1, 359716, Control_c, 0, 67, 117
1, 359731, Control_c, 0, 67, 123
1, 359746, Control_c, 0, 67, 127
1, 359873, Control_c, 0, 64, 29
1, 359888, Control_c, 0, 64, 61
1, 359900, Note_off_c, 0, 46, 43
1, 359903, Control_c, 0, 64, 67
1, 359918, Control_c, 0, 64, 72
1, 359922, Note_on_c, 0, 49, 35
1, 359931, Note_off_c, 0, 61, 60
1, 359933, Control_c, 0, 64, 77
1, 359947, Control_c, 0, 64, 83
1, 359962, Control_c, 0, 64, 89
1, 359977, Control_c, 0, 64, 95
1, 359992, Control_c, 0, 64, 101
1, 360007, Control_c, 0, 64, 105
1, 360021, Control_c, 0, 64, 110
1, 360036, Control_c, 0, 64, 117
1, 360051, Control_c, 0, 64, 127
1, 360136, Note_on_c, 0, 58, 50
1, 360139, Note_on_c, 0, 43, 41
1, 360139, Control_c, 0, 64, 119
1, 360154, Control_c, 0, 64, 103
1, 360169, Control_c, 0, 64, 87
1, 360183, Control_c, 0, 64, 75
1, 360198, Control_c, 0, 64, 66
1, 360205, Note_off_c, 0, 49, 43
1, 360213, Control_c, 0, 64, 62
1, 360228, Control_c, 0, 64, 64
1, 360243, Control_c, 0, 64, 66
1, 360258, Control_c, 0, 64, 70
1, 360273, Control_c, 0, 64, 75
1, 360287, Control_c, 0, 64, 82
1, 360302, Control_c, 0, 64, 90
1, 360317, Control_c, 0, 64, 99
1, 360332, Control_c, 0, 64, 109
1, 360346, Control_c, 0, 64, 127
1, 360347, Note_on_c, 0, 46, 48
1, 360370, Note_off_c, 0, 43, 41
1, 360542, Note_off_c, 0, 46, 55
1, 360568, Note_on_c, 0, 60, 67
1, 360573, Note_on_c, 0, 44, 49
1, 360606, Control_c, 0, 64, 96
1, 360620, Control_c, 0, 64, 79
1, 360635, Control_c, 0, 64, 64
1, 360648, Note_off_c, 0, 58, 54
1, 360650, Control_c, 0, 64, 0
1, 360725, Control_c, 0, 67, 126
1, 360740, Control_c, 0, 67, 120
1, 360755, Control_c, 0, 64, 55
1, 360755, Control_c, 0, 67, 113
1, 360769, Control_c, 0, 64, 65
1, 360769, Control_c, 0, 67, 104
1, 360773, Note_off_c, 0, 44, 60
1, 360784, Control_c, 0, 64, 70
1, 360784, Control_c, 0, 67, 94
1, 360785, Note_on_c, 0, 48, 50
1, 360799, Control_c, 0, 64, 77
1, 360799, Control_c, 0, 67, 81
1, 360814, Control_c, 0, 64, 85
1, 360814, Control_c, 0, 67, 69
1, 360829, Control_c, 0, 64, 93
1, 360829, Control_c, 0, 67, 58
1, 360843, Control_c, 0, 64, 101
1, 360843, Control_c, 0, 67, 50
1, 360858, Control_c, 0, 64, 107
1, 360858, Control_c, 0, 67, 45
1, 360873, Control_c, 0, 64, 114
1, 360873, Control_c, 0, 67, 41
1, 360888, Control_c, 0, 64, 127
1, 360888, Control_c, 0, 67, 38
1, 360903, Control_c, 0, 67, 37
1, 360997, Note_on_c, 0, 63, 69
1, 361013, Note_on_c, 0, 43, 42
1, 361051, Control_c, 0, 64, 99
1, 361065, Control_c, 0, 64, 80
1, 361080, Control_c, 0, 64, 65
1, 361095, Control_c, 0, 64, 0
1, 361095, Control_c, 0, 67, 36
1, 361110, Control_c, 0, 67, 36
1, 361125, Control_c, 0, 67, 35
1, 361140, Control_c, 0, 67, 34
1, 361155, Control_c, 0, 64, 43
1, 361155, Control_c, 0, 67, 31
1, 361166, Note_off_c, 0, 48, 31
1, 361169, Control_c, 0, 64, 63
1, 361169, Control_c, 0, 67, 27
1, 361184, Control_c, 0, 64, 68
1, 361184, Control_c, 0, 67, 19
1, 361199, Control_c, 0, 64, 74
1, 361199, Control_c, 0, 67, 10
1, 361214, Control_c, 0, 64, 82
1, 361214, Control_c, 0, 67, 0
1, 361218, Note_on_c, 0, 46, 49
1, 361228, Note_off_c, 0, 43, 54
1, 361229, Control_c, 0, 64, 92
1, 361243, Control_c, 0, 64, 102
1, 361258, Control_c, 0, 64, 114
1, 361273, Control_c, 0, 64, 127
1, 361431, Note_on_c, 0, 68, 70
1, 361434, Note_off_c, 0, 60, 29
1, 361442, Note_off_c, 0, 46, 48
1, 361450, Note_on_c, 0, 41, 46
1, 361474, Control_c, 0, 64, 91
1, 361489, Control_c, 0, 64, 70
1, 361504, Control_c, 0, 64, 0
1, 361592, Control_c, 0, 64, 52
1, 361607, Control_c, 0, 64, 66
1, 361619, Note_off_c, 0, 41, 55
1, 361622, Control_c, 0, 64, 73
1, 361636, Note_on_c, 0, 44, 52
1, 361637, Control_c, 0, 64, 81
1, 361652, Control_c, 0, 64, 92
1, 361666, Control_c, 0, 64, 104
1, 361674, Note_off_c, 0, 63, 55
1, 361681, Control_c, 0, 64, 121
1, 361696, Control_c, 0, 64, 127
1, 361829, Note_off_c, 0, 44, 58
1, 361866, Note_on_c, 0, 40, 41
1, 361867, Note_on_c, 0, 70, 69
1, 361888, Control_c, 0, 64, 114
1, 361903, Control_c, 0, 64, 86
1, 361918, Control_c, 0, 64, 67
1, 361933, Control_c, 0, 64, 0
1, 361969, Note_off_c, 0, 68, 55
1, 362007, Control_c, 0, 64, 30
1, 362022, Control_c, 0, 64, 63
1, 362037, Control_c, 0, 64, 69
1, 362052, Control_c, 0, 64, 76
1, 362066, Control_c, 0, 64, 86
1, 362088, Control_c, 0, 64, 97
1, 362103, Control_c, 0, 64, 109
1, 362105, Note_on_c, 0, 50, 38
1, 362118, Control_c, 0, 64, 127
1, 362131, Note_off_c, 0, 70, 60
1, 362157, Note_off_c, 0, 40, 41
1, 362162, Note_off_c, 0, 50, 62
1, 362403, Note_on_c, 0, 39, 34
1, 362462, Note_on_c, 0, 67, 49
1, 362475, Control_c, 0, 64, 110
1, 362490, Control_c, 0, 64, 88
1, 362505, Control_c, 0, 64, 71
1, 362520, Control_c, 0, 64, 34
1, 362534, Note_on_c, 0, 75, 64
1, 362534, Control_c, 0, 64, 0
1, 362623, Control_c, 0, 64, 27
1, 362638, Control_c, 0, 64, 59
1, 362653, Control_c, 0, 64, 65
1, 362668, Control_c, 0, 64, 70
1, 362683, Control_c, 0, 64, 75
1, 362697, Control_c, 0, 64, 82
1, 362712, Control_c, 0, 64, 90
1, 362727, Control_c, 0, 64, 99
1, 362741, Control_c, 0, 64, 112
1, 362756, Control_c, 0, 64, 127
1, 362797, Note_off_c, 0, 39, 41
1, 362876, Note_on_c, 0, 51, 42
1, 362908, Note_off_c, 0, 51, 62
1, 362948, Note_off_c, 0, 67, 37
1, 363117, Note_on_c, 0, 55, 47
1, 363335, Note_on_c, 0, 58, 67
1, 363539, Note_on_c, 0, 63, 67
1, 363546, Note_off_c, 0, 75, 51
1, 363676, Note_off_c, 0, 55, 42
1, 363731, Note_on_c, 0, 67, 68
1, 363769, Note_off_c, 0, 58, 59
1, 363808, Note_off_c, 0, 63, 57
1, 363823, Note_off_c, 0, 67, 57
1, 364049, Note_on_c, 0, 75, 71
1, 364061, Note_on_c, 0, 63, 46
1, 364091, Control_c, 0, 64, 104
1, 364106, Control_c, 0, 64, 93
1, 364120, Control_c, 0, 64, 84
1, 364135, Control_c, 0, 64, 74
1, 364150, Control_c, 0, 64, 64
1, 364165, Control_c, 0, 64, 0
1, 364327, Control_c, 0, 64, 38
1, 364350, Control_c, 0, 64, 53
1, 364365, Control_c, 0, 64, 61
1, 364380, Control_c, 0, 64, 63
1, 364386, Note_on_c, 0, 66, 40
1, 364394, Control_c, 0, 64, 65
1, 364408, Note_off_c, 0, 63, 38
1, 364409, Control_c, 0, 64, 67
1, 364424, Control_c, 0, 64, 69
1, 364439, Control_c, 0, 64, 72
1, 364454, Control_c, 0, 64, 75
1, 364468, Control_c, 0, 64, 78
1, 364483, Control_c, 0, 64, 81
1, 364498, Control_c, 0, 64, 84
1, 364513, Control_c, 0, 64, 87
1, 364527, Control_c, 0, 64, 90
1, 364542, Control_c, 0, 64, 93
1, 364557, Control_c, 0, 64, 96
1, 364572, Control_c, 0, 64, 99
1, 364586, Control_c, 0, 64, 102
1, 364588, Note_on_c, 0, 59, 49
1, 364601, Control_c, 0, 64, 107
1, 364616, Control_c, 0, 64, 113
1, 364631, Control_c, 0, 64, 127
1, 364714, Note_off_c, 0, 66, 37
1, 364753, Note_off_c, 0, 59, 58
1, 364798, Note_on_c, 0, 63, 47
1, 364986, Note_off_c, 0, 63, 53
1, 364993, Note_on_c, 0, 71, 66
1, 365010, Note_on_c, 0, 56, 47
1, 365047, Control_c, 0, 64, 122
1, 365062, Control_c, 0, 64, 103
1, 365077, Control_c, 0, 64, 95
1, 365099, Control_c, 0, 64, 90
1, 365114, Control_c, 0, 64, 89
1, 365143, Control_c, 0, 64, 89
1, 365158, Control_c, 0, 64, 92
1, 365166, Note_off_c, 0, 56, 61
1, 365173, Control_c, 0, 64, 97
1, 365188, Control_c, 0, 64, 104
1, 365203, Control_c, 0, 64, 117
1, 365217, Control_c, 0, 64, 127
1, 365227, Note_on_c, 0, 59, 42
1, 365409, Control_c, 0, 64, 87
1, 365424, Control_c, 0, 64, 65
1, 365430, Note_on_c, 0, 68, 57
1, 365435, Note_on_c, 0, 52, 37
1, 365439, Control_c, 0, 64, 0
1, 365544, Control_c, 0, 64, 49
1, 365548, Note_off_c, 0, 75, 32
1, 365555, Note_off_c, 0, 59, 24
1, 365558, Control_c, 0, 64, 64
1, 365573, Control_c, 0, 64, 71
1, 365588, Control_c, 0, 64, 83
1, 365603, Control_c, 0, 64, 98
1, 365618, Control_c, 0, 64, 126
1, 365620, Note_off_c, 0, 52, 40
1, 365623, Note_on_c, 0, 56, 47
1, 365632, Control_c, 0, 64, 127
1, 365681, Note_off_c, 0, 71, 33
1, 365782, Note_off_c, 0, 56, 56
1, 365796, Control_c, 0, 67, 8
1, 365811, Control_c, 0, 67, 10
1, 365824, Note_on_c, 0, 49, 42
1, 365826, Control_c, 0, 64, 106
1, 365826, Control_c, 0, 67, 13
1, 365838, Note_on_c, 0, 64, 60
1, 365847, Control_c, 0, 64, 82
1, 365847, Control_c, 0, 67, 17
1, 365862, Control_c, 0, 64, 65
1, 365862, Control_c, 0, 67, 23
1, 365877, Control_c, 0, 64, 0
1, 365877, Control_c, 0, 67, 30
1, 365892, Control_c, 0, 67, 39
1, 365906, Control_c, 0, 67, 46
1, 365921, Control_c, 0, 64, 52
1, 365921, Control_c, 0, 67, 53
1, 365936, Control_c, 0, 64, 64
1, 365936, Control_c, 0, 67, 58
1, 365951, Control_c, 0, 64, 70
1, 365951, Control_c, 0, 67, 64
1, 365965, Note_off_c, 0, 68, 56
1, 365966, Control_c, 0, 64, 76
1, 365966, Control_c, 0, 67, 69
1, 365981, Control_c, 0, 64, 85
1, 365981, Control_c, 0, 67, 74
1, 365996, Note_off_c, 0, 49, 58
1, 365996, Control_c, 0, 64, 93
1, 365996, Control_c, 0, 67, 77
1, 366011, Control_c, 0, 64, 100
1, 366011, Control_c, 0, 67, 80
1, 366026, Control_c, 0, 64, 105
1, 366026, Control_c, 0, 67, 82
1, 366038, Note_on_c, 0, 52, 42
1, 366040, Control_c, 0, 64, 111
1, 366040, Control_c, 0, 67, 84
1, 366055, Control_c, 0, 64, 119
1, 366055, Control_c, 0, 67, 84
1, 366070, Control_c, 0, 64, 127
1, 366070, Control_c, 0, 67, 85
1, 366084, Control_c, 0, 67, 86
1, 366099, Control_c, 0, 67, 86
1, 366114, Control_c, 0, 67, 87
1, 366129, Control_c, 0, 67, 88
1, 366144, Control_c, 0, 67, 88
1, 366158, Control_c, 0, 67, 89
1, 366174, Control_c, 0, 67, 90
1, 366189, Control_c, 0, 67, 91
1, 366204, Control_c, 0, 67, 92
1, 366219, Control_c, 0, 67, 93
1, 366233, Control_c, 0, 64, 104
1, 366233, Control_c, 0, 67, 94
1, 366243, Note_on_c, 0, 61, 55
1, 366244, Note_on_c, 0, 46, 43
1, 366248, Control_c, 0, 64, 85
1, 366248, Control_c, 0, 67, 95
1, 366254, Note_off_c, 0, 64, 57
1, 366264, Control_c, 0, 64, 67
1, 366264, Control_c, 0, 67, 96
1, 366279, Control_c, 0, 64, 0
1, 366294, Control_c, 0, 67, 97
1, 366353, Control_c, 0, 64, 39
1, 366368, Control_c, 0, 64, 63
1, 366372, Note_off_c, 0, 52, 42
1, 366382, Control_c, 0, 64, 69
1, 366397, Control_c, 0, 64, 75
1, 366397, Control_c, 0, 67, 96
1, 366412, Control_c, 0, 64, 82
1, 366412, Control_c, 0, 67, 96
1, 366427, Control_c, 0, 64, 89
1, 366427, Control_c, 0, 67, 95
1, 366442, Control_c, 0, 64, 96
1, 366442, Control_c, 0, 67, 94
1, 366447, Note_on_c, 0, 49, 43
1, 366456, Control_c, 0, 64, 100
1, 366456, Control_c, 0, 67, 94
1, 366471, Control_c, 0, 64, 103
1, 366471, Control_c, 0, 67, 93
1, 366486, Control_c, 0, 64, 107
1, 366500, Control_c, 0, 64, 110
1, 366515, Control_c, 0, 64, 112
1, 366530, Control_c, 0, 64, 114
1, 366530, Control_c, 0, 67, 93
1, 366545, Control_c, 0, 64, 114
1, 366560, Control_c, 0, 64, 115
1, 366607, Note_off_c, 0, 49, 55
1, 366627, Control_c, 0, 64, 115
1, 366642, Control_c, 0, 64, 107
1, 366656, Control_c, 0, 64, 95
1, 366660, Note_on_c, 0, 47, 40
1, 366666, Note_off_c, 0, 61, 61
1, 366671, Control_c, 0, 64, 82
1, 366674, Note_on_c, 0, 63, 53
1, 366686, Control_c, 0, 64, 72
1, 366697, Note_off_c, 0, 46, 37
1, 366701, Control_c, 0, 64, 65
1, 366712, Note_off_c, 0, 63, 63
1, 366730, Control_c, 0, 64, 68
1, 366745, Control_c, 0, 64, 72
1, 366750, Note_on_c, 0, 64, 54
1, 366760, Control_c, 0, 64, 75
1, 366775, Control_c, 0, 64, 79
1, 366782, Note_off_c, 0, 64, 62
1, 366789, Control_c, 0, 64, 81
1, 366804, Control_c, 0, 64, 81
1, 366810, Note_on_c, 0, 63, 61
1, 366841, Note_off_c, 0, 63, 65
1, 366863, Note_on_c, 0, 64, 60
1, 366869, Note_on_c, 0, 51, 39
1, 366872, Note_off_c, 0, 47, 43
1, 366893, Note_off_c, 0, 64, 67
1, 366903, Note_on_c, 0, 63, 71
1, 366923, Control_c, 0, 64, 81
1, 366935, Note_off_c, 0, 63, 63
1, 366938, Control_c, 0, 64, 80
1, 366953, Control_c, 0, 64, 79
1, 366968, Control_c, 0, 64, 76
1, 366970, Note_on_c, 0, 61, 51
1, 366982, Control_c, 0, 64, 71
1, 366997, Control_c, 0, 64, 66
1, 367003, Note_off_c, 0, 61, 63
1, 367012, Control_c, 0, 64, 56
1, 367012, Control_c, 0, 67, 93
1, 367027, Note_on_c, 0, 63, 58
1, 367027, Control_c, 0, 64, 14
1, 367041, Control_c, 0, 64, 0
1, 367041, Control_c, 0, 67, 94
1, 367087, Note_off_c, 0, 63, 58
1, 367087, Control_c, 0, 67, 94
1, 367108, Note_on_c, 0, 49, 34
1, 367114, Note_on_c, 0, 64, 47
1, 367138, Note_off_c, 0, 51, 45
1, 367146, Control_c, 0, 67, 95
1, 367176, Control_c, 0, 67, 95
1, 367191, Control_c, 0, 67, 96
1, 367235, Control_c, 0, 67, 96
1, 367319, Note_off_c, 0, 49, 44
1, 367379, Note_on_c, 0, 52, 33
1, 367391, Control_c, 0, 64, 49
1, 367405, Control_c, 0, 64, 65
1, 367420, Control_c, 0, 64, 72
1, 367435, Control_c, 0, 64, 79
1, 367435, Control_c, 0, 67, 96
1, 367439, Note_off_c, 0, 64, 54
1, 367450, Control_c, 0, 64, 88
1, 367450, Control_c, 0, 67, 95
1, 367465, Control_c, 0, 64, 97
1, 367479, Control_c, 0, 64, 106
1, 367479, Control_c, 0, 67, 94
1, 367494, Control_c, 0, 64, 119
1, 367494, Control_c, 0, 67, 94
1, 367509, Control_c, 0, 64, 127
1, 367524, Control_c, 0, 67, 93
1, 367612, Control_c, 0, 67, 94
1, 367621, Note_on_c, 0, 61, 60
1, 367624, Note_on_c, 0, 46, 38
1, 367646, Note_off_c, 0, 52, 39
1, 367671, Control_c, 0, 64, 106
1, 367686, Control_c, 0, 64, 84
1, 367701, Control_c, 0, 64, 71
1, 367716, Control_c, 0, 64, 64
1, 367746, Control_c, 0, 64, 68
1, 367761, Control_c, 0, 64, 73
1, 367775, Control_c, 0, 64, 82
1, 367790, Control_c, 0, 64, 92
1, 367805, Control_c, 0, 64, 103
1, 367805, Control_c, 0, 67, 93
1, 367819, Note_on_c, 0, 49, 48
1, 367820, Control_c, 0, 64, 115
1, 367820, Control_c, 0, 67, 93
1, 367835, Control_c, 0, 64, 127
1, 367850, Control_c, 0, 67, 92
1, 367865, Control_c, 0, 67, 92
1, 367895, Control_c, 0, 67, 91
1, 368017, Note_off_c, 0, 49, 55
1, 368036, Note_on_c, 0, 63, 64
1, 368046, Note_on_c, 0, 47, 48
1, 368058, Control_c, 0, 67, 92
1, 368073, Control_c, 0, 64, 106
1, 368094, Control_c, 0, 64, 83
1, 368109, Control_c, 0, 64, 65
1, 368124, Control_c, 0, 64, 0
1, 368142, Note_off_c, 0, 46, 37
1, 368184, Control_c, 0, 67, 91
1, 368199, Control_c, 0, 67, 89
1, 368214, Control_c, 0, 67, 87
1, 368229, Control_c, 0, 67, 85
1, 368243, Control_c, 0, 64, 59
1, 368243, Control_c, 0, 67, 83
1, 368248, Note_on_c, 0, 51, 50
1, 368258, Note_off_c, 0, 47, 60
1, 368258, Control_c, 0, 64, 69
1, 368258, Control_c, 0, 67, 79
1, 368273, Control_c, 0, 64, 77
1, 368273, Control_c, 0, 67, 73
1, 368287, Control_c, 0, 64, 87
1, 368287, Control_c, 0, 67, 67
1, 368295, Note_off_c, 0, 61, 58
1, 368302, Control_c, 0, 64, 99
1, 368302, Control_c, 0, 67, 61
1, 368317, Control_c, 0, 64, 114
1, 368317, Control_c, 0, 67, 53
1, 368332, Control_c, 0, 64, 127
1, 368332, Control_c, 0, 67, 45
1, 368347, Control_c, 0, 67, 38
1, 368361, Control_c, 0, 67, 33
1, 368376, Control_c, 0, 67, 29
1, 368391, Control_c, 0, 67, 28
1, 368469, Note_on_c, 0, 46, 48
1, 368474, Note_on_c, 0, 67, 70
1, 368509, Control_c, 0, 64, 107
1, 368524, Control_c, 0, 64, 83
1, 368539, Control_c, 0, 64, 65
1, 368553, Control_c, 0, 64, 47
1, 368556, Note_off_c, 0, 63, 57
1, 368568, Control_c, 0, 64, 57
1, 368568, Control_c, 0, 67, 28
1, 368583, Control_c, 0, 64, 65
1, 368583, Control_c, 0, 67, 26
1, 368598, Control_c, 0, 64, 71
1, 368598, Control_c, 0, 67, 23
1, 368613, Control_c, 0, 64, 79
1, 368613, Control_c, 0, 67, 16
1, 368615, Note_off_c, 0, 51, 36
1, 368627, Control_c, 0, 64, 94
1, 368627, Control_c, 0, 67, 0
1, 368642, Control_c, 0, 64, 117
1, 368658, Control_c, 0, 64, 127
1, 368688, Note_off_c, 0, 46, 59
1, 368696, Note_on_c, 0, 49, 54
1, 368713, Note_off_c, 0, 67, 61
1, 368888, Note_off_c, 0, 49, 57
1, 368902, Control_c, 0, 64, 119
1, 368915, Note_on_c, 0, 44, 48
1, 368917, Control_c, 0, 64, 86
1, 368920, Note_on_c, 0, 68, 64
1, 368932, Control_c, 0, 64, 70
1, 368947, Control_c, 0, 64, 61
1, 368962, Control_c, 0, 64, 63
1, 368977, Control_c, 0, 64, 68
1, 368991, Control_c, 0, 64, 74
1, 369006, Control_c, 0, 64, 83
1, 369021, Control_c, 0, 64, 97
1, 369036, Control_c, 0, 64, 122
1, 369051, Control_c, 0, 64, 127
1, 369079, Note_off_c, 0, 68, 57
1, 369150, Note_off_c, 0, 44, 59
1, 369165, Note_on_c, 0, 47, 47
1, 369168, Note_on_c, 0, 70, 75
1, 369275, Note_off_c, 0, 70, 61
1, 369376, Control_c, 0, 64, 111
1, 369376, Note_on_c, 0, 40, 54
1, 369379, Note_on_c, 0, 71, 82
1, 369391, Control_c, 0, 64, 78
1, 369406, Control_c, 0, 64, 53
1, 369420, Control_c, 0, 64, 0
1, 369430, Note_off_c, 0, 47, 36
1, 369481, Control_c, 0, 64, 47
1, 369495, Control_c, 0, 64, 64
1, 369510, Control_c, 0, 64, 70
1, 369525, Control_c, 0, 64, 78
1, 369540, Control_c, 0, 64, 88
1, 369543, Note_off_c, 0, 71, 62
1, 369555, Control_c, 0, 64, 101
1, 369577, Control_c, 0, 64, 123
1, 369592, Control_c, 0, 64, 127
1, 369621, Note_on_c, 0, 73, 86
1, 369627, Note_on_c, 0, 44, 53
1, 369639, Note_off_c, 0, 40, 59
1, 369662, Note_off_c, 0, 44, 63
1, 369768, Note_off_c, 0, 73, 61
1, 369903, Note_on_c, 0, 39, 44
1, 369981, Note_on_c, 0, 68, 65
1, 370021, Control_c, 0, 64, 110
1, 370036, Control_c, 0, 64, 90
1, 370050, Control_c, 0, 64, 72
1, 370059, Note_on_c, 0, 75, 72
1, 370065, Control_c, 0, 64, 53
1, 370080, Control_c, 0, 64, 0
1, 370214, Control_c, 0, 64, 48
1, 370229, Control_c, 0, 64, 64
1, 370244, Control_c, 0, 64, 69
1, 370259, Control_c, 0, 64, 75
1, 370273, Control_c, 0, 64, 81
1, 370288, Control_c, 0, 64, 89
1, 370303, Control_c, 0, 64, 97
1, 370326, Control_c, 0, 64, 105
1, 370341, Control_c, 0, 64, 115
1, 370355, Control_c, 0, 64, 127
1, 370359, Note_on_c, 0, 48, 52
1, 370431, Note_off_c, 0, 39, 42
1, 370562, Note_off_c, 0, 48, 62
1, 370581, Note_on_c, 0, 51, 45
1, 370612, Note_off_c, 0, 51, 63
1, 370785, Note_on_c, 0, 60, 56
1, 370988, Note_on_c, 0, 63, 67
1, 371043, Note_off_c, 0, 60, 62
1, 371189, Note_on_c, 0, 60, 60
1, 371196, Note_off_c, 0, 63, 61
1, 371217, Note_off_c, 0, 60, 67
1, 371403, Note_on_c, 0, 72, 75
1, 371440, Note_on_c, 0, 51, 51
1, 371592, Note_on_c, 0, 48, 66
1, 371612, Note_off_c, 0, 68, 57
1, 371645, Note_off_c, 0, 51, 51
1, 371648, Note_off_c, 0, 72, 60
1, 371658, Note_off_c, 0, 75, 53
1, 371793, Note_on_c, 0, 39, 51
1, 371846, Note_on_c, 0, 69, 63
1, 371904, Note_off_c, 0, 48, 56
1, 371933, Note_on_c, 0, 75, 73
1, 371941, Control_c, 0, 64, 102
1, 371956, Control_c, 0, 64, 82
1, 371971, Control_c, 0, 64, 66
1, 371986, Control_c, 0, 64, 0
1, 372181, Note_on_c, 0, 48, 52
1, 372193, Control_c, 0, 64, 55
1, 372208, Control_c, 0, 64, 65
1, 372223, Control_c, 0, 64, 71
1, 372238, Control_c, 0, 64, 81
1, 372244, Note_off_c, 0, 39, 51
1, 372253, Control_c, 0, 64, 93
1, 372268, Control_c, 0, 64, 110
1, 372283, Control_c, 0, 64, 127
1, 372375, Note_off_c, 0, 48, 62
1, 372381, Note_on_c, 0, 51, 44
1, 372414, Note_off_c, 0, 51, 63
1, 372620, Note_on_c, 0, 60, 45
1, 372750, Control_c, 0, 64, 110
1, 372765, Control_c, 0, 64, 84
1, 372765, Control_c, 0, 67, 8
1, 372780, Control_c, 0, 64, 67
1, 372780, Control_c, 0, 67, 9
1, 372795, Control_c, 0, 64, 0
1, 372810, Control_c, 0, 67, 9
1, 372819, Note_on_c, 0, 63, 43
1, 372824, Control_c, 0, 67, 11
1, 372829, Note_off_c, 0, 60, 59
1, 372839, Control_c, 0, 64, 45
1, 372839, Control_c, 0, 67, 13
1, 372854, Control_c, 0, 64, 63
1, 372854, Control_c, 0, 67, 16
1, 372869, Control_c, 0, 64, 69
1, 372869, Control_c, 0, 67, 22
1, 372883, Control_c, 0, 64, 75
1, 372883, Control_c, 0, 67, 28
1, 372898, Control_c, 0, 64, 83
1, 372898, Control_c, 0, 67, 36
1, 372913, Control_c, 0, 64, 94
1, 372913, Control_c, 0, 67, 45
1, 372928, Control_c, 0, 64, 102
1, 372928, Control_c, 0, 67, 55
1, 372943, Control_c, 0, 64, 109
1, 372943, Control_c, 0, 67, 65
1, 372957, Control_c, 0, 64, 122
1, 372957, Control_c, 0, 67, 77
1, 372968, Note_off_c, 0, 69, 54
1, 372972, Control_c, 0, 64, 127
1, 372972, Control_c, 0, 67, 87
1, 372987, Control_c, 0, 67, 96
1, 373002, Control_c, 0, 67, 104
1, 373010, Note_off_c, 0, 63, 59
1, 373016, Control_c, 0, 67, 110
1, 373029, Note_on_c, 0, 61, 52
1, 373031, Control_c, 0, 67, 115
1, 373046, Control_c, 0, 67, 119
1, 373056, Note_off_c, 0, 61, 63
1, 373061, Control_c, 0, 67, 123
1, 373076, Control_c, 0, 67, 124
1, 373260, Note_on_c, 0, 70, 54
1, 373266, Note_on_c, 0, 67, 45
1, 373268, Control_c, 0, 64, 119
1, 373283, Control_c, 0, 64, 89
1, 373292, Note_on_c, 0, 51, 37
1, 373298, Control_c, 0, 64, 71
1, 373320, Control_c, 0, 64, 0
1, 373454, Control_c, 0, 64, 42
1, 373469, Control_c, 0, 64, 64
1, 373469, Control_c, 0, 67, 123
1, 373484, Control_c, 0, 64, 71
1, 373484, Control_c, 0, 67, 123
1, 373486, Note_off_c, 0, 75, 59
1, 373495, Note_off_c, 0, 70, 62
1, 373499, Control_c, 0, 64, 78
1, 373499, Control_c, 0, 67, 122
1, 373505, Note_on_c, 0, 49, 40
1, 373514, Control_c, 0, 64, 86
1, 373514, Control_c, 0, 67, 122
1, 373529, Control_c, 0, 64, 95
1, 373544, Control_c, 0, 64, 104
1, 373544, Control_c, 0, 67, 121
1, 373558, Control_c, 0, 64, 111
1, 373573, Control_c, 0, 64, 127
1, 373573, Control_c, 0, 67, 121
1, 373603, Control_c, 0, 67, 120
1, 373608, Note_off_c, 0, 51, 41
1, 373721, Control_c, 0, 67, 120
1, 373803, Note_on_c, 0, 72, 50
1, 373810, Control_c, 0, 64, 126
1, 373818, Note_on_c, 0, 44, 40
1, 373824, Note_off_c, 0, 49, 43
1, 373825, Control_c, 0, 64, 102
1, 373839, Note_on_c, 0, 68, 33
1, 373840, Control_c, 0, 64, 87
1, 373854, Control_c, 0, 64, 72
1, 373869, Control_c, 0, 64, 56
1, 373884, Control_c, 0, 64, 0
1, 373889, Note_off_c, 0, 67, 51
1, 374032, Control_c, 0, 67, 119
1, 374047, Control_c, 0, 64, 55
1, 374069, Control_c, 0, 64, 65
1, 374069, Control_c, 0, 67, 119
1, 374084, Control_c, 0, 64, 71
1, 374093, Note_off_c, 0, 44, 48
1, 374098, Control_c, 0, 64, 76
1, 374098, Control_c, 0, 67, 118
1, 374099, Note_on_c, 0, 51, 39
1, 374113, Control_c, 0, 64, 84
1, 374128, Control_c, 0, 64, 91
1, 374128, Control_c, 0, 67, 118
1, 374143, Control_c, 0, 64, 100
1, 374158, Control_c, 0, 64, 107
1, 374173, Control_c, 0, 64, 118
1, 374173, Control_c, 0, 67, 117
1, 374187, Control_c, 0, 64, 127
1, 374217, Control_c, 0, 67, 117
1, 374292, Control_c, 0, 67, 116
1, 374322, Note_on_c, 0, 56, 47
1, 374366, Control_c, 0, 67, 116
1, 374381, Note_off_c, 0, 51, 41
1, 374383, Note_off_c, 0, 68, 42
1, 374425, Control_c, 0, 67, 115
1, 374476, Note_off_c, 0, 56, 60
1, 374531, Note_on_c, 0, 60, 40
1, 374581, Note_off_c, 0, 60, 55
1, 374583, Note_off_c, 0, 72, 37
1, 374749, Note_on_c, 0, 63, 44
1, 374998, Note_on_c, 0, 68, 44
1, 375024, Note_off_c, 0, 63, 54
1, 375255, Note_on_c, 0, 75, 52
1, 375465, Note_on_c, 0, 72, 36
1, 375488, Note_off_c, 0, 68, 38
1, 375597, Control_c, 0, 67, 116
1, 375612, Control_c, 0, 67, 116
1, 375656, Control_c, 0, 67, 117
1, 375670, Control_c, 0, 67, 117
1, 375685, Control_c, 0, 67, 118
1, 375715, Control_c, 0, 67, 118
1, 375744, Control_c, 0, 64, 112
1, 375744, Control_c, 0, 67, 119
1, 375759, Control_c, 0, 64, 96
1, 375774, Control_c, 0, 64, 84
1, 375789, Control_c, 0, 64, 72
1, 375789, Control_c, 0, 67, 119
1, 375803, Control_c, 0, 64, 58
1, 375810, Note_on_c, 0, 80, 45
1, 375818, Control_c, 0, 64, 0
1, 375908, Control_c, 0, 64, 54
1, 375923, Control_c, 0, 64, 65
1, 375938, Control_c, 0, 64, 70
1, 375953, Control_c, 0, 64, 76
1, 375966, Note_off_c, 0, 75, 58
1, 375967, Note_off_c, 0, 72, 58
1, 375967, Control_c, 0, 64, 83
1, 375982, Control_c, 0, 64, 89
1, 375997, Control_c, 0, 64, 96
1, 376012, Control_c, 0, 64, 102
1, 376027, Control_c, 0, 64, 110
1, 376027, Control_c, 0, 67, 119
1, 376042, Control_c, 0, 64, 127
1, 376086, Control_c, 0, 67, 118
1, 376141, Note_on_c, 0, 72, 30
1, 376146, Note_on_c, 0, 75, 33
1, 376203, Note_off_c, 0, 72, 44
1, 376211, Note_off_c, 0, 75, 44
1, 376219, Control_c, 0, 67, 118
1, 376293, Control_c, 0, 67, 117
1, 376346, Control_c, 0, 67, 117
1, 376356, Note_on_c, 0, 72, 40
1, 376363, Note_on_c, 0, 75, 43
1, 376375, Control_c, 0, 67, 116
1, 376390, Control_c, 0, 67, 116
1, 376405, Control_c, 0, 67, 115
1, 376405, Note_off_c, 0, 72, 56
1, 376405, Note_off_c, 0, 75, 59
1, 376414, Note_off_c, 0, 80, 56
1, 376434, Control_c, 0, 67, 115
1, 376449, Control_c, 0, 67, 114
1, 376479, Control_c, 0, 67, 114
1, 376493, Control_c, 0, 67, 113
1, 376523, Control_c, 0, 67, 112
1, 376538, Control_c, 0, 67, 111
1, 376553, Note_on_c, 0, 80, 58
1, 376553, Control_c, 0, 67, 111
1, 376559, Note_on_c, 0, 72, 37
1, 376567, Control_c, 0, 67, 110
1, 376582, Control_c, 0, 67, 109
1, 376597, Control_c, 0, 67, 107
1, 376599, Note_off_c, 0, 72, 51
1, 376612, Control_c, 0, 67, 106
1, 376626, Control_c, 0, 67, 105
1, 376643, Control_c, 0, 67, 104
1, 376655, Poly_aftertouch_c, 0, 75, 0
1, 376658, Control_c, 0, 67, 103
1, 376672, Control_c, 0, 67, 103
1, 376687, Control_c, 0, 67, 102
1, 376761, Control_c, 0, 67, 103
1, 376776, Control_c, 0, 64, 122
1, 376790, Control_c, 0, 64, 91
1, 376797, Note_on_c, 0, 78, 62
1, 376805, Control_c, 0, 64, 70
1, 376805, Control_c, 0, 67, 103
1, 376819, Note_on_c, 0, 72, 28
1, 376820, Note_on_c, 0, 70, 41
1, 376820, Control_c, 0, 64, 29
1, 376834, Control_c, 0, 64, 0
1, 376867, Poly_aftertouch_c, 0, 75, 127
1, 376894, Control_c, 0, 64, 41
1, 376908, Poly_aftertouch_c, 0, 75, 0
1, 376909, Control_c, 0, 64, 64
1, 376915, Note_off_c, 0, 70, 57
1, 376924, Control_c, 0, 64, 69
1, 376925, Note_off_c, 0, 72, 44
1, 376939, Control_c, 0, 64, 74
1, 376954, Control_c, 0, 64, 81
1, 376969, Control_c, 0, 64, 89
1, 376983, Control_c, 0, 64, 97
1, 376998, Control_c, 0, 64, 109
1, 377013, Control_c, 0, 64, 127
1, 377028, Note_on_c, 0, 75, 36
1, 377040, Note_on_c, 0, 72, 35
1, 377076, Note_on_c, 0, 70, 13
1, 377094, Note_off_c, 0, 72, 46
1, 377119, Note_off_c, 0, 70, 40
1, 377153, Note_off_c, 0, 75, 42
1, 377183, Control_c, 0, 67, 103
1, 377237, Note_on_c, 0, 72, 36
1, 377237, Note_on_c, 0, 70, 36
1, 377249, Note_off_c, 0, 80, 39
1, 377276, Note_off_c, 0, 70, 62
1, 377282, Note_off_c, 0, 72, 47
1, 377295, Note_off_c, 0, 78, 55
1, 377310, Poly_aftertouch_c, 0, 75, 127
1, 377348, Poly_aftertouch_c, 0, 75, 0
1, 377460, Note_on_c, 0, 72, 41
1, 377461, Note_on_c, 0, 70, 40
1, 377463, Note_on_c, 0, 75, 38
1, 377463, Note_on_c, 0, 78, 56
1, 377488, Note_off_c, 0, 70, 58
1, 377488, Note_off_c, 0, 72, 59
1, 377517, Note_off_c, 0, 75, 45
1, 377569, Control_c, 0, 67, 103
1, 377628, Control_c, 0, 67, 104
1, 377672, Control_c, 0, 67, 104
1, 377717, Control_c, 0, 64, 96
1, 377730, Note_on_c, 0, 69, 40
1, 377732, Control_c, 0, 64, 78
1, 377732, Control_c, 0, 67, 105
1, 377734, Note_on_c, 0, 72, 34
1, 377734, Note_on_c, 0, 77, 53
1, 377747, Control_c, 0, 64, 61
1, 377753, Note_on_c, 0, 75, 34
1, 377762, Control_c, 0, 64, 0
1, 377828, Control_c, 0, 67, 105
1, 377841, Note_off_c, 0, 78, 34
1, 377845, Note_off_c, 0, 75, 36
1, 377872, Control_c, 0, 64, 61
1, 377887, Control_c, 0, 64, 67
1, 377902, Control_c, 0, 64, 72
1, 377917, Control_c, 0, 64, 77
1, 377922, Note_off_c, 0, 69, 58
1, 377922, Note_off_c, 0, 72, 56
1, 377932, Control_c, 0, 64, 83
1, 377946, Control_c, 0, 64, 89
1, 377961, Control_c, 0, 64, 95
1, 377976, Control_c, 0, 64, 101
1, 377991, Control_c, 0, 64, 109
1, 378006, Control_c, 0, 64, 127
1, 378050, Note_on_c, 0, 69, 38
1, 378063, Note_on_c, 0, 72, 31
1, 378082, Poly_aftertouch_c, 0, 75, 127
1, 378091, Note_off_c, 0, 69, 56
1, 378097, Note_off_c, 0, 72, 51
1, 378126, Poly_aftertouch_c, 0, 75, 0
1, 378241, Note_on_c, 0, 72, 31
1, 378247, Note_on_c, 0, 69, 37
1, 378251, Note_on_c, 0, 75, 33
1, 378307, Note_off_c, 0, 69, 52
1, 378310, Note_off_c, 0, 75, 45
1, 378316, Note_off_c, 0, 72, 43
1, 378460, Note_on_c, 0, 69, 36
1, 378472, Note_on_c, 0, 72, 17
1, 378485, Note_on_c, 0, 75, 26
1, 378503, Note_off_c, 0, 69, 60
1, 378509, Note_off_c, 0, 72, 52
1, 378531, Note_off_c, 0, 75, 49
1, 378607, Control_c, 0, 67, 106
1, 378621, Control_c, 0, 67, 106
1, 378636, Control_c, 0, 67, 107
1, 378651, Control_c, 0, 67, 107
1, 378666, Control_c, 0, 64, 105
1, 378666, Control_c, 0, 67, 108
1, 378681, Control_c, 0, 64, 82
1, 378681, Control_c, 0, 67, 108
1, 378695, Control_c, 0, 64, 65
1, 378696, Note_on_c, 0, 75, 31
1, 378701, Note_on_c, 0, 70, 39
1, 378710, Control_c, 0, 64, 0
1, 378710, Control_c, 0, 67, 109
1, 378715, Note_on_c, 0, 67, 38
1, 378740, Control_c, 0, 64, 42
1, 378755, Control_c, 0, 64, 60
1, 378764, Note_off_c, 0, 70, 56
1, 378769, Control_c, 0, 64, 67
1, 378784, Control_c, 0, 64, 72
1, 378791, Note_off_c, 0, 75, 42
1, 378793, Note_off_c, 0, 67, 48
1, 378799, Control_c, 0, 64, 80
1, 378814, Control_c, 0, 64, 88
1, 378829, Control_c, 0, 64, 96
1, 378844, Control_c, 0, 64, 104
1, 378844, Control_c, 0, 67, 108
1, 378858, Control_c, 0, 64, 117
1, 378873, Control_c, 0, 64, 127
1, 378905, Note_on_c, 0, 70, 38
1, 378906, Note_on_c, 0, 75, 42
1, 378913, Note_on_c, 0, 67, 34
1, 378963, Note_off_c, 0, 70, 55
1, 378992, Note_off_c, 0, 75, 49
1, 378994, Note_off_c, 0, 77, 58
1, 378999, Note_off_c, 0, 67, 50
1, 379118, Note_on_c, 0, 77, 63
1, 379126, Control_c, 0, 67, 107
1, 379145, Note_on_c, 0, 70, 23
1, 379161, Note_on_c, 0, 67, 26
1, 379171, Control_c, 0, 67, 107
1, 379183, Note_off_c, 0, 70, 52
1, 379198, Poly_aftertouch_c, 0, 75, 0
1, 379198, Note_off_c, 0, 67, 51
1, 379200, Control_c, 0, 67, 106
1, 379215, Control_c, 0, 67, 106
1, 379230, Control_c, 0, 67, 105
1, 379259, Control_c, 0, 67, 105
1, 379318, Note_on_c, 0, 67, 45
1, 379331, Note_on_c, 0, 70, 21
1, 379340, Note_on_c, 0, 75, 46
1, 379371, Note_off_c, 0, 70, 50
1, 379393, Note_off_c, 0, 67, 54
1, 379404, Note_off_c, 0, 77, 61
1, 379407, Note_off_c, 0, 75, 57
1, 379489, Control_c, 0, 67, 105
1, 379518, Control_c, 0, 67, 106
1, 379548, Control_c, 0, 67, 106
1, 379578, Control_c, 0, 64, 108
1, 379578, Control_c, 0, 67, 107
1, 379589, Note_on_c, 0, 69, 39
1, 379592, Control_c, 0, 64, 85
1, 379595, Note_on_c, 0, 77, 64
1, 379607, Control_c, 0, 64, 69
1, 379611, Note_on_c, 0, 65, 29
1, 379622, Control_c, 0, 64, 51
1, 379637, Control_c, 0, 64, 37
1, 379651, Control_c, 0, 64, 46
1, 379666, Control_c, 0, 64, 59
1, 379681, Control_c, 0, 64, 65
1, 379694, Note_off_c, 0, 65, 55
1, 379696, Control_c, 0, 64, 69
1, 379710, Note_off_c, 0, 69, 48
1, 379711, Control_c, 0, 64, 73
1, 379726, Control_c, 0, 64, 78
1, 379741, Control_c, 0, 64, 83
1, 379755, Control_c, 0, 64, 90
1, 379770, Control_c, 0, 64, 94
1, 379785, Control_c, 0, 64, 99
1, 379785, Control_c, 0, 67, 106
1, 379800, Control_c, 0, 64, 104
1, 379815, Control_c, 0, 64, 110
1, 379830, Control_c, 0, 64, 123
1, 379843, Note_on_c, 0, 65, 30
1, 379845, Control_c, 0, 64, 127
1, 379875, Control_c, 0, 67, 106
1, 379901, Note_off_c, 0, 65, 44
1, 379920, Control_c, 0, 67, 105
1, 379940, Poly_aftertouch_c, 0, 69, 0
1, 379964, Control_c, 0, 67, 105
1, 380008, Control_c, 0, 67, 104
1, 380119, Control_c, 0, 67, 104
1, 380144, Note_on_c, 0, 87, 69
1, 380146, Note_on_c, 0, 65, 29
1, 380150, Note_on_c, 0, 69, 24
1, 380216, Note_off_c, 0, 69, 49
1, 380218, Note_off_c, 0, 77, 60
1, 380221, Note_off_c, 0, 65, 44
1, 380391, Note_on_c, 0, 69, 24
1, 380397, Note_on_c, 0, 65, 32
1, 380413, Note_on_c, 0, 75, 54
1, 380464, Note_off_c, 0, 65, 47
1, 380472, Note_off_c, 0, 75, 59
1, 380474, Note_off_c, 0, 69, 47
1, 380477, Note_off_c, 0, 87, 63
1, 380593, Note_on_c, 0, 86, 76
1, 380608, Note_on_c, 0, 65, 34
1, 380617, Note_on_c, 0, 69, 37
1, 380627, Note_on_c, 0, 75, 6
1, 380651, Note_off_c, 0, 69, 51
1, 380662, Note_off_c, 0, 65, 49
1, 380680, Note_off_c, 0, 75, 52
1, 380791, Note_on_c, 0, 75, 52
1, 380810, Note_on_c, 0, 69, 30
1, 380811, Note_on_c, 0, 65, 34
1, 380856, Note_off_c, 0, 65, 50
1, 380857, Note_off_c, 0, 86, 60
1, 380862, Note_off_c, 0, 69, 53
1, 380883, Note_off_c, 0, 75, 43
1, 380897, Control_c, 0, 67, 104
1, 380992, Note_on_c, 0, 84, 79
1, 381005, Note_on_c, 0, 69, 39
1, 381022, Note_on_c, 0, 65, 35
1, 381056, Note_off_c, 0, 65, 52
1, 381056, Note_off_c, 0, 69, 57
1, 381196, Note_off_c, 0, 84, 61
1, 381204, Note_on_c, 0, 69, 39
1, 381207, Note_on_c, 0, 65, 37
1, 381209, Note_on_c, 0, 75, 55
1, 381248, Note_off_c, 0, 69, 60
1, 381249, Note_off_c, 0, 75, 59
1, 381252, Note_off_c, 0, 65, 55
1, 381342, Control_c, 0, 67, 105
1, 381356, Control_c, 0, 67, 105
1, 381371, Control_c, 0, 67, 106
1, 381386, Control_c, 0, 67, 106
1, 381401, Control_c, 0, 67, 107
1, 381416, Control_c, 0, 67, 107
1, 381431, Note_on_c, 0, 82, 73
1, 381431, Control_c, 0, 64, 102
1, 381441, Note_on_c, 0, 67, 45
1, 381446, Control_c, 0, 64, 79
1, 381446, Control_c, 0, 67, 108
1, 381449, Note_on_c, 0, 70, 38
1, 381461, Control_c, 0, 64, 49
1, 381461, Control_c, 0, 67, 108
1, 381464, Note_on_c, 0, 75, 36
1, 381476, Control_c, 0, 64, 0
1, 381502, Note_off_c, 0, 75, 50
1, 381506, Note_off_c, 0, 67, 53
1, 381530, Note_off_c, 0, 70, 54
1, 381535, Control_c, 0, 64, 36
1, 381558, Control_c, 0, 64, 62
1, 381573, Control_c, 0, 64, 68
1, 381587, Control_c, 0, 64, 73
1, 381602, Control_c, 0, 64, 79
1, 381617, Control_c, 0, 64, 85
1, 381617, Control_c, 0, 67, 108
1, 381631, Control_c, 0, 64, 92
1, 381631, Control_c, 0, 67, 107
1, 381646, Control_c, 0, 64, 98
1, 381655, Note_on_c, 0, 67, 39
1, 381657, Note_on_c, 0, 75, 37
1, 381661, Note_on_c, 0, 70, 37
1, 381661, Control_c, 0, 64, 104
1, 381661, Control_c, 0, 67, 107
1, 381676, Control_c, 0, 64, 111
1, 381691, Control_c, 0, 64, 127
1, 381705, Note_off_c, 0, 70, 46
1, 381720, Note_off_c, 0, 75, 43
1, 381720, Control_c, 0, 67, 106
1, 381724, Note_off_c, 0, 67, 46
1, 381765, Control_c, 0, 67, 106
1, 381795, Control_c, 0, 67, 105
1, 381824, Control_c, 0, 67, 105
1, 381866, Note_on_c, 0, 79, 70
1, 381869, Note_on_c, 0, 75, 45
1, 381875, Note_on_c, 0, 67, 38
1, 381884, Control_c, 0, 67, 104
1, 381903, Note_on_c, 0, 70, 28
1, 381915, Note_off_c, 0, 75, 56
1, 381935, Note_off_c, 0, 67, 55
1, 381947, Note_off_c, 0, 70, 48
1, 381973, Note_off_c, 0, 82, 53
1, 382084, Note_on_c, 0, 75, 33
1, 382087, Note_on_c, 0, 67, 38
1, 382118, Note_on_c, 0, 70, 3
1, 382120, Note_off_c, 0, 67, 58
1, 382131, Note_off_c, 0, 75, 48
1, 382155, Note_off_c, 0, 70, 38
1, 382194, Control_c, 0, 67, 105
1, 382209, Control_c, 0, 67, 105
1, 382224, Control_c, 0, 67, 106
1, 382239, Control_c, 0, 67, 106
1, 382254, Control_c, 0, 67, 107
1, 382269, Control_c, 0, 67, 108
1, 382284, Control_c, 0, 67, 109
1, 382306, Control_c, 0, 67, 109
1, 382311, Note_on_c, 0, 77, 56
1, 382320, Note_on_c, 0, 70, 33
1, 382321, Control_c, 0, 64, 86
1, 382321, Control_c, 0, 67, 110
1, 382335, Control_c, 0, 64, 68
1, 382335, Control_c, 0, 67, 110
1, 382340, Note_on_c, 0, 75, 42
1, 382349, Note_off_c, 0, 79, 48
1, 382350, Control_c, 0, 64, 37
1, 382365, Control_c, 0, 64, 23
1, 382365, Control_c, 0, 67, 111
1, 382380, Control_c, 0, 64, 47
1, 382391, Note_off_c, 0, 75, 45
1, 382395, Control_c, 0, 64, 61
1, 382405, Note_off_c, 0, 70, 55
1, 382409, Control_c, 0, 64, 66
1, 382424, Control_c, 0, 64, 73
1, 382439, Control_c, 0, 64, 80
1, 382453, Control_c, 0, 64, 90
1, 382468, Control_c, 0, 64, 102
1, 382483, Control_c, 0, 64, 117
1, 382498, Control_c, 0, 64, 127
1, 382528, Control_c, 0, 67, 110
1, 382540, Note_on_c, 0, 70, 44
1, 382541, Note_on_c, 0, 75, 35
1, 382582, Note_off_c, 0, 70, 60
1, 382595, Note_off_c, 0, 75, 45
1, 382691, Control_c, 0, 67, 111
1, 382721, Control_c, 0, 67, 111
1, 382735, Control_c, 0, 64, 112
1, 382735, Control_c, 0, 67, 112
1, 382750, Control_c, 0, 64, 87
1, 382750, Control_c, 0, 67, 112
1, 382765, Control_c, 0, 64, 72
1, 382765, Control_c, 0, 67, 113
1, 382766, Note_on_c, 0, 79, 50
1, 382769, Note_on_c, 0, 74, 36
1, 382776, Note_on_c, 0, 70, 28
1, 382779, Control_c, 0, 64, 64
1, 382779, Control_c, 0, 67, 113
1, 382794, Control_c, 0, 64, 66
1, 382794, Control_c, 0, 67, 114
1, 382796, Note_off_c, 0, 77, 51
1, 382809, Control_c, 0, 64, 71
1, 382809, Control_c, 0, 67, 115
1, 382824, Control_c, 0, 64, 77
1, 382824, Control_c, 0, 67, 117
1, 382826, Note_off_c, 0, 70, 46
1, 382839, Control_c, 0, 64, 86
1, 382839, Control_c, 0, 67, 120
1, 382850, Note_off_c, 0, 74, 57
1, 382853, Control_c, 0, 64, 96
1, 382853, Control_c, 0, 67, 123
1, 382868, Control_c, 0, 64, 108
1, 382868, Control_c, 0, 67, 127
1, 382883, Control_c, 0, 64, 127
1, 383017, Control_c, 0, 64, 98
1, 383023, Note_on_c, 0, 74, 36
1, 383032, Control_c, 0, 64, 73
1, 383041, Note_on_c, 0, 80, 49
1, 383044, Note_on_c, 0, 70, 29
1, 383044, Note_off_c, 0, 79, 56
1, 383047, Control_c, 0, 64, 0
1, 383106, Note_off_c, 0, 74, 40
1, 383125, Note_off_c, 0, 70, 58
1, 383129, Control_c, 0, 64, 62
1, 383144, Control_c, 0, 64, 72
1, 383158, Control_c, 0, 64, 83
1, 383173, Control_c, 0, 64, 109
1, 383188, Control_c, 0, 64, 127
1, 383197, Note_on_c, 0, 82, 68
1, 383202, Note_off_c, 0, 80, 56
1, 383203, Control_c, 0, 67, 125
1, 383217, Control_c, 0, 67, 120
1, 383232, Control_c, 0, 67, 115
1, 383247, Control_c, 0, 67, 108
1, 383258, Note_off_c, 0, 82, 62
1, 383262, Control_c, 0, 67, 101
1, 383276, Control_c, 0, 67, 94
1, 383291, Control_c, 0, 67, 87
1, 383306, Control_c, 0, 67, 81
1, 383321, Control_c, 0, 67, 76
1, 383336, Control_c, 0, 67, 70
1, 383351, Control_c, 0, 67, 68
1, 383366, Control_c, 0, 67, 67
1, 383381, Control_c, 0, 67, 66
1, 383410, Control_c, 0, 67, 67
1, 383425, Control_c, 0, 67, 67
1, 383440, Control_c, 0, 67, 68
1, 383455, Control_c, 0, 67, 68
1, 383470, Control_c, 0, 67, 69
1, 383479, Note_on_c, 0, 87, 66
1, 383484, Control_c, 0, 64, 107
1, 383484, Control_c, 0, 67, 69
1, 383499, Control_c, 0, 64, 83
1, 383502, Note_on_c, 0, 79, 36
1, 383512, Note_on_c, 0, 75, 26
1, 383514, Control_c, 0, 64, 65
1, 383529, Control_c, 0, 64, 0
1, 383529, Control_c, 0, 67, 70
1, 383617, Control_c, 0, 64, 49
1, 383632, Control_c, 0, 64, 64
1, 383647, Control_c, 0, 64, 71
1, 383662, Control_c, 0, 64, 77
1, 383667, Note_off_c, 0, 79, 43
1, 383676, Control_c, 0, 64, 85
1, 383679, Note_off_c, 0, 75, 45
1, 383691, Control_c, 0, 64, 94
1, 383691, Control_c, 0, 67, 69
1, 383706, Control_c, 0, 64, 105
1, 383721, Control_c, 0, 64, 124
1, 383736, Control_c, 0, 64, 127
1, 383750, Control_c, 0, 67, 69
1, 383795, Note_on_c, 0, 79, 46
1, 383795, Control_c, 0, 67, 68
1, 383796, Note_on_c, 0, 82, 44
1, 383854, Note_off_c, 0, 79, 57
1, 383860, Note_off_c, 0, 82, 45
1, 383878, Control_c, 0, 67, 68
1, 383994, Note_off_c, 0, 87, 60
1, 384000, Note_on_c, 0, 82, 45
1, 384008, Note_on_c, 0, 79, 43
1, 384048, Note_off_c, 0, 82, 47
1, 384054, Note_off_c, 0, 79, 50
1, 384100, Control_c, 0, 67, 67
1, 384159, Control_c, 0, 67, 67
1, 384174, Control_c, 0, 67, 66
1, 384202, Note_on_c, 0, 87, 70
1, 384207, Note_on_c, 0, 79, 36
1, 384209, Note_on_c, 0, 82, 43
1, 384218, Control_c, 0, 67, 66
1, 384233, Control_c, 0, 67, 65
1, 384263, Note_off_c, 0, 82, 53
1, 384263, Control_c, 0, 67, 65
1, 384278, Control_c, 0, 67, 64
1, 384278, Note_off_c, 0, 79, 42
1, 384293, Control_c, 0, 67, 61
1, 384307, Control_c, 0, 67, 57
1, 384322, Control_c, 0, 67, 54
1, 384337, Control_c, 0, 67, 50
1, 384351, Control_c, 0, 67, 47
1, 384366, Control_c, 0, 67, 43
1, 384381, Control_c, 0, 67, 40
1, 384396, Control_c, 0, 67, 36
1, 384411, Control_c, 0, 67, 33
1, 384425, Control_c, 0, 67, 30
1, 384438, Note_on_c, 0, 82, 38
1, 384440, Control_c, 0, 67, 26
1, 384442, Note_on_c, 0, 79, 38
1, 384442, Note_on_c, 0, 85, 69
1, 384455, Control_c, 0, 67, 23
1, 384470, Control_c, 0, 67, 20
1, 384485, Control_c, 0, 67, 17
1, 384499, Control_c, 0, 67, 15
1, 384514, Control_c, 0, 67, 12
1, 384515, Note_off_c, 0, 79, 55
1, 384529, Control_c, 0, 67, 9
1, 384543, Note_off_c, 0, 82, 38
1, 384544, Control_c, 0, 67, 0
1, 384667, Note_on_c, 0, 82, 46
1, 384669, Note_on_c, 0, 79, 42
1, 384714, Note_off_c, 0, 82, 48
1, 384718, Note_off_c, 0, 79, 45
1, 384817, Note_off_c, 0, 87, 25
1, 384836, Note_off_c, 0, 85, 59
1, 384879, Note_on_c, 0, 82, 42
1, 384896, Note_on_c, 0, 79, 39
1, 384905, Note_off_c, 0, 82, 56
1, 384925, Note_off_c, 0, 79, 56
1, 385056, Note_on_c, 0, 85, 62
1, 385070, Note_on_c, 0, 79, 41
1, 385096, Note_on_c, 0, 82, 50
1, 385124, Note_off_c, 0, 82, 59
1, 385125, Note_off_c, 0, 79, 55
1, 385368, Note_on_c, 0, 84, 48
1, 385387, Note_on_c, 0, 64, 55
1, 385389, Control_c, 0, 64, 98
1, 385404, Control_c, 0, 64, 83
1, 385411, Note_on_c, 0, 82, 16
1, 385419, Control_c, 0, 64, 70
1, 385434, Control_c, 0, 64, 50
1, 385446, Note_off_c, 0, 82, 47
1, 385449, Control_c, 0, 64, 0
1, 385539, Control_c, 0, 64, 46
1, 385553, Control_c, 0, 64, 63
1, 385568, Control_c, 0, 64, 67
1, 385583, Control_c, 0, 64, 70
1, 385592, Note_off_c, 0, 85, 36
1, 385598, Control_c, 0, 64, 75
1, 385610, Note_on_c, 0, 82, 35
1, 385612, Control_c, 0, 64, 81
1, 385621, Note_on_c, 0, 79, 24
1, 385627, Control_c, 0, 64, 87
1, 385642, Control_c, 0, 64, 95
1, 385657, Control_c, 0, 64, 101
1, 385670, Note_off_c, 0, 82, 51
1, 385672, Control_c, 0, 64, 107
1, 385679, Note_off_c, 0, 79, 44
1, 385686, Control_c, 0, 64, 115
1, 385701, Control_c, 0, 64, 127
1, 385797, Note_on_c, 0, 82, 45
1, 385811, Note_on_c, 0, 79, 30
1, 385829, Note_off_c, 0, 64, 61
1, 385840, Note_off_c, 0, 82, 50
1, 385858, Note_off_c, 0, 79, 47
1, 385998, Note_on_c, 0, 79, 35
1, 386007, Note_on_c, 0, 64, 55
1, 386008, Note_on_c, 0, 82, 39
1, 386036, Note_off_c, 0, 79, 51
1, 386041, Note_off_c, 0, 82, 54
1, 386197, Control_c, 0, 67, 8
1, 386212, Control_c, 0, 67, 8
1, 386227, Control_c, 0, 64, 118
1, 386227, Control_c, 0, 67, 9
1, 386242, Control_c, 0, 64, 89
1, 386243, Note_on_c, 0, 82, 49
1, 386244, Note_on_c, 0, 77, 39
1, 386257, Control_c, 0, 64, 70
1, 386257, Control_c, 0, 67, 9
1, 386259, Note_on_c, 0, 62, 55
1, 386272, Control_c, 0, 64, 0
1, 386302, Note_off_c, 0, 77, 45
1, 386302, Note_off_c, 0, 82, 48
1, 386354, Note_off_c, 0, 64, 62
1, 386361, Control_c, 0, 64, 17
1, 386376, Control_c, 0, 64, 62
1, 386391, Control_c, 0, 64, 69
1, 386406, Control_c, 0, 64, 77
1, 386421, Control_c, 0, 64, 86
1, 386421, Control_c, 0, 67, 9
1, 386435, Control_c, 0, 64, 97
1, 386435, Control_c, 0, 67, 8
1, 386450, Control_c, 0, 64, 111
1, 386450, Control_c, 0, 67, 8
1, 386451, Note_on_c, 0, 82, 48
1, 386451, Note_on_c, 0, 77, 53
1, 386465, Control_c, 0, 64, 127
1, 386465, Control_c, 0, 67, 0
1, 386529, Note_off_c, 0, 84, 62
1, 386531, Note_off_c, 0, 77, 57
1, 386534, Note_off_c, 0, 82, 59
1, 386600, Note_off_c, 0, 62, 61
1, 386649, Note_on_c, 0, 84, 74
1, 386680, Note_on_c, 0, 82, 35
1, 386698, Note_on_c, 0, 77, 12
1, 386710, Note_off_c, 0, 82, 52
1, 386745, Note_off_c, 0, 77, 39
1, 386851, Note_on_c, 0, 62, 53
1, 386851, Note_on_c, 0, 77, 52
1, 386856, Note_on_c, 0, 82, 53
1, 386904, Note_off_c, 0, 77, 58
1, 386922, Note_off_c, 0, 82, 63
1, 386928, Note_off_c, 0, 84, 63
1, 387101, Note_on_c, 0, 60, 52
1, 387107, Note_on_c, 0, 84, 70
1, 387110, Control_c, 0, 64, 117
1, 387125, Control_c, 0, 64, 87
1, 387136, Note_on_c, 0, 76, 42
1, 387137, Note_on_c, 0, 82, 51
1, 387139, Note_off_c, 0, 62, 58
1, 387139, Control_c, 0, 64, 67
1, 387154, Control_c, 0, 64, 0
1, 387201, Note_off_c, 0, 76, 57
1, 387220, Note_off_c, 0, 82, 39
1, 387229, Control_c, 0, 64, 46
1, 387243, Control_c, 0, 64, 65
1, 387258, Control_c, 0, 64, 73
1, 387273, Control_c, 0, 64, 81
1, 387288, Control_c, 0, 64, 93
1, 387303, Control_c, 0, 64, 110
1, 387318, Control_c, 0, 64, 127
1, 387320, Note_on_c, 0, 76, 36
1, 387320, Note_on_c, 0, 82, 43
1, 387335, Note_off_c, 0, 60, 63
1, 387335, Note_off_c, 0, 84, 59
1, 387351, Note_off_c, 0, 82, 58
1, 387354, Note_off_c, 0, 76, 53
1, 387411, Note_on_c, 0, 76, 49
1, 387452, Note_off_c, 0, 76, 60
1, 387469, Note_on_c, 0, 82, 63
1, 387496, Note_off_c, 0, 82, 66
1, 387687, Note_on_c, 0, 94, 75
1, 387692, Note_on_c, 0, 60, 42
1, 387788, Note_off_c, 0, 94, 65
1, 387906, Note_on_c, 0, 82, 65
1, 387920, Note_on_c, 0, 76, 42
1, 387935, Note_off_c, 0, 82, 65
1, 387950, Note_off_c, 0, 76, 55
1, 388002, Note_off_c, 0, 60, 34
1, 388016, Note_on_c, 0, 77, 63
1, 388052, Note_off_c, 0, 77, 60
1, 388060, Note_on_c, 0, 82, 71
1, 388087, Note_off_c, 0, 82, 67
1, 388126, Note_on_c, 0, 93, 91
1, 388126, Control_c, 0, 64, 97
1, 388133, Note_on_c, 0, 62, 56
1, 388140, Control_c, 0, 64, 82
1, 388155, Control_c, 0, 64, 74
1, 388170, Control_c, 0, 64, 71
1, 388185, Control_c, 0, 64, 73
1, 388199, Control_c, 0, 64, 77
1, 388201, Note_off_c, 0, 93, 61
1, 388214, Control_c, 0, 64, 86
1, 388229, Control_c, 0, 64, 98
1, 388244, Control_c, 0, 64, 127
1, 388334, Note_on_c, 0, 82, 71
1, 388336, Note_on_c, 0, 77, 60
1, 388363, Note_off_c, 0, 62, 60
1, 388363, Note_off_c, 0, 77, 66
1, 388365, Note_off_c, 0, 82, 60
1, 388534, Note_on_c, 0, 91, 85
1, 388541, Note_on_c, 0, 64, 55
1, 388548, Control_c, 0, 64, 105
1, 388555, Note_on_c, 0, 79, 54
1, 388562, Control_c, 0, 64, 83
1, 388563, Note_on_c, 0, 82, 43
1, 388577, Control_c, 0, 64, 68
1, 388591, Note_off_c, 0, 82, 57
1, 388592, Control_c, 0, 64, 51
1, 388606, Control_c, 0, 64, 55
1, 388622, Control_c, 0, 64, 63
1, 388627, Note_off_c, 0, 79, 60
1, 388638, Control_c, 0, 64, 68
1, 388653, Control_c, 0, 64, 75
1, 388668, Control_c, 0, 64, 84
1, 388672, Note_off_c, 0, 64, 63
1, 388683, Control_c, 0, 64, 99
1, 388697, Control_c, 0, 64, 127
1, 388755, Note_on_c, 0, 82, 59
1, 388770, Note_on_c, 0, 79, 38
1, 388774, Note_off_c, 0, 91, 60
1, 388801, Note_off_c, 0, 79, 56
1, 388819, Note_off_c, 0, 82, 61
1, 388955, Note_on_c, 0, 89, 75
1, 388962, Note_on_c, 0, 65, 52
1, 388979, Control_c, 0, 64, 116
1, 388989, Note_on_c, 0, 82, 38
1, 388991, Note_on_c, 0, 77, 38
1, 388994, Control_c, 0, 64, 88
1, 389008, Control_c, 0, 64, 70
1, 389023, Control_c, 0, 64, 32
1, 389023, Note_off_c, 0, 77, 54
1, 389023, Note_off_c, 0, 82, 51
1, 389045, Control_c, 0, 64, 0
1, 389104, Control_c, 0, 64, 46
1, 389119, Control_c, 0, 64, 63
1, 389134, Control_c, 0, 64, 68
1, 389149, Control_c, 0, 64, 74
1, 389163, Control_c, 0, 64, 83
1, 389172, Note_on_c, 0, 82, 44
1, 389178, Control_c, 0, 64, 93
1, 389193, Note_on_c, 0, 77, 20
1, 389193, Control_c, 0, 64, 106
1, 389197, Note_off_c, 0, 82, 60
1, 389208, Control_c, 0, 64, 127
1, 389232, Note_off_c, 0, 77, 52
1, 389405, Note_on_c, 0, 86, 72
1, 389406, Note_on_c, 0, 70, 56
1, 389538, Note_off_c, 0, 89, 40
1, 389581, Note_off_c, 0, 65, 50
1, 389602, Note_off_c, 0, 70, 62
1, 389630, Note_on_c, 0, 82, 45
1, 389652, Note_on_c, 0, 77, 28
1, 389676, Note_off_c, 0, 82, 52
1, 389696, Note_off_c, 0, 77, 51
1, 389930, Note_on_c, 0, 84, 49
1, 389965, Note_on_c, 0, 75, 56
1, 389966, Note_on_c, 0, 82, 41
1, 389971, Note_on_c, 0, 65, 47
1, 389971, Control_c, 0, 64, 114
1, 389986, Control_c, 0, 64, 90
1, 389998, Note_off_c, 0, 82, 53
1, 390001, Control_c, 0, 64, 74
1, 390016, Control_c, 0, 64, 52
1, 390031, Control_c, 0, 64, 0
1, 390075, Control_c, 0, 64, 32
1, 390090, Control_c, 0, 64, 56
1, 390105, Control_c, 0, 64, 64
1, 390119, Control_c, 0, 64, 69
1, 390124, Note_off_c, 0, 86, 51
1, 390134, Control_c, 0, 64, 74
1, 390149, Control_c, 0, 64, 80
1, 390157, Note_on_c, 0, 82, 31
1, 390163, Control_c, 0, 64, 87
1, 390169, Note_on_c, 0, 77, 22
1, 390178, Control_c, 0, 64, 95
1, 390193, Control_c, 0, 64, 103
1, 390208, Note_off_c, 0, 82, 47
1, 390208, Control_c, 0, 64, 116
1, 390224, Control_c, 0, 64, 127
1, 390246, Note_off_c, 0, 77, 43
1, 390374, Note_on_c, 0, 86, 64
1, 390390, Note_on_c, 0, 81, 26
1, 390424, Note_off_c, 0, 81, 46
1, 390424, Poly_aftertouch_c, 0, 77, 127
1, 390426, Note_off_c, 0, 84, 58
1, 390459, Poly_aftertouch_c, 0, 77, 0
1, 390488, Note_on_c, 0, 74, 71
1, 390587, Note_on_c, 0, 87, 77
1, 390628, Note_on_c, 0, 81, 28
1, 390664, Note_off_c, 0, 81, 45
1, 390667, Poly_aftertouch_c, 0, 77, 0
1, 390678, Note_off_c, 0, 75, 26
1, 390679, Note_on_c, 0, 72, 74
1, 390687, Note_off_c, 0, 86, 63
1, 390705, Note_off_c, 0, 74, 64
1, 390737, Note_off_c, 0, 65, 62
1, 390752, Note_off_c, 0, 72, 64
1, 390900, Note_on_c, 0, 86, 65
1, 390910, Note_on_c, 0, 65, 49
1, 390913, Control_c, 0, 64, 119
1, 390927, Control_c, 0, 64, 90
1, 390934, Note_on_c, 0, 77, 64
1, 390942, Control_c, 0, 64, 73
1, 390957, Control_c, 0, 64, 59
1, 390972, Control_c, 0, 64, 19
1, 391001, Control_c, 0, 64, 30
1, 391013, Note_off_c, 0, 87, 36
1, 391017, Control_c, 0, 64, 50
1, 391032, Control_c, 0, 64, 62
1, 391047, Control_c, 0, 64, 67
1, 391062, Control_c, 0, 64, 73
1, 391077, Control_c, 0, 64, 79
1, 391091, Control_c, 0, 64, 86
1, 391106, Control_c, 0, 64, 95
1, 391121, Control_c, 0, 64, 104
1, 391136, Control_c, 0, 64, 118
1, 391146, Note_on_c, 0, 82, 59
1, 391151, Control_c, 0, 64, 127
1, 391208, Note_off_c, 0, 77, 61
1, 391211, Note_off_c, 0, 82, 62
1, 391215, Note_off_c, 0, 86, 56
1, 391341, Note_on_c, 0, 82, 73
1, 391350, Note_on_c, 0, 74, 66
1, 391380, Note_on_c, 0, 77, 33
1, 391414, Note_off_c, 0, 77, 52
1, 391539, Note_on_c, 0, 77, 42
1, 391570, Note_off_c, 0, 74, 59
1, 391579, Note_off_c, 0, 77, 59
1, 391599, Note_off_c, 0, 82, 62
1, 391613, Note_off_c, 0, 65, 38
1, 391785, Note_on_c, 0, 65, 34
1, 391796, Note_on_c, 0, 72, 44
1, 391855, Control_c, 0, 64, 109
1, 391865, Note_on_c, 0, 87, 75
1, 391870, Control_c, 0, 64, 87
1, 391885, Control_c, 0, 64, 72
1, 391900, Control_c, 0, 64, 60
1, 391911, Note_on_c, 0, 82, 41
1, 391915, Control_c, 0, 64, 48
1, 391930, Control_c, 0, 64, 51
1, 391945, Control_c, 0, 64, 58
1, 391953, Note_off_c, 0, 82, 50
1, 391959, Control_c, 0, 64, 64
1, 391974, Control_c, 0, 64, 68
1, 391989, Control_c, 0, 64, 73
1, 392004, Control_c, 0, 64, 79
1, 392019, Control_c, 0, 64, 88
1, 392034, Control_c, 0, 64, 96
1, 392055, Control_c, 0, 64, 105
1, 392070, Control_c, 0, 64, 118
1, 392073, Note_on_c, 0, 82, 45
1, 392085, Control_c, 0, 64, 127
1, 392100, Note_on_c, 0, 77, 30
1, 392134, Note_off_c, 0, 82, 60
1, 392139, Note_off_c, 0, 77, 50
1, 392272, Note_on_c, 0, 74, 49
1, 392287, Note_on_c, 0, 77, 26
1, 392305, Note_on_c, 0, 81, 42
1, 392323, Note_off_c, 0, 72, 38
1, 392368, Note_off_c, 0, 81, 53
1, 392378, Note_off_c, 0, 77, 33
1, 392385, Note_on_c, 0, 86, 76
1, 392475, Note_on_c, 0, 81, 66
1, 392489, Note_on_c, 0, 75, 62
1, 392493, Note_on_c, 0, 77, 50
1, 392494, Note_off_c, 0, 74, 59
1, 392530, Note_off_c, 0, 75, 56
1, 392546, Note_off_c, 0, 87, 57
1, 392569, Note_off_c, 0, 65, 50
1, 392576, Note_on_c, 0, 84, 84
1, 392584, Note_off_c, 0, 86, 60
1, 392603, Note_off_c, 0, 81, 63
1, 392615, Note_off_c, 0, 77, 57
1, 392643, Note_off_c, 0, 84, 65
1, 392720, Note_on_c, 0, 73, 57
1, 392735, Note_on_c, 0, 65, 24
1, 392807, Note_on_c, 0, 89, 82
1, 392834, Control_c, 0, 64, 121
1, 392849, Control_c, 0, 64, 90
1, 392863, Control_c, 0, 64, 71
1, 392878, Control_c, 0, 64, 27
1, 392893, Control_c, 0, 64, 0
1, 392967, Control_c, 0, 64, 57
1, 392982, Control_c, 0, 64, 65
1, 392997, Control_c, 0, 64, 71
1, 393012, Control_c, 0, 64, 78
1, 393017, Note_on_c, 0, 82, 64
1, 393018, Note_on_c, 0, 77, 46
1, 393027, Control_c, 0, 64, 88
1, 393042, Control_c, 0, 64, 104
1, 393042, Note_off_c, 0, 82, 68
1, 393057, Control_c, 0, 64, 127
1, 393063, Note_off_c, 0, 77, 46
1, 393207, Note_on_c, 0, 85, 83
1, 393213, Note_on_c, 0, 70, 57
1, 393310, Note_off_c, 0, 73, 54
1, 393388, Note_off_c, 0, 70, 63
1, 393395, Note_off_c, 0, 65, 42
1, 393402, Note_on_c, 0, 82, 70
1, 393421, Note_off_c, 0, 89, 51
1, 393423, Note_on_c, 0, 77, 46
1, 393445, Note_off_c, 0, 85, 61
1, 393495, Note_off_c, 0, 77, 56
1, 393502, Note_off_c, 0, 82, 58
1, 393677, Note_on_c, 0, 84, 49
1, 393679, Note_on_c, 0, 65, 57
1, 393682, Note_on_c, 0, 75, 66
1, 393700, Control_c, 0, 64, 107
1, 393708, Note_on_c, 0, 82, 32
1, 393715, Control_c, 0, 64, 82
1, 393730, Control_c, 0, 64, 57
1, 393733, Note_off_c, 0, 82, 51
1, 393745, Control_c, 0, 64, 0
1, 393819, Control_c, 0, 64, 11
1, 393834, Control_c, 0, 64, 63
1, 393849, Control_c, 0, 64, 71
1, 393864, Control_c, 0, 64, 80
1, 393875, Note_on_c, 0, 82, 34
1, 393879, Control_c, 0, 64, 94
1, 393893, Control_c, 0, 64, 117
1, 393904, Note_on_c, 0, 77, 42
1, 393908, Control_c, 0, 64, 127
1, 393923, Note_off_c, 0, 82, 52
1, 393960, Note_off_c, 0, 77, 60
1, 394128, Note_on_c, 0, 85, 69
1, 394138, Note_on_c, 0, 77, 36
1, 394156, Note_on_c, 0, 81, 42
1, 394183, Note_off_c, 0, 81, 56
1, 394218, Note_off_c, 0, 77, 41
1, 394236, Note_off_c, 0, 84, 62
1, 394260, Note_on_c, 0, 73, 72
1, 394351, Note_on_c, 0, 77, 51
1, 394356, Note_on_c, 0, 87, 85
1, 394358, Note_on_c, 0, 81, 47
1, 394407, Note_off_c, 0, 81, 59
1, 394420, Note_off_c, 0, 85, 62
1, 394426, Note_off_c, 0, 77, 51
1, 394432, Note_on_c, 0, 72, 75
1, 394443, Note_off_c, 0, 75, 59
1, 394457, Note_off_c, 0, 73, 62
1, 394475, Note_off_c, 0, 65, 62
1, 394508, Note_off_c, 0, 72, 61
1, 394609, Note_on_c, 0, 65, 52
1, 394627, Control_c, 0, 64, 95
1, 394633, Note_on_c, 0, 73, 60
1, 394635, Note_on_c, 0, 85, 74
1, 394642, Control_c, 0, 64, 75
1, 394652, Note_on_c, 0, 80, 50
1, 394657, Control_c, 0, 64, 56
1, 394661, Note_on_c, 0, 77, 14
1, 394672, Control_c, 0, 64, 0
1, 394673, Note_off_c, 0, 80, 62
1, 394705, Note_off_c, 0, 77, 52
1, 394731, Control_c, 0, 64, 53
1, 394746, Control_c, 0, 64, 65
1, 394760, Control_c, 0, 64, 71
1, 394775, Control_c, 0, 64, 81
1, 394787, Note_off_c, 0, 87, 63
1, 394790, Control_c, 0, 64, 94
1, 394805, Control_c, 0, 64, 120
1, 394820, Control_c, 0, 64, 127
1, 394847, Note_on_c, 0, 80, 82
1, 394858, Note_off_c, 0, 73, 61
1, 394866, Note_on_c, 0, 77, 28
1, 394894, Note_off_c, 0, 85, 62
1, 394902, Note_off_c, 0, 77, 48
1, 394908, Note_off_c, 0, 80, 63
1, 395024, Note_on_c, 0, 84, 81
1, 395042, Note_on_c, 0, 68, 62
1, 395069, Note_off_c, 0, 65, 62
1, 395077, Note_on_c, 0, 73, 23
1, 395120, Note_off_c, 0, 73, 52
1, 395156, Note_off_c, 0, 68, 60
1, 395234, Note_on_c, 0, 82, 84
1, 395236, Note_on_c, 0, 73, 66
1, 395284, Note_off_c, 0, 73, 56
1, 395320, Note_off_c, 0, 84, 55
1, 395475, Note_on_c, 0, 79, 71
1, 395479, Control_c, 0, 64, 103
1, 395483, Note_on_c, 0, 70, 50
1, 395487, Note_on_c, 0, 73, 61
1, 395494, Control_c, 0, 64, 81
1, 395497, Note_on_c, 0, 63, 44
1, 395508, Control_c, 0, 64, 65
1, 395523, Control_c, 0, 64, 0
1, 395587, Note_off_c, 0, 73, 57
1, 395597, Control_c, 0, 64, 55
1, 395612, Control_c, 0, 64, 66
1, 395627, Control_c, 0, 64, 73
1, 395642, Control_c, 0, 64, 81
1, 395656, Control_c, 0, 64, 92
1, 395671, Control_c, 0, 64, 105
1, 395686, Note_off_c, 0, 82, 39
1, 395686, Control_c, 0, 64, 127
1, 395707, Note_on_c, 0, 73, 61
1, 395765, Note_off_c, 0, 73, 62
1, 395931, Note_on_c, 0, 80, 77
1, 395965, Note_on_c, 0, 73, 36
1, 396007, Note_off_c, 0, 73, 49
1, 396046, Note_on_c, 0, 68, 68
1, 396129, Note_on_c, 0, 82, 92
1, 396133, Note_off_c, 0, 79, 25
1, 396143, Note_on_c, 0, 73, 56
1, 396169, Note_off_c, 0, 80, 62
1, 396180, Note_off_c, 0, 73, 61
1, 396209, Note_on_c, 0, 67, 73
1, 396215, Note_off_c, 0, 70, 36
1, 396230, Note_off_c, 0, 68, 60
1, 396269, Note_off_c, 0, 63, 37
1, 396401, Poly_aftertouch_c, 0, 65, 127
1, 396410, Note_on_c, 0, 85, 80
1, 396415, Note_on_c, 0, 64, 56
1, 396420, Note_on_c, 0, 68, 57
1, 396422, Note_off_c, 0, 67, 53
1, 396435, Control_c, 0, 64, 107
1, 396440, Note_on_c, 0, 73, 48
1, 396450, Control_c, 0, 64, 85
1, 396465, Control_c, 0, 64, 67
1, 396479, Control_c, 0, 64, 0
1, 396482, Poly_aftertouch_c, 0, 65, 0
1, 396499, Note_off_c, 0, 82, 55
1, 396536, Note_off_c, 0, 73, 42
1, 396607, Control_c, 0, 64, 27
1, 396622, Control_c, 0, 64, 60
1, 396636, Control_c, 0, 64, 67
1, 396651, Control_c, 0, 64, 74
1, 396666, Control_c, 0, 64, 84
1, 396669, Note_on_c, 0, 73, 66
1, 396681, Control_c, 0, 64, 102
1, 396696, Control_c, 0, 64, 127
1, 396703, Note_off_c, 0, 68, 62
1, 396735, Note_off_c, 0, 73, 61
1, 396893, Note_on_c, 0, 80, 77
1, 396901, Note_on_c, 0, 73, 60
1, 396908, Note_on_c, 0, 68, 62
1, 396941, Note_off_c, 0, 73, 54
1, 397073, Note_off_c, 0, 64, 64
1, 397114, Note_on_c, 0, 73, 63
1, 397128, Note_off_c, 0, 85, 58
1, 397170, Note_off_c, 0, 73, 61
1, 397341, Note_on_c, 0, 79, 72
1, 397355, Control_c, 0, 64, 119
1, 397358, Note_on_c, 0, 73, 55
1, 397359, Note_on_c, 0, 70, 50
1, 397361, Note_on_c, 0, 63, 54
1, 397369, Control_c, 0, 64, 87
1, 397384, Control_c, 0, 64, 67
1, 397399, Control_c, 0, 64, 0
1, 397418, Note_off_c, 0, 80, 58
1, 397459, Note_off_c, 0, 73, 61
1, 397474, Control_c, 0, 64, 58
1, 397489, Control_c, 0, 64, 68
1, 397489, Note_off_c, 0, 68, 57
1, 397504, Control_c, 0, 64, 77
1, 397519, Control_c, 0, 64, 88
1, 397533, Control_c, 0, 64, 111
1, 397548, Control_c, 0, 64, 127
1, 397567, Note_on_c, 0, 73, 77
1, 397633, Note_off_c, 0, 73, 61
1, 397770, Note_on_c, 0, 80, 80
1, 397806, Note_on_c, 0, 73, 25
1, 397848, Note_off_c, 0, 73, 53
1, 397880, Note_off_c, 0, 79, 56
1, 397906, Note_on_c, 0, 68, 71
1, 397978, Note_on_c, 0, 82, 84
1, 398004, Note_on_c, 0, 73, 50
1, 398039, Note_off_c, 0, 80, 58
1, 398056, Note_off_c, 0, 73, 52
1, 398073, Note_off_c, 0, 70, 28
1, 398082, Note_on_c, 0, 67, 77
1, 398106, Note_off_c, 0, 68, 61
1, 398107, Note_on_c, 0, 65, 21
1, 398119, Note_off_c, 0, 63, 45
1, 398151, Note_off_c, 0, 65, 48
1, 398311, Note_on_c, 0, 85, 82
1, 398325, Note_on_c, 0, 65, 4
1, 398325, Note_on_c, 0, 68, 65
1, 398330, Note_on_c, 0, 73, 49
1, 398333, Note_on_c, 0, 64, 55
1, 398342, Control_c, 0, 64, 96
1, 398357, Control_c, 0, 64, 79
1, 398363, Note_off_c, 0, 67, 54
1, 398371, Control_c, 0, 64, 63
1, 398381, Note_off_c, 0, 65, 50
1, 398386, Control_c, 0, 64, 0
1, 398416, Note_off_c, 0, 82, 52
1, 398453, Note_off_c, 0, 73, 61
1, 398505, Control_c, 0, 64, 32
1, 398520, Control_c, 0, 64, 64
1, 398534, Control_c, 0, 64, 72
1, 398549, Control_c, 0, 64, 81
1, 398564, Control_c, 0, 64, 100
1, 398579, Control_c, 0, 64, 127
1, 398607, Note_on_c, 0, 73, 70
1, 398620, Note_off_c, 0, 68, 60
1, 398683, Note_off_c, 0, 73, 59
1, 398859, Note_on_c, 0, 80, 73
1, 398862, Note_on_c, 0, 73, 63
1, 398875, Note_on_c, 0, 68, 54
1, 398911, Note_off_c, 0, 73, 59
1, 399064, Note_off_c, 0, 64, 62
1, 399103, Note_off_c, 0, 85, 59
1, 399106, Note_on_c, 0, 73, 59
1, 399162, Note_off_c, 0, 73, 58
1, 399363, Note_on_c, 0, 79, 61
1, 399382, Note_on_c, 0, 73, 53
1, 399385, Note_on_c, 0, 70, 44
1, 399387, Control_c, 0, 64, 104
1, 399401, Note_on_c, 0, 63, 41
1, 399402, Control_c, 0, 64, 86
1, 399417, Control_c, 0, 64, 70
1, 399425, Note_off_c, 0, 80, 56
1, 399431, Control_c, 0, 64, 0
1, 399508, Note_off_c, 0, 68, 58
1, 399544, Note_off_c, 0, 73, 60
1, 399587, Control_c, 0, 64, 29
1, 399602, Control_c, 0, 64, 57
1, 399617, Control_c, 0, 64, 65
1, 399631, Control_c, 0, 64, 69
1, 399646, Control_c, 0, 64, 74
1, 399661, Control_c, 0, 64, 80
1, 399676, Control_c, 0, 64, 86
1, 399678, Note_on_c, 0, 73, 48
1, 399690, Control_c, 0, 64, 91
1, 399705, Control_c, 0, 64, 97
1, 399720, Control_c, 0, 64, 104
1, 399731, Note_off_c, 0, 73, 60
1, 399735, Control_c, 0, 64, 114
1, 399750, Control_c, 0, 64, 127
1, 399954, Note_on_c, 0, 80, 54
1, 399980, Note_on_c, 0, 73, 29
1, 400045, Note_off_c, 0, 73, 44
1, 400061, Note_off_c, 0, 79, 51
1, 400121, Note_on_c, 0, 68, 45
1, 400196, Note_off_c, 0, 70, 31
1, 400253, Note_on_c, 0, 82, 61
1, 400301, Note_off_c, 0, 63, 39
1, 400303, Note_off_c, 0, 80, 57
1, 400312, Note_off_c, 0, 68, 56
1, 400348, Note_on_c, 0, 67, 36
1, 400572, Note_off_c, 0, 67, 46
1, 400599, Note_on_c, 0, 85, 56
1, 400617, Control_c, 0, 64, 97
1, 400618, Note_on_c, 0, 64, 14
1, 400618, Note_on_c, 0, 68, 42
1, 400623, Note_on_c, 0, 73, 32
1, 400632, Control_c, 0, 64, 80
1, 400647, Control_c, 0, 64, 67
1, 400662, Control_c, 0, 64, 27
1, 400670, Note_off_c, 0, 82, 49
1, 400676, Control_c, 0, 64, 0
1, 400706, Control_c, 0, 64, 14
1, 400721, Control_c, 0, 64, 49
1, 400735, Control_c, 0, 64, 63
1, 400750, Control_c, 0, 64, 68
1, 400765, Control_c, 0, 64, 76
1, 400780, Control_c, 0, 64, 84
1, 400783, Note_off_c, 0, 73, 44
1, 400795, Control_c, 0, 64, 93
1, 400810, Control_c, 0, 64, 103
1, 400825, Control_c, 0, 64, 117
1, 400840, Control_c, 0, 64, 127
1, 400909, Note_off_c, 0, 68, 53
1, 400952, Note_on_c, 0, 73, 26
1, 401001, Note_off_c, 0, 73, 47
1, 401246, Note_on_c, 0, 80, 49
1, 401253, Note_on_c, 0, 73, 29
1, 401259, Note_on_c, 0, 68, 37
1, 401340, Note_off_c, 0, 73, 41
1, 401568, Note_off_c, 0, 64, 41
1, 401576, Note_off_c, 0, 85, 33
1, 401622, Note_on_c, 0, 73, 31
1, 401663, Control_c, 0, 67, 9
1, 401678, Control_c, 0, 67, 10
1, 401693, Control_c, 0, 67, 12
1, 401707, Control_c, 0, 67, 14
1, 401722, Control_c, 0, 67, 17
1, 401737, Control_c, 0, 67, 20
1, 401752, Control_c, 0, 67, 24
1, 401767, Control_c, 0, 67, 28
1, 401783, Note_off_c, 0, 73, 45
1, 401789, Control_c, 0, 67, 32
1, 401804, Control_c, 0, 67, 36
1, 401819, Control_c, 0, 67, 40
1, 401833, Control_c, 0, 67, 43
1, 401848, Control_c, 0, 67, 46
1, 401863, Control_c, 0, 67, 49
1, 401877, Control_c, 0, 67, 52
1, 401892, Control_c, 0, 67, 55
1, 401907, Control_c, 0, 67, 58
1, 401922, Control_c, 0, 67, 62
1, 401937, Control_c, 0, 67, 65
1, 401952, Control_c, 0, 67, 68
1, 401966, Control_c, 0, 67, 72
1, 401981, Control_c, 0, 67, 75
1, 401996, Control_c, 0, 67, 79
1, 402011, Control_c, 0, 67, 83
1, 402026, Control_c, 0, 67, 86
1, 402041, Control_c, 0, 67, 90
1, 402056, Control_c, 0, 67, 93
1, 402070, Control_c, 0, 67, 96
1, 402085, Control_c, 0, 67, 99
1, 402100, Control_c, 0, 67, 103
1, 402115, Control_c, 0, 67, 106
1, 402130, Control_c, 0, 67, 109
1, 402144, Control_c, 0, 67, 111
1, 402159, Control_c, 0, 67, 114
1, 402174, Control_c, 0, 67, 116
1, 402189, Control_c, 0, 67, 119
1, 402205, Control_c, 0, 67, 122
1, 402220, Control_c, 0, 67, 124
1, 402235, Control_c, 0, 67, 126
1, 402249, Control_c, 0, 67, 127
1, 402269, Note_on_c, 0, 79, 41
1, 402280, Note_on_c, 0, 70, 31
1, 402285, Note_on_c, 0, 63, 31
1, 402291, Note_on_c, 0, 73, 35
1, 402294, Control_c, 0, 64, 111
1, 402308, Control_c, 0, 64, 101
1, 402323, Control_c, 0, 64, 93
1, 402338, Control_c, 0, 64, 85
1, 402353, Control_c, 0, 64, 78
1, 402368, Control_c, 0, 64, 70
1, 402382, Control_c, 0, 64, 63
1, 402397, Control_c, 0, 64, 56
1, 402402, Note_off_c, 0, 80, 29
1, 402412, Control_c, 0, 64, 54
1, 402427, Control_c, 0, 64, 52
1, 402432, Note_off_c, 0, 68, 36
1, 402442, Control_c, 0, 64, 50
1, 402456, Control_c, 0, 64, 47
1, 402471, Control_c, 0, 64, 45
1, 402582, Control_c, 0, 64, 47
1, 402597, Control_c, 0, 64, 51
1, 402612, Control_c, 0, 64, 54
1, 402627, Control_c, 0, 64, 56
1, 402642, Control_c, 0, 64, 59
1, 402656, Control_c, 0, 64, 61
1, 402671, Control_c, 0, 64, 63
1, 402686, Control_c, 0, 64, 64
1, 402700, Control_c, 0, 64, 66
1, 402715, Control_c, 0, 64, 68
1, 402730, Control_c, 0, 64, 69
1, 402745, Control_c, 0, 64, 71
1, 402760, Control_c, 0, 64, 73
1, 402774, Control_c, 0, 64, 76
1, 402789, Control_c, 0, 64, 79
1, 402804, Control_c, 0, 64, 82
1, 402819, Control_c, 0, 64, 84
1, 402834, Control_c, 0, 64, 87
1, 402849, Control_c, 0, 64, 90
1, 402864, Control_c, 0, 64, 93
1, 402879, Control_c, 0, 64, 96
1, 402894, Control_c, 0, 64, 100
1, 402908, Control_c, 0, 64, 104
1, 402923, Control_c, 0, 64, 109
1, 402938, Control_c, 0, 64, 115
1, 402953, Control_c, 0, 64, 127
1, 403397, Note_off_c, 0, 73, 45
1, 403436, Note_off_c, 0, 70, 40
1, 403667, Note_off_c, 0, 63, 38
1, 403689, Note_off_c, 0, 79, 38
1, 404406, Control_c, 0, 64, 116
1, 404417, Note_on_c, 0, 87, 54
1, 404420, Control_c, 0, 64, 105
1, 404435, Control_c, 0, 64, 96
1, 404437, Note_on_c, 0, 75, 28
1, 404450, Control_c, 0, 64, 87
1, 404465, Control_c, 0, 64, 76
1, 404479, Control_c, 0, 64, 66
1, 404494, Control_c, 0, 64, 57
1, 404509, Control_c, 0, 64, 53
1, 404524, Control_c, 0, 64, 53
1, 404539, Control_c, 0, 64, 55
1, 404554, Control_c, 0, 64, 58
1, 404569, Control_c, 0, 64, 62
1, 404584, Control_c, 0, 64, 65
1, 404599, Control_c, 0, 64, 67
1, 404614, Control_c, 0, 64, 71
1, 404629, Control_c, 0, 64, 74
1, 404643, Control_c, 0, 64, 78
1, 404658, Control_c, 0, 64, 83
1, 404673, Control_c, 0, 64, 88
1, 404688, Control_c, 0, 64, 93
1, 404703, Control_c, 0, 64, 98
1, 404718, Control_c, 0, 64, 103
1, 404733, Control_c, 0, 64, 109
1, 404738, Note_off_c, 0, 87, 48
1, 404748, Control_c, 0, 64, 118
1, 404769, Control_c, 0, 64, 127
1, 404774, Note_on_c, 0, 79, 41
1, 404825, Note_off_c, 0, 75, 45
1, 404982, Note_on_c, 0, 27, 28
1, 405004, Note_on_c, 0, 39, 16
1, 405080, Note_off_c, 0, 79, 36
1, 405087, Note_on_c, 0, 84, 59
1, 405122, Note_on_c, 0, 80, 15
1, 405237, Note_off_c, 0, 80, 29
1, 405332, Note_on_c, 0, 76, 43
1, 405508, Note_off_c, 0, 76, 61
1, 405512, Note_on_c, 0, 80, 63
1, 405541, Note_off_c, 0, 84, 55
1, 405558, Note_on_c, 0, 77, 51
1, 405652, Control_c, 0, 67, 127
1, 405667, Control_c, 0, 67, 125
1, 405681, Control_c, 0, 67, 123
1, 405696, Control_c, 0, 67, 121
1, 405703, Note_off_c, 0, 77, 62
1, 405711, Control_c, 0, 67, 118
1, 405725, Control_c, 0, 67, 116
1, 405740, Control_c, 0, 67, 115
1, 405748, Note_on_c, 0, 72, 47
1, 405755, Control_c, 0, 67, 113
1, 405770, Control_c, 0, 67, 113
1, 405815, Control_c, 0, 67, 113
1, 405830, Control_c, 0, 67, 114
1, 405844, Control_c, 0, 67, 114
1, 405859, Control_c, 0, 67, 115
1, 405874, Control_c, 0, 67, 116
1, 405889, Control_c, 0, 67, 117
1, 405904, Control_c, 0, 67, 118
1, 405918, Control_c, 0, 67, 119
1, 405932, Note_off_c, 0, 72, 48
1, 405933, Control_c, 0, 67, 119
1, 405947, Note_on_c, 0, 77, 66
1, 405955, Note_on_c, 0, 73, 44
1, 405963, Control_c, 0, 64, 121
1, 405963, Control_c, 0, 67, 120
1, 405978, Control_c, 0, 64, 92
1, 405992, Control_c, 0, 64, 74
1, 406007, Control_c, 0, 64, 64
1, 406022, Control_c, 0, 64, 61
1, 406037, Control_c, 0, 64, 64
1, 406051, Control_c, 0, 64, 66
1, 406066, Control_c, 0, 64, 70
1, 406066, Control_c, 0, 67, 119
1, 406081, Control_c, 0, 64, 76
1, 406081, Control_c, 0, 67, 119
1, 406096, Control_c, 0, 64, 85
1, 406107, Note_off_c, 0, 80, 57
1, 406111, Control_c, 0, 64, 96
1, 406111, Control_c, 0, 67, 118
1, 406125, Control_c, 0, 64, 111
1, 406137, Note_off_c, 0, 77, 60
1, 406140, Control_c, 0, 64, 127
1, 406155, Control_c, 0, 67, 118
1, 406163, Note_off_c, 0, 73, 61
1, 406190, Note_on_c, 0, 69, 44
1, 406312, Control_c, 0, 67, 118
1, 406327, Control_c, 0, 67, 119
1, 406342, Control_c, 0, 67, 119
1, 406371, Control_c, 0, 67, 120
1, 406390, Note_off_c, 0, 69, 59
1, 406394, Note_on_c, 0, 73, 66
1, 406401, Control_c, 0, 64, 119
1, 406401, Control_c, 0, 67, 121
1, 406416, Control_c, 0, 64, 94
1, 406419, Note_on_c, 0, 70, 49
1, 406430, Control_c, 0, 64, 80
1, 406445, Control_c, 0, 64, 69
1, 406460, Control_c, 0, 64, 62
1, 406474, Control_c, 0, 64, 60
1, 406489, Control_c, 0, 64, 63
1, 406504, Control_c, 0, 64, 65
1, 406519, Control_c, 0, 64, 69
1, 406534, Control_c, 0, 64, 74
1, 406543, Note_off_c, 0, 70, 62
1, 406548, Control_c, 0, 64, 81
1, 406563, Control_c, 0, 64, 92
1, 406578, Control_c, 0, 64, 103
1, 406578, Control_c, 0, 67, 120
1, 406593, Note_on_c, 0, 65, 43
1, 406593, Control_c, 0, 64, 116
1, 406608, Control_c, 0, 64, 127
1, 406623, Control_c, 0, 67, 120
1, 406727, Control_c, 0, 67, 120
1, 406741, Control_c, 0, 67, 121
1, 406756, Control_c, 0, 67, 121
1, 406757, Note_off_c, 0, 65, 57
1, 406771, Control_c, 0, 67, 122
1, 406786, Control_c, 0, 67, 122
1, 406794, Note_on_c, 0, 67, 42
1, 406801, Control_c, 0, 67, 123
1, 406814, Note_on_c, 0, 70, 56
1, 406815, Control_c, 0, 64, 109
1, 406830, Control_c, 0, 64, 85
1, 406830, Control_c, 0, 67, 123
1, 406845, Control_c, 0, 64, 65
1, 406860, Control_c, 0, 64, 0
1, 406860, Control_c, 0, 67, 124
1, 406874, Control_c, 0, 67, 124
1, 406904, Control_c, 0, 67, 125
1, 406919, Control_c, 0, 67, 125
1, 406927, Note_off_c, 0, 73, 39
1, 406934, Control_c, 0, 64, 56
1, 406934, Control_c, 0, 67, 126
1, 406948, Control_c, 0, 64, 66
1, 406963, Control_c, 0, 64, 72
1, 406963, Control_c, 0, 67, 127
1, 406978, Control_c, 0, 64, 80
1, 406978, Control_c, 0, 67, 127
1, 406994, Control_c, 0, 64, 90
1, 407009, Control_c, 0, 64, 100
1, 407031, Control_c, 0, 64, 111
1, 407037, Note_on_c, 0, 63, 39
1, 407046, Control_c, 0, 64, 127
1, 407055, Note_off_c, 0, 67, 52
1, 407069, Note_off_c, 0, 63, 54
1, 407085, Note_off_c, 0, 70, 59
1, 407258, Note_on_c, 0, 72, 49
1, 407272, Note_on_c, 0, 69, 43
1, 407289, Note_off_c, 0, 72, 64
1, 407322, Note_on_c, 0, 73, 61
1, 407327, Control_c, 0, 67, 127
1, 407342, Control_c, 0, 67, 126
1, 407356, Control_c, 0, 67, 125
1, 407365, Note_off_c, 0, 73, 59
1, 407371, Control_c, 0, 67, 125
1, 407380, Note_on_c, 0, 72, 56
1, 407386, Control_c, 0, 67, 124
1, 407401, Control_c, 0, 67, 124
1, 407407, Note_off_c, 0, 72, 62
1, 407408, Note_off_c, 0, 69, 61
1, 407416, Control_c, 0, 67, 123
1, 407427, Note_on_c, 0, 73, 64
1, 407445, Control_c, 0, 67, 122
1, 407506, Note_on_c, 0, 72, 58
1, 407546, Note_off_c, 0, 73, 39
1, 407566, Note_off_c, 0, 72, 62
1, 407587, Note_on_c, 0, 63, 37
1, 407590, Note_on_c, 0, 70, 57
1, 407608, Control_c, 0, 67, 123
1, 407623, Note_off_c, 0, 63, 51
1, 407636, Note_off_c, 0, 70, 61
1, 407664, Note_on_c, 0, 72, 54
1, 407681, Control_c, 0, 67, 123
1, 407726, Control_c, 0, 67, 124
1, 407741, Control_c, 0, 67, 124
1, 407763, Control_c, 0, 67, 125
1, 407778, Control_c, 0, 67, 125
1, 407794, Control_c, 0, 64, 102
1, 407794, Control_c, 0, 67, 126
1, 407805, Note_on_c, 0, 73, 56
1, 407808, Note_off_c, 0, 72, 55
1, 407809, Control_c, 0, 64, 87
1, 407809, Control_c, 0, 67, 126
1, 407810, Note_on_c, 0, 70, 37
1, 407824, Control_c, 0, 64, 75
1, 407824, Control_c, 0, 67, 127
1, 407839, Control_c, 0, 64, 63
1, 407854, Control_c, 0, 64, 0
1, 408045, Note_off_c, 0, 70, 61
1, 408046, Control_c, 0, 64, 54
1, 408061, Control_c, 0, 64, 65
1, 408075, Control_c, 0, 64, 71
1, 408084, Note_on_c, 0, 63, 40
1, 408090, Control_c, 0, 64, 79
1, 408093, Note_off_c, 0, 73, 58
1, 408105, Control_c, 0, 64, 88
1, 408119, Control_c, 0, 64, 99
1, 408134, Control_c, 0, 64, 112
1, 408149, Control_c, 0, 64, 127
1, 408193, Note_off_c, 0, 63, 38
1, 408312, Note_on_c, 0, 67, 42
1, 408312, Note_on_c, 0, 70, 59
1, 408386, Control_c, 0, 67, 127
1, 408401, Control_c, 0, 67, 126
1, 408416, Control_c, 0, 67, 125
1, 408431, Control_c, 0, 67, 124
1, 408445, Control_c, 0, 67, 123
1, 408460, Control_c, 0, 67, 121
1, 408468, Note_off_c, 0, 67, 57
1, 408475, Control_c, 0, 67, 120
1, 408490, Control_c, 0, 67, 118
1, 408512, Control_c, 0, 67, 115
1, 408516, Note_on_c, 0, 63, 47
1, 408527, Control_c, 0, 67, 113
1, 408542, Control_c, 0, 67, 110
1, 408557, Control_c, 0, 67, 107
1, 408572, Control_c, 0, 67, 105
1, 408587, Control_c, 0, 67, 104
1, 408592, Note_off_c, 0, 63, 45
1, 408602, Control_c, 0, 67, 102
1, 408617, Control_c, 0, 67, 102
1, 408676, Control_c, 0, 67, 102
1, 408691, Control_c, 0, 67, 103
1, 408706, Control_c, 0, 67, 104
1, 408721, Control_c, 0, 67, 104
1, 408736, Control_c, 0, 67, 105
1, 408750, Control_c, 0, 67, 105
1, 408758, Note_on_c, 0, 72, 67
1, 408765, Control_c, 0, 67, 106
1, 408787, Note_on_c, 0, 68, 44
1, 408795, Control_c, 0, 64, 107
1, 408795, Control_c, 0, 67, 106
1, 408810, Control_c, 0, 64, 87
1, 408811, Note_off_c, 0, 70, 56
1, 408824, Control_c, 0, 64, 71
1, 408839, Control_c, 0, 64, 38
1, 408854, Control_c, 0, 64, 0
1, 408883, Control_c, 0, 67, 106
1, 408898, Control_c, 0, 64, 37
1, 408898, Control_c, 0, 67, 105
1, 408913, Control_c, 0, 64, 59
1, 408913, Control_c, 0, 67, 104
1, 408928, Control_c, 0, 64, 66
1, 408928, Control_c, 0, 67, 103
1, 408942, Control_c, 0, 64, 71
1, 408942, Control_c, 0, 67, 102
1, 408957, Control_c, 0, 64, 78
1, 408957, Control_c, 0, 67, 102
1, 408972, Control_c, 0, 64, 87
1, 408972, Control_c, 0, 67, 101
1, 408987, Control_c, 0, 64, 97
1, 408987, Control_c, 0, 67, 100
1, 408993, Note_on_c, 0, 70, 46
1, 409002, Control_c, 0, 64, 109
1, 409002, Control_c, 0, 67, 100
1, 409007, Note_off_c, 0, 68, 38
1, 409016, Control_c, 0, 64, 127
1, 409016, Control_c, 0, 67, 96
1, 409031, Control_c, 0, 67, 90
1, 409046, Control_c, 0, 67, 84
1, 409061, Control_c, 0, 67, 78
1, 409076, Control_c, 0, 67, 71
1, 409091, Control_c, 0, 67, 67
1, 409106, Control_c, 0, 67, 64
1, 409121, Control_c, 0, 67, 62
1, 409135, Control_c, 0, 67, 61
1, 409180, Note_on_c, 0, 75, 67
1, 409189, Note_on_c, 0, 67, 48
1, 409209, Note_off_c, 0, 70, 61
1, 409239, Control_c, 0, 64, 121
1, 409239, Control_c, 0, 67, 62
1, 409245, Note_off_c, 0, 72, 59
1, 409254, Control_c, 0, 64, 91
1, 409276, Control_c, 0, 64, 75
1, 409276, Control_c, 0, 67, 62
1, 409291, Control_c, 0, 64, 63
1, 409291, Control_c, 0, 67, 63
1, 409305, Control_c, 0, 64, 46
1, 409305, Control_c, 0, 67, 63
1, 409311, Note_off_c, 0, 67, 58
1, 409320, Control_c, 0, 64, 47
1, 409335, Control_c, 0, 64, 56
1, 409350, Control_c, 0, 64, 63
1, 409365, Control_c, 0, 64, 67
1, 409380, Control_c, 0, 64, 72
1, 409395, Control_c, 0, 64, 79
1, 409410, Control_c, 0, 64, 89
1, 409422, Note_on_c, 0, 70, 42
1, 409425, Control_c, 0, 64, 99
1, 409440, Control_c, 0, 64, 111
1, 409454, Note_off_c, 0, 75, 61
1, 409454, Control_c, 0, 64, 127
1, 409466, Note_off_c, 0, 70, 63
1, 409504, Note_on_c, 0, 65, 48
1, 409529, Note_off_c, 0, 65, 59
1, 409648, Note_on_c, 0, 80, 73
1, 409736, Control_c, 0, 67, 63
1, 409751, Control_c, 0, 67, 62
1, 409795, Control_c, 0, 67, 62
1, 409865, Note_on_c, 0, 73, 50
1, 409898, Note_off_c, 0, 73, 63
1, 409914, Control_c, 0, 67, 62
1, 409925, Note_off_c, 0, 80, 62
1, 409943, Control_c, 0, 67, 63
1, 409958, Control_c, 0, 67, 63
1, 409973, Control_c, 0, 67, 64
1, 409988, Control_c, 0, 67, 64
1, 410003, Control_c, 0, 67, 65
1, 410024, Control_c, 0, 67, 65
1, 410039, Control_c, 0, 67, 66
1, 410054, Control_c, 0, 67, 67
1, 410069, Control_c, 0, 67, 68
1, 410084, Control_c, 0, 67, 69
1, 410092, Note_on_c, 0, 82, 79
1, 410098, Control_c, 0, 67, 70
1, 410113, Control_c, 0, 67, 71
1, 410118, Note_on_c, 0, 74, 50
1, 410128, Control_c, 0, 64, 96
1, 410128, Control_c, 0, 67, 72
1, 410143, Control_c, 0, 64, 78
1, 410143, Control_c, 0, 67, 73
1, 410158, Control_c, 0, 64, 66
1, 410158, Control_c, 0, 67, 73
1, 410173, Control_c, 0, 64, 60
1, 410173, Control_c, 0, 67, 74
1, 410188, Control_c, 0, 64, 63
1, 410188, Control_c, 0, 67, 75
1, 410203, Control_c, 0, 64, 66
1, 410203, Control_c, 0, 67, 76
1, 410218, Control_c, 0, 64, 71
1, 410218, Control_c, 0, 67, 79
1, 410219, Note_off_c, 0, 82, 63
1, 410233, Control_c, 0, 64, 78
1, 410233, Control_c, 0, 67, 83
1, 410241, Note_off_c, 0, 74, 64
1, 410248, Control_c, 0, 64, 87
1, 410248, Control_c, 0, 67, 87
1, 410262, Control_c, 0, 64, 100
1, 410262, Control_c, 0, 67, 91
1, 410277, Control_c, 0, 64, 116
1, 410277, Control_c, 0, 67, 97
1, 410292, Control_c, 0, 64, 127
1, 410292, Control_c, 0, 67, 102
1, 410307, Control_c, 0, 67, 107
1, 410322, Control_c, 0, 67, 112
1, 410337, Control_c, 0, 67, 118
1, 410352, Note_on_c, 0, 64, 45
1, 410352, Control_c, 0, 67, 124
1, 410367, Control_c, 0, 67, 127
1, 410381, Note_off_c, 0, 64, 61
1, 410603, Control_c, 0, 64, 92
1, 410618, Control_c, 0, 64, 74
1, 410620, Note_on_c, 0, 63, 46
1, 410632, Control_c, 0, 64, 58
1, 410647, Control_c, 0, 64, 38
1, 410662, Control_c, 0, 64, 54
1, 410677, Control_c, 0, 64, 64
1, 410692, Control_c, 0, 64, 69
1, 410701, Note_off_c, 0, 63, 61
1, 410706, Control_c, 0, 64, 77
1, 410721, Note_on_c, 0, 75, 50
1, 410721, Control_c, 0, 64, 87
1, 410736, Control_c, 0, 64, 104
1, 410751, Control_c, 0, 64, 127
1, 410766, Note_off_c, 0, 75, 63
1, 410927, Note_on_c, 0, 87, 73
1, 410990, Note_off_c, 0, 87, 62
1, 411311, Note_on_c, 0, 67, 41
1, 411547, Note_on_c, 0, 70, 49
1, 411636, Note_off_c, 0, 67, 36
1, 411732, Note_off_c, 0, 70, 61
1, 411747, Note_on_c, 0, 75, 48
1, 411786, Note_off_c, 0, 75, 60
1, 411960, Note_on_c, 0, 79, 47
1, 411982, Note_off_c, 0, 27, 44
1, 412078, Note_off_c, 0, 39, 41
1, 412170, Note_off_c, 0, 79, 56
1, 412216, Note_on_c, 0, 82, 41
1, 412779, Note_on_c, 0, 87, 55
1, 412791, Note_on_c, 0, 35, 28
1, 412794, Note_on_c, 0, 47, 29
1, 412799, Note_on_c, 0, 75, 32
1, 412850, Control_c, 0, 64, 113
1, 412865, Control_c, 0, 64, 103
1, 412880, Note_off_c, 0, 82, 44
1, 412880, Control_c, 0, 64, 95
1, 412894, Control_c, 0, 64, 87
1, 412909, Control_c, 0, 64, 80
1, 412924, Control_c, 0, 64, 71
1, 412939, Control_c, 0, 64, 64
1, 412954, Control_c, 0, 64, 57
1, 412969, Control_c, 0, 64, 53
1, 412983, Control_c, 0, 64, 48
1, 412998, Control_c, 0, 64, 38
1, 413020, Control_c, 0, 64, 19
1, 413035, Control_c, 0, 64, 0
1, 413124, Control_c, 0, 64, 19
1, 413139, Control_c, 0, 64, 34
1, 413154, Control_c, 0, 64, 46
1, 413169, Control_c, 0, 64, 54
1, 413179, Note_off_c, 0, 75, 46
1, 413180, Note_on_c, 0, 78, 42
1, 413183, Control_c, 0, 64, 59
1, 413198, Control_c, 0, 64, 62
1, 413213, Control_c, 0, 64, 64
1, 413228, Control_c, 0, 64, 66
1, 413242, Control_c, 0, 64, 69
1, 413257, Control_c, 0, 64, 72
1, 413272, Control_c, 0, 64, 75
1, 413287, Control_c, 0, 64, 80
1, 413301, Control_c, 0, 64, 84
1, 413316, Control_c, 0, 64, 88
1, 413331, Control_c, 0, 64, 92
1, 413346, Control_c, 0, 64, 96
1, 413358, Note_off_c, 0, 78, 57
1, 413361, Control_c, 0, 64, 101
1, 413377, Control_c, 0, 64, 107
1, 413392, Control_c, 0, 64, 115
1, 413398, Note_on_c, 0, 75, 42
1, 413406, Control_c, 0, 64, 127
1, 413541, Note_off_c, 0, 87, 44
1, 413614, Note_on_c, 0, 79, 32
1, 413702, Note_off_c, 0, 79, 33
1, 413803, Note_off_c, 0, 75, 43
1, 413824, Note_on_c, 0, 83, 59
1, 414033, Note_on_c, 0, 75, 38
1, 414194, Note_off_c, 0, 75, 59
1, 414224, Note_on_c, 0, 80, 61
1, 414272, Poly_aftertouch_c, 0, 76, 127
1, 414274, Control_c, 0, 67, 126
1, 414288, Control_c, 0, 67, 124
1, 414303, Control_c, 0, 67, 122
1, 414318, Control_c, 0, 67, 120
1, 414332, Note_off_c, 0, 83, 40
1, 414333, Control_c, 0, 67, 117
1, 414348, Control_c, 0, 67, 114
1, 414362, Control_c, 0, 67, 110
1, 414377, Control_c, 0, 67, 107
1, 414390, Poly_aftertouch_c, 0, 76, 0
1, 414392, Control_c, 0, 67, 103
1, 414406, Control_c, 0, 67, 99
1, 414421, Control_c, 0, 67, 95
1, 414422, Note_on_c, 0, 72, 37
1, 414436, Control_c, 0, 67, 92
1, 414451, Control_c, 0, 67, 89
1, 414466, Control_c, 0, 67, 85
1, 414480, Control_c, 0, 67, 84
1, 414495, Control_c, 0, 67, 82
1, 414518, Control_c, 0, 67, 82
1, 414533, Control_c, 0, 67, 81
1, 414577, Control_c, 0, 67, 82
1, 414594, Note_off_c, 0, 72, 41
1, 414603, Note_on_c, 0, 76, 65
1, 414606, Control_c, 0, 67, 82
1, 414620, Note_on_c, 0, 73, 46
1, 414621, Control_c, 0, 64, 107
1, 414636, Control_c, 0, 64, 93
1, 414651, Control_c, 0, 64, 88
1, 414651, Control_c, 0, 67, 83
1, 414666, Control_c, 0, 64, 87
1, 414680, Control_c, 0, 64, 88
1, 414695, Control_c, 0, 64, 91
1, 414710, Control_c, 0, 64, 99
1, 414710, Control_c, 0, 67, 83
1, 414722, Note_off_c, 0, 80, 53
1, 414725, Control_c, 0, 64, 119
1, 414740, Control_c, 0, 64, 127
1, 414740, Control_c, 0, 67, 84
1, 414791, Note_off_c, 0, 76, 57
1, 414799, Control_c, 0, 67, 84
1, 414813, Note_off_c, 0, 73, 62
1, 414829, Control_c, 0, 67, 85
1, 414831, Note_on_c, 0, 68, 49
1, 414844, Control_c, 0, 67, 85
1, 414859, Control_c, 0, 67, 86
1, 414874, Control_c, 0, 67, 86
1, 414888, Control_c, 0, 67, 87
1, 414903, Control_c, 0, 67, 88
1, 414918, Control_c, 0, 67, 89
1, 414933, Control_c, 0, 67, 90
1, 414948, Control_c, 0, 67, 90
1, 414962, Control_c, 0, 67, 92
1, 414978, Control_c, 0, 67, 93
1, 414993, Control_c, 0, 67, 94
1, 415008, Control_c, 0, 67, 96
1, 415020, Note_on_c, 0, 73, 65
1, 415022, Note_off_c, 0, 68, 58
1, 415023, Control_c, 0, 67, 99
1, 415032, Note_on_c, 0, 70, 55
1, 415038, Control_c, 0, 64, 97
1, 415038, Control_c, 0, 67, 103
1, 415053, Control_c, 0, 64, 80
1, 415053, Control_c, 0, 67, 108
1, 415068, Control_c, 0, 64, 66
1, 415068, Control_c, 0, 67, 114
1, 415082, Control_c, 0, 64, 11
1, 415082, Control_c, 0, 67, 120
1, 415097, Control_c, 0, 64, 0
1, 415097, Control_c, 0, 67, 127
1, 415112, Control_c, 0, 67, 127
1, 415142, Control_c, 0, 64, 28
1, 415157, Control_c, 0, 64, 57
1, 415172, Control_c, 0, 64, 65
1, 415186, Control_c, 0, 64, 70
1, 415201, Control_c, 0, 64, 77
1, 415216, Control_c, 0, 64, 88
1, 415230, Control_c, 0, 64, 99
1, 415231, Note_on_c, 0, 64, 57
1, 415245, Control_c, 0, 64, 113
1, 415246, Note_off_c, 0, 70, 41
1, 415267, Control_c, 0, 64, 127
1, 415270, Note_off_c, 0, 64, 65
1, 415306, Note_off_c, 0, 73, 60
1, 415451, Note_on_c, 0, 75, 60
1, 415481, Note_off_c, 0, 75, 65
1, 415497, Note_on_c, 0, 71, 39
1, 415500, Note_on_c, 0, 76, 70
1, 415560, Note_off_c, 0, 76, 61
1, 415572, Note_on_c, 0, 75, 61
1, 415602, Note_off_c, 0, 71, 58
1, 415632, Note_on_c, 0, 76, 52
1, 415637, Note_off_c, 0, 75, 0
1, 415637, Control_c, 0, 67, 127
1, 415652, Note_on_c, 0, 75, 47
1, 415652, Control_c, 0, 67, 125
1, 415667, Control_c, 0, 67, 124
1, 415676, Note_off_c, 0, 76, 49
1, 415682, Control_c, 0, 67, 122
1, 415697, Control_c, 0, 67, 122
1, 415711, Control_c, 0, 67, 121
1, 415751, Note_off_c, 0, 75, 61
1, 415776, Note_on_c, 0, 73, 54
1, 415784, Note_on_c, 0, 63, 52
1, 415817, Note_off_c, 0, 73, 61
1, 415837, Note_off_c, 0, 63, 50
1, 415859, Note_on_c, 0, 75, 53
1, 415890, Control_c, 0, 67, 122
1, 415935, Control_c, 0, 67, 122
1, 415950, Control_c, 0, 67, 123
1, 415959, Note_off_c, 0, 75, 59
1, 415965, Control_c, 0, 67, 123
1, 415980, Control_c, 0, 67, 124
1, 415984, Note_on_c, 0, 76, 61
1, 416001, Control_c, 0, 67, 125
1, 416014, Note_on_c, 0, 73, 43
1, 416016, Control_c, 0, 67, 126
1, 416031, Control_c, 0, 64, 96
1, 416031, Control_c, 0, 67, 126
1, 416046, Control_c, 0, 64, 78
1, 416046, Control_c, 0, 67, 127
1, 416060, Control_c, 0, 64, 61
1, 416060, Control_c, 0, 67, 127
1, 416075, Control_c, 0, 64, 0
1, 416165, Control_c, 0, 64, 39
1, 416179, Control_c, 0, 64, 63
1, 416191, Note_off_c, 0, 76, 37
1, 416194, Control_c, 0, 64, 69
1, 416209, Control_c, 0, 64, 75
1, 416218, Note_off_c, 0, 73, 57
1, 416224, Control_c, 0, 64, 84
1, 416239, Control_c, 0, 64, 95
1, 416253, Control_c, 0, 64, 112
1, 416257, Note_on_c, 0, 61, 51
1, 416268, Control_c, 0, 64, 127
1, 416283, Control_c, 0, 67, 127
1, 416298, Control_c, 0, 67, 126
1, 416328, Control_c, 0, 67, 126
1, 416334, Note_off_c, 0, 61, 54
1, 416357, Control_c, 0, 67, 125
1, 416446, Control_c, 0, 67, 126
1, 416475, Control_c, 0, 67, 126
1, 416481, Note_on_c, 0, 73, 63
1, 416492, Note_on_c, 0, 70, 50
1, 416505, Control_c, 0, 64, 115
1, 416520, Control_c, 0, 64, 88
1, 416534, Control_c, 0, 64, 69
1, 416549, Control_c, 0, 64, 57
1, 416564, Control_c, 0, 64, 58
1, 416580, Control_c, 0, 64, 64
1, 416595, Control_c, 0, 64, 69
1, 416610, Control_c, 0, 64, 76
1, 416610, Control_c, 0, 67, 126
1, 416624, Control_c, 0, 64, 86
1, 416624, Control_c, 0, 67, 125
1, 416639, Control_c, 0, 64, 102
1, 416639, Control_c, 0, 67, 125
1, 416654, Note_off_c, 0, 70, 59
1, 416654, Control_c, 0, 64, 127
1, 416654, Control_c, 0, 67, 124
1, 416669, Control_c, 0, 67, 123
1, 416686, Note_on_c, 0, 64, 54
1, 416698, Control_c, 0, 67, 122
1, 416713, Control_c, 0, 67, 122
1, 416765, Control_c, 0, 67, 121
1, 416854, Control_c, 0, 67, 121
1, 416863, Note_off_c, 0, 64, 55
1, 416898, Control_c, 0, 64, 100
1, 416902, Note_on_c, 0, 75, 70
1, 416913, Control_c, 0, 64, 87
1, 416928, Control_c, 0, 64, 82
1, 416928, Control_c, 0, 67, 120
1, 416933, Note_on_c, 0, 71, 50
1, 416943, Control_c, 0, 67, 120
1, 416957, Control_c, 0, 64, 84
1, 416957, Control_c, 0, 67, 119
1, 416972, Control_c, 0, 64, 89
1, 416987, Note_off_c, 0, 73, 39
1, 416987, Control_c, 0, 64, 98
1, 417002, Control_c, 0, 64, 113
1, 417002, Control_c, 0, 67, 119
1, 417015, Note_off_c, 0, 47, 53
1, 417017, Control_c, 0, 64, 127
1, 417062, Control_c, 0, 67, 118
1, 417066, Note_off_c, 0, 71, 60
1, 417076, Control_c, 0, 67, 118
1, 417106, Control_c, 0, 67, 117
1, 417118, Note_on_c, 0, 63, 55
1, 417136, Control_c, 0, 67, 118
1, 417148, Note_off_c, 0, 63, 64
1, 417166, Control_c, 0, 67, 118
1, 417181, Note_off_c, 0, 75, 62
1, 417196, Control_c, 0, 67, 119
1, 417210, Control_c, 0, 67, 119
1, 417225, Control_c, 0, 67, 120
1, 417240, Control_c, 0, 67, 120
1, 417255, Control_c, 0, 67, 121
1, 417270, Control_c, 0, 67, 121
1, 417284, Control_c, 0, 67, 122
1, 417308, Note_on_c, 0, 34, 46
1, 417318, Note_on_c, 0, 79, 71
1, 417329, Control_c, 0, 64, 103
1, 417329, Control_c, 0, 67, 122
1, 417337, Note_on_c, 0, 46, 46
1, 417338, Note_on_c, 0, 73, 60
1, 417344, Control_c, 0, 64, 83
1, 417358, Control_c, 0, 64, 68
1, 417374, Control_c, 0, 64, 56
1, 417389, Control_c, 0, 64, 55
1, 417390, Note_off_c, 0, 35, 45
1, 417404, Control_c, 0, 64, 62
1, 417419, Control_c, 0, 64, 66
1, 417419, Control_c, 0, 67, 121
1, 417433, Control_c, 0, 64, 71
1, 417433, Control_c, 0, 67, 120
1, 417448, Control_c, 0, 64, 79
1, 417448, Control_c, 0, 67, 119
1, 417463, Control_c, 0, 64, 90
1, 417463, Control_c, 0, 67, 117
1, 417478, Control_c, 0, 64, 105
1, 417478, Control_c, 0, 67, 117
1, 417493, Control_c, 0, 64, 127
1, 417493, Control_c, 0, 67, 116
1, 417515, Control_c, 0, 67, 115
1, 417530, Control_c, 0, 67, 113
1, 417545, Control_c, 0, 67, 112
1, 417547, Note_off_c, 0, 73, 57
1, 417568, Note_on_c, 0, 76, 26
1, 417592, Note_off_c, 0, 46, 60
1, 417605, Note_off_c, 0, 76, 45
1, 417607, Note_off_c, 0, 79, 60
1, 417619, Control_c, 0, 67, 113
1, 417648, Control_c, 0, 67, 114
1, 417663, Control_c, 0, 67, 114
1, 417678, Control_c, 0, 67, 115
1, 417693, Control_c, 0, 67, 116
1, 417707, Control_c, 0, 67, 117
1, 417722, Control_c, 0, 67, 117
1, 417752, Control_c, 0, 67, 118
1, 417762, Note_on_c, 0, 80, 64
1, 417774, Note_on_c, 0, 71, 52
1, 417778, Note_on_c, 0, 32, 52
1, 417781, Control_c, 0, 64, 100
1, 417783, Note_on_c, 0, 44, 50
1, 417796, Note_off_c, 0, 34, 37
1, 417796, Control_c, 0, 64, 81
1, 417811, Control_c, 0, 64, 68
1, 417825, Control_c, 0, 64, 63
1, 417840, Control_c, 0, 64, 64
1, 417840, Control_c, 0, 67, 117
1, 417855, Control_c, 0, 64, 67
1, 417855, Control_c, 0, 67, 116
1, 417870, Control_c, 0, 64, 73
1, 417870, Control_c, 0, 67, 115
1, 417885, Control_c, 0, 64, 81
1, 417885, Control_c, 0, 67, 113
1, 417899, Control_c, 0, 64, 92
1, 417899, Control_c, 0, 67, 112
1, 417914, Control_c, 0, 64, 107
1, 417914, Control_c, 0, 67, 111
1, 417929, Control_c, 0, 64, 127
1, 417929, Control_c, 0, 67, 109
1, 417944, Control_c, 0, 67, 104
1, 417959, Control_c, 0, 67, 94
1, 417974, Control_c, 0, 67, 85
1, 417989, Control_c, 0, 67, 74
1, 418004, Control_c, 0, 67, 64
1, 418010, Note_on_c, 0, 82, 80
1, 418015, Note_on_c, 0, 75, 64
1, 418019, Control_c, 0, 67, 55
1, 418033, Control_c, 0, 67, 48
1, 418045, Note_off_c, 0, 44, 62
1, 418048, Control_c, 0, 67, 41
1, 418048, Note_off_c, 0, 80, 60
1, 418063, Control_c, 0, 67, 36
1, 418078, Control_c, 0, 67, 32
1, 418080, Note_off_c, 0, 75, 58
1, 418087, Note_off_c, 0, 71, 41
1, 418093, Control_c, 0, 67, 29
1, 418107, Control_c, 0, 67, 26
1, 418122, Control_c, 0, 67, 24
1, 418137, Control_c, 0, 67, 23
1, 418151, Control_c, 0, 67, 22
1, 418166, Control_c, 0, 67, 22
1, 418167, Note_off_c, 0, 82, 61
1, 418183, Control_c, 0, 67, 21
1, 418212, Control_c, 0, 67, 21
1, 418242, Control_c, 0, 67, 20
1, 418243, Note_on_c, 0, 83, 82
1, 418262, Note_off_c, 0, 32, 59
1, 418263, Control_c, 0, 64, 105
1, 418263, Control_c, 0, 67, 19
1, 418264, Note_on_c, 0, 28, 53
1, 418275, Note_on_c, 0, 40, 49
1, 418275, Note_on_c, 0, 80, 56
1, 418278, Control_c, 0, 64, 82
1, 418278, Control_c, 0, 67, 18
1, 418293, Control_c, 0, 64, 67
1, 418293, Control_c, 0, 67, 16
1, 418308, Control_c, 0, 64, 57
1, 418308, Control_c, 0, 67, 15
1, 418323, Control_c, 0, 64, 60
1, 418323, Control_c, 0, 67, 12
1, 418338, Control_c, 0, 64, 64
1, 418338, Control_c, 0, 67, 9
1, 418352, Control_c, 0, 64, 70
1, 418352, Control_c, 0, 67, 0
1, 418357, Note_off_c, 0, 80, 51
1, 418367, Control_c, 0, 64, 77
1, 418382, Note_off_c, 0, 83, 64
1, 418382, Control_c, 0, 64, 88
1, 418397, Control_c, 0, 64, 102
1, 418412, Control_c, 0, 64, 127
1, 418508, Note_on_c, 0, 85, 79
1, 418513, Note_on_c, 0, 80, 62
1, 418524, Note_on_c, 0, 71, 52
1, 418558, Note_off_c, 0, 28, 35
1, 418570, Note_off_c, 0, 71, 45
1, 418574, Note_off_c, 0, 40, 56
1, 418620, Note_off_c, 0, 80, 57
1, 418646, Note_off_c, 0, 85, 61
1, 418721, Note_on_c, 0, 72, 59
1, 418766, Note_off_c, 0, 72, 56
1, 418805, Note_on_c, 0, 80, 66
1, 418856, Note_on_c, 0, 84, 62
1, 418928, Note_on_c, 0, 27, 52
1, 418990, Control_c, 0, 64, 96
1, 419012, Control_c, 0, 64, 74
1, 419026, Control_c, 0, 64, 58
1, 419041, Control_c, 0, 64, 0
1, 419063, Note_on_c, 0, 87, 75
1, 419116, Control_c, 0, 64, 46
1, 419131, Control_c, 0, 64, 62
1, 419145, Control_c, 0, 64, 67
1, 419160, Control_c, 0, 64, 72
1, 419175, Control_c, 0, 64, 79
1, 419190, Control_c, 0, 64, 89
1, 419204, Control_c, 0, 64, 104
1, 419219, Control_c, 0, 64, 127
1, 419297, Note_off_c, 0, 27, 41
1, 419339, Note_on_c, 0, 39, 46
1, 419375, Note_off_c, 0, 39, 60
1, 419583, Note_on_c, 0, 51, 51
1, 419792, Note_on_c, 0, 60, 56
1, 419992, Note_on_c, 0, 63, 66
1, 420035, Note_off_c, 0, 60, 63
1, 420042, Note_off_c, 0, 80, 38
1, 420069, Note_off_c, 0, 84, 44
1, 420090, Note_off_c, 0, 51, 32
1, 420112, Note_off_c, 0, 87, 40
1, 420180, Note_off_c, 0, 63, 62
1, 420185, Note_on_c, 0, 60, 61
1, 420211, Note_off_c, 0, 60, 67
1, 420374, Note_on_c, 0, 84, 77
1, 420391, Note_on_c, 0, 51, 57
1, 420394, Note_on_c, 0, 80, 60
1, 420403, Note_on_c, 0, 72, 57
1, 420524, Note_off_c, 0, 80, 62
1, 420541, Note_off_c, 0, 72, 56
1, 420555, Note_off_c, 0, 51, 64
1, 420558, Note_off_c, 0, 84, 64
1, 420561, Note_on_c, 0, 39, 59
1, 420600, Note_off_c, 0, 39, 60
1, 420749, Note_on_c, 0, 72, 58
1, 420790, Note_on_c, 0, 27, 53
1, 420818, Note_on_c, 0, 81, 64
1, 420838, Note_off_c, 0, 72, 54
1, 420852, Note_on_c, 0, 84, 69
1, 420879, Control_c, 0, 64, 113
1, 420894, Control_c, 0, 64, 90
1, 420909, Control_c, 0, 64, 73
1, 420923, Control_c, 0, 64, 64
1, 420938, Control_c, 0, 64, 60
1, 420951, Note_on_c, 0, 87, 82
1, 420953, Control_c, 0, 64, 62
1, 420967, Control_c, 0, 64, 64
1, 420982, Control_c, 0, 64, 67
1, 420997, Control_c, 0, 64, 72
1, 421012, Control_c, 0, 64, 78
1, 421027, Control_c, 0, 64, 85
1, 421041, Control_c, 0, 64, 94
1, 421056, Control_c, 0, 64, 104
1, 421071, Control_c, 0, 64, 119
1, 421086, Control_c, 0, 64, 127
1, 421151, Note_off_c, 0, 27, 42
1, 421159, Note_on_c, 0, 39, 52
1, 421191, Note_off_c, 0, 39, 61
1, 421400, Note_on_c, 0, 51, 54
1, 421618, Note_on_c, 0, 60, 46
1, 421738, Note_off_c, 0, 87, 65
1, 421781, Note_off_c, 0, 51, 54
1, 421822, Note_off_c, 0, 60, 59
1, 421829, Note_on_c, 0, 63, 45
1, 421850, Control_c, 0, 67, 8
1, 421861, Note_off_c, 0, 84, 40
1, 421864, Control_c, 0, 67, 8
1, 421873, Note_off_c, 0, 81, 50
1, 421879, Control_c, 0, 67, 9
1, 421894, Control_c, 0, 67, 10
1, 421909, Control_c, 0, 67, 11
1, 421924, Control_c, 0, 67, 12
1, 421939, Control_c, 0, 67, 14
1, 421953, Control_c, 0, 67, 16
1, 421968, Control_c, 0, 67, 17
1, 421983, Control_c, 0, 67, 20
1, 422005, Control_c, 0, 67, 23
1, 422020, Control_c, 0, 67, 29
1, 422021, Note_off_c, 0, 63, 59
1, 422035, Control_c, 0, 67, 34
1, 422045, Note_on_c, 0, 61, 50
1, 422050, Control_c, 0, 67, 39
1, 422065, Control_c, 0, 67, 43
1, 422073, Note_off_c, 0, 61, 63
1, 422079, Control_c, 0, 67, 46
1, 422094, Control_c, 0, 67, 49
1, 422109, Control_c, 0, 67, 52
1, 422124, Control_c, 0, 67, 54
1, 422139, Control_c, 0, 67, 57
1, 422153, Control_c, 0, 67, 59
1, 422169, Control_c, 0, 67, 61
1, 422184, Control_c, 0, 67, 63
1, 422199, Control_c, 0, 67, 65
1, 422214, Control_c, 0, 67, 66
1, 422228, Control_c, 0, 67, 67
1, 422243, Control_c, 0, 67, 68
1, 422258, Control_c, 0, 67, 69
1, 422273, Control_c, 0, 67, 70
1, 422281, Note_on_c, 0, 82, 65
1, 422288, Control_c, 0, 67, 71
1, 422292, Note_on_c, 0, 79, 52
1, 422302, Control_c, 0, 67, 72
1, 422304, Note_on_c, 0, 70, 41
1, 422317, Control_c, 0, 64, 105
1, 422317, Control_c, 0, 67, 73
1, 422322, Note_on_c, 0, 51, 40
1, 422332, Control_c, 0, 64, 82
1, 422332, Control_c, 0, 67, 73
1, 422347, Control_c, 0, 64, 69
1, 422347, Control_c, 0, 67, 74
1, 422362, Control_c, 0, 64, 59
1, 422362, Control_c, 0, 67, 75
1, 422377, Control_c, 0, 64, 57
1, 422377, Control_c, 0, 67, 76
1, 422392, Control_c, 0, 64, 62
1, 422392, Control_c, 0, 67, 76
1, 422407, Control_c, 0, 64, 65
1, 422407, Control_c, 0, 67, 77
1, 422421, Control_c, 0, 64, 68
1, 422421, Control_c, 0, 67, 78
1, 422436, Control_c, 0, 64, 74
1, 422436, Control_c, 0, 67, 79
1, 422451, Control_c, 0, 64, 81
1, 422451, Control_c, 0, 67, 80
1, 422466, Control_c, 0, 64, 90
1, 422466, Control_c, 0, 67, 81
1, 422481, Control_c, 0, 64, 99
1, 422481, Control_c, 0, 67, 83
1, 422495, Control_c, 0, 64, 110
1, 422495, Control_c, 0, 67, 85
1, 422506, Note_off_c, 0, 79, 60
1, 422510, Control_c, 0, 64, 127
1, 422510, Control_c, 0, 67, 87
1, 422517, Note_on_c, 0, 39, 37
1, 422517, Note_off_c, 0, 70, 60
1, 422517, Note_off_c, 0, 82, 52
1, 422525, Control_c, 0, 67, 90
1, 422536, Note_off_c, 0, 51, 42
1, 422540, Control_c, 0, 67, 93
1, 422555, Control_c, 0, 67, 97
1, 422569, Control_c, 0, 67, 101
1, 422584, Control_c, 0, 67, 105
1, 422599, Control_c, 0, 67, 110
1, 422613, Control_c, 0, 67, 115
1, 422615, Note_off_c, 0, 39, 36
1, 422628, Control_c, 0, 67, 121
1, 422643, Control_c, 0, 67, 127
1, 422794, Note_on_c, 0, 32, 42
1, 422814, Control_c, 0, 64, 109
1, 422824, Note_on_c, 0, 68, 51
1, 422828, Control_c, 0, 64, 88
1, 422843, Control_c, 0, 64, 75
1, 422858, Control_c, 0, 64, 66
1, 422873, Control_c, 0, 64, 64
1, 422888, Note_off_c, 0, 68, 61
1, 422888, Control_c, 0, 64, 65
1, 422902, Control_c, 0, 64, 68
1, 422905, Note_on_c, 0, 75, 51
1, 422917, Control_c, 0, 64, 73
1, 422932, Control_c, 0, 64, 78
1, 422946, Control_c, 0, 64, 84
1, 422958, Note_on_c, 0, 80, 53
1, 422961, Control_c, 0, 64, 90
1, 422978, Control_c, 0, 64, 97
1, 422992, Control_c, 0, 64, 103
1, 423007, Control_c, 0, 64, 111
1, 423022, Control_c, 0, 64, 124
1, 423037, Control_c, 0, 64, 127
1, 423056, Note_on_c, 0, 84, 63
1, 423182, Note_on_c, 0, 39, 40
1, 423185, Note_off_c, 0, 32, 42
1, 423378, Note_on_c, 0, 44, 52
1, 423474, Note_off_c, 0, 39, 39
1, 423551, Note_off_c, 0, 44, 61
1, 423599, Note_on_c, 0, 48, 46
1, 423607, Note_off_c, 0, 75, 38
1, 423639, Note_off_c, 0, 48, 59
1, 423819, Note_on_c, 0, 51, 42
1, 424027, Note_on_c, 0, 56, 40
1, 424274, Note_off_c, 0, 84, 33
1, 424276, Note_on_c, 0, 75, 50
1, 424283, Note_on_c, 0, 60, 34
1, 424377, Note_off_c, 0, 60, 56
1, 424390, Note_off_c, 0, 56, 30
1, 424451, Note_off_c, 0, 51, 44
1, 424596, Note_off_c, 0, 75, 56
1, 424599, Note_off_c, 0, 80, 47
1, 424698, Note_on_c, 0, 68, 38
1, 424726, Note_off_c, 0, 68, 54
1, 424744, Note_on_c, 0, 75, 47
1, 424758, Note_on_c, 0, 32, 35
1, 424823, Note_on_c, 0, 80, 53
1, 424896, Note_on_c, 0, 84, 66
1, 425096, Note_on_c, 0, 39, 41
1, 425109, Note_off_c, 0, 32, 43
1, 425196, Note_off_c, 0, 75, 41
1, 425322, Note_on_c, 0, 44, 51
1, 425413, Note_off_c, 0, 39, 39
1, 425497, Note_off_c, 0, 44, 60
1, 425548, Note_on_c, 0, 48, 38
1, 425594, Note_off_c, 0, 48, 58
1, 425755, Note_on_c, 0, 51, 45
1, 425985, Note_on_c, 0, 56, 41
1, 426220, Note_off_c, 0, 84, 32
1, 426236, Note_on_c, 0, 60, 30
1, 426240, Note_on_c, 0, 75, 44
1, 426269, Note_off_c, 0, 56, 30
1, 426280, Note_off_c, 0, 60, 52
1, 426350, Note_off_c, 0, 51, 57
1, 426498, Note_off_c, 0, 80, 35
1, 426547, Note_off_c, 0, 75, 53
1, 426852, Note_on_c, 0, 32, 31
1, 426947, Note_on_c, 0, 63, 45
1, 426999, Note_off_c, 0, 63, 59
1, 427048, Note_on_c, 0, 72, 43
1, 427194, Note_on_c, 0, 80, 53
1, 427443, Note_off_c, 0, 32, 42
1, 427463, Note_on_c, 0, 39, 36
1, 427706, Note_on_c, 0, 44, 42
1, 427770, Note_off_c, 0, 80, 51
1, 427826, Note_off_c, 0, 39, 39
1, 427913, Note_off_c, 0, 44, 41
1, 427948, Note_on_c, 0, 48, 41
1, 427978, Note_off_c, 0, 48, 57
1, 428020, Note_off_c, 0, 72, 32
1, 428242, Note_on_c, 0, 51, 35
1, 428596, Note_on_c, 0, 56, 37
1, 428597, Note_on_c, 0, 68, 42
1, 428716, Note_off_c, 0, 51, 41
1, 428869, Note_off_c, 0, 68, 38
1, 429050, Note_on_c, 0, 68, 28
1, 429057, Note_on_c, 0, 67, 39
1, 429057, Note_off_c, 0, 56, 33
1, 429060, Note_on_c, 0, 60, 28
1, 429071, Control_c, 0, 64, 114
1, 429086, Control_c, 0, 64, 93
1, 429101, Control_c, 0, 64, 81
1, 429115, Control_c, 0, 64, 74
1, 429130, Control_c, 0, 64, 70
1, 429145, Control_c, 0, 64, 71
1, 429160, Control_c, 0, 64, 73
1, 429175, Control_c, 0, 64, 75
1, 429189, Control_c, 0, 64, 80
1, 429204, Control_c, 0, 64, 84
1, 429219, Control_c, 0, 64, 89
1, 429234, Control_c, 0, 64, 93
1, 429249, Control_c, 0, 64, 99
1, 429263, Control_c, 0, 64, 106
1, 429278, Control_c, 0, 64, 123
1, 429293, Control_c, 0, 64, 127
1, 429304, Note_off_c, 0, 67, 50
1, 429354, Note_off_c, 0, 68, 43
1, 429425, Note_off_c, 0, 60, 43
1, 429641, Note_on_c, 0, 66, 31
1, 429643, Note_on_c, 0, 68, 27
1, 429672, Control_c, 0, 64, 112
1, 429686, Control_c, 0, 64, 98
1, 429701, Control_c, 0, 64, 88
1, 429716, Control_c, 0, 64, 80
1, 429731, Control_c, 0, 64, 72
1, 429746, Control_c, 0, 64, 64
1, 429760, Control_c, 0, 64, 61
1, 429775, Control_c, 0, 64, 60
1, 429835, Control_c, 0, 64, 60
1, 429850, Control_c, 0, 64, 61
1, 429865, Control_c, 0, 64, 62
1, 429880, Control_c, 0, 64, 64
1, 429895, Control_c, 0, 64, 65
1, 429909, Control_c, 0, 64, 67
1, 429924, Control_c, 0, 64, 70
1, 429939, Control_c, 0, 64, 73
1, 429954, Control_c, 0, 64, 78
1, 429969, Control_c, 0, 64, 82
1, 429984, Control_c, 0, 64, 88
1, 429999, Control_c, 0, 64, 93
1, 430013, Control_c, 0, 64, 99
1, 430028, Control_c, 0, 64, 106
1, 430043, Control_c, 0, 64, 114
1, 430058, Control_c, 0, 64, 127
1, 430068, Note_off_c, 0, 66, 42
1, 430070, Note_off_c, 0, 68, 40
1, 430569, Note_on_c, 0, 37, 33
1, 430623, Note_on_c, 0, 73, 47
1, 430643, Control_c, 0, 64, 104
1, 430650, Note_on_c, 0, 65, 25
1, 430658, Control_c, 0, 64, 90
1, 430673, Control_c, 0, 64, 79
1, 430688, Control_c, 0, 64, 71
1, 430702, Control_c, 0, 64, 64
1, 430717, Control_c, 0, 64, 62
1, 430732, Control_c, 0, 64, 63
1, 430747, Control_c, 0, 64, 64
1, 430762, Control_c, 0, 64, 65
1, 430777, Control_c, 0, 64, 67
1, 430792, Control_c, 0, 64, 71
1, 430807, Control_c, 0, 64, 75
1, 430822, Control_c, 0, 64, 79
1, 430836, Control_c, 0, 64, 84
1, 430851, Control_c, 0, 64, 88
1, 430866, Control_c, 0, 64, 94
1, 430872, Note_off_c, 0, 37, 53
1, 430880, Control_c, 0, 64, 99
1, 430895, Control_c, 0, 64, 106
1, 430910, Control_c, 0, 64, 114
1, 430925, Control_c, 0, 64, 127
1, 431028, Note_on_c, 0, 78, 54
1, 431036, Note_on_c, 0, 70, 42
1, 431052, Note_off_c, 0, 65, 41
1, 431138, Note_off_c, 0, 73, 38
1, 431299, Note_off_c, 0, 70, 36
1, 431343, Note_on_c, 0, 66, 39
1, 431373, Note_on_c, 0, 58, 36
1, 431460, Note_off_c, 0, 66, 59
1, 431488, Note_off_c, 0, 78, 35
1, 431585, Control_c, 0, 67, 126
1, 431600, Control_c, 0, 67, 122
1, 431615, Control_c, 0, 67, 117
1, 431629, Control_c, 0, 67, 113
1, 431642, Note_on_c, 0, 56, 50
1, 431644, Control_c, 0, 67, 108
1, 431647, Note_on_c, 0, 65, 36
1, 431649, Note_off_c, 0, 58, 37
1, 431659, Control_c, 0, 67, 103
1, 431674, Control_c, 0, 67, 98
1, 431678, Note_off_c, 0, 65, 52
1, 431689, Control_c, 0, 67, 95
1, 431703, Control_c, 0, 67, 92
1, 431718, Control_c, 0, 67, 90
1, 431719, Note_off_c, 0, 56, 62
1, 431740, Control_c, 0, 67, 90
1, 431756, Control_c, 0, 67, 89
1, 431845, Control_c, 0, 67, 90
1, 431874, Control_c, 0, 67, 90
1, 431904, Control_c, 0, 67, 91
1, 431933, Control_c, 0, 67, 91
1, 431948, Control_c, 0, 67, 92
1, 431977, Note_on_c, 0, 77, 56
1, 431978, Control_c, 0, 67, 92
1, 432008, Control_c, 0, 64, 97
1, 432008, Control_c, 0, 67, 93
1, 432012, Note_on_c, 0, 37, 39
1, 432020, Note_on_c, 0, 68, 22
1, 432023, Control_c, 0, 64, 82
1, 432038, Control_c, 0, 64, 69
1, 432053, Control_c, 0, 64, 60
1, 432068, Control_c, 0, 64, 57
1, 432082, Control_c, 0, 64, 59
1, 432097, Control_c, 0, 64, 63
1, 432112, Control_c, 0, 64, 65
1, 432126, Control_c, 0, 64, 69
1, 432141, Control_c, 0, 64, 74
1, 432156, Control_c, 0, 64, 79
1, 432171, Control_c, 0, 64, 85
1, 432171, Control_c, 0, 67, 92
1, 432186, Control_c, 0, 64, 91
1, 432200, Control_c, 0, 64, 97
1, 432215, Control_c, 0, 64, 103
1, 432217, Note_off_c, 0, 37, 40
1, 432230, Control_c, 0, 64, 110
1, 432245, Control_c, 0, 64, 123
1, 432260, Control_c, 0, 64, 127
1, 432318, Note_on_c, 0, 75, 59
1, 432334, Note_on_c, 0, 66, 38
1, 432402, Note_off_c, 0, 68, 42
1, 432414, Note_off_c, 0, 77, 32
1, 432489, Control_c, 0, 67, 93
1, 432533, Control_c, 0, 67, 93
1, 432579, Control_c, 0, 67, 94
1, 432594, Control_c, 0, 67, 94
1, 432598, Note_off_c, 0, 66, 37
1, 432609, Control_c, 0, 67, 95
1, 432638, Control_c, 0, 67, 96
1, 432657, Note_on_c, 0, 63, 42
1, 432667, Note_on_c, 0, 54, 34
1, 432668, Control_c, 0, 67, 96
1, 432683, Control_c, 0, 67, 97
1, 432698, Control_c, 0, 67, 97
1, 432712, Control_c, 0, 67, 98
1, 432727, Control_c, 0, 67, 98
1, 432742, Control_c, 0, 67, 99
1, 432756, Control_c, 0, 67, 99
1, 432771, Control_c, 0, 67, 100
1, 432786, Control_c, 0, 67, 101
1, 432788, Note_off_c, 0, 75, 50
1, 432801, Control_c, 0, 67, 102
1, 432807, Note_off_c, 0, 63, 60
1, 432816, Control_c, 0, 67, 102
1, 432830, Control_c, 0, 67, 104
1, 432845, Control_c, 0, 67, 107
1, 432860, Control_c, 0, 67, 110
1, 432875, Control_c, 0, 67, 113
1, 432890, Control_c, 0, 67, 115
1, 432904, Control_c, 0, 67, 118
1, 432919, Control_c, 0, 67, 121
1, 432934, Control_c, 0, 67, 123
1, 432948, Control_c, 0, 67, 125
1, 432963, Control_c, 0, 67, 125
1, 432978, Note_on_c, 0, 65, 44
1, 432986, Note_on_c, 0, 56, 48
1, 433017, Note_off_c, 0, 65, 61
1, 433021, Note_off_c, 0, 54, 44
1, 433037, Control_c, 0, 67, 125
1, 433052, Control_c, 0, 67, 124
1, 433067, Control_c, 0, 67, 124
1, 433078, Note_off_c, 0, 56, 61
1, 433082, Control_c, 0, 67, 123
1, 433096, Control_c, 0, 67, 123
1, 433111, Control_c, 0, 67, 122
1, 433141, Control_c, 0, 67, 122
1, 433185, Control_c, 0, 67, 121
1, 433281, Control_c, 0, 67, 121
1, 433317, Note_on_c, 0, 77, 63
1, 433341, Control_c, 0, 64, 103
1, 433357, Control_c, 0, 64, 85
1, 433358, Note_on_c, 0, 68, 33
1, 433363, Note_on_c, 0, 37, 40
1, 433372, Control_c, 0, 64, 68
1, 433372, Control_c, 0, 67, 120
1, 433386, Control_c, 0, 64, 48
1, 433401, Control_c, 0, 64, 0
1, 433401, Control_c, 0, 67, 120
1, 433416, Control_c, 0, 67, 119
1, 433431, Control_c, 0, 64, 31
1, 433446, Control_c, 0, 64, 52
1, 433446, Control_c, 0, 67, 119
1, 433460, Control_c, 0, 64, 64
1, 433460, Control_c, 0, 67, 118
1, 433475, Control_c, 0, 64, 68
1, 433475, Control_c, 0, 67, 118
1, 433490, Control_c, 0, 64, 73
1, 433490, Control_c, 0, 67, 117
1, 433505, Control_c, 0, 64, 79
1, 433505, Control_c, 0, 67, 117
1, 433520, Control_c, 0, 64, 86
1, 433520, Control_c, 0, 67, 116
1, 433534, Control_c, 0, 64, 92
1, 433534, Control_c, 0, 67, 116
1, 433549, Control_c, 0, 64, 98
1, 433549, Control_c, 0, 67, 115
1, 433564, Control_c, 0, 64, 105
1, 433579, Control_c, 0, 64, 112
1, 433579, Control_c, 0, 67, 115
1, 433588, Note_off_c, 0, 37, 39
1, 433594, Control_c, 0, 64, 127
1, 433609, Control_c, 0, 67, 114
1, 433639, Control_c, 0, 67, 114
1, 433662, Note_on_c, 0, 73, 61
1, 433688, Note_on_c, 0, 65, 42
1, 433752, Note_off_c, 0, 77, 34
1, 433774, Note_off_c, 0, 68, 41
1, 433816, Control_c, 0, 67, 113
1, 433875, Control_c, 0, 67, 113
1, 433904, Control_c, 0, 67, 112
1, 433934, Control_c, 0, 67, 112
1, 433949, Control_c, 0, 67, 111
1, 433952, Note_off_c, 0, 65, 38
1, 433964, Control_c, 0, 67, 109
1, 433986, Control_c, 0, 67, 107
1, 433998, Note_on_c, 0, 61, 43
1, 434001, Control_c, 0, 67, 105
1, 434012, Note_on_c, 0, 53, 29
1, 434016, Control_c, 0, 67, 102
1, 434031, Control_c, 0, 67, 101
1, 434046, Control_c, 0, 67, 100
1, 434060, Control_c, 0, 67, 98
1, 434075, Control_c, 0, 67, 97
1, 434090, Control_c, 0, 67, 96
1, 434104, Control_c, 0, 67, 95
1, 434119, Control_c, 0, 67, 94
1, 434134, Control_c, 0, 67, 93
1, 434145, Note_off_c, 0, 73, 54
1, 434150, Control_c, 0, 67, 92
1, 434160, Note_off_c, 0, 61, 52
1, 434165, Control_c, 0, 67, 91
1, 434180, Control_c, 0, 67, 91
1, 434195, Control_c, 0, 67, 90
1, 434209, Control_c, 0, 67, 90
1, 434283, Control_c, 0, 67, 90
1, 434318, Note_off_c, 0, 53, 52
1, 434327, Control_c, 0, 67, 91
1, 434329, Note_on_c, 0, 54, 40
1, 434332, Note_on_c, 0, 63, 39
1, 434366, Note_off_c, 0, 63, 59
1, 434372, Control_c, 0, 67, 91
1, 434387, Control_c, 0, 67, 92
1, 434417, Control_c, 0, 67, 92
1, 434421, Note_off_c, 0, 54, 62
1, 434461, Control_c, 0, 67, 93
1, 434476, Control_c, 0, 67, 93
1, 434506, Control_c, 0, 67, 94
1, 434535, Control_c, 0, 67, 94
1, 434565, Control_c, 0, 67, 95
1, 434580, Control_c, 0, 67, 95
1, 434594, Control_c, 0, 67, 96
1, 434624, Control_c, 0, 67, 96
1, 434663, Note_on_c, 0, 75, 53
1, 434683, Control_c, 0, 64, 99
1, 434683, Control_c, 0, 67, 97
1, 434695, Note_on_c, 0, 66, 24
1, 434698, Control_c, 0, 64, 79
1, 434703, Note_on_c, 0, 37, 41
1, 434713, Control_c, 0, 64, 66
1, 434735, Control_c, 0, 64, 47
1, 434750, Control_c, 0, 64, 38
1, 434765, Control_c, 0, 64, 43
1, 434765, Control_c, 0, 67, 96
1, 434780, Control_c, 0, 64, 52
1, 434795, Control_c, 0, 64, 63
1, 434809, Control_c, 0, 64, 67
1, 434824, Control_c, 0, 64, 71
1, 434824, Control_c, 0, 67, 96
1, 434832, Note_off_c, 0, 75, 57
1, 434839, Control_c, 0, 64, 76
1, 434854, Control_c, 0, 64, 83
1, 434868, Note_off_c, 0, 66, 43
1, 434869, Control_c, 0, 64, 90
1, 434883, Control_c, 0, 64, 97
1, 434883, Control_c, 0, 67, 95
1, 434898, Control_c, 0, 64, 102
1, 434913, Control_c, 0, 64, 108
1, 434913, Control_c, 0, 67, 95
1, 434927, Control_c, 0, 64, 117
1, 434942, Control_c, 0, 64, 127
1, 434988, Control_c, 0, 67, 94
1, 435002, Note_off_c, 0, 37, 40
1, 435034, Note_on_c, 0, 68, 46
1, 435055, Note_on_c, 0, 60, 28
1, 435328, Control_c, 0, 67, 95
1, 435388, Note_on_c, 0, 56, 44
1, 435395, Note_on_c, 0, 49, 48
1, 435446, Control_c, 0, 67, 94
1, 435448, Note_off_c, 0, 60, 42
1, 435483, Control_c, 0, 67, 94
1, 435513, Control_c, 0, 67, 93
1, 435528, Control_c, 0, 67, 93
1, 435543, Control_c, 0, 67, 92
1, 435557, Control_c, 0, 67, 92
1, 435564, Note_off_c, 0, 68, 19
1, 435572, Control_c, 0, 67, 91
1, 435587, Control_c, 0, 67, 91
1, 435602, Control_c, 0, 67, 90
1, 435617, Control_c, 0, 67, 90
1, 435631, Control_c, 0, 67, 89
1, 435646, Control_c, 0, 67, 89
1, 435661, Control_c, 0, 67, 88
1, 435675, Control_c, 0, 67, 87
1, 435690, Control_c, 0, 67, 82
1, 435705, Control_c, 0, 67, 75
1, 435720, Control_c, 0, 67, 69
1, 435735, Control_c, 0, 67, 64
1, 435751, Control_c, 0, 67, 59
1, 435757, Note_off_c, 0, 56, 63
1, 435766, Control_c, 0, 67, 55
1, 435780, Control_c, 0, 67, 52
1, 435795, Control_c, 0, 67, 50
1, 435810, Control_c, 0, 67, 48
1, 435825, Control_c, 0, 67, 47
1, 435830, Note_off_c, 0, 49, 58
1, 435840, Control_c, 0, 67, 46
1, 436017, Control_c, 0, 67, 47
1, 436032, Control_c, 0, 67, 47
1, 436047, Control_c, 0, 67, 48
1, 436077, Control_c, 0, 67, 48
1, 436106, Control_c, 0, 67, 49
1, 436121, Control_c, 0, 67, 49
1, 436151, Control_c, 0, 67, 50
1, 436195, Control_c, 0, 67, 50
1, 436208, Note_on_c, 0, 73, 59
1, 436210, Control_c, 0, 64, 109
1, 436226, Note_on_c, 0, 37, 45
1, 436232, Control_c, 0, 64, 89
1, 436246, Note_on_c, 0, 65, 36
1, 436247, Control_c, 0, 64, 76
1, 436262, Control_c, 0, 64, 67
1, 436277, Control_c, 0, 64, 64
1, 436292, Control_c, 0, 64, 64
1, 436306, Control_c, 0, 64, 67
1, 436321, Control_c, 0, 64, 71
1, 436336, Control_c, 0, 64, 76
1, 436351, Control_c, 0, 64, 82
1, 436366, Control_c, 0, 64, 89
1, 436380, Note_off_c, 0, 65, 36
1, 436380, Control_c, 0, 64, 97
1, 436395, Control_c, 0, 64, 105
1, 436410, Control_c, 0, 64, 118
1, 436425, Control_c, 0, 64, 127
1, 436455, Note_off_c, 0, 37, 39
1, 436572, Note_on_c, 0, 71, 43
1, 436574, Note_on_c, 0, 80, 66
1, 436604, Control_c, 0, 67, 50
1, 436736, Note_off_c, 0, 73, 52
1, 436892, Note_on_c, 0, 68, 43
1, 436894, Note_on_c, 0, 59, 47
1, 436953, Note_off_c, 0, 71, 34
1, 437011, Control_c, 0, 67, 50
1, 437056, Note_off_c, 0, 68, 61
1, 437056, Control_c, 0, 67, 51
1, 437070, Control_c, 0, 67, 51
1, 437085, Control_c, 0, 67, 52
1, 437100, Control_c, 0, 67, 52
1, 437115, Control_c, 0, 67, 53
1, 437129, Control_c, 0, 67, 53
1, 437144, Control_c, 0, 67, 54
1, 437151, Note_off_c, 0, 80, 62
1, 437159, Control_c, 0, 67, 54
1, 437174, Control_c, 0, 67, 55
1, 437189, Control_c, 0, 67, 56
1, 437204, Control_c, 0, 67, 56
1, 437219, Control_c, 0, 67, 57
1, 437228, Note_on_c, 0, 66, 50
1, 437232, Note_on_c, 0, 58, 59
1, 437234, Control_c, 0, 67, 57
1, 437248, Control_c, 0, 67, 58
1, 437263, Note_off_c, 0, 59, 56
1, 437263, Control_c, 0, 67, 58
1, 437282, Note_off_c, 0, 66, 57
1, 437336, Note_off_c, 0, 58, 60
1, 437412, Control_c, 0, 67, 58
1, 437565, Note_on_c, 0, 78, 63
1, 437576, Note_on_c, 0, 70, 47
1, 437604, Note_on_c, 0, 37, 44
1, 437605, Control_c, 0, 64, 96
1, 437619, Control_c, 0, 64, 80
1, 437634, Control_c, 0, 64, 66
1, 437649, Control_c, 0, 64, 43
1, 437649, Control_c, 0, 67, 57
1, 437663, Control_c, 0, 64, 17
1, 437678, Control_c, 0, 67, 57
1, 437693, Control_c, 0, 64, 19
1, 437708, Control_c, 0, 64, 37
1, 437708, Control_c, 0, 67, 56
1, 437731, Control_c, 0, 64, 56
1, 437731, Control_c, 0, 67, 56
1, 437745, Control_c, 0, 64, 65
1, 437745, Control_c, 0, 67, 55
1, 437760, Control_c, 0, 64, 69
1, 437760, Control_c, 0, 67, 55
1, 437775, Control_c, 0, 64, 74
1, 437775, Control_c, 0, 67, 54
1, 437790, Control_c, 0, 64, 81
1, 437805, Control_c, 0, 64, 89
1, 437805, Control_c, 0, 67, 54
1, 437819, Control_c, 0, 64, 97
1, 437825, Note_off_c, 0, 37, 50
1, 437834, Control_c, 0, 64, 106
1, 437849, Control_c, 0, 64, 115
1, 437849, Control_c, 0, 67, 53
1, 437864, Control_c, 0, 64, 127
1, 437908, Control_c, 0, 67, 53
1, 437933, Note_on_c, 0, 75, 61
1, 437967, Control_c, 0, 67, 52
1, 437972, Note_on_c, 0, 66, 32
1, 438026, Control_c, 0, 67, 52
1, 438096, Note_off_c, 0, 70, 37
1, 438218, Note_off_c, 0, 78, 32
1, 438255, Note_on_c, 0, 63, 47
1, 438270, Note_on_c, 0, 54, 37
1, 438308, Note_off_c, 0, 66, 41
1, 438324, Control_c, 0, 67, 52
1, 438383, Control_c, 0, 67, 53
1, 438413, Control_c, 0, 67, 53
1, 438428, Control_c, 0, 67, 54
1, 438438, Note_off_c, 0, 63, 60
1, 438442, Control_c, 0, 67, 54
1, 438457, Control_c, 0, 67, 55
1, 438480, Control_c, 0, 67, 56
1, 438494, Control_c, 0, 67, 56
1, 438509, Note_off_c, 0, 75, 36
1, 438509, Control_c, 0, 67, 57
1, 438524, Control_c, 0, 67, 58
1, 438539, Control_c, 0, 67, 59
1, 438554, Control_c, 0, 67, 60
1, 438568, Control_c, 0, 67, 61
1, 438583, Control_c, 0, 67, 63
1, 438598, Control_c, 0, 67, 68
1, 438600, Note_on_c, 0, 65, 50
1, 438613, Control_c, 0, 67, 74
1, 438618, Note_on_c, 0, 56, 50
1, 438628, Control_c, 0, 67, 79
1, 438643, Note_off_c, 0, 65, 60
1, 438643, Control_c, 0, 67, 84
1, 438657, Control_c, 0, 67, 89
1, 438672, Control_c, 0, 67, 92
1, 438687, Control_c, 0, 67, 93
1, 438701, Control_c, 0, 67, 94
1, 438716, Note_off_c, 0, 56, 62
1, 438746, Control_c, 0, 67, 93
1, 438751, Note_off_c, 0, 54, 45
1, 438775, Control_c, 0, 67, 93
1, 438820, Control_c, 0, 67, 92
1, 438879, Control_c, 0, 67, 92
1, 438955, Note_on_c, 0, 77, 60
1, 438969, Control_c, 0, 64, 94
1, 438969, Control_c, 0, 67, 91
1, 438971, Note_on_c, 0, 37, 49
1, 438979, Note_on_c, 0, 68, 38
1, 438984, Control_c, 0, 64, 78
1, 438998, Control_c, 0, 64, 65
1, 438998, Control_c, 0, 67, 91
1, 439013, Control_c, 0, 64, 39
1, 439028, Control_c, 0, 64, 11
1, 439028, Control_c, 0, 67, 90
1, 439058, Control_c, 0, 64, 23
1, 439058, Control_c, 0, 67, 90
1, 439073, Control_c, 0, 64, 49
1, 439073, Control_c, 0, 67, 89
1, 439088, Control_c, 0, 64, 62
1, 439103, Control_c, 0, 64, 66
1, 439103, Control_c, 0, 67, 89
1, 439117, Control_c, 0, 64, 71
1, 439117, Control_c, 0, 67, 88
1, 439132, Control_c, 0, 64, 76
1, 439132, Control_c, 0, 67, 88
1, 439147, Control_c, 0, 64, 83
1, 439147, Control_c, 0, 67, 87
1, 439162, Control_c, 0, 64, 92
1, 439162, Control_c, 0, 67, 87
1, 439174, Note_off_c, 0, 37, 51
1, 439177, Control_c, 0, 64, 100
1, 439177, Control_c, 0, 67, 86
1, 439191, Control_c, 0, 64, 107
1, 439206, Control_c, 0, 64, 115
1, 439206, Control_c, 0, 67, 86
1, 439228, Control_c, 0, 64, 127
1, 439243, Control_c, 0, 67, 85
1, 439302, Control_c, 0, 67, 85
1, 439317, Note_on_c, 0, 73, 53
1, 439336, Note_on_c, 0, 65, 36
1, 439391, Note_off_c, 0, 77, 35
1, 439424, Note_off_c, 0, 68, 33
1, 439510, Control_c, 0, 67, 85
1, 439554, Control_c, 0, 67, 86
1, 439598, Control_c, 0, 67, 86
1, 439635, Note_on_c, 0, 61, 44
1, 439639, Note_on_c, 0, 53, 32
1, 439642, Control_c, 0, 67, 87
1, 439672, Control_c, 0, 67, 87
1, 439687, Control_c, 0, 67, 88
1, 439717, Control_c, 0, 67, 88
1, 439724, Note_off_c, 0, 65, 38
1, 439732, Control_c, 0, 67, 89
1, 439762, Control_c, 0, 67, 89
1, 439773, Note_off_c, 0, 61, 51
1, 439777, Control_c, 0, 67, 90
1, 439792, Control_c, 0, 67, 90
1, 439799, Note_off_c, 0, 73, 56
1, 439807, Control_c, 0, 67, 91
1, 439821, Control_c, 0, 67, 92
1, 439836, Control_c, 0, 67, 93
1, 439851, Control_c, 0, 67, 93
1, 439866, Control_c, 0, 67, 94
1, 439881, Control_c, 0, 67, 95
1, 439895, Control_c, 0, 67, 96
1, 439910, Control_c, 0, 67, 99
1, 439925, Control_c, 0, 67, 104
1, 439940, Control_c, 0, 67, 108
1, 439949, Note_on_c, 0, 63, 44
1, 439955, Control_c, 0, 67, 112
1, 439973, Note_off_c, 0, 53, 46
1, 439977, Control_c, 0, 67, 115
1, 439983, Note_on_c, 0, 54, 43
1, 439992, Control_c, 0, 67, 118
1, 440007, Control_c, 0, 67, 121
1, 440012, Note_off_c, 0, 63, 58
1, 440021, Control_c, 0, 67, 123
1, 440036, Control_c, 0, 67, 123
1, 440051, Control_c, 0, 67, 124
1, 440082, Note_off_c, 0, 54, 62
1, 440318, Control_c, 0, 64, 95
1, 440325, Note_on_c, 0, 72, 49
1, 440333, Control_c, 0, 64, 78
1, 440336, Note_on_c, 0, 63, 32
1, 440345, Note_on_c, 0, 37, 37
1, 440347, Control_c, 0, 64, 64
1, 440362, Control_c, 0, 64, 0
1, 440377, Control_c, 0, 67, 123
1, 440421, Control_c, 0, 67, 123
1, 440436, Control_c, 0, 67, 122
1, 440451, Control_c, 0, 64, 32
1, 440451, Control_c, 0, 67, 122
1, 440465, Control_c, 0, 64, 58
1, 440465, Control_c, 0, 67, 121
1, 440480, Control_c, 0, 64, 65
1, 440480, Control_c, 0, 67, 121
1, 440495, Control_c, 0, 64, 69
1, 440495, Control_c, 0, 67, 120
1, 440510, Control_c, 0, 64, 74
1, 440510, Control_c, 0, 67, 119
1, 440525, Control_c, 0, 64, 79
1, 440525, Control_c, 0, 67, 118
1, 440541, Control_c, 0, 64, 87
1, 440541, Control_c, 0, 67, 118
1, 440556, Control_c, 0, 64, 94
1, 440556, Control_c, 0, 67, 117
1, 440570, Control_c, 0, 64, 100
1, 440570, Control_c, 0, 67, 116
1, 440585, Control_c, 0, 64, 108
1, 440585, Control_c, 0, 67, 115
1, 440600, Control_c, 0, 64, 119
1, 440600, Control_c, 0, 67, 114
1, 440613, Note_off_c, 0, 37, 39
1, 440615, Control_c, 0, 64, 127
1, 440615, Control_c, 0, 67, 114
1, 440630, Control_c, 0, 67, 113
1, 440644, Control_c, 0, 67, 113
1, 440659, Control_c, 0, 67, 112
1, 440669, Note_on_c, 0, 73, 53
1, 440671, Note_on_c, 0, 65, 39
1, 440674, Control_c, 0, 67, 112
1, 440688, Control_c, 0, 67, 111
1, 440703, Control_c, 0, 67, 110
1, 440723, Note_off_c, 0, 63, 37
1, 440726, Note_off_c, 0, 72, 54
1, 440726, Control_c, 0, 67, 108
1, 440741, Control_c, 0, 67, 105
1, 440756, Control_c, 0, 67, 102
1, 440770, Control_c, 0, 67, 100
1, 440785, Control_c, 0, 67, 98
1, 440800, Control_c, 0, 67, 97
1, 440815, Control_c, 0, 67, 96
1, 440830, Control_c, 0, 67, 96
1, 440844, Control_c, 0, 67, 95
1, 440963, Control_c, 0, 67, 95
1, 440978, Control_c, 0, 67, 96
1, 441007, Control_c, 0, 67, 96
1, 441009, Note_on_c, 0, 49, 45
1, 441022, Control_c, 0, 67, 97
1, 441048, Note_on_c, 0, 53, 36
1, 441052, Control_c, 0, 67, 97
1, 441067, Control_c, 0, 67, 98
1, 441096, Control_c, 0, 64, 118
1, 441096, Control_c, 0, 67, 98
1, 441111, Control_c, 0, 64, 100
1, 441113, Note_on_c, 0, 56, 44
1, 441126, Control_c, 0, 64, 89
1, 441126, Control_c, 0, 67, 99
1, 441141, Control_c, 0, 64, 80
1, 441141, Control_c, 0, 67, 99
1, 441156, Control_c, 0, 64, 70
1, 441156, Control_c, 0, 67, 100
1, 441168, Note_on_c, 0, 61, 43
1, 441170, Control_c, 0, 64, 63
1, 441170, Control_c, 0, 67, 100
1, 441185, Control_c, 0, 64, 54
1, 441200, Control_c, 0, 64, 42
1, 441200, Control_c, 0, 67, 101
1, 441215, Control_c, 0, 64, 0
1, 441244, Control_c, 0, 67, 101
1, 441274, Control_c, 0, 67, 102
1, 441364, Control_c, 0, 64, 57
1, 441379, Control_c, 0, 64, 65
1, 441393, Control_c, 0, 64, 69
1, 441393, Control_c, 0, 67, 101
1, 441408, Control_c, 0, 64, 74
1, 441423, Control_c, 0, 64, 80
1, 441423, Control_c, 0, 67, 101
1, 441438, Control_c, 0, 64, 89
1, 441453, Control_c, 0, 64, 98
1, 441475, Control_c, 0, 64, 107
1, 441475, Control_c, 0, 67, 100
1, 441490, Control_c, 0, 64, 122
1, 441505, Control_c, 0, 64, 127
1, 441505, Control_c, 0, 67, 100
1, 441514, Note_off_c, 0, 61, 61
1, 441534, Control_c, 0, 67, 99
1, 441564, Note_off_c, 0, 56, 51
1, 441593, Control_c, 0, 67, 99
1, 441601, Note_off_c, 0, 53, 44
1, 441627, Note_off_c, 0, 49, 61
1, 441630, Note_off_c, 0, 73, 60
1, 441671, Note_off_c, 0, 65, 36
1, 441785, Control_c, 0, 67, 99
1, 441815, Control_c, 0, 67, 100
1, 441905, Control_c, 0, 67, 100
1, 441964, Control_c, 0, 67, 101
1, 442008, Control_c, 0, 67, 101
1, 442036, Note_on_c, 0, 37, 44
1, 442037, Control_c, 0, 64, 124
1, 442052, Control_c, 0, 64, 97
1, 442067, Control_c, 0, 64, 85
1, 442080, Note_on_c, 0, 65, 41
1, 442082, Control_c, 0, 64, 76
1, 442097, Control_c, 0, 64, 71
1, 442111, Control_c, 0, 64, 71
1, 442126, Control_c, 0, 64, 73
1, 442126, Control_c, 0, 67, 101
1, 442128, Note_off_c, 0, 65, 61
1, 442133, Note_on_c, 0, 73, 53
1, 442142, Control_c, 0, 64, 77
1, 442157, Control_c, 0, 64, 82
1, 442172, Control_c, 0, 64, 87
1, 442187, Control_c, 0, 64, 92
1, 442202, Control_c, 0, 64, 99
1, 442202, Control_c, 0, 67, 100
1, 442224, Control_c, 0, 64, 104
1, 442236, Note_on_c, 0, 80, 69
1, 442238, Control_c, 0, 64, 111
1, 442253, Control_c, 0, 64, 122
1, 442268, Control_c, 0, 64, 127
1, 442268, Control_c, 0, 67, 100
1, 442313, Control_c, 0, 67, 99
1, 442328, Control_c, 0, 67, 99
1, 442342, Control_c, 0, 67, 98
1, 442357, Control_c, 0, 67, 98
1, 442372, Control_c, 0, 67, 97
1, 442387, Control_c, 0, 67, 97
1, 442402, Control_c, 0, 67, 96
1, 442431, Control_c, 0, 67, 96
1, 442446, Control_c, 0, 67, 95
1, 442460, Control_c, 0, 67, 95
1, 442504, Note_off_c, 0, 37, 41
1, 442505, Control_c, 0, 67, 94
1, 442565, Control_c, 0, 67, 95
1, 442644, Note_on_c, 0, 78, 52
1, 442654, Control_c, 0, 67, 95
1, 442665, Note_on_c, 0, 70, 39
1, 442683, Control_c, 0, 67, 96
1, 442708, Note_off_c, 0, 73, 49
1, 442847, Control_c, 0, 67, 95
1, 442861, Control_c, 0, 67, 95
1, 442891, Control_c, 0, 67, 94
1, 442936, Control_c, 0, 67, 94
1, 442977, Note_on_c, 0, 66, 40
1, 442988, Control_c, 0, 67, 93
1, 442998, Note_on_c, 0, 58, 41
1, 443018, Control_c, 0, 67, 93
1, 443033, Control_c, 0, 67, 92
1, 443047, Control_c, 0, 67, 88
1, 443062, Control_c, 0, 67, 84
1, 443077, Control_c, 0, 67, 80
1, 443091, Control_c, 0, 67, 77
1, 443106, Control_c, 0, 67, 73
1, 443121, Control_c, 0, 67, 69
1, 443127, Note_off_c, 0, 66, 58
1, 443136, Control_c, 0, 67, 66
1, 443151, Control_c, 0, 67, 63
1, 443166, Control_c, 0, 67, 60
1, 443177, Note_off_c, 0, 70, 48
1, 443180, Control_c, 0, 67, 57
1, 443195, Control_c, 0, 67, 55
1, 443210, Control_c, 0, 67, 54
1, 443213, Note_off_c, 0, 80, 49
1, 443225, Control_c, 0, 67, 53
1, 443240, Control_c, 0, 67, 52
1, 443264, Note_off_c, 0, 78, 59
1, 443288, Note_on_c, 0, 65, 49
1, 443303, Note_on_c, 0, 56, 50
1, 443332, Note_off_c, 0, 65, 58
1, 443364, Note_off_c, 0, 58, 37
1, 443402, Control_c, 0, 67, 53
1, 443410, Note_off_c, 0, 56, 62
1, 443446, Control_c, 0, 67, 53
1, 443461, Control_c, 0, 67, 54
1, 443490, Control_c, 0, 67, 54
1, 443520, Control_c, 0, 67, 55
1, 443535, Control_c, 0, 67, 55
1, 443565, Control_c, 0, 67, 56
1, 443609, Note_on_c, 0, 68, 50
1, 443609, Control_c, 0, 67, 56
1, 443623, Note_on_c, 0, 77, 59
1, 443639, Control_c, 0, 64, 109
1, 443654, Control_c, 0, 64, 87
1, 443659, Note_on_c, 0, 37, 39
1, 443669, Control_c, 0, 64, 72
1, 443683, Control_c, 0, 64, 60
1, 443690, Note_on_c, 0, 80, 71
1, 443698, Control_c, 0, 64, 53
1, 443720, Control_c, 0, 64, 58
1, 443736, Control_c, 0, 64, 63
1, 443751, Control_c, 0, 64, 66
1, 443759, Note_off_c, 0, 77, 58
1, 443766, Control_c, 0, 64, 71
1, 443766, Control_c, 0, 67, 56
1, 443781, Control_c, 0, 64, 77
1, 443795, Control_c, 0, 64, 84
1, 443795, Control_c, 0, 67, 55
1, 443802, Note_off_c, 0, 68, 60
1, 443810, Control_c, 0, 64, 92
1, 443825, Control_c, 0, 64, 103
1, 443825, Control_c, 0, 67, 55
1, 443840, Control_c, 0, 64, 115
1, 443855, Control_c, 0, 64, 127
1, 443855, Control_c, 0, 67, 54
1, 443965, Note_off_c, 0, 37, 41
1, 444024, Note_on_c, 0, 75, 52
1, 444042, Note_on_c, 0, 66, 38
1, 444363, Note_on_c, 0, 63, 50
1, 444376, Note_on_c, 0, 54, 40
1, 444397, Note_off_c, 0, 66, 35
1, 444484, Control_c, 0, 67, 55
1, 444528, Control_c, 0, 67, 55
1, 444562, Note_off_c, 0, 63, 59
1, 444574, Control_c, 0, 67, 56
1, 444587, Note_off_c, 0, 80, 56
1, 444604, Control_c, 0, 67, 56
1, 444633, Control_c, 0, 67, 57
1, 444648, Control_c, 0, 67, 57
1, 444662, Control_c, 0, 67, 58
1, 444677, Control_c, 0, 67, 59
1, 444692, Note_off_c, 0, 75, 37
1, 444692, Control_c, 0, 67, 61
1, 444707, Control_c, 0, 67, 61
1, 444716, Note_on_c, 0, 65, 49
1, 444722, Note_on_c, 0, 56, 49
1, 444722, Control_c, 0, 67, 62
1, 444736, Control_c, 0, 67, 62
1, 444751, Control_c, 0, 67, 63
1, 444761, Note_off_c, 0, 65, 60
1, 444766, Control_c, 0, 67, 63
1, 444840, Note_off_c, 0, 56, 61
1, 444866, Note_off_c, 0, 54, 40
1, 445026, Note_on_c, 0, 68, 49
1, 445048, Note_on_c, 0, 77, 58
1, 445062, Control_c, 0, 64, 108
1, 445077, Control_c, 0, 64, 88
1, 445092, Control_c, 0, 64, 73
1, 445092, Control_c, 0, 67, 63
1, 445100, Note_on_c, 0, 37, 43
1, 445107, Control_c, 0, 64, 61
1, 445115, Note_on_c, 0, 80, 68
1, 445122, Control_c, 0, 64, 51
1, 445122, Control_c, 0, 67, 62
1, 445136, Control_c, 0, 64, 53
1, 445136, Control_c, 0, 67, 62
1, 445151, Control_c, 0, 64, 60
1, 445166, Control_c, 0, 64, 65
1, 445166, Control_c, 0, 67, 61
1, 445168, Note_off_c, 0, 77, 55
1, 445181, Control_c, 0, 64, 69
1, 445196, Control_c, 0, 64, 75
1, 445196, Control_c, 0, 67, 61
1, 445218, Control_c, 0, 64, 83
1, 445218, Control_c, 0, 67, 60
1, 445231, Note_off_c, 0, 68, 40
1, 445233, Control_c, 0, 64, 93
1, 445248, Control_c, 0, 64, 109
1, 445262, Control_c, 0, 64, 127
1, 445277, Control_c, 0, 67, 60
1, 445308, Note_off_c, 0, 80, 57
1, 445371, Note_off_c, 0, 37, 40
1, 445382, Control_c, 0, 67, 59
1, 445441, Control_c, 0, 67, 59
1, 445449, Note_on_c, 0, 73, 57
1, 445473, Note_on_c, 0, 65, 35
1, 445530, Control_c, 0, 67, 58
1, 445720, Note_off_c, 0, 65, 53
1, 445751, Control_c, 0, 67, 59
1, 445762, Note_on_c, 0, 61, 44
1, 445766, Control_c, 0, 67, 59
1, 445774, Note_on_c, 0, 53, 33
1, 445796, Control_c, 0, 67, 60
1, 445825, Control_c, 0, 67, 60
1, 445840, Control_c, 0, 67, 61
1, 445855, Control_c, 0, 67, 61
1, 445872, Note_off_c, 0, 73, 37
1, 445884, Control_c, 0, 67, 62
1, 445899, Control_c, 0, 67, 63
1, 445908, Note_off_c, 0, 61, 60
1, 445914, Control_c, 0, 67, 63
1, 445929, Control_c, 0, 67, 64
1, 445944, Control_c, 0, 67, 65
1, 445966, Control_c, 0, 67, 66
1, 445981, Control_c, 0, 67, 68
1, 445996, Control_c, 0, 67, 74
1, 446010, Control_c, 0, 67, 79
1, 446025, Control_c, 0, 67, 84
1, 446040, Control_c, 0, 67, 89
1, 446055, Control_c, 0, 67, 95
1, 446070, Control_c, 0, 67, 100
1, 446084, Note_on_c, 0, 63, 52
1, 446084, Control_c, 0, 67, 103
1, 446095, Note_off_c, 0, 53, 54
1, 446099, Control_c, 0, 67, 105
1, 446108, Note_on_c, 0, 54, 49
1, 446114, Control_c, 0, 67, 106
1, 446128, Note_off_c, 0, 63, 60
1, 446189, Note_off_c, 0, 54, 63
1, 446189, Control_c, 0, 67, 106
1, 446204, Control_c, 0, 67, 105
1, 446219, Control_c, 0, 67, 105
1, 446263, Control_c, 0, 67, 104
1, 446399, Note_on_c, 0, 66, 43
1, 446426, Control_c, 0, 64, 95
1, 446433, Note_on_c, 0, 75, 54
1, 446441, Control_c, 0, 64, 78
1, 446450, Note_on_c, 0, 37, 39
1, 446456, Control_c, 0, 64, 65
1, 446471, Control_c, 0, 64, 55
1, 446486, Control_c, 0, 64, 58
1, 446500, Control_c, 0, 64, 63
1, 446501, Note_on_c, 0, 80, 64
1, 446514, Note_off_c, 0, 66, 53
1, 446515, Control_c, 0, 64, 67
1, 446515, Control_c, 0, 67, 104
1, 446530, Control_c, 0, 64, 72
1, 446545, Control_c, 0, 64, 79
1, 446560, Control_c, 0, 64, 88
1, 446560, Control_c, 0, 67, 103
1, 446574, Control_c, 0, 64, 99
1, 446574, Control_c, 0, 67, 103
1, 446589, Control_c, 0, 64, 111
1, 446600, Note_off_c, 0, 75, 59
1, 446604, Control_c, 0, 64, 127
1, 446607, Note_off_c, 0, 80, 60
1, 446633, Control_c, 0, 67, 102
1, 446825, Note_off_c, 0, 37, 41
1, 446835, Note_on_c, 0, 68, 46
1, 446839, Note_on_c, 0, 60, 34
1, 446998, Control_c, 0, 67, 102
1, 447056, Control_c, 0, 67, 101
1, 447086, Control_c, 0, 67, 101
1, 447101, Control_c, 0, 67, 100
1, 447116, Control_c, 0, 67, 100
1, 447130, Control_c, 0, 67, 99
1, 447145, Control_c, 0, 67, 99
1, 447160, Control_c, 0, 67, 98
1, 447175, Control_c, 0, 67, 97
1, 447190, Note_on_c, 0, 56, 49
1, 447190, Control_c, 0, 67, 97
1, 447199, Note_on_c, 0, 49, 51
1, 447205, Control_c, 0, 67, 96
1, 447220, Control_c, 0, 67, 96
1, 447234, Control_c, 0, 67, 95
1, 447249, Control_c, 0, 67, 94
1, 447264, Control_c, 0, 67, 94
1, 447279, Control_c, 0, 67, 93
1, 447294, Control_c, 0, 67, 93
1, 447308, Note_off_c, 0, 60, 38
1, 447309, Control_c, 0, 67, 91
1, 447323, Control_c, 0, 67, 90
1, 447338, Control_c, 0, 67, 88
1, 447353, Control_c, 0, 67, 86
1, 447368, Control_c, 0, 67, 83
1, 447383, Control_c, 0, 67, 80
1, 447397, Control_c, 0, 67, 76
1, 447412, Control_c, 0, 67, 70
1, 447424, Note_off_c, 0, 68, 23
1, 447427, Control_c, 0, 67, 64
1, 447442, Control_c, 0, 67, 57
1, 447464, Control_c, 0, 67, 51
1, 447479, Control_c, 0, 67, 44
1, 447494, Control_c, 0, 67, 38
1, 447509, Control_c, 0, 67, 34
1, 447524, Control_c, 0, 67, 30
1, 447538, Control_c, 0, 67, 27
1, 447553, Control_c, 0, 67, 25
1, 447563, Note_off_c, 0, 56, 61
1, 447568, Control_c, 0, 67, 23
1, 447582, Control_c, 0, 67, 23
1, 447642, Note_off_c, 0, 49, 61
1, 447686, Control_c, 0, 67, 23
1, 447701, Control_c, 0, 67, 24
1, 447716, Control_c, 0, 67, 24
1, 447747, Control_c, 0, 67, 25
1, 447776, Control_c, 0, 67, 25
1, 447821, Control_c, 0, 67, 26
1, 447865, Control_c, 0, 67, 26
1, 447894, Control_c, 0, 67, 27
1, 447924, Control_c, 0, 67, 27
1, 447953, Control_c, 0, 67, 28
1, 447983, Control_c, 0, 64, 118
1, 447988, Note_on_c, 0, 37, 50
1, 447989, Note_on_c, 0, 73, 59
1, 447997, Note_on_c, 0, 65, 44
1, 447998, Control_c, 0, 64, 87
1, 448013, Control_c, 0, 64, 72
1, 448027, Control_c, 0, 64, 62
1, 448042, Control_c, 0, 64, 59
1, 448057, Control_c, 0, 64, 62
1, 448072, Control_c, 0, 64, 66
1, 448082, Note_off_c, 0, 65, 55
1, 448087, Control_c, 0, 64, 71
1, 448102, Control_c, 0, 64, 78
1, 448117, Control_c, 0, 64, 88
1, 448132, Control_c, 0, 64, 100
1, 448136, Note_off_c, 0, 73, 62
1, 448146, Control_c, 0, 64, 117
1, 448161, Control_c, 0, 64, 127
1, 448250, Note_off_c, 0, 37, 39
1, 448274, Note_on_c, 0, 71, 55
1, 448311, Note_off_c, 0, 71, 64
1, 448325, Note_on_c, 0, 80, 56
1, 448376, Control_c, 0, 67, 27
1, 448399, Note_on_c, 0, 85, 76
1, 448439, Note_off_c, 0, 80, 58
1, 448479, Control_c, 0, 67, 27
1, 448677, Note_on_c, 0, 59, 46
1, 448681, Note_on_c, 0, 68, 48
1, 448835, Control_c, 0, 67, 27
1, 448850, Note_off_c, 0, 68, 61
1, 448865, Control_c, 0, 67, 28
1, 448868, Note_off_c, 0, 85, 58
1, 448895, Control_c, 0, 67, 28
1, 448925, Control_c, 0, 67, 29
1, 448977, Control_c, 0, 67, 29
1, 449030, Note_on_c, 0, 66, 49
1, 449039, Note_on_c, 0, 58, 58
1, 449074, Note_off_c, 0, 59, 60
1, 449099, Note_off_c, 0, 66, 61
1, 449154, Note_off_c, 0, 58, 60
1, 449372, Note_on_c, 0, 78, 60
1, 449383, Note_on_c, 0, 70, 49
1, 449393, Control_c, 0, 64, 95
1, 449395, Note_on_c, 0, 37, 46
1, 449408, Control_c, 0, 64, 78
1, 449422, Control_c, 0, 64, 64
1, 449437, Control_c, 0, 64, 58
1, 449452, Control_c, 0, 64, 61
1, 449467, Control_c, 0, 64, 64
1, 449480, Note_off_c, 0, 70, 60
1, 449482, Control_c, 0, 64, 67
1, 449497, Control_c, 0, 64, 72
1, 449512, Control_c, 0, 64, 78
1, 449526, Control_c, 0, 64, 88
1, 449541, Control_c, 0, 64, 97
1, 449556, Control_c, 0, 64, 109
1, 449566, Note_off_c, 0, 78, 52
1, 449571, Control_c, 0, 64, 127
1, 449587, Note_off_c, 0, 37, 39
1, 449628, Note_on_c, 0, 66, 52
1, 449644, Control_c, 0, 67, 29
1, 449657, Note_off_c, 0, 66, 64
1, 449689, Note_on_c, 0, 75, 66
1, 449712, Control_c, 0, 67, 28
1, 449720, Note_off_c, 0, 75, 68
1, 449801, Control_c, 0, 67, 28
1, 449809, Note_on_c, 0, 85, 70
1, 449845, Control_c, 0, 67, 27
1, 450088, Note_on_c, 0, 63, 55
1, 450097, Note_on_c, 0, 54, 45
1, 450249, Note_off_c, 0, 85, 62
1, 450274, Control_c, 0, 67, 28
1, 450300, Note_off_c, 0, 63, 60
1, 450408, Control_c, 0, 67, 28
1, 450446, Note_on_c, 0, 65, 50
1, 450460, Note_on_c, 0, 56, 51
1, 450473, Note_off_c, 0, 65, 60
1, 450504, Control_c, 0, 67, 29
1, 450549, Note_off_c, 0, 56, 62
1, 450557, Note_off_c, 0, 54, 50
1, 450637, Control_c, 0, 67, 29
1, 450711, Control_c, 0, 67, 30
1, 450755, Control_c, 0, 64, 112
1, 450766, Note_on_c, 0, 77, 57
1, 450770, Note_on_c, 0, 68, 45
1, 450770, Control_c, 0, 64, 87
1, 450785, Control_c, 0, 64, 70
1, 450787, Note_on_c, 0, 37, 39
1, 450800, Control_c, 0, 64, 56
1, 450815, Control_c, 0, 64, 41
1, 450829, Control_c, 0, 64, 44
1, 450844, Control_c, 0, 64, 58
1, 450859, Control_c, 0, 64, 64
1, 450871, Note_off_c, 0, 68, 48
1, 450874, Control_c, 0, 64, 69
1, 450889, Control_c, 0, 64, 74
1, 450904, Control_c, 0, 64, 80
1, 450919, Control_c, 0, 64, 89
1, 450926, Note_off_c, 0, 77, 50
1, 450934, Control_c, 0, 64, 99
1, 450949, Control_c, 0, 64, 113
1, 450949, Control_c, 0, 67, 29
1, 450964, Control_c, 0, 64, 127
1, 450973, Note_off_c, 0, 37, 39
1, 451025, Note_on_c, 0, 65, 47
1, 451038, Control_c, 0, 67, 29
1, 451055, Note_off_c, 0, 65, 64
1, 451086, Note_on_c, 0, 73, 63
1, 451097, Control_c, 0, 67, 28
1, 451107, Note_off_c, 0, 73, 65
1, 451218, Note_on_c, 0, 85, 72
1, 451479, Note_on_c, 0, 53, 38
1, 451482, Note_on_c, 0, 61, 46
1, 451519, Control_c, 0, 67, 29
1, 451564, Control_c, 0, 67, 29
1, 451593, Control_c, 0, 67, 30
1, 451604, Note_off_c, 0, 85, 62
1, 451622, Control_c, 0, 67, 30
1, 451637, Control_c, 0, 67, 31
1, 451652, Control_c, 0, 67, 31
1, 451655, Note_off_c, 0, 61, 61
1, 451667, Control_c, 0, 67, 32
1, 451682, Control_c, 0, 67, 33
1, 451697, Control_c, 0, 67, 33
1, 451712, Control_c, 0, 67, 34
1, 451727, Control_c, 0, 67, 35
1, 451742, Control_c, 0, 67, 37
1, 451757, Control_c, 0, 67, 41
1, 451772, Control_c, 0, 67, 48
1, 451787, Control_c, 0, 67, 55
1, 451801, Control_c, 0, 67, 65
1, 451816, Control_c, 0, 67, 76
1, 451817, Note_on_c, 0, 54, 50
1, 451819, Note_on_c, 0, 63, 48
1, 451821, Note_off_c, 0, 53, 51
1, 451831, Control_c, 0, 67, 84
1, 451846, Control_c, 0, 67, 90
1, 451854, Note_off_c, 0, 63, 65
1, 451861, Control_c, 0, 67, 95
1, 451876, Control_c, 0, 67, 98
1, 451891, Control_c, 0, 67, 100
1, 451906, Note_off_c, 0, 54, 64
1, 451906, Control_c, 0, 67, 100
1, 451987, Control_c, 0, 67, 100
1, 452031, Control_c, 0, 67, 99
1, 452061, Control_c, 0, 67, 99
1, 452150, Control_c, 0, 67, 98
1, 452165, Control_c, 0, 64, 96
1, 452168, Note_on_c, 0, 63, 46
1, 452180, Control_c, 0, 64, 77
1, 452194, Control_c, 0, 64, 66
1, 452194, Control_c, 0, 67, 98
1, 452200, Note_on_c, 0, 37, 35
1, 452209, Control_c, 0, 64, 60
1, 452213, Note_off_c, 0, 63, 61
1, 452224, Control_c, 0, 64, 61
1, 452224, Control_c, 0, 67, 97
1, 452229, Note_on_c, 0, 72, 49
1, 452239, Control_c, 0, 64, 64
1, 452253, Control_c, 0, 64, 67
1, 452253, Control_c, 0, 67, 97
1, 452268, Control_c, 0, 64, 71
1, 452284, Control_c, 0, 64, 76
1, 452284, Control_c, 0, 67, 96
1, 452299, Control_c, 0, 64, 82
1, 452299, Control_c, 0, 67, 96
1, 452314, Control_c, 0, 64, 88
1, 452314, Control_c, 0, 67, 95
1, 452328, Control_c, 0, 64, 93
1, 452328, Control_c, 0, 67, 94
1, 452334, Note_on_c, 0, 80, 58
1, 452343, Control_c, 0, 64, 99
1, 452343, Control_c, 0, 67, 94
1, 452358, Control_c, 0, 64, 105
1, 452372, Control_c, 0, 64, 113
1, 452372, Control_c, 0, 67, 93
1, 452387, Control_c, 0, 64, 127
1, 452387, Control_c, 0, 67, 93
1, 452402, Control_c, 0, 67, 92
1, 452417, Control_c, 0, 67, 92
1, 452419, Note_off_c, 0, 72, 36
1, 452446, Control_c, 0, 67, 91
1, 452454, Note_off_c, 0, 80, 54
1, 452461, Control_c, 0, 67, 90
1, 452476, Control_c, 0, 67, 90
1, 452506, Control_c, 0, 67, 89
1, 452522, Note_off_c, 0, 37, 41
1, 452640, Control_c, 0, 67, 90
1, 452651, Note_on_c, 0, 73, 51
1, 452669, Note_on_c, 0, 65, 33
1, 452707, Control_c, 0, 67, 90
1, 452766, Control_c, 0, 67, 91
1, 452795, Control_c, 0, 67, 91
1, 452810, Control_c, 0, 67, 92
1, 452825, Control_c, 0, 67, 92
1, 452855, Control_c, 0, 67, 93
1, 452869, Control_c, 0, 67, 93
1, 452899, Control_c, 0, 67, 94
1, 452929, Control_c, 0, 67, 94
1, 452958, Control_c, 0, 67, 95
1, 452982, Note_on_c, 0, 49, 36
1, 452988, Control_c, 0, 67, 95
1, 453003, Control_c, 0, 67, 96
1, 453017, Control_c, 0, 67, 96
1, 453028, Note_on_c, 0, 53, 33
1, 453047, Control_c, 0, 67, 97
1, 453062, Control_c, 0, 67, 97
1, 453077, Control_c, 0, 67, 98
1, 453080, Note_on_c, 0, 56, 40
1, 453092, Control_c, 0, 67, 98
1, 453122, Control_c, 0, 67, 99
1, 453126, Note_on_c, 0, 61, 39
1, 453137, Control_c, 0, 67, 100
1, 453151, Control_c, 0, 67, 100
1, 453166, Control_c, 0, 64, 109
1, 453166, Control_c, 0, 67, 101
1, 453181, Control_c, 0, 64, 99
1, 453181, Control_c, 0, 67, 102
1, 453195, Control_c, 0, 64, 91
1, 453195, Control_c, 0, 67, 103
1, 453210, Control_c, 0, 64, 84
1, 453210, Control_c, 0, 67, 107
1, 453225, Control_c, 0, 64, 76
1, 453225, Control_c, 0, 67, 111
1, 453240, Control_c, 0, 64, 68
1, 453240, Control_c, 0, 67, 115
1, 453255, Control_c, 0, 64, 61
1, 453255, Control_c, 0, 67, 119
1, 453269, Control_c, 0, 64, 53
1, 453269, Control_c, 0, 67, 123
1, 453284, Control_c, 0, 64, 49
1, 453284, Control_c, 0, 67, 127
1, 453299, Control_c, 0, 64, 46
1, 453299, Control_c, 0, 67, 127
1, 453315, Control_c, 0, 64, 46
1, 453345, Control_c, 0, 64, 47
1, 453360, Control_c, 0, 64, 53
1, 453374, Control_c, 0, 64, 61
1, 453389, Control_c, 0, 64, 64
1, 453404, Control_c, 0, 64, 67
1, 453418, Control_c, 0, 64, 69
1, 453433, Control_c, 0, 64, 72
1, 453456, Control_c, 0, 64, 76
1, 453471, Control_c, 0, 64, 80
1, 453485, Control_c, 0, 64, 84
1, 453500, Control_c, 0, 64, 88
1, 453515, Control_c, 0, 64, 93
1, 453530, Control_c, 0, 64, 97
1, 453538, Note_off_c, 0, 61, 40
1, 453545, Control_c, 0, 64, 102
1, 453560, Control_c, 0, 64, 108
1, 453574, Control_c, 0, 64, 117
1, 453589, Control_c, 0, 64, 127
1, 453632, Note_off_c, 0, 65, 42
1, 453670, Note_off_c, 0, 73, 56
1, 453719, Note_off_c, 0, 56, 34
1, 453734, Note_off_c, 0, 53, 41
1, 453801, Note_off_c, 0, 49, 39
1, 454390, Note_on_c, 0, 70, 37
1, 454392, Note_on_c, 0, 61, 33
1, 454395, Note_on_c, 0, 34, 37
1, 454396, Control_c, 0, 64, 108
1, 454411, Control_c, 0, 64, 95
1, 454426, Control_c, 0, 64, 84
1, 454441, Control_c, 0, 64, 75
1, 454455, Control_c, 0, 64, 66
1, 454470, Control_c, 0, 64, 58
1, 454485, Control_c, 0, 64, 55
1, 454529, Control_c, 0, 64, 56
1, 454544, Control_c, 0, 64, 60
1, 454559, Control_c, 0, 64, 64
1, 454573, Control_c, 0, 64, 67
1, 454588, Control_c, 0, 64, 70
1, 454603, Control_c, 0, 64, 74
1, 454618, Control_c, 0, 64, 78
1, 454633, Control_c, 0, 64, 83
1, 454648, Control_c, 0, 64, 88
1, 454652, Note_off_c, 0, 34, 55
1, 454663, Control_c, 0, 64, 94
1, 454678, Control_c, 0, 64, 99
1, 454693, Control_c, 0, 64, 104
1, 454708, Control_c, 0, 64, 110
1, 454722, Control_c, 0, 64, 126
1, 454737, Control_c, 0, 64, 127
1, 454803, Note_off_c, 0, 61, 40
1, 454833, Note_on_c, 0, 73, 49
1, 454860, Note_on_c, 0, 65, 39
1, 454945, Note_off_c, 0, 70, 32
1, 455071, Note_off_c, 0, 73, 62
1, 455160, Note_on_c, 0, 61, 42
1, 455168, Note_on_c, 0, 53, 20
1, 455194, Note_off_c, 0, 65, 39
1, 455252, Note_off_c, 0, 53, 42
1, 455473, Note_on_c, 0, 58, 42
1, 455478, Note_on_c, 0, 63, 25
1, 455499, Note_off_c, 0, 61, 41
1, 455518, Note_off_c, 0, 63, 51
1, 455533, Note_off_c, 0, 58, 59
1, 455819, Note_on_c, 0, 77, 53
1, 455835, Control_c, 0, 64, 98
1, 455837, Note_on_c, 0, 41, 34
1, 455841, Note_on_c, 0, 68, 32
1, 455850, Control_c, 0, 64, 83
1, 455865, Control_c, 0, 64, 72
1, 455880, Control_c, 0, 64, 64
1, 455894, Control_c, 0, 64, 61
1, 455909, Control_c, 0, 64, 61
1, 455924, Control_c, 0, 64, 63
1, 455939, Control_c, 0, 64, 65
1, 455954, Control_c, 0, 64, 67
1, 455969, Control_c, 0, 64, 71
1, 455983, Control_c, 0, 64, 75
1, 455998, Control_c, 0, 64, 79
1, 456013, Control_c, 0, 64, 84
1, 456028, Control_c, 0, 64, 89
1, 456039, Note_off_c, 0, 41, 43
1, 456043, Control_c, 0, 64, 94
1, 456058, Control_c, 0, 64, 99
1, 456073, Control_c, 0, 64, 106
1, 456087, Control_c, 0, 64, 116
1, 456102, Control_c, 0, 64, 127
1, 456167, Note_on_c, 0, 72, 44
1, 456179, Note_on_c, 0, 65, 37
1, 456212, Note_off_c, 0, 68, 39
1, 456240, Note_off_c, 0, 77, 35
1, 456253, Note_off_c, 0, 65, 53
1, 456478, Note_on_c, 0, 65, 46
1, 456486, Note_on_c, 0, 56, 43
1, 456506, Note_off_c, 0, 72, 59
1, 456612, Note_off_c, 0, 65, 54
1, 456797, Note_on_c, 0, 53, 34
1, 456801, Note_on_c, 0, 60, 41
1, 456838, Note_off_c, 0, 60, 64
1, 456859, Note_off_c, 0, 53, 62
1, 456861, Note_off_c, 0, 56, 56
1, 457116, Note_on_c, 0, 70, 51
1, 457117, Control_c, 0, 64, 102
1, 457132, Note_on_c, 0, 61, 41
1, 457132, Control_c, 0, 64, 76
1, 457134, Note_on_c, 0, 42, 38
1, 457147, Control_c, 0, 64, 45
1, 457161, Control_c, 0, 64, 0
1, 457334, Control_c, 0, 64, 55
1, 457348, Control_c, 0, 64, 64
1, 457363, Control_c, 0, 64, 68
1, 457378, Control_c, 0, 64, 73
1, 457392, Control_c, 0, 64, 79
1, 457407, Control_c, 0, 64, 88
1, 457422, Control_c, 0, 64, 99
1, 457437, Control_c, 0, 64, 111
1, 457452, Control_c, 0, 64, 127
1, 457456, Note_off_c, 0, 42, 49
1, 457498, Note_on_c, 0, 73, 47
1, 457515, Note_on_c, 0, 66, 39
1, 457544, Note_off_c, 0, 61, 40
1, 457602, Note_off_c, 0, 70, 34
1, 457806, Note_on_c, 0, 54, 33
1, 457808, Note_on_c, 0, 61, 43
1, 457827, Note_off_c, 0, 73, 61
1, 457927, Note_off_c, 0, 66, 58
1, 457969, Note_off_c, 0, 54, 50
1, 458137, Note_on_c, 0, 63, 33
1, 458141, Note_on_c, 0, 58, 45
1, 458148, Note_off_c, 0, 61, 47
1, 458171, Note_off_c, 0, 63, 54
1, 458201, Note_off_c, 0, 58, 56
1, 458466, Note_on_c, 0, 77, 54
1, 458467, Control_c, 0, 64, 115
1, 458481, Control_c, 0, 64, 90
1, 458486, Note_on_c, 0, 68, 40
1, 458487, Note_on_c, 0, 37, 35
1, 458496, Control_c, 0, 64, 73
1, 458511, Control_c, 0, 64, 55
1, 458526, Control_c, 0, 64, 0
1, 458585, Control_c, 0, 64, 52
1, 458600, Control_c, 0, 64, 64
1, 458614, Control_c, 0, 64, 69
1, 458629, Control_c, 0, 64, 74
1, 458644, Control_c, 0, 64, 81
1, 458659, Control_c, 0, 64, 89
1, 458674, Control_c, 0, 64, 97
1, 458696, Control_c, 0, 64, 105
1, 458698, Note_off_c, 0, 37, 49
1, 458711, Control_c, 0, 64, 114
1, 458726, Control_c, 0, 64, 127
1, 458846, Note_off_c, 0, 68, 38
1, 458851, Note_on_c, 0, 73, 50
1, 458870, Note_on_c, 0, 65, 26
1, 458908, Note_off_c, 0, 77, 37
1, 458961, Note_off_c, 0, 65, 39
1, 459146, Note_on_c, 0, 65, 39
1, 459162, Note_on_c, 0, 56, 36
1, 459253, Note_off_c, 0, 73, 49
1, 459280, Note_off_c, 0, 65, 56
1, 459393, Control_c, 0, 67, 125
1, 459408, Control_c, 0, 67, 122
1, 459423, Control_c, 0, 67, 119
1, 459444, Control_c, 0, 67, 115
1, 459459, Control_c, 0, 67, 110
1, 459474, Control_c, 0, 67, 106
1, 459475, Note_on_c, 0, 61, 48
1, 459483, Note_on_c, 0, 53, 46
1, 459489, Control_c, 0, 67, 102
1, 459504, Control_c, 0, 67, 100
1, 459519, Control_c, 0, 67, 97
1, 459524, Note_off_c, 0, 61, 58
1, 459534, Control_c, 0, 67, 95
1, 459543, Note_off_c, 0, 53, 63
1, 459549, Control_c, 0, 67, 93
1, 459563, Control_c, 0, 67, 92
1, 459575, Note_off_c, 0, 56, 43
1, 459578, Control_c, 0, 67, 92
1, 459652, Control_c, 0, 67, 92
1, 459667, Control_c, 0, 67, 93
1, 459697, Control_c, 0, 67, 93
1, 459713, Control_c, 0, 67, 94
1, 459727, Control_c, 0, 67, 94
1, 459742, Control_c, 0, 67, 95
1, 459757, Control_c, 0, 67, 96
1, 459786, Control_c, 0, 67, 96
1, 459801, Note_on_c, 0, 73, 57
1, 459812, Note_on_c, 0, 64, 43
1, 459816, Control_c, 0, 64, 98
1, 459816, Control_c, 0, 67, 97
1, 459823, Note_on_c, 0, 37, 40
1, 459831, Control_c, 0, 64, 80
1, 459846, Control_c, 0, 64, 66
1, 459860, Control_c, 0, 64, 44
1, 459875, Control_c, 0, 64, 33
1, 459890, Control_c, 0, 64, 42
1, 459905, Control_c, 0, 64, 56
1, 459905, Control_c, 0, 67, 96
1, 459920, Control_c, 0, 64, 64
1, 459920, Control_c, 0, 67, 96
1, 459934, Control_c, 0, 64, 68
1, 459949, Control_c, 0, 64, 73
1, 459949, Control_c, 0, 67, 95
1, 459964, Control_c, 0, 64, 80
1, 459964, Control_c, 0, 67, 94
1, 459978, Control_c, 0, 64, 89
1, 459978, Control_c, 0, 67, 94
1, 459993, Control_c, 0, 64, 99
1, 459993, Control_c, 0, 67, 93
1, 460008, Control_c, 0, 64, 110
1, 460008, Control_c, 0, 67, 93
1, 460023, Control_c, 0, 64, 127
1, 460023, Control_c, 0, 67, 92
1, 460029, Note_off_c, 0, 37, 39
1, 460038, Control_c, 0, 67, 92
1, 460053, Control_c, 0, 67, 91
1, 460067, Control_c, 0, 67, 90
1, 460082, Control_c, 0, 67, 90
1, 460097, Control_c, 0, 67, 88
1, 460112, Control_c, 0, 67, 84
1, 460127, Control_c, 0, 67, 78
1, 460141, Note_on_c, 0, 76, 64
1, 460142, Control_c, 0, 67, 73
1, 460154, Note_on_c, 0, 68, 43
1, 460157, Control_c, 0, 67, 68
1, 460172, Control_c, 0, 67, 64
1, 460193, Control_c, 0, 67, 61
1, 460208, Control_c, 0, 67, 58
1, 460215, Note_off_c, 0, 73, 57
1, 460223, Control_c, 0, 67, 56
1, 460238, Control_c, 0, 67, 53
1, 460253, Control_c, 0, 67, 50
1, 460267, Control_c, 0, 67, 47
1, 460270, Note_off_c, 0, 64, 41
1, 460282, Control_c, 0, 67, 45
1, 460297, Control_c, 0, 67, 42
1, 460312, Control_c, 0, 67, 40
1, 460327, Control_c, 0, 67, 37
1, 460341, Control_c, 0, 67, 35
1, 460356, Control_c, 0, 67, 32
1, 460371, Control_c, 0, 67, 29
1, 460386, Control_c, 0, 67, 27
1, 460394, Note_off_c, 0, 68, 37
1, 460401, Control_c, 0, 67, 24
1, 460416, Control_c, 0, 67, 22
1, 460430, Note_on_c, 0, 56, 47
1, 460431, Control_c, 0, 67, 19
1, 460439, Note_on_c, 0, 64, 49
1, 460446, Control_c, 0, 67, 16
1, 460460, Control_c, 0, 67, 14
1, 460475, Control_c, 0, 67, 12
1, 460490, Control_c, 0, 67, 9
1, 460505, Control_c, 0, 67, 0
1, 460535, Note_off_c, 0, 76, 37
1, 460571, Note_off_c, 0, 56, 60
1, 460750, Note_on_c, 0, 68, 54
1, 460770, Note_on_c, 0, 61, 57
1, 460812, Note_off_c, 0, 68, 61
1, 460815, Note_off_c, 0, 64, 61
1, 460872, Note_off_c, 0, 61, 61
1, 461182, Note_on_c, 0, 83, 63
1, 461191, Note_on_c, 0, 35, 37
1, 461194, Control_c, 0, 64, 101
1, 461204, Note_on_c, 0, 47, 33
1, 461207, Note_on_c, 0, 75, 44
1, 461208, Control_c, 0, 64, 85
1, 461223, Control_c, 0, 64, 73
1, 461238, Control_c, 0, 64, 63
1, 461253, Control_c, 0, 64, 46
1, 461268, Control_c, 0, 64, 43
1, 461297, Control_c, 0, 64, 47
1, 461313, Control_c, 0, 64, 57
1, 461328, Control_c, 0, 64, 63
1, 461343, Control_c, 0, 64, 66
1, 461358, Control_c, 0, 64, 70
1, 461373, Control_c, 0, 64, 74
1, 461380, Note_off_c, 0, 35, 43
1, 461387, Control_c, 0, 64, 79
1, 461401, Note_off_c, 0, 47, 56
1, 461402, Control_c, 0, 64, 85
1, 461417, Control_c, 0, 64, 90
1, 461431, Control_c, 0, 64, 95
1, 461446, Control_c, 0, 64, 101
1, 461461, Control_c, 0, 64, 107
1, 461476, Control_c, 0, 64, 114
1, 461491, Control_c, 0, 64, 127
1, 461615, Note_on_c, 0, 78, 63
1, 461617, Note_on_c, 0, 71, 47
1, 461648, Note_off_c, 0, 75, 47
1, 461718, Note_off_c, 0, 71, 47
1, 461736, Note_off_c, 0, 83, 56
1, 461912, Note_on_c, 0, 63, 51
1, 461917, Note_on_c, 0, 71, 52
1, 462002, Note_off_c, 0, 78, 53
1, 462054, Note_off_c, 0, 71, 63
1, 462219, Note_on_c, 0, 66, 55
1, 462235, Note_on_c, 0, 59, 54
1, 462255, Note_off_c, 0, 66, 64
1, 462295, Note_off_c, 0, 59, 61
1, 462305, Note_off_c, 0, 63, 38
1, 462540, Note_on_c, 0, 71, 62
1, 462563, Note_on_c, 0, 64, 49
1, 462568, Note_on_c, 0, 40, 45
1, 462570, Note_on_c, 0, 52, 41
1, 462574, Control_c, 0, 64, 115
1, 462588, Control_c, 0, 64, 94
1, 462603, Control_c, 0, 64, 79
1, 462618, Control_c, 0, 64, 67
1, 462633, Control_c, 0, 64, 43
1, 462648, Control_c, 0, 64, 0
1, 462692, Control_c, 0, 64, 28
1, 462707, Control_c, 0, 64, 55
1, 462722, Control_c, 0, 64, 64
1, 462736, Control_c, 0, 64, 70
1, 462737, Note_off_c, 0, 40, 51
1, 462751, Control_c, 0, 64, 76
1, 462766, Control_c, 0, 64, 84
1, 462780, Control_c, 0, 64, 93
1, 462795, Control_c, 0, 64, 102
1, 462810, Control_c, 0, 64, 112
1, 462824, Note_off_c, 0, 52, 54
1, 462825, Control_c, 0, 64, 127
1, 462915, Note_on_c, 0, 76, 63
1, 462917, Note_on_c, 0, 68, 57
1, 463011, Note_off_c, 0, 71, 57
1, 463018, Note_off_c, 0, 64, 38
1, 463129, Note_off_c, 0, 68, 53
1, 463207, Note_on_c, 0, 56, 50
1, 463215, Note_on_c, 0, 64, 53
1, 463283, Note_off_c, 0, 76, 53
1, 463324, Note_off_c, 0, 56, 61
1, 463499, Note_on_c, 0, 68, 59
1, 463508, Note_on_c, 0, 59, 62
1, 463540, Note_off_c, 0, 68, 59
1, 463547, Note_off_c, 0, 64, 62
1, 463603, Note_off_c, 0, 59, 62
1, 463853, Note_on_c, 0, 83, 64
1, 463862, Note_on_c, 0, 75, 52
1, 463866, Note_on_c, 0, 35, 42
1, 463886, Control_c, 0, 64, 105
1, 463889, Note_on_c, 0, 47, 44
1, 463901, Control_c, 0, 64, 87
1, 463916, Control_c, 0, 64, 73
1, 463938, Control_c, 0, 64, 63
1, 463952, Control_c, 0, 64, 51
1, 463967, Control_c, 0, 64, 51
1, 463982, Control_c, 0, 64, 54
1, 463997, Control_c, 0, 64, 60
1, 464012, Control_c, 0, 64, 64
1, 464026, Control_c, 0, 64, 67
1, 464041, Control_c, 0, 64, 71
1, 464056, Control_c, 0, 64, 75
1, 464062, Note_off_c, 0, 35, 42
1, 464071, Control_c, 0, 64, 82
1, 464086, Control_c, 0, 64, 87
1, 464097, Note_off_c, 0, 47, 60
1, 464100, Control_c, 0, 64, 94
1, 464115, Control_c, 0, 64, 101
1, 464130, Control_c, 0, 64, 109
1, 464145, Control_c, 0, 64, 124
1, 464160, Control_c, 0, 64, 127
1, 464250, Note_on_c, 0, 78, 60
1, 464261, Note_on_c, 0, 71, 47
1, 464304, Note_off_c, 0, 75, 48
1, 464348, Note_off_c, 0, 71, 60
1, 464351, Note_off_c, 0, 83, 59
1, 464546, Note_on_c, 0, 63, 49
1, 464548, Note_on_c, 0, 71, 49
1, 464698, Note_off_c, 0, 78, 56
1, 464703, Note_off_c, 0, 71, 64
1, 464878, Note_on_c, 0, 59, 64
1, 464881, Note_on_c, 0, 66, 53
1, 464905, Note_off_c, 0, 63, 48
1, 464914, Note_off_c, 0, 66, 64
1, 464932, Note_off_c, 0, 59, 62
1, 465195, Note_on_c, 0, 71, 64
1, 465212, Note_on_c, 0, 64, 53
1, 465216, Note_on_c, 0, 40, 49
1, 465219, Note_on_c, 0, 52, 52
1, 465235, Control_c, 0, 64, 108
1, 465249, Control_c, 0, 64, 88
1, 465264, Control_c, 0, 64, 73
1, 465279, Control_c, 0, 64, 61
1, 465295, Control_c, 0, 64, 24
1, 465310, Control_c, 0, 64, 23
1, 465325, Control_c, 0, 64, 24
1, 465340, Control_c, 0, 64, 41
1, 465354, Control_c, 0, 64, 58
1, 465369, Control_c, 0, 64, 65
1, 465375, Note_off_c, 0, 40, 56
1, 465384, Control_c, 0, 64, 69
1, 465398, Control_c, 0, 64, 75
1, 465413, Control_c, 0, 64, 82
1, 465436, Control_c, 0, 64, 91
1, 465451, Control_c, 0, 64, 101
1, 465466, Control_c, 0, 64, 115
1, 465469, Note_off_c, 0, 52, 61
1, 465480, Control_c, 0, 64, 127
1, 465559, Note_on_c, 0, 76, 74
1, 465560, Note_on_c, 0, 68, 64
1, 465645, Note_off_c, 0, 71, 54
1, 465683, Note_off_c, 0, 64, 37
1, 465823, Note_on_c, 0, 56, 60
1, 465830, Note_off_c, 0, 68, 54
1, 465833, Note_on_c, 0, 64, 61
1, 465925, Note_off_c, 0, 76, 55
1, 465956, Note_off_c, 0, 56, 62
1, 466124, Note_on_c, 0, 68, 72
1, 466130, Note_on_c, 0, 59, 70
1, 466181, Note_off_c, 0, 68, 63
1, 466182, Note_off_c, 0, 64, 60
1, 466238, Note_off_c, 0, 59, 63
1, 466480, Note_on_c, 0, 83, 74
1, 466488, Note_on_c, 0, 75, 63
1, 466491, Note_on_c, 0, 35, 52
1, 466499, Note_on_c, 0, 47, 55
1, 466510, Control_c, 0, 64, 92
1, 466525, Control_c, 0, 64, 74
1, 466540, Control_c, 0, 64, 47
1, 466554, Control_c, 0, 64, 0
1, 466628, Control_c, 0, 64, 51
1, 466643, Control_c, 0, 64, 65
1, 466658, Control_c, 0, 64, 73
1, 466673, Control_c, 0, 64, 83
1, 466684, Note_off_c, 0, 35, 59
1, 466688, Control_c, 0, 64, 98
1, 466703, Control_c, 0, 64, 127
1, 466721, Note_off_c, 0, 47, 64
1, 466910, Note_on_c, 0, 78, 75
1, 466935, Note_on_c, 0, 71, 62
1, 466943, Note_off_c, 0, 75, 61
1, 467032, Note_off_c, 0, 71, 60
1, 467040, Note_off_c, 0, 83, 41
1, 467217, Note_on_c, 0, 63, 67
1, 467218, Note_on_c, 0, 71, 72
1, 467369, Note_off_c, 0, 71, 62
1, 467380, Note_off_c, 0, 78, 52
1, 467510, Note_on_c, 0, 66, 77
1, 467519, Note_on_c, 0, 59, 76
1, 467538, Note_off_c, 0, 63, 60
1, 467568, Note_off_c, 0, 66, 64
1, 467583, Note_off_c, 0, 59, 63
1, 467843, Note_on_c, 0, 81, 77
1, 467851, Note_on_c, 0, 35, 62
1, 467853, Note_on_c, 0, 75, 70
1, 467857, Note_on_c, 0, 47, 64
1, 467904, Control_c, 0, 64, 92
1, 467919, Control_c, 0, 64, 72
1, 467934, Control_c, 0, 64, 0
1, 468023, Control_c, 0, 64, 63
1, 468030, Note_off_c, 0, 35, 61
1, 468038, Control_c, 0, 64, 72
1, 468053, Control_c, 0, 64, 83
1, 468068, Control_c, 0, 64, 105
1, 468069, Note_off_c, 0, 47, 65
1, 468083, Control_c, 0, 64, 127
1, 468231, Note_on_c, 0, 78, 81
1, 468239, Note_on_c, 0, 69, 70
1, 468244, Note_off_c, 0, 75, 65
1, 468301, Note_off_c, 0, 81, 61
1, 468378, Note_off_c, 0, 69, 53
1, 468513, Note_on_c, 0, 69, 78
1, 468521, Note_on_c, 0, 63, 77
1, 468592, Note_off_c, 0, 78, 54
1, 468679, Note_off_c, 0, 69, 60
1, 468810, Note_on_c, 0, 66, 84
1, 468825, Note_on_c, 0, 57, 80
1, 468833, Note_off_c, 0, 63, 61
1, 468873, Note_off_c, 0, 66, 64
1, 468897, Note_off_c, 0, 57, 64
1, 469156, Note_on_c, 0, 36, 69
1, 469162, Note_on_c, 0, 81, 85
1, 469163, Note_on_c, 0, 48, 73
1, 469174, Note_on_c, 0, 75, 79
1, 469209, Control_c, 0, 64, 98
1, 469223, Control_c, 0, 64, 77
1, 469238, Control_c, 0, 64, 57
1, 469253, Control_c, 0, 64, 0
1, 469328, Control_c, 0, 64, 56
1, 469343, Control_c, 0, 64, 66
1, 469358, Control_c, 0, 64, 74
1, 469372, Control_c, 0, 64, 83
1, 469387, Control_c, 0, 64, 102
1, 469391, Note_off_c, 0, 36, 59
1, 469402, Control_c, 0, 64, 127
1, 469430, Note_off_c, 0, 48, 61
1, 469601, Note_on_c, 0, 78, 83
1, 469604, Note_on_c, 0, 69, 75
1, 469621, Note_off_c, 0, 75, 64
1, 469683, Note_off_c, 0, 81, 61
1, 469788, Note_off_c, 0, 69, 52
1, 469894, Note_on_c, 0, 69, 78
1, 469909, Note_on_c, 0, 63, 74
1, 470068, Note_off_c, 0, 78, 56
1, 470117, Note_off_c, 0, 69, 57
1, 470221, Note_on_c, 0, 66, 81
1, 470237, Note_on_c, 0, 57, 81
1, 470243, Note_off_c, 0, 63, 62
1, 470279, Note_off_c, 0, 66, 65
1, 470300, Note_off_c, 0, 57, 64
1, 470533, Note_on_c, 0, 48, 83
1, 470533, Note_on_c, 0, 36, 80
1, 470594, Note_on_c, 0, 80, 89
1, 470605, Note_on_c, 0, 75, 78
1, 470640, Control_c, 0, 64, 85
1, 470655, Control_c, 0, 64, 63
1, 470676, Control_c, 0, 64, 0
1, 470751, Control_c, 0, 64, 35
1, 470766, Control_c, 0, 64, 66
1, 470774, Note_on_c, 0, 38, 17
1, 470779, Note_off_c, 0, 36, 57
1, 470781, Control_c, 0, 64, 77
1, 470795, Control_c, 0, 64, 94
1, 470810, Control_c, 0, 64, 127
1, 470821, Note_off_c, 0, 38, 39
1, 470824, Note_off_c, 0, 48, 61
1, 471002, Note_on_c, 0, 68, 77
1, 471004, Note_on_c, 0, 78, 84
1, 471035, Note_off_c, 0, 75, 63
1, 471111, Note_off_c, 0, 80, 58
1, 471183, Note_off_c, 0, 68, 59
1, 471308, Note_on_c, 0, 63, 77
1, 471309, Note_on_c, 0, 68, 82
1, 471496, Note_off_c, 0, 68, 60
1, 471511, Note_off_c, 0, 78, 57
1, 471657, Note_on_c, 0, 66, 87
1, 471663, Note_on_c, 0, 56, 79
1, 471684, Note_off_c, 0, 63, 62
1, 471710, Note_off_c, 0, 66, 64
1, 471747, Note_off_c, 0, 56, 65
1, 471997, Note_on_c, 0, 44, 88
1, 472003, Note_on_c, 0, 32, 80
1, 472011, Poly_aftertouch_c, 0, 82, 127
1, 472055, Poly_aftertouch_c, 0, 82, 0
1, 472068, Note_on_c, 0, 72, 78
1, 472136, Note_on_c, 0, 75, 88
1, 472152, Control_c, 0, 64, 81
1, 472173, Control_c, 0, 64, 50
1, 472188, Control_c, 0, 64, 0
1, 472307, Control_c, 0, 64, 61
1, 472316, Note_on_c, 0, 82, 87
1, 472322, Control_c, 0, 64, 70
1, 472337, Control_c, 0, 64, 84
1, 472352, Control_c, 0, 64, 108
1, 472366, Control_c, 0, 64, 127
1, 472387, Note_off_c, 0, 32, 60
1, 472459, Note_off_c, 0, 44, 62
1, 472825, Note_on_c, 0, 80, 81
1, 472888, Note_off_c, 0, 75, 51
1, 472964, Note_off_c, 0, 72, 62
1, 473029, Note_off_c, 0, 82, 39
1, 473180, Note_on_c, 0, 78, 81
1, 473181, Note_on_c, 0, 73, 79
1, 473183, Note_on_c, 0, 70, 81
1, 473185, Note_on_c, 0, 56, 73
1, 473359, Note_off_c, 0, 70, 63
1, 473364, Note_off_c, 0, 73, 61
1, 473469, Note_off_c, 0, 80, 35
1, 473544, Note_on_c, 0, 77, 90
1, 473554, Note_on_c, 0, 68, 79
1, 473555, Note_on_c, 0, 72, 60
1, 473678, Note_off_c, 0, 72, 52
1, 473702, Note_off_c, 0, 56, 64
1, 473716, Note_off_c, 0, 78, 35
1, 473730, Note_off_c, 0, 77, 58
1, 473739, Note_off_c, 0, 68, 56
1, 473899, Note_on_c, 0, 74, 93
1, 473900, Note_on_c, 0, 72, 79
1, 473909, Note_on_c, 0, 56, 72
1, 473917, Note_on_c, 0, 65, 72
1, 473937, Control_c, 0, 64, 118
1, 473952, Control_c, 0, 64, 85
1, 473967, Control_c, 0, 64, 68
1, 473982, Control_c, 0, 64, 43
1, 473997, Control_c, 0, 64, 21
1, 474012, Control_c, 0, 64, 38
1, 474027, Control_c, 0, 64, 55
1, 474042, Control_c, 0, 64, 65
1, 474057, Control_c, 0, 64, 70
1, 474071, Control_c, 0, 64, 76
1, 474086, Control_c, 0, 64, 85
1, 474101, Control_c, 0, 64, 98
1, 474116, Control_c, 0, 64, 124
1, 474131, Control_c, 0, 64, 127
1, 474390, Note_on_c, 0, 75, 82
1, 474413, Note_on_c, 0, 66, 76
1, 474484, Note_off_c, 0, 74, 58
1, 474528, Note_off_c, 0, 65, 58
1, 475033, Note_on_c, 0, 65, 63
1, 475037, Note_on_c, 0, 74, 77
1, 475059, Note_off_c, 0, 66, 61
1, 475067, Note_off_c, 0, 75, 63
1, 475136, Note_off_c, 0, 65, 58
1, 475174, Note_on_c, 0, 66, 70
1, 475178, Note_on_c, 0, 75, 87
1, 475284, Note_off_c, 0, 74, 64
1, 475285, Note_on_c, 0, 77, 82
1, 475291, Note_on_c, 0, 68, 79
1, 475319, Note_off_c, 0, 66, 59
1, 475322, Note_off_c, 0, 75, 62
1, 475460, Note_on_c, 0, 75, 82
1, 475473, Note_on_c, 0, 66, 70
1, 475480, Control_c, 0, 64, 115
1, 475495, Control_c, 0, 64, 91
1, 475509, Control_c, 0, 64, 74
1, 475524, Control_c, 0, 64, 51
1, 475539, Control_c, 0, 64, 0
1, 475578, Note_off_c, 0, 68, 56
1, 475614, Note_off_c, 0, 77, 54
1, 475762, Control_c, 0, 64, 38
1, 475777, Control_c, 0, 64, 63
1, 475792, Control_c, 0, 64, 68
1, 475806, Control_c, 0, 64, 74
1, 475821, Control_c, 0, 64, 82
1, 475836, Control_c, 0, 64, 93
1, 475851, Control_c, 0, 64, 108
1, 475866, Control_c, 0, 64, 127
1, 476084, Note_off_c, 0, 72, 50
1, 476091, Note_off_c, 0, 66, 51
1, 476105, Note_off_c, 0, 56, 38
1, 476745, Note_on_c, 0, 73, 85
1, 476789, Note_off_c, 0, 75, 60
1, 476847, Note_off_c, 0, 73, 63
1, 476944, Note_on_c, 0, 37, 70
1, 477046, Note_on_c, 0, 73, 90
1, 477051, Note_on_c, 0, 65, 79
1, 477081, Control_c, 0, 64, 98
1, 477096, Control_c, 0, 64, 73
1, 477111, Control_c, 0, 64, 47
1, 477126, Control_c, 0, 64, 0
1, 477185, Control_c, 0, 64, 61
1, 477199, Control_c, 0, 64, 69
1, 477213, Note_off_c, 0, 65, 54
1, 477214, Control_c, 0, 64, 78
1, 477229, Control_c, 0, 64, 91
1, 477244, Control_c, 0, 64, 116
1, 477259, Control_c, 0, 64, 127
1, 477324, Note_off_c, 0, 37, 62
1, 477353, Note_on_c, 0, 49, 53
1, 477419, Note_off_c, 0, 49, 62
1, 477513, Note_on_c, 0, 78, 87
1, 477515, Note_on_c, 0, 70, 63
1, 477552, Note_off_c, 0, 73, 60
1, 477610, Note_off_c, 0, 70, 61
1, 477675, Note_on_c, 0, 51, 62
1, 477729, Note_off_c, 0, 78, 59
1, 477824, Note_on_c, 0, 78, 87
1, 477833, Note_off_c, 0, 51, 59
1, 477835, Note_on_c, 0, 49, 70
1, 477838, Note_on_c, 0, 70, 73
1, 478021, Note_on_c, 0, 61, 65
1, 478077, Note_off_c, 0, 49, 59
1, 478197, Note_on_c, 0, 49, 68
1, 478224, Note_off_c, 0, 70, 61
1, 478343, Note_on_c, 0, 51, 71
1, 478366, Note_off_c, 0, 61, 34
1, 478378, Note_off_c, 0, 49, 63
1, 478490, Note_on_c, 0, 49, 68
1, 478504, Note_off_c, 0, 51, 62
1, 478515, Note_off_c, 0, 49, 66
1, 478553, Note_on_c, 0, 77, 85
1, 478558, Note_on_c, 0, 68, 80
1, 478587, Note_off_c, 0, 78, 58
1, 478615, Note_off_c, 0, 77, 62
1, 478628, Note_off_c, 0, 68, 58
1, 478649, Note_on_c, 0, 49, 57
1, 478778, Note_on_c, 0, 37, 75
1, 478787, Note_off_c, 0, 49, 62
1, 478814, Note_on_c, 0, 77, 88
1, 478821, Note_on_c, 0, 68, 73
1, 478823, Note_on_c, 0, 70, 78
1, 478877, Control_c, 0, 64, 89
1, 478892, Control_c, 0, 64, 62
1, 478914, Control_c, 0, 64, 0
1, 478957, Note_off_c, 0, 68, 58
1, 478958, Control_c, 0, 64, 14
1, 478973, Control_c, 0, 64, 65
1, 478988, Control_c, 0, 64, 80
1, 479003, Control_c, 0, 64, 103
1, 479007, Note_off_c, 0, 37, 62
1, 479018, Control_c, 0, 64, 127
1, 479029, Note_on_c, 0, 49, 62
1, 479074, Note_off_c, 0, 49, 63
1, 479108, Note_on_c, 0, 66, 81
1, 479109, Note_on_c, 0, 75, 81
1, 479157, Note_off_c, 0, 77, 57
1, 479229, Note_on_c, 0, 51, 61
1, 479235, Note_off_c, 0, 66, 57
1, 479274, Note_off_c, 0, 70, 60
1, 479276, Note_off_c, 0, 75, 60
1, 479368, Note_off_c, 0, 51, 61
1, 479370, Note_on_c, 0, 66, 73
1, 479372, Note_on_c, 0, 75, 84
1, 479377, Note_on_c, 0, 70, 72
1, 479383, Note_on_c, 0, 49, 62
1, 479521, Note_off_c, 0, 49, 62
1, 479537, Note_on_c, 0, 61, 59
1, 479673, Note_on_c, 0, 49, 66
1, 479760, Note_off_c, 0, 61, 37
1, 479807, Note_on_c, 0, 51, 72
1, 479828, Note_off_c, 0, 49, 62
1, 479896, Note_off_c, 0, 66, 56
1, 479911, Note_off_c, 0, 75, 58
1, 479924, Note_off_c, 0, 70, 58
1, 479933, Note_on_c, 0, 49, 76
1, 479944, Note_off_c, 0, 51, 63
1, 479961, Note_off_c, 0, 49, 68
1, 480017, Note_on_c, 0, 75, 88
1, 480025, Note_on_c, 0, 66, 79
1, 480075, Note_off_c, 0, 66, 61
1, 480109, Note_off_c, 0, 75, 63
1, 480115, Note_on_c, 0, 49, 83
1, 480228, Note_on_c, 0, 37, 82
1, 480243, Note_off_c, 0, 49, 60
1, 480343, Note_on_c, 0, 66, 83
1, 480343, Control_c, 0, 64, 88
1, 480344, Note_on_c, 0, 75, 89
1, 480358, Control_c, 0, 64, 66
1, 480373, Control_c, 0, 64, 0
1, 480424, Control_c, 0, 64, 55
1, 480439, Control_c, 0, 64, 68
1, 480452, Note_off_c, 0, 66, 63
1, 480454, Control_c, 0, 64, 78
1, 480469, Control_c, 0, 64, 94
1, 480485, Control_c, 0, 64, 127
1, 480555, Note_off_c, 0, 37, 61
1, 480579, Note_on_c, 0, 49, 58
1, 480609, Note_off_c, 0, 49, 65
1, 480716, Note_on_c, 0, 82, 92
1, 480743, Note_off_c, 0, 75, 62
1, 480788, Note_on_c, 0, 83, 7
1, 480824, Note_off_c, 0, 82, 63
1, 480839, Note_off_c, 0, 83, 37
1, 480856, Note_on_c, 0, 51, 63
1, 480966, Note_on_c, 0, 66, 67
1, 481009, Note_on_c, 0, 72, 71
1, 481014, Note_off_c, 0, 66, 62
1, 481018, Note_off_c, 0, 51, 61
1, 481028, Note_on_c, 0, 49, 63
1, 481044, Note_on_c, 0, 75, 68
1, 481095, Note_on_c, 0, 82, 90
1, 481250, Note_on_c, 0, 61, 63
1, 481261, Note_off_c, 0, 49, 62
1, 481367, Note_off_c, 0, 82, 58
1, 481391, Note_on_c, 0, 49, 68
1, 481419, Note_off_c, 0, 72, 52
1, 481427, Poly_aftertouch_c, 0, 78, 127
1, 481467, Note_off_c, 0, 75, 57
1, 481472, Poly_aftertouch_c, 0, 78, 0
1, 481523, Note_on_c, 0, 51, 75
1, 481536, Note_off_c, 0, 61, 51
1, 481549, Note_off_c, 0, 49, 62
1, 481655, Note_on_c, 0, 49, 74
1, 481662, Note_off_c, 0, 51, 61
1, 481682, Note_off_c, 0, 49, 67
1, 481688, Note_on_c, 0, 65, 74
1, 481713, Note_on_c, 0, 70, 75
1, 481731, Note_off_c, 0, 65, 63
1, 481748, Note_on_c, 0, 73, 74
1, 481777, Note_on_c, 0, 80, 85
1, 481847, Note_on_c, 0, 49, 69
1, 481868, Note_off_c, 0, 80, 62
1, 481911, Note_off_c, 0, 73, 59
1, 481915, Note_off_c, 0, 70, 62
1, 481961, Note_off_c, 0, 49, 52
1, 481966, Note_on_c, 0, 37, 76
1, 481977, Note_on_c, 0, 65, 69
1, 482020, Note_on_c, 0, 70, 77
1, 482027, Note_off_c, 0, 65, 55
1, 482037, Note_on_c, 0, 73, 74
1, 482042, Control_c, 0, 64, 114
1, 482057, Control_c, 0, 64, 84
1, 482072, Control_c, 0, 64, 66
1, 482078, Note_on_c, 0, 80, 84
1, 482087, Control_c, 0, 64, 37
1, 482102, Control_c, 0, 64, 43
1, 482117, Control_c, 0, 64, 59
1, 482132, Control_c, 0, 64, 67
1, 482147, Control_c, 0, 64, 75
1, 482162, Control_c, 0, 64, 88
1, 482176, Control_c, 0, 64, 114
1, 482191, Control_c, 0, 64, 127
1, 482222, Note_off_c, 0, 80, 62
1, 482254, Note_off_c, 0, 37, 60
1, 482287, Note_on_c, 0, 49, 57
1, 482321, Note_off_c, 0, 49, 63
1, 482382, Note_on_c, 0, 78, 86
1, 482490, Note_on_c, 0, 51, 58
1, 482529, Note_off_c, 0, 70, 60
1, 482530, Note_off_c, 0, 73, 60
1, 482535, Note_off_c, 0, 78, 60
1, 482603, Note_on_c, 0, 65, 61
1, 482651, Note_off_c, 0, 51, 61
1, 482654, Note_on_c, 0, 70, 64
1, 482663, Note_on_c, 0, 49, 62
1, 482676, Note_on_c, 0, 73, 65
1, 482709, Note_on_c, 0, 78, 82
1, 482731, Control_c, 0, 64, 111
1, 482746, Control_c, 0, 64, 87
1, 482761, Control_c, 0, 64, 71
1, 482776, Control_c, 0, 64, 56
1, 482791, Control_c, 0, 64, 42
1, 482806, Control_c, 0, 64, 52
1, 482820, Control_c, 0, 64, 62
1, 482835, Control_c, 0, 64, 67
1, 482850, Note_on_c, 0, 61, 59
1, 482850, Control_c, 0, 64, 73
1, 482859, Note_off_c, 0, 49, 63
1, 482865, Control_c, 0, 64, 80
1, 482880, Control_c, 0, 64, 89
1, 482895, Control_c, 0, 64, 101
1, 482910, Control_c, 0, 64, 117
1, 482925, Control_c, 0, 64, 127
1, 482987, Note_on_c, 0, 49, 60
1, 483099, Note_off_c, 0, 61, 37
1, 483131, Note_on_c, 0, 51, 67
1, 483160, Note_off_c, 0, 49, 62
1, 483188, Note_off_c, 0, 78, 59
1, 483282, Note_on_c, 0, 49, 69
1, 483288, Note_off_c, 0, 51, 62
1, 483321, Note_off_c, 0, 49, 63
1, 483339, Note_off_c, 0, 65, 61
1, 483361, Note_on_c, 0, 78, 84
1, 483424, Note_off_c, 0, 70, 62
1, 483441, Note_off_c, 0, 73, 62
1, 483456, Note_off_c, 0, 78, 61
1, 483480, Note_on_c, 0, 49, 68
1, 483560, Note_off_c, 0, 49, 55
1, 483575, Note_on_c, 0, 37, 75
1, 483602, Note_on_c, 0, 63, 72
1, 483634, Note_on_c, 0, 70, 69
1, 483643, Control_c, 0, 64, 98
1, 483652, Note_on_c, 0, 73, 62
1, 483657, Control_c, 0, 64, 72
1, 483673, Control_c, 0, 64, 48
1, 483676, Note_off_c, 0, 63, 61
1, 483688, Control_c, 0, 64, 38
1, 483695, Note_on_c, 0, 78, 83
1, 483703, Control_c, 0, 64, 56
1, 483718, Control_c, 0, 64, 65
1, 483724, Note_off_c, 0, 73, 62
1, 483729, Note_off_c, 0, 70, 64
1, 483732, Control_c, 0, 64, 72
1, 483746, Control_c, 0, 64, 85
1, 483761, Control_c, 0, 64, 106
1, 483771, Note_off_c, 0, 78, 65
1, 483776, Control_c, 0, 64, 127
1, 483851, Note_off_c, 0, 37, 59
1, 483912, Note_on_c, 0, 80, 83
1, 483917, Note_on_c, 0, 49, 45
1, 483950, Note_off_c, 0, 49, 53
1, 484072, Note_on_c, 0, 82, 88
1, 484085, Note_on_c, 0, 51, 52
1, 484117, Note_off_c, 0, 80, 58
1, 484137, Note_off_c, 0, 82, 65
1, 484250, Note_off_c, 0, 51, 60
1, 484274, Note_on_c, 0, 49, 53
1, 484313, Note_on_c, 0, 63, 63
1, 484356, Note_on_c, 0, 68, 67
1, 484395, Note_on_c, 0, 72, 78
1, 484435, Control_c, 0, 64, 98
1, 484450, Control_c, 0, 64, 80
1, 484466, Control_c, 0, 64, 66
1, 484481, Control_c, 0, 64, 54
1, 484496, Control_c, 0, 64, 52
1, 484511, Control_c, 0, 64, 58
1, 484526, Control_c, 0, 64, 64
1, 484540, Control_c, 0, 64, 69
1, 484548, Note_off_c, 0, 49, 62
1, 484555, Note_on_c, 0, 61, 50
1, 484555, Control_c, 0, 64, 74
1, 484570, Control_c, 0, 64, 80
1, 484585, Control_c, 0, 64, 89
1, 484600, Control_c, 0, 64, 102
1, 484615, Control_c, 0, 64, 127
1, 484690, Note_on_c, 0, 49, 63
1, 484759, Note_off_c, 0, 63, 59
1, 484799, Note_off_c, 0, 61, 34
1, 484817, Note_off_c, 0, 68, 60
1, 484834, Note_off_c, 0, 72, 60
1, 484836, Note_on_c, 0, 51, 69
1, 484856, Note_off_c, 0, 49, 62
1, 484988, Note_on_c, 0, 49, 68
1, 485003, Note_off_c, 0, 51, 61
1, 485025, Note_off_c, 0, 49, 65
1, 485067, Note_on_c, 0, 80, 90
1, 485117, Note_off_c, 0, 80, 64
1, 485170, Note_on_c, 0, 49, 72
1, 485277, Note_on_c, 0, 37, 75
1, 485291, Note_off_c, 0, 49, 61
1, 485304, Note_on_c, 0, 63, 69
1, 485333, Control_c, 0, 64, 117
1, 485336, Note_on_c, 0, 70, 75
1, 485348, Control_c, 0, 64, 86
1, 485363, Control_c, 0, 64, 66
1, 485372, Note_on_c, 0, 73, 73
1, 485377, Note_off_c, 0, 63, 61
1, 485378, Control_c, 0, 64, 38
1, 485392, Control_c, 0, 64, 49
1, 485407, Control_c, 0, 64, 62
1, 485414, Note_on_c, 0, 78, 86
1, 485422, Control_c, 0, 64, 68
1, 485436, Control_c, 0, 64, 76
1, 485441, Note_off_c, 0, 73, 62
1, 485444, Note_off_c, 0, 70, 64
1, 485451, Control_c, 0, 64, 93
1, 485466, Control_c, 0, 64, 127
1, 485505, Note_off_c, 0, 78, 63
1, 485586, Note_off_c, 0, 37, 61
1, 485624, Note_on_c, 0, 80, 86
1, 485641, Note_on_c, 0, 49, 52
1, 485671, Note_off_c, 0, 49, 64
1, 485783, Note_on_c, 0, 82, 93
1, 485793, Note_on_c, 0, 51, 61
1, 485800, Note_off_c, 0, 80, 57
1, 485825, Note_off_c, 0, 82, 67
1, 485955, Note_off_c, 0, 51, 60
1, 485968, Note_on_c, 0, 49, 56
1, 485989, Note_on_c, 0, 63, 65
1, 486028, Note_on_c, 0, 68, 68
1, 486062, Note_on_c, 0, 72, 79
1, 486082, Control_c, 0, 64, 103
1, 486097, Control_c, 0, 64, 82
1, 486111, Control_c, 0, 64, 68
1, 486126, Control_c, 0, 64, 45
1, 486141, Control_c, 0, 64, 38
1, 486156, Control_c, 0, 64, 43
1, 486171, Control_c, 0, 64, 53
1, 486186, Control_c, 0, 64, 61
1, 486201, Control_c, 0, 64, 65
1, 486202, Note_off_c, 0, 49, 61
1, 486206, Note_on_c, 0, 61, 53
1, 486215, Control_c, 0, 64, 69
1, 486230, Control_c, 0, 64, 74
1, 486245, Control_c, 0, 64, 80
1, 486259, Control_c, 0, 64, 87
1, 486274, Control_c, 0, 64, 95
1, 486289, Control_c, 0, 64, 107
1, 486304, Control_c, 0, 64, 127
1, 486347, Note_on_c, 0, 49, 62
1, 486435, Note_off_c, 0, 63, 59
1, 486457, Note_off_c, 0, 61, 37
1, 486477, Note_off_c, 0, 68, 59
1, 486496, Note_off_c, 0, 72, 60
1, 486499, Note_on_c, 0, 51, 68
1, 486526, Note_off_c, 0, 49, 63
1, 486662, Note_on_c, 0, 49, 68
1, 486672, Note_off_c, 0, 51, 59
1, 486699, Note_off_c, 0, 49, 65
1, 486746, Note_on_c, 0, 80, 85
1, 486801, Note_off_c, 0, 80, 63
1, 486863, Note_on_c, 0, 49, 70
1, 487000, Note_on_c, 0, 37, 68
1, 487003, Note_off_c, 0, 49, 62
1, 487022, Note_on_c, 0, 63, 62
1, 487062, Note_on_c, 0, 70, 72
1, 487083, Control_c, 0, 64, 107
1, 487095, Note_on_c, 0, 73, 69
1, 487097, Control_c, 0, 64, 82
1, 487108, Note_off_c, 0, 63, 61
1, 487112, Control_c, 0, 64, 66
1, 487127, Control_c, 0, 64, 43
1, 487149, Control_c, 0, 64, 44
1, 487157, Note_on_c, 0, 78, 85
1, 487164, Control_c, 0, 64, 59
1, 487179, Control_c, 0, 64, 65
1, 487191, Note_off_c, 0, 73, 63
1, 487193, Control_c, 0, 64, 71
1, 487202, Note_off_c, 0, 70, 63
1, 487208, Control_c, 0, 64, 79
1, 487223, Control_c, 0, 64, 92
1, 487238, Control_c, 0, 64, 112
1, 487253, Control_c, 0, 64, 127
1, 487261, Note_off_c, 0, 78, 63
1, 487352, Note_off_c, 0, 37, 60
1, 487404, Note_on_c, 0, 80, 82
1, 487414, Note_on_c, 0, 49, 49
1, 487445, Note_off_c, 0, 49, 63
1, 487565, Note_on_c, 0, 82, 93
1, 487582, Note_on_c, 0, 51, 54
1, 487599, Note_off_c, 0, 80, 62
1, 487623, Note_off_c, 0, 82, 66
1, 487739, Note_off_c, 0, 51, 60
1, 487752, Note_on_c, 0, 49, 56
1, 487785, Note_on_c, 0, 63, 65
1, 487836, Note_on_c, 0, 68, 66
1, 487876, Note_on_c, 0, 72, 73
1, 487914, Control_c, 0, 64, 101
1, 487928, Control_c, 0, 64, 79
1, 487943, Control_c, 0, 64, 65
1, 487958, Control_c, 0, 64, 40
1, 487973, Control_c, 0, 64, 26
1, 488002, Control_c, 0, 64, 36
1, 488017, Control_c, 0, 64, 55
1, 488032, Control_c, 0, 64, 63
1, 488046, Control_c, 0, 64, 67
1, 488053, Note_on_c, 0, 61, 46
1, 488058, Note_off_c, 0, 49, 62
1, 488061, Control_c, 0, 64, 72
1, 488076, Control_c, 0, 64, 77
1, 488091, Control_c, 0, 64, 85
1, 488106, Control_c, 0, 64, 96
1, 488121, Control_c, 0, 64, 115
1, 488135, Control_c, 0, 64, 127
1, 488212, Note_on_c, 0, 49, 55
1, 488375, Note_off_c, 0, 61, 39
1, 488377, Note_on_c, 0, 51, 60
1, 488399, Note_off_c, 0, 49, 58
1, 488534, Note_off_c, 0, 63, 50
1, 488548, Note_on_c, 0, 49, 59
1, 488570, Note_off_c, 0, 51, 57
1, 488599, Note_off_c, 0, 49, 62
1, 488630, Note_on_c, 0, 75, 78
1, 488666, Note_off_c, 0, 72, 58
1, 488684, Note_off_c, 0, 68, 59
1, 488745, Note_off_c, 0, 75, 62
1, 488778, Note_on_c, 0, 49, 60
1, 488863, Note_off_c, 0, 49, 56
1, 488884, Note_on_c, 0, 37, 64
1, 488941, Note_on_c, 0, 60, 59
1, 488973, Control_c, 0, 64, 116
1, 488988, Control_c, 0, 64, 92
1, 488993, Note_on_c, 0, 66, 65
1, 489003, Control_c, 0, 64, 77
1, 489018, Control_c, 0, 64, 67
1, 489027, Note_off_c, 0, 60, 63
1, 489033, Control_c, 0, 64, 63
1, 489037, Note_on_c, 0, 68, 71
1, 489048, Control_c, 0, 64, 64
1, 489062, Control_c, 0, 64, 66
1, 489077, Control_c, 0, 64, 69
1, 489092, Control_c, 0, 64, 73
1, 489107, Control_c, 0, 64, 79
1, 489111, Note_on_c, 0, 75, 78
1, 489122, Control_c, 0, 64, 86
1, 489136, Control_c, 0, 64, 95
1, 489151, Control_c, 0, 64, 106
1, 489166, Control_c, 0, 64, 127
1, 489235, Note_off_c, 0, 66, 56
1, 489253, Note_off_c, 0, 37, 54
1, 489270, Note_off_c, 0, 68, 59
1, 489323, Note_on_c, 0, 49, 45
1, 489355, Note_off_c, 0, 49, 62
1, 489357, Note_off_c, 0, 75, 60
1, 489534, Note_on_c, 0, 51, 47
1, 489609, Note_on_c, 0, 61, 60
1, 489638, Note_off_c, 0, 61, 64
1, 489656, Note_on_c, 0, 68, 67
1, 489691, Note_on_c, 0, 73, 65
1, 489719, Note_off_c, 0, 51, 58
1, 489733, Note_on_c, 0, 49, 55
1, 489756, Note_on_c, 0, 77, 77
1, 489766, Control_c, 0, 64, 119
1, 489781, Control_c, 0, 64, 94
1, 489796, Control_c, 0, 64, 80
1, 489810, Control_c, 0, 64, 70
1, 489825, Control_c, 0, 64, 65
1, 489840, Control_c, 0, 64, 66
1, 489855, Control_c, 0, 64, 69
1, 489870, Control_c, 0, 64, 72
1, 489884, Control_c, 0, 64, 76
1, 489899, Control_c, 0, 64, 81
1, 489914, Control_c, 0, 64, 87
1, 489921, Note_off_c, 0, 77, 59
1, 489929, Control_c, 0, 64, 96
1, 489933, Note_on_c, 0, 61, 45
1, 489936, Note_off_c, 0, 49, 59
1, 489943, Control_c, 0, 64, 109
1, 489956, Note_off_c, 0, 73, 59
1, 489958, Control_c, 0, 64, 127
1, 490033, Note_off_c, 0, 68, 37
1, 490102, Note_on_c, 0, 49, 45
1, 490115, Note_off_c, 0, 61, 34
1, 490243, Note_on_c, 0, 63, 57
1, 490292, Note_on_c, 0, 51, 46
1, 490298, Note_off_c, 0, 49, 54
1, 490299, Note_on_c, 0, 68, 59
1, 490328, Note_off_c, 0, 63, 59
1, 490335, Note_on_c, 0, 72, 57
1, 490381, Control_c, 0, 64, 104
1, 490396, Control_c, 0, 64, 83
1, 490397, Note_on_c, 0, 78, 69
1, 490411, Control_c, 0, 64, 70
1, 490426, Control_c, 0, 64, 61
1, 490440, Control_c, 0, 64, 54
1, 490455, Control_c, 0, 64, 54
1, 490471, Control_c, 0, 64, 56
1, 490486, Control_c, 0, 64, 60
1, 490501, Control_c, 0, 64, 64
1, 490502, Note_off_c, 0, 51, 54
1, 490513, Note_on_c, 0, 49, 37
1, 490515, Control_c, 0, 64, 67
1, 490530, Control_c, 0, 64, 72
1, 490545, Control_c, 0, 64, 77
1, 490557, Note_off_c, 0, 49, 60
1, 490559, Control_c, 0, 64, 85
1, 490574, Control_c, 0, 64, 95
1, 490589, Control_c, 0, 64, 110
1, 490604, Control_c, 0, 64, 127
1, 490619, Note_off_c, 0, 78, 62
1, 490699, Note_off_c, 0, 72, 39
1, 490702, Note_off_c, 0, 68, 53
1, 490751, Note_on_c, 0, 49, 41
1, 490796, Note_off_c, 0, 49, 57
1, 490938, Note_on_c, 0, 61, 49
1, 490977, Note_off_c, 0, 61, 62
1, 490997, Note_on_c, 0, 68, 46
1, 491000, Note_on_c, 0, 37, 36
1, 491051, Note_on_c, 0, 73, 51
1, 491101, Control_c, 0, 64, 97
1, 491116, Control_c, 0, 64, 77
1, 491130, Note_on_c, 0, 77, 67
1, 491131, Control_c, 0, 64, 61
1, 491146, Control_c, 0, 64, 0
1, 491235, Control_c, 0, 64, 23
1, 491250, Control_c, 0, 64, 63
1, 491264, Control_c, 0, 64, 68
1, 491279, Control_c, 0, 64, 75
1, 491294, Control_c, 0, 64, 84
1, 491309, Control_c, 0, 64, 96
1, 491324, Control_c, 0, 64, 111
1, 491338, Control_c, 0, 64, 127
1, 491343, Note_off_c, 0, 37, 41
1, 491391, Note_on_c, 0, 49, 42
1, 491435, Note_off_c, 0, 49, 58
1, 491598, Note_on_c, 0, 51, 45
1, 491702, Control_c, 0, 67, 8
1, 491717, Control_c, 0, 67, 8
1, 491732, Control_c, 0, 67, 9
1, 491747, Control_c, 0, 67, 10
1, 491761, Control_c, 0, 67, 11
1, 491776, Control_c, 0, 67, 12
1, 491781, Note_off_c, 0, 51, 58
1, 491791, Control_c, 0, 67, 13
1, 491806, Control_c, 0, 67, 15
1, 491814, Note_on_c, 0, 49, 47
1, 491820, Control_c, 0, 67, 16
1, 491835, Control_c, 0, 67, 18
1, 491850, Control_c, 0, 67, 19
1, 491865, Control_c, 0, 67, 21
1, 491880, Control_c, 0, 67, 24
1, 491894, Control_c, 0, 67, 26
1, 491909, Control_c, 0, 67, 28
1, 491924, Control_c, 0, 67, 30
1, 491939, Control_c, 0, 67, 33
1, 491954, Control_c, 0, 67, 36
1, 491969, Control_c, 0, 67, 38
1, 491984, Control_c, 0, 67, 40
1, 491999, Control_c, 0, 67, 41
1, 492013, Control_c, 0, 67, 43
1, 492028, Control_c, 0, 67, 45
1, 492043, Control_c, 0, 67, 47
1, 492050, Note_off_c, 0, 49, 57
1, 492058, Control_c, 0, 67, 49
1, 492070, Note_on_c, 0, 61, 35
1, 492073, Control_c, 0, 67, 51
1, 492087, Control_c, 0, 67, 53
1, 492102, Control_c, 0, 67, 55
1, 492117, Control_c, 0, 67, 56
1, 492132, Control_c, 0, 67, 58
1, 492147, Control_c, 0, 67, 60
1, 492161, Control_c, 0, 67, 62
1, 492176, Control_c, 0, 67, 64
1, 492191, Control_c, 0, 67, 66
1, 492205, Control_c, 0, 67, 68
1, 492220, Control_c, 0, 67, 70
1, 492222, Note_off_c, 0, 77, 24
1, 492235, Control_c, 0, 67, 72
1, 492250, Control_c, 0, 67, 74
1, 492265, Control_c, 0, 67, 77
1, 492279, Control_c, 0, 67, 79
1, 492290, Note_on_c, 0, 49, 40
1, 492294, Control_c, 0, 67, 81
1, 492309, Control_c, 0, 67, 83
1, 492324, Control_c, 0, 67, 85
1, 492339, Control_c, 0, 67, 88
1, 492353, Control_c, 0, 67, 90
1, 492368, Control_c, 0, 67, 93
1, 492391, Control_c, 0, 67, 95
1, 492405, Control_c, 0, 67, 97
1, 492420, Control_c, 0, 67, 98
1, 492435, Control_c, 0, 67, 100
1, 492450, Control_c, 0, 67, 102
1, 492466, Control_c, 0, 67, 104
1, 492481, Control_c, 0, 67, 107
1, 492496, Control_c, 0, 67, 109
1, 492499, Note_off_c, 0, 73, 38
1, 492510, Control_c, 0, 67, 111
1, 492525, Note_off_c, 0, 61, 39
1, 492525, Control_c, 0, 67, 113
1, 492529, Note_on_c, 0, 51, 36
1, 492540, Control_c, 0, 67, 115
1, 492547, Note_off_c, 0, 49, 41
1, 492555, Control_c, 0, 67, 117
1, 492570, Control_c, 0, 67, 119
1, 492584, Control_c, 0, 67, 121
1, 492599, Control_c, 0, 67, 122
1, 492614, Control_c, 0, 67, 124
1, 492628, Note_off_c, 0, 68, 29
1, 492629, Control_c, 0, 67, 126
1, 492643, Control_c, 0, 67, 127
1, 492797, Note_on_c, 0, 49, 40
1, 492836, Note_off_c, 0, 51, 41
1, 492896, Note_off_c, 0, 49, 52
1, 493178, Note_on_c, 0, 49, 19
1, 493214, Control_c, 0, 64, 126
1, 493228, Control_c, 0, 64, 103
1, 493243, Control_c, 0, 64, 93
1, 493259, Control_c, 0, 64, 83
1, 493274, Control_c, 0, 64, 75
1, 493289, Control_c, 0, 64, 69
1, 493304, Control_c, 0, 64, 65
1, 493319, Control_c, 0, 64, 64
1, 493333, Control_c, 0, 64, 65
1, 493348, Control_c, 0, 64, 65
1, 493363, Control_c, 0, 64, 67
1, 493377, Control_c, 0, 64, 69
1, 493392, Control_c, 0, 64, 72
1, 493407, Control_c, 0, 64, 75
1, 493422, Control_c, 0, 64, 79
1, 493437, Control_c, 0, 64, 84
1, 493451, Control_c, 0, 64, 87
1, 493466, Control_c, 0, 64, 90
1, 493481, Control_c, 0, 64, 94
1, 493496, Control_c, 0, 64, 98
1, 493504, Note_off_c, 0, 49, 43
1, 493511, Control_c, 0, 64, 102
1, 493526, Control_c, 0, 64, 107
1, 493540, Control_c, 0, 64, 115
1, 493555, Control_c, 0, 64, 127
1, 493890, Note_on_c, 0, 70, 40
1, 493901, Note_on_c, 0, 34, 35
1, 493916, Note_on_c, 0, 61, 28
1, 493948, Control_c, 0, 64, 107
1, 493963, Control_c, 0, 64, 88
1, 493978, Control_c, 0, 64, 75
1, 493992, Control_c, 0, 64, 65
1, 494007, Control_c, 0, 64, 56
1, 494022, Control_c, 0, 64, 56
1, 494037, Control_c, 0, 64, 59
1, 494053, Control_c, 0, 64, 63
1, 494067, Control_c, 0, 64, 66
1, 494082, Control_c, 0, 64, 70
1, 494097, Control_c, 0, 64, 75
1, 494112, Control_c, 0, 64, 81
1, 494127, Control_c, 0, 64, 86
1, 494138, Note_off_c, 0, 34, 54
1, 494142, Control_c, 0, 64, 92
1, 494156, Control_c, 0, 64, 98
1, 494171, Control_c, 0, 64, 105
1, 494186, Control_c, 0, 64, 113
1, 494200, Control_c, 0, 64, 127
1, 494237, Note_on_c, 0, 73, 49
1, 494260, Note_on_c, 0, 65, 41
1, 494266, Note_off_c, 0, 61, 41
1, 494326, Note_off_c, 0, 70, 25
1, 494477, Note_off_c, 0, 73, 61
1, 494553, Note_on_c, 0, 53, 16
1, 494558, Note_on_c, 0, 61, 39
1, 494612, Note_off_c, 0, 65, 40
1, 494647, Note_off_c, 0, 53, 54
1, 494847, Note_on_c, 0, 63, 40
1, 494863, Note_on_c, 0, 58, 42
1, 494863, Note_off_c, 0, 61, 41
1, 494900, Note_off_c, 0, 63, 55
1, 494915, Note_off_c, 0, 58, 60
1, 495175, Note_on_c, 0, 77, 52
1, 495186, Control_c, 0, 64, 98
1, 495201, Control_c, 0, 64, 81
1, 495202, Note_on_c, 0, 41, 29
1, 495205, Note_on_c, 0, 68, 35
1, 495216, Control_c, 0, 64, 68
1, 495230, Control_c, 0, 64, 49
1, 495245, Control_c, 0, 64, 19
1, 495260, Control_c, 0, 64, 21
1, 495275, Control_c, 0, 64, 33
1, 495290, Control_c, 0, 64, 51
1, 495305, Control_c, 0, 64, 62
1, 495319, Control_c, 0, 64, 66
1, 495334, Control_c, 0, 64, 72
1, 495349, Control_c, 0, 64, 77
1, 495364, Control_c, 0, 64, 84
1, 495386, Control_c, 0, 64, 91
1, 495394, Note_off_c, 0, 41, 53
1, 495401, Control_c, 0, 64, 97
1, 495416, Control_c, 0, 64, 102
1, 495430, Control_c, 0, 64, 109
1, 495445, Control_c, 0, 64, 127
1, 495518, Note_on_c, 0, 72, 46
1, 495524, Note_off_c, 0, 77, 38
1, 495535, Note_on_c, 0, 65, 39
1, 495556, Note_off_c, 0, 68, 35
1, 495632, Note_off_c, 0, 65, 55
1, 495775, Note_off_c, 0, 72, 57
1, 495812, Note_on_c, 0, 65, 42
1, 495828, Note_on_c, 0, 56, 40
1, 495924, Note_off_c, 0, 65, 54
1, 496107, Note_on_c, 0, 53, 38
1, 496127, Note_on_c, 0, 60, 46
1, 496160, Note_off_c, 0, 60, 65
1, 496179, Note_off_c, 0, 53, 63
1, 496204, Note_off_c, 0, 56, 40
1, 496446, Control_c, 0, 64, 100
1, 496455, Note_on_c, 0, 70, 49
1, 496461, Control_c, 0, 64, 83
1, 496462, Note_on_c, 0, 42, 40
1, 496466, Note_on_c, 0, 61, 34
1, 496475, Control_c, 0, 64, 66
1, 496490, Control_c, 0, 64, 0
1, 496623, Control_c, 0, 64, 61
1, 496638, Control_c, 0, 64, 68
1, 496653, Control_c, 0, 64, 75
1, 496668, Control_c, 0, 64, 84
1, 496682, Control_c, 0, 64, 94
1, 496697, Note_off_c, 0, 42, 52
1, 496697, Control_c, 0, 64, 104
1, 496712, Control_c, 0, 64, 115
1, 496727, Control_c, 0, 64, 127
1, 496781, Note_on_c, 0, 73, 50
1, 496810, Note_on_c, 0, 66, 40
1, 496834, Note_off_c, 0, 61, 41
1, 496890, Note_off_c, 0, 70, 37
1, 497064, Note_off_c, 0, 73, 63
1, 497091, Note_on_c, 0, 54, 37
1, 497096, Note_on_c, 0, 61, 48
1, 497163, Note_off_c, 0, 66, 54
1, 497251, Note_off_c, 0, 54, 38
1, 497269, Control_c, 0, 67, 127
1, 497284, Control_c, 0, 67, 124
1, 497299, Control_c, 0, 67, 121
1, 497314, Control_c, 0, 67, 118
1, 497329, Control_c, 0, 67, 114
1, 497343, Control_c, 0, 67, 110
1, 497358, Control_c, 0, 67, 105
1, 497373, Control_c, 0, 67, 102
1, 497388, Control_c, 0, 67, 98
1, 497403, Control_c, 0, 67, 96
1, 497403, Note_on_c, 0, 63, 42
1, 497415, Note_on_c, 0, 58, 45
1, 497418, Control_c, 0, 67, 93
1, 497432, Note_off_c, 0, 61, 51
1, 497432, Control_c, 0, 67, 92
1, 497442, Note_off_c, 0, 63, 59
1, 497447, Control_c, 0, 67, 90
1, 497472, Note_off_c, 0, 58, 57
1, 497477, Control_c, 0, 67, 90
1, 497580, Control_c, 0, 67, 90
1, 497647, Control_c, 0, 67, 91
1, 497677, Control_c, 0, 67, 91
1, 497692, Control_c, 0, 67, 92
1, 497736, Control_c, 0, 67, 92
1, 497755, Note_on_c, 0, 77, 56
1, 497765, Control_c, 0, 64, 105
1, 497766, Note_on_c, 0, 37, 42
1, 497776, Note_on_c, 0, 68, 35
1, 497780, Control_c, 0, 64, 85
1, 497795, Control_c, 0, 64, 70
1, 497795, Control_c, 0, 67, 93
1, 497810, Control_c, 0, 64, 42
1, 497824, Control_c, 0, 64, 0
1, 497869, Control_c, 0, 64, 29
1, 497884, Control_c, 0, 64, 55
1, 497898, Control_c, 0, 64, 64
1, 497913, Control_c, 0, 64, 69
1, 497928, Control_c, 0, 64, 74
1, 497943, Control_c, 0, 64, 80
1, 497958, Control_c, 0, 64, 87
1, 497972, Control_c, 0, 64, 95
1, 497987, Control_c, 0, 64, 102
1, 497989, Note_off_c, 0, 37, 52
1, 498002, Control_c, 0, 64, 111
1, 498017, Control_c, 0, 64, 127
1, 498098, Note_on_c, 0, 73, 53
1, 498104, Note_on_c, 0, 65, 38
1, 498118, Note_off_c, 0, 68, 40
1, 498148, Note_off_c, 0, 77, 39
1, 498166, Control_c, 0, 67, 92
1, 498194, Note_off_c, 0, 65, 51
1, 498378, Note_on_c, 0, 65, 35
1, 498396, Note_on_c, 0, 56, 42
1, 498455, Control_c, 0, 67, 93
1, 498482, Note_off_c, 0, 73, 53
1, 498497, Note_off_c, 0, 65, 52
1, 498687, Note_on_c, 0, 53, 39
1, 498701, Note_on_c, 0, 61, 37
1, 498736, Note_off_c, 0, 61, 59
1, 498753, Note_off_c, 0, 53, 63
1, 498780, Note_off_c, 0, 56, 38
1, 498825, Control_c, 0, 67, 93
1, 498915, Control_c, 0, 67, 94
1, 499019, Control_c, 0, 67, 94
1, 499034, Control_c, 0, 67, 95
1, 499049, Control_c, 0, 67, 95
1, 499063, Control_c, 0, 67, 96
1, 499075, Note_on_c, 0, 73, 51
1, 499078, Control_c, 0, 64, 101
1, 499088, Note_on_c, 0, 37, 41
1, 499093, Control_c, 0, 64, 83
1, 499093, Control_c, 0, 67, 96
1, 499093, Note_on_c, 0, 64, 36
1, 499108, Control_c, 0, 64, 69
1, 499130, Control_c, 0, 64, 50
1, 499145, Control_c, 0, 64, 0
1, 499189, Control_c, 0, 64, 19
1, 499204, Control_c, 0, 64, 48
1, 499218, Control_c, 0, 64, 62
1, 499233, Control_c, 0, 64, 67
1, 499233, Control_c, 0, 67, 96
1, 499248, Control_c, 0, 64, 72
1, 499263, Control_c, 0, 64, 77
1, 499278, Control_c, 0, 64, 84
1, 499278, Control_c, 0, 67, 95
1, 499284, Note_off_c, 0, 37, 55
1, 499293, Control_c, 0, 64, 92
1, 499308, Control_c, 0, 64, 99
1, 499322, Control_c, 0, 64, 105
1, 499322, Control_c, 0, 67, 95
1, 499337, Control_c, 0, 64, 113
1, 499352, Control_c, 0, 64, 127
1, 499382, Control_c, 0, 67, 94
1, 499420, Note_on_c, 0, 76, 55
1, 499429, Note_on_c, 0, 68, 39
1, 499441, Control_c, 0, 67, 94
1, 499464, Note_off_c, 0, 73, 49
1, 499470, Control_c, 0, 67, 93
1, 499498, Note_off_c, 0, 64, 34
1, 499515, Control_c, 0, 67, 93
1, 499559, Control_c, 0, 67, 92
1, 499589, Control_c, 0, 67, 92
1, 499607, Note_off_c, 0, 68, 37
1, 499618, Control_c, 0, 67, 91
1, 499633, Control_c, 0, 67, 91
1, 499649, Control_c, 0, 67, 90
1, 499679, Control_c, 0, 67, 90
1, 499683, Note_on_c, 0, 56, 35
1, 499692, Note_on_c, 0, 64, 51
1, 499704, Note_off_c, 0, 76, 49
1, 499708, Control_c, 0, 67, 89
1, 499723, Control_c, 0, 67, 89
1, 499752, Control_c, 0, 67, 88
1, 499782, Control_c, 0, 67, 88
1, 499797, Control_c, 0, 67, 87
1, 499803, Note_off_c, 0, 56, 55
1, 499812, Control_c, 0, 67, 83
1, 499827, Control_c, 0, 67, 80
1, 499841, Control_c, 0, 67, 77
1, 499856, Control_c, 0, 67, 75
1, 499879, Control_c, 0, 67, 73
1, 499893, Control_c, 0, 67, 72
1, 499908, Control_c, 0, 67, 72
1, 499982, Control_c, 0, 67, 72
1, 500008, Note_on_c, 0, 61, 52
1, 500008, Note_on_c, 0, 68, 42
1, 500012, Control_c, 0, 67, 73
1, 500030, Note_off_c, 0, 64, 59
1, 500032, Note_off_c, 0, 68, 58
1, 500056, Control_c, 0, 67, 73
1, 500078, Note_off_c, 0, 61, 56
1, 500086, Control_c, 0, 67, 74
1, 500131, Control_c, 0, 67, 74
1, 500190, Control_c, 0, 67, 75
1, 500264, Control_c, 0, 67, 75
1, 500293, Control_c, 0, 67, 76
1, 500367, Control_c, 0, 67, 76
1, 500412, Control_c, 0, 64, 108
1, 500426, Control_c, 0, 64, 92
1, 500430, Note_on_c, 0, 83, 55
1, 500431, Note_on_c, 0, 35, 34
1, 500442, Control_c, 0, 64, 80
1, 500448, Note_on_c, 0, 75, 38
1, 500450, Note_on_c, 0, 47, 28
1, 500457, Control_c, 0, 64, 69
1, 500472, Control_c, 0, 64, 52
1, 500487, Control_c, 0, 64, 21
1, 500502, Control_c, 0, 64, 0
1, 500575, Control_c, 0, 64, 37
1, 500590, Control_c, 0, 64, 57
1, 500605, Control_c, 0, 64, 64
1, 500628, Control_c, 0, 64, 68
1, 500632, Note_off_c, 0, 35, 44
1, 500642, Control_c, 0, 64, 72
1, 500657, Control_c, 0, 64, 78
1, 500657, Control_c, 0, 67, 76
1, 500668, Note_off_c, 0, 47, 50
1, 500672, Control_c, 0, 64, 85
1, 500687, Control_c, 0, 64, 91
1, 500702, Control_c, 0, 64, 96
1, 500716, Control_c, 0, 64, 101
1, 500731, Control_c, 0, 64, 108
1, 500746, Control_c, 0, 64, 120
1, 500761, Control_c, 0, 64, 127
1, 500861, Note_on_c, 0, 78, 54
1, 500874, Note_on_c, 0, 71, 36
1, 500926, Note_off_c, 0, 75, 36
1, 500926, Note_off_c, 0, 83, 58
1, 500954, Note_off_c, 0, 71, 56
1, 501158, Note_off_c, 0, 78, 56
1, 501159, Note_on_c, 0, 71, 47
1, 501165, Note_on_c, 0, 63, 46
1, 501190, Control_c, 0, 67, 76
1, 501275, Note_off_c, 0, 71, 55
1, 501468, Note_on_c, 0, 59, 52
1, 501477, Note_on_c, 0, 66, 47
1, 501502, Note_off_c, 0, 66, 61
1, 501524, Control_c, 0, 67, 77
1, 501532, Note_off_c, 0, 59, 61
1, 501544, Note_off_c, 0, 63, 37
1, 501702, Control_c, 0, 67, 77
1, 501761, Control_c, 0, 67, 78
1, 501788, Note_on_c, 0, 71, 54
1, 501791, Control_c, 0, 64, 126
1, 501791, Control_c, 0, 67, 78
1, 501793, Note_on_c, 0, 40, 46
1, 501802, Note_on_c, 0, 64, 47
1, 501806, Control_c, 0, 64, 93
1, 501812, Note_on_c, 0, 52, 44
1, 501821, Control_c, 0, 64, 76
1, 501821, Control_c, 0, 67, 79
1, 501836, Control_c, 0, 64, 60
1, 501851, Control_c, 0, 64, 0
1, 501924, Control_c, 0, 64, 21
1, 501939, Control_c, 0, 64, 61
1, 501954, Control_c, 0, 64, 67
1, 501955, Note_off_c, 0, 40, 58
1, 501969, Control_c, 0, 64, 73
1, 501969, Control_c, 0, 67, 78
1, 501984, Control_c, 0, 64, 79
1, 501998, Control_c, 0, 64, 89
1, 502013, Control_c, 0, 64, 98
1, 502022, Note_off_c, 0, 52, 60
1, 502028, Control_c, 0, 64, 109
1, 502044, Control_c, 0, 64, 127
1, 502059, Control_c, 0, 67, 78
1, 502152, Note_on_c, 0, 68, 54
1, 502152, Note_on_c, 0, 76, 63
1, 502214, Note_off_c, 0, 71, 57
1, 502222, Note_off_c, 0, 64, 36
1, 502333, Control_c, 0, 67, 77
1, 502362, Control_c, 0, 67, 77
1, 502381, Note_off_c, 0, 68, 51
1, 502392, Control_c, 0, 67, 76
1, 502407, Control_c, 0, 67, 76
1, 502412, Note_on_c, 0, 56, 53
1, 502421, Control_c, 0, 67, 75
1, 502424, Note_on_c, 0, 64, 58
1, 502436, Control_c, 0, 67, 74
1, 502438, Note_off_c, 0, 76, 51
1, 502451, Control_c, 0, 67, 74
1, 502466, Control_c, 0, 67, 73
1, 502481, Control_c, 0, 67, 73
1, 502495, Control_c, 0, 67, 72
1, 502525, Control_c, 0, 67, 72
1, 502535, Note_off_c, 0, 56, 61
1, 502539, Control_c, 0, 67, 71
1, 502554, Control_c, 0, 67, 70
1, 502569, Control_c, 0, 67, 69
1, 502584, Control_c, 0, 67, 65
1, 502599, Control_c, 0, 67, 60
1, 502614, Control_c, 0, 67, 56
1, 502629, Control_c, 0, 67, 52
1, 502643, Control_c, 0, 67, 49
1, 502658, Control_c, 0, 67, 46
1, 502673, Control_c, 0, 67, 45
1, 502688, Control_c, 0, 67, 44
1, 502703, Control_c, 0, 67, 43
1, 502707, Note_on_c, 0, 68, 60
1, 502712, Note_on_c, 0, 59, 57
1, 502718, Control_c, 0, 67, 42
1, 502733, Control_c, 0, 67, 42
1, 502741, Note_off_c, 0, 64, 61
1, 502742, Note_off_c, 0, 68, 63
1, 502801, Note_off_c, 0, 59, 59
1, 502992, Control_c, 0, 67, 42
1, 503022, Control_c, 0, 67, 43
1, 503037, Control_c, 0, 67, 43
1, 503055, Note_on_c, 0, 83, 65
1, 503073, Note_on_c, 0, 47, 25
1, 503073, Note_on_c, 0, 75, 47
1, 503074, Note_on_c, 0, 35, 28
1, 503082, Control_c, 0, 64, 109
1, 503097, Control_c, 0, 64, 87
1, 503097, Control_c, 0, 67, 44
1, 503112, Control_c, 0, 64, 71
1, 503126, Control_c, 0, 64, 36
1, 503141, Control_c, 0, 64, 0
1, 503185, Control_c, 0, 64, 26
1, 503201, Control_c, 0, 64, 58
1, 503216, Control_c, 0, 64, 65
1, 503231, Control_c, 0, 64, 71
1, 503245, Control_c, 0, 64, 78
1, 503260, Control_c, 0, 64, 87
1, 503275, Control_c, 0, 64, 96
1, 503289, Note_off_c, 0, 35, 41
1, 503290, Control_c, 0, 64, 107
1, 503305, Control_c, 0, 64, 123
1, 503311, Note_off_c, 0, 47, 52
1, 503319, Control_c, 0, 64, 127
1, 503429, Note_on_c, 0, 78, 62
1, 503442, Note_on_c, 0, 71, 46
1, 503502, Note_off_c, 0, 75, 38
1, 503511, Note_off_c, 0, 83, 59
1, 503535, Note_off_c, 0, 71, 58
1, 503733, Note_on_c, 0, 71, 54
1, 503742, Note_on_c, 0, 63, 52
1, 503787, Control_c, 0, 67, 43
1, 503811, Note_off_c, 0, 78, 52
1, 503831, Control_c, 0, 67, 43
1, 503846, Control_c, 0, 67, 42
1, 503875, Control_c, 0, 67, 42
1, 503884, Note_off_c, 0, 71, 64
1, 503890, Control_c, 0, 67, 41
1, 503905, Control_c, 0, 67, 41
1, 503919, Control_c, 0, 67, 40
1, 503934, Control_c, 0, 67, 40
1, 503949, Control_c, 0, 67, 39
1, 503964, Control_c, 0, 67, 36
1, 503979, Control_c, 0, 67, 31
1, 503993, Control_c, 0, 67, 27
1, 504008, Control_c, 0, 67, 24
1, 504023, Control_c, 0, 67, 21
1, 504038, Control_c, 0, 67, 19
1, 504050, Note_on_c, 0, 66, 59
1, 504053, Note_on_c, 0, 59, 61
1, 504053, Control_c, 0, 67, 17
1, 504067, Control_c, 0, 67, 17
1, 504097, Note_off_c, 0, 66, 59
1, 504112, Note_off_c, 0, 59, 61
1, 504122, Note_off_c, 0, 63, 38
1, 504349, Control_c, 0, 67, 17
1, 504385, Note_on_c, 0, 71, 63
1, 504399, Note_on_c, 0, 64, 54
1, 504400, Control_c, 0, 67, 18
1, 504404, Note_on_c, 0, 40, 51
1, 504406, Note_on_c, 0, 52, 51
1, 504415, Control_c, 0, 64, 117
1, 504430, Control_c, 0, 64, 93
1, 504446, Control_c, 0, 64, 77
1, 504461, Control_c, 0, 64, 59
1, 504476, Control_c, 0, 64, 0
1, 504564, Control_c, 0, 64, 45
1, 504579, Control_c, 0, 64, 65
1, 504584, Note_off_c, 0, 40, 58
1, 504594, Control_c, 0, 64, 71
1, 504608, Control_c, 0, 64, 79
1, 504623, Control_c, 0, 64, 90
1, 504638, Control_c, 0, 64, 102
1, 504653, Control_c, 0, 64, 127
1, 504653, Control_c, 0, 67, 17
1, 504665, Note_off_c, 0, 52, 60
1, 504668, Control_c, 0, 67, 17
1, 504697, Control_c, 0, 67, 16
1, 504727, Control_c, 0, 67, 16
1, 504753, Note_on_c, 0, 68, 61
1, 504757, Note_on_c, 0, 76, 70
1, 504787, Control_c, 0, 67, 15
1, 504816, Control_c, 0, 67, 15
1, 504834, Note_off_c, 0, 64, 49
1, 504841, Note_off_c, 0, 71, 58
1, 504846, Control_c, 0, 67, 14
1, 504861, Control_c, 0, 67, 12
1, 504876, Control_c, 0, 67, 9
1, 504890, Control_c, 0, 67, 0
1, 504986, Note_off_c, 0, 68, 52
1, 505012, Note_on_c, 0, 56, 61
1, 505025, Note_on_c, 0, 64, 59
1, 505040, Note_off_c, 0, 76, 53
1, 505157, Note_off_c, 0, 56, 61
1, 505311, Note_on_c, 0, 68, 70
1, 505314, Note_on_c, 0, 59, 66
1, 505354, Note_off_c, 0, 64, 62
1, 505360, Note_off_c, 0, 68, 61
1, 505411, Note_off_c, 0, 59, 61
1, 505672, Note_on_c, 0, 83, 70
1, 505680, Note_on_c, 0, 35, 51
1, 505682, Note_on_c, 0, 75, 61
1, 505690, Note_on_c, 0, 47, 48
1, 505714, Control_c, 0, 64, 105
1, 505729, Control_c, 0, 64, 85
1, 505744, Control_c, 0, 64, 70
1, 505758, Control_c, 0, 64, 53
1, 505773, Control_c, 0, 64, 24
1, 505803, Control_c, 0, 64, 30
1, 505818, Control_c, 0, 64, 50
1, 505832, Control_c, 0, 64, 63
1, 505847, Control_c, 0, 64, 68
1, 505869, Control_c, 0, 64, 74
1, 505884, Control_c, 0, 64, 81
1, 505899, Control_c, 0, 64, 93
1, 505901, Note_off_c, 0, 35, 59
1, 505914, Control_c, 0, 64, 104
1, 505928, Control_c, 0, 64, 127
1, 505943, Note_off_c, 0, 47, 64
1, 506099, Note_on_c, 0, 71, 57
1, 506099, Note_on_c, 0, 78, 73
1, 506138, Note_off_c, 0, 75, 60
1, 506195, Note_off_c, 0, 83, 56
1, 506241, Note_off_c, 0, 71, 55
1, 506396, Note_on_c, 0, 63, 67
1, 506397, Note_on_c, 0, 71, 64
1, 506550, Note_off_c, 0, 71, 63
1, 506568, Note_off_c, 0, 78, 48
1, 506720, Note_on_c, 0, 66, 75
1, 506722, Note_on_c, 0, 59, 71
1, 506738, Note_off_c, 0, 63, 57
1, 506778, Note_off_c, 0, 66, 62
1, 506788, Note_off_c, 0, 59, 62
1, 507054, Note_on_c, 0, 81, 77
1, 507061, Note_on_c, 0, 75, 72
1, 507076, Note_on_c, 0, 35, 59
1, 507081, Note_on_c, 0, 47, 66
1, 507094, Control_c, 0, 64, 96
1, 507109, Control_c, 0, 64, 77
1, 507124, Control_c, 0, 64, 57
1, 507138, Control_c, 0, 64, 0
1, 507198, Control_c, 0, 64, 32
1, 507212, Control_c, 0, 64, 62
1, 507227, Control_c, 0, 64, 71
1, 507242, Control_c, 0, 64, 80
1, 507257, Control_c, 0, 64, 95
1, 507271, Note_off_c, 0, 35, 61
1, 507272, Control_c, 0, 64, 127
1, 507306, Note_off_c, 0, 47, 64
1, 507462, Note_on_c, 0, 78, 79
1, 507464, Note_on_c, 0, 69, 71
1, 507487, Note_off_c, 0, 75, 62
1, 507553, Note_off_c, 0, 81, 58
1, 507615, Note_off_c, 0, 69, 54
1, 507732, Note_on_c, 0, 69, 75
1, 507742, Note_on_c, 0, 63, 74
1, 507851, Note_off_c, 0, 78, 55
1, 507905, Note_off_c, 0, 69, 58
1, 508040, Note_on_c, 0, 66, 83
1, 508045, Note_on_c, 0, 57, 79
1, 508054, Note_off_c, 0, 63, 61
1, 508091, Note_off_c, 0, 66, 64
1, 508120, Note_off_c, 0, 57, 63
1, 508341, Note_on_c, 0, 81, 83
1, 508346, Note_on_c, 0, 75, 76
1, 508363, Note_on_c, 0, 36, 77
1, 508364, Note_on_c, 0, 48, 78
1, 508398, Control_c, 0, 64, 91
1, 508413, Control_c, 0, 64, 69
1, 508428, Control_c, 0, 64, 0
1, 508501, Control_c, 0, 64, 32
1, 508516, Control_c, 0, 64, 64
1, 508531, Control_c, 0, 64, 74
1, 508546, Control_c, 0, 64, 87
1, 508561, Control_c, 0, 64, 127
1, 508570, Note_off_c, 0, 36, 55
1, 508599, Note_off_c, 0, 48, 63
1, 508722, Note_on_c, 0, 78, 83
1, 508728, Note_on_c, 0, 69, 79
1, 508751, Note_off_c, 0, 75, 63
1, 508786, Note_off_c, 0, 81, 57
1, 508911, Note_off_c, 0, 69, 55
1, 509008, Note_on_c, 0, 69, 83
1, 509011, Note_on_c, 0, 63, 77
1, 509084, Note_off_c, 0, 78, 60
1, 509178, Note_off_c, 0, 69, 61
1, 509311, Note_on_c, 0, 66, 88
1, 509321, Note_on_c, 0, 57, 76
1, 509339, Note_off_c, 0, 63, 59
1, 509389, Note_off_c, 0, 66, 64
1, 509407, Note_off_c, 0, 57, 64
1, 509643, Note_on_c, 0, 80, 87
1, 509651, Note_on_c, 0, 36, 79
1, 509652, Note_on_c, 0, 75, 80
1, 509652, Note_on_c, 0, 48, 86
1, 509702, Control_c, 0, 64, 106
1, 509717, Control_c, 0, 64, 77
1, 509731, Control_c, 0, 64, 0
1, 509820, Control_c, 0, 64, 59
1, 509835, Control_c, 0, 64, 70
1, 509850, Control_c, 0, 64, 82
1, 509864, Control_c, 0, 64, 103
1, 509875, Note_off_c, 0, 36, 57
1, 509879, Control_c, 0, 64, 127
1, 509885, Note_on_c, 0, 38, 7
1, 509907, Note_off_c, 0, 48, 62
1, 509941, Note_off_c, 0, 38, 47
1, 510050, Note_on_c, 0, 68, 83
1, 510051, Note_on_c, 0, 78, 86
1, 510081, Note_off_c, 0, 75, 64
1, 510136, Note_off_c, 0, 80, 58
1, 510242, Note_off_c, 0, 68, 60
1, 510361, Note_on_c, 0, 68, 85
1, 510366, Note_on_c, 0, 63, 80
1, 510457, Note_off_c, 0, 78, 55
1, 510540, Note_off_c, 0, 68, 60
1, 510719, Note_on_c, 0, 56, 82
1, 510722, Note_on_c, 0, 66, 88
1, 510749, Note_off_c, 0, 63, 59
1, 510777, Note_off_c, 0, 66, 64
1, 510806, Note_off_c, 0, 56, 67
1, 511077, Note_on_c, 0, 44, 89
1, 511082, Note_on_c, 0, 32, 81
1, 511175, Note_on_c, 0, 72, 78
1, 511238, Note_on_c, 0, 75, 89
1, 511258, Control_c, 0, 64, 99
1, 511273, Control_c, 0, 64, 74
1, 511288, Control_c, 0, 64, 0
1, 511401, Note_on_c, 0, 82, 88
1, 511422, Control_c, 0, 64, 64
1, 511436, Control_c, 0, 64, 75
1, 511451, Control_c, 0, 64, 93
1, 511466, Control_c, 0, 64, 127
1, 511565, Note_off_c, 0, 32, 60
1, 511619, Note_off_c, 0, 44, 62
1, 511925, Note_on_c, 0, 80, 81
1, 511968, Note_off_c, 0, 75, 58
1, 512008, Note_off_c, 0, 72, 61
1, 512226, Note_off_c, 0, 82, 39
1, 512232, Note_on_c, 0, 78, 79
1, 512237, Note_on_c, 0, 73, 75
1, 512242, Note_on_c, 0, 56, 73
1, 512245, Note_on_c, 0, 70, 73
1, 512422, Note_off_c, 0, 73, 60
1, 512434, Note_off_c, 0, 70, 63
1, 512543, Note_off_c, 0, 80, 39
1, 512581, Note_on_c, 0, 77, 92
1, 512603, Note_on_c, 0, 72, 65
1, 512608, Note_on_c, 0, 68, 80
1, 512703, Note_off_c, 0, 72, 58
1, 512741, Note_off_c, 0, 56, 63
1, 512755, Note_off_c, 0, 77, 60
1, 512758, Note_off_c, 0, 68, 59
1, 512795, Note_off_c, 0, 78, 39
1, 512937, Note_on_c, 0, 56, 71
1, 512940, Note_on_c, 0, 74, 85
1, 512941, Note_on_c, 0, 72, 78
1, 512946, Note_on_c, 0, 65, 68
1, 512979, Control_c, 0, 64, 106
1, 512994, Control_c, 0, 64, 81
1, 513009, Control_c, 0, 64, 65
1, 513023, Control_c, 0, 64, 27
1, 513038, Control_c, 0, 64, 40
1, 513053, Control_c, 0, 64, 59
1, 513068, Control_c, 0, 64, 66
1, 513083, Control_c, 0, 64, 72
1, 513098, Control_c, 0, 64, 80
1, 513112, Control_c, 0, 64, 95
1, 513127, Control_c, 0, 64, 116
1, 513142, Control_c, 0, 64, 127
1, 513413, Note_on_c, 0, 75, 84
1, 513423, Note_on_c, 0, 66, 74
1, 513519, Note_off_c, 0, 65, 57
1, 513521, Note_off_c, 0, 74, 54
1, 513944, Note_on_c, 0, 74, 83
1, 513945, Note_on_c, 0, 65, 55
1, 513970, Note_off_c, 0, 66, 61
1, 513970, Note_off_c, 0, 75, 62
1, 514019, Note_off_c, 0, 65, 62
1, 514066, Note_on_c, 0, 75, 86
1, 514072, Note_on_c, 0, 66, 69
1, 514175, Note_off_c, 0, 74, 63
1, 514177, Note_on_c, 0, 77, 81
1, 514182, Note_on_c, 0, 68, 76
1, 514212, Note_off_c, 0, 75, 62
1, 514214, Note_off_c, 0, 66, 58
1, 514344, Control_c, 0, 64, 106
1, 514358, Control_c, 0, 64, 91
1, 514373, Control_c, 0, 64, 79
1, 514376, Note_on_c, 0, 75, 76
1, 514385, Note_on_c, 0, 66, 67
1, 514388, Control_c, 0, 64, 67
1, 514403, Control_c, 0, 64, 14
1, 514418, Control_c, 0, 64, 0
1, 514481, Note_off_c, 0, 68, 56
1, 514547, Note_off_c, 0, 77, 47
1, 514668, Control_c, 0, 64, 36
1, 514683, Control_c, 0, 64, 60
1, 514683, Control_c, 0, 67, 8
1, 514698, Control_c, 0, 64, 65
1, 514713, Control_c, 0, 64, 71
1, 514728, Control_c, 0, 64, 79
1, 514743, Control_c, 0, 64, 89
1, 514758, Control_c, 0, 64, 103
1, 514773, Control_c, 0, 64, 127
1, 514884, Note_off_c, 0, 72, 56
1, 514907, Note_off_c, 0, 66, 50
1, 514929, Control_c, 0, 67, 0
1, 514952, Note_off_c, 0, 56, 38
1, 515581, Note_on_c, 0, 73, 89
1, 515626, Note_off_c, 0, 75, 61
1, 515681, Note_off_c, 0, 73, 62
1, 515757, Note_on_c, 0, 37, 70
1, 515864, Note_on_c, 0, 73, 89
1, 515870, Control_c, 0, 64, 112
1, 515871, Note_on_c, 0, 65, 80
1, 515885, Control_c, 0, 64, 85
1, 515900, Control_c, 0, 64, 69
1, 515914, Control_c, 0, 64, 53
1, 515930, Control_c, 0, 64, 48
1, 515945, Control_c, 0, 64, 58
1, 515960, Control_c, 0, 64, 65
1, 515974, Control_c, 0, 64, 73
1, 515989, Control_c, 0, 64, 82
1, 516004, Control_c, 0, 64, 99
1, 516019, Control_c, 0, 64, 127
1, 516024, Note_off_c, 0, 65, 50
1, 516114, Note_off_c, 0, 37, 62
1, 516144, Note_on_c, 0, 49, 57
1, 516193, Note_off_c, 0, 49, 63
1, 516285, Note_on_c, 0, 78, 89
1, 516293, Note_on_c, 0, 70, 69
1, 516309, Note_off_c, 0, 73, 64
1, 516439, Note_on_c, 0, 51, 72
1, 516470, Note_off_c, 0, 70, 39
1, 516488, Note_off_c, 0, 78, 60
1, 516586, Note_on_c, 0, 78, 90
1, 516597, Note_on_c, 0, 70, 73
1, 516598, Note_on_c, 0, 49, 70
1, 516622, Note_off_c, 0, 51, 51
1, 516758, Note_on_c, 0, 61, 64
1, 516765, Note_off_c, 0, 49, 62
1, 516896, Note_on_c, 0, 49, 71
1, 516973, Note_off_c, 0, 70, 62
1, 517029, Note_off_c, 0, 61, 35
1, 517041, Note_on_c, 0, 51, 73
1, 517073, Note_off_c, 0, 49, 63
1, 517192, Note_on_c, 0, 49, 75
1, 517208, Note_off_c, 0, 51, 61
1, 517229, Note_off_c, 0, 49, 66
1, 517264, Note_on_c, 0, 77, 84
1, 517267, Note_on_c, 0, 68, 80
1, 517303, Note_off_c, 0, 78, 54
1, 517338, Note_off_c, 0, 77, 62
1, 517352, Note_off_c, 0, 68, 57
1, 517382, Note_on_c, 0, 49, 72
1, 517489, Note_on_c, 0, 37, 78
1, 517493, Note_off_c, 0, 49, 60
1, 517516, Note_on_c, 0, 77, 86
1, 517517, Note_on_c, 0, 70, 71
1, 517522, Note_on_c, 0, 68, 72
1, 517532, Poly_aftertouch_c, 0, 42, 127
1, 517561, Control_c, 0, 64, 102
1, 517576, Control_c, 0, 64, 74
1, 517591, Control_c, 0, 64, 55
1, 517592, Poly_aftertouch_c, 0, 42, 0
1, 517606, Control_c, 0, 64, 45
1, 517620, Control_c, 0, 64, 60
1, 517635, Control_c, 0, 64, 67
1, 517650, Control_c, 0, 64, 78
1, 517664, Control_c, 0, 64, 100
1, 517679, Control_c, 0, 64, 127
1, 517683, Note_off_c, 0, 37, 61
1, 517686, Note_off_c, 0, 68, 58
1, 517697, Note_on_c, 0, 49, 68
1, 517739, Note_off_c, 0, 49, 64
1, 517803, Note_on_c, 0, 67, 82
1, 517803, Note_on_c, 0, 75, 85
1, 517894, Note_off_c, 0, 77, 56
1, 517915, Note_on_c, 0, 51, 69
1, 517939, Note_off_c, 0, 67, 55
1, 517970, Note_off_c, 0, 70, 62
1, 517971, Note_off_c, 0, 75, 61
1, 518060, Note_on_c, 0, 67, 78
1, 518062, Note_on_c, 0, 75, 87
1, 518065, Note_on_c, 0, 49, 73
1, 518065, Note_on_c, 0, 70, 81
1, 518067, Note_off_c, 0, 51, 61
1, 518210, Note_on_c, 0, 61, 70
1, 518216, Note_off_c, 0, 49, 63
1, 518335, Note_on_c, 0, 49, 76
1, 518386, Note_off_c, 0, 61, 57
1, 518473, Note_on_c, 0, 51, 76
1, 518500, Note_off_c, 0, 49, 62
1, 518570, Note_off_c, 0, 67, 56
1, 518579, Note_off_c, 0, 70, 59
1, 518597, Note_off_c, 0, 75, 60
1, 518608, Note_on_c, 0, 49, 80
1, 518613, Note_off_c, 0, 51, 65
1, 518634, Note_off_c, 0, 49, 68
1, 518688, Note_on_c, 0, 75, 99
1, 518693, Note_on_c, 0, 67, 78
1, 518714, Note_off_c, 0, 67, 69
1, 518752, Note_off_c, 0, 75, 64
1, 518779, Note_on_c, 0, 49, 71
1, 518910, Note_on_c, 0, 37, 78
1, 518922, Note_off_c, 0, 49, 63
1, 519003, Note_on_c, 0, 66, 84
1, 519003, Note_on_c, 0, 75, 92
1, 519030, Control_c, 0, 64, 85
1, 519044, Control_c, 0, 64, 64
1, 519059, Control_c, 0, 64, 0
1, 519104, Control_c, 0, 64, 47
1, 519118, Control_c, 0, 64, 67
1, 519129, Note_off_c, 0, 66, 62
1, 519133, Control_c, 0, 64, 79
1, 519148, Control_c, 0, 64, 99
1, 519163, Control_c, 0, 64, 127
1, 519246, Note_off_c, 0, 37, 61
1, 519262, Note_on_c, 0, 49, 54
1, 519297, Note_off_c, 0, 49, 63
1, 519380, Note_on_c, 0, 82, 94
1, 519406, Note_off_c, 0, 75, 62
1, 519418, Note_on_c, 0, 83, 53
1, 519438, Note_off_c, 0, 83, 63
1, 519480, Note_off_c, 0, 82, 61
1, 519507, Note_on_c, 0, 51, 64
1, 519560, Poly_aftertouch_c, 0, 73, 127
1, 519590, Poly_aftertouch_c, 0, 73, 0
1, 519619, Note_on_c, 0, 66, 69
1, 519661, Note_on_c, 0, 72, 73
1, 519667, Note_off_c, 0, 51, 59
1, 519667, Note_on_c, 0, 49, 67
1, 519669, Note_off_c, 0, 66, 63
1, 519692, Note_on_c, 0, 75, 69
1, 519739, Note_on_c, 0, 82, 92
1, 519873, Note_off_c, 0, 49, 62
1, 519873, Note_on_c, 0, 61, 58
1, 519995, Note_off_c, 0, 82, 61
1, 520001, Note_on_c, 0, 49, 69
1, 520066, Note_off_c, 0, 72, 58
1, 520108, Note_off_c, 0, 61, 38
1, 520109, Note_off_c, 0, 75, 59
1, 520149, Note_on_c, 0, 51, 71
1, 520172, Note_off_c, 0, 49, 62
1, 520288, Note_on_c, 0, 49, 72
1, 520304, Note_off_c, 0, 51, 58
1, 520328, Note_on_c, 0, 65, 74
1, 520329, Note_off_c, 0, 49, 64
1, 520355, Note_on_c, 0, 70, 71
1, 520356, Note_off_c, 0, 65, 64
1, 520385, Note_on_c, 0, 73, 77
1, 520413, Note_on_c, 0, 80, 87
1, 520488, Note_on_c, 0, 49, 61
1, 520511, Note_off_c, 0, 80, 62
1, 520549, Note_off_c, 0, 73, 59
1, 520562, Note_off_c, 0, 70, 57
1, 520581, Note_off_c, 0, 49, 56
1, 520590, Note_on_c, 0, 37, 74
1, 520597, Note_on_c, 0, 65, 68
1, 520633, Note_on_c, 0, 70, 64
1, 520646, Note_off_c, 0, 65, 55
1, 520660, Note_on_c, 0, 73, 70
1, 520660, Control_c, 0, 64, 107
1, 520675, Control_c, 0, 64, 82
1, 520690, Control_c, 0, 64, 66
1, 520692, Note_on_c, 0, 80, 84
1, 520705, Control_c, 0, 64, 59
1, 520720, Control_c, 0, 64, 64
1, 520735, Control_c, 0, 64, 69
1, 520750, Control_c, 0, 64, 76
1, 520764, Control_c, 0, 64, 88
1, 520779, Control_c, 0, 64, 114
1, 520794, Control_c, 0, 64, 127
1, 520848, Note_off_c, 0, 80, 61
1, 520867, Note_off_c, 0, 37, 61
1, 520906, Note_on_c, 0, 49, 62
1, 520940, Note_off_c, 0, 49, 63
1, 520994, Note_on_c, 0, 79, 86
1, 521109, Note_off_c, 0, 79, 54
1, 521117, Note_on_c, 0, 51, 56
1, 521146, Note_off_c, 0, 70, 56
1, 521160, Note_off_c, 0, 73, 61
1, 521232, Note_on_c, 0, 65, 63
1, 521262, Note_on_c, 0, 70, 60
1, 521265, Note_off_c, 0, 51, 62
1, 521283, Note_on_c, 0, 73, 70
1, 521290, Note_on_c, 0, 49, 54
1, 521302, Note_on_c, 0, 79, 82
1, 521334, Control_c, 0, 64, 94
1, 521349, Control_c, 0, 64, 77
1, 521364, Control_c, 0, 64, 64
1, 521378, Control_c, 0, 64, 44
1, 521393, Control_c, 0, 64, 45
1, 521408, Control_c, 0, 64, 54
1, 521423, Control_c, 0, 64, 63
1, 521437, Control_c, 0, 64, 67
1, 521452, Control_c, 0, 64, 72
1, 521456, Note_off_c, 0, 49, 63
1, 521467, Control_c, 0, 64, 79
1, 521470, Note_on_c, 0, 61, 54
1, 521482, Control_c, 0, 64, 91
1, 521497, Control_c, 0, 64, 104
1, 521511, Control_c, 0, 64, 127
1, 521605, Note_on_c, 0, 49, 61
1, 521680, Note_off_c, 0, 61, 36
1, 521740, Note_on_c, 0, 51, 67
1, 521754, Note_off_c, 0, 49, 62
1, 521826, Note_off_c, 0, 79, 52
1, 521873, Note_off_c, 0, 51, 62
1, 521875, Note_on_c, 0, 49, 65
1, 521900, Note_off_c, 0, 49, 66
1, 521922, Note_off_c, 0, 65, 58
1, 521953, Note_on_c, 0, 79, 81
1, 521990, Note_off_c, 0, 70, 60
1, 522002, Note_off_c, 0, 79, 63
1, 522010, Note_off_c, 0, 73, 62
1, 522036, Note_on_c, 0, 49, 42
1, 522073, Note_off_c, 0, 49, 62
1, 522155, Note_on_c, 0, 39, 76
1, 522190, Note_on_c, 0, 63, 59
1, 522201, Control_c, 0, 64, 120
1, 522216, Control_c, 0, 64, 86
1, 522219, Note_off_c, 0, 63, 65
1, 522222, Note_on_c, 0, 70, 64
1, 522231, Control_c, 0, 64, 65
1, 522242, Note_on_c, 0, 73, 56
1, 522246, Control_c, 0, 64, 0
1, 522260, Control_c, 0, 64, 34
1, 522275, Control_c, 0, 64, 58
1, 522288, Note_on_c, 0, 79, 81
1, 522290, Control_c, 0, 64, 66
1, 522294, Note_off_c, 0, 73, 63
1, 522303, Note_off_c, 0, 70, 63
1, 522305, Control_c, 0, 64, 74
1, 522320, Control_c, 0, 64, 86
1, 522324, Note_on_c, 0, 77, 22
1, 522341, Control_c, 0, 64, 121
1, 522349, Note_off_c, 0, 39, 60
1, 522356, Control_c, 0, 64, 127
1, 522373, Note_off_c, 0, 77, 56
1, 522374, Note_off_c, 0, 79, 61
1, 522512, Note_on_c, 0, 80, 81
1, 522521, Note_on_c, 0, 51, 50
1, 522657, Note_off_c, 0, 51, 63
1, 522661, Note_on_c, 0, 82, 93
1, 522675, Note_on_c, 0, 53, 53
1, 522686, Note_off_c, 0, 80, 61
1, 522717, Note_off_c, 0, 82, 64
1, 522833, Note_off_c, 0, 53, 36
1, 522841, Note_on_c, 0, 44, 48
1, 522890, Note_on_c, 0, 63, 62
1, 522929, Note_on_c, 0, 68, 69
1, 522959, Note_on_c, 0, 72, 81
1, 522980, Control_c, 0, 64, 93
1, 522995, Control_c, 0, 64, 72
1, 523009, Control_c, 0, 64, 53
1, 523024, Control_c, 0, 64, 0
1, 523054, Control_c, 0, 64, 24
1, 523069, Control_c, 0, 64, 53
1, 523091, Control_c, 0, 64, 64
1, 523106, Control_c, 0, 64, 72
1, 523112, Note_on_c, 0, 51, 53
1, 523121, Control_c, 0, 64, 80
1, 523136, Control_c, 0, 64, 92
1, 523151, Control_c, 0, 64, 109
1, 523165, Control_c, 0, 64, 127
1, 523247, Note_off_c, 0, 51, 64
1, 523249, Note_on_c, 0, 53, 68
1, 523265, Note_off_c, 0, 63, 58
1, 523334, Note_off_c, 0, 68, 57
1, 523358, Note_off_c, 0, 72, 59
1, 523376, Note_on_c, 0, 51, 70
1, 523377, Note_off_c, 0, 53, 65
1, 523519, Note_off_c, 0, 51, 64
1, 523527, Note_on_c, 0, 53, 63
1, 523599, Note_on_c, 0, 80, 83
1, 523653, Note_off_c, 0, 53, 65
1, 523657, Note_off_c, 0, 80, 66
1, 523663, Note_on_c, 0, 51, 69
1, 523687, Note_off_c, 0, 51, 67
1, 523689, Note_off_c, 0, 44, 62
1, 523810, Note_on_c, 0, 39, 68
1, 523854, Note_on_c, 0, 63, 64
1, 523870, Control_c, 0, 64, 109
1, 523876, Note_on_c, 0, 70, 75
1, 523885, Control_c, 0, 64, 85
1, 523896, Note_off_c, 0, 63, 60
1, 523900, Control_c, 0, 64, 71
1, 523906, Note_on_c, 0, 73, 68
1, 523914, Control_c, 0, 64, 64
1, 523929, Control_c, 0, 64, 66
1, 523944, Control_c, 0, 64, 70
1, 523958, Note_on_c, 0, 79, 85
1, 523959, Control_c, 0, 64, 78
1, 523968, Note_off_c, 0, 73, 64
1, 523971, Note_off_c, 0, 70, 63
1, 523974, Control_c, 0, 64, 90
1, 523988, Control_c, 0, 64, 109
1, 523992, Note_off_c, 0, 39, 58
1, 524003, Control_c, 0, 64, 127
1, 524032, Note_off_c, 0, 79, 61
1, 524145, Note_on_c, 0, 80, 81
1, 524148, Note_on_c, 0, 51, 58
1, 524279, Note_off_c, 0, 51, 62
1, 524282, Note_on_c, 0, 82, 94
1, 524292, Note_off_c, 0, 80, 60
1, 524294, Note_on_c, 0, 53, 56
1, 524326, Note_off_c, 0, 82, 66
1, 524458, Note_on_c, 0, 44, 59
1, 524460, Note_off_c, 0, 53, 52
1, 524485, Note_on_c, 0, 63, 64
1, 524526, Note_on_c, 0, 68, 65
1, 524558, Note_on_c, 0, 72, 74
1, 524567, Control_c, 0, 64, 96
1, 524589, Control_c, 0, 64, 77
1, 524604, Control_c, 0, 64, 62
1, 524619, Control_c, 0, 64, 0
1, 524678, Control_c, 0, 64, 34
1, 524691, Note_on_c, 0, 51, 48
1, 524693, Control_c, 0, 64, 59
1, 524708, Control_c, 0, 64, 66
1, 524723, Control_c, 0, 64, 71
1, 524737, Control_c, 0, 64, 76
1, 524752, Control_c, 0, 64, 85
1, 524767, Control_c, 0, 64, 96
1, 524781, Control_c, 0, 64, 113
1, 524796, Control_c, 0, 64, 127
1, 524811, Note_off_c, 0, 51, 63
1, 524826, Note_on_c, 0, 53, 56
1, 524893, Note_off_c, 0, 63, 59
1, 524928, Note_off_c, 0, 68, 60
1, 524933, Note_off_c, 0, 53, 62
1, 524944, Note_off_c, 0, 72, 61
1, 524956, Note_on_c, 0, 51, 56
1, 525080, Note_off_c, 0, 51, 62
1, 525117, Note_on_c, 0, 53, 42
1, 525173, Note_on_c, 0, 80, 77
1, 525238, Note_off_c, 0, 80, 61
1, 525243, Note_off_c, 0, 53, 65
1, 525263, Note_on_c, 0, 51, 47
1, 525281, Note_off_c, 0, 44, 63
1, 525289, Note_off_c, 0, 51, 60
1, 525438, Note_on_c, 0, 39, 49
1, 525512, Note_on_c, 0, 63, 53
1, 525530, Control_c, 0, 64, 93
1, 525545, Control_c, 0, 64, 75
1, 525558, Note_on_c, 0, 70, 54
1, 525559, Control_c, 0, 64, 59
1, 525574, Control_c, 0, 64, 44
1, 525582, Note_on_c, 0, 73, 60
1, 525589, Note_off_c, 0, 63, 59
1, 525589, Control_c, 0, 64, 47
1, 525603, Control_c, 0, 64, 57
1, 525618, Control_c, 0, 64, 64
1, 525633, Control_c, 0, 64, 70
1, 525638, Note_on_c, 0, 78, 74
1, 525648, Control_c, 0, 64, 77
1, 525662, Note_off_c, 0, 73, 61
1, 525664, Control_c, 0, 64, 90
1, 525673, Note_off_c, 0, 70, 62
1, 525678, Control_c, 0, 64, 105
1, 525682, Note_off_c, 0, 39, 57
1, 525693, Control_c, 0, 64, 127
1, 525743, Note_off_c, 0, 78, 60
1, 525865, Note_on_c, 0, 80, 69
1, 525868, Note_on_c, 0, 51, 47
1, 526010, Note_off_c, 0, 51, 54
1, 526026, Note_on_c, 0, 82, 82
1, 526052, Note_on_c, 0, 53, 36
1, 526070, Note_off_c, 0, 82, 65
1, 526098, Note_off_c, 0, 80, 31
1, 526226, Note_on_c, 0, 44, 46
1, 526234, Note_off_c, 0, 53, 46
1, 526250, Note_on_c, 0, 63, 51
1, 526299, Note_on_c, 0, 68, 59
1, 526336, Note_on_c, 0, 72, 67
1, 526339, Control_c, 0, 64, 104
1, 526354, Control_c, 0, 64, 84
1, 526369, Control_c, 0, 64, 70
1, 526383, Control_c, 0, 64, 52
1, 526398, Control_c, 0, 64, 0
1, 526457, Control_c, 0, 64, 17
1, 526472, Control_c, 0, 64, 44
1, 526487, Control_c, 0, 64, 59
1, 526501, Control_c, 0, 64, 65
1, 526512, Note_on_c, 0, 51, 44
1, 526516, Control_c, 0, 64, 70
1, 526531, Control_c, 0, 64, 75
1, 526546, Control_c, 0, 64, 83
1, 526560, Control_c, 0, 64, 92
1, 526575, Control_c, 0, 64, 103
1, 526590, Control_c, 0, 64, 119
1, 526605, Control_c, 0, 64, 127
1, 526643, Note_off_c, 0, 51, 62
1, 526659, Note_on_c, 0, 53, 56
1, 526799, Note_off_c, 0, 53, 64
1, 526805, Note_on_c, 0, 51, 66
1, 526959, Note_off_c, 0, 51, 61
1, 526977, Note_on_c, 0, 53, 54
1, 527015, Note_off_c, 0, 63, 56
1, 527051, Note_on_c, 0, 75, 79
1, 527084, Note_off_c, 0, 72, 61
1, 527112, Note_off_c, 0, 68, 59
1, 527141, Note_off_c, 0, 53, 54
1, 527152, Note_on_c, 0, 51, 63
1, 527173, Note_off_c, 0, 75, 60
1, 527178, Note_off_c, 0, 51, 66
1, 527185, Note_off_c, 0, 44, 63
1, 527325, Note_on_c, 0, 37, 63
1, 527384, Note_on_c, 0, 60, 59
1, 527437, Note_on_c, 0, 66, 64
1, 527452, Note_off_c, 0, 60, 63
1, 527457, Control_c, 0, 64, 102
1, 527472, Control_c, 0, 64, 81
1, 527473, Note_on_c, 0, 68, 67
1, 527487, Control_c, 0, 64, 68
1, 527502, Control_c, 0, 64, 62
1, 527531, Control_c, 0, 64, 64
1, 527538, Note_on_c, 0, 75, 78
1, 527546, Control_c, 0, 64, 68
1, 527561, Control_c, 0, 64, 74
1, 527583, Control_c, 0, 64, 82
1, 527599, Control_c, 0, 64, 92
1, 527614, Control_c, 0, 64, 106
1, 527629, Control_c, 0, 64, 127
1, 527659, Note_off_c, 0, 68, 60
1, 527680, Note_off_c, 0, 66, 37
1, 527704, Note_off_c, 0, 37, 59
1, 527747, Note_off_c, 0, 75, 59
1, 527750, Note_on_c, 0, 49, 54
1, 527786, Note_off_c, 0, 49, 62
1, 527933, Note_on_c, 0, 51, 56
1, 528005, Note_on_c, 0, 61, 63
1, 528034, Note_off_c, 0, 61, 64
1, 528050, Note_on_c, 0, 68, 66
1, 528080, Note_on_c, 0, 73, 67
1, 528127, Note_off_c, 0, 51, 60
1, 528134, Note_on_c, 0, 49, 61
1, 528140, Note_on_c, 0, 77, 79
1, 528162, Control_c, 0, 64, 94
1, 528177, Control_c, 0, 64, 78
1, 528192, Control_c, 0, 64, 66
1, 528206, Control_c, 0, 64, 61
1, 528221, Control_c, 0, 64, 63
1, 528236, Control_c, 0, 64, 66
1, 528251, Control_c, 0, 64, 70
1, 528266, Control_c, 0, 64, 76
1, 528280, Control_c, 0, 64, 84
1, 528295, Note_off_c, 0, 77, 58
1, 528295, Control_c, 0, 64, 96
1, 528310, Control_c, 0, 64, 122
1, 528311, Note_off_c, 0, 49, 61
1, 528324, Note_on_c, 0, 61, 57
1, 528332, Control_c, 0, 64, 127
1, 528349, Note_off_c, 0, 73, 58
1, 528396, Note_off_c, 0, 68, 38
1, 528479, Note_on_c, 0, 49, 59
1, 528493, Note_off_c, 0, 61, 56
1, 528571, Note_on_c, 0, 63, 57
1, 528622, Note_on_c, 0, 68, 68
1, 528632, Note_off_c, 0, 63, 58
1, 528655, Note_on_c, 0, 51, 53
1, 528666, Note_on_c, 0, 72, 56
1, 528675, Control_c, 0, 64, 94
1, 528679, Note_off_c, 0, 49, 58
1, 528690, Control_c, 0, 64, 76
1, 528704, Control_c, 0, 64, 59
1, 528715, Note_on_c, 0, 78, 76
1, 528719, Control_c, 0, 64, 0
1, 528748, Control_c, 0, 64, 26
1, 528763, Control_c, 0, 64, 50
1, 528778, Control_c, 0, 64, 63
1, 528793, Control_c, 0, 64, 70
1, 528808, Control_c, 0, 64, 77
1, 528822, Control_c, 0, 64, 87
1, 528837, Control_c, 0, 64, 100
1, 528852, Control_c, 0, 64, 123
1, 528857, Note_on_c, 0, 49, 52
1, 528861, Note_off_c, 0, 51, 51
1, 528867, Control_c, 0, 64, 127
1, 528882, Note_off_c, 0, 78, 62
1, 528891, Note_off_c, 0, 49, 63
1, 528911, Note_off_c, 0, 68, 40
1, 528914, Note_off_c, 0, 72, 58
1, 529051, Note_on_c, 0, 51, 44
1, 529089, Note_off_c, 0, 51, 58
1, 529173, Note_on_c, 0, 61, 46
1, 529203, Note_off_c, 0, 61, 55
1, 529224, Note_on_c, 0, 68, 55
1, 529260, Note_on_c, 0, 73, 58
1, 529265, Note_on_c, 0, 37, 42
1, 529320, Control_c, 0, 64, 95
1, 529335, Note_on_c, 0, 77, 65
1, 529335, Control_c, 0, 64, 76
1, 529349, Control_c, 0, 64, 57
1, 529364, Control_c, 0, 64, 0
1, 529452, Control_c, 0, 64, 58
1, 529467, Control_c, 0, 64, 68
1, 529482, Control_c, 0, 64, 76
1, 529495, Note_off_c, 0, 37, 52
1, 529497, Control_c, 0, 64, 87
1, 529512, Control_c, 0, 64, 101
1, 529526, Control_c, 0, 64, 127
1, 529532, Note_on_c, 0, 49, 47
1, 529572, Note_off_c, 0, 49, 60
1, 529704, Note_on_c, 0, 51, 56
1, 529862, Note_off_c, 0, 51, 61
1, 529874, Note_on_c, 0, 49, 60
1, 530018, Note_off_c, 0, 77, 31
1, 530041, Note_off_c, 0, 49, 61
1, 530044, Note_on_c, 0, 61, 51
1, 530157, Control_c, 0, 67, 8
1, 530172, Control_c, 0, 67, 9
1, 530187, Control_c, 0, 67, 10
1, 530194, Note_on_c, 0, 49, 47
1, 530201, Control_c, 0, 67, 12
1, 530216, Control_c, 0, 67, 13
1, 530231, Control_c, 0, 67, 15
1, 530236, Note_off_c, 0, 61, 34
1, 530246, Control_c, 0, 67, 17
1, 530261, Control_c, 0, 67, 20
1, 530275, Control_c, 0, 67, 24
1, 530290, Control_c, 0, 67, 28
1, 530305, Note_off_c, 0, 73, 23
1, 530305, Control_c, 0, 67, 31
1, 530320, Control_c, 0, 67, 35
1, 530335, Control_c, 0, 67, 38
1, 530345, Note_off_c, 0, 68, 29
1, 530349, Control_c, 0, 67, 41
1, 530357, Note_off_c, 0, 49, 58
1, 530362, Note_on_c, 0, 51, 48
1, 530364, Control_c, 0, 67, 45
1, 530379, Control_c, 0, 67, 49
1, 530393, Control_c, 0, 67, 54
1, 530408, Control_c, 0, 67, 59
1, 530423, Control_c, 0, 67, 64
1, 530438, Control_c, 0, 67, 70
1, 530453, Control_c, 0, 67, 75
1, 530467, Control_c, 0, 67, 79
1, 530482, Control_c, 0, 67, 84
1, 530497, Control_c, 0, 67, 88
1, 530512, Control_c, 0, 67, 91
1, 530522, Note_off_c, 0, 51, 57
1, 530525, Note_on_c, 0, 49, 45
1, 530527, Control_c, 0, 67, 93
1, 530542, Control_c, 0, 67, 94
1, 530587, Note_off_c, 0, 49, 58
1, 530668, Control_c, 0, 67, 94
1, 530682, Control_c, 0, 67, 93
1, 530697, Control_c, 0, 67, 93
1, 530712, Control_c, 0, 67, 92
1, 530727, Control_c, 0, 67, 92
1, 530736, Note_on_c, 0, 51, 28
1, 530741, Control_c, 0, 67, 91
1, 530756, Control_c, 0, 67, 90
1, 530771, Control_c, 0, 67, 90
1, 530774, Note_off_c, 0, 51, 54
1, 530786, Control_c, 0, 67, 89
1, 530817, Control_c, 0, 67, 89
1, 530846, Control_c, 0, 67, 88
1, 530906, Note_on_c, 0, 37, 46
1, 530961, Note_on_c, 0, 60, 52
1, 530980, Control_c, 0, 67, 89
1, 531010, Control_c, 0, 64, 100
1, 531010, Control_c, 0, 67, 89
1, 531022, Note_on_c, 0, 66, 56
1, 531024, Control_c, 0, 64, 82
1, 531039, Control_c, 0, 64, 69
1, 531054, Control_c, 0, 64, 62
1, 531060, Note_off_c, 0, 60, 62
1, 531066, Note_on_c, 0, 68, 64
1, 531084, Control_c, 0, 64, 64
1, 531098, Control_c, 0, 64, 66
1, 531113, Control_c, 0, 64, 70
1, 531128, Control_c, 0, 64, 75
1, 531142, Control_c, 0, 64, 81
1, 531155, Note_on_c, 0, 75, 69
1, 531157, Control_c, 0, 64, 87
1, 531157, Control_c, 0, 67, 89
1, 531172, Control_c, 0, 64, 94
1, 531172, Control_c, 0, 67, 88
1, 531187, Control_c, 0, 64, 101
1, 531202, Control_c, 0, 64, 111
1, 531202, Control_c, 0, 67, 88
1, 531216, Control_c, 0, 64, 127
1, 531216, Control_c, 0, 67, 87
1, 531231, Control_c, 0, 67, 87
1, 531284, Note_off_c, 0, 68, 59
1, 531290, Note_off_c, 0, 66, 35
1, 531290, Control_c, 0, 67, 86
1, 531298, Note_off_c, 0, 37, 42
1, 531328, Control_c, 0, 67, 86
1, 531332, Note_on_c, 0, 49, 49
1, 531350, Note_off_c, 0, 75, 57
1, 531371, Note_off_c, 0, 49, 61
1, 531387, Control_c, 0, 67, 85
1, 531490, Control_c, 0, 67, 85
1, 531525, Note_on_c, 0, 51, 47
1, 531597, Note_on_c, 0, 61, 58
1, 531636, Note_off_c, 0, 61, 61
1, 531654, Control_c, 0, 67, 85
1, 531656, Note_on_c, 0, 68, 64
1, 531698, Note_on_c, 0, 73, 64
1, 531716, Note_off_c, 0, 51, 60
1, 531755, Note_on_c, 0, 49, 51
1, 531758, Control_c, 0, 64, 99
1, 531773, Control_c, 0, 64, 82
1, 531779, Note_on_c, 0, 76, 72
1, 531788, Control_c, 0, 64, 69
1, 531803, Control_c, 0, 64, 60
1, 531818, Control_c, 0, 64, 56
1, 531833, Control_c, 0, 64, 57
1, 531847, Control_c, 0, 64, 62
1, 531862, Control_c, 0, 64, 64
1, 531877, Control_c, 0, 64, 66
1, 531892, Control_c, 0, 64, 69
1, 531907, Control_c, 0, 64, 73
1, 531907, Control_c, 0, 67, 85
1, 531921, Control_c, 0, 64, 79
1, 531936, Control_c, 0, 64, 87
1, 531945, Note_off_c, 0, 49, 60
1, 531951, Control_c, 0, 64, 98
1, 531955, Note_off_c, 0, 76, 61
1, 531961, Note_on_c, 0, 61, 42
1, 531965, Control_c, 0, 64, 114
1, 531965, Control_c, 0, 67, 84
1, 531978, Note_off_c, 0, 73, 36
1, 531980, Control_c, 0, 64, 127
1, 531992, Note_off_c, 0, 68, 51
1, 532111, Note_off_c, 0, 61, 34
1, 532137, Note_on_c, 0, 49, 45
1, 532193, Note_on_c, 0, 63, 52
1, 532240, Control_c, 0, 67, 85
1, 532249, Note_on_c, 0, 68, 57
1, 532250, Note_off_c, 0, 63, 48
1, 532269, Control_c, 0, 67, 85
1, 532287, Note_on_c, 0, 72, 53
1, 532299, Control_c, 0, 67, 86
1, 532328, Control_c, 0, 64, 106
1, 532336, Note_on_c, 0, 51, 47
1, 532337, Note_off_c, 0, 49, 57
1, 532341, Note_on_c, 0, 78, 72
1, 532343, Control_c, 0, 64, 87
1, 532358, Control_c, 0, 64, 73
1, 532372, Control_c, 0, 64, 64
1, 532372, Control_c, 0, 67, 86
1, 532388, Control_c, 0, 64, 58
1, 532404, Control_c, 0, 64, 59
1, 532419, Control_c, 0, 64, 62
1, 532434, Control_c, 0, 64, 65
1, 532449, Control_c, 0, 64, 69
1, 532463, Control_c, 0, 64, 73
1, 532478, Control_c, 0, 64, 77
1, 532493, Control_c, 0, 64, 84
1, 532494, Note_off_c, 0, 51, 59
1, 532503, Note_on_c, 0, 49, 48
1, 532508, Control_c, 0, 64, 92
1, 532521, Note_off_c, 0, 78, 62
1, 532523, Control_c, 0, 64, 103
1, 532523, Control_c, 0, 67, 86
1, 532538, Control_c, 0, 64, 120
1, 532551, Note_off_c, 0, 72, 53
1, 532552, Control_c, 0, 64, 127
1, 532556, Note_off_c, 0, 49, 57
1, 532568, Note_off_c, 0, 68, 39
1, 532709, Note_on_c, 0, 51, 51
1, 532741, Note_off_c, 0, 51, 65
1, 532760, Control_c, 0, 67, 86
1, 532867, Note_on_c, 0, 61, 48
1, 532912, Note_off_c, 0, 61, 60
1, 532915, Control_c, 0, 67, 87
1, 532933, Note_on_c, 0, 68, 47
1, 532944, Control_c, 0, 67, 87
1, 532959, Control_c, 0, 67, 88
1, 532965, Note_on_c, 0, 37, 39
1, 532971, Note_on_c, 0, 73, 59
1, 532974, Control_c, 0, 67, 88
1, 532989, Control_c, 0, 64, 107
1, 532989, Control_c, 0, 67, 89
1, 533004, Control_c, 0, 64, 86
1, 533004, Control_c, 0, 67, 89
1, 533019, Control_c, 0, 64, 69
1, 533019, Control_c, 0, 67, 90
1, 533034, Control_c, 0, 64, 0
1, 533034, Control_c, 0, 67, 90
1, 533049, Control_c, 0, 67, 91
1, 533061, Note_on_c, 0, 76, 61
1, 533093, Control_c, 0, 67, 91
1, 533137, Control_c, 0, 64, 54
1, 533151, Control_c, 0, 64, 65
1, 533166, Control_c, 0, 64, 72
1, 533181, Control_c, 0, 64, 81
1, 533197, Control_c, 0, 64, 91
1, 533211, Control_c, 0, 64, 104
1, 533226, Control_c, 0, 64, 122
1, 533232, Note_off_c, 0, 37, 41
1, 533241, Control_c, 0, 64, 127
1, 533241, Control_c, 0, 67, 91
1, 533271, Control_c, 0, 67, 90
1, 533281, Note_on_c, 0, 49, 45
1, 533329, Note_off_c, 0, 49, 57
1, 533344, Control_c, 0, 67, 90
1, 533404, Control_c, 0, 67, 89
1, 533481, Note_on_c, 0, 51, 42
1, 533614, Note_off_c, 0, 51, 61
1, 533655, Note_on_c, 0, 49, 46
1, 533707, Note_off_c, 0, 76, 28
1, 533722, Control_c, 0, 67, 90
1, 533752, Control_c, 0, 67, 90
1, 533767, Control_c, 0, 67, 91
1, 533782, Control_c, 0, 67, 91
1, 533797, Control_c, 0, 67, 92
1, 533812, Control_c, 0, 67, 92
1, 533814, Note_off_c, 0, 49, 59
1, 533841, Control_c, 0, 67, 93
1, 533848, Note_on_c, 0, 61, 38
1, 533856, Control_c, 0, 67, 93
1, 533871, Control_c, 0, 67, 94
1, 533886, Control_c, 0, 67, 94
1, 533899, Control_c, 0, 67, 95
1, 533929, Control_c, 0, 67, 96
1, 533937, Note_off_c, 0, 73, 16
1, 533943, Control_c, 0, 67, 96
1, 533958, Control_c, 0, 67, 97
1, 533973, Control_c, 0, 67, 101
1, 533989, Control_c, 0, 67, 105
1, 534004, Control_c, 0, 67, 109
1, 534019, Control_c, 0, 67, 113
1, 534029, Note_on_c, 0, 49, 39
1, 534034, Control_c, 0, 67, 117
1, 534048, Control_c, 0, 67, 121
1, 534063, Control_c, 0, 67, 125
1, 534078, Control_c, 0, 67, 127
1, 534079, Note_off_c, 0, 68, 20
1, 534100, Note_off_c, 0, 61, 33
1, 534202, Note_on_c, 0, 51, 44
1, 534209, Note_off_c, 0, 49, 43
1, 534387, Note_off_c, 0, 51, 53
1, 534401, Note_on_c, 0, 49, 41
1, 534463, Note_off_c, 0, 49, 58
1, 534608, Note_on_c, 0, 51, 37
1, 534649, Note_off_c, 0, 51, 51
1, 534822, Note_on_c, 0, 37, 39
1, 534915, Note_on_c, 0, 64, 42
1, 534916, Control_c, 0, 64, 116
1, 534931, Control_c, 0, 64, 97
1, 534945, Control_c, 0, 64, 84
1, 534960, Control_c, 0, 64, 73
1, 534971, Note_on_c, 0, 68, 44
1, 534975, Control_c, 0, 64, 64
1, 534989, Control_c, 0, 64, 59
1, 535004, Control_c, 0, 64, 59
1, 535013, Note_on_c, 0, 70, 51
1, 535019, Control_c, 0, 64, 62
1, 535034, Control_c, 0, 64, 64
1, 535049, Control_c, 0, 64, 67
1, 535071, Control_c, 0, 64, 71
1, 535086, Control_c, 0, 64, 75
1, 535094, Note_on_c, 0, 73, 58
1, 535101, Control_c, 0, 64, 80
1, 535115, Control_c, 0, 64, 86
1, 535130, Control_c, 0, 64, 93
1, 535145, Control_c, 0, 64, 101
1, 535160, Control_c, 0, 64, 111
1, 535175, Control_c, 0, 64, 127
1, 535249, Note_off_c, 0, 64, 37
1, 535269, Note_off_c, 0, 37, 42
1, 535306, Note_off_c, 0, 68, 35
1, 535317, Note_off_c, 0, 70, 38
1, 535323, Note_on_c, 0, 49, 46
1, 535366, Note_off_c, 0, 49, 59
1, 535384, Note_off_c, 0, 73, 56
1, 535545, Note_on_c, 0, 51, 39
1, 535631, Note_on_c, 0, 63, 43
1, 535689, Note_on_c, 0, 72, 54
1, 535693, Note_off_c, 0, 51, 49
1, 535705, Note_on_c, 0, 68, 28
1, 535736, Note_on_c, 0, 49, 45
1, 535738, Control_c, 0, 64, 95
1, 535753, Control_c, 0, 64, 82
1, 535755, Note_on_c, 0, 75, 60
1, 535768, Control_c, 0, 64, 72
1, 535783, Control_c, 0, 64, 65
1, 535798, Control_c, 0, 64, 64
1, 535820, Control_c, 0, 64, 64
1, 535835, Control_c, 0, 64, 67
1, 535850, Control_c, 0, 64, 69
1, 535865, Control_c, 0, 64, 72
1, 535880, Control_c, 0, 64, 76
1, 535892, Note_off_c, 0, 49, 61
1, 535894, Note_off_c, 0, 63, 36
1, 535894, Control_c, 0, 64, 81
1, 535909, Control_c, 0, 64, 85
1, 535918, Note_off_c, 0, 72, 32
1, 535924, Control_c, 0, 64, 91
1, 535933, Note_on_c, 0, 61, 33
1, 535938, Control_c, 0, 64, 99
1, 535953, Control_c, 0, 64, 108
1, 535968, Control_c, 0, 64, 127
1, 536013, Note_off_c, 0, 75, 55
1, 536017, Note_off_c, 0, 68, 42
1, 536098, Note_off_c, 0, 61, 41
1, 536125, Note_on_c, 0, 49, 46
1, 536250, Note_on_c, 0, 61, 47
1, 536335, Note_off_c, 0, 49, 37
1, 536339, Note_on_c, 0, 68, 38
1, 536353, Note_on_c, 0, 51, 30
1, 536353, Note_off_c, 0, 61, 50
1, 536357, Note_on_c, 0, 73, 54
1, 536414, Control_c, 0, 64, 118
1, 536429, Control_c, 0, 64, 93
1, 536437, Note_on_c, 0, 76, 61
1, 536443, Control_c, 0, 64, 78
1, 536458, Control_c, 0, 64, 65
1, 536473, Control_c, 0, 64, 46
1, 536488, Control_c, 0, 64, 36
1, 536517, Control_c, 0, 64, 37
1, 536532, Control_c, 0, 64, 44
1, 536547, Control_c, 0, 64, 53
1, 536569, Control_c, 0, 64, 61
1, 536584, Control_c, 0, 64, 65
1, 536599, Control_c, 0, 64, 69
1, 536613, Note_off_c, 0, 51, 48
1, 536614, Control_c, 0, 64, 73
1, 536618, Note_on_c, 0, 49, 42
1, 536629, Control_c, 0, 64, 78
1, 536643, Control_c, 0, 64, 84
1, 536658, Control_c, 0, 64, 91
1, 536671, Note_off_c, 0, 49, 58
1, 536673, Control_c, 0, 64, 99
1, 536688, Control_c, 0, 64, 109
1, 536693, Note_off_c, 0, 76, 53
1, 536703, Control_c, 0, 64, 127
1, 536749, Note_off_c, 0, 73, 34
1, 536816, Note_off_c, 0, 68, 42
1, 536831, Note_on_c, 0, 51, 41
1, 536867, Note_off_c, 0, 51, 60
1, 537165, Note_on_c, 0, 39, 34
1, 537252, Control_c, 0, 64, 106
1, 537264, Note_on_c, 0, 70, 54
1, 537265, Note_on_c, 0, 68, 48
1, 537266, Control_c, 0, 64, 87
1, 537275, Note_on_c, 0, 63, 37
1, 537281, Control_c, 0, 64, 74
1, 537296, Control_c, 0, 64, 64
1, 537318, Control_c, 0, 64, 55
1, 537333, Control_c, 0, 64, 56
1, 537347, Control_c, 0, 64, 61
1, 537362, Control_c, 0, 64, 64
1, 537377, Control_c, 0, 64, 67
1, 537392, Control_c, 0, 64, 71
1, 537407, Control_c, 0, 64, 76
1, 537422, Control_c, 0, 64, 81
1, 537437, Control_c, 0, 64, 87
1, 537452, Control_c, 0, 64, 95
1, 537457, Note_off_c, 0, 39, 48
1, 537466, Control_c, 0, 64, 102
1, 537481, Control_c, 0, 64, 111
1, 537496, Control_c, 0, 64, 127
1, 537719, Note_on_c, 0, 51, 17
1, 537906, Note_on_c, 0, 52, 40
1, 537909, Note_off_c, 0, 51, 42
1, 537937, Note_off_c, 0, 52, 55
1, 537946, Note_off_c, 0, 63, 34
1, 538131, Note_on_c, 0, 51, 44
1, 538215, Control_c, 0, 64, 98
1, 538230, Control_c, 0, 64, 83
1, 538244, Control_c, 0, 64, 72
1, 538259, Control_c, 0, 64, 64
1, 538274, Control_c, 0, 64, 61
1, 538304, Control_c, 0, 64, 62
1, 538319, Control_c, 0, 64, 64
1, 538333, Note_on_c, 0, 63, 46
1, 538333, Control_c, 0, 64, 66
1, 538348, Control_c, 0, 64, 68
1, 538363, Control_c, 0, 64, 71
1, 538378, Control_c, 0, 64, 75
1, 538393, Control_c, 0, 64, 80
1, 538403, Note_off_c, 0, 51, 62
1, 538408, Control_c, 0, 64, 86
1, 538423, Control_c, 0, 64, 92
1, 538438, Control_c, 0, 64, 98
1, 538453, Control_c, 0, 64, 104
1, 538468, Control_c, 0, 64, 113
1, 538482, Control_c, 0, 64, 127
1, 538507, Note_off_c, 0, 63, 38
1, 538550, Note_on_c, 0, 51, 41
1, 538706, Note_off_c, 0, 51, 58
1, 538720, Note_on_c, 0, 63, 36
1, 538874, Note_off_c, 0, 63, 34
1, 538923, Note_on_c, 0, 51, 33
1, 539083, Note_off_c, 0, 51, 47
1, 539093, Note_on_c, 0, 63, 33
1, 539256, Note_off_c, 0, 63, 33
1, 539276, Control_c, 0, 64, 112
1, 539282, Note_on_c, 0, 51, 36
1, 539290, Control_c, 0, 64, 92
1, 539301, Note_on_c, 0, 67, 39
1, 539305, Control_c, 0, 64, 78
1, 539320, Control_c, 0, 64, 67
1, 539335, Control_c, 0, 64, 58
1, 539350, Note_off_c, 0, 68, 47
1, 539350, Control_c, 0, 64, 54
1, 539364, Control_c, 0, 64, 55
1, 539379, Control_c, 0, 64, 58
1, 539394, Control_c, 0, 64, 62
1, 539409, Control_c, 0, 64, 65
1, 539424, Control_c, 0, 64, 68
1, 539428, Note_off_c, 0, 51, 59
1, 539438, Control_c, 0, 64, 72
1, 539453, Control_c, 0, 64, 76
1, 539458, Note_on_c, 0, 63, 35
1, 539468, Control_c, 0, 64, 81
1, 539482, Control_c, 0, 64, 87
1, 539497, Control_c, 0, 64, 93
1, 539512, Control_c, 0, 64, 100
1, 539527, Control_c, 0, 64, 106
1, 539542, Control_c, 0, 64, 117
1, 539564, Control_c, 0, 64, 127
1, 539665, Note_on_c, 0, 51, 36
1, 539693, Note_off_c, 0, 63, 38
1, 539727, Note_off_c, 0, 51, 53
1, 539981, Note_on_c, 0, 62, 36
1, 540146, Note_off_c, 0, 62, 58
1, 540203, Note_on_c, 0, 63, 28
1, 540286, Note_off_c, 0, 63, 38
1, 540391, Note_on_c, 0, 51, 33
1, 540491, Control_c, 0, 64, 99
1, 540506, Control_c, 0, 64, 84
1, 540521, Control_c, 0, 64, 73
1, 540535, Control_c, 0, 64, 65
1, 540550, Control_c, 0, 64, 63
1, 540551, Note_on_c, 0, 61, 47
1, 540565, Control_c, 0, 64, 64
1, 540580, Control_c, 0, 64, 65
1, 540595, Control_c, 0, 64, 67
1, 540609, Control_c, 0, 64, 69
1, 540617, Note_off_c, 0, 67, 48
1, 540624, Control_c, 0, 64, 72
1, 540639, Control_c, 0, 64, 75
1, 540654, Control_c, 0, 64, 79
1, 540669, Control_c, 0, 64, 83
1, 540683, Control_c, 0, 64, 89
1, 540698, Control_c, 0, 64, 97
1, 540713, Control_c, 0, 64, 106
1, 540716, Note_off_c, 0, 61, 56
1, 540727, Note_off_c, 0, 70, 55
1, 540728, Control_c, 0, 64, 120
1, 540741, Note_on_c, 0, 63, 30
1, 540742, Control_c, 0, 64, 127
1, 540753, Note_off_c, 0, 51, 47
1, 540876, Note_off_c, 0, 63, 33
1, 540907, Note_on_c, 0, 51, 30
1, 541152, Note_on_c, 0, 60, 37
1, 541210, Control_c, 0, 64, 109
1, 541225, Control_c, 0, 64, 92
1, 541235, Note_on_c, 0, 75, 56
1, 541240, Control_c, 0, 64, 79
1, 541255, Control_c, 0, 64, 67
1, 541270, Control_c, 0, 64, 59
1, 541285, Control_c, 0, 64, 55
1, 541314, Control_c, 0, 64, 55
1, 541329, Control_c, 0, 64, 58
1, 541344, Control_c, 0, 64, 62
1, 541358, Control_c, 0, 64, 65
1, 541373, Control_c, 0, 64, 68
1, 541374, Note_off_c, 0, 60, 52
1, 541389, Control_c, 0, 64, 71
1, 541404, Control_c, 0, 64, 75
1, 541419, Control_c, 0, 64, 78
1, 541421, Note_off_c, 0, 51, 45
1, 541433, Control_c, 0, 64, 82
1, 541439, Note_on_c, 0, 63, 35
1, 541448, Control_c, 0, 64, 87
1, 541463, Control_c, 0, 64, 91
1, 541477, Control_c, 0, 64, 95
1, 541492, Control_c, 0, 64, 99
1, 541507, Control_c, 0, 64, 103
1, 541522, Control_c, 0, 64, 107
1, 541537, Control_c, 0, 64, 114
1, 541551, Control_c, 0, 64, 127
1, 541562, Note_off_c, 0, 63, 29
1, 541607, Note_on_c, 0, 51, 35
1, 541752, Note_on_c, 0, 72, 68
1, 541778, Note_on_c, 0, 56, 35
1, 541933, Note_off_c, 0, 51, 44
1, 541957, Note_off_c, 0, 56, 45
1, 541965, Note_on_c, 0, 63, 43
1, 542099, Note_on_c, 0, 51, 33
1, 542143, Note_off_c, 0, 63, 27
1, 542238, Note_on_c, 0, 68, 65
1, 542266, Note_on_c, 0, 53, 42
1, 542271, Control_c, 0, 67, 127
1, 542286, Control_c, 0, 67, 125
1, 542300, Control_c, 0, 67, 122
1, 542315, Control_c, 0, 67, 118
1, 542330, Control_c, 0, 67, 114
1, 542345, Control_c, 0, 67, 107
1, 542360, Control_c, 0, 67, 102
1, 542364, Note_off_c, 0, 75, 33
1, 542373, Note_off_c, 0, 53, 64
1, 542374, Control_c, 0, 67, 96
1, 542389, Control_c, 0, 67, 90
1, 542404, Control_c, 0, 67, 84
1, 542418, Note_on_c, 0, 63, 38
1, 542419, Note_off_c, 0, 51, 44
1, 542419, Control_c, 0, 67, 80
1, 542434, Control_c, 0, 67, 76
1, 542448, Control_c, 0, 67, 74
1, 542463, Control_c, 0, 67, 73
1, 542534, Note_off_c, 0, 63, 32
1, 542540, Note_on_c, 0, 51, 43
1, 542560, Control_c, 0, 67, 74
1, 542575, Control_c, 0, 67, 75
1, 542589, Control_c, 0, 67, 76
1, 542604, Control_c, 0, 67, 77
1, 542619, Control_c, 0, 67, 77
1, 542634, Control_c, 0, 67, 78
1, 542648, Control_c, 0, 67, 78
1, 542691, Note_off_c, 0, 51, 62
1, 542693, Control_c, 0, 64, 95
1, 542707, Control_c, 0, 64, 80
1, 542713, Note_on_c, 0, 49, 54
1, 542719, Note_on_c, 0, 65, 59
1, 542722, Control_c, 0, 64, 70
1, 542737, Control_c, 0, 64, 64
1, 542740, Note_off_c, 0, 72, 38
1, 542752, Control_c, 0, 64, 65
1, 542767, Control_c, 0, 64, 67
1, 542783, Control_c, 0, 64, 70
1, 542798, Control_c, 0, 64, 75
1, 542812, Control_c, 0, 64, 81
1, 542812, Control_c, 0, 67, 78
1, 542827, Control_c, 0, 64, 89
1, 542837, Note_off_c, 0, 49, 57
1, 542842, Control_c, 0, 64, 100
1, 542845, Note_off_c, 0, 68, 59
1, 542857, Control_c, 0, 64, 118
1, 542857, Control_c, 0, 67, 77
1, 542872, Control_c, 0, 64, 127
1, 542895, Note_on_c, 0, 63, 41
1, 542951, Note_off_c, 0, 63, 48
1, 543006, Note_on_c, 0, 51, 42
1, 543020, Control_c, 0, 67, 78
1, 543035, Control_c, 0, 67, 78
1, 543038, Note_off_c, 0, 51, 58
1, 543050, Control_c, 0, 67, 79
1, 543065, Control_c, 0, 67, 79
1, 543079, Control_c, 0, 67, 80
1, 543094, Control_c, 0, 67, 81
1, 543109, Control_c, 0, 67, 81
1, 543123, Control_c, 0, 67, 82
1, 543138, Control_c, 0, 67, 83
1, 543153, Control_c, 0, 67, 84
1, 543156, Note_on_c, 0, 61, 67
1, 543168, Control_c, 0, 64, 110
1, 543168, Control_c, 0, 67, 84
1, 543169, Note_on_c, 0, 46, 50
1, 543181, Note_off_c, 0, 65, 55
1, 543183, Control_c, 0, 64, 92
1, 543183, Control_c, 0, 67, 85
1, 543197, Control_c, 0, 64, 82
1, 543197, Control_c, 0, 67, 85
1, 543206, Note_off_c, 0, 46, 62
1, 543212, Control_c, 0, 64, 79
1, 543212, Control_c, 0, 67, 86
1, 543227, Control_c, 0, 64, 80
1, 543227, Control_c, 0, 67, 88
1, 543242, Control_c, 0, 64, 84
1, 543242, Control_c, 0, 67, 90
1, 543256, Control_c, 0, 64, 94
1, 543256, Control_c, 0, 67, 92
1, 543271, Control_c, 0, 64, 109
1, 543271, Control_c, 0, 67, 94
1, 543286, Control_c, 0, 64, 127
1, 543286, Control_c, 0, 67, 97
1, 543309, Control_c, 0, 67, 100
1, 543324, Control_c, 0, 67, 102
1, 543338, Control_c, 0, 67, 105
1, 543342, Note_on_c, 0, 63, 46
1, 543353, Control_c, 0, 67, 107
1, 543368, Control_c, 0, 67, 110
1, 543383, Control_c, 0, 67, 114
1, 543396, Note_off_c, 0, 63, 54
1, 543398, Control_c, 0, 67, 118
1, 543412, Control_c, 0, 67, 123
1, 543427, Control_c, 0, 67, 127
1, 543480, Note_on_c, 0, 51, 45
1, 543511, Note_off_c, 0, 51, 58
1, 543664, Control_c, 0, 64, 99
1, 543679, Note_on_c, 0, 43, 44
1, 543679, Control_c, 0, 64, 79
1, 543694, Control_c, 0, 64, 63
1, 543708, Control_c, 0, 64, 0
1, 543755, Note_on_c, 0, 58, 62
1, 543798, Control_c, 0, 64, 60
1, 543804, Note_off_c, 0, 43, 61
1, 543813, Control_c, 0, 64, 69
1, 543816, Note_off_c, 0, 61, 53
1, 543827, Control_c, 0, 64, 76
1, 543842, Control_c, 0, 64, 84
1, 543857, Control_c, 0, 64, 94
1, 543871, Control_c, 0, 64, 106
1, 543886, Control_c, 0, 64, 127
1, 544084, Poly_aftertouch_c, 0, 63, 127
1, 544126, Poly_aftertouch_c, 0, 63, 0
1, 544138, Note_on_c, 0, 51, 39
1, 544171, Note_off_c, 0, 51, 53
1, 544273, Note_on_c, 0, 44, 63
1, 544278, Control_c, 0, 64, 109
1, 544281, Note_off_c, 0, 58, 60
1, 544293, Control_c, 0, 64, 87
1, 544307, Note_on_c, 0, 60, 52
1, 544308, Control_c, 0, 64, 76
1, 544323, Control_c, 0, 64, 70
1, 544338, Control_c, 0, 64, 71
1, 544346, Note_off_c, 0, 44, 61
1, 544349, Note_off_c, 0, 60, 58
1, 544352, Control_c, 0, 64, 76
1, 544368, Control_c, 0, 64, 81
1, 544383, Control_c, 0, 64, 90
1, 544394, Note_on_c, 0, 61, 50
1, 544398, Control_c, 0, 64, 99
1, 544413, Control_c, 0, 64, 110
1, 544428, Control_c, 0, 64, 127
1, 544433, Note_off_c, 0, 61, 52
1, 544465, Note_on_c, 0, 60, 38
1, 544495, Note_off_c, 0, 60, 58
1, 544505, Note_on_c, 0, 61, 56
1, 544567, Note_off_c, 0, 61, 62
1, 544574, Note_on_c, 0, 60, 66
1, 544602, Note_on_c, 0, 51, 57
1, 544619, Note_off_c, 0, 60, 60
1, 544632, Note_off_c, 0, 51, 65
1, 544651, Note_on_c, 0, 58, 62
1, 544710, Note_off_c, 0, 58, 55
1, 544725, Note_on_c, 0, 60, 63
1, 544783, Control_c, 0, 64, 123
1, 544805, Control_c, 0, 64, 87
1, 544820, Control_c, 0, 64, 66
1, 544826, Note_on_c, 0, 46, 43
1, 544828, Note_on_c, 0, 61, 56
1, 544835, Control_c, 0, 64, 0
1, 544840, Note_off_c, 0, 60, 56
1, 544939, Control_c, 0, 64, 61
1, 544946, Note_off_c, 0, 46, 60
1, 544954, Control_c, 0, 64, 69
1, 544969, Control_c, 0, 64, 77
1, 544983, Control_c, 0, 64, 88
1, 544998, Control_c, 0, 64, 103
1, 545013, Control_c, 0, 64, 127
1, 545077, Note_off_c, 0, 61, 61
1, 545121, Note_on_c, 0, 63, 48
1, 545289, Note_off_c, 0, 63, 38
1, 545292, Note_on_c, 0, 51, 46
1, 545474, Note_on_c, 0, 58, 68
1, 545487, Note_on_c, 0, 55, 41
1, 545570, Control_c, 0, 67, 126
1, 545585, Control_c, 0, 67, 122
1, 545599, Control_c, 0, 67, 118
1, 545614, Control_c, 0, 67, 114
1, 545629, Control_c, 0, 67, 109
1, 545644, Control_c, 0, 67, 103
1, 545653, Note_off_c, 0, 55, 57
1, 545658, Control_c, 0, 67, 96
1, 545662, Note_off_c, 0, 51, 33
1, 545673, Control_c, 0, 67, 89
1, 545674, Note_on_c, 0, 63, 46
1, 545688, Control_c, 0, 67, 80
1, 545695, Note_off_c, 0, 58, 60
1, 545703, Control_c, 0, 67, 72
1, 545718, Control_c, 0, 67, 64
1, 545732, Control_c, 0, 67, 58
1, 545747, Control_c, 0, 67, 52
1, 545762, Control_c, 0, 67, 48
1, 545777, Control_c, 0, 67, 43
1, 545792, Control_c, 0, 67, 39
1, 545798, Note_off_c, 0, 63, 54
1, 545807, Control_c, 0, 67, 35
1, 545807, Note_on_c, 0, 51, 51
1, 545822, Control_c, 0, 67, 32
1, 545837, Control_c, 0, 67, 28
1, 545851, Control_c, 0, 67, 26
1, 545866, Control_c, 0, 67, 25
1, 545881, Control_c, 0, 67, 25
1, 545976, Note_on_c, 0, 60, 65
1, 545987, Note_on_c, 0, 56, 52
1, 546045, Control_c, 0, 64, 96
1, 546060, Control_c, 0, 64, 79
1, 546074, Control_c, 0, 64, 67
1, 546089, Control_c, 0, 64, 61
1, 546104, Control_c, 0, 64, 61
1, 546119, Control_c, 0, 64, 64
1, 546134, Control_c, 0, 64, 68
1, 546148, Control_c, 0, 64, 74
1, 546156, Note_off_c, 0, 51, 59
1, 546163, Control_c, 0, 64, 81
1, 546176, Note_on_c, 0, 63, 48
1, 546178, Control_c, 0, 64, 90
1, 546178, Control_c, 0, 67, 24
1, 546193, Control_c, 0, 64, 105
1, 546193, Control_c, 0, 67, 23
1, 546204, Note_off_c, 0, 56, 37
1, 546208, Control_c, 0, 64, 127
1, 546208, Control_c, 0, 67, 23
1, 546222, Control_c, 0, 67, 20
1, 546237, Control_c, 0, 67, 16
1, 546252, Control_c, 0, 67, 14
1, 546254, Note_off_c, 0, 63, 58
1, 546266, Control_c, 0, 67, 13
1, 546304, Control_c, 0, 67, 12
1, 546310, Note_on_c, 0, 51, 48
1, 546437, Control_c, 0, 67, 13
1, 546467, Control_c, 0, 67, 13
1, 546481, Control_c, 0, 67, 14
1, 546490, Note_on_c, 0, 63, 72
1, 546507, Note_on_c, 0, 55, 43
1, 546511, Control_c, 0, 67, 14
1, 546526, Control_c, 0, 64, 118
1, 546526, Control_c, 0, 67, 15
1, 546541, Control_c, 0, 64, 91
1, 546541, Control_c, 0, 67, 15
1, 546555, Control_c, 0, 64, 76
1, 546570, Control_c, 0, 64, 65
1, 546585, Control_c, 0, 64, 57
1, 546600, Control_c, 0, 64, 57
1, 546615, Control_c, 0, 64, 61
1, 546628, Control_c, 0, 64, 64
1, 546633, Note_off_c, 0, 55, 59
1, 546643, Control_c, 0, 64, 68
1, 546658, Control_c, 0, 64, 72
1, 546671, Note_off_c, 0, 51, 44
1, 546672, Control_c, 0, 64, 79
1, 546687, Control_c, 0, 64, 86
1, 546702, Control_c, 0, 64, 96
1, 546717, Control_c, 0, 64, 111
1, 546732, Control_c, 0, 64, 127
1, 546770, Note_off_c, 0, 60, 33
1, 546798, Note_on_c, 0, 51, 47
1, 546881, Control_c, 0, 67, 16
1, 546895, Control_c, 0, 67, 16
1, 546910, Control_c, 0, 67, 17
1, 546925, Control_c, 0, 67, 19
1, 546940, Control_c, 0, 67, 20
1, 546955, Control_c, 0, 64, 103
1, 546955, Control_c, 0, 67, 20
1, 546962, Note_on_c, 0, 68, 70
1, 546970, Control_c, 0, 64, 74
1, 546970, Control_c, 0, 67, 21
1, 546984, Control_c, 0, 64, 0
1, 546986, Note_on_c, 0, 53, 45
1, 546999, Control_c, 0, 67, 21
1, 547081, Control_c, 0, 64, 61
1, 547095, Control_c, 0, 64, 72
1, 547109, Note_off_c, 0, 51, 45
1, 547110, Control_c, 0, 64, 87
1, 547117, Note_off_c, 0, 63, 0
1, 547125, Control_c, 0, 64, 121
1, 547140, Control_c, 0, 64, 127
1, 547140, Control_c, 0, 67, 21
1, 547151, Note_on_c, 0, 63, 29
1, 547172, Note_off_c, 0, 53, 52
1, 547274, Control_c, 0, 67, 21
1, 547288, Control_c, 0, 67, 22
1, 547303, Control_c, 0, 67, 23
1, 547306, Note_on_c, 0, 51, 49
1, 547318, Control_c, 0, 67, 23
1, 547333, Control_c, 0, 67, 24
1, 547336, Note_off_c, 0, 63, 41
1, 547348, Control_c, 0, 67, 25
1, 547362, Control_c, 0, 67, 28
1, 547377, Control_c, 0, 67, 31
1, 547392, Control_c, 0, 67, 35
1, 547407, Control_c, 0, 67, 39
1, 547421, Control_c, 0, 67, 44
1, 547436, Control_c, 0, 67, 50
1, 547451, Control_c, 0, 67, 57
1, 547466, Control_c, 0, 67, 65
1, 547481, Control_c, 0, 67, 72
1, 547495, Control_c, 0, 64, 113
1, 547495, Control_c, 0, 67, 78
1, 547496, Note_on_c, 0, 70, 65
1, 547508, Note_on_c, 0, 52, 41
1, 547510, Control_c, 0, 64, 83
1, 547510, Control_c, 0, 67, 83
1, 547525, Control_c, 0, 64, 44
1, 547525, Control_c, 0, 67, 88
1, 547540, Control_c, 0, 64, 0
1, 547540, Control_c, 0, 67, 92
1, 547555, Control_c, 0, 67, 94
1, 547571, Control_c, 0, 67, 96
1, 547586, Control_c, 0, 67, 97
1, 547599, Note_off_c, 0, 68, 52
1, 547600, Control_c, 0, 67, 98
1, 547626, Note_off_c, 0, 51, 35
1, 547674, Control_c, 0, 64, 56
1, 547674, Control_c, 0, 67, 97
1, 547689, Control_c, 0, 64, 65
1, 547689, Control_c, 0, 67, 96
1, 547690, Note_on_c, 0, 63, 41
1, 547704, Control_c, 0, 64, 73
1, 547704, Control_c, 0, 67, 95
1, 547718, Control_c, 0, 64, 82
1, 547718, Control_c, 0, 67, 94
1, 547733, Control_c, 0, 64, 94
1, 547733, Control_c, 0, 67, 93
1, 547748, Control_c, 0, 64, 110
1, 547748, Control_c, 0, 67, 92
1, 547763, Control_c, 0, 64, 127
1, 547763, Control_c, 0, 67, 92
1, 547778, Control_c, 0, 67, 91
1, 547800, Control_c, 0, 67, 90
1, 547830, Control_c, 0, 67, 90
1, 547838, Note_off_c, 0, 52, 40
1, 547849, Note_off_c, 0, 63, 34
1, 547851, Note_on_c, 0, 51, 43
1, 547852, Note_off_c, 0, 70, 61
1, 547904, Control_c, 0, 67, 89
1, 548082, Note_on_c, 0, 63, 39
1, 548111, Control_c, 0, 67, 90
1, 548129, Note_on_c, 0, 67, 51
1, 548165, Note_off_c, 0, 51, 36
1, 548171, Control_c, 0, 64, 98
1, 548186, Control_c, 0, 64, 77
1, 548201, Control_c, 0, 64, 62
1, 548207, Note_on_c, 0, 75, 59
1, 548216, Control_c, 0, 64, 0
1, 548290, Control_c, 0, 64, 29
1, 548305, Control_c, 0, 64, 59
1, 548305, Control_c, 0, 67, 89
1, 548319, Control_c, 0, 64, 65
1, 548334, Control_c, 0, 64, 70
1, 548334, Control_c, 0, 67, 89
1, 548349, Control_c, 0, 64, 74
1, 548349, Control_c, 0, 67, 88
1, 548365, Control_c, 0, 64, 80
1, 548365, Control_c, 0, 67, 88
1, 548380, Control_c, 0, 64, 89
1, 548394, Control_c, 0, 64, 97
1, 548394, Control_c, 0, 67, 87
1, 548397, Note_off_c, 0, 63, 43
1, 548404, Note_on_c, 0, 51, 37
1, 548409, Control_c, 0, 64, 105
1, 548409, Control_c, 0, 67, 86
1, 548424, Control_c, 0, 64, 116
1, 548439, Control_c, 0, 64, 127
1, 548439, Control_c, 0, 67, 86
1, 548594, Control_c, 0, 67, 86
1, 548597, Note_on_c, 0, 63, 29
1, 548609, Note_off_c, 0, 51, 48
1, 548624, Control_c, 0, 67, 87
1, 548654, Control_c, 0, 67, 88
1, 548683, Control_c, 0, 67, 88
1, 548698, Control_c, 0, 67, 89
1, 548728, Control_c, 0, 67, 89
1, 548742, Control_c, 0, 67, 90
1, 548757, Control_c, 0, 67, 90
1, 548787, Control_c, 0, 67, 91
1, 548802, Control_c, 0, 67, 91
1, 548816, Control_c, 0, 67, 92
1, 548831, Control_c, 0, 67, 92
1, 548846, Control_c, 0, 67, 93
1, 548875, Control_c, 0, 67, 93
1, 548890, Control_c, 0, 67, 94
1, 548895, Note_on_c, 0, 66, 46
1, 548905, Control_c, 0, 67, 94
1, 548913, Note_on_c, 0, 51, 31
1, 548920, Control_c, 0, 64, 103
1, 548920, Control_c, 0, 67, 95
1, 548935, Control_c, 0, 64, 89
1, 548935, Control_c, 0, 67, 95
1, 548949, Control_c, 0, 64, 76
1, 548949, Control_c, 0, 67, 96
1, 548964, Control_c, 0, 64, 65
1, 548964, Control_c, 0, 67, 96
1, 548967, Note_off_c, 0, 63, 45
1, 548979, Control_c, 0, 64, 36
1, 548979, Control_c, 0, 67, 97
1, 548994, Control_c, 0, 64, 0
1, 548994, Control_c, 0, 67, 97
1, 549008, Note_off_c, 0, 67, 55
1, 549009, Control_c, 0, 67, 98
1, 549023, Control_c, 0, 67, 98
1, 549038, Control_c, 0, 67, 99
1, 549053, Control_c, 0, 67, 101
1, 549068, Control_c, 0, 67, 104
1, 549083, Control_c, 0, 67, 107
1, 549098, Control_c, 0, 67, 112
1, 549113, Control_c, 0, 67, 116
1, 549128, Control_c, 0, 67, 123
1, 549142, Control_c, 0, 67, 127
1, 549197, Note_on_c, 0, 63, 31
1, 549256, Note_off_c, 0, 51, 52
1, 549277, Control_c, 0, 64, 53
1, 549298, Control_c, 0, 64, 63
1, 549313, Control_c, 0, 64, 67
1, 549328, Control_c, 0, 64, 70
1, 549343, Control_c, 0, 64, 74
1, 549358, Control_c, 0, 64, 79
1, 549372, Control_c, 0, 64, 84
1, 549387, Control_c, 0, 64, 88
1, 549393, Note_on_c, 0, 51, 31
1, 549399, Note_off_c, 0, 63, 37
1, 549402, Control_c, 0, 64, 92
1, 549417, Control_c, 0, 64, 97
1, 549432, Control_c, 0, 64, 102
1, 549447, Control_c, 0, 64, 107
1, 549462, Control_c, 0, 64, 113
1, 549476, Control_c, 0, 64, 126
1, 549491, Control_c, 0, 64, 127
1, 549592, Note_on_c, 0, 63, 26
1, 549595, Note_off_c, 0, 51, 43
1, 549743, Note_off_c, 0, 63, 40
1, 549776, Note_on_c, 0, 51, 26
1, 549905, Note_off_c, 0, 66, 37
1, 549978, Note_on_c, 0, 63, 29
1, 550019, Note_off_c, 0, 51, 45
1, 550053, Note_off_c, 0, 63, 51
1, 550221, Note_off_c, 0, 75, 53
1, 550347, Note_on_c, 0, 47, 27
1, 550446, Control_c, 0, 64, 120
1, 550461, Control_c, 0, 64, 95
1, 550469, Note_on_c, 0, 75, 43
1, 550476, Control_c, 0, 64, 82
1, 550481, Note_on_c, 0, 66, 34
1, 550491, Control_c, 0, 64, 77
1, 550506, Control_c, 0, 64, 77
1, 550520, Control_c, 0, 64, 77
1, 550535, Control_c, 0, 64, 80
1, 550550, Control_c, 0, 64, 84
1, 550565, Control_c, 0, 64, 91
1, 550580, Control_c, 0, 64, 97
1, 550588, Note_off_c, 0, 47, 42
1, 550594, Control_c, 0, 64, 101
1, 550609, Control_c, 0, 64, 106
1, 550624, Control_c, 0, 64, 111
1, 550639, Control_c, 0, 64, 117
1, 550654, Control_c, 0, 64, 127
1, 550755, Note_on_c, 0, 63, 36
1, 550901, Note_off_c, 0, 63, 34
1, 550940, Note_on_c, 0, 51, 37
1, 550955, Note_off_c, 0, 66, 41
1, 551068, Note_off_c, 0, 51, 0
1, 551104, Poly_aftertouch_c, 0, 51, 0
1, 551122, Note_on_c, 0, 47, 46
1, 551137, Note_on_c, 0, 67, 44
1, 551137, Control_c, 0, 64, 114
1, 551152, Control_c, 0, 64, 93
1, 551167, Control_c, 0, 64, 80
1, 551182, Control_c, 0, 64, 73
1, 551196, Control_c, 0, 64, 71
1, 551211, Control_c, 0, 64, 72
1, 551226, Control_c, 0, 64, 75
1, 551241, Control_c, 0, 64, 80
1, 551247, Note_off_c, 0, 47, 46
1, 551256, Control_c, 0, 64, 85
1, 551270, Control_c, 0, 64, 90
1, 551285, Control_c, 0, 64, 95
1, 551300, Control_c, 0, 64, 100
1, 551315, Control_c, 0, 64, 105
1, 551330, Control_c, 0, 64, 112
1, 551344, Control_c, 0, 64, 127
1, 551443, Note_on_c, 0, 63, 35
1, 551620, Note_off_c, 0, 63, 42
1, 551638, Note_on_c, 0, 51, 36
1, 551751, Note_off_c, 0, 51, 34
1, 551804, Note_on_c, 0, 71, 57
1, 551819, Note_on_c, 0, 47, 31
1, 551861, Note_off_c, 0, 47, 47
1, 551995, Note_on_c, 0, 63, 46
1, 552133, Note_off_c, 0, 63, 37
1, 552147, Note_on_c, 0, 51, 45
1, 552183, Note_off_c, 0, 51, 62
1, 552367, Note_on_c, 0, 47, 46
1, 552398, Control_c, 0, 64, 94
1, 552413, Control_c, 0, 64, 78
1, 552428, Control_c, 0, 64, 65
1, 552442, Control_c, 0, 64, 51
1, 552457, Control_c, 0, 64, 49
1, 552472, Control_c, 0, 64, 56
1, 552477, Note_on_c, 0, 68, 56
1, 552487, Control_c, 0, 64, 62
1, 552502, Control_c, 0, 64, 66
1, 552516, Control_c, 0, 64, 70
1, 552531, Control_c, 0, 64, 74
1, 552544, Note_off_c, 0, 67, 53
1, 552546, Control_c, 0, 64, 79
1, 552556, Note_off_c, 0, 47, 40
1, 552561, Control_c, 0, 64, 86
1, 552576, Control_c, 0, 64, 93
1, 552590, Control_c, 0, 64, 100
1, 552605, Control_c, 0, 64, 109
1, 552620, Control_c, 0, 64, 127
1, 552731, Note_on_c, 0, 64, 28
1, 552771, Note_off_c, 0, 64, 51
1, 552833, Note_off_c, 0, 75, 39
1, 552875, Note_on_c, 0, 52, 47
1, 552976, Note_off_c, 0, 71, 38
1, 552995, Note_off_c, 0, 52, 57
1, 553021, Note_on_c, 0, 47, 37
1, 553045, Note_on_c, 0, 64, 59
1, 553086, Control_c, 0, 64, 114
1, 553101, Control_c, 0, 64, 104
1, 553102, Note_off_c, 0, 47, 40
1, 553116, Control_c, 0, 64, 103
1, 553146, Control_c, 0, 64, 103
1, 553149, Note_off_c, 0, 68, 38
1, 553161, Control_c, 0, 64, 106
1, 553176, Control_c, 0, 64, 112
1, 553191, Control_c, 0, 64, 124
1, 553206, Control_c, 0, 64, 127
1, 553231, Note_on_c, 0, 61, 48
1, 553337, Note_off_c, 0, 61, 50
1, 553359, Note_on_c, 0, 52, 42
1, 553489, Note_off_c, 0, 52, 35
1, 553523, Note_on_c, 0, 47, 51
1, 553561, Control_c, 0, 64, 104
1, 553566, Note_off_c, 0, 64, 62
1, 553575, Note_on_c, 0, 61, 63
1, 553576, Control_c, 0, 64, 87
1, 553591, Control_c, 0, 64, 75
1, 553605, Control_c, 0, 64, 66
1, 553620, Control_c, 0, 64, 64
1, 553635, Control_c, 0, 64, 65
1, 553650, Control_c, 0, 64, 68
1, 553665, Control_c, 0, 64, 71
1, 553680, Control_c, 0, 64, 75
1, 553694, Control_c, 0, 64, 82
1, 553709, Control_c, 0, 64, 88
1, 553724, Control_c, 0, 64, 95
1, 553739, Control_c, 0, 64, 102
1, 553743, Note_on_c, 0, 58, 43
1, 553754, Control_c, 0, 64, 110
1, 553769, Control_c, 0, 64, 127
1, 553870, Note_off_c, 0, 47, 45
1, 553881, Note_on_c, 0, 49, 53
1, 553905, Note_off_c, 0, 58, 37
1, 553989, Note_off_c, 0, 49, 61
1, 554001, Note_on_c, 0, 47, 52
1, 554031, Note_off_c, 0, 61, 59
1, 554053, Note_on_c, 0, 63, 56
1, 554058, Control_c, 0, 64, 118
1, 554073, Control_c, 0, 64, 97
1, 554088, Control_c, 0, 64, 86
1, 554091, Note_off_c, 0, 63, 59
1, 554103, Control_c, 0, 64, 82
1, 554115, Note_on_c, 0, 64, 59
1, 554133, Control_c, 0, 64, 84
1, 554148, Control_c, 0, 64, 89
1, 554149, Note_off_c, 0, 64, 66
1, 554162, Control_c, 0, 64, 95
1, 554177, Control_c, 0, 64, 99
1, 554178, Note_on_c, 0, 59, 44
1, 554187, Note_on_c, 0, 63, 64
1, 554192, Control_c, 0, 64, 101
1, 554207, Control_c, 0, 64, 101
1, 554212, Note_off_c, 0, 63, 68
1, 554220, Note_on_c, 0, 64, 66
1, 554262, Note_off_c, 0, 64, 62
1, 554280, Note_on_c, 0, 63, 68
1, 554306, Note_off_c, 0, 63, 67
1, 554326, Note_off_c, 0, 47, 37
1, 554338, Note_on_c, 0, 61, 58
1, 554350, Note_on_c, 0, 51, 38
1, 554354, Control_c, 0, 64, 99
1, 554369, Control_c, 0, 64, 96
1, 554382, Note_off_c, 0, 61, 60
1, 554384, Control_c, 0, 64, 91
1, 554399, Control_c, 0, 64, 84
1, 554400, Note_on_c, 0, 63, 62
1, 554413, Control_c, 0, 64, 75
1, 554428, Control_c, 0, 64, 66
1, 554443, Control_c, 0, 64, 51
1, 554458, Control_c, 0, 64, 0
1, 554511, Note_off_c, 0, 63, 54
1, 554518, Note_off_c, 0, 51, 47
1, 554520, Note_off_c, 0, 59, 26
1, 554532, Note_on_c, 0, 64, 52
1, 554541, Note_on_c, 0, 47, 39
1, 554673, Control_c, 0, 64, 57
1, 554687, Control_c, 0, 64, 66
1, 554702, Control_c, 0, 64, 73
1, 554717, Control_c, 0, 64, 80
1, 554732, Control_c, 0, 64, 90
1, 554747, Control_c, 0, 64, 104
1, 554763, Control_c, 0, 64, 127
1, 554832, Note_on_c, 0, 61, 46
1, 554838, Note_off_c, 0, 47, 27
1, 554860, Note_off_c, 0, 64, 61
1, 554943, Note_off_c, 0, 61, 47
1, 554988, Note_on_c, 0, 52, 44
1, 555143, Note_on_c, 0, 61, 61
1, 555152, Note_on_c, 0, 47, 48
1, 555164, Note_off_c, 0, 52, 30
1, 555177, Control_c, 0, 64, 103
1, 555192, Control_c, 0, 64, 95
1, 555207, Control_c, 0, 64, 93
1, 555236, Control_c, 0, 64, 95
1, 555251, Control_c, 0, 64, 99
1, 555266, Control_c, 0, 64, 107
1, 555289, Control_c, 0, 64, 119
1, 555304, Control_c, 0, 64, 127
1, 555327, Note_on_c, 0, 58, 46
1, 555452, Note_off_c, 0, 47, 43
1, 555453, Note_on_c, 0, 49, 56
1, 555540, Note_off_c, 0, 58, 38
1, 555599, Note_on_c, 0, 47, 53
1, 555633, Note_on_c, 0, 63, 67
1, 555635, Note_off_c, 0, 49, 51
1, 555644, Note_off_c, 0, 61, 60
1, 555659, Control_c, 0, 64, 95
1, 555674, Control_c, 0, 64, 77
1, 555689, Control_c, 0, 64, 64
1, 555704, Control_c, 0, 64, 47
1, 555719, Control_c, 0, 64, 50
1, 555733, Control_c, 0, 64, 60
1, 555748, Control_c, 0, 64, 65
1, 555763, Control_c, 0, 64, 70
1, 555778, Control_c, 0, 64, 76
1, 555779, Note_on_c, 0, 59, 47
1, 555793, Control_c, 0, 64, 86
1, 555808, Control_c, 0, 64, 100
1, 555823, Control_c, 0, 64, 127
1, 555918, Note_off_c, 0, 47, 64
1, 555932, Note_off_c, 0, 59, 61
1, 555933, Note_on_c, 0, 51, 57
1, 555972, Note_off_c, 0, 51, 61
1, 556091, Note_on_c, 0, 46, 61
1, 556109, Note_on_c, 0, 67, 75
1, 556141, Note_off_c, 0, 63, 62
1, 556141, Control_c, 0, 64, 110
1, 556156, Control_c, 0, 64, 86
1, 556171, Control_c, 0, 64, 70
1, 556185, Control_c, 0, 64, 47
1, 556200, Control_c, 0, 64, 42
1, 556215, Control_c, 0, 64, 54
1, 556221, Note_off_c, 0, 46, 63
1, 556230, Control_c, 0, 64, 63
1, 556245, Control_c, 0, 64, 68
1, 556259, Control_c, 0, 64, 75
1, 556274, Control_c, 0, 64, 88
1, 556275, Note_on_c, 0, 61, 63
1, 556289, Control_c, 0, 64, 107
1, 556304, Control_c, 0, 64, 127
1, 556333, Control_c, 0, 67, 121
1, 556348, Control_c, 0, 67, 110
1, 556364, Control_c, 0, 67, 98
1, 556379, Control_c, 0, 67, 85
1, 556390, Note_off_c, 0, 67, 60
1, 556394, Control_c, 0, 67, 72
1, 556395, Note_on_c, 0, 52, 68
1, 556401, Note_off_c, 0, 61, 63
1, 556409, Control_c, 0, 67, 57
1, 556424, Control_c, 0, 67, 49
1, 556434, Note_off_c, 0, 52, 64
1, 556438, Control_c, 0, 67, 44
1, 556453, Control_c, 0, 67, 40
1, 556468, Control_c, 0, 67, 38
1, 556482, Control_c, 0, 67, 38
1, 556571, Note_on_c, 0, 44, 61
1, 556646, Control_c, 0, 64, 102
1, 556660, Control_c, 0, 64, 84
1, 556660, Control_c, 0, 67, 38
1, 556663, Note_on_c, 0, 68, 70
1, 556675, Control_c, 0, 64, 71
1, 556690, Control_c, 0, 64, 65
1, 556705, Control_c, 0, 64, 65
1, 556720, Control_c, 0, 64, 68
1, 556735, Control_c, 0, 64, 73
1, 556749, Control_c, 0, 64, 81
1, 556764, Control_c, 0, 64, 91
1, 556786, Control_c, 0, 64, 102
1, 556791, Note_off_c, 0, 44, 64
1, 556801, Control_c, 0, 64, 119
1, 556801, Control_c, 0, 67, 38
1, 556815, Control_c, 0, 64, 127
1, 556815, Control_c, 0, 67, 37
1, 556830, Control_c, 0, 67, 36
1, 556845, Control_c, 0, 67, 35
1, 556860, Control_c, 0, 67, 33
1, 556869, Note_on_c, 0, 59, 55
1, 556875, Control_c, 0, 67, 29
1, 556890, Control_c, 0, 67, 24
1, 556899, Note_off_c, 0, 68, 61
1, 556905, Control_c, 0, 67, 19
1, 556920, Control_c, 0, 67, 13
1, 556935, Control_c, 0, 67, 8
1, 556950, Control_c, 0, 67, 0
1, 556957, Note_on_c, 0, 70, 81
1, 557036, Note_off_c, 0, 59, 59
1, 557045, Note_on_c, 0, 51, 65
1, 557073, Note_off_c, 0, 51, 66
1, 557090, Note_off_c, 0, 70, 60
1, 557202, Control_c, 0, 64, 95
1, 557209, Note_on_c, 0, 40, 59
1, 557210, Note_on_c, 0, 71, 79
1, 557217, Control_c, 0, 64, 66
1, 557231, Control_c, 0, 64, 0
1, 557296, Note_off_c, 0, 40, 63
1, 557305, Control_c, 0, 64, 61
1, 557320, Control_c, 0, 64, 76
1, 557335, Control_c, 0, 64, 96
1, 557350, Control_c, 0, 64, 127
1, 557418, Note_on_c, 0, 56, 65
1, 557427, Note_off_c, 0, 71, 62
1, 557500, Note_on_c, 0, 73, 88
1, 557618, Note_off_c, 0, 56, 63
1, 557626, Note_on_c, 0, 52, 59
1, 557654, Note_off_c, 0, 52, 64
1, 557665, Note_off_c, 0, 73, 58
1, 557864, Note_on_c, 0, 39, 50
1, 557917, Note_on_c, 0, 68, 67
1, 557966, Control_c, 0, 64, 114
1, 557981, Control_c, 0, 64, 84
1, 557996, Control_c, 0, 64, 65
1, 558006, Note_on_c, 0, 75, 72
1, 558011, Control_c, 0, 64, 0
1, 558129, Control_c, 0, 64, 64
1, 558144, Control_c, 0, 64, 73
1, 558159, Control_c, 0, 64, 85
1, 558174, Control_c, 0, 64, 110
1, 558189, Control_c, 0, 64, 127
1, 558195, Note_off_c, 0, 39, 58
1, 558238, Note_on_c, 0, 51, 41
1, 558278, Note_off_c, 0, 51, 57
1, 558415, Note_on_c, 0, 60, 50
1, 558571, Note_on_c, 0, 63, 56
1, 558579, Note_off_c, 0, 60, 58
1, 558707, Note_on_c, 0, 60, 56
1, 558820, Note_off_c, 0, 63, 48
1, 558866, Note_on_c, 0, 51, 62
1, 559016, Note_off_c, 0, 60, 59
1, 559019, Note_on_c, 0, 63, 69
1, 559191, Note_on_c, 0, 60, 62
1, 559199, Note_off_c, 0, 51, 60
1, 559260, Note_off_c, 0, 63, 50
1, 559331, Note_on_c, 0, 51, 62
1, 559445, Note_off_c, 0, 60, 35
1, 559478, Note_on_c, 0, 63, 57
1, 559497, Note_on_c, 0, 72, 81
1, 559623, Note_off_c, 0, 51, 60
1, 559648, Note_on_c, 0, 60, 60
1, 559693, Note_off_c, 0, 63, 51
1, 559781, Note_off_c, 0, 60, 61
1, 559794, Note_on_c, 0, 51, 66
1, 559817, Note_off_c, 0, 68, 51
1, 559835, Note_off_c, 0, 51, 66
1, 559835, Note_off_c, 0, 72, 58
1, 559881, Note_off_c, 0, 75, 43
1, 560010, Note_on_c, 0, 39, 53
1, 560077, Note_on_c, 0, 69, 66
1, 560121, Control_c, 0, 64, 120
1, 560136, Control_c, 0, 64, 88
1, 560151, Control_c, 0, 64, 69
1, 560158, Note_on_c, 0, 75, 74
1, 560166, Control_c, 0, 64, 0
1, 560225, Control_c, 0, 64, 40
1, 560240, Control_c, 0, 64, 64
1, 560255, Control_c, 0, 64, 70
1, 560270, Control_c, 0, 64, 80
1, 560285, Control_c, 0, 64, 93
1, 560299, Control_c, 0, 64, 113
1, 560314, Control_c, 0, 64, 127
1, 560333, Note_off_c, 0, 39, 59
1, 560373, Note_on_c, 0, 51, 44
1, 560404, Note_off_c, 0, 51, 63
1, 560563, Note_on_c, 0, 60, 51
1, 560708, Note_off_c, 0, 60, 57
1, 560718, Note_on_c, 0, 63, 47
1, 560857, Note_on_c, 0, 60, 43
1, 560926, Note_off_c, 0, 63, 31
1, 561039, Note_on_c, 0, 51, 47
1, 561073, Note_off_c, 0, 60, 33
1, 561218, Note_on_c, 0, 63, 34
1, 561320, Note_off_c, 0, 69, 51
1, 561367, Note_off_c, 0, 51, 55
1, 561396, Note_off_c, 0, 63, 38
1, 561409, Note_on_c, 0, 60, 34
1, 561490, Note_off_c, 0, 60, 46
1, 561558, Note_on_c, 0, 51, 36
1, 561745, Note_on_c, 0, 70, 53
1, 561748, Note_on_c, 0, 63, 39
1, 561752, Control_c, 0, 64, 109
1, 561760, Note_on_c, 0, 67, 40
1, 561767, Control_c, 0, 64, 85
1, 561782, Control_c, 0, 64, 66
1, 561797, Control_c, 0, 64, 0
1, 561886, Control_c, 0, 64, 38
1, 561900, Note_off_c, 0, 51, 45
1, 561901, Control_c, 0, 64, 63
1, 561915, Control_c, 0, 64, 69
1, 561915, Control_c, 0, 67, 8
1, 561923, Note_off_c, 0, 63, 47
1, 561930, Control_c, 0, 64, 76
1, 561930, Control_c, 0, 67, 9
1, 561946, Control_c, 0, 64, 85
1, 561946, Control_c, 0, 67, 12
1, 561952, Note_on_c, 0, 61, 28
1, 561961, Control_c, 0, 64, 96
1, 561961, Control_c, 0, 67, 14
1, 561975, Control_c, 0, 64, 113
1, 561975, Control_c, 0, 67, 18
1, 561990, Control_c, 0, 64, 127
1, 561990, Control_c, 0, 67, 22
1, 562005, Control_c, 0, 67, 26
1, 562027, Control_c, 0, 67, 32
1, 562031, Note_off_c, 0, 75, 54
1, 562042, Control_c, 0, 67, 37
1, 562047, Note_off_c, 0, 70, 58
1, 562057, Control_c, 0, 67, 44
1, 562072, Control_c, 0, 67, 51
1, 562087, Control_c, 0, 67, 58
1, 562101, Control_c, 0, 67, 67
1, 562110, Note_off_c, 0, 61, 43
1, 562116, Control_c, 0, 67, 74
1, 562129, Note_on_c, 0, 51, 44
1, 562131, Control_c, 0, 67, 82
1, 562146, Control_c, 0, 67, 90
1, 562161, Control_c, 0, 67, 98
1, 562163, Note_off_c, 0, 51, 63
1, 562175, Control_c, 0, 67, 106
1, 562190, Control_c, 0, 67, 114
1, 562205, Control_c, 0, 67, 123
1, 562220, Control_c, 0, 67, 127
1, 562468, Note_on_c, 0, 32, 44
1, 562470, Note_on_c, 0, 72, 46
1, 562472, Control_c, 0, 64, 126
1, 562487, Control_c, 0, 64, 97
1, 562495, Note_on_c, 0, 68, 39
1, 562501, Control_c, 0, 64, 81
1, 562516, Control_c, 0, 64, 67
1, 562531, Control_c, 0, 64, 0
1, 562535, Note_off_c, 0, 67, 50
1, 562634, Control_c, 0, 64, 27
1, 562649, Control_c, 0, 64, 59
1, 562664, Control_c, 0, 64, 65
1, 562679, Control_c, 0, 64, 70
1, 562685, Note_off_c, 0, 32, 43
1, 562694, Control_c, 0, 64, 75
1, 562698, Note_on_c, 0, 39, 34
1, 562709, Control_c, 0, 64, 82
1, 562724, Control_c, 0, 64, 90
1, 562739, Control_c, 0, 64, 103
1, 562754, Control_c, 0, 64, 119
1, 562777, Control_c, 0, 64, 127
1, 562876, Note_on_c, 0, 44, 46
1, 562923, Note_off_c, 0, 39, 39
1, 562989, Note_off_c, 0, 44, 59
1, 563033, Note_on_c, 0, 48, 48
1, 563052, Note_off_c, 0, 68, 29
1, 563060, Note_off_c, 0, 48, 62
1, 563218, Note_on_c, 0, 51, 44
1, 563386, Note_off_c, 0, 51, 54
1, 563406, Note_on_c, 0, 56, 47
1, 563506, Note_off_c, 0, 72, 25
1, 563594, Note_off_c, 0, 56, 57
1, 563657, Note_on_c, 0, 60, 40
1, 563833, Note_off_c, 0, 60, 38
1, 563938, Note_on_c, 0, 63, 41
1, 564190, Note_on_c, 0, 75, 53
1, 564199, Note_on_c, 0, 68, 37
1, 564253, Note_off_c, 0, 63, 37
1, 564455, Note_off_c, 0, 68, 51
1, 564477, Note_on_c, 0, 72, 35
1, 564876, Note_on_c, 0, 80, 50
1, 564882, Control_c, 0, 64, 117
1, 564896, Control_c, 0, 64, 102
1, 564911, Control_c, 0, 64, 91
1, 564926, Control_c, 0, 64, 78
1, 564940, Control_c, 0, 64, 66
1, 564955, Control_c, 0, 64, 39
1, 564970, Control_c, 0, 64, 0
1, 565067, Control_c, 0, 64, 56
1, 565082, Control_c, 0, 64, 65
1, 565096, Control_c, 0, 64, 70
1, 565111, Control_c, 0, 64, 76
1, 565122, Note_off_c, 0, 72, 58
1, 565123, Note_off_c, 0, 75, 59
1, 565126, Control_c, 0, 64, 82
1, 565141, Control_c, 0, 64, 89
1, 565156, Control_c, 0, 64, 96
1, 565171, Control_c, 0, 64, 102
1, 565186, Control_c, 0, 64, 109
1, 565201, Control_c, 0, 64, 121
1, 565216, Control_c, 0, 64, 127
1, 565349, Note_on_c, 0, 72, 35
1, 565351, Note_on_c, 0, 75, 35
1, 565400, Note_off_c, 0, 72, 46
1, 565403, Note_off_c, 0, 75, 45
1, 565587, Note_on_c, 0, 72, 36
1, 565591, Note_on_c, 0, 75, 33
1, 565636, Note_off_c, 0, 72, 50
1, 565641, Note_off_c, 0, 75, 47
1, 565654, Note_off_c, 0, 80, 56
1, 565792, Note_on_c, 0, 80, 54
1, 565809, Note_on_c, 0, 72, 31
1, 565851, Note_off_c, 0, 72, 47
1, 566068, Note_on_c, 0, 78, 61
1, 566083, Control_c, 0, 64, 108
1, 566097, Note_on_c, 0, 70, 40
1, 566098, Control_c, 0, 64, 89
1, 566101, Note_on_c, 0, 72, 31
1, 566113, Control_c, 0, 64, 75
1, 566119, Note_on_c, 0, 75, 17
1, 566128, Control_c, 0, 64, 65
1, 566142, Control_c, 0, 64, 54
1, 566157, Control_c, 0, 64, 55
1, 566172, Control_c, 0, 64, 60
1, 566175, Note_off_c, 0, 75, 45
1, 566186, Control_c, 0, 64, 64
1, 566201, Control_c, 0, 64, 68
1, 566216, Control_c, 0, 64, 72
1, 566219, Note_off_c, 0, 70, 59
1, 566231, Control_c, 0, 64, 77
1, 566236, Note_off_c, 0, 72, 44
1, 566246, Control_c, 0, 64, 84
1, 566260, Control_c, 0, 64, 91
1, 566275, Control_c, 0, 64, 98
1, 566290, Control_c, 0, 64, 106
1, 566305, Control_c, 0, 64, 115
1, 566320, Control_c, 0, 64, 127
1, 566322, Note_on_c, 0, 75, 39
1, 566367, Note_on_c, 0, 72, 25
1, 566402, Note_off_c, 0, 72, 52
1, 566452, Note_off_c, 0, 75, 44
1, 566536, Note_on_c, 0, 72, 34
1, 566548, Note_on_c, 0, 70, 48
1, 566551, Note_on_c, 0, 75, 45
1, 566563, Note_off_c, 0, 80, 42
1, 566588, Note_off_c, 0, 70, 60
1, 566594, Note_off_c, 0, 72, 59
1, 566599, Note_off_c, 0, 75, 59
1, 566603, Note_off_c, 0, 78, 58
1, 566743, Note_on_c, 0, 72, 39
1, 566753, Note_on_c, 0, 78, 54
1, 566761, Note_on_c, 0, 70, 34
1, 566786, Note_off_c, 0, 72, 55
1, 566791, Note_off_c, 0, 70, 56
1, 566793, Note_on_c, 0, 75, 22
1, 566836, Note_off_c, 0, 75, 44
1, 566980, Control_c, 0, 64, 107
1, 566995, Note_on_c, 0, 77, 53
1, 566995, Control_c, 0, 64, 83
1, 567003, Note_on_c, 0, 69, 36
1, 567007, Note_on_c, 0, 72, 30
1, 567010, Control_c, 0, 64, 62
1, 567025, Control_c, 0, 64, 0
1, 567051, Note_off_c, 0, 78, 54
1, 567065, Poly_aftertouch_c, 0, 75, 127
1, 567129, Control_c, 0, 64, 49
1, 567138, Poly_aftertouch_c, 0, 75, 0
1, 567143, Control_c, 0, 64, 64
1, 567158, Control_c, 0, 64, 69
1, 567167, Note_off_c, 0, 72, 58
1, 567173, Control_c, 0, 64, 74
1, 567174, Note_off_c, 0, 69, 55
1, 567188, Control_c, 0, 64, 81
1, 567203, Control_c, 0, 64, 91
1, 567217, Control_c, 0, 64, 99
1, 567232, Control_c, 0, 64, 109
1, 567247, Control_c, 0, 64, 127
1, 567282, Note_on_c, 0, 69, 31
1, 567289, Note_on_c, 0, 75, 37
1, 567320, Note_on_c, 0, 72, 34
1, 567359, Note_off_c, 0, 72, 48
1, 567360, Note_off_c, 0, 69, 54
1, 567368, Note_off_c, 0, 75, 41
1, 567498, Note_on_c, 0, 75, 43
1, 567503, Note_on_c, 0, 72, 34
1, 567505, Note_on_c, 0, 69, 43
1, 567553, Note_off_c, 0, 75, 54
1, 567564, Note_off_c, 0, 72, 56
1, 567587, Note_off_c, 0, 69, 48
1, 567715, Note_on_c, 0, 72, 30
1, 567718, Note_on_c, 0, 69, 37
1, 567722, Note_on_c, 0, 75, 40
1, 567757, Note_off_c, 0, 72, 47
1, 567771, Note_off_c, 0, 69, 56
1, 567778, Note_off_c, 0, 75, 57
1, 567922, Control_c, 0, 64, 90
1, 567937, Control_c, 0, 64, 71
1, 567942, Note_on_c, 0, 75, 37
1, 567952, Control_c, 0, 64, 39
1, 567953, Note_on_c, 0, 70, 38
1, 567961, Note_on_c, 0, 67, 41
1, 567966, Control_c, 0, 64, 0
1, 567996, Control_c, 0, 64, 11
1, 568018, Control_c, 0, 64, 55
1, 568033, Control_c, 0, 64, 65
1, 568036, Note_off_c, 0, 70, 52
1, 568045, Note_off_c, 0, 75, 55
1, 568048, Control_c, 0, 64, 70
1, 568053, Note_off_c, 0, 67, 53
1, 568062, Control_c, 0, 64, 77
1, 568077, Control_c, 0, 64, 85
1, 568092, Control_c, 0, 64, 95
1, 568107, Control_c, 0, 64, 106
1, 568122, Control_c, 0, 64, 127
1, 568186, Note_on_c, 0, 70, 34
1, 568191, Note_on_c, 0, 75, 41
1, 568205, Note_on_c, 0, 67, 37
1, 568241, Note_off_c, 0, 70, 57
1, 568249, Note_off_c, 0, 67, 56
1, 568253, Note_off_c, 0, 75, 56
1, 568257, Note_off_c, 0, 77, 61
1, 568417, Note_on_c, 0, 77, 55
1, 568427, Note_on_c, 0, 67, 30
1, 568444, Note_on_c, 0, 70, 19
1, 568465, Poly_aftertouch_c, 0, 75, 127
1, 568475, Note_off_c, 0, 67, 51
1, 568486, Note_off_c, 0, 70, 47
1, 568513, Poly_aftertouch_c, 0, 75, 0
1, 568632, Note_on_c, 0, 75, 43
1, 568656, Note_on_c, 0, 67, 36
1, 568672, Poly_aftertouch_c, 0, 70, 127
1, 568706, Note_off_c, 0, 67, 57
1, 568716, Poly_aftertouch_c, 0, 70, 0
1, 568721, Note_off_c, 0, 75, 55
1, 568725, Note_off_c, 0, 77, 62
1, 568900, Control_c, 0, 64, 104
1, 568902, Note_on_c, 0, 77, 58
1, 568909, Note_on_c, 0, 75, 42
1, 568911, Note_on_c, 0, 65, 33
1, 568912, Note_on_c, 0, 69, 39
1, 568915, Control_c, 0, 64, 80
1, 568930, Control_c, 0, 64, 66
1, 568945, Control_c, 0, 64, 55
1, 568960, Control_c, 0, 64, 57
1, 568963, Note_off_c, 0, 75, 51
1, 568975, Control_c, 0, 64, 63
1, 568989, Control_c, 0, 64, 67
1, 569004, Control_c, 0, 64, 73
1, 569017, Note_off_c, 0, 69, 55
1, 569019, Control_c, 0, 64, 80
1, 569028, Note_off_c, 0, 65, 47
1, 569034, Control_c, 0, 64, 89
1, 569049, Control_c, 0, 64, 99
1, 569063, Control_c, 0, 64, 113
1, 569078, Control_c, 0, 64, 127
1, 569156, Note_on_c, 0, 65, 29
1, 569195, Note_on_c, 0, 69, 8
1, 569204, Note_off_c, 0, 65, 47
1, 569240, Note_off_c, 0, 69, 37
1, 569241, Control_c, 0, 67, 126
1, 569256, Control_c, 0, 67, 124
1, 569271, Control_c, 0, 67, 122
1, 569285, Control_c, 0, 67, 120
1, 569300, Control_c, 0, 67, 118
1, 569315, Control_c, 0, 67, 115
1, 569329, Control_c, 0, 67, 111
1, 569344, Control_c, 0, 67, 107
1, 569359, Control_c, 0, 67, 103
1, 569374, Control_c, 0, 67, 98
1, 569389, Control_c, 0, 67, 94
1, 569404, Control_c, 0, 67, 91
1, 569419, Note_on_c, 0, 65, 32
1, 569419, Control_c, 0, 67, 87
1, 569434, Control_c, 0, 67, 84
1, 569437, Note_on_c, 0, 87, 69
1, 569447, Note_on_c, 0, 69, 15
1, 569449, Control_c, 0, 67, 80
1, 569463, Control_c, 0, 67, 76
1, 569478, Control_c, 0, 67, 72
1, 569493, Control_c, 0, 67, 68
1, 569496, Note_off_c, 0, 77, 61
1, 569511, Note_off_c, 0, 69, 45
1, 569514, Note_off_c, 0, 65, 55
1, 569515, Control_c, 0, 67, 65
1, 569530, Control_c, 0, 67, 62
1, 569544, Control_c, 0, 67, 59
1, 569559, Control_c, 0, 67, 56
1, 569574, Control_c, 0, 67, 54
1, 569589, Control_c, 0, 67, 52
1, 569604, Control_c, 0, 67, 50
1, 569618, Control_c, 0, 67, 49
1, 569633, Control_c, 0, 67, 48
1, 569648, Control_c, 0, 67, 47
1, 569663, Control_c, 0, 67, 47
1, 569674, Note_on_c, 0, 65, 36
1, 569678, Control_c, 0, 67, 46
1, 569688, Note_on_c, 0, 75, 52
1, 569693, Control_c, 0, 67, 45
1, 569711, Note_on_c, 0, 69, 18
1, 569723, Control_c, 0, 67, 45
1, 569737, Control_c, 0, 67, 44
1, 569740, Note_off_c, 0, 65, 51
1, 569748, Note_off_c, 0, 75, 53
1, 569750, Note_off_c, 0, 69, 49
1, 569754, Note_off_c, 0, 87, 63
1, 569882, Note_on_c, 0, 86, 72
1, 569887, Note_on_c, 0, 65, 38
1, 569892, Note_on_c, 0, 75, 43
1, 569895, Note_on_c, 0, 69, 29
1, 569921, Note_off_c, 0, 75, 55
1, 569955, Note_off_c, 0, 69, 50
1, 569964, Note_off_c, 0, 65, 50
1, 570117, Note_on_c, 0, 65, 37
1, 570120, Note_on_c, 0, 69, 31
1, 570129, Note_on_c, 0, 75, 48
1, 570178, Note_off_c, 0, 65, 55
1, 570194, Note_off_c, 0, 69, 53
1, 570197, Note_off_c, 0, 75, 50
1, 570203, Note_off_c, 0, 86, 59
1, 570319, Note_on_c, 0, 84, 72
1, 570337, Note_on_c, 0, 69, 44
1, 570347, Note_on_c, 0, 65, 29
1, 570387, Poly_aftertouch_c, 0, 75, 127
1, 570389, Note_off_c, 0, 69, 53
1, 570396, Note_off_c, 0, 65, 48
1, 570417, Poly_aftertouch_c, 0, 75, 0
1, 570541, Note_on_c, 0, 65, 36
1, 570548, Note_on_c, 0, 69, 37
1, 570560, Note_off_c, 0, 84, 58
1, 570560, Note_on_c, 0, 75, 39
1, 570588, Note_off_c, 0, 65, 54
1, 570589, Note_off_c, 0, 69, 56
1, 570596, Note_off_c, 0, 75, 61
1, 570665, Control_c, 0, 67, 45
1, 570694, Control_c, 0, 67, 45
1, 570709, Control_c, 0, 67, 46
1, 570724, Control_c, 0, 67, 47
1, 570739, Control_c, 0, 67, 48
1, 570754, Control_c, 0, 67, 48
1, 570769, Control_c, 0, 67, 49
1, 570784, Control_c, 0, 64, 100
1, 570787, Note_on_c, 0, 67, 36
1, 570792, Note_on_c, 0, 82, 69
1, 570799, Control_c, 0, 64, 80
1, 570799, Control_c, 0, 67, 49
1, 570801, Note_on_c, 0, 70, 36
1, 570805, Note_on_c, 0, 75, 44
1, 570814, Control_c, 0, 64, 64
1, 570829, Control_c, 0, 64, 44
1, 570829, Control_c, 0, 67, 50
1, 570844, Control_c, 0, 64, 42
1, 570853, Note_off_c, 0, 75, 52
1, 570858, Control_c, 0, 64, 49
1, 570873, Control_c, 0, 64, 59
1, 570888, Control_c, 0, 64, 64
1, 570894, Note_off_c, 0, 70, 57
1, 570900, Note_off_c, 0, 67, 52
1, 570903, Control_c, 0, 64, 68
1, 570918, Control_c, 0, 64, 72
1, 570932, Control_c, 0, 64, 76
1, 570947, Control_c, 0, 64, 81
1, 570962, Control_c, 0, 64, 88
1, 570976, Control_c, 0, 64, 96
1, 570991, Control_c, 0, 64, 106
1, 571014, Control_c, 0, 64, 127
1, 571029, Note_on_c, 0, 67, 32
1, 571055, Note_on_c, 0, 70, 32
1, 571088, Poly_aftertouch_c, 0, 75, 127
1, 571088, Control_c, 0, 67, 49
1, 571091, Note_off_c, 0, 70, 52
1, 571103, Note_off_c, 0, 67, 43
1, 571130, Poly_aftertouch_c, 0, 75, 0
1, 571247, Note_on_c, 0, 67, 39
1, 571247, Note_on_c, 0, 75, 34
1, 571249, Note_on_c, 0, 79, 65
1, 571258, Note_on_c, 0, 70, 32
1, 571302, Note_off_c, 0, 75, 47
1, 571309, Control_c, 0, 67, 50
1, 571314, Note_off_c, 0, 67, 53
1, 571315, Note_off_c, 0, 70, 51
1, 571356, Note_off_c, 0, 82, 60
1, 571428, Control_c, 0, 67, 50
1, 571470, Note_on_c, 0, 67, 37
1, 571484, Note_on_c, 0, 75, 41
1, 571488, Note_on_c, 0, 70, 19
1, 571518, Note_off_c, 0, 67, 57
1, 571532, Note_off_c, 0, 70, 51
1, 571532, Control_c, 0, 67, 51
1, 571540, Note_off_c, 0, 75, 53
1, 571562, Control_c, 0, 67, 51
1, 571607, Control_c, 0, 67, 52
1, 571637, Control_c, 0, 67, 52
1, 571651, Control_c, 0, 67, 53
1, 571666, Control_c, 0, 67, 53
1, 571681, Control_c, 0, 67, 54
1, 571696, Control_c, 0, 67, 54
1, 571711, Control_c, 0, 67, 55
1, 571711, Note_on_c, 0, 77, 52
1, 571725, Control_c, 0, 67, 55
1, 571730, Note_on_c, 0, 70, 32
1, 571736, Note_on_c, 0, 75, 46
1, 571740, Control_c, 0, 64, 97
1, 571740, Control_c, 0, 67, 56
1, 571762, Note_off_c, 0, 79, 57
1, 571762, Control_c, 0, 64, 78
1, 571762, Control_c, 0, 67, 56
1, 571777, Control_c, 0, 64, 64
1, 571777, Control_c, 0, 67, 57
1, 571792, Control_c, 0, 64, 48
1, 571792, Control_c, 0, 67, 57
1, 571806, Control_c, 0, 64, 48
1, 571821, Note_off_c, 0, 75, 43
1, 571821, Control_c, 0, 64, 56
1, 571821, Control_c, 0, 67, 58
1, 571831, Note_off_c, 0, 70, 54
1, 571836, Control_c, 0, 64, 63
1, 571836, Control_c, 0, 67, 59
1, 571851, Control_c, 0, 64, 67
1, 571851, Control_c, 0, 67, 60
1, 571866, Control_c, 0, 64, 74
1, 571866, Control_c, 0, 67, 61
1, 571881, Control_c, 0, 64, 81
1, 571896, Control_c, 0, 64, 91
1, 571911, Control_c, 0, 64, 104
1, 571926, Control_c, 0, 64, 127
1, 571952, Note_on_c, 0, 75, 39
1, 571987, Note_on_c, 0, 70, 26
1, 572010, Note_off_c, 0, 75, 47
1, 572023, Note_off_c, 0, 70, 52
1, 572074, Control_c, 0, 67, 61
1, 572102, Control_c, 0, 67, 62
1, 572131, Control_c, 0, 67, 62
1, 572146, Control_c, 0, 67, 64
1, 572161, Control_c, 0, 67, 67
1, 572176, Control_c, 0, 64, 97
1, 572176, Control_c, 0, 67, 72
1, 572182, Note_on_c, 0, 70, 37
1, 572191, Note_on_c, 0, 79, 52
1, 572191, Control_c, 0, 64, 78
1, 572191, Control_c, 0, 67, 75
1, 572195, Note_on_c, 0, 74, 38
1, 572205, Control_c, 0, 64, 66
1, 572205, Control_c, 0, 67, 78
1, 572220, Control_c, 0, 64, 65
1, 572220, Control_c, 0, 67, 82
1, 572223, Note_off_c, 0, 77, 39
1, 572235, Control_c, 0, 64, 69
1, 572235, Control_c, 0, 67, 86
1, 572250, Control_c, 0, 64, 74
1, 572250, Control_c, 0, 67, 92
1, 572251, Note_off_c, 0, 70, 51
1, 572265, Control_c, 0, 64, 81
1, 572265, Control_c, 0, 67, 98
1, 572279, Control_c, 0, 64, 91
1, 572279, Control_c, 0, 67, 103
1, 572289, Note_off_c, 0, 74, 58
1, 572294, Control_c, 0, 64, 104
1, 572294, Control_c, 0, 67, 107
1, 572309, Control_c, 0, 64, 127
1, 572309, Control_c, 0, 67, 112
1, 572325, Control_c, 0, 67, 115
1, 572340, Control_c, 0, 67, 119
1, 572354, Control_c, 0, 67, 122
1, 572369, Control_c, 0, 67, 125
1, 572384, Control_c, 0, 67, 127
1, 572399, Control_c, 0, 67, 127
1, 572447, Note_on_c, 0, 74, 36
1, 572448, Note_on_c, 0, 80, 56
1, 572454, Note_on_c, 0, 70, 40
1, 572456, Note_off_c, 0, 79, 57
1, 572458, Control_c, 0, 64, 97
1, 572473, Control_c, 0, 64, 76
1, 572488, Control_c, 0, 64, 63
1, 572510, Note_off_c, 0, 74, 46
1, 572510, Control_c, 0, 64, 56
1, 572525, Control_c, 0, 64, 63
1, 572525, Note_off_c, 0, 70, 59
1, 572540, Control_c, 0, 64, 70
1, 572554, Control_c, 0, 64, 79
1, 572569, Control_c, 0, 64, 91
1, 572584, Control_c, 0, 64, 114
1, 572599, Control_c, 0, 64, 127
1, 572599, Control_c, 0, 67, 127
1, 572613, Note_on_c, 0, 82, 68
1, 572614, Control_c, 0, 67, 126
1, 572620, Note_off_c, 0, 80, 55
1, 572628, Control_c, 0, 67, 126
1, 572643, Control_c, 0, 67, 125
1, 572670, Note_off_c, 0, 82, 62
1, 572673, Control_c, 0, 67, 125
1, 572776, Control_c, 0, 67, 124
1, 572851, Note_on_c, 0, 87, 62
1, 572863, Note_on_c, 0, 79, 41
1, 572865, Control_c, 0, 64, 96
1, 572880, Control_c, 0, 64, 75
1, 572882, Note_on_c, 0, 75, 32
1, 572894, Control_c, 0, 64, 47
1, 572909, Control_c, 0, 64, 0
1, 572999, Control_c, 0, 64, 63
1, 573008, Note_off_c, 0, 79, 54
1, 573014, Control_c, 0, 64, 69
1, 573028, Control_c, 0, 64, 76
1, 573041, Note_off_c, 0, 75, 41
1, 573043, Control_c, 0, 64, 85
1, 573058, Control_c, 0, 64, 98
1, 573072, Control_c, 0, 64, 119
1, 573087, Control_c, 0, 64, 127
1, 573125, Note_on_c, 0, 82, 44
1, 573150, Note_on_c, 0, 79, 41
1, 573194, Note_off_c, 0, 79, 46
1, 573199, Note_off_c, 0, 82, 44
1, 573222, Control_c, 0, 67, 124
1, 573258, Control_c, 0, 67, 123
1, 573273, Control_c, 0, 67, 123
1, 573336, Note_on_c, 0, 82, 50
1, 573343, Note_on_c, 0, 79, 44
1, 573356, Note_off_c, 0, 87, 62
1, 573377, Control_c, 0, 67, 122
1, 573385, Note_off_c, 0, 82, 58
1, 573386, Note_off_c, 0, 79, 59
1, 573407, Control_c, 0, 67, 122
1, 573466, Control_c, 0, 67, 121
1, 573510, Control_c, 0, 67, 121
1, 573529, Note_on_c, 0, 87, 72
1, 573540, Control_c, 0, 67, 120
1, 573541, Note_on_c, 0, 82, 42
1, 573564, Note_on_c, 0, 79, 31
1, 573600, Control_c, 0, 67, 120
1, 573604, Note_off_c, 0, 82, 44
1, 573604, Note_off_c, 0, 79, 48
1, 573630, Control_c, 0, 67, 119
1, 573659, Control_c, 0, 67, 119
1, 573718, Control_c, 0, 67, 118
1, 573767, Note_on_c, 0, 85, 69
1, 573777, Note_on_c, 0, 82, 40
1, 573777, Control_c, 0, 67, 118
1, 573786, Note_on_c, 0, 79, 40
1, 573851, Control_c, 0, 67, 117
1, 573878, Note_off_c, 0, 79, 56
1, 573891, Note_off_c, 0, 82, 37
1, 574009, Note_on_c, 0, 82, 44
1, 574026, Note_on_c, 0, 79, 43
1, 574073, Note_off_c, 0, 82, 50
1, 574075, Note_off_c, 0, 79, 45
1, 574079, Note_off_c, 0, 87, 36
1, 574126, Control_c, 0, 67, 118
1, 574171, Control_c, 0, 67, 118
1, 574176, Note_off_c, 0, 85, 58
1, 574211, Note_on_c, 0, 82, 49
1, 574215, Control_c, 0, 67, 119
1, 574233, Note_on_c, 0, 79, 42
1, 574251, Note_off_c, 0, 82, 59
1, 574293, Note_off_c, 0, 79, 58
1, 574415, Note_on_c, 0, 85, 59
1, 574445, Note_on_c, 0, 82, 50
1, 574446, Note_on_c, 0, 79, 25
1, 574474, Note_off_c, 0, 82, 58
1, 574481, Note_off_c, 0, 79, 49
1, 574600, Control_c, 0, 67, 119
1, 574660, Control_c, 0, 67, 120
1, 574689, Control_c, 0, 67, 120
1, 574701, Note_on_c, 0, 84, 44
1, 574704, Control_c, 0, 64, 109
1, 574717, Note_on_c, 0, 64, 53
1, 574720, Control_c, 0, 64, 90
1, 574735, Control_c, 0, 64, 76
1, 574735, Control_c, 0, 67, 121
1, 574743, Note_on_c, 0, 82, 10
1, 574757, Control_c, 0, 64, 64
1, 574772, Control_c, 0, 64, 0
1, 574786, Note_off_c, 0, 82, 47
1, 574866, Note_off_c, 0, 85, 36
1, 574876, Control_c, 0, 64, 49
1, 574891, Control_c, 0, 64, 63
1, 574905, Control_c, 0, 64, 68
1, 574920, Note_on_c, 0, 82, 37
1, 574920, Control_c, 0, 64, 73
1, 574935, Note_on_c, 0, 79, 34
1, 574935, Control_c, 0, 64, 79
1, 574949, Control_c, 0, 64, 87
1, 574964, Control_c, 0, 64, 97
1, 574979, Control_c, 0, 64, 107
1, 574994, Control_c, 0, 64, 127
1, 574994, Control_c, 0, 67, 120
1, 575008, Note_off_c, 0, 82, 51
1, 575023, Control_c, 0, 67, 120
1, 575029, Note_off_c, 0, 79, 38
1, 575038, Control_c, 0, 67, 119
1, 575068, Control_c, 0, 67, 119
1, 575082, Control_c, 0, 67, 118
1, 575097, Control_c, 0, 67, 118
1, 575112, Control_c, 0, 67, 117
1, 575127, Control_c, 0, 67, 116
1, 575133, Note_on_c, 0, 82, 55
1, 575139, Note_on_c, 0, 79, 48
1, 575142, Control_c, 0, 67, 115
1, 575157, Control_c, 0, 67, 114
1, 575168, Note_off_c, 0, 82, 59
1, 575169, Note_off_c, 0, 79, 57
1, 575172, Control_c, 0, 67, 107
1, 575177, Note_off_c, 0, 64, 62
1, 575187, Control_c, 0, 67, 102
1, 575202, Control_c, 0, 67, 97
1, 575217, Control_c, 0, 67, 92
1, 575231, Control_c, 0, 67, 89
1, 575246, Control_c, 0, 67, 86
1, 575261, Control_c, 0, 67, 82
1, 575275, Control_c, 0, 67, 80
1, 575290, Control_c, 0, 67, 77
1, 575305, Control_c, 0, 67, 75
1, 575311, Note_on_c, 0, 79, 41
1, 575315, Note_on_c, 0, 64, 59
1, 575320, Control_c, 0, 67, 74
1, 575322, Note_on_c, 0, 82, 35
1, 575335, Control_c, 0, 67, 73
1, 575349, Control_c, 0, 67, 72
1, 575354, Note_off_c, 0, 79, 49
1, 575354, Note_off_c, 0, 82, 53
1, 575364, Control_c, 0, 67, 71
1, 575394, Control_c, 0, 67, 70
1, 575438, Control_c, 0, 67, 71
1, 575453, Control_c, 0, 67, 72
1, 575468, Control_c, 0, 67, 74
1, 575482, Control_c, 0, 67, 74
1, 575505, Control_c, 0, 67, 75
1, 575520, Control_c, 0, 67, 76
1, 575536, Control_c, 0, 64, 95
1, 575536, Control_c, 0, 67, 76
1, 575550, Control_c, 0, 64, 74
1, 575550, Control_c, 0, 67, 77
1, 575554, Note_on_c, 0, 77, 39
1, 575559, Note_on_c, 0, 82, 45
1, 575565, Control_c, 0, 64, 0
1, 575565, Control_c, 0, 67, 77
1, 575573, Note_on_c, 0, 62, 58
1, 575619, Note_off_c, 0, 77, 56
1, 575619, Note_off_c, 0, 82, 57
1, 575684, Control_c, 0, 64, 42
1, 575698, Control_c, 0, 64, 63
1, 575700, Note_off_c, 0, 64, 62
1, 575713, Control_c, 0, 64, 69
1, 575728, Control_c, 0, 64, 74
1, 575743, Control_c, 0, 64, 81
1, 575743, Control_c, 0, 67, 77
1, 575758, Control_c, 0, 64, 89
1, 575772, Note_on_c, 0, 77, 49
1, 575772, Control_c, 0, 64, 96
1, 575772, Control_c, 0, 67, 76
1, 575775, Note_on_c, 0, 82, 47
1, 575787, Control_c, 0, 64, 102
1, 575802, Control_c, 0, 64, 112
1, 575817, Control_c, 0, 64, 127
1, 575817, Control_c, 0, 67, 76
1, 575846, Control_c, 0, 67, 75
1, 575851, Note_off_c, 0, 84, 59
1, 575858, Note_off_c, 0, 77, 56
1, 575860, Note_off_c, 0, 82, 59
1, 575861, Control_c, 0, 67, 75
1, 575876, Control_c, 0, 67, 74
1, 575905, Control_c, 0, 67, 74
1, 575920, Control_c, 0, 67, 73
1, 575935, Control_c, 0, 67, 72
1, 575950, Control_c, 0, 67, 72
1, 575965, Control_c, 0, 67, 71
1, 575968, Note_off_c, 0, 62, 61
1, 575980, Control_c, 0, 67, 70
1, 575982, Note_on_c, 0, 84, 71
1, 575995, Control_c, 0, 67, 70
1, 576009, Control_c, 0, 67, 69
1, 576015, Note_on_c, 0, 82, 32
1, 576024, Note_on_c, 0, 77, 20
1, 576024, Control_c, 0, 67, 65
1, 576039, Control_c, 0, 67, 60
1, 576048, Note_off_c, 0, 82, 49
1, 576054, Control_c, 0, 67, 55
1, 576065, Note_off_c, 0, 77, 44
1, 576069, Control_c, 0, 67, 49
1, 576084, Control_c, 0, 67, 45
1, 576098, Control_c, 0, 67, 40
1, 576113, Control_c, 0, 67, 35
1, 576128, Control_c, 0, 67, 30
1, 576143, Control_c, 0, 67, 25
1, 576158, Control_c, 0, 67, 20
1, 576170, Note_on_c, 0, 62, 55
1, 576172, Control_c, 0, 67, 15
1, 576179, Note_on_c, 0, 82, 51
1, 576179, Note_on_c, 0, 77, 47
1, 576187, Control_c, 0, 67, 10
1, 576202, Control_c, 0, 67, 0
1, 576250, Note_off_c, 0, 77, 60
1, 576263, Note_off_c, 0, 82, 62
1, 576275, Note_off_c, 0, 84, 63
1, 576418, Control_c, 0, 64, 99
1, 576425, Note_on_c, 0, 84, 73
1, 576431, Note_on_c, 0, 60, 52
1, 576433, Control_c, 0, 64, 72
1, 576448, Control_c, 0, 64, 0
1, 576463, Note_on_c, 0, 76, 39
1, 576466, Note_off_c, 0, 62, 59
1, 576479, Note_on_c, 0, 82, 26
1, 576516, Note_off_c, 0, 82, 54
1, 576521, Control_c, 0, 64, 29
1, 576536, Control_c, 0, 64, 63
1, 576541, Note_off_c, 0, 76, 47
1, 576551, Control_c, 0, 64, 71
1, 576566, Control_c, 0, 64, 79
1, 576582, Control_c, 0, 64, 92
1, 576596, Control_c, 0, 64, 112
1, 576611, Control_c, 0, 64, 127
1, 576621, Note_on_c, 0, 82, 52
1, 576641, Note_on_c, 0, 76, 44
1, 576664, Note_off_c, 0, 60, 62
1, 576670, Note_off_c, 0, 76, 55
1, 576674, Note_off_c, 0, 82, 61
1, 576680, Note_off_c, 0, 84, 62
1, 576743, Note_on_c, 0, 76, 67
1, 576783, Note_off_c, 0, 76, 58
1, 576799, Note_on_c, 0, 82, 70
1, 576829, Note_off_c, 0, 82, 60
1, 577019, Note_on_c, 0, 94, 77
1, 577021, Note_on_c, 0, 60, 35
1, 577126, Note_off_c, 0, 94, 66
1, 577239, Note_on_c, 0, 82, 58
1, 577253, Note_on_c, 0, 76, 35
1, 577271, Note_off_c, 0, 82, 64
1, 577286, Note_off_c, 0, 76, 54
1, 577288, Note_off_c, 0, 60, 54
1, 577345, Note_on_c, 0, 77, 62
1, 577378, Note_off_c, 0, 77, 64
1, 577381, Note_on_c, 0, 82, 70
1, 577420, Note_off_c, 0, 82, 62
1, 577455, Note_on_c, 0, 93, 87
1, 577460, Note_on_c, 0, 62, 54
1, 577464, Control_c, 0, 64, 103
1, 577478, Control_c, 0, 64, 85
1, 577493, Control_c, 0, 64, 74
1, 577508, Control_c, 0, 64, 68
1, 577523, Control_c, 0, 64, 69
1, 577533, Note_off_c, 0, 93, 62
1, 577538, Control_c, 0, 64, 74
1, 577552, Control_c, 0, 64, 81
1, 577567, Control_c, 0, 64, 98
1, 577582, Control_c, 0, 64, 127
1, 577659, Note_on_c, 0, 82, 68
1, 577664, Note_off_c, 0, 62, 60
1, 577665, Note_on_c, 0, 77, 52
1, 577685, Note_off_c, 0, 82, 67
1, 577686, Note_off_c, 0, 77, 63
1, 577877, Note_on_c, 0, 91, 84
1, 577885, Control_c, 0, 64, 114
1, 577889, Note_on_c, 0, 64, 53
1, 577895, Note_on_c, 0, 82, 55
1, 577900, Control_c, 0, 64, 88
1, 577907, Note_on_c, 0, 79, 49
1, 577916, Control_c, 0, 64, 73
1, 577931, Control_c, 0, 64, 64
1, 577946, Control_c, 0, 64, 63
1, 577951, Note_off_c, 0, 82, 49
1, 577961, Control_c, 0, 64, 66
1, 577965, Note_off_c, 0, 79, 54
1, 577975, Control_c, 0, 64, 72
1, 577990, Control_c, 0, 64, 80
1, 578005, Control_c, 0, 64, 92
1, 578016, Note_off_c, 0, 64, 62
1, 578020, Control_c, 0, 64, 110
1, 578035, Control_c, 0, 64, 127
1, 578088, Note_on_c, 0, 82, 63
1, 578104, Note_on_c, 0, 79, 44
1, 578120, Note_off_c, 0, 91, 61
1, 578134, Note_off_c, 0, 79, 57
1, 578147, Note_off_c, 0, 82, 63
1, 578349, Note_on_c, 0, 65, 46
1, 578355, Note_on_c, 0, 89, 71
1, 578375, Control_c, 0, 64, 109
1, 578390, Control_c, 0, 64, 86
1, 578396, Note_on_c, 0, 77, 28
1, 578405, Control_c, 0, 64, 71
1, 578420, Control_c, 0, 64, 53
1, 578435, Control_c, 0, 64, 40
1, 578437, Note_off_c, 0, 77, 49
1, 578449, Control_c, 0, 64, 41
1, 578450, Poly_aftertouch_c, 0, 82, 0
1, 578464, Control_c, 0, 64, 47
1, 578479, Control_c, 0, 64, 57
1, 578501, Control_c, 0, 64, 64
1, 578516, Control_c, 0, 64, 68
1, 578531, Control_c, 0, 64, 72
1, 578546, Control_c, 0, 64, 78
1, 578561, Control_c, 0, 64, 86
1, 578573, Note_on_c, 0, 82, 52
1, 578575, Control_c, 0, 64, 95
1, 578590, Control_c, 0, 64, 107
1, 578591, Note_on_c, 0, 77, 39
1, 578605, Control_c, 0, 64, 127
1, 578608, Note_off_c, 0, 82, 63
1, 578637, Note_off_c, 0, 77, 48
1, 578789, Note_on_c, 0, 86, 68
1, 578791, Note_on_c, 0, 70, 51
1, 578904, Note_off_c, 0, 89, 41
1, 578973, Note_off_c, 0, 65, 38
1, 579000, Note_off_c, 0, 70, 60
1, 579032, Note_on_c, 0, 82, 42
1, 579067, Note_on_c, 0, 77, 8
1, 579076, Note_off_c, 0, 82, 50
1, 579114, Note_off_c, 0, 77, 42
1, 579345, Note_on_c, 0, 84, 50
1, 579351, Note_on_c, 0, 82, 46
1, 579365, Note_on_c, 0, 75, 51
1, 579369, Control_c, 0, 64, 94
1, 579371, Note_on_c, 0, 65, 40
1, 579384, Control_c, 0, 64, 78
1, 579398, Control_c, 0, 64, 65
1, 579413, Control_c, 0, 64, 0
1, 579432, Note_off_c, 0, 82, 44
1, 579487, Control_c, 0, 64, 31
1, 579502, Control_c, 0, 64, 59
1, 579518, Control_c, 0, 64, 66
1, 579533, Control_c, 0, 64, 70
1, 579547, Control_c, 0, 64, 75
1, 579562, Control_c, 0, 64, 83
1, 579577, Control_c, 0, 64, 92
1, 579582, Note_off_c, 0, 86, 37
1, 579592, Control_c, 0, 64, 101
1, 579601, Note_on_c, 0, 77, 24
1, 579607, Control_c, 0, 64, 111
1, 579621, Control_c, 0, 64, 127
1, 579667, Note_off_c, 0, 77, 47
1, 579822, Note_on_c, 0, 86, 61
1, 579882, Note_off_c, 0, 84, 57
1, 579938, Note_on_c, 0, 74, 65
1, 580040, Note_on_c, 0, 87, 74
1, 580123, Note_on_c, 0, 72, 71
1, 580128, Note_off_c, 0, 75, 46
1, 580142, Note_off_c, 0, 86, 60
1, 580147, Note_off_c, 0, 74, 63
1, 580188, Note_off_c, 0, 65, 62
1, 580198, Note_off_c, 0, 72, 63
1, 580341, Note_on_c, 0, 65, 38
1, 580352, Note_on_c, 0, 86, 65
1, 580370, Control_c, 0, 64, 104
1, 580371, Note_on_c, 0, 77, 59
1, 580385, Control_c, 0, 64, 84
1, 580400, Control_c, 0, 64, 70
1, 580415, Control_c, 0, 64, 55
1, 580430, Control_c, 0, 64, 45
1, 580441, Note_off_c, 0, 87, 36
1, 580444, Control_c, 0, 64, 47
1, 580459, Control_c, 0, 64, 54
1, 580474, Control_c, 0, 64, 62
1, 580488, Control_c, 0, 64, 66
1, 580503, Control_c, 0, 64, 71
1, 580518, Control_c, 0, 64, 76
1, 580533, Control_c, 0, 64, 83
1, 580548, Control_c, 0, 64, 91
1, 580562, Control_c, 0, 64, 100
1, 580577, Control_c, 0, 64, 110
1, 580592, Control_c, 0, 64, 127
1, 580609, Note_on_c, 0, 82, 51
1, 580653, Note_off_c, 0, 77, 60
1, 580657, Note_off_c, 0, 82, 57
1, 580731, Note_off_c, 0, 86, 46
1, 580810, Note_on_c, 0, 82, 58
1, 580827, Note_on_c, 0, 74, 62
1, 580880, Poly_aftertouch_c, 0, 77, 127
1, 580919, Poly_aftertouch_c, 0, 77, 0
1, 580975, Note_off_c, 0, 82, 0
1, 581001, Note_on_c, 0, 82, 15
1, 581040, Note_on_c, 0, 77, 33
1, 581050, Note_off_c, 0, 74, 59
1, 581069, Note_off_c, 0, 65, 54
1, 581080, Note_off_c, 0, 77, 49
1, 581124, Note_off_c, 0, 82, 53
1, 581238, Note_on_c, 0, 65, 36
1, 581254, Note_on_c, 0, 72, 43
1, 581341, Control_c, 0, 64, 103
1, 581356, Control_c, 0, 64, 85
1, 581360, Note_on_c, 0, 87, 71
1, 581371, Control_c, 0, 64, 72
1, 581385, Control_c, 0, 64, 65
1, 581386, Note_on_c, 0, 82, 41
1, 581400, Control_c, 0, 64, 64
1, 581407, Note_on_c, 0, 77, 18
1, 581415, Control_c, 0, 64, 65
1, 581430, Control_c, 0, 64, 68
1, 581437, Note_off_c, 0, 82, 47
1, 581445, Control_c, 0, 64, 72
1, 581449, Note_off_c, 0, 77, 52
1, 581460, Control_c, 0, 64, 79
1, 581474, Control_c, 0, 64, 86
1, 581497, Control_c, 0, 64, 94
1, 581512, Control_c, 0, 64, 103
1, 581526, Control_c, 0, 64, 117
1, 581541, Control_c, 0, 64, 127
1, 581582, Note_on_c, 0, 82, 52
1, 581603, Note_on_c, 0, 77, 31
1, 581635, Note_off_c, 0, 82, 59
1, 581643, Note_off_c, 0, 77, 50
1, 581777, Note_on_c, 0, 74, 54
1, 581786, Note_on_c, 0, 77, 36
1, 581790, Note_on_c, 0, 81, 60
1, 581820, Note_off_c, 0, 72, 44
1, 581879, Note_on_c, 0, 86, 76
1, 581880, Note_off_c, 0, 81, 61
1, 581896, Note_off_c, 0, 77, 42
1, 581979, Note_on_c, 0, 75, 61
1, 581981, Note_off_c, 0, 74, 57
1, 581988, Note_on_c, 0, 81, 66
1, 582005, Note_on_c, 0, 77, 50
1, 582017, Note_off_c, 0, 75, 57
1, 582034, Note_off_c, 0, 87, 55
1, 582061, Note_off_c, 0, 65, 52
1, 582062, Note_on_c, 0, 84, 84
1, 582085, Note_off_c, 0, 86, 61
1, 582099, Note_off_c, 0, 81, 62
1, 582117, Note_off_c, 0, 77, 61
1, 582143, Note_off_c, 0, 84, 66
1, 582210, Note_on_c, 0, 65, 38
1, 582212, Note_on_c, 0, 73, 57
1, 582309, Note_on_c, 0, 89, 82
1, 582320, Control_c, 0, 64, 124
1, 582335, Control_c, 0, 64, 93
1, 582349, Control_c, 0, 64, 78
1, 582353, Note_on_c, 0, 77, 30
1, 582364, Control_c, 0, 64, 66
1, 582379, Control_c, 0, 64, 50
1, 582394, Control_c, 0, 64, 40
1, 582403, Note_off_c, 0, 77, 46
1, 582409, Control_c, 0, 64, 38
1, 582423, Control_c, 0, 64, 36
1, 582453, Control_c, 0, 64, 38
1, 582467, Control_c, 0, 64, 51
1, 582482, Control_c, 0, 64, 62
1, 582497, Control_c, 0, 64, 66
1, 582512, Control_c, 0, 64, 70
1, 582527, Control_c, 0, 64, 74
1, 582541, Control_c, 0, 64, 78
1, 582556, Control_c, 0, 64, 84
1, 582567, Note_on_c, 0, 82, 51
1, 582571, Control_c, 0, 64, 91
1, 582586, Control_c, 0, 64, 98
1, 582590, Note_off_c, 0, 82, 61
1, 582601, Control_c, 0, 64, 109
1, 582606, Poly_aftertouch_c, 0, 77, 127
1, 582615, Control_c, 0, 64, 127
1, 582640, Poly_aftertouch_c, 0, 77, 0
1, 582770, Note_on_c, 0, 85, 74
1, 582787, Note_on_c, 0, 70, 46
1, 582832, Note_off_c, 0, 73, 58
1, 582961, Note_off_c, 0, 70, 61
1, 582968, Note_off_c, 0, 65, 37
1, 583000, Note_on_c, 0, 82, 65
1, 583024, Note_off_c, 0, 89, 60
1, 583044, Note_on_c, 0, 77, 33
1, 583045, Note_off_c, 0, 85, 58
1, 583110, Note_off_c, 0, 77, 51
1, 583110, Note_off_c, 0, 82, 60
1, 583254, Note_on_c, 0, 82, 46
1, 583257, Note_on_c, 0, 84, 57
1, 583262, Note_on_c, 0, 65, 54
1, 583262, Note_on_c, 0, 75, 62
1, 583271, Note_on_c, 0, 77, 23
1, 583276, Control_c, 0, 64, 104
1, 583290, Control_c, 0, 64, 83
1, 583298, Note_off_c, 0, 82, 58
1, 583305, Control_c, 0, 64, 67
1, 583309, Note_off_c, 0, 77, 50
1, 583320, Control_c, 0, 64, 24
1, 583335, Control_c, 0, 64, 0
1, 583379, Control_c, 0, 64, 28
1, 583394, Control_c, 0, 64, 60
1, 583408, Control_c, 0, 64, 67
1, 583423, Control_c, 0, 64, 73
1, 583438, Control_c, 0, 64, 81
1, 583453, Control_c, 0, 64, 94
1, 583460, Note_on_c, 0, 82, 45
1, 583468, Control_c, 0, 64, 107
1, 583471, Note_on_c, 0, 77, 45
1, 583483, Control_c, 0, 64, 127
1, 583499, Note_off_c, 0, 82, 62
1, 583542, Note_off_c, 0, 77, 58
1, 583742, Note_on_c, 0, 85, 67
1, 583779, Note_on_c, 0, 81, 19
1, 583791, Poly_aftertouch_c, 0, 77, 127
1, 583818, Note_off_c, 0, 81, 41
1, 583831, Note_off_c, 0, 84, 63
1, 583835, Poly_aftertouch_c, 0, 77, 0
1, 583867, Note_on_c, 0, 73, 72
1, 583942, Note_on_c, 0, 77, 49
1, 583944, Note_on_c, 0, 87, 81
1, 583945, Note_on_c, 0, 81, 48
1, 584031, Note_off_c, 0, 81, 63
1, 584033, Note_off_c, 0, 85, 61
1, 584035, Note_off_c, 0, 77, 57
1, 584041, Note_on_c, 0, 72, 76
1, 584045, Note_off_c, 0, 75, 30
1, 584067, Note_off_c, 0, 73, 62
1, 584091, Note_off_c, 0, 65, 59
1, 584124, Note_off_c, 0, 72, 61
1, 584236, Note_on_c, 0, 65, 44
1, 584257, Note_on_c, 0, 85, 75
1, 584270, Note_on_c, 0, 73, 61
1, 584276, Control_c, 0, 64, 93
1, 584291, Control_c, 0, 64, 76
1, 584305, Note_on_c, 0, 80, 29
1, 584307, Control_c, 0, 64, 60
1, 584322, Control_c, 0, 64, 29
1, 584336, Control_c, 0, 64, 28
1, 584338, Note_off_c, 0, 80, 50
1, 584351, Control_c, 0, 64, 30
1, 584366, Control_c, 0, 64, 47
1, 584381, Control_c, 0, 64, 61
1, 584396, Control_c, 0, 64, 66
1, 584410, Control_c, 0, 64, 73
1, 584425, Control_c, 0, 64, 80
1, 584440, Control_c, 0, 64, 91
1, 584445, Note_off_c, 0, 87, 62
1, 584454, Control_c, 0, 64, 104
1, 584469, Control_c, 0, 64, 127
1, 584496, Note_on_c, 0, 77, 42
1, 584500, Note_on_c, 0, 80, 72
1, 584513, Note_off_c, 0, 73, 59
1, 584527, Note_off_c, 0, 77, 58
1, 584559, Note_off_c, 0, 85, 61
1, 584571, Note_off_c, 0, 80, 62
1, 584684, Note_on_c, 0, 84, 76
1, 584696, Note_on_c, 0, 68, 61
1, 584711, Note_on_c, 0, 73, 49
1, 584720, Note_off_c, 0, 65, 61
1, 584742, Note_off_c, 0, 73, 54
1, 584819, Note_off_c, 0, 68, 62
1, 584896, Note_on_c, 0, 82, 82
1, 584907, Note_on_c, 0, 73, 59
1, 584955, Note_off_c, 0, 73, 54
1, 584991, Note_off_c, 0, 84, 57
1, 585142, Note_on_c, 0, 79, 71
1, 585144, Control_c, 0, 64, 97
1, 585157, Note_on_c, 0, 63, 43
1, 585157, Note_on_c, 0, 70, 41
1, 585158, Control_c, 0, 64, 76
1, 585161, Note_on_c, 0, 73, 54
1, 585173, Control_c, 0, 64, 62
1, 585188, Control_c, 0, 64, 0
1, 585255, Control_c, 0, 64, 44
1, 585270, Control_c, 0, 64, 62
1, 585275, Note_off_c, 0, 73, 57
1, 585284, Control_c, 0, 64, 67
1, 585299, Control_c, 0, 64, 72
1, 585314, Control_c, 0, 64, 78
1, 585329, Control_c, 0, 64, 86
1, 585344, Control_c, 0, 64, 96
1, 585358, Control_c, 0, 64, 111
1, 585373, Control_c, 0, 64, 127
1, 585390, Note_off_c, 0, 82, 38
1, 585394, Note_on_c, 0, 73, 59
1, 585456, Note_off_c, 0, 73, 62
1, 585642, Note_on_c, 0, 80, 72
1, 585681, Note_on_c, 0, 73, 32
1, 585717, Note_off_c, 0, 73, 53
1, 585748, Note_off_c, 0, 79, 60
1, 585772, Note_on_c, 0, 68, 68
1, 585853, Note_on_c, 0, 82, 88
1, 585912, Note_off_c, 0, 80, 61
1, 585938, Note_on_c, 0, 67, 75
1, 585954, Note_off_c, 0, 70, 49
1, 585959, Note_off_c, 0, 68, 61
1, 585990, Note_off_c, 0, 63, 38
1, 586007, Poly_aftertouch_c, 0, 65, 127
1, 586064, Poly_aftertouch_c, 0, 65, 0
1, 586102, Poly_aftertouch_c, 0, 65, 127
1, 586110, Note_on_c, 0, 85, 79
1, 586135, Note_on_c, 0, 64, 57
1, 586139, Note_on_c, 0, 73, 41
1, 586146, Note_on_c, 0, 68, 64
1, 586151, Control_c, 0, 64, 111
1, 586166, Control_c, 0, 64, 87
1, 586171, Note_off_c, 0, 67, 50
1, 586180, Control_c, 0, 64, 70
1, 586193, Poly_aftertouch_c, 0, 65, 0
1, 586195, Control_c, 0, 64, 41
1, 586209, Note_off_c, 0, 82, 55
1, 586210, Control_c, 0, 64, 0
1, 586218, Note_off_c, 0, 73, 41
1, 586314, Control_c, 0, 64, 62
1, 586329, Control_c, 0, 64, 71
1, 586344, Control_c, 0, 64, 83
1, 586355, Note_on_c, 0, 73, 75
1, 586359, Control_c, 0, 64, 108
1, 586374, Control_c, 0, 64, 127
1, 586384, Note_off_c, 0, 68, 61
1, 586438, Note_off_c, 0, 73, 57
1, 586579, Note_on_c, 0, 80, 75
1, 586581, Note_on_c, 0, 68, 58
1, 586587, Note_on_c, 0, 73, 62
1, 586633, Note_off_c, 0, 73, 57
1, 586780, Note_off_c, 0, 64, 64
1, 586800, Note_on_c, 0, 73, 60
1, 586860, Note_off_c, 0, 73, 62
1, 587023, Note_on_c, 0, 79, 74
1, 587027, Note_on_c, 0, 73, 48
1, 587033, Note_on_c, 0, 63, 51
1, 587034, Control_c, 0, 64, 94
1, 587035, Note_on_c, 0, 70, 51
1, 587049, Control_c, 0, 64, 74
1, 587063, Control_c, 0, 64, 50
1, 587073, Note_off_c, 0, 80, 56
1, 587078, Control_c, 0, 64, 0
1, 587086, Note_off_c, 0, 85, 53
1, 587108, Control_c, 0, 64, 27
1, 587123, Control_c, 0, 64, 59
1, 587131, Note_off_c, 0, 73, 62
1, 587137, Control_c, 0, 64, 68
1, 587152, Control_c, 0, 64, 76
1, 587167, Control_c, 0, 64, 90
1, 587182, Control_c, 0, 64, 111
1, 587197, Control_c, 0, 64, 127
1, 587202, Note_off_c, 0, 68, 56
1, 587242, Note_on_c, 0, 73, 74
1, 587305, Note_off_c, 0, 73, 61
1, 587429, Note_on_c, 0, 80, 80
1, 587432, Note_on_c, 0, 73, 59
1, 587487, Note_off_c, 0, 73, 59
1, 587526, Note_off_c, 0, 79, 59
1, 587560, Note_on_c, 0, 68, 73
1, 587646, Note_on_c, 0, 82, 88
1, 587662, Note_on_c, 0, 73, 64
1, 587704, Note_off_c, 0, 80, 60
1, 587713, Note_off_c, 0, 70, 35
1, 587722, Note_off_c, 0, 73, 60
1, 587731, Note_off_c, 0, 63, 58
1, 587734, Note_on_c, 0, 67, 77
1, 587757, Note_off_c, 0, 68, 61
1, 587793, Poly_aftertouch_c, 0, 65, 127
1, 587832, Poly_aftertouch_c, 0, 65, 0
1, 587975, Control_c, 0, 64, 115
1, 587985, Note_on_c, 0, 85, 81
1, 587990, Control_c, 0, 64, 90
1, 587993, Note_on_c, 0, 64, 49
1, 587996, Note_on_c, 0, 68, 53
1, 587997, Poly_aftertouch_c, 0, 65, 127
1, 588005, Control_c, 0, 64, 74
1, 588020, Control_c, 0, 64, 50
1, 588020, Note_off_c, 0, 67, 56
1, 588025, Note_on_c, 0, 73, 27
1, 588034, Control_c, 0, 64, 0
1, 588041, Poly_aftertouch_c, 0, 65, 0
1, 588097, Note_off_c, 0, 73, 41
1, 588099, Note_off_c, 0, 82, 53
1, 588139, Control_c, 0, 64, 47
1, 588153, Control_c, 0, 64, 65
1, 588168, Control_c, 0, 64, 71
1, 588183, Control_c, 0, 64, 79
1, 588197, Control_c, 0, 64, 89
1, 588212, Control_c, 0, 64, 107
1, 588234, Control_c, 0, 64, 127
1, 588272, Note_off_c, 0, 68, 61
1, 588277, Note_on_c, 0, 73, 87
1, 588349, Note_off_c, 0, 73, 61
1, 588526, Note_on_c, 0, 80, 79
1, 588535, Note_on_c, 0, 68, 58
1, 588538, Note_on_c, 0, 73, 66
1, 588565, Note_off_c, 0, 73, 58
1, 588689, Note_off_c, 0, 64, 62
1, 588739, Note_off_c, 0, 85, 54
1, 588769, Note_on_c, 0, 73, 56
1, 588826, Note_off_c, 0, 73, 62
1, 589037, Note_on_c, 0, 79, 69
1, 589051, Note_on_c, 0, 73, 57
1, 589054, Note_on_c, 0, 70, 50
1, 589057, Control_c, 0, 64, 122
1, 589072, Control_c, 0, 64, 89
1, 589076, Note_on_c, 0, 63, 40
1, 589087, Control_c, 0, 64, 71
1, 589103, Control_c, 0, 64, 0
1, 589117, Note_off_c, 0, 80, 57
1, 589191, Note_off_c, 0, 68, 58
1, 589201, Note_off_c, 0, 73, 61
1, 589236, Control_c, 0, 64, 55
1, 589251, Control_c, 0, 64, 65
1, 589266, Control_c, 0, 64, 69
1, 589280, Control_c, 0, 64, 74
1, 589295, Control_c, 0, 64, 80
1, 589311, Control_c, 0, 64, 86
1, 589325, Control_c, 0, 64, 93
1, 589337, Note_on_c, 0, 73, 51
1, 589340, Control_c, 0, 64, 101
1, 589355, Control_c, 0, 64, 110
1, 589370, Control_c, 0, 64, 126
1, 589385, Control_c, 0, 64, 127
1, 589403, Note_off_c, 0, 73, 60
1, 589667, Note_on_c, 0, 80, 59
1, 589689, Note_on_c, 0, 73, 33
1, 589777, Note_off_c, 0, 73, 41
1, 589814, Note_off_c, 0, 79, 38
1, 589871, Note_on_c, 0, 68, 44
1, 589981, Note_on_c, 0, 82, 62
1, 590000, Note_off_c, 0, 70, 27
1, 590012, Note_on_c, 0, 73, 29
1, 590022, Note_off_c, 0, 80, 58
1, 590056, Note_off_c, 0, 73, 47
1, 590082, Note_off_c, 0, 63, 42
1, 590089, Note_off_c, 0, 68, 56
1, 590101, Note_on_c, 0, 67, 46
1, 590311, Control_c, 0, 64, 122
1, 590326, Control_c, 0, 64, 102
1, 590330, Note_off_c, 0, 67, 47
1, 590341, Control_c, 0, 64, 89
1, 590350, Note_on_c, 0, 85, 52
1, 590355, Control_c, 0, 64, 78
1, 590363, Note_on_c, 0, 68, 39
1, 590369, Note_on_c, 0, 64, 27
1, 590370, Control_c, 0, 64, 66
1, 590385, Note_on_c, 0, 73, 25
1, 590385, Control_c, 0, 64, 24
1, 590399, Control_c, 0, 64, 0
1, 590429, Note_off_c, 0, 82, 52
1, 590511, Control_c, 0, 64, 30
1, 590526, Control_c, 0, 64, 59
1, 590541, Control_c, 0, 64, 65
1, 590555, Control_c, 0, 64, 69
1, 590559, Note_off_c, 0, 73, 45
1, 590570, Control_c, 0, 64, 74
1, 590585, Control_c, 0, 64, 80
1, 590599, Control_c, 0, 64, 86
1, 590614, Control_c, 0, 64, 93
1, 590629, Control_c, 0, 64, 101
1, 590644, Control_c, 0, 64, 110
1, 590652, Note_off_c, 0, 68, 54
1, 590659, Control_c, 0, 64, 127
1, 590738, Note_on_c, 0, 73, 30
1, 590833, Note_off_c, 0, 73, 45
1, 591048, Note_on_c, 0, 80, 45
1, 591075, Note_on_c, 0, 73, 34
1, 591082, Note_on_c, 0, 68, 31
1, 591230, Note_off_c, 0, 73, 45
1, 591350, Note_off_c, 0, 64, 40
1, 591425, Note_off_c, 0, 85, 39
1, 591488, Note_on_c, 0, 73, 27
1, 591628, Note_off_c, 0, 73, 45
1, 592256, Note_on_c, 0, 63, 18
1, 592256, Note_on_c, 0, 79, 33
1, 592267, Note_on_c, 0, 73, 30
1, 592269, Note_on_c, 0, 70, 24
1, 592306, Control_c, 0, 64, 124
1, 592321, Control_c, 0, 64, 103
1, 592336, Control_c, 0, 64, 92
1, 592350, Control_c, 0, 64, 83
1, 592365, Control_c, 0, 64, 76
1, 592380, Control_c, 0, 64, 68
1, 592395, Control_c, 0, 64, 63
1, 592410, Control_c, 0, 64, 59
1, 592421, Note_off_c, 0, 80, 28
1, 592424, Control_c, 0, 64, 58
1, 592434, Note_off_c, 0, 68, 43
1, 592439, Control_c, 0, 64, 55
1, 592454, Control_c, 0, 64, 49
1, 592468, Control_c, 0, 64, 30
1, 592468, Control_c, 0, 67, 8
1, 592483, Control_c, 0, 64, 0
1, 592483, Control_c, 0, 67, 9
1, 592498, Control_c, 0, 67, 11
1, 592513, Control_c, 0, 67, 13
1, 592528, Control_c, 0, 67, 17
1, 592542, Control_c, 0, 67, 21
1, 592557, Control_c, 0, 67, 26
1, 592572, Control_c, 0, 67, 31
1, 592587, Control_c, 0, 67, 37
1, 592601, Control_c, 0, 67, 42
1, 592616, Control_c, 0, 67, 48
1, 592631, Control_c, 0, 67, 54
1, 592646, Control_c, 0, 67, 59
1, 592661, Control_c, 0, 67, 64
1, 592676, Control_c, 0, 67, 70
1, 592691, Control_c, 0, 67, 76
1, 592706, Control_c, 0, 67, 81
1, 592728, Control_c, 0, 67, 86
1, 592743, Control_c, 0, 64, 36
1, 592743, Control_c, 0, 67, 90
1, 592757, Control_c, 0, 64, 52
1, 592757, Control_c, 0, 67, 94
1, 592772, Control_c, 0, 64, 61
1, 592772, Control_c, 0, 67, 98
1, 592787, Control_c, 0, 64, 64
1, 592787, Control_c, 0, 67, 101
1, 592801, Control_c, 0, 64, 66
1, 592801, Control_c, 0, 67, 103
1, 592816, Control_c, 0, 64, 68
1, 592816, Control_c, 0, 67, 106
1, 592831, Control_c, 0, 64, 71
1, 592831, Control_c, 0, 67, 107
1, 592846, Control_c, 0, 64, 74
1, 592846, Control_c, 0, 67, 109
1, 592861, Control_c, 0, 64, 78
1, 592861, Control_c, 0, 67, 109
1, 592875, Control_c, 0, 64, 83
1, 592875, Control_c, 0, 67, 110
1, 592890, Control_c, 0, 64, 88
1, 592905, Control_c, 0, 64, 93
1, 592920, Control_c, 0, 64, 98
1, 592935, Control_c, 0, 64, 104
1, 592950, Control_c, 0, 64, 110
1, 592965, Control_c, 0, 64, 127
1, 593174, Control_c, 0, 67, 109
1, 593278, Control_c, 0, 67, 109
1, 593484, Note_off_c, 0, 73, 44
1, 593493, Note_off_c, 0, 70, 41
1, 593768, Note_off_c, 0, 63, 38
1, 593843, Note_off_c, 0, 79, 30
1, 593996, Control_c, 0, 67, 109
1, 594041, Control_c, 0, 67, 110
1, 594070, Control_c, 0, 67, 110
1, 594100, Control_c, 0, 67, 111
1, 594129, Control_c, 0, 67, 111
1, 594144, Control_c, 0, 67, 112
1, 594159, Control_c, 0, 67, 115
1, 594174, Control_c, 0, 67, 119
1, 594188, Control_c, 0, 67, 123
1, 594203, Control_c, 0, 67, 126
1, 594226, Control_c, 0, 67, 127
1, 594492, Control_c, 0, 64, 110
1, 594494, Note_on_c, 0, 87, 63
1, 594507, Control_c, 0, 64, 97
1, 594521, Control_c, 0, 64, 87
1, 594536, Control_c, 0, 64, 78
1, 594551, Control_c, 0, 64, 69
1, 594566, Control_c, 0, 64, 61
1, 594581, Control_c, 0, 64, 54
1, 594625, Control_c, 0, 64, 57
1, 594640, Control_c, 0, 64, 61
1, 594655, Control_c, 0, 64, 64
1, 594670, Control_c, 0, 64, 67
1, 594685, Control_c, 0, 64, 70
1, 594700, Control_c, 0, 64, 74
1, 594715, Control_c, 0, 64, 78
1, 594730, Control_c, 0, 64, 83
1, 594744, Control_c, 0, 64, 88
1, 594759, Control_c, 0, 64, 94
1, 594774, Control_c, 0, 64, 100
1, 594775, Note_on_c, 0, 75, 40
1, 594789, Control_c, 0, 64, 105
1, 594796, Note_off_c, 0, 87, 39
1, 594804, Control_c, 0, 64, 113
1, 594819, Control_c, 0, 64, 127
1, 594920, Note_off_c, 0, 75, 49
1, 594959, Note_on_c, 0, 79, 41
1, 595096, Note_on_c, 0, 27, 26
1, 595096, Note_on_c, 0, 39, 22
1, 595159, Note_off_c, 0, 79, 41
1, 595203, Note_on_c, 0, 80, 28
1, 595207, Note_on_c, 0, 84, 56
1, 595260, Note_off_c, 0, 80, 44
1, 595393, Note_off_c, 0, 84, 62
1, 595450, Note_on_c, 0, 72, 44
1, 595523, Note_off_c, 0, 72, 53
1, 595617, Note_on_c, 0, 76, 27
1, 595683, Note_off_c, 0, 76, 38
1, 595734, Note_on_c, 0, 80, 68
1, 595753, Control_c, 0, 64, 110
1, 595767, Control_c, 0, 64, 100
1, 595779, Poly_aftertouch_c, 0, 77, 127
1, 595782, Control_c, 0, 64, 98
1, 595812, Control_c, 0, 64, 100
1, 595813, Poly_aftertouch_c, 0, 77, 0
1, 595827, Control_c, 0, 64, 108
1, 595841, Control_c, 0, 64, 127
1, 595850, Note_off_c, 0, 80, 59
1, 595899, Note_on_c, 0, 68, 37
1, 596001, Note_off_c, 0, 68, 55
1, 596022, Note_on_c, 0, 72, 50
1, 596149, Note_off_c, 0, 72, 58
1, 596172, Note_on_c, 0, 77, 67
1, 596175, Note_on_c, 0, 73, 48
1, 596183, Control_c, 0, 64, 101
1, 596198, Control_c, 0, 64, 87
1, 596213, Control_c, 0, 64, 81
1, 596227, Control_c, 0, 64, 79
1, 596242, Control_c, 0, 64, 79
1, 596257, Control_c, 0, 64, 83
1, 596264, Note_off_c, 0, 73, 33
1, 596272, Control_c, 0, 64, 88
1, 596288, Control_c, 0, 64, 99
1, 596295, Note_off_c, 0, 77, 59
1, 596303, Control_c, 0, 64, 110
1, 596317, Control_c, 0, 64, 127
1, 596338, Note_on_c, 0, 65, 52
1, 596408, Note_off_c, 0, 65, 55
1, 596480, Note_on_c, 0, 69, 48
1, 596599, Note_off_c, 0, 69, 62
1, 596606, Control_c, 0, 64, 88
1, 596614, Note_on_c, 0, 73, 66
1, 596621, Control_c, 0, 64, 67
1, 596631, Note_on_c, 0, 70, 43
1, 596636, Control_c, 0, 64, 0
1, 596680, Control_c, 0, 64, 51
1, 596695, Control_c, 0, 64, 66
1, 596696, Note_off_c, 0, 70, 50
1, 596710, Control_c, 0, 64, 75
1, 596724, Control_c, 0, 64, 87
1, 596739, Control_c, 0, 64, 109
1, 596745, Note_off_c, 0, 73, 61
1, 596754, Control_c, 0, 64, 127
1, 596765, Note_on_c, 0, 61, 53
1, 596891, Note_on_c, 0, 65, 57
1, 596953, Note_off_c, 0, 61, 35
1, 597024, Note_on_c, 0, 70, 71
1, 597054, Note_off_c, 0, 65, 57
1, 597058, Note_on_c, 0, 67, 52
1, 597065, Control_c, 0, 64, 98
1, 597080, Control_c, 0, 64, 80
1, 597096, Control_c, 0, 64, 68
1, 597111, Control_c, 0, 64, 64
1, 597126, Control_c, 0, 64, 65
1, 597140, Control_c, 0, 64, 71
1, 597155, Control_c, 0, 64, 77
1, 597165, Note_on_c, 0, 61, 48
1, 597170, Control_c, 0, 64, 87
1, 597184, Control_c, 0, 64, 99
1, 597199, Control_c, 0, 64, 122
1, 597222, Control_c, 0, 64, 127
1, 597276, Note_off_c, 0, 70, 52
1, 597278, Note_off_c, 0, 67, 55
1, 597292, Note_on_c, 0, 64, 53
1, 597309, Note_off_c, 0, 61, 56
1, 597338, Note_off_c, 0, 64, 56
1, 597445, Note_on_c, 0, 72, 66
1, 597448, Note_on_c, 0, 68, 51
1, 597473, Control_c, 0, 64, 98
1, 597488, Control_c, 0, 64, 78
1, 597503, Control_c, 0, 64, 63
1, 597518, Control_c, 0, 64, 0
1, 597561, Control_c, 0, 64, 46
1, 597576, Control_c, 0, 64, 63
1, 597588, Note_on_c, 0, 60, 39
1, 597590, Control_c, 0, 64, 68
1, 597605, Control_c, 0, 64, 74
1, 597620, Control_c, 0, 64, 83
1, 597635, Control_c, 0, 64, 94
1, 597636, Note_off_c, 0, 72, 53
1, 597650, Control_c, 0, 64, 106
1, 597664, Control_c, 0, 64, 127
1, 597669, Note_off_c, 0, 68, 57
1, 597699, Note_off_c, 0, 60, 57
1, 597714, Note_on_c, 0, 63, 49
1, 597741, Note_off_c, 0, 63, 61
1, 597903, Note_on_c, 0, 73, 65
1, 597943, Note_on_c, 0, 67, 29
1, 597947, Control_c, 0, 64, 100
1, 597969, Control_c, 0, 64, 83
1, 597984, Control_c, 0, 64, 72
1, 597999, Control_c, 0, 64, 64
1, 598013, Control_c, 0, 64, 63
1, 598028, Control_c, 0, 64, 65
1, 598043, Control_c, 0, 64, 68
1, 598050, Note_off_c, 0, 73, 61
1, 598058, Control_c, 0, 64, 73
1, 598073, Control_c, 0, 64, 78
1, 598087, Control_c, 0, 64, 86
1, 598102, Control_c, 0, 64, 97
1, 598117, Control_c, 0, 64, 109
1, 598132, Control_c, 0, 64, 127
1, 598150, Note_on_c, 0, 58, 46
1, 598175, Note_off_c, 0, 67, 42
1, 598280, Note_on_c, 0, 63, 50
1, 598294, Note_off_c, 0, 58, 37
1, 598413, Control_c, 0, 64, 100
1, 598415, Note_on_c, 0, 67, 51
1, 598420, Note_on_c, 0, 70, 66
1, 598428, Control_c, 0, 64, 83
1, 598438, Note_off_c, 0, 63, 38
1, 598443, Control_c, 0, 64, 72
1, 598458, Control_c, 0, 64, 67
1, 598473, Control_c, 0, 64, 70
1, 598487, Control_c, 0, 64, 75
1, 598502, Control_c, 0, 64, 82
1, 598517, Control_c, 0, 64, 92
1, 598531, Control_c, 0, 64, 105
1, 598546, Control_c, 0, 64, 127
1, 598562, Note_on_c, 0, 61, 54
1, 598623, Note_off_c, 0, 67, 54
1, 598660, Note_off_c, 0, 70, 57
1, 598676, Note_off_c, 0, 61, 58
1, 598683, Note_on_c, 0, 63, 45
1, 598727, Note_off_c, 0, 63, 62
1, 598833, Note_on_c, 0, 72, 66
1, 598836, Control_c, 0, 64, 93
1, 598838, Note_on_c, 0, 68, 55
1, 598851, Control_c, 0, 64, 74
1, 598866, Control_c, 0, 64, 64
1, 598881, Control_c, 0, 64, 61
1, 598896, Control_c, 0, 64, 63
1, 598910, Control_c, 0, 64, 67
1, 598925, Control_c, 0, 64, 72
1, 598940, Control_c, 0, 64, 80
1, 598955, Control_c, 0, 64, 94
1, 598969, Control_c, 0, 64, 113
1, 598974, Note_on_c, 0, 60, 44
1, 598984, Control_c, 0, 64, 127
1, 599043, Note_off_c, 0, 60, 51
1, 599058, Note_off_c, 0, 68, 60
1, 599252, Note_on_c, 0, 75, 77
1, 599263, Note_on_c, 0, 67, 64
1, 599296, Note_off_c, 0, 72, 59
1, 599296, Control_c, 0, 64, 100
1, 599311, Control_c, 0, 64, 80
1, 599313, Note_off_c, 0, 67, 54
1, 599326, Control_c, 0, 64, 63
1, 599341, Control_c, 0, 64, 14
1, 599355, Control_c, 0, 64, 0
1, 599385, Control_c, 0, 64, 14
1, 599400, Control_c, 0, 64, 49
1, 599403, Note_on_c, 0, 70, 60
1, 599415, Control_c, 0, 64, 63
1, 599429, Control_c, 0, 64, 71
1, 599444, Control_c, 0, 64, 80
1, 599466, Control_c, 0, 64, 94
1, 599481, Control_c, 0, 64, 127
1, 599518, Note_off_c, 0, 70, 57
1, 599535, Note_on_c, 0, 67, 52
1, 599559, Note_off_c, 0, 75, 60
1, 599566, Note_off_c, 0, 67, 54
1, 599586, Control_c, 0, 67, 127
1, 599600, Control_c, 0, 67, 126
1, 599645, Control_c, 0, 67, 127
1, 599660, Control_c, 0, 67, 127
1, 599694, Note_on_c, 0, 72, 49
1, 599697, Note_on_c, 0, 80, 80
1, 599735, Control_c, 0, 64, 95
1, 599749, Control_c, 0, 64, 77
1, 599764, Control_c, 0, 64, 64
1, 599779, Control_c, 0, 64, 59
1, 599793, Control_c, 0, 64, 63
1, 599803, Note_off_c, 0, 80, 62
1, 599808, Control_c, 0, 64, 68
1, 599815, Note_off_c, 0, 72, 58
1, 599823, Control_c, 0, 64, 75
1, 599838, Control_c, 0, 64, 85
1, 599853, Control_c, 0, 64, 101
1, 599857, Note_on_c, 0, 65, 57
1, 599867, Control_c, 0, 64, 127
1, 599926, Note_off_c, 0, 65, 60
1, 599966, Note_on_c, 0, 73, 67
1, 599991, Note_off_c, 0, 73, 67
1, 600144, Note_on_c, 0, 82, 76
1, 600149, Control_c, 0, 64, 106
1, 600156, Note_on_c, 0, 74, 47
1, 600164, Control_c, 0, 64, 82
1, 600178, Control_c, 0, 64, 64
1, 600193, Control_c, 0, 64, 39
1, 600215, Control_c, 0, 64, 45
1, 600230, Control_c, 0, 64, 61
1, 600245, Control_c, 0, 64, 67
1, 600247, Note_off_c, 0, 82, 64
1, 600259, Note_off_c, 0, 74, 64
1, 600259, Control_c, 0, 64, 73
1, 600274, Control_c, 0, 64, 83
1, 600290, Control_c, 0, 64, 99
1, 600305, Control_c, 0, 64, 124
1, 600320, Control_c, 0, 64, 127
1, 600352, Note_on_c, 0, 64, 49
1, 600396, Note_off_c, 0, 64, 60
1, 600495, Note_on_c, 0, 74, 61
1, 600526, Note_off_c, 0, 74, 67
1, 600689, Control_c, 0, 64, 91
1, 600696, Note_on_c, 0, 63, 56
1, 600704, Control_c, 0, 64, 70
1, 600719, Control_c, 0, 64, 32
1, 600733, Control_c, 0, 64, 0
1, 600763, Control_c, 0, 64, 34
1, 600772, Note_off_c, 0, 63, 60
1, 600778, Control_c, 0, 64, 63
1, 600793, Control_c, 0, 64, 70
1, 600803, Note_on_c, 0, 75, 54
1, 600808, Control_c, 0, 64, 80
1, 600823, Control_c, 0, 64, 95
1, 600831, Note_off_c, 0, 75, 65
1, 600837, Control_c, 0, 64, 127
1, 600983, Note_on_c, 0, 87, 75
1, 601022, Note_off_c, 0, 87, 59
1, 601317, Note_on_c, 0, 67, 37
1, 601481, Note_on_c, 0, 70, 51
1, 601541, Note_off_c, 0, 67, 35
1, 601615, Note_off_c, 0, 70, 62
1, 601640, Note_on_c, 0, 75, 50
1, 601668, Note_off_c, 0, 75, 63
1, 601811, Note_on_c, 0, 79, 51
1, 601914, Note_off_c, 0, 79, 57
1, 601976, Note_on_c, 0, 82, 48
1, 602095, Note_off_c, 0, 82, 60
1, 602107, Note_off_c, 0, 27, 44
1, 602155, Note_on_c, 0, 75, 47
1, 602230, Note_off_c, 0, 39, 41
1, 602281, Note_off_c, 0, 75, 54
1, 602323, Note_on_c, 0, 79, 34
1, 602484, Note_off_c, 0, 79, 41
1, 602519, Note_on_c, 0, 75, 33
1, 602997, Note_on_c, 0, 87, 49
1, 603026, Note_on_c, 0, 78, 34
1, 603035, Note_on_c, 0, 47, 24
1, 603038, Note_on_c, 0, 35, 24
1, 603040, Control_c, 0, 64, 108
1, 603055, Control_c, 0, 64, 99
1, 603070, Control_c, 0, 64, 91
1, 603085, Control_c, 0, 64, 85
1, 603100, Control_c, 0, 64, 78
1, 603103, Note_off_c, 0, 75, 46
1, 603115, Control_c, 0, 64, 72
1, 603129, Control_c, 0, 64, 65
1, 603144, Control_c, 0, 64, 61
1, 603159, Control_c, 0, 64, 60
1, 603174, Control_c, 0, 64, 58
1, 603189, Control_c, 0, 64, 53
1, 603210, Control_c, 0, 64, 43
1, 603225, Control_c, 0, 64, 0
1, 603321, Note_off_c, 0, 78, 51
1, 603344, Control_c, 0, 64, 41
1, 603352, Note_on_c, 0, 75, 33
1, 603359, Control_c, 0, 64, 57
1, 603374, Control_c, 0, 64, 62
1, 603389, Control_c, 0, 64, 65
1, 603404, Control_c, 0, 64, 67
1, 603418, Control_c, 0, 64, 70
1, 603433, Control_c, 0, 64, 74
1, 603448, Control_c, 0, 64, 78
1, 603463, Control_c, 0, 64, 83
1, 603479, Control_c, 0, 64, 87
1, 603487, Note_off_c, 0, 75, 54
1, 603493, Control_c, 0, 64, 91
1, 603508, Control_c, 0, 64, 95
1, 603521, Note_on_c, 0, 78, 42
1, 603523, Control_c, 0, 64, 100
1, 603538, Control_c, 0, 64, 105
1, 603553, Control_c, 0, 64, 112
1, 603567, Control_c, 0, 64, 127
1, 603654, Note_off_c, 0, 78, 44
1, 603672, Note_on_c, 0, 75, 35
1, 603787, Note_off_c, 0, 75, 37
1, 603821, Note_on_c, 0, 79, 42
1, 603846, Note_off_c, 0, 87, 38
1, 603928, Note_off_c, 0, 79, 53
1, 603994, Note_on_c, 0, 75, 39
1, 604191, Note_off_c, 0, 75, 54
1, 604227, Note_on_c, 0, 83, 54
1, 604271, Poly_aftertouch_c, 0, 80, 127
1, 604313, Poly_aftertouch_c, 0, 80, 0
1, 604402, Note_off_c, 0, 83, 58
1, 604450, Note_on_c, 0, 71, 45
1, 604507, Note_off_c, 0, 71, 54
1, 604587, Note_on_c, 0, 75, 45
1, 604692, Note_off_c, 0, 75, 51
1, 604719, Note_on_c, 0, 80, 65
1, 604739, Note_on_c, 0, 76, 45
1, 604811, Note_off_c, 0, 76, 53
1, 604829, Note_off_c, 0, 80, 56
1, 604892, Note_on_c, 0, 68, 34
1, 604993, Note_off_c, 0, 68, 51
1, 604999, Note_on_c, 0, 72, 53
1, 605103, Note_off_c, 0, 72, 48
1, 605127, Note_on_c, 0, 76, 72
1, 605139, Control_c, 0, 64, 101
1, 605153, Control_c, 0, 64, 86
1, 605159, Note_on_c, 0, 73, 30
1, 605168, Control_c, 0, 64, 78
1, 605183, Control_c, 0, 64, 76
1, 605195, Note_off_c, 0, 73, 53
1, 605198, Control_c, 0, 64, 78
1, 605212, Control_c, 0, 64, 83
1, 605227, Control_c, 0, 64, 92
1, 605228, Note_off_c, 0, 76, 54
1, 605242, Control_c, 0, 64, 102
1, 605257, Control_c, 0, 64, 116
1, 605272, Control_c, 0, 64, 127
1, 605286, Note_on_c, 0, 64, 49
1, 605392, Note_on_c, 0, 68, 53
1, 605460, Note_off_c, 0, 64, 32
1, 605527, Note_on_c, 0, 73, 69
1, 605530, Control_c, 0, 64, 99
1, 605532, Note_off_c, 0, 68, 56
1, 605538, Note_on_c, 0, 70, 55
1, 605545, Control_c, 0, 64, 82
1, 605560, Control_c, 0, 64, 70
1, 605575, Control_c, 0, 64, 64
1, 605590, Control_c, 0, 64, 65
1, 605604, Control_c, 0, 64, 69
1, 605619, Control_c, 0, 64, 74
1, 605634, Control_c, 0, 64, 82
1, 605649, Control_c, 0, 64, 92
1, 605664, Control_c, 0, 64, 105
1, 605669, Note_on_c, 0, 64, 43
1, 605678, Control_c, 0, 64, 127
1, 605701, Note_off_c, 0, 70, 47
1, 605754, Note_off_c, 0, 73, 58
1, 605785, Note_on_c, 0, 67, 50
1, 605869, Note_off_c, 0, 64, 34
1, 605900, Note_off_c, 0, 67, 58
1, 605917, Control_c, 0, 64, 123
1, 605919, Note_on_c, 0, 75, 66
1, 605930, Note_on_c, 0, 71, 50
1, 605932, Control_c, 0, 64, 90
1, 605947, Control_c, 0, 64, 74
1, 605962, Control_c, 0, 64, 63
1, 605977, Control_c, 0, 64, 56
1, 605991, Control_c, 0, 64, 60
1, 606006, Control_c, 0, 64, 65
1, 606021, Control_c, 0, 64, 70
1, 606036, Control_c, 0, 64, 77
1, 606051, Control_c, 0, 64, 87
1, 606066, Control_c, 0, 64, 101
1, 606067, Note_on_c, 0, 63, 52
1, 606081, Control_c, 0, 64, 127
1, 606102, Note_off_c, 0, 71, 37
1, 606132, Note_off_c, 0, 75, 55
1, 606168, Note_off_c, 0, 63, 48
1, 606204, Note_on_c, 0, 68, 44
1, 606245, Note_off_c, 0, 68, 59
1, 606375, Note_on_c, 0, 76, 62
1, 606377, Note_on_c, 0, 73, 50
1, 606384, Control_c, 0, 64, 95
1, 606399, Control_c, 0, 64, 78
1, 606414, Control_c, 0, 64, 65
1, 606428, Control_c, 0, 64, 43
1, 606443, Control_c, 0, 64, 36
1, 606458, Control_c, 0, 64, 43
1, 606473, Control_c, 0, 64, 54
1, 606480, Note_off_c, 0, 76, 55
1, 606488, Control_c, 0, 64, 63
1, 606502, Control_c, 0, 64, 67
1, 606517, Control_c, 0, 64, 72
1, 606532, Control_c, 0, 64, 79
1, 606546, Control_c, 0, 64, 87
1, 606561, Control_c, 0, 64, 100
1, 606563, Note_off_c, 0, 73, 59
1, 606576, Control_c, 0, 64, 114
1, 606591, Control_c, 0, 64, 127
1, 606609, Note_on_c, 0, 61, 43
1, 606749, Note_on_c, 0, 67, 51
1, 606768, Note_off_c, 0, 61, 41
1, 606855, Note_off_c, 0, 67, 59
1, 606871, Note_on_c, 0, 73, 64
1, 606874, Note_on_c, 0, 70, 50
1, 606904, Control_c, 0, 64, 117
1, 606918, Control_c, 0, 64, 92
1, 606933, Control_c, 0, 64, 77
1, 606955, Control_c, 0, 64, 69
1, 606970, Control_c, 0, 64, 68
1, 606984, Control_c, 0, 64, 70
1, 606999, Control_c, 0, 64, 75
1, 607005, Note_on_c, 0, 64, 51
1, 607014, Note_off_c, 0, 70, 56
1, 607014, Control_c, 0, 64, 83
1, 607029, Control_c, 0, 64, 95
1, 607044, Control_c, 0, 64, 108
1, 607059, Control_c, 0, 64, 127
1, 607088, Note_off_c, 0, 73, 54
1, 607129, Note_on_c, 0, 67, 56
1, 607134, Note_off_c, 0, 64, 57
1, 607229, Note_off_c, 0, 67, 59
1, 607252, Note_on_c, 0, 70, 31
1, 607256, Note_on_c, 0, 75, 72
1, 607281, Control_c, 0, 64, 106
1, 607287, Note_on_c, 0, 71, 55
1, 607292, Note_off_c, 0, 70, 50
1, 607296, Control_c, 0, 64, 86
1, 607310, Control_c, 0, 64, 72
1, 607325, Control_c, 0, 64, 66
1, 607340, Control_c, 0, 64, 67
1, 607355, Control_c, 0, 64, 71
1, 607369, Control_c, 0, 64, 78
1, 607384, Control_c, 0, 64, 88
1, 607393, Note_off_c, 0, 47, 56
1, 607399, Control_c, 0, 64, 101
1, 607400, Note_on_c, 0, 63, 47
1, 607414, Control_c, 0, 64, 127
1, 607466, Note_off_c, 0, 63, 46
1, 607473, Note_off_c, 0, 71, 62
1, 607492, Note_off_c, 0, 75, 59
1, 607518, Note_on_c, 0, 66, 37
1, 607550, Note_off_c, 0, 66, 52
1, 607665, Note_on_c, 0, 79, 75
1, 607668, Note_on_c, 0, 46, 43
1, 607670, Note_on_c, 0, 34, 47
1, 607677, Note_on_c, 0, 73, 63
1, 607704, Control_c, 0, 64, 90
1, 607719, Control_c, 0, 64, 76
1, 607733, Note_off_c, 0, 35, 43
1, 607733, Control_c, 0, 64, 67
1, 607748, Control_c, 0, 64, 64
1, 607759, Note_off_c, 0, 73, 54
1, 607763, Control_c, 0, 64, 66
1, 607778, Control_c, 0, 64, 71
1, 607793, Control_c, 0, 64, 79
1, 607807, Control_c, 0, 64, 89
1, 607822, Note_on_c, 0, 76, 59
1, 607822, Control_c, 0, 64, 103
1, 607837, Control_c, 0, 64, 127
1, 607920, Note_off_c, 0, 76, 60
1, 607924, Note_on_c, 0, 73, 64
1, 607937, Note_off_c, 0, 46, 50
1, 607952, Note_off_c, 0, 73, 66
1, 607974, Note_off_c, 0, 79, 62
1, 608099, Note_off_c, 0, 34, 53
1, 608103, Note_on_c, 0, 80, 74
1, 608116, Note_on_c, 0, 32, 47
1, 608119, Control_c, 0, 64, 103
1, 608129, Note_on_c, 0, 44, 42
1, 608129, Note_on_c, 0, 71, 50
1, 608133, Control_c, 0, 64, 82
1, 608148, Control_c, 0, 64, 67
1, 608163, Control_c, 0, 64, 51
1, 608178, Control_c, 0, 64, 43
1, 608193, Control_c, 0, 64, 50
1, 608207, Control_c, 0, 64, 60
1, 608222, Control_c, 0, 64, 65
1, 608237, Control_c, 0, 64, 70
1, 608252, Control_c, 0, 64, 76
1, 608268, Control_c, 0, 64, 87
1, 608273, Note_on_c, 0, 75, 63
1, 608283, Control_c, 0, 64, 101
1, 608297, Control_c, 0, 64, 127
1, 608327, Control_c, 0, 67, 126
1, 608341, Control_c, 0, 67, 124
1, 608353, Note_off_c, 0, 71, 63
1, 608356, Control_c, 0, 67, 120
1, 608371, Control_c, 0, 67, 114
1, 608373, Note_on_c, 0, 82, 88
1, 608385, Note_off_c, 0, 44, 62
1, 608386, Control_c, 0, 67, 104
1, 608401, Control_c, 0, 67, 94
1, 608415, Control_c, 0, 67, 85
1, 608430, Control_c, 0, 67, 76
1, 608453, Control_c, 0, 67, 69
1, 608463, Note_off_c, 0, 80, 58
1, 608468, Control_c, 0, 67, 65
1, 608481, Note_off_c, 0, 75, 33
1, 608483, Control_c, 0, 67, 62
1, 608497, Note_on_c, 0, 71, 59
1, 608497, Control_c, 0, 67, 60
1, 608512, Control_c, 0, 67, 60
1, 608513, Note_off_c, 0, 82, 62
1, 608552, Note_off_c, 0, 71, 61
1, 608623, Note_on_c, 0, 83, 78
1, 608635, Note_on_c, 0, 28, 54
1, 608645, Control_c, 0, 64, 94
1, 608647, Note_on_c, 0, 80, 60
1, 608653, Note_on_c, 0, 40, 46
1, 608654, Note_off_c, 0, 32, 41
1, 608660, Control_c, 0, 64, 74
1, 608675, Control_c, 0, 64, 61
1, 608690, Control_c, 0, 64, 38
1, 608704, Control_c, 0, 64, 42
1, 608719, Control_c, 0, 64, 56
1, 608734, Control_c, 0, 64, 64
1, 608749, Control_c, 0, 64, 72
1, 608764, Control_c, 0, 64, 80
1, 608779, Control_c, 0, 64, 94
1, 608786, Note_off_c, 0, 83, 62
1, 608793, Control_c, 0, 64, 114
1, 608805, Note_off_c, 0, 80, 58
1, 608808, Control_c, 0, 64, 127
1, 608809, Note_on_c, 0, 71, 60
1, 608836, Note_off_c, 0, 71, 69
1, 608915, Note_on_c, 0, 85, 84
1, 608922, Note_off_c, 0, 40, 59
1, 608927, Control_c, 0, 67, 60
1, 608940, Note_off_c, 0, 28, 35
1, 608956, Control_c, 0, 67, 61
1, 608986, Control_c, 0, 67, 61
1, 609001, Control_c, 0, 67, 62
1, 609024, Note_on_c, 0, 80, 64
1, 609030, Control_c, 0, 67, 62
1, 609042, Note_off_c, 0, 85, 61
1, 609045, Control_c, 0, 67, 63
1, 609050, Note_off_c, 0, 80, 66
1, 609076, Control_c, 0, 67, 63
1, 609106, Control_c, 0, 67, 64
1, 609150, Control_c, 0, 67, 64
1, 609179, Control_c, 0, 67, 65
1, 609202, Control_c, 0, 67, 65
1, 609220, Note_on_c, 0, 39, 48
1, 609223, Note_on_c, 0, 27, 49
1, 609232, Control_c, 0, 67, 66
1, 609246, Control_c, 0, 67, 66
1, 609270, Note_on_c, 0, 72, 55
1, 609276, Control_c, 0, 67, 67
1, 609291, Control_c, 0, 64, 99
1, 609306, Control_c, 0, 64, 78
1, 609320, Control_c, 0, 64, 61
1, 609334, Note_off_c, 0, 72, 55
1, 609335, Control_c, 0, 64, 14
1, 609338, Note_on_c, 0, 80, 59
1, 609350, Control_c, 0, 64, 0
1, 609365, Control_c, 0, 64, 17
1, 609379, Control_c, 0, 64, 42
1, 609379, Control_c, 0, 67, 66
1, 609394, Control_c, 0, 64, 58
1, 609395, Note_on_c, 0, 84, 64
1, 609409, Control_c, 0, 64, 65
1, 609424, Control_c, 0, 64, 70
1, 609439, Control_c, 0, 64, 77
1, 609453, Control_c, 0, 64, 88
1, 609453, Control_c, 0, 67, 66
1, 609468, Control_c, 0, 64, 103
1, 609483, Control_c, 0, 64, 127
1, 609493, Note_on_c, 0, 87, 83
1, 609497, Control_c, 0, 67, 65
1, 609517, Note_off_c, 0, 27, 40
1, 609543, Note_off_c, 0, 39, 57
1, 609795, Note_on_c, 0, 51, 44
1, 609980, Note_on_c, 0, 60, 49
1, 610128, Note_on_c, 0, 63, 53
1, 610144, Note_off_c, 0, 60, 56
1, 610269, Note_on_c, 0, 60, 55
1, 610284, Note_off_c, 0, 51, 55
1, 610361, Note_off_c, 0, 63, 38
1, 610406, Note_on_c, 0, 51, 62
1, 610542, Control_c, 0, 67, 66
1, 610543, Note_off_c, 0, 60, 61
1, 610555, Note_on_c, 0, 63, 65
1, 610580, Note_off_c, 0, 84, 54
1, 610615, Note_off_c, 0, 80, 36
1, 610616, Control_c, 0, 67, 66
1, 610677, Note_off_c, 0, 87, 65
1, 610696, Note_off_c, 0, 51, 62
1, 610704, Note_on_c, 0, 60, 61
1, 610753, Note_off_c, 0, 63, 56
1, 610823, Note_off_c, 0, 60, 62
1, 610838, Note_on_c, 0, 51, 66
1, 610847, Control_c, 0, 67, 66
1, 610862, Control_c, 0, 67, 65
1, 610865, Note_off_c, 0, 51, 66
1, 610877, Control_c, 0, 67, 65
1, 610892, Control_c, 0, 67, 64
1, 610906, Control_c, 0, 67, 63
1, 610921, Control_c, 0, 67, 62
1, 610936, Control_c, 0, 67, 62
1, 610950, Control_c, 0, 67, 61
1, 610965, Control_c, 0, 67, 60
1, 610980, Control_c, 0, 67, 60
1, 610995, Control_c, 0, 67, 59
1, 611004, Note_on_c, 0, 84, 78
1, 611009, Note_on_c, 0, 51, 49
1, 611010, Control_c, 0, 67, 58
1, 611017, Note_on_c, 0, 80, 62
1, 611023, Control_c, 0, 67, 57
1, 611026, Note_on_c, 0, 72, 58
1, 611038, Control_c, 0, 67, 53
1, 611053, Control_c, 0, 67, 48
1, 611068, Control_c, 0, 67, 43
1, 611083, Control_c, 0, 67, 36
1, 611098, Control_c, 0, 67, 29
1, 611113, Control_c, 0, 67, 22
1, 611128, Control_c, 0, 67, 15
1, 611142, Control_c, 0, 67, 0
1, 611157, Note_off_c, 0, 80, 63
1, 611159, Note_on_c, 0, 48, 62
1, 611164, Note_off_c, 0, 72, 61
1, 611196, Note_off_c, 0, 84, 64
1, 611214, Note_off_c, 0, 51, 44
1, 611280, Note_off_c, 0, 48, 62
1, 611288, Note_on_c, 0, 39, 66
1, 611322, Note_off_c, 0, 39, 62
1, 611460, Note_on_c, 0, 72, 59
1, 611515, Note_on_c, 0, 27, 50
1, 611533, Note_on_c, 0, 81, 63
1, 611560, Note_off_c, 0, 72, 38
1, 611569, Note_on_c, 0, 84, 67
1, 611580, Control_c, 0, 64, 96
1, 611595, Control_c, 0, 64, 76
1, 611610, Control_c, 0, 64, 65
1, 611625, Control_c, 0, 64, 63
1, 611640, Control_c, 0, 64, 65
1, 611654, Control_c, 0, 64, 68
1, 611669, Control_c, 0, 64, 73
1, 611670, Note_on_c, 0, 87, 82
1, 611684, Control_c, 0, 64, 80
1, 611698, Control_c, 0, 64, 95
1, 611713, Control_c, 0, 64, 117
1, 611717, Note_off_c, 0, 27, 61
1, 611728, Control_c, 0, 64, 127
1, 611963, Note_on_c, 0, 51, 47
1, 612132, Note_on_c, 0, 60, 49
1, 612285, Control_c, 0, 67, 8
1, 612299, Note_off_c, 0, 60, 58
1, 612300, Control_c, 0, 67, 9
1, 612307, Note_on_c, 0, 63, 49
1, 612314, Control_c, 0, 67, 10
1, 612329, Control_c, 0, 67, 11
1, 612344, Control_c, 0, 67, 12
1, 612359, Control_c, 0, 67, 14
1, 612374, Control_c, 0, 67, 16
1, 612388, Control_c, 0, 67, 18
1, 612403, Control_c, 0, 67, 21
1, 612418, Control_c, 0, 67, 26
1, 612433, Control_c, 0, 67, 32
1, 612445, Note_on_c, 0, 60, 44
1, 612448, Control_c, 0, 67, 37
1, 612451, Note_off_c, 0, 51, 53
1, 612463, Control_c, 0, 67, 42
1, 612469, Note_off_c, 0, 63, 38
1, 612478, Control_c, 0, 67, 47
1, 612493, Control_c, 0, 67, 51
1, 612508, Control_c, 0, 67, 55
1, 612522, Control_c, 0, 67, 58
1, 612537, Control_c, 0, 67, 62
1, 612552, Control_c, 0, 67, 65
1, 612560, Note_off_c, 0, 87, 60
1, 612567, Control_c, 0, 67, 69
1, 612582, Control_c, 0, 67, 73
1, 612594, Note_on_c, 0, 51, 45
1, 612596, Control_c, 0, 67, 76
1, 612611, Control_c, 0, 67, 79
1, 612624, Note_off_c, 0, 84, 49
1, 612626, Control_c, 0, 67, 82
1, 612641, Control_c, 0, 67, 85
1, 612644, Note_off_c, 0, 81, 53
1, 612656, Control_c, 0, 67, 88
1, 612670, Control_c, 0, 67, 90
1, 612685, Control_c, 0, 67, 92
1, 612700, Control_c, 0, 67, 93
1, 612714, Control_c, 0, 67, 94
1, 612719, Note_off_c, 0, 60, 28
1, 612729, Control_c, 0, 67, 95
1, 612744, Note_on_c, 0, 63, 49
1, 612744, Control_c, 0, 67, 96
1, 612759, Control_c, 0, 67, 97
1, 612774, Control_c, 0, 67, 98
1, 612788, Control_c, 0, 67, 98
1, 612803, Control_c, 0, 67, 100
1, 612818, Control_c, 0, 67, 101
1, 612833, Control_c, 0, 67, 102
1, 612848, Control_c, 0, 67, 103
1, 612862, Control_c, 0, 67, 104
1, 612877, Control_c, 0, 67, 106
1, 612892, Control_c, 0, 67, 108
1, 612898, Note_off_c, 0, 51, 43
1, 612907, Control_c, 0, 67, 110
1, 612912, Note_off_c, 0, 63, 51
1, 612922, Control_c, 0, 67, 112
1, 612943, Note_on_c, 0, 60, 45
1, 612944, Control_c, 0, 67, 114
1, 612959, Control_c, 0, 67, 116
1, 612974, Control_c, 0, 67, 119
1, 612989, Control_c, 0, 67, 121
1, 613003, Control_c, 0, 67, 124
1, 613018, Control_c, 0, 67, 126
1, 613032, Note_off_c, 0, 60, 59
1, 613033, Control_c, 0, 67, 127
1, 613065, Note_on_c, 0, 51, 51
1, 613095, Note_off_c, 0, 51, 65
1, 613256, Note_on_c, 0, 82, 61
1, 613259, Note_on_c, 0, 51, 51
1, 613260, Note_on_c, 0, 79, 54
1, 613262, Note_on_c, 0, 70, 46
1, 613301, Control_c, 0, 64, 103
1, 613316, Control_c, 0, 64, 86
1, 613330, Control_c, 0, 64, 73
1, 613345, Control_c, 0, 64, 63
1, 613360, Control_c, 0, 64, 56
1, 613375, Control_c, 0, 64, 58
1, 613390, Control_c, 0, 64, 62
1, 613405, Control_c, 0, 64, 65
1, 613419, Control_c, 0, 64, 68
1, 613427, Note_on_c, 0, 49, 47
1, 613434, Control_c, 0, 64, 73
1, 613449, Control_c, 0, 64, 78
1, 613453, Note_off_c, 0, 51, 40
1, 613463, Control_c, 0, 64, 84
1, 613478, Control_c, 0, 64, 91
1, 613493, Control_c, 0, 64, 102
1, 613508, Control_c, 0, 64, 113
1, 613513, Note_off_c, 0, 79, 55
1, 613523, Note_off_c, 0, 70, 60
1, 613523, Control_c, 0, 64, 127
1, 613537, Note_off_c, 0, 82, 46
1, 613560, Note_off_c, 0, 49, 58
1, 613573, Note_on_c, 0, 39, 50
1, 613619, Note_off_c, 0, 39, 58
1, 613838, Note_on_c, 0, 44, 45
1, 613847, Note_on_c, 0, 68, 50
1, 613900, Note_off_c, 0, 68, 57
1, 613916, Control_c, 0, 64, 105
1, 613930, Note_on_c, 0, 75, 50
1, 613931, Control_c, 0, 64, 85
1, 613946, Control_c, 0, 64, 70
1, 613960, Control_c, 0, 64, 58
1, 613975, Control_c, 0, 64, 47
1, 613977, Note_on_c, 0, 80, 52
1, 613990, Control_c, 0, 64, 48
1, 614005, Control_c, 0, 64, 52
1, 614020, Control_c, 0, 64, 59
1, 614034, Control_c, 0, 64, 64
1, 614049, Control_c, 0, 64, 68
1, 614064, Control_c, 0, 64, 73
1, 614066, Note_on_c, 0, 84, 58
1, 614079, Control_c, 0, 64, 79
1, 614094, Control_c, 0, 64, 87
1, 614108, Control_c, 0, 64, 94
1, 614123, Control_c, 0, 64, 102
1, 614138, Control_c, 0, 64, 109
1, 614153, Control_c, 0, 64, 119
1, 614167, Note_off_c, 0, 44, 37
1, 614168, Control_c, 0, 64, 127
1, 614246, Note_on_c, 0, 43, 33
1, 614427, Note_on_c, 0, 44, 42
1, 614437, Note_off_c, 0, 43, 39
1, 614484, Note_off_c, 0, 44, 54
1, 614579, Note_on_c, 0, 43, 39
1, 614723, Note_on_c, 0, 44, 43
1, 614738, Note_off_c, 0, 43, 38
1, 614767, Note_off_c, 0, 84, 36
1, 614767, Note_off_c, 0, 44, 54
1, 614868, Note_on_c, 0, 43, 41
1, 614873, Note_off_c, 0, 80, 52
1, 614948, Note_off_c, 0, 75, 37
1, 615011, Note_off_c, 0, 43, 51
1, 615024, Note_on_c, 0, 44, 43
1, 615070, Note_off_c, 0, 44, 54
1, 615170, Note_on_c, 0, 43, 33
1, 615320, Note_off_c, 0, 43, 41
1, 615325, Note_on_c, 0, 44, 41
1, 615384, Note_off_c, 0, 44, 49
1, 615499, Note_on_c, 0, 72, 53
1, 615499, Note_on_c, 0, 75, 58
1, 615515, Note_on_c, 0, 43, 24
1, 615657, Note_on_c, 0, 44, 43
1, 615669, Note_off_c, 0, 43, 39
1, 615682, Note_off_c, 0, 72, 57
1, 615698, Note_off_c, 0, 75, 55
1, 615716, Note_off_c, 0, 44, 50
1, 615802, Note_on_c, 0, 43, 42
1, 616011, Note_off_c, 0, 43, 58
1, 616028, Note_on_c, 0, 44, 43
1, 616052, Note_on_c, 0, 64, 46
1, 616058, Control_c, 0, 64, 106
1, 616073, Control_c, 0, 64, 96
1, 616088, Control_c, 0, 64, 91
1, 616103, Control_c, 0, 64, 90
1, 616129, Note_on_c, 0, 68, 53
1, 616147, Note_off_c, 0, 64, 58
1, 616162, Control_c, 0, 64, 92
1, 616177, Control_c, 0, 64, 96
1, 616192, Control_c, 0, 64, 104
1, 616199, Note_off_c, 0, 68, 61
1, 616203, Note_on_c, 0, 73, 60
1, 616207, Control_c, 0, 64, 114
1, 616221, Control_c, 0, 64, 127
1, 616228, Note_off_c, 0, 73, 65
1, 616308, Note_on_c, 0, 80, 65
1, 616367, Note_off_c, 0, 44, 37
1, 616472, Note_on_c, 0, 43, 36
1, 616613, Note_on_c, 0, 44, 43
1, 616625, Note_off_c, 0, 43, 37
1, 616663, Note_off_c, 0, 44, 53
1, 616770, Note_on_c, 0, 43, 38
1, 616916, Note_on_c, 0, 44, 44
1, 616923, Note_off_c, 0, 43, 38
1, 616950, Note_off_c, 0, 80, 60
1, 616968, Note_off_c, 0, 44, 51
1, 617066, Note_on_c, 0, 43, 38
1, 617219, Note_off_c, 0, 43, 46
1, 617220, Note_on_c, 0, 44, 47
1, 617278, Note_off_c, 0, 44, 53
1, 617379, Note_on_c, 0, 43, 34
1, 617548, Note_off_c, 0, 43, 34
1, 617554, Note_on_c, 0, 44, 40
1, 617594, Note_off_c, 0, 44, 48
1, 617724, Note_on_c, 0, 43, 32
1, 617727, Note_on_c, 0, 70, 54
1, 617733, Note_on_c, 0, 61, 42
1, 617736, Note_on_c, 0, 67, 48
1, 617742, Note_on_c, 0, 64, 41
1, 617763, Control_c, 0, 64, 101
1, 617778, Control_c, 0, 64, 86
1, 617793, Control_c, 0, 64, 78
1, 617808, Control_c, 0, 64, 71
1, 617823, Control_c, 0, 64, 68
1, 617837, Control_c, 0, 64, 69
1, 617853, Control_c, 0, 64, 70
1, 617868, Control_c, 0, 64, 73
1, 617879, Note_off_c, 0, 43, 51
1, 617882, Control_c, 0, 64, 76
1, 617891, Note_on_c, 0, 44, 36
1, 617897, Control_c, 0, 64, 79
1, 617912, Control_c, 0, 64, 83
1, 617927, Control_c, 0, 64, 86
1, 617941, Note_off_c, 0, 44, 45
1, 617942, Control_c, 0, 64, 90
1, 617957, Control_c, 0, 64, 97
1, 617972, Control_c, 0, 64, 104
1, 617974, Note_off_c, 0, 67, 54
1, 617986, Note_off_c, 0, 64, 62
1, 617987, Control_c, 0, 64, 115
1, 618001, Control_c, 0, 64, 127
1, 618019, Note_off_c, 0, 70, 61
1, 618021, Note_off_c, 0, 61, 44
1, 618054, Note_on_c, 0, 43, 39
1, 618228, Note_off_c, 0, 43, 58
1, 618251, Note_on_c, 0, 44, 44
1, 618305, Note_on_c, 0, 60, 45
1, 618305, Control_c, 0, 64, 102
1, 618320, Control_c, 0, 64, 86
1, 618334, Control_c, 0, 64, 75
1, 618349, Control_c, 0, 64, 67
1, 618364, Control_c, 0, 64, 66
1, 618379, Control_c, 0, 64, 68
1, 618383, Note_on_c, 0, 63, 45
1, 618394, Control_c, 0, 64, 70
1, 618408, Control_c, 0, 64, 73
1, 618422, Note_off_c, 0, 60, 54
1, 618423, Control_c, 0, 64, 77
1, 618438, Control_c, 0, 64, 82
1, 618453, Control_c, 0, 64, 86
1, 618461, Note_off_c, 0, 63, 61
1, 618461, Note_on_c, 0, 68, 51
1, 618467, Control_c, 0, 64, 89
1, 618482, Control_c, 0, 64, 93
1, 618492, Note_off_c, 0, 68, 64
1, 618497, Control_c, 0, 64, 97
1, 618513, Control_c, 0, 64, 102
1, 618527, Control_c, 0, 64, 108
1, 618542, Control_c, 0, 64, 116
1, 618552, Note_off_c, 0, 44, 29
1, 618557, Control_c, 0, 64, 127
1, 618585, Note_on_c, 0, 75, 52
1, 618721, Note_on_c, 0, 43, 38
1, 618873, Note_on_c, 0, 44, 43
1, 618875, Note_off_c, 0, 43, 44
1, 618934, Note_off_c, 0, 44, 52
1, 619046, Note_on_c, 0, 43, 43
1, 619194, Note_off_c, 0, 43, 44
1, 619201, Note_on_c, 0, 44, 39
1, 619257, Note_off_c, 0, 44, 46
1, 619274, Note_off_c, 0, 75, 49
1, 619348, Note_on_c, 0, 43, 38
1, 619488, Note_off_c, 0, 43, 53
1, 619496, Note_on_c, 0, 44, 49
1, 619513, Control_c, 0, 67, 126
1, 619528, Control_c, 0, 67, 122
1, 619541, Note_off_c, 0, 44, 56
1, 619543, Control_c, 0, 67, 117
1, 619558, Control_c, 0, 67, 110
1, 619572, Control_c, 0, 67, 103
1, 619587, Control_c, 0, 67, 96
1, 619602, Control_c, 0, 67, 90
1, 619617, Control_c, 0, 67, 85
1, 619632, Control_c, 0, 67, 81
1, 619644, Note_on_c, 0, 43, 44
1, 619647, Control_c, 0, 67, 78
1, 619662, Control_c, 0, 67, 77
1, 619699, Control_c, 0, 67, 76
1, 619728, Control_c, 0, 67, 77
1, 619743, Control_c, 0, 67, 78
1, 619758, Control_c, 0, 67, 78
1, 619773, Control_c, 0, 67, 79
1, 619775, Note_off_c, 0, 43, 48
1, 619787, Control_c, 0, 67, 80
1, 619793, Note_on_c, 0, 44, 47
1, 619802, Control_c, 0, 67, 81
1, 619817, Control_c, 0, 67, 81
1, 619832, Control_c, 0, 67, 82
1, 619832, Note_off_c, 0, 44, 50
1, 619847, Control_c, 0, 67, 82
1, 619862, Control_c, 0, 67, 83
1, 619876, Control_c, 0, 67, 84
1, 619891, Control_c, 0, 67, 84
1, 619906, Control_c, 0, 67, 85
1, 619921, Control_c, 0, 67, 86
1, 619936, Control_c, 0, 67, 86
1, 619964, Note_on_c, 0, 43, 27
1, 619966, Control_c, 0, 67, 87
1, 619966, Note_on_c, 0, 60, 53
1, 619967, Note_on_c, 0, 63, 61
1, 619980, Control_c, 0, 67, 87
1, 619995, Control_c, 0, 64, 102
1, 619995, Control_c, 0, 67, 88
1, 620010, Control_c, 0, 64, 85
1, 620025, Control_c, 0, 64, 72
1, 620025, Control_c, 0, 67, 88
1, 620039, Control_c, 0, 64, 64
1, 620054, Control_c, 0, 64, 61
1, 620054, Control_c, 0, 67, 89
1, 620069, Control_c, 0, 64, 62
1, 620084, Control_c, 0, 64, 65
1, 620099, Control_c, 0, 64, 68
1, 620099, Control_c, 0, 67, 89
1, 620113, Control_c, 0, 64, 72
1, 620115, Note_on_c, 0, 44, 47
1, 620126, Note_off_c, 0, 43, 45
1, 620128, Control_c, 0, 64, 78
1, 620143, Control_c, 0, 64, 87
1, 620143, Control_c, 0, 67, 90
1, 620158, Control_c, 0, 64, 97
1, 620173, Control_c, 0, 64, 109
1, 620173, Control_c, 0, 67, 90
1, 620179, Note_off_c, 0, 44, 51
1, 620187, Control_c, 0, 64, 127
1, 620187, Control_c, 0, 67, 91
1, 620202, Control_c, 0, 67, 91
1, 620217, Control_c, 0, 67, 92
1, 620218, Note_off_c, 0, 60, 61
1, 620231, Control_c, 0, 67, 92
1, 620240, Note_off_c, 0, 63, 59
1, 620246, Control_c, 0, 67, 93
1, 620262, Control_c, 0, 67, 94
1, 620277, Control_c, 0, 67, 94
1, 620283, Note_on_c, 0, 43, 46
1, 620292, Control_c, 0, 67, 95
1, 620307, Control_c, 0, 67, 96
1, 620321, Control_c, 0, 67, 96
1, 620336, Control_c, 0, 67, 97
1, 620351, Control_c, 0, 67, 98
1, 620366, Control_c, 0, 67, 98
1, 620381, Control_c, 0, 67, 99
1, 620395, Control_c, 0, 67, 100
1, 620410, Control_c, 0, 67, 101
1, 620433, Control_c, 0, 67, 102
1, 620448, Control_c, 0, 67, 102
1, 620462, Control_c, 0, 67, 104
1, 620477, Control_c, 0, 67, 105
1, 620492, Control_c, 0, 67, 106
1, 620498, Note_off_c, 0, 43, 58
1, 620505, Note_on_c, 0, 44, 48
1, 620507, Control_c, 0, 67, 107
1, 620522, Control_c, 0, 67, 109
1, 620536, Control_c, 0, 67, 110
1, 620551, Control_c, 0, 64, 98
1, 620551, Control_c, 0, 67, 111
1, 620566, Control_c, 0, 64, 82
1, 620566, Control_c, 0, 67, 113
1, 620581, Control_c, 0, 64, 71
1, 620581, Control_c, 0, 67, 114
1, 620586, Note_on_c, 0, 52, 50
1, 620596, Control_c, 0, 64, 65
1, 620596, Control_c, 0, 67, 115
1, 620610, Control_c, 0, 64, 64
1, 620610, Control_c, 0, 67, 117
1, 620625, Control_c, 0, 64, 65
1, 620625, Control_c, 0, 67, 118
1, 620640, Control_c, 0, 64, 67
1, 620640, Control_c, 0, 67, 120
1, 620654, Control_c, 0, 64, 70
1, 620654, Control_c, 0, 67, 122
1, 620668, Note_on_c, 0, 56, 57
1, 620669, Control_c, 0, 64, 74
1, 620669, Control_c, 0, 67, 123
1, 620684, Control_c, 0, 64, 77
1, 620684, Control_c, 0, 67, 124
1, 620688, Note_off_c, 0, 52, 60
1, 620699, Control_c, 0, 64, 81
1, 620699, Control_c, 0, 67, 125
1, 620714, Control_c, 0, 64, 84
1, 620714, Control_c, 0, 67, 126
1, 620729, Control_c, 0, 64, 88
1, 620729, Control_c, 0, 67, 127
1, 620744, Control_c, 0, 64, 93
1, 620744, Control_c, 0, 67, 127
1, 620746, Note_on_c, 0, 61, 61
1, 620747, Note_off_c, 0, 56, 62
1, 620759, Control_c, 0, 64, 98
1, 620774, Control_c, 0, 64, 103
1, 620778, Note_off_c, 0, 61, 64
1, 620789, Control_c, 0, 64, 109
1, 620803, Control_c, 0, 64, 118
1, 620818, Control_c, 0, 64, 127
1, 620818, Note_off_c, 0, 44, 32
1, 620892, Note_on_c, 0, 68, 59
1, 621048, Note_on_c, 0, 43, 38
1, 621228, Note_on_c, 0, 44, 44
1, 621236, Note_off_c, 0, 43, 39
1, 621276, Note_off_c, 0, 44, 55
1, 621372, Note_on_c, 0, 43, 43
1, 621419, Control_c, 0, 64, 115
1, 621433, Control_c, 0, 64, 101
1, 621448, Control_c, 0, 64, 93
1, 621463, Control_c, 0, 64, 90
1, 621477, Control_c, 0, 64, 89
1, 621492, Control_c, 0, 64, 89
1, 621523, Control_c, 0, 64, 90
1, 621529, Note_off_c, 0, 43, 53
1, 621538, Control_c, 0, 64, 92
1, 621540, Note_on_c, 0, 44, 39
1, 621552, Control_c, 0, 64, 95
1, 621567, Control_c, 0, 64, 97
1, 621579, Note_off_c, 0, 44, 49
1, 621582, Control_c, 0, 64, 99
1, 621597, Control_c, 0, 64, 101
1, 621612, Control_c, 0, 64, 102
1, 621626, Control_c, 0, 64, 103
1, 621641, Control_c, 0, 64, 104
1, 621656, Control_c, 0, 64, 105
1, 621671, Control_c, 0, 64, 107
1, 621683, Note_off_c, 0, 68, 57
1, 621686, Control_c, 0, 64, 110
1, 621688, Note_on_c, 0, 43, 41
1, 621701, Control_c, 0, 64, 113
1, 621716, Control_c, 0, 64, 117
1, 621731, Control_c, 0, 64, 124
1, 621745, Control_c, 0, 64, 127
1, 621839, Note_off_c, 0, 43, 60
1, 621857, Note_on_c, 0, 44, 48
1, 621906, Note_off_c, 0, 44, 53
1, 622028, Note_on_c, 0, 43, 39
1, 622154, Note_off_c, 0, 43, 57
1, 622184, Note_on_c, 0, 44, 43
1, 622229, Note_off_c, 0, 44, 50
1, 622374, Note_on_c, 0, 58, 52
1, 622377, Note_on_c, 0, 52, 45
1, 622381, Note_on_c, 0, 49, 41
1, 622386, Note_on_c, 0, 55, 46
1, 622390, Control_c, 0, 64, 103
1, 622397, Note_on_c, 0, 43, 30
1, 622405, Control_c, 0, 64, 89
1, 622419, Control_c, 0, 64, 75
1, 622434, Control_c, 0, 64, 66
1, 622449, Control_c, 0, 64, 59
1, 622464, Control_c, 0, 64, 59
1, 622479, Control_c, 0, 64, 61
1, 622494, Control_c, 0, 64, 63
1, 622509, Control_c, 0, 64, 65
1, 622524, Control_c, 0, 64, 68
1, 622538, Control_c, 0, 64, 71
1, 622541, Note_off_c, 0, 43, 46
1, 622553, Control_c, 0, 64, 75
1, 622559, Note_on_c, 0, 44, 30
1, 622568, Control_c, 0, 64, 78
1, 622583, Control_c, 0, 64, 82
1, 622598, Control_c, 0, 64, 86
1, 622613, Control_c, 0, 64, 91
1, 622618, Note_off_c, 0, 44, 42
1, 622627, Control_c, 0, 64, 96
1, 622643, Control_c, 0, 64, 102
1, 622658, Control_c, 0, 64, 109
1, 622680, Control_c, 0, 64, 124
1, 622695, Control_c, 0, 64, 127
1, 622723, Note_off_c, 0, 52, 53
1, 622747, Note_on_c, 0, 43, 40
1, 622747, Note_off_c, 0, 55, 33
1, 622770, Note_off_c, 0, 49, 35
1, 622770, Note_off_c, 0, 58, 55
1, 623024, Note_off_c, 0, 43, 41
1, 623035, Note_on_c, 0, 44, 39
1, 623108, Control_c, 0, 64, 112
1, 623123, Control_c, 0, 64, 93
1, 623128, Note_on_c, 0, 48, 45
1, 623138, Control_c, 0, 64, 79
1, 623152, Control_c, 0, 64, 69
1, 623167, Control_c, 0, 64, 62
1, 623182, Control_c, 0, 64, 59
1, 623197, Control_c, 0, 64, 60
1, 623212, Control_c, 0, 64, 61
1, 623213, Note_on_c, 0, 54, 47
1, 623227, Control_c, 0, 64, 63
1, 623242, Control_c, 0, 64, 64
1, 623256, Control_c, 0, 64, 66
1, 623271, Control_c, 0, 64, 68
1, 623286, Control_c, 0, 64, 71
1, 623293, Note_off_c, 0, 48, 54
1, 623301, Control_c, 0, 64, 74
1, 623315, Control_c, 0, 64, 77
1, 623316, Note_on_c, 0, 56, 50
1, 623330, Control_c, 0, 64, 81
1, 623345, Control_c, 0, 64, 85
1, 623360, Control_c, 0, 64, 89
1, 623374, Control_c, 0, 64, 92
1, 623389, Control_c, 0, 64, 95
1, 623404, Control_c, 0, 64, 98
1, 623424, Note_off_c, 0, 44, 42
1, 623427, Control_c, 0, 64, 101
1, 623442, Control_c, 0, 64, 104
1, 623457, Control_c, 0, 64, 107
1, 623471, Control_c, 0, 64, 110
1, 623483, Note_on_c, 0, 63, 48
1, 623486, Control_c, 0, 64, 113
1, 623501, Control_c, 0, 64, 116
1, 623516, Control_c, 0, 64, 118
1, 623531, Control_c, 0, 64, 119
1, 623561, Control_c, 0, 64, 120
1, 623647, Note_on_c, 0, 43, 38
1, 623665, Control_c, 0, 64, 119
1, 623694, Control_c, 0, 64, 119
1, 623709, Control_c, 0, 64, 116
1, 623724, Control_c, 0, 64, 112
1, 623739, Control_c, 0, 64, 109
1, 623753, Control_c, 0, 64, 104
1, 623768, Control_c, 0, 64, 99
1, 623783, Control_c, 0, 64, 93
1, 623798, Control_c, 0, 64, 88
1, 623813, Control_c, 0, 64, 82
1, 623827, Control_c, 0, 64, 77
1, 623842, Control_c, 0, 64, 72
1, 623857, Control_c, 0, 64, 68
1, 623862, Note_on_c, 0, 44, 26
1, 623871, Control_c, 0, 64, 66
1, 623886, Control_c, 0, 64, 65
1, 623927, Note_off_c, 0, 43, 39
1, 624035, Control_c, 0, 64, 65
1, 624065, Note_off_c, 0, 44, 48
1, 624153, Control_c, 0, 64, 66
1, 624309, Control_c, 0, 64, 66
1, 624342, Note_on_c, 0, 43, 33
1, 624568, Note_on_c, 0, 44, 24
1, 624625, Note_off_c, 0, 43, 39
1, 624651, Control_c, 0, 64, 67
1, 624795, Note_off_c, 0, 44, 51
1, 625043, Note_on_c, 0, 43, 35
1, 625287, Note_on_c, 0, 44, 33
1, 625371, Note_off_c, 0, 43, 37
1, 625552, Note_off_c, 0, 44, 48
1, 625923, Note_on_c, 0, 43, 22
1, 626272, Note_on_c, 0, 44, 22
1, 626424, Note_off_c, 0, 43, 35
1, 626496, Control_c, 0, 64, 66
1, 626585, Control_c, 0, 64, 66
1, 626645, Control_c, 0, 64, 65
1, 626704, Control_c, 0, 64, 65
1, 626764, Control_c, 0, 64, 64
1, 626793, Control_c, 0, 64, 64
1, 626822, Control_c, 0, 64, 63
1, 626852, Control_c, 0, 64, 63
1, 626882, Control_c, 0, 64, 62
1, 626897, Control_c, 0, 64, 62
1, 626926, Control_c, 0, 64, 61
1, 626956, Control_c, 0, 64, 61
1, 626971, Control_c, 0, 64, 60
1, 626986, Control_c, 0, 64, 59
1, 627015, Control_c, 0, 64, 58
1, 627030, Control_c, 0, 64, 57
1, 627045, Control_c, 0, 64, 57
1, 627060, Control_c, 0, 64, 56
1, 627075, Control_c, 0, 64, 54
1, 627089, Control_c, 0, 64, 52
1, 627104, Control_c, 0, 64, 50
1, 627119, Control_c, 0, 64, 49
1, 627134, Control_c, 0, 64, 46
1, 627143, Note_off_c, 0, 63, 30
1, 627149, Control_c, 0, 64, 43
1, 627171, Control_c, 0, 64, 40
1, 627186, Control_c, 0, 64, 37
1, 627201, Control_c, 0, 64, 33
1, 627215, Control_c, 0, 64, 29
1, 627218, Note_off_c, 0, 56, 27
1, 627230, Control_c, 0, 64, 24
1, 627245, Control_c, 0, 64, 11
1, 627260, Control_c, 0, 64, 0
1, 627290, Note_off_c, 0, 54, 30
1, 627335, Note_off_c, 0, 44, 27
1, 627853, Control_c, 0, 64, 37
1, 627868, Control_c, 0, 64, 47
1, 627883, Control_c, 0, 64, 54
1, 627898, Control_c, 0, 64, 58
1, 627919, Control_c, 0, 64, 61
1, 627934, Control_c, 0, 64, 63
1, 627949, Control_c, 0, 64, 64
1, 627964, Control_c, 0, 64, 66
1, 627979, Control_c, 0, 64, 67
1, 627993, Control_c, 0, 64, 69
1, 628008, Control_c, 0, 64, 71
1, 628023, Control_c, 0, 64, 73
1, 628038, Control_c, 0, 64, 75
1, 628053, Control_c, 0, 64, 78
1, 628068, Control_c, 0, 64, 81
1, 628083, Control_c, 0, 64, 84
1, 628098, Control_c, 0, 64, 87
1, 628112, Control_c, 0, 64, 89
1, 628127, Control_c, 0, 64, 92
1, 628142, Control_c, 0, 64, 95
1, 628157, Control_c, 0, 64, 98
1, 628171, Control_c, 0, 64, 102
1, 628186, Control_c, 0, 64, 106
1, 628201, Control_c, 0, 64, 111
1, 628216, Control_c, 0, 64, 121
1, 628231, Control_c, 0, 64, 127
1, 628646, Note_on_c, 0, 44, 31
1, 628868, Note_off_c, 0, 44, 42
1, 629136, Note_on_c, 0, 44, 33
1, 629359, Note_off_c, 0, 44, 42
1, 629639, Note_on_c, 0, 68, 45
1, 629657, Note_on_c, 0, 44, 25
1, 629678, Note_on_c, 0, 56, 13
1, 629806, Note_off_c, 0, 56, 44
1, 629816, Note_off_c, 0, 44, 47
1, 629930, Note_off_c, 0, 68, 61
1, 630181, Note_on_c, 0, 73, 57
1, 630205, Note_on_c, 0, 53, 31
1, 630206, Note_on_c, 0, 68, 37
1, 630208, Note_on_c, 0, 61, 29
1, 630211, Note_on_c, 0, 44, 30
1, 630366, Note_off_c, 0, 53, 41
1, 630442, Note_off_c, 0, 61, 40
1, 630487, Note_off_c, 0, 68, 57
1, 630496, Note_off_c, 0, 44, 42
1, 630512, Note_off_c, 0, 73, 50
1, 630655, Note_on_c, 0, 73, 34
1, 630665, Note_on_c, 0, 75, 60
1, 630677, Note_on_c, 0, 63, 46
1, 630681, Note_on_c, 0, 44, 25
1, 630687, Note_on_c, 0, 54, 42
1, 630715, Control_c, 0, 64, 126
1, 630730, Control_c, 0, 64, 101
1, 630745, Control_c, 0, 64, 89
1, 630760, Control_c, 0, 64, 79
1, 630775, Control_c, 0, 64, 72
1, 630790, Control_c, 0, 64, 68
1, 630804, Control_c, 0, 64, 69
1, 630819, Control_c, 0, 64, 71
1, 630834, Control_c, 0, 64, 74
1, 630849, Control_c, 0, 64, 79
1, 630863, Control_c, 0, 64, 85
1, 630869, Note_off_c, 0, 54, 61
1, 630878, Control_c, 0, 64, 91
1, 630893, Control_c, 0, 64, 101
1, 630915, Control_c, 0, 64, 113
1, 630930, Control_c, 0, 64, 127
1, 630943, Note_off_c, 0, 63, 50
1, 630989, Note_off_c, 0, 44, 41
1, 631023, Note_off_c, 0, 73, 61
1, 631023, Note_off_c, 0, 75, 61
1, 631321, Note_on_c, 0, 78, 65
1, 631341, Note_on_c, 0, 44, 38
1, 631342, Note_on_c, 0, 58, 39
1, 631342, Note_on_c, 0, 73, 49
1, 631344, Note_on_c, 0, 66, 43
1, 631345, Control_c, 0, 64, 100
1, 631360, Control_c, 0, 64, 83
1, 631375, Control_c, 0, 64, 71
1, 631389, Control_c, 0, 64, 59
1, 631404, Control_c, 0, 64, 11
1, 631419, Control_c, 0, 64, 0
1, 631480, Control_c, 0, 64, 35
1, 631494, Control_c, 0, 64, 56
1, 631509, Control_c, 0, 64, 64
1, 631524, Control_c, 0, 64, 68
1, 631539, Control_c, 0, 64, 73
1, 631553, Control_c, 0, 64, 79
1, 631568, Control_c, 0, 64, 86
1, 631583, Control_c, 0, 64, 94
1, 631598, Control_c, 0, 64, 102
1, 631612, Control_c, 0, 64, 111
1, 631627, Control_c, 0, 64, 127
1, 631646, Note_off_c, 0, 44, 41
1, 631854, Note_on_c, 0, 44, 41
1, 632077, Note_off_c, 0, 44, 42
1, 632309, Note_on_c, 0, 44, 39
1, 632454, Note_off_c, 0, 66, 59
1, 632474, Note_off_c, 0, 78, 57
1, 632503, Control_c, 0, 67, 127
1, 632517, Control_c, 0, 67, 125
1, 632532, Control_c, 0, 67, 122
1, 632538, Note_off_c, 0, 73, 56
1, 632547, Control_c, 0, 67, 119
1, 632553, Note_off_c, 0, 58, 37
1, 632562, Control_c, 0, 67, 117
1, 632577, Control_c, 0, 67, 114
1, 632591, Control_c, 0, 67, 110
1, 632602, Note_off_c, 0, 44, 54
1, 632606, Control_c, 0, 67, 107
1, 632621, Control_c, 0, 67, 103
1, 632635, Control_c, 0, 67, 99
1, 632650, Control_c, 0, 67, 95
1, 632665, Control_c, 0, 67, 92
1, 632680, Control_c, 0, 67, 88
1, 632695, Control_c, 0, 67, 86
1, 632709, Control_c, 0, 67, 84
1, 632724, Control_c, 0, 67, 82
1, 632739, Control_c, 0, 67, 81
1, 632754, Control_c, 0, 67, 81
1, 632769, Control_c, 0, 67, 80
1, 632844, Note_on_c, 0, 77, 59
1, 632847, Note_on_c, 0, 56, 43
1, 632859, Note_on_c, 0, 65, 42
1, 632860, Note_on_c, 0, 73, 49
1, 632865, Note_on_c, 0, 44, 32
1, 632888, Control_c, 0, 64, 105
1, 632902, Control_c, 0, 64, 89
1, 632917, Control_c, 0, 64, 76
1, 632932, Control_c, 0, 64, 65
1, 632947, Control_c, 0, 64, 56
1, 632961, Control_c, 0, 64, 55
1, 632976, Control_c, 0, 64, 60
1, 632991, Control_c, 0, 64, 64
1, 633006, Control_c, 0, 64, 68
1, 633021, Control_c, 0, 64, 73
1, 633021, Control_c, 0, 67, 81
1, 633037, Control_c, 0, 64, 79
1, 633052, Control_c, 0, 64, 87
1, 633066, Control_c, 0, 64, 98
1, 633081, Control_c, 0, 64, 112
1, 633096, Control_c, 0, 64, 127
1, 633096, Control_c, 0, 67, 81
1, 633103, Note_off_c, 0, 65, 55
1, 633133, Note_off_c, 0, 77, 54
1, 633140, Control_c, 0, 67, 82
1, 633173, Note_off_c, 0, 56, 55
1, 633177, Control_c, 0, 67, 82
1, 633179, Note_off_c, 0, 44, 43
1, 633207, Control_c, 0, 67, 83
1, 633213, Note_off_c, 0, 73, 51
1, 633237, Control_c, 0, 67, 83
1, 633252, Control_c, 0, 67, 84
1, 633266, Control_c, 0, 67, 84
1, 633296, Control_c, 0, 67, 85
1, 633311, Control_c, 0, 67, 85
1, 633326, Control_c, 0, 67, 86
1, 633340, Control_c, 0, 67, 86
1, 633355, Control_c, 0, 67, 87
1, 633370, Control_c, 0, 67, 88
1, 633382, Note_on_c, 0, 75, 54
1, 633384, Control_c, 0, 67, 88
1, 633387, Note_on_c, 0, 73, 42
1, 633399, Control_c, 0, 67, 89
1, 633403, Note_on_c, 0, 63, 44
1, 633404, Note_on_c, 0, 54, 36
1, 633411, Note_on_c, 0, 44, 32
1, 633414, Control_c, 0, 67, 90
1, 633429, Control_c, 0, 64, 98
1, 633429, Control_c, 0, 67, 90
1, 633444, Control_c, 0, 64, 81
1, 633444, Control_c, 0, 67, 91
1, 633458, Control_c, 0, 64, 68
1, 633473, Control_c, 0, 64, 60
1, 633473, Control_c, 0, 67, 91
1, 633487, Control_c, 0, 64, 58
1, 633502, Control_c, 0, 64, 60
1, 633502, Control_c, 0, 67, 92
1, 633517, Control_c, 0, 64, 64
1, 633532, Control_c, 0, 64, 67
1, 633547, Control_c, 0, 64, 72
1, 633562, Control_c, 0, 64, 79
1, 633577, Control_c, 0, 64, 88
1, 633591, Control_c, 0, 64, 100
1, 633606, Control_c, 0, 64, 118
1, 633621, Control_c, 0, 64, 127
1, 633636, Control_c, 0, 67, 92
1, 633639, Note_off_c, 0, 63, 58
1, 633663, Note_off_c, 0, 54, 42
1, 633665, Control_c, 0, 67, 93
1, 633695, Control_c, 0, 67, 93
1, 633700, Note_off_c, 0, 44, 42
1, 633710, Control_c, 0, 67, 94
1, 633724, Control_c, 0, 67, 94
1, 633739, Control_c, 0, 67, 96
1, 633754, Control_c, 0, 67, 97
1, 633755, Note_off_c, 0, 75, 37
1, 633759, Note_off_c, 0, 73, 37
1, 633769, Control_c, 0, 67, 99
1, 633783, Control_c, 0, 67, 101
1, 633798, Control_c, 0, 67, 103
1, 633813, Control_c, 0, 67, 106
1, 633829, Control_c, 0, 67, 108
1, 633844, Control_c, 0, 67, 111
1, 633859, Control_c, 0, 67, 114
1, 633873, Control_c, 0, 67, 117
1, 633888, Control_c, 0, 67, 121
1, 633889, Note_on_c, 0, 77, 61
1, 633892, Note_on_c, 0, 73, 47
1, 633905, Note_on_c, 0, 56, 43
1, 633911, Control_c, 0, 64, 114
1, 633911, Control_c, 0, 67, 125
1, 633912, Note_on_c, 0, 65, 42
1, 633917, Note_on_c, 0, 44, 26
1, 633925, Control_c, 0, 64, 91
1, 633925, Control_c, 0, 67, 127
1, 633940, Control_c, 0, 64, 74
1, 633955, Control_c, 0, 64, 64
1, 633970, Control_c, 0, 64, 57
1, 633985, Control_c, 0, 64, 58
1, 634000, Control_c, 0, 64, 62
1, 634014, Control_c, 0, 64, 65
1, 634029, Control_c, 0, 64, 69
1, 634044, Control_c, 0, 64, 74
1, 634059, Control_c, 0, 64, 80
1, 634074, Control_c, 0, 64, 87
1, 634088, Control_c, 0, 64, 96
1, 634103, Control_c, 0, 64, 109
1, 634118, Control_c, 0, 64, 127
1, 634143, Note_off_c, 0, 56, 38
1, 634146, Note_off_c, 0, 65, 38
1, 634149, Note_off_c, 0, 77, 39
1, 634201, Note_off_c, 0, 44, 43
1, 634221, Note_off_c, 0, 73, 59
1, 634517, Note_on_c, 0, 73, 56
1, 634525, Note_on_c, 0, 44, 36
1, 634531, Note_on_c, 0, 53, 32
1, 634533, Control_c, 0, 64, 121
1, 634543, Note_on_c, 0, 61, 33
1, 634548, Control_c, 0, 64, 99
1, 634551, Note_on_c, 0, 68, 38
1, 634563, Control_c, 0, 64, 85
1, 634578, Control_c, 0, 64, 72
1, 634593, Control_c, 0, 64, 58
1, 634607, Control_c, 0, 64, 0
1, 634749, Control_c, 0, 64, 56
1, 634764, Control_c, 0, 64, 66
1, 634778, Control_c, 0, 64, 72
1, 634793, Control_c, 0, 64, 80
1, 634805, Note_off_c, 0, 44, 54
1, 634808, Control_c, 0, 64, 89
1, 634823, Control_c, 0, 64, 98
1, 634838, Control_c, 0, 64, 109
1, 634853, Control_c, 0, 64, 127
1, 635062, Note_on_c, 0, 44, 37
1, 635282, Note_off_c, 0, 44, 41
1, 635535, Note_off_c, 0, 73, 46
1, 635543, Note_on_c, 0, 44, 30
1, 635634, Note_off_c, 0, 68, 55
1, 635637, Note_off_c, 0, 61, 41
1, 635755, Note_off_c, 0, 44, 41
1, 636064, Note_on_c, 0, 56, 39
1, 636066, Note_on_c, 0, 68, 47
1, 636081, Note_on_c, 0, 44, 28
1, 636233, Note_off_c, 0, 56, 54
1, 636344, Note_off_c, 0, 68, 61
1, 636346, Note_off_c, 0, 44, 42
1, 636380, Note_off_c, 0, 53, 44
1, 636576, Note_on_c, 0, 73, 60
1, 636581, Note_on_c, 0, 68, 45
1, 636597, Note_on_c, 0, 61, 41
1, 636604, Note_on_c, 0, 53, 34
1, 636610, Note_on_c, 0, 44, 24
1, 636736, Note_off_c, 0, 53, 50
1, 636742, Note_off_c, 0, 61, 51
1, 636801, Note_off_c, 0, 68, 57
1, 636836, Note_off_c, 0, 44, 43
1, 636844, Note_off_c, 0, 73, 64
1, 636978, Control_c, 0, 67, 126
1, 636993, Control_c, 0, 67, 125
1, 637008, Control_c, 0, 67, 125
1, 637023, Control_c, 0, 67, 122
1, 637038, Control_c, 0, 67, 120
1, 637053, Control_c, 0, 67, 117
1, 637055, Note_on_c, 0, 77, 67
1, 637068, Control_c, 0, 67, 113
1, 637073, Note_on_c, 0, 56, 39
1, 637076, Note_on_c, 0, 44, 36
1, 637076, Note_on_c, 0, 73, 49
1, 637083, Control_c, 0, 67, 108
1, 637094, Note_on_c, 0, 65, 32
1, 637098, Control_c, 0, 67, 103
1, 637112, Control_c, 0, 67, 97
1, 637127, Control_c, 0, 67, 90
1, 637142, Control_c, 0, 67, 83
1, 637157, Control_c, 0, 67, 77
1, 637172, Control_c, 0, 67, 70
1, 637187, Control_c, 0, 67, 64
1, 637201, Control_c, 0, 67, 58
1, 637213, Note_off_c, 0, 44, 39
1, 637216, Control_c, 0, 67, 51
1, 637231, Control_c, 0, 67, 45
1, 637243, Note_off_c, 0, 65, 61
1, 637246, Control_c, 0, 67, 39
1, 637261, Control_c, 0, 67, 34
1, 637276, Control_c, 0, 67, 30
1, 637282, Note_off_c, 0, 77, 59
1, 637291, Control_c, 0, 67, 27
1, 637301, Note_off_c, 0, 73, 62
1, 637306, Control_c, 0, 67, 24
1, 637312, Note_off_c, 0, 56, 37
1, 637321, Control_c, 0, 67, 21
1, 637336, Control_c, 0, 67, 20
1, 637341, Note_on_c, 0, 44, 39
1, 637350, Control_c, 0, 67, 19
1, 637365, Control_c, 0, 67, 18
1, 637380, Control_c, 0, 67, 17
1, 637395, Control_c, 0, 67, 17
1, 637410, Control_c, 0, 67, 16
1, 637414, Note_off_c, 0, 44, 59
1, 637608, Note_on_c, 0, 68, 46
1, 637664, Note_on_c, 0, 73, 59
1, 637676, Note_on_c, 0, 60, 38
1, 637729, Note_on_c, 0, 80, 69
1, 637817, Control_c, 0, 67, 16
1, 637959, Note_off_c, 0, 60, 48
1, 638316, Note_on_c, 0, 44, 32
1, 638433, Control_c, 0, 67, 16
1, 638477, Control_c, 0, 67, 17
1, 638506, Control_c, 0, 67, 17
1, 638521, Control_c, 0, 67, 18
1, 638551, Control_c, 0, 67, 19
1, 638552, Note_off_c, 0, 44, 41
1, 638566, Control_c, 0, 67, 19
1, 638580, Control_c, 0, 67, 20
1, 638595, Control_c, 0, 67, 20
1, 638610, Control_c, 0, 67, 21
1, 638626, Control_c, 0, 67, 21
1, 638641, Control_c, 0, 67, 22
1, 638656, Control_c, 0, 67, 23
1, 638671, Control_c, 0, 67, 23
1, 638685, Control_c, 0, 67, 24
1, 638700, Control_c, 0, 67, 25
1, 638715, Control_c, 0, 67, 25
1, 638730, Control_c, 0, 67, 26
1, 638745, Control_c, 0, 67, 27
1, 638746, Note_off_c, 0, 68, 38
1, 638759, Control_c, 0, 67, 27
1, 638774, Control_c, 0, 67, 28
1, 638789, Control_c, 0, 67, 28
1, 638803, Control_c, 0, 67, 29
1, 638818, Control_c, 0, 67, 30
1, 638833, Control_c, 0, 67, 32
1, 638837, Note_on_c, 0, 44, 32
1, 638848, Control_c, 0, 67, 34
1, 638859, Note_off_c, 0, 73, 38
1, 638863, Control_c, 0, 67, 36
1, 638877, Control_c, 0, 67, 38
1, 638892, Control_c, 0, 67, 41
1, 638907, Control_c, 0, 67, 44
1, 638922, Control_c, 0, 67, 47
1, 638937, Control_c, 0, 67, 50
1, 638951, Control_c, 0, 67, 54
1, 638966, Control_c, 0, 67, 59
1, 638981, Control_c, 0, 67, 64
1, 638996, Control_c, 0, 67, 68
1, 639011, Control_c, 0, 67, 72
1, 639026, Control_c, 0, 67, 76
1, 639041, Control_c, 0, 67, 79
1, 639055, Note_off_c, 0, 80, 57
1, 639056, Control_c, 0, 67, 82
1, 639070, Control_c, 0, 67, 85
1, 639085, Control_c, 0, 67, 89
1, 639100, Control_c, 0, 67, 93
1, 639115, Control_c, 0, 67, 96
1, 639122, Note_off_c, 0, 44, 44
1, 639129, Control_c, 0, 67, 99
1, 639151, Control_c, 0, 67, 101
1, 639166, Control_c, 0, 67, 104
1, 639181, Control_c, 0, 67, 105
1, 639196, Control_c, 0, 67, 107
1, 639211, Control_c, 0, 67, 108
1, 639226, Control_c, 0, 67, 109
1, 639240, Control_c, 0, 67, 110
1, 639270, Control_c, 0, 67, 110
1, 639355, Note_on_c, 0, 78, 58
1, 639372, Note_on_c, 0, 66, 38
1, 639376, Note_on_c, 0, 44, 32
1, 639376, Note_on_c, 0, 58, 37
1, 639376, Note_on_c, 0, 73, 47
1, 639403, Control_c, 0, 64, 97
1, 639419, Control_c, 0, 64, 81
1, 639434, Control_c, 0, 64, 69
1, 639449, Control_c, 0, 64, 56
1, 639464, Control_c, 0, 64, 51
1, 639479, Control_c, 0, 64, 55
1, 639493, Control_c, 0, 64, 61
1, 639508, Control_c, 0, 64, 65
1, 639508, Control_c, 0, 67, 108
1, 639523, Control_c, 0, 64, 69
1, 639523, Control_c, 0, 67, 107
1, 639538, Control_c, 0, 64, 75
1, 639538, Control_c, 0, 67, 105
1, 639552, Control_c, 0, 64, 84
1, 639552, Control_c, 0, 67, 104
1, 639567, Control_c, 0, 64, 97
1, 639567, Control_c, 0, 67, 104
1, 639582, Control_c, 0, 64, 118
1, 639582, Control_c, 0, 67, 102
1, 639597, Control_c, 0, 64, 127
1, 639597, Control_c, 0, 67, 102
1, 639612, Control_c, 0, 67, 101
1, 639624, Note_off_c, 0, 78, 59
1, 639627, Note_off_c, 0, 66, 55
1, 639630, Note_off_c, 0, 58, 55
1, 639652, Note_off_c, 0, 73, 62
1, 639682, Note_off_c, 0, 44, 42
1, 639834, Control_c, 0, 67, 101
1, 639863, Control_c, 0, 67, 102
1, 639878, Control_c, 0, 67, 102
1, 639915, Control_c, 0, 67, 103
1, 639924, Note_on_c, 0, 75, 54
1, 639926, Note_on_c, 0, 73, 53
1, 639932, Note_on_c, 0, 63, 43
1, 639938, Note_on_c, 0, 44, 29
1, 639945, Control_c, 0, 67, 103
1, 639950, Note_on_c, 0, 54, 43
1, 639974, Control_c, 0, 64, 96
1, 639974, Control_c, 0, 67, 104
1, 639989, Control_c, 0, 64, 82
1, 640004, Control_c, 0, 64, 72
1, 640019, Control_c, 0, 64, 68
1, 640033, Control_c, 0, 64, 69
1, 640048, Control_c, 0, 64, 73
1, 640063, Control_c, 0, 64, 79
1, 640078, Control_c, 0, 64, 88
1, 640093, Control_c, 0, 64, 100
1, 640108, Control_c, 0, 64, 119
1, 640123, Control_c, 0, 64, 127
1, 640159, Note_off_c, 0, 63, 58
1, 640167, Control_c, 0, 67, 103
1, 640169, Note_off_c, 0, 54, 41
1, 640182, Control_c, 0, 67, 103
1, 640188, Note_off_c, 0, 44, 43
1, 640214, Note_off_c, 0, 75, 57
1, 640224, Note_off_c, 0, 73, 37
1, 640256, Control_c, 0, 67, 102
1, 640436, Note_on_c, 0, 77, 55
1, 640443, Note_on_c, 0, 44, 36
1, 640446, Note_on_c, 0, 56, 42
1, 640453, Note_on_c, 0, 65, 37
1, 640463, Control_c, 0, 64, 106
1, 640472, Note_on_c, 0, 73, 41
1, 640478, Control_c, 0, 64, 88
1, 640478, Control_c, 0, 67, 103
1, 640493, Control_c, 0, 64, 73
1, 640508, Control_c, 0, 64, 64
1, 640522, Control_c, 0, 64, 57
1, 640552, Control_c, 0, 64, 60
1, 640567, Control_c, 0, 64, 64
1, 640582, Control_c, 0, 64, 70
1, 640597, Control_c, 0, 64, 77
1, 640612, Control_c, 0, 64, 87
1, 640627, Control_c, 0, 64, 101
1, 640631, Note_off_c, 0, 65, 58
1, 640648, Control_c, 0, 64, 127
1, 640656, Note_off_c, 0, 56, 52
1, 640679, Note_off_c, 0, 77, 57
1, 640745, Note_off_c, 0, 73, 44
1, 640769, Note_off_c, 0, 44, 41
1, 640841, Control_c, 0, 67, 103
1, 640975, Control_c, 0, 67, 104
1, 641002, Note_on_c, 0, 73, 55
1, 641005, Control_c, 0, 67, 104
1, 641018, Note_on_c, 0, 53, 38
1, 641026, Note_on_c, 0, 44, 29
1, 641029, Note_on_c, 0, 61, 37
1, 641035, Control_c, 0, 67, 105
1, 641040, Note_on_c, 0, 68, 40
1, 641050, Control_c, 0, 64, 100
1, 641065, Control_c, 0, 64, 81
1, 641065, Control_c, 0, 67, 105
1, 641080, Control_c, 0, 64, 68
1, 641095, Control_c, 0, 64, 52
1, 641109, Control_c, 0, 64, 28
1, 641154, Control_c, 0, 64, 29
1, 641169, Control_c, 0, 64, 43
1, 641184, Control_c, 0, 64, 58
1, 641198, Control_c, 0, 64, 65
1, 641213, Control_c, 0, 64, 69
1, 641228, Control_c, 0, 64, 74
1, 641243, Control_c, 0, 64, 81
1, 641258, Control_c, 0, 64, 89
1, 641266, Note_off_c, 0, 44, 53
1, 641272, Control_c, 0, 64, 96
1, 641287, Control_c, 0, 64, 104
1, 641302, Control_c, 0, 64, 114
1, 641302, Control_c, 0, 67, 105
1, 641316, Control_c, 0, 64, 127
1, 641531, Note_on_c, 0, 44, 36
1, 641692, Note_off_c, 0, 44, 43
1, 641694, Control_c, 0, 67, 104
1, 641995, Note_on_c, 0, 44, 35
1, 642162, Note_off_c, 0, 44, 47
1, 642397, Note_off_c, 0, 61, 50
1, 642443, Control_c, 0, 67, 105
1, 642484, Note_off_c, 0, 68, 55
1, 642486, Note_on_c, 0, 44, 42
1, 642576, Note_off_c, 0, 73, 57
1, 642734, Note_off_c, 0, 44, 40
1, 643005, Note_on_c, 0, 77, 62
1, 643019, Note_on_c, 0, 49, 41
1, 643024, Note_on_c, 0, 73, 52
1, 643026, Note_on_c, 0, 65, 36
1, 643042, Note_on_c, 0, 44, 38
1, 643044, Control_c, 0, 64, 126
1, 643059, Control_c, 0, 64, 97
1, 643074, Control_c, 0, 64, 83
1, 643088, Control_c, 0, 64, 71
1, 643103, Control_c, 0, 64, 60
1, 643118, Control_c, 0, 64, 21
1, 643133, Control_c, 0, 64, 0
1, 643192, Control_c, 0, 64, 27
1, 643192, Control_c, 0, 67, 104
1, 643207, Control_c, 0, 64, 52
1, 643207, Control_c, 0, 67, 104
1, 643221, Note_off_c, 0, 44, 60
1, 643222, Control_c, 0, 64, 63
1, 643222, Control_c, 0, 67, 103
1, 643236, Control_c, 0, 64, 66
1, 643236, Control_c, 0, 67, 102
1, 643251, Control_c, 0, 64, 70
1, 643251, Control_c, 0, 67, 102
1, 643259, Note_off_c, 0, 53, 44
1, 643266, Control_c, 0, 64, 74
1, 643266, Control_c, 0, 67, 101
1, 643281, Control_c, 0, 64, 80
1, 643281, Control_c, 0, 67, 100
1, 643295, Control_c, 0, 64, 86
1, 643295, Control_c, 0, 67, 100
1, 643310, Control_c, 0, 64, 93
1, 643310, Control_c, 0, 67, 99
1, 643325, Control_c, 0, 64, 101
1, 643325, Control_c, 0, 67, 98
1, 643340, Control_c, 0, 64, 111
1, 643340, Control_c, 0, 67, 97
1, 643355, Control_c, 0, 64, 127
1, 643355, Control_c, 0, 67, 95
1, 643369, Control_c, 0, 67, 93
1, 643384, Control_c, 0, 67, 90
1, 643399, Control_c, 0, 67, 86
1, 643415, Control_c, 0, 67, 83
1, 643430, Control_c, 0, 67, 81
1, 643445, Control_c, 0, 67, 78
1, 643460, Control_c, 0, 67, 74
1, 643474, Control_c, 0, 67, 70
1, 643489, Control_c, 0, 67, 66
1, 643504, Control_c, 0, 67, 59
1, 643519, Control_c, 0, 67, 53
1, 643527, Note_on_c, 0, 44, 39
1, 643534, Control_c, 0, 67, 46
1, 643548, Control_c, 0, 67, 39
1, 643560, Note_off_c, 0, 65, 55
1, 643563, Control_c, 0, 67, 33
1, 643578, Control_c, 0, 67, 27
1, 643593, Control_c, 0, 67, 22
1, 643607, Control_c, 0, 67, 18
1, 643622, Control_c, 0, 67, 14
1, 643645, Control_c, 0, 67, 10
1, 643660, Control_c, 0, 67, 0
1, 643661, Note_off_c, 0, 77, 56
1, 643676, Note_off_c, 0, 49, 48
1, 643687, Note_off_c, 0, 73, 58
1, 643828, Note_off_c, 0, 44, 41
1, 644059, Note_on_c, 0, 82, 76
1, 644067, Note_on_c, 0, 44, 40
1, 644079, Note_on_c, 0, 73, 49
1, 644081, Note_on_c, 0, 70, 43
1, 644087, Note_on_c, 0, 54, 36
1, 644133, Control_c, 0, 64, 112
1, 644148, Control_c, 0, 64, 92
1, 644163, Control_c, 0, 64, 79
1, 644178, Control_c, 0, 64, 70
1, 644192, Control_c, 0, 64, 64
1, 644208, Control_c, 0, 64, 63
1, 644223, Control_c, 0, 64, 65
1, 644238, Control_c, 0, 64, 67
1, 644253, Control_c, 0, 64, 70
1, 644268, Control_c, 0, 64, 74
1, 644283, Control_c, 0, 64, 78
1, 644297, Control_c, 0, 64, 85
1, 644312, Control_c, 0, 64, 91
1, 644327, Control_c, 0, 64, 98
1, 644340, Note_off_c, 0, 44, 51
1, 644341, Control_c, 0, 64, 106
1, 644356, Control_c, 0, 64, 122
1, 644371, Control_c, 0, 64, 127
1, 644570, Note_on_c, 0, 44, 43
1, 644618, Note_off_c, 0, 70, 50
1, 644710, Note_off_c, 0, 73, 54
1, 644806, Note_off_c, 0, 82, 59
1, 644847, Note_off_c, 0, 54, 39
1, 644868, Note_off_c, 0, 44, 42
1, 645082, Note_on_c, 0, 80, 60
1, 645087, Note_on_c, 0, 68, 46
1, 645095, Note_on_c, 0, 53, 36
1, 645095, Note_on_c, 0, 73, 49
1, 645107, Note_on_c, 0, 44, 35
1, 645143, Control_c, 0, 64, 116
1, 645158, Control_c, 0, 64, 93
1, 645172, Control_c, 0, 64, 80
1, 645187, Control_c, 0, 64, 69
1, 645202, Control_c, 0, 64, 60
1, 645217, Control_c, 0, 64, 49
1, 645232, Control_c, 0, 64, 48
1, 645246, Control_c, 0, 64, 48
1, 645261, Control_c, 0, 64, 48
1, 645276, Control_c, 0, 64, 54
1, 645291, Control_c, 0, 64, 62
1, 645306, Control_c, 0, 64, 66
1, 645320, Control_c, 0, 64, 71
1, 645335, Control_c, 0, 64, 76
1, 645347, Note_off_c, 0, 44, 54
1, 645350, Control_c, 0, 64, 84
1, 645364, Control_c, 0, 64, 93
1, 645379, Control_c, 0, 64, 104
1, 645394, Control_c, 0, 64, 127
1, 645572, Control_c, 0, 67, 8
1, 645587, Control_c, 0, 67, 9
1, 645593, Note_on_c, 0, 44, 38
1, 645602, Control_c, 0, 67, 11
1, 645617, Control_c, 0, 67, 12
1, 645631, Control_c, 0, 67, 15
1, 645644, Note_off_c, 0, 80, 52
1, 645646, Control_c, 0, 67, 17
1, 645661, Control_c, 0, 67, 20
1, 645676, Control_c, 0, 67, 22
1, 645690, Control_c, 0, 67, 25
1, 645705, Control_c, 0, 67, 29
1, 645720, Control_c, 0, 67, 34
1, 645734, Note_off_c, 0, 68, 60
1, 645735, Control_c, 0, 67, 39
1, 645750, Control_c, 0, 67, 43
1, 645764, Control_c, 0, 67, 47
1, 645779, Control_c, 0, 67, 50
1, 645794, Control_c, 0, 67, 53
1, 645810, Note_off_c, 0, 53, 42
1, 645810, Control_c, 0, 67, 56
1, 645825, Control_c, 0, 67, 58
1, 645840, Control_c, 0, 67, 60
1, 645854, Note_off_c, 0, 73, 59
1, 645854, Control_c, 0, 67, 62
1, 645869, Control_c, 0, 67, 64
1, 645870, Note_off_c, 0, 44, 43
1, 645891, Control_c, 0, 67, 66
1, 645906, Control_c, 0, 67, 67
1, 645921, Control_c, 0, 67, 68
1, 645936, Control_c, 0, 67, 69
1, 645950, Control_c, 0, 67, 70
1, 645965, Control_c, 0, 67, 71
1, 645980, Control_c, 0, 67, 71
1, 646131, Note_on_c, 0, 77, 60
1, 646135, Note_on_c, 0, 44, 33
1, 646137, Note_on_c, 0, 55, 35
1, 646143, Control_c, 0, 64, 101
1, 646147, Note_on_c, 0, 65, 35
1, 646148, Note_on_c, 0, 73, 48
1, 646158, Control_c, 0, 64, 87
1, 646173, Control_c, 0, 64, 76
1, 646187, Control_c, 0, 64, 66
1, 646202, Control_c, 0, 64, 51
1, 646217, Control_c, 0, 64, 37
1, 646232, Control_c, 0, 64, 33
1, 646232, Control_c, 0, 67, 71
1, 646247, Control_c, 0, 64, 29
1, 646261, Control_c, 0, 64, 27
1, 646261, Control_c, 0, 67, 70
1, 646276, Control_c, 0, 67, 70
1, 646291, Control_c, 0, 67, 69
1, 646306, Control_c, 0, 64, 31
1, 646306, Control_c, 0, 67, 68
1, 646320, Note_off_c, 0, 44, 53
1, 646320, Control_c, 0, 64, 48
1, 646320, Control_c, 0, 67, 68
1, 646335, Control_c, 0, 64, 62
1, 646335, Control_c, 0, 67, 67
1, 646350, Control_c, 0, 64, 67
1, 646350, Control_c, 0, 67, 66
1, 646365, Control_c, 0, 64, 73
1, 646365, Control_c, 0, 67, 66
1, 646380, Control_c, 0, 64, 83
1, 646380, Control_c, 0, 67, 65
1, 646395, Control_c, 0, 64, 93
1, 646395, Control_c, 0, 67, 65
1, 646409, Control_c, 0, 64, 106
1, 646409, Control_c, 0, 67, 64
1, 646424, Control_c, 0, 64, 127
1, 646424, Control_c, 0, 67, 64
1, 646454, Control_c, 0, 67, 63
1, 646603, Control_c, 0, 67, 64
1, 646607, Note_on_c, 0, 44, 36
1, 646640, Control_c, 0, 67, 64
1, 646655, Control_c, 0, 67, 65
1, 646670, Control_c, 0, 67, 65
1, 646684, Control_c, 0, 67, 66
1, 646714, Control_c, 0, 67, 66
1, 646729, Control_c, 0, 67, 67
1, 646743, Control_c, 0, 67, 68
1, 646758, Control_c, 0, 67, 68
1, 646773, Control_c, 0, 67, 69
1, 646788, Control_c, 0, 67, 69
1, 646818, Control_c, 0, 67, 70
1, 646819, Note_off_c, 0, 55, 46
1, 646822, Note_off_c, 0, 65, 55
1, 646833, Control_c, 0, 67, 70
1, 646848, Control_c, 0, 67, 71
1, 646863, Control_c, 0, 67, 71
1, 646878, Control_c, 0, 67, 72
1, 646892, Control_c, 0, 67, 72
1, 646907, Control_c, 0, 67, 73
1, 646908, Note_off_c, 0, 44, 42
1, 646913, Note_off_c, 0, 73, 36
1, 646922, Control_c, 0, 67, 73
1, 646934, Note_off_c, 0, 77, 54
1, 646936, Control_c, 0, 67, 76
1, 646951, Control_c, 0, 67, 79
1, 646967, Control_c, 0, 67, 82
1, 646982, Control_c, 0, 67, 86
1, 646997, Control_c, 0, 67, 90
1, 647011, Control_c, 0, 67, 93
1, 647026, Control_c, 0, 67, 96
1, 647041, Control_c, 0, 67, 98
1, 647056, Control_c, 0, 67, 101
1, 647071, Control_c, 0, 67, 104
1, 647085, Control_c, 0, 67, 107
1, 647100, Control_c, 0, 67, 109
1, 647115, Control_c, 0, 67, 111
1, 647130, Control_c, 0, 67, 114
1, 647144, Control_c, 0, 67, 116
1, 647159, Control_c, 0, 67, 118
1, 647174, Control_c, 0, 67, 121
1, 647189, Control_c, 0, 64, 106
1, 647189, Control_c, 0, 67, 123
1, 647204, Control_c, 0, 64, 89
1, 647204, Control_c, 0, 67, 126
1, 647207, Note_on_c, 0, 75, 53
1, 647210, Note_on_c, 0, 72, 45
1, 647212, Note_on_c, 0, 63, 38
1, 647218, Control_c, 0, 64, 75
1, 647218, Control_c, 0, 67, 127
1, 647220, Note_on_c, 0, 44, 30
1, 647233, Control_c, 0, 64, 62
1, 647238, Note_on_c, 0, 56, 13
1, 647248, Control_c, 0, 64, 0
1, 647366, Control_c, 0, 64, 56
1, 647389, Control_c, 0, 64, 65
1, 647404, Control_c, 0, 64, 70
1, 647420, Control_c, 0, 64, 76
1, 647435, Control_c, 0, 64, 85
1, 647449, Control_c, 0, 64, 94
1, 647464, Control_c, 0, 64, 102
1, 647479, Control_c, 0, 64, 109
1, 647486, Note_off_c, 0, 44, 42
1, 647494, Control_c, 0, 64, 122
1, 647509, Control_c, 0, 64, 127
1, 647733, Note_on_c, 0, 44, 35
1, 647913, Note_off_c, 0, 44, 39
1, 648220, Note_on_c, 0, 44, 35
1, 648256, Note_off_c, 0, 56, 52
1, 648350, Note_off_c, 0, 75, 49
1, 648362, Note_off_c, 0, 72, 53
1, 648387, Note_off_c, 0, 44, 53
1, 648451, Note_off_c, 0, 63, 37
1, 648743, Note_on_c, 0, 56, 44
1, 648764, Note_on_c, 0, 44, 37
1, 648900, Control_c, 0, 67, 127
1, 648914, Control_c, 0, 67, 126
1, 648929, Control_c, 0, 67, 125
1, 648944, Control_c, 0, 67, 125
1, 648959, Control_c, 0, 67, 123
1, 648974, Control_c, 0, 67, 123
1, 648988, Control_c, 0, 67, 121
1, 649003, Control_c, 0, 67, 119
1, 649019, Control_c, 0, 67, 116
1, 649034, Control_c, 0, 67, 113
1, 649044, Note_off_c, 0, 56, 57
1, 649049, Control_c, 0, 67, 109
1, 649060, Note_off_c, 0, 44, 42
1, 649064, Control_c, 0, 67, 103
1, 649079, Control_c, 0, 67, 98
1, 649093, Control_c, 0, 67, 91
1, 649108, Control_c, 0, 67, 86
1, 649123, Control_c, 0, 67, 80
1, 649137, Control_c, 0, 67, 74
1, 649152, Control_c, 0, 67, 70
1, 649167, Control_c, 0, 67, 66
1, 649182, Control_c, 0, 67, 62
1, 649197, Control_c, 0, 67, 60
1, 649212, Control_c, 0, 67, 56
1, 649226, Control_c, 0, 67, 53
1, 649230, Note_on_c, 0, 61, 54
1, 649241, Control_c, 0, 67, 49
1, 649247, Note_on_c, 0, 53, 44
1, 649248, Note_on_c, 0, 44, 33
1, 649256, Control_c, 0, 67, 44
1, 649271, Control_c, 0, 67, 40
1, 649286, Control_c, 0, 67, 35
1, 649301, Control_c, 0, 67, 30
1, 649316, Control_c, 0, 67, 26
1, 649330, Control_c, 0, 67, 21
1, 649345, Control_c, 0, 67, 17
1, 649360, Control_c, 0, 67, 13
1, 649375, Control_c, 0, 67, 10
1, 649390, Control_c, 0, 67, 8
1, 649404, Control_c, 0, 67, 8
1, 649505, Note_off_c, 0, 53, 64
1, 649508, Control_c, 0, 67, 8
1, 649522, Control_c, 0, 67, 9
1, 649537, Control_c, 0, 67, 9
1, 649560, Note_off_c, 0, 61, 55
1, 649567, Control_c, 0, 67, 10
1, 649578, Note_off_c, 0, 44, 42
1, 649582, Control_c, 0, 67, 10
1, 649596, Control_c, 0, 67, 11
1, 649611, Control_c, 0, 67, 11
1, 649649, Control_c, 0, 67, 12
1, 649678, Control_c, 0, 67, 12
1, 649702, Note_on_c, 0, 63, 61
1, 649712, Note_on_c, 0, 61, 52
1, 649716, Note_on_c, 0, 54, 53
1, 649722, Note_on_c, 0, 44, 35
1, 649723, Control_c, 0, 67, 13
1, 649767, Control_c, 0, 64, 120
1, 649782, Control_c, 0, 64, 96
1, 649797, Control_c, 0, 64, 84
1, 649813, Control_c, 0, 64, 74
1, 649828, Control_c, 0, 64, 69
1, 649842, Control_c, 0, 64, 68
1, 649857, Control_c, 0, 64, 69
1, 649872, Control_c, 0, 64, 73
1, 649887, Control_c, 0, 64, 80
1, 649902, Control_c, 0, 64, 89
1, 649916, Control_c, 0, 64, 100
1, 649931, Control_c, 0, 64, 114
1, 649944, Note_off_c, 0, 54, 62
1, 649946, Control_c, 0, 64, 127
1, 650021, Control_c, 0, 67, 13
1, 650031, Note_off_c, 0, 44, 41
1, 650035, Note_off_c, 0, 61, 59
1, 650040, Note_off_c, 0, 63, 59
1, 650273, Control_c, 0, 67, 14
1, 650332, Control_c, 0, 67, 14
1, 650350, Note_on_c, 0, 66, 65
1, 650361, Control_c, 0, 64, 117
1, 650361, Control_c, 0, 67, 15
1, 650365, Note_on_c, 0, 61, 46
1, 650365, Note_on_c, 0, 58, 49
1, 650371, Note_on_c, 0, 44, 43
1, 650383, Control_c, 0, 64, 95
1, 650386, Note_on_c, 0, 37, 44
1, 650398, Control_c, 0, 64, 82
1, 650413, Control_c, 0, 64, 71
1, 650428, Control_c, 0, 64, 61
1, 650443, Control_c, 0, 64, 31
1, 650458, Control_c, 0, 64, 0
1, 650561, Control_c, 0, 64, 30
1, 650576, Control_c, 0, 64, 58
1, 650591, Control_c, 0, 64, 65
1, 650607, Control_c, 0, 64, 69
1, 650622, Control_c, 0, 64, 74
1, 650636, Control_c, 0, 64, 81
1, 650651, Control_c, 0, 64, 90
1, 650666, Control_c, 0, 64, 101
1, 650681, Control_c, 0, 64, 110
1, 650696, Control_c, 0, 64, 127
1, 650709, Control_c, 0, 67, 14
1, 650725, Note_off_c, 0, 44, 57
1, 650798, Control_c, 0, 67, 14
1, 650961, Note_on_c, 0, 44, 48
1, 651156, Note_off_c, 0, 44, 48
1, 651221, Control_c, 0, 67, 13
1, 651412, Note_off_c, 0, 58, 37
1, 651422, Note_on_c, 0, 44, 45
1, 651566, Note_off_c, 0, 61, 39
1, 651622, Note_off_c, 0, 44, 56
1, 651884, Note_on_c, 0, 65, 59
1, 651894, Note_on_c, 0, 44, 43
1, 651894, Note_on_c, 0, 61, 50
1, 651897, Note_on_c, 0, 56, 51
1, 651939, Control_c, 0, 64, 106
1, 651954, Control_c, 0, 64, 86
1, 651969, Control_c, 0, 64, 72
1, 651984, Control_c, 0, 64, 65
1, 651999, Control_c, 0, 64, 64
1, 652014, Control_c, 0, 64, 66
1, 652029, Control_c, 0, 64, 69
1, 652029, Control_c, 0, 67, 13
1, 652043, Control_c, 0, 64, 74
1, 652043, Control_c, 0, 67, 12
1, 652058, Control_c, 0, 64, 82
1, 652073, Control_c, 0, 64, 92
1, 652073, Control_c, 0, 67, 12
1, 652088, Control_c, 0, 64, 109
1, 652088, Control_c, 0, 67, 11
1, 652103, Control_c, 0, 64, 127
1, 652132, Control_c, 0, 67, 11
1, 652147, Note_off_c, 0, 66, 17
1, 652154, Note_off_c, 0, 56, 58
1, 652175, Note_off_c, 0, 44, 42
1, 652180, Note_off_c, 0, 65, 56
1, 652221, Note_off_c, 0, 61, 57
1, 652368, Note_on_c, 0, 63, 58
1, 652371, Note_on_c, 0, 54, 56
1, 652377, Note_on_c, 0, 44, 39
1, 652379, Note_on_c, 0, 61, 48
1, 652400, Control_c, 0, 64, 105
1, 652415, Control_c, 0, 64, 85
1, 652429, Control_c, 0, 64, 72
1, 652444, Control_c, 0, 64, 64
1, 652459, Control_c, 0, 64, 61
1, 652473, Control_c, 0, 64, 64
1, 652473, Control_c, 0, 67, 10
1, 652488, Control_c, 0, 64, 67
1, 652488, Control_c, 0, 67, 9
1, 652503, Control_c, 0, 64, 72
1, 652503, Control_c, 0, 67, 9
1, 652518, Control_c, 0, 64, 79
1, 652518, Control_c, 0, 67, 8
1, 652533, Control_c, 0, 64, 89
1, 652533, Control_c, 0, 67, 0
1, 652547, Control_c, 0, 64, 103
1, 652562, Control_c, 0, 64, 127
1, 652596, Note_off_c, 0, 54, 48
1, 652668, Note_off_c, 0, 63, 55
1, 652675, Note_off_c, 0, 44, 42
1, 652700, Note_off_c, 0, 61, 51
1, 652847, Note_on_c, 0, 61, 45
1, 652847, Note_on_c, 0, 65, 58
1, 652857, Note_on_c, 0, 44, 38
1, 652859, Note_on_c, 0, 56, 48
1, 652866, Control_c, 0, 64, 97
1, 652881, Control_c, 0, 64, 77
1, 652896, Control_c, 0, 64, 62
1, 652911, Control_c, 0, 64, 0
1, 652941, Control_c, 0, 64, 29
1, 652955, Control_c, 0, 64, 56
1, 652970, Control_c, 0, 64, 66
1, 652985, Control_c, 0, 64, 72
1, 653000, Control_c, 0, 64, 81
1, 653015, Control_c, 0, 64, 93
1, 653019, Note_off_c, 0, 65, 49
1, 653030, Control_c, 0, 64, 109
1, 653045, Control_c, 0, 64, 127
1, 653086, Note_off_c, 0, 61, 53
1, 653094, Note_off_c, 0, 56, 37
1, 653115, Note_off_c, 0, 37, 42
1, 653137, Note_off_c, 0, 44, 43
1, 653407, Note_on_c, 0, 61, 49
1, 653408, Control_c, 0, 64, 102
1, 653412, Note_on_c, 0, 37, 42
1, 653415, Note_on_c, 0, 44, 36
1, 653423, Control_c, 0, 64, 85
1, 653437, Note_on_c, 0, 56, 32
1, 653438, Control_c, 0, 64, 73
1, 653439, Note_on_c, 0, 53, 26
1, 653452, Control_c, 0, 64, 62
1, 653467, Control_c, 0, 64, 24
1, 653482, Control_c, 0, 64, 0
1, 653556, Control_c, 0, 64, 28
1, 653571, Control_c, 0, 64, 53
1, 653585, Control_c, 0, 64, 63
1, 653600, Control_c, 0, 64, 67
1, 653615, Control_c, 0, 64, 71
1, 653629, Control_c, 0, 64, 75
1, 653644, Control_c, 0, 64, 80
1, 653659, Control_c, 0, 64, 86
1, 653674, Control_c, 0, 64, 93
1, 653689, Control_c, 0, 64, 99
1, 653692, Note_off_c, 0, 44, 41
1, 653704, Control_c, 0, 64, 106
1, 653719, Control_c, 0, 64, 116
1, 653734, Control_c, 0, 64, 127
1, 653933, Note_on_c, 0, 44, 32
1, 654136, Note_off_c, 0, 44, 40
1, 654422, Note_on_c, 0, 44, 35
1, 654601, Note_off_c, 0, 53, 44
1, 654628, Note_off_c, 0, 44, 41
1, 654653, Note_off_c, 0, 61, 37
1, 654676, Note_off_c, 0, 56, 43
1, 654923, Note_on_c, 0, 44, 33
1, 654933, Note_on_c, 0, 56, 46
1, 654950, Note_on_c, 0, 53, 38
1, 655125, Note_off_c, 0, 53, 46
1, 655159, Note_off_c, 0, 56, 61
1, 655196, Note_off_c, 0, 44, 41
1, 655442, Note_on_c, 0, 61, 59
1, 655442, Note_on_c, 0, 56, 57
1, 655460, Note_on_c, 0, 44, 38
1, 655675, Note_off_c, 0, 56, 56
1, 655701, Note_off_c, 0, 44, 42
1, 655796, Note_off_c, 0, 61, 56
1, 655900, Note_on_c, 0, 65, 69
1, 655902, Note_on_c, 0, 61, 59
1, 655912, Note_on_c, 0, 44, 41
1, 655936, Control_c, 0, 64, 111
1, 655951, Control_c, 0, 64, 97
1, 655966, Control_c, 0, 64, 89
1, 655980, Control_c, 0, 64, 85
1, 656010, Control_c, 0, 64, 86
1, 656024, Control_c, 0, 64, 90
1, 656039, Control_c, 0, 64, 97
1, 656054, Control_c, 0, 64, 106
1, 656069, Control_c, 0, 64, 124
1, 656084, Control_c, 0, 64, 127
1, 656193, Note_off_c, 0, 65, 60
1, 656200, Note_off_c, 0, 37, 40
1, 656218, Note_off_c, 0, 61, 59
1, 656252, Note_off_c, 0, 44, 43
1, 656560, Note_on_c, 0, 68, 69
1, 656579, Note_on_c, 0, 65, 56
1, 656581, Control_c, 0, 64, 106
1, 656583, Note_on_c, 0, 38, 43
1, 656586, Note_on_c, 0, 44, 42
1, 656590, Note_on_c, 0, 59, 44
1, 656595, Control_c, 0, 64, 92
1, 656610, Control_c, 0, 64, 80
1, 656625, Control_c, 0, 64, 69
1, 656640, Control_c, 0, 64, 59
1, 656655, Control_c, 0, 64, 38
1, 656670, Control_c, 0, 64, 34
1, 656685, Control_c, 0, 64, 26
1, 656700, Control_c, 0, 64, 17
1, 656715, Control_c, 0, 64, 14
1, 656744, Control_c, 0, 64, 26
1, 656759, Control_c, 0, 64, 47
1, 656774, Control_c, 0, 64, 60
1, 656789, Control_c, 0, 64, 65
1, 656804, Control_c, 0, 64, 68
1, 656819, Control_c, 0, 64, 72
1, 656834, Control_c, 0, 64, 77
1, 656848, Control_c, 0, 64, 84
1, 656863, Control_c, 0, 64, 91
1, 656878, Control_c, 0, 64, 98
1, 656893, Control_c, 0, 64, 106
1, 656908, Control_c, 0, 64, 116
1, 656917, Note_off_c, 0, 44, 57
1, 656922, Control_c, 0, 64, 127
1, 657144, Note_on_c, 0, 44, 45
1, 657325, Note_off_c, 0, 44, 60
1, 657531, Note_off_c, 0, 59, 49
1, 657595, Note_on_c, 0, 44, 41
1, 657596, Note_off_c, 0, 68, 42
1, 657647, Note_off_c, 0, 65, 55
1, 657802, Note_off_c, 0, 44, 39
1, 658029, Note_on_c, 0, 66, 61
1, 658044, Note_on_c, 0, 58, 53
1, 658050, Note_on_c, 0, 44, 39
1, 658094, Control_c, 0, 64, 114
1, 658109, Control_c, 0, 64, 98
1, 658124, Control_c, 0, 64, 88
1, 658139, Control_c, 0, 64, 82
1, 658154, Control_c, 0, 64, 79
1, 658183, Control_c, 0, 64, 80
1, 658198, Control_c, 0, 64, 83
1, 658213, Control_c, 0, 64, 88
1, 658227, Control_c, 0, 64, 96
1, 658242, Control_c, 0, 64, 105
1, 658257, Control_c, 0, 64, 116
1, 658259, Note_off_c, 0, 44, 50
1, 658261, Note_off_c, 0, 66, 59
1, 658272, Control_c, 0, 64, 127
1, 658464, Control_c, 0, 67, 8
1, 658479, Control_c, 0, 67, 9
1, 658494, Control_c, 0, 67, 10
1, 658509, Control_c, 0, 67, 12
1, 658524, Control_c, 0, 67, 13
1, 658539, Control_c, 0, 67, 16
1, 658554, Control_c, 0, 67, 20
1, 658560, Note_on_c, 0, 39, 42
1, 658568, Control_c, 0, 67, 24
1, 658569, Note_on_c, 0, 63, 63
1, 658578, Note_on_c, 0, 54, 49
1, 658583, Control_c, 0, 64, 103
1, 658583, Control_c, 0, 67, 29
1, 658588, Note_on_c, 0, 44, 40
1, 658598, Control_c, 0, 64, 88
1, 658598, Control_c, 0, 67, 33
1, 658621, Control_c, 0, 64, 76
1, 658621, Control_c, 0, 67, 37
1, 658636, Control_c, 0, 64, 65
1, 658636, Control_c, 0, 67, 40
1, 658650, Control_c, 0, 64, 32
1, 658650, Control_c, 0, 67, 42
1, 658665, Control_c, 0, 64, 0
1, 658665, Control_c, 0, 67, 44
1, 658680, Control_c, 0, 67, 45
1, 658695, Control_c, 0, 67, 46
1, 658710, Control_c, 0, 67, 47
1, 658724, Control_c, 0, 64, 33
1, 658736, Note_off_c, 0, 38, 42
1, 658736, Note_off_c, 0, 58, 57
1, 658739, Control_c, 0, 64, 59
1, 658754, Control_c, 0, 64, 66
1, 658769, Control_c, 0, 64, 71
1, 658769, Control_c, 0, 67, 47
1, 658784, Control_c, 0, 64, 77
1, 658784, Control_c, 0, 67, 46
1, 658798, Control_c, 0, 64, 86
1, 658798, Control_c, 0, 67, 46
1, 658813, Control_c, 0, 64, 96
1, 658828, Control_c, 0, 64, 108
1, 658828, Control_c, 0, 67, 45
1, 658843, Control_c, 0, 64, 127
1, 658858, Control_c, 0, 67, 45
1, 658882, Note_off_c, 0, 44, 41
1, 658888, Control_c, 0, 67, 44
1, 658938, Note_off_c, 0, 54, 56
1, 658946, Control_c, 0, 67, 44
1, 659020, Control_c, 0, 67, 44
1, 659064, Control_c, 0, 67, 45
1, 659073, Note_on_c, 0, 65, 63
1, 659080, Note_on_c, 0, 60, 50
1, 659084, Note_on_c, 0, 54, 49
1, 659100, Note_on_c, 0, 44, 41
1, 659109, Control_c, 0, 64, 106
1, 659123, Control_c, 0, 64, 85
1, 659138, Control_c, 0, 64, 72
1, 659141, Note_off_c, 0, 63, 54
1, 659153, Control_c, 0, 64, 63
1, 659153, Control_c, 0, 67, 45
1, 659168, Control_c, 0, 64, 54
1, 659183, Control_c, 0, 64, 53
1, 659198, Control_c, 0, 64, 53
1, 659212, Control_c, 0, 64, 59
1, 659212, Control_c, 0, 67, 45
1, 659227, Control_c, 0, 64, 63
1, 659242, Control_c, 0, 64, 67
1, 659242, Control_c, 0, 67, 44
1, 659257, Control_c, 0, 64, 72
1, 659272, Control_c, 0, 64, 77
1, 659272, Control_c, 0, 67, 44
1, 659287, Control_c, 0, 64, 84
1, 659302, Control_c, 0, 64, 93
1, 659316, Control_c, 0, 64, 103
1, 659316, Control_c, 0, 67, 43
1, 659327, Note_off_c, 0, 44, 46
1, 659331, Control_c, 0, 64, 114
1, 659346, Control_c, 0, 64, 127
1, 659381, Note_off_c, 0, 39, 40
1, 659382, Control_c, 0, 67, 43
1, 659445, Note_off_c, 0, 54, 62
1, 659478, Note_off_c, 0, 60, 56
1, 659487, Control_c, 0, 67, 43
1, 659591, Control_c, 0, 67, 44
1, 659665, Control_c, 0, 67, 44
1, 659672, Note_on_c, 0, 61, 60
1, 659680, Note_on_c, 0, 41, 52
1, 659685, Note_on_c, 0, 53, 35
1, 659692, Note_on_c, 0, 44, 43
1, 659710, Control_c, 0, 64, 110
1, 659725, Control_c, 0, 64, 91
1, 659740, Control_c, 0, 64, 76
1, 659740, Control_c, 0, 67, 45
1, 659755, Control_c, 0, 64, 65
1, 659770, Control_c, 0, 64, 50
1, 659785, Control_c, 0, 64, 36
1, 659800, Control_c, 0, 64, 30
1, 659814, Control_c, 0, 64, 0
1, 659829, Control_c, 0, 67, 44
1, 659873, Control_c, 0, 64, 27
1, 659873, Control_c, 0, 67, 44
1, 659888, Control_c, 0, 64, 53
1, 659903, Control_c, 0, 64, 63
1, 659903, Control_c, 0, 67, 43
1, 659918, Control_c, 0, 64, 67
1, 659918, Control_c, 0, 67, 43
1, 659932, Control_c, 0, 64, 71
1, 659932, Control_c, 0, 67, 42
1, 659947, Control_c, 0, 64, 77
1, 659955, Note_off_c, 0, 44, 58
1, 659962, Control_c, 0, 64, 84
1, 659962, Control_c, 0, 67, 42
1, 659977, Control_c, 0, 64, 95
1, 659991, Control_c, 0, 64, 105
1, 660006, Control_c, 0, 64, 121
1, 660006, Control_c, 0, 67, 41
1, 660021, Control_c, 0, 64, 127
1, 660177, Control_c, 0, 67, 42
1, 660214, Note_on_c, 0, 44, 36
1, 660223, Control_c, 0, 67, 42
1, 660296, Control_c, 0, 67, 43
1, 660311, Control_c, 0, 67, 43
1, 660326, Control_c, 0, 67, 44
1, 660370, Control_c, 0, 67, 44
1, 660379, Note_off_c, 0, 44, 40
1, 660400, Control_c, 0, 67, 45
1, 660444, Control_c, 0, 67, 45
1, 660474, Control_c, 0, 67, 46
1, 660533, Control_c, 0, 67, 46
1, 660578, Control_c, 0, 67, 47
1, 660608, Control_c, 0, 67, 47
1, 660630, Note_off_c, 0, 65, 40
1, 660682, Control_c, 0, 67, 48
1, 660696, Control_c, 0, 64, 105
1, 660697, Note_on_c, 0, 37, 53
1, 660711, Control_c, 0, 64, 88
1, 660724, Note_on_c, 0, 44, 26
1, 660726, Control_c, 0, 64, 75
1, 660741, Control_c, 0, 64, 63
1, 660741, Control_c, 0, 67, 48
1, 660755, Control_c, 0, 64, 38
1, 660770, Control_c, 0, 64, 26
1, 660785, Control_c, 0, 64, 24
1, 660800, Control_c, 0, 64, 21
1, 660829, Control_c, 0, 67, 49
1, 660867, Control_c, 0, 64, 35
1, 660882, Control_c, 0, 64, 50
1, 660896, Control_c, 0, 64, 60
1, 660911, Control_c, 0, 64, 64
1, 660926, Control_c, 0, 64, 67
1, 660937, Note_off_c, 0, 41, 54
1, 660941, Control_c, 0, 64, 69
1, 660954, Note_off_c, 0, 44, 44
1, 660956, Control_c, 0, 64, 72
1, 660970, Control_c, 0, 64, 76
1, 660985, Control_c, 0, 64, 81
1, 660985, Control_c, 0, 67, 48
1, 661001, Control_c, 0, 64, 85
1, 661016, Control_c, 0, 64, 90
1, 661016, Control_c, 0, 67, 48
1, 661031, Control_c, 0, 64, 95
1, 661045, Control_c, 0, 64, 99
1, 661045, Control_c, 0, 67, 47
1, 661060, Control_c, 0, 64, 104
1, 661075, Control_c, 0, 64, 113
1, 661090, Control_c, 0, 64, 127
1, 661149, Control_c, 0, 67, 47
1, 661194, Note_on_c, 0, 44, 41
1, 661278, Note_off_c, 0, 53, 44
1, 661310, Control_c, 0, 67, 47
1, 661399, Note_off_c, 0, 61, 36
1, 661417, Note_off_c, 0, 44, 36
1, 661458, Control_c, 0, 67, 48
1, 661591, Control_c, 0, 67, 48
1, 661688, Note_on_c, 0, 61, 59
1, 661692, Note_on_c, 0, 44, 30
1, 661697, Note_on_c, 0, 53, 47
1, 661699, Note_on_c, 0, 34, 39
1, 661700, Note_on_c, 0, 58, 53
1, 661732, Control_c, 0, 64, 102
1, 661747, Control_c, 0, 64, 88
1, 661761, Control_c, 0, 64, 76
1, 661776, Control_c, 0, 64, 64
1, 661793, Control_c, 0, 64, 38
1, 661807, Control_c, 0, 64, 0
1, 661847, Note_off_c, 0, 37, 45
1, 661881, Control_c, 0, 67, 48
1, 661911, Control_c, 0, 67, 47
1, 661940, Control_c, 0, 64, 30
1, 661940, Control_c, 0, 67, 47
1, 661955, Control_c, 0, 64, 50
1, 661958, Note_off_c, 0, 44, 44
1, 661970, Control_c, 0, 64, 62
1, 661970, Control_c, 0, 67, 46
1, 661985, Control_c, 0, 64, 66
1, 662000, Control_c, 0, 64, 69
1, 662015, Control_c, 0, 64, 72
1, 662029, Control_c, 0, 64, 76
1, 662029, Control_c, 0, 67, 46
1, 662044, Control_c, 0, 64, 81
1, 662059, Control_c, 0, 64, 86
1, 662074, Control_c, 0, 64, 92
1, 662089, Control_c, 0, 64, 97
1, 662104, Control_c, 0, 64, 103
1, 662119, Control_c, 0, 64, 111
1, 662133, Control_c, 0, 64, 127
1, 662211, Note_on_c, 0, 44, 36
1, 662222, Control_c, 0, 67, 46
1, 662286, Note_off_c, 0, 53, 53
1, 662326, Control_c, 0, 67, 47
1, 662340, Control_c, 0, 67, 47
1, 662407, Control_c, 0, 67, 48
1, 662423, Note_off_c, 0, 58, 50
1, 662426, Note_off_c, 0, 34, 41
1, 662428, Note_off_c, 0, 44, 42
1, 662452, Control_c, 0, 67, 48
1, 662477, Note_off_c, 0, 61, 60
1, 662735, Control_c, 0, 67, 49
1, 662754, Note_on_c, 0, 63, 55
1, 662763, Note_on_c, 0, 32, 37
1, 662764, Control_c, 0, 64, 113
1, 662768, Note_on_c, 0, 61, 50
1, 662770, Note_on_c, 0, 44, 36
1, 662777, Note_on_c, 0, 54, 42
1, 662779, Control_c, 0, 64, 95
1, 662794, Control_c, 0, 64, 82
1, 662808, Control_c, 0, 64, 72
1, 662823, Control_c, 0, 64, 62
1, 662838, Control_c, 0, 64, 50
1, 662853, Control_c, 0, 64, 46
1, 662868, Control_c, 0, 64, 46
1, 662882, Control_c, 0, 64, 45
1, 662897, Control_c, 0, 67, 48
1, 662912, Control_c, 0, 64, 48
1, 662927, Control_c, 0, 64, 57
1, 662942, Control_c, 0, 64, 63
1, 662942, Control_c, 0, 67, 48
1, 662956, Control_c, 0, 64, 66
1, 662971, Control_c, 0, 64, 69
1, 662986, Control_c, 0, 64, 73
1, 663001, Control_c, 0, 64, 77
1, 663001, Control_c, 0, 67, 47
1, 663016, Control_c, 0, 64, 84
1, 663031, Control_c, 0, 64, 91
1, 663046, Control_c, 0, 64, 98
1, 663046, Control_c, 0, 67, 46
1, 663061, Control_c, 0, 64, 106
1, 663076, Control_c, 0, 64, 118
1, 663090, Control_c, 0, 64, 127
1, 663112, Control_c, 0, 67, 46
1, 663123, Note_off_c, 0, 44, 44
1, 663355, Note_on_c, 0, 44, 32
1, 663395, Control_c, 0, 67, 46
1, 663469, Control_c, 0, 67, 47
1, 663484, Control_c, 0, 67, 47
1, 663498, Note_off_c, 0, 44, 43
1, 663513, Control_c, 0, 67, 48
1, 663558, Control_c, 0, 67, 48
1, 663602, Control_c, 0, 67, 49
1, 663631, Control_c, 0, 67, 49
1, 663676, Control_c, 0, 67, 50
1, 663705, Control_c, 0, 67, 50
1, 663720, Control_c, 0, 67, 51
1, 663735, Control_c, 0, 67, 54
1, 663750, Control_c, 0, 67, 61
1, 663765, Control_c, 0, 64, 113
1, 663765, Control_c, 0, 67, 65
1, 663779, Control_c, 0, 64, 94
1, 663779, Control_c, 0, 67, 68
1, 663782, Note_on_c, 0, 44, 36
1, 663784, Note_on_c, 0, 60, 41
1, 663794, Control_c, 0, 64, 81
1, 663794, Control_c, 0, 67, 71
1, 663809, Control_c, 0, 64, 70
1, 663809, Control_c, 0, 67, 73
1, 663824, Control_c, 0, 64, 55
1, 663824, Control_c, 0, 67, 75
1, 663839, Control_c, 0, 64, 0
1, 663839, Control_c, 0, 67, 77
1, 663859, Note_off_c, 0, 61, 56
1, 663861, Control_c, 0, 67, 79
1, 663876, Control_c, 0, 67, 82
1, 663891, Control_c, 0, 67, 84
1, 663906, Control_c, 0, 67, 87
1, 663920, Control_c, 0, 67, 89
1, 663935, Control_c, 0, 67, 92
1, 663950, Control_c, 0, 67, 93
1, 663964, Control_c, 0, 67, 94
1, 663979, Control_c, 0, 64, 17
1, 663994, Control_c, 0, 64, 60
1, 664009, Control_c, 0, 64, 67
1, 664024, Control_c, 0, 64, 73
1, 664039, Control_c, 0, 64, 82
1, 664053, Control_c, 0, 64, 92
1, 664068, Control_c, 0, 64, 103
1, 664083, Control_c, 0, 64, 114
1, 664083, Control_c, 0, 67, 94
1, 664098, Control_c, 0, 64, 127
1, 664098, Control_c, 0, 67, 93
1, 664128, Control_c, 0, 67, 93
1, 664140, Note_off_c, 0, 44, 44
1, 664172, Control_c, 0, 67, 92
1, 664232, Control_c, 0, 67, 92
1, 664332, Note_on_c, 0, 44, 29
1, 664410, Control_c, 0, 67, 91
1, 664446, Note_off_c, 0, 54, 52
1, 664478, Note_off_c, 0, 60, 61
1, 664484, Control_c, 0, 67, 91
1, 664495, Note_off_c, 0, 44, 41
1, 664817, Note_on_c, 0, 65, 51
1, 664826, Note_on_c, 0, 44, 38
1, 664829, Note_on_c, 0, 60, 42
1, 664831, Note_on_c, 0, 54, 35
1, 664847, Control_c, 0, 64, 102
1, 664861, Control_c, 0, 64, 89
1, 664876, Control_c, 0, 64, 78
1, 664887, Note_off_c, 0, 63, 49
1, 664891, Control_c, 0, 64, 67
1, 664891, Control_c, 0, 67, 91
1, 664906, Control_c, 0, 64, 53
1, 664906, Control_c, 0, 67, 92
1, 664921, Control_c, 0, 64, 0
1, 664935, Control_c, 0, 67, 92
1, 664981, Control_c, 0, 67, 93
1, 665025, Control_c, 0, 64, 47
1, 665040, Control_c, 0, 64, 62
1, 665055, Control_c, 0, 64, 66
1, 665070, Control_c, 0, 64, 68
1, 665084, Control_c, 0, 64, 72
1, 665088, Note_off_c, 0, 44, 50
1, 665099, Control_c, 0, 64, 76
1, 665114, Control_c, 0, 64, 82
1, 665129, Control_c, 0, 64, 88
1, 665144, Control_c, 0, 64, 94
1, 665158, Control_c, 0, 64, 100
1, 665173, Control_c, 0, 64, 106
1, 665188, Control_c, 0, 64, 114
1, 665202, Control_c, 0, 64, 127
1, 665232, Control_c, 0, 67, 93
1, 665262, Control_c, 0, 67, 94
1, 665291, Control_c, 0, 67, 94
1, 665321, Control_c, 0, 67, 95
1, 665333, Note_on_c, 0, 44, 41
1, 665358, Control_c, 0, 67, 95
1, 665373, Control_c, 0, 67, 96
1, 665388, Control_c, 0, 67, 96
1, 665417, Control_c, 0, 67, 97
1, 665432, Control_c, 0, 67, 102
1, 665447, Control_c, 0, 67, 106
1, 665462, Control_c, 0, 67, 109
1, 665476, Control_c, 0, 67, 111
1, 665491, Control_c, 0, 67, 114
1, 665506, Note_off_c, 0, 54, 45
1, 665506, Control_c, 0, 67, 116
1, 665521, Control_c, 0, 67, 118
1, 665536, Control_c, 0, 67, 120
1, 665551, Control_c, 0, 67, 123
1, 665565, Control_c, 0, 67, 125
1, 665580, Control_c, 0, 67, 127
1, 665613, Note_off_c, 0, 44, 42
1, 665627, Note_off_c, 0, 60, 35
1, 665677, Note_off_c, 0, 65, 34
1, 665893, Control_c, 0, 64, 114
1, 665897, Note_on_c, 0, 44, 30
1, 665900, Note_on_c, 0, 61, 46
1, 665903, Note_on_c, 0, 37, 39
1, 665907, Control_c, 0, 64, 98
1, 665912, Note_on_c, 0, 53, 35
1, 665922, Control_c, 0, 64, 85
1, 665937, Control_c, 0, 64, 74
1, 665952, Control_c, 0, 64, 63
1, 665967, Control_c, 0, 64, 0
1, 666029, Note_off_c, 0, 32, 43
1, 666122, Control_c, 0, 64, 53
1, 666137, Control_c, 0, 64, 63
1, 666152, Control_c, 0, 64, 67
1, 666167, Control_c, 0, 64, 70
1, 666181, Control_c, 0, 64, 74
1, 666196, Control_c, 0, 64, 79
1, 666198, Note_off_c, 0, 44, 53
1, 666211, Control_c, 0, 64, 84
1, 666226, Control_c, 0, 64, 89
1, 666240, Control_c, 0, 64, 93
1, 666255, Control_c, 0, 64, 98
1, 666270, Control_c, 0, 64, 102
1, 666285, Control_c, 0, 64, 108
1, 666300, Control_c, 0, 64, 118
1, 666314, Control_c, 0, 64, 127
1, 666423, Note_on_c, 0, 44, 38
1, 666572, Note_off_c, 0, 44, 48
1, 666868, Note_off_c, 0, 53, 45
1, 666924, Note_on_c, 0, 44, 25
1, 666984, Note_off_c, 0, 61, 48
1, 667121, Note_off_c, 0, 44, 44
1, 667493, Note_on_c, 0, 68, 36
1, 667499, Note_on_c, 0, 56, 31
1, 667501, Note_on_c, 0, 44, 29
1, 667675, Note_off_c, 0, 56, 44
1, 667756, Note_off_c, 0, 68, 61
1, 667786, Note_off_c, 0, 44, 43
1, 667848, Note_off_c, 0, 37, 36
1, 668037, Note_on_c, 0, 72, 40
1, 668042, Note_on_c, 0, 44, 27
1, 668050, Control_c, 0, 64, 111
1, 668054, Note_on_c, 0, 39, 30
1, 668062, Note_on_c, 0, 68, 34
1, 668063, Note_on_c, 0, 60, 22
1, 668065, Control_c, 0, 64, 93
1, 668079, Control_c, 0, 64, 82
1, 668094, Control_c, 0, 64, 73
1, 668109, Control_c, 0, 64, 67
1, 668123, Control_c, 0, 64, 65
1, 668138, Control_c, 0, 64, 66
1, 668153, Control_c, 0, 64, 69
1, 668169, Control_c, 0, 64, 72
1, 668184, Control_c, 0, 64, 76
1, 668199, Control_c, 0, 64, 82
1, 668214, Control_c, 0, 64, 89
1, 668228, Control_c, 0, 64, 98
1, 668243, Control_c, 0, 64, 113
1, 668258, Control_c, 0, 64, 127
1, 668280, Note_off_c, 0, 72, 59
1, 668284, Note_off_c, 0, 44, 44
1, 668292, Note_off_c, 0, 60, 45
1, 668316, Note_off_c, 0, 39, 40
1, 668340, Note_off_c, 0, 68, 41
1, 668522, Note_on_c, 0, 73, 52
1, 668546, Note_on_c, 0, 44, 33
1, 668552, Note_on_c, 0, 37, 36
1, 668552, Note_on_c, 0, 61, 35
1, 668552, Note_on_c, 0, 68, 39
1, 668561, Control_c, 0, 64, 97
1, 668576, Control_c, 0, 64, 81
1, 668591, Control_c, 0, 64, 69
1, 668606, Control_c, 0, 64, 61
1, 668621, Control_c, 0, 64, 56
1, 668635, Control_c, 0, 64, 59
1, 668650, Control_c, 0, 64, 63
1, 668665, Control_c, 0, 64, 66
1, 668680, Control_c, 0, 64, 71
1, 668695, Control_c, 0, 64, 77
1, 668710, Control_c, 0, 64, 85
1, 668725, Control_c, 0, 64, 96
1, 668739, Control_c, 0, 64, 109
1, 668754, Control_c, 0, 64, 127
1, 668779, Note_off_c, 0, 61, 42
1, 668798, Note_off_c, 0, 68, 56
1, 668820, Note_off_c, 0, 44, 43
1, 668825, Note_off_c, 0, 73, 58
1, 668835, Note_off_c, 0, 37, 40
1, 669073, Note_on_c, 0, 75, 48
1, 669076, Note_on_c, 0, 68, 40
1, 669079, Note_on_c, 0, 44, 27
1, 669080, Note_on_c, 0, 63, 36
1, 669081, Control_c, 0, 64, 98
1, 669085, Note_on_c, 0, 36, 32
1, 669103, Control_c, 0, 64, 79
1, 669118, Control_c, 0, 64, 66
1, 669133, Control_c, 0, 64, 0
1, 669266, Control_c, 0, 64, 28
1, 669281, Control_c, 0, 64, 63
1, 669296, Control_c, 0, 64, 71
1, 669311, Control_c, 0, 64, 80
1, 669325, Control_c, 0, 64, 91
1, 669340, Control_c, 0, 64, 104
1, 669355, Control_c, 0, 64, 127
1, 669405, Note_off_c, 0, 44, 43
1, 669601, Note_on_c, 0, 44, 23
1, 669824, Note_off_c, 0, 44, 42
1, 670078, Note_on_c, 0, 44, 33
1, 670148, Note_off_c, 0, 63, 33
1, 670265, Note_off_c, 0, 68, 38
1, 670274, Note_off_c, 0, 75, 38
1, 670310, Note_off_c, 0, 44, 42
1, 670565, Note_on_c, 0, 44, 32
1, 670576, Note_on_c, 0, 75, 46
1, 670600, Note_on_c, 0, 68, 34
1, 670606, Note_on_c, 0, 63, 30
1, 670796, Note_off_c, 0, 63, 41
1, 670850, Note_off_c, 0, 44, 42
1, 670862, Note_off_c, 0, 75, 51
1, 670868, Note_off_c, 0, 36, 39
1, 670936, Note_off_c, 0, 68, 37
1, 671109, Note_on_c, 0, 77, 50
1, 671118, Note_on_c, 0, 44, 31
1, 671122, Note_on_c, 0, 65, 34
1, 671133, Note_on_c, 0, 35, 30
1, 671134, Note_on_c, 0, 74, 39
1, 671134, Control_c, 0, 64, 117
1, 671145, Note_on_c, 0, 68, 36
1, 671148, Control_c, 0, 64, 95
1, 671163, Control_c, 0, 64, 80
1, 671178, Control_c, 0, 64, 67
1, 671193, Control_c, 0, 64, 50
1, 671208, Control_c, 0, 64, 44
1, 671223, Control_c, 0, 64, 47
1, 671237, Control_c, 0, 64, 53
1, 671252, Control_c, 0, 64, 61
1, 671267, Control_c, 0, 64, 65
1, 671282, Control_c, 0, 64, 70
1, 671297, Control_c, 0, 64, 76
1, 671312, Control_c, 0, 64, 83
1, 671327, Control_c, 0, 64, 91
1, 671348, Control_c, 0, 64, 100
1, 671363, Control_c, 0, 64, 109
1, 671366, Note_off_c, 0, 44, 42
1, 671379, Control_c, 0, 64, 127
1, 671416, Note_off_c, 0, 65, 34
1, 671430, Note_off_c, 0, 74, 38
1, 671443, Note_off_c, 0, 77, 38
1, 671446, Note_off_c, 0, 68, 41
1, 671613, Note_on_c, 0, 77, 53
1, 671628, Note_on_c, 0, 74, 43
1, 671629, Note_on_c, 0, 44, 32
1, 671649, Note_on_c, 0, 68, 27
1, 671652, Note_on_c, 0, 65, 23
1, 671838, Note_off_c, 0, 35, 41
1, 671843, Note_off_c, 0, 44, 41
1, 671846, Note_off_c, 0, 77, 55
1, 671850, Note_off_c, 0, 65, 42
1, 671878, Note_off_c, 0, 74, 44
1, 671896, Note_off_c, 0, 68, 41
1, 672188, Control_c, 0, 64, 126
1, 672194, Note_on_c, 0, 78, 47
1, 672202, Control_c, 0, 64, 100
1, 672213, Note_on_c, 0, 73, 45
1, 672216, Note_on_c, 0, 46, 36
1, 672217, Control_c, 0, 64, 87
1, 672221, Note_on_c, 0, 34, 28
1, 672222, Note_on_c, 0, 66, 32
1, 672232, Control_c, 0, 64, 76
1, 672247, Control_c, 0, 64, 64
1, 672262, Control_c, 0, 64, 44
1, 672276, Control_c, 0, 64, 23
1, 672291, Control_c, 0, 64, 0
1, 672409, Control_c, 0, 64, 38
1, 672425, Control_c, 0, 64, 62
1, 672440, Control_c, 0, 64, 67
1, 672455, Control_c, 0, 64, 70
1, 672469, Control_c, 0, 64, 74
1, 672484, Control_c, 0, 64, 78
1, 672499, Control_c, 0, 64, 84
1, 672514, Control_c, 0, 64, 91
1, 672529, Control_c, 0, 64, 99
1, 672543, Control_c, 0, 64, 106
1, 672544, Note_off_c, 0, 46, 41
1, 672558, Control_c, 0, 64, 116
1, 672573, Control_c, 0, 64, 127
1, 672742, Note_on_c, 0, 46, 33
1, 672986, Note_off_c, 0, 46, 40
1, 673142, Note_off_c, 0, 78, 46
1, 673232, Note_off_c, 0, 66, 42
1, 673244, Note_off_c, 0, 73, 59
1, 673271, Note_on_c, 0, 46, 19
1, 673465, Note_off_c, 0, 46, 40
1, 673795, Note_on_c, 0, 46, 32
1, 673807, Note_on_c, 0, 66, 36
1, 673818, Note_on_c, 0, 54, 15
1, 674023, Note_off_c, 0, 54, 43
1, 674057, Note_off_c, 0, 46, 41
1, 674081, Note_off_c, 0, 66, 57
1, 674318, Note_on_c, 0, 70, 48
1, 674351, Note_on_c, 0, 46, 27
1, 674356, Note_on_c, 0, 58, 41
1, 674358, Control_c, 0, 64, 114
1, 674373, Control_c, 0, 64, 95
1, 674388, Control_c, 0, 64, 84
1, 674403, Control_c, 0, 64, 76
1, 674418, Control_c, 0, 64, 71
1, 674433, Control_c, 0, 64, 69
1, 674447, Control_c, 0, 64, 70
1, 674462, Control_c, 0, 64, 72
1, 674477, Control_c, 0, 64, 74
1, 674491, Control_c, 0, 64, 78
1, 674506, Control_c, 0, 64, 83
1, 674521, Control_c, 0, 64, 91
1, 674536, Control_c, 0, 64, 99
1, 674551, Control_c, 0, 64, 111
1, 674567, Control_c, 0, 64, 127
1, 674653, Note_off_c, 0, 58, 59
1, 674654, Note_off_c, 0, 46, 42
1, 674746, Note_off_c, 0, 70, 48
1, 674864, Note_on_c, 0, 71, 46
1, 674877, Note_on_c, 0, 46, 30
1, 674891, Note_on_c, 0, 59, 34
1, 674907, Control_c, 0, 64, 101
1, 674922, Control_c, 0, 64, 87
1, 674937, Control_c, 0, 64, 76
1, 674952, Control_c, 0, 64, 68
1, 674967, Control_c, 0, 64, 64
1, 674981, Control_c, 0, 64, 63
1, 674996, Control_c, 0, 64, 64
1, 675011, Control_c, 0, 64, 65
1, 675026, Control_c, 0, 64, 68
1, 675041, Control_c, 0, 64, 71
1, 675056, Control_c, 0, 64, 75
1, 675070, Control_c, 0, 64, 81
1, 675092, Control_c, 0, 64, 90
1, 675107, Control_c, 0, 64, 98
1, 675122, Control_c, 0, 64, 111
1, 675136, Control_c, 0, 64, 127
1, 675156, Note_off_c, 0, 59, 57
1, 675182, Note_off_c, 0, 46, 42
1, 675200, Note_off_c, 0, 71, 62
1, 675205, Note_off_c, 0, 34, 42
1, 675473, Note_on_c, 0, 34, 36
1, 675475, Note_on_c, 0, 73, 54
1, 675493, Control_c, 0, 64, 103
1, 675495, Note_on_c, 0, 46, 31
1, 675495, Note_on_c, 0, 61, 38
1, 675500, Note_on_c, 0, 66, 38
1, 675508, Control_c, 0, 64, 91
1, 675523, Control_c, 0, 64, 81
1, 675537, Control_c, 0, 64, 73
1, 675552, Control_c, 0, 64, 65
1, 675567, Control_c, 0, 64, 55
1, 675582, Control_c, 0, 64, 45
1, 675597, Control_c, 0, 64, 33
1, 675611, Control_c, 0, 64, 17
1, 675626, Control_c, 0, 64, 0
1, 675656, Control_c, 0, 64, 31
1, 675671, Control_c, 0, 64, 55
1, 675685, Control_c, 0, 64, 65
1, 675700, Control_c, 0, 64, 69
1, 675715, Control_c, 0, 64, 74
1, 675730, Control_c, 0, 64, 81
1, 675745, Control_c, 0, 64, 90
1, 675759, Control_c, 0, 64, 99
1, 675774, Control_c, 0, 64, 110
1, 675789, Control_c, 0, 64, 127
1, 675798, Note_off_c, 0, 46, 41
1, 676022, Note_on_c, 0, 46, 25
1, 676263, Note_off_c, 0, 46, 41
1, 676483, Note_off_c, 0, 61, 40
1, 676493, Note_on_c, 0, 46, 34
1, 676558, Note_off_c, 0, 66, 43
1, 676570, Note_off_c, 0, 73, 36
1, 676753, Note_off_c, 0, 46, 41
1, 677015, Note_on_c, 0, 46, 30
1, 677020, Note_on_c, 0, 73, 45
1, 677037, Note_on_c, 0, 66, 39
1, 677041, Note_on_c, 0, 61, 23
1, 677236, Note_off_c, 0, 61, 42
1, 677286, Note_off_c, 0, 46, 41
1, 677291, Note_off_c, 0, 73, 61
1, 677298, Note_off_c, 0, 34, 41
1, 677358, Note_off_c, 0, 66, 41
1, 677582, Note_on_c, 0, 34, 24
1, 677585, Note_on_c, 0, 73, 47
1, 677587, Note_on_c, 0, 75, 46
1, 677589, Note_on_c, 0, 46, 29
1, 677590, Control_c, 0, 64, 103
1, 677597, Note_on_c, 0, 63, 33
1, 677605, Control_c, 0, 64, 88
1, 677612, Note_on_c, 0, 66, 34
1, 677620, Control_c, 0, 64, 76
1, 677635, Control_c, 0, 64, 67
1, 677650, Control_c, 0, 64, 62
1, 677664, Control_c, 0, 64, 61
1, 677679, Control_c, 0, 64, 63
1, 677694, Control_c, 0, 64, 65
1, 677709, Control_c, 0, 64, 68
1, 677724, Control_c, 0, 64, 72
1, 677739, Control_c, 0, 64, 77
1, 677754, Control_c, 0, 64, 84
1, 677769, Control_c, 0, 64, 91
1, 677784, Control_c, 0, 64, 98
1, 677799, Control_c, 0, 64, 104
1, 677813, Control_c, 0, 64, 114
1, 677828, Control_c, 0, 64, 127
1, 677857, Note_off_c, 0, 46, 41
1, 677895, Note_off_c, 0, 73, 38
1, 677900, Note_off_c, 0, 63, 42
1, 677905, Note_off_c, 0, 75, 37
1, 677924, Note_off_c, 0, 66, 39
1, 678126, Note_on_c, 0, 75, 42
1, 678131, Note_on_c, 0, 73, 47
1, 678132, Note_on_c, 0, 63, 26
1, 678135, Note_on_c, 0, 46, 31
1, 678150, Note_on_c, 0, 66, 29
1, 678295, Note_off_c, 0, 66, 43
1, 678315, Note_off_c, 0, 63, 43
1, 678389, Note_off_c, 0, 46, 38
1, 678414, Note_off_c, 0, 34, 40
1, 678435, Note_off_c, 0, 73, 56
1, 678444, Note_off_c, 0, 75, 37
1, 678738, Note_on_c, 0, 77, 44
1, 678740, Control_c, 0, 64, 106
1, 678743, Note_on_c, 0, 33, 28
1, 678751, Note_on_c, 0, 45, 33
1, 678755, Control_c, 0, 64, 92
1, 678761, Note_on_c, 0, 72, 32
1, 678767, Note_on_c, 0, 65, 18
1, 678770, Control_c, 0, 64, 81
1, 678785, Control_c, 0, 64, 71
1, 678800, Control_c, 0, 64, 61
1, 678815, Control_c, 0, 64, 45
1, 678836, Control_c, 0, 64, 37
1, 678851, Control_c, 0, 64, 31
1, 678866, Control_c, 0, 64, 21
1, 678881, Control_c, 0, 64, 14
1, 678910, Control_c, 0, 64, 17
1, 678925, Control_c, 0, 64, 36
1, 678940, Control_c, 0, 64, 53
1, 678955, Control_c, 0, 64, 62
1, 678970, Control_c, 0, 64, 66
1, 678985, Control_c, 0, 64, 70
1, 679000, Control_c, 0, 64, 74
1, 679015, Control_c, 0, 64, 80
1, 679030, Control_c, 0, 64, 86
1, 679044, Control_c, 0, 64, 93
1, 679059, Control_c, 0, 64, 99
1, 679074, Control_c, 0, 64, 107
1, 679088, Control_c, 0, 64, 114
1, 679100, Note_off_c, 0, 45, 42
1, 679103, Control_c, 0, 64, 127
1, 679322, Note_on_c, 0, 45, 29
1, 679527, Note_off_c, 0, 45, 39
1, 679808, Note_on_c, 0, 45, 34
1, 679837, Note_off_c, 0, 65, 42
1, 679977, Note_off_c, 0, 77, 38
1, 680021, Note_off_c, 0, 72, 42
1, 680031, Note_off_c, 0, 45, 44
1, 680301, Note_on_c, 0, 72, 47
1, 680307, Note_on_c, 0, 45, 26
1, 680438, Control_c, 0, 67, 126
1, 680453, Control_c, 0, 67, 124
1, 680468, Control_c, 0, 67, 122
1, 680482, Control_c, 0, 67, 119
1, 680497, Control_c, 0, 67, 116
1, 680512, Control_c, 0, 67, 112
1, 680527, Control_c, 0, 67, 108
1, 680541, Note_off_c, 0, 45, 44
1, 680541, Control_c, 0, 67, 104
1, 680556, Control_c, 0, 67, 100
1, 680571, Control_c, 0, 67, 95
1, 680579, Note_off_c, 0, 72, 51
1, 680586, Control_c, 0, 67, 90
1, 680601, Control_c, 0, 67, 85
1, 680615, Control_c, 0, 67, 80
1, 680630, Control_c, 0, 67, 76
1, 680645, Control_c, 0, 67, 72
1, 680660, Control_c, 0, 67, 69
1, 680675, Control_c, 0, 67, 67
1, 680690, Control_c, 0, 67, 64
1, 680705, Control_c, 0, 67, 62
1, 680720, Control_c, 0, 67, 60
1, 680734, Control_c, 0, 67, 58
1, 680749, Control_c, 0, 67, 57
1, 680764, Control_c, 0, 67, 56
1, 680779, Control_c, 0, 67, 54
1, 680794, Control_c, 0, 67, 53
1, 680794, Note_on_c, 0, 69, 37
1, 680800, Note_on_c, 0, 45, 30
1, 680807, Note_on_c, 0, 77, 48
1, 680808, Control_c, 0, 67, 52
1, 680823, Control_c, 0, 67, 50
1, 680838, Control_c, 0, 67, 49
1, 680852, Control_c, 0, 67, 48
1, 680867, Control_c, 0, 67, 47
1, 680882, Control_c, 0, 67, 46
1, 680897, Control_c, 0, 67, 44
1, 680912, Control_c, 0, 67, 42
1, 680926, Control_c, 0, 67, 41
1, 680941, Control_c, 0, 67, 39
1, 680957, Control_c, 0, 67, 37
1, 680972, Control_c, 0, 67, 35
1, 680974, Note_off_c, 0, 69, 34
1, 680987, Control_c, 0, 67, 33
1, 681002, Control_c, 0, 67, 30
1, 681008, Note_off_c, 0, 45, 44
1, 681017, Control_c, 0, 67, 28
1, 681031, Control_c, 0, 67, 26
1, 681046, Control_c, 0, 67, 24
1, 681061, Control_c, 0, 67, 21
1, 681083, Control_c, 0, 67, 19
1, 681098, Control_c, 0, 67, 18
1, 681113, Control_c, 0, 67, 17
1, 681128, Control_c, 0, 67, 16
1, 681136, Note_off_c, 0, 77, 59
1, 681143, Control_c, 0, 67, 15
1, 681266, Note_on_c, 0, 79, 58
1, 681270, Note_on_c, 0, 45, 31
1, 681283, Note_on_c, 0, 72, 43
1, 681444, Note_off_c, 0, 72, 39
1, 681483, Note_off_c, 0, 45, 41
1, 681500, Note_off_c, 0, 33, 40
1, 681513, Control_c, 0, 67, 16
1, 681554, Note_off_c, 0, 79, 58
1, 681557, Control_c, 0, 67, 16
1, 681602, Control_c, 0, 67, 17
1, 681646, Control_c, 0, 67, 17
1, 681675, Control_c, 0, 67, 18
1, 681720, Control_c, 0, 67, 18
1, 681735, Control_c, 0, 67, 19
1, 681766, Control_c, 0, 67, 19
1, 681810, Control_c, 0, 67, 20
1, 681861, Control_c, 0, 67, 20
1, 681864, Note_on_c, 0, 81, 53
1, 681885, Note_on_c, 0, 33, 26
1, 681888, Note_on_c, 0, 45, 28
1, 681890, Note_on_c, 0, 77, 40
1, 681906, Control_c, 0, 64, 119
1, 681906, Control_c, 0, 67, 21
1, 681921, Control_c, 0, 64, 100
1, 681936, Control_c, 0, 64, 87
1, 681951, Control_c, 0, 64, 77
1, 681966, Control_c, 0, 64, 69
1, 681980, Control_c, 0, 64, 65
1, 681995, Control_c, 0, 64, 64
1, 682010, Control_c, 0, 64, 64
1, 682025, Control_c, 0, 64, 65
1, 682040, Control_c, 0, 64, 66
1, 682055, Control_c, 0, 64, 69
1, 682069, Control_c, 0, 64, 72
1, 682084, Control_c, 0, 64, 78
1, 682099, Control_c, 0, 64, 85
1, 682113, Control_c, 0, 64, 92
1, 682128, Control_c, 0, 64, 101
1, 682143, Control_c, 0, 64, 110
1, 682159, Control_c, 0, 64, 127
1, 682198, Note_off_c, 0, 45, 43
1, 682414, Note_on_c, 0, 45, 32
1, 682414, Note_off_c, 0, 81, 52
1, 682484, Control_c, 0, 67, 21
1, 682544, Control_c, 0, 67, 22
1, 682554, Note_off_c, 0, 77, 44
1, 682611, Control_c, 0, 67, 22
1, 682639, Note_off_c, 0, 45, 44
1, 682641, Control_c, 0, 67, 23
1, 682729, Control_c, 0, 67, 23
1, 682789, Control_c, 0, 67, 24
1, 682900, Note_on_c, 0, 45, 40
1, 682982, Control_c, 0, 67, 24
1, 683086, Note_off_c, 0, 45, 47
1, 683366, Note_on_c, 0, 65, 39
1, 683369, Note_on_c, 0, 45, 29
1, 683370, Note_on_c, 0, 69, 50
1, 683552, Note_off_c, 0, 65, 56
1, 683553, Control_c, 0, 67, 24
1, 683597, Control_c, 0, 67, 23
1, 683623, Note_off_c, 0, 69, 62
1, 683626, Note_off_c, 0, 45, 44
1, 683656, Control_c, 0, 67, 23
1, 683789, Control_c, 0, 67, 22
1, 683833, Control_c, 0, 67, 22
1, 683856, Note_on_c, 0, 69, 50
1, 683864, Note_on_c, 0, 72, 57
1, 683879, Note_on_c, 0, 45, 34
1, 683937, Control_c, 0, 67, 21
1, 684026, Control_c, 0, 67, 21
1, 684077, Note_off_c, 0, 45, 45
1, 684077, Control_c, 0, 67, 20
1, 684088, Note_off_c, 0, 69, 54
1, 684107, Control_c, 0, 67, 20
1, 684168, Control_c, 0, 67, 19
1, 684172, Note_off_c, 0, 72, 59
1, 684293, Note_on_c, 0, 77, 66
1, 684298, Note_on_c, 0, 72, 51
1, 684306, Note_on_c, 0, 45, 43
1, 684449, Note_off_c, 0, 33, 39
1, 684472, Note_off_c, 0, 45, 43
1, 684491, Note_off_c, 0, 72, 57
1, 684512, Note_off_c, 0, 77, 52
1, 684538, Control_c, 0, 67, 20
1, 684568, Control_c, 0, 67, 20
1, 684627, Control_c, 0, 67, 21
1, 684745, Control_c, 0, 67, 21
1, 684803, Note_on_c, 0, 44, 47
1, 684804, Control_c, 0, 67, 22
1, 684816, Note_on_c, 0, 32, 41
1, 684856, Control_c, 0, 67, 22
1, 684882, Note_on_c, 0, 72, 50
1, 684886, Control_c, 0, 67, 23
1, 684943, Note_on_c, 0, 77, 58
1, 684961, Control_c, 0, 64, 109
1, 684976, Control_c, 0, 64, 93
1, 684991, Control_c, 0, 64, 83
1, 685005, Control_c, 0, 64, 73
1, 685020, Control_c, 0, 64, 64
1, 685025, Note_on_c, 0, 84, 73
1, 685035, Control_c, 0, 64, 43
1, 685050, Control_c, 0, 64, 0
1, 685109, Control_c, 0, 67, 22
1, 685123, Control_c, 0, 67, 22
1, 685154, Control_c, 0, 67, 21
1, 685169, Control_c, 0, 64, 41
1, 685184, Control_c, 0, 64, 63
1, 685184, Control_c, 0, 67, 21
1, 685198, Control_c, 0, 64, 69
1, 685213, Control_c, 0, 64, 75
1, 685213, Control_c, 0, 67, 20
1, 685228, Control_c, 0, 64, 84
1, 685243, Control_c, 0, 64, 94
1, 685243, Control_c, 0, 67, 20
1, 685258, Control_c, 0, 64, 109
1, 685258, Control_c, 0, 67, 19
1, 685272, Control_c, 0, 64, 127
1, 685287, Control_c, 0, 67, 19
1, 685317, Control_c, 0, 67, 18
1, 685331, Control_c, 0, 67, 18
1, 685345, Note_off_c, 0, 44, 41
1, 685376, Control_c, 0, 67, 17
1, 685421, Control_c, 0, 67, 17
1, 685524, Control_c, 0, 67, 16
1, 685611, Note_on_c, 0, 44, 59
1, 685821, Note_off_c, 0, 84, 57
1, 685841, Note_off_c, 0, 44, 62
1, 685920, Note_off_c, 0, 72, 50
1, 685963, Note_off_c, 0, 77, 57
1, 686106, Note_on_c, 0, 44, 59
1, 686169, Control_c, 0, 67, 17
1, 686273, Control_c, 0, 67, 17
1, 686360, Note_off_c, 0, 44, 59
1, 686369, Control_c, 0, 67, 18
1, 686443, Control_c, 0, 67, 18
1, 686473, Control_c, 0, 67, 19
1, 686548, Control_c, 0, 67, 19
1, 686573, Note_on_c, 0, 65, 62
1, 686574, Note_on_c, 0, 68, 69
1, 686583, Note_on_c, 0, 44, 55
1, 686637, Control_c, 0, 67, 20
1, 686716, Note_off_c, 0, 65, 60
1, 686768, Note_off_c, 0, 68, 61
1, 686842, Note_off_c, 0, 44, 55
1, 686887, Control_c, 0, 67, 19
1, 686902, Control_c, 0, 67, 18
1, 686917, Control_c, 0, 67, 18
1, 686932, Control_c, 0, 67, 17
1, 686947, Control_c, 0, 67, 17
1, 686976, Control_c, 0, 67, 16
1, 686991, Control_c, 0, 67, 16
1, 687021, Control_c, 0, 67, 15
1, 687059, Note_on_c, 0, 72, 71
1, 687072, Note_on_c, 0, 68, 67
1, 687072, Control_c, 0, 67, 15
1, 687079, Note_on_c, 0, 44, 53
1, 687161, Control_c, 0, 67, 14
1, 687206, Control_c, 0, 67, 14
1, 687255, Note_off_c, 0, 68, 59
1, 687316, Note_off_c, 0, 72, 59
1, 687324, Control_c, 0, 67, 13
1, 687347, Note_off_c, 0, 44, 54
1, 687370, Control_c, 0, 67, 13
1, 687419, Note_on_c, 0, 77, 81
1, 687421, Note_on_c, 0, 72, 75
1, 687444, Control_c, 0, 67, 12
1, 687459, Control_c, 0, 67, 9
1, 687473, Control_c, 0, 67, 0
1, 687554, Note_off_c, 0, 72, 61
1, 687581, Note_off_c, 0, 77, 64
1, 687591, Note_on_c, 0, 44, 60
1, 687714, Note_on_c, 0, 80, 84
1, 687720, Note_on_c, 0, 77, 71
1, 687778, Note_off_c, 0, 44, 60
1, 687800, Note_off_c, 0, 77, 57
1, 687883, Note_off_c, 0, 32, 42
1, 687895, Note_off_c, 0, 80, 63
1, 688230, Note_on_c, 0, 84, 68
1, 688232, Note_on_c, 0, 87, 88
1, 688234, Note_on_c, 0, 30, 63
1, 688237, Note_on_c, 0, 75, 76
1, 688238, Note_on_c, 0, 42, 66
1, 688243, Note_on_c, 0, 80, 70
1, 688281, Control_c, 0, 64, 114
1, 688296, Control_c, 0, 64, 89
1, 688311, Control_c, 0, 64, 76
1, 688326, Control_c, 0, 64, 65
1, 688340, Control_c, 0, 64, 36
1, 688355, Control_c, 0, 64, 0
1, 688459, Control_c, 0, 64, 52
1, 688473, Control_c, 0, 64, 67
1, 688488, Control_c, 0, 64, 78
1, 688503, Control_c, 0, 64, 96
1, 688518, Control_c, 0, 64, 127
1, 688625, Note_off_c, 0, 42, 63
1, 688859, Note_on_c, 0, 42, 86
1, 688953, Poly_aftertouch_c, 0, 36, 0
1, 689119, Note_off_c, 0, 42, 63
1, 689177, Poly_aftertouch_c, 0, 36, 127
1, 689330, Note_off_c, 0, 87, 62
1, 689340, Note_on_c, 0, 42, 89
1, 689361, Note_off_c, 0, 75, 59
1, 689373, Note_off_c, 0, 84, 59
1, 689405, Note_off_c, 0, 80, 55
1, 689580, Note_off_c, 0, 42, 63
1, 689585, Note_off_c, 0, 30, 58
1, 689666, Poly_aftertouch_c, 0, 36, 0
1, 689830, Note_on_c, 0, 80, 94
1, 689832, Note_on_c, 0, 68, 89
1, 689837, Note_on_c, 0, 72, 75
1, 689837, Note_on_c, 0, 75, 77
1, 689841, Note_on_c, 0, 42, 85
1, 689844, Note_on_c, 0, 30, 81
1, 689864, Note_on_c, 0, 36, 24
1, 689921, Note_off_c, 0, 36, 42
1, 690156, Note_off_c, 0, 30, 60
1, 690157, Poly_aftertouch_c, 0, 36, 127
1, 690167, Note_off_c, 0, 42, 61
1, 690228, Poly_aftertouch_c, 0, 36, 0
1, 690235, Note_off_c, 0, 68, 53
1, 690251, Note_off_c, 0, 80, 57
1, 690279, Note_off_c, 0, 72, 56
1, 690366, Note_on_c, 0, 80, 95
1, 690372, Note_on_c, 0, 42, 94
1, 690375, Note_on_c, 0, 68, 89
1, 690375, Note_on_c, 0, 72, 78
1, 690376, Note_on_c, 0, 30, 88
1, 690393, Note_on_c, 0, 36, 42
1, 690411, Note_off_c, 0, 75, 55
1, 690430, Note_off_c, 0, 68, 65
1, 690437, Note_off_c, 0, 72, 60
1, 690446, Note_off_c, 0, 36, 42
1, 690486, Note_off_c, 0, 80, 63
1, 690607, Note_off_c, 0, 30, 63
1, 690622, Note_off_c, 0, 42, 62
1, 690748, Note_on_c, 0, 85, 96
1, 690753, Note_on_c, 0, 73, 96
1, 690760, Note_on_c, 0, 80, 86
1, 690765, Note_on_c, 0, 41, 100
1, 690768, Note_on_c, 0, 29, 94
1, 690771, Note_on_c, 0, 36, 47
1, 690816, Control_c, 0, 64, 115
1, 690831, Control_c, 0, 64, 105
1, 690842, Note_off_c, 0, 36, 46
1, 690861, Control_c, 0, 64, 114
1, 690876, Control_c, 0, 64, 127
1, 690954, Note_off_c, 0, 41, 63
1, 690957, Note_off_c, 0, 73, 58
1, 690984, Note_off_c, 0, 29, 60
1, 690998, Note_off_c, 0, 85, 56
1, 691019, Poly_aftertouch_c, 0, 31, 127
1, 691037, Poly_aftertouch_c, 0, 84, 127
1, 691049, Note_off_c, 0, 80, 59
1, 691057, Poly_aftertouch_c, 0, 31, 0
1, 691072, Poly_aftertouch_c, 0, 84, 0
1, 691084, Note_on_c, 0, 84, 64
1, 691089, Note_on_c, 0, 80, 74
1, 691089, Note_on_c, 0, 87, 101
1, 691093, Note_on_c, 0, 75, 95
1, 691093, Note_on_c, 0, 39, 97
1, 691097, Note_on_c, 0, 27, 97
1, 691126, Note_on_c, 0, 30, 41
1, 691142, Control_c, 0, 64, 106
1, 691157, Control_c, 0, 64, 109
1, 691161, Note_off_c, 0, 30, 53
1, 691172, Control_c, 0, 64, 127
1, 691201, Note_off_c, 0, 75, 66
1, 691244, Note_off_c, 0, 87, 61
1, 691248, Note_off_c, 0, 80, 59
1, 691251, Note_on_c, 0, 31, 40
1, 691256, Note_off_c, 0, 84, 64
1, 691272, Note_off_c, 0, 39, 62
1, 691325, Note_off_c, 0, 27, 55
1, 691354, Note_off_c, 0, 31, 34
1, 691625, Note_on_c, 0, 78, 91
1, 691625, Note_on_c, 0, 90, 97
1, 691627, Note_on_c, 0, 85, 74
1, 691627, Note_on_c, 0, 82, 86
1, 691633, Note_on_c, 0, 37, 95
1, 691636, Note_on_c, 0, 25, 94
1, 691640, Control_c, 0, 64, 93
1, 691654, Control_c, 0, 64, 0
1, 691655, Note_on_c, 0, 31, 38
1, 691702, Note_off_c, 0, 31, 46
1, 691713, Control_c, 0, 64, 79
1, 691728, Control_c, 0, 64, 127
1, 691838, Note_off_c, 0, 37, 66
1, 691842, Note_off_c, 0, 25, 61
1, 692125, Note_on_c, 0, 61, 77
1, 692131, Note_on_c, 0, 49, 73
1, 692259, Note_off_c, 0, 61, 62
1, 692270, Note_off_c, 0, 49, 60
1, 692382, Note_on_c, 0, 49, 81
1, 692383, Note_on_c, 0, 61, 87
1, 692467, Note_off_c, 0, 61, 60
1, 692470, Note_off_c, 0, 49, 63
1, 692584, Note_off_c, 0, 85, 61
1, 692586, Note_on_c, 0, 49, 84
1, 692588, Note_off_c, 0, 82, 61
1, 692590, Note_on_c, 0, 61, 87
1, 692597, Note_off_c, 0, 78, 62
1, 692620, Note_off_c, 0, 90, 63
1, 692685, Note_off_c, 0, 61, 61
1, 692686, Note_off_c, 0, 49, 61
1, 692782, Note_on_c, 0, 61, 87
1, 692783, Note_on_c, 0, 49, 83
1, 692854, Note_on_c, 0, 89, 97
1, 692856, Note_on_c, 0, 77, 93
1, 692856, Note_on_c, 0, 80, 91
1, 692858, Note_off_c, 0, 49, 62
1, 692858, Note_on_c, 0, 85, 85
1, 692870, Note_off_c, 0, 61, 60
1, 692915, Note_off_c, 0, 77, 61
1, 692924, Note_off_c, 0, 89, 63
1, 692949, Note_off_c, 0, 80, 65
1, 692951, Note_off_c, 0, 85, 63
1, 692989, Note_on_c, 0, 61, 87
1, 692991, Note_on_c, 0, 49, 79
1, 693064, Note_off_c, 0, 49, 60
1, 693079, Note_off_c, 0, 61, 56
1, 693192, Note_on_c, 0, 61, 85
1, 693192, Note_on_c, 0, 75, 91
1, 693194, Note_on_c, 0, 49, 78
1, 693195, Note_on_c, 0, 78, 85
1, 693195, Note_on_c, 0, 87, 93
1, 693197, Note_on_c, 0, 85, 90
1, 693314, Note_off_c, 0, 49, 59
1, 693321, Note_off_c, 0, 61, 58
1, 693392, Note_off_c, 0, 75, 64
1, 693395, Note_off_c, 0, 78, 61
1, 693406, Note_off_c, 0, 85, 61
1, 693412, Note_off_c, 0, 87, 64
1, 693415, Note_on_c, 0, 49, 82
1, 693419, Note_on_c, 0, 61, 84
1, 693497, Note_on_c, 0, 89, 99
1, 693499, Note_on_c, 0, 77, 92
1, 693499, Note_on_c, 0, 80, 90
1, 693499, Note_on_c, 0, 85, 92
1, 693502, Note_off_c, 0, 61, 59
1, 693514, Note_off_c, 0, 49, 61
1, 693552, Note_off_c, 0, 77, 59
1, 693583, Note_off_c, 0, 89, 65
1, 693596, Note_off_c, 0, 80, 57
1, 693603, Note_on_c, 0, 61, 94
1, 693606, Note_on_c, 0, 49, 91
1, 693612, Note_off_c, 0, 85, 61
1, 693642, Note_off_c, 0, 61, 66
1, 693655, Note_off_c, 0, 49, 57
1, 693934, Note_on_c, 0, 49, 90
1, 693938, Note_on_c, 0, 85, 94
1, 693939, Note_on_c, 0, 61, 86
1, 693943, Note_on_c, 0, 73, 94
1, 693943, Note_on_c, 0, 82, 91
1, 693945, Note_on_c, 0, 54, 81
1, 693991, Control_c, 0, 64, 95
1, 694006, Control_c, 0, 64, 65
1, 694020, Control_c, 0, 64, 0
1, 694080, Control_c, 0, 64, 49
1, 694094, Control_c, 0, 64, 69
1, 694107, Note_off_c, 0, 61, 61
1, 694109, Control_c, 0, 64, 86
1, 694124, Control_c, 0, 64, 127
1, 694134, Note_off_c, 0, 49, 62
1, 694258, Note_on_c, 0, 61, 60
1, 694266, Note_on_c, 0, 49, 56
1, 694322, Note_off_c, 0, 49, 59
1, 694329, Note_off_c, 0, 61, 60
1, 694464, Note_on_c, 0, 61, 60
1, 694471, Note_on_c, 0, 49, 58
1, 694538, Note_off_c, 0, 61, 59
1, 694539, Note_off_c, 0, 49, 61
1, 694677, Note_on_c, 0, 61, 69
1, 694688, Note_on_c, 0, 49, 60
1, 694749, Note_off_c, 0, 61, 61
1, 694887, Note_on_c, 0, 61, 64
1, 694968, Note_on_c, 0, 80, 83
1, 694992, Note_on_c, 0, 53, 67
1, 695009, Note_off_c, 0, 61, 60
1, 695010, Note_off_c, 0, 82, 59
1, 695016, Note_off_c, 0, 54, 59
1, 695040, Note_off_c, 0, 49, 53
1, 695049, Note_off_c, 0, 80, 65
1, 695120, Note_on_c, 0, 61, 77
1, 695132, Note_on_c, 0, 49, 69
1, 695180, Note_off_c, 0, 61, 60
1, 695193, Note_off_c, 0, 49, 57
1, 695272, Control_c, 0, 64, 116
1, 695279, Note_on_c, 0, 51, 81
1, 695287, Control_c, 0, 64, 87
1, 695289, Note_off_c, 0, 53, 62
1, 695290, Note_on_c, 0, 78, 89
1, 695293, Note_on_c, 0, 61, 85
1, 695309, Control_c, 0, 64, 75
1, 695324, Note_on_c, 0, 49, 50
1, 695324, Control_c, 0, 64, 74
1, 695340, Control_c, 0, 64, 83
1, 695350, Note_off_c, 0, 49, 62
1, 695355, Control_c, 0, 64, 100
1, 695370, Control_c, 0, 64, 127
1, 695392, Note_off_c, 0, 61, 60
1, 695469, Note_on_c, 0, 49, 57
1, 695486, Note_on_c, 0, 61, 83
1, 695518, Note_on_c, 0, 80, 19
1, 695519, Note_off_c, 0, 85, 60
1, 695523, Note_off_c, 0, 73, 57
1, 695526, Note_off_c, 0, 78, 60
1, 695557, Note_off_c, 0, 80, 43
1, 695562, Control_c, 0, 64, 107
1, 695570, Note_on_c, 0, 53, 80
1, 695577, Control_c, 0, 64, 83
1, 695580, Note_off_c, 0, 61, 60
1, 695592, Note_off_c, 0, 49, 62
1, 695592, Control_c, 0, 64, 74
1, 695593, Note_on_c, 0, 85, 101
1, 695594, Note_on_c, 0, 73, 103
1, 695596, Note_on_c, 0, 80, 88
1, 695602, Note_off_c, 0, 51, 63
1, 695606, Control_c, 0, 64, 77
1, 695621, Control_c, 0, 64, 96
1, 695636, Control_c, 0, 64, 127
1, 695640, Note_off_c, 0, 73, 64
1, 695678, Note_off_c, 0, 80, 62
1, 695690, Note_off_c, 0, 85, 64
1, 695708, Note_on_c, 0, 49, 90
1, 695708, Note_on_c, 0, 61, 90
1, 695714, Note_off_c, 0, 53, 65
1, 695726, Note_off_c, 0, 61, 73
1, 695770, Note_off_c, 0, 49, 67
1, 696006, Control_c, 0, 64, 109
1, 696012, Note_on_c, 0, 80, 98
1, 696013, Note_on_c, 0, 49, 94
1, 696014, Note_on_c, 0, 92, 99
1, 696015, Note_on_c, 0, 83, 86
1, 696015, Note_on_c, 0, 89, 89
1, 696018, Note_on_c, 0, 37, 95
1, 696021, Control_c, 0, 64, 70
1, 696035, Note_on_c, 0, 43, 40
1, 696036, Control_c, 0, 64, 0
1, 696077, Note_off_c, 0, 43, 48
1, 696103, Control_c, 0, 64, 67
1, 696118, Control_c, 0, 64, 92
1, 696134, Control_c, 0, 64, 127
1, 696151, Note_off_c, 0, 37, 64
1, 696160, Note_off_c, 0, 49, 66
1, 696376, Note_on_c, 0, 61, 68
1, 696379, Note_on_c, 0, 49, 62
1, 696462, Note_off_c, 0, 61, 59
1, 696469, Note_off_c, 0, 49, 60
1, 696569, Note_on_c, 0, 61, 72
1, 696574, Note_on_c, 0, 49, 73
1, 696665, Note_off_c, 0, 49, 61
1, 696666, Note_off_c, 0, 61, 59
1, 696764, Note_on_c, 0, 61, 84
1, 696766, Note_on_c, 0, 49, 81
1, 696856, Note_off_c, 0, 83, 62
1, 696865, Note_off_c, 0, 89, 61
1, 696870, Note_off_c, 0, 61, 61
1, 696872, Note_off_c, 0, 92, 57
1, 696873, Note_off_c, 0, 49, 63
1, 696888, Note_off_c, 0, 80, 58
1, 696976, Note_on_c, 0, 49, 80
1, 696976, Note_on_c, 0, 61, 82
1, 697042, Note_on_c, 0, 90, 101
1, 697044, Note_on_c, 0, 78, 95
1, 697051, Note_on_c, 0, 82, 83
1, 697052, Note_on_c, 0, 85, 76
1, 697067, Note_off_c, 0, 49, 59
1, 697074, Note_off_c, 0, 61, 61
1, 697123, Note_off_c, 0, 78, 60
1, 697124, Note_off_c, 0, 90, 65
1, 697131, Note_off_c, 0, 85, 62
1, 697139, Note_off_c, 0, 82, 62
1, 697177, Note_on_c, 0, 49, 83
1, 697178, Note_on_c, 0, 61, 89
1, 697246, Note_off_c, 0, 49, 62
1, 697265, Note_off_c, 0, 61, 58
1, 697369, Note_on_c, 0, 75, 93
1, 697372, Note_on_c, 0, 87, 88
1, 697374, Note_on_c, 0, 78, 86
1, 697375, Note_on_c, 0, 85, 82
1, 697382, Note_on_c, 0, 49, 74
1, 697382, Note_on_c, 0, 61, 77
1, 697491, Note_off_c, 0, 49, 60
1, 697520, Note_off_c, 0, 61, 51
1, 697554, Note_off_c, 0, 75, 64
1, 697563, Note_off_c, 0, 78, 60
1, 697571, Note_on_c, 0, 61, 59
1, 697579, Note_off_c, 0, 85, 60
1, 697589, Note_on_c, 0, 49, 80
1, 697594, Note_off_c, 0, 87, 63
1, 697625, Note_off_c, 0, 61, 63
1, 697648, Note_off_c, 0, 49, 62
1, 697676, Note_on_c, 0, 85, 99
1, 697679, Note_on_c, 0, 80, 92
1, 697681, Note_on_c, 0, 77, 89
1, 697681, Note_on_c, 0, 89, 97
1, 697713, Note_off_c, 0, 77, 56
1, 697751, Note_off_c, 0, 89, 65
1, 697756, Note_on_c, 0, 49, 83
1, 697761, Note_on_c, 0, 61, 84
1, 697774, Note_off_c, 0, 80, 60
1, 697777, Note_off_c, 0, 85, 63
1, 697794, Note_off_c, 0, 61, 62
1, 697823, Note_off_c, 0, 49, 63
1, 698007, Poly_aftertouch_c, 0, 49, 127
1, 698033, Poly_aftertouch_c, 0, 49, 0
1, 698047, Note_on_c, 0, 73, 97
1, 698047, Note_on_c, 0, 85, 96
1, 698048, Note_on_c, 0, 80, 78
1, 698049, Note_on_c, 0, 49, 64
1, 698050, Note_on_c, 0, 47, 85
1, 698052, Note_on_c, 0, 59, 90
1, 698052, Note_on_c, 0, 77, 81
1, 698091, Control_c, 0, 64, 85
1, 698106, Control_c, 0, 64, 54
1, 698121, Control_c, 0, 64, 0
1, 698179, Note_off_c, 0, 49, 64
1, 698180, Control_c, 0, 64, 64
1, 698195, Control_c, 0, 64, 77
1, 698209, Control_c, 0, 64, 98
1, 698224, Control_c, 0, 64, 127
1, 698313, Note_on_c, 0, 49, 69
1, 698369, Note_off_c, 0, 49, 63
1, 698498, Note_on_c, 0, 49, 62
1, 698557, Note_off_c, 0, 49, 62
1, 698676, Note_on_c, 0, 49, 76
1, 698737, Note_off_c, 0, 49, 63
1, 698858, Note_off_c, 0, 47, 66
1, 698858, Note_on_c, 0, 49, 72
1, 698861, Note_off_c, 0, 59, 62
1, 698894, Note_off_c, 0, 49, 62
1, 698960, Note_on_c, 0, 58, 92
1, 698960, Note_on_c, 0, 46, 89
1, 699106, Note_on_c, 0, 49, 70
1, 699131, Note_off_c, 0, 58, 62
1, 699170, Note_off_c, 0, 46, 60
1, 699179, Note_off_c, 0, 49, 63
1, 699282, Note_on_c, 0, 54, 94
1, 699283, Note_on_c, 0, 42, 85
1, 699286, Note_on_c, 0, 49, 81
1, 699291, Control_c, 0, 64, 93
1, 699306, Control_c, 0, 64, 75
1, 699321, Control_c, 0, 64, 68
1, 699336, Control_c, 0, 64, 73
1, 699351, Control_c, 0, 64, 83
1, 699366, Control_c, 0, 64, 108
1, 699368, Note_off_c, 0, 49, 63
1, 699380, Control_c, 0, 64, 127
1, 699464, Note_on_c, 0, 49, 81
1, 699472, Note_off_c, 0, 54, 64
1, 699481, Note_off_c, 0, 42, 61
1, 699513, Note_off_c, 0, 73, 57
1, 699513, Note_off_c, 0, 85, 58
1, 699532, Note_off_c, 0, 77, 57
1, 699541, Note_off_c, 0, 80, 55
1, 699543, Control_c, 0, 64, 116
1, 699558, Control_c, 0, 64, 82
1, 699572, Control_c, 0, 64, 66
1, 699586, Note_on_c, 0, 73, 102
1, 699586, Note_on_c, 0, 85, 96
1, 699587, Note_on_c, 0, 80, 74
1, 699587, Control_c, 0, 64, 67
1, 699588, Note_on_c, 0, 56, 93
1, 699588, Note_on_c, 0, 77, 80
1, 699592, Note_on_c, 0, 44, 83
1, 699602, Control_c, 0, 64, 81
1, 699607, Note_off_c, 0, 49, 64
1, 699611, Note_on_c, 0, 46, 66
1, 699617, Control_c, 0, 64, 127
1, 699631, Note_off_c, 0, 73, 67
1, 699636, Note_off_c, 0, 46, 60
1, 699654, Note_off_c, 0, 77, 60
1, 699679, Note_off_c, 0, 80, 61
1, 699686, Note_off_c, 0, 85, 64
1, 699705, Note_on_c, 0, 49, 83
1, 699711, Note_off_c, 0, 56, 65
1, 699743, Note_off_c, 0, 44, 63
1, 699744, Poly_aftertouch_c, 0, 82, 0
1, 699768, Note_off_c, 0, 49, 61
1, 699994, Note_on_c, 0, 95, 102
1, 699995, Note_on_c, 0, 83, 97
1, 699996, Note_on_c, 0, 85, 96
1, 700000, Note_on_c, 0, 53, 90
1, 700000, Note_on_c, 0, 92, 91
1, 700004, Note_on_c, 0, 41, 87
1, 700008, Note_on_c, 0, 49, 85
1, 700009, Control_c, 0, 64, 91
1, 700024, Control_c, 0, 64, 57
1, 700039, Control_c, 0, 64, 0
1, 700084, Control_c, 0, 64, 71
1, 700099, Control_c, 0, 64, 98
1, 700113, Control_c, 0, 64, 127
1, 700121, Note_off_c, 0, 41, 62
1, 700123, Note_off_c, 0, 53, 59
1, 700134, Note_off_c, 0, 49, 61
1, 700219, Note_on_c, 0, 53, 84
1, 700222, Note_on_c, 0, 41, 80
1, 700223, Note_on_c, 0, 49, 83
1, 700274, Note_off_c, 0, 53, 59
1, 700311, Note_off_c, 0, 83, 58
1, 700313, Note_off_c, 0, 49, 63
1, 700337, Note_off_c, 0, 95, 57
1, 700340, Note_off_c, 0, 41, 52
1, 700376, Note_off_c, 0, 85, 60
1, 700379, Note_on_c, 0, 53, 83
1, 700387, Note_on_c, 0, 49, 72
1, 700393, Note_off_c, 0, 92, 65
1, 700424, Note_off_c, 0, 53, 63
1, 700432, Note_off_c, 0, 49, 62
1, 700523, Note_on_c, 0, 40, 88
1, 700548, Note_on_c, 0, 50, 63
1, 700563, Note_on_c, 0, 49, 56
1, 700566, Control_c, 0, 64, 101
1, 700580, Control_c, 0, 64, 62
1, 700591, Note_off_c, 0, 49, 57
1, 700595, Control_c, 0, 64, 0
1, 700605, Note_on_c, 0, 82, 101
1, 700605, Note_on_c, 0, 94, 96
1, 700606, Note_on_c, 0, 92, 93
1, 700610, Note_on_c, 0, 86, 88
1, 700614, Note_off_c, 0, 40, 64
1, 700617, Note_on_c, 0, 52, 96
1, 700621, Note_on_c, 0, 44, 7
1, 700625, Control_c, 0, 64, 24
1, 700640, Control_c, 0, 64, 79
1, 700648, Note_off_c, 0, 50, 66
1, 700654, Note_off_c, 0, 44, 44
1, 700654, Control_c, 0, 64, 127
1, 700657, Note_off_c, 0, 52, 66
1, 700721, Note_off_c, 0, 94, 68
1, 700733, Note_off_c, 0, 82, 62
1, 700768, Note_off_c, 0, 92, 63
1, 700776, Note_off_c, 0, 86, 59
1, 700826, Note_on_c, 0, 64, 78
1, 700830, Note_on_c, 0, 52, 67
1, 700883, Note_off_c, 0, 52, 50
1, 700896, Note_off_c, 0, 64, 59
1, 701005, Note_on_c, 0, 64, 78
1, 701011, Note_on_c, 0, 52, 72
1, 701095, Note_off_c, 0, 52, 58
1, 701100, Note_off_c, 0, 64, 61
1, 701190, Note_on_c, 0, 86, 97
1, 701193, Note_on_c, 0, 74, 104
1, 701196, Note_on_c, 0, 82, 90
1, 701196, Note_on_c, 0, 80, 87
1, 701207, Note_on_c, 0, 52, 78
1, 701207, Note_on_c, 0, 64, 82
1, 701283, Note_off_c, 0, 64, 57
1, 701302, Note_off_c, 0, 52, 55
1, 701401, Note_on_c, 0, 64, 78
1, 701403, Note_on_c, 0, 52, 75
1, 701463, Note_off_c, 0, 64, 62
1, 701480, Note_off_c, 0, 52, 50
1, 701495, Note_off_c, 0, 86, 59
1, 701503, Note_off_c, 0, 74, 59
1, 701559, Note_off_c, 0, 80, 59
1, 701568, Note_on_c, 0, 64, 81
1, 701576, Note_off_c, 0, 82, 60
1, 701577, Note_on_c, 0, 52, 47
1, 701601, Note_off_c, 0, 64, 65
1, 701602, Note_off_c, 0, 52, 56
1, 701784, Note_on_c, 0, 87, 97
1, 701786, Note_on_c, 0, 75, 92
1, 701789, Note_on_c, 0, 51, 83
1, 701789, Note_on_c, 0, 63, 89
1, 701790, Note_on_c, 0, 56, 78
1, 701792, Note_on_c, 0, 80, 83
1, 701793, Note_on_c, 0, 82, 87
1, 701804, Control_c, 0, 64, 88
1, 701819, Control_c, 0, 64, 64
1, 701833, Control_c, 0, 64, 0
1, 701863, Control_c, 0, 64, 58
1, 701878, Control_c, 0, 64, 70
1, 701887, Note_off_c, 0, 51, 59
1, 701890, Note_off_c, 0, 63, 61
1, 701893, Control_c, 0, 64, 91
1, 701908, Control_c, 0, 64, 127
1, 701988, Note_on_c, 0, 63, 71
1, 702055, Note_off_c, 0, 63, 60
1, 702078, Note_off_c, 0, 80, 59
1, 702093, Poly_aftertouch_c, 0, 51, 0
1, 702156, Note_on_c, 0, 63, 72
1, 702157, Note_on_c, 0, 51, 63
1, 702208, Note_off_c, 0, 63, 59
1, 702239, Note_off_c, 0, 51, 60
1, 702336, Note_on_c, 0, 63, 81
1, 702342, Note_on_c, 0, 53, 81
1, 702343, Note_on_c, 0, 77, 79
1, 702347, Note_off_c, 0, 56, 60
1, 702352, Note_on_c, 0, 51, 64
1, 702374, Control_c, 0, 64, 92
1, 702389, Control_c, 0, 64, 76
1, 702401, Note_off_c, 0, 63, 60
1, 702404, Control_c, 0, 64, 71
1, 702409, Note_off_c, 0, 51, 58
1, 702418, Control_c, 0, 64, 76
1, 702433, Control_c, 0, 64, 90
1, 702448, Control_c, 0, 64, 127
1, 702517, Note_on_c, 0, 63, 78
1, 702540, Note_on_c, 0, 51, 53
1, 702580, Note_off_c, 0, 63, 60
1, 702591, Note_off_c, 0, 51, 51
1, 702679, Note_off_c, 0, 77, 59
1, 702691, Note_on_c, 0, 63, 76
1, 702715, Note_on_c, 0, 51, 54
1, 702743, Note_off_c, 0, 63, 61
1, 702749, Note_off_c, 0, 75, 59
1, 702752, Note_off_c, 0, 51, 58
1, 702819, Note_off_c, 0, 87, 60
1, 702867, Note_off_c, 0, 82, 0
1, 702880, Note_on_c, 0, 51, 75
1, 702881, Note_on_c, 0, 82, 64
1, 702882, Note_on_c, 0, 79, 86
1, 702882, Note_on_c, 0, 87, 94
1, 702884, Note_on_c, 0, 75, 94
1, 702886, Control_c, 0, 64, 99
1, 702887, Note_on_c, 0, 63, 86
1, 702891, Note_on_c, 0, 55, 75
1, 702901, Control_c, 0, 64, 75
1, 702916, Control_c, 0, 64, 61
1, 702918, Note_off_c, 0, 53, 62
1, 702930, Control_c, 0, 64, 63
1, 702945, Control_c, 0, 64, 71
1, 702960, Note_off_c, 0, 51, 62
1, 702960, Control_c, 0, 64, 84
1, 702972, Note_off_c, 0, 63, 60
1, 702975, Control_c, 0, 64, 127
1, 703027, Note_off_c, 0, 75, 63
1, 703053, Note_off_c, 0, 79, 59
1, 703067, Note_on_c, 0, 63, 81
1, 703072, Note_on_c, 0, 51, 72
1, 703099, Note_off_c, 0, 82, 59
1, 703101, Note_off_c, 0, 87, 60
1, 703118, Note_off_c, 0, 63, 62
1, 703131, Note_off_c, 0, 51, 61
1, 703212, Note_on_c, 0, 63, 87
1, 703228, Note_on_c, 0, 51, 75
1, 703240, Note_off_c, 0, 63, 65
1, 703251, Note_off_c, 0, 55, 64
1, 703277, Note_off_c, 0, 51, 64
1, 703432, Note_on_c, 0, 84, 89
1, 703432, Note_on_c, 0, 90, 95
1, 703433, Note_on_c, 0, 93, 104
1, 703434, Note_on_c, 0, 81, 94
1, 703434, Note_on_c, 0, 48, 82
1, 703435, Control_c, 0, 64, 120
1, 703438, Note_on_c, 0, 51, 99
1, 703443, Note_on_c, 0, 39, 85
1, 703450, Control_c, 0, 64, 79
1, 703464, Note_on_c, 0, 85, 44
1, 703465, Note_off_c, 0, 85, 127
1, 703465, Control_c, 0, 64, 35
1, 703479, Control_c, 0, 64, 0
1, 703494, Control_c, 0, 64, 43
1, 703509, Control_c, 0, 64, 70
1, 703515, Note_off_c, 0, 51, 66
1, 703521, Note_off_c, 0, 39, 62
1, 703524, Control_c, 0, 64, 92
1, 703533, Note_off_c, 0, 48, 63
1, 703546, Control_c, 0, 64, 127
1, 703610, Note_on_c, 0, 51, 96
1, 703619, Note_on_c, 0, 39, 79
1, 703620, Note_on_c, 0, 48, 74
1, 703676, Note_off_c, 0, 51, 58
1, 703677, Note_off_c, 0, 39, 59
1, 703692, Note_off_c, 0, 48, 60
1, 703716, Note_off_c, 0, 93, 59
1, 703729, Note_off_c, 0, 81, 58
1, 703758, Note_on_c, 0, 51, 85
1, 703771, Note_on_c, 0, 39, 69
1, 703781, Note_on_c, 0, 48, 51
1, 703790, Note_off_c, 0, 90, 63
1, 703798, Note_off_c, 0, 84, 57
1, 703800, Note_off_c, 0, 51, 65
1, 703804, Note_off_c, 0, 39, 61
1, 703834, Note_off_c, 0, 48, 50
1, 703901, Note_on_c, 0, 38, 86
1, 703909, Note_on_c, 0, 48, 52
1, 703991, Control_c, 0, 64, 67
1, 703993, Note_on_c, 0, 80, 95
1, 703993, Note_on_c, 0, 90, 82
1, 703995, Note_on_c, 0, 92, 99
1, 703995, Note_on_c, 0, 84, 82
1, 703998, Note_on_c, 0, 50, 94
1, 704005, Control_c, 0, 64, 0
1, 704011, Note_off_c, 0, 38, 64
1, 704036, Note_off_c, 0, 48, 64
1, 704049, Note_off_c, 0, 50, 68
1, 704050, Control_c, 0, 64, 68
1, 704065, Control_c, 0, 64, 98
1, 704073, Poly_aftertouch_c, 0, 42, 0
1, 704079, Control_c, 0, 64, 127
1, 704130, Note_off_c, 0, 80, 62
1, 704133, Note_off_c, 0, 92, 64
1, 704165, Note_off_c, 0, 84, 59
1, 704176, Note_off_c, 0, 90, 62
1, 704214, Note_on_c, 0, 62, 82
1, 704220, Note_on_c, 0, 50, 78
1, 704265, Note_off_c, 0, 50, 61
1, 704268, Note_off_c, 0, 62, 59
1, 704397, Note_on_c, 0, 50, 82
1, 704397, Note_on_c, 0, 62, 81
1, 704472, Note_off_c, 0, 62, 52
1, 704475, Note_off_c, 0, 50, 63
1, 704556, Note_on_c, 0, 84, 98
1, 704558, Note_on_c, 0, 72, 97
1, 704561, Note_on_c, 0, 80, 85
1, 704563, Note_on_c, 0, 78, 86
1, 704582, Note_on_c, 0, 62, 76
1, 704584, Note_on_c, 0, 50, 74
1, 704636, Note_off_c, 0, 62, 57
1, 704639, Note_off_c, 0, 50, 61
1, 704742, Note_on_c, 0, 62, 74
1, 704744, Note_on_c, 0, 50, 75
1, 704768, Note_off_c, 0, 84, 55
1, 704776, Note_off_c, 0, 72, 57
1, 704792, Note_off_c, 0, 62, 56
1, 704811, Note_off_c, 0, 50, 59
1, 704829, Note_off_c, 0, 78, 58
1, 704845, Note_off_c, 0, 80, 57
1, 704898, Note_on_c, 0, 62, 75
1, 704914, Note_on_c, 0, 50, 65
1, 704935, Note_off_c, 0, 62, 54
1, 704950, Note_off_c, 0, 50, 64
1, 705095, Note_on_c, 0, 85, 93
1, 705097, Note_on_c, 0, 73, 93
1, 705100, Note_on_c, 0, 49, 80
1, 705100, Note_on_c, 0, 61, 87
1, 705101, Note_on_c, 0, 78, 81
1, 705106, Note_on_c, 0, 80, 82
1, 705107, Note_on_c, 0, 54, 80
1, 705118, Control_c, 0, 64, 86
1, 705133, Control_c, 0, 64, 63
1, 705148, Control_c, 0, 64, 0
1, 705163, Control_c, 0, 64, 43
1, 705177, Note_off_c, 0, 49, 60
1, 705177, Control_c, 0, 64, 64
1, 705181, Note_off_c, 0, 61, 61
1, 705192, Control_c, 0, 64, 73
1, 705207, Control_c, 0, 64, 92
1, 705222, Control_c, 0, 64, 127
1, 705284, Note_on_c, 0, 61, 75
1, 705290, Note_on_c, 0, 49, 65
1, 705332, Note_off_c, 0, 49, 55
1, 705348, Note_off_c, 0, 61, 60
1, 705372, Note_off_c, 0, 78, 60
1, 705450, Note_on_c, 0, 49, 64
1, 705452, Note_on_c, 0, 61, 74
1, 705511, Note_off_c, 0, 49, 58
1, 705511, Note_off_c, 0, 61, 61
1, 705622, Note_on_c, 0, 51, 78
1, 705622, Control_c, 0, 64, 109
1, 705625, Note_on_c, 0, 75, 82
1, 705628, Note_on_c, 0, 61, 78
1, 705637, Control_c, 0, 64, 84
1, 705652, Control_c, 0, 64, 74
1, 705667, Control_c, 0, 64, 75
1, 705674, Note_off_c, 0, 54, 57
1, 705682, Control_c, 0, 64, 83
1, 705693, Note_off_c, 0, 61, 58
1, 705697, Control_c, 0, 64, 104
1, 705712, Control_c, 0, 64, 127
1, 705800, Note_off_c, 0, 75, 62
1, 705817, Note_on_c, 0, 61, 79
1, 705819, Note_on_c, 0, 49, 71
1, 705851, Note_off_c, 0, 73, 58
1, 705866, Note_on_c, 0, 53, 71
1, 705867, Control_c, 0, 64, 108
1, 705870, Note_off_c, 0, 85, 60
1, 705882, Note_off_c, 0, 80, 58
1, 705882, Control_c, 0, 64, 102
1, 705886, Note_off_c, 0, 61, 53
1, 705886, Note_off_c, 0, 49, 61
1, 705895, Note_off_c, 0, 51, 62
1, 705897, Control_c, 0, 64, 104
1, 705912, Control_c, 0, 64, 127
1, 705931, Note_on_c, 0, 77, 82
1, 705932, Note_on_c, 0, 73, 92
1, 705932, Note_on_c, 0, 85, 85
1, 705939, Note_on_c, 0, 80, 65
1, 706006, Note_off_c, 0, 73, 60
1, 706011, Note_off_c, 0, 77, 63
1, 706030, Note_on_c, 0, 61, 65
1, 706037, Note_off_c, 0, 80, 63
1, 706042, Note_off_c, 0, 53, 65
1, 706045, Note_on_c, 0, 50, 67
1, 706048, Note_off_c, 0, 61, 66
1, 706049, Note_off_c, 0, 85, 63
1, 706057, Note_on_c, 0, 51, 39
1, 706075, Note_off_c, 0, 50, 67
1, 706091, Note_off_c, 0, 51, 58
1, 706193, Control_c, 0, 64, 85
1, 706208, Control_c, 0, 64, 62
1, 706223, Control_c, 0, 64, 0
1, 706231, Note_on_c, 0, 48, 75
1, 706233, Note_on_c, 0, 80, 67
1, 706237, Note_on_c, 0, 36, 78
1, 706238, Control_c, 0, 64, 53
1, 706240, Note_on_c, 0, 87, 82
1, 706242, Note_on_c, 0, 75, 77
1, 706248, Note_on_c, 0, 78, 68
1, 706253, Control_c, 0, 64, 69
1, 706267, Control_c, 0, 64, 92
1, 706281, Note_on_c, 0, 85, 35
1, 706282, Control_c, 0, 64, 127
1, 706293, Note_off_c, 0, 36, 61
1, 706302, Note_off_c, 0, 48, 62
1, 706311, Note_off_c, 0, 75, 64
1, 706312, Note_off_c, 0, 85, 53
1, 706317, Note_off_c, 0, 80, 63
1, 706333, Note_off_c, 0, 78, 62
1, 706358, Note_off_c, 0, 87, 64
1, 706445, Note_on_c, 0, 49, 99
1, 706445, Note_on_c, 0, 61, 88
1, 706465, Note_off_c, 0, 61, 70
1, 706472, Note_on_c, 0, 80, 6
1, 706494, Note_off_c, 0, 49, 62
1, 706519, Note_off_c, 0, 80, 0
1, 706532, Note_on_c, 0, 80, 67
1, 706546, Note_on_c, 0, 77, 93
1, 706546, Note_on_c, 0, 85, 86
1, 706546, Note_on_c, 0, 89, 94
1, 706585, Note_off_c, 0, 77, 62
1, 706615, Note_off_c, 0, 80, 64
1, 706627, Note_off_c, 0, 89, 64
1, 706637, Note_off_c, 0, 85, 63
1, 706639, Note_on_c, 0, 47, 97
1, 706645, Note_on_c, 0, 35, 88
1, 706663, Note_off_c, 0, 47, 68
1, 706668, Note_off_c, 0, 35, 69
1, 706877, Note_on_c, 0, 46, 96
1, 706877, Note_on_c, 0, 78, 93
1, 706878, Note_on_c, 0, 34, 86
1, 706878, Note_on_c, 0, 90, 98
1, 706883, Note_on_c, 0, 85, 91
1, 706883, Control_c, 0, 64, 100
1, 706898, Control_c, 0, 64, 68
1, 706913, Control_c, 0, 64, 0
1, 706958, Note_off_c, 0, 34, 64
1, 706972, Control_c, 0, 64, 63
1, 706983, Note_off_c, 0, 46, 61
1, 706987, Control_c, 0, 64, 81
1, 707002, Control_c, 0, 64, 127
1, 707167, Note_on_c, 0, 61, 73
1, 707172, Note_on_c, 0, 49, 66
1, 707236, Note_off_c, 0, 61, 61
1, 707247, Note_off_c, 0, 49, 59
1, 707365, Note_on_c, 0, 49, 76
1, 707368, Note_on_c, 0, 61, 77
1, 707446, Note_off_c, 0, 61, 59
1, 707447, Note_off_c, 0, 49, 60
1, 707547, Note_off_c, 0, 90, 63
1, 707549, Note_off_c, 0, 85, 61
1, 707551, Note_off_c, 0, 78, 60
1, 707556, Note_on_c, 0, 49, 79
1, 707557, Note_on_c, 0, 61, 81
1, 707605, Note_off_c, 0, 61, 61
1, 707612, Note_off_c, 0, 49, 60
1, 707709, Note_on_c, 0, 61, 81
1, 707712, Note_on_c, 0, 49, 81
1, 707731, Note_off_c, 0, 61, 70
1, 707769, Note_off_c, 0, 49, 64
1, 707774, Note_on_c, 0, 85, 98
1, 707776, Note_on_c, 0, 73, 92
1, 707783, Note_on_c, 0, 78, 84
1, 707801, Note_off_c, 0, 73, 65
1, 707808, Note_off_c, 0, 78, 63
1, 707838, Note_off_c, 0, 85, 64
1, 707888, Note_on_c, 0, 46, 86
1, 707889, Note_on_c, 0, 34, 88
1, 707912, Note_off_c, 0, 46, 67
1, 707913, Note_off_c, 0, 34, 66
1, 708018, Control_c, 0, 64, 117
1, 708040, Control_c, 0, 64, 80
1, 708055, Note_on_c, 0, 89, 94
1, 708055, Control_c, 0, 64, 56
1, 708056, Note_on_c, 0, 77, 86
1, 708058, Note_on_c, 0, 47, 89
1, 708058, Note_on_c, 0, 80, 83
1, 708059, Note_on_c, 0, 85, 79
1, 708061, Note_on_c, 0, 35, 82
1, 708069, Control_c, 0, 64, 54
1, 708084, Control_c, 0, 64, 69
1, 708088, Note_off_c, 0, 35, 68
1, 708099, Control_c, 0, 64, 85
1, 708102, Note_off_c, 0, 47, 66
1, 708109, Note_off_c, 0, 77, 62
1, 708115, Control_c, 0, 64, 127
1, 708136, Note_off_c, 0, 80, 63
1, 708140, Note_off_c, 0, 89, 63
1, 708141, Note_off_c, 0, 85, 64
1, 708242, Note_on_c, 0, 61, 94
1, 708242, Note_on_c, 0, 49, 93
1, 708272, Note_off_c, 0, 61, 63
1, 708283, Note_on_c, 0, 85, 18
1, 708294, Note_off_c, 0, 49, 61
1, 708324, Note_off_c, 0, 85, 0
1, 708337, Note_on_c, 0, 90, 107
1, 708337, Note_on_c, 0, 78, 103
1, 708338, Note_on_c, 0, 82, 78
1, 708338, Note_on_c, 0, 85, 67
1, 708404, Note_off_c, 0, 78, 66
1, 708427, Note_on_c, 0, 46, 96
1, 708430, Note_on_c, 0, 34, 94
1, 708433, Note_off_c, 0, 82, 64
1, 708447, Note_off_c, 0, 85, 64
1, 708454, Note_off_c, 0, 46, 66
1, 708457, Note_off_c, 0, 90, 63
1, 708463, Note_off_c, 0, 34, 65
1, 708701, Note_on_c, 0, 92, 96
1, 708702, Note_on_c, 0, 80, 90
1, 708704, Note_on_c, 0, 85, 88
1, 708707, Control_c, 0, 64, 80
1, 708718, Note_on_c, 0, 41, 103
1, 708722, Note_on_c, 0, 29, 89
1, 708722, Control_c, 0, 64, 0
1, 708767, Control_c, 0, 64, 53
1, 708788, Control_c, 0, 64, 78
1, 708796, Note_off_c, 0, 29, 62
1, 708803, Control_c, 0, 64, 127
1, 708820, Note_off_c, 0, 41, 64
1, 709023, Note_on_c, 0, 61, 71
1, 709029, Note_on_c, 0, 49, 63
1, 709090, Note_off_c, 0, 49, 57
1, 709091, Note_off_c, 0, 61, 60
1, 709210, Note_on_c, 0, 49, 73
1, 709214, Note_on_c, 0, 61, 74
1, 709287, Note_off_c, 0, 61, 59
1, 709288, Note_off_c, 0, 49, 61
1, 709363, Note_off_c, 0, 92, 66
1, 709367, Note_off_c, 0, 80, 58
1, 709381, Note_off_c, 0, 85, 61
1, 709393, Note_on_c, 0, 61, 84
1, 709398, Note_on_c, 0, 49, 80
1, 709447, Note_off_c, 0, 61, 62
1, 709453, Note_off_c, 0, 49, 61
1, 709552, Note_on_c, 0, 61, 85
1, 709557, Note_on_c, 0, 49, 85
1, 709586, Note_off_c, 0, 61, 65
1, 709620, Note_off_c, 0, 49, 64
1, 709631, Note_on_c, 0, 85, 97
1, 709634, Note_on_c, 0, 73, 94
1, 709640, Note_on_c, 0, 80, 69
1, 709658, Note_on_c, 0, 81, 65
1, 709660, Note_off_c, 0, 73, 60
1, 709661, Note_on_c, 0, 86, 59
1, 709667, Note_off_c, 0, 80, 51
1, 709685, Note_off_c, 0, 81, 67
1, 709689, Note_off_c, 0, 86, 50
1, 709703, Note_off_c, 0, 85, 61
1, 709754, Note_on_c, 0, 29, 93
1, 709754, Note_on_c, 0, 41, 92
1, 709783, Note_off_c, 0, 41, 64
1, 709792, Note_off_c, 0, 29, 62
1, 709888, Note_on_c, 0, 36, 13
1, 709923, Control_c, 0, 64, 104
1, 709937, Note_on_c, 0, 75, 88
1, 709937, Note_on_c, 0, 87, 95
1, 709938, Control_c, 0, 64, 71
1, 709940, Note_on_c, 0, 78, 81
1, 709946, Note_on_c, 0, 42, 97
1, 709950, Note_on_c, 0, 30, 94
1, 709953, Control_c, 0, 64, 0
1, 709967, Control_c, 0, 64, 50
1, 709982, Control_c, 0, 64, 73
1, 709983, Note_off_c, 0, 30, 65
1, 709989, Note_off_c, 0, 42, 66
1, 709995, Note_off_c, 0, 36, 33
1, 709997, Control_c, 0, 64, 101
1, 710012, Control_c, 0, 64, 127
1, 710019, Note_off_c, 0, 75, 64
1, 710022, Note_off_c, 0, 78, 64
1, 710047, Note_off_c, 0, 87, 62
1, 710151, Note_on_c, 0, 90, 103
1, 710153, Note_on_c, 0, 78, 96
1, 710155, Note_on_c, 0, 61, 98
1, 710158, Note_on_c, 0, 49, 97
1, 710176, Note_off_c, 0, 61, 69
1, 710189, Note_off_c, 0, 78, 62
1, 710206, Note_off_c, 0, 90, 64
1, 710215, Note_off_c, 0, 49, 60
1, 710401, Note_on_c, 0, 39, 97
1, 710401, Note_on_c, 0, 94, 100
1, 710401, Note_on_c, 0, 82, 106
1, 710404, Note_on_c, 0, 27, 95
1, 710407, Note_on_c, 0, 85, 78
1, 710430, Note_on_c, 0, 92, 52
1, 710431, Note_off_c, 0, 92, 127
1, 710431, Note_off_c, 0, 27, 72
1, 710433, Note_on_c, 0, 30, 39
1, 710442, Note_off_c, 0, 39, 60
1, 710443, Note_off_c, 0, 82, 67
1, 710448, Note_off_c, 0, 85, 62
1, 710461, Note_off_c, 0, 30, 57
1, 710476, Note_off_c, 0, 94, 67
1, 710490, Poly_aftertouch_c, 0, 34, 0
1, 710494, Note_on_c, 0, 34, 3
1, 710537, Poly_aftertouch_c, 0, 40, 0
1, 710539, Note_off_c, 0, 34, 46
1, 710762, Control_c, 0, 64, 72
1, 710777, Control_c, 0, 64, 0
1, 710788, Note_on_c, 0, 94, 89
1, 710792, Note_on_c, 0, 87, 91
1, 710792, Note_on_c, 0, 90, 77
1, 710793, Note_on_c, 0, 97, 103
1, 710796, Note_on_c, 0, 85, 97
1, 710799, Note_on_c, 0, 37, 94
1, 710806, Note_on_c, 0, 25, 90
1, 710812, Note_on_c, 0, 31, 67
1, 710822, Control_c, 0, 64, 76
1, 710837, Control_c, 0, 64, 127
1, 710845, Note_off_c, 0, 31, 63
1, 710848, Note_off_c, 0, 25, 62
1, 710865, Note_off_c, 0, 37, 67
1, 710874, Note_on_c, 0, 93, 78
1, 710979, Note_off_c, 0, 85, 57
1, 711015, Note_on_c, 0, 63, 94
1, 711025, Note_on_c, 0, 51, 70
1, 711037, Note_on_c, 0, 58, 62
1, 711043, Note_off_c, 0, 93, 33
1, 711047, Note_off_c, 0, 63, 62
1, 711052, Note_on_c, 0, 54, 35
1, 711053, Note_off_c, 0, 54, 127
1, 711056, Note_off_c, 0, 51, 63
1, 711056, Note_off_c, 0, 97, 63
1, 711065, Note_off_c, 0, 58, 65
1, 711070, Note_off_c, 0, 94, 28
1, 711087, Poly_aftertouch_c, 0, 54, 0
1, 711091, Note_off_c, 0, 87, 60
1, 711101, Note_off_c, 0, 90, 59
1, 711139, Note_on_c, 0, 87, 90
1, 711140, Note_on_c, 0, 90, 76
1, 711141, Note_on_c, 0, 63, 97
1, 711143, Note_on_c, 0, 51, 71
1, 711143, Note_on_c, 0, 58, 80
1, 711144, Note_on_c, 0, 82, 93
1, 711146, Note_on_c, 0, 94, 92
1, 711158, Note_on_c, 0, 49, 70
1, 711164, Note_off_c, 0, 58, 71
1, 711167, Note_on_c, 0, 54, 53
1, 711170, Note_off_c, 0, 63, 63
1, 711179, Note_off_c, 0, 51, 65
1, 711183, Note_off_c, 0, 49, 66
1, 711187, Note_off_c, 0, 94, 61
1, 711190, Note_off_c, 0, 54, 62
1, 711196, Note_off_c, 0, 82, 63
1, 711197, Note_off_c, 0, 87, 64
1, 711198, Note_off_c, 0, 90, 64
1, 711249, Note_on_c, 0, 63, 94
1, 711252, Note_on_c, 0, 58, 81
1, 711255, Note_on_c, 0, 51, 76
1, 711256, Note_on_c, 0, 49, 59
1, 711259, Note_on_c, 0, 54, 66
1, 711273, Note_off_c, 0, 58, 70
1, 711278, Note_off_c, 0, 63, 53
1, 711282, Note_off_c, 0, 49, 65
1, 711284, Note_off_c, 0, 54, 67
1, 711290, Note_off_c, 0, 51, 65
1, 711360, Note_on_c, 0, 78, 100
1, 711360, Note_on_c, 0, 90, 94
1, 711360, Note_on_c, 0, 63, 98
1, 711362, Note_on_c, 0, 82, 96
1, 711365, Note_on_c, 0, 54, 52
1, 711365, Note_on_c, 0, 58, 84
1, 711366, Note_on_c, 0, 87, 86
1, 711368, Note_on_c, 0, 51, 77
1, 711369, Note_on_c, 0, 85, 83
1, 711371, Note_on_c, 0, 49, 59
1, 711392, Note_off_c, 0, 58, 68
1, 711398, Note_off_c, 0, 63, 45
1, 711399, Note_off_c, 0, 49, 66
1, 711399, Note_off_c, 0, 51, 65
1, 711401, Note_off_c, 0, 54, 65
1, 711478, Note_on_c, 0, 63, 88
1, 711480, Note_on_c, 0, 58, 75
1, 711483, Note_on_c, 0, 49, 59
1, 711488, Note_on_c, 0, 51, 70
1, 711493, Note_on_c, 0, 54, 52
1, 711497, Note_off_c, 0, 63, 67
1, 711499, Note_off_c, 0, 58, 70
1, 711512, Note_off_c, 0, 49, 65
1, 711515, Note_off_c, 0, 51, 68
1, 711520, Note_off_c, 0, 78, 59
1, 711522, Note_off_c, 0, 54, 60
1, 711530, Note_off_c, 0, 90, 62
1, 711546, Note_off_c, 0, 82, 61
1, 711557, Note_off_c, 0, 87, 62
1, 711560, Note_off_c, 0, 85, 61
1, 711586, Note_on_c, 0, 63, 85
1, 711590, Note_on_c, 0, 49, 66
1, 711591, Note_on_c, 0, 58, 75
1, 711595, Note_on_c, 0, 51, 66
1, 711597, Note_on_c, 0, 54, 64
1, 711608, Note_off_c, 0, 58, 73
1, 711617, Note_off_c, 0, 63, 54
1, 711624, Note_off_c, 0, 54, 63
1, 711626, Note_off_c, 0, 49, 63
1, 711631, Note_off_c, 0, 51, 64
1, 711693, Note_on_c, 0, 63, 85
1, 711697, Note_on_c, 0, 51, 71
1, 711697, Note_on_c, 0, 58, 72
1, 711703, Note_on_c, 0, 54, 64
1, 711708, Note_on_c, 0, 49, 55
1, 711722, Note_off_c, 0, 58, 67
1, 711723, Note_off_c, 0, 63, 61
1, 711727, Note_off_c, 0, 54, 68
1, 711732, Note_off_c, 0, 51, 64
1, 711736, Note_off_c, 0, 49, 57
1, 711766, Poly_aftertouch_c, 0, 75, 0
1, 711789, Note_on_c, 0, 75, 82
1, 711791, Note_on_c, 0, 87, 97
1, 711794, Note_on_c, 0, 78, 90
1, 711796, Note_on_c, 0, 85, 82
1, 711799, Note_on_c, 0, 82, 83
1, 711808, Note_on_c, 0, 63, 95
1, 711808, Note_on_c, 0, 58, 71
1, 711813, Note_on_c, 0, 54, 50
1, 711816, Note_on_c, 0, 49, 69
1, 711820, Note_on_c, 0, 51, 63
1, 711828, Note_off_c, 0, 58, 67
1, 711834, Note_off_c, 0, 63, 62
1, 711844, Note_off_c, 0, 49, 63
1, 711844, Note_off_c, 0, 54, 65
1, 711849, Note_off_c, 0, 51, 65
1, 711919, Note_on_c, 0, 63, 85
1, 711922, Note_on_c, 0, 58, 76
1, 711925, Note_on_c, 0, 49, 67
1, 711925, Note_on_c, 0, 51, 65
1, 711930, Note_on_c, 0, 54, 56
1, 711942, Note_off_c, 0, 63, 63
1, 711944, Note_off_c, 0, 75, 60
1, 711950, Note_off_c, 0, 58, 65
1, 711955, Note_off_c, 0, 49, 61
1, 711956, Note_off_c, 0, 54, 65
1, 711964, Note_off_c, 0, 51, 64
1, 711977, Note_off_c, 0, 87, 60
1, 711978, Note_off_c, 0, 78, 59
1, 711988, Note_off_c, 0, 85, 60
1, 711991, Note_off_c, 0, 82, 60
1, 712030, Note_on_c, 0, 58, 65
1, 712030, Note_on_c, 0, 63, 81
1, 712037, Note_on_c, 0, 49, 57
1, 712037, Note_on_c, 0, 54, 66
1, 712040, Note_on_c, 0, 51, 70
1, 712051, Note_off_c, 0, 63, 67
1, 712055, Note_off_c, 0, 58, 65
1, 712066, Note_off_c, 0, 54, 64
1, 712070, Note_off_c, 0, 51, 64
1, 712075, Note_off_c, 0, 49, 59
1, 712124, Note_on_c, 0, 63, 88
1, 712125, Note_on_c, 0, 58, 76
1, 712136, Note_on_c, 0, 54, 70
1, 712138, Note_on_c, 0, 51, 61
1, 712145, Note_off_c, 0, 63, 63
1, 712153, Note_off_c, 0, 58, 65
1, 712161, Note_off_c, 0, 54, 65
1, 712167, Note_off_c, 0, 51, 64
1, 712216, Note_on_c, 0, 85, 103
1, 712216, Control_c, 0, 64, 87
1, 712218, Note_on_c, 0, 63, 89
1, 712218, Note_on_c, 0, 73, 101
1, 712221, Note_on_c, 0, 82, 65
1, 712225, Note_on_c, 0, 78, 81
1, 712230, Note_on_c, 0, 58, 76
1, 712231, Control_c, 0, 64, 68
1, 712232, Note_on_c, 0, 54, 68
1, 712236, Note_off_c, 0, 63, 71
1, 712237, Note_on_c, 0, 51, 58
1, 712245, Control_c, 0, 64, 65
1, 712260, Control_c, 0, 64, 72
1, 712261, Note_on_c, 0, 49, 39
1, 712273, Note_off_c, 0, 58, 60
1, 712275, Control_c, 0, 64, 84
1, 712282, Note_off_c, 0, 54, 61
1, 712289, Note_off_c, 0, 85, 64
1, 712290, Control_c, 0, 64, 126
1, 712296, Note_off_c, 0, 73, 60
1, 712297, Note_off_c, 0, 49, 52
1, 712300, Note_off_c, 0, 82, 63
1, 712301, Note_off_c, 0, 51, 63
1, 712303, Note_off_c, 0, 78, 63
1, 712304, Control_c, 0, 64, 127
1, 712387, Note_on_c, 0, 49, 85
1, 712395, Note_on_c, 0, 37, 78
1, 712404, Note_on_c, 0, 42, 66
1, 712429, Note_off_c, 0, 37, 63
1, 712448, Note_off_c, 0, 42, 49
1, 712456, Note_off_c, 0, 49, 59
1, 712490, Note_on_c, 0, 70, 94
1, 712491, Note_on_c, 0, 82, 101
1, 712497, Note_on_c, 0, 75, 84
1, 712499, Note_on_c, 0, 78, 74
1, 712570, Note_off_c, 0, 70, 61
1, 712579, Note_off_c, 0, 82, 64
1, 712580, Note_on_c, 0, 49, 80
1, 712585, Note_on_c, 0, 42, 68
1, 712600, Note_on_c, 0, 37, 58
1, 712600, Note_off_c, 0, 78, 61
1, 712602, Note_off_c, 0, 75, 60
1, 712635, Note_off_c, 0, 37, 61
1, 712642, Note_off_c, 0, 49, 63
1, 712654, Note_off_c, 0, 42, 61
1, 712785, Note_on_c, 0, 66, 83
1, 712788, Note_on_c, 0, 78, 91
1, 712790, Note_on_c, 0, 70, 81
1, 712795, Note_on_c, 0, 73, 81
1, 712797, Note_on_c, 0, 49, 77
1, 712798, Note_on_c, 0, 75, 81
1, 712805, Note_on_c, 0, 42, 66
1, 712811, Note_on_c, 0, 37, 64
1, 712830, Control_c, 0, 64, 107
1, 712845, Control_c, 0, 64, 84
1, 712860, Control_c, 0, 64, 73
1, 712872, Note_off_c, 0, 49, 62
1, 712875, Control_c, 0, 64, 72
1, 712879, Note_off_c, 0, 37, 59
1, 712889, Control_c, 0, 64, 78
1, 712890, Note_off_c, 0, 42, 60
1, 712905, Control_c, 0, 64, 90
1, 712920, Control_c, 0, 64, 127
1, 713001, Note_on_c, 0, 49, 79
1, 713003, Note_on_c, 0, 42, 67
1, 713006, Note_on_c, 0, 37, 67
1, 713057, Note_off_c, 0, 66, 58
1, 713060, Note_off_c, 0, 49, 63
1, 713063, Note_off_c, 0, 78, 60
1, 713066, Note_off_c, 0, 37, 58
1, 713083, Note_off_c, 0, 42, 60
1, 713107, Note_off_c, 0, 70, 61
1, 713112, Note_off_c, 0, 75, 57
1, 713126, Note_off_c, 0, 73, 59
1, 713182, Note_on_c, 0, 49, 80
1, 713184, Note_on_c, 0, 42, 72
1, 713188, Note_on_c, 0, 37, 65
1, 713292, Note_off_c, 0, 49, 62
1, 713294, Note_off_c, 0, 37, 57
1, 713308, Note_off_c, 0, 42, 58
1, 713394, Note_on_c, 0, 75, 85
1, 713395, Note_on_c, 0, 63, 84
1, 713398, Note_on_c, 0, 66, 77
1, 713399, Note_on_c, 0, 73, 80
1, 713402, Note_on_c, 0, 70, 73
1, 713405, Note_on_c, 0, 49, 74
1, 713412, Note_on_c, 0, 37, 68
1, 713414, Note_on_c, 0, 42, 66
1, 713482, Note_off_c, 0, 49, 60
1, 713493, Note_off_c, 0, 37, 55
1, 713504, Note_off_c, 0, 42, 59
1, 713611, Note_on_c, 0, 42, 64
1, 713614, Note_on_c, 0, 49, 71
1, 713620, Note_on_c, 0, 37, 63
1, 713657, Note_off_c, 0, 75, 58
1, 713663, Note_off_c, 0, 63, 50
1, 713694, Note_off_c, 0, 49, 61
1, 713709, Note_off_c, 0, 42, 59
1, 713709, Note_off_c, 0, 37, 54
1, 713762, Note_off_c, 0, 73, 56
1, 713771, Note_off_c, 0, 66, 59
1, 713787, Note_off_c, 0, 70, 57
1, 713814, Note_on_c, 0, 49, 69
1, 713817, Note_on_c, 0, 37, 62
1, 713818, Note_on_c, 0, 42, 63
1, 713915, Note_off_c, 0, 49, 61
1, 713921, Note_off_c, 0, 37, 58
1, 713945, Note_off_c, 0, 42, 59
1, 714059, Note_on_c, 0, 73, 88
1, 714060, Note_on_c, 0, 70, 80
1, 714063, Note_on_c, 0, 61, 79
1, 714064, Note_on_c, 0, 37, 67
1, 714066, Note_on_c, 0, 42, 67
1, 714070, Note_on_c, 0, 49, 72
1, 714091, Control_c, 0, 64, 107
1, 714106, Control_c, 0, 64, 86
1, 714121, Control_c, 0, 64, 73
1, 714135, Control_c, 0, 64, 66
1, 714165, Control_c, 0, 64, 71
1, 714180, Control_c, 0, 64, 78
1, 714183, Note_off_c, 0, 49, 61
1, 714185, Note_off_c, 0, 37, 61
1, 714195, Control_c, 0, 64, 88
1, 714209, Control_c, 0, 64, 105
1, 714224, Control_c, 0, 64, 127
1, 714294, Note_on_c, 0, 49, 67
1, 714315, Note_on_c, 0, 37, 50
1, 714368, Note_off_c, 0, 37, 58
1, 714378, Note_off_c, 0, 49, 60
1, 714492, Note_on_c, 0, 49, 63
1, 714506, Note_on_c, 0, 37, 43
1, 714565, Note_off_c, 0, 37, 51
1, 714568, Note_off_c, 0, 49, 59
1, 714700, Note_on_c, 0, 49, 67
1, 714714, Note_on_c, 0, 68, 77
1, 714717, Note_on_c, 0, 37, 52
1, 714718, Note_on_c, 0, 41, 74
1, 714729, Control_c, 0, 64, 124
1, 714744, Control_c, 0, 64, 89
1, 714750, Note_off_c, 0, 42, 62
1, 714759, Control_c, 0, 64, 72
1, 714781, Control_c, 0, 64, 61
1, 714794, Note_off_c, 0, 37, 54
1, 714796, Control_c, 0, 64, 57
1, 714801, Note_off_c, 0, 70, 48
1, 714811, Control_c, 0, 64, 62
1, 714816, Note_off_c, 0, 49, 58
1, 714826, Control_c, 0, 64, 68
1, 714840, Control_c, 0, 64, 76
1, 714855, Control_c, 0, 64, 87
1, 714870, Control_c, 0, 64, 106
1, 714885, Control_c, 0, 64, 127
1, 714924, Note_on_c, 0, 49, 61
1, 714932, Note_on_c, 0, 37, 48
1, 715000, Note_off_c, 0, 49, 57
1, 715078, Note_off_c, 0, 37, 0
1, 715100, Note_off_c, 0, 68, 60
1, 715107, Note_on_c, 0, 37, 14
1, 715119, Note_on_c, 0, 49, 57
1, 715177, Note_off_c, 0, 49, 58
1, 715212, Note_off_c, 0, 37, 0
1, 715243, Poly_aftertouch_c, 0, 37, 0
1, 715345, Note_on_c, 0, 66, 76
1, 715357, Note_on_c, 0, 49, 66
1, 715358, Note_on_c, 0, 37, 61
1, 715359, Control_c, 0, 64, 112
1, 715364, Note_on_c, 0, 39, 65
1, 715373, Control_c, 0, 64, 86
1, 715388, Control_c, 0, 64, 68
1, 715394, Note_off_c, 0, 41, 60
1, 715403, Control_c, 0, 64, 56
1, 715418, Control_c, 0, 64, 55
1, 715433, Control_c, 0, 64, 62
1, 715447, Control_c, 0, 64, 67
1, 715459, Note_off_c, 0, 37, 60
1, 715462, Control_c, 0, 64, 74
1, 715473, Note_off_c, 0, 49, 59
1, 715477, Control_c, 0, 64, 83
1, 715492, Control_c, 0, 64, 97
1, 715507, Control_c, 0, 64, 119
1, 715529, Control_c, 0, 64, 127
1, 715584, Note_on_c, 0, 49, 65
1, 715601, Note_on_c, 0, 37, 43
1, 715639, Note_off_c, 0, 49, 58
1, 715659, Note_off_c, 0, 37, 47
1, 715775, Note_on_c, 0, 49, 56
1, 715840, Note_off_c, 0, 49, 55
1, 715870, Poly_aftertouch_c, 0, 37, 127
1, 716091, Note_on_c, 0, 46, 67
1, 716109, Poly_aftertouch_c, 0, 49, 127
1, 716137, Control_c, 0, 64, 92
1, 716152, Control_c, 0, 64, 71
1, 716167, Control_c, 0, 64, 33
1, 716175, Poly_aftertouch_c, 0, 49, 0
1, 716182, Control_c, 0, 64, 0
1, 716256, Control_c, 0, 64, 59
1, 716278, Control_c, 0, 64, 66
1, 716293, Control_c, 0, 64, 72
1, 716297, Poly_aftertouch_c, 0, 37, 0
1, 716308, Control_c, 0, 64, 77
1, 716323, Control_c, 0, 64, 84
1, 716327, Note_off_c, 0, 39, 58
1, 716337, Control_c, 0, 64, 93
1, 716352, Control_c, 0, 64, 107
1, 716367, Control_c, 0, 64, 127
1, 716426, Control_c, 0, 67, 8
1, 716441, Control_c, 0, 67, 9
1, 716456, Control_c, 0, 67, 9
1, 716471, Control_c, 0, 67, 10
1, 716485, Control_c, 0, 67, 11
1, 716493, Note_on_c, 0, 49, 35
1, 716500, Control_c, 0, 67, 13
1, 716505, Note_on_c, 0, 37, 27
1, 716515, Control_c, 0, 67, 14
1, 716529, Control_c, 0, 67, 16
1, 716544, Control_c, 0, 67, 17
1, 716559, Control_c, 0, 67, 18
1, 716574, Control_c, 0, 67, 20
1, 716580, Note_off_c, 0, 46, 61
1, 716580, Note_off_c, 0, 49, 51
1, 716580, Note_off_c, 0, 66, 57
1, 716589, Control_c, 0, 67, 20
1, 716604, Control_c, 0, 67, 21
1, 716619, Control_c, 0, 67, 23
1, 716634, Control_c, 0, 67, 24
1, 716640, Note_off_c, 0, 37, 41
1, 716649, Control_c, 0, 67, 25
1, 716663, Control_c, 0, 67, 26
1, 716678, Control_c, 0, 67, 27
1, 716693, Control_c, 0, 67, 28
1, 716708, Control_c, 0, 67, 28
1, 716722, Control_c, 0, 67, 29
1, 716737, Control_c, 0, 67, 30
1, 716752, Control_c, 0, 67, 31
1, 716767, Control_c, 0, 67, 32
1, 716780, Note_on_c, 0, 65, 62
1, 716782, Control_c, 0, 67, 33
1, 716787, Note_on_c, 0, 44, 54
1, 716795, Note_on_c, 0, 37, 35
1, 716797, Control_c, 0, 67, 33
1, 716801, Note_on_c, 0, 49, 39
1, 716811, Control_c, 0, 67, 34
1, 716826, Control_c, 0, 64, 98
1, 716826, Control_c, 0, 67, 36
1, 716841, Control_c, 0, 64, 79
1, 716841, Control_c, 0, 67, 38
1, 716855, Control_c, 0, 64, 65
1, 716855, Control_c, 0, 67, 40
1, 716870, Control_c, 0, 64, 48
1, 716870, Control_c, 0, 67, 42
1, 716885, Control_c, 0, 64, 43
1, 716885, Control_c, 0, 67, 44
1, 716901, Control_c, 0, 64, 47
1, 716901, Control_c, 0, 67, 46
1, 716916, Control_c, 0, 64, 60
1, 716916, Control_c, 0, 67, 49
1, 716931, Control_c, 0, 64, 65
1, 716931, Control_c, 0, 67, 52
1, 716941, Note_off_c, 0, 37, 51
1, 716945, Control_c, 0, 64, 69
1, 716945, Control_c, 0, 67, 54
1, 716954, Note_off_c, 0, 49, 57
1, 716960, Control_c, 0, 64, 73
1, 716960, Control_c, 0, 67, 56
1, 716975, Control_c, 0, 64, 79
1, 716975, Control_c, 0, 67, 58
1, 716990, Control_c, 0, 64, 86
1, 716990, Control_c, 0, 67, 60
1, 717005, Control_c, 0, 64, 98
1, 717005, Control_c, 0, 67, 61
1, 717027, Control_c, 0, 64, 116
1, 717027, Control_c, 0, 67, 64
1, 717042, Control_c, 0, 64, 127
1, 717042, Control_c, 0, 67, 65
1, 717057, Control_c, 0, 67, 67
1, 717072, Control_c, 0, 67, 69
1, 717087, Control_c, 0, 67, 70
1, 717101, Control_c, 0, 67, 72
1, 717116, Control_c, 0, 67, 73
1, 717130, Note_on_c, 0, 37, 35
1, 717131, Control_c, 0, 67, 75
1, 717146, Note_on_c, 0, 49, 28
1, 717146, Control_c, 0, 67, 77
1, 717160, Control_c, 0, 67, 78
1, 717175, Control_c, 0, 67, 80
1, 717190, Control_c, 0, 67, 81
1, 717205, Control_c, 0, 67, 83
1, 717220, Control_c, 0, 67, 85
1, 717233, Note_off_c, 0, 65, 61
1, 717234, Control_c, 0, 67, 87
1, 717249, Control_c, 0, 67, 89
1, 717260, Note_off_c, 0, 37, 39
1, 717264, Control_c, 0, 67, 91
1, 717278, Control_c, 0, 67, 93
1, 717290, Note_off_c, 0, 49, 46
1, 717293, Control_c, 0, 67, 95
1, 717308, Control_c, 0, 67, 96
1, 717323, Control_c, 0, 67, 98
1, 717338, Control_c, 0, 67, 100
1, 717353, Control_c, 0, 67, 101
1, 717368, Control_c, 0, 67, 103
1, 717383, Control_c, 0, 67, 104
1, 717398, Control_c, 0, 67, 105
1, 717413, Control_c, 0, 67, 107
1, 717427, Control_c, 0, 67, 109
1, 717439, Note_on_c, 0, 63, 64
1, 717440, Note_on_c, 0, 49, 28
1, 717442, Control_c, 0, 67, 111
1, 717454, Note_on_c, 0, 42, 54
1, 717457, Control_c, 0, 67, 113
1, 717465, Note_on_c, 0, 37, 30
1, 717471, Control_c, 0, 64, 109
1, 717471, Control_c, 0, 67, 115
1, 717486, Control_c, 0, 64, 81
1, 717486, Control_c, 0, 67, 117
1, 717501, Control_c, 0, 64, 66
1, 717501, Control_c, 0, 67, 118
1, 717516, Control_c, 0, 64, 40
1, 717516, Control_c, 0, 67, 120
1, 717531, Control_c, 0, 64, 17
1, 717531, Control_c, 0, 67, 121
1, 717546, Control_c, 0, 64, 19
1, 717546, Control_c, 0, 67, 123
1, 717561, Control_c, 0, 64, 38
1, 717561, Control_c, 0, 67, 124
1, 717576, Control_c, 0, 64, 58
1, 717576, Control_c, 0, 67, 125
1, 717582, Note_off_c, 0, 44, 58
1, 717590, Control_c, 0, 64, 65
1, 717590, Control_c, 0, 67, 126
1, 717605, Note_off_c, 0, 49, 49
1, 717605, Control_c, 0, 64, 69
1, 717605, Control_c, 0, 67, 127
1, 717620, Control_c, 0, 64, 73
1, 717623, Note_off_c, 0, 37, 46
1, 717635, Control_c, 0, 64, 77
1, 717650, Control_c, 0, 64, 83
1, 717665, Control_c, 0, 64, 92
1, 717679, Control_c, 0, 64, 104
1, 717695, Control_c, 0, 64, 127
1, 717802, Note_on_c, 0, 49, 43
1, 717828, Note_off_c, 0, 63, 59
1, 717829, Note_on_c, 0, 37, 29
1, 717912, Note_off_c, 0, 49, 53
1, 717978, Note_off_c, 0, 37, 42
1, 718133, Note_on_c, 0, 37, 36
1, 718139, Note_on_c, 0, 65, 53
1, 718146, Note_on_c, 0, 44, 51
1, 718155, Note_on_c, 0, 49, 37
1, 718162, Control_c, 0, 64, 99
1, 718176, Control_c, 0, 64, 78
1, 718191, Control_c, 0, 64, 53
1, 718206, Control_c, 0, 64, 0
1, 718213, Note_off_c, 0, 42, 59
1, 718309, Note_off_c, 0, 37, 53
1, 718315, Note_off_c, 0, 49, 51
1, 718324, Control_c, 0, 64, 52
1, 718339, Control_c, 0, 64, 65
1, 718354, Control_c, 0, 64, 71
1, 718369, Control_c, 0, 64, 77
1, 718383, Control_c, 0, 64, 86
1, 718398, Control_c, 0, 64, 95
1, 718413, Control_c, 0, 64, 105
1, 718428, Control_c, 0, 64, 122
1, 718443, Control_c, 0, 64, 127
1, 718503, Note_on_c, 0, 49, 36
1, 718510, Note_on_c, 0, 37, 36
1, 718884, Note_off_c, 0, 49, 41
1, 718906, Note_off_c, 0, 37, 43
1, 719227, Note_on_c, 0, 49, 37
1, 719233, Note_on_c, 0, 37, 33
1, 719670, Note_off_c, 0, 37, 41
1, 719674, Note_off_c, 0, 49, 35
1, 720254, Note_on_c, 0, 37, 26
1, 720263, Note_on_c, 0, 49, 32
1, 720326, Note_off_c, 0, 65, 35
1, 720333, Note_off_c, 0, 44, 54
1, 720369, Note_off_c, 0, 73, 47
1, 720372, Note_off_c, 0, 61, 37
1, 720407, Note_off_c, 0, 49, 36
1, 720431, Note_off_c, 0, 37, 43
1, 720701, Note_on_c, 0, 49, 39
1, 720719, Control_c, 0, 64, 105
1, 720732, Note_on_c, 0, 37, 31
1, 720734, Control_c, 0, 64, 94
1, 720749, Control_c, 0, 64, 85
1, 720764, Control_c, 0, 64, 77
1, 720786, Control_c, 0, 64, 69
1, 720801, Control_c, 0, 64, 64
1, 720816, Control_c, 0, 64, 60
1, 720831, Control_c, 0, 64, 59
1, 720845, Control_c, 0, 64, 57
1, 720860, Control_c, 0, 64, 56
1, 720875, Control_c, 0, 64, 56
1, 720920, Control_c, 0, 64, 58
1, 720935, Control_c, 0, 64, 62
1, 720950, Control_c, 0, 64, 65
1, 720965, Control_c, 0, 64, 67
1, 720980, Control_c, 0, 64, 70
1, 720994, Control_c, 0, 64, 73
1, 721009, Control_c, 0, 64, 77
1, 721024, Control_c, 0, 64, 81
1, 721039, Control_c, 0, 64, 85
1, 721054, Control_c, 0, 64, 90
1, 721068, Control_c, 0, 64, 94
1, 721083, Control_c, 0, 64, 99
1, 721098, Control_c, 0, 64, 105
1, 721113, Control_c, 0, 64, 112
1, 721127, Control_c, 0, 64, 127
1, 721427, Note_off_c, 0, 49, 44
1, 721847, Note_on_c, 0, 36, 25
1, 721848, Note_on_c, 0, 48, 38
1, 721906, Control_c, 0, 64, 111
1, 721921, Control_c, 0, 64, 102
1, 721936, Control_c, 0, 64, 94
1, 721950, Control_c, 0, 64, 86
1, 721965, Control_c, 0, 64, 78
1, 721980, Control_c, 0, 64, 71
1, 721995, Control_c, 0, 64, 64
1, 722010, Control_c, 0, 64, 60
1, 722024, Control_c, 0, 64, 59
1, 722083, Control_c, 0, 64, 60
1, 722098, Control_c, 0, 64, 62
1, 722113, Control_c, 0, 64, 64
1, 722128, Control_c, 0, 64, 66
1, 722142, Control_c, 0, 64, 69
1, 722157, Control_c, 0, 64, 71
1, 722172, Control_c, 0, 64, 73
1, 722187, Control_c, 0, 64, 75
1, 722202, Control_c, 0, 64, 78
1, 722217, Control_c, 0, 64, 81
1, 722232, Control_c, 0, 64, 84
1, 722247, Control_c, 0, 64, 88
1, 722268, Control_c, 0, 64, 92
1, 722283, Control_c, 0, 64, 96
1, 722298, Control_c, 0, 64, 100
1, 722313, Control_c, 0, 64, 105
1, 722328, Control_c, 0, 64, 111
1, 722342, Control_c, 0, 64, 126
1, 722357, Control_c, 0, 64, 127
1, 722658, Note_off_c, 0, 48, 36
1, 722861, Note_off_c, 0, 36, 38
1, 722888, Note_off_c, 0, 37, 39
1, 723137, Note_on_c, 0, 61, 46
1, 723143, Note_on_c, 0, 47, 23
1, 723148, Note_on_c, 0, 37, 35
1, 723148, Note_on_c, 0, 49, 36
1, 723154, Note_on_c, 0, 35, 20
1, 723165, Control_c, 0, 64, 109
1, 723180, Control_c, 0, 64, 97
1, 723195, Control_c, 0, 64, 86
1, 723210, Control_c, 0, 64, 78
1, 723224, Control_c, 0, 64, 72
1, 723239, Control_c, 0, 64, 67
1, 723254, Control_c, 0, 64, 65
1, 723284, Control_c, 0, 64, 66
1, 723300, Control_c, 0, 64, 68
1, 723314, Control_c, 0, 64, 70
1, 723329, Control_c, 0, 64, 73
1, 723344, Control_c, 0, 64, 77
1, 723359, Control_c, 0, 64, 81
1, 723374, Control_c, 0, 64, 85
1, 723389, Control_c, 0, 64, 88
1, 723403, Control_c, 0, 64, 93
1, 723418, Control_c, 0, 64, 97
1, 723433, Control_c, 0, 64, 102
1, 723448, Control_c, 0, 64, 109
1, 723463, Control_c, 0, 64, 123
1, 723478, Control_c, 0, 64, 127
1, 723508, Control_c, 0, 67, 127
1, 723522, Control_c, 0, 67, 123
1, 723537, Control_c, 0, 67, 120
1, 723552, Control_c, 0, 67, 115
1, 723567, Control_c, 0, 67, 111
1, 723582, Control_c, 0, 67, 106
1, 723596, Control_c, 0, 67, 101
1, 723611, Control_c, 0, 67, 95
1, 723626, Control_c, 0, 67, 91
1, 723640, Control_c, 0, 67, 86
1, 723654, Note_off_c, 0, 49, 43
1, 723655, Control_c, 0, 67, 82
1, 723664, Note_off_c, 0, 47, 42
1, 723670, Control_c, 0, 67, 79
1, 723677, Note_off_c, 0, 35, 41
1, 723685, Control_c, 0, 67, 76
1, 723700, Control_c, 0, 67, 74
1, 723714, Control_c, 0, 67, 73
1, 723729, Control_c, 0, 67, 73
1, 723796, Control_c, 0, 67, 73
1, 723811, Control_c, 0, 67, 74
1, 723826, Control_c, 0, 67, 74
1, 723840, Control_c, 0, 67, 75
1, 723855, Control_c, 0, 67, 75
1, 723870, Control_c, 0, 67, 76
1, 723890, Note_off_c, 0, 37, 32
1, 723900, Control_c, 0, 67, 76
1, 723914, Control_c, 0, 67, 77
1, 723944, Control_c, 0, 67, 77
1, 723986, Note_off_c, 0, 61, 52
1, 723988, Control_c, 0, 67, 78
1, 724033, Control_c, 0, 67, 78
1, 724062, Control_c, 0, 67, 79
1, 724108, Control_c, 0, 67, 79
1, 724123, Control_c, 0, 67, 80
1, 724167, Control_c, 0, 67, 80
1, 724271, Control_c, 0, 67, 81
1, 724390, Control_c, 0, 67, 81
1, 724447, Note_on_c, 0, 66, 53
1, 724461, Note_on_c, 0, 46, 30
1, 724467, Note_on_c, 0, 61, 45
1, 724468, Note_on_c, 0, 54, 41
1, 724471, Note_on_c, 0, 34, 27
1, 724476, Note_on_c, 0, 37, 37
1, 724508, Control_c, 0, 64, 123
1, 724530, Control_c, 0, 64, 101
1, 724545, Control_c, 0, 64, 92
1, 724560, Control_c, 0, 64, 83
1, 724575, Control_c, 0, 64, 76
1, 724590, Control_c, 0, 64, 68
1, 724605, Control_c, 0, 64, 64
1, 724619, Control_c, 0, 64, 61
1, 724649, Control_c, 0, 64, 60
1, 724693, Control_c, 0, 64, 61
1, 724708, Control_c, 0, 64, 62
1, 724708, Control_c, 0, 67, 81
1, 724723, Control_c, 0, 64, 64
1, 724737, Control_c, 0, 64, 66
1, 724752, Control_c, 0, 64, 68
1, 724752, Control_c, 0, 67, 80
1, 724767, Control_c, 0, 64, 71
1, 724782, Control_c, 0, 64, 74
1, 724797, Control_c, 0, 64, 78
1, 724797, Control_c, 0, 67, 80
1, 724811, Control_c, 0, 64, 82
1, 724826, Control_c, 0, 64, 86
1, 724840, Control_c, 0, 64, 91
1, 724855, Control_c, 0, 64, 96
1, 724870, Control_c, 0, 64, 101
1, 724870, Control_c, 0, 67, 79
1, 724885, Control_c, 0, 64, 108
1, 724900, Control_c, 0, 64, 127
1, 725093, Control_c, 0, 67, 80
1, 725167, Control_c, 0, 67, 80
1, 725212, Control_c, 0, 67, 81
1, 725249, Note_off_c, 0, 46, 41
1, 725256, Control_c, 0, 67, 81
1, 725287, Note_off_c, 0, 34, 44
1, 725293, Control_c, 0, 67, 82
1, 725323, Control_c, 0, 67, 82
1, 725367, Control_c, 0, 67, 83
1, 725397, Control_c, 0, 67, 83
1, 725411, Control_c, 0, 67, 84
1, 725448, Note_off_c, 0, 37, 32
1, 725471, Control_c, 0, 67, 84
1, 725530, Control_c, 0, 67, 85
1, 725560, Control_c, 0, 67, 85
1, 725603, Control_c, 0, 67, 86
1, 725633, Control_c, 0, 67, 86
1, 725636, Note_on_c, 0, 45, 36
1, 725640, Note_on_c, 0, 37, 42
1, 725642, Note_on_c, 0, 33, 32
1, 725663, Control_c, 0, 67, 87
1, 725678, Control_c, 0, 64, 105
1, 725678, Control_c, 0, 67, 88
1, 725693, Control_c, 0, 64, 92
1, 725693, Control_c, 0, 67, 89
1, 725707, Control_c, 0, 64, 81
1, 725707, Control_c, 0, 67, 90
1, 725722, Control_c, 0, 64, 71
1, 725722, Control_c, 0, 67, 91
1, 725737, Control_c, 0, 64, 62
1, 725752, Control_c, 0, 64, 40
1, 725767, Control_c, 0, 64, 29
1, 725767, Control_c, 0, 67, 91
1, 725782, Control_c, 0, 64, 26
1, 725797, Control_c, 0, 64, 19
1, 725812, Control_c, 0, 64, 17
1, 725842, Control_c, 0, 64, 19
1, 725856, Control_c, 0, 64, 36
1, 725856, Control_c, 0, 67, 91
1, 725871, Control_c, 0, 64, 50
1, 725886, Control_c, 0, 64, 60
1, 725901, Control_c, 0, 64, 64
1, 725901, Control_c, 0, 67, 90
1, 725915, Control_c, 0, 64, 66
1, 725915, Control_c, 0, 67, 90
1, 725930, Control_c, 0, 64, 68
1, 725945, Control_c, 0, 64, 72
1, 725945, Control_c, 0, 67, 89
1, 725960, Control_c, 0, 64, 75
1, 725960, Control_c, 0, 67, 89
1, 725975, Control_c, 0, 64, 80
1, 725989, Control_c, 0, 64, 85
1, 725989, Control_c, 0, 67, 88
1, 726012, Control_c, 0, 64, 90
1, 726026, Control_c, 0, 64, 94
1, 726026, Control_c, 0, 67, 88
1, 726041, Control_c, 0, 64, 99
1, 726056, Control_c, 0, 64, 103
1, 726071, Control_c, 0, 64, 110
1, 726086, Control_c, 0, 64, 124
1, 726101, Control_c, 0, 64, 127
1, 726204, Control_c, 0, 67, 88
1, 726263, Control_c, 0, 67, 89
1, 726274, Note_off_c, 0, 54, 54
1, 726319, Note_off_c, 0, 33, 40
1, 726366, Note_off_c, 0, 66, 39
1, 726396, Control_c, 0, 67, 89
1, 726405, Note_off_c, 0, 45, 44
1, 726527, Note_off_c, 0, 37, 40
1, 726533, Note_off_c, 0, 61, 35
1, 726836, Note_on_c, 0, 65, 56
1, 726837, Note_on_c, 0, 44, 41
1, 726858, Note_on_c, 0, 61, 46
1, 726861, Note_on_c, 0, 32, 30
1, 726861, Note_on_c, 0, 37, 40
1, 726864, Control_c, 0, 64, 109
1, 726864, Control_c, 0, 67, 89
1, 726864, Note_on_c, 0, 53, 38
1, 726879, Control_c, 0, 64, 93
1, 726894, Control_c, 0, 64, 80
1, 726909, Control_c, 0, 64, 71
1, 726909, Control_c, 0, 67, 88
1, 726924, Control_c, 0, 64, 63
1, 726938, Control_c, 0, 64, 58
1, 726968, Control_c, 0, 64, 59
1, 726968, Control_c, 0, 67, 88
1, 726983, Control_c, 0, 64, 61
1, 726998, Control_c, 0, 64, 63
1, 727012, Control_c, 0, 64, 65
1, 727012, Control_c, 0, 67, 87
1, 727027, Control_c, 0, 64, 68
1, 727027, Control_c, 0, 67, 87
1, 727042, Control_c, 0, 64, 70
1, 727056, Control_c, 0, 64, 73
1, 727056, Control_c, 0, 67, 86
1, 727071, Control_c, 0, 64, 76
1, 727071, Control_c, 0, 67, 86
1, 727087, Control_c, 0, 64, 79
1, 727102, Control_c, 0, 64, 82
1, 727102, Control_c, 0, 67, 85
1, 727117, Control_c, 0, 64, 85
1, 727117, Control_c, 0, 67, 85
1, 727132, Control_c, 0, 64, 89
1, 727146, Control_c, 0, 64, 92
1, 727146, Control_c, 0, 67, 84
1, 727161, Control_c, 0, 64, 96
1, 727176, Control_c, 0, 64, 101
1, 727191, Control_c, 0, 64, 106
1, 727191, Control_c, 0, 67, 84
1, 727206, Control_c, 0, 64, 113
1, 727220, Control_c, 0, 64, 127
1, 727235, Control_c, 0, 67, 83
1, 727264, Control_c, 0, 67, 83
1, 727386, Note_off_c, 0, 32, 43
1, 727408, Note_off_c, 0, 44, 43
1, 727414, Note_off_c, 0, 53, 44
1, 727535, Note_off_c, 0, 37, 32
1, 727546, Note_off_c, 0, 61, 42
1, 727880, Control_c, 0, 67, 83
1, 727921, Note_on_c, 0, 63, 57
1, 727931, Note_on_c, 0, 58, 45
1, 727934, Note_on_c, 0, 31, 36
1, 727937, Note_on_c, 0, 43, 35
1, 727937, Note_on_c, 0, 51, 37
1, 727955, Control_c, 0, 64, 122
1, 727957, Note_on_c, 0, 37, 43
1, 727969, Control_c, 0, 64, 103
1, 727984, Control_c, 0, 64, 91
1, 727984, Control_c, 0, 67, 84
1, 727999, Control_c, 0, 64, 81
1, 728013, Control_c, 0, 64, 72
1, 728028, Control_c, 0, 64, 63
1, 728043, Control_c, 0, 64, 48
1, 728058, Control_c, 0, 64, 19
1, 728073, Control_c, 0, 64, 0
1, 728161, Note_off_c, 0, 65, 33
1, 728333, Control_c, 0, 64, 17
1, 728333, Control_c, 0, 67, 83
1, 728348, Control_c, 0, 64, 55
1, 728363, Control_c, 0, 64, 63
1, 728378, Control_c, 0, 64, 66
1, 728378, Control_c, 0, 67, 83
1, 728392, Control_c, 0, 64, 71
1, 728407, Control_c, 0, 64, 76
1, 728422, Control_c, 0, 64, 85
1, 728422, Control_c, 0, 67, 82
1, 728436, Control_c, 0, 64, 93
1, 728451, Control_c, 0, 64, 103
1, 728466, Control_c, 0, 64, 119
1, 728481, Control_c, 0, 64, 127
1, 728599, Control_c, 0, 67, 83
1, 728644, Control_c, 0, 67, 83
1, 728672, Note_off_c, 0, 31, 40
1, 728673, Control_c, 0, 67, 84
1, 728718, Control_c, 0, 67, 84
1, 728725, Note_off_c, 0, 43, 40
1, 728748, Control_c, 0, 67, 85
1, 728794, Note_off_c, 0, 37, 42
1, 728807, Control_c, 0, 67, 85
1, 728851, Control_c, 0, 67, 86
1, 728912, Control_c, 0, 67, 86
1, 729037, Control_c, 0, 67, 87
1, 729059, Note_on_c, 0, 42, 42
1, 729061, Note_on_c, 0, 36, 42
1, 729072, Note_on_c, 0, 30, 38
1, 729097, Control_c, 0, 67, 87
1, 729112, Control_c, 0, 67, 88
1, 729141, Control_c, 0, 64, 103
1, 729156, Control_c, 0, 64, 90
1, 729171, Control_c, 0, 64, 80
1, 729186, Control_c, 0, 64, 70
1, 729201, Control_c, 0, 64, 63
1, 729201, Control_c, 0, 67, 88
1, 729215, Control_c, 0, 64, 57
1, 729230, Control_c, 0, 64, 56
1, 729259, Control_c, 0, 64, 57
1, 729274, Control_c, 0, 64, 61
1, 729289, Control_c, 0, 64, 64
1, 729304, Control_c, 0, 64, 67
1, 729319, Control_c, 0, 64, 70
1, 729333, Control_c, 0, 64, 74
1, 729348, Control_c, 0, 64, 77
1, 729363, Control_c, 0, 64, 81
1, 729378, Control_c, 0, 64, 85
1, 729378, Control_c, 0, 67, 88
1, 729393, Control_c, 0, 64, 89
1, 729407, Control_c, 0, 64, 93
1, 729422, Control_c, 0, 64, 97
1, 729437, Control_c, 0, 64, 102
1, 729452, Control_c, 0, 64, 108
1, 729466, Control_c, 0, 64, 118
1, 729481, Control_c, 0, 64, 127
1, 729560, Note_off_c, 0, 51, 44
1, 729658, Note_off_c, 0, 58, 56
1, 729726, Note_off_c, 0, 36, 34
1, 729744, Note_off_c, 0, 42, 42
1, 729791, Note_off_c, 0, 30, 39
1, 729875, Control_c, 0, 67, 88
1, 729934, Control_c, 0, 67, 89
1, 730053, Control_c, 0, 67, 89
1, 730159, Note_off_c, 0, 63, 38
1, 730245, Note_on_c, 0, 65, 53
1, 730245, Control_c, 0, 67, 89
1, 730278, Note_on_c, 0, 57, 44
1, 730279, Note_on_c, 0, 51, 45
1, 730286, Note_on_c, 0, 41, 33
1, 730294, Note_on_c, 0, 36, 36
1, 730295, Note_on_c, 0, 29, 36
1, 730304, Control_c, 0, 67, 88
1, 730334, Control_c, 0, 64, 108
1, 730334, Control_c, 0, 67, 88
1, 730349, Control_c, 0, 64, 94
1, 730364, Control_c, 0, 64, 82
1, 730364, Control_c, 0, 67, 87
1, 730379, Control_c, 0, 64, 73
1, 730379, Control_c, 0, 67, 87
1, 730393, Control_c, 0, 64, 65
1, 730393, Control_c, 0, 67, 86
1, 730408, Control_c, 0, 64, 59
1, 730408, Control_c, 0, 67, 85
1, 730423, Control_c, 0, 67, 84
1, 730438, Control_c, 0, 64, 62
1, 730438, Control_c, 0, 67, 83
1, 730453, Control_c, 0, 64, 64
1, 730453, Control_c, 0, 67, 82
1, 730468, Control_c, 0, 64, 66
1, 730468, Control_c, 0, 67, 81
1, 730483, Control_c, 0, 64, 70
1, 730483, Control_c, 0, 67, 79
1, 730505, Control_c, 0, 64, 74
1, 730505, Control_c, 0, 67, 77
1, 730520, Control_c, 0, 64, 79
1, 730520, Control_c, 0, 67, 73
1, 730535, Control_c, 0, 64, 83
1, 730535, Control_c, 0, 67, 67
1, 730550, Control_c, 0, 64, 88
1, 730550, Control_c, 0, 67, 59
1, 730565, Control_c, 0, 64, 94
1, 730565, Control_c, 0, 67, 50
1, 730579, Control_c, 0, 64, 101
1, 730579, Control_c, 0, 67, 40
1, 730594, Control_c, 0, 64, 110
1, 730594, Control_c, 0, 67, 28
1, 730609, Control_c, 0, 64, 127
1, 730609, Control_c, 0, 67, 17
1, 730624, Control_c, 0, 67, 0
1, 730708, Note_off_c, 0, 65, 38
1, 730897, Note_off_c, 0, 57, 37
1, 730913, Note_off_c, 0, 36, 40
1, 730920, Note_off_c, 0, 29, 41
1, 730945, Note_off_c, 0, 41, 40
1, 730949, Note_off_c, 0, 51, 40
1, 731401, Note_on_c, 0, 61, 49
1, 731401, Note_on_c, 0, 40, 34
1, 731404, Note_on_c, 0, 49, 42
1, 731414, Note_on_c, 0, 28, 33
1, 731418, Note_on_c, 0, 34, 44
1, 731418, Note_on_c, 0, 56, 45
1, 731424, Note_on_c, 0, 58, 48
1, 731461, Control_c, 0, 64, 111
1, 731476, Control_c, 0, 64, 95
1, 731491, Control_c, 0, 64, 84
1, 731506, Control_c, 0, 64, 74
1, 731521, Control_c, 0, 64, 65
1, 731535, Control_c, 0, 64, 56
1, 731550, Control_c, 0, 64, 47
1, 731565, Control_c, 0, 64, 46
1, 731595, Control_c, 0, 64, 47
1, 731610, Control_c, 0, 64, 54
1, 731625, Control_c, 0, 64, 62
1, 731639, Control_c, 0, 64, 66
1, 731654, Control_c, 0, 64, 69
1, 731669, Control_c, 0, 64, 72
1, 731684, Control_c, 0, 64, 76
1, 731699, Control_c, 0, 64, 80
1, 731714, Control_c, 0, 64, 85
1, 731728, Control_c, 0, 64, 91
1, 731743, Control_c, 0, 64, 98
1, 731758, Control_c, 0, 64, 105
1, 731773, Control_c, 0, 64, 115
1, 731787, Control_c, 0, 64, 127
1, 732025, Note_off_c, 0, 28, 38
1, 732095, Note_off_c, 0, 40, 41
1, 732102, Note_off_c, 0, 49, 36
1, 732195, Note_off_c, 0, 61, 53
1, 732239, Note_off_c, 0, 34, 35
1, 732342, Note_off_c, 0, 58, 32
1, 732371, Note_off_c, 0, 56, 36
1, 732654, Note_on_c, 0, 63, 51
1, 732662, Note_on_c, 0, 61, 50
1, 732666, Note_on_c, 0, 51, 39
1, 732676, Note_on_c, 0, 27, 39
1, 732680, Note_on_c, 0, 55, 43
1, 732684, Note_on_c, 0, 39, 30
1, 732686, Note_on_c, 0, 58, 43
1, 732686, Note_on_c, 0, 34, 40
1, 732744, Control_c, 0, 64, 110
1, 732766, Control_c, 0, 64, 97
1, 732781, Control_c, 0, 64, 89
1, 732796, Control_c, 0, 64, 80
1, 732810, Control_c, 0, 64, 73
1, 732825, Control_c, 0, 64, 66
1, 732840, Control_c, 0, 64, 60
1, 732855, Control_c, 0, 64, 52
1, 732870, Control_c, 0, 64, 44
1, 732886, Control_c, 0, 64, 17
1, 732900, Control_c, 0, 64, 0
1, 733108, Control_c, 0, 64, 17
1, 733123, Control_c, 0, 64, 48
1, 733138, Control_c, 0, 64, 59
1, 733153, Control_c, 0, 64, 63
1, 733168, Control_c, 0, 64, 66
1, 733182, Control_c, 0, 64, 68
1, 733197, Control_c, 0, 64, 71
1, 733212, Control_c, 0, 64, 74
1, 733226, Control_c, 0, 64, 78
1, 733241, Control_c, 0, 64, 82
1, 733256, Control_c, 0, 64, 87
1, 733271, Control_c, 0, 64, 93
1, 733286, Control_c, 0, 64, 99
1, 733300, Control_c, 0, 64, 105
1, 733315, Control_c, 0, 64, 114
1, 733330, Control_c, 0, 64, 127
1, 733687, Note_off_c, 0, 27, 44
1, 733702, Note_off_c, 0, 34, 41
1, 733816, Note_off_c, 0, 55, 48
1, 733992, Note_off_c, 0, 61, 52
1, 734141, Note_off_c, 0, 39, 39
1, 734807, Note_on_c, 0, 60, 52
1, 734815, Note_on_c, 0, 44, 40
1, 734820, Note_on_c, 0, 54, 41
1, 734823, Note_on_c, 0, 32, 35
1, 734871, Control_c, 0, 64, 105
1, 734886, Control_c, 0, 64, 93
1, 734901, Control_c, 0, 64, 84
1, 734916, Control_c, 0, 64, 77
1, 734931, Control_c, 0, 64, 69
1, 734945, Control_c, 0, 64, 62
1, 734960, Control_c, 0, 64, 54
1, 734970, Note_off_c, 0, 58, 43
1, 734975, Control_c, 0, 64, 46
1, 734997, Control_c, 0, 64, 32
1, 735012, Control_c, 0, 64, 0
1, 735234, Control_c, 0, 64, 37
1, 735249, Control_c, 0, 64, 57
1, 735264, Control_c, 0, 64, 65
1, 735280, Control_c, 0, 64, 68
1, 735294, Control_c, 0, 64, 71
1, 735309, Control_c, 0, 64, 75
1, 735324, Control_c, 0, 64, 80
1, 735339, Control_c, 0, 64, 85
1, 735354, Control_c, 0, 64, 92
1, 735369, Control_c, 0, 64, 98
1, 735384, Control_c, 0, 64, 105
1, 735398, Control_c, 0, 64, 117
1, 735413, Control_c, 0, 64, 127
1, 735473, Control_c, 0, 67, 8
1, 735488, Control_c, 0, 67, 8
1, 735502, Control_c, 0, 67, 9
1, 735517, Control_c, 0, 67, 10
1, 735532, Control_c, 0, 67, 12
1, 735547, Control_c, 0, 67, 13
1, 735562, Control_c, 0, 67, 15
1, 735576, Control_c, 0, 67, 18
1, 735591, Control_c, 0, 67, 21
1, 735606, Control_c, 0, 67, 24
1, 735620, Control_c, 0, 67, 28
1, 735635, Control_c, 0, 67, 33
1, 735650, Control_c, 0, 67, 38
1, 735665, Control_c, 0, 67, 44
1, 735680, Control_c, 0, 67, 49
1, 735694, Control_c, 0, 67, 53
1, 735709, Control_c, 0, 67, 57
1, 735724, Control_c, 0, 67, 61
1, 735747, Control_c, 0, 67, 65
1, 735762, Control_c, 0, 67, 70
1, 735776, Control_c, 0, 67, 74
1, 735791, Control_c, 0, 67, 78
1, 735806, Control_c, 0, 67, 82
1, 735821, Control_c, 0, 67, 85
1, 735835, Control_c, 0, 67, 89
1, 735850, Control_c, 0, 67, 92
1, 735865, Control_c, 0, 67, 95
1, 735872, Note_off_c, 0, 63, 34
1, 735880, Control_c, 0, 67, 99
1, 735894, Control_c, 0, 67, 102
1, 735909, Control_c, 0, 67, 106
1, 735924, Control_c, 0, 67, 109
1, 735939, Control_c, 0, 67, 112
1, 735953, Control_c, 0, 67, 115
1, 735968, Control_c, 0, 67, 119
1, 735983, Control_c, 0, 67, 123
1, 735998, Control_c, 0, 67, 126
1, 736013, Control_c, 0, 67, 127
1, 736027, Note_off_c, 0, 51, 41
1, 736212, Note_off_c, 0, 32, 39
1, 736404, Note_off_c, 0, 44, 40
1, 736567, Note_on_c, 0, 61, 36
1, 736571, Note_on_c, 0, 49, 40
1, 737016, Note_off_c, 0, 61, 34
1, 737061, Note_off_c, 0, 49, 31
1, 737539, Note_on_c, 0, 61, 39
1, 737548, Note_on_c, 0, 49, 30
1, 737549, Note_on_c, 0, 25, 37
1, 737562, Note_on_c, 0, 37, 31
1, 737569, Control_c, 0, 64, 123
1, 737584, Control_c, 0, 64, 103
1, 737598, Control_c, 0, 64, 93
1, 737613, Control_c, 0, 64, 84
1, 737628, Control_c, 0, 64, 75
1, 737643, Control_c, 0, 64, 66
1, 737658, Control_c, 0, 64, 57
1, 737674, Control_c, 0, 64, 47
1, 737688, Control_c, 0, 64, 43
1, 737703, Control_c, 0, 64, 41
1, 737718, Control_c, 0, 64, 38
1, 737733, Control_c, 0, 64, 35
1, 737748, Control_c, 0, 64, 33
1, 737762, Control_c, 0, 64, 32
1, 737807, Control_c, 0, 64, 38
1, 737822, Control_c, 0, 64, 47
1, 737837, Control_c, 0, 64, 55
1, 737852, Control_c, 0, 64, 60
1, 737867, Control_c, 0, 64, 63
1, 737882, Control_c, 0, 64, 65
1, 737896, Control_c, 0, 64, 66
1, 737911, Control_c, 0, 64, 68
1, 737926, Control_c, 0, 64, 70
1, 737941, Control_c, 0, 64, 73
1, 737956, Control_c, 0, 64, 75
1, 737970, Control_c, 0, 64, 78
1, 737992, Control_c, 0, 64, 82
1, 738007, Control_c, 0, 64, 85
1, 738022, Control_c, 0, 64, 88
1, 738037, Control_c, 0, 64, 91
1, 738051, Control_c, 0, 64, 94
1, 738066, Control_c, 0, 64, 97
1, 738081, Control_c, 0, 64, 100
1, 738096, Control_c, 0, 64, 104
1, 738111, Control_c, 0, 64, 110
1, 738126, Control_c, 0, 64, 115
1, 738141, Control_c, 0, 64, 127
1, 738559, Note_off_c, 0, 25, 40
1, 738815, Note_off_c, 0, 37, 38
1, 738839, Note_off_c, 0, 54, 31
1, 739693, Note_on_c, 0, 58, 40
1, 739704, Note_on_c, 0, 42, 32
1, 739706, Note_on_c, 0, 30, 28
1, 739706, Note_on_c, 0, 54, 29
1, 739756, Control_c, 0, 64, 109
1, 739771, Control_c, 0, 64, 99
1, 739786, Control_c, 0, 64, 91
1, 739801, Control_c, 0, 64, 84
1, 739816, Control_c, 0, 64, 78
1, 739831, Control_c, 0, 64, 71
1, 739837, Note_off_c, 0, 60, 33
1, 739846, Control_c, 0, 64, 65
1, 739861, Control_c, 0, 64, 63
1, 739876, Control_c, 0, 64, 61
1, 739906, Control_c, 0, 64, 60
1, 739920, Control_c, 0, 64, 59
1, 739935, Control_c, 0, 64, 58
1, 739950, Control_c, 0, 64, 56
1, 739965, Control_c, 0, 64, 55
1, 739980, Control_c, 0, 64, 54
1, 739994, Control_c, 0, 64, 53
1, 740009, Control_c, 0, 64, 52
1, 740099, Control_c, 0, 64, 54
1, 740114, Control_c, 0, 64, 57
1, 740129, Control_c, 0, 64, 60
1, 740144, Control_c, 0, 64, 63
1, 740159, Control_c, 0, 64, 64
1, 740173, Control_c, 0, 64, 66
1, 740188, Control_c, 0, 64, 68
1, 740203, Control_c, 0, 64, 70
1, 740217, Control_c, 0, 64, 72
1, 740232, Control_c, 0, 64, 75
1, 740254, Control_c, 0, 64, 77
1, 740269, Control_c, 0, 64, 80
1, 740284, Control_c, 0, 64, 83
1, 740299, Control_c, 0, 64, 86
1, 740314, Control_c, 0, 64, 88
1, 740329, Control_c, 0, 64, 91
1, 740344, Control_c, 0, 64, 93
1, 740359, Control_c, 0, 64, 96
1, 740373, Control_c, 0, 64, 99
1, 740376, Note_off_c, 0, 30, 38
1, 740388, Control_c, 0, 64, 103
1, 740403, Control_c, 0, 64, 106
1, 740417, Control_c, 0, 64, 111
1, 740432, Control_c, 0, 64, 118
1, 740447, Control_c, 0, 64, 127
1, 740630, Note_off_c, 0, 49, 41
1, 740790, Note_off_c, 0, 42, 35
1, 741193, Note_off_c, 0, 54, 42
1, 742309, Note_on_c, 0, 56, 26
1, 742325, Note_on_c, 0, 44, 34
1, 742326, Note_on_c, 0, 49, 25
1, 742337, Note_on_c, 0, 37, 21
1, 742344, Note_on_c, 0, 53, 17
1, 742344, Control_c, 0, 64, 112
1, 742359, Control_c, 0, 64, 103
1, 742374, Control_c, 0, 64, 97
1, 742388, Control_c, 0, 64, 89
1, 742403, Control_c, 0, 64, 84
1, 742418, Control_c, 0, 64, 78
1, 742433, Control_c, 0, 64, 72
1, 742448, Control_c, 0, 64, 66
1, 742453, Note_off_c, 0, 58, 39
1, 742463, Control_c, 0, 64, 62
1, 742485, Control_c, 0, 64, 58
1, 742500, Control_c, 0, 64, 57
1, 742515, Control_c, 0, 64, 56
1, 742530, Control_c, 0, 64, 54
1, 742545, Control_c, 0, 64, 51
1, 742559, Control_c, 0, 64, 49
1, 742574, Control_c, 0, 64, 47
1, 742589, Control_c, 0, 64, 46
1, 742604, Control_c, 0, 64, 45
1, 742618, Control_c, 0, 64, 45
1, 742782, Control_c, 0, 64, 46
1, 742797, Control_c, 0, 64, 47
1, 742812, Control_c, 0, 64, 48
1, 742827, Control_c, 0, 64, 50
1, 742842, Control_c, 0, 64, 51
1, 742857, Control_c, 0, 64, 53
1, 742872, Control_c, 0, 64, 56
1, 742886, Control_c, 0, 64, 58
1, 742901, Control_c, 0, 64, 60
1, 742916, Control_c, 0, 64, 62
1, 742931, Control_c, 0, 64, 62
1, 742945, Control_c, 0, 64, 63
1, 742960, Control_c, 0, 64, 63
1, 742975, Control_c, 0, 64, 64
1, 742990, Control_c, 0, 64, 65
1, 743005, Control_c, 0, 64, 65
1, 743019, Control_c, 0, 64, 66
1, 743034, Control_c, 0, 64, 66
1, 743049, Control_c, 0, 64, 67
1, 743064, Control_c, 0, 64, 68
1, 743079, Control_c, 0, 64, 69
1, 743093, Control_c, 0, 64, 70
1, 743108, Control_c, 0, 64, 71
1, 743123, Control_c, 0, 64, 72
1, 743137, Control_c, 0, 64, 74
1, 743152, Control_c, 0, 64, 75
1, 743167, Control_c, 0, 64, 77
1, 743182, Control_c, 0, 64, 79
1, 743197, Control_c, 0, 64, 81
1, 743211, Control_c, 0, 64, 83
1, 743234, Control_c, 0, 64, 85
1, 743249, Control_c, 0, 64, 88
1, 743265, Control_c, 0, 64, 91
1, 743280, Control_c, 0, 64, 93
1, 743295, Control_c, 0, 64, 96
1, 743309, Control_c, 0, 64, 98
1, 743324, Control_c, 0, 64, 101
1, 743339, Control_c, 0, 64, 104
1, 743354, Control_c, 0, 64, 107
1, 743368, Control_c, 0, 64, 111
1, 743383, Control_c, 0, 64, 116
1, 743398, Control_c, 0, 64, 122
1, 743413, Control_c, 0, 64, 127
1, 744128, Note_off_c, 0, 37, 40
1, 744371, Note_off_c, 0, 44, 36
1, 744442, Note_off_c, 0, 49, 40
1, 744537, Note_off_c, 0, 53, 41
1, 744542, Note_off_c, 0, 56, 34
1, 744581, Note_off_c, 0, 61, 40
1, 745489, Note_on_c, 0, 61, 25
1, 745590, Note_on_c, 0, 77, 59
1, 746097, Note_on_c, 0, 68, 36
1, 746154, Note_off_c, 0, 61, 30
1, 746443, Note_on_c, 0, 73, 56
1, 746466, Note_on_c, 0, 56, 28
1, 746520, Note_off_c, 0, 68, 36
1, 746774, Note_on_c, 0, 65, 39
1, 746842, Note_off_c, 0, 56, 42
1, 746961, Note_off_c, 0, 77, 32
1, 747080, Note_on_c, 0, 68, 59
1, 747082, Note_on_c, 0, 53, 37
1, 747116, Note_off_c, 0, 65, 35
1, 747417, Note_on_c, 0, 61, 39
1, 747419, Note_off_c, 0, 53, 46
1, 747472, Note_off_c, 0, 73, 31
1, 747476, Note_off_c, 0, 61, 56
1, 747817, Note_on_c, 0, 49, 32
1, 747819, Note_on_c, 0, 65, 49
1, 747891, Note_off_c, 0, 68, 54
1, 748044, Note_off_c, 0, 65, 59
1, 748113, Control_c, 0, 67, 126
1, 748128, Control_c, 0, 67, 124
1, 748143, Control_c, 0, 67, 120
1, 748157, Control_c, 0, 67, 116
1, 748172, Control_c, 0, 67, 111
1, 748187, Control_c, 0, 67, 106
1, 748202, Control_c, 0, 67, 101
1, 748217, Control_c, 0, 67, 94
1, 748231, Control_c, 0, 67, 88
1, 748235, Note_off_c, 0, 49, 44
1, 748246, Control_c, 0, 67, 81
1, 748254, Note_on_c, 0, 56, 37
1, 748261, Control_c, 0, 67, 75
1, 748276, Control_c, 0, 67, 70
1, 748291, Control_c, 0, 67, 65
1, 748306, Control_c, 0, 67, 61
1, 748321, Control_c, 0, 67, 58
1, 748336, Control_c, 0, 67, 53
1, 748350, Control_c, 0, 67, 50
1, 748365, Control_c, 0, 67, 46
1, 748380, Note_off_c, 0, 56, 36
1, 748380, Control_c, 0, 67, 42
1, 748395, Control_c, 0, 67, 38
1, 748410, Control_c, 0, 67, 35
1, 748424, Control_c, 0, 67, 30
1, 748439, Control_c, 0, 67, 25
1, 748454, Control_c, 0, 67, 21
1, 748476, Control_c, 0, 67, 16
1, 748491, Control_c, 0, 67, 12
1, 748505, Control_c, 0, 67, 0
1, 748845, Note_on_c, 0, 41, 30
1, 748932, Note_on_c, 0, 80, 71
1, 749409, Note_on_c, 0, 49, 49
1, 749760, Note_on_c, 0, 77, 64
1, 749773, Note_on_c, 0, 44, 44
1, 749909, Note_off_c, 0, 49, 36
1, 750081, Note_off_c, 0, 41, 38
1, 750120, Note_on_c, 0, 53, 44
1, 750172, Note_off_c, 0, 44, 49
1, 750494, Note_on_c, 0, 73, 64
1, 750505, Note_on_c, 0, 49, 51
1, 750544, Note_off_c, 0, 53, 57
1, 750894, Note_on_c, 0, 56, 53
1, 751293, Note_on_c, 0, 53, 41
1, 751302, Note_on_c, 0, 68, 52
1, 751411, Note_off_c, 0, 80, 1
1, 751435, Note_off_c, 0, 56, 61
1, 751528, Note_off_c, 0, 68, 61
1, 751601, Note_off_c, 0, 77, 29
1, 751612, Note_off_c, 0, 73, 58
1, 751697, Note_off_c, 0, 49, 45
1, 751739, Note_on_c, 0, 61, 52
1, 751815, Note_off_c, 0, 61, 61
1, 751880, Note_off_c, 0, 53, 37
1, 752198, Note_on_c, 0, 30, 80
1, 752211, Control_c, 0, 64, 84
1, 752234, Control_c, 0, 64, 0
1, 752258, Note_on_c, 0, 70, 76
1, 752260, Note_on_c, 0, 34, 68
1, 752280, Note_on_c, 0, 37, 66
1, 752293, Control_c, 0, 64, 62
1, 752301, Note_on_c, 0, 78, 76
1, 752308, Control_c, 0, 64, 88
1, 752322, Control_c, 0, 64, 127
1, 752330, Note_on_c, 0, 42, 78
1, 752332, Note_on_c, 0, 82, 89
1, 752341, Note_off_c, 0, 70, 60
1, 752354, Note_off_c, 0, 30, 62
1, 752376, Note_on_c, 0, 85, 93
1, 752390, Note_off_c, 0, 78, 63
1, 752403, Note_off_c, 0, 42, 63
1, 752406, Note_off_c, 0, 34, 58
1, 752413, Note_off_c, 0, 37, 61
1, 752470, Note_off_c, 0, 82, 60
1, 752568, Note_off_c, 0, 85, 66
1, 753148, Note_on_c, 0, 34, 61
1, 753191, Note_on_c, 0, 37, 67
1, 753218, Note_on_c, 0, 66, 66
1, 753235, Control_c, 0, 64, 93
1, 753239, Note_off_c, 0, 34, 60
1, 753242, Note_on_c, 0, 42, 67
1, 753250, Control_c, 0, 64, 80
1, 753251, Note_on_c, 0, 73, 79
1, 753265, Control_c, 0, 64, 76
1, 753272, Note_off_c, 0, 66, 62
1, 753279, Control_c, 0, 64, 78
1, 753289, Note_on_c, 0, 78, 72
1, 753294, Control_c, 0, 64, 88
1, 753309, Control_c, 0, 64, 114
1, 753317, Note_on_c, 0, 49, 84
1, 753324, Control_c, 0, 64, 127
1, 753334, Note_on_c, 0, 82, 91
1, 753334, Note_off_c, 0, 37, 63
1, 753346, Note_off_c, 0, 42, 63
1, 753349, Note_off_c, 0, 49, 67
1, 753368, Note_on_c, 0, 80, 37
1, 753369, Note_off_c, 0, 80, 127
1, 753539, Note_off_c, 0, 82, 61
1, 753588, Note_off_c, 0, 78, 52
1, 753610, Note_off_c, 0, 73, 54
1, 754184, Note_on_c, 0, 37, 62
1, 754221, Control_c, 0, 64, 92
1, 754226, Note_on_c, 0, 42, 67
1, 754232, Note_on_c, 0, 61, 66
1, 754236, Control_c, 0, 64, 75
1, 754245, Note_off_c, 0, 37, 56
1, 754250, Control_c, 0, 64, 67
1, 754265, Control_c, 0, 64, 69
1, 754267, Note_off_c, 0, 61, 65
1, 754273, Note_on_c, 0, 46, 65
1, 754280, Control_c, 0, 64, 74
1, 754282, Note_on_c, 0, 70, 71
1, 754294, Control_c, 0, 64, 84
1, 754306, Note_on_c, 0, 73, 76
1, 754309, Control_c, 0, 64, 104
1, 754324, Control_c, 0, 64, 127
1, 754350, Note_on_c, 0, 54, 82
1, 754353, Note_off_c, 0, 42, 62
1, 754354, Note_on_c, 0, 78, 89
1, 754376, Note_off_c, 0, 46, 62
1, 754381, Note_off_c, 0, 54, 66
1, 754634, Note_off_c, 0, 78, 62
1, 754690, Note_off_c, 0, 73, 47
1, 754715, Note_off_c, 0, 70, 39
1, 755303, Note_on_c, 0, 42, 64
1, 755369, Note_on_c, 0, 46, 69
1, 755377, Control_c, 0, 64, 97
1, 755382, Note_on_c, 0, 61, 67
1, 755392, Control_c, 0, 64, 81
1, 755394, Note_on_c, 0, 49, 69
1, 755404, Note_off_c, 0, 42, 63
1, 755407, Control_c, 0, 64, 73
1, 755421, Control_c, 0, 64, 72
1, 755422, Note_on_c, 0, 70, 77
1, 755436, Control_c, 0, 64, 76
1, 755451, Control_c, 0, 64, 84
1, 755464, Note_on_c, 0, 73, 91
1, 755466, Control_c, 0, 64, 101
1, 755475, Note_on_c, 0, 58, 80
1, 755481, Control_c, 0, 64, 127
1, 755505, Note_off_c, 0, 61, 56
1, 755537, Note_off_c, 0, 58, 65
1, 755549, Note_off_c, 0, 46, 58
1, 755553, Note_off_c, 0, 49, 60
1, 755645, Note_off_c, 0, 70, 37
1, 756269, Note_off_c, 0, 73, 27
1, 756476, Note_on_c, 0, 42, 69
1, 756482, Control_c, 0, 64, 99
1, 756497, Control_c, 0, 64, 77
1, 756512, Control_c, 0, 64, 64
1, 756527, Control_c, 0, 64, 57
1, 756527, Note_on_c, 0, 45, 67
1, 756529, Poly_aftertouch_c, 0, 66, 0
1, 756542, Control_c, 0, 64, 61
1, 756548, Note_on_c, 0, 61, 70
1, 756556, Control_c, 0, 64, 66
1, 756571, Control_c, 0, 64, 73
1, 756575, Note_on_c, 0, 49, 75
1, 756582, Note_on_c, 0, 66, 57
1, 756586, Control_c, 0, 64, 81
1, 756591, Note_off_c, 0, 42, 62
1, 756601, Control_c, 0, 64, 89
1, 756611, Note_off_c, 0, 61, 57
1, 756616, Control_c, 0, 64, 97
1, 756616, Note_on_c, 0, 69, 67
1, 756630, Control_c, 0, 64, 105
1, 756637, Note_off_c, 0, 45, 62
1, 756645, Control_c, 0, 64, 120
1, 756649, Note_on_c, 0, 73, 85
1, 756660, Control_c, 0, 64, 127
1, 756662, Note_on_c, 0, 57, 69
1, 756685, Note_off_c, 0, 49, 59
1, 756688, Poly_aftertouch_c, 0, 46, 127
1, 756691, Note_off_c, 0, 69, 52
1, 756693, Note_off_c, 0, 66, 61
1, 756724, Poly_aftertouch_c, 0, 46, 0
1, 756727, Note_off_c, 0, 57, 64
1, 756728, Note_on_c, 0, 75, 89
1, 756742, Poly_aftertouch_c, 0, 46, 0
1, 756782, Note_off_c, 0, 73, 61
1, 757179, Note_off_c, 0, 75, 61
1, 757520, Control_c, 0, 67, 9
1, 757535, Control_c, 0, 67, 10
1, 757550, Control_c, 0, 67, 12
1, 757564, Control_c, 0, 67, 14
1, 757579, Control_c, 0, 67, 17
1, 757594, Control_c, 0, 67, 22
1, 757609, Control_c, 0, 67, 28
1, 757624, Control_c, 0, 67, 34
1, 757639, Control_c, 0, 67, 40
1, 757654, Control_c, 0, 67, 44
1, 757669, Control_c, 0, 67, 47
1, 757684, Control_c, 0, 67, 50
1, 757699, Control_c, 0, 67, 53
1, 757713, Control_c, 0, 67, 56
1, 757728, Control_c, 0, 67, 58
1, 757743, Control_c, 0, 67, 60
1, 757758, Control_c, 0, 67, 62
1, 757773, Control_c, 0, 67, 63
1, 757788, Control_c, 0, 67, 64
1, 757803, Control_c, 0, 67, 65
1, 757832, Control_c, 0, 67, 65
1, 757876, Control_c, 0, 67, 66
1, 757935, Control_c, 0, 67, 65
1, 757938, Note_on_c, 0, 37, 61
1, 757950, Control_c, 0, 67, 64
1, 757965, Control_c, 0, 64, 91
1, 757965, Control_c, 0, 67, 62
1, 757980, Control_c, 0, 64, 66
1, 757980, Control_c, 0, 67, 60
1, 757995, Control_c, 0, 64, 0
1, 757995, Control_c, 0, 67, 58
1, 757998, Note_on_c, 0, 41, 59
1, 758009, Control_c, 0, 64, 19
1, 758009, Control_c, 0, 67, 55
1, 758015, Note_on_c, 0, 61, 66
1, 758024, Control_c, 0, 64, 57
1, 758024, Control_c, 0, 67, 53
1, 758039, Control_c, 0, 64, 68
1, 758039, Control_c, 0, 67, 49
1, 758053, Note_on_c, 0, 44, 71
1, 758053, Note_off_c, 0, 61, 63
1, 758054, Control_c, 0, 64, 79
1, 758054, Control_c, 0, 67, 45
1, 758065, Note_on_c, 0, 68, 73
1, 758066, Note_off_c, 0, 37, 53
1, 758068, Control_c, 0, 64, 105
1, 758068, Control_c, 0, 67, 38
1, 758074, Note_off_c, 0, 41, 59
1, 758083, Control_c, 0, 64, 127
1, 758083, Control_c, 0, 67, 28
1, 758098, Control_c, 0, 67, 16
1, 758113, Note_on_c, 0, 73, 76
1, 758113, Control_c, 0, 67, 0
1, 758114, Note_off_c, 0, 44, 64
1, 758117, Note_on_c, 0, 49, 71
1, 758147, Note_off_c, 0, 49, 65
1, 758202, Note_on_c, 0, 77, 88
1, 758218, Note_on_c, 0, 56, 81
1, 758240, Note_off_c, 0, 56, 71
1, 759420, Note_off_c, 0, 77, 34
1, 759552, Control_c, 0, 67, 9
1, 759567, Control_c, 0, 67, 10
1, 759581, Control_c, 0, 67, 12
1, 759596, Control_c, 0, 67, 14
1, 759611, Control_c, 0, 67, 18
1, 759626, Control_c, 0, 67, 21
1, 759641, Control_c, 0, 67, 25
1, 759655, Control_c, 0, 67, 30
1, 759670, Control_c, 0, 67, 34
1, 759685, Control_c, 0, 67, 39
1, 759700, Control_c, 0, 67, 43
1, 759722, Control_c, 0, 67, 49
1, 759737, Control_c, 0, 67, 53
1, 759752, Control_c, 0, 67, 58
1, 759767, Control_c, 0, 67, 62
1, 759782, Control_c, 0, 67, 67
1, 759796, Control_c, 0, 67, 73
1, 759811, Control_c, 0, 67, 79
1, 759826, Control_c, 0, 67, 85
1, 759840, Control_c, 0, 67, 90
1, 759855, Control_c, 0, 67, 97
1, 759870, Control_c, 0, 67, 103
1, 759885, Control_c, 0, 67, 109
1, 759900, Control_c, 0, 67, 114
1, 759914, Control_c, 0, 67, 119
1, 759929, Control_c, 0, 67, 123
1, 759944, Control_c, 0, 67, 126
1, 759959, Control_c, 0, 67, 127
1, 760007, Note_off_c, 0, 68, 30
1, 760265, Note_off_c, 0, 73, 26
1, 760360, Control_c, 0, 67, 127
1, 760375, Control_c, 0, 67, 126
1, 760390, Control_c, 0, 67, 125
1, 760404, Control_c, 0, 67, 123
1, 760408, Note_on_c, 0, 37, 44
1, 760419, Control_c, 0, 67, 122
1, 760434, Control_c, 0, 67, 121
1, 760456, Control_c, 0, 67, 119
1, 760471, Control_c, 0, 67, 118
1, 760483, Note_on_c, 0, 41, 51
1, 760486, Control_c, 0, 67, 116
1, 760501, Note_on_c, 0, 61, 55
1, 760501, Control_c, 0, 67, 113
1, 760516, Control_c, 0, 67, 108
1, 760530, Control_c, 0, 67, 102
1, 760532, Note_off_c, 0, 61, 63
1, 760533, Note_off_c, 0, 41, 58
1, 760545, Control_c, 0, 67, 94
1, 760546, Note_off_c, 0, 37, 31
1, 760551, Note_on_c, 0, 68, 65
1, 760554, Note_on_c, 0, 44, 54
1, 760560, Control_c, 0, 67, 86
1, 760575, Control_c, 0, 67, 76
1, 760584, Note_off_c, 0, 44, 64
1, 760590, Control_c, 0, 67, 68
1, 760602, Note_on_c, 0, 49, 61
1, 760605, Control_c, 0, 67, 59
1, 760617, Note_on_c, 0, 73, 64
1, 760619, Control_c, 0, 67, 52
1, 760634, Control_c, 0, 67, 48
1, 760635, Note_off_c, 0, 49, 64
1, 760649, Control_c, 0, 67, 45
1, 760663, Control_c, 0, 67, 43
1, 760678, Control_c, 0, 67, 41
1, 760687, Note_on_c, 0, 77, 76
1, 760693, Control_c, 0, 67, 40
1, 760697, Note_on_c, 0, 56, 67
1, 760708, Control_c, 0, 67, 37
1, 760723, Control_c, 0, 67, 36
1, 760726, Note_off_c, 0, 56, 65
1, 760737, Control_c, 0, 67, 34
1, 760752, Control_c, 0, 67, 32
1, 760767, Control_c, 0, 67, 31
1, 760782, Control_c, 0, 67, 30
1, 760797, Control_c, 0, 67, 29
1, 760811, Control_c, 0, 67, 29
1, 760975, Control_c, 0, 67, 29
1, 760990, Control_c, 0, 67, 30
1, 761005, Control_c, 0, 67, 30
1, 761020, Control_c, 0, 67, 32
1, 761034, Control_c, 0, 67, 32
1, 761049, Control_c, 0, 67, 33
1, 761061, Note_off_c, 0, 77, 37
1, 761064, Control_c, 0, 67, 34
1, 761079, Control_c, 0, 67, 35
1, 761094, Control_c, 0, 67, 36
1, 761109, Control_c, 0, 67, 37
1, 761124, Control_c, 0, 67, 38
1, 761139, Control_c, 0, 67, 39
1, 761153, Control_c, 0, 67, 40
1, 761168, Control_c, 0, 67, 41
1, 761183, Control_c, 0, 67, 42
1, 761205, Control_c, 0, 67, 44
1, 761220, Control_c, 0, 67, 47
1, 761234, Control_c, 0, 67, 50
1, 761249, Control_c, 0, 67, 53
1, 761264, Control_c, 0, 67, 56
1, 761279, Control_c, 0, 67, 59
1, 761294, Control_c, 0, 67, 63
1, 761308, Control_c, 0, 67, 67
1, 761323, Control_c, 0, 67, 72
1, 761338, Control_c, 0, 67, 77
1, 761353, Control_c, 0, 67, 83
1, 761368, Control_c, 0, 67, 88
1, 761383, Control_c, 0, 67, 92
1, 761398, Control_c, 0, 67, 97
1, 761412, Control_c, 0, 67, 101
1, 761427, Control_c, 0, 67, 105
1, 761442, Control_c, 0, 67, 108
1, 761457, Control_c, 0, 67, 112
1, 761472, Control_c, 0, 67, 115
1, 761486, Control_c, 0, 67, 118
1, 761501, Control_c, 0, 67, 121
1, 761509, Note_off_c, 0, 68, 25
1, 761516, Control_c, 0, 67, 124
1, 761531, Control_c, 0, 67, 127
1, 761546, Control_c, 0, 67, 127
1, 761655, Note_off_c, 0, 73, 24
1, 761742, Note_on_c, 0, 37, 46
1, 761830, Note_on_c, 0, 41, 41
1, 761865, Note_on_c, 0, 61, 44
1, 761878, Note_off_c, 0, 41, 54
1, 761901, Note_on_c, 0, 44, 49
1, 761903, Note_off_c, 0, 61, 61
1, 761917, Note_off_c, 0, 37, 41
1, 761929, Note_on_c, 0, 68, 58
1, 761934, Note_off_c, 0, 44, 63
1, 761972, Note_on_c, 0, 49, 52
1, 761998, Control_c, 0, 67, 126
1, 762000, Note_off_c, 0, 49, 64
1, 762009, Note_on_c, 0, 73, 64
1, 762013, Control_c, 0, 67, 123
1, 762027, Control_c, 0, 67, 122
1, 762042, Control_c, 0, 67, 119
1, 762057, Control_c, 0, 67, 117
1, 762072, Control_c, 0, 67, 115
1, 762086, Note_on_c, 0, 56, 59
1, 762086, Note_on_c, 0, 77, 70
1, 762087, Control_c, 0, 67, 113
1, 762101, Control_c, 0, 67, 110
1, 762116, Control_c, 0, 67, 106
1, 762128, Note_off_c, 0, 56, 58
1, 762131, Control_c, 0, 67, 102
1, 762146, Control_c, 0, 67, 98
1, 762161, Control_c, 0, 67, 93
1, 762176, Control_c, 0, 67, 90
1, 762191, Control_c, 0, 67, 86
1, 762206, Control_c, 0, 67, 83
1, 762221, Control_c, 0, 67, 81
1, 762235, Control_c, 0, 67, 78
1, 762250, Control_c, 0, 67, 77
1, 762265, Control_c, 0, 67, 76
1, 762280, Control_c, 0, 67, 75
1, 762295, Control_c, 0, 67, 74
1, 762310, Control_c, 0, 67, 74
1, 762459, Control_c, 0, 67, 74
1, 762474, Control_c, 0, 67, 75
1, 762489, Control_c, 0, 67, 75
1, 762504, Control_c, 0, 67, 76
1, 762519, Control_c, 0, 67, 76
1, 762533, Control_c, 0, 67, 77
1, 762548, Control_c, 0, 67, 78
1, 762563, Control_c, 0, 67, 78
1, 762578, Control_c, 0, 67, 79
1, 762586, Note_off_c, 0, 77, 32
1, 762593, Control_c, 0, 67, 80
1, 762607, Control_c, 0, 67, 81
1, 762622, Control_c, 0, 67, 81
1, 762637, Control_c, 0, 67, 82
1, 762651, Control_c, 0, 67, 82
1, 762666, Control_c, 0, 67, 83
1, 762681, Control_c, 0, 67, 84
1, 762696, Control_c, 0, 67, 85
1, 762718, Control_c, 0, 67, 86
1, 762733, Control_c, 0, 67, 86
1, 762748, Control_c, 0, 67, 87
1, 762763, Control_c, 0, 67, 88
1, 762778, Control_c, 0, 67, 90
1, 762793, Control_c, 0, 67, 92
1, 762807, Control_c, 0, 67, 94
1, 762822, Control_c, 0, 67, 96
1, 762837, Control_c, 0, 67, 98
1, 762852, Control_c, 0, 67, 100
1, 762866, Control_c, 0, 67, 102
1, 762881, Control_c, 0, 67, 103
1, 762896, Control_c, 0, 67, 105
1, 762911, Control_c, 0, 67, 107
1, 762926, Control_c, 0, 67, 109
1, 762940, Control_c, 0, 67, 111
1, 762955, Control_c, 0, 67, 113
1, 762970, Control_c, 0, 67, 114
1, 762985, Control_c, 0, 67, 117
1, 762999, Control_c, 0, 67, 119
1, 763014, Control_c, 0, 67, 121
1, 763028, Control_c, 0, 67, 124
1, 763043, Control_c, 0, 67, 126
1, 763057, Control_c, 0, 67, 127
1, 763479, Note_off_c, 0, 68, 18
1, 763772, Note_off_c, 0, 73, 20
1, 763900, Note_on_c, 0, 37, 34
1, 764003, Note_on_c, 0, 61, 42
1, 764018, Note_on_c, 0, 41, 33
1, 764096, Note_off_c, 0, 61, 54
1, 764102, Note_on_c, 0, 68, 46
1, 764109, Note_off_c, 0, 37, 35
1, 764137, Note_on_c, 0, 44, 36
1, 764140, Note_off_c, 0, 41, 33
1, 764188, Note_off_c, 0, 44, 56
1, 764201, Note_on_c, 0, 73, 55
1, 764248, Note_on_c, 0, 49, 42
1, 764278, Note_off_c, 0, 49, 59
1, 764418, Note_on_c, 0, 77, 44
1, 764438, Note_on_c, 0, 56, 38
1, 765088, Note_off_c, 0, 56, 29
1, 770431, Note_off_c, 0, 77, 1
1, 771047, Note_off_c, 0, 68, 23
1, 771212, Note_off_c, 0, 73, 27
1, 771650, Control_c, 0, 64, 120
1, 771665, Control_c, 0, 64, 114
1, 771680, Control_c, 0, 64, 111
1, 771702, Control_c, 0, 64, 109
1, 771717, Control_c, 0, 64, 106
1, 771732, Control_c, 0, 64, 104
1, 771747, Control_c, 0, 64, 102
1, 771762, Control_c, 0, 64, 100
1, 771776, Control_c, 0, 64, 99
1, 771791, Control_c, 0, 64, 97
1, 771806, Control_c, 0, 64, 96
1, 771820, Control_c, 0, 64, 94
1, 771835, Control_c, 0, 64, 93
1, 771850, Control_c, 0, 64, 91
1, 771865, Control_c, 0, 64, 89
1, 771880, Control_c, 0, 64, 88
1, 771894, Control_c, 0, 64, 86
1, 771909, Control_c, 0, 64, 83
1, 771924, Control_c, 0, 64, 81
1, 771938, Control_c, 0, 64, 78
1, 771953, Control_c, 0, 64, 75
1, 771968, Control_c, 0, 64, 72
1, 771983, Control_c, 0, 64, 70
1, 771998, Control_c, 0, 64, 68
1, 772044, Control_c, 0, 64, 68
1, 772089, Control_c, 0, 64, 67
1, 772104, Control_c, 0, 64, 67
1, 772133, Control_c, 0, 64, 66
1, 772163, Control_c, 0, 64, 66
1, 772178, Control_c, 0, 64, 65
1, 772192, Control_c, 0, 64, 65
1, 772222, Control_c, 0, 64, 64
1, 772251, Control_c, 0, 64, 64
1, 772266, Control_c, 0, 64, 63
1, 772296, Control_c, 0, 64, 63
1, 772311, Control_c, 0, 64, 62
1, 772326, Control_c, 0, 64, 62
1, 772341, Control_c, 0, 64, 61
1, 772355, Control_c, 0, 64, 60
1, 772370, Control_c, 0, 64, 59
1, 772385, Control_c, 0, 64, 58
1, 772400, Control_c, 0, 64, 57
1, 772415, Control_c, 0, 64, 56
1, 772451, Control_c, 0, 64, 56
1, 772630, Control_c, 0, 64, 56
1, 772718, Control_c, 0, 64, 57
1, 772792, Control_c, 0, 64, 57
1, 772882, Control_c, 0, 64, 58
1, 772912, Control_c, 0, 64, 58
1, 772971, Control_c, 0, 64, 59
1, 773030, Control_c, 0, 64, 59
1, 773927, Control_c, 0, 64, 60
1, 773993, Control_c, 0, 64, 60
1, 774186, Control_c, 0, 64, 61
1, 774215, Control_c, 0, 64, 61
1, 774275, Control_c, 0, 64, 62
1, 774319, Control_c, 0, 64, 62
1, 774333, Control_c, 0, 64, 63
1, 774363, Control_c, 0, 64, 63
1, 774424, Control_c, 0, 64, 64
1, 774601, Control_c, 0, 64, 63
1, 774616, Control_c, 0, 64, 63
1, 774630, Control_c, 0, 64, 61
1, 774645, Control_c, 0, 64, 23
1, 774660, Control_c, 0, 64, 0
1, 774786, Control_c, 0, 64, 36
1, 774801, Control_c, 0, 64, 62
1, 774816, Control_c, 0, 64, 65
1, 774816, Control_c, 0, 67, 120
1, 774831, Control_c, 0, 64, 67
1, 774831, Control_c, 0, 67, 96
1, 774845, Control_c, 0, 64, 69
1, 774845, Control_c, 0, 67, 60
1, 774860, Control_c, 0, 64, 70
1, 774860, Control_c, 0, 67, 25
1, 774875, Control_c, 0, 64, 72
1, 774875, Control_c, 0, 67, 0
1, 774890, Control_c, 0, 64, 74
1, 774905, Control_c, 0, 64, 79
1, 774919, Control_c, 0, 64, 91
1, 774934, Control_c, 0, 64, 118
1, 774949, Control_c, 0, 64, 127
1, 774959, Note_on_c, 0, 52, 71
1, 774990, Note_on_c, 0, 55, 70
1, 775018, Note_off_c, 0, 52, 59
1, 775039, Note_on_c, 0, 58, 65
1, 775039, Note_off_c, 0, 55, 63
1, 775041, Note_on_c, 0, 64, 68
1, 775059, Note_on_c, 0, 61, 82
1, 775064, Note_off_c, 0, 58, 67
1, 775068, Note_off_c, 0, 64, 67
1, 775082, Note_off_c, 0, 61, 69
1, 775083, Note_on_c, 0, 67, 72
1, 775113, Note_off_c, 0, 67, 63
1, 775126, Note_on_c, 0, 70, 72
1, 775142, Note_on_c, 0, 73, 77
1, 775149, Note_off_c, 0, 70, 69
1, 775164, Note_off_c, 0, 73, 70
1, 775229, Note_on_c, 0, 76, 72
1, 775258, Note_off_c, 0, 76, 59
1, 775277, Note_on_c, 0, 79, 83
1, 775312, Note_on_c, 0, 82, 63
1, 775325, Note_off_c, 0, 79, 63
1, 775336, Control_c, 0, 64, 93
1, 775344, Note_on_c, 0, 85, 91
1, 775351, Control_c, 0, 64, 60
1, 775352, Note_on_c, 0, 40, 97
1, 775366, Control_c, 0, 64, 0
1, 775372, Note_off_c, 0, 82, 65
1, 775378, Note_on_c, 0, 28, 51
1, 775379, Note_off_c, 0, 28, 127
1, 775379, Note_off_c, 0, 40, 68
1, 775380, Control_c, 0, 64, 61
1, 775395, Control_c, 0, 64, 80
1, 775410, Control_c, 0, 64, 127
1, 775437, Note_off_c, 0, 85, 60
1, 775611, Note_on_c, 0, 61, 87
1, 775614, Note_on_c, 0, 52, 72
1, 775620, Note_on_c, 0, 58, 73
1, 775640, Note_off_c, 0, 52, 64
1, 775649, Note_off_c, 0, 58, 63
1, 775654, Note_off_c, 0, 61, 63
1, 775682, Note_on_c, 0, 84, 91
1, 775691, Note_on_c, 0, 72, 72
1, 775698, Note_off_c, 0, 84, 74
1, 775706, Note_off_c, 0, 72, 68
1, 775753, Note_on_c, 0, 65, 87
1, 775756, Note_on_c, 0, 61, 80
1, 775756, Note_on_c, 0, 82, 100
1, 775758, Note_on_c, 0, 70, 93
1, 775767, Note_on_c, 0, 58, 52
1, 775769, Note_off_c, 0, 65, 73
1, 775772, Control_c, 0, 64, 116
1, 775775, Note_off_c, 0, 61, 69
1, 775779, Note_off_c, 0, 70, 65
1, 775784, Note_on_c, 0, 56, 32
1, 775786, Control_c, 0, 64, 73
1, 775787, Note_off_c, 0, 58, 65
1, 775796, Note_on_c, 0, 83, 34
1, 775797, Note_off_c, 0, 83, 127
1, 775797, Note_off_c, 0, 82, 62
1, 775801, Control_c, 0, 64, 0
1, 775819, Note_off_c, 0, 56, 47
1, 775945, Note_on_c, 0, 41, 83
1, 775948, Note_on_c, 0, 43, 81
1, 775957, Note_on_c, 0, 29, 59
1, 775960, Note_on_c, 0, 31, 58
1, 775964, Control_c, 0, 64, 62
1, 775968, Note_off_c, 0, 41, 65
1, 775975, Note_off_c, 0, 43, 65
1, 775978, Control_c, 0, 64, 90
1, 775992, Note_off_c, 0, 29, 54
1, 775993, Note_off_c, 0, 31, 53
1, 775993, Control_c, 0, 64, 127
1, 776025, Note_on_c, 0, 80, 87
1, 776027, Note_on_c, 0, 68, 88
1, 776047, Note_off_c, 0, 80, 63
1, 776049, Note_off_c, 0, 68, 65
1, 776098, Control_c, 0, 64, 79
1, 776106, Note_on_c, 0, 53, 84
1, 776108, Note_on_c, 0, 79, 99
1, 776109, Note_on_c, 0, 67, 101
1, 776113, Control_c, 0, 64, 0
1, 776115, Note_on_c, 0, 56, 70
1, 776119, Note_on_c, 0, 61, 64
1, 776129, Note_off_c, 0, 53, 70
1, 776131, Note_off_c, 0, 67, 69
1, 776138, Note_off_c, 0, 56, 68
1, 776139, Note_off_c, 0, 79, 67
1, 776146, Note_off_c, 0, 61, 64
1, 776269, Control_c, 0, 64, 14
1, 776283, Control_c, 0, 64, 19
1, 776296, Note_on_c, 0, 65, 84
1, 776298, Control_c, 0, 64, 26
1, 776301, Note_on_c, 0, 61, 12
1, 776305, Note_on_c, 0, 77, 96
1, 776313, Note_on_c, 0, 56, 66
1, 776313, Control_c, 0, 64, 33
1, 776328, Control_c, 0, 64, 40
1, 776341, Note_off_c, 0, 77, 63
1, 776341, Note_off_c, 0, 56, 67
1, 776343, Control_c, 0, 64, 40
1, 776347, Note_off_c, 0, 61, 51
1, 776350, Note_off_c, 0, 65, 62
1, 776431, Control_c, 0, 64, 40
1, 776446, Control_c, 0, 64, 37
1, 776461, Control_c, 0, 64, 26
1, 776476, Control_c, 0, 64, 0
1, 776481, Note_on_c, 0, 76, 93
1, 776481, Note_on_c, 0, 64, 88
1, 776484, Note_on_c, 0, 43, 73
1, 776485, Note_on_c, 0, 31, 67
1, 776486, Note_on_c, 0, 70, 76
1, 776496, Note_on_c, 0, 33, 56
1, 776496, Note_on_c, 0, 73, 62
1, 776499, Note_on_c, 0, 45, 46
1, 776500, Note_off_c, 0, 45, 127
1, 776500, Note_off_c, 0, 64, 74
1, 776506, Note_off_c, 0, 43, 64
1, 776506, Note_off_c, 0, 70, 71
1, 776515, Note_off_c, 0, 31, 57
1, 776516, Note_off_c, 0, 73, 65
1, 776517, Note_off_c, 0, 76, 66
1, 776527, Note_off_c, 0, 33, 54
1, 776595, Control_c, 0, 64, 17
1, 776609, Control_c, 0, 64, 21
1, 776624, Control_c, 0, 64, 26
1, 776639, Control_c, 0, 64, 29
1, 776654, Control_c, 0, 64, 36
1, 776666, Note_on_c, 0, 77, 94
1, 776669, Note_on_c, 0, 65, 85
1, 776669, Control_c, 0, 64, 42
1, 776677, Note_on_c, 0, 61, 69
1, 776683, Control_c, 0, 64, 46
1, 776687, Note_off_c, 0, 65, 72
1, 776687, Note_on_c, 0, 58, 52
1, 776698, Note_off_c, 0, 77, 63
1, 776698, Control_c, 0, 64, 51
1, 776702, Note_off_c, 0, 61, 66
1, 776712, Note_off_c, 0, 58, 59
1, 776713, Control_c, 0, 64, 55
1, 776727, Control_c, 0, 64, 57
1, 776742, Control_c, 0, 64, 59
1, 776757, Control_c, 0, 64, 60
1, 776772, Control_c, 0, 64, 62
1, 776787, Control_c, 0, 64, 64
1, 776803, Control_c, 0, 64, 65
1, 776818, Control_c, 0, 64, 67
1, 776832, Control_c, 0, 64, 68
1, 776839, Note_on_c, 0, 79, 96
1, 776842, Note_on_c, 0, 67, 89
1, 776842, Note_on_c, 0, 61, 68
1, 776844, Note_on_c, 0, 58, 57
1, 776845, Note_on_c, 0, 64, 66
1, 776847, Control_c, 0, 64, 68
1, 776862, Control_c, 0, 64, 66
1, 776864, Note_off_c, 0, 64, 65
1, 776869, Note_off_c, 0, 67, 62
1, 776869, Note_off_c, 0, 61, 65
1, 776874, Note_off_c, 0, 79, 59
1, 776875, Note_off_c, 0, 58, 67
1, 776877, Control_c, 0, 64, 64
1, 776892, Control_c, 0, 64, 53
1, 776906, Control_c, 0, 64, 0
1, 777041, Note_on_c, 0, 32, 77
1, 777042, Note_on_c, 0, 44, 77
1, 777047, Note_on_c, 0, 72, 91
1, 777051, Note_on_c, 0, 60, 83
1, 777051, Note_on_c, 0, 65, 75
1, 777065, Note_off_c, 0, 44, 66
1, 777066, Note_off_c, 0, 32, 64
1, 777077, Control_c, 0, 64, 64
1, 777092, Control_c, 0, 64, 82
1, 777106, Control_c, 0, 64, 104
1, 777121, Control_c, 0, 64, 127
1, 777225, Note_on_c, 0, 53, 78
1, 777242, Note_off_c, 0, 60, 63
1, 777262, Note_off_c, 0, 53, 66
1, 777266, Note_off_c, 0, 65, 61
1, 777287, Note_off_c, 0, 72, 63
1, 777325, Poly_aftertouch_c, 0, 56, 0
1, 777390, Note_on_c, 0, 60, 80
1, 777399, Note_on_c, 0, 56, 87
1, 777414, Note_off_c, 0, 60, 70
1, 777425, Note_off_c, 0, 56, 67
1, 777514, Note_on_c, 0, 72, 78
1, 777541, Note_on_c, 0, 74, 77
1, 777578, Note_off_c, 0, 72, 59
1, 777581, Note_on_c, 0, 76, 68
1, 777591, Note_on_c, 0, 45, 91
1, 777592, Note_on_c, 0, 77, 97
1, 777593, Note_on_c, 0, 33, 88
1, 777593, Note_off_c, 0, 74, 61
1, 777596, Note_on_c, 0, 65, 88
1, 777611, Control_c, 0, 64, 100
1, 777614, Note_off_c, 0, 45, 68
1, 777623, Note_off_c, 0, 33, 64
1, 777623, Note_off_c, 0, 65, 65
1, 777626, Control_c, 0, 64, 71
1, 777637, Note_off_c, 0, 76, 63
1, 777638, Note_off_c, 0, 77, 67
1, 777641, Control_c, 0, 64, 0
1, 777766, Control_c, 0, 64, 30
1, 777781, Control_c, 0, 64, 46
1, 777796, Control_c, 0, 64, 57
1, 777804, Note_on_c, 0, 60, 74
1, 777808, Note_on_c, 0, 52, 51
1, 777810, Note_on_c, 0, 53, 56
1, 777811, Control_c, 0, 64, 62
1, 777826, Control_c, 0, 64, 64
1, 777834, Note_off_c, 0, 52, 57
1, 777834, Note_off_c, 0, 53, 62
1, 777835, Note_off_c, 0, 60, 64
1, 777841, Control_c, 0, 64, 66
1, 777855, Control_c, 0, 64, 66
1, 777869, Note_on_c, 0, 76, 80
1, 777873, Note_on_c, 0, 64, 68
1, 777885, Control_c, 0, 64, 63
1, 777889, Note_off_c, 0, 76, 70
1, 777892, Note_off_c, 0, 64, 67
1, 777900, Control_c, 0, 64, 0
1, 777949, Note_on_c, 0, 63, 85
1, 777950, Note_on_c, 0, 60, 65
1, 777950, Note_on_c, 0, 77, 93
1, 777952, Note_on_c, 0, 65, 82
1, 777967, Note_off_c, 0, 63, 72
1, 777972, Note_off_c, 0, 65, 71
1, 777974, Note_off_c, 0, 60, 66
1, 777981, Note_off_c, 0, 77, 65
1, 778136, Note_on_c, 0, 46, 92
1, 778142, Note_on_c, 0, 34, 86
1, 778152, Control_c, 0, 64, 48
1, 778159, Note_off_c, 0, 46, 68
1, 778165, Note_off_c, 0, 34, 65
1, 778167, Control_c, 0, 64, 84
1, 778181, Control_c, 0, 64, 127
1, 778219, Note_on_c, 0, 68, 88
1, 778220, Note_on_c, 0, 80, 81
1, 778237, Note_off_c, 0, 68, 71
1, 778239, Note_off_c, 0, 80, 71
1, 778285, Control_c, 0, 64, 92
1, 778292, Note_on_c, 0, 53, 93
1, 778296, Note_on_c, 0, 77, 95
1, 778300, Note_on_c, 0, 65, 90
1, 778300, Control_c, 0, 64, 64
1, 778306, Note_on_c, 0, 61, 74
1, 778314, Control_c, 0, 64, 0
1, 778316, Note_off_c, 0, 53, 70
1, 778317, Note_off_c, 0, 65, 74
1, 778323, Note_off_c, 0, 77, 67
1, 778328, Note_off_c, 0, 61, 65
1, 778419, Control_c, 0, 64, 53
1, 778442, Control_c, 0, 64, 63
1, 778457, Control_c, 0, 64, 65
1, 778472, Control_c, 0, 64, 65
1, 778486, Control_c, 0, 64, 53
1, 778490, Note_on_c, 0, 61, 53
1, 778492, Note_on_c, 0, 65, 72
1, 778495, Note_on_c, 0, 58, 64
1, 778497, Note_on_c, 0, 78, 93
1, 778501, Note_on_c, 0, 66, 80
1, 778501, Control_c, 0, 64, 0
1, 778510, Note_off_c, 0, 65, 68
1, 778517, Note_off_c, 0, 78, 64
1, 778521, Note_off_c, 0, 66, 70
1, 778523, Note_off_c, 0, 61, 65
1, 778524, Note_off_c, 0, 58, 67
1, 778681, Note_on_c, 0, 48, 100
1, 778687, Note_on_c, 0, 36, 88
1, 778693, Control_c, 0, 64, 61
1, 778702, Note_off_c, 0, 48, 70
1, 778708, Control_c, 0, 64, 88
1, 778711, Note_off_c, 0, 36, 64
1, 778723, Control_c, 0, 64, 127
1, 778755, Note_on_c, 0, 82, 94
1, 778759, Note_on_c, 0, 70, 88
1, 778771, Note_off_c, 0, 82, 72
1, 778776, Note_off_c, 0, 70, 72
1, 778827, Control_c, 0, 64, 124
1, 778842, Control_c, 0, 64, 78
1, 778848, Note_on_c, 0, 53, 74
1, 778849, Note_on_c, 0, 80, 97
1, 778854, Note_on_c, 0, 63, 77
1, 778854, Note_on_c, 0, 68, 86
1, 778857, Control_c, 0, 64, 0
1, 778866, Note_off_c, 0, 53, 67
1, 778871, Note_on_c, 0, 60, 43
1, 778872, Note_off_c, 0, 68, 69
1, 778875, Note_off_c, 0, 63, 69
1, 778884, Note_off_c, 0, 80, 67
1, 778897, Note_off_c, 0, 60, 58
1, 778990, Control_c, 0, 64, 14
1, 779004, Control_c, 0, 64, 44
1, 779019, Control_c, 0, 64, 54
1, 779021, Note_on_c, 0, 65, 74
1, 779029, Note_on_c, 0, 63, 69
1, 779032, Note_on_c, 0, 81, 93
1, 779034, Control_c, 0, 64, 59
1, 779036, Note_on_c, 0, 69, 76
1, 779042, Note_on_c, 0, 60, 52
1, 779042, Note_off_c, 0, 65, 70
1, 779049, Control_c, 0, 64, 62
1, 779050, Note_off_c, 0, 69, 69
1, 779053, Note_off_c, 0, 63, 67
1, 779055, Note_off_c, 0, 81, 65
1, 779064, Control_c, 0, 64, 63
1, 779066, Note_off_c, 0, 60, 60
1, 779078, Control_c, 0, 64, 64
1, 779093, Control_c, 0, 64, 65
1, 779108, Control_c, 0, 64, 66
1, 779152, Control_c, 0, 64, 62
1, 779167, Control_c, 0, 64, 0
1, 779217, Note_on_c, 0, 84, 95
1, 779218, Note_on_c, 0, 49, 83
1, 779223, Note_on_c, 0, 37, 75
1, 779224, Note_on_c, 0, 72, 85
1, 779236, Note_off_c, 0, 84, 67
1, 779240, Note_off_c, 0, 49, 67
1, 779241, Note_off_c, 0, 72, 73
1, 779248, Note_off_c, 0, 37, 64
1, 779406, Note_on_c, 0, 53, 82
1, 779413, Control_c, 0, 64, 74
1, 779417, Note_on_c, 0, 70, 92
1, 779417, Note_on_c, 0, 61, 75
1, 779421, Note_on_c, 0, 82, 87
1, 779427, Control_c, 0, 64, 110
1, 779429, Note_on_c, 0, 58, 51
1, 779435, Note_off_c, 0, 53, 69
1, 779442, Control_c, 0, 64, 127
1, 779443, Note_off_c, 0, 82, 66
1, 779444, Note_off_c, 0, 61, 65
1, 779453, Note_off_c, 0, 70, 67
1, 779456, Note_off_c, 0, 58, 65
1, 779562, Note_on_c, 0, 65, 79
1, 779564, Note_on_c, 0, 61, 63
1, 779565, Note_on_c, 0, 58, 57
1, 779582, Note_on_c, 0, 71, 76
1, 779583, Note_off_c, 0, 65, 70
1, 779593, Note_off_c, 0, 61, 66
1, 779597, Note_off_c, 0, 58, 66
1, 779608, Note_off_c, 0, 71, 66
1, 779633, Note_on_c, 0, 74, 53
1, 779647, Note_on_c, 0, 77, 72
1, 779653, Note_on_c, 0, 80, 75
1, 779656, Note_off_c, 0, 74, 60
1, 779664, Note_off_c, 0, 77, 67
1, 779671, Note_off_c, 0, 80, 70
1, 779721, Note_on_c, 0, 83, 83
1, 779749, Note_on_c, 0, 86, 83
1, 779772, Note_off_c, 0, 83, 61
1, 779783, Control_c, 0, 64, 94
1, 779790, Note_on_c, 0, 90, 72
1, 779791, Note_on_c, 0, 92, 97
1, 779798, Control_c, 0, 64, 62
1, 779804, Note_on_c, 0, 50, 94
1, 779806, Note_on_c, 0, 95, 104
1, 779813, Control_c, 0, 64, 0
1, 779816, Note_off_c, 0, 86, 65
1, 779820, Note_off_c, 0, 90, 64
1, 779823, Note_off_c, 0, 50, 74
1, 779827, Control_c, 0, 64, 63
1, 779842, Control_c, 0, 64, 79
1, 779857, Control_c, 0, 64, 127
1, 779864, Note_off_c, 0, 92, 65
1, 779884, Note_off_c, 0, 95, 69
1, 779893, Poly_aftertouch_c, 0, 40, 127
1, 779924, Poly_aftertouch_c, 0, 38, 0
1, 779932, Poly_aftertouch_c, 0, 40, 0
1, 780026, Note_on_c, 0, 62, 67
1, 780031, Note_on_c, 0, 56, 63
1, 780046, Note_on_c, 0, 59, 44
1, 780050, Note_off_c, 0, 62, 66
1, 780057, Note_off_c, 0, 56, 66
1, 780061, Note_on_c, 0, 60, 26
1, 780064, Note_on_c, 0, 53, 8
1, 780075, Note_off_c, 0, 59, 52
1, 780097, Note_on_c, 0, 94, 91
1, 780097, Note_off_c, 0, 60, 54
1, 780098, Note_on_c, 0, 82, 91
1, 780112, Note_off_c, 0, 94, 74
1, 780114, Note_off_c, 0, 53, 56
1, 780114, Note_off_c, 0, 82, 73
1, 780162, Control_c, 0, 64, 97
1, 780164, Note_on_c, 0, 65, 91
1, 780166, Note_on_c, 0, 62, 64
1, 780172, Note_on_c, 0, 56, 69
1, 780172, Note_on_c, 0, 59, 62
1, 780174, Note_on_c, 0, 92, 104
1, 780176, Control_c, 0, 64, 64
1, 780180, Note_on_c, 0, 80, 87
1, 780181, Note_off_c, 0, 65, 72
1, 780190, Note_off_c, 0, 62, 66
1, 780191, Control_c, 0, 64, 0
1, 780201, Note_off_c, 0, 59, 64
1, 780202, Note_off_c, 0, 80, 66
1, 780207, Note_off_c, 0, 56, 66
1, 780208, Note_off_c, 0, 92, 70
1, 780352, Note_on_c, 0, 51, 98
1, 780355, Note_on_c, 0, 39, 93
1, 780368, Control_c, 0, 64, 67
1, 780377, Note_off_c, 0, 51, 68
1, 780377, Note_off_c, 0, 39, 70
1, 780383, Control_c, 0, 64, 97
1, 780398, Control_c, 0, 64, 127
1, 780428, Note_on_c, 0, 90, 95
1, 780431, Note_on_c, 0, 78, 86
1, 780447, Note_off_c, 0, 90, 67
1, 780449, Note_off_c, 0, 78, 69
1, 780487, Control_c, 0, 64, 111
1, 780502, Control_c, 0, 64, 65
1, 780510, Note_on_c, 0, 89, 110
1, 780512, Note_on_c, 0, 77, 94
1, 780517, Control_c, 0, 64, 0
1, 780519, Note_on_c, 0, 56, 65
1, 780521, Note_on_c, 0, 63, 58
1, 780522, Note_on_c, 0, 55, 63
1, 780535, Note_off_c, 0, 77, 69
1, 780541, Note_off_c, 0, 56, 63
1, 780541, Note_off_c, 0, 55, 65
1, 780541, Note_off_c, 0, 89, 66
1, 780545, Note_on_c, 0, 58, 22
1, 780546, Note_off_c, 0, 58, 127
1, 780547, Note_off_c, 0, 63, 59
1, 780553, Note_on_c, 0, 64, 22
1, 780554, Note_off_c, 0, 64, 127
1, 780696, Note_on_c, 0, 63, 54
1, 780698, Note_on_c, 0, 66, 75
1, 780704, Note_on_c, 0, 58, 69
1, 780704, Note_on_c, 0, 75, 89
1, 780706, Note_on_c, 0, 87, 89
1, 780719, Note_off_c, 0, 66, 68
1, 780726, Note_off_c, 0, 63, 65
1, 780735, Note_off_c, 0, 58, 66
1, 780738, Note_off_c, 0, 87, 65
1, 780747, Note_off_c, 0, 75, 60
1, 780881, Note_on_c, 0, 53, 97
1, 780881, Note_on_c, 0, 86, 93
1, 780883, Note_on_c, 0, 74, 87
1, 780886, Note_on_c, 0, 80, 79
1, 780887, Note_on_c, 0, 41, 80
1, 780899, Note_off_c, 0, 74, 75
1, 780901, Note_on_c, 0, 83, 48
1, 780903, Note_off_c, 0, 53, 73
1, 780909, Note_off_c, 0, 41, 63
1, 780917, Note_off_c, 0, 80, 63
1, 780921, Note_off_c, 0, 86, 65
1, 780923, Note_off_c, 0, 83, 57
1, 781029, Control_c, 0, 64, 31
1, 781044, Control_c, 0, 64, 42
1, 781059, Control_c, 0, 64, 46
1, 781073, Control_c, 0, 64, 47
1, 781075, Note_on_c, 0, 87, 97
1, 781078, Note_on_c, 0, 75, 84
1, 781080, Note_on_c, 0, 62, 65
1, 781082, Note_on_c, 0, 56, 74
1, 781088, Control_c, 0, 64, 47
1, 781103, Control_c, 0, 64, 48
1, 781109, Note_off_c, 0, 75, 64
1, 781111, Note_off_c, 0, 56, 65
1, 781112, Note_off_c, 0, 62, 64
1, 781116, Note_on_c, 0, 59, 24
1, 781118, Control_c, 0, 64, 49
1, 781120, Note_off_c, 0, 87, 66
1, 781132, Control_c, 0, 64, 52
1, 781147, Control_c, 0, 64, 57
1, 781157, Note_off_c, 0, 59, 41
1, 781162, Control_c, 0, 64, 61
1, 781177, Control_c, 0, 64, 65
1, 781192, Control_c, 0, 64, 68
1, 781206, Control_c, 0, 64, 71
1, 781221, Control_c, 0, 64, 74
1, 781236, Control_c, 0, 64, 75
1, 781251, Control_c, 0, 64, 74
1, 781252, Note_on_c, 0, 68, 83
1, 781258, Note_on_c, 0, 59, 58
1, 781258, Note_on_c, 0, 89, 97
1, 781262, Note_on_c, 0, 77, 90
1, 781266, Control_c, 0, 64, 66
1, 781268, Note_on_c, 0, 62, 58
1, 781269, Note_off_c, 0, 68, 73
1, 781278, Note_off_c, 0, 89, 66
1, 781280, Control_c, 0, 64, 0
1, 781286, Note_off_c, 0, 77, 64
1, 781294, Note_off_c, 0, 62, 63
1, 781295, Note_off_c, 0, 59, 64
1, 781459, Note_on_c, 0, 82, 98
1, 781462, Note_on_c, 0, 54, 78
1, 781465, Note_on_c, 0, 70, 88
1, 781469, Note_on_c, 0, 75, 83
1, 781472, Note_on_c, 0, 42, 59
1, 781483, Note_off_c, 0, 54, 69
1, 781495, Control_c, 0, 64, 74
1, 781500, Note_off_c, 0, 42, 58
1, 781510, Control_c, 0, 64, 94
1, 781525, Control_c, 0, 64, 127
1, 781632, Note_off_c, 0, 70, 63
1, 781643, Note_on_c, 0, 54, 59
1, 781647, Note_on_c, 0, 63, 76
1, 781671, Note_on_c, 0, 58, 42
1, 781675, Note_off_c, 0, 75, 62
1, 781677, Note_off_c, 0, 63, 63
1, 781693, Note_off_c, 0, 54, 58
1, 781695, Note_off_c, 0, 82, 62
1, 781701, Note_off_c, 0, 58, 55
1, 781803, Note_on_c, 0, 66, 69
1, 781805, Note_on_c, 0, 63, 64
1, 781811, Note_on_c, 0, 58, 51
1, 781821, Note_off_c, 0, 66, 67
1, 781829, Note_off_c, 0, 63, 65
1, 781842, Note_off_c, 0, 58, 61
1, 781931, Note_on_c, 0, 81, 50
1, 781949, Note_on_c, 0, 82, 65
1, 781966, Note_off_c, 0, 81, 63
1, 781981, Note_off_c, 0, 82, 60
1, 781987, Note_on_c, 0, 84, 64
1, 782000, Control_c, 0, 64, 109
1, 782011, Note_on_c, 0, 73, 75
1, 782011, Note_on_c, 0, 85, 85
1, 782014, Note_on_c, 0, 55, 71
1, 782015, Control_c, 0, 64, 74
1, 782019, Note_on_c, 0, 43, 61
1, 782028, Note_off_c, 0, 73, 68
1, 782029, Control_c, 0, 64, 0
1, 782032, Note_off_c, 0, 55, 65
1, 782039, Note_off_c, 0, 84, 63
1, 782045, Note_off_c, 0, 43, 57
1, 782055, Note_off_c, 0, 85, 62
1, 782206, Note_on_c, 0, 55, 47
1, 782210, Note_on_c, 0, 61, 62
1, 782215, Control_c, 0, 64, 21
1, 782228, Note_on_c, 0, 58, 46
1, 782229, Control_c, 0, 64, 36
1, 782231, Note_off_c, 0, 55, 55
1, 782237, Note_off_c, 0, 61, 64
1, 782244, Control_c, 0, 64, 47
1, 782256, Note_off_c, 0, 58, 57
1, 782259, Control_c, 0, 64, 55
1, 782274, Note_on_c, 0, 81, 74
1, 782274, Control_c, 0, 64, 61
1, 782279, Note_on_c, 0, 69, 63
1, 782289, Control_c, 0, 64, 63
1, 782294, Note_off_c, 0, 81, 70
1, 782300, Note_off_c, 0, 69, 64
1, 782303, Control_c, 0, 64, 63
1, 782318, Control_c, 0, 64, 58
1, 782333, Control_c, 0, 64, 0
1, 782354, Note_on_c, 0, 61, 68
1, 782356, Note_on_c, 0, 58, 53
1, 782358, Note_on_c, 0, 82, 84
1, 782360, Note_on_c, 0, 64, 64
1, 782363, Note_on_c, 0, 70, 62
1, 782378, Note_off_c, 0, 61, 66
1, 782380, Note_off_c, 0, 64, 64
1, 782381, Note_off_c, 0, 82, 67
1, 782382, Note_off_c, 0, 70, 64
1, 782383, Note_off_c, 0, 58, 65
1, 782541, Note_on_c, 0, 56, 82
1, 782541, Note_on_c, 0, 44, 78
1, 782556, Control_c, 0, 64, 69
1, 782564, Note_off_c, 0, 56, 71
1, 782565, Note_off_c, 0, 44, 67
1, 782571, Control_c, 0, 64, 84
1, 782586, Control_c, 0, 64, 127
1, 782624, Note_on_c, 0, 85, 76
1, 782634, Note_on_c, 0, 73, 58
1, 782646, Note_off_c, 0, 85, 70
1, 782653, Note_off_c, 0, 73, 63
1, 782690, Control_c, 0, 64, 78
1, 782695, Note_on_c, 0, 53, 83
1, 782705, Control_c, 0, 64, 0
1, 782707, Note_on_c, 0, 79, 93
1, 782711, Note_on_c, 0, 61, 61
1, 782711, Note_on_c, 0, 67, 83
1, 782719, Note_off_c, 0, 53, 71
1, 782727, Note_off_c, 0, 79, 66
1, 782729, Note_off_c, 0, 67, 70
1, 782733, Note_off_c, 0, 61, 60
1, 782838, Control_c, 0, 64, 49
1, 782852, Control_c, 0, 64, 59
1, 782867, Control_c, 0, 64, 62
1, 782882, Control_c, 0, 64, 63
1, 782896, Control_c, 0, 64, 57
1, 782906, Note_on_c, 0, 56, 60
1, 782906, Note_on_c, 0, 65, 51
1, 782907, Note_on_c, 0, 80, 84
1, 782911, Note_on_c, 0, 68, 70
1, 782911, Control_c, 0, 64, 0
1, 782921, Note_on_c, 0, 61, 49
1, 782938, Note_off_c, 0, 65, 58
1, 782941, Note_off_c, 0, 56, 66
1, 782944, Note_off_c, 0, 68, 67
1, 782950, Note_off_c, 0, 61, 53
1, 782951, Note_off_c, 0, 80, 63
1, 783087, Note_on_c, 0, 45, 82
1, 783087, Note_on_c, 0, 57, 80
1, 783106, Note_off_c, 0, 57, 69
1, 783111, Control_c, 0, 64, 64
1, 783113, Note_off_c, 0, 45, 65
1, 783126, Control_c, 0, 64, 83
1, 783141, Control_c, 0, 64, 127
1, 783164, Note_on_c, 0, 89, 74
1, 783169, Note_on_c, 0, 77, 70
1, 783179, Note_off_c, 0, 89, 66
1, 783186, Note_off_c, 0, 77, 67
1, 783231, Control_c, 0, 64, 109
1, 783245, Note_on_c, 0, 53, 79
1, 783246, Control_c, 0, 64, 73
1, 783257, Note_on_c, 0, 60, 60
1, 783257, Note_on_c, 0, 76, 95
1, 783261, Control_c, 0, 64, 0
1, 783263, Note_on_c, 0, 64, 84
1, 783267, Note_off_c, 0, 53, 67
1, 783277, Note_off_c, 0, 60, 64
1, 783283, Note_off_c, 0, 64, 72
1, 783285, Note_off_c, 0, 76, 64
1, 783334, Control_c, 0, 64, 39
1, 783349, Control_c, 0, 64, 58
1, 783364, Control_c, 0, 64, 62
1, 783394, Control_c, 0, 64, 51
1, 783409, Control_c, 0, 64, 0
1, 783430, Note_on_c, 0, 63, 63
1, 783443, Note_on_c, 0, 60, 10
1, 783444, Note_on_c, 0, 77, 85
1, 783452, Note_off_c, 0, 63, 63
1, 783465, Note_on_c, 0, 65, 34
1, 783466, Note_off_c, 0, 77, 65
1, 783468, Note_off_c, 0, 60, 49
1, 783498, Note_off_c, 0, 65, 48
1, 783563, Note_on_c, 0, 46, 69
1, 783626, Note_on_c, 0, 53, 42
1, 783629, Note_off_c, 0, 46, 63
1, 783656, Note_off_c, 0, 53, 62
1, 783661, Control_c, 0, 64, 65
1, 783677, Note_on_c, 0, 61, 70
1, 783681, Note_on_c, 0, 94, 75
1, 783683, Control_c, 0, 64, 73
1, 783683, Note_on_c, 0, 82, 57
1, 783698, Control_c, 0, 64, 83
1, 783704, Note_off_c, 0, 61, 66
1, 783713, Control_c, 0, 64, 103
1, 783714, Note_off_c, 0, 82, 56
1, 783727, Control_c, 0, 64, 127
1, 783765, Note_on_c, 0, 89, 76
1, 783796, Note_off_c, 0, 94, 56
1, 783853, Note_on_c, 0, 85, 75
1, 783860, Note_off_c, 0, 89, 59
1, 783927, Note_off_c, 0, 85, 63
1, 783937, Note_on_c, 0, 82, 70
1, 783960, Note_off_c, 0, 82, 68
1, 784035, Note_on_c, 0, 70, 86
1, 784053, Note_off_c, 0, 70, 72
1, 784084, Control_c, 0, 64, 99
1, 784098, Control_c, 0, 64, 67
1, 784113, Control_c, 0, 64, 0
1, 784306, Control_c, 0, 64, 89
1, 784319, Note_on_c, 0, 70, 95
1, 784319, Note_on_c, 0, 73, 88
1, 784320, Note_on_c, 0, 40, 92
1, 784320, Note_on_c, 0, 82, 94
1, 784321, Control_c, 0, 64, 127
1, 784321, Note_on_c, 0, 79, 82
1, 784333, Note_on_c, 0, 28, 84
1, 784343, Note_off_c, 0, 40, 70
1, 784363, Note_off_c, 0, 28, 60
1, 784380, Control_c, 0, 64, 91
1, 784395, Control_c, 0, 64, 55
1, 784410, Control_c, 0, 64, 0
1, 784431, Note_off_c, 0, 70, 61
1, 784433, Note_off_c, 0, 82, 65
1, 784452, Note_off_c, 0, 79, 59
1, 784458, Note_off_c, 0, 73, 60
1, 784619, Note_on_c, 0, 41, 87
1, 784622, Note_on_c, 0, 29, 86
1, 784642, Note_off_c, 0, 41, 66
1, 784652, Note_off_c, 0, 29, 64
1, 784694, Note_on_c, 0, 43, 100
1, 784700, Note_on_c, 0, 31, 85
1, 784716, Note_off_c, 0, 43, 71
1, 784731, Note_on_c, 0, 33, 41
1, 784732, Note_off_c, 0, 33, 127
1, 784732, Note_off_c, 0, 31, 64
1, 784747, Note_on_c, 0, 34, 10
1, 784748, Note_off_c, 0, 34, 127
1, 784772, Control_c, 0, 64, 31
1, 784787, Control_c, 0, 64, 38
1, 784803, Control_c, 0, 64, 39
1, 784818, Control_c, 0, 64, 40
1, 784833, Control_c, 0, 64, 43
1, 784847, Control_c, 0, 64, 45
1, 784862, Control_c, 0, 64, 45
1, 784877, Control_c, 0, 64, 45
1, 784888, Note_on_c, 0, 68, 92
1, 784891, Note_on_c, 0, 80, 89
1, 784892, Control_c, 0, 64, 41
1, 784895, Note_on_c, 0, 72, 81
1, 784895, Note_on_c, 0, 77, 80
1, 784907, Control_c, 0, 64, 35
1, 784921, Control_c, 0, 64, 29
1, 784965, Control_c, 0, 64, 32
1, 784968, Note_on_c, 0, 44, 95
1, 784969, Note_on_c, 0, 32, 87
1, 784980, Control_c, 0, 64, 38
1, 784991, Note_off_c, 0, 44, 72
1, 784995, Control_c, 0, 64, 43
1, 784996, Note_off_c, 0, 32, 65
1, 785010, Control_c, 0, 64, 43
1, 785014, Note_off_c, 0, 80, 63
1, 785016, Note_off_c, 0, 68, 63
1, 785025, Control_c, 0, 64, 43
1, 785029, Note_off_c, 0, 72, 63
1, 785030, Note_off_c, 0, 77, 64
1, 785039, Control_c, 0, 64, 38
1, 785054, Control_c, 0, 64, 32
1, 785061, Note_on_c, 0, 46, 99
1, 785069, Control_c, 0, 64, 28
1, 785087, Poly_aftertouch_c, 0, 34, 127
1, 785095, Note_on_c, 0, 37, 37
1, 785096, Note_off_c, 0, 37, 127
1, 785109, Note_off_c, 0, 46, 59
1, 785114, Control_c, 0, 64, 32
1, 785117, Poly_aftertouch_c, 0, 34, 0
1, 785129, Control_c, 0, 64, 34
1, 785144, Control_c, 0, 64, 35
1, 785225, Control_c, 0, 64, 36
1, 785240, Control_c, 0, 64, 36
1, 785254, Control_c, 0, 64, 38
1, 785257, Note_on_c, 0, 48, 94
1, 785258, Note_on_c, 0, 36, 92
1, 785269, Control_c, 0, 64, 39
1, 785281, Note_off_c, 0, 48, 67
1, 785284, Note_off_c, 0, 36, 69
1, 785299, Control_c, 0, 64, 40
1, 785314, Control_c, 0, 64, 41
1, 785329, Control_c, 0, 64, 43
1, 785343, Control_c, 0, 64, 47
1, 785358, Control_c, 0, 64, 52
1, 785373, Control_c, 0, 64, 53
1, 785403, Control_c, 0, 64, 47
1, 785418, Control_c, 0, 64, 28
1, 785433, Control_c, 0, 64, 0
1, 785433, Note_on_c, 0, 77, 96
1, 785437, Note_on_c, 0, 65, 92
1, 785439, Note_on_c, 0, 70, 88
1, 785442, Note_on_c, 0, 73, 83
1, 785446, Note_on_c, 0, 49, 100
1, 785448, Note_on_c, 0, 37, 94
1, 785474, Note_off_c, 0, 49, 61
1, 785475, Note_off_c, 0, 37, 69
1, 785506, Control_c, 0, 64, 11
1, 785521, Control_c, 0, 64, 24
1, 785536, Control_c, 0, 64, 28
1, 785551, Control_c, 0, 64, 32
1, 785565, Control_c, 0, 64, 34
1, 785580, Control_c, 0, 64, 35
1, 785596, Control_c, 0, 64, 36
1, 785611, Control_c, 0, 64, 37
1, 785624, Note_off_c, 0, 65, 61
1, 785624, Note_off_c, 0, 77, 60
1, 785626, Control_c, 0, 64, 38
1, 785632, Note_on_c, 0, 48, 91
1, 785636, Note_on_c, 0, 36, 90
1, 785641, Control_c, 0, 64, 39
1, 785653, Note_off_c, 0, 48, 72
1, 785659, Note_off_c, 0, 70, 63
1, 785661, Note_off_c, 0, 36, 68
1, 785663, Note_off_c, 0, 73, 62
1, 785700, Control_c, 0, 64, 40
1, 785714, Control_c, 0, 64, 40
1, 785729, Control_c, 0, 64, 44
1, 785744, Control_c, 0, 64, 49
1, 785759, Control_c, 0, 64, 54
1, 785774, Control_c, 0, 64, 58
1, 785788, Control_c, 0, 64, 60
1, 785803, Control_c, 0, 64, 62
1, 785826, Note_on_c, 0, 34, 88
1, 785826, Note_on_c, 0, 46, 86
1, 785833, Control_c, 0, 64, 60
1, 785848, Control_c, 0, 64, 48
1, 785851, Note_off_c, 0, 34, 68
1, 785851, Note_off_c, 0, 46, 68
1, 785862, Control_c, 0, 64, 0
1, 785864, Note_on_c, 0, 44, 28
1, 785865, Note_off_c, 0, 44, 127
1, 786052, Note_on_c, 0, 72, 89
1, 786056, Note_on_c, 0, 60, 91
1, 786059, Note_on_c, 0, 41, 87
1, 786060, Note_on_c, 0, 65, 82
1, 786062, Note_on_c, 0, 53, 91
1, 786062, Note_on_c, 0, 68, 78
1, 786136, Control_c, 0, 64, 59
1, 786151, Control_c, 0, 64, 84
1, 786166, Control_c, 0, 64, 105
1, 786181, Control_c, 0, 64, 127
1, 786458, Note_off_c, 0, 53, 64
1, 786464, Control_c, 0, 67, 9
1, 786479, Control_c, 0, 67, 14
1, 786493, Control_c, 0, 67, 23
1, 786506, Note_off_c, 0, 41, 62
1, 786508, Control_c, 0, 67, 37
1, 786523, Control_c, 0, 67, 50
1, 786537, Control_c, 0, 64, 98
1, 786537, Control_c, 0, 67, 60
1, 786539, Note_off_c, 0, 72, 61
1, 786544, Note_off_c, 0, 60, 63
1, 786552, Control_c, 0, 64, 71
1, 786552, Control_c, 0, 67, 64
1, 786553, Note_off_c, 0, 65, 62
1, 786566, Note_off_c, 0, 68, 62
1, 786567, Control_c, 0, 64, 0
1, 786567, Control_c, 0, 67, 65
1, 786626, Control_c, 0, 67, 64
1, 786641, Control_c, 0, 67, 64
1, 786752, Control_c, 0, 67, 64
1, 786767, Control_c, 0, 67, 65
1, 786782, Control_c, 0, 67, 67
1, 786797, Control_c, 0, 67, 71
1, 786812, Control_c, 0, 67, 78
1, 786826, Control_c, 0, 67, 84
1, 786830, Note_on_c, 0, 71, 53
1, 786841, Control_c, 0, 67, 89
1, 786856, Control_c, 0, 67, 95
1, 786870, Control_c, 0, 67, 99
1, 786885, Control_c, 0, 67, 102
1, 786900, Control_c, 0, 67, 105
1, 786909, Note_on_c, 0, 42, 48
1, 786915, Control_c, 0, 67, 107
1, 786930, Control_c, 0, 67, 109
1, 786940, Note_off_c, 0, 42, 60
1, 786944, Control_c, 0, 67, 109
1, 786959, Control_c, 0, 67, 110
1, 786991, Note_on_c, 0, 40, 50
1, 787018, Note_off_c, 0, 40, 56
1, 787022, Note_on_c, 0, 61, 36
1, 787167, Control_c, 0, 67, 109
1, 787202, Note_on_c, 0, 41, 51
1, 787212, Control_c, 0, 67, 109
1, 787227, Note_on_c, 0, 68, 50
1, 787230, Note_off_c, 0, 41, 57
1, 787242, Control_c, 0, 67, 108
1, 787257, Control_c, 0, 67, 107
1, 787287, Control_c, 0, 67, 107
1, 787316, Control_c, 0, 67, 106
1, 787331, Control_c, 0, 67, 106
1, 787346, Control_c, 0, 67, 105
1, 787360, Control_c, 0, 67, 105
1, 787375, Control_c, 0, 67, 104
1, 787425, Note_on_c, 0, 69, 65
1, 787427, Control_c, 0, 67, 104
1, 787438, Note_off_c, 0, 61, 52
1, 787467, Note_off_c, 0, 71, 50
1, 787482, Note_off_c, 0, 68, 52
1, 787511, Note_on_c, 0, 44, 58
1, 787531, Control_c, 0, 67, 103
1, 787540, Note_off_c, 0, 44, 64
1, 787579, Note_on_c, 0, 41, 65
1, 787595, Note_on_c, 0, 61, 50
1, 787607, Note_off_c, 0, 41, 62
1, 787693, Control_c, 0, 67, 104
1, 787708, Control_c, 0, 64, 17
1, 787723, Control_c, 0, 64, 21
1, 787739, Control_c, 0, 64, 27
1, 787754, Control_c, 0, 64, 30
1, 787754, Control_c, 0, 67, 104
1, 787768, Control_c, 0, 64, 33
1, 787783, Control_c, 0, 64, 36
1, 787788, Note_on_c, 0, 42, 46
1, 787798, Control_c, 0, 64, 38
1, 787798, Control_c, 0, 67, 105
1, 787802, Note_on_c, 0, 66, 43
1, 787806, Note_on_c, 0, 70, 57
1, 787813, Control_c, 0, 64, 40
1, 787816, Note_off_c, 0, 61, 57
1, 787818, Note_off_c, 0, 42, 54
1, 787820, Note_off_c, 0, 69, 57
1, 787828, Control_c, 0, 64, 42
1, 787842, Control_c, 0, 64, 43
1, 787842, Control_c, 0, 67, 105
1, 787857, Control_c, 0, 64, 44
1, 787872, Control_c, 0, 64, 45
1, 787872, Control_c, 0, 67, 106
1, 787901, Control_c, 0, 64, 45
1, 787916, Control_c, 0, 64, 46
1, 787946, Control_c, 0, 64, 46
1, 788008, Note_on_c, 0, 73, 72
1, 788095, Note_on_c, 0, 46, 54
1, 788122, Note_off_c, 0, 46, 61
1, 788143, Note_off_c, 0, 70, 62
1, 788174, Note_off_c, 0, 66, 62
1, 788177, Control_c, 0, 64, 46
1, 788182, Note_on_c, 0, 44, 62
1, 788193, Note_on_c, 0, 63, 60
1, 788206, Control_c, 0, 67, 106
1, 788210, Note_off_c, 0, 44, 65
1, 788221, Control_c, 0, 67, 107
1, 788236, Control_c, 0, 67, 107
1, 788251, Control_c, 0, 67, 108
1, 788265, Control_c, 0, 67, 109
1, 788280, Control_c, 0, 67, 109
1, 788295, Control_c, 0, 67, 110
1, 788324, Control_c, 0, 67, 110
1, 788354, Control_c, 0, 67, 111
1, 788382, Note_on_c, 0, 72, 68
1, 788384, Control_c, 0, 67, 111
1, 788393, Note_on_c, 0, 45, 45
1, 788393, Note_on_c, 0, 65, 60
1, 788402, Note_off_c, 0, 73, 64
1, 788414, Control_c, 0, 64, 45
1, 788414, Control_c, 0, 67, 113
1, 788424, Note_off_c, 0, 45, 50
1, 788429, Control_c, 0, 67, 115
1, 788444, Control_c, 0, 67, 118
1, 788458, Control_c, 0, 67, 118
1, 788473, Control_c, 0, 67, 119
1, 788558, Note_off_c, 0, 63, 41
1, 788580, Note_off_c, 0, 65, 59
1, 788584, Note_on_c, 0, 75, 76
1, 788605, Control_c, 0, 64, 45
1, 788605, Control_c, 0, 67, 118
1, 788619, Control_c, 0, 67, 117
1, 788625, Note_off_c, 0, 72, 59
1, 788634, Control_c, 0, 64, 44
1, 788634, Control_c, 0, 67, 116
1, 788649, Control_c, 0, 67, 114
1, 788664, Control_c, 0, 67, 113
1, 788679, Control_c, 0, 67, 110
1, 788687, Note_on_c, 0, 48, 68
1, 788694, Control_c, 0, 67, 106
1, 788708, Control_c, 0, 67, 100
1, 788712, Note_off_c, 0, 48, 65
1, 788723, Control_c, 0, 67, 89
1, 788738, Control_c, 0, 64, 45
1, 788738, Control_c, 0, 67, 72
1, 788753, Control_c, 0, 64, 46
1, 788753, Control_c, 0, 67, 54
1, 788766, Note_on_c, 0, 65, 62
1, 788768, Control_c, 0, 64, 47
1, 788768, Control_c, 0, 67, 36
1, 788777, Note_on_c, 0, 45, 61
1, 788783, Control_c, 0, 64, 49
1, 788783, Control_c, 0, 67, 20
1, 788798, Control_c, 0, 64, 51
1, 788798, Control_c, 0, 67, 8
1, 788802, Note_off_c, 0, 45, 61
1, 788813, Control_c, 0, 64, 53
1, 788813, Control_c, 0, 67, 0
1, 788828, Control_c, 0, 64, 55
1, 788843, Control_c, 0, 64, 57
1, 788858, Control_c, 0, 64, 60
1, 788873, Control_c, 0, 64, 62
1, 788887, Control_c, 0, 64, 64
1, 788902, Control_c, 0, 64, 65
1, 788924, Control_c, 0, 64, 66
1, 788938, Control_c, 0, 64, 66
1, 788944, Note_off_c, 0, 65, 47
1, 788953, Control_c, 0, 64, 65
1, 788956, Note_on_c, 0, 46, 75
1, 788959, Note_on_c, 0, 70, 77
1, 788967, Note_on_c, 0, 74, 76
1, 788968, Control_c, 0, 64, 39
1, 788979, Note_off_c, 0, 46, 66
1, 788983, Note_off_c, 0, 70, 67
1, 788983, Control_c, 0, 64, 0
1, 788992, Note_off_c, 0, 74, 68
1, 788999, Note_off_c, 0, 75, 57
1, 789176, Control_c, 0, 64, 31
1, 789191, Control_c, 0, 64, 105
1, 789196, Note_on_c, 0, 80, 96
1, 789197, Note_on_c, 0, 68, 92
1, 789200, Note_on_c, 0, 38, 98
1, 789200, Note_on_c, 0, 71, 86
1, 789200, Note_on_c, 0, 77, 82
1, 789205, Control_c, 0, 64, 127
1, 789206, Note_on_c, 0, 26, 91
1, 789224, Note_off_c, 0, 38, 68
1, 789230, Note_off_c, 0, 26, 65
1, 789264, Control_c, 0, 64, 102
1, 789279, Control_c, 0, 64, 72
1, 789292, Note_off_c, 0, 68, 62
1, 789294, Control_c, 0, 64, 0
1, 789318, Note_off_c, 0, 80, 60
1, 789321, Note_off_c, 0, 71, 62
1, 789338, Note_off_c, 0, 77, 61
1, 789472, Control_c, 0, 64, 32
1, 789487, Control_c, 0, 64, 44
1, 789496, Note_on_c, 0, 39, 88
1, 789511, Note_on_c, 0, 27, 61
1, 789512, Note_off_c, 0, 27, 127
1, 789517, Control_c, 0, 64, 0
1, 789519, Note_off_c, 0, 39, 69
1, 789537, Note_on_c, 0, 28, 35
1, 789575, Note_on_c, 0, 41, 101
1, 789576, Note_on_c, 0, 29, 100
1, 789583, Note_off_c, 0, 28, 50
1, 789597, Note_off_c, 0, 41, 71
1, 789604, Note_off_c, 0, 29, 70
1, 789617, Note_on_c, 0, 40, 30
1, 789618, Note_off_c, 0, 40, 127
1, 789625, Note_on_c, 0, 30, 10
1, 789626, Note_off_c, 0, 30, 127
1, 789782, Note_on_c, 0, 66, 96
1, 789785, Note_on_c, 0, 78, 93
1, 789785, Note_on_c, 0, 75, 86
1, 789788, Note_on_c, 0, 70, 86
1, 789821, Control_c, 0, 64, 64
1, 789836, Control_c, 0, 64, 75
1, 789851, Control_c, 0, 64, 75
1, 789857, Note_on_c, 0, 42, 98
1, 789859, Note_on_c, 0, 30, 88
1, 789865, Control_c, 0, 64, 72
1, 789880, Note_off_c, 0, 42, 69
1, 789880, Control_c, 0, 64, 71
1, 789886, Note_off_c, 0, 30, 67
1, 789889, Note_on_c, 0, 32, 37
1, 789889, Note_off_c, 0, 66, 64
1, 789895, Note_off_c, 0, 78, 63
1, 789895, Control_c, 0, 64, 70
1, 789920, Note_off_c, 0, 75, 62
1, 789922, Note_off_c, 0, 70, 61
1, 789928, Note_off_c, 0, 32, 53
1, 789946, Note_on_c, 0, 44, 100
1, 789949, Note_on_c, 0, 32, 74
1, 789964, Note_on_c, 0, 34, 63
1, 789976, Note_off_c, 0, 44, 56
1, 789983, Note_off_c, 0, 32, 63
1, 789984, Control_c, 0, 64, 70
1, 789997, Note_off_c, 0, 34, 62
1, 790029, Control_c, 0, 64, 69
1, 790043, Control_c, 0, 64, 68
1, 790058, Control_c, 0, 64, 67
1, 790132, Control_c, 0, 64, 65
1, 790147, Control_c, 0, 64, 53
1, 790149, Note_on_c, 0, 46, 97
1, 790153, Note_on_c, 0, 34, 87
1, 790161, Control_c, 0, 64, 0
1, 790179, Note_off_c, 0, 34, 68
1, 790181, Note_off_c, 0, 46, 57
1, 790331, Note_on_c, 0, 75, 90
1, 790332, Note_on_c, 0, 63, 95
1, 790334, Note_on_c, 0, 47, 96
1, 790337, Note_on_c, 0, 35, 86
1, 790339, Note_on_c, 0, 71, 80
1, 790341, Note_on_c, 0, 68, 79
1, 790354, Note_off_c, 0, 47, 74
1, 790361, Note_off_c, 0, 35, 70
1, 790490, Note_off_c, 0, 63, 60
1, 790506, Note_off_c, 0, 75, 59
1, 790528, Note_off_c, 0, 71, 61
1, 790544, Note_on_c, 0, 46, 95
1, 790546, Note_on_c, 0, 34, 87
1, 790551, Note_off_c, 0, 68, 57
1, 790566, Note_off_c, 0, 46, 69
1, 790573, Note_off_c, 0, 34, 68
1, 790724, Note_on_c, 0, 44, 98
1, 790725, Note_on_c, 0, 32, 88
1, 790748, Note_off_c, 0, 44, 71
1, 790751, Note_off_c, 0, 32, 69
1, 790945, Note_on_c, 0, 70, 89
1, 790945, Note_on_c, 0, 58, 89
1, 790952, Note_on_c, 0, 63, 82
1, 790953, Note_on_c, 0, 66, 78
1, 790958, Note_on_c, 0, 51, 89
1, 790959, Note_on_c, 0, 39, 84
1, 791201, Control_c, 0, 64, 32
1, 791215, Control_c, 0, 64, 52
1, 791230, Control_c, 0, 64, 56
1, 791245, Control_c, 0, 64, 57
1, 791260, Control_c, 0, 64, 59
1, 791275, Control_c, 0, 64, 60
1, 791289, Control_c, 0, 64, 60
1, 791304, Control_c, 0, 64, 61
1, 791333, Control_c, 0, 64, 62
1, 791378, Control_c, 0, 64, 61
1, 791378, Control_c, 0, 67, 9
1, 791393, Control_c, 0, 64, 61
1, 791393, Control_c, 0, 67, 17
1, 791407, Control_c, 0, 64, 60
1, 791407, Control_c, 0, 67, 31
1, 791422, Control_c, 0, 64, 57
1, 791422, Control_c, 0, 67, 54
1, 791437, Control_c, 0, 64, 48
1, 791437, Control_c, 0, 67, 82
1, 791444, Note_off_c, 0, 51, 64
1, 791445, Note_off_c, 0, 58, 63
1, 791452, Control_c, 0, 64, 0
1, 791452, Control_c, 0, 67, 103
1, 791466, Control_c, 0, 67, 120
1, 791481, Note_off_c, 0, 63, 58
1, 791481, Control_c, 0, 67, 127
1, 791488, Note_off_c, 0, 39, 62
1, 791495, Note_off_c, 0, 66, 59
1, 791499, Note_off_c, 0, 70, 60
1, 791764, Note_on_c, 0, 73, 54
1, 791854, Note_on_c, 0, 42, 45
1, 791886, Note_off_c, 0, 42, 58
1, 791945, Note_on_c, 0, 39, 50
1, 791975, Note_on_c, 0, 61, 34
1, 791976, Note_off_c, 0, 39, 56
1, 792158, Note_on_c, 0, 40, 34
1, 792196, Note_off_c, 0, 40, 48
1, 792199, Note_on_c, 0, 66, 38
1, 792206, Note_on_c, 0, 70, 37
1, 792247, Note_off_c, 0, 61, 46
1, 792260, Control_c, 0, 64, 11
1, 792275, Control_c, 0, 64, 21
1, 792287, Note_off_c, 0, 66, 61
1, 792289, Control_c, 0, 64, 28
1, 792304, Control_c, 0, 64, 32
1, 792307, Note_off_c, 0, 73, 62
1, 792319, Control_c, 0, 64, 34
1, 792327, Note_off_c, 0, 70, 63
1, 792334, Control_c, 0, 64, 36
1, 792349, Control_c, 0, 64, 37
1, 792363, Control_c, 0, 64, 38
1, 792378, Control_c, 0, 64, 39
1, 792393, Control_c, 0, 64, 40
1, 792408, Control_c, 0, 64, 41
1, 792412, Note_on_c, 0, 78, 73
1, 792423, Control_c, 0, 64, 42
1, 792487, Note_on_c, 0, 40, 53
1, 792515, Note_off_c, 0, 40, 57
1, 792556, Control_c, 0, 64, 41
1, 792569, Note_on_c, 0, 38, 48
1, 792586, Control_c, 0, 64, 40
1, 792590, Note_on_c, 0, 66, 48
1, 792600, Note_off_c, 0, 38, 54
1, 792601, Control_c, 0, 64, 40
1, 792616, Control_c, 0, 64, 38
1, 792630, Control_c, 0, 64, 38
1, 792645, Control_c, 0, 64, 37
1, 792668, Control_c, 0, 64, 36
1, 792799, Note_on_c, 0, 39, 41
1, 792804, Note_on_c, 0, 75, 48
1, 792814, Note_on_c, 0, 71, 38
1, 792831, Note_off_c, 0, 39, 57
1, 792869, Note_off_c, 0, 78, 55
1, 792876, Control_c, 0, 64, 37
1, 792899, Note_off_c, 0, 66, 59
1, 792900, Note_off_c, 0, 75, 60
1, 792905, Control_c, 0, 64, 38
1, 792910, Note_off_c, 0, 71, 63
1, 792935, Control_c, 0, 64, 38
1, 793038, Note_on_c, 0, 73, 67
1, 793114, Note_on_c, 0, 42, 60
1, 793143, Note_off_c, 0, 42, 64
1, 793195, Note_on_c, 0, 39, 57
1, 793201, Control_c, 0, 67, 123
1, 793216, Control_c, 0, 67, 115
1, 793217, Note_on_c, 0, 61, 53
1, 793222, Note_off_c, 0, 39, 57
1, 793231, Control_c, 0, 67, 102
1, 793246, Control_c, 0, 64, 39
1, 793246, Control_c, 0, 67, 89
1, 793261, Control_c, 0, 67, 74
1, 793276, Control_c, 0, 67, 60
1, 793291, Control_c, 0, 67, 49
1, 793305, Control_c, 0, 64, 40
1, 793305, Control_c, 0, 67, 39
1, 793320, Control_c, 0, 64, 40
1, 793320, Control_c, 0, 67, 31
1, 793335, Control_c, 0, 64, 41
1, 793335, Control_c, 0, 67, 25
1, 793350, Control_c, 0, 67, 21
1, 793365, Control_c, 0, 67, 19
1, 793379, Control_c, 0, 64, 42
1, 793379, Control_c, 0, 67, 18
1, 793394, Control_c, 0, 64, 42
1, 793416, Control_c, 0, 64, 43
1, 793420, Note_on_c, 0, 40, 49
1, 793431, Control_c, 0, 64, 43
1, 793445, Note_on_c, 0, 66, 50
1, 793445, Note_on_c, 0, 70, 52
1, 793446, Control_c, 0, 64, 44
1, 793451, Note_off_c, 0, 40, 53
1, 793460, Control_c, 0, 64, 45
1, 793475, Control_c, 0, 64, 47
1, 793490, Control_c, 0, 64, 48
1, 793495, Note_off_c, 0, 61, 61
1, 793505, Control_c, 0, 64, 49
1, 793505, Control_c, 0, 67, 19
1, 793520, Control_c, 0, 64, 50
1, 793520, Control_c, 0, 67, 19
1, 793532, Note_off_c, 0, 66, 63
1, 793535, Control_c, 0, 64, 51
1, 793535, Control_c, 0, 67, 20
1, 793550, Control_c, 0, 64, 52
1, 793550, Control_c, 0, 67, 21
1, 793558, Note_off_c, 0, 73, 63
1, 793562, Note_off_c, 0, 70, 64
1, 793565, Control_c, 0, 64, 52
1, 793565, Control_c, 0, 67, 21
1, 793580, Control_c, 0, 64, 53
1, 793580, Control_c, 0, 67, 22
1, 793595, Control_c, 0, 67, 23
1, 793609, Control_c, 0, 64, 53
1, 793624, Control_c, 0, 67, 23
1, 793654, Control_c, 0, 67, 24
1, 793674, Note_on_c, 0, 78, 63
1, 793684, Control_c, 0, 67, 24
1, 793699, Control_c, 0, 67, 25
1, 793729, Control_c, 0, 67, 25
1, 793759, Control_c, 0, 67, 26
1, 793770, Note_on_c, 0, 40, 48
1, 793773, Control_c, 0, 64, 53
1, 793773, Control_c, 0, 67, 26
1, 793788, Control_c, 0, 67, 27
1, 793800, Note_off_c, 0, 40, 56
1, 793803, Control_c, 0, 64, 52
1, 793803, Control_c, 0, 67, 27
1, 793818, Control_c, 0, 64, 52
1, 793818, Control_c, 0, 67, 28
1, 793833, Control_c, 0, 64, 51
1, 793833, Control_c, 0, 67, 29
1, 793847, Control_c, 0, 64, 51
1, 793847, Control_c, 0, 67, 29
1, 793862, Control_c, 0, 67, 30
1, 793866, Note_on_c, 0, 38, 50
1, 793877, Control_c, 0, 67, 31
1, 793892, Note_on_c, 0, 66, 41
1, 793892, Control_c, 0, 64, 50
1, 793892, Control_c, 0, 67, 33
1, 793897, Note_off_c, 0, 38, 53
1, 793907, Control_c, 0, 64, 50
1, 793907, Control_c, 0, 67, 36
1, 793921, Control_c, 0, 67, 40
1, 793936, Control_c, 0, 67, 44
1, 793951, Control_c, 0, 67, 47
1, 793966, Control_c, 0, 64, 49
1, 793966, Control_c, 0, 67, 50
1, 793981, Control_c, 0, 67, 54
1, 793995, Control_c, 0, 67, 57
1, 794010, Control_c, 0, 64, 49
1, 794010, Control_c, 0, 67, 61
1, 794025, Control_c, 0, 67, 66
1, 794040, Control_c, 0, 67, 69
1, 794054, Control_c, 0, 67, 73
1, 794069, Control_c, 0, 67, 77
1, 794084, Control_c, 0, 67, 82
1, 794099, Control_c, 0, 67, 86
1, 794114, Control_c, 0, 67, 89
1, 794128, Control_c, 0, 67, 94
1, 794143, Control_c, 0, 64, 48
1, 794143, Control_c, 0, 67, 99
1, 794166, Control_c, 0, 64, 48
1, 794166, Control_c, 0, 67, 105
1, 794167, Note_on_c, 0, 39, 38
1, 794170, Note_on_c, 0, 75, 43
1, 794176, Note_on_c, 0, 71, 38
1, 794181, Control_c, 0, 67, 110
1, 794196, Control_c, 0, 67, 115
1, 794200, Note_off_c, 0, 39, 54
1, 794210, Control_c, 0, 67, 120
1, 794225, Control_c, 0, 64, 47
1, 794225, Control_c, 0, 67, 125
1, 794228, Note_off_c, 0, 78, 51
1, 794240, Control_c, 0, 67, 127
1, 794286, Note_off_c, 0, 75, 60
1, 794294, Note_off_c, 0, 71, 63
1, 794307, Note_off_c, 0, 66, 38
1, 794510, Note_on_c, 0, 61, 55
1, 794602, Note_on_c, 0, 42, 39
1, 794639, Note_off_c, 0, 42, 51
1, 794640, Control_c, 0, 64, 48
1, 794678, Note_on_c, 0, 39, 52
1, 794694, Note_on_c, 0, 54, 47
1, 794708, Note_off_c, 0, 39, 56
1, 794773, Control_c, 0, 64, 48
1, 794832, Control_c, 0, 64, 49
1, 794915, Note_on_c, 0, 40, 50
1, 794927, Note_on_c, 0, 58, 50
1, 794943, Note_off_c, 0, 40, 58
1, 795141, Note_on_c, 0, 66, 68
1, 795151, Control_c, 0, 64, 48
1, 795157, Note_off_c, 0, 54, 58
1, 795166, Control_c, 0, 64, 47
1, 795181, Control_c, 0, 64, 47
1, 795244, Note_on_c, 0, 40, 53
1, 795270, Control_c, 0, 64, 48
1, 795273, Note_off_c, 0, 40, 59
1, 795285, Control_c, 0, 64, 50
1, 795300, Control_c, 0, 64, 53
1, 795315, Control_c, 0, 64, 55
1, 795320, Note_on_c, 0, 54, 43
1, 795329, Control_c, 0, 64, 58
1, 795335, Note_on_c, 0, 38, 51
1, 795344, Control_c, 0, 64, 59
1, 795357, Note_off_c, 0, 58, 54
1, 795359, Control_c, 0, 64, 59
1, 795363, Note_off_c, 0, 38, 57
1, 795371, Note_off_c, 0, 61, 56
1, 795374, Control_c, 0, 64, 60
1, 795389, Control_c, 0, 64, 60
1, 795404, Control_c, 0, 64, 61
1, 795419, Control_c, 0, 64, 63
1, 795434, Control_c, 0, 64, 65
1, 795448, Control_c, 0, 64, 67
1, 795463, Control_c, 0, 64, 68
1, 795478, Control_c, 0, 64, 69
1, 795493, Control_c, 0, 64, 71
1, 795507, Control_c, 0, 64, 71
1, 795522, Control_c, 0, 64, 72
1, 795524, Note_on_c, 0, 39, 48
1, 795537, Control_c, 0, 64, 73
1, 795544, Note_on_c, 0, 60, 43
1, 795552, Control_c, 0, 64, 74
1, 795554, Note_off_c, 0, 39, 56
1, 795562, Poly_aftertouch_c, 0, 58, 127
1, 795581, Control_c, 0, 64, 74
1, 795589, Note_off_c, 0, 66, 61
1, 795611, Control_c, 0, 64, 75
1, 795625, Control_c, 0, 64, 75
1, 795640, Control_c, 0, 64, 76
1, 795678, Control_c, 0, 64, 76
1, 795693, Control_c, 0, 64, 77
1, 795736, Note_on_c, 0, 65, 67
1, 795737, Control_c, 0, 64, 76
1, 795738, Note_off_c, 0, 54, 51
1, 795752, Control_c, 0, 64, 74
1, 795767, Control_c, 0, 64, 68
1, 795771, Poly_aftertouch_c, 0, 58, 0
1, 795781, Note_off_c, 0, 60, 56
1, 795781, Control_c, 0, 64, 49
1, 795796, Control_c, 0, 64, 0
1, 795843, Note_on_c, 0, 42, 60
1, 795873, Note_off_c, 0, 42, 64
1, 795930, Note_on_c, 0, 40, 55
1, 795941, Note_on_c, 0, 51, 55
1, 795957, Note_off_c, 0, 40, 57
1, 796074, Note_off_c, 0, 51, 62
1, 796122, Control_c, 0, 64, 14
1, 796131, Note_on_c, 0, 41, 50
1, 796137, Control_c, 0, 64, 69
1, 796147, Note_on_c, 0, 60, 25
1, 796152, Control_c, 0, 64, 77
1, 796161, Note_off_c, 0, 41, 61
1, 796167, Note_off_c, 0, 65, 65
1, 796167, Control_c, 0, 64, 91
1, 796182, Control_c, 0, 64, 127
1, 796183, Note_off_c, 0, 60, 46
1, 796353, Note_on_c, 0, 34, 52
1, 796360, Control_c, 0, 64, 102
1, 796364, Note_on_c, 0, 94, 59
1, 796375, Control_c, 0, 64, 72
1, 796376, Note_on_c, 0, 82, 44
1, 796390, Control_c, 0, 64, 0
1, 796441, Control_c, 0, 64, 50
1, 796448, Note_off_c, 0, 82, 37
1, 796456, Control_c, 0, 64, 67
1, 796463, Note_on_c, 0, 89, 65
1, 796471, Control_c, 0, 64, 77
1, 796477, Note_off_c, 0, 94, 59
1, 796486, Control_c, 0, 64, 95
1, 796501, Control_c, 0, 64, 127
1, 796552, Note_on_c, 0, 85, 69
1, 796581, Note_off_c, 0, 89, 56
1, 796591, Note_off_c, 0, 34, 56
1, 796617, Note_off_c, 0, 85, 62
1, 796626, Note_on_c, 0, 82, 71
1, 796648, Note_off_c, 0, 82, 70
1, 796648, Control_c, 0, 67, 125
1, 796663, Control_c, 0, 67, 124
1, 796678, Control_c, 0, 67, 123
1, 796733, Note_on_c, 0, 70, 70
1, 796758, Note_off_c, 0, 70, 67
1, 796798, Control_c, 0, 67, 124
1, 796813, Control_c, 0, 67, 124
1, 796842, Control_c, 0, 67, 125
1, 796871, Control_c, 0, 67, 125
1, 796901, Control_c, 0, 67, 126
1, 796931, Control_c, 0, 67, 126
1, 796945, Note_on_c, 0, 34, 56
1, 796947, Note_on_c, 0, 46, 54
1, 796960, Control_c, 0, 67, 127
1, 796975, Control_c, 0, 64, 96
1, 796990, Control_c, 0, 64, 76
1, 797005, Control_c, 0, 64, 60
1, 797020, Control_c, 0, 64, 0
1, 797035, Control_c, 0, 67, 126
1, 797049, Control_c, 0, 64, 45
1, 797049, Control_c, 0, 67, 126
1, 797064, Control_c, 0, 64, 63
1, 797064, Control_c, 0, 67, 125
1, 797079, Control_c, 0, 64, 68
1, 797079, Control_c, 0, 67, 124
1, 797094, Control_c, 0, 64, 75
1, 797094, Control_c, 0, 67, 123
1, 797109, Control_c, 0, 64, 84
1, 797109, Control_c, 0, 67, 122
1, 797124, Control_c, 0, 64, 96
1, 797124, Control_c, 0, 67, 120
1, 797139, Control_c, 0, 64, 114
1, 797139, Control_c, 0, 67, 117
1, 797160, Control_c, 0, 64, 127
1, 797160, Control_c, 0, 67, 113
1, 797175, Control_c, 0, 67, 108
1, 797190, Control_c, 0, 67, 104
1, 797205, Control_c, 0, 67, 102
1, 797220, Control_c, 0, 67, 101
1, 797247, Note_off_c, 0, 46, 60
1, 797249, Note_off_c, 0, 34, 38
1, 797339, Control_c, 0, 67, 102
1, 797368, Control_c, 0, 67, 102
1, 797383, Control_c, 0, 67, 103
1, 797397, Control_c, 0, 67, 104
1, 797405, Note_on_c, 0, 47, 41
1, 797406, Note_on_c, 0, 35, 38
1, 797412, Control_c, 0, 67, 104
1, 797427, Control_c, 0, 67, 105
1, 797442, Control_c, 0, 64, 103
1, 797442, Control_c, 0, 67, 105
1, 797457, Control_c, 0, 64, 84
1, 797457, Control_c, 0, 67, 106
1, 797472, Control_c, 0, 64, 69
1, 797472, Control_c, 0, 67, 106
1, 797487, Control_c, 0, 64, 45
1, 797487, Control_c, 0, 67, 107
1, 797502, Control_c, 0, 64, 0
1, 797502, Control_c, 0, 67, 107
1, 797532, Control_c, 0, 67, 108
1, 797546, Control_c, 0, 67, 108
1, 797592, Control_c, 0, 64, 38
1, 797607, Control_c, 0, 64, 57
1, 797621, Control_c, 0, 64, 65
1, 797629, Note_on_c, 0, 92, 64
1, 797636, Control_c, 0, 64, 69
1, 797636, Control_c, 0, 67, 108
1, 797651, Control_c, 0, 64, 74
1, 797651, Control_c, 0, 67, 107
1, 797666, Control_c, 0, 64, 80
1, 797681, Control_c, 0, 64, 89
1, 797681, Control_c, 0, 67, 107
1, 797695, Control_c, 0, 64, 101
1, 797695, Control_c, 0, 67, 106
1, 797710, Control_c, 0, 64, 127
1, 797717, Note_off_c, 0, 92, 59
1, 797718, Note_on_c, 0, 87, 63
1, 797725, Control_c, 0, 67, 106
1, 797740, Control_c, 0, 67, 105
1, 797769, Control_c, 0, 67, 105
1, 797797, Note_on_c, 0, 83, 70
1, 797803, Note_off_c, 0, 87, 59
1, 797814, Control_c, 0, 67, 104
1, 797857, Note_off_c, 0, 83, 64
1, 797858, Control_c, 0, 67, 104
1, 797879, Note_on_c, 0, 80, 60
1, 797901, Note_off_c, 0, 47, 51
1, 797904, Note_off_c, 0, 80, 66
1, 797932, Note_off_c, 0, 35, 42
1, 797940, Control_c, 0, 67, 104
1, 797970, Control_c, 0, 67, 105
1, 797991, Note_on_c, 0, 68, 67
1, 798018, Note_off_c, 0, 68, 66
1, 798162, Control_c, 0, 67, 105
1, 798176, Control_c, 0, 67, 106
1, 798199, Note_on_c, 0, 47, 58
1, 798203, Note_on_c, 0, 35, 56
1, 798206, Control_c, 0, 67, 106
1, 798221, Control_c, 0, 67, 107
1, 798236, Control_c, 0, 64, 91
1, 798251, Control_c, 0, 64, 72
1, 798266, Control_c, 0, 64, 36
1, 798281, Control_c, 0, 64, 0
1, 798310, Control_c, 0, 67, 106
1, 798325, Control_c, 0, 67, 106
1, 798340, Control_c, 0, 64, 44
1, 798340, Control_c, 0, 67, 105
1, 798355, Control_c, 0, 64, 64
1, 798370, Control_c, 0, 64, 71
1, 798370, Control_c, 0, 67, 105
1, 798385, Control_c, 0, 64, 78
1, 798385, Control_c, 0, 67, 104
1, 798400, Control_c, 0, 64, 87
1, 798415, Control_c, 0, 64, 98
1, 798430, Control_c, 0, 64, 111
1, 798444, Control_c, 0, 64, 127
1, 798486, Note_off_c, 0, 47, 64
1, 798523, Note_off_c, 0, 35, 52
1, 798592, Control_c, 0, 67, 105
1, 798622, Control_c, 0, 67, 105
1, 798653, Note_on_c, 0, 48, 54
1, 798665, Note_on_c, 0, 36, 43
1, 798674, Control_c, 0, 67, 106
1, 798689, Control_c, 0, 64, 110
1, 798704, Control_c, 0, 64, 90
1, 798719, Control_c, 0, 64, 75
1, 798733, Control_c, 0, 64, 62
1, 798748, Control_c, 0, 64, 0
1, 798763, Control_c, 0, 67, 106
1, 798886, Note_on_c, 0, 90, 60
1, 798896, Control_c, 0, 64, 49
1, 798911, Control_c, 0, 64, 65
1, 798925, Control_c, 0, 64, 72
1, 798940, Control_c, 0, 64, 80
1, 798955, Control_c, 0, 64, 93
1, 798960, Note_on_c, 0, 87, 65
1, 798970, Control_c, 0, 64, 112
1, 798972, Note_off_c, 0, 90, 56
1, 798984, Control_c, 0, 64, 127
1, 798984, Control_c, 0, 67, 106
1, 799014, Control_c, 0, 67, 106
1, 799023, Note_off_c, 0, 87, 60
1, 799051, Note_on_c, 0, 80, 68
1, 799058, Control_c, 0, 67, 107
1, 799073, Control_c, 0, 67, 107
1, 799096, Note_off_c, 0, 48, 63
1, 799103, Note_off_c, 0, 80, 62
1, 799103, Control_c, 0, 67, 108
1, 799134, Note_on_c, 0, 78, 46
1, 799139, Note_off_c, 0, 36, 40
1, 799147, Control_c, 0, 67, 108
1, 799160, Note_off_c, 0, 78, 59
1, 799193, Control_c, 0, 67, 109
1, 799224, Note_on_c, 0, 66, 70
1, 799253, Note_off_c, 0, 66, 64
1, 799311, Control_c, 0, 67, 108
1, 799340, Control_c, 0, 67, 108
1, 799429, Note_on_c, 0, 48, 57
1, 799431, Note_on_c, 0, 36, 57
1, 799466, Control_c, 0, 64, 108
1, 799481, Control_c, 0, 64, 82
1, 799496, Control_c, 0, 64, 63
1, 799511, Control_c, 0, 64, 0
1, 799511, Control_c, 0, 67, 107
1, 799555, Control_c, 0, 64, 42
1, 799570, Control_c, 0, 64, 64
1, 799570, Control_c, 0, 67, 107
1, 799585, Control_c, 0, 64, 71
1, 799600, Control_c, 0, 64, 80
1, 799615, Control_c, 0, 64, 93
1, 799629, Control_c, 0, 64, 107
1, 799644, Control_c, 0, 64, 127
1, 799661, Note_off_c, 0, 48, 64
1, 799688, Control_c, 0, 67, 107
1, 799703, Control_c, 0, 67, 108
1, 799718, Control_c, 0, 67, 110
1, 799733, Control_c, 0, 67, 112
1, 799747, Control_c, 0, 67, 114
1, 799762, Control_c, 0, 67, 117
1, 799777, Control_c, 0, 67, 124
1, 799792, Control_c, 0, 67, 127
1, 799847, Note_off_c, 0, 36, 57
1, 799852, Control_c, 0, 64, 107
1, 799866, Control_c, 0, 64, 82
1, 799872, Note_on_c, 0, 37, 45
1, 799877, Note_on_c, 0, 49, 40
1, 799881, Control_c, 0, 64, 63
1, 799896, Control_c, 0, 64, 0
1, 800089, Control_c, 0, 64, 60
1, 800091, Note_on_c, 0, 89, 59
1, 800104, Control_c, 0, 64, 69
1, 800119, Control_c, 0, 64, 78
1, 800134, Control_c, 0, 64, 93
1, 800156, Control_c, 0, 64, 127
1, 800162, Note_off_c, 0, 37, 50
1, 800165, Note_off_c, 0, 49, 54
1, 800173, Note_off_c, 0, 89, 58
1, 800186, Note_on_c, 0, 85, 62
1, 800245, Note_off_c, 0, 85, 56
1, 800275, Note_on_c, 0, 80, 62
1, 800318, Note_off_c, 0, 80, 61
1, 800362, Note_on_c, 0, 77, 51
1, 800394, Note_off_c, 0, 77, 65
1, 800462, Note_on_c, 0, 53, 50
1, 800463, Note_on_c, 0, 41, 49
1, 800470, Note_on_c, 0, 73, 49
1, 800483, Control_c, 0, 64, 110
1, 800489, Note_off_c, 0, 53, 59
1, 800492, Note_off_c, 0, 73, 60
1, 800495, Note_off_c, 0, 41, 51
1, 800497, Control_c, 0, 64, 86
1, 800512, Control_c, 0, 64, 70
1, 800527, Control_c, 0, 64, 42
1, 800542, Control_c, 0, 64, 0
1, 800660, Control_c, 0, 64, 40
1, 800675, Control_c, 0, 64, 63
1, 800689, Control_c, 0, 64, 69
1, 800692, Note_on_c, 0, 56, 47
1, 800692, Note_on_c, 0, 44, 44
1, 800693, Note_on_c, 0, 87, 56
1, 800704, Control_c, 0, 64, 75
1, 800719, Control_c, 0, 64, 84
1, 800734, Control_c, 0, 64, 96
1, 800749, Control_c, 0, 64, 127
1, 800782, Note_on_c, 0, 84, 58
1, 800785, Note_off_c, 0, 87, 55
1, 800812, Note_off_c, 0, 56, 62
1, 800814, Note_off_c, 0, 44, 63
1, 800860, Note_off_c, 0, 84, 58
1, 800874, Note_on_c, 0, 80, 61
1, 800917, Note_off_c, 0, 80, 61
1, 800959, Note_on_c, 0, 75, 57
1, 800987, Note_off_c, 0, 75, 66
1, 801060, Note_on_c, 0, 60, 55
1, 801065, Note_on_c, 0, 72, 60
1, 801067, Note_on_c, 0, 48, 56
1, 801083, Note_off_c, 0, 60, 62
1, 801083, Note_off_c, 0, 72, 66
1, 801097, Note_off_c, 0, 48, 64
1, 801157, Control_c, 0, 64, 98
1, 801172, Control_c, 0, 64, 78
1, 801187, Control_c, 0, 64, 62
1, 801202, Control_c, 0, 64, 0
1, 801288, Note_on_c, 0, 51, 47
1, 801288, Note_on_c, 0, 90, 65
1, 801300, Note_on_c, 0, 39, 45
1, 801304, Control_c, 0, 64, 59
1, 801318, Control_c, 0, 64, 67
1, 801333, Control_c, 0, 64, 73
1, 801348, Control_c, 0, 64, 82
1, 801363, Control_c, 0, 64, 94
1, 801372, Note_on_c, 0, 87, 66
1, 801378, Control_c, 0, 64, 112
1, 801384, Note_off_c, 0, 90, 54
1, 801393, Control_c, 0, 64, 127
1, 801449, Note_off_c, 0, 51, 63
1, 801454, Note_off_c, 0, 87, 60
1, 801461, Note_on_c, 0, 82, 65
1, 801494, Note_off_c, 0, 39, 38
1, 801506, Note_off_c, 0, 82, 59
1, 801547, Note_on_c, 0, 78, 58
1, 801589, Note_off_c, 0, 78, 59
1, 801654, Note_on_c, 0, 42, 57
1, 801657, Note_on_c, 0, 75, 62
1, 801663, Note_on_c, 0, 54, 57
1, 801683, Note_off_c, 0, 75, 66
1, 801691, Note_off_c, 0, 54, 66
1, 801693, Note_off_c, 0, 42, 61
1, 801697, Control_c, 0, 64, 95
1, 801712, Control_c, 0, 64, 78
1, 801727, Control_c, 0, 64, 65
1, 801741, Control_c, 0, 64, 0
1, 801861, Control_c, 0, 64, 24
1, 801875, Control_c, 0, 64, 60
1, 801883, Note_on_c, 0, 87, 61
1, 801887, Note_on_c, 0, 44, 47
1, 801890, Control_c, 0, 64, 69
1, 801893, Note_on_c, 0, 56, 44
1, 801905, Control_c, 0, 64, 76
1, 801920, Control_c, 0, 64, 86
1, 801935, Control_c, 0, 64, 100
1, 801949, Control_c, 0, 64, 127
1, 801970, Note_off_c, 0, 87, 59
1, 801975, Note_on_c, 0, 83, 57
1, 801992, Note_off_c, 0, 56, 62
1, 802004, Note_off_c, 0, 44, 62
1, 802055, Note_off_c, 0, 83, 62
1, 802069, Note_on_c, 0, 80, 58
1, 802099, Note_off_c, 0, 80, 65
1, 802144, Note_on_c, 0, 75, 52
1, 802169, Note_off_c, 0, 75, 64
1, 802260, Note_on_c, 0, 59, 52
1, 802266, Note_on_c, 0, 47, 61
1, 802270, Note_on_c, 0, 71, 47
1, 802284, Note_off_c, 0, 59, 58
1, 802292, Note_off_c, 0, 47, 66
1, 802293, Note_off_c, 0, 71, 61
1, 802320, Control_c, 0, 64, 99
1, 802334, Control_c, 0, 64, 79
1, 802349, Control_c, 0, 64, 64
1, 802364, Control_c, 0, 64, 0
1, 802476, Control_c, 0, 64, 44
1, 802490, Control_c, 0, 64, 63
1, 802505, Control_c, 0, 64, 68
1, 802512, Note_on_c, 0, 52, 44
1, 802517, Note_on_c, 0, 40, 43
1, 802518, Note_on_c, 0, 92, 66
1, 802520, Control_c, 0, 64, 76
1, 802535, Control_c, 0, 64, 86
1, 802550, Control_c, 0, 64, 101
1, 802564, Control_c, 0, 64, 127
1, 802592, Note_on_c, 0, 88, 63
1, 802615, Note_off_c, 0, 92, 58
1, 802660, Note_off_c, 0, 52, 62
1, 802682, Note_off_c, 0, 40, 42
1, 802689, Note_on_c, 0, 83, 68
1, 802690, Note_off_c, 0, 88, 59
1, 802746, Note_off_c, 0, 83, 65
1, 802768, Note_on_c, 0, 80, 67
1, 802791, Note_off_c, 0, 80, 69
1, 802894, Note_on_c, 0, 44, 61
1, 802895, Note_on_c, 0, 76, 67
1, 802898, Note_on_c, 0, 56, 63
1, 802922, Note_off_c, 0, 76, 65
1, 802924, Note_off_c, 0, 56, 66
1, 802926, Note_off_c, 0, 44, 65
1, 802935, Control_c, 0, 64, 90
1, 802950, Control_c, 0, 64, 73
1, 802964, Control_c, 0, 64, 56
1, 802979, Control_c, 0, 64, 0
1, 803113, Control_c, 0, 64, 59
1, 803128, Control_c, 0, 64, 70
1, 803131, Note_on_c, 0, 90, 67
1, 803144, Note_on_c, 0, 47, 53
1, 803145, Note_on_c, 0, 59, 52
1, 803150, Control_c, 0, 64, 78
1, 803166, Control_c, 0, 64, 89
1, 803181, Control_c, 0, 64, 103
1, 803195, Control_c, 0, 64, 127
1, 803233, Note_on_c, 0, 87, 70
1, 803247, Note_off_c, 0, 47, 64
1, 803256, Note_off_c, 0, 90, 59
1, 803262, Note_off_c, 0, 59, 60
1, 803321, Note_on_c, 0, 83, 67
1, 803328, Note_off_c, 0, 87, 60
1, 803371, Note_off_c, 0, 83, 64
1, 803406, Note_on_c, 0, 78, 59
1, 803446, Note_off_c, 0, 78, 56
1, 803504, Note_on_c, 0, 51, 65
1, 803507, Note_on_c, 0, 63, 52
1, 803531, Note_off_c, 0, 63, 59
1, 803540, Note_off_c, 0, 51, 67
1, 803596, Control_c, 0, 64, 99
1, 803610, Control_c, 0, 64, 75
1, 803625, Control_c, 0, 64, 45
1, 803640, Control_c, 0, 64, 0
1, 803728, Note_on_c, 0, 42, 61
1, 803739, Note_on_c, 0, 54, 51
1, 803744, Control_c, 0, 64, 52
1, 803758, Control_c, 0, 64, 67
1, 803768, Note_on_c, 0, 95, 20
1, 803773, Control_c, 0, 64, 75
1, 803774, Note_on_c, 0, 93, 46
1, 803788, Control_c, 0, 64, 87
1, 803803, Control_c, 0, 64, 103
1, 803808, Note_off_c, 0, 95, 50
1, 803818, Control_c, 0, 64, 127
1, 803838, Note_on_c, 0, 90, 29
1, 803839, Note_off_c, 0, 90, 127
1, 803846, Note_on_c, 0, 89, 67
1, 803846, Note_off_c, 0, 54, 64
1, 803848, Note_off_c, 0, 93, 39
1, 803860, Note_off_c, 0, 42, 63
1, 803908, Note_off_c, 0, 89, 52
1, 803919, Note_on_c, 0, 85, 62
1, 803975, Note_off_c, 0, 85, 65
1, 803997, Note_on_c, 0, 81, 63
1, 804052, Note_off_c, 0, 81, 63
1, 804088, Note_on_c, 0, 57, 67
1, 804094, Note_on_c, 0, 45, 61
1, 804099, Note_on_c, 0, 78, 70
1, 804108, Control_c, 0, 64, 123
1, 804116, Note_off_c, 0, 78, 69
1, 804117, Note_off_c, 0, 57, 66
1, 804120, Note_off_c, 0, 45, 63
1, 804123, Control_c, 0, 64, 88
1, 804137, Control_c, 0, 64, 69
1, 804152, Control_c, 0, 64, 32
1, 804167, Control_c, 0, 64, 0
1, 804270, Control_c, 0, 64, 31
1, 804285, Control_c, 0, 64, 58
1, 804300, Control_c, 0, 64, 67
1, 804315, Control_c, 0, 64, 75
1, 804322, Note_on_c, 0, 90, 66
1, 804330, Control_c, 0, 64, 87
1, 804333, Note_on_c, 0, 47, 56
1, 804335, Note_on_c, 0, 59, 54
1, 804344, Control_c, 0, 64, 109
1, 804359, Control_c, 0, 64, 127
1, 804406, Note_on_c, 0, 86, 71
1, 804406, Note_off_c, 0, 90, 63
1, 804434, Note_off_c, 0, 47, 63
1, 804435, Note_off_c, 0, 59, 59
1, 804487, Note_off_c, 0, 86, 64
1, 804504, Note_on_c, 0, 83, 64
1, 804546, Note_off_c, 0, 83, 63
1, 804573, Note_on_c, 0, 78, 62
1, 804597, Note_off_c, 0, 78, 67
1, 804692, Note_on_c, 0, 74, 66
1, 804698, Note_on_c, 0, 62, 55
1, 804699, Note_on_c, 0, 50, 65
1, 804710, Note_off_c, 0, 74, 67
1, 804721, Note_off_c, 0, 62, 59
1, 804731, Note_off_c, 0, 50, 67
1, 804752, Control_c, 0, 64, 93
1, 804767, Control_c, 0, 64, 72
1, 804782, Control_c, 0, 64, 0
1, 804901, Control_c, 0, 64, 61
1, 804901, Note_on_c, 0, 95, 76
1, 804916, Control_c, 0, 64, 68
1, 804916, Note_on_c, 0, 43, 55
1, 804923, Note_on_c, 0, 55, 50
1, 804931, Control_c, 0, 64, 78
1, 804946, Control_c, 0, 64, 90
1, 804960, Control_c, 0, 64, 113
1, 804974, Control_c, 0, 64, 127
1, 804994, Note_on_c, 0, 89, 75
1, 805019, Note_off_c, 0, 95, 53
1, 805047, Note_off_c, 0, 43, 61
1, 805048, Control_c, 0, 67, 120
1, 805052, Note_off_c, 0, 55, 65
1, 805063, Control_c, 0, 67, 111
1, 805078, Control_c, 0, 67, 102
1, 805081, Note_on_c, 0, 86, 81
1, 805092, Control_c, 0, 67, 90
1, 805101, Note_off_c, 0, 89, 59
1, 805107, Control_c, 0, 67, 77
1, 805122, Control_c, 0, 67, 67
1, 805137, Control_c, 0, 67, 58
1, 805140, Note_off_c, 0, 86, 66
1, 805152, Note_on_c, 0, 83, 70
1, 805152, Control_c, 0, 67, 52
1, 805166, Control_c, 0, 67, 46
1, 805181, Note_off_c, 0, 83, 66
1, 805181, Control_c, 0, 67, 42
1, 805196, Control_c, 0, 67, 39
1, 805211, Control_c, 0, 67, 37
1, 805226, Control_c, 0, 67, 36
1, 805259, Note_on_c, 0, 77, 65
1, 805261, Note_on_c, 0, 59, 68
1, 805265, Note_on_c, 0, 47, 73
1, 805277, Note_off_c, 0, 77, 67
1, 805286, Note_off_c, 0, 59, 67
1, 805295, Note_off_c, 0, 47, 67
1, 805300, Control_c, 0, 67, 38
1, 805315, Control_c, 0, 67, 38
1, 805330, Control_c, 0, 64, 92
1, 805330, Control_c, 0, 67, 39
1, 805345, Control_c, 0, 64, 71
1, 805345, Control_c, 0, 67, 40
1, 805359, Control_c, 0, 64, 0
1, 805359, Control_c, 0, 67, 40
1, 805396, Control_c, 0, 67, 41
1, 805471, Control_c, 0, 64, 51
1, 805482, Note_on_c, 0, 96, 84
1, 805485, Control_c, 0, 64, 67
1, 805485, Note_on_c, 0, 55, 65
1, 805487, Note_on_c, 0, 43, 65
1, 805500, Control_c, 0, 64, 77
1, 805515, Control_c, 0, 64, 98
1, 805530, Control_c, 0, 64, 127
1, 805530, Control_c, 0, 67, 40
1, 805545, Control_c, 0, 67, 39
1, 805560, Control_c, 0, 67, 38
1, 805575, Control_c, 0, 67, 37
1, 805576, Note_on_c, 0, 91, 86
1, 805590, Control_c, 0, 67, 36
1, 805593, Note_off_c, 0, 96, 61
1, 805605, Control_c, 0, 67, 33
1, 805620, Control_c, 0, 67, 27
1, 805633, Note_off_c, 0, 55, 65
1, 805634, Control_c, 0, 67, 18
1, 805637, Note_off_c, 0, 43, 63
1, 805649, Control_c, 0, 67, 0
1, 805665, Note_on_c, 0, 88, 91
1, 805698, Note_off_c, 0, 91, 65
1, 805739, Note_off_c, 0, 88, 65
1, 805745, Note_on_c, 0, 84, 78
1, 805778, Note_off_c, 0, 84, 61
1, 805842, Note_on_c, 0, 60, 79
1, 805846, Note_on_c, 0, 76, 81
1, 805846, Note_on_c, 0, 48, 85
1, 805863, Note_off_c, 0, 60, 70
1, 805867, Note_off_c, 0, 76, 70
1, 805876, Note_off_c, 0, 48, 66
1, 805901, Control_c, 0, 64, 108
1, 805915, Control_c, 0, 64, 78
1, 805930, Control_c, 0, 64, 14
1, 805945, Control_c, 0, 64, 0
1, 806019, Control_c, 0, 64, 58
1, 806034, Control_c, 0, 64, 73
1, 806049, Control_c, 0, 64, 94
1, 806058, Note_on_c, 0, 43, 74
1, 806059, Note_on_c, 0, 55, 75
1, 806059, Note_on_c, 0, 97, 89
1, 806064, Control_c, 0, 64, 127
1, 806098, Note_off_c, 0, 55, 63
1, 806104, Note_off_c, 0, 43, 62
1, 806150, Note_on_c, 0, 94, 87
1, 806226, Note_off_c, 0, 97, 63
1, 806239, Note_on_c, 0, 87, 94
1, 806258, Note_off_c, 0, 94, 63
1, 806314, Note_off_c, 0, 87, 67
1, 806318, Note_on_c, 0, 85, 73
1, 806340, Note_off_c, 0, 85, 70
1, 806413, Note_on_c, 0, 49, 84
1, 806414, Note_on_c, 0, 61, 78
1, 806417, Note_on_c, 0, 75, 82
1, 806434, Note_off_c, 0, 75, 73
1, 806437, Note_off_c, 0, 61, 66
1, 806445, Note_off_c, 0, 49, 66
1, 806532, Control_c, 0, 64, 93
1, 806547, Control_c, 0, 64, 48
1, 806562, Control_c, 0, 64, 0
1, 806621, Control_c, 0, 64, 65
1, 806633, Note_on_c, 0, 98, 100
1, 806635, Note_on_c, 0, 55, 88
1, 806636, Control_c, 0, 64, 90
1, 806639, Note_on_c, 0, 43, 83
1, 806651, Control_c, 0, 64, 127
1, 806670, Note_off_c, 0, 43, 67
1, 806675, Note_off_c, 0, 55, 66
1, 806720, Note_on_c, 0, 95, 96
1, 806752, Note_off_c, 0, 98, 64
1, 806811, Note_on_c, 0, 89, 94
1, 806835, Note_off_c, 0, 95, 64
1, 806892, Note_off_c, 0, 89, 66
1, 806893, Note_on_c, 0, 86, 81
1, 806919, Note_off_c, 0, 86, 66
1, 806994, Note_on_c, 0, 50, 89
1, 806997, Note_on_c, 0, 62, 77
1, 807000, Note_on_c, 0, 74, 95
1, 807016, Note_off_c, 0, 74, 75
1, 807020, Note_off_c, 0, 50, 71
1, 807020, Note_off_c, 0, 62, 64
1, 807057, Control_c, 0, 64, 96
1, 807072, Control_c, 0, 64, 65
1, 807087, Control_c, 0, 64, 0
1, 807177, Control_c, 0, 64, 66
1, 807192, Control_c, 0, 64, 94
1, 807202, Note_on_c, 0, 101, 104
1, 807204, Note_on_c, 0, 55, 91
1, 807206, Control_c, 0, 64, 127
1, 807211, Note_on_c, 0, 43, 83
1, 807223, Note_off_c, 0, 55, 72
1, 807234, Note_off_c, 0, 43, 66
1, 807266, Control_c, 0, 64, 83
1, 807280, Control_c, 0, 64, 55
1, 807290, Note_on_c, 0, 95, 93
1, 807295, Control_c, 0, 64, 0
1, 807316, Note_off_c, 0, 101, 61
1, 807383, Note_on_c, 0, 92, 93
1, 807414, Control_c, 0, 64, 11
1, 807417, Note_off_c, 0, 95, 64
1, 807429, Control_c, 0, 64, 42
1, 807444, Control_c, 0, 64, 52
1, 807459, Control_c, 0, 64, 58
1, 807460, Note_on_c, 0, 89, 90
1, 807468, Note_off_c, 0, 92, 67
1, 807474, Control_c, 0, 64, 63
1, 807488, Control_c, 0, 64, 66
1, 807503, Control_c, 0, 64, 70
1, 807513, Note_off_c, 0, 89, 65
1, 807518, Control_c, 0, 64, 71
1, 807533, Control_c, 0, 64, 67
1, 807548, Control_c, 0, 64, 47
1, 807561, Note_on_c, 0, 56, 99
1, 807561, Note_on_c, 0, 68, 102
1, 807562, Control_c, 0, 64, 0
1, 807564, Note_on_c, 0, 83, 79
1, 807582, Note_off_c, 0, 83, 72
1, 807772, Note_on_c, 0, 100, 92
1, 807792, Control_c, 0, 64, 74
1, 807806, Control_c, 0, 64, 127
1, 807810, Note_on_c, 0, 98, 40
1, 807811, Note_off_c, 0, 98, 127
1, 807850, Note_on_c, 0, 96, 94
1, 807888, Note_off_c, 0, 100, 63
1, 807928, Note_off_c, 0, 68, 58
1, 807946, Note_on_c, 0, 91, 95
1, 807974, Note_off_c, 0, 96, 63
1, 808014, Note_off_c, 0, 91, 67
1, 808022, Note_on_c, 0, 88, 72
1, 808052, Note_off_c, 0, 88, 65
1, 808088, Note_off_c, 0, 56, 60
1, 808112, Note_on_c, 0, 84, 75
1, 808118, Note_on_c, 0, 67, 80
1, 808122, Note_on_c, 0, 55, 85
1, 808128, Note_off_c, 0, 84, 71
1, 808133, Control_c, 0, 64, 96
1, 808138, Note_off_c, 0, 67, 70
1, 808148, Control_c, 0, 64, 64
1, 808150, Note_off_c, 0, 55, 66
1, 808163, Control_c, 0, 64, 0
1, 808311, Control_c, 0, 64, 75
1, 808314, Note_on_c, 0, 99, 83
1, 808316, Note_on_c, 0, 55, 80
1, 808319, Note_on_c, 0, 43, 74
1, 808326, Control_c, 0, 64, 102
1, 808337, Note_off_c, 0, 55, 68
1, 808341, Control_c, 0, 64, 127
1, 808341, Note_off_c, 0, 43, 64
1, 808346, Note_on_c, 0, 97, 48
1, 808371, Note_off_c, 0, 97, 61
1, 808403, Note_on_c, 0, 96, 85
1, 808407, Control_c, 0, 64, 97
1, 808422, Control_c, 0, 64, 67
1, 808437, Control_c, 0, 64, 0
1, 808442, Note_off_c, 0, 99, 64
1, 808498, Note_on_c, 0, 93, 88
1, 808511, Note_off_c, 0, 96, 65
1, 808555, Control_c, 0, 64, 29
1, 808568, Note_off_c, 0, 93, 67
1, 808570, Control_c, 0, 64, 46
1, 808576, Note_on_c, 0, 87, 86
1, 808585, Control_c, 0, 64, 55
1, 808600, Control_c, 0, 64, 63
1, 808615, Control_c, 0, 64, 67
1, 808624, Note_off_c, 0, 87, 66
1, 808629, Control_c, 0, 64, 73
1, 808644, Control_c, 0, 64, 82
1, 808659, Control_c, 0, 64, 85
1, 808674, Control_c, 0, 64, 81
1, 808688, Note_on_c, 0, 54, 95
1, 808689, Note_on_c, 0, 66, 100
1, 808689, Control_c, 0, 64, 69
1, 808690, Note_on_c, 0, 81, 83
1, 808703, Control_c, 0, 64, 0
1, 808705, Note_off_c, 0, 81, 75
1, 808896, Note_on_c, 0, 98, 97
1, 808926, Control_c, 0, 64, 87
1, 808941, Control_c, 0, 64, 127
1, 808983, Note_on_c, 0, 95, 89
1, 808995, Note_off_c, 0, 66, 60
1, 809027, Note_off_c, 0, 98, 63
1, 809068, Note_on_c, 0, 92, 90
1, 809101, Note_off_c, 0, 95, 64
1, 809153, Note_on_c, 0, 86, 77
1, 809153, Note_off_c, 0, 92, 65
1, 809205, Note_off_c, 0, 86, 66
1, 809226, Note_off_c, 0, 54, 52
1, 809255, Note_on_c, 0, 83, 80
1, 809255, Note_on_c, 0, 65, 64
1, 809259, Control_c, 0, 64, 99
1, 809262, Note_on_c, 0, 53, 73
1, 809273, Note_off_c, 0, 83, 73
1, 809274, Note_off_c, 0, 65, 64
1, 809274, Control_c, 0, 64, 68
1, 809289, Control_c, 0, 64, 0
1, 809290, Note_off_c, 0, 53, 67
1, 809452, Note_on_c, 0, 55, 68
1, 809452, Control_c, 0, 64, 59
1, 809452, Note_on_c, 0, 43, 67
1, 809454, Note_on_c, 0, 96, 82
1, 809466, Control_c, 0, 64, 80
1, 809471, Note_off_c, 0, 55, 65
1, 809477, Note_off_c, 0, 43, 61
1, 809481, Control_c, 0, 64, 113
1, 809496, Control_c, 0, 64, 127
1, 809545, Note_on_c, 0, 91, 84
1, 809557, Note_off_c, 0, 96, 62
1, 809571, Control_c, 0, 64, 87
1, 809586, Control_c, 0, 64, 49
1, 809600, Control_c, 0, 64, 0
1, 809641, Note_on_c, 0, 88, 82
1, 809666, Note_off_c, 0, 91, 59
1, 809674, Control_c, 0, 64, 24
1, 809689, Control_c, 0, 64, 42
1, 809704, Control_c, 0, 64, 53
1, 809710, Note_off_c, 0, 88, 64
1, 809719, Note_on_c, 0, 84, 70
1, 809719, Control_c, 0, 64, 61
1, 809734, Control_c, 0, 64, 64
1, 809748, Control_c, 0, 64, 66
1, 809749, Note_off_c, 0, 84, 66
1, 809763, Control_c, 0, 64, 66
1, 809778, Control_c, 0, 64, 49
1, 809793, Control_c, 0, 64, 0
1, 809814, Note_on_c, 0, 79, 63
1, 809823, Note_on_c, 0, 52, 91
1, 809824, Note_on_c, 0, 64, 88
1, 809833, Note_off_c, 0, 79, 63
1, 810032, Note_on_c, 0, 93, 94
1, 810067, Control_c, 0, 64, 67
1, 810082, Control_c, 0, 64, 92
1, 810097, Control_c, 0, 64, 127
1, 810119, Note_on_c, 0, 90, 78
1, 810142, Note_off_c, 0, 64, 66
1, 810163, Note_off_c, 0, 93, 60
1, 810216, Note_on_c, 0, 84, 65
1, 810225, Note_off_c, 0, 90, 63
1, 810268, Note_off_c, 0, 84, 64
1, 810289, Note_on_c, 0, 81, 69
1, 810353, Note_off_c, 0, 81, 60
1, 810388, Note_on_c, 0, 63, 63
1, 810389, Note_off_c, 0, 52, 60
1, 810392, Note_on_c, 0, 78, 69
1, 810394, Note_on_c, 0, 51, 71
1, 810395, Control_c, 0, 64, 117
1, 810410, Control_c, 0, 64, 84
1, 810413, Note_off_c, 0, 78, 66
1, 810416, Note_off_c, 0, 63, 64
1, 810424, Control_c, 0, 64, 64
1, 810425, Note_off_c, 0, 51, 67
1, 810439, Control_c, 0, 64, 0
1, 810558, Control_c, 0, 64, 29
1, 810572, Control_c, 0, 64, 67
1, 810587, Control_c, 0, 64, 81
1, 810589, Note_on_c, 0, 55, 59
1, 810592, Note_on_c, 0, 43, 64
1, 810598, Note_on_c, 0, 90, 74
1, 810602, Control_c, 0, 64, 104
1, 810610, Note_off_c, 0, 55, 61
1, 810616, Note_off_c, 0, 43, 60
1, 810617, Control_c, 0, 64, 127
1, 810687, Note_on_c, 0, 87, 72
1, 810726, Note_off_c, 0, 90, 60
1, 810743, Control_c, 0, 64, 93
1, 810757, Control_c, 0, 64, 69
1, 810772, Control_c, 0, 64, 0
1, 810774, Note_on_c, 0, 81, 68
1, 810779, Note_off_c, 0, 87, 61
1, 810835, Note_off_c, 0, 81, 63
1, 810870, Note_on_c, 0, 78, 54
1, 810909, Note_off_c, 0, 78, 61
1, 810964, Note_on_c, 0, 48, 75
1, 810967, Note_on_c, 0, 60, 73
1, 810980, Note_on_c, 0, 75, 49
1, 811004, Note_off_c, 0, 75, 59
1, 811187, Note_on_c, 0, 87, 79
1, 811188, Control_c, 0, 64, 64
1, 811203, Control_c, 0, 64, 79
1, 811218, Control_c, 0, 64, 103
1, 811233, Control_c, 0, 64, 127
1, 811252, Note_off_c, 0, 60, 64
1, 811269, Note_on_c, 0, 84, 66
1, 811301, Note_off_c, 0, 87, 63
1, 811361, Note_off_c, 0, 84, 62
1, 811367, Note_on_c, 0, 78, 67
1, 811425, Note_off_c, 0, 78, 58
1, 811453, Note_on_c, 0, 75, 58
1, 811480, Note_off_c, 0, 75, 66
1, 811507, Control_c, 0, 64, 123
1, 811522, Control_c, 0, 64, 83
1, 811522, Note_off_c, 0, 48, 57
1, 811526, Note_on_c, 0, 45, 63
1, 811536, Note_on_c, 0, 57, 40
1, 811536, Control_c, 0, 64, 60
1, 811551, Control_c, 0, 64, 0
1, 811552, Note_on_c, 0, 72, 58
1, 811558, Note_off_c, 0, 45, 65
1, 811566, Note_off_c, 0, 57, 50
1, 811571, Note_off_c, 0, 72, 62
1, 811754, Note_on_c, 0, 43, 53
1, 811763, Note_on_c, 0, 55, 46
1, 811763, Note_on_c, 0, 83, 67
1, 811802, Control_c, 0, 64, 19
1, 811817, Control_c, 0, 64, 24
1, 811832, Control_c, 0, 64, 27
1, 811847, Note_on_c, 0, 79, 66
1, 811847, Control_c, 0, 64, 31
1, 811851, Note_off_c, 0, 83, 59
1, 811862, Control_c, 0, 64, 35
1, 811876, Control_c, 0, 64, 39
1, 811891, Control_c, 0, 64, 42
1, 811906, Note_off_c, 0, 55, 64
1, 811906, Control_c, 0, 64, 43
1, 811912, Note_off_c, 0, 43, 63
1, 811921, Control_c, 0, 64, 44
1, 811922, Note_off_c, 0, 79, 59
1, 811936, Control_c, 0, 64, 44
1, 811938, Note_on_c, 0, 74, 71
1, 811951, Control_c, 0, 64, 45
1, 811966, Control_c, 0, 64, 49
1, 811981, Control_c, 0, 64, 53
1, 811988, Note_off_c, 0, 74, 62
1, 811996, Control_c, 0, 64, 56
1, 812011, Control_c, 0, 64, 59
1, 812018, Note_on_c, 0, 71, 57
1, 812026, Control_c, 0, 64, 61
1, 812040, Control_c, 0, 64, 62
1, 812050, Note_off_c, 0, 71, 65
1, 812070, Control_c, 0, 64, 57
1, 812085, Control_c, 0, 64, 0
1, 812111, Note_on_c, 0, 67, 61
1, 812138, Note_off_c, 0, 67, 62
1, 812325, Note_on_c, 0, 43, 69
1, 812349, Note_off_c, 0, 43, 62
1, 812521, Control_c, 0, 64, 23
1, 812536, Control_c, 0, 64, 32
1, 812551, Control_c, 0, 64, 39
1, 812566, Control_c, 0, 64, 46
1, 812581, Control_c, 0, 64, 50
1, 812595, Control_c, 0, 64, 53
1, 812610, Control_c, 0, 64, 54
1, 812625, Control_c, 0, 64, 55
1, 812640, Control_c, 0, 64, 54
1, 812655, Control_c, 0, 64, 14
1, 812667, Note_on_c, 0, 44, 65
1, 812670, Control_c, 0, 64, 0
1, 812692, Note_off_c, 0, 44, 65
1, 812731, Note_on_c, 0, 43, 75
1, 812761, Note_off_c, 0, 43, 65
1, 812955, Note_on_c, 0, 71, 68
1, 813027, Note_off_c, 0, 71, 57
1, 813030, Note_on_c, 0, 67, 65
1, 813063, Control_c, 0, 64, 32
1, 813078, Control_c, 0, 64, 44
1, 813093, Control_c, 0, 64, 48
1, 813108, Control_c, 0, 64, 52
1, 813119, Note_off_c, 0, 67, 59
1, 813122, Note_on_c, 0, 62, 70
1, 813122, Control_c, 0, 64, 54
1, 813137, Control_c, 0, 67, 9
1, 813152, Control_c, 0, 64, 43
1, 813152, Control_c, 0, 67, 10
1, 813167, Control_c, 0, 64, 0
1, 813167, Control_c, 0, 67, 11
1, 813177, Note_off_c, 0, 62, 62
1, 813182, Control_c, 0, 67, 11
1, 813197, Control_c, 0, 67, 12
1, 813206, Note_on_c, 0, 59, 61
1, 813245, Note_off_c, 0, 59, 59
1, 813255, Control_c, 0, 67, 11
1, 813270, Control_c, 0, 67, 11
1, 813285, Control_c, 0, 67, 10
1, 813299, Control_c, 0, 67, 9
1, 813301, Note_on_c, 0, 55, 61
1, 813314, Control_c, 0, 67, 9
1, 813329, Control_c, 0, 67, 8
1, 813330, Note_off_c, 0, 55, 66
1, 813343, Control_c, 0, 67, 8
1, 813358, Control_c, 0, 67, 0
1, 813462, Control_c, 0, 67, 8
1, 813477, Control_c, 0, 67, 8
1, 813494, Note_on_c, 0, 43, 62
1, 813507, Control_c, 0, 67, 9
1, 813520, Note_off_c, 0, 43, 57
1, 813522, Control_c, 0, 67, 9
1, 813552, Control_c, 0, 67, 10
1, 813582, Control_c, 0, 67, 10
1, 813596, Control_c, 0, 67, 11
1, 813634, Control_c, 0, 67, 11
1, 813678, Control_c, 0, 67, 12
1, 813693, Control_c, 0, 64, 17
1, 813708, Control_c, 0, 64, 26
1, 813722, Control_c, 0, 64, 30
1, 813737, Control_c, 0, 64, 34
1, 813752, Control_c, 0, 64, 36
1, 813767, Control_c, 0, 64, 40
1, 813781, Control_c, 0, 64, 38
1, 813796, Control_c, 0, 64, 0
1, 813796, Control_c, 0, 67, 12
1, 813811, Control_c, 0, 67, 13
1, 813826, Control_c, 0, 67, 13
1, 813829, Note_on_c, 0, 44, 61
1, 813841, Control_c, 0, 67, 14
1, 813856, Control_c, 0, 67, 17
1, 813856, Note_off_c, 0, 44, 64
1, 813871, Control_c, 0, 67, 19
1, 813886, Control_c, 0, 67, 21
1, 813901, Control_c, 0, 67, 22
1, 813905, Note_on_c, 0, 43, 56
1, 813915, Control_c, 0, 67, 23
1, 813930, Control_c, 0, 67, 23
1, 813933, Note_off_c, 0, 43, 56
1, 813989, Control_c, 0, 67, 23
1, 814093, Control_c, 0, 67, 23
1, 814137, Control_c, 0, 67, 24
1, 814166, Control_c, 0, 67, 24
1, 814196, Control_c, 0, 67, 25
1, 814211, Control_c, 0, 67, 28
1, 814226, Control_c, 0, 67, 30
1, 814240, Control_c, 0, 67, 31
1, 814255, Control_c, 0, 67, 32
1, 814270, Control_c, 0, 67, 33
1, 814285, Control_c, 0, 67, 34
1, 814300, Control_c, 0, 67, 35
1, 814315, Control_c, 0, 67, 36
1, 814330, Control_c, 0, 67, 36
1, 814345, Control_c, 0, 67, 37
1, 814383, Control_c, 0, 67, 37
1, 814397, Control_c, 0, 67, 38
1, 814413, Note_on_c, 0, 56, 64
1, 814427, Control_c, 0, 67, 39
1, 814433, Note_on_c, 0, 44, 47
1, 814439, Note_off_c, 0, 56, 64
1, 814442, Control_c, 0, 67, 40
1, 814457, Control_c, 0, 67, 41
1, 814464, Note_off_c, 0, 44, 51
1, 814471, Control_c, 0, 67, 42
1, 814485, Note_on_c, 0, 55, 57
1, 814494, Note_on_c, 0, 43, 58
1, 814501, Control_c, 0, 67, 42
1, 814506, Note_off_c, 0, 55, 62
1, 814521, Note_off_c, 0, 43, 57
1, 814604, Control_c, 0, 67, 42
1, 814753, Control_c, 0, 67, 42
1, 814960, Control_c, 0, 67, 43
1, 815034, Control_c, 0, 67, 43
1, 815069, Note_on_c, 0, 56, 74
1, 815071, Note_on_c, 0, 44, 54
1, 815096, Note_off_c, 0, 56, 68
1, 815098, Note_off_c, 0, 44, 60
1, 815141, Note_on_c, 0, 43, 57
1, 815155, Note_on_c, 0, 55, 46
1, 815170, Note_off_c, 0, 43, 57
1, 815181, Note_off_c, 0, 55, 54
1, 815206, Control_c, 0, 67, 43
1, 815220, Control_c, 0, 67, 42
1, 815250, Control_c, 0, 67, 42
1, 815413, Control_c, 0, 67, 42
1, 815486, Control_c, 0, 67, 43
1, 815516, Control_c, 0, 67, 43
1, 815560, Control_c, 0, 67, 44
1, 815632, Note_on_c, 0, 44, 62
1, 815644, Note_on_c, 0, 56, 74
1, 815662, Note_off_c, 0, 44, 64
1, 815674, Note_off_c, 0, 56, 67
1, 815708, Control_c, 0, 67, 43
1, 815715, Note_on_c, 0, 55, 63
1, 815719, Note_on_c, 0, 43, 58
1, 815723, Control_c, 0, 67, 43
1, 815734, Note_off_c, 0, 55, 63
1, 815737, Control_c, 0, 67, 42
1, 815746, Note_off_c, 0, 43, 57
1, 815797, Control_c, 0, 67, 42
1, 815856, Control_c, 0, 64, 23
1, 815879, Control_c, 0, 64, 28
1, 815893, Control_c, 0, 64, 33
1, 815904, Note_on_c, 0, 44, 74
1, 815908, Control_c, 0, 64, 38
1, 815908, Control_c, 0, 67, 42
1, 815923, Control_c, 0, 64, 40
1, 815938, Control_c, 0, 64, 43
1, 815953, Note_off_c, 0, 44, 60
1, 815954, Control_c, 0, 64, 45
1, 815968, Control_c, 0, 64, 46
1, 815983, Control_c, 0, 64, 46
1, 815983, Control_c, 0, 67, 42
1, 815995, Note_on_c, 0, 68, 82
1, 815998, Control_c, 0, 64, 47
1, 815998, Control_c, 0, 67, 41
1, 816001, Note_on_c, 0, 56, 82
1, 816013, Control_c, 0, 67, 41
1, 816028, Control_c, 0, 67, 40
1, 816042, Control_c, 0, 67, 39
1, 816057, Control_c, 0, 67, 38
1, 816072, Control_c, 0, 67, 37
1, 816074, Note_off_c, 0, 56, 62
1, 816077, Note_off_c, 0, 68, 62
1, 816086, Note_on_c, 0, 43, 101
1, 816087, Control_c, 0, 67, 36
1, 816102, Control_c, 0, 67, 35
1, 816116, Control_c, 0, 67, 34
1, 816131, Control_c, 0, 67, 34
1, 816146, Control_c, 0, 64, 46
1, 816152, Note_off_c, 0, 43, 60
1, 816175, Control_c, 0, 64, 46
1, 816181, Note_on_c, 0, 67, 93
1, 816182, Note_on_c, 0, 55, 90
1, 816218, Note_off_c, 0, 55, 66
1, 816221, Control_c, 0, 67, 34
1, 816228, Note_off_c, 0, 67, 63
1, 816250, Control_c, 0, 67, 35
1, 816265, Note_on_c, 0, 41, 96
1, 816265, Control_c, 0, 64, 46
1, 816265, Control_c, 0, 67, 35
1, 816280, Control_c, 0, 64, 47
1, 816280, Control_c, 0, 67, 36
1, 816301, Note_off_c, 0, 41, 66
1, 816310, Control_c, 0, 64, 49
1, 816324, Control_c, 0, 64, 53
1, 816324, Control_c, 0, 67, 36
1, 816339, Control_c, 0, 64, 56
1, 816339, Control_c, 0, 67, 37
1, 816340, Note_on_c, 0, 65, 99
1, 816342, Note_on_c, 0, 53, 80
1, 816354, Control_c, 0, 64, 59
1, 816354, Control_c, 0, 67, 37
1, 816364, Note_off_c, 0, 53, 69
1, 816369, Control_c, 0, 64, 60
1, 816369, Control_c, 0, 67, 38
1, 816375, Note_off_c, 0, 65, 69
1, 816384, Control_c, 0, 67, 38
1, 816399, Control_c, 0, 64, 59
1, 816399, Control_c, 0, 67, 39
1, 816413, Control_c, 0, 64, 55
1, 816413, Control_c, 0, 67, 40
1, 816428, Control_c, 0, 64, 42
1, 816443, Control_c, 0, 64, 0
1, 816517, Control_c, 0, 67, 39
1, 816547, Control_c, 0, 67, 39
1, 816561, Control_c, 0, 67, 38
1, 816576, Control_c, 0, 64, 47
1, 816576, Control_c, 0, 67, 37
1, 816589, Note_on_c, 0, 85, 101
1, 816590, Note_on_c, 0, 52, 98
1, 816591, Control_c, 0, 64, 89
1, 816591, Control_c, 0, 67, 36
1, 816592, Note_on_c, 0, 73, 93
1, 816594, Note_on_c, 0, 79, 81
1, 816597, Note_on_c, 0, 40, 85
1, 816597, Note_on_c, 0, 82, 77
1, 816606, Control_c, 0, 64, 127
1, 816606, Control_c, 0, 67, 34
1, 816619, Note_off_c, 0, 52, 70
1, 816628, Note_off_c, 0, 40, 67
1, 816628, Control_c, 0, 67, 29
1, 816643, Control_c, 0, 67, 22
1, 816658, Control_c, 0, 67, 0
1, 816787, Note_off_c, 0, 79, 49
1, 816795, Note_off_c, 0, 73, 60
1, 816821, Note_off_c, 0, 82, 57
1, 816833, Note_off_c, 0, 85, 60
1, 816865, Note_on_c, 0, 52, 89
1, 816873, Note_on_c, 0, 61, 89
1, 816884, Note_on_c, 0, 58, 75
1, 816907, Note_off_c, 0, 52, 56
1, 816911, Note_off_c, 0, 58, 63
1, 816919, Note_off_c, 0, 61, 62
1, 816930, Note_on_c, 0, 84, 94
1, 816938, Note_on_c, 0, 72, 80
1, 816956, Note_off_c, 0, 72, 72
1, 816958, Note_off_c, 0, 84, 69
1, 817016, Note_on_c, 0, 67, 91
1, 817023, Note_on_c, 0, 61, 84
1, 817026, Note_on_c, 0, 82, 101
1, 817027, Note_on_c, 0, 70, 94
1, 817032, Note_on_c, 0, 58, 58
1, 817033, Note_off_c, 0, 67, 72
1, 817044, Control_c, 0, 64, 79
1, 817048, Note_off_c, 0, 61, 66
1, 817050, Note_off_c, 0, 58, 66
1, 817054, Note_on_c, 0, 80, 48
1, 817055, Note_off_c, 0, 80, 127
1, 817055, Note_off_c, 0, 70, 57
1, 817057, Note_off_c, 0, 82, 69
1, 817059, Control_c, 0, 64, 0
1, 817191, Control_c, 0, 64, 46
1, 817206, Control_c, 0, 64, 81
1, 817215, Note_on_c, 0, 53, 94
1, 817221, Control_c, 0, 64, 127
1, 817224, Note_on_c, 0, 41, 77
1, 817228, Note_on_c, 0, 52, 67
1, 817236, Note_off_c, 0, 53, 75
1, 817252, Note_off_c, 0, 52, 60
1, 817254, Note_off_c, 0, 41, 64
1, 817271, Poly_aftertouch_c, 0, 68, 0
1, 817292, Note_on_c, 0, 68, 74
1, 817296, Note_on_c, 0, 80, 96
1, 817320, Note_off_c, 0, 80, 60
1, 817321, Note_off_c, 0, 68, 63
1, 817371, Note_on_c, 0, 53, 84
1, 817377, Control_c, 0, 64, 74
1, 817379, Note_on_c, 0, 60, 82
1, 817387, Note_on_c, 0, 79, 103
1, 817388, Note_on_c, 0, 67, 93
1, 817391, Control_c, 0, 64, 0
1, 817400, Note_off_c, 0, 60, 72
1, 817409, Note_off_c, 0, 53, 65
1, 817410, Note_off_c, 0, 67, 68
1, 817418, Note_off_c, 0, 79, 69
1, 817510, Control_c, 0, 64, 26
1, 817525, Control_c, 0, 64, 46
1, 817541, Control_c, 0, 64, 51
1, 817573, Note_on_c, 0, 65, 77
1, 817576, Note_on_c, 0, 56, 72
1, 817585, Note_on_c, 0, 77, 98
1, 817594, Note_on_c, 0, 60, 46
1, 817610, Note_off_c, 0, 56, 66
1, 817615, Control_c, 0, 64, 51
1, 817621, Note_off_c, 0, 60, 57
1, 817629, Note_off_c, 0, 65, 62
1, 817630, Control_c, 0, 64, 53
1, 817636, Note_off_c, 0, 77, 59
1, 817645, Control_c, 0, 64, 55
1, 817659, Control_c, 0, 64, 57
1, 817674, Control_c, 0, 64, 57
1, 817748, Control_c, 0, 64, 57
1, 817763, Control_c, 0, 64, 56
1, 817781, Note_on_c, 0, 61, 100
1, 817781, Note_on_c, 0, 76, 95
1, 817783, Note_on_c, 0, 49, 94
1, 817785, Note_on_c, 0, 64, 93
1, 817798, Note_on_c, 0, 73, 52
1, 817805, Note_off_c, 0, 64, 69
1, 817808, Note_on_c, 0, 70, 52
1, 817808, Control_c, 0, 64, 55
1, 817820, Note_off_c, 0, 73, 60
1, 817822, Control_c, 0, 64, 56
1, 817824, Note_off_c, 0, 76, 62
1, 817830, Note_off_c, 0, 70, 59
1, 817837, Control_c, 0, 64, 57
1, 817852, Control_c, 0, 64, 58
1, 817867, Control_c, 0, 64, 59
1, 817882, Control_c, 0, 64, 61
1, 817896, Control_c, 0, 64, 61
1, 817955, Control_c, 0, 64, 62
1, 817966, Note_off_c, 0, 61, 61
1, 817968, Note_on_c, 0, 65, 89
1, 817969, Note_on_c, 0, 77, 91
1, 817976, Note_off_c, 0, 49, 62
1, 817992, Note_off_c, 0, 65, 65
1, 818002, Note_off_c, 0, 77, 64
1, 818014, Control_c, 0, 64, 61
1, 818058, Note_on_c, 0, 60, 90
1, 818065, Note_on_c, 0, 48, 85
1, 818077, Note_off_c, 0, 60, 72
1, 818086, Note_off_c, 0, 48, 67
1, 818095, Note_on_c, 0, 49, 33
1, 818144, Note_off_c, 0, 49, 35
1, 818151, Note_on_c, 0, 67, 84
1, 818154, Note_on_c, 0, 79, 82
1, 818155, Control_c, 0, 64, 62
1, 818157, Note_on_c, 0, 81, 74
1, 818168, Note_on_c, 0, 58, 101
1, 818169, Note_on_c, 0, 46, 98
1, 818170, Note_off_c, 0, 67, 71
1, 818170, Control_c, 0, 64, 63
1, 818172, Note_off_c, 0, 81, 68
1, 818172, Note_off_c, 0, 79, 71
1, 818198, Note_off_c, 0, 46, 59
1, 818198, Note_off_c, 0, 58, 59
1, 818200, Control_c, 0, 64, 63
1, 818202, Note_on_c, 0, 49, 29
1, 818214, Control_c, 0, 64, 64
1, 818229, Control_c, 0, 64, 65
1, 818241, Note_off_c, 0, 49, 49
1, 818244, Control_c, 0, 64, 66
1, 818259, Control_c, 0, 64, 67
1, 818274, Control_c, 0, 64, 67
1, 818288, Control_c, 0, 64, 68
1, 818303, Control_c, 0, 64, 68
1, 818333, Control_c, 0, 64, 68
1, 818350, Note_on_c, 0, 72, 91
1, 818351, Note_on_c, 0, 60, 86
1, 818351, Note_on_c, 0, 65, 78
1, 818363, Control_c, 0, 64, 66
1, 818378, Control_c, 0, 64, 64
1, 818393, Control_c, 0, 64, 60
1, 818408, Control_c, 0, 64, 50
1, 818423, Control_c, 0, 64, 34
1, 818427, Note_on_c, 0, 56, 91
1, 818430, Note_on_c, 0, 44, 84
1, 818437, Control_c, 0, 64, 0
1, 818446, Note_off_c, 0, 56, 72
1, 818455, Note_off_c, 0, 44, 69
1, 818497, Control_c, 0, 64, 33
1, 818511, Note_on_c, 0, 43, 95
1, 818512, Note_on_c, 0, 55, 94
1, 818512, Control_c, 0, 64, 49
1, 818523, Note_on_c, 0, 44, 56
1, 818527, Control_c, 0, 64, 57
1, 818532, Note_off_c, 0, 55, 71
1, 818542, Control_c, 0, 64, 60
1, 818544, Note_off_c, 0, 43, 62
1, 818551, Note_off_c, 0, 44, 57
1, 818557, Control_c, 0, 64, 62
1, 818571, Control_c, 0, 64, 63
1, 818586, Control_c, 0, 64, 63
1, 818601, Control_c, 0, 64, 64
1, 818616, Control_c, 0, 64, 65
1, 818619, Note_off_c, 0, 60, 64
1, 818623, Note_off_c, 0, 65, 62
1, 818631, Control_c, 0, 64, 67
1, 818645, Control_c, 0, 64, 68
1, 818660, Control_c, 0, 64, 70
1, 818667, Note_off_c, 0, 72, 64
1, 818675, Control_c, 0, 64, 71
1, 818690, Control_c, 0, 64, 72
1, 818705, Control_c, 0, 64, 72
1, 818718, Note_on_c, 0, 53, 93
1, 818719, Control_c, 0, 64, 71
1, 818721, Note_on_c, 0, 41, 92
1, 818734, Control_c, 0, 64, 67
1, 818739, Note_off_c, 0, 53, 73
1, 818747, Note_off_c, 0, 41, 67
1, 818749, Control_c, 0, 64, 56
1, 818763, Control_c, 0, 64, 0
1, 818851, Note_on_c, 0, 72, 82
1, 818885, Note_on_c, 0, 74, 75
1, 818921, Note_on_c, 0, 76, 72
1, 818926, Note_on_c, 0, 51, 90
1, 818927, Note_off_c, 0, 72, 62
1, 818932, Note_on_c, 0, 77, 96
1, 818934, Note_on_c, 0, 39, 76
1, 818934, Note_off_c, 0, 74, 62
1, 818934, Control_c, 0, 64, 17
1, 818941, Note_on_c, 0, 65, 85
1, 818947, Note_off_c, 0, 51, 73
1, 818949, Control_c, 0, 64, 82
1, 818962, Note_off_c, 0, 39, 63
1, 818963, Control_c, 0, 64, 127
1, 818986, Note_off_c, 0, 65, 64
1, 819000, Note_off_c, 0, 77, 66
1, 819001, Note_off_c, 0, 76, 59
1, 819138, Note_on_c, 0, 57, 69
1, 819144, Note_on_c, 0, 53, 71
1, 819160, Note_on_c, 0, 51, 65
1, 819192, Note_off_c, 0, 57, 57
1, 819195, Note_off_c, 0, 51, 59
1, 819219, Note_on_c, 0, 64, 76
1, 819221, Note_on_c, 0, 76, 82
1, 819242, Note_off_c, 0, 76, 66
1, 819243, Note_off_c, 0, 64, 69
1, 819261, Note_off_c, 0, 53, 0
1, 819275, Control_c, 0, 64, 82
1, 819278, Note_on_c, 0, 53, 46
1, 819284, Note_on_c, 0, 60, 73
1, 819290, Control_c, 0, 64, 0
1, 819294, Note_on_c, 0, 65, 93
1, 819294, Note_on_c, 0, 77, 97
1, 819296, Note_on_c, 0, 51, 69
1, 819296, Note_on_c, 0, 57, 56
1, 819303, Note_off_c, 0, 60, 67
1, 819311, Note_off_c, 0, 65, 74
1, 819314, Note_off_c, 0, 53, 65
1, 819322, Note_off_c, 0, 51, 67
1, 819324, Note_off_c, 0, 57, 56
1, 819326, Note_off_c, 0, 77, 68
1, 819478, Note_on_c, 0, 49, 88
1, 819483, Note_on_c, 0, 39, 80
1, 819483, Control_c, 0, 64, 64
1, 819498, Control_c, 0, 64, 93
1, 819502, Note_off_c, 0, 49, 69
1, 819507, Note_off_c, 0, 39, 64
1, 819512, Control_c, 0, 64, 127
1, 819523, Note_on_c, 0, 50, 34
1, 819549, Note_on_c, 0, 80, 82
1, 819550, Note_on_c, 0, 68, 82
1, 819565, Note_off_c, 0, 50, 51
1, 819567, Note_off_c, 0, 80, 72
1, 819571, Note_off_c, 0, 68, 70
1, 819601, Control_c, 0, 64, 104
1, 819602, Note_on_c, 0, 49, 15
1, 819624, Control_c, 0, 64, 69
1, 819632, Note_on_c, 0, 53, 90
1, 819638, Note_on_c, 0, 77, 96
1, 819639, Control_c, 0, 64, 0
1, 819641, Note_on_c, 0, 65, 93
1, 819647, Note_off_c, 0, 49, 44
1, 819651, Note_on_c, 0, 61, 63
1, 819658, Note_off_c, 0, 53, 67
1, 819659, Note_off_c, 0, 65, 72
1, 819666, Note_off_c, 0, 77, 66
1, 819671, Note_off_c, 0, 61, 63
1, 819727, Control_c, 0, 64, 14
1, 819742, Control_c, 0, 64, 48
1, 819757, Control_c, 0, 64, 62
1, 819772, Control_c, 0, 64, 67
1, 819786, Control_c, 0, 64, 70
1, 819801, Control_c, 0, 64, 72
1, 819816, Control_c, 0, 64, 73
1, 819827, Note_on_c, 0, 61, 64
1, 819829, Note_on_c, 0, 78, 100
1, 819830, Note_on_c, 0, 65, 58
1, 819831, Control_c, 0, 64, 72
1, 819832, Note_on_c, 0, 66, 84
1, 819835, Note_on_c, 0, 58, 63
1, 819846, Control_c, 0, 64, 67
1, 819850, Note_off_c, 0, 66, 71
1, 819852, Note_off_c, 0, 65, 63
1, 819853, Note_on_c, 0, 64, 41
1, 819853, Note_off_c, 0, 61, 65
1, 819856, Note_off_c, 0, 78, 55
1, 819860, Control_c, 0, 64, 35
1, 819863, Note_off_c, 0, 58, 67
1, 819875, Control_c, 0, 64, 0
1, 819884, Note_off_c, 0, 64, 36
1, 819900, Note_on_c, 0, 79, 3
1, 819901, Note_off_c, 0, 79, 127
1, 820008, Note_on_c, 0, 48, 85
1, 820011, Note_on_c, 0, 36, 84
1, 820024, Control_c, 0, 64, 65
1, 820029, Note_on_c, 0, 47, 57
1, 820030, Note_off_c, 0, 47, 127
1, 820030, Note_off_c, 0, 48, 67
1, 820035, Note_off_c, 0, 36, 64
1, 820039, Control_c, 0, 64, 87
1, 820054, Control_c, 0, 64, 127
1, 820083, Note_on_c, 0, 82, 74
1, 820085, Note_on_c, 0, 70, 90
1, 820091, Note_on_c, 0, 80, 74
1, 820103, Note_off_c, 0, 70, 72
1, 820105, Note_off_c, 0, 80, 70
1, 820108, Note_off_c, 0, 82, 68
1, 820166, Note_on_c, 0, 53, 92
1, 820171, Note_on_c, 0, 80, 98
1, 820172, Control_c, 0, 64, 106
1, 820176, Note_on_c, 0, 68, 95
1, 820187, Control_c, 0, 64, 73
1, 820193, Note_off_c, 0, 53, 69
1, 820202, Note_off_c, 0, 68, 61
1, 820202, Control_c, 0, 64, 0
1, 820219, Note_off_c, 0, 80, 64
1, 820262, Control_c, 0, 64, 59
1, 820277, Control_c, 0, 64, 68
1, 820291, Control_c, 0, 64, 74
1, 820306, Control_c, 0, 64, 78
1, 820321, Control_c, 0, 64, 82
1, 820345, Note_on_c, 0, 65, 71
1, 820350, Control_c, 0, 64, 78
1, 820362, Note_on_c, 0, 81, 97
1, 820364, Note_on_c, 0, 60, 57
1, 820366, Note_on_c, 0, 69, 93
1, 820372, Control_c, 0, 64, 64
1, 820378, Note_off_c, 0, 65, 69
1, 820383, Note_off_c, 0, 69, 72
1, 820387, Note_on_c, 0, 63, 35
1, 820387, Control_c, 0, 64, 0
1, 820390, Note_off_c, 0, 60, 67
1, 820397, Note_off_c, 0, 81, 68
1, 820420, Note_off_c, 0, 63, 54
1, 820521, Control_c, 0, 64, 27
1, 820535, Control_c, 0, 64, 0
1, 820545, Note_on_c, 0, 46, 82
1, 820546, Note_on_c, 0, 84, 95
1, 820551, Note_on_c, 0, 34, 78
1, 820557, Note_on_c, 0, 72, 80
1, 820567, Note_off_c, 0, 46, 66
1, 820569, Note_off_c, 0, 84, 69
1, 820575, Note_off_c, 0, 72, 72
1, 820579, Note_off_c, 0, 34, 63
1, 820744, Control_c, 0, 64, 81
1, 820745, Note_on_c, 0, 53, 70
1, 820745, Note_on_c, 0, 70, 96
1, 820745, Note_on_c, 0, 82, 99
1, 820758, Control_c, 0, 64, 127
1, 820763, Note_on_c, 0, 62, 58
1, 820772, Note_off_c, 0, 53, 63
1, 820779, Note_off_c, 0, 70, 67
1, 820780, Note_off_c, 0, 82, 67
1, 820787, Note_off_c, 0, 62, 59
1, 820862, Poly_aftertouch_c, 0, 59, 0
1, 820894, Note_on_c, 0, 65, 83
1, 820903, Note_on_c, 0, 58, 73
1, 820905, Note_on_c, 0, 61, 69
1, 820912, Note_on_c, 0, 71, 77
1, 820913, Note_off_c, 0, 65, 71
1, 820930, Note_off_c, 0, 61, 65
1, 820932, Note_off_c, 0, 58, 66
1, 820938, Note_off_c, 0, 71, 66
1, 820962, Note_on_c, 0, 78, 80
1, 820966, Note_on_c, 0, 74, 47
1, 820977, Note_off_c, 0, 78, 72
1, 820986, Note_on_c, 0, 80, 73
1, 820992, Note_off_c, 0, 74, 60
1, 821007, Note_off_c, 0, 80, 70
1, 821047, Note_on_c, 0, 83, 81
1, 821087, Note_on_c, 0, 86, 74
1, 821094, Note_off_c, 0, 83, 63
1, 821123, Note_on_c, 0, 92, 92
1, 821135, Note_on_c, 0, 95, 97
1, 821137, Note_on_c, 0, 50, 98
1, 821142, Note_off_c, 0, 86, 66
1, 821148, Note_on_c, 0, 38, 77
1, 821156, Note_off_c, 0, 50, 75
1, 821165, Control_c, 0, 64, 87
1, 821176, Note_off_c, 0, 38, 65
1, 821180, Control_c, 0, 64, 61
1, 821182, Note_on_c, 0, 40, 26
1, 821183, Note_off_c, 0, 92, 66
1, 821187, Note_off_c, 0, 95, 68
1, 821195, Control_c, 0, 64, 0
1, 821225, Note_off_c, 0, 40, 32
1, 821254, Control_c, 0, 64, 40
1, 821269, Control_c, 0, 64, 53
1, 821284, Control_c, 0, 64, 60
1, 821299, Control_c, 0, 64, 63
1, 821314, Note_on_c, 0, 51, 91
1, 821314, Control_c, 0, 64, 65
1, 821315, Note_on_c, 0, 39, 88
1, 821329, Control_c, 0, 64, 67
1, 821341, Note_off_c, 0, 39, 69
1, 821341, Note_off_c, 0, 51, 67
1, 821344, Control_c, 0, 64, 69
1, 821358, Control_c, 0, 64, 71
1, 821373, Control_c, 0, 64, 73
1, 821397, Note_on_c, 0, 94, 89
1, 821398, Note_on_c, 0, 82, 84
1, 821403, Control_c, 0, 64, 70
1, 821410, Note_off_c, 0, 94, 74
1, 821415, Note_off_c, 0, 82, 73
1, 821418, Control_c, 0, 64, 56
1, 821432, Control_c, 0, 64, 0
1, 821486, Note_on_c, 0, 92, 94
1, 821487, Note_on_c, 0, 53, 89
1, 821490, Note_on_c, 0, 80, 96
1, 821491, Note_on_c, 0, 41, 78
1, 821510, Note_off_c, 0, 53, 72
1, 821511, Note_on_c, 0, 90, 58
1, 821512, Note_off_c, 0, 90, 127
1, 821514, Note_off_c, 0, 41, 63
1, 821517, Note_off_c, 0, 80, 57
1, 821519, Note_off_c, 0, 92, 69
1, 821697, Note_on_c, 0, 58, 101
1, 821700, Control_c, 0, 64, 81
1, 821700, Note_on_c, 0, 46, 95
1, 821714, Control_c, 0, 64, 127
1, 821737, Note_off_c, 0, 58, 66
1, 821743, Note_off_c, 0, 46, 61
1, 821754, Note_on_c, 0, 90, 99
1, 821757, Note_on_c, 0, 78, 93
1, 821782, Note_off_c, 0, 78, 62
1, 821790, Note_off_c, 0, 90, 62
1, 821833, Note_on_c, 0, 44, 109
1, 821833, Note_on_c, 0, 56, 100
1, 821833, Control_c, 0, 64, 77
1, 821838, Note_on_c, 0, 89, 102
1, 821840, Note_on_c, 0, 77, 101
1, 821855, Control_c, 0, 64, 0
1, 821860, Note_off_c, 0, 56, 68
1, 821867, Note_off_c, 0, 44, 63
1, 821874, Note_off_c, 0, 77, 67
1, 821883, Note_off_c, 0, 89, 66
1, 821929, Control_c, 0, 64, 53
1, 821944, Control_c, 0, 64, 66
1, 821959, Control_c, 0, 64, 74
1, 821974, Control_c, 0, 64, 78
1, 821988, Control_c, 0, 64, 79
1, 822003, Control_c, 0, 64, 75
1, 822018, Control_c, 0, 64, 59
1, 822033, Control_c, 0, 64, 0
1, 822039, Note_on_c, 0, 54, 89
1, 822040, Note_on_c, 0, 42, 91
1, 822044, Note_on_c, 0, 75, 96
1, 822044, Note_on_c, 0, 87, 97
1, 822059, Note_off_c, 0, 54, 72
1, 822063, Note_off_c, 0, 42, 70
1, 822078, Note_off_c, 0, 75, 61
1, 822085, Note_off_c, 0, 87, 62
1, 822167, Note_on_c, 0, 73, 81
1, 822181, Control_c, 0, 64, 51
1, 822196, Control_c, 0, 64, 82
1, 822201, Note_on_c, 0, 79, 76
1, 822211, Control_c, 0, 64, 109
1, 822220, Note_off_c, 0, 73, 64
1, 822226, Control_c, 0, 64, 127
1, 822232, Note_on_c, 0, 82, 84
1, 822235, Note_on_c, 0, 85, 86
1, 822238, Note_off_c, 0, 79, 60
1, 822252, Note_off_c, 0, 82, 70
1, 822258, Note_off_c, 0, 85, 66
1, 822346, Note_on_c, 0, 85, 77
1, 822354, Note_on_c, 0, 91, 85
1, 822365, Note_on_c, 0, 52, 97
1, 822374, Note_on_c, 0, 40, 82
1, 822377, Note_off_c, 0, 85, 0
1, 822378, Note_on_c, 0, 94, 76
1, 822382, Note_on_c, 0, 97, 100
1, 822385, Note_off_c, 0, 52, 72
1, 822398, Note_off_c, 0, 91, 66
1, 822399, Note_off_c, 0, 40, 66
1, 822414, Poly_aftertouch_c, 0, 85, 0
1, 822420, Note_off_c, 0, 94, 63
1, 822432, Note_on_c, 0, 98, 39
1, 822434, Control_c, 0, 64, 87
1, 822449, Control_c, 0, 64, 61
1, 822463, Note_off_c, 0, 98, 55
1, 822464, Control_c, 0, 64, 0
1, 822469, Note_off_c, 0, 97, 65
1, 822565, Note_on_c, 0, 53, 89
1, 822566, Note_on_c, 0, 41, 85
1, 822591, Note_off_c, 0, 53, 67
1, 822596, Note_off_c, 0, 41, 63
1, 822634, Control_c, 0, 64, 33
1, 822649, Control_c, 0, 64, 49
1, 822658, Note_on_c, 0, 96, 94
1, 822661, Note_on_c, 0, 84, 81
1, 822664, Control_c, 0, 64, 60
1, 822679, Control_c, 0, 64, 64
1, 822679, Note_off_c, 0, 84, 72
1, 822682, Note_on_c, 0, 95, 51
1, 822690, Note_off_c, 0, 96, 65
1, 822693, Control_c, 0, 64, 67
1, 822707, Note_off_c, 0, 95, 38
1, 822708, Control_c, 0, 64, 64
1, 822723, Control_c, 0, 64, 0
1, 822743, Note_on_c, 0, 55, 91
1, 822748, Note_on_c, 0, 43, 85
1, 822760, Note_on_c, 0, 82, 97
1, 822761, Note_on_c, 0, 94, 92
1, 822763, Note_off_c, 0, 55, 72
1, 822770, Note_on_c, 0, 92, 81
1, 822777, Note_off_c, 0, 43, 67
1, 822783, Note_off_c, 0, 92, 73
1, 822796, Note_off_c, 0, 82, 55
1, 822801, Note_off_c, 0, 94, 68
1, 822972, Note_on_c, 0, 60, 102
1, 822975, Control_c, 0, 64, 79
1, 822981, Note_on_c, 0, 48, 85
1, 822990, Control_c, 0, 64, 127
1, 822991, Note_on_c, 0, 50, 73
1, 823004, Note_off_c, 0, 60, 63
1, 823007, Note_off_c, 0, 48, 66
1, 823013, Note_off_c, 0, 50, 64
1, 823036, Note_on_c, 0, 92, 98
1, 823042, Note_on_c, 0, 80, 91
1, 823054, Poly_aftertouch_c, 0, 49, 127
1, 823059, Note_off_c, 0, 80, 68
1, 823073, Note_off_c, 0, 92, 65
1, 823080, Note_on_c, 0, 90, 31
1, 823081, Note_off_c, 0, 90, 127
1, 823086, Poly_aftertouch_c, 0, 49, 0
1, 823094, Control_c, 0, 64, 86
1, 823109, Control_c, 0, 64, 51
1, 823109, Note_on_c, 0, 58, 98
1, 823110, Note_on_c, 0, 46, 99
1, 823114, Note_on_c, 0, 91, 108
1, 823116, Note_on_c, 0, 79, 105
1, 823123, Control_c, 0, 64, 0
1, 823134, Note_off_c, 0, 58, 61
1, 823135, Note_off_c, 0, 46, 66
1, 823148, Note_off_c, 0, 79, 67
1, 823155, Note_off_c, 0, 91, 69
1, 823168, Control_c, 0, 64, 48
1, 823183, Control_c, 0, 64, 70
1, 823198, Control_c, 0, 64, 80
1, 823213, Control_c, 0, 64, 90
1, 823228, Control_c, 0, 64, 93
1, 823243, Control_c, 0, 64, 91
1, 823258, Control_c, 0, 64, 78
1, 823272, Control_c, 0, 64, 0
1, 823297, Note_on_c, 0, 56, 91
1, 823309, Note_on_c, 0, 44, 70
1, 823310, Note_on_c, 0, 89, 107
1, 823313, Note_on_c, 0, 77, 92
1, 823318, Note_off_c, 0, 56, 71
1, 823327, Note_off_c, 0, 89, 67
1, 823329, Note_off_c, 0, 77, 75
1, 823334, Note_off_c, 0, 44, 63
1, 823448, Note_on_c, 0, 78, 80
1, 823472, Control_c, 0, 64, 82
1, 823484, Note_on_c, 0, 84, 60
1, 823487, Control_c, 0, 64, 127
1, 823489, Note_on_c, 0, 83, 61
1, 823495, Note_off_c, 0, 78, 61
1, 823508, Note_off_c, 0, 83, 68
1, 823511, Note_on_c, 0, 45, 73
1, 823511, Note_on_c, 0, 87, 85
1, 823511, Note_off_c, 0, 84, 67
1, 823520, Note_on_c, 0, 90, 84
1, 823531, Note_on_c, 0, 48, 71
1, 823537, Note_off_c, 0, 87, 66
1, 823545, Note_off_c, 0, 90, 64
1, 823573, Note_on_c, 0, 51, 76
1, 823588, Note_on_c, 0, 54, 76
1, 823593, Note_off_c, 0, 45, 64
1, 823629, Note_on_c, 0, 90, 69
1, 823634, Note_off_c, 0, 48, 63
1, 823645, Note_on_c, 0, 96, 88
1, 823647, Note_on_c, 0, 60, 101
1, 823663, Note_off_c, 0, 90, 0
1, 823663, Note_on_c, 0, 102, 103
1, 823666, Note_off_c, 0, 54, 68
1, 823669, Note_off_c, 0, 51, 66
1, 823670, Note_off_c, 0, 60, 66
1, 823679, Poly_aftertouch_c, 0, 90, 0
1, 823681, Note_on_c, 0, 99, 59
1, 823684, Note_off_c, 0, 96, 66
1, 823701, Note_off_c, 0, 99, 63
1, 823791, Note_off_c, 0, 102, 65
1, 823971, Note_on_c, 0, 75, 85
1, 823983, Note_on_c, 0, 99, 91
1, 823985, Note_on_c, 0, 87, 84
1, 824001, Note_off_c, 0, 99, 72
1, 824003, Note_off_c, 0, 87, 73
1, 824006, Note_off_c, 0, 75, 60
1, 824056, Note_on_c, 0, 72, 93
1, 824062, Note_on_c, 0, 84, 99
1, 824062, Note_on_c, 0, 96, 95
1, 824068, Note_on_c, 0, 98, 86
1, 824075, Note_off_c, 0, 72, 70
1, 824081, Note_off_c, 0, 98, 71
1, 824092, Note_off_c, 0, 84, 62
1, 824115, Note_off_c, 0, 96, 65
1, 824267, Note_on_c, 0, 69, 100
1, 824305, Note_off_c, 0, 69, 68
1, 824384, Note_on_c, 0, 81, 79
1, 824387, Note_on_c, 0, 93, 91
1, 824405, Note_off_c, 0, 93, 67
1, 824408, Note_off_c, 0, 81, 65
1, 824480, Note_on_c, 0, 66, 92
1, 824548, Note_off_c, 0, 66, 54
1, 824563, Note_on_c, 0, 90, 98
1, 824566, Note_on_c, 0, 78, 87
1, 824599, Note_off_c, 0, 78, 57
1, 824605, Note_off_c, 0, 90, 61
1, 824662, Note_on_c, 0, 63, 95
1, 824699, Note_off_c, 0, 63, 66
1, 824735, Note_on_c, 0, 87, 97
1, 824738, Note_on_c, 0, 75, 88
1, 824782, Note_off_c, 0, 75, 62
1, 824783, Note_off_c, 0, 87, 63
1, 824837, Note_on_c, 0, 60, 90
1, 824842, Note_on_c, 0, 59, 83
1, 824888, Note_off_c, 0, 60, 63
1, 824890, Note_off_c, 0, 59, 52
1, 824931, Note_on_c, 0, 84, 89
1, 824936, Note_on_c, 0, 72, 82
1, 824960, Note_off_c, 0, 72, 67
1, 824973, Note_off_c, 0, 84, 62
1, 825020, Note_on_c, 0, 57, 99
1, 825073, Note_off_c, 0, 57, 56
1, 825110, Note_on_c, 0, 81, 94
1, 825117, Note_on_c, 0, 69, 80
1, 825130, Note_off_c, 0, 81, 59
1, 825137, Note_off_c, 0, 69, 69
1, 825203, Note_on_c, 0, 54, 95
1, 825284, Note_on_c, 0, 78, 85
1, 825285, Note_off_c, 0, 54, 62
1, 825285, Note_on_c, 0, 66, 83
1, 825308, Note_off_c, 0, 66, 65
1, 825309, Note_off_c, 0, 78, 58
1, 825376, Note_on_c, 0, 51, 91
1, 825399, Note_off_c, 0, 51, 68
1, 825437, Note_on_c, 0, 52, 13
1, 825459, Note_on_c, 0, 75, 87
1, 825463, Note_on_c, 0, 63, 82
1, 825487, Note_off_c, 0, 52, 42
1, 825492, Note_off_c, 0, 63, 60
1, 825505, Note_off_c, 0, 75, 62
1, 825557, Note_on_c, 0, 48, 96
1, 825633, Note_off_c, 0, 48, 50
1, 825649, Note_on_c, 0, 72, 92
1, 825654, Note_on_c, 0, 60, 81
1, 825678, Note_off_c, 0, 60, 68
1, 825688, Note_off_c, 0, 72, 60
1, 825747, Note_on_c, 0, 45, 96
1, 825825, Note_on_c, 0, 69, 93
1, 825826, Note_off_c, 0, 45, 60
1, 825830, Note_on_c, 0, 57, 80
1, 825851, Note_off_c, 0, 57, 70
1, 825854, Note_off_c, 0, 69, 58
1, 825921, Note_on_c, 0, 42, 94
1, 825940, Control_c, 0, 64, 119
1, 825954, Control_c, 0, 64, 90
1, 825969, Control_c, 0, 64, 74
1, 825970, Note_off_c, 0, 42, 65
1, 825984, Control_c, 0, 64, 61
1, 825999, Control_c, 0, 64, 27
1, 826006, Note_on_c, 0, 66, 90
1, 826007, Note_on_c, 0, 54, 86
1, 826014, Control_c, 0, 64, 24
1, 826028, Control_c, 0, 64, 36
1, 826043, Control_c, 0, 64, 44
1, 826048, Note_off_c, 0, 54, 62
1, 826054, Note_off_c, 0, 66, 63
1, 826058, Control_c, 0, 64, 47
1, 826072, Control_c, 0, 64, 48
1, 826087, Control_c, 0, 64, 49
1, 826091, Note_on_c, 0, 41, 98
1, 826117, Control_c, 0, 64, 49
1, 826132, Control_c, 0, 64, 50
1, 826146, Note_off_c, 0, 41, 60
1, 826146, Control_c, 0, 64, 51
1, 826161, Control_c, 0, 64, 53
1, 826174, Note_on_c, 0, 65, 90
1, 826176, Control_c, 0, 64, 56
1, 826180, Note_on_c, 0, 53, 80
1, 826191, Control_c, 0, 64, 59
1, 826206, Note_off_c, 0, 53, 71
1, 826206, Control_c, 0, 64, 61
1, 826207, Note_off_c, 0, 65, 62
1, 826221, Control_c, 0, 64, 63
1, 826235, Control_c, 0, 64, 64
1, 826269, Note_on_c, 0, 39, 86
1, 826280, Control_c, 0, 64, 62
1, 826295, Control_c, 0, 64, 54
1, 826302, Note_off_c, 0, 39, 65
1, 826310, Control_c, 0, 64, 17
1, 826325, Control_c, 0, 64, 0
1, 826341, Note_on_c, 0, 63, 89
1, 826343, Note_on_c, 0, 51, 78
1, 826376, Note_off_c, 0, 51, 66
1, 826404, Note_off_c, 0, 63, 61
1, 826506, Note_on_c, 0, 50, 92
1, 826510, Note_on_c, 0, 62, 97
1, 826513, Note_on_c, 0, 38, 75
1, 826525, Control_c, 0, 64, 79
1, 826529, Note_off_c, 0, 50, 72
1, 826533, Note_off_c, 0, 62, 65
1, 826540, Control_c, 0, 64, 127
1, 826541, Note_off_c, 0, 38, 65
1, 826811, Note_on_c, 0, 50, 55
1, 826833, Note_on_c, 0, 53, 66
1, 826846, Note_off_c, 0, 50, 51
1, 826848, Note_on_c, 0, 58, 53
1, 826889, Note_off_c, 0, 53, 65
1, 826900, Note_on_c, 0, 82, 101
1, 826902, Note_on_c, 0, 70, 95
1, 826906, Note_on_c, 0, 65, 70
1, 826921, Note_off_c, 0, 70, 69
1, 826924, Note_off_c, 0, 58, 64
1, 826924, Note_on_c, 0, 77, 64
1, 826924, Note_off_c, 0, 65, 66
1, 826930, Poly_aftertouch_c, 0, 52, 0
1, 826935, Note_off_c, 0, 82, 69
1, 826942, Note_off_c, 0, 77, 67
1, 826945, Note_on_c, 0, 64, 19
1, 826988, Note_off_c, 0, 64, 46
1, 826994, Poly_aftertouch_c, 0, 53, 0
1, 827058, Control_c, 0, 64, 93
1, 827073, Control_c, 0, 64, 0
1, 827121, Note_on_c, 0, 61, 108
1, 827125, Note_on_c, 0, 49, 92
1, 827139, Note_on_c, 0, 37, 68
1, 827141, Control_c, 0, 64, 67
1, 827146, Note_off_c, 0, 61, 67
1, 827156, Note_off_c, 0, 49, 63
1, 827156, Control_c, 0, 64, 92
1, 827167, Note_off_c, 0, 37, 62
1, 827171, Control_c, 0, 64, 127
1, 827408, Note_on_c, 0, 49, 69
1, 827434, Note_on_c, 0, 53, 66
1, 827449, Note_off_c, 0, 49, 64
1, 827463, Note_on_c, 0, 58, 56
1, 827487, Note_off_c, 0, 53, 62
1, 827514, Note_on_c, 0, 82, 96
1, 827518, Note_on_c, 0, 70, 90
1, 827523, Note_on_c, 0, 65, 69
1, 827526, Note_on_c, 0, 77, 81
1, 827541, Note_off_c, 0, 58, 63
1, 827541, Note_off_c, 0, 65, 66
1, 827547, Note_off_c, 0, 70, 62
1, 827556, Note_off_c, 0, 82, 69
1, 827558, Note_off_c, 0, 77, 62
1, 827624, Poly_aftertouch_c, 0, 64, 0
1, 827705, Control_c, 0, 64, 80
1, 827719, Control_c, 0, 64, 0
1, 827735, Note_on_c, 0, 60, 107
1, 827739, Note_on_c, 0, 48, 86
1, 827764, Control_c, 0, 64, 68
1, 827765, Note_off_c, 0, 48, 70
1, 827768, Note_off_c, 0, 60, 66
1, 827770, Note_on_c, 0, 36, 41
1, 827779, Control_c, 0, 64, 91
1, 827793, Control_c, 0, 64, 127
1, 827806, Note_off_c, 0, 36, 51
1, 828036, Note_on_c, 0, 48, 63
1, 828068, Note_off_c, 0, 48, 62
1, 828074, Note_on_c, 0, 53, 55
1, 828089, Note_on_c, 0, 56, 52
1, 828109, Note_off_c, 0, 53, 63
1, 828146, Note_on_c, 0, 80, 90
1, 828149, Note_on_c, 0, 68, 92
1, 828151, Note_on_c, 0, 77, 77
1, 828152, Note_on_c, 0, 72, 76
1, 828152, Note_on_c, 0, 65, 73
1, 828152, Note_off_c, 0, 56, 65
1, 828168, Note_off_c, 0, 68, 69
1, 828170, Note_off_c, 0, 65, 67
1, 828180, Note_off_c, 0, 80, 65
1, 828182, Note_off_c, 0, 72, 64
1, 828188, Note_off_c, 0, 77, 62
1, 828194, Note_on_c, 0, 64, 15
1, 828238, Note_off_c, 0, 64, 49
1, 828245, Poly_aftertouch_c, 0, 54, 0
1, 828320, Control_c, 0, 64, 85
1, 828335, Control_c, 0, 64, 0
1, 828361, Note_on_c, 0, 58, 108
1, 828367, Note_on_c, 0, 46, 85
1, 828374, Note_on_c, 0, 34, 71
1, 828379, Control_c, 0, 64, 58
1, 828391, Note_off_c, 0, 58, 66
1, 828392, Note_off_c, 0, 46, 69
1, 828394, Control_c, 0, 64, 78
1, 828401, Note_off_c, 0, 34, 63
1, 828409, Control_c, 0, 64, 127
1, 828702, Note_on_c, 0, 52, 60
1, 828726, Note_on_c, 0, 55, 47
1, 828748, Note_on_c, 0, 60, 52
1, 828760, Note_on_c, 0, 64, 90
1, 828770, Note_on_c, 0, 79, 95
1, 828772, Note_on_c, 0, 70, 92
1, 828774, Note_on_c, 0, 67, 89
1, 828775, Note_on_c, 0, 76, 83
1, 828778, Note_off_c, 0, 64, 73
1, 828790, Note_off_c, 0, 60, 65
1, 828792, Note_off_c, 0, 67, 71
1, 828797, Note_off_c, 0, 55, 65
1, 828806, Note_off_c, 0, 52, 62
1, 828807, Note_off_c, 0, 79, 66
1, 828814, Note_off_c, 0, 70, 68
1, 828819, Note_off_c, 0, 76, 65
1, 828951, Control_c, 0, 64, 93
1, 828966, Control_c, 0, 64, 55
1, 828981, Control_c, 0, 64, 0
1, 828996, Note_on_c, 0, 56, 112
1, 829005, Note_on_c, 0, 44, 97
1, 829011, Control_c, 0, 64, 11
1, 829016, Note_on_c, 0, 32, 74
1, 829024, Note_off_c, 0, 56, 68
1, 829026, Control_c, 0, 64, 71
1, 829041, Note_off_c, 0, 32, 65
1, 829041, Control_c, 0, 64, 103
1, 829047, Note_off_c, 0, 44, 62
1, 829055, Control_c, 0, 64, 127
1, 829335, Note_on_c, 0, 53, 63
1, 829362, Note_on_c, 0, 56, 61
1, 829400, Note_on_c, 0, 60, 49
1, 829404, Note_on_c, 0, 65, 90
1, 829409, Note_on_c, 0, 84, 93
1, 829416, Note_on_c, 0, 72, 95
1, 829418, Note_on_c, 0, 80, 86
1, 829421, Note_off_c, 0, 65, 74
1, 829423, Note_on_c, 0, 77, 86
1, 829438, Note_off_c, 0, 60, 65
1, 829440, Note_off_c, 0, 72, 65
1, 829443, Note_off_c, 0, 53, 65
1, 829450, Note_off_c, 0, 56, 65
1, 829451, Note_off_c, 0, 84, 69
1, 829459, Note_off_c, 0, 77, 67
1, 829466, Note_off_c, 0, 80, 66
1, 829582, Control_c, 0, 64, 87
1, 829596, Control_c, 0, 64, 0
1, 829631, Note_on_c, 0, 58, 109
1, 829639, Note_on_c, 0, 46, 96
1, 829641, Control_c, 0, 64, 30
1, 829652, Note_on_c, 0, 34, 71
1, 829656, Control_c, 0, 64, 73
1, 829659, Note_off_c, 0, 58, 65
1, 829670, Control_c, 0, 64, 105
1, 829677, Note_off_c, 0, 34, 63
1, 829678, Note_off_c, 0, 46, 60
1, 829685, Control_c, 0, 64, 127
1, 829928, Note_on_c, 0, 46, 72
1, 829965, Note_on_c, 0, 49, 64
1, 829976, Note_on_c, 0, 54, 63
1, 829985, Note_off_c, 0, 46, 60
1, 830032, Note_on_c, 0, 82, 96
1, 830033, Note_on_c, 0, 61, 88
1, 830033, Note_on_c, 0, 70, 98
1, 830037, Note_on_c, 0, 73, 92
1, 830037, Note_on_c, 0, 78, 84
1, 830049, Note_off_c, 0, 54, 64
1, 830053, Note_off_c, 0, 61, 71
1, 830058, Note_off_c, 0, 49, 64
1, 830060, Note_off_c, 0, 70, 63
1, 830070, Note_off_c, 0, 82, 69
1, 830077, Note_off_c, 0, 73, 65
1, 830085, Note_off_c, 0, 78, 64
1, 830241, Control_c, 0, 64, 81
1, 830255, Control_c, 0, 64, 0
1, 830260, Note_on_c, 0, 60, 110
1, 830265, Note_on_c, 0, 48, 90
1, 830274, Note_on_c, 0, 36, 75
1, 830293, Note_off_c, 0, 60, 65
1, 830297, Note_off_c, 0, 48, 63
1, 830298, Note_off_c, 0, 36, 64
1, 830300, Control_c, 0, 64, 64
1, 830315, Control_c, 0, 64, 87
1, 830331, Control_c, 0, 64, 127
1, 830569, Note_on_c, 0, 48, 57
1, 830588, Note_off_c, 0, 48, 66
1, 830602, Note_on_c, 0, 53, 56
1, 830610, Note_on_c, 0, 56, 59
1, 830635, Note_off_c, 0, 53, 63
1, 830654, Note_off_c, 0, 56, 52
1, 830671, Note_on_c, 0, 80, 93
1, 830673, Note_on_c, 0, 68, 91
1, 830674, Note_on_c, 0, 65, 86
1, 830675, Note_on_c, 0, 77, 84
1, 830677, Note_on_c, 0, 72, 84
1, 830679, Poly_aftertouch_c, 0, 56, 0
1, 830694, Note_off_c, 0, 65, 71
1, 830702, Note_off_c, 0, 68, 61
1, 830715, Note_off_c, 0, 72, 62
1, 830716, Note_off_c, 0, 80, 64
1, 830716, Note_off_c, 0, 77, 68
1, 830870, Control_c, 0, 64, 82
1, 830885, Control_c, 0, 64, 0
1, 830904, Note_on_c, 0, 60, 109
1, 830904, Note_on_c, 0, 48, 86
1, 830916, Note_on_c, 0, 36, 61
1, 830930, Control_c, 0, 64, 68
1, 830931, Note_off_c, 0, 48, 68
1, 830933, Note_off_c, 0, 60, 68
1, 830943, Note_off_c, 0, 36, 55
1, 830944, Control_c, 0, 64, 92
1, 830959, Control_c, 0, 64, 127
1, 831221, Note_on_c, 0, 52, 59
1, 831239, Note_on_c, 0, 55, 48
1, 831249, Note_on_c, 0, 60, 57
1, 831297, Note_on_c, 0, 64, 87
1, 831300, Note_on_c, 0, 79, 93
1, 831301, Note_on_c, 0, 70, 82
1, 831302, Note_on_c, 0, 67, 93
1, 831305, Note_on_c, 0, 76, 73
1, 831312, Note_off_c, 0, 60, 63
1, 831316, Note_off_c, 0, 64, 74
1, 831320, Note_off_c, 0, 55, 64
1, 831322, Note_off_c, 0, 70, 71
1, 831327, Note_off_c, 0, 76, 69
1, 831332, Note_off_c, 0, 52, 62
1, 831339, Note_off_c, 0, 67, 58
1, 831342, Note_off_c, 0, 79, 65
1, 831434, Control_c, 0, 64, 106
1, 831443, Note_on_c, 0, 41, 67
1, 831449, Control_c, 0, 64, 64
1, 831464, Control_c, 0, 64, 0
1, 831474, Note_on_c, 0, 48, 67
1, 831497, Note_off_c, 0, 41, 60
1, 831515, Note_on_c, 0, 77, 100
1, 831517, Note_on_c, 0, 68, 88
1, 831518, Note_on_c, 0, 65, 91
1, 831523, Control_c, 0, 64, 71
1, 831524, Note_on_c, 0, 56, 104
1, 831527, Note_on_c, 0, 72, 74
1, 831538, Control_c, 0, 64, 127
1, 831550, Note_off_c, 0, 48, 63
1, 831556, Note_off_c, 0, 65, 65
1, 831558, Note_off_c, 0, 72, 58
1, 831559, Note_off_c, 0, 56, 63
1, 831564, Note_off_c, 0, 68, 64
1, 831568, Note_off_c, 0, 77, 68
1, 831634, Control_c, 0, 64, 104
1, 831649, Control_c, 0, 64, 64
1, 831664, Control_c, 0, 64, 0
1, 831916, Control_c, 0, 64, 69
1, 831930, Note_on_c, 0, 77, 96
1, 831931, Control_c, 0, 64, 113
1, 831934, Note_on_c, 0, 53, 104
1, 831934, Note_on_c, 0, 65, 99
1, 831935, Note_on_c, 0, 70, 86
1, 831936, Note_on_c, 0, 46, 92
1, 831942, Note_on_c, 0, 73, 80
1, 831946, Control_c, 0, 64, 127
1, 831963, Note_off_c, 0, 73, 71
1, 831967, Note_off_c, 0, 53, 70
1, 831969, Note_off_c, 0, 65, 67
1, 831969, Note_off_c, 0, 70, 65
1, 831976, Note_off_c, 0, 46, 65
1, 831976, Control_c, 0, 64, 113
1, 831980, Note_off_c, 0, 77, 63
1, 831990, Control_c, 0, 64, 78
1, 832005, Control_c, 0, 64, 0
1, 832150, Note_on_c, 0, 77, 100
1, 832152, Note_on_c, 0, 68, 89
1, 832153, Note_on_c, 0, 65, 96
1, 832153, Control_c, 0, 64, 66
1, 832154, Note_on_c, 0, 53, 95
1, 832155, Note_on_c, 0, 72, 76
1, 832156, Note_on_c, 0, 41, 92
1, 832168, Control_c, 0, 64, 127
1, 832174, Note_off_c, 0, 53, 75
1, 832191, Note_on_c, 0, 76, 35
1, 832191, Note_off_c, 0, 65, 67
1, 832192, Note_off_c, 0, 41, 63
1, 832203, Note_off_c, 0, 77, 65
1, 832209, Note_off_c, 0, 68, 64
1, 832212, Note_off_c, 0, 72, 60
1, 832225, Note_off_c, 0, 76, 34
1, 832257, Control_c, 0, 64, 93
1, 832272, Control_c, 0, 64, 61
1, 832287, Control_c, 0, 64, 0
1, 832546, Control_c, 0, 64, 76
1, 832555, Note_on_c, 0, 65, 95
1, 832555, Note_on_c, 0, 53, 99
1, 832557, Note_on_c, 0, 41, 96
1, 832560, Note_on_c, 0, 34, 93
1, 832560, Note_on_c, 0, 58, 86
1, 832561, Control_c, 0, 64, 127
1, 832564, Note_on_c, 0, 61, 81
1, 832585, Note_off_c, 0, 41, 66
1, 832592, Note_off_c, 0, 53, 69
1, 832594, Note_off_c, 0, 61, 64
1, 832595, Note_off_c, 0, 58, 66
1, 832602, Note_off_c, 0, 34, 62
1, 832609, Note_off_c, 0, 65, 66
1, 832635, Control_c, 0, 64, 82
1, 832649, Control_c, 0, 64, 0
1, 832775, Note_on_c, 0, 65, 91
1, 832779, Note_on_c, 0, 41, 99
1, 832780, Note_on_c, 0, 53, 94
1, 832782, Note_on_c, 0, 29, 90
1, 832782, Note_on_c, 0, 56, 90
1, 832785, Control_c, 0, 64, 64
1, 832787, Note_on_c, 0, 60, 80
1, 832799, Control_c, 0, 64, 127
1, 832811, Note_off_c, 0, 29, 70
1, 832811, Note_off_c, 0, 41, 66
1, 832816, Note_on_c, 0, 64, 40
1, 832817, Note_off_c, 0, 64, 127
1, 832817, Note_off_c, 0, 53, 70
1, 832837, Note_off_c, 0, 65, 65
1, 832851, Note_off_c, 0, 60, 63
1, 832851, Poly_aftertouch_c, 0, 64, 0
1, 832855, Note_off_c, 0, 56, 62
1, 832962, Control_c, 0, 64, 108
1, 832977, Control_c, 0, 64, 69
1, 832992, Control_c, 0, 64, 0
1, 833414, Control_c, 0, 64, 66
1, 833420, Note_on_c, 0, 65, 93
1, 833422, Note_on_c, 0, 53, 98
1, 833422, Note_on_c, 0, 56, 90
1, 833428, Note_on_c, 0, 41, 98
1, 833428, Control_c, 0, 64, 95
1, 833431, Note_on_c, 0, 60, 80
1, 833432, Note_on_c, 0, 29, 85
1, 833443, Control_c, 0, 64, 127
1, 833454, Note_off_c, 0, 53, 72
1, 833461, Note_off_c, 0, 29, 66
1, 833464, Note_off_c, 0, 41, 67
1, 833473, Note_off_c, 0, 56, 70
1, 833489, Note_off_c, 0, 60, 65
1, 833509, Note_off_c, 0, 65, 67
1, 833682, Control_c, 0, 64, 98
1, 833696, Control_c, 0, 64, 76
1, 833711, Control_c, 0, 64, 49
1, 833726, Control_c, 0, 64, 0
1, 834014, Control_c, 0, 67, 8
1, 834044, Control_c, 0, 67, 8
1, 834103, Control_c, 0, 67, 9
1, 834118, Control_c, 0, 67, 10
1, 834133, Control_c, 0, 67, 13
1, 834148, Control_c, 0, 67, 16
1, 834163, Control_c, 0, 67, 19
1, 834177, Control_c, 0, 67, 20
1, 834192, Control_c, 0, 67, 21
1, 834206, Control_c, 0, 67, 21
1, 834221, Control_c, 0, 67, 23
1, 834236, Control_c, 0, 67, 25
1, 834251, Control_c, 0, 67, 28
1, 834266, Control_c, 0, 67, 32
1, 834281, Control_c, 0, 67, 34
1, 834295, Control_c, 0, 67, 36
1, 834311, Control_c, 0, 67, 38
1, 834326, Control_c, 0, 67, 40
1, 834341, Control_c, 0, 67, 41
1, 834355, Control_c, 0, 67, 43
1, 834370, Control_c, 0, 67, 45
1, 834385, Control_c, 0, 64, 19
1, 834385, Control_c, 0, 67, 48
1, 834400, Control_c, 0, 64, 26
1, 834400, Control_c, 0, 67, 51
1, 834415, Control_c, 0, 64, 28
1, 834415, Control_c, 0, 67, 53
1, 834430, Control_c, 0, 64, 29
1, 834430, Control_c, 0, 67, 54
1, 834444, Control_c, 0, 67, 56
1, 834459, Control_c, 0, 67, 57
1, 834474, Control_c, 0, 64, 30
1, 834474, Control_c, 0, 67, 58
1, 834489, Control_c, 0, 64, 31
1, 834489, Control_c, 0, 67, 59
1, 834504, Control_c, 0, 64, 35
1, 834504, Control_c, 0, 67, 61
1, 834518, Control_c, 0, 64, 38
1, 834518, Control_c, 0, 67, 64
1, 834533, Control_c, 0, 64, 40
1, 834533, Control_c, 0, 67, 65
1, 834548, Control_c, 0, 64, 41
1, 834548, Control_c, 0, 67, 67
1, 834563, Control_c, 0, 67, 69
1, 834578, Control_c, 0, 64, 42
1, 834578, Control_c, 0, 67, 70
1, 834600, Control_c, 0, 67, 71
1, 834615, Control_c, 0, 64, 42
1, 834615, Control_c, 0, 67, 73
1, 834630, Control_c, 0, 64, 43
1, 834630, Control_c, 0, 67, 75
1, 834644, Control_c, 0, 64, 45
1, 834644, Control_c, 0, 67, 77
1, 834659, Control_c, 0, 64, 46
1, 834659, Control_c, 0, 67, 79
1, 834674, Control_c, 0, 64, 47
1, 834674, Control_c, 0, 67, 80
1, 834689, Control_c, 0, 67, 82
1, 834704, Control_c, 0, 67, 84
1, 834718, Control_c, 0, 67, 86
1, 834733, Control_c, 0, 67, 88
1, 834748, Control_c, 0, 64, 47
1, 834748, Control_c, 0, 67, 92
1, 834763, Control_c, 0, 67, 94
1, 834778, Control_c, 0, 64, 48
1, 834778, Control_c, 0, 67, 98
1, 834792, Control_c, 0, 64, 49
1, 834792, Control_c, 0, 67, 101
1, 834807, Control_c, 0, 67, 105
1, 834822, Control_c, 0, 67, 109
1, 834836, Control_c, 0, 67, 114
1, 834851, Control_c, 0, 64, 49
1, 834851, Control_c, 0, 67, 118
1, 834866, Control_c, 0, 67, 123
1, 834881, Control_c, 0, 64, 50
1, 834881, Control_c, 0, 67, 127
1, 834896, Control_c, 0, 64, 50
1, 834910, Control_c, 0, 64, 51
1, 834925, Control_c, 0, 64, 52
1, 834940, Control_c, 0, 64, 52
1, 834970, Control_c, 0, 64, 53
1, 834999, Control_c, 0, 64, 53
1, 835014, Control_c, 0, 64, 54
1, 835029, Control_c, 0, 64, 55
1, 835044, Control_c, 0, 64, 56
1, 835059, Control_c, 0, 64, 56
1, 835089, Control_c, 0, 64, 57
1, 835119, Control_c, 0, 64, 57
1, 835133, Control_c, 0, 64, 59
1, 835148, Control_c, 0, 64, 60
1, 835163, Control_c, 0, 64, 61
1, 835178, Control_c, 0, 64, 62
1, 835193, Control_c, 0, 64, 63
1, 835208, Control_c, 0, 64, 63
1, 835223, Control_c, 0, 64, 64
1, 835238, Control_c, 0, 64, 65
1, 835253, Control_c, 0, 64, 66
1, 835267, Control_c, 0, 64, 68
1, 835282, Control_c, 0, 64, 69
1, 835297, Control_c, 0, 64, 70
1, 835312, Control_c, 0, 64, 70
1, 835327, Control_c, 0, 64, 72
1, 835348, Control_c, 0, 64, 73
1, 835363, Control_c, 0, 64, 75
1, 835378, Control_c, 0, 64, 76
1, 835393, Control_c, 0, 64, 78
1, 835408, Control_c, 0, 64, 79
1, 835423, Control_c, 0, 64, 81
1, 835438, Control_c, 0, 64, 83
1, 835452, Control_c, 0, 64, 84
1, 835467, Control_c, 0, 64, 86
1, 835482, Control_c, 0, 64, 88
1, 835497, Control_c, 0, 64, 90
1, 835512, Control_c, 0, 64, 92
1, 835527, Control_c, 0, 64, 94
1, 835541, Control_c, 0, 64, 96
1, 835556, Control_c, 0, 64, 99
1, 835571, Control_c, 0, 64, 101
1, 835585, Control_c, 0, 64, 104
1, 835600, Control_c, 0, 64, 107
1, 835615, Control_c, 0, 64, 111
1, 835630, Control_c, 0, 64, 116
1, 835645, Control_c, 0, 64, 127
1, 835655, Note_on_c, 0, 65, 35
1, 835676, Note_on_c, 0, 49, 38
1, 835678, Note_on_c, 0, 53, 30
1, 835681, Note_on_c, 0, 56, 35
1, 835682, Note_on_c, 0, 37, 35
1, 835690, Note_on_c, 0, 61, 32
1, 835702, Note_off_c, 0, 65, 0
1, 835702, Note_on_c, 0, 65, 16
1, 835898, Note_off_c, 0, 53, 45
1, 835904, Note_off_c, 0, 61, 42
1, 835920, Note_off_c, 0, 56, 42
1, 836007, Note_off_c, 0, 65, 48
1, 836046, Control_c, 0, 67, 126
1, 836061, Control_c, 0, 67, 124
1, 836076, Control_c, 0, 67, 122
1, 836098, Control_c, 0, 67, 119
1, 836113, Control_c, 0, 67, 118
1, 836123, Note_off_c, 0, 49, 41
1, 836128, Control_c, 0, 67, 117
1, 836143, Control_c, 0, 67, 116
1, 836290, Control_c, 0, 67, 117
1, 836311, Note_on_c, 0, 68, 54
1, 836320, Note_on_c, 0, 48, 40
1, 836320, Control_c, 0, 67, 117
1, 836328, Note_on_c, 0, 36, 42
1, 836335, Control_c, 0, 64, 108
1, 836340, Note_on_c, 0, 56, 37
1, 836350, Control_c, 0, 64, 96
1, 836350, Control_c, 0, 67, 118
1, 836351, Note_on_c, 0, 63, 34
1, 836365, Control_c, 0, 64, 86
1, 836380, Control_c, 0, 64, 78
1, 836394, Control_c, 0, 64, 68
1, 836394, Control_c, 0, 67, 118
1, 836409, Control_c, 0, 64, 60
1, 836424, Control_c, 0, 64, 41
1, 836439, Control_c, 0, 64, 26
1, 836454, Control_c, 0, 64, 0
1, 836469, Control_c, 0, 67, 119
1, 836502, Note_off_c, 0, 37, 43
1, 836616, Control_c, 0, 67, 118
1, 836631, Control_c, 0, 64, 46
1, 836646, Control_c, 0, 64, 61
1, 836661, Control_c, 0, 64, 64
1, 836661, Control_c, 0, 67, 118
1, 836676, Control_c, 0, 64, 67
1, 836690, Control_c, 0, 64, 70
1, 836690, Control_c, 0, 67, 117
1, 836706, Control_c, 0, 64, 74
1, 836706, Control_c, 0, 67, 117
1, 836721, Control_c, 0, 64, 79
1, 836721, Control_c, 0, 67, 116
1, 836736, Control_c, 0, 64, 85
1, 836751, Control_c, 0, 64, 90
1, 836751, Control_c, 0, 67, 116
1, 836766, Control_c, 0, 64, 95
1, 836766, Control_c, 0, 67, 115
1, 836780, Control_c, 0, 64, 102
1, 836780, Control_c, 0, 67, 115
1, 836795, Control_c, 0, 64, 111
1, 836795, Control_c, 0, 67, 114
1, 836810, Control_c, 0, 64, 127
1, 836810, Control_c, 0, 67, 114
1, 836825, Control_c, 0, 67, 113
1, 836847, Control_c, 0, 67, 109
1, 836862, Control_c, 0, 67, 103
1, 836877, Control_c, 0, 67, 98
1, 836892, Control_c, 0, 67, 93
1, 836907, Control_c, 0, 67, 88
1, 836921, Control_c, 0, 67, 84
1, 836936, Control_c, 0, 67, 79
1, 836940, Note_off_c, 0, 48, 48
1, 836947, Note_off_c, 0, 56, 45
1, 836951, Control_c, 0, 67, 74
1, 836966, Control_c, 0, 67, 69
1, 836981, Control_c, 0, 67, 63
1, 836995, Control_c, 0, 67, 57
1, 837010, Control_c, 0, 67, 51
1, 837025, Control_c, 0, 67, 45
1, 837039, Control_c, 0, 67, 40
1, 837054, Control_c, 0, 67, 35
1, 837065, Note_off_c, 0, 63, 48
1, 837069, Control_c, 0, 67, 30
1, 837084, Control_c, 0, 67, 27
1, 837099, Control_c, 0, 67, 23
1, 837113, Control_c, 0, 67, 21
1, 837128, Control_c, 0, 67, 19
1, 837143, Control_c, 0, 67, 18
1, 837158, Control_c, 0, 67, 18
1, 837161, Note_off_c, 0, 68, 51
1, 837292, Control_c, 0, 67, 19
1, 837306, Control_c, 0, 67, 19
1, 837321, Control_c, 0, 67, 20
1, 837336, Control_c, 0, 67, 21
1, 837351, Control_c, 0, 67, 21
1, 837365, Control_c, 0, 67, 22
1, 837380, Control_c, 0, 67, 22
1, 837395, Control_c, 0, 67, 23
1, 837410, Control_c, 0, 67, 23
1, 837425, Control_c, 0, 67, 24
1, 837439, Control_c, 0, 67, 24
1, 837443, Note_on_c, 0, 70, 56
1, 837457, Note_on_c, 0, 34, 41
1, 837459, Note_on_c, 0, 66, 49
1, 837460, Note_on_c, 0, 58, 46
1, 837471, Note_on_c, 0, 46, 36
1, 837484, Control_c, 0, 64, 117
1, 837484, Control_c, 0, 67, 25
1, 837499, Control_c, 0, 64, 96
1, 837515, Control_c, 0, 64, 84
1, 837529, Control_c, 0, 64, 76
1, 837544, Control_c, 0, 64, 73
1, 837549, Note_off_c, 0, 36, 41
1, 837559, Control_c, 0, 64, 73
1, 837574, Control_c, 0, 64, 76
1, 837596, Control_c, 0, 64, 81
1, 837596, Control_c, 0, 67, 24
1, 837611, Control_c, 0, 64, 87
1, 837611, Control_c, 0, 67, 23
1, 837626, Control_c, 0, 64, 96
1, 837626, Control_c, 0, 67, 23
1, 837640, Control_c, 0, 64, 108
1, 837640, Control_c, 0, 67, 22
1, 837655, Control_c, 0, 64, 127
1, 837655, Control_c, 0, 67, 21
1, 837670, Control_c, 0, 67, 20
1, 837685, Note_off_c, 0, 58, 60
1, 837685, Control_c, 0, 67, 19
1, 837700, Control_c, 0, 67, 18
1, 837713, Note_off_c, 0, 46, 47
1, 837715, Control_c, 0, 67, 17
1, 837730, Note_off_c, 0, 66, 56
1, 837730, Control_c, 0, 67, 16
1, 837744, Control_c, 0, 67, 13
1, 837751, Note_off_c, 0, 70, 61
1, 837759, Control_c, 0, 67, 0
1, 837870, Note_on_c, 0, 72, 64
1, 837873, Note_on_c, 0, 60, 56
1, 837873, Note_on_c, 0, 32, 52
1, 837878, Note_on_c, 0, 68, 55
1, 837883, Note_on_c, 0, 44, 47
1, 837890, Note_off_c, 0, 34, 41
1, 837937, Note_off_c, 0, 44, 60
1, 837937, Note_off_c, 0, 60, 62
1, 837967, Note_off_c, 0, 72, 62
1, 837969, Note_off_c, 0, 68, 61
1, 838099, Note_on_c, 0, 73, 70
1, 838105, Note_on_c, 0, 61, 59
1, 838106, Note_on_c, 0, 70, 61
1, 838109, Note_on_c, 0, 42, 45
1, 838112, Note_on_c, 0, 30, 52
1, 838129, Control_c, 0, 64, 118
1, 838144, Control_c, 0, 64, 88
1, 838159, Control_c, 0, 64, 70
1, 838174, Control_c, 0, 64, 29
1, 838179, Note_off_c, 0, 32, 37
1, 838188, Control_c, 0, 64, 0
1, 838233, Control_c, 0, 64, 24
1, 838248, Control_c, 0, 64, 61
1, 838262, Control_c, 0, 64, 68
1, 838277, Control_c, 0, 64, 76
1, 838292, Control_c, 0, 64, 90
1, 838308, Control_c, 0, 64, 108
1, 838323, Control_c, 0, 64, 127
1, 838355, Note_off_c, 0, 73, 61
1, 838358, Note_off_c, 0, 61, 60
1, 838386, Note_off_c, 0, 70, 63
1, 838510, Note_on_c, 0, 70, 70
1, 838518, Note_on_c, 0, 58, 56
1, 838520, Note_on_c, 0, 66, 61
1, 838582, Note_off_c, 0, 58, 58
1, 838606, Note_off_c, 0, 70, 64
1, 838612, Note_off_c, 0, 66, 61
1, 838726, Note_on_c, 0, 66, 69
1, 838743, Note_on_c, 0, 54, 52
1, 838747, Note_on_c, 0, 63, 59
1, 838758, Control_c, 0, 64, 105
1, 838773, Control_c, 0, 64, 79
1, 838788, Control_c, 0, 64, 63
1, 838803, Control_c, 0, 64, 0
1, 838848, Control_c, 0, 64, 14
1, 838863, Control_c, 0, 64, 60
1, 838877, Control_c, 0, 64, 68
1, 838892, Control_c, 0, 64, 76
1, 838907, Control_c, 0, 64, 87
1, 838922, Control_c, 0, 64, 104
1, 838937, Control_c, 0, 64, 127
1, 838958, Note_off_c, 0, 30, 50
1, 838964, Note_off_c, 0, 63, 57
1, 838983, Note_off_c, 0, 42, 47
1, 838985, Note_off_c, 0, 54, 64
1, 839000, Note_off_c, 0, 66, 59
1, 839137, Note_on_c, 0, 65, 64
1, 839141, Note_on_c, 0, 43, 49
1, 839151, Note_on_c, 0, 31, 42
1, 839152, Control_c, 0, 64, 89
1, 839153, Note_on_c, 0, 53, 52
1, 839156, Note_on_c, 0, 61, 52
1, 839167, Control_c, 0, 64, 71
1, 839182, Control_c, 0, 64, 58
1, 839205, Note_off_c, 0, 43, 62
1, 839211, Control_c, 0, 64, 65
1, 839226, Control_c, 0, 64, 70
1, 839241, Control_c, 0, 64, 80
1, 839246, Note_off_c, 0, 53, 60
1, 839251, Note_off_c, 0, 61, 59
1, 839256, Control_c, 0, 64, 94
1, 839261, Note_off_c, 0, 65, 59
1, 839271, Control_c, 0, 64, 127
1, 839378, Note_on_c, 0, 65, 62
1, 839381, Note_on_c, 0, 53, 48
1, 839388, Note_on_c, 0, 32, 45
1, 839388, Note_on_c, 0, 44, 39
1, 839391, Note_on_c, 0, 61, 49
1, 839427, Note_off_c, 0, 31, 38
1, 839433, Control_c, 0, 64, 85
1, 839448, Control_c, 0, 64, 65
1, 839463, Control_c, 0, 64, 0
1, 839552, Control_c, 0, 64, 58
1, 839567, Control_c, 0, 64, 68
1, 839567, Control_c, 0, 67, 8
1, 839581, Control_c, 0, 64, 75
1, 839596, Control_c, 0, 64, 85
1, 839596, Control_c, 0, 67, 8
1, 839611, Control_c, 0, 64, 100
1, 839626, Control_c, 0, 64, 127
1, 839626, Control_c, 0, 67, 9
1, 839641, Control_c, 0, 67, 11
1, 839656, Control_c, 0, 67, 14
1, 839670, Control_c, 0, 67, 18
1, 839685, Control_c, 0, 67, 21
1, 839700, Control_c, 0, 67, 26
1, 839715, Control_c, 0, 67, 31
1, 839718, Note_off_c, 0, 53, 58
1, 839730, Control_c, 0, 67, 36
1, 839745, Control_c, 0, 67, 43
1, 839759, Control_c, 0, 67, 49
1, 839774, Control_c, 0, 67, 56
1, 839783, Note_off_c, 0, 61, 40
1, 839789, Control_c, 0, 67, 62
1, 839804, Control_c, 0, 67, 69
1, 839819, Control_c, 0, 67, 76
1, 839840, Control_c, 0, 67, 82
1, 839855, Control_c, 0, 67, 88
1, 839870, Control_c, 0, 67, 94
1, 839885, Control_c, 0, 67, 100
1, 839900, Control_c, 0, 67, 105
1, 839916, Control_c, 0, 67, 110
1, 839930, Control_c, 0, 67, 114
1, 839945, Control_c, 0, 67, 118
1, 839960, Control_c, 0, 67, 121
1, 839975, Control_c, 0, 67, 124
1, 839990, Control_c, 0, 67, 126
1, 840004, Control_c, 0, 67, 127
1, 840049, Control_c, 0, 64, 113
1, 840061, Note_on_c, 0, 63, 46
1, 840064, Control_c, 0, 64, 87
1, 840073, Note_on_c, 0, 60, 36
1, 840079, Control_c, 0, 64, 68
1, 840082, Note_on_c, 0, 51, 35
1, 840094, Control_c, 0, 64, 0
1, 840121, Note_off_c, 0, 65, 36
1, 840212, Control_c, 0, 64, 49
1, 840227, Control_c, 0, 64, 64
1, 840242, Control_c, 0, 64, 69
1, 840256, Control_c, 0, 64, 75
1, 840271, Control_c, 0, 64, 83
1, 840279, Note_off_c, 0, 51, 56
1, 840286, Control_c, 0, 64, 92
1, 840290, Note_off_c, 0, 32, 47
1, 840301, Control_c, 0, 64, 98
1, 840316, Control_c, 0, 64, 103
1, 840330, Control_c, 0, 64, 106
1, 840345, Control_c, 0, 64, 108
1, 840353, Note_off_c, 0, 44, 42
1, 840360, Control_c, 0, 64, 110
1, 840374, Control_c, 0, 64, 110
1, 840405, Note_off_c, 0, 60, 38
1, 840410, Note_off_c, 0, 63, 38
1, 840419, Control_c, 0, 64, 110
1, 840478, Control_c, 0, 64, 109
1, 840493, Control_c, 0, 64, 107
1, 840508, Control_c, 0, 64, 104
1, 840523, Control_c, 0, 64, 101
1, 840538, Control_c, 0, 64, 97
1, 840553, Control_c, 0, 64, 94
1, 840568, Control_c, 0, 64, 89
1, 840589, Control_c, 0, 64, 84
1, 840604, Control_c, 0, 64, 79
1, 840619, Control_c, 0, 64, 74
1, 840634, Control_c, 0, 64, 68
1, 840649, Control_c, 0, 64, 61
1, 840663, Control_c, 0, 64, 42
1, 840678, Control_c, 0, 64, 0
1, 840756, Note_on_c, 0, 65, 52
1, 840759, Note_on_c, 0, 49, 41
1, 840773, Note_on_c, 0, 37, 36
1, 840780, Note_on_c, 0, 56, 41
1, 840782, Note_on_c, 0, 53, 38
1, 840791, Note_on_c, 0, 61, 38
1, 840857, Control_c, 0, 64, 36
1, 840872, Control_c, 0, 64, 57
1, 840887, Control_c, 0, 64, 63
1, 840902, Control_c, 0, 64, 66
1, 840916, Control_c, 0, 64, 69
1, 840931, Control_c, 0, 64, 74
1, 840946, Control_c, 0, 64, 80
1, 840960, Control_c, 0, 64, 89
1, 840960, Control_c, 0, 67, 123
1, 840975, Control_c, 0, 64, 98
1, 840975, Control_c, 0, 67, 118
1, 840990, Control_c, 0, 64, 110
1, 840990, Control_c, 0, 67, 112
1, 841004, Control_c, 0, 64, 127
1, 841004, Control_c, 0, 67, 105
1, 841019, Control_c, 0, 67, 98
1, 841027, Note_off_c, 0, 56, 62
1, 841028, Note_off_c, 0, 53, 42
1, 841034, Control_c, 0, 67, 93
1, 841044, Note_off_c, 0, 61, 41
1, 841049, Control_c, 0, 67, 88
1, 841064, Control_c, 0, 67, 83
1, 841076, Note_off_c, 0, 65, 60
1, 841078, Control_c, 0, 67, 77
1, 841093, Control_c, 0, 67, 72
1, 841108, Control_c, 0, 67, 67
1, 841123, Control_c, 0, 67, 65
1, 841138, Control_c, 0, 67, 63
1, 841152, Control_c, 0, 67, 62
1, 841166, Note_off_c, 0, 49, 57
1, 841167, Control_c, 0, 67, 62
1, 841367, Control_c, 0, 67, 62
1, 841392, Note_on_c, 0, 68, 64
1, 841397, Control_c, 0, 67, 63
1, 841404, Note_on_c, 0, 56, 47
1, 841408, Note_on_c, 0, 48, 41
1, 841411, Note_on_c, 0, 36, 44
1, 841411, Control_c, 0, 67, 63
1, 841414, Note_on_c, 0, 63, 51
1, 841426, Control_c, 0, 67, 64
1, 841456, Control_c, 0, 64, 106
1, 841471, Control_c, 0, 64, 92
1, 841471, Control_c, 0, 67, 64
1, 841486, Control_c, 0, 64, 80
1, 841501, Control_c, 0, 64, 70
1, 841501, Control_c, 0, 67, 65
1, 841516, Control_c, 0, 64, 61
1, 841531, Control_c, 0, 64, 0
1, 841531, Control_c, 0, 67, 65
1, 841560, Note_off_c, 0, 37, 43
1, 841680, Control_c, 0, 64, 29
1, 841695, Control_c, 0, 64, 58
1, 841695, Control_c, 0, 67, 65
1, 841709, Control_c, 0, 64, 64
1, 841709, Control_c, 0, 67, 64
1, 841724, Control_c, 0, 64, 67
1, 841739, Control_c, 0, 64, 70
1, 841739, Control_c, 0, 67, 64
1, 841754, Control_c, 0, 64, 73
1, 841754, Control_c, 0, 67, 63
1, 841769, Control_c, 0, 64, 78
1, 841769, Control_c, 0, 67, 62
1, 841784, Control_c, 0, 64, 83
1, 841784, Control_c, 0, 67, 62
1, 841799, Control_c, 0, 64, 88
1, 841799, Control_c, 0, 67, 61
1, 841814, Control_c, 0, 64, 94
1, 841814, Control_c, 0, 67, 61
1, 841828, Control_c, 0, 64, 101
1, 841843, Control_c, 0, 64, 109
1, 841843, Control_c, 0, 67, 60
1, 841858, Control_c, 0, 64, 127
1, 841858, Control_c, 0, 67, 60
1, 841873, Control_c, 0, 67, 57
1, 841888, Control_c, 0, 67, 53
1, 841902, Control_c, 0, 67, 48
1, 841917, Control_c, 0, 67, 42
1, 841932, Control_c, 0, 67, 37
1, 841947, Control_c, 0, 67, 33
1, 841962, Control_c, 0, 67, 28
1, 841976, Control_c, 0, 67, 24
1, 841991, Control_c, 0, 67, 18
1, 842006, Control_c, 0, 67, 11
1, 842020, Note_off_c, 0, 56, 60
1, 842020, Control_c, 0, 67, 0
1, 842139, Note_off_c, 0, 48, 41
1, 842142, Note_off_c, 0, 63, 54
1, 842226, Note_off_c, 0, 68, 54
1, 842491, Note_on_c, 0, 73, 70
1, 842498, Note_on_c, 0, 61, 58
1, 842499, Note_on_c, 0, 34, 47
1, 842502, Note_on_c, 0, 46, 40
1, 842514, Note_on_c, 0, 70, 56
1, 842547, Control_c, 0, 64, 123
1, 842562, Control_c, 0, 64, 95
1, 842577, Control_c, 0, 64, 80
1, 842592, Control_c, 0, 64, 72
1, 842600, Note_off_c, 0, 36, 41
1, 842607, Control_c, 0, 64, 68
1, 842622, Control_c, 0, 64, 70
1, 842636, Control_c, 0, 64, 73
1, 842651, Control_c, 0, 64, 77
1, 842666, Control_c, 0, 64, 86
1, 842667, Note_off_c, 0, 61, 59
1, 842681, Control_c, 0, 64, 95
1, 842681, Note_off_c, 0, 70, 61
1, 842696, Control_c, 0, 64, 105
1, 842711, Control_c, 0, 64, 127
1, 842744, Note_off_c, 0, 46, 52
1, 842889, Note_on_c, 0, 72, 55
1, 842897, Note_on_c, 0, 75, 81
1, 842903, Note_on_c, 0, 63, 70
1, 842910, Note_on_c, 0, 70, 58
1, 842919, Note_on_c, 0, 30, 61
1, 842921, Note_on_c, 0, 42, 53
1, 842976, Note_off_c, 0, 34, 36
1, 842980, Note_off_c, 0, 63, 61
1, 842982, Note_off_c, 0, 70, 62
1, 842989, Note_off_c, 0, 72, 62
1, 843006, Note_off_c, 0, 73, 60
1, 843010, Note_off_c, 0, 30, 60
1, 843012, Note_off_c, 0, 42, 57
1, 843027, Note_off_c, 0, 75, 63
1, 843164, Note_on_c, 0, 77, 77
1, 843169, Note_on_c, 0, 73, 60
1, 843174, Note_on_c, 0, 68, 67
1, 843178, Control_c, 0, 64, 118
1, 843182, Note_on_c, 0, 29, 56
1, 843182, Note_on_c, 0, 65, 66
1, 843192, Control_c, 0, 64, 87
1, 843204, Note_on_c, 0, 41, 46
1, 843207, Control_c, 0, 64, 69
1, 843222, Control_c, 0, 64, 37
1, 843237, Control_c, 0, 64, 0
1, 843267, Control_c, 0, 64, 28
1, 843281, Control_c, 0, 64, 59
1, 843296, Control_c, 0, 64, 67
1, 843311, Control_c, 0, 64, 74
1, 843326, Control_c, 0, 64, 84
1, 843341, Control_c, 0, 64, 104
1, 843355, Control_c, 0, 64, 127
1, 843406, Note_off_c, 0, 77, 60
1, 843416, Note_off_c, 0, 73, 63
1, 843426, Note_off_c, 0, 65, 63
1, 843553, Note_off_c, 0, 41, 60
1, 843592, Note_on_c, 0, 73, 81
1, 843597, Note_on_c, 0, 61, 76
1, 843668, Note_off_c, 0, 61, 57
1, 843677, Note_off_c, 0, 68, 62
1, 843686, Note_off_c, 0, 73, 61
1, 843821, Note_on_c, 0, 30, 53
1, 843824, Note_on_c, 0, 58, 55
1, 843824, Note_on_c, 0, 70, 69
1, 843825, Note_on_c, 0, 66, 60
1, 843826, Note_on_c, 0, 42, 48
1, 843852, Control_c, 0, 64, 99
1, 843867, Control_c, 0, 64, 78
1, 843881, Control_c, 0, 64, 63
1, 843897, Control_c, 0, 64, 0
1, 843897, Note_off_c, 0, 29, 51
1, 843971, Control_c, 0, 64, 56
1, 843986, Control_c, 0, 64, 66
1, 844001, Control_c, 0, 64, 74
1, 844016, Control_c, 0, 64, 84
1, 844030, Control_c, 0, 64, 97
1, 844045, Control_c, 0, 64, 117
1, 844060, Control_c, 0, 64, 127
1, 844077, Note_off_c, 0, 70, 63
1, 844082, Note_off_c, 0, 58, 58
1, 844113, Note_off_c, 0, 66, 61
1, 844180, Note_off_c, 0, 30, 41
1, 844205, Note_off_c, 0, 42, 61
1, 844240, Note_on_c, 0, 66, 60
1, 844246, Note_on_c, 0, 54, 58
1, 844252, Note_on_c, 0, 63, 55
1, 844301, Note_off_c, 0, 54, 59
1, 844306, Note_off_c, 0, 63, 56
1, 844325, Note_off_c, 0, 66, 57
1, 844461, Note_on_c, 0, 65, 62
1, 844470, Note_on_c, 0, 61, 56
1, 844473, Note_on_c, 0, 43, 41
1, 844473, Note_on_c, 0, 53, 49
1, 844475, Note_on_c, 0, 31, 39
1, 844482, Control_c, 0, 64, 95
1, 844497, Control_c, 0, 64, 75
1, 844511, Control_c, 0, 64, 49
1, 844526, Control_c, 0, 64, 0
1, 844616, Control_c, 0, 64, 32
1, 844630, Control_c, 0, 64, 63
1, 844645, Control_c, 0, 64, 69
1, 844659, Control_c, 0, 64, 76
1, 844674, Control_c, 0, 64, 88
1, 844689, Control_c, 0, 64, 103
1, 844705, Control_c, 0, 64, 127
1, 844838, Control_c, 0, 67, 8
1, 844844, Note_off_c, 0, 43, 48
1, 844850, Note_off_c, 0, 53, 62
1, 844852, Control_c, 0, 67, 9
1, 844867, Control_c, 0, 67, 9
1, 844878, Note_off_c, 0, 61, 58
1, 844882, Control_c, 0, 67, 11
1, 844897, Control_c, 0, 67, 15
1, 844912, Control_c, 0, 67, 20
1, 844926, Control_c, 0, 67, 25
1, 844941, Control_c, 0, 67, 30
1, 844956, Control_c, 0, 67, 35
1, 844970, Control_c, 0, 67, 39
1, 844985, Control_c, 0, 67, 43
1, 845000, Control_c, 0, 67, 48
1, 845015, Control_c, 0, 67, 51
1, 845030, Control_c, 0, 67, 55
1, 845045, Control_c, 0, 67, 58
1, 845060, Control_c, 0, 67, 62
1, 845082, Control_c, 0, 67, 65
1, 845097, Control_c, 0, 67, 68
1, 845112, Control_c, 0, 67, 72
1, 845126, Control_c, 0, 67, 75
1, 845141, Control_c, 0, 67, 78
1, 845146, Note_on_c, 0, 63, 47
1, 845156, Control_c, 0, 67, 81
1, 845165, Note_on_c, 0, 32, 41
1, 845167, Note_on_c, 0, 60, 40
1, 845171, Control_c, 0, 64, 97
1, 845171, Control_c, 0, 67, 85
1, 845175, Note_on_c, 0, 44, 32
1, 845177, Note_on_c, 0, 51, 40
1, 845185, Control_c, 0, 64, 78
1, 845185, Control_c, 0, 67, 89
1, 845189, Note_off_c, 0, 65, 34
1, 845200, Control_c, 0, 64, 61
1, 845200, Control_c, 0, 67, 94
1, 845212, Note_off_c, 0, 31, 41
1, 845215, Control_c, 0, 64, 0
1, 845215, Control_c, 0, 67, 98
1, 845230, Control_c, 0, 67, 103
1, 845245, Control_c, 0, 67, 108
1, 845260, Control_c, 0, 67, 113
1, 845275, Control_c, 0, 67, 118
1, 845289, Control_c, 0, 67, 123
1, 845304, Control_c, 0, 67, 127
1, 845334, Control_c, 0, 64, 60
1, 845349, Control_c, 0, 64, 67
1, 845364, Control_c, 0, 64, 73
1, 845378, Control_c, 0, 64, 80
1, 845393, Control_c, 0, 64, 87
1, 845405, Note_off_c, 0, 44, 48
1, 845409, Control_c, 0, 64, 93
1, 845415, Note_off_c, 0, 51, 53
1, 845424, Control_c, 0, 64, 96
1, 845438, Control_c, 0, 64, 98
1, 845453, Control_c, 0, 64, 100
1, 845468, Control_c, 0, 64, 101
1, 845471, Note_off_c, 0, 63, 37
1, 845480, Note_off_c, 0, 60, 39
1, 845483, Control_c, 0, 64, 101
1, 845501, Note_off_c, 0, 32, 41
1, 845617, Control_c, 0, 64, 100
1, 845632, Control_c, 0, 64, 99
1, 845647, Control_c, 0, 64, 97
1, 845662, Control_c, 0, 64, 95
1, 845676, Control_c, 0, 64, 92
1, 845691, Control_c, 0, 64, 90
1, 845706, Control_c, 0, 64, 87
1, 845721, Control_c, 0, 64, 82
1, 845736, Control_c, 0, 64, 79
1, 845750, Control_c, 0, 64, 74
1, 845765, Control_c, 0, 64, 70
1, 845780, Control_c, 0, 64, 65
1, 845794, Control_c, 0, 64, 62
1, 845809, Control_c, 0, 64, 51
1, 845832, Control_c, 0, 64, 34
1, 845847, Control_c, 0, 64, 0
1, 845921, Control_c, 0, 64, 32
1, 845936, Control_c, 0, 64, 52
1, 845950, Control_c, 0, 64, 62
1, 845957, Note_on_c, 0, 54, 31
1, 845957, Note_on_c, 0, 63, 37
1, 845965, Control_c, 0, 64, 65
1, 845967, Note_on_c, 0, 27, 27
1, 845969, Note_on_c, 0, 58, 30
1, 845973, Note_on_c, 0, 39, 21
1, 845980, Control_c, 0, 64, 68
1, 845994, Control_c, 0, 64, 71
1, 846009, Control_c, 0, 64, 74
1, 846024, Control_c, 0, 64, 77
1, 846033, Note_off_c, 0, 39, 45
1, 846039, Control_c, 0, 64, 81
1, 846054, Control_c, 0, 64, 84
1, 846058, Note_off_c, 0, 27, 40
1, 846068, Control_c, 0, 64, 87
1, 846083, Control_c, 0, 64, 89
1, 846098, Control_c, 0, 64, 93
1, 846113, Control_c, 0, 64, 96
1, 846128, Control_c, 0, 64, 100
1, 846142, Control_c, 0, 64, 104
1, 846154, Note_on_c, 0, 39, 40
1, 846157, Control_c, 0, 64, 110
1, 846172, Control_c, 0, 64, 117
1, 846185, Note_on_c, 0, 27, 40
1, 846187, Control_c, 0, 64, 127
1, 846231, Note_off_c, 0, 39, 39
1, 846234, Note_off_c, 0, 27, 49
1, 846306, Note_off_c, 0, 63, 57
1, 846340, Note_off_c, 0, 58, 50
1, 846354, Note_on_c, 0, 39, 46
1, 846364, Note_on_c, 0, 27, 32
1, 846405, Note_off_c, 0, 39, 53
1, 846436, Note_off_c, 0, 27, 43
1, 846608, Note_on_c, 0, 66, 56
1, 846610, Note_on_c, 0, 63, 50
1, 846619, Note_on_c, 0, 27, 31
1, 846626, Note_on_c, 0, 58, 33
1, 846639, Note_on_c, 0, 39, 34
1, 846655, Control_c, 0, 64, 102
1, 846670, Control_c, 0, 64, 83
1, 846684, Control_c, 0, 64, 70
1, 846699, Control_c, 0, 64, 51
1, 846714, Control_c, 0, 64, 0
1, 846803, Control_c, 0, 64, 52
1, 846817, Control_c, 0, 64, 63
1, 846832, Control_c, 0, 64, 67
1, 846847, Control_c, 0, 64, 72
1, 846862, Control_c, 0, 64, 76
1, 846877, Control_c, 0, 64, 81
1, 846880, Note_off_c, 0, 54, 44
1, 846891, Control_c, 0, 64, 86
1, 846906, Control_c, 0, 64, 91
1, 846921, Control_c, 0, 64, 96
1, 846936, Control_c, 0, 64, 101
1, 846950, Control_c, 0, 64, 108
1, 846965, Control_c, 0, 64, 116
1, 846980, Control_c, 0, 64, 127
1, 846991, Note_off_c, 0, 27, 46
1, 847003, Note_off_c, 0, 39, 41
1, 847266, Note_off_c, 0, 63, 25
1, 847268, Note_off_c, 0, 58, 41
1, 847278, Note_on_c, 0, 27, 41
1, 847281, Note_on_c, 0, 39, 32
1, 847346, Note_off_c, 0, 39, 45
1, 847355, Note_off_c, 0, 27, 43
1, 847484, Note_on_c, 0, 39, 44
1, 847492, Note_on_c, 0, 27, 39
1, 847540, Note_off_c, 0, 39, 50
1, 847552, Note_off_c, 0, 27, 45
1, 847668, Note_on_c, 0, 59, 53
1, 847680, Note_on_c, 0, 39, 47
1, 847683, Note_on_c, 0, 56, 48
1, 847684, Note_on_c, 0, 65, 63
1, 847685, Note_on_c, 0, 27, 44
1, 847690, Note_off_c, 0, 66, 35
1, 847715, Note_off_c, 0, 56, 59
1, 847721, Note_off_c, 0, 39, 55
1, 847725, Note_off_c, 0, 59, 59
1, 847734, Note_off_c, 0, 27, 51
1, 847748, Note_off_c, 0, 65, 62
1, 847889, Note_on_c, 0, 61, 50
1, 847909, Note_on_c, 0, 68, 69
1, 847928, Note_on_c, 0, 27, 44
1, 847928, Note_off_c, 0, 61, 57
1, 847936, Note_on_c, 0, 39, 39
1, 847938, Note_on_c, 0, 59, 47
1, 847945, Note_on_c, 0, 65, 45
1, 847952, Control_c, 0, 64, 98
1, 847967, Control_c, 0, 64, 83
1, 847982, Control_c, 0, 64, 73
1, 847996, Control_c, 0, 64, 67
1, 848011, Control_c, 0, 64, 68
1, 848026, Control_c, 0, 64, 71
1, 848041, Control_c, 0, 64, 75
1, 848056, Control_c, 0, 64, 80
1, 848071, Note_off_c, 0, 68, 63
1, 848078, Control_c, 0, 64, 88
1, 848093, Control_c, 0, 64, 99
1, 848101, Note_off_c, 0, 59, 56
1, 848108, Control_c, 0, 64, 118
1, 848123, Control_c, 0, 64, 127
1, 848182, Control_c, 0, 67, 127
1, 848196, Control_c, 0, 67, 114
1, 848211, Control_c, 0, 67, 101
1, 848217, Note_off_c, 0, 39, 56
1, 848220, Note_off_c, 0, 27, 53
1, 848226, Control_c, 0, 67, 85
1, 848241, Control_c, 0, 67, 70
1, 848256, Control_c, 0, 67, 58
1, 848270, Control_c, 0, 67, 52
1, 848277, Note_on_c, 0, 66, 77
1, 848281, Note_on_c, 0, 58, 62
1, 848285, Note_on_c, 0, 63, 58
1, 848285, Control_c, 0, 67, 48
1, 848293, Note_off_c, 0, 65, 59
1, 848300, Control_c, 0, 67, 46
1, 848310, Note_off_c, 0, 58, 65
1, 848315, Note_off_c, 0, 63, 64
1, 848315, Control_c, 0, 67, 46
1, 848339, Note_off_c, 0, 66, 64
1, 848487, Note_on_c, 0, 71, 81
1, 848494, Note_on_c, 0, 65, 54
1, 848494, Control_c, 0, 64, 115
1, 848502, Note_on_c, 0, 27, 52
1, 848503, Note_on_c, 0, 68, 61
1, 848508, Note_on_c, 0, 62, 63
1, 848509, Note_on_c, 0, 39, 46
1, 848509, Control_c, 0, 64, 88
1, 848523, Control_c, 0, 64, 73
1, 848538, Control_c, 0, 64, 65
1, 848545, Note_off_c, 0, 39, 57
1, 848558, Note_off_c, 0, 27, 56
1, 848568, Control_c, 0, 64, 69
1, 848583, Control_c, 0, 64, 74
1, 848583, Control_c, 0, 67, 45
1, 848597, Control_c, 0, 64, 81
1, 848597, Control_c, 0, 67, 44
1, 848612, Control_c, 0, 64, 92
1, 848612, Control_c, 0, 67, 43
1, 848627, Control_c, 0, 64, 105
1, 848627, Control_c, 0, 67, 41
1, 848642, Control_c, 0, 64, 127
1, 848642, Control_c, 0, 67, 37
1, 848657, Note_on_c, 0, 39, 58
1, 848657, Control_c, 0, 67, 31
1, 848661, Note_on_c, 0, 27, 64
1, 848671, Control_c, 0, 67, 23
1, 848687, Control_c, 0, 67, 12
1, 848702, Control_c, 0, 67, 0
1, 848730, Note_off_c, 0, 39, 55
1, 848734, Note_off_c, 0, 27, 58
1, 848849, Note_off_c, 0, 62, 61
1, 848849, Note_on_c, 0, 27, 64
1, 848850, Note_on_c, 0, 39, 61
1, 848853, Note_on_c, 0, 70, 88
1, 848871, Note_off_c, 0, 65, 63
1, 848873, Note_off_c, 0, 68, 63
1, 848893, Note_off_c, 0, 71, 64
1, 848903, Note_off_c, 0, 39, 55
1, 848908, Note_off_c, 0, 70, 64
1, 848917, Note_off_c, 0, 27, 56
1, 849108, Note_on_c, 0, 74, 67
1, 849110, Note_on_c, 0, 77, 78
1, 849122, Note_on_c, 0, 71, 62
1, 849123, Note_on_c, 0, 68, 65
1, 849124, Control_c, 0, 64, 110
1, 849136, Note_on_c, 0, 27, 54
1, 849139, Control_c, 0, 64, 83
1, 849141, Note_on_c, 0, 39, 45
1, 849153, Control_c, 0, 64, 68
1, 849168, Control_c, 0, 64, 55
1, 849182, Control_c, 0, 64, 45
1, 849197, Control_c, 0, 64, 47
1, 849212, Control_c, 0, 64, 55
1, 849227, Control_c, 0, 64, 64
1, 849242, Control_c, 0, 64, 70
1, 849257, Control_c, 0, 64, 77
1, 849272, Control_c, 0, 64, 86
1, 849282, Note_off_c, 0, 71, 64
1, 849286, Control_c, 0, 64, 98
1, 849301, Control_c, 0, 64, 116
1, 849316, Control_c, 0, 64, 127
1, 849328, Note_off_c, 0, 68, 61
1, 849493, Note_off_c, 0, 27, 57
1, 849495, Note_on_c, 0, 75, 77
1, 849504, Note_on_c, 0, 70, 81
1, 849506, Note_on_c, 0, 66, 70
1, 849522, Note_off_c, 0, 74, 63
1, 849528, Note_off_c, 0, 39, 40
1, 849534, Note_off_c, 0, 66, 63
1, 849538, Note_off_c, 0, 77, 61
1, 849571, Note_off_c, 0, 75, 63
1, 849573, Note_off_c, 0, 70, 61
1, 849745, Note_on_c, 0, 73, 83
1, 849758, Note_on_c, 0, 61, 67
1, 849760, Note_on_c, 0, 70, 65
1, 849767, Note_on_c, 0, 27, 56
1, 849767, Note_on_c, 0, 67, 55
1, 849774, Note_on_c, 0, 39, 48
1, 849783, Control_c, 0, 64, 94
1, 849798, Control_c, 0, 64, 76
1, 849813, Control_c, 0, 64, 61
1, 849828, Control_c, 0, 64, 19
1, 849842, Control_c, 0, 64, 0
1, 849872, Control_c, 0, 64, 24
1, 849887, Control_c, 0, 64, 47
1, 849902, Control_c, 0, 64, 62
1, 849916, Control_c, 0, 64, 67
1, 849931, Control_c, 0, 64, 72
1, 849946, Control_c, 0, 64, 79
1, 849960, Control_c, 0, 64, 88
1, 849975, Control_c, 0, 64, 102
1, 849990, Control_c, 0, 64, 127
1, 850080, Note_off_c, 0, 27, 50
1, 850110, Note_off_c, 0, 73, 58
1, 850187, Note_off_c, 0, 39, 40
1, 850464, Note_on_c, 0, 40, 40
1, 850465, Note_on_c, 0, 28, 43
1, 850480, Note_on_c, 0, 72, 68
1, 850488, Control_c, 0, 64, 107
1, 850503, Control_c, 0, 64, 87
1, 850518, Control_c, 0, 64, 74
1, 850533, Control_c, 0, 64, 64
1, 850547, Control_c, 0, 64, 53
1, 850562, Control_c, 0, 64, 52
1, 850577, Control_c, 0, 64, 53
1, 850591, Control_c, 0, 64, 57
1, 850606, Control_c, 0, 64, 62
1, 850621, Control_c, 0, 64, 65
1, 850636, Control_c, 0, 64, 69
1, 850651, Control_c, 0, 64, 75
1, 850665, Control_c, 0, 64, 81
1, 850680, Control_c, 0, 64, 89
1, 850682, Note_on_c, 0, 73, 82
1, 850695, Control_c, 0, 64, 98
1, 850696, Note_off_c, 0, 70, 53
1, 850709, Control_c, 0, 64, 108
1, 850712, Note_off_c, 0, 72, 64
1, 850724, Control_c, 0, 64, 127
1, 850733, Note_off_c, 0, 67, 59
1, 850855, Note_on_c, 0, 72, 80
1, 850864, Note_off_c, 0, 28, 38
1, 850880, Note_off_c, 0, 40, 41
1, 850900, Note_off_c, 0, 61, 62
1, 850929, Note_off_c, 0, 73, 60
1, 850930, Note_off_c, 0, 72, 62
1, 851076, Note_on_c, 0, 71, 70
1, 851079, Note_on_c, 0, 61, 58
1, 851090, Note_on_c, 0, 41, 50
1, 851090, Note_on_c, 0, 68, 60
1, 851099, Note_on_c, 0, 29, 47
1, 851118, Control_c, 0, 64, 114
1, 851133, Control_c, 0, 64, 86
1, 851148, Control_c, 0, 64, 71
1, 851162, Control_c, 0, 64, 56
1, 851177, Control_c, 0, 64, 19
1, 851192, Control_c, 0, 64, 17
1, 851207, Control_c, 0, 64, 27
1, 851221, Control_c, 0, 64, 44
1, 851236, Control_c, 0, 64, 60
1, 851251, Control_c, 0, 64, 65
1, 851266, Control_c, 0, 64, 70
1, 851281, Control_c, 0, 64, 76
1, 851296, Control_c, 0, 64, 84
1, 851311, Control_c, 0, 64, 93
1, 851326, Control_c, 0, 64, 105
1, 851340, Control_c, 0, 64, 127
1, 851476, Note_off_c, 0, 29, 42
1, 851513, Note_off_c, 0, 41, 56
1, 851754, Control_c, 0, 67, 8
1, 851757, Note_on_c, 0, 70, 62
1, 851761, Note_on_c, 0, 66, 53
1, 851767, Note_on_c, 0, 30, 46
1, 851769, Control_c, 0, 64, 113
1, 851784, Control_c, 0, 64, 90
1, 851784, Control_c, 0, 67, 8
1, 851791, Note_on_c, 0, 42, 38
1, 851795, Note_off_c, 0, 68, 53
1, 851799, Control_c, 0, 64, 73
1, 851799, Control_c, 0, 67, 9
1, 851802, Note_off_c, 0, 71, 60
1, 851821, Control_c, 0, 64, 63
1, 851835, Control_c, 0, 64, 53
1, 851835, Control_c, 0, 67, 9
1, 851850, Control_c, 0, 64, 52
1, 851865, Control_c, 0, 64, 55
1, 851880, Control_c, 0, 64, 60
1, 851896, Control_c, 0, 64, 64
1, 851910, Control_c, 0, 64, 68
1, 851925, Control_c, 0, 64, 71
1, 851940, Control_c, 0, 64, 76
1, 851955, Control_c, 0, 64, 82
1, 851964, Note_on_c, 0, 71, 71
1, 851970, Control_c, 0, 64, 88
1, 851979, Note_off_c, 0, 70, 62
1, 851985, Control_c, 0, 64, 97
1, 851999, Control_c, 0, 64, 106
1, 852014, Control_c, 0, 64, 119
1, 852029, Control_c, 0, 64, 127
1, 852111, Note_off_c, 0, 30, 41
1, 852153, Note_on_c, 0, 70, 77
1, 852195, Note_off_c, 0, 66, 60
1, 852204, Note_off_c, 0, 71, 56
1, 852207, Control_c, 0, 67, 10
1, 852217, Note_off_c, 0, 61, 61
1, 852218, Note_off_c, 0, 42, 41
1, 852238, Note_off_c, 0, 70, 61
1, 852266, Control_c, 0, 67, 10
1, 852296, Control_c, 0, 67, 11
1, 852366, Note_on_c, 0, 69, 57
1, 852374, Note_on_c, 0, 31, 42
1, 852378, Note_on_c, 0, 64, 53
1, 852381, Note_on_c, 0, 43, 42
1, 852381, Note_on_c, 0, 61, 46
1, 852399, Control_c, 0, 64, 120
1, 852414, Control_c, 0, 64, 93
1, 852414, Control_c, 0, 67, 11
1, 852429, Control_c, 0, 64, 77
1, 852444, Control_c, 0, 64, 66
1, 852458, Control_c, 0, 64, 47
1, 852473, Control_c, 0, 64, 36
1, 852503, Control_c, 0, 64, 38
1, 852518, Control_c, 0, 64, 46
1, 852518, Control_c, 0, 67, 11
1, 852533, Control_c, 0, 64, 56
1, 852548, Control_c, 0, 64, 64
1, 852569, Control_c, 0, 64, 69
1, 852569, Control_c, 0, 67, 10
1, 852584, Control_c, 0, 64, 73
1, 852599, Control_c, 0, 64, 79
1, 852599, Control_c, 0, 67, 9
1, 852614, Control_c, 0, 64, 86
1, 852629, Control_c, 0, 64, 95
1, 852629, Control_c, 0, 67, 9
1, 852643, Control_c, 0, 64, 107
1, 852658, Control_c, 0, 64, 127
1, 852806, Note_off_c, 0, 31, 40
1, 852822, Note_off_c, 0, 64, 61
1, 852825, Note_off_c, 0, 43, 40
1, 852856, Note_off_c, 0, 61, 58
1, 852882, Control_c, 0, 67, 9
1, 852956, Control_c, 0, 67, 10
1, 852985, Control_c, 0, 67, 10
1, 853015, Control_c, 0, 67, 11
1, 853045, Control_c, 0, 67, 11
1, 853066, Note_on_c, 0, 68, 56
1, 853068, Note_on_c, 0, 61, 40
1, 853070, Note_on_c, 0, 64, 45
1, 853071, Note_on_c, 0, 32, 42
1, 853089, Control_c, 0, 64, 95
1, 853095, Note_off_c, 0, 69, 58
1, 853103, Control_c, 0, 64, 78
1, 853103, Control_c, 0, 67, 12
1, 853105, Note_on_c, 0, 44, 35
1, 853118, Control_c, 0, 64, 65
1, 853133, Control_c, 0, 64, 52
1, 853148, Control_c, 0, 64, 50
1, 853163, Control_c, 0, 64, 52
1, 853177, Control_c, 0, 64, 57
1, 853192, Control_c, 0, 64, 63
1, 853207, Control_c, 0, 64, 66
1, 853222, Control_c, 0, 64, 72
1, 853237, Control_c, 0, 64, 77
1, 853248, Note_off_c, 0, 68, 60
1, 853251, Control_c, 0, 64, 84
1, 853266, Control_c, 0, 64, 91
1, 853266, Control_c, 0, 67, 11
1, 853269, Note_on_c, 0, 69, 55
1, 853281, Control_c, 0, 64, 100
1, 853296, Control_c, 0, 64, 111
1, 853318, Control_c, 0, 64, 127
1, 853409, Note_off_c, 0, 32, 43
1, 853458, Note_on_c, 0, 68, 66
1, 853483, Note_off_c, 0, 64, 62
1, 853493, Note_off_c, 0, 44, 45
1, 853519, Note_off_c, 0, 69, 53
1, 853537, Note_off_c, 0, 61, 40
1, 853630, Control_c, 0, 67, 12
1, 853660, Control_c, 0, 67, 12
1, 853690, Control_c, 0, 67, 13
1, 853719, Note_on_c, 0, 33, 36
1, 853719, Control_c, 0, 64, 118
1, 853719, Control_c, 0, 67, 13
1, 853720, Note_on_c, 0, 67, 58
1, 853730, Note_on_c, 0, 61, 38
1, 853731, Note_on_c, 0, 45, 38
1, 853734, Control_c, 0, 64, 97
1, 853734, Control_c, 0, 67, 16
1, 853743, Note_on_c, 0, 63, 39
1, 853749, Control_c, 0, 64, 83
1, 853749, Control_c, 0, 67, 20
1, 853764, Control_c, 0, 64, 71
1, 853764, Control_c, 0, 67, 23
1, 853779, Control_c, 0, 64, 56
1, 853779, Control_c, 0, 67, 24
1, 853785, Note_off_c, 0, 68, 53
1, 853794, Control_c, 0, 64, 0
1, 853794, Control_c, 0, 67, 25
1, 853808, Control_c, 0, 67, 26
1, 853823, Control_c, 0, 67, 27
1, 853838, Control_c, 0, 67, 28
1, 853853, Control_c, 0, 67, 30
1, 853868, Control_c, 0, 67, 32
1, 853882, Control_c, 0, 67, 35
1, 853897, Control_c, 0, 67, 38
1, 853912, Control_c, 0, 67, 41
1, 853926, Control_c, 0, 67, 46
1, 853941, Control_c, 0, 64, 45
1, 853941, Control_c, 0, 67, 51
1, 853956, Control_c, 0, 64, 64
1, 853956, Control_c, 0, 67, 57
1, 853971, Control_c, 0, 64, 71
1, 853971, Control_c, 0, 67, 63
1, 853986, Control_c, 0, 64, 77
1, 853986, Control_c, 0, 67, 69
1, 854000, Control_c, 0, 64, 85
1, 854000, Control_c, 0, 67, 74
1, 854015, Control_c, 0, 64, 94
1, 854015, Control_c, 0, 67, 79
1, 854030, Control_c, 0, 64, 103
1, 854030, Control_c, 0, 67, 83
1, 854034, Note_off_c, 0, 61, 41
1, 854045, Control_c, 0, 64, 116
1, 854045, Control_c, 0, 67, 87
1, 854068, Control_c, 0, 64, 127
1, 854068, Control_c, 0, 67, 91
1, 854082, Control_c, 0, 67, 96
1, 854096, Note_off_c, 0, 67, 37
1, 854097, Control_c, 0, 67, 100
1, 854112, Control_c, 0, 67, 104
1, 854121, Note_off_c, 0, 63, 55
1, 854127, Control_c, 0, 67, 107
1, 854134, Note_off_c, 0, 33, 38
1, 854141, Control_c, 0, 67, 111
1, 854156, Control_c, 0, 67, 114
1, 854171, Control_c, 0, 67, 117
1, 854176, Note_off_c, 0, 45, 43
1, 854186, Control_c, 0, 67, 120
1, 854201, Control_c, 0, 67, 123
1, 854215, Control_c, 0, 67, 126
1, 854230, Control_c, 0, 67, 127
1, 854493, Note_on_c, 0, 68, 55
1, 854501, Note_on_c, 0, 61, 47
1, 854504, Note_on_c, 0, 54, 44
1, 854528, Control_c, 0, 64, 106
1, 854529, Note_on_c, 0, 44, 40
1, 854531, Note_on_c, 0, 32, 40
1, 854543, Control_c, 0, 64, 93
1, 854557, Control_c, 0, 64, 81
1, 854572, Control_c, 0, 64, 71
1, 854587, Control_c, 0, 64, 62
1, 854602, Control_c, 0, 64, 43
1, 854617, Control_c, 0, 64, 33
1, 854632, Control_c, 0, 64, 31
1, 854676, Control_c, 0, 64, 33
1, 854691, Control_c, 0, 64, 44
1, 854706, Control_c, 0, 64, 56
1, 854721, Control_c, 0, 64, 63
1, 854736, Control_c, 0, 64, 66
1, 854750, Control_c, 0, 64, 68
1, 854765, Control_c, 0, 64, 70
1, 854780, Control_c, 0, 64, 73
1, 854795, Control_c, 0, 64, 76
1, 854817, Control_c, 0, 64, 80
1, 854831, Control_c, 0, 64, 84
1, 854846, Control_c, 0, 64, 89
1, 854861, Control_c, 0, 64, 93
1, 854876, Control_c, 0, 64, 98
1, 854891, Control_c, 0, 64, 105
1, 854906, Control_c, 0, 64, 113
1, 854921, Control_c, 0, 64, 127
1, 855351, Note_off_c, 0, 54, 48
1, 855434, Note_off_c, 0, 61, 54
1, 855904, Note_on_c, 0, 63, 44
1, 855913, Note_on_c, 0, 60, 40
1, 855916, Note_on_c, 0, 54, 34
1, 855922, Control_c, 0, 64, 118
1, 855936, Control_c, 0, 64, 96
1, 855951, Control_c, 0, 64, 81
1, 855966, Control_c, 0, 64, 69
1, 855981, Control_c, 0, 64, 48
1, 855996, Control_c, 0, 64, 0
1, 856018, Note_off_c, 0, 68, 31
1, 856040, Control_c, 0, 64, 11
1, 856055, Control_c, 0, 64, 37
1, 856070, Control_c, 0, 64, 57
1, 856084, Control_c, 0, 64, 64
1, 856099, Control_c, 0, 64, 69
1, 856114, Control_c, 0, 64, 74
1, 856128, Control_c, 0, 64, 80
1, 856143, Control_c, 0, 64, 87
1, 856149, Note_off_c, 0, 54, 56
1, 856152, Note_off_c, 0, 32, 46
1, 856158, Control_c, 0, 64, 93
1, 856173, Control_c, 0, 64, 100
1, 856188, Control_c, 0, 64, 105
1, 856203, Control_c, 0, 64, 110
1, 856217, Control_c, 0, 64, 116
1, 856231, Note_off_c, 0, 44, 42
1, 856232, Control_c, 0, 64, 126
1, 856243, Note_off_c, 0, 63, 36
1, 856247, Control_c, 0, 64, 127
1, 856248, Note_off_c, 0, 60, 38
1, 856447, Control_c, 0, 64, 122
1, 856462, Control_c, 0, 64, 117
1, 856477, Control_c, 0, 64, 113
1, 856492, Control_c, 0, 64, 109
1, 856507, Control_c, 0, 64, 105
1, 856521, Control_c, 0, 64, 99
1, 856536, Control_c, 0, 64, 93
1, 856551, Control_c, 0, 64, 86
1, 856566, Control_c, 0, 64, 81
1, 856581, Control_c, 0, 64, 76
1, 856596, Control_c, 0, 64, 73
1, 856610, Control_c, 0, 64, 71
1, 856625, Control_c, 0, 64, 69
1, 856640, Control_c, 0, 64, 68
1, 856654, Control_c, 0, 64, 67
1, 856669, Control_c, 0, 64, 66
1, 856685, Control_c, 0, 64, 64
1, 856699, Note_on_c, 0, 65, 52
1, 856700, Control_c, 0, 64, 61
1, 856715, Control_c, 0, 64, 47
1, 856715, Note_on_c, 0, 49, 38
1, 856726, Note_on_c, 0, 37, 30
1, 856728, Note_on_c, 0, 56, 39
1, 856729, Note_on_c, 0, 53, 33
1, 856729, Note_on_c, 0, 61, 32
1, 856730, Control_c, 0, 64, 0
1, 856848, Control_c, 0, 64, 49
1, 856863, Control_c, 0, 64, 63
1, 856878, Control_c, 0, 64, 67
1, 856893, Control_c, 0, 64, 72
1, 856907, Control_c, 0, 64, 77
1, 856922, Control_c, 0, 64, 85
1, 856937, Control_c, 0, 64, 92
1, 856942, Note_off_c, 0, 56, 60
1, 856951, Control_c, 0, 64, 100
1, 856963, Note_off_c, 0, 53, 44
1, 856966, Control_c, 0, 64, 110
1, 856967, Note_off_c, 0, 61, 40
1, 856981, Control_c, 0, 64, 127
1, 857025, Control_c, 0, 67, 126
1, 857040, Control_c, 0, 67, 121
1, 857063, Control_c, 0, 67, 116
1, 857068, Note_off_c, 0, 65, 62
1, 857077, Control_c, 0, 67, 108
1, 857092, Control_c, 0, 67, 101
1, 857107, Control_c, 0, 67, 94
1, 857122, Control_c, 0, 67, 87
1, 857137, Control_c, 0, 67, 80
1, 857151, Control_c, 0, 67, 75
1, 857155, Note_off_c, 0, 49, 42
1, 857166, Control_c, 0, 67, 72
1, 857181, Control_c, 0, 67, 70
1, 857196, Control_c, 0, 67, 69
1, 857211, Control_c, 0, 67, 69
1, 857270, Control_c, 0, 67, 69
1, 857285, Control_c, 0, 67, 70
1, 857314, Control_c, 0, 67, 70
1, 857329, Control_c, 0, 67, 71
1, 857344, Control_c, 0, 67, 71
1, 857358, Note_on_c, 0, 68, 54
1, 857359, Control_c, 0, 67, 72
1, 857371, Note_on_c, 0, 48, 40
1, 857374, Control_c, 0, 67, 72
1, 857379, Note_on_c, 0, 36, 41
1, 857383, Note_on_c, 0, 56, 37
1, 857387, Note_on_c, 0, 63, 39
1, 857404, Control_c, 0, 67, 73
1, 857419, Control_c, 0, 67, 73
1, 857448, Control_c, 0, 67, 74
1, 857463, Control_c, 0, 64, 114
1, 857478, Control_c, 0, 64, 98
1, 857493, Control_c, 0, 64, 86
1, 857508, Control_c, 0, 64, 78
1, 857508, Control_c, 0, 67, 74
1, 857523, Control_c, 0, 64, 70
1, 857538, Control_c, 0, 64, 64
1, 857553, Note_off_c, 0, 37, 43
1, 857553, Control_c, 0, 64, 60
1, 857568, Control_c, 0, 64, 56
1, 857582, Control_c, 0, 64, 49
1, 857597, Control_c, 0, 64, 30
1, 857612, Control_c, 0, 64, 0
1, 857730, Control_c, 0, 64, 32
1, 857745, Control_c, 0, 64, 53
1, 857760, Control_c, 0, 64, 61
1, 857774, Control_c, 0, 64, 65
1, 857789, Control_c, 0, 64, 67
1, 857812, Control_c, 0, 64, 71
1, 857827, Control_c, 0, 64, 75
1, 857842, Control_c, 0, 64, 81
1, 857856, Control_c, 0, 64, 86
1, 857871, Control_c, 0, 64, 92
1, 857886, Control_c, 0, 64, 97
1, 857900, Control_c, 0, 64, 102
1, 857915, Control_c, 0, 64, 109
1, 857930, Control_c, 0, 64, 126
1, 857945, Control_c, 0, 64, 127
1, 857974, Control_c, 0, 67, 75
1, 858004, Control_c, 0, 67, 75
1, 858019, Control_c, 0, 67, 76
1, 858034, Control_c, 0, 67, 76
1, 858048, Control_c, 0, 67, 77
1, 858063, Control_c, 0, 67, 77
1, 858078, Control_c, 0, 67, 78
1, 858093, Control_c, 0, 67, 78
1, 858105, Note_off_c, 0, 56, 47
1, 858107, Control_c, 0, 67, 79
1, 858122, Control_c, 0, 67, 80
1, 858138, Control_c, 0, 67, 81
1, 858153, Control_c, 0, 67, 81
1, 858155, Note_off_c, 0, 48, 41
1, 858168, Control_c, 0, 67, 82
1, 858182, Control_c, 0, 67, 84
1, 858197, Control_c, 0, 67, 86
1, 858212, Control_c, 0, 67, 89
1, 858227, Control_c, 0, 67, 93
1, 858242, Control_c, 0, 67, 98
1, 858256, Control_c, 0, 67, 102
1, 858259, Note_off_c, 0, 63, 53
1, 858271, Control_c, 0, 67, 109
1, 858287, Control_c, 0, 67, 115
1, 858302, Control_c, 0, 67, 121
1, 858307, Note_off_c, 0, 68, 57
1, 858317, Control_c, 0, 67, 126
1, 858331, Control_c, 0, 67, 127
1, 858534, Note_on_c, 0, 34, 42
1, 858537, Note_on_c, 0, 70, 59
1, 858552, Note_on_c, 0, 46, 38
1, 858563, Note_on_c, 0, 66, 47
1, 858571, Note_on_c, 0, 58, 46
1, 858576, Control_c, 0, 64, 98
1, 858591, Control_c, 0, 64, 83
1, 858599, Note_off_c, 0, 36, 40
1, 858605, Control_c, 0, 64, 73
1, 858620, Control_c, 0, 64, 66
1, 858635, Control_c, 0, 64, 64
1, 858650, Control_c, 0, 64, 66
1, 858665, Control_c, 0, 64, 69
1, 858680, Control_c, 0, 64, 73
1, 858695, Control_c, 0, 64, 79
1, 858709, Control_c, 0, 64, 87
1, 858724, Control_c, 0, 64, 96
1, 858739, Control_c, 0, 64, 111
1, 858754, Control_c, 0, 64, 127
1, 858772, Note_off_c, 0, 58, 59
1, 858813, Note_off_c, 0, 46, 47
1, 858828, Control_c, 0, 67, 127
1, 858838, Note_off_c, 0, 66, 59
1, 858843, Control_c, 0, 67, 122
1, 858847, Note_off_c, 0, 70, 61
1, 858857, Control_c, 0, 67, 115
1, 858872, Control_c, 0, 67, 104
1, 858887, Control_c, 0, 67, 92
1, 858902, Control_c, 0, 67, 80
1, 858917, Control_c, 0, 67, 68
1, 858931, Control_c, 0, 67, 57
1, 858946, Control_c, 0, 67, 50
1, 858960, Note_on_c, 0, 72, 71
1, 858961, Control_c, 0, 67, 44
1, 858969, Note_on_c, 0, 60, 58
1, 858973, Note_on_c, 0, 32, 54
1, 858975, Note_on_c, 0, 68, 57
1, 858976, Control_c, 0, 67, 37
1, 858984, Note_on_c, 0, 44, 46
1, 858991, Control_c, 0, 67, 32
1, 859005, Control_c, 0, 67, 28
1, 859010, Note_off_c, 0, 34, 42
1, 859020, Control_c, 0, 67, 24
1, 859034, Note_off_c, 0, 60, 59
1, 859035, Note_off_c, 0, 44, 60
1, 859035, Control_c, 0, 67, 22
1, 859049, Control_c, 0, 67, 22
1, 859061, Note_off_c, 0, 72, 62
1, 859064, Control_c, 0, 67, 21
1, 859067, Note_off_c, 0, 68, 61
1, 859125, Control_c, 0, 67, 22
1, 859154, Control_c, 0, 67, 23
1, 859169, Control_c, 0, 67, 24
1, 859184, Control_c, 0, 67, 25
1, 859194, Note_on_c, 0, 73, 72
1, 859199, Control_c, 0, 67, 25
1, 859201, Note_on_c, 0, 61, 56
1, 859202, Note_on_c, 0, 30, 50
1, 859203, Note_on_c, 0, 70, 61
1, 859215, Note_on_c, 0, 42, 38
1, 859228, Control_c, 0, 64, 106
1, 859228, Control_c, 0, 67, 26
1, 859243, Control_c, 0, 64, 83
1, 859258, Control_c, 0, 64, 67
1, 859258, Control_c, 0, 67, 26
1, 859264, Note_off_c, 0, 32, 33
1, 859273, Control_c, 0, 64, 24
1, 859288, Control_c, 0, 64, 0
1, 859310, Control_c, 0, 67, 27
1, 859340, Control_c, 0, 64, 34
1, 859354, Control_c, 0, 64, 60
1, 859369, Control_c, 0, 64, 67
1, 859369, Control_c, 0, 67, 27
1, 859384, Control_c, 0, 64, 73
1, 859399, Control_c, 0, 64, 84
1, 859414, Control_c, 0, 64, 98
1, 859414, Control_c, 0, 67, 28
1, 859428, Control_c, 0, 64, 127
1, 859443, Control_c, 0, 67, 28
1, 859456, Note_off_c, 0, 61, 61
1, 859456, Note_off_c, 0, 73, 60
1, 859473, Control_c, 0, 67, 29
1, 859479, Note_off_c, 0, 70, 63
1, 859532, Control_c, 0, 67, 29
1, 859599, Note_on_c, 0, 70, 71
1, 859604, Note_on_c, 0, 58, 67
1, 859610, Note_on_c, 0, 66, 59
1, 859663, Note_off_c, 0, 58, 58
1, 859670, Note_off_c, 0, 70, 63
1, 859688, Note_off_c, 0, 66, 61
1, 859739, Control_c, 0, 67, 30
1, 859798, Control_c, 0, 67, 30
1, 859821, Note_on_c, 0, 66, 61
1, 859838, Note_on_c, 0, 54, 48
1, 859838, Note_on_c, 0, 63, 57
1, 859842, Control_c, 0, 64, 112
1, 859842, Control_c, 0, 67, 31
1, 859857, Control_c, 0, 64, 86
1, 859873, Control_c, 0, 64, 66
1, 859873, Control_c, 0, 67, 31
1, 859888, Control_c, 0, 64, 32
1, 859902, Control_c, 0, 64, 0
1, 859917, Control_c, 0, 64, 29
1, 859932, Control_c, 0, 64, 52
1, 859947, Control_c, 0, 64, 64
1, 859962, Control_c, 0, 64, 71
1, 859976, Control_c, 0, 64, 82
1, 859991, Control_c, 0, 64, 100
1, 860006, Control_c, 0, 64, 127
1, 860072, Note_off_c, 0, 63, 59
1, 860074, Note_off_c, 0, 30, 47
1, 860076, Note_off_c, 0, 54, 64
1, 860085, Note_off_c, 0, 66, 59
1, 860100, Note_off_c, 0, 42, 41
1, 860162, Control_c, 0, 67, 31
1, 860251, Control_c, 0, 64, 114
1, 860257, Note_on_c, 0, 65, 64
1, 860262, Note_on_c, 0, 31, 42
1, 860263, Note_on_c, 0, 43, 44
1, 860265, Control_c, 0, 64, 85
1, 860266, Note_on_c, 0, 53, 48
1, 860268, Note_on_c, 0, 61, 50
1, 860280, Control_c, 0, 64, 68
1, 860295, Control_c, 0, 64, 53
1, 860310, Control_c, 0, 64, 51
1, 860322, Note_off_c, 0, 43, 61
1, 860325, Control_c, 0, 64, 61
1, 860340, Control_c, 0, 64, 66
1, 860355, Control_c, 0, 64, 74
1, 860358, Note_off_c, 0, 61, 57
1, 860361, Note_off_c, 0, 53, 60
1, 860369, Note_off_c, 0, 65, 60
1, 860369, Control_c, 0, 64, 85
1, 860384, Control_c, 0, 64, 102
1, 860384, Control_c, 0, 67, 30
1, 860399, Control_c, 0, 64, 127
1, 860444, Control_c, 0, 67, 30
1, 860492, Note_on_c, 0, 65, 55
1, 860504, Note_on_c, 0, 53, 40
1, 860505, Note_on_c, 0, 61, 45
1, 860515, Note_on_c, 0, 44, 35
1, 860530, Note_on_c, 0, 32, 37
1, 860557, Note_off_c, 0, 31, 38
1, 860562, Control_c, 0, 64, 122
1, 860576, Control_c, 0, 64, 90
1, 860576, Control_c, 0, 67, 30
1, 860591, Control_c, 0, 64, 72
1, 860606, Control_c, 0, 64, 49
1, 860620, Control_c, 0, 64, 0
1, 860650, Control_c, 0, 67, 31
1, 860711, Control_c, 0, 64, 30
1, 860725, Control_c, 0, 64, 63
1, 860740, Control_c, 0, 64, 68
1, 860755, Control_c, 0, 64, 75
1, 860770, Control_c, 0, 64, 84
1, 860785, Control_c, 0, 64, 95
1, 860807, Control_c, 0, 64, 110
1, 860822, Control_c, 0, 64, 127
1, 860852, Control_c, 0, 67, 31
1, 860867, Control_c, 0, 67, 32
1, 860881, Control_c, 0, 67, 32
1, 860896, Control_c, 0, 67, 33
1, 860911, Control_c, 0, 67, 34
1, 860912, Note_off_c, 0, 53, 58
1, 860925, Control_c, 0, 67, 34
1, 860940, Control_c, 0, 67, 36
1, 860955, Control_c, 0, 67, 39
1, 860966, Note_off_c, 0, 61, 46
1, 860970, Control_c, 0, 67, 43
1, 860985, Control_c, 0, 67, 46
1, 860999, Control_c, 0, 67, 50
1, 861014, Control_c, 0, 67, 55
1, 861029, Control_c, 0, 67, 60
1, 861044, Control_c, 0, 67, 64
1, 861059, Control_c, 0, 67, 71
1, 861073, Control_c, 0, 67, 76
1, 861088, Control_c, 0, 67, 81
1, 861103, Control_c, 0, 67, 85
1, 861118, Control_c, 0, 67, 88
1, 861133, Control_c, 0, 67, 92
1, 861148, Control_c, 0, 67, 94
1, 861163, Control_c, 0, 67, 98
1, 861178, Control_c, 0, 67, 101
1, 861193, Control_c, 0, 67, 104
1, 861207, Control_c, 0, 64, 126
1, 861207, Control_c, 0, 67, 107
1, 861222, Control_c, 0, 64, 96
1, 861222, Control_c, 0, 67, 110
1, 861237, Control_c, 0, 64, 80
1, 861237, Control_c, 0, 67, 114
1, 861240, Note_on_c, 0, 63, 42
1, 861242, Note_on_c, 0, 60, 35
1, 861252, Control_c, 0, 64, 65
1, 861252, Control_c, 0, 67, 117
1, 861263, Note_on_c, 0, 51, 26
1, 861267, Control_c, 0, 64, 0
1, 861267, Control_c, 0, 67, 120
1, 861282, Control_c, 0, 67, 123
1, 861297, Control_c, 0, 67, 125
1, 861312, Control_c, 0, 67, 127
1, 861323, Note_off_c, 0, 65, 38
1, 861400, Control_c, 0, 64, 14
1, 861415, Control_c, 0, 64, 61
1, 861430, Control_c, 0, 64, 68
1, 861443, Note_off_c, 0, 51, 57
1, 861444, Control_c, 0, 64, 74
1, 861459, Control_c, 0, 64, 82
1, 861476, Control_c, 0, 64, 91
1, 861490, Control_c, 0, 64, 103
1, 861503, Note_off_c, 0, 32, 41
1, 861505, Control_c, 0, 64, 111
1, 861520, Control_c, 0, 64, 119
1, 861535, Control_c, 0, 64, 127
1, 861574, Note_off_c, 0, 60, 49
1, 861578, Note_off_c, 0, 63, 53
1, 861580, Note_off_c, 0, 44, 42
1, 861705, Control_c, 0, 64, 121
1, 861720, Control_c, 0, 64, 113
1, 861735, Control_c, 0, 64, 107
1, 861749, Control_c, 0, 64, 101
1, 861764, Control_c, 0, 64, 97
1, 861779, Control_c, 0, 64, 91
1, 861794, Control_c, 0, 64, 86
1, 861809, Control_c, 0, 64, 81
1, 861823, Control_c, 0, 64, 76
1, 861838, Control_c, 0, 64, 71
1, 861853, Control_c, 0, 64, 66
1, 861867, Control_c, 0, 64, 60
1, 861882, Control_c, 0, 64, 51
1, 861897, Control_c, 0, 64, 35
1, 861912, Control_c, 0, 64, 0
1, 861938, Note_on_c, 0, 65, 57
1, 861959, Note_on_c, 0, 49, 45
1, 861966, Note_on_c, 0, 37, 40
1, 861966, Note_on_c, 0, 56, 44
1, 861966, Note_on_c, 0, 61, 41
1, 861968, Note_on_c, 0, 53, 40
1, 862075, Control_c, 0, 64, 51
1, 862090, Control_c, 0, 64, 65
1, 862090, Control_c, 0, 67, 124
1, 862105, Control_c, 0, 64, 70
1, 862105, Control_c, 0, 67, 118
1, 862120, Control_c, 0, 64, 76
1, 862120, Control_c, 0, 67, 111
1, 862135, Control_c, 0, 64, 84
1, 862135, Control_c, 0, 67, 101
1, 862149, Control_c, 0, 64, 97
1, 862149, Control_c, 0, 67, 90
1, 862164, Control_c, 0, 64, 112
1, 862164, Control_c, 0, 67, 78
1, 862179, Control_c, 0, 64, 127
1, 862179, Control_c, 0, 67, 68
1, 862188, Note_off_c, 0, 53, 56
1, 862194, Control_c, 0, 67, 57
1, 862209, Control_c, 0, 67, 48
1, 862211, Note_off_c, 0, 56, 59
1, 862223, Control_c, 0, 67, 41
1, 862230, Note_off_c, 0, 61, 41
1, 862238, Control_c, 0, 67, 36
1, 862253, Control_c, 0, 67, 32
1, 862266, Note_off_c, 0, 65, 59
1, 862269, Control_c, 0, 67, 28
1, 862284, Control_c, 0, 67, 24
1, 862305, Control_c, 0, 67, 22
1, 862320, Control_c, 0, 67, 20
1, 862335, Control_c, 0, 67, 18
1, 862350, Control_c, 0, 67, 17
1, 862399, Note_off_c, 0, 49, 54
1, 862513, Control_c, 0, 67, 18
1, 862528, Control_c, 0, 67, 19
1, 862558, Control_c, 0, 67, 19
1, 862572, Control_c, 0, 67, 20
1, 862617, Control_c, 0, 67, 20
1, 862619, Note_on_c, 0, 68, 64
1, 862632, Note_on_c, 0, 56, 42
1, 862634, Note_on_c, 0, 48, 37
1, 862639, Note_on_c, 0, 36, 41
1, 862647, Note_on_c, 0, 63, 43
1, 862647, Control_c, 0, 67, 21
1, 862706, Control_c, 0, 64, 109
1, 862706, Control_c, 0, 67, 21
1, 862721, Control_c, 0, 64, 93
1, 862736, Control_c, 0, 64, 82
1, 862751, Control_c, 0, 64, 72
1, 862765, Control_c, 0, 64, 64
1, 862780, Control_c, 0, 64, 51
1, 862795, Control_c, 0, 64, 40
1, 862810, Control_c, 0, 64, 29
1, 862823, Note_off_c, 0, 37, 43
1, 862825, Control_c, 0, 64, 0
1, 862913, Control_c, 0, 64, 19
1, 862928, Control_c, 0, 64, 49
1, 862943, Control_c, 0, 64, 62
1, 862943, Control_c, 0, 67, 21
1, 862958, Control_c, 0, 64, 65
1, 862958, Control_c, 0, 67, 20
1, 862972, Control_c, 0, 64, 68
1, 862987, Control_c, 0, 64, 71
1, 862987, Control_c, 0, 67, 20
1, 863002, Control_c, 0, 64, 76
1, 863002, Control_c, 0, 67, 19
1, 863017, Control_c, 0, 64, 84
1, 863017, Control_c, 0, 67, 19
1, 863032, Control_c, 0, 64, 91
1, 863054, Control_c, 0, 64, 100
1, 863054, Control_c, 0, 67, 18
1, 863070, Control_c, 0, 64, 111
1, 863085, Control_c, 0, 64, 127
1, 863085, Control_c, 0, 67, 17
1, 863100, Control_c, 0, 67, 17
1, 863115, Control_c, 0, 67, 16
1, 863129, Control_c, 0, 67, 16
1, 863159, Control_c, 0, 67, 15
1, 863174, Control_c, 0, 67, 13
1, 863189, Control_c, 0, 67, 9
1, 863203, Control_c, 0, 67, 0
1, 863225, Note_off_c, 0, 56, 59
1, 863372, Note_off_c, 0, 63, 47
1, 863411, Note_off_c, 0, 48, 41
1, 863457, Note_off_c, 0, 68, 53
1, 863798, Note_on_c, 0, 73, 74
1, 863804, Note_on_c, 0, 61, 61
1, 863822, Note_on_c, 0, 70, 62
1, 863827, Note_on_c, 0, 46, 49
1, 863828, Note_on_c, 0, 34, 42
1, 863846, Control_c, 0, 64, 99
1, 863861, Control_c, 0, 64, 83
1, 863878, Control_c, 0, 64, 72
1, 863893, Control_c, 0, 64, 68
1, 863907, Control_c, 0, 64, 70
1, 863922, Control_c, 0, 64, 73
1, 863937, Control_c, 0, 64, 79
1, 863951, Control_c, 0, 64, 87
1, 863959, Note_off_c, 0, 36, 36
1, 863966, Control_c, 0, 64, 101
1, 863980, Note_off_c, 0, 61, 61
1, 863981, Control_c, 0, 64, 127
1, 864006, Note_off_c, 0, 70, 62
1, 864039, Note_off_c, 0, 46, 61
1, 864206, Note_on_c, 0, 75, 83
1, 864212, Note_on_c, 0, 72, 50
1, 864214, Note_on_c, 0, 70, 64
1, 864215, Note_on_c, 0, 63, 69
1, 864218, Note_on_c, 0, 30, 63
1, 864224, Note_on_c, 0, 42, 61
1, 864247, Note_off_c, 0, 34, 46
1, 864291, Note_off_c, 0, 70, 61
1, 864296, Note_off_c, 0, 72, 60
1, 864299, Note_off_c, 0, 63, 61
1, 864320, Note_off_c, 0, 30, 59
1, 864327, Note_off_c, 0, 75, 63
1, 864330, Note_off_c, 0, 73, 35
1, 864331, Note_off_c, 0, 42, 50
1, 864486, Note_on_c, 0, 77, 79
1, 864491, Note_on_c, 0, 73, 62
1, 864493, Note_on_c, 0, 68, 65
1, 864497, Note_on_c, 0, 29, 58
1, 864503, Note_on_c, 0, 65, 65
1, 864514, Control_c, 0, 64, 91
1, 864517, Note_on_c, 0, 41, 44
1, 864529, Control_c, 0, 64, 71
1, 864551, Control_c, 0, 64, 59
1, 864566, Control_c, 0, 64, 42
1, 864596, Control_c, 0, 64, 49
1, 864611, Control_c, 0, 64, 61
1, 864625, Control_c, 0, 64, 67
1, 864640, Control_c, 0, 64, 73
1, 864655, Control_c, 0, 64, 81
1, 864671, Control_c, 0, 64, 92
1, 864686, Control_c, 0, 64, 108
1, 864700, Control_c, 0, 64, 127
1, 864743, Note_off_c, 0, 77, 58
1, 864762, Note_off_c, 0, 73, 62
1, 864765, Note_off_c, 0, 65, 63
1, 864924, Note_off_c, 0, 41, 47
1, 864928, Note_on_c, 0, 73, 80
1, 864936, Note_on_c, 0, 61, 69
1, 864981, Note_off_c, 0, 61, 58
1, 864998, Note_off_c, 0, 68, 62
1, 865015, Note_off_c, 0, 73, 61
1, 865156, Note_on_c, 0, 30, 53
1, 865157, Note_on_c, 0, 70, 76
1, 865160, Note_on_c, 0, 58, 64
1, 865162, Note_on_c, 0, 42, 50
1, 865167, Note_on_c, 0, 66, 65
1, 865204, Control_c, 0, 64, 101
1, 865218, Control_c, 0, 64, 82
1, 865233, Control_c, 0, 64, 68
1, 865240, Note_off_c, 0, 29, 44
1, 865248, Control_c, 0, 64, 49
1, 865263, Control_c, 0, 64, 0
1, 865315, Control_c, 0, 64, 24
1, 865330, Control_c, 0, 64, 49
1, 865345, Control_c, 0, 64, 63
1, 865360, Control_c, 0, 64, 69
1, 865374, Control_c, 0, 64, 76
1, 865389, Control_c, 0, 64, 87
1, 865404, Control_c, 0, 64, 101
1, 865409, Note_off_c, 0, 70, 64
1, 865416, Note_off_c, 0, 58, 60
1, 865418, Control_c, 0, 64, 127
1, 865462, Note_off_c, 0, 66, 61
1, 865589, Note_on_c, 0, 66, 65
1, 865594, Note_on_c, 0, 63, 60
1, 865595, Note_on_c, 0, 54, 61
1, 865595, Note_off_c, 0, 30, 40
1, 865618, Note_off_c, 0, 42, 59
1, 865643, Note_off_c, 0, 54, 59
1, 865661, Note_off_c, 0, 63, 58
1, 865668, Note_off_c, 0, 66, 60
1, 865819, Control_c, 0, 64, 107
1, 865821, Note_on_c, 0, 65, 63
1, 865828, Note_on_c, 0, 31, 41
1, 865834, Control_c, 0, 64, 85
1, 865839, Note_on_c, 0, 61, 51
1, 865840, Note_on_c, 0, 53, 50
1, 865842, Note_on_c, 0, 43, 30
1, 865848, Control_c, 0, 64, 69
1, 865863, Control_c, 0, 64, 0
1, 865982, Control_c, 0, 64, 42
1, 865996, Control_c, 0, 64, 63
1, 866011, Control_c, 0, 64, 68
1, 866026, Control_c, 0, 64, 74
1, 866048, Control_c, 0, 64, 84
1, 866063, Control_c, 0, 64, 95
1, 866078, Control_c, 0, 64, 108
1, 866093, Control_c, 0, 64, 127
1, 866206, Note_off_c, 0, 43, 51
1, 866216, Note_off_c, 0, 53, 53
1, 866221, Note_off_c, 0, 61, 54
1, 866478, Control_c, 0, 67, 8
1, 866493, Control_c, 0, 67, 9
1, 866508, Control_c, 0, 67, 9
1, 866523, Control_c, 0, 67, 10
1, 866537, Control_c, 0, 64, 113
1, 866537, Control_c, 0, 67, 11
1, 866549, Note_on_c, 0, 60, 42
1, 866552, Control_c, 0, 64, 92
1, 866552, Control_c, 0, 67, 13
1, 866553, Note_on_c, 0, 63, 42
1, 866567, Control_c, 0, 64, 76
1, 866567, Control_c, 0, 67, 15
1, 866573, Note_on_c, 0, 32, 34
1, 866576, Note_off_c, 0, 65, 38
1, 866580, Note_on_c, 0, 51, 34
1, 866582, Control_c, 0, 64, 62
1, 866582, Control_c, 0, 67, 17
1, 866583, Note_on_c, 0, 44, 27
1, 866597, Control_c, 0, 64, 0
1, 866597, Control_c, 0, 67, 19
1, 866612, Control_c, 0, 67, 20
1, 866618, Note_off_c, 0, 31, 42
1, 866627, Control_c, 0, 67, 22
1, 866642, Control_c, 0, 67, 25
1, 866657, Control_c, 0, 67, 28
1, 866671, Control_c, 0, 67, 32
1, 866686, Control_c, 0, 67, 35
1, 866701, Control_c, 0, 67, 38
1, 866716, Control_c, 0, 67, 41
1, 866731, Control_c, 0, 64, 54
1, 866731, Control_c, 0, 67, 43
1, 866745, Control_c, 0, 64, 64
1, 866745, Control_c, 0, 67, 46
1, 866760, Control_c, 0, 64, 69
1, 866760, Control_c, 0, 67, 49
1, 866775, Control_c, 0, 64, 75
1, 866775, Control_c, 0, 67, 52
1, 866797, Control_c, 0, 64, 82
1, 866797, Control_c, 0, 67, 56
1, 866810, Note_off_c, 0, 44, 53
1, 866812, Control_c, 0, 64, 89
1, 866812, Control_c, 0, 67, 59
1, 866817, Note_off_c, 0, 51, 54
1, 866826, Control_c, 0, 64, 94
1, 866826, Control_c, 0, 67, 63
1, 866841, Control_c, 0, 64, 97
1, 866841, Control_c, 0, 67, 68
1, 866856, Control_c, 0, 64, 98
1, 866856, Control_c, 0, 67, 74
1, 866871, Control_c, 0, 64, 99
1, 866871, Control_c, 0, 67, 80
1, 866878, Note_off_c, 0, 63, 34
1, 866883, Note_off_c, 0, 60, 35
1, 866886, Control_c, 0, 64, 100
1, 866886, Control_c, 0, 67, 86
1, 866901, Control_c, 0, 67, 93
1, 866903, Note_off_c, 0, 32, 41
1, 866916, Control_c, 0, 67, 101
1, 866931, Control_c, 0, 67, 108
1, 866945, Control_c, 0, 67, 116
1, 866960, Control_c, 0, 67, 125
1, 866975, Control_c, 0, 67, 127
1, 867034, Control_c, 0, 64, 99
1, 867049, Control_c, 0, 64, 99
1, 867065, Control_c, 0, 64, 98
1, 867080, Control_c, 0, 64, 96
1, 867094, Control_c, 0, 64, 94
1, 867109, Control_c, 0, 64, 91
1, 867125, Control_c, 0, 64, 88
1, 867139, Control_c, 0, 64, 84
1, 867154, Control_c, 0, 64, 80
1, 867169, Control_c, 0, 64, 75
1, 867184, Control_c, 0, 64, 71
1, 867199, Control_c, 0, 64, 68
1, 867214, Control_c, 0, 64, 67
1, 867229, Control_c, 0, 64, 66
1, 867243, Control_c, 0, 64, 64
1, 867258, Control_c, 0, 64, 61
1, 867273, Control_c, 0, 64, 52
1, 867287, Control_c, 0, 64, 0
1, 867405, Control_c, 0, 64, 23
1, 867420, Note_on_c, 0, 27, 27
1, 867420, Control_c, 0, 64, 55
1, 867421, Note_on_c, 0, 63, 35
1, 867427, Note_on_c, 0, 54, 18
1, 867428, Note_on_c, 0, 39, 12
1, 867435, Control_c, 0, 64, 64
1, 867443, Note_on_c, 0, 58, 23
1, 867450, Control_c, 0, 64, 67
1, 867465, Control_c, 0, 64, 70
1, 867479, Control_c, 0, 64, 73
1, 867494, Control_c, 0, 64, 77
1, 867509, Control_c, 0, 64, 81
1, 867524, Control_c, 0, 64, 84
1, 867527, Note_off_c, 0, 39, 38
1, 867547, Control_c, 0, 64, 88
1, 867550, Note_off_c, 0, 27, 37
1, 867561, Control_c, 0, 64, 91
1, 867576, Control_c, 0, 64, 95
1, 867591, Control_c, 0, 64, 98
1, 867606, Control_c, 0, 64, 102
1, 867620, Control_c, 0, 64, 108
1, 867635, Control_c, 0, 64, 116
1, 867650, Control_c, 0, 64, 127
1, 867666, Note_on_c, 0, 39, 33
1, 867673, Note_on_c, 0, 27, 32
1, 867709, Note_off_c, 0, 39, 48
1, 867726, Note_off_c, 0, 27, 49
1, 867754, Note_off_c, 0, 63, 38
1, 867796, Note_off_c, 0, 58, 44
1, 867850, Note_on_c, 0, 39, 38
1, 867852, Note_on_c, 0, 27, 42
1, 867912, Note_off_c, 0, 39, 51
1, 867950, Note_off_c, 0, 27, 39
1, 868100, Note_on_c, 0, 27, 36
1, 868105, Note_on_c, 0, 66, 54
1, 868106, Note_on_c, 0, 63, 47
1, 868114, Note_on_c, 0, 58, 37
1, 868123, Note_on_c, 0, 39, 27
1, 868140, Control_c, 0, 64, 115
1, 868155, Control_c, 0, 64, 99
1, 868170, Control_c, 0, 64, 87
1, 868184, Control_c, 0, 64, 76
1, 868199, Control_c, 0, 64, 66
1, 868214, Control_c, 0, 64, 52
1, 868228, Control_c, 0, 64, 43
1, 868243, Control_c, 0, 64, 44
1, 868258, Control_c, 0, 64, 51
1, 868273, Control_c, 0, 64, 59
1, 868296, Control_c, 0, 64, 64
1, 868310, Control_c, 0, 64, 67
1, 868325, Control_c, 0, 64, 71
1, 868340, Control_c, 0, 64, 77
1, 868355, Control_c, 0, 64, 82
1, 868370, Control_c, 0, 64, 87
1, 868384, Control_c, 0, 64, 92
1, 868399, Control_c, 0, 64, 97
1, 868413, Note_off_c, 0, 54, 45
1, 868414, Control_c, 0, 64, 103
1, 868429, Control_c, 0, 64, 112
1, 868443, Control_c, 0, 64, 127
1, 868469, Note_off_c, 0, 39, 41
1, 868475, Note_off_c, 0, 27, 47
1, 868776, Note_off_c, 0, 63, 29
1, 868784, Note_off_c, 0, 58, 54
1, 868795, Note_on_c, 0, 27, 43
1, 868800, Note_on_c, 0, 39, 32
1, 868863, Note_off_c, 0, 39, 44
1, 868868, Note_off_c, 0, 27, 53
1, 869005, Note_on_c, 0, 39, 44
1, 869007, Note_on_c, 0, 27, 45
1, 869076, Note_off_c, 0, 27, 52
1, 869077, Note_off_c, 0, 39, 47
1, 869190, Note_on_c, 0, 56, 54
1, 869190, Note_on_c, 0, 59, 47
1, 869196, Note_on_c, 0, 65, 67
1, 869197, Note_on_c, 0, 39, 50
1, 869202, Note_on_c, 0, 27, 45
1, 869218, Note_off_c, 0, 56, 65
1, 869230, Note_off_c, 0, 59, 61
1, 869242, Note_off_c, 0, 39, 51
1, 869257, Note_off_c, 0, 65, 62
1, 869260, Note_off_c, 0, 66, 54
1, 869262, Note_off_c, 0, 27, 44
1, 869420, Note_on_c, 0, 68, 66
1, 869425, Note_on_c, 0, 59, 57
1, 869432, Note_on_c, 0, 65, 56
1, 869436, Note_on_c, 0, 62, 49
1, 869441, Note_on_c, 0, 27, 44
1, 869449, Note_on_c, 0, 39, 37
1, 869460, Control_c, 0, 64, 110
1, 869475, Control_c, 0, 64, 89
1, 869489, Control_c, 0, 64, 79
1, 869504, Control_c, 0, 64, 73
1, 869519, Control_c, 0, 64, 73
1, 869524, Note_off_c, 0, 62, 57
1, 869534, Control_c, 0, 64, 75
1, 869549, Control_c, 0, 64, 79
1, 869563, Control_c, 0, 64, 86
1, 869578, Control_c, 0, 64, 97
1, 869587, Note_off_c, 0, 68, 62
1, 869593, Control_c, 0, 64, 110
1, 869608, Control_c, 0, 64, 127
1, 869613, Note_off_c, 0, 59, 58
1, 869697, Control_c, 0, 67, 120
1, 869712, Control_c, 0, 67, 111
1, 869727, Control_c, 0, 67, 98
1, 869728, Note_off_c, 0, 27, 54
1, 869742, Note_off_c, 0, 39, 56
1, 869742, Control_c, 0, 67, 80
1, 869756, Control_c, 0, 67, 65
1, 869771, Control_c, 0, 67, 52
1, 869789, Poly_aftertouch_c, 0, 31, 127
1, 869793, Control_c, 0, 67, 42
1, 869796, Note_on_c, 0, 66, 77
1, 869802, Note_on_c, 0, 58, 68
1, 869808, Note_on_c, 0, 63, 65
1, 869808, Control_c, 0, 67, 36
1, 869823, Control_c, 0, 67, 30
1, 869827, Note_off_c, 0, 65, 58
1, 869831, Note_off_c, 0, 58, 66
1, 869837, Control_c, 0, 67, 25
1, 869839, Note_off_c, 0, 63, 63
1, 869852, Control_c, 0, 67, 19
1, 869856, Poly_aftertouch_c, 0, 31, 0
1, 869866, Note_off_c, 0, 66, 65
1, 869867, Control_c, 0, 67, 15
1, 869882, Control_c, 0, 67, 11
1, 869897, Control_c, 0, 67, 8
1, 869912, Control_c, 0, 67, 0
1, 870015, Control_c, 0, 64, 102
1, 870016, Note_on_c, 0, 65, 41
1, 870016, Note_on_c, 0, 71, 75
1, 870020, Note_on_c, 0, 72, 74
1, 870021, Note_on_c, 0, 27, 54
1, 870027, Note_on_c, 0, 68, 61
1, 870030, Control_c, 0, 64, 82
1, 870032, Note_on_c, 0, 62, 63
1, 870034, Note_on_c, 0, 39, 39
1, 870045, Control_c, 0, 64, 68
1, 870060, Control_c, 0, 64, 64
1, 870075, Note_off_c, 0, 39, 53
1, 870075, Control_c, 0, 64, 65
1, 870089, Control_c, 0, 64, 68
1, 870094, Note_off_c, 0, 27, 57
1, 870104, Control_c, 0, 64, 74
1, 870118, Control_c, 0, 64, 81
1, 870133, Control_c, 0, 64, 91
1, 870148, Control_c, 0, 64, 107
1, 870152, Note_off_c, 0, 72, 53
1, 870162, Control_c, 0, 64, 127
1, 870187, Note_on_c, 0, 39, 60
1, 870204, Note_on_c, 0, 27, 62
1, 870269, Note_off_c, 0, 27, 60
1, 870305, Note_off_c, 0, 39, 38
1, 870381, Note_on_c, 0, 70, 86
1, 870383, Note_off_c, 0, 62, 61
1, 870391, Note_on_c, 0, 27, 65
1, 870394, Note_on_c, 0, 39, 65
1, 870394, Note_off_c, 0, 65, 62
1, 870408, Note_off_c, 0, 68, 63
1, 870421, Note_off_c, 0, 71, 64
1, 870436, Note_off_c, 0, 39, 58
1, 870438, Note_off_c, 0, 70, 64
1, 870448, Note_off_c, 0, 27, 51
1, 870640, Note_on_c, 0, 77, 83
1, 870648, Note_on_c, 0, 74, 68
1, 870649, Note_on_c, 0, 71, 64
1, 870650, Note_on_c, 0, 68, 67
1, 870660, Control_c, 0, 64, 108
1, 870672, Note_on_c, 0, 27, 56
1, 870672, Note_on_c, 0, 39, 47
1, 870675, Control_c, 0, 64, 86
1, 870690, Control_c, 0, 64, 71
1, 870704, Control_c, 0, 64, 59
1, 870719, Control_c, 0, 64, 40
1, 870734, Control_c, 0, 64, 40
1, 870749, Control_c, 0, 64, 42
1, 870764, Control_c, 0, 64, 52
1, 870779, Control_c, 0, 64, 62
1, 870793, Control_c, 0, 64, 67
1, 870808, Control_c, 0, 64, 75
1, 870810, Note_off_c, 0, 71, 64
1, 870823, Control_c, 0, 64, 85
1, 870837, Control_c, 0, 64, 98
1, 870852, Control_c, 0, 64, 127
1, 870872, Note_off_c, 0, 68, 59
1, 871003, Note_off_c, 0, 27, 58
1, 871030, Note_off_c, 0, 39, 57
1, 871040, Note_on_c, 0, 75, 76
1, 871047, Note_on_c, 0, 66, 76
1, 871049, Note_on_c, 0, 70, 82
1, 871065, Note_off_c, 0, 74, 64
1, 871077, Note_off_c, 0, 66, 60
1, 871081, Note_off_c, 0, 77, 61
1, 871104, Note_off_c, 0, 70, 62
1, 871111, Note_off_c, 0, 75, 63
1, 871299, Note_on_c, 0, 73, 82
1, 871312, Note_on_c, 0, 70, 67
1, 871314, Note_on_c, 0, 61, 65
1, 871320, Note_on_c, 0, 27, 59
1, 871322, Note_on_c, 0, 67, 60
1, 871322, Note_on_c, 0, 39, 55
1, 871335, Control_c, 0, 64, 96
1, 871350, Control_c, 0, 64, 77
1, 871365, Control_c, 0, 64, 63
1, 871380, Control_c, 0, 64, 0
1, 871424, Control_c, 0, 64, 14
1, 871439, Control_c, 0, 64, 53
1, 871454, Control_c, 0, 64, 64
1, 871468, Control_c, 0, 64, 71
1, 871483, Control_c, 0, 64, 79
1, 871498, Control_c, 0, 64, 89
1, 871513, Control_c, 0, 64, 103
1, 871528, Control_c, 0, 64, 127
1, 871647, Note_off_c, 0, 73, 58
1, 871677, Note_off_c, 0, 27, 43
1, 871712, Note_off_c, 0, 39, 58
1, 871993, Note_on_c, 0, 28, 48
1, 871993, Note_on_c, 0, 40, 46
1, 872018, Note_on_c, 0, 72, 70
1, 872018, Control_c, 0, 64, 123
1, 872040, Control_c, 0, 64, 94
1, 872055, Control_c, 0, 64, 77
1, 872070, Control_c, 0, 64, 66
1, 872084, Control_c, 0, 64, 59
1, 872099, Control_c, 0, 64, 57
1, 872114, Control_c, 0, 64, 59
1, 872129, Control_c, 0, 64, 63
1, 872144, Control_c, 0, 64, 66
1, 872158, Control_c, 0, 64, 69
1, 872173, Control_c, 0, 64, 73
1, 872188, Control_c, 0, 64, 79
1, 872202, Control_c, 0, 64, 85
1, 872217, Control_c, 0, 64, 92
1, 872221, Note_on_c, 0, 73, 83
1, 872232, Control_c, 0, 64, 102
1, 872247, Control_c, 0, 64, 115
1, 872260, Note_off_c, 0, 72, 61
1, 872262, Control_c, 0, 64, 127
1, 872264, Note_off_c, 0, 70, 44
1, 872286, Note_off_c, 0, 67, 57
1, 872371, Note_off_c, 0, 28, 54
1, 872394, Note_on_c, 0, 72, 79
1, 872414, Note_off_c, 0, 40, 40
1, 872442, Note_off_c, 0, 61, 61
1, 872466, Note_off_c, 0, 73, 61
1, 872475, Note_off_c, 0, 72, 63
1, 872614, Note_on_c, 0, 61, 62
1, 872617, Note_on_c, 0, 71, 70
1, 872626, Note_on_c, 0, 68, 63
1, 872633, Note_on_c, 0, 41, 49
1, 872636, Note_on_c, 0, 29, 48
1, 872648, Control_c, 0, 64, 101
1, 872663, Control_c, 0, 64, 82
1, 872678, Control_c, 0, 64, 68
1, 872693, Control_c, 0, 64, 48
1, 872707, Control_c, 0, 64, 0
1, 872788, Control_c, 0, 64, 24
1, 872803, Control_c, 0, 64, 54
1, 872818, Control_c, 0, 64, 64
1, 872833, Control_c, 0, 64, 68
1, 872848, Control_c, 0, 64, 73
1, 872863, Control_c, 0, 64, 80
1, 872878, Control_c, 0, 64, 88
1, 872893, Control_c, 0, 64, 99
1, 872907, Control_c, 0, 64, 114
1, 872922, Control_c, 0, 64, 127
1, 873011, Note_off_c, 0, 29, 41
1, 873046, Note_off_c, 0, 41, 59
1, 873277, Control_c, 0, 67, 8
1, 873292, Control_c, 0, 67, 9
1, 873307, Control_c, 0, 67, 9
1, 873315, Note_on_c, 0, 70, 63
1, 873322, Control_c, 0, 64, 109
1, 873322, Control_c, 0, 67, 10
1, 873332, Note_on_c, 0, 30, 46
1, 873337, Note_on_c, 0, 42, 42
1, 873337, Note_on_c, 0, 66, 56
1, 873337, Control_c, 0, 64, 91
1, 873337, Control_c, 0, 67, 11
1, 873352, Control_c, 0, 64, 78
1, 873352, Control_c, 0, 67, 12
1, 873364, Note_off_c, 0, 68, 58
1, 873364, Note_off_c, 0, 71, 56
1, 873367, Control_c, 0, 64, 66
1, 873367, Control_c, 0, 67, 12
1, 873381, Control_c, 0, 64, 51
1, 873381, Control_c, 0, 67, 13
1, 873396, Control_c, 0, 64, 19
1, 873396, Control_c, 0, 67, 14
1, 873411, Control_c, 0, 64, 0
1, 873411, Control_c, 0, 67, 16
1, 873425, Control_c, 0, 67, 17
1, 873440, Control_c, 0, 67, 18
1, 873456, Control_c, 0, 67, 20
1, 873471, Control_c, 0, 67, 21
1, 873486, Control_c, 0, 67, 21
1, 873501, Control_c, 0, 67, 22
1, 873516, Control_c, 0, 64, 42
1, 873516, Control_c, 0, 67, 23
1, 873531, Note_on_c, 0, 71, 65
1, 873537, Control_c, 0, 64, 61
1, 873543, Note_off_c, 0, 70, 60
1, 873552, Control_c, 0, 64, 66
1, 873567, Control_c, 0, 64, 71
1, 873582, Control_c, 0, 64, 76
1, 873597, Control_c, 0, 64, 83
1, 873611, Control_c, 0, 64, 91
1, 873626, Control_c, 0, 64, 100
1, 873641, Control_c, 0, 64, 110
1, 873656, Control_c, 0, 64, 127
1, 873685, Note_off_c, 0, 30, 39
1, 873686, Control_c, 0, 67, 23
1, 873700, Control_c, 0, 67, 24
1, 873717, Note_on_c, 0, 70, 72
1, 873730, Control_c, 0, 67, 24
1, 873745, Control_c, 0, 67, 27
1, 873751, Note_off_c, 0, 71, 62
1, 873759, Note_off_c, 0, 66, 51
1, 873760, Control_c, 0, 67, 30
1, 873769, Note_off_c, 0, 42, 41
1, 873772, Note_off_c, 0, 61, 61
1, 873775, Control_c, 0, 67, 32
1, 873790, Control_c, 0, 67, 34
1, 873795, Note_off_c, 0, 70, 61
1, 873804, Control_c, 0, 67, 36
1, 873819, Control_c, 0, 67, 38
1, 873834, Control_c, 0, 67, 39
1, 873848, Control_c, 0, 67, 41
1, 873863, Control_c, 0, 67, 41
1, 873878, Control_c, 0, 67, 42
1, 873893, Control_c, 0, 67, 43
1, 873908, Control_c, 0, 67, 44
1, 873922, Control_c, 0, 67, 44
1, 873937, Control_c, 0, 67, 45
1, 873952, Control_c, 0, 67, 46
1, 873954, Note_on_c, 0, 69, 56
1, 873958, Note_on_c, 0, 31, 40
1, 873958, Note_on_c, 0, 64, 49
1, 873963, Note_on_c, 0, 43, 41
1, 873967, Control_c, 0, 67, 46
1, 873972, Note_on_c, 0, 61, 50
1, 873981, Control_c, 0, 64, 104
1, 873981, Control_c, 0, 67, 47
1, 873996, Control_c, 0, 64, 86
1, 873996, Control_c, 0, 67, 47
1, 874011, Control_c, 0, 64, 72
1, 874011, Control_c, 0, 67, 48
1, 874026, Control_c, 0, 64, 61
1, 874026, Control_c, 0, 67, 48
1, 874041, Control_c, 0, 64, 40
1, 874055, Control_c, 0, 64, 38
1, 874085, Control_c, 0, 67, 49
1, 874100, Control_c, 0, 64, 42
1, 874115, Control_c, 0, 64, 51
1, 874115, Control_c, 0, 67, 49
1, 874130, Control_c, 0, 64, 61
1, 874130, Control_c, 0, 67, 50
1, 874145, Control_c, 0, 64, 65
1, 874145, Control_c, 0, 67, 50
1, 874159, Control_c, 0, 64, 68
1, 874159, Control_c, 0, 67, 52
1, 874174, Control_c, 0, 64, 72
1, 874174, Control_c, 0, 67, 53
1, 874189, Control_c, 0, 64, 76
1, 874189, Control_c, 0, 67, 54
1, 874204, Control_c, 0, 64, 82
1, 874204, Control_c, 0, 67, 56
1, 874219, Control_c, 0, 64, 89
1, 874219, Control_c, 0, 67, 58
1, 874234, Control_c, 0, 64, 98
1, 874234, Control_c, 0, 67, 60
1, 874249, Control_c, 0, 64, 106
1, 874249, Control_c, 0, 67, 62
1, 874264, Control_c, 0, 64, 117
1, 874264, Control_c, 0, 67, 63
1, 874286, Control_c, 0, 64, 127
1, 874286, Control_c, 0, 67, 65
1, 874301, Control_c, 0, 67, 67
1, 874316, Control_c, 0, 67, 70
1, 874331, Control_c, 0, 67, 73
1, 874341, Note_off_c, 0, 31, 40
1, 874346, Control_c, 0, 67, 76
1, 874360, Control_c, 0, 67, 79
1, 874375, Control_c, 0, 67, 82
1, 874383, Note_off_c, 0, 43, 41
1, 874390, Control_c, 0, 67, 85
1, 874404, Control_c, 0, 67, 88
1, 874417, Note_off_c, 0, 61, 50
1, 874419, Control_c, 0, 67, 91
1, 874420, Note_off_c, 0, 64, 61
1, 874434, Control_c, 0, 67, 95
1, 874449, Control_c, 0, 67, 98
1, 874464, Control_c, 0, 67, 101
1, 874478, Control_c, 0, 67, 104
1, 874493, Control_c, 0, 67, 106
1, 874508, Control_c, 0, 67, 107
1, 874523, Control_c, 0, 67, 108
1, 874538, Control_c, 0, 67, 109
1, 874568, Control_c, 0, 67, 110
1, 874597, Control_c, 0, 67, 110
1, 874671, Control_c, 0, 67, 111
1, 874675, Note_on_c, 0, 68, 58
1, 874683, Note_on_c, 0, 32, 38
1, 874689, Note_on_c, 0, 64, 43
1, 874690, Note_on_c, 0, 61, 38
1, 874701, Control_c, 0, 64, 99
1, 874714, Note_off_c, 0, 69, 56
1, 874716, Control_c, 0, 64, 82
1, 874725, Note_on_c, 0, 44, 37
1, 874731, Control_c, 0, 64, 69
1, 874745, Control_c, 0, 64, 56
1, 874760, Control_c, 0, 64, 34
1, 874775, Control_c, 0, 64, 33
1, 874804, Control_c, 0, 64, 42
1, 874819, Control_c, 0, 64, 55
1, 874834, Control_c, 0, 64, 64
1, 874834, Control_c, 0, 67, 110
1, 874849, Control_c, 0, 64, 68
1, 874849, Control_c, 0, 67, 110
1, 874864, Control_c, 0, 64, 73
1, 874864, Control_c, 0, 67, 109
1, 874865, Note_off_c, 0, 68, 58
1, 874878, Control_c, 0, 64, 79
1, 874878, Control_c, 0, 67, 108
1, 874887, Note_on_c, 0, 69, 56
1, 874893, Control_c, 0, 64, 88
1, 874893, Control_c, 0, 67, 107
1, 874908, Control_c, 0, 64, 98
1, 874908, Control_c, 0, 67, 106
1, 874923, Control_c, 0, 64, 110
1, 874923, Control_c, 0, 67, 106
1, 874938, Control_c, 0, 64, 127
1, 874938, Control_c, 0, 67, 105
1, 875011, Note_off_c, 0, 32, 42
1, 875083, Note_on_c, 0, 68, 60
1, 875098, Note_off_c, 0, 64, 61
1, 875109, Control_c, 0, 67, 106
1, 875110, Note_off_c, 0, 44, 46
1, 875131, Note_off_c, 0, 69, 56
1, 875139, Control_c, 0, 67, 106
1, 875148, Note_off_c, 0, 61, 46
1, 875154, Control_c, 0, 67, 107
1, 875183, Control_c, 0, 67, 107
1, 875213, Control_c, 0, 67, 108
1, 875242, Control_c, 0, 67, 109
1, 875272, Control_c, 0, 67, 109
1, 875301, Control_c, 0, 67, 110
1, 875331, Control_c, 0, 64, 112
1, 875331, Control_c, 0, 67, 110
1, 875346, Control_c, 0, 64, 95
1, 875357, Note_on_c, 0, 33, 35
1, 875359, Note_on_c, 0, 45, 34
1, 875361, Note_on_c, 0, 67, 53
1, 875361, Control_c, 0, 64, 82
1, 875361, Control_c, 0, 67, 111
1, 875367, Note_on_c, 0, 61, 34
1, 875376, Control_c, 0, 64, 70
1, 875384, Note_on_c, 0, 63, 30
1, 875391, Control_c, 0, 64, 62
1, 875405, Control_c, 0, 64, 44
1, 875405, Control_c, 0, 67, 111
1, 875409, Note_off_c, 0, 68, 50
1, 875420, Control_c, 0, 64, 19
1, 875435, Control_c, 0, 64, 0
1, 875450, Control_c, 0, 67, 112
1, 875465, Control_c, 0, 67, 112
1, 875494, Control_c, 0, 67, 113
1, 875509, Control_c, 0, 67, 117
1, 875524, Control_c, 0, 67, 121
1, 875539, Control_c, 0, 67, 126
1, 875554, Control_c, 0, 67, 127
1, 875613, Control_c, 0, 64, 61
1, 875627, Control_c, 0, 64, 68
1, 875642, Control_c, 0, 64, 74
1, 875657, Control_c, 0, 64, 83
1, 875672, Note_off_c, 0, 61, 42
1, 875672, Control_c, 0, 64, 93
1, 875687, Control_c, 0, 64, 104
1, 875697, Note_off_c, 0, 67, 38
1, 875701, Control_c, 0, 64, 124
1, 875713, Note_off_c, 0, 33, 39
1, 875716, Control_c, 0, 64, 127
1, 875763, Note_off_c, 0, 63, 43
1, 875778, Note_off_c, 0, 45, 44
1, 876092, Note_on_c, 0, 68, 53
1, 876103, Note_on_c, 0, 61, 45
1, 876115, Note_on_c, 0, 56, 42
1, 876124, Note_on_c, 0, 32, 33
1, 876124, Note_on_c, 0, 44, 35
1, 876124, Control_c, 0, 64, 114
1, 876139, Control_c, 0, 64, 96
1, 876154, Control_c, 0, 64, 85
1, 876169, Control_c, 0, 64, 75
1, 876184, Control_c, 0, 64, 66
1, 876198, Control_c, 0, 64, 58
1, 876213, Control_c, 0, 64, 52
1, 876228, Control_c, 0, 64, 50
1, 876243, Control_c, 0, 64, 49
1, 876258, Control_c, 0, 64, 48
1, 876273, Control_c, 0, 64, 48
1, 876288, Control_c, 0, 64, 50
1, 876303, Control_c, 0, 64, 57
1, 876318, Control_c, 0, 64, 63
1, 876332, Control_c, 0, 64, 66
1, 876347, Control_c, 0, 64, 69
1, 876362, Control_c, 0, 64, 73
1, 876376, Control_c, 0, 64, 77
1, 876391, Control_c, 0, 64, 81
1, 876406, Control_c, 0, 64, 87
1, 876421, Control_c, 0, 64, 93
1, 876436, Control_c, 0, 64, 99
1, 876450, Control_c, 0, 64, 106
1, 876465, Control_c, 0, 64, 118
1, 876480, Control_c, 0, 64, 127
1, 876920, Note_off_c, 0, 56, 51
1, 877047, Note_off_c, 0, 61, 57
1, 877491, Note_on_c, 0, 63, 42
1, 877495, Note_on_c, 0, 60, 35
1, 877495, Note_on_c, 0, 56, 36
1, 877503, Control_c, 0, 64, 114
1, 877518, Control_c, 0, 64, 92
1, 877533, Control_c, 0, 64, 75
1, 877548, Control_c, 0, 64, 57
1, 877563, Control_c, 0, 64, 0
1, 877595, Note_off_c, 0, 68, 32
1, 877666, Control_c, 0, 64, 43
1, 877681, Control_c, 0, 64, 64
1, 877695, Control_c, 0, 64, 70
1, 877710, Control_c, 0, 64, 78
1, 877725, Control_c, 0, 64, 88
1, 877729, Note_off_c, 0, 32, 51
1, 877740, Control_c, 0, 64, 99
1, 877754, Note_off_c, 0, 56, 49
1, 877755, Control_c, 0, 64, 109
1, 877769, Control_c, 0, 64, 118
1, 877784, Control_c, 0, 64, 127
1, 877810, Note_off_c, 0, 44, 43
1, 877829, Note_off_c, 0, 60, 38
1, 877838, Note_off_c, 0, 63, 34
1, 878029, Control_c, 0, 64, 117
1, 878044, Control_c, 0, 64, 105
1, 878058, Control_c, 0, 64, 98
1, 878073, Control_c, 0, 64, 94
1, 878088, Control_c, 0, 64, 92
1, 878252, Control_c, 0, 64, 92
1, 878267, Control_c, 0, 64, 91
1, 878282, Control_c, 0, 64, 89
1, 878297, Control_c, 0, 64, 86
1, 878312, Control_c, 0, 64, 81
1, 878326, Control_c, 0, 64, 75
1, 878341, Control_c, 0, 64, 67
1, 878350, Note_on_c, 0, 51, 32
1, 878354, Note_on_c, 0, 63, 41
1, 878355, Note_on_c, 0, 66, 49
1, 878356, Control_c, 0, 64, 53
1, 878360, Note_on_c, 0, 39, 33
1, 878364, Note_on_c, 0, 54, 34
1, 878370, Control_c, 0, 64, 0
1, 878371, Note_on_c, 0, 58, 42
1, 878489, Control_c, 0, 64, 56
1, 878504, Control_c, 0, 64, 66
1, 878518, Control_c, 0, 64, 71
1, 878533, Control_c, 0, 64, 77
1, 878548, Control_c, 0, 64, 84
1, 878562, Control_c, 0, 64, 93
1, 878577, Control_c, 0, 64, 104
1, 878592, Control_c, 0, 64, 127
1, 878592, Control_c, 0, 67, 121
1, 878607, Control_c, 0, 67, 114
1, 878620, Note_off_c, 0, 54, 43
1, 878622, Control_c, 0, 67, 102
1, 878637, Control_c, 0, 67, 89
1, 878652, Control_c, 0, 67, 76
1, 878657, Note_off_c, 0, 58, 58
1, 878667, Control_c, 0, 67, 64
1, 878682, Control_c, 0, 67, 54
1, 878692, Note_off_c, 0, 63, 48
1, 878695, Note_off_c, 0, 51, 52
1, 878696, Control_c, 0, 67, 47
1, 878711, Control_c, 0, 67, 42
1, 878726, Control_c, 0, 67, 37
1, 878741, Control_c, 0, 67, 35
1, 878743, Note_off_c, 0, 66, 60
1, 878756, Control_c, 0, 67, 33
1, 878777, Control_c, 0, 67, 32
1, 878926, Control_c, 0, 67, 33
1, 878941, Control_c, 0, 67, 33
1, 878956, Control_c, 0, 67, 34
1, 878970, Control_c, 0, 67, 34
1, 878986, Note_on_c, 0, 70, 65
1, 878995, Note_on_c, 0, 37, 47
1, 878999, Note_on_c, 0, 49, 43
1, 879000, Control_c, 0, 67, 35
1, 879008, Note_on_c, 0, 58, 48
1, 879008, Note_on_c, 0, 65, 52
1, 879015, Control_c, 0, 67, 36
1, 879030, Control_c, 0, 67, 36
1, 879060, Control_c, 0, 64, 102
1, 879060, Control_c, 0, 67, 37
1, 879075, Control_c, 0, 64, 85
1, 879090, Control_c, 0, 64, 74
1, 879105, Control_c, 0, 64, 64
1, 879105, Control_c, 0, 67, 37
1, 879109, Note_off_c, 0, 39, 42
1, 879120, Control_c, 0, 64, 47
1, 879135, Control_c, 0, 64, 37
1, 879164, Control_c, 0, 64, 38
1, 879179, Control_c, 0, 64, 45
1, 879193, Control_c, 0, 64, 56
1, 879208, Control_c, 0, 64, 64
1, 879223, Control_c, 0, 64, 67
1, 879238, Control_c, 0, 64, 71
1, 879253, Control_c, 0, 64, 75
1, 879267, Control_c, 0, 64, 81
1, 879282, Control_c, 0, 64, 87
1, 879297, Control_c, 0, 64, 95
1, 879312, Control_c, 0, 64, 104
1, 879327, Control_c, 0, 64, 116
1, 879327, Control_c, 0, 67, 37
1, 879341, Control_c, 0, 64, 127
1, 879356, Control_c, 0, 67, 36
1, 879445, Control_c, 0, 67, 36
1, 879485, Note_off_c, 0, 58, 51
1, 879663, Note_off_c, 0, 49, 57
1, 879713, Note_off_c, 0, 65, 51
1, 879764, Control_c, 0, 67, 36
1, 879773, Note_off_c, 0, 70, 50
1, 879778, Control_c, 0, 67, 37
1, 879808, Control_c, 0, 67, 37
1, 879823, Control_c, 0, 67, 38
1, 879838, Control_c, 0, 67, 38
1, 879853, Control_c, 0, 67, 39
1, 879868, Control_c, 0, 67, 39
1, 879898, Control_c, 0, 67, 40
1, 879928, Control_c, 0, 67, 40
1, 879957, Control_c, 0, 67, 41
1, 880002, Control_c, 0, 67, 41
1, 880046, Control_c, 0, 67, 42
1, 880117, Note_on_c, 0, 75, 64
1, 880127, Note_on_c, 0, 68, 50
1, 880134, Note_on_c, 0, 63, 54
1, 880135, Note_on_c, 0, 35, 42
1, 880135, Control_c, 0, 64, 113
1, 880138, Note_on_c, 0, 47, 43
1, 880150, Control_c, 0, 64, 92
1, 880164, Control_c, 0, 64, 79
1, 880179, Control_c, 0, 64, 69
1, 880179, Control_c, 0, 67, 41
1, 880194, Control_c, 0, 64, 65
1, 880194, Control_c, 0, 67, 41
1, 880207, Note_off_c, 0, 37, 46
1, 880208, Control_c, 0, 64, 66
1, 880208, Control_c, 0, 67, 40
1, 880223, Control_c, 0, 64, 69
1, 880223, Control_c, 0, 67, 39
1, 880238, Control_c, 0, 64, 73
1, 880238, Control_c, 0, 67, 38
1, 880248, Note_off_c, 0, 68, 58
1, 880253, Control_c, 0, 64, 79
1, 880253, Control_c, 0, 67, 38
1, 880276, Control_c, 0, 64, 87
1, 880276, Control_c, 0, 67, 37
1, 880290, Note_off_c, 0, 63, 59
1, 880290, Control_c, 0, 64, 99
1, 880290, Control_c, 0, 67, 36
1, 880305, Control_c, 0, 64, 124
1, 880305, Control_c, 0, 67, 35
1, 880320, Control_c, 0, 64, 127
1, 880320, Control_c, 0, 67, 33
1, 880334, Note_off_c, 0, 47, 54
1, 880335, Control_c, 0, 67, 32
1, 880349, Control_c, 0, 67, 30
1, 880364, Control_c, 0, 67, 25
1, 880379, Control_c, 0, 67, 17
1, 880394, Control_c, 0, 67, 0
1, 880418, Note_off_c, 0, 75, 56
1, 880509, Note_on_c, 0, 44, 52
1, 880513, Note_on_c, 0, 77, 75
1, 880514, Note_on_c, 0, 32, 52
1, 880516, Note_on_c, 0, 65, 72
1, 880522, Note_on_c, 0, 75, 69
1, 880524, Note_off_c, 0, 35, 42
1, 880531, Note_on_c, 0, 71, 55
1, 880542, Note_off_c, 0, 44, 63
1, 880574, Note_off_c, 0, 32, 61
1, 880577, Note_off_c, 0, 71, 53
1, 880582, Note_off_c, 0, 65, 60
1, 880593, Note_off_c, 0, 77, 61
1, 880609, Note_off_c, 0, 75, 63
1, 880746, Note_on_c, 0, 78, 77
1, 880747, Note_on_c, 0, 75, 64
1, 880754, Note_on_c, 0, 66, 61
1, 880755, Note_on_c, 0, 27, 60
1, 880757, Note_on_c, 0, 70, 55
1, 880765, Note_on_c, 0, 39, 46
1, 880780, Control_c, 0, 64, 98
1, 880795, Control_c, 0, 64, 80
1, 880810, Control_c, 0, 64, 68
1, 880825, Control_c, 0, 64, 61
1, 880839, Control_c, 0, 64, 62
1, 880854, Control_c, 0, 64, 64
1, 880869, Control_c, 0, 64, 68
1, 880884, Control_c, 0, 64, 76
1, 880899, Control_c, 0, 64, 88
1, 880913, Control_c, 0, 64, 110
1, 880928, Control_c, 0, 64, 127
1, 880965, Note_off_c, 0, 27, 60
1, 880980, Note_off_c, 0, 70, 57
1, 880993, Note_off_c, 0, 66, 61
1, 881000, Note_off_c, 0, 39, 40
1, 881004, Note_off_c, 0, 75, 63
1, 881021, Note_off_c, 0, 78, 58
1, 881123, Note_on_c, 0, 77, 83
1, 881132, Note_on_c, 0, 65, 70
1, 881135, Note_on_c, 0, 70, 65
1, 881145, Note_on_c, 0, 41, 62
1, 881146, Note_on_c, 0, 29, 61
1, 881187, Note_off_c, 0, 70, 64
1, 881191, Note_off_c, 0, 41, 61
1, 881192, Note_off_c, 0, 65, 62
1, 881224, Note_off_c, 0, 29, 59
1, 881343, Note_on_c, 0, 75, 78
1, 881347, Note_on_c, 0, 30, 61
1, 881352, Note_on_c, 0, 42, 54
1, 881352, Note_on_c, 0, 70, 72
1, 881357, Note_on_c, 0, 63, 70
1, 881379, Control_c, 0, 64, 119
1, 881394, Control_c, 0, 64, 88
1, 881409, Control_c, 0, 64, 70
1, 881411, Note_off_c, 0, 77, 41
1, 881424, Control_c, 0, 64, 50
1, 881440, Control_c, 0, 64, 0
1, 881469, Control_c, 0, 64, 34
1, 881484, Control_c, 0, 64, 59
1, 881499, Control_c, 0, 64, 68
1, 881514, Control_c, 0, 64, 76
1, 881529, Control_c, 0, 64, 89
1, 881543, Control_c, 0, 64, 127
1, 881552, Note_off_c, 0, 63, 59
1, 881553, Note_off_c, 0, 75, 60
1, 881557, Note_off_c, 0, 70, 63
1, 881567, Note_off_c, 0, 30, 58
1, 881612, Note_off_c, 0, 42, 61
1, 881728, Note_on_c, 0, 73, 83
1, 881728, Note_on_c, 0, 70, 71
1, 881731, Note_on_c, 0, 61, 76
1, 881737, Note_on_c, 0, 31, 63
1, 881739, Note_on_c, 0, 43, 63
1, 881753, Note_off_c, 0, 70, 65
1, 881787, Note_off_c, 0, 43, 61
1, 881788, Note_off_c, 0, 61, 59
1, 881794, Note_off_c, 0, 31, 58
1, 881795, Note_off_c, 0, 73, 62
1, 881964, Note_on_c, 0, 71, 83
1, 881968, Note_on_c, 0, 68, 69
1, 881973, Note_on_c, 0, 44, 70
1, 881975, Note_on_c, 0, 59, 69
1, 881978, Note_on_c, 0, 63, 66
1, 881981, Note_on_c, 0, 32, 62
1, 882010, Control_c, 0, 64, 98
1, 882025, Control_c, 0, 64, 75
1, 882040, Control_c, 0, 64, 52
1, 882055, Control_c, 0, 64, 0
1, 882128, Control_c, 0, 64, 42
1, 882143, Control_c, 0, 64, 65
1, 882158, Control_c, 0, 64, 74
1, 882173, Control_c, 0, 64, 86
1, 882187, Control_c, 0, 64, 112
1, 882189, Note_off_c, 0, 59, 60
1, 882202, Control_c, 0, 64, 127
1, 882238, Note_off_c, 0, 71, 60
1, 882246, Note_off_c, 0, 63, 59
1, 882273, Note_off_c, 0, 68, 60
1, 882282, Note_off_c, 0, 44, 58
1, 882649, Note_on_c, 0, 75, 80
1, 882661, Note_on_c, 0, 70, 63
1, 882662, Note_on_c, 0, 63, 58
1, 882670, Note_on_c, 0, 42, 47
1, 882671, Note_on_c, 0, 30, 47
1, 882730, Control_c, 0, 64, 102
1, 882744, Control_c, 0, 64, 88
1, 882759, Control_c, 0, 64, 78
1, 882774, Control_c, 0, 64, 68
1, 882789, Control_c, 0, 64, 50
1, 882804, Control_c, 0, 64, 0
1, 882804, Note_off_c, 0, 32, 55
1, 883056, Control_c, 0, 64, 54
1, 883071, Control_c, 0, 64, 68
1, 883086, Control_c, 0, 64, 75
1, 883101, Control_c, 0, 64, 86
1, 883115, Control_c, 0, 64, 104
1, 883130, Control_c, 0, 64, 127
1, 883294, Note_off_c, 0, 63, 60
1, 883407, Note_off_c, 0, 70, 56
1, 883463, Note_off_c, 0, 75, 52
1, 883553, Note_off_c, 0, 42, 37
1, 883661, Note_off_c, 0, 30, 38
1, 883755, Note_on_c, 0, 77, 74
1, 883763, Note_on_c, 0, 80, 77
1, 883764, Note_on_c, 0, 68, 64
1, 883785, Note_on_c, 0, 41, 50
1, 883786, Note_on_c, 0, 29, 54
1, 883790, Note_on_c, 0, 71, 50
1, 883790, Control_c, 0, 64, 102
1, 883805, Control_c, 0, 64, 83
1, 883820, Control_c, 0, 64, 71
1, 883835, Control_c, 0, 64, 70
1, 883850, Control_c, 0, 64, 74
1, 883865, Control_c, 0, 64, 80
1, 883880, Control_c, 0, 64, 90
1, 883895, Control_c, 0, 64, 111
1, 883910, Control_c, 0, 64, 127
1, 883940, Note_off_c, 0, 68, 61
1, 883942, Note_off_c, 0, 71, 64
1, 883961, Note_off_c, 0, 77, 61
1, 883971, Note_off_c, 0, 41, 61
1, 883985, Note_off_c, 0, 80, 64
1, 884013, Note_off_c, 0, 29, 58
1, 884153, Note_on_c, 0, 82, 89
1, 884157, Note_on_c, 0, 39, 65
1, 884157, Note_on_c, 0, 78, 77
1, 884159, Note_on_c, 0, 70, 77
1, 884161, Note_on_c, 0, 27, 64
1, 884203, Note_off_c, 0, 70, 62
1, 884217, Note_off_c, 0, 78, 61
1, 884230, Note_off_c, 0, 39, 58
1, 884235, Note_off_c, 0, 82, 66
1, 884254, Note_off_c, 0, 27, 57
1, 884375, Note_on_c, 0, 83, 89
1, 884379, Note_on_c, 0, 38, 63
1, 884379, Note_on_c, 0, 71, 80
1, 884381, Note_on_c, 0, 80, 75
1, 884384, Note_on_c, 0, 26, 57
1, 884405, Control_c, 0, 64, 115
1, 884420, Control_c, 0, 64, 87
1, 884435, Control_c, 0, 64, 70
1, 884450, Control_c, 0, 64, 47
1, 884464, Control_c, 0, 64, 0
1, 884479, Control_c, 0, 64, 24
1, 884494, Control_c, 0, 64, 52
1, 884508, Control_c, 0, 64, 64
1, 884523, Control_c, 0, 64, 71
1, 884538, Control_c, 0, 64, 82
1, 884548, Note_off_c, 0, 38, 64
1, 884552, Note_off_c, 0, 71, 64
1, 884553, Control_c, 0, 64, 99
1, 884568, Control_c, 0, 64, 127
1, 884725, Note_on_c, 0, 82, 80
1, 884731, Note_on_c, 0, 70, 83
1, 884732, Note_on_c, 0, 78, 80
1, 884738, Note_on_c, 0, 39, 76
1, 884748, Note_on_c, 0, 27, 66
1, 884748, Note_off_c, 0, 80, 61
1, 884750, Note_off_c, 0, 26, 61
1, 884766, Note_off_c, 0, 83, 61
1, 884794, Note_off_c, 0, 82, 63
1, 884796, Note_off_c, 0, 78, 61
1, 884807, Note_off_c, 0, 70, 62
1, 884810, Note_off_c, 0, 39, 60
1, 884816, Note_off_c, 0, 27, 58
1, 884946, Note_on_c, 0, 80, 87
1, 884947, Note_on_c, 0, 77, 71
1, 884950, Note_on_c, 0, 68, 73
1, 884957, Note_on_c, 0, 41, 68
1, 884961, Note_on_c, 0, 29, 67
1, 884991, Control_c, 0, 64, 90
1, 885005, Control_c, 0, 64, 72
1, 885020, Control_c, 0, 64, 57
1, 885035, Control_c, 0, 64, 38
1, 885050, Control_c, 0, 64, 40
1, 885065, Control_c, 0, 64, 53
1, 885079, Control_c, 0, 64, 63
1, 885094, Control_c, 0, 64, 69
1, 885109, Note_off_c, 0, 80, 61
1, 885109, Control_c, 0, 64, 78
1, 885124, Control_c, 0, 64, 91
1, 885138, Control_c, 0, 64, 126
1, 885153, Control_c, 0, 64, 127
1, 885161, Note_off_c, 0, 41, 63
1, 885165, Note_off_c, 0, 68, 59
1, 885328, Note_on_c, 0, 78, 81
1, 885331, Note_on_c, 0, 66, 75
1, 885334, Note_on_c, 0, 75, 71
1, 885337, Note_on_c, 0, 30, 62
1, 885337, Note_on_c, 0, 42, 68
1, 885343, Note_off_c, 0, 29, 57
1, 885356, Note_off_c, 0, 77, 56
1, 885384, Note_off_c, 0, 42, 60
1, 885386, Note_off_c, 0, 75, 59
1, 885394, Note_off_c, 0, 66, 61
1, 885395, Note_off_c, 0, 30, 61
1, 885406, Note_off_c, 0, 78, 61
1, 885550, Note_on_c, 0, 77, 79
1, 885557, Note_on_c, 0, 65, 71
1, 885561, Note_on_c, 0, 73, 71
1, 885561, Control_c, 0, 64, 115
1, 885564, Note_on_c, 0, 31, 54
1, 885566, Note_on_c, 0, 43, 51
1, 885576, Control_c, 0, 64, 87
1, 885591, Control_c, 0, 64, 69
1, 885606, Control_c, 0, 64, 27
1, 885621, Control_c, 0, 64, 0
1, 885666, Control_c, 0, 64, 39
1, 885681, Control_c, 0, 64, 63
1, 885696, Control_c, 0, 64, 70
1, 885710, Control_c, 0, 64, 78
1, 885725, Control_c, 0, 64, 90
1, 885740, Control_c, 0, 64, 120
1, 885754, Control_c, 0, 64, 127
1, 885767, Note_off_c, 0, 65, 61
1, 885773, Note_off_c, 0, 77, 61
1, 885788, Note_off_c, 0, 43, 63
1, 885804, Note_off_c, 0, 31, 46
1, 885848, Note_off_c, 0, 73, 58
1, 885946, Note_on_c, 0, 75, 79
1, 885949, Note_on_c, 0, 72, 66
1, 885950, Note_on_c, 0, 63, 72
1, 885958, Note_on_c, 0, 44, 64
1, 885961, Note_on_c, 0, 32, 57
1, 886006, Note_off_c, 0, 63, 60
1, 886008, Note_off_c, 0, 44, 59
1, 886009, Note_off_c, 0, 72, 61
1, 886026, Note_off_c, 0, 32, 57
1, 886044, Note_off_c, 0, 75, 58
1, 886177, Note_on_c, 0, 76, 80
1, 886190, Note_on_c, 0, 73, 72
1, 886193, Note_on_c, 0, 64, 66
1, 886196, Note_on_c, 0, 31, 51
1, 886198, Note_on_c, 0, 43, 51
1, 886199, Control_c, 0, 64, 113
1, 886214, Control_c, 0, 64, 93
1, 886229, Control_c, 0, 64, 79
1, 886244, Control_c, 0, 64, 66
1, 886266, Control_c, 0, 64, 0
1, 886593, Control_c, 0, 64, 39
1, 886608, Control_c, 0, 64, 60
1, 886623, Control_c, 0, 64, 66
1, 886638, Control_c, 0, 64, 70
1, 886652, Control_c, 0, 64, 74
1, 886667, Control_c, 0, 64, 79
1, 886682, Control_c, 0, 64, 86
1, 886697, Control_c, 0, 64, 92
1, 886711, Control_c, 0, 64, 99
1, 886726, Control_c, 0, 64, 108
1, 886741, Control_c, 0, 64, 123
1, 886756, Control_c, 0, 64, 127
1, 886932, Note_off_c, 0, 64, 57
1, 886940, Note_off_c, 0, 76, 55
1, 886982, Note_off_c, 0, 43, 59
1, 886983, Note_off_c, 0, 31, 36
1, 887028, Note_off_c, 0, 73, 58
1, 887030, Control_c, 0, 67, 10
1, 887046, Control_c, 0, 67, 13
1, 887061, Control_c, 0, 67, 19
1, 887076, Control_c, 0, 67, 27
1, 887090, Control_c, 0, 67, 36
1, 887105, Control_c, 0, 67, 46
1, 887120, Control_c, 0, 67, 53
1, 887134, Control_c, 0, 67, 58
1, 887149, Control_c, 0, 67, 63
1, 887164, Control_c, 0, 67, 67
1, 887179, Control_c, 0, 67, 70
1, 887194, Control_c, 0, 67, 72
1, 887208, Control_c, 0, 67, 73
1, 887219, Note_on_c, 0, 44, 52
1, 887219, Note_on_c, 0, 75, 61
1, 887222, Note_on_c, 0, 72, 41
1, 887227, Note_on_c, 0, 63, 53
1, 887229, Note_on_c, 0, 32, 42
1, 887264, Note_off_c, 0, 44, 57
1, 887269, Note_off_c, 0, 72, 59
1, 887285, Note_off_c, 0, 32, 56
1, 887293, Note_off_c, 0, 63, 60
1, 887312, Control_c, 0, 67, 72
1, 887329, Note_off_c, 0, 75, 59
1, 887341, Control_c, 0, 67, 72
1, 887448, Note_on_c, 0, 76, 65
1, 887457, Note_on_c, 0, 31, 40
1, 887460, Control_c, 0, 64, 117
1, 887463, Note_on_c, 0, 64, 57
1, 887465, Note_on_c, 0, 43, 38
1, 887466, Note_on_c, 0, 73, 59
1, 887475, Control_c, 0, 64, 92
1, 887490, Control_c, 0, 64, 76
1, 887505, Control_c, 0, 64, 64
1, 887520, Control_c, 0, 64, 23
1, 887534, Control_c, 0, 64, 0
1, 887564, Control_c, 0, 64, 24
1, 887579, Control_c, 0, 64, 50
1, 887579, Control_c, 0, 67, 71
1, 887594, Control_c, 0, 64, 63
1, 887594, Control_c, 0, 67, 70
1, 887608, Control_c, 0, 64, 68
1, 887608, Control_c, 0, 67, 70
1, 887623, Control_c, 0, 64, 74
1, 887623, Control_c, 0, 67, 69
1, 887638, Control_c, 0, 64, 81
1, 887638, Control_c, 0, 67, 68
1, 887653, Control_c, 0, 64, 90
1, 887653, Control_c, 0, 67, 68
1, 887665, Note_off_c, 0, 64, 63
1, 887668, Control_c, 0, 64, 100
1, 887682, Control_c, 0, 64, 115
1, 887682, Control_c, 0, 67, 67
1, 887689, Note_off_c, 0, 76, 54
1, 887697, Control_c, 0, 64, 127
1, 887723, Note_off_c, 0, 73, 59
1, 887847, Note_off_c, 0, 43, 46
1, 887872, Note_on_c, 0, 72, 55
1, 887873, Note_on_c, 0, 75, 66
1, 887876, Note_on_c, 0, 63, 54
1, 887898, Control_c, 0, 67, 68
1, 887918, Note_off_c, 0, 72, 58
1, 887928, Note_off_c, 0, 63, 55
1, 887952, Note_off_c, 0, 75, 59
1, 888002, Control_c, 0, 67, 68
1, 888046, Control_c, 0, 67, 69
1, 888076, Control_c, 0, 67, 69
1, 888091, Control_c, 0, 67, 70
1, 888105, Control_c, 0, 67, 70
1, 888116, Note_on_c, 0, 73, 52
1, 888120, Note_on_c, 0, 76, 61
1, 888120, Control_c, 0, 67, 71
1, 888127, Note_on_c, 0, 42, 43
1, 888133, Note_on_c, 0, 64, 47
1, 888134, Note_on_c, 0, 30, 43
1, 888135, Control_c, 0, 64, 104
1, 888135, Control_c, 0, 67, 72
1, 888150, Control_c, 0, 64, 90
1, 888150, Control_c, 0, 67, 72
1, 888164, Control_c, 0, 64, 79
1, 888179, Control_c, 0, 64, 69
1, 888179, Control_c, 0, 67, 73
1, 888194, Note_off_c, 0, 31, 41
1, 888194, Control_c, 0, 64, 61
1, 888194, Control_c, 0, 67, 73
1, 888209, Control_c, 0, 64, 44
1, 888209, Control_c, 0, 67, 74
1, 888224, Control_c, 0, 64, 33
1, 888238, Control_c, 0, 64, 14
1, 888238, Control_c, 0, 67, 74
1, 888253, Control_c, 0, 64, 0
1, 888253, Control_c, 0, 67, 75
1, 888268, Control_c, 0, 67, 77
1, 888283, Control_c, 0, 67, 80
1, 888298, Control_c, 0, 67, 84
1, 888313, Control_c, 0, 67, 87
1, 888328, Control_c, 0, 67, 89
1, 888343, Control_c, 0, 67, 92
1, 888357, Control_c, 0, 67, 94
1, 888372, Control_c, 0, 64, 31
1, 888372, Control_c, 0, 67, 97
1, 888387, Control_c, 0, 64, 48
1, 888387, Control_c, 0, 67, 101
1, 888402, Control_c, 0, 64, 56
1, 888402, Control_c, 0, 67, 105
1, 888417, Control_c, 0, 64, 60
1, 888417, Control_c, 0, 67, 108
1, 888431, Control_c, 0, 64, 62
1, 888431, Control_c, 0, 67, 111
1, 888446, Control_c, 0, 64, 63
1, 888446, Control_c, 0, 67, 114
1, 888461, Control_c, 0, 64, 64
1, 888461, Control_c, 0, 67, 118
1, 888475, Control_c, 0, 64, 65
1, 888475, Control_c, 0, 67, 121
1, 888490, Control_c, 0, 64, 66
1, 888490, Control_c, 0, 67, 125
1, 888513, Control_c, 0, 64, 66
1, 888513, Control_c, 0, 67, 127
1, 888527, Control_c, 0, 64, 67
1, 888542, Control_c, 0, 64, 67
1, 888557, Control_c, 0, 64, 68
1, 888572, Control_c, 0, 64, 69
1, 888587, Control_c, 0, 64, 70
1, 888602, Control_c, 0, 64, 71
1, 888617, Control_c, 0, 64, 73
1, 888632, Control_c, 0, 64, 74
1, 888647, Control_c, 0, 64, 76
1, 888662, Control_c, 0, 64, 78
1, 888676, Control_c, 0, 64, 80
1, 888691, Control_c, 0, 64, 83
1, 888706, Control_c, 0, 64, 86
1, 888721, Control_c, 0, 64, 89
1, 888736, Control_c, 0, 64, 93
1, 888751, Control_c, 0, 64, 99
1, 888766, Control_c, 0, 64, 104
1, 888780, Control_c, 0, 64, 113
1, 888795, Control_c, 0, 64, 127
1, 889088, Note_off_c, 0, 42, 41
1, 889156, Note_off_c, 0, 30, 40
1, 889171, Note_on_c, 0, 43, 47
1, 889174, Note_on_c, 0, 31, 45
1, 889209, Control_c, 0, 64, 112
1, 889224, Control_c, 0, 64, 95
1, 889239, Control_c, 0, 64, 81
1, 889261, Control_c, 0, 64, 71
1, 889276, Control_c, 0, 64, 64
1, 889291, Control_c, 0, 64, 54
1, 889305, Control_c, 0, 64, 47
1, 889320, Control_c, 0, 64, 43
1, 889335, Control_c, 0, 64, 39
1, 889350, Control_c, 0, 64, 37
1, 889394, Control_c, 0, 64, 38
1, 889409, Control_c, 0, 64, 43
1, 889425, Control_c, 0, 64, 50
1, 889440, Control_c, 0, 64, 54
1, 889454, Control_c, 0, 64, 57
1, 889469, Control_c, 0, 64, 60
1, 889484, Control_c, 0, 64, 63
1, 889499, Control_c, 0, 64, 64
1, 889514, Control_c, 0, 64, 65
1, 889528, Control_c, 0, 64, 66
1, 889543, Control_c, 0, 64, 67
1, 889558, Control_c, 0, 64, 68
1, 889573, Control_c, 0, 64, 70
1, 889588, Control_c, 0, 64, 72
1, 889602, Control_c, 0, 64, 74
1, 889617, Control_c, 0, 64, 76
1, 889632, Control_c, 0, 64, 79
1, 889647, Control_c, 0, 64, 81
1, 889662, Control_c, 0, 64, 83
1, 889676, Control_c, 0, 64, 85
1, 889691, Control_c, 0, 64, 88
1, 889706, Control_c, 0, 64, 91
1, 889720, Control_c, 0, 64, 95
1, 889735, Control_c, 0, 64, 100
1, 889750, Control_c, 0, 64, 108
1, 889765, Control_c, 0, 64, 127
1, 889947, Note_off_c, 0, 64, 56
1, 890003, Note_off_c, 0, 43, 60
1, 890009, Note_off_c, 0, 73, 52
1, 890435, Note_on_c, 0, 75, 47
1, 890456, Note_on_c, 0, 72, 44
1, 890459, Note_on_c, 0, 44, 35
1, 890463, Note_on_c, 0, 32, 41
1, 890468, Note_on_c, 0, 63, 41
1, 890470, Control_c, 0, 64, 99
1, 890477, Note_off_c, 0, 76, 44
1, 890485, Control_c, 0, 64, 79
1, 890488, Note_off_c, 0, 31, 40
1, 890499, Control_c, 0, 64, 65
1, 890514, Control_c, 0, 64, 21
1, 890529, Control_c, 0, 64, 0
1, 890588, Control_c, 0, 64, 21
1, 890603, Control_c, 0, 64, 54
1, 890617, Control_c, 0, 64, 64
1, 890632, Control_c, 0, 64, 69
1, 890647, Note_off_c, 0, 63, 61
1, 890647, Control_c, 0, 64, 75
1, 890662, Control_c, 0, 64, 81
1, 890677, Control_c, 0, 64, 89
1, 890686, Note_off_c, 0, 32, 42
1, 890692, Control_c, 0, 64, 94
1, 890699, Note_off_c, 0, 44, 48
1, 890706, Control_c, 0, 64, 97
1, 890721, Control_c, 0, 64, 99
1, 890736, Control_c, 0, 64, 100
1, 890750, Note_off_c, 0, 72, 38
1, 890756, Note_off_c, 0, 75, 44
1, 890862, Control_c, 0, 64, 98
1, 890876, Control_c, 0, 64, 97
1, 890891, Control_c, 0, 64, 96
1, 890906, Control_c, 0, 64, 94
1, 890921, Control_c, 0, 64, 92
1, 890936, Control_c, 0, 64, 90
1, 890951, Control_c, 0, 64, 87
1, 890966, Control_c, 0, 64, 83
1, 890981, Control_c, 0, 64, 79
1, 890996, Control_c, 0, 64, 73
1, 891011, Control_c, 0, 64, 67
1, 891026, Control_c, 0, 64, 62
1, 891041, Control_c, 0, 64, 57
1, 891055, Control_c, 0, 64, 53
1, 891070, Control_c, 0, 64, 49
1, 891085, Control_c, 0, 64, 44
1, 891100, Control_c, 0, 64, 38
1, 891115, Control_c, 0, 64, 34
1, 891129, Control_c, 0, 64, 30
1, 891144, Control_c, 0, 64, 29
1, 891159, Note_on_c, 0, 77, 50
1, 891169, Note_on_c, 0, 73, 42
1, 891171, Note_on_c, 0, 49, 34
1, 891188, Note_on_c, 0, 37, 25
1, 891188, Control_c, 0, 64, 31
1, 891190, Note_on_c, 0, 65, 26
1, 891191, Note_on_c, 0, 68, 21
1, 891203, Control_c, 0, 64, 40
1, 891218, Control_c, 0, 64, 49
1, 891233, Control_c, 0, 64, 55
1, 891247, Control_c, 0, 64, 61
1, 891262, Control_c, 0, 64, 63
1, 891277, Control_c, 0, 64, 65
1, 891292, Control_c, 0, 64, 68
1, 891306, Control_c, 0, 64, 71
1, 891321, Control_c, 0, 64, 74
1, 891336, Control_c, 0, 64, 80
1, 891351, Control_c, 0, 64, 86
1, 891365, Control_c, 0, 64, 93
1, 891380, Control_c, 0, 64, 101
1, 891395, Control_c, 0, 64, 112
1, 891403, Note_off_c, 0, 65, 43
1, 891410, Control_c, 0, 64, 127
1, 891413, Note_off_c, 0, 68, 40
1, 891420, Note_off_c, 0, 73, 38
1, 891459, Note_off_c, 0, 77, 52
1, 891484, Control_c, 0, 67, 125
1, 891506, Control_c, 0, 67, 122
1, 891521, Control_c, 0, 67, 119
1, 891536, Control_c, 0, 67, 117
1, 891551, Control_c, 0, 67, 114
1, 891563, Note_off_c, 0, 49, 43
1, 891566, Control_c, 0, 67, 112
1, 891580, Control_c, 0, 67, 110
1, 891595, Control_c, 0, 67, 109
1, 891610, Control_c, 0, 67, 108
1, 891625, Control_c, 0, 67, 108
1, 891640, Control_c, 0, 67, 107
1, 891788, Control_c, 0, 67, 108
1, 891791, Note_on_c, 0, 80, 53
1, 891803, Control_c, 0, 67, 108
1, 891807, Note_on_c, 0, 68, 41
1, 891809, Note_on_c, 0, 36, 40
1, 891813, Note_on_c, 0, 48, 36
1, 891815, Note_on_c, 0, 75, 43
1, 891833, Control_c, 0, 64, 111
1, 891848, Control_c, 0, 64, 97
1, 891848, Control_c, 0, 67, 109
1, 891863, Control_c, 0, 64, 87
1, 891878, Control_c, 0, 64, 78
1, 891893, Control_c, 0, 64, 70
1, 891908, Control_c, 0, 64, 63
1, 891922, Control_c, 0, 64, 59
1, 891937, Control_c, 0, 64, 57
1, 891952, Control_c, 0, 64, 55
1, 891952, Control_c, 0, 67, 109
1, 891967, Control_c, 0, 64, 53
1, 891982, Control_c, 0, 64, 52
1, 891984, Note_off_c, 0, 37, 41
1, 891996, Control_c, 0, 64, 49
1, 892011, Control_c, 0, 64, 48
1, 892026, Control_c, 0, 64, 48
1, 892085, Control_c, 0, 64, 49
1, 892100, Control_c, 0, 64, 53
1, 892114, Control_c, 0, 64, 57
1, 892129, Control_c, 0, 64, 60
1, 892144, Control_c, 0, 64, 63
1, 892159, Control_c, 0, 64, 64
1, 892174, Control_c, 0, 64, 65
1, 892189, Control_c, 0, 64, 67
1, 892203, Control_c, 0, 64, 69
1, 892218, Control_c, 0, 64, 72
1, 892233, Control_c, 0, 64, 75
1, 892233, Control_c, 0, 67, 109
1, 892256, Control_c, 0, 64, 79
1, 892271, Control_c, 0, 64, 83
1, 892285, Control_c, 0, 64, 88
1, 892300, Control_c, 0, 64, 95
1, 892315, Control_c, 0, 64, 101
1, 892329, Control_c, 0, 64, 108
1, 892344, Control_c, 0, 64, 121
1, 892359, Control_c, 0, 64, 127
1, 892477, Control_c, 0, 67, 109
1, 892507, Control_c, 0, 67, 110
1, 892522, Control_c, 0, 67, 110
1, 892540, Note_off_c, 0, 68, 48
1, 892543, Note_off_c, 0, 48, 41
1, 892552, Control_c, 0, 67, 111
1, 892567, Control_c, 0, 67, 111
1, 892596, Control_c, 0, 67, 112
1, 892611, Control_c, 0, 67, 113
1, 892641, Control_c, 0, 67, 113
1, 892644, Note_off_c, 0, 75, 53
1, 892671, Control_c, 0, 67, 114
1, 892686, Control_c, 0, 67, 114
1, 892698, Note_off_c, 0, 80, 58
1, 892701, Control_c, 0, 67, 115
1, 892731, Control_c, 0, 67, 115
1, 892745, Control_c, 0, 67, 116
1, 892775, Control_c, 0, 67, 117
1, 892790, Control_c, 0, 67, 117
1, 892819, Control_c, 0, 67, 118
1, 892864, Control_c, 0, 67, 118
1, 892893, Control_c, 0, 67, 119
1, 892923, Control_c, 0, 67, 119
1, 892938, Control_c, 0, 67, 120
1, 892952, Control_c, 0, 67, 120
1, 892967, Control_c, 0, 67, 121
1, 892982, Control_c, 0, 67, 121
1, 893004, Note_on_c, 0, 82, 53
1, 893005, Control_c, 0, 67, 123
1, 893008, Note_on_c, 0, 34, 41
1, 893014, Note_on_c, 0, 70, 45
1, 893020, Control_c, 0, 64, 105
1, 893020, Control_c, 0, 67, 124
1, 893020, Note_on_c, 0, 46, 33
1, 893024, Note_on_c, 0, 78, 43
1, 893034, Control_c, 0, 64, 89
1, 893034, Control_c, 0, 67, 125
1, 893049, Control_c, 0, 64, 76
1, 893049, Control_c, 0, 67, 125
1, 893064, Control_c, 0, 64, 70
1, 893064, Control_c, 0, 67, 126
1, 893068, Note_off_c, 0, 36, 39
1, 893078, Control_c, 0, 64, 68
1, 893093, Control_c, 0, 64, 69
1, 893108, Control_c, 0, 64, 71
1, 893123, Control_c, 0, 64, 74
1, 893138, Control_c, 0, 64, 78
1, 893152, Control_c, 0, 64, 83
1, 893167, Control_c, 0, 64, 88
1, 893167, Control_c, 0, 67, 125
1, 893182, Control_c, 0, 64, 93
1, 893197, Control_c, 0, 64, 98
1, 893197, Control_c, 0, 67, 124
1, 893211, Note_off_c, 0, 46, 49
1, 893212, Control_c, 0, 64, 104
1, 893212, Control_c, 0, 67, 124
1, 893219, Note_off_c, 0, 70, 62
1, 893226, Control_c, 0, 64, 111
1, 893226, Control_c, 0, 67, 123
1, 893241, Control_c, 0, 64, 127
1, 893241, Control_c, 0, 67, 123
1, 893256, Control_c, 0, 67, 122
1, 893270, Control_c, 0, 67, 122
1, 893271, Note_off_c, 0, 78, 44
1, 893282, Note_off_c, 0, 82, 60
1, 893285, Control_c, 0, 67, 121
1, 893300, Control_c, 0, 67, 121
1, 893315, Control_c, 0, 67, 120
1, 893345, Control_c, 0, 67, 120
1, 893360, Control_c, 0, 67, 119
1, 893401, Note_on_c, 0, 84, 64
1, 893409, Note_on_c, 0, 72, 53
1, 893415, Note_on_c, 0, 80, 51
1, 893422, Note_on_c, 0, 44, 33
1, 893449, Note_off_c, 0, 72, 61
1, 893450, Control_c, 0, 67, 119
1, 893458, Note_off_c, 0, 44, 48
1, 893477, Note_off_c, 0, 80, 61
1, 893482, Note_off_c, 0, 84, 62
1, 893554, Control_c, 0, 67, 119
1, 893583, Control_c, 0, 67, 120
1, 893593, Note_off_c, 0, 34, 40
1, 893613, Control_c, 0, 67, 121
1, 893616, Note_on_c, 0, 85, 62
1, 893625, Note_on_c, 0, 30, 40
1, 893628, Note_on_c, 0, 82, 51
1, 893631, Note_on_c, 0, 73, 53
1, 893643, Note_on_c, 0, 42, 39
1, 893643, Control_c, 0, 64, 94
1, 893643, Control_c, 0, 67, 121
1, 893658, Control_c, 0, 64, 76
1, 893672, Control_c, 0, 64, 64
1, 893687, Control_c, 0, 64, 49
1, 893702, Control_c, 0, 64, 50
1, 893717, Control_c, 0, 64, 59
1, 893732, Control_c, 0, 64, 64
1, 893754, Control_c, 0, 64, 69
1, 893769, Control_c, 0, 64, 75
1, 893783, Control_c, 0, 64, 82
1, 893798, Control_c, 0, 64, 90
1, 893813, Control_c, 0, 64, 99
1, 893813, Control_c, 0, 67, 121
1, 893828, Control_c, 0, 64, 107
1, 893832, Note_off_c, 0, 73, 57
1, 893843, Control_c, 0, 64, 119
1, 893845, Note_off_c, 0, 85, 60
1, 893854, Note_off_c, 0, 82, 62
1, 893857, Control_c, 0, 64, 127
1, 893947, Control_c, 0, 67, 120
1, 894006, Control_c, 0, 67, 120
1, 894033, Note_on_c, 0, 82, 67
1, 894036, Control_c, 0, 67, 119
1, 894043, Note_on_c, 0, 70, 46
1, 894051, Note_on_c, 0, 78, 55
1, 894080, Control_c, 0, 67, 119
1, 894098, Note_off_c, 0, 70, 60
1, 894109, Control_c, 0, 67, 118
1, 894111, Note_off_c, 0, 82, 62
1, 894123, Note_off_c, 0, 78, 55
1, 894168, Control_c, 0, 67, 118
1, 894198, Control_c, 0, 67, 117
1, 894214, Control_c, 0, 67, 117
1, 894244, Control_c, 0, 67, 116
1, 894253, Note_on_c, 0, 78, 62
1, 894259, Control_c, 0, 67, 115
1, 894266, Note_on_c, 0, 66, 50
1, 894270, Note_on_c, 0, 75, 55
1, 894273, Control_c, 0, 67, 114
1, 894288, Control_c, 0, 67, 113
1, 894303, Control_c, 0, 67, 113
1, 894317, Control_c, 0, 67, 112
1, 894332, Control_c, 0, 67, 111
1, 894347, Control_c, 0, 67, 110
1, 894362, Control_c, 0, 67, 109
1, 894377, Control_c, 0, 67, 109
1, 894391, Control_c, 0, 67, 108
1, 894406, Control_c, 0, 67, 108
1, 894412, Note_off_c, 0, 75, 58
1, 894421, Note_off_c, 0, 66, 61
1, 894421, Control_c, 0, 67, 107
1, 894427, Note_off_c, 0, 78, 62
1, 894433, Note_off_c, 0, 30, 39
1, 894451, Control_c, 0, 67, 107
1, 894467, Note_off_c, 0, 42, 41
1, 894591, Control_c, 0, 67, 107
1, 894621, Control_c, 0, 67, 108
1, 894651, Control_c, 0, 64, 124
1, 894652, Note_on_c, 0, 77, 60
1, 894662, Note_on_c, 0, 43, 46
1, 894665, Note_on_c, 0, 31, 46
1, 894665, Note_on_c, 0, 65, 46
1, 894666, Control_c, 0, 64, 89
1, 894666, Control_c, 0, 67, 108
1, 894668, Note_on_c, 0, 73, 51
1, 894680, Control_c, 0, 64, 77
1, 894695, Control_c, 0, 64, 70
1, 894713, Note_off_c, 0, 43, 62
1, 894725, Control_c, 0, 64, 73
1, 894740, Control_c, 0, 64, 79
1, 894743, Note_off_c, 0, 65, 58
1, 894743, Note_off_c, 0, 73, 53
1, 894753, Note_off_c, 0, 77, 56
1, 894755, Control_c, 0, 64, 88
1, 894769, Control_c, 0, 64, 104
1, 894784, Control_c, 0, 64, 127
1, 894857, Control_c, 0, 67, 109
1, 894872, Control_c, 0, 67, 109
1, 894887, Note_on_c, 0, 73, 50
1, 894887, Control_c, 0, 67, 110
1, 894888, Note_on_c, 0, 77, 54
1, 894891, Note_on_c, 0, 65, 44
1, 894902, Control_c, 0, 67, 110
1, 894912, Note_on_c, 0, 44, 34
1, 894916, Note_on_c, 0, 32, 42
1, 894916, Control_c, 0, 67, 111
1, 894931, Control_c, 0, 64, 106
1, 894946, Control_c, 0, 64, 80
1, 894946, Control_c, 0, 67, 111
1, 894961, Control_c, 0, 64, 63
1, 894966, Note_off_c, 0, 31, 39
1, 894976, Control_c, 0, 64, 0
1, 895081, Control_c, 0, 67, 111
1, 895110, Control_c, 0, 64, 61
1, 895110, Control_c, 0, 67, 110
1, 895125, Control_c, 0, 64, 69
1, 895139, Control_c, 0, 64, 79
1, 895154, Control_c, 0, 64, 91
1, 895169, Control_c, 0, 64, 108
1, 895184, Control_c, 0, 64, 127
1, 895211, Note_off_c, 0, 65, 59
1, 895229, Control_c, 0, 67, 111
1, 895251, Control_c, 0, 67, 111
1, 895265, Control_c, 0, 67, 112
1, 895267, Note_off_c, 0, 73, 61
1, 895280, Control_c, 0, 67, 113
1, 895295, Control_c, 0, 67, 114
1, 895310, Control_c, 0, 67, 114
1, 895325, Control_c, 0, 67, 115
1, 895339, Control_c, 0, 67, 116
1, 895354, Control_c, 0, 67, 117
1, 895369, Control_c, 0, 67, 118
1, 895384, Control_c, 0, 67, 119
1, 895399, Control_c, 0, 67, 120
1, 895413, Control_c, 0, 67, 121
1, 895428, Control_c, 0, 67, 123
1, 895443, Control_c, 0, 67, 125
1, 895458, Control_c, 0, 67, 127
1, 895570, Note_on_c, 0, 75, 47
1, 895575, Note_on_c, 0, 72, 40
1, 895592, Control_c, 0, 64, 101
1, 895594, Note_on_c, 0, 63, 43
1, 895594, Note_off_c, 0, 77, 35
1, 895607, Control_c, 0, 64, 82
1, 895621, Control_c, 0, 64, 63
1, 895636, Control_c, 0, 64, 0
1, 895725, Control_c, 0, 64, 47
1, 895739, Control_c, 0, 64, 65
1, 895754, Note_off_c, 0, 63, 51
1, 895754, Control_c, 0, 64, 71
1, 895769, Control_c, 0, 64, 78
1, 895784, Control_c, 0, 64, 87
1, 895798, Note_off_c, 0, 32, 42
1, 895799, Control_c, 0, 64, 96
1, 895815, Control_c, 0, 64, 101
1, 895830, Control_c, 0, 64, 104
1, 895831, Note_off_c, 0, 72, 32
1, 895835, Note_off_c, 0, 75, 37
1, 895844, Note_off_c, 0, 44, 42
1, 895844, Control_c, 0, 64, 106
1, 895859, Control_c, 0, 64, 107
1, 895874, Control_c, 0, 64, 107
1, 895888, Control_c, 0, 64, 108
1, 895918, Control_c, 0, 64, 107
1, 895962, Control_c, 0, 64, 107
1, 895977, Control_c, 0, 64, 105
1, 896000, Control_c, 0, 64, 102
1, 896015, Control_c, 0, 64, 98
1, 896030, Control_c, 0, 64, 93
1, 896044, Control_c, 0, 64, 87
1, 896059, Control_c, 0, 64, 80
1, 896074, Control_c, 0, 64, 72
1, 896088, Control_c, 0, 64, 65
1, 896103, Control_c, 0, 64, 61
1, 896118, Control_c, 0, 64, 60
1, 896148, Control_c, 0, 64, 59
1, 896236, Control_c, 0, 64, 60
1, 896251, Control_c, 0, 64, 61
1, 896266, Control_c, 0, 64, 62
1, 896281, Control_c, 0, 64, 63
1, 896296, Control_c, 0, 64, 65
1, 896311, Control_c, 0, 64, 66
1, 896319, Note_on_c, 0, 49, 31
1, 896325, Note_on_c, 0, 73, 24
1, 896326, Note_on_c, 0, 76, 39
1, 896326, Control_c, 0, 64, 67
1, 896338, Note_on_c, 0, 37, 26
1, 896341, Control_c, 0, 64, 69
1, 896356, Control_c, 0, 64, 71
1, 896370, Control_c, 0, 64, 73
1, 896382, Poly_aftertouch_c, 0, 68, 127
1, 896385, Control_c, 0, 64, 75
1, 896387, Poly_aftertouch_c, 0, 64, 127
1, 896400, Control_c, 0, 64, 77
1, 896415, Control_c, 0, 64, 80
1, 896430, Control_c, 0, 64, 84
1, 896445, Control_c, 0, 64, 87
1, 896460, Control_c, 0, 64, 90
1, 896475, Control_c, 0, 64, 95
1, 896489, Control_c, 0, 64, 99
1, 896504, Control_c, 0, 64, 105
1, 896519, Control_c, 0, 64, 114
1, 896534, Control_c, 0, 64, 127
1, 896542, Poly_aftertouch_c, 0, 64, 0
1, 896592, Poly_aftertouch_c, 0, 68, 0
1, 896615, Note_off_c, 0, 76, 37
1, 896641, Note_off_c, 0, 49, 50
1, 896641, Note_off_c, 0, 73, 41
1, 896997, Note_on_c, 0, 80, 50
1, 897008, Note_on_c, 0, 35, 34
1, 897014, Note_on_c, 0, 47, 31
1, 897019, Note_on_c, 0, 75, 41
1, 897022, Note_on_c, 0, 68, 32
1, 897046, Control_c, 0, 64, 119
1, 897060, Control_c, 0, 64, 104
1, 897075, Control_c, 0, 64, 94
1, 897090, Control_c, 0, 64, 86
1, 897105, Control_c, 0, 64, 80
1, 897119, Control_c, 0, 64, 73
1, 897130, Note_off_c, 0, 37, 43
1, 897134, Control_c, 0, 64, 67
1, 897149, Control_c, 0, 64, 63
1, 897164, Control_c, 0, 64, 62
1, 897267, Control_c, 0, 64, 63
1, 897282, Control_c, 0, 64, 64
1, 897297, Control_c, 0, 64, 66
1, 897312, Control_c, 0, 64, 67
1, 897327, Control_c, 0, 64, 69
1, 897342, Control_c, 0, 64, 71
1, 897357, Control_c, 0, 64, 73
1, 897372, Control_c, 0, 64, 74
1, 897386, Control_c, 0, 64, 77
1, 897401, Control_c, 0, 64, 79
1, 897416, Control_c, 0, 64, 82
1, 897431, Control_c, 0, 64, 85
1, 897446, Control_c, 0, 64, 87
1, 897461, Control_c, 0, 64, 91
1, 897476, Control_c, 0, 64, 94
1, 897498, Control_c, 0, 64, 98
1, 897513, Control_c, 0, 64, 102
1, 897528, Control_c, 0, 64, 108
1, 897542, Control_c, 0, 64, 115
1, 897557, Control_c, 0, 64, 127
1, 897660, Note_off_c, 0, 68, 46
1, 897691, Control_c, 0, 67, 127
1, 897706, Control_c, 0, 67, 125
1, 897721, Control_c, 0, 67, 123
1, 897735, Control_c, 0, 67, 121
1, 897750, Control_c, 0, 67, 119
1, 897765, Control_c, 0, 67, 116
1, 897771, Note_off_c, 0, 75, 55
1, 897780, Control_c, 0, 67, 113
1, 897781, Note_off_c, 0, 47, 43
1, 897795, Control_c, 0, 67, 111
1, 897802, Note_off_c, 0, 80, 49
1, 897810, Control_c, 0, 67, 109
1, 897824, Control_c, 0, 67, 108
1, 897839, Control_c, 0, 67, 107
1, 897854, Control_c, 0, 67, 106
1, 897987, Control_c, 0, 67, 106
1, 898046, Control_c, 0, 67, 107
1, 898075, Control_c, 0, 67, 107
1, 898090, Control_c, 0, 67, 108
1, 898105, Control_c, 0, 67, 109
1, 898120, Control_c, 0, 67, 109
1, 898135, Control_c, 0, 67, 110
1, 898150, Control_c, 0, 67, 111
1, 898165, Control_c, 0, 67, 112
1, 898180, Control_c, 0, 67, 112
1, 898195, Control_c, 0, 67, 113
1, 898205, Note_on_c, 0, 33, 43
1, 898208, Note_on_c, 0, 85, 53
1, 898210, Control_c, 0, 64, 100
1, 898220, Note_on_c, 0, 45, 37
1, 898225, Control_c, 0, 64, 86
1, 898229, Note_on_c, 0, 76, 41
1, 898241, Note_on_c, 0, 73, 28
1, 898247, Control_c, 0, 64, 78
1, 898256, Note_off_c, 0, 35, 45
1, 898262, Control_c, 0, 64, 76
1, 898277, Control_c, 0, 64, 76
1, 898291, Control_c, 0, 64, 80
1, 898306, Control_c, 0, 64, 85
1, 898321, Control_c, 0, 64, 92
1, 898321, Control_c, 0, 67, 112
1, 898336, Control_c, 0, 64, 101
1, 898351, Control_c, 0, 64, 114
1, 898351, Control_c, 0, 67, 112
1, 898365, Control_c, 0, 64, 127
1, 898365, Control_c, 0, 67, 111
1, 898376, Note_off_c, 0, 76, 46
1, 898385, Note_off_c, 0, 45, 54
1, 898403, Note_off_c, 0, 73, 41
1, 898410, Control_c, 0, 67, 111
1, 898440, Note_off_c, 0, 85, 61
1, 898543, Control_c, 0, 67, 111
1, 898595, Note_on_c, 0, 42, 46
1, 898600, Note_off_c, 0, 33, 40
1, 898601, Note_on_c, 0, 30, 46
1, 898602, Note_on_c, 0, 81, 45
1, 898604, Note_on_c, 0, 87, 61
1, 898615, Note_on_c, 0, 75, 46
1, 898627, Note_off_c, 0, 42, 60
1, 898637, Note_off_c, 0, 81, 49
1, 898644, Note_off_c, 0, 30, 59
1, 898656, Note_off_c, 0, 75, 63
1, 898674, Note_off_c, 0, 87, 49
1, 898736, Control_c, 0, 67, 112
1, 898765, Control_c, 0, 67, 112
1, 898809, Control_c, 0, 67, 113
1, 898813, Note_on_c, 0, 88, 60
1, 898821, Note_on_c, 0, 40, 35
1, 898824, Note_on_c, 0, 28, 32
1, 898824, Control_c, 0, 64, 93
1, 898830, Note_on_c, 0, 80, 46
1, 898837, Note_on_c, 0, 76, 35
1, 898839, Control_c, 0, 64, 74
1, 898854, Control_c, 0, 64, 63
1, 898869, Control_c, 0, 64, 49
1, 898883, Control_c, 0, 64, 50
1, 898898, Control_c, 0, 64, 57
1, 898898, Control_c, 0, 67, 112
1, 898913, Control_c, 0, 64, 63
1, 898913, Control_c, 0, 67, 112
1, 898928, Control_c, 0, 64, 68
1, 898928, Control_c, 0, 67, 111
1, 898943, Control_c, 0, 64, 74
1, 898958, Control_c, 0, 64, 82
1, 898958, Control_c, 0, 67, 111
1, 898973, Control_c, 0, 64, 93
1, 898973, Control_c, 0, 67, 110
1, 898995, Control_c, 0, 64, 106
1, 899011, Control_c, 0, 64, 127
1, 899011, Control_c, 0, 67, 110
1, 899063, Note_off_c, 0, 76, 42
1, 899077, Note_off_c, 0, 80, 55
1, 899085, Control_c, 0, 67, 110
1, 899128, Note_off_c, 0, 88, 52
1, 899133, Note_off_c, 0, 40, 41
1, 899159, Control_c, 0, 67, 111
1, 899203, Control_c, 0, 67, 111
1, 899248, Control_c, 0, 67, 112
1, 899277, Control_c, 0, 67, 112
1, 899321, Control_c, 0, 67, 113
1, 899351, Control_c, 0, 67, 113
1, 899396, Control_c, 0, 67, 114
1, 899426, Control_c, 0, 67, 114
1, 899440, Control_c, 0, 67, 115
1, 899455, Control_c, 0, 67, 115
1, 899460, Note_on_c, 0, 90, 52
1, 899467, Note_on_c, 0, 39, 36
1, 899470, Control_c, 0, 67, 116
1, 899478, Note_on_c, 0, 83, 45
1, 899485, Note_on_c, 0, 27, 38
1, 899485, Control_c, 0, 64, 115
1, 899485, Control_c, 0, 67, 117
1, 899490, Note_on_c, 0, 78, 39
1, 899500, Control_c, 0, 64, 97
1, 899500, Control_c, 0, 67, 118
1, 899514, Control_c, 0, 64, 83
1, 899514, Control_c, 0, 67, 118
1, 899529, Control_c, 0, 64, 73
1, 899529, Control_c, 0, 67, 119
1, 899544, Control_c, 0, 64, 65
1, 899544, Control_c, 0, 67, 119
1, 899559, Control_c, 0, 64, 59
1, 899559, Control_c, 0, 67, 120
1, 899574, Control_c, 0, 64, 58
1, 899574, Control_c, 0, 67, 122
1, 899588, Control_c, 0, 67, 123
1, 899603, Control_c, 0, 67, 125
1, 899618, Control_c, 0, 64, 58
1, 899618, Control_c, 0, 67, 126
1, 899628, Note_off_c, 0, 28, 41
1, 899632, Control_c, 0, 64, 60
1, 899632, Control_c, 0, 67, 127
1, 899647, Control_c, 0, 64, 62
1, 899662, Control_c, 0, 64, 64
1, 899677, Control_c, 0, 64, 65
1, 899692, Control_c, 0, 64, 67
1, 899706, Control_c, 0, 64, 68
1, 899721, Control_c, 0, 64, 69
1, 899744, Control_c, 0, 64, 71
1, 899759, Control_c, 0, 64, 71
1, 899774, Control_c, 0, 64, 72
1, 899803, Control_c, 0, 64, 73
1, 899819, Control_c, 0, 64, 74
1, 899834, Control_c, 0, 64, 76
1, 899849, Control_c, 0, 64, 78
1, 899863, Control_c, 0, 64, 81
1, 899878, Control_c, 0, 64, 84
1, 899893, Control_c, 0, 64, 89
1, 899908, Control_c, 0, 64, 94
1, 899923, Control_c, 0, 64, 100
1, 899937, Control_c, 0, 64, 108
1, 899952, Control_c, 0, 64, 119
1, 899967, Control_c, 0, 64, 127
1, 900257, Note_off_c, 0, 78, 44
1, 900298, Note_off_c, 0, 39, 41
1, 900414, Note_off_c, 0, 90, 38
1, 900597, Note_off_c, 0, 83, 36
1, 900792, Note_on_c, 0, 92, 49
1, 900797, Note_on_c, 0, 83, 31
1, 900798, Note_on_c, 0, 25, 36
1, 900810, Note_on_c, 0, 80, 31
1, 900817, Note_on_c, 0, 37, 31
1, 900820, Control_c, 0, 64, 101
1, 900823, Note_on_c, 0, 88, 41
1, 900834, Control_c, 0, 64, 89
1, 900849, Control_c, 0, 64, 78
1, 900864, Control_c, 0, 64, 70
1, 900878, Control_c, 0, 64, 64
1, 900893, Control_c, 0, 64, 60
1, 900908, Control_c, 0, 64, 57
1, 900919, Note_off_c, 0, 27, 47
1, 900923, Control_c, 0, 64, 55
1, 900938, Control_c, 0, 64, 53
1, 900952, Control_c, 0, 64, 51
1, 900967, Control_c, 0, 64, 51
1, 901012, Control_c, 0, 64, 52
1, 901026, Control_c, 0, 64, 57
1, 901041, Control_c, 0, 64, 62
1, 901056, Control_c, 0, 64, 64
1, 901071, Control_c, 0, 64, 66
1, 901086, Control_c, 0, 64, 67
1, 901101, Control_c, 0, 64, 69
1, 901116, Control_c, 0, 64, 72
1, 901131, Control_c, 0, 64, 75
1, 901146, Control_c, 0, 64, 78
1, 901160, Control_c, 0, 64, 82
1, 901175, Control_c, 0, 64, 86
1, 901190, Control_c, 0, 64, 89
1, 901204, Control_c, 0, 64, 93
1, 901219, Control_c, 0, 64, 99
1, 901241, Control_c, 0, 64, 104
1, 901256, Control_c, 0, 64, 111
1, 901271, Control_c, 0, 64, 127
1, 901285, Note_off_c, 0, 25, 41
1, 901404, Note_off_c, 0, 37, 42
1, 901412, Note_off_c, 0, 80, 44
1, 901486, Note_off_c, 0, 83, 45
1, 901557, Note_off_c, 0, 88, 42
1, 901701, Control_c, 0, 67, 127
1, 901716, Control_c, 0, 67, 126
1, 901732, Note_off_c, 0, 92, 63
1, 901805, Control_c, 0, 67, 127
1, 901834, Control_c, 0, 67, 127
1, 902108, Control_c, 0, 64, 95
1, 902123, Control_c, 0, 64, 77
1, 902125, Note_on_c, 0, 94, 45
1, 902127, Note_on_c, 0, 42, 38
1, 902137, Note_on_c, 0, 30, 35
1, 902138, Note_on_c, 0, 88, 38
1, 902138, Control_c, 0, 64, 65
1, 902141, Note_on_c, 0, 82, 26
1, 902153, Control_c, 0, 64, 61
1, 902168, Control_c, 0, 64, 64
1, 902183, Control_c, 0, 64, 68
1, 902198, Control_c, 0, 64, 75
1, 902213, Control_c, 0, 64, 85
1, 902228, Control_c, 0, 64, 104
1, 902243, Control_c, 0, 64, 127
1, 902250, Note_off_c, 0, 30, 50
1, 902284, Note_off_c, 0, 42, 36
1, 902323, Note_off_c, 0, 88, 57
1, 902351, Note_off_c, 0, 94, 59
1, 902354, Note_off_c, 0, 82, 44
1, 902686, Note_on_c, 0, 35, 45
1, 902687, Control_c, 0, 64, 90
1, 902690, Note_on_c, 0, 95, 61
1, 902693, Note_on_c, 0, 47, 34
1, 902702, Control_c, 0, 64, 71
1, 902707, Note_on_c, 0, 83, 40
1, 902714, Note_on_c, 0, 87, 38
1, 902717, Control_c, 0, 64, 50
1, 902720, Note_off_c, 0, 35, 54
1, 902734, Note_off_c, 0, 47, 46
1, 902738, Control_c, 0, 64, 0
1, 902768, Control_c, 0, 64, 19
1, 902783, Control_c, 0, 64, 44
1, 902798, Control_c, 0, 64, 53
1, 902812, Control_c, 0, 64, 57
1, 902827, Control_c, 0, 64, 59
1, 902842, Control_c, 0, 64, 61
1, 902857, Control_c, 0, 64, 62
1, 902872, Control_c, 0, 64, 63
1, 902886, Control_c, 0, 64, 64
1, 902901, Control_c, 0, 64, 65
1, 902916, Control_c, 0, 64, 65
1, 902942, Note_on_c, 0, 37, 60
1, 902946, Control_c, 0, 64, 65
1, 902958, Note_on_c, 0, 49, 35
1, 902961, Control_c, 0, 64, 61
1, 902976, Note_off_c, 0, 37, 64
1, 902976, Control_c, 0, 64, 0
1, 902994, Note_off_c, 0, 49, 47
1, 903040, Note_on_c, 0, 35, 60
1, 903047, Note_on_c, 0, 47, 51
1, 903199, Control_c, 0, 64, 48
1, 903199, Note_off_c, 0, 35, 63
1, 903214, Control_c, 0, 64, 72
1, 903218, Note_off_c, 0, 47, 63
1, 903228, Control_c, 0, 64, 84
1, 903243, Control_c, 0, 64, 120
1, 903258, Control_c, 0, 64, 127
1, 903321, Note_off_c, 0, 83, 60
1, 903333, Note_off_c, 0, 87, 56
1, 903337, Note_off_c, 0, 95, 62
1, 903502, Control_c, 0, 67, 126
1, 903517, Control_c, 0, 67, 124
1, 903524, Note_on_c, 0, 59, 41
1, 903532, Control_c, 0, 67, 122
1, 903547, Control_c, 0, 67, 120
1, 903561, Control_c, 0, 67, 117
1, 903564, Note_on_c, 0, 63, 48
1, 903576, Control_c, 0, 67, 115
1, 903578, Note_on_c, 0, 66, 50
1, 903585, Note_on_c, 0, 87, 60
1, 903585, Note_on_c, 0, 95, 68
1, 903586, Note_on_c, 0, 71, 66
1, 903591, Control_c, 0, 67, 114
1, 903596, Note_on_c, 0, 83, 53
1, 903603, Note_off_c, 0, 71, 68
1, 903605, Control_c, 0, 67, 113
1, 903609, Note_off_c, 0, 66, 64
1, 903620, Control_c, 0, 67, 112
1, 903622, Note_off_c, 0, 63, 60
1, 903624, Note_off_c, 0, 59, 58
1, 903665, Control_c, 0, 67, 112
1, 903709, Control_c, 0, 67, 112
1, 903724, Control_c, 0, 67, 113
1, 903739, Control_c, 0, 67, 115
1, 903754, Control_c, 0, 67, 117
1, 903769, Control_c, 0, 67, 119
1, 903782, Note_on_c, 0, 46, 72
1, 903784, Control_c, 0, 64, 95
1, 903784, Control_c, 0, 67, 122
1, 903787, Note_on_c, 0, 34, 64
1, 903799, Control_c, 0, 64, 71
1, 903799, Control_c, 0, 67, 123
1, 903804, Note_off_c, 0, 46, 63
1, 903814, Control_c, 0, 64, 0
1, 903814, Control_c, 0, 67, 124
1, 903815, Note_off_c, 0, 34, 58
1, 903829, Control_c, 0, 67, 125
1, 903844, Control_c, 0, 67, 125
1, 903918, Control_c, 0, 67, 125
1, 903948, Control_c, 0, 64, 19
1, 903948, Control_c, 0, 67, 124
1, 903963, Control_c, 0, 64, 42
1, 903963, Control_c, 0, 67, 124
1, 903977, Control_c, 0, 64, 51
1, 903992, Control_c, 0, 64, 54
1, 904007, Control_c, 0, 64, 54
1, 904007, Control_c, 0, 67, 124
1, 904022, Control_c, 0, 64, 27
1, 904022, Control_c, 0, 67, 127
1, 904036, Control_c, 0, 64, 0
1, 904036, Control_c, 0, 67, 127
1, 904040, Note_on_c, 0, 47, 62
1, 904046, Note_on_c, 0, 35, 51
1, 904063, Note_off_c, 0, 47, 61
1, 904076, Note_off_c, 0, 35, 57
1, 904128, Note_on_c, 0, 46, 80
1, 904147, Note_on_c, 0, 34, 57
1, 904290, Note_off_c, 0, 34, 62
1, 904292, Note_off_c, 0, 46, 61
1, 904296, Control_c, 0, 64, 44
1, 904310, Control_c, 0, 64, 77
1, 904325, Control_c, 0, 64, 91
1, 904340, Control_c, 0, 64, 127
1, 904383, Note_off_c, 0, 83, 61
1, 904396, Note_off_c, 0, 87, 63
1, 904410, Note_off_c, 0, 95, 61
1, 904517, Control_c, 0, 67, 126
1, 904532, Control_c, 0, 67, 121
1, 904547, Control_c, 0, 67, 114
1, 904562, Control_c, 0, 67, 104
1, 904568, Note_on_c, 0, 59, 58
1, 904577, Control_c, 0, 67, 94
1, 904590, Note_on_c, 0, 63, 44
1, 904592, Control_c, 0, 67, 83
1, 904607, Control_c, 0, 67, 70
1, 904611, Note_on_c, 0, 66, 55
1, 904617, Note_on_c, 0, 95, 88
1, 904620, Note_on_c, 0, 71, 82
1, 904621, Note_on_c, 0, 87, 78
1, 904622, Control_c, 0, 67, 57
1, 904624, Note_on_c, 0, 83, 75
1, 904637, Control_c, 0, 67, 45
1, 904638, Note_off_c, 0, 71, 73
1, 904651, Control_c, 0, 67, 34
1, 904652, Note_off_c, 0, 66, 62
1, 904666, Note_off_c, 0, 63, 62
1, 904666, Control_c, 0, 67, 28
1, 904669, Note_off_c, 0, 59, 62
1, 904681, Control_c, 0, 67, 22
1, 904696, Control_c, 0, 67, 18
1, 904711, Control_c, 0, 67, 15
1, 904726, Control_c, 0, 67, 13
1, 904741, Control_c, 0, 67, 12
1, 904755, Control_c, 0, 67, 12
1, 904824, Note_on_c, 0, 33, 86
1, 904824, Note_on_c, 0, 45, 89
1, 904830, Control_c, 0, 64, 79
1, 904830, Control_c, 0, 67, 13
1, 904842, Note_off_c, 0, 45, 68
1, 904845, Control_c, 0, 64, 46
1, 904845, Control_c, 0, 67, 15
1, 904845, Note_off_c, 0, 33, 62
1, 904859, Control_c, 0, 64, 0
1, 904859, Control_c, 0, 67, 16
1, 904874, Control_c, 0, 67, 17
1, 904889, Control_c, 0, 67, 17
1, 904904, Control_c, 0, 67, 18
1, 904919, Control_c, 0, 67, 18
1, 904933, Control_c, 0, 64, 19
1, 904933, Control_c, 0, 67, 19
1, 904948, Control_c, 0, 64, 40
1, 904963, Control_c, 0, 64, 49
1, 904985, Control_c, 0, 64, 55
1, 904985, Control_c, 0, 67, 19
1, 905000, Control_c, 0, 64, 60
1, 905015, Control_c, 0, 64, 63
1, 905030, Control_c, 0, 64, 65
1, 905045, Control_c, 0, 64, 66
1, 905059, Control_c, 0, 64, 68
1, 905074, Control_c, 0, 64, 68
1, 905089, Control_c, 0, 64, 67
1, 905090, Note_on_c, 0, 34, 79
1, 905092, Note_on_c, 0, 46, 77
1, 905104, Control_c, 0, 64, 52
1, 905104, Control_c, 0, 67, 20
1, 905114, Note_off_c, 0, 46, 66
1, 905119, Note_off_c, 0, 34, 66
1, 905119, Control_c, 0, 64, 0
1, 905119, Control_c, 0, 67, 20
1, 905179, Note_on_c, 0, 33, 92
1, 905179, Note_on_c, 0, 45, 94
1, 905266, Control_c, 0, 67, 20
1, 905281, Control_c, 0, 67, 19
1, 905296, Control_c, 0, 67, 19
1, 905310, Control_c, 0, 67, 18
1, 905325, Control_c, 0, 67, 17
1, 905331, Note_off_c, 0, 33, 63
1, 905340, Control_c, 0, 64, 74
1, 905340, Control_c, 0, 67, 16
1, 905347, Note_off_c, 0, 45, 65
1, 905355, Control_c, 0, 64, 127
1, 905355, Control_c, 0, 67, 15
1, 905370, Control_c, 0, 67, 14
1, 905384, Control_c, 0, 67, 13
1, 905400, Control_c, 0, 67, 13
1, 905404, Note_off_c, 0, 83, 62
1, 905415, Control_c, 0, 67, 12
1, 905429, Control_c, 0, 67, 11
1, 905435, Note_off_c, 0, 87, 63
1, 905444, Note_off_c, 0, 95, 64
1, 905444, Control_c, 0, 67, 10
1, 905459, Control_c, 0, 67, 8
1, 905474, Control_c, 0, 67, 0
1, 905641, Note_on_c, 0, 60, 51
1, 905644, Note_on_c, 0, 63, 61
1, 905644, Note_on_c, 0, 66, 65
1, 905686, Note_on_c, 0, 72, 96
1, 905687, Poly_aftertouch_c, 0, 59, 127
1, 905694, Note_on_c, 0, 96, 98
1, 905695, Note_on_c, 0, 87, 100
1, 905700, Note_on_c, 0, 84, 89
1, 905713, Note_off_c, 0, 72, 65
1, 905718, Poly_aftertouch_c, 0, 59, 0
1, 905735, Note_off_c, 0, 66, 63
1, 905741, Note_off_c, 0, 60, 63
1, 905754, Note_off_c, 0, 63, 61
1, 905905, Note_on_c, 0, 44, 100
1, 905906, Note_on_c, 0, 32, 101
1, 905911, Control_c, 0, 64, 91
1, 905926, Control_c, 0, 64, 63
1, 905927, Note_off_c, 0, 44, 70
1, 905928, Note_off_c, 0, 32, 72
1, 905941, Control_c, 0, 64, 0
1, 906074, Control_c, 0, 64, 19
1, 906089, Control_c, 0, 64, 34
1, 906104, Control_c, 0, 64, 38
1, 906119, Control_c, 0, 64, 42
1, 906134, Control_c, 0, 64, 47
1, 906148, Control_c, 0, 64, 53
1, 906163, Control_c, 0, 64, 60
1, 906178, Control_c, 0, 64, 63
1, 906193, Note_on_c, 0, 46, 88
1, 906193, Control_c, 0, 64, 65
1, 906195, Note_on_c, 0, 34, 85
1, 906209, Control_c, 0, 64, 66
1, 906218, Note_off_c, 0, 46, 69
1, 906222, Note_off_c, 0, 34, 67
1, 906223, Control_c, 0, 64, 67
1, 906238, Control_c, 0, 64, 66
1, 906253, Control_c, 0, 64, 49
1, 906268, Control_c, 0, 64, 0
1, 906289, Note_on_c, 0, 44, 100
1, 906291, Note_on_c, 0, 32, 97
1, 906317, Note_on_c, 0, 31, 63
1, 906341, Note_on_c, 0, 42, 17
1, 906342, Note_off_c, 0, 42, 127
1, 906363, Note_off_c, 0, 31, 43
1, 906512, Control_c, 0, 64, 73
1, 906527, Control_c, 0, 64, 109
1, 906532, Note_off_c, 0, 96, 59
1, 906542, Control_c, 0, 64, 127
1, 906566, Note_off_c, 0, 84, 61
1, 906603, Note_off_c, 0, 87, 62
1, 906650, Note_off_c, 0, 44, 61
1, 906711, Note_off_c, 0, 32, 56
1, 906905, Note_on_c, 0, 84, 86
1, 906905, Note_on_c, 0, 75, 86
1, 906911, Note_on_c, 0, 72, 83
1, 906914, Note_on_c, 0, 80, 73
1, 906916, Note_on_c, 0, 42, 96
1, 906920, Note_on_c, 0, 30, 90
1, 906930, Note_on_c, 0, 83, 56
1, 906933, Note_off_c, 0, 72, 69
1, 906951, Note_off_c, 0, 30, 67
1, 906953, Note_off_c, 0, 83, 41
1, 906964, Note_off_c, 0, 75, 65
1, 906964, Note_off_c, 0, 84, 66
1, 906973, Note_off_c, 0, 80, 61
1, 906981, Note_off_c, 0, 42, 62
1, 907070, Poly_aftertouch_c, 0, 36, 127
1, 907177, Note_on_c, 0, 73, 95
1, 907178, Note_on_c, 0, 85, 98
1, 907188, Note_on_c, 0, 80, 80
1, 907194, Note_on_c, 0, 41, 89
1, 907194, Note_on_c, 0, 29, 80
1, 907246, Control_c, 0, 64, 90
1, 907250, Poly_aftertouch_c, 0, 36, 0
1, 907261, Control_c, 0, 64, 65
1, 907276, Control_c, 0, 64, 0
1, 907320, Control_c, 0, 64, 59
1, 907335, Control_c, 0, 64, 74
1, 907350, Control_c, 0, 64, 98
1, 907365, Control_c, 0, 64, 127
1, 907435, Note_off_c, 0, 73, 61
1, 907441, Note_off_c, 0, 85, 61
1, 907465, Note_off_c, 0, 80, 61
1, 907578, Note_on_c, 0, 80, 90
1, 907584, Note_on_c, 0, 68, 85
1, 907593, Note_off_c, 0, 41, 63
1, 907623, Note_off_c, 0, 80, 61
1, 907630, Note_off_c, 0, 68, 61
1, 907793, Note_on_c, 0, 78, 86
1, 907798, Note_on_c, 0, 75, 82
1, 907799, Note_on_c, 0, 42, 78
1, 907799, Note_on_c, 0, 66, 78
1, 907802, Note_on_c, 0, 30, 76
1, 907840, Control_c, 0, 64, 91
1, 907843, Note_off_c, 0, 29, 61
1, 907855, Control_c, 0, 64, 69
1, 907869, Control_c, 0, 64, 0
1, 907929, Control_c, 0, 64, 61
1, 907943, Control_c, 0, 64, 72
1, 907958, Control_c, 0, 64, 88
1, 907981, Control_c, 0, 64, 127
1, 908007, Note_off_c, 0, 75, 57
1, 908034, Note_off_c, 0, 66, 63
1, 908047, Note_off_c, 0, 78, 61
1, 908171, Note_off_c, 0, 30, 59
1, 908173, Note_off_c, 0, 42, 58
1, 908181, Note_on_c, 0, 77, 87
1, 908187, Note_on_c, 0, 73, 80
1, 908188, Note_on_c, 0, 65, 81
1, 908265, Note_off_c, 0, 65, 56
1, 908282, Note_off_c, 0, 73, 57
1, 908288, Note_off_c, 0, 77, 56
1, 908383, Note_on_c, 0, 77, 83
1, 908391, Note_on_c, 0, 65, 73
1, 908393, Note_on_c, 0, 31, 72
1, 908394, Note_on_c, 0, 73, 72
1, 908396, Note_on_c, 0, 43, 71
1, 908410, Control_c, 0, 64, 114
1, 908425, Control_c, 0, 64, 83
1, 908440, Control_c, 0, 64, 63
1, 908455, Control_c, 0, 64, 0
1, 908514, Control_c, 0, 64, 62
1, 908529, Control_c, 0, 64, 71
1, 908543, Control_c, 0, 64, 85
1, 908558, Control_c, 0, 64, 109
1, 908573, Control_c, 0, 64, 127
1, 908742, Note_off_c, 0, 77, 56
1, 908753, Note_off_c, 0, 65, 59
1, 908765, Note_off_c, 0, 43, 64
1, 908808, Note_off_c, 0, 73, 60
1, 909034, Note_on_c, 0, 63, 81
1, 909036, Note_on_c, 0, 72, 73
1, 909038, Note_on_c, 0, 75, 81
1, 909040, Control_c, 0, 64, 117
1, 909046, Note_on_c, 0, 44, 77
1, 909048, Note_on_c, 0, 32, 67
1, 909056, Control_c, 0, 64, 85
1, 909071, Control_c, 0, 64, 68
1, 909074, Note_off_c, 0, 31, 58
1, 909086, Control_c, 0, 64, 61
1, 909100, Control_c, 0, 64, 65
1, 909101, Note_off_c, 0, 63, 61
1, 909115, Control_c, 0, 64, 71
1, 909123, Note_off_c, 0, 72, 60
1, 909130, Control_c, 0, 64, 79
1, 909140, Note_off_c, 0, 75, 64
1, 909145, Control_c, 0, 64, 93
1, 909160, Control_c, 0, 64, 127
1, 909245, Note_on_c, 0, 80, 98
1, 909250, Note_on_c, 0, 68, 90
1, 909270, Note_off_c, 0, 68, 68
1, 909288, Note_off_c, 0, 80, 61
1, 909429, Note_off_c, 0, 44, 63
1, 909430, Note_on_c, 0, 75, 95
1, 909430, Note_on_c, 0, 87, 103
1, 909462, Note_off_c, 0, 75, 61
1, 909473, Note_off_c, 0, 32, 59
1, 909483, Note_off_c, 0, 87, 64
1, 909723, Note_on_c, 0, 80, 89
1, 909723, Note_on_c, 0, 89, 99
1, 909724, Note_on_c, 0, 77, 90
1, 909725, Note_on_c, 0, 85, 83
1, 909735, Note_on_c, 0, 41, 95
1, 909737, Note_on_c, 0, 29, 89
1, 909760, Control_c, 0, 64, 98
1, 909775, Control_c, 0, 64, 61
1, 909790, Control_c, 0, 64, 0
1, 909848, Control_c, 0, 64, 58
1, 909863, Control_c, 0, 64, 75
1, 909878, Control_c, 0, 64, 127
1, 909939, Note_off_c, 0, 77, 60
1, 909948, Note_off_c, 0, 89, 58
1, 909999, Note_off_c, 0, 85, 60
1, 910005, Note_off_c, 0, 80, 59
1, 910084, Note_off_c, 0, 41, 62
1, 910155, Note_on_c, 0, 73, 94
1, 910157, Note_on_c, 0, 85, 89
1, 910179, Note_off_c, 0, 85, 65
1, 910200, Note_off_c, 0, 73, 61
1, 910372, Note_on_c, 0, 82, 94
1, 910378, Note_on_c, 0, 42, 82
1, 910378, Note_on_c, 0, 70, 83
1, 910380, Note_on_c, 0, 30, 77
1, 910383, Note_on_c, 0, 78, 81
1, 910413, Note_off_c, 0, 29, 61
1, 910419, Control_c, 0, 64, 103
1, 910434, Control_c, 0, 64, 78
1, 910449, Control_c, 0, 64, 51
1, 910464, Control_c, 0, 64, 0
1, 910479, Control_c, 0, 64, 43
1, 910494, Control_c, 0, 64, 63
1, 910509, Control_c, 0, 64, 71
1, 910524, Control_c, 0, 64, 85
1, 910538, Control_c, 0, 64, 127
1, 910549, Note_off_c, 0, 82, 62
1, 910562, Note_off_c, 0, 70, 60
1, 910596, Note_off_c, 0, 78, 60
1, 910759, Note_on_c, 0, 78, 87
1, 910761, Note_off_c, 0, 30, 59
1, 910762, Note_on_c, 0, 66, 86
1, 910770, Note_on_c, 0, 75, 71
1, 910793, Note_off_c, 0, 42, 60
1, 910802, Note_off_c, 0, 75, 59
1, 910808, Note_off_c, 0, 66, 62
1, 910816, Note_off_c, 0, 78, 60
1, 910983, Note_on_c, 0, 77, 90
1, 910990, Note_on_c, 0, 73, 83
1, 910992, Note_on_c, 0, 65, 83
1, 910997, Note_on_c, 0, 31, 79
1, 910998, Note_on_c, 0, 43, 79
1, 911035, Control_c, 0, 64, 102
1, 911050, Control_c, 0, 64, 75
1, 911065, Control_c, 0, 64, 23
1, 911080, Control_c, 0, 64, 0
1, 911124, Control_c, 0, 64, 32
1, 911139, Control_c, 0, 64, 65
1, 911154, Control_c, 0, 64, 76
1, 911168, Control_c, 0, 64, 92
1, 911183, Control_c, 0, 64, 127
1, 911379, Note_off_c, 0, 77, 54
1, 911393, Note_off_c, 0, 65, 55
1, 911423, Note_on_c, 0, 75, 11
1, 911430, Note_off_c, 0, 43, 64
1, 911465, Note_off_c, 0, 73, 58
1, 911472, Note_off_c, 0, 75, 52
1, 911693, Note_on_c, 0, 63, 76
1, 911700, Note_on_c, 0, 72, 69
1, 911701, Note_on_c, 0, 75, 77
1, 911706, Note_on_c, 0, 44, 75
1, 911714, Note_on_c, 0, 32, 64
1, 911724, Control_c, 0, 64, 94
1, 911739, Control_c, 0, 64, 72
1, 911747, Note_off_c, 0, 31, 57
1, 911752, Note_off_c, 0, 63, 63
1, 911753, Control_c, 0, 64, 44
1, 911768, Control_c, 0, 64, 0
1, 911783, Control_c, 0, 64, 52
1, 911793, Note_off_c, 0, 72, 61
1, 911799, Control_c, 0, 64, 64
1, 911810, Note_off_c, 0, 75, 63
1, 911814, Control_c, 0, 64, 72
1, 911829, Control_c, 0, 64, 84
1, 911843, Control_c, 0, 64, 107
1, 911858, Control_c, 0, 64, 127
1, 911932, Note_on_c, 0, 80, 105
1, 911936, Note_on_c, 0, 68, 93
1, 911961, Note_off_c, 0, 68, 62
1, 911963, Note_on_c, 0, 81, 54
1, 911978, Note_off_c, 0, 80, 62
1, 911984, Note_off_c, 0, 81, 62
1, 912047, Poly_aftertouch_c, 0, 70, 0
1, 912143, Note_off_c, 0, 44, 63
1, 912159, Note_on_c, 0, 75, 104
1, 912159, Note_on_c, 0, 87, 111
1, 912178, Note_off_c, 0, 75, 67
1, 912183, Note_off_c, 0, 32, 61
1, 912194, Note_off_c, 0, 87, 64
1, 912199, Note_on_c, 0, 88, 40
1, 912200, Note_off_c, 0, 88, 127
1, 912473, Control_c, 0, 64, 98
1, 912483, Note_on_c, 0, 92, 103
1, 912485, Note_on_c, 0, 85, 83
1, 912486, Note_on_c, 0, 80, 99
1, 912488, Control_c, 0, 64, 45
1, 912490, Note_on_c, 0, 41, 99
1, 912494, Note_on_c, 0, 37, 85
1, 912497, Note_on_c, 0, 29, 83
1, 912503, Control_c, 0, 64, 0
1, 912516, Note_on_c, 0, 90, 54
1, 912519, Note_off_c, 0, 29, 66
1, 912533, Note_off_c, 0, 41, 65
1, 912533, Control_c, 0, 64, 55
1, 912545, Note_off_c, 0, 90, 53
1, 912547, Note_off_c, 0, 37, 65
1, 912548, Control_c, 0, 64, 88
1, 912562, Control_c, 0, 64, 127
1, 912634, Note_off_c, 0, 80, 62
1, 912645, Note_off_c, 0, 92, 63
1, 912664, Note_off_c, 0, 85, 61
1, 912838, Note_on_c, 0, 89, 101
1, 912843, Note_on_c, 0, 77, 84
1, 912849, Note_on_c, 0, 65, 72
1, 912856, Note_off_c, 0, 89, 66
1, 912861, Note_off_c, 0, 77, 73
1, 912873, Note_off_c, 0, 65, 69
1, 912926, Note_on_c, 0, 61, 83
1, 912933, Note_on_c, 0, 85, 97
1, 912935, Note_on_c, 0, 73, 101
1, 912968, Note_off_c, 0, 85, 68
1, 912974, Note_off_c, 0, 61, 47
1, 912977, Note_off_c, 0, 73, 56
1, 913118, Note_on_c, 0, 56, 87
1, 913146, Note_off_c, 0, 56, 67
1, 913237, Note_on_c, 0, 80, 79
1, 913239, Note_on_c, 0, 68, 82
1, 913260, Note_off_c, 0, 68, 68
1, 913260, Note_off_c, 0, 80, 63
1, 913281, Note_on_c, 0, 78, 21
1, 913323, Note_off_c, 0, 78, 51
1, 913329, Note_on_c, 0, 53, 89
1, 913370, Note_off_c, 0, 53, 64
1, 913436, Note_on_c, 0, 77, 85
1, 913449, Note_on_c, 0, 65, 58
1, 913453, Note_off_c, 0, 77, 73
1, 913472, Note_off_c, 0, 65, 62
1, 913531, Note_on_c, 0, 49, 81
1, 913563, Note_off_c, 0, 49, 65
1, 913610, Note_on_c, 0, 73, 79
1, 913614, Note_on_c, 0, 61, 75
1, 913635, Note_off_c, 0, 73, 66
1, 913644, Note_off_c, 0, 61, 63
1, 913719, Note_on_c, 0, 44, 83
1, 913758, Note_off_c, 0, 44, 62
1, 913820, Note_on_c, 0, 56, 78
1, 913825, Note_on_c, 0, 68, 67
1, 913848, Note_off_c, 0, 56, 66
1, 913853, Note_off_c, 0, 68, 62
1, 913931, Note_on_c, 0, 41, 77
1, 914016, Note_off_c, 0, 41, 54
1, 914041, Note_on_c, 0, 65, 80
1, 914041, Note_on_c, 0, 53, 72
1, 914068, Note_off_c, 0, 53, 67
1, 914092, Note_off_c, 0, 65, 63
1, 914144, Note_on_c, 0, 44, 83
1, 914216, Note_off_c, 0, 44, 62
1, 914228, Note_on_c, 0, 68, 85
1, 914234, Note_on_c, 0, 56, 76
1, 914255, Note_off_c, 0, 56, 72
1, 914267, Note_off_c, 0, 68, 56
1, 914318, Note_on_c, 0, 49, 91
1, 914396, Note_off_c, 0, 49, 61
1, 914415, Note_on_c, 0, 73, 97
1, 914417, Note_on_c, 0, 61, 95
1, 914443, Note_off_c, 0, 61, 62
1, 914452, Note_off_c, 0, 73, 66
1, 914522, Note_on_c, 0, 53, 93
1, 914572, Note_off_c, 0, 53, 68
1, 914595, Note_on_c, 0, 65, 93
1, 914595, Note_on_c, 0, 77, 101
1, 914619, Note_off_c, 0, 65, 65
1, 914625, Note_off_c, 0, 77, 71
1, 914695, Note_on_c, 0, 56, 97
1, 914735, Note_off_c, 0, 56, 71
1, 914805, Note_on_c, 0, 80, 104
1, 914806, Note_on_c, 0, 68, 94
1, 914822, Note_off_c, 0, 68, 73
1, 914839, Note_off_c, 0, 80, 61
1, 915074, Note_on_c, 0, 85, 102
1, 915076, Note_on_c, 0, 73, 97
1, 915078, Note_on_c, 0, 77, 86
1, 915081, Note_on_c, 0, 61, 83
1, 915082, Note_on_c, 0, 68, 88
1, 915105, Control_c, 0, 64, 82
1, 915120, Control_c, 0, 64, 0
1, 915165, Control_c, 0, 64, 44
1, 915180, Control_c, 0, 64, 78
1, 915194, Control_c, 0, 64, 127
1, 915245, Note_off_c, 0, 73, 62
1, 915285, Note_off_c, 0, 85, 60
1, 915286, Note_off_c, 0, 77, 52
1, 915289, Note_off_c, 0, 68, 58
1, 915323, Note_off_c, 0, 61, 59
1, 915721, Note_on_c, 0, 87, 94
1, 915726, Note_on_c, 0, 75, 90
1, 915727, Note_on_c, 0, 60, 84
1, 915727, Note_on_c, 0, 72, 91
1, 915729, Note_on_c, 0, 78, 85
1, 915731, Note_on_c, 0, 80, 78
1, 915734, Note_on_c, 0, 68, 79
1, 915734, Control_c, 0, 64, 83
1, 915749, Control_c, 0, 64, 63
1, 915764, Control_c, 0, 64, 42
1, 915780, Control_c, 0, 64, 61
1, 915794, Control_c, 0, 64, 70
1, 915803, Note_off_c, 0, 72, 64
1, 915809, Note_off_c, 0, 60, 61
1, 915809, Control_c, 0, 64, 83
1, 915824, Control_c, 0, 64, 122
1, 915838, Control_c, 0, 64, 127
1, 915871, Note_on_c, 0, 65, 23
1, 915947, Note_on_c, 0, 73, 100
1, 915947, Note_off_c, 0, 65, 36
1, 915951, Note_on_c, 0, 61, 86
1, 916027, Note_off_c, 0, 73, 63
1, 916028, Note_off_c, 0, 75, 62
1, 916040, Note_off_c, 0, 61, 65
1, 916072, Poly_aftertouch_c, 0, 63, 127
1, 916103, Note_off_c, 0, 78, 60
1, 916104, Note_off_c, 0, 87, 62
1, 916106, Poly_aftertouch_c, 0, 63, 0
1, 916106, Note_off_c, 0, 80, 56
1, 916126, Note_on_c, 0, 72, 96
1, 916137, Note_on_c, 0, 60, 83
1, 916160, Note_off_c, 0, 68, 62
1, 916161, Note_off_c, 0, 60, 65
1, 916162, Note_off_c, 0, 72, 65
1, 916341, Note_on_c, 0, 68, 49
1, 916347, Note_on_c, 0, 89, 101
1, 916348, Note_on_c, 0, 80, 99
1, 916349, Note_on_c, 0, 59, 85
1, 916349, Control_c, 0, 64, 89
1, 916350, Note_on_c, 0, 85, 88
1, 916351, Note_on_c, 0, 77, 95
1, 916352, Note_on_c, 0, 71, 90
1, 916363, Note_on_c, 0, 61, 79
1, 916364, Control_c, 0, 64, 52
1, 916379, Control_c, 0, 64, 0
1, 916408, Control_c, 0, 64, 62
1, 916423, Control_c, 0, 64, 79
1, 916438, Control_c, 0, 64, 127
1, 916557, Note_off_c, 0, 71, 62
1, 916557, Note_off_c, 0, 77, 56
1, 916567, Note_off_c, 0, 59, 54
1, 916592, Note_off_c, 0, 89, 60
1, 916614, Note_off_c, 0, 68, 60
1, 916632, Note_off_c, 0, 80, 57
1, 916634, Note_off_c, 0, 61, 59
1, 916656, Note_off_c, 0, 85, 62
1, 916977, Note_on_c, 0, 70, 94
1, 916977, Note_on_c, 0, 58, 84
1, 916981, Note_on_c, 0, 90, 102
1, 916987, Note_on_c, 0, 78, 94
1, 916989, Note_on_c, 0, 85, 88
1, 916991, Note_on_c, 0, 61, 72
1, 916995, Control_c, 0, 64, 90
1, 916995, Note_on_c, 0, 66, 71
1, 917010, Control_c, 0, 64, 67
1, 917025, Control_c, 0, 64, 55
1, 917039, Control_c, 0, 64, 64
1, 917054, Control_c, 0, 64, 72
1, 917069, Control_c, 0, 64, 87
1, 917077, Note_off_c, 0, 70, 63
1, 917084, Control_c, 0, 64, 127
1, 917088, Note_off_c, 0, 58, 65
1, 917185, Note_on_c, 0, 71, 95
1, 917191, Note_on_c, 0, 59, 84
1, 917236, Note_off_c, 0, 71, 65
1, 917250, Note_off_c, 0, 59, 60
1, 917359, Note_off_c, 0, 78, 62
1, 917368, Note_on_c, 0, 70, 94
1, 917377, Note_on_c, 0, 58, 87
1, 917397, Note_off_c, 0, 85, 61
1, 917399, Note_off_c, 0, 90, 59
1, 917403, Note_off_c, 0, 66, 62
1, 917407, Note_off_c, 0, 70, 68
1, 917412, Note_off_c, 0, 61, 63
1, 917422, Note_off_c, 0, 58, 68
1, 917588, Control_c, 0, 64, 84
1, 917591, Note_on_c, 0, 91, 108
1, 917596, Note_on_c, 0, 79, 95
1, 917597, Note_on_c, 0, 87, 82
1, 917599, Note_on_c, 0, 69, 90
1, 917603, Note_on_c, 0, 85, 91
1, 917603, Control_c, 0, 64, 0
1, 917603, Note_on_c, 0, 57, 82
1, 917609, Note_on_c, 0, 63, 76
1, 917609, Note_on_c, 0, 61, 75
1, 917662, Control_c, 0, 64, 62
1, 917677, Control_c, 0, 64, 76
1, 917692, Control_c, 0, 64, 106
1, 917714, Control_c, 0, 64, 127
1, 917863, Note_off_c, 0, 57, 53
1, 917866, Note_off_c, 0, 79, 54
1, 917882, Note_off_c, 0, 91, 60
1, 917893, Note_off_c, 0, 69, 59
1, 917985, Note_off_c, 0, 61, 57
1, 917987, Note_off_c, 0, 85, 53
1, 917993, Note_off_c, 0, 63, 56
1, 917997, Note_off_c, 0, 87, 52
1, 918218, Note_on_c, 0, 92, 97
1, 918218, Control_c, 0, 64, 116
1, 918220, Note_on_c, 0, 80, 92
1, 918223, Note_on_c, 0, 87, 81
1, 918226, Note_on_c, 0, 85, 83
1, 918226, Note_on_c, 0, 56, 89
1, 918228, Note_on_c, 0, 68, 94
1, 918233, Control_c, 0, 64, 78
1, 918238, Note_on_c, 0, 63, 73
1, 918248, Control_c, 0, 64, 61
1, 918258, Note_on_c, 0, 61, 57
1, 918263, Control_c, 0, 64, 63
1, 918277, Control_c, 0, 64, 70
1, 918292, Control_c, 0, 64, 80
1, 918307, Control_c, 0, 64, 103
1, 918314, Note_off_c, 0, 56, 66
1, 918315, Note_off_c, 0, 68, 63
1, 918322, Control_c, 0, 64, 127
1, 918422, Note_on_c, 0, 57, 84
1, 918424, Note_on_c, 0, 69, 92
1, 918486, Note_off_c, 0, 69, 59
1, 918504, Note_off_c, 0, 57, 58
1, 918557, Note_off_c, 0, 63, 55
1, 918567, Note_off_c, 0, 61, 59
1, 918599, Note_off_c, 0, 80, 62
1, 918605, Note_on_c, 0, 61, 51
1, 918605, Note_on_c, 0, 63, 59
1, 918607, Note_on_c, 0, 68, 92
1, 918620, Note_on_c, 0, 56, 79
1, 918641, Note_off_c, 0, 85, 61
1, 918642, Note_off_c, 0, 92, 60
1, 918646, Note_off_c, 0, 87, 62
1, 918647, Note_off_c, 0, 68, 65
1, 918652, Note_off_c, 0, 56, 66
1, 918698, Note_off_c, 0, 63, 39
1, 918819, Control_c, 0, 64, 98
1, 918834, Control_c, 0, 64, 66
1, 918834, Note_off_c, 0, 61, 0
1, 918834, Note_on_c, 0, 61, 28
1, 918834, Note_on_c, 0, 93, 104
1, 918836, Note_on_c, 0, 63, 62
1, 918836, Note_on_c, 0, 81, 100
1, 918839, Note_on_c, 0, 67, 98
1, 918839, Note_on_c, 0, 87, 91
1, 918843, Note_on_c, 0, 55, 89
1, 918843, Note_on_c, 0, 85, 87
1, 918849, Control_c, 0, 64, 0
1, 918893, Control_c, 0, 64, 62
1, 918908, Control_c, 0, 64, 78
1, 918923, Control_c, 0, 64, 111
1, 918937, Control_c, 0, 64, 127
1, 918974, Note_off_c, 0, 81, 59
1, 919003, Note_off_c, 0, 93, 60
1, 919031, Note_off_c, 0, 55, 52
1, 919034, Note_off_c, 0, 67, 60
1, 919116, Note_off_c, 0, 85, 54
1, 919146, Note_off_c, 0, 87, 58
1, 919150, Note_off_c, 0, 61, 51
1, 919261, Note_off_c, 0, 63, 22
1, 919464, Control_c, 0, 64, 106
1, 919479, Control_c, 0, 64, 63
1, 919488, Note_on_c, 0, 94, 101
1, 919490, Note_on_c, 0, 82, 96
1, 919490, Note_on_c, 0, 87, 87
1, 919492, Note_on_c, 0, 85, 90
1, 919493, Note_on_c, 0, 66, 99
1, 919493, Note_on_c, 0, 54, 84
1, 919494, Control_c, 0, 64, 0
1, 919496, Note_on_c, 0, 63, 89
1, 919504, Note_on_c, 0, 61, 77
1, 919523, Control_c, 0, 64, 61
1, 919536, Note_off_c, 0, 66, 66
1, 919538, Control_c, 0, 64, 78
1, 919542, Note_off_c, 0, 54, 66
1, 919553, Control_c, 0, 64, 127
1, 919568, Note_off_c, 0, 63, 64
1, 919575, Note_off_c, 0, 61, 63
1, 920154, Control_c, 0, 64, 82
1, 920161, Note_on_c, 0, 44, 99
1, 920163, Note_on_c, 0, 32, 91
1, 920169, Control_c, 0, 64, 0
1, 920213, Control_c, 0, 64, 51
1, 920228, Control_c, 0, 64, 78
1, 920243, Control_c, 0, 64, 127
1, 920276, Note_off_c, 0, 32, 63
1, 920306, Note_off_c, 0, 44, 62
1, 920414, Note_off_c, 0, 94, 52
1, 920560, Note_off_c, 0, 82, 51
1, 920575, Note_off_c, 0, 85, 58
1, 920624, Note_off_c, 0, 87, 54
1, 920721, Note_on_c, 0, 51, 70
1, 920748, Note_on_c, 0, 54, 69
1, 920772, Note_on_c, 0, 56, 70
1, 920789, Note_off_c, 0, 51, 65
1, 920797, Note_on_c, 0, 60, 67
1, 920834, Note_on_c, 0, 92, 103
1, 920837, Note_on_c, 0, 80, 97
1, 920840, Note_on_c, 0, 84, 85
1, 920842, Note_on_c, 0, 87, 89
1, 920850, Note_on_c, 0, 66, 104
1, 921045, Note_off_c, 0, 56, 62
1, 921046, Note_off_c, 0, 60, 62
1, 921046, Note_off_c, 0, 66, 64
1, 921048, Note_off_c, 0, 54, 64
1, 921058, Note_off_c, 0, 84, 52
1, 921081, Note_off_c, 0, 80, 59
1, 921084, Note_off_c, 0, 92, 64
1, 921094, Note_off_c, 0, 87, 57
1, 921621, Control_c, 0, 64, 114
1, 921636, Control_c, 0, 64, 84
1, 921651, Control_c, 0, 64, 66
1, 921666, Control_c, 0, 64, 0
1, 921725, Control_c, 0, 64, 21
1, 921740, Control_c, 0, 64, 32
1, 921754, Control_c, 0, 64, 36
1, 921769, Control_c, 0, 64, 38
1, 921785, Control_c, 0, 64, 40
1, 921800, Control_c, 0, 64, 43
1, 921815, Control_c, 0, 64, 44
1, 921829, Control_c, 0, 64, 45
1, 921844, Control_c, 0, 64, 46
1, 921859, Control_c, 0, 64, 47
1, 921874, Control_c, 0, 64, 48
1, 921889, Control_c, 0, 64, 49
1, 921903, Control_c, 0, 64, 51
1, 921918, Control_c, 0, 64, 52
1, 921933, Control_c, 0, 64, 54
1, 921947, Control_c, 0, 64, 56
1, 921962, Control_c, 0, 64, 58
1, 921977, Control_c, 0, 64, 60
1, 921992, Control_c, 0, 64, 62
1, 922007, Control_c, 0, 64, 63
1, 922021, Control_c, 0, 64, 64
1, 922036, Control_c, 0, 64, 65
1, 922051, Control_c, 0, 64, 66
1, 922066, Control_c, 0, 64, 68
1, 922081, Control_c, 0, 64, 70
1, 922095, Control_c, 0, 64, 74
1, 922110, Control_c, 0, 64, 79
1, 922113, Note_on_c, 0, 56, 65
1, 922118, Note_on_c, 0, 44, 52
1, 922125, Control_c, 0, 64, 87
1, 922140, Control_c, 0, 64, 101
1, 922155, Control_c, 0, 64, 127
1, 922202, Note_off_c, 0, 56, 64
1, 922207, Note_on_c, 0, 60, 69
1, 922209, Note_on_c, 0, 48, 65
1, 922235, Note_off_c, 0, 44, 55
1, 922253, Note_off_c, 0, 48, 63
1, 922279, Note_off_c, 0, 60, 64
1, 922280, Note_on_c, 0, 51, 70
1, 922283, Note_on_c, 0, 63, 84
1, 922302, Note_off_c, 0, 63, 70
1, 922304, Note_off_c, 0, 51, 67
1, 922364, Note_on_c, 0, 56, 82
1, 922370, Note_on_c, 0, 68, 85
1, 922435, Note_on_c, 0, 72, 91
1, 922444, Note_on_c, 0, 60, 76
1, 922449, Note_off_c, 0, 68, 57
1, 922456, Note_off_c, 0, 56, 62
1, 922493, Note_on_c, 0, 75, 79
1, 922511, Note_off_c, 0, 72, 65
1, 922514, Note_on_c, 0, 63, 80
1, 922522, Note_off_c, 0, 60, 63
1, 922533, Note_off_c, 0, 63, 71
1, 922540, Note_off_c, 0, 75, 63
1, 922709, Note_on_c, 0, 80, 95
1, 922711, Control_c, 0, 64, 82
1, 922713, Note_on_c, 0, 68, 91
1, 922718, Note_on_c, 0, 73, 82
1, 922719, Note_on_c, 0, 77, 78
1, 922721, Note_on_c, 0, 49, 94
1, 922726, Control_c, 0, 64, 38
1, 922728, Note_on_c, 0, 37, 78
1, 922741, Control_c, 0, 64, 0
1, 922747, Note_off_c, 0, 49, 66
1, 922751, Note_off_c, 0, 37, 67
1, 922756, Control_c, 0, 64, 55
1, 922770, Control_c, 0, 64, 70
1, 922785, Control_c, 0, 64, 88
1, 922800, Control_c, 0, 64, 127
1, 922874, Note_off_c, 0, 68, 55
1, 922890, Note_off_c, 0, 80, 59
1, 922907, Note_off_c, 0, 77, 59
1, 922919, Note_off_c, 0, 73, 60
1, 922934, Note_on_c, 0, 53, 78
1, 922963, Note_on_c, 0, 56, 72
1, 922997, Note_off_c, 0, 53, 64
1, 923016, Note_off_c, 0, 56, 63
1, 923023, Note_on_c, 0, 66, 80
1, 923026, Note_on_c, 0, 78, 79
1, 923044, Note_off_c, 0, 66, 70
1, 923045, Note_off_c, 0, 78, 72
1, 923088, Note_on_c, 0, 61, 86
1, 923094, Note_on_c, 0, 56, 83
1, 923097, Note_on_c, 0, 77, 94
1, 923100, Note_on_c, 0, 65, 91
1, 923109, Note_off_c, 0, 61, 70
1, 923116, Note_off_c, 0, 56, 71
1, 923125, Note_off_c, 0, 65, 64
1, 923142, Note_off_c, 0, 77, 65
1, 923205, Poly_aftertouch_c, 0, 76, 0
1, 923253, Control_c, 0, 64, 93
1, 923267, Control_c, 0, 64, 74
1, 923272, Note_on_c, 0, 41, 95
1, 923282, Control_c, 0, 64, 70
1, 923297, Control_c, 0, 64, 82
1, 923309, Note_off_c, 0, 41, 65
1, 923312, Control_c, 0, 64, 110
1, 923326, Control_c, 0, 64, 127
1, 923347, Note_on_c, 0, 73, 78
1, 923348, Note_on_c, 0, 61, 78
1, 923370, Note_off_c, 0, 73, 69
1, 923373, Note_off_c, 0, 61, 67
1, 923409, Note_on_c, 0, 60, 95
1, 923411, Note_on_c, 0, 72, 98
1, 923415, Note_on_c, 0, 49, 78
1, 923416, Control_c, 0, 64, 87
1, 923431, Note_off_c, 0, 60, 70
1, 923431, Control_c, 0, 64, 0
1, 923440, Note_off_c, 0, 49, 59
1, 923440, Note_off_c, 0, 72, 69
1, 923445, Note_on_c, 0, 53, 42
1, 923446, Note_off_c, 0, 53, 127
1, 923579, Control_c, 0, 64, 51
1, 923593, Control_c, 0, 64, 60
1, 923608, Control_c, 0, 64, 51
1, 923615, Note_on_c, 0, 53, 36
1, 923618, Note_on_c, 0, 56, 83
1, 923623, Control_c, 0, 64, 0
1, 923628, Note_on_c, 0, 61, 98
1, 923628, Note_on_c, 0, 73, 104
1, 923639, Note_off_c, 0, 56, 73
1, 923648, Note_off_c, 0, 61, 68
1, 923651, Note_off_c, 0, 53, 67
1, 923651, Note_off_c, 0, 73, 63
1, 923923, Note_on_c, 0, 68, 91
1, 923925, Note_on_c, 0, 56, 85
1, 923926, Note_on_c, 0, 51, 75
1, 923927, Note_on_c, 0, 44, 74
1, 923930, Note_on_c, 0, 60, 74
1, 923972, Control_c, 0, 64, 83
1, 923987, Control_c, 0, 64, 127
1, 924207, Note_off_c, 0, 56, 57
1, 924293, Note_off_c, 0, 60, 49
1, 924326, Note_off_c, 0, 51, 45
1, 924453, Note_off_c, 0, 44, 37
1, 924604, Note_off_c, 0, 68, 35
1, 924737, Note_on_c, 0, 56, 73
1, 924741, Note_on_c, 0, 44, 70
1, 924750, Control_c, 0, 64, 104
1, 924765, Control_c, 0, 64, 81
1, 924780, Control_c, 0, 64, 67
1, 924795, Control_c, 0, 64, 66
1, 924810, Control_c, 0, 64, 73
1, 924817, Note_on_c, 0, 47, 72
1, 924817, Note_on_c, 0, 59, 78
1, 924822, Note_off_c, 0, 56, 63
1, 924823, Note_off_c, 0, 44, 62
1, 924825, Control_c, 0, 64, 83
1, 924840, Control_c, 0, 64, 108
1, 924854, Control_c, 0, 64, 127
1, 924882, Note_off_c, 0, 47, 65
1, 924900, Note_on_c, 0, 51, 69
1, 924900, Note_off_c, 0, 59, 62
1, 924904, Note_on_c, 0, 63, 88
1, 924924, Note_off_c, 0, 63, 70
1, 924927, Note_off_c, 0, 51, 67
1, 924992, Note_on_c, 0, 56, 80
1, 925003, Note_on_c, 0, 68, 86
1, 925063, Note_off_c, 0, 56, 62
1, 925071, Note_off_c, 0, 68, 58
1, 925079, Note_on_c, 0, 59, 57
1, 925079, Note_on_c, 0, 71, 78
1, 925081, Note_on_c, 0, 72, 70
1, 925087, Note_on_c, 0, 60, 60
1, 925121, Note_off_c, 0, 60, 60
1, 925127, Note_on_c, 0, 63, 80
1, 925133, Note_off_c, 0, 59, 60
1, 925134, Note_off_c, 0, 71, 64
1, 925136, Note_off_c, 0, 72, 65
1, 925145, Note_off_c, 0, 63, 72
1, 925146, Note_on_c, 0, 75, 53
1, 925168, Note_on_c, 0, 76, 42
1, 925170, Note_off_c, 0, 75, 60
1, 925203, Note_off_c, 0, 76, 57
1, 925261, Note_on_c, 0, 75, 41
1, 925291, Note_off_c, 0, 75, 56
1, 925291, Control_c, 0, 64, 94
1, 925306, Control_c, 0, 64, 58
1, 925317, Note_on_c, 0, 82, 97
1, 925319, Note_on_c, 0, 70, 92
1, 925321, Control_c, 0, 64, 0
1, 925326, Note_on_c, 0, 51, 89
1, 925328, Note_on_c, 0, 78, 74
1, 925333, Note_on_c, 0, 39, 78
1, 925333, Note_on_c, 0, 75, 69
1, 925350, Note_off_c, 0, 51, 70
1, 925351, Control_c, 0, 64, 63
1, 925351, Note_on_c, 0, 80, 42
1, 925352, Note_off_c, 0, 80, 127
1, 925360, Note_off_c, 0, 39, 64
1, 925365, Control_c, 0, 64, 84
1, 925381, Control_c, 0, 64, 127
1, 925476, Note_off_c, 0, 70, 58
1, 925480, Note_off_c, 0, 82, 61
1, 925503, Note_off_c, 0, 75, 60
1, 925504, Note_off_c, 0, 78, 60
1, 925514, Note_on_c, 0, 54, 65
1, 925526, Note_on_c, 0, 58, 66
1, 925538, Note_off_c, 0, 54, 60
1, 925555, Note_off_c, 0, 58, 67
1, 925585, Note_on_c, 0, 53, 3
1, 925599, Note_on_c, 0, 80, 80
1, 925600, Note_on_c, 0, 68, 88
1, 925604, Note_off_c, 0, 53, 0
1, 925616, Note_off_c, 0, 80, 69
1, 925617, Note_off_c, 0, 68, 73
1, 925624, Note_on_c, 0, 78, 47
1, 925625, Note_off_c, 0, 78, 127
1, 925625, Poly_aftertouch_c, 0, 53, 0
1, 925661, Note_on_c, 0, 63, 81
1, 925663, Note_on_c, 0, 58, 79
1, 925668, Note_on_c, 0, 78, 84
1, 925673, Note_on_c, 0, 66, 94
1, 925680, Note_off_c, 0, 63, 70
1, 925681, Note_off_c, 0, 58, 71
1, 925699, Note_off_c, 0, 66, 59
1, 925714, Note_off_c, 0, 78, 65
1, 925795, Control_c, 0, 64, 78
1, 925810, Control_c, 0, 64, 0
1, 925843, Note_on_c, 0, 42, 93
1, 925855, Control_c, 0, 64, 60
1, 925869, Control_c, 0, 64, 77
1, 925876, Note_off_c, 0, 42, 63
1, 925884, Control_c, 0, 64, 127
1, 925914, Note_on_c, 0, 63, 86
1, 925914, Note_on_c, 0, 75, 81
1, 925932, Note_off_c, 0, 75, 72
1, 925935, Note_off_c, 0, 63, 70
1, 925995, Control_c, 0, 64, 80
1, 925999, Note_on_c, 0, 74, 102
1, 926000, Note_on_c, 0, 62, 93
1, 926008, Note_on_c, 0, 51, 77
1, 926010, Control_c, 0, 64, 0
1, 926018, Note_off_c, 0, 62, 71
1, 926030, Note_off_c, 0, 74, 72
1, 926031, Note_off_c, 0, 51, 68
1, 926213, Note_on_c, 0, 58, 77
1, 926215, Note_on_c, 0, 54, 78
1, 926215, Note_on_c, 0, 75, 94
1, 926216, Note_on_c, 0, 63, 97
1, 926234, Note_off_c, 0, 58, 69
1, 926236, Note_off_c, 0, 75, 63
1, 926237, Note_off_c, 0, 63, 67
1, 926242, Note_off_c, 0, 54, 69
1, 926513, Note_on_c, 0, 70, 89
1, 926519, Note_on_c, 0, 58, 83
1, 926519, Note_on_c, 0, 62, 69
1, 926525, Note_on_c, 0, 53, 81
1, 926526, Note_on_c, 0, 46, 78
1, 926574, Control_c, 0, 64, 89
1, 926589, Control_c, 0, 64, 127
1, 926816, Note_off_c, 0, 58, 48
1, 926862, Note_off_c, 0, 70, 60
1, 926904, Note_off_c, 0, 62, 53
1, 926969, Note_off_c, 0, 53, 54
1, 927210, Note_off_c, 0, 46, 23
1, 927449, Control_c, 0, 64, 89
1, 927453, Note_on_c, 0, 46, 66
1, 927455, Note_on_c, 0, 58, 77
1, 927464, Control_c, 0, 64, 69
1, 927479, Control_c, 0, 64, 65
1, 927493, Control_c, 0, 64, 71
1, 927508, Control_c, 0, 64, 79
1, 927523, Control_c, 0, 64, 94
1, 927534, Note_on_c, 0, 61, 82
1, 927538, Note_on_c, 0, 49, 76
1, 927538, Control_c, 0, 64, 127
1, 927539, Note_off_c, 0, 58, 63
1, 927541, Note_off_c, 0, 46, 61
1, 927586, Note_off_c, 0, 61, 62
1, 927592, Note_off_c, 0, 49, 63
1, 927619, Note_on_c, 0, 53, 72
1, 927621, Note_on_c, 0, 65, 85
1, 927649, Note_off_c, 0, 53, 67
1, 927692, Note_on_c, 0, 58, 80
1, 927695, Note_on_c, 0, 70, 90
1, 927702, Note_off_c, 0, 65, 61
1, 927761, Note_off_c, 0, 58, 62
1, 927765, Note_on_c, 0, 61, 87
1, 927770, Note_on_c, 0, 73, 92
1, 927784, Note_off_c, 0, 70, 64
1, 927825, Note_on_c, 0, 65, 91
1, 927832, Note_on_c, 0, 77, 87
1, 927838, Note_off_c, 0, 73, 64
1, 927846, Note_off_c, 0, 61, 59
1, 927846, Note_off_c, 0, 65, 71
1, 927862, Note_off_c, 0, 77, 61
1, 927920, Poly_aftertouch_c, 0, 75, 0
1, 928070, Control_c, 0, 64, 113
1, 928085, Control_c, 0, 64, 68
1, 928100, Control_c, 0, 64, 0
1, 928105, Note_on_c, 0, 85, 102
1, 928109, Note_on_c, 0, 73, 105
1, 928111, Note_on_c, 0, 79, 94
1, 928112, Note_on_c, 0, 40, 101
1, 928129, Control_c, 0, 64, 61
1, 928141, Note_off_c, 0, 40, 66
1, 928144, Control_c, 0, 64, 86
1, 928145, Note_on_c, 0, 28, 45
1, 928159, Control_c, 0, 64, 127
1, 928199, Note_off_c, 0, 28, 46
1, 928236, Poly_aftertouch_c, 0, 34, 0
1, 928325, Note_off_c, 0, 79, 52
1, 928328, Note_off_c, 0, 73, 60
1, 928348, Note_off_c, 0, 85, 60
1, 928391, Note_on_c, 0, 52, 81
1, 928399, Note_on_c, 0, 61, 84
1, 928405, Note_on_c, 0, 58, 76
1, 928415, Note_off_c, 0, 52, 67
1, 928444, Note_off_c, 0, 61, 61
1, 928445, Note_off_c, 0, 58, 50
1, 928460, Note_on_c, 0, 84, 96
1, 928467, Note_on_c, 0, 72, 82
1, 928478, Note_off_c, 0, 84, 70
1, 928484, Note_off_c, 0, 72, 73
1, 928522, Control_c, 0, 64, 101
1, 928529, Note_on_c, 0, 67, 90
1, 928537, Note_on_c, 0, 61, 83
1, 928537, Control_c, 0, 64, 66
1, 928549, Note_off_c, 0, 67, 70
1, 928552, Note_on_c, 0, 82, 103
1, 928552, Control_c, 0, 64, 0
1, 928556, Note_off_c, 0, 61, 70
1, 928557, Note_on_c, 0, 70, 91
1, 928558, Note_on_c, 0, 58, 54
1, 928583, Note_off_c, 0, 70, 62
1, 928585, Note_off_c, 0, 58, 59
1, 928585, Note_off_c, 0, 82, 67
1, 928743, Note_on_c, 0, 41, 101
1, 928751, Note_on_c, 0, 29, 81
1, 928761, Control_c, 0, 64, 67
1, 928766, Note_off_c, 0, 41, 70
1, 928776, Control_c, 0, 64, 108
1, 928776, Note_off_c, 0, 29, 63
1, 928790, Control_c, 0, 64, 127
1, 928816, Poly_aftertouch_c, 0, 40, 0
1, 928817, Note_on_c, 0, 80, 95
1, 928820, Note_on_c, 0, 68, 85
1, 928834, Note_off_c, 0, 80, 70
1, 928840, Note_off_c, 0, 68, 71
1, 928874, Poly_aftertouch_c, 0, 40, 0
1, 928879, Control_c, 0, 64, 76
1, 928894, Control_c, 0, 64, 0
1, 928895, Note_on_c, 0, 79, 101
1, 928895, Note_on_c, 0, 53, 77
1, 928896, Note_on_c, 0, 67, 98
1, 928903, Note_on_c, 0, 56, 71
1, 928903, Note_on_c, 0, 61, 77
1, 928915, Note_off_c, 0, 67, 67
1, 928922, Note_off_c, 0, 79, 64
1, 928922, Note_off_c, 0, 53, 69
1, 928926, Note_off_c, 0, 61, 66
1, 928927, Note_off_c, 0, 56, 68
1, 929005, Control_c, 0, 64, 29
1, 929020, Control_c, 0, 64, 60
1, 929035, Control_c, 0, 64, 65
1, 929050, Control_c, 0, 64, 66
1, 929064, Control_c, 0, 64, 60
1, 929079, Control_c, 0, 64, 0
1, 929091, Note_on_c, 0, 65, 84
1, 929100, Note_on_c, 0, 77, 93
1, 929101, Note_on_c, 0, 56, 74
1, 929103, Note_on_c, 0, 61, 65
1, 929123, Note_off_c, 0, 61, 64
1, 929130, Note_off_c, 0, 56, 68
1, 929133, Note_off_c, 0, 77, 63
1, 929142, Note_off_c, 0, 65, 61
1, 929273, Note_on_c, 0, 43, 93
1, 929274, Note_on_c, 0, 64, 89
1, 929274, Note_on_c, 0, 76, 92
1, 929277, Note_on_c, 0, 31, 88
1, 929277, Note_on_c, 0, 73, 64
1, 929287, Note_on_c, 0, 70, 77
1, 929297, Note_off_c, 0, 43, 70
1, 929302, Note_off_c, 0, 31, 65
1, 929302, Note_off_c, 0, 64, 67
1, 929308, Note_off_c, 0, 70, 70
1, 929309, Note_off_c, 0, 73, 65
1, 929314, Note_off_c, 0, 76, 64
1, 929435, Control_c, 0, 64, 17
1, 929450, Control_c, 0, 64, 29
1, 929465, Control_c, 0, 64, 38
1, 929476, Note_on_c, 0, 55, 62
1, 929479, Note_on_c, 0, 77, 93
1, 929479, Note_on_c, 0, 61, 74
1, 929479, Control_c, 0, 64, 45
1, 929481, Note_on_c, 0, 65, 88
1, 929490, Note_on_c, 0, 58, 63
1, 929494, Control_c, 0, 64, 47
1, 929496, Note_off_c, 0, 55, 63
1, 929500, Note_off_c, 0, 65, 72
1, 929509, Note_off_c, 0, 61, 65
1, 929515, Note_off_c, 0, 77, 64
1, 929516, Note_off_c, 0, 58, 66
1, 929554, Control_c, 0, 64, 52
1, 929569, Control_c, 0, 64, 58
1, 929583, Control_c, 0, 64, 63
1, 929598, Control_c, 0, 64, 65
1, 929613, Control_c, 0, 64, 67
1, 929628, Control_c, 0, 64, 69
1, 929643, Control_c, 0, 64, 69
1, 929658, Control_c, 0, 64, 64
1, 929659, Note_on_c, 0, 64, 74
1, 929661, Note_on_c, 0, 79, 97
1, 929664, Note_on_c, 0, 61, 70
1, 929664, Note_on_c, 0, 67, 87
1, 929670, Note_on_c, 0, 58, 63
1, 929673, Control_c, 0, 64, 0
1, 929676, Note_off_c, 0, 64, 70
1, 929692, Note_off_c, 0, 61, 67
1, 929700, Note_off_c, 0, 67, 61
1, 929700, Note_off_c, 0, 79, 62
1, 929703, Note_off_c, 0, 58, 67
1, 929872, Note_on_c, 0, 32, 81
1, 929873, Note_on_c, 0, 44, 82
1, 929874, Note_on_c, 0, 72, 96
1, 929879, Note_on_c, 0, 60, 87
1, 929880, Note_on_c, 0, 65, 84
1, 929895, Note_off_c, 0, 32, 66
1, 929895, Note_off_c, 0, 44, 66
1, 929902, Control_c, 0, 64, 39
1, 929917, Control_c, 0, 64, 88
1, 929932, Control_c, 0, 64, 127
1, 930060, Note_on_c, 0, 53, 79
1, 930080, Note_on_c, 0, 56, 66
1, 930085, Note_off_c, 0, 60, 63
1, 930099, Note_off_c, 0, 53, 65
1, 930110, Note_off_c, 0, 56, 64
1, 930110, Note_off_c, 0, 65, 62
1, 930116, Note_off_c, 0, 72, 55
1, 930236, Note_on_c, 0, 56, 85
1, 930237, Note_on_c, 0, 60, 79
1, 930255, Note_off_c, 0, 60, 72
1, 930271, Note_off_c, 0, 56, 64
1, 930367, Note_on_c, 0, 72, 73
1, 930399, Note_on_c, 0, 74, 73
1, 930421, Note_off_c, 0, 72, 62
1, 930439, Note_on_c, 0, 45, 86
1, 930442, Note_on_c, 0, 33, 80
1, 930448, Note_on_c, 0, 76, 70
1, 930448, Note_on_c, 0, 77, 92
1, 930457, Note_off_c, 0, 74, 63
1, 930457, Note_on_c, 0, 65, 73
1, 930458, Control_c, 0, 64, 92
1, 930460, Note_off_c, 0, 45, 68
1, 930472, Note_off_c, 0, 33, 61
1, 930473, Control_c, 0, 64, 59
1, 930474, Note_off_c, 0, 76, 66
1, 930479, Note_off_c, 0, 65, 65
1, 930485, Note_off_c, 0, 77, 66
1, 930488, Control_c, 0, 64, 0
1, 930606, Control_c, 0, 64, 30
1, 930621, Control_c, 0, 64, 43
1, 930636, Control_c, 0, 64, 53
1, 930639, Note_on_c, 0, 53, 75
1, 930651, Control_c, 0, 64, 60
1, 930654, Note_on_c, 0, 60, 66
1, 930665, Control_c, 0, 64, 64
1, 930674, Note_off_c, 0, 53, 65
1, 930680, Control_c, 0, 64, 66
1, 930695, Note_off_c, 0, 60, 57
1, 930695, Control_c, 0, 64, 69
1, 930710, Control_c, 0, 64, 71
1, 930720, Note_on_c, 0, 76, 78
1, 930722, Note_on_c, 0, 64, 70
1, 930740, Control_c, 0, 64, 67
1, 930740, Note_off_c, 0, 76, 70
1, 930740, Note_off_c, 0, 64, 67
1, 930755, Control_c, 0, 64, 0
1, 930788, Note_on_c, 0, 63, 88
1, 930796, Note_on_c, 0, 77, 97
1, 930799, Note_on_c, 0, 65, 81
1, 930801, Note_on_c, 0, 60, 66
1, 930808, Note_off_c, 0, 63, 70
1, 930815, Note_off_c, 0, 65, 70
1, 930824, Note_off_c, 0, 77, 65
1, 930828, Note_off_c, 0, 60, 68
1, 930984, Note_on_c, 0, 46, 89
1, 930993, Note_on_c, 0, 34, 77
1, 931006, Control_c, 0, 64, 72
1, 931007, Note_off_c, 0, 46, 68
1, 931021, Control_c, 0, 64, 127
1, 931023, Note_off_c, 0, 34, 63
1, 931062, Note_on_c, 0, 68, 80
1, 931062, Note_on_c, 0, 80, 81
1, 931080, Note_off_c, 0, 80, 71
1, 931081, Note_off_c, 0, 68, 71
1, 931125, Control_c, 0, 64, 88
1, 931133, Note_on_c, 0, 53, 87
1, 931136, Note_on_c, 0, 77, 96
1, 931139, Note_on_c, 0, 65, 90
1, 931139, Control_c, 0, 64, 48
1, 931145, Note_on_c, 0, 61, 60
1, 931146, Note_off_c, 0, 61, 127
1, 931154, Control_c, 0, 64, 0
1, 931156, Note_off_c, 0, 53, 72
1, 931157, Note_off_c, 0, 65, 74
1, 931166, Note_off_c, 0, 77, 64
1, 931266, Control_c, 0, 64, 40
1, 931281, Control_c, 0, 64, 59
1, 931295, Control_c, 0, 64, 64
1, 931310, Control_c, 0, 64, 66
1, 931325, Control_c, 0, 64, 66
1, 931339, Control_c, 0, 64, 58
1, 931354, Control_c, 0, 64, 0
1, 931360, Note_on_c, 0, 78, 95
1, 931362, Note_on_c, 0, 65, 65
1, 931363, Note_on_c, 0, 61, 75
1, 931365, Note_on_c, 0, 66, 74
1, 931366, Note_on_c, 0, 58, 64
1, 931382, Note_off_c, 0, 65, 63
1, 931384, Note_off_c, 0, 78, 60
1, 931384, Note_off_c, 0, 61, 67
1, 931389, Note_off_c, 0, 66, 68
1, 931391, Note_off_c, 0, 58, 66
1, 931544, Note_on_c, 0, 48, 95
1, 931551, Note_on_c, 0, 36, 78
1, 931563, Control_c, 0, 64, 66
1, 931566, Note_off_c, 0, 48, 71
1, 931578, Control_c, 0, 64, 95
1, 931582, Note_off_c, 0, 36, 62
1, 931587, Note_on_c, 0, 38, 31
1, 931593, Control_c, 0, 64, 127
1, 931618, Note_on_c, 0, 82, 95
1, 931622, Note_on_c, 0, 70, 89
1, 931634, Note_off_c, 0, 82, 71
1, 931637, Note_off_c, 0, 38, 44
1, 931640, Note_off_c, 0, 70, 70
1, 931696, Control_c, 0, 64, 104
1, 931699, Note_on_c, 0, 80, 93
1, 931700, Note_on_c, 0, 55, 80
1, 931704, Note_on_c, 0, 61, 77
1, 931704, Note_on_c, 0, 68, 91
1, 931711, Control_c, 0, 64, 70
1, 931724, Note_on_c, 0, 53, 41
1, 931725, Note_off_c, 0, 53, 127
1, 931725, Note_off_c, 0, 55, 67
1, 931726, Control_c, 0, 64, 0
1, 931726, Note_off_c, 0, 68, 67
1, 931727, Note_off_c, 0, 61, 68
1, 931741, Note_off_c, 0, 80, 66
1, 931845, Control_c, 0, 64, 44
1, 931860, Control_c, 0, 64, 55
1, 931875, Control_c, 0, 64, 56
1, 931882, Note_on_c, 0, 63, 70
1, 931882, Note_on_c, 0, 65, 68
1, 931897, Note_on_c, 0, 81, 100
1, 931901, Note_off_c, 0, 65, 67
1, 931903, Note_on_c, 0, 69, 78
1, 931904, Control_c, 0, 64, 57
1, 931912, Note_on_c, 0, 60, 45
1, 931912, Note_off_c, 0, 63, 66
1, 931919, Control_c, 0, 64, 60
1, 931923, Note_off_c, 0, 69, 70
1, 931928, Note_off_c, 0, 81, 64
1, 931941, Control_c, 0, 64, 63
1, 931948, Note_off_c, 0, 60, 57
1, 931956, Control_c, 0, 64, 65
1, 931971, Control_c, 0, 64, 68
1, 931986, Control_c, 0, 64, 70
1, 932001, Control_c, 0, 64, 72
1, 932016, Control_c, 0, 64, 73
1, 932031, Control_c, 0, 64, 70
1, 932045, Control_c, 0, 64, 53
1, 932060, Control_c, 0, 64, 0
1, 932075, Note_on_c, 0, 84, 96
1, 932078, Note_on_c, 0, 49, 85
1, 932079, Note_on_c, 0, 37, 81
1, 932085, Note_on_c, 0, 72, 83
1, 932099, Note_off_c, 0, 49, 68
1, 932102, Note_off_c, 0, 37, 67
1, 932102, Note_off_c, 0, 84, 69
1, 932103, Note_off_c, 0, 72, 72
1, 932267, Control_c, 0, 64, 71
1, 932276, Note_on_c, 0, 53, 75
1, 932280, Note_on_c, 0, 70, 97
1, 932281, Note_on_c, 0, 82, 87
1, 932281, Control_c, 0, 64, 126
1, 932286, Note_on_c, 0, 61, 70
1, 932289, Note_on_c, 0, 58, 69
1, 932296, Control_c, 0, 64, 127
1, 932302, Note_off_c, 0, 82, 68
1, 932306, Note_off_c, 0, 53, 67
1, 932311, Note_off_c, 0, 61, 65
1, 932317, Note_off_c, 0, 70, 66
1, 932319, Note_off_c, 0, 58, 64
1, 932323, Note_on_c, 0, 80, 28
1, 932357, Note_off_c, 0, 80, 56
1, 932427, Note_on_c, 0, 65, 80
1, 932432, Note_on_c, 0, 61, 64
1, 932436, Note_on_c, 0, 58, 59
1, 932447, Note_off_c, 0, 65, 71
1, 932449, Note_on_c, 0, 71, 76
1, 932459, Note_off_c, 0, 58, 66
1, 932463, Note_off_c, 0, 61, 64
1, 932479, Note_off_c, 0, 71, 62
1, 932502, Note_on_c, 0, 74, 53
1, 932517, Note_on_c, 0, 77, 71
1, 932526, Note_on_c, 0, 80, 75
1, 932526, Note_off_c, 0, 74, 60
1, 932535, Note_off_c, 0, 77, 69
1, 932540, Note_off_c, 0, 80, 69
1, 932588, Note_on_c, 0, 83, 81
1, 932630, Note_on_c, 0, 86, 79
1, 932640, Note_off_c, 0, 83, 59
1, 932668, Control_c, 0, 64, 80
1, 932672, Note_on_c, 0, 92, 94
1, 932687, Note_on_c, 0, 90, 76
1, 932690, Control_c, 0, 64, 27
1, 932691, Note_on_c, 0, 50, 99
1, 932695, Note_on_c, 0, 95, 96
1, 932704, Control_c, 0, 64, 66
1, 932708, Note_off_c, 0, 86, 63
1, 932712, Note_off_c, 0, 50, 72
1, 932713, Note_off_c, 0, 90, 64
1, 932719, Note_on_c, 0, 38, 42
1, 932720, Note_off_c, 0, 38, 127
1, 932720, Control_c, 0, 64, 83
1, 932734, Control_c, 0, 64, 127
1, 932756, Note_off_c, 0, 92, 66
1, 932757, Poly_aftertouch_c, 0, 38, 0
1, 932792, Note_off_c, 0, 95, 67
1, 932937, Note_on_c, 0, 62, 80
1, 932942, Note_on_c, 0, 53, 69
1, 932944, Note_on_c, 0, 59, 71
1, 932956, Note_on_c, 0, 56, 56
1, 932965, Note_off_c, 0, 62, 63
1, 932970, Note_off_c, 0, 59, 67
1, 932975, Note_off_c, 0, 53, 66
1, 932980, Note_off_c, 0, 56, 61
1, 933032, Note_on_c, 0, 94, 96
1, 933033, Note_on_c, 0, 82, 96
1, 933047, Note_off_c, 0, 94, 71
1, 933050, Note_off_c, 0, 82, 71
1, 933104, Note_on_c, 0, 62, 73
1, 933104, Control_c, 0, 64, 81
1, 933107, Note_on_c, 0, 67, 63
1, 933108, Note_on_c, 0, 65, 67
1, 933112, Note_on_c, 0, 92, 92
1, 933119, Note_on_c, 0, 80, 89
1, 933119, Control_c, 0, 64, 0
1, 933124, Note_on_c, 0, 59, 49
1, 933126, Note_off_c, 0, 65, 65
1, 933128, Note_off_c, 0, 62, 69
1, 933128, Note_off_c, 0, 67, 39
1, 933136, Note_on_c, 0, 58, 34
1, 933138, Note_off_c, 0, 80, 67
1, 933148, Note_off_c, 0, 59, 56
1, 933149, Note_off_c, 0, 92, 68
1, 933168, Note_off_c, 0, 58, 48
1, 933290, Note_on_c, 0, 51, 94
1, 933294, Note_on_c, 0, 39, 87
1, 933298, Control_c, 0, 64, 85
1, 933310, Note_off_c, 0, 51, 73
1, 933312, Control_c, 0, 64, 127
1, 933318, Note_off_c, 0, 39, 66
1, 933369, Note_on_c, 0, 90, 90
1, 933372, Note_on_c, 0, 78, 81
1, 933387, Note_off_c, 0, 90, 72
1, 933390, Note_off_c, 0, 78, 71
1, 933439, Control_c, 0, 64, 87
1, 933454, Note_on_c, 0, 54, 87
1, 933454, Control_c, 0, 64, 0
1, 933455, Note_on_c, 0, 89, 103
1, 933457, Note_on_c, 0, 77, 98
1, 933459, Note_on_c, 0, 63, 83
1, 933471, Note_on_c, 0, 58, 58
1, 933480, Note_off_c, 0, 63, 69
1, 933480, Note_off_c, 0, 77, 67
1, 933482, Note_off_c, 0, 54, 65
1, 933487, Note_off_c, 0, 89, 67
1, 933493, Note_off_c, 0, 58, 60
1, 933642, Note_on_c, 0, 66, 75
1, 933653, Note_on_c, 0, 63, 56
1, 933655, Note_on_c, 0, 75, 87
1, 933656, Note_on_c, 0, 58, 64
1, 933656, Note_on_c, 0, 87, 93
1, 933662, Note_off_c, 0, 66, 70
1, 933683, Note_off_c, 0, 63, 64
1, 933685, Note_off_c, 0, 58, 67
1, 933700, Note_off_c, 0, 75, 61
1, 933703, Note_off_c, 0, 87, 64
1, 933830, Note_on_c, 0, 74, 87
1, 933830, Note_on_c, 0, 86, 88
1, 933831, Note_on_c, 0, 53, 92
1, 933835, Note_on_c, 0, 80, 76
1, 933837, Note_on_c, 0, 41, 85
1, 933844, Note_on_c, 0, 83, 49
1, 933850, Note_off_c, 0, 53, 73
1, 933850, Note_off_c, 0, 74, 69
1, 933865, Note_off_c, 0, 41, 63
1, 933867, Note_off_c, 0, 83, 64
1, 933873, Note_off_c, 0, 86, 66
1, 933876, Note_off_c, 0, 80, 61
1, 934035, Note_on_c, 0, 56, 79
1, 934037, Note_on_c, 0, 62, 65
1, 934038, Note_on_c, 0, 87, 101
1, 934040, Note_on_c, 0, 75, 90
1, 934065, Note_on_c, 0, 59, 32
1, 934068, Note_off_c, 0, 62, 62
1, 934069, Note_off_c, 0, 75, 65
1, 934072, Note_off_c, 0, 56, 60
1, 934081, Note_off_c, 0, 87, 66
1, 934091, Control_c, 0, 64, 26
1, 934099, Note_off_c, 0, 59, 45
1, 934105, Control_c, 0, 64, 42
1, 934120, Control_c, 0, 64, 49
1, 934135, Control_c, 0, 64, 55
1, 934150, Control_c, 0, 64, 60
1, 934165, Control_c, 0, 64, 64
1, 934188, Control_c, 0, 64, 67
1, 934203, Control_c, 0, 64, 70
1, 934218, Control_c, 0, 64, 72
1, 934224, Note_on_c, 0, 68, 85
1, 934225, Note_on_c, 0, 89, 97
1, 934227, Note_on_c, 0, 59, 60
1, 934230, Note_on_c, 0, 77, 85
1, 934232, Control_c, 0, 64, 69
1, 934239, Note_on_c, 0, 62, 57
1, 934240, Note_off_c, 0, 68, 73
1, 934247, Control_c, 0, 64, 58
1, 934254, Note_off_c, 0, 77, 64
1, 934255, Note_off_c, 0, 89, 64
1, 934260, Note_off_c, 0, 62, 62
1, 934262, Control_c, 0, 64, 0
1, 934264, Note_off_c, 0, 59, 63
1, 934430, Note_on_c, 0, 54, 77
1, 934430, Note_on_c, 0, 82, 93
1, 934434, Note_on_c, 0, 42, 68
1, 934434, Note_on_c, 0, 70, 87
1, 934436, Note_on_c, 0, 75, 85
1, 934451, Note_off_c, 0, 54, 68
1, 934460, Note_off_c, 0, 42, 62
1, 934469, Control_c, 0, 64, 60
1, 934484, Control_c, 0, 64, 90
1, 934499, Control_c, 0, 64, 127
1, 934624, Note_on_c, 0, 54, 66
1, 934627, Note_on_c, 0, 63, 72
1, 934635, Note_off_c, 0, 70, 64
1, 934645, Note_on_c, 0, 58, 50
1, 934651, Note_off_c, 0, 63, 68
1, 934659, Note_off_c, 0, 54, 65
1, 934674, Note_off_c, 0, 58, 56
1, 934675, Note_off_c, 0, 75, 62
1, 934693, Note_off_c, 0, 82, 63
1, 934800, Note_on_c, 0, 66, 48
1, 934806, Note_on_c, 0, 58, 40
1, 934825, Note_off_c, 0, 66, 58
1, 934833, Note_off_c, 0, 58, 58
1, 934858, Poly_aftertouch_c, 0, 63, 127
1, 934884, Poly_aftertouch_c, 0, 63, 0
1, 934932, Note_on_c, 0, 81, 60
1, 934952, Note_on_c, 0, 82, 69
1, 934956, Note_off_c, 0, 81, 62
1, 934981, Control_c, 0, 64, 102
1, 934986, Note_on_c, 0, 84, 70
1, 934996, Control_c, 0, 64, 75
1, 935009, Note_off_c, 0, 82, 54
1, 935011, Control_c, 0, 64, 0
1, 935014, Note_on_c, 0, 43, 57
1, 935014, Note_on_c, 0, 73, 69
1, 935016, Note_on_c, 0, 55, 57
1, 935018, Note_on_c, 0, 85, 84
1, 935037, Note_off_c, 0, 55, 60
1, 935038, Note_off_c, 0, 73, 67
1, 935041, Note_off_c, 0, 43, 57
1, 935041, Note_off_c, 0, 84, 65
1, 935057, Note_off_c, 0, 85, 63
1, 935114, Control_c, 0, 64, 48
1, 935129, Control_c, 0, 64, 55
1, 935144, Control_c, 0, 64, 57
1, 935159, Control_c, 0, 64, 59
1, 935174, Control_c, 0, 64, 60
1, 935188, Control_c, 0, 64, 61
1, 935193, Note_on_c, 0, 55, 51
1, 935205, Note_on_c, 0, 61, 60
1, 935220, Note_on_c, 0, 58, 46
1, 935220, Note_off_c, 0, 55, 64
1, 935235, Note_off_c, 0, 61, 64
1, 935247, Note_off_c, 0, 58, 59
1, 935248, Control_c, 0, 64, 62
1, 935262, Control_c, 0, 64, 63
1, 935277, Control_c, 0, 64, 64
1, 935278, Note_on_c, 0, 81, 66
1, 935285, Note_on_c, 0, 69, 52
1, 935292, Control_c, 0, 64, 65
1, 935295, Note_off_c, 0, 81, 67
1, 935304, Note_off_c, 0, 69, 59
1, 935322, Control_c, 0, 64, 61
1, 935337, Control_c, 0, 64, 0
1, 935362, Note_on_c, 0, 82, 83
1, 935363, Note_on_c, 0, 64, 63
1, 935366, Note_on_c, 0, 61, 60
1, 935366, Note_on_c, 0, 70, 64
1, 935369, Note_on_c, 0, 58, 44
1, 935382, Note_off_c, 0, 64, 63
1, 935382, Note_off_c, 0, 82, 67
1, 935384, Note_off_c, 0, 70, 65
1, 935388, Note_off_c, 0, 61, 60
1, 935396, Note_off_c, 0, 58, 57
1, 935559, Control_c, 0, 64, 48
1, 935560, Note_on_c, 0, 56, 84
1, 935563, Note_on_c, 0, 44, 78
1, 935573, Control_c, 0, 64, 72
1, 935581, Note_off_c, 0, 56, 71
1, 935584, Note_off_c, 0, 44, 67
1, 935588, Control_c, 0, 64, 84
1, 935603, Control_c, 0, 64, 127
1, 935647, Note_on_c, 0, 85, 82
1, 935650, Note_on_c, 0, 73, 77
1, 935666, Note_off_c, 0, 85, 72
1, 935679, Note_off_c, 0, 73, 69
1, 935730, Note_on_c, 0, 53, 80
1, 935736, Note_on_c, 0, 61, 76
1, 935738, Note_on_c, 0, 79, 95
1, 935744, Note_on_c, 0, 67, 86
1, 935744, Control_c, 0, 64, 88
1, 935751, Note_on_c, 0, 56, 52
1, 935756, Note_off_c, 0, 53, 68
1, 935760, Control_c, 0, 64, 60
1, 935762, Note_off_c, 0, 61, 66
1, 935763, Note_off_c, 0, 67, 71
1, 935768, Note_off_c, 0, 79, 62
1, 935772, Note_off_c, 0, 56, 63
1, 935775, Control_c, 0, 64, 0
1, 935878, Control_c, 0, 64, 32
1, 935893, Control_c, 0, 64, 52
1, 935908, Control_c, 0, 64, 61
1, 935923, Control_c, 0, 64, 64
1, 935937, Control_c, 0, 64, 65
1, 935949, Note_on_c, 0, 65, 57
1, 935952, Control_c, 0, 64, 62
1, 935954, Note_on_c, 0, 80, 81
1, 935958, Note_on_c, 0, 56, 62
1, 935960, Note_on_c, 0, 61, 51
1, 935962, Note_on_c, 0, 68, 64
1, 935967, Control_c, 0, 64, 14
1, 935971, Note_off_c, 0, 65, 61
1, 935980, Note_off_c, 0, 68, 64
1, 935982, Control_c, 0, 64, 0
1, 935983, Note_off_c, 0, 56, 67
1, 935987, Note_off_c, 0, 61, 55
1, 935988, Note_off_c, 0, 80, 64
1, 936138, Note_on_c, 0, 45, 80
1, 936146, Note_on_c, 0, 57, 62
1, 936159, Control_c, 0, 64, 68
1, 936165, Note_off_c, 0, 45, 66
1, 936166, Note_off_c, 0, 57, 62
1, 936174, Control_c, 0, 64, 86
1, 936189, Control_c, 0, 64, 127
1, 936212, Note_on_c, 0, 89, 62
1, 936216, Note_on_c, 0, 77, 64
1, 936231, Note_off_c, 0, 89, 61
1, 936235, Note_off_c, 0, 77, 66
1, 936293, Control_c, 0, 64, 75
1, 936293, Note_on_c, 0, 53, 76
1, 936302, Note_on_c, 0, 60, 61
1, 936303, Note_on_c, 0, 76, 94
1, 936308, Control_c, 0, 64, 0
1, 936308, Note_on_c, 0, 64, 83
1, 936311, Note_off_c, 0, 53, 68
1, 936322, Note_off_c, 0, 60, 63
1, 936328, Note_off_c, 0, 64, 72
1, 936328, Note_off_c, 0, 76, 65
1, 936448, Control_c, 0, 64, 31
1, 936463, Control_c, 0, 64, 54
1, 936478, Control_c, 0, 64, 58
1, 936493, Control_c, 0, 64, 48
1, 936502, Note_on_c, 0, 63, 56
1, 936505, Note_on_c, 0, 60, 36
1, 936508, Control_c, 0, 64, 0
1, 936517, Note_on_c, 0, 77, 86
1, 936524, Note_off_c, 0, 63, 61
1, 936531, Note_on_c, 0, 65, 42
1, 936532, Note_off_c, 0, 60, 57
1, 936535, Note_off_c, 0, 77, 71
1, 936560, Note_off_c, 0, 65, 56
1, 936641, Note_on_c, 0, 46, 64
1, 936695, Note_on_c, 0, 53, 52
1, 936701, Control_c, 0, 64, 40
1, 936711, Note_off_c, 0, 46, 63
1, 936716, Control_c, 0, 64, 65
1, 936731, Control_c, 0, 64, 73
1, 936746, Control_c, 0, 64, 85
1, 936747, Note_off_c, 0, 53, 65
1, 936750, Note_on_c, 0, 61, 75
1, 936754, Note_on_c, 0, 82, 59
1, 936755, Note_on_c, 0, 94, 70
1, 936761, Control_c, 0, 64, 112
1, 936774, Note_off_c, 0, 61, 67
1, 936776, Control_c, 0, 64, 127
1, 936791, Note_off_c, 0, 82, 59
1, 936851, Note_on_c, 0, 89, 70
1, 936916, Note_off_c, 0, 94, 56
1, 936937, Note_on_c, 0, 85, 77
1, 936969, Note_off_c, 0, 89, 57
1, 937020, Note_on_c, 0, 82, 78
1, 937022, Note_off_c, 0, 85, 64
1, 937044, Note_off_c, 0, 82, 66
1, 937125, Note_on_c, 0, 70, 91
1, 937141, Note_off_c, 0, 70, 74
1, 937146, Control_c, 0, 64, 121
1, 937161, Control_c, 0, 64, 75
1, 937183, Control_c, 0, 64, 0
1, 937406, Control_c, 0, 64, 70
1, 937421, Control_c, 0, 64, 127
1, 937429, Note_on_c, 0, 70, 98
1, 937429, Note_on_c, 0, 73, 92
1, 937429, Note_on_c, 0, 79, 84
1, 937431, Note_on_c, 0, 82, 93
1, 937433, Note_on_c, 0, 40, 100
1, 937445, Note_on_c, 0, 28, 86
1, 937458, Note_off_c, 0, 40, 68
1, 937476, Note_on_c, 0, 34, 31
1, 937477, Note_off_c, 0, 34, 127
1, 937477, Note_off_c, 0, 28, 62
1, 937480, Control_c, 0, 64, 123
1, 937495, Control_c, 0, 64, 80
1, 937510, Control_c, 0, 64, 0
1, 937521, Poly_aftertouch_c, 0, 34, 0
1, 937557, Note_off_c, 0, 70, 59
1, 937563, Note_off_c, 0, 82, 62
1, 937580, Note_off_c, 0, 79, 58
1, 937590, Note_off_c, 0, 73, 56
1, 937659, Control_c, 0, 64, 17
1, 937674, Control_c, 0, 64, 34
1, 937688, Control_c, 0, 64, 44
1, 937703, Control_c, 0, 64, 49
1, 937723, Note_on_c, 0, 41, 87
1, 937731, Note_on_c, 0, 29, 78
1, 937733, Control_c, 0, 64, 42
1, 937748, Note_off_c, 0, 41, 66
1, 937748, Control_c, 0, 64, 21
1, 937763, Control_c, 0, 64, 0
1, 937764, Note_off_c, 0, 29, 63
1, 937806, Note_on_c, 0, 43, 96
1, 937807, Control_c, 0, 64, 26
1, 937810, Note_on_c, 0, 31, 88
1, 937821, Control_c, 0, 64, 31
1, 937825, Note_off_c, 0, 43, 73
1, 937835, Note_off_c, 0, 31, 64
1, 937836, Control_c, 0, 64, 33
1, 937851, Control_c, 0, 64, 35
1, 937866, Control_c, 0, 64, 40
1, 937881, Control_c, 0, 64, 46
1, 937895, Control_c, 0, 64, 52
1, 937910, Control_c, 0, 64, 55
1, 937933, Control_c, 0, 64, 58
1, 937948, Control_c, 0, 64, 60
1, 937963, Control_c, 0, 64, 62
1, 937977, Control_c, 0, 64, 62
1, 937992, Control_c, 0, 64, 63
1, 938022, Control_c, 0, 64, 63
1, 938027, Note_on_c, 0, 68, 95
1, 938028, Note_on_c, 0, 80, 87
1, 938030, Note_on_c, 0, 72, 83
1, 938034, Note_on_c, 0, 77, 80
1, 938036, Control_c, 0, 64, 62
1, 938051, Control_c, 0, 64, 61
1, 938066, Control_c, 0, 64, 60
1, 938081, Control_c, 0, 64, 60
1, 938101, Note_on_c, 0, 44, 88
1, 938104, Note_on_c, 0, 32, 84
1, 938110, Control_c, 0, 64, 61
1, 938125, Control_c, 0, 64, 61
1, 938126, Note_off_c, 0, 44, 70
1, 938132, Note_off_c, 0, 32, 67
1, 938140, Control_c, 0, 64, 61
1, 938153, Note_off_c, 0, 80, 63
1, 938156, Control_c, 0, 64, 40
1, 938157, Note_off_c, 0, 68, 62
1, 938169, Note_off_c, 0, 77, 63
1, 938170, Note_off_c, 0, 72, 63
1, 938171, Control_c, 0, 64, 0
1, 938198, Note_on_c, 0, 34, 54
1, 938199, Note_on_c, 0, 46, 99
1, 938243, Note_off_c, 0, 46, 61
1, 938246, Note_off_c, 0, 34, 62
1, 938268, Note_on_c, 0, 37, 2
1, 938269, Note_off_c, 0, 37, 127
1, 938392, Note_on_c, 0, 48, 95
1, 938395, Note_on_c, 0, 36, 91
1, 938417, Note_off_c, 0, 48, 65
1, 938422, Note_off_c, 0, 36, 68
1, 938576, Note_on_c, 0, 77, 94
1, 938580, Note_on_c, 0, 65, 89
1, 938581, Note_on_c, 0, 70, 84
1, 938586, Note_on_c, 0, 73, 84
1, 938589, Note_on_c, 0, 49, 100
1, 938591, Note_on_c, 0, 37, 92
1, 938600, Control_c, 0, 64, 45
1, 938615, Control_c, 0, 64, 29
1, 938622, Note_off_c, 0, 37, 64
1, 938624, Note_off_c, 0, 49, 60
1, 938630, Control_c, 0, 64, 28
1, 938726, Control_c, 0, 64, 29
1, 938741, Control_c, 0, 64, 30
1, 938756, Control_c, 0, 64, 31
1, 938763, Note_off_c, 0, 77, 60
1, 938774, Note_off_c, 0, 65, 61
1, 938783, Note_on_c, 0, 48, 94
1, 938785, Control_c, 0, 64, 32
1, 938787, Note_on_c, 0, 36, 89
1, 938803, Note_off_c, 0, 70, 62
1, 938803, Note_off_c, 0, 48, 72
1, 938806, Note_off_c, 0, 73, 61
1, 938810, Note_off_c, 0, 36, 70
1, 938830, Control_c, 0, 64, 33
1, 938845, Control_c, 0, 64, 34
1, 938859, Control_c, 0, 64, 36
1, 938874, Control_c, 0, 64, 39
1, 938889, Control_c, 0, 64, 40
1, 938904, Control_c, 0, 64, 43
1, 938919, Control_c, 0, 64, 45
1, 938933, Control_c, 0, 64, 48
1, 938949, Control_c, 0, 64, 53
1, 938964, Control_c, 0, 64, 56
1, 938982, Note_on_c, 0, 46, 93
1, 938983, Note_on_c, 0, 34, 84
1, 938994, Control_c, 0, 64, 54
1, 939003, Note_off_c, 0, 46, 70
1, 939007, Note_off_c, 0, 34, 65
1, 939008, Control_c, 0, 64, 45
1, 939022, Control_c, 0, 64, 0
1, 939199, Note_on_c, 0, 72, 89
1, 939203, Note_on_c, 0, 60, 86
1, 939205, Note_on_c, 0, 65, 82
1, 939206, Note_on_c, 0, 68, 82
1, 939209, Note_on_c, 0, 53, 89
1, 939209, Note_on_c, 0, 41, 89
1, 939259, Control_c, 0, 64, 65
1, 939274, Control_c, 0, 64, 95
1, 939289, Control_c, 0, 64, 127
1, 939574, Note_off_c, 0, 53, 63
1, 939623, Note_off_c, 0, 41, 62
1, 939665, Note_off_c, 0, 72, 60
1, 939678, Note_off_c, 0, 60, 61
1, 939681, Control_c, 0, 64, 109
1, 939686, Note_off_c, 0, 65, 61
1, 939696, Control_c, 0, 64, 81
1, 939696, Control_c, 0, 67, 11
1, 939699, Note_off_c, 0, 68, 60
1, 939711, Control_c, 0, 64, 60
1, 939711, Control_c, 0, 67, 20
1, 939726, Control_c, 0, 64, 0
1, 939726, Control_c, 0, 67, 34
1, 939741, Control_c, 0, 67, 50
1, 939757, Control_c, 0, 67, 64
1, 939771, Control_c, 0, 67, 77
1, 939786, Control_c, 0, 67, 86
1, 939801, Control_c, 0, 67, 94
1, 939816, Control_c, 0, 67, 98
1, 939831, Control_c, 0, 67, 99
1, 939845, Control_c, 0, 67, 99
1, 939972, Note_on_c, 0, 71, 49
1, 940055, Note_on_c, 0, 42, 34
1, 940088, Note_off_c, 0, 42, 50
1, 940133, Note_on_c, 0, 40, 39
1, 940160, Note_on_c, 0, 61, 41
1, 940174, Note_off_c, 0, 40, 50
1, 940344, Note_on_c, 0, 41, 47
1, 940372, Note_off_c, 0, 41, 57
1, 940386, Note_on_c, 0, 68, 41
1, 940401, Control_c, 0, 67, 99
1, 940430, Control_c, 0, 67, 98
1, 940460, Control_c, 0, 67, 98
1, 940490, Control_c, 0, 67, 97
1, 940503, Control_c, 0, 67, 97
1, 940518, Control_c, 0, 67, 96
1, 940533, Control_c, 0, 67, 96
1, 940549, Control_c, 0, 67, 95
1, 940553, Note_on_c, 0, 69, 59
1, 940564, Control_c, 0, 67, 95
1, 940567, Note_off_c, 0, 61, 52
1, 940593, Control_c, 0, 67, 94
1, 940602, Note_off_c, 0, 68, 55
1, 940639, Note_off_c, 0, 71, 53
1, 940652, Note_on_c, 0, 44, 58
1, 940652, Control_c, 0, 67, 94
1, 940684, Note_off_c, 0, 44, 64
1, 940740, Note_on_c, 0, 41, 59
1, 940743, Note_on_c, 0, 61, 39
1, 940768, Note_off_c, 0, 41, 62
1, 940801, Control_c, 0, 67, 94
1, 940830, Control_c, 0, 67, 95
1, 940860, Control_c, 0, 64, 11
1, 940875, Control_c, 0, 64, 17
1, 940875, Control_c, 0, 67, 95
1, 940890, Control_c, 0, 67, 96
1, 940905, Control_c, 0, 64, 19
1, 940941, Control_c, 0, 64, 21
1, 940956, Control_c, 0, 64, 23
1, 940961, Note_on_c, 0, 70, 62
1, 940962, Note_on_c, 0, 66, 43
1, 940970, Note_on_c, 0, 42, 46
1, 940971, Control_c, 0, 64, 24
1, 940983, Note_off_c, 0, 69, 51
1, 940986, Control_c, 0, 64, 26
1, 941000, Note_off_c, 0, 42, 53
1, 941000, Control_c, 0, 64, 27
1, 941015, Control_c, 0, 64, 28
1, 941020, Note_off_c, 0, 61, 42
1, 941030, Control_c, 0, 64, 29
1, 941060, Control_c, 0, 64, 30
1, 941075, Control_c, 0, 64, 32
1, 941090, Control_c, 0, 64, 33
1, 941105, Control_c, 0, 64, 34
1, 941119, Control_c, 0, 67, 95
1, 941134, Control_c, 0, 67, 95
1, 941164, Control_c, 0, 67, 94
1, 941185, Note_on_c, 0, 73, 68
1, 941193, Control_c, 0, 67, 94
1, 941275, Note_on_c, 0, 46, 51
1, 941297, Control_c, 0, 64, 33
1, 941302, Note_off_c, 0, 46, 58
1, 941321, Note_off_c, 0, 70, 60
1, 941347, Note_on_c, 0, 44, 59
1, 941350, Note_off_c, 0, 66, 63
1, 941364, Note_on_c, 0, 63, 55
1, 941373, Note_off_c, 0, 44, 61
1, 941387, Control_c, 0, 67, 94
1, 941416, Control_c, 0, 67, 95
1, 941446, Control_c, 0, 67, 95
1, 941461, Control_c, 0, 64, 34
1, 941461, Control_c, 0, 67, 96
1, 941475, Control_c, 0, 64, 35
1, 941490, Control_c, 0, 64, 36
1, 941505, Control_c, 0, 67, 96
1, 941520, Control_c, 0, 64, 36
1, 941535, Control_c, 0, 64, 37
1, 941563, Note_on_c, 0, 45, 39
1, 941563, Note_on_c, 0, 72, 64
1, 941564, Control_c, 0, 64, 38
1, 941573, Note_on_c, 0, 65, 51
1, 941579, Control_c, 0, 64, 38
1, 941593, Note_off_c, 0, 73, 63
1, 941594, Control_c, 0, 64, 39
1, 941599, Note_off_c, 0, 45, 49
1, 941609, Control_c, 0, 64, 40
1, 941623, Control_c, 0, 64, 40
1, 941629, Note_off_c, 0, 63, 37
1, 941653, Control_c, 0, 64, 41
1, 941675, Control_c, 0, 64, 42
1, 941690, Control_c, 0, 64, 42
1, 941705, Control_c, 0, 64, 43
1, 941720, Control_c, 0, 64, 44
1, 941735, Control_c, 0, 64, 44
1, 941749, Note_off_c, 0, 65, 56
1, 941775, Note_on_c, 0, 75, 74
1, 941779, Control_c, 0, 67, 96
1, 941793, Control_c, 0, 67, 95
1, 941803, Note_off_c, 0, 72, 60
1, 941808, Control_c, 0, 64, 44
1, 941808, Control_c, 0, 67, 95
1, 941823, Control_c, 0, 67, 94
1, 941838, Control_c, 0, 67, 94
1, 941853, Control_c, 0, 64, 43
1, 941853, Control_c, 0, 67, 93
1, 941862, Note_on_c, 0, 48, 68
1, 941868, Control_c, 0, 67, 91
1, 941883, Control_c, 0, 67, 88
1, 941889, Note_off_c, 0, 48, 64
1, 941898, Control_c, 0, 67, 85
1, 941912, Control_c, 0, 67, 76
1, 941927, Control_c, 0, 67, 62
1, 941942, Control_c, 0, 67, 46
1, 941946, Note_on_c, 0, 45, 64
1, 941957, Control_c, 0, 64, 44
1, 941957, Control_c, 0, 67, 30
1, 941963, Note_on_c, 0, 65, 54
1, 941972, Note_off_c, 0, 45, 60
1, 941972, Control_c, 0, 64, 45
1, 941972, Control_c, 0, 67, 15
1, 941987, Control_c, 0, 64, 46
1, 941987, Control_c, 0, 67, 0
1, 942001, Control_c, 0, 64, 47
1, 942016, Control_c, 0, 64, 49
1, 942031, Control_c, 0, 64, 50
1, 942046, Control_c, 0, 64, 52
1, 942061, Control_c, 0, 64, 54
1, 942075, Control_c, 0, 64, 56
1, 942090, Control_c, 0, 64, 59
1, 942105, Control_c, 0, 64, 61
1, 942120, Control_c, 0, 64, 63
1, 942127, Note_off_c, 0, 65, 36
1, 942145, Note_on_c, 0, 70, 72
1, 942149, Note_on_c, 0, 46, 71
1, 942149, Note_on_c, 0, 74, 73
1, 942151, Control_c, 0, 64, 56
1, 942162, Note_off_c, 0, 75, 57
1, 942165, Control_c, 0, 64, 0
1, 942170, Note_off_c, 0, 46, 64
1, 942171, Note_off_c, 0, 70, 66
1, 942178, Note_off_c, 0, 74, 66
1, 942387, Control_c, 0, 64, 57
1, 942402, Note_on_c, 0, 80, 93
1, 942402, Control_c, 0, 64, 127
1, 942403, Note_on_c, 0, 68, 95
1, 942403, Note_on_c, 0, 71, 89
1, 942404, Note_on_c, 0, 38, 95
1, 942406, Note_on_c, 0, 77, 85
1, 942421, Note_on_c, 0, 26, 85
1, 942436, Note_off_c, 0, 38, 69
1, 942443, Note_off_c, 0, 26, 67
1, 942449, Note_on_c, 0, 27, 40
1, 942452, Note_on_c, 0, 32, 28
1, 942493, Note_off_c, 0, 27, 50
1, 942498, Control_c, 0, 64, 105
1, 942502, Note_off_c, 0, 32, 46
1, 942513, Control_c, 0, 64, 74
1, 942528, Control_c, 0, 64, 0
1, 942532, Note_off_c, 0, 68, 60
1, 942561, Note_off_c, 0, 80, 56
1, 942571, Note_off_c, 0, 71, 60
1, 942583, Note_off_c, 0, 77, 57
1, 942676, Control_c, 0, 64, 40
1, 942690, Control_c, 0, 64, 52
1, 942705, Control_c, 0, 64, 45
1, 942717, Note_on_c, 0, 39, 85
1, 942720, Control_c, 0, 64, 0
1, 942721, Note_on_c, 0, 27, 89
1, 942741, Note_off_c, 0, 39, 69
1, 942744, Note_off_c, 0, 27, 66
1, 942796, Note_on_c, 0, 41, 98
1, 942798, Note_on_c, 0, 29, 95
1, 942819, Note_off_c, 0, 41, 70
1, 942824, Note_off_c, 0, 29, 71
1, 943006, Note_on_c, 0, 66, 95
1, 943008, Note_on_c, 0, 78, 93
1, 943011, Note_on_c, 0, 75, 83
1, 943013, Note_on_c, 0, 70, 82
1, 943047, Control_c, 0, 64, 64
1, 943062, Control_c, 0, 64, 65
1, 943071, Note_on_c, 0, 42, 90
1, 943074, Note_on_c, 0, 30, 93
1, 943077, Control_c, 0, 64, 61
1, 943092, Control_c, 0, 64, 62
1, 943096, Note_off_c, 0, 42, 68
1, 943102, Note_off_c, 0, 30, 69
1, 943107, Control_c, 0, 64, 63
1, 943112, Note_off_c, 0, 66, 62
1, 943115, Note_off_c, 0, 78, 64
1, 943121, Control_c, 0, 64, 62
1, 943135, Note_off_c, 0, 75, 63
1, 943136, Note_off_c, 0, 70, 61
1, 943136, Control_c, 0, 64, 61
1, 943170, Note_on_c, 0, 44, 97
1, 943171, Note_on_c, 0, 32, 83
1, 943203, Note_off_c, 0, 32, 65
1, 943206, Note_on_c, 0, 34, 35
1, 943218, Note_off_c, 0, 44, 59
1, 943246, Note_off_c, 0, 34, 52
1, 943247, Control_c, 0, 64, 62
1, 943307, Control_c, 0, 64, 62
1, 943321, Control_c, 0, 64, 63
1, 943336, Control_c, 0, 64, 63
1, 943351, Control_c, 0, 64, 62
1, 943366, Note_on_c, 0, 34, 89
1, 943366, Note_on_c, 0, 46, 93
1, 943366, Control_c, 0, 64, 50
1, 943381, Control_c, 0, 64, 0
1, 943404, Note_off_c, 0, 46, 59
1, 943406, Note_off_c, 0, 34, 61
1, 943555, Note_on_c, 0, 75, 93
1, 943555, Note_on_c, 0, 63, 90
1, 943560, Note_on_c, 0, 47, 94
1, 943561, Note_on_c, 0, 71, 80
1, 943564, Note_on_c, 0, 35, 92
1, 943564, Note_on_c, 0, 68, 83
1, 943581, Note_off_c, 0, 47, 73
1, 943588, Note_off_c, 0, 35, 70
1, 943603, Control_c, 0, 64, 65
1, 943633, Control_c, 0, 64, 62
1, 943707, Control_c, 0, 64, 62
1, 943721, Note_off_c, 0, 75, 62
1, 943722, Note_off_c, 0, 63, 59
1, 943755, Note_off_c, 0, 71, 60
1, 943761, Note_on_c, 0, 46, 96
1, 943766, Note_on_c, 0, 34, 84
1, 943775, Note_off_c, 0, 68, 56
1, 943782, Control_c, 0, 64, 61
1, 943787, Note_off_c, 0, 46, 66
1, 943794, Note_off_c, 0, 34, 66
1, 943797, Control_c, 0, 64, 61
1, 943856, Control_c, 0, 64, 61
1, 943871, Control_c, 0, 64, 62
1, 943886, Control_c, 0, 64, 62
1, 943951, Note_on_c, 0, 44, 92
1, 943954, Note_on_c, 0, 32, 86
1, 943975, Note_off_c, 0, 44, 70
1, 943979, Note_off_c, 0, 32, 65
1, 943982, Control_c, 0, 64, 63
1, 943996, Control_c, 0, 64, 63
1, 944011, Control_c, 0, 64, 64
1, 944041, Control_c, 0, 64, 64
1, 944086, Control_c, 0, 64, 65
1, 944115, Control_c, 0, 64, 65
1, 944160, Control_c, 0, 64, 61
1, 944175, Note_on_c, 0, 70, 89
1, 944175, Control_c, 0, 64, 0
1, 944176, Note_on_c, 0, 58, 87
1, 944183, Note_on_c, 0, 63, 77
1, 944183, Note_on_c, 0, 66, 77
1, 944186, Note_on_c, 0, 51, 93
1, 944187, Note_on_c, 0, 39, 87
1, 944368, Control_c, 0, 64, 65
1, 944383, Control_c, 0, 64, 78
1, 944397, Control_c, 0, 64, 91
1, 944412, Control_c, 0, 64, 127
1, 944620, Control_c, 0, 67, 15
1, 944630, Note_off_c, 0, 51, 64
1, 944635, Control_c, 0, 67, 28
1, 944641, Note_off_c, 0, 58, 62
1, 944650, Control_c, 0, 67, 48
1, 944673, Control_c, 0, 64, 96
1, 944673, Control_c, 0, 67, 72
1, 944680, Note_off_c, 0, 70, 57
1, 944682, Note_off_c, 0, 63, 59
1, 944684, Note_off_c, 0, 39, 60
1, 944684, Note_off_c, 0, 66, 60
1, 944688, Control_c, 0, 64, 73
1, 944688, Control_c, 0, 67, 90
1, 944702, Control_c, 0, 64, 0
1, 944702, Control_c, 0, 67, 107
1, 944717, Control_c, 0, 67, 121
1, 944732, Control_c, 0, 67, 127
1, 944991, Note_on_c, 0, 73, 51
1, 945081, Note_on_c, 0, 42, 30
1, 945118, Note_off_c, 0, 42, 48
1, 945163, Note_on_c, 0, 39, 37
1, 945172, Note_on_c, 0, 61, 44
1, 945200, Note_off_c, 0, 39, 49
1, 945339, Control_c, 0, 64, 11
1, 945369, Control_c, 0, 64, 14
1, 945369, Control_c, 0, 67, 126
1, 945376, Note_on_c, 0, 40, 37
1, 945383, Control_c, 0, 64, 21
1, 945383, Control_c, 0, 67, 122
1, 945398, Control_c, 0, 64, 27
1, 945398, Control_c, 0, 67, 118
1, 945417, Note_on_c, 0, 66, 42
1, 945418, Note_off_c, 0, 40, 48
1, 945421, Control_c, 0, 64, 32
1, 945421, Control_c, 0, 67, 113
1, 945424, Note_on_c, 0, 70, 42
1, 945436, Control_c, 0, 64, 38
1, 945436, Control_c, 0, 67, 106
1, 945450, Control_c, 0, 64, 40
1, 945450, Control_c, 0, 67, 100
1, 945454, Note_off_c, 0, 61, 50
1, 945465, Control_c, 0, 64, 42
1, 945465, Control_c, 0, 67, 93
1, 945480, Control_c, 0, 64, 42
1, 945480, Control_c, 0, 67, 89
1, 945492, Note_off_c, 0, 66, 61
1, 945495, Control_c, 0, 64, 43
1, 945495, Control_c, 0, 67, 87
1, 945510, Control_c, 0, 64, 44
1, 945510, Control_c, 0, 67, 86
1, 945520, Note_off_c, 0, 73, 62
1, 945524, Control_c, 0, 64, 45
1, 945536, Note_off_c, 0, 70, 64
1, 945539, Control_c, 0, 64, 47
1, 945554, Control_c, 0, 64, 49
1, 945554, Control_c, 0, 67, 87
1, 945569, Control_c, 0, 64, 50
1, 945569, Control_c, 0, 67, 88
1, 945583, Control_c, 0, 64, 50
1, 945583, Control_c, 0, 67, 88
1, 945598, Control_c, 0, 64, 51
1, 945598, Control_c, 0, 67, 89
1, 945613, Control_c, 0, 67, 89
1, 945628, Control_c, 0, 67, 90
1, 945632, Note_on_c, 0, 78, 62
1, 945642, Control_c, 0, 67, 90
1, 945657, Control_c, 0, 64, 51
1, 945657, Control_c, 0, 67, 91
1, 945660, Note_off_c, 0, 78, 61
1, 945672, Control_c, 0, 67, 92
1, 945681, Note_on_c, 0, 77, 53
1, 945687, Control_c, 0, 67, 92
1, 945705, Note_on_c, 0, 40, 40
1, 945731, Control_c, 0, 67, 93
1, 945737, Note_off_c, 0, 40, 50
1, 945746, Control_c, 0, 64, 51
1, 945776, Control_c, 0, 64, 50
1, 945776, Control_c, 0, 67, 93
1, 945779, Note_on_c, 0, 38, 53
1, 945791, Control_c, 0, 64, 50
1, 945807, Note_off_c, 0, 38, 56
1, 945829, Note_on_c, 0, 66, 40
1, 945835, Control_c, 0, 64, 49
1, 945835, Control_c, 0, 67, 93
1, 945865, Control_c, 0, 64, 49
1, 945865, Control_c, 0, 67, 92
1, 945877, Note_off_c, 0, 66, 0
1, 945877, Note_on_c, 0, 66, 10
1, 945882, Note_off_c, 0, 77, 57
1, 945977, Note_on_c, 0, 39, 58
1, 945985, Note_on_c, 0, 75, 61
1, 945993, Note_on_c, 0, 71, 52
1, 946000, Note_off_c, 0, 66, 55
1, 946005, Note_off_c, 0, 39, 58
1, 946013, Note_off_c, 0, 75, 67
1, 946014, Note_off_c, 0, 71, 63
1, 946028, Control_c, 0, 67, 93
1, 946042, Control_c, 0, 64, 49
1, 946057, Control_c, 0, 64, 50
1, 946057, Control_c, 0, 67, 93
1, 946072, Control_c, 0, 64, 50
1, 946087, Control_c, 0, 64, 51
1, 946087, Control_c, 0, 67, 94
1, 946102, Control_c, 0, 67, 94
1, 946147, Control_c, 0, 67, 95
1, 946202, Note_on_c, 0, 73, 72
1, 946244, Control_c, 0, 67, 94
1, 946288, Control_c, 0, 67, 94
1, 946292, Note_on_c, 0, 42, 60
1, 946318, Control_c, 0, 67, 93
1, 946321, Note_off_c, 0, 42, 64
1, 946332, Control_c, 0, 67, 93
1, 946347, Control_c, 0, 67, 92
1, 946362, Control_c, 0, 67, 91
1, 946377, Control_c, 0, 67, 91
1, 946378, Note_on_c, 0, 39, 54
1, 946383, Note_on_c, 0, 61, 55
1, 946391, Control_c, 0, 67, 90
1, 946405, Note_off_c, 0, 39, 56
1, 946406, Control_c, 0, 67, 89
1, 946421, Control_c, 0, 67, 87
1, 946436, Control_c, 0, 67, 86
1, 946451, Control_c, 0, 67, 85
1, 946465, Control_c, 0, 64, 51
1, 946465, Control_c, 0, 67, 82
1, 946480, Control_c, 0, 67, 77
1, 946495, Control_c, 0, 64, 52
1, 946495, Control_c, 0, 67, 72
1, 946510, Control_c, 0, 67, 68
1, 946525, Control_c, 0, 67, 65
1, 946539, Control_c, 0, 64, 53
1, 946539, Control_c, 0, 67, 65
1, 946554, Control_c, 0, 64, 53
1, 946569, Control_c, 0, 64, 54
1, 946584, Note_on_c, 0, 40, 48
1, 946584, Control_c, 0, 64, 54
1, 946588, Note_on_c, 0, 70, 61
1, 946590, Note_on_c, 0, 66, 49
1, 946601, Note_off_c, 0, 61, 60
1, 946612, Note_off_c, 0, 40, 54
1, 946613, Control_c, 0, 64, 55
1, 946628, Control_c, 0, 64, 55
1, 946640, Note_off_c, 0, 66, 60
1, 946643, Control_c, 0, 64, 56
1, 946655, Note_off_c, 0, 73, 62
1, 946658, Control_c, 0, 64, 56
1, 946658, Control_c, 0, 67, 65
1, 946664, Note_off_c, 0, 70, 63
1, 946673, Control_c, 0, 64, 57
1, 946673, Control_c, 0, 67, 66
1, 946688, Control_c, 0, 64, 57
1, 946688, Control_c, 0, 67, 66
1, 946703, Control_c, 0, 64, 58
1, 946703, Control_c, 0, 67, 67
1, 946718, Control_c, 0, 64, 59
1, 946732, Control_c, 0, 67, 68
1, 946747, Control_c, 0, 64, 60
1, 946762, Control_c, 0, 67, 68
1, 946777, Control_c, 0, 64, 60
1, 946806, Control_c, 0, 67, 69
1, 946836, Note_on_c, 0, 78, 61
1, 946836, Control_c, 0, 64, 61
1, 946836, Control_c, 0, 67, 69
1, 946865, Control_c, 0, 67, 70
1, 946880, Control_c, 0, 67, 70
1, 946895, Control_c, 0, 64, 60
1, 946917, Control_c, 0, 67, 71
1, 946932, Control_c, 0, 67, 72
1, 946934, Note_on_c, 0, 40, 46
1, 946948, Control_c, 0, 67, 73
1, 946962, Control_c, 0, 67, 73
1, 946963, Note_off_c, 0, 40, 58
1, 946977, Control_c, 0, 64, 60
1, 946977, Control_c, 0, 67, 74
1, 946992, Control_c, 0, 67, 75
1, 947007, Control_c, 0, 64, 59
1, 947007, Control_c, 0, 67, 75
1, 947022, Control_c, 0, 67, 76
1, 947033, Note_on_c, 0, 38, 50
1, 947037, Control_c, 0, 67, 76
1, 947052, Control_c, 0, 67, 77
1, 947053, Note_on_c, 0, 66, 47
1, 947062, Note_off_c, 0, 38, 57
1, 947066, Control_c, 0, 67, 78
1, 947081, Control_c, 0, 67, 79
1, 947096, Control_c, 0, 64, 59
1, 947096, Control_c, 0, 67, 82
1, 947111, Control_c, 0, 67, 86
1, 947126, Control_c, 0, 67, 90
1, 947141, Control_c, 0, 67, 94
1, 947156, Control_c, 0, 67, 98
1, 947170, Control_c, 0, 67, 101
1, 947185, Control_c, 0, 67, 104
1, 947200, Control_c, 0, 67, 107
1, 947214, Control_c, 0, 67, 110
1, 947229, Control_c, 0, 64, 58
1, 947229, Control_c, 0, 67, 113
1, 947245, Control_c, 0, 67, 117
1, 947260, Control_c, 0, 67, 121
1, 947275, Control_c, 0, 67, 125
1, 947289, Control_c, 0, 67, 127
1, 947348, Note_on_c, 0, 75, 47
1, 947353, Note_on_c, 0, 71, 42
1, 947356, Note_on_c, 0, 39, 14
1, 947393, Control_c, 0, 64, 58
1, 947394, Note_off_c, 0, 78, 52
1, 947396, Note_off_c, 0, 39, 44
1, 947418, Note_off_c, 0, 66, 56
1, 947439, Note_off_c, 0, 75, 61
1, 947441, Note_off_c, 0, 71, 62
1, 947615, Control_c, 0, 64, 57
1, 947666, Note_on_c, 0, 61, 59
1, 947750, Note_on_c, 0, 42, 48
1, 947789, Note_off_c, 0, 42, 57
1, 947833, Note_on_c, 0, 39, 53
1, 947849, Note_on_c, 0, 54, 50
1, 947860, Note_off_c, 0, 39, 55
1, 947905, Control_c, 0, 64, 58
1, 948023, Control_c, 0, 64, 58
1, 948066, Note_on_c, 0, 40, 45
1, 948074, Note_on_c, 0, 58, 49
1, 948098, Note_off_c, 0, 40, 51
1, 948171, Control_c, 0, 64, 59
1, 948230, Control_c, 0, 64, 59
1, 948259, Note_off_c, 0, 54, 50
1, 948273, Note_on_c, 0, 66, 69
1, 948369, Note_on_c, 0, 40, 50
1, 948393, Control_c, 0, 64, 59
1, 948400, Note_off_c, 0, 40, 60
1, 948416, Control_c, 0, 64, 58
1, 948431, Control_c, 0, 64, 58
1, 948445, Control_c, 0, 64, 57
1, 948467, Note_on_c, 0, 38, 44
1, 948475, Control_c, 0, 64, 57
1, 948477, Note_on_c, 0, 54, 54
1, 948486, Note_off_c, 0, 58, 58
1, 948500, Note_off_c, 0, 38, 53
1, 948509, Note_off_c, 0, 61, 56
1, 948519, Control_c, 0, 64, 56
1, 948550, Control_c, 0, 64, 56
1, 948609, Control_c, 0, 64, 58
1, 948624, Control_c, 0, 64, 61
1, 948639, Control_c, 0, 64, 64
1, 948654, Control_c, 0, 64, 67
1, 948668, Control_c, 0, 64, 71
1, 948672, Note_on_c, 0, 39, 40
1, 948683, Control_c, 0, 64, 73
1, 948697, Note_on_c, 0, 60, 46
1, 948698, Control_c, 0, 64, 75
1, 948700, Note_on_c, 0, 58, 37
1, 948706, Note_off_c, 0, 39, 50
1, 948713, Control_c, 0, 64, 77
1, 948728, Control_c, 0, 64, 78
1, 948742, Control_c, 0, 64, 80
1, 948757, Control_c, 0, 64, 81
1, 948764, Note_off_c, 0, 66, 59
1, 948772, Control_c, 0, 64, 82
1, 948786, Control_c, 0, 64, 83
1, 948801, Control_c, 0, 64, 84
1, 948816, Control_c, 0, 64, 85
1, 948831, Control_c, 0, 64, 86
1, 948888, Note_on_c, 0, 65, 65
1, 948890, Note_off_c, 0, 54, 39
1, 948891, Control_c, 0, 64, 83
1, 948906, Control_c, 0, 64, 75
1, 948913, Note_off_c, 0, 58, 49
1, 948921, Control_c, 0, 64, 64
1, 948935, Control_c, 0, 64, 0
1, 948940, Note_off_c, 0, 60, 50
1, 948975, Note_on_c, 0, 42, 63
1, 949004, Note_off_c, 0, 42, 64
1, 949067, Note_on_c, 0, 40, 52
1, 949080, Note_on_c, 0, 51, 57
1, 949095, Note_off_c, 0, 40, 56
1, 949234, Note_off_c, 0, 51, 63
1, 949273, Note_on_c, 0, 41, 57
1, 949283, Control_c, 0, 64, 64
1, 949284, Note_on_c, 0, 60, 40
1, 949289, Note_on_c, 0, 57, 21
1, 949298, Control_c, 0, 64, 71
1, 949305, Note_off_c, 0, 41, 64
1, 949313, Control_c, 0, 64, 78
1, 949314, Note_off_c, 0, 60, 56
1, 949317, Note_off_c, 0, 65, 65
1, 949329, Control_c, 0, 64, 92
1, 949333, Note_off_c, 0, 57, 40
1, 949344, Control_c, 0, 64, 116
1, 949358, Control_c, 0, 64, 127
1, 949520, Control_c, 0, 64, 107
1, 949528, Note_on_c, 0, 94, 62
1, 949529, Note_on_c, 0, 34, 48
1, 949535, Control_c, 0, 64, 81
1, 949550, Control_c, 0, 64, 64
1, 949564, Control_c, 0, 64, 0
1, 949594, Control_c, 0, 64, 55
1, 949606, Poly_aftertouch_c, 0, 82, 127
1, 949609, Control_c, 0, 64, 68
1, 949624, Control_c, 0, 64, 77
1, 949627, Note_on_c, 0, 89, 62
1, 949629, Poly_aftertouch_c, 0, 82, 0
1, 949639, Control_c, 0, 64, 94
1, 949643, Note_off_c, 0, 94, 58
1, 949654, Control_c, 0, 64, 127
1, 949669, Control_c, 0, 67, 127
1, 949683, Control_c, 0, 67, 121
1, 949698, Control_c, 0, 67, 113
1, 949709, Note_on_c, 0, 85, 70
1, 949713, Control_c, 0, 67, 104
1, 949728, Control_c, 0, 67, 95
1, 949734, Note_off_c, 0, 89, 48
1, 949743, Control_c, 0, 67, 84
1, 949752, Note_off_c, 0, 34, 50
1, 949757, Control_c, 0, 67, 75
1, 949772, Control_c, 0, 67, 67
1, 949774, Note_off_c, 0, 85, 62
1, 949787, Control_c, 0, 67, 61
1, 949788, Note_on_c, 0, 82, 68
1, 949801, Control_c, 0, 67, 57
1, 949812, Note_off_c, 0, 82, 68
1, 949816, Control_c, 0, 67, 54
1, 949831, Control_c, 0, 67, 52
1, 949846, Control_c, 0, 67, 52
1, 949900, Note_on_c, 0, 70, 62
1, 949928, Control_c, 0, 67, 52
1, 949935, Note_off_c, 0, 70, 66
1, 949942, Control_c, 0, 67, 53
1, 949972, Control_c, 0, 67, 53
1, 950002, Control_c, 0, 67, 54
1, 950016, Control_c, 0, 67, 54
1, 950031, Control_c, 0, 67, 55
1, 950046, Control_c, 0, 67, 55
1, 950061, Control_c, 0, 67, 56
1, 950090, Control_c, 0, 67, 56
1, 950120, Control_c, 0, 67, 57
1, 950135, Note_on_c, 0, 34, 54
1, 950137, Note_on_c, 0, 46, 58
1, 950151, Control_c, 0, 67, 57
1, 950166, Control_c, 0, 64, 96
1, 950180, Control_c, 0, 64, 77
1, 950195, Control_c, 0, 64, 66
1, 950210, Control_c, 0, 64, 56
1, 950224, Control_c, 0, 64, 55
1, 950240, Control_c, 0, 64, 61
1, 950255, Control_c, 0, 64, 65
1, 950255, Control_c, 0, 67, 57
1, 950270, Control_c, 0, 64, 70
1, 950270, Control_c, 0, 67, 56
1, 950285, Control_c, 0, 64, 76
1, 950285, Control_c, 0, 67, 56
1, 950299, Control_c, 0, 64, 84
1, 950299, Control_c, 0, 67, 55
1, 950314, Control_c, 0, 64, 94
1, 950314, Control_c, 0, 67, 54
1, 950329, Control_c, 0, 64, 108
1, 950329, Control_c, 0, 67, 54
1, 950344, Control_c, 0, 64, 127
1, 950344, Control_c, 0, 67, 53
1, 950359, Control_c, 0, 67, 53
1, 950388, Control_c, 0, 67, 52
1, 950417, Note_off_c, 0, 34, 60
1, 950445, Note_off_c, 0, 46, 61
1, 950492, Control_c, 0, 67, 52
1, 950566, Note_on_c, 0, 35, 41
1, 950570, Note_on_c, 0, 47, 40
1, 950596, Control_c, 0, 64, 107
1, 950611, Control_c, 0, 64, 86
1, 950625, Control_c, 0, 64, 71
1, 950640, Control_c, 0, 64, 54
1, 950662, Control_c, 0, 64, 0
1, 950766, Control_c, 0, 64, 30
1, 950781, Control_c, 0, 64, 56
1, 950796, Control_c, 0, 64, 64
1, 950804, Note_on_c, 0, 92, 59
1, 950810, Control_c, 0, 64, 67
1, 950825, Control_c, 0, 64, 71
1, 950840, Control_c, 0, 64, 77
1, 950855, Control_c, 0, 64, 86
1, 950855, Control_c, 0, 67, 52
1, 950870, Control_c, 0, 64, 96
1, 950885, Control_c, 0, 64, 110
1, 950892, Note_on_c, 0, 87, 65
1, 950900, Control_c, 0, 64, 127
1, 950900, Control_c, 0, 67, 53
1, 950908, Note_off_c, 0, 92, 54
1, 950930, Control_c, 0, 67, 53
1, 950945, Control_c, 0, 67, 54
1, 950959, Control_c, 0, 67, 54
1, 950974, Control_c, 0, 67, 55
1, 950985, Note_on_c, 0, 83, 66
1, 950989, Control_c, 0, 67, 56
1, 951004, Control_c, 0, 67, 56
1, 951013, Note_off_c, 0, 87, 57
1, 951019, Control_c, 0, 67, 57
1, 951046, Note_off_c, 0, 83, 65
1, 951049, Control_c, 0, 67, 57
1, 951063, Control_c, 0, 67, 58
1, 951071, Note_on_c, 0, 80, 59
1, 951090, Note_off_c, 0, 80, 63
1, 951105, Note_off_c, 0, 47, 40
1, 951108, Control_c, 0, 67, 58
1, 951112, Note_off_c, 0, 35, 42
1, 951182, Note_on_c, 0, 68, 55
1, 951207, Note_off_c, 0, 68, 62
1, 951300, Control_c, 0, 67, 58
1, 951405, Note_on_c, 0, 47, 54
1, 951407, Note_on_c, 0, 35, 50
1, 951456, Control_c, 0, 64, 98
1, 951470, Control_c, 0, 64, 82
1, 951485, Control_c, 0, 64, 70
1, 951485, Control_c, 0, 67, 57
1, 951500, Control_c, 0, 64, 63
1, 951515, Control_c, 0, 64, 62
1, 951529, Control_c, 0, 64, 64
1, 951529, Control_c, 0, 67, 57
1, 951544, Control_c, 0, 64, 66
1, 951559, Control_c, 0, 64, 69
1, 951574, Control_c, 0, 64, 73
1, 951588, Control_c, 0, 64, 78
1, 951588, Control_c, 0, 67, 56
1, 951603, Control_c, 0, 64, 86
1, 951618, Control_c, 0, 64, 95
1, 951633, Control_c, 0, 64, 106
1, 951648, Control_c, 0, 64, 127
1, 951648, Control_c, 0, 67, 56
1, 951666, Note_off_c, 0, 47, 64
1, 951705, Note_off_c, 0, 35, 60
1, 951832, Note_on_c, 0, 48, 49
1, 951836, Note_on_c, 0, 36, 47
1, 951842, Control_c, 0, 67, 56
1, 951946, Control_c, 0, 64, 111
1, 951960, Control_c, 0, 64, 87
1, 951960, Control_c, 0, 67, 57
1, 951975, Control_c, 0, 64, 71
1, 951990, Control_c, 0, 64, 0
1, 952076, Note_on_c, 0, 90, 63
1, 952108, Control_c, 0, 64, 60
1, 952108, Control_c, 0, 67, 56
1, 952123, Control_c, 0, 64, 68
1, 952138, Control_c, 0, 64, 75
1, 952138, Control_c, 0, 67, 56
1, 952160, Note_on_c, 0, 87, 68
1, 952160, Control_c, 0, 64, 85
1, 952175, Control_c, 0, 64, 106
1, 952181, Note_off_c, 0, 90, 52
1, 952190, Control_c, 0, 64, 127
1, 952240, Note_off_c, 0, 87, 61
1, 952254, Note_on_c, 0, 80, 74
1, 952282, Note_off_c, 0, 48, 62
1, 952312, Note_off_c, 0, 80, 62
1, 952328, Note_off_c, 0, 36, 40
1, 952337, Note_on_c, 0, 78, 62
1, 952352, Control_c, 0, 67, 56
1, 952356, Note_off_c, 0, 78, 66
1, 952411, Control_c, 0, 67, 57
1, 952441, Control_c, 0, 67, 57
1, 952486, Control_c, 0, 67, 58
1, 952649, Note_on_c, 0, 36, 55
1, 952650, Control_c, 0, 67, 57
1, 952653, Note_on_c, 0, 48, 53
1, 952679, Control_c, 0, 64, 93
1, 952694, Control_c, 0, 64, 75
1, 952694, Control_c, 0, 67, 57
1, 952709, Control_c, 0, 64, 61
1, 952709, Control_c, 0, 67, 56
1, 952724, Control_c, 0, 64, 0
1, 952739, Control_c, 0, 64, 14
1, 952739, Control_c, 0, 67, 56
1, 952753, Control_c, 0, 64, 46
1, 952753, Control_c, 0, 67, 55
1, 952768, Control_c, 0, 64, 60
1, 952768, Control_c, 0, 67, 54
1, 952783, Control_c, 0, 64, 65
1, 952783, Control_c, 0, 67, 54
1, 952798, Control_c, 0, 64, 70
1, 952798, Control_c, 0, 67, 53
1, 952813, Control_c, 0, 64, 76
1, 952813, Control_c, 0, 67, 52
1, 952827, Control_c, 0, 64, 86
1, 952827, Control_c, 0, 67, 51
1, 952842, Control_c, 0, 64, 98
1, 952842, Control_c, 0, 67, 50
1, 952857, Control_c, 0, 64, 123
1, 952857, Control_c, 0, 67, 48
1, 952872, Control_c, 0, 64, 127
1, 952872, Control_c, 0, 67, 43
1, 952875, Note_off_c, 0, 48, 64
1, 952887, Control_c, 0, 67, 36
1, 952909, Control_c, 0, 67, 32
1, 952924, Control_c, 0, 67, 31
1, 953057, Control_c, 0, 67, 32
1, 953068, Note_off_c, 0, 36, 57
1, 953072, Control_c, 0, 67, 33
1, 953097, Note_on_c, 0, 37, 47
1, 953102, Control_c, 0, 67, 33
1, 953105, Note_on_c, 0, 49, 47
1, 953116, Control_c, 0, 67, 34
1, 953131, Control_c, 0, 67, 34
1, 953146, Control_c, 0, 67, 35
1, 953160, Control_c, 0, 67, 36
1, 953175, Control_c, 0, 67, 36
1, 953190, Control_c, 0, 67, 37
1, 953205, Control_c, 0, 64, 123
1, 953220, Control_c, 0, 64, 100
1, 953220, Control_c, 0, 67, 37
1, 953233, Control_c, 0, 64, 85
1, 953233, Control_c, 0, 67, 38
1, 953248, Control_c, 0, 64, 69
1, 953263, Control_c, 0, 64, 0
1, 953326, Note_on_c, 0, 89, 61
1, 953353, Control_c, 0, 64, 43
1, 953368, Control_c, 0, 64, 65
1, 953382, Control_c, 0, 64, 73
1, 953395, Note_off_c, 0, 37, 56
1, 953397, Control_c, 0, 64, 83
1, 953398, Note_off_c, 0, 49, 63
1, 953405, Note_off_c, 0, 89, 58
1, 953407, Note_on_c, 0, 85, 64
1, 953412, Control_c, 0, 64, 99
1, 953427, Control_c, 0, 64, 121
1, 953442, Control_c, 0, 64, 127
1, 953487, Note_off_c, 0, 85, 56
1, 953499, Note_on_c, 0, 80, 64
1, 953550, Note_off_c, 0, 80, 62
1, 953583, Note_on_c, 0, 77, 54
1, 953604, Control_c, 0, 67, 37
1, 953617, Note_off_c, 0, 77, 65
1, 953684, Note_on_c, 0, 73, 65
1, 953695, Note_on_c, 0, 53, 41
1, 953697, Note_on_c, 0, 41, 39
1, 953703, Note_off_c, 0, 73, 65
1, 953716, Control_c, 0, 67, 38
1, 953726, Note_off_c, 0, 53, 55
1, 953733, Note_off_c, 0, 41, 50
1, 953745, Control_c, 0, 64, 97
1, 953745, Control_c, 0, 67, 38
1, 953760, Control_c, 0, 64, 79
1, 953760, Control_c, 0, 67, 39
1, 953774, Control_c, 0, 64, 65
1, 953789, Control_c, 0, 64, 0
1, 953893, Control_c, 0, 67, 38
1, 953908, Control_c, 0, 64, 54
1, 953911, Note_on_c, 0, 87, 66
1, 953913, Note_on_c, 0, 56, 49
1, 953920, Note_on_c, 0, 44, 45
1, 953922, Control_c, 0, 64, 66
1, 953922, Control_c, 0, 67, 38
1, 953937, Control_c, 0, 64, 72
1, 953952, Control_c, 0, 64, 80
1, 953952, Control_c, 0, 67, 37
1, 953967, Control_c, 0, 64, 90
1, 953982, Control_c, 0, 64, 105
1, 953997, Control_c, 0, 64, 127
1, 953998, Note_off_c, 0, 87, 54
1, 954000, Note_on_c, 0, 84, 60
1, 954002, Note_off_c, 0, 56, 60
1, 954008, Note_off_c, 0, 44, 60
1, 954012, Control_c, 0, 67, 37
1, 954078, Note_off_c, 0, 84, 60
1, 954092, Note_on_c, 0, 80, 59
1, 954125, Note_off_c, 0, 80, 64
1, 954177, Note_on_c, 0, 75, 52
1, 954203, Note_off_c, 0, 75, 65
1, 954206, Control_c, 0, 67, 37
1, 954268, Note_on_c, 0, 60, 55
1, 954272, Note_on_c, 0, 48, 62
1, 954283, Note_on_c, 0, 72, 59
1, 954289, Note_off_c, 0, 60, 62
1, 954301, Note_off_c, 0, 72, 64
1, 954304, Note_off_c, 0, 48, 64
1, 954325, Control_c, 0, 64, 106
1, 954340, Control_c, 0, 64, 83
1, 954340, Control_c, 0, 67, 38
1, 954354, Control_c, 0, 64, 64
1, 954369, Control_c, 0, 64, 0
1, 954480, Control_c, 0, 64, 46
1, 954495, Control_c, 0, 64, 63
1, 954502, Note_on_c, 0, 90, 65
1, 954503, Note_on_c, 0, 51, 44
1, 954508, Note_on_c, 0, 39, 48
1, 954510, Control_c, 0, 64, 68
1, 954524, Control_c, 0, 64, 73
1, 954539, Control_c, 0, 64, 80
1, 954554, Control_c, 0, 64, 92
1, 954569, Control_c, 0, 64, 105
1, 954584, Control_c, 0, 64, 127
1, 954596, Note_on_c, 0, 87, 63
1, 954598, Control_c, 0, 67, 37
1, 954603, Note_off_c, 0, 90, 54
1, 954667, Note_off_c, 0, 51, 64
1, 954683, Note_off_c, 0, 87, 61
1, 954689, Note_on_c, 0, 82, 64
1, 954715, Note_off_c, 0, 39, 35
1, 954736, Note_off_c, 0, 82, 61
1, 954774, Note_on_c, 0, 78, 55
1, 954820, Note_off_c, 0, 78, 58
1, 954820, Control_c, 0, 67, 38
1, 954835, Control_c, 0, 67, 38
1, 954865, Control_c, 0, 67, 39
1, 954867, Note_on_c, 0, 42, 54
1, 954872, Note_on_c, 0, 54, 52
1, 954879, Note_on_c, 0, 75, 54
1, 954894, Control_c, 0, 64, 94
1, 954894, Control_c, 0, 67, 39
1, 954897, Note_off_c, 0, 42, 62
1, 954899, Note_off_c, 0, 54, 65
1, 954901, Note_off_c, 0, 75, 61
1, 954909, Control_c, 0, 64, 77
1, 954925, Control_c, 0, 64, 62
1, 954940, Control_c, 0, 64, 29
1, 954955, Control_c, 0, 64, 17
1, 955014, Control_c, 0, 64, 19
1, 955028, Control_c, 0, 64, 36
1, 955043, Control_c, 0, 64, 53
1, 955058, Control_c, 0, 64, 64
1, 955073, Control_c, 0, 64, 69
1, 955088, Control_c, 0, 64, 75
1, 955094, Note_on_c, 0, 87, 51
1, 955097, Note_on_c, 0, 44, 51
1, 955103, Note_on_c, 0, 56, 48
1, 955103, Control_c, 0, 64, 82
1, 955118, Control_c, 0, 64, 95
1, 955133, Control_c, 0, 64, 110
1, 955154, Control_c, 0, 64, 127
1, 955194, Note_off_c, 0, 56, 60
1, 955204, Note_off_c, 0, 87, 49
1, 955206, Note_off_c, 0, 44, 59
1, 955207, Note_on_c, 0, 83, 49
1, 955275, Note_off_c, 0, 83, 62
1, 955279, Note_on_c, 0, 80, 62
1, 955326, Note_off_c, 0, 80, 60
1, 955368, Note_on_c, 0, 75, 55
1, 955397, Note_off_c, 0, 75, 65
1, 955455, Note_on_c, 0, 59, 54
1, 955465, Note_on_c, 0, 47, 57
1, 955477, Note_off_c, 0, 59, 59
1, 955492, Note_off_c, 0, 47, 66
1, 955496, Note_on_c, 0, 71, 21
1, 955535, Note_off_c, 0, 71, 55
1, 955553, Control_c, 0, 64, 92
1, 955568, Control_c, 0, 64, 74
1, 955583, Control_c, 0, 64, 56
1, 955598, Control_c, 0, 64, 0
1, 955642, Control_c, 0, 64, 24
1, 955642, Control_c, 0, 67, 39
1, 955657, Control_c, 0, 64, 55
1, 955657, Control_c, 0, 67, 38
1, 955672, Control_c, 0, 64, 64
1, 955672, Control_c, 0, 67, 38
1, 955687, Control_c, 0, 64, 70
1, 955687, Control_c, 0, 67, 37
1, 955693, Note_on_c, 0, 52, 43
1, 955694, Note_on_c, 0, 92, 70
1, 955702, Control_c, 0, 64, 77
1, 955702, Control_c, 0, 67, 37
1, 955704, Note_on_c, 0, 40, 36
1, 955717, Control_c, 0, 64, 86
1, 955717, Control_c, 0, 67, 36
1, 955732, Control_c, 0, 64, 99
1, 955732, Control_c, 0, 67, 36
1, 955747, Control_c, 0, 64, 127
1, 955747, Control_c, 0, 67, 35
1, 955762, Control_c, 0, 67, 35
1, 955774, Note_on_c, 0, 88, 67
1, 955777, Control_c, 0, 67, 34
1, 955792, Control_c, 0, 67, 34
1, 955806, Control_c, 0, 67, 33
1, 955821, Control_c, 0, 67, 33
1, 955834, Note_off_c, 0, 52, 61
1, 955836, Control_c, 0, 67, 32
1, 955841, Note_off_c, 0, 92, 40
1, 955855, Note_off_c, 0, 40, 41
1, 955859, Note_on_c, 0, 83, 79
1, 955878, Note_off_c, 0, 88, 60
1, 955881, Control_c, 0, 67, 32
1, 955938, Note_off_c, 0, 83, 65
1, 955946, Note_on_c, 0, 80, 73
1, 955984, Note_off_c, 0, 80, 60
1, 956036, Control_c, 0, 67, 32
1, 956051, Control_c, 0, 67, 33
1, 956057, Note_on_c, 0, 44, 62
1, 956058, Note_on_c, 0, 56, 61
1, 956064, Note_on_c, 0, 76, 71
1, 956066, Control_c, 0, 67, 33
1, 956084, Note_off_c, 0, 56, 65
1, 956084, Note_off_c, 0, 44, 65
1, 956084, Note_off_c, 0, 76, 66
1, 956096, Control_c, 0, 67, 34
1, 956110, Control_c, 0, 64, 124
1, 956110, Control_c, 0, 67, 34
1, 956125, Control_c, 0, 64, 92
1, 956140, Control_c, 0, 64, 75
1, 956155, Control_c, 0, 64, 62
1, 956155, Control_c, 0, 67, 35
1, 956169, Control_c, 0, 64, 0
1, 956258, Control_c, 0, 64, 50
1, 956273, Control_c, 0, 64, 64
1, 956285, Note_on_c, 0, 59, 50
1, 956286, Note_on_c, 0, 90, 67
1, 956288, Note_on_c, 0, 47, 52
1, 956288, Control_c, 0, 64, 69
1, 956302, Control_c, 0, 64, 76
1, 956317, Control_c, 0, 64, 85
1, 956332, Control_c, 0, 64, 97
1, 956347, Control_c, 0, 64, 118
1, 956362, Control_c, 0, 64, 127
1, 956375, Note_on_c, 0, 87, 71
1, 956379, Note_off_c, 0, 47, 63
1, 956391, Note_off_c, 0, 90, 56
1, 956397, Note_off_c, 0, 59, 60
1, 956457, Note_on_c, 0, 83, 72
1, 956463, Note_off_c, 0, 87, 61
1, 956465, Control_c, 0, 67, 35
1, 956495, Control_c, 0, 67, 36
1, 956510, Control_c, 0, 67, 36
1, 956512, Note_off_c, 0, 83, 63
1, 956540, Control_c, 0, 67, 37
1, 956551, Note_on_c, 0, 78, 59
1, 956555, Control_c, 0, 67, 38
1, 956570, Control_c, 0, 67, 38
1, 956585, Control_c, 0, 67, 39
1, 956590, Note_off_c, 0, 78, 57
1, 956599, Control_c, 0, 67, 40
1, 956614, Control_c, 0, 67, 40
1, 956629, Control_c, 0, 67, 41
1, 956652, Control_c, 0, 67, 42
1, 956656, Note_on_c, 0, 63, 55
1, 956659, Note_on_c, 0, 51, 65
1, 956662, Note_on_c, 0, 75, 56
1, 956680, Note_off_c, 0, 63, 59
1, 956681, Control_c, 0, 67, 43
1, 956683, Note_off_c, 0, 75, 62
1, 956691, Note_off_c, 0, 51, 65
1, 956696, Control_c, 0, 67, 44
1, 956711, Control_c, 0, 67, 44
1, 956725, Control_c, 0, 67, 46
1, 956740, Control_c, 0, 67, 48
1, 956755, Control_c, 0, 64, 96
1, 956770, Control_c, 0, 64, 75
1, 956770, Control_c, 0, 67, 48
1, 956785, Control_c, 0, 64, 49
1, 956799, Control_c, 0, 64, 0
1, 956814, Control_c, 0, 67, 48
1, 956844, Control_c, 0, 67, 47
1, 956859, Control_c, 0, 67, 46
1, 956874, Control_c, 0, 67, 46
1, 956875, Note_on_c, 0, 93, 75
1, 956881, Note_on_c, 0, 42, 56
1, 956888, Control_c, 0, 64, 14
1, 956888, Control_c, 0, 67, 45
1, 956889, Note_on_c, 0, 54, 44
1, 956903, Control_c, 0, 64, 63
1, 956903, Control_c, 0, 67, 44
1, 956918, Control_c, 0, 64, 70
1, 956918, Control_c, 0, 67, 43
1, 956933, Control_c, 0, 64, 80
1, 956933, Control_c, 0, 67, 42
1, 956948, Control_c, 0, 64, 93
1, 956948, Control_c, 0, 67, 41
1, 956963, Control_c, 0, 64, 114
1, 956964, Note_on_c, 0, 90, 77
1, 956978, Control_c, 0, 64, 127
1, 956978, Control_c, 0, 67, 40
1, 956990, Note_off_c, 0, 93, 62
1, 956995, Note_off_c, 0, 54, 64
1, 957006, Note_off_c, 0, 42, 62
1, 957053, Note_on_c, 0, 85, 80
1, 957070, Note_off_c, 0, 90, 61
1, 957113, Note_off_c, 0, 85, 65
1, 957127, Note_on_c, 0, 81, 71
1, 957179, Note_off_c, 0, 81, 63
1, 957227, Note_on_c, 0, 78, 72
1, 957229, Note_on_c, 0, 45, 66
1, 957230, Control_c, 0, 67, 41
1, 957231, Note_on_c, 0, 57, 58
1, 957249, Note_off_c, 0, 78, 70
1, 957254, Note_off_c, 0, 57, 62
1, 957256, Note_off_c, 0, 45, 66
1, 957260, Control_c, 0, 64, 103
1, 957260, Control_c, 0, 67, 42
1, 957274, Control_c, 0, 64, 82
1, 957274, Control_c, 0, 67, 42
1, 957289, Control_c, 0, 64, 68
1, 957289, Control_c, 0, 67, 43
1, 957304, Control_c, 0, 64, 24
1, 957304, Control_c, 0, 67, 43
1, 957320, Control_c, 0, 64, 0
1, 957461, Control_c, 0, 64, 63
1, 957466, Note_on_c, 0, 90, 62
1, 957476, Control_c, 0, 64, 70
1, 957477, Note_on_c, 0, 47, 44
1, 957488, Note_on_c, 0, 59, 36
1, 957491, Control_c, 0, 64, 79
1, 957505, Control_c, 0, 64, 93
1, 957520, Control_c, 0, 64, 114
1, 957535, Control_c, 0, 64, 127
1, 957538, Note_off_c, 0, 59, 0
1, 957538, Note_on_c, 0, 59, 11
1, 957555, Note_on_c, 0, 86, 58
1, 957556, Note_off_c, 0, 90, 60
1, 957610, Note_off_c, 0, 59, 59
1, 957611, Note_off_c, 0, 47, 49
1, 957631, Note_off_c, 0, 86, 60
1, 957638, Control_c, 0, 67, 44
1, 957643, Note_on_c, 0, 83, 59
1, 957653, Control_c, 0, 67, 44
1, 957675, Note_off_c, 0, 83, 64
1, 957683, Control_c, 0, 67, 45
1, 957697, Control_c, 0, 67, 45
1, 957712, Control_c, 0, 67, 47
1, 957718, Note_on_c, 0, 78, 61
1, 957727, Control_c, 0, 67, 49
1, 957741, Note_off_c, 0, 78, 66
1, 957741, Control_c, 0, 67, 50
1, 957756, Control_c, 0, 67, 55
1, 957771, Control_c, 0, 67, 66
1, 957786, Control_c, 0, 67, 81
1, 957801, Control_c, 0, 67, 96
1, 957816, Control_c, 0, 67, 109
1, 957830, Note_on_c, 0, 62, 49
1, 957830, Control_c, 0, 67, 122
1, 957832, Note_on_c, 0, 74, 53
1, 957839, Note_on_c, 0, 50, 55
1, 957845, Control_c, 0, 67, 127
1, 957854, Note_off_c, 0, 74, 61
1, 957856, Note_off_c, 0, 62, 57
1, 957868, Note_off_c, 0, 50, 67
1, 957935, Control_c, 0, 64, 111
1, 957949, Control_c, 0, 64, 83
1, 957964, Control_c, 0, 64, 64
1, 957979, Control_c, 0, 64, 0
1, 958049, Note_on_c, 0, 95, 68
1, 958060, Note_on_c, 0, 43, 48
1, 958067, Control_c, 0, 64, 26
1, 958069, Note_on_c, 0, 55, 44
1, 958082, Control_c, 0, 64, 64
1, 958097, Control_c, 0, 64, 71
1, 958113, Control_c, 0, 64, 80
1, 958128, Control_c, 0, 64, 94
1, 958150, Control_c, 0, 64, 118
1, 958151, Note_on_c, 0, 89, 66
1, 958165, Control_c, 0, 64, 127
1, 958171, Note_off_c, 0, 95, 48
1, 958195, Note_off_c, 0, 43, 56
1, 958218, Note_off_c, 0, 55, 64
1, 958224, Control_c, 0, 67, 127
1, 958239, Control_c, 0, 67, 124
1, 958241, Note_on_c, 0, 86, 73
1, 958248, Note_off_c, 0, 89, 58
1, 958254, Control_c, 0, 67, 121
1, 958269, Control_c, 0, 67, 118
1, 958284, Control_c, 0, 67, 116
1, 958292, Note_off_c, 0, 86, 65
1, 958298, Control_c, 0, 67, 113
1, 958313, Note_on_c, 0, 83, 64
1, 958313, Control_c, 0, 67, 109
1, 958328, Control_c, 0, 67, 103
1, 958339, Note_off_c, 0, 83, 68
1, 958343, Control_c, 0, 67, 96
1, 958358, Control_c, 0, 67, 90
1, 958372, Control_c, 0, 67, 84
1, 958387, Control_c, 0, 67, 79
1, 958402, Control_c, 0, 67, 76
1, 958417, Control_c, 0, 67, 73
1, 958418, Note_on_c, 0, 77, 72
1, 958426, Note_on_c, 0, 59, 58
1, 958430, Note_on_c, 0, 47, 66
1, 958432, Control_c, 0, 67, 72
1, 958435, Note_off_c, 0, 77, 69
1, 958447, Note_off_c, 0, 59, 61
1, 958456, Note_off_c, 0, 47, 67
1, 958476, Control_c, 0, 67, 73
1, 958490, Control_c, 0, 67, 73
1, 958505, Control_c, 0, 67, 74
1, 958520, Control_c, 0, 67, 74
1, 958564, Control_c, 0, 64, 87
1, 958579, Control_c, 0, 64, 64
1, 958579, Control_c, 0, 67, 74
1, 958594, Control_c, 0, 64, 0
1, 958609, Control_c, 0, 67, 73
1, 958620, Note_on_c, 0, 96, 81
1, 958624, Control_c, 0, 67, 72
1, 958631, Note_on_c, 0, 43, 65
1, 958632, Note_on_c, 0, 55, 64
1, 958638, Control_c, 0, 67, 72
1, 958653, Control_c, 0, 64, 62
1, 958653, Control_c, 0, 67, 70
1, 958668, Control_c, 0, 64, 73
1, 958668, Control_c, 0, 67, 68
1, 958683, Control_c, 0, 64, 88
1, 958683, Control_c, 0, 67, 62
1, 958698, Control_c, 0, 64, 127
1, 958698, Control_c, 0, 67, 55
1, 958710, Note_on_c, 0, 91, 82
1, 958713, Control_c, 0, 67, 47
1, 958728, Control_c, 0, 67, 37
1, 958730, Note_off_c, 0, 96, 58
1, 958743, Control_c, 0, 67, 29
1, 958758, Control_c, 0, 67, 22
1, 958772, Control_c, 0, 67, 15
1, 958778, Note_off_c, 0, 55, 65
1, 958782, Note_off_c, 0, 43, 63
1, 958787, Control_c, 0, 67, 8
1, 958800, Note_on_c, 0, 88, 87
1, 958802, Control_c, 0, 67, 0
1, 958833, Note_off_c, 0, 91, 65
1, 958874, Note_off_c, 0, 88, 64
1, 958876, Note_on_c, 0, 84, 74
1, 958910, Note_off_c, 0, 84, 66
1, 958985, Note_on_c, 0, 60, 75
1, 958986, Note_on_c, 0, 76, 79
1, 958991, Note_on_c, 0, 48, 80
1, 959007, Note_off_c, 0, 60, 69
1, 959007, Note_off_c, 0, 76, 70
1, 959023, Note_off_c, 0, 48, 67
1, 959151, Control_c, 0, 64, 111
1, 959166, Control_c, 0, 64, 76
1, 959181, Control_c, 0, 64, 0
1, 959192, Note_on_c, 0, 97, 87
1, 959196, Note_on_c, 0, 55, 81
1, 959199, Note_on_c, 0, 43, 82
1, 959240, Control_c, 0, 64, 24
1, 959255, Control_c, 0, 64, 68
1, 959270, Control_c, 0, 64, 87
1, 959280, Note_on_c, 0, 94, 86
1, 959285, Control_c, 0, 64, 127
1, 959339, Note_off_c, 0, 97, 60
1, 959352, Note_off_c, 0, 55, 65
1, 959353, Note_off_c, 0, 43, 65
1, 959366, Note_on_c, 0, 87, 93
1, 959385, Note_off_c, 0, 94, 65
1, 959443, Note_off_c, 0, 87, 65
1, 959446, Note_on_c, 0, 85, 75
1, 959468, Note_off_c, 0, 85, 69
1, 959541, Note_on_c, 0, 49, 86
1, 959543, Note_on_c, 0, 61, 81
1, 959550, Note_on_c, 0, 75, 79
1, 959567, Note_off_c, 0, 61, 67
1, 959568, Note_off_c, 0, 49, 69
1, 959569, Note_off_c, 0, 75, 72
1, 959707, Control_c, 0, 64, 107
1, 959723, Control_c, 0, 64, 72
1, 959738, Control_c, 0, 64, 0
1, 959750, Poly_aftertouch_c, 0, 46, 0
1, 959764, Note_on_c, 0, 43, 87
1, 959764, Note_on_c, 0, 55, 90
1, 959767, Note_on_c, 0, 98, 95
1, 959782, Control_c, 0, 64, 36
1, 959797, Control_c, 0, 64, 69
1, 959812, Control_c, 0, 64, 92
1, 959826, Control_c, 0, 64, 127
1, 959852, Note_on_c, 0, 95, 94
1, 959893, Note_off_c, 0, 98, 63
1, 959911, Note_off_c, 0, 43, 65
1, 959915, Note_off_c, 0, 55, 64
1, 959942, Note_on_c, 0, 89, 97
1, 959962, Note_off_c, 0, 95, 60
1, 959978, Note_on_c, 0, 94, 20
1, 959979, Note_off_c, 0, 94, 127
1, 960013, Note_on_c, 0, 86, 85
1, 960017, Note_off_c, 0, 89, 67
1, 960054, Note_off_c, 0, 86, 62
1, 960119, Note_on_c, 0, 62, 79
1, 960121, Note_on_c, 0, 50, 85
1, 960130, Note_on_c, 0, 74, 89
1, 960139, Note_off_c, 0, 62, 71
1, 960146, Note_off_c, 0, 74, 74
1, 960158, Note_off_c, 0, 50, 66
1, 960256, Control_c, 0, 64, 73
1, 960271, Control_c, 0, 64, 0
1, 960300, Control_c, 0, 64, 45
1, 960315, Control_c, 0, 64, 69
1, 960323, Poly_aftertouch_c, 0, 46, 0
1, 960328, Note_on_c, 0, 55, 98
1, 960330, Note_on_c, 0, 101, 99
1, 960330, Control_c, 0, 64, 87
1, 960332, Note_on_c, 0, 43, 88
1, 960344, Control_c, 0, 64, 127
1, 960345, Note_on_c, 0, 100, 65
1, 960356, Poly_aftertouch_c, 0, 94, 0
1, 960358, Note_off_c, 0, 43, 68
1, 960362, Note_off_c, 0, 55, 64
1, 960374, Control_c, 0, 64, 104
1, 960375, Note_off_c, 0, 100, 0
1, 960397, Control_c, 0, 64, 78
1, 960397, Poly_aftertouch_c, 0, 46, 0
1, 960400, Note_on_c, 0, 100, 26
1, 960412, Control_c, 0, 64, 0
1, 960418, Note_on_c, 0, 95, 91
1, 960450, Note_off_c, 0, 101, 63
1, 960457, Note_off_c, 0, 100, 57
1, 960510, Note_on_c, 0, 92, 93
1, 960522, Note_off_c, 0, 95, 58
1, 960546, Control_c, 0, 64, 37
1, 960560, Control_c, 0, 64, 52
1, 960575, Control_c, 0, 64, 60
1, 960583, Note_on_c, 0, 89, 82
1, 960583, Note_off_c, 0, 92, 66
1, 960590, Control_c, 0, 64, 64
1, 960605, Control_c, 0, 64, 68
1, 960620, Control_c, 0, 64, 73
1, 960635, Control_c, 0, 64, 84
1, 960635, Note_off_c, 0, 89, 63
1, 960649, Control_c, 0, 64, 96
1, 960664, Control_c, 0, 64, 98
1, 960679, Control_c, 0, 64, 97
1, 960683, Note_on_c, 0, 83, 85
1, 960692, Note_on_c, 0, 68, 104
1, 960693, Note_on_c, 0, 56, 100
1, 960694, Control_c, 0, 64, 88
1, 960701, Note_off_c, 0, 83, 73
1, 960709, Control_c, 0, 64, 72
1, 960723, Control_c, 0, 64, 0
1, 960895, Note_on_c, 0, 100, 97
1, 960931, Control_c, 0, 64, 41
1, 960946, Control_c, 0, 64, 97
1, 960960, Control_c, 0, 64, 127
1, 960974, Note_on_c, 0, 96, 91
1, 961026, Note_off_c, 0, 100, 60
1, 961043, Note_off_c, 0, 68, 60
1, 961068, Note_on_c, 0, 91, 93
1, 961095, Note_off_c, 0, 96, 64
1, 961148, Note_on_c, 0, 88, 79
1, 961148, Note_off_c, 0, 91, 67
1, 961195, Note_off_c, 0, 88, 66
1, 961211, Note_off_c, 0, 56, 62
1, 961244, Note_on_c, 0, 67, 80
1, 961244, Note_on_c, 0, 84, 79
1, 961248, Note_on_c, 0, 55, 86
1, 961261, Note_off_c, 0, 84, 70
1, 961263, Note_off_c, 0, 67, 70
1, 961276, Note_off_c, 0, 55, 66
1, 961279, Control_c, 0, 64, 78
1, 961293, Control_c, 0, 64, 0
1, 961443, Control_c, 0, 64, 69
1, 961449, Note_on_c, 0, 55, 86
1, 961449, Note_on_c, 0, 99, 79
1, 961457, Note_on_c, 0, 43, 61
1, 961458, Control_c, 0, 64, 99
1, 961470, Note_off_c, 0, 55, 69
1, 961472, Control_c, 0, 64, 127
1, 961481, Note_off_c, 0, 43, 61
1, 961524, Note_on_c, 0, 96, 81
1, 961531, Control_c, 0, 64, 114
1, 961546, Control_c, 0, 64, 78
1, 961561, Control_c, 0, 64, 0
1, 961573, Note_off_c, 0, 99, 64
1, 961625, Note_on_c, 0, 93, 85
1, 961637, Note_off_c, 0, 96, 64
1, 961664, Control_c, 0, 64, 40
1, 961679, Control_c, 0, 64, 55
1, 961688, Note_off_c, 0, 93, 66
1, 961694, Control_c, 0, 64, 62
1, 961700, Note_on_c, 0, 87, 86
1, 961709, Control_c, 0, 64, 66
1, 961724, Control_c, 0, 64, 71
1, 961738, Control_c, 0, 64, 78
1, 961744, Note_off_c, 0, 87, 61
1, 961753, Control_c, 0, 64, 87
1, 961768, Control_c, 0, 64, 97
1, 961783, Control_c, 0, 64, 96
1, 961798, Control_c, 0, 64, 84
1, 961808, Note_on_c, 0, 54, 89
1, 961809, Note_on_c, 0, 66, 93
1, 961811, Note_on_c, 0, 81, 83
1, 961813, Control_c, 0, 64, 66
1, 961828, Note_off_c, 0, 81, 73
1, 961828, Control_c, 0, 64, 0
1, 962032, Note_on_c, 0, 98, 101
1, 962072, Control_c, 0, 64, 60
1, 962087, Control_c, 0, 64, 96
1, 962102, Control_c, 0, 64, 127
1, 962120, Note_on_c, 0, 95, 95
1, 962150, Note_off_c, 0, 66, 59
1, 962167, Note_off_c, 0, 98, 62
1, 962203, Note_on_c, 0, 92, 95
1, 962239, Note_off_c, 0, 95, 63
1, 962282, Note_on_c, 0, 86, 88
1, 962289, Note_off_c, 0, 92, 65
1, 962332, Note_off_c, 0, 86, 67
1, 962338, Note_off_c, 0, 54, 60
1, 962368, Note_on_c, 0, 65, 77
1, 962377, Note_on_c, 0, 53, 80
1, 962384, Note_on_c, 0, 83, 77
1, 962384, Control_c, 0, 64, 100
1, 962391, Note_off_c, 0, 65, 71
1, 962399, Control_c, 0, 64, 66
1, 962403, Note_off_c, 0, 53, 70
1, 962403, Note_off_c, 0, 83, 67
1, 962413, Control_c, 0, 64, 0
1, 962576, Note_on_c, 0, 55, 78
1, 962576, Note_on_c, 0, 43, 74
1, 962576, Note_on_c, 0, 96, 89
1, 962576, Control_c, 0, 64, 74
1, 962591, Control_c, 0, 64, 97
1, 962600, Note_off_c, 0, 55, 67
1, 962600, Note_off_c, 0, 43, 63
1, 962606, Control_c, 0, 64, 127
1, 962672, Control_c, 0, 64, 103
1, 962675, Note_on_c, 0, 91, 86
1, 962687, Control_c, 0, 64, 73
1, 962695, Note_off_c, 0, 96, 62
1, 962702, Control_c, 0, 64, 0
1, 962767, Note_on_c, 0, 88, 86
1, 962789, Note_off_c, 0, 91, 60
1, 962806, Control_c, 0, 64, 39
1, 962820, Control_c, 0, 64, 57
1, 962835, Control_c, 0, 64, 64
1, 962840, Note_off_c, 0, 88, 64
1, 962841, Note_on_c, 0, 84, 80
1, 962850, Control_c, 0, 64, 67
1, 962865, Control_c, 0, 64, 71
1, 962880, Control_c, 0, 64, 75
1, 962888, Note_off_c, 0, 84, 64
1, 962895, Control_c, 0, 64, 76
1, 962910, Control_c, 0, 64, 73
1, 962925, Control_c, 0, 64, 61
1, 962940, Control_c, 0, 64, 0
1, 962949, Note_on_c, 0, 79, 65
1, 962954, Note_on_c, 0, 52, 91
1, 962954, Note_on_c, 0, 64, 96
1, 962967, Note_off_c, 0, 79, 65
1, 963154, Note_on_c, 0, 93, 97
1, 963193, Control_c, 0, 64, 76
1, 963208, Control_c, 0, 64, 98
1, 963223, Control_c, 0, 64, 127
1, 963242, Note_on_c, 0, 90, 86
1, 963268, Note_off_c, 0, 64, 65
1, 963288, Note_off_c, 0, 93, 58
1, 963335, Note_on_c, 0, 84, 75
1, 963361, Note_off_c, 0, 90, 63
1, 963402, Note_off_c, 0, 84, 66
1, 963425, Note_on_c, 0, 81, 71
1, 963476, Note_off_c, 0, 81, 63
1, 963501, Note_on_c, 0, 63, 72
1, 963509, Note_on_c, 0, 51, 77
1, 963511, Control_c, 0, 64, 102
1, 963513, Note_off_c, 0, 52, 59
1, 963514, Note_on_c, 0, 78, 73
1, 963526, Control_c, 0, 64, 76
1, 963527, Note_off_c, 0, 63, 68
1, 963532, Note_off_c, 0, 78, 69
1, 963537, Note_off_c, 0, 51, 69
1, 963541, Control_c, 0, 64, 0
1, 963701, Note_on_c, 0, 43, 59
1, 963703, Note_on_c, 0, 55, 59
1, 963703, Control_c, 0, 64, 68
1, 963706, Note_on_c, 0, 90, 77
1, 963718, Control_c, 0, 64, 85
1, 963724, Note_off_c, 0, 55, 62
1, 963728, Note_off_c, 0, 43, 57
1, 963733, Control_c, 0, 64, 127
1, 963789, Note_on_c, 0, 87, 68
1, 963825, Note_off_c, 0, 90, 60
1, 963837, Control_c, 0, 64, 87
1, 963852, Control_c, 0, 64, 66
1, 963866, Note_on_c, 0, 81, 66
1, 963867, Control_c, 0, 64, 0
1, 963873, Note_off_c, 0, 87, 59
1, 963926, Control_c, 0, 64, 23
1, 963927, Note_off_c, 0, 81, 62
1, 963941, Control_c, 0, 64, 29
1, 963956, Control_c, 0, 64, 38
1, 963962, Note_on_c, 0, 78, 55
1, 963971, Control_c, 0, 64, 47
1, 963985, Control_c, 0, 64, 56
1, 964000, Control_c, 0, 64, 62
1, 964001, Note_off_c, 0, 78, 63
1, 964015, Control_c, 0, 64, 64
1, 964045, Control_c, 0, 64, 49
1, 964059, Control_c, 0, 64, 0
1, 964063, Note_on_c, 0, 48, 76
1, 964064, Note_on_c, 0, 75, 59
1, 964065, Note_on_c, 0, 60, 75
1, 964084, Note_off_c, 0, 75, 62
1, 964273, Note_on_c, 0, 87, 77
1, 964304, Control_c, 0, 64, 67
1, 964318, Control_c, 0, 64, 84
1, 964333, Control_c, 0, 64, 107
1, 964348, Control_c, 0, 64, 127
1, 964352, Note_on_c, 0, 84, 64
1, 964356, Note_off_c, 0, 60, 64
1, 964380, Note_off_c, 0, 87, 61
1, 964439, Note_off_c, 0, 84, 62
1, 964439, Note_on_c, 0, 78, 67
1, 964499, Note_off_c, 0, 78, 61
1, 964529, Note_on_c, 0, 75, 57
1, 964555, Note_off_c, 0, 75, 66
1, 964603, Note_off_c, 0, 48, 58
1, 964615, Control_c, 0, 64, 103
1, 964617, Note_on_c, 0, 45, 72
1, 964624, Note_on_c, 0, 72, 65
1, 964626, Note_on_c, 0, 57, 49
1, 964630, Control_c, 0, 64, 72
1, 964641, Note_off_c, 0, 72, 65
1, 964644, Note_off_c, 0, 45, 66
1, 964645, Control_c, 0, 64, 0
1, 964652, Note_off_c, 0, 57, 56
1, 964832, Note_on_c, 0, 43, 50
1, 964832, Note_on_c, 0, 83, 66
1, 964844, Note_on_c, 0, 55, 45
1, 964868, Control_c, 0, 64, 21
1, 964889, Control_c, 0, 64, 38
1, 964904, Control_c, 0, 64, 47
1, 964917, Note_on_c, 0, 79, 62
1, 964919, Control_c, 0, 64, 54
1, 964922, Note_off_c, 0, 83, 58
1, 964934, Control_c, 0, 64, 57
1, 964949, Control_c, 0, 64, 58
1, 964964, Control_c, 0, 64, 55
1, 964967, Note_off_c, 0, 43, 63
1, 964970, Note_off_c, 0, 55, 64
1, 964979, Control_c, 0, 64, 21
1, 964994, Control_c, 0, 64, 0
1, 964997, Note_off_c, 0, 79, 60
1, 965008, Note_on_c, 0, 74, 66
1, 965057, Note_off_c, 0, 74, 64
1, 965087, Note_on_c, 0, 71, 58
1, 965125, Note_off_c, 0, 71, 62
1, 965181, Note_on_c, 0, 67, 59
1, 965202, Note_off_c, 0, 67, 63
1, 965396, Note_on_c, 0, 43, 70
1, 965424, Note_off_c, 0, 43, 64
1, 965527, Control_c, 0, 64, 19
1, 965542, Control_c, 0, 64, 27
1, 965557, Control_c, 0, 64, 34
1, 965572, Control_c, 0, 64, 40
1, 965587, Control_c, 0, 64, 42
1, 965602, Control_c, 0, 64, 44
1, 965617, Control_c, 0, 64, 47
1, 965638, Control_c, 0, 64, 49
1, 965653, Control_c, 0, 64, 51
1, 965668, Control_c, 0, 64, 53
1, 965682, Control_c, 0, 64, 55
1, 965697, Control_c, 0, 64, 56
1, 965712, Control_c, 0, 64, 51
1, 965727, Control_c, 0, 64, 0
1, 965742, Note_on_c, 0, 44, 67
1, 965767, Note_off_c, 0, 44, 65
1, 965807, Note_on_c, 0, 43, 71
1, 965833, Note_off_c, 0, 43, 63
1, 966020, Note_on_c, 0, 71, 68
1, 966091, Note_off_c, 0, 71, 59
1, 966092, Note_on_c, 0, 67, 64
1, 966096, Control_c, 0, 64, 14
1, 966111, Control_c, 0, 64, 32
1, 966126, Control_c, 0, 64, 41
1, 966141, Control_c, 0, 64, 47
1, 966156, Control_c, 0, 64, 50
1, 966171, Note_off_c, 0, 67, 57
1, 966171, Control_c, 0, 64, 52
1, 966184, Note_on_c, 0, 62, 63
1, 966186, Control_c, 0, 64, 53
1, 966201, Control_c, 0, 64, 55
1, 966231, Control_c, 0, 64, 50
1, 966238, Note_off_c, 0, 62, 61
1, 966246, Control_c, 0, 64, 0
1, 966266, Note_on_c, 0, 59, 57
1, 966306, Note_off_c, 0, 59, 60
1, 966361, Note_on_c, 0, 55, 60
1, 966395, Note_off_c, 0, 55, 66
1, 966573, Note_on_c, 0, 43, 70
1, 966596, Note_off_c, 0, 43, 63
1, 966638, Control_c, 0, 64, 17
1, 966652, Control_c, 0, 64, 40
1, 966667, Control_c, 0, 64, 46
1, 966682, Control_c, 0, 64, 50
1, 966697, Control_c, 0, 64, 53
1, 966712, Control_c, 0, 64, 54
1, 966727, Control_c, 0, 64, 55
1, 966742, Control_c, 0, 64, 56
1, 966757, Control_c, 0, 64, 57
1, 966772, Control_c, 0, 64, 58
1, 966786, Control_c, 0, 64, 59
1, 966801, Control_c, 0, 64, 59
1, 966816, Control_c, 0, 64, 60
1, 966830, Control_c, 0, 64, 60
1, 966845, Control_c, 0, 64, 62
1, 966860, Control_c, 0, 64, 63
1, 966875, Control_c, 0, 64, 63
1, 966919, Note_on_c, 0, 44, 58
1, 966920, Control_c, 0, 64, 59
1, 966935, Control_c, 0, 64, 21
1, 966945, Note_off_c, 0, 44, 62
1, 966950, Control_c, 0, 64, 0
1, 966993, Note_on_c, 0, 43, 63
1, 967018, Note_off_c, 0, 43, 58
1, 967387, Control_c, 0, 64, 21
1, 967387, Control_c, 0, 67, 8
1, 967402, Control_c, 0, 64, 30
1, 967417, Control_c, 0, 64, 37
1, 967432, Control_c, 0, 64, 42
1, 967447, Control_c, 0, 64, 47
1, 967461, Control_c, 0, 64, 50
1, 967476, Control_c, 0, 64, 51
1, 967476, Control_c, 0, 67, 8
1, 967491, Control_c, 0, 64, 49
1, 967506, Control_c, 0, 64, 0
1, 967506, Control_c, 0, 67, 9
1, 967521, Control_c, 0, 67, 10
1, 967530, Note_on_c, 0, 56, 61
1, 967535, Control_c, 0, 67, 12
1, 967538, Note_on_c, 0, 44, 44
1, 967550, Control_c, 0, 67, 14
1, 967560, Note_off_c, 0, 56, 64
1, 967565, Control_c, 0, 67, 16
1, 967569, Note_off_c, 0, 44, 50
1, 967595, Control_c, 0, 67, 16
1, 967599, Note_on_c, 0, 43, 52
1, 967602, Note_on_c, 0, 55, 51
1, 967626, Note_off_c, 0, 55, 60
1, 967629, Note_off_c, 0, 43, 54
1, 967668, Control_c, 0, 67, 16
1, 967699, Control_c, 0, 67, 15
1, 968062, Control_c, 0, 64, 26
1, 968062, Control_c, 0, 67, 16
1, 968076, Control_c, 0, 64, 27
1, 968091, Control_c, 0, 64, 0
1, 968091, Control_c, 0, 67, 16
1, 968114, Note_on_c, 0, 56, 62
1, 968123, Note_on_c, 0, 44, 39
1, 968144, Note_off_c, 0, 56, 64
1, 968151, Control_c, 0, 67, 17
1, 968155, Note_off_c, 0, 44, 48
1, 968177, Note_on_c, 0, 43, 67
1, 968192, Note_on_c, 0, 55, 50
1, 968207, Note_off_c, 0, 43, 64
1, 968216, Note_off_c, 0, 55, 56
1, 968284, Control_c, 0, 67, 16
1, 968491, Control_c, 0, 67, 17
1, 968581, Control_c, 0, 67, 17
1, 968702, Note_on_c, 0, 56, 75
1, 968705, Note_on_c, 0, 44, 50
1, 968734, Note_off_c, 0, 56, 67
1, 968735, Note_off_c, 0, 44, 55
1, 968737, Control_c, 0, 67, 17
1, 968752, Control_c, 0, 67, 16
1, 968768, Note_on_c, 0, 43, 71
1, 968772, Note_on_c, 0, 55, 57
1, 968794, Note_off_c, 0, 55, 60
1, 968794, Note_off_c, 0, 43, 65
1, 968929, Control_c, 0, 64, 19
1, 968944, Control_c, 0, 64, 30
1, 968951, Note_on_c, 0, 44, 76
1, 968959, Control_c, 0, 64, 36
1, 968959, Control_c, 0, 67, 16
1, 968973, Control_c, 0, 64, 40
1, 968988, Control_c, 0, 64, 42
1, 969003, Control_c, 0, 64, 44
1, 969003, Control_c, 0, 67, 15
1, 969018, Control_c, 0, 64, 45
1, 969018, Control_c, 0, 67, 15
1, 969033, Control_c, 0, 67, 13
1, 969045, Note_on_c, 0, 68, 84
1, 969048, Control_c, 0, 64, 45
1, 969048, Control_c, 0, 67, 12
1, 969048, Note_on_c, 0, 56, 81
1, 969053, Note_off_c, 0, 44, 61
1, 969063, Control_c, 0, 67, 12
1, 969077, Control_c, 0, 67, 10
1, 969092, Control_c, 0, 67, 9
1, 969107, Control_c, 0, 64, 46
1, 969107, Control_c, 0, 67, 8
1, 969121, Note_off_c, 0, 56, 62
1, 969122, Control_c, 0, 64, 46
1, 969122, Control_c, 0, 67, 0
1, 969127, Note_off_c, 0, 68, 62
1, 969137, Control_c, 0, 64, 47
1, 969139, Note_on_c, 0, 43, 100
1, 969152, Control_c, 0, 64, 48
1, 969167, Control_c, 0, 64, 49
1, 969181, Control_c, 0, 64, 51
1, 969196, Control_c, 0, 64, 52
1, 969211, Control_c, 0, 64, 53
1, 969212, Note_off_c, 0, 43, 60
1, 969225, Control_c, 0, 64, 53
1, 969228, Note_on_c, 0, 55, 89
1, 969228, Note_on_c, 0, 67, 94
1, 969240, Control_c, 0, 64, 54
1, 969255, Control_c, 0, 64, 55
1, 969265, Note_off_c, 0, 55, 66
1, 969270, Control_c, 0, 64, 55
1, 969273, Note_off_c, 0, 67, 65
1, 969285, Control_c, 0, 64, 56
1, 969301, Control_c, 0, 64, 57
1, 969313, Note_on_c, 0, 41, 105
1, 969316, Control_c, 0, 64, 59
1, 969330, Control_c, 0, 64, 61
1, 969345, Control_c, 0, 64, 62
1, 969349, Note_off_c, 0, 41, 66
1, 969382, Control_c, 0, 64, 63
1, 969386, Note_on_c, 0, 65, 97
1, 969389, Note_on_c, 0, 53, 88
1, 969397, Control_c, 0, 64, 64
1, 969397, Control_c, 0, 67, 8
1, 969411, Note_off_c, 0, 53, 69
1, 969411, Control_c, 0, 64, 65
1, 969411, Control_c, 0, 67, 9
1, 969423, Note_off_c, 0, 65, 68
1, 969426, Control_c, 0, 67, 9
1, 969441, Control_c, 0, 67, 10
1, 969456, Control_c, 0, 64, 64
1, 969456, Control_c, 0, 67, 11
1, 969471, Control_c, 0, 64, 63
1, 969486, Control_c, 0, 64, 59
1, 969501, Control_c, 0, 64, 34
1, 969516, Control_c, 0, 64, 0
1, 969619, Control_c, 0, 67, 10
1, 969634, Control_c, 0, 64, 70
1, 969634, Control_c, 0, 67, 9
1, 969646, Note_on_c, 0, 85, 98
1, 969648, Note_on_c, 0, 73, 101
1, 969648, Control_c, 0, 64, 127
1, 969648, Control_c, 0, 67, 8
1, 969650, Note_on_c, 0, 52, 100
1, 969653, Note_on_c, 0, 79, 89
1, 969653, Note_on_c, 0, 82, 87
1, 969658, Note_on_c, 0, 40, 81
1, 969663, Control_c, 0, 67, 0
1, 969674, Note_off_c, 0, 52, 65
1, 969685, Note_off_c, 0, 40, 66
1, 969833, Note_off_c, 0, 79, 51
1, 969862, Note_off_c, 0, 73, 59
1, 969863, Note_off_c, 0, 82, 55
1, 969873, Note_off_c, 0, 85, 59
1, 969899, Note_on_c, 0, 52, 87
1, 969909, Note_on_c, 0, 61, 88
1, 969920, Note_on_c, 0, 58, 74
1, 969948, Note_off_c, 0, 52, 59
1, 969951, Note_off_c, 0, 58, 61
1, 969954, Note_off_c, 0, 61, 63
1, 969981, Note_on_c, 0, 84, 94
1, 969990, Note_on_c, 0, 72, 80
1, 970004, Note_off_c, 0, 84, 66
1, 970007, Note_off_c, 0, 72, 72
1, 970055, Note_on_c, 0, 67, 90
1, 970059, Note_on_c, 0, 61, 84
1, 970074, Note_off_c, 0, 67, 71
1, 970076, Note_on_c, 0, 58, 50
1, 970079, Control_c, 0, 64, 80
1, 970079, Note_off_c, 0, 61, 71
1, 970081, Note_on_c, 0, 70, 95
1, 970081, Note_on_c, 0, 82, 91
1, 970094, Control_c, 0, 64, 0
1, 970100, Note_on_c, 0, 80, 61
1, 970100, Note_off_c, 0, 58, 61
1, 970108, Note_off_c, 0, 70, 58
1, 970127, Note_off_c, 0, 80, 41
1, 970127, Note_off_c, 0, 82, 64
1, 970265, Control_c, 0, 64, 54
1, 970270, Note_on_c, 0, 53, 103
1, 970279, Control_c, 0, 64, 87
1, 970280, Note_on_c, 0, 43, 80
1, 970291, Note_off_c, 0, 53, 72
1, 970294, Control_c, 0, 64, 127
1, 970303, Note_off_c, 0, 43, 66
1, 970350, Note_on_c, 0, 80, 90
1, 970353, Note_on_c, 0, 68, 86
1, 970373, Note_off_c, 0, 68, 69
1, 970377, Note_off_c, 0, 80, 57
1, 970387, Poly_aftertouch_c, 0, 41, 0
1, 970413, Control_c, 0, 64, 111
1, 970422, Note_on_c, 0, 53, 95
1, 970428, Note_on_c, 0, 60, 82
1, 970428, Control_c, 0, 64, 68
1, 970431, Note_on_c, 0, 79, 97
1, 970432, Note_on_c, 0, 67, 92
1, 970443, Control_c, 0, 64, 0
1, 970449, Note_off_c, 0, 60, 71
1, 970455, Note_off_c, 0, 53, 62
1, 970456, Note_off_c, 0, 67, 65
1, 970464, Note_off_c, 0, 79, 68
1, 970516, Control_c, 0, 64, 21
1, 970531, Control_c, 0, 64, 42
1, 970545, Control_c, 0, 64, 50
1, 970560, Control_c, 0, 64, 54
1, 970575, Control_c, 0, 64, 55
1, 970590, Control_c, 0, 64, 56
1, 970613, Note_on_c, 0, 65, 76
1, 970619, Note_on_c, 0, 56, 73
1, 970624, Note_on_c, 0, 77, 97
1, 970647, Note_off_c, 0, 56, 68
1, 970649, Control_c, 0, 64, 56
1, 970662, Note_off_c, 0, 77, 64
1, 970664, Control_c, 0, 64, 59
1, 970667, Note_off_c, 0, 65, 65
1, 970678, Control_c, 0, 64, 61
1, 970693, Control_c, 0, 64, 63
1, 970708, Control_c, 0, 64, 64
1, 970723, Control_c, 0, 64, 64
1, 970782, Control_c, 0, 64, 63
1, 970797, Control_c, 0, 64, 62
1, 970812, Control_c, 0, 64, 61
1, 970827, Note_on_c, 0, 61, 102
1, 970827, Control_c, 0, 64, 60
1, 970828, Note_on_c, 0, 49, 96
1, 970828, Note_on_c, 0, 64, 94
1, 970828, Note_on_c, 0, 76, 95
1, 970839, Note_on_c, 0, 70, 66
1, 970842, Control_c, 0, 64, 59
1, 970844, Note_on_c, 0, 73, 66
1, 970852, Note_off_c, 0, 64, 65
1, 970857, Control_c, 0, 64, 59
1, 970872, Note_off_c, 0, 70, 67
1, 970877, Note_off_c, 0, 73, 66
1, 970878, Control_c, 0, 64, 59
1, 970883, Note_off_c, 0, 76, 63
1, 970893, Control_c, 0, 64, 60
1, 970909, Control_c, 0, 64, 60
1, 970924, Control_c, 0, 64, 61
1, 970939, Control_c, 0, 64, 62
1, 971010, Note_off_c, 0, 61, 61
1, 971021, Note_off_c, 0, 49, 62
1, 971034, Note_on_c, 0, 77, 92
1, 971037, Note_on_c, 0, 65, 78
1, 971043, Control_c, 0, 64, 62
1, 971057, Note_off_c, 0, 65, 72
1, 971063, Note_off_c, 0, 77, 64
1, 971107, Note_on_c, 0, 60, 97
1, 971110, Note_on_c, 0, 48, 90
1, 971116, Control_c, 0, 64, 61
1, 971125, Note_off_c, 0, 60, 73
1, 971131, Control_c, 0, 64, 60
1, 971133, Note_off_c, 0, 48, 70
1, 971146, Control_c, 0, 64, 59
1, 971161, Control_c, 0, 64, 58
1, 971196, Note_on_c, 0, 79, 92
1, 971197, Note_on_c, 0, 67, 86
1, 971206, Control_c, 0, 64, 59
1, 971209, Note_on_c, 0, 58, 101
1, 971212, Note_on_c, 0, 46, 97
1, 971214, Note_off_c, 0, 79, 70
1, 971221, Control_c, 0, 64, 61
1, 971223, Note_off_c, 0, 67, 63
1, 971224, Note_on_c, 0, 49, 55
1, 971236, Control_c, 0, 64, 61
1, 971250, Control_c, 0, 64, 62
1, 971250, Note_off_c, 0, 49, 58
1, 971254, Note_off_c, 0, 58, 64
1, 971265, Control_c, 0, 64, 62
1, 971274, Note_off_c, 0, 46, 55
1, 971280, Control_c, 0, 64, 63
1, 971294, Control_c, 0, 64, 63
1, 971309, Control_c, 0, 64, 64
1, 971324, Control_c, 0, 64, 64
1, 971339, Control_c, 0, 64, 65
1, 971354, Control_c, 0, 64, 66
1, 971397, Note_on_c, 0, 60, 87
1, 971398, Note_on_c, 0, 65, 81
1, 971398, Note_on_c, 0, 72, 90
1, 971413, Control_c, 0, 64, 65
1, 971427, Control_c, 0, 64, 61
1, 971442, Control_c, 0, 64, 28
1, 971457, Control_c, 0, 64, 0
1, 971477, Note_on_c, 0, 56, 95
1, 971479, Note_on_c, 0, 44, 92
1, 971495, Note_off_c, 0, 56, 74
1, 971499, Note_off_c, 0, 44, 67
1, 971559, Note_on_c, 0, 43, 91
1, 971560, Note_on_c, 0, 55, 91
1, 971566, Note_on_c, 0, 44, 52
1, 971575, Control_c, 0, 64, 36
1, 971581, Note_off_c, 0, 55, 71
1, 971587, Note_off_c, 0, 43, 65
1, 971590, Control_c, 0, 64, 44
1, 971595, Note_off_c, 0, 44, 59
1, 971605, Control_c, 0, 64, 50
1, 971627, Control_c, 0, 64, 55
1, 971642, Control_c, 0, 64, 59
1, 971646, Note_off_c, 0, 60, 65
1, 971656, Note_off_c, 0, 65, 64
1, 971657, Control_c, 0, 64, 62
1, 971672, Control_c, 0, 64, 64
1, 971687, Control_c, 0, 64, 67
1, 971689, Note_off_c, 0, 72, 65
1, 971703, Control_c, 0, 64, 68
1, 971718, Control_c, 0, 64, 70
1, 971732, Control_c, 0, 64, 71
1, 971762, Control_c, 0, 64, 68
1, 971777, Control_c, 0, 64, 57
1, 971780, Note_on_c, 0, 53, 74
1, 971782, Note_on_c, 0, 52, 75
1, 971783, Note_on_c, 0, 40, 80
1, 971792, Control_c, 0, 64, 0
1, 971797, Note_off_c, 0, 53, 67
1, 971801, Note_off_c, 0, 52, 65
1, 971814, Note_off_c, 0, 40, 65
1, 971881, Note_on_c, 0, 72, 75
1, 971915, Note_on_c, 0, 74, 69
1, 971943, Note_on_c, 0, 76, 71
1, 971953, Note_off_c, 0, 72, 64
1, 971957, Note_off_c, 0, 74, 63
1, 971960, Note_on_c, 0, 77, 93
1, 971960, Note_on_c, 0, 51, 90
1, 971966, Note_on_c, 0, 65, 81
1, 971967, Note_on_c, 0, 39, 81
1, 971969, Control_c, 0, 64, 61
1, 971983, Note_off_c, 0, 51, 72
1, 971984, Control_c, 0, 64, 91
1, 971990, Note_off_c, 0, 39, 65
1, 971999, Control_c, 0, 64, 127
1, 972007, Note_off_c, 0, 65, 62
1, 972008, Note_off_c, 0, 76, 62
1, 972017, Note_off_c, 0, 77, 66
1, 972163, Note_on_c, 0, 53, 71
1, 972168, Note_on_c, 0, 57, 64
1, 972177, Control_c, 0, 64, 113
1, 972181, Note_on_c, 0, 51, 67
1, 972191, Control_c, 0, 64, 80
1, 972203, Note_off_c, 0, 57, 60
1, 972206, Control_c, 0, 64, 59
1, 972207, Note_off_c, 0, 53, 64
1, 972211, Note_off_c, 0, 51, 63
1, 972221, Control_c, 0, 64, 0
1, 972228, Note_on_c, 0, 64, 75
1, 972239, Note_on_c, 0, 76, 58
1, 972250, Control_c, 0, 64, 50
1, 972251, Note_off_c, 0, 64, 70
1, 972259, Note_off_c, 0, 76, 61
1, 972265, Control_c, 0, 64, 63
1, 972280, Control_c, 0, 64, 63
1, 972295, Control_c, 0, 64, 11
1, 972304, Note_on_c, 0, 60, 74
1, 972310, Control_c, 0, 64, 0
1, 972312, Note_on_c, 0, 77, 101
1, 972315, Note_on_c, 0, 65, 89
1, 972316, Note_on_c, 0, 57, 51
1, 972322, Note_on_c, 0, 51, 66
1, 972322, Note_on_c, 0, 53, 59
1, 972327, Note_off_c, 0, 60, 70
1, 972332, Note_off_c, 0, 65, 73
1, 972342, Note_off_c, 0, 57, 56
1, 972344, Note_off_c, 0, 77, 68
1, 972345, Note_off_c, 0, 53, 63
1, 972347, Note_off_c, 0, 51, 66
1, 972500, Note_on_c, 0, 49, 101
1, 972511, Control_c, 0, 64, 80
1, 972514, Note_on_c, 0, 39, 74
1, 972522, Note_on_c, 0, 37, 52
1, 972523, Note_off_c, 0, 37, 127
1, 972523, Note_off_c, 0, 49, 67
1, 972526, Control_c, 0, 64, 127
1, 972538, Note_off_c, 0, 39, 61
1, 972572, Note_on_c, 0, 80, 87
1, 972576, Note_on_c, 0, 68, 82
1, 972596, Note_off_c, 0, 68, 69
1, 972601, Note_off_c, 0, 80, 60
1, 972629, Control_c, 0, 64, 88
1, 972644, Control_c, 0, 64, 59
1, 972657, Note_on_c, 0, 53, 79
1, 972657, Note_on_c, 0, 77, 101
1, 972659, Control_c, 0, 64, 0
1, 972660, Note_on_c, 0, 65, 93
1, 972672, Note_on_c, 0, 52, 52
1, 972674, Note_on_c, 0, 61, 59
1, 972678, Note_off_c, 0, 65, 73
1, 972685, Note_off_c, 0, 53, 68
1, 972686, Note_off_c, 0, 77, 68
1, 972697, Note_off_c, 0, 61, 59
1, 972704, Note_off_c, 0, 52, 37
1, 972719, Control_c, 0, 64, 17
1, 972734, Control_c, 0, 64, 49
1, 972748, Control_c, 0, 64, 61
1, 972763, Control_c, 0, 64, 66
1, 972778, Control_c, 0, 64, 72
1, 972793, Control_c, 0, 64, 77
1, 972808, Control_c, 0, 64, 81
1, 972822, Control_c, 0, 64, 79
1, 972837, Control_c, 0, 64, 70
1, 972839, Note_on_c, 0, 61, 55
1, 972843, Note_on_c, 0, 78, 94
1, 972847, Note_on_c, 0, 66, 80
1, 972848, Note_on_c, 0, 58, 63
1, 972852, Control_c, 0, 64, 0
1, 972862, Note_on_c, 0, 65, 30
1, 972863, Note_off_c, 0, 65, 127
1, 972868, Note_off_c, 0, 66, 70
1, 972870, Note_off_c, 0, 61, 66
1, 972872, Note_off_c, 0, 78, 60
1, 972873, Note_off_c, 0, 58, 67
1, 973033, Note_on_c, 0, 47, 83
1, 973033, Note_on_c, 0, 48, 87
1, 973042, Note_on_c, 0, 35, 64
1, 973045, Control_c, 0, 64, 70
1, 973051, Note_on_c, 0, 36, 59
1, 973054, Note_off_c, 0, 48, 67
1, 973057, Note_off_c, 0, 47, 69
1, 973060, Control_c, 0, 64, 97
1, 973069, Note_off_c, 0, 35, 62
1, 973074, Control_c, 0, 64, 127
1, 973080, Note_off_c, 0, 36, 54
1, 973102, Note_on_c, 0, 70, 94
1, 973102, Note_on_c, 0, 82, 87
1, 973125, Note_off_c, 0, 70, 73
1, 973126, Note_off_c, 0, 82, 72
1, 973136, Note_on_c, 0, 80, 38
1, 973161, Note_off_c, 0, 80, 59
1, 973185, Control_c, 0, 64, 74
1, 973193, Note_on_c, 0, 58, 78
1, 973195, Note_on_c, 0, 80, 95
1, 973197, Note_on_c, 0, 68, 99
1, 973197, Poly_aftertouch_c, 0, 48, 0
1, 973198, Note_on_c, 0, 52, 66
1, 973200, Control_c, 0, 64, 0
1, 973203, Note_on_c, 0, 61, 61
1, 973218, Note_off_c, 0, 58, 69
1, 973223, Note_off_c, 0, 52, 60
1, 973230, Note_off_c, 0, 61, 64
1, 973233, Note_off_c, 0, 68, 58
1, 973239, Note_off_c, 0, 80, 65
1, 973305, Control_c, 0, 64, 45
1, 973320, Control_c, 0, 64, 62
1, 973335, Control_c, 0, 64, 66
1, 973350, Control_c, 0, 64, 70
1, 973365, Control_c, 0, 64, 73
1, 973372, Note_on_c, 0, 64, 70
1, 973379, Control_c, 0, 64, 76
1, 973388, Note_on_c, 0, 81, 101
1, 973391, Note_on_c, 0, 69, 95
1, 973391, Note_off_c, 0, 64, 68
1, 973394, Control_c, 0, 64, 74
1, 973402, Note_on_c, 0, 57, 52
1, 973407, Note_off_c, 0, 69, 73
1, 973409, Control_c, 0, 64, 65
1, 973420, Note_off_c, 0, 81, 70
1, 973424, Control_c, 0, 64, 0
1, 973427, Note_off_c, 0, 57, 58
1, 973441, Note_on_c, 0, 60, 3
1, 973474, Note_off_c, 0, 60, 29
1, 973581, Note_on_c, 0, 84, 95
1, 973587, Note_on_c, 0, 72, 84
1, 973593, Note_on_c, 0, 37, 62
1, 973603, Note_off_c, 0, 72, 73
1, 973607, Note_off_c, 0, 84, 67
1, 973621, Note_off_c, 0, 37, 39
1, 973690, Control_c, 0, 64, 80
1, 973705, Control_c, 0, 64, 127
1, 973771, Note_on_c, 0, 53, 74
1, 973774, Note_on_c, 0, 70, 91
1, 973774, Note_on_c, 0, 82, 89
1, 973790, Note_on_c, 0, 61, 61
1, 973792, Note_off_c, 0, 70, 68
1, 973793, Note_on_c, 0, 80, 63
1, 973795, Note_on_c, 0, 58, 62
1, 973795, Note_off_c, 0, 82, 68
1, 973807, Note_off_c, 0, 53, 61
1, 973811, Note_off_c, 0, 80, 65
1, 973820, Note_off_c, 0, 61, 61
1, 973836, Note_off_c, 0, 58, 56
1, 973943, Note_on_c, 0, 65, 81
1, 973953, Note_on_c, 0, 61, 71
1, 973957, Note_on_c, 0, 58, 58
1, 973959, Note_on_c, 0, 71, 80
1, 973963, Note_off_c, 0, 65, 71
1, 973975, Note_off_c, 0, 61, 67
1, 973983, Note_off_c, 0, 58, 67
1, 973997, Note_off_c, 0, 71, 61
1, 974005, Note_on_c, 0, 74, 62
1, 974031, Note_on_c, 0, 80, 81
1, 974032, Note_off_c, 0, 74, 67
1, 974041, Note_on_c, 0, 77, 46
1, 974049, Note_off_c, 0, 80, 72
1, 974064, Note_off_c, 0, 77, 61
1, 974123, Note_on_c, 0, 83, 63
1, 974124, Note_on_c, 0, 84, 67
1, 974149, Note_off_c, 0, 83, 68
1, 974149, Note_off_c, 0, 84, 67
1, 974152, Note_on_c, 0, 86, 56
1, 974174, Note_on_c, 0, 88, 53
1, 974181, Note_on_c, 0, 92, 85
1, 974193, Note_on_c, 0, 50, 98
1, 974194, Note_off_c, 0, 88, 61
1, 974195, Note_on_c, 0, 95, 100
1, 974199, Note_on_c, 0, 38, 86
1, 974199, Note_on_c, 0, 90, 46
1, 974201, Note_off_c, 0, 86, 66
1, 974212, Note_off_c, 0, 50, 72
1, 974216, Control_c, 0, 64, 98
1, 974223, Note_off_c, 0, 38, 69
1, 974223, Note_off_c, 0, 90, 58
1, 974229, Note_off_c, 0, 92, 68
1, 974231, Control_c, 0, 64, 65
1, 974240, Note_on_c, 0, 44, 22
1, 974244, Note_off_c, 0, 95, 67
1, 974246, Control_c, 0, 64, 0
1, 974283, Note_off_c, 0, 44, 46
1, 974306, Control_c, 0, 64, 51
1, 974320, Control_c, 0, 64, 64
1, 974335, Control_c, 0, 64, 67
1, 974350, Control_c, 0, 64, 69
1, 974365, Control_c, 0, 64, 72
1, 974370, Note_on_c, 0, 51, 94
1, 974374, Note_on_c, 0, 39, 81
1, 974380, Control_c, 0, 64, 74
1, 974394, Control_c, 0, 64, 77
1, 974409, Control_c, 0, 64, 79
1, 974416, Note_off_c, 0, 51, 60
1, 974417, Note_off_c, 0, 39, 61
1, 974424, Control_c, 0, 64, 80
1, 974446, Note_on_c, 0, 94, 97
1, 974449, Note_on_c, 0, 82, 92
1, 974453, Control_c, 0, 64, 80
1, 974464, Note_off_c, 0, 94, 68
1, 974468, Control_c, 0, 64, 72
1, 974470, Note_off_c, 0, 82, 64
1, 974483, Control_c, 0, 64, 43
1, 974498, Control_c, 0, 64, 0
1, 974538, Note_on_c, 0, 53, 93
1, 974541, Note_on_c, 0, 41, 88
1, 974541, Note_on_c, 0, 92, 99
1, 974550, Note_on_c, 0, 80, 92
1, 974557, Note_off_c, 0, 53, 73
1, 974565, Note_off_c, 0, 41, 65
1, 974573, Note_off_c, 0, 80, 59
1, 974586, Note_off_c, 0, 92, 67
1, 974742, Control_c, 0, 64, 69
1, 974756, Note_on_c, 0, 58, 102
1, 974757, Control_c, 0, 64, 97
1, 974758, Note_on_c, 0, 46, 97
1, 974772, Control_c, 0, 64, 127
1, 974795, Note_off_c, 0, 58, 66
1, 974800, Note_off_c, 0, 46, 63
1, 974826, Note_on_c, 0, 90, 98
1, 974830, Note_on_c, 0, 78, 86
1, 974851, Note_off_c, 0, 78, 67
1, 974864, Note_off_c, 0, 90, 63
1, 974891, Control_c, 0, 64, 80
1, 974900, Note_on_c, 0, 44, 103
1, 974900, Note_on_c, 0, 56, 101
1, 974904, Note_on_c, 0, 89, 107
1, 974906, Control_c, 0, 64, 36
1, 974907, Note_on_c, 0, 77, 98
1, 974919, Note_off_c, 0, 56, 68
1, 974921, Control_c, 0, 64, 0
1, 974925, Note_off_c, 0, 44, 66
1, 974932, Note_off_c, 0, 77, 67
1, 974941, Note_off_c, 0, 89, 67
1, 974965, Control_c, 0, 64, 23
1, 974968, Note_on_c, 0, 51, 2
1, 974980, Control_c, 0, 64, 64
1, 974995, Control_c, 0, 64, 70
1, 975010, Control_c, 0, 64, 75
1, 975014, Note_off_c, 0, 51, 30
1, 975024, Control_c, 0, 64, 79
1, 975054, Control_c, 0, 64, 73
1, 975069, Control_c, 0, 64, 53
1, 975084, Control_c, 0, 64, 0
1, 975093, Note_on_c, 0, 54, 85
1, 975098, Note_on_c, 0, 42, 70
1, 975099, Note_on_c, 0, 75, 93
1, 975100, Note_on_c, 0, 87, 91
1, 975115, Note_off_c, 0, 54, 69
1, 975120, Note_on_c, 0, 44, 37
1, 975121, Note_off_c, 0, 44, 127
1, 975121, Note_off_c, 0, 42, 63
1, 975121, Note_on_c, 0, 85, 55
1, 975122, Note_off_c, 0, 87, 69
1, 975125, Note_off_c, 0, 75, 60
1, 975142, Note_off_c, 0, 85, 40
1, 975216, Note_on_c, 0, 73, 81
1, 975233, Control_c, 0, 64, 63
1, 975248, Control_c, 0, 64, 79
1, 975250, Note_on_c, 0, 79, 74
1, 975262, Control_c, 0, 64, 93
1, 975277, Control_c, 0, 64, 127
1, 975278, Note_off_c, 0, 73, 63
1, 975283, Note_on_c, 0, 82, 81
1, 975285, Note_on_c, 0, 85, 83
1, 975293, Note_off_c, 0, 79, 63
1, 975315, Note_off_c, 0, 82, 62
1, 975322, Note_off_c, 0, 85, 65
1, 975404, Note_on_c, 0, 92, 86
1, 975411, Note_on_c, 0, 52, 101
1, 975416, Note_off_c, 0, 92, 73
1, 975418, Note_on_c, 0, 40, 84
1, 975422, Note_on_c, 0, 87, 60
1, 975424, Note_on_c, 0, 91, 81
1, 975430, Note_on_c, 0, 94, 72
1, 975431, Note_off_c, 0, 52, 71
1, 975436, Note_on_c, 0, 97, 96
1, 975441, Note_off_c, 0, 40, 67
1, 975444, Note_off_c, 0, 91, 69
1, 975452, Note_off_c, 0, 87, 59
1, 975455, Note_off_c, 0, 94, 66
1, 975496, Note_off_c, 0, 97, 69
1, 975522, Control_c, 0, 64, 88
1, 975525, Poly_aftertouch_c, 0, 46, 0
1, 975537, Control_c, 0, 64, 67
1, 975551, Control_c, 0, 64, 0
1, 975606, Note_on_c, 0, 53, 88
1, 975610, Note_on_c, 0, 41, 84
1, 975650, Note_off_c, 0, 41, 61
1, 975653, Note_off_c, 0, 53, 59
1, 975669, Control_c, 0, 64, 33
1, 975684, Control_c, 0, 64, 51
1, 975690, Note_on_c, 0, 96, 95
1, 975697, Note_on_c, 0, 84, 82
1, 975700, Control_c, 0, 64, 62
1, 975714, Note_off_c, 0, 96, 65
1, 975715, Note_off_c, 0, 84, 72
1, 975715, Control_c, 0, 64, 66
1, 975730, Control_c, 0, 64, 68
1, 975745, Control_c, 0, 64, 66
1, 975760, Control_c, 0, 64, 41
1, 975774, Control_c, 0, 64, 0
1, 975781, Note_on_c, 0, 55, 99
1, 975785, Note_on_c, 0, 43, 88
1, 975796, Note_on_c, 0, 94, 100
1, 975798, Note_on_c, 0, 82, 96
1, 975799, Note_off_c, 0, 55, 73
1, 975809, Note_off_c, 0, 43, 69
1, 975825, Note_on_c, 0, 92, 49
1, 975826, Note_off_c, 0, 92, 127
1, 975833, Note_off_c, 0, 82, 60
1, 975836, Note_off_c, 0, 94, 66
1, 976000, Note_on_c, 0, 60, 101
1, 976003, Note_on_c, 0, 48, 91
1, 976011, Control_c, 0, 64, 69
1, 976024, Note_off_c, 0, 60, 65
1, 976026, Note_off_c, 0, 48, 70
1, 976026, Control_c, 0, 64, 127
1, 976047, Note_on_c, 0, 49, 29
1, 976067, Note_on_c, 0, 92, 97
1, 976068, Note_on_c, 0, 80, 94
1, 976085, Note_on_c, 0, 90, 67
1, 976092, Note_off_c, 0, 49, 49
1, 976092, Note_off_c, 0, 80, 60
1, 976101, Note_off_c, 0, 92, 64
1, 976102, Note_off_c, 0, 90, 66
1, 976137, Control_c, 0, 64, 81
1, 976148, Note_on_c, 0, 46, 102
1, 976148, Note_on_c, 0, 58, 98
1, 976152, Control_c, 0, 64, 24
1, 976155, Note_on_c, 0, 91, 107
1, 976156, Note_on_c, 0, 79, 99
1, 976165, Note_off_c, 0, 58, 71
1, 976167, Note_off_c, 0, 46, 71
1, 976167, Control_c, 0, 64, 0
1, 976188, Note_off_c, 0, 79, 67
1, 976193, Note_off_c, 0, 91, 71
1, 976212, Control_c, 0, 64, 51
1, 976226, Control_c, 0, 64, 66
1, 976241, Control_c, 0, 64, 71
1, 976256, Control_c, 0, 64, 71
1, 976271, Control_c, 0, 64, 66
1, 976286, Control_c, 0, 64, 29
1, 976300, Control_c, 0, 64, 0
1, 976340, Note_on_c, 0, 56, 90
1, 976346, Note_on_c, 0, 89, 108
1, 976348, Note_on_c, 0, 77, 92
1, 976354, Note_on_c, 0, 44, 68
1, 976361, Note_off_c, 0, 56, 71
1, 976364, Note_off_c, 0, 77, 72
1, 976376, Note_off_c, 0, 44, 60
1, 976378, Note_off_c, 0, 89, 66
1, 976477, Note_on_c, 0, 78, 78
1, 976510, Control_c, 0, 64, 83
1, 976514, Note_on_c, 0, 84, 76
1, 976524, Control_c, 0, 64, 115
1, 976526, Note_off_c, 0, 78, 63
1, 976532, Note_on_c, 0, 45, 72
1, 976539, Control_c, 0, 64, 127
1, 976555, Note_on_c, 0, 87, 85
1, 976557, Note_off_c, 0, 84, 66
1, 976557, Note_on_c, 0, 48, 68
1, 976561, Note_on_c, 0, 90, 91
1, 976587, Note_off_c, 0, 87, 61
1, 976596, Note_off_c, 0, 90, 64
1, 976597, Note_on_c, 0, 51, 75
1, 976605, Note_on_c, 0, 49, 4
1, 976611, Note_on_c, 0, 54, 74
1, 976624, Note_off_c, 0, 45, 64
1, 976666, Note_on_c, 0, 90, 65
1, 976672, Note_off_c, 0, 48, 63
1, 976676, Note_on_c, 0, 96, 90
1, 976685, Note_on_c, 0, 60, 105
1, 976696, Note_off_c, 0, 90, 64
1, 976703, Note_off_c, 0, 51, 66
1, 976704, Note_off_c, 0, 60, 69
1, 976704, Note_off_c, 0, 54, 67
1, 976708, Note_on_c, 0, 102, 106
1, 976733, Note_off_c, 0, 96, 66
1, 976744, Note_off_c, 0, 49, 51
1, 976826, Note_off_c, 0, 102, 62
1, 977043, Note_on_c, 0, 75, 81
1, 977052, Note_on_c, 0, 99, 85
1, 977057, Note_on_c, 0, 87, 79
1, 977070, Note_off_c, 0, 99, 74
1, 977077, Note_off_c, 0, 75, 61
1, 977079, Note_off_c, 0, 87, 71
1, 977127, Note_on_c, 0, 72, 89
1, 977127, Note_on_c, 0, 96, 104
1, 977130, Note_on_c, 0, 84, 100
1, 977142, Note_off_c, 0, 72, 75
1, 977155, Note_off_c, 0, 84, 63
1, 977171, Note_off_c, 0, 96, 67
1, 977329, Note_on_c, 0, 69, 91
1, 977377, Note_off_c, 0, 69, 60
1, 977452, Note_on_c, 0, 93, 101
1, 977457, Note_on_c, 0, 81, 87
1, 977479, Note_off_c, 0, 81, 65
1, 977487, Note_off_c, 0, 93, 65
1, 977541, Note_on_c, 0, 66, 93
1, 977626, Note_off_c, 0, 66, 55
1, 977644, Note_on_c, 0, 90, 98
1, 977646, Note_on_c, 0, 78, 91
1, 977688, Note_off_c, 0, 90, 63
1, 977691, Note_off_c, 0, 78, 61
1, 977735, Note_on_c, 0, 63, 96
1, 977771, Note_off_c, 0, 63, 67
1, 977821, Note_on_c, 0, 87, 101
1, 977824, Note_on_c, 0, 75, 90
1, 977865, Note_off_c, 0, 75, 64
1, 977872, Note_off_c, 0, 87, 63
1, 977914, Note_on_c, 0, 60, 99
1, 977959, Note_off_c, 0, 60, 67
1, 977971, Note_on_c, 0, 57, 9
1, 977972, Note_off_c, 0, 57, 127
1, 978013, Note_on_c, 0, 84, 90
1, 978018, Poly_aftertouch_c, 0, 57, 0
1, 978021, Note_on_c, 0, 72, 79
1, 978044, Note_off_c, 0, 72, 67
1, 978055, Note_off_c, 0, 84, 63
1, 978108, Note_on_c, 0, 57, 95
1, 978176, Note_off_c, 0, 57, 46
1, 978197, Note_on_c, 0, 69, 82
1, 978198, Note_on_c, 0, 81, 83
1, 978218, Note_on_c, 0, 83, 48
1, 978219, Note_off_c, 0, 83, 127
1, 978220, Note_off_c, 0, 69, 60
1, 978227, Note_off_c, 0, 81, 57
1, 978289, Note_on_c, 0, 54, 88
1, 978364, Note_on_c, 0, 78, 79
1, 978370, Note_on_c, 0, 66, 77
1, 978379, Note_off_c, 0, 54, 62
1, 978404, Note_off_c, 0, 66, 56
1, 978404, Note_off_c, 0, 78, 45
1, 978462, Note_on_c, 0, 51, 93
1, 978499, Note_off_c, 0, 51, 69
1, 978528, Note_on_c, 0, 75, 86
1, 978536, Note_on_c, 0, 63, 78
1, 978573, Note_off_c, 0, 63, 56
1, 978584, Note_off_c, 0, 75, 61
1, 978636, Note_on_c, 0, 48, 98
1, 978706, Note_off_c, 0, 48, 48
1, 978717, Note_on_c, 0, 72, 90
1, 978723, Note_on_c, 0, 60, 77
1, 978747, Note_off_c, 0, 60, 67
1, 978758, Note_off_c, 0, 72, 62
1, 978820, Note_on_c, 0, 45, 99
1, 978906, Note_on_c, 0, 69, 93
1, 978908, Note_off_c, 0, 45, 61
1, 978911, Note_on_c, 0, 57, 85
1, 978939, Note_off_c, 0, 57, 64
1, 978942, Note_off_c, 0, 69, 66
1, 978999, Note_on_c, 0, 42, 97
1, 979053, Note_off_c, 0, 42, 64
1, 979080, Control_c, 0, 64, 109
1, 979082, Note_on_c, 0, 66, 94
1, 979084, Note_on_c, 0, 54, 88
1, 979095, Control_c, 0, 64, 97
1, 979117, Control_c, 0, 64, 90
1, 979132, Control_c, 0, 64, 85
1, 979138, Note_on_c, 0, 56, 21
1, 979138, Note_off_c, 0, 54, 64
1, 979142, Note_off_c, 0, 66, 62
1, 979147, Control_c, 0, 64, 80
1, 979162, Control_c, 0, 64, 74
1, 979177, Control_c, 0, 64, 66
1, 979178, Note_off_c, 0, 56, 52
1, 979179, Note_on_c, 0, 41, 97
1, 979191, Control_c, 0, 64, 59
1, 979206, Control_c, 0, 64, 50
1, 979221, Control_c, 0, 64, 48
1, 979235, Control_c, 0, 64, 47
1, 979237, Note_off_c, 0, 41, 57
1, 979250, Control_c, 0, 64, 44
1, 979265, Control_c, 0, 64, 42
1, 979266, Note_on_c, 0, 65, 94
1, 979273, Note_on_c, 0, 53, 82
1, 979299, Note_off_c, 0, 53, 72
1, 979303, Note_off_c, 0, 65, 65
1, 979324, Control_c, 0, 64, 43
1, 979339, Control_c, 0, 64, 42
1, 979354, Control_c, 0, 64, 0
1, 979358, Note_on_c, 0, 39, 89
1, 979410, Note_off_c, 0, 39, 63
1, 979428, Note_on_c, 0, 51, 90
1, 979431, Note_on_c, 0, 63, 93
1, 979452, Note_off_c, 0, 51, 69
1, 979488, Note_off_c, 0, 63, 62
1, 979601, Note_on_c, 0, 50, 94
1, 979603, Note_on_c, 0, 62, 103
1, 979608, Note_on_c, 0, 38, 79
1, 979622, Control_c, 0, 64, 86
1, 979625, Note_off_c, 0, 50, 73
1, 979631, Note_off_c, 0, 62, 64
1, 979633, Note_off_c, 0, 38, 66
1, 979636, Control_c, 0, 64, 127
1, 979961, Note_on_c, 0, 53, 52
1, 979968, Note_on_c, 0, 58, 51
1, 979980, Poly_aftertouch_c, 0, 50, 127
1, 980008, Note_off_c, 0, 53, 60
1, 980015, Poly_aftertouch_c, 0, 50, 0
1, 980018, Note_on_c, 0, 82, 103
1, 980021, Note_on_c, 0, 65, 81
1, 980021, Note_on_c, 0, 70, 91
1, 980025, Poly_aftertouch_c, 0, 54, 127
1, 980027, Note_on_c, 0, 77, 86
1, 980036, Note_off_c, 0, 65, 70
1, 980040, Note_off_c, 0, 70, 70
1, 980046, Note_off_c, 0, 58, 64
1, 980053, Note_off_c, 0, 77, 65
1, 980055, Note_off_c, 0, 82, 69
1, 980057, Poly_aftertouch_c, 0, 53, 0
1, 980065, Poly_aftertouch_c, 0, 54, 0
1, 980148, Control_c, 0, 64, 115
1, 980163, Control_c, 0, 64, 74
1, 980178, Control_c, 0, 64, 0
1, 980233, Note_on_c, 0, 61, 109
1, 980237, Control_c, 0, 64, 65
1, 980242, Note_on_c, 0, 49, 92
1, 980252, Control_c, 0, 64, 89
1, 980254, Note_on_c, 0, 37, 71
1, 980262, Note_off_c, 0, 61, 64
1, 980266, Note_off_c, 0, 49, 67
1, 980266, Control_c, 0, 64, 127
1, 980281, Note_off_c, 0, 37, 64
1, 980533, Note_on_c, 0, 49, 63
1, 980553, Note_on_c, 0, 53, 67
1, 980571, Note_off_c, 0, 49, 59
1, 980579, Note_on_c, 0, 58, 57
1, 980615, Note_off_c, 0, 53, 63
1, 980631, Note_on_c, 0, 82, 93
1, 980633, Note_on_c, 0, 70, 90
1, 980640, Note_on_c, 0, 77, 82
1, 980642, Note_on_c, 0, 65, 71
1, 980652, Note_off_c, 0, 58, 66
1, 980653, Note_off_c, 0, 70, 69
1, 980660, Note_off_c, 0, 65, 66
1, 980665, Note_off_c, 0, 77, 66
1, 980667, Note_off_c, 0, 82, 69
1, 980823, Control_c, 0, 64, 79
1, 980838, Control_c, 0, 64, 0
1, 980844, Note_on_c, 0, 60, 104
1, 980847, Note_on_c, 0, 48, 89
1, 980871, Note_on_c, 0, 36, 51
1, 980874, Note_off_c, 0, 48, 69
1, 980875, Note_off_c, 0, 60, 68
1, 980882, Control_c, 0, 64, 60
1, 980897, Control_c, 0, 64, 78
1, 980903, Note_off_c, 0, 36, 53
1, 980912, Control_c, 0, 64, 127
1, 980973, Poly_aftertouch_c, 0, 35, 0
1, 981145, Note_on_c, 0, 48, 65
1, 981169, Note_off_c, 0, 48, 66
1, 981184, Note_on_c, 0, 53, 58
1, 981199, Note_on_c, 0, 56, 51
1, 981216, Note_off_c, 0, 53, 65
1, 981236, Note_off_c, 0, 56, 0
1, 981249, Note_on_c, 0, 68, 91
1, 981250, Note_on_c, 0, 80, 88
1, 981251, Note_on_c, 0, 72, 86
1, 981252, Note_on_c, 0, 65, 82
1, 981252, Note_on_c, 0, 77, 83
1, 981254, Poly_aftertouch_c, 0, 56, 0
1, 981267, Note_off_c, 0, 65, 70
1, 981270, Note_off_c, 0, 68, 66
1, 981289, Note_on_c, 0, 54, 27
1, 981289, Note_off_c, 0, 72, 65
1, 981289, Note_off_c, 0, 80, 66
1, 981298, Note_on_c, 0, 64, 14
1, 981298, Note_off_c, 0, 77, 65
1, 981327, Note_off_c, 0, 54, 54
1, 981348, Note_off_c, 0, 64, 49
1, 981437, Control_c, 0, 64, 79
1, 981452, Control_c, 0, 64, 0
1, 981473, Note_on_c, 0, 58, 111
1, 981476, Note_on_c, 0, 46, 89
1, 981485, Note_on_c, 0, 34, 73
1, 981497, Control_c, 0, 64, 64
1, 981504, Note_off_c, 0, 58, 67
1, 981505, Note_off_c, 0, 46, 66
1, 981508, Note_off_c, 0, 34, 64
1, 981512, Control_c, 0, 64, 82
1, 981527, Control_c, 0, 64, 127
1, 981825, Note_on_c, 0, 52, 36
1, 981838, Note_on_c, 0, 55, 41
1, 981861, Note_on_c, 0, 60, 53
1, 981862, Note_on_c, 0, 64, 85
1, 981877, Note_on_c, 0, 79, 99
1, 981881, Note_on_c, 0, 70, 91
1, 981881, Note_off_c, 0, 64, 73
1, 981883, Note_on_c, 0, 67, 87
1, 981883, Note_on_c, 0, 76, 85
1, 981890, Note_off_c, 0, 60, 65
1, 981893, Note_off_c, 0, 55, 64
1, 981901, Note_off_c, 0, 67, 71
1, 981906, Poly_aftertouch_c, 0, 51, 127
1, 981915, Note_off_c, 0, 52, 58
1, 981915, Note_off_c, 0, 79, 67
1, 981921, Note_off_c, 0, 70, 66
1, 981926, Note_off_c, 0, 76, 65
1, 981954, Poly_aftertouch_c, 0, 51, 0
1, 982045, Control_c, 0, 64, 122
1, 982060, Control_c, 0, 64, 74
1, 982075, Control_c, 0, 64, 0
1, 982108, Note_on_c, 0, 56, 108
1, 982114, Note_on_c, 0, 44, 97
1, 982126, Note_on_c, 0, 32, 75
1, 982128, Control_c, 0, 64, 71
1, 982137, Note_off_c, 0, 56, 67
1, 982142, Control_c, 0, 64, 106
1, 982153, Note_off_c, 0, 32, 64
1, 982155, Note_off_c, 0, 44, 61
1, 982157, Control_c, 0, 64, 127
1, 982427, Note_on_c, 0, 53, 59
1, 982472, Note_on_c, 0, 56, 50
1, 982498, Note_on_c, 0, 65, 83
1, 982500, Note_on_c, 0, 60, 52
1, 982512, Note_on_c, 0, 84, 93
1, 982518, Note_off_c, 0, 65, 71
1, 982519, Note_on_c, 0, 72, 95
1, 982522, Note_on_c, 0, 80, 86
1, 982524, Note_on_c, 0, 77, 82
1, 982528, Note_off_c, 0, 60, 65
1, 982533, Note_off_c, 0, 53, 65
1, 982533, Note_off_c, 0, 72, 75
1, 982546, Note_off_c, 0, 56, 64
1, 982555, Note_off_c, 0, 84, 66
1, 982561, Note_off_c, 0, 77, 67
1, 982567, Note_off_c, 0, 80, 66
1, 982676, Control_c, 0, 64, 88
1, 982691, Control_c, 0, 64, 0
1, 982728, Note_on_c, 0, 58, 107
1, 982733, Note_on_c, 0, 46, 97
1, 982735, Control_c, 0, 64, 33
1, 982743, Note_on_c, 0, 34, 78
1, 982750, Control_c, 0, 64, 73
1, 982752, Note_off_c, 0, 58, 66
1, 982765, Control_c, 0, 64, 111
1, 982767, Note_off_c, 0, 34, 64
1, 982773, Note_off_c, 0, 46, 64
1, 982779, Control_c, 0, 64, 127
1, 983038, Note_on_c, 0, 46, 65
1, 983065, Note_on_c, 0, 49, 69
1, 983073, Note_on_c, 0, 54, 62
1, 983098, Note_off_c, 0, 46, 62
1, 983127, Note_on_c, 0, 82, 94
1, 983127, Note_on_c, 0, 70, 91
1, 983130, Note_on_c, 0, 61, 89
1, 983131, Note_on_c, 0, 73, 90
1, 983134, Note_on_c, 0, 78, 84
1, 983148, Note_off_c, 0, 61, 72
1, 983151, Note_off_c, 0, 54, 65
1, 983154, Note_off_c, 0, 49, 64
1, 983154, Note_off_c, 0, 70, 63
1, 983166, Note_off_c, 0, 82, 69
1, 983171, Note_off_c, 0, 73, 63
1, 983177, Note_off_c, 0, 78, 67
1, 983321, Control_c, 0, 64, 78
1, 983336, Control_c, 0, 64, 0
1, 983341, Note_on_c, 0, 60, 104
1, 983347, Note_on_c, 0, 48, 91
1, 983356, Note_on_c, 0, 36, 77
1, 983370, Poly_aftertouch_c, 0, 42, 127
1, 983374, Note_off_c, 0, 60, 67
1, 983381, Control_c, 0, 64, 68
1, 983382, Note_off_c, 0, 36, 63
1, 983383, Note_off_c, 0, 48, 62
1, 983390, Poly_aftertouch_c, 0, 42, 0
1, 983396, Control_c, 0, 64, 91
1, 983410, Control_c, 0, 64, 127
1, 983663, Note_on_c, 0, 48, 19
1, 983673, Note_on_c, 0, 53, 51
1, 983681, Note_on_c, 0, 56, 49
1, 983702, Note_off_c, 0, 53, 64
1, 983703, Note_off_c, 0, 48, 46
1, 983747, Note_on_c, 0, 65, 85
1, 983747, Note_on_c, 0, 68, 94
1, 983747, Note_on_c, 0, 80, 94
1, 983750, Note_on_c, 0, 77, 83
1, 983752, Note_on_c, 0, 72, 86
1, 983756, Note_off_c, 0, 56, 59
1, 983768, Note_off_c, 0, 65, 71
1, 983780, Note_off_c, 0, 68, 62
1, 983789, Note_off_c, 0, 80, 67
1, 983791, Note_off_c, 0, 72, 62
1, 983792, Note_off_c, 0, 77, 67
1, 983922, Control_c, 0, 64, 110
1, 983937, Control_c, 0, 64, 70
1, 983952, Control_c, 0, 64, 0
1, 983960, Note_on_c, 0, 48, 91
1, 983963, Note_on_c, 0, 60, 110
1, 983971, Note_on_c, 0, 36, 73
1, 983981, Control_c, 0, 64, 45
1, 983988, Note_off_c, 0, 48, 68
1, 983989, Note_off_c, 0, 60, 68
1, 983996, Control_c, 0, 64, 76
1, 983997, Note_off_c, 0, 36, 63
1, 984011, Control_c, 0, 64, 127
1, 984262, Note_on_c, 0, 52, 60
1, 984275, Note_on_c, 0, 55, 55
1, 984282, Note_on_c, 0, 60, 58
1, 984333, Note_on_c, 0, 64, 90
1, 984339, Note_on_c, 0, 79, 92
1, 984341, Note_on_c, 0, 67, 95
1, 984341, Note_on_c, 0, 70, 84
1, 984341, Note_on_c, 0, 76, 81
1, 984357, Note_off_c, 0, 64, 74
1, 984358, Note_off_c, 0, 60, 63
1, 984364, Note_off_c, 0, 55, 63
1, 984370, Note_off_c, 0, 70, 67
1, 984379, Note_off_c, 0, 52, 57
1, 984382, Note_off_c, 0, 76, 61
1, 984386, Note_off_c, 0, 67, 61
1, 984388, Note_off_c, 0, 79, 62
1, 984448, Control_c, 0, 64, 106
1, 984463, Control_c, 0, 64, 72
1, 984478, Control_c, 0, 64, 0
1, 984491, Note_on_c, 0, 41, 73
1, 984522, Note_on_c, 0, 48, 67
1, 984550, Note_off_c, 0, 41, 61
1, 984552, Control_c, 0, 64, 72
1, 984566, Note_on_c, 0, 68, 86
1, 984566, Note_on_c, 0, 77, 97
1, 984567, Note_on_c, 0, 65, 90
1, 984567, Control_c, 0, 64, 127
1, 984575, Note_on_c, 0, 72, 74
1, 984576, Note_on_c, 0, 56, 100
1, 984601, Note_off_c, 0, 48, 63
1, 984604, Note_off_c, 0, 65, 67
1, 984606, Note_off_c, 0, 56, 65
1, 984606, Note_off_c, 0, 72, 56
1, 984620, Note_off_c, 0, 68, 64
1, 984623, Note_off_c, 0, 77, 67
1, 984656, Control_c, 0, 64, 102
1, 984671, Control_c, 0, 64, 70
1, 984685, Control_c, 0, 64, 0
1, 984967, Control_c, 0, 64, 69
1, 984970, Note_on_c, 0, 77, 94
1, 984971, Note_on_c, 0, 65, 101
1, 984973, Note_on_c, 0, 53, 102
1, 984976, Note_on_c, 0, 46, 92
1, 984977, Note_on_c, 0, 70, 90
1, 984978, Note_on_c, 0, 73, 83
1, 984981, Control_c, 0, 64, 108
1, 984996, Control_c, 0, 64, 127
1, 985003, Note_off_c, 0, 53, 66
1, 985004, Note_off_c, 0, 70, 64
1, 985004, Note_off_c, 0, 73, 64
1, 985008, Note_off_c, 0, 65, 67
1, 985015, Note_off_c, 0, 46, 64
1, 985023, Note_off_c, 0, 77, 62
1, 985026, Control_c, 0, 64, 92
1, 985041, Control_c, 0, 64, 68
1, 985055, Control_c, 0, 64, 0
1, 985196, Control_c, 0, 64, 62
1, 985196, Note_on_c, 0, 77, 99
1, 985199, Note_on_c, 0, 41, 89
1, 985199, Note_on_c, 0, 53, 98
1, 985199, Note_on_c, 0, 65, 96
1, 985199, Note_on_c, 0, 68, 90
1, 985208, Note_on_c, 0, 72, 78
1, 985211, Control_c, 0, 64, 127
1, 985220, Note_off_c, 0, 53, 74
1, 985237, Note_off_c, 0, 65, 68
1, 985240, Note_off_c, 0, 41, 63
1, 985251, Note_off_c, 0, 77, 65
1, 985256, Note_off_c, 0, 68, 64
1, 985259, Note_off_c, 0, 72, 63
1, 985300, Control_c, 0, 64, 103
1, 985315, Control_c, 0, 64, 68
1, 985330, Control_c, 0, 64, 0
1, 985597, Control_c, 0, 64, 81
1, 985598, Note_on_c, 0, 65, 96
1, 985599, Note_on_c, 0, 53, 96
1, 985602, Note_on_c, 0, 41, 101
1, 985602, Note_on_c, 0, 58, 89
1, 985605, Note_on_c, 0, 34, 92
1, 985607, Note_on_c, 0, 61, 80
1, 985612, Control_c, 0, 64, 127
1, 985631, Note_off_c, 0, 41, 66
1, 985633, Note_off_c, 0, 53, 69
1, 985635, Note_off_c, 0, 61, 65
1, 985638, Note_off_c, 0, 58, 63
1, 985646, Note_off_c, 0, 34, 61
1, 985650, Note_off_c, 0, 65, 67
1, 985671, Control_c, 0, 64, 79
1, 985686, Control_c, 0, 64, 0
1, 985819, Control_c, 0, 64, 53
1, 985820, Note_on_c, 0, 65, 98
1, 985822, Note_on_c, 0, 56, 93
1, 985824, Note_on_c, 0, 53, 89
1, 985826, Note_on_c, 0, 41, 100
1, 985828, Note_on_c, 0, 29, 90
1, 985831, Note_on_c, 0, 60, 78
1, 985834, Control_c, 0, 64, 106
1, 985857, Control_c, 0, 64, 127
1, 985868, Note_off_c, 0, 29, 67
1, 985870, Note_off_c, 0, 41, 66
1, 985871, Note_off_c, 0, 53, 71
1, 985894, Note_off_c, 0, 65, 68
1, 985903, Note_off_c, 0, 56, 63
1, 985905, Note_off_c, 0, 60, 64
1, 986019, Control_c, 0, 64, 87
1, 986034, Control_c, 0, 64, 63
1, 986049, Control_c, 0, 64, 0
1, 986524, Control_c, 0, 64, 65
1, 986539, Control_c, 0, 64, 91
1, 986541, Note_on_c, 0, 56, 95
1, 986541, Note_on_c, 0, 65, 93
1, 986543, Note_on_c, 0, 53, 97
1, 986549, Note_on_c, 0, 41, 107
1, 986551, Note_on_c, 0, 29, 90
1, 986553, Note_on_c, 0, 60, 84
1, 986553, Control_c, 0, 64, 127
1, 986587, Note_off_c, 0, 29, 66
1, 986600, Note_off_c, 0, 53, 69
1, 986603, Note_off_c, 0, 41, 64
1, 986603, Note_off_c, 0, 56, 70
1, 986627, Note_off_c, 0, 60, 62
1, 986640, Note_off_c, 0, 65, 67
1, 986783, Control_c, 0, 64, 109
1, 986798, Control_c, 0, 64, 83
1, 986813, Control_c, 0, 64, 65
1, 986827, Control_c, 0, 64, 0
1, 987110, Control_c, 0, 64, 11
1, 987155, Control_c, 0, 64, 17
1, 987169, Control_c, 0, 64, 23
1, 987184, Control_c, 0, 64, 28
1, 987199, Control_c, 0, 64, 31
1, 987214, Control_c, 0, 64, 34
1, 987229, Control_c, 0, 64, 35
1, 987273, Control_c, 0, 64, 36
1, 987303, Control_c, 0, 64, 37
1, 987317, Control_c, 0, 64, 39
1, 987332, Control_c, 0, 64, 41
1, 987354, Control_c, 0, 64, 43
1, 987369, Control_c, 0, 64, 44
1, 987444, Control_c, 0, 64, 44
1, 987458, Control_c, 0, 64, 45
1, 987473, Control_c, 0, 64, 46
1, 987488, Control_c, 0, 64, 47
1, 987562, Control_c, 0, 64, 47
1, 987576, Control_c, 0, 64, 48
1, 987591, Control_c, 0, 64, 50
1, 987606, Control_c, 0, 64, 51
1, 987636, Control_c, 0, 64, 51
1, 987696, Control_c, 0, 64, 52
1, 987711, Control_c, 0, 64, 53
1, 987726, Control_c, 0, 64, 53
1, 987741, Control_c, 0, 64, 54
1, 987844, Control_c, 0, 64, 55
1, 987859, Control_c, 0, 64, 55
1, 987962, Control_c, 0, 64, 56
1, 987977, Control_c, 0, 64, 56
1, 988118, Control_c, 0, 64, 57
1, 988207, Control_c, 0, 64, 57
1, 988266, Control_c, 0, 64, 58
1, 988355, Control_c, 0, 64, 58
1, 988490, Control_c, 0, 64, 59
1, 988637, Control_c, 0, 64, 59
1, 988852, Control_c, 0, 64, 60
1, 988897, Control_c, 0, 64, 60
1, 988970, Control_c, 0, 64, 61
1, 989000, Control_c, 0, 64, 61
1, 989030, Control_c, 0, 64, 62
1, 989074, Control_c, 0, 64, 62
1, 989104, Control_c, 0, 64, 63
1, 989134, Control_c, 0, 64, 63
1, 989193, Control_c, 0, 64, 64
1, 989222, Control_c, 0, 64, 64
1, 989237, Control_c, 0, 64, 65
1, 989252, Control_c, 0, 64, 65
1, 989268, Control_c, 0, 64, 66
1, 989283, Control_c, 0, 64, 67
1, 989298, Control_c, 0, 64, 69
1, 989313, Control_c, 0, 64, 70
1, 989327, Control_c, 0, 64, 71
1, 989342, Control_c, 0, 64, 74
1, 989357, Control_c, 0, 64, 77
1, 989371, Control_c, 0, 64, 80
1, 989386, Control_c, 0, 64, 83
1, 989401, Control_c, 0, 64, 86
1, 989416, Control_c, 0, 64, 89
1, 989431, Control_c, 0, 64, 93
1, 989445, Control_c, 0, 64, 96
1, 989460, Control_c, 0, 64, 99
1, 989475, Control_c, 0, 64, 102
1, 989490, Control_c, 0, 64, 107
1, 989505, Control_c, 0, 64, 112
1, 989519, Control_c, 0, 64, 121
1, 989534, Control_c, 0, 64, 127
1, 992053, Control_c, 0, 67, 9
1, 992068, Control_c, 0, 67, 13
1, 992083, Control_c, 0, 67, 18
1, 992098, Control_c, 0, 67, 26
1, 992112, Control_c, 0, 67, 37
1, 992127, Control_c, 0, 67, 48
1, 992142, Control_c, 0, 67, 59
1, 992157, Control_c, 0, 67, 68
1, 992172, Control_c, 0, 67, 77
1, 992187, Control_c, 0, 67, 85
1, 992202, Control_c, 0, 67, 93
1, 992217, Control_c, 0, 67, 102
1, 992232, Control_c, 0, 67, 111
1, 992246, Control_c, 0, 67, 118
1, 992261, Control_c, 0, 67, 123
1, 992276, Control_c, 0, 67, 127
1, 992321, Control_c, 0, 64, 109
1, 992335, Control_c, 0, 64, 92
1, 992350, Control_c, 0, 64, 78
1, 992365, Control_c, 0, 64, 64
1, 992380, Control_c, 0, 64, 0
1, 992499, Control_c, 0, 64, 26
1, 992514, Control_c, 0, 64, 54
1, 992529, Control_c, 0, 64, 62
1, 992544, Control_c, 0, 64, 64
1, 992559, Control_c, 0, 64, 66
1, 992574, Control_c, 0, 64, 69
1, 992595, Control_c, 0, 64, 71
1, 992610, Control_c, 0, 64, 74
1, 992625, Control_c, 0, 64, 77
1, 992640, Control_c, 0, 64, 81
1, 992655, Control_c, 0, 64, 85
1, 992669, Control_c, 0, 64, 89
1, 992684, Control_c, 0, 64, 93
1, 992699, Control_c, 0, 64, 97
1, 992714, Control_c, 0, 64, 102
1, 992729, Control_c, 0, 64, 107
1, 992744, Control_c, 0, 64, 113
1, 992759, Control_c, 0, 64, 127
1, 997533, Control_c, 0, 67, 126
1, 997548, Control_c, 0, 67, 123
1, 997563, Control_c, 0, 67, 120
1, 997577, Control_c, 0, 67, 117
1, 997592, Control_c, 0, 67, 112
1, 997607, Control_c, 0, 67, 108
1, 997622, Control_c, 0, 67, 103
1, 997637, Control_c, 0, 67, 97
1, 997651, Control_c, 0, 67, 93
1, 997666, Control_c, 0, 67, 89
1, 997681, Control_c, 0, 67, 85
1, 997696, Control_c, 0, 67, 82
1, 997710, Control_c, 0, 67, 80
1, 997725, Control_c, 0, 67, 78
1, 997740, Control_c, 0, 67, 77
1, 997814, Control_c, 0, 67, 78
1, 997837, Control_c, 0, 67, 78
1, 997866, Control_c, 0, 67, 79
1, 997881, Control_c, 0, 67, 79
1, 997896, Control_c, 0, 67, 80
1, 997909, Note_on_c, 0, 77, 46
1, 997921, Note_on_c, 0, 73, 41
1, 997955, Control_c, 0, 67, 80
1, 998029, Control_c, 0, 67, 81
1, 998104, Control_c, 0, 67, 81
1, 998148, Control_c, 0, 67, 82
1, 998208, Control_c, 0, 67, 82
1, 998234, Note_off_c, 0, 73, 57
1, 998238, Control_c, 0, 67, 83
1, 998268, Control_c, 0, 67, 83
1, 998282, Control_c, 0, 67, 84
1, 998327, Control_c, 0, 67, 84
1, 998342, Control_c, 0, 67, 85
1, 998372, Control_c, 0, 67, 85
1, 998401, Control_c, 0, 67, 86
1, 998431, Control_c, 0, 67, 86
1, 998475, Control_c, 0, 67, 87
1, 998505, Control_c, 0, 67, 87
1, 998534, Control_c, 0, 67, 88
1, 998586, Control_c, 0, 67, 88
1, 998616, Control_c, 0, 67, 89
1, 998646, Control_c, 0, 67, 89
1, 998662, Note_on_c, 0, 73, 51
1, 998672, Note_on_c, 0, 70, 41
1, 998675, Control_c, 0, 67, 90
1, 998705, Control_c, 0, 64, 110
1, 998720, Control_c, 0, 64, 91
1, 998720, Control_c, 0, 67, 90
1, 998734, Control_c, 0, 64, 75
1, 998749, Control_c, 0, 64, 50
1, 998764, Control_c, 0, 64, 0
1, 998849, Note_off_c, 0, 77, 50
1, 998853, Control_c, 0, 64, 17
1, 998869, Control_c, 0, 64, 56
1, 998884, Control_c, 0, 64, 64
1, 998899, Control_c, 0, 64, 67
1, 998899, Control_c, 0, 67, 90
1, 998913, Control_c, 0, 64, 71
1, 998928, Control_c, 0, 64, 76
1, 998928, Control_c, 0, 67, 89
1, 998943, Control_c, 0, 64, 83
1, 998943, Control_c, 0, 67, 89
1, 998957, Control_c, 0, 64, 90
1, 998972, Control_c, 0, 64, 98
1, 998972, Control_c, 0, 67, 88
1, 998987, Control_c, 0, 64, 108
1, 999002, Control_c, 0, 64, 127
1, 999017, Control_c, 0, 67, 88
1, 999123, Note_off_c, 0, 70, 57
1, 999224, Control_c, 0, 67, 88
1, 999283, Control_c, 0, 67, 89
1, 999335, Control_c, 0, 67, 89
1, 999379, Control_c, 0, 67, 90
1, 999409, Control_c, 0, 67, 90
1, 999424, Control_c, 0, 67, 91
1, 999441, Note_on_c, 0, 70, 52
1, 999443, Note_on_c, 0, 65, 40
1, 999454, Control_c, 0, 64, 108
1, 999454, Control_c, 0, 67, 91
1, 999469, Control_c, 0, 64, 93
1, 999469, Control_c, 0, 67, 92
1, 999483, Control_c, 0, 64, 81
1, 999498, Control_c, 0, 64, 69
1, 999498, Control_c, 0, 67, 92
1, 999513, Control_c, 0, 64, 43
1, 999528, Control_c, 0, 64, 0
1, 999528, Control_c, 0, 67, 96
1, 999543, Control_c, 0, 67, 98
1, 999557, Control_c, 0, 67, 101
1, 999572, Control_c, 0, 67, 103
1, 999587, Control_c, 0, 67, 106
1, 999602, Control_c, 0, 67, 108
1, 999608, Note_off_c, 0, 73, 54
1, 999617, Control_c, 0, 67, 110
1, 999631, Control_c, 0, 67, 114
1, 999646, Control_c, 0, 67, 117
1, 999661, Control_c, 0, 67, 120
1, 999676, Control_c, 0, 67, 123
1, 999691, Control_c, 0, 67, 126
1, 999705, Control_c, 0, 67, 127
1, 999765, Control_c, 0, 64, 33
1, 999779, Control_c, 0, 64, 60
1, 999794, Control_c, 0, 64, 68
1, 999809, Control_c, 0, 64, 74
1, 999824, Control_c, 0, 64, 82
1, 999839, Control_c, 0, 64, 94
1, 999853, Control_c, 0, 64, 112
1, 999866, Note_off_c, 0, 65, 55
1, 999868, Control_c, 0, 64, 127
1, 999879, Note_off_c, 0, 70, 55
1, 1000261, Control_c, 0, 64, 105
1, 1000265, Note_on_c, 0, 65, 48
1, 1000276, Control_c, 0, 64, 86
1, 1000280, Note_on_c, 0, 61, 44
1, 1000291, Control_c, 0, 64, 73
1, 1000305, Control_c, 0, 64, 60
1, 1000320, Control_c, 0, 64, 0
1, 1000409, Control_c, 0, 64, 40
1, 1000423, Control_c, 0, 64, 59
1, 1000438, Control_c, 0, 64, 64
1, 1000455, Control_c, 0, 64, 67
1, 1000470, Control_c, 0, 64, 71
1, 1000484, Control_c, 0, 64, 75
1, 1000499, Control_c, 0, 64, 80
1, 1000514, Control_c, 0, 64, 85
1, 1000528, Control_c, 0, 64, 92
1, 1000543, Control_c, 0, 64, 98
1, 1000558, Control_c, 0, 64, 108
1, 1000573, Control_c, 0, 64, 119
1, 1000588, Control_c, 0, 64, 127
1, 1000937, Note_off_c, 0, 65, 46
1, 1000957, Note_off_c, 0, 61, 31
1, 1001084, Control_c, 0, 64, 107
1, 1001087, Note_on_c, 0, 65, 46
1, 1001089, Note_on_c, 0, 61, 35
1, 1001099, Control_c, 0, 64, 88
1, 1001111, Note_on_c, 0, 58, 37
1, 1001114, Control_c, 0, 64, 73
1, 1001128, Control_c, 0, 64, 49
1, 1001143, Control_c, 0, 64, 0
1, 1001466, Note_on_c, 0, 41, 60
1, 1001484, Control_c, 0, 64, 23
1, 1001498, Note_off_c, 0, 41, 63
1, 1001499, Control_c, 0, 64, 57
1, 1001514, Control_c, 0, 64, 63
1, 1001529, Control_c, 0, 64, 64
1, 1001543, Control_c, 0, 64, 65
1, 1001558, Control_c, 0, 64, 66
1, 1001576, Note_on_c, 0, 41, 57
1, 1001581, Control_c, 0, 64, 66
1, 1001596, Control_c, 0, 64, 67
1, 1001604, Note_off_c, 0, 41, 60
1, 1001611, Control_c, 0, 64, 67
1, 1001626, Control_c, 0, 64, 68
1, 1001644, Note_off_c, 0, 61, 51
1, 1001665, Note_off_c, 0, 58, 57
1, 1001672, Note_on_c, 0, 41, 69
1, 1001699, Control_c, 0, 64, 68
1, 1001709, Note_off_c, 0, 41, 58
1, 1001720, Note_off_c, 0, 65, 49
1, 1001788, Control_c, 0, 64, 68
1, 1001803, Control_c, 0, 64, 67
1, 1001818, Control_c, 0, 64, 64
1, 1001830, Note_on_c, 0, 46, 54
1, 1001833, Control_c, 0, 64, 58
1, 1001836, Note_on_c, 0, 60, 49
1, 1001836, Note_on_c, 0, 65, 43
1, 1001842, Note_on_c, 0, 57, 39
1, 1001847, Control_c, 0, 64, 42
1, 1001855, Note_on_c, 0, 34, 27
1, 1001862, Control_c, 0, 64, 0
1, 1002242, Note_off_c, 0, 46, 62
1, 1002255, Note_off_c, 0, 34, 55
1, 1002686, Control_c, 0, 64, 23
1, 1002700, Control_c, 0, 64, 63
1, 1002715, Control_c, 0, 64, 69
1, 1002730, Control_c, 0, 64, 75
1, 1002745, Control_c, 0, 64, 83
1, 1002760, Control_c, 0, 64, 90
1, 1002775, Control_c, 0, 64, 95
1, 1002789, Control_c, 0, 64, 98
1, 1002804, Control_c, 0, 64, 100
1, 1002819, Control_c, 0, 64, 102
1, 1002834, Control_c, 0, 64, 103
1, 1002879, Note_off_c, 0, 65, 48
1, 1002917, Note_off_c, 0, 60, 34
1, 1003013, Control_c, 0, 64, 100
1, 1003020, Note_on_c, 0, 60, 34
1, 1003028, Control_c, 0, 64, 92
1, 1003030, Note_on_c, 0, 65, 44
1, 1003042, Note_on_c, 0, 41, 46
1, 1003043, Control_c, 0, 64, 82
1, 1003046, Note_on_c, 0, 63, 53
1, 1003058, Control_c, 0, 64, 73
1, 1003079, Control_c, 0, 64, 65
1, 1003082, Note_off_c, 0, 41, 55
1, 1003094, Control_c, 0, 64, 61
1, 1003102, Note_off_c, 0, 57, 51
1, 1003109, Control_c, 0, 64, 60
1, 1003123, Control_c, 0, 64, 62
1, 1003131, Note_off_c, 0, 60, 59
1, 1003138, Control_c, 0, 64, 64
1, 1003150, Note_on_c, 0, 41, 44
1, 1003153, Control_c, 0, 64, 64
1, 1003168, Control_c, 0, 64, 65
1, 1003180, Note_off_c, 0, 41, 51
1, 1003180, Note_off_c, 0, 65, 57
1, 1003183, Control_c, 0, 64, 65
1, 1003228, Control_c, 0, 64, 66
1, 1003237, Note_on_c, 0, 41, 59
1, 1003257, Control_c, 0, 64, 66
1, 1003271, Note_off_c, 0, 41, 61
1, 1003287, Control_c, 0, 64, 67
1, 1003404, Control_c, 0, 64, 66
1, 1003428, Note_on_c, 0, 46, 36
1, 1003428, Note_on_c, 0, 61, 42
1, 1003434, Control_c, 0, 64, 65
1, 1003443, Note_on_c, 0, 65, 37
1, 1003449, Control_c, 0, 64, 64
1, 1003454, Note_on_c, 0, 34, 29
1, 1003462, Note_on_c, 0, 58, 30
1, 1003464, Control_c, 0, 64, 62
1, 1003479, Control_c, 0, 64, 57
1, 1003490, Note_off_c, 0, 63, 50
1, 1003494, Control_c, 0, 64, 42
1, 1003509, Control_c, 0, 64, 0
1, 1003812, Note_off_c, 0, 34, 55
1, 1003812, Note_off_c, 0, 46, 55
1, 1003932, Control_c, 0, 64, 41
1, 1003946, Control_c, 0, 64, 63
1, 1003961, Control_c, 0, 64, 70
1, 1003964, Note_off_c, 0, 58, 59
1, 1003976, Control_c, 0, 64, 77
1, 1003981, Note_off_c, 0, 61, 59
1, 1003991, Control_c, 0, 64, 85
1, 1003996, Note_off_c, 0, 65, 62
1, 1004006, Control_c, 0, 64, 95
1, 1004021, Control_c, 0, 64, 105
1, 1004035, Control_c, 0, 64, 119
1, 1004050, Control_c, 0, 64, 127
1, 1004065, Control_c, 0, 67, 127
1, 1004080, Control_c, 0, 67, 126
1, 1004095, Control_c, 0, 67, 125
1, 1004110, Control_c, 0, 67, 124
1, 1004125, Control_c, 0, 67, 124
1, 1004183, Control_c, 0, 67, 124
1, 1004198, Control_c, 0, 67, 125
1, 1004227, Control_c, 0, 67, 125
1, 1004257, Control_c, 0, 67, 126
1, 1004313, Note_on_c, 0, 77, 56
1, 1004316, Control_c, 0, 67, 126
1, 1004327, Note_on_c, 0, 73, 46
1, 1004345, Control_c, 0, 64, 110
1, 1004360, Control_c, 0, 64, 88
1, 1004375, Control_c, 0, 64, 75
1, 1004390, Control_c, 0, 64, 65
1, 1004390, Control_c, 0, 67, 126
1, 1004405, Control_c, 0, 64, 56
1, 1004405, Control_c, 0, 67, 125
1, 1004420, Control_c, 0, 64, 57
1, 1004435, Control_c, 0, 64, 62
1, 1004435, Control_c, 0, 67, 125
1, 1004450, Control_c, 0, 64, 66
1, 1004450, Control_c, 0, 67, 124
1, 1004465, Control_c, 0, 64, 69
1, 1004465, Control_c, 0, 67, 123
1, 1004480, Control_c, 0, 64, 73
1, 1004480, Control_c, 0, 67, 122
1, 1004495, Control_c, 0, 64, 78
1, 1004495, Control_c, 0, 67, 121
1, 1004509, Control_c, 0, 64, 85
1, 1004509, Control_c, 0, 67, 115
1, 1004524, Control_c, 0, 64, 92
1, 1004524, Control_c, 0, 67, 110
1, 1004539, Control_c, 0, 64, 101
1, 1004539, Control_c, 0, 67, 103
1, 1004554, Control_c, 0, 64, 118
1, 1004554, Control_c, 0, 67, 95
1, 1004576, Control_c, 0, 64, 127
1, 1004576, Control_c, 0, 67, 86
1, 1004591, Control_c, 0, 67, 77
1, 1004606, Control_c, 0, 67, 70
1, 1004621, Control_c, 0, 67, 62
1, 1004636, Control_c, 0, 67, 57
1, 1004650, Control_c, 0, 67, 52
1, 1004665, Control_c, 0, 67, 48
1, 1004680, Control_c, 0, 67, 44
1, 1004694, Control_c, 0, 67, 39
1, 1004709, Control_c, 0, 67, 35
1, 1004710, Note_off_c, 0, 73, 63
1, 1004724, Control_c, 0, 67, 30
1, 1004739, Control_c, 0, 67, 27
1, 1004754, Control_c, 0, 67, 24
1, 1004769, Control_c, 0, 67, 23
1, 1004784, Control_c, 0, 67, 21
1, 1004799, Control_c, 0, 67, 20
1, 1004813, Control_c, 0, 67, 20
1, 1004828, Control_c, 0, 67, 19
1, 1004843, Control_c, 0, 67, 19
1, 1005079, Note_on_c, 0, 73, 56
1, 1005084, Note_on_c, 0, 70, 45
1, 1005095, Control_c, 0, 64, 112
1, 1005110, Control_c, 0, 64, 93
1, 1005110, Control_c, 0, 67, 19
1, 1005125, Control_c, 0, 64, 81
1, 1005125, Control_c, 0, 67, 20
1, 1005140, Control_c, 0, 64, 69
1, 1005140, Control_c, 0, 67, 20
1, 1005155, Control_c, 0, 64, 50
1, 1005169, Control_c, 0, 64, 0
1, 1005184, Control_c, 0, 67, 21
1, 1005213, Control_c, 0, 67, 21
1, 1005245, Control_c, 0, 67, 22
1, 1005263, Note_off_c, 0, 77, 59
1, 1005326, Control_c, 0, 64, 53
1, 1005341, Control_c, 0, 64, 66
1, 1005356, Control_c, 0, 64, 72
1, 1005356, Control_c, 0, 67, 22
1, 1005371, Control_c, 0, 64, 80
1, 1005386, Control_c, 0, 64, 91
1, 1005386, Control_c, 0, 67, 23
1, 1005400, Control_c, 0, 64, 103
1, 1005415, Control_c, 0, 64, 127
1, 1005445, Control_c, 0, 67, 24
1, 1005460, Control_c, 0, 67, 25
1, 1005474, Control_c, 0, 67, 25
1, 1005489, Control_c, 0, 67, 27
1, 1005490, Note_off_c, 0, 70, 62
1, 1005504, Control_c, 0, 67, 28
1, 1005519, Control_c, 0, 67, 29
1, 1005533, Control_c, 0, 67, 30
1, 1005548, Control_c, 0, 67, 31
1, 1005563, Control_c, 0, 67, 34
1, 1005578, Control_c, 0, 67, 37
1, 1005592, Control_c, 0, 67, 42
1, 1005607, Control_c, 0, 67, 48
1, 1005622, Control_c, 0, 67, 55
1, 1005637, Control_c, 0, 67, 62
1, 1005651, Control_c, 0, 67, 71
1, 1005666, Control_c, 0, 67, 79
1, 1005681, Control_c, 0, 67, 86
1, 1005696, Control_c, 0, 67, 92
1, 1005711, Control_c, 0, 67, 98
1, 1005725, Control_c, 0, 67, 103
1, 1005740, Control_c, 0, 67, 108
1, 1005755, Control_c, 0, 67, 112
1, 1005770, Control_c, 0, 67, 115
1, 1005785, Control_c, 0, 67, 118
1, 1005799, Control_c, 0, 67, 121
1, 1005810, Note_on_c, 0, 70, 56
1, 1005814, Control_c, 0, 67, 123
1, 1005829, Control_c, 0, 67, 124
1, 1005837, Note_on_c, 0, 65, 40
1, 1005843, Control_c, 0, 67, 125
1, 1005858, Control_c, 0, 67, 126
1, 1005873, Control_c, 0, 67, 127
1, 1005888, Control_c, 0, 64, 103
1, 1005888, Control_c, 0, 67, 127
1, 1005903, Control_c, 0, 64, 87
1, 1005917, Control_c, 0, 64, 73
1, 1005932, Control_c, 0, 64, 55
1, 1005947, Control_c, 0, 64, 0
1, 1005973, Note_off_c, 0, 73, 57
1, 1006119, Control_c, 0, 64, 53
1, 1006119, Control_c, 0, 67, 127
1, 1006134, Control_c, 0, 64, 66
1, 1006134, Control_c, 0, 67, 126
1, 1006148, Control_c, 0, 64, 72
1, 1006148, Control_c, 0, 67, 125
1, 1006163, Control_c, 0, 64, 81
1, 1006163, Control_c, 0, 67, 124
1, 1006178, Control_c, 0, 64, 90
1, 1006178, Control_c, 0, 67, 123
1, 1006193, Control_c, 0, 64, 101
1, 1006193, Control_c, 0, 67, 123
1, 1006206, Note_off_c, 0, 70, 54
1, 1006208, Control_c, 0, 64, 113
1, 1006208, Control_c, 0, 67, 122
1, 1006212, Note_off_c, 0, 65, 56
1, 1006222, Control_c, 0, 64, 127
1, 1006237, Control_c, 0, 67, 122
1, 1006563, Control_c, 0, 67, 122
1, 1006585, Note_on_c, 0, 65, 49
1, 1006591, Note_on_c, 0, 61, 45
1, 1006593, Control_c, 0, 67, 123
1, 1006622, Control_c, 0, 64, 111
1, 1006622, Control_c, 0, 67, 123
1, 1006637, Control_c, 0, 64, 88
1, 1006652, Control_c, 0, 64, 74
1, 1006666, Control_c, 0, 64, 61
1, 1006681, Control_c, 0, 64, 0
1, 1006726, Control_c, 0, 64, 11
1, 1006740, Control_c, 0, 64, 44
1, 1006755, Control_c, 0, 64, 58
1, 1006770, Control_c, 0, 64, 64
1, 1006785, Control_c, 0, 64, 67
1, 1006800, Control_c, 0, 64, 70
1, 1006822, Control_c, 0, 64, 73
1, 1006837, Control_c, 0, 64, 78
1, 1006852, Control_c, 0, 64, 83
1, 1006867, Control_c, 0, 64, 88
1, 1006882, Control_c, 0, 64, 94
1, 1006897, Control_c, 0, 64, 100
1, 1006912, Control_c, 0, 64, 107
1, 1006927, Control_c, 0, 64, 124
1, 1006942, Control_c, 0, 64, 127
1, 1007016, Control_c, 0, 67, 124
1, 1007031, Control_c, 0, 67, 125
1, 1007045, Control_c, 0, 67, 125
1, 1007060, Control_c, 0, 67, 126
1, 1007075, Control_c, 0, 67, 126
1, 1007104, Control_c, 0, 67, 127
1, 1007119, Control_c, 0, 67, 127
1, 1007274, Note_off_c, 0, 61, 25
1, 1007274, Note_off_c, 0, 65, 37
1, 1007401, Note_on_c, 0, 61, 33
1, 1007413, Note_on_c, 0, 63, 46
1, 1007415, Control_c, 0, 64, 114
1, 1007422, Note_on_c, 0, 58, 42
1, 1007430, Control_c, 0, 64, 92
1, 1007445, Control_c, 0, 64, 76
1, 1007460, Control_c, 0, 64, 64
1, 1007475, Control_c, 0, 64, 0
1, 1007762, Note_on_c, 0, 39, 60
1, 1007794, Control_c, 0, 64, 60
1, 1007794, Note_off_c, 0, 39, 61
1, 1007809, Control_c, 0, 64, 64
1, 1007824, Control_c, 0, 64, 67
1, 1007838, Control_c, 0, 64, 68
1, 1007853, Control_c, 0, 64, 69
1, 1007866, Note_on_c, 0, 39, 64
1, 1007899, Note_off_c, 0, 39, 63
1, 1007961, Note_off_c, 0, 63, 59
1, 1007962, Note_off_c, 0, 61, 53
1, 1007964, Note_off_c, 0, 58, 61
1, 1007967, Note_on_c, 0, 39, 64
1, 1007996, Note_off_c, 0, 39, 63
1, 1008017, Control_c, 0, 64, 69
1, 1008061, Control_c, 0, 64, 68
1, 1008076, Control_c, 0, 64, 65
1, 1008091, Control_c, 0, 64, 61
1, 1008106, Control_c, 0, 64, 44
1, 1008110, Note_on_c, 0, 58, 57
1, 1008113, Note_on_c, 0, 44, 53
1, 1008114, Note_on_c, 0, 63, 47
1, 1008119, Note_on_c, 0, 32, 36
1, 1008120, Note_on_c, 0, 55, 53
1, 1008120, Control_c, 0, 64, 0
1, 1008484, Note_off_c, 0, 32, 56
1, 1008484, Note_off_c, 0, 44, 63
1, 1008958, Control_c, 0, 64, 40
1, 1008973, Control_c, 0, 64, 60
1, 1008988, Control_c, 0, 64, 66
1, 1009003, Control_c, 0, 64, 72
1, 1009017, Control_c, 0, 64, 79
1, 1009032, Control_c, 0, 64, 85
1, 1009047, Control_c, 0, 64, 91
1, 1009069, Control_c, 0, 64, 95
1, 1009084, Control_c, 0, 64, 97
1, 1009099, Control_c, 0, 64, 100
1, 1009114, Control_c, 0, 64, 102
1, 1009129, Control_c, 0, 64, 103
1, 1009143, Control_c, 0, 64, 103
1, 1009173, Control_c, 0, 64, 104
1, 1009183, Note_off_c, 0, 63, 37
1, 1009195, Note_off_c, 0, 58, 38
1, 1009322, Control_c, 0, 64, 103
1, 1009337, Control_c, 0, 64, 100
1, 1009352, Control_c, 0, 64, 92
1, 1009354, Note_on_c, 0, 39, 57
1, 1009355, Note_on_c, 0, 58, 37
1, 1009357, Note_on_c, 0, 63, 51
1, 1009366, Control_c, 0, 64, 81
1, 1009368, Note_on_c, 0, 61, 49
1, 1009381, Control_c, 0, 64, 71
1, 1009391, Note_off_c, 0, 39, 61
1, 1009396, Control_c, 0, 64, 61
1, 1009405, Note_off_c, 0, 55, 53
1, 1009411, Control_c, 0, 64, 54
1, 1009440, Control_c, 0, 64, 56
1, 1009449, Note_off_c, 0, 58, 57
1, 1009455, Control_c, 0, 64, 58
1, 1009470, Control_c, 0, 64, 60
1, 1009473, Note_on_c, 0, 39, 36
1, 1009476, Note_off_c, 0, 63, 56
1, 1009485, Control_c, 0, 64, 61
1, 1009499, Control_c, 0, 64, 62
1, 1009506, Note_off_c, 0, 39, 50
1, 1009514, Control_c, 0, 64, 62
1, 1009529, Control_c, 0, 64, 63
1, 1009559, Control_c, 0, 64, 63
1, 1009566, Note_on_c, 0, 39, 55
1, 1009589, Control_c, 0, 64, 64
1, 1009595, Note_off_c, 0, 39, 58
1, 1009633, Control_c, 0, 64, 64
1, 1009755, Note_on_c, 0, 60, 40
1, 1009760, Note_on_c, 0, 63, 46
1, 1009766, Control_c, 0, 64, 64
1, 1009768, Note_on_c, 0, 56, 31
1, 1009771, Note_off_c, 0, 61, 50
1, 1009771, Note_on_c, 0, 44, 35
1, 1009781, Control_c, 0, 64, 63
1, 1009796, Control_c, 0, 64, 62
1, 1009800, Note_on_c, 0, 32, 11
1, 1009818, Control_c, 0, 64, 60
1, 1009833, Control_c, 0, 64, 57
1, 1009848, Control_c, 0, 64, 52
1, 1009863, Control_c, 0, 64, 39
1, 1009878, Control_c, 0, 64, 0
1, 1010128, Note_off_c, 0, 32, 56
1, 1010159, Control_c, 0, 64, 58
1, 1010174, Control_c, 0, 64, 66
1, 1010177, Note_off_c, 0, 44, 54
1, 1010188, Control_c, 0, 64, 72
1, 1010203, Control_c, 0, 64, 79
1, 1010218, Control_c, 0, 64, 88
1, 1010233, Control_c, 0, 64, 100
1, 1010248, Control_c, 0, 64, 119
1, 1010260, Note_off_c, 0, 56, 51
1, 1010263, Control_c, 0, 64, 127
1, 1010272, Note_off_c, 0, 60, 55
1, 1010322, Note_off_c, 0, 63, 59
1, 1010663, Note_on_c, 0, 63, 48
1, 1010672, Note_on_c, 0, 56, 41
1, 1010675, Note_on_c, 0, 59, 38
1, 1010685, Control_c, 0, 64, 105
1, 1010700, Control_c, 0, 64, 87
1, 1010714, Control_c, 0, 64, 72
1, 1010729, Control_c, 0, 64, 47
1, 1010744, Control_c, 0, 64, 0
1, 1010803, Control_c, 0, 64, 11
1, 1010818, Control_c, 0, 64, 56
1, 1010834, Control_c, 0, 64, 64
1, 1010849, Control_c, 0, 64, 68
1, 1010863, Control_c, 0, 64, 72
1, 1010878, Control_c, 0, 64, 77
1, 1010894, Control_c, 0, 64, 84
1, 1010909, Control_c, 0, 64, 91
1, 1010924, Control_c, 0, 64, 102
1, 1010938, Control_c, 0, 64, 115
1, 1010953, Control_c, 0, 64, 127
1, 1011012, Control_c, 0, 67, 126
1, 1011027, Control_c, 0, 67, 123
1, 1011041, Note_on_c, 0, 65, 62
1, 1011042, Control_c, 0, 67, 120
1, 1011046, Note_off_c, 0, 56, 57
1, 1011057, Control_c, 0, 67, 116
1, 1011071, Control_c, 0, 67, 112
1, 1011086, Control_c, 0, 67, 108
1, 1011101, Control_c, 0, 67, 102
1, 1011116, Control_c, 0, 67, 97
1, 1011126, Note_off_c, 0, 63, 58
1, 1011131, Control_c, 0, 67, 92
1, 1011145, Control_c, 0, 67, 87
1, 1011160, Control_c, 0, 67, 82
1, 1011175, Control_c, 0, 67, 78
1, 1011190, Control_c, 0, 67, 74
1, 1011205, Control_c, 0, 67, 71
1, 1011219, Control_c, 0, 67, 68
1, 1011234, Control_c, 0, 67, 66
1, 1011249, Control_c, 0, 67, 65
1, 1011264, Control_c, 0, 67, 63
1, 1011279, Control_c, 0, 67, 62
1, 1011294, Control_c, 0, 67, 61
1, 1011316, Control_c, 0, 67, 61
1, 1011331, Control_c, 0, 67, 60
1, 1011375, Control_c, 0, 67, 60
1, 1011424, Note_on_c, 0, 63, 46
1, 1011431, Note_on_c, 0, 66, 62
1, 1011433, Note_on_c, 0, 51, 46
1, 1011433, Note_on_c, 0, 58, 38
1, 1011464, Control_c, 0, 64, 112
1, 1011479, Control_c, 0, 64, 96
1, 1011494, Control_c, 0, 64, 81
1, 1011509, Control_c, 0, 64, 70
1, 1011515, Note_off_c, 0, 59, 44
1, 1011518, Note_off_c, 0, 65, 58
1, 1011523, Control_c, 0, 64, 51
1, 1011523, Control_c, 0, 67, 59
1, 1011538, Control_c, 0, 64, 0
1, 1011568, Control_c, 0, 67, 59
1, 1011582, Control_c, 0, 67, 58
1, 1011612, Control_c, 0, 67, 56
1, 1011627, Control_c, 0, 67, 52
1, 1011643, Control_c, 0, 67, 48
1, 1011658, Control_c, 0, 67, 44
1, 1011673, Control_c, 0, 64, 54
1, 1011673, Control_c, 0, 67, 38
1, 1011687, Control_c, 0, 64, 66
1, 1011687, Control_c, 0, 67, 33
1, 1011702, Control_c, 0, 64, 72
1, 1011702, Control_c, 0, 67, 27
1, 1011717, Control_c, 0, 64, 79
1, 1011717, Control_c, 0, 67, 22
1, 1011732, Control_c, 0, 64, 89
1, 1011732, Control_c, 0, 67, 16
1, 1011742, Note_off_c, 0, 63, 56
1, 1011747, Control_c, 0, 64, 101
1, 1011747, Control_c, 0, 67, 11
1, 1011761, Control_c, 0, 64, 123
1, 1011761, Control_c, 0, 67, 0
1, 1011776, Control_c, 0, 64, 127
1, 1011833, Note_off_c, 0, 66, 59
1, 1011975, Note_off_c, 0, 58, 37
1, 1012194, Note_off_c, 0, 51, 37
1, 1012236, Note_on_c, 0, 70, 67
1, 1012238, Note_on_c, 0, 65, 57
1, 1012251, Note_on_c, 0, 49, 50
1, 1012263, Note_on_c, 0, 58, 43
1, 1012272, Control_c, 0, 64, 115
1, 1012287, Control_c, 0, 64, 88
1, 1012302, Control_c, 0, 64, 71
1, 1012316, Control_c, 0, 64, 36
1, 1012331, Control_c, 0, 64, 0
1, 1012391, Control_c, 0, 64, 43
1, 1012405, Control_c, 0, 64, 64
1, 1012420, Control_c, 0, 64, 71
1, 1012436, Control_c, 0, 64, 82
1, 1012451, Control_c, 0, 64, 98
1, 1012465, Control_c, 0, 64, 127
1, 1012701, Note_off_c, 0, 65, 57
1, 1012763, Note_off_c, 0, 49, 49
1, 1012788, Note_off_c, 0, 58, 36
1, 1012849, Note_off_c, 0, 70, 57
1, 1013054, Note_on_c, 0, 75, 77
1, 1013059, Note_on_c, 0, 66, 71
1, 1013070, Note_on_c, 0, 48, 55
1, 1013077, Note_on_c, 0, 58, 56
1, 1013154, Control_c, 0, 64, 94
1, 1013169, Control_c, 0, 64, 76
1, 1013184, Control_c, 0, 64, 64
1, 1013199, Control_c, 0, 64, 49
1, 1013214, Control_c, 0, 64, 54
1, 1013229, Control_c, 0, 64, 62
1, 1013244, Control_c, 0, 64, 67
1, 1013258, Control_c, 0, 64, 74
1, 1013273, Control_c, 0, 64, 85
1, 1013288, Control_c, 0, 64, 106
1, 1013303, Control_c, 0, 64, 127
1, 1013555, Note_off_c, 0, 66, 60
1, 1013568, Note_off_c, 0, 58, 57
1, 1013635, Note_off_c, 0, 48, 60
1, 1013748, Note_off_c, 0, 75, 36
1, 1013837, Note_on_c, 0, 77, 84
1, 1013843, Note_on_c, 0, 75, 71
1, 1013849, Note_on_c, 0, 47, 65
1, 1013849, Note_on_c, 0, 65, 72
1, 1013853, Note_on_c, 0, 57, 62
1, 1013932, Control_c, 0, 64, 101
1, 1013947, Control_c, 0, 64, 76
1, 1013962, Control_c, 0, 64, 0
1, 1014036, Control_c, 0, 64, 11
1, 1014051, Control_c, 0, 64, 64
1, 1014066, Control_c, 0, 64, 72
1, 1014081, Control_c, 0, 64, 81
1, 1014096, Control_c, 0, 64, 95
1, 1014111, Control_c, 0, 64, 119
1, 1014126, Control_c, 0, 64, 127
1, 1014274, Note_off_c, 0, 47, 63
1, 1014299, Note_off_c, 0, 65, 52
1, 1014370, Note_off_c, 0, 77, 56
1, 1014372, Note_off_c, 0, 57, 55
1, 1014439, Note_off_c, 0, 75, 38
1, 1014764, Note_on_c, 0, 74, 75
1, 1014767, Note_on_c, 0, 77, 85
1, 1014773, Note_on_c, 0, 65, 76
1, 1014778, Note_on_c, 0, 46, 64
1, 1014779, Note_on_c, 0, 58, 62
1, 1014800, Control_c, 0, 64, 101
1, 1014814, Control_c, 0, 64, 70
1, 1014830, Control_c, 0, 64, 0
1, 1014904, Control_c, 0, 64, 39
1, 1014919, Control_c, 0, 64, 66
1, 1014934, Control_c, 0, 64, 77
1, 1014949, Control_c, 0, 64, 95
1, 1014964, Control_c, 0, 64, 127
1, 1015185, Note_off_c, 0, 46, 63
1, 1015202, Note_off_c, 0, 58, 62
1, 1015653, Control_c, 0, 64, 85
1, 1015668, Control_c, 0, 64, 34
1, 1015683, Control_c, 0, 64, 0
1, 1015757, Control_c, 0, 64, 50
1, 1015772, Control_c, 0, 64, 67
1, 1015786, Control_c, 0, 64, 75
1, 1015809, Control_c, 0, 64, 85
1, 1015824, Control_c, 0, 64, 101
1, 1015828, Note_off_c, 0, 74, 62
1, 1015839, Control_c, 0, 64, 127
1, 1015842, Note_off_c, 0, 65, 60
1, 1016063, Note_on_c, 0, 74, 66
1, 1016078, Note_on_c, 0, 70, 55
1, 1016079, Note_on_c, 0, 34, 58
1, 1016080, Note_off_c, 0, 77, 57
1, 1016091, Note_on_c, 0, 65, 53
1, 1016113, Note_off_c, 0, 34, 61
1, 1016192, Note_on_c, 0, 34, 71
1, 1016224, Note_off_c, 0, 34, 63
1, 1016234, Note_off_c, 0, 65, 58
1, 1016242, Note_off_c, 0, 70, 63
1, 1016293, Note_on_c, 0, 34, 74
1, 1016323, Note_off_c, 0, 34, 56
1, 1016474, Note_on_c, 0, 70, 66
1, 1016478, Note_on_c, 0, 65, 59
1, 1016478, Note_on_c, 0, 46, 60
1, 1016486, Note_on_c, 0, 62, 52
1, 1016511, Note_off_c, 0, 74, 59
1, 1016521, Control_c, 0, 64, 89
1, 1016536, Control_c, 0, 64, 69
1, 1016558, Control_c, 0, 64, 0
1, 1016765, Control_c, 0, 64, 62
1, 1016780, Control_c, 0, 64, 68
1, 1016782, Note_off_c, 0, 46, 59
1, 1016795, Control_c, 0, 64, 75
1, 1016809, Control_c, 0, 64, 87
1, 1016824, Control_c, 0, 64, 104
1, 1016828, Note_off_c, 0, 62, 57
1, 1016839, Control_c, 0, 64, 127
1, 1016875, Note_off_c, 0, 65, 60
1, 1016929, Note_off_c, 0, 70, 60
1, 1017321, Note_on_c, 0, 70, 72
1, 1017338, Note_on_c, 0, 58, 62
1, 1017365, Control_c, 0, 64, 92
1, 1017379, Control_c, 0, 64, 75
1, 1017394, Control_c, 0, 64, 69
1, 1017409, Control_c, 0, 64, 71
1, 1017424, Control_c, 0, 64, 76
1, 1017438, Control_c, 0, 64, 84
1, 1017453, Control_c, 0, 64, 97
1, 1017468, Control_c, 0, 64, 127
1, 1017488, Note_off_c, 0, 58, 56
1, 1017504, Note_off_c, 0, 70, 60
1, 1017591, Note_on_c, 0, 57, 78
1, 1017593, Note_on_c, 0, 69, 79
1, 1017593, Note_on_c, 0, 72, 79
1, 1017608, Note_on_c, 0, 70, 75
1, 1017636, Note_off_c, 0, 69, 60
1, 1017646, Note_off_c, 0, 57, 58
1, 1017667, Note_off_c, 0, 70, 60
1, 1017691, Note_off_c, 0, 72, 60
1, 1017760, Note_on_c, 0, 56, 87
1, 1017760, Note_on_c, 0, 70, 87
1, 1017763, Note_on_c, 0, 68, 82
1, 1017766, Note_on_c, 0, 74, 86
1, 1017790, Note_off_c, 0, 70, 64
1, 1017797, Note_off_c, 0, 68, 54
1, 1017805, Note_off_c, 0, 74, 66
1, 1017955, Note_on_c, 0, 75, 90
1, 1017959, Note_on_c, 0, 66, 85
1, 1017959, Note_on_c, 0, 70, 85
1, 1017960, Note_on_c, 0, 54, 86
1, 1017971, Note_on_c, 0, 59, 29
1, 1017987, Control_c, 0, 64, 86
1, 1017999, Note_off_c, 0, 56, 48
1, 1018002, Control_c, 0, 64, 62
1, 1018013, Note_off_c, 0, 59, 45
1, 1018018, Control_c, 0, 64, 0
1, 1018114, Control_c, 0, 64, 62
1, 1018129, Control_c, 0, 64, 72
1, 1018144, Control_c, 0, 64, 88
1, 1018159, Control_c, 0, 64, 126
1, 1018173, Control_c, 0, 64, 127
1, 1018356, Note_off_c, 0, 66, 59
1, 1018415, Note_off_c, 0, 70, 45
1, 1018508, Note_off_c, 0, 54, 57
1, 1018657, Note_off_c, 0, 75, 33
1, 1018708, Note_on_c, 0, 75, 81
1, 1018710, Note_on_c, 0, 78, 89
1, 1018712, Note_on_c, 0, 70, 82
1, 1018719, Note_on_c, 0, 63, 89
1, 1018721, Note_on_c, 0, 51, 87
1, 1018736, Control_c, 0, 64, 98
1, 1018751, Control_c, 0, 64, 72
1, 1018766, Control_c, 0, 64, 0
1, 1018803, Control_c, 0, 64, 28
1, 1018818, Control_c, 0, 64, 64
1, 1018833, Control_c, 0, 64, 75
1, 1018848, Control_c, 0, 64, 92
1, 1018863, Control_c, 0, 64, 127
1, 1019028, Note_off_c, 0, 70, 53
1, 1019124, Note_off_c, 0, 63, 59
1, 1019184, Note_off_c, 0, 75, 53
1, 1019214, Note_off_c, 0, 51, 62
1, 1019259, Note_off_c, 0, 78, 61
1, 1019476, Note_on_c, 0, 82, 94
1, 1019481, Note_on_c, 0, 70, 87
1, 1019484, Note_on_c, 0, 49, 87
1, 1019484, Note_on_c, 0, 61, 89
1, 1019488, Note_on_c, 0, 77, 75
1, 1019500, Control_c, 0, 64, 101
1, 1019515, Control_c, 0, 64, 73
1, 1019529, Control_c, 0, 64, 0
1, 1019566, Control_c, 0, 64, 49
1, 1019581, Control_c, 0, 64, 65
1, 1019596, Control_c, 0, 64, 78
1, 1019611, Control_c, 0, 64, 107
1, 1019626, Control_c, 0, 64, 127
1, 1019843, Note_off_c, 0, 70, 60
1, 1019873, Note_off_c, 0, 77, 52
1, 1019968, Note_off_c, 0, 49, 54
1, 1019971, Note_off_c, 0, 61, 57
1, 1019995, Note_off_c, 0, 82, 59
1, 1020248, Note_on_c, 0, 82, 82
1, 1020249, Note_on_c, 0, 84, 92
1, 1020253, Note_on_c, 0, 72, 90
1, 1020253, Note_on_c, 0, 76, 89
1, 1020256, Note_on_c, 0, 48, 87
1, 1020257, Note_on_c, 0, 60, 95
1, 1020265, Note_on_c, 0, 79, 75
1, 1020278, Control_c, 0, 64, 79
1, 1020300, Control_c, 0, 64, 0
1, 1020374, Control_c, 0, 64, 65
1, 1020389, Control_c, 0, 64, 80
1, 1020404, Control_c, 0, 64, 117
1, 1020406, Note_off_c, 0, 72, 61
1, 1020419, Control_c, 0, 64, 127
1, 1020445, Note_off_c, 0, 60, 59
1, 1020490, Note_off_c, 0, 84, 55
1, 1020523, Note_off_c, 0, 48, 59
1, 1020542, Note_off_c, 0, 79, 38
1, 1020553, Note_off_c, 0, 76, 49
1, 1020561, Note_off_c, 0, 82, 63
1, 1021163, Note_on_c, 0, 89, 97
1, 1021168, Note_on_c, 0, 80, 87
1, 1021170, Note_on_c, 0, 77, 92
1, 1021171, Note_on_c, 0, 84, 77
1, 1021172, Note_on_c, 0, 53, 94
1, 1021173, Note_on_c, 0, 41, 88
1, 1021182, Control_c, 0, 64, 93
1, 1021197, Control_c, 0, 64, 51
1, 1021212, Control_c, 0, 64, 0
1, 1021258, Control_c, 0, 64, 61
1, 1021272, Control_c, 0, 64, 80
1, 1021287, Control_c, 0, 64, 127
1, 1021487, Note_off_c, 0, 41, 63
1, 1021505, Note_off_c, 0, 53, 61
1, 1022051, Control_c, 0, 64, 100
1, 1022066, Control_c, 0, 64, 63
1, 1022081, Control_c, 0, 64, 0
1, 1022184, Control_c, 0, 64, 66
1, 1022199, Control_c, 0, 64, 79
1, 1022214, Control_c, 0, 64, 100
1, 1022228, Control_c, 0, 64, 127
1, 1022266, Note_off_c, 0, 89, 56
1, 1022320, Note_off_c, 0, 77, 58
1, 1022332, Note_off_c, 0, 84, 60
1, 1022353, Note_off_c, 0, 80, 60
1, 1022407, Note_on_c, 0, 29, 85
1, 1022451, Note_off_c, 0, 29, 62
1, 1022519, Note_on_c, 0, 29, 85
1, 1022562, Note_off_c, 0, 29, 64
1, 1022620, Note_on_c, 0, 29, 94
1, 1022669, Note_off_c, 0, 29, 64
1, 1022757, Note_on_c, 0, 77, 89
1, 1022760, Note_on_c, 0, 68, 88
1, 1022763, Note_on_c, 0, 65, 87
1, 1022767, Note_on_c, 0, 72, 75
1, 1022769, Control_c, 0, 64, 124
1, 1022772, Note_on_c, 0, 41, 92
1, 1022784, Control_c, 0, 64, 74
1, 1022799, Control_c, 0, 64, 0
1, 1023096, Control_c, 0, 67, 8
1, 1023111, Control_c, 0, 67, 9
1, 1023125, Control_c, 0, 67, 9
1, 1023140, Control_c, 0, 67, 10
1, 1023155, Control_c, 0, 67, 11
1, 1023215, Control_c, 0, 67, 11
1, 1023259, Control_c, 0, 67, 12
1, 1023355, Note_off_c, 0, 77, 46
1, 1023390, Note_off_c, 0, 65, 56
1, 1023394, Note_off_c, 0, 72, 52
1, 1023414, Control_c, 0, 67, 11
1, 1023415, Note_off_c, 0, 41, 60
1, 1023420, Note_off_c, 0, 68, 58
1, 1023444, Control_c, 0, 67, 11
1, 1023459, Control_c, 0, 67, 10
1, 1023474, Control_c, 0, 67, 10
1, 1023489, Control_c, 0, 67, 9
1, 1023504, Control_c, 0, 67, 9
1, 1023518, Control_c, 0, 67, 8
1, 1023533, Control_c, 0, 67, 8
1, 1023548, Control_c, 0, 67, 0
1, 1023653, Control_c, 0, 64, 40
1, 1023667, Control_c, 0, 64, 57
1, 1023682, Control_c, 0, 64, 65
1, 1023697, Control_c, 0, 64, 72
1, 1023712, Control_c, 0, 64, 83
1, 1023727, Control_c, 0, 64, 101
1, 1023741, Control_c, 0, 64, 127
1, 1023977, Note_on_c, 0, 77, 97
1, 1024010, Note_off_c, 0, 77, 66
1, 1024091, Note_on_c, 0, 77, 101
1, 1024123, Note_off_c, 0, 77, 68
1, 1024186, Note_on_c, 0, 77, 95
1, 1024337, Note_off_c, 0, 77, 23
1, 1024374, Note_on_c, 0, 77, 70
1, 1024377, Note_on_c, 0, 85, 104
1, 1024377, Note_on_c, 0, 73, 101
1, 1024379, Note_on_c, 0, 80, 80
1, 1024384, Note_on_c, 0, 59, 90
1, 1024385, Note_on_c, 0, 71, 96
1, 1024388, Note_on_c, 0, 68, 86
1, 1024392, Note_on_c, 0, 65, 72
1, 1024416, Control_c, 0, 64, 69
1, 1024431, Control_c, 0, 64, 0
1, 1024490, Control_c, 0, 64, 64
1, 1024505, Control_c, 0, 64, 82
1, 1024520, Control_c, 0, 64, 127
1, 1024716, Note_off_c, 0, 59, 32
1, 1024737, Note_on_c, 0, 60, 34
1, 1024905, Note_off_c, 0, 60, 30
1, 1024976, Note_off_c, 0, 65, 21
1, 1024989, Note_off_c, 0, 68, 46
1, 1025015, Note_off_c, 0, 71, 48
1, 1025151, Note_off_c, 0, 85, 58
1, 1025168, Note_off_c, 0, 73, 54
1, 1025277, Note_off_c, 0, 80, 30
1, 1025286, Note_off_c, 0, 77, 32
1, 1025759, Note_on_c, 0, 84, 93
1, 1025764, Note_on_c, 0, 72, 91
1, 1025765, Note_on_c, 0, 76, 87
1, 1025766, Note_on_c, 0, 60, 79
1, 1025769, Note_on_c, 0, 70, 88
1, 1025772, Note_on_c, 0, 79, 82
1, 1025778, Note_on_c, 0, 67, 79
1, 1025779, Control_c, 0, 64, 87
1, 1025794, Control_c, 0, 64, 41
1, 1025809, Control_c, 0, 64, 0
1, 1025868, Control_c, 0, 64, 50
1, 1025883, Control_c, 0, 64, 69
1, 1025898, Control_c, 0, 64, 85
1, 1025912, Control_c, 0, 64, 127
1, 1026002, Note_off_c, 0, 70, 64
1, 1026055, Note_off_c, 0, 67, 54
1, 1026059, Note_off_c, 0, 60, 54
1, 1026513, Control_c, 0, 64, 76
1, 1026528, Control_c, 0, 64, 0
1, 1026602, Control_c, 0, 64, 58
1, 1026617, Control_c, 0, 64, 71
1, 1026632, Control_c, 0, 64, 84
1, 1026647, Control_c, 0, 64, 112
1, 1026661, Control_c, 0, 64, 127
1, 1026681, Note_off_c, 0, 84, 56
1, 1026712, Note_off_c, 0, 72, 58
1, 1026754, Note_off_c, 0, 79, 58
1, 1026756, Note_off_c, 0, 76, 61
1, 1026783, Note_on_c, 0, 29, 80
1, 1026830, Note_off_c, 0, 29, 62
1, 1026893, Note_on_c, 0, 29, 84
1, 1026926, Note_off_c, 0, 29, 66
1, 1026981, Note_on_c, 0, 29, 97
1, 1027026, Note_off_c, 0, 29, 65
1, 1027109, Note_on_c, 0, 72, 85
1, 1027110, Note_on_c, 0, 80, 90
1, 1027111, Note_on_c, 0, 68, 93
1, 1027113, Note_on_c, 0, 77, 80
1, 1027117, Note_on_c, 0, 41, 96
1, 1027143, Control_c, 0, 64, 75
1, 1027158, Control_c, 0, 64, 0
1, 1027492, Note_off_c, 0, 41, 61
1, 1028276, Note_on_c, 0, 29, 88
1, 1028309, Note_off_c, 0, 29, 67
1, 1028378, Note_on_c, 0, 29, 89
1, 1028411, Note_off_c, 0, 29, 69
1, 1028471, Note_on_c, 0, 29, 94
1, 1028518, Note_off_c, 0, 29, 62
1, 1028583, Control_c, 0, 64, 11
1, 1028598, Note_on_c, 0, 41, 96
1, 1028628, Control_c, 0, 64, 0
1, 1028872, Note_off_c, 0, 77, 54
1, 1028872, Note_off_c, 0, 72, 37
1, 1028874, Note_off_c, 0, 80, 57
1, 1028886, Note_off_c, 0, 68, 60
1, 1028901, Note_off_c, 0, 41, 62
1, 1028938, Control_c, 0, 64, 11
1, 1029101, Control_c, 0, 64, 14
1, 1029189, Control_c, 0, 64, 17
1, 1029205, Control_c, 0, 64, 19
1, 1029220, Control_c, 0, 64, 23
1, 1029235, Control_c, 0, 64, 26
1, 1029250, Control_c, 0, 64, 27
1, 1029265, Control_c, 0, 64, 29
1, 1029287, Control_c, 0, 64, 31
1, 1029302, Control_c, 0, 64, 32
1, 1029317, Control_c, 0, 64, 34
1, 1029331, Control_c, 0, 64, 35
1, 1029361, Control_c, 0, 64, 0
1, 1029553, Control_c, 0, 64, 11
1, 1029568, Control_c, 0, 64, 36
1, 1029583, Control_c, 0, 64, 49
1, 1029598, Control_c, 0, 64, 57
1, 1029612, Control_c, 0, 64, 63
1, 1029627, Control_c, 0, 64, 67
1, 1029641, Control_c, 0, 64, 75
1, 1029656, Control_c, 0, 64, 88
1, 1029671, Control_c, 0, 64, 111
1, 1029686, Control_c, 0, 64, 127
1, 1029687, Note_on_c, 0, 77, 99
1, 1029688, Note_on_c, 0, 65, 71
1, 1029717, Note_off_c, 0, 77, 68
1, 1029731, Note_off_c, 0, 65, 59
1, 1029797, Note_on_c, 0, 77, 103
1, 1029802, Note_on_c, 0, 65, 74
1, 1029827, Note_off_c, 0, 77, 69
1, 1029835, Note_off_c, 0, 65, 66
1, 1029893, Note_on_c, 0, 77, 100
1, 1029895, Note_on_c, 0, 65, 87
1, 1029919, Note_off_c, 0, 65, 69
1, 1029931, Note_off_c, 0, 77, 65
1, 1030103, Note_on_c, 0, 77, 78
1, 1030103, Note_on_c, 0, 85, 102
1, 1030104, Note_on_c, 0, 73, 104
1, 1030112, Note_on_c, 0, 66, 92
1, 1030117, Note_on_c, 0, 58, 82
1, 1030117, Note_on_c, 0, 61, 84
1, 1030124, Control_c, 0, 64, 95
1, 1030139, Control_c, 0, 64, 52
1, 1030153, Control_c, 0, 64, 0
1, 1030213, Control_c, 0, 64, 64
1, 1030227, Control_c, 0, 64, 82
1, 1030242, Control_c, 0, 64, 127
1, 1030780, Note_off_c, 0, 58, 57
1, 1030896, Note_off_c, 0, 66, 54
1, 1030929, Note_off_c, 0, 61, 58
1, 1030945, Note_off_c, 0, 85, 56
1, 1031021, Note_off_c, 0, 73, 53
1, 1031211, Note_off_c, 0, 77, 38
1, 1031463, Note_on_c, 0, 84, 95
1, 1031465, Control_c, 0, 64, 93
1, 1031470, Note_on_c, 0, 60, 77
1, 1031472, Note_on_c, 0, 76, 88
1, 1031472, Note_on_c, 0, 70, 89
1, 1031473, Note_on_c, 0, 72, 89
1, 1031480, Control_c, 0, 64, 62
1, 1031481, Note_on_c, 0, 67, 76
1, 1031495, Control_c, 0, 64, 0
1, 1031546, Control_c, 0, 64, 54
1, 1031561, Control_c, 0, 64, 72
1, 1031576, Control_c, 0, 64, 93
1, 1031591, Control_c, 0, 64, 127
1, 1031674, Note_off_c, 0, 70, 64
1, 1031736, Note_off_c, 0, 67, 54
1, 1031743, Note_off_c, 0, 60, 53
1, 1032184, Control_c, 0, 64, 111
1, 1032199, Control_c, 0, 64, 77
1, 1032214, Control_c, 0, 64, 0
1, 1032310, Control_c, 0, 64, 65
1, 1032325, Control_c, 0, 64, 75
1, 1032339, Control_c, 0, 64, 89
1, 1032354, Control_c, 0, 64, 127
1, 1032366, Note_off_c, 0, 72, 57
1, 1032415, Note_off_c, 0, 84, 58
1, 1032420, Note_off_c, 0, 76, 58
1, 1032472, Note_on_c, 0, 29, 86
1, 1032510, Note_off_c, 0, 29, 64
1, 1032576, Note_on_c, 0, 29, 88
1, 1032605, Note_off_c, 0, 29, 68
1, 1032666, Note_on_c, 0, 29, 97
1, 1032713, Note_off_c, 0, 29, 61
1, 1032790, Note_on_c, 0, 89, 101
1, 1032792, Note_on_c, 0, 81, 86
1, 1032795, Note_on_c, 0, 84, 83
1, 1032795, Note_on_c, 0, 77, 94
1, 1032802, Note_on_c, 0, 41, 101
1, 1032815, Control_c, 0, 64, 95
1, 1032829, Control_c, 0, 64, 62
1, 1032839, Note_on_c, 0, 88, 26
1, 1032840, Note_off_c, 0, 88, 127
1, 1032844, Control_c, 0, 64, 0
1, 1033202, Note_off_c, 0, 41, 60
1, 1033989, Note_on_c, 0, 29, 86
1, 1034023, Note_off_c, 0, 29, 69
1, 1034090, Note_on_c, 0, 29, 89
1, 1034121, Note_off_c, 0, 29, 69
1, 1034178, Note_on_c, 0, 29, 96
1, 1034209, Control_c, 0, 64, 26
1, 1034224, Control_c, 0, 64, 31
1, 1034227, Note_off_c, 0, 29, 64
1, 1034239, Control_c, 0, 64, 34
1, 1034254, Control_c, 0, 64, 36
1, 1034283, Control_c, 0, 64, 36
1, 1034298, Control_c, 0, 64, 37
1, 1034308, Note_on_c, 0, 41, 96
1, 1034342, Control_c, 0, 64, 38
1, 1034357, Control_c, 0, 64, 40
1, 1034372, Control_c, 0, 64, 42
1, 1034387, Control_c, 0, 64, 42
1, 1034390, Note_off_c, 0, 89, 55
1, 1034402, Control_c, 0, 64, 44
1, 1034417, Control_c, 0, 64, 46
1, 1034432, Control_c, 0, 64, 47
1, 1034441, Note_off_c, 0, 84, 52
1, 1034447, Control_c, 0, 64, 48
1, 1034453, Note_off_c, 0, 81, 54
1, 1034462, Control_c, 0, 64, 48
1, 1034476, Control_c, 0, 64, 49
1, 1034479, Note_off_c, 0, 77, 50
1, 1034602, Control_c, 0, 67, 8
1, 1034603, Note_off_c, 0, 41, 61
1, 1034617, Control_c, 0, 64, 48
1, 1034617, Control_c, 0, 67, 9
1, 1034631, Control_c, 0, 64, 47
1, 1034631, Control_c, 0, 67, 11
1, 1034646, Control_c, 0, 64, 47
1, 1034646, Control_c, 0, 67, 11
1, 1034661, Control_c, 0, 67, 12
1, 1034676, Control_c, 0, 64, 46
1, 1034676, Control_c, 0, 67, 12
1, 1034691, Control_c, 0, 67, 13
1, 1034706, Control_c, 0, 67, 13
1, 1034735, Control_c, 0, 67, 14
1, 1034765, Control_c, 0, 64, 47
1, 1034780, Control_c, 0, 64, 47
1, 1034780, Control_c, 0, 67, 14
1, 1034795, Control_c, 0, 64, 48
1, 1034810, Control_c, 0, 64, 49
1, 1034825, Control_c, 0, 64, 50
1, 1034840, Control_c, 0, 64, 51
1, 1034869, Control_c, 0, 64, 51
1, 1034884, Control_c, 0, 64, 52
1, 1034928, Control_c, 0, 64, 52
1, 1034942, Control_c, 0, 64, 53
1, 1034972, Control_c, 0, 64, 53
1, 1035016, Control_c, 0, 64, 54
1, 1035110, Note_on_c, 0, 66, 49
1, 1035120, Control_c, 0, 64, 54
1, 1035126, Note_on_c, 0, 63, 34
1, 1035210, Control_c, 0, 64, 55
1, 1035224, Control_c, 0, 64, 56
1, 1035224, Control_c, 0, 67, 14
1, 1035239, Control_c, 0, 64, 58
1, 1035254, Control_c, 0, 64, 61
1, 1035275, Control_c, 0, 64, 63
1, 1035290, Control_c, 0, 64, 65
1, 1035305, Control_c, 0, 64, 67
1, 1035305, Control_c, 0, 67, 13
1, 1035320, Control_c, 0, 64, 69
1, 1035335, Control_c, 0, 64, 72
1, 1035335, Control_c, 0, 67, 13
1, 1035350, Control_c, 0, 64, 77
1, 1035365, Control_c, 0, 64, 83
1, 1035380, Control_c, 0, 64, 89
1, 1035380, Control_c, 0, 67, 12
1, 1035395, Control_c, 0, 64, 96
1, 1035409, Control_c, 0, 64, 105
1, 1035421, Note_off_c, 0, 63, 59
1, 1035424, Control_c, 0, 64, 122
1, 1035439, Control_c, 0, 64, 127
1, 1035439, Control_c, 0, 67, 12
1, 1035572, Control_c, 0, 67, 12
1, 1035633, Control_c, 0, 67, 13
1, 1035677, Control_c, 0, 67, 13
1, 1035706, Control_c, 0, 67, 14
1, 1035736, Control_c, 0, 67, 14
1, 1035751, Control_c, 0, 67, 15
1, 1035755, Note_on_c, 0, 63, 48
1, 1035758, Note_on_c, 0, 60, 43
1, 1035780, Control_c, 0, 67, 15
1, 1035795, Control_c, 0, 67, 16
1, 1035825, Control_c, 0, 64, 109
1, 1035825, Control_c, 0, 67, 16
1, 1035839, Control_c, 0, 64, 94
1, 1035839, Control_c, 0, 67, 17
1, 1035854, Control_c, 0, 64, 82
1, 1035854, Control_c, 0, 67, 21
1, 1035869, Control_c, 0, 64, 71
1, 1035869, Control_c, 0, 67, 24
1, 1035882, Note_off_c, 0, 66, 62
1, 1035884, Control_c, 0, 64, 56
1, 1035884, Control_c, 0, 67, 26
1, 1035898, Control_c, 0, 64, 0
1, 1035898, Control_c, 0, 67, 28
1, 1035913, Control_c, 0, 67, 29
1, 1035928, Control_c, 0, 67, 31
1, 1035943, Control_c, 0, 67, 33
1, 1035958, Control_c, 0, 67, 35
1, 1035973, Control_c, 0, 67, 37
1, 1035988, Control_c, 0, 67, 39
1, 1036003, Control_c, 0, 67, 41
1, 1036025, Control_c, 0, 64, 47
1, 1036025, Control_c, 0, 67, 42
1, 1036040, Control_c, 0, 64, 61
1, 1036040, Control_c, 0, 67, 45
1, 1036054, Control_c, 0, 64, 65
1, 1036054, Control_c, 0, 67, 47
1, 1036069, Control_c, 0, 64, 68
1, 1036069, Control_c, 0, 67, 49
1, 1036084, Control_c, 0, 64, 72
1, 1036084, Control_c, 0, 67, 51
1, 1036098, Control_c, 0, 64, 78
1, 1036098, Control_c, 0, 67, 53
1, 1036113, Control_c, 0, 64, 86
1, 1036113, Control_c, 0, 67, 55
1, 1036125, Note_off_c, 0, 60, 62
1, 1036128, Control_c, 0, 64, 94
1, 1036128, Control_c, 0, 67, 57
1, 1036143, Control_c, 0, 64, 103
1, 1036143, Control_c, 0, 67, 59
1, 1036158, Control_c, 0, 64, 113
1, 1036158, Control_c, 0, 67, 61
1, 1036173, Control_c, 0, 64, 127
1, 1036173, Control_c, 0, 67, 63
1, 1036187, Control_c, 0, 67, 65
1, 1036202, Control_c, 0, 67, 68
1, 1036217, Control_c, 0, 67, 70
1, 1036232, Control_c, 0, 67, 72
1, 1036247, Control_c, 0, 67, 75
1, 1036262, Control_c, 0, 67, 78
1, 1036277, Control_c, 0, 67, 80
1, 1036292, Control_c, 0, 67, 83
1, 1036306, Control_c, 0, 67, 86
1, 1036321, Control_c, 0, 67, 89
1, 1036336, Control_c, 0, 67, 93
1, 1036351, Control_c, 0, 67, 96
1, 1036366, Control_c, 0, 67, 99
1, 1036380, Control_c, 0, 67, 102
1, 1036396, Control_c, 0, 67, 106
1, 1036411, Control_c, 0, 67, 109
1, 1036426, Control_c, 0, 67, 112
1, 1036441, Control_c, 0, 67, 116
1, 1036456, Control_c, 0, 67, 119
1, 1036459, Note_on_c, 0, 60, 51
1, 1036470, Control_c, 0, 67, 121
1, 1036475, Note_on_c, 0, 57, 43
1, 1036485, Control_c, 0, 67, 124
1, 1036500, Control_c, 0, 67, 126
1, 1036515, Control_c, 0, 67, 127
1, 1036529, Control_c, 0, 64, 118
1, 1036544, Control_c, 0, 64, 100
1, 1036559, Control_c, 0, 64, 87
1, 1036574, Control_c, 0, 64, 76
1, 1036587, Note_off_c, 0, 63, 51
1, 1036588, Control_c, 0, 64, 64
1, 1036603, Control_c, 0, 64, 0
1, 1036707, Control_c, 0, 64, 31
1, 1036721, Control_c, 0, 64, 60
1, 1036736, Control_c, 0, 64, 65
1, 1036751, Control_c, 0, 64, 69
1, 1036774, Control_c, 0, 64, 73
1, 1036789, Control_c, 0, 64, 78
1, 1036803, Control_c, 0, 64, 84
1, 1036818, Control_c, 0, 64, 90
1, 1036833, Control_c, 0, 64, 96
1, 1036848, Control_c, 0, 64, 102
1, 1036863, Control_c, 0, 64, 108
1, 1036868, Note_off_c, 0, 60, 54
1, 1036877, Control_c, 0, 64, 122
1, 1036892, Control_c, 0, 64, 127
1, 1036895, Note_off_c, 0, 57, 57
1, 1037174, Note_on_c, 0, 57, 51
1, 1037188, Note_on_c, 0, 54, 49
1, 1037219, Control_c, 0, 64, 106
1, 1037234, Control_c, 0, 64, 92
1, 1037249, Control_c, 0, 64, 78
1, 1037264, Control_c, 0, 64, 68
1, 1037279, Control_c, 0, 64, 58
1, 1037293, Control_c, 0, 64, 47
1, 1037323, Control_c, 0, 64, 50
1, 1037338, Control_c, 0, 64, 56
1, 1037353, Control_c, 0, 64, 61
1, 1037368, Control_c, 0, 64, 64
1, 1037383, Control_c, 0, 64, 67
1, 1037398, Control_c, 0, 64, 70
1, 1037413, Control_c, 0, 64, 72
1, 1037427, Control_c, 0, 64, 74
1, 1037442, Control_c, 0, 64, 78
1, 1037457, Control_c, 0, 64, 82
1, 1037471, Control_c, 0, 64, 86
1, 1037486, Control_c, 0, 64, 90
1, 1037501, Control_c, 0, 64, 93
1, 1037523, Control_c, 0, 64, 97
1, 1037538, Control_c, 0, 64, 101
1, 1037553, Control_c, 0, 64, 104
1, 1037568, Control_c, 0, 64, 107
1, 1037583, Control_c, 0, 64, 110
1, 1037597, Control_c, 0, 64, 113
1, 1037612, Control_c, 0, 64, 114
1, 1037619, Note_off_c, 0, 54, 63
1, 1037627, Control_c, 0, 64, 115
1, 1037642, Control_c, 0, 64, 115
1, 1037657, Control_c, 0, 64, 116
1, 1037686, Control_c, 0, 64, 116
1, 1037849, Control_c, 0, 64, 116
1, 1037908, Control_c, 0, 64, 115
1, 1037923, Control_c, 0, 64, 113
1, 1037938, Control_c, 0, 64, 110
1, 1037952, Control_c, 0, 64, 108
1, 1037967, Note_on_c, 0, 51, 43
1, 1037967, Control_c, 0, 64, 104
1, 1037973, Note_on_c, 0, 54, 45
1, 1037982, Control_c, 0, 64, 100
1, 1037998, Control_c, 0, 64, 95
1, 1038013, Control_c, 0, 64, 88
1, 1038028, Control_c, 0, 64, 83
1, 1038042, Control_c, 0, 64, 77
1, 1038057, Control_c, 0, 64, 70
1, 1038072, Control_c, 0, 64, 62
1, 1038087, Control_c, 0, 64, 45
1, 1038101, Control_c, 0, 64, 0
1, 1038104, Note_off_c, 0, 57, 60
1, 1038293, Note_on_c, 0, 29, 61
1, 1038301, Control_c, 0, 64, 31
1, 1038316, Control_c, 0, 64, 62
1, 1038327, Note_off_c, 0, 29, 62
1, 1038331, Control_c, 0, 64, 68
1, 1038346, Control_c, 0, 64, 74
1, 1038361, Control_c, 0, 64, 79
1, 1038375, Control_c, 0, 64, 83
1, 1038390, Control_c, 0, 64, 87
1, 1038396, Note_off_c, 0, 54, 63
1, 1038404, Note_on_c, 0, 29, 63
1, 1038405, Control_c, 0, 64, 88
1, 1038410, Note_off_c, 0, 51, 62
1, 1038420, Control_c, 0, 64, 89
1, 1038435, Control_c, 0, 64, 90
1, 1038437, Note_off_c, 0, 29, 57
1, 1038465, Control_c, 0, 64, 90
1, 1038499, Note_on_c, 0, 29, 66
1, 1038509, Control_c, 0, 64, 91
1, 1038529, Note_off_c, 0, 29, 57
1, 1038613, Control_c, 0, 64, 90
1, 1038628, Control_c, 0, 64, 84
1, 1038635, Note_on_c, 0, 54, 59
1, 1038642, Control_c, 0, 64, 75
1, 1038646, Note_on_c, 0, 51, 49
1, 1038647, Note_on_c, 0, 41, 56
1, 1038657, Control_c, 0, 64, 64
1, 1038672, Control_c, 0, 64, 0
1, 1038862, Note_off_c, 0, 41, 62
1, 1039273, Control_c, 0, 64, 11
1, 1039288, Control_c, 0, 64, 14
1, 1039303, Control_c, 0, 64, 17
1, 1039346, Control_c, 0, 64, 19
1, 1039376, Control_c, 0, 64, 21
1, 1039405, Control_c, 0, 64, 23
1, 1039435, Control_c, 0, 64, 24
1, 1039464, Control_c, 0, 64, 26
1, 1039479, Control_c, 0, 64, 28
1, 1039494, Control_c, 0, 64, 31
1, 1039508, Control_c, 0, 64, 34
1, 1039523, Control_c, 0, 64, 36
1, 1039538, Control_c, 0, 64, 36
1, 1039568, Control_c, 0, 64, 37
1, 1039639, Note_on_c, 0, 65, 61
1, 1039663, Note_on_c, 0, 49, 44
1, 1039663, Note_on_c, 0, 53, 45
1, 1039671, Note_off_c, 0, 51, 56
1, 1039672, Note_off_c, 0, 65, 62
1, 1039702, Control_c, 0, 64, 36
1, 1039743, Note_on_c, 0, 65, 61
1, 1039782, Note_off_c, 0, 65, 62
1, 1039828, Control_c, 0, 64, 36
1, 1039858, Note_on_c, 0, 65, 60
1, 1039889, Note_off_c, 0, 65, 65
1, 1039911, Note_off_c, 0, 54, 24
1, 1039946, Control_c, 0, 64, 35
1, 1039961, Control_c, 0, 64, 33
1, 1039976, Control_c, 0, 64, 30
1, 1039990, Note_on_c, 0, 51, 52
1, 1039991, Control_c, 0, 64, 14
1, 1039993, Note_on_c, 0, 65, 48
1, 1040006, Note_on_c, 0, 48, 48
1, 1040006, Control_c, 0, 64, 0
1, 1040015, Note_off_c, 0, 49, 49
1, 1040032, Note_off_c, 0, 53, 38
1, 1040155, Note_off_c, 0, 48, 63
1, 1040236, Note_off_c, 0, 51, 63
1, 1040362, Control_c, 0, 64, 17
1, 1040377, Control_c, 0, 64, 30
1, 1040393, Control_c, 0, 64, 36
1, 1040408, Control_c, 0, 64, 41
1, 1040423, Control_c, 0, 64, 44
1, 1040437, Control_c, 0, 64, 46
1, 1040452, Control_c, 0, 64, 48
1, 1040467, Control_c, 0, 64, 49
1, 1040481, Control_c, 0, 64, 51
1, 1040496, Control_c, 0, 64, 52
1, 1040519, Control_c, 0, 64, 53
1, 1040534, Control_c, 0, 64, 54
1, 1040549, Control_c, 0, 64, 55
1, 1040563, Control_c, 0, 64, 56
1, 1040593, Control_c, 0, 64, 56
1, 1040608, Control_c, 0, 64, 57
1, 1040623, Control_c, 0, 64, 57
1, 1040636, Note_on_c, 0, 75, 61
1, 1040638, Control_c, 0, 64, 58
1, 1040652, Control_c, 0, 64, 59
1, 1040665, Note_on_c, 0, 66, 40
1, 1040667, Control_c, 0, 64, 59
1, 1040682, Control_c, 0, 64, 60
1, 1040696, Control_c, 0, 64, 61
1, 1040711, Control_c, 0, 64, 62
1, 1040726, Control_c, 0, 64, 63
1, 1040741, Control_c, 0, 64, 64
1, 1040756, Control_c, 0, 64, 65
1, 1040770, Control_c, 0, 64, 67
1, 1040785, Control_c, 0, 64, 69
1, 1040800, Control_c, 0, 64, 70
1, 1040815, Control_c, 0, 64, 73
1, 1040830, Control_c, 0, 64, 76
1, 1040830, Control_c, 0, 67, 124
1, 1040844, Control_c, 0, 64, 79
1, 1040844, Control_c, 0, 67, 120
1, 1040859, Control_c, 0, 64, 84
1, 1040859, Control_c, 0, 67, 115
1, 1040874, Control_c, 0, 64, 89
1, 1040874, Control_c, 0, 67, 110
1, 1040888, Control_c, 0, 64, 94
1, 1040888, Control_c, 0, 67, 104
1, 1040903, Control_c, 0, 64, 99
1, 1040903, Control_c, 0, 67, 96
1, 1040918, Control_c, 0, 64, 107
1, 1040918, Control_c, 0, 67, 88
1, 1040933, Control_c, 0, 64, 126
1, 1040933, Control_c, 0, 67, 79
1, 1040948, Control_c, 0, 64, 127
1, 1040948, Control_c, 0, 67, 73
1, 1040963, Control_c, 0, 67, 67
1, 1040978, Control_c, 0, 67, 62
1, 1040993, Control_c, 0, 67, 59
1, 1041008, Control_c, 0, 67, 56
1, 1041022, Control_c, 0, 67, 54
1, 1041037, Control_c, 0, 67, 53
1, 1041052, Control_c, 0, 67, 53
1, 1041067, Control_c, 0, 67, 52
1, 1041231, Control_c, 0, 67, 53
1, 1041246, Control_c, 0, 67, 53
1, 1041267, Control_c, 0, 67, 54
1, 1041282, Control_c, 0, 67, 54
1, 1041297, Control_c, 0, 67, 55
1, 1041311, Note_on_c, 0, 72, 65
1, 1041312, Control_c, 0, 67, 55
1, 1041320, Note_on_c, 0, 63, 43
1, 1041327, Control_c, 0, 67, 56
1, 1041341, Control_c, 0, 67, 56
1, 1041371, Control_c, 0, 64, 111
1, 1041371, Control_c, 0, 67, 57
1, 1041386, Control_c, 0, 64, 91
1, 1041401, Control_c, 0, 64, 77
1, 1041401, Control_c, 0, 67, 57
1, 1041416, Control_c, 0, 64, 66
1, 1041431, Control_c, 0, 64, 49
1, 1041446, Control_c, 0, 64, 46
1, 1041460, Control_c, 0, 64, 53
1, 1041461, Note_off_c, 0, 75, 35
1, 1041475, Control_c, 0, 64, 61
1, 1041490, Control_c, 0, 64, 65
1, 1041505, Control_c, 0, 64, 69
1, 1041519, Control_c, 0, 64, 74
1, 1041534, Control_c, 0, 64, 81
1, 1041549, Control_c, 0, 64, 89
1, 1041564, Control_c, 0, 64, 97
1, 1041579, Control_c, 0, 64, 106
1, 1041593, Control_c, 0, 64, 118
1, 1041608, Control_c, 0, 64, 127
1, 1041638, Note_off_c, 0, 72, 53
1, 1041658, Note_off_c, 0, 63, 53
1, 1041698, Note_off_c, 0, 66, 52
1, 1041914, Note_on_c, 0, 69, 56
1, 1041919, Control_c, 0, 67, 58
1, 1041938, Note_on_c, 0, 60, 47
1, 1041964, Control_c, 0, 64, 110
1, 1041979, Control_c, 0, 64, 90
1, 1041994, Control_c, 0, 64, 73
1, 1041994, Control_c, 0, 67, 58
1, 1042016, Control_c, 0, 64, 62
1, 1042031, Control_c, 0, 64, 24
1, 1042046, Control_c, 0, 64, 11
1, 1042061, Control_c, 0, 64, 29
1, 1042075, Control_c, 0, 64, 46
1, 1042090, Control_c, 0, 64, 59
1, 1042105, Control_c, 0, 64, 65
1, 1042120, Control_c, 0, 64, 69
1, 1042135, Control_c, 0, 64, 73
1, 1042149, Control_c, 0, 64, 77
1, 1042164, Control_c, 0, 64, 82
1, 1042179, Control_c, 0, 64, 86
1, 1042179, Control_c, 0, 67, 58
1, 1042188, Note_off_c, 0, 65, 58
1, 1042194, Control_c, 0, 64, 91
1, 1042204, Note_off_c, 0, 60, 63
1, 1042209, Control_c, 0, 64, 94
1, 1042224, Control_c, 0, 64, 98
1, 1042239, Control_c, 0, 64, 101
1, 1042254, Control_c, 0, 64, 104
1, 1042268, Control_c, 0, 64, 108
1, 1042283, Control_c, 0, 64, 110
1, 1042298, Control_c, 0, 64, 113
1, 1042313, Control_c, 0, 64, 114
1, 1042340, Control_c, 0, 64, 115
1, 1042444, Control_c, 0, 67, 58
1, 1042474, Control_c, 0, 67, 59
1, 1042504, Control_c, 0, 67, 59
1, 1042519, Control_c, 0, 67, 60
1, 1042533, Control_c, 0, 64, 114
1, 1042548, Control_c, 0, 67, 60
1, 1042563, Control_c, 0, 64, 112
1, 1042563, Control_c, 0, 67, 61
1, 1042578, Control_c, 0, 64, 109
1, 1042578, Control_c, 0, 67, 61
1, 1042585, Note_on_c, 0, 66, 58
1, 1042593, Control_c, 0, 64, 107
1, 1042593, Control_c, 0, 67, 62
1, 1042596, Note_on_c, 0, 57, 34
1, 1042607, Control_c, 0, 64, 104
1, 1042607, Control_c, 0, 67, 62
1, 1042622, Control_c, 0, 64, 100
1, 1042622, Control_c, 0, 67, 63
1, 1042637, Control_c, 0, 64, 97
1, 1042637, Control_c, 0, 67, 64
1, 1042652, Control_c, 0, 64, 93
1, 1042652, Control_c, 0, 67, 64
1, 1042666, Control_c, 0, 64, 89
1, 1042666, Control_c, 0, 67, 65
1, 1042681, Control_c, 0, 64, 86
1, 1042681, Control_c, 0, 67, 66
1, 1042696, Control_c, 0, 64, 83
1, 1042696, Control_c, 0, 67, 67
1, 1042711, Control_c, 0, 64, 80
1, 1042711, Control_c, 0, 67, 69
1, 1042726, Control_c, 0, 64, 77
1, 1042726, Control_c, 0, 67, 72
1, 1042740, Control_c, 0, 64, 74
1, 1042740, Control_c, 0, 67, 74
1, 1042758, Note_off_c, 0, 69, 41
1, 1042763, Control_c, 0, 64, 72
1, 1042763, Control_c, 0, 67, 77
1, 1042778, Control_c, 0, 64, 69
1, 1042778, Control_c, 0, 67, 80
1, 1042793, Control_c, 0, 64, 67
1, 1042793, Control_c, 0, 67, 82
1, 1042808, Control_c, 0, 64, 66
1, 1042808, Control_c, 0, 67, 85
1, 1042823, Control_c, 0, 64, 66
1, 1042823, Control_c, 0, 67, 88
1, 1042838, Control_c, 0, 67, 91
1, 1042853, Control_c, 0, 64, 65
1, 1042853, Control_c, 0, 67, 94
1, 1042868, Control_c, 0, 67, 98
1, 1042883, Control_c, 0, 67, 103
1, 1042897, Control_c, 0, 64, 65
1, 1042897, Control_c, 0, 67, 107
1, 1042912, Control_c, 0, 67, 111
1, 1042927, Control_c, 0, 67, 115
1, 1042942, Control_c, 0, 67, 118
1, 1042957, Control_c, 0, 64, 64
1, 1042957, Control_c, 0, 67, 121
1, 1042971, Control_c, 0, 67, 123
1, 1042986, Control_c, 0, 67, 125
1, 1043001, Control_c, 0, 64, 64
1, 1043001, Control_c, 0, 67, 127
1, 1043016, Control_c, 0, 67, 127
1, 1043045, Control_c, 0, 64, 63
1, 1043075, Control_c, 0, 64, 63
1, 1043120, Control_c, 0, 64, 62
1, 1043315, Note_on_c, 0, 61, 39
1, 1043330, Note_on_c, 0, 65, 42
1, 1043414, Note_off_c, 0, 66, 32
1, 1043499, Note_off_c, 0, 57, 26
1, 1043612, Note_off_c, 0, 61, 52
1, 1043640, Note_on_c, 0, 29, 56
1, 1043673, Note_off_c, 0, 29, 56
1, 1043750, Note_on_c, 0, 29, 46
1, 1043788, Note_off_c, 0, 29, 52
1, 1043824, Note_on_c, 0, 29, 64
1, 1043854, Note_off_c, 0, 29, 61
1, 1043913, Control_c, 0, 64, 62
1, 1043928, Control_c, 0, 64, 61
1, 1043943, Control_c, 0, 64, 60
1, 1043958, Control_c, 0, 64, 57
1, 1043973, Control_c, 0, 64, 53
1, 1043987, Control_c, 0, 64, 42
1, 1043996, Note_on_c, 0, 41, 47
1, 1043996, Note_on_c, 0, 63, 47
1, 1044002, Control_c, 0, 64, 26
1, 1044003, Note_on_c, 0, 60, 41
1, 1044017, Control_c, 0, 64, 0
1, 1044057, Note_off_c, 0, 65, 58
1, 1044288, Note_off_c, 0, 41, 62
1, 1045074, Note_on_c, 0, 65, 55
1, 1045078, Note_on_c, 0, 58, 39
1, 1045081, Note_off_c, 0, 60, 56
1, 1045083, Note_on_c, 0, 61, 54
1, 1045108, Note_off_c, 0, 65, 65
1, 1045178, Note_on_c, 0, 65, 46
1, 1045206, Note_off_c, 0, 65, 57
1, 1045251, Note_off_c, 0, 58, 37
1, 1045285, Note_on_c, 0, 65, 54
1, 1045309, Note_off_c, 0, 65, 60
1, 1045405, Note_on_c, 0, 60, 47
1, 1045425, Note_on_c, 0, 65, 36
1, 1045441, Note_on_c, 0, 57, 33
1, 1045448, Note_off_c, 0, 63, 37
1, 1045449, Note_off_c, 0, 61, 50
1, 1045533, Note_off_c, 0, 57, 0
1, 1045533, Note_on_c, 0, 57, 3
1, 1045626, Note_off_c, 0, 57, 50
1, 1045685, Note_off_c, 0, 60, 63
1, 1045773, Control_c, 0, 64, 23
1, 1045788, Control_c, 0, 64, 34
1, 1045788, Control_c, 0, 67, 124
1, 1045803, Control_c, 0, 64, 41
1, 1045803, Control_c, 0, 67, 120
1, 1045817, Control_c, 0, 64, 46
1, 1045817, Control_c, 0, 67, 115
1, 1045832, Control_c, 0, 64, 49
1, 1045832, Control_c, 0, 67, 109
1, 1045847, Control_c, 0, 64, 52
1, 1045847, Control_c, 0, 67, 103
1, 1045862, Control_c, 0, 64, 54
1, 1045862, Control_c, 0, 67, 96
1, 1045877, Control_c, 0, 64, 56
1, 1045877, Control_c, 0, 67, 88
1, 1045891, Control_c, 0, 64, 58
1, 1045891, Control_c, 0, 67, 81
1, 1045906, Control_c, 0, 64, 60
1, 1045906, Control_c, 0, 67, 74
1, 1045921, Control_c, 0, 64, 61
1, 1045921, Control_c, 0, 67, 69
1, 1045936, Control_c, 0, 64, 62
1, 1045936, Control_c, 0, 67, 65
1, 1045951, Control_c, 0, 64, 63
1, 1045951, Control_c, 0, 67, 61
1, 1045965, Control_c, 0, 67, 58
1, 1045981, Control_c, 0, 64, 63
1, 1045981, Control_c, 0, 67, 55
1, 1045996, Control_c, 0, 64, 64
1, 1045996, Control_c, 0, 67, 53
1, 1046011, Control_c, 0, 64, 64
1, 1046011, Control_c, 0, 67, 50
1, 1046025, Control_c, 0, 67, 48
1, 1046040, Control_c, 0, 67, 47
1, 1046055, Control_c, 0, 64, 65
1, 1046055, Control_c, 0, 67, 45
1, 1046064, Note_on_c, 0, 78, 67
1, 1046069, Note_on_c, 0, 69, 45
1, 1046070, Control_c, 0, 64, 65
1, 1046070, Control_c, 0, 67, 43
1, 1046086, Control_c, 0, 64, 66
1, 1046086, Control_c, 0, 67, 41
1, 1046100, Control_c, 0, 64, 66
1, 1046100, Control_c, 0, 67, 39
1, 1046115, Control_c, 0, 64, 67
1, 1046115, Control_c, 0, 67, 36
1, 1046130, Control_c, 0, 64, 68
1, 1046130, Control_c, 0, 67, 34
1, 1046145, Control_c, 0, 64, 70
1, 1046145, Control_c, 0, 67, 31
1, 1046160, Control_c, 0, 64, 71
1, 1046160, Control_c, 0, 67, 28
1, 1046174, Control_c, 0, 64, 73
1, 1046174, Control_c, 0, 67, 25
1, 1046189, Control_c, 0, 64, 76
1, 1046189, Control_c, 0, 67, 22
1, 1046204, Control_c, 0, 64, 79
1, 1046204, Control_c, 0, 67, 20
1, 1046219, Control_c, 0, 64, 82
1, 1046219, Control_c, 0, 67, 17
1, 1046233, Control_c, 0, 64, 84
1, 1046233, Control_c, 0, 67, 15
1, 1046248, Control_c, 0, 64, 87
1, 1046248, Control_c, 0, 67, 14
1, 1046263, Control_c, 0, 64, 90
1, 1046263, Control_c, 0, 67, 13
1, 1046278, Control_c, 0, 64, 93
1, 1046278, Control_c, 0, 67, 12
1, 1046293, Control_c, 0, 64, 96
1, 1046293, Control_c, 0, 67, 11
1, 1046308, Control_c, 0, 64, 99
1, 1046323, Control_c, 0, 64, 101
1, 1046337, Control_c, 0, 64, 104
1, 1046352, Control_c, 0, 64, 107
1, 1046367, Control_c, 0, 64, 110
1, 1046382, Control_c, 0, 64, 112
1, 1046397, Control_c, 0, 64, 113
1, 1046412, Control_c, 0, 64, 114
1, 1046426, Control_c, 0, 64, 114
1, 1046537, Control_c, 0, 67, 12
1, 1046552, Control_c, 0, 67, 12
1, 1046567, Control_c, 0, 67, 13
1, 1046582, Control_c, 0, 67, 13
1, 1046597, Control_c, 0, 67, 14
1, 1046612, Control_c, 0, 67, 14
1, 1046627, Control_c, 0, 67, 15
1, 1046641, Control_c, 0, 67, 15
1, 1046656, Control_c, 0, 64, 113
1, 1046656, Control_c, 0, 67, 16
1, 1046671, Control_c, 0, 64, 112
1, 1046671, Control_c, 0, 67, 16
1, 1046686, Control_c, 0, 64, 109
1, 1046686, Control_c, 0, 67, 17
1, 1046701, Control_c, 0, 64, 107
1, 1046701, Control_c, 0, 67, 17
1, 1046715, Control_c, 0, 64, 103
1, 1046715, Control_c, 0, 67, 18
1, 1046721, Note_on_c, 0, 75, 51
1, 1046730, Control_c, 0, 64, 99
1, 1046730, Control_c, 0, 67, 19
1, 1046737, Note_on_c, 0, 66, 36
1, 1046745, Control_c, 0, 64, 94
1, 1046745, Control_c, 0, 67, 19
1, 1046760, Control_c, 0, 64, 88
1, 1046760, Control_c, 0, 67, 20
1, 1046775, Control_c, 0, 64, 82
1, 1046791, Control_c, 0, 64, 76
1, 1046791, Control_c, 0, 67, 20
1, 1046800, Note_off_c, 0, 66, 0
1, 1046800, Note_on_c, 0, 66, 3
1, 1046805, Control_c, 0, 64, 69
1, 1046805, Control_c, 0, 67, 21
1, 1046820, Control_c, 0, 64, 63
1, 1046835, Control_c, 0, 64, 53
1, 1046835, Control_c, 0, 67, 21
1, 1046847, Note_off_c, 0, 69, 58
1, 1046849, Control_c, 0, 64, 42
1, 1046857, Note_off_c, 0, 78, 48
1, 1046864, Control_c, 0, 64, 28
1, 1046879, Control_c, 0, 64, 0
1, 1046879, Control_c, 0, 67, 22
1, 1046923, Control_c, 0, 67, 22
1, 1046997, Control_c, 0, 64, 24
1, 1047012, Control_c, 0, 64, 59
1, 1047012, Control_c, 0, 67, 22
1, 1047027, Control_c, 0, 64, 66
1, 1047027, Control_c, 0, 67, 21
1, 1047042, Control_c, 0, 64, 73
1, 1047056, Control_c, 0, 64, 80
1, 1047056, Control_c, 0, 67, 21
1, 1047065, Note_off_c, 0, 66, 58
1, 1047071, Control_c, 0, 64, 88
1, 1047071, Control_c, 0, 67, 20
1, 1047086, Control_c, 0, 64, 96
1, 1047101, Control_c, 0, 64, 103
1, 1047101, Control_c, 0, 67, 20
1, 1047104, Note_off_c, 0, 75, 62
1, 1047116, Control_c, 0, 64, 109
1, 1047116, Control_c, 0, 67, 19
1, 1047130, Control_c, 0, 64, 117
1, 1047145, Control_c, 0, 64, 127
1, 1047145, Control_c, 0, 67, 19
1, 1047256, Control_c, 0, 67, 18
1, 1047375, Control_c, 0, 67, 19
1, 1047392, Note_on_c, 0, 81, 65
1, 1047401, Note_on_c, 0, 72, 51
1, 1047405, Control_c, 0, 67, 19
1, 1047420, Control_c, 0, 64, 108
1, 1047434, Control_c, 0, 64, 98
1, 1047434, Control_c, 0, 67, 20
1, 1047449, Control_c, 0, 64, 89
1, 1047449, Control_c, 0, 67, 20
1, 1047464, Control_c, 0, 64, 80
1, 1047479, Control_c, 0, 64, 73
1, 1047479, Control_c, 0, 67, 21
1, 1047494, Control_c, 0, 64, 66
1, 1047494, Control_c, 0, 67, 22
1, 1047509, Control_c, 0, 64, 62
1, 1047509, Control_c, 0, 67, 23
1, 1047524, Control_c, 0, 64, 61
1, 1047524, Control_c, 0, 67, 24
1, 1047538, Control_c, 0, 64, 62
1, 1047538, Control_c, 0, 67, 27
1, 1047553, Control_c, 0, 67, 33
1, 1047568, Control_c, 0, 64, 62
1, 1047568, Control_c, 0, 67, 41
1, 1047583, Control_c, 0, 64, 63
1, 1047583, Control_c, 0, 67, 53
1, 1047598, Control_c, 0, 67, 66
1, 1047613, Control_c, 0, 64, 63
1, 1047613, Control_c, 0, 67, 78
1, 1047628, Control_c, 0, 67, 86
1, 1047631, Note_off_c, 0, 65, 61
1, 1047643, Control_c, 0, 64, 64
1, 1047643, Control_c, 0, 67, 92
1, 1047658, Control_c, 0, 67, 98
1, 1047673, Control_c, 0, 67, 104
1, 1047687, Control_c, 0, 64, 64
1, 1047687, Control_c, 0, 67, 109
1, 1047702, Control_c, 0, 67, 114
1, 1047717, Control_c, 0, 67, 118
1, 1047732, Control_c, 0, 67, 122
1, 1047747, Control_c, 0, 67, 124
1, 1047761, Control_c, 0, 67, 126
1, 1047774, Note_on_c, 0, 65, 64
1, 1047776, Control_c, 0, 67, 127
1, 1047791, Control_c, 0, 67, 127
1, 1047802, Note_off_c, 0, 65, 65
1, 1047820, Control_c, 0, 64, 65
1, 1047878, Note_on_c, 0, 65, 62
1, 1047894, Control_c, 0, 64, 65
1, 1047907, Note_off_c, 0, 65, 65
1, 1047975, Note_on_c, 0, 65, 64
1, 1048013, Note_off_c, 0, 65, 64
1, 1048020, Control_c, 0, 64, 65
1, 1048079, Control_c, 0, 64, 64
1, 1048094, Control_c, 0, 64, 64
1, 1048109, Note_on_c, 0, 78, 59
1, 1048109, Control_c, 0, 64, 63
1, 1048119, Note_on_c, 0, 69, 45
1, 1048122, Note_on_c, 0, 65, 53
1, 1048124, Control_c, 0, 64, 62
1, 1048139, Control_c, 0, 64, 60
1, 1048153, Control_c, 0, 64, 55
1, 1048155, Note_off_c, 0, 81, 55
1, 1048168, Control_c, 0, 64, 32
1, 1048183, Control_c, 0, 64, 0
1, 1048198, Control_c, 0, 67, 127
1, 1048212, Control_c, 0, 67, 126
1, 1048227, Control_c, 0, 67, 125
1, 1048240, Note_off_c, 0, 72, 54
1, 1048242, Control_c, 0, 67, 124
1, 1048257, Control_c, 0, 67, 123
1, 1048272, Control_c, 0, 67, 121
1, 1048287, Control_c, 0, 67, 119
1, 1048302, Control_c, 0, 67, 118
1, 1048317, Control_c, 0, 67, 115
1, 1048332, Control_c, 0, 67, 113
1, 1048347, Control_c, 0, 67, 110
1, 1048361, Control_c, 0, 67, 106
1, 1048373, Note_off_c, 0, 69, 60
1, 1048376, Control_c, 0, 64, 54
1, 1048376, Control_c, 0, 67, 99
1, 1048391, Control_c, 0, 64, 62
1, 1048391, Control_c, 0, 67, 91
1, 1048406, Control_c, 0, 64, 65
1, 1048406, Control_c, 0, 67, 81
1, 1048421, Control_c, 0, 64, 67
1, 1048421, Control_c, 0, 67, 71
1, 1048436, Control_c, 0, 64, 70
1, 1048436, Control_c, 0, 67, 61
1, 1048451, Control_c, 0, 64, 74
1, 1048451, Control_c, 0, 67, 51
1, 1048466, Control_c, 0, 64, 80
1, 1048466, Control_c, 0, 67, 44
1, 1048477, Note_off_c, 0, 78, 62
1, 1048481, Control_c, 0, 64, 88
1, 1048481, Control_c, 0, 67, 38
1, 1048496, Control_c, 0, 64, 98
1, 1048496, Control_c, 0, 67, 33
1, 1048510, Control_c, 0, 64, 116
1, 1048510, Control_c, 0, 67, 28
1, 1048525, Control_c, 0, 64, 127
1, 1048525, Control_c, 0, 67, 24
1, 1048540, Control_c, 0, 67, 21
1, 1048555, Control_c, 0, 67, 19
1, 1048570, Control_c, 0, 67, 16
1, 1048584, Control_c, 0, 67, 12
1, 1048599, Control_c, 0, 67, 9
1, 1048614, Control_c, 0, 67, 0
1, 1048791, Note_on_c, 0, 87, 73
1, 1048809, Note_on_c, 0, 78, 48
1, 1048888, Control_c, 0, 64, 122
1, 1048902, Control_c, 0, 64, 95
1, 1048917, Control_c, 0, 64, 80
1, 1048932, Control_c, 0, 64, 67
1, 1048947, Control_c, 0, 64, 23
1, 1048962, Control_c, 0, 64, 0
1, 1049035, Control_c, 0, 64, 38
1, 1049050, Control_c, 0, 64, 60
1, 1049065, Control_c, 0, 64, 65
1, 1049080, Control_c, 0, 64, 68
1, 1049095, Control_c, 0, 64, 72
1, 1049110, Control_c, 0, 64, 76
1, 1049125, Control_c, 0, 64, 83
1, 1049140, Control_c, 0, 64, 90
1, 1049154, Control_c, 0, 64, 98
1, 1049169, Control_c, 0, 64, 106
1, 1049185, Control_c, 0, 64, 116
1, 1049199, Control_c, 0, 64, 127
1, 1049472, Note_on_c, 0, 84, 64
1, 1049523, Note_on_c, 0, 75, 30
1, 1049563, Control_c, 0, 64, 103
1, 1049578, Control_c, 0, 64, 85
1, 1049593, Control_c, 0, 64, 72
1, 1049607, Control_c, 0, 64, 59
1, 1049622, Control_c, 0, 64, 45
1, 1049637, Control_c, 0, 64, 46
1, 1049649, Note_off_c, 0, 87, 35
1, 1049651, Control_c, 0, 64, 51
1, 1049666, Control_c, 0, 64, 59
1, 1049666, Control_c, 0, 67, 8
1, 1049681, Control_c, 0, 64, 64
1, 1049681, Control_c, 0, 67, 8
1, 1049696, Control_c, 0, 64, 68
1, 1049696, Control_c, 0, 67, 9
1, 1049711, Control_c, 0, 64, 72
1, 1049711, Control_c, 0, 67, 9
1, 1049725, Control_c, 0, 64, 76
1, 1049725, Control_c, 0, 67, 11
1, 1049740, Control_c, 0, 64, 81
1, 1049740, Control_c, 0, 67, 12
1, 1049755, Control_c, 0, 64, 87
1, 1049755, Control_c, 0, 67, 14
1, 1049769, Control_c, 0, 64, 94
1, 1049769, Control_c, 0, 67, 16
1, 1049784, Control_c, 0, 64, 102
1, 1049784, Control_c, 0, 67, 18
1, 1049799, Control_c, 0, 64, 112
1, 1049799, Control_c, 0, 67, 21
1, 1049814, Control_c, 0, 64, 127
1, 1049814, Control_c, 0, 67, 24
1, 1049829, Control_c, 0, 67, 26
1, 1049843, Control_c, 0, 67, 29
1, 1049858, Control_c, 0, 67, 32
1, 1049873, Control_c, 0, 67, 35
1, 1049876, Note_off_c, 0, 78, 30
1, 1049882, Note_off_c, 0, 84, 38
1, 1049888, Control_c, 0, 67, 38
1, 1049903, Control_c, 0, 67, 42
1, 1049918, Control_c, 0, 67, 44
1, 1049932, Control_c, 0, 67, 46
1, 1049947, Control_c, 0, 67, 48
1, 1049956, Note_off_c, 0, 75, 51
1, 1049962, Control_c, 0, 67, 50
1, 1049978, Control_c, 0, 67, 52
1, 1049993, Control_c, 0, 67, 53
1, 1050008, Control_c, 0, 67, 54
1, 1050052, Control_c, 0, 67, 54
1, 1050205, Note_on_c, 0, 81, 50
1, 1050228, Note_on_c, 0, 72, 38
1, 1050230, Control_c, 0, 64, 113
1, 1050252, Control_c, 0, 64, 95
1, 1050267, Control_c, 0, 64, 82
1, 1050281, Control_c, 0, 64, 70
1, 1050296, Control_c, 0, 64, 60
1, 1050311, Control_c, 0, 64, 51
1, 1050326, Control_c, 0, 64, 52
1, 1050341, Control_c, 0, 64, 54
1, 1050356, Control_c, 0, 64, 58
1, 1050371, Control_c, 0, 64, 63
1, 1050386, Control_c, 0, 64, 66
1, 1050400, Control_c, 0, 64, 69
1, 1050415, Control_c, 0, 64, 72
1, 1050430, Control_c, 0, 64, 75
1, 1050430, Control_c, 0, 67, 55
1, 1050445, Control_c, 0, 64, 79
1, 1050460, Control_c, 0, 64, 84
1, 1050460, Control_c, 0, 67, 55
1, 1050474, Control_c, 0, 64, 89
1, 1050489, Control_c, 0, 64, 93
1, 1050489, Control_c, 0, 67, 56
1, 1050504, Control_c, 0, 64, 98
1, 1050519, Control_c, 0, 64, 102
1, 1050519, Control_c, 0, 67, 56
1, 1050534, Control_c, 0, 64, 106
1, 1050534, Control_c, 0, 67, 57
1, 1050548, Control_c, 0, 64, 110
1, 1050548, Control_c, 0, 67, 60
1, 1050549, Note_off_c, 0, 72, 59
1, 1050563, Control_c, 0, 64, 116
1, 1050563, Control_c, 0, 67, 64
1, 1050578, Control_c, 0, 64, 124
1, 1050578, Control_c, 0, 67, 66
1, 1050593, Control_c, 0, 64, 127
1, 1050593, Control_c, 0, 67, 69
1, 1050607, Control_c, 0, 67, 72
1, 1050622, Control_c, 0, 67, 74
1, 1050637, Control_c, 0, 67, 77
1, 1050652, Control_c, 0, 67, 79
1, 1050667, Control_c, 0, 67, 82
1, 1050681, Control_c, 0, 67, 85
1, 1050696, Control_c, 0, 67, 88
1, 1050711, Control_c, 0, 67, 91
1, 1050726, Control_c, 0, 67, 94
1, 1050740, Control_c, 0, 67, 97
1, 1050755, Control_c, 0, 67, 101
1, 1050771, Control_c, 0, 67, 104
1, 1050786, Control_c, 0, 67, 107
1, 1050801, Control_c, 0, 67, 111
1, 1050815, Control_c, 0, 67, 114
1, 1050830, Control_c, 0, 67, 117
1, 1050845, Control_c, 0, 64, 122
1, 1050845, Control_c, 0, 67, 119
1, 1050860, Control_c, 0, 64, 115
1, 1050860, Control_c, 0, 67, 122
1, 1050875, Control_c, 0, 64, 110
1, 1050875, Control_c, 0, 67, 125
1, 1050890, Control_c, 0, 64, 105
1, 1050890, Control_c, 0, 67, 127
1, 1050904, Control_c, 0, 64, 100
1, 1050904, Control_c, 0, 67, 127
1, 1050919, Control_c, 0, 64, 94
1, 1050934, Control_c, 0, 64, 89
1, 1050949, Control_c, 0, 64, 84
1, 1050952, Note_on_c, 0, 78, 53
1, 1050964, Control_c, 0, 64, 80
1, 1050968, Note_on_c, 0, 69, 33
1, 1050979, Control_c, 0, 64, 77
1, 1051001, Control_c, 0, 64, 74
1, 1051016, Control_c, 0, 64, 71
1, 1051030, Control_c, 0, 64, 68
1, 1051045, Control_c, 0, 64, 66
1, 1051060, Control_c, 0, 64, 66
1, 1051104, Control_c, 0, 64, 65
1, 1051193, Note_off_c, 0, 81, 36
1, 1051193, Control_c, 0, 64, 65
1, 1051297, Control_c, 0, 64, 64
1, 1051357, Control_c, 0, 64, 64
1, 1051401, Control_c, 0, 64, 63
1, 1051475, Control_c, 0, 64, 63
1, 1051754, Note_on_c, 0, 75, 38
1, 1051766, Note_on_c, 0, 72, 34
1, 1051907, Note_off_c, 0, 78, 54
1, 1051942, Control_c, 0, 64, 63
1, 1051949, Note_off_c, 0, 69, 38
1, 1051953, Note_off_c, 0, 65, 58
1, 1052166, Note_on_c, 0, 65, 46
1, 1052195, Note_off_c, 0, 65, 59
1, 1052288, Note_on_c, 0, 65, 48
1, 1052329, Note_off_c, 0, 65, 59
1, 1052381, Note_off_c, 0, 72, 51
1, 1052441, Note_on_c, 0, 65, 38
1, 1052469, Note_off_c, 0, 65, 52
1, 1052765, Control_c, 0, 64, 63
1, 1052780, Control_c, 0, 64, 62
1, 1052786, Note_on_c, 0, 66, 36
1, 1052788, Note_on_c, 0, 73, 40
1, 1052794, Control_c, 0, 64, 60
1, 1052806, Note_on_c, 0, 70, 20
1, 1052809, Control_c, 0, 64, 54
1, 1052825, Control_c, 0, 64, 42
1, 1052840, Control_c, 0, 64, 0
1, 1052937, Note_off_c, 0, 75, 49
1, 1053151, Control_c, 0, 64, 52
1, 1053167, Control_c, 0, 64, 62
1, 1053182, Control_c, 0, 64, 66
1, 1053197, Control_c, 0, 64, 69
1, 1053211, Control_c, 0, 64, 72
1, 1053226, Control_c, 0, 64, 75
1, 1053248, Control_c, 0, 64, 78
1, 1053263, Control_c, 0, 64, 81
1, 1053278, Control_c, 0, 64, 85
1, 1053293, Control_c, 0, 64, 88
1, 1053307, Control_c, 0, 64, 93
1, 1053322, Control_c, 0, 64, 98
1, 1053337, Control_c, 0, 64, 103
1, 1053352, Control_c, 0, 64, 109
1, 1053367, Control_c, 0, 64, 120
1, 1053381, Control_c, 0, 64, 127
1, 1053664, Note_on_c, 0, 54, 23
1, 1053698, Note_on_c, 0, 61, 29
1, 1053917, Note_off_c, 0, 66, 48
1, 1053950, Note_off_c, 0, 73, 42
1, 1054314, Note_on_c, 0, 80, 38
1, 1054318, Note_on_c, 0, 73, 38
1, 1054344, Note_on_c, 0, 64, 25
1, 1054347, Note_on_c, 0, 58, 31
1, 1054555, Note_off_c, 0, 64, 51
1, 1054565, Note_off_c, 0, 61, 38
1, 1054589, Note_off_c, 0, 54, 41
1, 1054614, Note_off_c, 0, 70, 41
1, 1054926, Note_on_c, 0, 70, 36
1, 1054931, Note_on_c, 0, 68, 34
1, 1054931, Note_on_c, 0, 76, 36
1, 1054940, Note_on_c, 0, 61, 28
1, 1055025, Note_off_c, 0, 73, 44
1, 1055147, Note_off_c, 0, 70, 57
1, 1055153, Note_off_c, 0, 68, 37
1, 1055170, Note_off_c, 0, 58, 42
1, 1055242, Note_off_c, 0, 80, 34
1, 1055523, Note_on_c, 0, 73, 40
1, 1055540, Note_on_c, 0, 66, 33
1, 1055546, Note_on_c, 0, 58, 31
1, 1055547, Note_on_c, 0, 64, 20
1, 1055733, Note_off_c, 0, 61, 41
1, 1055738, Note_off_c, 0, 66, 44
1, 1055790, Note_off_c, 0, 76, 36
1, 1056130, Note_on_c, 0, 70, 30
1, 1056131, Note_on_c, 0, 61, 30
1, 1056132, Note_on_c, 0, 76, 34
1, 1056154, Poly_aftertouch_c, 0, 54, 127
1, 1056244, Note_off_c, 0, 64, 39
1, 1056264, Note_off_c, 0, 73, 51
1, 1056292, Note_off_c, 0, 58, 41
1, 1056643, Note_on_c, 0, 73, 38
1, 1056667, Note_on_c, 0, 80, 40
1, 1056707, Note_on_c, 0, 58, 28
1, 1056727, Poly_aftertouch_c, 0, 64, 127
1, 1056787, Note_off_c, 0, 70, 33
1, 1056830, Poly_aftertouch_c, 0, 64, 0
1, 1056836, Poly_aftertouch_c, 0, 54, 0
1, 1056836, Note_off_c, 0, 76, 38
1, 1056865, Note_off_c, 0, 61, 41
1, 1057156, Note_on_c, 0, 68, 37
1, 1057167, Note_on_c, 0, 76, 42
1, 1057189, Note_on_c, 0, 70, 33
1, 1057200, Note_on_c, 0, 61, 29
1, 1057274, Note_off_c, 0, 73, 40
1, 1057311, Note_off_c, 0, 68, 39
1, 1057317, Note_off_c, 0, 70, 56
1, 1057344, Note_off_c, 0, 80, 37
1, 1057378, Note_off_c, 0, 58, 43
1, 1057605, Note_on_c, 0, 66, 31
1, 1057608, Note_on_c, 0, 73, 41
1, 1057617, Note_on_c, 0, 64, 25
1, 1057618, Note_on_c, 0, 58, 38
1, 1057739, Note_off_c, 0, 66, 45
1, 1057751, Note_off_c, 0, 61, 41
1, 1057757, Note_off_c, 0, 76, 35
1, 1058006, Note_on_c, 0, 70, 36
1, 1058023, Note_on_c, 0, 76, 42
1, 1058024, Note_on_c, 0, 54, 24
1, 1058036, Note_on_c, 0, 61, 36
1, 1058079, Note_off_c, 0, 64, 40
1, 1058094, Note_off_c, 0, 73, 37
1, 1058128, Note_off_c, 0, 58, 35
1, 1058319, Note_on_c, 0, 80, 42
1, 1058327, Note_on_c, 0, 73, 40
1, 1058333, Note_on_c, 0, 64, 23
1, 1058342, Note_off_c, 0, 70, 35
1, 1058355, Note_on_c, 0, 58, 38
1, 1058376, Note_off_c, 0, 76, 36
1, 1058389, Note_off_c, 0, 64, 48
1, 1058400, Note_off_c, 0, 54, 43
1, 1058433, Note_off_c, 0, 61, 41
1, 1058631, Note_on_c, 0, 76, 44
1, 1058632, Note_on_c, 0, 68, 38
1, 1058646, Note_on_c, 0, 70, 34
1, 1058665, Note_on_c, 0, 61, 39
1, 1058665, Note_off_c, 0, 80, 35
1, 1058673, Note_off_c, 0, 73, 37
1, 1058693, Note_off_c, 0, 68, 53
1, 1058696, Note_off_c, 0, 70, 61
1, 1058745, Note_off_c, 0, 58, 37
1, 1058896, Note_on_c, 0, 73, 51
1, 1058914, Note_on_c, 0, 66, 31
1, 1058921, Note_on_c, 0, 58, 35
1, 1058936, Note_on_c, 0, 64, 25
1, 1058954, Note_off_c, 0, 66, 50
1, 1058959, Note_off_c, 0, 76, 35
1, 1058969, Note_off_c, 0, 61, 41
1, 1059182, Note_on_c, 0, 76, 48
1, 1059191, Note_on_c, 0, 70, 34
1, 1059202, Note_on_c, 0, 54, 34
1, 1059204, Note_off_c, 0, 64, 42
1, 1059205, Note_on_c, 0, 61, 36
1, 1059210, Note_off_c, 0, 73, 48
1, 1059278, Note_off_c, 0, 58, 36
1, 1059480, Note_on_c, 0, 73, 42
1, 1059480, Note_on_c, 0, 80, 40
1, 1059503, Note_on_c, 0, 58, 36
1, 1059518, Note_off_c, 0, 54, 43
1, 1059522, Poly_aftertouch_c, 0, 64, 127
1, 1059527, Note_off_c, 0, 76, 54
1, 1059531, Note_off_c, 0, 70, 32
1, 1059540, Poly_aftertouch_c, 0, 64, 0
1, 1059556, Note_off_c, 0, 61, 41
1, 1059566, Poly_aftertouch_c, 0, 64, 0
1, 1059777, Note_on_c, 0, 68, 38
1, 1059785, Note_on_c, 0, 70, 32
1, 1059793, Note_on_c, 0, 76, 43
1, 1059816, Note_off_c, 0, 73, 44
1, 1059820, Note_on_c, 0, 61, 35
1, 1059829, Note_off_c, 0, 80, 31
1, 1059832, Note_off_c, 0, 68, 53
1, 1059837, Note_off_c, 0, 70, 57
1, 1059913, Note_off_c, 0, 58, 43
1, 1060105, Note_on_c, 0, 73, 42
1, 1060122, Note_on_c, 0, 66, 23
1, 1060138, Note_on_c, 0, 64, 12
1, 1060146, Note_on_c, 0, 58, 34
1, 1060169, Note_off_c, 0, 76, 25
1, 1060172, Note_off_c, 0, 61, 41
1, 1060179, Note_off_c, 0, 66, 45
1, 1060436, Note_off_c, 0, 73, 48
1, 1060457, Note_on_c, 0, 76, 36
1, 1060462, Note_off_c, 0, 64, 39
1, 1060466, Note_on_c, 0, 70, 17
1, 1060472, Note_on_c, 0, 54, 27
1, 1060472, Note_on_c, 0, 61, 30
1, 1060538, Note_off_c, 0, 58, 42
1, 1060807, Note_on_c, 0, 80, 33
1, 1060820, Note_on_c, 0, 73, 34
1, 1060828, Note_off_c, 0, 70, 37
1, 1060833, Note_on_c, 0, 64, 15
1, 1060851, Note_on_c, 0, 58, 36
1, 1060887, Note_off_c, 0, 64, 49
1, 1060899, Note_off_c, 0, 76, 40
1, 1060901, Note_off_c, 0, 54, 42
1, 1060910, Note_off_c, 0, 61, 39
1, 1061217, Note_on_c, 0, 76, 38
1, 1061224, Note_on_c, 0, 68, 34
1, 1061249, Note_on_c, 0, 70, 24
1, 1061272, Note_on_c, 0, 61, 22
1, 1061315, Note_off_c, 0, 73, 42
1, 1061322, Note_off_c, 0, 80, 35
1, 1061382, Note_off_c, 0, 68, 35
1, 1061388, Note_off_c, 0, 70, 41
1, 1061445, Note_off_c, 0, 58, 39
1, 1061787, Note_on_c, 0, 73, 33
1, 1061802, Note_on_c, 0, 58, 29
1, 1061809, Note_on_c, 0, 64, 23
1, 1061811, Note_on_c, 0, 66, 20
1, 1061978, Note_off_c, 0, 61, 41
1, 1061998, Note_off_c, 0, 76, 33
1, 1062037, Note_off_c, 0, 66, 42
1, 1062569, Note_on_c, 0, 70, 23
1, 1062577, Note_on_c, 0, 76, 32
1, 1062607, Poly_aftertouch_c, 0, 54, 127
1, 1062611, Note_on_c, 0, 54, 3
1, 1062616, Note_on_c, 0, 61, 28
1, 1062685, Note_off_c, 0, 73, 41
1, 1062772, Note_off_c, 0, 58, 43
1, 1062813, Note_off_c, 0, 64, 32
1, 1062944, Note_off_c, 0, 76, 33
1, 1062953, Note_off_c, 0, 70, 37
1, 1063226, Note_off_c, 0, 61, 29
1, 1063382, Note_off_c, 0, 54, 31
1, 1064423, Note_on_c, 0, 54, 23
1, 1064430, Note_on_c, 0, 61, 30
1, 1064438, Note_on_c, 0, 76, 19
1, 1064446, Note_on_c, 0, 70, 23
1, 1064637, Note_off_c, 0, 70, 41
1, 1064640, Note_off_c, 0, 61, 38
1, 1064649, Note_off_c, 0, 76, 39
1, 1064664, Note_off_c, 0, 54, 41
1, 1068295, Control_c, 0, 64, 119
1, 1068310, Control_c, 0, 64, 102
1, 1068313, Note_on_c, 0, 29, 35
1, 1068325, Control_c, 0, 64, 92
1, 1068340, Control_c, 0, 64, 83
1, 1068355, Control_c, 0, 64, 77
1, 1068370, Control_c, 0, 64, 72
1, 1068385, Control_c, 0, 64, 69
1, 1068400, Control_c, 0, 64, 70
1, 1068414, Control_c, 0, 64, 71
1, 1068429, Control_c, 0, 64, 72
1, 1068435, Note_on_c, 0, 41, 20
1, 1068444, Control_c, 0, 64, 74
1, 1068459, Control_c, 0, 64, 77
1, 1068472, Note_off_c, 0, 29, 45
1, 1068474, Control_c, 0, 64, 79
1, 1068489, Control_c, 0, 64, 81
1, 1068503, Control_c, 0, 64, 84
1, 1068518, Control_c, 0, 64, 87
1, 1068533, Control_c, 0, 64, 89
1, 1068548, Control_c, 0, 64, 92
1, 1068563, Control_c, 0, 64, 96
1, 1068568, Note_off_c, 0, 41, 31
1, 1068578, Control_c, 0, 64, 99
1, 1068589, Note_on_c, 0, 29, 27
1, 1068593, Control_c, 0, 64, 102
1, 1068608, Control_c, 0, 64, 108
1, 1068623, Control_c, 0, 64, 113
1, 1068638, Control_c, 0, 64, 123
1, 1068640, Note_off_c, 0, 29, 48
1, 1068652, Note_on_c, 0, 41, 10
1, 1068653, Control_c, 0, 64, 127
1, 1068714, Note_off_c, 0, 41, 42
1, 1068751, Note_on_c, 0, 29, 28
1, 1068801, Note_off_c, 0, 29, 46
1, 1068816, Note_on_c, 0, 41, 8
1, 1068876, Note_off_c, 0, 41, 44
1, 1068888, Note_on_c, 0, 29, 14
1, 1068986, Poly_aftertouch_c, 0, 41, 127
1, 1069001, Note_off_c, 0, 29, 0
1, 1069025, Note_on_c, 0, 29, 14
1, 1069052, Poly_aftertouch_c, 0, 41, 0
1, 1069080, Note_off_c, 0, 29, 45
1, 1069088, Poly_aftertouch_c, 0, 41, 127
1, 1069142, Poly_aftertouch_c, 0, 41, 0
1, 1069154, Note_on_c, 0, 29, 25
1, 1069213, Note_off_c, 0, 29, 43
1, 1069249, Poly_aftertouch_c, 0, 41, 127
1, 1069289, Note_on_c, 0, 29, 16
1, 1069329, Poly_aftertouch_c, 0, 41, 0
1, 1069362, Note_off_c, 0, 29, 40
1, 1069365, Poly_aftertouch_c, 0, 41, 127
1, 1069421, Note_on_c, 0, 29, 23
1, 1069423, Poly_aftertouch_c, 0, 41, 0
1, 1069488, Note_on_c, 0, 41, 22
1, 1069529, Note_off_c, 0, 29, 0
1, 1069544, Note_off_c, 0, 41, 45
1, 1069551, Note_on_c, 0, 29, 21
1, 1069639, Note_on_c, 0, 41, 4
1, 1069660, Note_off_c, 0, 29, 0
1, 1069684, Note_on_c, 0, 29, 15
1, 1069734, Note_off_c, 0, 41, 0
1, 1069749, Note_off_c, 0, 29, 45
1, 1069758, Note_on_c, 0, 41, 9
1, 1069818, Note_off_c, 0, 41, 45
1, 1069840, Note_on_c, 0, 29, 24
1, 1069892, Note_off_c, 0, 29, 48
1, 1069934, Note_on_c, 0, 41, 9
1, 1069991, Note_off_c, 0, 41, 45
1, 1070035, Note_on_c, 0, 29, 14
1, 1070087, Note_off_c, 0, 29, 46
1, 1070098, Note_on_c, 0, 77, 51
1, 1070109, Note_on_c, 0, 41, 23
1, 1070114, Note_on_c, 0, 73, 42
1, 1070161, Note_off_c, 0, 41, 46
1, 1070198, Note_on_c, 0, 29, 28
1, 1070260, Note_off_c, 0, 29, 44
1, 1070304, Note_on_c, 0, 41, 10
1, 1070360, Note_off_c, 0, 41, 47
1, 1070369, Note_on_c, 0, 29, 27
1, 1070425, Note_off_c, 0, 73, 62
1, 1070429, Note_off_c, 0, 29, 45
1, 1070474, Note_on_c, 0, 41, 12
1, 1070522, Note_off_c, 0, 41, 49
1, 1070546, Note_on_c, 0, 29, 23
1, 1070604, Note_off_c, 0, 29, 46
1, 1070648, Note_on_c, 0, 41, 10
1, 1070702, Note_off_c, 0, 41, 47
1, 1070720, Control_c, 0, 67, 126
1, 1070734, Note_on_c, 0, 29, 23
1, 1070735, Control_c, 0, 67, 125
1, 1070749, Note_on_c, 0, 73, 58
1, 1070751, Control_c, 0, 67, 122
1, 1070762, Note_on_c, 0, 70, 49
1, 1070766, Control_c, 0, 67, 121
1, 1070781, Control_c, 0, 67, 119
1, 1070795, Control_c, 0, 67, 117
1, 1070810, Control_c, 0, 67, 115
1, 1070816, Note_off_c, 0, 29, 39
1, 1070824, Control_c, 0, 67, 113
1, 1070839, Control_c, 0, 67, 110
1, 1070854, Control_c, 0, 67, 106
1, 1070869, Control_c, 0, 67, 104
1, 1070878, Poly_aftertouch_c, 0, 41, 127
1, 1070884, Control_c, 0, 67, 100
1, 1070898, Control_c, 0, 67, 97
1, 1070913, Control_c, 0, 67, 94
1, 1070926, Poly_aftertouch_c, 0, 41, 0
1, 1070928, Control_c, 0, 67, 91
1, 1070942, Control_c, 0, 67, 88
1, 1070957, Note_on_c, 0, 29, 26
1, 1070957, Control_c, 0, 67, 85
1, 1070972, Control_c, 0, 67, 82
1, 1070987, Control_c, 0, 67, 80
1, 1071002, Control_c, 0, 67, 77
1, 1071016, Control_c, 0, 67, 76
1, 1071031, Control_c, 0, 67, 74
1, 1071046, Control_c, 0, 67, 73
1, 1071047, Note_off_c, 0, 29, 39
1, 1071061, Control_c, 0, 67, 73
1, 1071074, Note_off_c, 0, 77, 38
1, 1071076, Control_c, 0, 67, 72
1, 1071097, Poly_aftertouch_c, 0, 41, 127
1, 1071137, Note_off_c, 0, 70, 61
1, 1071142, Poly_aftertouch_c, 0, 41, 0
1, 1071174, Note_on_c, 0, 29, 24
1, 1071216, Control_c, 0, 67, 73
1, 1071243, Note_off_c, 0, 29, 46
1, 1071246, Control_c, 0, 67, 73
1, 1071261, Control_c, 0, 67, 74
1, 1071276, Control_c, 0, 67, 74
1, 1071285, Note_on_c, 0, 41, 13
1, 1071306, Control_c, 0, 67, 75
1, 1071320, Control_c, 0, 67, 75
1, 1071335, Control_c, 0, 67, 76
1, 1071341, Note_off_c, 0, 41, 45
1, 1071350, Control_c, 0, 67, 76
1, 1071365, Note_on_c, 0, 29, 30
1, 1071380, Control_c, 0, 67, 77
1, 1071383, Note_on_c, 0, 70, 59
1, 1071395, Control_c, 0, 67, 77
1, 1071410, Note_on_c, 0, 65, 42
1, 1071424, Control_c, 0, 67, 78
1, 1071439, Control_c, 0, 67, 78
1, 1071448, Note_off_c, 0, 29, 40
1, 1071468, Control_c, 0, 67, 79
1, 1071483, Control_c, 0, 67, 79
1, 1071497, Poly_aftertouch_c, 0, 41, 127
1, 1071498, Control_c, 0, 67, 80
1, 1071528, Control_c, 0, 67, 80
1, 1071547, Poly_aftertouch_c, 0, 41, 0
1, 1071558, Note_on_c, 0, 29, 35
1, 1071559, Control_c, 0, 67, 81
1, 1071589, Control_c, 0, 67, 81
1, 1071598, Note_off_c, 0, 73, 38
1, 1071633, Control_c, 0, 67, 82
1, 1071663, Control_c, 0, 67, 82
1, 1071673, Note_off_c, 0, 29, 36
1, 1071682, Note_off_c, 0, 65, 57
1, 1071687, Note_on_c, 0, 41, 15
1, 1071713, Note_off_c, 0, 70, 62
1, 1071735, Note_off_c, 0, 41, 50
1, 1071762, Note_on_c, 0, 29, 28
1, 1071826, Control_c, 0, 67, 83
1, 1071868, Note_off_c, 0, 29, 37
1, 1071869, Note_on_c, 0, 41, 22
1, 1071918, Note_off_c, 0, 41, 47
1, 1071967, Note_on_c, 0, 29, 25
1, 1072011, Control_c, 0, 67, 83
1, 1072059, Note_on_c, 0, 65, 56
1, 1072076, Note_on_c, 0, 41, 26
1, 1072077, Note_on_c, 0, 61, 47
1, 1072130, Note_off_c, 0, 29, 0
1, 1072146, Note_off_c, 0, 41, 41
1, 1072167, Poly_aftertouch_c, 0, 29, 127
1, 1072176, Note_on_c, 0, 29, 3
1, 1072247, Control_c, 0, 67, 84
1, 1072303, Note_on_c, 0, 41, 21
1, 1072322, Control_c, 0, 67, 84
1, 1072352, Note_off_c, 0, 41, 48
1, 1072357, Note_off_c, 0, 29, 0
1, 1072367, Control_c, 0, 67, 85
1, 1072376, Note_on_c, 0, 29, 25
1, 1072397, Control_c, 0, 67, 85
1, 1072426, Control_c, 0, 67, 86
1, 1072441, Control_c, 0, 67, 87
1, 1072456, Control_c, 0, 67, 88
1, 1072471, Control_c, 0, 67, 89
1, 1072478, Note_off_c, 0, 29, 0
1, 1072486, Control_c, 0, 67, 90
1, 1072486, Note_on_c, 0, 41, 15
1, 1072501, Control_c, 0, 67, 91
1, 1072515, Poly_aftertouch_c, 0, 29, 127
1, 1072515, Control_c, 0, 67, 93
1, 1072530, Control_c, 0, 67, 94
1, 1072536, Note_off_c, 0, 41, 39
1, 1072545, Control_c, 0, 67, 96
1, 1072560, Control_c, 0, 67, 97
1, 1072575, Control_c, 0, 67, 99
1, 1072589, Control_c, 0, 67, 100
1, 1072604, Control_c, 0, 67, 101
1, 1072619, Control_c, 0, 67, 102
1, 1072623, Note_on_c, 0, 41, 9
1, 1072623, Note_off_c, 0, 61, 30
1, 1072634, Control_c, 0, 67, 103
1, 1072641, Poly_aftertouch_c, 0, 29, 0
1, 1072647, Note_off_c, 0, 65, 57
1, 1072649, Control_c, 0, 67, 104
1, 1072659, Note_on_c, 0, 29, 34
1, 1072663, Control_c, 0, 67, 105
1, 1072671, Note_off_c, 0, 41, 41
1, 1072678, Control_c, 0, 67, 106
1, 1072693, Control_c, 0, 67, 107
1, 1072715, Control_c, 0, 67, 108
1, 1072730, Control_c, 0, 67, 109
1, 1072745, Control_c, 0, 67, 109
1, 1072760, Control_c, 0, 67, 110
1, 1072766, Note_on_c, 0, 61, 62
1, 1072775, Control_c, 0, 67, 110
1, 1072776, Note_on_c, 0, 41, 18
1, 1072784, Note_on_c, 0, 65, 53
1, 1072789, Control_c, 0, 67, 111
1, 1072799, Note_off_c, 0, 29, 0
1, 1072802, Note_on_c, 0, 58, 41
1, 1072804, Control_c, 0, 67, 111
1, 1072818, Note_on_c, 0, 29, 30
1, 1072819, Control_c, 0, 67, 112
1, 1072824, Note_off_c, 0, 41, 48
1, 1072834, Control_c, 0, 64, 113
1, 1072834, Control_c, 0, 67, 113
1, 1072848, Control_c, 0, 64, 97
1, 1072848, Control_c, 0, 67, 113
1, 1072863, Control_c, 0, 64, 88
1, 1072863, Control_c, 0, 67, 114
1, 1072878, Control_c, 0, 64, 82
1, 1072893, Control_c, 0, 64, 80
1, 1072914, Note_on_c, 0, 41, 26
1, 1072922, Control_c, 0, 64, 80
1, 1072937, Control_c, 0, 64, 82
1, 1072939, Note_off_c, 0, 29, 0
1, 1072952, Control_c, 0, 64, 84
1, 1072957, Note_off_c, 0, 41, 49
1, 1072959, Note_on_c, 0, 29, 28
1, 1072967, Control_c, 0, 64, 87
1, 1072982, Control_c, 0, 64, 91
1, 1072996, Control_c, 0, 64, 93
1, 1073011, Control_c, 0, 64, 96
1, 1073014, Note_off_c, 0, 29, 57
1, 1073026, Control_c, 0, 64, 99
1, 1073040, Control_c, 0, 64, 102
1, 1073040, Control_c, 0, 67, 113
1, 1073046, Note_on_c, 0, 41, 36
1, 1073055, Control_c, 0, 64, 107
1, 1073070, Control_c, 0, 64, 113
1, 1073084, Note_off_c, 0, 41, 52
1, 1073085, Control_c, 0, 64, 127
1, 1073095, Note_on_c, 0, 29, 50
1, 1073115, Control_c, 0, 67, 113
1, 1073166, Note_off_c, 0, 29, 42
1, 1073234, Note_on_c, 0, 41, 18
1, 1073242, Note_off_c, 0, 58, 58
1, 1073264, Note_off_c, 0, 61, 61
1, 1073277, Note_off_c, 0, 41, 56
1, 1073357, Note_off_c, 0, 65, 32
1, 1073404, Note_on_c, 0, 34, 43
1, 1073427, Control_c, 0, 67, 113
1, 1073464, Control_c, 0, 67, 114
1, 1073493, Control_c, 0, 67, 114
1, 1073506, Note_on_c, 0, 60, 58
1, 1073523, Control_c, 0, 64, 106
1, 1073523, Control_c, 0, 67, 115
1, 1073528, Note_on_c, 0, 46, 40
1, 1073529, Note_on_c, 0, 65, 40
1, 1073536, Note_on_c, 0, 57, 37
1, 1073538, Control_c, 0, 64, 91
1, 1073553, Control_c, 0, 64, 80
1, 1073553, Control_c, 0, 67, 115
1, 1073568, Control_c, 0, 64, 68
1, 1073583, Control_c, 0, 64, 58
1, 1073583, Control_c, 0, 67, 116
1, 1073596, Note_off_c, 0, 34, 44
1, 1073598, Control_c, 0, 64, 45
1, 1073598, Control_c, 0, 67, 118
1, 1073599, Note_off_c, 0, 65, 0
1, 1073599, Note_on_c, 0, 65, 7
1, 1073612, Control_c, 0, 64, 45
1, 1073612, Control_c, 0, 67, 121
1, 1073627, Control_c, 0, 64, 44
1, 1073627, Control_c, 0, 67, 123
1, 1073628, Note_off_c, 0, 57, 0
1, 1073628, Note_on_c, 0, 57, 3
1, 1073642, Control_c, 0, 67, 124
1, 1073657, Control_c, 0, 67, 125
1, 1073671, Control_c, 0, 67, 126
1, 1073686, Control_c, 0, 67, 127
1, 1073716, Control_c, 0, 64, 45
1, 1073731, Control_c, 0, 64, 46
1, 1073745, Control_c, 0, 64, 49
1, 1073760, Control_c, 0, 64, 50
1, 1073775, Control_c, 0, 64, 51
1, 1073790, Control_c, 0, 64, 52
1, 1073819, Control_c, 0, 64, 53
1, 1073849, Control_c, 0, 64, 53
1, 1073863, Control_c, 0, 64, 54
1, 1073878, Control_c, 0, 64, 54
1, 1073893, Control_c, 0, 64, 55
1, 1073908, Control_c, 0, 64, 55
1, 1073923, Control_c, 0, 64, 56
1, 1073936, Note_off_c, 0, 46, 53
1, 1073983, Control_c, 0, 64, 56
1, 1074027, Control_c, 0, 64, 57
1, 1074072, Control_c, 0, 64, 57
1, 1074191, Control_c, 0, 64, 58
1, 1074272, Control_c, 0, 64, 58
1, 1074286, Control_c, 0, 64, 59
1, 1074301, Control_c, 0, 64, 61
1, 1074316, Control_c, 0, 64, 63
1, 1074331, Control_c, 0, 64, 65
1, 1074346, Control_c, 0, 64, 67
1, 1074361, Control_c, 0, 64, 70
1, 1074376, Control_c, 0, 64, 74
1, 1074391, Control_c, 0, 64, 79
1, 1074406, Control_c, 0, 64, 83
1, 1074421, Control_c, 0, 64, 88
1, 1074435, Control_c, 0, 64, 91
1, 1074450, Control_c, 0, 64, 94
1, 1074465, Control_c, 0, 64, 97
1, 1074480, Control_c, 0, 64, 99
1, 1074494, Control_c, 0, 64, 101
1, 1074509, Control_c, 0, 64, 103
1, 1074524, Control_c, 0, 64, 105
1, 1074538, Control_c, 0, 64, 106
1, 1074546, Note_off_c, 0, 65, 43
1, 1074553, Control_c, 0, 64, 107
1, 1074567, Control_c, 0, 64, 107
1, 1074582, Control_c, 0, 64, 108
1, 1074597, Control_c, 0, 64, 109
1, 1074612, Control_c, 0, 64, 109
1, 1074627, Control_c, 0, 64, 110
1, 1074745, Note_on_c, 0, 29, 49
1, 1074746, Control_c, 0, 64, 106
1, 1074755, Note_on_c, 0, 65, 48
1, 1074761, Note_on_c, 0, 63, 53
1, 1074761, Control_c, 0, 64, 101
1, 1074776, Control_c, 0, 64, 94
1, 1074788, Note_off_c, 0, 29, 59
1, 1074790, Control_c, 0, 64, 86
1, 1074805, Control_c, 0, 64, 81
1, 1074820, Control_c, 0, 64, 80
1, 1074850, Control_c, 0, 64, 81
1, 1074854, Note_on_c, 0, 41, 4
1, 1074857, Note_off_c, 0, 57, 42
1, 1074865, Control_c, 0, 64, 83
1, 1074880, Control_c, 0, 64, 86
1, 1074889, Note_on_c, 0, 29, 54
1, 1074895, Control_c, 0, 64, 87
1, 1074900, Note_off_c, 0, 60, 56
1, 1074909, Control_c, 0, 64, 87
1, 1074920, Note_off_c, 0, 65, 55
1, 1074925, Note_off_c, 0, 29, 52
1, 1074967, Note_off_c, 0, 41, 0
1, 1074967, Note_on_c, 0, 41, 9
1, 1075017, Note_off_c, 0, 41, 36
1, 1075056, Note_on_c, 0, 34, 42
1, 1075064, Control_c, 0, 64, 87
1, 1075079, Control_c, 0, 64, 85
1, 1075094, Control_c, 0, 64, 83
1, 1075109, Control_c, 0, 64, 80
1, 1075124, Control_c, 0, 64, 76
1, 1075136, Note_on_c, 0, 61, 46
1, 1075139, Control_c, 0, 64, 70
1, 1075151, Note_on_c, 0, 65, 44
1, 1075151, Note_off_c, 0, 34, 57
1, 1075154, Control_c, 0, 64, 64
1, 1075161, Note_on_c, 0, 46, 43
1, 1075169, Control_c, 0, 64, 50
1, 1075172, Note_on_c, 0, 58, 30
1, 1075183, Control_c, 0, 64, 34
1, 1075198, Control_c, 0, 64, 0
1, 1075211, Note_off_c, 0, 63, 37
1, 1075382, Note_off_c, 0, 46, 43
1, 1075570, Control_c, 0, 64, 42
1, 1075585, Control_c, 0, 64, 62
1, 1075600, Control_c, 0, 64, 68
1, 1075614, Control_c, 0, 64, 75
1, 1075629, Control_c, 0, 64, 83
1, 1075633, Note_off_c, 0, 58, 57
1, 1075644, Control_c, 0, 64, 95
1, 1075658, Control_c, 0, 64, 105
1, 1075666, Note_off_c, 0, 65, 59
1, 1075670, Note_off_c, 0, 61, 60
1, 1075673, Control_c, 0, 64, 118
1, 1075688, Control_c, 0, 64, 127
1, 1076019, Note_on_c, 0, 77, 55
1, 1076036, Note_on_c, 0, 73, 45
1, 1076066, Control_c, 0, 64, 100
1, 1076081, Control_c, 0, 64, 85
1, 1076096, Control_c, 0, 64, 73
1, 1076111, Control_c, 0, 64, 64
1, 1076126, Control_c, 0, 64, 51
1, 1076155, Control_c, 0, 64, 54
1, 1076170, Control_c, 0, 64, 58
1, 1076185, Control_c, 0, 64, 62
1, 1076200, Control_c, 0, 64, 65
1, 1076214, Control_c, 0, 64, 67
1, 1076229, Control_c, 0, 64, 70
1, 1076244, Control_c, 0, 64, 72
1, 1076258, Control_c, 0, 64, 75
1, 1076273, Control_c, 0, 64, 79
1, 1076288, Control_c, 0, 64, 84
1, 1076303, Control_c, 0, 64, 90
1, 1076318, Control_c, 0, 64, 97
1, 1076318, Control_c, 0, 67, 125
1, 1076334, Control_c, 0, 64, 103
1, 1076334, Control_c, 0, 67, 120
1, 1076349, Control_c, 0, 64, 112
1, 1076349, Control_c, 0, 67, 116
1, 1076363, Control_c, 0, 64, 127
1, 1076363, Control_c, 0, 67, 111
1, 1076378, Control_c, 0, 67, 106
1, 1076393, Control_c, 0, 67, 102
1, 1076408, Control_c, 0, 67, 97
1, 1076423, Control_c, 0, 67, 91
1, 1076437, Control_c, 0, 67, 84
1, 1076442, Note_off_c, 0, 73, 62
1, 1076459, Control_c, 0, 67, 78
1, 1076474, Control_c, 0, 67, 72
1, 1076489, Control_c, 0, 67, 67
1, 1076504, Control_c, 0, 67, 62
1, 1076519, Control_c, 0, 67, 58
1, 1076534, Control_c, 0, 67, 54
1, 1076549, Control_c, 0, 67, 51
1, 1076563, Control_c, 0, 67, 48
1, 1076578, Control_c, 0, 67, 45
1, 1076593, Control_c, 0, 67, 43
1, 1076608, Control_c, 0, 67, 41
1, 1076623, Control_c, 0, 67, 38
1, 1076637, Control_c, 0, 67, 36
1, 1076652, Control_c, 0, 67, 34
1, 1076667, Control_c, 0, 67, 33
1, 1076681, Control_c, 0, 67, 33
1, 1076711, Control_c, 0, 67, 32
1, 1076727, Note_on_c, 0, 70, 44
1, 1076727, Note_on_c, 0, 73, 56
1, 1076785, Control_c, 0, 64, 114
1, 1076800, Control_c, 0, 64, 98
1, 1076815, Control_c, 0, 64, 87
1, 1076829, Control_c, 0, 64, 76
1, 1076844, Control_c, 0, 64, 64
1, 1076859, Control_c, 0, 64, 0
1, 1076901, Note_off_c, 0, 77, 55
1, 1076919, Control_c, 0, 67, 33
1, 1076993, Control_c, 0, 64, 46
1, 1077007, Control_c, 0, 64, 61
1, 1077022, Control_c, 0, 64, 65
1, 1077037, Control_c, 0, 64, 69
1, 1077052, Control_c, 0, 64, 73
1, 1077067, Control_c, 0, 64, 80
1, 1077081, Control_c, 0, 64, 87
1, 1077096, Note_off_c, 0, 70, 63
1, 1077096, Control_c, 0, 64, 94
1, 1077111, Control_c, 0, 64, 100
1, 1077127, Control_c, 0, 64, 107
1, 1077142, Control_c, 0, 64, 114
1, 1077142, Control_c, 0, 67, 33
1, 1077157, Control_c, 0, 64, 127
1, 1077172, Control_c, 0, 67, 34
1, 1077186, Control_c, 0, 67, 34
1, 1077223, Control_c, 0, 67, 35
1, 1077238, Control_c, 0, 67, 35
1, 1077253, Control_c, 0, 67, 36
1, 1077267, Control_c, 0, 67, 36
1, 1077297, Control_c, 0, 67, 37
1, 1077312, Control_c, 0, 67, 37
1, 1077327, Control_c, 0, 67, 38
1, 1077342, Control_c, 0, 67, 38
1, 1077372, Control_c, 0, 67, 39
1, 1077399, Note_on_c, 0, 70, 55
1, 1077401, Control_c, 0, 67, 40
1, 1077416, Control_c, 0, 67, 40
1, 1077428, Note_on_c, 0, 65, 42
1, 1077430, Control_c, 0, 67, 41
1, 1077445, Control_c, 0, 67, 42
1, 1077460, Control_c, 0, 67, 42
1, 1077475, Control_c, 0, 67, 43
1, 1077490, Control_c, 0, 64, 109
1, 1077490, Control_c, 0, 67, 43
1, 1077504, Control_c, 0, 64, 93
1, 1077504, Control_c, 0, 67, 44
1, 1077519, Control_c, 0, 64, 79
1, 1077519, Control_c, 0, 67, 44
1, 1077534, Control_c, 0, 64, 66
1, 1077534, Control_c, 0, 67, 45
1, 1077549, Control_c, 0, 64, 0
1, 1077549, Control_c, 0, 67, 47
1, 1077564, Control_c, 0, 67, 49
1, 1077578, Control_c, 0, 67, 51
1, 1077582, Note_off_c, 0, 73, 52
1, 1077593, Control_c, 0, 67, 53
1, 1077608, Control_c, 0, 67, 55
1, 1077623, Control_c, 0, 67, 57
1, 1077637, Control_c, 0, 67, 59
1, 1077652, Control_c, 0, 64, 49
1, 1077652, Control_c, 0, 67, 61
1, 1077667, Control_c, 0, 64, 64
1, 1077667, Control_c, 0, 67, 61
1, 1077682, Control_c, 0, 64, 68
1, 1077697, Control_c, 0, 64, 73
1, 1077711, Control_c, 0, 64, 79
1, 1077726, Control_c, 0, 64, 86
1, 1077741, Control_c, 0, 64, 95
1, 1077756, Control_c, 0, 64, 101
1, 1077760, Note_off_c, 0, 70, 58
1, 1077771, Control_c, 0, 64, 107
1, 1077784, Note_off_c, 0, 65, 38
1, 1077786, Control_c, 0, 64, 116
1, 1077801, Control_c, 0, 64, 127
1, 1078031, Control_c, 0, 67, 61
1, 1078150, Note_on_c, 0, 65, 55
1, 1078163, Note_on_c, 0, 61, 47
1, 1078194, Control_c, 0, 64, 108
1, 1078209, Control_c, 0, 64, 90
1, 1078209, Control_c, 0, 67, 61
1, 1078224, Control_c, 0, 64, 79
1, 1078239, Control_c, 0, 64, 70
1, 1078253, Control_c, 0, 64, 63
1, 1078268, Control_c, 0, 64, 59
1, 1078284, Control_c, 0, 64, 60
1, 1078299, Control_c, 0, 64, 62
1, 1078314, Control_c, 0, 64, 64
1, 1078328, Control_c, 0, 64, 66
1, 1078343, Control_c, 0, 64, 68
1, 1078358, Control_c, 0, 64, 70
1, 1078373, Control_c, 0, 64, 72
1, 1078388, Control_c, 0, 64, 74
1, 1078403, Control_c, 0, 64, 77
1, 1078417, Control_c, 0, 64, 80
1, 1078432, Control_c, 0, 64, 83
1, 1078447, Control_c, 0, 64, 86
1, 1078461, Control_c, 0, 64, 89
1, 1078476, Control_c, 0, 64, 93
1, 1078491, Control_c, 0, 64, 96
1, 1078506, Control_c, 0, 64, 100
1, 1078521, Control_c, 0, 64, 104
1, 1078535, Control_c, 0, 64, 108
1, 1078535, Control_c, 0, 67, 62
1, 1078550, Control_c, 0, 64, 113
1, 1078565, Control_c, 0, 64, 121
1, 1078565, Control_c, 0, 67, 62
1, 1078580, Control_c, 0, 64, 127
1, 1078609, Control_c, 0, 67, 63
1, 1078624, Control_c, 0, 67, 63
1, 1078639, Control_c, 0, 67, 64
1, 1078668, Control_c, 0, 67, 68
1, 1078683, Control_c, 0, 67, 72
1, 1078706, Control_c, 0, 67, 75
1, 1078721, Control_c, 0, 67, 78
1, 1078737, Control_c, 0, 67, 81
1, 1078752, Control_c, 0, 67, 83
1, 1078766, Control_c, 0, 67, 86
1, 1078781, Control_c, 0, 67, 89
1, 1078796, Control_c, 0, 67, 92
1, 1078811, Control_c, 0, 67, 95
1, 1078824, Note_off_c, 0, 61, 28
1, 1078826, Control_c, 0, 67, 98
1, 1078826, Note_off_c, 0, 65, 52
1, 1078840, Control_c, 0, 67, 101
1, 1078855, Control_c, 0, 67, 103
1, 1078870, Control_c, 0, 67, 105
1, 1078884, Control_c, 0, 67, 108
1, 1078899, Control_c, 0, 67, 110
1, 1078914, Control_c, 0, 67, 112
1, 1078929, Control_c, 0, 67, 115
1, 1078944, Control_c, 0, 67, 118
1, 1078952, Note_on_c, 0, 61, 41
1, 1078958, Control_c, 0, 67, 121
1, 1078971, Note_on_c, 0, 63, 52
1, 1078973, Control_c, 0, 67, 125
1, 1078979, Note_on_c, 0, 58, 39
1, 1078988, Control_c, 0, 67, 127
1, 1079047, Control_c, 0, 64, 111
1, 1079062, Control_c, 0, 64, 100
1, 1079076, Control_c, 0, 64, 88
1, 1079091, Control_c, 0, 64, 79
1, 1079106, Control_c, 0, 64, 69
1, 1079121, Control_c, 0, 64, 55
1, 1079136, Control_c, 0, 64, 0
1, 1079336, Note_on_c, 0, 27, 52
1, 1079357, Control_c, 0, 64, 48
1, 1079372, Control_c, 0, 64, 63
1, 1079376, Note_off_c, 0, 27, 63
1, 1079387, Control_c, 0, 64, 68
1, 1079402, Control_c, 0, 64, 73
1, 1079417, Control_c, 0, 64, 77
1, 1079420, Note_on_c, 0, 39, 38
1, 1079431, Control_c, 0, 64, 80
1, 1079454, Control_c, 0, 64, 82
1, 1079462, Note_off_c, 0, 39, 50
1, 1079469, Control_c, 0, 64, 83
1, 1079472, Note_on_c, 0, 27, 64
1, 1079513, Control_c, 0, 64, 84
1, 1079517, Note_off_c, 0, 27, 63
1, 1079521, Note_off_c, 0, 63, 55
1, 1079539, Note_off_c, 0, 61, 55
1, 1079540, Note_off_c, 0, 58, 62
1, 1079544, Note_on_c, 0, 39, 56
1, 1079580, Note_off_c, 0, 39, 60
1, 1079648, Control_c, 0, 64, 83
1, 1079654, Note_on_c, 0, 32, 41
1, 1079706, Control_c, 0, 64, 82
1, 1079721, Control_c, 0, 64, 78
1, 1079736, Control_c, 0, 64, 71
1, 1079751, Control_c, 0, 64, 65
1, 1079756, Note_on_c, 0, 58, 61
1, 1079756, Note_off_c, 0, 32, 53
1, 1079766, Control_c, 0, 64, 55
1, 1079767, Note_on_c, 0, 44, 48
1, 1079771, Note_on_c, 0, 55, 49
1, 1079773, Note_on_c, 0, 63, 50
1, 1079780, Control_c, 0, 64, 31
1, 1079795, Control_c, 0, 64, 0
1, 1080081, Note_off_c, 0, 44, 57
1, 1080677, Control_c, 0, 64, 24
1, 1080692, Control_c, 0, 64, 48
1, 1080707, Control_c, 0, 64, 57
1, 1080721, Control_c, 0, 64, 62
1, 1080736, Control_c, 0, 64, 65
1, 1080751, Control_c, 0, 64, 67
1, 1080766, Control_c, 0, 64, 69
1, 1080781, Control_c, 0, 64, 71
1, 1080795, Control_c, 0, 64, 73
1, 1080810, Control_c, 0, 64, 75
1, 1080825, Control_c, 0, 64, 77
1, 1080840, Control_c, 0, 64, 80
1, 1080844, Note_off_c, 0, 63, 51
1, 1080854, Control_c, 0, 64, 82
1, 1080869, Control_c, 0, 64, 84
1, 1080884, Control_c, 0, 64, 86
1, 1080899, Control_c, 0, 64, 87
1, 1080913, Note_off_c, 0, 58, 36
1, 1080914, Control_c, 0, 64, 89
1, 1080928, Control_c, 0, 64, 90
1, 1080951, Control_c, 0, 64, 91
1, 1080981, Control_c, 0, 64, 92
1, 1081050, Note_on_c, 0, 58, 33
1, 1081054, Note_on_c, 0, 27, 51
1, 1081066, Note_on_c, 0, 61, 47
1, 1081069, Note_on_c, 0, 63, 51
1, 1081093, Note_off_c, 0, 55, 52
1, 1081098, Note_off_c, 0, 27, 60
1, 1081143, Note_off_c, 0, 58, 50
1, 1081167, Note_on_c, 0, 39, 18
1, 1081190, Note_on_c, 0, 27, 64
1, 1081205, Note_off_c, 0, 63, 50
1, 1081211, Note_off_c, 0, 39, 48
1, 1081227, Note_off_c, 0, 27, 65
1, 1081273, Note_on_c, 0, 39, 40
1, 1081308, Note_off_c, 0, 39, 49
1, 1081354, Note_on_c, 0, 32, 51
1, 1081366, Control_c, 0, 64, 91
1, 1081381, Control_c, 0, 64, 88
1, 1081396, Control_c, 0, 64, 83
1, 1081406, Note_on_c, 0, 60, 47
1, 1081411, Control_c, 0, 64, 75
1, 1081413, Note_on_c, 0, 63, 48
1, 1081421, Note_off_c, 0, 32, 61
1, 1081424, Note_on_c, 0, 56, 31
1, 1081426, Control_c, 0, 64, 66
1, 1081441, Control_c, 0, 64, 0
1, 1081445, Note_off_c, 0, 61, 35
1, 1081448, Note_on_c, 0, 44, 39
1, 1081623, Note_off_c, 0, 44, 48
1, 1081789, Control_c, 0, 64, 37
1, 1081803, Control_c, 0, 64, 62
1, 1081818, Control_c, 0, 64, 69
1, 1081833, Control_c, 0, 64, 77
1, 1081848, Control_c, 0, 64, 86
1, 1081863, Control_c, 0, 64, 98
1, 1081877, Control_c, 0, 64, 114
1, 1081885, Note_off_c, 0, 56, 56
1, 1081892, Control_c, 0, 64, 127
1, 1081909, Note_off_c, 0, 60, 59
1, 1081956, Note_off_c, 0, 63, 55
1, 1082248, Note_on_c, 0, 59, 42
1, 1082248, Note_on_c, 0, 63, 47
1, 1082251, Note_on_c, 0, 56, 39
1, 1082278, Control_c, 0, 64, 107
1, 1082293, Control_c, 0, 64, 87
1, 1082308, Control_c, 0, 64, 70
1, 1082323, Control_c, 0, 64, 52
1, 1082338, Control_c, 0, 64, 0
1, 1082367, Control_c, 0, 64, 34
1, 1082382, Control_c, 0, 64, 52
1, 1082397, Control_c, 0, 64, 63
1, 1082412, Control_c, 0, 64, 66
1, 1082426, Control_c, 0, 64, 70
1, 1082448, Control_c, 0, 64, 73
1, 1082463, Control_c, 0, 64, 78
1, 1082478, Control_c, 0, 64, 84
1, 1082493, Control_c, 0, 64, 93
1, 1082508, Control_c, 0, 64, 101
1, 1082523, Control_c, 0, 64, 111
1, 1082538, Control_c, 0, 64, 127
1, 1082552, Control_c, 0, 67, 127
1, 1082567, Control_c, 0, 67, 123
1, 1082582, Control_c, 0, 67, 118
1, 1082597, Control_c, 0, 67, 113
1, 1082612, Control_c, 0, 67, 108
1, 1082626, Control_c, 0, 67, 103
1, 1082630, Note_on_c, 0, 65, 61
1, 1082641, Control_c, 0, 67, 98
1, 1082645, Note_off_c, 0, 56, 50
1, 1082656, Control_c, 0, 67, 94
1, 1082671, Control_c, 0, 67, 89
1, 1082686, Control_c, 0, 67, 85
1, 1082700, Control_c, 0, 67, 80
1, 1082715, Control_c, 0, 67, 76
1, 1082725, Note_off_c, 0, 63, 58
1, 1082731, Control_c, 0, 67, 72
1, 1082746, Control_c, 0, 67, 69
1, 1082761, Control_c, 0, 67, 67
1, 1082776, Control_c, 0, 67, 64
1, 1082791, Control_c, 0, 67, 62
1, 1082805, Control_c, 0, 67, 60
1, 1082820, Control_c, 0, 67, 58
1, 1082835, Control_c, 0, 67, 56
1, 1082849, Control_c, 0, 67, 55
1, 1082864, Control_c, 0, 67, 54
1, 1082879, Control_c, 0, 67, 52
1, 1082894, Control_c, 0, 67, 51
1, 1082909, Control_c, 0, 67, 50
1, 1082923, Control_c, 0, 67, 49
1, 1082938, Control_c, 0, 67, 48
1, 1082953, Control_c, 0, 67, 47
1, 1082968, Control_c, 0, 67, 46
1, 1082979, Note_on_c, 0, 63, 51
1, 1082983, Control_c, 0, 67, 45
1, 1082988, Note_on_c, 0, 66, 63
1, 1082993, Note_on_c, 0, 58, 44
1, 1082997, Control_c, 0, 67, 44
1, 1083006, Note_on_c, 0, 51, 46
1, 1083012, Control_c, 0, 67, 43
1, 1083027, Control_c, 0, 64, 102
1, 1083027, Control_c, 0, 67, 42
1, 1083041, Control_c, 0, 64, 88
1, 1083041, Control_c, 0, 67, 41
1, 1083056, Control_c, 0, 64, 74
1, 1083056, Control_c, 0, 67, 40
1, 1083071, Control_c, 0, 64, 62
1, 1083071, Control_c, 0, 67, 38
1, 1083073, Note_off_c, 0, 59, 41
1, 1083086, Control_c, 0, 64, 0
1, 1083086, Control_c, 0, 67, 37
1, 1083090, Note_off_c, 0, 65, 56
1, 1083101, Control_c, 0, 67, 35
1, 1083116, Control_c, 0, 67, 33
1, 1083131, Control_c, 0, 67, 30
1, 1083146, Control_c, 0, 67, 27
1, 1083161, Control_c, 0, 67, 23
1, 1083175, Control_c, 0, 67, 18
1, 1083197, Control_c, 0, 67, 13
1, 1083212, Control_c, 0, 64, 27
1, 1083212, Control_c, 0, 67, 0
1, 1083227, Control_c, 0, 64, 59
1, 1083242, Control_c, 0, 64, 65
1, 1083256, Control_c, 0, 64, 71
1, 1083271, Control_c, 0, 64, 77
1, 1083286, Control_c, 0, 64, 84
1, 1083301, Note_off_c, 0, 63, 53
1, 1083301, Control_c, 0, 64, 93
1, 1083316, Control_c, 0, 64, 105
1, 1083330, Control_c, 0, 64, 127
1, 1083386, Note_off_c, 0, 66, 60
1, 1083548, Note_off_c, 0, 58, 38
1, 1083636, Note_off_c, 0, 51, 34
1, 1083739, Note_on_c, 0, 70, 67
1, 1083746, Note_on_c, 0, 65, 60
1, 1083754, Note_on_c, 0, 49, 52
1, 1083763, Note_on_c, 0, 58, 49
1, 1083790, Control_c, 0, 64, 95
1, 1083805, Control_c, 0, 64, 78
1, 1083820, Control_c, 0, 64, 65
1, 1083835, Control_c, 0, 64, 56
1, 1083850, Control_c, 0, 64, 59
1, 1083864, Control_c, 0, 64, 63
1, 1083879, Control_c, 0, 64, 66
1, 1083894, Control_c, 0, 64, 71
1, 1083909, Control_c, 0, 64, 78
1, 1083924, Control_c, 0, 64, 86
1, 1083946, Control_c, 0, 64, 99
1, 1083961, Control_c, 0, 64, 126
1, 1083976, Control_c, 0, 64, 127
1, 1084218, Note_off_c, 0, 65, 59
1, 1084241, Note_off_c, 0, 49, 50
1, 1084276, Note_off_c, 0, 58, 37
1, 1084337, Note_off_c, 0, 70, 53
1, 1084490, Note_on_c, 0, 75, 76
1, 1084495, Note_on_c, 0, 66, 68
1, 1084510, Note_on_c, 0, 48, 50
1, 1084517, Note_on_c, 0, 58, 52
1, 1084569, Control_c, 0, 64, 99
1, 1084584, Control_c, 0, 64, 80
1, 1084599, Control_c, 0, 64, 68
1, 1084613, Control_c, 0, 64, 62
1, 1084628, Control_c, 0, 64, 62
1, 1084643, Control_c, 0, 64, 65
1, 1084658, Control_c, 0, 64, 68
1, 1084673, Control_c, 0, 64, 75
1, 1084695, Control_c, 0, 64, 82
1, 1084710, Control_c, 0, 64, 92
1, 1084725, Control_c, 0, 64, 108
1, 1084740, Control_c, 0, 64, 127
1, 1084970, Note_off_c, 0, 66, 61
1, 1084985, Note_off_c, 0, 58, 61
1, 1085053, Note_off_c, 0, 48, 58
1, 1085185, Note_off_c, 0, 75, 37
1, 1085270, Note_on_c, 0, 75, 67
1, 1085270, Note_on_c, 0, 77, 82
1, 1085277, Note_on_c, 0, 65, 73
1, 1085292, Note_on_c, 0, 47, 66
1, 1085292, Note_on_c, 0, 57, 64
1, 1085348, Control_c, 0, 64, 94
1, 1085363, Control_c, 0, 64, 72
1, 1085378, Control_c, 0, 64, 0
1, 1085504, Control_c, 0, 64, 48
1, 1085518, Control_c, 0, 64, 64
1, 1085533, Control_c, 0, 64, 71
1, 1085548, Control_c, 0, 64, 78
1, 1085563, Control_c, 0, 64, 89
1, 1085577, Control_c, 0, 64, 104
1, 1085592, Control_c, 0, 64, 127
1, 1085692, Note_off_c, 0, 47, 61
1, 1085757, Note_off_c, 0, 57, 56
1, 1085804, Note_off_c, 0, 65, 49
1, 1085854, Note_off_c, 0, 77, 46
1, 1085910, Note_off_c, 0, 75, 50
1, 1086211, Note_on_c, 0, 77, 77
1, 1086214, Note_on_c, 0, 74, 69
1, 1086219, Note_on_c, 0, 65, 68
1, 1086222, Note_on_c, 0, 46, 62
1, 1086225, Note_on_c, 0, 58, 59
1, 1086252, Control_c, 0, 64, 96
1, 1086267, Control_c, 0, 64, 73
1, 1086282, Control_c, 0, 64, 0
1, 1086371, Control_c, 0, 64, 56
1, 1086386, Control_c, 0, 64, 69
1, 1086400, Control_c, 0, 64, 78
1, 1086415, Control_c, 0, 64, 93
1, 1086430, Control_c, 0, 64, 127
1, 1086603, Note_off_c, 0, 46, 63
1, 1086643, Note_off_c, 0, 58, 62
1, 1087164, Control_c, 0, 64, 93
1, 1087179, Control_c, 0, 64, 69
1, 1087194, Control_c, 0, 64, 0
1, 1087268, Control_c, 0, 64, 58
1, 1087283, Control_c, 0, 64, 67
1, 1087297, Control_c, 0, 64, 75
1, 1087304, Note_off_c, 0, 74, 64
1, 1087304, Note_off_c, 0, 65, 61
1, 1087312, Control_c, 0, 64, 85
1, 1087327, Control_c, 0, 64, 99
1, 1087342, Control_c, 0, 64, 127
1, 1087550, Note_on_c, 0, 70, 54
1, 1087551, Note_on_c, 0, 74, 61
1, 1087551, Note_off_c, 0, 77, 58
1, 1087558, Note_on_c, 0, 34, 53
1, 1087560, Note_on_c, 0, 65, 51
1, 1087591, Note_off_c, 0, 34, 60
1, 1087671, Note_on_c, 0, 34, 63
1, 1087707, Note_off_c, 0, 34, 63
1, 1087713, Note_off_c, 0, 65, 60
1, 1087719, Note_off_c, 0, 70, 62
1, 1087769, Note_on_c, 0, 34, 72
1, 1087807, Note_off_c, 0, 34, 62
1, 1087945, Note_on_c, 0, 70, 64
1, 1087945, Note_on_c, 0, 65, 54
1, 1087948, Note_on_c, 0, 46, 59
1, 1087952, Note_on_c, 0, 62, 52
1, 1087994, Note_off_c, 0, 74, 57
1, 1088002, Control_c, 0, 64, 90
1, 1088017, Control_c, 0, 64, 70
1, 1088032, Control_c, 0, 64, 0
1, 1088151, Control_c, 0, 67, 8
1, 1088225, Control_c, 0, 64, 57
1, 1088235, Note_off_c, 0, 46, 61
1, 1088239, Control_c, 0, 64, 66
1, 1088254, Control_c, 0, 64, 73
1, 1088269, Control_c, 0, 64, 84
1, 1088284, Control_c, 0, 64, 110
1, 1088291, Note_off_c, 0, 62, 59
1, 1088299, Control_c, 0, 64, 127
1, 1088338, Note_off_c, 0, 65, 60
1, 1088344, Control_c, 0, 67, 0
1, 1088386, Note_off_c, 0, 70, 61
1, 1088756, Note_on_c, 0, 70, 71
1, 1088780, Note_on_c, 0, 58, 63
1, 1088795, Control_c, 0, 64, 88
1, 1088810, Control_c, 0, 64, 70
1, 1088825, Control_c, 0, 64, 59
1, 1088840, Control_c, 0, 64, 63
1, 1088855, Control_c, 0, 64, 67
1, 1088869, Control_c, 0, 64, 75
1, 1088884, Control_c, 0, 64, 88
1, 1088899, Control_c, 0, 64, 116
1, 1088914, Control_c, 0, 64, 127
1, 1088944, Note_off_c, 0, 70, 60
1, 1088946, Note_off_c, 0, 58, 55
1, 1089017, Note_on_c, 0, 57, 75
1, 1089024, Note_on_c, 0, 69, 73
1, 1089030, Note_on_c, 0, 72, 80
1, 1089042, Note_on_c, 0, 70, 76
1, 1089069, Note_off_c, 0, 69, 62
1, 1089084, Note_off_c, 0, 57, 59
1, 1089100, Note_off_c, 0, 70, 61
1, 1089123, Note_off_c, 0, 72, 60
1, 1089200, Note_on_c, 0, 70, 85
1, 1089201, Note_on_c, 0, 68, 91
1, 1089203, Note_on_c, 0, 56, 89
1, 1089204, Note_on_c, 0, 74, 87
1, 1089224, Note_off_c, 0, 70, 69
1, 1089240, Note_off_c, 0, 74, 67
1, 1089245, Note_off_c, 0, 68, 62
1, 1089379, Note_on_c, 0, 75, 93
1, 1089382, Note_on_c, 0, 66, 93
1, 1089386, Note_on_c, 0, 70, 89
1, 1089388, Note_on_c, 0, 54, 88
1, 1089397, Control_c, 0, 64, 86
1, 1089411, Control_c, 0, 64, 58
1, 1089415, Note_off_c, 0, 56, 30
1, 1089426, Control_c, 0, 64, 0
1, 1089485, Control_c, 0, 64, 63
1, 1089500, Control_c, 0, 64, 76
1, 1089514, Control_c, 0, 64, 97
1, 1089529, Control_c, 0, 64, 127
1, 1089732, Note_off_c, 0, 66, 60
1, 1089898, Note_off_c, 0, 54, 53
1, 1090055, Note_off_c, 0, 70, 54
1, 1090079, Note_off_c, 0, 75, 46
1, 1090121, Note_on_c, 0, 75, 73
1, 1090127, Note_on_c, 0, 78, 92
1, 1090130, Note_on_c, 0, 70, 87
1, 1090133, Note_on_c, 0, 63, 93
1, 1090135, Note_on_c, 0, 51, 87
1, 1090145, Control_c, 0, 64, 123
1, 1090159, Control_c, 0, 64, 82
1, 1090174, Control_c, 0, 64, 58
1, 1090189, Control_c, 0, 64, 0
1, 1090204, Control_c, 0, 64, 19
1, 1090219, Control_c, 0, 64, 61
1, 1090233, Control_c, 0, 64, 71
1, 1090248, Control_c, 0, 64, 87
1, 1090263, Control_c, 0, 64, 127
1, 1090413, Note_off_c, 0, 70, 54
1, 1090548, Note_off_c, 0, 75, 51
1, 1090565, Note_off_c, 0, 63, 57
1, 1090699, Note_off_c, 0, 51, 59
1, 1090726, Note_off_c, 0, 78, 61
1, 1090902, Note_on_c, 0, 82, 98
1, 1090905, Note_on_c, 0, 70, 87
1, 1090909, Note_on_c, 0, 77, 79
1, 1090911, Note_on_c, 0, 61, 96
1, 1090913, Note_on_c, 0, 49, 91
1, 1090923, Control_c, 0, 64, 90
1, 1090938, Control_c, 0, 64, 60
1, 1090953, Control_c, 0, 64, 0
1, 1090997, Control_c, 0, 64, 66
1, 1091012, Control_c, 0, 64, 88
1, 1091027, Control_c, 0, 64, 127
1, 1091069, Note_off_c, 0, 70, 63
1, 1091325, Note_off_c, 0, 82, 48
1, 1091328, Note_off_c, 0, 77, 54
1, 1091364, Note_off_c, 0, 49, 61
1, 1091466, Note_off_c, 0, 61, 52
1, 1091684, Note_on_c, 0, 87, 99
1, 1091687, Note_on_c, 0, 75, 92
1, 1091688, Note_on_c, 0, 78, 89
1, 1091692, Note_on_c, 0, 82, 89
1, 1091692, Note_on_c, 0, 48, 91
1, 1091693, Note_on_c, 0, 60, 97
1, 1091702, Control_c, 0, 64, 105
1, 1091717, Control_c, 0, 64, 64
1, 1091732, Control_c, 0, 64, 0
1, 1091791, Control_c, 0, 64, 62
1, 1091805, Control_c, 0, 64, 78
1, 1091820, Control_c, 0, 64, 105
1, 1091835, Control_c, 0, 64, 127
1, 1091839, Note_off_c, 0, 75, 64
1, 1091931, Note_off_c, 0, 87, 64
1, 1091953, Note_off_c, 0, 60, 57
1, 1091960, Note_off_c, 0, 48, 59
1, 1092018, Note_off_c, 0, 78, 61
1, 1092051, Note_off_c, 0, 82, 63
1, 1092597, Note_on_c, 0, 82, 96
1, 1092598, Note_on_c, 0, 89, 98
1, 1092600, Note_on_c, 0, 77, 99
1, 1092603, Note_on_c, 0, 86, 86
1, 1092607, Note_on_c, 0, 58, 102
1, 1092610, Note_on_c, 0, 46, 88
1, 1092614, Control_c, 0, 64, 79
1, 1092628, Control_c, 0, 64, 0
1, 1092673, Control_c, 0, 64, 59
1, 1092688, Control_c, 0, 64, 80
1, 1092702, Control_c, 0, 64, 127
1, 1092781, Note_off_c, 0, 46, 66
1, 1092794, Note_off_c, 0, 58, 66
1, 1093421, Control_c, 0, 64, 114
1, 1093436, Control_c, 0, 64, 71
1, 1093450, Control_c, 0, 64, 0
1, 1093524, Control_c, 0, 64, 76
1, 1093539, Control_c, 0, 64, 127
1, 1093592, Note_off_c, 0, 89, 61
1, 1093600, Note_off_c, 0, 77, 58
1, 1093611, Note_off_c, 0, 86, 63
1, 1093627, Note_off_c, 0, 82, 64
1, 1093844, Note_on_c, 0, 34, 78
1, 1093850, Note_on_c, 0, 77, 75
1, 1093850, Note_on_c, 0, 82, 81
1, 1093852, Note_on_c, 0, 86, 89
1, 1093858, Note_on_c, 0, 74, 80
1, 1093893, Note_off_c, 0, 34, 59
1, 1093950, Note_off_c, 0, 86, 66
1, 1093953, Note_on_c, 0, 34, 77
1, 1093954, Note_off_c, 0, 74, 60
1, 1093969, Note_off_c, 0, 82, 65
1, 1093972, Note_off_c, 0, 77, 63
1, 1093985, Note_off_c, 0, 34, 64
1, 1094041, Note_on_c, 0, 34, 92
1, 1094082, Note_off_c, 0, 34, 63
1, 1094217, Note_on_c, 0, 82, 99
1, 1094220, Note_on_c, 0, 74, 85
1, 1094223, Note_on_c, 0, 70, 90
1, 1094226, Note_on_c, 0, 46, 95
1, 1094226, Note_on_c, 0, 77, 79
1, 1094229, Control_c, 0, 64, 85
1, 1094244, Control_c, 0, 64, 0
1, 1094259, Control_c, 0, 67, 8
1, 1094265, Note_off_c, 0, 46, 65
1, 1094273, Control_c, 0, 67, 9
1, 1094288, Control_c, 0, 64, 70
1, 1094303, Control_c, 0, 64, 105
1, 1094303, Control_c, 0, 67, 8
1, 1094318, Control_c, 0, 64, 127
1, 1094318, Control_c, 0, 67, 8
1, 1094333, Control_c, 0, 67, 0
1, 1094380, Note_off_c, 0, 74, 58
1, 1094384, Note_off_c, 0, 70, 65
1, 1094384, Note_off_c, 0, 77, 58
1, 1094404, Note_off_c, 0, 82, 62
1, 1094875, Control_c, 0, 64, 109
1, 1094890, Control_c, 0, 64, 100
1, 1094904, Control_c, 0, 64, 93
1, 1094919, Control_c, 0, 64, 88
1, 1094934, Control_c, 0, 64, 82
1, 1094948, Control_c, 0, 64, 76
1, 1094963, Control_c, 0, 64, 68
1, 1094978, Control_c, 0, 64, 56
1, 1094993, Control_c, 0, 64, 0
1, 1095400, Control_c, 0, 64, 62
1, 1095415, Control_c, 0, 64, 73
1, 1095430, Control_c, 0, 64, 84
1, 1095445, Control_c, 0, 64, 109
1, 1095460, Control_c, 0, 64, 127
1, 1095531, Note_on_c, 0, 82, 108
1, 1095537, Note_on_c, 0, 70, 81
1, 1095569, Note_off_c, 0, 82, 68
1, 1095582, Note_off_c, 0, 70, 64
1, 1095645, Note_on_c, 0, 70, 85
1, 1095646, Note_on_c, 0, 82, 109
1, 1095680, Note_off_c, 0, 82, 67
1, 1095685, Note_off_c, 0, 70, 67
1, 1095743, Note_on_c, 0, 70, 86
1, 1095743, Note_on_c, 0, 82, 97
1, 1095782, Note_off_c, 0, 70, 62
1, 1095803, Note_off_c, 0, 82, 59
1, 1095933, Note_on_c, 0, 70, 3
1, 1095971, Note_on_c, 0, 90, 100
1, 1095975, Note_on_c, 0, 78, 96
1, 1095975, Note_on_c, 0, 72, 90
1, 1095975, Note_on_c, 0, 82, 91
1, 1095976, Note_on_c, 0, 63, 87
1, 1095979, Note_on_c, 0, 84, 83
1, 1096000, Control_c, 0, 64, 84
1, 1096015, Control_c, 0, 64, 0
1, 1096021, Note_on_c, 0, 66, 43
1, 1096059, Control_c, 0, 64, 27
1, 1096065, Note_off_c, 0, 66, 46
1, 1096074, Control_c, 0, 64, 78
1, 1096089, Control_c, 0, 64, 127
1, 1096480, Note_off_c, 0, 63, 57
1, 1096653, Note_off_c, 0, 72, 51
1, 1096750, Note_off_c, 0, 90, 59
1, 1096756, Note_off_c, 0, 70, 43
1, 1096771, Note_off_c, 0, 78, 54
1, 1096890, Note_off_c, 0, 82, 49
1, 1097026, Note_off_c, 0, 84, 19
1, 1097313, Control_c, 0, 64, 111
1, 1097317, Note_on_c, 0, 89, 97
1, 1097320, Note_on_c, 0, 65, 84
1, 1097320, Note_on_c, 0, 81, 91
1, 1097321, Note_on_c, 0, 75, 95
1, 1097322, Note_on_c, 0, 77, 98
1, 1097326, Note_on_c, 0, 84, 88
1, 1097328, Note_on_c, 0, 72, 79
1, 1097328, Control_c, 0, 64, 70
1, 1097342, Control_c, 0, 64, 0
1, 1097387, Control_c, 0, 64, 64
1, 1097402, Control_c, 0, 64, 79
1, 1097424, Control_c, 0, 64, 127
1, 1097434, Note_off_c, 0, 75, 66
1, 1097475, Note_off_c, 0, 65, 59
1, 1097477, Note_off_c, 0, 72, 60
1, 1098077, Control_c, 0, 64, 78
1, 1098092, Control_c, 0, 64, 0
1, 1098173, Control_c, 0, 64, 57
1, 1098188, Control_c, 0, 64, 73
1, 1098203, Control_c, 0, 64, 87
1, 1098218, Control_c, 0, 64, 124
1, 1098233, Control_c, 0, 64, 127
1, 1098372, Note_on_c, 0, 41, 87
1, 1098423, Note_off_c, 0, 41, 62
1, 1098426, Note_off_c, 0, 89, 60
1, 1098445, Note_off_c, 0, 77, 59
1, 1098459, Note_off_c, 0, 81, 62
1, 1098463, Note_off_c, 0, 84, 62
1, 1098465, Note_on_c, 0, 41, 81
1, 1098512, Note_off_c, 0, 41, 64
1, 1098569, Note_on_c, 0, 41, 90
1, 1098667, Note_off_c, 0, 41, 55
1, 1098704, Note_on_c, 0, 77, 87
1, 1098706, Note_on_c, 0, 86, 99
1, 1098707, Note_on_c, 0, 82, 90
1, 1098709, Note_on_c, 0, 74, 99
1, 1098711, Note_on_c, 0, 46, 101
1, 1098715, Note_on_c, 0, 34, 92
1, 1098722, Control_c, 0, 64, 117
1, 1098735, Note_on_c, 0, 78, 38
1, 1098736, Note_off_c, 0, 78, 127
1, 1098736, Note_on_c, 0, 41, 36
1, 1098737, Control_c, 0, 64, 75
1, 1098752, Control_c, 0, 64, 0
1, 1098774, Note_off_c, 0, 41, 41
1, 1098826, Control_c, 0, 64, 56
1, 1098841, Control_c, 0, 64, 59
1, 1098856, Control_c, 0, 64, 59
1, 1098885, Control_c, 0, 64, 59
1, 1098922, Control_c, 0, 64, 60
1, 1099036, Note_off_c, 0, 34, 60
1, 1099041, Control_c, 0, 64, 60
1, 1099048, Note_off_c, 0, 46, 61
1, 1099085, Control_c, 0, 64, 61
1, 1099100, Control_c, 0, 64, 62
1, 1099115, Control_c, 0, 64, 62
1, 1099129, Control_c, 0, 64, 63
1, 1099189, Control_c, 0, 64, 63
1, 1099234, Control_c, 0, 64, 64
1, 1099322, Control_c, 0, 64, 64
1, 1099367, Control_c, 0, 64, 65
1, 1099426, Control_c, 0, 64, 65
1, 1099470, Control_c, 0, 64, 66
1, 1099501, Control_c, 0, 64, 66
1, 1099590, Control_c, 0, 64, 66
1, 1099649, Control_c, 0, 64, 66
1, 1099716, Control_c, 0, 64, 67
1, 1099731, Control_c, 0, 64, 67
1, 1099745, Control_c, 0, 64, 68
1, 1099760, Control_c, 0, 64, 69
1, 1099775, Control_c, 0, 64, 70
1, 1099790, Control_c, 0, 64, 71
1, 1099805, Control_c, 0, 64, 73
1, 1099819, Control_c, 0, 64, 76
1, 1099834, Control_c, 0, 64, 79
1, 1099849, Control_c, 0, 64, 83
1, 1099864, Control_c, 0, 64, 87
1, 1099879, Control_c, 0, 64, 90
1, 1099893, Control_c, 0, 64, 93
1, 1099897, Note_on_c, 0, 41, 85
1, 1099908, Control_c, 0, 64, 95
1, 1099923, Control_c, 0, 64, 96
1, 1100023, Note_off_c, 0, 41, 64
1, 1100076, Note_on_c, 0, 41, 89
1, 1100108, Note_off_c, 0, 41, 65
1, 1100189, Control_c, 0, 64, 85
1, 1100202, Note_on_c, 0, 46, 94
1, 1100204, Control_c, 0, 64, 65
1, 1100205, Note_on_c, 0, 34, 89
1, 1100218, Control_c, 0, 64, 0
1, 1100464, Control_c, 0, 64, 38
1, 1100479, Control_c, 0, 64, 49
1, 1100494, Control_c, 0, 64, 51
1, 1100509, Control_c, 0, 64, 51
1, 1100512, Note_off_c, 0, 34, 63
1, 1100523, Control_c, 0, 64, 53
1, 1100538, Control_c, 0, 64, 56
1, 1100553, Control_c, 0, 64, 59
1, 1100567, Control_c, 0, 64, 61
1, 1100569, Note_off_c, 0, 46, 59
1, 1100582, Control_c, 0, 64, 62
1, 1100597, Control_c, 0, 64, 63
1, 1100604, Note_off_c, 0, 86, 56
1, 1100612, Control_c, 0, 64, 63
1, 1100621, Note_off_c, 0, 77, 48
1, 1100638, Note_off_c, 0, 82, 53
1, 1100641, Control_c, 0, 64, 64
1, 1100656, Control_c, 0, 64, 64
1, 1100672, Note_off_c, 0, 74, 51
1, 1100686, Control_c, 0, 64, 65
1, 1100983, Control_c, 0, 64, 64
1, 1101028, Control_c, 0, 64, 63
1, 1101042, Control_c, 0, 64, 57
1, 1101057, Control_c, 0, 64, 0
1, 1101198, Control_c, 0, 64, 42
1, 1101213, Control_c, 0, 64, 56
1, 1101228, Control_c, 0, 64, 63
1, 1101243, Control_c, 0, 64, 66
1, 1101258, Control_c, 0, 64, 70
1, 1101273, Control_c, 0, 64, 75
1, 1101287, Control_c, 0, 64, 84
1, 1101302, Control_c, 0, 64, 100
1, 1101317, Control_c, 0, 64, 127
1, 1101438, Note_on_c, 0, 82, 102
1, 1101440, Note_on_c, 0, 70, 87
1, 1101472, Note_off_c, 0, 82, 66
1, 1101481, Note_off_c, 0, 70, 65
1, 1101550, Note_on_c, 0, 82, 100
1, 1101553, Note_on_c, 0, 70, 88
1, 1101583, Note_off_c, 0, 82, 69
1, 1101587, Note_off_c, 0, 70, 62
1, 1101641, Note_on_c, 0, 70, 92
1, 1101644, Note_on_c, 0, 82, 100
1, 1101685, Note_off_c, 0, 82, 64
1, 1101696, Note_off_c, 0, 70, 53
1, 1101851, Note_on_c, 0, 82, 85
1, 1101852, Note_on_c, 0, 90, 106
1, 1101854, Note_on_c, 0, 78, 97
1, 1101856, Note_on_c, 0, 70, 75
1, 1101857, Note_on_c, 0, 71, 96
1, 1101859, Note_on_c, 0, 63, 87
1, 1101880, Control_c, 0, 64, 78
1, 1101896, Control_c, 0, 64, 0
1, 1101962, Control_c, 0, 64, 69
1, 1101977, Control_c, 0, 64, 101
1, 1101992, Control_c, 0, 64, 127
1, 1102565, Note_off_c, 0, 63, 61
1, 1102718, Note_off_c, 0, 71, 50
1, 1102858, Note_off_c, 0, 70, 38
1, 1102885, Note_off_c, 0, 90, 57
1, 1102936, Note_off_c, 0, 78, 58
1, 1102986, Note_off_c, 0, 82, 39
1, 1103276, Note_on_c, 0, 89, 100
1, 1103280, Note_on_c, 0, 81, 89
1, 1103282, Note_on_c, 0, 77, 91
1, 1103287, Note_on_c, 0, 72, 86
1, 1103288, Control_c, 0, 64, 94
1, 1103290, Note_on_c, 0, 65, 81
1, 1103293, Note_on_c, 0, 69, 80
1, 1103303, Control_c, 0, 64, 39
1, 1103318, Control_c, 0, 64, 0
1, 1103377, Control_c, 0, 64, 66
1, 1103392, Control_c, 0, 64, 85
1, 1103415, Control_c, 0, 64, 127
1, 1103552, Note_off_c, 0, 72, 61
1, 1103577, Note_off_c, 0, 69, 56
1, 1103615, Note_off_c, 0, 65, 58
1, 1104023, Control_c, 0, 64, 97
1, 1104038, Control_c, 0, 64, 65
1, 1104053, Control_c, 0, 64, 0
1, 1104179, Control_c, 0, 64, 46
1, 1104193, Control_c, 0, 64, 66
1, 1104208, Control_c, 0, 64, 75
1, 1104223, Control_c, 0, 64, 91
1, 1104237, Control_c, 0, 64, 127
1, 1104295, Note_on_c, 0, 41, 90
1, 1104343, Note_off_c, 0, 41, 63
1, 1104381, Note_off_c, 0, 77, 59
1, 1104390, Note_on_c, 0, 41, 81
1, 1104403, Note_off_c, 0, 81, 61
1, 1104404, Note_off_c, 0, 89, 58
1, 1104435, Note_off_c, 0, 41, 64
1, 1104487, Note_on_c, 0, 41, 86
1, 1104523, Note_off_c, 0, 41, 63
1, 1104659, Note_on_c, 0, 86, 84
1, 1104659, Note_on_c, 0, 94, 108
1, 1104660, Note_on_c, 0, 82, 99
1, 1104665, Note_on_c, 0, 46, 96
1, 1104665, Note_on_c, 0, 89, 83
1, 1104668, Control_c, 0, 64, 97
1, 1104671, Note_on_c, 0, 34, 95
1, 1104683, Note_on_c, 0, 41, 56
1, 1104683, Control_c, 0, 64, 64
1, 1104698, Control_c, 0, 64, 0
1, 1104707, Note_off_c, 0, 41, 59
1, 1104772, Control_c, 0, 64, 55
1, 1104787, Control_c, 0, 64, 60
1, 1104802, Control_c, 0, 64, 60
1, 1104816, Control_c, 0, 64, 59
1, 1104831, Control_c, 0, 64, 58
1, 1104860, Control_c, 0, 64, 59
1, 1104927, Control_c, 0, 64, 59
1, 1105031, Control_c, 0, 64, 59
1, 1105046, Control_c, 0, 64, 60
1, 1105061, Control_c, 0, 64, 60
1, 1105075, Control_c, 0, 64, 61
1, 1105091, Control_c, 0, 64, 61
1, 1105102, Note_off_c, 0, 34, 61
1, 1105105, Note_off_c, 0, 46, 61
1, 1105121, Control_c, 0, 64, 62
1, 1105136, Control_c, 0, 64, 62
1, 1105151, Control_c, 0, 64, 63
1, 1105180, Control_c, 0, 64, 63
1, 1105254, Control_c, 0, 64, 64
1, 1105283, Control_c, 0, 64, 64
1, 1105343, Control_c, 0, 64, 65
1, 1105387, Control_c, 0, 64, 65
1, 1105417, Control_c, 0, 64, 66
1, 1105431, Control_c, 0, 64, 66
1, 1105661, Control_c, 0, 64, 67
1, 1105676, Control_c, 0, 64, 67
1, 1105690, Control_c, 0, 64, 68
1, 1105705, Control_c, 0, 64, 69
1, 1105720, Control_c, 0, 64, 71
1, 1105735, Control_c, 0, 64, 73
1, 1105750, Control_c, 0, 64, 75
1, 1105765, Control_c, 0, 64, 77
1, 1105780, Control_c, 0, 64, 78
1, 1105795, Control_c, 0, 64, 78
1, 1105803, Note_on_c, 0, 41, 88
1, 1105857, Note_off_c, 0, 41, 60
1, 1105869, Control_c, 0, 64, 79
1, 1105895, Note_on_c, 0, 41, 73
1, 1105929, Control_c, 0, 64, 79
1, 1105939, Note_off_c, 0, 41, 65
1, 1105959, Control_c, 0, 64, 80
1, 1105973, Control_c, 0, 64, 81
1, 1105986, Control_c, 0, 64, 82
1, 1105991, Note_on_c, 0, 41, 87
1, 1106001, Control_c, 0, 64, 83
1, 1106016, Control_c, 0, 64, 85
1, 1106031, Control_c, 0, 64, 86
1, 1106034, Note_off_c, 0, 41, 63
1, 1106046, Control_c, 0, 64, 87
1, 1106060, Control_c, 0, 64, 87
1, 1106075, Control_c, 0, 64, 85
1, 1106090, Control_c, 0, 64, 76
1, 1106105, Control_c, 0, 64, 62
1, 1106114, Note_on_c, 0, 46, 96
1, 1106116, Note_on_c, 0, 34, 90
1, 1106119, Control_c, 0, 64, 0
1, 1106209, Control_c, 0, 64, 47
1, 1106224, Control_c, 0, 64, 54
1, 1106239, Control_c, 0, 64, 54
1, 1106268, Control_c, 0, 64, 53
1, 1106312, Control_c, 0, 64, 54
1, 1106357, Control_c, 0, 64, 54
1, 1106359, Note_off_c, 0, 89, 49
1, 1106372, Control_c, 0, 64, 55
1, 1106373, Note_off_c, 0, 86, 56
1, 1106380, Note_off_c, 0, 94, 61
1, 1106386, Control_c, 0, 64, 57
1, 1106409, Control_c, 0, 64, 57
1, 1106424, Control_c, 0, 64, 58
1, 1106444, Note_off_c, 0, 82, 60
1, 1106453, Control_c, 0, 64, 58
1, 1106468, Control_c, 0, 64, 59
1, 1106483, Control_c, 0, 64, 59
1, 1106498, Control_c, 0, 64, 60
1, 1106527, Control_c, 0, 64, 60
1, 1106535, Note_off_c, 0, 46, 60
1, 1106538, Note_off_c, 0, 34, 60
1, 1106586, Control_c, 0, 64, 61
1, 1106660, Control_c, 0, 64, 61
1, 1106691, Control_c, 0, 64, 62
1, 1106706, Control_c, 0, 64, 62
1, 1106736, Control_c, 0, 64, 63
1, 1106751, Control_c, 0, 64, 63
1, 1106766, Control_c, 0, 64, 64
1, 1106796, Control_c, 0, 64, 64
1, 1106825, Control_c, 0, 64, 65
1, 1106855, Control_c, 0, 64, 65
1, 1106973, Control_c, 0, 64, 65
1, 1106988, Control_c, 0, 64, 64
1, 1107002, Control_c, 0, 64, 61
1, 1107017, Control_c, 0, 64, 49
1, 1107032, Control_c, 0, 64, 0
1, 1107204, Note_on_c, 0, 41, 88
1, 1107240, Note_off_c, 0, 41, 64
1, 1107247, Control_c, 0, 64, 59
1, 1107261, Control_c, 0, 64, 67
1, 1107276, Control_c, 0, 64, 75
1, 1107291, Control_c, 0, 64, 86
1, 1107297, Note_on_c, 0, 41, 72
1, 1107306, Control_c, 0, 64, 113
1, 1107321, Control_c, 0, 64, 127
1, 1107330, Note_off_c, 0, 41, 65
1, 1107380, Note_on_c, 0, 41, 91
1, 1107422, Note_off_c, 0, 41, 63
1, 1107554, Note_on_c, 0, 59, 101
1, 1107556, Note_on_c, 0, 47, 98
1, 1107557, Note_on_c, 0, 46, 98
1, 1107562, Note_on_c, 0, 34, 94
1, 1107574, Control_c, 0, 64, 115
1, 1107580, Note_on_c, 0, 41, 24
1, 1107589, Control_c, 0, 64, 72
1, 1107601, Note_off_c, 0, 41, 56
1, 1107604, Control_c, 0, 64, 0
1, 1107870, Control_c, 0, 64, 19
1, 1107884, Control_c, 0, 64, 27
1, 1107907, Control_c, 0, 64, 32
1, 1107922, Control_c, 0, 64, 34
1, 1107937, Control_c, 0, 64, 36
1, 1107952, Control_c, 0, 64, 36
1, 1107966, Control_c, 0, 64, 38
1, 1107981, Control_c, 0, 64, 41
1, 1107990, Note_off_c, 0, 34, 58
1, 1107996, Control_c, 0, 64, 43
1, 1108011, Control_c, 0, 64, 44
1, 1108021, Note_off_c, 0, 46, 59
1, 1108026, Control_c, 0, 64, 45
1, 1108040, Control_c, 0, 64, 46
1, 1108055, Control_c, 0, 64, 47
1, 1108070, Control_c, 0, 64, 48
1, 1108084, Control_c, 0, 64, 50
1, 1108099, Control_c, 0, 64, 51
1, 1108114, Control_c, 0, 64, 53
1, 1108129, Control_c, 0, 64, 54
1, 1108144, Control_c, 0, 64, 56
1, 1108158, Control_c, 0, 64, 58
1, 1108173, Control_c, 0, 64, 59
1, 1108203, Control_c, 0, 64, 60
1, 1108218, Control_c, 0, 64, 60
1, 1108233, Control_c, 0, 64, 61
1, 1108248, Control_c, 0, 64, 61
1, 1108278, Control_c, 0, 64, 62
1, 1108293, Control_c, 0, 64, 62
1, 1108307, Control_c, 0, 64, 63
1, 1108322, Control_c, 0, 64, 64
1, 1108337, Control_c, 0, 64, 65
1, 1108352, Control_c, 0, 64, 67
1, 1108367, Control_c, 0, 64, 71
1, 1108382, Control_c, 0, 64, 75
1, 1108397, Control_c, 0, 64, 81
1, 1108407, Note_on_c, 0, 41, 89
1, 1108412, Control_c, 0, 64, 88
1, 1108427, Control_c, 0, 64, 95
1, 1108442, Control_c, 0, 64, 100
1, 1108448, Note_off_c, 0, 41, 63
1, 1108456, Control_c, 0, 64, 103
1, 1108471, Control_c, 0, 64, 106
1, 1108486, Control_c, 0, 64, 109
1, 1108500, Note_on_c, 0, 41, 81
1, 1108500, Control_c, 0, 64, 111
1, 1108515, Control_c, 0, 64, 113
1, 1108530, Control_c, 0, 64, 115
1, 1108543, Note_off_c, 0, 41, 63
1, 1108545, Control_c, 0, 64, 119
1, 1108560, Control_c, 0, 64, 127
1, 1108588, Note_on_c, 0, 41, 83
1, 1108635, Note_off_c, 0, 41, 63
1, 1108701, Note_on_c, 0, 46, 98
1, 1108704, Note_on_c, 0, 34, 93
1, 1108715, Control_c, 0, 64, 93
1, 1108730, Control_c, 0, 64, 40
1, 1108745, Control_c, 0, 64, 0
1, 1109044, Note_off_c, 0, 34, 58
1, 1109059, Note_off_c, 0, 46, 58
1, 1109175, Control_c, 0, 64, 37
1, 1109190, Control_c, 0, 64, 49
1, 1109205, Control_c, 0, 64, 57
1, 1109220, Control_c, 0, 64, 62
1, 1109235, Control_c, 0, 64, 65
1, 1109249, Control_c, 0, 64, 67
1, 1109264, Control_c, 0, 64, 69
1, 1109279, Control_c, 0, 64, 72
1, 1109294, Control_c, 0, 64, 76
1, 1109309, Control_c, 0, 64, 82
1, 1109323, Control_c, 0, 64, 89
1, 1109338, Control_c, 0, 64, 97
1, 1109353, Control_c, 0, 64, 110
1, 1109368, Control_c, 0, 64, 127
1, 1109452, Note_off_c, 0, 47, 64
1, 1109479, Note_on_c, 0, 41, 82
1, 1109498, Note_off_c, 0, 59, 61
1, 1109512, Note_off_c, 0, 41, 65
1, 1109561, Note_on_c, 0, 41, 73
1, 1109594, Note_off_c, 0, 41, 62
1, 1109639, Note_on_c, 0, 41, 80
1, 1109691, Note_off_c, 0, 41, 63
1, 1109735, Note_on_c, 0, 63, 96
1, 1109737, Note_on_c, 0, 51, 94
1, 1109741, Note_on_c, 0, 59, 85
1, 1109747, Note_on_c, 0, 46, 98
1, 1109749, Note_on_c, 0, 34, 97
1, 1109760, Control_c, 0, 64, 107
1, 1109775, Control_c, 0, 64, 66
1, 1109790, Control_c, 0, 64, 0
1, 1110039, Note_off_c, 0, 34, 56
1, 1110077, Note_off_c, 0, 46, 57
1, 1110213, Control_c, 0, 64, 17
1, 1110227, Control_c, 0, 64, 29
1, 1110242, Control_c, 0, 64, 39
1, 1110257, Control_c, 0, 64, 47
1, 1110272, Control_c, 0, 64, 50
1, 1110287, Control_c, 0, 64, 53
1, 1110302, Control_c, 0, 64, 56
1, 1110317, Control_c, 0, 64, 58
1, 1110332, Control_c, 0, 64, 60
1, 1110346, Control_c, 0, 64, 63
1, 1110361, Control_c, 0, 64, 64
1, 1110376, Control_c, 0, 64, 66
1, 1110391, Control_c, 0, 64, 68
1, 1110406, Control_c, 0, 64, 70
1, 1110421, Control_c, 0, 64, 73
1, 1110435, Control_c, 0, 64, 79
1, 1110450, Control_c, 0, 64, 89
1, 1110465, Control_c, 0, 64, 104
1, 1110479, Control_c, 0, 64, 127
1, 1110538, Note_on_c, 0, 41, 78
1, 1110558, Note_off_c, 0, 51, 63
1, 1110558, Note_off_c, 0, 59, 57
1, 1110570, Note_off_c, 0, 41, 63
1, 1110594, Note_off_c, 0, 63, 56
1, 1110625, Note_on_c, 0, 41, 74
1, 1110650, Note_off_c, 0, 41, 65
1, 1110698, Note_on_c, 0, 41, 89
1, 1110743, Note_off_c, 0, 41, 59
1, 1110788, Note_on_c, 0, 53, 93
1, 1110789, Note_on_c, 0, 59, 83
1, 1110790, Note_on_c, 0, 63, 84
1, 1110790, Note_on_c, 0, 65, 91
1, 1110795, Note_on_c, 0, 46, 96
1, 1110797, Note_on_c, 0, 34, 94
1, 1110821, Control_c, 0, 64, 78
1, 1110836, Control_c, 0, 64, 0
1, 1111083, Note_off_c, 0, 34, 58
1, 1111110, Note_off_c, 0, 46, 57
1, 1111288, Control_c, 0, 64, 52
1, 1111302, Control_c, 0, 64, 63
1, 1111317, Control_c, 0, 64, 68
1, 1111332, Control_c, 0, 64, 73
1, 1111347, Control_c, 0, 64, 80
1, 1111362, Control_c, 0, 64, 89
1, 1111376, Control_c, 0, 64, 102
1, 1111391, Control_c, 0, 64, 127
1, 1111519, Note_off_c, 0, 53, 61
1, 1111539, Note_on_c, 0, 41, 82
1, 1111545, Note_off_c, 0, 59, 60
1, 1111570, Note_off_c, 0, 65, 59
1, 1111573, Note_off_c, 0, 41, 64
1, 1111578, Note_off_c, 0, 63, 62
1, 1111622, Note_on_c, 0, 41, 72
1, 1111658, Note_off_c, 0, 41, 62
1, 1111702, Note_on_c, 0, 41, 84
1, 1111750, Note_off_c, 0, 41, 63
1, 1111795, Note_on_c, 0, 68, 91
1, 1111797, Note_on_c, 0, 59, 89
1, 1111801, Note_on_c, 0, 65, 79
1, 1111802, Note_on_c, 0, 46, 102
1, 1111802, Note_on_c, 0, 63, 78
1, 1111805, Note_on_c, 0, 34, 96
1, 1111814, Control_c, 0, 64, 104
1, 1111829, Control_c, 0, 64, 70
1, 1111844, Control_c, 0, 64, 0
1, 1112090, Note_off_c, 0, 34, 59
1, 1112122, Note_off_c, 0, 46, 59
1, 1112378, Control_c, 0, 64, 32
1, 1112393, Control_c, 0, 64, 44
1, 1112415, Control_c, 0, 64, 52
1, 1112430, Control_c, 0, 64, 57
1, 1112445, Control_c, 0, 64, 61
1, 1112460, Control_c, 0, 64, 64
1, 1112474, Control_c, 0, 64, 67
1, 1112489, Control_c, 0, 64, 71
1, 1112504, Control_c, 0, 64, 77
1, 1112519, Control_c, 0, 64, 87
1, 1112534, Control_c, 0, 64, 109
1, 1112548, Control_c, 0, 64, 127
1, 1112573, Note_on_c, 0, 41, 77
1, 1112585, Note_off_c, 0, 59, 58
1, 1112607, Note_off_c, 0, 41, 61
1, 1112615, Note_off_c, 0, 65, 61
1, 1112618, Note_off_c, 0, 63, 59
1, 1112657, Note_on_c, 0, 41, 76
1, 1112680, Note_off_c, 0, 41, 67
1, 1112730, Note_on_c, 0, 41, 92
1, 1112776, Note_off_c, 0, 41, 63
1, 1112835, Note_on_c, 0, 67, 80
1, 1112836, Note_on_c, 0, 58, 85
1, 1112843, Note_on_c, 0, 46, 99
1, 1112843, Note_on_c, 0, 63, 82
1, 1112847, Note_on_c, 0, 34, 87
1, 1112859, Control_c, 0, 64, 89
1, 1112874, Control_c, 0, 64, 62
1, 1112886, Note_off_c, 0, 68, 57
1, 1112889, Control_c, 0, 64, 0
1, 1113229, Note_off_c, 0, 34, 62
1, 1113271, Note_off_c, 0, 46, 57
1, 1113460, Control_c, 0, 64, 23
1, 1113476, Control_c, 0, 64, 34
1, 1113491, Control_c, 0, 64, 41
1, 1113505, Control_c, 0, 64, 47
1, 1113520, Control_c, 0, 64, 53
1, 1113535, Control_c, 0, 64, 55
1, 1113550, Control_c, 0, 64, 58
1, 1113565, Control_c, 0, 64, 61
1, 1113579, Control_c, 0, 64, 64
1, 1113594, Control_c, 0, 64, 65
1, 1113609, Control_c, 0, 64, 67
1, 1113623, Control_c, 0, 64, 69
1, 1113638, Control_c, 0, 64, 71
1, 1113653, Control_c, 0, 64, 74
1, 1113668, Control_c, 0, 64, 79
1, 1113683, Control_c, 0, 64, 85
1, 1113697, Control_c, 0, 64, 94
1, 1113712, Control_c, 0, 64, 107
1, 1113726, Note_off_c, 0, 63, 57
1, 1113727, Note_on_c, 0, 41, 64
1, 1113727, Control_c, 0, 64, 127
1, 1113748, Note_off_c, 0, 58, 61
1, 1113755, Note_off_c, 0, 41, 63
1, 1113815, Note_on_c, 0, 41, 64
1, 1113843, Note_off_c, 0, 41, 64
1, 1113899, Note_on_c, 0, 41, 79
1, 1113926, Note_off_c, 0, 41, 63
1, 1113995, Note_on_c, 0, 60, 67
1, 1113997, Note_on_c, 0, 57, 69
1, 1113998, Note_on_c, 0, 66, 70
1, 1114003, Note_on_c, 0, 63, 65
1, 1114012, Note_on_c, 0, 46, 81
1, 1114016, Note_on_c, 0, 34, 70
1, 1114024, Note_off_c, 0, 67, 59
1, 1114032, Control_c, 0, 64, 101
1, 1114046, Control_c, 0, 64, 70
1, 1114061, Control_c, 0, 64, 0
1, 1114302, Note_off_c, 0, 34, 56
1, 1114342, Control_c, 0, 64, 11
1, 1114344, Note_off_c, 0, 46, 59
1, 1114357, Control_c, 0, 64, 21
1, 1114372, Control_c, 0, 64, 27
1, 1114387, Control_c, 0, 64, 31
1, 1114401, Control_c, 0, 64, 35
1, 1114416, Control_c, 0, 64, 37
1, 1114431, Control_c, 0, 64, 38
1, 1114445, Control_c, 0, 64, 38
1, 1114460, Control_c, 0, 64, 40
1, 1114475, Control_c, 0, 64, 41
1, 1114490, Control_c, 0, 64, 42
1, 1114505, Control_c, 0, 64, 45
1, 1114520, Control_c, 0, 64, 48
1, 1114535, Control_c, 0, 64, 50
1, 1114549, Control_c, 0, 64, 52
1, 1114564, Control_c, 0, 64, 53
1, 1114579, Control_c, 0, 64, 55
1, 1114594, Control_c, 0, 64, 56
1, 1114609, Control_c, 0, 64, 58
1, 1114624, Control_c, 0, 64, 60
1, 1114645, Control_c, 0, 64, 62
1, 1114660, Control_c, 0, 64, 64
1, 1114676, Control_c, 0, 64, 65
1, 1114691, Control_c, 0, 64, 67
1, 1114706, Control_c, 0, 64, 69
1, 1114721, Control_c, 0, 64, 72
1, 1114736, Control_c, 0, 64, 76
1, 1114750, Control_c, 0, 64, 79
1, 1114765, Control_c, 0, 64, 83
1, 1114780, Control_c, 0, 64, 87
1, 1114795, Control_c, 0, 64, 91
1, 1114810, Control_c, 0, 64, 96
1, 1114821, Note_off_c, 0, 60, 61
1, 1114824, Control_c, 0, 64, 100
1, 1114839, Control_c, 0, 64, 104
1, 1114844, Note_off_c, 0, 57, 61
1, 1114854, Control_c, 0, 64, 109
1, 1114868, Control_c, 0, 64, 117
1, 1114875, Note_on_c, 0, 41, 52
1, 1114877, Note_off_c, 0, 63, 59
1, 1114883, Control_c, 0, 64, 127
1, 1114905, Note_off_c, 0, 41, 55
1, 1114958, Note_on_c, 0, 41, 58
1, 1114987, Note_off_c, 0, 41, 64
1, 1115035, Note_on_c, 0, 41, 71
1, 1115072, Note_off_c, 0, 41, 60
1, 1115140, Note_on_c, 0, 65, 64
1, 1115143, Note_on_c, 0, 58, 58
1, 1115148, Note_on_c, 0, 46, 72
1, 1115149, Note_on_c, 0, 61, 57
1, 1115150, Control_c, 0, 64, 112
1, 1115155, Note_on_c, 0, 34, 57
1, 1115165, Control_c, 0, 64, 82
1, 1115170, Note_off_c, 0, 66, 50
1, 1115180, Control_c, 0, 64, 60
1, 1115194, Control_c, 0, 64, 0
1, 1115439, Control_c, 0, 64, 23
1, 1115441, Note_off_c, 0, 34, 58
1, 1115454, Control_c, 0, 64, 30
1, 1115470, Control_c, 0, 64, 37
1, 1115478, Note_off_c, 0, 46, 58
1, 1115485, Control_c, 0, 64, 42
1, 1115499, Control_c, 0, 64, 44
1, 1115514, Control_c, 0, 64, 47
1, 1115529, Control_c, 0, 64, 50
1, 1115544, Control_c, 0, 64, 53
1, 1115559, Control_c, 0, 64, 54
1, 1115573, Control_c, 0, 64, 55
1, 1115588, Control_c, 0, 64, 57
1, 1115603, Control_c, 0, 64, 59
1, 1115618, Control_c, 0, 64, 60
1, 1115633, Control_c, 0, 64, 62
1, 1115647, Control_c, 0, 64, 63
1, 1115662, Control_c, 0, 64, 65
1, 1115677, Control_c, 0, 64, 67
1, 1115691, Control_c, 0, 64, 69
1, 1115706, Control_c, 0, 64, 71
1, 1115721, Control_c, 0, 64, 74
1, 1115736, Control_c, 0, 64, 78
1, 1115751, Control_c, 0, 64, 83
1, 1115766, Control_c, 0, 64, 90
1, 1115781, Control_c, 0, 64, 94
1, 1115796, Control_c, 0, 64, 96
1, 1115810, Control_c, 0, 64, 96
1, 1115840, Control_c, 0, 64, 97
1, 1115885, Control_c, 0, 64, 97
1, 1115899, Control_c, 0, 64, 98
1, 1115914, Control_c, 0, 64, 100
1, 1115929, Control_c, 0, 64, 105
1, 1115944, Control_c, 0, 64, 114
1, 1115952, Note_off_c, 0, 61, 56
1, 1115959, Control_c, 0, 64, 127
1, 1115977, Note_off_c, 0, 58, 53
1, 1116038, Note_on_c, 0, 41, 44
1, 1116083, Note_off_c, 0, 41, 42
1, 1116123, Note_on_c, 0, 41, 42
1, 1116180, Note_off_c, 0, 41, 0
1, 1116180, Note_on_c, 0, 41, 40
1, 1116249, Note_off_c, 0, 41, 58
1, 1116328, Note_on_c, 0, 59, 56
1, 1116333, Note_on_c, 0, 54, 51
1, 1116336, Note_on_c, 0, 63, 61
1, 1116353, Note_on_c, 0, 46, 54
1, 1116357, Note_on_c, 0, 34, 45
1, 1116367, Control_c, 0, 64, 103
1, 1116382, Control_c, 0, 64, 82
1, 1116383, Note_off_c, 0, 65, 54
1, 1116396, Control_c, 0, 64, 66
1, 1116411, Control_c, 0, 64, 0
1, 1116545, Control_c, 0, 67, 9
1, 1116560, Control_c, 0, 67, 10
1, 1116575, Control_c, 0, 67, 11
1, 1116589, Control_c, 0, 67, 13
1, 1116604, Control_c, 0, 67, 15
1, 1116619, Control_c, 0, 67, 17
1, 1116634, Control_c, 0, 67, 20
1, 1116648, Control_c, 0, 67, 23
1, 1116663, Control_c, 0, 67, 26
1, 1116678, Control_c, 0, 67, 29
1, 1116687, Note_off_c, 0, 34, 59
1, 1116693, Control_c, 0, 67, 33
1, 1116708, Control_c, 0, 67, 37
1, 1116723, Control_c, 0, 64, 21
1, 1116723, Control_c, 0, 67, 42
1, 1116723, Note_off_c, 0, 46, 60
1, 1116737, Control_c, 0, 64, 26
1, 1116737, Control_c, 0, 67, 47
1, 1116752, Control_c, 0, 64, 29
1, 1116752, Control_c, 0, 67, 51
1, 1116767, Control_c, 0, 64, 32
1, 1116767, Control_c, 0, 67, 55
1, 1116782, Control_c, 0, 64, 33
1, 1116782, Control_c, 0, 67, 59
1, 1116797, Control_c, 0, 64, 34
1, 1116797, Control_c, 0, 67, 64
1, 1116812, Control_c, 0, 64, 37
1, 1116812, Control_c, 0, 67, 68
1, 1116827, Control_c, 0, 64, 40
1, 1116827, Control_c, 0, 67, 73
1, 1116841, Control_c, 0, 64, 44
1, 1116841, Control_c, 0, 67, 78
1, 1116856, Control_c, 0, 64, 47
1, 1116856, Control_c, 0, 67, 83
1, 1116871, Control_c, 0, 64, 49
1, 1116871, Control_c, 0, 67, 88
1, 1116893, Control_c, 0, 64, 52
1, 1116893, Control_c, 0, 67, 92
1, 1116908, Control_c, 0, 64, 53
1, 1116908, Control_c, 0, 67, 97
1, 1116922, Control_c, 0, 64, 54
1, 1116922, Control_c, 0, 67, 102
1, 1116937, Control_c, 0, 64, 56
1, 1116937, Control_c, 0, 67, 107
1, 1116952, Control_c, 0, 64, 57
1, 1116952, Control_c, 0, 67, 112
1, 1116967, Control_c, 0, 64, 58
1, 1116967, Control_c, 0, 67, 116
1, 1116982, Control_c, 0, 64, 58
1, 1116982, Control_c, 0, 67, 121
1, 1116997, Control_c, 0, 64, 59
1, 1116997, Control_c, 0, 67, 124
1, 1117012, Control_c, 0, 64, 59
1, 1117012, Control_c, 0, 67, 127
1, 1117027, Control_c, 0, 64, 60
1, 1117042, Control_c, 0, 64, 61
1, 1117056, Control_c, 0, 64, 62
1, 1117071, Control_c, 0, 64, 63
1, 1117086, Control_c, 0, 64, 63
1, 1117101, Control_c, 0, 64, 64
1, 1117116, Control_c, 0, 64, 65
1, 1117131, Control_c, 0, 64, 65
1, 1117146, Control_c, 0, 64, 66
1, 1117161, Control_c, 0, 64, 67
1, 1117176, Control_c, 0, 64, 67
1, 1117220, Control_c, 0, 64, 68
1, 1117280, Note_on_c, 0, 41, 57
1, 1117294, Control_c, 0, 64, 67
1, 1117311, Note_off_c, 0, 41, 63
1, 1117375, Note_on_c, 0, 41, 57
1, 1117405, Note_off_c, 0, 41, 61
1, 1117412, Control_c, 0, 64, 67
1, 1117442, Control_c, 0, 64, 66
1, 1117450, Note_on_c, 0, 41, 66
1, 1117486, Note_off_c, 0, 41, 60
1, 1117486, Control_c, 0, 64, 66
1, 1117501, Control_c, 0, 64, 65
1, 1117516, Control_c, 0, 64, 65
1, 1117531, Control_c, 0, 64, 64
1, 1117545, Control_c, 0, 64, 64
1, 1117560, Control_c, 0, 64, 62
1, 1117575, Control_c, 0, 64, 60
1, 1117590, Control_c, 0, 64, 59
1, 1117599, Note_on_c, 0, 46, 56
1, 1117604, Note_on_c, 0, 34, 46
1, 1117605, Control_c, 0, 64, 56
1, 1117620, Control_c, 0, 64, 54
1, 1117642, Control_c, 0, 64, 53
1, 1117657, Control_c, 0, 64, 51
1, 1117671, Control_c, 0, 64, 50
1, 1117701, Control_c, 0, 64, 49
1, 1117849, Control_c, 0, 64, 50
1, 1117865, Control_c, 0, 64, 51
1, 1117880, Control_c, 0, 64, 52
1, 1117889, Note_off_c, 0, 34, 57
1, 1117894, Control_c, 0, 64, 52
1, 1117909, Control_c, 0, 64, 53
1, 1117924, Control_c, 0, 64, 53
1, 1117939, Control_c, 0, 64, 54
1, 1117954, Control_c, 0, 64, 54
1, 1117956, Note_off_c, 0, 54, 37
1, 1117965, Note_off_c, 0, 63, 33
1, 1117969, Control_c, 0, 64, 55
1, 1117975, Note_off_c, 0, 59, 34
1, 1117983, Control_c, 0, 64, 55
1, 1117988, Note_off_c, 0, 46, 53
1, 1117998, Control_c, 0, 64, 56
1, 1118013, Control_c, 0, 64, 56
1, 1118043, Control_c, 0, 64, 57
1, 1118058, Control_c, 0, 64, 57
1, 1118088, Control_c, 0, 64, 58
1, 1118117, Control_c, 0, 64, 58
1, 1118162, Control_c, 0, 64, 59
1, 1118191, Control_c, 0, 64, 59
1, 1118235, Control_c, 0, 64, 60
1, 1118265, Control_c, 0, 64, 60
1, 1118309, Control_c, 0, 64, 61
1, 1118462, Note_on_c, 0, 41, 42
1, 1118496, Note_off_c, 0, 41, 58
1, 1118509, Control_c, 0, 64, 61
1, 1118551, Note_on_c, 0, 41, 40
1, 1118582, Note_off_c, 0, 41, 58
1, 1118657, Note_on_c, 0, 41, 47
1, 1118690, Note_off_c, 0, 41, 55
1, 1118820, Control_c, 0, 64, 61
1, 1118826, Note_on_c, 0, 34, 39
1, 1118827, Note_on_c, 0, 51, 34
1, 1118828, Note_on_c, 0, 46, 36
1, 1118829, Note_on_c, 0, 57, 41
1, 1118830, Note_on_c, 0, 54, 38
1, 1119098, Note_off_c, 0, 34, 43
1, 1119170, Note_off_c, 0, 46, 42
1, 1119850, Control_c, 0, 64, 60
1, 1119900, Note_on_c, 0, 41, 48
1, 1119946, Control_c, 0, 64, 60
1, 1119950, Note_off_c, 0, 41, 57
1, 1119990, Control_c, 0, 64, 59
1, 1120040, Note_on_c, 0, 41, 35
1, 1120055, Note_off_c, 0, 51, 46
1, 1120080, Note_off_c, 0, 41, 51
1, 1120128, Note_off_c, 0, 54, 38
1, 1120186, Note_on_c, 0, 41, 39
1, 1120201, Note_off_c, 0, 57, 34
1, 1120360, Note_off_c, 0, 41, 26
1, 1120407, Control_c, 0, 64, 60
1, 1120600, Control_c, 0, 64, 60
1, 1120770, Control_c, 0, 64, 61
1, 1120829, Control_c, 0, 64, 61
1, 1120888, Control_c, 0, 64, 62
1, 1120961, Control_c, 0, 64, 62
1, 1121036, Control_c, 0, 64, 63
1, 1121096, Control_c, 0, 64, 63
1, 1121170, Control_c, 0, 64, 64
1, 1121215, Control_c, 0, 64, 64
1, 1121244, Control_c, 0, 64, 65
1, 1121274, Control_c, 0, 64, 65
1, 1121303, Control_c, 0, 64, 66
1, 1121318, Control_c, 0, 64, 66
1, 1121348, Control_c, 0, 64, 67
1, 1121363, Control_c, 0, 64, 67
1, 1121385, Control_c, 0, 64, 68
1, 1121400, Control_c, 0, 64, 69
1, 1121415, Control_c, 0, 64, 69
1, 1121429, Control_c, 0, 64, 70
1, 1121444, Control_c, 0, 64, 71
1, 1121459, Control_c, 0, 64, 73
1, 1121474, Control_c, 0, 64, 74
1, 1121489, Control_c, 0, 64, 76
1, 1121504, Control_c, 0, 64, 77
1, 1121518, Control_c, 0, 64, 79
1, 1121533, Control_c, 0, 64, 81
1, 1121548, Control_c, 0, 64, 83
1, 1121562, Control_c, 0, 64, 86
1, 1121577, Control_c, 0, 64, 88
1, 1121592, Control_c, 0, 64, 90
1, 1121607, Control_c, 0, 64, 92
1, 1121622, Control_c, 0, 64, 94
1, 1121636, Control_c, 0, 64, 97
1, 1121651, Control_c, 0, 64, 100
1, 1121666, Control_c, 0, 64, 102
1, 1121681, Control_c, 0, 64, 105
1, 1121696, Control_c, 0, 64, 109
1, 1121710, Control_c, 0, 64, 113
1, 1121725, Control_c, 0, 64, 119
1, 1121740, Control_c, 0, 64, 127
1, 1122027, Note_on_c, 0, 89, 41
1, 1122032, Note_on_c, 0, 85, 37
1, 1122409, Note_off_c, 0, 85, 59
1, 1122415, Control_c, 0, 67, 126
1, 1122430, Control_c, 0, 67, 124
1, 1122445, Control_c, 0, 67, 122
1, 1122459, Control_c, 0, 67, 119
1, 1122474, Control_c, 0, 67, 117
1, 1122489, Control_c, 0, 67, 114
1, 1122504, Control_c, 0, 67, 111
1, 1122519, Control_c, 0, 67, 107
1, 1122533, Control_c, 0, 67, 104
1, 1122548, Control_c, 0, 67, 100
1, 1122563, Control_c, 0, 67, 97
1, 1122577, Control_c, 0, 67, 93
1, 1122592, Control_c, 0, 67, 90
1, 1122607, Control_c, 0, 67, 87
1, 1122622, Control_c, 0, 67, 84
1, 1122637, Control_c, 0, 67, 82
1, 1122652, Control_c, 0, 67, 81
1, 1122668, Control_c, 0, 67, 80
1, 1122682, Control_c, 0, 67, 79
1, 1122697, Control_c, 0, 67, 78
1, 1122791, Note_on_c, 0, 85, 49
1, 1122796, Note_on_c, 0, 82, 47
1, 1123045, Control_c, 0, 67, 79
1, 1123075, Control_c, 0, 67, 79
1, 1123105, Control_c, 0, 67, 80
1, 1123128, Note_off_c, 0, 89, 49
1, 1123134, Control_c, 0, 67, 80
1, 1123164, Control_c, 0, 67, 81
1, 1123194, Control_c, 0, 67, 81
1, 1123239, Control_c, 0, 67, 82
1, 1123244, Note_off_c, 0, 82, 59
1, 1123269, Control_c, 0, 67, 82
1, 1123283, Control_c, 0, 67, 83
1, 1123313, Control_c, 0, 67, 83
1, 1123327, Control_c, 0, 67, 84
1, 1123342, Control_c, 0, 67, 84
1, 1123357, Control_c, 0, 67, 85
1, 1123387, Control_c, 0, 67, 85
1, 1123401, Control_c, 0, 67, 86
1, 1123416, Control_c, 0, 67, 86
1, 1123431, Control_c, 0, 67, 87
1, 1123446, Control_c, 0, 67, 88
1, 1123462, Control_c, 0, 67, 88
1, 1123477, Control_c, 0, 67, 89
1, 1123492, Control_c, 0, 67, 89
1, 1123506, Control_c, 0, 67, 90
1, 1123521, Control_c, 0, 67, 90
1, 1123523, Note_on_c, 0, 82, 57
1, 1123536, Control_c, 0, 67, 91
1, 1123537, Note_on_c, 0, 77, 43
1, 1123551, Control_c, 0, 67, 91
1, 1123566, Control_c, 0, 64, 111
1, 1123566, Control_c, 0, 67, 92
1, 1123580, Control_c, 0, 64, 98
1, 1123580, Control_c, 0, 67, 93
1, 1123595, Control_c, 0, 64, 88
1, 1123595, Control_c, 0, 67, 94
1, 1123610, Control_c, 0, 64, 79
1, 1123610, Control_c, 0, 67, 94
1, 1123625, Control_c, 0, 64, 69
1, 1123625, Control_c, 0, 67, 95
1, 1123647, Control_c, 0, 64, 55
1, 1123647, Control_c, 0, 67, 96
1, 1123662, Control_c, 0, 64, 19
1, 1123662, Control_c, 0, 67, 98
1, 1123677, Control_c, 0, 64, 0
1, 1123677, Control_c, 0, 67, 100
1, 1123692, Control_c, 0, 67, 102
1, 1123706, Control_c, 0, 67, 105
1, 1123721, Control_c, 0, 67, 108
1, 1123736, Control_c, 0, 64, 11
1, 1123736, Control_c, 0, 67, 111
1, 1123740, Note_off_c, 0, 85, 53
1, 1123751, Control_c, 0, 64, 49
1, 1123751, Control_c, 0, 67, 114
1, 1123766, Control_c, 0, 64, 62
1, 1123766, Control_c, 0, 67, 118
1, 1123780, Control_c, 0, 64, 66
1, 1123780, Control_c, 0, 67, 121
1, 1123795, Control_c, 0, 64, 69
1, 1123795, Control_c, 0, 67, 124
1, 1123810, Control_c, 0, 64, 73
1, 1123810, Control_c, 0, 67, 127
1, 1123825, Control_c, 0, 64, 78
1, 1123839, Control_c, 0, 64, 85
1, 1123854, Control_c, 0, 64, 93
1, 1123869, Control_c, 0, 64, 100
1, 1123884, Control_c, 0, 64, 109
1, 1123899, Control_c, 0, 64, 124
1, 1123913, Control_c, 0, 64, 127
1, 1123927, Note_off_c, 0, 82, 53
1, 1123936, Note_off_c, 0, 77, 38
1, 1124290, Note_on_c, 0, 77, 48
1, 1124315, Control_c, 0, 64, 119
1, 1124322, Note_on_c, 0, 73, 45
1, 1124329, Control_c, 0, 64, 99
1, 1124344, Control_c, 0, 64, 86
1, 1124359, Control_c, 0, 64, 76
1, 1124374, Control_c, 0, 64, 67
1, 1124395, Control_c, 0, 64, 59
1, 1124410, Control_c, 0, 64, 55
1, 1124455, Control_c, 0, 64, 58
1, 1124470, Control_c, 0, 64, 61
1, 1124485, Control_c, 0, 64, 64
1, 1124500, Control_c, 0, 64, 67
1, 1124515, Control_c, 0, 64, 70
1, 1124530, Control_c, 0, 64, 72
1, 1124544, Control_c, 0, 64, 75
1, 1124559, Control_c, 0, 64, 79
1, 1124574, Control_c, 0, 64, 84
1, 1124588, Control_c, 0, 64, 88
1, 1124603, Control_c, 0, 64, 94
1, 1124618, Control_c, 0, 64, 100
1, 1124633, Control_c, 0, 64, 107
1, 1124648, Control_c, 0, 64, 116
1, 1124662, Control_c, 0, 64, 127
1, 1124745, Note_off_c, 0, 73, 42
1, 1125070, Note_on_c, 0, 73, 50
1, 1125075, Note_on_c, 0, 70, 41
1, 1125077, Control_c, 0, 64, 104
1, 1125092, Control_c, 0, 64, 94
1, 1125107, Control_c, 0, 64, 85
1, 1125129, Control_c, 0, 64, 76
1, 1125144, Control_c, 0, 64, 67
1, 1125159, Control_c, 0, 64, 53
1, 1125173, Control_c, 0, 64, 0
1, 1125299, Note_off_c, 0, 77, 39
1, 1125322, Control_c, 0, 64, 24
1, 1125337, Control_c, 0, 64, 62
1, 1125352, Control_c, 0, 64, 68
1, 1125366, Control_c, 0, 64, 74
1, 1125381, Control_c, 0, 64, 80
1, 1125396, Control_c, 0, 64, 86
1, 1125410, Control_c, 0, 64, 93
1, 1125419, Note_off_c, 0, 70, 54
1, 1125425, Control_c, 0, 64, 100
1, 1125436, Note_off_c, 0, 73, 52
1, 1125440, Control_c, 0, 64, 107
1, 1125455, Control_c, 0, 64, 121
1, 1125470, Control_c, 0, 64, 127
1, 1125952, Control_c, 0, 64, 123
1, 1125967, Control_c, 0, 64, 109
1, 1125969, Note_on_c, 0, 70, 36
1, 1125979, Note_on_c, 0, 66, 30
1, 1125981, Control_c, 0, 64, 102
1, 1125996, Control_c, 0, 64, 96
1, 1126011, Control_c, 0, 64, 91
1, 1126026, Control_c, 0, 64, 86
1, 1126041, Control_c, 0, 64, 81
1, 1126056, Control_c, 0, 64, 77
1, 1126071, Control_c, 0, 64, 73
1, 1126086, Control_c, 0, 64, 70
1, 1126100, Control_c, 0, 64, 67
1, 1126115, Control_c, 0, 64, 66
1, 1126130, Control_c, 0, 64, 65
1, 1126174, Control_c, 0, 64, 66
1, 1126189, Control_c, 0, 64, 67
1, 1126205, Control_c, 0, 64, 68
1, 1126220, Control_c, 0, 64, 71
1, 1126234, Control_c, 0, 64, 72
1, 1126249, Control_c, 0, 64, 73
1, 1126264, Control_c, 0, 64, 74
1, 1126338, Control_c, 0, 64, 74
1, 1126352, Control_c, 0, 64, 75
1, 1126367, Control_c, 0, 64, 76
1, 1126382, Control_c, 0, 64, 77
1, 1126397, Control_c, 0, 64, 78
1, 1126515, Control_c, 0, 64, 77
1, 1126560, Control_c, 0, 64, 77
1, 1126574, Control_c, 0, 64, 76
1, 1126589, Control_c, 0, 64, 75
1, 1126604, Control_c, 0, 64, 74
1, 1126626, Control_c, 0, 64, 73
1, 1126641, Control_c, 0, 64, 71
1, 1126657, Control_c, 0, 64, 70
1, 1126672, Control_c, 0, 64, 68
1, 1126687, Control_c, 0, 64, 67
1, 1126702, Control_c, 0, 64, 67
1, 1126717, Control_c, 0, 64, 66
1, 1126728, Note_off_c, 0, 70, 33
1, 1126731, Control_c, 0, 64, 65
1, 1126743, Note_off_c, 0, 66, 41
1, 1126746, Control_c, 0, 64, 65
1, 1126761, Control_c, 0, 64, 64
1, 1126775, Control_c, 0, 64, 62
1, 1126790, Control_c, 0, 64, 61
1, 1126805, Control_c, 0, 64, 59
1, 1126820, Control_c, 0, 64, 59
1, 1126835, Control_c, 0, 64, 58
1, 1126953, Control_c, 0, 64, 59
1, 1126983, Control_c, 0, 64, 59
1, 1126998, Control_c, 0, 64, 60
1, 1127028, Control_c, 0, 64, 61
1, 1127042, Control_c, 0, 64, 61
1, 1127057, Control_c, 0, 64, 62
1, 1127087, Control_c, 0, 64, 62
1, 1127102, Control_c, 0, 64, 63
1, 1127131, Control_c, 0, 64, 63
1, 1127146, Control_c, 0, 64, 64
1, 1127175, Control_c, 0, 64, 64
1, 1127220, Control_c, 0, 64, 65
1, 1127249, Control_c, 0, 64, 65
1, 1127264, Control_c, 0, 64, 66
1, 1127279, Control_c, 0, 64, 66
1, 1127294, Control_c, 0, 64, 67
1, 1127309, Control_c, 0, 64, 67
1, 1127323, Control_c, 0, 64, 68
1, 1127353, Control_c, 0, 64, 68
1, 1127368, Control_c, 0, 64, 69
1, 1127390, Control_c, 0, 64, 69
1, 1127405, Control_c, 0, 64, 70
1, 1127420, Control_c, 0, 64, 71
1, 1127435, Control_c, 0, 64, 71
1, 1127451, Control_c, 0, 64, 72
1, 1127466, Control_c, 0, 64, 73
1, 1127480, Control_c, 0, 64, 74
1, 1127495, Control_c, 0, 64, 76
1, 1127510, Control_c, 0, 64, 77
1, 1127525, Control_c, 0, 64, 79
1, 1127540, Control_c, 0, 64, 81
1, 1127554, Control_c, 0, 64, 83
1, 1127569, Control_c, 0, 64, 86
1, 1127584, Control_c, 0, 64, 88
1, 1127585, Note_on_c, 0, 70, 34
1, 1127598, Control_c, 0, 64, 92
1, 1127603, Note_on_c, 0, 64, 32
1, 1127613, Control_c, 0, 64, 95
1, 1127628, Control_c, 0, 64, 99
1, 1127643, Control_c, 0, 64, 104
1, 1127658, Control_c, 0, 64, 110
1, 1127672, Control_c, 0, 64, 118
1, 1127687, Control_c, 0, 64, 127
1, 1128077, Note_off_c, 0, 70, 43
1, 1128175, Note_off_c, 0, 64, 30
1, 1128228, Control_c, 0, 64, 114
1, 1128243, Control_c, 0, 64, 108
1, 1128259, Control_c, 0, 64, 104
1, 1128274, Control_c, 0, 64, 100
1, 1128288, Control_c, 0, 64, 97
1, 1128303, Control_c, 0, 64, 94
1, 1128318, Control_c, 0, 64, 91
1, 1128333, Control_c, 0, 64, 89
1, 1128348, Control_c, 0, 64, 86
1, 1128362, Control_c, 0, 64, 84
1, 1128377, Control_c, 0, 64, 81
1, 1128392, Control_c, 0, 64, 78
1, 1128407, Control_c, 0, 64, 73
1, 1128421, Control_c, 0, 64, 69
1, 1128436, Control_c, 0, 64, 65
1, 1128451, Control_c, 0, 64, 64
1, 1128466, Control_c, 0, 64, 63
1, 1128510, Control_c, 0, 64, 63
1, 1128525, Control_c, 0, 64, 62
1, 1128540, Control_c, 0, 64, 62
1, 1128733, Control_c, 0, 64, 62
1, 1128762, Control_c, 0, 64, 63
1, 1128777, Control_c, 0, 64, 63
1, 1128821, Control_c, 0, 64, 64
1, 1128873, Control_c, 0, 64, 64
1, 1128888, Control_c, 0, 64, 65
1, 1128917, Control_c, 0, 64, 65
1, 1128947, Control_c, 0, 64, 66
1, 1128977, Control_c, 0, 64, 66
1, 1128992, Control_c, 0, 64, 67
1, 1129007, Control_c, 0, 64, 67
1, 1129021, Control_c, 0, 64, 68
1, 1129036, Control_c, 0, 64, 68
1, 1129052, Control_c, 0, 64, 69
1, 1129066, Control_c, 0, 64, 70
1, 1129081, Control_c, 0, 64, 70
1, 1129096, Control_c, 0, 64, 71
1, 1129111, Control_c, 0, 64, 72
1, 1129126, Control_c, 0, 64, 73
1, 1129141, Control_c, 0, 64, 73
1, 1129156, Control_c, 0, 64, 74
1, 1129171, Control_c, 0, 64, 76
1, 1129185, Control_c, 0, 64, 77
1, 1129200, Control_c, 0, 64, 78
1, 1129215, Control_c, 0, 64, 79
1, 1129230, Control_c, 0, 64, 80
1, 1129245, Control_c, 0, 64, 81
1, 1129245, Note_on_c, 0, 65, 34
1, 1129259, Control_c, 0, 64, 83
1, 1129274, Control_c, 0, 64, 85
1, 1129289, Control_c, 0, 64, 86
1, 1129304, Control_c, 0, 64, 88
1, 1129318, Control_c, 0, 64, 90
1, 1129333, Control_c, 0, 64, 92
1, 1129348, Control_c, 0, 64, 94
1, 1129363, Control_c, 0, 64, 96
1, 1129377, Control_c, 0, 64, 98
1, 1129392, Control_c, 0, 64, 101
1, 1129407, Control_c, 0, 64, 103
1, 1129422, Control_c, 0, 64, 107
1, 1129437, Control_c, 0, 64, 111
1, 1129451, Control_c, 0, 64, 117
1, 1129466, Control_c, 0, 64, 127
1, 1130846, Control_c, 0, 64, 113
1, 1130861, Control_c, 0, 64, 106
1, 1130876, Control_c, 0, 64, 100
1, 1130890, Control_c, 0, 64, 95
1, 1130905, Control_c, 0, 64, 91
1, 1130920, Control_c, 0, 64, 86
1, 1130930, Note_off_c, 0, 65, 40
1, 1130935, Control_c, 0, 64, 81
1, 1130949, Control_c, 0, 64, 75
1, 1130964, Control_c, 0, 64, 67
1, 1130979, Control_c, 0, 64, 63
1, 1130994, Control_c, 0, 64, 61
1, 1131023, Control_c, 0, 64, 60
1, 1131038, Control_c, 0, 64, 59
1, 1131053, Control_c, 0, 64, 58
1, 1131068, Control_c, 0, 64, 56
1, 1131083, Control_c, 0, 64, 55
1, 1131209, Control_c, 0, 64, 55
1, 1131223, Control_c, 0, 64, 56
1, 1131238, Control_c, 0, 64, 56
1, 1131268, Control_c, 0, 64, 57
1, 1131283, Control_c, 0, 64, 57
1, 1131312, Control_c, 0, 64, 58
1, 1131342, Control_c, 0, 64, 59
1, 1131356, Control_c, 0, 64, 59
1, 1131386, Control_c, 0, 64, 60
1, 1131401, Control_c, 0, 64, 60
1, 1131416, Control_c, 0, 64, 61
1, 1131430, Control_c, 0, 64, 61
1, 1131445, Control_c, 0, 64, 62
1, 1131475, Control_c, 0, 64, 62
1, 1131490, Control_c, 0, 64, 63
1, 1131505, Control_c, 0, 64, 63
1, 1131534, Control_c, 0, 64, 64
1, 1131549, Control_c, 0, 64, 64
1, 1131578, Control_c, 0, 64, 65
1, 1131593, Control_c, 0, 64, 65
1, 1131637, Control_c, 0, 64, 66
1, 1131682, Control_c, 0, 64, 66
1, 1131717, Note_on_c, 0, 58, 44
1, 1131726, Control_c, 0, 64, 67
1, 1131800, Control_c, 0, 64, 67
1, 1131845, Control_c, 0, 64, 68
1, 1131912, Control_c, 0, 64, 68
1, 1131956, Control_c, 0, 64, 69
1, 1132044, Control_c, 0, 64, 69
1, 1132149, Control_c, 0, 64, 70
1, 1132208, Control_c, 0, 64, 70
1, 1132239, Control_c, 0, 64, 71
1, 1132254, Control_c, 0, 64, 72
1, 1132268, Control_c, 0, 64, 73
1, 1132283, Control_c, 0, 64, 74
1, 1132298, Control_c, 0, 64, 77
1, 1132313, Control_c, 0, 64, 79
1, 1132328, Control_c, 0, 64, 81
1, 1132342, Control_c, 0, 64, 83
1, 1132357, Control_c, 0, 64, 84
1, 1132372, Control_c, 0, 64, 86
1, 1132387, Control_c, 0, 64, 87
1, 1132402, Control_c, 0, 64, 87
1, 1132430, Note_on_c, 0, 53, 47
1, 1132520, Control_c, 0, 64, 86
1, 1132535, Control_c, 0, 64, 85
1, 1132550, Control_c, 0, 64, 84
1, 1132565, Control_c, 0, 64, 81
1, 1132571, Note_off_c, 0, 58, 32
1, 1132580, Control_c, 0, 64, 78
1, 1132594, Control_c, 0, 64, 75
1, 1132617, Control_c, 0, 64, 71
1, 1132632, Control_c, 0, 64, 69
1, 1132647, Control_c, 0, 64, 68
1, 1132661, Control_c, 0, 64, 67
1, 1132691, Control_c, 0, 64, 67
1, 1132720, Control_c, 0, 64, 66
1, 1132750, Control_c, 0, 64, 66
1, 1133165, Note_on_c, 0, 49, 54
1, 1133225, Control_c, 0, 67, 126
1, 1133240, Control_c, 0, 67, 124
1, 1133255, Control_c, 0, 67, 122
1, 1133270, Control_c, 0, 67, 120
1, 1133284, Control_c, 0, 67, 118
1, 1133299, Control_c, 0, 67, 116
1, 1133314, Control_c, 0, 67, 114
1, 1133329, Control_c, 0, 67, 111
1, 1133343, Control_c, 0, 64, 66
1, 1133343, Control_c, 0, 67, 107
1, 1133365, Control_c, 0, 67, 103
1, 1133380, Control_c, 0, 67, 97
1, 1133395, Control_c, 0, 67, 90
1, 1133410, Control_c, 0, 67, 84
1, 1133425, Control_c, 0, 67, 79
1, 1133439, Control_c, 0, 67, 74
1, 1133454, Control_c, 0, 67, 71
1, 1133469, Control_c, 0, 67, 68
1, 1133484, Control_c, 0, 67, 65
1, 1133499, Control_c, 0, 67, 64
1, 1133514, Control_c, 0, 67, 63
1, 1133630, Note_off_c, 0, 53, 39
1, 1133677, Control_c, 0, 67, 64
1, 1133691, Control_c, 0, 67, 64
1, 1133706, Control_c, 0, 64, 66
1, 1133721, Control_c, 0, 67, 65
1, 1133765, Control_c, 0, 67, 65
1, 1133780, Control_c, 0, 67, 66
1, 1133810, Control_c, 0, 67, 66
1, 1133870, Control_c, 0, 67, 67
1, 1133900, Control_c, 0, 67, 67
1, 1133936, Note_on_c, 0, 46, 51
1, 1133959, Control_c, 0, 67, 68
1, 1134003, Control_c, 0, 64, 65
1, 1134048, Control_c, 0, 64, 65
1, 1134048, Control_c, 0, 67, 68
1, 1134092, Control_c, 0, 67, 69
1, 1134107, Control_c, 0, 64, 64
1, 1134159, Control_c, 0, 67, 69
1, 1134218, Control_c, 0, 67, 70
1, 1134277, Control_c, 0, 67, 70
1, 1134322, Control_c, 0, 67, 71
1, 1134326, Note_off_c, 0, 49, 53
1, 1134381, Control_c, 0, 67, 71
1, 1134396, Control_c, 0, 67, 72
1, 1134411, Control_c, 0, 67, 72
1, 1134440, Control_c, 0, 67, 73
1, 1134470, Control_c, 0, 67, 73
1, 1134514, Control_c, 0, 67, 74
1, 1134544, Control_c, 0, 64, 64
1, 1134603, Control_c, 0, 67, 74
1, 1134618, Control_c, 0, 64, 63
1, 1134663, Control_c, 0, 67, 75
1, 1134693, Control_c, 0, 64, 63
1, 1134693, Control_c, 0, 67, 75
1, 1134708, Control_c, 0, 67, 76
1, 1134737, Control_c, 0, 64, 62
1, 1134737, Control_c, 0, 67, 76
1, 1134752, Control_c, 0, 67, 77
1, 1134767, Control_c, 0, 67, 78
1, 1134768, Note_on_c, 0, 42, 35
1, 1134782, Control_c, 0, 64, 62
1, 1134782, Control_c, 0, 67, 80
1, 1134796, Control_c, 0, 67, 82
1, 1134811, Control_c, 0, 67, 84
1, 1134826, Control_c, 0, 64, 61
1, 1134826, Control_c, 0, 67, 86
1, 1134841, Control_c, 0, 67, 88
1, 1134856, Control_c, 0, 67, 91
1, 1134878, Control_c, 0, 67, 93
1, 1134893, Control_c, 0, 64, 61
1, 1134893, Control_c, 0, 67, 96
1, 1134908, Control_c, 0, 67, 99
1, 1134922, Control_c, 0, 67, 102
1, 1134937, Control_c, 0, 64, 60
1, 1134937, Control_c, 0, 67, 105
1, 1134952, Control_c, 0, 67, 109
1, 1134967, Control_c, 0, 64, 60
1, 1134967, Control_c, 0, 67, 112
1, 1134982, Control_c, 0, 67, 114
1, 1134996, Note_off_c, 0, 46, 41
1, 1134996, Control_c, 0, 64, 59
1, 1134996, Control_c, 0, 67, 118
1, 1135011, Control_c, 0, 67, 121
1, 1135026, Control_c, 0, 64, 59
1, 1135026, Control_c, 0, 67, 123
1, 1135041, Control_c, 0, 67, 127
1, 1135056, Control_c, 0, 67, 127
1, 1135070, Control_c, 0, 64, 58
1, 1135115, Control_c, 0, 64, 58
1, 1135130, Control_c, 0, 64, 57
1, 1135159, Control_c, 0, 64, 57
1, 1135188, Control_c, 0, 64, 56
1, 1135218, Control_c, 0, 64, 56
1, 1135248, Control_c, 0, 64, 55
1, 1135262, Control_c, 0, 64, 55
1, 1135277, Control_c, 0, 64, 54
1, 1135306, Control_c, 0, 64, 54
1, 1135366, Control_c, 0, 64, 53
1, 1135485, Control_c, 0, 64, 53
1, 1135623, Note_on_c, 0, 41, 27
1, 1135626, Control_c, 0, 64, 52
1, 1135671, Control_c, 0, 64, 52
1, 1135734, Note_off_c, 0, 42, 48
1, 1135908, Control_c, 0, 64, 52
1, 1135923, Control_c, 0, 64, 53
1, 1135937, Control_c, 0, 64, 54
1, 1135952, Control_c, 0, 64, 56
1, 1135967, Control_c, 0, 64, 58
1, 1135982, Control_c, 0, 64, 60
1, 1135997, Control_c, 0, 64, 61
1, 1136012, Control_c, 0, 64, 63
1, 1136027, Control_c, 0, 64, 64
1, 1136042, Control_c, 0, 64, 66
1, 1136057, Control_c, 0, 64, 67
1, 1136072, Control_c, 0, 64, 69
1, 1136086, Control_c, 0, 64, 71
1, 1136101, Control_c, 0, 64, 74
1, 1136116, Control_c, 0, 64, 76
1, 1136130, Control_c, 0, 64, 79
1, 1136145, Control_c, 0, 64, 81
1, 1136160, Control_c, 0, 64, 83
1, 1136175, Control_c, 0, 64, 84
1, 1136190, Control_c, 0, 64, 85
1, 1136204, Control_c, 0, 64, 85
1, 1136361, Control_c, 0, 64, 85
1, 1136376, Control_c, 0, 64, 84
1, 1136391, Control_c, 0, 64, 82
1, 1136405, Control_c, 0, 64, 78
1, 1136418, Note_off_c, 0, 41, 49
1, 1136420, Control_c, 0, 64, 73
1, 1136435, Control_c, 0, 64, 68
1, 1136450, Control_c, 0, 64, 65
1, 1136465, Control_c, 0, 64, 63
1, 1136480, Control_c, 0, 64, 63
1, 1136509, Control_c, 0, 64, 62
1, 1136894, Control_c, 0, 64, 63
1, 1137139, Control_c, 0, 64, 63
1, 1137169, Control_c, 0, 64, 64
1, 1137183, Control_c, 0, 64, 64
1, 1137197, Note_on_c, 0, 41, 35
1, 1137198, Control_c, 0, 64, 65
1, 1137213, Control_c, 0, 64, 67
1, 1137228, Control_c, 0, 64, 69
1, 1137243, Control_c, 0, 64, 71
1, 1137258, Control_c, 0, 64, 73
1, 1137273, Control_c, 0, 64, 75
1, 1137288, Control_c, 0, 64, 78
1, 1137303, Control_c, 0, 64, 80
1, 1137317, Control_c, 0, 64, 83
1, 1137332, Control_c, 0, 64, 85
1, 1137347, Control_c, 0, 64, 87
1, 1137362, Control_c, 0, 64, 88
1, 1137377, Control_c, 0, 64, 89
1, 1137391, Control_c, 0, 64, 90
1, 1137406, Control_c, 0, 64, 91
1, 1137421, Control_c, 0, 64, 91
1, 1137495, Control_c, 0, 64, 92
1, 1137764, Note_off_c, 0, 41, 33
1, 1137791, Control_c, 0, 64, 91
1, 1137806, Control_c, 0, 64, 90
1, 1137821, Control_c, 0, 64, 89
1, 1137836, Control_c, 0, 64, 88
1, 1137859, Control_c, 0, 64, 87
1, 1137874, Control_c, 0, 64, 84
1, 1137888, Control_c, 0, 64, 82
1, 1137903, Control_c, 0, 64, 78
1, 1137918, Control_c, 0, 64, 72
1, 1137932, Control_c, 0, 64, 67
1, 1137947, Control_c, 0, 64, 64
1, 1137962, Control_c, 0, 64, 62
1, 1137977, Control_c, 0, 64, 62
1, 1137992, Control_c, 0, 64, 61
1, 1138021, Control_c, 0, 64, 61
1, 1138140, Control_c, 0, 64, 61
1, 1138214, Control_c, 0, 64, 62
1, 1138288, Control_c, 0, 64, 62
1, 1138362, Control_c, 0, 64, 63
1, 1138406, Control_c, 0, 64, 63
1, 1138480, Control_c, 0, 64, 64
1, 1138599, Control_c, 0, 64, 64
1, 1138844, Control_c, 0, 64, 65
1, 1138916, Note_on_c, 0, 34, 33
1, 1138978, Control_c, 0, 64, 65
1, 1139023, Control_c, 0, 64, 66
1, 1139053, Control_c, 0, 64, 66
1, 1139067, Control_c, 0, 64, 67
1, 1139082, Control_c, 0, 64, 67
1, 1139112, Control_c, 0, 64, 68
1, 1139127, Control_c, 0, 64, 68
1, 1139142, Control_c, 0, 64, 69
1, 1139171, Control_c, 0, 64, 69
1, 1139201, Control_c, 0, 64, 70
1, 1139230, Control_c, 0, 64, 70
1, 1139274, Control_c, 0, 64, 71
1, 1139304, Control_c, 0, 64, 71
1, 1139334, Control_c, 0, 64, 72
1, 1139349, Control_c, 0, 64, 72
1, 1139401, Control_c, 0, 64, 73
1, 1139431, Control_c, 0, 64, 73
1, 1139461, Control_c, 0, 64, 74
1, 1139491, Control_c, 0, 64, 74
1, 1139520, Control_c, 0, 64, 75
1, 1139550, Control_c, 0, 64, 75
1, 1139580, Control_c, 0, 64, 76
1, 1139624, Control_c, 0, 64, 76
1, 1139668, Control_c, 0, 64, 77
1, 1139726, Control_c, 0, 64, 77
1, 1139756, Control_c, 0, 64, 78
1, 1139771, Control_c, 0, 64, 78
1, 1139786, Control_c, 0, 64, 79
1, 1139801, Control_c, 0, 64, 81
1, 1139816, Control_c, 0, 64, 84
1, 1139831, Control_c, 0, 64, 87
1, 1139845, Control_c, 0, 64, 92
1, 1139860, Control_c, 0, 64, 96
1, 1139875, Control_c, 0, 64, 101
1, 1139890, Control_c, 0, 64, 107
1, 1139904, Control_c, 0, 64, 113
1, 1139919, Control_c, 0, 64, 122
1, 1139934, Control_c, 0, 64, 127
1, 1140638, Control_c, 0, 64, 106
1, 1140653, Control_c, 0, 64, 90
1, 1140666, Note_off_c, 0, 34, 40
1, 1140668, Control_c, 0, 64, 77
1, 1140683, Control_c, 0, 64, 67
1, 1140698, Control_c, 0, 64, 59
1, 1140713, Control_c, 0, 64, 57
1, 1140727, Control_c, 0, 64, 58
1, 1140742, Control_c, 0, 64, 59
1, 1140757, Control_c, 0, 64, 60
1, 1140772, Control_c, 0, 64, 61
1, 1140868, Control_c, 0, 64, 62
1, 1141032, Control_c, 0, 64, 62
1, 1141180, Control_c, 0, 64, 63
1, 1141402, Control_c, 0, 64, 62
1, 1141417, Control_c, 0, 64, 62
1, 1141431, Control_c, 0, 64, 61
1, 1141446, Control_c, 0, 64, 61
1, 1141617, Control_c, 0, 64, 61
1, 1141661, Control_c, 0, 64, 62
1, 1141721, Note_on_c, 0, 53, 54
1, 1141723, Note_on_c, 0, 41, 39
1, 1141735, Control_c, 0, 64, 62
1, 1141748, Note_off_c, 0, 53, 58
1, 1141787, Note_off_c, 0, 41, 0
1, 1141804, Note_on_c, 0, 41, 35
1, 1141831, Note_on_c, 0, 53, 48
1, 1141855, Note_off_c, 0, 53, 60
1, 1141874, Note_off_c, 0, 41, 0
1, 1141884, Control_c, 0, 64, 63
1, 1141887, Note_on_c, 0, 41, 53
1, 1141912, Note_on_c, 0, 53, 54
1, 1141938, Note_off_c, 0, 41, 57
1, 1141938, Note_off_c, 0, 53, 61
1, 1142033, Control_c, 0, 64, 62
1, 1142041, Note_on_c, 0, 51, 48
1, 1142043, Note_on_c, 0, 39, 45
1, 1142043, Note_on_c, 0, 54, 43
1, 1142048, Note_on_c, 0, 58, 55
1, 1142055, Note_on_c, 0, 46, 46
1, 1142078, Control_c, 0, 64, 62
1, 1142299, Control_c, 0, 64, 62
1, 1143535, Note_off_c, 0, 54, 60
1, 1143544, Note_off_c, 0, 51, 60
1, 1143545, Note_off_c, 0, 58, 57
1, 1143552, Note_off_c, 0, 46, 49
1, 1143567, Note_off_c, 0, 39, 42
1, 1144743, Note_on_c, 0, 53, 59
1, 1144750, Note_on_c, 0, 41, 38
1, 1144778, Note_off_c, 0, 53, 62
1, 1144817, Note_off_c, 0, 41, 0
1, 1144831, Note_on_c, 0, 41, 39
1, 1144868, Note_on_c, 0, 53, 30
1, 1144873, Note_off_c, 0, 41, 61
1, 1144892, Note_off_c, 0, 53, 0
1, 1144916, Note_on_c, 0, 53, 44
1, 1144922, Note_on_c, 0, 41, 51
1, 1144961, Note_off_c, 0, 53, 65
1, 1144976, Note_off_c, 0, 41, 57
1, 1145011, Control_c, 0, 64, 63
1, 1145067, Note_on_c, 0, 39, 42
1, 1145068, Note_on_c, 0, 51, 43
1, 1145077, Note_on_c, 0, 58, 49
1, 1145089, Note_on_c, 0, 54, 38
1, 1145091, Note_on_c, 0, 46, 38
1, 1146583, Control_c, 0, 64, 62
1, 1146658, Control_c, 0, 64, 62
1, 1146673, Control_c, 0, 64, 61
1, 1146686, Note_off_c, 0, 46, 53
1, 1146690, Note_off_c, 0, 58, 57
1, 1146694, Note_off_c, 0, 51, 63
1, 1146695, Note_off_c, 0, 54, 56
1, 1146701, Note_off_c, 0, 39, 52
1, 1146702, Control_c, 0, 64, 61
1, 1146717, Control_c, 0, 64, 60
1, 1146732, Control_c, 0, 64, 60
1, 1146747, Control_c, 0, 64, 59
1, 1146762, Control_c, 0, 64, 59
1, 1146791, Control_c, 0, 64, 58
1, 1146806, Control_c, 0, 64, 58
1, 1146821, Control_c, 0, 64, 57
1, 1146836, Control_c, 0, 64, 54
1, 1146858, Control_c, 0, 64, 51
1, 1146873, Control_c, 0, 64, 44
1, 1146888, Control_c, 0, 64, 29
1, 1146902, Control_c, 0, 64, 0
1, 1147949, Note_on_c, 0, 41, 33
1, 1147953, Note_on_c, 0, 53, 34
1, 1148014, Note_off_c, 0, 53, 56
1, 1148019, Note_off_c, 0, 41, 51
1, 1148170, Note_on_c, 0, 41, 41
1, 1148177, Note_on_c, 0, 53, 31
1, 1148199, Control_c, 0, 64, 11
1, 1148215, Control_c, 0, 64, 14
1, 1148227, Note_off_c, 0, 41, 55
1, 1148230, Control_c, 0, 64, 17
1, 1148237, Note_off_c, 0, 53, 56
1, 1148259, Control_c, 0, 64, 19
1, 1148289, Control_c, 0, 64, 21
1, 1148319, Control_c, 0, 64, 23
1, 1148356, Control_c, 0, 64, 24
1, 1148386, Control_c, 0, 64, 26
1, 1148392, Note_on_c, 0, 41, 38
1, 1148397, Note_on_c, 0, 53, 40
1, 1148401, Control_c, 0, 64, 27
1, 1148415, Control_c, 0, 64, 28
1, 1148430, Control_c, 0, 64, 29
1, 1148445, Control_c, 0, 64, 30
1, 1148460, Control_c, 0, 64, 31
1, 1148474, Control_c, 0, 64, 33
1, 1148489, Control_c, 0, 64, 35
1, 1148504, Control_c, 0, 64, 36
1, 1148519, Control_c, 0, 64, 38
1, 1148534, Control_c, 0, 64, 40
1, 1148548, Control_c, 0, 64, 43
1, 1148563, Control_c, 0, 64, 45
1, 1148578, Control_c, 0, 64, 47
1, 1148593, Control_c, 0, 64, 48
1, 1148608, Control_c, 0, 64, 49
1, 1148622, Control_c, 0, 64, 51
1, 1148637, Control_c, 0, 64, 52
1, 1148652, Control_c, 0, 64, 53
1, 1148667, Control_c, 0, 64, 53
1, 1148682, Control_c, 0, 64, 54
1, 1148697, Control_c, 0, 64, 55
1, 1148712, Control_c, 0, 64, 55
1, 1148727, Control_c, 0, 64, 56
1, 1148741, Control_c, 0, 64, 56
1, 1148771, Control_c, 0, 64, 57
1, 1148815, Control_c, 0, 64, 57
1, 1148889, Note_on_c, 0, 58, 39
1, 1148905, Note_on_c, 0, 46, 25
1, 1148907, Note_on_c, 0, 49, 40
1, 1148917, Note_on_c, 0, 34, 26
1, 1148934, Control_c, 0, 64, 58
1, 1148979, Control_c, 0, 64, 58
1, 1149008, Control_c, 0, 64, 59
1, 1149039, Control_c, 0, 64, 59
1, 1149053, Control_c, 0, 64, 60
1, 1149068, Control_c, 0, 64, 61
1, 1149090, Control_c, 0, 64, 61
1, 1149105, Control_c, 0, 64, 62
1, 1149120, Control_c, 0, 64, 62
1, 1149135, Control_c, 0, 64, 63
1, 1149150, Control_c, 0, 64, 63
1, 1149179, Control_c, 0, 64, 64
1, 1149209, Control_c, 0, 64, 64
1, 1149224, Control_c, 0, 64, 65
1, 1149253, Control_c, 0, 64, 65
1, 1149268, Control_c, 0, 64, 66
1, 1149298, Control_c, 0, 64, 66
1, 1149313, Control_c, 0, 64, 67
1, 1149343, Control_c, 0, 64, 67
1, 1149372, Control_c, 0, 64, 68
1, 1149461, Control_c, 0, 64, 68
1, 1149854, Control_c, 0, 64, 69
1, 1149943, Control_c, 0, 64, 69
1, 1150150, Control_c, 0, 64, 70
1, 1150209, Control_c, 0, 64, 70
1, 1150238, Control_c, 0, 64, 71
1, 1150268, Control_c, 0, 64, 71
1, 1150283, Control_c, 0, 64, 72
1, 1150298, Control_c, 0, 64, 72
1, 1150312, Control_c, 0, 64, 73
1, 1150327, Control_c, 0, 64, 73
1, 1150342, Control_c, 0, 64, 74
1, 1150357, Control_c, 0, 64, 75
1, 1150372, Control_c, 0, 64, 75
1, 1150386, Control_c, 0, 64, 76
1, 1150401, Control_c, 0, 64, 77
1, 1150416, Control_c, 0, 64, 78
1, 1150431, Control_c, 0, 64, 78
1, 1150446, Control_c, 0, 64, 79
1, 1150460, Control_c, 0, 64, 80
1, 1150475, Control_c, 0, 64, 80
1, 1150490, Control_c, 0, 64, 81
1, 1150505, Control_c, 0, 64, 81
1, 1150520, Control_c, 0, 64, 82
1, 1150550, Control_c, 0, 64, 82
1, 1150564, Control_c, 0, 64, 83
1, 1150601, Control_c, 0, 64, 83
1, 1150647, Control_c, 0, 64, 84
1, 1150691, Control_c, 0, 64, 84
1, 1150736, Control_c, 0, 64, 85
1, 1150765, Control_c, 0, 64, 85
1, 1150795, Control_c, 0, 64, 86
1, 1150824, Control_c, 0, 64, 86
1, 1150839, Control_c, 0, 64, 87
1, 1150854, Control_c, 0, 64, 88
1, 1150869, Control_c, 0, 64, 88
1, 1150884, Control_c, 0, 64, 90
1, 1150899, Control_c, 0, 64, 91
1, 1150914, Control_c, 0, 64, 93
1, 1150928, Control_c, 0, 64, 95
1, 1150943, Control_c, 0, 64, 96
1, 1150958, Control_c, 0, 64, 98
1, 1150973, Control_c, 0, 64, 100
1, 1150988, Control_c, 0, 64, 102
1, 1151003, Control_c, 0, 64, 104
1, 1151017, Control_c, 0, 64, 106
1, 1151032, Control_c, 0, 64, 107
1, 1151047, Control_c, 0, 64, 109
1, 1151061, Control_c, 0, 64, 110
1, 1151076, Control_c, 0, 64, 112
1, 1151091, Control_c, 0, 64, 113
1, 1151106, Control_c, 0, 64, 114
1, 1151121, Control_c, 0, 64, 116
1, 1151135, Control_c, 0, 64, 117
1, 1151150, Control_c, 0, 64, 119
1, 1151165, Control_c, 0, 64, 122
1, 1151179, Control_c, 0, 64, 127
1, 1153057, Control_c, 0, 64, 119
1, 1153072, Control_c, 0, 64, 114
1, 1153087, Control_c, 0, 64, 109
1, 1153102, Control_c, 0, 64, 106
1, 1153116, Control_c, 0, 64, 102
1, 1153131, Control_c, 0, 64, 99
1, 1153146, Control_c, 0, 64, 96
1, 1153161, Control_c, 0, 64, 94
1, 1153176, Control_c, 0, 64, 92
1, 1153191, Control_c, 0, 64, 89
1, 1153206, Control_c, 0, 64, 87
1, 1153220, Control_c, 0, 64, 85
1, 1153235, Control_c, 0, 64, 84
1, 1153250, Control_c, 0, 64, 82
1, 1153264, Control_c, 0, 64, 79
1, 1153279, Control_c, 0, 64, 77
1, 1153294, Control_c, 0, 64, 74
1, 1153309, Control_c, 0, 64, 70
1, 1153324, Control_c, 0, 64, 67
1, 1153338, Control_c, 0, 64, 66
1, 1153353, Control_c, 0, 64, 65
1, 1153427, Control_c, 0, 64, 65
1, 1153486, Control_c, 0, 64, 64
1, 1153546, Control_c, 0, 64, 64
1, 1153597, Control_c, 0, 64, 63
1, 1153627, Control_c, 0, 64, 63
1, 1153642, Control_c, 0, 64, 62
1, 1153657, Control_c, 0, 64, 62
1, 1153671, Control_c, 0, 64, 61
1, 1153686, Control_c, 0, 64, 60
1, 1153701, Control_c, 0, 64, 60
1, 1153716, Note_off_c, 0, 41, 38
1, 1153716, Control_c, 0, 64, 59
1, 1153723, Note_off_c, 0, 53, 31
1, 1153731, Control_c, 0, 64, 58
1, 1153736, Note_off_c, 0, 34, 35
1, 1153745, Control_c, 0, 64, 57
1, 1153760, Control_c, 0, 64, 56
1, 1153765, Note_off_c, 0, 49, 33
1, 1153775, Control_c, 0, 64, 55
1, 1153784, Note_off_c, 0, 46, 35
1, 1153790, Control_c, 0, 64, 54
1, 1153791, Note_off_c, 0, 58, 37
1, 1153806, Control_c, 0, 64, 54
1, 1153821, Control_c, 0, 64, 53
1, 1153850, Control_c, 0, 64, 53
1, 1154175, Control_c, 0, 64, 53
1, 1154204, Control_c, 0, 64, 54
1, 1154279, Control_c, 0, 64, 54
1, 1154309, Control_c, 0, 64, 55
1, 1154553, Control_c, 0, 64, 54
1, 1154688, Control_c, 0, 64, 55
1, 1154732, Control_c, 0, 64, 55
1, 1154747, Control_c, 0, 64, 56
1, 1154762, Control_c, 0, 64, 57
1, 1154792, Control_c, 0, 64, 58
1, 1154807, Control_c, 0, 64, 59
1, 1154821, Control_c, 0, 64, 60
1, 1154999, Control_c, 0, 64, 60
1, 1155028, Control_c, 0, 64, 61
1, 1155043, Control_c, 0, 64, 61
1, 1155058, Control_c, 0, 64, 62
1, 1155081, Control_c, 0, 64, 63
1, 1155096, Control_c, 0, 64, 63
1, 1155110, Control_c, 0, 67, 125
1, 1155125, Control_c, 0, 64, 64
1, 1155125, Control_c, 0, 67, 121
1, 1155140, Control_c, 0, 67, 117
1, 1155155, Control_c, 0, 64, 64
1, 1155155, Control_c, 0, 67, 110
1, 1155170, Control_c, 0, 67, 105
1, 1155184, Control_c, 0, 64, 65
1, 1155184, Control_c, 0, 67, 99
1, 1155199, Control_c, 0, 67, 94
1, 1155214, Control_c, 0, 67, 90
1, 1155229, Control_c, 0, 67, 87
1, 1155243, Control_c, 0, 64, 65
1, 1155243, Control_c, 0, 67, 85
1, 1155258, Control_c, 0, 67, 84
1, 1155273, Control_c, 0, 67, 84
1, 1155288, Control_c, 0, 67, 83
1, 1155437, Control_c, 0, 64, 66
1, 1155466, Control_c, 0, 64, 66
1, 1155511, Control_c, 0, 67, 84
1, 1155526, Control_c, 0, 64, 64
1, 1155526, Control_c, 0, 67, 84
1, 1155540, Control_c, 0, 64, 34
1, 1155540, Control_c, 0, 67, 85
1, 1155555, Control_c, 0, 64, 0
1, 1155555, Control_c, 0, 67, 86
1, 1155570, Control_c, 0, 67, 86
1, 1155585, Control_c, 0, 67, 87
1, 1155600, Control_c, 0, 67, 88
1, 1155614, Control_c, 0, 67, 88
1, 1155629, Control_c, 0, 67, 89
1, 1155644, Control_c, 0, 67, 90
1, 1155659, Control_c, 0, 67, 91
1, 1155674, Control_c, 0, 67, 92
1, 1155689, Control_c, 0, 67, 92
1, 1155704, Control_c, 0, 67, 93
1, 1155719, Control_c, 0, 67, 93
1, 1155733, Control_c, 0, 67, 94
1, 1155763, Control_c, 0, 67, 94
1, 1155792, Control_c, 0, 67, 95
1, 1155874, Control_c, 0, 67, 95
1, 1155882, Note_on_c, 0, 48, 53
1, 1155889, Control_c, 0, 67, 96
1, 1155908, Note_off_c, 0, 48, 57
1, 1156035, Note_on_c, 0, 41, 66
1, 1156038, Note_on_c, 0, 53, 63
1, 1156041, Note_on_c, 0, 60, 64
1, 1156044, Note_on_c, 0, 56, 58
1, 1156059, Note_off_c, 0, 53, 64
1, 1156064, Note_off_c, 0, 41, 64
1, 1156066, Note_off_c, 0, 56, 62
1, 1156070, Note_off_c, 0, 60, 66
1, 1156228, Control_c, 0, 67, 95
1, 1156258, Control_c, 0, 67, 95
1, 1156303, Control_c, 0, 67, 94
1, 1156336, Note_on_c, 0, 56, 63
1, 1156337, Note_on_c, 0, 60, 63
1, 1156348, Note_on_c, 0, 41, 57
1, 1156351, Note_on_c, 0, 53, 42
1, 1156366, Note_off_c, 0, 60, 66
1, 1156368, Note_off_c, 0, 56, 65
1, 1156378, Note_off_c, 0, 41, 63
1, 1156381, Note_off_c, 0, 53, 55
1, 1156491, Note_on_c, 0, 61, 77
1, 1156494, Note_on_c, 0, 58, 71
1, 1156495, Note_on_c, 0, 34, 71
1, 1156495, Note_on_c, 0, 53, 58
1, 1156514, Note_off_c, 0, 61, 67
1, 1156520, Note_off_c, 0, 58, 67
1, 1156521, Note_off_c, 0, 34, 64
1, 1156521, Note_off_c, 0, 53, 60
1, 1156569, Control_c, 0, 67, 95
1, 1156621, Control_c, 0, 67, 95
1, 1156786, Note_on_c, 0, 61, 67
1, 1156798, Note_on_c, 0, 58, 52
1, 1156800, Note_on_c, 0, 53, 52
1, 1156802, Note_on_c, 0, 34, 57
1, 1156825, Note_off_c, 0, 58, 63
1, 1156825, Note_off_c, 0, 53, 61
1, 1156828, Note_off_c, 0, 61, 58
1, 1156833, Note_off_c, 0, 34, 60
1, 1156917, Control_c, 0, 67, 95
1, 1156959, Note_on_c, 0, 41, 75
1, 1156962, Note_on_c, 0, 56, 82
1, 1156962, Note_on_c, 0, 53, 66
1, 1156984, Note_off_c, 0, 56, 71
1, 1156986, Note_off_c, 0, 41, 65
1, 1156988, Note_off_c, 0, 53, 67
1, 1157194, Note_on_c, 0, 41, 73
1, 1157194, Note_on_c, 0, 55, 50
1, 1157194, Note_on_c, 0, 58, 50
1, 1157200, Control_c, 0, 64, 14
1, 1157215, Control_c, 0, 64, 21
1, 1157218, Note_off_c, 0, 41, 65
1, 1157220, Note_off_c, 0, 55, 37
1, 1157220, Note_off_c, 0, 58, 58
1, 1157229, Control_c, 0, 64, 26
1, 1157239, Note_on_c, 0, 61, 85
1, 1157244, Control_c, 0, 67, 94
1, 1157246, Note_on_c, 0, 56, 80
1, 1157259, Control_c, 0, 64, 24
1, 1157264, Note_on_c, 0, 41, 62
1, 1157266, Note_off_c, 0, 61, 66
1, 1157269, Note_off_c, 0, 56, 69
1, 1157274, Control_c, 0, 64, 0
1, 1157274, Control_c, 0, 67, 96
1, 1157289, Control_c, 0, 67, 98
1, 1157291, Note_off_c, 0, 41, 57
1, 1157303, Control_c, 0, 67, 107
1, 1157318, Control_c, 0, 67, 127
1, 1157340, Control_c, 0, 67, 127
1, 1157636, Control_c, 0, 64, 14
1, 1157651, Control_c, 0, 64, 26
1, 1157666, Control_c, 0, 64, 29
1, 1157681, Control_c, 0, 64, 33
1, 1157695, Control_c, 0, 64, 36
1, 1157710, Control_c, 0, 64, 38
1, 1157725, Control_c, 0, 64, 38
1, 1157872, Note_on_c, 0, 85, 66
1, 1157889, Control_c, 0, 64, 39
1, 1157893, Note_on_c, 0, 65, 35
1, 1157893, Note_on_c, 0, 82, 54
1, 1157895, Note_on_c, 0, 73, 39
1, 1157904, Note_on_c, 0, 58, 34
1, 1157904, Control_c, 0, 64, 40
1, 1157919, Control_c, 0, 64, 45
1, 1157934, Control_c, 0, 64, 52
1, 1157948, Control_c, 0, 64, 60
1, 1157963, Control_c, 0, 64, 65
1, 1157978, Control_c, 0, 64, 69
1, 1157993, Control_c, 0, 64, 74
1, 1158008, Control_c, 0, 64, 82
1, 1158023, Control_c, 0, 64, 95
1, 1158038, Control_c, 0, 64, 119
1, 1158052, Control_c, 0, 64, 127
1, 1158052, Control_c, 0, 67, 127
1, 1158067, Control_c, 0, 67, 123
1, 1158089, Control_c, 0, 67, 120
1, 1158104, Control_c, 0, 67, 116
1, 1158119, Control_c, 0, 67, 113
1, 1158133, Control_c, 0, 67, 108
1, 1158148, Control_c, 0, 67, 104
1, 1158163, Control_c, 0, 67, 100
1, 1158178, Control_c, 0, 67, 98
1, 1158178, Note_off_c, 0, 65, 61
1, 1158193, Control_c, 0, 67, 96
1, 1158208, Control_c, 0, 67, 94
1, 1158223, Control_c, 0, 67, 93
1, 1158238, Control_c, 0, 67, 92
1, 1158239, Note_off_c, 0, 58, 58
1, 1158252, Control_c, 0, 67, 92
1, 1158267, Control_c, 0, 67, 91
1, 1158282, Control_c, 0, 67, 91
1, 1158293, Note_off_c, 0, 85, 60
1, 1158296, Note_off_c, 0, 73, 48
1, 1158324, Note_off_c, 0, 82, 55
1, 1158428, Note_on_c, 0, 85, 68
1, 1158431, Note_on_c, 0, 73, 57
1, 1158436, Note_on_c, 0, 66, 53
1, 1158445, Control_c, 0, 64, 105
1, 1158446, Note_on_c, 0, 82, 59
1, 1158449, Note_on_c, 0, 54, 51
1, 1158460, Control_c, 0, 64, 82
1, 1158475, Control_c, 0, 64, 66
1, 1158490, Control_c, 0, 64, 59
1, 1158505, Control_c, 0, 64, 64
1, 1158520, Control_c, 0, 64, 69
1, 1158534, Control_c, 0, 64, 78
1, 1158549, Control_c, 0, 64, 91
1, 1158564, Control_c, 0, 64, 109
1, 1158574, Note_off_c, 0, 54, 64
1, 1158578, Note_off_c, 0, 73, 62
1, 1158578, Control_c, 0, 64, 127
1, 1158578, Control_c, 0, 67, 91
1, 1158598, Note_off_c, 0, 66, 60
1, 1158657, Note_off_c, 0, 82, 47
1, 1158668, Control_c, 0, 67, 92
1, 1158691, Note_off_c, 0, 85, 61
1, 1158713, Control_c, 0, 67, 92
1, 1158728, Control_c, 0, 67, 93
1, 1158742, Control_c, 0, 67, 94
1, 1158757, Control_c, 0, 67, 95
1, 1158772, Control_c, 0, 64, 94
1, 1158772, Control_c, 0, 67, 96
1, 1158781, Note_on_c, 0, 84, 82
1, 1158785, Note_on_c, 0, 67, 67
1, 1158787, Note_on_c, 0, 60, 60
1, 1158787, Control_c, 0, 64, 70
1, 1158787, Control_c, 0, 67, 96
1, 1158794, Note_on_c, 0, 76, 61
1, 1158801, Control_c, 0, 64, 0
1, 1158811, Note_off_c, 0, 67, 67
1, 1158816, Note_off_c, 0, 60, 65
1, 1158817, Note_off_c, 0, 84, 59
1, 1158830, Note_off_c, 0, 76, 65
1, 1158839, Control_c, 0, 67, 97
1, 1158898, Control_c, 0, 67, 96
1, 1158943, Note_on_c, 0, 60, 59
1, 1158947, Note_on_c, 0, 82, 65
1, 1158949, Note_on_c, 0, 76, 51
1, 1158950, Note_on_c, 0, 67, 62
1, 1158957, Control_c, 0, 64, 21
1, 1158971, Note_off_c, 0, 67, 63
1, 1158972, Note_off_c, 0, 82, 68
1, 1158972, Control_c, 0, 64, 38
1, 1158973, Note_off_c, 0, 76, 59
1, 1158978, Note_off_c, 0, 60, 64
1, 1158987, Control_c, 0, 64, 47
1, 1159001, Control_c, 0, 64, 52
1, 1159016, Control_c, 0, 64, 55
1, 1159016, Control_c, 0, 67, 96
1, 1159031, Control_c, 0, 64, 56
1, 1159046, Control_c, 0, 67, 96
1, 1159061, Control_c, 0, 64, 42
1, 1159061, Control_c, 0, 67, 97
1, 1159075, Control_c, 0, 64, 0
1, 1159075, Control_c, 0, 67, 98
1, 1159090, Control_c, 0, 67, 99
1, 1159099, Note_on_c, 0, 80, 78
1, 1159103, Note_on_c, 0, 65, 62
1, 1159105, Control_c, 0, 67, 101
1, 1159107, Note_on_c, 0, 68, 68
1, 1159107, Note_on_c, 0, 77, 60
1, 1159117, Note_off_c, 0, 80, 71
1, 1159120, Control_c, 0, 67, 102
1, 1159126, Note_off_c, 0, 77, 63
1, 1159131, Note_off_c, 0, 65, 67
1, 1159132, Note_off_c, 0, 68, 66
1, 1159135, Control_c, 0, 67, 103
1, 1159165, Control_c, 0, 67, 104
1, 1159194, Control_c, 0, 67, 104
1, 1159254, Control_c, 0, 67, 104
1, 1159317, Note_on_c, 0, 82, 71
1, 1159320, Note_on_c, 0, 79, 62
1, 1159323, Note_on_c, 0, 65, 61
1, 1159324, Note_on_c, 0, 68, 57
1, 1159327, Control_c, 0, 67, 103
1, 1159334, Note_off_c, 0, 82, 68
1, 1159338, Note_off_c, 0, 79, 64
1, 1159342, Control_c, 0, 67, 102
1, 1159344, Note_off_c, 0, 68, 62
1, 1159347, Note_off_c, 0, 65, 65
1, 1159357, Control_c, 0, 67, 101
1, 1159372, Control_c, 0, 67, 98
1, 1159375, Note_on_c, 0, 80, 80
1, 1159376, Note_on_c, 0, 84, 82
1, 1159384, Note_on_c, 0, 68, 71
1, 1159387, Control_c, 0, 67, 94
1, 1159388, Note_on_c, 0, 65, 69
1, 1159392, Note_off_c, 0, 80, 72
1, 1159396, Note_off_c, 0, 84, 72
1, 1159403, Control_c, 0, 67, 90
1, 1159407, Note_off_c, 0, 68, 63
1, 1159413, Note_off_c, 0, 65, 66
1, 1159417, Control_c, 0, 67, 84
1, 1159432, Control_c, 0, 67, 72
1, 1159447, Control_c, 0, 67, 58
1, 1159462, Control_c, 0, 67, 44
1, 1159477, Control_c, 0, 67, 30
1, 1159491, Control_c, 0, 67, 17
1, 1159506, Control_c, 0, 67, 0
1, 1159551, Control_c, 0, 64, 24
1, 1159573, Control_c, 0, 64, 29
1, 1159588, Control_c, 0, 64, 34
1, 1159603, Control_c, 0, 64, 36
1, 1159618, Control_c, 0, 64, 38
1, 1159632, Control_c, 0, 64, 39
1, 1159647, Control_c, 0, 64, 41
1, 1159662, Control_c, 0, 64, 42
1, 1159677, Control_c, 0, 64, 43
1, 1159692, Control_c, 0, 64, 44
1, 1159706, Control_c, 0, 64, 46
1, 1159721, Control_c, 0, 64, 48
1, 1159736, Control_c, 0, 64, 50
1, 1159751, Control_c, 0, 64, 53
1, 1159766, Control_c, 0, 64, 56
1, 1159780, Control_c, 0, 64, 59
1, 1159795, Control_c, 0, 64, 62
1, 1159810, Control_c, 0, 64, 63
1, 1159824, Control_c, 0, 64, 65
1, 1159839, Control_c, 0, 64, 66
1, 1159854, Control_c, 0, 64, 68
1, 1159869, Control_c, 0, 64, 70
1, 1159884, Control_c, 0, 64, 72
1, 1159898, Control_c, 0, 64, 74
1, 1159913, Control_c, 0, 64, 76
1, 1159928, Control_c, 0, 64, 78
1, 1159943, Control_c, 0, 64, 80
1, 1159958, Control_c, 0, 64, 81
1, 1159967, Note_on_c, 0, 56, 65
1, 1159972, Control_c, 0, 64, 83
1, 1159987, Control_c, 0, 64, 84
1, 1160002, Control_c, 0, 64, 87
1, 1160017, Control_c, 0, 64, 89
1, 1160032, Control_c, 0, 64, 92
1, 1160047, Control_c, 0, 64, 95
1, 1160062, Control_c, 0, 64, 99
1, 1160077, Control_c, 0, 64, 104
1, 1160092, Control_c, 0, 64, 111
1, 1160106, Control_c, 0, 64, 127
1, 1160210, Note_on_c, 0, 53, 48
1, 1160213, Note_on_c, 0, 51, 45
1, 1160229, Note_on_c, 0, 41, 33
1, 1160405, Note_off_c, 0, 51, 56
1, 1160532, Note_off_c, 0, 53, 64
1, 1160576, Note_on_c, 0, 50, 46
1, 1160581, Note_on_c, 0, 58, 72
1, 1160627, Note_off_c, 0, 56, 60
1, 1160780, Control_c, 0, 64, 103
1, 1160783, Note_on_c, 0, 60, 64
1, 1160785, Note_on_c, 0, 43, 54
1, 1160785, Note_on_c, 0, 51, 52
1, 1160795, Control_c, 0, 64, 86
1, 1160806, Note_on_c, 0, 48, 49
1, 1160810, Control_c, 0, 64, 70
1, 1160825, Control_c, 0, 64, 17
1, 1160840, Control_c, 0, 64, 0
1, 1160841, Note_off_c, 0, 50, 52
1, 1160876, Note_off_c, 0, 41, 41
1, 1160944, Note_off_c, 0, 51, 58
1, 1160975, Note_off_c, 0, 58, 31
1, 1161003, Control_c, 0, 64, 40
1, 1161018, Control_c, 0, 64, 62
1, 1161033, Control_c, 0, 64, 67
1, 1161048, Control_c, 0, 64, 72
1, 1161069, Control_c, 0, 64, 79
1, 1161084, Control_c, 0, 64, 87
1, 1161099, Control_c, 0, 64, 99
1, 1161114, Control_c, 0, 64, 111
1, 1161129, Control_c, 0, 64, 127
1, 1161141, Note_on_c, 0, 50, 54
1, 1161153, Note_on_c, 0, 53, 61
1, 1161184, Note_off_c, 0, 50, 64
1, 1161201, Note_off_c, 0, 53, 63
1, 1161207, Note_off_c, 0, 43, 60
1, 1161239, Note_off_c, 0, 60, 63
1, 1161419, Note_on_c, 0, 60, 54
1, 1161421, Note_on_c, 0, 51, 43
1, 1161435, Note_on_c, 0, 41, 34
1, 1161436, Note_on_c, 0, 56, 41
1, 1161441, Control_c, 0, 64, 122
1, 1161456, Control_c, 0, 64, 90
1, 1161470, Control_c, 0, 64, 70
1, 1161473, Note_off_c, 0, 48, 9
1, 1161485, Control_c, 0, 64, 0
1, 1161588, Control_c, 0, 64, 52
1, 1161588, Control_c, 0, 67, 8
1, 1161603, Control_c, 0, 64, 65
1, 1161603, Control_c, 0, 67, 9
1, 1161618, Control_c, 0, 64, 70
1, 1161618, Control_c, 0, 67, 11
1, 1161633, Control_c, 0, 64, 76
1, 1161633, Control_c, 0, 67, 12
1, 1161648, Control_c, 0, 64, 84
1, 1161648, Control_c, 0, 67, 14
1, 1161663, Control_c, 0, 64, 93
1, 1161663, Control_c, 0, 67, 16
1, 1161678, Control_c, 0, 64, 98
1, 1161678, Control_c, 0, 67, 19
1, 1161692, Control_c, 0, 64, 102
1, 1161692, Control_c, 0, 67, 23
1, 1161707, Control_c, 0, 64, 105
1, 1161707, Control_c, 0, 67, 26
1, 1161722, Control_c, 0, 64, 109
1, 1161722, Control_c, 0, 67, 30
1, 1161737, Control_c, 0, 64, 114
1, 1161737, Control_c, 0, 67, 34
1, 1161752, Control_c, 0, 64, 122
1, 1161752, Control_c, 0, 67, 39
1, 1161767, Control_c, 0, 64, 127
1, 1161767, Control_c, 0, 67, 44
1, 1161782, Control_c, 0, 67, 48
1, 1161797, Control_c, 0, 67, 53
1, 1161812, Control_c, 0, 67, 57
1, 1161833, Note_off_c, 0, 51, 55
1, 1161834, Control_c, 0, 67, 63
1, 1161849, Control_c, 0, 67, 67
1, 1161864, Control_c, 0, 67, 72
1, 1161879, Control_c, 0, 67, 76
1, 1161894, Control_c, 0, 67, 80
1, 1161908, Control_c, 0, 67, 85
1, 1161923, Control_c, 0, 67, 90
1, 1161938, Control_c, 0, 67, 95
1, 1161953, Control_c, 0, 67, 100
1, 1161968, Control_c, 0, 67, 105
1, 1161982, Control_c, 0, 67, 110
1, 1161997, Control_c, 0, 67, 115
1, 1162012, Control_c, 0, 67, 121
1, 1162026, Control_c, 0, 64, 120
1, 1162026, Control_c, 0, 67, 127
1, 1162041, Control_c, 0, 64, 107
1, 1162056, Control_c, 0, 64, 92
1, 1162071, Control_c, 0, 64, 79
1, 1162086, Control_c, 0, 64, 64
1, 1162092, Note_on_c, 0, 50, 31
1, 1162101, Control_c, 0, 64, 0
1, 1162109, Note_on_c, 0, 62, 49
1, 1162167, Note_off_c, 0, 60, 57
1, 1162205, Control_c, 0, 64, 29
1, 1162219, Control_c, 0, 64, 63
1, 1162234, Control_c, 0, 64, 71
1, 1162249, Control_c, 0, 64, 78
1, 1162264, Control_c, 0, 64, 86
1, 1162279, Control_c, 0, 64, 94
1, 1162293, Control_c, 0, 64, 100
1, 1162308, Control_c, 0, 64, 106
1, 1162319, Note_off_c, 0, 41, 40
1, 1162323, Control_c, 0, 64, 113
1, 1162324, Note_off_c, 0, 50, 42
1, 1162337, Control_c, 0, 64, 127
1, 1162381, Note_off_c, 0, 56, 59
1, 1162657, Control_c, 0, 64, 113
1, 1162670, Note_on_c, 0, 64, 44
1, 1162672, Control_c, 0, 64, 103
1, 1162682, Note_on_c, 0, 55, 29
1, 1162687, Note_on_c, 0, 60, 30
1, 1162687, Control_c, 0, 64, 95
1, 1162689, Note_on_c, 0, 36, 32
1, 1162695, Note_on_c, 0, 48, 29
1, 1162701, Note_on_c, 0, 43, 35
1, 1162702, Control_c, 0, 64, 86
1, 1162717, Control_c, 0, 64, 77
1, 1162731, Control_c, 0, 64, 69
1, 1162733, Note_off_c, 0, 62, 28
1, 1162746, Control_c, 0, 64, 61
1, 1162761, Control_c, 0, 64, 40
1, 1162775, Control_c, 0, 64, 21
1, 1162790, Control_c, 0, 64, 0
1, 1162953, Control_c, 0, 64, 19
1, 1162968, Control_c, 0, 64, 36
1, 1162983, Control_c, 0, 64, 47
1, 1162998, Control_c, 0, 64, 56
1, 1163013, Control_c, 0, 64, 61
1, 1163028, Control_c, 0, 64, 63
1, 1163042, Control_c, 0, 64, 65
1, 1163057, Control_c, 0, 64, 68
1, 1163072, Control_c, 0, 64, 70
1, 1163087, Control_c, 0, 64, 73
1, 1163102, Control_c, 0, 64, 77
1, 1163116, Control_c, 0, 64, 80
1, 1163131, Control_c, 0, 64, 84
1, 1163146, Control_c, 0, 64, 88
1, 1163161, Control_c, 0, 64, 92
1, 1163175, Control_c, 0, 64, 96
1, 1163190, Control_c, 0, 64, 102
1, 1163205, Control_c, 0, 64, 107
1, 1163220, Control_c, 0, 64, 114
1, 1163234, Control_c, 0, 64, 127
1, 1163370, Note_off_c, 0, 43, 34
1, 1163376, Note_off_c, 0, 48, 37
1, 1163396, Note_off_c, 0, 36, 36
1, 1163448, Note_off_c, 0, 55, 38
1, 1163470, Note_off_c, 0, 60, 38
1, 1163517, Note_off_c, 0, 64, 31
1, 1163702, Control_c, 0, 67, 125
1, 1163717, Control_c, 0, 67, 121
1, 1163732, Control_c, 0, 67, 117
1, 1163746, Control_c, 0, 67, 113
1, 1163761, Control_c, 0, 67, 109
1, 1163776, Control_c, 0, 67, 105
1, 1163791, Control_c, 0, 67, 101
1, 1163806, Control_c, 0, 67, 97
1, 1163821, Control_c, 0, 67, 92
1, 1163836, Control_c, 0, 67, 89
1, 1163851, Control_c, 0, 67, 86
1, 1163865, Control_c, 0, 67, 83
1, 1163880, Control_c, 0, 67, 81
1, 1163895, Control_c, 0, 67, 80
1, 1163910, Control_c, 0, 67, 78
1, 1163924, Control_c, 0, 67, 78
1, 1163939, Control_c, 0, 67, 77
1, 1163984, Control_c, 0, 67, 77
1, 1164028, Control_c, 0, 67, 77
1, 1164043, Control_c, 0, 67, 78
1, 1164058, Control_c, 0, 67, 80
1, 1164080, Control_c, 0, 64, 88
1, 1164080, Control_c, 0, 67, 82
1, 1164095, Control_c, 0, 64, 65
1, 1164095, Control_c, 0, 67, 84
1, 1164110, Control_c, 0, 64, 0
1, 1164110, Control_c, 0, 67, 85
1, 1164124, Control_c, 0, 67, 86
1, 1164139, Control_c, 0, 67, 87
1, 1164154, Control_c, 0, 67, 88
1, 1164169, Control_c, 0, 67, 88
1, 1164184, Control_c, 0, 67, 89
1, 1164199, Control_c, 0, 67, 90
1, 1164214, Control_c, 0, 67, 90
1, 1164229, Control_c, 0, 67, 92
1, 1164244, Control_c, 0, 67, 93
1, 1164259, Control_c, 0, 67, 94
1, 1164274, Control_c, 0, 64, 21
1, 1164274, Control_c, 0, 67, 94
1, 1164288, Control_c, 0, 64, 23
1, 1164288, Control_c, 0, 67, 95
1, 1164303, Control_c, 0, 67, 96
1, 1164318, Control_c, 0, 67, 96
1, 1164362, Control_c, 0, 64, 19
1, 1164377, Control_c, 0, 64, 0
1, 1164377, Control_c, 0, 67, 96
1, 1164407, Control_c, 0, 67, 94
1, 1164420, Note_on_c, 0, 92, 69
1, 1164421, Note_on_c, 0, 80, 51
1, 1164421, Control_c, 0, 67, 93
1, 1164423, Note_on_c, 0, 83, 53
1, 1164430, Note_on_c, 0, 86, 53
1, 1164434, Note_on_c, 0, 24, 34
1, 1164435, Note_on_c, 0, 89, 55
1, 1164436, Control_c, 0, 64, 17
1, 1164436, Control_c, 0, 67, 92
1, 1164437, Note_on_c, 0, 36, 28
1, 1164451, Control_c, 0, 64, 50
1, 1164451, Control_c, 0, 67, 90
1, 1164466, Control_c, 0, 64, 64
1, 1164466, Control_c, 0, 67, 89
1, 1164481, Control_c, 0, 64, 73
1, 1164481, Control_c, 0, 67, 87
1, 1164495, Control_c, 0, 64, 86
1, 1164495, Control_c, 0, 67, 86
1, 1164510, Control_c, 0, 64, 112
1, 1164510, Control_c, 0, 67, 84
1, 1164525, Control_c, 0, 64, 127
1, 1164525, Control_c, 0, 67, 82
1, 1164539, Control_c, 0, 67, 80
1, 1164554, Control_c, 0, 67, 78
1, 1164569, Control_c, 0, 67, 76
1, 1164584, Control_c, 0, 67, 73
1, 1164589, Note_off_c, 0, 89, 59
1, 1164599, Note_off_c, 0, 92, 61
1, 1164599, Control_c, 0, 67, 72
1, 1164605, Note_off_c, 0, 80, 62
1, 1164614, Control_c, 0, 67, 70
1, 1164623, Note_off_c, 0, 36, 40
1, 1164629, Control_c, 0, 67, 70
1, 1164629, Note_off_c, 0, 24, 40
1, 1164641, Note_off_c, 0, 86, 36
1, 1164644, Control_c, 0, 67, 69
1, 1164652, Note_off_c, 0, 83, 37
1, 1164703, Control_c, 0, 67, 70
1, 1164718, Control_c, 0, 67, 71
1, 1164732, Control_c, 0, 67, 72
1, 1164747, Control_c, 0, 64, 110
1, 1164747, Control_c, 0, 67, 72
1, 1164762, Control_c, 0, 64, 79
1, 1164762, Control_c, 0, 67, 73
1, 1164768, Note_on_c, 0, 36, 63
1, 1164768, Note_on_c, 0, 91, 82
1, 1164769, Note_on_c, 0, 83, 66
1, 1164773, Note_on_c, 0, 24, 60
1, 1164777, Control_c, 0, 64, 47
1, 1164778, Note_on_c, 0, 79, 61
1, 1164778, Note_on_c, 0, 86, 64
1, 1164792, Control_c, 0, 64, 0
1, 1164794, Note_off_c, 0, 36, 58
1, 1164798, Note_off_c, 0, 79, 65
1, 1164803, Note_off_c, 0, 83, 59
1, 1164807, Control_c, 0, 67, 72
1, 1164809, Note_off_c, 0, 91, 59
1, 1164818, Note_off_c, 0, 86, 60
1, 1164819, Note_off_c, 0, 24, 51
1, 1164828, Control_c, 0, 67, 71
1, 1164843, Control_c, 0, 67, 70
1, 1164858, Control_c, 0, 67, 68
1, 1164873, Control_c, 0, 64, 21
1, 1164873, Control_c, 0, 67, 65
1, 1164888, Control_c, 0, 64, 28
1, 1164888, Control_c, 0, 67, 57
1, 1164903, Control_c, 0, 64, 33
1, 1164903, Control_c, 0, 67, 48
1, 1164918, Control_c, 0, 64, 36
1, 1164918, Control_c, 0, 67, 39
1, 1164933, Note_on_c, 0, 36, 58
1, 1164933, Control_c, 0, 64, 37
1, 1164933, Control_c, 0, 67, 32
1, 1164937, Note_on_c, 0, 89, 81
1, 1164940, Note_on_c, 0, 24, 55
1, 1164945, Note_on_c, 0, 77, 68
1, 1164945, Note_on_c, 0, 86, 56
1, 1164946, Note_on_c, 0, 83, 60
1, 1164947, Control_c, 0, 64, 38
1, 1164947, Control_c, 0, 67, 25
1, 1164962, Note_off_c, 0, 36, 58
1, 1164962, Note_off_c, 0, 89, 63
1, 1164962, Control_c, 0, 64, 39
1, 1164962, Control_c, 0, 67, 18
1, 1164963, Note_off_c, 0, 77, 68
1, 1164963, Note_off_c, 0, 83, 66
1, 1164965, Note_off_c, 0, 86, 63
1, 1164977, Control_c, 0, 67, 11
1, 1164979, Note_off_c, 0, 24, 50
1, 1164992, Control_c, 0, 64, 40
1, 1164992, Control_c, 0, 67, 0
1, 1165007, Control_c, 0, 64, 42
1, 1165022, Control_c, 0, 64, 45
1, 1165037, Control_c, 0, 64, 48
1, 1165052, Control_c, 0, 64, 47
1, 1165067, Control_c, 0, 64, 19
1, 1165082, Control_c, 0, 64, 0
1, 1165109, Note_on_c, 0, 24, 65
1, 1165109, Note_on_c, 0, 88, 85
1, 1165111, Note_on_c, 0, 36, 58
1, 1165111, Note_on_c, 0, 84, 74
1, 1165115, Note_on_c, 0, 76, 74
1, 1165126, Note_off_c, 0, 88, 72
1, 1165131, Note_off_c, 0, 76, 66
1, 1165132, Note_off_c, 0, 84, 71
1, 1165141, Note_off_c, 0, 36, 54
1, 1165143, Note_off_c, 0, 24, 60
1, 1165274, Control_c, 0, 64, 26
1, 1165289, Control_c, 0, 64, 40
1, 1165304, Control_c, 0, 64, 47
1, 1165318, Control_c, 0, 64, 53
1, 1165333, Control_c, 0, 64, 56
1, 1165348, Control_c, 0, 64, 55
1, 1165357, Note_on_c, 0, 89, 76
1, 1165358, Note_on_c, 0, 36, 68
1, 1165358, Note_on_c, 0, 86, 67
1, 1165359, Note_on_c, 0, 24, 70
1, 1165359, Note_on_c, 0, 77, 65
1, 1165362, Control_c, 0, 64, 31
1, 1165374, Note_off_c, 0, 89, 67
1, 1165374, Note_off_c, 0, 86, 68
1, 1165377, Control_c, 0, 64, 0
1, 1165378, Note_off_c, 0, 77, 66
1, 1165384, Note_off_c, 0, 36, 59
1, 1165416, Note_on_c, 0, 91, 94
1, 1165422, Note_on_c, 0, 88, 83
1, 1165425, Note_on_c, 0, 36, 61
1, 1165430, Note_on_c, 0, 79, 68
1, 1165439, Note_off_c, 0, 91, 66
1, 1165441, Note_off_c, 0, 24, 64
1, 1165441, Note_off_c, 0, 88, 70
1, 1165447, Note_off_c, 0, 79, 66
1, 1165454, Note_off_c, 0, 36, 55
1, 1165496, Control_c, 0, 67, 10
1, 1165511, Control_c, 0, 67, 16
1, 1165526, Control_c, 0, 67, 23
1, 1165541, Control_c, 0, 67, 31
1, 1165556, Control_c, 0, 67, 42
1, 1165577, Control_c, 0, 67, 54
1, 1165592, Control_c, 0, 64, 23
1, 1165592, Control_c, 0, 67, 69
1, 1165607, Control_c, 0, 64, 28
1, 1165607, Control_c, 0, 67, 84
1, 1165622, Control_c, 0, 64, 31
1, 1165622, Control_c, 0, 67, 103
1, 1165637, Control_c, 0, 64, 34
1, 1165637, Control_c, 0, 67, 119
1, 1165651, Control_c, 0, 64, 36
1, 1165651, Control_c, 0, 67, 127
1, 1165666, Control_c, 0, 64, 36
1, 1165711, Control_c, 0, 64, 37
1, 1165741, Control_c, 0, 64, 38
1, 1165755, Control_c, 0, 64, 38
1, 1165770, Control_c, 0, 64, 40
1, 1165785, Control_c, 0, 64, 41
1, 1165800, Control_c, 0, 64, 42
1, 1165815, Control_c, 0, 64, 44
1, 1165830, Control_c, 0, 64, 44
1, 1165845, Control_c, 0, 64, 46
1, 1165860, Control_c, 0, 64, 47
1, 1165875, Control_c, 0, 64, 50
1, 1165890, Control_c, 0, 64, 52
1, 1165904, Control_c, 0, 64, 54
1, 1165919, Control_c, 0, 64, 56
1, 1165934, Control_c, 0, 64, 58
1, 1165949, Control_c, 0, 64, 59
1, 1165964, Control_c, 0, 64, 60
1, 1165979, Control_c, 0, 64, 61
1, 1165993, Control_c, 0, 64, 62
1, 1166008, Control_c, 0, 64, 63
1, 1166016, Note_on_c, 0, 76, 68
1, 1166023, Control_c, 0, 64, 63
1, 1166038, Control_c, 0, 64, 64
1, 1166053, Control_c, 0, 64, 64
1, 1166067, Control_c, 0, 64, 65
1, 1166082, Control_c, 0, 64, 65
1, 1166097, Control_c, 0, 64, 66
1, 1166112, Control_c, 0, 64, 67
1, 1166127, Control_c, 0, 64, 68
1, 1166141, Control_c, 0, 64, 70
1, 1166156, Control_c, 0, 64, 71
1, 1166171, Control_c, 0, 64, 73
1, 1166185, Control_c, 0, 64, 76
1, 1166200, Control_c, 0, 64, 79
1, 1166215, Control_c, 0, 64, 82
1, 1166230, Control_c, 0, 64, 86
1, 1166233, Note_on_c, 0, 67, 43
1, 1166241, Note_on_c, 0, 70, 41
1, 1166245, Control_c, 0, 64, 91
1, 1166253, Note_on_c, 0, 60, 34
1, 1166259, Control_c, 0, 64, 98
1, 1166274, Control_c, 0, 64, 106
1, 1166289, Control_c, 0, 64, 120
1, 1166311, Control_c, 0, 64, 127
1, 1166474, Control_c, 0, 67, 125
1, 1166489, Control_c, 0, 67, 123
1, 1166504, Control_c, 0, 67, 121
1, 1166519, Control_c, 0, 67, 119
1, 1166533, Control_c, 0, 67, 117
1, 1166548, Control_c, 0, 67, 117
1, 1166563, Control_c, 0, 67, 116
1, 1166578, Control_c, 0, 67, 115
1, 1166606, Note_off_c, 0, 70, 32
1, 1166611, Note_on_c, 0, 66, 49
1, 1166612, Note_on_c, 0, 78, 61
1, 1166653, Note_off_c, 0, 60, 62
1, 1166653, Control_c, 0, 67, 116
1, 1166683, Control_c, 0, 67, 116
1, 1166821, Note_on_c, 0, 79, 66
1, 1166830, Note_on_c, 0, 71, 57
1, 1166837, Note_on_c, 0, 64, 54
1, 1166840, Note_on_c, 0, 59, 50
1, 1166846, Control_c, 0, 67, 116
1, 1166861, Control_c, 0, 64, 101
1, 1166861, Control_c, 0, 67, 115
1, 1166866, Note_off_c, 0, 76, 33
1, 1166876, Control_c, 0, 64, 80
1, 1166882, Note_off_c, 0, 66, 61
1, 1166890, Control_c, 0, 64, 56
1, 1166890, Control_c, 0, 67, 115
1, 1166905, Control_c, 0, 64, 0
1, 1166905, Control_c, 0, 67, 114
1, 1166920, Control_c, 0, 67, 113
1, 1166934, Control_c, 0, 67, 111
1, 1166939, Note_off_c, 0, 78, 37
1, 1166948, Note_off_c, 0, 67, 39
1, 1166949, Control_c, 0, 67, 106
1, 1166964, Control_c, 0, 64, 53
1, 1166964, Control_c, 0, 67, 100
1, 1166979, Control_c, 0, 64, 65
1, 1166979, Control_c, 0, 67, 90
1, 1166994, Control_c, 0, 64, 72
1, 1166994, Control_c, 0, 67, 78
1, 1167008, Control_c, 0, 64, 80
1, 1167008, Control_c, 0, 67, 61
1, 1167023, Control_c, 0, 64, 90
1, 1167023, Control_c, 0, 67, 49
1, 1167038, Control_c, 0, 64, 103
1, 1167038, Control_c, 0, 67, 38
1, 1167061, Control_c, 0, 64, 127
1, 1167061, Control_c, 0, 67, 30
1, 1167076, Control_c, 0, 67, 21
1, 1167090, Control_c, 0, 67, 13
1, 1167105, Control_c, 0, 67, 0
1, 1167213, Note_off_c, 0, 71, 61
1, 1167217, Note_on_c, 0, 66, 71
1, 1167276, Note_off_c, 0, 79, 56
1, 1167280, Note_off_c, 0, 59, 62
1, 1167281, Note_off_c, 0, 64, 63
1, 1167438, Note_on_c, 0, 76, 80
1, 1167440, Note_on_c, 0, 72, 74
1, 1167446, Note_on_c, 0, 67, 61
1, 1167453, Note_on_c, 0, 58, 59
1, 1167462, Control_c, 0, 64, 114
1, 1167477, Control_c, 0, 64, 88
1, 1167492, Control_c, 0, 64, 73
1, 1167507, Control_c, 0, 64, 59
1, 1167521, Control_c, 0, 64, 0
1, 1167580, Control_c, 0, 64, 29
1, 1167595, Control_c, 0, 64, 38
1, 1167597, Note_off_c, 0, 66, 63
1, 1167610, Control_c, 0, 64, 44
1, 1167625, Control_c, 0, 64, 48
1, 1167639, Control_c, 0, 64, 51
1, 1167654, Control_c, 0, 64, 53
1, 1167669, Control_c, 0, 64, 55
1, 1167684, Control_c, 0, 64, 56
1, 1167699, Control_c, 0, 64, 58
1, 1167714, Control_c, 0, 64, 59
1, 1167729, Control_c, 0, 64, 60
1, 1167744, Control_c, 0, 64, 60
1, 1167758, Control_c, 0, 64, 61
1, 1167773, Control_c, 0, 64, 61
1, 1167803, Control_c, 0, 64, 62
1, 1167825, Control_c, 0, 64, 62
1, 1167854, Control_c, 0, 64, 63
1, 1167884, Control_c, 0, 64, 63
1, 1167943, Control_c, 0, 64, 64
1, 1167969, Note_on_c, 0, 77, 78
1, 1167982, Note_on_c, 0, 65, 60
1, 1168091, Control_c, 0, 64, 64
1, 1168184, Note_off_c, 0, 67, 38
1, 1168241, Control_c, 0, 64, 64
1, 1168285, Control_c, 0, 64, 63
1, 1168315, Control_c, 0, 64, 62
1, 1168320, Note_off_c, 0, 76, 29
1, 1168324, Note_on_c, 0, 79, 81
1, 1168330, Control_c, 0, 64, 62
1, 1168337, Note_on_c, 0, 64, 60
1, 1168344, Control_c, 0, 64, 61
1, 1168359, Control_c, 0, 64, 60
1, 1168374, Control_c, 0, 64, 59
1, 1168388, Control_c, 0, 64, 56
1, 1168403, Control_c, 0, 64, 53
1, 1168418, Control_c, 0, 64, 47
1, 1168425, Note_off_c, 0, 77, 62
1, 1168433, Control_c, 0, 64, 37
1, 1168448, Control_c, 0, 64, 0
1, 1168450, Note_off_c, 0, 65, 60
1, 1168662, Control_c, 0, 64, 19
1, 1168677, Control_c, 0, 64, 63
1, 1168692, Control_c, 0, 64, 71
1, 1168698, Note_off_c, 0, 72, 47
1, 1168707, Control_c, 0, 64, 81
1, 1168721, Control_c, 0, 64, 93
1, 1168736, Control_c, 0, 64, 108
1, 1168751, Control_c, 0, 64, 127
1, 1168767, Note_off_c, 0, 64, 61
1, 1168791, Note_off_c, 0, 58, 38
1, 1168869, Note_off_c, 0, 79, 49
1, 1168928, Note_on_c, 0, 72, 93
1, 1168957, Control_c, 0, 64, 101
1, 1168972, Control_c, 0, 64, 83
1, 1168988, Control_c, 0, 64, 68
1, 1169000, Note_on_c, 0, 56, 74
1, 1169003, Control_c, 0, 64, 48
1, 1169017, Control_c, 0, 64, 0
1, 1169028, Note_on_c, 0, 60, 60
1, 1169037, Note_on_c, 0, 65, 60
1, 1169091, Control_c, 0, 64, 59
1, 1169106, Control_c, 0, 64, 78
1, 1169113, Note_off_c, 0, 56, 65
1, 1169119, Note_off_c, 0, 72, 45
1, 1169121, Note_on_c, 0, 68, 94
1, 1169121, Note_on_c, 0, 84, 95
1, 1169121, Control_c, 0, 64, 127
1, 1169125, Note_on_c, 0, 77, 91
1, 1169136, Note_off_c, 0, 68, 73
1, 1169142, Note_off_c, 0, 60, 64
1, 1169142, Note_off_c, 0, 65, 64
1, 1169146, Note_off_c, 0, 77, 67
1, 1169170, Note_off_c, 0, 84, 67
1, 1169255, Control_c, 0, 64, 87
1, 1169265, Note_on_c, 0, 80, 25
1, 1169270, Control_c, 0, 64, 61
1, 1169284, Control_c, 0, 64, 0
1, 1169297, Note_off_c, 0, 80, 32
1, 1169350, Control_c, 0, 64, 58
1, 1169362, Note_on_c, 0, 82, 71
1, 1169365, Control_c, 0, 64, 64
1, 1169371, Note_on_c, 0, 79, 53
1, 1169380, Control_c, 0, 64, 64
1, 1169389, Note_off_c, 0, 82, 63
1, 1169393, Note_off_c, 0, 79, 60
1, 1169395, Control_c, 0, 64, 28
1, 1169410, Control_c, 0, 64, 0
1, 1169420, Note_on_c, 0, 80, 82
1, 1169431, Note_on_c, 0, 61, 98
1, 1169432, Note_on_c, 0, 77, 71
1, 1169434, Note_on_c, 0, 49, 94
1, 1169442, Note_off_c, 0, 80, 66
1, 1169455, Note_off_c, 0, 77, 70
1, 1169602, Note_on_c, 0, 68, 86
1, 1169604, Note_on_c, 0, 77, 84
1, 1169616, Note_off_c, 0, 61, 59
1, 1169617, Control_c, 0, 64, 43
1, 1169618, Note_off_c, 0, 49, 63
1, 1169621, Note_off_c, 0, 68, 68
1, 1169621, Note_off_c, 0, 77, 71
1, 1169632, Control_c, 0, 64, 47
1, 1169647, Control_c, 0, 64, 0
1, 1169691, Control_c, 0, 64, 21
1, 1169706, Control_c, 0, 64, 26
1, 1169721, Control_c, 0, 64, 30
1, 1169735, Control_c, 0, 64, 38
1, 1169750, Control_c, 0, 64, 49
1, 1169756, Note_on_c, 0, 60, 79
1, 1169757, Note_on_c, 0, 48, 83
1, 1169765, Control_c, 0, 64, 55
1, 1169768, Note_on_c, 0, 65, 75
1, 1169770, Note_on_c, 0, 68, 75
1, 1169780, Note_off_c, 0, 60, 71
1, 1169781, Control_c, 0, 64, 59
1, 1169784, Note_off_c, 0, 48, 68
1, 1169790, Note_off_c, 0, 65, 70
1, 1169792, Note_off_c, 0, 68, 68
1, 1169796, Control_c, 0, 64, 61
1, 1169811, Control_c, 0, 64, 62
1, 1169825, Control_c, 0, 64, 62
1, 1169840, Control_c, 0, 64, 63
1, 1169870, Control_c, 0, 64, 56
1, 1169885, Control_c, 0, 64, 0
1, 1169929, Note_on_c, 0, 56, 96
1, 1169932, Note_on_c, 0, 44, 88
1, 1169942, Note_on_c, 0, 65, 60
1, 1169944, Note_on_c, 0, 60, 74
1, 1169947, Note_off_c, 0, 56, 73
1, 1169958, Note_off_c, 0, 44, 66
1, 1169962, Note_off_c, 0, 65, 65
1, 1169991, Note_off_c, 0, 60, 58
1, 1170111, Note_on_c, 0, 55, 86
1, 1170112, Note_on_c, 0, 63, 92
1, 1170116, Note_on_c, 0, 51, 87
1, 1170116, Note_on_c, 0, 72, 90
1, 1170118, Note_on_c, 0, 60, 67
1, 1170129, Control_c, 0, 64, 75
1, 1170131, Note_off_c, 0, 55, 70
1, 1170133, Note_on_c, 0, 43, 50
1, 1170134, Note_off_c, 0, 43, 127
1, 1170135, Note_off_c, 0, 63, 67
1, 1170136, Note_off_c, 0, 51, 69
1, 1170137, Note_off_c, 0, 60, 65
1, 1170144, Control_c, 0, 64, 104
1, 1170149, Note_off_c, 0, 72, 66
1, 1170158, Control_c, 0, 64, 127
1, 1170235, Poly_aftertouch_c, 0, 51, 127
1, 1170239, Note_on_c, 0, 51, 8
1, 1170248, Control_c, 0, 64, 96
1, 1170263, Control_c, 0, 64, 75
1, 1170274, Note_off_c, 0, 51, 52
1, 1170277, Control_c, 0, 64, 58
1, 1170292, Control_c, 0, 64, 30
1, 1170307, Control_c, 0, 64, 47
1, 1170322, Control_c, 0, 64, 65
1, 1170337, Control_c, 0, 64, 70
1, 1170352, Control_c, 0, 64, 74
1, 1170366, Control_c, 0, 64, 77
1, 1170375, Note_on_c, 0, 68, 76
1, 1170381, Control_c, 0, 64, 78
1, 1170384, Note_on_c, 0, 65, 42
1, 1170396, Note_off_c, 0, 68, 70
1, 1170411, Control_c, 0, 64, 73
1, 1170412, Note_off_c, 0, 65, 54
1, 1170426, Control_c, 0, 64, 50
1, 1170435, Note_on_c, 0, 63, 34
1, 1170438, Note_on_c, 0, 85, 100
1, 1170438, Note_on_c, 0, 75, 96
1, 1170440, Note_on_c, 0, 73, 97
1, 1170440, Control_c, 0, 64, 0
1, 1170447, Note_on_c, 0, 67, 84
1, 1170466, Note_off_c, 0, 67, 71
1, 1170475, Note_off_c, 0, 63, 64
1, 1170608, Note_on_c, 0, 55, 87
1, 1170613, Note_on_c, 0, 63, 83
1, 1170629, Note_off_c, 0, 55, 71
1, 1170632, Note_off_c, 0, 63, 70
1, 1170662, Note_off_c, 0, 73, 63
1, 1170664, Note_off_c, 0, 75, 59
1, 1170664, Note_off_c, 0, 85, 61
1, 1170707, Control_c, 0, 64, 19
1, 1170722, Control_c, 0, 64, 28
1, 1170737, Control_c, 0, 64, 29
1, 1170767, Control_c, 0, 64, 33
1, 1170772, Note_on_c, 0, 55, 82
1, 1170776, Note_on_c, 0, 51, 74
1, 1170778, Note_on_c, 0, 75, 85
1, 1170778, Note_on_c, 0, 84, 76
1, 1170781, Control_c, 0, 64, 39
1, 1170787, Note_on_c, 0, 83, 69
1, 1170793, Note_off_c, 0, 55, 70
1, 1170794, Note_off_c, 0, 75, 72
1, 1170804, Control_c, 0, 64, 47
1, 1170805, Note_on_c, 0, 71, 50
1, 1170806, Note_off_c, 0, 84, 67
1, 1170811, Note_off_c, 0, 83, 67
1, 1170817, Note_off_c, 0, 51, 67
1, 1170819, Control_c, 0, 64, 53
1, 1170831, Note_off_c, 0, 71, 38
1, 1170834, Control_c, 0, 64, 59
1, 1170849, Control_c, 0, 64, 62
1, 1170863, Control_c, 0, 64, 64
1, 1170878, Control_c, 0, 64, 66
1, 1170893, Control_c, 0, 64, 67
1, 1170907, Control_c, 0, 64, 67
1, 1170922, Control_c, 0, 64, 63
1, 1170937, Control_c, 0, 64, 0
1, 1170939, Note_on_c, 0, 79, 90
1, 1170940, Note_on_c, 0, 67, 87
1, 1170942, Note_on_c, 0, 51, 87
1, 1170942, Note_on_c, 0, 75, 81
1, 1170943, Note_on_c, 0, 48, 82
1, 1170955, Note_off_c, 0, 79, 75
1, 1170958, Note_off_c, 0, 67, 71
1, 1170961, Note_off_c, 0, 75, 70
1, 1170966, Note_off_c, 0, 48, 67
1, 1170968, Note_off_c, 0, 51, 69
1, 1171115, Control_c, 0, 64, 53
1, 1171121, Note_on_c, 0, 55, 89
1, 1171126, Note_on_c, 0, 60, 88
1, 1171127, Note_on_c, 0, 43, 84
1, 1171127, Note_on_c, 0, 62, 81
1, 1171130, Control_c, 0, 64, 87
1, 1171141, Note_off_c, 0, 55, 72
1, 1171145, Control_c, 0, 64, 127
1, 1171154, Note_off_c, 0, 43, 63
1, 1171219, Control_c, 0, 64, 110
1, 1171234, Control_c, 0, 64, 76
1, 1171249, Control_c, 0, 64, 0
1, 1171469, Note_on_c, 0, 68, 92
1, 1171475, Note_on_c, 0, 56, 83
1, 1171686, Control_c, 0, 64, 40
1, 1171701, Control_c, 0, 64, 76
1, 1171713, Note_off_c, 0, 68, 65
1, 1171716, Control_c, 0, 64, 86
1, 1171720, Note_off_c, 0, 56, 62
1, 1171730, Control_c, 0, 64, 100
1, 1171745, Control_c, 0, 64, 116
1, 1171760, Control_c, 0, 64, 127
1, 1171884, Note_off_c, 0, 60, 59
1, 1171896, Note_off_c, 0, 62, 60
1, 1171968, Control_c, 0, 64, 111
1, 1171983, Control_c, 0, 64, 91
1, 1171997, Control_c, 0, 64, 77
1, 1172012, Control_c, 0, 64, 63
1, 1172027, Control_c, 0, 64, 0
1, 1172160, Control_c, 0, 64, 60
1, 1172164, Note_on_c, 0, 43, 69
1, 1172169, Note_on_c, 0, 59, 59
1, 1172169, Note_on_c, 0, 62, 59
1, 1172176, Control_c, 0, 64, 72
1, 1172191, Note_off_c, 0, 43, 66
1, 1172191, Control_c, 0, 64, 88
1, 1172206, Control_c, 0, 64, 127
1, 1172280, Control_c, 0, 64, 123
1, 1172295, Control_c, 0, 64, 85
1, 1172316, Control_c, 0, 64, 59
1, 1172331, Control_c, 0, 64, 0
1, 1172565, Note_on_c, 0, 68, 65
1, 1172571, Note_on_c, 0, 56, 59
1, 1172743, Note_off_c, 0, 68, 63
1, 1172790, Control_c, 0, 64, 64
1, 1172792, Note_off_c, 0, 56, 65
1, 1172805, Control_c, 0, 64, 79
1, 1172820, Control_c, 0, 64, 107
1, 1172835, Control_c, 0, 64, 127
1, 1172850, Note_off_c, 0, 59, 61
1, 1172872, Note_off_c, 0, 62, 61
1, 1173088, Note_on_c, 0, 43, 88
1, 1173091, Note_on_c, 0, 67, 84
1, 1173214, Control_c, 0, 64, 88
1, 1173229, Control_c, 0, 64, 48
1, 1173243, Control_c, 0, 64, 0
1, 1173256, Note_on_c, 0, 72, 85
1, 1173258, Note_off_c, 0, 67, 58
1, 1173260, Note_on_c, 0, 64, 76
1, 1173262, Note_on_c, 0, 60, 81
1, 1173266, Note_on_c, 0, 48, 98
1, 1173269, Note_on_c, 0, 36, 87
1, 1173273, Control_c, 0, 64, 64
1, 1173288, Control_c, 0, 64, 90
1, 1173290, Note_off_c, 0, 48, 68
1, 1173293, Note_off_c, 0, 43, 65
1, 1173294, Note_off_c, 0, 36, 67
1, 1173297, Note_off_c, 0, 60, 64
1, 1173302, Control_c, 0, 64, 127
1, 1173309, Note_off_c, 0, 64, 67
1, 1173318, Note_off_c, 0, 72, 67
1, 1173391, Control_c, 0, 64, 79
1, 1173406, Control_c, 0, 64, 24
1, 1173421, Control_c, 0, 64, 0
1, 1173465, Control_c, 0, 64, 59
1, 1173480, Control_c, 0, 64, 63
1, 1173568, Control_c, 0, 64, 64
1, 1173583, Control_c, 0, 64, 63
1, 1173598, Control_c, 0, 64, 44
1, 1173607, Note_on_c, 0, 73, 93
1, 1173613, Note_on_c, 0, 61, 88
1, 1173613, Control_c, 0, 64, 0
1, 1173614, Note_on_c, 0, 70, 85
1, 1173619, Note_on_c, 0, 58, 78
1, 1173792, Control_c, 0, 64, 68
1, 1173814, Control_c, 0, 64, 85
1, 1173823, Note_off_c, 0, 58, 55
1, 1173825, Note_off_c, 0, 61, 58
1, 1173829, Control_c, 0, 64, 107
1, 1173844, Control_c, 0, 64, 127
1, 1173891, Note_off_c, 0, 70, 61
1, 1173901, Note_off_c, 0, 73, 58
1, 1173947, Control_c, 0, 64, 118
1, 1173962, Control_c, 0, 64, 81
1, 1173965, Note_on_c, 0, 72, 83
1, 1173969, Note_on_c, 0, 56, 78
1, 1173969, Note_on_c, 0, 68, 78
1, 1173971, Note_on_c, 0, 60, 76
1, 1173977, Control_c, 0, 64, 50
1, 1173992, Control_c, 0, 64, 0
1, 1173993, Note_off_c, 0, 68, 65
1, 1173997, Note_off_c, 0, 60, 68
1, 1174005, Note_off_c, 0, 56, 60
1, 1174008, Note_off_c, 0, 72, 64
1, 1174129, Note_on_c, 0, 58, 76
1, 1174132, Note_on_c, 0, 70, 80
1, 1174134, Note_on_c, 0, 55, 71
1, 1174137, Note_on_c, 0, 67, 73
1, 1174159, Note_off_c, 0, 70, 62
1, 1174161, Note_off_c, 0, 67, 68
1, 1174164, Note_off_c, 0, 55, 66
1, 1174168, Note_off_c, 0, 58, 55
1, 1174200, Control_c, 0, 64, 31
1, 1174215, Control_c, 0, 64, 32
1, 1174230, Control_c, 0, 64, 0
1, 1174295, Note_on_c, 0, 53, 81
1, 1174296, Note_on_c, 0, 56, 82
1, 1174298, Note_on_c, 0, 65, 80
1, 1174299, Note_on_c, 0, 68, 92
1, 1174317, Note_off_c, 0, 68, 72
1, 1174318, Note_off_c, 0, 65, 71
1, 1174320, Note_off_c, 0, 53, 71
1, 1174320, Note_off_c, 0, 56, 70
1, 1174378, Control_c, 0, 64, 26
1, 1174393, Control_c, 0, 64, 32
1, 1174407, Control_c, 0, 64, 38
1, 1174422, Control_c, 0, 64, 41
1, 1174437, Control_c, 0, 64, 43
1, 1174451, Control_c, 0, 64, 46
1, 1174466, Control_c, 0, 64, 49
1, 1174481, Control_c, 0, 64, 52
1, 1174496, Control_c, 0, 64, 54
1, 1174511, Control_c, 0, 64, 56
1, 1174525, Control_c, 0, 64, 56
1, 1174528, Note_on_c, 0, 55, 73
1, 1174539, Note_on_c, 0, 70, 73
1, 1174540, Control_c, 0, 64, 56
1, 1174549, Note_on_c, 0, 58, 61
1, 1174556, Note_on_c, 0, 67, 61
1, 1174563, Control_c, 0, 64, 55
1, 1174570, Note_off_c, 0, 70, 70
1, 1174573, Note_off_c, 0, 55, 62
1, 1174577, Note_off_c, 0, 58, 66
1, 1174577, Note_off_c, 0, 67, 63
1, 1174579, Control_c, 0, 64, 55
1, 1174600, Note_on_c, 0, 68, 93
1, 1174604, Note_on_c, 0, 72, 87
1, 1174609, Control_c, 0, 64, 55
1, 1174611, Note_on_c, 0, 60, 78
1, 1174612, Note_on_c, 0, 56, 79
1, 1174624, Control_c, 0, 64, 56
1, 1174625, Note_off_c, 0, 68, 64
1, 1174633, Note_off_c, 0, 60, 71
1, 1174633, Note_off_c, 0, 72, 67
1, 1174634, Note_off_c, 0, 56, 69
1, 1174638, Control_c, 0, 64, 56
1, 1174653, Control_c, 0, 64, 56
1, 1174668, Control_c, 0, 64, 51
1, 1174683, Control_c, 0, 64, 0
1, 1174874, Control_c, 0, 64, 40
1, 1174889, Control_c, 0, 64, 82
1, 1174904, Control_c, 0, 64, 121
1, 1174919, Control_c, 0, 64, 127
1, 1175133, Note_on_c, 0, 48, 89
1, 1175179, Note_off_c, 0, 48, 65
1, 1175315, Note_on_c, 0, 51, 101
1, 1175316, Note_on_c, 0, 44, 100
1, 1175318, Note_on_c, 0, 56, 84
1, 1175320, Note_on_c, 0, 60, 84
1, 1175322, Note_on_c, 0, 32, 94
1, 1175326, Control_c, 0, 64, 102
1, 1175341, Control_c, 0, 64, 71
1, 1175344, Note_off_c, 0, 44, 67
1, 1175348, Note_off_c, 0, 32, 68
1, 1175355, Control_c, 0, 64, 0
1, 1175360, Note_off_c, 0, 51, 65
1, 1175387, Note_off_c, 0, 60, 63
1, 1175391, Note_off_c, 0, 56, 62
1, 1175651, Note_on_c, 0, 61, 90
1, 1175658, Note_on_c, 0, 56, 82
1, 1175659, Note_on_c, 0, 53, 86
1, 1175664, Note_on_c, 0, 37, 98
1, 1175667, Note_on_c, 0, 25, 94
1, 1175697, Control_c, 0, 64, 62
1, 1175712, Control_c, 0, 64, 102
1, 1175727, Control_c, 0, 64, 127
1, 1175781, Note_off_c, 0, 37, 66
1, 1175785, Note_off_c, 0, 25, 61
1, 1175796, Note_off_c, 0, 53, 63
1, 1175799, Note_off_c, 0, 61, 64
1, 1175806, Note_off_c, 0, 56, 62
1, 1176016, Note_on_c, 0, 55, 65
1, 1176017, Note_on_c, 0, 60, 85
1, 1176019, Note_on_c, 0, 39, 92
1, 1176019, Note_on_c, 0, 27, 91
1, 1176022, Note_on_c, 0, 49, 87
1, 1176023, Control_c, 0, 64, 82
1, 1176038, Control_c, 0, 64, 42
1, 1176060, Control_c, 0, 64, 0
1, 1176081, Note_off_c, 0, 39, 61
1, 1176091, Note_off_c, 0, 27, 62
1, 1176100, Note_off_c, 0, 49, 61
1, 1176105, Note_off_c, 0, 60, 63
1, 1176128, Note_off_c, 0, 55, 63
1, 1176149, Control_c, 0, 64, 17
1, 1176164, Control_c, 0, 64, 19
1, 1176180, Control_c, 0, 64, 23
1, 1176186, Note_on_c, 0, 49, 82
1, 1176189, Note_on_c, 0, 58, 81
1, 1176189, Note_on_c, 0, 39, 88
1, 1176192, Note_on_c, 0, 27, 90
1, 1176194, Control_c, 0, 64, 30
1, 1176196, Note_on_c, 0, 55, 50
1, 1176209, Control_c, 0, 64, 38
1, 1176218, Note_off_c, 0, 27, 69
1, 1176224, Control_c, 0, 64, 45
1, 1176227, Note_off_c, 0, 39, 60
1, 1176238, Note_off_c, 0, 55, 63
1, 1176239, Control_c, 0, 64, 50
1, 1176240, Note_off_c, 0, 49, 64
1, 1176254, Control_c, 0, 64, 54
1, 1176262, Note_off_c, 0, 58, 61
1, 1176268, Control_c, 0, 64, 56
1, 1176283, Control_c, 0, 64, 56
1, 1176298, Control_c, 0, 64, 49
1, 1176313, Control_c, 0, 64, 0
1, 1176356, Note_on_c, 0, 48, 78
1, 1176356, Note_on_c, 0, 56, 88
1, 1176360, Note_on_c, 0, 44, 92
1, 1176362, Note_on_c, 0, 32, 90
1, 1176379, Note_off_c, 0, 48, 67
1, 1176384, Note_off_c, 0, 44, 70
1, 1176388, Note_off_c, 0, 32, 66
1, 1176390, Note_off_c, 0, 56, 65
1, 1176564, Control_c, 0, 64, 14
1, 1176579, Control_c, 0, 64, 23
1, 1176594, Control_c, 0, 64, 32
1, 1176608, Note_on_c, 0, 32, 74
1, 1176609, Control_c, 0, 64, 38
1, 1176612, Note_on_c, 0, 58, 81
1, 1176616, Note_on_c, 0, 51, 70
1, 1176624, Control_c, 0, 64, 46
1, 1176633, Note_off_c, 0, 58, 70
1, 1176639, Control_c, 0, 64, 52
1, 1176643, Note_off_c, 0, 51, 66
1, 1176653, Control_c, 0, 64, 51
1, 1176664, Note_off_c, 0, 32, 62
1, 1176668, Control_c, 0, 64, 0
1, 1176669, Note_on_c, 0, 56, 90
1, 1176670, Note_on_c, 0, 44, 91
1, 1176670, Note_on_c, 0, 60, 83
1, 1176694, Note_off_c, 0, 44, 70
1, 1176698, Note_off_c, 0, 56, 65
1, 1176713, Note_off_c, 0, 60, 68
1, 1176898, Control_c, 0, 64, 17
1, 1176913, Control_c, 0, 64, 30
1, 1176927, Control_c, 0, 64, 34
1, 1176942, Control_c, 0, 64, 36
1, 1176957, Control_c, 0, 64, 37
1, 1176973, Control_c, 0, 64, 40
1, 1176987, Control_c, 0, 64, 44
1, 1177002, Control_c, 0, 64, 47
1, 1177017, Control_c, 0, 64, 50
1, 1177032, Control_c, 0, 64, 53
1, 1177047, Control_c, 0, 64, 55
1, 1177062, Control_c, 0, 64, 56
1, 1177092, Control_c, 0, 64, 55
1, 1177106, Control_c, 0, 64, 51
1, 1177122, Control_c, 0, 64, 45
1, 1177137, Control_c, 0, 64, 34
1, 1177151, Control_c, 0, 64, 19
1, 1177166, Control_c, 0, 64, 0
1, 1177249, Note_on_c, 0, 56, 70
1, 1177314, Control_c, 0, 64, 11
1, 1177329, Control_c, 0, 64, 17
1, 1177343, Control_c, 0, 64, 21
1, 1177358, Control_c, 0, 64, 26
1, 1177373, Control_c, 0, 64, 28
1, 1177388, Control_c, 0, 64, 29
1, 1177423, Note_on_c, 0, 63, 65
1, 1177425, Note_on_c, 0, 66, 69
1, 1177427, Note_on_c, 0, 44, 64
1, 1177450, Note_off_c, 0, 66, 67
1, 1177450, Note_off_c, 0, 63, 66
1, 1177476, Control_c, 0, 64, 28
1, 1177491, Control_c, 0, 64, 29
1, 1177521, Control_c, 0, 64, 31
1, 1177536, Control_c, 0, 64, 33
1, 1177588, Control_c, 0, 64, 28
1, 1177603, Control_c, 0, 64, 0
1, 1177766, Control_c, 0, 64, 63
1, 1177771, Note_on_c, 0, 68, 78
1, 1177773, Note_on_c, 0, 65, 67
1, 1177781, Control_c, 0, 64, 73
1, 1177796, Control_c, 0, 64, 84
1, 1177811, Control_c, 0, 64, 103
1, 1177822, Note_off_c, 0, 44, 64
1, 1177826, Control_c, 0, 64, 127
1, 1177845, Note_off_c, 0, 56, 61
1, 1177942, Note_on_c, 0, 45, 73
1, 1177945, Note_on_c, 0, 57, 69
1, 1178019, Control_c, 0, 64, 109
1, 1178034, Control_c, 0, 64, 83
1, 1178048, Control_c, 0, 64, 65
1, 1178063, Control_c, 0, 64, 0
1, 1178088, Note_off_c, 0, 65, 62
1, 1178092, Note_on_c, 0, 66, 70
1, 1178103, Note_on_c, 0, 63, 69
1, 1178103, Note_off_c, 0, 68, 60
1, 1178120, Note_off_c, 0, 66, 66
1, 1178129, Note_off_c, 0, 63, 67
1, 1178226, Note_off_c, 0, 57, 63
1, 1178259, Note_on_c, 0, 63, 70
1, 1178265, Note_on_c, 0, 60, 56
1, 1178284, Note_off_c, 0, 63, 67
1, 1178293, Note_off_c, 0, 60, 64
1, 1178419, Note_off_c, 0, 45, 54
1, 1178429, Note_on_c, 0, 46, 61
1, 1178430, Note_on_c, 0, 62, 75
1, 1178433, Note_on_c, 0, 58, 65
1, 1178453, Note_off_c, 0, 62, 68
1, 1178544, Control_c, 0, 64, 14
1, 1178559, Control_c, 0, 64, 30
1, 1178575, Control_c, 0, 64, 39
1, 1178590, Control_c, 0, 64, 47
1, 1178604, Control_c, 0, 64, 51
1, 1178619, Control_c, 0, 64, 53
1, 1178649, Control_c, 0, 64, 43
1, 1178664, Control_c, 0, 64, 0
1, 1178672, Note_on_c, 0, 63, 69
1, 1178689, Note_on_c, 0, 60, 36
1, 1178700, Note_off_c, 0, 63, 66
1, 1178722, Note_off_c, 0, 60, 57
1, 1178725, Note_on_c, 0, 62, 80
1, 1178726, Note_on_c, 0, 65, 80
1, 1178744, Note_off_c, 0, 58, 54
1, 1178747, Note_off_c, 0, 62, 69
1, 1178749, Note_off_c, 0, 65, 71
1, 1178890, Note_off_c, 0, 46, 57
1, 1178901, Note_on_c, 0, 47, 71
1, 1178910, Note_on_c, 0, 59, 75
1, 1179019, Control_c, 0, 64, 47
1, 1179034, Control_c, 0, 64, 63
1, 1179056, Control_c, 0, 64, 71
1, 1179071, Control_c, 0, 64, 85
1, 1179086, Control_c, 0, 64, 109
1, 1179101, Control_c, 0, 64, 127
1, 1179179, Note_off_c, 0, 59, 60
1, 1179181, Note_off_c, 0, 47, 62
1, 1179254, Note_on_c, 0, 56, 88
1, 1179420, Note_off_c, 0, 56, 63
1, 1179423, Note_on_c, 0, 68, 73
1, 1179423, Note_on_c, 0, 65, 67
1, 1179426, Control_c, 0, 64, 101
1, 1179432, Note_on_c, 0, 48, 68
1, 1179432, Note_on_c, 0, 60, 66
1, 1179441, Control_c, 0, 64, 73
1, 1179449, Note_off_c, 0, 65, 69
1, 1179453, Note_off_c, 0, 68, 63
1, 1179456, Control_c, 0, 64, 29
1, 1179471, Control_c, 0, 64, 0
1, 1179723, Control_c, 0, 64, 49
1, 1179737, Control_c, 0, 64, 64
1, 1179752, Control_c, 0, 64, 71
1, 1179755, Note_on_c, 0, 70, 83
1, 1179760, Note_on_c, 0, 67, 76
1, 1179767, Control_c, 0, 64, 79
1, 1179778, Note_off_c, 0, 60, 65
1, 1179782, Control_c, 0, 64, 93
1, 1179804, Control_c, 0, 64, 117
1, 1179819, Control_c, 0, 64, 127
1, 1179933, Note_on_c, 0, 49, 81
1, 1179934, Note_on_c, 0, 61, 90
1, 1179944, Note_off_c, 0, 48, 59
1, 1179959, Note_off_c, 0, 67, 59
1, 1179965, Note_off_c, 0, 70, 62
1, 1180070, Control_c, 0, 64, 94
1, 1180082, Note_on_c, 0, 69, 87
1, 1180083, Note_on_c, 0, 66, 87
1, 1180085, Control_c, 0, 64, 72
1, 1180100, Control_c, 0, 64, 0
1, 1180119, Note_off_c, 0, 66, 58
1, 1180121, Note_off_c, 0, 69, 64
1, 1180176, Control_c, 0, 64, 29
1, 1180191, Control_c, 0, 64, 47
1, 1180206, Control_c, 0, 64, 49
1, 1180234, Note_on_c, 0, 67, 93
1, 1180237, Note_on_c, 0, 64, 82
1, 1180258, Note_off_c, 0, 64, 72
1, 1180275, Note_off_c, 0, 67, 60
1, 1180279, Note_off_c, 0, 61, 61
1, 1180280, Control_c, 0, 64, 50
1, 1180288, Note_off_c, 0, 49, 63
1, 1180294, Control_c, 0, 64, 53
1, 1180309, Control_c, 0, 64, 55
1, 1180339, Control_c, 0, 64, 52
1, 1180354, Control_c, 0, 64, 42
1, 1180368, Control_c, 0, 64, 28
1, 1180383, Control_c, 0, 64, 23
1, 1180404, Note_on_c, 0, 62, 85
1, 1180406, Note_on_c, 0, 66, 73
1, 1180407, Note_off_c, 0, 66, 127
1, 1180412, Note_on_c, 0, 50, 83
1, 1180413, Control_c, 0, 64, 26
1, 1180428, Control_c, 0, 64, 35
1, 1180430, Note_on_c, 0, 65, 51
1, 1180431, Note_off_c, 0, 65, 127
1, 1180442, Control_c, 0, 64, 43
1, 1180457, Control_c, 0, 64, 49
1, 1180472, Control_c, 0, 64, 50
1, 1180487, Control_c, 0, 64, 50
1, 1180502, Control_c, 0, 64, 51
1, 1180517, Control_c, 0, 64, 52
1, 1180532, Control_c, 0, 64, 53
1, 1180554, Control_c, 0, 64, 55
1, 1180568, Control_c, 0, 64, 57
1, 1180583, Control_c, 0, 64, 58
1, 1180598, Control_c, 0, 64, 59
1, 1180628, Control_c, 0, 64, 55
1, 1180640, Note_on_c, 0, 67, 76
1, 1180641, Note_on_c, 0, 64, 69
1, 1180642, Control_c, 0, 64, 0
1, 1180660, Note_off_c, 0, 67, 69
1, 1180667, Note_off_c, 0, 64, 69
1, 1180690, Note_off_c, 0, 62, 63
1, 1180695, Note_on_c, 0, 69, 85
1, 1180699, Note_on_c, 0, 66, 92
1, 1180721, Note_off_c, 0, 66, 66
1, 1180726, Note_off_c, 0, 69, 63
1, 1180892, Note_on_c, 0, 51, 77
1, 1180892, Note_on_c, 0, 63, 88
1, 1180906, Note_off_c, 0, 50, 62
1, 1180984, Control_c, 0, 64, 27
1, 1180999, Control_c, 0, 64, 59
1, 1181014, Control_c, 0, 64, 68
1, 1181029, Control_c, 0, 64, 80
1, 1181044, Control_c, 0, 64, 104
1, 1181058, Control_c, 0, 64, 127
1, 1181167, Note_off_c, 0, 63, 60
1, 1181175, Note_off_c, 0, 51, 64
1, 1181216, Poly_aftertouch_c, 0, 52, 0
1, 1181240, Note_on_c, 0, 60, 88
1, 1181382, Note_off_c, 0, 60, 62
1, 1181420, Note_on_c, 0, 72, 80
1, 1181421, Note_on_c, 0, 69, 77
1, 1181421, Control_c, 0, 64, 104
1, 1181423, Note_on_c, 0, 52, 82
1, 1181425, Note_on_c, 0, 64, 82
1, 1181436, Control_c, 0, 64, 73
1, 1181440, Note_off_c, 0, 69, 70
1, 1181450, Note_off_c, 0, 72, 66
1, 1181450, Control_c, 0, 64, 0
1, 1181539, Control_c, 0, 64, 21
1, 1181554, Control_c, 0, 64, 38
1, 1181569, Control_c, 0, 64, 45
1, 1181584, Control_c, 0, 64, 50
1, 1181599, Control_c, 0, 64, 54
1, 1181612, Control_c, 0, 64, 56
1, 1181641, Control_c, 0, 64, 36
1, 1181656, Control_c, 0, 64, 0
1, 1181658, Note_on_c, 0, 71, 72
1, 1181659, Note_on_c, 0, 74, 76
1, 1181679, Note_off_c, 0, 71, 71
1, 1181681, Note_off_c, 0, 74, 72
1, 1181712, Note_on_c, 0, 72, 89
1, 1181713, Note_on_c, 0, 76, 91
1, 1181730, Note_off_c, 0, 72, 71
1, 1181748, Note_off_c, 0, 76, 66
1, 1181763, Note_off_c, 0, 64, 63
1, 1181780, Note_off_c, 0, 52, 61
1, 1181924, Note_on_c, 0, 63, 92
1, 1181928, Note_on_c, 0, 51, 82
1, 1181930, Note_on_c, 0, 57, 73
1, 1181954, Control_c, 0, 64, 29
1, 1181969, Control_c, 0, 64, 47
1, 1181983, Control_c, 0, 64, 55
1, 1181998, Control_c, 0, 64, 59
1, 1182013, Control_c, 0, 64, 61
1, 1182028, Control_c, 0, 64, 62
1, 1182050, Control_c, 0, 64, 62
1, 1182064, Control_c, 0, 64, 63
1, 1182079, Control_c, 0, 64, 63
1, 1182109, Control_c, 0, 64, 64
1, 1182138, Control_c, 0, 64, 65
1, 1182153, Control_c, 0, 64, 66
1, 1182168, Control_c, 0, 64, 69
1, 1182183, Control_c, 0, 64, 74
1, 1182198, Control_c, 0, 64, 81
1, 1182208, Note_on_c, 0, 76, 88
1, 1182213, Control_c, 0, 64, 87
1, 1182228, Control_c, 0, 64, 92
1, 1182230, Note_off_c, 0, 76, 66
1, 1182240, Note_off_c, 0, 57, 61
1, 1182243, Control_c, 0, 64, 95
1, 1182246, Note_off_c, 0, 63, 63
1, 1182258, Control_c, 0, 64, 96
1, 1182264, Note_off_c, 0, 51, 62
1, 1182265, Note_on_c, 0, 72, 90
1, 1182265, Note_on_c, 0, 77, 98
1, 1182270, Note_on_c, 0, 69, 97
1, 1182272, Control_c, 0, 64, 97
1, 1182287, Control_c, 0, 64, 98
1, 1182302, Control_c, 0, 64, 98
1, 1182346, Control_c, 0, 64, 99
1, 1182391, Control_c, 0, 64, 99
1, 1182406, Control_c, 0, 64, 100
1, 1182420, Control_c, 0, 64, 102
1, 1182435, Control_c, 0, 64, 106
1, 1182450, Control_c, 0, 64, 109
1, 1182464, Control_c, 0, 64, 112
1, 1182479, Control_c, 0, 64, 113
1, 1182494, Control_c, 0, 64, 113
1, 1182509, Control_c, 0, 64, 101
1, 1182520, Note_on_c, 0, 62, 95
1, 1182521, Note_on_c, 0, 50, 87
1, 1182524, Control_c, 0, 64, 82
1, 1182526, Note_off_c, 0, 69, 58
1, 1182528, Note_on_c, 0, 58, 85
1, 1182529, Note_on_c, 0, 53, 80
1, 1182532, Note_off_c, 0, 77, 58
1, 1182533, Note_off_c, 0, 72, 62
1, 1182538, Control_c, 0, 64, 63
1, 1182553, Control_c, 0, 64, 0
1, 1182762, Note_on_c, 0, 77, 83
1, 1182784, Control_c, 0, 64, 61
1, 1182796, Note_off_c, 0, 77, 63
1, 1182799, Control_c, 0, 64, 74
1, 1182807, Note_off_c, 0, 62, 62
1, 1182809, Note_off_c, 0, 50, 62
1, 1182814, Control_c, 0, 64, 93
1, 1182825, Note_off_c, 0, 58, 63
1, 1182827, Note_off_c, 0, 53, 65
1, 1182829, Control_c, 0, 64, 127
1, 1182830, Note_on_c, 0, 79, 101
1, 1182834, Note_on_c, 0, 67, 94
1, 1182835, Note_on_c, 0, 70, 94
1, 1183054, Note_off_c, 0, 70, 55
1, 1183101, Note_on_c, 0, 61, 96
1, 1183102, Note_on_c, 0, 59, 81
1, 1183110, Note_off_c, 0, 67, 57
1, 1183110, Control_c, 0, 64, 85
1, 1183110, Note_on_c, 0, 49, 71
1, 1183113, Note_on_c, 0, 53, 67
1, 1183125, Control_c, 0, 64, 64
1, 1183137, Note_off_c, 0, 79, 54
1, 1183140, Control_c, 0, 64, 0
1, 1183146, Note_on_c, 0, 51, 43
1, 1183188, Note_off_c, 0, 51, 33
1, 1183258, Control_c, 0, 64, 24
1, 1183273, Control_c, 0, 64, 66
1, 1183286, Note_on_c, 0, 77, 72
1, 1183287, Control_c, 0, 64, 85
1, 1183294, Note_off_c, 0, 59, 59
1, 1183300, Note_off_c, 0, 61, 63
1, 1183302, Control_c, 0, 64, 127
1, 1183304, Note_off_c, 0, 77, 69
1, 1183306, Note_off_c, 0, 49, 56
1, 1183314, Note_off_c, 0, 53, 64
1, 1183339, Note_on_c, 0, 80, 74
1, 1183356, Note_on_c, 0, 68, 91
1, 1183373, Note_off_c, 0, 68, 73
1, 1183381, Note_on_c, 0, 72, 43
1, 1183392, Control_c, 0, 64, 92
1, 1183394, Note_off_c, 0, 80, 66
1, 1183406, Note_off_c, 0, 72, 60
1, 1183407, Control_c, 0, 64, 58
1, 1183422, Control_c, 0, 64, 0
1, 1183498, Note_on_c, 0, 48, 79
1, 1183533, Note_on_c, 0, 53, 61
1, 1183548, Note_on_c, 0, 56, 64
1, 1183601, Note_on_c, 0, 84, 101
1, 1183605, Note_on_c, 0, 60, 99
1, 1183605, Note_on_c, 0, 72, 100
1, 1183605, Note_on_c, 0, 80, 89
1, 1183614, Note_on_c, 0, 77, 86
1, 1183633, Note_off_c, 0, 72, 71
1, 1183635, Note_off_c, 0, 53, 66
1, 1183635, Note_off_c, 0, 60, 67
1, 1183636, Control_c, 0, 64, 88
1, 1183639, Note_off_c, 0, 48, 63
1, 1183643, Note_off_c, 0, 77, 59
1, 1183644, Note_off_c, 0, 56, 65
1, 1183651, Control_c, 0, 64, 127
1, 1183652, Note_off_c, 0, 84, 69
1, 1183659, Note_on_c, 0, 51, 19
1, 1183662, Note_off_c, 0, 80, 66
1, 1183705, Note_off_c, 0, 51, 55
1, 1183859, Control_c, 0, 64, 116
1, 1183874, Control_c, 0, 64, 84
1, 1183889, Control_c, 0, 64, 65
1, 1183903, Control_c, 0, 64, 0
1, 1183933, Control_c, 0, 64, 30
1, 1183948, Control_c, 0, 64, 58
1, 1183963, Control_c, 0, 64, 63
1, 1183978, Control_c, 0, 64, 64
1, 1183980, Note_on_c, 0, 85, 85
1, 1183990, Note_on_c, 0, 36, 91
1, 1183993, Control_c, 0, 64, 65
1, 1184008, Control_c, 0, 64, 66
1, 1184022, Control_c, 0, 64, 68
1, 1184037, Control_c, 0, 64, 70
1, 1184041, Note_off_c, 0, 85, 65
1, 1184052, Control_c, 0, 64, 73
1, 1184058, Note_on_c, 0, 92, 83
1, 1184067, Control_c, 0, 64, 76
1, 1184082, Control_c, 0, 64, 79
1, 1184097, Control_c, 0, 64, 81
1, 1184126, Control_c, 0, 64, 76
1, 1184133, Note_on_c, 0, 91, 87
1, 1184140, Note_on_c, 0, 48, 98
1, 1184141, Control_c, 0, 64, 64
1, 1184157, Control_c, 0, 64, 0
1, 1184174, Note_off_c, 0, 92, 60
1, 1184198, Note_off_c, 0, 91, 66
1, 1184213, Note_on_c, 0, 82, 72
1, 1184236, Note_off_c, 0, 82, 69
1, 1184294, Note_on_c, 0, 80, 88
1, 1184343, Note_off_c, 0, 80, 64
1, 1184364, Note_on_c, 0, 89, 78
1, 1184429, Note_on_c, 0, 87, 91
1, 1184448, Note_off_c, 0, 89, 62
1, 1184495, Note_off_c, 0, 87, 64
1, 1184508, Note_on_c, 0, 79, 69
1, 1184532, Note_off_c, 0, 79, 66
1, 1184570, Note_off_c, 0, 36, 63
1, 1184573, Note_on_c, 0, 77, 91
1, 1184575, Note_off_c, 0, 48, 63
1, 1184579, Control_c, 0, 64, 72
1, 1184594, Control_c, 0, 64, 81
1, 1184608, Control_c, 0, 64, 82
1, 1184619, Note_off_c, 0, 77, 66
1, 1184623, Control_c, 0, 64, 81
1, 1184639, Note_on_c, 0, 85, 81
1, 1184653, Control_c, 0, 64, 81
1, 1184667, Control_c, 0, 64, 79
1, 1184682, Control_c, 0, 64, 78
1, 1184697, Control_c, 0, 64, 76
1, 1184709, Note_on_c, 0, 84, 66
1, 1184712, Control_c, 0, 64, 75
1, 1184740, Note_off_c, 0, 85, 62
1, 1184762, Note_off_c, 0, 84, 66
1, 1184777, Note_on_c, 0, 75, 70
1, 1184807, Note_off_c, 0, 75, 57
1, 1184815, Control_c, 0, 64, 73
1, 1184830, Control_c, 0, 64, 66
1, 1184845, Control_c, 0, 64, 0
1, 1184848, Note_on_c, 0, 52, 55
1, 1184851, Note_on_c, 0, 73, 77
1, 1184865, Note_on_c, 0, 55, 61
1, 1184875, Note_off_c, 0, 52, 60
1, 1184881, Note_off_c, 0, 73, 62
1, 1184910, Note_on_c, 0, 82, 78
1, 1184994, Note_on_c, 0, 80, 79
1, 1185003, Note_on_c, 0, 56, 73
1, 1185003, Note_off_c, 0, 55, 63
1, 1185011, Note_on_c, 0, 53, 61
1, 1185024, Note_off_c, 0, 82, 58
1, 1185069, Note_on_c, 0, 72, 70
1, 1185073, Note_off_c, 0, 80, 60
1, 1185124, Note_off_c, 0, 72, 56
1, 1185133, Note_off_c, 0, 56, 56
1, 1185136, Note_on_c, 0, 55, 73
1, 1185144, Note_on_c, 0, 58, 87
1, 1185147, Note_on_c, 0, 70, 82
1, 1185150, Control_c, 0, 64, 51
1, 1185164, Control_c, 0, 64, 68
1, 1185177, Note_off_c, 0, 53, 62
1, 1185179, Control_c, 0, 64, 78
1, 1185193, Note_off_c, 0, 70, 62
1, 1185194, Control_c, 0, 64, 93
1, 1185208, Note_on_c, 0, 79, 75
1, 1185209, Control_c, 0, 64, 127
1, 1185272, Note_on_c, 0, 77, 57
1, 1185279, Note_on_c, 0, 76, 69
1, 1185286, Note_on_c, 0, 56, 82
1, 1185287, Note_on_c, 0, 60, 84
1, 1185298, Note_off_c, 0, 58, 61
1, 1185301, Note_off_c, 0, 79, 60
1, 1185310, Note_off_c, 0, 55, 64
1, 1185325, Note_off_c, 0, 60, 64
1, 1185345, Note_on_c, 0, 68, 90
1, 1185364, Note_off_c, 0, 77, 63
1, 1185382, Note_off_c, 0, 68, 65
1, 1185388, Note_off_c, 0, 76, 25
1, 1185408, Note_off_c, 0, 56, 63
1, 1185415, Control_c, 0, 64, 79
1, 1185430, Note_on_c, 0, 58, 88
1, 1185430, Control_c, 0, 64, 0
1, 1185431, Note_on_c, 0, 61, 94
1, 1185435, Note_on_c, 0, 76, 101
1, 1185436, Note_on_c, 0, 67, 104
1, 1185448, Note_off_c, 0, 61, 74
1, 1185457, Note_off_c, 0, 67, 65
1, 1185460, Control_c, 0, 64, 65
1, 1185468, Note_off_c, 0, 58, 65
1, 1185468, Note_off_c, 0, 76, 68
1, 1185475, Control_c, 0, 64, 82
1, 1185489, Control_c, 0, 64, 127
1, 1185608, Control_c, 0, 64, 110
1, 1185623, Control_c, 0, 64, 84
1, 1185638, Control_c, 0, 64, 70
1, 1185653, Control_c, 0, 64, 63
1, 1185668, Control_c, 0, 64, 64
1, 1185682, Control_c, 0, 64, 69
1, 1185697, Control_c, 0, 64, 73
1, 1185712, Control_c, 0, 64, 75
1, 1185724, Note_on_c, 0, 29, 97
1, 1185725, Note_on_c, 0, 66, 90
1, 1185727, Control_c, 0, 64, 73
1, 1185742, Control_c, 0, 64, 65
1, 1185757, Control_c, 0, 64, 0
1, 1185786, Note_off_c, 0, 66, 64
1, 1185796, Note_on_c, 0, 75, 80
1, 1185873, Note_on_c, 0, 73, 90
1, 1185887, Note_on_c, 0, 41, 100
1, 1185902, Note_off_c, 0, 75, 62
1, 1185933, Note_on_c, 0, 65, 78
1, 1185939, Note_off_c, 0, 73, 61
1, 1185978, Note_off_c, 0, 65, 63
1, 1186026, Note_on_c, 0, 63, 83
1, 1186057, Note_off_c, 0, 63, 64
1, 1186094, Note_on_c, 0, 72, 60
1, 1186151, Note_on_c, 0, 70, 79
1, 1186151, Note_off_c, 0, 72, 63
1, 1186204, Note_off_c, 0, 70, 63
1, 1186224, Note_on_c, 0, 61, 67
1, 1186250, Note_off_c, 0, 61, 56
1, 1186312, Control_c, 0, 64, 59
1, 1186319, Poly_aftertouch_c, 0, 60, 127
1, 1186327, Control_c, 0, 64, 77
1, 1186342, Control_c, 0, 64, 78
1, 1186358, Poly_aftertouch_c, 0, 60, 0
1, 1186370, Note_on_c, 0, 68, 75
1, 1186372, Control_c, 0, 64, 77
1, 1186418, Note_off_c, 0, 41, 58
1, 1186425, Note_off_c, 0, 29, 58
1, 1186437, Note_on_c, 0, 66, 75
1, 1186463, Note_off_c, 0, 68, 58
1, 1186492, Note_off_c, 0, 66, 60
1, 1186507, Note_on_c, 0, 58, 62
1, 1186527, Control_c, 0, 64, 75
1, 1186542, Control_c, 0, 64, 68
1, 1186545, Note_off_c, 0, 58, 65
1, 1186558, Control_c, 0, 64, 47
1, 1186566, Note_on_c, 0, 41, 72
1, 1186568, Note_on_c, 0, 29, 68
1, 1186573, Control_c, 0, 64, 0
1, 1186585, Note_on_c, 0, 56, 77
1, 1186593, Note_off_c, 0, 41, 64
1, 1186599, Note_off_c, 0, 29, 64
1, 1186625, Note_off_c, 0, 56, 61
1, 1186650, Note_on_c, 0, 65, 70
1, 1186718, Note_on_c, 0, 29, 77
1, 1186720, Note_on_c, 0, 41, 82
1, 1186721, Note_on_c, 0, 63, 72
1, 1186735, Note_off_c, 0, 65, 48
1, 1186750, Control_c, 0, 64, 64
1, 1186763, Note_off_c, 0, 41, 62
1, 1186765, Note_off_c, 0, 29, 63
1, 1186765, Control_c, 0, 64, 80
1, 1186771, Note_off_c, 0, 63, 57
1, 1186780, Control_c, 0, 64, 90
1, 1186786, Note_on_c, 0, 54, 72
1, 1186795, Control_c, 0, 64, 104
1, 1186810, Control_c, 0, 64, 127
1, 1186866, Note_on_c, 0, 53, 80
1, 1186874, Note_off_c, 0, 54, 0
1, 1186878, Note_on_c, 0, 43, 91
1, 1186879, Note_on_c, 0, 31, 88
1, 1186917, Note_off_c, 0, 43, 63
1, 1186920, Note_off_c, 0, 31, 62
1, 1186936, Note_on_c, 0, 61, 80
1, 1186985, Note_on_c, 0, 60, 68
1, 1187016, Note_on_c, 0, 45, 96
1, 1187019, Note_on_c, 0, 33, 88
1, 1187030, Note_off_c, 0, 61, 61
1, 1187040, Note_off_c, 0, 45, 68
1, 1187045, Poly_aftertouch_c, 0, 54, 0
1, 1187052, Note_on_c, 0, 51, 90
1, 1187052, Note_off_c, 0, 33, 63
1, 1187073, Note_off_c, 0, 53, 60
1, 1187086, Note_off_c, 0, 60, 64
1, 1187122, Control_c, 0, 64, 91
1, 1187136, Control_c, 0, 64, 30
1, 1187151, Control_c, 0, 64, 0
1, 1187152, Note_on_c, 0, 61, 92
1, 1187153, Note_off_c, 0, 51, 61
1, 1187163, Note_on_c, 0, 53, 75
1, 1187165, Note_on_c, 0, 46, 97
1, 1187166, Note_on_c, 0, 34, 95
1, 1187166, Control_c, 0, 64, 43
1, 1187180, Control_c, 0, 64, 73
1, 1187182, Note_off_c, 0, 46, 72
1, 1187189, Note_off_c, 0, 34, 69
1, 1187191, Note_off_c, 0, 53, 67
1, 1187195, Control_c, 0, 64, 124
1, 1187197, Note_off_c, 0, 61, 68
1, 1187209, Note_on_c, 0, 33, 29
1, 1187210, Note_off_c, 0, 33, 127
1, 1187210, Control_c, 0, 64, 127
1, 1187257, Poly_aftertouch_c, 0, 33, 0
1, 1187307, Control_c, 0, 64, 96
1, 1187322, Control_c, 0, 64, 68
1, 1187327, Poly_aftertouch_c, 0, 46, 0
1, 1187336, Control_c, 0, 64, 0
1, 1187397, Control_c, 0, 64, 53
1, 1187412, Control_c, 0, 64, 62
1, 1187426, Control_c, 0, 64, 64
1, 1187441, Control_c, 0, 64, 64
1, 1187456, Control_c, 0, 64, 65
1, 1187461, Note_on_c, 0, 30, 89
1, 1187465, Note_on_c, 0, 73, 99
1, 1187471, Control_c, 0, 64, 67
1, 1187485, Control_c, 0, 64, 69
1, 1187500, Control_c, 0, 64, 71
1, 1187515, Control_c, 0, 64, 74
1, 1187522, Note_off_c, 0, 73, 62
1, 1187530, Note_on_c, 0, 82, 83
1, 1187530, Control_c, 0, 64, 79
1, 1187545, Control_c, 0, 64, 83
1, 1187559, Control_c, 0, 64, 84
1, 1187574, Control_c, 0, 64, 84
1, 1187589, Control_c, 0, 64, 76
1, 1187602, Note_on_c, 0, 42, 96
1, 1187603, Control_c, 0, 64, 46
1, 1187607, Note_on_c, 0, 80, 91
1, 1187618, Control_c, 0, 64, 0
1, 1187643, Note_off_c, 0, 82, 63
1, 1187677, Note_on_c, 0, 72, 73
1, 1187677, Note_off_c, 0, 80, 60
1, 1187725, Note_off_c, 0, 72, 63
1, 1187762, Note_on_c, 0, 70, 85
1, 1187806, Note_off_c, 0, 70, 62
1, 1187825, Note_on_c, 0, 78, 79
1, 1187889, Note_on_c, 0, 77, 80
1, 1187914, Note_off_c, 0, 78, 60
1, 1187955, Note_off_c, 0, 77, 60
1, 1187962, Note_on_c, 0, 68, 81
1, 1188002, Note_off_c, 0, 68, 61
1, 1188050, Note_on_c, 0, 66, 91
1, 1188085, Control_c, 0, 64, 66
1, 1188100, Note_off_c, 0, 66, 63
1, 1188100, Control_c, 0, 64, 63
1, 1188115, Note_on_c, 0, 75, 77
1, 1188115, Control_c, 0, 64, 61
1, 1188130, Control_c, 0, 64, 62
1, 1188145, Control_c, 0, 64, 63
1, 1188160, Control_c, 0, 64, 63
1, 1188169, Note_off_c, 0, 42, 61
1, 1188175, Control_c, 0, 64, 64
1, 1188176, Note_off_c, 0, 30, 60
1, 1188187, Note_on_c, 0, 73, 85
1, 1188190, Control_c, 0, 64, 65
1, 1188205, Control_c, 0, 64, 65
1, 1188214, Note_off_c, 0, 75, 60
1, 1188220, Control_c, 0, 64, 66
1, 1188239, Note_off_c, 0, 73, 61
1, 1188249, Control_c, 0, 64, 64
1, 1188258, Note_on_c, 0, 65, 62
1, 1188264, Control_c, 0, 64, 0
1, 1188289, Note_off_c, 0, 65, 62
1, 1188312, Note_on_c, 0, 42, 70
1, 1188317, Note_on_c, 0, 30, 58
1, 1188330, Note_on_c, 0, 63, 74
1, 1188339, Note_off_c, 0, 42, 65
1, 1188355, Note_off_c, 0, 30, 51
1, 1188378, Note_off_c, 0, 63, 60
1, 1188400, Note_on_c, 0, 72, 63
1, 1188456, Note_on_c, 0, 30, 65
1, 1188459, Note_on_c, 0, 42, 66
1, 1188470, Note_on_c, 0, 70, 72
1, 1188473, Note_off_c, 0, 72, 63
1, 1188486, Control_c, 0, 64, 64
1, 1188500, Control_c, 0, 64, 69
1, 1188506, Note_off_c, 0, 30, 62
1, 1188508, Note_off_c, 0, 70, 59
1, 1188512, Note_off_c, 0, 42, 62
1, 1188515, Control_c, 0, 64, 68
1, 1188530, Control_c, 0, 64, 69
1, 1188532, Note_on_c, 0, 61, 72
1, 1188545, Control_c, 0, 64, 70
1, 1188560, Control_c, 0, 64, 72
1, 1188574, Control_c, 0, 64, 75
1, 1188589, Control_c, 0, 64, 81
1, 1188604, Control_c, 0, 64, 92
1, 1188607, Note_on_c, 0, 44, 87
1, 1188610, Note_on_c, 0, 32, 79
1, 1188611, Note_on_c, 0, 60, 77
1, 1188619, Control_c, 0, 64, 126
1, 1188630, Note_off_c, 0, 61, 0
1, 1188630, Note_on_c, 0, 61, 13
1, 1188634, Control_c, 0, 64, 127
1, 1188640, Note_off_c, 0, 44, 60
1, 1188651, Note_off_c, 0, 32, 61
1, 1188660, Note_off_c, 0, 60, 63
1, 1188670, Note_off_c, 0, 61, 54
1, 1188672, Note_on_c, 0, 68, 83
1, 1188744, Note_on_c, 0, 66, 85
1, 1188749, Note_on_c, 0, 46, 93
1, 1188752, Note_on_c, 0, 34, 90
1, 1188779, Note_off_c, 0, 46, 69
1, 1188784, Note_off_c, 0, 34, 66
1, 1188814, Note_off_c, 0, 68, 57
1, 1188821, Note_off_c, 0, 66, 60
1, 1188828, Note_on_c, 0, 58, 80
1, 1188849, Note_off_c, 0, 58, 70
1, 1188915, Note_on_c, 0, 47, 91
1, 1188916, Note_on_c, 0, 65, 93
1, 1188918, Note_on_c, 0, 35, 88
1, 1188923, Control_c, 0, 64, 82
1, 1188938, Control_c, 0, 64, 0
1, 1188993, Note_on_c, 0, 56, 87
1, 1188998, Control_c, 0, 64, 63
1, 1189012, Control_c, 0, 64, 79
1, 1189018, Note_off_c, 0, 65, 58
1, 1189027, Control_c, 0, 64, 127
1, 1189070, Note_on_c, 0, 55, 86
1, 1189078, Note_off_c, 0, 56, 63
1, 1189149, Note_on_c, 0, 64, 82
1, 1189164, Note_off_c, 0, 55, 41
1, 1189220, Note_on_c, 0, 65, 84
1, 1189224, Note_off_c, 0, 47, 64
1, 1189233, Note_off_c, 0, 64, 61
1, 1189294, Note_on_c, 0, 56, 93
1, 1189351, Note_off_c, 0, 65, 61
1, 1189373, Note_on_c, 0, 55, 85
1, 1189374, Note_on_c, 0, 48, 97
1, 1189383, Control_c, 0, 64, 83
1, 1189387, Note_on_c, 0, 36, 76
1, 1189392, Note_off_c, 0, 56, 63
1, 1189397, Control_c, 0, 64, 0
1, 1189400, Note_off_c, 0, 35, 61
1, 1189445, Note_on_c, 0, 64, 81
1, 1189454, Note_off_c, 0, 55, 60
1, 1189486, Control_c, 0, 64, 51
1, 1189501, Control_c, 0, 64, 67
1, 1189523, Control_c, 0, 64, 77
1, 1189531, Note_on_c, 0, 65, 79
1, 1189538, Control_c, 0, 64, 90
1, 1189548, Note_off_c, 0, 64, 63
1, 1189553, Control_c, 0, 64, 113
1, 1189568, Control_c, 0, 64, 127
1, 1189603, Note_on_c, 0, 56, 87
1, 1189609, Note_off_c, 0, 48, 61
1, 1189644, Note_off_c, 0, 65, 62
1, 1189679, Note_on_c, 0, 55, 78
1, 1189680, Note_off_c, 0, 56, 65
1, 1189734, Note_on_c, 0, 64, 83
1, 1189753, Note_off_c, 0, 55, 60
1, 1189820, Note_on_c, 0, 65, 80
1, 1189821, Note_on_c, 0, 47, 86
1, 1189825, Note_on_c, 0, 35, 72
1, 1189835, Control_c, 0, 64, 107
1, 1189837, Note_off_c, 0, 64, 58
1, 1189844, Note_off_c, 0, 36, 58
1, 1189850, Control_c, 0, 64, 76
1, 1189865, Control_c, 0, 64, 0
1, 1189943, Note_on_c, 0, 56, 77
1, 1189954, Control_c, 0, 64, 63
1, 1189969, Control_c, 0, 64, 72
1, 1189984, Control_c, 0, 64, 83
1, 1189998, Control_c, 0, 64, 101
1, 1190013, Control_c, 0, 64, 127
1, 1190017, Note_off_c, 0, 65, 60
1, 1190047, Note_on_c, 0, 55, 76
1, 1190068, Note_off_c, 0, 56, 62
1, 1190080, Note_off_c, 0, 47, 64
1, 1190130, Note_off_c, 0, 55, 60
1, 1190159, Note_on_c, 0, 64, 77
1, 1190280, Note_on_c, 0, 65, 77
1, 1190284, Note_off_c, 0, 64, 62
1, 1190297, Note_on_c, 0, 48, 80
1, 1190299, Note_on_c, 0, 36, 63
1, 1190312, Note_off_c, 0, 35, 60
1, 1190317, Control_c, 0, 64, 84
1, 1190332, Control_c, 0, 64, 43
1, 1190346, Control_c, 0, 64, 0
1, 1190404, Note_on_c, 0, 56, 73
1, 1190420, Control_c, 0, 64, 62
1, 1190422, Note_off_c, 0, 65, 51
1, 1190435, Control_c, 0, 64, 72
1, 1190450, Control_c, 0, 64, 84
1, 1190465, Control_c, 0, 64, 108
1, 1190479, Control_c, 0, 64, 127
1, 1190514, Note_on_c, 0, 55, 68
1, 1190514, Note_off_c, 0, 56, 63
1, 1190542, Note_off_c, 0, 48, 59
1, 1190573, Note_off_c, 0, 55, 64
1, 1190622, Note_off_c, 0, 36, 33
1, 1190624, Note_on_c, 0, 64, 59
1, 1190658, Note_off_c, 0, 64, 66
1, 1190732, Control_c, 0, 64, 113
1, 1190747, Control_c, 0, 64, 80
1, 1190747, Control_c, 0, 67, 17
1, 1190762, Control_c, 0, 64, 0
1, 1190762, Control_c, 0, 67, 32
1, 1190765, Note_on_c, 0, 41, 70
1, 1190766, Note_on_c, 0, 65, 58
1, 1190777, Control_c, 0, 67, 50
1, 1190779, Note_on_c, 0, 53, 47
1, 1190789, Note_off_c, 0, 41, 64
1, 1190792, Control_c, 0, 67, 65
1, 1190798, Note_off_c, 0, 65, 65
1, 1190807, Control_c, 0, 67, 79
1, 1190807, Note_off_c, 0, 53, 59
1, 1190821, Control_c, 0, 67, 93
1, 1190836, Control_c, 0, 67, 106
1, 1190851, Control_c, 0, 67, 120
1, 1190866, Control_c, 0, 67, 127
1, 1190925, Control_c, 0, 64, 32
1, 1190940, Control_c, 0, 64, 34
1, 1190955, Control_c, 0, 64, 33
1, 1190969, Control_c, 0, 64, 19
1, 1190984, Control_c, 0, 64, 0
1, 1191081, Note_on_c, 0, 54, 64
1, 1191084, Note_on_c, 0, 42, 55
1, 1191236, Note_off_c, 0, 54, 62
1, 1191239, Note_on_c, 0, 65, 69
1, 1191245, Note_on_c, 0, 53, 66
1, 1191258, Control_c, 0, 64, 48
1, 1191273, Control_c, 0, 64, 64
1, 1191288, Control_c, 0, 64, 69
1, 1191302, Control_c, 0, 64, 78
1, 1191317, Control_c, 0, 64, 93
1, 1191331, Note_off_c, 0, 53, 59
1, 1191332, Control_c, 0, 64, 127
1, 1191338, Note_off_c, 0, 42, 58
1, 1191364, Note_on_c, 0, 53, 58
1, 1191365, Note_off_c, 0, 65, 59
1, 1191373, Note_on_c, 0, 41, 69
1, 1191390, Note_off_c, 0, 53, 67
1, 1191393, Control_c, 0, 64, 90
1, 1191399, Note_off_c, 0, 41, 64
1, 1191407, Control_c, 0, 64, 60
1, 1191422, Control_c, 0, 64, 0
1, 1191542, Note_on_c, 0, 51, 70
1, 1191549, Note_on_c, 0, 39, 51
1, 1191567, Note_off_c, 0, 51, 67
1, 1191579, Note_off_c, 0, 39, 56
1, 1191704, Note_on_c, 0, 38, 75
1, 1191704, Note_on_c, 0, 50, 71
1, 1191714, Note_on_c, 0, 65, 69
1, 1191729, Note_off_c, 0, 38, 64
1, 1191734, Note_off_c, 0, 50, 67
1, 1191736, Note_on_c, 0, 53, 34
1, 1191741, Note_off_c, 0, 65, 66
1, 1191778, Note_off_c, 0, 53, 49
1, 1191956, Note_on_c, 0, 36, 67
1, 1191968, Note_on_c, 0, 48, 40
1, 1191969, Note_off_c, 0, 48, 127
1, 1191980, Note_off_c, 0, 36, 59
1, 1192007, Note_on_c, 0, 46, 80
1, 1192015, Note_on_c, 0, 34, 67
1, 1192033, Note_off_c, 0, 46, 65
1, 1192047, Note_off_c, 0, 34, 62
1, 1192199, Note_on_c, 0, 65, 65
1, 1192207, Note_on_c, 0, 53, 58
1, 1192246, Note_off_c, 0, 53, 65
1, 1192258, Note_off_c, 0, 65, 62
1, 1192694, Note_on_c, 0, 65, 53
1, 1192697, Note_on_c, 0, 36, 64
1, 1192697, Note_on_c, 0, 48, 68
1, 1192700, Note_on_c, 0, 53, 48
1, 1192723, Note_off_c, 0, 48, 65
1, 1192730, Note_off_c, 0, 36, 61
1, 1192734, Note_off_c, 0, 53, 66
1, 1192747, Note_off_c, 0, 65, 58
1, 1193029, Note_on_c, 0, 49, 79
1, 1193038, Note_on_c, 0, 37, 69
1, 1193194, Note_on_c, 0, 65, 73
1, 1193200, Note_on_c, 0, 53, 62
1, 1193221, Note_off_c, 0, 49, 63
1, 1193289, Note_off_c, 0, 53, 56
1, 1193304, Note_off_c, 0, 37, 58
1, 1193311, Note_off_c, 0, 65, 55
1, 1193338, Note_on_c, 0, 36, 69
1, 1193339, Note_on_c, 0, 48, 65
1, 1193362, Note_off_c, 0, 48, 61
1, 1193368, Note_off_c, 0, 36, 62
1, 1193506, Note_on_c, 0, 34, 61
1, 1193507, Note_on_c, 0, 46, 65
1, 1193534, Note_off_c, 0, 46, 64
1, 1193537, Note_off_c, 0, 34, 62
1, 1193665, Note_on_c, 0, 33, 82
1, 1193669, Note_on_c, 0, 45, 71
1, 1193674, Note_on_c, 0, 65, 69
1, 1193687, Note_on_c, 0, 53, 48
1, 1193691, Note_off_c, 0, 33, 63
1, 1193695, Note_off_c, 0, 45, 65
1, 1193700, Note_off_c, 0, 65, 67
1, 1193714, Note_off_c, 0, 53, 57
1, 1193912, Note_on_c, 0, 31, 57
1, 1193919, Note_on_c, 0, 43, 38
1, 1193920, Note_off_c, 0, 43, 127
1, 1193945, Note_off_c, 0, 31, 55
1, 1193967, Note_on_c, 0, 29, 86
1, 1193968, Note_on_c, 0, 41, 81
1, 1193993, Note_off_c, 0, 29, 66
1, 1193993, Note_off_c, 0, 41, 65
1, 1194177, Note_on_c, 0, 65, 64
1, 1194189, Note_on_c, 0, 53, 54
1, 1194223, Note_off_c, 0, 53, 65
1, 1194232, Note_off_c, 0, 65, 60
1, 1194696, Note_on_c, 0, 33, 73
1, 1194697, Note_on_c, 0, 45, 69
1, 1194700, Note_on_c, 0, 65, 68
1, 1194712, Note_on_c, 0, 53, 51
1, 1194724, Note_off_c, 0, 33, 62
1, 1194726, Note_off_c, 0, 45, 66
1, 1194737, Note_off_c, 0, 53, 62
1, 1194740, Note_off_c, 0, 65, 61
1, 1194939, Note_on_c, 0, 31, 67
1, 1194939, Note_on_c, 0, 43, 63
1, 1194963, Note_off_c, 0, 43, 59
1, 1194967, Note_off_c, 0, 31, 59
1, 1195020, Note_on_c, 0, 29, 75
1, 1195037, Note_on_c, 0, 41, 45
1, 1195051, Note_off_c, 0, 29, 61
1, 1195070, Note_off_c, 0, 41, 51
1, 1195210, Note_on_c, 0, 53, 54
1, 1195254, Note_off_c, 0, 53, 61
1, 1195794, Note_on_c, 0, 53, 44
1, 1195794, Note_on_c, 0, 29, 44
1, 1195797, Note_on_c, 0, 41, 42
1, 1195843, Note_off_c, 0, 41, 58
1, 1195845, Note_off_c, 0, 53, 58
1, 1195847, Note_off_c, 0, 29, 62
1, 1196368, Note_on_c, 0, 53, 35
1, 1196406, Note_off_c, 0, 53, 65
1, 1196707, Control_c, 0, 64, 43
1, 1196721, Control_c, 0, 64, 54
1, 1196736, Control_c, 0, 64, 61
1, 1196751, Control_c, 0, 64, 64
1, 1196766, Control_c, 0, 64, 66
1, 1196781, Control_c, 0, 64, 69
1, 1196796, Control_c, 0, 64, 71
1, 1196810, Control_c, 0, 64, 74
1, 1196825, Control_c, 0, 64, 78
1, 1196840, Control_c, 0, 64, 83
1, 1196855, Control_c, 0, 64, 88
1, 1196870, Control_c, 0, 64, 92
1, 1196885, Control_c, 0, 64, 97
1, 1196900, Control_c, 0, 64, 102
1, 1196914, Control_c, 0, 64, 109
1, 1196929, Control_c, 0, 64, 127
1, 1197076, Note_on_c, 0, 41, 26
1, 1197193, Note_on_c, 0, 65, 37
1, 1197240, Note_off_c, 0, 41, 38
1, 1197252, Note_on_c, 0, 69, 49
1, 1197337, Note_on_c, 0, 72, 44
1, 1197454, Note_on_c, 0, 77, 63
1, 1197530, Control_c, 0, 67, 127
1, 1197544, Control_c, 0, 67, 125
1, 1197559, Control_c, 0, 67, 122
1, 1197574, Control_c, 0, 67, 120
1, 1197589, Control_c, 0, 67, 117
1, 1197603, Control_c, 0, 67, 115
1, 1197618, Control_c, 0, 67, 112
1, 1197630, Note_off_c, 0, 69, 61
1, 1197633, Control_c, 0, 67, 109
1, 1197636, Note_on_c, 0, 57, 40
1, 1197648, Control_c, 0, 67, 107
1, 1197663, Control_c, 0, 67, 105
1, 1197678, Control_c, 0, 67, 102
1, 1197682, Note_off_c, 0, 57, 55
1, 1197693, Control_c, 0, 67, 99
1, 1197707, Control_c, 0, 67, 97
1, 1197722, Control_c, 0, 67, 94
1, 1197738, Control_c, 0, 67, 91
1, 1197753, Control_c, 0, 67, 89
1, 1197773, Note_on_c, 0, 60, 48
1, 1197775, Control_c, 0, 67, 86
1, 1197790, Control_c, 0, 67, 84
1, 1197805, Control_c, 0, 67, 81
1, 1197815, Note_off_c, 0, 60, 64
1, 1197819, Control_c, 0, 67, 79
1, 1197834, Control_c, 0, 67, 76
1, 1197835, Note_on_c, 0, 57, 45
1, 1197849, Control_c, 0, 67, 74
1, 1197864, Control_c, 0, 67, 72
1, 1197868, Note_off_c, 0, 57, 64
1, 1197879, Control_c, 0, 67, 69
1, 1197893, Control_c, 0, 67, 67
1, 1197908, Control_c, 0, 67, 65
1, 1197916, Note_on_c, 0, 60, 44
1, 1197923, Control_c, 0, 67, 64
1, 1197938, Control_c, 0, 67, 62
1, 1197939, Note_off_c, 0, 60, 60
1, 1197953, Control_c, 0, 67, 60
1, 1197964, Note_on_c, 0, 57, 45
1, 1197967, Control_c, 0, 67, 59
1, 1197982, Control_c, 0, 67, 58
1, 1197997, Control_c, 0, 67, 57
1, 1198012, Control_c, 0, 67, 57
1, 1198013, Note_off_c, 0, 57, 59
1, 1198016, Note_on_c, 0, 69, 67
1, 1198027, Control_c, 0, 67, 56
1, 1198042, Control_c, 0, 67, 56
1, 1198044, Note_on_c, 0, 60, 40
1, 1198092, Note_off_c, 0, 60, 62
1, 1198137, Note_on_c, 0, 57, 45
1, 1198164, Note_off_c, 0, 77, 39
1, 1198167, Note_off_c, 0, 57, 61
1, 1198198, Note_on_c, 0, 60, 43
1, 1198220, Note_off_c, 0, 60, 65
1, 1198229, Note_off_c, 0, 65, 38
1, 1198234, Control_c, 0, 67, 56
1, 1198249, Control_c, 0, 67, 57
1, 1198267, Note_on_c, 0, 57, 39
1, 1198279, Control_c, 0, 67, 57
1, 1198293, Control_c, 0, 67, 58
1, 1198299, Note_off_c, 0, 57, 52
1, 1198310, Note_off_c, 0, 72, 60
1, 1198318, Note_on_c, 0, 60, 40
1, 1198323, Control_c, 0, 67, 58
1, 1198337, Control_c, 0, 67, 59
1, 1198351, Note_off_c, 0, 60, 65
1, 1198352, Control_c, 0, 67, 59
1, 1198380, Note_on_c, 0, 57, 35
1, 1198382, Control_c, 0, 67, 60
1, 1198405, Note_off_c, 0, 57, 58
1, 1198426, Control_c, 0, 67, 60
1, 1198471, Control_c, 0, 67, 61
1, 1198501, Control_c, 0, 67, 61
1, 1198539, Control_c, 0, 67, 62
1, 1198557, Note_on_c, 0, 45, 47
1, 1198568, Control_c, 0, 67, 62
1, 1198583, Control_c, 0, 67, 63
1, 1198598, Control_c, 0, 67, 63
1, 1198628, Control_c, 0, 64, 98
1, 1198628, Control_c, 0, 67, 64
1, 1198637, Note_on_c, 0, 76, 67
1, 1198642, Control_c, 0, 64, 79
1, 1198650, Note_on_c, 0, 72, 44
1, 1198657, Control_c, 0, 64, 65
1, 1198672, Control_c, 0, 64, 0
1, 1198676, Note_on_c, 0, 64, 41
1, 1198731, Control_c, 0, 64, 26
1, 1198746, Control_c, 0, 64, 60
1, 1198760, Control_c, 0, 64, 66
1, 1198775, Control_c, 0, 64, 71
1, 1198789, Note_off_c, 0, 45, 55
1, 1198790, Control_c, 0, 64, 77
1, 1198805, Control_c, 0, 64, 83
1, 1198820, Control_c, 0, 64, 90
1, 1198835, Control_c, 0, 64, 98
1, 1198849, Control_c, 0, 64, 106
1, 1198851, Note_on_c, 0, 57, 42
1, 1198864, Control_c, 0, 64, 117
1, 1198864, Control_c, 0, 67, 63
1, 1198879, Control_c, 0, 64, 127
1, 1198897, Note_off_c, 0, 57, 55
1, 1198958, Note_on_c, 0, 60, 47
1, 1198999, Note_off_c, 0, 60, 64
1, 1199025, Note_on_c, 0, 57, 45
1, 1199061, Note_off_c, 0, 57, 63
1, 1199102, Note_on_c, 0, 60, 45
1, 1199127, Note_off_c, 0, 60, 61
1, 1199167, Note_on_c, 0, 57, 50
1, 1199190, Note_off_c, 0, 64, 37
1, 1199226, Note_off_c, 0, 57, 58
1, 1199249, Note_on_c, 0, 60, 41
1, 1199299, Note_off_c, 0, 76, 50
1, 1199306, Note_off_c, 0, 60, 60
1, 1199344, Note_off_c, 0, 72, 40
1, 1199358, Note_on_c, 0, 57, 44
1, 1199392, Note_off_c, 0, 57, 63
1, 1199393, Note_off_c, 0, 69, 53
1, 1199412, Note_on_c, 0, 60, 50
1, 1199421, Control_c, 0, 67, 63
1, 1199436, Control_c, 0, 67, 62
1, 1199447, Note_off_c, 0, 60, 62
1, 1199465, Control_c, 0, 67, 62
1, 1199480, Control_c, 0, 67, 61
1, 1199495, Control_c, 0, 67, 60
1, 1199501, Note_on_c, 0, 57, 33
1, 1199510, Control_c, 0, 67, 59
1, 1199525, Control_c, 0, 67, 58
1, 1199538, Note_off_c, 0, 57, 50
1, 1199539, Control_c, 0, 67, 57
1, 1199554, Control_c, 0, 67, 56
1, 1199569, Control_c, 0, 67, 55
1, 1199572, Note_on_c, 0, 60, 30
1, 1199584, Control_c, 0, 67, 54
1, 1199599, Control_c, 0, 67, 53
1, 1199607, Note_off_c, 0, 60, 53
1, 1199614, Control_c, 0, 67, 50
1, 1199629, Control_c, 0, 67, 44
1, 1199644, Control_c, 0, 67, 40
1, 1199658, Control_c, 0, 67, 36
1, 1199673, Control_c, 0, 67, 33
1, 1199688, Control_c, 0, 67, 31
1, 1199703, Control_c, 0, 67, 31
1, 1199718, Control_c, 0, 67, 30
1, 1199741, Note_on_c, 0, 38, 54
1, 1199782, Note_on_c, 0, 62, 50
1, 1199806, Control_c, 0, 67, 31
1, 1199836, Control_c, 0, 64, 98
1, 1199847, Note_on_c, 0, 65, 57
1, 1199851, Control_c, 0, 64, 81
1, 1199866, Control_c, 0, 64, 68
1, 1199881, Control_c, 0, 64, 57
1, 1199896, Control_c, 0, 64, 54
1, 1199899, Note_on_c, 0, 69, 62
1, 1199910, Control_c, 0, 64, 58
1, 1199925, Control_c, 0, 64, 62
1, 1199940, Control_c, 0, 64, 64
1, 1199955, Control_c, 0, 64, 66
1, 1199955, Control_c, 0, 67, 30
1, 1199970, Control_c, 0, 64, 70
1, 1199970, Control_c, 0, 67, 30
1, 1199984, Control_c, 0, 64, 74
1, 1199984, Control_c, 0, 67, 29
1, 1199997, Note_on_c, 0, 74, 79
1, 1199999, Control_c, 0, 64, 80
1, 1199999, Control_c, 0, 67, 29
1, 1200021, Control_c, 0, 64, 86
1, 1200021, Control_c, 0, 67, 28
1, 1200036, Control_c, 0, 64, 93
1, 1200036, Control_c, 0, 67, 25
1, 1200051, Control_c, 0, 64, 101
1, 1200051, Control_c, 0, 67, 23
1, 1200066, Note_off_c, 0, 38, 36
1, 1200066, Control_c, 0, 64, 114
1, 1200066, Control_c, 0, 67, 20
1, 1200081, Control_c, 0, 64, 127
1, 1200081, Control_c, 0, 67, 16
1, 1200095, Control_c, 0, 67, 12
1, 1200110, Control_c, 0, 67, 8
1, 1200125, Control_c, 0, 67, 0
1, 1200178, Note_on_c, 0, 53, 49
1, 1200229, Note_off_c, 0, 53, 58
1, 1200256, Note_off_c, 0, 65, 63
1, 1200285, Note_on_c, 0, 57, 47
1, 1200320, Note_off_c, 0, 57, 63
1, 1200340, Note_on_c, 0, 53, 57
1, 1200373, Note_off_c, 0, 53, 65
1, 1200417, Note_on_c, 0, 57, 53
1, 1200450, Note_off_c, 0, 57, 64
1, 1200471, Note_on_c, 0, 53, 49
1, 1200531, Note_off_c, 0, 53, 57
1, 1200543, Note_on_c, 0, 65, 72
1, 1200574, Note_on_c, 0, 57, 40
1, 1200612, Note_off_c, 0, 57, 63
1, 1200661, Note_on_c, 0, 53, 49
1, 1200691, Note_off_c, 0, 53, 66
1, 1200715, Note_on_c, 0, 57, 44
1, 1200756, Note_off_c, 0, 74, 40
1, 1200757, Note_off_c, 0, 57, 63
1, 1200782, Note_off_c, 0, 62, 52
1, 1200801, Note_on_c, 0, 53, 38
1, 1200836, Note_off_c, 0, 53, 54
1, 1200850, Note_off_c, 0, 69, 60
1, 1200865, Note_on_c, 0, 57, 32
1, 1200873, Control_c, 0, 67, 8
1, 1200888, Control_c, 0, 67, 11
1, 1200891, Note_off_c, 0, 57, 56
1, 1200903, Control_c, 0, 67, 13
1, 1200918, Control_c, 0, 67, 17
1, 1200933, Control_c, 0, 67, 23
1, 1200948, Control_c, 0, 67, 29
1, 1200963, Control_c, 0, 67, 34
1, 1200978, Control_c, 0, 67, 41
1, 1200993, Control_c, 0, 67, 47
1, 1201008, Control_c, 0, 67, 55
1, 1201023, Control_c, 0, 67, 63
1, 1201037, Control_c, 0, 67, 72
1, 1201052, Control_c, 0, 67, 80
1, 1201064, Note_on_c, 0, 41, 47
1, 1201067, Control_c, 0, 67, 86
1, 1201082, Control_c, 0, 67, 93
1, 1201097, Control_c, 0, 67, 99
1, 1201111, Control_c, 0, 67, 104
1, 1201126, Control_c, 0, 64, 103
1, 1201126, Control_c, 0, 67, 110
1, 1201141, Control_c, 0, 64, 84
1, 1201141, Control_c, 0, 67, 114
1, 1201145, Note_on_c, 0, 72, 62
1, 1201153, Note_on_c, 0, 69, 48
1, 1201155, Control_c, 0, 64, 69
1, 1201155, Control_c, 0, 67, 117
1, 1201163, Note_on_c, 0, 60, 40
1, 1201170, Control_c, 0, 64, 41
1, 1201170, Control_c, 0, 67, 119
1, 1201185, Control_c, 0, 64, 0
1, 1201185, Control_c, 0, 67, 119
1, 1201200, Control_c, 0, 67, 120
1, 1201229, Control_c, 0, 64, 45
1, 1201244, Control_c, 0, 64, 61
1, 1201259, Control_c, 0, 64, 66
1, 1201260, Note_off_c, 0, 41, 61
1, 1201274, Control_c, 0, 64, 70
1, 1201289, Control_c, 0, 64, 75
1, 1201303, Control_c, 0, 64, 84
1, 1201318, Control_c, 0, 64, 92
1, 1201325, Note_on_c, 0, 53, 49
1, 1201333, Control_c, 0, 64, 100
1, 1201348, Control_c, 0, 64, 109
1, 1201362, Note_off_c, 0, 53, 63
1, 1201362, Control_c, 0, 64, 127
1, 1201377, Control_c, 0, 67, 120
1, 1201407, Control_c, 0, 67, 119
1, 1201427, Note_on_c, 0, 57, 50
1, 1201437, Control_c, 0, 67, 119
1, 1201469, Note_off_c, 0, 57, 62
1, 1201482, Control_c, 0, 67, 118
1, 1201499, Note_off_c, 0, 60, 38
1, 1201518, Control_c, 0, 67, 118
1, 1201520, Note_on_c, 0, 53, 38
1, 1201533, Control_c, 0, 67, 117
1, 1201552, Note_off_c, 0, 53, 64
1, 1201562, Control_c, 0, 67, 117
1, 1201577, Control_c, 0, 67, 116
1, 1201586, Note_on_c, 0, 57, 46
1, 1201607, Control_c, 0, 67, 116
1, 1201622, Note_off_c, 0, 57, 62
1, 1201622, Control_c, 0, 67, 115
1, 1201631, Note_off_c, 0, 72, 36
1, 1201637, Control_c, 0, 67, 115
1, 1201642, Note_off_c, 0, 69, 32
1, 1201646, Note_on_c, 0, 53, 52
1, 1201651, Control_c, 0, 67, 114
1, 1201666, Control_c, 0, 67, 113
1, 1201681, Control_c, 0, 67, 113
1, 1201696, Control_c, 0, 67, 112
1, 1201705, Note_off_c, 0, 53, 64
1, 1201711, Control_c, 0, 67, 111
1, 1201726, Control_c, 0, 67, 110
1, 1201735, Note_on_c, 0, 57, 48
1, 1201741, Control_c, 0, 67, 109
1, 1201753, Note_off_c, 0, 65, 41
1, 1201756, Control_c, 0, 67, 108
1, 1201771, Control_c, 0, 67, 106
1, 1201778, Note_off_c, 0, 57, 58
1, 1201786, Control_c, 0, 67, 104
1, 1201801, Control_c, 0, 67, 101
1, 1201815, Control_c, 0, 67, 97
1, 1201828, Note_on_c, 0, 53, 51
1, 1201830, Control_c, 0, 67, 91
1, 1201845, Control_c, 0, 67, 86
1, 1201860, Control_c, 0, 67, 82
1, 1201862, Note_off_c, 0, 53, 64
1, 1201875, Control_c, 0, 67, 78
1, 1201890, Control_c, 0, 67, 76
1, 1201896, Note_on_c, 0, 57, 48
1, 1201905, Control_c, 0, 67, 73
1, 1201920, Control_c, 0, 67, 71
1, 1201934, Control_c, 0, 67, 69
1, 1201949, Control_c, 0, 67, 68
1, 1201951, Note_off_c, 0, 57, 55
1, 1201957, Note_on_c, 0, 53, 58
1, 1201964, Control_c, 0, 67, 66
1, 1201978, Control_c, 0, 67, 66
1, 1201985, Note_off_c, 0, 53, 67
1, 1201993, Control_c, 0, 67, 65
1, 1202008, Control_c, 0, 67, 65
1, 1202082, Control_c, 0, 67, 66
1, 1202097, Control_c, 0, 67, 67
1, 1202112, Control_c, 0, 67, 68
1, 1202126, Control_c, 0, 67, 69
1, 1202141, Control_c, 0, 67, 70
1, 1202156, Control_c, 0, 67, 71
1, 1202158, Note_on_c, 0, 43, 46
1, 1202171, Control_c, 0, 67, 72
1, 1202185, Control_c, 0, 67, 72
1, 1202200, Control_c, 0, 64, 108
1, 1202200, Control_c, 0, 67, 73
1, 1202215, Control_c, 0, 64, 86
1, 1202215, Control_c, 0, 67, 73
1, 1202230, Control_c, 0, 64, 72
1, 1202245, Control_c, 0, 64, 62
1, 1202249, Note_on_c, 0, 70, 68
1, 1202267, Control_c, 0, 64, 61
1, 1202271, Note_on_c, 0, 65, 49
1, 1202277, Note_on_c, 0, 62, 36
1, 1202282, Control_c, 0, 64, 65
1, 1202297, Control_c, 0, 64, 68
1, 1202297, Control_c, 0, 67, 73
1, 1202300, Note_off_c, 0, 43, 63
1, 1202311, Control_c, 0, 64, 72
1, 1202326, Control_c, 0, 64, 78
1, 1202326, Control_c, 0, 67, 72
1, 1202341, Control_c, 0, 64, 86
1, 1202341, Control_c, 0, 67, 71
1, 1202356, Control_c, 0, 64, 98
1, 1202356, Control_c, 0, 67, 71
1, 1202371, Control_c, 0, 64, 113
1, 1202371, Control_c, 0, 67, 70
1, 1202385, Control_c, 0, 64, 127
1, 1202385, Control_c, 0, 67, 68
1, 1202400, Control_c, 0, 67, 67
1, 1202415, Control_c, 0, 67, 66
1, 1202430, Control_c, 0, 67, 64
1, 1202435, Note_on_c, 0, 55, 57
1, 1202445, Control_c, 0, 67, 62
1, 1202459, Control_c, 0, 67, 56
1, 1202474, Control_c, 0, 67, 46
1, 1202489, Note_off_c, 0, 55, 63
1, 1202489, Control_c, 0, 67, 36
1, 1202504, Control_c, 0, 67, 24
1, 1202506, Note_on_c, 0, 58, 62
1, 1202519, Control_c, 0, 67, 13
1, 1202535, Control_c, 0, 67, 0
1, 1202542, Note_off_c, 0, 58, 61
1, 1202577, Note_on_c, 0, 55, 52
1, 1202582, Note_off_c, 0, 62, 40
1, 1202585, Note_off_c, 0, 65, 60
1, 1202587, Note_off_c, 0, 70, 61
1, 1202602, Note_off_c, 0, 55, 64
1, 1202626, Note_on_c, 0, 58, 69
1, 1202653, Note_off_c, 0, 58, 68
1, 1202674, Note_on_c, 0, 55, 55
1, 1202695, Note_off_c, 0, 55, 62
1, 1202762, Note_on_c, 0, 70, 77
1, 1202772, Note_on_c, 0, 65, 59
1, 1202772, Control_c, 0, 64, 85
1, 1202779, Note_on_c, 0, 62, 53
1, 1202784, Note_on_c, 0, 45, 64
1, 1202787, Control_c, 0, 64, 63
1, 1202802, Control_c, 0, 64, 0
1, 1202830, Note_off_c, 0, 45, 65
1, 1202847, Control_c, 0, 64, 60
1, 1202862, Control_c, 0, 64, 70
1, 1202876, Control_c, 0, 64, 82
1, 1202891, Control_c, 0, 64, 104
1, 1202906, Control_c, 0, 64, 127
1, 1202922, Note_off_c, 0, 62, 57
1, 1202925, Note_off_c, 0, 65, 62
1, 1202931, Note_on_c, 0, 57, 60
1, 1202981, Note_off_c, 0, 57, 57
1, 1203009, Note_on_c, 0, 60, 65
1, 1203055, Note_off_c, 0, 60, 58
1, 1203082, Note_on_c, 0, 57, 62
1, 1203082, Note_on_c, 0, 69, 84
1, 1203109, Note_off_c, 0, 57, 67
1, 1203124, Note_off_c, 0, 70, 58
1, 1203154, Note_off_c, 0, 69, 60
1, 1203160, Note_on_c, 0, 60, 35
1, 1203184, Note_off_c, 0, 60, 59
1, 1203192, Note_on_c, 0, 57, 25
1, 1203234, Note_off_c, 0, 57, 44
1, 1203251, Note_on_c, 0, 69, 81
1, 1203254, Control_c, 0, 64, 105
1, 1203269, Control_c, 0, 64, 75
1, 1203281, Note_on_c, 0, 65, 50
1, 1203282, Note_on_c, 0, 46, 66
1, 1203283, Control_c, 0, 64, 0
1, 1203316, Note_off_c, 0, 46, 65
1, 1203344, Control_c, 0, 64, 55
1, 1203358, Control_c, 0, 64, 69
1, 1203373, Control_c, 0, 64, 81
1, 1203388, Control_c, 0, 64, 100
1, 1203403, Control_c, 0, 64, 127
1, 1203417, Note_on_c, 0, 58, 69
1, 1203469, Note_off_c, 0, 65, 59
1, 1203486, Note_off_c, 0, 58, 60
1, 1203518, Note_on_c, 0, 62, 54
1, 1203537, Note_off_c, 0, 69, 63
1, 1203541, Note_on_c, 0, 67, 81
1, 1203553, Note_off_c, 0, 62, 63
1, 1203563, Note_off_c, 0, 67, 67
1, 1203607, Note_on_c, 0, 58, 52
1, 1203636, Note_off_c, 0, 58, 64
1, 1203661, Note_on_c, 0, 67, 71
1, 1203690, Note_on_c, 0, 62, 33
1, 1203719, Note_off_c, 0, 62, 54
1, 1203735, Note_on_c, 0, 58, 54
1, 1203819, Note_off_c, 0, 58, 60
1, 1203841, Note_on_c, 0, 79, 83
1, 1203866, Note_on_c, 0, 62, 28
1, 1203912, Note_off_c, 0, 62, 55
1, 1203940, Note_on_c, 0, 58, 55
1, 1203974, Note_off_c, 0, 58, 61
1, 1204031, Note_on_c, 0, 62, 33
1, 1204068, Note_off_c, 0, 62, 49
1, 1204078, Note_on_c, 0, 58, 51
1, 1204109, Note_off_c, 0, 58, 55
1, 1204141, Note_on_c, 0, 77, 90
1, 1204170, Note_off_c, 0, 79, 63
1, 1204176, Note_off_c, 0, 67, 61
1, 1204196, Note_off_c, 0, 77, 64
1, 1204255, Poly_aftertouch_c, 0, 58, 0
1, 1204284, Note_on_c, 0, 47, 70
1, 1204314, Control_c, 0, 64, 87
1, 1204328, Control_c, 0, 64, 69
1, 1204340, Note_on_c, 0, 74, 68
1, 1204342, Note_on_c, 0, 77, 75
1, 1204343, Control_c, 0, 64, 42
1, 1204358, Note_on_c, 0, 67, 61
1, 1204358, Control_c, 0, 64, 53
1, 1204370, Note_off_c, 0, 47, 65
1, 1204373, Control_c, 0, 64, 64
1, 1204388, Control_c, 0, 64, 70
1, 1204403, Control_c, 0, 64, 79
1, 1204418, Control_c, 0, 64, 97
1, 1204433, Control_c, 0, 64, 127
1, 1204477, Note_on_c, 0, 59, 58
1, 1204523, Note_off_c, 0, 59, 59
1, 1204550, Note_on_c, 0, 62, 63
1, 1204583, Note_off_c, 0, 62, 62
1, 1204632, Note_on_c, 0, 59, 33
1, 1204655, Note_on_c, 0, 62, 66
1, 1204661, Note_off_c, 0, 59, 0
1, 1204678, Note_off_c, 0, 62, 68
1, 1204688, Note_on_c, 0, 59, 43
1, 1204713, Note_off_c, 0, 59, 61
1, 1204774, Note_on_c, 0, 72, 83
1, 1204781, Control_c, 0, 64, 90
1, 1204789, Note_on_c, 0, 48, 81
1, 1204796, Control_c, 0, 64, 68
1, 1204811, Control_c, 0, 64, 0
1, 1204818, Note_off_c, 0, 48, 66
1, 1204822, Note_off_c, 0, 74, 58
1, 1204826, Control_c, 0, 64, 40
1, 1204841, Control_c, 0, 64, 62
1, 1204855, Control_c, 0, 64, 69
1, 1204870, Control_c, 0, 64, 80
1, 1204885, Control_c, 0, 64, 100
1, 1204899, Control_c, 0, 64, 127
1, 1204931, Note_on_c, 0, 60, 63
1, 1204944, Note_off_c, 0, 72, 64
1, 1204980, Note_off_c, 0, 60, 58
1, 1205007, Note_on_c, 0, 65, 60
1, 1205040, Note_off_c, 0, 65, 63
1, 1205056, Note_on_c, 0, 72, 82
1, 1205069, Note_off_c, 0, 77, 61
1, 1205087, Note_on_c, 0, 60, 40
1, 1205104, Note_off_c, 0, 72, 64
1, 1205111, Note_off_c, 0, 60, 60
1, 1205155, Note_on_c, 0, 65, 26
1, 1205189, Note_off_c, 0, 65, 52
1, 1205202, Note_on_c, 0, 72, 63
1, 1205224, Note_off_c, 0, 72, 70
1, 1205240, Note_on_c, 0, 74, 77
1, 1205264, Control_c, 0, 64, 91
1, 1205278, Control_c, 0, 64, 65
1, 1205290, Note_on_c, 0, 50, 68
1, 1205293, Control_c, 0, 64, 0
1, 1205308, Note_on_c, 0, 72, 83
1, 1205351, Note_off_c, 0, 50, 65
1, 1205352, Control_c, 0, 64, 29
1, 1205364, Note_off_c, 0, 74, 55
1, 1205367, Control_c, 0, 64, 66
1, 1205382, Control_c, 0, 64, 78
1, 1205397, Control_c, 0, 64, 101
1, 1205411, Control_c, 0, 64, 127
1, 1205449, Note_on_c, 0, 62, 67
1, 1205475, Note_off_c, 0, 67, 59
1, 1205509, Note_off_c, 0, 62, 60
1, 1205510, Note_off_c, 0, 72, 63
1, 1205533, Note_on_c, 0, 65, 65
1, 1205570, Note_off_c, 0, 65, 60
1, 1205579, Note_on_c, 0, 71, 72
1, 1205601, Note_off_c, 0, 71, 71
1, 1205619, Note_on_c, 0, 62, 55
1, 1205648, Note_on_c, 0, 71, 79
1, 1205676, Note_off_c, 0, 62, 58
1, 1205687, Note_off_c, 0, 71, 65
1, 1205789, Note_on_c, 0, 62, 40
1, 1205853, Note_on_c, 0, 86, 84
1, 1205862, Note_off_c, 0, 62, 59
1, 1205932, Note_on_c, 0, 65, 17
1, 1205970, Note_off_c, 0, 65, 43
1, 1205985, Note_on_c, 0, 62, 51
1, 1206029, Note_off_c, 0, 62, 62
1, 1206063, Note_on_c, 0, 65, 56
1, 1206096, Note_off_c, 0, 65, 66
1, 1206123, Note_on_c, 0, 62, 50
1, 1206147, Note_off_c, 0, 62, 64
1, 1206172, Note_on_c, 0, 84, 89
1, 1206188, Note_off_c, 0, 86, 64
1, 1206202, Note_on_c, 0, 65, 38
1, 1206217, Note_off_c, 0, 84, 64
1, 1206222, Note_on_c, 0, 62, 56
1, 1206236, Note_off_c, 0, 65, 49
1, 1206250, Note_off_c, 0, 62, 62
1, 1206363, Note_on_c, 0, 52, 60
1, 1206398, Control_c, 0, 64, 112
1, 1206413, Control_c, 0, 64, 84
1, 1206427, Control_c, 0, 64, 66
1, 1206433, Note_on_c, 0, 84, 80
1, 1206436, Note_on_c, 0, 79, 50
1, 1206442, Control_c, 0, 64, 17
1, 1206451, Note_on_c, 0, 70, 63
1, 1206457, Control_c, 0, 64, 33
1, 1206472, Control_c, 0, 64, 56
1, 1206487, Control_c, 0, 64, 65
1, 1206488, Note_off_c, 0, 52, 61
1, 1206501, Control_c, 0, 64, 72
1, 1206516, Control_c, 0, 64, 81
1, 1206532, Control_c, 0, 64, 99
1, 1206547, Control_c, 0, 64, 127
1, 1206593, Note_off_c, 0, 79, 62
1, 1206599, Note_on_c, 0, 64, 61
1, 1206635, Note_off_c, 0, 64, 64
1, 1206691, Note_on_c, 0, 67, 44
1, 1206719, Note_off_c, 0, 67, 56
1, 1206740, Note_on_c, 0, 64, 56
1, 1206769, Note_off_c, 0, 64, 65
1, 1206802, Note_on_c, 0, 67, 50
1, 1206829, Note_off_c, 0, 67, 58
1, 1206882, Note_on_c, 0, 77, 83
1, 1206896, Poly_aftertouch_c, 0, 64, 127
1, 1206900, Note_on_c, 0, 53, 73
1, 1206925, Control_c, 0, 64, 88
1, 1206928, Poly_aftertouch_c, 0, 64, 0
1, 1206940, Control_c, 0, 64, 68
1, 1206946, Note_off_c, 0, 84, 53
1, 1206955, Control_c, 0, 64, 0
1, 1206984, Control_c, 0, 64, 53
1, 1206999, Control_c, 0, 64, 65
1, 1207003, Note_on_c, 0, 62, 69
1, 1207014, Control_c, 0, 64, 74
1, 1207029, Control_c, 0, 64, 84
1, 1207044, Control_c, 0, 64, 103
1, 1207058, Control_c, 0, 64, 127
1, 1207065, Note_off_c, 0, 62, 62
1, 1207072, Note_on_c, 0, 65, 72
1, 1207105, Note_off_c, 0, 77, 57
1, 1207133, Note_off_c, 0, 65, 60
1, 1207134, Note_on_c, 0, 62, 73
1, 1207184, Note_off_c, 0, 62, 61
1, 1207198, Note_on_c, 0, 77, 87
1, 1207216, Note_off_c, 0, 70, 63
1, 1207223, Note_on_c, 0, 65, 62
1, 1207241, Note_off_c, 0, 77, 61
1, 1207254, Note_off_c, 0, 53, 54
1, 1207275, Note_on_c, 0, 62, 75
1, 1207276, Note_off_c, 0, 65, 62
1, 1207354, Note_off_c, 0, 62, 58
1, 1207373, Note_on_c, 0, 55, 72
1, 1207383, Note_on_c, 0, 77, 80
1, 1207394, Note_on_c, 0, 70, 66
1, 1207413, Control_c, 0, 64, 97
1, 1207428, Control_c, 0, 64, 74
1, 1207443, Control_c, 0, 64, 34
1, 1207458, Control_c, 0, 64, 0
1, 1207467, Note_on_c, 0, 60, 66
1, 1207509, Control_c, 0, 64, 54
1, 1207524, Control_c, 0, 64, 67
1, 1207539, Control_c, 0, 64, 75
1, 1207540, Note_off_c, 0, 60, 64
1, 1207554, Control_c, 0, 64, 87
1, 1207556, Note_on_c, 0, 64, 55
1, 1207569, Control_c, 0, 64, 107
1, 1207583, Control_c, 0, 64, 127
1, 1207616, Note_off_c, 0, 64, 61
1, 1207630, Note_on_c, 0, 60, 57
1, 1207663, Note_off_c, 0, 60, 64
1, 1207683, Note_on_c, 0, 76, 85
1, 1207716, Note_off_c, 0, 77, 65
1, 1207722, Note_on_c, 0, 64, 45
1, 1207751, Note_off_c, 0, 55, 63
1, 1207754, Note_off_c, 0, 64, 59
1, 1207765, Note_on_c, 0, 60, 61
1, 1207798, Note_off_c, 0, 60, 65
1, 1207888, Note_on_c, 0, 53, 59
1, 1207900, Note_on_c, 0, 79, 76
1, 1207923, Control_c, 0, 64, 92
1, 1207938, Control_c, 0, 64, 71
1, 1207953, Control_c, 0, 64, 0
1, 1208013, Control_c, 0, 64, 54
1, 1208013, Note_on_c, 0, 58, 54
1, 1208028, Control_c, 0, 64, 66
1, 1208042, Control_c, 0, 64, 73
1, 1208054, Note_off_c, 0, 79, 61
1, 1208057, Note_off_c, 0, 70, 62
1, 1208057, Control_c, 0, 64, 84
1, 1208060, Note_off_c, 0, 76, 58
1, 1208071, Note_off_c, 0, 58, 58
1, 1208072, Control_c, 0, 64, 96
1, 1208087, Control_c, 0, 64, 113
1, 1208102, Control_c, 0, 64, 127
1, 1208109, Note_on_c, 0, 62, 46
1, 1208142, Note_off_c, 0, 62, 58
1, 1208185, Note_on_c, 0, 58, 47
1, 1208207, Note_off_c, 0, 58, 63
1, 1208248, Note_on_c, 0, 74, 79
1, 1208272, Note_on_c, 0, 70, 57
1, 1208278, Note_on_c, 0, 62, 24
1, 1208281, Note_on_c, 0, 67, 47
1, 1208320, Note_off_c, 0, 53, 64
1, 1208322, Note_on_c, 0, 58, 46
1, 1208323, Note_off_c, 0, 62, 48
1, 1208430, Note_off_c, 0, 58, 52
1, 1208451, Note_on_c, 0, 52, 54
1, 1208510, Control_c, 0, 64, 99
1, 1208525, Control_c, 0, 64, 78
1, 1208540, Control_c, 0, 64, 65
1, 1208554, Control_c, 0, 64, 44
1, 1208569, Control_c, 0, 64, 36
1, 1208581, Note_on_c, 0, 58, 51
1, 1208584, Control_c, 0, 64, 38
1, 1208599, Control_c, 0, 64, 48
1, 1208614, Control_c, 0, 64, 58
1, 1208628, Control_c, 0, 64, 64
1, 1208643, Control_c, 0, 64, 68
1, 1208658, Control_c, 0, 64, 73
1, 1208672, Control_c, 0, 64, 78
1, 1208677, Note_off_c, 0, 58, 61
1, 1208687, Control_c, 0, 64, 86
1, 1208702, Control_c, 0, 64, 94
1, 1208717, Control_c, 0, 64, 106
1, 1208721, Note_on_c, 0, 60, 37
1, 1208732, Control_c, 0, 64, 124
1, 1208746, Control_c, 0, 64, 127
1, 1208766, Note_off_c, 0, 60, 49
1, 1208818, Note_on_c, 0, 58, 27
1, 1208832, Note_off_c, 0, 67, 60
1, 1208845, Note_off_c, 0, 70, 61
1, 1208846, Note_on_c, 0, 72, 67
1, 1208858, Note_off_c, 0, 58, 52
1, 1208862, Note_off_c, 0, 74, 62
1, 1208906, Note_off_c, 0, 52, 61
1, 1208924, Poly_aftertouch_c, 0, 60, 127
1, 1208938, Note_on_c, 0, 58, 38
1, 1208955, Poly_aftertouch_c, 0, 60, 0
1, 1208998, Note_off_c, 0, 58, 53
1, 1209064, Note_on_c, 0, 50, 47
1, 1209065, Note_on_c, 0, 77, 68
1, 1209066, Control_c, 0, 64, 95
1, 1209081, Control_c, 0, 64, 76
1, 1209086, Note_off_c, 0, 72, 57
1, 1209087, Note_on_c, 0, 65, 51
1, 1209095, Control_c, 0, 64, 60
1, 1209110, Control_c, 0, 64, 0
1, 1209140, Control_c, 0, 64, 34
1, 1209155, Control_c, 0, 64, 57
1, 1209169, Control_c, 0, 64, 65
1, 1209180, Note_off_c, 0, 77, 60
1, 1209184, Control_c, 0, 64, 71
1, 1209196, Note_on_c, 0, 58, 48
1, 1209199, Control_c, 0, 64, 79
1, 1209214, Control_c, 0, 64, 88
1, 1209229, Control_c, 0, 64, 100
1, 1209244, Control_c, 0, 64, 114
1, 1209245, Note_off_c, 0, 58, 59
1, 1209259, Control_c, 0, 64, 127
1, 1209289, Note_on_c, 0, 62, 36
1, 1209324, Note_off_c, 0, 62, 52
1, 1209342, Note_on_c, 0, 58, 43
1, 1209375, Note_off_c, 0, 58, 53
1, 1209421, Note_on_c, 0, 70, 75
1, 1209451, Note_on_c, 0, 62, 4
1, 1209473, Note_on_c, 0, 58, 50
1, 1209499, Note_off_c, 0, 50, 44
1, 1209505, Note_off_c, 0, 62, 36
1, 1209523, Note_off_c, 0, 58, 60
1, 1209602, Note_on_c, 0, 48, 60
1, 1209644, Control_c, 0, 64, 97
1, 1209644, Control_c, 0, 67, 9
1, 1209659, Control_c, 0, 64, 77
1, 1209659, Control_c, 0, 67, 13
1, 1209674, Control_c, 0, 64, 57
1, 1209674, Control_c, 0, 67, 17
1, 1209688, Control_c, 0, 64, 0
1, 1209688, Control_c, 0, 67, 22
1, 1209703, Control_c, 0, 67, 28
1, 1209719, Control_c, 0, 67, 35
1, 1209734, Control_c, 0, 67, 41
1, 1209757, Control_c, 0, 64, 19
1, 1209757, Control_c, 0, 67, 47
1, 1209757, Note_on_c, 0, 57, 51
1, 1209771, Control_c, 0, 64, 57
1, 1209771, Control_c, 0, 67, 53
1, 1209786, Control_c, 0, 64, 64
1, 1209786, Control_c, 0, 67, 58
1, 1209801, Control_c, 0, 64, 68
1, 1209801, Control_c, 0, 67, 63
1, 1209816, Control_c, 0, 64, 72
1, 1209816, Control_c, 0, 67, 68
1, 1209831, Control_c, 0, 64, 77
1, 1209831, Control_c, 0, 67, 71
1, 1209831, Note_off_c, 0, 57, 60
1, 1209846, Control_c, 0, 64, 83
1, 1209846, Control_c, 0, 67, 74
1, 1209848, Note_on_c, 0, 60, 38
1, 1209861, Control_c, 0, 64, 92
1, 1209861, Control_c, 0, 67, 76
1, 1209875, Control_c, 0, 64, 100
1, 1209875, Control_c, 0, 67, 76
1, 1209890, Control_c, 0, 64, 109
1, 1209905, Control_c, 0, 64, 127
1, 1209907, Note_off_c, 0, 60, 54
1, 1209989, Note_on_c, 0, 69, 68
1, 1210008, Control_c, 0, 67, 76
1, 1210014, Poly_aftertouch_c, 0, 57, 127
1, 1210018, Note_off_c, 0, 70, 62
1, 1210033, Note_off_c, 0, 65, 59
1, 1210044, Poly_aftertouch_c, 0, 57, 0
1, 1210058, Note_off_c, 0, 48, 39
1, 1210070, Poly_aftertouch_c, 0, 60, 127
1, 1210112, Note_on_c, 0, 57, 30
1, 1210115, Poly_aftertouch_c, 0, 60, 0
1, 1210219, Note_off_c, 0, 57, 37
1, 1210231, Control_c, 0, 67, 76
1, 1210245, Control_c, 0, 67, 77
1, 1210260, Note_on_c, 0, 48, 45
1, 1210260, Control_c, 0, 64, 105
1, 1210260, Control_c, 0, 67, 77
1, 1210269, Note_on_c, 0, 74, 66
1, 1210275, Control_c, 0, 64, 88
1, 1210275, Control_c, 0, 67, 78
1, 1210281, Note_on_c, 0, 65, 41
1, 1210286, Note_on_c, 0, 67, 46
1, 1210290, Control_c, 0, 64, 74
1, 1210290, Control_c, 0, 67, 79
1, 1210305, Control_c, 0, 64, 63
1, 1210305, Control_c, 0, 67, 82
1, 1210319, Control_c, 0, 64, 0
1, 1210319, Control_c, 0, 67, 87
1, 1210324, Note_off_c, 0, 69, 54
1, 1210334, Control_c, 0, 67, 93
1, 1210349, Control_c, 0, 67, 99
1, 1210364, Control_c, 0, 67, 106
1, 1210379, Control_c, 0, 67, 113
1, 1210393, Control_c, 0, 67, 119
1, 1210408, Control_c, 0, 67, 124
1, 1210409, Note_on_c, 0, 55, 49
1, 1210423, Control_c, 0, 67, 127
1, 1210437, Control_c, 0, 64, 51
1, 1210452, Control_c, 0, 64, 63
1, 1210467, Control_c, 0, 64, 66
1, 1210472, Note_off_c, 0, 55, 61
1, 1210482, Control_c, 0, 64, 70
1, 1210505, Control_c, 0, 64, 75
1, 1210520, Note_on_c, 0, 59, 37
1, 1210520, Control_c, 0, 64, 81
1, 1210535, Control_c, 0, 64, 89
1, 1210549, Control_c, 0, 64, 96
1, 1210564, Control_c, 0, 64, 104
1, 1210573, Note_off_c, 0, 59, 57
1, 1210579, Control_c, 0, 64, 112
1, 1210594, Control_c, 0, 64, 127
1, 1210619, Note_on_c, 0, 55, 36
1, 1210649, Note_off_c, 0, 55, 47
1, 1210698, Note_on_c, 0, 59, 32
1, 1210739, Note_off_c, 0, 59, 47
1, 1210743, Note_on_c, 0, 55, 44
1, 1210765, Note_off_c, 0, 48, 42
1, 1210866, Note_off_c, 0, 55, 53
1, 1210889, Note_on_c, 0, 48, 41
1, 1210964, Control_c, 0, 64, 105
1, 1210979, Control_c, 0, 64, 88
1, 1210994, Control_c, 0, 64, 74
1, 1211009, Control_c, 0, 64, 58
1, 1211023, Control_c, 0, 64, 0
1, 1211026, Note_on_c, 0, 55, 42
1, 1211082, Control_c, 0, 64, 28
1, 1211097, Control_c, 0, 64, 57
1, 1211099, Note_off_c, 0, 67, 30
1, 1211112, Control_c, 0, 64, 65
1, 1211113, Note_off_c, 0, 55, 60
1, 1211127, Control_c, 0, 64, 69
1, 1211141, Control_c, 0, 64, 73
1, 1211147, Note_on_c, 0, 58, 34
1, 1211156, Control_c, 0, 64, 78
1, 1211171, Control_c, 0, 64, 83
1, 1211186, Control_c, 0, 64, 90
1, 1211201, Control_c, 0, 64, 95
1, 1211208, Note_off_c, 0, 58, 44
1, 1211215, Control_c, 0, 64, 99
1, 1211230, Control_c, 0, 64, 104
1, 1211253, Control_c, 0, 64, 111
1, 1211260, Note_on_c, 0, 55, 41
1, 1211267, Control_c, 0, 64, 123
1, 1211282, Control_c, 0, 64, 127
1, 1211367, Note_off_c, 0, 55, 54
1, 1211390, Note_on_c, 0, 67, 48
1, 1211427, Note_off_c, 0, 74, 55
1, 1211429, Note_off_c, 0, 65, 57
1, 1211430, Note_on_c, 0, 58, 10
1, 1211477, Note_off_c, 0, 58, 52
1, 1211523, Note_on_c, 0, 55, 41
1, 1211670, Note_off_c, 0, 55, 58
1, 1211688, Note_on_c, 0, 72, 48
1, 1211704, Note_on_c, 0, 58, 39
1, 1211710, Note_on_c, 0, 64, 35
1, 1211712, Control_c, 0, 64, 111
1, 1211727, Control_c, 0, 64, 96
1, 1211742, Control_c, 0, 64, 83
1, 1211757, Control_c, 0, 64, 71
1, 1211772, Control_c, 0, 64, 61
1, 1211775, Note_off_c, 0, 58, 41
1, 1211787, Control_c, 0, 64, 38
1, 1211801, Control_c, 0, 64, 31
1, 1211824, Note_on_c, 0, 55, 37
1, 1211846, Control_c, 0, 64, 32
1, 1211861, Control_c, 0, 64, 37
1, 1211876, Control_c, 0, 64, 50
1, 1211890, Control_c, 0, 64, 60
1, 1211903, Note_off_c, 0, 55, 59
1, 1211905, Control_c, 0, 64, 64
1, 1211920, Control_c, 0, 64, 67
1, 1211935, Control_c, 0, 64, 70
1, 1211950, Control_c, 0, 64, 74
1, 1211964, Control_c, 0, 64, 78
1, 1211966, Note_on_c, 0, 58, 14
1, 1211979, Control_c, 0, 64, 83
1, 1212001, Control_c, 0, 64, 87
1, 1212016, Control_c, 0, 64, 91
1, 1212025, Note_off_c, 0, 58, 40
1, 1212031, Control_c, 0, 64, 95
1, 1212046, Control_c, 0, 64, 101
1, 1212061, Control_c, 0, 64, 106
1, 1212067, Note_on_c, 0, 55, 28
1, 1212076, Control_c, 0, 64, 115
1, 1212090, Control_c, 0, 64, 127
1, 1212100, Note_off_c, 0, 55, 52
1, 1212138, Note_on_c, 0, 58, 31
1, 1212177, Note_off_c, 0, 67, 56
1, 1212179, Note_off_c, 0, 64, 42
1, 1212219, Note_off_c, 0, 58, 39
1, 1212221, Note_off_c, 0, 72, 59
1, 1212239, Note_on_c, 0, 55, 34
1, 1212286, Note_off_c, 0, 55, 60
1, 1212361, Note_off_c, 0, 48, 40
1, 1212532, Note_on_c, 0, 41, 47
1, 1212615, Note_on_c, 0, 65, 43
1, 1212625, Control_c, 0, 64, 104
1, 1212639, Control_c, 0, 64, 88
1, 1212654, Control_c, 0, 64, 75
1, 1212669, Control_c, 0, 64, 64
1, 1212677, Note_on_c, 0, 69, 44
1, 1212684, Control_c, 0, 64, 39
1, 1212699, Control_c, 0, 64, 23
1, 1212729, Control_c, 0, 64, 24
1, 1212751, Control_c, 0, 64, 36
1, 1212764, Note_on_c, 0, 72, 55
1, 1212766, Control_c, 0, 64, 52
1, 1212781, Control_c, 0, 64, 63
1, 1212795, Control_c, 0, 64, 67
1, 1212810, Control_c, 0, 64, 72
1, 1212825, Control_c, 0, 64, 76
1, 1212839, Control_c, 0, 64, 82
1, 1212849, Note_off_c, 0, 41, 41
1, 1212854, Control_c, 0, 64, 88
1, 1212869, Control_c, 0, 64, 94
1, 1212884, Control_c, 0, 64, 99
1, 1212886, Note_on_c, 0, 77, 71
1, 1212899, Control_c, 0, 64, 107
1, 1212915, Control_c, 0, 64, 116
1, 1212930, Control_c, 0, 64, 127
1, 1213059, Note_on_c, 0, 57, 34
1, 1213067, Note_off_c, 0, 69, 58
1, 1213126, Note_off_c, 0, 57, 53
1, 1213196, Note_on_c, 0, 60, 47
1, 1213234, Note_off_c, 0, 60, 64
1, 1213264, Note_on_c, 0, 57, 49
1, 1213304, Note_off_c, 0, 57, 61
1, 1213334, Note_on_c, 0, 60, 47
1, 1213369, Note_off_c, 0, 60, 64
1, 1213411, Note_on_c, 0, 57, 49
1, 1213456, Note_off_c, 0, 57, 61
1, 1213465, Note_on_c, 0, 69, 72
1, 1213505, Note_on_c, 0, 60, 37
1, 1213539, Note_off_c, 0, 60, 63
1, 1213572, Note_on_c, 0, 57, 47
1, 1213576, Note_off_c, 0, 77, 45
1, 1213608, Note_off_c, 0, 57, 64
1, 1213635, Note_on_c, 0, 60, 49
1, 1213648, Control_c, 0, 67, 125
1, 1213662, Control_c, 0, 67, 120
1, 1213675, Note_off_c, 0, 60, 61
1, 1213677, Control_c, 0, 67, 114
1, 1213692, Control_c, 0, 67, 109
1, 1213694, Note_on_c, 0, 57, 53
1, 1213697, Note_off_c, 0, 65, 48
1, 1213707, Control_c, 0, 67, 102
1, 1213723, Control_c, 0, 67, 98
1, 1213729, Note_off_c, 0, 57, 64
1, 1213738, Control_c, 0, 67, 94
1, 1213739, Note_off_c, 0, 72, 58
1, 1213753, Control_c, 0, 67, 91
1, 1213767, Control_c, 0, 67, 89
1, 1213782, Control_c, 0, 67, 87
1, 1213797, Control_c, 0, 67, 86
1, 1213812, Control_c, 0, 67, 85
1, 1213815, Note_on_c, 0, 57, 55
1, 1213827, Control_c, 0, 67, 84
1, 1213834, Poly_aftertouch_c, 0, 60, 127
1, 1213841, Note_off_c, 0, 57, 64
1, 1213872, Poly_aftertouch_c, 0, 60, 0
1, 1213960, Control_c, 0, 67, 85
1, 1213975, Control_c, 0, 67, 85
1, 1213989, Control_c, 0, 67, 86
1, 1214002, Note_on_c, 0, 45, 50
1, 1214004, Control_c, 0, 67, 86
1, 1214019, Control_c, 0, 67, 87
1, 1214049, Control_c, 0, 67, 88
1, 1214064, Control_c, 0, 67, 88
1, 1214079, Control_c, 0, 64, 97
1, 1214088, Note_on_c, 0, 76, 72
1, 1214093, Control_c, 0, 64, 79
1, 1214093, Control_c, 0, 67, 89
1, 1214095, Note_on_c, 0, 72, 53
1, 1214108, Control_c, 0, 64, 64
1, 1214112, Note_on_c, 0, 64, 32
1, 1214123, Control_c, 0, 64, 0
1, 1214123, Control_c, 0, 67, 89
1, 1214197, Control_c, 0, 64, 46
1, 1214212, Control_c, 0, 64, 64
1, 1214222, Note_off_c, 0, 45, 62
1, 1214227, Control_c, 0, 64, 71
1, 1214249, Control_c, 0, 64, 77
1, 1214264, Control_c, 0, 64, 85
1, 1214279, Control_c, 0, 64, 95
1, 1214293, Note_on_c, 0, 57, 47
1, 1214293, Control_c, 0, 64, 104
1, 1214308, Control_c, 0, 64, 116
1, 1214323, Control_c, 0, 64, 127
1, 1214328, Note_off_c, 0, 57, 64
1, 1214395, Note_on_c, 0, 60, 54
1, 1214432, Note_off_c, 0, 60, 64
1, 1214478, Note_on_c, 0, 57, 35
1, 1214499, Note_off_c, 0, 64, 42
1, 1214508, Note_off_c, 0, 57, 55
1, 1214534, Note_on_c, 0, 60, 51
1, 1214546, Control_c, 0, 67, 89
1, 1214569, Note_off_c, 0, 60, 64
1, 1214575, Control_c, 0, 67, 88
1, 1214588, Note_on_c, 0, 57, 60
1, 1214604, Control_c, 0, 67, 88
1, 1214619, Control_c, 0, 67, 87
1, 1214634, Control_c, 0, 67, 87
1, 1214649, Control_c, 0, 67, 86
1, 1214663, Control_c, 0, 67, 86
1, 1214664, Note_off_c, 0, 57, 61
1, 1214678, Control_c, 0, 67, 85
1, 1214679, Note_on_c, 0, 60, 58
1, 1214692, Note_off_c, 0, 76, 59
1, 1214693, Control_c, 0, 67, 85
1, 1214708, Control_c, 0, 67, 84
1, 1214723, Control_c, 0, 67, 84
1, 1214730, Note_off_c, 0, 60, 59
1, 1214738, Control_c, 0, 67, 83
1, 1214741, Note_off_c, 0, 72, 34
1, 1214750, Note_on_c, 0, 57, 57
1, 1214753, Control_c, 0, 67, 82
1, 1214757, Note_off_c, 0, 69, 55
1, 1214767, Control_c, 0, 67, 78
1, 1214782, Control_c, 0, 67, 72
1, 1214797, Note_off_c, 0, 57, 60
1, 1214797, Control_c, 0, 67, 64
1, 1214812, Control_c, 0, 67, 57
1, 1214827, Control_c, 0, 67, 50
1, 1214828, Note_on_c, 0, 60, 55
1, 1214842, Control_c, 0, 67, 43
1, 1214856, Control_c, 0, 67, 37
1, 1214861, Note_off_c, 0, 60, 66
1, 1214871, Control_c, 0, 67, 30
1, 1214881, Note_on_c, 0, 57, 58
1, 1214886, Control_c, 0, 67, 23
1, 1214901, Control_c, 0, 67, 17
1, 1214915, Note_off_c, 0, 57, 64
1, 1214915, Control_c, 0, 67, 11
1, 1214930, Control_c, 0, 67, 0
1, 1214955, Note_on_c, 0, 60, 61
1, 1214991, Note_off_c, 0, 60, 65
1, 1214999, Note_on_c, 0, 57, 62
1, 1215026, Note_off_c, 0, 57, 56
1, 1215129, Note_on_c, 0, 43, 63
1, 1215175, Control_c, 0, 64, 104
1, 1215176, Note_on_c, 0, 67, 60
1, 1215189, Control_c, 0, 64, 74
1, 1215204, Control_c, 0, 64, 21
1, 1215219, Control_c, 0, 64, 0
1, 1215242, Note_on_c, 0, 70, 76
1, 1215278, Control_c, 0, 64, 50
1, 1215293, Control_c, 0, 64, 66
1, 1215310, Control_c, 0, 64, 75
1, 1215315, Note_on_c, 0, 74, 73
1, 1215325, Control_c, 0, 64, 86
1, 1215335, Note_off_c, 0, 43, 64
1, 1215339, Control_c, 0, 64, 104
1, 1215347, Note_on_c, 0, 79, 85
1, 1215354, Control_c, 0, 64, 127
1, 1215493, Note_on_c, 0, 58, 59
1, 1215543, Note_off_c, 0, 70, 62
1, 1215547, Note_off_c, 0, 58, 57
1, 1215584, Note_on_c, 0, 62, 55
1, 1215620, Note_off_c, 0, 62, 61
1, 1215652, Note_on_c, 0, 58, 68
1, 1215683, Note_off_c, 0, 58, 63
1, 1215716, Note_on_c, 0, 62, 63
1, 1215779, Note_off_c, 0, 62, 58
1, 1215793, Note_on_c, 0, 58, 70
1, 1215832, Note_on_c, 0, 70, 86
1, 1215842, Note_off_c, 0, 58, 61
1, 1215849, Note_off_c, 0, 79, 57
1, 1215857, Note_off_c, 0, 67, 60
1, 1215870, Note_on_c, 0, 62, 59
1, 1215911, Note_off_c, 0, 62, 56
1, 1215927, Note_on_c, 0, 58, 64
1, 1215963, Note_off_c, 0, 58, 63
1, 1215963, Note_off_c, 0, 74, 37
1, 1215966, Note_off_c, 0, 70, 54
1, 1216005, Note_on_c, 0, 62, 54
1, 1216043, Note_off_c, 0, 62, 60
1, 1216078, Note_on_c, 0, 58, 33
1, 1216100, Note_off_c, 0, 58, 62
1, 1216193, Poly_aftertouch_c, 0, 62, 0
1, 1216221, Poly_aftertouch_c, 0, 62, 0
1, 1216223, Poly_aftertouch_c, 0, 58, 127
1, 1216256, Poly_aftertouch_c, 0, 58, 0
1, 1216288, Note_on_c, 0, 46, 64
1, 1216340, Control_c, 0, 64, 121
1, 1216354, Control_c, 0, 64, 85
1, 1216369, Control_c, 0, 64, 65
1, 1216370, Note_on_c, 0, 77, 81
1, 1216380, Note_on_c, 0, 74, 66
1, 1216384, Control_c, 0, 64, 0
1, 1216395, Note_on_c, 0, 65, 57
1, 1216395, Note_on_c, 0, 70, 57
1, 1216443, Control_c, 0, 64, 48
1, 1216458, Control_c, 0, 64, 66
1, 1216473, Note_off_c, 0, 46, 61
1, 1216473, Control_c, 0, 64, 75
1, 1216495, Control_c, 0, 64, 87
1, 1216510, Control_c, 0, 64, 110
1, 1216525, Control_c, 0, 64, 127
1, 1216591, Note_on_c, 0, 58, 59
1, 1216631, Note_off_c, 0, 58, 58
1, 1216681, Note_on_c, 0, 62, 54
1, 1216716, Note_off_c, 0, 62, 60
1, 1216735, Note_on_c, 0, 58, 64
1, 1216794, Note_off_c, 0, 58, 60
1, 1216808, Note_on_c, 0, 62, 63
1, 1216809, Note_off_c, 0, 65, 59
1, 1216869, Note_off_c, 0, 62, 60
1, 1216871, Note_on_c, 0, 58, 70
1, 1216904, Note_off_c, 0, 77, 58
1, 1216943, Note_off_c, 0, 70, 57
1, 1216947, Note_off_c, 0, 58, 62
1, 1216949, Note_off_c, 0, 74, 63
1, 1216964, Note_on_c, 0, 62, 73
1, 1217020, Note_on_c, 0, 58, 71
1, 1217023, Note_off_c, 0, 62, 61
1, 1217079, Note_off_c, 0, 58, 63
1, 1217104, Note_on_c, 0, 62, 66
1, 1217162, Note_on_c, 0, 58, 74
1, 1217167, Note_off_c, 0, 62, 61
1, 1217214, Note_off_c, 0, 58, 63
1, 1217234, Note_on_c, 0, 70, 90
1, 1217261, Note_on_c, 0, 62, 61
1, 1217318, Note_on_c, 0, 58, 78
1, 1217319, Note_off_c, 0, 62, 58
1, 1217343, Note_off_c, 0, 58, 68
1, 1217462, Note_on_c, 0, 51, 61
1, 1217525, Control_c, 0, 64, 100
1, 1217540, Control_c, 0, 64, 77
1, 1217555, Control_c, 0, 64, 53
1, 1217570, Control_c, 0, 64, 0
1, 1217572, Note_on_c, 0, 82, 91
1, 1217593, Note_on_c, 0, 79, 67
1, 1217599, Control_c, 0, 64, 38
1, 1217614, Control_c, 0, 64, 62
1, 1217629, Control_c, 0, 64, 70
1, 1217644, Control_c, 0, 64, 80
1, 1217659, Control_c, 0, 64, 101
1, 1217670, Note_off_c, 0, 51, 64
1, 1217674, Control_c, 0, 64, 127
1, 1217754, Note_on_c, 0, 63, 62
1, 1217788, Note_off_c, 0, 63, 64
1, 1217830, Note_on_c, 0, 67, 61
1, 1217861, Note_off_c, 0, 67, 63
1, 1217883, Note_on_c, 0, 63, 63
1, 1217910, Note_off_c, 0, 63, 66
1, 1217921, Note_off_c, 0, 79, 52
1, 1217940, Note_on_c, 0, 67, 63
1, 1217965, Note_off_c, 0, 67, 68
1, 1217974, Note_on_c, 0, 63, 73
1, 1218007, Note_off_c, 0, 63, 65
1, 1218052, Control_c, 0, 64, 100
1, 1218064, Note_on_c, 0, 79, 76
1, 1218067, Control_c, 0, 64, 74
1, 1218077, Note_on_c, 0, 50, 79
1, 1218082, Control_c, 0, 64, 49
1, 1218097, Control_c, 0, 64, 46
1, 1218110, Note_off_c, 0, 50, 67
1, 1218112, Control_c, 0, 64, 62
1, 1218114, Note_off_c, 0, 70, 60
1, 1218122, Note_off_c, 0, 82, 61
1, 1218127, Control_c, 0, 64, 69
1, 1218141, Control_c, 0, 64, 82
1, 1218156, Control_c, 0, 64, 105
1, 1218171, Control_c, 0, 64, 127
1, 1218214, Note_on_c, 0, 62, 69
1, 1218281, Note_off_c, 0, 62, 60
1, 1218295, Note_on_c, 0, 67, 70
1, 1218353, Note_off_c, 0, 67, 58
1, 1218364, Note_on_c, 0, 62, 57
1, 1218387, Note_on_c, 0, 77, 70
1, 1218392, Note_off_c, 0, 62, 66
1, 1218393, Note_on_c, 0, 83, 95
1, 1218400, Note_on_c, 0, 71, 85
1, 1218409, Note_off_c, 0, 79, 60
1, 1218443, Note_off_c, 0, 77, 62
1, 1218445, Note_on_c, 0, 67, 62
1, 1218468, Note_off_c, 0, 67, 68
1, 1218506, Note_on_c, 0, 62, 30
1, 1218542, Note_off_c, 0, 62, 50
1, 1218643, Note_on_c, 0, 48, 64
1, 1218661, Control_c, 0, 64, 91
1, 1218665, Note_on_c, 0, 77, 76
1, 1218675, Control_c, 0, 64, 70
1, 1218690, Control_c, 0, 64, 0
1, 1218742, Control_c, 0, 64, 14
1, 1218746, Note_off_c, 0, 48, 62
1, 1218756, Control_c, 0, 64, 61
1, 1218771, Control_c, 0, 64, 69
1, 1218786, Control_c, 0, 64, 77
1, 1218801, Control_c, 0, 64, 92
1, 1218816, Control_c, 0, 64, 114
1, 1218830, Control_c, 0, 64, 127
1, 1218870, Note_on_c, 0, 60, 56
1, 1218920, Note_off_c, 0, 60, 60
1, 1218966, Note_on_c, 0, 67, 55
1, 1219000, Note_off_c, 0, 67, 62
1, 1219005, Note_off_c, 0, 71, 61
1, 1219031, Note_on_c, 0, 60, 57
1, 1219035, Note_on_c, 0, 76, 75
1, 1219039, Note_off_c, 0, 83, 60
1, 1219044, Note_off_c, 0, 77, 62
1, 1219078, Note_off_c, 0, 60, 62
1, 1219117, Note_on_c, 0, 67, 51
1, 1219152, Note_off_c, 0, 67, 62
1, 1219184, Note_on_c, 0, 60, 57
1, 1219225, Note_off_c, 0, 60, 63
1, 1219234, Note_on_c, 0, 84, 84
1, 1219239, Note_on_c, 0, 79, 68
1, 1219244, Note_on_c, 0, 72, 65
1, 1219257, Note_on_c, 0, 67, 58
1, 1219260, Control_c, 0, 64, 88
1, 1219275, Control_c, 0, 64, 73
1, 1219279, Note_off_c, 0, 76, 61
1, 1219289, Control_c, 0, 64, 65
1, 1219296, Note_off_c, 0, 67, 57
1, 1219320, Control_c, 0, 64, 68
1, 1219335, Control_c, 0, 64, 73
1, 1219336, Note_on_c, 0, 60, 53
1, 1219350, Control_c, 0, 64, 80
1, 1219365, Control_c, 0, 64, 93
1, 1219372, Note_off_c, 0, 60, 61
1, 1219379, Control_c, 0, 64, 110
1, 1219385, Note_off_c, 0, 84, 59
1, 1219390, Note_off_c, 0, 72, 57
1, 1219394, Control_c, 0, 64, 127
1, 1219412, Note_on_c, 0, 67, 56
1, 1219444, Note_off_c, 0, 67, 63
1, 1219457, Note_off_c, 0, 79, 59
1, 1219528, Poly_aftertouch_c, 0, 60, 127
1, 1219539, Note_on_c, 0, 67, 52
1, 1219542, Poly_aftertouch_c, 0, 60, 0
1, 1219579, Poly_aftertouch_c, 0, 60, 127
1, 1219582, Note_on_c, 0, 60, 22
1, 1219582, Note_off_c, 0, 67, 62
1, 1219624, Note_off_c, 0, 60, 63
1, 1219762, Note_on_c, 0, 48, 54
1, 1219830, Control_c, 0, 64, 113
1, 1219843, Note_on_c, 0, 79, 76
1, 1219845, Control_c, 0, 64, 85
1, 1219850, Note_on_c, 0, 76, 65
1, 1219857, Note_on_c, 0, 67, 58
1, 1219860, Control_c, 0, 64, 71
1, 1219875, Control_c, 0, 64, 64
1, 1219890, Control_c, 0, 64, 64
1, 1219895, Note_off_c, 0, 48, 63
1, 1219904, Control_c, 0, 64, 68
1, 1219919, Control_c, 0, 64, 73
1, 1219934, Control_c, 0, 64, 81
1, 1219949, Control_c, 0, 64, 92
1, 1219964, Control_c, 0, 64, 107
1, 1219978, Control_c, 0, 64, 127
1, 1220025, Note_on_c, 0, 60, 57
1, 1220063, Note_off_c, 0, 60, 62
1, 1220094, Note_on_c, 0, 64, 58
1, 1220127, Note_off_c, 0, 64, 63
1, 1220160, Note_on_c, 0, 60, 65
1, 1220169, Note_off_c, 0, 76, 63
1, 1220187, Note_off_c, 0, 60, 67
1, 1220231, Note_on_c, 0, 64, 64
1, 1220258, Note_off_c, 0, 64, 67
1, 1220261, Note_on_c, 0, 60, 66
1, 1220284, Note_off_c, 0, 60, 70
1, 1220379, Note_on_c, 0, 76, 80
1, 1220387, Control_c, 0, 64, 94
1, 1220396, Note_on_c, 0, 46, 74
1, 1220401, Control_c, 0, 64, 74
1, 1220416, Control_c, 0, 64, 57
1, 1220431, Control_c, 0, 64, 54
1, 1220446, Control_c, 0, 64, 62
1, 1220448, Note_off_c, 0, 46, 60
1, 1220451, Note_off_c, 0, 79, 60
1, 1220452, Note_off_c, 0, 67, 59
1, 1220461, Control_c, 0, 64, 67
1, 1220476, Control_c, 0, 64, 74
1, 1220491, Control_c, 0, 64, 84
1, 1220506, Control_c, 0, 64, 104
1, 1220521, Control_c, 0, 64, 127
1, 1220559, Note_on_c, 0, 58, 64
1, 1220613, Note_off_c, 0, 58, 59
1, 1220646, Note_on_c, 0, 64, 55
1, 1220683, Note_off_c, 0, 64, 61
1, 1220714, Note_on_c, 0, 58, 58
1, 1220738, Note_off_c, 0, 58, 67
1, 1220774, Note_on_c, 0, 80, 84
1, 1220784, Note_on_c, 0, 74, 68
1, 1220786, Note_on_c, 0, 68, 62
1, 1220792, Note_off_c, 0, 76, 60
1, 1220798, Note_on_c, 0, 64, 43
1, 1220819, Note_off_c, 0, 74, 63
1, 1220826, Note_off_c, 0, 64, 62
1, 1220838, Note_on_c, 0, 58, 55
1, 1220866, Note_off_c, 0, 58, 64
1, 1221032, Control_c, 0, 64, 103
1, 1221038, Note_on_c, 0, 45, 55
1, 1221047, Control_c, 0, 64, 78
1, 1221062, Control_c, 0, 64, 59
1, 1221067, Note_on_c, 0, 74, 72
1, 1221076, Control_c, 0, 64, 0
1, 1221121, Control_c, 0, 64, 48
1, 1221132, Note_off_c, 0, 45, 64
1, 1221136, Control_c, 0, 64, 65
1, 1221150, Control_c, 0, 64, 72
1, 1221165, Control_c, 0, 64, 80
1, 1221180, Control_c, 0, 64, 96
1, 1221195, Control_c, 0, 64, 118
1, 1221209, Control_c, 0, 64, 127
1, 1221269, Note_on_c, 0, 57, 51
1, 1221325, Note_off_c, 0, 57, 55
1, 1221386, Note_on_c, 0, 64, 35
1, 1221395, Note_off_c, 0, 80, 53
1, 1221404, Note_off_c, 0, 74, 62
1, 1221408, Note_off_c, 0, 68, 59
1, 1221418, Note_on_c, 0, 73, 65
1, 1221418, Note_off_c, 0, 64, 55
1, 1221454, Note_on_c, 0, 57, 47
1, 1221490, Note_off_c, 0, 57, 63
1, 1221537, Note_on_c, 0, 64, 40
1, 1221569, Note_off_c, 0, 64, 58
1, 1221597, Note_on_c, 0, 57, 50
1, 1221609, Control_c, 0, 67, 8
1, 1221624, Control_c, 0, 67, 9
1, 1221631, Note_on_c, 0, 81, 74
1, 1221638, Note_on_c, 0, 76, 56
1, 1221638, Control_c, 0, 67, 10
1, 1221651, Note_on_c, 0, 69, 53
1, 1221653, Note_off_c, 0, 57, 60
1, 1221653, Control_c, 0, 67, 12
1, 1221665, Note_off_c, 0, 73, 52
1, 1221668, Control_c, 0, 64, 95
1, 1221668, Control_c, 0, 67, 15
1, 1221682, Note_on_c, 0, 64, 45
1, 1221683, Control_c, 0, 64, 78
1, 1221683, Control_c, 0, 67, 17
1, 1221698, Control_c, 0, 64, 68
1, 1221698, Control_c, 0, 67, 20
1, 1221713, Control_c, 0, 64, 64
1, 1221713, Control_c, 0, 67, 24
1, 1221736, Control_c, 0, 64, 66
1, 1221736, Control_c, 0, 67, 29
1, 1221737, Note_off_c, 0, 64, 62
1, 1221751, Control_c, 0, 64, 70
1, 1221751, Control_c, 0, 67, 36
1, 1221766, Control_c, 0, 64, 75
1, 1221766, Control_c, 0, 67, 45
1, 1221772, Note_on_c, 0, 57, 49
1, 1221780, Control_c, 0, 64, 82
1, 1221780, Control_c, 0, 67, 56
1, 1221795, Control_c, 0, 64, 90
1, 1221795, Control_c, 0, 67, 66
1, 1221805, Note_off_c, 0, 57, 65
1, 1221810, Control_c, 0, 64, 99
1, 1221810, Control_c, 0, 67, 74
1, 1221824, Note_off_c, 0, 81, 59
1, 1221824, Control_c, 0, 64, 110
1, 1221824, Control_c, 0, 67, 81
1, 1221835, Note_off_c, 0, 69, 58
1, 1221839, Control_c, 0, 64, 127
1, 1221839, Control_c, 0, 67, 87
1, 1221847, Note_on_c, 0, 64, 51
1, 1221854, Control_c, 0, 67, 92
1, 1221869, Control_c, 0, 67, 95
1, 1221880, Note_off_c, 0, 64, 61
1, 1221882, Note_off_c, 0, 76, 60
1, 1221884, Control_c, 0, 67, 98
1, 1221898, Control_c, 0, 67, 99
1, 1221900, Note_on_c, 0, 57, 51
1, 1221913, Control_c, 0, 67, 100
1, 1221932, Note_off_c, 0, 57, 63
1, 1221975, Note_on_c, 0, 64, 49
1, 1222003, Note_off_c, 0, 64, 65
1, 1222032, Note_on_c, 0, 57, 35
1, 1222059, Note_off_c, 0, 57, 57
1, 1222092, Control_c, 0, 67, 99
1, 1222106, Control_c, 0, 67, 99
1, 1222160, Note_on_c, 0, 45, 54
1, 1222248, Note_on_c, 0, 73, 75
1, 1222270, Control_c, 0, 64, 118
1, 1222273, Note_on_c, 0, 64, 50
1, 1222285, Control_c, 0, 64, 90
1, 1222299, Control_c, 0, 64, 74
1, 1222314, Control_c, 0, 64, 62
1, 1222329, Control_c, 0, 64, 60
1, 1222344, Control_c, 0, 64, 63
1, 1222344, Control_c, 0, 67, 98
1, 1222359, Control_c, 0, 64, 66
1, 1222359, Control_c, 0, 67, 98
1, 1222371, Note_on_c, 0, 52, 54
1, 1222373, Control_c, 0, 64, 71
1, 1222373, Control_c, 0, 67, 97
1, 1222388, Control_c, 0, 64, 77
1, 1222388, Control_c, 0, 67, 96
1, 1222403, Control_c, 0, 64, 86
1, 1222403, Control_c, 0, 67, 95
1, 1222417, Control_c, 0, 64, 96
1, 1222417, Control_c, 0, 67, 93
1, 1222432, Control_c, 0, 64, 108
1, 1222432, Control_c, 0, 67, 92
1, 1222434, Note_off_c, 0, 52, 60
1, 1222447, Control_c, 0, 64, 127
1, 1222447, Control_c, 0, 67, 90
1, 1222455, Note_on_c, 0, 57, 52
1, 1222462, Control_c, 0, 67, 88
1, 1222485, Control_c, 0, 67, 86
1, 1222500, Control_c, 0, 67, 82
1, 1222515, Control_c, 0, 67, 77
1, 1222519, Note_off_c, 0, 57, 57
1, 1222530, Note_on_c, 0, 52, 52
1, 1222530, Control_c, 0, 67, 71
1, 1222545, Control_c, 0, 67, 65
1, 1222560, Control_c, 0, 67, 58
1, 1222562, Note_off_c, 0, 52, 63
1, 1222574, Control_c, 0, 67, 49
1, 1222589, Control_c, 0, 67, 41
1, 1222604, Note_on_c, 0, 57, 43
1, 1222604, Control_c, 0, 67, 34
1, 1222619, Control_c, 0, 67, 29
1, 1222634, Control_c, 0, 67, 27
1, 1222645, Note_on_c, 0, 52, 62
1, 1222648, Control_c, 0, 67, 26
1, 1222680, Note_off_c, 0, 45, 42
1, 1222698, Note_off_c, 0, 57, 35
1, 1222732, Note_off_c, 0, 52, 55
1, 1222737, Control_c, 0, 67, 27
1, 1222752, Control_c, 0, 67, 27
1, 1222759, Note_on_c, 0, 63, 70
1, 1222767, Control_c, 0, 67, 28
1, 1222770, Note_on_c, 0, 45, 65
1, 1222782, Control_c, 0, 67, 29
1, 1222796, Control_c, 0, 67, 30
1, 1222811, Control_c, 0, 67, 30
1, 1222826, Control_c, 0, 64, 94
1, 1222826, Control_c, 0, 67, 31
1, 1222841, Control_c, 0, 64, 74
1, 1222841, Control_c, 0, 67, 31
1, 1222855, Control_c, 0, 64, 54
1, 1222855, Control_c, 0, 67, 32
1, 1222858, Note_off_c, 0, 64, 53
1, 1222859, Note_on_c, 0, 53, 63
1, 1222870, Control_c, 0, 64, 0
1, 1222926, Note_off_c, 0, 53, 65
1, 1222944, Note_on_c, 0, 57, 55
1, 1222944, Control_c, 0, 64, 58
1, 1222959, Control_c, 0, 64, 66
1, 1222974, Control_c, 0, 64, 73
1, 1222989, Control_c, 0, 64, 81
1, 1222992, Note_off_c, 0, 57, 58
1, 1223004, Control_c, 0, 64, 91
1, 1223012, Note_on_c, 0, 53, 57
1, 1223019, Control_c, 0, 64, 103
1, 1223034, Control_c, 0, 64, 127
1, 1223042, Note_off_c, 0, 53, 66
1, 1223093, Control_c, 0, 67, 32
1, 1223108, Control_c, 0, 67, 34
1, 1223122, Control_c, 0, 67, 36
1, 1223128, Note_on_c, 0, 57, 26
1, 1223129, Note_off_c, 0, 45, 60
1, 1223137, Control_c, 0, 67, 38
1, 1223142, Note_on_c, 0, 53, 57
1, 1223152, Control_c, 0, 67, 40
1, 1223166, Note_off_c, 0, 57, 50
1, 1223167, Control_c, 0, 67, 47
1, 1223181, Control_c, 0, 67, 57
1, 1223196, Control_c, 0, 67, 69
1, 1223211, Control_c, 0, 67, 83
1, 1223233, Control_c, 0, 67, 94
1, 1223248, Control_c, 0, 67, 103
1, 1223263, Control_c, 0, 67, 111
1, 1223278, Control_c, 0, 67, 119
1, 1223289, Note_off_c, 0, 53, 55
1, 1223293, Control_c, 0, 67, 125
1, 1223308, Control_c, 0, 64, 113
1, 1223308, Control_c, 0, 67, 127
1, 1223323, Control_c, 0, 64, 89
1, 1223326, Note_on_c, 0, 46, 52
1, 1223334, Note_on_c, 0, 62, 50
1, 1223338, Control_c, 0, 64, 71
1, 1223352, Control_c, 0, 64, 31
1, 1223367, Control_c, 0, 64, 0
1, 1223385, Note_off_c, 0, 63, 59
1, 1223486, Control_c, 0, 64, 38
1, 1223487, Note_on_c, 0, 53, 50
1, 1223501, Control_c, 0, 64, 63
1, 1223516, Control_c, 0, 64, 69
1, 1223531, Control_c, 0, 64, 75
1, 1223545, Control_c, 0, 64, 83
1, 1223560, Note_off_c, 0, 73, 61
1, 1223560, Control_c, 0, 64, 90
1, 1223561, Note_off_c, 0, 53, 65
1, 1223575, Control_c, 0, 64, 96
1, 1223590, Control_c, 0, 64, 101
1, 1223598, Note_on_c, 0, 58, 46
1, 1223604, Control_c, 0, 64, 106
1, 1223619, Control_c, 0, 64, 111
1, 1223634, Control_c, 0, 64, 127
1, 1223642, Note_off_c, 0, 58, 54
1, 1223695, Note_on_c, 0, 53, 43
1, 1223745, Note_off_c, 0, 53, 61
1, 1223756, Note_on_c, 0, 74, 70
1, 1223767, Control_c, 0, 67, 126
1, 1223782, Control_c, 0, 67, 125
1, 1223794, Note_on_c, 0, 58, 30
1, 1223797, Control_c, 0, 67, 123
1, 1223812, Control_c, 0, 67, 122
1, 1223826, Control_c, 0, 67, 119
1, 1223841, Control_c, 0, 67, 116
1, 1223844, Note_off_c, 0, 58, 47
1, 1223856, Control_c, 0, 67, 111
1, 1223871, Control_c, 0, 67, 105
1, 1223886, Control_c, 0, 67, 98
1, 1223887, Note_on_c, 0, 53, 41
1, 1223901, Control_c, 0, 67, 91
1, 1223916, Control_c, 0, 67, 85
1, 1223931, Control_c, 0, 67, 78
1, 1223945, Control_c, 0, 67, 71
1, 1223952, Note_off_c, 0, 53, 60
1, 1223960, Control_c, 0, 67, 63
1, 1223977, Note_on_c, 0, 76, 80
1, 1223982, Control_c, 0, 67, 57
1, 1223994, Note_on_c, 0, 58, 42
1, 1223997, Control_c, 0, 67, 53
1, 1224011, Control_c, 0, 67, 49
1, 1224026, Control_c, 0, 67, 47
1, 1224041, Control_c, 0, 67, 46
1, 1224042, Note_off_c, 0, 58, 58
1, 1224049, Note_off_c, 0, 62, 34
1, 1224056, Control_c, 0, 67, 45
1, 1224078, Note_off_c, 0, 74, 53
1, 1224092, Note_on_c, 0, 53, 49
1, 1224101, Control_c, 0, 67, 44
1, 1224125, Note_off_c, 0, 53, 65
1, 1224152, Note_on_c, 0, 58, 50
1, 1224191, Note_off_c, 0, 58, 56
1, 1224217, Note_on_c, 0, 53, 55
1, 1224249, Note_off_c, 0, 53, 66
1, 1224305, Note_on_c, 0, 77, 80
1, 1224328, Note_on_c, 0, 58, 29
1, 1224330, Note_off_c, 0, 76, 60
1, 1224360, Note_off_c, 0, 77, 63
1, 1224366, Note_on_c, 0, 53, 45
1, 1224367, Note_off_c, 0, 46, 60
1, 1224383, Control_c, 0, 67, 45
1, 1224413, Control_c, 0, 67, 45
1, 1224427, Control_c, 0, 67, 46
1, 1224457, Control_c, 0, 67, 46
1, 1224459, Note_off_c, 0, 53, 61
1, 1224472, Control_c, 0, 67, 47
1, 1224501, Control_c, 0, 67, 48
1, 1224502, Note_on_c, 0, 46, 55
1, 1224510, Note_on_c, 0, 67, 68
1, 1224516, Control_c, 0, 64, 114
1, 1224516, Control_c, 0, 67, 49
1, 1224521, Note_on_c, 0, 65, 55
1, 1224522, Note_off_c, 0, 58, 17
1, 1224531, Control_c, 0, 64, 91
1, 1224531, Control_c, 0, 67, 49
1, 1224546, Control_c, 0, 64, 75
1, 1224546, Control_c, 0, 67, 50
1, 1224561, Control_c, 0, 64, 62
1, 1224575, Control_c, 0, 64, 0
1, 1224575, Control_c, 0, 67, 50
1, 1224630, Note_on_c, 0, 55, 47
1, 1224649, Control_c, 0, 64, 37
1, 1224664, Control_c, 0, 64, 58
1, 1224679, Control_c, 0, 64, 65
1, 1224694, Control_c, 0, 64, 69
1, 1224699, Note_off_c, 0, 55, 64
1, 1224709, Control_c, 0, 64, 73
1, 1224730, Note_on_c, 0, 58, 50
1, 1224731, Control_c, 0, 64, 79
1, 1224746, Control_c, 0, 64, 86
1, 1224761, Control_c, 0, 64, 94
1, 1224775, Control_c, 0, 64, 103
1, 1224785, Note_off_c, 0, 58, 59
1, 1224790, Control_c, 0, 64, 116
1, 1224801, Note_on_c, 0, 55, 58
1, 1224805, Control_c, 0, 64, 127
1, 1224834, Control_c, 0, 67, 51
1, 1224849, Control_c, 0, 67, 51
1, 1224852, Note_off_c, 0, 55, 58
1, 1224864, Control_c, 0, 67, 52
1, 1224879, Control_c, 0, 67, 52
1, 1224882, Note_on_c, 0, 70, 71
1, 1224910, Control_c, 0, 67, 53
1, 1224915, Note_on_c, 0, 58, 37
1, 1224924, Control_c, 0, 67, 53
1, 1224939, Control_c, 0, 67, 54
1, 1224948, Note_off_c, 0, 58, 55
1, 1224954, Control_c, 0, 67, 54
1, 1224969, Control_c, 0, 67, 55
1, 1224971, Note_on_c, 0, 55, 58
1, 1224984, Control_c, 0, 67, 56
1, 1224998, Control_c, 0, 67, 57
1, 1225013, Note_off_c, 0, 55, 58
1, 1225013, Control_c, 0, 67, 57
1, 1225028, Control_c, 0, 67, 58
1, 1225043, Control_c, 0, 67, 60
1, 1225050, Note_on_c, 0, 58, 47
1, 1225058, Control_c, 0, 67, 63
1, 1225072, Control_c, 0, 67, 68
1, 1225087, Control_c, 0, 67, 72
1, 1225088, Note_on_c, 0, 72, 65
1, 1225091, Note_off_c, 0, 67, 49
1, 1225102, Control_c, 0, 67, 77
1, 1225111, Note_off_c, 0, 58, 57
1, 1225117, Control_c, 0, 67, 83
1, 1225130, Note_on_c, 0, 55, 56
1, 1225132, Control_c, 0, 64, 103
1, 1225132, Control_c, 0, 67, 90
1, 1225144, Note_off_c, 0, 70, 57
1, 1225147, Control_c, 0, 64, 86
1, 1225147, Control_c, 0, 67, 95
1, 1225162, Control_c, 0, 64, 70
1, 1225162, Control_c, 0, 67, 100
1, 1225172, Note_off_c, 0, 55, 62
1, 1225177, Control_c, 0, 64, 46
1, 1225177, Control_c, 0, 67, 106
1, 1225191, Control_c, 0, 64, 0
1, 1225191, Control_c, 0, 67, 110
1, 1225206, Control_c, 0, 67, 113
1, 1225221, Control_c, 0, 67, 115
1, 1225226, Note_on_c, 0, 58, 30
1, 1225236, Control_c, 0, 67, 117
1, 1225250, Control_c, 0, 67, 118
1, 1225263, Note_off_c, 0, 58, 54
1, 1225272, Note_on_c, 0, 55, 51
1, 1225280, Control_c, 0, 64, 21
1, 1225295, Control_c, 0, 64, 59
1, 1225310, Control_c, 0, 64, 66
1, 1225310, Control_c, 0, 67, 117
1, 1225311, Note_off_c, 0, 55, 62
1, 1225324, Control_c, 0, 64, 72
1, 1225324, Control_c, 0, 67, 117
1, 1225339, Control_c, 0, 64, 78
1, 1225339, Control_c, 0, 67, 116
1, 1225354, Control_c, 0, 64, 88
1, 1225354, Control_c, 0, 67, 115
1, 1225359, Note_on_c, 0, 58, 51
1, 1225368, Control_c, 0, 64, 97
1, 1225368, Control_c, 0, 67, 114
1, 1225383, Control_c, 0, 64, 106
1, 1225383, Control_c, 0, 67, 113
1, 1225398, Control_c, 0, 64, 118
1, 1225413, Control_c, 0, 64, 127
1, 1225413, Control_c, 0, 67, 113
1, 1225416, Note_off_c, 0, 46, 54
1, 1225420, Note_on_c, 0, 74, 67
1, 1225433, Note_on_c, 0, 55, 38
1, 1225442, Control_c, 0, 67, 112
1, 1225452, Note_off_c, 0, 65, 43
1, 1225456, Note_off_c, 0, 72, 60
1, 1225494, Note_off_c, 0, 58, 35
1, 1225512, Note_off_c, 0, 74, 61
1, 1225613, Control_c, 0, 67, 113
1, 1225628, Control_c, 0, 67, 113
1, 1225639, Note_on_c, 0, 64, 59
1, 1225642, Note_on_c, 0, 48, 50
1, 1225642, Control_c, 0, 67, 114
1, 1225657, Control_c, 0, 64, 114
1, 1225657, Control_c, 0, 67, 114
1, 1225672, Control_c, 0, 64, 101
1, 1225672, Control_c, 0, 67, 115
1, 1225687, Control_c, 0, 64, 90
1, 1225687, Control_c, 0, 67, 115
1, 1225703, Control_c, 0, 64, 81
1, 1225703, Control_c, 0, 67, 116
1, 1225718, Control_c, 0, 64, 72
1, 1225718, Control_c, 0, 67, 117
1, 1225733, Control_c, 0, 64, 64
1, 1225733, Control_c, 0, 67, 117
1, 1225747, Control_c, 0, 64, 53
1, 1225747, Control_c, 0, 67, 118
1, 1225762, Control_c, 0, 64, 36
1, 1225762, Control_c, 0, 67, 119
1, 1225777, Control_c, 0, 64, 0
1, 1225777, Control_c, 0, 67, 122
1, 1225791, Control_c, 0, 67, 127
1, 1225806, Control_c, 0, 67, 127
1, 1225880, Control_c, 0, 64, 38
1, 1225895, Control_c, 0, 64, 59
1, 1225910, Control_c, 0, 64, 65
1, 1225925, Control_c, 0, 64, 68
1, 1225940, Control_c, 0, 64, 71
1, 1225955, Control_c, 0, 64, 75
1, 1225970, Control_c, 0, 64, 81
1, 1225985, Control_c, 0, 64, 86
1, 1225999, Control_c, 0, 64, 90
1, 1226014, Control_c, 0, 64, 93
1, 1226019, Note_on_c, 0, 65, 58
1, 1226029, Control_c, 0, 64, 95
1, 1226035, Note_on_c, 0, 57, 43
1, 1226044, Control_c, 0, 64, 96
1, 1226059, Control_c, 0, 64, 97
1, 1226068, Note_off_c, 0, 57, 53
1, 1226162, Control_c, 0, 64, 96
1, 1226177, Control_c, 0, 64, 94
1, 1226191, Control_c, 0, 64, 93
1, 1226206, Control_c, 0, 64, 89
1, 1226229, Control_c, 0, 64, 85
1, 1226237, Note_on_c, 0, 69, 61
1, 1226244, Control_c, 0, 64, 80
1, 1226253, Note_on_c, 0, 60, 42
1, 1226259, Control_c, 0, 64, 74
1, 1226267, Note_off_c, 0, 64, 39
1, 1226273, Control_c, 0, 64, 68
1, 1226288, Control_c, 0, 64, 64
1, 1226303, Control_c, 0, 64, 62
1, 1226318, Control_c, 0, 64, 61
1, 1226333, Control_c, 0, 64, 59
1, 1226347, Control_c, 0, 64, 55
1, 1226362, Control_c, 0, 64, 51
1, 1226377, Control_c, 0, 64, 47
1, 1226391, Control_c, 0, 64, 44
1, 1226406, Control_c, 0, 64, 43
1, 1226421, Control_c, 0, 64, 42
1, 1226436, Control_c, 0, 64, 42
1, 1226450, Note_off_c, 0, 65, 50
1, 1226523, Note_off_c, 0, 55, 60
1, 1226570, Control_c, 0, 64, 42
1, 1226585, Control_c, 0, 64, 44
1, 1226600, Control_c, 0, 64, 45
1, 1226614, Control_c, 0, 64, 46
1, 1226629, Control_c, 0, 64, 47
1, 1226644, Control_c, 0, 64, 48
1, 1226659, Control_c, 0, 64, 49
1, 1226674, Control_c, 0, 64, 50
1, 1226688, Control_c, 0, 64, 51
1, 1226703, Control_c, 0, 64, 52
1, 1226718, Control_c, 0, 64, 53
1, 1226733, Control_c, 0, 64, 54
1, 1226748, Control_c, 0, 64, 56
1, 1226763, Control_c, 0, 64, 58
1, 1226778, Control_c, 0, 64, 60
1, 1226792, Control_c, 0, 64, 61
1, 1226807, Control_c, 0, 64, 62
1, 1226822, Control_c, 0, 64, 63
1, 1226837, Control_c, 0, 64, 64
1, 1226852, Control_c, 0, 64, 64
1, 1226867, Control_c, 0, 64, 65
1, 1226882, Control_c, 0, 64, 66
1, 1226896, Control_c, 0, 64, 66
1, 1226926, Control_c, 0, 64, 67
1, 1226941, Control_c, 0, 64, 67
1, 1226956, Control_c, 0, 64, 68
1, 1226977, Control_c, 0, 64, 68
1, 1227007, Control_c, 0, 64, 69
1, 1227031, Note_off_c, 0, 60, 35
1, 1227063, Note_on_c, 0, 67, 49
1, 1227090, Note_on_c, 0, 58, 35
1, 1227096, Control_c, 0, 64, 68
1, 1227111, Control_c, 0, 64, 66
1, 1227126, Control_c, 0, 64, 64
1, 1227140, Control_c, 0, 64, 56
1, 1227155, Control_c, 0, 64, 17
1, 1227167, Note_off_c, 0, 69, 36
1, 1227170, Control_c, 0, 64, 0
1, 1227249, Note_on_c, 0, 64, 53
1, 1227273, Note_on_c, 0, 55, 40
1, 1227293, Note_off_c, 0, 58, 51
1, 1227323, Note_off_c, 0, 67, 56
1, 1227452, Control_c, 0, 64, 49
1, 1227467, Control_c, 0, 64, 64
1, 1227482, Control_c, 0, 64, 70
1, 1227497, Control_c, 0, 64, 76
1, 1227511, Control_c, 0, 64, 84
1, 1227526, Control_c, 0, 64, 92
1, 1227541, Control_c, 0, 64, 103
1, 1227556, Control_c, 0, 64, 114
1, 1227571, Control_c, 0, 64, 127
1, 1227632, Note_off_c, 0, 55, 52
1, 1227635, Note_on_c, 0, 56, 49
1, 1227635, Note_on_c, 0, 65, 46
1, 1227684, Note_off_c, 0, 56, 61
1, 1227725, Note_off_c, 0, 48, 41
1, 1227798, Note_off_c, 0, 64, 31
1, 1227872, Note_on_c, 0, 48, 33
1, 1227884, Note_on_c, 0, 68, 46
1, 1227904, Control_c, 0, 64, 111
1, 1227908, Note_on_c, 0, 60, 34
1, 1227919, Control_c, 0, 64, 96
1, 1227934, Control_c, 0, 64, 86
1, 1227949, Control_c, 0, 64, 78
1, 1227963, Control_c, 0, 64, 70
1, 1227978, Control_c, 0, 64, 63
1, 1227980, Note_off_c, 0, 65, 34
1, 1227993, Control_c, 0, 64, 57
1, 1228008, Control_c, 0, 64, 55
1, 1228023, Control_c, 0, 64, 53
1, 1228037, Control_c, 0, 64, 50
1, 1228052, Control_c, 0, 64, 48
1, 1228067, Control_c, 0, 64, 47
1, 1228098, Control_c, 0, 64, 49
1, 1228113, Control_c, 0, 64, 55
1, 1228128, Control_c, 0, 64, 60
1, 1228142, Control_c, 0, 64, 63
1, 1228157, Control_c, 0, 64, 65
1, 1228172, Control_c, 0, 64, 66
1, 1228186, Control_c, 0, 64, 68
1, 1228201, Control_c, 0, 64, 70
1, 1228216, Control_c, 0, 64, 72
1, 1228231, Control_c, 0, 64, 74
1, 1228246, Control_c, 0, 64, 77
1, 1228260, Control_c, 0, 64, 79
1, 1228275, Control_c, 0, 64, 82
1, 1228290, Control_c, 0, 64, 85
1, 1228305, Control_c, 0, 64, 88
1, 1228320, Control_c, 0, 64, 91
1, 1228334, Control_c, 0, 64, 94
1, 1228349, Control_c, 0, 64, 97
1, 1228364, Control_c, 0, 64, 101
1, 1228379, Control_c, 0, 64, 106
1, 1228393, Control_c, 0, 64, 112
1, 1228408, Control_c, 0, 64, 124
1, 1228423, Control_c, 0, 64, 127
1, 1228819, Note_off_c, 0, 68, 56
1, 1228819, Note_off_c, 0, 48, 40
1, 1228823, Note_on_c, 0, 58, 48
1, 1228825, Note_on_c, 0, 67, 50
1, 1228834, Note_off_c, 0, 60, 38
1, 1228858, Note_off_c, 0, 67, 64
1, 1228867, Note_off_c, 0, 58, 60
1, 1229037, Note_on_c, 0, 75, 60
1, 1229043, Note_on_c, 0, 51, 51
1, 1229048, Note_on_c, 0, 67, 53
1, 1229055, Control_c, 0, 64, 110
1, 1229056, Note_on_c, 0, 58, 48
1, 1229070, Control_c, 0, 64, 88
1, 1229084, Control_c, 0, 64, 73
1, 1229099, Control_c, 0, 64, 64
1, 1229114, Control_c, 0, 64, 57
1, 1229129, Control_c, 0, 64, 60
1, 1229144, Control_c, 0, 64, 64
1, 1229158, Control_c, 0, 64, 68
1, 1229173, Control_c, 0, 64, 72
1, 1229188, Control_c, 0, 64, 78
1, 1229203, Control_c, 0, 64, 84
1, 1229225, Control_c, 0, 64, 90
1, 1229225, Control_c, 0, 67, 126
1, 1229240, Control_c, 0, 64, 97
1, 1229240, Control_c, 0, 67, 117
1, 1229255, Control_c, 0, 64, 104
1, 1229255, Control_c, 0, 67, 106
1, 1229270, Control_c, 0, 64, 110
1, 1229270, Control_c, 0, 67, 93
1, 1229284, Control_c, 0, 64, 119
1, 1229284, Control_c, 0, 67, 82
1, 1229299, Control_c, 0, 64, 127
1, 1229299, Control_c, 0, 67, 72
1, 1229314, Control_c, 0, 67, 63
1, 1229329, Control_c, 0, 67, 56
1, 1229344, Control_c, 0, 67, 52
1, 1229359, Control_c, 0, 67, 49
1, 1229373, Control_c, 0, 67, 48
1, 1229388, Control_c, 0, 67, 47
1, 1229436, Note_on_c, 0, 68, 72
1, 1229438, Note_on_c, 0, 60, 48
1, 1229467, Note_off_c, 0, 60, 62
1, 1229516, Note_off_c, 0, 67, 50
1, 1229639, Control_c, 0, 64, 116
1, 1229650, Note_on_c, 0, 72, 67
1, 1229654, Control_c, 0, 64, 108
1, 1229669, Control_c, 0, 64, 101
1, 1229678, Note_on_c, 0, 63, 56
1, 1229684, Control_c, 0, 64, 94
1, 1229699, Control_c, 0, 64, 87
1, 1229714, Control_c, 0, 64, 81
1, 1229714, Control_c, 0, 67, 48
1, 1229729, Control_c, 0, 64, 74
1, 1229729, Control_c, 0, 67, 48
1, 1229744, Control_c, 0, 64, 68
1, 1229758, Control_c, 0, 64, 62
1, 1229758, Control_c, 0, 67, 49
1, 1229773, Control_c, 0, 64, 52
1, 1229788, Control_c, 0, 64, 36
1, 1229788, Control_c, 0, 67, 49
1, 1229803, Control_c, 0, 64, 0
1, 1229803, Control_c, 0, 67, 50
1, 1229818, Control_c, 0, 67, 51
1, 1229831, Note_off_c, 0, 68, 52
1, 1229832, Control_c, 0, 67, 51
1, 1229847, Control_c, 0, 67, 52
1, 1229877, Control_c, 0, 67, 53
1, 1229892, Control_c, 0, 67, 53
1, 1229909, Note_off_c, 0, 58, 60
1, 1229921, Control_c, 0, 64, 28
1, 1229921, Control_c, 0, 67, 54
1, 1229936, Control_c, 0, 64, 38
1, 1229936, Control_c, 0, 67, 54
1, 1229951, Control_c, 0, 64, 43
1, 1229973, Control_c, 0, 64, 46
1, 1229973, Control_c, 0, 67, 55
1, 1229988, Control_c, 0, 64, 48
1, 1230003, Control_c, 0, 64, 50
1, 1230018, Control_c, 0, 64, 53
1, 1230018, Control_c, 0, 67, 56
1, 1230033, Control_c, 0, 64, 55
1, 1230047, Control_c, 0, 64, 57
1, 1230062, Control_c, 0, 64, 58
1, 1230062, Control_c, 0, 67, 56
1, 1230077, Control_c, 0, 64, 59
1, 1230092, Control_c, 0, 64, 60
1, 1230092, Control_c, 0, 67, 57
1, 1230107, Control_c, 0, 64, 62
1, 1230121, Control_c, 0, 64, 64
1, 1230136, Control_c, 0, 64, 65
1, 1230136, Control_c, 0, 67, 57
1, 1230151, Control_c, 0, 64, 65
1, 1230165, Control_c, 0, 64, 67
1, 1230165, Control_c, 0, 67, 58
1, 1230180, Control_c, 0, 64, 69
1, 1230195, Control_c, 0, 64, 71
1, 1230210, Control_c, 0, 64, 76
1, 1230210, Control_c, 0, 67, 58
1, 1230225, Control_c, 0, 64, 81
1, 1230239, Control_c, 0, 64, 86
1, 1230254, Control_c, 0, 64, 91
1, 1230269, Control_c, 0, 64, 96
1, 1230284, Control_c, 0, 64, 102
1, 1230299, Control_c, 0, 64, 112
1, 1230313, Control_c, 0, 64, 127
1, 1230408, Note_off_c, 0, 63, 48
1, 1230451, Note_on_c, 0, 70, 59
1, 1230459, Note_on_c, 0, 61, 51
1, 1230492, Note_off_c, 0, 72, 54
1, 1230522, Control_c, 0, 67, 58
1, 1230562, Note_off_c, 0, 75, 57
1, 1230586, Note_off_c, 0, 61, 53
1, 1230599, Note_off_c, 0, 70, 55
1, 1230626, Control_c, 0, 67, 57
1, 1230667, Note_on_c, 0, 75, 73
1, 1230670, Control_c, 0, 64, 118
1, 1230670, Control_c, 0, 67, 57
1, 1230671, Note_on_c, 0, 67, 68
1, 1230678, Note_on_c, 0, 58, 64
1, 1230685, Control_c, 0, 64, 90
1, 1230700, Control_c, 0, 64, 74
1, 1230700, Control_c, 0, 67, 56
1, 1230722, Control_c, 0, 64, 60
1, 1230722, Control_c, 0, 67, 56
1, 1230736, Control_c, 0, 64, 31
1, 1230736, Control_c, 0, 67, 54
1, 1230751, Control_c, 0, 64, 38
1, 1230751, Control_c, 0, 67, 53
1, 1230766, Control_c, 0, 64, 53
1, 1230766, Control_c, 0, 67, 52
1, 1230781, Control_c, 0, 64, 63
1, 1230781, Control_c, 0, 67, 50
1, 1230796, Control_c, 0, 64, 67
1, 1230796, Control_c, 0, 67, 47
1, 1230811, Control_c, 0, 64, 72
1, 1230811, Control_c, 0, 67, 45
1, 1230826, Control_c, 0, 64, 79
1, 1230826, Control_c, 0, 67, 37
1, 1230840, Control_c, 0, 64, 89
1, 1230840, Control_c, 0, 67, 27
1, 1230855, Control_c, 0, 64, 103
1, 1230855, Control_c, 0, 67, 13
1, 1230870, Control_c, 0, 64, 127
1, 1230870, Control_c, 0, 67, 0
1, 1231084, Note_on_c, 0, 68, 82
1, 1231091, Note_on_c, 0, 60, 65
1, 1231137, Note_off_c, 0, 67, 60
1, 1231141, Note_off_c, 0, 60, 60
1, 1231145, Note_off_c, 0, 58, 60
1, 1231186, Note_off_c, 0, 51, 62
1, 1231376, Note_on_c, 0, 73, 78
1, 1231377, Note_on_c, 0, 65, 71
1, 1231394, Note_on_c, 0, 51, 61
1, 1231434, Control_c, 0, 64, 109
1, 1231449, Control_c, 0, 64, 92
1, 1231471, Control_c, 0, 64, 79
1, 1231486, Control_c, 0, 64, 69
1, 1231500, Control_c, 0, 64, 59
1, 1231515, Control_c, 0, 64, 37
1, 1231530, Control_c, 0, 64, 0
1, 1231767, Control_c, 0, 64, 36
1, 1231782, Control_c, 0, 64, 57
1, 1231797, Control_c, 0, 64, 63
1, 1231812, Control_c, 0, 64, 66
1, 1231827, Control_c, 0, 64, 69
1, 1231842, Control_c, 0, 64, 73
1, 1231857, Control_c, 0, 64, 77
1, 1231872, Control_c, 0, 64, 83
1, 1231886, Control_c, 0, 64, 90
1, 1231901, Control_c, 0, 64, 96
1, 1231916, Control_c, 0, 64, 105
1, 1231930, Control_c, 0, 64, 117
1, 1231945, Control_c, 0, 64, 127
1, 1232052, Note_off_c, 0, 65, 37
1, 1232064, Control_c, 0, 67, 8
1, 1232080, Control_c, 0, 67, 9
1, 1232095, Control_c, 0, 67, 11
1, 1232109, Control_c, 0, 67, 12
1, 1232124, Control_c, 0, 67, 14
1, 1232139, Control_c, 0, 67, 16
1, 1232154, Control_c, 0, 67, 20
1, 1232169, Control_c, 0, 67, 23
1, 1232183, Control_c, 0, 67, 27
1, 1232198, Control_c, 0, 67, 31
1, 1232221, Control_c, 0, 67, 35
1, 1232235, Control_c, 0, 67, 38
1, 1232250, Control_c, 0, 67, 41
1, 1232265, Control_c, 0, 67, 44
1, 1232268, Note_off_c, 0, 73, 60
1, 1232280, Control_c, 0, 67, 47
1, 1232295, Control_c, 0, 67, 50
1, 1232309, Control_c, 0, 67, 53
1, 1232324, Control_c, 0, 67, 56
1, 1232339, Control_c, 0, 67, 59
1, 1232354, Control_c, 0, 67, 62
1, 1232368, Control_c, 0, 67, 65
1, 1232383, Control_c, 0, 67, 68
1, 1232398, Control_c, 0, 67, 70
1, 1232413, Control_c, 0, 67, 73
1, 1232428, Control_c, 0, 67, 76
1, 1232442, Control_c, 0, 67, 79
1, 1232457, Control_c, 0, 67, 82
1, 1232472, Control_c, 0, 67, 86
1, 1232487, Control_c, 0, 67, 89
1, 1232502, Control_c, 0, 67, 93
1, 1232516, Control_c, 0, 67, 97
1, 1232531, Control_c, 0, 67, 102
1, 1232545, Control_c, 0, 67, 106
1, 1232559, Control_c, 0, 67, 110
1, 1232574, Control_c, 0, 67, 114
1, 1232589, Control_c, 0, 67, 118
1, 1232604, Control_c, 0, 67, 122
1, 1232608, Note_on_c, 0, 63, 42
1, 1232613, Note_on_c, 0, 72, 51
1, 1232619, Control_c, 0, 64, 115
1, 1232619, Control_c, 0, 67, 126
1, 1232627, Note_on_c, 0, 67, 41
1, 1232633, Control_c, 0, 64, 99
1, 1232633, Control_c, 0, 67, 127
1, 1232648, Control_c, 0, 64, 87
1, 1232663, Control_c, 0, 64, 73
1, 1232678, Control_c, 0, 64, 61
1, 1232690, Note_off_c, 0, 68, 54
1, 1232693, Control_c, 0, 64, 0
1, 1232811, Control_c, 0, 64, 37
1, 1232826, Control_c, 0, 64, 63
1, 1232841, Control_c, 0, 64, 69
1, 1232856, Control_c, 0, 64, 78
1, 1232870, Control_c, 0, 64, 86
1, 1232886, Control_c, 0, 64, 96
1, 1232901, Control_c, 0, 64, 105
1, 1232914, Note_off_c, 0, 67, 59
1, 1232916, Control_c, 0, 64, 115
1, 1232930, Control_c, 0, 64, 127
1, 1232966, Note_off_c, 0, 63, 56
1, 1233181, Note_on_c, 0, 70, 49
1, 1233185, Note_on_c, 0, 65, 38
1, 1233194, Note_on_c, 0, 61, 46
1, 1233204, Control_c, 0, 64, 100
1, 1233219, Control_c, 0, 64, 84
1, 1233221, Note_off_c, 0, 72, 55
1, 1233234, Control_c, 0, 64, 70
1, 1233249, Control_c, 0, 64, 21
1, 1233264, Control_c, 0, 64, 0
1, 1233353, Control_c, 0, 64, 14
1, 1233368, Control_c, 0, 64, 59
1, 1233382, Control_c, 0, 64, 66
1, 1233397, Control_c, 0, 64, 71
1, 1233412, Control_c, 0, 64, 77
1, 1233419, Note_off_c, 0, 65, 50
1, 1233427, Control_c, 0, 64, 86
1, 1233442, Control_c, 0, 64, 95
1, 1233452, Note_off_c, 0, 61, 59
1, 1233456, Control_c, 0, 64, 105
1, 1233463, Note_off_c, 0, 51, 55
1, 1233471, Control_c, 0, 64, 117
1, 1233486, Control_c, 0, 64, 127
1, 1233532, Note_off_c, 0, 70, 56
1, 1233547, Note_off_c, 0, 75, 54
1, 1233740, Note_on_c, 0, 48, 33
1, 1233815, Note_on_c, 0, 55, 24
1, 1233830, Note_on_c, 0, 64, 37
1, 1233873, Note_on_c, 0, 60, 19
1, 1233877, Note_on_c, 0, 70, 43
1, 1233879, Control_c, 0, 64, 114
1, 1233894, Control_c, 0, 64, 92
1, 1233908, Note_on_c, 0, 76, 47
1, 1233909, Control_c, 0, 64, 74
1, 1233924, Control_c, 0, 64, 60
1, 1233938, Control_c, 0, 64, 0
1, 1234117, Control_c, 0, 64, 35
1, 1234131, Control_c, 0, 64, 45
1, 1234146, Control_c, 0, 64, 51
1, 1234161, Control_c, 0, 64, 55
1, 1234176, Control_c, 0, 64, 58
1, 1234191, Control_c, 0, 64, 62
1, 1234205, Control_c, 0, 64, 64
1, 1234220, Control_c, 0, 64, 65
1, 1234235, Control_c, 0, 64, 66
1, 1234250, Control_c, 0, 64, 68
1, 1234265, Control_c, 0, 64, 70
1, 1234279, Control_c, 0, 64, 73
1, 1234294, Control_c, 0, 64, 77
1, 1234309, Control_c, 0, 64, 80
1, 1234323, Control_c, 0, 64, 84
1, 1234338, Control_c, 0, 64, 87
1, 1234353, Control_c, 0, 64, 91
1, 1234368, Control_c, 0, 64, 95
1, 1234383, Control_c, 0, 64, 100
1, 1234398, Control_c, 0, 64, 106
1, 1234412, Control_c, 0, 64, 112
1, 1234427, Control_c, 0, 64, 126
1, 1234442, Control_c, 0, 64, 127
1, 1234522, Note_off_c, 0, 48, 37
1, 1234608, Note_off_c, 0, 55, 33
1, 1234623, Note_off_c, 0, 64, 39
1, 1234634, Note_off_c, 0, 70, 40
1, 1234662, Note_off_c, 0, 60, 41
1, 1234684, Note_off_c, 0, 76, 33
1, 1234954, Control_c, 0, 64, 113
1, 1234969, Control_c, 0, 64, 86
1, 1234984, Control_c, 0, 64, 69
1, 1234999, Control_c, 0, 64, 46
1, 1235014, Control_c, 0, 64, 17
1, 1235029, Control_c, 0, 64, 24
1, 1235044, Control_c, 0, 64, 41
1, 1235058, Control_c, 0, 64, 51
1, 1235073, Control_c, 0, 64, 55
1, 1235088, Control_c, 0, 64, 55
1, 1235103, Control_c, 0, 64, 56
1, 1235118, Control_c, 0, 64, 57
1, 1235133, Control_c, 0, 64, 58
1, 1235147, Control_c, 0, 64, 59
1, 1235162, Control_c, 0, 64, 59
1, 1235171, Note_on_c, 0, 83, 51
1, 1235177, Control_c, 0, 64, 60
1, 1235192, Control_c, 0, 64, 60
1, 1235214, Control_c, 0, 64, 61
1, 1235217, Note_off_c, 0, 83, 54
1, 1235228, Control_c, 0, 64, 61
1, 1235243, Control_c, 0, 64, 62
1, 1235258, Control_c, 0, 64, 62
1, 1235259, Note_on_c, 0, 84, 46
1, 1235273, Control_c, 0, 64, 63
1, 1235283, Note_off_c, 0, 84, 59
1, 1235289, Control_c, 0, 64, 63
1, 1235304, Control_c, 0, 64, 63
1, 1235318, Note_on_c, 0, 85, 65
1, 1235319, Control_c, 0, 64, 54
1, 1235333, Control_c, 0, 64, 0
1, 1235378, Note_on_c, 0, 84, 65
1, 1235389, Note_off_c, 0, 85, 62
1, 1235437, Note_off_c, 0, 84, 64
1, 1235449, Note_on_c, 0, 82, 70
1, 1235472, Note_off_c, 0, 82, 70
1, 1235509, Note_on_c, 0, 79, 52
1, 1235531, Note_off_c, 0, 79, 59
1, 1235572, Note_on_c, 0, 76, 61
1, 1235609, Note_off_c, 0, 76, 60
1, 1235626, Note_on_c, 0, 73, 74
1, 1235676, Note_off_c, 0, 73, 62
1, 1235693, Note_on_c, 0, 48, 73
1, 1235700, Note_on_c, 0, 36, 66
1, 1235702, Note_on_c, 0, 72, 61
1, 1235718, Note_off_c, 0, 48, 65
1, 1235719, Note_off_c, 0, 72, 66
1, 1235725, Note_off_c, 0, 36, 59
1, 1235989, Note_on_c, 0, 36, 44
1, 1235991, Note_on_c, 0, 48, 40
1, 1236021, Note_off_c, 0, 48, 49
1, 1236025, Note_off_c, 0, 36, 54
1, 1236163, Note_on_c, 0, 49, 59
1, 1236164, Note_on_c, 0, 37, 58
1, 1236192, Note_off_c, 0, 49, 64
1, 1236193, Note_off_c, 0, 37, 61
1, 1236880, Note_on_c, 0, 71, 55
1, 1236934, Note_off_c, 0, 71, 56
1, 1236950, Note_on_c, 0, 72, 63
1, 1236977, Note_off_c, 0, 72, 66
1, 1237011, Note_on_c, 0, 73, 68
1, 1237068, Note_on_c, 0, 72, 77
1, 1237088, Note_off_c, 0, 73, 59
1, 1237125, Note_off_c, 0, 72, 64
1, 1237130, Note_on_c, 0, 70, 77
1, 1237159, Note_off_c, 0, 70, 62
1, 1237181, Note_on_c, 0, 67, 60
1, 1237216, Note_off_c, 0, 67, 58
1, 1237254, Note_on_c, 0, 64, 59
1, 1237288, Note_off_c, 0, 64, 65
1, 1237306, Note_on_c, 0, 61, 66
1, 1237350, Note_off_c, 0, 61, 61
1, 1237375, Note_on_c, 0, 60, 65
1, 1237378, Note_on_c, 0, 48, 68
1, 1237381, Note_on_c, 0, 36, 70
1, 1237401, Note_off_c, 0, 48, 64
1, 1237402, Note_off_c, 0, 60, 67
1, 1237412, Note_off_c, 0, 36, 62
1, 1237658, Note_on_c, 0, 36, 55
1, 1237665, Note_on_c, 0, 48, 47
1, 1237688, Note_off_c, 0, 36, 59
1, 1237695, Note_off_c, 0, 48, 50
1, 1237817, Note_on_c, 0, 37, 60
1, 1237818, Note_on_c, 0, 49, 60
1, 1237843, Note_off_c, 0, 49, 60
1, 1237845, Note_off_c, 0, 37, 62
1, 1238090, Note_on_c, 0, 49, 53
1, 1238101, Note_on_c, 0, 37, 54
1, 1238119, Note_off_c, 0, 49, 64
1, 1238133, Note_off_c, 0, 37, 63
1, 1238263, Note_on_c, 0, 32, 65
1, 1238272, Note_on_c, 0, 51, 55
1, 1238276, Note_on_c, 0, 44, 48
1, 1238278, Note_on_c, 0, 60, 53
1, 1238284, Note_on_c, 0, 56, 46
1, 1238293, Note_off_c, 0, 32, 64
1, 1238298, Note_off_c, 0, 51, 62
1, 1238305, Note_off_c, 0, 44, 55
1, 1238308, Note_off_c, 0, 60, 66
1, 1238310, Note_off_c, 0, 56, 56
1, 1238558, Note_on_c, 0, 32, 53
1, 1238565, Note_on_c, 0, 44, 43
1, 1238570, Note_on_c, 0, 60, 46
1, 1238578, Note_on_c, 0, 51, 35
1, 1238590, Note_on_c, 0, 56, 30
1, 1238591, Note_off_c, 0, 32, 63
1, 1238597, Note_off_c, 0, 44, 51
1, 1238613, Note_off_c, 0, 51, 53
1, 1238616, Note_off_c, 0, 60, 60
1, 1238625, Note_off_c, 0, 56, 54
1, 1238714, Note_on_c, 0, 56, 52
1, 1238720, Note_on_c, 0, 61, 64
1, 1238725, Note_on_c, 0, 53, 55
1, 1238731, Note_on_c, 0, 49, 55
1, 1238732, Note_on_c, 0, 37, 49
1, 1238749, Note_off_c, 0, 53, 64
1, 1238750, Note_off_c, 0, 56, 64
1, 1238758, Note_off_c, 0, 49, 61
1, 1238759, Note_off_c, 0, 61, 62
1, 1238762, Note_off_c, 0, 37, 57
1, 1239005, Note_on_c, 0, 49, 49
1, 1239008, Note_on_c, 0, 37, 49
1, 1239011, Note_on_c, 0, 61, 48
1, 1239019, Note_on_c, 0, 56, 30
1, 1239022, Note_on_c, 0, 53, 25
1, 1239039, Note_off_c, 0, 49, 62
1, 1239047, Note_off_c, 0, 37, 60
1, 1239047, Note_off_c, 0, 56, 51
1, 1239047, Note_off_c, 0, 61, 63
1, 1239059, Note_off_c, 0, 53, 45
1, 1239177, Note_on_c, 0, 36, 54
1, 1239178, Note_on_c, 0, 48, 51
1, 1239204, Note_off_c, 0, 48, 56
1, 1239206, Note_off_c, 0, 36, 55
1, 1239450, Note_on_c, 0, 36, 47
1, 1239458, Note_on_c, 0, 48, 36
1, 1239490, Note_off_c, 0, 36, 59
1, 1239491, Note_off_c, 0, 48, 51
1, 1239618, Note_on_c, 0, 37, 61
1, 1239618, Note_on_c, 0, 49, 61
1, 1239648, Note_off_c, 0, 37, 63
1, 1239648, Note_off_c, 0, 49, 64
1, 1239914, Note_on_c, 0, 49, 51
1, 1239927, Note_on_c, 0, 37, 52
1, 1239944, Note_off_c, 0, 49, 64
1, 1239962, Note_off_c, 0, 37, 63
1, 1240090, Note_on_c, 0, 32, 60
1, 1240095, Note_on_c, 0, 44, 56
1, 1240096, Note_on_c, 0, 51, 54
1, 1240101, Note_on_c, 0, 60, 54
1, 1240109, Note_on_c, 0, 56, 43
1, 1240120, Note_off_c, 0, 44, 60
1, 1240123, Note_off_c, 0, 32, 62
1, 1240131, Note_off_c, 0, 51, 63
1, 1240136, Note_off_c, 0, 56, 60
1, 1240138, Note_off_c, 0, 60, 65
1, 1240385, Note_on_c, 0, 32, 57
1, 1240398, Note_on_c, 0, 51, 45
1, 1240400, Note_on_c, 0, 44, 34
1, 1240415, Note_on_c, 0, 60, 37
1, 1240419, Note_off_c, 0, 32, 63
1, 1240427, Note_on_c, 0, 56, 12
1, 1240435, Note_off_c, 0, 51, 61
1, 1240437, Note_off_c, 0, 44, 46
1, 1240470, Note_off_c, 0, 60, 59
1, 1240483, Note_off_c, 0, 56, 51
1, 1240573, Note_on_c, 0, 56, 48
1, 1240577, Note_on_c, 0, 61, 63
1, 1240579, Note_on_c, 0, 53, 48
1, 1240587, Note_on_c, 0, 37, 41
1, 1240591, Note_on_c, 0, 49, 48
1, 1240600, Note_off_c, 0, 56, 59
1, 1240607, Note_off_c, 0, 53, 57
1, 1240611, Note_off_c, 0, 61, 64
1, 1240641, Note_off_c, 0, 37, 52
1, 1240737, Control_c, 0, 67, 126
1, 1240752, Control_c, 0, 67, 122
1, 1240766, Control_c, 0, 67, 119
1, 1240781, Control_c, 0, 67, 116
1, 1240796, Control_c, 0, 67, 113
1, 1240811, Control_c, 0, 67, 109
1, 1240826, Control_c, 0, 67, 104
1, 1240841, Control_c, 0, 67, 99
1, 1240855, Control_c, 0, 64, 11
1, 1240855, Control_c, 0, 67, 94
1, 1240871, Control_c, 0, 64, 14
1, 1240871, Control_c, 0, 67, 89
1, 1240883, Note_on_c, 0, 85, 54
1, 1240886, Control_c, 0, 64, 17
1, 1240886, Control_c, 0, 67, 85
1, 1240901, Control_c, 0, 64, 19
1, 1240901, Control_c, 0, 67, 81
1, 1240904, Note_off_c, 0, 85, 61
1, 1240915, Control_c, 0, 64, 23
1, 1240915, Control_c, 0, 67, 77
1, 1240930, Control_c, 0, 64, 28
1, 1240930, Control_c, 0, 67, 74
1, 1240945, Control_c, 0, 64, 32
1, 1240945, Control_c, 0, 67, 71
1, 1240960, Control_c, 0, 64, 37
1, 1240960, Control_c, 0, 67, 68
1, 1240975, Control_c, 0, 64, 42
1, 1240975, Control_c, 0, 67, 66
1, 1240989, Control_c, 0, 64, 46
1, 1240989, Control_c, 0, 67, 64
1, 1241004, Control_c, 0, 64, 47
1, 1241004, Control_c, 0, 67, 63
1, 1241005, Note_on_c, 0, 73, 60
1, 1241019, Control_c, 0, 64, 26
1, 1241019, Control_c, 0, 67, 62
1, 1241026, Note_on_c, 0, 78, 68
1, 1241033, Note_off_c, 0, 73, 65
1, 1241034, Control_c, 0, 64, 0
1, 1241047, Note_on_c, 0, 37, 54
1, 1241049, Note_off_c, 0, 78, 69
1, 1241056, Note_on_c, 0, 87, 72
1, 1241058, Note_on_c, 0, 82, 56
1, 1241063, Control_c, 0, 67, 63
1, 1241074, Note_off_c, 0, 87, 67
1, 1241077, Note_off_c, 0, 82, 61
1, 1241078, Control_c, 0, 67, 64
1, 1241085, Note_off_c, 0, 37, 62
1, 1241093, Control_c, 0, 67, 65
1, 1241108, Control_c, 0, 67, 66
1, 1241122, Control_c, 0, 67, 66
1, 1241137, Control_c, 0, 67, 67
1, 1241152, Control_c, 0, 67, 67
1, 1241182, Control_c, 0, 67, 68
1, 1241249, Control_c, 0, 67, 68
1, 1241293, Control_c, 0, 67, 69
1, 1241305, Note_on_c, 0, 73, 61
1, 1241322, Control_c, 0, 67, 69
1, 1241329, Note_on_c, 0, 78, 62
1, 1241339, Note_off_c, 0, 73, 65
1, 1241360, Note_off_c, 0, 78, 65
1, 1241366, Note_on_c, 0, 82, 55
1, 1241366, Note_on_c, 0, 87, 79
1, 1241387, Note_off_c, 0, 82, 60
1, 1241396, Note_off_c, 0, 87, 64
1, 1241426, Control_c, 0, 67, 69
1, 1241441, Control_c, 0, 67, 68
1, 1241456, Control_c, 0, 67, 67
1, 1241470, Control_c, 0, 67, 65
1, 1241485, Control_c, 0, 67, 62
1, 1241491, Note_on_c, 0, 75, 67
1, 1241494, Note_on_c, 0, 82, 66
1, 1241500, Control_c, 0, 67, 59
1, 1241512, Note_on_c, 0, 37, 57
1, 1241514, Note_off_c, 0, 75, 69
1, 1241515, Control_c, 0, 67, 51
1, 1241519, Note_on_c, 0, 85, 72
1, 1241525, Note_off_c, 0, 82, 66
1, 1241527, Note_on_c, 0, 90, 87
1, 1241530, Control_c, 0, 67, 40
1, 1241540, Note_off_c, 0, 85, 71
1, 1241545, Control_c, 0, 67, 29
1, 1241550, Note_off_c, 0, 37, 63
1, 1241554, Note_off_c, 0, 90, 63
1, 1241560, Control_c, 0, 67, 17
1, 1241575, Control_c, 0, 67, 0
1, 1241724, Control_c, 0, 64, 14
1, 1241739, Control_c, 0, 64, 23
1, 1241749, Note_on_c, 0, 75, 52
1, 1241754, Control_c, 0, 64, 31
1, 1241768, Control_c, 0, 64, 39
1, 1241783, Control_c, 0, 64, 46
1, 1241794, Note_on_c, 0, 82, 55
1, 1241798, Control_c, 0, 64, 53
1, 1241799, Note_off_c, 0, 75, 61
1, 1241813, Control_c, 0, 64, 56
1, 1241822, Note_on_c, 0, 90, 77
1, 1241824, Note_on_c, 0, 85, 64
1, 1241826, Note_off_c, 0, 82, 66
1, 1241828, Control_c, 0, 64, 58
1, 1241843, Control_c, 0, 64, 59
1, 1241851, Note_off_c, 0, 85, 66
1, 1241858, Note_off_c, 0, 90, 65
1, 1241858, Control_c, 0, 64, 59
1, 1241902, Control_c, 0, 64, 55
1, 1241917, Control_c, 0, 64, 0
1, 1241972, Note_on_c, 0, 37, 63
1, 1241975, Note_on_c, 0, 85, 66
1, 1241982, Note_on_c, 0, 77, 60
1, 1242001, Note_off_c, 0, 85, 68
1, 1242001, Note_off_c, 0, 77, 65
1, 1242003, Note_off_c, 0, 37, 64
1, 1242201, Note_on_c, 0, 87, 67
1, 1242209, Note_on_c, 0, 80, 49
1, 1242228, Note_off_c, 0, 87, 67
1, 1242231, Note_off_c, 0, 80, 59
1, 1242257, Note_on_c, 0, 89, 89
1, 1242266, Note_on_c, 0, 85, 69
1, 1242281, Note_off_c, 0, 89, 64
1, 1242290, Note_off_c, 0, 85, 69
1, 1242439, Note_on_c, 0, 37, 62
1, 1242478, Note_off_c, 0, 37, 65
1, 1242742, Note_off_c, 0, 49, 63
1, 1242748, Note_on_c, 0, 85, 69
1, 1242771, Note_off_c, 0, 85, 69
1, 1242911, Note_on_c, 0, 73, 51
1, 1242927, Note_on_c, 0, 78, 60
1, 1242933, Note_on_c, 0, 37, 53
1, 1242934, Note_on_c, 0, 49, 53
1, 1242935, Note_off_c, 0, 73, 58
1, 1242940, Note_on_c, 0, 82, 70
1, 1242947, Note_on_c, 0, 87, 80
1, 1242948, Note_off_c, 0, 78, 66
1, 1242963, Note_off_c, 0, 82, 69
1, 1242967, Note_off_c, 0, 37, 62
1, 1242970, Note_off_c, 0, 87, 67
1, 1242999, Control_c, 0, 67, 8
1, 1243014, Control_c, 0, 67, 8
1, 1243043, Control_c, 0, 67, 9
1, 1243217, Note_on_c, 0, 73, 54
1, 1243239, Note_on_c, 0, 78, 65
1, 1243251, Note_off_c, 0, 73, 64
1, 1243254, Note_on_c, 0, 87, 75
1, 1243257, Note_on_c, 0, 82, 48
1, 1243265, Note_off_c, 0, 78, 68
1, 1243281, Note_off_c, 0, 82, 59
1, 1243285, Note_off_c, 0, 87, 62
1, 1243385, Note_on_c, 0, 75, 69
1, 1243399, Note_on_c, 0, 78, 70
1, 1243404, Note_on_c, 0, 37, 58
1, 1243408, Note_off_c, 0, 75, 70
1, 1243414, Note_on_c, 0, 82, 73
1, 1243423, Note_off_c, 0, 78, 68
1, 1243444, Note_off_c, 0, 82, 71
1, 1243446, Note_off_c, 0, 37, 64
1, 1243678, Note_on_c, 0, 75, 59
1, 1243694, Note_on_c, 0, 78, 49
1, 1243713, Note_on_c, 0, 82, 77
1, 1243714, Note_off_c, 0, 75, 62
1, 1243718, Note_off_c, 0, 78, 61
1, 1243734, Note_off_c, 0, 82, 70
1, 1243878, Note_on_c, 0, 77, 74
1, 1243879, Note_on_c, 0, 85, 77
1, 1243884, Note_on_c, 0, 37, 64
1, 1243900, Note_off_c, 0, 77, 71
1, 1243903, Note_off_c, 0, 85, 65
1, 1243915, Note_off_c, 0, 37, 64
1, 1244111, Note_on_c, 0, 80, 66
1, 1244125, Note_on_c, 0, 75, 43
1, 1244132, Control_c, 0, 67, 9
1, 1244139, Note_off_c, 0, 80, 60
1, 1244153, Note_off_c, 0, 75, 57
1, 1244174, Note_on_c, 0, 77, 77
1, 1244179, Note_on_c, 0, 73, 69
1, 1244202, Note_off_c, 0, 77, 71
1, 1244213, Note_off_c, 0, 73, 66
1, 1244259, Control_c, 0, 67, 10
1, 1244362, Note_on_c, 0, 37, 60
1, 1244362, Control_c, 0, 67, 10
1, 1244377, Control_c, 0, 67, 11
1, 1244392, Control_c, 0, 67, 11
1, 1244400, Note_off_c, 0, 37, 65
1, 1244407, Control_c, 0, 67, 12
1, 1244421, Control_c, 0, 67, 16
1, 1244436, Control_c, 0, 67, 20
1, 1244451, Control_c, 0, 67, 23
1, 1244466, Control_c, 0, 67, 25
1, 1244481, Control_c, 0, 67, 28
1, 1244496, Control_c, 0, 67, 31
1, 1244511, Control_c, 0, 67, 33
1, 1244526, Control_c, 0, 67, 34
1, 1244541, Control_c, 0, 67, 36
1, 1244571, Control_c, 0, 67, 36
1, 1244600, Control_c, 0, 67, 36
1, 1244630, Control_c, 0, 67, 35
1, 1244645, Control_c, 0, 67, 34
1, 1244660, Control_c, 0, 67, 34
1, 1244663, Note_off_c, 0, 49, 56
1, 1244669, Note_on_c, 0, 73, 57
1, 1244674, Control_c, 0, 67, 33
1, 1244680, Note_on_c, 0, 80, 55
1, 1244684, Note_on_c, 0, 77, 38
1, 1244704, Control_c, 0, 67, 33
1, 1244707, Note_off_c, 0, 73, 61
1, 1244714, Note_off_c, 0, 77, 58
1, 1244714, Note_off_c, 0, 80, 61
1, 1244719, Control_c, 0, 67, 32
1, 1244748, Control_c, 0, 67, 32
1, 1244793, Control_c, 0, 67, 31
1, 1244848, Note_on_c, 0, 77, 47
1, 1244851, Note_on_c, 0, 80, 50
1, 1244851, Note_on_c, 0, 49, 43
1, 1244855, Note_on_c, 0, 74, 53
1, 1244864, Note_on_c, 0, 37, 31
1, 1244883, Control_c, 0, 67, 32
1, 1244899, Note_off_c, 0, 77, 60
1, 1244905, Note_off_c, 0, 74, 58
1, 1244906, Note_off_c, 0, 37, 52
1, 1244908, Note_off_c, 0, 80, 58
1, 1244912, Control_c, 0, 67, 32
1, 1244949, Control_c, 0, 67, 33
1, 1244964, Control_c, 0, 67, 33
1, 1244994, Control_c, 0, 67, 34
1, 1245024, Control_c, 0, 67, 34
1, 1245112, Control_c, 0, 67, 34
1, 1245157, Control_c, 0, 67, 33
1, 1245164, Note_on_c, 0, 74, 59
1, 1245176, Note_on_c, 0, 80, 56
1, 1245179, Note_on_c, 0, 77, 48
1, 1245186, Control_c, 0, 67, 33
1, 1245203, Note_off_c, 0, 74, 61
1, 1245217, Note_off_c, 0, 77, 64
1, 1245223, Note_off_c, 0, 80, 60
1, 1245231, Control_c, 0, 67, 32
1, 1245304, Control_c, 0, 67, 32
1, 1245344, Note_on_c, 0, 80, 64
1, 1245346, Note_on_c, 0, 37, 49
1, 1245346, Note_on_c, 0, 77, 51
1, 1245349, Control_c, 0, 67, 32
1, 1245351, Note_on_c, 0, 71, 44
1, 1245378, Note_off_c, 0, 37, 63
1, 1245378, Note_off_c, 0, 71, 57
1, 1245380, Note_off_c, 0, 77, 65
1, 1245381, Note_off_c, 0, 80, 59
1, 1245408, Control_c, 0, 67, 33
1, 1245452, Control_c, 0, 67, 33
1, 1245526, Control_c, 0, 67, 34
1, 1245570, Control_c, 0, 67, 33
1, 1245600, Control_c, 0, 67, 33
1, 1245630, Control_c, 0, 67, 32
1, 1245639, Note_on_c, 0, 80, 61
1, 1245642, Note_on_c, 0, 71, 52
1, 1245643, Note_on_c, 0, 77, 44
1, 1245670, Note_off_c, 0, 77, 59
1, 1245673, Note_off_c, 0, 71, 58
1, 1245675, Control_c, 0, 67, 32
1, 1245691, Note_off_c, 0, 80, 61
1, 1245786, Control_c, 0, 67, 31
1, 1245827, Note_on_c, 0, 37, 55
1, 1245828, Note_on_c, 0, 78, 63
1, 1245831, Note_on_c, 0, 69, 55
1, 1245846, Control_c, 0, 67, 32
1, 1245851, Note_off_c, 0, 69, 63
1, 1245858, Note_off_c, 0, 78, 62
1, 1245861, Note_off_c, 0, 37, 64
1, 1245934, Control_c, 0, 67, 32
1, 1246008, Control_c, 0, 67, 33
1, 1246063, Note_on_c, 0, 80, 59
1, 1246081, Note_on_c, 0, 71, 35
1, 1246082, Control_c, 0, 67, 32
1, 1246082, Note_off_c, 0, 80, 65
1, 1246112, Note_off_c, 0, 71, 52
1, 1246114, Note_on_c, 0, 81, 71
1, 1246127, Note_on_c, 0, 73, 73
1, 1246151, Note_off_c, 0, 73, 68
1, 1246161, Note_off_c, 0, 81, 62
1, 1246200, Control_c, 0, 67, 32
1, 1246281, Note_on_c, 0, 37, 58
1, 1246320, Note_off_c, 0, 37, 64
1, 1246378, Control_c, 0, 67, 32
1, 1246444, Control_c, 0, 67, 33
1, 1246602, Note_off_c, 0, 49, 57
1, 1246611, Note_on_c, 0, 73, 62
1, 1246619, Note_on_c, 0, 81, 63
1, 1246636, Note_off_c, 0, 73, 65
1, 1246638, Control_c, 0, 67, 32
1, 1246648, Note_off_c, 0, 81, 62
1, 1246712, Control_c, 0, 67, 32
1, 1246786, Note_on_c, 0, 49, 45
1, 1246794, Note_on_c, 0, 76, 54
1, 1246797, Note_on_c, 0, 37, 43
1, 1246799, Note_on_c, 0, 79, 50
1, 1246801, Note_on_c, 0, 81, 42
1, 1246834, Note_off_c, 0, 37, 58
1, 1246834, Note_off_c, 0, 76, 59
1, 1246837, Note_off_c, 0, 79, 61
1, 1246840, Note_off_c, 0, 81, 57
1, 1246845, Control_c, 0, 67, 32
1, 1246905, Control_c, 0, 67, 33
1, 1247052, Control_c, 0, 67, 32
1, 1247082, Control_c, 0, 67, 32
1, 1247113, Note_on_c, 0, 79, 54
1, 1247115, Note_on_c, 0, 81, 55
1, 1247122, Note_on_c, 0, 76, 37
1, 1247141, Control_c, 0, 67, 31
1, 1247148, Note_off_c, 0, 81, 62
1, 1247149, Note_off_c, 0, 79, 61
1, 1247152, Note_off_c, 0, 76, 50
1, 1247277, Note_on_c, 0, 81, 55
1, 1247283, Note_on_c, 0, 69, 55
1, 1247284, Note_on_c, 0, 37, 52
1, 1247290, Note_on_c, 0, 79, 49
1, 1247319, Note_off_c, 0, 69, 61
1, 1247319, Note_off_c, 0, 37, 62
1, 1247323, Note_off_c, 0, 81, 56
1, 1247327, Note_off_c, 0, 79, 63
1, 1247402, Control_c, 0, 67, 32
1, 1247551, Control_c, 0, 67, 31
1, 1247583, Note_on_c, 0, 69, 58
1, 1247590, Note_on_c, 0, 79, 47
1, 1247595, Control_c, 0, 67, 31
1, 1247599, Note_on_c, 0, 81, 49
1, 1247610, Control_c, 0, 67, 30
1, 1247611, Note_off_c, 0, 69, 66
1, 1247629, Note_off_c, 0, 81, 56
1, 1247630, Note_off_c, 0, 79, 61
1, 1247756, Note_on_c, 0, 76, 61
1, 1247760, Note_on_c, 0, 37, 52
1, 1247766, Note_on_c, 0, 79, 53
1, 1247769, Note_on_c, 0, 81, 41
1, 1247772, Control_c, 0, 67, 31
1, 1247790, Note_off_c, 0, 76, 62
1, 1247796, Note_off_c, 0, 81, 57
1, 1247799, Note_off_c, 0, 37, 62
1, 1247799, Note_off_c, 0, 79, 63
1, 1247802, Control_c, 0, 67, 31
1, 1247847, Control_c, 0, 67, 32
1, 1247891, Control_c, 0, 67, 32
1, 1248063, Note_on_c, 0, 76, 54
1, 1248064, Note_on_c, 0, 81, 54
1, 1248067, Note_on_c, 0, 79, 53
1, 1248092, Control_c, 0, 67, 32
1, 1248102, Note_off_c, 0, 76, 62
1, 1248106, Note_off_c, 0, 79, 60
1, 1248106, Note_off_c, 0, 81, 57
1, 1248136, Control_c, 0, 67, 31
1, 1248231, Note_on_c, 0, 81, 60
1, 1248243, Note_on_c, 0, 37, 52
1, 1248249, Note_on_c, 0, 69, 44
1, 1248252, Note_on_c, 0, 79, 45
1, 1248270, Control_c, 0, 67, 32
1, 1248273, Note_off_c, 0, 69, 54
1, 1248284, Note_off_c, 0, 37, 61
1, 1248287, Note_off_c, 0, 79, 56
1, 1248291, Note_off_c, 0, 81, 59
1, 1248314, Control_c, 0, 67, 32
1, 1248506, Control_c, 0, 67, 32
1, 1248521, Note_off_c, 0, 49, 48
1, 1248536, Control_c, 0, 67, 31
1, 1248551, Note_on_c, 0, 69, 49
1, 1248553, Note_on_c, 0, 79, 49
1, 1248556, Note_on_c, 0, 81, 55
1, 1248566, Control_c, 0, 67, 31
1, 1248579, Note_off_c, 0, 69, 62
1, 1248589, Note_off_c, 0, 81, 59
1, 1248592, Note_off_c, 0, 79, 62
1, 1248595, Control_c, 0, 67, 30
1, 1248735, Note_on_c, 0, 79, 48
1, 1248735, Note_on_c, 0, 75, 56
1, 1248736, Note_on_c, 0, 49, 46
1, 1248736, Control_c, 0, 67, 31
1, 1248743, Note_on_c, 0, 81, 49
1, 1248747, Note_on_c, 0, 37, 38
1, 1248766, Control_c, 0, 67, 31
1, 1248777, Note_off_c, 0, 75, 58
1, 1248777, Note_off_c, 0, 81, 62
1, 1248783, Note_off_c, 0, 79, 58
1, 1248790, Note_off_c, 0, 37, 58
1, 1248810, Control_c, 0, 67, 32
1, 1248885, Control_c, 0, 67, 32
1, 1249003, Control_c, 0, 67, 32
1, 1249034, Note_on_c, 0, 75, 48
1, 1249044, Note_on_c, 0, 79, 51
1, 1249049, Note_on_c, 0, 81, 52
1, 1249076, Note_off_c, 0, 75, 61
1, 1249086, Note_off_c, 0, 81, 60
1, 1249090, Note_off_c, 0, 79, 57
1, 1249107, Control_c, 0, 67, 31
1, 1249216, Note_on_c, 0, 69, 49
1, 1249216, Note_on_c, 0, 81, 48
1, 1249218, Note_on_c, 0, 37, 51
1, 1249221, Note_on_c, 0, 79, 52
1, 1249248, Note_off_c, 0, 69, 52
1, 1249256, Note_off_c, 0, 37, 63
1, 1249258, Note_off_c, 0, 81, 60
1, 1249261, Note_off_c, 0, 79, 60
1, 1249300, Control_c, 0, 67, 32
1, 1249500, Control_c, 0, 67, 31
1, 1249528, Note_on_c, 0, 69, 51
1, 1249536, Note_on_c, 0, 79, 44
1, 1249539, Note_on_c, 0, 81, 49
1, 1249566, Note_off_c, 0, 69, 61
1, 1249578, Note_off_c, 0, 81, 53
1, 1249580, Note_off_c, 0, 79, 59
1, 1249698, Note_on_c, 0, 79, 53
1, 1249701, Note_on_c, 0, 81, 52
1, 1249702, Note_on_c, 0, 37, 46
1, 1249704, Note_on_c, 0, 75, 55
1, 1249739, Note_off_c, 0, 75, 62
1, 1249744, Note_off_c, 0, 37, 55
1, 1249745, Note_off_c, 0, 81, 59
1, 1249747, Note_off_c, 0, 79, 58
1, 1250007, Note_on_c, 0, 75, 45
1, 1250009, Note_on_c, 0, 81, 52
1, 1250012, Note_on_c, 0, 79, 51
1, 1250036, Note_off_c, 0, 75, 55
1, 1250048, Note_off_c, 0, 81, 59
1, 1250052, Note_off_c, 0, 79, 60
1, 1250181, Note_on_c, 0, 81, 56
1, 1250185, Note_on_c, 0, 37, 53
1, 1250192, Note_on_c, 0, 79, 52
1, 1250193, Note_on_c, 0, 69, 48
1, 1250219, Note_off_c, 0, 69, 54
1, 1250225, Note_off_c, 0, 37, 63
1, 1250231, Note_off_c, 0, 79, 59
1, 1250235, Note_off_c, 0, 81, 57
1, 1250249, Control_c, 0, 67, 32
1, 1250308, Control_c, 0, 67, 32
1, 1250502, Note_off_c, 0, 49, 51
1, 1250506, Note_on_c, 0, 79, 46
1, 1250508, Note_on_c, 0, 69, 41
1, 1250509, Note_on_c, 0, 81, 56
1, 1250531, Control_c, 0, 67, 32
1, 1250533, Note_off_c, 0, 69, 56
1, 1250535, Note_off_c, 0, 79, 57
1, 1250547, Note_off_c, 0, 81, 58
1, 1250673, Note_on_c, 0, 49, 44
1, 1250681, Note_on_c, 0, 81, 55
1, 1250687, Note_on_c, 0, 78, 57
1, 1250689, Note_on_c, 0, 75, 53
1, 1250693, Note_on_c, 0, 37, 41
1, 1250723, Note_off_c, 0, 75, 62
1, 1250725, Note_off_c, 0, 81, 61
1, 1250735, Note_off_c, 0, 78, 57
1, 1250738, Note_off_c, 0, 37, 59
1, 1250783, Control_c, 0, 67, 32
1, 1250827, Control_c, 0, 67, 33
1, 1250938, Control_c, 0, 67, 32
1, 1250982, Control_c, 0, 67, 32
1, 1250994, Note_on_c, 0, 75, 46
1, 1251007, Note_on_c, 0, 78, 45
1, 1251008, Note_on_c, 0, 81, 53
1, 1251027, Control_c, 0, 67, 31
1, 1251041, Note_off_c, 0, 75, 57
1, 1251058, Note_off_c, 0, 78, 57
1, 1251065, Note_off_c, 0, 81, 59
1, 1251178, Note_on_c, 0, 37, 48
1, 1251180, Note_on_c, 0, 81, 64
1, 1251186, Note_on_c, 0, 69, 51
1, 1251193, Note_on_c, 0, 78, 47
1, 1251222, Note_off_c, 0, 69, 56
1, 1251229, Note_off_c, 0, 37, 58
1, 1251238, Note_off_c, 0, 81, 58
1, 1251239, Note_off_c, 0, 78, 57
1, 1251324, Control_c, 0, 67, 32
1, 1251472, Control_c, 0, 67, 31
1, 1251493, Note_on_c, 0, 81, 56
1, 1251495, Note_on_c, 0, 69, 51
1, 1251507, Note_on_c, 0, 78, 47
1, 1251531, Control_c, 0, 67, 31
1, 1251532, Note_off_c, 0, 81, 57
1, 1251540, Note_off_c, 0, 69, 53
1, 1251549, Note_off_c, 0, 78, 60
1, 1251663, Note_on_c, 0, 80, 52
1, 1251665, Note_on_c, 0, 37, 48
1, 1251668, Note_on_c, 0, 75, 59
1, 1251680, Note_on_c, 0, 78, 48
1, 1251687, Control_c, 0, 67, 31
1, 1251710, Note_off_c, 0, 37, 60
1, 1251720, Note_off_c, 0, 80, 57
1, 1251721, Note_off_c, 0, 75, 59
1, 1251721, Note_off_c, 0, 78, 62
1, 1251990, Note_on_c, 0, 80, 53
1, 1251992, Note_on_c, 0, 75, 53
1, 1251999, Note_on_c, 0, 78, 51
1, 1252032, Note_off_c, 0, 75, 61
1, 1252039, Note_off_c, 0, 78, 60
1, 1252041, Note_off_c, 0, 80, 55
1, 1252162, Control_c, 0, 67, 32
1, 1252163, Note_on_c, 0, 37, 53
1, 1252170, Note_on_c, 0, 80, 52
1, 1252171, Note_on_c, 0, 78, 51
1, 1252175, Note_on_c, 0, 68, 50
1, 1252192, Control_c, 0, 67, 32
1, 1252206, Note_off_c, 0, 37, 62
1, 1252215, Note_off_c, 0, 80, 52
1, 1252217, Note_off_c, 0, 68, 58
1, 1252222, Control_c, 0, 67, 33
1, 1252224, Note_off_c, 0, 78, 53
1, 1252280, Control_c, 0, 67, 33
1, 1252310, Control_c, 0, 67, 34
1, 1252340, Control_c, 0, 67, 34
1, 1252354, Control_c, 0, 67, 35
1, 1252369, Control_c, 0, 67, 36
1, 1252384, Control_c, 0, 67, 38
1, 1252399, Control_c, 0, 67, 41
1, 1252414, Control_c, 0, 67, 51
1, 1252436, Control_c, 0, 67, 61
1, 1252451, Control_c, 0, 67, 68
1, 1252466, Control_c, 0, 67, 76
1, 1252479, Note_off_c, 0, 49, 55
1, 1252480, Control_c, 0, 67, 83
1, 1252491, Note_on_c, 0, 68, 57
1, 1252495, Control_c, 0, 67, 88
1, 1252498, Note_on_c, 0, 80, 57
1, 1252510, Control_c, 0, 67, 92
1, 1252518, Note_on_c, 0, 78, 23
1, 1252520, Note_off_c, 0, 68, 64
1, 1252525, Control_c, 0, 67, 94
1, 1252548, Note_off_c, 0, 78, 48
1, 1252552, Note_off_c, 0, 80, 53
1, 1252614, Control_c, 0, 67, 93
1, 1252628, Control_c, 0, 67, 93
1, 1252643, Control_c, 0, 67, 92
1, 1252658, Control_c, 0, 64, 28
1, 1252658, Control_c, 0, 67, 91
1, 1252673, Control_c, 0, 64, 57
1, 1252673, Control_c, 0, 67, 90
1, 1252675, Note_on_c, 0, 71, 72
1, 1252688, Note_on_c, 0, 49, 44
1, 1252688, Control_c, 0, 64, 65
1, 1252688, Control_c, 0, 67, 90
1, 1252690, Note_on_c, 0, 37, 40
1, 1252692, Note_on_c, 0, 80, 42
1, 1252702, Note_on_c, 0, 77, 50
1, 1252702, Control_c, 0, 64, 69
1, 1252717, Control_c, 0, 64, 73
1, 1252717, Control_c, 0, 67, 89
1, 1252723, Note_on_c, 0, 75, 23
1, 1252732, Control_c, 0, 64, 79
1, 1252745, Note_off_c, 0, 80, 51
1, 1252747, Note_off_c, 0, 37, 46
1, 1252747, Control_c, 0, 64, 84
1, 1252747, Control_c, 0, 67, 89
1, 1252758, Note_off_c, 0, 77, 54
1, 1252762, Note_off_c, 0, 75, 50
1, 1252762, Control_c, 0, 64, 88
1, 1252777, Control_c, 0, 64, 91
1, 1252792, Control_c, 0, 64, 93
1, 1252807, Control_c, 0, 64, 94
1, 1252822, Control_c, 0, 64, 96
1, 1252837, Control_c, 0, 64, 97
1, 1252852, Control_c, 0, 64, 98
1, 1252867, Control_c, 0, 64, 99
1, 1252882, Control_c, 0, 64, 100
1, 1252897, Control_c, 0, 64, 101
1, 1252911, Control_c, 0, 64, 102
1, 1252926, Control_c, 0, 64, 103
1, 1252941, Control_c, 0, 64, 104
1, 1252956, Control_c, 0, 64, 105
1, 1252971, Control_c, 0, 64, 106
1, 1252986, Control_c, 0, 64, 107
1, 1253001, Control_c, 0, 64, 108
1, 1253001, Control_c, 0, 67, 88
1, 1253015, Note_off_c, 0, 71, 59
1, 1253015, Control_c, 0, 64, 110
1, 1253021, Note_on_c, 0, 77, 44
1, 1253022, Note_on_c, 0, 80, 44
1, 1253030, Control_c, 0, 64, 111
1, 1253042, Note_on_c, 0, 75, 27
1, 1253045, Control_c, 0, 64, 113
1, 1253060, Control_c, 0, 64, 114
1, 1253064, Note_off_c, 0, 80, 48
1, 1253075, Control_c, 0, 64, 115
1, 1253079, Note_off_c, 0, 75, 48
1, 1253081, Note_off_c, 0, 77, 52
1, 1253090, Control_c, 0, 64, 116
1, 1253090, Control_c, 0, 67, 88
1, 1253104, Control_c, 0, 64, 116
1, 1253134, Control_c, 0, 64, 117
1, 1253149, Control_c, 0, 64, 117
1, 1253164, Control_c, 0, 64, 118
1, 1253185, Control_c, 0, 64, 118
1, 1253187, Note_on_c, 0, 37, 47
1, 1253191, Note_on_c, 0, 80, 47
1, 1253197, Note_on_c, 0, 68, 44
1, 1253200, Control_c, 0, 64, 122
1, 1253215, Note_on_c, 0, 77, 46
1, 1253215, Control_c, 0, 64, 127
1, 1253233, Note_off_c, 0, 68, 49
1, 1253239, Note_off_c, 0, 37, 45
1, 1253272, Note_off_c, 0, 80, 38
1, 1253277, Note_off_c, 0, 77, 43
1, 1253422, Control_c, 0, 67, 87
1, 1253452, Control_c, 0, 67, 87
1, 1253538, Note_on_c, 0, 68, 34
1, 1253539, Note_on_c, 0, 80, 44
1, 1253543, Note_on_c, 0, 77, 38
1, 1253570, Note_off_c, 0, 68, 51
1, 1253579, Note_off_c, 0, 80, 48
1, 1253589, Note_off_c, 0, 77, 46
1, 1253689, Note_on_c, 0, 37, 49
1, 1253692, Note_on_c, 0, 74, 60
1, 1253704, Note_on_c, 0, 80, 39
1, 1253704, Note_on_c, 0, 77, 49
1, 1253728, Note_off_c, 0, 37, 50
1, 1253733, Note_off_c, 0, 77, 59
1, 1253737, Note_off_c, 0, 74, 58
1, 1253737, Note_off_c, 0, 80, 51
1, 1254018, Note_on_c, 0, 74, 45
1, 1254023, Note_on_c, 0, 77, 49
1, 1254027, Note_on_c, 0, 80, 49
1, 1254056, Note_off_c, 0, 74, 57
1, 1254071, Note_off_c, 0, 80, 50
1, 1254072, Note_off_c, 0, 77, 54
1, 1254187, Note_on_c, 0, 37, 50
1, 1254190, Note_on_c, 0, 80, 54
1, 1254196, Note_on_c, 0, 68, 50
1, 1254201, Note_on_c, 0, 77, 50
1, 1254223, Note_off_c, 0, 37, 54
1, 1254238, Note_off_c, 0, 68, 56
1, 1254252, Note_off_c, 0, 77, 52
1, 1254256, Note_off_c, 0, 80, 55
1, 1254290, Control_c, 0, 67, 87
1, 1254483, Note_on_c, 0, 68, 51
1, 1254489, Note_on_c, 0, 80, 49
1, 1254513, Note_on_c, 0, 77, 20
1, 1254515, Note_off_c, 0, 49, 37
1, 1254522, Note_off_c, 0, 68, 62
1, 1254527, Note_off_c, 0, 80, 51
1, 1254554, Note_off_c, 0, 77, 53
1, 1254646, Control_c, 0, 64, 102
1, 1254661, Control_c, 0, 64, 86
1, 1254677, Note_on_c, 0, 70, 67
1, 1254682, Note_on_c, 0, 49, 49
1, 1254683, Control_c, 0, 64, 73
1, 1254697, Note_on_c, 0, 37, 41
1, 1254698, Control_c, 0, 64, 63
1, 1254700, Note_on_c, 0, 77, 53
1, 1254710, Note_on_c, 0, 73, 48
1, 1254711, Note_on_c, 0, 78, 54
1, 1254713, Control_c, 0, 64, 58
1, 1254728, Control_c, 0, 64, 63
1, 1254743, Control_c, 0, 64, 66
1, 1254757, Control_c, 0, 64, 68
1, 1254759, Note_off_c, 0, 73, 44
1, 1254770, Note_off_c, 0, 78, 47
1, 1254772, Control_c, 0, 64, 72
1, 1254773, Note_off_c, 0, 37, 42
1, 1254787, Note_off_c, 0, 77, 49
1, 1254787, Control_c, 0, 64, 75
1, 1254801, Control_c, 0, 64, 79
1, 1254816, Control_c, 0, 64, 83
1, 1254831, Control_c, 0, 64, 87
1, 1254846, Control_c, 0, 64, 91
1, 1254861, Control_c, 0, 64, 95
1, 1254876, Control_c, 0, 64, 100
1, 1254890, Control_c, 0, 64, 103
1, 1254905, Control_c, 0, 64, 107
1, 1254920, Control_c, 0, 64, 111
1, 1254935, Control_c, 0, 64, 114
1, 1254950, Control_c, 0, 64, 117
1, 1254965, Control_c, 0, 64, 118
1, 1254980, Control_c, 0, 64, 120
1, 1254989, Note_off_c, 0, 70, 61
1, 1254995, Control_c, 0, 64, 121
1, 1255005, Note_on_c, 0, 77, 46
1, 1255009, Control_c, 0, 64, 122
1, 1255013, Note_on_c, 0, 73, 31
1, 1255018, Note_on_c, 0, 78, 33
1, 1255039, Control_c, 0, 64, 123
1, 1255046, Note_off_c, 0, 77, 50
1, 1255047, Note_off_c, 0, 73, 52
1, 1255053, Note_off_c, 0, 78, 52
1, 1255054, Control_c, 0, 67, 87
1, 1255098, Control_c, 0, 64, 124
1, 1255143, Control_c, 0, 64, 126
1, 1255163, Note_on_c, 0, 37, 50
1, 1255168, Note_on_c, 0, 77, 51
1, 1255170, Note_on_c, 0, 78, 46
1, 1255172, Control_c, 0, 64, 127
1, 1255177, Note_on_c, 0, 66, 47
1, 1255216, Note_off_c, 0, 66, 50
1, 1255231, Note_off_c, 0, 37, 41
1, 1255248, Note_off_c, 0, 77, 52
1, 1255261, Note_off_c, 0, 78, 37
1, 1255499, Note_on_c, 0, 77, 45
1, 1255505, Note_on_c, 0, 66, 44
1, 1255506, Note_on_c, 0, 78, 51
1, 1255543, Note_off_c, 0, 77, 51
1, 1255546, Note_off_c, 0, 66, 50
1, 1255551, Control_c, 0, 67, 86
1, 1255562, Note_off_c, 0, 78, 51
1, 1255668, Note_on_c, 0, 37, 42
1, 1255672, Note_on_c, 0, 75, 55
1, 1255676, Note_on_c, 0, 78, 52
1, 1255677, Note_on_c, 0, 73, 55
1, 1255701, Note_off_c, 0, 37, 53
1, 1255706, Note_off_c, 0, 78, 54
1, 1255713, Note_off_c, 0, 75, 57
1, 1255714, Note_off_c, 0, 73, 62
1, 1255788, Control_c, 0, 67, 87
1, 1256004, Note_on_c, 0, 73, 44
1, 1256009, Note_on_c, 0, 75, 46
1, 1256009, Note_on_c, 0, 78, 47
1, 1256047, Note_off_c, 0, 73, 47
1, 1256052, Note_off_c, 0, 78, 47
1, 1256059, Note_off_c, 0, 75, 56
1, 1256174, Note_on_c, 0, 37, 51
1, 1256182, Note_on_c, 0, 75, 49
1, 1256183, Note_on_c, 0, 78, 50
1, 1256197, Note_on_c, 0, 66, 33
1, 1256220, Note_off_c, 0, 37, 60
1, 1256233, Note_off_c, 0, 66, 51
1, 1256240, Note_off_c, 0, 78, 48
1, 1256241, Control_c, 0, 67, 87
1, 1256277, Note_off_c, 0, 75, 37
1, 1256344, Control_c, 0, 67, 88
1, 1256500, Note_on_c, 0, 66, 46
1, 1256507, Note_off_c, 0, 49, 36
1, 1256515, Note_on_c, 0, 78, 52
1, 1256522, Note_on_c, 0, 75, 37
1, 1256526, Note_off_c, 0, 66, 59
1, 1256566, Note_off_c, 0, 75, 46
1, 1256572, Note_off_c, 0, 78, 48
1, 1256640, Control_c, 0, 64, 112
1, 1256655, Control_c, 0, 64, 96
1, 1256670, Control_c, 0, 64, 82
1, 1256676, Note_on_c, 0, 69, 71
1, 1256685, Control_c, 0, 64, 70
1, 1256685, Note_on_c, 0, 49, 43
1, 1256692, Note_on_c, 0, 37, 40
1, 1256696, Note_on_c, 0, 78, 47
1, 1256697, Note_on_c, 0, 75, 42
1, 1256700, Control_c, 0, 64, 61
1, 1256715, Control_c, 0, 64, 61
1, 1256715, Note_on_c, 0, 73, 47
1, 1256729, Control_c, 0, 64, 64
1, 1256744, Control_c, 0, 64, 66
1, 1256756, Note_off_c, 0, 37, 43
1, 1256759, Control_c, 0, 64, 69
1, 1256762, Note_off_c, 0, 73, 45
1, 1256773, Control_c, 0, 64, 73
1, 1256788, Control_c, 0, 64, 78
1, 1256803, Control_c, 0, 64, 83
1, 1256806, Note_off_c, 0, 75, 37
1, 1256807, Note_off_c, 0, 78, 35
1, 1256818, Control_c, 0, 64, 89
1, 1256833, Control_c, 0, 64, 95
1, 1256849, Control_c, 0, 64, 101
1, 1256863, Control_c, 0, 64, 107
1, 1256878, Control_c, 0, 64, 114
1, 1256893, Control_c, 0, 64, 127
1, 1256992, Note_off_c, 0, 69, 59
1, 1257013, Note_on_c, 0, 78, 46
1, 1257022, Note_on_c, 0, 73, 34
1, 1257022, Note_on_c, 0, 75, 38
1, 1257043, Note_off_c, 0, 78, 53
1, 1257055, Note_off_c, 0, 73, 53
1, 1257056, Note_off_c, 0, 75, 52
1, 1257168, Note_on_c, 0, 75, 45
1, 1257174, Note_on_c, 0, 78, 46
1, 1257175, Note_on_c, 0, 37, 49
1, 1257185, Note_on_c, 0, 66, 39
1, 1257219, Note_off_c, 0, 66, 52
1, 1257231, Note_off_c, 0, 37, 45
1, 1257239, Note_off_c, 0, 78, 47
1, 1257251, Note_off_c, 0, 75, 55
1, 1257490, Note_on_c, 0, 75, 36
1, 1257490, Note_on_c, 0, 66, 26
1, 1257490, Note_on_c, 0, 78, 41
1, 1257529, Note_off_c, 0, 66, 49
1, 1257530, Note_off_c, 0, 78, 49
1, 1257537, Note_off_c, 0, 75, 46
1, 1257650, Note_on_c, 0, 72, 58
1, 1257654, Note_on_c, 0, 37, 45
1, 1257654, Note_on_c, 0, 75, 50
1, 1257657, Note_on_c, 0, 78, 46
1, 1257702, Note_off_c, 0, 75, 61
1, 1257704, Note_off_c, 0, 72, 58
1, 1257704, Note_off_c, 0, 78, 50
1, 1257707, Note_off_c, 0, 37, 50
1, 1257798, Control_c, 0, 67, 88
1, 1257978, Note_on_c, 0, 78, 50
1, 1257979, Note_on_c, 0, 72, 41
1, 1257985, Note_on_c, 0, 75, 44
1, 1258008, Note_off_c, 0, 72, 60
1, 1258021, Note_off_c, 0, 78, 52
1, 1258025, Note_off_c, 0, 75, 52
1, 1258122, Control_c, 0, 67, 89
1, 1258146, Note_on_c, 0, 78, 54
1, 1258147, Note_on_c, 0, 75, 44
1, 1258149, Note_on_c, 0, 37, 49
1, 1258152, Control_c, 0, 67, 89
1, 1258155, Note_on_c, 0, 66, 40
1, 1258166, Control_c, 0, 67, 90
1, 1258181, Control_c, 0, 67, 90
1, 1258191, Note_off_c, 0, 37, 57
1, 1258196, Note_off_c, 0, 66, 49
1, 1258196, Control_c, 0, 67, 91
1, 1258209, Note_off_c, 0, 75, 53
1, 1258211, Control_c, 0, 67, 92
1, 1258213, Note_off_c, 0, 78, 51
1, 1258226, Control_c, 0, 67, 92
1, 1258241, Control_c, 0, 67, 93
1, 1258256, Control_c, 0, 67, 93
1, 1258271, Control_c, 0, 67, 94
1, 1258285, Control_c, 0, 67, 94
1, 1258300, Control_c, 0, 67, 95
1, 1258315, Control_c, 0, 67, 95
1, 1258330, Control_c, 0, 67, 96
1, 1258359, Control_c, 0, 67, 96
1, 1258374, Control_c, 0, 67, 98
1, 1258389, Control_c, 0, 67, 99
1, 1258426, Control_c, 0, 67, 99
1, 1258441, Control_c, 0, 67, 100
1, 1258465, Note_off_c, 0, 49, 48
1, 1258483, Note_on_c, 0, 78, 57
1, 1258485, Note_on_c, 0, 66, 29
1, 1258486, Control_c, 0, 67, 100
1, 1258487, Note_on_c, 0, 75, 38
1, 1258501, Control_c, 0, 67, 101
1, 1258516, Control_c, 0, 67, 102
1, 1258522, Note_off_c, 0, 66, 45
1, 1258522, Note_off_c, 0, 75, 56
1, 1258530, Control_c, 0, 67, 103
1, 1258545, Control_c, 0, 67, 105
1, 1258554, Note_off_c, 0, 78, 55
1, 1258560, Control_c, 0, 67, 108
1, 1258575, Control_c, 0, 67, 111
1, 1258590, Control_c, 0, 67, 116
1, 1258605, Control_c, 0, 67, 121
1, 1258620, Control_c, 0, 64, 98
1, 1258620, Control_c, 0, 67, 127
1, 1258634, Control_c, 0, 64, 78
1, 1258634, Control_c, 0, 67, 127
1, 1258640, Note_on_c, 0, 68, 53
1, 1258642, Note_on_c, 0, 49, 45
1, 1258645, Note_on_c, 0, 77, 59
1, 1258646, Note_on_c, 0, 73, 50
1, 1258649, Control_c, 0, 64, 54
1, 1258658, Note_on_c, 0, 37, 35
1, 1258664, Control_c, 0, 64, 0
1, 1258678, Note_off_c, 0, 77, 63
1, 1258682, Note_off_c, 0, 73, 64
1, 1258703, Note_off_c, 0, 37, 54
1, 1258936, Note_on_c, 0, 77, 54
1, 1258958, Note_on_c, 0, 73, 41
1, 1258974, Note_off_c, 0, 77, 60
1, 1258985, Note_off_c, 0, 73, 57
1, 1258986, Note_off_c, 0, 68, 59
1, 1259108, Note_on_c, 0, 68, 58
1, 1259112, Note_on_c, 0, 65, 47
1, 1259138, Note_off_c, 0, 65, 61
1, 1259140, Note_off_c, 0, 68, 64
1, 1259443, Note_on_c, 0, 68, 45
1, 1259449, Note_on_c, 0, 65, 30
1, 1259479, Note_off_c, 0, 68, 58
1, 1259483, Note_off_c, 0, 65, 54
1, 1259604, Note_on_c, 0, 37, 47
1, 1259606, Note_on_c, 0, 77, 56
1, 1259622, Note_on_c, 0, 73, 44
1, 1259648, Note_off_c, 0, 77, 59
1, 1259649, Note_off_c, 0, 73, 58
1, 1259657, Note_off_c, 0, 37, 58
1, 1259937, Note_on_c, 0, 77, 54
1, 1259944, Note_on_c, 0, 73, 40
1, 1259973, Note_off_c, 0, 73, 57
1, 1259976, Note_off_c, 0, 77, 59
1, 1260101, Note_on_c, 0, 68, 57
1, 1260107, Note_on_c, 0, 65, 40
1, 1260136, Note_off_c, 0, 68, 62
1, 1260137, Note_off_c, 0, 65, 58
1, 1260400, Note_on_c, 0, 68, 49
1, 1260405, Note_on_c, 0, 65, 29
1, 1260440, Note_off_c, 0, 65, 55
1, 1260449, Note_off_c, 0, 68, 56
1, 1260571, Note_on_c, 0, 37, 47
1, 1260584, Note_on_c, 0, 77, 54
1, 1260590, Note_on_c, 0, 73, 47
1, 1260620, Note_off_c, 0, 77, 63
1, 1260622, Note_off_c, 0, 73, 56
1, 1260631, Note_off_c, 0, 37, 57
1, 1261032, Note_on_c, 0, 65, 44
1, 1261034, Note_on_c, 0, 68, 46
1, 1261076, Note_off_c, 0, 65, 60
1, 1261079, Note_off_c, 0, 68, 58
1, 1261511, Note_on_c, 0, 37, 49
1, 1261581, Note_off_c, 0, 37, 56
1, 1262033, Note_on_c, 0, 68, 41
1, 1262036, Note_on_c, 0, 65, 30
1, 1262069, Note_off_c, 0, 65, 57
1, 1262072, Note_off_c, 0, 68, 61
1, 1262103, Note_off_c, 0, 49, 54
1, 1262520, Note_on_c, 0, 36, 60
1, 1262521, Note_on_c, 0, 48, 55
1, 1262547, Note_off_c, 0, 48, 57
1, 1262549, Note_off_c, 0, 36, 58
1, 1262817, Note_on_c, 0, 36, 61
1, 1262832, Note_on_c, 0, 48, 35
1, 1262850, Note_off_c, 0, 36, 62
1, 1262867, Note_off_c, 0, 48, 43
1, 1262996, Note_on_c, 0, 37, 66
1, 1263000, Note_on_c, 0, 49, 55
1, 1263024, Note_off_c, 0, 37, 65
1, 1263026, Note_off_c, 0, 49, 59
1, 1263291, Note_on_c, 0, 49, 64
1, 1263297, Note_on_c, 0, 37, 61
1, 1263320, Note_off_c, 0, 49, 65
1, 1263325, Note_off_c, 0, 37, 64
1, 1263480, Note_on_c, 0, 32, 78
1, 1263495, Note_on_c, 0, 44, 53
1, 1263505, Note_off_c, 0, 32, 65
1, 1263523, Note_off_c, 0, 44, 57
1, 1263708, Note_on_c, 0, 34, 62
1, 1263711, Note_on_c, 0, 46, 58
1, 1263735, Note_off_c, 0, 46, 58
1, 1263737, Note_off_c, 0, 34, 62
1, 1263776, Note_on_c, 0, 48, 77
1, 1263782, Note_on_c, 0, 36, 71
1, 1263798, Note_off_c, 0, 48, 67
1, 1263805, Note_off_c, 0, 36, 61
1, 1264285, Note_on_c, 0, 48, 64
1, 1264317, Note_off_c, 0, 48, 63
1, 1264466, Note_on_c, 0, 51, 69
1, 1264467, Note_on_c, 0, 32, 70
1, 1264468, Note_on_c, 0, 44, 67
1, 1264479, Note_on_c, 0, 60, 52
1, 1264480, Note_on_c, 0, 56, 54
1, 1264494, Note_off_c, 0, 51, 66
1, 1264497, Note_off_c, 0, 44, 65
1, 1264499, Note_off_c, 0, 32, 65
1, 1264504, Note_off_c, 0, 56, 62
1, 1264506, Note_off_c, 0, 60, 64
1, 1264580, Control_c, 0, 67, 125
1, 1264595, Control_c, 0, 67, 120
1, 1264610, Control_c, 0, 67, 115
1, 1264625, Control_c, 0, 67, 108
1, 1264640, Control_c, 0, 67, 102
1, 1264654, Control_c, 0, 67, 94
1, 1264669, Control_c, 0, 67, 85
1, 1264684, Control_c, 0, 67, 76
1, 1264699, Control_c, 0, 67, 66
1, 1264714, Control_c, 0, 67, 57
1, 1264728, Control_c, 0, 67, 50
1, 1264742, Control_c, 0, 67, 44
1, 1264757, Control_c, 0, 67, 40
1, 1264763, Note_on_c, 0, 32, 64
1, 1264767, Note_on_c, 0, 51, 64
1, 1264769, Note_on_c, 0, 60, 63
1, 1264770, Note_on_c, 0, 44, 54
1, 1264772, Control_c, 0, 67, 36
1, 1264776, Note_on_c, 0, 56, 57
1, 1264787, Control_c, 0, 67, 33
1, 1264790, Note_off_c, 0, 32, 64
1, 1264794, Note_off_c, 0, 51, 66
1, 1264796, Note_off_c, 0, 44, 57
1, 1264802, Control_c, 0, 67, 30
1, 1264815, Note_off_c, 0, 56, 61
1, 1264817, Control_c, 0, 67, 29
1, 1264818, Note_off_c, 0, 60, 60
1, 1264832, Control_c, 0, 67, 29
1, 1264921, Control_c, 0, 67, 30
1, 1264932, Note_on_c, 0, 61, 79
1, 1264933, Note_on_c, 0, 53, 78
1, 1264936, Control_c, 0, 67, 31
1, 1264937, Note_on_c, 0, 56, 70
1, 1264939, Note_on_c, 0, 49, 74
1, 1264942, Note_on_c, 0, 37, 68
1, 1264951, Control_c, 0, 67, 32
1, 1264957, Note_off_c, 0, 53, 68
1, 1264964, Note_off_c, 0, 49, 67
1, 1264966, Control_c, 0, 67, 33
1, 1264967, Note_off_c, 0, 56, 66
1, 1264969, Note_off_c, 0, 37, 63
1, 1264978, Note_off_c, 0, 61, 64
1, 1264981, Control_c, 0, 67, 33
1, 1264996, Control_c, 0, 67, 34
1, 1265010, Control_c, 0, 67, 34
1, 1265025, Control_c, 0, 67, 35
1, 1265040, Control_c, 0, 64, 11
1, 1265040, Control_c, 0, 67, 36
1, 1265055, Control_c, 0, 64, 21
1, 1265070, Control_c, 0, 64, 27
1, 1265070, Control_c, 0, 67, 36
1, 1265084, Control_c, 0, 64, 30
1, 1265084, Control_c, 0, 67, 37
1, 1265099, Control_c, 0, 64, 32
1, 1265114, Control_c, 0, 64, 33
1, 1265129, Control_c, 0, 64, 34
1, 1265129, Control_c, 0, 67, 37
1, 1265166, Control_c, 0, 67, 38
1, 1265181, Control_c, 0, 64, 0
1, 1265181, Control_c, 0, 67, 38
1, 1265195, Control_c, 0, 67, 39
1, 1265210, Control_c, 0, 67, 40
1, 1265220, Note_on_c, 0, 61, 73
1, 1265225, Control_c, 0, 67, 40
1, 1265226, Note_on_c, 0, 37, 69
1, 1265228, Note_on_c, 0, 49, 63
1, 1265229, Note_on_c, 0, 56, 57
1, 1265234, Note_on_c, 0, 53, 54
1, 1265240, Control_c, 0, 67, 41
1, 1265255, Control_c, 0, 67, 41
1, 1265257, Note_off_c, 0, 49, 65
1, 1265260, Note_off_c, 0, 53, 62
1, 1265264, Note_off_c, 0, 37, 65
1, 1265264, Note_off_c, 0, 56, 63
1, 1265270, Control_c, 0, 67, 42
1, 1265277, Note_off_c, 0, 61, 62
1, 1265284, Control_c, 0, 67, 42
1, 1265329, Control_c, 0, 67, 43
1, 1265383, Note_on_c, 0, 36, 74
1, 1265388, Note_on_c, 0, 48, 65
1, 1265412, Note_off_c, 0, 36, 62
1, 1265415, Note_off_c, 0, 48, 64
1, 1265447, Control_c, 0, 67, 42
1, 1265476, Control_c, 0, 67, 42
1, 1265506, Control_c, 0, 67, 41
1, 1265535, Control_c, 0, 67, 41
1, 1265677, Note_on_c, 0, 36, 59
1, 1265684, Note_on_c, 0, 48, 49
1, 1265708, Note_off_c, 0, 36, 59
1, 1265711, Note_off_c, 0, 48, 54
1, 1265847, Note_on_c, 0, 49, 64
1, 1265852, Note_on_c, 0, 37, 58
1, 1265876, Note_off_c, 0, 49, 66
1, 1265881, Note_off_c, 0, 37, 59
1, 1265973, Control_c, 0, 67, 41
1, 1266003, Control_c, 0, 67, 42
1, 1266048, Control_c, 0, 67, 42
1, 1266149, Note_on_c, 0, 49, 56
1, 1266154, Note_on_c, 0, 37, 56
1, 1266175, Note_off_c, 0, 49, 59
1, 1266185, Note_off_c, 0, 37, 63
1, 1266226, Control_c, 0, 67, 42
1, 1266255, Control_c, 0, 67, 41
1, 1266300, Control_c, 0, 67, 41
1, 1266323, Note_on_c, 0, 29, 75
1, 1266323, Note_on_c, 0, 53, 61
1, 1266323, Note_on_c, 0, 60, 64
1, 1266327, Note_on_c, 0, 41, 68
1, 1266330, Note_on_c, 0, 56, 52
1, 1266346, Note_off_c, 0, 53, 64
1, 1266350, Note_off_c, 0, 41, 59
1, 1266350, Note_off_c, 0, 60, 66
1, 1266355, Note_off_c, 0, 56, 58
1, 1266356, Note_off_c, 0, 29, 65
1, 1266621, Note_on_c, 0, 60, 65
1, 1266623, Note_on_c, 0, 29, 61
1, 1266623, Note_on_c, 0, 53, 66
1, 1266626, Note_on_c, 0, 41, 56
1, 1266634, Note_on_c, 0, 56, 41
1, 1266659, Note_off_c, 0, 53, 67
1, 1266661, Note_off_c, 0, 29, 60
1, 1266661, Note_off_c, 0, 41, 55
1, 1266663, Control_c, 0, 64, 11
1, 1266665, Note_off_c, 0, 60, 64
1, 1266670, Note_off_c, 0, 56, 51
1, 1266678, Control_c, 0, 64, 14
1, 1266693, Control_c, 0, 64, 19
1, 1266708, Control_c, 0, 64, 21
1, 1266708, Control_c, 0, 67, 41
1, 1266723, Control_c, 0, 64, 23
1, 1266737, Control_c, 0, 67, 42
1, 1266752, Control_c, 0, 64, 24
1, 1266767, Control_c, 0, 64, 26
1, 1266781, Control_c, 0, 64, 28
1, 1266781, Control_c, 0, 67, 42
1, 1266793, Note_on_c, 0, 61, 79
1, 1266794, Note_on_c, 0, 58, 75
1, 1266796, Note_on_c, 0, 34, 81
1, 1266796, Note_on_c, 0, 53, 66
1, 1266796, Control_c, 0, 64, 31
1, 1266799, Note_on_c, 0, 46, 70
1, 1266811, Control_c, 0, 64, 33
1, 1266820, Note_off_c, 0, 58, 68
1, 1266820, Note_off_c, 0, 53, 66
1, 1266821, Note_off_c, 0, 34, 64
1, 1266821, Note_off_c, 0, 46, 63
1, 1266824, Note_off_c, 0, 61, 64
1, 1266826, Control_c, 0, 64, 35
1, 1266826, Control_c, 0, 67, 43
1, 1266841, Control_c, 0, 64, 36
1, 1266841, Control_c, 0, 67, 43
1, 1266856, Control_c, 0, 64, 37
1, 1266871, Control_c, 0, 64, 38
1, 1266871, Control_c, 0, 67, 44
1, 1266900, Control_c, 0, 64, 39
1, 1266915, Control_c, 0, 64, 40
1, 1266915, Control_c, 0, 67, 44
1, 1266930, Control_c, 0, 64, 40
1, 1266990, Control_c, 0, 67, 44
1, 1267035, Control_c, 0, 67, 43
1, 1267068, Note_on_c, 0, 34, 69
1, 1267071, Note_on_c, 0, 46, 65
1, 1267084, Note_on_c, 0, 58, 64
1, 1267087, Note_on_c, 0, 61, 69
1, 1267090, Note_on_c, 0, 53, 61
1, 1267099, Note_off_c, 0, 46, 64
1, 1267102, Note_off_c, 0, 34, 65
1, 1267109, Control_c, 0, 64, 40
1, 1267118, Note_off_c, 0, 53, 67
1, 1267120, Note_off_c, 0, 58, 63
1, 1267127, Note_off_c, 0, 61, 58
1, 1267168, Control_c, 0, 67, 43
1, 1267182, Control_c, 0, 67, 42
1, 1267228, Control_c, 0, 64, 39
1, 1267228, Control_c, 0, 67, 42
1, 1267244, Note_on_c, 0, 53, 66
1, 1267245, Note_on_c, 0, 56, 84
1, 1267253, Note_on_c, 0, 41, 72
1, 1267254, Note_on_c, 0, 29, 77
1, 1267267, Note_off_c, 0, 56, 72
1, 1267268, Note_off_c, 0, 53, 68
1, 1267272, Control_c, 0, 64, 38
1, 1267275, Note_off_c, 0, 41, 61
1, 1267281, Note_off_c, 0, 29, 60
1, 1267287, Control_c, 0, 64, 38
1, 1267302, Control_c, 0, 64, 37
1, 1267317, Control_c, 0, 64, 36
1, 1267391, Control_c, 0, 64, 37
1, 1267413, Control_c, 0, 64, 38
1, 1267428, Control_c, 0, 64, 39
1, 1267480, Note_on_c, 0, 58, 72
1, 1267483, Note_on_c, 0, 29, 69
1, 1267487, Control_c, 0, 64, 30
1, 1267488, Note_on_c, 0, 55, 54
1, 1267502, Control_c, 0, 64, 0
1, 1267505, Note_off_c, 0, 58, 68
1, 1267512, Note_off_c, 0, 55, 56
1, 1267525, Note_off_c, 0, 29, 65
1, 1267532, Control_c, 0, 67, 42
1, 1267538, Note_on_c, 0, 56, 85
1, 1267545, Note_on_c, 0, 60, 75
1, 1267547, Control_c, 0, 67, 43
1, 1267549, Note_on_c, 0, 41, 74
1, 1267559, Note_off_c, 0, 56, 72
1, 1267561, Control_c, 0, 67, 45
1, 1267568, Note_off_c, 0, 60, 69
1, 1267575, Note_off_c, 0, 41, 64
1, 1267576, Control_c, 0, 67, 46
1, 1267591, Control_c, 0, 67, 54
1, 1267605, Control_c, 0, 67, 67
1, 1267620, Control_c, 0, 67, 81
1, 1267635, Control_c, 0, 67, 96
1, 1267650, Control_c, 0, 67, 109
1, 1267665, Control_c, 0, 67, 122
1, 1267679, Control_c, 0, 67, 127
1, 1267961, Control_c, 0, 64, 24
1, 1267976, Control_c, 0, 64, 36
1, 1267991, Control_c, 0, 64, 44
1, 1268005, Control_c, 0, 64, 50
1, 1268021, Control_c, 0, 64, 54
1, 1268036, Control_c, 0, 64, 57
1, 1268051, Control_c, 0, 64, 60
1, 1268066, Control_c, 0, 64, 61
1, 1268081, Control_c, 0, 64, 63
1, 1268096, Control_c, 0, 64, 64
1, 1268110, Control_c, 0, 64, 65
1, 1268125, Control_c, 0, 64, 66
1, 1268140, Control_c, 0, 64, 67
1, 1268162, Control_c, 0, 64, 68
1, 1268163, Note_on_c, 0, 60, 63
1, 1268176, Control_c, 0, 64, 70
1, 1268191, Control_c, 0, 64, 71
1, 1268206, Control_c, 0, 64, 73
1, 1268221, Control_c, 0, 64, 76
1, 1268236, Control_c, 0, 64, 80
1, 1268251, Control_c, 0, 64, 84
1, 1268266, Control_c, 0, 64, 89
1, 1268281, Control_c, 0, 64, 95
1, 1268296, Control_c, 0, 64, 102
1, 1268310, Control_c, 0, 64, 111
1, 1268325, Control_c, 0, 64, 127
1, 1268375, Note_on_c, 0, 56, 55
1, 1268392, Note_on_c, 0, 51, 51
1, 1268400, Note_on_c, 0, 41, 38
1, 1268502, Control_c, 0, 67, 125
1, 1268517, Control_c, 0, 67, 121
1, 1268532, Control_c, 0, 67, 116
1, 1268546, Control_c, 0, 67, 110
1, 1268561, Control_c, 0, 67, 103
1, 1268576, Control_c, 0, 67, 97
1, 1268585, Note_off_c, 0, 51, 53
1, 1268591, Control_c, 0, 67, 92
1, 1268606, Control_c, 0, 67, 86
1, 1268620, Control_c, 0, 67, 81
1, 1268635, Control_c, 0, 67, 76
1, 1268650, Control_c, 0, 67, 71
1, 1268665, Control_c, 0, 67, 66
1, 1268680, Control_c, 0, 67, 61
1, 1268695, Control_c, 0, 67, 57
1, 1268710, Control_c, 0, 67, 53
1, 1268725, Control_c, 0, 67, 50
1, 1268730, Note_off_c, 0, 56, 59
1, 1268732, Note_on_c, 0, 62, 69
1, 1268740, Control_c, 0, 67, 47
1, 1268746, Note_on_c, 0, 50, 45
1, 1268754, Control_c, 0, 67, 44
1, 1268769, Control_c, 0, 67, 41
1, 1268784, Control_c, 0, 67, 40
1, 1268799, Control_c, 0, 67, 38
1, 1268814, Control_c, 0, 67, 37
1, 1268829, Control_c, 0, 67, 36
1, 1268859, Control_c, 0, 67, 36
1, 1268940, Control_c, 0, 64, 124
1, 1268955, Control_c, 0, 64, 101
1, 1268957, Note_on_c, 0, 55, 46
1, 1268969, Note_on_c, 0, 63, 65
1, 1268970, Control_c, 0, 64, 88
1, 1268979, Note_on_c, 0, 43, 43
1, 1268980, Note_on_c, 0, 48, 46
1, 1268984, Control_c, 0, 64, 74
1, 1268999, Control_c, 0, 64, 63
1, 1269014, Control_c, 0, 64, 0
1, 1269025, Note_off_c, 0, 60, 51
1, 1269063, Note_off_c, 0, 50, 39
1, 1269077, Note_off_c, 0, 62, 55
1, 1269089, Note_off_c, 0, 41, 39
1, 1269265, Control_c, 0, 64, 52
1, 1269280, Control_c, 0, 64, 64
1, 1269295, Control_c, 0, 64, 69
1, 1269310, Control_c, 0, 64, 75
1, 1269324, Control_c, 0, 64, 81
1, 1269327, Note_off_c, 0, 55, 55
1, 1269339, Control_c, 0, 64, 88
1, 1269354, Control_c, 0, 64, 95
1, 1269369, Control_c, 0, 64, 104
1, 1269384, Control_c, 0, 64, 117
1, 1269386, Note_on_c, 0, 50, 51
1, 1269398, Control_c, 0, 64, 127
1, 1269442, Note_off_c, 0, 48, 49
1, 1269449, Note_off_c, 0, 50, 64
1, 1269458, Control_c, 0, 67, 36
1, 1269473, Control_c, 0, 67, 37
1, 1269488, Control_c, 0, 67, 37
1, 1269502, Control_c, 0, 67, 38
1, 1269517, Control_c, 0, 67, 38
1, 1269532, Control_c, 0, 67, 39
1, 1269547, Control_c, 0, 67, 40
1, 1269562, Control_c, 0, 67, 40
1, 1269576, Control_c, 0, 67, 41
1, 1269591, Control_c, 0, 67, 42
1, 1269606, Control_c, 0, 67, 42
1, 1269622, Control_c, 0, 67, 43
1, 1269637, Control_c, 0, 67, 44
1, 1269659, Control_c, 0, 67, 44
1, 1269668, Note_on_c, 0, 60, 52
1, 1269674, Control_c, 0, 67, 45
1, 1269683, Note_on_c, 0, 44, 42
1, 1269685, Note_on_c, 0, 51, 37
1, 1269686, Note_on_c, 0, 53, 43
1, 1269688, Control_c, 0, 64, 121
1, 1269688, Control_c, 0, 67, 46
1, 1269703, Control_c, 0, 64, 99
1, 1269703, Control_c, 0, 67, 46
1, 1269718, Control_c, 0, 64, 86
1, 1269718, Control_c, 0, 67, 47
1, 1269733, Control_c, 0, 64, 74
1, 1269733, Control_c, 0, 67, 48
1, 1269748, Control_c, 0, 64, 59
1, 1269754, Note_off_c, 0, 43, 47
1, 1269762, Control_c, 0, 64, 0
1, 1269762, Control_c, 0, 67, 49
1, 1269773, Note_off_c, 0, 63, 39
1, 1269777, Control_c, 0, 67, 49
1, 1269792, Control_c, 0, 67, 50
1, 1269807, Control_c, 0, 67, 54
1, 1269822, Control_c, 0, 67, 58
1, 1269837, Control_c, 0, 67, 65
1, 1269852, Control_c, 0, 67, 72
1, 1269866, Control_c, 0, 67, 81
1, 1269881, Control_c, 0, 67, 90
1, 1269896, Control_c, 0, 67, 98
1, 1269911, Control_c, 0, 67, 105
1, 1269926, Control_c, 0, 67, 112
1, 1269941, Control_c, 0, 67, 118
1, 1269955, Control_c, 0, 67, 125
1, 1269970, Control_c, 0, 67, 127
1, 1270074, Control_c, 0, 64, 49
1, 1270089, Control_c, 0, 64, 61
1, 1270104, Control_c, 0, 64, 65
1, 1270118, Control_c, 0, 64, 69
1, 1270133, Control_c, 0, 64, 73
1, 1270148, Control_c, 0, 64, 78
1, 1270163, Control_c, 0, 64, 82
1, 1270166, Note_off_c, 0, 51, 46
1, 1270178, Control_c, 0, 64, 86
1, 1270192, Control_c, 0, 64, 88
1, 1270207, Control_c, 0, 64, 90
1, 1270222, Control_c, 0, 64, 92
1, 1270237, Control_c, 0, 64, 93
1, 1270252, Control_c, 0, 64, 95
1, 1270266, Control_c, 0, 64, 95
1, 1270281, Control_c, 0, 64, 96
1, 1270311, Control_c, 0, 64, 95
1, 1270340, Control_c, 0, 64, 95
1, 1270355, Control_c, 0, 64, 91
1, 1270358, Note_on_c, 0, 62, 44
1, 1270370, Control_c, 0, 64, 85
1, 1270373, Note_on_c, 0, 50, 36
1, 1270385, Control_c, 0, 64, 75
1, 1270407, Control_c, 0, 64, 61
1, 1270423, Control_c, 0, 64, 0
1, 1270443, Note_off_c, 0, 60, 51
1, 1270512, Control_c, 0, 64, 24
1, 1270527, Control_c, 0, 64, 62
1, 1270542, Control_c, 0, 64, 67
1, 1270556, Control_c, 0, 64, 72
1, 1270571, Control_c, 0, 64, 77
1, 1270586, Control_c, 0, 64, 83
1, 1270601, Control_c, 0, 64, 90
1, 1270603, Note_off_c, 0, 44, 55
1, 1270616, Control_c, 0, 64, 95
1, 1270622, Note_off_c, 0, 50, 52
1, 1270630, Control_c, 0, 64, 99
1, 1270645, Control_c, 0, 64, 104
1, 1270660, Control_c, 0, 64, 110
1, 1270666, Note_off_c, 0, 53, 38
1, 1270675, Control_c, 0, 64, 118
1, 1270690, Control_c, 0, 64, 127
1, 1270955, Control_c, 0, 64, 112
1, 1270964, Note_on_c, 0, 64, 42
1, 1270970, Note_on_c, 0, 43, 32
1, 1270970, Control_c, 0, 64, 99
1, 1270982, Note_on_c, 0, 60, 28
1, 1270985, Note_on_c, 0, 48, 34
1, 1270985, Control_c, 0, 64, 89
1, 1270993, Note_on_c, 0, 55, 31
1, 1270998, Note_on_c, 0, 36, 29
1, 1271000, Control_c, 0, 64, 80
1, 1271015, Control_c, 0, 64, 72
1, 1271029, Control_c, 0, 64, 63
1, 1271039, Note_off_c, 0, 62, 37
1, 1271044, Control_c, 0, 64, 43
1, 1271059, Control_c, 0, 64, 0
1, 1271275, Control_c, 0, 64, 45
1, 1271290, Control_c, 0, 64, 60
1, 1271305, Control_c, 0, 64, 64
1, 1271320, Control_c, 0, 64, 66
1, 1271334, Control_c, 0, 64, 69
1, 1271349, Control_c, 0, 64, 72
1, 1271364, Control_c, 0, 64, 76
1, 1271378, Control_c, 0, 64, 80
1, 1271393, Control_c, 0, 64, 85
1, 1271408, Control_c, 0, 64, 89
1, 1271423, Control_c, 0, 64, 93
1, 1271438, Control_c, 0, 64, 97
1, 1271452, Control_c, 0, 64, 103
1, 1271467, Control_c, 0, 64, 109
1, 1271482, Control_c, 0, 64, 118
1, 1271497, Control_c, 0, 64, 127
1, 1272023, Note_off_c, 0, 55, 38
1, 1272025, Note_off_c, 0, 43, 32
1, 1272028, Note_off_c, 0, 48, 34
1, 1272062, Note_off_c, 0, 36, 34
1, 1272107, Note_off_c, 0, 60, 34
1, 1272179, Note_off_c, 0, 64, 32
1, 1272379, Control_c, 0, 67, 127
1, 1272393, Control_c, 0, 67, 125
1, 1272408, Control_c, 0, 67, 123
1, 1272423, Control_c, 0, 67, 120
1, 1272438, Control_c, 0, 67, 118
1, 1272453, Control_c, 0, 67, 115
1, 1272467, Control_c, 0, 67, 113
1, 1272482, Control_c, 0, 67, 110
1, 1272497, Control_c, 0, 67, 109
1, 1272512, Control_c, 0, 67, 107
1, 1272526, Control_c, 0, 67, 106
1, 1272541, Control_c, 0, 67, 105
1, 1272556, Control_c, 0, 67, 104
1, 1272586, Control_c, 0, 67, 104
1, 1272615, Control_c, 0, 67, 103
1, 1272682, Control_c, 0, 67, 104
1, 1272697, Control_c, 0, 64, 100
1, 1272697, Control_c, 0, 67, 105
1, 1272712, Control_c, 0, 64, 74
1, 1272712, Control_c, 0, 67, 106
1, 1272726, Control_c, 0, 64, 0
1, 1272726, Control_c, 0, 67, 108
1, 1272741, Control_c, 0, 67, 109
1, 1272756, Control_c, 0, 67, 110
1, 1272771, Control_c, 0, 67, 111
1, 1272786, Control_c, 0, 67, 111
1, 1272800, Control_c, 0, 67, 112
1, 1272816, Control_c, 0, 67, 113
1, 1272831, Control_c, 0, 67, 113
1, 1272846, Control_c, 0, 67, 114
1, 1272890, Control_c, 0, 67, 114
1, 1273039, Control_c, 0, 67, 114
1, 1273052, Note_on_c, 0, 92, 71
1, 1273059, Note_on_c, 0, 89, 58
1, 1273060, Note_on_c, 0, 80, 54
1, 1273065, Note_on_c, 0, 24, 37
1, 1273065, Note_on_c, 0, 83, 55
1, 1273069, Note_on_c, 0, 36, 37
1, 1273069, Control_c, 0, 64, 21
1, 1273069, Control_c, 0, 67, 113
1, 1273075, Note_on_c, 0, 86, 50
1, 1273084, Control_c, 0, 64, 61
1, 1273084, Control_c, 0, 67, 113
1, 1273098, Control_c, 0, 64, 70
1, 1273098, Control_c, 0, 67, 112
1, 1273113, Control_c, 0, 64, 83
1, 1273113, Control_c, 0, 67, 111
1, 1273128, Control_c, 0, 64, 105
1, 1273128, Control_c, 0, 67, 110
1, 1273142, Control_c, 0, 64, 127
1, 1273142, Control_c, 0, 67, 110
1, 1273157, Control_c, 0, 67, 109
1, 1273216, Note_off_c, 0, 89, 58
1, 1273227, Note_off_c, 0, 80, 62
1, 1273234, Note_off_c, 0, 92, 59
1, 1273259, Note_off_c, 0, 36, 38
1, 1273265, Note_off_c, 0, 83, 47
1, 1273272, Note_off_c, 0, 24, 40
1, 1273277, Control_c, 0, 67, 110
1, 1273291, Note_off_c, 0, 86, 29
1, 1273291, Control_c, 0, 67, 110
1, 1273306, Control_c, 0, 67, 111
1, 1273321, Control_c, 0, 67, 112
1, 1273335, Control_c, 0, 67, 113
1, 1273350, Control_c, 0, 67, 114
1, 1273365, Control_c, 0, 64, 98
1, 1273380, Control_c, 0, 64, 73
1, 1273380, Control_c, 0, 67, 114
1, 1273400, Note_on_c, 0, 91, 83
1, 1273402, Note_on_c, 0, 24, 60
1, 1273402, Control_c, 0, 64, 0
1, 1273403, Note_on_c, 0, 36, 55
1, 1273405, Note_on_c, 0, 83, 63
1, 1273412, Note_on_c, 0, 86, 62
1, 1273417, Note_on_c, 0, 79, 55
1, 1273431, Note_off_c, 0, 36, 57
1, 1273432, Note_off_c, 0, 83, 65
1, 1273436, Note_off_c, 0, 91, 63
1, 1273437, Note_off_c, 0, 79, 61
1, 1273438, Note_off_c, 0, 24, 61
1, 1273442, Note_off_c, 0, 86, 63
1, 1273461, Control_c, 0, 67, 114
1, 1273476, Control_c, 0, 67, 113
1, 1273572, Note_on_c, 0, 36, 57
1, 1273573, Note_on_c, 0, 89, 82
1, 1273578, Note_on_c, 0, 24, 61
1, 1273579, Note_on_c, 0, 86, 56
1, 1273582, Note_on_c, 0, 77, 68
1, 1273583, Note_on_c, 0, 83, 62
1, 1273598, Note_off_c, 0, 86, 64
1, 1273599, Note_off_c, 0, 77, 68
1, 1273599, Note_off_c, 0, 83, 66
1, 1273600, Note_off_c, 0, 36, 56
1, 1273602, Note_off_c, 0, 89, 60
1, 1273614, Note_off_c, 0, 24, 58
1, 1273655, Control_c, 0, 67, 113
1, 1273670, Control_c, 0, 67, 110
1, 1273685, Control_c, 0, 67, 105
1, 1273700, Control_c, 0, 67, 98
1, 1273715, Control_c, 0, 67, 80
1, 1273729, Control_c, 0, 67, 52
1, 1273740, Note_on_c, 0, 36, 58
1, 1273744, Note_on_c, 0, 88, 84
1, 1273744, Control_c, 0, 67, 20
1, 1273747, Note_on_c, 0, 24, 58
1, 1273747, Note_on_c, 0, 76, 76
1, 1273754, Note_on_c, 0, 84, 58
1, 1273759, Control_c, 0, 67, 0
1, 1273762, Note_off_c, 0, 88, 73
1, 1273763, Note_off_c, 0, 76, 67
1, 1273768, Note_off_c, 0, 36, 55
1, 1273772, Note_off_c, 0, 84, 63
1, 1273783, Note_off_c, 0, 24, 55
1, 1273907, Control_c, 0, 64, 19
1, 1273921, Control_c, 0, 64, 27
1, 1273936, Control_c, 0, 64, 31
1, 1273951, Control_c, 0, 64, 33
1, 1273965, Control_c, 0, 64, 34
1, 1273984, Note_on_c, 0, 77, 69
1, 1273985, Note_on_c, 0, 89, 76
1, 1273986, Note_on_c, 0, 24, 70
1, 1273986, Note_on_c, 0, 36, 59
1, 1273989, Note_on_c, 0, 86, 62
1, 1273995, Control_c, 0, 64, 33
1, 1274000, Note_off_c, 0, 89, 68
1, 1274001, Note_off_c, 0, 77, 67
1, 1274007, Note_off_c, 0, 86, 65
1, 1274015, Note_off_c, 0, 36, 55
1, 1274019, Note_off_c, 0, 24, 61
1, 1274046, Note_on_c, 0, 91, 92
1, 1274050, Note_on_c, 0, 88, 82
1, 1274063, Note_off_c, 0, 91, 73
1, 1274066, Note_on_c, 0, 36, 42
1, 1274069, Note_off_c, 0, 88, 72
1, 1274070, Note_on_c, 0, 79, 44
1, 1274096, Note_off_c, 0, 79, 38
1, 1274100, Note_off_c, 0, 36, 51
1, 1274129, Control_c, 0, 64, 35
1, 1274151, Control_c, 0, 64, 38
1, 1274165, Control_c, 0, 64, 41
1, 1274180, Control_c, 0, 64, 43
1, 1274195, Control_c, 0, 64, 44
1, 1274210, Control_c, 0, 64, 45
1, 1274225, Control_c, 0, 64, 46
1, 1274239, Control_c, 0, 64, 47
1, 1274254, Control_c, 0, 64, 48
1, 1274269, Control_c, 0, 64, 49
1, 1274284, Control_c, 0, 64, 49
1, 1274314, Control_c, 0, 64, 50
1, 1274344, Control_c, 0, 67, 9
1, 1274359, Control_c, 0, 67, 13
1, 1274373, Control_c, 0, 64, 50
1, 1274373, Control_c, 0, 67, 20
1, 1274388, Control_c, 0, 67, 28
1, 1274403, Control_c, 0, 64, 51
1, 1274403, Control_c, 0, 67, 38
1, 1274418, Control_c, 0, 67, 50
1, 1274433, Control_c, 0, 67, 61
1, 1274448, Control_c, 0, 67, 75
1, 1274463, Control_c, 0, 67, 87
1, 1274478, Control_c, 0, 67, 97
1, 1274493, Control_c, 0, 67, 107
1, 1274508, Control_c, 0, 67, 116
1, 1274522, Control_c, 0, 67, 123
1, 1274537, Control_c, 0, 67, 127
1, 1274641, Control_c, 0, 64, 51
1, 1274656, Control_c, 0, 64, 52
1, 1274685, Control_c, 0, 64, 53
1, 1274700, Control_c, 0, 64, 53
1, 1274714, Control_c, 0, 64, 54
1, 1274729, Control_c, 0, 64, 55
1, 1274731, Note_on_c, 0, 76, 56
1, 1274744, Control_c, 0, 64, 57
1, 1274759, Control_c, 0, 64, 58
1, 1274774, Control_c, 0, 64, 60
1, 1274788, Control_c, 0, 64, 62
1, 1274803, Control_c, 0, 64, 63
1, 1274818, Control_c, 0, 64, 64
1, 1274833, Control_c, 0, 64, 65
1, 1274848, Control_c, 0, 64, 67
1, 1274862, Control_c, 0, 64, 68
1, 1274877, Control_c, 0, 64, 71
1, 1274900, Control_c, 0, 64, 73
1, 1274914, Control_c, 0, 64, 75
1, 1274929, Control_c, 0, 64, 78
1, 1274944, Control_c, 0, 64, 81
1, 1274949, Note_on_c, 0, 67, 41
1, 1274952, Note_on_c, 0, 70, 42
1, 1274955, Note_on_c, 0, 60, 25
1, 1274959, Control_c, 0, 64, 85
1, 1274974, Control_c, 0, 64, 90
1, 1274988, Control_c, 0, 64, 95
1, 1275003, Control_c, 0, 64, 101
1, 1275018, Control_c, 0, 64, 109
1, 1275033, Control_c, 0, 64, 127
1, 1275092, Control_c, 0, 67, 125
1, 1275107, Control_c, 0, 67, 122
1, 1275122, Control_c, 0, 67, 119
1, 1275137, Control_c, 0, 67, 115
1, 1275152, Control_c, 0, 67, 109
1, 1275167, Control_c, 0, 67, 103
1, 1275181, Control_c, 0, 67, 96
1, 1275196, Control_c, 0, 67, 89
1, 1275211, Control_c, 0, 67, 84
1, 1275226, Control_c, 0, 67, 80
1, 1275241, Control_c, 0, 67, 75
1, 1275256, Control_c, 0, 67, 72
1, 1275271, Control_c, 0, 67, 68
1, 1275286, Control_c, 0, 67, 66
1, 1275300, Control_c, 0, 67, 64
1, 1275309, Note_on_c, 0, 78, 63
1, 1275312, Note_on_c, 0, 66, 54
1, 1275315, Control_c, 0, 67, 63
1, 1275317, Note_off_c, 0, 70, 30
1, 1275330, Control_c, 0, 67, 62
1, 1275348, Note_off_c, 0, 60, 46
1, 1275525, Note_on_c, 0, 79, 67
1, 1275533, Note_on_c, 0, 59, 45
1, 1275537, Note_on_c, 0, 71, 56
1, 1275564, Note_on_c, 0, 64, 52
1, 1275566, Control_c, 0, 67, 61
1, 1275572, Note_off_c, 0, 76, 53
1, 1275581, Control_c, 0, 64, 97
1, 1275596, Control_c, 0, 64, 80
1, 1275596, Control_c, 0, 67, 61
1, 1275608, Note_off_c, 0, 78, 55
1, 1275611, Control_c, 0, 64, 65
1, 1275619, Note_off_c, 0, 66, 61
1, 1275626, Control_c, 0, 64, 0
1, 1275626, Control_c, 0, 67, 60
1, 1275648, Control_c, 0, 67, 60
1, 1275662, Note_off_c, 0, 67, 18
1, 1275663, Control_c, 0, 67, 58
1, 1275678, Control_c, 0, 67, 54
1, 1275692, Control_c, 0, 67, 50
1, 1275707, Control_c, 0, 67, 47
1, 1275722, Control_c, 0, 64, 27
1, 1275722, Control_c, 0, 67, 45
1, 1275736, Control_c, 0, 64, 63
1, 1275736, Control_c, 0, 67, 42
1, 1275751, Control_c, 0, 64, 70
1, 1275751, Control_c, 0, 67, 39
1, 1275766, Control_c, 0, 64, 77
1, 1275766, Control_c, 0, 67, 36
1, 1275781, Control_c, 0, 64, 87
1, 1275781, Control_c, 0, 67, 34
1, 1275796, Control_c, 0, 64, 101
1, 1275796, Control_c, 0, 67, 32
1, 1275810, Control_c, 0, 64, 127
1, 1275810, Control_c, 0, 67, 30
1, 1275825, Control_c, 0, 67, 28
1, 1275840, Control_c, 0, 67, 25
1, 1275855, Control_c, 0, 67, 22
1, 1275870, Control_c, 0, 67, 20
1, 1275885, Control_c, 0, 67, 17
1, 1275900, Control_c, 0, 67, 15
1, 1275915, Control_c, 0, 67, 12
1, 1275930, Control_c, 0, 67, 10
1, 1275938, Note_on_c, 0, 66, 77
1, 1275939, Note_off_c, 0, 71, 57
1, 1275944, Control_c, 0, 67, 8
1, 1275959, Control_c, 0, 67, 0
1, 1276028, Note_off_c, 0, 64, 62
1, 1276043, Note_off_c, 0, 59, 62
1, 1276085, Note_off_c, 0, 79, 38
1, 1276187, Note_on_c, 0, 76, 77
1, 1276196, Note_on_c, 0, 72, 74
1, 1276201, Note_on_c, 0, 67, 61
1, 1276205, Note_on_c, 0, 58, 57
1, 1276242, Control_c, 0, 64, 109
1, 1276257, Control_c, 0, 64, 94
1, 1276272, Control_c, 0, 64, 81
1, 1276287, Control_c, 0, 64, 69
1, 1276302, Control_c, 0, 64, 0
1, 1276359, Note_off_c, 0, 66, 63
1, 1276472, Control_c, 0, 64, 14
1, 1276486, Control_c, 0, 64, 24
1, 1276501, Control_c, 0, 64, 31
1, 1276516, Control_c, 0, 64, 36
1, 1276531, Control_c, 0, 64, 39
1, 1276546, Control_c, 0, 64, 42
1, 1276561, Control_c, 0, 64, 44
1, 1276575, Control_c, 0, 64, 45
1, 1276590, Control_c, 0, 64, 46
1, 1276605, Control_c, 0, 64, 47
1, 1276649, Control_c, 0, 64, 47
1, 1276664, Control_c, 0, 64, 48
1, 1276679, Control_c, 0, 64, 48
1, 1276708, Control_c, 0, 64, 49
1, 1276757, Note_on_c, 0, 65, 56
1, 1276767, Note_on_c, 0, 77, 82
1, 1276767, Control_c, 0, 64, 49
1, 1276782, Control_c, 0, 64, 50
1, 1276797, Control_c, 0, 64, 51
1, 1276813, Control_c, 0, 64, 51
1, 1276828, Control_c, 0, 64, 52
1, 1276843, Control_c, 0, 64, 53
1, 1276857, Control_c, 0, 64, 53
1, 1276872, Control_c, 0, 64, 54
1, 1276887, Control_c, 0, 64, 55
1, 1276902, Control_c, 0, 64, 55
1, 1276916, Control_c, 0, 64, 56
1, 1276931, Control_c, 0, 64, 56
1, 1276946, Control_c, 0, 64, 57
1, 1276961, Control_c, 0, 64, 57
1, 1276976, Control_c, 0, 64, 58
1, 1276991, Control_c, 0, 64, 58
1, 1277146, Control_c, 0, 64, 57
1, 1277160, Note_on_c, 0, 79, 77
1, 1277161, Control_c, 0, 64, 56
1, 1277176, Control_c, 0, 64, 56
1, 1277179, Note_on_c, 0, 64, 50
1, 1277191, Control_c, 0, 64, 55
1, 1277205, Control_c, 0, 64, 53
1, 1277220, Control_c, 0, 64, 51
1, 1277235, Control_c, 0, 64, 49
1, 1277250, Control_c, 0, 64, 46
1, 1277262, Note_off_c, 0, 76, 53
1, 1277265, Control_c, 0, 64, 44
1, 1277280, Control_c, 0, 64, 41
1, 1277295, Note_off_c, 0, 77, 62
1, 1277295, Control_c, 0, 64, 36
1, 1277310, Control_c, 0, 64, 31
1, 1277324, Control_c, 0, 64, 26
1, 1277339, Control_c, 0, 64, 17
1, 1277340, Note_off_c, 0, 65, 62
1, 1277353, Note_off_c, 0, 67, 25
1, 1277354, Control_c, 0, 64, 0
1, 1277695, Control_c, 0, 64, 23
1, 1277710, Control_c, 0, 64, 50
1, 1277725, Control_c, 0, 64, 61
1, 1277739, Control_c, 0, 64, 64
1, 1277754, Control_c, 0, 64, 67
1, 1277769, Control_c, 0, 64, 72
1, 1277784, Control_c, 0, 64, 78
1, 1277799, Control_c, 0, 64, 86
1, 1277814, Control_c, 0, 64, 96
1, 1277828, Control_c, 0, 64, 107
1, 1277843, Control_c, 0, 64, 127
1, 1277898, Note_off_c, 0, 58, 38
1, 1277902, Note_off_c, 0, 64, 61
1, 1277910, Note_off_c, 0, 72, 57
1, 1277992, Note_off_c, 0, 79, 60
1, 1277999, Control_c, 0, 64, 114
1, 1278013, Control_c, 0, 64, 80
1, 1278028, Control_c, 0, 64, 62
1, 1278037, Note_on_c, 0, 72, 94
1, 1278043, Control_c, 0, 64, 0
1, 1278109, Note_on_c, 0, 56, 77
1, 1278127, Note_on_c, 0, 60, 62
1, 1278141, Note_on_c, 0, 65, 60
1, 1278162, Control_c, 0, 64, 58
1, 1278177, Control_c, 0, 64, 73
1, 1278192, Control_c, 0, 64, 108
1, 1278205, Note_off_c, 0, 56, 66
1, 1278207, Control_c, 0, 64, 127
1, 1278217, Note_on_c, 0, 68, 92
1, 1278217, Note_off_c, 0, 72, 58
1, 1278226, Note_on_c, 0, 84, 98
1, 1278229, Note_on_c, 0, 77, 96
1, 1278234, Note_off_c, 0, 68, 73
1, 1278238, Note_off_c, 0, 60, 64
1, 1278239, Note_off_c, 0, 65, 63
1, 1278253, Note_off_c, 0, 77, 63
1, 1278274, Note_off_c, 0, 84, 66
1, 1278325, Control_c, 0, 64, 97
1, 1278339, Control_c, 0, 64, 73
1, 1278354, Control_c, 0, 64, 23
1, 1278369, Control_c, 0, 64, 0
1, 1278399, Control_c, 0, 64, 44
1, 1278415, Control_c, 0, 64, 63
1, 1278429, Control_c, 0, 64, 66
1, 1278444, Control_c, 0, 64, 67
1, 1278459, Control_c, 0, 64, 67
1, 1278470, Note_on_c, 0, 82, 80
1, 1278472, Note_on_c, 0, 79, 74
1, 1278474, Control_c, 0, 64, 64
1, 1278489, Control_c, 0, 64, 0
1, 1278494, Note_off_c, 0, 79, 69
1, 1278531, Note_off_c, 0, 82, 55
1, 1278532, Note_on_c, 0, 80, 84
1, 1278533, Note_on_c, 0, 61, 101
1, 1278536, Note_on_c, 0, 49, 95
1, 1278542, Note_on_c, 0, 77, 74
1, 1278551, Note_off_c, 0, 80, 68
1, 1278564, Note_off_c, 0, 77, 71
1, 1278714, Note_on_c, 0, 68, 98
1, 1278717, Note_on_c, 0, 77, 86
1, 1278730, Note_off_c, 0, 61, 60
1, 1278731, Note_off_c, 0, 49, 65
1, 1278733, Control_c, 0, 64, 45
1, 1278736, Note_off_c, 0, 68, 63
1, 1278738, Note_off_c, 0, 77, 68
1, 1278748, Control_c, 0, 64, 0
1, 1278822, Control_c, 0, 64, 28
1, 1278836, Control_c, 0, 64, 42
1, 1278851, Control_c, 0, 64, 51
1, 1278864, Note_on_c, 0, 60, 82
1, 1278866, Note_on_c, 0, 48, 83
1, 1278866, Control_c, 0, 64, 58
1, 1278875, Note_on_c, 0, 68, 85
1, 1278877, Note_on_c, 0, 65, 76
1, 1278881, Control_c, 0, 64, 60
1, 1278884, Note_off_c, 0, 60, 72
1, 1278892, Note_off_c, 0, 48, 68
1, 1278892, Note_off_c, 0, 68, 71
1, 1278896, Control_c, 0, 64, 59
1, 1278897, Note_off_c, 0, 65, 71
1, 1278911, Control_c, 0, 64, 47
1, 1278925, Control_c, 0, 64, 0
1, 1279034, Note_on_c, 0, 44, 86
1, 1279034, Note_on_c, 0, 56, 88
1, 1279038, Note_on_c, 0, 65, 70
1, 1279046, Note_on_c, 0, 60, 72
1, 1279054, Note_off_c, 0, 56, 72
1, 1279061, Note_off_c, 0, 44, 67
1, 1279066, Note_off_c, 0, 65, 65
1, 1279107, Note_off_c, 0, 60, 62
1, 1279202, Note_on_c, 0, 55, 89
1, 1279210, Note_on_c, 0, 51, 89
1, 1279211, Note_on_c, 0, 63, 93
1, 1279212, Note_on_c, 0, 72, 92
1, 1279215, Note_on_c, 0, 60, 72
1, 1279218, Note_on_c, 0, 43, 64
1, 1279223, Note_off_c, 0, 55, 71
1, 1279223, Control_c, 0, 64, 73
1, 1279231, Note_off_c, 0, 63, 68
1, 1279232, Note_off_c, 0, 51, 66
1, 1279233, Note_off_c, 0, 60, 69
1, 1279238, Control_c, 0, 64, 127
1, 1279247, Note_off_c, 0, 43, 40
1, 1279247, Note_off_c, 0, 72, 65
1, 1279326, Control_c, 0, 64, 90
1, 1279328, Poly_aftertouch_c, 0, 51, 127
1, 1279341, Control_c, 0, 64, 69
1, 1279356, Control_c, 0, 64, 47
1, 1279370, Poly_aftertouch_c, 0, 51, 0
1, 1279371, Control_c, 0, 64, 37
1, 1279393, Control_c, 0, 64, 55
1, 1279408, Control_c, 0, 64, 66
1, 1279423, Control_c, 0, 64, 72
1, 1279438, Control_c, 0, 64, 77
1, 1279453, Control_c, 0, 64, 81
1, 1279467, Control_c, 0, 64, 84
1, 1279474, Note_on_c, 0, 68, 82
1, 1279482, Control_c, 0, 64, 84
1, 1279494, Note_off_c, 0, 68, 70
1, 1279497, Control_c, 0, 64, 81
1, 1279502, Note_on_c, 0, 63, 56
1, 1279511, Control_c, 0, 64, 67
1, 1279526, Control_c, 0, 64, 0
1, 1279530, Note_on_c, 0, 85, 103
1, 1279531, Note_on_c, 0, 73, 97
1, 1279532, Note_on_c, 0, 75, 95
1, 1279542, Note_off_c, 0, 63, 0
1, 1279553, Note_on_c, 0, 63, 60
1, 1279558, Note_on_c, 0, 67, 72
1, 1279576, Note_off_c, 0, 67, 65
1, 1279578, Note_off_c, 0, 63, 66
1, 1279706, Note_on_c, 0, 55, 93
1, 1279712, Note_on_c, 0, 63, 86
1, 1279728, Note_off_c, 0, 55, 71
1, 1279732, Note_off_c, 0, 63, 70
1, 1279733, Control_c, 0, 64, 50
1, 1279748, Control_c, 0, 64, 44
1, 1279760, Note_off_c, 0, 85, 61
1, 1279763, Note_off_c, 0, 73, 63
1, 1279763, Control_c, 0, 64, 11
1, 1279771, Note_off_c, 0, 75, 58
1, 1279778, Control_c, 0, 64, 28
1, 1279793, Control_c, 0, 64, 42
1, 1279808, Control_c, 0, 64, 47
1, 1279823, Control_c, 0, 64, 48
1, 1279853, Control_c, 0, 64, 49
1, 1279867, Note_on_c, 0, 55, 79
1, 1279867, Note_on_c, 0, 84, 92
1, 1279867, Control_c, 0, 64, 53
1, 1279867, Note_on_c, 0, 75, 94
1, 1279868, Note_on_c, 0, 51, 72
1, 1279872, Note_on_c, 0, 72, 78
1, 1279882, Control_c, 0, 64, 58
1, 1279884, Note_off_c, 0, 84, 69
1, 1279887, Note_off_c, 0, 75, 67
1, 1279888, Note_off_c, 0, 55, 68
1, 1279891, Note_off_c, 0, 72, 72
1, 1279897, Control_c, 0, 64, 62
1, 1279903, Note_off_c, 0, 51, 65
1, 1279911, Control_c, 0, 64, 64
1, 1279926, Control_c, 0, 64, 65
1, 1279941, Control_c, 0, 64, 65
1, 1279971, Control_c, 0, 64, 62
1, 1279985, Control_c, 0, 64, 0
1, 1280020, Note_on_c, 0, 48, 85
1, 1280024, Note_on_c, 0, 51, 87
1, 1280024, Note_on_c, 0, 79, 94
1, 1280025, Note_on_c, 0, 67, 88
1, 1280027, Note_on_c, 0, 75, 80
1, 1280043, Note_off_c, 0, 67, 73
1, 1280043, Note_off_c, 0, 79, 68
1, 1280046, Note_off_c, 0, 48, 68
1, 1280046, Note_off_c, 0, 75, 70
1, 1280051, Note_off_c, 0, 51, 69
1, 1280213, Note_on_c, 0, 55, 90
1, 1280216, Control_c, 0, 64, 81
1, 1280216, Note_on_c, 0, 43, 86
1, 1280222, Note_on_c, 0, 60, 78
1, 1280225, Note_on_c, 0, 62, 77
1, 1280231, Control_c, 0, 64, 115
1, 1280233, Note_off_c, 0, 55, 71
1, 1280244, Note_off_c, 0, 43, 64
1, 1280246, Control_c, 0, 64, 127
1, 1280320, Control_c, 0, 64, 116
1, 1280334, Control_c, 0, 64, 76
1, 1280349, Control_c, 0, 64, 0
1, 1280574, Note_on_c, 0, 68, 95
1, 1280580, Note_on_c, 0, 56, 85
1, 1280779, Control_c, 0, 64, 43
1, 1280794, Control_c, 0, 64, 77
1, 1280809, Control_c, 0, 64, 89
1, 1280820, Note_off_c, 0, 68, 65
1, 1280824, Control_c, 0, 64, 113
1, 1280839, Note_off_c, 0, 56, 58
1, 1280839, Control_c, 0, 64, 127
1, 1280998, Note_off_c, 0, 60, 56
1, 1281007, Note_off_c, 0, 62, 61
1, 1281113, Control_c, 0, 64, 106
1, 1281128, Control_c, 0, 64, 81
1, 1281143, Control_c, 0, 64, 62
1, 1281157, Control_c, 0, 64, 0
1, 1281283, Note_on_c, 0, 43, 72
1, 1281290, Control_c, 0, 64, 66
1, 1281292, Note_on_c, 0, 59, 64
1, 1281292, Note_on_c, 0, 62, 65
1, 1281305, Control_c, 0, 64, 76
1, 1281310, Note_off_c, 0, 43, 66
1, 1281320, Control_c, 0, 64, 88
1, 1281335, Control_c, 0, 64, 94
1, 1281349, Control_c, 0, 64, 91
1, 1281364, Control_c, 0, 64, 81
1, 1281379, Control_c, 0, 64, 70
1, 1281394, Control_c, 0, 64, 56
1, 1281409, Control_c, 0, 64, 0
1, 1281453, Control_c, 0, 64, 30
1, 1281468, Control_c, 0, 64, 46
1, 1281483, Control_c, 0, 64, 50
1, 1281498, Control_c, 0, 64, 52
1, 1281528, Control_c, 0, 64, 51
1, 1281543, Control_c, 0, 64, 50
1, 1281557, Control_c, 0, 64, 47
1, 1281572, Control_c, 0, 64, 42
1, 1281587, Control_c, 0, 64, 31
1, 1281602, Control_c, 0, 64, 0
1, 1281676, Note_on_c, 0, 68, 65
1, 1281683, Note_on_c, 0, 56, 60
1, 1281856, Note_off_c, 0, 68, 63
1, 1281891, Control_c, 0, 64, 49
1, 1281903, Note_off_c, 0, 56, 64
1, 1281906, Control_c, 0, 64, 77
1, 1281921, Control_c, 0, 64, 91
1, 1281936, Control_c, 0, 64, 127
1, 1281961, Note_off_c, 0, 59, 60
1, 1281978, Note_off_c, 0, 62, 61
1, 1282188, Note_on_c, 0, 43, 92
1, 1282194, Note_on_c, 0, 67, 95
1, 1282306, Control_c, 0, 64, 91
1, 1282321, Control_c, 0, 64, 59
1, 1282336, Control_c, 0, 64, 0
1, 1282365, Note_on_c, 0, 72, 86
1, 1282367, Note_on_c, 0, 64, 82
1, 1282368, Note_on_c, 0, 60, 86
1, 1282368, Note_off_c, 0, 67, 59
1, 1282371, Note_on_c, 0, 48, 96
1, 1282380, Note_on_c, 0, 36, 89
1, 1282387, Control_c, 0, 64, 72
1, 1282402, Note_off_c, 0, 48, 66
1, 1282403, Note_off_c, 0, 43, 65
1, 1282403, Control_c, 0, 64, 127
1, 1282404, Note_off_c, 0, 36, 65
1, 1282405, Note_off_c, 0, 60, 66
1, 1282421, Note_off_c, 0, 64, 66
1, 1282431, Note_off_c, 0, 72, 67
1, 1282522, Control_c, 0, 64, 84
1, 1282536, Control_c, 0, 64, 62
1, 1282551, Control_c, 0, 64, 0
1, 1282581, Control_c, 0, 64, 14
1, 1282596, Control_c, 0, 64, 60
1, 1282610, Control_c, 0, 64, 64
1, 1282625, Control_c, 0, 64, 64
1, 1282640, Control_c, 0, 64, 63
1, 1282655, Control_c, 0, 64, 61
1, 1282670, Control_c, 0, 64, 47
1, 1282684, Control_c, 0, 64, 0
1, 1282722, Note_on_c, 0, 73, 97
1, 1282723, Note_on_c, 0, 61, 86
1, 1282726, Note_on_c, 0, 58, 82
1, 1282726, Note_on_c, 0, 70, 86
1, 1282878, Control_c, 0, 64, 30
1, 1282893, Control_c, 0, 64, 83
1, 1282899, Note_off_c, 0, 58, 55
1, 1282908, Control_c, 0, 64, 103
1, 1282916, Note_off_c, 0, 61, 58
1, 1282923, Control_c, 0, 64, 127
1, 1282972, Note_off_c, 0, 70, 60
1, 1282978, Note_off_c, 0, 73, 59
1, 1283041, Control_c, 0, 64, 90
1, 1283055, Note_on_c, 0, 72, 86
1, 1283055, Control_c, 0, 64, 60
1, 1283057, Note_on_c, 0, 56, 81
1, 1283061, Note_on_c, 0, 68, 79
1, 1283062, Note_on_c, 0, 60, 71
1, 1283070, Control_c, 0, 64, 0
1, 1283081, Note_off_c, 0, 68, 68
1, 1283086, Note_off_c, 0, 60, 68
1, 1283093, Note_off_c, 0, 56, 60
1, 1283093, Note_off_c, 0, 72, 63
1, 1283227, Note_on_c, 0, 55, 74
1, 1283227, Note_on_c, 0, 70, 88
1, 1283227, Note_on_c, 0, 58, 77
1, 1283232, Note_on_c, 0, 67, 78
1, 1283253, Note_off_c, 0, 67, 69
1, 1283259, Note_off_c, 0, 58, 61
1, 1283260, Note_off_c, 0, 55, 66
1, 1283263, Note_off_c, 0, 70, 62
1, 1283272, Control_c, 0, 64, 21
1, 1283286, Control_c, 0, 64, 29
1, 1283301, Control_c, 0, 64, 35
1, 1283316, Control_c, 0, 64, 36
1, 1283331, Control_c, 0, 64, 0
1, 1283393, Note_on_c, 0, 53, 84
1, 1283394, Note_on_c, 0, 65, 81
1, 1283394, Note_on_c, 0, 68, 90
1, 1283400, Note_on_c, 0, 56, 80
1, 1283413, Note_off_c, 0, 68, 68
1, 1283414, Note_off_c, 0, 65, 72
1, 1283418, Note_off_c, 0, 53, 72
1, 1283424, Note_off_c, 0, 56, 71
1, 1283492, Control_c, 0, 64, 27
1, 1283507, Control_c, 0, 64, 36
1, 1283522, Control_c, 0, 64, 44
1, 1283537, Control_c, 0, 64, 50
1, 1283551, Control_c, 0, 64, 54
1, 1283566, Control_c, 0, 64, 56
1, 1283581, Control_c, 0, 64, 58
1, 1283596, Control_c, 0, 64, 60
1, 1283611, Control_c, 0, 64, 61
1, 1283624, Note_on_c, 0, 55, 73
1, 1283625, Control_c, 0, 64, 62
1, 1283632, Note_on_c, 0, 58, 65
1, 1283635, Note_on_c, 0, 70, 65
1, 1283635, Note_on_c, 0, 67, 68
1, 1283651, Note_off_c, 0, 55, 65
1, 1283653, Note_off_c, 0, 70, 66
1, 1283655, Note_off_c, 0, 67, 64
1, 1283655, Control_c, 0, 64, 53
1, 1283658, Note_off_c, 0, 58, 66
1, 1283670, Control_c, 0, 64, 0
1, 1283680, Note_on_c, 0, 68, 90
1, 1283687, Note_on_c, 0, 72, 84
1, 1283693, Note_on_c, 0, 56, 84
1, 1283696, Note_on_c, 0, 60, 79
1, 1283710, Note_off_c, 0, 68, 64
1, 1283712, Note_off_c, 0, 72, 65
1, 1283715, Note_off_c, 0, 56, 72
1, 1283719, Note_off_c, 0, 60, 71
1, 1283803, Control_c, 0, 64, 21
1, 1283818, Control_c, 0, 64, 29
1, 1283832, Control_c, 0, 64, 32
1, 1283862, Control_c, 0, 64, 21
1, 1283884, Control_c, 0, 64, 0
1, 1283958, Control_c, 0, 64, 64
1, 1283973, Control_c, 0, 64, 84
1, 1283988, Control_c, 0, 64, 127
1, 1284192, Note_on_c, 0, 48, 87
1, 1284240, Note_off_c, 0, 48, 64
1, 1284322, Poly_aftertouch_c, 0, 44, 127
1, 1284353, Poly_aftertouch_c, 0, 44, 0
1, 1284363, Note_on_c, 0, 44, 72
1, 1284363, Note_on_c, 0, 51, 101
1, 1284366, Note_on_c, 0, 56, 88
1, 1284368, Note_on_c, 0, 60, 81
1, 1284371, Note_on_c, 0, 32, 85
1, 1284374, Control_c, 0, 64, 97
1, 1284389, Control_c, 0, 64, 67
1, 1284394, Note_off_c, 0, 44, 68
1, 1284398, Note_off_c, 0, 32, 67
1, 1284402, Note_off_c, 0, 51, 67
1, 1284404, Control_c, 0, 64, 0
1, 1284425, Note_off_c, 0, 56, 62
1, 1284427, Note_off_c, 0, 60, 64
1, 1284478, Control_c, 0, 64, 36
1, 1284493, Control_c, 0, 64, 42
1, 1284507, Control_c, 0, 64, 45
1, 1284522, Control_c, 0, 64, 47
1, 1284537, Control_c, 0, 64, 49
1, 1284552, Control_c, 0, 64, 52
1, 1284567, Control_c, 0, 64, 55
1, 1284581, Control_c, 0, 64, 57
1, 1284596, Control_c, 0, 64, 56
1, 1284611, Control_c, 0, 64, 41
1, 1284633, Control_c, 0, 64, 0
1, 1284691, Note_on_c, 0, 61, 90
1, 1284696, Note_on_c, 0, 53, 86
1, 1284700, Note_on_c, 0, 56, 87
1, 1284702, Note_on_c, 0, 37, 97
1, 1284705, Note_on_c, 0, 25, 95
1, 1284737, Control_c, 0, 64, 59
1, 1284752, Control_c, 0, 64, 96
1, 1284767, Control_c, 0, 64, 127
1, 1284827, Note_off_c, 0, 37, 65
1, 1284836, Note_off_c, 0, 25, 61
1, 1284839, Note_off_c, 0, 53, 63
1, 1284846, Note_off_c, 0, 56, 63
1, 1284854, Note_off_c, 0, 61, 66
1, 1285036, Poly_aftertouch_c, 0, 55, 127
1, 1285051, Note_on_c, 0, 60, 82
1, 1285060, Note_on_c, 0, 39, 91
1, 1285062, Note_on_c, 0, 27, 90
1, 1285062, Note_on_c, 0, 49, 85
1, 1285063, Control_c, 0, 64, 84
1, 1285078, Control_c, 0, 64, 60
1, 1285093, Control_c, 0, 64, 0
1, 1285109, Note_off_c, 0, 39, 62
1, 1285119, Note_off_c, 0, 27, 61
1, 1285126, Note_off_c, 0, 60, 61
1, 1285128, Note_off_c, 0, 49, 60
1, 1285156, Poly_aftertouch_c, 0, 55, 0
1, 1285221, Note_on_c, 0, 39, 87
1, 1285221, Note_on_c, 0, 27, 85
1, 1285224, Note_on_c, 0, 49, 87
1, 1285225, Note_on_c, 0, 58, 81
1, 1285242, Control_c, 0, 64, 27
1, 1285248, Note_on_c, 0, 55, 53
1, 1285255, Note_off_c, 0, 27, 68
1, 1285256, Control_c, 0, 64, 44
1, 1285261, Note_off_c, 0, 39, 60
1, 1285271, Control_c, 0, 64, 54
1, 1285272, Note_off_c, 0, 49, 65
1, 1285278, Note_off_c, 0, 55, 64
1, 1285286, Control_c, 0, 64, 59
1, 1285296, Note_off_c, 0, 58, 61
1, 1285301, Control_c, 0, 64, 61
1, 1285315, Control_c, 0, 64, 62
1, 1285345, Control_c, 0, 64, 57
1, 1285360, Control_c, 0, 64, 0
1, 1285400, Note_on_c, 0, 44, 93
1, 1285403, Note_on_c, 0, 32, 86
1, 1285403, Note_on_c, 0, 56, 89
1, 1285403, Note_on_c, 0, 48, 79
1, 1285424, Note_off_c, 0, 44, 69
1, 1285426, Note_off_c, 0, 48, 67
1, 1285429, Note_off_c, 0, 32, 66
1, 1285435, Note_off_c, 0, 56, 65
1, 1285654, Note_on_c, 0, 58, 81
1, 1285659, Note_on_c, 0, 51, 71
1, 1285677, Note_off_c, 0, 58, 69
1, 1285682, Note_on_c, 0, 44, 93
1, 1285686, Note_off_c, 0, 51, 67
1, 1285710, Note_on_c, 0, 60, 83
1, 1285717, Note_on_c, 0, 56, 85
1, 1285717, Note_off_c, 0, 44, 64
1, 1285740, Note_off_c, 0, 56, 71
1, 1285755, Note_off_c, 0, 60, 68
1, 1286035, Control_c, 0, 64, 17
1, 1286050, Control_c, 0, 64, 32
1, 1286064, Control_c, 0, 64, 38
1, 1286079, Control_c, 0, 64, 39
1, 1286094, Control_c, 0, 64, 41
1, 1286109, Control_c, 0, 64, 43
1, 1286131, Control_c, 0, 64, 44
1, 1286145, Control_c, 0, 64, 45
1, 1286160, Control_c, 0, 64, 45
1, 1286175, Control_c, 0, 64, 47
1, 1286190, Control_c, 0, 64, 48
1, 1286205, Control_c, 0, 64, 49
1, 1286351, Note_on_c, 0, 56, 55
1, 1286413, Control_c, 0, 64, 49
1, 1286428, Control_c, 0, 64, 50
1, 1286443, Control_c, 0, 64, 51
1, 1286458, Control_c, 0, 64, 53
1, 1286502, Control_c, 0, 64, 50
1, 1286517, Control_c, 0, 64, 41
1, 1286532, Control_c, 0, 64, 27
1, 1286537, Note_on_c, 0, 66, 68
1, 1286539, Note_on_c, 0, 44, 56
1, 1286539, Note_on_c, 0, 63, 59
1, 1286547, Control_c, 0, 64, 17
1, 1286562, Control_c, 0, 64, 14
1, 1286566, Note_off_c, 0, 66, 66
1, 1286568, Note_off_c, 0, 63, 65
1, 1286591, Control_c, 0, 64, 21
1, 1286606, Control_c, 0, 64, 29
1, 1286621, Control_c, 0, 64, 36
1, 1286636, Control_c, 0, 64, 42
1, 1286650, Control_c, 0, 64, 47
1, 1286665, Control_c, 0, 64, 52
1, 1286680, Control_c, 0, 64, 54
1, 1286694, Control_c, 0, 64, 55
1, 1286709, Control_c, 0, 64, 56
1, 1286724, Control_c, 0, 64, 58
1, 1286739, Control_c, 0, 64, 61
1, 1286754, Control_c, 0, 64, 65
1, 1286768, Control_c, 0, 64, 69
1, 1286783, Control_c, 0, 64, 74
1, 1286798, Control_c, 0, 64, 81
1, 1286813, Control_c, 0, 64, 89
1, 1286828, Control_c, 0, 64, 99
1, 1286843, Control_c, 0, 64, 109
1, 1286858, Control_c, 0, 64, 127
1, 1286882, Note_off_c, 0, 44, 63
1, 1286887, Note_on_c, 0, 68, 75
1, 1286892, Note_on_c, 0, 65, 64
1, 1286917, Note_off_c, 0, 56, 62
1, 1287061, Note_on_c, 0, 45, 70
1, 1287061, Note_on_c, 0, 57, 72
1, 1287102, Control_c, 0, 64, 96
1, 1287117, Control_c, 0, 64, 78
1, 1287132, Control_c, 0, 64, 66
1, 1287147, Control_c, 0, 64, 47
1, 1287162, Control_c, 0, 64, 45
1, 1287176, Control_c, 0, 64, 52
1, 1287191, Control_c, 0, 64, 57
1, 1287206, Control_c, 0, 64, 57
1, 1287209, Note_off_c, 0, 65, 49
1, 1287220, Note_off_c, 0, 68, 59
1, 1287221, Control_c, 0, 64, 45
1, 1287222, Note_on_c, 0, 66, 71
1, 1287226, Note_on_c, 0, 63, 77
1, 1287236, Control_c, 0, 64, 0
1, 1287249, Note_off_c, 0, 63, 66
1, 1287254, Note_off_c, 0, 66, 64
1, 1287281, Control_c, 0, 67, 10
1, 1287296, Control_c, 0, 67, 14
1, 1287311, Control_c, 0, 67, 21
1, 1287325, Control_c, 0, 67, 29
1, 1287340, Control_c, 0, 67, 38
1, 1287355, Control_c, 0, 67, 48
1, 1287370, Control_c, 0, 67, 56
1, 1287371, Note_off_c, 0, 57, 63
1, 1287378, Note_on_c, 0, 60, 68
1, 1287379, Note_on_c, 0, 63, 77
1, 1287385, Control_c, 0, 67, 64
1, 1287399, Control_c, 0, 67, 72
1, 1287403, Note_off_c, 0, 60, 67
1, 1287406, Note_off_c, 0, 63, 63
1, 1287414, Control_c, 0, 67, 81
1, 1287429, Control_c, 0, 67, 88
1, 1287443, Control_c, 0, 67, 93
1, 1287458, Control_c, 0, 67, 98
1, 1287473, Control_c, 0, 67, 101
1, 1287488, Control_c, 0, 67, 104
1, 1287503, Control_c, 0, 67, 107
1, 1287517, Control_c, 0, 67, 109
1, 1287532, Control_c, 0, 67, 110
1, 1287543, Note_off_c, 0, 45, 56
1, 1287552, Note_on_c, 0, 62, 77
1, 1287557, Note_on_c, 0, 46, 59
1, 1287562, Control_c, 0, 67, 110
1, 1287565, Note_on_c, 0, 58, 59
1, 1287576, Note_off_c, 0, 62, 68
1, 1287732, Control_c, 0, 67, 110
1, 1287762, Control_c, 0, 67, 109
1, 1287777, Control_c, 0, 67, 109
1, 1287792, Control_c, 0, 67, 108
1, 1287798, Note_on_c, 0, 63, 66
1, 1287804, Note_on_c, 0, 60, 45
1, 1287806, Control_c, 0, 67, 108
1, 1287821, Control_c, 0, 67, 107
1, 1287827, Note_off_c, 0, 63, 63
1, 1287830, Note_off_c, 0, 60, 58
1, 1287850, Control_c, 0, 67, 107
1, 1287852, Note_on_c, 0, 62, 68
1, 1287855, Note_on_c, 0, 65, 69
1, 1287871, Note_off_c, 0, 62, 65
1, 1287881, Note_off_c, 0, 65, 69
1, 1287893, Note_off_c, 0, 58, 51
1, 1287910, Control_c, 0, 67, 108
1, 1287925, Control_c, 0, 67, 110
1, 1287940, Control_c, 0, 67, 112
1, 1287955, Control_c, 0, 67, 114
1, 1287970, Control_c, 0, 67, 121
1, 1287984, Control_c, 0, 67, 127
1, 1288048, Note_off_c, 0, 46, 53
1, 1288051, Note_on_c, 0, 47, 64
1, 1288056, Note_on_c, 0, 59, 62
1, 1288178, Control_c, 0, 64, 61
1, 1288193, Control_c, 0, 64, 71
1, 1288208, Control_c, 0, 64, 81
1, 1288222, Control_c, 0, 64, 100
1, 1288237, Control_c, 0, 64, 127
1, 1288281, Control_c, 0, 67, 123
1, 1288296, Control_c, 0, 67, 117
1, 1288311, Control_c, 0, 67, 109
1, 1288324, Note_off_c, 0, 59, 61
1, 1288326, Control_c, 0, 67, 102
1, 1288328, Note_off_c, 0, 47, 61
1, 1288340, Control_c, 0, 67, 94
1, 1288355, Control_c, 0, 67, 87
1, 1288378, Control_c, 0, 67, 80
1, 1288386, Note_on_c, 0, 56, 86
1, 1288393, Control_c, 0, 67, 73
1, 1288408, Control_c, 0, 67, 67
1, 1288422, Control_c, 0, 67, 61
1, 1288437, Control_c, 0, 67, 57
1, 1288452, Control_c, 0, 67, 55
1, 1288467, Control_c, 0, 67, 54
1, 1288481, Control_c, 0, 67, 53
1, 1288554, Note_on_c, 0, 65, 74
1, 1288554, Note_on_c, 0, 68, 81
1, 1288555, Control_c, 0, 64, 100
1, 1288555, Control_c, 0, 67, 53
1, 1288557, Note_off_c, 0, 56, 65
1, 1288560, Note_on_c, 0, 48, 74
1, 1288560, Note_on_c, 0, 60, 73
1, 1288570, Control_c, 0, 64, 72
1, 1288570, Control_c, 0, 67, 54
1, 1288581, Note_off_c, 0, 65, 67
1, 1288585, Control_c, 0, 64, 0
1, 1288585, Control_c, 0, 67, 54
1, 1288596, Note_off_c, 0, 68, 64
1, 1288599, Control_c, 0, 67, 55
1, 1288614, Control_c, 0, 67, 56
1, 1288629, Control_c, 0, 67, 57
1, 1288644, Control_c, 0, 67, 58
1, 1288673, Control_c, 0, 67, 58
1, 1288703, Control_c, 0, 67, 59
1, 1288733, Control_c, 0, 67, 59
1, 1288793, Control_c, 0, 64, 28
1, 1288793, Control_c, 0, 67, 58
1, 1288808, Control_c, 0, 64, 52
1, 1288808, Control_c, 0, 67, 57
1, 1288823, Control_c, 0, 64, 64
1, 1288823, Control_c, 0, 67, 56
1, 1288837, Control_c, 0, 64, 71
1, 1288837, Control_c, 0, 67, 54
1, 1288852, Control_c, 0, 64, 84
1, 1288852, Control_c, 0, 67, 53
1, 1288867, Control_c, 0, 64, 108
1, 1288867, Control_c, 0, 67, 51
1, 1288882, Control_c, 0, 64, 127
1, 1288882, Control_c, 0, 67, 49
1, 1288892, Note_on_c, 0, 70, 92
1, 1288896, Note_on_c, 0, 67, 83
1, 1288897, Control_c, 0, 67, 43
1, 1288907, Note_off_c, 0, 60, 66
1, 1288911, Control_c, 0, 67, 32
1, 1288926, Control_c, 0, 67, 19
1, 1288941, Control_c, 0, 67, 0
1, 1289058, Note_on_c, 0, 49, 83
1, 1289058, Note_on_c, 0, 61, 93
1, 1289080, Note_off_c, 0, 48, 56
1, 1289101, Note_off_c, 0, 70, 63
1, 1289105, Note_off_c, 0, 67, 56
1, 1289186, Control_c, 0, 64, 94
1, 1289201, Control_c, 0, 64, 72
1, 1289216, Control_c, 0, 64, 0
1, 1289221, Note_on_c, 0, 69, 90
1, 1289225, Note_on_c, 0, 66, 90
1, 1289267, Note_off_c, 0, 66, 61
1, 1289268, Note_off_c, 0, 69, 64
1, 1289319, Control_c, 0, 64, 17
1, 1289334, Control_c, 0, 64, 19
1, 1289349, Control_c, 0, 64, 21
1, 1289378, Control_c, 0, 64, 26
1, 1289380, Note_on_c, 0, 67, 94
1, 1289385, Note_on_c, 0, 64, 82
1, 1289393, Control_c, 0, 64, 33
1, 1289406, Note_off_c, 0, 64, 70
1, 1289408, Control_c, 0, 64, 40
1, 1289419, Note_off_c, 0, 49, 56
1, 1289422, Control_c, 0, 64, 46
1, 1289425, Note_off_c, 0, 61, 62
1, 1289426, Note_off_c, 0, 67, 63
1, 1289437, Control_c, 0, 64, 49
1, 1289453, Control_c, 0, 64, 50
1, 1289483, Control_c, 0, 64, 45
1, 1289497, Control_c, 0, 64, 0
1, 1289537, Note_on_c, 0, 62, 91
1, 1289543, Note_on_c, 0, 66, 88
1, 1289544, Note_on_c, 0, 50, 80
1, 1289561, Note_off_c, 0, 66, 72
1, 1289646, Control_c, 0, 64, 11
1, 1289661, Control_c, 0, 64, 33
1, 1289676, Control_c, 0, 64, 43
1, 1289691, Control_c, 0, 64, 49
1, 1289706, Control_c, 0, 64, 54
1, 1289720, Control_c, 0, 64, 56
1, 1289735, Control_c, 0, 64, 56
1, 1289765, Control_c, 0, 64, 54
1, 1289780, Control_c, 0, 64, 19
1, 1289785, Note_on_c, 0, 64, 75
1, 1289788, Note_on_c, 0, 67, 69
1, 1289794, Control_c, 0, 64, 0
1, 1289806, Note_off_c, 0, 64, 71
1, 1289814, Note_off_c, 0, 67, 67
1, 1289836, Note_on_c, 0, 66, 84
1, 1289836, Note_on_c, 0, 69, 82
1, 1289850, Note_off_c, 0, 62, 64
1, 1289859, Note_off_c, 0, 66, 66
1, 1289875, Note_off_c, 0, 69, 65
1, 1290053, Note_on_c, 0, 51, 78
1, 1290055, Note_on_c, 0, 63, 91
1, 1290079, Note_off_c, 0, 50, 62
1, 1290157, Control_c, 0, 64, 51
1, 1290172, Control_c, 0, 64, 65
1, 1290187, Control_c, 0, 64, 76
1, 1290201, Control_c, 0, 64, 91
1, 1290216, Control_c, 0, 64, 127
1, 1290318, Note_off_c, 0, 63, 60
1, 1290324, Note_off_c, 0, 51, 64
1, 1290401, Note_on_c, 0, 60, 91
1, 1290516, Note_off_c, 0, 60, 63
1, 1290566, Note_on_c, 0, 69, 84
1, 1290567, Note_on_c, 0, 72, 86
1, 1290572, Control_c, 0, 64, 86
1, 1290573, Note_on_c, 0, 52, 86
1, 1290575, Note_on_c, 0, 64, 87
1, 1290587, Control_c, 0, 64, 64
1, 1290588, Note_off_c, 0, 69, 66
1, 1290600, Note_off_c, 0, 72, 65
1, 1290602, Control_c, 0, 64, 0
1, 1290698, Control_c, 0, 64, 27
1, 1290713, Control_c, 0, 64, 41
1, 1290728, Control_c, 0, 64, 46
1, 1290742, Control_c, 0, 64, 49
1, 1290757, Control_c, 0, 64, 52
1, 1290787, Control_c, 0, 64, 32
1, 1290802, Control_c, 0, 64, 0
1, 1290804, Note_on_c, 0, 71, 82
1, 1290804, Note_on_c, 0, 74, 90
1, 1290822, Note_off_c, 0, 71, 73
1, 1290822, Note_off_c, 0, 74, 73
1, 1290867, Note_on_c, 0, 72, 95
1, 1290868, Note_on_c, 0, 76, 93
1, 1290882, Note_off_c, 0, 64, 66
1, 1290894, Note_off_c, 0, 72, 63
1, 1290903, Note_off_c, 0, 52, 59
1, 1290903, Note_off_c, 0, 76, 67
1, 1291073, Note_on_c, 0, 63, 89
1, 1291077, Note_on_c, 0, 57, 75
1, 1291079, Note_on_c, 0, 51, 84
1, 1291128, Control_c, 0, 64, 40
1, 1291142, Control_c, 0, 64, 61
1, 1291157, Control_c, 0, 64, 68
1, 1291172, Control_c, 0, 64, 76
1, 1291188, Control_c, 0, 64, 88
1, 1291203, Control_c, 0, 64, 107
1, 1291218, Control_c, 0, 64, 127
1, 1291365, Note_on_c, 0, 76, 88
1, 1291380, Note_off_c, 0, 57, 61
1, 1291383, Note_off_c, 0, 63, 62
1, 1291386, Note_off_c, 0, 76, 68
1, 1291401, Note_off_c, 0, 51, 62
1, 1291424, Note_on_c, 0, 77, 96
1, 1291424, Note_on_c, 0, 72, 97
1, 1291427, Note_on_c, 0, 69, 97
1, 1291669, Control_c, 0, 64, 100
1, 1291674, Note_on_c, 0, 62, 95
1, 1291676, Note_on_c, 0, 50, 88
1, 1291678, Note_on_c, 0, 58, 90
1, 1291684, Control_c, 0, 64, 75
1, 1291684, Note_on_c, 0, 53, 76
1, 1291697, Note_off_c, 0, 69, 58
1, 1291699, Control_c, 0, 64, 0
1, 1291703, Note_off_c, 0, 72, 60
1, 1291703, Note_off_c, 0, 77, 58
1, 1291803, Control_c, 0, 64, 54
1, 1291817, Control_c, 0, 64, 64
1, 1291832, Control_c, 0, 64, 69
1, 1291847, Control_c, 0, 64, 74
1, 1291862, Control_c, 0, 64, 81
1, 1291877, Control_c, 0, 64, 90
1, 1291891, Control_c, 0, 64, 104
1, 1291906, Control_c, 0, 64, 127
1, 1291925, Note_on_c, 0, 77, 83
1, 1291944, Note_off_c, 0, 62, 61
1, 1291947, Note_off_c, 0, 77, 67
1, 1291950, Note_off_c, 0, 50, 63
1, 1291964, Note_off_c, 0, 53, 65
1, 1291965, Note_off_c, 0, 58, 63
1, 1291988, Note_on_c, 0, 79, 99
1, 1291990, Note_on_c, 0, 70, 100
1, 1291993, Note_on_c, 0, 67, 91
1, 1292186, Note_off_c, 0, 70, 57
1, 1292240, Control_c, 0, 64, 96
1, 1292250, Note_off_c, 0, 67, 59
1, 1292255, Control_c, 0, 64, 69
1, 1292262, Note_on_c, 0, 61, 95
1, 1292263, Note_on_c, 0, 59, 78
1, 1292270, Control_c, 0, 64, 0
1, 1292273, Note_off_c, 0, 79, 58
1, 1292274, Note_on_c, 0, 49, 74
1, 1292275, Note_on_c, 0, 53, 67
1, 1292296, Note_on_c, 0, 51, 52
1, 1292326, Note_off_c, 0, 51, 56
1, 1292455, Note_off_c, 0, 59, 59
1, 1292456, Note_on_c, 0, 77, 86
1, 1292462, Note_off_c, 0, 61, 62
1, 1292463, Control_c, 0, 64, 67
1, 1292466, Note_off_c, 0, 49, 48
1, 1292477, Note_off_c, 0, 53, 65
1, 1292478, Note_off_c, 0, 77, 64
1, 1292478, Control_c, 0, 64, 95
1, 1292493, Control_c, 0, 64, 127
1, 1292526, Note_on_c, 0, 80, 99
1, 1292536, Note_on_c, 0, 68, 84
1, 1292543, Note_on_c, 0, 72, 71
1, 1292555, Note_off_c, 0, 68, 71
1, 1292560, Note_off_c, 0, 72, 67
1, 1292567, Control_c, 0, 64, 84
1, 1292568, Note_off_c, 0, 80, 69
1, 1292572, Note_on_c, 0, 71, 27
1, 1292573, Note_off_c, 0, 71, 127
1, 1292581, Control_c, 0, 64, 0
1, 1292657, Note_on_c, 0, 48, 83
1, 1292682, Note_on_c, 0, 53, 66
1, 1292697, Note_on_c, 0, 56, 65
1, 1292766, Note_on_c, 0, 60, 103
1, 1292769, Note_on_c, 0, 84, 99
1, 1292770, Note_on_c, 0, 72, 100
1, 1292772, Note_on_c, 0, 80, 89
1, 1292775, Note_on_c, 0, 77, 87
1, 1292790, Control_c, 0, 64, 49
1, 1292793, Note_off_c, 0, 60, 68
1, 1292798, Note_off_c, 0, 53, 65
1, 1292802, Note_off_c, 0, 72, 69
1, 1292802, Note_off_c, 0, 48, 64
1, 1292805, Note_off_c, 0, 56, 66
1, 1292805, Control_c, 0, 64, 93
1, 1292810, Note_off_c, 0, 77, 66
1, 1292817, Note_off_c, 0, 84, 69
1, 1292819, Control_c, 0, 64, 127
1, 1292826, Note_off_c, 0, 80, 66
1, 1293034, Control_c, 0, 64, 83
1, 1293049, Control_c, 0, 64, 65
1, 1293064, Control_c, 0, 64, 0
1, 1293094, Control_c, 0, 64, 21
1, 1293109, Control_c, 0, 64, 58
1, 1293123, Control_c, 0, 64, 65
1, 1293138, Control_c, 0, 64, 65
1, 1293150, Note_on_c, 0, 36, 89
1, 1293153, Control_c, 0, 64, 66
1, 1293153, Note_on_c, 0, 84, 88
1, 1293183, Control_c, 0, 64, 67
1, 1293197, Control_c, 0, 64, 68
1, 1293204, Note_off_c, 0, 84, 63
1, 1293212, Control_c, 0, 64, 70
1, 1293225, Note_on_c, 0, 92, 87
1, 1293227, Control_c, 0, 64, 72
1, 1293242, Control_c, 0, 64, 73
1, 1293257, Control_c, 0, 64, 74
1, 1293286, Control_c, 0, 64, 72
1, 1293301, Control_c, 0, 64, 62
1, 1293305, Note_on_c, 0, 91, 97
1, 1293309, Note_on_c, 0, 48, 96
1, 1293316, Control_c, 0, 64, 0
1, 1293338, Note_off_c, 0, 92, 61
1, 1293371, Note_off_c, 0, 91, 66
1, 1293382, Note_on_c, 0, 82, 78
1, 1293411, Note_off_c, 0, 82, 60
1, 1293463, Note_on_c, 0, 80, 85
1, 1293511, Note_off_c, 0, 80, 64
1, 1293529, Note_on_c, 0, 89, 89
1, 1293600, Note_on_c, 0, 87, 92
1, 1293631, Note_off_c, 0, 89, 63
1, 1293674, Note_off_c, 0, 87, 64
1, 1293685, Note_on_c, 0, 79, 72
1, 1293717, Note_off_c, 0, 79, 62
1, 1293748, Note_off_c, 0, 36, 62
1, 1293757, Note_on_c, 0, 77, 91
1, 1293758, Note_off_c, 0, 48, 63
1, 1293768, Control_c, 0, 64, 70
1, 1293783, Control_c, 0, 64, 77
1, 1293798, Note_off_c, 0, 77, 63
1, 1293812, Control_c, 0, 64, 75
1, 1293823, Note_on_c, 0, 85, 85
1, 1293827, Control_c, 0, 64, 75
1, 1293913, Note_on_c, 0, 84, 66
1, 1293933, Note_off_c, 0, 85, 55
1, 1293944, Note_off_c, 0, 84, 61
1, 1293960, Control_c, 0, 64, 73
1, 1293961, Note_on_c, 0, 75, 69
1, 1293975, Control_c, 0, 64, 67
1, 1293990, Control_c, 0, 64, 28
1, 1293998, Note_off_c, 0, 75, 57
1, 1294005, Control_c, 0, 64, 0
1, 1294036, Note_on_c, 0, 73, 82
1, 1294039, Note_on_c, 0, 52, 47
1, 1294048, Note_on_c, 0, 55, 60
1, 1294069, Note_off_c, 0, 52, 51
1, 1294086, Note_off_c, 0, 73, 59
1, 1294094, Note_on_c, 0, 82, 80
1, 1294178, Note_on_c, 0, 80, 83
1, 1294185, Note_off_c, 0, 55, 63
1, 1294188, Note_on_c, 0, 53, 64
1, 1294188, Note_on_c, 0, 56, 76
1, 1294208, Note_off_c, 0, 82, 59
1, 1294241, Control_c, 0, 64, 60
1, 1294249, Note_off_c, 0, 80, 59
1, 1294250, Note_on_c, 0, 72, 69
1, 1294256, Control_c, 0, 64, 73
1, 1294271, Control_c, 0, 64, 87
1, 1294286, Control_c, 0, 64, 127
1, 1294297, Note_off_c, 0, 72, 57
1, 1294320, Note_on_c, 0, 55, 74
1, 1294323, Note_on_c, 0, 58, 87
1, 1294326, Note_on_c, 0, 70, 89
1, 1294343, Note_off_c, 0, 56, 42
1, 1294361, Note_off_c, 0, 53, 62
1, 1294376, Note_off_c, 0, 70, 65
1, 1294399, Note_on_c, 0, 79, 84
1, 1294456, Note_on_c, 0, 77, 78
1, 1294482, Note_on_c, 0, 60, 86
1, 1294483, Note_on_c, 0, 56, 87
1, 1294486, Note_off_c, 0, 79, 58
1, 1294495, Note_off_c, 0, 58, 60
1, 1294506, Note_off_c, 0, 55, 64
1, 1294519, Note_off_c, 0, 60, 65
1, 1294521, Note_on_c, 0, 68, 85
1, 1294541, Note_off_c, 0, 77, 65
1, 1294557, Note_off_c, 0, 68, 64
1, 1294590, Control_c, 0, 64, 92
1, 1294605, Control_c, 0, 64, 63
1, 1294620, Note_on_c, 0, 61, 98
1, 1294620, Control_c, 0, 64, 0
1, 1294623, Note_on_c, 0, 58, 87
1, 1294625, Note_on_c, 0, 67, 102
1, 1294625, Note_on_c, 0, 76, 100
1, 1294625, Note_off_c, 0, 56, 44
1, 1294635, Control_c, 0, 64, 40
1, 1294637, Note_off_c, 0, 61, 71
1, 1294646, Note_off_c, 0, 67, 64
1, 1294649, Note_off_c, 0, 58, 65
1, 1294650, Control_c, 0, 64, 71
1, 1294650, Note_off_c, 0, 76, 65
1, 1294665, Control_c, 0, 64, 93
1, 1294680, Control_c, 0, 64, 127
1, 1294783, Control_c, 0, 64, 88
1, 1294798, Control_c, 0, 64, 66
1, 1294813, Control_c, 0, 64, 0
1, 1294857, Control_c, 0, 64, 29
1, 1294872, Control_c, 0, 64, 50
1, 1294887, Control_c, 0, 64, 56
1, 1294902, Control_c, 0, 64, 59
1, 1294916, Control_c, 0, 64, 61
1, 1294931, Control_c, 0, 64, 64
1, 1294945, Note_on_c, 0, 66, 91
1, 1294946, Control_c, 0, 64, 66
1, 1294949, Note_on_c, 0, 29, 88
1, 1294961, Control_c, 0, 64, 68
1, 1294976, Control_c, 0, 64, 70
1, 1294990, Control_c, 0, 64, 71
1, 1295001, Note_off_c, 0, 66, 62
1, 1295005, Control_c, 0, 64, 72
1, 1295012, Note_on_c, 0, 75, 77
1, 1295020, Control_c, 0, 64, 72
1, 1295034, Control_c, 0, 64, 74
1, 1295049, Control_c, 0, 64, 75
1, 1295064, Control_c, 0, 64, 76
1, 1295094, Note_on_c, 0, 73, 88
1, 1295094, Control_c, 0, 64, 76
1, 1295112, Note_on_c, 0, 41, 96
1, 1295116, Control_c, 0, 64, 68
1, 1295131, Control_c, 0, 64, 0
1, 1295133, Note_off_c, 0, 75, 62
1, 1295171, Note_on_c, 0, 65, 75
1, 1295171, Note_off_c, 0, 73, 61
1, 1295207, Note_off_c, 0, 65, 65
1, 1295258, Note_on_c, 0, 63, 80
1, 1295307, Note_off_c, 0, 63, 60
1, 1295326, Note_on_c, 0, 72, 76
1, 1295379, Note_on_c, 0, 70, 79
1, 1295396, Note_off_c, 0, 72, 60
1, 1295436, Note_off_c, 0, 70, 63
1, 1295456, Note_on_c, 0, 61, 77
1, 1295492, Note_off_c, 0, 61, 58
1, 1295532, Control_c, 0, 64, 65
1, 1295538, Note_on_c, 0, 60, 84
1, 1295547, Control_c, 0, 64, 80
1, 1295562, Control_c, 0, 64, 85
1, 1295577, Control_c, 0, 64, 86
1, 1295585, Note_off_c, 0, 60, 67
1, 1295605, Note_on_c, 0, 68, 81
1, 1295608, Note_off_c, 0, 41, 60
1, 1295623, Note_off_c, 0, 29, 56
1, 1295683, Note_on_c, 0, 66, 82
1, 1295705, Note_off_c, 0, 68, 58
1, 1295747, Note_off_c, 0, 66, 59
1, 1295751, Note_on_c, 0, 58, 74
1, 1295781, Note_off_c, 0, 58, 62
1, 1295806, Note_on_c, 0, 41, 75
1, 1295814, Control_c, 0, 64, 86
1, 1295819, Note_on_c, 0, 29, 61
1, 1295819, Note_on_c, 0, 56, 89
1, 1295829, Control_c, 0, 64, 82
1, 1295833, Note_off_c, 0, 41, 65
1, 1295844, Control_c, 0, 64, 73
1, 1295847, Note_off_c, 0, 29, 61
1, 1295866, Control_c, 0, 64, 48
1, 1295877, Note_off_c, 0, 56, 63
1, 1295881, Control_c, 0, 64, 0
1, 1295893, Note_on_c, 0, 65, 75
1, 1295961, Note_on_c, 0, 29, 73
1, 1295963, Note_on_c, 0, 63, 79
1, 1295966, Note_off_c, 0, 65, 62
1, 1295967, Note_on_c, 0, 41, 77
1, 1295985, Control_c, 0, 64, 66
1, 1296000, Control_c, 0, 64, 77
1, 1296010, Note_off_c, 0, 41, 62
1, 1296015, Control_c, 0, 64, 93
1, 1296016, Note_off_c, 0, 63, 53
1, 1296018, Note_on_c, 0, 54, 66
1, 1296021, Note_off_c, 0, 29, 63
1, 1296030, Control_c, 0, 64, 127
1, 1296054, Note_off_c, 0, 54, 64
1, 1296101, Note_on_c, 0, 53, 82
1, 1296114, Note_on_c, 0, 31, 84
1, 1296116, Note_on_c, 0, 43, 86
1, 1296149, Note_off_c, 0, 43, 65
1, 1296155, Note_off_c, 0, 31, 62
1, 1296165, Note_on_c, 0, 61, 79
1, 1296218, Note_on_c, 0, 60, 73
1, 1296242, Note_on_c, 0, 45, 101
1, 1296246, Note_on_c, 0, 33, 86
1, 1296264, Note_off_c, 0, 61, 63
1, 1296269, Note_off_c, 0, 45, 66
1, 1296278, Note_off_c, 0, 33, 64
1, 1296280, Note_on_c, 0, 51, 86
1, 1296298, Note_off_c, 0, 53, 61
1, 1296310, Note_off_c, 0, 60, 65
1, 1296354, Control_c, 0, 64, 87
1, 1296369, Control_c, 0, 64, 51
1, 1296378, Note_on_c, 0, 61, 89
1, 1296384, Control_c, 0, 64, 0
1, 1296390, Note_on_c, 0, 34, 99
1, 1296390, Note_on_c, 0, 46, 100
1, 1296393, Note_off_c, 0, 51, 67
1, 1296395, Note_on_c, 0, 53, 65
1, 1296398, Control_c, 0, 64, 32
1, 1296407, Note_off_c, 0, 46, 72
1, 1296411, Note_off_c, 0, 53, 69
1, 1296413, Note_off_c, 0, 34, 69
1, 1296413, Control_c, 0, 64, 70
1, 1296428, Note_off_c, 0, 61, 67
1, 1296428, Control_c, 0, 64, 98
1, 1296443, Control_c, 0, 64, 127
1, 1296532, Control_c, 0, 64, 94
1, 1296546, Control_c, 0, 64, 65
1, 1296548, Poly_aftertouch_c, 0, 46, 0
1, 1296561, Control_c, 0, 64, 0
1, 1296687, Control_c, 0, 64, 26
1, 1296698, Note_on_c, 0, 73, 95
1, 1296698, Note_on_c, 0, 30, 90
1, 1296702, Control_c, 0, 64, 42
1, 1296717, Control_c, 0, 64, 50
1, 1296732, Control_c, 0, 64, 57
1, 1296747, Control_c, 0, 64, 61
1, 1296760, Note_off_c, 0, 73, 61
1, 1296761, Control_c, 0, 64, 64
1, 1296767, Note_on_c, 0, 82, 87
1, 1296776, Control_c, 0, 64, 68
1, 1296792, Control_c, 0, 64, 71
1, 1296807, Control_c, 0, 64, 74
1, 1296822, Control_c, 0, 64, 76
1, 1296836, Control_c, 0, 64, 75
1, 1296844, Note_on_c, 0, 42, 96
1, 1296847, Note_on_c, 0, 80, 89
1, 1296851, Control_c, 0, 64, 68
1, 1296866, Control_c, 0, 64, 0
1, 1296891, Note_off_c, 0, 82, 62
1, 1296921, Note_off_c, 0, 80, 61
1, 1296922, Note_on_c, 0, 72, 75
1, 1296964, Note_off_c, 0, 72, 65
1, 1296999, Control_c, 0, 64, 27
1, 1297004, Note_on_c, 0, 70, 85
1, 1297028, Control_c, 0, 64, 0
1, 1297048, Note_off_c, 0, 70, 64
1, 1297070, Note_on_c, 0, 78, 78
1, 1297139, Note_on_c, 0, 77, 78
1, 1297167, Note_off_c, 0, 78, 60
1, 1297208, Note_off_c, 0, 77, 59
1, 1297214, Note_on_c, 0, 68, 79
1, 1297253, Note_off_c, 0, 68, 62
1, 1297294, Note_on_c, 0, 66, 91
1, 1297340, Control_c, 0, 64, 73
1, 1297355, Note_off_c, 0, 66, 63
1, 1297362, Control_c, 0, 64, 84
1, 1297364, Note_on_c, 0, 75, 82
1, 1297377, Control_c, 0, 64, 90
1, 1297392, Control_c, 0, 64, 90
1, 1297437, Note_off_c, 0, 42, 60
1, 1297442, Note_on_c, 0, 73, 86
1, 1297446, Note_off_c, 0, 30, 59
1, 1297479, Note_off_c, 0, 75, 58
1, 1297481, Control_c, 0, 64, 91
1, 1297496, Control_c, 0, 64, 92
1, 1297502, Note_off_c, 0, 73, 63
1, 1297510, Control_c, 0, 64, 93
1, 1297513, Note_on_c, 0, 65, 63
1, 1297525, Control_c, 0, 64, 94
1, 1297554, Control_c, 0, 64, 93
1, 1297569, Control_c, 0, 64, 85
1, 1297571, Note_off_c, 0, 65, 41
1, 1297574, Note_on_c, 0, 42, 77
1, 1297581, Note_on_c, 0, 30, 69
1, 1297584, Note_on_c, 0, 63, 79
1, 1297586, Control_c, 0, 64, 69
1, 1297601, Control_c, 0, 64, 0
1, 1297604, Note_off_c, 0, 42, 66
1, 1297618, Note_off_c, 0, 30, 61
1, 1297635, Note_off_c, 0, 63, 61
1, 1297661, Note_on_c, 0, 72, 65
1, 1297729, Note_on_c, 0, 70, 77
1, 1297729, Note_on_c, 0, 30, 68
1, 1297730, Note_on_c, 0, 42, 76
1, 1297732, Note_off_c, 0, 72, 65
1, 1297769, Note_off_c, 0, 30, 65
1, 1297782, Note_off_c, 0, 70, 60
1, 1297785, Note_off_c, 0, 42, 60
1, 1297793, Control_c, 0, 64, 59
1, 1297796, Note_on_c, 0, 61, 71
1, 1297807, Control_c, 0, 64, 66
1, 1297822, Control_c, 0, 64, 74
1, 1297837, Control_c, 0, 64, 86
1, 1297851, Control_c, 0, 64, 127
1, 1297872, Note_on_c, 0, 44, 90
1, 1297872, Note_on_c, 0, 60, 88
1, 1297874, Note_on_c, 0, 32, 82
1, 1297875, Note_off_c, 0, 61, 62
1, 1297914, Note_off_c, 0, 44, 61
1, 1297923, Note_off_c, 0, 32, 59
1, 1297929, Note_off_c, 0, 60, 65
1, 1297936, Note_on_c, 0, 68, 85
1, 1298010, Note_on_c, 0, 46, 100
1, 1298010, Note_on_c, 0, 66, 84
1, 1298012, Note_on_c, 0, 34, 87
1, 1298036, Note_off_c, 0, 46, 66
1, 1298042, Note_off_c, 0, 68, 62
1, 1298048, Note_off_c, 0, 34, 62
1, 1298079, Note_on_c, 0, 58, 86
1, 1298082, Note_off_c, 0, 66, 59
1, 1298115, Note_off_c, 0, 58, 63
1, 1298176, Note_on_c, 0, 35, 86
1, 1298178, Note_on_c, 0, 47, 90
1, 1298180, Note_on_c, 0, 65, 91
1, 1298184, Poly_aftertouch_c, 0, 57, 127
1, 1298185, Control_c, 0, 64, 79
1, 1298200, Control_c, 0, 64, 0
1, 1298206, Poly_aftertouch_c, 0, 57, 0
1, 1298256, Note_on_c, 0, 56, 87
1, 1298274, Control_c, 0, 64, 56
1, 1298289, Control_c, 0, 64, 74
1, 1298295, Note_off_c, 0, 65, 52
1, 1298304, Control_c, 0, 64, 91
1, 1298319, Control_c, 0, 64, 127
1, 1298330, Note_on_c, 0, 55, 84
1, 1298337, Note_off_c, 0, 56, 65
1, 1298404, Note_on_c, 0, 64, 83
1, 1298421, Note_off_c, 0, 55, 38
1, 1298475, Note_on_c, 0, 65, 81
1, 1298486, Note_off_c, 0, 47, 64
1, 1298491, Note_off_c, 0, 64, 59
1, 1298545, Note_on_c, 0, 56, 96
1, 1298605, Note_off_c, 0, 65, 60
1, 1298620, Note_on_c, 0, 55, 85
1, 1298625, Note_on_c, 0, 48, 95
1, 1298631, Control_c, 0, 64, 99
1, 1298642, Note_on_c, 0, 36, 71
1, 1298643, Note_off_c, 0, 56, 61
1, 1298646, Control_c, 0, 64, 68
1, 1298653, Note_off_c, 0, 35, 61
1, 1298661, Control_c, 0, 64, 0
1, 1298664, Note_on_c, 0, 41, 12
1, 1298694, Note_on_c, 0, 64, 78
1, 1298703, Note_off_c, 0, 55, 60
1, 1298723, Note_off_c, 0, 41, 26
1, 1298781, Note_on_c, 0, 65, 77
1, 1298793, Note_off_c, 0, 64, 64
1, 1298794, Control_c, 0, 64, 64
1, 1298808, Control_c, 0, 64, 69
1, 1298823, Control_c, 0, 64, 76
1, 1298838, Control_c, 0, 64, 85
1, 1298859, Note_on_c, 0, 56, 86
1, 1298861, Control_c, 0, 64, 95
1, 1298876, Control_c, 0, 64, 103
1, 1298878, Note_off_c, 0, 48, 60
1, 1298890, Control_c, 0, 64, 108
1, 1298905, Note_off_c, 0, 65, 62
1, 1298905, Control_c, 0, 64, 111
1, 1298920, Control_c, 0, 64, 114
1, 1298935, Control_c, 0, 64, 115
1, 1298940, Note_on_c, 0, 55, 72
1, 1298944, Note_off_c, 0, 56, 64
1, 1298949, Control_c, 0, 64, 116
1, 1298964, Control_c, 0, 64, 117
1, 1298979, Control_c, 0, 64, 122
1, 1298994, Control_c, 0, 64, 127
1, 1299000, Note_on_c, 0, 64, 80
1, 1299007, Note_off_c, 0, 55, 62
1, 1299077, Note_on_c, 0, 47, 77
1, 1299080, Note_on_c, 0, 35, 68
1, 1299082, Note_on_c, 0, 65, 80
1, 1299094, Note_off_c, 0, 36, 55
1, 1299097, Control_c, 0, 64, 103
1, 1299100, Note_off_c, 0, 64, 61
1, 1299112, Control_c, 0, 64, 77
1, 1299127, Control_c, 0, 64, 36
1, 1299142, Control_c, 0, 64, 0
1, 1299221, Note_on_c, 0, 56, 73
1, 1299300, Note_off_c, 0, 65, 59
1, 1299306, Control_c, 0, 64, 60
1, 1299321, Control_c, 0, 64, 66
1, 1299329, Note_on_c, 0, 55, 71
1, 1299336, Control_c, 0, 64, 71
1, 1299337, Note_off_c, 0, 56, 62
1, 1299351, Control_c, 0, 64, 76
1, 1299366, Control_c, 0, 64, 82
1, 1299380, Control_c, 0, 64, 88
1, 1299381, Note_off_c, 0, 47, 64
1, 1299395, Control_c, 0, 64, 93
1, 1299410, Control_c, 0, 64, 97
1, 1299411, Note_off_c, 0, 55, 56
1, 1299424, Control_c, 0, 64, 101
1, 1299439, Note_on_c, 0, 64, 71
1, 1299439, Control_c, 0, 64, 106
1, 1299454, Control_c, 0, 64, 117
1, 1299469, Control_c, 0, 64, 127
1, 1299552, Note_on_c, 0, 65, 72
1, 1299553, Note_on_c, 0, 36, 61
1, 1299557, Note_off_c, 0, 64, 60
1, 1299560, Note_on_c, 0, 48, 70
1, 1299574, Note_off_c, 0, 35, 60
1, 1299610, Control_c, 0, 64, 121
1, 1299625, Control_c, 0, 64, 84
1, 1299639, Control_c, 0, 64, 60
1, 1299654, Control_c, 0, 64, 0
1, 1299674, Note_on_c, 0, 56, 64
1, 1299699, Note_off_c, 0, 65, 44
1, 1299728, Control_c, 0, 64, 19
1, 1299743, Control_c, 0, 64, 64
1, 1299757, Control_c, 0, 64, 72
1, 1299772, Control_c, 0, 64, 80
1, 1299785, Note_off_c, 0, 56, 62
1, 1299787, Control_c, 0, 64, 91
1, 1299796, Note_on_c, 0, 55, 59
1, 1299802, Control_c, 0, 64, 99
1, 1299817, Control_c, 0, 64, 108
1, 1299831, Control_c, 0, 64, 119
1, 1299846, Control_c, 0, 64, 127
1, 1299848, Note_off_c, 0, 55, 60
1, 1299908, Note_on_c, 0, 64, 52
1, 1299909, Note_off_c, 0, 48, 57
1, 1299946, Note_off_c, 0, 64, 64
1, 1300008, Note_off_c, 0, 36, 29
1, 1300025, Control_c, 0, 64, 90
1, 1300025, Control_c, 0, 67, 12
1, 1300036, Note_on_c, 0, 41, 71
1, 1300040, Control_c, 0, 64, 67
1, 1300040, Control_c, 0, 67, 24
1, 1300048, Note_on_c, 0, 65, 56
1, 1300054, Control_c, 0, 64, 0
1, 1300054, Control_c, 0, 67, 40
1, 1300056, Note_on_c, 0, 53, 44
1, 1300061, Note_off_c, 0, 41, 64
1, 1300069, Control_c, 0, 67, 51
1, 1300072, Note_off_c, 0, 65, 62
1, 1300084, Note_off_c, 0, 53, 61
1, 1300084, Control_c, 0, 67, 61
1, 1300099, Control_c, 0, 67, 70
1, 1300114, Control_c, 0, 67, 79
1, 1300129, Control_c, 0, 67, 89
1, 1300144, Control_c, 0, 67, 99
1, 1300158, Control_c, 0, 67, 109
1, 1300173, Control_c, 0, 67, 118
1, 1300188, Control_c, 0, 67, 127
1, 1300233, Control_c, 0, 64, 23
1, 1300247, Control_c, 0, 64, 27
1, 1300262, Control_c, 0, 64, 29
1, 1300277, Control_c, 0, 64, 30
1, 1300292, Control_c, 0, 64, 31
1, 1300336, Control_c, 0, 64, 32
1, 1300358, Control_c, 0, 64, 36
1, 1300373, Control_c, 0, 64, 40
1, 1300380, Note_on_c, 0, 54, 68
1, 1300388, Control_c, 0, 64, 44
1, 1300388, Note_on_c, 0, 42, 57
1, 1300403, Control_c, 0, 64, 47
1, 1300418, Control_c, 0, 64, 48
1, 1300433, Control_c, 0, 64, 48
1, 1300523, Note_off_c, 0, 54, 64
1, 1300545, Note_on_c, 0, 65, 69
1, 1300551, Note_on_c, 0, 53, 67
1, 1300625, Control_c, 0, 64, 49
1, 1300638, Note_off_c, 0, 42, 61
1, 1300640, Control_c, 0, 64, 52
1, 1300641, Note_off_c, 0, 53, 0
1, 1300654, Control_c, 0, 64, 54
1, 1300656, Note_on_c, 0, 53, 54
1, 1300662, Note_on_c, 0, 41, 66
1, 1300667, Note_off_c, 0, 65, 59
1, 1300669, Control_c, 0, 64, 51
1, 1300683, Control_c, 0, 64, 0
1, 1300686, Note_off_c, 0, 53, 64
1, 1300692, Note_off_c, 0, 41, 64
1, 1300835, Note_on_c, 0, 39, 60
1, 1300838, Note_on_c, 0, 51, 60
1, 1300866, Note_off_c, 0, 51, 66
1, 1300867, Note_off_c, 0, 39, 62
1, 1300996, Note_on_c, 0, 50, 73
1, 1300996, Note_on_c, 0, 38, 75
1, 1301008, Note_on_c, 0, 65, 69
1, 1301026, Note_off_c, 0, 50, 67
1, 1301026, Note_off_c, 0, 38, 63
1, 1301036, Note_off_c, 0, 65, 66
1, 1301105, Poly_aftertouch_c, 0, 53, 0
1, 1301210, Control_c, 0, 64, 23
1, 1301225, Control_c, 0, 64, 29
1, 1301240, Control_c, 0, 64, 32
1, 1301249, Note_on_c, 0, 36, 67
1, 1301255, Control_c, 0, 64, 27
1, 1301270, Control_c, 0, 64, 0
1, 1301273, Note_off_c, 0, 36, 58
1, 1301314, Note_on_c, 0, 46, 74
1, 1301321, Note_on_c, 0, 34, 65
1, 1301336, Note_off_c, 0, 46, 66
1, 1301349, Note_off_c, 0, 34, 60
1, 1301512, Note_on_c, 0, 65, 64
1, 1301515, Note_on_c, 0, 53, 55
1, 1301548, Note_off_c, 0, 53, 66
1, 1301549, Note_off_c, 0, 65, 61
1, 1302022, Note_on_c, 0, 48, 65
1, 1302022, Note_on_c, 0, 65, 53
1, 1302023, Note_on_c, 0, 36, 60
1, 1302030, Note_on_c, 0, 53, 49
1, 1302054, Note_off_c, 0, 48, 64
1, 1302057, Note_off_c, 0, 36, 62
1, 1302075, Note_off_c, 0, 53, 62
1, 1302093, Note_off_c, 0, 65, 59
1, 1302300, Control_c, 0, 64, 23
1, 1302315, Control_c, 0, 64, 28
1, 1302330, Control_c, 0, 64, 29
1, 1302344, Control_c, 0, 64, 0
1, 1302360, Note_on_c, 0, 49, 72
1, 1302365, Note_on_c, 0, 37, 66
1, 1302551, Note_on_c, 0, 65, 67
1, 1302558, Note_on_c, 0, 53, 61
1, 1302569, Note_off_c, 0, 49, 63
1, 1302650, Note_off_c, 0, 53, 54
1, 1302665, Note_off_c, 0, 37, 61
1, 1302679, Note_off_c, 0, 65, 56
1, 1302695, Note_on_c, 0, 36, 64
1, 1302696, Note_on_c, 0, 48, 61
1, 1302719, Note_off_c, 0, 48, 60
1, 1302725, Note_off_c, 0, 36, 62
1, 1302865, Note_on_c, 0, 46, 67
1, 1302876, Note_on_c, 0, 34, 40
1, 1302891, Note_off_c, 0, 46, 64
1, 1302913, Note_off_c, 0, 34, 33
1, 1303031, Note_on_c, 0, 45, 71
1, 1303033, Note_on_c, 0, 33, 71
1, 1303041, Note_on_c, 0, 65, 64
1, 1303048, Note_on_c, 0, 53, 50
1, 1303058, Note_off_c, 0, 45, 66
1, 1303065, Note_off_c, 0, 33, 62
1, 1303073, Note_off_c, 0, 65, 60
1, 1303074, Note_off_c, 0, 53, 61
1, 1303266, Note_on_c, 0, 43, 64
1, 1303272, Note_on_c, 0, 31, 59
1, 1303289, Note_off_c, 0, 43, 61
1, 1303303, Note_off_c, 0, 31, 55
1, 1303349, Note_on_c, 0, 41, 76
1, 1303350, Note_on_c, 0, 29, 75
1, 1303376, Note_off_c, 0, 41, 63
1, 1303381, Note_off_c, 0, 29, 62
1, 1303544, Note_on_c, 0, 65, 61
1, 1303550, Note_on_c, 0, 53, 55
1, 1303593, Note_off_c, 0, 53, 63
1, 1303607, Note_off_c, 0, 65, 61
1, 1304038, Note_on_c, 0, 33, 65
1, 1304040, Note_on_c, 0, 45, 62
1, 1304056, Note_on_c, 0, 65, 63
1, 1304063, Note_off_c, 0, 45, 61
1, 1304066, Note_off_c, 0, 33, 62
1, 1304071, Note_on_c, 0, 53, 35
1, 1304086, Note_off_c, 0, 65, 64
1, 1304112, Note_off_c, 0, 53, 49
1, 1304283, Note_on_c, 0, 43, 52
1, 1304284, Note_on_c, 0, 31, 56
1, 1304312, Note_off_c, 0, 43, 55
1, 1304315, Note_off_c, 0, 31, 55
1, 1304362, Note_on_c, 0, 29, 70
1, 1304369, Note_on_c, 0, 41, 60
1, 1304394, Note_off_c, 0, 29, 60
1, 1304397, Note_off_c, 0, 41, 57
1, 1304565, Note_on_c, 0, 53, 47
1, 1304622, Note_off_c, 0, 53, 55
1, 1304865, Control_c, 0, 64, 11
1, 1304880, Control_c, 0, 64, 41
1, 1304895, Control_c, 0, 64, 51
1, 1304910, Control_c, 0, 64, 57
1, 1304925, Control_c, 0, 64, 60
1, 1304940, Control_c, 0, 64, 63
1, 1304955, Control_c, 0, 64, 65
1, 1304969, Control_c, 0, 64, 67
1, 1304984, Control_c, 0, 64, 69
1, 1304999, Control_c, 0, 64, 71
1, 1305014, Control_c, 0, 64, 74
1, 1305029, Control_c, 0, 64, 77
1, 1305043, Control_c, 0, 64, 80
1, 1305058, Control_c, 0, 64, 84
1, 1305073, Control_c, 0, 64, 87
1, 1305088, Control_c, 0, 64, 91
1, 1305103, Control_c, 0, 64, 96
1, 1305112, Note_on_c, 0, 41, 32
1, 1305115, Note_on_c, 0, 29, 37
1, 1305117, Control_c, 0, 64, 102
1, 1305132, Control_c, 0, 64, 110
1, 1305147, Control_c, 0, 64, 127
1, 1305365, Note_off_c, 0, 41, 48
1, 1305643, Note_on_c, 0, 39, 33
1, 1305647, Note_on_c, 0, 27, 46
1, 1305689, Control_c, 0, 64, 118
1, 1305704, Control_c, 0, 64, 92
1, 1305719, Control_c, 0, 64, 76
1, 1305734, Control_c, 0, 64, 62
1, 1305748, Control_c, 0, 64, 0
1, 1305807, Control_c, 0, 64, 39
1, 1305822, Control_c, 0, 64, 61
1, 1305825, Note_off_c, 0, 29, 45
1, 1305837, Control_c, 0, 64, 67
1, 1305852, Control_c, 0, 64, 73
1, 1305867, Control_c, 0, 64, 81
1, 1305882, Control_c, 0, 64, 90
1, 1305897, Control_c, 0, 64, 101
1, 1305912, Control_c, 0, 64, 116
1, 1305926, Control_c, 0, 64, 127
1, 1305955, Note_off_c, 0, 39, 40
1, 1306192, Note_on_c, 0, 65, 51
1, 1306195, Note_on_c, 0, 37, 38
1, 1306204, Note_on_c, 0, 56, 46
1, 1306205, Note_on_c, 0, 25, 40
1, 1306209, Note_on_c, 0, 61, 46
1, 1306237, Control_c, 0, 64, 98
1, 1306252, Control_c, 0, 64, 79
1, 1306266, Control_c, 0, 64, 64
1, 1306281, Control_c, 0, 64, 0
1, 1306312, Note_off_c, 0, 27, 48
1, 1306379, Control_c, 0, 64, 50
1, 1306394, Control_c, 0, 64, 65
1, 1306409, Control_c, 0, 64, 71
1, 1306423, Control_c, 0, 64, 77
1, 1306438, Control_c, 0, 64, 88
1, 1306453, Control_c, 0, 64, 99
1, 1306468, Control_c, 0, 64, 113
1, 1306472, Note_off_c, 0, 61, 59
1, 1306483, Control_c, 0, 64, 127
1, 1306483, Control_c, 0, 67, 125
1, 1306497, Control_c, 0, 67, 119
1, 1306504, Note_off_c, 0, 56, 63
1, 1306512, Control_c, 0, 67, 113
1, 1306527, Control_c, 0, 67, 106
1, 1306541, Control_c, 0, 67, 100
1, 1306556, Control_c, 0, 67, 94
1, 1306571, Control_c, 0, 67, 87
1, 1306586, Control_c, 0, 67, 82
1, 1306601, Control_c, 0, 67, 78
1, 1306615, Control_c, 0, 67, 75
1, 1306630, Control_c, 0, 67, 73
1, 1306645, Control_c, 0, 67, 72
1, 1306702, Note_on_c, 0, 63, 58
1, 1306709, Note_on_c, 0, 54, 49
1, 1306710, Note_on_c, 0, 60, 50
1, 1306734, Control_c, 0, 64, 97
1, 1306749, Control_c, 0, 64, 83
1, 1306761, Note_off_c, 0, 65, 57
1, 1306764, Control_c, 0, 64, 73
1, 1306779, Control_c, 0, 64, 67
1, 1306808, Control_c, 0, 64, 71
1, 1306823, Control_c, 0, 64, 77
1, 1306838, Control_c, 0, 64, 84
1, 1306853, Control_c, 0, 64, 94
1, 1306868, Control_c, 0, 64, 109
1, 1306883, Control_c, 0, 64, 127
1, 1306925, Note_off_c, 0, 37, 41
1, 1306932, Note_off_c, 0, 25, 41
1, 1306948, Note_off_c, 0, 60, 61
1, 1306965, Note_off_c, 0, 54, 59
1, 1307141, Control_c, 0, 67, 72
1, 1307156, Control_c, 0, 67, 73
1, 1307182, Note_on_c, 0, 61, 61
1, 1307187, Control_c, 0, 67, 73
1, 1307190, Note_on_c, 0, 25, 42
1, 1307196, Note_on_c, 0, 53, 52
1, 1307199, Note_on_c, 0, 56, 53
1, 1307210, Note_on_c, 0, 37, 42
1, 1307217, Control_c, 0, 64, 99
1, 1307217, Control_c, 0, 67, 74
1, 1307232, Control_c, 0, 64, 81
1, 1307246, Control_c, 0, 64, 65
1, 1307261, Control_c, 0, 64, 0
1, 1307264, Note_off_c, 0, 63, 53
1, 1307306, Control_c, 0, 67, 73
1, 1307320, Control_c, 0, 67, 73
1, 1307335, Control_c, 0, 64, 45
1, 1307335, Control_c, 0, 67, 72
1, 1307350, Control_c, 0, 64, 64
1, 1307350, Control_c, 0, 67, 71
1, 1307364, Control_c, 0, 64, 70
1, 1307364, Control_c, 0, 67, 71
1, 1307379, Control_c, 0, 64, 79
1, 1307379, Control_c, 0, 67, 70
1, 1307394, Control_c, 0, 64, 89
1, 1307394, Control_c, 0, 67, 69
1, 1307403, Note_off_c, 0, 53, 61
1, 1307409, Control_c, 0, 64, 100
1, 1307409, Control_c, 0, 67, 66
1, 1307424, Control_c, 0, 64, 112
1, 1307424, Control_c, 0, 67, 60
1, 1307438, Control_c, 0, 64, 127
1, 1307438, Control_c, 0, 67, 55
1, 1307453, Note_off_c, 0, 56, 64
1, 1307453, Control_c, 0, 67, 50
1, 1307468, Control_c, 0, 67, 44
1, 1307483, Control_c, 0, 67, 38
1, 1307498, Control_c, 0, 67, 32
1, 1307512, Control_c, 0, 67, 26
1, 1307527, Control_c, 0, 67, 20
1, 1307542, Control_c, 0, 67, 14
1, 1307557, Control_c, 0, 67, 9
1, 1307572, Control_c, 0, 67, 0
1, 1307658, Note_on_c, 0, 53, 49
1, 1307661, Note_on_c, 0, 56, 63
1, 1307673, Note_on_c, 0, 49, 56
1, 1307691, Control_c, 0, 64, 95
1, 1307706, Control_c, 0, 64, 78
1, 1307720, Control_c, 0, 64, 67
1, 1307735, Control_c, 0, 64, 62
1, 1307750, Control_c, 0, 64, 65
1, 1307762, Note_off_c, 0, 61, 56
1, 1307764, Control_c, 0, 64, 69
1, 1307779, Control_c, 0, 64, 75
1, 1307781, Note_off_c, 0, 25, 48
1, 1307787, Note_off_c, 0, 49, 56
1, 1307794, Control_c, 0, 64, 84
1, 1307809, Control_c, 0, 64, 96
1, 1307824, Control_c, 0, 64, 113
1, 1307846, Control_c, 0, 64, 127
1, 1307861, Note_off_c, 0, 37, 41
1, 1307870, Note_off_c, 0, 53, 60
1, 1307915, Note_off_c, 0, 56, 53
1, 1308159, Note_on_c, 0, 68, 65
1, 1308162, Note_on_c, 0, 65, 54
1, 1308170, Note_on_c, 0, 56, 54
1, 1308179, Note_on_c, 0, 25, 47
1, 1308188, Note_on_c, 0, 37, 42
1, 1308203, Control_c, 0, 64, 95
1, 1308218, Control_c, 0, 64, 79
1, 1308233, Control_c, 0, 64, 67
1, 1308248, Control_c, 0, 64, 59
1, 1308262, Control_c, 0, 64, 60
1, 1308277, Control_c, 0, 64, 63
1, 1308292, Control_c, 0, 64, 66
1, 1308307, Control_c, 0, 64, 71
1, 1308321, Control_c, 0, 64, 77
1, 1308336, Control_c, 0, 64, 88
1, 1308351, Control_c, 0, 64, 102
1, 1308366, Control_c, 0, 64, 127
1, 1308421, Note_off_c, 0, 56, 62
1, 1308631, Note_on_c, 0, 60, 49
1, 1308636, Note_on_c, 0, 63, 55
1, 1308636, Note_on_c, 0, 66, 62
1, 1308655, Control_c, 0, 64, 118
1, 1308669, Control_c, 0, 64, 87
1, 1308684, Control_c, 0, 64, 68
1, 1308699, Control_c, 0, 64, 0
1, 1308722, Note_off_c, 0, 65, 39
1, 1308780, Note_off_c, 0, 63, 62
1, 1308789, Control_c, 0, 64, 56
1, 1308804, Control_c, 0, 64, 67
1, 1308818, Control_c, 0, 64, 78
1, 1308827, Note_off_c, 0, 68, 50
1, 1308833, Control_c, 0, 64, 90
1, 1308848, Control_c, 0, 64, 109
1, 1308863, Control_c, 0, 64, 127
1, 1308904, Note_off_c, 0, 25, 41
1, 1308904, Note_off_c, 0, 37, 40
1, 1309098, Control_c, 0, 67, 8
1, 1309102, Note_on_c, 0, 65, 58
1, 1309111, Note_on_c, 0, 61, 54
1, 1309113, Note_on_c, 0, 25, 37
1, 1309113, Control_c, 0, 67, 8
1, 1309125, Note_on_c, 0, 37, 39
1, 1309128, Control_c, 0, 67, 9
1, 1309143, Control_c, 0, 67, 9
1, 1309158, Control_c, 0, 67, 10
1, 1309173, Control_c, 0, 64, 92
1, 1309173, Control_c, 0, 67, 10
1, 1309188, Control_c, 0, 64, 70
1, 1309188, Control_c, 0, 67, 11
1, 1309200, Note_off_c, 0, 66, 30
1, 1309202, Control_c, 0, 64, 31
1, 1309211, Note_off_c, 0, 60, 61
1, 1309217, Control_c, 0, 64, 0
1, 1309277, Control_c, 0, 64, 43
1, 1309277, Control_c, 0, 67, 10
1, 1309291, Control_c, 0, 64, 64
1, 1309291, Control_c, 0, 67, 9
1, 1309306, Control_c, 0, 64, 71
1, 1309306, Control_c, 0, 67, 8
1, 1309321, Control_c, 0, 64, 79
1, 1309321, Control_c, 0, 67, 0
1, 1309343, Control_c, 0, 64, 91
1, 1309357, Control_c, 0, 64, 110
1, 1309361, Note_off_c, 0, 61, 61
1, 1309372, Control_c, 0, 64, 127
1, 1309598, Note_on_c, 0, 61, 58
1, 1309605, Note_on_c, 0, 56, 48
1, 1309613, Note_on_c, 0, 53, 51
1, 1309626, Control_c, 0, 64, 103
1, 1309640, Control_c, 0, 64, 82
1, 1309655, Control_c, 0, 64, 67
1, 1309670, Control_c, 0, 64, 47
1, 1309685, Control_c, 0, 64, 51
1, 1309688, Note_off_c, 0, 65, 55
1, 1309700, Control_c, 0, 64, 62
1, 1309714, Control_c, 0, 64, 68
1, 1309729, Control_c, 0, 64, 75
1, 1309740, Note_off_c, 0, 53, 60
1, 1309744, Control_c, 0, 64, 85
1, 1309758, Control_c, 0, 64, 103
1, 1309773, Control_c, 0, 64, 127
1, 1309796, Note_off_c, 0, 25, 41
1, 1309803, Note_off_c, 0, 56, 60
1, 1309820, Note_off_c, 0, 37, 42
1, 1309828, Note_off_c, 0, 61, 61
1, 1309995, Control_c, 0, 67, 8
1, 1310109, Note_on_c, 0, 66, 53
1, 1310109, Note_on_c, 0, 70, 59
1, 1310123, Note_on_c, 0, 58, 44
1, 1310136, Control_c, 0, 64, 106
1, 1310141, Note_on_c, 0, 61, 42
1, 1310143, Note_on_c, 0, 30, 45
1, 1310151, Control_c, 0, 64, 84
1, 1310165, Control_c, 0, 64, 70
1, 1310180, Control_c, 0, 64, 57
1, 1310195, Control_c, 0, 64, 45
1, 1310210, Control_c, 0, 64, 47
1, 1310210, Control_c, 0, 67, 0
1, 1310225, Control_c, 0, 64, 56
1, 1310240, Control_c, 0, 64, 64
1, 1310255, Control_c, 0, 64, 68
1, 1310270, Control_c, 0, 64, 75
1, 1310284, Control_c, 0, 64, 83
1, 1310299, Control_c, 0, 64, 94
1, 1310314, Control_c, 0, 64, 112
1, 1310329, Control_c, 0, 64, 127
1, 1310335, Note_off_c, 0, 58, 59
1, 1310338, Note_off_c, 0, 66, 58
1, 1310354, Note_off_c, 0, 61, 52
1, 1310579, Note_on_c, 0, 68, 67
1, 1310589, Note_on_c, 0, 61, 50
1, 1310589, Note_on_c, 0, 65, 58
1, 1310598, Note_on_c, 0, 25, 53
1, 1310598, Note_on_c, 0, 37, 51
1, 1310611, Note_off_c, 0, 70, 64
1, 1310641, Control_c, 0, 64, 91
1, 1310655, Control_c, 0, 64, 74
1, 1310670, Control_c, 0, 64, 62
1, 1310685, Control_c, 0, 64, 50
1, 1310700, Control_c, 0, 64, 56
1, 1310714, Control_c, 0, 64, 64
1, 1310729, Control_c, 0, 64, 68
1, 1310738, Note_off_c, 0, 30, 54
1, 1310744, Control_c, 0, 64, 76
1, 1310759, Control_c, 0, 64, 86
1, 1310774, Control_c, 0, 64, 103
1, 1310786, Note_off_c, 0, 65, 62
1, 1310788, Control_c, 0, 64, 127
1, 1310806, Note_off_c, 0, 61, 60
1, 1310900, Note_off_c, 0, 25, 40
1, 1310921, Note_off_c, 0, 37, 58
1, 1311048, Control_c, 0, 67, 8
1, 1311069, Note_on_c, 0, 66, 71
1, 1311075, Note_on_c, 0, 27, 54
1, 1311077, Note_on_c, 0, 63, 61
1, 1311077, Control_c, 0, 64, 119
1, 1311085, Note_on_c, 0, 39, 47
1, 1311086, Note_on_c, 0, 58, 55
1, 1311092, Control_c, 0, 64, 86
1, 1311107, Control_c, 0, 64, 70
1, 1311118, Note_off_c, 0, 68, 63
1, 1311122, Control_c, 0, 64, 57
1, 1311137, Control_c, 0, 64, 48
1, 1311152, Control_c, 0, 64, 54
1, 1311167, Control_c, 0, 64, 62
1, 1311182, Control_c, 0, 64, 68
1, 1311194, Note_off_c, 0, 63, 58
1, 1311197, Control_c, 0, 64, 75
1, 1311212, Control_c, 0, 64, 85
1, 1311227, Control_c, 0, 64, 101
1, 1311241, Control_c, 0, 64, 127
1, 1311241, Control_c, 0, 67, 0
1, 1311276, Note_off_c, 0, 27, 58
1, 1311357, Note_off_c, 0, 39, 54
1, 1311378, Note_off_c, 0, 58, 57
1, 1311383, Note_off_c, 0, 66, 56
1, 1311551, Note_on_c, 0, 65, 75
1, 1311555, Note_on_c, 0, 60, 50
1, 1311561, Note_on_c, 0, 29, 52
1, 1311567, Control_c, 0, 64, 104
1, 1311568, Note_on_c, 0, 41, 49
1, 1311568, Note_on_c, 0, 56, 57
1, 1311590, Control_c, 0, 64, 83
1, 1311605, Control_c, 0, 64, 69
1, 1311619, Control_c, 0, 64, 59
1, 1311634, Control_c, 0, 64, 55
1, 1311649, Control_c, 0, 64, 60
1, 1311664, Control_c, 0, 64, 65
1, 1311679, Control_c, 0, 64, 71
1, 1311693, Control_c, 0, 64, 78
1, 1311708, Control_c, 0, 64, 90
1, 1311723, Control_c, 0, 64, 107
1, 1311737, Control_c, 0, 64, 127
1, 1311831, Note_off_c, 0, 56, 63
1, 1311832, Note_off_c, 0, 60, 63
1, 1311852, Note_off_c, 0, 29, 43
1, 1311856, Note_off_c, 0, 41, 58
1, 1312100, Note_on_c, 0, 61, 66
1, 1312101, Note_on_c, 0, 54, 43
1, 1312103, Note_on_c, 0, 42, 51
1, 1312112, Note_on_c, 0, 30, 45
1, 1312117, Note_on_c, 0, 58, 56
1, 1312124, Control_c, 0, 64, 123
1, 1312139, Control_c, 0, 64, 88
1, 1312153, Control_c, 0, 64, 71
1, 1312168, Control_c, 0, 64, 51
1, 1312183, Control_c, 0, 64, 0
1, 1312227, Control_c, 0, 64, 48
1, 1312242, Control_c, 0, 64, 62
1, 1312257, Control_c, 0, 64, 68
1, 1312264, Note_off_c, 0, 65, 51
1, 1312271, Control_c, 0, 64, 74
1, 1312286, Control_c, 0, 64, 83
1, 1312301, Control_c, 0, 64, 95
1, 1312316, Control_c, 0, 64, 118
1, 1312338, Control_c, 0, 64, 127
1, 1312347, Note_off_c, 0, 54, 63
1, 1312389, Note_off_c, 0, 58, 62
1, 1312419, Note_off_c, 0, 30, 40
1, 1312441, Note_off_c, 0, 42, 60
1, 1312619, Note_on_c, 0, 58, 47
1, 1312629, Note_on_c, 0, 49, 40
1, 1312631, Note_on_c, 0, 31, 39
1, 1312634, Control_c, 0, 64, 108
1, 1312636, Note_on_c, 0, 43, 38
1, 1312649, Control_c, 0, 64, 89
1, 1312664, Control_c, 0, 64, 78
1, 1312678, Control_c, 0, 64, 74
1, 1312681, Note_off_c, 0, 49, 45
1, 1312693, Control_c, 0, 64, 75
1, 1312708, Control_c, 0, 64, 80
1, 1312723, Control_c, 0, 64, 87
1, 1312738, Control_c, 0, 64, 97
1, 1312754, Control_c, 0, 64, 113
1, 1312769, Control_c, 0, 64, 127
1, 1312788, Note_on_c, 0, 63, 65
1, 1312789, Note_off_c, 0, 43, 49
1, 1312826, Note_off_c, 0, 58, 44
1, 1312887, Note_off_c, 0, 61, 32
1, 1312953, Note_on_c, 0, 65, 41
1, 1312961, Note_off_c, 0, 63, 57
1, 1312994, Note_off_c, 0, 65, 0
1, 1312994, Note_on_c, 0, 65, 14
1, 1312996, Note_on_c, 0, 64, 18
1, 1313114, Note_off_c, 0, 64, 26
1, 1313136, Note_off_c, 0, 65, 52
1, 1313143, Note_on_c, 0, 63, 63
1, 1313158, Note_on_c, 0, 32, 54
1, 1313178, Note_on_c, 0, 44, 45
1, 1313179, Note_off_c, 0, 31, 39
1, 1313191, Control_c, 0, 64, 97
1, 1313206, Control_c, 0, 64, 78
1, 1313221, Control_c, 0, 64, 65
1, 1313236, Control_c, 0, 64, 51
1, 1313250, Control_c, 0, 64, 50
1, 1313265, Control_c, 0, 64, 58
1, 1313280, Control_c, 0, 64, 65
1, 1313295, Control_c, 0, 64, 71
1, 1313309, Control_c, 0, 64, 80
1, 1313324, Control_c, 0, 64, 95
1, 1313339, Control_c, 0, 64, 127
1, 1313415, Note_off_c, 0, 63, 60
1, 1313689, Note_on_c, 0, 56, 59
1, 1313707, Note_on_c, 0, 51, 53
1, 1313710, Note_on_c, 0, 48, 43
1, 1313751, Note_off_c, 0, 48, 62
1, 1313760, Note_off_c, 0, 44, 50
1, 1313808, Note_off_c, 0, 32, 61
1, 1313808, Note_off_c, 0, 51, 60
1, 1313840, Note_off_c, 0, 56, 59
1, 1313954, Control_c, 0, 64, 106
1, 1313969, Control_c, 0, 64, 79
1, 1313975, Note_on_c, 0, 25, 73
1, 1313984, Control_c, 0, 64, 64
1, 1313999, Control_c, 0, 64, 59
1, 1314014, Control_c, 0, 64, 64
1, 1314029, Control_c, 0, 64, 68
1, 1314040, Note_off_c, 0, 25, 61
1, 1314043, Note_on_c, 0, 37, 62
1, 1314043, Control_c, 0, 64, 77
1, 1314058, Control_c, 0, 64, 92
1, 1314073, Note_off_c, 0, 37, 64
1, 1314073, Control_c, 0, 64, 127
1, 1314258, Note_on_c, 0, 77, 80
1, 1314275, Note_on_c, 0, 73, 65
1, 1314279, Note_on_c, 0, 68, 60
1, 1314295, Note_on_c, 0, 65, 50
1, 1314298, Note_on_c, 0, 61, 50
1, 1314302, Note_on_c, 0, 56, 49
1, 1314449, Note_off_c, 0, 65, 62
1, 1314497, Note_off_c, 0, 61, 59
1, 1314509, Note_off_c, 0, 77, 61
1, 1314512, Note_off_c, 0, 56, 62
1, 1314513, Note_off_c, 0, 68, 59
1, 1314522, Note_off_c, 0, 73, 63
1, 1314759, Note_on_c, 0, 75, 79
1, 1314764, Note_on_c, 0, 63, 63
1, 1314765, Note_on_c, 0, 56, 55
1, 1314776, Note_on_c, 0, 72, 53
1, 1314777, Note_on_c, 0, 66, 55
1, 1314784, Note_on_c, 0, 68, 53
1, 1314786, Note_on_c, 0, 60, 50
1, 1314822, Control_c, 0, 64, 103
1, 1314836, Control_c, 0, 64, 88
1, 1314850, Note_on_c, 0, 54, 13
1, 1314851, Control_c, 0, 64, 81
1, 1314866, Control_c, 0, 64, 81
1, 1314881, Control_c, 0, 64, 83
1, 1314896, Control_c, 0, 64, 92
1, 1314911, Control_c, 0, 64, 113
1, 1314925, Note_off_c, 0, 63, 60
1, 1314926, Control_c, 0, 64, 127
1, 1314937, Note_off_c, 0, 60, 61
1, 1314951, Note_off_c, 0, 72, 25
1, 1314960, Note_off_c, 0, 66, 61
1, 1314961, Note_off_c, 0, 56, 64
1, 1314968, Note_off_c, 0, 68, 61
1, 1314970, Note_off_c, 0, 54, 55
1, 1315235, Note_on_c, 0, 68, 61
1, 1315236, Note_on_c, 0, 73, 73
1, 1315239, Note_on_c, 0, 65, 56
1, 1315240, Note_on_c, 0, 53, 53
1, 1315245, Note_on_c, 0, 61, 55
1, 1315253, Note_on_c, 0, 56, 56
1, 1315267, Control_c, 0, 64, 115
1, 1315282, Control_c, 0, 64, 90
1, 1315284, Note_off_c, 0, 75, 61
1, 1315296, Control_c, 0, 64, 76
1, 1315311, Control_c, 0, 64, 68
1, 1315334, Control_c, 0, 64, 68
1, 1315349, Control_c, 0, 64, 73
1, 1315364, Control_c, 0, 64, 81
1, 1315378, Control_c, 0, 64, 97
1, 1315393, Control_c, 0, 64, 127
1, 1315401, Note_off_c, 0, 65, 60
1, 1315448, Note_off_c, 0, 68, 62
1, 1315468, Note_off_c, 0, 61, 62
1, 1315493, Note_off_c, 0, 56, 63
1, 1315498, Note_off_c, 0, 53, 62
1, 1315705, Note_on_c, 0, 65, 60
1, 1315707, Note_on_c, 0, 68, 68
1, 1315708, Note_on_c, 0, 61, 59
1, 1315712, Note_on_c, 0, 56, 55
1, 1315715, Note_on_c, 0, 49, 66
1, 1315719, Control_c, 0, 64, 100
1, 1315734, Control_c, 0, 64, 83
1, 1315743, Note_off_c, 0, 56, 63
1, 1315749, Control_c, 0, 64, 74
1, 1315753, Note_off_c, 0, 61, 61
1, 1315763, Control_c, 0, 64, 75
1, 1315765, Note_off_c, 0, 49, 63
1, 1315778, Control_c, 0, 64, 81
1, 1315793, Control_c, 0, 64, 90
1, 1315808, Control_c, 0, 64, 105
1, 1315823, Control_c, 0, 64, 127
1, 1315838, Note_off_c, 0, 73, 39
1, 1315862, Note_off_c, 0, 65, 48
1, 1315921, Note_off_c, 0, 68, 56
1, 1315929, Note_on_c, 0, 25, 76
1, 1315942, Control_c, 0, 64, 119
1, 1315957, Control_c, 0, 64, 82
1, 1315972, Control_c, 0, 64, 57
1, 1315987, Control_c, 0, 64, 0
1, 1316009, Note_off_c, 0, 25, 62
1, 1316012, Note_on_c, 0, 37, 78
1, 1316016, Control_c, 0, 64, 26
1, 1316031, Control_c, 0, 64, 65
1, 1316039, Note_off_c, 0, 37, 66
1, 1316046, Control_c, 0, 64, 78
1, 1316061, Control_c, 0, 64, 102
1, 1316082, Control_c, 0, 64, 127
1, 1316248, Note_on_c, 0, 80, 79
1, 1316263, Note_on_c, 0, 73, 66
1, 1316266, Note_on_c, 0, 56, 58
1, 1316267, Note_on_c, 0, 65, 53
1, 1316270, Note_on_c, 0, 68, 63
1, 1316407, Note_off_c, 0, 65, 61
1, 1316451, Note_off_c, 0, 56, 64
1, 1316499, Note_off_c, 0, 68, 60
1, 1316521, Note_off_c, 0, 73, 63
1, 1316528, Note_off_c, 0, 80, 62
1, 1316708, Note_on_c, 0, 56, 53
1, 1316714, Note_on_c, 0, 72, 46
1, 1316714, Note_on_c, 0, 78, 81
1, 1316720, Note_on_c, 0, 63, 59
1, 1316726, Note_on_c, 0, 60, 43
1, 1316729, Note_on_c, 0, 66, 60
1, 1316735, Note_on_c, 0, 68, 58
1, 1316780, Control_c, 0, 64, 94
1, 1316792, Note_on_c, 0, 54, 17
1, 1316795, Control_c, 0, 64, 76
1, 1316810, Control_c, 0, 64, 68
1, 1316831, Control_c, 0, 64, 67
1, 1316846, Control_c, 0, 64, 71
1, 1316857, Note_off_c, 0, 72, 50
1, 1316861, Control_c, 0, 64, 77
1, 1316875, Control_c, 0, 64, 88
1, 1316884, Note_off_c, 0, 63, 61
1, 1316887, Note_off_c, 0, 60, 63
1, 1316890, Control_c, 0, 64, 113
1, 1316905, Control_c, 0, 64, 127
1, 1316913, Note_off_c, 0, 56, 63
1, 1316920, Note_off_c, 0, 54, 57
1, 1316920, Poly_aftertouch_c, 0, 75, 127
1, 1316965, Note_off_c, 0, 78, 61
1, 1316977, Note_off_c, 0, 66, 61
1, 1317007, Poly_aftertouch_c, 0, 75, 0
1, 1317065, Note_off_c, 0, 68, 39
1, 1317191, Note_on_c, 0, 77, 74
1, 1317192, Note_on_c, 0, 73, 65
1, 1317194, Note_on_c, 0, 53, 50
1, 1317196, Note_on_c, 0, 68, 60
1, 1317197, Note_on_c, 0, 61, 47
1, 1317200, Note_on_c, 0, 65, 62
1, 1317215, Note_on_c, 0, 56, 51
1, 1317231, Control_c, 0, 64, 100
1, 1317246, Control_c, 0, 64, 79
1, 1317261, Control_c, 0, 64, 66
1, 1317275, Control_c, 0, 64, 58
1, 1317290, Control_c, 0, 64, 62
1, 1317305, Control_c, 0, 64, 66
1, 1317320, Control_c, 0, 64, 74
1, 1317335, Control_c, 0, 64, 85
1, 1317349, Control_c, 0, 64, 110
1, 1317364, Control_c, 0, 64, 127
1, 1317370, Note_off_c, 0, 65, 59
1, 1317373, Note_off_c, 0, 77, 59
1, 1317430, Note_off_c, 0, 73, 62
1, 1317430, Note_off_c, 0, 61, 60
1, 1317435, Note_off_c, 0, 68, 61
1, 1317469, Note_off_c, 0, 56, 58
1, 1317476, Note_off_c, 0, 53, 60
1, 1317689, Note_on_c, 0, 73, 76
1, 1317697, Note_on_c, 0, 61, 59
1, 1317698, Note_on_c, 0, 68, 54
1, 1317701, Note_on_c, 0, 65, 57
1, 1317713, Control_c, 0, 64, 97
1, 1317715, Note_on_c, 0, 49, 55
1, 1317715, Note_on_c, 0, 56, 51
1, 1317721, Note_on_c, 0, 53, 48
1, 1317728, Note_off_c, 0, 61, 64
1, 1317728, Control_c, 0, 64, 80
1, 1317743, Control_c, 0, 64, 70
1, 1317758, Control_c, 0, 64, 70
1, 1317773, Control_c, 0, 64, 75
1, 1317785, Note_off_c, 0, 65, 57
1, 1317787, Control_c, 0, 64, 83
1, 1317802, Control_c, 0, 64, 96
1, 1317813, Note_off_c, 0, 68, 55
1, 1317817, Control_c, 0, 64, 127
1, 1317829, Note_off_c, 0, 56, 58
1, 1317842, Note_off_c, 0, 53, 62
1, 1317862, Note_off_c, 0, 73, 61
1, 1317879, Note_off_c, 0, 49, 63
1, 1318167, Note_on_c, 0, 82, 77
1, 1318172, Note_on_c, 0, 70, 64
1, 1318177, Note_on_c, 0, 78, 66
1, 1318183, Note_on_c, 0, 73, 59
1, 1318193, Note_on_c, 0, 30, 55
1, 1318194, Note_on_c, 0, 42, 56
1, 1318217, Control_c, 0, 64, 102
1, 1318232, Control_c, 0, 64, 83
1, 1318247, Control_c, 0, 64, 71
1, 1318262, Control_c, 0, 64, 68
1, 1318277, Control_c, 0, 64, 71
1, 1318291, Control_c, 0, 64, 78
1, 1318306, Control_c, 0, 64, 91
1, 1318329, Control_c, 0, 64, 119
1, 1318344, Control_c, 0, 64, 127
1, 1318374, Note_off_c, 0, 42, 61
1, 1318413, Note_off_c, 0, 82, 60
1, 1318428, Note_off_c, 0, 70, 62
1, 1318430, Note_off_c, 0, 78, 59
1, 1318438, Note_off_c, 0, 30, 60
1, 1318463, Note_off_c, 0, 73, 56
1, 1318643, Note_on_c, 0, 73, 54
1, 1318646, Note_on_c, 0, 80, 78
1, 1318648, Note_on_c, 0, 77, 67
1, 1318653, Note_on_c, 0, 68, 71
1, 1318659, Note_on_c, 0, 25, 68
1, 1318666, Note_on_c, 0, 37, 67
1, 1318685, Control_c, 0, 64, 114
1, 1318700, Control_c, 0, 64, 83
1, 1318715, Control_c, 0, 64, 67
1, 1318729, Control_c, 0, 64, 51
1, 1318744, Control_c, 0, 64, 50
1, 1318759, Control_c, 0, 64, 61
1, 1318774, Control_c, 0, 64, 67
1, 1318789, Control_c, 0, 64, 77
1, 1318804, Control_c, 0, 64, 93
1, 1318819, Control_c, 0, 64, 127
1, 1318859, Note_off_c, 0, 68, 57
1, 1318873, Note_off_c, 0, 77, 60
1, 1318876, Note_off_c, 0, 80, 57
1, 1318890, Note_off_c, 0, 37, 60
1, 1318892, Note_off_c, 0, 25, 58
1, 1318902, Note_off_c, 0, 73, 62
1, 1319116, Note_on_c, 0, 75, 74
1, 1319119, Note_on_c, 0, 66, 72
1, 1319119, Note_on_c, 0, 78, 78
1, 1319123, Note_on_c, 0, 70, 71
1, 1319137, Note_on_c, 0, 39, 73
1, 1319138, Note_on_c, 0, 27, 67
1, 1319153, Control_c, 0, 64, 101
1, 1319168, Control_c, 0, 64, 76
1, 1319183, Control_c, 0, 64, 63
1, 1319198, Control_c, 0, 64, 59
1, 1319213, Control_c, 0, 64, 64
1, 1319227, Control_c, 0, 64, 69
1, 1319242, Control_c, 0, 64, 79
1, 1319257, Control_c, 0, 64, 98
1, 1319272, Control_c, 0, 64, 127
1, 1319310, Note_off_c, 0, 70, 61
1, 1319347, Note_off_c, 0, 27, 61
1, 1319359, Note_off_c, 0, 66, 63
1, 1319371, Note_off_c, 0, 78, 60
1, 1319373, Note_off_c, 0, 75, 59
1, 1319396, Note_off_c, 0, 39, 58
1, 1319582, Note_on_c, 0, 77, 89
1, 1319588, Note_on_c, 0, 41, 80
1, 1319588, Note_on_c, 0, 65, 75
1, 1319591, Note_on_c, 0, 68, 74
1, 1319592, Note_on_c, 0, 29, 76
1, 1319595, Note_on_c, 0, 72, 62
1, 1319597, Control_c, 0, 64, 108
1, 1319612, Control_c, 0, 64, 79
1, 1319627, Control_c, 0, 64, 60
1, 1319642, Control_c, 0, 64, 29
1, 1319657, Control_c, 0, 64, 57
1, 1319671, Control_c, 0, 64, 67
1, 1319686, Control_c, 0, 64, 77
1, 1319701, Control_c, 0, 64, 98
1, 1319716, Control_c, 0, 64, 127
1, 1319764, Note_off_c, 0, 29, 61
1, 1319783, Note_off_c, 0, 65, 61
1, 1319788, Note_off_c, 0, 41, 61
1, 1319790, Note_off_c, 0, 77, 59
1, 1319843, Note_off_c, 0, 72, 61
1, 1319856, Note_off_c, 0, 68, 61
1, 1320127, Note_on_c, 0, 73, 88
1, 1320129, Note_on_c, 0, 68, 69
1, 1320136, Note_on_c, 0, 34, 57
1, 1320138, Note_on_c, 0, 65, 63
1, 1320140, Note_on_c, 0, 61, 71
1, 1320142, Note_on_c, 0, 46, 61
1, 1320168, Control_c, 0, 64, 103
1, 1320183, Control_c, 0, 64, 79
1, 1320198, Control_c, 0, 64, 64
1, 1320213, Control_c, 0, 64, 53
1, 1320228, Control_c, 0, 64, 62
1, 1320242, Control_c, 0, 64, 68
1, 1320257, Control_c, 0, 64, 77
1, 1320272, Control_c, 0, 64, 92
1, 1320287, Control_c, 0, 64, 127
1, 1320320, Note_off_c, 0, 68, 61
1, 1320323, Note_off_c, 0, 46, 62
1, 1320327, Note_off_c, 0, 65, 63
1, 1320379, Note_off_c, 0, 34, 60
1, 1320607, Note_on_c, 0, 67, 46
1, 1320608, Note_on_c, 0, 27, 60
1, 1320611, Note_off_c, 0, 61, 60
1, 1320613, Note_on_c, 0, 39, 56
1, 1320613, Note_on_c, 0, 70, 55
1, 1320619, Control_c, 0, 64, 102
1, 1320631, Note_off_c, 0, 73, 57
1, 1320632, Note_off_c, 0, 67, 60
1, 1320634, Control_c, 0, 64, 81
1, 1320644, Note_off_c, 0, 70, 65
1, 1320649, Control_c, 0, 64, 70
1, 1320664, Control_c, 0, 64, 69
1, 1320679, Control_c, 0, 64, 75
1, 1320694, Control_c, 0, 64, 88
1, 1320709, Control_c, 0, 64, 117
1, 1320724, Control_c, 0, 64, 127
1, 1320760, Note_on_c, 0, 75, 69
1, 1320773, Note_on_c, 0, 63, 55
1, 1320801, Note_off_c, 0, 63, 64
1, 1320806, Note_off_c, 0, 27, 60
1, 1320816, Note_off_c, 0, 39, 58
1, 1320855, Note_off_c, 0, 75, 59
1, 1320906, Note_on_c, 0, 77, 78
1, 1320917, Note_on_c, 0, 65, 65
1, 1320944, Note_off_c, 0, 65, 67
1, 1320948, Note_off_c, 0, 77, 57
1, 1321109, Note_on_c, 0, 32, 56
1, 1321119, Note_on_c, 0, 75, 70
1, 1321120, Note_on_c, 0, 44, 56
1, 1321124, Note_on_c, 0, 68, 55
1, 1321125, Control_c, 0, 64, 112
1, 1321126, Note_on_c, 0, 72, 55
1, 1321127, Note_on_c, 0, 63, 55
1, 1321140, Control_c, 0, 64, 80
1, 1321155, Control_c, 0, 64, 58
1, 1321170, Control_c, 0, 64, 0
1, 1321229, Control_c, 0, 64, 51
1, 1321243, Control_c, 0, 64, 68
1, 1321258, Control_c, 0, 64, 83
1, 1321264, Note_off_c, 0, 32, 63
1, 1321273, Control_c, 0, 64, 110
1, 1321284, Note_off_c, 0, 44, 63
1, 1321288, Control_c, 0, 64, 127
1, 1321361, Note_off_c, 0, 75, 58
1, 1321383, Note_off_c, 0, 72, 62
1, 1321391, Note_off_c, 0, 68, 60
1, 1321413, Note_off_c, 0, 63, 59
1, 1321648, Note_on_c, 0, 56, 49
1, 1321659, Note_on_c, 0, 68, 60
1, 1321663, Note_on_c, 0, 63, 48
1, 1321663, Note_on_c, 0, 60, 47
1, 1321669, Note_on_c, 0, 48, 36
1, 1321682, Note_on_c, 0, 51, 39
1, 1321725, Note_off_c, 0, 56, 62
1, 1321748, Note_off_c, 0, 51, 60
1, 1321766, Note_off_c, 0, 48, 57
1, 1321782, Note_off_c, 0, 60, 57
1, 1321859, Note_off_c, 0, 68, 59
1, 1321861, Note_off_c, 0, 63, 60
1, 1321917, Control_c, 0, 64, 106
1, 1321932, Control_c, 0, 64, 69
1, 1321946, Control_c, 0, 64, 0
1, 1321952, Note_on_c, 0, 32, 78
1, 1322006, Control_c, 0, 64, 63
1, 1322020, Note_on_c, 0, 44, 88
1, 1322020, Control_c, 0, 64, 82
1, 1322026, Note_off_c, 0, 32, 63
1, 1322035, Control_c, 0, 64, 127
1, 1322050, Note_off_c, 0, 44, 66
1, 1322218, Note_on_c, 0, 72, 85
1, 1322223, Note_on_c, 0, 63, 75
1, 1322225, Note_on_c, 0, 68, 80
1, 1322233, Note_on_c, 0, 51, 61
1, 1322242, Note_on_c, 0, 56, 58
1, 1322242, Note_on_c, 0, 60, 56
1, 1322426, Note_off_c, 0, 63, 59
1, 1322436, Note_off_c, 0, 60, 63
1, 1322439, Note_off_c, 0, 51, 56
1, 1322447, Note_off_c, 0, 56, 63
1, 1322467, Note_off_c, 0, 72, 60
1, 1322469, Note_off_c, 0, 68, 58
1, 1322557, Note_on_c, 0, 73, 89
1, 1322561, Note_on_c, 0, 65, 79
1, 1322563, Note_on_c, 0, 53, 64
1, 1322566, Note_on_c, 0, 61, 73
1, 1322572, Note_on_c, 0, 68, 71
1, 1322572, Note_on_c, 0, 56, 53
1, 1322581, Note_off_c, 0, 65, 71
1, 1322590, Note_off_c, 0, 61, 66
1, 1322591, Note_off_c, 0, 73, 58
1, 1322593, Note_off_c, 0, 68, 70
1, 1322599, Note_off_c, 0, 53, 62
1, 1322600, Note_off_c, 0, 56, 66
1, 1322658, Note_on_c, 0, 68, 90
1, 1322659, Note_on_c, 0, 75, 88
1, 1322661, Note_on_c, 0, 66, 90
1, 1322664, Note_on_c, 0, 56, 77
1, 1322676, Note_on_c, 0, 63, 87
1, 1322681, Control_c, 0, 64, 96
1, 1322685, Note_on_c, 0, 54, 65
1, 1322695, Control_c, 0, 64, 75
1, 1322710, Control_c, 0, 64, 65
1, 1322725, Control_c, 0, 64, 67
1, 1322740, Control_c, 0, 64, 74
1, 1322755, Control_c, 0, 64, 85
1, 1322769, Control_c, 0, 64, 114
1, 1322778, Note_off_c, 0, 63, 59
1, 1322784, Control_c, 0, 64, 127
1, 1322806, Note_off_c, 0, 66, 59
1, 1322806, Note_off_c, 0, 54, 63
1, 1322807, Note_off_c, 0, 75, 58
1, 1322817, Note_off_c, 0, 56, 61
1, 1322828, Note_off_c, 0, 68, 56
1, 1322904, Note_on_c, 0, 53, 79
1, 1322904, Note_on_c, 0, 65, 80
1, 1322904, Note_on_c, 0, 68, 81
1, 1322905, Note_on_c, 0, 73, 93
1, 1322909, Note_on_c, 0, 61, 81
1, 1322926, Note_off_c, 0, 65, 70
1, 1322935, Note_off_c, 0, 61, 67
1, 1322938, Note_off_c, 0, 68, 59
1, 1322939, Note_off_c, 0, 53, 62
1, 1322964, Note_off_c, 0, 73, 66
1, 1323026, Poly_aftertouch_c, 0, 57, 0
1, 1323157, Note_on_c, 0, 78, 81
1, 1323162, Note_on_c, 0, 58, 59
1, 1323162, Note_on_c, 0, 72, 69
1, 1323163, Control_c, 0, 64, 112
1, 1323164, Note_on_c, 0, 70, 74
1, 1323177, Note_on_c, 0, 60, 47
1, 1323178, Control_c, 0, 64, 87
1, 1323191, Note_on_c, 0, 65, 40
1, 1323192, Control_c, 0, 64, 77
1, 1323207, Control_c, 0, 64, 77
1, 1323220, Note_off_c, 0, 65, 54
1, 1323222, Control_c, 0, 64, 84
1, 1323237, Control_c, 0, 64, 99
1, 1323252, Control_c, 0, 64, 127
1, 1323282, Note_off_c, 0, 70, 61
1, 1323288, Note_off_c, 0, 58, 58
1, 1323294, Note_off_c, 0, 78, 63
1, 1323312, Note_off_c, 0, 60, 38
1, 1323319, Note_off_c, 0, 72, 51
1, 1323371, Control_c, 0, 64, 115
1, 1323371, Note_on_c, 0, 72, 58
1, 1323377, Note_on_c, 0, 77, 90
1, 1323383, Note_on_c, 0, 56, 73
1, 1323383, Note_on_c, 0, 65, 72
1, 1323383, Note_on_c, 0, 68, 83
1, 1323385, Control_c, 0, 64, 99
1, 1323395, Note_on_c, 0, 60, 53
1, 1323407, Note_off_c, 0, 65, 69
1, 1323415, Control_c, 0, 64, 113
1, 1323424, Note_off_c, 0, 60, 66
1, 1323429, Control_c, 0, 64, 127
1, 1323434, Note_off_c, 0, 72, 63
1, 1323436, Note_off_c, 0, 56, 66
1, 1323440, Note_off_c, 0, 77, 62
1, 1323445, Note_off_c, 0, 68, 60
1, 1323600, Control_c, 0, 64, 107
1, 1323613, Note_on_c, 0, 63, 77
1, 1323614, Note_on_c, 0, 75, 86
1, 1323615, Control_c, 0, 64, 71
1, 1323627, Note_on_c, 0, 56, 52
1, 1323627, Note_on_c, 0, 66, 78
1, 1323627, Note_on_c, 0, 68, 72
1, 1323630, Control_c, 0, 64, 0
1, 1323633, Note_on_c, 0, 54, 67
1, 1323674, Control_c, 0, 64, 65
1, 1323689, Control_c, 0, 64, 84
1, 1323695, Note_off_c, 0, 63, 63
1, 1323704, Control_c, 0, 64, 127
1, 1323719, Note_off_c, 0, 75, 64
1, 1323743, Note_off_c, 0, 66, 62
1, 1323758, Note_off_c, 0, 68, 58
1, 1323775, Note_off_c, 0, 56, 33
1, 1323782, Note_off_c, 0, 54, 57
1, 1323836, Control_c, 0, 64, 80
1, 1323849, Note_on_c, 0, 60, 69
1, 1323851, Note_on_c, 0, 66, 76
1, 1323851, Control_c, 0, 64, 55
1, 1323852, Note_on_c, 0, 63, 82
1, 1323854, Note_on_c, 0, 54, 60
1, 1323854, Note_on_c, 0, 72, 84
1, 1323859, Note_on_c, 0, 51, 74
1, 1323866, Control_c, 0, 64, 42
1, 1323876, Note_off_c, 0, 60, 69
1, 1323881, Control_c, 0, 64, 65
1, 1323885, Note_off_c, 0, 54, 67
1, 1323894, Note_off_c, 0, 51, 67
1, 1323897, Control_c, 0, 64, 78
1, 1323911, Control_c, 0, 64, 107
1, 1323926, Control_c, 0, 64, 127
1, 1324002, Control_c, 0, 64, 94
1, 1324009, Note_off_c, 0, 63, 59
1, 1324016, Control_c, 0, 64, 26
1, 1324017, Note_off_c, 0, 66, 60
1, 1324018, Note_on_c, 0, 25, 84
1, 1324031, Control_c, 0, 64, 0
1, 1324033, Note_off_c, 0, 72, 64
1, 1324075, Control_c, 0, 64, 58
1, 1324090, Control_c, 0, 64, 79
1, 1324096, Note_on_c, 0, 37, 82
1, 1324104, Note_off_c, 0, 25, 61
1, 1324105, Control_c, 0, 64, 127
1, 1324124, Poly_aftertouch_c, 0, 31, 0
1, 1324126, Note_off_c, 0, 37, 68
1, 1324161, Poly_aftertouch_c, 0, 31, 0
1, 1324266, Note_on_c, 0, 73, 84
1, 1324267, Note_on_c, 0, 68, 78
1, 1324268, Note_on_c, 0, 65, 79
1, 1324283, Note_on_c, 0, 53, 69
1, 1324297, Note_on_c, 0, 56, 72
1, 1324298, Note_on_c, 0, 61, 70
1, 1324405, Note_off_c, 0, 65, 61
1, 1324418, Note_off_c, 0, 68, 63
1, 1324434, Note_off_c, 0, 73, 63
1, 1324462, Note_off_c, 0, 53, 64
1, 1324469, Note_off_c, 0, 61, 62
1, 1324486, Note_off_c, 0, 56, 61
1, 1324609, Note_on_c, 0, 54, 73
1, 1324609, Note_on_c, 0, 66, 78
1, 1324612, Note_on_c, 0, 63, 72
1, 1324612, Note_on_c, 0, 75, 65
1, 1324631, Note_off_c, 0, 54, 69
1, 1324635, Note_off_c, 0, 66, 66
1, 1324638, Note_off_c, 0, 63, 67
1, 1324640, Note_on_c, 0, 73, 50
1, 1324641, Note_off_c, 0, 75, 66
1, 1324646, Note_on_c, 0, 61, 35
1, 1324660, Control_c, 0, 64, 116
1, 1324662, Note_off_c, 0, 73, 59
1, 1324675, Control_c, 0, 64, 79
1, 1324679, Note_off_c, 0, 61, 54
1, 1324690, Control_c, 0, 64, 40
1, 1324695, Note_on_c, 0, 77, 86
1, 1324700, Note_on_c, 0, 73, 76
1, 1324705, Control_c, 0, 64, 30
1, 1324706, Note_on_c, 0, 68, 77
1, 1324713, Note_on_c, 0, 65, 80
1, 1324716, Note_on_c, 0, 56, 75
1, 1324720, Control_c, 0, 64, 62
1, 1324729, Note_on_c, 0, 61, 51
1, 1324736, Control_c, 0, 64, 72
1, 1324751, Control_c, 0, 64, 88
1, 1324765, Control_c, 0, 64, 127
1, 1324771, Note_off_c, 0, 65, 63
1, 1324782, Note_off_c, 0, 68, 54
1, 1324799, Note_off_c, 0, 61, 60
1, 1324821, Note_off_c, 0, 56, 62
1, 1324834, Note_off_c, 0, 77, 55
1, 1324861, Note_off_c, 0, 73, 59
1, 1324914, Note_on_c, 0, 61, 78
1, 1324916, Note_on_c, 0, 66, 82
1, 1324916, Note_on_c, 0, 70, 91
1, 1324919, Note_on_c, 0, 78, 87
1, 1324924, Note_on_c, 0, 58, 67
1, 1324926, Note_on_c, 0, 73, 76
1, 1324939, Note_off_c, 0, 66, 69
1, 1324959, Note_off_c, 0, 70, 65
1, 1324961, Note_off_c, 0, 58, 60
1, 1324968, Note_off_c, 0, 61, 63
1, 1324975, Note_off_c, 0, 73, 60
1, 1324991, Note_off_c, 0, 78, 63
1, 1325194, Note_on_c, 0, 82, 87
1, 1325201, Note_on_c, 0, 70, 72
1, 1325207, Note_on_c, 0, 61, 60
1, 1325207, Note_on_c, 0, 73, 74
1, 1325210, Note_on_c, 0, 71, 75
1, 1325216, Control_c, 0, 64, 114
1, 1325219, Note_on_c, 0, 59, 62
1, 1325231, Control_c, 0, 64, 84
1, 1325246, Control_c, 0, 64, 68
1, 1325261, Control_c, 0, 64, 63
1, 1325276, Control_c, 0, 64, 68
1, 1325290, Control_c, 0, 64, 75
1, 1325303, Note_off_c, 0, 70, 62
1, 1325305, Control_c, 0, 64, 88
1, 1325320, Control_c, 0, 64, 127
1, 1325353, Note_off_c, 0, 71, 62
1, 1325359, Note_off_c, 0, 73, 61
1, 1325368, Note_off_c, 0, 59, 55
1, 1325368, Note_off_c, 0, 82, 63
1, 1325387, Note_off_c, 0, 61, 0
1, 1325413, Poly_aftertouch_c, 0, 61, 0
1, 1325436, Note_on_c, 0, 68, 85
1, 1325440, Note_on_c, 0, 80, 94
1, 1325442, Note_on_c, 0, 61, 16
1, 1325444, Note_on_c, 0, 59, 57
1, 1325446, Note_on_c, 0, 71, 85
1, 1325450, Note_on_c, 0, 73, 93
1, 1325457, Note_off_c, 0, 68, 68
1, 1325468, Note_off_c, 0, 71, 69
1, 1325477, Note_off_c, 0, 73, 60
1, 1325480, Note_off_c, 0, 61, 61
1, 1325484, Note_off_c, 0, 59, 62
1, 1325495, Note_off_c, 0, 80, 61
1, 1325661, Control_c, 0, 64, 94
1, 1325663, Note_on_c, 0, 73, 75
1, 1325666, Note_on_c, 0, 65, 82
1, 1325667, Note_on_c, 0, 71, 51
1, 1325670, Note_on_c, 0, 77, 86
1, 1325675, Note_on_c, 0, 56, 84
1, 1325675, Note_on_c, 0, 68, 79
1, 1325676, Control_c, 0, 64, 72
1, 1325680, Note_on_c, 0, 59, 63
1, 1325681, Note_on_c, 0, 61, 71
1, 1325691, Control_c, 0, 64, 63
1, 1325705, Note_off_c, 0, 59, 66
1, 1325705, Control_c, 0, 64, 66
1, 1325711, Note_off_c, 0, 65, 62
1, 1325718, Note_off_c, 0, 61, 62
1, 1325720, Control_c, 0, 64, 74
1, 1325735, Note_off_c, 0, 71, 64
1, 1325735, Control_c, 0, 64, 87
1, 1325739, Note_off_c, 0, 56, 67
1, 1325750, Control_c, 0, 64, 127
1, 1325752, Note_off_c, 0, 73, 63
1, 1325760, Note_off_c, 0, 68, 63
1, 1325761, Note_off_c, 0, 77, 63
1, 1325911, Note_on_c, 0, 68, 79
1, 1325913, Note_on_c, 0, 56, 37
1, 1325913, Note_on_c, 0, 61, 88
1, 1325914, Note_on_c, 0, 73, 90
1, 1325916, Note_on_c, 0, 65, 81
1, 1325919, Note_on_c, 0, 53, 73
1, 1325927, Note_on_c, 0, 59, 70
1, 1325942, Note_off_c, 0, 65, 63
1, 1325950, Note_off_c, 0, 61, 65
1, 1325956, Note_off_c, 0, 59, 64
1, 1325964, Note_off_c, 0, 53, 64
1, 1325964, Poly_aftertouch_c, 0, 71, 127
1, 1325970, Note_off_c, 0, 68, 63
1, 1325980, Note_off_c, 0, 56, 65
1, 1325992, Poly_aftertouch_c, 0, 71, 0
1, 1325998, Note_off_c, 0, 73, 64
1, 1326262, Note_on_c, 0, 85, 100
1, 1326264, Note_on_c, 0, 73, 97
1, 1326270, Note_on_c, 0, 78, 83
1, 1326270, Note_on_c, 0, 82, 78
1, 1326276, Note_on_c, 0, 42, 102
1, 1326276, Control_c, 0, 64, 87
1, 1326278, Note_on_c, 0, 30, 93
1, 1326291, Control_c, 0, 64, 57
1, 1326305, Control_c, 0, 64, 0
1, 1326320, Control_c, 0, 64, 38
1, 1326336, Control_c, 0, 64, 69
1, 1326351, Control_c, 0, 64, 94
1, 1326366, Control_c, 0, 64, 127
1, 1326424, Note_off_c, 0, 85, 65
1, 1326459, Note_off_c, 0, 73, 59
1, 1326465, Note_off_c, 0, 30, 63
1, 1326476, Note_off_c, 0, 82, 62
1, 1326481, Note_on_c, 0, 31, 4
1, 1326486, Note_off_c, 0, 42, 60
1, 1326488, Note_off_c, 0, 78, 61
1, 1326539, Note_off_c, 0, 31, 49
1, 1326804, Note_on_c, 0, 82, 100
1, 1326805, Note_on_c, 0, 70, 96
1, 1326807, Note_on_c, 0, 77, 73
1, 1326811, Note_on_c, 0, 73, 87
1, 1326813, Note_on_c, 0, 46, 90
1, 1326827, Note_on_c, 0, 34, 57
1, 1326828, Note_off_c, 0, 34, 127
1, 1326832, Control_c, 0, 64, 103
1, 1326835, Note_on_c, 0, 35, 78
1, 1326847, Control_c, 0, 64, 66
1, 1326861, Control_c, 0, 64, 0
1, 1326906, Control_c, 0, 64, 56
1, 1326921, Control_c, 0, 64, 75
1, 1326936, Control_c, 0, 64, 113
1, 1326950, Note_off_c, 0, 35, 61
1, 1326951, Control_c, 0, 64, 127
1, 1326975, Note_off_c, 0, 70, 61
1, 1326976, Note_off_c, 0, 82, 62
1, 1326986, Note_off_c, 0, 46, 60
1, 1326987, Poly_aftertouch_c, 0, 41, 127
1, 1326993, Note_on_c, 0, 41, 2
1, 1327004, Note_off_c, 0, 77, 60
1, 1327012, Note_off_c, 0, 73, 60
1, 1327034, Note_off_c, 0, 41, 48
1, 1327330, Note_on_c, 0, 70, 82
1, 1327331, Note_on_c, 0, 66, 92
1, 1327331, Note_on_c, 0, 75, 82
1, 1327332, Note_on_c, 0, 78, 88
1, 1327335, Note_on_c, 0, 51, 91
1, 1327339, Note_on_c, 0, 39, 81
1, 1327344, Control_c, 0, 64, 96
1, 1327359, Control_c, 0, 64, 65
1, 1327374, Control_c, 0, 64, 0
1, 1327433, Control_c, 0, 64, 60
1, 1327448, Control_c, 0, 64, 81
1, 1327463, Control_c, 0, 64, 127
1, 1327542, Note_off_c, 0, 70, 57
1, 1327554, Note_off_c, 0, 39, 60
1, 1327572, Note_off_c, 0, 78, 60
1, 1327583, Note_off_c, 0, 66, 63
1, 1327587, Note_off_c, 0, 75, 59
1, 1327609, Note_off_c, 0, 51, 62
1, 1327848, Control_c, 0, 64, 90
1, 1327853, Note_on_c, 0, 77, 92
1, 1327859, Note_on_c, 0, 53, 89
1, 1327860, Note_on_c, 0, 68, 78
1, 1327860, Note_on_c, 0, 65, 84
1, 1327862, Note_on_c, 0, 41, 83
1, 1327863, Control_c, 0, 64, 66
1, 1327868, Note_on_c, 0, 72, 69
1, 1327878, Control_c, 0, 64, 0
1, 1327881, Note_off_c, 0, 53, 71
1, 1327893, Control_c, 0, 64, 29
1, 1327908, Control_c, 0, 64, 65
1, 1327917, Note_off_c, 0, 41, 62
1, 1327923, Control_c, 0, 64, 75
1, 1327938, Control_c, 0, 64, 92
1, 1327953, Control_c, 0, 64, 127
1, 1328094, Control_c, 0, 64, 94
1, 1328108, Control_c, 0, 64, 0
1, 1328125, Note_on_c, 0, 32, 86
1, 1328154, Note_off_c, 0, 65, 62
1, 1328160, Note_off_c, 0, 77, 60
1, 1328168, Control_c, 0, 64, 58
1, 1328182, Control_c, 0, 64, 80
1, 1328197, Control_c, 0, 64, 127
1, 1328202, Note_off_c, 0, 72, 59
1, 1328206, Note_off_c, 0, 68, 62
1, 1328216, Poly_aftertouch_c, 0, 34, 127
1, 1328218, Note_on_c, 0, 44, 91
1, 1328218, Note_off_c, 0, 32, 63
1, 1328245, Note_off_c, 0, 44, 67
1, 1328254, Poly_aftertouch_c, 0, 34, 0
1, 1328528, Note_on_c, 0, 75, 87
1, 1328529, Note_on_c, 0, 63, 89
1, 1328531, Note_on_c, 0, 68, 74
1, 1328533, Note_on_c, 0, 73, 82
1, 1328537, Note_on_c, 0, 61, 90
1, 1328537, Note_on_c, 0, 56, 80
1, 1328540, Note_on_c, 0, 51, 84
1, 1329017, Note_off_c, 0, 61, 61
1, 1329089, Note_off_c, 0, 51, 37
1, 1329097, Note_off_c, 0, 56, 59
1, 1329116, Note_off_c, 0, 63, 49
1, 1329199, Note_off_c, 0, 68, 55
1, 1329359, Note_off_c, 0, 73, 37
1, 1329405, Note_on_c, 0, 32, 76
1, 1329405, Control_c, 0, 64, 97
1, 1329420, Control_c, 0, 64, 74
1, 1329435, Control_c, 0, 64, 61
1, 1329449, Control_c, 0, 64, 65
1, 1329464, Control_c, 0, 64, 71
1, 1329475, Note_on_c, 0, 44, 81
1, 1329478, Note_off_c, 0, 32, 63
1, 1329479, Control_c, 0, 64, 81
1, 1329494, Control_c, 0, 64, 104
1, 1329502, Note_off_c, 0, 75, 38
1, 1329505, Note_off_c, 0, 44, 67
1, 1329509, Control_c, 0, 64, 127
1, 1329614, Note_on_c, 0, 75, 88
1, 1329622, Control_c, 0, 64, 106
1, 1329623, Note_on_c, 0, 63, 91
1, 1329623, Note_on_c, 0, 68, 84
1, 1329626, Note_on_c, 0, 72, 73
1, 1329636, Control_c, 0, 64, 69
1, 1329639, Note_on_c, 0, 51, 74
1, 1329640, Note_on_c, 0, 60, 73
1, 1329651, Control_c, 0, 64, 0
1, 1329692, Note_on_c, 0, 55, 27
1, 1329695, Control_c, 0, 64, 58
1, 1329696, Note_on_c, 0, 56, 24
1, 1329710, Control_c, 0, 64, 72
1, 1329725, Control_c, 0, 64, 100
1, 1329726, Note_off_c, 0, 55, 49
1, 1329740, Control_c, 0, 64, 127
1, 1329773, Poly_aftertouch_c, 0, 54, 127
1, 1329790, Note_off_c, 0, 63, 60
1, 1329830, Note_off_c, 0, 75, 61
1, 1329965, Note_off_c, 0, 60, 57
1, 1330060, Note_off_c, 0, 51, 58
1, 1330062, Note_off_c, 0, 56, 50
1, 1330087, Poly_aftertouch_c, 0, 54, 0
1, 1330140, Note_on_c, 0, 77, 86
1, 1330150, Note_on_c, 0, 65, 78
1, 1330197, Control_c, 0, 64, 92
1, 1330212, Control_c, 0, 64, 77
1, 1330227, Control_c, 0, 64, 72
1, 1330242, Control_c, 0, 64, 77
1, 1330257, Control_c, 0, 64, 89
1, 1330272, Control_c, 0, 64, 127
1, 1330379, Note_on_c, 0, 25, 75
1, 1330382, Note_off_c, 0, 77, 59
1, 1330384, Control_c, 0, 64, 97
1, 1330393, Note_off_c, 0, 65, 61
1, 1330399, Control_c, 0, 64, 75
1, 1330414, Control_c, 0, 64, 60
1, 1330426, Note_off_c, 0, 72, 59
1, 1330428, Control_c, 0, 64, 60
1, 1330443, Control_c, 0, 64, 67
1, 1330444, Note_off_c, 0, 68, 59
1, 1330458, Control_c, 0, 64, 76
1, 1330471, Note_on_c, 0, 37, 71
1, 1330473, Control_c, 0, 64, 94
1, 1330475, Note_off_c, 0, 25, 61
1, 1330488, Control_c, 0, 64, 127
1, 1330498, Note_off_c, 0, 37, 65
1, 1330725, Note_on_c, 0, 53, 70
1, 1330725, Note_on_c, 0, 68, 52
1, 1330725, Note_on_c, 0, 73, 69
1, 1330730, Note_on_c, 0, 41, 66
1, 1330745, Note_on_c, 0, 61, 50
1, 1330747, Note_on_c, 0, 65, 43
1, 1330784, Control_c, 0, 64, 88
1, 1330799, Control_c, 0, 64, 68
1, 1330814, Control_c, 0, 64, 0
1, 1330903, Control_c, 0, 64, 58
1, 1330918, Control_c, 0, 64, 67
1, 1330933, Control_c, 0, 64, 74
1, 1330947, Control_c, 0, 64, 82
1, 1330962, Control_c, 0, 64, 98
1, 1330977, Control_c, 0, 64, 127
1, 1330996, Note_off_c, 0, 53, 65
1, 1331227, Note_on_c, 0, 51, 69
1, 1331237, Note_on_c, 0, 39, 60
1, 1331248, Note_off_c, 0, 73, 59
1, 1331282, Control_c, 0, 64, 105
1, 1331297, Control_c, 0, 64, 82
1, 1331299, Note_off_c, 0, 61, 55
1, 1331300, Note_off_c, 0, 41, 49
1, 1331312, Control_c, 0, 64, 68
1, 1331326, Control_c, 0, 64, 59
1, 1331331, Note_off_c, 0, 65, 58
1, 1331341, Control_c, 0, 64, 63
1, 1331349, Note_off_c, 0, 68, 56
1, 1331356, Control_c, 0, 64, 67
1, 1331371, Control_c, 0, 64, 72
1, 1331386, Control_c, 0, 64, 80
1, 1331400, Control_c, 0, 64, 92
1, 1331415, Control_c, 0, 64, 110
1, 1331430, Control_c, 0, 64, 127
1, 1331445, Note_off_c, 0, 51, 62
1, 1331726, Note_on_c, 0, 65, 66
1, 1331729, Note_on_c, 0, 37, 49
1, 1331736, Note_on_c, 0, 49, 46
1, 1331741, Note_on_c, 0, 61, 47
1, 1331741, Control_c, 0, 64, 106
1, 1331747, Note_on_c, 0, 56, 44
1, 1331756, Control_c, 0, 64, 83
1, 1331768, Note_off_c, 0, 39, 49
1, 1331770, Control_c, 0, 64, 66
1, 1331785, Control_c, 0, 64, 0
1, 1331822, Control_c, 0, 64, 26
1, 1331829, Note_off_c, 0, 61, 52
1, 1331837, Control_c, 0, 64, 54
1, 1331851, Control_c, 0, 64, 64
1, 1331866, Control_c, 0, 64, 70
1, 1331881, Control_c, 0, 64, 77
1, 1331896, Control_c, 0, 64, 86
1, 1331911, Control_c, 0, 64, 98
1, 1331927, Control_c, 0, 64, 110
1, 1331942, Control_c, 0, 64, 127
1, 1331966, Note_off_c, 0, 49, 62
1, 1331991, Note_off_c, 0, 56, 60
1, 1332203, Note_on_c, 0, 32, 54
1, 1332210, Note_on_c, 0, 63, 67
1, 1332212, Note_on_c, 0, 44, 54
1, 1332220, Note_on_c, 0, 60, 45
1, 1332223, Control_c, 0, 64, 89
1, 1332238, Note_on_c, 0, 54, 46
1, 1332238, Control_c, 0, 64, 71
1, 1332246, Note_off_c, 0, 37, 54
1, 1332253, Control_c, 0, 64, 53
1, 1332268, Control_c, 0, 64, 28
1, 1332282, Control_c, 0, 64, 44
1, 1332297, Control_c, 0, 64, 61
1, 1332311, Note_off_c, 0, 60, 53
1, 1332312, Control_c, 0, 64, 67
1, 1332327, Control_c, 0, 64, 76
1, 1332334, Note_off_c, 0, 65, 35
1, 1332342, Control_c, 0, 64, 88
1, 1332356, Control_c, 0, 64, 110
1, 1332371, Control_c, 0, 64, 127
1, 1332373, Note_off_c, 0, 32, 61
1, 1332385, Note_off_c, 0, 44, 63
1, 1332452, Note_off_c, 0, 54, 58
1, 1332705, Note_on_c, 0, 44, 66
1, 1332716, Note_on_c, 0, 56, 66
1, 1332719, Note_on_c, 0, 61, 60
1, 1332725, Note_on_c, 0, 53, 49
1, 1332750, Control_c, 0, 64, 106
1, 1332765, Control_c, 0, 64, 78
1, 1332779, Control_c, 0, 64, 64
1, 1332794, Control_c, 0, 64, 35
1, 1332809, Control_c, 0, 64, 34
1, 1332823, Control_c, 0, 64, 50
1, 1332838, Control_c, 0, 64, 62
1, 1332850, Note_off_c, 0, 53, 66
1, 1332853, Control_c, 0, 64, 69
1, 1332868, Control_c, 0, 64, 76
1, 1332883, Control_c, 0, 64, 86
1, 1332898, Control_c, 0, 64, 101
1, 1332913, Control_c, 0, 64, 127
1, 1332917, Note_off_c, 0, 56, 63
1, 1333175, Note_on_c, 0, 42, 63
1, 1333179, Note_on_c, 0, 56, 64
1, 1333188, Note_on_c, 0, 54, 57
1, 1333201, Note_off_c, 0, 44, 60
1, 1333209, Control_c, 0, 64, 88
1, 1333218, Note_off_c, 0, 63, 42
1, 1333223, Control_c, 0, 64, 70
1, 1333238, Control_c, 0, 64, 38
1, 1333253, Control_c, 0, 64, 35
1, 1333268, Control_c, 0, 64, 55
1, 1333283, Control_c, 0, 64, 64
1, 1333286, Note_off_c, 0, 56, 60
1, 1333305, Control_c, 0, 64, 70
1, 1333320, Control_c, 0, 64, 78
1, 1333324, Note_off_c, 0, 61, 59
1, 1333335, Control_c, 0, 64, 93
1, 1333349, Control_c, 0, 64, 112
1, 1333364, Control_c, 0, 64, 127
1, 1333428, Note_off_c, 0, 54, 57
1, 1333686, Note_on_c, 0, 68, 75
1, 1333694, Note_on_c, 0, 41, 52
1, 1333702, Note_on_c, 0, 53, 42
1, 1333714, Note_off_c, 0, 42, 53
1, 1333730, Note_on_c, 0, 56, 36
1, 1333735, Control_c, 0, 64, 92
1, 1333743, Note_on_c, 0, 61, 26
1, 1333750, Control_c, 0, 64, 75
1, 1333765, Control_c, 0, 64, 64
1, 1333780, Control_c, 0, 64, 59
1, 1333795, Control_c, 0, 64, 62
1, 1333810, Control_c, 0, 64, 67
1, 1333822, Note_off_c, 0, 61, 0
1, 1333825, Control_c, 0, 64, 72
1, 1333840, Control_c, 0, 64, 81
1, 1333854, Control_c, 0, 64, 95
1, 1333858, Poly_aftertouch_c, 0, 61, 127
1, 1333868, Note_off_c, 0, 53, 65
1, 1333869, Control_c, 0, 64, 127
1, 1333926, Note_off_c, 0, 41, 60
1, 1333941, Note_off_c, 0, 56, 62
1, 1333956, Poly_aftertouch_c, 0, 61, 0
1, 1334174, Note_on_c, 0, 66, 66
1, 1334191, Note_on_c, 0, 37, 52
1, 1334191, Note_on_c, 0, 49, 53
1, 1334198, Note_on_c, 0, 58, 43
1, 1334208, Note_on_c, 0, 61, 54
1, 1334217, Control_c, 0, 64, 95
1, 1334232, Control_c, 0, 64, 76
1, 1334246, Control_c, 0, 64, 64
1, 1334261, Control_c, 0, 64, 53
1, 1334276, Control_c, 0, 64, 58
1, 1334291, Control_c, 0, 64, 65
1, 1334306, Control_c, 0, 64, 71
1, 1334322, Control_c, 0, 64, 80
1, 1334337, Control_c, 0, 64, 96
1, 1334351, Control_c, 0, 64, 127
1, 1334353, Note_off_c, 0, 68, 57
1, 1334397, Note_off_c, 0, 49, 62
1, 1334425, Note_off_c, 0, 37, 40
1, 1334439, Note_off_c, 0, 66, 56
1, 1334440, Note_off_c, 0, 58, 37
1, 1334463, Note_off_c, 0, 61, 60
1, 1334656, Note_on_c, 0, 65, 61
1, 1334663, Note_on_c, 0, 46, 63
1, 1334668, Note_on_c, 0, 58, 62
1, 1334671, Note_on_c, 0, 53, 41
1, 1334681, Note_on_c, 0, 61, 47
1, 1334691, Control_c, 0, 64, 107
1, 1334706, Control_c, 0, 64, 84
1, 1334721, Control_c, 0, 64, 68
1, 1334736, Control_c, 0, 64, 53
1, 1334750, Control_c, 0, 64, 45
1, 1334765, Control_c, 0, 64, 52
1, 1334780, Control_c, 0, 64, 61
1, 1334802, Control_c, 0, 64, 66
1, 1334817, Control_c, 0, 64, 72
1, 1334832, Control_c, 0, 64, 79
1, 1334847, Control_c, 0, 64, 88
1, 1334862, Control_c, 0, 64, 101
1, 1334869, Note_off_c, 0, 58, 63
1, 1334876, Control_c, 0, 64, 116
1, 1334891, Control_c, 0, 64, 127
1, 1334898, Note_off_c, 0, 53, 38
1, 1334904, Note_off_c, 0, 61, 61
1, 1335136, Note_on_c, 0, 58, 65
1, 1335137, Note_on_c, 0, 61, 63
1, 1335145, Note_on_c, 0, 44, 62
1, 1335163, Note_on_c, 0, 56, 54
1, 1335167, Note_off_c, 0, 46, 51
1, 1335173, Control_c, 0, 64, 101
1, 1335188, Control_c, 0, 64, 82
1, 1335203, Control_c, 0, 64, 70
1, 1335213, Note_off_c, 0, 65, 57
1, 1335217, Control_c, 0, 64, 65
1, 1335232, Control_c, 0, 64, 67
1, 1335247, Control_c, 0, 64, 71
1, 1335262, Control_c, 0, 64, 78
1, 1335277, Control_c, 0, 64, 87
1, 1335291, Control_c, 0, 64, 101
1, 1335299, Note_off_c, 0, 58, 58
1, 1335306, Control_c, 0, 64, 127
1, 1335315, Note_off_c, 0, 56, 62
1, 1335330, Note_off_c, 0, 61, 61
1, 1335635, Note_on_c, 0, 42, 44
1, 1335637, Note_on_c, 0, 54, 46
1, 1335643, Note_on_c, 0, 70, 79
1, 1335670, Control_c, 0, 64, 101
1, 1335674, Note_on_c, 0, 58, 48
1, 1335678, Note_on_c, 0, 61, 51
1, 1335685, Control_c, 0, 64, 81
1, 1335699, Control_c, 0, 64, 67
1, 1335712, Note_off_c, 0, 44, 62
1, 1335714, Control_c, 0, 64, 55
1, 1335729, Control_c, 0, 64, 55
1, 1335743, Control_c, 0, 64, 62
1, 1335758, Control_c, 0, 64, 66
1, 1335773, Control_c, 0, 64, 71
1, 1335788, Control_c, 0, 64, 79
1, 1335803, Control_c, 0, 64, 92
1, 1335817, Control_c, 0, 64, 107
1, 1335832, Control_c, 0, 64, 127
1, 1335878, Note_off_c, 0, 70, 61
1, 1335879, Note_off_c, 0, 54, 63
1, 1335879, Note_off_c, 0, 42, 61
1, 1335884, Note_off_c, 0, 58, 52
1, 1336047, Note_off_c, 0, 61, 25
1, 1336110, Note_on_c, 0, 68, 78
1, 1336123, Note_on_c, 0, 53, 46
1, 1336129, Control_c, 0, 64, 107
1, 1336130, Note_on_c, 0, 41, 48
1, 1336133, Note_on_c, 0, 56, 53
1, 1336134, Note_on_c, 0, 61, 36
1, 1336144, Control_c, 0, 64, 84
1, 1336159, Control_c, 0, 64, 69
1, 1336173, Control_c, 0, 64, 59
1, 1336188, Control_c, 0, 64, 57
1, 1336203, Control_c, 0, 64, 62
1, 1336218, Control_c, 0, 64, 66
1, 1336233, Control_c, 0, 64, 71
1, 1336247, Control_c, 0, 64, 80
1, 1336262, Control_c, 0, 64, 92
1, 1336277, Control_c, 0, 64, 121
1, 1336299, Control_c, 0, 64, 127
1, 1336302, Note_off_c, 0, 53, 64
1, 1336332, Note_off_c, 0, 56, 61
1, 1336361, Note_off_c, 0, 61, 51
1, 1336369, Note_off_c, 0, 41, 58
1, 1336616, Note_on_c, 0, 66, 63
1, 1336632, Note_on_c, 0, 49, 54
1, 1336632, Note_on_c, 0, 58, 34
1, 1336635, Note_on_c, 0, 37, 51
1, 1336651, Note_on_c, 0, 61, 46
1, 1336670, Control_c, 0, 64, 101
1, 1336685, Control_c, 0, 64, 81
1, 1336700, Control_c, 0, 64, 65
1, 1336716, Control_c, 0, 64, 0
1, 1336804, Control_c, 0, 64, 30
1, 1336819, Control_c, 0, 64, 58
1, 1336832, Note_off_c, 0, 68, 59
1, 1336834, Control_c, 0, 64, 65
1, 1336844, Note_off_c, 0, 58, 41
1, 1336849, Control_c, 0, 64, 69
1, 1336863, Control_c, 0, 64, 74
1, 1336878, Control_c, 0, 64, 82
1, 1336893, Control_c, 0, 64, 92
1, 1336908, Control_c, 0, 64, 107
1, 1336916, Note_off_c, 0, 66, 59
1, 1336923, Control_c, 0, 64, 127
1, 1337060, Note_off_c, 0, 49, 60
1, 1337060, Note_off_c, 0, 61, 0
1, 1337083, Note_on_c, 0, 61, 26
1, 1337101, Note_on_c, 0, 65, 71
1, 1337105, Note_on_c, 0, 56, 59
1, 1337181, Note_off_c, 0, 37, 37
1, 1337235, Note_on_c, 0, 39, 62
1, 1337235, Note_off_c, 0, 56, 51
1, 1337238, Note_on_c, 0, 51, 64
1, 1337260, Note_off_c, 0, 65, 58
1, 1337275, Note_off_c, 0, 51, 64
1, 1337278, Note_off_c, 0, 39, 61
1, 1337303, Note_off_c, 0, 61, 48
1, 1337396, Note_on_c, 0, 41, 77
1, 1337396, Note_on_c, 0, 53, 75
1, 1337423, Note_off_c, 0, 53, 68
1, 1337443, Note_off_c, 0, 41, 54
1, 1337589, Note_on_c, 0, 61, 71
1, 1337599, Note_on_c, 0, 51, 58
1, 1337603, Note_on_c, 0, 58, 61
1, 1337610, Note_on_c, 0, 39, 45
1, 1337610, Note_on_c, 0, 56, 57
1, 1337612, Control_c, 0, 64, 83
1, 1337627, Control_c, 0, 64, 63
1, 1337642, Control_c, 0, 64, 0
1, 1337731, Control_c, 0, 64, 62
1, 1337746, Control_c, 0, 64, 71
1, 1337755, Note_off_c, 0, 51, 59
1, 1337760, Control_c, 0, 64, 83
1, 1337775, Control_c, 0, 64, 100
1, 1337798, Control_c, 0, 64, 127
1, 1337869, Note_off_c, 0, 39, 40
1, 1337891, Note_off_c, 0, 56, 61
1, 1337891, Note_off_c, 0, 58, 57
1, 1338090, Note_on_c, 0, 27, 52
1, 1338100, Note_on_c, 0, 39, 47
1, 1338106, Note_on_c, 0, 58, 51
1, 1338108, Control_c, 0, 64, 118
1, 1338115, Note_on_c, 0, 55, 46
1, 1338123, Control_c, 0, 64, 87
1, 1338138, Control_c, 0, 64, 70
1, 1338153, Control_c, 0, 64, 51
1, 1338168, Control_c, 0, 64, 27
1, 1338183, Control_c, 0, 64, 35
1, 1338198, Control_c, 0, 64, 53
1, 1338212, Control_c, 0, 64, 64
1, 1338227, Control_c, 0, 64, 71
1, 1338242, Control_c, 0, 64, 80
1, 1338244, Note_on_c, 0, 63, 65
1, 1338257, Control_c, 0, 64, 94
1, 1338272, Control_c, 0, 64, 127
1, 1338329, Note_off_c, 0, 27, 61
1, 1338329, Note_off_c, 0, 39, 56
1, 1338377, Note_off_c, 0, 58, 39
1, 1338379, Note_off_c, 0, 61, 60
1, 1338386, Note_off_c, 0, 55, 62
1, 1338388, Note_on_c, 0, 65, 70
1, 1338403, Note_off_c, 0, 63, 59
1, 1338573, Note_on_c, 0, 32, 56
1, 1338574, Note_off_c, 0, 65, 61
1, 1338579, Note_on_c, 0, 44, 56
1, 1338582, Note_on_c, 0, 63, 58
1, 1338591, Control_c, 0, 64, 123
1, 1338597, Note_on_c, 0, 60, 48
1, 1338598, Note_on_c, 0, 56, 48
1, 1338606, Control_c, 0, 64, 88
1, 1338621, Control_c, 0, 64, 71
1, 1338636, Control_c, 0, 64, 56
1, 1338650, Control_c, 0, 64, 48
1, 1338665, Control_c, 0, 64, 58
1, 1338680, Control_c, 0, 64, 65
1, 1338695, Control_c, 0, 64, 73
1, 1338710, Control_c, 0, 64, 83
1, 1338724, Control_c, 0, 64, 102
1, 1338739, Control_c, 0, 64, 127
1, 1338743, Note_off_c, 0, 60, 63
1, 1338744, Note_off_c, 0, 56, 62
1, 1338801, Note_off_c, 0, 44, 63
1, 1338810, Note_off_c, 0, 32, 60
1, 1338909, Note_on_c, 0, 34, 65
1, 1338913, Note_on_c, 0, 44, 56
1, 1338934, Note_off_c, 0, 44, 64
1, 1338939, Note_off_c, 0, 34, 62
1, 1339004, Note_on_c, 0, 56, 68
1, 1339006, Control_c, 0, 64, 91
1, 1339011, Note_on_c, 0, 51, 67
1, 1339020, Control_c, 0, 64, 68
1, 1339032, Note_on_c, 0, 48, 76
1, 1339034, Note_on_c, 0, 36, 73
1, 1339035, Control_c, 0, 64, 0
1, 1339065, Control_c, 0, 64, 38
1, 1339065, Note_off_c, 0, 48, 63
1, 1339080, Control_c, 0, 64, 63
1, 1339095, Control_c, 0, 64, 71
1, 1339110, Note_off_c, 0, 36, 59
1, 1339110, Control_c, 0, 64, 85
1, 1339125, Control_c, 0, 64, 127
1, 1339152, Note_off_c, 0, 51, 63
1, 1339204, Note_off_c, 0, 56, 63
1, 1339220, Note_off_c, 0, 63, 59
1, 1339229, Note_on_c, 0, 44, 87
1, 1339230, Note_on_c, 0, 32, 79
1, 1339256, Note_off_c, 0, 44, 68
1, 1339258, Note_off_c, 0, 32, 64
1, 1339506, Note_on_c, 0, 72, 89
1, 1339515, Note_on_c, 0, 68, 79
1, 1339519, Note_on_c, 0, 44, 74
1, 1339522, Note_on_c, 0, 56, 79
1, 1339523, Note_on_c, 0, 63, 74
1, 1339562, Control_c, 0, 64, 86
1, 1339577, Control_c, 0, 64, 64
1, 1339591, Control_c, 0, 64, 0
1, 1339621, Control_c, 0, 64, 39
1, 1339636, Control_c, 0, 64, 65
1, 1339651, Control_c, 0, 64, 79
1, 1339665, Control_c, 0, 64, 105
1, 1339680, Control_c, 0, 64, 127
1, 1339742, Note_off_c, 0, 72, 58
1, 1339745, Note_off_c, 0, 63, 60
1, 1339760, Note_off_c, 0, 68, 58
1, 1339847, Note_on_c, 0, 73, 87
1, 1339850, Note_on_c, 0, 64, 73
1, 1339852, Note_on_c, 0, 68, 82
1, 1339867, Note_off_c, 0, 64, 69
1, 1339875, Note_off_c, 0, 68, 68
1, 1339890, Note_off_c, 0, 73, 60
1, 1339918, Control_c, 0, 64, 110
1, 1339933, Control_c, 0, 64, 79
1, 1339948, Control_c, 0, 64, 63
1, 1339950, Note_on_c, 0, 68, 85
1, 1339950, Note_on_c, 0, 75, 91
1, 1339953, Note_on_c, 0, 66, 87
1, 1339962, Control_c, 0, 64, 62
1, 1339977, Control_c, 0, 64, 68
1, 1339992, Control_c, 0, 64, 79
1, 1340007, Control_c, 0, 64, 100
1, 1340022, Control_c, 0, 64, 127
1, 1340079, Note_off_c, 0, 66, 59
1, 1340089, Note_off_c, 0, 75, 58
1, 1340103, Note_off_c, 0, 68, 56
1, 1340117, Note_off_c, 0, 56, 65
1, 1340154, Note_off_c, 0, 44, 61
1, 1340177, Note_on_c, 0, 64, 84
1, 1340180, Note_on_c, 0, 73, 91
1, 1340184, Note_on_c, 0, 68, 80
1, 1340197, Note_off_c, 0, 64, 72
1, 1340206, Note_off_c, 0, 68, 66
1, 1340237, Note_off_c, 0, 73, 65
1, 1340407, Note_on_c, 0, 78, 82
1, 1340413, Note_on_c, 0, 69, 69
1, 1340421, Note_on_c, 0, 72, 62
1, 1340422, Note_on_c, 0, 44, 83
1, 1340427, Note_on_c, 0, 32, 77
1, 1340444, Control_c, 0, 64, 89
1, 1340459, Control_c, 0, 64, 66
1, 1340474, Control_c, 0, 64, 38
1, 1340488, Control_c, 0, 64, 54
1, 1340502, Note_off_c, 0, 69, 59
1, 1340503, Control_c, 0, 64, 65
1, 1340518, Control_c, 0, 64, 72
1, 1340532, Control_c, 0, 64, 86
1, 1340547, Control_c, 0, 64, 127
1, 1340562, Note_off_c, 0, 72, 59
1, 1340587, Note_off_c, 0, 78, 59
1, 1340629, Note_on_c, 0, 68, 85
1, 1340630, Note_on_c, 0, 76, 83
1, 1340632, Note_on_c, 0, 72, 71
1, 1340633, Note_off_c, 0, 44, 62
1, 1340634, Note_off_c, 0, 32, 58
1, 1340669, Note_off_c, 0, 72, 63
1, 1340675, Note_off_c, 0, 76, 62
1, 1340681, Note_off_c, 0, 68, 60
1, 1340729, Note_on_c, 0, 44, 88
1, 1340735, Note_on_c, 0, 32, 80
1, 1340773, Note_off_c, 0, 32, 62
1, 1340785, Note_off_c, 0, 44, 61
1, 1340837, Control_c, 0, 64, 101
1, 1340852, Control_c, 0, 64, 84
1, 1340856, Note_on_c, 0, 75, 86
1, 1340865, Note_on_c, 0, 68, 46
1, 1340866, Note_on_c, 0, 66, 85
1, 1340867, Control_c, 0, 64, 84
1, 1340868, Note_on_c, 0, 32, 84
1, 1340869, Note_on_c, 0, 44, 87
1, 1340882, Control_c, 0, 64, 95
1, 1340897, Control_c, 0, 64, 127
1, 1340921, Note_off_c, 0, 32, 64
1, 1340922, Note_off_c, 0, 44, 62
1, 1340973, Note_off_c, 0, 75, 63
1, 1340978, Note_off_c, 0, 66, 60
1, 1341018, Note_on_c, 0, 45, 95
1, 1341018, Note_on_c, 0, 33, 87
1, 1341030, Note_off_c, 0, 68, 57
1, 1341030, Control_c, 0, 64, 100
1, 1341044, Control_c, 0, 64, 72
1, 1341059, Control_c, 0, 64, 61
1, 1341072, Note_off_c, 0, 45, 63
1, 1341074, Control_c, 0, 64, 66
1, 1341077, Note_off_c, 0, 33, 59
1, 1341079, Note_on_c, 0, 68, 71
1, 1341082, Note_on_c, 0, 63, 91
1, 1341082, Note_on_c, 0, 72, 89
1, 1341089, Control_c, 0, 64, 75
1, 1341104, Control_c, 0, 64, 91
1, 1341119, Control_c, 0, 64, 127
1, 1341128, Note_off_c, 0, 63, 62
1, 1341143, Note_off_c, 0, 68, 59
1, 1341145, Note_off_c, 0, 72, 64
1, 1341173, Note_on_c, 0, 44, 92
1, 1341176, Note_on_c, 0, 32, 84
1, 1341211, Note_off_c, 0, 32, 66
1, 1341214, Note_off_c, 0, 44, 67
1, 1341311, Control_c, 0, 64, 90
1, 1341326, Control_c, 0, 64, 42
1, 1341334, Note_on_c, 0, 69, 82
1, 1341336, Note_on_c, 0, 73, 89
1, 1341339, Note_on_c, 0, 64, 85
1, 1341341, Control_c, 0, 64, 0
1, 1341345, Note_on_c, 0, 43, 89
1, 1341346, Note_on_c, 0, 31, 87
1, 1341415, Control_c, 0, 64, 62
1, 1341429, Control_c, 0, 64, 81
1, 1341444, Control_c, 0, 64, 127
1, 1341453, Note_off_c, 0, 64, 64
1, 1341475, Note_off_c, 0, 69, 61
1, 1341501, Note_off_c, 0, 73, 63
1, 1341507, Note_off_c, 0, 31, 62
1, 1341524, Note_off_c, 0, 43, 63
1, 1341662, Note_on_c, 0, 69, 68
1, 1341664, Note_on_c, 0, 75, 75
1, 1341670, Note_on_c, 0, 73, 53
1, 1341688, Note_off_c, 0, 69, 65
1, 1341701, Note_off_c, 0, 73, 50
1, 1341766, Note_on_c, 0, 57, 86
1, 1341770, Note_on_c, 0, 76, 94
1, 1341772, Note_on_c, 0, 69, 83
1, 1341779, Control_c, 0, 64, 91
1, 1341793, Control_c, 0, 64, 63
1, 1341808, Control_c, 0, 64, 0
1, 1341823, Control_c, 0, 64, 56
1, 1341838, Control_c, 0, 64, 69
1, 1341853, Control_c, 0, 64, 83
1, 1341867, Control_c, 0, 64, 127
1, 1341877, Note_off_c, 0, 69, 57
1, 1341906, Note_on_c, 0, 59, 83
1, 1341918, Note_off_c, 0, 57, 62
1, 1341963, Note_on_c, 0, 78, 88
1, 1341965, Note_off_c, 0, 59, 60
1, 1341966, Note_on_c, 0, 69, 81
1, 1341966, Note_off_c, 0, 75, 42
1, 1341967, Note_on_c, 0, 73, 84
1, 1342001, Note_off_c, 0, 76, 55
1, 1342040, Note_on_c, 0, 57, 82
1, 1342059, Note_off_c, 0, 69, 57
1, 1342059, Note_off_c, 0, 73, 56
1, 1342061, Note_off_c, 0, 78, 63
1, 1342085, Note_off_c, 0, 57, 63
1, 1342156, Note_on_c, 0, 81, 96
1, 1342162, Note_on_c, 0, 73, 85
1, 1342164, Control_c, 0, 64, 96
1, 1342168, Note_on_c, 0, 69, 73
1, 1342172, Note_on_c, 0, 57, 85
1, 1342178, Control_c, 0, 64, 72
1, 1342193, Control_c, 0, 64, 61
1, 1342198, Note_off_c, 0, 57, 66
1, 1342208, Control_c, 0, 64, 64
1, 1342223, Control_c, 0, 64, 71
1, 1342238, Control_c, 0, 64, 82
1, 1342252, Control_c, 0, 64, 107
1, 1342267, Control_c, 0, 64, 127
1, 1342295, Note_off_c, 0, 69, 59
1, 1342299, Note_off_c, 0, 73, 61
1, 1342311, Note_off_c, 0, 81, 62
1, 1342395, Note_on_c, 0, 69, 82
1, 1342395, Note_on_c, 0, 81, 81
1, 1342398, Note_on_c, 0, 73, 84
1, 1342400, Note_on_c, 0, 79, 82
1, 1342413, Note_off_c, 0, 69, 68
1, 1342419, Note_off_c, 0, 73, 71
1, 1342425, Note_off_c, 0, 81, 63
1, 1342443, Note_off_c, 0, 79, 59
1, 1342505, Note_on_c, 0, 31, 86
1, 1342507, Note_on_c, 0, 43, 87
1, 1342538, Note_off_c, 0, 43, 64
1, 1342552, Note_off_c, 0, 31, 59
1, 1342572, Control_c, 0, 64, 88
1, 1342587, Control_c, 0, 64, 73
1, 1342602, Control_c, 0, 64, 71
1, 1342605, Note_on_c, 0, 76, 90
1, 1342606, Note_on_c, 0, 73, 74
1, 1342611, Note_on_c, 0, 69, 62
1, 1342616, Control_c, 0, 64, 80
1, 1342621, Note_on_c, 0, 43, 85
1, 1342623, Note_on_c, 0, 31, 83
1, 1342631, Control_c, 0, 64, 99
1, 1342646, Control_c, 0, 64, 127
1, 1342657, Note_off_c, 0, 43, 57
1, 1342663, Note_off_c, 0, 31, 60
1, 1342748, Note_off_c, 0, 76, 61
1, 1342750, Note_on_c, 0, 45, 93
1, 1342753, Note_on_c, 0, 33, 92
1, 1342758, Note_off_c, 0, 69, 58
1, 1342764, Note_off_c, 0, 73, 58
1, 1342764, Control_c, 0, 64, 98
1, 1342779, Control_c, 0, 64, 86
1, 1342785, Note_off_c, 0, 45, 61
1, 1342794, Control_c, 0, 64, 89
1, 1342797, Note_off_c, 0, 33, 59
1, 1342809, Control_c, 0, 64, 110
1, 1342820, Note_on_c, 0, 73, 85
1, 1342823, Note_on_c, 0, 64, 83
1, 1342824, Control_c, 0, 64, 127
1, 1342826, Note_on_c, 0, 69, 75
1, 1342844, Note_off_c, 0, 64, 72
1, 1342866, Note_off_c, 0, 69, 60
1, 1342893, Note_off_c, 0, 73, 65
1, 1342908, Note_on_c, 0, 31, 83
1, 1342910, Note_on_c, 0, 43, 78
1, 1342929, Note_off_c, 0, 43, 65
1, 1342934, Note_off_c, 0, 31, 67
1, 1343054, Control_c, 0, 64, 83
1, 1343069, Control_c, 0, 64, 54
1, 1343083, Control_c, 0, 64, 0
1, 1343143, Control_c, 0, 67, 9
1, 1343158, Control_c, 0, 67, 13
1, 1343173, Control_c, 0, 67, 17
1, 1343188, Control_c, 0, 67, 22
1, 1343203, Control_c, 0, 67, 27
1, 1343218, Control_c, 0, 67, 34
1, 1343232, Control_c, 0, 67, 40
1, 1343234, Note_on_c, 0, 30, 34
1, 1343240, Note_on_c, 0, 42, 28
1, 1343247, Control_c, 0, 67, 47
1, 1343262, Control_c, 0, 67, 56
1, 1343277, Control_c, 0, 67, 66
1, 1343292, Control_c, 0, 67, 76
1, 1343306, Control_c, 0, 67, 86
1, 1343321, Control_c, 0, 67, 96
1, 1343336, Control_c, 0, 67, 107
1, 1343351, Control_c, 0, 67, 119
1, 1343366, Control_c, 0, 67, 127
1, 1343381, Control_c, 0, 64, 32
1, 1343396, Control_c, 0, 64, 61
1, 1343411, Control_c, 0, 64, 67
1, 1343426, Control_c, 0, 64, 71
1, 1343440, Control_c, 0, 64, 76
1, 1343446, Note_on_c, 0, 82, 56
1, 1343455, Control_c, 0, 64, 82
1, 1343459, Note_off_c, 0, 30, 55
1, 1343465, Note_on_c, 0, 73, 40
1, 1343470, Control_c, 0, 64, 89
1, 1343471, Note_on_c, 0, 76, 42
1, 1343485, Control_c, 0, 64, 98
1, 1343500, Control_c, 0, 64, 109
1, 1343514, Control_c, 0, 64, 126
1, 1343522, Note_off_c, 0, 42, 41
1, 1343529, Control_c, 0, 64, 127
1, 1343545, Note_off_c, 0, 82, 56
1, 1343551, Note_off_c, 0, 73, 39
1, 1343573, Note_off_c, 0, 76, 52
1, 1343674, Note_on_c, 0, 42, 30
1, 1343828, Note_off_c, 0, 42, 45
1, 1343835, Note_on_c, 0, 44, 40
1, 1343908, Note_on_c, 0, 76, 58
1, 1343917, Note_on_c, 0, 70, 44
1, 1343921, Note_on_c, 0, 73, 50
1, 1343969, Note_off_c, 0, 70, 54
1, 1343980, Note_off_c, 0, 44, 32
1, 1343981, Note_on_c, 0, 42, 43
1, 1344001, Note_off_c, 0, 76, 58
1, 1344016, Note_off_c, 0, 42, 60
1, 1344022, Note_off_c, 0, 73, 58
1, 1344113, Note_on_c, 0, 42, 52
1, 1344348, Note_off_c, 0, 42, 52
1, 1344373, Note_on_c, 0, 73, 60
1, 1344381, Note_on_c, 0, 70, 45
1, 1344384, Note_on_c, 0, 64, 33
1, 1344431, Note_off_c, 0, 64, 47
1, 1344484, Note_off_c, 0, 73, 59
1, 1344487, Note_off_c, 0, 70, 60
1, 1344608, Note_on_c, 0, 42, 39
1, 1344740, Note_off_c, 0, 42, 0
1, 1344756, Note_on_c, 0, 44, 41
1, 1344768, Poly_aftertouch_c, 0, 42, 0
1, 1344840, Note_on_c, 0, 61, 48
1, 1344845, Note_on_c, 0, 70, 60
1, 1344857, Note_on_c, 0, 64, 47
1, 1344867, Note_off_c, 0, 61, 59
1, 1344889, Note_off_c, 0, 64, 66
1, 1344918, Note_on_c, 0, 42, 44
1, 1344929, Note_off_c, 0, 70, 62
1, 1344934, Note_off_c, 0, 44, 44
1, 1344954, Note_off_c, 0, 42, 61
1, 1345087, Note_on_c, 0, 42, 41
1, 1345324, Note_on_c, 0, 88, 59
1, 1345337, Note_on_c, 0, 85, 48
1, 1345342, Note_on_c, 0, 82, 49
1, 1345344, Control_c, 0, 64, 118
1, 1345359, Control_c, 0, 64, 100
1, 1345374, Control_c, 0, 64, 93
1, 1345384, Note_off_c, 0, 42, 50
1, 1345389, Control_c, 0, 64, 92
1, 1345399, Note_off_c, 0, 82, 0
1, 1345399, Note_on_c, 0, 82, 17
1, 1345403, Control_c, 0, 64, 93
1, 1345418, Control_c, 0, 64, 94
1, 1345433, Control_c, 0, 64, 98
1, 1345448, Control_c, 0, 64, 108
1, 1345463, Control_c, 0, 64, 127
1, 1345523, Note_off_c, 0, 88, 57
1, 1345562, Note_off_c, 0, 82, 56
1, 1345570, Note_off_c, 0, 85, 50
1, 1345578, Note_on_c, 0, 42, 43
1, 1345719, Note_on_c, 0, 44, 46
1, 1345736, Note_off_c, 0, 42, 34
1, 1345784, Note_on_c, 0, 85, 61
1, 1345788, Note_on_c, 0, 82, 57
1, 1345806, Note_on_c, 0, 76, 42
1, 1345833, Note_off_c, 0, 76, 58
1, 1345861, Note_off_c, 0, 44, 37
1, 1345869, Note_off_c, 0, 82, 59
1, 1345877, Note_off_c, 0, 85, 59
1, 1345878, Note_on_c, 0, 42, 51
1, 1345909, Note_off_c, 0, 42, 61
1, 1346044, Note_on_c, 0, 42, 45
1, 1346093, Control_c, 0, 64, 107
1, 1346108, Control_c, 0, 64, 88
1, 1346123, Control_c, 0, 64, 75
1, 1346138, Control_c, 0, 64, 65
1, 1346152, Control_c, 0, 64, 61
1, 1346167, Control_c, 0, 64, 63
1, 1346182, Control_c, 0, 64, 65
1, 1346197, Control_c, 0, 64, 68
1, 1346212, Control_c, 0, 64, 73
1, 1346226, Control_c, 0, 64, 79
1, 1346241, Control_c, 0, 64, 87
1, 1346256, Control_c, 0, 64, 97
1, 1346271, Note_on_c, 0, 82, 65
1, 1346271, Control_c, 0, 64, 107
1, 1346285, Control_c, 0, 64, 127
1, 1346288, Note_on_c, 0, 76, 50
1, 1346289, Note_on_c, 0, 73, 47
1, 1346318, Note_off_c, 0, 42, 41
1, 1346343, Note_off_c, 0, 73, 59
1, 1346366, Note_off_c, 0, 82, 62
1, 1346371, Note_off_c, 0, 76, 61
1, 1346500, Note_on_c, 0, 42, 45
1, 1346613, Note_off_c, 0, 42, 58
1, 1346655, Note_on_c, 0, 44, 39
1, 1346743, Note_on_c, 0, 76, 46
1, 1346747, Note_on_c, 0, 70, 36
1, 1346747, Note_on_c, 0, 73, 46
1, 1346810, Note_on_c, 0, 42, 44
1, 1346822, Note_off_c, 0, 44, 43
1, 1346847, Note_off_c, 0, 42, 61
1, 1346872, Note_off_c, 0, 76, 51
1, 1346887, Note_off_c, 0, 70, 36
1, 1346907, Note_off_c, 0, 73, 57
1, 1346971, Note_on_c, 0, 43, 42
1, 1346976, Control_c, 0, 64, 94
1, 1346991, Control_c, 0, 64, 78
1, 1347006, Control_c, 0, 64, 64
1, 1347021, Control_c, 0, 64, 0
1, 1347109, Control_c, 0, 64, 38
1, 1347123, Control_c, 0, 64, 60
1, 1347138, Control_c, 0, 64, 65
1, 1347153, Control_c, 0, 64, 69
1, 1347168, Control_c, 0, 64, 73
1, 1347183, Control_c, 0, 64, 77
1, 1347197, Control_c, 0, 64, 83
1, 1347212, Control_c, 0, 64, 90
1, 1347215, Note_on_c, 0, 70, 41
1, 1347217, Note_on_c, 0, 75, 46
1, 1347223, Note_on_c, 0, 73, 41
1, 1347227, Control_c, 0, 64, 97
1, 1347242, Control_c, 0, 64, 105
1, 1347257, Control_c, 0, 64, 115
1, 1347269, Note_off_c, 0, 43, 42
1, 1347272, Control_c, 0, 64, 127
1, 1347378, Note_off_c, 0, 70, 53
1, 1347397, Note_off_c, 0, 73, 57
1, 1347405, Note_off_c, 0, 75, 57
1, 1347438, Note_on_c, 0, 43, 39
1, 1347592, Note_on_c, 0, 44, 46
1, 1347597, Note_off_c, 0, 43, 36
1, 1347659, Note_on_c, 0, 70, 46
1, 1347670, Note_off_c, 0, 44, 46
1, 1347671, Note_on_c, 0, 73, 43
1, 1347674, Note_on_c, 0, 75, 40
1, 1347749, Note_on_c, 0, 43, 38
1, 1347778, Note_off_c, 0, 70, 49
1, 1347807, Note_off_c, 0, 73, 58
1, 1347844, Note_off_c, 0, 75, 35
1, 1347859, Note_off_c, 0, 43, 48
1, 1347891, Note_on_c, 0, 44, 45
1, 1347902, Control_c, 0, 64, 118
1, 1347917, Control_c, 0, 64, 92
1, 1347932, Control_c, 0, 64, 75
1, 1347946, Control_c, 0, 64, 61
1, 1347961, Control_c, 0, 64, 0
1, 1348020, Control_c, 0, 64, 40
1, 1348035, Control_c, 0, 64, 60
1, 1348050, Control_c, 0, 64, 65
1, 1348065, Control_c, 0, 64, 69
1, 1348080, Control_c, 0, 64, 73
1, 1348094, Control_c, 0, 64, 77
1, 1348109, Control_c, 0, 64, 83
1, 1348124, Control_c, 0, 64, 88
1, 1348126, Note_on_c, 0, 68, 46
1, 1348130, Note_off_c, 0, 44, 51
1, 1348133, Note_on_c, 0, 75, 46
1, 1348135, Note_on_c, 0, 73, 47
1, 1348139, Control_c, 0, 64, 94
1, 1348154, Control_c, 0, 64, 102
1, 1348169, Control_c, 0, 64, 112
1, 1348184, Control_c, 0, 64, 127
1, 1348327, Note_off_c, 0, 68, 52
1, 1348359, Note_on_c, 0, 44, 47
1, 1348360, Note_off_c, 0, 73, 59
1, 1348364, Note_off_c, 0, 75, 57
1, 1348477, Note_off_c, 0, 44, 54
1, 1348491, Note_on_c, 0, 46, 44
1, 1348590, Note_on_c, 0, 68, 46
1, 1348595, Note_on_c, 0, 75, 48
1, 1348599, Note_on_c, 0, 73, 39
1, 1348631, Note_on_c, 0, 44, 43
1, 1348656, Note_off_c, 0, 46, 45
1, 1348682, Note_off_c, 0, 44, 55
1, 1348699, Note_off_c, 0, 68, 57
1, 1348811, Note_on_c, 0, 45, 48
1, 1348844, Control_c, 0, 64, 103
1, 1348850, Note_off_c, 0, 73, 52
1, 1348858, Control_c, 0, 64, 86
1, 1348873, Note_off_c, 0, 75, 35
1, 1348873, Control_c, 0, 64, 72
1, 1348888, Control_c, 0, 64, 58
1, 1348902, Control_c, 0, 64, 0
1, 1348947, Control_c, 0, 64, 19
1, 1348962, Control_c, 0, 64, 44
1, 1348977, Control_c, 0, 64, 58
1, 1348992, Control_c, 0, 64, 64
1, 1349006, Control_c, 0, 64, 67
1, 1349029, Control_c, 0, 64, 70
1, 1349044, Control_c, 0, 64, 73
1, 1349058, Control_c, 0, 64, 76
1, 1349073, Control_c, 0, 64, 81
1, 1349088, Control_c, 0, 64, 85
1, 1349102, Control_c, 0, 64, 89
1, 1349107, Note_on_c, 0, 75, 42
1, 1349108, Note_off_c, 0, 45, 57
1, 1349108, Note_on_c, 0, 67, 45
1, 1349114, Note_on_c, 0, 73, 42
1, 1349117, Control_c, 0, 64, 95
1, 1349132, Control_c, 0, 64, 100
1, 1349147, Control_c, 0, 64, 106
1, 1349162, Control_c, 0, 64, 115
1, 1349176, Control_c, 0, 64, 127
1, 1349287, Note_off_c, 0, 67, 49
1, 1349322, Note_off_c, 0, 73, 59
1, 1349332, Note_on_c, 0, 45, 43
1, 1349346, Note_off_c, 0, 75, 37
1, 1349480, Note_on_c, 0, 46, 41
1, 1349488, Note_off_c, 0, 45, 34
1, 1349559, Note_on_c, 0, 75, 46
1, 1349568, Note_on_c, 0, 67, 36
1, 1349570, Note_on_c, 0, 73, 45
1, 1349619, Note_on_c, 0, 45, 45
1, 1349627, Note_off_c, 0, 46, 45
1, 1349635, Note_off_c, 0, 67, 40
1, 1349674, Note_off_c, 0, 73, 58
1, 1349677, Note_off_c, 0, 75, 55
1, 1349814, Note_on_c, 0, 44, 47
1, 1349822, Control_c, 0, 64, 103
1, 1349837, Control_c, 0, 64, 85
1, 1349847, Note_off_c, 0, 45, 32
1, 1349852, Control_c, 0, 64, 70
1, 1349867, Control_c, 0, 64, 40
1, 1349881, Control_c, 0, 64, 0
1, 1349999, Control_c, 0, 64, 53
1, 1350014, Control_c, 0, 64, 63
1, 1350029, Control_c, 0, 64, 66
1, 1350044, Control_c, 0, 64, 70
1, 1350059, Control_c, 0, 64, 73
1, 1350074, Control_c, 0, 64, 79
1, 1350081, Note_on_c, 0, 75, 44
1, 1350083, Note_on_c, 0, 66, 40
1, 1350089, Note_on_c, 0, 72, 38
1, 1350089, Control_c, 0, 64, 84
1, 1350104, Control_c, 0, 64, 90
1, 1350110, Note_off_c, 0, 44, 58
1, 1350118, Control_c, 0, 64, 94
1, 1350133, Control_c, 0, 64, 98
1, 1350148, Control_c, 0, 64, 102
1, 1350163, Control_c, 0, 64, 108
1, 1350178, Control_c, 0, 64, 115
1, 1350193, Control_c, 0, 64, 127
1, 1350317, Note_on_c, 0, 44, 42
1, 1350322, Note_off_c, 0, 75, 35
1, 1350335, Note_off_c, 0, 66, 34
1, 1350342, Note_off_c, 0, 72, 38
1, 1350443, Note_off_c, 0, 44, 56
1, 1350480, Note_on_c, 0, 46, 36
1, 1350568, Note_on_c, 0, 75, 42
1, 1350579, Note_on_c, 0, 66, 30
1, 1350619, Poly_aftertouch_c, 0, 72, 127
1, 1350649, Note_on_c, 0, 44, 41
1, 1350650, Note_off_c, 0, 66, 41
1, 1350653, Note_off_c, 0, 46, 39
1, 1350659, Poly_aftertouch_c, 0, 72, 0
1, 1350669, Note_off_c, 0, 75, 53
1, 1350684, Note_off_c, 0, 44, 58
1, 1350898, Note_on_c, 0, 37, 38
1, 1350941, Control_c, 0, 64, 103
1, 1350956, Control_c, 0, 64, 88
1, 1350971, Control_c, 0, 64, 74
1, 1350986, Control_c, 0, 64, 57
1, 1351001, Control_c, 0, 64, 0
1, 1351026, Note_on_c, 0, 77, 48
1, 1351037, Note_on_c, 0, 73, 41
1, 1351045, Note_on_c, 0, 65, 25
1, 1351105, Control_c, 0, 64, 57
1, 1351120, Control_c, 0, 64, 65
1, 1351135, Control_c, 0, 64, 68
1, 1351150, Control_c, 0, 64, 72
1, 1351150, Note_off_c, 0, 37, 54
1, 1351164, Control_c, 0, 64, 77
1, 1351179, Control_c, 0, 64, 83
1, 1351194, Control_c, 0, 64, 88
1, 1351209, Control_c, 0, 64, 95
1, 1351224, Control_c, 0, 64, 100
1, 1351238, Control_c, 0, 64, 107
1, 1351253, Control_c, 0, 64, 115
1, 1351275, Control_c, 0, 64, 127
1, 1351379, Note_off_c, 0, 65, 41
1, 1351397, Note_off_c, 0, 73, 60
1, 1351433, Note_off_c, 0, 77, 61
1, 1351454, Note_on_c, 0, 63, 42
1, 1351696, Note_on_c, 0, 77, 50
1, 1351719, Note_on_c, 0, 61, 38
1, 1351884, Note_off_c, 0, 63, 31
1, 1351931, Note_on_c, 0, 75, 58
1, 1351934, Note_on_c, 0, 56, 37
1, 1352004, Note_off_c, 0, 77, 37
1, 1352005, Note_off_c, 0, 61, 41
1, 1352164, Note_on_c, 0, 65, 41
1, 1352166, Note_on_c, 0, 73, 58
1, 1352356, Note_off_c, 0, 75, 59
1, 1352362, Note_off_c, 0, 73, 62
1, 1352378, Note_on_c, 0, 63, 40
1, 1352380, Note_on_c, 0, 68, 57
1, 1352405, Note_off_c, 0, 68, 63
1, 1352467, Note_off_c, 0, 65, 24
1, 1352610, Note_off_c, 0, 56, 42
1, 1352621, Note_on_c, 0, 53, 52
1, 1352634, Note_on_c, 0, 61, 42
1, 1352647, Note_off_c, 0, 63, 37
1, 1352839, Note_on_c, 0, 56, 45
1, 1352851, Note_off_c, 0, 61, 41
1, 1352858, Note_on_c, 0, 51, 58
1, 1352883, Note_off_c, 0, 53, 53
1, 1353072, Note_on_c, 0, 65, 57
1, 1353079, Note_on_c, 0, 49, 62
1, 1353084, Control_c, 0, 64, 107
1, 1353099, Control_c, 0, 64, 85
1, 1353114, Control_c, 0, 64, 72
1, 1353118, Note_off_c, 0, 51, 55
1, 1353129, Control_c, 0, 64, 62
1, 1353144, Control_c, 0, 64, 53
1, 1353159, Control_c, 0, 64, 52
1, 1353204, Control_c, 0, 64, 53
1, 1353218, Control_c, 0, 64, 58
1, 1353233, Control_c, 0, 64, 63
1, 1353248, Control_c, 0, 64, 66
1, 1353262, Control_c, 0, 64, 71
1, 1353277, Note_off_c, 0, 49, 60
1, 1353277, Control_c, 0, 64, 77
1, 1353292, Control_c, 0, 64, 87
1, 1353296, Note_on_c, 0, 44, 56
1, 1353302, Note_on_c, 0, 63, 51
1, 1353307, Control_c, 0, 64, 98
1, 1353322, Note_off_c, 0, 44, 58
1, 1353322, Control_c, 0, 64, 111
1, 1353336, Control_c, 0, 64, 127
1, 1353364, Note_off_c, 0, 65, 38
1, 1353537, Note_off_c, 0, 56, 41
1, 1353546, Note_on_c, 0, 77, 55
1, 1353547, Note_off_c, 0, 63, 55
1, 1353558, Note_on_c, 0, 61, 47
1, 1353745, Note_off_c, 0, 61, 56
1, 1353761, Note_on_c, 0, 75, 63
1, 1353770, Note_on_c, 0, 56, 46
1, 1353872, Note_off_c, 0, 56, 36
1, 1353877, Note_off_c, 0, 77, 36
1, 1353982, Note_on_c, 0, 65, 55
1, 1353982, Control_c, 0, 64, 104
1, 1353987, Note_on_c, 0, 73, 61
1, 1353997, Control_c, 0, 64, 84
1, 1354011, Control_c, 0, 64, 69
1, 1354026, Control_c, 0, 64, 55
1, 1354041, Control_c, 0, 64, 46
1, 1354056, Control_c, 0, 64, 53
1, 1354071, Control_c, 0, 64, 62
1, 1354085, Control_c, 0, 64, 66
1, 1354100, Control_c, 0, 64, 71
1, 1354115, Control_c, 0, 64, 76
1, 1354130, Control_c, 0, 64, 83
1, 1354145, Control_c, 0, 64, 91
1, 1354159, Note_off_c, 0, 75, 52
1, 1354159, Control_c, 0, 64, 99
1, 1354173, Note_off_c, 0, 73, 62
1, 1354174, Control_c, 0, 64, 107
1, 1354189, Control_c, 0, 64, 122
1, 1354196, Note_on_c, 0, 68, 41
1, 1354199, Note_on_c, 0, 63, 53
1, 1354204, Control_c, 0, 64, 127
1, 1354223, Note_off_c, 0, 68, 56
1, 1354237, Note_off_c, 0, 65, 39
1, 1354451, Note_on_c, 0, 61, 51
1, 1354458, Note_off_c, 0, 63, 54
1, 1354460, Note_on_c, 0, 49, 60
1, 1354646, Note_on_c, 0, 56, 59
1, 1354657, Note_off_c, 0, 61, 57
1, 1354670, Note_on_c, 0, 48, 61
1, 1354685, Note_off_c, 0, 56, 60
1, 1354765, Note_off_c, 0, 49, 34
1, 1354958, Note_on_c, 0, 68, 59
1, 1354959, Note_on_c, 0, 47, 54
1, 1354981, Control_c, 0, 64, 96
1, 1354996, Control_c, 0, 64, 77
1, 1355019, Control_c, 0, 64, 61
1, 1355025, Note_off_c, 0, 48, 48
1, 1355034, Control_c, 0, 64, 0
1, 1355227, Control_c, 0, 64, 51
1, 1355234, Note_on_c, 0, 37, 60
1, 1355239, Note_on_c, 0, 66, 49
1, 1355242, Control_c, 0, 64, 63
1, 1355257, Control_c, 0, 64, 68
1, 1355260, Note_off_c, 0, 37, 64
1, 1355271, Control_c, 0, 64, 74
1, 1355286, Control_c, 0, 64, 83
1, 1355301, Control_c, 0, 64, 92
1, 1355312, Note_off_c, 0, 47, 42
1, 1355316, Control_c, 0, 64, 99
1, 1355331, Control_c, 0, 64, 106
1, 1355345, Control_c, 0, 64, 115
1, 1355360, Control_c, 0, 64, 127
1, 1355365, Note_off_c, 0, 68, 30
1, 1355527, Note_off_c, 0, 66, 58
1, 1355538, Note_on_c, 0, 65, 48
1, 1355559, Note_on_c, 0, 80, 59
1, 1355686, Control_c, 0, 67, 127
1, 1355701, Control_c, 0, 67, 122
1, 1355716, Control_c, 0, 67, 116
1, 1355730, Control_c, 0, 67, 110
1, 1355745, Control_c, 0, 67, 103
1, 1355767, Control_c, 0, 67, 95
1, 1355770, Note_off_c, 0, 65, 59
1, 1355782, Control_c, 0, 67, 86
1, 1355785, Note_on_c, 0, 78, 70
1, 1355797, Control_c, 0, 67, 77
1, 1355802, Note_on_c, 0, 61, 46
1, 1355812, Control_c, 0, 67, 69
1, 1355827, Control_c, 0, 67, 64
1, 1355842, Control_c, 0, 67, 60
1, 1355857, Control_c, 0, 67, 57
1, 1355871, Control_c, 0, 67, 56
1, 1355886, Control_c, 0, 67, 55
1, 1356008, Note_on_c, 0, 68, 58
1, 1356011, Note_on_c, 0, 77, 62
1, 1356030, Note_off_c, 0, 80, 30
1, 1356035, Control_c, 0, 67, 56
1, 1356050, Control_c, 0, 67, 57
1, 1356065, Control_c, 0, 67, 58
1, 1356080, Control_c, 0, 67, 58
1, 1356110, Control_c, 0, 67, 59
1, 1356125, Control_c, 0, 67, 60
1, 1356140, Control_c, 0, 67, 60
1, 1356169, Control_c, 0, 67, 61
1, 1356184, Control_c, 0, 67, 61
1, 1356206, Note_off_c, 0, 77, 63
1, 1356206, Note_off_c, 0, 78, 60
1, 1356214, Control_c, 0, 67, 62
1, 1356220, Note_on_c, 0, 73, 57
1, 1356233, Note_on_c, 0, 66, 47
1, 1356239, Note_off_c, 0, 73, 63
1, 1356243, Control_c, 0, 67, 62
1, 1356258, Control_c, 0, 67, 63
1, 1356273, Control_c, 0, 67, 63
1, 1356302, Control_c, 0, 67, 64
1, 1356317, Control_c, 0, 67, 64
1, 1356347, Control_c, 0, 67, 65
1, 1356360, Note_off_c, 0, 61, 34
1, 1356386, Note_off_c, 0, 68, 20
1, 1356391, Control_c, 0, 67, 65
1, 1356450, Note_off_c, 0, 66, 51
1, 1356453, Note_on_c, 0, 65, 45
1, 1356481, Note_on_c, 0, 49, 54
1, 1356591, Control_c, 0, 67, 65
1, 1356620, Control_c, 0, 67, 64
1, 1356665, Control_c, 0, 67, 64
1, 1356685, Note_on_c, 0, 48, 67
1, 1356693, Note_off_c, 0, 65, 57
1, 1356718, Note_on_c, 0, 61, 42
1, 1356725, Note_off_c, 0, 49, 59
1, 1356858, Control_c, 0, 67, 64
1, 1356888, Control_c, 0, 67, 65
1, 1356920, Note_on_c, 0, 68, 62
1, 1356929, Note_on_c, 0, 47, 58
1, 1356933, Control_c, 0, 67, 65
1, 1356948, Control_c, 0, 64, 102
1, 1356960, Note_off_c, 0, 48, 58
1, 1356963, Control_c, 0, 64, 81
1, 1356977, Control_c, 0, 64, 64
1, 1356992, Control_c, 0, 64, 0
1, 1357022, Control_c, 0, 67, 66
1, 1357096, Control_c, 0, 64, 58
1, 1357110, Control_c, 0, 64, 66
1, 1357125, Control_c, 0, 64, 71
1, 1357127, Note_on_c, 0, 37, 61
1, 1357140, Control_c, 0, 64, 78
1, 1357150, Note_on_c, 0, 66, 49
1, 1357153, Note_off_c, 0, 37, 59
1, 1357155, Control_c, 0, 64, 87
1, 1357164, Note_off_c, 0, 47, 30
1, 1357170, Control_c, 0, 64, 98
1, 1357184, Control_c, 0, 64, 113
1, 1357199, Control_c, 0, 64, 127
1, 1357243, Control_c, 0, 67, 65
1, 1357247, Note_off_c, 0, 68, 30
1, 1357281, Control_c, 0, 67, 65
1, 1357312, Note_off_c, 0, 61, 19
1, 1357340, Control_c, 0, 67, 64
1, 1357385, Control_c, 0, 67, 64
1, 1357403, Note_off_c, 0, 66, 58
1, 1357410, Note_on_c, 0, 80, 67
1, 1357411, Note_on_c, 0, 65, 48
1, 1357593, Control_c, 0, 67, 64
1, 1357616, Note_off_c, 0, 65, 60
1, 1357622, Control_c, 0, 67, 65
1, 1357629, Note_on_c, 0, 78, 72
1, 1357633, Note_on_c, 0, 61, 55
1, 1357652, Control_c, 0, 67, 65
1, 1357666, Control_c, 0, 67, 66
1, 1357681, Control_c, 0, 67, 66
1, 1357696, Control_c, 0, 67, 67
1, 1357711, Control_c, 0, 67, 67
1, 1357726, Control_c, 0, 67, 68
1, 1357741, Control_c, 0, 67, 69
1, 1357755, Control_c, 0, 67, 70
1, 1357770, Control_c, 0, 67, 73
1, 1357783, Note_off_c, 0, 80, 38
1, 1357785, Control_c, 0, 67, 78
1, 1357800, Control_c, 0, 67, 83
1, 1357815, Control_c, 0, 67, 89
1, 1357830, Control_c, 0, 67, 96
1, 1357845, Control_c, 0, 67, 104
1, 1357859, Control_c, 0, 64, 92
1, 1357859, Control_c, 0, 67, 109
1, 1357862, Note_on_c, 0, 68, 65
1, 1357872, Note_on_c, 0, 77, 57
1, 1357874, Control_c, 0, 64, 77
1, 1357874, Control_c, 0, 67, 114
1, 1357889, Control_c, 0, 64, 66
1, 1357889, Control_c, 0, 67, 118
1, 1357904, Control_c, 0, 64, 61
1, 1357904, Control_c, 0, 67, 121
1, 1357919, Control_c, 0, 64, 62
1, 1357919, Control_c, 0, 67, 124
1, 1357933, Control_c, 0, 64, 64
1, 1357933, Control_c, 0, 67, 127
1, 1357948, Control_c, 0, 64, 68
1, 1357948, Control_c, 0, 67, 127
1, 1357963, Control_c, 0, 64, 72
1, 1357978, Control_c, 0, 64, 78
1, 1357993, Control_c, 0, 64, 83
1, 1358015, Control_c, 0, 64, 89
1, 1358030, Control_c, 0, 64, 92
1, 1358039, Note_off_c, 0, 78, 51
1, 1358045, Control_c, 0, 64, 94
1, 1358059, Control_c, 0, 64, 95
1, 1358069, Note_off_c, 0, 77, 63
1, 1358074, Control_c, 0, 64, 95
1, 1358078, Note_on_c, 0, 73, 54
1, 1358096, Note_on_c, 0, 66, 50
1, 1358099, Note_off_c, 0, 73, 60
1, 1358119, Control_c, 0, 64, 96
1, 1358193, Control_c, 0, 64, 96
1, 1358231, Note_off_c, 0, 68, 32
1, 1358244, Note_off_c, 0, 61, 31
1, 1358346, Note_on_c, 0, 56, 47
1, 1358347, Note_on_c, 0, 65, 44
1, 1358386, Note_off_c, 0, 66, 35
1, 1358504, Control_c, 0, 64, 97
1, 1358530, Note_off_c, 0, 65, 59
1, 1358545, Note_on_c, 0, 54, 54
1, 1358554, Note_on_c, 0, 61, 50
1, 1358583, Note_off_c, 0, 61, 59
1, 1358585, Note_off_c, 0, 56, 46
1, 1358778, Control_c, 0, 64, 96
1, 1358813, Note_on_c, 0, 53, 40
1, 1358823, Control_c, 0, 64, 96
1, 1358838, Control_c, 0, 64, 95
1, 1358846, Note_on_c, 0, 44, 62
1, 1358852, Control_c, 0, 64, 94
1, 1358858, Note_off_c, 0, 54, 36
1, 1358867, Control_c, 0, 64, 93
1, 1358882, Control_c, 0, 64, 92
1, 1358897, Control_c, 0, 64, 91
1, 1358912, Control_c, 0, 64, 89
1, 1358927, Control_c, 0, 64, 87
1, 1358942, Control_c, 0, 64, 85
1, 1358956, Control_c, 0, 64, 82
1, 1358971, Control_c, 0, 64, 80
1, 1358986, Control_c, 0, 64, 77
1, 1359001, Control_c, 0, 64, 75
1, 1359015, Control_c, 0, 64, 73
1, 1359030, Control_c, 0, 64, 71
1, 1359045, Control_c, 0, 64, 69
1, 1359060, Control_c, 0, 64, 67
1, 1359070, Note_on_c, 0, 49, 45
1, 1359075, Control_c, 0, 64, 66
1, 1359084, Note_off_c, 0, 53, 49
1, 1359091, Control_c, 0, 64, 65
1, 1359105, Control_c, 0, 64, 65
1, 1359120, Control_c, 0, 64, 64
1, 1359135, Control_c, 0, 64, 64
1, 1359150, Control_c, 0, 64, 63
1, 1359165, Control_c, 0, 64, 62
1, 1359179, Control_c, 0, 64, 62
1, 1359194, Control_c, 0, 64, 61
1, 1359209, Control_c, 0, 64, 60
1, 1359224, Control_c, 0, 64, 58
1, 1359239, Control_c, 0, 64, 56
1, 1359253, Control_c, 0, 64, 55
1, 1359268, Control_c, 0, 64, 53
1, 1359283, Control_c, 0, 64, 51
1, 1359298, Control_c, 0, 64, 50
1, 1359312, Control_c, 0, 64, 49
1, 1359327, Control_c, 0, 64, 47
1, 1359342, Control_c, 0, 64, 45
1, 1359347, Note_on_c, 0, 42, 50
1, 1359357, Control_c, 0, 64, 43
1, 1359372, Control_c, 0, 64, 40
1, 1359386, Control_c, 0, 64, 38
1, 1359401, Control_c, 0, 64, 36
1, 1359416, Control_c, 0, 64, 33
1, 1359431, Control_c, 0, 64, 30
1, 1359446, Control_c, 0, 64, 27
1, 1359461, Control_c, 0, 64, 23
1, 1359475, Control_c, 0, 64, 14
1, 1359490, Control_c, 0, 64, 0
1, 1359546, Note_off_c, 0, 49, 48
1, 1359595, Note_off_c, 0, 44, 36
1, 1359797, Note_on_c, 0, 41, 40
1, 1359932, Note_off_c, 0, 42, 35
1, 1360288, Note_off_c, 0, 41, 47
1, 1360301, Note_on_c, 0, 37, 37
1, 1360483, Control_c, 0, 64, 11
1, 1360513, Control_c, 0, 64, 14
1, 1360542, Control_c, 0, 64, 17
1, 1360586, Control_c, 0, 64, 19
1, 1360601, Control_c, 0, 64, 21
1, 1360631, Control_c, 0, 64, 23
1, 1360646, Control_c, 0, 64, 24
1, 1360650, Note_on_c, 0, 59, 52
1, 1360686, Note_off_c, 0, 59, 62
1, 1360774, Note_off_c, 0, 37, 56
1, 1360790, Note_on_c, 0, 60, 54
1, 1360793, Note_on_c, 0, 32, 47
1, 1360799, Note_on_c, 0, 44, 48
1, 1360814, Note_off_c, 0, 60, 64
1, 1360843, Poly_aftertouch_c, 0, 53, 127
1, 1360865, Poly_aftertouch_c, 0, 53, 0
1, 1361069, Control_c, 0, 64, 26
1, 1361070, Note_on_c, 0, 60, 53
1, 1361076, Note_off_c, 0, 44, 62
1, 1361083, Control_c, 0, 64, 28
1, 1361098, Control_c, 0, 64, 29
1, 1361111, Note_off_c, 0, 60, 64
1, 1361113, Control_c, 0, 64, 30
1, 1361128, Control_c, 0, 64, 31
1, 1361157, Control_c, 0, 64, 32
1, 1361201, Control_c, 0, 64, 33
1, 1361219, Note_on_c, 0, 58, 58
1, 1361219, Note_on_c, 0, 31, 50
1, 1361221, Note_on_c, 0, 61, 59
1, 1361223, Note_on_c, 0, 43, 47
1, 1361231, Control_c, 0, 64, 34
1, 1361243, Note_off_c, 0, 58, 64
1, 1361246, Control_c, 0, 64, 35
1, 1361249, Note_off_c, 0, 32, 42
1, 1361249, Note_off_c, 0, 61, 65
1, 1361261, Control_c, 0, 64, 36
1, 1361276, Control_c, 0, 64, 37
1, 1361291, Control_c, 0, 64, 38
1, 1361306, Control_c, 0, 64, 38
1, 1361321, Control_c, 0, 64, 39
1, 1361335, Control_c, 0, 64, 40
1, 1361364, Control_c, 0, 64, 40
1, 1361394, Control_c, 0, 64, 41
1, 1361476, Note_off_c, 0, 43, 57
1, 1361513, Note_on_c, 0, 61, 60
1, 1361514, Note_on_c, 0, 53, 61
1, 1361518, Note_on_c, 0, 58, 53
1, 1361540, Note_off_c, 0, 53, 66
1, 1361544, Note_off_c, 0, 58, 61
1, 1361547, Note_off_c, 0, 61, 63
1, 1361666, Note_on_c, 0, 56, 71
1, 1361674, Note_on_c, 0, 41, 49
1, 1361675, Note_on_c, 0, 53, 35
1, 1361675, Note_on_c, 0, 29, 52
1, 1361691, Note_off_c, 0, 56, 68
1, 1361693, Note_off_c, 0, 31, 48
1, 1361705, Control_c, 0, 64, 40
1, 1361708, Note_off_c, 0, 53, 49
1, 1361817, Control_c, 0, 64, 41
1, 1361846, Control_c, 0, 64, 42
1, 1361857, Note_off_c, 0, 41, 56
1, 1361861, Control_c, 0, 64, 44
1, 1361876, Control_c, 0, 64, 45
1, 1361889, Note_on_c, 0, 58, 67
1, 1361890, Note_on_c, 0, 55, 60
1, 1361905, Control_c, 0, 64, 43
1, 1361911, Note_off_c, 0, 55, 63
1, 1361919, Note_off_c, 0, 58, 64
1, 1361920, Control_c, 0, 64, 14
1, 1361935, Control_c, 0, 64, 0
1, 1361950, Note_on_c, 0, 56, 73
1, 1361953, Note_on_c, 0, 60, 74
1, 1361974, Note_off_c, 0, 56, 67
1, 1361976, Note_off_c, 0, 60, 69
1, 1362130, Note_off_c, 0, 29, 49
1, 1362138, Note_on_c, 0, 36, 53
1, 1362140, Note_on_c, 0, 24, 54
1, 1362277, Control_c, 0, 64, 44
1, 1362292, Control_c, 0, 64, 57
1, 1362307, Control_c, 0, 64, 63
1, 1362321, Control_c, 0, 64, 68
1, 1362336, Control_c, 0, 64, 73
1, 1362336, Control_c, 0, 67, 124
1, 1362351, Control_c, 0, 64, 80
1, 1362351, Control_c, 0, 67, 118
1, 1362366, Control_c, 0, 64, 88
1, 1362366, Control_c, 0, 67, 111
1, 1362370, Note_off_c, 0, 24, 52
1, 1362381, Control_c, 0, 64, 96
1, 1362381, Control_c, 0, 67, 104
1, 1362393, Note_off_c, 0, 36, 59
1, 1362395, Control_c, 0, 64, 107
1, 1362395, Control_c, 0, 67, 96
1, 1362410, Control_c, 0, 64, 127
1, 1362410, Control_c, 0, 67, 89
1, 1362425, Control_c, 0, 67, 81
1, 1362440, Control_c, 0, 67, 76
1, 1362454, Control_c, 0, 67, 72
1, 1362469, Control_c, 0, 67, 68
1, 1362483, Note_on_c, 0, 60, 70
1, 1362484, Control_c, 0, 67, 66
1, 1362507, Control_c, 0, 67, 65
1, 1362654, Control_c, 0, 67, 66
1, 1362669, Control_c, 0, 67, 66
1, 1362684, Control_c, 0, 67, 67
1, 1362686, Note_on_c, 0, 44, 52
1, 1362686, Note_on_c, 0, 54, 59
1, 1362695, Note_on_c, 0, 32, 42
1, 1362699, Control_c, 0, 67, 68
1, 1362714, Control_c, 0, 67, 68
1, 1362728, Control_c, 0, 64, 97
1, 1362743, Control_c, 0, 64, 78
1, 1362743, Control_c, 0, 67, 69
1, 1362758, Control_c, 0, 64, 61
1, 1362773, Control_c, 0, 64, 0
1, 1362773, Control_c, 0, 67, 69
1, 1362802, Control_c, 0, 67, 70
1, 1362833, Control_c, 0, 67, 70
1, 1362877, Control_c, 0, 64, 19
1, 1362892, Control_c, 0, 64, 62
1, 1362907, Control_c, 0, 64, 67
1, 1362921, Control_c, 0, 64, 72
1, 1362936, Control_c, 0, 64, 79
1, 1362951, Control_c, 0, 64, 87
1, 1362966, Control_c, 0, 64, 96
1, 1362981, Control_c, 0, 64, 106
1, 1362996, Control_c, 0, 64, 115
1, 1363011, Control_c, 0, 64, 127
1, 1363053, Note_on_c, 0, 62, 64
1, 1363055, Note_off_c, 0, 54, 61
1, 1363065, Note_off_c, 0, 44, 60
1, 1363234, Control_c, 0, 67, 71
1, 1363271, Control_c, 0, 64, 113
1, 1363280, Note_on_c, 0, 55, 47
1, 1363282, Note_on_c, 0, 63, 55
1, 1363285, Control_c, 0, 64, 93
1, 1363286, Note_on_c, 0, 31, 38
1, 1363292, Note_on_c, 0, 43, 34
1, 1363300, Control_c, 0, 64, 78
1, 1363300, Control_c, 0, 67, 71
1, 1363315, Control_c, 0, 64, 64
1, 1363330, Note_off_c, 0, 60, 47
1, 1363330, Control_c, 0, 64, 0
1, 1363330, Control_c, 0, 67, 72
1, 1363355, Note_off_c, 0, 62, 49
1, 1363389, Control_c, 0, 67, 72
1, 1363413, Note_off_c, 0, 32, 42
1, 1363449, Control_c, 0, 67, 73
1, 1363508, Control_c, 0, 67, 73
1, 1363523, Control_c, 0, 67, 74
1, 1363552, Control_c, 0, 67, 74
1, 1363567, Control_c, 0, 64, 54
1, 1363567, Control_c, 0, 67, 75
1, 1363582, Control_c, 0, 64, 64
1, 1363582, Control_c, 0, 67, 75
1, 1363596, Control_c, 0, 64, 69
1, 1363596, Control_c, 0, 67, 76
1, 1363611, Control_c, 0, 64, 73
1, 1363611, Control_c, 0, 67, 76
1, 1363626, Control_c, 0, 64, 79
1, 1363626, Control_c, 0, 67, 77
1, 1363641, Control_c, 0, 64, 86
1, 1363641, Control_c, 0, 67, 77
1, 1363656, Control_c, 0, 64, 93
1, 1363671, Control_c, 0, 64, 98
1, 1363671, Control_c, 0, 67, 78
1, 1363685, Control_c, 0, 64, 103
1, 1363685, Control_c, 0, 67, 78
1, 1363699, Note_off_c, 0, 43, 41
1, 1363700, Control_c, 0, 64, 107
1, 1363700, Control_c, 0, 67, 80
1, 1363715, Control_c, 0, 64, 113
1, 1363715, Control_c, 0, 67, 83
1, 1363730, Note_on_c, 0, 62, 45
1, 1363730, Control_c, 0, 64, 122
1, 1363730, Control_c, 0, 67, 85
1, 1363744, Note_off_c, 0, 55, 50
1, 1363745, Control_c, 0, 64, 127
1, 1363745, Control_c, 0, 67, 88
1, 1363759, Control_c, 0, 67, 90
1, 1363774, Control_c, 0, 67, 93
1, 1363789, Control_c, 0, 67, 95
1, 1363804, Control_c, 0, 67, 98
1, 1363819, Control_c, 0, 67, 101
1, 1363834, Control_c, 0, 67, 104
1, 1363848, Control_c, 0, 67, 107
1, 1363863, Control_c, 0, 67, 111
1, 1363879, Control_c, 0, 67, 115
1, 1363893, Control_c, 0, 67, 118
1, 1363908, Control_c, 0, 67, 122
1, 1363923, Control_c, 0, 67, 126
1, 1363929, Note_off_c, 0, 63, 32
1, 1363938, Control_c, 0, 67, 127
1, 1363953, Control_c, 0, 64, 118
1, 1363968, Control_c, 0, 64, 109
1, 1363977, Note_on_c, 0, 60, 39
1, 1363980, Note_on_c, 0, 42, 41
1, 1363980, Note_on_c, 0, 56, 43
1, 1363983, Control_c, 0, 64, 100
1, 1363986, Note_on_c, 0, 30, 44
1, 1364005, Control_c, 0, 64, 91
1, 1364020, Control_c, 0, 64, 82
1, 1364034, Control_c, 0, 64, 72
1, 1364049, Control_c, 0, 64, 64
1, 1364064, Control_c, 0, 64, 49
1, 1364072, Note_off_c, 0, 62, 34
1, 1364079, Control_c, 0, 64, 24
1, 1364081, Note_off_c, 0, 31, 41
1, 1364094, Control_c, 0, 64, 0
1, 1364257, Control_c, 0, 64, 50
1, 1364272, Control_c, 0, 64, 61
1, 1364287, Control_c, 0, 64, 64
1, 1364301, Control_c, 0, 64, 67
1, 1364316, Control_c, 0, 64, 70
1, 1364331, Control_c, 0, 64, 73
1, 1364336, Note_off_c, 0, 42, 49
1, 1364346, Control_c, 0, 64, 76
1, 1364361, Control_c, 0, 64, 79
1, 1364375, Control_c, 0, 64, 82
1, 1364390, Control_c, 0, 64, 86
1, 1364405, Control_c, 0, 64, 89
1, 1364419, Control_c, 0, 64, 92
1, 1364434, Control_c, 0, 64, 95
1, 1364449, Control_c, 0, 64, 98
1, 1364464, Control_c, 0, 64, 100
1, 1364479, Control_c, 0, 64, 103
1, 1364493, Control_c, 0, 64, 107
1, 1364508, Control_c, 0, 64, 111
1, 1364523, Control_c, 0, 64, 115
1, 1364537, Note_off_c, 0, 30, 42
1, 1364538, Control_c, 0, 64, 123
1, 1364553, Control_c, 0, 64, 127
1, 1364687, Note_on_c, 0, 62, 32
1, 1364768, Note_off_c, 0, 60, 41
1, 1364776, Note_off_c, 0, 56, 47
1, 1365138, Control_c, 0, 64, 121
1, 1365153, Control_c, 0, 64, 110
1, 1365167, Note_on_c, 0, 60, 21
1, 1365168, Control_c, 0, 64, 100
1, 1365183, Control_c, 0, 64, 92
1, 1365184, Note_on_c, 0, 64, 42
1, 1365185, Note_on_c, 0, 24, 30
1, 1365187, Note_on_c, 0, 36, 29
1, 1365194, Note_on_c, 0, 55, 32
1, 1365197, Control_c, 0, 64, 84
1, 1365212, Control_c, 0, 64, 77
1, 1365221, Note_off_c, 0, 62, 40
1, 1365227, Control_c, 0, 64, 69
1, 1365241, Control_c, 0, 64, 63
1, 1365256, Control_c, 0, 64, 52
1, 1365271, Control_c, 0, 64, 43
1, 1365286, Control_c, 0, 64, 39
1, 1365301, Control_c, 0, 64, 34
1, 1365315, Control_c, 0, 64, 27
1, 1365330, Control_c, 0, 64, 21
1, 1365345, Control_c, 0, 64, 19
1, 1365404, Control_c, 0, 64, 23
1, 1365419, Control_c, 0, 64, 29
1, 1365434, Control_c, 0, 64, 35
1, 1365449, Control_c, 0, 64, 40
1, 1365464, Control_c, 0, 64, 47
1, 1365479, Control_c, 0, 64, 51
1, 1365502, Control_c, 0, 64, 56
1, 1365517, Control_c, 0, 64, 59
1, 1365532, Control_c, 0, 64, 62
1, 1365546, Control_c, 0, 64, 64
1, 1365561, Control_c, 0, 64, 65
1, 1365576, Control_c, 0, 64, 67
1, 1365591, Control_c, 0, 64, 69
1, 1365605, Control_c, 0, 64, 71
1, 1365620, Control_c, 0, 64, 73
1, 1365635, Control_c, 0, 64, 75
1, 1365650, Control_c, 0, 64, 79
1, 1365665, Control_c, 0, 64, 82
1, 1365679, Control_c, 0, 64, 85
1, 1365694, Control_c, 0, 64, 88
1, 1365709, Control_c, 0, 64, 92
1, 1365724, Control_c, 0, 64, 95
1, 1365739, Control_c, 0, 64, 100
1, 1365753, Control_c, 0, 64, 105
1, 1365768, Control_c, 0, 64, 111
1, 1365783, Control_c, 0, 64, 120
1, 1365798, Control_c, 0, 64, 127
1, 1366199, Note_off_c, 0, 24, 39
1, 1366331, Note_off_c, 0, 36, 39
1, 1366341, Note_off_c, 0, 55, 39
1, 1366565, Note_off_c, 0, 60, 42
1, 1366586, Note_off_c, 0, 64, 32
1, 1367326, Control_c, 0, 64, 114
1, 1367341, Control_c, 0, 64, 103
1, 1367351, Note_on_c, 0, 67, 41
1, 1367354, Note_on_c, 0, 58, 32
1, 1367356, Control_c, 0, 64, 94
1, 1367371, Control_c, 0, 64, 87
1, 1367386, Control_c, 0, 64, 81
1, 1367400, Control_c, 0, 64, 73
1, 1367415, Control_c, 0, 64, 65
1, 1367430, Control_c, 0, 64, 49
1, 1367444, Control_c, 0, 64, 21
1, 1367459, Control_c, 0, 64, 0
1, 1367578, Control_c, 0, 64, 28
1, 1367592, Control_c, 0, 64, 43
1, 1367596, Note_on_c, 0, 65, 44
1, 1367607, Control_c, 0, 64, 52
1, 1367622, Control_c, 0, 64, 58
1, 1367637, Control_c, 0, 64, 62
1, 1367652, Control_c, 0, 64, 64
1, 1367667, Control_c, 0, 64, 65
1, 1367682, Control_c, 0, 64, 65
1, 1367686, Note_off_c, 0, 67, 35
1, 1367697, Control_c, 0, 64, 66
1, 1367711, Control_c, 0, 64, 67
1, 1367726, Control_c, 0, 64, 68
1, 1367748, Control_c, 0, 64, 70
1, 1367763, Control_c, 0, 64, 72
1, 1367777, Control_c, 0, 64, 73
1, 1367792, Control_c, 0, 64, 75
1, 1367807, Note_on_c, 0, 79, 56
1, 1367807, Control_c, 0, 64, 77
1, 1367822, Control_c, 0, 64, 80
1, 1367834, Note_on_c, 0, 64, 38
1, 1367837, Control_c, 0, 64, 83
1, 1367852, Control_c, 0, 64, 85
1, 1367867, Control_c, 0, 64, 87
1, 1367882, Control_c, 0, 64, 90
1, 1367897, Control_c, 0, 64, 93
1, 1367912, Control_c, 0, 64, 96
1, 1367927, Control_c, 0, 64, 99
1, 1367941, Control_c, 0, 64, 103
1, 1367956, Control_c, 0, 64, 106
1, 1367971, Control_c, 0, 64, 110
1, 1367986, Control_c, 0, 64, 114
1, 1368001, Control_c, 0, 64, 119
1, 1368016, Note_off_c, 0, 64, 37
1, 1368016, Control_c, 0, 64, 127
1, 1368021, Note_on_c, 0, 77, 66
1, 1368025, Note_on_c, 0, 60, 51
1, 1368057, Note_off_c, 0, 65, 39
1, 1368102, Note_off_c, 0, 58, 44
1, 1368102, Note_off_c, 0, 60, 56
1, 1368236, Note_on_c, 0, 76, 63
1, 1368245, Note_on_c, 0, 58, 37
1, 1368247, Note_on_c, 0, 67, 48
1, 1368267, Control_c, 0, 64, 119
1, 1368282, Control_c, 0, 64, 106
1, 1368297, Control_c, 0, 64, 92
1, 1368308, Note_off_c, 0, 79, 36
1, 1368312, Control_c, 0, 64, 77
1, 1368327, Control_c, 0, 64, 64
1, 1368341, Control_c, 0, 64, 0
1, 1368370, Note_off_c, 0, 77, 45
1, 1368400, Control_c, 0, 64, 30
1, 1368415, Control_c, 0, 64, 56
1, 1368430, Control_c, 0, 64, 64
1, 1368441, Note_off_c, 0, 76, 63
1, 1368442, Note_on_c, 0, 65, 50
1, 1368445, Control_c, 0, 64, 68
1, 1368454, Note_on_c, 0, 72, 53
1, 1368460, Control_c, 0, 64, 72
1, 1368472, Note_off_c, 0, 72, 61
1, 1368475, Control_c, 0, 64, 77
1, 1368497, Control_c, 0, 64, 82
1, 1368499, Note_off_c, 0, 67, 51
1, 1368512, Control_c, 0, 64, 87
1, 1368527, Control_c, 0, 64, 92
1, 1368541, Control_c, 0, 64, 95
1, 1368556, Control_c, 0, 64, 98
1, 1368571, Control_c, 0, 64, 101
1, 1368586, Control_c, 0, 64, 103
1, 1368600, Control_c, 0, 64, 105
1, 1368615, Control_c, 0, 64, 106
1, 1368630, Control_c, 0, 64, 107
1, 1368660, Control_c, 0, 64, 108
1, 1368674, Note_on_c, 0, 55, 64
1, 1368690, Control_c, 0, 64, 108
1, 1368695, Note_on_c, 0, 64, 50
1, 1368705, Control_c, 0, 64, 109
1, 1368720, Control_c, 0, 64, 109
1, 1368735, Control_c, 0, 64, 110
1, 1368750, Control_c, 0, 64, 112
1, 1368755, Note_off_c, 0, 65, 35
1, 1368764, Control_c, 0, 64, 114
1, 1368779, Control_c, 0, 64, 117
1, 1368794, Control_c, 0, 64, 123
1, 1368809, Control_c, 0, 64, 127
1, 1368837, Note_off_c, 0, 64, 58
1, 1368839, Control_c, 0, 67, 125
1, 1368854, Control_c, 0, 67, 119
1, 1368868, Note_on_c, 0, 60, 51
1, 1368869, Control_c, 0, 67, 112
1, 1368877, Note_on_c, 0, 53, 66
1, 1368884, Control_c, 0, 67, 105
1, 1368891, Note_off_c, 0, 60, 62
1, 1368898, Control_c, 0, 67, 96
1, 1368901, Note_off_c, 0, 58, 60
1, 1368913, Control_c, 0, 67, 86
1, 1368928, Control_c, 0, 67, 80
1, 1368929, Note_off_c, 0, 55, 58
1, 1368943, Control_c, 0, 67, 76
1, 1368958, Control_c, 0, 67, 74
1, 1369002, Control_c, 0, 67, 75
1, 1369017, Control_c, 0, 67, 77
1, 1369032, Control_c, 0, 67, 78
1, 1369047, Control_c, 0, 67, 79
1, 1369062, Control_c, 0, 67, 80
1, 1369077, Control_c, 0, 64, 119
1, 1369077, Control_c, 0, 67, 81
1, 1369086, Note_on_c, 0, 61, 57
1, 1369091, Control_c, 0, 64, 105
1, 1369095, Note_on_c, 0, 70, 64
1, 1369106, Control_c, 0, 64, 91
1, 1369121, Control_c, 0, 64, 76
1, 1369122, Note_on_c, 0, 52, 47
1, 1369136, Control_c, 0, 64, 64
1, 1369145, Note_off_c, 0, 53, 63
1, 1369151, Control_c, 0, 64, 0
1, 1369180, Control_c, 0, 67, 80
1, 1369195, Control_c, 0, 67, 79
1, 1369209, Control_c, 0, 67, 78
1, 1369224, Control_c, 0, 64, 49
1, 1369224, Control_c, 0, 67, 76
1, 1369247, Control_c, 0, 64, 64
1, 1369247, Control_c, 0, 67, 75
1, 1369262, Control_c, 0, 64, 69
1, 1369262, Control_c, 0, 67, 74
1, 1369270, Note_off_c, 0, 52, 62
1, 1369277, Control_c, 0, 64, 74
1, 1369277, Control_c, 0, 67, 72
1, 1369292, Control_c, 0, 64, 79
1, 1369292, Control_c, 0, 67, 70
1, 1369303, Note_on_c, 0, 68, 59
1, 1369306, Control_c, 0, 64, 84
1, 1369306, Control_c, 0, 67, 65
1, 1369321, Control_c, 0, 64, 86
1, 1369321, Control_c, 0, 67, 58
1, 1369324, Note_on_c, 0, 48, 22
1, 1369336, Control_c, 0, 64, 87
1, 1369336, Control_c, 0, 67, 52
1, 1369350, Control_c, 0, 67, 48
1, 1369364, Note_off_c, 0, 48, 41
1, 1369365, Control_c, 0, 64, 87
1, 1369365, Control_c, 0, 67, 46
1, 1369380, Control_c, 0, 67, 45
1, 1369395, Control_c, 0, 64, 88
1, 1369424, Control_c, 0, 64, 89
1, 1369439, Control_c, 0, 64, 90
1, 1369454, Control_c, 0, 64, 91
1, 1369470, Control_c, 0, 64, 92
1, 1369470, Control_c, 0, 67, 46
1, 1369476, Note_off_c, 0, 70, 33
1, 1369485, Control_c, 0, 64, 93
1, 1369485, Control_c, 0, 67, 46
1, 1369500, Control_c, 0, 67, 47
1, 1369514, Control_c, 0, 64, 93
1, 1369529, Control_c, 0, 67, 48
1, 1369531, Note_on_c, 0, 82, 68
1, 1369539, Note_on_c, 0, 67, 55
1, 1369568, Note_off_c, 0, 68, 53
1, 1369587, Control_c, 0, 67, 48
1, 1369646, Control_c, 0, 67, 49
1, 1369661, Control_c, 0, 67, 49
1, 1369676, Control_c, 0, 67, 50
1, 1369706, Control_c, 0, 67, 50
1, 1369718, Note_off_c, 0, 67, 58
1, 1369721, Control_c, 0, 67, 51
1, 1369732, Note_on_c, 0, 80, 82
1, 1369742, Note_on_c, 0, 64, 55
1, 1369751, Control_c, 0, 67, 52
1, 1369766, Control_c, 0, 67, 52
1, 1369780, Control_c, 0, 67, 53
1, 1369786, Note_off_c, 0, 61, 61
1, 1369795, Control_c, 0, 64, 94
1, 1369810, Control_c, 0, 67, 53
1, 1369825, Control_c, 0, 67, 54
1, 1369839, Control_c, 0, 67, 54
1, 1369853, Note_off_c, 0, 64, 0
1, 1369869, Control_c, 0, 67, 55
1, 1369884, Control_c, 0, 67, 55
1, 1369891, Poly_aftertouch_c, 0, 64, 127
1, 1369913, Control_c, 0, 64, 91
1, 1369927, Note_on_c, 0, 61, 57
1, 1369928, Control_c, 0, 64, 83
1, 1369928, Control_c, 0, 67, 56
1, 1369941, Poly_aftertouch_c, 0, 64, 0
1, 1369943, Control_c, 0, 64, 73
1, 1369945, Note_on_c, 0, 70, 67
1, 1369953, Note_off_c, 0, 82, 39
1, 1369954, Note_on_c, 0, 79, 65
1, 1369957, Control_c, 0, 64, 64
1, 1369972, Control_c, 0, 64, 46
1, 1369995, Control_c, 0, 64, 31
1, 1370010, Control_c, 0, 64, 30
1, 1370025, Control_c, 0, 64, 32
1, 1370039, Control_c, 0, 64, 46
1, 1370054, Control_c, 0, 64, 60
1, 1370069, Control_c, 0, 64, 65
1, 1370069, Control_c, 0, 67, 55
1, 1370084, Control_c, 0, 64, 70
1, 1370099, Control_c, 0, 64, 74
1, 1370099, Control_c, 0, 67, 55
1, 1370113, Control_c, 0, 64, 80
1, 1370113, Control_c, 0, 67, 54
1, 1370120, Note_off_c, 0, 80, 59
1, 1370128, Control_c, 0, 64, 85
1, 1370135, Note_off_c, 0, 79, 63
1, 1370143, Control_c, 0, 64, 91
1, 1370143, Control_c, 0, 67, 54
1, 1370149, Note_on_c, 0, 68, 65
1, 1370151, Note_on_c, 0, 76, 56
1, 1370158, Control_c, 0, 64, 96
1, 1370172, Control_c, 0, 64, 100
1, 1370174, Note_off_c, 0, 76, 60
1, 1370187, Control_c, 0, 64, 103
1, 1370202, Control_c, 0, 64, 106
1, 1370217, Control_c, 0, 64, 108
1, 1370232, Control_c, 0, 64, 110
1, 1370246, Control_c, 0, 64, 113
1, 1370262, Control_c, 0, 64, 115
1, 1370277, Control_c, 0, 64, 117
1, 1370292, Control_c, 0, 64, 119
1, 1370300, Note_off_c, 0, 70, 38
1, 1370307, Control_c, 0, 64, 121
1, 1370322, Control_c, 0, 64, 122
1, 1370322, Control_c, 0, 67, 54
1, 1370336, Control_c, 0, 64, 124
1, 1370351, Control_c, 0, 64, 127
1, 1370362, Note_on_c, 0, 58, 63
1, 1370380, Note_on_c, 0, 67, 62
1, 1370425, Control_c, 0, 67, 55
1, 1370520, Note_off_c, 0, 68, 26
1, 1370543, Note_on_c, 0, 56, 77
1, 1370544, Note_off_c, 0, 67, 59
1, 1370553, Note_on_c, 0, 64, 57
1, 1370573, Control_c, 0, 67, 54
1, 1370576, Note_off_c, 0, 58, 62
1, 1370582, Note_off_c, 0, 64, 67
1, 1370585, Note_off_c, 0, 61, 62
1, 1370603, Control_c, 0, 67, 54
1, 1370633, Control_c, 0, 67, 53
1, 1370662, Control_c, 0, 67, 53
1, 1370692, Control_c, 0, 67, 52
1, 1370791, Note_on_c, 0, 55, 66
1, 1370793, Note_on_c, 0, 64, 55
1, 1370803, Control_c, 0, 64, 113
1, 1370803, Note_on_c, 0, 73, 73
1, 1370818, Control_c, 0, 64, 92
1, 1370833, Control_c, 0, 64, 77
1, 1370848, Control_c, 0, 64, 63
1, 1370862, Control_c, 0, 64, 0
1, 1370905, Note_off_c, 0, 56, 28
1, 1370951, Control_c, 0, 67, 52
1, 1370966, Control_c, 0, 64, 43
1, 1370966, Control_c, 0, 67, 51
1, 1370970, Note_off_c, 0, 55, 62
1, 1370981, Control_c, 0, 64, 63
1, 1370981, Control_c, 0, 67, 49
1, 1370995, Control_c, 0, 64, 68
1, 1370995, Control_c, 0, 67, 48
1, 1371000, Note_on_c, 0, 72, 70
1, 1371008, Note_on_c, 0, 52, 50
1, 1371010, Control_c, 0, 64, 74
1, 1371010, Control_c, 0, 67, 46
1, 1371025, Control_c, 0, 64, 80
1, 1371025, Control_c, 0, 67, 44
1, 1371035, Note_off_c, 0, 52, 55
1, 1371040, Control_c, 0, 64, 87
1, 1371040, Control_c, 0, 67, 40
1, 1371055, Control_c, 0, 64, 92
1, 1371055, Control_c, 0, 67, 32
1, 1371071, Control_c, 0, 64, 97
1, 1371071, Control_c, 0, 67, 23
1, 1371085, Control_c, 0, 64, 99
1, 1371085, Control_c, 0, 67, 12
1, 1371100, Control_c, 0, 64, 103
1, 1371100, Control_c, 0, 67, 0
1, 1371115, Control_c, 0, 64, 108
1, 1371130, Control_c, 0, 64, 113
1, 1371145, Control_c, 0, 64, 122
1, 1371159, Control_c, 0, 64, 127
1, 1371196, Note_off_c, 0, 73, 38
1, 1371223, Note_on_c, 0, 70, 71
1, 1371241, Note_on_c, 0, 85, 74
1, 1371405, Note_off_c, 0, 72, 23
1, 1371425, Note_on_c, 0, 67, 67
1, 1371432, Note_on_c, 0, 84, 83
1, 1371436, Note_off_c, 0, 70, 61
1, 1371458, Note_off_c, 0, 64, 63
1, 1371477, Note_off_c, 0, 67, 56
1, 1371569, Note_off_c, 0, 85, 40
1, 1371635, Note_on_c, 0, 64, 54
1, 1371640, Control_c, 0, 64, 109
1, 1371649, Note_on_c, 0, 82, 77
1, 1371652, Note_on_c, 0, 73, 77
1, 1371655, Control_c, 0, 64, 86
1, 1371670, Control_c, 0, 64, 69
1, 1371685, Control_c, 0, 64, 35
1, 1371700, Poly_aftertouch_c, 0, 72, 0
1, 1371700, Control_c, 0, 64, 0
1, 1371774, Control_c, 0, 64, 38
1, 1371789, Control_c, 0, 64, 61
1, 1371804, Control_c, 0, 64, 66
1, 1371805, Note_off_c, 0, 84, 53
1, 1371819, Control_c, 0, 64, 71
1, 1371834, Control_c, 0, 64, 77
1, 1371849, Control_c, 0, 64, 83
1, 1371853, Note_on_c, 0, 79, 71
1, 1371853, Note_off_c, 0, 82, 63
1, 1371856, Note_on_c, 0, 72, 62
1, 1371864, Control_c, 0, 64, 90
1, 1371872, Note_off_c, 0, 79, 68
1, 1371879, Control_c, 0, 64, 95
1, 1371894, Control_c, 0, 64, 99
1, 1371909, Control_c, 0, 64, 103
1, 1371924, Control_c, 0, 64, 107
1, 1371939, Control_c, 0, 64, 109
1, 1371953, Control_c, 0, 64, 112
1, 1371968, Control_c, 0, 64, 113
1, 1371983, Control_c, 0, 64, 114
1, 1371998, Control_c, 0, 64, 114
1, 1372085, Note_on_c, 0, 70, 64
1, 1372090, Note_off_c, 0, 73, 37
1, 1372103, Note_on_c, 0, 61, 53
1, 1372272, Control_c, 0, 67, 8
1, 1372287, Control_c, 0, 67, 9
1, 1372302, Control_c, 0, 67, 11
1, 1372315, Note_on_c, 0, 67, 51
1, 1372316, Control_c, 0, 67, 13
1, 1372320, Note_on_c, 0, 60, 57
1, 1372320, Note_off_c, 0, 72, 46
1, 1372328, Note_off_c, 0, 70, 38
1, 1372331, Control_c, 0, 67, 15
1, 1372346, Control_c, 0, 67, 18
1, 1372348, Note_off_c, 0, 64, 62
1, 1372357, Note_off_c, 0, 67, 62
1, 1372360, Control_c, 0, 67, 21
1, 1372361, Note_off_c, 0, 61, 57
1, 1372375, Control_c, 0, 67, 25
1, 1372390, Control_c, 0, 67, 29
1, 1372405, Control_c, 0, 64, 114
1, 1372405, Control_c, 0, 67, 33
1, 1372420, Control_c, 0, 67, 38
1, 1372434, Control_c, 0, 67, 41
1, 1372449, Control_c, 0, 64, 113
1, 1372449, Control_c, 0, 67, 45
1, 1372464, Control_c, 0, 64, 111
1, 1372464, Control_c, 0, 67, 48
1, 1372479, Control_c, 0, 64, 109
1, 1372479, Control_c, 0, 67, 51
1, 1372494, Control_c, 0, 64, 106
1, 1372494, Control_c, 0, 67, 55
1, 1372508, Control_c, 0, 64, 102
1, 1372508, Control_c, 0, 67, 60
1, 1372523, Control_c, 0, 64, 96
1, 1372523, Control_c, 0, 67, 64
1, 1372538, Control_c, 0, 64, 89
1, 1372538, Control_c, 0, 67, 69
1, 1372553, Control_c, 0, 64, 81
1, 1372553, Control_c, 0, 67, 74
1, 1372566, Control_c, 0, 64, 73
1, 1372566, Control_c, 0, 67, 80
1, 1372581, Control_c, 0, 64, 65
1, 1372581, Control_c, 0, 67, 86
1, 1372592, Note_on_c, 0, 73, 41
1, 1372596, Control_c, 0, 64, 45
1, 1372596, Control_c, 0, 67, 94
1, 1372601, Note_on_c, 0, 58, 40
1, 1372611, Control_c, 0, 64, 0
1, 1372611, Control_c, 0, 67, 102
1, 1372615, Note_on_c, 0, 63, 37
1, 1372626, Control_c, 0, 67, 110
1, 1372630, Note_off_c, 0, 60, 57
1, 1372640, Control_c, 0, 67, 118
1, 1372656, Control_c, 0, 67, 126
1, 1372671, Control_c, 0, 67, 127
1, 1372833, Note_off_c, 0, 58, 59
1, 1372834, Control_c, 0, 64, 55
1, 1372849, Control_c, 0, 64, 64
1, 1372862, Note_on_c, 0, 55, 42
1, 1372863, Note_on_c, 0, 72, 46
1, 1372863, Control_c, 0, 64, 71
1, 1372878, Control_c, 0, 64, 77
1, 1372887, Note_off_c, 0, 55, 57
1, 1372893, Control_c, 0, 64, 84
1, 1372908, Control_c, 0, 64, 91
1, 1372923, Control_c, 0, 64, 96
1, 1372937, Control_c, 0, 64, 100
1, 1372941, Note_off_c, 0, 73, 43
1, 1372952, Control_c, 0, 64, 104
1, 1372967, Control_c, 0, 64, 109
1, 1372989, Control_c, 0, 64, 116
1, 1373004, Control_c, 0, 64, 127
1, 1373103, Note_on_c, 0, 70, 48
1, 1373112, Note_on_c, 0, 85, 55
1, 1373123, Note_off_c, 0, 72, 38
1, 1373277, Note_off_c, 0, 70, 53
1, 1373316, Note_on_c, 0, 84, 61
1, 1373320, Note_on_c, 0, 67, 42
1, 1373356, Note_off_c, 0, 67, 51
1, 1373357, Note_off_c, 0, 63, 58
1, 1373413, Note_off_c, 0, 85, 36
1, 1373533, Note_on_c, 0, 63, 33
1, 1373535, Note_on_c, 0, 73, 50
1, 1373538, Note_on_c, 0, 82, 58
1, 1373539, Control_c, 0, 64, 97
1, 1373553, Control_c, 0, 64, 78
1, 1373568, Control_c, 0, 64, 64
1, 1373583, Control_c, 0, 64, 26
1, 1373598, Control_c, 0, 64, 11
1, 1373612, Control_c, 0, 64, 33
1, 1373627, Control_c, 0, 64, 55
1, 1373640, Note_off_c, 0, 84, 34
1, 1373642, Control_c, 0, 64, 64
1, 1373657, Control_c, 0, 64, 68
1, 1373672, Control_c, 0, 64, 73
1, 1373686, Control_c, 0, 64, 79
1, 1373701, Control_c, 0, 64, 85
1, 1373716, Control_c, 0, 64, 92
1, 1373738, Note_off_c, 0, 82, 62
1, 1373739, Control_c, 0, 64, 99
1, 1373753, Control_c, 0, 64, 103
1, 1373754, Note_on_c, 0, 72, 47
1, 1373768, Control_c, 0, 64, 106
1, 1373771, Note_off_c, 0, 73, 37
1, 1373783, Control_c, 0, 64, 110
1, 1373798, Control_c, 0, 64, 114
1, 1373806, Poly_aftertouch_c, 0, 79, 127
1, 1373812, Control_c, 0, 64, 119
1, 1373827, Control_c, 0, 64, 127
1, 1373835, Poly_aftertouch_c, 0, 79, 0
1, 1373983, Note_on_c, 0, 70, 39
1, 1373986, Note_on_c, 0, 61, 55
1, 1374088, Note_off_c, 0, 72, 29
1, 1374151, Note_off_c, 0, 70, 55
1, 1374178, Note_off_c, 0, 63, 51
1, 1374190, Note_on_c, 0, 67, 46
1, 1374200, Note_on_c, 0, 60, 52
1, 1374215, Note_off_c, 0, 67, 59
1, 1374239, Note_off_c, 0, 61, 56
1, 1374447, Note_on_c, 0, 58, 49
1, 1374479, Note_on_c, 0, 49, 55
1, 1374487, Control_c, 0, 64, 124
1, 1374502, Control_c, 0, 64, 118
1, 1374505, Note_off_c, 0, 60, 38
1, 1374517, Control_c, 0, 64, 114
1, 1374532, Control_c, 0, 64, 110
1, 1374547, Control_c, 0, 64, 106
1, 1374561, Control_c, 0, 64, 102
1, 1374576, Control_c, 0, 64, 98
1, 1374591, Control_c, 0, 64, 93
1, 1374606, Control_c, 0, 64, 89
1, 1374621, Control_c, 0, 64, 85
1, 1374635, Control_c, 0, 64, 81
1, 1374650, Control_c, 0, 64, 78
1, 1374665, Control_c, 0, 64, 75
1, 1374680, Control_c, 0, 64, 72
1, 1374695, Control_c, 0, 64, 70
1, 1374709, Control_c, 0, 64, 67
1, 1374713, Note_on_c, 0, 55, 39
1, 1374724, Control_c, 0, 64, 66
1, 1374733, Note_off_c, 0, 58, 37
1, 1374739, Control_c, 0, 64, 66
1, 1374768, Control_c, 0, 64, 65
1, 1374783, Control_c, 0, 64, 64
1, 1374798, Control_c, 0, 64, 64
1, 1374813, Control_c, 0, 64, 63
1, 1374827, Control_c, 0, 64, 63
1, 1374842, Control_c, 0, 64, 62
1, 1374857, Control_c, 0, 64, 61
1, 1374872, Control_c, 0, 64, 61
1, 1374887, Control_c, 0, 64, 60
1, 1374902, Control_c, 0, 64, 59
1, 1374917, Control_c, 0, 64, 57
1, 1374931, Control_c, 0, 64, 56
1, 1374946, Control_c, 0, 64, 56
1, 1374961, Note_on_c, 0, 48, 40
1, 1374961, Control_c, 0, 64, 55
1, 1374976, Control_c, 0, 64, 54
1, 1374991, Control_c, 0, 64, 53
1, 1375006, Control_c, 0, 64, 51
1, 1375021, Control_c, 0, 64, 50
1, 1375035, Control_c, 0, 64, 50
1, 1375051, Control_c, 0, 64, 49
1, 1375066, Control_c, 0, 64, 48
1, 1375080, Control_c, 0, 64, 47
1, 1375095, Control_c, 0, 64, 47
1, 1375110, Control_c, 0, 64, 46
1, 1375120, Note_off_c, 0, 55, 36
1, 1375140, Control_c, 0, 64, 46
1, 1375148, Note_off_c, 0, 49, 38
1, 1375170, Control_c, 0, 64, 45
1, 1375236, Control_c, 0, 64, 45
1, 1375295, Control_c, 0, 64, 44
1, 1375443, Note_on_c, 0, 46, 37
1, 1375562, Control_c, 0, 64, 45
1, 1375596, Note_off_c, 0, 48, 49
1, 1375680, Control_c, 0, 64, 45
1, 1375709, Control_c, 0, 64, 46
1, 1375739, Control_c, 0, 64, 46
1, 1375784, Control_c, 0, 64, 47
1, 1375859, Control_c, 0, 64, 47
1, 1375888, Control_c, 0, 64, 48
1, 1375903, Control_c, 0, 64, 48
1, 1375918, Control_c, 0, 64, 49
1, 1375929, Note_on_c, 0, 43, 37
1, 1375948, Control_c, 0, 64, 50
1, 1375963, Control_c, 0, 64, 50
1, 1375985, Control_c, 0, 64, 51
1, 1376000, Control_c, 0, 64, 51
1, 1376014, Note_off_c, 0, 46, 43
1, 1376014, Control_c, 0, 64, 52
1, 1376029, Control_c, 0, 64, 52
1, 1376044, Control_c, 0, 64, 53
1, 1376059, Control_c, 0, 64, 53
1, 1376074, Control_c, 0, 64, 54
1, 1376088, Control_c, 0, 64, 54
1, 1376103, Control_c, 0, 64, 55
1, 1376133, Control_c, 0, 64, 55
1, 1376177, Control_c, 0, 64, 56
1, 1376192, Control_c, 0, 64, 56
1, 1376216, Note_off_c, 0, 43, 58
1, 1376237, Control_c, 0, 64, 57
1, 1376279, Note_on_c, 0, 51, 59
1, 1376320, Note_off_c, 0, 51, 62
1, 1376340, Control_c, 0, 64, 56
1, 1376370, Control_c, 0, 64, 55
1, 1376385, Control_c, 0, 64, 55
1, 1376408, Note_on_c, 0, 56, 65
1, 1376413, Note_on_c, 0, 63, 61
1, 1376414, Control_c, 0, 64, 54
1, 1376428, Note_on_c, 0, 48, 39
1, 1376431, Note_on_c, 0, 36, 34
1, 1376431, Note_off_c, 0, 56, 65
1, 1376442, Note_off_c, 0, 63, 66
1, 1376518, Control_c, 0, 64, 55
1, 1376644, Note_off_c, 0, 48, 54
1, 1376652, Control_c, 0, 64, 55
1, 1376682, Control_c, 0, 64, 56
1, 1376708, Note_on_c, 0, 63, 67
1, 1376749, Control_c, 0, 64, 56
1, 1376756, Note_off_c, 0, 63, 58
1, 1376823, Control_c, 0, 64, 56
1, 1376853, Note_on_c, 0, 65, 70
1, 1376854, Note_on_c, 0, 46, 53
1, 1376859, Note_on_c, 0, 34, 51
1, 1376859, Note_on_c, 0, 56, 56
1, 1376860, Note_off_c, 0, 36, 54
1, 1376868, Note_on_c, 0, 61, 45
1, 1376879, Note_off_c, 0, 65, 67
1, 1376884, Note_off_c, 0, 56, 59
1, 1376896, Note_off_c, 0, 61, 54
1, 1377109, Note_on_c, 0, 65, 69
1, 1377111, Note_off_c, 0, 46, 61
1, 1377113, Note_on_c, 0, 56, 66
1, 1377134, Control_c, 0, 64, 55
1, 1377144, Note_off_c, 0, 56, 64
1, 1377147, Note_off_c, 0, 65, 61
1, 1377163, Control_c, 0, 64, 55
1, 1377178, Control_c, 0, 64, 54
1, 1377193, Control_c, 0, 64, 50
1, 1377208, Control_c, 0, 64, 35
1, 1377222, Control_c, 0, 64, 0
1, 1377257, Note_on_c, 0, 56, 63
1, 1377258, Note_off_c, 0, 34, 59
1, 1377263, Note_on_c, 0, 60, 63
1, 1377269, Note_on_c, 0, 32, 60
1, 1377276, Note_on_c, 0, 44, 56
1, 1377278, Note_off_c, 0, 56, 65
1, 1377284, Note_off_c, 0, 60, 64
1, 1377480, Note_on_c, 0, 58, 56
1, 1377482, Note_on_c, 0, 61, 61
1, 1377486, Note_off_c, 0, 44, 64
1, 1377504, Note_off_c, 0, 58, 60
1, 1377513, Note_off_c, 0, 61, 60
1, 1377537, Note_on_c, 0, 60, 70
1, 1377541, Note_on_c, 0, 63, 70
1, 1377562, Note_off_c, 0, 60, 70
1, 1377566, Note_off_c, 0, 63, 69
1, 1377723, Note_on_c, 0, 39, 56
1, 1377725, Note_on_c, 0, 27, 56
1, 1377728, Note_off_c, 0, 32, 60
1, 1377853, Control_c, 0, 64, 26
1, 1377868, Control_c, 0, 64, 60
1, 1377883, Control_c, 0, 64, 68
1, 1377897, Control_c, 0, 64, 76
1, 1377912, Control_c, 0, 64, 89
1, 1377927, Control_c, 0, 64, 104
1, 1377942, Control_c, 0, 64, 127
1, 1377942, Note_off_c, 0, 27, 61
1, 1377953, Note_off_c, 0, 39, 60
1, 1377986, Control_c, 0, 67, 122
1, 1378001, Control_c, 0, 67, 117
1, 1378016, Control_c, 0, 67, 112
1, 1378031, Control_c, 0, 67, 107
1, 1378045, Control_c, 0, 67, 102
1, 1378056, Note_on_c, 0, 63, 66
1, 1378060, Control_c, 0, 67, 98
1, 1378075, Control_c, 0, 67, 94
1, 1378090, Control_c, 0, 67, 89
1, 1378104, Control_c, 0, 67, 86
1, 1378119, Control_c, 0, 67, 85
1, 1378134, Control_c, 0, 67, 84
1, 1378261, Control_c, 0, 67, 85
1, 1378264, Note_on_c, 0, 57, 58
1, 1378265, Note_on_c, 0, 47, 48
1, 1378275, Note_on_c, 0, 35, 43
1, 1378276, Control_c, 0, 64, 102
1, 1378291, Control_c, 0, 64, 81
1, 1378306, Control_c, 0, 64, 60
1, 1378321, Control_c, 0, 64, 0
1, 1378350, Control_c, 0, 67, 84
1, 1378365, Control_c, 0, 67, 84
1, 1378380, Control_c, 0, 67, 83
1, 1378395, Control_c, 0, 64, 27
1, 1378395, Control_c, 0, 67, 82
1, 1378409, Control_c, 0, 64, 61
1, 1378409, Control_c, 0, 67, 81
1, 1378424, Control_c, 0, 64, 67
1, 1378424, Control_c, 0, 67, 77
1, 1378439, Control_c, 0, 64, 73
1, 1378439, Control_c, 0, 67, 72
1, 1378454, Control_c, 0, 64, 79
1, 1378454, Control_c, 0, 67, 67
1, 1378469, Control_c, 0, 64, 87
1, 1378469, Control_c, 0, 67, 62
1, 1378483, Control_c, 0, 64, 96
1, 1378483, Control_c, 0, 67, 56
1, 1378498, Control_c, 0, 64, 104
1, 1378498, Control_c, 0, 67, 51
1, 1378513, Control_c, 0, 64, 116
1, 1378513, Control_c, 0, 67, 45
1, 1378527, Control_c, 0, 64, 127
1, 1378527, Control_c, 0, 67, 40
1, 1378542, Control_c, 0, 67, 34
1, 1378547, Note_off_c, 0, 47, 63
1, 1378558, Control_c, 0, 67, 29
1, 1378573, Control_c, 0, 67, 24
1, 1378588, Control_c, 0, 67, 19
1, 1378602, Control_c, 0, 67, 15
1, 1378617, Control_c, 0, 67, 11
1, 1378632, Control_c, 0, 67, 0
1, 1378637, Note_on_c, 0, 65, 70
1, 1378672, Note_off_c, 0, 57, 60
1, 1378686, Note_off_c, 0, 63, 58
1, 1378848, Note_on_c, 0, 46, 53
1, 1378854, Control_c, 0, 64, 103
1, 1378857, Note_on_c, 0, 66, 64
1, 1378863, Note_on_c, 0, 58, 53
1, 1378864, Note_on_c, 0, 34, 47
1, 1378869, Control_c, 0, 64, 87
1, 1378884, Control_c, 0, 64, 72
1, 1378899, Control_c, 0, 64, 53
1, 1378914, Control_c, 0, 64, 0
1, 1378926, Note_off_c, 0, 65, 59
1, 1378991, Note_off_c, 0, 35, 50
1, 1379114, Control_c, 0, 64, 46
1, 1379129, Control_c, 0, 64, 63
1, 1379144, Control_c, 0, 64, 70
1, 1379158, Control_c, 0, 64, 76
1, 1379173, Control_c, 0, 64, 85
1, 1379188, Control_c, 0, 64, 95
1, 1379203, Control_c, 0, 64, 105
1, 1379218, Control_c, 0, 64, 115
1, 1379233, Control_c, 0, 64, 127
1, 1379271, Note_off_c, 0, 46, 53
1, 1379272, Note_on_c, 0, 65, 62
1, 1379350, Note_off_c, 0, 58, 36
1, 1379510, Note_on_c, 0, 33, 40
1, 1379512, Note_on_c, 0, 63, 50
1, 1379514, Control_c, 0, 64, 123
1, 1379519, Note_on_c, 0, 59, 51
1, 1379529, Control_c, 0, 64, 97
1, 1379537, Note_on_c, 0, 45, 38
1, 1379543, Note_off_c, 0, 66, 29
1, 1379544, Control_c, 0, 64, 83
1, 1379558, Control_c, 0, 64, 71
1, 1379558, Control_c, 0, 67, 8
1, 1379573, Control_c, 0, 64, 58
1, 1379588, Control_c, 0, 64, 0
1, 1379588, Control_c, 0, 67, 8
1, 1379603, Control_c, 0, 67, 9
1, 1379618, Control_c, 0, 67, 10
1, 1379632, Control_c, 0, 67, 10
1, 1379647, Control_c, 0, 67, 11
1, 1379655, Note_off_c, 0, 34, 31
1, 1379662, Control_c, 0, 67, 13
1, 1379667, Note_off_c, 0, 65, 35
1, 1379677, Control_c, 0, 67, 15
1, 1379692, Control_c, 0, 67, 17
1, 1379707, Control_c, 0, 67, 19
1, 1379729, Control_c, 0, 67, 21
1, 1379744, Control_c, 0, 67, 23
1, 1379758, Control_c, 0, 67, 26
1, 1379773, Control_c, 0, 67, 30
1, 1379788, Control_c, 0, 67, 34
1, 1379803, Control_c, 0, 67, 38
1, 1379818, Control_c, 0, 67, 42
1, 1379832, Control_c, 0, 67, 45
1, 1379848, Control_c, 0, 64, 14
1, 1379848, Control_c, 0, 67, 49
1, 1379863, Control_c, 0, 64, 57
1, 1379863, Control_c, 0, 67, 52
1, 1379878, Control_c, 0, 64, 64
1, 1379878, Control_c, 0, 67, 55
1, 1379893, Control_c, 0, 64, 68
1, 1379893, Control_c, 0, 67, 58
1, 1379908, Control_c, 0, 64, 71
1, 1379908, Control_c, 0, 67, 61
1, 1379922, Control_c, 0, 64, 75
1, 1379922, Control_c, 0, 67, 64
1, 1379937, Control_c, 0, 64, 78
1, 1379937, Control_c, 0, 67, 66
1, 1379952, Control_c, 0, 64, 81
1, 1379952, Control_c, 0, 67, 69
1, 1379967, Control_c, 0, 64, 84
1, 1379967, Control_c, 0, 67, 71
1, 1379981, Control_c, 0, 64, 87
1, 1379981, Control_c, 0, 67, 74
1, 1379996, Control_c, 0, 64, 89
1, 1379996, Control_c, 0, 67, 78
1, 1380011, Control_c, 0, 64, 92
1, 1380011, Control_c, 0, 67, 81
1, 1380026, Control_c, 0, 64, 95
1, 1380026, Control_c, 0, 67, 85
1, 1380041, Control_c, 0, 64, 97
1, 1380041, Control_c, 0, 67, 88
1, 1380055, Control_c, 0, 64, 100
1, 1380055, Control_c, 0, 67, 92
1, 1380070, Control_c, 0, 64, 102
1, 1380070, Control_c, 0, 67, 96
1, 1380085, Control_c, 0, 64, 105
1, 1380085, Control_c, 0, 67, 100
1, 1380100, Control_c, 0, 64, 108
1, 1380100, Control_c, 0, 67, 104
1, 1380115, Control_c, 0, 64, 110
1, 1380115, Control_c, 0, 67, 107
1, 1380129, Control_c, 0, 64, 113
1, 1380129, Control_c, 0, 67, 111
1, 1380144, Control_c, 0, 64, 115
1, 1380144, Control_c, 0, 67, 115
1, 1380159, Control_c, 0, 64, 117
1, 1380159, Control_c, 0, 67, 119
1, 1380160, Note_off_c, 0, 45, 43
1, 1380173, Control_c, 0, 64, 119
1, 1380173, Control_c, 0, 67, 122
1, 1380188, Control_c, 0, 64, 120
1, 1380188, Control_c, 0, 67, 126
1, 1380203, Control_c, 0, 64, 121
1, 1380203, Control_c, 0, 67, 127
1, 1380246, Note_on_c, 0, 65, 44
1, 1380305, Note_off_c, 0, 63, 45
1, 1380407, Note_off_c, 0, 59, 53
1, 1380566, Control_c, 0, 64, 120
1, 1380610, Control_c, 0, 64, 119
1, 1380625, Control_c, 0, 64, 118
1, 1380640, Control_c, 0, 64, 116
1, 1380656, Control_c, 0, 64, 115
1, 1380670, Control_c, 0, 64, 113
1, 1380685, Control_c, 0, 64, 111
1, 1380700, Control_c, 0, 64, 109
1, 1380715, Control_c, 0, 64, 107
1, 1380729, Control_c, 0, 64, 104
1, 1380744, Control_c, 0, 64, 101
1, 1380759, Control_c, 0, 64, 96
1, 1380762, Note_on_c, 0, 60, 31
1, 1380774, Control_c, 0, 64, 92
1, 1380780, Note_on_c, 0, 32, 31
1, 1380780, Note_on_c, 0, 66, 34
1, 1380789, Control_c, 0, 64, 88
1, 1380791, Note_on_c, 0, 44, 25
1, 1380804, Control_c, 0, 64, 84
1, 1380819, Control_c, 0, 64, 79
1, 1380831, Note_off_c, 0, 33, 40
1, 1380834, Control_c, 0, 64, 74
1, 1380849, Control_c, 0, 64, 69
1, 1380856, Note_off_c, 0, 65, 45
1, 1380863, Control_c, 0, 64, 63
1, 1380878, Control_c, 0, 64, 58
1, 1380893, Control_c, 0, 64, 51
1, 1380908, Control_c, 0, 64, 43
1, 1380922, Control_c, 0, 64, 36
1, 1380937, Control_c, 0, 64, 28
1, 1380952, Control_c, 0, 64, 23
1, 1380967, Control_c, 0, 64, 19
1, 1380982, Control_c, 0, 64, 17
1, 1380996, Control_c, 0, 64, 14
1, 1381011, Control_c, 0, 64, 0
1, 1381270, Control_c, 0, 64, 44
1, 1381285, Control_c, 0, 64, 58
1, 1381300, Control_c, 0, 64, 63
1, 1381315, Control_c, 0, 64, 65
1, 1381329, Control_c, 0, 64, 67
1, 1381344, Control_c, 0, 64, 70
1, 1381359, Control_c, 0, 64, 72
1, 1381374, Control_c, 0, 64, 74
1, 1381389, Control_c, 0, 64, 76
1, 1381403, Control_c, 0, 64, 79
1, 1381418, Control_c, 0, 64, 82
1, 1381433, Control_c, 0, 64, 86
1, 1381449, Control_c, 0, 64, 89
1, 1381464, Control_c, 0, 64, 92
1, 1381479, Control_c, 0, 64, 96
1, 1381493, Control_c, 0, 64, 99
1, 1381508, Control_c, 0, 64, 103
1, 1381523, Control_c, 0, 64, 108
1, 1381538, Control_c, 0, 64, 113
1, 1381553, Control_c, 0, 64, 124
1, 1381568, Control_c, 0, 64, 127
1, 1381577, Note_off_c, 0, 32, 35
1, 1381588, Note_off_c, 0, 44, 39
1, 1381667, Note_off_c, 0, 66, 40
1, 1381791, Note_off_c, 0, 60, 38
1, 1381835, Control_c, 0, 67, 125
1, 1381850, Control_c, 0, 67, 121
1, 1381865, Control_c, 0, 67, 114
1, 1381880, Control_c, 0, 67, 105
1, 1381894, Control_c, 0, 67, 97
1, 1381909, Control_c, 0, 67, 87
1, 1381924, Control_c, 0, 67, 75
1, 1381938, Control_c, 0, 67, 62
1, 1381953, Control_c, 0, 67, 48
1, 1381975, Control_c, 0, 67, 34
1, 1381990, Control_c, 0, 67, 18
1, 1382005, Control_c, 0, 67, 0
1, 1382109, Control_c, 0, 64, 107
1, 1382124, Control_c, 0, 64, 74
1, 1382139, Control_c, 0, 64, 0
1, 1382243, Control_c, 0, 64, 70
1, 1382258, Control_c, 0, 64, 110
1, 1382259, Note_on_c, 0, 43, 95
1, 1382266, Note_on_c, 0, 31, 77
1, 1382273, Note_on_c, 0, 60, 103
1, 1382273, Control_c, 0, 64, 127
1, 1382281, Note_off_c, 0, 43, 69
1, 1382290, Note_off_c, 0, 31, 61
1, 1382438, Note_on_c, 0, 44, 13
1, 1382439, Note_on_c, 0, 42, 32
1, 1382476, Note_off_c, 0, 42, 52
1, 1382484, Note_on_c, 0, 63, 86
1, 1382491, Note_on_c, 0, 72, 87
1, 1382491, Note_on_c, 0, 51, 98
1, 1382494, Note_off_c, 0, 60, 66
1, 1382494, Note_on_c, 0, 39, 94
1, 1382494, Control_c, 0, 64, 86
1, 1382508, Note_off_c, 0, 72, 72
1, 1382509, Note_off_c, 0, 63, 65
1, 1382509, Control_c, 0, 64, 53
1, 1382511, Note_off_c, 0, 44, 39
1, 1382517, Note_off_c, 0, 39, 70
1, 1382518, Note_off_c, 0, 51, 68
1, 1382524, Control_c, 0, 64, 0
1, 1382568, Control_c, 0, 64, 29
1, 1382568, Control_c, 0, 67, 8
1, 1382583, Control_c, 0, 64, 61
1, 1382598, Control_c, 0, 64, 64
1, 1382598, Control_c, 0, 67, 8
1, 1382613, Control_c, 0, 64, 65
1, 1382643, Control_c, 0, 64, 64
1, 1382643, Note_on_c, 0, 61, 38
1, 1382670, Note_on_c, 0, 50, 90
1, 1382673, Note_on_c, 0, 38, 88
1, 1382679, Note_off_c, 0, 61, 48
1, 1382726, Note_off_c, 0, 50, 66
1, 1382740, Note_off_c, 0, 38, 62
1, 1382751, Note_on_c, 0, 67, 80
1, 1382754, Control_c, 0, 64, 65
1, 1382765, Note_on_c, 0, 60, 72
1, 1382768, Control_c, 0, 64, 65
1, 1382783, Control_c, 0, 64, 66
1, 1382788, Note_off_c, 0, 60, 69
1, 1382813, Control_c, 0, 64, 65
1, 1382826, Note_off_c, 0, 67, 58
1, 1382828, Control_c, 0, 64, 54
1, 1382828, Control_c, 0, 67, 9
1, 1382833, Note_on_c, 0, 48, 99
1, 1382833, Note_on_c, 0, 63, 79
1, 1382835, Note_on_c, 0, 36, 90
1, 1382837, Note_on_c, 0, 55, 88
1, 1382843, Control_c, 0, 64, 0
1, 1382852, Note_off_c, 0, 48, 72
1, 1382856, Note_off_c, 0, 63, 67
1, 1382857, Note_off_c, 0, 36, 70
1, 1382858, Note_off_c, 0, 55, 70
1, 1382932, Control_c, 0, 67, 8
1, 1382962, Control_c, 0, 67, 8
1, 1382976, Control_c, 0, 67, 0
1, 1383019, Note_on_c, 0, 60, 87
1, 1383020, Note_on_c, 0, 43, 96
1, 1383020, Note_on_c, 0, 51, 96
1, 1383024, Note_on_c, 0, 31, 97
1, 1383041, Note_off_c, 0, 43, 72
1, 1383049, Note_off_c, 0, 31, 71
1, 1383054, Note_off_c, 0, 51, 62
1, 1383061, Note_off_c, 0, 60, 68
1, 1383066, Control_c, 0, 64, 17
1, 1383081, Control_c, 0, 64, 28
1, 1383096, Control_c, 0, 64, 42
1, 1383111, Control_c, 0, 64, 52
1, 1383125, Control_c, 0, 64, 56
1, 1383140, Control_c, 0, 64, 59
1, 1383155, Control_c, 0, 64, 60
1, 1383199, Control_c, 0, 64, 59
1, 1383214, Note_on_c, 0, 55, 101
1, 1383215, Note_on_c, 0, 27, 96
1, 1383218, Note_on_c, 0, 39, 86
1, 1383219, Note_on_c, 0, 48, 83
1, 1383228, Note_on_c, 0, 37, 67
1, 1383229, Control_c, 0, 64, 59
1, 1383242, Note_off_c, 0, 27, 66
1, 1383242, Note_off_c, 0, 39, 68
1, 1383243, Note_off_c, 0, 48, 69
1, 1383253, Note_off_c, 0, 37, 61
1, 1383254, Note_off_c, 0, 55, 63
1, 1383259, Control_c, 0, 64, 58
1, 1383273, Control_c, 0, 64, 58
1, 1383288, Control_c, 0, 64, 57
1, 1383327, Poly_aftertouch_c, 0, 26, 0
1, 1383411, Note_on_c, 0, 51, 100
1, 1383417, Note_on_c, 0, 48, 83
1, 1383419, Note_on_c, 0, 41, 103
1, 1383421, Control_c, 0, 64, 57
1, 1383424, Note_on_c, 0, 29, 90
1, 1383436, Control_c, 0, 64, 56
1, 1383439, Note_off_c, 0, 48, 67
1, 1383439, Note_off_c, 0, 51, 65
1, 1383448, Note_off_c, 0, 41, 65
1, 1383451, Control_c, 0, 64, 55
1, 1383452, Note_off_c, 0, 29, 70
1, 1383473, Control_c, 0, 64, 53
1, 1383488, Control_c, 0, 64, 52
1, 1383503, Control_c, 0, 64, 52
1, 1383517, Control_c, 0, 64, 50
1, 1383547, Control_c, 0, 64, 51
1, 1383591, Control_c, 0, 64, 51
1, 1383606, Control_c, 0, 64, 52
1, 1383621, Control_c, 0, 64, 54
1, 1383636, Control_c, 0, 64, 54
1, 1383651, Control_c, 0, 64, 55
1, 1383695, Control_c, 0, 64, 54
1, 1383710, Control_c, 0, 64, 34
1, 1383725, Control_c, 0, 64, 0
1, 1383726, Note_on_c, 0, 50, 95
1, 1383727, Note_on_c, 0, 48, 101
1, 1383730, Note_on_c, 0, 43, 97
1, 1383732, Note_on_c, 0, 31, 92
1, 1383859, Control_c, 0, 64, 67
1, 1383874, Control_c, 0, 64, 79
1, 1383888, Control_c, 0, 64, 91
1, 1383903, Control_c, 0, 64, 119
1, 1383918, Control_c, 0, 64, 127
1, 1384467, Note_on_c, 0, 47, 92
1, 1384476, Note_off_c, 0, 48, 62
1, 1384488, Control_c, 0, 64, 113
1, 1384503, Control_c, 0, 64, 71
1, 1384518, Control_c, 0, 64, 0
1, 1384667, Control_c, 0, 64, 37
1, 1384682, Control_c, 0, 64, 74
1, 1384697, Control_c, 0, 64, 84
1, 1384712, Control_c, 0, 64, 102
1, 1384727, Control_c, 0, 64, 127
1, 1384971, Note_off_c, 0, 43, 53
1, 1385312, Note_on_c, 0, 48, 87
1, 1385314, Note_on_c, 0, 52, 88
1, 1385320, Note_on_c, 0, 43, 96
1, 1385323, Note_on_c, 0, 36, 90
1, 1385326, Control_c, 0, 64, 84
1, 1385336, Note_off_c, 0, 31, 48
1, 1385341, Control_c, 0, 64, 0
1, 1385341, Note_off_c, 0, 47, 65
1, 1385345, Note_off_c, 0, 50, 67
1, 1385549, Control_c, 0, 64, 60
1, 1385564, Control_c, 0, 64, 73
1, 1385579, Control_c, 0, 64, 79
1, 1385593, Control_c, 0, 64, 89
1, 1385608, Control_c, 0, 64, 108
1, 1385623, Control_c, 0, 64, 127
1, 1385895, Note_off_c, 0, 36, 47
1, 1385919, Note_off_c, 0, 48, 61
1, 1385928, Note_off_c, 0, 43, 59
1, 1385934, Note_off_c, 0, 52, 56
1, 1386541, Control_c, 0, 67, 8
1, 1386556, Control_c, 0, 67, 9
1, 1386571, Control_c, 0, 64, 83
1, 1386571, Control_c, 0, 67, 11
1, 1386586, Control_c, 0, 64, 0
1, 1386586, Control_c, 0, 67, 12
1, 1386601, Control_c, 0, 67, 13
1, 1386615, Control_c, 0, 67, 14
1, 1386630, Control_c, 0, 67, 15
1, 1386645, Control_c, 0, 67, 16
1, 1386689, Control_c, 0, 67, 15
1, 1386704, Control_c, 0, 67, 14
1, 1386719, Control_c, 0, 64, 19
1, 1386719, Control_c, 0, 67, 13
1, 1386730, Note_on_c, 0, 48, 67
1, 1386734, Control_c, 0, 64, 69
1, 1386734, Control_c, 0, 67, 11
1, 1386734, Note_on_c, 0, 60, 73
1, 1386748, Control_c, 0, 64, 82
1, 1386748, Control_c, 0, 67, 9
1, 1386760, Note_off_c, 0, 60, 69
1, 1386763, Control_c, 0, 64, 106
1, 1386763, Control_c, 0, 67, 0
1, 1386767, Note_on_c, 0, 50, 57
1, 1386778, Control_c, 0, 64, 127
1, 1386782, Note_on_c, 0, 62, 82
1, 1386790, Note_off_c, 0, 48, 61
1, 1386793, Note_on_c, 0, 52, 73
1, 1386807, Note_off_c, 0, 62, 67
1, 1386809, Note_off_c, 0, 50, 61
1, 1386810, Note_on_c, 0, 64, 74
1, 1386825, Note_off_c, 0, 52, 65
1, 1386834, Note_off_c, 0, 64, 70
1, 1386859, Note_on_c, 0, 55, 58
1, 1386876, Note_on_c, 0, 65, 70
1, 1386880, Note_off_c, 0, 55, 61
1, 1386905, Note_on_c, 0, 57, 82
1, 1386912, Note_off_c, 0, 65, 63
1, 1386912, Note_on_c, 0, 67, 90
1, 1386933, Note_on_c, 0, 69, 79
1, 1386934, Note_on_c, 0, 59, 76
1, 1386962, Note_off_c, 0, 57, 63
1, 1386973, Note_on_c, 0, 72, 96
1, 1386979, Note_on_c, 0, 71, 78
1, 1386983, Note_on_c, 0, 60, 102
1, 1386983, Note_off_c, 0, 67, 60
1, 1386986, Control_c, 0, 64, 102
1, 1386989, Note_off_c, 0, 69, 60
1, 1386998, Note_off_c, 0, 59, 64
1, 1387001, Control_c, 0, 64, 67
1, 1387003, Note_off_c, 0, 71, 68
1, 1387007, Note_off_c, 0, 72, 71
1, 1387011, Note_off_c, 0, 60, 71
1, 1387015, Control_c, 0, 64, 0
1, 1387135, Control_c, 0, 64, 24
1, 1387150, Control_c, 0, 64, 44
1, 1387164, Control_c, 0, 64, 53
1, 1387179, Control_c, 0, 64, 57
1, 1387194, Control_c, 0, 64, 58
1, 1387216, Control_c, 0, 64, 59
1, 1387231, Control_c, 0, 64, 59
1, 1387246, Control_c, 0, 64, 60
1, 1387260, Control_c, 0, 64, 61
1, 1387275, Control_c, 0, 64, 59
1, 1387290, Control_c, 0, 64, 44
1, 1387305, Control_c, 0, 64, 0
1, 1387344, Note_on_c, 0, 73, 98
1, 1387350, Note_on_c, 0, 61, 93
1, 1387350, Note_on_c, 0, 70, 88
1, 1387354, Note_on_c, 0, 58, 85
1, 1387394, Control_c, 0, 64, 54
1, 1387409, Control_c, 0, 64, 87
1, 1387424, Control_c, 0, 64, 127
1, 1387524, Note_off_c, 0, 58, 55
1, 1387535, Note_off_c, 0, 61, 60
1, 1387608, Note_off_c, 0, 73, 60
1, 1387615, Note_off_c, 0, 70, 60
1, 1387675, Control_c, 0, 64, 90
1, 1387687, Note_on_c, 0, 72, 89
1, 1387687, Note_on_c, 0, 60, 81
1, 1387689, Note_on_c, 0, 56, 82
1, 1387690, Control_c, 0, 64, 64
1, 1387692, Note_on_c, 0, 68, 78
1, 1387705, Control_c, 0, 64, 0
1, 1387710, Note_off_c, 0, 60, 70
1, 1387714, Note_off_c, 0, 68, 66
1, 1387717, Note_off_c, 0, 56, 67
1, 1387725, Note_off_c, 0, 72, 64
1, 1387854, Control_c, 0, 64, 27
1, 1387857, Note_on_c, 0, 70, 86
1, 1387858, Note_on_c, 0, 55, 72
1, 1387861, Note_on_c, 0, 67, 80
1, 1387866, Note_on_c, 0, 58, 74
1, 1387869, Control_c, 0, 64, 31
1, 1387883, Note_off_c, 0, 67, 69
1, 1387883, Control_c, 0, 64, 32
1, 1387890, Note_off_c, 0, 70, 63
1, 1387892, Note_off_c, 0, 55, 66
1, 1387893, Note_off_c, 0, 58, 65
1, 1387898, Control_c, 0, 64, 35
1, 1387913, Control_c, 0, 64, 37
1, 1387928, Control_c, 0, 64, 41
1, 1387943, Control_c, 0, 64, 45
1, 1387965, Control_c, 0, 64, 47
1, 1387980, Control_c, 0, 64, 43
1, 1387994, Control_c, 0, 64, 0
1, 1388032, Note_on_c, 0, 65, 79
1, 1388034, Note_on_c, 0, 56, 84
1, 1388034, Note_on_c, 0, 68, 90
1, 1388035, Note_on_c, 0, 53, 80
1, 1388051, Note_off_c, 0, 68, 72
1, 1388053, Note_off_c, 0, 65, 71
1, 1388056, Note_off_c, 0, 53, 69
1, 1388057, Note_off_c, 0, 56, 70
1, 1388265, Note_on_c, 0, 55, 76
1, 1388273, Note_on_c, 0, 58, 67
1, 1388275, Note_on_c, 0, 70, 73
1, 1388276, Note_on_c, 0, 67, 72
1, 1388295, Note_off_c, 0, 55, 67
1, 1388297, Note_off_c, 0, 70, 70
1, 1388301, Note_off_c, 0, 58, 67
1, 1388301, Note_off_c, 0, 67, 67
1, 1388330, Note_on_c, 0, 68, 93
1, 1388338, Note_on_c, 0, 72, 84
1, 1388339, Note_on_c, 0, 56, 80
1, 1388348, Note_on_c, 0, 60, 73
1, 1388357, Note_off_c, 0, 68, 64
1, 1388359, Note_off_c, 0, 72, 69
1, 1388362, Note_off_c, 0, 56, 71
1, 1388365, Note_off_c, 0, 60, 66
1, 1388366, Control_c, 0, 67, 8
1, 1388380, Control_c, 0, 67, 9
1, 1388395, Control_c, 0, 67, 9
1, 1388454, Control_c, 0, 67, 9
1, 1388469, Control_c, 0, 67, 8
1, 1388484, Control_c, 0, 67, 0
1, 1388513, Control_c, 0, 64, 66
1, 1388528, Control_c, 0, 64, 88
1, 1388543, Control_c, 0, 64, 127
1, 1388855, Note_on_c, 0, 48, 89
1, 1388902, Note_off_c, 0, 48, 64
1, 1388950, Note_on_c, 0, 60, 15
1, 1388992, Note_off_c, 0, 60, 55
1, 1389024, Note_on_c, 0, 44, 90
1, 1389024, Note_on_c, 0, 51, 97
1, 1389025, Control_c, 0, 64, 97
1, 1389028, Note_on_c, 0, 56, 86
1, 1389031, Note_on_c, 0, 60, 79
1, 1389031, Note_on_c, 0, 32, 92
1, 1389040, Control_c, 0, 64, 68
1, 1389053, Note_off_c, 0, 44, 67
1, 1389055, Control_c, 0, 64, 0
1, 1389055, Note_off_c, 0, 32, 69
1, 1389067, Note_off_c, 0, 51, 66
1, 1389092, Note_off_c, 0, 60, 64
1, 1389094, Note_off_c, 0, 56, 63
1, 1389248, Control_c, 0, 64, 21
1, 1389262, Control_c, 0, 64, 24
1, 1389292, Control_c, 0, 64, 19
1, 1389307, Control_c, 0, 64, 0
1, 1389386, Note_on_c, 0, 61, 90
1, 1389391, Note_on_c, 0, 56, 86
1, 1389392, Note_on_c, 0, 53, 88
1, 1389395, Note_on_c, 0, 25, 93
1, 1389395, Note_on_c, 0, 37, 94
1, 1389441, Control_c, 0, 64, 66
1, 1389463, Control_c, 0, 64, 127
1, 1389493, Poly_aftertouch_c, 0, 31, 127
1, 1389526, Note_off_c, 0, 37, 65
1, 1389544, Note_off_c, 0, 25, 61
1, 1389546, Note_off_c, 0, 53, 65
1, 1389550, Note_off_c, 0, 56, 64
1, 1389553, Note_off_c, 0, 61, 65
1, 1389559, Poly_aftertouch_c, 0, 31, 0
1, 1389559, Poly_aftertouch_c, 0, 26, 127
1, 1389596, Poly_aftertouch_c, 0, 26, 0
1, 1389718, Note_on_c, 0, 55, 30
1, 1389738, Note_on_c, 0, 60, 87
1, 1389744, Note_on_c, 0, 49, 84
1, 1389745, Control_c, 0, 64, 88
1, 1389747, Note_on_c, 0, 39, 94
1, 1389749, Note_on_c, 0, 27, 88
1, 1389759, Control_c, 0, 64, 62
1, 1389774, Control_c, 0, 64, 0
1, 1389795, Note_off_c, 0, 39, 61
1, 1389813, Note_off_c, 0, 27, 60
1, 1389821, Note_off_c, 0, 49, 61
1, 1389833, Note_off_c, 0, 60, 64
1, 1389848, Control_c, 0, 64, 26
1, 1389855, Note_off_c, 0, 55, 59
1, 1389863, Control_c, 0, 64, 40
1, 1389878, Control_c, 0, 64, 44
1, 1389893, Control_c, 0, 64, 46
1, 1389907, Control_c, 0, 64, 49
1, 1389908, Note_on_c, 0, 39, 88
1, 1389909, Note_on_c, 0, 27, 88
1, 1389909, Note_on_c, 0, 49, 89
1, 1389910, Note_on_c, 0, 58, 82
1, 1389922, Control_c, 0, 64, 51
1, 1389924, Note_on_c, 0, 55, 53
1, 1389937, Note_off_c, 0, 27, 69
1, 1389937, Control_c, 0, 64, 54
1, 1389947, Note_off_c, 0, 39, 58
1, 1389952, Control_c, 0, 64, 58
1, 1389957, Note_off_c, 0, 55, 64
1, 1389964, Note_off_c, 0, 49, 63
1, 1389967, Control_c, 0, 64, 60
1, 1389982, Note_off_c, 0, 58, 62
1, 1389982, Control_c, 0, 64, 62
1, 1389997, Control_c, 0, 64, 63
1, 1390012, Control_c, 0, 64, 62
1, 1390026, Control_c, 0, 64, 54
1, 1390041, Control_c, 0, 64, 0
1, 1390077, Note_on_c, 0, 44, 92
1, 1390077, Note_on_c, 0, 48, 85
1, 1390080, Note_on_c, 0, 56, 88
1, 1390082, Note_on_c, 0, 32, 84
1, 1390101, Note_off_c, 0, 44, 69
1, 1390102, Note_off_c, 0, 48, 67
1, 1390107, Note_off_c, 0, 32, 65
1, 1390108, Note_off_c, 0, 56, 66
1, 1390159, Control_c, 0, 64, 21
1, 1390174, Control_c, 0, 64, 36
1, 1390189, Control_c, 0, 64, 40
1, 1390211, Control_c, 0, 64, 44
1, 1390226, Control_c, 0, 64, 48
1, 1390242, Control_c, 0, 64, 53
1, 1390256, Control_c, 0, 64, 57
1, 1390271, Control_c, 0, 64, 59
1, 1390286, Control_c, 0, 64, 60
1, 1390301, Control_c, 0, 64, 61
1, 1390316, Control_c, 0, 64, 62
1, 1390331, Control_c, 0, 64, 62
1, 1390337, Note_on_c, 0, 32, 72
1, 1390343, Note_on_c, 0, 58, 82
1, 1390346, Control_c, 0, 64, 63
1, 1390346, Note_on_c, 0, 51, 76
1, 1390361, Control_c, 0, 64, 64
1, 1390366, Note_off_c, 0, 58, 69
1, 1390370, Note_off_c, 0, 51, 68
1, 1390375, Control_c, 0, 64, 63
1, 1390390, Control_c, 0, 64, 44
1, 1390399, Note_off_c, 0, 32, 61
1, 1390400, Note_on_c, 0, 44, 94
1, 1390402, Note_on_c, 0, 56, 88
1, 1390402, Note_on_c, 0, 60, 84
1, 1390405, Control_c, 0, 64, 0
1, 1390427, Note_off_c, 0, 44, 69
1, 1390429, Note_off_c, 0, 56, 68
1, 1390444, Note_off_c, 0, 60, 67
1, 1390596, Control_c, 0, 64, 23
1, 1390611, Control_c, 0, 64, 38
1, 1390626, Control_c, 0, 64, 46
1, 1390641, Control_c, 0, 64, 50
1, 1390656, Control_c, 0, 64, 53
1, 1390671, Control_c, 0, 64, 54
1, 1390685, Control_c, 0, 64, 56
1, 1390700, Control_c, 0, 64, 57
1, 1390715, Control_c, 0, 64, 58
1, 1390730, Control_c, 0, 64, 59
1, 1390745, Control_c, 0, 64, 61
1, 1390760, Control_c, 0, 64, 62
1, 1390775, Control_c, 0, 64, 63
1, 1390789, Control_c, 0, 64, 63
1, 1390960, Control_c, 0, 64, 63
1, 1390975, Note_on_c, 0, 56, 86
1, 1391109, Control_c, 0, 64, 62
1, 1391124, Control_c, 0, 64, 58
1, 1391138, Control_c, 0, 64, 54
1, 1391151, Note_on_c, 0, 58, 69
1, 1391152, Note_on_c, 0, 66, 70
1, 1391153, Control_c, 0, 64, 54
1, 1391156, Note_on_c, 0, 42, 80
1, 1391161, Note_off_c, 0, 56, 64
1, 1391162, Note_on_c, 0, 30, 73
1, 1391163, Note_on_c, 0, 61, 62
1, 1391197, Note_off_c, 0, 58, 60
1, 1391198, Control_c, 0, 64, 54
1, 1391201, Note_off_c, 0, 61, 64
1, 1391210, Note_off_c, 0, 66, 63
1, 1391212, Control_c, 0, 64, 56
1, 1391227, Control_c, 0, 64, 58
1, 1391242, Control_c, 0, 64, 60
1, 1391256, Control_c, 0, 64, 61
1, 1391271, Control_c, 0, 64, 62
1, 1391287, Control_c, 0, 64, 63
1, 1391302, Control_c, 0, 64, 63
1, 1391302, Control_c, 0, 67, 8
1, 1391317, Control_c, 0, 67, 10
1, 1391331, Control_c, 0, 67, 12
1, 1391346, Control_c, 0, 67, 14
1, 1391361, Control_c, 0, 67, 16
1, 1391376, Control_c, 0, 64, 61
1, 1391376, Control_c, 0, 67, 18
1, 1391391, Control_c, 0, 64, 54
1, 1391391, Control_c, 0, 67, 19
1, 1391405, Control_c, 0, 64, 0
1, 1391405, Control_c, 0, 67, 20
1, 1391420, Control_c, 0, 67, 20
1, 1391449, Control_c, 0, 67, 20
1, 1391464, Control_c, 0, 67, 19
1, 1391479, Control_c, 0, 67, 18
1, 1391494, Control_c, 0, 67, 17
1, 1391509, Control_c, 0, 67, 16
1, 1391519, Note_on_c, 0, 70, 89
1, 1391522, Note_on_c, 0, 58, 87
1, 1391523, Note_on_c, 0, 66, 79
1, 1391524, Control_c, 0, 67, 14
1, 1391538, Control_c, 0, 64, 59
1, 1391538, Control_c, 0, 67, 12
1, 1391553, Note_off_c, 0, 42, 63
1, 1391553, Control_c, 0, 64, 73
1, 1391553, Control_c, 0, 67, 9
1, 1391568, Control_c, 0, 64, 86
1, 1391568, Control_c, 0, 67, 0
1, 1391583, Control_c, 0, 64, 118
1, 1391598, Control_c, 0, 64, 127
1, 1391681, Note_on_c, 0, 32, 52
1, 1391689, Note_off_c, 0, 66, 60
1, 1391696, Note_off_c, 0, 70, 62
1, 1391696, Note_off_c, 0, 30, 61
1, 1391705, Note_on_c, 0, 44, 92
1, 1391713, Note_off_c, 0, 58, 62
1, 1391864, Note_on_c, 0, 65, 73
1, 1391866, Note_on_c, 0, 68, 85
1, 1391868, Note_on_c, 0, 56, 87
1, 1391873, Control_c, 0, 64, 84
1, 1391887, Control_c, 0, 64, 50
1, 1391902, Control_c, 0, 64, 0
1, 1391917, Control_c, 0, 64, 47
1, 1391919, Note_off_c, 0, 68, 64
1, 1391929, Note_off_c, 0, 56, 62
1, 1391932, Control_c, 0, 64, 66
1, 1391938, Note_off_c, 0, 65, 64
1, 1391947, Control_c, 0, 64, 75
1, 1391961, Control_c, 0, 64, 90
1, 1391976, Control_c, 0, 64, 127
1, 1392023, Note_off_c, 0, 44, 63
1, 1392027, Note_on_c, 0, 66, 90
1, 1392032, Note_on_c, 0, 54, 90
1, 1392057, Note_off_c, 0, 54, 66
1, 1392089, Note_off_c, 0, 66, 63
1, 1392184, Control_c, 0, 64, 95
1, 1392189, Note_on_c, 0, 65, 95
1, 1392191, Note_on_c, 0, 34, 53
1, 1392191, Note_on_c, 0, 53, 92
1, 1392195, Note_on_c, 0, 46, 89
1, 1392197, Note_on_c, 0, 61, 81
1, 1392199, Control_c, 0, 64, 64
1, 1392200, Note_off_c, 0, 32, 58
1, 1392212, Note_off_c, 0, 53, 74
1, 1392214, Control_c, 0, 64, 0
1, 1392218, Note_off_c, 0, 61, 69
1, 1392224, Note_off_c, 0, 65, 60
1, 1392361, Control_c, 0, 64, 27
1, 1392376, Control_c, 0, 64, 45
1, 1392391, Control_c, 0, 64, 47
1, 1392406, Control_c, 0, 64, 47
1, 1392420, Control_c, 0, 64, 43
1, 1392428, Note_on_c, 0, 60, 70
1, 1392433, Note_on_c, 0, 63, 72
1, 1392435, Control_c, 0, 64, 42
1, 1392437, Note_on_c, 0, 51, 68
1, 1392458, Control_c, 0, 64, 41
1, 1392460, Note_off_c, 0, 60, 68
1, 1392465, Note_off_c, 0, 63, 67
1, 1392467, Note_off_c, 0, 51, 64
1, 1392499, Note_on_c, 0, 49, 90
1, 1392502, Control_c, 0, 64, 43
1, 1392512, Note_on_c, 0, 58, 61
1, 1392517, Control_c, 0, 64, 45
1, 1392519, Note_on_c, 0, 62, 72
1, 1392520, Note_on_c, 0, 61, 52
1, 1392525, Note_off_c, 0, 49, 69
1, 1392532, Control_c, 0, 64, 47
1, 1392534, Note_on_c, 0, 59, 51
1, 1392536, Note_off_c, 0, 58, 61
1, 1392546, Note_off_c, 0, 62, 65
1, 1392547, Control_c, 0, 64, 50
1, 1392552, Note_off_c, 0, 61, 63
1, 1392557, Note_off_c, 0, 59, 57
1, 1392561, Control_c, 0, 64, 51
1, 1392570, Note_off_c, 0, 46, 62
1, 1392576, Control_c, 0, 64, 53
1, 1392584, Note_off_c, 0, 34, 61
1, 1392591, Control_c, 0, 64, 53
1, 1392605, Control_c, 0, 64, 54
1, 1392637, Control_c, 0, 64, 55
1, 1392651, Control_c, 0, 64, 54
1, 1392666, Control_c, 0, 64, 46
1, 1392681, Control_c, 0, 64, 21
1, 1392692, Note_on_c, 0, 48, 94
1, 1392695, Note_on_c, 0, 36, 82
1, 1392696, Control_c, 0, 64, 0
1, 1392720, Note_on_c, 0, 38, 53
1, 1392751, Note_off_c, 0, 38, 37
1, 1392888, Control_c, 0, 64, 26
1, 1392903, Control_c, 0, 64, 62
1, 1392918, Control_c, 0, 64, 71
1, 1392933, Control_c, 0, 64, 84
1, 1392948, Control_c, 0, 64, 107
1, 1392963, Control_c, 0, 64, 127
1, 1392988, Note_off_c, 0, 48, 63
1, 1393011, Note_on_c, 0, 51, 92
1, 1393014, Note_on_c, 0, 56, 85
1, 1393016, Note_on_c, 0, 63, 89
1, 1393032, Note_off_c, 0, 51, 71
1, 1393036, Note_off_c, 0, 56, 71
1, 1393064, Note_off_c, 0, 63, 64
1, 1393184, Control_c, 0, 64, 121
1, 1393189, Note_on_c, 0, 65, 93
1, 1393189, Note_on_c, 0, 61, 83
1, 1393201, Note_on_c, 0, 53, 83
1, 1393202, Note_on_c, 0, 49, 90
1, 1393205, Note_on_c, 0, 37, 72
1, 1393207, Control_c, 0, 64, 81
1, 1393222, Control_c, 0, 64, 0
1, 1393225, Note_off_c, 0, 53, 70
1, 1393231, Note_off_c, 0, 36, 51
1, 1393264, Note_off_c, 0, 65, 64
1, 1393266, Note_off_c, 0, 61, 61
1, 1393325, Control_c, 0, 64, 28
1, 1393340, Control_c, 0, 64, 40
1, 1393355, Control_c, 0, 64, 46
1, 1393370, Control_c, 0, 64, 51
1, 1393384, Control_c, 0, 64, 54
1, 1393399, Control_c, 0, 64, 56
1, 1393445, Control_c, 0, 64, 52
1, 1393459, Control_c, 0, 64, 24
1, 1393474, Control_c, 0, 64, 0
1, 1393529, Note_off_c, 0, 49, 63
1, 1393539, Note_on_c, 0, 77, 98
1, 1393542, Note_on_c, 0, 65, 93
1, 1393545, Note_on_c, 0, 73, 89
1, 1393563, Control_c, 0, 64, 65
1, 1393578, Control_c, 0, 64, 82
1, 1393593, Control_c, 0, 64, 127
1, 1393694, Note_off_c, 0, 65, 64
1, 1393695, Note_off_c, 0, 77, 61
1, 1393710, Note_off_c, 0, 73, 63
1, 1393711, Note_on_c, 0, 39, 71
1, 1393714, Note_on_c, 0, 51, 97
1, 1393721, Note_off_c, 0, 37, 51
1, 1393874, Control_c, 0, 64, 93
1, 1393875, Note_on_c, 0, 72, 77
1, 1393878, Note_on_c, 0, 75, 83
1, 1393881, Note_on_c, 0, 63, 86
1, 1393889, Control_c, 0, 64, 68
1, 1393904, Control_c, 0, 64, 0
1, 1393933, Control_c, 0, 64, 64
1, 1393937, Note_off_c, 0, 75, 65
1, 1393938, Note_off_c, 0, 63, 61
1, 1393953, Note_off_c, 0, 72, 64
1, 1393956, Control_c, 0, 64, 74
1, 1393970, Control_c, 0, 64, 89
1, 1393983, Note_off_c, 0, 51, 63
1, 1393985, Control_c, 0, 64, 127
1, 1393987, Note_off_c, 0, 39, 59
1, 1394045, Note_on_c, 0, 73, 92
1, 1394048, Note_on_c, 0, 61, 87
1, 1394064, Note_on_c, 0, 70, 59
1, 1394084, Note_off_c, 0, 70, 64
1, 1394087, Note_off_c, 0, 61, 64
1, 1394105, Note_off_c, 0, 73, 61
1, 1394207, Control_c, 0, 64, 91
1, 1394210, Note_on_c, 0, 72, 97
1, 1394216, Note_on_c, 0, 60, 84
1, 1394218, Note_on_c, 0, 41, 84
1, 1394220, Note_on_c, 0, 53, 85
1, 1394222, Control_c, 0, 64, 66
1, 1394236, Note_off_c, 0, 60, 71
1, 1394238, Control_c, 0, 64, 0
1, 1394239, Note_on_c, 0, 68, 42
1, 1394240, Note_off_c, 0, 68, 127
1, 1394251, Note_off_c, 0, 72, 65
1, 1394297, Control_c, 0, 64, 17
1, 1394312, Control_c, 0, 64, 49
1, 1394327, Control_c, 0, 64, 55
1, 1394342, Control_c, 0, 64, 57
1, 1394356, Control_c, 0, 64, 61
1, 1394371, Control_c, 0, 64, 64
1, 1394386, Control_c, 0, 64, 66
1, 1394401, Control_c, 0, 64, 67
1, 1394416, Control_c, 0, 64, 69
1, 1394430, Control_c, 0, 64, 69
1, 1394442, Note_on_c, 0, 70, 78
1, 1394443, Note_on_c, 0, 58, 79
1, 1394446, Note_on_c, 0, 67, 64
1, 1394460, Control_c, 0, 64, 67
1, 1394465, Note_off_c, 0, 58, 70
1, 1394468, Note_off_c, 0, 70, 65
1, 1394473, Note_off_c, 0, 67, 64
1, 1394474, Control_c, 0, 64, 51
1, 1394489, Control_c, 0, 64, 0
1, 1394511, Note_on_c, 0, 56, 88
1, 1394512, Note_on_c, 0, 66, 85
1, 1394515, Note_on_c, 0, 68, 85
1, 1394537, Note_off_c, 0, 56, 68
1, 1394546, Note_off_c, 0, 53, 65
1, 1394555, Note_off_c, 0, 66, 63
1, 1394563, Note_off_c, 0, 68, 61
1, 1394701, Note_on_c, 0, 43, 74
1, 1394706, Note_on_c, 0, 55, 91
1, 1394743, Note_off_c, 0, 41, 32
1, 1394793, Control_c, 0, 64, 51
1, 1394808, Control_c, 0, 64, 69
1, 1394823, Control_c, 0, 64, 82
1, 1394838, Control_c, 0, 64, 127
1, 1394979, Note_off_c, 0, 55, 61
1, 1395033, Note_on_c, 0, 58, 92
1, 1395035, Note_on_c, 0, 63, 86
1, 1395035, Note_on_c, 0, 70, 92
1, 1395051, Note_off_c, 0, 58, 72
1, 1395055, Note_off_c, 0, 63, 69
1, 1395078, Note_off_c, 0, 70, 65
1, 1395179, Control_c, 0, 64, 119
1, 1395194, Control_c, 0, 64, 83
1, 1395205, Note_on_c, 0, 44, 74
1, 1395205, Note_on_c, 0, 72, 93
1, 1395207, Note_on_c, 0, 56, 83
1, 1395208, Note_on_c, 0, 68, 85
1, 1395209, Note_on_c, 0, 60, 82
1, 1395209, Control_c, 0, 64, 49
1, 1395223, Control_c, 0, 64, 0
1, 1395228, Note_off_c, 0, 43, 65
1, 1395228, Note_off_c, 0, 60, 71
1, 1395269, Note_off_c, 0, 72, 63
1, 1395276, Note_off_c, 0, 68, 61
1, 1395468, Control_c, 0, 64, 54
1, 1395483, Control_c, 0, 64, 68
1, 1395487, Note_off_c, 0, 44, 64
1, 1395498, Control_c, 0, 64, 87
1, 1395512, Control_c, 0, 64, 127
1, 1395522, Note_off_c, 0, 56, 62
1, 1395537, Note_on_c, 0, 84, 96
1, 1395541, Note_on_c, 0, 72, 97
1, 1395544, Note_on_c, 0, 80, 92
1, 1395655, Note_on_c, 0, 82, 44
1, 1395669, Note_off_c, 0, 72, 59
1, 1395672, Note_off_c, 0, 84, 59
1, 1395681, Note_off_c, 0, 82, 56
1, 1395690, Note_off_c, 0, 80, 62
1, 1395713, Note_on_c, 0, 45, 94
1, 1395713, Note_on_c, 0, 57, 96
1, 1395825, Control_c, 0, 64, 101
1, 1395839, Control_c, 0, 64, 75
1, 1395854, Control_c, 0, 64, 55
1, 1395869, Control_c, 0, 64, 63
1, 1395872, Note_on_c, 0, 80, 84
1, 1395878, Note_on_c, 0, 68, 85
1, 1395878, Note_on_c, 0, 77, 78
1, 1395884, Control_c, 0, 64, 72
1, 1395899, Control_c, 0, 64, 84
1, 1395914, Control_c, 0, 64, 114
1, 1395928, Control_c, 0, 64, 127
1, 1395946, Note_off_c, 0, 68, 60
1, 1395946, Note_off_c, 0, 80, 63
1, 1395952, Note_off_c, 0, 77, 64
1, 1395962, Note_off_c, 0, 57, 65
1, 1396039, Note_on_c, 0, 78, 94
1, 1396041, Note_on_c, 0, 66, 97
1, 1396076, Note_off_c, 0, 66, 62
1, 1396094, Note_off_c, 0, 78, 64
1, 1396180, Control_c, 0, 64, 107
1, 1396202, Control_c, 0, 64, 77
1, 1396206, Note_on_c, 0, 73, 94
1, 1396206, Note_on_c, 0, 77, 91
1, 1396207, Note_on_c, 0, 58, 91
1, 1396209, Note_on_c, 0, 65, 82
1, 1396210, Note_on_c, 0, 46, 74
1, 1396217, Control_c, 0, 64, 0
1, 1396227, Note_off_c, 0, 45, 61
1, 1396229, Note_off_c, 0, 65, 72
1, 1396255, Note_off_c, 0, 73, 63
1, 1396258, Note_off_c, 0, 77, 65
1, 1396306, Control_c, 0, 64, 29
1, 1396321, Control_c, 0, 64, 41
1, 1396335, Control_c, 0, 64, 46
1, 1396350, Control_c, 0, 64, 49
1, 1396365, Control_c, 0, 64, 48
1, 1396380, Control_c, 0, 64, 34
1, 1396395, Control_c, 0, 64, 0
1, 1396513, Control_c, 0, 64, 67
1, 1396528, Control_c, 0, 64, 82
1, 1396541, Note_on_c, 0, 89, 106
1, 1396542, Note_on_c, 0, 77, 101
1, 1396543, Control_c, 0, 64, 127
1, 1396544, Note_on_c, 0, 85, 94
1, 1396544, Note_off_c, 0, 46, 63
1, 1396555, Note_off_c, 0, 58, 63
1, 1396737, Note_on_c, 0, 59, 97
1, 1396740, Note_on_c, 0, 47, 96
1, 1396751, Control_c, 0, 64, 80
1, 1396766, Control_c, 0, 64, 0
1, 1396767, Note_off_c, 0, 89, 62
1, 1396779, Note_off_c, 0, 77, 60
1, 1396785, Note_on_c, 0, 87, 30
1, 1396796, Control_c, 0, 64, 54
1, 1396805, Note_off_c, 0, 85, 64
1, 1396811, Control_c, 0, 64, 71
1, 1396814, Note_off_c, 0, 87, 47
1, 1396825, Control_c, 0, 64, 96
1, 1396840, Control_c, 0, 64, 127
1, 1396923, Note_off_c, 0, 47, 62
1, 1396928, Note_off_c, 0, 59, 58
1, 1397072, Note_on_c, 0, 73, 90
1, 1397072, Note_on_c, 0, 85, 86
1, 1397079, Note_on_c, 0, 77, 71
1, 1397084, Note_on_c, 0, 80, 68
1, 1397150, Note_off_c, 0, 73, 57
1, 1397160, Note_off_c, 0, 85, 63
1, 1397162, Note_on_c, 0, 48, 68
1, 1397188, Note_off_c, 0, 77, 50
1, 1397196, Note_on_c, 0, 53, 64
1, 1397208, Note_on_c, 0, 56, 69
1, 1397208, Note_off_c, 0, 80, 52
1, 1397232, Control_c, 0, 64, 89
1, 1397247, Control_c, 0, 64, 29
1, 1397258, Note_on_c, 0, 60, 95
1, 1397261, Note_on_c, 0, 72, 101
1, 1397262, Control_c, 0, 64, 0
1, 1397263, Note_on_c, 0, 84, 96
1, 1397266, Note_on_c, 0, 77, 82
1, 1397268, Note_on_c, 0, 80, 76
1, 1397273, Note_on_c, 0, 62, 54
1, 1397274, Note_off_c, 0, 62, 127
1, 1397288, Note_off_c, 0, 60, 66
1, 1397289, Note_off_c, 0, 72, 70
1, 1397291, Note_off_c, 0, 48, 59
1, 1397291, Note_off_c, 0, 53, 65
1, 1397293, Note_off_c, 0, 56, 66
1, 1397300, Note_off_c, 0, 77, 64
1, 1397306, Control_c, 0, 64, 71
1, 1397313, Note_off_c, 0, 84, 66
1, 1397321, Control_c, 0, 64, 98
1, 1397325, Note_off_c, 0, 80, 64
1, 1397336, Control_c, 0, 64, 127
1, 1397370, Poly_aftertouch_c, 0, 51, 0
1, 1397455, Control_c, 0, 64, 99
1, 1397470, Control_c, 0, 64, 77
1, 1397485, Control_c, 0, 64, 57
1, 1397500, Control_c, 0, 64, 0
1, 1397515, Control_c, 0, 64, 26
1, 1397530, Control_c, 0, 64, 51
1, 1397545, Control_c, 0, 64, 58
1, 1397559, Control_c, 0, 64, 59
1, 1397574, Control_c, 0, 64, 49
1, 1397589, Control_c, 0, 64, 0
1, 1397598, Note_on_c, 0, 36, 96
1, 1397598, Note_on_c, 0, 84, 88
1, 1397673, Note_on_c, 0, 96, 92
1, 1397683, Note_on_c, 0, 92, 80
1, 1397705, Note_off_c, 0, 84, 65
1, 1397764, Note_on_c, 0, 94, 86
1, 1397765, Note_on_c, 0, 48, 97
1, 1397767, Note_on_c, 0, 91, 84
1, 1397791, Note_off_c, 0, 96, 64
1, 1397792, Note_off_c, 0, 92, 66
1, 1397818, Control_c, 0, 64, 41
1, 1397825, Note_off_c, 0, 91, 66
1, 1397833, Control_c, 0, 64, 74
1, 1397837, Note_off_c, 0, 94, 66
1, 1397848, Control_c, 0, 64, 81
1, 1397852, Note_on_c, 0, 82, 85
1, 1397863, Control_c, 0, 64, 86
1, 1397878, Control_c, 0, 64, 87
1, 1397878, Note_off_c, 0, 82, 66
1, 1397892, Control_c, 0, 64, 88
1, 1397907, Control_c, 0, 64, 88
1, 1397952, Note_on_c, 0, 80, 86
1, 1397966, Control_c, 0, 64, 87
1, 1397981, Control_c, 0, 64, 84
1, 1397996, Control_c, 0, 64, 76
1, 1398011, Control_c, 0, 64, 67
1, 1398020, Note_on_c, 0, 92, 82
1, 1398022, Note_on_c, 0, 89, 80
1, 1398024, Control_c, 0, 64, 62
1, 1398031, Note_off_c, 0, 80, 62
1, 1398039, Control_c, 0, 64, 64
1, 1398054, Control_c, 0, 64, 69
1, 1398069, Control_c, 0, 64, 75
1, 1398084, Control_c, 0, 64, 85
1, 1398093, Note_on_c, 0, 91, 80
1, 1398099, Control_c, 0, 64, 99
1, 1398104, Note_on_c, 0, 87, 85
1, 1398114, Control_c, 0, 64, 121
1, 1398129, Control_c, 0, 64, 127
1, 1398134, Note_off_c, 0, 89, 58
1, 1398159, Note_off_c, 0, 91, 65
1, 1398159, Note_off_c, 0, 92, 61
1, 1398175, Note_on_c, 0, 79, 83
1, 1398191, Note_off_c, 0, 87, 65
1, 1398205, Note_off_c, 0, 79, 59
1, 1398216, Note_off_c, 0, 36, 61
1, 1398231, Note_off_c, 0, 48, 61
1, 1398267, Note_on_c, 0, 77, 92
1, 1398330, Note_on_c, 0, 89, 91
1, 1398337, Note_off_c, 0, 77, 44
1, 1398346, Note_on_c, 0, 85, 75
1, 1398403, Note_on_c, 0, 87, 78
1, 1398416, Note_on_c, 0, 84, 78
1, 1398427, Note_off_c, 0, 89, 57
1, 1398446, Note_off_c, 0, 85, 63
1, 1398481, Note_off_c, 0, 87, 64
1, 1398492, Note_off_c, 0, 84, 62
1, 1398501, Note_on_c, 0, 75, 73
1, 1398521, Note_off_c, 0, 75, 71
1, 1398552, Control_c, 0, 64, 98
1, 1398567, Control_c, 0, 64, 71
1, 1398582, Control_c, 0, 64, 0
1, 1398587, Note_on_c, 0, 73, 90
1, 1398588, Note_on_c, 0, 52, 61
1, 1398590, Note_on_c, 0, 55, 68
1, 1398616, Note_off_c, 0, 52, 62
1, 1398640, Control_c, 0, 64, 59
1, 1398655, Control_c, 0, 64, 67
1, 1398657, Note_on_c, 0, 85, 82
1, 1398662, Note_off_c, 0, 73, 44
1, 1398665, Note_on_c, 0, 82, 74
1, 1398670, Control_c, 0, 64, 71
1, 1398685, Control_c, 0, 64, 73
1, 1398700, Control_c, 0, 64, 75
1, 1398714, Control_c, 0, 64, 76
1, 1398734, Note_on_c, 0, 53, 67
1, 1398734, Note_off_c, 0, 55, 62
1, 1398739, Note_on_c, 0, 56, 72
1, 1398741, Note_on_c, 0, 84, 68
1, 1398743, Note_on_c, 0, 80, 79
1, 1398758, Note_off_c, 0, 82, 29
1, 1398773, Control_c, 0, 64, 75
1, 1398786, Note_off_c, 0, 85, 59
1, 1398803, Control_c, 0, 64, 74
1, 1398805, Note_off_c, 0, 84, 64
1, 1398811, Note_on_c, 0, 72, 74
1, 1398818, Control_c, 0, 64, 72
1, 1398823, Note_off_c, 0, 80, 61
1, 1398833, Control_c, 0, 64, 64
1, 1398836, Note_off_c, 0, 72, 68
1, 1398847, Control_c, 0, 64, 0
1, 1398866, Note_off_c, 0, 56, 65
1, 1398877, Note_on_c, 0, 55, 70
1, 1398885, Note_on_c, 0, 58, 85
1, 1398885, Note_off_c, 0, 53, 64
1, 1398907, Note_on_c, 0, 70, 89
1, 1398922, Control_c, 0, 64, 23
1, 1398937, Control_c, 0, 64, 65
1, 1398952, Control_c, 0, 64, 73
1, 1398966, Control_c, 0, 64, 82
1, 1398971, Note_on_c, 0, 82, 82
1, 1398981, Control_c, 0, 64, 93
1, 1398984, Note_off_c, 0, 70, 62
1, 1398996, Control_c, 0, 64, 102
1, 1399009, Note_on_c, 0, 79, 44
1, 1399011, Control_c, 0, 64, 112
1, 1399017, Note_on_c, 0, 80, 63
1, 1399026, Control_c, 0, 64, 127
1, 1399040, Note_on_c, 0, 60, 82
1, 1399044, Note_on_c, 0, 77, 82
1, 1399046, Note_on_c, 0, 56, 87
1, 1399056, Note_off_c, 0, 58, 60
1, 1399066, Note_off_c, 0, 55, 65
1, 1399081, Note_off_c, 0, 60, 61
1, 1399086, Note_off_c, 0, 82, 58
1, 1399089, Note_off_c, 0, 79, 51
1, 1399092, Note_off_c, 0, 80, 56
1, 1399110, Note_on_c, 0, 68, 84
1, 1399113, Note_off_c, 0, 77, 61
1, 1399140, Note_off_c, 0, 68, 62
1, 1399160, Control_c, 0, 64, 90
1, 1399175, Control_c, 0, 64, 64
1, 1399197, Control_c, 0, 64, 0
1, 1399203, Note_off_c, 0, 56, 60
1, 1399205, Note_on_c, 0, 58, 85
1, 1399206, Note_on_c, 0, 61, 88
1, 1399208, Note_on_c, 0, 79, 96
1, 1399210, Note_on_c, 0, 67, 100
1, 1399217, Note_on_c, 0, 76, 82
1, 1399226, Note_off_c, 0, 61, 70
1, 1399226, Control_c, 0, 64, 55
1, 1399230, Note_off_c, 0, 67, 66
1, 1399235, Note_off_c, 0, 58, 65
1, 1399241, Control_c, 0, 64, 67
1, 1399242, Note_off_c, 0, 76, 65
1, 1399242, Note_off_c, 0, 79, 63
1, 1399256, Control_c, 0, 64, 78
1, 1399270, Control_c, 0, 64, 93
1, 1399285, Control_c, 0, 64, 126
1, 1399300, Control_c, 0, 64, 127
1, 1399493, Control_c, 0, 64, 92
1, 1399498, Note_on_c, 0, 45, 90
1, 1399504, Note_on_c, 0, 66, 92
1, 1399508, Control_c, 0, 64, 66
1, 1399510, Note_on_c, 0, 33, 86
1, 1399523, Control_c, 0, 64, 0
1, 1399535, Note_off_c, 0, 45, 66
1, 1399567, Control_c, 0, 64, 47
1, 1399572, Note_on_c, 0, 78, 83
1, 1399582, Note_on_c, 0, 75, 70
1, 1399582, Control_c, 0, 64, 67
1, 1399586, Note_off_c, 0, 66, 61
1, 1399596, Control_c, 0, 64, 76
1, 1399610, Note_off_c, 0, 75, 52
1, 1399611, Control_c, 0, 64, 87
1, 1399626, Control_c, 0, 64, 100
1, 1399641, Control_c, 0, 64, 113
1, 1399656, Control_c, 0, 64, 127
1, 1399658, Note_off_c, 0, 33, 59
1, 1399659, Note_on_c, 0, 46, 97
1, 1399664, Note_on_c, 0, 73, 83
1, 1399665, Note_on_c, 0, 34, 76
1, 1399692, Note_off_c, 0, 34, 64
1, 1399704, Note_off_c, 0, 46, 62
1, 1399721, Note_on_c, 0, 65, 75
1, 1399722, Note_off_c, 0, 78, 61
1, 1399736, Note_off_c, 0, 73, 61
1, 1399753, Note_off_c, 0, 65, 63
1, 1399804, Control_c, 0, 64, 87
1, 1399819, Control_c, 0, 64, 65
1, 1399821, Note_on_c, 0, 48, 91
1, 1399824, Note_on_c, 0, 36, 87
1, 1399826, Note_on_c, 0, 63, 85
1, 1399834, Control_c, 0, 64, 0
1, 1399864, Control_c, 0, 64, 27
1, 1399868, Note_off_c, 0, 48, 62
1, 1399879, Control_c, 0, 64, 63
1, 1399893, Control_c, 0, 64, 71
1, 1399896, Note_on_c, 0, 75, 81
1, 1399908, Note_off_c, 0, 63, 58
1, 1399908, Control_c, 0, 64, 80
1, 1399916, Note_on_c, 0, 72, 60
1, 1399923, Control_c, 0, 64, 93
1, 1399946, Control_c, 0, 64, 109
1, 1399961, Control_c, 0, 64, 127
1, 1399963, Note_on_c, 0, 73, 61
1, 1399969, Note_on_c, 0, 70, 77
1, 1399986, Note_on_c, 0, 49, 92
1, 1399987, Note_off_c, 0, 36, 51
1, 1399989, Note_on_c, 0, 37, 79
1, 1399999, Note_off_c, 0, 72, 61
1, 1400002, Note_off_c, 0, 75, 62
1, 1400015, Note_on_c, 0, 41, 17
1, 1400028, Note_off_c, 0, 73, 61
1, 1400032, Note_off_c, 0, 49, 63
1, 1400045, Note_on_c, 0, 61, 81
1, 1400060, Note_off_c, 0, 70, 62
1, 1400072, Note_off_c, 0, 41, 43
1, 1400078, Note_off_c, 0, 61, 61
1, 1400108, Control_c, 0, 64, 109
1, 1400123, Control_c, 0, 64, 70
1, 1400138, Note_off_c, 0, 37, 63
1, 1400138, Control_c, 0, 64, 0
1, 1400142, Note_on_c, 0, 39, 70
1, 1400147, Note_on_c, 0, 51, 88
1, 1400147, Note_on_c, 0, 60, 83
1, 1400209, Note_on_c, 0, 72, 82
1, 1400224, Note_on_c, 0, 68, 73
1, 1400229, Note_off_c, 0, 60, 59
1, 1400234, Note_off_c, 0, 39, 60
1, 1400236, Note_off_c, 0, 51, 65
1, 1400242, Control_c, 0, 64, 66
1, 1400257, Control_c, 0, 64, 76
1, 1400261, Note_on_c, 0, 70, 69
1, 1400272, Control_c, 0, 64, 91
1, 1400286, Control_c, 0, 64, 127
1, 1400296, Note_off_c, 0, 72, 62
1, 1400298, Note_on_c, 0, 66, 71
1, 1400302, Note_off_c, 0, 68, 55
1, 1400329, Note_off_c, 0, 70, 62
1, 1400356, Note_off_c, 0, 66, 55
1, 1400359, Note_on_c, 0, 58, 79
1, 1400382, Note_off_c, 0, 58, 68
1, 1400434, Control_c, 0, 64, 94
1, 1400449, Control_c, 0, 64, 67
1, 1400454, Note_on_c, 0, 56, 78
1, 1400464, Control_c, 0, 64, 53
1, 1400471, Note_on_c, 0, 72, 68
1, 1400479, Control_c, 0, 64, 65
1, 1400493, Control_c, 0, 64, 74
1, 1400508, Note_on_c, 0, 68, 77
1, 1400508, Control_c, 0, 64, 86
1, 1400518, Note_off_c, 0, 56, 63
1, 1400523, Control_c, 0, 64, 117
1, 1400537, Control_c, 0, 64, 127
1, 1400564, Note_on_c, 0, 65, 40
1, 1400567, Note_on_c, 0, 66, 45
1, 1400585, Note_on_c, 0, 63, 76
1, 1400615, Note_off_c, 0, 65, 60
1, 1400621, Note_on_c, 0, 75, 87
1, 1400621, Note_off_c, 0, 72, 61
1, 1400629, Note_off_c, 0, 66, 54
1, 1400633, Note_off_c, 0, 68, 46
1, 1400669, Note_on_c, 0, 54, 63
1, 1400689, Note_off_c, 0, 63, 60
1, 1400702, Note_off_c, 0, 54, 67
1, 1400739, Control_c, 0, 64, 99
1, 1400754, Control_c, 0, 64, 72
1, 1400764, Note_on_c, 0, 53, 84
1, 1400769, Control_c, 0, 64, 0
1, 1400771, Note_on_c, 0, 77, 82
1, 1400797, Note_on_c, 0, 73, 79
1, 1400798, Control_c, 0, 64, 50
1, 1400808, Note_off_c, 0, 77, 65
1, 1400812, Note_off_c, 0, 75, 62
1, 1400813, Control_c, 0, 64, 67
1, 1400828, Control_c, 0, 64, 79
1, 1400833, Note_on_c, 0, 65, 69
1, 1400836, Note_off_c, 0, 53, 63
1, 1400841, Note_on_c, 0, 61, 73
1, 1400842, Control_c, 0, 64, 98
1, 1400857, Control_c, 0, 64, 127
1, 1400911, Note_on_c, 0, 63, 68
1, 1400925, Note_on_c, 0, 60, 65
1, 1400931, Note_on_c, 0, 78, 93
1, 1400935, Note_on_c, 0, 75, 82
1, 1400970, Note_off_c, 0, 73, 61
1, 1400982, Note_off_c, 0, 65, 53
1, 1400986, Note_on_c, 0, 57, 82
1, 1400986, Note_off_c, 0, 60, 65
1, 1400987, Note_off_c, 0, 61, 50
1, 1400987, Note_off_c, 0, 78, 63
1, 1400992, Note_off_c, 0, 63, 60
1, 1401050, Control_c, 0, 64, 101
1, 1401065, Control_c, 0, 64, 64
1, 1401075, Note_off_c, 0, 57, 0
1, 1401080, Note_on_c, 0, 77, 95
1, 1401080, Control_c, 0, 64, 0
1, 1401085, Note_on_c, 0, 73, 81
1, 1401086, Note_on_c, 0, 58, 90
1, 1401087, Note_on_c, 0, 61, 93
1, 1401094, Note_on_c, 0, 57, 38
1, 1401096, Note_off_c, 0, 77, 74
1, 1401110, Note_off_c, 0, 75, 63
1, 1401117, Note_off_c, 0, 57, 57
1, 1401125, Note_off_c, 0, 73, 66
1, 1401131, Note_off_c, 0, 58, 66
1, 1401139, Control_c, 0, 64, 63
1, 1401143, Note_off_c, 0, 61, 66
1, 1401154, Control_c, 0, 64, 78
1, 1401169, Control_c, 0, 64, 106
1, 1401183, Control_c, 0, 64, 127
1, 1401190, Poly_aftertouch_c, 0, 63, 127
1, 1401220, Poly_aftertouch_c, 0, 63, 0
1, 1401406, Control_c, 0, 64, 89
1, 1401420, Note_on_c, 0, 73, 98
1, 1401421, Control_c, 0, 64, 60
1, 1401424, Note_on_c, 0, 42, 92
1, 1401440, Note_on_c, 0, 30, 88
1, 1401444, Control_c, 0, 64, 0
1, 1401473, Control_c, 0, 64, 60
1, 1401474, Note_off_c, 0, 42, 65
1, 1401488, Control_c, 0, 64, 73
1, 1401491, Note_on_c, 0, 85, 88
1, 1401503, Control_c, 0, 64, 89
1, 1401506, Note_off_c, 0, 73, 61
1, 1401512, Note_on_c, 0, 82, 72
1, 1401518, Control_c, 0, 64, 127
1, 1401536, Note_off_c, 0, 82, 67
1, 1401555, Poly_aftertouch_c, 0, 36, 127
1, 1401560, Note_on_c, 0, 36, 4
1, 1401578, Note_on_c, 0, 44, 93
1, 1401581, Note_on_c, 0, 32, 75
1, 1401585, Note_on_c, 0, 80, 71
1, 1401595, Note_off_c, 0, 30, 57
1, 1401614, Note_off_c, 0, 36, 46
1, 1401616, Note_off_c, 0, 32, 63
1, 1401620, Note_off_c, 0, 44, 64
1, 1401637, Note_off_c, 0, 85, 62
1, 1401638, Note_on_c, 0, 72, 74
1, 1401650, Note_off_c, 0, 80, 62
1, 1401655, Poly_aftertouch_c, 0, 42, 127
1, 1401664, Note_off_c, 0, 72, 65
1, 1401683, Poly_aftertouch_c, 0, 42, 0
1, 1401695, Control_c, 0, 64, 79
1, 1401710, Control_c, 0, 64, 11
1, 1401725, Control_c, 0, 64, 0
1, 1401730, Note_on_c, 0, 48, 90
1, 1401733, Note_on_c, 0, 36, 87
1, 1401739, Control_c, 0, 64, 53
1, 1401743, Note_on_c, 0, 70, 88
1, 1401754, Control_c, 0, 64, 68
1, 1401763, Note_off_c, 0, 48, 62
1, 1401769, Control_c, 0, 64, 84
1, 1401784, Control_c, 0, 64, 127
1, 1401804, Note_on_c, 0, 82, 86
1, 1401822, Note_off_c, 0, 70, 62
1, 1401837, Note_on_c, 0, 78, 56
1, 1401854, Note_on_c, 0, 80, 70
1, 1401880, Note_on_c, 0, 49, 96
1, 1401890, Note_on_c, 0, 37, 78
1, 1401900, Note_off_c, 0, 78, 60
1, 1401901, Note_off_c, 0, 36, 54
1, 1401916, Note_on_c, 0, 41, 26
1, 1401918, Note_off_c, 0, 82, 59
1, 1401926, Note_on_c, 0, 77, 42
1, 1401926, Note_off_c, 0, 80, 62
1, 1401929, Note_off_c, 0, 49, 64
1, 1401938, Note_on_c, 0, 68, 88
1, 1401952, Note_off_c, 0, 77, 58
1, 1401962, Note_off_c, 0, 41, 40
1, 1401978, Note_off_c, 0, 68, 62
1, 1402006, Control_c, 0, 64, 94
1, 1402021, Control_c, 0, 64, 58
1, 1402035, Note_off_c, 0, 37, 63
1, 1402036, Control_c, 0, 64, 0
1, 1402040, Note_on_c, 0, 39, 71
1, 1402043, Note_on_c, 0, 51, 95
1, 1402043, Note_on_c, 0, 66, 91
1, 1402073, Note_off_c, 0, 51, 65
1, 1402076, Note_off_c, 0, 39, 62
1, 1402080, Control_c, 0, 64, 48
1, 1402095, Control_c, 0, 64, 71
1, 1402110, Note_on_c, 0, 78, 76
1, 1402110, Control_c, 0, 64, 86
1, 1402120, Note_on_c, 0, 75, 69
1, 1402120, Note_off_c, 0, 66, 63
1, 1402125, Control_c, 0, 64, 127
1, 1402145, Note_on_c, 0, 79, 53
1, 1402168, Note_off_c, 0, 79, 58
1, 1402201, Note_on_c, 0, 73, 81
1, 1402223, Note_off_c, 0, 75, 59
1, 1402231, Note_on_c, 0, 77, 50
1, 1402248, Note_off_c, 0, 78, 61
1, 1402254, Note_off_c, 0, 77, 59
1, 1402263, Note_on_c, 0, 65, 73
1, 1402265, Note_off_c, 0, 73, 62
1, 1402299, Note_off_c, 0, 65, 62
1, 1402341, Control_c, 0, 64, 91
1, 1402356, Control_c, 0, 64, 66
1, 1402370, Control_c, 0, 64, 0
1, 1402371, Note_on_c, 0, 78, 89
1, 1402373, Note_on_c, 0, 63, 79
1, 1402385, Control_c, 0, 64, 58
1, 1402400, Control_c, 0, 64, 71
1, 1402414, Control_c, 0, 64, 84
1, 1402429, Control_c, 0, 64, 127
1, 1402440, Note_on_c, 0, 75, 75
1, 1402454, Note_on_c, 0, 72, 58
1, 1402455, Note_off_c, 0, 63, 61
1, 1402464, Note_on_c, 0, 73, 70
1, 1402502, Note_on_c, 0, 70, 78
1, 1402523, Note_off_c, 0, 75, 53
1, 1402529, Note_on_c, 0, 82, 91
1, 1402540, Note_off_c, 0, 72, 60
1, 1402540, Note_off_c, 0, 78, 61
1, 1402563, Note_off_c, 0, 73, 59
1, 1402571, Note_on_c, 0, 61, 76
1, 1402593, Note_off_c, 0, 70, 61
1, 1402603, Note_off_c, 0, 61, 64
1, 1402651, Control_c, 0, 64, 113
1, 1402666, Control_c, 0, 64, 75
1, 1402668, Note_on_c, 0, 84, 92
1, 1402671, Note_on_c, 0, 60, 86
1, 1402678, Note_on_c, 0, 80, 83
1, 1402681, Control_c, 0, 64, 0
1, 1402690, Note_off_c, 0, 82, 60
1, 1402710, Note_off_c, 0, 84, 66
1, 1402725, Control_c, 0, 64, 63
1, 1402734, Note_on_c, 0, 72, 80
1, 1402740, Control_c, 0, 64, 74
1, 1402755, Control_c, 0, 64, 93
1, 1402757, Note_off_c, 0, 60, 58
1, 1402770, Control_c, 0, 64, 127
1, 1402770, Note_on_c, 0, 68, 63
1, 1402782, Note_on_c, 0, 70, 74
1, 1402809, Note_on_c, 0, 66, 71
1, 1402817, Note_off_c, 0, 72, 63
1, 1402824, Note_on_c, 0, 85, 92
1, 1402829, Note_on_c, 0, 82, 83
1, 1402831, Note_off_c, 0, 80, 58
1, 1402868, Note_off_c, 0, 68, 46
1, 1402868, Note_off_c, 0, 85, 65
1, 1402872, Note_off_c, 0, 70, 61
1, 1402874, Note_off_c, 0, 82, 66
1, 1402886, Note_off_c, 0, 66, 59
1, 1402926, Note_on_c, 0, 58, 14
1, 1402970, Control_c, 0, 64, 109
1, 1402976, Note_on_c, 0, 56, 91
1, 1402981, Note_on_c, 0, 83, 92
1, 1402985, Control_c, 0, 64, 72
1, 1402991, Note_on_c, 0, 86, 76
1, 1403000, Control_c, 0, 64, 0
1, 1403031, Note_off_c, 0, 58, 28
1, 1403038, Note_off_c, 0, 56, 61
1, 1403044, Control_c, 0, 64, 63
1, 1403055, Note_on_c, 0, 68, 67
1, 1403059, Control_c, 0, 64, 76
1, 1403074, Control_c, 0, 64, 97
1, 1403089, Control_c, 0, 64, 127
1, 1403098, Note_off_c, 0, 68, 59
1, 1403107, Note_off_c, 0, 83, 62
1, 1403133, Note_on_c, 0, 84, 79
1, 1403141, Note_on_c, 0, 88, 89
1, 1403146, Note_on_c, 0, 64, 59
1, 1403146, Note_off_c, 0, 86, 62
1, 1403175, Note_off_c, 0, 64, 66
1, 1403192, Note_on_c, 0, 55, 65
1, 1403215, Note_off_c, 0, 55, 65
1, 1403284, Note_on_c, 0, 56, 82
1, 1403293, Note_off_c, 0, 84, 62
1, 1403295, Note_on_c, 0, 83, 81
1, 1403295, Note_on_c, 0, 86, 77
1, 1403298, Note_off_c, 0, 88, 63
1, 1403341, Note_on_c, 0, 68, 80
1, 1403354, Note_off_c, 0, 56, 65
1, 1403369, Note_on_c, 0, 65, 51
1, 1403390, Note_off_c, 0, 68, 61
1, 1403393, Note_off_c, 0, 65, 61
1, 1403430, Control_c, 0, 64, 102
1, 1403438, Note_on_c, 0, 64, 89
1, 1403444, Note_on_c, 0, 84, 84
1, 1403444, Note_on_c, 0, 88, 95
1, 1403444, Control_c, 0, 64, 71
1, 1403448, Note_on_c, 0, 67, 74
1, 1403457, Note_off_c, 0, 86, 61
1, 1403459, Control_c, 0, 64, 0
1, 1403471, Note_off_c, 0, 83, 61
1, 1403485, Note_off_c, 0, 67, 54
1, 1403489, Control_c, 0, 64, 53
1, 1403503, Control_c, 0, 64, 67
1, 1403504, Note_off_c, 0, 64, 63
1, 1403518, Control_c, 0, 64, 77
1, 1403523, Note_on_c, 0, 55, 74
1, 1403533, Control_c, 0, 64, 96
1, 1403548, Control_c, 0, 64, 127
1, 1403551, Note_off_c, 0, 55, 69
1, 1403599, Note_on_c, 0, 86, 82
1, 1403604, Note_off_c, 0, 84, 63
1, 1403606, Note_off_c, 0, 88, 62
1, 1403609, Note_on_c, 0, 83, 78
1, 1403620, Note_on_c, 0, 56, 82
1, 1403660, Note_on_c, 0, 68, 75
1, 1403683, Note_off_c, 0, 56, 66
1, 1403718, Control_c, 0, 64, 102
1, 1403719, Note_off_c, 0, 68, 62
1, 1403733, Control_c, 0, 64, 79
1, 1403748, Control_c, 0, 64, 67
1, 1403759, Note_off_c, 0, 86, 60
1, 1403763, Control_c, 0, 64, 72
1, 1403766, Note_on_c, 0, 88, 95
1, 1403767, Note_on_c, 0, 84, 81
1, 1403771, Note_on_c, 0, 64, 72
1, 1403778, Control_c, 0, 64, 86
1, 1403780, Note_on_c, 0, 67, 70
1, 1403787, Note_off_c, 0, 88, 66
1, 1403789, Note_on_c, 0, 65, 28
1, 1403793, Note_off_c, 0, 65, 0
1, 1403793, Control_c, 0, 64, 127
1, 1403806, Note_off_c, 0, 67, 63
1, 1403807, Note_off_c, 0, 83, 58
1, 1403815, Note_off_c, 0, 84, 68
1, 1403816, Note_off_c, 0, 64, 62
1, 1403825, Poly_aftertouch_c, 0, 65, 0
1, 1403846, Note_on_c, 0, 55, 78
1, 1403997, Note_on_c, 0, 56, 68
1, 1403999, Note_on_c, 0, 71, 69
1, 1404010, Note_on_c, 0, 74, 68
1, 1404031, Control_c, 0, 64, 114
1, 1404046, Control_c, 0, 64, 87
1, 1404061, Control_c, 0, 64, 73
1, 1404073, Note_off_c, 0, 55, 52
1, 1404076, Control_c, 0, 64, 62
1, 1404091, Control_c, 0, 64, 46
1, 1404106, Control_c, 0, 64, 49
1, 1404120, Control_c, 0, 64, 56
1, 1404135, Control_c, 0, 64, 61
1, 1404143, Note_off_c, 0, 56, 63
1, 1404150, Control_c, 0, 64, 64
1, 1404153, Note_on_c, 0, 65, 67
1, 1404165, Control_c, 0, 64, 66
1, 1404179, Control_c, 0, 64, 67
1, 1404194, Control_c, 0, 64, 68
1, 1404252, Note_on_c, 0, 76, 69
1, 1404261, Note_on_c, 0, 72, 73
1, 1404268, Control_c, 0, 64, 67
1, 1404278, Note_on_c, 0, 64, 65
1, 1404290, Note_off_c, 0, 71, 64
1, 1404293, Note_off_c, 0, 74, 63
1, 1404311, Note_off_c, 0, 65, 59
1, 1404368, Note_on_c, 0, 55, 66
1, 1404372, Control_c, 0, 64, 67
1, 1404373, Note_off_c, 0, 64, 64
1, 1404386, Control_c, 0, 64, 66
1, 1404401, Control_c, 0, 64, 66
1, 1404416, Control_c, 0, 64, 65
1, 1404439, Control_c, 0, 64, 63
1, 1404454, Control_c, 0, 64, 58
1, 1404468, Control_c, 0, 64, 42
1, 1404483, Control_c, 0, 64, 0
1, 1404487, Note_on_c, 0, 74, 80
1, 1404487, Note_on_c, 0, 71, 77
1, 1404488, Note_on_c, 0, 56, 74
1, 1404508, Note_off_c, 0, 72, 61
1, 1404520, Note_off_c, 0, 55, 57
1, 1404520, Note_off_c, 0, 76, 62
1, 1404594, Note_off_c, 0, 56, 63
1, 1404603, Note_on_c, 0, 65, 68
1, 1404697, Note_on_c, 0, 76, 83
1, 1404697, Note_off_c, 0, 74, 65
1, 1404702, Note_on_c, 0, 72, 72
1, 1404706, Control_c, 0, 64, 63
1, 1404720, Note_off_c, 0, 76, 67
1, 1404721, Control_c, 0, 64, 74
1, 1404722, Note_off_c, 0, 71, 63
1, 1404727, Note_on_c, 0, 64, 65
1, 1404736, Control_c, 0, 64, 84
1, 1404748, Note_off_c, 0, 72, 65
1, 1404751, Control_c, 0, 64, 100
1, 1404757, Note_off_c, 0, 65, 54
1, 1404764, Control_c, 0, 64, 127
1, 1404803, Note_off_c, 0, 64, 62
1, 1404827, Note_on_c, 0, 55, 61
1, 1404958, Note_on_c, 0, 56, 67
1, 1404979, Note_on_c, 0, 47, 59
1, 1404982, Note_on_c, 0, 45, 60
1, 1404984, Note_off_c, 0, 55, 49
1, 1405002, Control_c, 0, 64, 120
1, 1405016, Control_c, 0, 64, 109
1, 1405031, Control_c, 0, 64, 102
1, 1405043, Note_off_c, 0, 45, 59
1, 1405046, Control_c, 0, 64, 96
1, 1405061, Control_c, 0, 64, 92
1, 1405062, Note_off_c, 0, 56, 62
1, 1405075, Control_c, 0, 64, 88
1, 1405088, Note_on_c, 0, 65, 60
1, 1405090, Control_c, 0, 64, 84
1, 1405105, Control_c, 0, 64, 82
1, 1405120, Control_c, 0, 64, 81
1, 1405135, Control_c, 0, 64, 79
1, 1405149, Control_c, 0, 64, 78
1, 1405164, Control_c, 0, 64, 76
1, 1405187, Control_c, 0, 64, 74
1, 1405202, Control_c, 0, 64, 72
1, 1405209, Note_on_c, 0, 48, 75
1, 1405216, Control_c, 0, 64, 68
1, 1405220, Note_on_c, 0, 64, 57
1, 1405231, Control_c, 0, 64, 66
1, 1405245, Note_off_c, 0, 65, 53
1, 1405246, Control_c, 0, 64, 64
1, 1405261, Control_c, 0, 64, 62
1, 1405276, Control_c, 0, 64, 59
1, 1405290, Note_off_c, 0, 47, 62
1, 1405290, Control_c, 0, 64, 53
1, 1405305, Control_c, 0, 64, 43
1, 1405313, Note_off_c, 0, 64, 60
1, 1405320, Control_c, 0, 64, 21
1, 1405333, Note_on_c, 0, 55, 54
1, 1405334, Control_c, 0, 64, 0
1, 1405394, Control_c, 0, 67, 9
1, 1405410, Control_c, 0, 67, 10
1, 1405425, Control_c, 0, 67, 13
1, 1405439, Control_c, 0, 67, 18
1, 1405451, Note_on_c, 0, 56, 64
1, 1405454, Control_c, 0, 67, 25
1, 1405458, Note_on_c, 0, 47, 77
1, 1405468, Note_off_c, 0, 55, 48
1, 1405469, Control_c, 0, 67, 34
1, 1405484, Control_c, 0, 67, 46
1, 1405499, Control_c, 0, 67, 57
1, 1405513, Control_c, 0, 67, 68
1, 1405514, Note_off_c, 0, 48, 61
1, 1405528, Control_c, 0, 67, 81
1, 1405543, Control_c, 0, 67, 91
1, 1405557, Note_off_c, 0, 56, 61
1, 1405558, Control_c, 0, 67, 101
1, 1405573, Control_c, 0, 67, 111
1, 1405584, Note_on_c, 0, 65, 52
1, 1405587, Control_c, 0, 67, 120
1, 1405602, Control_c, 0, 67, 127
1, 1405709, Note_on_c, 0, 48, 76
1, 1405719, Note_off_c, 0, 47, 63
1, 1405727, Note_on_c, 0, 64, 53
1, 1405751, Control_c, 0, 64, 58
1, 1405754, Note_off_c, 0, 65, 38
1, 1405766, Control_c, 0, 64, 66
1, 1405781, Control_c, 0, 64, 73
1, 1405796, Control_c, 0, 64, 80
1, 1405811, Control_c, 0, 64, 91
1, 1405814, Note_off_c, 0, 48, 63
1, 1405825, Control_c, 0, 64, 103
1, 1405840, Control_c, 0, 64, 121
1, 1405852, Note_off_c, 0, 64, 57
1, 1405855, Control_c, 0, 64, 127
1, 1405889, Note_on_c, 0, 55, 40
1, 1406136, Note_on_c, 0, 49, 67
1, 1406151, Note_on_c, 0, 56, 51
1, 1406156, Note_on_c, 0, 35, 47
1, 1406173, Control_c, 0, 64, 104
1, 1406188, Control_c, 0, 64, 90
1, 1406204, Control_c, 0, 64, 80
1, 1406219, Control_c, 0, 64, 70
1, 1406225, Note_off_c, 0, 55, 32
1, 1406234, Control_c, 0, 64, 59
1, 1406249, Control_c, 0, 64, 0
1, 1406383, Note_off_c, 0, 56, 61
1, 1406411, Note_on_c, 0, 65, 44
1, 1406574, Control_c, 0, 64, 54
1, 1406589, Control_c, 0, 64, 65
1, 1406590, Note_on_c, 0, 64, 50
1, 1406604, Control_c, 0, 64, 69
1, 1406618, Control_c, 0, 64, 72
1, 1406630, Note_off_c, 0, 65, 35
1, 1406633, Control_c, 0, 64, 75
1, 1406648, Control_c, 0, 64, 77
1, 1406663, Control_c, 0, 64, 79
1, 1406685, Control_c, 0, 64, 79
1, 1406700, Control_c, 0, 64, 80
1, 1406720, Note_off_c, 0, 64, 53
1, 1406759, Control_c, 0, 64, 79
1, 1406769, Note_on_c, 0, 55, 46
1, 1406774, Control_c, 0, 64, 78
1, 1406788, Control_c, 0, 64, 77
1, 1406803, Control_c, 0, 64, 73
1, 1406818, Control_c, 0, 64, 68
1, 1406833, Control_c, 0, 64, 63
1, 1406848, Control_c, 0, 64, 58
1, 1406863, Control_c, 0, 64, 45
1, 1406878, Control_c, 0, 64, 0
1, 1406943, Note_off_c, 0, 55, 56
1, 1406963, Note_on_c, 0, 56, 44
1, 1407131, Control_c, 0, 64, 52
1, 1407146, Control_c, 0, 64, 64
1, 1407161, Control_c, 0, 64, 68
1, 1407175, Note_off_c, 0, 35, 43
1, 1407176, Control_c, 0, 64, 71
1, 1407186, Note_on_c, 0, 65, 44
1, 1407191, Control_c, 0, 64, 76
1, 1407205, Control_c, 0, 64, 80
1, 1407220, Control_c, 0, 64, 84
1, 1407232, Note_off_c, 0, 56, 53
1, 1407235, Control_c, 0, 64, 89
1, 1407250, Control_c, 0, 64, 94
1, 1407251, Note_off_c, 0, 49, 37
1, 1407265, Control_c, 0, 64, 98
1, 1407266, Note_off_c, 0, 65, 58
1, 1407279, Control_c, 0, 64, 103
1, 1407294, Control_c, 0, 64, 109
1, 1407309, Control_c, 0, 64, 116
1, 1407324, Control_c, 0, 64, 127
1, 1407602, Note_on_c, 0, 36, 31
1, 1407612, Control_c, 0, 64, 118
1, 1407615, Note_on_c, 0, 48, 25
1, 1407627, Control_c, 0, 64, 101
1, 1407642, Control_c, 0, 64, 86
1, 1407654, Note_on_c, 0, 64, 45
1, 1407657, Control_c, 0, 64, 72
1, 1407665, Note_on_c, 0, 55, 34
1, 1407672, Control_c, 0, 64, 44
1, 1407686, Control_c, 0, 64, 0
1, 1407760, Control_c, 0, 64, 21
1, 1407775, Control_c, 0, 64, 60
1, 1407790, Control_c, 0, 64, 67
1, 1407806, Control_c, 0, 64, 72
1, 1407807, Note_off_c, 0, 36, 52
1, 1407821, Control_c, 0, 64, 77
1, 1407835, Control_c, 0, 64, 82
1, 1407841, Note_off_c, 0, 48, 55
1, 1407850, Control_c, 0, 64, 89
1, 1407865, Control_c, 0, 64, 95
1, 1407880, Control_c, 0, 64, 101
1, 1407895, Control_c, 0, 64, 109
1, 1407909, Control_c, 0, 64, 123
1, 1407924, Control_c, 0, 64, 127
1, 1408064, Note_on_c, 0, 62, 42
1, 1408199, Note_off_c, 0, 55, 31
1, 1408298, Note_on_c, 0, 76, 47
1, 1408302, Note_on_c, 0, 60, 37
1, 1408522, Note_on_c, 0, 74, 64
1, 1408526, Note_on_c, 0, 55, 42
1, 1408537, Note_off_c, 0, 62, 36
1, 1408547, Note_off_c, 0, 60, 38
1, 1408571, Note_off_c, 0, 76, 48
1, 1408580, Note_off_c, 0, 64, 32
1, 1408720, Note_off_c, 0, 55, 48
1, 1408725, Note_on_c, 0, 64, 58
1, 1408735, Note_on_c, 0, 72, 67
1, 1408830, Note_off_c, 0, 74, 38
1, 1408912, Note_off_c, 0, 72, 61
1, 1408917, Note_on_c, 0, 67, 60
1, 1408952, Note_off_c, 0, 67, 64
1, 1408967, Note_on_c, 0, 62, 52
1, 1409129, Note_off_c, 0, 64, 37
1, 1409136, Note_on_c, 0, 60, 59
1, 1409149, Note_on_c, 0, 48, 65
1, 1409212, Note_off_c, 0, 62, 37
1, 1409214, Control_c, 0, 67, 124
1, 1409229, Control_c, 0, 67, 119
1, 1409244, Control_c, 0, 67, 112
1, 1409257, Control_c, 0, 67, 104
1, 1409272, Control_c, 0, 67, 94
1, 1409287, Control_c, 0, 67, 82
1, 1409302, Control_c, 0, 67, 72
1, 1409317, Control_c, 0, 67, 62
1, 1409331, Control_c, 0, 67, 57
1, 1409337, Note_on_c, 0, 55, 49
1, 1409341, Note_on_c, 0, 47, 73
1, 1409346, Control_c, 0, 67, 53
1, 1409351, Note_off_c, 0, 60, 57
1, 1409361, Control_c, 0, 67, 50
1, 1409365, Note_off_c, 0, 55, 63
1, 1409367, Note_off_c, 0, 48, 64
1, 1409376, Control_c, 0, 67, 49
1, 1409391, Control_c, 0, 67, 48
1, 1409406, Control_c, 0, 67, 47
1, 1409495, Control_c, 0, 67, 48
1, 1409510, Control_c, 0, 67, 49
1, 1409525, Control_c, 0, 67, 50
1, 1409540, Control_c, 0, 67, 51
1, 1409553, Note_on_c, 0, 46, 68
1, 1409555, Control_c, 0, 64, 106
1, 1409555, Control_c, 0, 67, 52
1, 1409559, Note_off_c, 0, 47, 64
1, 1409564, Note_on_c, 0, 67, 60
1, 1409570, Control_c, 0, 64, 76
1, 1409570, Control_c, 0, 67, 52
1, 1409584, Control_c, 0, 64, 34
1, 1409584, Control_c, 0, 67, 53
1, 1409599, Control_c, 0, 64, 0
1, 1409614, Control_c, 0, 67, 53
1, 1409659, Control_c, 0, 67, 54
1, 1409680, Control_c, 0, 64, 59
1, 1409695, Control_c, 0, 64, 68
1, 1409710, Control_c, 0, 64, 78
1, 1409725, Control_c, 0, 64, 91
1, 1409740, Control_c, 0, 64, 115
1, 1409743, Note_on_c, 0, 34, 57
1, 1409754, Note_off_c, 0, 46, 63
1, 1409754, Control_c, 0, 64, 127
1, 1409777, Note_off_c, 0, 34, 61
1, 1409791, Note_on_c, 0, 65, 53
1, 1409984, Note_on_c, 0, 64, 52
1, 1409995, Note_on_c, 0, 79, 74
1, 1410029, Note_off_c, 0, 65, 33
1, 1410036, Control_c, 0, 67, 53
1, 1410066, Control_c, 0, 67, 53
1, 1410080, Control_c, 0, 67, 52
1, 1410095, Control_c, 0, 67, 52
1, 1410103, Note_off_c, 0, 67, 16
1, 1410124, Control_c, 0, 67, 51
1, 1410139, Control_c, 0, 67, 50
1, 1410169, Control_c, 0, 67, 50
1, 1410184, Control_c, 0, 67, 49
1, 1410200, Control_c, 0, 67, 49
1, 1410214, Note_on_c, 0, 77, 75
1, 1410215, Control_c, 0, 67, 48
1, 1410217, Note_on_c, 0, 60, 56
1, 1410231, Note_off_c, 0, 64, 54
1, 1410244, Control_c, 0, 67, 48
1, 1410259, Control_c, 0, 67, 47
1, 1410264, Note_off_c, 0, 79, 54
1, 1410274, Control_c, 0, 67, 47
1, 1410289, Control_c, 0, 67, 46
1, 1410303, Control_c, 0, 67, 46
1, 1410318, Control_c, 0, 67, 45
1, 1410333, Control_c, 0, 67, 44
1, 1410348, Control_c, 0, 67, 40
1, 1410362, Control_c, 0, 67, 37
1, 1410377, Control_c, 0, 67, 34
1, 1410392, Control_c, 0, 67, 31
1, 1410407, Note_on_c, 0, 67, 69
1, 1410407, Control_c, 0, 67, 27
1, 1410413, Note_on_c, 0, 76, 75
1, 1410429, Control_c, 0, 67, 23
1, 1410433, Note_off_c, 0, 60, 47
1, 1410444, Control_c, 0, 67, 18
1, 1410459, Control_c, 0, 67, 11
1, 1410474, Control_c, 0, 67, 0
1, 1410495, Note_off_c, 0, 77, 54
1, 1410584, Note_off_c, 0, 76, 62
1, 1410601, Note_on_c, 0, 72, 54
1, 1410622, Note_off_c, 0, 72, 61
1, 1410626, Note_on_c, 0, 65, 67
1, 1410793, Note_off_c, 0, 67, 50
1, 1410818, Note_on_c, 0, 64, 69
1, 1410830, Note_on_c, 0, 46, 60
1, 1410864, Note_off_c, 0, 65, 56
1, 1410931, Poly_aftertouch_c, 0, 47, 127
1, 1410961, Poly_aftertouch_c, 0, 47, 0
1, 1410995, Note_on_c, 0, 45, 71
1, 1411005, Note_off_c, 0, 46, 56
1, 1411012, Note_on_c, 0, 60, 71
1, 1411015, Note_off_c, 0, 64, 62
1, 1411049, Note_off_c, 0, 60, 63
1, 1411257, Note_off_c, 0, 45, 64
1, 1411261, Note_on_c, 0, 70, 69
1, 1411265, Note_on_c, 0, 43, 68
1, 1411274, Note_on_c, 0, 61, 55
1, 1411282, Control_c, 0, 64, 93
1, 1411297, Control_c, 0, 64, 71
1, 1411312, Control_c, 0, 64, 0
1, 1411400, Control_c, 0, 64, 19
1, 1411415, Control_c, 0, 64, 64
1, 1411430, Control_c, 0, 64, 74
1, 1411444, Control_c, 0, 64, 88
1, 1411447, Note_on_c, 0, 31, 62
1, 1411451, Note_off_c, 0, 43, 64
1, 1411459, Control_c, 0, 64, 127
1, 1411477, Note_on_c, 0, 69, 68
1, 1411478, Note_off_c, 0, 31, 55
1, 1411674, Note_on_c, 0, 67, 67
1, 1411701, Note_on_c, 0, 82, 84
1, 1411868, Note_off_c, 0, 69, 54
1, 1411884, Note_on_c, 0, 64, 64
1, 1411892, Note_on_c, 0, 81, 76
1, 1411933, Note_off_c, 0, 70, 35
1, 1411934, Note_off_c, 0, 61, 61
1, 1411997, Note_off_c, 0, 82, 36
1, 1412103, Note_on_c, 0, 70, 75
1, 1412109, Note_on_c, 0, 79, 73
1, 1412113, Note_on_c, 0, 61, 63
1, 1412148, Note_off_c, 0, 67, 18
1, 1412154, Note_off_c, 0, 64, 56
1, 1412154, Note_off_c, 0, 81, 53
1, 1412262, Note_off_c, 0, 79, 60
1, 1412276, Note_on_c, 0, 76, 64
1, 1412303, Note_off_c, 0, 76, 65
1, 1412310, Note_on_c, 0, 69, 64
1, 1412518, Note_on_c, 0, 67, 65
1, 1412530, Note_on_c, 0, 45, 56
1, 1412533, Note_on_c, 0, 33, 55
1, 1412579, Note_off_c, 0, 45, 56
1, 1412617, Note_off_c, 0, 70, 24
1, 1412692, Note_off_c, 0, 69, 47
1, 1412713, Note_off_c, 0, 61, 58
1, 1412721, Note_on_c, 0, 43, 66
1, 1412725, Note_on_c, 0, 31, 70
1, 1412726, Note_on_c, 0, 64, 58
1, 1412741, Note_off_c, 0, 67, 59
1, 1412744, Note_off_c, 0, 33, 56
1, 1412755, Note_off_c, 0, 64, 66
1, 1412773, Note_off_c, 0, 43, 60
1, 1412914, Note_off_c, 0, 31, 62
1, 1412929, Note_on_c, 0, 29, 65
1, 1412930, Note_on_c, 0, 41, 68
1, 1412956, Control_c, 0, 64, 98
1, 1412971, Control_c, 0, 64, 72
1, 1412986, Control_c, 0, 64, 0
1, 1413033, Note_on_c, 0, 73, 72
1, 1413049, Note_off_c, 0, 29, 63
1, 1413060, Control_c, 0, 64, 60
1, 1413072, Note_off_c, 0, 41, 63
1, 1413075, Control_c, 0, 64, 75
1, 1413090, Control_c, 0, 64, 93
1, 1413105, Control_c, 0, 64, 127
1, 1413194, Note_on_c, 0, 69, 67
1, 1413293, Note_on_c, 0, 85, 84
1, 1413310, Note_on_c, 0, 65, 78
1, 1413316, Note_off_c, 0, 73, 38
1, 1413383, Note_off_c, 0, 69, 53
1, 1413406, Note_on_c, 0, 86, 84
1, 1413422, Note_off_c, 0, 65, 60
1, 1413425, Note_off_c, 0, 85, 62
1, 1413430, Note_off_c, 0, 86, 79
1, 1413442, Note_on_c, 0, 62, 74
1, 1413473, Note_off_c, 0, 62, 61
1, 1413545, Note_on_c, 0, 74, 90
1, 1413633, Note_on_c, 0, 40, 75
1, 1413642, Note_on_c, 0, 69, 80
1, 1413649, Note_on_c, 0, 28, 59
1, 1413651, Note_on_c, 0, 26, 64
1, 1413656, Note_off_c, 0, 74, 61
1, 1413657, Note_off_c, 0, 40, 65
1, 1413706, Control_c, 0, 64, 103
1, 1413720, Control_c, 0, 64, 71
1, 1413735, Control_c, 0, 64, 0
1, 1413756, Note_off_c, 0, 28, 0
1, 1413763, Note_on_c, 0, 38, 92
1, 1413767, Note_on_c, 0, 76, 88
1, 1413771, Note_off_c, 0, 69, 59
1, 1413782, Note_off_c, 0, 26, 64
1, 1413787, Note_off_c, 0, 38, 70
1, 1413795, Control_c, 0, 64, 60
1, 1413804, Poly_aftertouch_c, 0, 28, 0
1, 1413810, Control_c, 0, 64, 76
1, 1413825, Control_c, 0, 64, 106
1, 1413840, Control_c, 0, 64, 127
1, 1413858, Note_on_c, 0, 73, 82
1, 1413930, Note_off_c, 0, 76, 38
1, 1413954, Note_on_c, 0, 69, 81
1, 1413978, Note_on_c, 0, 88, 96
1, 1413998, Note_off_c, 0, 73, 56
1, 1414060, Note_off_c, 0, 69, 57
1, 1414064, Note_on_c, 0, 89, 97
1, 1414064, Note_off_c, 0, 88, 60
1, 1414069, Note_on_c, 0, 65, 77
1, 1414095, Note_off_c, 0, 89, 68
1, 1414118, Note_off_c, 0, 65, 65
1, 1414190, Note_on_c, 0, 77, 87
1, 1414298, Note_on_c, 0, 74, 87
1, 1414306, Note_off_c, 0, 77, 62
1, 1414309, Note_on_c, 0, 26, 76
1, 1414312, Note_on_c, 0, 38, 70
1, 1414327, Note_off_c, 0, 74, 64
1, 1414337, Note_off_c, 0, 38, 67
1, 1414477, Note_on_c, 0, 73, 25
1, 1414502, Note_on_c, 0, 24, 75
1, 1414508, Note_on_c, 0, 36, 73
1, 1414508, Note_on_c, 0, 79, 82
1, 1414517, Note_off_c, 0, 26, 60
1, 1414521, Note_off_c, 0, 73, 48
1, 1414544, Control_c, 0, 64, 114
1, 1414559, Control_c, 0, 64, 81
1, 1414574, Control_c, 0, 64, 45
1, 1414588, Control_c, 0, 64, 0
1, 1414659, Note_on_c, 0, 76, 72
1, 1414677, Control_c, 0, 64, 65
1, 1414688, Note_off_c, 0, 24, 62
1, 1414692, Control_c, 0, 64, 83
1, 1414707, Control_c, 0, 64, 127
1, 1414720, Note_off_c, 0, 36, 61
1, 1414720, Note_off_c, 0, 79, 55
1, 1414758, Note_on_c, 0, 72, 64
1, 1414761, Note_on_c, 0, 71, 72
1, 1414801, Note_off_c, 0, 76, 59
1, 1414819, Note_off_c, 0, 71, 57
1, 1414839, Note_on_c, 0, 70, 83
1, 1414843, Note_off_c, 0, 72, 60
1, 1414870, Note_off_c, 0, 70, 62
1, 1414933, Note_on_c, 0, 81, 92
1, 1415004, Note_off_c, 0, 81, 62
1, 1415018, Note_on_c, 0, 79, 85
1, 1415026, Note_on_c, 0, 60, 80
1, 1415117, Note_off_c, 0, 79, 60
1, 1415129, Note_on_c, 0, 82, 83
1, 1415134, Note_on_c, 0, 67, 85
1, 1415161, Note_off_c, 0, 60, 64
1, 1415220, Note_on_c, 0, 79, 80
1, 1415241, Note_off_c, 0, 82, 60
1, 1415288, Note_off_c, 0, 67, 62
1, 1415295, Note_on_c, 0, 76, 83
1, 1415335, Note_off_c, 0, 79, 58
1, 1415367, Note_off_c, 0, 76, 65
1, 1415377, Note_on_c, 0, 72, 85
1, 1415433, Note_off_c, 0, 72, 61
1, 1415466, Note_on_c, 0, 84, 84
1, 1415519, Note_on_c, 0, 64, 73
1, 1415532, Note_off_c, 0, 84, 59
1, 1415543, Note_on_c, 0, 82, 91
1, 1415604, Note_off_c, 0, 64, 65
1, 1415609, Note_off_c, 0, 82, 63
1, 1415615, Note_on_c, 0, 72, 88
1, 1415632, Note_on_c, 0, 88, 89
1, 1415643, Note_off_c, 0, 72, 63
1, 1415683, Note_off_c, 0, 88, 63
1, 1415716, Note_on_c, 0, 84, 88
1, 1415782, Note_off_c, 0, 84, 58
1, 1415793, Note_on_c, 0, 70, 85
1, 1415795, Note_on_c, 0, 91, 99
1, 1415845, Note_off_c, 0, 70, 63
1, 1415863, Note_off_c, 0, 91, 66
1, 1415874, Note_on_c, 0, 88, 95
1, 1415881, Note_on_c, 0, 79, 87
1, 1415911, Poly_aftertouch_c, 0, 69, 0
1, 1415922, Note_off_c, 0, 79, 64
1, 1416004, Note_on_c, 0, 96, 89
1, 1416017, Note_off_c, 0, 88, 64
1, 1416107, Note_on_c, 0, 72, 71
1, 1416125, Note_on_c, 0, 94, 88
1, 1416196, Note_off_c, 0, 96, 58
1, 1416225, Note_on_c, 0, 82, 88
1, 1416226, Note_on_c, 0, 91, 91
1, 1416264, Note_off_c, 0, 82, 67
1, 1416265, Note_off_c, 0, 94, 64
1, 1416276, Note_off_c, 0, 72, 52
1, 1416310, Note_on_c, 0, 88, 93
1, 1416347, Note_off_c, 0, 91, 60
1, 1416399, Note_off_c, 0, 88, 67
1, 1416399, Note_on_c, 0, 84, 89
1, 1416459, Note_off_c, 0, 84, 63
1, 1416489, Note_on_c, 0, 82, 87
1, 1416577, Note_on_c, 0, 79, 91
1, 1416609, Note_off_c, 0, 82, 64
1, 1416657, Note_on_c, 0, 76, 93
1, 1416683, Note_off_c, 0, 79, 61
1, 1416725, Note_off_c, 0, 76, 67
1, 1416739, Note_on_c, 0, 72, 79
1, 1416785, Note_off_c, 0, 72, 58
1, 1416814, Note_on_c, 0, 70, 81
1, 1416901, Note_on_c, 0, 67, 85
1, 1416932, Note_off_c, 0, 70, 62
1, 1416980, Note_on_c, 0, 64, 84
1, 1417004, Note_off_c, 0, 67, 56
1, 1417046, Note_off_c, 0, 64, 65
1, 1417072, Note_on_c, 0, 60, 75
1, 1417141, Note_off_c, 0, 60, 65
1, 1417142, Note_on_c, 0, 58, 75
1, 1417180, Note_off_c, 0, 58, 63
1, 1417223, Note_on_c, 0, 41, 87
1, 1417242, Control_c, 0, 64, 101
1, 1417254, Note_off_c, 0, 41, 63
1, 1417257, Control_c, 0, 64, 70
1, 1417272, Control_c, 0, 64, 0
1, 1417302, Control_c, 0, 64, 62
1, 1417311, Note_on_c, 0, 57, 86
1, 1417316, Control_c, 0, 64, 73
1, 1417331, Control_c, 0, 64, 90
1, 1417346, Control_c, 0, 64, 127
1, 1417437, Note_on_c, 0, 55, 82
1, 1417472, Note_off_c, 0, 57, 59
1, 1417523, Note_on_c, 0, 53, 84
1, 1417535, Note_off_c, 0, 55, 64
1, 1417603, Note_off_c, 0, 53, 66
1, 1417605, Note_on_c, 0, 48, 85
1, 1417613, Control_c, 0, 64, 92
1, 1417628, Control_c, 0, 64, 73
1, 1417643, Control_c, 0, 64, 51
1, 1417657, Note_off_c, 0, 48, 64
1, 1417658, Control_c, 0, 64, 38
1, 1417673, Control_c, 0, 64, 49
1, 1417687, Control_c, 0, 64, 60
1, 1417700, Note_on_c, 0, 60, 66
1, 1417702, Control_c, 0, 64, 63
1, 1417717, Control_c, 0, 64, 63
1, 1417783, Note_off_c, 0, 60, 58
1, 1417785, Note_on_c, 0, 58, 75
1, 1417859, Note_on_c, 0, 57, 71
1, 1417860, Note_off_c, 0, 58, 63
1, 1417880, Control_c, 0, 64, 62
1, 1417895, Control_c, 0, 64, 61
1, 1417917, Control_c, 0, 64, 60
1, 1417932, Control_c, 0, 64, 59
1, 1417946, Control_c, 0, 64, 59
1, 1417946, Control_c, 0, 67, 8
1, 1417955, Note_off_c, 0, 57, 60
1, 1417955, Note_on_c, 0, 53, 76
1, 1417961, Control_c, 0, 67, 12
1, 1417976, Control_c, 0, 64, 58
1, 1417976, Control_c, 0, 67, 19
1, 1417991, Control_c, 0, 67, 29
1, 1418006, Control_c, 0, 67, 42
1, 1418012, Note_off_c, 0, 53, 65
1, 1418020, Control_c, 0, 64, 58
1, 1418020, Control_c, 0, 67, 55
1, 1418035, Control_c, 0, 64, 57
1, 1418035, Control_c, 0, 67, 66
1, 1418044, Note_on_c, 0, 62, 72
1, 1418050, Control_c, 0, 64, 55
1, 1418050, Control_c, 0, 67, 77
1, 1418065, Control_c, 0, 64, 54
1, 1418065, Control_c, 0, 67, 86
1, 1418080, Control_c, 0, 64, 53
1, 1418080, Control_c, 0, 67, 93
1, 1418095, Control_c, 0, 67, 99
1, 1418110, Control_c, 0, 67, 103
1, 1418116, Note_off_c, 0, 62, 55
1, 1418125, Control_c, 0, 67, 105
1, 1418132, Note_on_c, 0, 60, 72
1, 1418139, Control_c, 0, 67, 106
1, 1418204, Note_off_c, 0, 60, 64
1, 1418210, Note_on_c, 0, 58, 67
1, 1418259, Control_c, 0, 67, 105
1, 1418269, Note_off_c, 0, 58, 62
1, 1418289, Control_c, 0, 67, 105
1, 1418304, Control_c, 0, 67, 104
1, 1418316, Note_on_c, 0, 57, 63
1, 1418318, Control_c, 0, 67, 104
1, 1418333, Control_c, 0, 67, 103
1, 1418377, Control_c, 0, 64, 54
1, 1418377, Control_c, 0, 67, 103
1, 1418399, Note_off_c, 0, 57, 60
1, 1418408, Note_on_c, 0, 53, 66
1, 1418422, Control_c, 0, 64, 54
1, 1418481, Control_c, 0, 64, 55
1, 1418483, Note_off_c, 0, 53, 66
1, 1418495, Control_c, 0, 64, 56
1, 1418497, Note_on_c, 0, 52, 64
1, 1418510, Control_c, 0, 64, 56
1, 1418525, Control_c, 0, 64, 57
1, 1418556, Note_off_c, 0, 52, 60
1, 1418584, Note_on_c, 0, 53, 71
1, 1418599, Control_c, 0, 67, 103
1, 1418614, Control_c, 0, 67, 104
1, 1418623, Note_off_c, 0, 53, 61
1, 1418629, Control_c, 0, 67, 105
1, 1418643, Control_c, 0, 67, 106
1, 1418666, Control_c, 0, 67, 107
1, 1418677, Note_on_c, 0, 55, 66
1, 1418681, Control_c, 0, 67, 108
1, 1418695, Control_c, 0, 64, 56
1, 1418695, Control_c, 0, 67, 111
1, 1418710, Control_c, 0, 64, 56
1, 1418710, Control_c, 0, 67, 118
1, 1418725, Control_c, 0, 67, 125
1, 1418726, Note_off_c, 0, 55, 62
1, 1418740, Control_c, 0, 64, 55
1, 1418740, Control_c, 0, 67, 127
1, 1418769, Control_c, 0, 64, 55
1, 1418771, Note_on_c, 0, 57, 61
1, 1418799, Control_c, 0, 64, 54
1, 1418814, Control_c, 0, 64, 53
1, 1418817, Note_off_c, 0, 57, 56
1, 1418829, Control_c, 0, 64, 53
1, 1418854, Note_on_c, 0, 53, 61
1, 1418914, Note_off_c, 0, 53, 66
1, 1418930, Note_on_c, 0, 52, 60
1, 1418977, Control_c, 0, 64, 53
1, 1418992, Control_c, 0, 64, 54
1, 1419007, Control_c, 0, 64, 54
1, 1419016, Note_off_c, 0, 52, 62
1, 1419022, Control_c, 0, 64, 55
1, 1419023, Note_on_c, 0, 48, 67
1, 1419037, Control_c, 0, 64, 55
1, 1419096, Control_c, 0, 64, 56
1, 1419104, Note_off_c, 0, 48, 63
1, 1419114, Note_on_c, 0, 50, 70
1, 1419126, Control_c, 0, 64, 56
1, 1419141, Control_c, 0, 64, 57
1, 1419156, Control_c, 0, 64, 57
1, 1419185, Control_c, 0, 64, 58
1, 1419205, Note_on_c, 0, 52, 70
1, 1419207, Note_off_c, 0, 50, 63
1, 1419230, Control_c, 0, 64, 58
1, 1419289, Control_c, 0, 64, 59
1, 1419292, Note_off_c, 0, 52, 62
1, 1419307, Note_on_c, 0, 53, 58
1, 1419342, Note_off_c, 0, 53, 67
1, 1419373, Note_on_c, 0, 55, 63
1, 1419429, Note_off_c, 0, 55, 57
1, 1419484, Note_on_c, 0, 57, 55
1, 1419484, Note_on_c, 0, 69, 71
1, 1419518, Control_c, 0, 64, 59
1, 1419533, Note_off_c, 0, 57, 61
1, 1419573, Note_on_c, 0, 55, 55
1, 1419607, Control_c, 0, 64, 60
1, 1419644, Note_off_c, 0, 55, 48
1, 1419652, Control_c, 0, 64, 60
1, 1419670, Note_on_c, 0, 53, 55
1, 1419729, Note_off_c, 0, 53, 61
1, 1419755, Control_c, 0, 64, 61
1, 1419765, Note_on_c, 0, 48, 58
1, 1419774, Note_on_c, 0, 67, 77
1, 1419814, Note_off_c, 0, 48, 63
1, 1419830, Control_c, 0, 64, 61
1, 1419878, Note_on_c, 0, 60, 54
1, 1419884, Note_off_c, 0, 69, 34
1, 1419946, Note_off_c, 0, 60, 60
1, 1419960, Note_on_c, 0, 58, 65
1, 1420030, Note_off_c, 0, 58, 63
1, 1420044, Note_on_c, 0, 57, 64
1, 1420065, Note_on_c, 0, 65, 76
1, 1420114, Note_off_c, 0, 57, 61
1, 1420125, Note_off_c, 0, 67, 51
1, 1420126, Note_on_c, 0, 53, 61
1, 1420182, Note_off_c, 0, 53, 65
1, 1420208, Control_c, 0, 64, 61
1, 1420238, Control_c, 0, 64, 60
1, 1420250, Note_on_c, 0, 62, 32
1, 1420253, Control_c, 0, 64, 60
1, 1420284, Note_off_c, 0, 62, 46
1, 1420297, Control_c, 0, 64, 60
1, 1420312, Control_c, 0, 64, 63
1, 1420327, Control_c, 0, 64, 66
1, 1420330, Note_on_c, 0, 60, 62
1, 1420341, Control_c, 0, 64, 70
1, 1420356, Control_c, 0, 64, 74
1, 1420371, Control_c, 0, 64, 78
1, 1420386, Control_c, 0, 64, 80
1, 1420390, Note_off_c, 0, 65, 60
1, 1420401, Control_c, 0, 64, 81
1, 1420403, Note_on_c, 0, 58, 55
1, 1420446, Note_off_c, 0, 60, 64
1, 1420456, Note_off_c, 0, 58, 57
1, 1420511, Note_on_c, 0, 57, 55
1, 1420533, Control_c, 0, 64, 82
1, 1420563, Control_c, 0, 64, 81
1, 1420578, Control_c, 0, 64, 80
1, 1420587, Note_off_c, 0, 57, 59
1, 1420591, Note_on_c, 0, 72, 81
1, 1420594, Control_c, 0, 64, 77
1, 1420599, Note_on_c, 0, 54, 57
1, 1420609, Control_c, 0, 64, 71
1, 1420624, Control_c, 0, 64, 66
1, 1420638, Control_c, 0, 64, 63
1, 1420653, Control_c, 0, 64, 62
1, 1420683, Control_c, 0, 64, 63
1, 1420684, Note_on_c, 0, 55, 58
1, 1420684, Note_off_c, 0, 54, 49
1, 1420698, Control_c, 0, 64, 63
1, 1420727, Control_c, 0, 64, 64
1, 1420739, Note_off_c, 0, 55, 61
1, 1420772, Control_c, 0, 64, 64
1, 1420790, Note_on_c, 0, 57, 62
1, 1420864, Note_off_c, 0, 57, 54
1, 1420872, Note_on_c, 0, 70, 81
1, 1420876, Note_on_c, 0, 55, 71
1, 1420912, Control_c, 0, 64, 65
1, 1420918, Note_off_c, 0, 72, 62
1, 1420965, Note_off_c, 0, 55, 64
1, 1420976, Note_on_c, 0, 52, 61
1, 1420986, Control_c, 0, 64, 65
1, 1421024, Note_off_c, 0, 52, 61
1, 1421060, Note_on_c, 0, 60, 65
1, 1421105, Control_c, 0, 64, 66
1, 1421122, Note_off_c, 0, 60, 63
1, 1421156, Note_on_c, 0, 61, 63
1, 1421158, Note_on_c, 0, 69, 76
1, 1421164, Control_c, 0, 64, 66
1, 1421198, Note_off_c, 0, 70, 58
1, 1421228, Note_off_c, 0, 61, 61
1, 1421235, Note_on_c, 0, 62, 63
1, 1421268, Control_c, 0, 64, 66
1, 1421282, Control_c, 0, 64, 65
1, 1421297, Note_off_c, 0, 62, 61
1, 1421297, Control_c, 0, 64, 63
1, 1421312, Control_c, 0, 64, 57
1, 1421327, Control_c, 0, 64, 0
1, 1421329, Note_on_c, 0, 64, 65
1, 1421377, Note_off_c, 0, 64, 53
1, 1421395, Note_off_c, 0, 69, 57
1, 1421412, Note_on_c, 0, 65, 61
1, 1421417, Control_c, 0, 64, 40
1, 1421432, Control_c, 0, 64, 54
1, 1421433, Note_on_c, 0, 62, 51
1, 1421447, Control_c, 0, 64, 57
1, 1421461, Control_c, 0, 64, 57
1, 1421476, Control_c, 0, 64, 58
1, 1421486, Note_off_c, 0, 62, 61
1, 1421491, Control_c, 0, 64, 58
1, 1421505, Note_on_c, 0, 57, 53
1, 1421539, Note_off_c, 0, 65, 62
1, 1421561, Note_off_c, 0, 57, 61
1, 1421594, Note_on_c, 0, 64, 63
1, 1421639, Control_c, 0, 64, 59
1, 1421692, Note_off_c, 0, 64, 57
1, 1421699, Note_on_c, 0, 58, 60
1, 1421699, Note_on_c, 0, 74, 82
1, 1421717, Note_on_c, 0, 65, 59
1, 1421735, Control_c, 0, 64, 59
1, 1421765, Control_c, 0, 64, 60
1, 1421780, Control_c, 0, 64, 60
1, 1421789, Note_off_c, 0, 58, 62
1, 1421791, Note_off_c, 0, 65, 60
1, 1421796, Note_on_c, 0, 62, 66
1, 1421809, Control_c, 0, 64, 61
1, 1421869, Control_c, 0, 64, 61
1, 1421875, Note_off_c, 0, 62, 61
1, 1421886, Note_on_c, 0, 64, 71
1, 1421956, Note_off_c, 0, 64, 62
1, 1421979, Note_on_c, 0, 57, 67
1, 1421994, Note_on_c, 0, 72, 75
1, 1421996, Note_on_c, 0, 65, 67
1, 1422046, Control_c, 0, 64, 62
1, 1422073, Note_on_c, 0, 60, 64
1, 1422077, Note_off_c, 0, 74, 49
1, 1422079, Note_off_c, 0, 65, 51
1, 1422091, Control_c, 0, 64, 62
1, 1422112, Note_off_c, 0, 57, 52
1, 1422120, Control_c, 0, 64, 63
1, 1422132, Note_off_c, 0, 60, 64
1, 1422167, Note_on_c, 0, 64, 64
1, 1422231, Note_off_c, 0, 64, 56
1, 1422240, Control_c, 0, 64, 63
1, 1422256, Note_on_c, 0, 55, 67
1, 1422262, Note_on_c, 0, 70, 79
1, 1422269, Note_on_c, 0, 65, 63
1, 1422299, Control_c, 0, 64, 64
1, 1422324, Note_off_c, 0, 72, 59
1, 1422351, Note_on_c, 0, 58, 65
1, 1422356, Note_off_c, 0, 65, 62
1, 1422357, Note_off_c, 0, 55, 56
1, 1422410, Control_c, 0, 64, 64
1, 1422415, Note_off_c, 0, 58, 62
1, 1422442, Note_on_c, 0, 64, 67
1, 1422491, Note_off_c, 0, 64, 50
1, 1422542, Note_on_c, 0, 69, 79
1, 1422553, Note_on_c, 0, 53, 57
1, 1422562, Note_on_c, 0, 65, 52
1, 1422596, Note_off_c, 0, 70, 58
1, 1422617, Control_c, 0, 64, 64
1, 1422625, Note_on_c, 0, 57, 56
1, 1422638, Note_off_c, 0, 53, 57
1, 1422641, Note_off_c, 0, 65, 53
1, 1422671, Note_off_c, 0, 57, 61
1, 1422715, Note_on_c, 0, 64, 57
1, 1422758, Note_off_c, 0, 64, 55
1, 1422819, Note_on_c, 0, 65, 68
1, 1422826, Note_on_c, 0, 59, 53
1, 1422828, Note_off_c, 0, 69, 56
1, 1422880, Note_off_c, 0, 59, 54
1, 1422915, Note_on_c, 0, 60, 56
1, 1422954, Note_off_c, 0, 60, 64
1, 1423008, Note_on_c, 0, 62, 60
1, 1423067, Note_off_c, 0, 62, 54
1, 1423097, Note_on_c, 0, 59, 72
1, 1423186, Note_off_c, 0, 59, 57
1, 1423191, Note_on_c, 0, 57, 61
1, 1423191, Note_off_c, 0, 65, 60
1, 1423193, Note_on_c, 0, 67, 69
1, 1423237, Note_off_c, 0, 57, 60
1, 1423255, Note_on_c, 0, 55, 62
1, 1423262, Note_off_c, 0, 67, 60
1, 1423275, Note_on_c, 0, 69, 70
1, 1423320, Note_off_c, 0, 55, 64
1, 1423320, Control_c, 0, 64, 62
1, 1423335, Control_c, 0, 64, 51
1, 1423345, Note_off_c, 0, 69, 58
1, 1423350, Control_c, 0, 64, 0
1, 1423351, Note_on_c, 0, 52, 55
1, 1423362, Note_on_c, 0, 67, 72
1, 1423371, Note_on_c, 0, 60, 58
1, 1423403, Note_off_c, 0, 52, 57
1, 1423413, Note_off_c, 0, 60, 58
1, 1423493, Note_on_c, 0, 55, 15
1, 1423514, Control_c, 0, 64, 17
1, 1423521, Note_off_c, 0, 55, 46
1, 1423529, Control_c, 0, 64, 28
1, 1423544, Control_c, 0, 64, 36
1, 1423544, Note_on_c, 0, 57, 56
1, 1423558, Control_c, 0, 64, 43
1, 1423560, Poly_aftertouch_c, 0, 53, 0
1, 1423573, Control_c, 0, 64, 50
1, 1423580, Note_off_c, 0, 57, 62
1, 1423588, Control_c, 0, 64, 59
1, 1423603, Control_c, 0, 64, 65
1, 1423618, Control_c, 0, 64, 69
1, 1423620, Note_on_c, 0, 55, 64
1, 1423632, Control_c, 0, 64, 74
1, 1423633, Note_on_c, 0, 60, 75
1, 1423635, Note_off_c, 0, 67, 57
1, 1423647, Control_c, 0, 64, 79
1, 1423662, Control_c, 0, 64, 81
1, 1423676, Control_c, 0, 64, 81
1, 1423687, Note_off_c, 0, 55, 62
1, 1423726, Note_off_c, 0, 60, 63
1, 1423748, Note_on_c, 0, 52, 45
1, 1423765, Note_on_c, 0, 53, 12
1, 1423779, Note_off_c, 0, 52, 52
1, 1423793, Note_on_c, 0, 50, 65
1, 1423814, Note_off_c, 0, 53, 43
1, 1423841, Control_c, 0, 64, 82
1, 1423891, Note_off_c, 0, 50, 61
1, 1423898, Note_on_c, 0, 48, 62
1, 1423932, Note_on_c, 0, 64, 85
1, 1423943, Note_on_c, 0, 46, 50
1, 1423952, Control_c, 0, 64, 80
1, 1423967, Control_c, 0, 64, 74
1, 1423981, Control_c, 0, 64, 66
1, 1423996, Control_c, 0, 64, 59
1, 1424011, Control_c, 0, 64, 52
1, 1424022, Note_on_c, 0, 50, 63
1, 1424026, Control_c, 0, 64, 50
1, 1424055, Control_c, 0, 64, 51
1, 1424070, Control_c, 0, 64, 52
1, 1424077, Note_off_c, 0, 48, 38
1, 1424085, Control_c, 0, 64, 56
1, 1424100, Control_c, 0, 64, 59
1, 1424110, Note_on_c, 0, 52, 74
1, 1424114, Control_c, 0, 64, 62
1, 1424120, Note_off_c, 0, 50, 63
1, 1424129, Control_c, 0, 64, 65
1, 1424134, Note_off_c, 0, 46, 56
1, 1424144, Control_c, 0, 64, 68
1, 1424159, Control_c, 0, 64, 71
1, 1424174, Control_c, 0, 64, 72
1, 1424174, Control_c, 0, 67, 124
1, 1424183, Note_off_c, 0, 52, 62
1, 1424188, Control_c, 0, 64, 73
1, 1424188, Control_c, 0, 67, 114
1, 1424200, Note_on_c, 0, 53, 66
1, 1424203, Control_c, 0, 64, 75
1, 1424203, Control_c, 0, 67, 101
1, 1424218, Control_c, 0, 64, 76
1, 1424218, Control_c, 0, 67, 86
1, 1424230, Note_off_c, 0, 53, 67
1, 1424233, Control_c, 0, 64, 76
1, 1424233, Control_c, 0, 67, 69
1, 1424248, Control_c, 0, 67, 54
1, 1424262, Control_c, 0, 67, 43
1, 1424273, Note_on_c, 0, 55, 78
1, 1424277, Control_c, 0, 64, 77
1, 1424277, Control_c, 0, 67, 34
1, 1424292, Control_c, 0, 67, 30
1, 1424307, Control_c, 0, 64, 77
1, 1424307, Control_c, 0, 67, 28
1, 1424322, Control_c, 0, 64, 78
1, 1424322, Control_c, 0, 67, 27
1, 1424337, Control_c, 0, 64, 79
1, 1424343, Note_off_c, 0, 55, 65
1, 1424355, Note_on_c, 0, 65, 82
1, 1424358, Note_on_c, 0, 57, 77
1, 1424366, Note_off_c, 0, 64, 59
1, 1424367, Control_c, 0, 64, 80
1, 1424381, Control_c, 0, 64, 79
1, 1424396, Control_c, 0, 64, 76
1, 1424411, Control_c, 0, 64, 66
1, 1424421, Note_off_c, 0, 57, 60
1, 1424425, Control_c, 0, 64, 0
1, 1424432, Note_off_c, 0, 65, 64
1, 1424439, Note_on_c, 0, 67, 86
1, 1424440, Control_c, 0, 67, 25
1, 1424442, Note_on_c, 0, 58, 83
1, 1424454, Note_on_c, 0, 60, 75
1, 1424455, Control_c, 0, 67, 20
1, 1424470, Control_c, 0, 67, 8
1, 1424485, Control_c, 0, 67, 0
1, 1424496, Note_off_c, 0, 60, 58
1, 1424499, Control_c, 0, 64, 59
1, 1424514, Control_c, 0, 64, 66
1, 1424529, Control_c, 0, 64, 70
1, 1424540, Note_on_c, 0, 62, 83
1, 1424544, Control_c, 0, 64, 74
1, 1424550, Note_off_c, 0, 67, 62
1, 1424559, Control_c, 0, 64, 78
1, 1424575, Control_c, 0, 64, 84
1, 1424590, Control_c, 0, 64, 87
1, 1424597, Note_off_c, 0, 62, 61
1, 1424604, Control_c, 0, 64, 84
1, 1424619, Control_c, 0, 64, 74
1, 1424621, Note_on_c, 0, 64, 55
1, 1424634, Control_c, 0, 64, 57
1, 1424641, Note_off_c, 0, 64, 64
1, 1424656, Control_c, 0, 64, 0
1, 1424677, Note_on_c, 0, 57, 78
1, 1424680, Note_off_c, 0, 58, 62
1, 1424686, Control_c, 0, 64, 64
1, 1424692, Note_on_c, 0, 65, 84
1, 1424701, Control_c, 0, 64, 73
1, 1424703, Note_off_c, 0, 57, 67
1, 1424715, Control_c, 0, 64, 87
1, 1424730, Control_c, 0, 64, 102
1, 1424745, Control_c, 0, 64, 107
1, 1424752, Note_off_c, 0, 65, 61
1, 1424760, Control_c, 0, 64, 108
1, 1424770, Note_on_c, 0, 67, 80
1, 1424775, Control_c, 0, 64, 108
1, 1424804, Control_c, 0, 64, 109
1, 1424819, Control_c, 0, 64, 109
1, 1424821, Note_off_c, 0, 67, 57
1, 1424834, Control_c, 0, 64, 111
1, 1424848, Control_c, 0, 64, 113
1, 1424854, Note_on_c, 0, 69, 50
1, 1424863, Control_c, 0, 64, 115
1, 1424875, Note_off_c, 0, 69, 60
1, 1424878, Control_c, 0, 64, 116
1, 1424922, Control_c, 0, 64, 111
1, 1424937, Control_c, 0, 64, 99
1, 1424946, Note_on_c, 0, 69, 86
1, 1424947, Note_on_c, 0, 72, 73
1, 1424948, Note_on_c, 0, 58, 77
1, 1424952, Control_c, 0, 64, 85
1, 1424967, Control_c, 0, 64, 72
1, 1424982, Control_c, 0, 64, 63
1, 1424997, Control_c, 0, 64, 58
1, 1425011, Control_c, 0, 64, 59
1, 1425021, Note_off_c, 0, 72, 57
1, 1425026, Control_c, 0, 64, 60
1, 1425041, Control_c, 0, 64, 61
1, 1425054, Note_on_c, 0, 74, 63
1, 1425070, Control_c, 0, 64, 61
1, 1425094, Note_off_c, 0, 74, 62
1, 1425100, Control_c, 0, 64, 62
1, 1425125, Note_on_c, 0, 77, 68
1, 1425130, Control_c, 0, 64, 62
1, 1425175, Control_c, 0, 64, 63
1, 1425181, Note_off_c, 0, 77, 58
1, 1425223, Note_on_c, 0, 67, 79
1, 1425224, Note_on_c, 0, 76, 71
1, 1425276, Note_off_c, 0, 76, 56
1, 1425318, Note_on_c, 0, 84, 66
1, 1425367, Control_c, 0, 64, 62
1, 1425389, Note_off_c, 0, 69, 46
1, 1425393, Note_on_c, 0, 82, 71
1, 1425405, Control_c, 0, 64, 62
1, 1425413, Note_off_c, 0, 84, 54
1, 1425434, Control_c, 0, 64, 61
1, 1425449, Control_c, 0, 64, 61
1, 1425464, Control_c, 0, 64, 59
1, 1425479, Control_c, 0, 64, 52
1, 1425493, Control_c, 0, 64, 0
1, 1425499, Note_off_c, 0, 82, 63
1, 1425508, Note_on_c, 0, 64, 70
1, 1425508, Note_on_c, 0, 79, 68
1, 1425512, Note_off_c, 0, 67, 60
1, 1425559, Note_off_c, 0, 79, 61
1, 1425589, Note_on_c, 0, 76, 62
1, 1425618, Note_off_c, 0, 76, 65
1, 1425668, Note_on_c, 0, 72, 67
1, 1425730, Note_off_c, 0, 64, 62
1, 1425744, Note_on_c, 0, 60, 64
1, 1425744, Control_c, 0, 64, 33
1, 1425759, Control_c, 0, 64, 65
1, 1425765, Note_on_c, 0, 70, 73
1, 1425771, Note_off_c, 0, 60, 67
1, 1425774, Control_c, 0, 64, 72
1, 1425778, Note_off_c, 0, 58, 63
1, 1425789, Control_c, 0, 64, 81
1, 1425792, Note_off_c, 0, 72, 61
1, 1425804, Control_c, 0, 64, 93
1, 1425818, Control_c, 0, 64, 106
1, 1425833, Control_c, 0, 64, 110
1, 1425840, Note_on_c, 0, 67, 74
1, 1425848, Control_c, 0, 64, 112
1, 1425871, Note_off_c, 0, 70, 61
1, 1425908, Note_off_c, 0, 67, 62
1, 1425923, Control_c, 0, 64, 112
1, 1425926, Note_on_c, 0, 64, 76
1, 1425938, Control_c, 0, 64, 113
1, 1425967, Note_off_c, 0, 64, 61
1, 1426012, Control_c, 0, 64, 101
1, 1426026, Control_c, 0, 64, 87
1, 1426030, Note_on_c, 0, 65, 88
1, 1426035, Note_on_c, 0, 45, 63
1, 1426041, Control_c, 0, 64, 73
1, 1426042, Note_on_c, 0, 39, 48
1, 1426056, Control_c, 0, 64, 61
1, 1426070, Control_c, 0, 64, 43
1, 1426085, Control_c, 0, 64, 50
1, 1426100, Control_c, 0, 64, 61
1, 1426115, Control_c, 0, 64, 64
1, 1426130, Control_c, 0, 64, 65
1, 1426135, Note_off_c, 0, 45, 62
1, 1426152, Control_c, 0, 64, 66
1, 1426167, Control_c, 0, 64, 67
1, 1426171, Note_off_c, 0, 39, 54
1, 1426182, Control_c, 0, 64, 68
1, 1426183, Note_on_c, 0, 47, 23
1, 1426197, Control_c, 0, 64, 68
1, 1426201, Note_on_c, 0, 50, 65
1, 1426227, Note_off_c, 0, 47, 43
1, 1426242, Control_c, 0, 64, 69
1, 1426243, Note_off_c, 0, 50, 65
1, 1426257, Control_c, 0, 64, 68
1, 1426272, Control_c, 0, 64, 65
1, 1426286, Control_c, 0, 64, 56
1, 1426297, Note_on_c, 0, 48, 63
1, 1426301, Control_c, 0, 64, 17
1, 1426316, Control_c, 0, 64, 0
1, 1426342, Note_off_c, 0, 48, 63
1, 1426346, Control_c, 0, 64, 38
1, 1426361, Control_c, 0, 64, 57
1, 1426375, Control_c, 0, 64, 64
1, 1426388, Note_on_c, 0, 53, 66
1, 1426390, Control_c, 0, 64, 68
1, 1426405, Control_c, 0, 64, 70
1, 1426420, Control_c, 0, 64, 71
1, 1426435, Control_c, 0, 64, 71
1, 1426446, Note_off_c, 0, 53, 60
1, 1426454, Note_off_c, 0, 65, 58
1, 1426465, Note_on_c, 0, 52, 69
1, 1426472, Note_on_c, 0, 67, 77
1, 1426480, Control_c, 0, 64, 66
1, 1426495, Control_c, 0, 64, 44
1, 1426509, Control_c, 0, 64, 0
1, 1426542, Note_off_c, 0, 52, 61
1, 1426550, Note_on_c, 0, 51, 74
1, 1426561, Note_on_c, 0, 69, 76
1, 1426562, Note_on_c, 0, 53, 64
1, 1426568, Control_c, 0, 64, 35
1, 1426570, Note_off_c, 0, 67, 58
1, 1426580, Note_off_c, 0, 51, 69
1, 1426583, Control_c, 0, 64, 66
1, 1426587, Note_off_c, 0, 53, 66
1, 1426598, Control_c, 0, 64, 72
1, 1426613, Control_c, 0, 64, 78
1, 1426628, Control_c, 0, 64, 83
1, 1426636, Note_on_c, 0, 57, 57
1, 1426642, Control_c, 0, 64, 87
1, 1426657, Control_c, 0, 64, 92
1, 1426670, Note_off_c, 0, 57, 64
1, 1426672, Control_c, 0, 64, 98
1, 1426687, Control_c, 0, 64, 106
1, 1426701, Control_c, 0, 64, 116
1, 1426716, Control_c, 0, 64, 127
1, 1426720, Note_on_c, 0, 60, 50
1, 1426745, Note_off_c, 0, 60, 59
1, 1426761, Control_c, 0, 64, 104
1, 1426775, Control_c, 0, 64, 80
1, 1426790, Control_c, 0, 64, 53
1, 1426801, Note_on_c, 0, 62, 71
1, 1426805, Control_c, 0, 64, 0
1, 1426818, Note_on_c, 0, 70, 87
1, 1426820, Control_c, 0, 64, 31
1, 1426835, Control_c, 0, 64, 64
1, 1426844, Note_off_c, 0, 69, 63
1, 1426850, Control_c, 0, 64, 73
1, 1426859, Note_off_c, 0, 62, 63
1, 1426860, Note_on_c, 0, 63, 75
1, 1426865, Control_c, 0, 64, 88
1, 1426880, Control_c, 0, 64, 110
1, 1426883, Note_off_c, 0, 63, 69
1, 1426901, Control_c, 0, 64, 127
1, 1426981, Note_off_c, 0, 70, 58
1, 1427047, Note_on_c, 0, 63, 77
1, 1427110, Control_c, 0, 64, 101
1, 1427116, Note_on_c, 0, 77, 72
1, 1427123, Note_on_c, 0, 74, 95
1, 1427124, Control_c, 0, 64, 85
1, 1427139, Control_c, 0, 64, 75
1, 1427154, Control_c, 0, 64, 67
1, 1427169, Control_c, 0, 64, 64
1, 1427197, Note_off_c, 0, 77, 57
1, 1427199, Control_c, 0, 64, 65
1, 1427213, Note_on_c, 0, 79, 66
1, 1427261, Note_off_c, 0, 79, 56
1, 1427292, Note_on_c, 0, 82, 72
1, 1427318, Control_c, 0, 64, 65
1, 1427345, Note_off_c, 0, 82, 60
1, 1427380, Note_on_c, 0, 72, 84
1, 1427389, Note_on_c, 0, 81, 67
1, 1427429, Note_off_c, 0, 81, 57
1, 1427478, Note_on_c, 0, 89, 71
1, 1427562, Note_on_c, 0, 87, 73
1, 1427593, Note_off_c, 0, 89, 52
1, 1427598, Control_c, 0, 64, 65
1, 1427603, Note_off_c, 0, 74, 43
1, 1427628, Control_c, 0, 64, 64
1, 1427650, Control_c, 0, 64, 60
1, 1427664, Note_on_c, 0, 84, 70
1, 1427665, Control_c, 0, 64, 27
1, 1427667, Note_off_c, 0, 87, 60
1, 1427677, Note_on_c, 0, 69, 73
1, 1427680, Control_c, 0, 64, 0
1, 1427684, Note_off_c, 0, 72, 61
1, 1427721, Note_off_c, 0, 84, 65
1, 1427739, Note_on_c, 0, 81, 68
1, 1427771, Note_off_c, 0, 81, 61
1, 1427839, Note_on_c, 0, 77, 71
1, 1427873, Control_c, 0, 64, 53
1, 1427888, Control_c, 0, 64, 66
1, 1427892, Note_off_c, 0, 69, 59
1, 1427902, Note_on_c, 0, 65, 68
1, 1427903, Control_c, 0, 64, 71
1, 1427918, Control_c, 0, 64, 79
1, 1427927, Note_on_c, 0, 75, 79
1, 1427931, Note_off_c, 0, 65, 68
1, 1427933, Control_c, 0, 64, 90
1, 1427937, Note_off_c, 0, 63, 62
1, 1427947, Control_c, 0, 64, 104
1, 1427962, Control_c, 0, 64, 127
1, 1427974, Note_off_c, 0, 77, 61
1, 1428012, Note_on_c, 0, 72, 78
1, 1428027, Note_off_c, 0, 75, 61
1, 1428069, Note_off_c, 0, 72, 65
1, 1428073, Note_on_c, 0, 69, 76
1, 1428096, Note_off_c, 0, 69, 67
1, 1428239, Note_on_c, 0, 46, 67
1, 1428265, Note_on_c, 0, 74, 89
1, 1428266, Note_on_c, 0, 77, 91
1, 1428271, Note_on_c, 0, 65, 84
1, 1428318, Control_c, 0, 64, 95
1, 1428333, Control_c, 0, 64, 78
1, 1428347, Control_c, 0, 64, 66
1, 1428350, Note_off_c, 0, 46, 57
1, 1428360, Note_on_c, 0, 48, 66
1, 1428362, Control_c, 0, 64, 53
1, 1428377, Control_c, 0, 64, 51
1, 1428414, Control_c, 0, 64, 47
1, 1428429, Control_c, 0, 64, 21
1, 1428444, Control_c, 0, 64, 0
1, 1428448, Note_on_c, 0, 51, 72
1, 1428459, Note_off_c, 0, 48, 59
1, 1428514, Note_on_c, 0, 50, 76
1, 1428555, Note_off_c, 0, 50, 62
1, 1428562, Control_c, 0, 64, 57
1, 1428566, Note_off_c, 0, 74, 65
1, 1428578, Control_c, 0, 64, 71
1, 1428580, Note_off_c, 0, 65, 63
1, 1428593, Control_c, 0, 64, 80
1, 1428596, Note_off_c, 0, 51, 36
1, 1428608, Control_c, 0, 64, 88
1, 1428611, Note_on_c, 0, 62, 74
1, 1428623, Control_c, 0, 64, 92
1, 1428638, Control_c, 0, 64, 93
1, 1428652, Note_off_c, 0, 62, 58
1, 1428652, Control_c, 0, 64, 93
1, 1428667, Control_c, 0, 64, 94
1, 1428682, Control_c, 0, 64, 95
1, 1428691, Note_on_c, 0, 58, 76
1, 1428696, Control_c, 0, 64, 95
1, 1428711, Control_c, 0, 64, 96
1, 1428714, Note_off_c, 0, 58, 69
1, 1428726, Control_c, 0, 64, 97
1, 1428741, Control_c, 0, 64, 98
1, 1428756, Control_c, 0, 64, 99
1, 1428778, Note_on_c, 0, 50, 83
1, 1428785, Control_c, 0, 64, 98
1, 1428787, Note_on_c, 0, 65, 85
1, 1428787, Note_on_c, 0, 74, 87
1, 1428792, Note_on_c, 0, 69, 80
1, 1428800, Control_c, 0, 64, 92
1, 1428815, Control_c, 0, 64, 80
1, 1428830, Control_c, 0, 64, 66
1, 1428838, Note_off_c, 0, 77, 52
1, 1428844, Control_c, 0, 64, 0
1, 1428855, Note_off_c, 0, 50, 65
1, 1428861, Note_on_c, 0, 52, 77
1, 1428968, Note_on_c, 0, 55, 75
1, 1428969, Note_off_c, 0, 52, 63
1, 1428971, Note_off_c, 0, 65, 54
1, 1429034, Note_off_c, 0, 55, 65
1, 1429037, Control_c, 0, 64, 27
1, 1429041, Note_on_c, 0, 53, 69
1, 1429043, Note_off_c, 0, 69, 60
1, 1429052, Control_c, 0, 64, 66
1, 1429067, Control_c, 0, 64, 74
1, 1429068, Note_off_c, 0, 53, 67
1, 1429082, Control_c, 0, 64, 81
1, 1429096, Control_c, 0, 64, 86
1, 1429111, Control_c, 0, 64, 87
1, 1429122, Note_on_c, 0, 65, 73
1, 1429148, Control_c, 0, 64, 87
1, 1429178, Control_c, 0, 64, 88
1, 1429182, Note_off_c, 0, 65, 57
1, 1429193, Control_c, 0, 64, 88
1, 1429208, Control_c, 0, 64, 89
1, 1429220, Note_on_c, 0, 62, 61
1, 1429222, Control_c, 0, 64, 89
1, 1429237, Control_c, 0, 64, 90
1, 1429249, Note_off_c, 0, 62, 64
1, 1429309, Note_on_c, 0, 70, 84
1, 1429311, Control_c, 0, 64, 87
1, 1429312, Note_on_c, 0, 55, 75
1, 1429316, Note_on_c, 0, 67, 74
1, 1429326, Control_c, 0, 64, 81
1, 1429341, Control_c, 0, 64, 71
1, 1429356, Control_c, 0, 64, 64
1, 1429372, Control_c, 0, 64, 58
1, 1429377, Note_off_c, 0, 55, 64
1, 1429387, Control_c, 0, 64, 53
1, 1429400, Note_on_c, 0, 57, 59
1, 1429401, Control_c, 0, 64, 47
1, 1429416, Control_c, 0, 64, 0
1, 1429416, Control_c, 0, 67, 9
1, 1429431, Control_c, 0, 67, 16
1, 1429445, Control_c, 0, 67, 27
1, 1429460, Control_c, 0, 67, 41
1, 1429469, Note_off_c, 0, 57, 62
1, 1429476, Control_c, 0, 67, 55
1, 1429476, Note_on_c, 0, 60, 66
1, 1429491, Control_c, 0, 67, 68
1, 1429506, Control_c, 0, 67, 76
1, 1429512, Note_off_c, 0, 67, 42
1, 1429520, Control_c, 0, 67, 80
1, 1429535, Control_c, 0, 67, 82
1, 1429550, Control_c, 0, 67, 83
1, 1429565, Note_off_c, 0, 60, 63
1, 1429567, Note_on_c, 0, 58, 69
1, 1429594, Control_c, 0, 64, 62
1, 1429594, Control_c, 0, 67, 81
1, 1429607, Note_off_c, 0, 58, 61
1, 1429609, Control_c, 0, 64, 70
1, 1429609, Control_c, 0, 67, 80
1, 1429624, Control_c, 0, 64, 80
1, 1429624, Control_c, 0, 67, 78
1, 1429639, Control_c, 0, 64, 90
1, 1429639, Control_c, 0, 67, 78
1, 1429641, Note_off_c, 0, 74, 0
1, 1429653, Control_c, 0, 64, 98
1, 1429653, Control_c, 0, 67, 77
1, 1429660, Note_on_c, 0, 67, 57
1, 1429668, Control_c, 0, 64, 104
1, 1429668, Control_c, 0, 67, 77
1, 1429679, Poly_aftertouch_c, 0, 74, 127
1, 1429683, Control_c, 0, 64, 108
1, 1429683, Control_c, 0, 67, 76
1, 1429691, Note_off_c, 0, 67, 64
1, 1429698, Control_c, 0, 64, 112
1, 1429698, Control_c, 0, 67, 76
1, 1429713, Control_c, 0, 64, 118
1, 1429713, Control_c, 0, 67, 75
1, 1429727, Control_c, 0, 64, 127
1, 1429727, Control_c, 0, 67, 75
1, 1429732, Note_on_c, 0, 64, 63
1, 1429757, Control_c, 0, 67, 74
1, 1429765, Note_off_c, 0, 64, 63
1, 1429816, Control_c, 0, 67, 75
1, 1429831, Control_c, 0, 67, 78
1, 1429843, Note_on_c, 0, 65, 66
1, 1429846, Control_c, 0, 64, 101
1, 1429846, Control_c, 0, 67, 80
1, 1429856, Note_on_c, 0, 69, 72
1, 1429861, Control_c, 0, 64, 84
1, 1429861, Control_c, 0, 67, 84
1, 1429862, Poly_aftertouch_c, 0, 74, 0
1, 1429870, Note_off_c, 0, 70, 55
1, 1429875, Control_c, 0, 64, 69
1, 1429875, Control_c, 0, 67, 88
1, 1429898, Note_off_c, 0, 65, 48
1, 1429898, Control_c, 0, 64, 42
1, 1429898, Control_c, 0, 67, 95
1, 1429913, Control_c, 0, 64, 0
1, 1429913, Control_c, 0, 67, 103
1, 1429927, Control_c, 0, 67, 110
1, 1429942, Control_c, 0, 67, 115
1, 1429950, Note_on_c, 0, 62, 66
1, 1429957, Control_c, 0, 67, 119
1, 1429972, Control_c, 0, 67, 121
1, 1430011, Note_off_c, 0, 62, 57
1, 1430027, Note_on_c, 0, 57, 63
1, 1430045, Control_c, 0, 64, 44
1, 1430045, Control_c, 0, 67, 119
1, 1430060, Control_c, 0, 64, 65
1, 1430060, Control_c, 0, 67, 117
1, 1430075, Control_c, 0, 64, 73
1, 1430075, Control_c, 0, 67, 115
1, 1430079, Note_off_c, 0, 57, 60
1, 1430090, Control_c, 0, 64, 83
1, 1430090, Control_c, 0, 67, 113
1, 1430105, Control_c, 0, 64, 94
1, 1430105, Control_c, 0, 67, 111
1, 1430120, Control_c, 0, 64, 102
1, 1430120, Control_c, 0, 67, 109
1, 1430123, Note_off_c, 0, 69, 63
1, 1430125, Note_on_c, 0, 53, 73
1, 1430135, Control_c, 0, 64, 106
1, 1430135, Control_c, 0, 67, 108
1, 1430150, Control_c, 0, 64, 107
1, 1430150, Control_c, 0, 67, 107
1, 1430165, Control_c, 0, 64, 108
1, 1430165, Control_c, 0, 67, 104
1, 1430174, Note_off_c, 0, 53, 54
1, 1430180, Control_c, 0, 67, 102
1, 1430195, Control_c, 0, 67, 100
1, 1430210, Control_c, 0, 67, 98
1, 1430215, Note_on_c, 0, 50, 69
1, 1430224, Control_c, 0, 67, 97
1, 1430281, Note_off_c, 0, 50, 64
1, 1430302, Note_on_c, 0, 45, 64
1, 1430372, Control_c, 0, 67, 98
1, 1430387, Control_c, 0, 64, 99
1, 1430387, Control_c, 0, 67, 98
1, 1430402, Control_c, 0, 64, 85
1, 1430412, Note_off_c, 0, 45, 65
1, 1430416, Note_on_c, 0, 65, 55
1, 1430416, Control_c, 0, 64, 69
1, 1430418, Note_on_c, 0, 46, 62
1, 1430419, Note_on_c, 0, 67, 68
1, 1430431, Control_c, 0, 64, 37
1, 1430431, Control_c, 0, 67, 99
1, 1430446, Control_c, 0, 64, 0
1, 1430454, Note_off_c, 0, 65, 63
1, 1430460, Control_c, 0, 67, 99
1, 1430475, Control_c, 0, 64, 44
1, 1430475, Control_c, 0, 67, 100
1, 1430482, Note_off_c, 0, 46, 61
1, 1430490, Control_c, 0, 64, 57
1, 1430505, Control_c, 0, 64, 62
1, 1430505, Control_c, 0, 67, 100
1, 1430511, Note_on_c, 0, 62, 48
1, 1430520, Control_c, 0, 64, 64
1, 1430529, Note_on_c, 0, 46, 45
1, 1430534, Control_c, 0, 64, 64
1, 1430549, Control_c, 0, 67, 101
1, 1430564, Control_c, 0, 64, 65
1, 1430579, Control_c, 0, 64, 65
1, 1430594, Control_c, 0, 67, 101
1, 1430597, Note_off_c, 0, 62, 60
1, 1430603, Note_on_c, 0, 58, 58
1, 1430661, Control_c, 0, 64, 64
1, 1430675, Control_c, 0, 64, 63
1, 1430675, Control_c, 0, 67, 100
1, 1430683, Note_on_c, 0, 55, 66
1, 1430690, Control_c, 0, 67, 96
1, 1430705, Control_c, 0, 64, 64
1, 1430705, Control_c, 0, 67, 89
1, 1430720, Control_c, 0, 64, 65
1, 1430720, Control_c, 0, 67, 69
1, 1430735, Control_c, 0, 64, 66
1, 1430735, Control_c, 0, 67, 45
1, 1430749, Control_c, 0, 64, 68
1, 1430749, Control_c, 0, 67, 25
1, 1430764, Control_c, 0, 64, 71
1, 1430764, Control_c, 0, 67, 9
1, 1430778, Note_off_c, 0, 55, 61
1, 1430779, Control_c, 0, 64, 73
1, 1430779, Control_c, 0, 67, 0
1, 1430780, Note_on_c, 0, 53, 70
1, 1430794, Control_c, 0, 64, 74
1, 1430807, Note_off_c, 0, 46, 61
1, 1430808, Control_c, 0, 64, 75
1, 1430823, Control_c, 0, 64, 77
1, 1430838, Control_c, 0, 64, 79
1, 1430851, Note_on_c, 0, 50, 73
1, 1430853, Control_c, 0, 64, 82
1, 1430868, Control_c, 0, 64, 84
1, 1430869, Note_off_c, 0, 53, 63
1, 1430883, Control_c, 0, 64, 86
1, 1430898, Control_c, 0, 64, 85
1, 1430913, Control_c, 0, 64, 77
1, 1430928, Control_c, 0, 64, 65
1, 1430929, Note_off_c, 0, 50, 62
1, 1430934, Note_on_c, 0, 46, 72
1, 1430942, Control_c, 0, 64, 0
1, 1430946, Note_off_c, 0, 58, 63
1, 1430952, Note_off_c, 0, 67, 62
1, 1430969, Note_off_c, 0, 46, 63
1, 1430972, Control_c, 0, 64, 11
1, 1430987, Control_c, 0, 64, 58
1, 1431002, Control_c, 0, 64, 67
1, 1431017, Control_c, 0, 64, 75
1, 1431027, Note_on_c, 0, 43, 85
1, 1431032, Control_c, 0, 64, 85
1, 1431047, Control_c, 0, 64, 101
1, 1431062, Control_c, 0, 64, 117
1, 1431077, Control_c, 0, 64, 127
1, 1431104, Note_on_c, 0, 41, 85
1, 1431115, Note_off_c, 0, 43, 61
1, 1431121, Control_c, 0, 64, 115
1, 1431136, Control_c, 0, 64, 88
1, 1431151, Control_c, 0, 64, 69
1, 1431165, Control_c, 0, 64, 58
1, 1431180, Control_c, 0, 64, 64
1, 1431184, Note_on_c, 0, 72, 88
1, 1431185, Note_on_c, 0, 40, 81
1, 1431185, Note_on_c, 0, 67, 76
1, 1431187, Note_on_c, 0, 58, 76
1, 1431195, Control_c, 0, 64, 72
1, 1431201, Note_off_c, 0, 41, 63
1, 1431204, Note_off_c, 0, 58, 69
1, 1431209, Note_off_c, 0, 67, 66
1, 1431210, Control_c, 0, 64, 84
1, 1431225, Control_c, 0, 64, 109
1, 1431226, Note_off_c, 0, 72, 65
1, 1431239, Control_c, 0, 64, 127
1, 1431265, Note_on_c, 0, 38, 93
1, 1431273, Note_off_c, 0, 40, 64
1, 1431354, Note_on_c, 0, 36, 91
1, 1431378, Note_off_c, 0, 38, 58
1, 1431410, Control_c, 0, 64, 91
1, 1431424, Control_c, 0, 64, 83
1, 1431439, Control_c, 0, 64, 98
1, 1431452, Note_on_c, 0, 48, 101
1, 1431453, Note_off_c, 0, 36, 62
1, 1431454, Control_c, 0, 64, 127
1, 1431467, Note_on_c, 0, 73, 97
1, 1431472, Note_off_c, 0, 48, 72
1, 1431474, Note_on_c, 0, 64, 80
1, 1431511, Note_off_c, 0, 64, 61
1, 1431559, Note_on_c, 0, 70, 82
1, 1431658, Note_off_c, 0, 73, 46
1, 1431667, Note_on_c, 0, 68, 88
1, 1431670, Note_on_c, 0, 61, 102
1, 1431672, Note_on_c, 0, 58, 87
1, 1431676, Control_c, 0, 64, 75
1, 1431688, Note_on_c, 0, 53, 55
1, 1431691, Control_c, 0, 64, 0
1, 1431720, Note_off_c, 0, 70, 59
1, 1431721, Control_c, 0, 64, 24
1, 1431726, Note_off_c, 0, 53, 50
1, 1431736, Control_c, 0, 64, 69
1, 1431746, Note_off_c, 0, 68, 63
1, 1431750, Note_on_c, 0, 67, 79
1, 1431750, Control_c, 0, 64, 88
1, 1431766, Control_c, 0, 64, 127
1, 1431783, Note_off_c, 0, 61, 63
1, 1431791, Note_off_c, 0, 58, 59
1, 1431864, Note_on_c, 0, 68, 76
1, 1431866, Note_on_c, 0, 56, 79
1, 1431871, Note_off_c, 0, 67, 34
1, 1431879, Note_on_c, 0, 60, 66
1, 1431891, Note_off_c, 0, 56, 70
1, 1431903, Note_off_c, 0, 60, 66
1, 1431914, Control_c, 0, 64, 97
1, 1431929, Control_c, 0, 64, 66
1, 1431944, Control_c, 0, 64, 0
1, 1431945, Note_off_c, 0, 68, 61
1, 1431946, Note_on_c, 0, 70, 74
1, 1431959, Note_on_c, 0, 58, 82
1, 1431962, Note_on_c, 0, 55, 72
1, 1431985, Note_off_c, 0, 55, 67
1, 1431992, Note_off_c, 0, 58, 61
1, 1431998, Note_off_c, 0, 70, 62
1, 1432018, Control_c, 0, 64, 30
1, 1432029, Note_on_c, 0, 72, 80
1, 1432031, Note_on_c, 0, 53, 88
1, 1432032, Control_c, 0, 64, 46
1, 1432039, Note_on_c, 0, 56, 78
1, 1432047, Control_c, 0, 64, 48
1, 1432054, Note_off_c, 0, 53, 73
1, 1432062, Note_off_c, 0, 56, 68
1, 1432077, Control_c, 0, 64, 48
1, 1432092, Note_on_c, 0, 55, 2
1, 1432092, Control_c, 0, 64, 50
1, 1432107, Control_c, 0, 64, 53
1, 1432114, Note_on_c, 0, 68, 72
1, 1432116, Note_off_c, 0, 72, 62
1, 1432121, Control_c, 0, 64, 56
1, 1432129, Note_off_c, 0, 55, 31
1, 1432144, Control_c, 0, 64, 60
1, 1432159, Control_c, 0, 64, 63
1, 1432174, Control_c, 0, 64, 65
1, 1432187, Note_off_c, 0, 68, 58
1, 1432188, Control_c, 0, 64, 66
1, 1432191, Note_on_c, 0, 67, 71
1, 1432203, Control_c, 0, 64, 68
1, 1432212, Note_on_c, 0, 55, 71
1, 1432218, Control_c, 0, 64, 69
1, 1432227, Note_on_c, 0, 58, 58
1, 1432233, Control_c, 0, 64, 70
1, 1432247, Note_off_c, 0, 67, 63
1, 1432247, Control_c, 0, 64, 69
1, 1432259, Note_on_c, 0, 56, 83
1, 1432262, Note_off_c, 0, 55, 63
1, 1432262, Control_c, 0, 64, 64
1, 1432266, Note_on_c, 0, 60, 75
1, 1432266, Note_on_c, 0, 65, 80
1, 1432277, Control_c, 0, 64, 0
1, 1432278, Note_off_c, 0, 58, 61
1, 1432288, Note_off_c, 0, 56, 68
1, 1432288, Note_off_c, 0, 60, 70
1, 1432355, Note_off_c, 0, 65, 54
1, 1432357, Note_on_c, 0, 68, 77
1, 1432417, Note_off_c, 0, 68, 61
1, 1432439, Note_on_c, 0, 72, 58
1, 1432472, Note_on_c, 0, 71, 14
1, 1432502, Note_off_c, 0, 71, 31
1, 1432509, Note_on_c, 0, 36, 79
1, 1432509, Note_off_c, 0, 72, 63
1, 1432514, Control_c, 0, 64, 65
1, 1432518, Note_on_c, 0, 73, 81
1, 1432528, Control_c, 0, 64, 93
1, 1432534, Note_off_c, 0, 36, 64
1, 1432543, Control_c, 0, 64, 127
1, 1432606, Note_on_c, 0, 70, 80
1, 1432624, Note_off_c, 0, 73, 60
1, 1432689, Note_on_c, 0, 68, 83
1, 1432700, Note_on_c, 0, 61, 90
1, 1432702, Note_on_c, 0, 58, 79
1, 1432712, Note_off_c, 0, 70, 55
1, 1432758, Note_off_c, 0, 68, 63
1, 1432776, Note_on_c, 0, 67, 79
1, 1432790, Note_off_c, 0, 61, 61
1, 1432798, Note_off_c, 0, 58, 61
1, 1432823, Note_off_c, 0, 67, 59
1, 1432874, Note_on_c, 0, 56, 80
1, 1432876, Note_on_c, 0, 79, 84
1, 1432890, Note_on_c, 0, 60, 70
1, 1432904, Note_off_c, 0, 56, 71
1, 1432907, Control_c, 0, 64, 98
1, 1432916, Note_off_c, 0, 60, 66
1, 1432922, Control_c, 0, 64, 72
1, 1432937, Control_c, 0, 64, 0
1, 1432955, Note_on_c, 0, 76, 80
1, 1432964, Note_off_c, 0, 79, 58
1, 1432966, Note_on_c, 0, 55, 77
1, 1432970, Note_on_c, 0, 58, 80
1, 1432990, Note_off_c, 0, 55, 67
1, 1432998, Note_off_c, 0, 58, 65
1, 1433038, Note_off_c, 0, 76, 61
1, 1433041, Note_on_c, 0, 73, 82
1, 1433056, Control_c, 0, 64, 17
1, 1433062, Note_on_c, 0, 53, 87
1, 1433065, Note_on_c, 0, 56, 78
1, 1433070, Control_c, 0, 64, 19
1, 1433085, Note_off_c, 0, 53, 73
1, 1433085, Control_c, 0, 64, 21
1, 1433086, Note_off_c, 0, 56, 70
1, 1433095, Note_off_c, 0, 73, 63
1, 1433100, Control_c, 0, 64, 26
1, 1433112, Note_on_c, 0, 72, 72
1, 1433115, Control_c, 0, 64, 33
1, 1433130, Control_c, 0, 64, 39
1, 1433144, Control_c, 0, 64, 46
1, 1433154, Note_off_c, 0, 72, 57
1, 1433159, Control_c, 0, 64, 52
1, 1433174, Control_c, 0, 64, 56
1, 1433188, Control_c, 0, 64, 60
1, 1433195, Note_on_c, 0, 84, 77
1, 1433203, Control_c, 0, 64, 63
1, 1433219, Control_c, 0, 64, 65
1, 1433228, Note_on_c, 0, 55, 79
1, 1433234, Control_c, 0, 64, 68
1, 1433240, Note_on_c, 0, 58, 73
1, 1433249, Control_c, 0, 64, 71
1, 1433263, Control_c, 0, 64, 72
1, 1433272, Note_on_c, 0, 80, 70
1, 1433274, Note_off_c, 0, 84, 64
1, 1433277, Note_off_c, 0, 55, 53
1, 1433278, Control_c, 0, 64, 71
1, 1433290, Note_on_c, 0, 56, 77
1, 1433293, Control_c, 0, 64, 62
1, 1433298, Note_on_c, 0, 60, 84
1, 1433308, Control_c, 0, 64, 0
1, 1433312, Note_off_c, 0, 58, 63
1, 1433318, Note_off_c, 0, 60, 71
1, 1433319, Note_off_c, 0, 56, 68
1, 1433345, Note_on_c, 0, 77, 73
1, 1433353, Note_off_c, 0, 80, 59
1, 1433402, Note_off_c, 0, 77, 62
1, 1433433, Note_on_c, 0, 72, 70
1, 1433490, Note_off_c, 0, 72, 61
1, 1433526, Note_on_c, 0, 41, 79
1, 1433531, Control_c, 0, 64, 56
1, 1433540, Note_on_c, 0, 77, 61
1, 1433546, Control_c, 0, 64, 87
1, 1433552, Note_off_c, 0, 41, 66
1, 1433560, Control_c, 0, 64, 127
1, 1433607, Note_on_c, 0, 75, 77
1, 1433629, Note_off_c, 0, 77, 44
1, 1433710, Note_on_c, 0, 66, 93
1, 1433713, Note_on_c, 0, 63, 84
1, 1433715, Note_on_c, 0, 73, 87
1, 1433747, Note_off_c, 0, 75, 60
1, 1433777, Note_on_c, 0, 72, 77
1, 1433778, Note_off_c, 0, 73, 62
1, 1433803, Note_off_c, 0, 66, 61
1, 1433820, Note_off_c, 0, 63, 59
1, 1433849, Note_off_c, 0, 72, 56
1, 1433885, Note_on_c, 0, 73, 79
1, 1433890, Note_on_c, 0, 61, 82
1, 1433906, Note_on_c, 0, 65, 53
1, 1433912, Note_off_c, 0, 61, 68
1, 1433929, Note_off_c, 0, 65, 62
1, 1433960, Note_on_c, 0, 75, 78
1, 1433965, Note_off_c, 0, 73, 62
1, 1433982, Note_on_c, 0, 60, 87
1, 1433983, Note_on_c, 0, 63, 88
1, 1433997, Control_c, 0, 64, 83
1, 1434004, Note_off_c, 0, 60, 70
1, 1434009, Note_off_c, 0, 63, 66
1, 1434011, Control_c, 0, 64, 0
1, 1434022, Note_off_c, 0, 75, 60
1, 1434044, Note_on_c, 0, 77, 76
1, 1434065, Note_on_c, 0, 61, 87
1, 1434097, Note_off_c, 0, 61, 60
1, 1434115, Control_c, 0, 64, 17
1, 1434122, Note_off_c, 0, 77, 63
1, 1434123, Note_on_c, 0, 73, 75
1, 1434130, Control_c, 0, 64, 40
1, 1434145, Control_c, 0, 64, 52
1, 1434161, Control_c, 0, 64, 61
1, 1434176, Control_c, 0, 64, 66
1, 1434184, Note_off_c, 0, 73, 62
1, 1434188, Note_on_c, 0, 72, 72
1, 1434190, Control_c, 0, 64, 70
1, 1434205, Control_c, 0, 64, 74
1, 1434216, Note_on_c, 0, 60, 63
1, 1434220, Control_c, 0, 64, 76
1, 1434233, Note_on_c, 0, 63, 62
1, 1434244, Note_off_c, 0, 72, 63
1, 1434249, Control_c, 0, 64, 69
1, 1434257, Note_on_c, 0, 70, 89
1, 1434258, Note_on_c, 0, 65, 80
1, 1434264, Control_c, 0, 64, 0
1, 1434266, Note_on_c, 0, 61, 74
1, 1434272, Note_off_c, 0, 60, 65
1, 1434275, Note_off_c, 0, 63, 62
1, 1434278, Note_off_c, 0, 65, 71
1, 1434289, Note_off_c, 0, 61, 66
1, 1434339, Note_on_c, 0, 73, 87
1, 1434341, Note_off_c, 0, 70, 58
1, 1434413, Note_on_c, 0, 77, 66
1, 1434432, Note_off_c, 0, 73, 58
1, 1434487, Note_off_c, 0, 77, 61
1, 1434496, Note_on_c, 0, 44, 88
1, 1434502, Note_on_c, 0, 82, 84
1, 1434509, Control_c, 0, 64, 70
1, 1434523, Control_c, 0, 64, 113
1, 1434525, Note_off_c, 0, 44, 67
1, 1434538, Control_c, 0, 64, 127
1, 1434547, Note_on_c, 0, 50, 10
1, 1434585, Note_on_c, 0, 78, 76
1, 1434590, Poly_aftertouch_c, 0, 43, 0
1, 1434602, Note_off_c, 0, 50, 48
1, 1434612, Note_off_c, 0, 82, 64
1, 1434620, Poly_aftertouch_c, 0, 43, 0
1, 1434674, Note_on_c, 0, 70, 87
1, 1434681, Note_on_c, 0, 77, 88
1, 1434683, Note_on_c, 0, 67, 72
1, 1434686, Note_on_c, 0, 69, 73
1, 1434687, Note_off_c, 0, 69, 127
1, 1434687, Note_on_c, 0, 71, 81
1, 1434687, Note_off_c, 0, 78, 56
1, 1434733, Note_off_c, 0, 71, 38
1, 1434746, Note_off_c, 0, 77, 62
1, 1434754, Note_off_c, 0, 70, 61
1, 1434761, Note_off_c, 0, 67, 60
1, 1434761, Poly_aftertouch_c, 0, 66, 127
1, 1434782, Note_on_c, 0, 76, 65
1, 1434802, Poly_aftertouch_c, 0, 66, 0
1, 1434807, Note_off_c, 0, 76, 65
1, 1434844, Note_on_c, 0, 68, 86
1, 1434853, Note_on_c, 0, 65, 76
1, 1434858, Note_on_c, 0, 87, 82
1, 1434873, Note_off_c, 0, 68, 59
1, 1434877, Note_off_c, 0, 65, 67
1, 1434929, Note_on_c, 0, 84, 84
1, 1434935, Note_on_c, 0, 63, 82
1, 1434941, Note_on_c, 0, 66, 80
1, 1434951, Note_off_c, 0, 87, 61
1, 1434968, Note_off_c, 0, 63, 60
1, 1434974, Note_off_c, 0, 66, 61
1, 1434984, Control_c, 0, 64, 111
1, 1434999, Control_c, 0, 64, 72
1, 1435013, Control_c, 0, 64, 0
1, 1435018, Note_off_c, 0, 84, 64
1, 1435020, Note_on_c, 0, 82, 94
1, 1435031, Note_on_c, 0, 61, 80
1, 1435047, Note_on_c, 0, 65, 72
1, 1435050, Note_off_c, 0, 61, 63
1, 1435051, Note_on_c, 0, 62, 62
1, 1435071, Note_off_c, 0, 65, 68
1, 1435080, Note_off_c, 0, 62, 66
1, 1435089, Note_on_c, 0, 80, 84
1, 1435091, Note_off_c, 0, 82, 63
1, 1435178, Note_off_c, 0, 80, 53
1, 1435180, Note_on_c, 0, 92, 88
1, 1435193, Note_on_c, 0, 64, 72
1, 1435208, Note_on_c, 0, 67, 62
1, 1435235, Note_on_c, 0, 66, 55
1, 1435242, Note_on_c, 0, 68, 77
1, 1435254, Note_off_c, 0, 67, 60
1, 1435255, Note_on_c, 0, 89, 92
1, 1435271, Note_off_c, 0, 64, 62
1, 1435271, Note_off_c, 0, 68, 63
1, 1435272, Control_c, 0, 64, 83
1, 1435273, Note_on_c, 0, 65, 62
1, 1435277, Note_on_c, 0, 69, 40
1, 1435278, Note_off_c, 0, 69, 127
1, 1435279, Note_off_c, 0, 66, 60
1, 1435282, Note_off_c, 0, 92, 65
1, 1435287, Control_c, 0, 64, 127
1, 1435291, Note_off_c, 0, 65, 65
1, 1435332, Note_on_c, 0, 85, 88
1, 1435348, Note_off_c, 0, 89, 63
1, 1435396, Note_on_c, 0, 80, 90
1, 1435406, Note_off_c, 0, 85, 64
1, 1435444, Note_off_c, 0, 80, 63
1, 1435463, Note_on_c, 0, 36, 4
1, 1435517, Note_off_c, 0, 36, 0
1, 1435529, Note_on_c, 0, 36, 70
1, 1435531, Note_on_c, 0, 48, 102
1, 1435538, Control_c, 0, 64, 80
1, 1435553, Control_c, 0, 64, 0
1, 1435578, Note_on_c, 0, 84, 93
1, 1435597, Control_c, 0, 64, 38
1, 1435601, Note_off_c, 0, 36, 62
1, 1435612, Control_c, 0, 64, 84
1, 1435613, Note_off_c, 0, 48, 65
1, 1435627, Control_c, 0, 64, 127
1, 1435720, Note_on_c, 0, 79, 83
1, 1435741, Note_off_c, 0, 84, 62
1, 1435769, Note_off_c, 0, 79, 63
1, 1435799, Note_on_c, 0, 77, 87
1, 1435840, Note_off_c, 0, 77, 64
1, 1435886, Note_on_c, 0, 72, 98
1, 1435888, Note_on_c, 0, 60, 82
1, 1435891, Note_on_c, 0, 67, 76
1, 1435896, Note_on_c, 0, 65, 84
1, 1435900, Note_on_c, 0, 77, 82
1, 1435956, Note_off_c, 0, 77, 63
1, 1435986, Note_on_c, 0, 89, 93
1, 1436073, Note_on_c, 0, 84, 92
1, 1436082, Note_off_c, 0, 89, 63
1, 1436131, Note_off_c, 0, 84, 66
1, 1436148, Note_on_c, 0, 79, 80
1, 1436170, Note_off_c, 0, 79, 67
1, 1436171, Note_off_c, 0, 72, 63
1, 1436191, Note_off_c, 0, 65, 63
1, 1436193, Note_off_c, 0, 67, 60
1, 1436194, Note_off_c, 0, 60, 61
1, 1436237, Note_on_c, 0, 79, 91
1, 1436295, Note_off_c, 0, 79, 63
1, 1436310, Note_on_c, 0, 91, 97
1, 1436361, Control_c, 0, 64, 92
1, 1436365, Note_on_c, 0, 67, 76
1, 1436365, Note_on_c, 0, 72, 93
1, 1436370, Note_on_c, 0, 60, 85
1, 1436373, Note_on_c, 0, 64, 78
1, 1436376, Control_c, 0, 64, 90
1, 1436383, Note_off_c, 0, 91, 65
1, 1436386, Note_on_c, 0, 88, 96
1, 1436391, Control_c, 0, 64, 98
1, 1436398, Note_off_c, 0, 64, 70
1, 1436401, Note_off_c, 0, 72, 63
1, 1436401, Note_off_c, 0, 67, 60
1, 1436405, Control_c, 0, 64, 127
1, 1436425, Note_off_c, 0, 60, 66
1, 1436462, Note_off_c, 0, 88, 63
1, 1436475, Note_on_c, 0, 84, 92
1, 1436524, Control_c, 0, 64, 96
1, 1436532, Note_on_c, 0, 60, 71
1, 1436532, Note_on_c, 0, 65, 78
1, 1436535, Note_on_c, 0, 72, 89
1, 1436539, Note_on_c, 0, 62, 75
1, 1436539, Control_c, 0, 64, 85
1, 1436555, Control_c, 0, 64, 92
1, 1436570, Control_c, 0, 64, 127
1, 1436590, Note_off_c, 0, 60, 57
1, 1436591, Note_off_c, 0, 72, 64
1, 1436591, Note_off_c, 0, 84, 60
1, 1436599, Note_off_c, 0, 65, 64
1, 1436609, Note_on_c, 0, 96, 94
1, 1436618, Note_off_c, 0, 62, 61
1, 1436764, Note_on_c, 0, 94, 82
1, 1436770, Note_on_c, 0, 67, 60
1, 1436772, Note_on_c, 0, 60, 71
1, 1436773, Note_on_c, 0, 72, 75
1, 1436791, Note_on_c, 0, 64, 63
1, 1436828, Control_c, 0, 64, 83
1, 1436843, Control_c, 0, 64, 28
1, 1436858, Control_c, 0, 64, 0
1, 1436873, Control_c, 0, 64, 57
1, 1436878, Note_on_c, 0, 91, 85
1, 1436888, Control_c, 0, 64, 70
1, 1436902, Control_c, 0, 64, 83
1, 1436907, Note_off_c, 0, 72, 63
1, 1436913, Note_off_c, 0, 60, 59
1, 1436917, Control_c, 0, 64, 112
1, 1436931, Note_off_c, 0, 64, 64
1, 1436931, Note_off_c, 0, 96, 58
1, 1436932, Control_c, 0, 64, 127
1, 1436934, Note_off_c, 0, 67, 62
1, 1436942, Note_off_c, 0, 94, 65
1, 1436970, Note_off_c, 0, 91, 66
1, 1436982, Note_on_c, 0, 88, 84
1, 1437057, Note_off_c, 0, 88, 0
1, 1437078, Note_on_c, 0, 86, 91
1, 1437080, Control_c, 0, 64, 121
1, 1437082, Note_on_c, 0, 60, 78
1, 1437082, Note_on_c, 0, 69, 68
1, 1437085, Note_on_c, 0, 72, 80
1, 1437093, Note_on_c, 0, 65, 66
1, 1437095, Control_c, 0, 64, 86
1, 1437096, Poly_aftertouch_c, 0, 88, 0
1, 1437110, Control_c, 0, 64, 72
1, 1437125, Control_c, 0, 64, 71
1, 1437140, Control_c, 0, 64, 80
1, 1437154, Control_c, 0, 64, 98
1, 1437169, Control_c, 0, 64, 127
1, 1437176, Note_on_c, 0, 84, 84
1, 1437180, Note_off_c, 0, 69, 64
1, 1437181, Note_off_c, 0, 72, 64
1, 1437185, Note_off_c, 0, 65, 63
1, 1437194, Note_off_c, 0, 60, 58
1, 1437196, Note_off_c, 0, 86, 63
1, 1437243, Note_off_c, 0, 84, 66
1, 1437254, Note_on_c, 0, 83, 84
1, 1437346, Note_on_c, 0, 82, 88
1, 1437363, Note_on_c, 0, 70, 74
1, 1437363, Note_on_c, 0, 60, 73
1, 1437363, Note_on_c, 0, 72, 83
1, 1437363, Note_off_c, 0, 83, 59
1, 1437384, Note_on_c, 0, 67, 73
1, 1437385, Control_c, 0, 64, 90
1, 1437400, Control_c, 0, 64, 71
1, 1437414, Control_c, 0, 64, 64
1, 1437429, Control_c, 0, 64, 70
1, 1437444, Control_c, 0, 64, 81
1, 1437453, Note_on_c, 0, 79, 85
1, 1437459, Control_c, 0, 64, 105
1, 1437471, Note_off_c, 0, 72, 62
1, 1437474, Control_c, 0, 64, 127
1, 1437489, Note_off_c, 0, 82, 61
1, 1437527, Note_off_c, 0, 79, 64
1, 1437528, Note_off_c, 0, 60, 58
1, 1437533, Note_on_c, 0, 76, 85
1, 1437539, Note_off_c, 0, 70, 62
1, 1437543, Note_off_c, 0, 67, 62
1, 1437590, Note_off_c, 0, 76, 63
1, 1437628, Note_on_c, 0, 72, 84
1, 1437707, Note_on_c, 0, 70, 83
1, 1437714, Note_off_c, 0, 72, 61
1, 1437765, Note_off_c, 0, 70, 62
1, 1437783, Note_on_c, 0, 67, 75
1, 1437805, Note_off_c, 0, 67, 70
1, 1437858, Control_c, 0, 64, 100
1, 1437873, Control_c, 0, 64, 76
1, 1437881, Note_on_c, 0, 48, 70
1, 1437882, Note_on_c, 0, 55, 71
1, 1437882, Note_on_c, 0, 60, 75
1, 1437888, Control_c, 0, 64, 64
1, 1437891, Note_on_c, 0, 52, 65
1, 1437897, Note_on_c, 0, 82, 81
1, 1437903, Control_c, 0, 64, 69
1, 1437918, Control_c, 0, 64, 78
1, 1437933, Control_c, 0, 64, 94
1, 1437948, Control_c, 0, 64, 127
1, 1437955, Note_off_c, 0, 60, 64
1, 1437969, Note_off_c, 0, 48, 61
1, 1437976, Note_off_c, 0, 55, 65
1, 1437979, Note_off_c, 0, 52, 62
1, 1437986, Note_on_c, 0, 79, 80
1, 1438023, Note_off_c, 0, 82, 63
1, 1438060, Note_off_c, 0, 79, 64
1, 1438070, Note_on_c, 0, 76, 81
1, 1438163, Note_on_c, 0, 48, 81
1, 1438163, Note_on_c, 0, 57, 69
1, 1438164, Note_on_c, 0, 60, 88
1, 1438170, Note_on_c, 0, 74, 97
1, 1438171, Note_on_c, 0, 53, 74
1, 1438178, Control_c, 0, 64, 87
1, 1438188, Note_off_c, 0, 76, 65
1, 1438193, Control_c, 0, 64, 69
1, 1438207, Control_c, 0, 64, 66
1, 1438222, Control_c, 0, 64, 75
1, 1438237, Control_c, 0, 64, 90
1, 1438240, Note_off_c, 0, 60, 65
1, 1438246, Note_off_c, 0, 48, 61
1, 1438252, Control_c, 0, 64, 127
1, 1438258, Note_off_c, 0, 57, 63
1, 1438262, Note_off_c, 0, 53, 66
1, 1438267, Note_on_c, 0, 72, 88
1, 1438287, Note_off_c, 0, 74, 63
1, 1438340, Note_off_c, 0, 72, 66
1, 1438350, Note_on_c, 0, 71, 87
1, 1438411, Note_off_c, 0, 71, 66
1, 1438430, Control_c, 0, 64, 105
1, 1438434, Note_on_c, 0, 48, 83
1, 1438436, Note_on_c, 0, 58, 86
1, 1438440, Note_on_c, 0, 60, 89
1, 1438443, Note_on_c, 0, 70, 84
1, 1438445, Control_c, 0, 64, 71
1, 1438446, Note_on_c, 0, 55, 79
1, 1438460, Control_c, 0, 64, 0
1, 1438475, Control_c, 0, 64, 55
1, 1438489, Note_on_c, 0, 50, 8
1, 1438490, Note_off_c, 0, 50, 127
1, 1438490, Control_c, 0, 64, 71
1, 1438504, Control_c, 0, 64, 91
1, 1438514, Note_off_c, 0, 48, 62
1, 1438519, Control_c, 0, 64, 127
1, 1438522, Note_off_c, 0, 60, 63
1, 1438529, Note_on_c, 0, 67, 90
1, 1438546, Poly_aftertouch_c, 0, 50, 0
1, 1438560, Note_off_c, 0, 70, 62
1, 1438561, Note_off_c, 0, 58, 65
1, 1438599, Note_off_c, 0, 55, 59
1, 1438606, Note_off_c, 0, 67, 64
1, 1438617, Note_on_c, 0, 64, 83
1, 1438671, Note_off_c, 0, 64, 65
1, 1438708, Note_on_c, 0, 60, 83
1, 1438777, Note_on_c, 0, 58, 85
1, 1438778, Note_off_c, 0, 60, 63
1, 1438830, Note_off_c, 0, 58, 68
1, 1438850, Note_on_c, 0, 55, 81
1, 1438872, Note_off_c, 0, 55, 71
1, 1438918, Note_on_c, 0, 36, 90
1, 1438941, Control_c, 0, 64, 113
1, 1438951, Note_on_c, 0, 43, 72
1, 1438957, Control_c, 0, 64, 74
1, 1438972, Control_c, 0, 64, 0
1, 1438978, Note_on_c, 0, 41, 49
1, 1439000, Note_off_c, 0, 36, 60
1, 1439001, Control_c, 0, 64, 17
1, 1439016, Control_c, 0, 64, 71
1, 1439020, Poly_aftertouch_c, 0, 42, 127
1, 1439030, Control_c, 0, 64, 127
1, 1439051, Note_on_c, 0, 96, 104
1, 1439052, Note_on_c, 0, 52, 105
1, 1439057, Note_off_c, 0, 41, 56
1, 1439057, Note_on_c, 0, 44, 78
1, 1439081, Note_off_c, 0, 43, 61
1, 1439088, Note_off_c, 0, 44, 64
1, 1439090, Note_off_c, 0, 52, 65
1, 1439109, Poly_aftertouch_c, 0, 42, 0
1, 1439232, Note_on_c, 0, 94, 90
1, 1439331, Note_on_c, 0, 91, 95
1, 1439346, Note_on_c, 0, 38, 79
1, 1439354, Note_off_c, 0, 96, 38
1, 1439370, Note_on_c, 0, 40, 57
1, 1439372, Note_on_c, 0, 48, 73
1, 1439373, Note_off_c, 0, 94, 63
1, 1439382, Note_on_c, 0, 45, 66
1, 1439399, Note_off_c, 0, 38, 60
1, 1439402, Control_c, 0, 64, 94
1, 1439406, Note_off_c, 0, 40, 63
1, 1439413, Note_off_c, 0, 91, 67
1, 1439417, Control_c, 0, 64, 57
1, 1439418, Note_on_c, 0, 89, 88
1, 1439422, Note_on_c, 0, 53, 107
1, 1439431, Control_c, 0, 64, 0
1, 1439432, Note_off_c, 0, 45, 54
1, 1439446, Control_c, 0, 64, 59
1, 1439453, Note_off_c, 0, 48, 62
1, 1439461, Control_c, 0, 64, 72
1, 1439464, Note_off_c, 0, 53, 67
1, 1439471, Note_off_c, 0, 89, 65
1, 1439476, Control_c, 0, 64, 89
1, 1439491, Control_c, 0, 64, 127
1, 1439510, Note_on_c, 0, 88, 99
1, 1439595, Note_on_c, 0, 86, 94
1, 1439615, Note_on_c, 0, 40, 86
1, 1439632, Note_off_c, 0, 88, 59
1, 1439650, Note_on_c, 0, 48, 75
1, 1439661, Control_c, 0, 64, 96
1, 1439667, Note_off_c, 0, 40, 65
1, 1439676, Control_c, 0, 64, 56
1, 1439685, Note_on_c, 0, 45, 31
1, 1439691, Control_c, 0, 64, 0
1, 1439704, Note_on_c, 0, 55, 101
1, 1439709, Note_off_c, 0, 86, 67
1, 1439713, Note_on_c, 0, 84, 88
1, 1439733, Note_off_c, 0, 45, 41
1, 1439751, Control_c, 0, 64, 59
1, 1439766, Control_c, 0, 64, 83
1, 1439781, Control_c, 0, 64, 127
1, 1439781, Note_off_c, 0, 84, 66
1, 1439819, Note_on_c, 0, 82, 87
1, 1439873, Note_on_c, 0, 83, 29
1, 1439897, Note_off_c, 0, 55, 59
1, 1439906, Note_off_c, 0, 48, 60
1, 1439909, Note_off_c, 0, 83, 48
1, 1439910, Note_on_c, 0, 79, 94
1, 1439945, Note_off_c, 0, 82, 62
1, 1439993, Note_on_c, 0, 76, 92
1, 1440024, Note_off_c, 0, 79, 58
1, 1440073, Note_off_c, 0, 76, 65
1, 1440082, Note_on_c, 0, 72, 75
1, 1440114, Note_off_c, 0, 72, 57
1, 1440151, Note_on_c, 0, 70, 82
1, 1440228, Note_on_c, 0, 67, 88
1, 1440231, Poly_aftertouch_c, 0, 71, 127
1, 1440249, Note_off_c, 0, 70, 61
1, 1440261, Poly_aftertouch_c, 0, 71, 0
1, 1440306, Note_on_c, 0, 64, 83
1, 1440309, Note_off_c, 0, 67, 61
1, 1440347, Note_off_c, 0, 64, 67
1, 1440353, Note_on_c, 0, 60, 73
1, 1440386, Note_off_c, 0, 60, 68
1, 1440422, Note_on_c, 0, 58, 78
1, 1440480, Note_on_c, 0, 55, 82
1, 1440499, Note_off_c, 0, 58, 62
1, 1440532, Note_on_c, 0, 52, 81
1, 1440551, Note_off_c, 0, 55, 61
1, 1440586, Note_off_c, 0, 52, 62
1, 1440597, Note_on_c, 0, 48, 69
1, 1440641, Note_off_c, 0, 48, 63
1, 1440667, Note_on_c, 0, 46, 77
1, 1440732, Note_on_c, 0, 43, 78
1, 1440745, Note_off_c, 0, 46, 61
1, 1440775, Note_on_c, 0, 40, 91
1, 1440796, Note_off_c, 0, 43, 46
1, 1440814, Note_off_c, 0, 40, 67
1, 1440824, Control_c, 0, 64, 117
1, 1440831, Note_on_c, 0, 36, 98
1, 1440839, Control_c, 0, 64, 68
1, 1440854, Control_c, 0, 64, 0
1, 1440869, Note_off_c, 0, 36, 65
1, 1440884, Control_c, 0, 64, 49
1, 1440899, Control_c, 0, 64, 71
1, 1440914, Control_c, 0, 64, 91
1, 1440929, Control_c, 0, 64, 127
1, 1441247, Control_c, 0, 64, 102
1, 1441262, Control_c, 0, 64, 73
1, 1441276, Control_c, 0, 64, 0
1, 1441367, Control_c, 0, 64, 17
1, 1441381, Control_c, 0, 64, 28
1, 1441396, Control_c, 0, 64, 32
1, 1441411, Control_c, 0, 64, 38
1, 1441425, Control_c, 0, 64, 43
1, 1441440, Control_c, 0, 64, 44
1, 1441455, Control_c, 0, 64, 36
1, 1441459, Note_on_c, 0, 72, 65
1, 1441470, Control_c, 0, 64, 0
1, 1441501, Note_off_c, 0, 72, 63
1, 1441513, Note_on_c, 0, 74, 70
1, 1441537, Note_off_c, 0, 74, 70
1, 1441572, Note_on_c, 0, 76, 65
1, 1441601, Note_off_c, 0, 76, 62
1, 1441622, Note_on_c, 0, 77, 72
1, 1441650, Note_on_c, 0, 41, 50
1, 1441676, Note_on_c, 0, 79, 72
1, 1441680, Note_off_c, 0, 41, 54
1, 1441684, Note_on_c, 0, 48, 56
1, 1441689, Note_off_c, 0, 77, 61
1, 1441717, Note_off_c, 0, 79, 63
1, 1441719, Note_on_c, 0, 57, 69
1, 1441719, Note_on_c, 0, 81, 82
1, 1441721, Note_off_c, 0, 48, 54
1, 1441738, Note_off_c, 0, 57, 64
1, 1441805, Note_off_c, 0, 81, 64
1, 1441811, Note_on_c, 0, 79, 71
1, 1441877, Note_off_c, 0, 79, 54
1, 1441882, Note_on_c, 0, 77, 72
1, 1441892, Note_on_c, 0, 48, 35
1, 1441893, Note_on_c, 0, 43, 55
1, 1441921, Note_off_c, 0, 43, 56
1, 1441933, Note_off_c, 0, 48, 62
1, 1441942, Note_off_c, 0, 77, 63
1, 1441952, Note_on_c, 0, 58, 74
1, 1441955, Note_on_c, 0, 72, 78
1, 1441975, Note_off_c, 0, 58, 68
1, 1441994, Note_off_c, 0, 72, 62
1, 1442031, Note_on_c, 0, 84, 79
1, 1442103, Note_on_c, 0, 82, 79
1, 1442109, Note_on_c, 0, 45, 44
1, 1442130, Note_off_c, 0, 84, 61
1, 1442136, Note_on_c, 0, 48, 47
1, 1442136, Note_on_c, 0, 49, 36
1, 1442142, Note_off_c, 0, 45, 51
1, 1442167, Note_off_c, 0, 48, 52
1, 1442175, Note_off_c, 0, 49, 57
1, 1442179, Note_on_c, 0, 81, 82
1, 1442181, Note_on_c, 0, 60, 73
1, 1442195, Note_off_c, 0, 82, 64
1, 1442204, Note_off_c, 0, 60, 69
1, 1442251, Note_off_c, 0, 81, 64
1, 1442258, Note_on_c, 0, 77, 74
1, 1442312, Note_off_c, 0, 77, 62
1, 1442333, Note_on_c, 0, 86, 81
1, 1442334, Note_on_c, 0, 46, 59
1, 1442369, Note_off_c, 0, 46, 66
1, 1442377, Note_on_c, 0, 53, 35
1, 1442405, Note_on_c, 0, 82, 84
1, 1442406, Note_on_c, 0, 62, 68
1, 1442415, Note_off_c, 0, 53, 48
1, 1442425, Note_off_c, 0, 62, 64
1, 1442430, Note_off_c, 0, 86, 62
1, 1442482, Note_on_c, 0, 81, 78
1, 1442491, Note_off_c, 0, 82, 61
1, 1442537, Note_on_c, 0, 47, 62
1, 1442543, Note_off_c, 0, 81, 64
1, 1442548, Note_on_c, 0, 79, 79
1, 1442563, Note_off_c, 0, 47, 58
1, 1442564, Note_on_c, 0, 53, 47
1, 1442588, Note_off_c, 0, 79, 64
1, 1442607, Note_off_c, 0, 53, 61
1, 1442628, Note_on_c, 0, 62, 67
1, 1442634, Note_on_c, 0, 77, 84
1, 1442656, Note_off_c, 0, 62, 66
1, 1442693, Note_off_c, 0, 77, 63
1, 1442711, Note_on_c, 0, 76, 74
1, 1442771, Note_off_c, 0, 76, 62
1, 1442780, Note_on_c, 0, 77, 78
1, 1442790, Note_on_c, 0, 43, 45
1, 1442793, Note_on_c, 0, 50, 60
1, 1442824, Note_off_c, 0, 43, 60
1, 1442851, Note_on_c, 0, 79, 79
1, 1442852, Note_off_c, 0, 50, 64
1, 1442863, Note_off_c, 0, 77, 62
1, 1442866, Note_on_c, 0, 59, 70
1, 1442890, Note_off_c, 0, 59, 68
1, 1442914, Note_off_c, 0, 79, 62
1, 1442920, Note_on_c, 0, 81, 73
1, 1443002, Note_on_c, 0, 77, 73
1, 1443006, Note_off_c, 0, 81, 61
1, 1443008, Note_on_c, 0, 52, 59
1, 1443013, Note_on_c, 0, 48, 53
1, 1443049, Note_off_c, 0, 48, 65
1, 1443065, Note_off_c, 0, 77, 63
1, 1443069, Note_off_c, 0, 52, 60
1, 1443077, Note_on_c, 0, 60, 63
1, 1443084, Note_on_c, 0, 76, 71
1, 1443097, Note_off_c, 0, 60, 64
1, 1443108, Note_off_c, 0, 76, 68
1, 1443155, Note_on_c, 0, 72, 72
1, 1443227, Note_on_c, 0, 74, 83
1, 1443230, Note_off_c, 0, 72, 63
1, 1443278, Note_off_c, 0, 74, 65
1, 1443304, Note_on_c, 0, 76, 78
1, 1443361, Note_off_c, 0, 76, 57
1, 1443382, Note_on_c, 0, 77, 75
1, 1443447, Note_on_c, 0, 79, 74
1, 1443461, Note_on_c, 0, 41, 74
1, 1443463, Note_off_c, 0, 77, 60
1, 1443477, Note_on_c, 0, 48, 63
1, 1443489, Note_off_c, 0, 41, 63
1, 1443504, Note_off_c, 0, 79, 62
1, 1443512, Note_on_c, 0, 81, 82
1, 1443538, Note_on_c, 0, 57, 55
1, 1443540, Note_off_c, 0, 48, 62
1, 1443564, Note_off_c, 0, 57, 38
1, 1443595, Note_off_c, 0, 81, 64
1, 1443597, Note_on_c, 0, 79, 78
1, 1443646, Note_off_c, 0, 79, 63
1, 1443653, Note_on_c, 0, 77, 72
1, 1443665, Note_on_c, 0, 48, 64
1, 1443677, Note_on_c, 0, 42, 64
1, 1443692, Note_off_c, 0, 77, 62
1, 1443702, Note_off_c, 0, 42, 64
1, 1443714, Note_off_c, 0, 48, 62
1, 1443737, Note_on_c, 0, 75, 71
1, 1443738, Note_on_c, 0, 84, 65
1, 1443739, Note_on_c, 0, 57, 72
1, 1443763, Note_off_c, 0, 75, 60
1, 1443764, Note_off_c, 0, 57, 68
1, 1443814, Note_on_c, 0, 82, 81
1, 1443845, Note_on_c, 0, 43, 76
1, 1443856, Note_off_c, 0, 84, 55
1, 1443883, Note_on_c, 0, 46, 36
1, 1443886, Note_off_c, 0, 43, 58
1, 1443889, Note_on_c, 0, 81, 67
1, 1443901, Note_on_c, 0, 45, 44
1, 1443901, Note_off_c, 0, 82, 63
1, 1443929, Note_off_c, 0, 46, 52
1, 1443933, Note_off_c, 0, 81, 64
1, 1443934, Note_off_c, 0, 45, 51
1, 1443940, Note_on_c, 0, 58, 74
1, 1443944, Note_on_c, 0, 79, 76
1, 1443960, Note_on_c, 0, 74, 65
1, 1443963, Note_off_c, 0, 58, 69
1, 1444005, Note_off_c, 0, 74, 54
1, 1444023, Note_on_c, 0, 82, 80
1, 1444030, Note_off_c, 0, 79, 62
1, 1444070, Note_on_c, 0, 85, 81
1, 1444073, Note_on_c, 0, 47, 70
1, 1444082, Note_off_c, 0, 82, 64
1, 1444099, Note_off_c, 0, 85, 66
1, 1444109, Note_on_c, 0, 53, 46
1, 1444125, Note_off_c, 0, 47, 64
1, 1444143, Note_off_c, 0, 53, 59
1, 1444163, Note_on_c, 0, 62, 77
1, 1444179, Note_on_c, 0, 80, 76
1, 1444184, Note_on_c, 0, 86, 83
1, 1444187, Note_off_c, 0, 62, 68
1, 1444205, Note_off_c, 0, 80, 62
1, 1444258, Note_on_c, 0, 88, 81
1, 1444285, Note_off_c, 0, 86, 60
1, 1444297, Note_on_c, 0, 90, 77
1, 1444302, Control_c, 0, 64, 26
1, 1444317, Control_c, 0, 64, 40
1, 1444319, Note_on_c, 0, 48, 71
1, 1444319, Note_off_c, 0, 90, 69
1, 1444322, Note_off_c, 0, 88, 64
1, 1444332, Control_c, 0, 64, 38
1, 1444341, Note_on_c, 0, 53, 50
1, 1444346, Control_c, 0, 64, 0
1, 1444369, Note_off_c, 0, 48, 63
1, 1444370, Note_on_c, 0, 57, 46
1, 1444375, Note_off_c, 0, 53, 67
1, 1444392, Note_on_c, 0, 60, 77
1, 1444396, Note_off_c, 0, 57, 58
1, 1444402, Note_on_c, 0, 84, 90
1, 1444411, Note_on_c, 0, 77, 74
1, 1444414, Note_off_c, 0, 60, 71
1, 1444431, Note_off_c, 0, 77, 71
1, 1444485, Note_on_c, 0, 81, 81
1, 1444488, Note_off_c, 0, 84, 63
1, 1444535, Note_on_c, 0, 48, 64
1, 1444538, Note_on_c, 0, 82, 77
1, 1444566, Note_off_c, 0, 48, 58
1, 1444569, Note_on_c, 0, 50, 41
1, 1444572, Note_off_c, 0, 81, 60
1, 1444598, Note_off_c, 0, 82, 64
1, 1444602, Note_off_c, 0, 50, 58
1, 1444615, Note_on_c, 0, 86, 78
1, 1444625, Note_on_c, 0, 64, 77
1, 1444646, Note_off_c, 0, 64, 72
1, 1444690, Note_on_c, 0, 84, 82
1, 1444696, Note_off_c, 0, 86, 66
1, 1444764, Note_on_c, 0, 50, 65
1, 1444765, Note_off_c, 0, 84, 65
1, 1444766, Note_on_c, 0, 82, 87
1, 1444790, Note_off_c, 0, 50, 67
1, 1444836, Note_on_c, 0, 86, 85
1, 1444840, Note_off_c, 0, 82, 65
1, 1444847, Note_on_c, 0, 65, 77
1, 1444876, Note_off_c, 0, 65, 70
1, 1444913, Note_on_c, 0, 84, 86
1, 1444929, Note_off_c, 0, 86, 62
1, 1444989, Note_on_c, 0, 82, 80
1, 1444992, Note_off_c, 0, 84, 63
1, 1444995, Note_on_c, 0, 52, 71
1, 1445028, Note_off_c, 0, 52, 66
1, 1445051, Note_on_c, 0, 86, 73
1, 1445051, Note_off_c, 0, 82, 64
1, 1445077, Note_on_c, 0, 67, 79
1, 1445098, Note_off_c, 0, 67, 69
1, 1445123, Note_on_c, 0, 84, 75
1, 1445138, Note_off_c, 0, 86, 62
1, 1445189, Note_on_c, 0, 55, 75
1, 1445194, Note_on_c, 0, 82, 80
1, 1445196, Note_off_c, 0, 84, 61
1, 1445230, Note_off_c, 0, 55, 65
1, 1445251, Note_off_c, 0, 82, 65
1, 1445261, Note_on_c, 0, 81, 72
1, 1445281, Note_on_c, 0, 69, 66
1, 1445298, Note_off_c, 0, 69, 64
1, 1445331, Note_on_c, 0, 80, 81
1, 1445342, Note_off_c, 0, 81, 54
1, 1445403, Note_on_c, 0, 81, 73
1, 1445412, Note_on_c, 0, 45, 71
1, 1445416, Note_off_c, 0, 80, 60
1, 1445433, Note_off_c, 0, 45, 63
1, 1445463, Note_off_c, 0, 81, 63
1, 1445467, Note_on_c, 0, 82, 83
1, 1445484, Note_on_c, 0, 61, 86
1, 1445510, Note_off_c, 0, 61, 66
1, 1445546, Note_on_c, 0, 81, 85
1, 1445571, Note_off_c, 0, 82, 63
1, 1445622, Note_on_c, 0, 47, 71
1, 1445630, Note_on_c, 0, 79, 86
1, 1445638, Note_off_c, 0, 81, 61
1, 1445650, Note_off_c, 0, 47, 66
1, 1445692, Note_on_c, 0, 62, 89
1, 1445700, Note_on_c, 0, 82, 89
1, 1445705, Note_off_c, 0, 79, 64
1, 1445723, Note_off_c, 0, 62, 62
1, 1445778, Note_on_c, 0, 81, 84
1, 1445804, Note_off_c, 0, 82, 62
1, 1445843, Note_on_c, 0, 49, 68
1, 1445845, Note_on_c, 0, 79, 81
1, 1445857, Note_off_c, 0, 81, 62
1, 1445877, Note_off_c, 0, 49, 66
1, 1445913, Note_on_c, 0, 64, 79
1, 1445914, Note_off_c, 0, 79, 63
1, 1445916, Note_on_c, 0, 82, 82
1, 1445943, Note_off_c, 0, 64, 62
1, 1445986, Note_on_c, 0, 81, 78
1, 1446002, Note_off_c, 0, 82, 62
1, 1446007, Control_c, 0, 64, 36
1, 1446022, Control_c, 0, 64, 59
1, 1446035, Note_on_c, 0, 50, 77
1, 1446037, Control_c, 0, 64, 64
1, 1446052, Control_c, 0, 64, 66
1, 1446065, Note_off_c, 0, 50, 69
1, 1446065, Note_on_c, 0, 79, 77
1, 1446066, Control_c, 0, 64, 67
1, 1446078, Note_off_c, 0, 81, 61
1, 1446081, Control_c, 0, 64, 67
1, 1446096, Control_c, 0, 64, 61
1, 1446111, Control_c, 0, 64, 0
1, 1446116, Note_on_c, 0, 65, 79
1, 1446118, Note_off_c, 0, 79, 64
1, 1446121, Note_on_c, 0, 77, 76
1, 1446136, Note_off_c, 0, 65, 72
1, 1446190, Note_on_c, 0, 76, 85
1, 1446194, Note_off_c, 0, 77, 62
1, 1446238, Note_on_c, 0, 41, 84
1, 1446264, Note_on_c, 0, 77, 81
1, 1446276, Note_off_c, 0, 41, 64
1, 1446284, Note_off_c, 0, 76, 62
1, 1446312, Note_on_c, 0, 48, 13
1, 1446314, Note_on_c, 0, 57, 103
1, 1446322, Note_on_c, 0, 79, 88
1, 1446330, Note_on_c, 0, 49, 56
1, 1446333, Note_off_c, 0, 77, 63
1, 1446334, Control_c, 0, 64, 127
1, 1446338, Note_off_c, 0, 57, 71
1, 1446354, Note_off_c, 0, 49, 59
1, 1446358, Note_off_c, 0, 48, 35
1, 1446375, Note_on_c, 0, 81, 33
1, 1446408, Note_off_c, 0, 81, 51
1, 1446411, Note_on_c, 0, 77, 83
1, 1446437, Note_off_c, 0, 79, 59
1, 1446486, Note_on_c, 0, 75, 84
1, 1446494, Note_off_c, 0, 77, 60
1, 1446567, Note_on_c, 0, 79, 83
1, 1446572, Note_off_c, 0, 75, 61
1, 1446643, Note_on_c, 0, 77, 84
1, 1446672, Note_off_c, 0, 79, 60
1, 1446715, Note_on_c, 0, 75, 82
1, 1446716, Note_on_c, 0, 41, 67
1, 1446721, Note_off_c, 0, 77, 64
1, 1446741, Note_off_c, 0, 41, 62
1, 1446765, Note_on_c, 0, 57, 92
1, 1446775, Note_on_c, 0, 79, 84
1, 1446786, Note_off_c, 0, 75, 64
1, 1446788, Note_off_c, 0, 57, 67
1, 1446843, Note_on_c, 0, 77, 83
1, 1446864, Poly_aftertouch_c, 0, 49, 0
1, 1446876, Note_off_c, 0, 79, 61
1, 1446911, Note_off_c, 0, 77, 64
1, 1446915, Note_on_c, 0, 75, 76
1, 1446935, Note_off_c, 0, 75, 72
1, 1446994, Control_c, 0, 64, 100
1, 1446995, Note_on_c, 0, 69, 95
1, 1447006, Note_on_c, 0, 81, 103
1, 1447009, Control_c, 0, 64, 73
1, 1447024, Control_c, 0, 64, 68
1, 1447038, Control_c, 0, 64, 79
1, 1447053, Control_c, 0, 64, 103
1, 1447068, Control_c, 0, 64, 127
1, 1447086, Note_on_c, 0, 79, 91
1, 1447090, Note_on_c, 0, 67, 83
1, 1447097, Note_off_c, 0, 81, 56
1, 1447099, Note_off_c, 0, 69, 58
1, 1447129, Poly_aftertouch_c, 0, 62, 0
1, 1447163, Note_on_c, 0, 65, 75
1, 1447165, Note_off_c, 0, 79, 63
1, 1447168, Note_on_c, 0, 77, 79
1, 1447168, Note_off_c, 0, 67, 62
1, 1447231, Note_off_c, 0, 77, 62
1, 1447236, Note_on_c, 0, 81, 87
1, 1447242, Note_on_c, 0, 69, 65
1, 1447245, Note_off_c, 0, 65, 61
1, 1447312, Note_on_c, 0, 67, 65
1, 1447317, Note_on_c, 0, 79, 84
1, 1447317, Note_off_c, 0, 69, 54
1, 1447333, Note_off_c, 0, 81, 56
1, 1447367, Note_on_c, 0, 65, 74
1, 1447370, Note_off_c, 0, 67, 63
1, 1447387, Note_off_c, 0, 65, 70
1, 1447389, Note_off_c, 0, 79, 63
1, 1447394, Note_on_c, 0, 77, 80
1, 1447427, Note_off_c, 0, 77, 60
1, 1447445, Control_c, 0, 64, 97
1, 1447460, Control_c, 0, 64, 75
1, 1447475, Note_on_c, 0, 72, 90
1, 1447475, Control_c, 0, 64, 67
1, 1447478, Note_on_c, 0, 84, 97
1, 1447490, Control_c, 0, 64, 78
1, 1447505, Control_c, 0, 64, 99
1, 1447519, Control_c, 0, 64, 127
1, 1447553, Note_on_c, 0, 82, 92
1, 1447559, Note_off_c, 0, 84, 64
1, 1447560, Note_on_c, 0, 70, 86
1, 1447569, Note_off_c, 0, 72, 61
1, 1447636, Note_off_c, 0, 82, 60
1, 1447651, Note_on_c, 0, 69, 58
1, 1447652, Note_on_c, 0, 81, 60
1, 1447665, Note_off_c, 0, 70, 62
1, 1447665, Note_on_c, 0, 84, 80
1, 1447677, Note_off_c, 0, 81, 67
1, 1447692, Note_on_c, 0, 72, 70
1, 1447720, Note_on_c, 0, 67, 36
1, 1447741, Note_off_c, 0, 69, 50
1, 1447749, Note_on_c, 0, 82, 86
1, 1447750, Note_off_c, 0, 67, 55
1, 1447761, Note_off_c, 0, 84, 61
1, 1447765, Note_on_c, 0, 70, 83
1, 1447797, Note_off_c, 0, 72, 56
1, 1447814, Note_off_c, 0, 82, 62
1, 1447815, Note_on_c, 0, 81, 73
1, 1447818, Note_on_c, 0, 69, 78
1, 1447826, Note_off_c, 0, 70, 64
1, 1447840, Note_off_c, 0, 81, 66
1, 1447848, Note_off_c, 0, 69, 64
1, 1447928, Control_c, 0, 64, 112
1, 1447943, Control_c, 0, 64, 74
1, 1447958, Control_c, 0, 64, 0
1, 1447986, Note_on_c, 0, 87, 90
1, 1447987, Note_on_c, 0, 75, 83
1, 1448002, Control_c, 0, 64, 64
1, 1448017, Control_c, 0, 64, 82
1, 1448032, Control_c, 0, 64, 127
1, 1448039, Note_off_c, 0, 75, 64
1, 1448050, Note_off_c, 0, 87, 61
1, 1448112, Note_on_c, 0, 87, 105
1, 1448114, Note_on_c, 0, 75, 98
1, 1448186, Note_off_c, 0, 75, 64
1, 1448194, Note_off_c, 0, 87, 65
1, 1448361, Note_on_c, 0, 87, 101
1, 1448362, Note_on_c, 0, 75, 100
1, 1448475, Note_off_c, 0, 75, 65
1, 1448490, Note_off_c, 0, 87, 64
1, 1448624, Note_on_c, 0, 87, 112
1, 1448625, Note_on_c, 0, 75, 100
1, 1448821, Note_off_c, 0, 75, 60
1, 1448831, Note_off_c, 0, 87, 61
1, 1448922, Note_on_c, 0, 87, 105
1, 1448923, Note_on_c, 0, 75, 92
1, 1449000, Note_on_c, 0, 42, 86
1, 1449035, Note_off_c, 0, 75, 58
1, 1449048, Note_on_c, 0, 47, 72
1, 1449063, Note_off_c, 0, 87, 60
1, 1449069, Note_on_c, 0, 51, 82
1, 1449078, Note_off_c, 0, 42, 65
1, 1449134, Note_off_c, 0, 47, 63
1, 1449135, Note_on_c, 0, 59, 102
1, 1449143, Note_off_c, 0, 51, 67
1, 1449146, Note_on_c, 0, 87, 113
1, 1449147, Note_on_c, 0, 75, 95
1, 1449164, Note_off_c, 0, 59, 69
1, 1449315, Note_off_c, 0, 75, 57
1, 1449350, Note_on_c, 0, 85, 79
1, 1449404, Note_off_c, 0, 87, 59
1, 1449440, Note_on_c, 0, 83, 82
1, 1449475, Note_off_c, 0, 85, 57
1, 1449520, Note_on_c, 0, 78, 81
1, 1449522, Note_off_c, 0, 83, 66
1, 1449574, Note_off_c, 0, 78, 64
1, 1449588, Note_on_c, 0, 90, 88
1, 1449651, Note_on_c, 0, 88, 86
1, 1449674, Note_off_c, 0, 90, 64
1, 1449728, Note_on_c, 0, 87, 94
1, 1449752, Note_off_c, 0, 88, 61
1, 1449797, Note_off_c, 0, 87, 66
1, 1449800, Note_on_c, 0, 83, 82
1, 1449849, Note_off_c, 0, 83, 65
1, 1449874, Note_on_c, 0, 95, 96
1, 1449952, Note_on_c, 0, 42, 100
1, 1449958, Note_on_c, 0, 90, 97
1, 1449964, Note_on_c, 0, 30, 85
1, 1449982, Note_off_c, 0, 95, 60
1, 1449992, Note_off_c, 0, 30, 64
1, 1449994, Note_off_c, 0, 42, 63
1, 1450032, Note_on_c, 0, 88, 84
1, 1450041, Note_off_c, 0, 90, 63
1, 1450065, Poly_aftertouch_c, 0, 34, 0
1, 1450104, Note_off_c, 0, 88, 50
1, 1450125, Note_on_c, 0, 87, 91
1, 1450179, Note_on_c, 0, 86, 29
1, 1450207, Note_off_c, 0, 87, 63
1, 1450214, Note_off_c, 0, 86, 48
1, 1450226, Note_on_c, 0, 66, 106
1, 1450228, Note_on_c, 0, 63, 85
1, 1450228, Note_on_c, 0, 99, 101
1, 1450232, Note_on_c, 0, 54, 87
1, 1450240, Note_on_c, 0, 59, 75
1, 1450314, Note_on_c, 0, 97, 89
1, 1450334, Note_off_c, 0, 99, 62
1, 1450348, Note_on_c, 0, 96, 70
1, 1450372, Note_off_c, 0, 54, 63
1, 1450384, Note_on_c, 0, 95, 86
1, 1450391, Note_off_c, 0, 66, 65
1, 1450398, Note_off_c, 0, 96, 64
1, 1450402, Note_off_c, 0, 59, 55
1, 1450411, Note_off_c, 0, 97, 60
1, 1450428, Note_off_c, 0, 63, 58
1, 1450452, Note_on_c, 0, 90, 85
1, 1450465, Note_off_c, 0, 95, 66
1, 1450531, Note_on_c, 0, 102, 94
1, 1450545, Note_off_c, 0, 90, 43
1, 1450601, Note_on_c, 0, 99, 91
1, 1450670, Note_off_c, 0, 102, 59
1, 1450673, Note_on_c, 0, 95, 84
1, 1450707, Note_off_c, 0, 99, 63
1, 1450748, Note_on_c, 0, 90, 89
1, 1450758, Note_off_c, 0, 95, 66
1, 1450811, Note_on_c, 0, 102, 99
1, 1450840, Note_off_c, 0, 90, 64
1, 1450840, Control_c, 0, 64, 93
1, 1450862, Control_c, 0, 64, 0
1, 1450893, Note_on_c, 0, 40, 102
1, 1450897, Note_on_c, 0, 28, 84
1, 1450900, Note_on_c, 0, 99, 94
1, 1450906, Control_c, 0, 64, 62
1, 1450920, Note_off_c, 0, 28, 63
1, 1450921, Control_c, 0, 64, 107
1, 1450931, Note_off_c, 0, 40, 65
1, 1450937, Control_c, 0, 64, 127
1, 1450939, Note_on_c, 0, 34, 25
1, 1450940, Note_off_c, 0, 34, 127
1, 1450972, Note_off_c, 0, 102, 57
1, 1450978, Note_on_c, 0, 95, 85
1, 1450983, Poly_aftertouch_c, 0, 34, 0
1, 1451005, Note_off_c, 0, 99, 65
1, 1451073, Note_on_c, 0, 92, 94
1, 1451076, Note_off_c, 0, 95, 68
1, 1451217, Note_on_c, 0, 61, 20
1, 1451278, Note_on_c, 0, 104, 99
1, 1451287, Note_off_c, 0, 61, 43
1, 1451287, Note_on_c, 0, 71, 101
1, 1451288, Note_on_c, 0, 64, 46
1, 1451289, Note_on_c, 0, 59, 89
1, 1451315, Note_off_c, 0, 64, 57
1, 1451355, Note_off_c, 0, 92, 63
1, 1451403, Note_off_c, 0, 71, 68
1, 1451439, Note_on_c, 0, 102, 49
1, 1451446, Note_on_c, 0, 97, 83
1, 1451499, Note_off_c, 0, 102, 36
1, 1451501, Note_off_c, 0, 104, 59
1, 1451523, Note_on_c, 0, 95, 87
1, 1451566, Note_off_c, 0, 97, 63
1, 1451594, Note_on_c, 0, 68, 90
1, 1451597, Note_off_c, 0, 59, 67
1, 1451609, Note_on_c, 0, 56, 77
1, 1451609, Note_off_c, 0, 95, 67
1, 1451612, Note_on_c, 0, 92, 78
1, 1451635, Note_off_c, 0, 92, 69
1, 1451683, Note_off_c, 0, 68, 59
1, 1451705, Note_on_c, 0, 85, 86
1, 1451769, Note_on_c, 0, 83, 92
1, 1451773, Note_off_c, 0, 85, 62
1, 1451818, Note_off_c, 0, 56, 65
1, 1451831, Note_on_c, 0, 54, 86
1, 1451831, Note_on_c, 0, 66, 100
1, 1451833, Note_off_c, 0, 83, 63
1, 1451837, Note_on_c, 0, 92, 87
1, 1451906, Note_on_c, 0, 85, 93
1, 1451924, Note_off_c, 0, 66, 60
1, 1451928, Note_off_c, 0, 92, 64
1, 1451974, Note_on_c, 0, 83, 82
1, 1452002, Note_off_c, 0, 85, 61
1, 1452040, Note_off_c, 0, 83, 67
1, 1452048, Note_on_c, 0, 80, 73
1, 1452054, Note_on_c, 0, 64, 98
1, 1452060, Note_on_c, 0, 52, 88
1, 1452068, Note_off_c, 0, 80, 69
1, 1452086, Note_off_c, 0, 54, 63
1, 1452086, Note_off_c, 0, 64, 70
1, 1452112, Note_off_c, 0, 52, 64
1, 1452134, Note_on_c, 0, 73, 80
1, 1452163, Poly_aftertouch_c, 0, 58, 0
1, 1452199, Note_on_c, 0, 71, 89
1, 1452208, Note_off_c, 0, 73, 59
1, 1452264, Note_off_c, 0, 71, 62
1, 1452272, Note_on_c, 0, 80, 89
1, 1452277, Note_on_c, 0, 59, 95
1, 1452278, Control_c, 0, 64, 99
1, 1452279, Note_on_c, 0, 47, 93
1, 1452293, Control_c, 0, 64, 74
1, 1452308, Control_c, 0, 64, 66
1, 1452314, Note_off_c, 0, 59, 63
1, 1452323, Control_c, 0, 64, 74
1, 1452338, Control_c, 0, 64, 93
1, 1452346, Note_on_c, 0, 73, 88
1, 1452360, Control_c, 0, 64, 127
1, 1452369, Note_off_c, 0, 80, 60
1, 1452425, Note_on_c, 0, 71, 76
1, 1452450, Note_off_c, 0, 73, 58
1, 1452485, Note_off_c, 0, 71, 65
1, 1452503, Note_on_c, 0, 68, 63
1, 1452506, Note_on_c, 0, 56, 93
1, 1452508, Note_on_c, 0, 44, 76
1, 1452515, Note_off_c, 0, 47, 63
1, 1452523, Note_off_c, 0, 68, 64
1, 1452587, Note_on_c, 0, 61, 77
1, 1452589, Note_off_c, 0, 56, 51
1, 1452648, Note_off_c, 0, 61, 62
1, 1452660, Note_on_c, 0, 59, 85
1, 1452664, Note_on_c, 0, 58, 41
1, 1452695, Note_off_c, 0, 58, 58
1, 1452723, Note_off_c, 0, 59, 59
1, 1452730, Note_on_c, 0, 68, 80
1, 1452731, Control_c, 0, 64, 92
1, 1452743, Note_on_c, 0, 53, 97
1, 1452745, Note_on_c, 0, 41, 90
1, 1452746, Control_c, 0, 64, 76
1, 1452761, Control_c, 0, 64, 77
1, 1452769, Note_on_c, 0, 52, 57
1, 1452773, Note_off_c, 0, 53, 64
1, 1452776, Control_c, 0, 64, 97
1, 1452790, Note_on_c, 0, 61, 77
1, 1452790, Control_c, 0, 64, 127
1, 1452796, Note_off_c, 0, 44, 29
1, 1452796, Note_off_c, 0, 52, 57
1, 1452799, Note_off_c, 0, 41, 63
1, 1452821, Note_off_c, 0, 68, 57
1, 1452843, Note_on_c, 0, 59, 74
1, 1452875, Note_off_c, 0, 61, 60
1, 1452901, Note_off_c, 0, 59, 62
1, 1452979, Note_on_c, 0, 41, 92
1, 1452985, Note_on_c, 0, 29, 94
1, 1452999, Note_off_c, 0, 41, 71
1, 1453007, Note_on_c, 0, 49, 79
1, 1453013, Note_off_c, 0, 29, 65
1, 1453039, Note_off_c, 0, 49, 67
1, 1453082, Note_on_c, 0, 47, 66
1, 1453092, Poly_aftertouch_c, 0, 32, 0
1, 1453147, Note_off_c, 0, 47, 59
1, 1453168, Control_c, 0, 64, 106
1, 1453183, Control_c, 0, 64, 73
1, 1453198, Control_c, 0, 64, 0
1, 1453232, Note_on_c, 0, 42, 95
1, 1453243, Note_on_c, 0, 30, 72
1, 1453243, Note_on_c, 0, 54, 44
1, 1453243, Control_c, 0, 64, 65
1, 1453250, Note_on_c, 0, 55, 70
1, 1453251, Note_on_c, 0, 51, 37
1, 1453252, Note_off_c, 0, 51, 127
1, 1453257, Control_c, 0, 64, 84
1, 1453260, Note_off_c, 0, 42, 65
1, 1453272, Control_c, 0, 64, 127
1, 1453273, Note_off_c, 0, 30, 63
1, 1453273, Note_off_c, 0, 54, 60
1, 1453276, Note_off_c, 0, 55, 67
1, 1453280, Note_on_c, 0, 56, 29
1, 1453289, Poly_aftertouch_c, 0, 51, 0
1, 1453304, Note_on_c, 0, 52, 1
1, 1453311, Note_off_c, 0, 56, 56
1, 1453350, Note_off_c, 0, 52, 49
1, 1453496, Note_on_c, 0, 54, 60
1, 1453496, Note_on_c, 0, 63, 69
1, 1453510, Note_on_c, 0, 59, 59
1, 1453510, Note_on_c, 0, 75, 69
1, 1453525, Control_c, 0, 64, 108
1, 1453539, Control_c, 0, 64, 75
1, 1453554, Control_c, 0, 64, 0
1, 1453588, Note_on_c, 0, 71, 56
1, 1453613, Control_c, 0, 64, 61
1, 1453623, Note_off_c, 0, 75, 53
1, 1453628, Control_c, 0, 64, 74
1, 1453643, Control_c, 0, 64, 96
1, 1453650, Note_off_c, 0, 71, 63
1, 1453658, Control_c, 0, 64, 127
1, 1453666, Note_on_c, 0, 66, 63
1, 1453693, Note_off_c, 0, 66, 65
1, 1453749, Note_off_c, 0, 63, 61
1, 1453752, Note_off_c, 0, 54, 63
1, 1453760, Note_on_c, 0, 78, 76
1, 1453764, Note_off_c, 0, 59, 61
1, 1453832, Note_off_c, 0, 78, 61
1, 1453836, Note_on_c, 0, 75, 72
1, 1453896, Note_off_c, 0, 75, 62
1, 1453907, Note_on_c, 0, 71, 67
1, 1453930, Note_off_c, 0, 71, 71
1, 1453994, Note_on_c, 0, 66, 76
1, 1453995, Note_on_c, 0, 87, 93
1, 1453998, Note_on_c, 0, 63, 74
1, 1454000, Note_on_c, 0, 54, 62
1, 1454009, Note_on_c, 0, 59, 63
1, 1454017, Note_off_c, 0, 66, 67
1, 1454027, Note_off_c, 0, 54, 66
1, 1454036, Note_off_c, 0, 59, 64
1, 1454045, Note_off_c, 0, 63, 59
1, 1454081, Note_on_c, 0, 78, 76
1, 1454095, Note_off_c, 0, 87, 63
1, 1454141, Note_off_c, 0, 78, 62
1, 1454151, Note_on_c, 0, 75, 81
1, 1454214, Note_off_c, 0, 75, 63
1, 1454229, Control_c, 0, 64, 95
1, 1454244, Note_on_c, 0, 85, 89
1, 1454244, Control_c, 0, 64, 69
1, 1454254, Note_on_c, 0, 54, 58
1, 1454254, Note_on_c, 0, 66, 71
1, 1454259, Control_c, 0, 64, 0
1, 1454271, Note_on_c, 0, 61, 47
1, 1454272, Note_on_c, 0, 64, 40
1, 1454281, Note_on_c, 0, 58, 51
1, 1454289, Control_c, 0, 64, 45
1, 1454303, Control_c, 0, 64, 63
1, 1454304, Note_on_c, 0, 56, 10
1, 1454318, Control_c, 0, 64, 72
1, 1454332, Note_on_c, 0, 76, 80
1, 1454333, Control_c, 0, 64, 88
1, 1454348, Control_c, 0, 64, 127
1, 1454360, Note_off_c, 0, 56, 53
1, 1454367, Note_off_c, 0, 54, 62
1, 1454371, Note_off_c, 0, 66, 59
1, 1454372, Note_off_c, 0, 64, 59
1, 1454379, Note_off_c, 0, 85, 62
1, 1454379, Note_off_c, 0, 61, 54
1, 1454396, Note_off_c, 0, 58, 58
1, 1454405, Note_off_c, 0, 76, 63
1, 1454412, Note_on_c, 0, 73, 87
1, 1454463, Note_off_c, 0, 73, 62
1, 1454485, Note_on_c, 0, 66, 71
1, 1454485, Note_on_c, 0, 82, 95
1, 1454495, Note_on_c, 0, 64, 65
1, 1454507, Note_on_c, 0, 58, 65
1, 1454508, Note_off_c, 0, 66, 66
1, 1454510, Note_on_c, 0, 54, 43
1, 1454513, Note_on_c, 0, 61, 59
1, 1454543, Note_off_c, 0, 54, 63
1, 1454565, Note_on_c, 0, 73, 83
1, 1454609, Note_off_c, 0, 82, 60
1, 1454614, Note_off_c, 0, 64, 49
1, 1454633, Note_off_c, 0, 61, 58
1, 1454643, Note_off_c, 0, 58, 62
1, 1454653, Note_on_c, 0, 70, 75
1, 1454655, Note_off_c, 0, 73, 63
1, 1454703, Note_off_c, 0, 70, 62
1, 1454716, Note_on_c, 0, 78, 88
1, 1454802, Note_on_c, 0, 70, 78
1, 1454822, Note_off_c, 0, 78, 59
1, 1454882, Note_off_c, 0, 70, 60
1, 1454889, Note_on_c, 0, 66, 55
1, 1454933, Control_c, 0, 64, 110
1, 1454944, Note_off_c, 0, 66, 57
1, 1454948, Control_c, 0, 64, 86
1, 1454953, Note_on_c, 0, 42, 79
1, 1454955, Note_on_c, 0, 76, 78
1, 1454963, Note_on_c, 0, 30, 62
1, 1454963, Control_c, 0, 64, 79
1, 1454978, Control_c, 0, 64, 80
1, 1454993, Control_c, 0, 64, 89
1, 1455007, Control_c, 0, 64, 109
1, 1455022, Control_c, 0, 64, 127
1, 1455042, Note_off_c, 0, 42, 59
1, 1455043, Note_off_c, 0, 30, 59
1, 1455049, Note_on_c, 0, 70, 68
1, 1455079, Note_off_c, 0, 76, 61
1, 1455104, Note_on_c, 0, 66, 64
1, 1455108, Note_off_c, 0, 70, 62
1, 1455167, Note_off_c, 0, 66, 61
1, 1455171, Control_c, 0, 64, 89
1, 1455182, Note_on_c, 0, 75, 80
1, 1455185, Control_c, 0, 64, 67
1, 1455188, Note_on_c, 0, 42, 88
1, 1455200, Control_c, 0, 64, 61
1, 1455215, Control_c, 0, 64, 67
1, 1455219, Note_off_c, 0, 42, 65
1, 1455220, Note_on_c, 0, 30, 24
1, 1455221, Note_off_c, 0, 30, 127
1, 1455230, Control_c, 0, 64, 76
1, 1455245, Control_c, 0, 64, 91
1, 1455253, Note_on_c, 0, 70, 65
1, 1455259, Control_c, 0, 64, 127
1, 1455284, Note_off_c, 0, 75, 61
1, 1455294, Note_off_c, 0, 70, 63
1, 1455326, Note_on_c, 0, 66, 59
1, 1455362, Note_off_c, 0, 66, 66
1, 1455439, Note_on_c, 0, 78, 72
1, 1455444, Note_on_c, 0, 66, 70
1, 1455447, Note_on_c, 0, 63, 60
1, 1455454, Note_on_c, 0, 54, 60
1, 1455472, Note_on_c, 0, 59, 56
1, 1455474, Control_c, 0, 64, 103
1, 1455489, Control_c, 0, 64, 78
1, 1455503, Control_c, 0, 64, 64
1, 1455516, Note_on_c, 0, 75, 73
1, 1455518, Control_c, 0, 64, 64
1, 1455524, Note_off_c, 0, 78, 60
1, 1455533, Control_c, 0, 64, 71
1, 1455548, Control_c, 0, 64, 83
1, 1455563, Control_c, 0, 64, 127
1, 1455577, Note_off_c, 0, 75, 65
1, 1455588, Note_on_c, 0, 71, 80
1, 1455638, Note_off_c, 0, 71, 64
1, 1455648, Note_off_c, 0, 66, 63
1, 1455653, Note_off_c, 0, 54, 64
1, 1455662, Note_on_c, 0, 83, 90
1, 1455681, Note_off_c, 0, 63, 60
1, 1455684, Note_off_c, 0, 59, 59
1, 1455734, Note_off_c, 0, 83, 60
1, 1455741, Note_on_c, 0, 78, 87
1, 1455795, Note_off_c, 0, 78, 65
1, 1455803, Note_on_c, 0, 75, 86
1, 1455860, Note_off_c, 0, 75, 65
1, 1455875, Note_on_c, 0, 63, 80
1, 1455875, Note_on_c, 0, 66, 89
1, 1455876, Note_on_c, 0, 87, 95
1, 1455883, Note_on_c, 0, 54, 78
1, 1455889, Note_on_c, 0, 59, 61
1, 1455897, Note_off_c, 0, 66, 67
1, 1455913, Note_off_c, 0, 59, 64
1, 1455919, Note_off_c, 0, 63, 59
1, 1455920, Note_off_c, 0, 54, 61
1, 1455959, Note_on_c, 0, 78, 87
1, 1455997, Note_off_c, 0, 87, 63
1, 1456029, Note_on_c, 0, 75, 84
1, 1456036, Note_off_c, 0, 78, 64
1, 1456084, Note_off_c, 0, 75, 65
1, 1456104, Control_c, 0, 64, 113
1, 1456113, Note_on_c, 0, 66, 90
1, 1456113, Note_on_c, 0, 64, 66
1, 1456113, Note_on_c, 0, 85, 96
1, 1456116, Note_on_c, 0, 54, 68
1, 1456119, Control_c, 0, 64, 79
1, 1456129, Note_on_c, 0, 61, 61
1, 1456131, Note_on_c, 0, 58, 61
1, 1456134, Control_c, 0, 64, 56
1, 1456149, Control_c, 0, 64, 60
1, 1456152, Note_on_c, 0, 56, 30
1, 1456153, Note_off_c, 0, 56, 127
1, 1456164, Control_c, 0, 64, 69
1, 1456179, Control_c, 0, 64, 81
1, 1456194, Control_c, 0, 64, 111
1, 1456197, Note_on_c, 0, 76, 80
1, 1456206, Note_off_c, 0, 66, 61
1, 1456206, Note_off_c, 0, 64, 63
1, 1456208, Control_c, 0, 64, 127
1, 1456212, Note_off_c, 0, 54, 59
1, 1456239, Note_off_c, 0, 85, 62
1, 1456269, Note_on_c, 0, 73, 85
1, 1456272, Note_off_c, 0, 76, 64
1, 1456279, Note_off_c, 0, 58, 37
1, 1456294, Note_off_c, 0, 61, 30
1, 1456323, Note_off_c, 0, 73, 62
1, 1456347, Note_on_c, 0, 82, 96
1, 1456350, Note_on_c, 0, 66, 80
1, 1456351, Note_on_c, 0, 64, 65
1, 1456356, Control_c, 0, 64, 113
1, 1456361, Note_on_c, 0, 58, 60
1, 1456368, Note_on_c, 0, 61, 43
1, 1456370, Note_on_c, 0, 54, 61
1, 1456371, Control_c, 0, 64, 93
1, 1456377, Note_off_c, 0, 66, 67
1, 1456386, Control_c, 0, 64, 91
1, 1456400, Control_c, 0, 64, 100
1, 1456415, Control_c, 0, 64, 127
1, 1456424, Note_on_c, 0, 73, 85
1, 1456433, Note_off_c, 0, 64, 62
1, 1456438, Poly_aftertouch_c, 0, 63, 127
1, 1456451, Note_off_c, 0, 82, 60
1, 1456464, Note_off_c, 0, 61, 61
1, 1456467, Note_off_c, 0, 54, 53
1, 1456479, Poly_aftertouch_c, 0, 63, 0
1, 1456480, Note_off_c, 0, 58, 58
1, 1456494, Note_off_c, 0, 73, 61
1, 1456495, Note_on_c, 0, 70, 69
1, 1456537, Note_off_c, 0, 70, 59
1, 1456565, Note_on_c, 0, 78, 71
1, 1456618, Note_off_c, 0, 78, 0
1, 1456618, Note_on_c, 0, 78, 9
1, 1456638, Note_on_c, 0, 70, 71
1, 1456668, Note_off_c, 0, 78, 48
1, 1456700, Note_off_c, 0, 70, 58
1, 1456709, Note_on_c, 0, 66, 56
1, 1456738, Note_off_c, 0, 66, 64
1, 1456757, Control_c, 0, 64, 95
1, 1456769, Note_on_c, 0, 42, 79
1, 1456772, Control_c, 0, 64, 72
1, 1456775, Note_on_c, 0, 30, 67
1, 1456775, Note_on_c, 0, 76, 71
1, 1456787, Control_c, 0, 64, 62
1, 1456800, Note_off_c, 0, 42, 66
1, 1456802, Note_off_c, 0, 30, 62
1, 1456802, Control_c, 0, 64, 67
1, 1456817, Control_c, 0, 64, 74
1, 1456831, Control_c, 0, 64, 86
1, 1456853, Control_c, 0, 64, 116
1, 1456868, Control_c, 0, 64, 127
1, 1456880, Note_on_c, 0, 70, 52
1, 1456914, Note_off_c, 0, 70, 64
1, 1456927, Note_off_c, 0, 76, 59
1, 1456930, Note_on_c, 0, 66, 59
1, 1457024, Note_off_c, 0, 66, 55
1, 1457061, Note_on_c, 0, 75, 64
1, 1457068, Note_on_c, 0, 63, 65
1, 1457081, Note_on_c, 0, 51, 55
1, 1457105, Control_c, 0, 64, 118
1, 1457120, Control_c, 0, 64, 87
1, 1457135, Control_c, 0, 64, 73
1, 1457147, Note_on_c, 0, 71, 56
1, 1457149, Control_c, 0, 64, 72
1, 1457164, Control_c, 0, 64, 81
1, 1457172, Note_off_c, 0, 63, 61
1, 1457179, Note_off_c, 0, 75, 54
1, 1457179, Control_c, 0, 64, 103
1, 1457194, Control_c, 0, 64, 127
1, 1457198, Note_off_c, 0, 71, 62
1, 1457227, Note_on_c, 0, 66, 54
1, 1457249, Note_off_c, 0, 66, 62
1, 1457302, Note_on_c, 0, 49, 76
1, 1457302, Note_off_c, 0, 51, 63
1, 1457311, Note_on_c, 0, 61, 75
1, 1457312, Note_on_c, 0, 78, 74
1, 1457388, Note_off_c, 0, 61, 51
1, 1457388, Note_off_c, 0, 78, 59
1, 1457393, Note_on_c, 0, 75, 72
1, 1457443, Note_on_c, 0, 71, 70
1, 1457446, Note_off_c, 0, 75, 62
1, 1457446, Control_c, 0, 64, 111
1, 1457461, Control_c, 0, 64, 93
1, 1457476, Control_c, 0, 64, 98
1, 1457482, Note_off_c, 0, 71, 62
1, 1457491, Control_c, 0, 64, 127
1, 1457526, Note_on_c, 0, 83, 88
1, 1457528, Note_on_c, 0, 59, 86
1, 1457533, Note_on_c, 0, 47, 88
1, 1457547, Note_off_c, 0, 49, 59
1, 1457563, Note_off_c, 0, 59, 64
1, 1457580, Control_c, 0, 64, 82
1, 1457595, Note_off_c, 0, 83, 61
1, 1457602, Control_c, 0, 64, 68
1, 1457608, Note_off_c, 0, 47, 67
1, 1457617, Note_on_c, 0, 78, 75
1, 1457617, Control_c, 0, 64, 76
1, 1457632, Control_c, 0, 64, 102
1, 1457647, Control_c, 0, 64, 127
1, 1457675, Note_on_c, 0, 75, 81
1, 1457680, Note_off_c, 0, 78, 63
1, 1457720, Control_c, 0, 64, 86
1, 1457724, Note_off_c, 0, 75, 64
1, 1457735, Control_c, 0, 64, 0
1, 1457738, Note_on_c, 0, 42, 80
1, 1457739, Note_on_c, 0, 87, 94
1, 1457750, Note_on_c, 0, 32, 65
1, 1457766, Note_off_c, 0, 42, 65
1, 1457780, Control_c, 0, 64, 70
1, 1457780, Note_off_c, 0, 32, 56
1, 1457783, Note_on_c, 0, 78, 77
1, 1457795, Control_c, 0, 64, 115
1, 1457809, Control_c, 0, 64, 127
1, 1457829, Note_off_c, 0, 87, 63
1, 1457834, Poly_aftertouch_c, 0, 34, 127
1, 1457839, Note_on_c, 0, 37, 54
1, 1457843, Poly_aftertouch_c, 0, 31, 127
1, 1457850, Note_on_c, 0, 75, 71
1, 1457855, Note_off_c, 0, 78, 64
1, 1457856, Note_on_c, 0, 43, 95
1, 1457864, Note_on_c, 0, 31, 17
1, 1457887, Note_off_c, 0, 43, 65
1, 1457888, Note_off_c, 0, 37, 63
1, 1457893, Note_off_c, 0, 75, 60
1, 1457893, Note_on_c, 0, 33, 34
1, 1457899, Poly_aftertouch_c, 0, 34, 0
1, 1457914, Note_off_c, 0, 31, 51
1, 1457936, Note_off_c, 0, 33, 48
1, 1458033, Note_on_c, 0, 63, 98
1, 1458034, Note_on_c, 0, 51, 90
1, 1458069, Note_on_c, 0, 58, 39
1, 1458070, Note_off_c, 0, 58, 127
1, 1458076, Control_c, 0, 64, 83
1, 1458091, Control_c, 0, 64, 45
1, 1458105, Control_c, 0, 64, 0
1, 1458121, Control_c, 0, 64, 59
1, 1458136, Control_c, 0, 64, 72
1, 1458151, Control_c, 0, 64, 90
1, 1458166, Control_c, 0, 64, 127
1, 1458190, Note_off_c, 0, 63, 62
1, 1458280, Note_on_c, 0, 75, 86
1, 1458290, Note_on_c, 0, 61, 95
1, 1458305, Note_on_c, 0, 49, 82
1, 1458328, Note_on_c, 0, 71, 55
1, 1458369, Note_off_c, 0, 75, 63
1, 1458384, Note_off_c, 0, 61, 61
1, 1458401, Note_on_c, 0, 67, 70
1, 1458403, Note_off_c, 0, 71, 64
1, 1458432, Note_off_c, 0, 67, 62
1, 1458499, Note_on_c, 0, 79, 72
1, 1458509, Note_on_c, 0, 59, 93
1, 1458515, Note_on_c, 0, 47, 86
1, 1458516, Note_on_c, 0, 77, 60
1, 1458531, Note_off_c, 0, 51, 15
1, 1458537, Note_off_c, 0, 77, 49
1, 1458538, Note_off_c, 0, 59, 57
1, 1458549, Note_off_c, 0, 49, 61
1, 1458570, Note_off_c, 0, 47, 67
1, 1458570, Note_off_c, 0, 79, 61
1, 1458577, Note_on_c, 0, 76, 54
1, 1458602, Note_off_c, 0, 76, 60
1, 1458614, Note_on_c, 0, 71, 66
1, 1458617, Control_c, 0, 64, 112
1, 1458632, Control_c, 0, 64, 112
1, 1458634, Note_off_c, 0, 71, 66
1, 1458647, Control_c, 0, 64, 127
1, 1458692, Note_on_c, 0, 87, 98
1, 1458697, Note_on_c, 0, 43, 100
1, 1458707, Note_on_c, 0, 31, 68
1, 1458719, Note_off_c, 0, 43, 70
1, 1458722, Note_on_c, 0, 33, 52
1, 1458725, Note_on_c, 0, 88, 53
1, 1458736, Note_off_c, 0, 31, 57
1, 1458737, Control_c, 0, 64, 110
1, 1458746, Note_on_c, 0, 39, 15
1, 1458747, Note_off_c, 0, 88, 60
1, 1458751, Control_c, 0, 64, 64
1, 1458759, Note_off_c, 0, 33, 59
1, 1458766, Control_c, 0, 64, 0
1, 1458770, Note_on_c, 0, 79, 78
1, 1458802, Note_off_c, 0, 39, 0
1, 1458802, Note_on_c, 0, 39, 6
1, 1458811, Control_c, 0, 64, 77
1, 1458812, Note_on_c, 0, 44, 94
1, 1458814, Note_on_c, 0, 32, 80
1, 1458826, Note_off_c, 0, 87, 60
1, 1458826, Control_c, 0, 64, 127
1, 1458835, Note_on_c, 0, 75, 80
1, 1458837, Note_off_c, 0, 32, 66
1, 1458849, Note_off_c, 0, 39, 53
1, 1458853, Note_off_c, 0, 44, 63
1, 1458853, Note_off_c, 0, 79, 61
1, 1458854, Note_on_c, 0, 34, 31
1, 1458891, Note_off_c, 0, 75, 62
1, 1458897, Note_off_c, 0, 34, 48
1, 1458994, Note_on_c, 0, 63, 102
1, 1458996, Note_on_c, 0, 51, 92
1, 1459019, Note_on_c, 0, 58, 52
1, 1459020, Note_off_c, 0, 58, 127
1, 1459039, Note_on_c, 0, 54, 22
1, 1459084, Note_off_c, 0, 54, 49
1, 1459133, Note_off_c, 0, 63, 63
1, 1459258, Note_on_c, 0, 75, 86
1, 1459261, Note_on_c, 0, 61, 101
1, 1459266, Note_on_c, 0, 49, 85
1, 1459327, Note_on_c, 0, 71, 70
1, 1459353, Note_off_c, 0, 61, 62
1, 1459356, Note_off_c, 0, 75, 62
1, 1459394, Note_off_c, 0, 71, 65
1, 1459399, Note_on_c, 0, 68, 68
1, 1459422, Note_off_c, 0, 68, 66
1, 1459440, Control_c, 0, 64, 113
1, 1459455, Control_c, 0, 64, 97
1, 1459470, Control_c, 0, 64, 96
1, 1459484, Note_off_c, 0, 49, 63
1, 1459485, Control_c, 0, 64, 102
1, 1459489, Note_off_c, 0, 51, 58
1, 1459498, Note_on_c, 0, 80, 86
1, 1459500, Control_c, 0, 64, 127
1, 1459506, Note_on_c, 0, 59, 97
1, 1459508, Note_on_c, 0, 47, 91
1, 1459531, Note_off_c, 0, 59, 63
1, 1459556, Note_off_c, 0, 47, 65
1, 1459568, Note_on_c, 0, 75, 74
1, 1459583, Note_off_c, 0, 80, 61
1, 1459596, Poly_aftertouch_c, 0, 53, 0
1, 1459625, Note_on_c, 0, 71, 76
1, 1459637, Note_off_c, 0, 75, 62
1, 1459646, Note_off_c, 0, 71, 70
1, 1459708, Note_on_c, 0, 44, 99
1, 1459712, Note_on_c, 0, 32, 97
1, 1459713, Note_on_c, 0, 87, 101
1, 1459723, Control_c, 0, 64, 99
1, 1459738, Control_c, 0, 64, 60
1, 1459742, Note_off_c, 0, 32, 66
1, 1459748, Note_off_c, 0, 44, 64
1, 1459753, Control_c, 0, 64, 0
1, 1459762, Note_on_c, 0, 84, 52
1, 1459764, Note_on_c, 0, 83, 55
1, 1459797, Control_c, 0, 64, 68
1, 1459812, Control_c, 0, 64, 100
1, 1459827, Control_c, 0, 64, 127
1, 1459832, Note_on_c, 0, 45, 102
1, 1459834, Note_on_c, 0, 75, 88
1, 1459836, Note_on_c, 0, 33, 87
1, 1459845, Note_off_c, 0, 84, 52
1, 1459851, Note_on_c, 0, 39, 46
1, 1459858, Note_off_c, 0, 83, 63
1, 1459859, Note_off_c, 0, 87, 63
1, 1459869, Note_off_c, 0, 33, 64
1, 1459876, Note_off_c, 0, 45, 66
1, 1459888, Note_off_c, 0, 39, 51
1, 1459911, Note_off_c, 0, 75, 60
1, 1460057, Note_on_c, 0, 51, 91
1, 1460058, Note_on_c, 0, 63, 102
1, 1460086, Control_c, 0, 64, 98
1, 1460100, Control_c, 0, 64, 59
1, 1460115, Control_c, 0, 64, 0
1, 1460138, Note_on_c, 0, 54, 9
1, 1460145, Control_c, 0, 64, 68
1, 1460160, Control_c, 0, 64, 92
1, 1460174, Control_c, 0, 64, 127
1, 1460200, Note_on_c, 0, 75, 32
1, 1460206, Note_off_c, 0, 54, 34
1, 1460224, Note_off_c, 0, 63, 60
1, 1460239, Note_off_c, 0, 75, 51
1, 1460326, Note_on_c, 0, 75, 89
1, 1460332, Note_on_c, 0, 61, 96
1, 1460334, Note_on_c, 0, 49, 84
1, 1460413, Note_on_c, 0, 72, 85
1, 1460436, Note_off_c, 0, 61, 61
1, 1460448, Note_off_c, 0, 75, 59
1, 1460495, Note_off_c, 0, 72, 62
1, 1460510, Note_on_c, 0, 69, 80
1, 1460552, Note_off_c, 0, 69, 63
1, 1460561, Control_c, 0, 64, 112
1, 1460576, Control_c, 0, 64, 90
1, 1460597, Control_c, 0, 64, 87
1, 1460612, Control_c, 0, 64, 105
1, 1460627, Control_c, 0, 64, 127
1, 1460630, Note_on_c, 0, 81, 101
1, 1460632, Note_on_c, 0, 60, 98
1, 1460638, Note_on_c, 0, 48, 92
1, 1460649, Note_off_c, 0, 49, 66
1, 1460657, Note_off_c, 0, 51, 40
1, 1460662, Note_off_c, 0, 60, 68
1, 1460679, Note_off_c, 0, 48, 64
1, 1460741, Note_on_c, 0, 75, 89
1, 1460801, Note_off_c, 0, 81, 61
1, 1460826, Note_on_c, 0, 72, 92
1, 1460860, Note_off_c, 0, 75, 62
1, 1460873, Note_off_c, 0, 72, 65
1, 1460952, Control_c, 0, 64, 102
1, 1460959, Note_on_c, 0, 87, 97
1, 1460967, Control_c, 0, 64, 74
1, 1460980, Note_on_c, 0, 45, 99
1, 1460982, Note_on_c, 0, 33, 82
1, 1460982, Control_c, 0, 64, 68
1, 1460996, Control_c, 0, 64, 83
1, 1461011, Control_c, 0, 64, 127
1, 1461018, Note_on_c, 0, 34, 26
1, 1461019, Note_off_c, 0, 34, 127
1, 1461022, Note_off_c, 0, 45, 66
1, 1461023, Note_off_c, 0, 33, 60
1, 1461048, Note_on_c, 0, 84, 83
1, 1461062, Poly_aftertouch_c, 0, 34, 0
1, 1461090, Poly_aftertouch_c, 0, 43, 0
1, 1461092, Note_off_c, 0, 87, 62
1, 1461135, Note_off_c, 0, 84, 63
1, 1461147, Note_on_c, 0, 75, 64
1, 1461167, Note_off_c, 0, 75, 66
1, 1461227, Note_on_c, 0, 75, 84
1, 1461294, Note_on_c, 0, 77, 85
1, 1461354, Note_on_c, 0, 82, 93
1, 1461509, Note_on_c, 0, 34, 94
1, 1461642, Control_c, 0, 64, 69
1, 1461657, Note_on_c, 0, 87, 103
1, 1461657, Control_c, 0, 64, 0
1, 1461688, Poly_aftertouch_c, 0, 36, 127
1, 1461716, Control_c, 0, 64, 67
1, 1461731, Control_c, 0, 64, 127
1, 1461883, Note_on_c, 0, 41, 85
1, 1461987, Poly_aftertouch_c, 0, 36, 0
1, 1462026, Note_off_c, 0, 34, 59
1, 1462034, Note_on_c, 0, 46, 91
1, 1462048, Note_off_c, 0, 41, 63
1, 1462067, Note_off_c, 0, 46, 62
1, 1462174, Note_on_c, 0, 50, 95
1, 1462275, Note_on_c, 0, 53, 89
1, 1462332, Note_off_c, 0, 50, 59
1, 1462335, Note_off_c, 0, 87, 59
1, 1462345, Note_off_c, 0, 77, 36
1, 1462364, Note_off_c, 0, 82, 51
1, 1462365, Note_on_c, 0, 58, 91
1, 1462370, Note_off_c, 0, 75, 63
1, 1462459, Note_on_c, 0, 62, 101
1, 1462545, Note_off_c, 0, 53, 58
1, 1462557, Note_off_c, 0, 62, 66
1, 1462603, Note_off_c, 0, 58, 61
1, 1462747, Note_on_c, 0, 77, 82
1, 1462750, Note_on_c, 0, 82, 87
1, 1462751, Note_on_c, 0, 86, 102
1, 1462755, Note_on_c, 0, 74, 100
1, 1462930, Note_off_c, 0, 77, 64
1, 1462931, Note_off_c, 0, 74, 58
1, 1462970, Note_off_c, 0, 82, 63
1, 1462976, Note_off_c, 0, 86, 57
1, 1463056, Note_on_c, 0, 31, 92
1, 1463160, Note_on_c, 0, 84, 94
1, 1463163, Note_on_c, 0, 79, 89
1, 1463164, Note_on_c, 0, 72, 81
1, 1463166, Note_on_c, 0, 74, 93
1, 1463169, Control_c, 0, 64, 104
1, 1463184, Control_c, 0, 64, 66
1, 1463199, Control_c, 0, 64, 0
1, 1463243, Control_c, 0, 64, 59
1, 1463258, Control_c, 0, 64, 79
1, 1463273, Control_c, 0, 64, 127
1, 1463297, Note_off_c, 0, 31, 62
1, 1463316, Note_on_c, 0, 43, 79
1, 1463384, Note_off_c, 0, 43, 63
1, 1463449, Note_on_c, 0, 46, 39
1, 1463458, Note_on_c, 0, 45, 66
1, 1463512, Note_off_c, 0, 46, 58
1, 1463515, Note_off_c, 0, 45, 62
1, 1463520, Note_on_c, 0, 50, 83
1, 1463610, Note_off_c, 0, 50, 66
1, 1463619, Note_on_c, 0, 55, 80
1, 1463696, Note_off_c, 0, 55, 54
1, 1463697, Note_off_c, 0, 72, 60
1, 1463700, Note_off_c, 0, 74, 56
1, 1463700, Note_off_c, 0, 84, 58
1, 1463712, Note_on_c, 0, 58, 86
1, 1463738, Note_off_c, 0, 79, 60
1, 1463797, Note_on_c, 0, 62, 91
1, 1463816, Note_off_c, 0, 58, 64
1, 1463850, Note_off_c, 0, 62, 66
1, 1463987, Note_on_c, 0, 75, 22
1, 1464031, Note_off_c, 0, 75, 50
1, 1464046, Note_on_c, 0, 70, 102
1, 1464048, Note_on_c, 0, 79, 85
1, 1464049, Note_on_c, 0, 82, 94
1, 1464052, Note_on_c, 0, 74, 86
1, 1464138, Note_off_c, 0, 70, 63
1, 1464165, Note_off_c, 0, 82, 62
1, 1464166, Note_off_c, 0, 74, 63
1, 1464180, Note_off_c, 0, 79, 60
1, 1464293, Note_on_c, 0, 29, 92
1, 1464421, Note_on_c, 0, 80, 97
1, 1464424, Note_on_c, 0, 68, 96
1, 1464427, Note_on_c, 0, 71, 87
1, 1464431, Note_on_c, 0, 74, 77
1, 1464444, Control_c, 0, 64, 81
1, 1464459, Control_c, 0, 64, 0
1, 1464503, Control_c, 0, 64, 17
1, 1464519, Control_c, 0, 64, 66
1, 1464534, Control_c, 0, 64, 83
1, 1464549, Control_c, 0, 64, 127
1, 1464556, Note_off_c, 0, 29, 63
1, 1464573, Poly_aftertouch_c, 0, 36, 127
1, 1464576, Note_on_c, 0, 41, 71
1, 1464603, Note_off_c, 0, 41, 65
1, 1464626, Poly_aftertouch_c, 0, 36, 0
1, 1464681, Note_off_c, 0, 68, 60
1, 1464687, Note_on_c, 0, 47, 89
1, 1464687, Note_off_c, 0, 80, 58
1, 1464716, Note_off_c, 0, 71, 60
1, 1464737, Note_off_c, 0, 74, 59
1, 1464767, Note_on_c, 0, 50, 79
1, 1464789, Note_off_c, 0, 47, 62
1, 1464840, Note_on_c, 0, 56, 87
1, 1464870, Note_off_c, 0, 50, 59
1, 1464902, Note_on_c, 0, 59, 77
1, 1464904, Note_off_c, 0, 56, 64
1, 1464949, Note_off_c, 0, 59, 65
1, 1464974, Note_on_c, 0, 79, 95
1, 1464976, Note_on_c, 0, 71, 86
1, 1464977, Note_on_c, 0, 67, 94
1, 1464977, Note_on_c, 0, 74, 75
1, 1464981, Note_on_c, 0, 62, 91
1, 1465020, Note_off_c, 0, 62, 66
1, 1465056, Note_off_c, 0, 74, 65
1, 1465060, Note_off_c, 0, 71, 66
1, 1465080, Note_off_c, 0, 79, 59
1, 1465101, Note_off_c, 0, 67, 59
1, 1465244, Note_on_c, 0, 68, 85
1, 1465245, Note_on_c, 0, 65, 99
1, 1465246, Note_on_c, 0, 77, 98
1, 1465247, Note_on_c, 0, 74, 84
1, 1465429, Note_off_c, 0, 65, 50
1, 1465470, Note_off_c, 0, 77, 50
1, 1465487, Note_on_c, 0, 35, 87
1, 1465493, Note_off_c, 0, 68, 49
1, 1465522, Note_off_c, 0, 74, 49
1, 1465554, Note_on_c, 0, 74, 68
1, 1465559, Note_on_c, 0, 65, 91
1, 1465560, Note_on_c, 0, 68, 85
1, 1465562, Note_on_c, 0, 77, 99
1, 1465564, Control_c, 0, 64, 78
1, 1465579, Control_c, 0, 64, 0
1, 1465623, Control_c, 0, 64, 44
1, 1465637, Control_c, 0, 64, 71
1, 1465652, Control_c, 0, 64, 95
1, 1465664, Note_on_c, 0, 38, 75
1, 1465667, Control_c, 0, 64, 127
1, 1465701, Note_off_c, 0, 35, 60
1, 1465712, Note_off_c, 0, 65, 55
1, 1465719, Note_off_c, 0, 77, 56
1, 1465766, Note_off_c, 0, 74, 63
1, 1465770, Note_on_c, 0, 44, 82
1, 1465778, Note_off_c, 0, 68, 61
1, 1465808, Note_off_c, 0, 38, 58
1, 1465856, Note_off_c, 0, 44, 61
1, 1465860, Note_on_c, 0, 47, 78
1, 1465913, Note_off_c, 0, 47, 64
1, 1465956, Note_on_c, 0, 50, 85
1, 1466056, Note_on_c, 0, 56, 90
1, 1466108, Note_on_c, 0, 64, 73
1, 1466134, Note_on_c, 0, 65, 68
1, 1466150, Control_c, 0, 64, 96
1, 1466157, Note_on_c, 0, 68, 78
1, 1466161, Note_on_c, 0, 59, 90
1, 1466165, Control_c, 0, 64, 70
1, 1466175, Note_on_c, 0, 66, 29
1, 1466176, Note_on_c, 0, 76, 91
1, 1466180, Control_c, 0, 64, 45
1, 1466195, Control_c, 0, 64, 61
1, 1466209, Control_c, 0, 64, 70
1, 1466224, Control_c, 0, 64, 80
1, 1466239, Control_c, 0, 64, 102
1, 1466254, Control_c, 0, 64, 127
1, 1466330, Note_off_c, 0, 64, 52
1, 1466335, Note_off_c, 0, 76, 53
1, 1466371, Note_off_c, 0, 66, 13
1, 1466392, Note_off_c, 0, 65, 57
1, 1466416, Note_off_c, 0, 68, 59
1, 1466468, Note_off_c, 0, 59, 59
1, 1466481, Note_on_c, 0, 62, 72
1, 1466500, Note_on_c, 0, 65, 75
1, 1466524, Note_on_c, 0, 68, 84
1, 1466526, Note_off_c, 0, 56, 60
1, 1466533, Note_on_c, 0, 74, 91
1, 1466535, Control_c, 0, 64, 108
1, 1466538, Note_off_c, 0, 50, 63
1, 1466549, Control_c, 0, 64, 84
1, 1466564, Control_c, 0, 64, 72
1, 1466587, Control_c, 0, 64, 72
1, 1466602, Control_c, 0, 64, 81
1, 1466616, Control_c, 0, 64, 100
1, 1466631, Control_c, 0, 64, 127
1, 1466664, Note_off_c, 0, 62, 60
1, 1466674, Note_off_c, 0, 74, 61
1, 1466702, Note_off_c, 0, 65, 63
1, 1466713, Note_off_c, 0, 68, 61
1, 1466825, Note_on_c, 0, 36, 59
1, 1466866, Note_on_c, 0, 41, 54
1, 1466887, Note_on_c, 0, 45, 54
1, 1466964, Note_on_c, 0, 48, 64
1, 1466999, Note_on_c, 0, 72, 81
1, 1467003, Note_on_c, 0, 60, 73
1, 1467003, Control_c, 0, 64, 95
1, 1467006, Note_on_c, 0, 69, 71
1, 1467017, Control_c, 0, 64, 67
1, 1467032, Control_c, 0, 64, 0
1, 1467077, Control_c, 0, 64, 61
1, 1467091, Control_c, 0, 64, 74
1, 1467106, Control_c, 0, 64, 96
1, 1467113, Note_off_c, 0, 36, 59
1, 1467121, Control_c, 0, 64, 127
1, 1467151, Note_off_c, 0, 41, 60
1, 1467154, Note_off_c, 0, 48, 62
1, 1467157, Note_off_c, 0, 45, 64
1, 1467217, Note_off_c, 0, 72, 48
1, 1467219, Note_off_c, 0, 60, 48
1, 1467241, Note_on_c, 0, 67, 67
1, 1467256, Note_off_c, 0, 69, 58
1, 1467333, Note_on_c, 0, 65, 76
1, 1467333, Note_off_c, 0, 67, 61
1, 1467396, Note_off_c, 0, 65, 63
1, 1467405, Note_on_c, 0, 57, 62
1, 1467411, Note_on_c, 0, 60, 72
1, 1467437, Note_off_c, 0, 60, 67
1, 1467448, Note_off_c, 0, 57, 54
1, 1467483, Note_on_c, 0, 72, 78
1, 1467488, Note_on_c, 0, 55, 71
1, 1467559, Note_off_c, 0, 55, 64
1, 1467560, Note_off_c, 0, 72, 59
1, 1467563, Note_on_c, 0, 69, 81
1, 1467564, Note_on_c, 0, 53, 75
1, 1467614, Note_off_c, 0, 53, 66
1, 1467629, Note_on_c, 0, 48, 71
1, 1467636, Note_on_c, 0, 67, 82
1, 1467637, Note_off_c, 0, 69, 58
1, 1467682, Note_off_c, 0, 48, 63
1, 1467695, Note_off_c, 0, 67, 62
1, 1467710, Note_on_c, 0, 65, 79
1, 1467727, Note_on_c, 0, 60, 68
1, 1467756, Note_off_c, 0, 65, 57
1, 1467784, Note_on_c, 0, 77, 85
1, 1467806, Note_on_c, 0, 57, 76
1, 1467808, Note_off_c, 0, 60, 61
1, 1467861, Note_on_c, 0, 72, 89
1, 1467865, Note_off_c, 0, 77, 61
1, 1467870, Note_on_c, 0, 55, 62
1, 1467884, Note_off_c, 0, 57, 59
1, 1467912, Note_off_c, 0, 55, 62
1, 1467921, Note_on_c, 0, 53, 76
1, 1467937, Note_off_c, 0, 72, 61
1, 1467941, Note_on_c, 0, 69, 86
1, 1467974, Note_off_c, 0, 53, 63
1, 1467989, Note_off_c, 0, 69, 62
1, 1468007, Note_on_c, 0, 65, 74
1, 1468019, Note_on_c, 0, 81, 88
1, 1468094, Note_off_c, 0, 65, 57
1, 1468098, Note_on_c, 0, 79, 96
1, 1468099, Note_on_c, 0, 60, 73
1, 1468100, Control_c, 0, 64, 113
1, 1468114, Control_c, 0, 64, 81
1, 1468127, Note_off_c, 0, 81, 65
1, 1468129, Control_c, 0, 64, 74
1, 1468144, Control_c, 0, 64, 80
1, 1468159, Control_c, 0, 64, 92
1, 1468168, Note_on_c, 0, 57, 78
1, 1468168, Note_on_c, 0, 77, 89
1, 1468171, Note_off_c, 0, 60, 64
1, 1468174, Control_c, 0, 64, 127
1, 1468195, Note_off_c, 0, 79, 59
1, 1468222, Note_off_c, 0, 57, 61
1, 1468238, Note_off_c, 0, 77, 63
1, 1468249, Note_on_c, 0, 72, 86
1, 1468262, Note_on_c, 0, 69, 73
1, 1468297, Note_off_c, 0, 72, 62
1, 1468319, Note_on_c, 0, 84, 90
1, 1468335, Note_off_c, 0, 69, 42
1, 1468335, Note_on_c, 0, 67, 81
1, 1468396, Note_on_c, 0, 81, 83
1, 1468398, Note_off_c, 0, 84, 65
1, 1468405, Note_on_c, 0, 83, 70
1, 1468407, Note_on_c, 0, 65, 81
1, 1468410, Note_off_c, 0, 67, 64
1, 1468421, Note_off_c, 0, 83, 65
1, 1468453, Note_on_c, 0, 60, 74
1, 1468466, Note_on_c, 0, 79, 94
1, 1468469, Note_off_c, 0, 65, 61
1, 1468493, Note_off_c, 0, 81, 60
1, 1468501, Note_off_c, 0, 60, 64
1, 1468516, Control_c, 0, 64, 95
1, 1468530, Control_c, 0, 64, 75
1, 1468536, Note_on_c, 0, 72, 82
1, 1468536, Note_on_c, 0, 77, 86
1, 1468544, Note_off_c, 0, 79, 57
1, 1468545, Control_c, 0, 64, 72
1, 1468560, Control_c, 0, 64, 86
1, 1468575, Control_c, 0, 64, 127
1, 1468589, Note_off_c, 0, 77, 64
1, 1468600, Note_off_c, 0, 72, 59
1, 1468603, Note_on_c, 0, 89, 94
1, 1468620, Note_on_c, 0, 69, 80
1, 1468672, Note_on_c, 0, 67, 75
1, 1468677, Note_off_c, 0, 69, 60
1, 1468692, Note_on_c, 0, 84, 93
1, 1468716, Note_off_c, 0, 89, 59
1, 1468726, Note_off_c, 0, 67, 60
1, 1468746, Note_on_c, 0, 65, 90
1, 1468761, Note_on_c, 0, 81, 88
1, 1468762, Note_off_c, 0, 84, 65
1, 1468821, Note_off_c, 0, 81, 64
1, 1468836, Note_on_c, 0, 93, 96
1, 1468845, Note_on_c, 0, 60, 82
1, 1468850, Note_off_c, 0, 65, 60
1, 1468884, Note_on_c, 0, 57, 82
1, 1468895, Note_off_c, 0, 60, 67
1, 1468909, Note_off_c, 0, 57, 68
1, 1468913, Note_on_c, 0, 89, 98
1, 1468923, Note_off_c, 0, 93, 66
1, 1468953, Note_off_c, 0, 89, 67
1, 1469020, Note_on_c, 0, 48, 88
1, 1469030, Note_on_c, 0, 57, 31
1, 1469045, Note_on_c, 0, 53, 71
1, 1469116, Control_c, 0, 64, 86
1, 1469123, Note_on_c, 0, 60, 100
1, 1469130, Control_c, 0, 64, 0
1, 1469136, Note_on_c, 0, 96, 93
1, 1469137, Note_on_c, 0, 84, 98
1, 1469144, Note_on_c, 0, 95, 93
1, 1469175, Control_c, 0, 64, 69
1, 1469189, Control_c, 0, 64, 101
1, 1469204, Control_c, 0, 64, 127
1, 1469291, Note_on_c, 0, 93, 93
1, 1469320, Note_off_c, 0, 84, 62
1, 1469322, Note_off_c, 0, 96, 61
1, 1469324, Note_off_c, 0, 95, 56
1, 1469375, Note_on_c, 0, 89, 95
1, 1469386, Note_off_c, 0, 93, 65
1, 1469447, Note_off_c, 0, 89, 63
1, 1469453, Note_on_c, 0, 84, 81
1, 1469484, Note_off_c, 0, 84, 63
1, 1469527, Note_on_c, 0, 81, 86
1, 1469600, Note_off_c, 0, 81, 65
1, 1469601, Note_on_c, 0, 77, 83
1, 1469666, Note_off_c, 0, 77, 65
1, 1469668, Note_on_c, 0, 72, 72
1, 1469702, Note_off_c, 0, 72, 67
1, 1469726, Note_on_c, 0, 77, 90
1, 1469771, Note_off_c, 0, 77, 67
1, 1469784, Note_on_c, 0, 81, 77
1, 1469804, Note_off_c, 0, 81, 71
1, 1469834, Note_off_c, 0, 48, 61
1, 1469834, Note_off_c, 0, 60, 59
1, 1469851, Note_on_c, 0, 84, 83
1, 1469858, Note_off_c, 0, 53, 63
1, 1469858, Note_off_c, 0, 57, 62
1, 1469891, Note_off_c, 0, 84, 66
1, 1469893, Note_on_c, 0, 89, 92
1, 1469938, Note_on_c, 0, 93, 84
1, 1469960, Note_on_c, 0, 96, 96
1, 1469971, Note_off_c, 0, 89, 63
1, 1469985, Note_off_c, 0, 93, 66
1, 1470000, Note_off_c, 0, 96, 71
1, 1470146, Note_on_c, 0, 48, 77
1, 1470163, Note_on_c, 0, 52, 71
1, 1470189, Note_on_c, 0, 55, 67
1, 1470220, Control_c, 0, 64, 100
1, 1470230, Note_on_c, 0, 58, 78
1, 1470234, Control_c, 0, 64, 65
1, 1470249, Control_c, 0, 64, 0
1, 1470283, Note_on_c, 0, 88, 97
1, 1470285, Note_on_c, 0, 100, 97
1, 1470288, Note_on_c, 0, 60, 100
1, 1470346, Control_c, 0, 64, 84
1, 1470361, Control_c, 0, 64, 127
1, 1470449, Note_on_c, 0, 96, 98
1, 1470474, Note_off_c, 0, 100, 66
1, 1470488, Note_off_c, 0, 88, 60
1, 1470548, Note_on_c, 0, 94, 96
1, 1470582, Note_off_c, 0, 96, 63
1, 1470632, Note_on_c, 0, 88, 88
1, 1470639, Note_off_c, 0, 94, 65
1, 1470685, Note_off_c, 0, 88, 66
1, 1470729, Note_on_c, 0, 84, 81
1, 1470797, Note_on_c, 0, 82, 83
1, 1470812, Note_off_c, 0, 84, 52
1, 1470858, Note_on_c, 0, 76, 78
1, 1470860, Note_off_c, 0, 82, 62
1, 1470913, Note_on_c, 0, 82, 71
1, 1470916, Note_off_c, 0, 48, 62
1, 1470922, Note_off_c, 0, 76, 64
1, 1470926, Note_off_c, 0, 55, 63
1, 1470926, Note_off_c, 0, 60, 56
1, 1470928, Note_off_c, 0, 52, 60
1, 1470940, Note_off_c, 0, 58, 61
1, 1470964, Note_on_c, 0, 84, 79
1, 1470964, Note_off_c, 0, 82, 64
1, 1470984, Note_off_c, 0, 84, 72
1, 1471035, Note_on_c, 0, 88, 79
1, 1471098, Note_on_c, 0, 94, 83
1, 1471107, Note_off_c, 0, 88, 63
1, 1471140, Note_on_c, 0, 96, 82
1, 1471176, Note_on_c, 0, 100, 95
1, 1471192, Note_off_c, 0, 94, 65
1, 1471200, Note_off_c, 0, 96, 66
1, 1471216, Note_off_c, 0, 100, 68
1, 1471331, Control_c, 0, 64, 112
1, 1471346, Control_c, 0, 64, 74
1, 1471361, Control_c, 0, 64, 0
1, 1471423, Note_on_c, 0, 41, 76
1, 1471476, Note_on_c, 0, 48, 60
1, 1471502, Note_on_c, 0, 43, 16
1, 1471505, Note_off_c, 0, 41, 61
1, 1471525, Note_on_c, 0, 53, 75
1, 1471534, Note_off_c, 0, 43, 52
1, 1471554, Control_c, 0, 64, 63
1, 1471559, Note_on_c, 0, 57, 102
1, 1471563, Note_on_c, 0, 93, 94
1, 1471564, Note_on_c, 0, 89, 101
1, 1471564, Note_on_c, 0, 101, 101
1, 1471565, Note_off_c, 0, 48, 62
1, 1471569, Control_c, 0, 64, 106
1, 1471573, Note_on_c, 0, 96, 84
1, 1471575, Note_on_c, 0, 100, 74
1, 1471581, Note_off_c, 0, 53, 66
1, 1471581, Note_off_c, 0, 57, 69
1, 1471584, Control_c, 0, 64, 127
1, 1471590, Note_off_c, 0, 100, 66
1, 1471604, Note_off_c, 0, 89, 67
1, 1471609, Note_off_c, 0, 101, 67
1, 1471623, Note_off_c, 0, 93, 67
1, 1471626, Note_off_c, 0, 96, 67
1, 1471673, Control_c, 0, 64, 88
1, 1471688, Control_c, 0, 64, 67
1, 1471703, Control_c, 0, 64, 21
1, 1471718, Control_c, 0, 64, 44
1, 1471733, Control_c, 0, 64, 55
1, 1471748, Control_c, 0, 64, 60
1, 1471763, Control_c, 0, 64, 61
1, 1471793, Control_c, 0, 64, 61
1, 1471808, Control_c, 0, 64, 60
1, 1471829, Control_c, 0, 64, 59
1, 1471844, Control_c, 0, 64, 59
1, 1471859, Control_c, 0, 64, 56
1, 1471874, Control_c, 0, 64, 53
1, 1471888, Control_c, 0, 64, 51
1, 1471918, Control_c, 0, 64, 52
1, 1471948, Control_c, 0, 64, 51
1, 1471963, Control_c, 0, 64, 50
1, 1471993, Control_c, 0, 64, 52
1, 1472007, Control_c, 0, 64, 51
1, 1472022, Control_c, 0, 64, 27
1, 1472037, Control_c, 0, 64, 0
1, 1472111, Control_c, 0, 64, 33
1, 1472112, Note_on_c, 0, 67, 89
1, 1472115, Note_on_c, 0, 91, 101
1, 1472118, Note_on_c, 0, 87, 105
1, 1472119, Note_on_c, 0, 63, 76
1, 1472120, Note_on_c, 0, 79, 96
1, 1472121, Note_on_c, 0, 81, 97
1, 1472124, Note_on_c, 0, 53, 68
1, 1472126, Control_c, 0, 64, 102
1, 1472127, Note_on_c, 0, 57, 65
1, 1472141, Control_c, 0, 64, 127
1, 1472143, Note_on_c, 0, 55, 61
1, 1472166, Note_off_c, 0, 55, 57
1, 1472271, Note_off_c, 0, 81, 46
1, 1472273, Note_off_c, 0, 91, 60
1, 1472288, Note_off_c, 0, 79, 57
1, 1472295, Note_off_c, 0, 67, 62
1, 1472324, Note_off_c, 0, 53, 62
1, 1472329, Note_off_c, 0, 63, 60
1, 1472333, Note_off_c, 0, 87, 64
1, 1472347, Note_off_c, 0, 57, 61
1, 1472569, Note_on_c, 0, 87, 100
1, 1472570, Note_on_c, 0, 75, 97
1, 1472571, Note_on_c, 0, 63, 102
1, 1472571, Control_c, 0, 64, 117
1, 1472573, Note_on_c, 0, 84, 95
1, 1472589, Note_on_c, 0, 60, 78
1, 1472593, Control_c, 0, 64, 80
1, 1472596, Note_on_c, 0, 53, 75
1, 1472605, Note_on_c, 0, 85, 61
1, 1472608, Control_c, 0, 64, 47
1, 1472623, Control_c, 0, 64, 0
1, 1472624, Note_off_c, 0, 85, 63
1, 1472643, Note_off_c, 0, 53, 56
1, 1472644, Note_off_c, 0, 63, 62
1, 1472647, Note_off_c, 0, 75, 64
1, 1472651, Note_off_c, 0, 84, 63
1, 1472652, Control_c, 0, 64, 24
1, 1472666, Note_off_c, 0, 87, 67
1, 1472667, Control_c, 0, 64, 59
1, 1472682, Control_c, 0, 64, 64
1, 1472689, Note_off_c, 0, 60, 60
1, 1472697, Control_c, 0, 64, 65
1, 1472726, Control_c, 0, 64, 64
1, 1472756, Control_c, 0, 64, 64
1, 1472771, Control_c, 0, 64, 63
1, 1472786, Control_c, 0, 64, 63
1, 1472787, Note_on_c, 0, 86, 96
1, 1472789, Note_on_c, 0, 62, 91
1, 1472789, Note_on_c, 0, 82, 92
1, 1472791, Note_on_c, 0, 74, 99
1, 1472792, Note_on_c, 0, 58, 73
1, 1472798, Note_on_c, 0, 53, 79
1, 1472800, Control_c, 0, 64, 63
1, 1472818, Note_off_c, 0, 62, 63
1, 1472823, Note_off_c, 0, 74, 69
1, 1472827, Note_off_c, 0, 53, 70
1, 1472827, Note_off_c, 0, 86, 69
1, 1472830, Control_c, 0, 64, 64
1, 1472839, Note_off_c, 0, 82, 66
1, 1472844, Note_off_c, 0, 58, 65
1, 1472890, Control_c, 0, 64, 64
1, 1472919, Control_c, 0, 64, 65
1, 1472978, Control_c, 0, 64, 64
1, 1473007, Note_on_c, 0, 81, 97
1, 1473008, Note_on_c, 0, 72, 96
1, 1473008, Note_on_c, 0, 84, 99
1, 1473008, Control_c, 0, 64, 64
1, 1473014, Note_on_c, 0, 60, 89
1, 1473016, Note_on_c, 0, 53, 82
1, 1473016, Note_on_c, 0, 57, 80
1, 1473052, Control_c, 0, 64, 64
1, 1473067, Control_c, 0, 64, 65
1, 1473082, Control_c, 0, 64, 65
1, 1473092, Note_off_c, 0, 60, 61
1, 1473094, Note_off_c, 0, 72, 64
1, 1473099, Note_off_c, 0, 53, 62
1, 1473104, Note_off_c, 0, 57, 62
1, 1473107, Note_off_c, 0, 81, 62
1, 1473123, Note_off_c, 0, 84, 65
1, 1473185, Control_c, 0, 64, 66
1, 1473200, Control_c, 0, 64, 66
1, 1473230, Control_c, 0, 64, 67
1, 1473245, Control_c, 0, 64, 66
1, 1473307, Note_on_c, 0, 58, 76
1, 1473307, Note_on_c, 0, 62, 73
1, 1473307, Note_on_c, 0, 82, 97
1, 1473313, Note_on_c, 0, 53, 65
1, 1473316, Note_on_c, 0, 86, 79
1, 1473316, Note_on_c, 0, 74, 82
1, 1473327, Control_c, 0, 64, 67
1, 1473337, Note_off_c, 0, 58, 70
1, 1473341, Note_off_c, 0, 62, 66
1, 1473341, Note_off_c, 0, 86, 70
1, 1473343, Note_off_c, 0, 82, 64
1, 1473344, Note_off_c, 0, 53, 65
1, 1473344, Note_off_c, 0, 74, 72
1, 1473385, Note_on_c, 0, 87, 108
1, 1473386, Note_on_c, 0, 75, 100
1, 1473387, Control_c, 0, 64, 66
1, 1473393, Note_on_c, 0, 84, 92
1, 1473396, Note_on_c, 0, 60, 68
1, 1473397, Note_on_c, 0, 53, 91
1, 1473400, Note_on_c, 0, 62, 92
1, 1473401, Note_on_c, 0, 59, 68
1, 1473416, Control_c, 0, 64, 65
1, 1473431, Control_c, 0, 64, 66
1, 1473435, Note_on_c, 0, 85, 15
1, 1473436, Note_off_c, 0, 85, 127
1, 1473475, Control_c, 0, 64, 65
1, 1473486, Note_off_c, 0, 75, 59
1, 1473486, Note_off_c, 0, 62, 61
1, 1473490, Control_c, 0, 64, 58
1, 1473495, Note_off_c, 0, 59, 53
1, 1473501, Note_off_c, 0, 87, 67
1, 1473505, Control_c, 0, 64, 0
1, 1473518, Note_off_c, 0, 53, 58
1, 1473518, Note_off_c, 0, 60, 65
1, 1473533, Note_off_c, 0, 84, 57
1, 1473874, Control_c, 0, 64, 14
1, 1473888, Control_c, 0, 64, 17
1, 1473903, Control_c, 0, 64, 23
1, 1473918, Control_c, 0, 64, 28
1, 1473933, Control_c, 0, 64, 29
1, 1473948, Control_c, 0, 64, 30
1, 1473963, Control_c, 0, 64, 33
1, 1473977, Control_c, 0, 64, 34
1, 1474007, Control_c, 0, 64, 31
1, 1474022, Control_c, 0, 64, 14
1, 1474037, Control_c, 0, 64, 0
1, 1474051, Control_c, 0, 64, 46
1, 1474073, Control_c, 0, 64, 71
1, 1474081, Note_on_c, 0, 67, 89
1, 1474088, Note_on_c, 0, 63, 78
1, 1474088, Control_c, 0, 64, 104
1, 1474089, Note_on_c, 0, 79, 110
1, 1474091, Note_on_c, 0, 91, 103
1, 1474094, Note_on_c, 0, 53, 69
1, 1474095, Note_on_c, 0, 57, 70
1, 1474097, Note_on_c, 0, 89, 102
1, 1474099, Note_on_c, 0, 81, 95
1, 1474100, Note_on_c, 0, 86, 89
1, 1474104, Control_c, 0, 64, 127
1, 1474129, Note_on_c, 0, 55, 35
1, 1474133, Note_on_c, 0, 87, 38
1, 1474134, Note_off_c, 0, 87, 127
1, 1474168, Note_off_c, 0, 55, 33
1, 1474219, Note_off_c, 0, 81, 44
1, 1474242, Note_off_c, 0, 79, 57
1, 1474248, Note_off_c, 0, 67, 63
1, 1474254, Note_off_c, 0, 91, 63
1, 1474261, Note_off_c, 0, 89, 58
1, 1474266, Note_off_c, 0, 53, 57
1, 1474266, Note_off_c, 0, 86, 63
1, 1474270, Note_off_c, 0, 63, 61
1, 1474284, Note_off_c, 0, 57, 61
1, 1474473, Note_on_c, 0, 63, 95
1, 1474473, Note_on_c, 0, 84, 92
1, 1474473, Note_on_c, 0, 75, 102
1, 1474475, Control_c, 0, 64, 104
1, 1474476, Note_on_c, 0, 87, 100
1, 1474482, Note_on_c, 0, 60, 74
1, 1474484, Note_on_c, 0, 53, 79
1, 1474490, Control_c, 0, 64, 70
1, 1474505, Control_c, 0, 64, 0
1, 1474517, Note_off_c, 0, 63, 64
1, 1474540, Note_off_c, 0, 75, 61
1, 1474540, Note_off_c, 0, 84, 62
1, 1474545, Note_off_c, 0, 53, 55
1, 1474562, Note_off_c, 0, 87, 68
1, 1474564, Control_c, 0, 64, 50
1, 1474574, Note_off_c, 0, 60, 60
1, 1474579, Control_c, 0, 64, 60
1, 1474593, Control_c, 0, 64, 61
1, 1474623, Control_c, 0, 64, 60
1, 1474638, Control_c, 0, 64, 60
1, 1474653, Control_c, 0, 64, 59
1, 1474667, Control_c, 0, 64, 59
1, 1474675, Note_on_c, 0, 62, 88
1, 1474676, Note_on_c, 0, 86, 97
1, 1474677, Note_on_c, 0, 74, 94
1, 1474677, Note_on_c, 0, 82, 93
1, 1474681, Note_on_c, 0, 58, 80
1, 1474682, Control_c, 0, 64, 58
1, 1474683, Note_on_c, 0, 53, 77
1, 1474697, Control_c, 0, 64, 58
1, 1474702, Note_off_c, 0, 62, 66
1, 1474709, Note_off_c, 0, 74, 66
1, 1474712, Control_c, 0, 64, 57
1, 1474713, Note_off_c, 0, 53, 70
1, 1474716, Note_off_c, 0, 86, 69
1, 1474722, Note_off_c, 0, 82, 65
1, 1474727, Control_c, 0, 64, 58
1, 1474730, Note_off_c, 0, 58, 64
1, 1474741, Control_c, 0, 64, 59
1, 1474756, Control_c, 0, 64, 59
1, 1474771, Control_c, 0, 64, 60
1, 1474786, Control_c, 0, 64, 60
1, 1474838, Control_c, 0, 64, 60
1, 1474899, Note_on_c, 0, 60, 87
1, 1474900, Note_on_c, 0, 72, 101
1, 1474900, Note_on_c, 0, 81, 94
1, 1474900, Note_on_c, 0, 84, 100
1, 1474901, Note_on_c, 0, 53, 80
1, 1474905, Note_on_c, 0, 57, 73
1, 1474943, Control_c, 0, 64, 60
1, 1474958, Control_c, 0, 64, 61
1, 1474964, Note_off_c, 0, 60, 62
1, 1474971, Note_off_c, 0, 57, 59
1, 1474972, Control_c, 0, 64, 61
1, 1474982, Note_off_c, 0, 72, 56
1, 1474987, Control_c, 0, 64, 62
1, 1474989, Note_off_c, 0, 53, 62
1, 1474996, Note_off_c, 0, 81, 60
1, 1475002, Control_c, 0, 64, 62
1, 1475014, Note_off_c, 0, 84, 62
1, 1475017, Control_c, 0, 64, 63
1, 1475031, Control_c, 0, 64, 63
1, 1475061, Control_c, 0, 64, 64
1, 1475076, Control_c, 0, 64, 64
1, 1475105, Control_c, 0, 64, 65
1, 1475120, Control_c, 0, 64, 66
1, 1475135, Control_c, 0, 64, 68
1, 1475150, Control_c, 0, 64, 68
1, 1475158, Note_on_c, 0, 82, 93
1, 1475159, Note_on_c, 0, 58, 75
1, 1475159, Note_on_c, 0, 62, 74
1, 1475165, Control_c, 0, 64, 68
1, 1475169, Note_on_c, 0, 53, 59
1, 1475171, Note_on_c, 0, 86, 67
1, 1475173, Note_on_c, 0, 74, 64
1, 1475179, Control_c, 0, 64, 62
1, 1475182, Note_off_c, 0, 62, 67
1, 1475184, Note_off_c, 0, 58, 69
1, 1475188, Note_off_c, 0, 86, 67
1, 1475192, Note_off_c, 0, 74, 66
1, 1475193, Note_off_c, 0, 53, 62
1, 1475193, Note_off_c, 0, 82, 62
1, 1475194, Control_c, 0, 64, 0
1, 1475239, Note_on_c, 0, 87, 104
1, 1475240, Note_on_c, 0, 75, 98
1, 1475242, Note_on_c, 0, 84, 88
1, 1475248, Note_on_c, 0, 53, 84
1, 1475253, Note_on_c, 0, 60, 81
1, 1475255, Note_on_c, 0, 63, 89
1, 1475282, Poly_aftertouch_c, 0, 61, 127
1, 1475298, Control_c, 0, 64, 38
1, 1475313, Control_c, 0, 64, 43
1, 1475328, Control_c, 0, 64, 44
1, 1475343, Control_c, 0, 64, 47
1, 1475346, Note_off_c, 0, 75, 65
1, 1475358, Control_c, 0, 64, 49
1, 1475372, Control_c, 0, 64, 53
1, 1475377, Note_off_c, 0, 87, 58
1, 1475381, Note_off_c, 0, 84, 62
1, 1475384, Note_off_c, 0, 60, 63
1, 1475387, Control_c, 0, 64, 57
1, 1475388, Note_off_c, 0, 63, 63
1, 1475400, Poly_aftertouch_c, 0, 61, 0
1, 1475402, Note_off_c, 0, 53, 64
1, 1475402, Control_c, 0, 64, 55
1, 1475416, Control_c, 0, 64, 31
1, 1475431, Control_c, 0, 64, 0
1, 1475631, Control_c, 0, 64, 67
1, 1475632, Note_on_c, 0, 91, 110
1, 1475633, Note_on_c, 0, 67, 86
1, 1475634, Note_on_c, 0, 79, 92
1, 1475634, Note_on_c, 0, 87, 99
1, 1475636, Note_on_c, 0, 81, 100
1, 1475641, Note_on_c, 0, 63, 84
1, 1475643, Note_on_c, 0, 53, 52
1, 1475645, Note_on_c, 0, 57, 70
1, 1475646, Control_c, 0, 64, 108
1, 1475661, Control_c, 0, 64, 127
1, 1475671, Note_off_c, 0, 53, 58
1, 1475674, Note_off_c, 0, 67, 65
1, 1475675, Note_on_c, 0, 65, 27
1, 1475676, Note_off_c, 0, 65, 127
1, 1475707, Note_off_c, 0, 57, 53
1, 1475708, Note_off_c, 0, 63, 63
1, 1475712, Poly_aftertouch_c, 0, 65, 0
1, 1475732, Poly_aftertouch_c, 0, 55, 0
1, 1476014, Note_off_c, 0, 81, 39
1, 1476026, Note_off_c, 0, 79, 47
1, 1476035, Note_off_c, 0, 91, 46
1, 1476136, Note_off_c, 0, 87, 63
1, 1476179, Control_c, 0, 64, 90
1, 1476194, Control_c, 0, 64, 63
1, 1476209, Control_c, 0, 64, 0
1, 1476239, Control_c, 0, 64, 51
1, 1476253, Control_c, 0, 64, 65
1, 1476260, Note_on_c, 0, 51, 62
1, 1476268, Control_c, 0, 64, 74
1, 1476283, Control_c, 0, 64, 90
1, 1476291, Note_on_c, 0, 58, 77
1, 1476297, Note_off_c, 0, 51, 67
1, 1476298, Control_c, 0, 64, 127
1, 1476335, Note_on_c, 0, 63, 80
1, 1476366, Note_on_c, 0, 91, 97
1, 1476366, Note_on_c, 0, 82, 94
1, 1476367, Note_on_c, 0, 79, 94
1, 1476367, Note_on_c, 0, 87, 89
1, 1476371, Note_off_c, 0, 58, 67
1, 1476376, Note_on_c, 0, 67, 102
1, 1476395, Note_off_c, 0, 63, 65
1, 1476399, Note_off_c, 0, 67, 67
1, 1476581, Note_off_c, 0, 79, 50
1, 1476726, Note_off_c, 0, 82, 51
1, 1476834, Note_off_c, 0, 87, 51
1, 1476914, Control_c, 0, 64, 95
1, 1476929, Control_c, 0, 64, 72
1, 1476932, Note_off_c, 0, 91, 52
1, 1476943, Control_c, 0, 64, 28
1, 1476958, Control_c, 0, 64, 0
1, 1476973, Control_c, 0, 64, 38
1, 1476980, Note_on_c, 0, 50, 75
1, 1476988, Control_c, 0, 64, 63
1, 1477002, Control_c, 0, 64, 69
1, 1477017, Control_c, 0, 64, 77
1, 1477018, Note_on_c, 0, 55, 70
1, 1477032, Control_c, 0, 64, 91
1, 1477042, Note_on_c, 0, 58, 82
1, 1477046, Note_off_c, 0, 50, 66
1, 1477047, Control_c, 0, 64, 127
1, 1477102, Note_off_c, 0, 55, 62
1, 1477121, Note_on_c, 0, 67, 93
1, 1477125, Note_on_c, 0, 82, 96
1, 1477126, Note_on_c, 0, 65, 73
1, 1477126, Note_on_c, 0, 79, 98
1, 1477126, Note_on_c, 0, 89, 89
1, 1477127, Note_on_c, 0, 91, 100
1, 1477132, Note_off_c, 0, 58, 63
1, 1477141, Note_off_c, 0, 67, 69
1, 1477143, Note_off_c, 0, 65, 68
1, 1477358, Note_off_c, 0, 79, 49
1, 1477454, Note_off_c, 0, 91, 52
1, 1477513, Note_off_c, 0, 82, 55
1, 1477554, Note_off_c, 0, 89, 54
1, 1477604, Control_c, 0, 64, 89
1, 1477618, Control_c, 0, 64, 54
1, 1477630, Note_on_c, 0, 48, 71
1, 1477633, Control_c, 0, 64, 0
1, 1477651, Note_on_c, 0, 55, 53
1, 1477663, Control_c, 0, 64, 56
1, 1477678, Control_c, 0, 64, 70
1, 1477683, Note_off_c, 0, 48, 59
1, 1477692, Control_c, 0, 64, 88
1, 1477695, Note_on_c, 0, 58, 80
1, 1477707, Note_off_c, 0, 55, 60
1, 1477707, Control_c, 0, 64, 127
1, 1477743, Note_off_c, 0, 58, 63
1, 1477746, Note_on_c, 0, 64, 77
1, 1477796, Note_off_c, 0, 64, 62
1, 1477837, Note_on_c, 0, 82, 98
1, 1477839, Note_on_c, 0, 88, 92
1, 1477840, Note_on_c, 0, 67, 99
1, 1477840, Note_on_c, 0, 79, 104
1, 1477840, Note_on_c, 0, 91, 105
1, 1477864, Note_off_c, 0, 67, 67
1, 1478220, Control_c, 0, 64, 102
1, 1478235, Control_c, 0, 64, 66
1, 1478240, Note_on_c, 0, 48, 100
1, 1478242, Note_on_c, 0, 36, 92
1, 1478249, Control_c, 0, 64, 0
1, 1478279, Control_c, 0, 64, 54
1, 1478294, Control_c, 0, 64, 79
1, 1478309, Control_c, 0, 64, 127
1, 1478396, Note_off_c, 0, 36, 60
1, 1478428, Note_off_c, 0, 79, 55
1, 1478429, Note_off_c, 0, 48, 64
1, 1478439, Note_off_c, 0, 91, 57
1, 1478476, Note_off_c, 0, 88, 57
1, 1478606, Note_off_c, 0, 82, 29
1, 1478919, Note_on_c, 0, 68, 103
1, 1478924, Note_on_c, 0, 80, 97
1, 1478926, Note_on_c, 0, 82, 99
1, 1478926, Note_on_c, 0, 92, 103
1, 1478926, Note_on_c, 0, 58, 82
1, 1478928, Note_on_c, 0, 88, 86
1, 1478930, Note_on_c, 0, 60, 76
1, 1478935, Note_on_c, 0, 64, 86
1, 1478954, Note_off_c, 0, 68, 70
1, 1478971, Note_off_c, 0, 58, 58
1, 1478978, Note_off_c, 0, 60, 65
1, 1478979, Note_off_c, 0, 64, 62
1, 1479086, Note_off_c, 0, 80, 57
1, 1479119, Note_off_c, 0, 92, 66
1, 1479206, Note_off_c, 0, 88, 52
1, 1479248, Note_off_c, 0, 82, 59
1, 1479523, Control_c, 0, 64, 86
1, 1479538, Control_c, 0, 64, 0
1, 1479540, Note_on_c, 0, 41, 106
1, 1479545, Note_on_c, 0, 29, 91
1, 1479575, Note_off_c, 0, 29, 67
1, 1479583, Control_c, 0, 64, 62
1, 1479597, Control_c, 0, 64, 82
1, 1479600, Note_off_c, 0, 41, 66
1, 1479612, Control_c, 0, 64, 127
1, 1480019, Note_on_c, 0, 53, 63
1, 1480067, Note_on_c, 0, 57, 59
1, 1480110, Note_on_c, 0, 63, 78
1, 1480111, Note_on_c, 0, 60, 63
1, 1480113, Note_off_c, 0, 53, 65
1, 1480156, Note_off_c, 0, 57, 62
1, 1480175, Note_on_c, 0, 84, 92
1, 1480177, Note_on_c, 0, 81, 98
1, 1480178, Note_on_c, 0, 87, 90
1, 1480178, Note_on_c, 0, 93, 101
1, 1480179, Note_on_c, 0, 89, 90
1, 1480181, Note_on_c, 0, 69, 100
1, 1480191, Note_off_c, 0, 60, 62
1, 1480207, Note_off_c, 0, 69, 70
1, 1480210, Note_off_c, 0, 63, 63
1, 1480243, Note_off_c, 0, 81, 68
1, 1480268, Note_off_c, 0, 93, 64
1, 1480294, Note_off_c, 0, 84, 60
1, 1480299, Note_off_c, 0, 89, 56
1, 1480309, Note_off_c, 0, 87, 66
1, 1480525, Control_c, 0, 64, 80
1, 1480540, Control_c, 0, 64, 0
1, 1480543, Note_on_c, 0, 34, 92
1, 1480599, Control_c, 0, 64, 67
1, 1480614, Control_c, 0, 64, 95
1, 1480629, Control_c, 0, 64, 127
1, 1480641, Note_on_c, 0, 41, 54
1, 1480645, Note_on_c, 0, 46, 94
1, 1480655, Note_off_c, 0, 34, 63
1, 1480670, Note_off_c, 0, 46, 67
1, 1480671, Note_off_c, 0, 41, 55
1, 1480699, Poly_aftertouch_c, 0, 40, 0
1, 1480990, Note_on_c, 0, 70, 88
1, 1480990, Note_on_c, 0, 74, 103
1, 1480990, Note_on_c, 0, 94, 94
1, 1480992, Note_on_c, 0, 65, 69
1, 1480992, Note_on_c, 0, 62, 82
1, 1480995, Note_on_c, 0, 89, 107
1, 1480996, Note_on_c, 0, 101, 111
1, 1481002, Note_on_c, 0, 98, 92
1, 1481022, Note_off_c, 0, 74, 72
1, 1481029, Note_off_c, 0, 62, 59
1, 1481042, Note_off_c, 0, 70, 66
1, 1481046, Note_off_c, 0, 65, 65
1, 1481207, Note_off_c, 0, 89, 56
1, 1481218, Note_off_c, 0, 101, 57
1, 1481263, Note_off_c, 0, 98, 61
1, 1481287, Note_off_c, 0, 94, 57
1, 1481552, Note_on_c, 0, 38, 80
1, 1481612, Note_on_c, 0, 45, 69
1, 1481645, Note_off_c, 0, 38, 61
1, 1481666, Control_c, 0, 64, 79
1, 1481681, Control_c, 0, 64, 0
1, 1481684, Note_on_c, 0, 98, 103
1, 1481684, Note_on_c, 0, 86, 101
1, 1481688, Note_on_c, 0, 89, 94
1, 1481688, Note_on_c, 0, 93, 89
1, 1481698, Note_on_c, 0, 53, 106
1, 1481711, Control_c, 0, 64, 53
1, 1481720, Note_on_c, 0, 90, 47
1, 1481721, Note_off_c, 0, 90, 127
1, 1481724, Note_on_c, 0, 46, 36
1, 1481726, Control_c, 0, 64, 78
1, 1481740, Control_c, 0, 64, 127
1, 1481761, Note_off_c, 0, 46, 33
1, 1481797, Note_off_c, 0, 86, 65
1, 1481802, Note_off_c, 0, 98, 64
1, 1481827, Note_off_c, 0, 45, 0
1, 1481827, Note_on_c, 0, 45, 14
1, 1481854, Note_off_c, 0, 89, 60
1, 1481854, Note_off_c, 0, 93, 62
1, 1481877, Note_off_c, 0, 53, 57
1, 1481903, Note_off_c, 0, 45, 60
1, 1482250, Note_on_c, 0, 82, 102
1, 1482253, Note_on_c, 0, 94, 100
1, 1482253, Note_on_c, 0, 86, 90
1, 1482253, Note_on_c, 0, 91, 88
1, 1482256, Note_on_c, 0, 55, 101
1, 1482257, Note_on_c, 0, 46, 80
1, 1482260, Control_c, 0, 64, 91
1, 1482262, Note_on_c, 0, 43, 91
1, 1482275, Control_c, 0, 64, 0
1, 1482312, Control_c, 0, 64, 54
1, 1482327, Control_c, 0, 64, 81
1, 1482341, Control_c, 0, 64, 127
1, 1482366, Note_off_c, 0, 43, 63
1, 1482390, Note_off_c, 0, 55, 64
1, 1482433, Note_off_c, 0, 46, 61
1, 1482445, Note_off_c, 0, 82, 60
1, 1482453, Note_off_c, 0, 86, 55
1, 1482455, Note_off_c, 0, 94, 52
1, 1482455, Note_off_c, 0, 91, 58
1, 1482727, Note_on_c, 0, 45, 82
1, 1482770, Note_on_c, 0, 52, 73
1, 1482786, Control_c, 0, 64, 100
1, 1482792, Note_off_c, 0, 45, 64
1, 1482801, Control_c, 0, 64, 77
1, 1482807, Note_on_c, 0, 50, 49
1, 1482815, Control_c, 0, 64, 68
1, 1482826, Note_on_c, 0, 93, 104
1, 1482827, Note_on_c, 0, 84, 81
1, 1482829, Note_on_c, 0, 88, 77
1, 1482830, Note_on_c, 0, 81, 97
1, 1482830, Control_c, 0, 64, 73
1, 1482837, Note_on_c, 0, 60, 101
1, 1482840, Note_off_c, 0, 50, 57
1, 1482845, Control_c, 0, 64, 86
1, 1482860, Control_c, 0, 64, 116
1, 1482866, Note_on_c, 0, 85, 32
1, 1482867, Note_off_c, 0, 85, 127
1, 1482869, Note_off_c, 0, 60, 62
1, 1482875, Note_off_c, 0, 52, 60
1, 1482875, Control_c, 0, 64, 127
1, 1483076, Control_c, 0, 64, 74
1, 1483091, Control_c, 0, 64, 0
1, 1483108, Note_on_c, 0, 34, 94
1, 1483135, Control_c, 0, 64, 75
1, 1483138, Note_on_c, 0, 33, 57
1, 1483140, Note_off_c, 0, 84, 63
1, 1483141, Note_off_c, 0, 81, 60
1, 1483150, Control_c, 0, 64, 127
1, 1483168, Note_off_c, 0, 33, 54
1, 1483177, Note_on_c, 0, 40, 67
1, 1483191, Note_off_c, 0, 93, 57
1, 1483196, Note_off_c, 0, 88, 57
1, 1483197, Note_on_c, 0, 46, 91
1, 1483210, Note_off_c, 0, 34, 61
1, 1483211, Note_off_c, 0, 40, 64
1, 1483233, Note_off_c, 0, 46, 64
1, 1483568, Note_on_c, 0, 79, 101
1, 1483568, Note_on_c, 0, 86, 90
1, 1483568, Note_on_c, 0, 91, 105
1, 1483571, Note_on_c, 0, 89, 92
1, 1483572, Note_on_c, 0, 65, 95
1, 1483574, Note_on_c, 0, 55, 88
1, 1483577, Note_on_c, 0, 62, 85
1, 1483580, Note_on_c, 0, 58, 87
1, 1483624, Control_c, 0, 64, 123
1, 1483638, Control_c, 0, 64, 97
1, 1483653, Control_c, 0, 64, 95
1, 1483668, Control_c, 0, 64, 102
1, 1483684, Control_c, 0, 64, 127
1, 1483999, Note_off_c, 0, 65, 58
1, 1484020, Note_off_c, 0, 55, 55
1, 1484041, Note_off_c, 0, 62, 54
1, 1484094, Note_off_c, 0, 58, 60
1, 1484095, Note_off_c, 0, 79, 52
1, 1484238, Note_off_c, 0, 86, 52
1, 1484328, Note_off_c, 0, 89, 55
1, 1484449, Note_on_c, 0, 36, 87
1, 1484461, Control_c, 0, 64, 95
1, 1484477, Control_c, 0, 64, 54
1, 1484492, Control_c, 0, 64, 0
1, 1484514, Note_off_c, 0, 91, 46
1, 1484531, Note_off_c, 0, 36, 62
1, 1484536, Control_c, 0, 64, 66
1, 1484538, Note_on_c, 0, 48, 92
1, 1484558, Control_c, 0, 64, 85
1, 1484573, Control_c, 0, 64, 127
1, 1484586, Note_off_c, 0, 48, 64
1, 1484710, Note_on_c, 0, 91, 101
1, 1484711, Note_on_c, 0, 82, 99
1, 1484711, Note_on_c, 0, 88, 94
1, 1484712, Note_on_c, 0, 79, 97
1, 1484715, Note_on_c, 0, 55, 77
1, 1484715, Note_on_c, 0, 64, 88
1, 1484725, Note_on_c, 0, 60, 69
1, 1484728, Note_on_c, 0, 58, 61
1, 1484732, Note_off_c, 0, 64, 73
1, 1484734, Note_off_c, 0, 55, 68
1, 1484748, Note_off_c, 0, 60, 66
1, 1484751, Note_off_c, 0, 58, 64
1, 1484759, Note_on_c, 0, 59, 42
1, 1484785, Note_off_c, 0, 59, 57
1, 1484914, Note_off_c, 0, 91, 63
1, 1484940, Note_off_c, 0, 79, 57
1, 1484997, Note_off_c, 0, 88, 59
1, 1485034, Note_off_c, 0, 82, 60
1, 1485281, Note_on_c, 0, 93, 98
1, 1485284, Note_on_c, 0, 81, 93
1, 1485463, Note_on_c, 0, 41, 79
1, 1485485, Control_c, 0, 64, 83
1, 1485500, Control_c, 0, 64, 42
1, 1485514, Control_c, 0, 64, 0
1, 1485544, Control_c, 0, 64, 64
1, 1485548, Note_on_c, 0, 48, 79
1, 1485559, Control_c, 0, 64, 83
1, 1485568, Note_off_c, 0, 41, 59
1, 1485574, Control_c, 0, 64, 127
1, 1485577, Note_off_c, 0, 81, 63
1, 1485580, Note_off_c, 0, 93, 66
1, 1485610, Note_off_c, 0, 48, 64
1, 1485624, Note_on_c, 0, 53, 80
1, 1485658, Note_off_c, 0, 53, 66
1, 1485722, Note_on_c, 0, 57, 79
1, 1485800, Note_on_c, 0, 60, 81
1, 1485973, Note_on_c, 0, 89, 102
1, 1485976, Note_on_c, 0, 81, 92
1, 1485977, Note_on_c, 0, 77, 98
1, 1485979, Note_on_c, 0, 84, 82
1, 1485981, Note_on_c, 0, 65, 95
1, 1486006, Note_off_c, 0, 57, 63
1, 1486008, Note_off_c, 0, 65, 70
1, 1486012, Note_off_c, 0, 60, 65
1, 1486290, Note_off_c, 0, 77, 50
1, 1486403, Note_off_c, 0, 81, 48
1, 1486454, Note_off_c, 0, 84, 51
1, 1486922, Control_c, 0, 64, 95
1, 1486936, Control_c, 0, 64, 71
1, 1486938, Note_on_c, 0, 46, 77
1, 1486951, Control_c, 0, 64, 0
1, 1486981, Control_c, 0, 64, 55
1, 1486996, Control_c, 0, 64, 70
1, 1487001, Note_on_c, 0, 53, 76
1, 1487008, Note_off_c, 0, 89, 54
1, 1487010, Control_c, 0, 64, 87
1, 1487025, Control_c, 0, 64, 127
1, 1487044, Note_off_c, 0, 46, 61
1, 1487078, Note_on_c, 0, 58, 86
1, 1487078, Note_off_c, 0, 53, 66
1, 1487103, Note_off_c, 0, 58, 66
1, 1487175, Note_on_c, 0, 62, 98
1, 1487175, Note_on_c, 0, 82, 103
1, 1487177, Note_on_c, 0, 86, 83
1, 1487177, Note_on_c, 0, 77, 99
1, 1487179, Note_on_c, 0, 89, 101
1, 1487201, Note_off_c, 0, 62, 69
1, 1487758, Note_off_c, 0, 77, 49
1, 1487987, Note_off_c, 0, 82, 38
1, 1488175, Control_c, 0, 64, 110
1, 1488190, Control_c, 0, 64, 79
1, 1488205, Control_c, 0, 64, 55
1, 1488219, Control_c, 0, 64, 0
1, 1488239, Note_on_c, 0, 41, 79
1, 1488249, Control_c, 0, 64, 63
1, 1488256, Note_off_c, 0, 86, 37
1, 1488264, Control_c, 0, 64, 74
1, 1488278, Control_c, 0, 64, 102
1, 1488301, Control_c, 0, 64, 127
1, 1488308, Note_off_c, 0, 89, 55
1, 1488325, Note_on_c, 0, 48, 84
1, 1488340, Note_off_c, 0, 41, 62
1, 1488397, Note_off_c, 0, 48, 63
1, 1488398, Note_on_c, 0, 53, 88
1, 1488426, Note_off_c, 0, 53, 69
1, 1488499, Note_on_c, 0, 81, 94
1, 1488499, Note_on_c, 0, 89, 106
1, 1488501, Note_on_c, 0, 84, 84
1, 1488501, Note_on_c, 0, 77, 98
1, 1488502, Note_on_c, 0, 60, 102
1, 1488526, Note_off_c, 0, 60, 67
1, 1488686, Note_off_c, 0, 89, 57
1, 1488736, Note_off_c, 0, 77, 44
1, 1488759, Note_off_c, 0, 84, 51
1, 1488810, Note_off_c, 0, 81, 56
1, 1489777, Control_c, 0, 64, 92
1, 1489786, Note_on_c, 0, 34, 80
1, 1489798, Control_c, 0, 64, 60
1, 1489813, Control_c, 0, 64, 0
1, 1489843, Control_c, 0, 64, 52
1, 1489858, Control_c, 0, 64, 72
1, 1489872, Control_c, 0, 64, 101
1, 1489877, Note_on_c, 0, 41, 80
1, 1489887, Control_c, 0, 64, 127
1, 1489944, Note_off_c, 0, 34, 59
1, 1489961, Note_on_c, 0, 46, 92
1, 1489978, Note_off_c, 0, 41, 62
1, 1489998, Note_off_c, 0, 46, 67
1, 1490122, Note_on_c, 0, 70, 94
1, 1490124, Note_on_c, 0, 65, 99
1, 1490124, Note_on_c, 0, 77, 95
1, 1490127, Note_on_c, 0, 74, 91
1, 1490128, Note_on_c, 0, 50, 101
1, 1490145, Note_off_c, 0, 50, 77
1, 1491820, Note_on_c, 0, 29, 98
1, 1491845, Control_c, 0, 64, 79
1, 1491860, Control_c, 0, 64, 0
1, 1491919, Control_c, 0, 64, 26
1, 1491934, Control_c, 0, 64, 68
1, 1491949, Control_c, 0, 64, 88
1, 1491964, Control_c, 0, 64, 127
1, 1492093, Note_on_c, 0, 36, 95
1, 1492126, Note_off_c, 0, 29, 62
1, 1492254, Note_on_c, 0, 41, 101
1, 1492284, Note_off_c, 0, 70, 58
1, 1492284, Note_off_c, 0, 36, 58
1, 1492289, Note_off_c, 0, 74, 62
1, 1492295, Note_off_c, 0, 41, 66
1, 1492316, Note_off_c, 0, 77, 57
1, 1492351, Note_off_c, 0, 65, 48
1, 1492681, Note_on_c, 0, 77, 96
1, 1492683, Note_on_c, 0, 48, 97
1, 1492685, Note_on_c, 0, 65, 100
1, 1492686, Note_on_c, 0, 69, 87
1, 1492689, Note_on_c, 0, 72, 88
1, 1496630, Note_off_c, 0, 48, 58
1, 1496663, Note_off_c, 0, 77, 55
1, 1496691, Note_off_c, 0, 65, 54
1, 1496722, Note_off_c, 0, 72, 53
1, 1496731, Note_off_c, 0, 69, 53
1, 1496924, Control_c, 0, 64, 102
1, 1496939, Control_c, 0, 64, 87
1, 1496954, Control_c, 0, 64, 75
1, 1496969, Control_c, 0, 64, 63
1, 1496983, Control_c, 0, 64, 0
1, 1497058, End_track
0, 0, End_of_file
