0, 0, Header, 0, 1, 384
1, 0, Start_track
1, 0, Title_t, "Chaconne in G--Yang             "
1, 0, Text_t, "2009 International Piano-e-Competition finals"
1, 0, Text_t, "captured June-July 2009"
1, 0, Text_t, "http://www.piano-e-competition.com/"
1, 0, Text_t, "standard-resolution version"
1, 0, Text_t, "File processed for distribution by software from Zenph Studios, Inc., http://www.zenph.com"
1, 0, Instrument_name_t, "Yamaha Disklavier Pro Mark IV concert grand piano, model DCFIIISM4PRO"
1, 0, Sequencer_specific, 39, 67, 113, 0, 1, 0, 1, 0, 67, 104, 97, 99, 111, 110, 110, 101, 32, 105, 110, 32, 71, 32, 32, 32, 67, 108, 97, 114, 97, 32, 89, 97, 110, 103, 32, 32, 32, 32, 32, 32
1, 0, Sequencer_specific, 6, 67, 113, 0, 0, 0, 69
1, 0, System_exclusive, 21, 67, 113, 126, 21, 0, 2, 2, 2, 3, 12, 8, 4, 10, 4, 10, 9, 14, 12, 5, 2, 247
1, 0, Sequencer_specific, 5, 67, 123, 12, 2, 1
1, 0, Tempo, 512820
1, 0, Time_signature, 4, 2, 24, 8
1, 0, System_exclusive, 5, 126, 127, 9, 1, 247
1, 1, System_exclusive, 8, 67, 16, 76, 0, 0, 126, 0, 247
1, 2, System_exclusive, 8, 67, 16, 76, 8, 9, 7, 1, 247
1, 3, Control_c, 0, 0, 0
1, 3, Control_c, 1, 0, 0
1, 3, Control_c, 2, 0, 0
1, 3, Control_c, 3, 0, 0
1, 3, Control_c, 4, 0, 0
1, 3, Control_c, 5, 0, 0
1, 3, Control_c, 6, 0, 0
1, 3, Control_c, 7, 0, 0
1, 3, Control_c, 8, 0, 0
1, 3, Control_c, 9, 0, 127
1, 3, Control_c, 10, 0, 0
1, 3, Control_c, 11, 0, 0
1, 3, Control_c, 12, 0, 0
1, 3, Control_c, 13, 0, 0
1, 3, Control_c, 14, 0, 0
1, 3, Control_c, 15, 0, 0
1, 4, Control_c, 0, 32, 0
1, 4, Control_c, 1, 32, 0
1, 4, Control_c, 2, 32, 0
1, 4, Control_c, 3, 32, 0
1, 4, Control_c, 4, 32, 0
1, 4, Control_c, 5, 32, 0
1, 4, Control_c, 6, 32, 0
1, 4, Control_c, 7, 32, 0
1, 4, Control_c, 8, 32, 0
1, 4, Control_c, 9, 32, 0
1, 4, Control_c, 10, 32, 0
1, 4, Control_c, 11, 32, 0
1, 4, Control_c, 12, 32, 0
1, 4, Control_c, 13, 32, 0
1, 4, Control_c, 14, 32, 0
1, 4, Control_c, 15, 32, 0
1, 5, Program_c, 0, 0
1, 5, Program_c, 1, 0
1, 5, Program_c, 2, 0
1, 5, Program_c, 3, 0
1, 5, Program_c, 4, 0
1, 5, Program_c, 5, 0
1, 5, Program_c, 6, 0
1, 5, Program_c, 7, 0
1, 5, Program_c, 8, 0
1, 5, Program_c, 9, 0
1, 5, Program_c, 10, 0
1, 5, Program_c, 11, 0
1, 5, Program_c, 12, 0
1, 5, Program_c, 13, 0
1, 5, Program_c, 14, 0
1, 5, Program_c, 15, 0
1, 6, Control_c, 0, 7, 100
1, 6, Control_c, 1, 7, 100
1, 6, Control_c, 2, 7, 100
1, 6, Control_c, 3, 7, 100
1, 6, Control_c, 4, 7, 100
1, 6, Control_c, 5, 7, 100
1, 6, Control_c, 6, 7, 100
1, 6, Control_c, 7, 7, 100
1, 6, Control_c, 8, 7, 100
1, 6, Control_c, 9, 7, 100
1, 6, Control_c, 10, 7, 100
1, 6, Control_c, 11, 7, 100
1, 6, Control_c, 12, 7, 100
1, 6, Control_c, 13, 7, 100
1, 6, Control_c, 14, 7, 100
1, 6, Control_c, 15, 7, 100
1, 117, Control_c, 0, 64, 15
1, 229, Control_c, 0, 64, 31
1, 341, Control_c, 0, 64, 46
1, 452, Control_c, 0, 64, 63
1, 564, Control_c, 0, 64, 77
1, 676, Control_c, 0, 64, 94
1, 787, Control_c, 0, 64, 108
1, 899, Control_c, 0, 64, 127
1, 1129, Note_on_c, 0, 55, 66
1, 1182, Note_on_c, 0, 59, 75
1, 1210, Note_off_c, 0, 55, 64
1, 1228, Note_on_c, 0, 67, 76
1, 1241, Note_on_c, 0, 62, 80
1, 1254, Note_off_c, 0, 59, 54
1, 1265, Note_on_c, 0, 71, 81
1, 1282, Note_off_c, 0, 62, 65
1, 1303, Note_on_c, 0, 74, 86
1, 1327, Note_off_c, 0, 67, 57
1, 1376, Note_off_c, 0, 71, 58
1, 1508, Note_off_c, 0, 74, 58
1, 1938, Note_on_c, 0, 43, 65
1, 1955, Note_on_c, 0, 47, 61
1, 1995, Note_on_c, 0, 50, 69
1, 2033, Control_c, 0, 64, 122
1, 2048, Control_c, 0, 64, 81
1, 2055, Note_on_c, 0, 76, 88
1, 2055, Note_on_c, 0, 71, 81
1, 2062, Note_on_c, 0, 55, 77
1, 2063, Control_c, 0, 64, 27
1, 2077, Control_c, 0, 64, 0
1, 2092, Control_c, 0, 64, 61
1, 2107, Control_c, 0, 64, 69
1, 2122, Control_c, 0, 64, 81
1, 2137, Control_c, 0, 64, 108
1, 2151, Control_c, 0, 64, 127
1, 2266, Note_off_c, 0, 76, 63
1, 2288, Note_on_c, 0, 74, 75
1, 2329, Note_off_c, 0, 74, 54
1, 2365, Note_on_c, 0, 76, 84
1, 2415, Note_off_c, 0, 76, 61
1, 2423, Note_on_c, 0, 74, 85
1, 2475, Note_on_c, 0, 76, 69
1, 2503, Note_off_c, 0, 76, 63
1, 2559, Control_c, 0, 64, 116
1, 2568, Note_on_c, 0, 76, 85
1, 2568, Note_off_c, 0, 74, 66
1, 2574, Control_c, 0, 64, 83
1, 2589, Control_c, 0, 64, 62
1, 2603, Control_c, 0, 64, 0
1, 2625, Note_off_c, 0, 76, 65
1, 2631, Note_on_c, 0, 74, 82
1, 2768, Control_c, 0, 64, 23
1, 2782, Control_c, 0, 64, 35
1, 2797, Control_c, 0, 64, 41
1, 2812, Control_c, 0, 64, 45
1, 2827, Control_c, 0, 64, 48
1, 2842, Control_c, 0, 64, 49
1, 2856, Control_c, 0, 64, 49
1, 2886, Control_c, 0, 64, 50
1, 2901, Control_c, 0, 64, 52
1, 2916, Control_c, 0, 64, 54
1, 2931, Control_c, 0, 64, 56
1, 2945, Control_c, 0, 64, 57
1, 2976, Note_off_c, 0, 71, 62
1, 3001, Note_off_c, 0, 74, 64
1, 3019, Control_c, 0, 64, 56
1, 3108, Control_c, 0, 64, 57
1, 3152, Control_c, 0, 64, 57
1, 3182, Control_c, 0, 64, 58
1, 3197, Control_c, 0, 64, 59
1, 3208, Note_on_c, 0, 74, 76
1, 3212, Control_c, 0, 64, 60
1, 3226, Control_c, 0, 64, 60
1, 3241, Control_c, 0, 64, 61
1, 3256, Control_c, 0, 64, 63
1, 3279, Control_c, 0, 64, 64
1, 3294, Control_c, 0, 64, 66
1, 3307, Note_off_c, 0, 74, 57
1, 3308, Control_c, 0, 64, 68
1, 3321, Note_on_c, 0, 76, 69
1, 3323, Control_c, 0, 64, 70
1, 3338, Control_c, 0, 64, 71
1, 3352, Control_c, 0, 64, 72
1, 3363, Note_off_c, 0, 76, 62
1, 3367, Control_c, 0, 64, 73
1, 3372, Note_on_c, 0, 78, 72
1, 3382, Control_c, 0, 64, 73
1, 3402, Note_off_c, 0, 78, 59
1, 3412, Control_c, 0, 64, 70
1, 3421, Note_on_c, 0, 76, 73
1, 3426, Control_c, 0, 64, 59
1, 3441, Control_c, 0, 64, 0
1, 3462, Note_on_c, 0, 78, 82
1, 3465, Note_off_c, 0, 76, 65
1, 3505, Note_on_c, 0, 76, 84
1, 3515, Note_off_c, 0, 78, 64
1, 3572, Note_off_c, 0, 43, 64
1, 3575, Control_c, 0, 64, 11
1, 3590, Control_c, 0, 64, 70
1, 3599, Note_off_c, 0, 55, 63
1, 3602, Note_off_c, 0, 47, 63
1, 3605, Control_c, 0, 64, 76
1, 3620, Control_c, 0, 64, 88
1, 3626, Note_off_c, 0, 50, 65
1, 3635, Control_c, 0, 64, 114
1, 3638, Note_off_c, 0, 76, 59
1, 3649, Control_c, 0, 64, 127
1, 3657, Note_on_c, 0, 74, 83
1, 3729, Note_on_c, 0, 76, 86
1, 3729, Note_off_c, 0, 74, 66
1, 3784, Note_on_c, 0, 78, 87
1, 3786, Note_off_c, 0, 76, 65
1, 3804, Note_off_c, 0, 78, 68
1, 3859, Note_on_c, 0, 54, 76
1, 3904, Note_on_c, 0, 57, 64
1, 3950, Note_on_c, 0, 66, 77
1, 3961, Note_on_c, 0, 62, 69
1, 3974, Note_on_c, 0, 69, 77
1, 3990, Control_c, 0, 64, 95
1, 4005, Control_c, 0, 64, 69
1, 4007, Note_on_c, 0, 74, 89
1, 4028, Control_c, 0, 64, 0
1, 4117, Control_c, 0, 64, 62
1, 4131, Control_c, 0, 64, 74
1, 4146, Control_c, 0, 64, 90
1, 4161, Control_c, 0, 64, 127
1, 4177, Note_off_c, 0, 62, 60
1, 4209, Note_off_c, 0, 57, 57
1, 4222, Note_off_c, 0, 66, 62
1, 4248, Note_off_c, 0, 54, 61
1, 4312, Note_off_c, 0, 74, 59
1, 4343, Note_off_c, 0, 69, 57
1, 4735, Note_on_c, 0, 42, 61
1, 4749, Note_on_c, 0, 45, 61
1, 4787, Note_on_c, 0, 50, 64
1, 4822, Note_on_c, 0, 62, 70
1, 4844, Note_on_c, 0, 66, 72
1, 4867, Note_on_c, 0, 69, 73
1, 4874, Note_on_c, 0, 54, 74
1, 4881, Note_on_c, 0, 74, 91
1, 4895, Control_c, 0, 64, 116
1, 4910, Control_c, 0, 64, 76
1, 4924, Control_c, 0, 64, 0
1, 5013, Control_c, 0, 64, 56
1, 5028, Control_c, 0, 64, 67
1, 5044, Control_c, 0, 64, 77
1, 5059, Control_c, 0, 64, 91
1, 5074, Control_c, 0, 64, 117
1, 5089, Control_c, 0, 64, 127
1, 5578, Note_off_c, 0, 74, 46
1, 5581, Note_off_c, 0, 69, 48
1, 5585, Note_off_c, 0, 62, 59
1, 5636, Note_off_c, 0, 66, 59
1, 5822, Control_c, 0, 64, 100
1, 5837, Control_c, 0, 64, 79
1, 5852, Control_c, 0, 64, 62
1, 5867, Control_c, 0, 64, 0
1, 5927, Note_on_c, 0, 69, 73
1, 5927, Control_c, 0, 64, 29
1, 5942, Control_c, 0, 64, 52
1, 5957, Control_c, 0, 64, 59
1, 5971, Control_c, 0, 64, 62
1, 5986, Control_c, 0, 64, 63
1, 6001, Control_c, 0, 64, 65
1, 6016, Control_c, 0, 64, 67
1, 6031, Control_c, 0, 64, 69
1, 6040, Note_on_c, 0, 71, 75
1, 6045, Control_c, 0, 64, 70
1, 6052, Note_off_c, 0, 69, 61
1, 6059, Control_c, 0, 64, 72
1, 6074, Control_c, 0, 64, 74
1, 6089, Control_c, 0, 64, 75
1, 6120, Note_on_c, 0, 73, 81
1, 6128, Note_off_c, 0, 71, 62
1, 6133, Control_c, 0, 64, 73
1, 6148, Control_c, 0, 64, 64
1, 6162, Control_c, 0, 64, 0
1, 6177, Note_off_c, 0, 73, 63
1, 6195, Note_on_c, 0, 74, 81
1, 6257, Note_on_c, 0, 76, 87
1, 6270, Note_off_c, 0, 74, 65
1, 6323, Note_on_c, 0, 78, 85
1, 6334, Note_off_c, 0, 76, 63
1, 6356, Note_off_c, 0, 42, 63
1, 6371, Note_off_c, 0, 78, 63
1, 6377, Control_c, 0, 64, 78
1, 6380, Note_off_c, 0, 45, 61
1, 6386, Note_off_c, 0, 54, 63
1, 6391, Note_on_c, 0, 79, 85
1, 6392, Control_c, 0, 64, 97
1, 6398, Note_off_c, 0, 50, 64
1, 6407, Control_c, 0, 64, 127
1, 6451, Note_on_c, 0, 81, 85
1, 6455, Note_off_c, 0, 79, 64
1, 6501, Note_on_c, 0, 83, 88
1, 6515, Note_off_c, 0, 81, 65
1, 6562, Note_on_c, 0, 79, 88
1, 6564, Note_off_c, 0, 83, 67
1, 6602, Note_off_c, 0, 79, 66
1, 6615, Note_on_c, 0, 52, 83
1, 6669, Note_on_c, 0, 55, 69
1, 6720, Note_on_c, 0, 59, 74
1, 6727, Note_on_c, 0, 71, 82
1, 6733, Note_on_c, 0, 74, 89
1, 6735, Control_c, 0, 64, 103
1, 6749, Control_c, 0, 64, 70
1, 6749, Note_on_c, 0, 79, 88
1, 6764, Control_c, 0, 64, 0
1, 6838, Control_c, 0, 64, 64
1, 6853, Control_c, 0, 64, 77
1, 6867, Control_c, 0, 64, 99
1, 6882, Control_c, 0, 64, 127
1, 6926, Note_off_c, 0, 59, 60
1, 6940, Note_off_c, 0, 74, 65
1, 6958, Note_off_c, 0, 52, 59
1, 6965, Note_off_c, 0, 55, 60
1, 7044, Note_off_c, 0, 71, 60
1, 7132, Note_on_c, 0, 73, 64
1, 7159, Note_off_c, 0, 73, 66
1, 7165, Note_off_c, 0, 79, 63
1, 7167, Note_on_c, 0, 74, 78
1, 7212, Note_on_c, 0, 73, 95
1, 7232, Note_off_c, 0, 74, 66
1, 7504, Note_on_c, 0, 71, 79
1, 7507, Note_off_c, 0, 73, 60
1, 7548, Note_on_c, 0, 45, 74
1, 7584, Note_on_c, 0, 52, 65
1, 7610, Note_on_c, 0, 73, 89
1, 7639, Note_on_c, 0, 79, 84
1, 7641, Note_on_c, 0, 76, 80
1, 7650, Note_on_c, 0, 57, 79
1, 7653, Note_off_c, 0, 71, 65
1, 7660, Control_c, 0, 64, 90
1, 7675, Control_c, 0, 64, 62
1, 7689, Control_c, 0, 64, 0
1, 7904, Control_c, 0, 64, 47
1, 7919, Control_c, 0, 64, 63
1, 7934, Control_c, 0, 64, 69
1, 7948, Control_c, 0, 64, 75
1, 7963, Control_c, 0, 64, 86
1, 7978, Control_c, 0, 64, 98
1, 7993, Control_c, 0, 64, 116
1, 8008, Control_c, 0, 64, 127
1, 8171, Note_off_c, 0, 79, 55
1, 8186, Note_off_c, 0, 73, 49
1, 8205, Note_off_c, 0, 76, 54
1, 8498, Control_c, 0, 64, 118
1, 8520, Control_c, 0, 64, 88
1, 8535, Control_c, 0, 64, 67
1, 8550, Control_c, 0, 64, 0
1, 8624, Control_c, 0, 64, 51
1, 8638, Control_c, 0, 64, 60
1, 8646, Note_on_c, 0, 79, 77
1, 8653, Control_c, 0, 64, 62
1, 8668, Control_c, 0, 64, 64
1, 8683, Control_c, 0, 64, 64
1, 8697, Control_c, 0, 64, 66
1, 8712, Control_c, 0, 64, 67
1, 8727, Control_c, 0, 64, 67
1, 8742, Control_c, 0, 64, 68
1, 8746, Note_off_c, 0, 79, 60
1, 8756, Note_on_c, 0, 81, 70
1, 8757, Control_c, 0, 64, 68
1, 8786, Control_c, 0, 64, 68
1, 8791, Note_off_c, 0, 81, 59
1, 8801, Control_c, 0, 64, 65
1, 8813, Note_on_c, 0, 83, 76
1, 8816, Control_c, 0, 64, 47
1, 8831, Control_c, 0, 64, 0
1, 8839, Note_off_c, 0, 83, 63
1, 8861, Note_on_c, 0, 81, 80
1, 8904, Note_on_c, 0, 83, 84
1, 8908, Note_off_c, 0, 81, 64
1, 8950, Note_on_c, 0, 81, 79
1, 8964, Control_c, 0, 64, 61
1, 8966, Note_off_c, 0, 83, 65
1, 8979, Control_c, 0, 64, 70
1, 8981, Note_off_c, 0, 45, 59
1, 8994, Control_c, 0, 64, 78
1, 9009, Control_c, 0, 64, 94
1, 9024, Control_c, 0, 64, 127
1, 9033, Note_off_c, 0, 57, 60
1, 9063, Note_off_c, 0, 52, 62
1, 9081, Note_off_c, 0, 81, 62
1, 9098, Note_on_c, 0, 79, 82
1, 9164, Note_off_c, 0, 79, 62
1, 9166, Note_on_c, 0, 81, 88
1, 9212, Note_on_c, 0, 83, 85
1, 9230, Note_off_c, 0, 81, 63
1, 9278, Note_off_c, 0, 83, 67
1, 9284, Note_on_c, 0, 79, 77
1, 9310, Note_off_c, 0, 79, 63
1, 9325, Note_on_c, 0, 50, 68
1, 9351, Note_on_c, 0, 54, 58
1, 9373, Note_on_c, 0, 57, 47
1, 9431, Note_on_c, 0, 79, 80
1, 9432, Control_c, 0, 64, 108
1, 9439, Note_on_c, 0, 69, 66
1, 9447, Note_on_c, 0, 62, 53
1, 9447, Control_c, 0, 64, 79
1, 9461, Control_c, 0, 64, 36
1, 9476, Control_c, 0, 64, 0
1, 9550, Control_c, 0, 64, 60
1, 9565, Control_c, 0, 64, 69
1, 9580, Control_c, 0, 64, 79
1, 9594, Control_c, 0, 64, 91
1, 9609, Control_c, 0, 64, 107
1, 9624, Control_c, 0, 64, 127
1, 9639, Note_off_c, 0, 79, 62
1, 9749, Note_on_c, 0, 79, 67
1, 9788, Note_off_c, 0, 79, 59
1, 9796, Note_on_c, 0, 78, 66
1, 9825, Note_off_c, 0, 78, 63
1, 9844, Note_on_c, 0, 79, 75
1, 9862, Control_c, 0, 64, 87
1, 9877, Control_c, 0, 64, 64
1, 9881, Note_on_c, 0, 78, 75
1, 9891, Control_c, 0, 64, 0
1, 9921, Note_off_c, 0, 79, 59
1, 10017, Note_off_c, 0, 62, 60
1, 10032, Control_c, 0, 64, 33
1, 10047, Control_c, 0, 64, 66
1, 10062, Control_c, 0, 64, 73
1, 10074, Note_off_c, 0, 69, 63
1, 10076, Note_on_c, 0, 76, 84
1, 10077, Control_c, 0, 64, 84
1, 10091, Control_c, 0, 64, 101
1, 10106, Control_c, 0, 64, 127
1, 10113, Note_off_c, 0, 78, 63
1, 10119, Note_off_c, 0, 76, 65
1, 10288, Note_on_c, 0, 74, 72
1, 10291, Note_on_c, 0, 66, 62
1, 10301, Note_on_c, 0, 62, 55
1, 10314, Control_c, 0, 64, 97
1, 10329, Control_c, 0, 64, 79
1, 10343, Control_c, 0, 64, 66
1, 10353, Note_off_c, 0, 50, 39
1, 10358, Control_c, 0, 64, 31
1, 10373, Control_c, 0, 64, 0
1, 10446, Note_off_c, 0, 54, 51
1, 10461, Note_off_c, 0, 57, 55
1, 10640, Control_c, 0, 67, 8
1, 10655, Control_c, 0, 67, 11
1, 10670, Control_c, 0, 67, 16
1, 10685, Control_c, 0, 67, 22
1, 10700, Control_c, 0, 67, 30
1, 10711, Note_on_c, 0, 60, 66
1, 10714, Control_c, 0, 67, 38
1, 10729, Control_c, 0, 67, 44
1, 10744, Control_c, 0, 67, 50
1, 10766, Control_c, 0, 67, 57
1, 10781, Control_c, 0, 67, 63
1, 10796, Control_c, 0, 67, 68
1, 10811, Control_c, 0, 67, 71
1, 10826, Control_c, 0, 67, 73
1, 10833, Note_off_c, 0, 62, 61
1, 10885, Control_c, 0, 67, 70
1, 10900, Control_c, 0, 64, 55
1, 10900, Control_c, 0, 67, 69
1, 10914, Control_c, 0, 64, 66
1, 10914, Control_c, 0, 67, 67
1, 10929, Control_c, 0, 64, 72
1, 10929, Control_c, 0, 67, 65
1, 10944, Control_c, 0, 64, 79
1, 10944, Control_c, 0, 67, 63
1, 10959, Control_c, 0, 64, 87
1, 10959, Control_c, 0, 67, 61
1, 10973, Control_c, 0, 64, 94
1, 10973, Control_c, 0, 67, 58
1, 10988, Control_c, 0, 64, 99
1, 10988, Control_c, 0, 67, 56
1, 11003, Control_c, 0, 64, 103
1, 11003, Control_c, 0, 67, 52
1, 11018, Control_c, 0, 64, 106
1, 11018, Control_c, 0, 67, 47
1, 11033, Control_c, 0, 64, 108
1, 11033, Control_c, 0, 67, 44
1, 11048, Control_c, 0, 67, 41
1, 11050, Note_off_c, 0, 60, 64
1, 11056, Note_off_c, 0, 66, 54
1, 11063, Control_c, 0, 67, 38
1, 11078, Control_c, 0, 67, 38
1, 11090, Note_on_c, 0, 62, 47
1, 11107, Control_c, 0, 64, 107
1, 11109, Note_off_c, 0, 74, 55
1, 11119, Note_off_c, 0, 62, 58
1, 11122, Control_c, 0, 64, 106
1, 11137, Control_c, 0, 64, 103
1, 11148, Note_on_c, 0, 60, 59
1, 11152, Control_c, 0, 64, 99
1, 11166, Control_c, 0, 64, 94
1, 11166, Control_c, 0, 67, 38
1, 11179, Note_off_c, 0, 60, 66
1, 11181, Control_c, 0, 64, 88
1, 11181, Control_c, 0, 67, 39
1, 11196, Control_c, 0, 64, 79
1, 11196, Control_c, 0, 67, 39
1, 11197, Note_on_c, 0, 62, 67
1, 11211, Control_c, 0, 64, 73
1, 11211, Control_c, 0, 67, 40
1, 11226, Control_c, 0, 64, 66
1, 11226, Control_c, 0, 67, 40
1, 11240, Control_c, 0, 64, 61
1, 11240, Control_c, 0, 67, 41
1, 11243, Note_off_c, 0, 62, 60
1, 11244, Note_on_c, 0, 60, 67
1, 11255, Control_c, 0, 64, 55
1, 11255, Control_c, 0, 67, 42
1, 11270, Control_c, 0, 64, 48
1, 11270, Control_c, 0, 67, 42
1, 11284, Control_c, 0, 64, 38
1, 11284, Control_c, 0, 67, 43
1, 11298, Note_off_c, 0, 60, 63
1, 11299, Control_c, 0, 64, 30
1, 11299, Control_c, 0, 67, 44
1, 11309, Note_on_c, 0, 62, 64
1, 11314, Control_c, 0, 64, 17
1, 11314, Control_c, 0, 67, 44
1, 11329, Control_c, 0, 64, 0
1, 11329, Control_c, 0, 67, 45
1, 11344, Control_c, 0, 67, 46
1, 11353, Note_on_c, 0, 60, 65
1, 11358, Control_c, 0, 67, 48
1, 11373, Note_off_c, 0, 62, 59
1, 11373, Control_c, 0, 67, 49
1, 11388, Control_c, 0, 67, 50
1, 11403, Control_c, 0, 67, 52
1, 11418, Control_c, 0, 67, 56
1, 11434, Control_c, 0, 67, 60
1, 11449, Control_c, 0, 67, 65
1, 11463, Control_c, 0, 67, 73
1, 11478, Control_c, 0, 67, 79
1, 11493, Control_c, 0, 67, 86
1, 11515, Control_c, 0, 67, 93
1, 11530, Control_c, 0, 67, 102
1, 11545, Control_c, 0, 67, 110
1, 11560, Control_c, 0, 67, 118
1, 11575, Control_c, 0, 67, 127
1, 11817, Note_off_c, 0, 60, 61
1, 11820, Note_on_c, 0, 59, 53
1, 11927, Note_on_c, 0, 60, 65
1, 11930, Note_off_c, 0, 59, 57
1, 11960, Control_c, 0, 64, 62
1, 11975, Control_c, 0, 64, 68
1, 11989, Control_c, 0, 64, 75
1, 12004, Control_c, 0, 64, 84
1, 12014, Note_off_c, 0, 60, 64
1, 12019, Control_c, 0, 64, 94
1, 12021, Note_on_c, 0, 62, 67
1, 12034, Control_c, 0, 64, 104
1, 12049, Control_c, 0, 64, 127
1, 12077, Note_off_c, 0, 62, 58
1, 12202, Note_on_c, 0, 62, 51
1, 12202, Note_on_c, 0, 67, 61
1, 12212, Note_on_c, 0, 59, 46
1, 12279, Control_c, 0, 64, 105
1, 12294, Control_c, 0, 64, 92
1, 12309, Control_c, 0, 64, 83
1, 12324, Control_c, 0, 64, 75
1, 12324, Control_c, 0, 67, 125
1, 12338, Control_c, 0, 64, 67
1, 12338, Control_c, 0, 67, 122
1, 12353, Control_c, 0, 64, 62
1, 12353, Control_c, 0, 67, 119
1, 12368, Control_c, 0, 64, 58
1, 12368, Control_c, 0, 67, 115
1, 12383, Control_c, 0, 64, 56
1, 12383, Control_c, 0, 67, 113
1, 12398, Control_c, 0, 64, 55
1, 12398, Control_c, 0, 67, 110
1, 12412, Control_c, 0, 64, 53
1, 12412, Control_c, 0, 67, 106
1, 12427, Control_c, 0, 64, 50
1, 12427, Control_c, 0, 67, 103
1, 12442, Control_c, 0, 64, 47
1, 12442, Control_c, 0, 67, 98
1, 12457, Control_c, 0, 64, 45
1, 12457, Control_c, 0, 67, 93
1, 12472, Control_c, 0, 64, 45
1, 12472, Control_c, 0, 67, 88
1, 12486, Control_c, 0, 64, 44
1, 12486, Control_c, 0, 67, 81
1, 12501, Control_c, 0, 67, 74
1, 12516, Control_c, 0, 67, 66
1, 12530, Control_c, 0, 67, 60
1, 12545, Control_c, 0, 67, 53
1, 12560, Control_c, 0, 67, 47
1, 12575, Control_c, 0, 67, 43
1, 12590, Control_c, 0, 67, 38
1, 12604, Control_c, 0, 67, 34
1, 12619, Control_c, 0, 64, 45
1, 12619, Control_c, 0, 67, 30
1, 12624, Note_on_c, 0, 74, 69
1, 12634, Control_c, 0, 67, 26
1, 12649, Control_c, 0, 64, 46
1, 12649, Control_c, 0, 67, 22
1, 12664, Control_c, 0, 64, 46
1, 12664, Control_c, 0, 67, 16
1, 12679, Control_c, 0, 64, 47
1, 12679, Control_c, 0, 67, 11
1, 12693, Control_c, 0, 67, 0
1, 12723, Control_c, 0, 64, 47
1, 12738, Control_c, 0, 64, 48
1, 12753, Control_c, 0, 64, 49
1, 12768, Control_c, 0, 64, 50
1, 12783, Control_c, 0, 64, 51
1, 12798, Control_c, 0, 64, 51
1, 12812, Control_c, 0, 64, 52
1, 12886, Control_c, 0, 64, 52
1, 12901, Control_c, 0, 64, 53
1, 12916, Control_c, 0, 64, 53
1, 13020, Note_on_c, 0, 79, 69
1, 13072, Control_c, 0, 64, 53
1, 13087, Control_c, 0, 64, 52
1, 13102, Control_c, 0, 64, 50
1, 13117, Control_c, 0, 64, 48
1, 13132, Control_c, 0, 64, 45
1, 13147, Control_c, 0, 64, 36
1, 13161, Control_c, 0, 64, 0
1, 13186, Note_off_c, 0, 74, 65
1, 13383, Control_c, 0, 64, 51
1, 13391, Note_on_c, 0, 78, 77
1, 13398, Control_c, 0, 64, 64
1, 13413, Control_c, 0, 64, 70
1, 13427, Control_c, 0, 64, 75
1, 13442, Control_c, 0, 64, 83
1, 13447, Note_off_c, 0, 62, 52
1, 13457, Control_c, 0, 64, 94
1, 13472, Control_c, 0, 64, 117
1, 13486, Control_c, 0, 64, 127
1, 13488, Note_off_c, 0, 67, 49
1, 13493, Note_off_c, 0, 59, 35
1, 13564, Note_off_c, 0, 79, 52
1, 13608, Note_off_c, 0, 78, 61
1, 13779, Note_on_c, 0, 79, 65
1, 13791, Note_on_c, 0, 62, 40
1, 13792, Note_on_c, 0, 59, 39
1, 13796, Note_on_c, 0, 67, 42
1, 13809, Note_off_c, 0, 79, 63
1, 13842, Note_on_c, 0, 78, 63
1, 13851, Control_c, 0, 64, 97
1, 13865, Control_c, 0, 64, 79
1, 13875, Note_off_c, 0, 78, 63
1, 13880, Control_c, 0, 64, 64
1, 13889, Note_on_c, 0, 79, 70
1, 13895, Control_c, 0, 64, 0
1, 13948, Note_on_c, 0, 78, 76
1, 13948, Note_off_c, 0, 79, 63
1, 14073, Control_c, 0, 64, 53
1, 14088, Control_c, 0, 64, 64
1, 14102, Control_c, 0, 64, 69
1, 14117, Control_c, 0, 64, 74
1, 14132, Control_c, 0, 64, 82
1, 14147, Control_c, 0, 64, 90
1, 14162, Control_c, 0, 64, 100
1, 14176, Control_c, 0, 64, 113
1, 14191, Control_c, 0, 64, 127
1, 14260, Note_off_c, 0, 67, 60
1, 14281, Note_off_c, 0, 62, 60
1, 14472, Note_off_c, 0, 78, 63
1, 14490, Note_on_c, 0, 76, 72
1, 14548, Note_off_c, 0, 76, 61
1, 14620, Note_on_c, 0, 78, 60
1, 14631, Note_off_c, 0, 59, 58
1, 14642, Note_on_c, 0, 67, 39
1, 14646, Note_on_c, 0, 60, 49
1, 14651, Note_off_c, 0, 78, 66
1, 14674, Control_c, 0, 64, 113
1, 14676, Note_on_c, 0, 76, 68
1, 14688, Control_c, 0, 64, 92
1, 14703, Control_c, 0, 64, 72
1, 14706, Note_off_c, 0, 76, 62
1, 14718, Control_c, 0, 64, 0
1, 14726, Note_on_c, 0, 78, 72
1, 14774, Note_on_c, 0, 76, 70
1, 14774, Note_off_c, 0, 78, 61
1, 14940, Control_c, 0, 64, 59
1, 14955, Control_c, 0, 64, 65
1, 14970, Control_c, 0, 64, 70
1, 14985, Control_c, 0, 64, 76
1, 14999, Control_c, 0, 64, 83
1, 15014, Control_c, 0, 64, 90
1, 15029, Control_c, 0, 64, 99
1, 15034, Note_off_c, 0, 67, 58
1, 15045, Control_c, 0, 64, 110
1, 15060, Control_c, 0, 64, 127
1, 15248, Note_off_c, 0, 76, 62
1, 15270, Note_on_c, 0, 74, 74
1, 15319, Note_off_c, 0, 74, 61
1, 15399, Note_on_c, 0, 76, 56
1, 15418, Note_on_c, 0, 59, 53
1, 15424, Note_off_c, 0, 76, 62
1, 15427, Note_on_c, 0, 67, 44
1, 15432, Note_off_c, 0, 60, 55
1, 15449, Note_on_c, 0, 74, 66
1, 15468, Control_c, 0, 64, 92
1, 15476, Note_off_c, 0, 74, 67
1, 15482, Control_c, 0, 64, 75
1, 15497, Control_c, 0, 64, 57
1, 15502, Note_on_c, 0, 76, 65
1, 15512, Control_c, 0, 64, 0
1, 15548, Note_on_c, 0, 74, 71
1, 15549, Note_off_c, 0, 76, 60
1, 15749, Control_c, 0, 64, 52
1, 15764, Control_c, 0, 64, 63
1, 15779, Control_c, 0, 64, 68
1, 15794, Control_c, 0, 64, 73
1, 15808, Control_c, 0, 64, 79
1, 15823, Control_c, 0, 64, 86
1, 15838, Control_c, 0, 64, 93
1, 15853, Control_c, 0, 64, 102
1, 15868, Control_c, 0, 64, 113
1, 15880, Note_off_c, 0, 67, 58
1, 15882, Control_c, 0, 64, 127
1, 16030, Note_off_c, 0, 74, 65
1, 16054, Note_on_c, 0, 72, 61
1, 16086, Note_off_c, 0, 72, 60
1, 16198, Note_on_c, 0, 74, 60
1, 16216, Control_c, 0, 67, 8
1, 16217, Note_on_c, 0, 57, 30
1, 16225, Note_off_c, 0, 74, 66
1, 16230, Note_on_c, 0, 66, 38
1, 16232, Control_c, 0, 67, 10
1, 16247, Control_c, 0, 64, 102
1, 16247, Control_c, 0, 67, 13
1, 16261, Control_c, 0, 64, 84
1, 16261, Control_c, 0, 67, 18
1, 16262, Note_on_c, 0, 72, 49
1, 16275, Note_off_c, 0, 59, 52
1, 16276, Control_c, 0, 64, 69
1, 16276, Control_c, 0, 67, 24
1, 16282, Note_off_c, 0, 72, 59
1, 16291, Control_c, 0, 64, 0
1, 16291, Control_c, 0, 67, 30
1, 16294, Note_on_c, 0, 74, 69
1, 16305, Control_c, 0, 67, 37
1, 16320, Control_c, 0, 67, 44
1, 16335, Control_c, 0, 67, 51
1, 16338, Note_off_c, 0, 74, 62
1, 16350, Control_c, 0, 67, 61
1, 16351, Note_on_c, 0, 72, 69
1, 16365, Control_c, 0, 67, 69
1, 16379, Control_c, 0, 67, 77
1, 16394, Control_c, 0, 67, 85
1, 16409, Control_c, 0, 67, 92
1, 16424, Control_c, 0, 67, 98
1, 16439, Control_c, 0, 67, 103
1, 16453, Control_c, 0, 67, 107
1, 16468, Control_c, 0, 67, 109
1, 16483, Control_c, 0, 67, 110
1, 16542, Control_c, 0, 64, 40
1, 16557, Control_c, 0, 64, 62
1, 16557, Control_c, 0, 67, 110
1, 16572, Control_c, 0, 64, 67
1, 16572, Control_c, 0, 67, 109
1, 16586, Control_c, 0, 64, 72
1, 16586, Control_c, 0, 67, 108
1, 16591, Note_off_c, 0, 66, 58
1, 16601, Control_c, 0, 64, 79
1, 16601, Control_c, 0, 67, 107
1, 16616, Control_c, 0, 64, 87
1, 16616, Control_c, 0, 67, 107
1, 16631, Control_c, 0, 64, 96
1, 16631, Control_c, 0, 67, 106
1, 16645, Control_c, 0, 64, 107
1, 16645, Control_c, 0, 67, 106
1, 16648, Note_off_c, 0, 57, 54
1, 16660, Control_c, 0, 64, 127
1, 16660, Control_c, 0, 67, 105
1, 16675, Control_c, 0, 67, 105
1, 16690, Control_c, 0, 67, 104
1, 16734, Control_c, 0, 67, 104
1, 16786, Control_c, 0, 67, 103
1, 16801, Control_c, 0, 67, 103
1, 16848, Note_on_c, 0, 71, 68
1, 16861, Note_off_c, 0, 72, 63
1, 16887, Note_off_c, 0, 71, 61
1, 16949, Control_c, 0, 67, 102
1, 17051, Note_on_c, 0, 55, 40
1, 17054, Control_c, 0, 67, 102
1, 17060, Note_on_c, 0, 71, 59
1, 17066, Note_on_c, 0, 67, 48
1, 17083, Control_c, 0, 67, 101
1, 17098, Control_c, 0, 67, 101
1, 17113, Control_c, 0, 67, 100
1, 17127, Control_c, 0, 64, 111
1, 17127, Control_c, 0, 67, 99
1, 17142, Control_c, 0, 64, 100
1, 17142, Control_c, 0, 67, 98
1, 17157, Control_c, 0, 64, 92
1, 17157, Control_c, 0, 67, 97
1, 17172, Control_c, 0, 64, 85
1, 17172, Control_c, 0, 67, 94
1, 17187, Control_c, 0, 64, 80
1, 17187, Control_c, 0, 67, 91
1, 17201, Control_c, 0, 64, 75
1, 17201, Control_c, 0, 67, 86
1, 17216, Control_c, 0, 64, 69
1, 17216, Control_c, 0, 67, 82
1, 17231, Control_c, 0, 64, 65
1, 17231, Control_c, 0, 67, 78
1, 17246, Control_c, 0, 64, 62
1, 17246, Control_c, 0, 67, 74
1, 17261, Control_c, 0, 64, 59
1, 17261, Control_c, 0, 67, 70
1, 17275, Control_c, 0, 64, 52
1, 17275, Control_c, 0, 67, 68
1, 17290, Control_c, 0, 64, 28
1, 17290, Control_c, 0, 67, 65
1, 17305, Control_c, 0, 64, 0
1, 17305, Control_c, 0, 67, 62
1, 17320, Control_c, 0, 67, 60
1, 17335, Control_c, 0, 67, 58
1, 17350, Control_c, 0, 67, 56
1, 17364, Control_c, 0, 67, 54
1, 17379, Control_c, 0, 67, 53
1, 17394, Control_c, 0, 67, 52
1, 17409, Control_c, 0, 67, 50
1, 17424, Control_c, 0, 67, 48
1, 17439, Control_c, 0, 67, 46
1, 17453, Control_c, 0, 67, 44
1, 17459, Note_on_c, 0, 48, 39
1, 17464, Note_on_c, 0, 76, 68
1, 17468, Control_c, 0, 67, 42
1, 17483, Control_c, 0, 67, 40
1, 17505, Control_c, 0, 67, 38
1, 17509, Note_off_c, 0, 71, 64
1, 17520, Control_c, 0, 67, 36
1, 17534, Control_c, 0, 67, 33
1, 17549, Control_c, 0, 67, 30
1, 17564, Control_c, 0, 64, 59
1, 17564, Control_c, 0, 67, 28
1, 17579, Control_c, 0, 64, 68
1, 17579, Control_c, 0, 67, 25
1, 17594, Control_c, 0, 64, 75
1, 17594, Control_c, 0, 67, 22
1, 17609, Control_c, 0, 64, 85
1, 17609, Control_c, 0, 67, 19
1, 17624, Control_c, 0, 64, 97
1, 17624, Control_c, 0, 67, 17
1, 17639, Control_c, 0, 64, 110
1, 17639, Control_c, 0, 67, 14
1, 17653, Control_c, 0, 64, 127
1, 17653, Control_c, 0, 67, 12
1, 17663, Note_on_c, 0, 69, 75
1, 17668, Control_c, 0, 67, 11
1, 17683, Control_c, 0, 67, 10
1, 17689, Note_off_c, 0, 76, 62
1, 17698, Control_c, 0, 67, 9
1, 17704, Note_off_c, 0, 67, 61
1, 17713, Control_c, 0, 67, 9
1, 17716, Note_off_c, 0, 69, 63
1, 17881, Note_on_c, 0, 71, 58
1, 17889, Note_on_c, 0, 67, 55
1, 17891, Control_c, 0, 64, 111
1, 17895, Note_on_c, 0, 50, 47
1, 17902, Note_on_c, 0, 62, 45
1, 17906, Control_c, 0, 64, 93
1, 17921, Control_c, 0, 64, 78
1, 17929, Note_off_c, 0, 55, 41
1, 17936, Control_c, 0, 64, 62
1, 17950, Control_c, 0, 64, 0
1, 17963, Note_off_c, 0, 48, 42
1, 18232, Control_c, 0, 64, 50
1, 18255, Control_c, 0, 64, 62
1, 18270, Control_c, 0, 64, 65
1, 18284, Control_c, 0, 64, 69
1, 18299, Control_c, 0, 64, 72
1, 18314, Control_c, 0, 64, 77
1, 18329, Control_c, 0, 64, 81
1, 18344, Control_c, 0, 64, 86
1, 18358, Control_c, 0, 64, 91
1, 18373, Control_c, 0, 64, 97
1, 18388, Control_c, 0, 64, 105
1, 18403, Control_c, 0, 64, 117
1, 18418, Control_c, 0, 64, 127
1, 18441, Note_off_c, 0, 62, 49
1, 18447, Control_c, 0, 67, 8
1, 18465, Note_off_c, 0, 71, 51
1, 18479, Note_off_c, 0, 67, 54
1, 18825, Note_on_c, 0, 71, 49
1, 18837, Note_on_c, 0, 60, 42
1, 18842, Note_on_c, 0, 66, 46
1, 18843, Note_on_c, 0, 38, 33
1, 18878, Control_c, 0, 64, 109
1, 18892, Control_c, 0, 64, 94
1, 18907, Control_c, 0, 64, 85
1, 18907, Control_c, 0, 67, 9
1, 18922, Control_c, 0, 64, 77
1, 18937, Control_c, 0, 64, 69
1, 18937, Control_c, 0, 67, 9
1, 18952, Control_c, 0, 64, 63
1, 18952, Control_c, 0, 67, 10
1, 18958, Note_on_c, 0, 69, 55
1, 18962, Note_off_c, 0, 50, 34
1, 18966, Control_c, 0, 64, 56
1, 18981, Control_c, 0, 64, 51
1, 18981, Control_c, 0, 67, 11
1, 19000, Note_off_c, 0, 71, 40
1, 19004, Control_c, 0, 64, 48
1, 19004, Control_c, 0, 67, 11
1, 19019, Control_c, 0, 64, 44
1, 19019, Control_c, 0, 67, 12
1, 19034, Control_c, 0, 64, 36
1, 19034, Control_c, 0, 67, 12
1, 19048, Control_c, 0, 64, 27
1, 19048, Control_c, 0, 67, 13
1, 19063, Control_c, 0, 64, 0
1, 19063, Control_c, 0, 67, 13
1, 19078, Control_c, 0, 67, 14
1, 19093, Control_c, 0, 67, 15
1, 19107, Control_c, 0, 67, 15
1, 19122, Control_c, 0, 67, 16
1, 19137, Control_c, 0, 67, 17
1, 19152, Control_c, 0, 67, 19
1, 19167, Control_c, 0, 67, 20
1, 19181, Control_c, 0, 67, 21
1, 19196, Control_c, 0, 67, 22
1, 19211, Control_c, 0, 67, 25
1, 19225, Control_c, 0, 67, 31
1, 19240, Control_c, 0, 67, 39
1, 19255, Control_c, 0, 67, 48
1, 19270, Control_c, 0, 67, 57
1, 19285, Control_c, 0, 67, 65
1, 19299, Control_c, 0, 67, 71
1, 19314, Control_c, 0, 67, 75
1, 19329, Control_c, 0, 67, 78
1, 19336, Note_on_c, 0, 67, 61
1, 19344, Control_c, 0, 67, 79
1, 19359, Control_c, 0, 67, 80
1, 19389, Control_c, 0, 67, 79
1, 19403, Control_c, 0, 67, 78
1, 19413, Note_off_c, 0, 69, 50
1, 19419, Control_c, 0, 67, 77
1, 19434, Control_c, 0, 64, 57
1, 19434, Control_c, 0, 67, 76
1, 19449, Control_c, 0, 64, 66
1, 19449, Control_c, 0, 67, 74
1, 19464, Control_c, 0, 64, 73
1, 19464, Control_c, 0, 67, 73
1, 19478, Control_c, 0, 64, 79
1, 19478, Control_c, 0, 67, 72
1, 19493, Control_c, 0, 64, 87
1, 19493, Control_c, 0, 67, 71
1, 19507, Note_off_c, 0, 67, 60
1, 19508, Control_c, 0, 64, 96
1, 19508, Control_c, 0, 67, 70
1, 19523, Control_c, 0, 64, 104
1, 19523, Control_c, 0, 67, 69
1, 19531, Note_off_c, 0, 66, 61
1, 19538, Control_c, 0, 64, 115
1, 19538, Control_c, 0, 67, 69
1, 19552, Control_c, 0, 64, 127
1, 19552, Control_c, 0, 67, 68
1, 19567, Control_c, 0, 67, 67
1, 19582, Control_c, 0, 67, 67
1, 19597, Control_c, 0, 67, 66
1, 19612, Control_c, 0, 67, 65
1, 19641, Control_c, 0, 67, 65
1, 19730, Control_c, 0, 67, 65
1, 19752, Control_c, 0, 67, 66
1, 19767, Control_c, 0, 67, 67
1, 19779, Note_on_c, 0, 62, 48
1, 19782, Control_c, 0, 67, 68
1, 19789, Note_on_c, 0, 67, 52
1, 19797, Control_c, 0, 64, 106
1, 19797, Control_c, 0, 67, 68
1, 19810, Note_on_c, 0, 43, 43
1, 19812, Control_c, 0, 64, 91
1, 19812, Control_c, 0, 67, 69
1, 19827, Control_c, 0, 64, 79
1, 19827, Control_c, 0, 67, 69
1, 19842, Control_c, 0, 64, 66
1, 19856, Control_c, 0, 64, 43
1, 19856, Control_c, 0, 67, 70
1, 19871, Control_c, 0, 64, 0
1, 19877, Note_off_c, 0, 38, 41
1, 19916, Control_c, 0, 67, 70
1, 19960, Control_c, 0, 67, 70
1, 19975, Control_c, 0, 67, 69
1, 19990, Control_c, 0, 64, 59
1, 19990, Control_c, 0, 67, 69
1, 20004, Control_c, 0, 64, 68
1, 20004, Control_c, 0, 67, 68
1, 20019, Control_c, 0, 64, 76
1, 20019, Control_c, 0, 67, 68
1, 20034, Control_c, 0, 64, 90
1, 20034, Control_c, 0, 67, 67
1, 20048, Control_c, 0, 64, 104
1, 20062, Note_off_c, 0, 62, 60
1, 20063, Control_c, 0, 64, 127
1, 20063, Control_c, 0, 67, 67
1, 20078, Control_c, 0, 67, 66
1, 20133, Note_off_c, 0, 60, 59
1, 20152, Control_c, 0, 67, 67
1, 20182, Control_c, 0, 67, 68
1, 20196, Control_c, 0, 67, 69
1, 20211, Control_c, 0, 67, 69
1, 20227, Control_c, 0, 67, 70
1, 20242, Control_c, 0, 67, 72
1, 20252, Note_on_c, 0, 60, 51
1, 20257, Control_c, 0, 67, 73
1, 20271, Control_c, 0, 64, 96
1, 20271, Control_c, 0, 67, 74
1, 20284, Note_off_c, 0, 60, 66
1, 20285, Control_c, 0, 64, 79
1, 20285, Control_c, 0, 67, 76
1, 20300, Control_c, 0, 64, 63
1, 20300, Control_c, 0, 67, 78
1, 20315, Control_c, 0, 64, 0
1, 20315, Control_c, 0, 67, 80
1, 20321, Note_on_c, 0, 59, 49
1, 20330, Control_c, 0, 67, 85
1, 20344, Control_c, 0, 67, 91
1, 20345, Note_off_c, 0, 59, 59
1, 20359, Control_c, 0, 67, 97
1, 20364, Note_on_c, 0, 60, 56
1, 20374, Control_c, 0, 67, 104
1, 20389, Control_c, 0, 67, 112
1, 20403, Note_off_c, 0, 60, 63
1, 20404, Control_c, 0, 67, 120
1, 20418, Control_c, 0, 67, 127
1, 20423, Note_on_c, 0, 59, 60
1, 20671, Note_on_c, 0, 57, 52
1, 20722, Control_c, 0, 64, 57
1, 20737, Control_c, 0, 64, 65
1, 20751, Control_c, 0, 64, 71
1, 20754, Note_off_c, 0, 59, 45
1, 20766, Control_c, 0, 64, 78
1, 20781, Control_c, 0, 64, 85
1, 20796, Control_c, 0, 64, 95
1, 20811, Control_c, 0, 64, 102
1, 20825, Control_c, 0, 64, 111
1, 20826, Note_off_c, 0, 67, 35
1, 20840, Control_c, 0, 64, 127
1, 20841, Note_off_c, 0, 43, 41
1, 21044, Note_on_c, 0, 43, 37
1, 21083, Note_on_c, 0, 59, 44
1, 21106, Note_off_c, 0, 57, 58
1, 21153, Note_on_c, 0, 62, 41
1, 21168, Control_c, 0, 64, 109
1, 21183, Control_c, 0, 64, 100
1, 21198, Control_c, 0, 64, 91
1, 21206, Note_on_c, 0, 67, 50
1, 21213, Control_c, 0, 64, 82
1, 21228, Control_c, 0, 64, 72
1, 21249, Control_c, 0, 64, 62
1, 21264, Control_c, 0, 64, 0
1, 21693, Control_c, 0, 64, 17
1, 21708, Control_c, 0, 64, 50
1, 21723, Control_c, 0, 64, 59
1, 21738, Control_c, 0, 64, 63
1, 21753, Control_c, 0, 64, 65
1, 21767, Control_c, 0, 64, 68
1, 21782, Control_c, 0, 64, 71
1, 21797, Control_c, 0, 64, 75
1, 21813, Control_c, 0, 64, 80
1, 21828, Control_c, 0, 64, 86
1, 21843, Control_c, 0, 64, 93
1, 21858, Control_c, 0, 64, 99
1, 21872, Control_c, 0, 64, 108
1, 21887, Control_c, 0, 64, 127
1, 21961, Control_c, 0, 67, 126
1, 21976, Control_c, 0, 67, 125
1, 21998, Control_c, 0, 67, 124
1, 22013, Control_c, 0, 67, 123
1, 22028, Control_c, 0, 67, 122
1, 22042, Control_c, 0, 67, 121
1, 22057, Control_c, 0, 67, 121
1, 22072, Control_c, 0, 67, 120
1, 22087, Control_c, 0, 67, 119
1, 22102, Control_c, 0, 67, 119
1, 22116, Control_c, 0, 67, 118
1, 22131, Control_c, 0, 67, 117
1, 22146, Control_c, 0, 67, 117
1, 22161, Control_c, 0, 67, 116
1, 22176, Control_c, 0, 67, 116
1, 22191, Control_c, 0, 67, 115
1, 22205, Control_c, 0, 67, 115
1, 22235, Control_c, 0, 67, 114
1, 22337, Note_off_c, 0, 59, 60
1, 22339, Control_c, 0, 67, 115
1, 22344, Note_off_c, 0, 62, 58
1, 22354, Control_c, 0, 64, 116
1, 22354, Control_c, 0, 67, 117
1, 22363, Note_off_c, 0, 67, 60
1, 22369, Control_c, 0, 64, 88
1, 22369, Control_c, 0, 67, 118
1, 22384, Control_c, 0, 64, 70
1, 22384, Control_c, 0, 67, 119
1, 22398, Control_c, 0, 64, 0
1, 22398, Control_c, 0, 67, 121
1, 22413, Control_c, 0, 67, 121
1, 22428, Control_c, 0, 67, 122
1, 22442, Control_c, 0, 67, 122
1, 22457, Control_c, 0, 67, 123
1, 22516, Control_c, 0, 64, 21
1, 22530, Control_c, 0, 64, 30
1, 22545, Note_on_c, 0, 62, 52
1, 22545, Control_c, 0, 64, 39
1, 22560, Control_c, 0, 64, 47
1, 22575, Control_c, 0, 64, 53
1, 22580, Note_off_c, 0, 62, 63
1, 22590, Control_c, 0, 64, 58
1, 22605, Control_c, 0, 64, 61
1, 22609, Note_on_c, 0, 64, 45
1, 22620, Control_c, 0, 64, 62
1, 22635, Control_c, 0, 64, 63
1, 22636, Note_off_c, 0, 64, 59
1, 22650, Control_c, 0, 64, 64
1, 22653, Note_on_c, 0, 66, 61
1, 22665, Control_c, 0, 64, 64
1, 22682, Note_off_c, 0, 66, 65
1, 22694, Control_c, 0, 64, 64
1, 22709, Control_c, 0, 64, 61
1, 22718, Note_on_c, 0, 67, 59
1, 22724, Control_c, 0, 64, 43
1, 22746, Control_c, 0, 64, 0
1, 22746, Control_c, 0, 67, 125
1, 22750, Note_off_c, 0, 67, 63
1, 22761, Control_c, 0, 67, 127
1, 22772, Note_on_c, 0, 69, 59
1, 22790, Note_off_c, 0, 69, 62
1, 22813, Note_on_c, 0, 67, 77
1, 22837, Note_off_c, 0, 67, 65
1, 22848, Note_on_c, 0, 69, 81
1, 22887, Note_off_c, 0, 69, 57
1, 22911, Note_on_c, 0, 67, 77
1, 22939, Control_c, 0, 64, 60
1, 22954, Control_c, 0, 64, 67
1, 22960, Note_off_c, 0, 43, 56
1, 22969, Control_c, 0, 64, 74
1, 22983, Control_c, 0, 64, 81
1, 22998, Control_c, 0, 64, 88
1, 23013, Control_c, 0, 64, 93
1, 23028, Control_c, 0, 64, 96
1, 23043, Control_c, 0, 64, 98
1, 23058, Note_off_c, 0, 67, 60
1, 23058, Control_c, 0, 64, 100
1, 23072, Control_c, 0, 64, 100
1, 23087, Note_on_c, 0, 66, 49
1, 23087, Control_c, 0, 64, 101
1, 23102, Control_c, 0, 64, 102
1, 23111, Note_off_c, 0, 66, 61
1, 23117, Control_c, 0, 64, 103
1, 23132, Control_c, 0, 64, 104
1, 23146, Control_c, 0, 64, 105
1, 23147, Note_on_c, 0, 67, 64
1, 23190, Control_c, 0, 64, 104
1, 23193, Note_off_c, 0, 67, 52
1, 23198, Note_on_c, 0, 43, 51
1, 23204, Note_on_c, 0, 69, 70
1, 23205, Control_c, 0, 64, 97
1, 23212, Note_on_c, 0, 47, 56
1, 23220, Control_c, 0, 64, 84
1, 23235, Note_on_c, 0, 50, 49
1, 23235, Control_c, 0, 64, 70
1, 23249, Note_on_c, 0, 55, 70
1, 23250, Control_c, 0, 64, 39
1, 23264, Note_off_c, 0, 69, 64
1, 23264, Control_c, 0, 64, 0
1, 23266, Note_on_c, 0, 71, 77
1, 23274, Note_off_c, 0, 55, 67
1, 23278, Note_off_c, 0, 43, 60
1, 23283, Note_off_c, 0, 50, 65
1, 23295, Note_off_c, 0, 47, 65
1, 23299, Note_off_c, 0, 71, 60
1, 23338, Control_c, 0, 64, 29
1, 23353, Control_c, 0, 64, 39
1, 23368, Control_c, 0, 64, 43
1, 23383, Control_c, 0, 64, 46
1, 23398, Control_c, 0, 64, 48
1, 23414, Control_c, 0, 64, 50
1, 23429, Control_c, 0, 64, 52
1, 23443, Control_c, 0, 64, 54
1, 23451, Note_on_c, 0, 62, 60
1, 23458, Control_c, 0, 64, 56
1, 23473, Control_c, 0, 64, 57
1, 23495, Note_off_c, 0, 62, 60
1, 23495, Control_c, 0, 64, 57
1, 23510, Control_c, 0, 64, 58
1, 23540, Control_c, 0, 64, 57
1, 23555, Control_c, 0, 64, 38
1, 23569, Control_c, 0, 64, 0
1, 23614, Note_on_c, 0, 31, 51
1, 23616, Note_on_c, 0, 67, 64
1, 23621, Note_on_c, 0, 43, 42
1, 23648, Note_off_c, 0, 67, 60
1, 23780, Note_on_c, 0, 71, 72
1, 23814, Note_off_c, 0, 71, 61
1, 23905, Note_off_c, 0, 31, 56
1, 23923, Note_off_c, 0, 43, 57
1, 23935, Note_on_c, 0, 71, 60
1, 23958, Note_off_c, 0, 71, 65
1, 23990, Note_on_c, 0, 69, 56
1, 24009, Note_off_c, 0, 69, 63
1, 24016, Note_on_c, 0, 71, 79
1, 24063, Note_off_c, 0, 71, 65
1, 24071, Note_on_c, 0, 69, 77
1, 24092, Note_off_c, 0, 69, 68
1, 24102, Control_c, 0, 64, 31
1, 24109, Note_on_c, 0, 67, 67
1, 24117, Control_c, 0, 64, 43
1, 24132, Control_c, 0, 64, 47
1, 24139, Note_off_c, 0, 67, 62
1, 24147, Control_c, 0, 64, 49
1, 24161, Control_c, 0, 64, 49
1, 24176, Control_c, 0, 64, 50
1, 24244, Note_on_c, 0, 76, 61
1, 24250, Note_on_c, 0, 62, 39
1, 24252, Note_on_c, 0, 54, 54
1, 24259, Control_c, 0, 64, 49
1, 24263, Note_off_c, 0, 76, 63
1, 24274, Control_c, 0, 64, 36
1, 24279, Note_off_c, 0, 54, 66
1, 24281, Note_off_c, 0, 62, 50
1, 24289, Control_c, 0, 64, 0
1, 24292, Note_on_c, 0, 74, 66
1, 24317, Note_off_c, 0, 74, 69
1, 24328, Note_on_c, 0, 76, 73
1, 24367, Note_off_c, 0, 76, 61
1, 24380, Note_on_c, 0, 74, 75
1, 24402, Note_off_c, 0, 74, 71
1, 24422, Note_on_c, 0, 69, 62
1, 24469, Note_off_c, 0, 69, 61
1, 24576, Note_on_c, 0, 50, 49
1, 24580, Note_on_c, 0, 54, 45
1, 24580, Note_on_c, 0, 74, 69
1, 24581, Note_on_c, 0, 42, 47
1, 24581, Note_on_c, 0, 45, 49
1, 24605, Note_off_c, 0, 74, 69
1, 24738, Note_on_c, 0, 78, 61
1, 24757, Note_off_c, 0, 78, 66
1, 24778, Note_on_c, 0, 76, 72
1, 24825, Note_on_c, 0, 78, 71
1, 24844, Note_off_c, 0, 76, 0
1, 24854, Note_off_c, 0, 78, 57
1, 24856, Note_off_c, 0, 42, 57
1, 24858, Note_on_c, 0, 76, 55
1, 24861, Note_off_c, 0, 54, 64
1, 24862, Note_off_c, 0, 45, 64
1, 24872, Note_off_c, 0, 50, 65
1, 24891, Note_on_c, 0, 78, 71
1, 24900, Note_off_c, 0, 76, 64
1, 24921, Note_off_c, 0, 78, 63
1, 24942, Control_c, 0, 67, 127
1, 24957, Control_c, 0, 67, 126
1, 24972, Control_c, 0, 67, 126
1, 24993, Control_c, 0, 67, 125
1, 25068, Control_c, 0, 67, 125
1, 25202, Control_c, 0, 64, 11
1, 25216, Control_c, 0, 64, 49
1, 25216, Control_c, 0, 67, 125
1, 25231, Control_c, 0, 64, 61
1, 25233, Note_on_c, 0, 52, 67
1, 25234, Note_on_c, 0, 62, 65
1, 25242, Note_on_c, 0, 59, 62
1, 25243, Note_on_c, 0, 55, 56
1, 25246, Control_c, 0, 64, 65
1, 25261, Control_c, 0, 64, 69
1, 25261, Control_c, 0, 67, 126
1, 25276, Control_c, 0, 64, 74
1, 25279, Note_on_c, 0, 79, 71
1, 25291, Control_c, 0, 64, 79
1, 25295, Note_off_c, 0, 79, 67
1, 25306, Control_c, 0, 64, 83
1, 25314, Note_off_c, 0, 52, 61
1, 25315, Note_off_c, 0, 62, 61
1, 25321, Control_c, 0, 64, 85
1, 25329, Note_off_c, 0, 59, 61
1, 25333, Note_off_c, 0, 55, 64
1, 25335, Control_c, 0, 64, 85
1, 25350, Control_c, 0, 67, 126
1, 25380, Control_c, 0, 67, 127
1, 25409, Control_c, 0, 64, 84
1, 25424, Control_c, 0, 64, 83
1, 25436, Note_on_c, 0, 71, 71
1, 25439, Control_c, 0, 64, 81
1, 25454, Control_c, 0, 64, 80
1, 25461, Note_off_c, 0, 71, 65
1, 25498, Control_c, 0, 64, 80
1, 25513, Control_c, 0, 64, 78
1, 25528, Control_c, 0, 64, 73
1, 25542, Control_c, 0, 64, 56
1, 25542, Control_c, 0, 67, 127
1, 25557, Control_c, 0, 64, 0
1, 25584, Note_on_c, 0, 61, 52
1, 25589, Note_on_c, 0, 74, 64
1, 25590, Note_on_c, 0, 57, 46
1, 25607, Note_off_c, 0, 74, 66
1, 25626, Note_on_c, 0, 73, 75
1, 25663, Note_off_c, 0, 73, 61
1, 25669, Note_on_c, 0, 74, 69
1, 25698, Note_off_c, 0, 74, 68
1, 25708, Note_on_c, 0, 73, 81
1, 25754, Note_off_c, 0, 73, 64
1, 25815, Note_on_c, 0, 83, 72
1, 25842, Note_off_c, 0, 83, 62
1, 25931, Note_off_c, 0, 61, 59
1, 25934, Note_off_c, 0, 57, 61
1, 25951, Control_c, 0, 67, 127
1, 25980, Control_c, 0, 67, 126
1, 25984, Note_on_c, 0, 81, 69
1, 26039, Note_off_c, 0, 81, 62
1, 26044, Note_on_c, 0, 83, 76
1, 26126, Note_on_c, 0, 79, 81
1, 26130, Note_off_c, 0, 83, 64
1, 26145, Note_off_c, 0, 79, 71
1, 26173, Control_c, 0, 67, 127
1, 26189, Note_on_c, 0, 50, 57
1, 26222, Note_on_c, 0, 54, 48
1, 26247, Control_c, 0, 67, 127
1, 26260, Note_on_c, 0, 57, 38
1, 26304, Note_on_c, 0, 62, 64
1, 26307, Note_on_c, 0, 78, 80
1, 26315, Note_off_c, 0, 50, 64
1, 26331, Note_off_c, 0, 62, 65
1, 26340, Note_off_c, 0, 78, 63
1, 26346, Note_off_c, 0, 54, 65
1, 26351, Note_off_c, 0, 57, 62
1, 26454, Control_c, 0, 67, 127
1, 26495, Note_on_c, 0, 81, 76
1, 26506, Control_c, 0, 67, 126
1, 26530, Note_off_c, 0, 81, 61
1, 26565, Control_c, 0, 67, 126
1, 26670, Note_on_c, 0, 74, 60
1, 26677, Note_on_c, 0, 62, 49
1, 26678, Note_on_c, 0, 57, 50
1, 26680, Note_on_c, 0, 54, 49
1, 26730, Note_off_c, 0, 74, 55
1, 26856, Note_on_c, 0, 78, 76
1, 26883, Note_off_c, 0, 78, 62
1, 26921, Control_c, 0, 67, 125
1, 26975, Note_off_c, 0, 62, 60
1, 27003, Note_off_c, 0, 57, 62
1, 27008, Note_off_c, 0, 54, 62
1, 27023, Note_on_c, 0, 69, 72
1, 27073, Note_off_c, 0, 69, 57
1, 27143, Control_c, 0, 67, 126
1, 27198, Note_on_c, 0, 72, 73
1, 27198, Note_on_c, 0, 54, 59
1, 27207, Note_on_c, 0, 57, 46
1, 27207, Note_on_c, 0, 62, 40
1, 27222, Note_off_c, 0, 72, 67
1, 27241, Note_off_c, 0, 54, 62
1, 27241, Note_off_c, 0, 57, 61
1, 27241, Note_off_c, 0, 62, 56
1, 27358, Note_on_c, 0, 72, 58
1, 27377, Note_off_c, 0, 72, 65
1, 27386, Note_on_c, 0, 62, 50
1, 27393, Note_on_c, 0, 55, 53
1, 27409, Note_on_c, 0, 59, 50
1, 27410, Note_on_c, 0, 71, 57
1, 27428, Note_off_c, 0, 62, 63
1, 27431, Note_off_c, 0, 71, 65
1, 27441, Note_on_c, 0, 72, 75
1, 27446, Note_off_c, 0, 59, 64
1, 27458, Note_off_c, 0, 55, 64
1, 27485, Note_off_c, 0, 72, 61
1, 27496, Note_on_c, 0, 71, 79
1, 27539, Note_off_c, 0, 71, 66
1, 27544, Note_on_c, 0, 74, 83
1, 27566, Control_c, 0, 67, 126
1, 27571, Note_off_c, 0, 74, 65
1, 27732, Note_on_c, 0, 59, 50
1, 27732, Note_on_c, 0, 55, 52
1, 27737, Note_on_c, 0, 47, 45
1, 27741, Note_on_c, 0, 67, 63
1, 27746, Note_on_c, 0, 50, 49
1, 27774, Control_c, 0, 67, 126
1, 27814, Note_off_c, 0, 67, 53
1, 27927, Note_on_c, 0, 71, 74
1, 27985, Note_off_c, 0, 71, 62
1, 27988, Control_c, 0, 67, 126
1, 28013, Note_off_c, 0, 47, 52
1, 28021, Note_off_c, 0, 59, 60
1, 28059, Note_off_c, 0, 50, 64
1, 28059, Note_off_c, 0, 55, 64
1, 28063, Control_c, 0, 67, 127
1, 28111, Note_on_c, 0, 62, 72
1, 28173, Note_off_c, 0, 62, 58
1, 28181, Control_c, 0, 67, 126
1, 28227, Control_c, 0, 67, 126
1, 28257, Control_c, 0, 67, 125
1, 28267, Note_on_c, 0, 59, 60
1, 28271, Note_on_c, 0, 55, 56
1, 28278, Note_on_c, 0, 50, 43
1, 28294, Note_on_c, 0, 66, 69
1, 28298, Note_off_c, 0, 59, 64
1, 28301, Control_c, 0, 67, 125
1, 28310, Note_off_c, 0, 55, 66
1, 28311, Note_on_c, 0, 47, 16
1, 28326, Note_off_c, 0, 50, 64
1, 28343, Note_off_c, 0, 47, 46
1, 28349, Note_off_c, 0, 66, 59
1, 28404, Control_c, 0, 67, 124
1, 28464, Control_c, 0, 67, 125
1, 28466, Note_on_c, 0, 64, 70
1, 28467, Note_on_c, 0, 55, 57
1, 28478, Note_on_c, 0, 52, 53
1, 28487, Note_on_c, 0, 48, 48
1, 28528, Note_off_c, 0, 64, 62
1, 28538, Control_c, 0, 67, 125
1, 28564, Note_off_c, 0, 55, 64
1, 28579, Note_off_c, 0, 52, 63
1, 28591, Note_off_c, 0, 48, 63
1, 28641, Note_on_c, 0, 67, 78
1, 28671, Control_c, 0, 67, 125
1, 28683, Note_off_c, 0, 67, 62
1, 28701, Control_c, 0, 67, 124
1, 28716, Control_c, 0, 67, 124
1, 28738, Control_c, 0, 67, 123
1, 28753, Control_c, 0, 67, 122
1, 28767, Control_c, 0, 67, 120
1, 28782, Control_c, 0, 67, 111
1, 28797, Control_c, 0, 67, 102
1, 28811, Control_c, 0, 67, 94
1, 28823, Note_on_c, 0, 66, 73
1, 28823, Note_on_c, 0, 60, 63
1, 28824, Note_on_c, 0, 54, 64
1, 28826, Note_on_c, 0, 45, 55
1, 28826, Control_c, 0, 67, 84
1, 28827, Note_on_c, 0, 48, 52
1, 28841, Control_c, 0, 67, 74
1, 28856, Control_c, 0, 67, 66
1, 28866, Note_off_c, 0, 60, 59
1, 28871, Control_c, 0, 67, 59
1, 28886, Control_c, 0, 67, 54
1, 28901, Control_c, 0, 67, 50
1, 28905, Note_off_c, 0, 66, 60
1, 28915, Control_c, 0, 67, 46
1, 28930, Control_c, 0, 67, 43
1, 28945, Control_c, 0, 67, 41
1, 28960, Control_c, 0, 67, 40
1, 28975, Control_c, 0, 67, 40
1, 29005, Note_on_c, 0, 72, 87
1, 29025, Note_off_c, 0, 54, 65
1, 29035, Note_off_c, 0, 45, 60
1, 29057, Note_off_c, 0, 48, 60
1, 29059, Note_off_c, 0, 72, 64
1, 29124, Control_c, 0, 67, 40
1, 29178, Note_on_c, 0, 62, 76
1, 29182, Note_on_c, 0, 55, 74
1, 29184, Note_on_c, 0, 47, 64
1, 29194, Note_on_c, 0, 50, 58
1, 29235, Note_off_c, 0, 62, 61
1, 29278, Note_off_c, 0, 55, 63
1, 29292, Note_off_c, 0, 47, 64
1, 29300, Note_off_c, 0, 50, 65
1, 29346, Control_c, 0, 64, 11
1, 29361, Control_c, 0, 64, 14
1, 29371, Note_on_c, 0, 71, 83
1, 29375, Control_c, 0, 64, 17
1, 29390, Control_c, 0, 64, 19
1, 29405, Control_c, 0, 64, 21
1, 29415, Note_off_c, 0, 71, 64
1, 29434, Control_c, 0, 64, 23
1, 29434, Control_c, 0, 67, 40
1, 29464, Control_c, 0, 64, 21
1, 29487, Control_c, 0, 64, 0
1, 29536, Note_on_c, 0, 60, 61
1, 29543, Note_on_c, 0, 69, 71
1, 29548, Note_on_c, 0, 48, 63
1, 29553, Note_on_c, 0, 64, 62
1, 29560, Control_c, 0, 67, 39
1, 29565, Note_off_c, 0, 60, 66
1, 29575, Control_c, 0, 67, 39
1, 29590, Control_c, 0, 67, 38
1, 29592, Note_off_c, 0, 69, 56
1, 29605, Control_c, 0, 64, 36
1, 29605, Control_c, 0, 67, 38
1, 29620, Control_c, 0, 64, 63
1, 29620, Control_c, 0, 67, 37
1, 29634, Control_c, 0, 64, 70
1, 29634, Control_c, 0, 67, 36
1, 29649, Control_c, 0, 64, 76
1, 29649, Control_c, 0, 67, 32
1, 29664, Control_c, 0, 64, 81
1, 29664, Control_c, 0, 67, 30
1, 29679, Control_c, 0, 64, 85
1, 29679, Control_c, 0, 67, 28
1, 29694, Control_c, 0, 64, 87
1, 29694, Control_c, 0, 67, 26
1, 29705, Note_off_c, 0, 48, 63
1, 29706, Note_off_c, 0, 64, 62
1, 29708, Control_c, 0, 64, 89
1, 29708, Control_c, 0, 67, 24
1, 29723, Control_c, 0, 64, 90
1, 29723, Control_c, 0, 67, 23
1, 29730, Note_on_c, 0, 67, 84
1, 29732, Note_on_c, 0, 59, 72
1, 29738, Control_c, 0, 64, 91
1, 29738, Control_c, 0, 67, 23
1, 29753, Control_c, 0, 64, 92
1, 29753, Control_c, 0, 67, 22
1, 29755, Note_off_c, 0, 59, 67
1, 29764, Note_off_c, 0, 67, 59
1, 29768, Control_c, 0, 64, 94
1, 29768, Control_c, 0, 67, 22
1, 29783, Control_c, 0, 64, 96
1, 29798, Control_c, 0, 64, 99
1, 29798, Control_c, 0, 67, 21
1, 29813, Control_c, 0, 64, 101
1, 29828, Control_c, 0, 64, 102
1, 29843, Control_c, 0, 64, 101
1, 29857, Control_c, 0, 64, 90
1, 29872, Control_c, 0, 64, 73
1, 29882, Note_on_c, 0, 59, 69
1, 29887, Control_c, 0, 64, 0
1, 29890, Note_on_c, 0, 62, 70
1, 29893, Note_on_c, 0, 50, 56
1, 29935, Note_off_c, 0, 59, 63
1, 29941, Note_on_c, 0, 57, 71
1, 29986, Note_off_c, 0, 57, 61
1, 30004, Note_on_c, 0, 59, 75
1, 30045, Note_on_c, 0, 57, 78
1, 30069, Note_off_c, 0, 59, 62
1, 30080, Note_on_c, 0, 67, 78
1, 30088, Note_on_c, 0, 55, 63
1, 30110, Control_c, 0, 67, 22
1, 30111, Note_off_c, 0, 57, 63
1, 30113, Note_off_c, 0, 67, 61
1, 30124, Control_c, 0, 67, 23
1, 30139, Control_c, 0, 67, 23
1, 30142, Note_off_c, 0, 55, 62
1, 30154, Control_c, 0, 67, 24
1, 30169, Control_c, 0, 67, 25
1, 30183, Control_c, 0, 67, 27
1, 30198, Control_c, 0, 67, 28
1, 30213, Control_c, 0, 67, 30
1, 30236, Control_c, 0, 67, 33
1, 30251, Control_c, 0, 67, 38
1, 30265, Control_c, 0, 67, 48
1, 30272, Note_on_c, 0, 66, 76
1, 30277, Note_on_c, 0, 57, 67
1, 30280, Control_c, 0, 67, 60
1, 30287, Note_off_c, 0, 62, 61
1, 30295, Control_c, 0, 67, 74
1, 30310, Control_c, 0, 67, 89
1, 30325, Control_c, 0, 67, 100
1, 30339, Control_c, 0, 67, 107
1, 30354, Control_c, 0, 67, 113
1, 30369, Control_c, 0, 67, 118
1, 30383, Control_c, 0, 67, 121
1, 30398, Control_c, 0, 67, 123
1, 30413, Control_c, 0, 67, 124
1, 30418, Note_off_c, 0, 66, 63
1, 30450, Note_on_c, 0, 60, 70
1, 30502, Control_c, 0, 67, 123
1, 30517, Control_c, 0, 67, 122
1, 30531, Control_c, 0, 67, 122
1, 30546, Control_c, 0, 67, 121
1, 30576, Control_c, 0, 67, 120
1, 30591, Control_c, 0, 67, 120
1, 30606, Control_c, 0, 67, 119
1, 30621, Control_c, 0, 67, 119
1, 30634, Note_on_c, 0, 62, 62
1, 30636, Control_c, 0, 67, 118
1, 30639, Note_on_c, 0, 67, 62
1, 30648, Note_on_c, 0, 55, 52
1, 30651, Control_c, 0, 67, 118
1, 30670, Note_off_c, 0, 60, 62
1, 30680, Control_c, 0, 67, 117
1, 30695, Control_c, 0, 67, 117
1, 30698, Note_off_c, 0, 57, 59
1, 30709, Note_off_c, 0, 50, 62
1, 30710, Control_c, 0, 67, 116
1, 30740, Control_c, 0, 67, 116
1, 30755, Control_c, 0, 67, 115
1, 30785, Control_c, 0, 67, 115
1, 30824, Note_on_c, 0, 60, 65
1, 30829, Control_c, 0, 67, 114
1, 30844, Note_off_c, 0, 62, 58
1, 30962, Control_c, 0, 67, 114
1, 31006, Note_on_c, 0, 59, 64
1, 31014, Note_on_c, 0, 43, 52
1, 31024, Note_on_c, 0, 50, 46
1, 31029, Control_c, 0, 67, 113
1, 31042, Note_off_c, 0, 60, 62
1, 31061, Note_off_c, 0, 59, 60
1, 31088, Control_c, 0, 67, 113
1, 31148, Control_c, 0, 67, 112
1, 31182, Note_on_c, 0, 60, 56
1, 31188, Note_on_c, 0, 57, 65
1, 31190, Note_on_c, 0, 66, 65
1, 31238, Note_off_c, 0, 60, 62
1, 31258, Note_off_c, 0, 57, 61
1, 31264, Note_off_c, 0, 67, 59
1, 31279, Note_off_c, 0, 66, 60
1, 31310, Control_c, 0, 67, 112
1, 31340, Control_c, 0, 67, 111
1, 31375, Note_on_c, 0, 62, 66
1, 31378, Note_on_c, 0, 67, 75
1, 31379, Note_on_c, 0, 59, 68
1, 31400, Control_c, 0, 67, 111
1, 31418, Note_off_c, 0, 59, 60
1, 31420, Note_off_c, 0, 43, 56
1, 31421, Note_off_c, 0, 62, 60
1, 31425, Note_off_c, 0, 55, 64
1, 31444, Control_c, 0, 67, 110
1, 31449, Note_off_c, 0, 67, 62
1, 31459, Control_c, 0, 67, 110
1, 31474, Control_c, 0, 67, 109
1, 31476, Note_off_c, 0, 50, 63
1, 31489, Control_c, 0, 67, 108
1, 31503, Control_c, 0, 67, 107
1, 31518, Control_c, 0, 67, 106
1, 31533, Control_c, 0, 67, 105
1, 31548, Control_c, 0, 67, 104
1, 31551, Note_on_c, 0, 69, 72
1, 31561, Note_on_c, 0, 66, 60
1, 31563, Control_c, 0, 67, 104
1, 31566, Note_on_c, 0, 60, 43
1, 31577, Control_c, 0, 67, 103
1, 31591, Note_off_c, 0, 66, 64
1, 31592, Note_off_c, 0, 60, 57
1, 31592, Control_c, 0, 67, 102
1, 31598, Note_off_c, 0, 69, 60
1, 31607, Control_c, 0, 67, 102
1, 31622, Control_c, 0, 67, 101
1, 31637, Control_c, 0, 67, 100
1, 31652, Control_c, 0, 67, 99
1, 31667, Control_c, 0, 67, 99
1, 31682, Control_c, 0, 67, 98
1, 31696, Control_c, 0, 67, 97
1, 31711, Control_c, 0, 67, 97
1, 31747, Note_on_c, 0, 55, 47
1, 31762, Note_on_c, 0, 43, 37
1, 31763, Note_on_c, 0, 71, 56
1, 31772, Note_on_c, 0, 62, 42
1, 31772, Note_off_c, 0, 55, 59
1, 31774, Note_on_c, 0, 67, 46
1, 31777, Control_c, 0, 67, 97
1, 31796, Note_off_c, 0, 43, 56
1, 31932, Note_on_c, 0, 38, 63
1, 31932, Note_off_c, 0, 62, 59
1, 31938, Note_on_c, 0, 50, 51
1, 31940, Note_off_c, 0, 71, 62
1, 31941, Control_c, 0, 67, 98
1, 31943, Note_off_c, 0, 67, 61
1, 31957, Note_off_c, 0, 38, 58
1, 31965, Note_off_c, 0, 50, 59
1, 32089, Control_c, 0, 67, 97
1, 32120, Note_on_c, 0, 55, 59
1, 32121, Note_on_c, 0, 43, 62
1, 32126, Note_on_c, 0, 71, 68
1, 32132, Note_on_c, 0, 67, 56
1, 32141, Note_on_c, 0, 62, 46
1, 32146, Note_off_c, 0, 55, 62
1, 32159, Note_off_c, 0, 43, 62
1, 32315, Note_on_c, 0, 45, 72
1, 32320, Note_on_c, 0, 57, 65
1, 32341, Control_c, 0, 67, 98
1, 32355, Note_off_c, 0, 57, 59
1, 32361, Note_off_c, 0, 45, 59
1, 32415, Control_c, 0, 67, 98
1, 32506, Note_on_c, 0, 47, 78
1, 32510, Note_on_c, 0, 59, 77
1, 32519, Note_off_c, 0, 71, 62
1, 32523, Note_off_c, 0, 67, 59
1, 32538, Note_off_c, 0, 59, 60
1, 32548, Note_off_c, 0, 47, 61
1, 32630, Control_c, 0, 67, 98
1, 32657, Note_off_c, 0, 62, 61
1, 32681, Note_on_c, 0, 48, 75
1, 32686, Note_on_c, 0, 67, 66
1, 32686, Note_on_c, 0, 71, 70
1, 32688, Note_on_c, 0, 60, 62
1, 32704, Control_c, 0, 67, 97
1, 32709, Note_off_c, 0, 60, 65
1, 32712, Note_off_c, 0, 48, 64
1, 32713, Note_off_c, 0, 67, 67
1, 32723, Note_off_c, 0, 71, 62
1, 32764, Control_c, 0, 67, 97
1, 32851, Note_on_c, 0, 71, 68
1, 32864, Note_on_c, 0, 50, 68
1, 32871, Note_on_c, 0, 62, 48
1, 32877, Note_off_c, 0, 71, 68
1, 32882, Control_c, 0, 67, 97
1, 32894, Note_on_c, 0, 67, 57
1, 32894, Note_off_c, 0, 50, 66
1, 32897, Note_off_c, 0, 62, 57
1, 32914, Note_on_c, 0, 69, 65
1, 32926, Control_c, 0, 67, 98
1, 32943, Note_off_c, 0, 69, 63
1, 32957, Note_on_c, 0, 71, 73
1, 32970, Control_c, 0, 67, 98
1, 33001, Control_c, 0, 67, 99
1, 33017, Note_off_c, 0, 71, 64
1, 33020, Note_off_c, 0, 67, 29
1, 33022, Note_on_c, 0, 69, 76
1, 33029, Note_on_c, 0, 45, 72
1, 33029, Control_c, 0, 67, 100
1, 33032, Note_on_c, 0, 57, 60
1, 33051, Note_off_c, 0, 45, 64
1, 33053, Note_off_c, 0, 57, 63
1, 33059, Note_off_c, 0, 69, 62
1, 33074, Control_c, 0, 67, 100
1, 33119, Control_c, 0, 67, 101
1, 33226, Note_on_c, 0, 50, 67
1, 33231, Note_on_c, 0, 62, 59
1, 33232, Note_on_c, 0, 74, 64
1, 33235, Note_on_c, 0, 66, 54
1, 33244, Control_c, 0, 67, 100
1, 33266, Note_off_c, 0, 62, 62
1, 33270, Note_off_c, 0, 50, 59
1, 33288, Control_c, 0, 67, 100
1, 33408, Note_on_c, 0, 52, 70
1, 33408, Note_on_c, 0, 64, 70
1, 33443, Note_off_c, 0, 52, 60
1, 33452, Note_off_c, 0, 64, 56
1, 33463, Note_off_c, 0, 66, 59
1, 33596, Note_on_c, 0, 54, 76
1, 33596, Note_on_c, 0, 66, 75
1, 33599, Control_c, 0, 67, 99
1, 33614, Control_c, 0, 67, 99
1, 33627, Note_off_c, 0, 74, 62
1, 33629, Control_c, 0, 67, 98
1, 33637, Note_off_c, 0, 66, 59
1, 33644, Control_c, 0, 67, 97
1, 33658, Note_off_c, 0, 54, 64
1, 33659, Control_c, 0, 67, 97
1, 33673, Control_c, 0, 67, 96
1, 33688, Control_c, 0, 67, 96
1, 33703, Control_c, 0, 67, 95
1, 33718, Control_c, 0, 67, 95
1, 33733, Control_c, 0, 67, 94
1, 33748, Control_c, 0, 67, 93
1, 33763, Control_c, 0, 67, 88
1, 33775, Note_on_c, 0, 50, 82
1, 33776, Note_on_c, 0, 62, 78
1, 33778, Control_c, 0, 67, 83
1, 33794, Control_c, 0, 67, 79
1, 33809, Note_off_c, 0, 62, 60
1, 33809, Control_c, 0, 67, 75
1, 33823, Control_c, 0, 67, 72
1, 33825, Note_off_c, 0, 50, 61
1, 33838, Control_c, 0, 67, 69
1, 33853, Control_c, 0, 67, 66
1, 33868, Control_c, 0, 67, 62
1, 33883, Control_c, 0, 67, 59
1, 33897, Control_c, 0, 67, 56
1, 33912, Control_c, 0, 67, 53
1, 33927, Control_c, 0, 67, 52
1, 33942, Control_c, 0, 67, 52
1, 33975, Note_on_c, 0, 79, 84
1, 33980, Note_on_c, 0, 64, 72
1, 33981, Note_on_c, 0, 52, 70
1, 33995, Note_on_c, 0, 71, 63
1, 34001, Note_off_c, 0, 64, 67
1, 34006, Note_on_c, 0, 67, 55
1, 34015, Note_off_c, 0, 52, 61
1, 34099, Note_off_c, 0, 67, 60
1, 34136, Note_off_c, 0, 71, 65
1, 34161, Note_on_c, 0, 50, 83
1, 34162, Note_on_c, 0, 62, 75
1, 34162, Note_off_c, 0, 79, 62
1, 34171, Control_c, 0, 67, 52
1, 34185, Note_off_c, 0, 62, 68
1, 34204, Note_off_c, 0, 50, 58
1, 34230, Control_c, 0, 67, 53
1, 34320, Control_c, 0, 67, 52
1, 34347, Note_on_c, 0, 49, 71
1, 34347, Note_on_c, 0, 61, 71
1, 34347, Note_on_c, 0, 79, 81
1, 34349, Control_c, 0, 67, 52
1, 34356, Note_on_c, 0, 76, 70
1, 34364, Control_c, 0, 67, 51
1, 34369, Note_on_c, 0, 69, 61
1, 34378, Note_off_c, 0, 61, 62
1, 34379, Control_c, 0, 67, 51
1, 34384, Note_off_c, 0, 49, 64
1, 34394, Control_c, 0, 67, 50
1, 34409, Control_c, 0, 67, 50
1, 34423, Control_c, 0, 67, 48
1, 34438, Control_c, 0, 67, 45
1, 34453, Control_c, 0, 67, 41
1, 34468, Control_c, 0, 67, 38
1, 34483, Control_c, 0, 67, 35
1, 34497, Control_c, 0, 67, 33
1, 34512, Control_c, 0, 67, 30
1, 34527, Control_c, 0, 67, 29
1, 34531, Note_on_c, 0, 52, 75
1, 34531, Note_on_c, 0, 64, 71
1, 34541, Control_c, 0, 67, 27
1, 34555, Note_off_c, 0, 64, 70
1, 34556, Control_c, 0, 67, 26
1, 34571, Control_c, 0, 67, 26
1, 34572, Note_off_c, 0, 52, 60
1, 34602, Control_c, 0, 67, 25
1, 34712, Note_off_c, 0, 76, 58
1, 34713, Note_on_c, 0, 45, 77
1, 34725, Note_on_c, 0, 57, 64
1, 34728, Control_c, 0, 67, 26
1, 34744, Note_off_c, 0, 79, 59
1, 34748, Note_off_c, 0, 45, 66
1, 34755, Note_off_c, 0, 57, 64
1, 34772, Control_c, 0, 67, 26
1, 34787, Control_c, 0, 67, 27
1, 34817, Control_c, 0, 67, 27
1, 34895, Note_on_c, 0, 49, 67
1, 34896, Note_on_c, 0, 61, 69
1, 34908, Note_on_c, 0, 76, 61
1, 34910, Note_on_c, 0, 79, 74
1, 34919, Note_off_c, 0, 69, 61
1, 34923, Note_off_c, 0, 61, 65
1, 34927, Note_off_c, 0, 49, 65
1, 34939, Note_off_c, 0, 76, 64
1, 34956, Note_off_c, 0, 79, 60
1, 35009, Control_c, 0, 67, 27
1, 35039, Control_c, 0, 67, 26
1, 35068, Control_c, 0, 67, 26
1, 35082, Note_on_c, 0, 79, 68
1, 35087, Note_on_c, 0, 62, 53
1, 35097, Note_on_c, 0, 50, 51
1, 35107, Note_on_c, 0, 69, 54
1, 35119, Note_off_c, 0, 62, 62
1, 35137, Note_off_c, 0, 50, 59
1, 35266, Note_off_c, 0, 69, 59
1, 35268, Note_on_c, 0, 45, 70
1, 35273, Note_on_c, 0, 57, 63
1, 35283, Note_off_c, 0, 79, 60
1, 35296, Note_off_c, 0, 45, 66
1, 35296, Note_off_c, 0, 57, 63
1, 35463, Note_on_c, 0, 62, 55
1, 35463, Note_on_c, 0, 78, 67
1, 35473, Note_on_c, 0, 50, 55
1, 35476, Note_on_c, 0, 74, 60
1, 35478, Note_on_c, 0, 69, 56
1, 35502, Note_off_c, 0, 62, 63
1, 35523, Note_off_c, 0, 50, 61
1, 35595, Control_c, 0, 67, 25
1, 35625, Control_c, 0, 67, 25
1, 35644, Note_on_c, 0, 48, 74
1, 35644, Note_on_c, 0, 60, 71
1, 35673, Note_off_c, 0, 60, 61
1, 35684, Control_c, 0, 67, 24
1, 35691, Note_off_c, 0, 48, 58
1, 35823, Note_on_c, 0, 47, 81
1, 35825, Note_on_c, 0, 59, 82
1, 35850, Note_off_c, 0, 78, 61
1, 35861, Note_off_c, 0, 59, 56
1, 35867, Note_off_c, 0, 74, 64
1, 35873, Note_off_c, 0, 47, 63
1, 35965, Control_c, 0, 67, 25
1, 35995, Control_c, 0, 67, 25
1, 36006, Note_on_c, 0, 45, 87
1, 36007, Note_on_c, 0, 78, 82
1, 36008, Note_on_c, 0, 74, 77
1, 36009, Note_on_c, 0, 57, 76
1, 36010, Control_c, 0, 67, 26
1, 36022, Note_off_c, 0, 69, 63
1, 36025, Control_c, 0, 67, 26
1, 36032, Note_off_c, 0, 57, 68
1, 36040, Control_c, 0, 67, 27
1, 36044, Note_off_c, 0, 45, 59
1, 36044, Note_off_c, 0, 74, 65
1, 36055, Control_c, 0, 64, 14
1, 36063, Note_off_c, 0, 78, 63
1, 36069, Control_c, 0, 64, 19
1, 36084, Control_c, 0, 64, 21
1, 36084, Control_c, 0, 67, 27
1, 36099, Control_c, 0, 64, 24
1, 36113, Control_c, 0, 64, 26
1, 36128, Control_c, 0, 64, 27
1, 36143, Control_c, 0, 64, 28
1, 36195, Note_on_c, 0, 43, 72
1, 36195, Note_on_c, 0, 55, 74
1, 36197, Note_on_c, 0, 79, 87
1, 36208, Note_on_c, 0, 74, 71
1, 36211, Note_on_c, 0, 71, 68
1, 36228, Note_off_c, 0, 55, 65
1, 36230, Note_off_c, 0, 43, 65
1, 36299, Control_c, 0, 64, 29
1, 36314, Control_c, 0, 64, 31
1, 36329, Control_c, 0, 64, 35
1, 36344, Control_c, 0, 64, 38
1, 36359, Control_c, 0, 64, 39
1, 36374, Control_c, 0, 64, 41
1, 36383, Note_on_c, 0, 50, 84
1, 36384, Note_on_c, 0, 62, 80
1, 36389, Control_c, 0, 64, 42
1, 36404, Control_c, 0, 64, 43
1, 36404, Note_off_c, 0, 62, 69
1, 36404, Note_off_c, 0, 71, 62
1, 36406, Note_off_c, 0, 50, 71
1, 36418, Control_c, 0, 64, 44
1, 36418, Control_c, 0, 67, 27
1, 36420, Note_off_c, 0, 79, 59
1, 36422, Note_off_c, 0, 74, 63
1, 36433, Control_c, 0, 64, 45
1, 36448, Control_c, 0, 64, 46
1, 36448, Control_c, 0, 67, 26
1, 36463, Control_c, 0, 64, 47
1, 36463, Control_c, 0, 67, 26
1, 36478, Control_c, 0, 64, 48
1, 36492, Control_c, 0, 64, 49
1, 36507, Control_c, 0, 64, 49
1, 36507, Control_c, 0, 67, 25
1, 36522, Control_c, 0, 64, 50
1, 36537, Control_c, 0, 67, 25
1, 36566, Control_c, 0, 64, 49
1, 36566, Control_c, 0, 67, 24
1, 36581, Control_c, 0, 64, 49
1, 36581, Control_c, 0, 67, 24
1, 36595, Note_on_c, 0, 55, 62
1, 36596, Control_c, 0, 64, 48
1, 36598, Note_on_c, 0, 67, 60
1, 36604, Note_on_c, 0, 71, 64
1, 36611, Control_c, 0, 64, 47
1, 36611, Control_c, 0, 67, 23
1, 36612, Note_on_c, 0, 74, 58
1, 36623, Note_on_c, 0, 76, 59
1, 36625, Control_c, 0, 64, 46
1, 36640, Control_c, 0, 64, 46
1, 36640, Control_c, 0, 67, 22
1, 36655, Control_c, 0, 64, 45
1, 36655, Control_c, 0, 67, 18
1, 36670, Control_c, 0, 64, 44
1, 36670, Control_c, 0, 67, 15
1, 36671, Note_off_c, 0, 76, 41
1, 36685, Control_c, 0, 67, 12
1, 36699, Control_c, 0, 64, 44
1, 36699, Control_c, 0, 67, 9
1, 36714, Control_c, 0, 67, 0
1, 36727, Note_off_c, 0, 67, 63
1, 36729, Control_c, 0, 64, 43
1, 36752, Note_off_c, 0, 55, 64
1, 36818, Control_c, 0, 64, 44
1, 36833, Control_c, 0, 64, 45
1, 36835, Note_on_c, 0, 66, 82
1, 36838, Note_on_c, 0, 54, 77
1, 36848, Control_c, 0, 64, 45
1, 36863, Control_c, 0, 64, 46
1, 36877, Control_c, 0, 64, 46
1, 36885, Note_off_c, 0, 66, 62
1, 36894, Note_off_c, 0, 54, 65
1, 36936, Control_c, 0, 64, 46
1, 36973, Control_c, 0, 64, 45
1, 37004, Control_c, 0, 64, 45
1, 37015, Note_on_c, 0, 52, 83
1, 37015, Note_on_c, 0, 64, 88
1, 37019, Control_c, 0, 64, 44
1, 37034, Control_c, 0, 64, 44
1, 37067, Note_off_c, 0, 64, 63
1, 37068, Note_off_c, 0, 52, 60
1, 37071, Note_off_c, 0, 74, 63
1, 37074, Note_off_c, 0, 71, 61
1, 37182, Control_c, 0, 64, 44
1, 37193, Note_on_c, 0, 50, 81
1, 37196, Note_on_c, 0, 62, 77
1, 37204, Note_on_c, 0, 74, 84
1, 37212, Note_on_c, 0, 71, 69
1, 37226, Control_c, 0, 64, 45
1, 37235, Note_off_c, 0, 71, 70
1, 37238, Note_off_c, 0, 62, 54
1, 37240, Note_off_c, 0, 74, 65
1, 37248, Note_off_c, 0, 50, 62
1, 37375, Note_on_c, 0, 74, 76
1, 37377, Note_on_c, 0, 71, 72
1, 37380, Note_on_c, 0, 48, 76
1, 37381, Note_on_c, 0, 60, 74
1, 37404, Control_c, 0, 64, 44
1, 37430, Note_off_c, 0, 60, 56
1, 37442, Note_off_c, 0, 48, 60
1, 37450, Note_on_c, 0, 76, 73
1, 37452, Note_on_c, 0, 72, 71
1, 37474, Note_off_c, 0, 71, 59
1, 37487, Note_off_c, 0, 74, 60
1, 37564, Note_on_c, 0, 59, 79
1, 37564, Note_on_c, 0, 47, 81
1, 37603, Note_off_c, 0, 59, 55
1, 37611, Control_c, 0, 64, 45
1, 37615, Note_off_c, 0, 47, 63
1, 37641, Control_c, 0, 64, 45
1, 37670, Control_c, 0, 64, 46
1, 37685, Control_c, 0, 64, 46
1, 37722, Control_c, 0, 64, 47
1, 37752, Control_c, 0, 64, 47
1, 37756, Note_on_c, 0, 45, 85
1, 37757, Note_on_c, 0, 57, 77
1, 37763, Note_off_c, 0, 72, 64
1, 37764, Note_off_c, 0, 76, 61
1, 37766, Control_c, 0, 64, 48
1, 37781, Control_c, 0, 64, 49
1, 37790, Note_off_c, 0, 57, 57
1, 37792, Note_off_c, 0, 45, 60
1, 37797, Control_c, 0, 64, 49
1, 37812, Control_c, 0, 64, 50
1, 37827, Control_c, 0, 64, 51
1, 37886, Control_c, 0, 64, 51
1, 37931, Control_c, 0, 64, 52
1, 37932, Note_on_c, 0, 43, 80
1, 37933, Note_on_c, 0, 55, 75
1, 37942, Note_on_c, 0, 71, 85
1, 37949, Note_on_c, 0, 67, 77
1, 37963, Note_off_c, 0, 55, 66
1, 37982, Note_off_c, 0, 43, 60
1, 38034, Control_c, 0, 64, 52
1, 38049, Control_c, 0, 64, 53
1, 38064, Control_c, 0, 64, 53
1, 38079, Control_c, 0, 64, 54
1, 38094, Control_c, 0, 64, 55
1, 38123, Note_on_c, 0, 54, 82
1, 38123, Control_c, 0, 64, 55
1, 38125, Note_on_c, 0, 42, 81
1, 38128, Note_on_c, 0, 69, 80
1, 38130, Note_on_c, 0, 72, 81
1, 38146, Note_off_c, 0, 67, 61
1, 38153, Note_off_c, 0, 54, 67
1, 38174, Note_off_c, 0, 42, 62
1, 38195, Note_off_c, 0, 71, 53
1, 38197, Control_c, 0, 64, 56
1, 38257, Control_c, 0, 64, 56
1, 38301, Note_off_c, 0, 72, 61
1, 38311, Note_on_c, 0, 50, 72
1, 38312, Note_on_c, 0, 38, 71
1, 38315, Note_on_c, 0, 66, 80
1, 38315, Note_on_c, 0, 74, 83
1, 38330, Control_c, 0, 64, 56
1, 38335, Note_off_c, 0, 38, 61
1, 38342, Note_off_c, 0, 50, 67
1, 38348, Note_off_c, 0, 69, 61
1, 38368, Note_off_c, 0, 66, 63
1, 38375, Control_c, 0, 64, 55
1, 38377, Note_off_c, 0, 74, 63
1, 38419, Control_c, 0, 64, 55
1, 38449, Control_c, 0, 64, 54
1, 38471, Control_c, 0, 64, 54
1, 38486, Control_c, 0, 64, 53
1, 38490, Note_on_c, 0, 72, 77
1, 38496, Note_on_c, 0, 55, 64
1, 38501, Control_c, 0, 64, 52
1, 38510, Note_on_c, 0, 67, 66
1, 38515, Control_c, 0, 64, 51
1, 38521, Note_off_c, 0, 55, 66
1, 38527, Note_on_c, 0, 71, 79
1, 38530, Control_c, 0, 64, 50
1, 38545, Control_c, 0, 64, 50
1, 38560, Control_c, 0, 64, 49
1, 38568, Note_off_c, 0, 72, 60
1, 38575, Control_c, 0, 64, 49
1, 38635, Control_c, 0, 64, 49
1, 38685, Note_on_c, 0, 69, 80
1, 38688, Note_on_c, 0, 48, 72
1, 38696, Note_off_c, 0, 67, 61
1, 38697, Note_off_c, 0, 71, 64
1, 38723, Note_off_c, 0, 69, 62
1, 38727, Note_off_c, 0, 48, 63
1, 38754, Control_c, 0, 64, 50
1, 38827, Control_c, 0, 64, 49
1, 38842, Control_c, 0, 64, 46
1, 38857, Control_c, 0, 64, 38
1, 38871, Note_on_c, 0, 71, 68
1, 38872, Control_c, 0, 64, 29
1, 38875, Note_on_c, 0, 50, 62
1, 38875, Note_on_c, 0, 62, 66
1, 38877, Note_on_c, 0, 67, 68
1, 38887, Control_c, 0, 64, 19
1, 38902, Control_c, 0, 64, 0
1, 38911, Note_off_c, 0, 50, 62
1, 39055, Note_on_c, 0, 48, 71
1, 39069, Note_off_c, 0, 62, 61
1, 39092, Note_off_c, 0, 48, 62
1, 39255, Note_on_c, 0, 50, 65
1, 39265, Note_on_c, 0, 69, 66
1, 39268, Note_on_c, 0, 60, 49
1, 39273, Note_on_c, 0, 66, 62
1, 39286, Note_off_c, 0, 50, 66
1, 39294, Note_off_c, 0, 67, 43
1, 39337, Note_off_c, 0, 71, 57
1, 39436, Note_on_c, 0, 38, 65
1, 39442, Note_on_c, 0, 67, 65
1, 39462, Note_off_c, 0, 66, 61
1, 39462, Note_off_c, 0, 69, 60
1, 39463, Note_off_c, 0, 60, 63
1, 39465, Note_off_c, 0, 38, 63
1, 39479, Note_off_c, 0, 67, 63
1, 39628, Note_on_c, 0, 67, 61
1, 39634, Note_on_c, 0, 59, 49
1, 39635, Note_on_c, 0, 55, 54
1, 39673, Note_off_c, 0, 55, 60
1, 39708, Note_off_c, 0, 59, 39
1, 39825, Note_on_c, 0, 54, 60
1, 39825, Note_on_c, 0, 57, 62
1, 39861, Note_off_c, 0, 54, 62
1, 39885, Note_off_c, 0, 57, 57
1, 40012, Note_on_c, 0, 55, 66
1, 40014, Note_on_c, 0, 59, 63
1, 40049, Note_off_c, 0, 55, 61
1, 40052, Note_off_c, 0, 59, 59
1, 40124, Note_off_c, 0, 67, 58
1, 40195, Note_on_c, 0, 47, 59
1, 40204, Note_on_c, 0, 62, 63
1, 40233, Note_off_c, 0, 47, 64
1, 40242, Note_off_c, 0, 62, 60
1, 40380, Note_on_c, 0, 64, 66
1, 40382, Note_on_c, 0, 48, 54
1, 40414, Note_off_c, 0, 64, 62
1, 40417, Note_off_c, 0, 48, 63
1, 40504, Control_c, 0, 67, 8
1, 40519, Control_c, 0, 67, 15
1, 40533, Control_c, 0, 67, 25
1, 40548, Control_c, 0, 67, 38
1, 40559, Note_on_c, 0, 50, 60
1, 40562, Note_on_c, 0, 66, 63
1, 40563, Control_c, 0, 67, 50
1, 40578, Control_c, 0, 67, 60
1, 40589, Note_off_c, 0, 66, 65
1, 40589, Note_off_c, 0, 50, 67
1, 40592, Control_c, 0, 67, 70
1, 40607, Control_c, 0, 67, 76
1, 40622, Control_c, 0, 67, 81
1, 40637, Control_c, 0, 67, 85
1, 40652, Control_c, 0, 67, 86
1, 40697, Note_on_c, 0, 43, 48
1, 40718, Control_c, 0, 67, 85
1, 40724, Note_on_c, 0, 50, 31
1, 40733, Control_c, 0, 67, 85
1, 40744, Note_on_c, 0, 47, 41
1, 40748, Control_c, 0, 67, 84
1, 40763, Control_c, 0, 67, 83
1, 40778, Control_c, 0, 67, 82
1, 40792, Control_c, 0, 67, 82
1, 40796, Note_on_c, 0, 55, 54
1, 40815, Note_on_c, 0, 67, 58
1, 40822, Control_c, 0, 67, 81
1, 40833, Note_off_c, 0, 55, 65
1, 40866, Control_c, 0, 67, 81
1, 40872, Note_off_c, 0, 50, 58
1, 40878, Note_off_c, 0, 67, 54
1, 40887, Note_off_c, 0, 47, 58
1, 40910, Note_off_c, 0, 43, 38
1, 40936, Note_on_c, 0, 74, 69
1, 40955, Control_c, 0, 67, 80
1, 40966, Note_off_c, 0, 74, 62
1, 40970, Control_c, 0, 67, 80
1, 41001, Control_c, 0, 67, 79
1, 41015, Control_c, 0, 67, 79
1, 41030, Control_c, 0, 67, 78
1, 41045, Note_on_c, 0, 72, 63
1, 41045, Control_c, 0, 67, 78
1, 41060, Control_c, 0, 67, 77
1, 41075, Control_c, 0, 67, 77
1, 41078, Note_off_c, 0, 72, 60
1, 41089, Control_c, 0, 67, 76
1, 41104, Control_c, 0, 67, 75
1, 41119, Control_c, 0, 67, 75
1, 41149, Control_c, 0, 67, 74
1, 41153, Note_on_c, 0, 31, 53
1, 41153, Note_on_c, 0, 43, 51
1, 41158, Note_on_c, 0, 71, 66
1, 41183, Note_off_c, 0, 71, 68
1, 41260, Note_on_c, 0, 72, 64
1, 41289, Note_off_c, 0, 72, 64
1, 41366, Note_on_c, 0, 74, 70
1, 41392, Note_off_c, 0, 31, 61
1, 41402, Note_off_c, 0, 74, 59
1, 41412, Note_off_c, 0, 43, 63
1, 41485, Note_on_c, 0, 67, 65
1, 41526, Note_off_c, 0, 67, 53
1, 41580, Note_on_c, 0, 69, 69
1, 41600, Control_c, 0, 67, 74
1, 41607, Note_off_c, 0, 69, 62
1, 41683, Note_on_c, 0, 71, 72
1, 41719, Note_off_c, 0, 71, 56
1, 41720, Note_on_c, 0, 54, 46
1, 41733, Control_c, 0, 67, 74
1, 41764, Note_on_c, 0, 57, 38
1, 41778, Control_c, 0, 67, 75
1, 41793, Note_on_c, 0, 62, 57
1, 41797, Note_on_c, 0, 69, 73
1, 41823, Note_off_c, 0, 62, 64
1, 41823, Control_c, 0, 67, 75
1, 41835, Note_off_c, 0, 57, 62
1, 41838, Control_c, 0, 67, 76
1, 41847, Note_off_c, 0, 69, 57
1, 41850, Note_off_c, 0, 54, 65
1, 41897, Control_c, 0, 67, 76
1, 41903, Note_on_c, 0, 71, 73
1, 41942, Note_off_c, 0, 71, 57
1, 41956, Control_c, 0, 67, 77
1, 42007, Note_on_c, 0, 73, 75
1, 42044, Note_off_c, 0, 73, 55
1, 42060, Control_c, 0, 67, 76
1, 42104, Control_c, 0, 67, 76
1, 42118, Note_on_c, 0, 74, 72
1, 42120, Note_on_c, 0, 54, 51
1, 42121, Note_on_c, 0, 50, 50
1, 42128, Note_on_c, 0, 42, 39
1, 42142, Note_on_c, 0, 45, 46
1, 42178, Control_c, 0, 67, 75
1, 42181, Note_off_c, 0, 74, 57
1, 42233, Note_on_c, 0, 76, 65
1, 42273, Note_off_c, 0, 76, 56
1, 42321, Note_on_c, 0, 78, 79
1, 42362, Note_off_c, 0, 78, 60
1, 42386, Note_off_c, 0, 42, 44
1, 42421, Note_off_c, 0, 54, 64
1, 42425, Note_off_c, 0, 45, 57
1, 42434, Note_on_c, 0, 76, 84
1, 42440, Note_off_c, 0, 50, 64
1, 42476, Note_off_c, 0, 76, 62
1, 42482, Control_c, 0, 67, 75
1, 42511, Control_c, 0, 67, 74
1, 42537, Note_on_c, 0, 78, 82
1, 42541, Control_c, 0, 67, 74
1, 42556, Control_c, 0, 67, 73
1, 42586, Control_c, 0, 67, 73
1, 42591, Note_off_c, 0, 78, 62
1, 42616, Control_c, 0, 67, 72
1, 42649, Note_on_c, 0, 74, 82
1, 42660, Control_c, 0, 67, 72
1, 42675, Control_c, 0, 67, 70
1, 42690, Control_c, 0, 67, 68
1, 42695, Note_on_c, 0, 52, 61
1, 42705, Control_c, 0, 67, 68
1, 42720, Control_c, 0, 67, 67
1, 42730, Note_on_c, 0, 55, 52
1, 42730, Note_on_c, 0, 59, 50
1, 42732, Note_off_c, 0, 74, 58
1, 42735, Control_c, 0, 67, 66
1, 42765, Control_c, 0, 67, 66
1, 42775, Note_on_c, 0, 79, 78
1, 42783, Note_on_c, 0, 62, 57
1, 42809, Control_c, 0, 67, 65
1, 42819, Note_off_c, 0, 52, 59
1, 42827, Note_off_c, 0, 79, 62
1, 42833, Note_off_c, 0, 62, 59
1, 42839, Control_c, 0, 67, 64
1, 42853, Note_off_c, 0, 59, 62
1, 42853, Control_c, 0, 67, 63
1, 42855, Note_off_c, 0, 55, 64
1, 42868, Control_c, 0, 67, 61
1, 42872, Note_on_c, 0, 81, 77
1, 42883, Control_c, 0, 67, 58
1, 42898, Control_c, 0, 67, 56
1, 42912, Control_c, 0, 67, 54
1, 42924, Note_off_c, 0, 81, 62
1, 42927, Control_c, 0, 67, 53
1, 42942, Control_c, 0, 67, 53
1, 42964, Control_c, 0, 67, 52
1, 42986, Note_on_c, 0, 83, 79
1, 43029, Note_off_c, 0, 83, 64
1, 43083, Control_c, 0, 67, 53
1, 43099, Note_on_c, 0, 61, 58
1, 43100, Note_on_c, 0, 73, 81
1, 43102, Note_on_c, 0, 57, 55
1, 43151, Note_off_c, 0, 73, 61
1, 43157, Control_c, 0, 67, 53
1, 43209, Note_on_c, 0, 74, 79
1, 43239, Note_off_c, 0, 74, 64
1, 43314, Note_on_c, 0, 76, 72
1, 43355, Note_off_c, 0, 76, 62
1, 43413, Note_off_c, 0, 61, 61
1, 43415, Note_on_c, 0, 69, 77
1, 43416, Note_off_c, 0, 57, 60
1, 43466, Note_off_c, 0, 69, 60
1, 43483, Control_c, 0, 67, 54
1, 43522, Note_on_c, 0, 81, 74
1, 43561, Note_off_c, 0, 81, 61
1, 43588, Control_c, 0, 67, 53
1, 43628, Note_on_c, 0, 79, 77
1, 43651, Note_on_c, 0, 50, 59
1, 43667, Note_on_c, 0, 54, 54
1, 43676, Note_on_c, 0, 57, 55
1, 43686, Note_off_c, 0, 79, 62
1, 43751, Note_on_c, 0, 78, 79
1, 43757, Note_on_c, 0, 62, 73
1, 43773, Control_c, 0, 67, 54
1, 43776, Note_off_c, 0, 50, 61
1, 43805, Note_off_c, 0, 62, 59
1, 43808, Note_off_c, 0, 78, 62
1, 43823, Note_off_c, 0, 57, 61
1, 43823, Note_off_c, 0, 54, 64
1, 43854, Note_on_c, 0, 79, 72
1, 43899, Note_off_c, 0, 79, 60
1, 43963, Note_on_c, 0, 81, 75
1, 44006, Note_off_c, 0, 81, 58
1, 44085, Note_on_c, 0, 62, 51
1, 44088, Note_on_c, 0, 57, 47
1, 44090, Note_on_c, 0, 74, 65
1, 44094, Note_on_c, 0, 54, 50
1, 44132, Note_off_c, 0, 74, 63
1, 44173, Control_c, 0, 67, 53
1, 44195, Note_on_c, 0, 76, 70
1, 44231, Note_off_c, 0, 76, 57
1, 44301, Note_on_c, 0, 78, 78
1, 44337, Note_off_c, 0, 78, 58
1, 44337, Control_c, 0, 67, 54
1, 44422, Note_on_c, 0, 69, 74
1, 44426, Note_off_c, 0, 62, 61
1, 44461, Note_off_c, 0, 57, 62
1, 44473, Note_off_c, 0, 54, 63
1, 44480, Note_off_c, 0, 69, 60
1, 44532, Note_on_c, 0, 71, 76
1, 44565, Note_off_c, 0, 71, 60
1, 44566, Control_c, 0, 67, 53
1, 44636, Note_on_c, 0, 72, 71
1, 44655, Control_c, 0, 67, 53
1, 44672, Note_off_c, 0, 72, 56
1, 44736, Note_on_c, 0, 55, 48
1, 44741, Note_on_c, 0, 59, 48
1, 44744, Note_on_c, 0, 62, 39
1, 44744, Note_on_c, 0, 71, 66
1, 44786, Note_off_c, 0, 62, 62
1, 44789, Control_c, 0, 67, 53
1, 44794, Note_off_c, 0, 71, 53
1, 44825, Note_off_c, 0, 59, 61
1, 44834, Note_off_c, 0, 55, 65
1, 44857, Note_on_c, 0, 72, 57
1, 44878, Control_c, 0, 67, 53
1, 44895, Note_off_c, 0, 72, 61
1, 44966, Note_on_c, 0, 74, 60
1, 44997, Control_c, 0, 67, 52
1, 45001, Note_off_c, 0, 74, 64
1, 45086, Control_c, 0, 67, 52
1, 45089, Note_on_c, 0, 67, 58
1, 45090, Note_on_c, 0, 55, 48
1, 45096, Note_on_c, 0, 47, 36
1, 45100, Note_on_c, 0, 50, 49
1, 45105, Note_on_c, 0, 59, 41
1, 45126, Note_off_c, 0, 67, 59
1, 45174, Control_c, 0, 67, 51
1, 45210, Note_on_c, 0, 69, 52
1, 45237, Note_off_c, 0, 69, 60
1, 45310, Note_on_c, 0, 71, 68
1, 45337, Note_off_c, 0, 71, 64
1, 45424, Note_on_c, 0, 62, 64
1, 45430, Note_off_c, 0, 59, 61
1, 45431, Note_off_c, 0, 47, 45
1, 45463, Control_c, 0, 67, 52
1, 45464, Note_off_c, 0, 62, 60
1, 45467, Note_off_c, 0, 55, 64
1, 45483, Note_off_c, 0, 50, 64
1, 45532, Note_on_c, 0, 64, 60
1, 45569, Note_off_c, 0, 64, 63
1, 45629, Note_on_c, 0, 66, 60
1, 45662, Note_off_c, 0, 66, 60
1, 45749, Note_on_c, 0, 64, 65
1, 45750, Note_on_c, 0, 55, 47
1, 45753, Note_on_c, 0, 52, 49
1, 45764, Note_on_c, 0, 48, 44
1, 45835, Note_off_c, 0, 55, 64
1, 45838, Note_off_c, 0, 64, 36
1, 45856, Note_off_c, 0, 52, 62
1, 45863, Note_on_c, 0, 66, 69
1, 45865, Note_off_c, 0, 48, 63
1, 45911, Note_off_c, 0, 66, 56
1, 45974, Control_c, 0, 67, 52
1, 45980, Note_on_c, 0, 67, 69
1, 46025, Note_off_c, 0, 67, 59
1, 46090, Note_on_c, 0, 54, 60
1, 46097, Note_on_c, 0, 66, 67
1, 46097, Note_on_c, 0, 45, 50
1, 46101, Note_on_c, 0, 48, 52
1, 46103, Note_on_c, 0, 60, 51
1, 46137, Note_off_c, 0, 60, 65
1, 46167, Note_off_c, 0, 66, 47
1, 46181, Control_c, 0, 67, 52
1, 46199, Note_on_c, 0, 67, 74
1, 46243, Note_off_c, 0, 67, 59
1, 46273, Note_off_c, 0, 54, 64
1, 46293, Note_off_c, 0, 45, 58
1, 46294, Note_off_c, 0, 48, 57
1, 46314, Note_on_c, 0, 69, 73
1, 46354, Note_off_c, 0, 69, 63
1, 46403, Control_c, 0, 67, 51
1, 46426, Note_on_c, 0, 67, 81
1, 46431, Note_on_c, 0, 55, 72
1, 46433, Note_on_c, 0, 50, 64
1, 46435, Note_on_c, 0, 47, 63
1, 46436, Note_on_c, 0, 62, 58
1, 46465, Note_off_c, 0, 62, 64
1, 46490, Note_off_c, 0, 67, 54
1, 46536, Note_on_c, 0, 69, 79
1, 46579, Note_off_c, 0, 55, 63
1, 46587, Note_off_c, 0, 47, 64
1, 46591, Note_off_c, 0, 69, 61
1, 46601, Note_off_c, 0, 50, 65
1, 46644, Note_on_c, 0, 71, 86
1, 46656, Control_c, 0, 67, 52
1, 46706, Note_off_c, 0, 71, 65
1, 46766, Note_on_c, 0, 57, 68
1, 46766, Note_on_c, 0, 69, 81
1, 46772, Note_on_c, 0, 52, 64
1, 46774, Note_on_c, 0, 48, 59
1, 46781, Note_on_c, 0, 64, 58
1, 46813, Note_off_c, 0, 64, 66
1, 46823, Note_off_c, 0, 69, 61
1, 46874, Note_on_c, 0, 71, 72
1, 46918, Note_off_c, 0, 48, 59
1, 46919, Note_off_c, 0, 71, 65
1, 46927, Note_off_c, 0, 57, 61
1, 46937, Note_off_c, 0, 52, 62
1, 46981, Note_on_c, 0, 72, 79
1, 47024, Note_off_c, 0, 72, 61
1, 47093, Control_c, 0, 67, 52
1, 47093, Note_on_c, 0, 59, 64
1, 47094, Note_on_c, 0, 55, 59
1, 47096, Note_on_c, 0, 62, 70
1, 47097, Note_on_c, 0, 50, 55
1, 47144, Note_off_c, 0, 62, 59
1, 47215, Note_on_c, 0, 64, 73
1, 47224, Note_off_c, 0, 59, 60
1, 47245, Note_off_c, 0, 64, 63
1, 47323, Note_on_c, 0, 66, 70
1, 47347, Note_off_c, 0, 66, 67
1, 47421, Note_on_c, 0, 67, 62
1, 47433, Note_off_c, 0, 55, 64
1, 47457, Note_on_c, 0, 57, 66
1, 47470, Note_off_c, 0, 67, 62
1, 47472, Note_on_c, 0, 66, 70
1, 47510, Note_off_c, 0, 66, 62
1, 47527, Note_on_c, 0, 67, 66
1, 47561, Note_off_c, 0, 57, 62
1, 47593, Note_on_c, 0, 66, 66
1, 47594, Note_off_c, 0, 50, 66
1, 47602, Note_off_c, 0, 67, 57
1, 47627, Note_off_c, 0, 66, 65
1, 47636, Control_c, 0, 67, 53
1, 47642, Note_on_c, 0, 64, 76
1, 47680, Control_c, 0, 67, 53
1, 47707, Note_on_c, 0, 66, 71
1, 47709, Control_c, 0, 67, 54
1, 47713, Note_off_c, 0, 64, 62
1, 47724, Control_c, 0, 67, 54
1, 47739, Control_c, 0, 67, 55
1, 47754, Control_c, 0, 67, 56
1, 47769, Control_c, 0, 67, 58
1, 47773, Note_off_c, 0, 66, 51
1, 47783, Control_c, 0, 67, 59
1, 47784, Note_on_c, 0, 67, 71
1, 47789, Note_on_c, 0, 55, 51
1, 47796, Note_on_c, 0, 50, 52
1, 47798, Note_on_c, 0, 43, 43
1, 47798, Control_c, 0, 67, 60
1, 47804, Note_on_c, 0, 47, 36
1, 47813, Control_c, 0, 67, 61
1, 47814, Note_off_c, 0, 67, 63
1, 47828, Control_c, 0, 67, 62
1, 47843, Control_c, 0, 67, 64
1, 47857, Control_c, 0, 67, 65
1, 47872, Control_c, 0, 67, 66
1, 47887, Control_c, 0, 67, 71
1, 47901, Control_c, 0, 67, 76
1, 47910, Note_on_c, 0, 62, 71
1, 47916, Control_c, 0, 67, 82
1, 47931, Control_c, 0, 67, 90
1, 47937, Note_off_c, 0, 62, 66
1, 47946, Control_c, 0, 67, 99
1, 47961, Control_c, 0, 67, 108
1, 47975, Control_c, 0, 67, 117
1, 47990, Control_c, 0, 67, 124
1, 48005, Control_c, 0, 67, 127
1, 48027, Note_on_c, 0, 60, 63
1, 48059, Note_off_c, 0, 60, 64
1, 48138, Note_on_c, 0, 59, 67
1, 48166, Note_off_c, 0, 59, 64
1, 48210, Note_off_c, 0, 55, 60
1, 48244, Note_off_c, 0, 43, 41
1, 48247, Note_off_c, 0, 50, 64
1, 48250, Note_on_c, 0, 60, 65
1, 48270, Note_off_c, 0, 47, 51
1, 48288, Note_off_c, 0, 60, 59
1, 48368, Note_on_c, 0, 62, 68
1, 48397, Note_off_c, 0, 62, 65
1, 48485, Note_on_c, 0, 43, 54
1, 48488, Note_on_c, 0, 55, 51
1, 48536, Note_off_c, 0, 43, 0
1, 48536, Note_on_c, 0, 43, 13
1, 48546, Control_c, 0, 67, 127
1, 48561, Control_c, 0, 67, 126
1, 48582, Note_on_c, 0, 69, 61
1, 48591, Control_c, 0, 67, 126
1, 48599, Note_off_c, 0, 69, 64
1, 48605, Control_c, 0, 67, 125
1, 48620, Control_c, 0, 67, 125
1, 48631, Note_on_c, 0, 67, 58
1, 48635, Control_c, 0, 67, 124
1, 48660, Note_off_c, 0, 67, 63
1, 48665, Control_c, 0, 67, 124
1, 48667, Note_on_c, 0, 69, 60
1, 48682, Note_on_c, 0, 71, 42
1, 48689, Note_off_c, 0, 69, 63
1, 48711, Note_off_c, 0, 71, 36
1, 48715, Note_on_c, 0, 67, 67
1, 48735, Note_off_c, 0, 43, 58
1, 48750, Note_off_c, 0, 55, 64
1, 48762, Note_off_c, 0, 67, 60
1, 48765, Note_on_c, 0, 66, 61
1, 48793, Note_off_c, 0, 66, 65
1, 48902, Note_on_c, 0, 71, 64
1, 48908, Note_on_c, 0, 74, 63
1, 48949, Note_on_c, 0, 67, 35
1, 49035, Note_on_c, 0, 62, 56
1, 49070, Note_off_c, 0, 62, 61
1, 49145, Note_on_c, 0, 60, 58
1, 49175, Note_off_c, 0, 60, 66
1, 49249, Note_on_c, 0, 59, 70
1, 49286, Note_off_c, 0, 59, 59
1, 49357, Note_on_c, 0, 60, 71
1, 49369, Note_off_c, 0, 67, 58
1, 49394, Note_off_c, 0, 74, 59
1, 49396, Note_off_c, 0, 60, 60
1, 49396, Note_off_c, 0, 71, 61
1, 49463, Note_on_c, 0, 62, 68
1, 49490, Note_off_c, 0, 62, 65
1, 49517, Control_c, 0, 67, 123
1, 49532, Control_c, 0, 67, 123
1, 49561, Control_c, 0, 67, 122
1, 49574, Note_on_c, 0, 55, 67
1, 49576, Note_on_c, 0, 71, 67
1, 49576, Control_c, 0, 67, 121
1, 49581, Note_on_c, 0, 67, 61
1, 49581, Note_on_c, 0, 74, 66
1, 49591, Control_c, 0, 67, 119
1, 49606, Control_c, 0, 67, 115
1, 49615, Note_off_c, 0, 55, 60
1, 49621, Control_c, 0, 67, 110
1, 49627, Note_off_c, 0, 67, 58
1, 49636, Control_c, 0, 67, 105
1, 49648, Note_off_c, 0, 74, 63
1, 49651, Control_c, 0, 67, 100
1, 49663, Note_off_c, 0, 71, 63
1, 49665, Control_c, 0, 67, 95
1, 49680, Control_c, 0, 67, 92
1, 49684, Note_on_c, 0, 57, 72
1, 49702, Control_c, 0, 67, 89
1, 49717, Control_c, 0, 67, 87
1, 49732, Control_c, 0, 67, 84
1, 49733, Note_off_c, 0, 57, 59
1, 49746, Control_c, 0, 67, 82
1, 49761, Control_c, 0, 67, 80
1, 49777, Control_c, 0, 67, 78
1, 49792, Control_c, 0, 67, 76
1, 49797, Note_on_c, 0, 59, 68
1, 49807, Control_c, 0, 67, 74
1, 49822, Control_c, 0, 67, 73
1, 49831, Note_off_c, 0, 59, 59
1, 49837, Control_c, 0, 67, 71
1, 49851, Control_c, 0, 67, 69
1, 49866, Control_c, 0, 67, 67
1, 49881, Control_c, 0, 67, 64
1, 49895, Control_c, 0, 67, 62
1, 49909, Note_on_c, 0, 54, 61
1, 49910, Control_c, 0, 67, 61
1, 49914, Note_on_c, 0, 74, 74
1, 49916, Note_on_c, 0, 69, 60
1, 49925, Control_c, 0, 67, 59
1, 49928, Note_on_c, 0, 62, 59
1, 49940, Control_c, 0, 67, 57
1, 49951, Note_off_c, 0, 54, 61
1, 49955, Control_c, 0, 67, 56
1, 49970, Control_c, 0, 67, 54
1, 49985, Control_c, 0, 67, 52
1, 49999, Control_c, 0, 67, 51
1, 50014, Control_c, 0, 67, 49
1, 50028, Note_on_c, 0, 55, 68
1, 50029, Control_c, 0, 67, 48
1, 50044, Control_c, 0, 67, 46
1, 50059, Control_c, 0, 67, 44
1, 50073, Note_off_c, 0, 55, 62
1, 50074, Control_c, 0, 67, 42
1, 50089, Control_c, 0, 67, 41
1, 50103, Control_c, 0, 67, 39
1, 50118, Control_c, 0, 67, 37
1, 50133, Control_c, 0, 67, 35
1, 50135, Note_on_c, 0, 57, 70
1, 50148, Control_c, 0, 67, 34
1, 50163, Control_c, 0, 67, 32
1, 50174, Note_off_c, 0, 57, 61
1, 50177, Control_c, 0, 67, 32
1, 50192, Control_c, 0, 67, 31
1, 50222, Control_c, 0, 67, 31
1, 50240, Note_off_c, 0, 62, 59
1, 50245, Note_on_c, 0, 50, 73
1, 50267, Control_c, 0, 67, 30
1, 50279, Note_off_c, 0, 74, 64
1, 50291, Note_off_c, 0, 69, 61
1, 50300, Note_off_c, 0, 50, 62
1, 50311, Control_c, 0, 67, 30
1, 50326, Control_c, 0, 67, 29
1, 50341, Control_c, 0, 67, 28
1, 50356, Control_c, 0, 67, 26
1, 50358, Note_on_c, 0, 62, 77
1, 50370, Control_c, 0, 67, 24
1, 50385, Control_c, 0, 67, 22
1, 50400, Control_c, 0, 67, 19
1, 50408, Note_off_c, 0, 62, 62
1, 50415, Control_c, 0, 67, 16
1, 50430, Control_c, 0, 67, 12
1, 50452, Control_c, 0, 67, 9
1, 50467, Control_c, 0, 67, 0
1, 50467, Note_on_c, 0, 61, 78
1, 50526, Note_off_c, 0, 61, 61
1, 50577, Note_on_c, 0, 59, 74
1, 50584, Note_on_c, 0, 74, 84
1, 50587, Note_on_c, 0, 71, 75
1, 50588, Note_on_c, 0, 66, 74
1, 50643, Note_off_c, 0, 59, 60
1, 50645, Note_off_c, 0, 66, 61
1, 50669, Note_off_c, 0, 71, 63
1, 50684, Note_on_c, 0, 61, 79
1, 50685, Note_off_c, 0, 74, 63
1, 50748, Note_off_c, 0, 61, 61
1, 50798, Note_on_c, 0, 62, 74
1, 50843, Note_off_c, 0, 62, 56
1, 50918, Note_on_c, 0, 52, 65
1, 50921, Note_on_c, 0, 79, 78
1, 50932, Note_on_c, 0, 71, 61
1, 50935, Note_on_c, 0, 74, 61
1, 50941, Note_on_c, 0, 67, 62
1, 50956, Note_off_c, 0, 52, 62
1, 51041, Note_on_c, 0, 64, 74
1, 51077, Note_off_c, 0, 64, 63
1, 51147, Note_on_c, 0, 62, 81
1, 51206, Note_off_c, 0, 62, 62
1, 51270, Note_on_c, 0, 61, 82
1, 51322, Note_off_c, 0, 61, 61
1, 51331, Note_off_c, 0, 67, 60
1, 51365, Note_off_c, 0, 71, 64
1, 51367, Note_off_c, 0, 79, 60
1, 51368, Note_on_c, 0, 62, 76
1, 51383, Note_off_c, 0, 74, 64
1, 51433, Note_off_c, 0, 62, 53
1, 51478, Note_on_c, 0, 64, 84
1, 51519, Note_off_c, 0, 64, 62
1, 51597, Note_on_c, 0, 57, 77
1, 51604, Note_on_c, 0, 79, 76
1, 51614, Note_on_c, 0, 69, 68
1, 51619, Note_on_c, 0, 76, 66
1, 51620, Note_on_c, 0, 73, 63
1, 51638, Note_off_c, 0, 57, 61
1, 51703, Note_on_c, 0, 59, 75
1, 51736, Note_off_c, 0, 69, 56
1, 51740, Note_off_c, 0, 59, 58
1, 51758, Note_off_c, 0, 76, 60
1, 51761, Note_off_c, 0, 73, 57
1, 51765, Note_off_c, 0, 79, 58
1, 51815, Note_on_c, 0, 61, 73
1, 51848, Note_off_c, 0, 61, 62
1, 51934, Note_on_c, 0, 62, 65
1, 51943, Note_on_c, 0, 78, 69
1, 51947, Note_on_c, 0, 74, 66
1, 51953, Note_on_c, 0, 69, 61
1, 51980, Note_off_c, 0, 62, 57
1, 52068, Note_on_c, 0, 57, 47
1, 52095, Note_off_c, 0, 57, 57
1, 52170, Note_on_c, 0, 55, 66
1, 52203, Note_off_c, 0, 55, 63
1, 52281, Note_on_c, 0, 54, 77
1, 52318, Note_off_c, 0, 54, 63
1, 52376, Note_off_c, 0, 69, 56
1, 52382, Note_on_c, 0, 55, 79
1, 52418, Note_off_c, 0, 74, 62
1, 52429, Note_off_c, 0, 55, 59
1, 52431, Note_off_c, 0, 78, 59
1, 52491, Note_on_c, 0, 57, 82
1, 52536, Note_off_c, 0, 57, 60
1, 52611, Note_on_c, 0, 50, 78
1, 52617, Note_on_c, 0, 78, 82
1, 52617, Note_on_c, 0, 74, 80
1, 52625, Note_on_c, 0, 69, 72
1, 52653, Note_off_c, 0, 50, 62
1, 52661, Control_c, 0, 64, 14
1, 52663, Note_off_c, 0, 69, 57
1, 52676, Control_c, 0, 64, 21
1, 52697, Control_c, 0, 64, 26
1, 52712, Note_off_c, 0, 74, 63
1, 52712, Control_c, 0, 64, 28
1, 52727, Control_c, 0, 64, 30
1, 52728, Note_on_c, 0, 52, 80
1, 52740, Note_off_c, 0, 78, 61
1, 52742, Control_c, 0, 64, 33
1, 52757, Control_c, 0, 64, 36
1, 52772, Control_c, 0, 64, 38
1, 52787, Control_c, 0, 64, 41
1, 52790, Note_off_c, 0, 52, 60
1, 52801, Control_c, 0, 64, 42
1, 52816, Control_c, 0, 64, 44
1, 52831, Control_c, 0, 64, 45
1, 52836, Note_on_c, 0, 54, 79
1, 52846, Control_c, 0, 64, 46
1, 52873, Note_off_c, 0, 54, 58
1, 52905, Control_c, 0, 64, 45
1, 52920, Control_c, 0, 64, 44
1, 52935, Control_c, 0, 64, 43
1, 52950, Control_c, 0, 64, 43
1, 52957, Note_on_c, 0, 47, 71
1, 52958, Note_on_c, 0, 79, 87
1, 52965, Control_c, 0, 64, 42
1, 52966, Note_on_c, 0, 71, 73
1, 52966, Note_on_c, 0, 74, 73
1, 52980, Control_c, 0, 64, 42
1, 52995, Control_c, 0, 64, 41
1, 52998, Note_off_c, 0, 47, 61
1, 53010, Control_c, 0, 64, 40
1, 53025, Control_c, 0, 64, 39
1, 53040, Control_c, 0, 64, 38
1, 53055, Control_c, 0, 64, 38
1, 53069, Control_c, 0, 64, 37
1, 53082, Note_on_c, 0, 48, 75
1, 53099, Control_c, 0, 64, 36
1, 53126, Note_off_c, 0, 48, 61
1, 53128, Control_c, 0, 64, 36
1, 53182, Note_on_c, 0, 50, 78
1, 53223, Note_off_c, 0, 50, 64
1, 53233, Control_c, 0, 64, 36
1, 53292, Control_c, 0, 64, 37
1, 53305, Note_on_c, 0, 43, 84
1, 53321, Control_c, 0, 64, 38
1, 53348, Note_off_c, 0, 71, 59
1, 53356, Note_off_c, 0, 43, 62
1, 53363, Note_off_c, 0, 79, 62
1, 53389, Note_off_c, 0, 74, 65
1, 53420, Note_on_c, 0, 55, 77
1, 53488, Note_off_c, 0, 55, 59
1, 53529, Note_on_c, 0, 54, 79
1, 53551, Control_c, 0, 64, 36
1, 53566, Control_c, 0, 64, 35
1, 53581, Control_c, 0, 64, 33
1, 53588, Note_off_c, 0, 54, 62
1, 53595, Control_c, 0, 64, 31
1, 53610, Control_c, 0, 64, 29
1, 53625, Control_c, 0, 64, 28
1, 53639, Note_on_c, 0, 52, 72
1, 53645, Note_on_c, 0, 74, 81
1, 53648, Note_on_c, 0, 67, 77
1, 53651, Note_on_c, 0, 71, 71
1, 53703, Note_off_c, 0, 52, 61
1, 53714, Control_c, 0, 64, 29
1, 53729, Control_c, 0, 64, 30
1, 53743, Control_c, 0, 64, 31
1, 53746, Note_on_c, 0, 54, 79
1, 53774, Control_c, 0, 64, 32
1, 53804, Control_c, 0, 64, 33
1, 53806, Note_off_c, 0, 54, 64
1, 53812, Note_off_c, 0, 67, 58
1, 53833, Control_c, 0, 64, 34
1, 53835, Note_off_c, 0, 71, 62
1, 53835, Note_off_c, 0, 74, 60
1, 53848, Control_c, 0, 64, 35
1, 53862, Note_on_c, 0, 55, 75
1, 53863, Control_c, 0, 64, 36
1, 53878, Control_c, 0, 64, 37
1, 53892, Control_c, 0, 64, 38
1, 53895, Note_off_c, 0, 55, 65
1, 53979, Note_on_c, 0, 48, 71
1, 53985, Note_on_c, 0, 76, 69
1, 53990, Note_on_c, 0, 72, 61
1, 53994, Note_on_c, 0, 67, 63
1, 54022, Note_off_c, 0, 48, 61
1, 54096, Note_on_c, 0, 60, 77
1, 54100, Control_c, 0, 64, 38
1, 54111, Note_off_c, 0, 72, 63
1, 54115, Control_c, 0, 64, 39
1, 54144, Control_c, 0, 64, 40
1, 54150, Note_off_c, 0, 60, 63
1, 54174, Control_c, 0, 64, 40
1, 54211, Note_on_c, 0, 59, 83
1, 54211, Control_c, 0, 64, 41
1, 54226, Control_c, 0, 64, 42
1, 54241, Control_c, 0, 64, 42
1, 54261, Note_off_c, 0, 59, 63
1, 54316, Note_on_c, 0, 57, 79
1, 54319, Note_on_c, 0, 72, 75
1, 54321, Note_on_c, 0, 69, 77
1, 54359, Control_c, 0, 64, 43
1, 54368, Note_off_c, 0, 57, 62
1, 54369, Note_off_c, 0, 67, 59
1, 54374, Control_c, 0, 64, 43
1, 54388, Note_off_c, 0, 76, 53
1, 54404, Control_c, 0, 64, 44
1, 54418, Control_c, 0, 64, 44
1, 54433, Note_on_c, 0, 55, 84
1, 54448, Control_c, 0, 64, 45
1, 54462, Control_c, 0, 64, 45
1, 54477, Control_c, 0, 64, 46
1, 54482, Note_off_c, 0, 55, 64
1, 54492, Control_c, 0, 64, 46
1, 54522, Control_c, 0, 64, 47
1, 54541, Note_on_c, 0, 54, 79
1, 54591, Note_off_c, 0, 54, 59
1, 54668, Note_on_c, 0, 55, 71
1, 54669, Note_on_c, 0, 71, 78
1, 54676, Note_on_c, 0, 67, 73
1, 54685, Control_c, 0, 64, 47
1, 54688, Note_off_c, 0, 69, 59
1, 54700, Note_off_c, 0, 55, 64
1, 54780, Note_on_c, 0, 54, 70
1, 54812, Note_off_c, 0, 72, 36
1, 54823, Note_off_c, 0, 54, 59
1, 54894, Note_on_c, 0, 52, 77
1, 54929, Note_off_c, 0, 52, 64
1, 55013, Note_on_c, 0, 50, 73
1, 55025, Note_off_c, 0, 71, 61
1, 55057, Note_off_c, 0, 50, 60
1, 55108, Control_c, 0, 64, 48
1, 55127, Note_on_c, 0, 52, 69
1, 55160, Note_off_c, 0, 52, 62
1, 55195, Note_on_c, 0, 72, 74
1, 55197, Control_c, 0, 64, 48
1, 55199, Note_on_c, 0, 69, 62
1, 55206, Note_off_c, 0, 67, 55
1, 55211, Control_c, 0, 64, 49
1, 55226, Control_c, 0, 64, 50
1, 55231, Note_off_c, 0, 69, 60
1, 55241, Control_c, 0, 64, 52
1, 55256, Control_c, 0, 64, 54
1, 55263, Note_on_c, 0, 48, 67
1, 55271, Control_c, 0, 64, 55
1, 55285, Control_c, 0, 64, 56
1, 55296, Note_off_c, 0, 48, 62
1, 55300, Control_c, 0, 64, 57
1, 55315, Control_c, 0, 64, 57
1, 55330, Control_c, 0, 64, 58
1, 55377, Note_on_c, 0, 71, 64
1, 55377, Note_off_c, 0, 72, 60
1, 55381, Note_on_c, 0, 67, 61
1, 55385, Note_on_c, 0, 62, 55
1, 55405, Note_on_c, 0, 52, 43
1, 55405, Control_c, 0, 64, 57
1, 55420, Control_c, 0, 64, 57
1, 55435, Control_c, 0, 64, 56
1, 55436, Note_off_c, 0, 52, 52
1, 55448, Note_on_c, 0, 50, 64
1, 55450, Control_c, 0, 64, 54
1, 55464, Control_c, 0, 64, 52
1, 55479, Control_c, 0, 64, 50
1, 55479, Control_c, 0, 67, 9
1, 55494, Control_c, 0, 64, 48
1, 55494, Control_c, 0, 67, 15
1, 55495, Note_off_c, 0, 50, 60
1, 55506, Note_off_c, 0, 67, 62
1, 55508, Control_c, 0, 64, 45
1, 55508, Control_c, 0, 67, 23
1, 55522, Note_off_c, 0, 62, 60
1, 55523, Control_c, 0, 64, 40
1, 55523, Control_c, 0, 67, 34
1, 55527, Note_on_c, 0, 52, 56
1, 55538, Control_c, 0, 64, 37
1, 55538, Control_c, 0, 67, 45
1, 55553, Control_c, 0, 64, 31
1, 55553, Control_c, 0, 67, 58
1, 55568, Note_off_c, 0, 52, 63
1, 55568, Control_c, 0, 64, 23
1, 55568, Control_c, 0, 67, 68
1, 55583, Control_c, 0, 64, 0
1, 55583, Control_c, 0, 67, 76
1, 55585, Note_on_c, 0, 50, 68
1, 55598, Control_c, 0, 67, 84
1, 55612, Control_c, 0, 67, 91
1, 55626, Note_off_c, 0, 50, 66
1, 55627, Control_c, 0, 67, 97
1, 55642, Control_c, 0, 67, 102
1, 55648, Note_on_c, 0, 52, 67
1, 55657, Control_c, 0, 67, 107
1, 55672, Control_c, 0, 67, 109
1, 55694, Control_c, 0, 67, 110
1, 55699, Note_off_c, 0, 52, 61
1, 55715, Note_on_c, 0, 50, 67
1, 55745, Note_on_c, 0, 69, 65
1, 55751, Note_on_c, 0, 60, 53
1, 55753, Note_off_c, 0, 71, 58
1, 55753, Note_on_c, 0, 66, 55
1, 55756, Note_off_c, 0, 50, 67
1, 55783, Note_on_c, 0, 52, 56
1, 55797, Control_c, 0, 67, 109
1, 55812, Control_c, 0, 67, 108
1, 55822, Note_off_c, 0, 52, 62
1, 55827, Control_c, 0, 67, 107
1, 55833, Note_on_c, 0, 50, 67
1, 55842, Control_c, 0, 64, 28
1, 55842, Control_c, 0, 67, 106
1, 55857, Control_c, 0, 64, 53
1, 55857, Control_c, 0, 67, 104
1, 55872, Control_c, 0, 64, 62
1, 55872, Control_c, 0, 67, 103
1, 55887, Control_c, 0, 64, 64
1, 55887, Control_c, 0, 67, 102
1, 55896, Note_off_c, 0, 50, 65
1, 55902, Control_c, 0, 64, 65
1, 55902, Control_c, 0, 67, 102
1, 55914, Note_on_c, 0, 48, 58
1, 55916, Control_c, 0, 64, 66
1, 55916, Control_c, 0, 67, 101
1, 55931, Control_c, 0, 64, 66
1, 55931, Control_c, 0, 67, 100
1, 55943, Note_on_c, 0, 67, 67
1, 55946, Control_c, 0, 64, 67
1, 55946, Control_c, 0, 67, 99
1, 55961, Control_c, 0, 67, 99
1, 55963, Note_off_c, 0, 48, 62
1, 55967, Note_off_c, 0, 66, 58
1, 55975, Note_off_c, 0, 69, 59
1, 55976, Control_c, 0, 67, 98
1, 55980, Note_off_c, 0, 60, 56
1, 55990, Control_c, 0, 67, 97
1, 55992, Note_on_c, 0, 50, 59
1, 56003, Note_off_c, 0, 67, 61
1, 56005, Control_c, 0, 67, 97
1, 56020, Control_c, 0, 67, 96
1, 56034, Control_c, 0, 67, 96
1, 56038, Note_off_c, 0, 50, 61
1, 56049, Control_c, 0, 67, 95
1, 56064, Control_c, 0, 67, 94
1, 56079, Control_c, 0, 64, 66
1, 56079, Control_c, 0, 67, 94
1, 56094, Control_c, 0, 64, 64
1, 56094, Control_c, 0, 67, 93
1, 56109, Control_c, 0, 64, 62
1, 56109, Control_c, 0, 67, 93
1, 56122, Note_on_c, 0, 55, 55
1, 56123, Control_c, 0, 64, 60
1, 56134, Note_on_c, 0, 67, 53
1, 56138, Control_c, 0, 64, 58
1, 56143, Note_on_c, 0, 59, 44
1, 56151, Note_on_c, 0, 62, 40
1, 56153, Control_c, 0, 64, 56
1, 56164, Note_off_c, 0, 55, 60
1, 56169, Control_c, 0, 64, 55
1, 56184, Control_c, 0, 64, 53
1, 56184, Control_c, 0, 67, 92
1, 56199, Control_c, 0, 64, 50
1, 56213, Control_c, 0, 64, 45
1, 56228, Control_c, 0, 64, 37
1, 56228, Control_c, 0, 67, 92
1, 56241, Note_on_c, 0, 50, 60
1, 56243, Control_c, 0, 64, 17
1, 56257, Control_c, 0, 64, 0
1, 56257, Control_c, 0, 67, 91
1, 56271, Note_off_c, 0, 50, 66
1, 56272, Control_c, 0, 67, 90
1, 56287, Control_c, 0, 67, 89
1, 56302, Control_c, 0, 67, 87
1, 56317, Control_c, 0, 67, 86
1, 56331, Control_c, 0, 67, 85
1, 56346, Control_c, 0, 67, 84
1, 56352, Note_on_c, 0, 48, 66
1, 56361, Control_c, 0, 67, 83
1, 56376, Control_c, 0, 67, 83
1, 56382, Note_off_c, 0, 48, 64
1, 56473, Note_on_c, 0, 47, 62
1, 56500, Note_off_c, 0, 47, 67
1, 56582, Note_on_c, 0, 48, 61
1, 56611, Note_off_c, 0, 48, 65
1, 56650, Control_c, 0, 67, 83
1, 56665, Control_c, 0, 67, 84
1, 56680, Control_c, 0, 67, 84
1, 56695, Control_c, 0, 67, 85
1, 56709, Control_c, 0, 67, 86
1, 56710, Note_on_c, 0, 50, 49
1, 56724, Control_c, 0, 67, 88
1, 56739, Note_off_c, 0, 50, 59
1, 56739, Control_c, 0, 67, 90
1, 56754, Control_c, 0, 67, 95
1, 56769, Control_c, 0, 67, 100
1, 56784, Control_c, 0, 67, 111
1, 56799, Control_c, 0, 67, 126
1, 56813, Control_c, 0, 67, 127
1, 56872, Note_on_c, 0, 43, 49
1, 56881, Note_off_c, 0, 59, 59
1, 56894, Note_off_c, 0, 62, 61
1, 56924, Note_off_c, 0, 67, 62
1, 57022, Control_c, 0, 64, 38
1, 57035, Note_on_c, 0, 69, 55
1, 57036, Control_c, 0, 64, 47
1, 57051, Control_c, 0, 64, 51
1, 57054, Note_off_c, 0, 69, 60
1, 57066, Control_c, 0, 64, 54
1, 57068, Note_on_c, 0, 67, 62
1, 57076, Note_off_c, 0, 43, 64
1, 57080, Control_c, 0, 64, 57
1, 57095, Control_c, 0, 64, 59
1, 57097, Note_off_c, 0, 67, 65
1, 57106, Note_on_c, 0, 69, 74
1, 57110, Control_c, 0, 64, 60
1, 57125, Control_c, 0, 64, 61
1, 57131, Note_off_c, 0, 69, 64
1, 57154, Control_c, 0, 64, 62
1, 57165, Note_on_c, 0, 67, 73
1, 57192, Control_c, 0, 64, 62
1, 57222, Control_c, 0, 64, 63
1, 57236, Control_c, 0, 64, 63
1, 57281, Control_c, 0, 64, 64
1, 57323, Note_off_c, 0, 67, 57
1, 57325, Control_c, 0, 64, 64
1, 57346, Note_on_c, 0, 66, 52
1, 57355, Control_c, 0, 64, 65
1, 57368, Note_off_c, 0, 66, 61
1, 57369, Control_c, 0, 64, 65
1, 57399, Control_c, 0, 64, 64
1, 57413, Control_c, 0, 64, 47
1, 57428, Control_c, 0, 64, 0
1, 57429, Note_on_c, 0, 55, 53
1, 57437, Note_on_c, 0, 67, 67
1, 57446, Note_on_c, 0, 59, 40
1, 57473, Note_off_c, 0, 67, 59
1, 57519, Note_on_c, 0, 62, 53
1, 57556, Note_off_c, 0, 62, 61
1, 57609, Note_on_c, 0, 64, 52
1, 57645, Note_off_c, 0, 64, 50
1, 57675, Note_on_c, 0, 66, 67
1, 57717, Note_off_c, 0, 66, 62
1, 57751, Note_off_c, 0, 55, 63
1, 57760, Note_off_c, 0, 59, 61
1, 57766, Note_on_c, 0, 67, 60
1, 57801, Note_off_c, 0, 67, 56
1, 57844, Note_on_c, 0, 69, 58
1, 57881, Note_off_c, 0, 69, 58
1, 57920, Note_on_c, 0, 71, 60
1, 57960, Note_off_c, 0, 71, 64
1, 57997, Note_on_c, 0, 72, 64
1, 58024, Note_off_c, 0, 72, 64
1, 58074, Note_on_c, 0, 71, 66
1, 58106, Note_off_c, 0, 71, 64
1, 58156, Note_on_c, 0, 67, 59
1, 58197, Note_off_c, 0, 67, 58
1, 58234, Note_on_c, 0, 71, 59
1, 58293, Note_off_c, 0, 71, 58
1, 58308, Note_on_c, 0, 72, 61
1, 58350, Note_off_c, 0, 72, 60
1, 58380, Note_on_c, 0, 54, 41
1, 58406, Note_on_c, 0, 57, 28
1, 58406, Note_on_c, 0, 74, 62
1, 58430, Note_on_c, 0, 62, 39
1, 58449, Note_off_c, 0, 74, 62
1, 58502, Note_on_c, 0, 69, 58
1, 58543, Note_off_c, 0, 69, 58
1, 58577, Note_on_c, 0, 71, 63
1, 58617, Note_off_c, 0, 71, 56
1, 58641, Note_on_c, 0, 73, 75
1, 58692, Note_off_c, 0, 57, 60
1, 58697, Note_off_c, 0, 73, 61
1, 58703, Note_off_c, 0, 62, 61
1, 58714, Note_off_c, 0, 54, 62
1, 58723, Note_on_c, 0, 74, 77
1, 58771, Note_off_c, 0, 74, 55
1, 58796, Note_on_c, 0, 76, 70
1, 58874, Note_on_c, 0, 78, 72
1, 58883, Note_off_c, 0, 76, 55
1, 58929, Note_off_c, 0, 78, 63
1, 58948, Note_on_c, 0, 79, 67
1, 59027, Note_off_c, 0, 79, 52
1, 59032, Note_on_c, 0, 78, 75
1, 59068, Note_off_c, 0, 78, 62
1, 59103, Note_on_c, 0, 74, 63
1, 59139, Note_off_c, 0, 74, 58
1, 59187, Note_on_c, 0, 76, 69
1, 59245, Note_off_c, 0, 76, 57
1, 59249, Note_on_c, 0, 78, 68
1, 59303, Note_on_c, 0, 52, 52
1, 59318, Note_on_c, 0, 55, 51
1, 59324, Note_on_c, 0, 79, 70
1, 59336, Note_off_c, 0, 78, 60
1, 59371, Note_off_c, 0, 79, 59
1, 59389, Note_on_c, 0, 61, 51
1, 59412, Note_on_c, 0, 71, 63
1, 59482, Note_off_c, 0, 71, 61
1, 59498, Note_on_c, 0, 73, 63
1, 59553, Note_off_c, 0, 73, 62
1, 59561, Note_on_c, 0, 74, 61
1, 59609, Note_off_c, 0, 74, 61
1, 59638, Note_off_c, 0, 55, 63
1, 59640, Note_on_c, 0, 73, 72
1, 59652, Note_off_c, 0, 52, 61
1, 59653, Note_off_c, 0, 61, 62
1, 59666, Note_off_c, 0, 73, 68
1, 59714, Note_on_c, 0, 83, 78
1, 59804, Note_on_c, 0, 81, 63
1, 59804, Note_off_c, 0, 83, 64
1, 59852, Note_off_c, 0, 81, 62
1, 59859, Note_on_c, 0, 79, 75
1, 59917, Note_off_c, 0, 79, 56
1, 59945, Note_on_c, 0, 81, 78
1, 60009, Note_off_c, 0, 81, 63
1, 60025, Note_on_c, 0, 76, 66
1, 60085, Note_off_c, 0, 76, 56
1, 60099, Note_on_c, 0, 78, 65
1, 60152, Note_off_c, 0, 78, 56
1, 60188, Note_on_c, 0, 79, 65
1, 60210, Note_on_c, 0, 50, 52
1, 60224, Note_off_c, 0, 79, 59
1, 60256, Note_on_c, 0, 57, 43
1, 60266, Note_on_c, 0, 78, 68
1, 60297, Note_on_c, 0, 62, 47
1, 60330, Note_off_c, 0, 78, 57
1, 60333, Note_on_c, 0, 79, 68
1, 60378, Note_off_c, 0, 79, 60
1, 60406, Note_on_c, 0, 81, 65
1, 60482, Note_on_c, 0, 79, 76
1, 60486, Note_off_c, 0, 81, 58
1, 60561, Note_on_c, 0, 78, 74
1, 60565, Note_off_c, 0, 79, 60
1, 60569, Note_off_c, 0, 50, 59
1, 60576, Note_off_c, 0, 62, 62
1, 60576, Note_off_c, 0, 57, 60
1, 60614, Note_off_c, 0, 78, 63
1, 60633, Note_on_c, 0, 76, 65
1, 60680, Note_off_c, 0, 76, 57
1, 60690, Control_c, 0, 67, 127
1, 60707, Note_on_c, 0, 74, 58
1, 60719, Control_c, 0, 67, 126
1, 60743, Note_off_c, 0, 74, 67
1, 60749, Control_c, 0, 67, 124
1, 60755, Note_on_c, 0, 73, 76
1, 60764, Control_c, 0, 67, 122
1, 60778, Control_c, 0, 67, 119
1, 60793, Control_c, 0, 67, 116
1, 60798, Note_off_c, 0, 73, 56
1, 60808, Control_c, 0, 67, 112
1, 60823, Control_c, 0, 67, 109
1, 60838, Note_on_c, 0, 74, 78
1, 60838, Control_c, 0, 67, 104
1, 60853, Control_c, 0, 67, 101
1, 60868, Control_c, 0, 67, 99
1, 60883, Control_c, 0, 67, 98
1, 60895, Note_off_c, 0, 74, 63
1, 60897, Control_c, 0, 67, 97
1, 60912, Control_c, 0, 67, 96
1, 60915, Note_on_c, 0, 69, 59
1, 60949, Control_c, 0, 67, 96
1, 60976, Note_off_c, 0, 69, 57
1, 60992, Note_on_c, 0, 71, 67
1, 61042, Note_off_c, 0, 71, 60
1, 61062, Note_on_c, 0, 43, 55
1, 61065, Note_on_c, 0, 72, 69
1, 61083, Control_c, 0, 67, 96
1, 61095, Note_on_c, 0, 50, 43
1, 61104, Note_off_c, 0, 72, 64
1, 61142, Note_on_c, 0, 71, 73
1, 61156, Note_on_c, 0, 55, 58
1, 61187, Control_c, 0, 67, 97
1, 61213, Note_on_c, 0, 72, 77
1, 61221, Note_off_c, 0, 71, 60
1, 61231, Control_c, 0, 67, 97
1, 61268, Note_off_c, 0, 72, 63
1, 61285, Note_on_c, 0, 74, 72
1, 61350, Control_c, 0, 67, 97
1, 61365, Note_on_c, 0, 72, 81
1, 61380, Note_off_c, 0, 74, 59
1, 61395, Control_c, 0, 67, 96
1, 61434, Note_off_c, 0, 43, 58
1, 61435, Note_off_c, 0, 72, 64
1, 61438, Note_on_c, 0, 71, 80
1, 61440, Note_off_c, 0, 55, 64
1, 61479, Note_off_c, 0, 50, 64
1, 61487, Note_off_c, 0, 71, 64
1, 61515, Note_on_c, 0, 69, 65
1, 61551, Note_off_c, 0, 69, 60
1, 61577, Note_on_c, 0, 67, 60
1, 61604, Note_off_c, 0, 67, 55
1, 61637, Note_on_c, 0, 66, 67
1, 61666, Note_off_c, 0, 66, 63
1, 61698, Control_c, 0, 67, 97
1, 61713, Control_c, 0, 67, 97
1, 61728, Control_c, 0, 67, 98
1, 61735, Note_on_c, 0, 55, 52
1, 61738, Note_on_c, 0, 67, 58
1, 61738, Note_on_c, 0, 47, 54
1, 61742, Control_c, 0, 67, 99
1, 61744, Note_on_c, 0, 50, 49
1, 61758, Control_c, 0, 67, 100
1, 61767, Note_off_c, 0, 55, 65
1, 61773, Control_c, 0, 67, 101
1, 61784, Note_off_c, 0, 50, 66
1, 61785, Note_off_c, 0, 47, 61
1, 61788, Control_c, 0, 67, 101
1, 61789, Note_off_c, 0, 67, 55
1, 61818, Control_c, 0, 67, 102
1, 61824, Note_on_c, 0, 62, 47
1, 61832, Control_c, 0, 67, 102
1, 61863, Note_off_c, 0, 62, 61
1, 61876, Control_c, 0, 67, 103
1, 61908, Note_on_c, 0, 64, 47
1, 61950, Control_c, 0, 67, 102
1, 61953, Note_off_c, 0, 64, 64
1, 61972, Note_on_c, 0, 66, 56
1, 61980, Control_c, 0, 67, 102
1, 62006, Note_off_c, 0, 66, 63
1, 62010, Control_c, 0, 67, 101
1, 62039, Control_c, 0, 67, 101
1, 62057, Note_on_c, 0, 64, 59
1, 62061, Note_on_c, 0, 55, 46
1, 62063, Note_on_c, 0, 48, 46
1, 62091, Note_off_c, 0, 64, 63
1, 62099, Control_c, 0, 67, 100
1, 62134, Note_on_c, 0, 67, 57
1, 62203, Note_on_c, 0, 69, 70
1, 62207, Note_off_c, 0, 67, 59
1, 62255, Note_off_c, 0, 69, 62
1, 62272, Note_on_c, 0, 71, 67
1, 62328, Note_off_c, 0, 71, 62
1, 62335, Control_c, 0, 67, 100
1, 62340, Note_on_c, 0, 72, 71
1, 62349, Control_c, 0, 67, 99
1, 62364, Control_c, 0, 67, 98
1, 62379, Note_off_c, 0, 55, 64
1, 62379, Control_c, 0, 67, 97
1, 62394, Control_c, 0, 67, 97
1, 62402, Note_off_c, 0, 48, 63
1, 62408, Note_off_c, 0, 72, 58
1, 62433, Note_on_c, 0, 71, 72
1, 62446, Control_c, 0, 67, 96
1, 62482, Note_off_c, 0, 71, 58
1, 62506, Note_on_c, 0, 69, 71
1, 62548, Note_off_c, 0, 69, 61
1, 62596, Note_on_c, 0, 67, 55
1, 62629, Note_off_c, 0, 67, 57
1, 62652, Note_on_c, 0, 48, 55
1, 62656, Note_on_c, 0, 57, 53
1, 62657, Note_on_c, 0, 66, 61
1, 62684, Control_c, 0, 67, 97
1, 62689, Note_off_c, 0, 57, 64
1, 62698, Control_c, 0, 67, 97
1, 62713, Control_c, 0, 67, 98
1, 62719, Note_off_c, 0, 48, 64
1, 62728, Control_c, 0, 67, 98
1, 62740, Note_on_c, 0, 64, 68
1, 62743, Control_c, 0, 67, 99
1, 62752, Note_off_c, 0, 66, 58
1, 62773, Control_c, 0, 67, 99
1, 62787, Control_c, 0, 67, 100
1, 62800, Note_off_c, 0, 64, 62
1, 62802, Control_c, 0, 67, 100
1, 62809, Note_on_c, 0, 62, 69
1, 62832, Control_c, 0, 67, 101
1, 62847, Note_off_c, 0, 62, 61
1, 62880, Note_on_c, 0, 60, 60
1, 62935, Note_off_c, 0, 60, 61
1, 62954, Note_on_c, 0, 59, 69
1, 62971, Note_on_c, 0, 50, 56
1, 63011, Control_c, 0, 67, 100
1, 63040, Control_c, 0, 67, 100
1, 63044, Note_on_c, 0, 62, 68
1, 63048, Note_off_c, 0, 59, 58
1, 63055, Control_c, 0, 67, 99
1, 63070, Control_c, 0, 67, 98
1, 63085, Control_c, 0, 67, 97
1, 63112, Note_off_c, 0, 62, 61
1, 63114, Control_c, 0, 67, 97
1, 63118, Note_on_c, 0, 67, 77
1, 63129, Control_c, 0, 67, 96
1, 63144, Control_c, 0, 67, 96
1, 63159, Control_c, 0, 67, 95
1, 63181, Control_c, 0, 67, 95
1, 63187, Note_off_c, 0, 67, 59
1, 63204, Note_on_c, 0, 59, 83
1, 63211, Control_c, 0, 67, 94
1, 63226, Control_c, 0, 67, 94
1, 63255, Control_c, 0, 67, 93
1, 63267, Note_off_c, 0, 59, 62
1, 63270, Control_c, 0, 67, 92
1, 63285, Control_c, 0, 67, 91
1, 63286, Note_on_c, 0, 57, 76
1, 63298, Note_on_c, 0, 38, 71
1, 63300, Control_c, 0, 67, 90
1, 63314, Control_c, 0, 67, 90
1, 63348, Note_off_c, 0, 57, 59
1, 63376, Note_on_c, 0, 66, 73
1, 63457, Note_on_c, 0, 67, 74
1, 63460, Note_off_c, 0, 50, 64
1, 63463, Control_c, 0, 67, 90
1, 63470, Note_off_c, 0, 66, 52
1, 63523, Note_on_c, 0, 69, 73
1, 63530, Note_off_c, 0, 67, 59
1, 63591, Note_off_c, 0, 69, 59
1, 63607, Note_on_c, 0, 48, 75
1, 63607, Note_on_c, 0, 66, 70
1, 63655, Control_c, 0, 67, 90
1, 63670, Control_c, 0, 67, 89
1, 63676, Note_off_c, 0, 66, 62
1, 63682, Note_on_c, 0, 67, 68
1, 63685, Control_c, 0, 67, 88
1, 63700, Control_c, 0, 67, 85
1, 63715, Control_c, 0, 67, 77
1, 63720, Note_off_c, 0, 38, 62
1, 63724, Note_off_c, 0, 48, 63
1, 63729, Control_c, 0, 67, 70
1, 63742, Note_off_c, 0, 67, 61
1, 63744, Control_c, 0, 67, 62
1, 63759, Control_c, 0, 67, 57
1, 63765, Note_on_c, 0, 64, 69
1, 63774, Control_c, 0, 67, 54
1, 63789, Control_c, 0, 67, 52
1, 63804, Control_c, 0, 67, 50
1, 63819, Control_c, 0, 67, 50
1, 63834, Control_c, 0, 67, 49
1, 63835, Note_off_c, 0, 64, 61
1, 63838, Note_on_c, 0, 66, 71
1, 63848, Control_c, 0, 67, 49
1, 63879, Note_off_c, 0, 66, 60
1, 63908, Control_c, 0, 67, 48
1, 63927, Note_on_c, 0, 67, 73
1, 63938, Note_on_c, 0, 50, 58
1, 63949, Note_on_c, 0, 43, 55
1, 63950, Note_on_c, 0, 47, 55
1, 64000, Note_off_c, 0, 50, 65
1, 64013, Note_off_c, 0, 67, 61
1, 64014, Note_off_c, 0, 47, 65
1, 64017, Note_on_c, 0, 64, 65
1, 64029, Note_off_c, 0, 43, 63
1, 64090, Note_off_c, 0, 64, 62
1, 64099, Note_on_c, 0, 62, 70
1, 64151, Note_off_c, 0, 62, 61
1, 64183, Note_on_c, 0, 60, 59
1, 64213, Note_off_c, 0, 60, 62
1, 64266, Note_on_c, 0, 59, 59
1, 64274, Note_on_c, 0, 43, 44
1, 64276, Note_on_c, 0, 31, 44
1, 64286, Control_c, 0, 67, 49
1, 64301, Control_c, 0, 67, 49
1, 64316, Control_c, 0, 67, 50
1, 64327, Note_on_c, 0, 60, 55
1, 64327, Note_off_c, 0, 59, 57
1, 64331, Control_c, 0, 67, 50
1, 64360, Control_c, 0, 67, 51
1, 64375, Control_c, 0, 67, 51
1, 64382, Note_off_c, 0, 60, 61
1, 64403, Note_on_c, 0, 57, 55
1, 64434, Control_c, 0, 67, 52
1, 64436, Note_off_c, 0, 57, 64
1, 64478, Control_c, 0, 67, 52
1, 64493, Note_on_c, 0, 59, 51
1, 64536, Note_off_c, 0, 59, 62
1, 64538, Control_c, 0, 67, 53
1, 64567, Note_off_c, 0, 31, 57
1, 64573, Note_off_c, 0, 43, 63
1, 64576, Note_on_c, 0, 55, 58
1, 64608, Note_off_c, 0, 55, 63
1, 64612, Control_c, 0, 67, 52
1, 64627, Control_c, 0, 67, 52
1, 64642, Control_c, 0, 67, 51
1, 64663, Note_on_c, 0, 62, 50
1, 64693, Control_c, 0, 67, 51
1, 64731, Note_off_c, 0, 62, 58
1, 64738, Control_c, 0, 67, 50
1, 64749, Note_on_c, 0, 64, 57
1, 64782, Control_c, 0, 67, 50
1, 64791, Note_off_c, 0, 64, 64
1, 64810, Note_on_c, 0, 66, 60
1, 64812, Control_c, 0, 67, 49
1, 64838, Note_off_c, 0, 66, 65
1, 64841, Control_c, 0, 67, 49
1, 64916, Note_on_c, 0, 71, 64
1, 64917, Note_on_c, 0, 67, 56
1, 64919, Note_on_c, 0, 62, 58
1, 65005, Note_on_c, 0, 43, 52
1, 65020, Note_off_c, 0, 62, 0
1, 65020, Note_on_c, 0, 62, 10
1, 65061, Note_off_c, 0, 43, 62
1, 65079, Note_on_c, 0, 45, 66
1, 65148, Note_off_c, 0, 45, 64
1, 65158, Note_on_c, 0, 47, 59
1, 65215, Note_off_c, 0, 47, 64
1, 65232, Note_on_c, 0, 48, 70
1, 65273, Note_off_c, 0, 71, 60
1, 65277, Note_off_c, 0, 62, 56
1, 65277, Note_off_c, 0, 67, 61
1, 65287, Note_off_c, 0, 48, 59
1, 65313, Note_on_c, 0, 50, 70
1, 65355, Note_off_c, 0, 50, 60
1, 65392, Note_on_c, 0, 52, 66
1, 65481, Note_off_c, 0, 52, 60
1, 65483, Note_on_c, 0, 54, 76
1, 65545, Note_off_c, 0, 54, 64
1, 65558, Note_on_c, 0, 71, 69
1, 65560, Control_c, 0, 67, 49
1, 65567, Note_on_c, 0, 67, 61
1, 65572, Note_on_c, 0, 55, 65
1, 65590, Control_c, 0, 67, 50
1, 65601, Note_off_c, 0, 55, 63
1, 65618, Note_off_c, 0, 71, 63
1, 65619, Note_off_c, 0, 67, 59
1, 65643, Note_on_c, 0, 57, 66
1, 65716, Note_on_c, 0, 59, 65
1, 65727, Note_off_c, 0, 57, 59
1, 65777, Note_off_c, 0, 59, 62
1, 65795, Note_on_c, 0, 60, 69
1, 65852, Note_off_c, 0, 60, 61
1, 65879, Note_on_c, 0, 62, 65
1, 65884, Note_on_c, 0, 69, 66
1, 65889, Note_on_c, 0, 66, 60
1, 65923, Note_off_c, 0, 62, 55
1, 65967, Note_on_c, 0, 59, 66
1, 66031, Note_off_c, 0, 59, 62
1, 66039, Note_on_c, 0, 57, 68
1, 66093, Note_off_c, 0, 57, 59
1, 66126, Note_on_c, 0, 55, 74
1, 66140, Control_c, 0, 67, 49
1, 66164, Note_off_c, 0, 55, 67
1, 66213, Note_on_c, 0, 54, 76
1, 66227, Note_off_c, 0, 66, 62
1, 66231, Note_off_c, 0, 69, 61
1, 66264, Note_off_c, 0, 54, 62
1, 66285, Note_on_c, 0, 55, 73
1, 66344, Note_off_c, 0, 55, 53
1, 66372, Note_on_c, 0, 54, 65
1, 66429, Note_off_c, 0, 54, 65
1, 66454, Note_on_c, 0, 52, 62
1, 66520, Note_off_c, 0, 52, 60
1, 66533, Note_on_c, 0, 50, 57
1, 66534, Note_on_c, 0, 74, 75
1, 66536, Note_on_c, 0, 66, 68
1, 66536, Note_on_c, 0, 69, 63
1, 66565, Note_off_c, 0, 66, 66
1, 66577, Note_off_c, 0, 69, 64
1, 66586, Note_off_c, 0, 74, 66
1, 66605, Note_off_c, 0, 50, 64
1, 66608, Note_on_c, 0, 54, 68
1, 66682, Note_off_c, 0, 54, 64
1, 66694, Note_on_c, 0, 52, 65
1, 66758, Note_off_c, 0, 52, 62
1, 66770, Note_on_c, 0, 50, 66
1, 66863, Note_off_c, 0, 50, 62
1, 66868, Note_on_c, 0, 76, 64
1, 66868, Note_on_c, 0, 79, 74
1, 66869, Note_on_c, 0, 52, 66
1, 66870, Note_on_c, 0, 71, 64
1, 66873, Note_on_c, 0, 67, 62
1, 66873, Control_c, 0, 67, 50
1, 66925, Note_off_c, 0, 52, 60
1, 66958, Note_on_c, 0, 54, 71
1, 66970, Control_c, 0, 67, 50
1, 67016, Note_off_c, 0, 54, 62
1, 67041, Note_on_c, 0, 55, 69
1, 67107, Note_on_c, 0, 54, 83
1, 67110, Note_off_c, 0, 55, 52
1, 67133, Control_c, 0, 67, 50
1, 67147, Control_c, 0, 67, 49
1, 67162, Control_c, 0, 67, 48
1, 67177, Control_c, 0, 67, 47
1, 67179, Note_off_c, 0, 54, 65
1, 67187, Note_on_c, 0, 52, 76
1, 67191, Control_c, 0, 67, 46
1, 67206, Control_c, 0, 67, 42
1, 67221, Note_off_c, 0, 67, 60
1, 67221, Control_c, 0, 67, 34
1, 67236, Control_c, 0, 67, 29
1, 67247, Note_off_c, 0, 79, 60
1, 67249, Note_off_c, 0, 71, 64
1, 67251, Control_c, 0, 67, 26
1, 67264, Note_off_c, 0, 76, 62
1, 67265, Note_off_c, 0, 52, 62
1, 67266, Control_c, 0, 67, 24
1, 67280, Control_c, 0, 67, 22
1, 67281, Note_on_c, 0, 54, 72
1, 67295, Control_c, 0, 67, 21
1, 67310, Control_c, 0, 67, 20
1, 67325, Control_c, 0, 67, 20
1, 67327, Note_off_c, 0, 54, 56
1, 67357, Note_on_c, 0, 52, 58
1, 67390, Note_off_c, 0, 52, 63
1, 67435, Note_on_c, 0, 50, 72
1, 67497, Note_off_c, 0, 50, 62
1, 67512, Note_on_c, 0, 79, 73
1, 67517, Note_on_c, 0, 69, 58
1, 67518, Note_on_c, 0, 76, 57
1, 67519, Note_on_c, 0, 73, 66
1, 67531, Note_on_c, 0, 49, 65
1, 67546, Note_off_c, 0, 69, 65
1, 67552, Note_off_c, 0, 76, 64
1, 67554, Note_off_c, 0, 73, 63
1, 67562, Note_off_c, 0, 79, 63
1, 67578, Note_off_c, 0, 49, 61
1, 67593, Control_c, 0, 67, 20
1, 67613, Note_on_c, 0, 45, 61
1, 67622, Control_c, 0, 67, 21
1, 67674, Control_c, 0, 67, 21
1, 67691, Note_off_c, 0, 45, 64
1, 67701, Note_on_c, 0, 47, 62
1, 67779, Note_off_c, 0, 47, 56
1, 67803, Note_on_c, 0, 49, 62
1, 67867, Note_off_c, 0, 49, 50
1, 67885, Note_on_c, 0, 78, 74
1, 67890, Note_on_c, 0, 74, 63
1, 67893, Note_on_c, 0, 69, 58
1, 67906, Note_on_c, 0, 50, 47
1, 67952, Note_off_c, 0, 50, 53
1, 67973, Note_on_c, 0, 45, 60
1, 68040, Note_on_c, 0, 47, 65
1, 68046, Note_off_c, 0, 45, 60
1, 68115, Note_off_c, 0, 47, 59
1, 68126, Note_on_c, 0, 49, 79
1, 68133, Control_c, 0, 67, 21
1, 68149, Control_c, 0, 67, 20
1, 68164, Control_c, 0, 67, 19
1, 68169, Note_off_c, 0, 69, 58
1, 68179, Control_c, 0, 67, 17
1, 68193, Control_c, 0, 67, 14
1, 68195, Note_off_c, 0, 49, 62
1, 68204, Note_on_c, 0, 50, 80
1, 68207, Note_off_c, 0, 74, 65
1, 68208, Control_c, 0, 67, 0
1, 68231, Note_off_c, 0, 78, 63
1, 68272, Note_off_c, 0, 50, 40
1, 68283, Note_on_c, 0, 52, 71
1, 68365, Note_on_c, 0, 54, 80
1, 68365, Note_off_c, 0, 52, 61
1, 68431, Note_off_c, 0, 54, 65
1, 68448, Note_on_c, 0, 55, 73
1, 68515, Note_off_c, 0, 55, 60
1, 68523, Note_on_c, 0, 81, 86
1, 68532, Note_on_c, 0, 54, 75
1, 68543, Note_on_c, 0, 74, 61
1, 68563, Note_off_c, 0, 74, 63
1, 68576, Note_off_c, 0, 81, 64
1, 68603, Note_off_c, 0, 54, 65
1, 68611, Note_on_c, 0, 50, 72
1, 68694, Note_on_c, 0, 52, 65
1, 68708, Note_off_c, 0, 50, 60
1, 68786, Note_off_c, 0, 52, 60
1, 68790, Note_on_c, 0, 54, 71
1, 68886, Note_on_c, 0, 83, 88
1, 68900, Note_on_c, 0, 55, 58
1, 68900, Note_off_c, 0, 54, 60
1, 68913, Note_on_c, 0, 74, 60
1, 68956, Note_off_c, 0, 55, 59
1, 68967, Note_on_c, 0, 50, 62
1, 69042, Note_on_c, 0, 52, 66
1, 69064, Note_off_c, 0, 50, 60
1, 69116, Note_off_c, 0, 52, 59
1, 69128, Note_on_c, 0, 54, 78
1, 69197, Note_off_c, 0, 54, 63
1, 69202, Note_off_c, 0, 74, 62
1, 69217, Note_on_c, 0, 55, 77
1, 69218, Note_off_c, 0, 83, 64
1, 69247, Note_off_c, 0, 55, 64
1, 69289, Note_on_c, 0, 57, 76
1, 69369, Note_off_c, 0, 57, 63
1, 69373, Note_on_c, 0, 59, 82
1, 69440, Note_off_c, 0, 59, 62
1, 69459, Note_on_c, 0, 60, 76
1, 69506, Note_off_c, 0, 60, 58
1, 69524, Note_on_c, 0, 74, 87
1, 69537, Note_on_c, 0, 67, 63
1, 69542, Note_on_c, 0, 59, 75
1, 69566, Note_off_c, 0, 67, 64
1, 69590, Note_off_c, 0, 74, 65
1, 69608, Note_off_c, 0, 59, 60
1, 69615, Note_on_c, 0, 55, 73
1, 69689, Note_off_c, 0, 55, 64
1, 69704, Note_on_c, 0, 57, 58
1, 69753, Note_off_c, 0, 57, 61
1, 69775, Note_on_c, 0, 59, 64
1, 69812, Note_off_c, 0, 59, 57
1, 69864, Note_on_c, 0, 76, 66
1, 69872, Note_on_c, 0, 60, 56
1, 69883, Note_on_c, 0, 67, 52
1, 69894, Note_off_c, 0, 60, 63
1, 69958, Note_on_c, 0, 48, 61
1, 70023, Note_on_c, 0, 50, 71
1, 70042, Note_off_c, 0, 48, 58
1, 70094, Note_on_c, 0, 52, 69
1, 70117, Note_off_c, 0, 50, 62
1, 70178, Note_on_c, 0, 54, 76
1, 70179, Note_off_c, 0, 52, 61
1, 70210, Note_off_c, 0, 67, 60
1, 70229, Note_off_c, 0, 76, 62
1, 70236, Note_off_c, 0, 54, 64
1, 70257, Note_on_c, 0, 55, 77
1, 70294, Note_off_c, 0, 55, 63
1, 70339, Note_on_c, 0, 57, 78
1, 70418, Note_on_c, 0, 59, 74
1, 70450, Note_off_c, 0, 57, 60
1, 70496, Note_off_c, 0, 59, 63
1, 70499, Note_on_c, 0, 60, 78
1, 70513, Note_on_c, 0, 76, 80
1, 70520, Note_on_c, 0, 67, 69
1, 70523, Note_on_c, 0, 69, 65
1, 70573, Note_off_c, 0, 60, 63
1, 70592, Note_on_c, 0, 62, 67
1, 70593, Note_off_c, 0, 67, 59
1, 70613, Note_off_c, 0, 69, 62
1, 70615, Note_off_c, 0, 76, 63
1, 70625, Note_off_c, 0, 62, 62
1, 70683, Note_on_c, 0, 59, 62
1, 70750, Note_off_c, 0, 59, 59
1, 70770, Note_on_c, 0, 60, 62
1, 70820, Note_off_c, 0, 60, 60
1, 70861, Note_on_c, 0, 69, 63
1, 70865, Note_on_c, 0, 62, 62
1, 70870, Note_on_c, 0, 67, 53
1, 70895, Note_off_c, 0, 62, 64
1, 70948, Note_on_c, 0, 50, 62
1, 71033, Note_on_c, 0, 52, 66
1, 71038, Note_off_c, 0, 50, 52
1, 71108, Note_on_c, 0, 54, 67
1, 71125, Note_off_c, 0, 52, 61
1, 71173, Note_off_c, 0, 67, 61
1, 71177, Note_off_c, 0, 54, 64
1, 71183, Note_on_c, 0, 55, 69
1, 71197, Note_off_c, 0, 69, 62
1, 71232, Note_off_c, 0, 55, 61
1, 71263, Note_on_c, 0, 57, 66
1, 71295, Note_off_c, 0, 57, 63
1, 71349, Note_on_c, 0, 59, 59
1, 71422, Note_off_c, 0, 59, 60
1, 71436, Note_on_c, 0, 60, 56
1, 71471, Note_off_c, 0, 60, 66
1, 71509, Note_on_c, 0, 74, 66
1, 71514, Note_on_c, 0, 69, 53
1, 71520, Note_on_c, 0, 66, 58
1, 71524, Note_on_c, 0, 62, 49
1, 71551, Note_off_c, 0, 62, 55
1, 71580, Note_off_c, 0, 66, 62
1, 71589, Note_off_c, 0, 69, 62
1, 71589, Note_off_c, 0, 74, 65
1, 71611, Note_on_c, 0, 50, 52
1, 71686, Note_on_c, 0, 52, 54
1, 71686, Note_off_c, 0, 50, 62
1, 71753, Note_off_c, 0, 52, 58
1, 71766, Note_on_c, 0, 54, 60
1, 71836, Note_off_c, 0, 54, 62
1, 71853, Note_on_c, 0, 71, 56
1, 71860, Note_on_c, 0, 67, 54
1, 71864, Note_on_c, 0, 62, 43
1, 71869, Note_on_c, 0, 55, 48
1, 71901, Note_off_c, 0, 55, 60
1, 71939, Note_on_c, 0, 50, 55
1, 72016, Note_off_c, 0, 50, 62
1, 72019, Note_on_c, 0, 52, 57
1, 72089, Note_off_c, 0, 52, 59
1, 72100, Note_on_c, 0, 54, 61
1, 72141, Note_off_c, 0, 54, 63
1, 72198, Note_on_c, 0, 55, 57
1, 72228, Note_off_c, 0, 55, 64
1, 72270, Note_on_c, 0, 47, 58
1, 72328, Note_off_c, 0, 47, 64
1, 72347, Note_on_c, 0, 48, 46
1, 72401, Note_off_c, 0, 62, 52
1, 72407, Note_off_c, 0, 67, 48
1, 72409, Note_off_c, 0, 48, 62
1, 72419, Note_on_c, 0, 50, 63
1, 72434, Note_off_c, 0, 71, 55
1, 72447, Note_off_c, 0, 50, 67
1, 72507, Control_c, 0, 67, 15
1, 72522, Control_c, 0, 67, 29
1, 72536, Control_c, 0, 67, 47
1, 72551, Control_c, 0, 67, 70
1, 72565, Note_on_c, 0, 31, 59
1, 72566, Control_c, 0, 67, 98
1, 72569, Note_on_c, 0, 43, 55
1, 72581, Control_c, 0, 67, 122
1, 72596, Control_c, 0, 67, 127
1, 72670, Control_c, 0, 64, 47
1, 72684, Control_c, 0, 64, 66
1, 72686, Note_off_c, 0, 31, 62
1, 72699, Control_c, 0, 64, 74
1, 72708, Note_off_c, 0, 43, 63
1, 72714, Control_c, 0, 64, 83
1, 72729, Control_c, 0, 64, 98
1, 72744, Control_c, 0, 64, 127
1, 73019, Control_c, 0, 64, 117
1, 73033, Control_c, 0, 64, 106
1, 73048, Control_c, 0, 64, 96
1, 73059, Note_on_c, 0, 59, 51
1, 73063, Control_c, 0, 64, 85
1, 73066, Note_on_c, 0, 62, 47
1, 73075, Note_on_c, 0, 55, 48
1, 73078, Control_c, 0, 64, 69
1, 73093, Control_c, 0, 64, 0
1, 73149, Note_on_c, 0, 74, 53
1, 73212, Note_off_c, 0, 74, 58
1, 73239, Note_on_c, 0, 72, 54
1, 73281, Note_off_c, 0, 72, 57
1, 73317, Note_on_c, 0, 74, 66
1, 73359, Note_off_c, 0, 74, 55
1, 73379, Note_off_c, 0, 59, 60
1, 73381, Note_off_c, 0, 55, 63
1, 73390, Note_off_c, 0, 62, 61
1, 73397, Note_on_c, 0, 71, 70
1, 73433, Note_off_c, 0, 71, 55
1, 73467, Note_on_c, 0, 74, 68
1, 73526, Note_off_c, 0, 74, 62
1, 73560, Note_on_c, 0, 69, 64
1, 73603, Note_off_c, 0, 69, 54
1, 73638, Note_on_c, 0, 74, 65
1, 73689, Note_off_c, 0, 74, 62
1, 73736, Note_on_c, 0, 67, 56
1, 73769, Note_off_c, 0, 67, 62
1, 73802, Note_on_c, 0, 74, 66
1, 73853, Note_off_c, 0, 74, 57
1, 73894, Note_on_c, 0, 71, 64
1, 73943, Note_off_c, 0, 71, 60
1, 73962, Note_on_c, 0, 74, 65
1, 74022, Note_on_c, 0, 54, 54
1, 74035, Note_off_c, 0, 74, 64
1, 74041, Note_on_c, 0, 57, 44
1, 74070, Note_on_c, 0, 69, 59
1, 74093, Note_on_c, 0, 62, 48
1, 74104, Note_off_c, 0, 69, 60
1, 74139, Note_on_c, 0, 74, 68
1, 74194, Note_off_c, 0, 74, 61
1, 74229, Note_on_c, 0, 67, 64
1, 74265, Note_off_c, 0, 67, 58
1, 74305, Note_on_c, 0, 74, 74
1, 74344, Note_off_c, 0, 57, 58
1, 74353, Note_off_c, 0, 54, 62
1, 74364, Note_off_c, 0, 62, 61
1, 74371, Note_off_c, 0, 74, 65
1, 74395, Note_on_c, 0, 66, 79
1, 74440, Note_off_c, 0, 66, 60
1, 74471, Control_c, 0, 67, 126
1, 74474, Note_on_c, 0, 74, 76
1, 74486, Control_c, 0, 67, 125
1, 74501, Control_c, 0, 67, 124
1, 74515, Control_c, 0, 67, 123
1, 74533, Note_off_c, 0, 74, 64
1, 74547, Control_c, 0, 67, 123
1, 74563, Note_on_c, 0, 64, 70
1, 74592, Note_off_c, 0, 64, 67
1, 74640, Note_on_c, 0, 74, 74
1, 74690, Note_off_c, 0, 74, 63
1, 74721, Note_on_c, 0, 62, 58
1, 74752, Note_off_c, 0, 62, 62
1, 74799, Note_on_c, 0, 74, 66
1, 74830, Note_off_c, 0, 74, 65
1, 74863, Note_on_c, 0, 73, 66
1, 74902, Control_c, 0, 67, 123
1, 74922, Note_off_c, 0, 73, 57
1, 74962, Note_on_c, 0, 74, 42
1, 74973, Note_on_c, 0, 52, 53
1, 74975, Note_on_c, 0, 76, 11
1, 74985, Note_on_c, 0, 55, 48
1, 74992, Note_off_c, 0, 74, 59
1, 75027, Note_off_c, 0, 76, 35
1, 75030, Note_on_c, 0, 67, 64
1, 75059, Note_off_c, 0, 67, 65
1, 75067, Note_on_c, 0, 61, 46
1, 75109, Control_c, 0, 67, 124
1, 75110, Note_on_c, 0, 79, 72
1, 75186, Note_off_c, 0, 79, 60
1, 75191, Control_c, 0, 67, 124
1, 75198, Note_on_c, 0, 78, 69
1, 75270, Note_off_c, 0, 78, 59
1, 75277, Note_on_c, 0, 79, 74
1, 75309, Control_c, 0, 67, 124
1, 75332, Note_off_c, 0, 79, 58
1, 75340, Control_c, 0, 67, 123
1, 75358, Note_on_c, 0, 76, 76
1, 75373, Note_off_c, 0, 52, 53
1, 75409, Note_off_c, 0, 61, 61
1, 75415, Note_off_c, 0, 76, 61
1, 75424, Note_on_c, 0, 79, 78
1, 75427, Note_off_c, 0, 55, 55
1, 75489, Note_off_c, 0, 79, 62
1, 75513, Note_on_c, 0, 74, 81
1, 75558, Note_off_c, 0, 74, 64
1, 75590, Note_on_c, 0, 79, 71
1, 75638, Note_off_c, 0, 79, 60
1, 75662, Note_on_c, 0, 73, 85
1, 75708, Note_off_c, 0, 73, 61
1, 75748, Note_on_c, 0, 83, 80
1, 75814, Control_c, 0, 67, 123
1, 75820, Note_on_c, 0, 81, 78
1, 75829, Control_c, 0, 67, 122
1, 75844, Control_c, 0, 67, 122
1, 75850, Note_off_c, 0, 83, 65
1, 75859, Control_c, 0, 67, 121
1, 75874, Control_c, 0, 67, 120
1, 75889, Control_c, 0, 67, 116
1, 75892, Note_on_c, 0, 79, 82
1, 75910, Control_c, 0, 67, 106
1, 75912, Note_on_c, 0, 50, 63
1, 75925, Control_c, 0, 67, 97
1, 75930, Note_on_c, 0, 57, 62
1, 75936, Note_off_c, 0, 81, 63
1, 75940, Control_c, 0, 67, 90
1, 75954, Control_c, 0, 67, 83
1, 75969, Control_c, 0, 67, 76
1, 75973, Note_on_c, 0, 78, 81
1, 75975, Note_off_c, 0, 79, 64
1, 75984, Control_c, 0, 67, 71
1, 75999, Control_c, 0, 67, 67
1, 76007, Note_on_c, 0, 62, 64
1, 76014, Control_c, 0, 67, 65
1, 76029, Control_c, 0, 67, 64
1, 76043, Note_off_c, 0, 78, 63
1, 76047, Note_on_c, 0, 81, 78
1, 76058, Control_c, 0, 67, 63
1, 76130, Note_on_c, 0, 79, 81
1, 76130, Note_off_c, 0, 81, 63
1, 76209, Note_on_c, 0, 81, 82
1, 76220, Note_off_c, 0, 79, 57
1, 76273, Note_off_c, 0, 81, 62
1, 76285, Note_on_c, 0, 78, 86
1, 76286, Note_off_c, 0, 62, 63
1, 76290, Note_off_c, 0, 50, 64
1, 76312, Control_c, 0, 67, 64
1, 76315, Note_off_c, 0, 57, 63
1, 76327, Control_c, 0, 67, 64
1, 76359, Note_off_c, 0, 78, 62
1, 76363, Note_on_c, 0, 81, 76
1, 76385, Control_c, 0, 67, 65
1, 76407, Note_off_c, 0, 81, 61
1, 76449, Note_on_c, 0, 76, 71
1, 76459, Control_c, 0, 67, 65
1, 76503, Note_off_c, 0, 76, 51
1, 76511, Note_on_c, 0, 81, 76
1, 76533, Control_c, 0, 67, 66
1, 76577, Control_c, 0, 67, 66
1, 76583, Note_off_c, 0, 81, 63
1, 76592, Control_c, 0, 67, 68
1, 76604, Note_on_c, 0, 74, 80
1, 76607, Control_c, 0, 67, 69
1, 76610, Note_on_c, 0, 57, 59
1, 76610, Note_on_c, 0, 54, 61
1, 76622, Control_c, 0, 67, 70
1, 76634, Note_off_c, 0, 74, 64
1, 76637, Control_c, 0, 67, 72
1, 76639, Note_off_c, 0, 57, 65
1, 76644, Note_off_c, 0, 54, 66
1, 76659, Control_c, 0, 67, 73
1, 76674, Control_c, 0, 67, 75
1, 76684, Note_on_c, 0, 81, 72
1, 76689, Control_c, 0, 67, 76
1, 76703, Control_c, 0, 67, 79
1, 76718, Control_c, 0, 67, 83
1, 76733, Control_c, 0, 67, 87
1, 76738, Note_off_c, 0, 81, 63
1, 76748, Control_c, 0, 67, 90
1, 76763, Control_c, 0, 67, 92
1, 76775, Note_on_c, 0, 72, 60
1, 76777, Control_c, 0, 67, 92
1, 76801, Note_off_c, 0, 72, 68
1, 76807, Control_c, 0, 67, 92
1, 76837, Control_c, 0, 67, 91
1, 76844, Note_on_c, 0, 81, 67
1, 76851, Control_c, 0, 67, 90
1, 76866, Control_c, 0, 67, 90
1, 76881, Control_c, 0, 67, 89
1, 76896, Control_c, 0, 67, 89
1, 76911, Control_c, 0, 67, 88
1, 76912, Note_off_c, 0, 81, 61
1, 76927, Control_c, 0, 67, 88
1, 76950, Note_on_c, 0, 55, 45
1, 76951, Note_on_c, 0, 71, 60
1, 76955, Note_on_c, 0, 59, 43
1, 76956, Control_c, 0, 67, 87
1, 76971, Control_c, 0, 67, 87
1, 76983, Note_off_c, 0, 71, 65
1, 77015, Control_c, 0, 67, 86
1, 77030, Note_on_c, 0, 79, 54
1, 77085, Note_off_c, 0, 79, 58
1, 77120, Note_on_c, 0, 78, 53
1, 77162, Note_off_c, 0, 78, 60
1, 77187, Note_off_c, 0, 59, 53
1, 77202, Note_on_c, 0, 79, 60
1, 77233, Note_off_c, 0, 55, 64
1, 77269, Note_off_c, 0, 79, 59
1, 77284, Note_on_c, 0, 76, 69
1, 77317, Note_off_c, 0, 76, 58
1, 77325, Control_c, 0, 67, 86
1, 77355, Control_c, 0, 67, 85
1, 77367, Note_on_c, 0, 79, 61
1, 77385, Control_c, 0, 67, 85
1, 77419, Note_off_c, 0, 79, 61
1, 77422, Control_c, 0, 67, 84
1, 77452, Control_c, 0, 67, 84
1, 77460, Note_on_c, 0, 74, 64
1, 77494, Note_off_c, 0, 74, 65
1, 77529, Note_on_c, 0, 79, 65
1, 77570, Control_c, 0, 67, 83
1, 77588, Note_off_c, 0, 79, 60
1, 77600, Control_c, 0, 67, 83
1, 77603, Note_on_c, 0, 50, 51
1, 77615, Note_on_c, 0, 72, 67
1, 77617, Note_on_c, 0, 47, 49
1, 77644, Control_c, 0, 67, 82
1, 77655, Note_off_c, 0, 72, 61
1, 77659, Note_off_c, 0, 47, 60
1, 77668, Note_off_c, 0, 50, 63
1, 77689, Control_c, 0, 67, 82
1, 77689, Note_on_c, 0, 79, 64
1, 77734, Control_c, 0, 67, 81
1, 77744, Note_off_c, 0, 79, 60
1, 77772, Note_on_c, 0, 71, 62
1, 77807, Note_off_c, 0, 71, 65
1, 77823, Control_c, 0, 67, 81
1, 77854, Note_on_c, 0, 79, 64
1, 77868, Control_c, 0, 67, 80
1, 77919, Note_off_c, 0, 79, 60
1, 77954, Note_on_c, 0, 52, 48
1, 77959, Note_on_c, 0, 69, 55
1, 77963, Note_on_c, 0, 48, 40
1, 77995, Note_off_c, 0, 69, 60
1, 78036, Note_on_c, 0, 79, 60
1, 78097, Note_off_c, 0, 79, 56
1, 78118, Note_on_c, 0, 78, 61
1, 78202, Note_off_c, 0, 78, 58
1, 78214, Note_on_c, 0, 79, 65
1, 78216, Control_c, 0, 67, 80
1, 78245, Control_c, 0, 67, 79
1, 78246, Note_off_c, 0, 48, 56
1, 78249, Note_off_c, 0, 52, 62
1, 78255, Note_off_c, 0, 79, 60
1, 78260, Control_c, 0, 67, 79
1, 78285, Note_on_c, 0, 76, 80
1, 78304, Control_c, 0, 67, 78
1, 78319, Control_c, 0, 67, 77
1, 78334, Control_c, 0, 67, 76
1, 78345, Note_off_c, 0, 76, 61
1, 78358, Note_on_c, 0, 79, 74
1, 78363, Control_c, 0, 67, 75
1, 78378, Control_c, 0, 67, 75
1, 78425, Note_off_c, 0, 79, 60
1, 78447, Note_on_c, 0, 74, 81
1, 78505, Note_off_c, 0, 74, 65
1, 78515, Note_on_c, 0, 79, 76
1, 78527, Control_c, 0, 67, 75
1, 78557, Control_c, 0, 67, 76
1, 78586, Note_off_c, 0, 79, 60
1, 78586, Control_c, 0, 67, 76
1, 78591, Note_on_c, 0, 48, 62
1, 78594, Note_on_c, 0, 57, 65
1, 78604, Note_on_c, 0, 72, 78
1, 78616, Control_c, 0, 67, 77
1, 78623, Note_off_c, 0, 57, 65
1, 78632, Note_off_c, 0, 48, 63
1, 78646, Control_c, 0, 67, 77
1, 78653, Note_off_c, 0, 72, 63
1, 78661, Control_c, 0, 67, 78
1, 78676, Note_on_c, 0, 79, 76
1, 78691, Control_c, 0, 67, 78
1, 78731, Note_off_c, 0, 79, 62
1, 78735, Control_c, 0, 67, 79
1, 78755, Note_on_c, 0, 71, 70
1, 78793, Note_off_c, 0, 71, 62
1, 78830, Note_on_c, 0, 79, 71
1, 78840, Control_c, 0, 67, 78
1, 78886, Note_off_c, 0, 79, 57
1, 78929, Note_on_c, 0, 50, 44
1, 78932, Note_on_c, 0, 69, 63
1, 78938, Note_on_c, 0, 62, 41
1, 78969, Note_off_c, 0, 69, 56
1, 78995, Control_c, 0, 67, 78
1, 79029, Note_on_c, 0, 83, 73
1, 79054, Control_c, 0, 67, 77
1, 79115, Note_on_c, 0, 81, 76
1, 79143, Note_off_c, 0, 83, 62
1, 79184, Note_off_c, 0, 50, 48
1, 79187, Note_on_c, 0, 79, 80
1, 79187, Note_off_c, 0, 62, 61
1, 79202, Control_c, 0, 67, 77
1, 79221, Note_off_c, 0, 81, 63
1, 79254, Note_off_c, 0, 79, 64
1, 79261, Note_on_c, 0, 78, 84
1, 79341, Note_on_c, 0, 79, 80
1, 79342, Note_off_c, 0, 78, 63
1, 79399, Note_off_c, 0, 79, 63
1, 79406, Note_on_c, 0, 76, 73
1, 79462, Note_off_c, 0, 76, 61
1, 79467, Note_on_c, 0, 78, 73
1, 79469, Control_c, 0, 67, 76
1, 79508, Note_off_c, 0, 78, 59
1, 79532, Note_on_c, 0, 50, 56
1, 79535, Note_on_c, 0, 38, 65
1, 79537, Note_on_c, 0, 79, 68
1, 79564, Note_off_c, 0, 79, 65
1, 79580, Note_off_c, 0, 38, 63
1, 79582, Note_off_c, 0, 50, 64
1, 79603, Control_c, 0, 67, 76
1, 79605, Note_on_c, 0, 78, 57
1, 79625, Note_off_c, 0, 78, 65
1, 79633, Note_on_c, 0, 79, 66
1, 79689, Note_off_c, 0, 79, 60
1, 79704, Note_on_c, 0, 78, 72
1, 79727, Note_off_c, 0, 78, 68
1, 79743, Control_c, 0, 67, 76
1, 79751, Note_on_c, 0, 76, 59
1, 79791, Note_off_c, 0, 76, 57
1, 79804, Note_on_c, 0, 78, 62
1, 79838, Note_off_c, 0, 78, 63
1, 79874, Note_on_c, 0, 79, 63
1, 79887, Note_on_c, 0, 43, 49
1, 79892, Note_on_c, 0, 55, 51
1, 79961, Note_on_c, 0, 76, 72
1, 79968, Note_off_c, 0, 79, 61
1, 80044, Note_on_c, 0, 74, 76
1, 80048, Note_off_c, 0, 76, 57
1, 80101, Note_off_c, 0, 74, 66
1, 80122, Note_on_c, 0, 72, 70
1, 80160, Note_off_c, 0, 72, 59
1, 80204, Note_on_c, 0, 71, 77
1, 80239, Note_off_c, 0, 43, 63
1, 80250, Note_off_c, 0, 71, 60
1, 80259, Note_off_c, 0, 55, 64
1, 80270, Note_on_c, 0, 72, 70
1, 80332, Note_off_c, 0, 72, 63
1, 80351, Control_c, 0, 67, 77
1, 80357, Note_on_c, 0, 69, 73
1, 80387, Note_off_c, 0, 69, 59
1, 80436, Note_on_c, 0, 71, 75
1, 80509, Note_on_c, 0, 67, 73
1, 80515, Note_off_c, 0, 71, 59
1, 80594, Note_on_c, 0, 60, 66
1, 80606, Note_off_c, 0, 67, 59
1, 80611, Control_c, 0, 67, 76
1, 80655, Control_c, 0, 67, 76
1, 80658, Note_on_c, 0, 59, 76
1, 80662, Note_off_c, 0, 60, 63
1, 80715, Control_c, 0, 67, 75
1, 80741, Note_off_c, 0, 59, 62
1, 80744, Note_on_c, 0, 57, 70
1, 80774, Control_c, 0, 67, 75
1, 80804, Control_c, 0, 67, 74
1, 80819, Control_c, 0, 67, 74
1, 80825, Note_off_c, 0, 57, 63
1, 80832, Note_on_c, 0, 59, 73
1, 80833, Control_c, 0, 67, 73
1, 80837, Note_on_c, 0, 67, 65
1, 80840, Note_on_c, 0, 74, 64
1, 80843, Note_on_c, 0, 71, 55
1, 80848, Control_c, 0, 67, 73
1, 80863, Control_c, 0, 67, 72
1, 80873, Note_off_c, 0, 59, 56
1, 80877, Control_c, 0, 67, 68
1, 80892, Control_c, 0, 67, 64
1, 80907, Control_c, 0, 67, 62
1, 80923, Control_c, 0, 67, 60
1, 80925, Note_on_c, 0, 62, 62
1, 80937, Control_c, 0, 67, 60
1, 80952, Control_c, 0, 67, 59
1, 80958, Note_off_c, 0, 62, 61
1, 80967, Control_c, 0, 67, 58
1, 80996, Control_c, 0, 67, 58
1, 81007, Note_on_c, 0, 60, 61
1, 81043, Note_off_c, 0, 60, 63
1, 81070, Control_c, 0, 67, 57
1, 81082, Note_on_c, 0, 62, 56
1, 81126, Note_off_c, 0, 62, 55
1, 81167, Note_on_c, 0, 59, 63
1, 81203, Note_off_c, 0, 59, 61
1, 81215, Note_off_c, 0, 67, 60
1, 81216, Note_off_c, 0, 74, 59
1, 81224, Note_off_c, 0, 71, 63
1, 81250, Note_on_c, 0, 62, 53
1, 81285, Note_off_c, 0, 62, 62
1, 81314, Control_c, 0, 67, 58
1, 81321, Note_on_c, 0, 57, 62
1, 81359, Note_off_c, 0, 57, 62
1, 81397, Note_on_c, 0, 62, 50
1, 81434, Note_off_c, 0, 62, 63
1, 81476, Note_on_c, 0, 55, 59
1, 81484, Note_on_c, 0, 74, 68
1, 81488, Note_on_c, 0, 71, 60
1, 81492, Note_on_c, 0, 67, 51
1, 81507, Control_c, 0, 67, 58
1, 81511, Note_off_c, 0, 55, 63
1, 81515, Note_off_c, 0, 67, 61
1, 81522, Note_off_c, 0, 74, 64
1, 81526, Note_off_c, 0, 71, 64
1, 81552, Control_c, 0, 67, 59
1, 81561, Note_on_c, 0, 59, 63
1, 81596, Control_c, 0, 67, 59
1, 81625, Note_off_c, 0, 59, 51
1, 81640, Note_on_c, 0, 57, 67
1, 81719, Note_off_c, 0, 57, 61
1, 81722, Note_on_c, 0, 55, 66
1, 81800, Note_off_c, 0, 55, 64
1, 81806, Note_on_c, 0, 69, 58
1, 81809, Note_on_c, 0, 74, 67
1, 81813, Note_on_c, 0, 54, 66
1, 81818, Note_on_c, 0, 66, 51
1, 81850, Note_off_c, 0, 54, 68
1, 81910, Note_on_c, 0, 62, 57
1, 81946, Note_off_c, 0, 62, 62
1, 81992, Note_on_c, 0, 61, 68
1, 82024, Note_off_c, 0, 61, 62
1, 82064, Note_on_c, 0, 62, 62
1, 82079, Control_c, 0, 67, 59
1, 82122, Note_off_c, 0, 62, 54
1, 82150, Note_on_c, 0, 59, 70
1, 82165, Note_off_c, 0, 66, 63
1, 82176, Note_off_c, 0, 74, 62
1, 82181, Note_off_c, 0, 69, 61
1, 82190, Note_off_c, 0, 59, 57
1, 82235, Note_on_c, 0, 62, 62
1, 82277, Note_off_c, 0, 62, 55
1, 82309, Note_on_c, 0, 57, 57
1, 82341, Note_off_c, 0, 57, 64
1, 82378, Note_on_c, 0, 62, 60
1, 82414, Note_off_c, 0, 62, 63
1, 82453, Note_on_c, 0, 55, 61
1, 82453, Note_on_c, 0, 74, 73
1, 82461, Note_on_c, 0, 69, 63
1, 82485, Note_off_c, 0, 55, 63
1, 82490, Note_off_c, 0, 69, 63
1, 82506, Note_off_c, 0, 74, 66
1, 82524, Control_c, 0, 67, 59
1, 82533, Note_on_c, 0, 62, 56
1, 82578, Note_off_c, 0, 62, 56
1, 82584, Control_c, 0, 67, 60
1, 82617, Note_on_c, 0, 54, 62
1, 82667, Note_off_c, 0, 54, 65
1, 82724, Note_on_c, 0, 62, 47
1, 82771, Note_off_c, 0, 62, 57
1, 82803, Note_on_c, 0, 52, 64
1, 82810, Note_on_c, 0, 79, 71
1, 82819, Note_on_c, 0, 76, 58
1, 82820, Note_on_c, 0, 67, 62
1, 82837, Note_off_c, 0, 52, 63
1, 82893, Note_on_c, 0, 64, 64
1, 82953, Note_off_c, 0, 64, 58
1, 82968, Note_on_c, 0, 62, 64
1, 83024, Note_off_c, 0, 62, 58
1, 83035, Control_c, 0, 67, 59
1, 83044, Note_on_c, 0, 64, 68
1, 83094, Control_c, 0, 67, 59
1, 83096, Note_off_c, 0, 64, 62
1, 83123, Note_on_c, 0, 61, 73
1, 83153, Control_c, 0, 67, 58
1, 83161, Note_off_c, 0, 67, 62
1, 83172, Note_off_c, 0, 61, 59
1, 83183, Note_off_c, 0, 79, 58
1, 83204, Note_off_c, 0, 76, 61
1, 83207, Note_on_c, 0, 62, 70
1, 83275, Note_off_c, 0, 62, 59
1, 83283, Note_on_c, 0, 59, 60
1, 83355, Note_off_c, 0, 59, 61
1, 83369, Note_on_c, 0, 61, 69
1, 83440, Note_off_c, 0, 61, 63
1, 83450, Note_on_c, 0, 57, 66
1, 83450, Note_on_c, 0, 79, 72
1, 83458, Note_on_c, 0, 76, 70
1, 83460, Note_on_c, 0, 73, 74
1, 83526, Note_off_c, 0, 79, 62
1, 83530, Note_off_c, 0, 73, 61
1, 83536, Note_off_c, 0, 76, 62
1, 83538, Note_off_c, 0, 57, 62
1, 83547, Note_on_c, 0, 61, 70
1, 83547, Control_c, 0, 67, 59
1, 83591, Control_c, 0, 67, 59
1, 83612, Note_off_c, 0, 61, 63
1, 83621, Note_on_c, 0, 59, 69
1, 83691, Note_off_c, 0, 59, 63
1, 83703, Note_on_c, 0, 61, 73
1, 83763, Note_off_c, 0, 61, 61
1, 83791, Note_on_c, 0, 78, 74
1, 83797, Note_on_c, 0, 62, 73
1, 83798, Note_on_c, 0, 69, 69
1, 83803, Note_on_c, 0, 74, 68
1, 83829, Control_c, 0, 67, 60
1, 83862, Note_off_c, 0, 62, 59
1, 83888, Note_on_c, 0, 57, 72
1, 83953, Note_off_c, 0, 57, 63
1, 83958, Note_on_c, 0, 55, 73
1, 84032, Note_off_c, 0, 55, 65
1, 84038, Note_on_c, 0, 57, 78
1, 84049, Control_c, 0, 67, 59
1, 84064, Control_c, 0, 67, 58
1, 84079, Control_c, 0, 67, 56
1, 84093, Control_c, 0, 67, 53
1, 84109, Control_c, 0, 67, 45
1, 84116, Note_off_c, 0, 57, 62
1, 84123, Note_on_c, 0, 54, 82
1, 84124, Control_c, 0, 67, 32
1, 84146, Control_c, 0, 67, 18
1, 84161, Control_c, 0, 67, 0
1, 84162, Note_off_c, 0, 69, 60
1, 84187, Note_off_c, 0, 74, 65
1, 84190, Note_off_c, 0, 54, 68
1, 84199, Note_off_c, 0, 78, 62
1, 84214, Note_on_c, 0, 55, 79
1, 84287, Note_off_c, 0, 55, 61
1, 84295, Note_on_c, 0, 52, 74
1, 84370, Note_on_c, 0, 54, 81
1, 84372, Note_off_c, 0, 52, 63
1, 84453, Note_on_c, 0, 50, 80
1, 84455, Note_on_c, 0, 78, 84
1, 84455, Note_off_c, 0, 54, 64
1, 84459, Note_on_c, 0, 74, 82
1, 84462, Note_on_c, 0, 69, 74
1, 84487, Control_c, 0, 64, 32
1, 84502, Control_c, 0, 64, 0
1, 84505, Note_off_c, 0, 69, 57
1, 84520, Note_off_c, 0, 50, 65
1, 84533, Note_on_c, 0, 52, 78
1, 84548, Note_off_c, 0, 74, 65
1, 84573, Note_off_c, 0, 78, 61
1, 84614, Note_on_c, 0, 48, 78
1, 84623, Note_off_c, 0, 52, 60
1, 84650, Control_c, 0, 64, 11
1, 84664, Control_c, 0, 64, 14
1, 84679, Control_c, 0, 64, 17
1, 84694, Control_c, 0, 64, 19
1, 84700, Note_on_c, 0, 50, 81
1, 84701, Note_off_c, 0, 48, 63
1, 84724, Control_c, 0, 64, 21
1, 84739, Control_c, 0, 64, 23
1, 84754, Control_c, 0, 64, 24
1, 84790, Note_on_c, 0, 47, 78
1, 84793, Note_off_c, 0, 50, 65
1, 84798, Control_c, 0, 64, 23
1, 84801, Note_on_c, 0, 79, 81
1, 84807, Note_on_c, 0, 71, 78
1, 84810, Note_on_c, 0, 74, 77
1, 84813, Control_c, 0, 64, 21
1, 84828, Control_c, 0, 64, 19
1, 84855, Note_off_c, 0, 47, 65
1, 84868, Note_on_c, 0, 48, 78
1, 84872, Control_c, 0, 64, 21
1, 84909, Control_c, 0, 64, 23
1, 84968, Note_on_c, 0, 45, 75
1, 84973, Note_off_c, 0, 48, 62
1, 85037, Note_on_c, 0, 47, 80
1, 85043, Note_off_c, 0, 45, 65
1, 85043, Control_c, 0, 64, 24
1, 85058, Control_c, 0, 64, 26
1, 85073, Control_c, 0, 64, 27
1, 85103, Control_c, 0, 64, 28
1, 85119, Note_on_c, 0, 43, 81
1, 85124, Note_off_c, 0, 47, 66
1, 85147, Control_c, 0, 64, 27
1, 85168, Note_off_c, 0, 71, 64
1, 85171, Note_off_c, 0, 79, 62
1, 85181, Note_off_c, 0, 74, 66
1, 85184, Note_off_c, 0, 43, 63
1, 85194, Note_on_c, 0, 45, 87
1, 85207, Control_c, 0, 64, 28
1, 85221, Control_c, 0, 64, 31
1, 85236, Control_c, 0, 64, 38
1, 85251, Control_c, 0, 64, 43
1, 85258, Note_off_c, 0, 45, 56
1, 85265, Control_c, 0, 64, 46
1, 85280, Control_c, 0, 64, 48
1, 85284, Note_on_c, 0, 43, 65
1, 85295, Control_c, 0, 64, 49
1, 85310, Control_c, 0, 64, 50
1, 85369, Control_c, 0, 64, 49
1, 85384, Control_c, 0, 64, 47
1, 85399, Control_c, 0, 64, 44
1, 85413, Control_c, 0, 64, 42
1, 85429, Control_c, 0, 64, 38
1, 85430, Note_off_c, 0, 43, 57
1, 85432, Note_on_c, 0, 40, 75
1, 85438, Note_on_c, 0, 74, 86
1, 85439, Note_on_c, 0, 71, 81
1, 85439, Note_on_c, 0, 67, 82
1, 85444, Control_c, 0, 64, 38
1, 85459, Control_c, 0, 64, 37
1, 85473, Control_c, 0, 64, 36
1, 85488, Control_c, 0, 64, 37
1, 85503, Control_c, 0, 64, 42
1, 85513, Note_on_c, 0, 42, 82
1, 85515, Note_off_c, 0, 67, 60
1, 85517, Note_off_c, 0, 40, 64
1, 85518, Control_c, 0, 64, 49
1, 85533, Control_c, 0, 64, 56
1, 85547, Note_off_c, 0, 71, 64
1, 85547, Note_off_c, 0, 74, 63
1, 85547, Control_c, 0, 64, 61
1, 85562, Control_c, 0, 64, 63
1, 85577, Control_c, 0, 64, 64
1, 85592, Control_c, 0, 64, 64
1, 85596, Note_on_c, 0, 38, 72
1, 85597, Note_off_c, 0, 42, 64
1, 85607, Control_c, 0, 64, 65
1, 85621, Control_c, 0, 64, 65
1, 85659, Control_c, 0, 64, 65
1, 85673, Control_c, 0, 64, 63
1, 85675, Note_on_c, 0, 40, 77
1, 85687, Note_off_c, 0, 38, 61
1, 85688, Control_c, 0, 64, 56
1, 85703, Control_c, 0, 64, 0
1, 85821, Note_on_c, 0, 76, 89
1, 85824, Note_on_c, 0, 67, 84
1, 85824, Note_on_c, 0, 72, 77
1, 85827, Note_on_c, 0, 36, 87
1, 85833, Note_off_c, 0, 40, 63
1, 85852, Control_c, 0, 64, 64
1, 85856, Note_off_c, 0, 36, 67
1, 85867, Control_c, 0, 64, 97
1, 85882, Control_c, 0, 64, 127
1, 86047, Note_on_c, 0, 60, 78
1, 86116, Note_off_c, 0, 60, 58
1, 86137, Note_on_c, 0, 59, 78
1, 86202, Note_off_c, 0, 59, 61
1, 86208, Control_c, 0, 64, 94
1, 86212, Note_on_c, 0, 60, 78
1, 86223, Control_c, 0, 64, 71
1, 86237, Control_c, 0, 64, 0
1, 86284, Note_on_c, 0, 57, 81
1, 86287, Note_off_c, 0, 60, 60
1, 86311, Control_c, 0, 64, 27
1, 86326, Control_c, 0, 64, 42
1, 86341, Control_c, 0, 64, 40
1, 86355, Control_c, 0, 64, 19
1, 86363, Note_off_c, 0, 76, 62
1, 86364, Note_off_c, 0, 57, 64
1, 86365, Note_off_c, 0, 67, 61
1, 86369, Note_on_c, 0, 59, 83
1, 86370, Control_c, 0, 64, 0
1, 86390, Note_off_c, 0, 72, 64
1, 86447, Note_on_c, 0, 55, 76
1, 86451, Note_off_c, 0, 59, 62
1, 86516, Note_off_c, 0, 55, 63
1, 86526, Note_on_c, 0, 57, 83
1, 86591, Note_off_c, 0, 57, 62
1, 86613, Note_on_c, 0, 54, 80
1, 86615, Note_on_c, 0, 72, 84
1, 86617, Note_on_c, 0, 62, 85
1, 86617, Note_on_c, 0, 69, 76
1, 86646, Control_c, 0, 64, 64
1, 86675, Control_c, 0, 64, 58
1, 86680, Note_off_c, 0, 54, 66
1, 86690, Control_c, 0, 64, 59
1, 86695, Note_on_c, 0, 55, 69
1, 86744, Note_off_c, 0, 55, 57
1, 86749, Control_c, 0, 64, 59
1, 86764, Control_c, 0, 64, 60
1, 86770, Note_on_c, 0, 52, 82
1, 86775, Note_off_c, 0, 72, 63
1, 86779, Control_c, 0, 64, 60
1, 86808, Control_c, 0, 64, 61
1, 86811, Note_off_c, 0, 62, 60
1, 86844, Note_on_c, 0, 54, 90
1, 86850, Note_off_c, 0, 52, 63
1, 86882, Control_c, 0, 64, 60
1, 86897, Control_c, 0, 64, 59
1, 86911, Note_off_c, 0, 54, 67
1, 86912, Control_c, 0, 64, 59
1, 86936, Note_on_c, 0, 62, 83
1, 86936, Note_on_c, 0, 55, 97
1, 86939, Note_on_c, 0, 71, 80
1, 86942, Control_c, 0, 64, 58
1, 86943, Note_on_c, 0, 67, 78
1, 86968, Note_off_c, 0, 55, 69
1, 86983, Note_off_c, 0, 62, 62
1, 86984, Note_off_c, 0, 69, 56
1, 87017, Note_off_c, 0, 71, 64
1, 87031, Control_c, 0, 64, 59
1, 87060, Control_c, 0, 64, 59
1, 87143, Note_on_c, 0, 72, 81
1, 87150, Note_on_c, 0, 64, 78
1, 87152, Note_on_c, 0, 48, 92
1, 87174, Note_off_c, 0, 48, 71
1, 87203, Note_off_c, 0, 72, 62
1, 87215, Note_off_c, 0, 64, 64
1, 87275, Control_c, 0, 64, 59
1, 87305, Control_c, 0, 64, 58
1, 87320, Control_c, 0, 64, 54
1, 87335, Control_c, 0, 64, 24
1, 87350, Control_c, 0, 64, 0
1, 87352, Note_on_c, 0, 71, 79
1, 87355, Note_on_c, 0, 50, 93
1, 87356, Note_on_c, 0, 62, 74
1, 87392, Note_off_c, 0, 50, 64
1, 87513, Control_c, 0, 64, 47
1, 87528, Control_c, 0, 64, 57
1, 87542, Control_c, 0, 64, 61
1, 87557, Control_c, 0, 64, 63
1, 87566, Note_on_c, 0, 48, 93
1, 87572, Control_c, 0, 64, 64
1, 87587, Control_c, 0, 64, 66
1, 87597, Note_off_c, 0, 48, 64
1, 87602, Control_c, 0, 64, 67
1, 87608, Note_off_c, 0, 62, 61
1, 87615, Note_off_c, 0, 71, 64
1, 87616, Control_c, 0, 64, 68
1, 87627, Note_off_c, 0, 67, 62
1, 87631, Control_c, 0, 64, 69
1, 87646, Control_c, 0, 64, 70
1, 87660, Control_c, 0, 64, 71
1, 87675, Control_c, 0, 64, 72
1, 87690, Control_c, 0, 64, 74
1, 87705, Control_c, 0, 64, 75
1, 87720, Control_c, 0, 64, 76
1, 87764, Control_c, 0, 64, 75
1, 87776, Note_on_c, 0, 50, 87
1, 87779, Control_c, 0, 64, 73
1, 87779, Note_on_c, 0, 69, 82
1, 87794, Control_c, 0, 64, 66
1, 87808, Control_c, 0, 64, 0
1, 87820, Note_off_c, 0, 50, 67
1, 87896, Note_on_c, 0, 66, 78
1, 88019, Note_off_c, 0, 66, 63
1, 88021, Note_on_c, 0, 60, 83
1, 88022, Note_on_c, 0, 38, 85
1, 88051, Note_off_c, 0, 38, 68
1, 88143, Control_c, 0, 64, 53
1, 88157, Control_c, 0, 64, 52
1, 88169, Note_on_c, 0, 67, 86
1, 88172, Control_c, 0, 64, 52
1, 88187, Control_c, 0, 64, 52
1, 88200, Note_off_c, 0, 69, 63
1, 88201, Note_off_c, 0, 60, 63
1, 88217, Control_c, 0, 64, 51
1, 88232, Control_c, 0, 64, 51
1, 88233, Note_off_c, 0, 67, 62
1, 88246, Control_c, 0, 64, 50
1, 88305, Control_c, 0, 64, 51
1, 88335, Control_c, 0, 64, 50
1, 88345, Note_on_c, 0, 55, 70
1, 88347, Note_on_c, 0, 67, 75
1, 88350, Control_c, 0, 64, 48
1, 88352, Note_on_c, 0, 59, 68
1, 88353, Note_on_c, 0, 62, 62
1, 88364, Control_c, 0, 64, 47
1, 88379, Control_c, 0, 64, 46
1, 88394, Control_c, 0, 64, 45
1, 88409, Control_c, 0, 64, 44
1, 88454, Control_c, 0, 64, 44
1, 88469, Control_c, 0, 64, 43
1, 88483, Control_c, 0, 64, 43
1, 88498, Control_c, 0, 64, 42
1, 88513, Control_c, 0, 64, 42
1, 88528, Control_c, 0, 64, 41
1, 88536, Note_on_c, 0, 50, 72
1, 88557, Control_c, 0, 64, 40
1, 88587, Control_c, 0, 64, 40
1, 88590, Note_off_c, 0, 55, 54
1, 88639, Control_c, 0, 64, 39
1, 88659, Note_on_c, 0, 48, 76
1, 88661, Note_off_c, 0, 50, 65
1, 88743, Control_c, 0, 64, 38
1, 88749, Note_off_c, 0, 48, 63
1, 88755, Note_on_c, 0, 50, 79
1, 88757, Control_c, 0, 64, 38
1, 88802, Control_c, 0, 64, 37
1, 88843, Note_off_c, 0, 50, 65
1, 88847, Control_c, 0, 64, 36
1, 88852, Note_on_c, 0, 47, 72
1, 88861, Control_c, 0, 64, 36
1, 88876, Control_c, 0, 64, 35
1, 88891, Control_c, 0, 64, 34
1, 88906, Control_c, 0, 64, 32
1, 88921, Control_c, 0, 64, 31
1, 88932, Note_off_c, 0, 47, 63
1, 88936, Control_c, 0, 64, 30
1, 88951, Control_c, 0, 64, 29
1, 88954, Note_on_c, 0, 48, 72
1, 88966, Control_c, 0, 64, 28
1, 88981, Control_c, 0, 64, 26
1, 88996, Control_c, 0, 64, 23
1, 89011, Control_c, 0, 64, 21
1, 89025, Control_c, 0, 64, 19
1, 89040, Control_c, 0, 64, 17
1, 89059, Note_on_c, 0, 45, 67
1, 89064, Note_off_c, 0, 48, 59
1, 89070, Control_c, 0, 64, 14
1, 89085, Control_c, 0, 64, 11
1, 89100, Control_c, 0, 64, 0
1, 89156, Note_off_c, 0, 45, 65
1, 89168, Note_on_c, 0, 47, 63
1, 89341, Note_off_c, 0, 47, 62
1, 89347, Note_on_c, 0, 43, 57
1, 89610, Control_c, 0, 64, 53
1, 89625, Control_c, 0, 64, 62
1, 89639, Control_c, 0, 64, 65
1, 89654, Control_c, 0, 64, 67
1, 89669, Control_c, 0, 64, 70
1, 89684, Control_c, 0, 64, 74
1, 89699, Control_c, 0, 64, 78
1, 89715, Control_c, 0, 64, 85
1, 89729, Control_c, 0, 64, 90
1, 89744, Control_c, 0, 64, 96
1, 89759, Control_c, 0, 64, 104
1, 89774, Control_c, 0, 64, 114
1, 89789, Control_c, 0, 64, 127
1, 89833, Note_off_c, 0, 59, 49
1, 89848, Note_off_c, 0, 43, 36
1, 89884, Note_off_c, 0, 67, 43
1, 89954, Note_off_c, 0, 62, 39
1, 90182, Control_c, 0, 67, 9
1, 90197, Control_c, 0, 67, 11
1, 90211, Control_c, 0, 67, 13
1, 90226, Control_c, 0, 67, 17
1, 90241, Control_c, 0, 67, 21
1, 90256, Control_c, 0, 67, 25
1, 90270, Control_c, 0, 67, 31
1, 90285, Control_c, 0, 67, 37
1, 90300, Control_c, 0, 67, 42
1, 90315, Control_c, 0, 67, 49
1, 90330, Control_c, 0, 67, 56
1, 90344, Control_c, 0, 67, 64
1, 90359, Control_c, 0, 67, 72
1, 90374, Control_c, 0, 64, 115
1, 90374, Control_c, 0, 67, 81
1, 90389, Control_c, 0, 64, 106
1, 90389, Control_c, 0, 67, 89
1, 90404, Control_c, 0, 64, 98
1, 90404, Control_c, 0, 67, 98
1, 90418, Control_c, 0, 64, 92
1, 90418, Control_c, 0, 67, 106
1, 90433, Control_c, 0, 64, 85
1, 90433, Control_c, 0, 67, 114
1, 90448, Control_c, 0, 64, 78
1, 90448, Control_c, 0, 67, 121
1, 90462, Control_c, 0, 64, 68
1, 90462, Control_c, 0, 67, 127
1, 90477, Control_c, 0, 64, 43
1, 90477, Control_c, 0, 67, 127
1, 90492, Control_c, 0, 64, 0
1, 91401, Note_on_c, 0, 55, 21
1, 91407, Note_on_c, 0, 70, 49
1, 91694, Control_c, 0, 67, 127
1, 91738, Control_c, 0, 67, 126
1, 91783, Control_c, 0, 67, 126
1, 91857, Control_c, 0, 67, 125
1, 91946, Control_c, 0, 67, 125
1, 92034, Control_c, 0, 67, 124
1, 92069, Note_on_c, 0, 62, 32
1, 92169, Control_c, 0, 67, 124
1, 92187, Note_off_c, 0, 62, 56
1, 92464, Note_on_c, 0, 63, 36
1, 92754, Control_c, 0, 64, 26
1, 92769, Control_c, 0, 64, 45
1, 92784, Control_c, 0, 64, 54
1, 92798, Control_c, 0, 64, 60
1, 92813, Control_c, 0, 64, 63
1, 92813, Control_c, 0, 67, 123
1, 92828, Control_c, 0, 64, 66
1, 92843, Control_c, 0, 64, 69
1, 92850, Note_on_c, 0, 72, 51
1, 92857, Control_c, 0, 64, 72
1, 92857, Control_c, 0, 67, 123
1, 92872, Control_c, 0, 64, 74
1, 92877, Note_off_c, 0, 70, 56
1, 92887, Control_c, 0, 64, 77
1, 92887, Control_c, 0, 67, 122
1, 92903, Control_c, 0, 64, 80
1, 92918, Control_c, 0, 64, 82
1, 92918, Control_c, 0, 67, 120
1, 92933, Control_c, 0, 64, 84
1, 92933, Control_c, 0, 67, 118
1, 92948, Control_c, 0, 64, 86
1, 92948, Control_c, 0, 67, 117
1, 92962, Control_c, 0, 64, 87
1, 92962, Control_c, 0, 67, 115
1, 92977, Control_c, 0, 64, 88
1, 92977, Control_c, 0, 67, 115
1, 92992, Control_c, 0, 64, 88
1, 92992, Control_c, 0, 67, 114
1, 93007, Control_c, 0, 67, 114
1, 93014, Note_off_c, 0, 55, 55
1, 93019, Note_on_c, 0, 69, 68
1, 93022, Control_c, 0, 67, 113
1, 93055, Note_off_c, 0, 72, 61
1, 93066, Control_c, 0, 67, 113
1, 93177, Control_c, 0, 64, 88
1, 93192, Control_c, 0, 64, 87
1, 93207, Control_c, 0, 64, 85
1, 93215, Note_on_c, 0, 55, 39
1, 93219, Note_on_c, 0, 70, 65
1, 93222, Control_c, 0, 64, 82
1, 93222, Control_c, 0, 67, 113
1, 93236, Control_c, 0, 64, 76
1, 93251, Control_c, 0, 64, 70
1, 93266, Control_c, 0, 64, 64
1, 93280, Control_c, 0, 64, 53
1, 93280, Control_c, 0, 67, 114
1, 93295, Control_c, 0, 64, 30
1, 93302, Note_off_c, 0, 69, 50
1, 93310, Control_c, 0, 64, 0
1, 93325, Control_c, 0, 67, 114
1, 93340, Control_c, 0, 67, 115
1, 93369, Control_c, 0, 67, 115
1, 93384, Control_c, 0, 67, 116
1, 93399, Control_c, 0, 67, 117
1, 93413, Control_c, 0, 67, 117
1, 93428, Control_c, 0, 67, 118
1, 93443, Control_c, 0, 67, 119
1, 93458, Control_c, 0, 67, 120
1, 93473, Control_c, 0, 67, 122
1, 93488, Control_c, 0, 67, 124
1, 93503, Control_c, 0, 67, 126
1, 93518, Control_c, 0, 67, 127
1, 93603, Note_on_c, 0, 72, 58
1, 93640, Note_off_c, 0, 70, 59
1, 93726, Control_c, 0, 64, 49
1, 93741, Control_c, 0, 64, 63
1, 93756, Control_c, 0, 64, 67
1, 93771, Control_c, 0, 64, 71
1, 93785, Control_c, 0, 64, 75
1, 93800, Control_c, 0, 64, 81
1, 93812, Note_off_c, 0, 55, 57
1, 93815, Control_c, 0, 64, 86
1, 93829, Control_c, 0, 64, 90
1, 93844, Control_c, 0, 64, 95
1, 93859, Control_c, 0, 64, 101
1, 93881, Control_c, 0, 64, 107
1, 93896, Control_c, 0, 64, 116
1, 93911, Control_c, 0, 64, 127
1, 94078, Note_on_c, 0, 53, 31
1, 94158, Note_off_c, 0, 72, 56
1, 94163, Control_c, 0, 64, 126
1, 94173, Note_on_c, 0, 70, 54
1, 94177, Control_c, 0, 64, 112
1, 94192, Control_c, 0, 64, 106
1, 94207, Control_c, 0, 64, 99
1, 94217, Note_off_c, 0, 70, 61
1, 94222, Control_c, 0, 64, 93
1, 94236, Control_c, 0, 64, 86
1, 94245, Note_on_c, 0, 69, 53
1, 94251, Control_c, 0, 64, 79
1, 94266, Note_off_c, 0, 63, 42
1, 94266, Control_c, 0, 64, 71
1, 94267, Note_off_c, 0, 69, 58
1, 94281, Control_c, 0, 64, 61
1, 94296, Control_c, 0, 64, 0
1, 94296, Note_on_c, 0, 70, 50
1, 94331, Note_off_c, 0, 70, 63
1, 94361, Note_on_c, 0, 69, 53
1, 94498, Note_on_c, 0, 63, 40
1, 94610, Note_off_c, 0, 63, 56
1, 94867, Control_c, 0, 64, 41
1, 94879, Note_on_c, 0, 62, 31
1, 94882, Control_c, 0, 64, 59
1, 94897, Control_c, 0, 64, 64
1, 94912, Control_c, 0, 64, 67
1, 94926, Control_c, 0, 64, 71
1, 94941, Control_c, 0, 64, 75
1, 94956, Control_c, 0, 64, 79
1, 94971, Control_c, 0, 64, 83
1, 94986, Control_c, 0, 64, 88
1, 95000, Control_c, 0, 64, 93
1, 95000, Control_c, 0, 67, 127
1, 95005, Note_off_c, 0, 69, 43
1, 95015, Control_c, 0, 64, 99
1, 95015, Control_c, 0, 67, 126
1, 95030, Control_c, 0, 64, 109
1, 95030, Control_c, 0, 67, 125
1, 95045, Control_c, 0, 64, 127
1, 95045, Control_c, 0, 67, 123
1, 95059, Control_c, 0, 67, 121
1, 95074, Control_c, 0, 67, 119
1, 95089, Control_c, 0, 67, 117
1, 95104, Control_c, 0, 67, 114
1, 95119, Control_c, 0, 67, 110
1, 95133, Control_c, 0, 67, 106
1, 95148, Control_c, 0, 67, 102
1, 95164, Control_c, 0, 67, 97
1, 95178, Control_c, 0, 67, 93
1, 95193, Control_c, 0, 67, 89
1, 95208, Control_c, 0, 67, 85
1, 95223, Control_c, 0, 67, 81
1, 95238, Control_c, 0, 67, 76
1, 95253, Control_c, 0, 67, 70
1, 95267, Control_c, 0, 67, 65
1, 95273, Note_on_c, 0, 69, 54
1, 95282, Control_c, 0, 67, 60
1, 95298, Control_c, 0, 67, 57
1, 95313, Control_c, 0, 67, 54
1, 95328, Control_c, 0, 67, 52
1, 95342, Control_c, 0, 67, 50
1, 95357, Control_c, 0, 67, 49
1, 95360, Note_off_c, 0, 53, 42
1, 95380, Control_c, 0, 67, 47
1, 95395, Control_c, 0, 67, 46
1, 95410, Control_c, 0, 67, 46
1, 95424, Control_c, 0, 67, 45
1, 95439, Control_c, 0, 67, 45
1, 95454, Control_c, 0, 67, 44
1, 95498, Control_c, 0, 67, 44
1, 95631, Control_c, 0, 64, 106
1, 95640, Note_on_c, 0, 53, 27
1, 95646, Control_c, 0, 64, 92
1, 95655, Note_on_c, 0, 74, 61
1, 95661, Control_c, 0, 64, 81
1, 95676, Control_c, 0, 64, 69
1, 95691, Control_c, 0, 64, 0
1, 95786, Note_off_c, 0, 69, 62
1, 95927, Control_c, 0, 64, 42
1, 95942, Control_c, 0, 64, 59
1, 95956, Control_c, 0, 64, 64
1, 95971, Control_c, 0, 64, 66
1, 95986, Control_c, 0, 64, 70
1, 96001, Control_c, 0, 64, 73
1, 96006, Note_on_c, 0, 70, 58
1, 96016, Control_c, 0, 64, 78
1, 96031, Control_c, 0, 64, 82
1, 96045, Control_c, 0, 64, 87
1, 96060, Control_c, 0, 64, 93
1, 96075, Control_c, 0, 64, 101
1, 96090, Control_c, 0, 64, 111
1, 96105, Note_off_c, 0, 53, 52
1, 96105, Control_c, 0, 64, 127
1, 96129, Note_off_c, 0, 74, 59
1, 96295, Note_off_c, 0, 70, 57
1, 96335, Control_c, 0, 67, 44
1, 96350, Control_c, 0, 67, 45
1, 96358, Note_on_c, 0, 51, 37
1, 96365, Control_c, 0, 67, 45
1, 96379, Control_c, 0, 67, 46
1, 96394, Control_c, 0, 67, 46
1, 96409, Control_c, 0, 67, 47
1, 96424, Control_c, 0, 67, 48
1, 96433, Note_on_c, 0, 69, 55
1, 96439, Control_c, 0, 67, 49
1, 96454, Control_c, 0, 67, 50
1, 96462, Note_off_c, 0, 69, 65
1, 96469, Control_c, 0, 67, 51
1, 96478, Note_off_c, 0, 62, 38
1, 96484, Control_c, 0, 64, 110
1, 96484, Control_c, 0, 67, 52
1, 96484, Note_on_c, 0, 67, 59
1, 96498, Control_c, 0, 64, 98
1, 96498, Control_c, 0, 67, 54
1, 96505, Note_off_c, 0, 67, 62
1, 96513, Control_c, 0, 64, 89
1, 96513, Control_c, 0, 67, 55
1, 96528, Control_c, 0, 64, 80
1, 96528, Control_c, 0, 67, 56
1, 96533, Note_on_c, 0, 69, 66
1, 96543, Control_c, 0, 64, 71
1, 96543, Control_c, 0, 67, 57
1, 96558, Control_c, 0, 64, 60
1, 96558, Control_c, 0, 67, 61
1, 96562, Note_off_c, 0, 69, 63
1, 96572, Control_c, 0, 64, 21
1, 96572, Control_c, 0, 67, 66
1, 96583, Note_on_c, 0, 67, 60
1, 96587, Control_c, 0, 64, 0
1, 96587, Control_c, 0, 67, 74
1, 96602, Control_c, 0, 67, 84
1, 96617, Control_c, 0, 67, 94
1, 96631, Control_c, 0, 67, 103
1, 96646, Control_c, 0, 67, 111
1, 96661, Control_c, 0, 67, 120
1, 96675, Control_c, 0, 67, 127
1, 96690, Control_c, 0, 67, 127
1, 96776, Note_on_c, 0, 62, 45
1, 96906, Note_off_c, 0, 62, 60
1, 96940, Note_off_c, 0, 67, 59
1, 96941, Note_on_c, 0, 66, 63
1, 97113, Note_on_c, 0, 60, 37
1, 97134, Note_on_c, 0, 67, 51
1, 97145, Note_off_c, 0, 66, 58
1, 97291, Control_c, 0, 67, 126
1, 97306, Control_c, 0, 67, 123
1, 97320, Control_c, 0, 67, 119
1, 97335, Control_c, 0, 67, 115
1, 97350, Control_c, 0, 67, 110
1, 97365, Control_c, 0, 67, 105
1, 97380, Control_c, 0, 67, 100
1, 97394, Control_c, 0, 67, 95
1, 97409, Control_c, 0, 64, 24
1, 97409, Control_c, 0, 67, 90
1, 97424, Control_c, 0, 64, 43
1, 97424, Control_c, 0, 67, 86
1, 97438, Control_c, 0, 64, 51
1, 97438, Control_c, 0, 67, 83
1, 97453, Control_c, 0, 64, 58
1, 97453, Control_c, 0, 67, 78
1, 97468, Control_c, 0, 64, 62
1, 97468, Control_c, 0, 67, 73
1, 97483, Control_c, 0, 64, 64
1, 97483, Control_c, 0, 67, 69
1, 97498, Control_c, 0, 64, 67
1, 97498, Control_c, 0, 67, 65
1, 97503, Note_on_c, 0, 78, 64
1, 97512, Control_c, 0, 64, 70
1, 97512, Control_c, 0, 67, 61
1, 97527, Control_c, 0, 64, 72
1, 97527, Control_c, 0, 67, 57
1, 97542, Control_c, 0, 64, 76
1, 97542, Control_c, 0, 67, 54
1, 97557, Control_c, 0, 64, 80
1, 97557, Control_c, 0, 67, 51
1, 97572, Control_c, 0, 64, 83
1, 97572, Control_c, 0, 67, 48
1, 97587, Control_c, 0, 64, 87
1, 97587, Control_c, 0, 67, 46
1, 97601, Note_off_c, 0, 51, 51
1, 97601, Control_c, 0, 64, 90
1, 97601, Control_c, 0, 67, 44
1, 97624, Control_c, 0, 64, 93
1, 97624, Control_c, 0, 67, 42
1, 97639, Control_c, 0, 64, 95
1, 97639, Control_c, 0, 67, 40
1, 97653, Control_c, 0, 64, 98
1, 97653, Control_c, 0, 67, 39
1, 97668, Control_c, 0, 64, 99
1, 97668, Control_c, 0, 67, 38
1, 97683, Control_c, 0, 64, 101
1, 97683, Control_c, 0, 67, 37
1, 97699, Control_c, 0, 64, 101
1, 97714, Control_c, 0, 64, 102
1, 97729, Control_c, 0, 64, 102
1, 97862, Control_c, 0, 64, 102
1, 97873, Note_on_c, 0, 79, 64
1, 97876, Control_c, 0, 64, 101
1, 97891, Control_c, 0, 64, 98
1, 97906, Control_c, 0, 64, 95
1, 97909, Note_on_c, 0, 51, 35
1, 97921, Control_c, 0, 64, 89
1, 97936, Control_c, 0, 64, 82
1, 97948, Note_off_c, 0, 67, 33
1, 97950, Control_c, 0, 64, 74
1, 97955, Note_off_c, 0, 78, 48
1, 97965, Control_c, 0, 64, 65
1, 97980, Control_c, 0, 64, 36
1, 97995, Control_c, 0, 64, 0
1, 98099, Control_c, 0, 67, 37
1, 98114, Control_c, 0, 67, 36
1, 98129, Control_c, 0, 67, 36
1, 98143, Control_c, 0, 67, 35
1, 98158, Control_c, 0, 67, 32
1, 98173, Control_c, 0, 67, 27
1, 98187, Control_c, 0, 64, 49
1, 98187, Control_c, 0, 67, 20
1, 98202, Control_c, 0, 64, 63
1, 98202, Control_c, 0, 67, 14
1, 98217, Control_c, 0, 64, 67
1, 98217, Control_c, 0, 67, 0
1, 98232, Control_c, 0, 64, 71
1, 98247, Control_c, 0, 64, 76
1, 98248, Note_on_c, 0, 81, 61
1, 98261, Control_c, 0, 64, 83
1, 98276, Control_c, 0, 64, 89
1, 98284, Note_off_c, 0, 79, 59
1, 98291, Control_c, 0, 64, 96
1, 98306, Control_c, 0, 64, 104
1, 98321, Control_c, 0, 64, 113
1, 98335, Control_c, 0, 64, 127
1, 98374, Note_off_c, 0, 60, 53
1, 98389, Note_off_c, 0, 51, 43
1, 98446, Note_off_c, 0, 81, 56
1, 98626, Note_on_c, 0, 50, 39
1, 98628, Note_on_c, 0, 79, 59
1, 98652, Note_on_c, 0, 62, 27
1, 98657, Note_on_c, 0, 57, 39
1, 98661, Note_off_c, 0, 79, 63
1, 98694, Note_on_c, 0, 78, 62
1, 98714, Control_c, 0, 64, 109
1, 98729, Control_c, 0, 64, 94
1, 98730, Note_off_c, 0, 78, 61
1, 98744, Control_c, 0, 64, 84
1, 98749, Note_on_c, 0, 79, 64
1, 98759, Control_c, 0, 64, 75
1, 98773, Control_c, 0, 64, 65
1, 98788, Control_c, 0, 64, 27
1, 98800, Note_on_c, 0, 78, 65
1, 98803, Control_c, 0, 64, 0
1, 98812, Note_off_c, 0, 79, 59
1, 99039, Note_on_c, 0, 79, 63
1, 99075, Note_off_c, 0, 78, 50
1, 99131, Note_off_c, 0, 79, 58
1, 99131, Note_on_c, 0, 81, 61
1, 99166, Control_c, 0, 64, 56
1, 99181, Control_c, 0, 64, 66
1, 99196, Control_c, 0, 64, 72
1, 99211, Control_c, 0, 64, 80
1, 99212, Note_off_c, 0, 81, 60
1, 99225, Control_c, 0, 64, 88
1, 99240, Control_c, 0, 64, 98
1, 99255, Control_c, 0, 64, 109
1, 99270, Control_c, 0, 64, 127
1, 99488, Note_on_c, 0, 66, 45
1, 99493, Control_c, 0, 64, 112
1, 99508, Control_c, 0, 64, 87
1, 99514, Note_on_c, 0, 69, 52
1, 99522, Control_c, 0, 64, 69
1, 99537, Control_c, 0, 64, 0
1, 99564, Note_on_c, 0, 74, 55
1, 99611, Control_c, 0, 64, 49
1, 99626, Control_c, 0, 64, 64
1, 99640, Control_c, 0, 64, 69
1, 99655, Control_c, 0, 64, 75
1, 99657, Note_off_c, 0, 62, 54
1, 99670, Control_c, 0, 64, 82
1, 99673, Note_off_c, 0, 57, 60
1, 99685, Control_c, 0, 64, 90
1, 99700, Control_c, 0, 64, 98
1, 99715, Control_c, 0, 64, 106
1, 99723, Note_off_c, 0, 50, 64
1, 99730, Control_c, 0, 64, 117
1, 99745, Control_c, 0, 64, 127
1, 99954, Note_on_c, 0, 50, 52
1, 100301, Control_c, 0, 64, 114
1, 100316, Control_c, 0, 64, 107
1, 100331, Control_c, 0, 64, 102
1, 100345, Control_c, 0, 64, 98
1, 100360, Control_c, 0, 64, 94
1, 100366, Note_on_c, 0, 48, 52
1, 100375, Control_c, 0, 64, 90
1, 100389, Control_c, 0, 64, 87
1, 100404, Control_c, 0, 64, 84
1, 100419, Control_c, 0, 64, 81
1, 100434, Control_c, 0, 64, 78
1, 100449, Control_c, 0, 64, 73
1, 100463, Control_c, 0, 64, 68
1, 100463, Control_c, 0, 67, 8
1, 100478, Control_c, 0, 64, 64
1, 100478, Control_c, 0, 67, 9
1, 100493, Control_c, 0, 64, 61
1, 100493, Control_c, 0, 67, 11
1, 100508, Control_c, 0, 64, 60
1, 100508, Control_c, 0, 67, 13
1, 100521, Note_off_c, 0, 50, 60
1, 100523, Control_c, 0, 64, 60
1, 100523, Control_c, 0, 67, 15
1, 100538, Control_c, 0, 64, 59
1, 100538, Control_c, 0, 67, 18
1, 100553, Control_c, 0, 64, 58
1, 100553, Control_c, 0, 67, 22
1, 100567, Control_c, 0, 64, 56
1, 100567, Control_c, 0, 67, 26
1, 100582, Control_c, 0, 64, 55
1, 100582, Control_c, 0, 67, 31
1, 100597, Control_c, 0, 64, 54
1, 100597, Control_c, 0, 67, 37
1, 100619, Control_c, 0, 64, 53
1, 100619, Control_c, 0, 67, 42
1, 100634, Control_c, 0, 64, 53
1, 100634, Control_c, 0, 67, 46
1, 100649, Control_c, 0, 64, 52
1, 100649, Control_c, 0, 67, 52
1, 100664, Control_c, 0, 64, 51
1, 100664, Control_c, 0, 67, 57
1, 100678, Control_c, 0, 64, 50
1, 100678, Control_c, 0, 67, 62
1, 100693, Control_c, 0, 64, 49
1, 100693, Control_c, 0, 67, 69
1, 100708, Control_c, 0, 64, 47
1, 100708, Control_c, 0, 67, 76
1, 100723, Control_c, 0, 64, 46
1, 100723, Control_c, 0, 67, 83
1, 100738, Control_c, 0, 64, 43
1, 100738, Control_c, 0, 67, 90
1, 100752, Control_c, 0, 64, 42
1, 100752, Control_c, 0, 67, 98
1, 100767, Control_c, 0, 64, 40
1, 100767, Control_c, 0, 67, 105
1, 100782, Control_c, 0, 64, 38
1, 100782, Control_c, 0, 67, 110
1, 100797, Control_c, 0, 64, 36
1, 100797, Control_c, 0, 67, 116
1, 100812, Control_c, 0, 64, 32
1, 100812, Control_c, 0, 67, 121
1, 100827, Control_c, 0, 64, 29
1, 100827, Control_c, 0, 67, 124
1, 100842, Control_c, 0, 64, 27
1, 100842, Control_c, 0, 67, 127
1, 100847, Note_on_c, 0, 50, 46
1, 100857, Control_c, 0, 64, 24
1, 100857, Control_c, 0, 67, 127
1, 100871, Control_c, 0, 64, 23
1, 100886, Control_c, 0, 64, 19
1, 100889, Note_off_c, 0, 48, 59
1, 100901, Control_c, 0, 64, 17
1, 100916, Control_c, 0, 64, 14
1, 100931, Control_c, 0, 64, 11
1, 100946, Control_c, 0, 64, 0
1, 101053, Note_on_c, 0, 45, 56
1, 101176, Note_off_c, 0, 50, 48
1, 101221, Note_off_c, 0, 66, 56
1, 101243, Control_c, 0, 67, 127
1, 101265, Note_off_c, 0, 69, 33
1, 101273, Control_c, 0, 67, 126
1, 101279, Note_on_c, 0, 46, 53
1, 101317, Control_c, 0, 67, 126
1, 101347, Control_c, 0, 67, 125
1, 101373, Note_off_c, 0, 45, 56
1, 101383, Note_off_c, 0, 74, 33
1, 101414, Control_c, 0, 67, 125
1, 101443, Control_c, 0, 67, 124
1, 101488, Control_c, 0, 67, 124
1, 101517, Control_c, 0, 67, 123
1, 101562, Control_c, 0, 67, 123
1, 101635, Control_c, 0, 67, 122
1, 101676, Note_on_c, 0, 50, 44
1, 101797, Note_off_c, 0, 50, 64
1, 102084, Note_on_c, 0, 55, 37
1, 102463, Note_on_c, 0, 62, 40
1, 102635, Note_off_c, 0, 62, 60
1, 102837, Note_on_c, 0, 67, 51
1, 102925, Control_c, 0, 67, 122
1, 102940, Control_c, 0, 64, 38
1, 102940, Control_c, 0, 67, 121
1, 102955, Control_c, 0, 64, 58
1, 102955, Control_c, 0, 67, 120
1, 102970, Control_c, 0, 64, 64
1, 102970, Control_c, 0, 67, 119
1, 102984, Control_c, 0, 64, 68
1, 102984, Control_c, 0, 67, 119
1, 102999, Control_c, 0, 64, 73
1, 102999, Control_c, 0, 67, 118
1, 103014, Control_c, 0, 64, 78
1, 103029, Control_c, 0, 64, 83
1, 103029, Control_c, 0, 67, 118
1, 103033, Note_off_c, 0, 46, 60
1, 103044, Control_c, 0, 64, 87
1, 103058, Control_c, 0, 64, 89
1, 103073, Control_c, 0, 64, 92
1, 103073, Control_c, 0, 67, 117
1, 103088, Control_c, 0, 64, 94
1, 103103, Control_c, 0, 64, 96
1, 103118, Control_c, 0, 64, 98
1, 103133, Control_c, 0, 64, 98
1, 103206, Control_c, 0, 64, 96
1, 103221, Control_c, 0, 64, 91
1, 103235, Note_on_c, 0, 46, 45
1, 103236, Control_c, 0, 64, 83
1, 103241, Note_on_c, 0, 74, 67
1, 103251, Control_c, 0, 64, 76
1, 103265, Control_c, 0, 64, 71
1, 103280, Control_c, 0, 64, 70
1, 103296, Control_c, 0, 64, 72
1, 103311, Control_c, 0, 64, 75
1, 103311, Control_c, 0, 67, 117
1, 103326, Control_c, 0, 64, 79
1, 103326, Control_c, 0, 67, 116
1, 103341, Control_c, 0, 64, 85
1, 103341, Control_c, 0, 67, 116
1, 103356, Control_c, 0, 64, 92
1, 103356, Control_c, 0, 67, 115
1, 103367, Note_off_c, 0, 46, 54
1, 103370, Control_c, 0, 64, 97
1, 103370, Control_c, 0, 67, 115
1, 103385, Control_c, 0, 64, 100
1, 103385, Control_c, 0, 67, 114
1, 103400, Control_c, 0, 64, 101
1, 103400, Control_c, 0, 67, 111
1, 103401, Note_off_c, 0, 74, 66
1, 103414, Control_c, 0, 64, 102
1, 103414, Control_c, 0, 67, 108
1, 103429, Control_c, 0, 67, 105
1, 103444, Control_c, 0, 67, 104
1, 103459, Control_c, 0, 67, 103
1, 103474, Control_c, 0, 64, 101
1, 103489, Control_c, 0, 64, 101
1, 103504, Control_c, 0, 64, 100
1, 103519, Control_c, 0, 64, 100
1, 103533, Control_c, 0, 64, 99
1, 103548, Control_c, 0, 64, 98
1, 103563, Control_c, 0, 64, 97
1, 103578, Control_c, 0, 64, 95
1, 103578, Control_c, 0, 67, 104
1, 103593, Control_c, 0, 64, 94
1, 103608, Control_c, 0, 64, 92
1, 103629, Control_c, 0, 64, 89
1, 103644, Control_c, 0, 64, 86
1, 103657, Note_on_c, 0, 75, 65
1, 103659, Control_c, 0, 64, 81
1, 103667, Note_on_c, 0, 48, 37
1, 103674, Control_c, 0, 64, 76
1, 103688, Control_c, 0, 64, 69
1, 103703, Control_c, 0, 64, 62
1, 103718, Control_c, 0, 64, 43
1, 103733, Control_c, 0, 64, 0
1, 103759, Note_off_c, 0, 55, 53
1, 103799, Note_off_c, 0, 67, 62
1, 104039, Note_on_c, 0, 58, 41
1, 104044, Control_c, 0, 64, 17
1, 104051, Note_on_c, 0, 67, 43
1, 104059, Control_c, 0, 64, 61
1, 104074, Control_c, 0, 64, 67
1, 104090, Control_c, 0, 64, 71
1, 104090, Control_c, 0, 67, 103
1, 104105, Control_c, 0, 64, 77
1, 104119, Control_c, 0, 64, 84
1, 104134, Control_c, 0, 64, 93
1, 104134, Control_c, 0, 67, 103
1, 104150, Control_c, 0, 64, 103
1, 104165, Control_c, 0, 64, 127
1, 104183, Note_off_c, 0, 75, 54
1, 104216, Note_off_c, 0, 58, 54
1, 104219, Note_off_c, 0, 67, 60
1, 104298, Control_c, 0, 67, 102
1, 104469, Note_on_c, 0, 57, 33
1, 104498, Control_c, 0, 67, 103
1, 104558, Note_on_c, 0, 67, 46
1, 104571, Control_c, 0, 67, 103
1, 104586, Control_c, 0, 64, 115
1, 104598, Note_off_c, 0, 67, 62
1, 104601, Control_c, 0, 64, 100
1, 104601, Control_c, 0, 67, 104
1, 104616, Control_c, 0, 64, 89
1, 104621, Note_on_c, 0, 66, 57
1, 104630, Control_c, 0, 64, 77
1, 104645, Control_c, 0, 64, 67
1, 104645, Control_c, 0, 67, 104
1, 104654, Note_off_c, 0, 66, 64
1, 104660, Control_c, 0, 64, 44
1, 104675, Control_c, 0, 64, 0
1, 104695, Note_on_c, 0, 64, 49
1, 104705, Control_c, 0, 67, 105
1, 104738, Note_off_c, 0, 64, 60
1, 104745, Note_on_c, 0, 66, 54
1, 104987, Control_c, 0, 67, 105
1, 105202, Control_c, 0, 67, 106
1, 105307, Note_on_c, 0, 55, 42
1, 105335, Control_c, 0, 67, 106
1, 105339, Note_off_c, 0, 57, 35
1, 105439, Control_c, 0, 67, 107
1, 105503, Note_on_c, 0, 57, 40
1, 105511, Note_off_c, 0, 48, 37
1, 105552, Note_off_c, 0, 55, 56
1, 105617, Control_c, 0, 67, 106
1, 105661, Control_c, 0, 67, 106
1, 105692, Control_c, 0, 67, 105
1, 105707, Control_c, 0, 67, 105
1, 105721, Control_c, 0, 67, 104
1, 105736, Control_c, 0, 67, 103
1, 105751, Control_c, 0, 67, 103
1, 105766, Control_c, 0, 67, 102
1, 105781, Control_c, 0, 67, 102
1, 105796, Control_c, 0, 67, 101
1, 105810, Control_c, 0, 67, 100
1, 105825, Control_c, 0, 67, 99
1, 105840, Control_c, 0, 67, 91
1, 105862, Control_c, 0, 67, 83
1, 105877, Control_c, 0, 67, 76
1, 105879, Note_on_c, 0, 72, 62
1, 105882, Note_on_c, 0, 69, 48
1, 105888, Note_on_c, 0, 54, 41
1, 105891, Control_c, 0, 67, 69
1, 105906, Control_c, 0, 67, 63
1, 105921, Control_c, 0, 67, 57
1, 105936, Control_c, 0, 67, 50
1, 105951, Control_c, 0, 64, 47
1, 105951, Control_c, 0, 67, 44
1, 105957, Note_off_c, 0, 66, 54
1, 105966, Control_c, 0, 64, 64
1, 105966, Control_c, 0, 67, 39
1, 105981, Control_c, 0, 64, 71
1, 105981, Control_c, 0, 67, 33
1, 105982, Note_off_c, 0, 57, 52
1, 105996, Control_c, 0, 64, 78
1, 105996, Control_c, 0, 67, 28
1, 106010, Control_c, 0, 64, 87
1, 106010, Control_c, 0, 67, 23
1, 106025, Control_c, 0, 64, 97
1, 106025, Control_c, 0, 67, 18
1, 106030, Note_off_c, 0, 54, 61
1, 106040, Control_c, 0, 64, 108
1, 106040, Control_c, 0, 67, 13
1, 106045, Note_off_c, 0, 69, 62
1, 106055, Control_c, 0, 64, 127
1, 106055, Control_c, 0, 67, 9
1, 106070, Control_c, 0, 67, 0
1, 106292, Note_on_c, 0, 70, 67
1, 106306, Note_on_c, 0, 55, 38
1, 106321, Control_c, 0, 64, 122
1, 106324, Note_on_c, 0, 58, 41
1, 106330, Note_on_c, 0, 50, 4
1, 106336, Control_c, 0, 64, 102
1, 106340, Note_on_c, 0, 62, 26
1, 106350, Control_c, 0, 64, 88
1, 106365, Control_c, 0, 64, 78
1, 106380, Control_c, 0, 64, 68
1, 106395, Control_c, 0, 64, 41
1, 106409, Control_c, 0, 64, 0
1, 106419, Note_off_c, 0, 72, 60
1, 106654, Control_c, 0, 64, 56
1, 106669, Control_c, 0, 64, 66
1, 106684, Control_c, 0, 64, 74
1, 106695, Note_on_c, 0, 67, 51
1, 106699, Control_c, 0, 64, 84
1, 106714, Control_c, 0, 64, 98
1, 106729, Control_c, 0, 64, 127
1, 106759, Note_off_c, 0, 62, 41
1, 106792, Note_off_c, 0, 67, 60
1, 106795, Note_off_c, 0, 58, 55
1, 106819, Note_off_c, 0, 70, 62
1, 107069, Note_on_c, 0, 69, 64
1, 107078, Note_on_c, 0, 57, 44
1, 107084, Control_c, 0, 64, 122
1, 107087, Note_on_c, 0, 66, 52
1, 107099, Control_c, 0, 64, 101
1, 107114, Control_c, 0, 64, 91
1, 107128, Control_c, 0, 64, 83
1, 107143, Control_c, 0, 64, 75
1, 107158, Control_c, 0, 64, 66
1, 107173, Control_c, 0, 64, 54
1, 107188, Control_c, 0, 64, 28
1, 107203, Control_c, 0, 64, 0
1, 107209, Note_off_c, 0, 55, 40
1, 107492, Note_on_c, 0, 75, 69
1, 107507, Note_on_c, 0, 55, 38
1, 107596, Control_c, 0, 67, 8
1, 107611, Control_c, 0, 67, 10
1, 107626, Control_c, 0, 67, 13
1, 107633, Note_off_c, 0, 69, 60
1, 107641, Control_c, 0, 67, 17
1, 107655, Control_c, 0, 67, 21
1, 107670, Control_c, 0, 67, 25
1, 107685, Control_c, 0, 67, 29
1, 107690, Note_off_c, 0, 57, 37
1, 107700, Control_c, 0, 67, 33
1, 107703, Note_off_c, 0, 50, 55
1, 107715, Control_c, 0, 67, 38
1, 107729, Control_c, 0, 67, 44
1, 107733, Note_off_c, 0, 66, 59
1, 107744, Control_c, 0, 67, 50
1, 107759, Control_c, 0, 67, 56
1, 107773, Control_c, 0, 67, 62
1, 107788, Control_c, 0, 67, 68
1, 107803, Control_c, 0, 67, 75
1, 107818, Control_c, 0, 67, 81
1, 107833, Control_c, 0, 67, 90
1, 107848, Control_c, 0, 67, 98
1, 107862, Control_c, 0, 67, 106
1, 107877, Control_c, 0, 67, 114
1, 107889, Note_on_c, 0, 74, 65
1, 107893, Control_c, 0, 67, 121
1, 107900, Note_on_c, 0, 66, 39
1, 107907, Control_c, 0, 67, 127
1, 107916, Note_on_c, 0, 57, 34
1, 107919, Note_on_c, 0, 50, 23
1, 108038, Note_off_c, 0, 55, 46
1, 108040, Note_off_c, 0, 75, 38
1, 108274, Note_on_c, 0, 72, 64
1, 108283, Note_on_c, 0, 69, 51
1, 108309, Note_off_c, 0, 74, 57
1, 108316, Control_c, 0, 64, 53
1, 108330, Control_c, 0, 64, 66
1, 108345, Control_c, 0, 64, 73
1, 108360, Note_off_c, 0, 57, 57
1, 108360, Control_c, 0, 64, 83
1, 108375, Control_c, 0, 64, 98
1, 108390, Control_c, 0, 64, 127
1, 108412, Note_off_c, 0, 66, 49
1, 108413, Note_off_c, 0, 50, 47
1, 108434, Note_off_c, 0, 69, 60
1, 108440, Note_off_c, 0, 72, 63
1, 108687, Note_on_c, 0, 70, 54
1, 108702, Note_on_c, 0, 67, 47
1, 108711, Note_on_c, 0, 62, 39
1, 108713, Note_on_c, 0, 55, 36
1, 108716, Control_c, 0, 64, 99
1, 108721, Note_on_c, 0, 43, 36
1, 108730, Control_c, 0, 64, 79
1, 108745, Control_c, 0, 64, 63
1, 108760, Control_c, 0, 64, 0
1, 108790, Control_c, 0, 64, 27
1, 108804, Control_c, 0, 64, 61
1, 108819, Control_c, 0, 64, 68
1, 108834, Control_c, 0, 64, 76
1, 108834, Control_c, 0, 67, 127
1, 108857, Control_c, 0, 64, 88
1, 108872, Control_c, 0, 64, 104
1, 108872, Control_c, 0, 67, 126
1, 108878, Note_off_c, 0, 62, 56
1, 108887, Control_c, 0, 64, 127
1, 108902, Control_c, 0, 67, 126
1, 108917, Control_c, 0, 67, 125
1, 108947, Control_c, 0, 67, 125
1, 108976, Control_c, 0, 67, 124
1, 109015, Note_off_c, 0, 70, 55
1, 109124, Control_c, 0, 64, 110
1, 109126, Note_on_c, 0, 66, 49
1, 109129, Note_on_c, 0, 69, 58
1, 109136, Note_off_c, 0, 67, 54
1, 109139, Control_c, 0, 64, 84
1, 109153, Control_c, 0, 64, 67
1, 109155, Note_on_c, 0, 60, 28
1, 109168, Control_c, 0, 64, 0
1, 109168, Control_c, 0, 67, 125
1, 109198, Control_c, 0, 64, 46
1, 109213, Control_c, 0, 64, 63
1, 109227, Control_c, 0, 64, 70
1, 109242, Control_c, 0, 64, 79
1, 109257, Control_c, 0, 64, 90
1, 109272, Control_c, 0, 64, 105
1, 109287, Note_off_c, 0, 66, 47
1, 109287, Control_c, 0, 64, 127
1, 109287, Control_c, 0, 67, 124
1, 109296, Note_off_c, 0, 69, 59
1, 109314, Note_off_c, 0, 60, 44
1, 109547, Note_on_c, 0, 67, 53
1, 109558, Note_on_c, 0, 58, 39
1, 109559, Note_on_c, 0, 62, 39
1, 109633, Control_c, 0, 64, 107
1, 109648, Control_c, 0, 64, 95
1, 109663, Control_c, 0, 64, 84
1, 109679, Control_c, 0, 64, 74
1, 109694, Control_c, 0, 64, 66
1, 109709, Control_c, 0, 64, 55
1, 109724, Control_c, 0, 64, 44
1, 109738, Control_c, 0, 64, 44
1, 109827, Control_c, 0, 64, 44
1, 109842, Control_c, 0, 64, 45
1, 109856, Control_c, 0, 64, 46
1, 109871, Control_c, 0, 64, 47
1, 109886, Control_c, 0, 64, 48
1, 109901, Control_c, 0, 64, 49
1, 109975, Note_on_c, 0, 50, 41
1, 110020, Control_c, 0, 64, 49
1, 110193, Note_off_c, 0, 43, 37
1, 110212, Control_c, 0, 64, 49
1, 110242, Control_c, 0, 64, 48
1, 110271, Control_c, 0, 64, 48
1, 110286, Control_c, 0, 64, 47
1, 110300, Control_c, 0, 64, 47
1, 110315, Control_c, 0, 64, 45
1, 110330, Control_c, 0, 64, 43
1, 110353, Control_c, 0, 64, 42
1, 110368, Control_c, 0, 64, 39
1, 110382, Note_on_c, 0, 46, 35
1, 110382, Control_c, 0, 64, 37
1, 110397, Control_c, 0, 64, 32
1, 110412, Control_c, 0, 64, 19
1, 110427, Control_c, 0, 64, 0
1, 110427, Control_c, 0, 67, 125
1, 110455, Note_off_c, 0, 55, 19
1, 110487, Control_c, 0, 67, 125
1, 110506, Note_off_c, 0, 50, 62
1, 110532, Control_c, 0, 67, 126
1, 110591, Control_c, 0, 67, 126
1, 110792, Note_on_c, 0, 43, 36
1, 110822, Note_off_c, 0, 58, 62
1, 110828, Control_c, 0, 67, 126
1, 110836, Note_off_c, 0, 46, 52
1, 110843, Control_c, 0, 67, 125
1, 110846, Note_off_c, 0, 62, 37
1, 110872, Control_c, 0, 64, 47
1, 110872, Control_c, 0, 67, 125
1, 110887, Control_c, 0, 64, 63
1, 110902, Control_c, 0, 64, 69
1, 110917, Control_c, 0, 64, 74
1, 110917, Control_c, 0, 67, 124
1, 110926, Note_off_c, 0, 67, 47
1, 110932, Control_c, 0, 64, 80
1, 110947, Control_c, 0, 64, 88
1, 110954, Note_off_c, 0, 43, 50
1, 110962, Control_c, 0, 64, 97
1, 110962, Control_c, 0, 67, 124
1, 110977, Control_c, 0, 64, 107
1, 110992, Control_c, 0, 64, 123
1, 111006, Control_c, 0, 64, 127
1, 111006, Control_c, 0, 67, 123
1, 111459, Control_c, 0, 67, 123
1, 111475, Note_on_c, 0, 82, 72
1, 111489, Control_c, 0, 67, 122
1, 111495, Note_on_c, 0, 55, 41
1, 111503, Control_c, 0, 64, 112
1, 111503, Control_c, 0, 67, 122
1, 111518, Control_c, 0, 64, 102
1, 111533, Control_c, 0, 64, 94
1, 111533, Control_c, 0, 67, 121
1, 111547, Control_c, 0, 64, 87
1, 111547, Control_c, 0, 67, 121
1, 111562, Control_c, 0, 64, 79
1, 111562, Control_c, 0, 67, 119
1, 111577, Control_c, 0, 64, 69
1, 111577, Control_c, 0, 67, 113
1, 111592, Control_c, 0, 64, 60
1, 111592, Control_c, 0, 67, 106
1, 111607, Control_c, 0, 64, 44
1, 111607, Control_c, 0, 67, 99
1, 111621, Control_c, 0, 64, 42
1, 111621, Control_c, 0, 67, 92
1, 111636, Control_c, 0, 67, 87
1, 111651, Control_c, 0, 67, 83
1, 111666, Control_c, 0, 67, 80
1, 111681, Control_c, 0, 67, 76
1, 111695, Control_c, 0, 67, 72
1, 111710, Control_c, 0, 67, 68
1, 111725, Control_c, 0, 67, 63
1, 111740, Control_c, 0, 67, 60
1, 111755, Control_c, 0, 67, 56
1, 111770, Control_c, 0, 67, 53
1, 111785, Control_c, 0, 67, 51
1, 111800, Control_c, 0, 64, 42
1, 111800, Control_c, 0, 67, 48
1, 111814, Control_c, 0, 64, 43
1, 111814, Control_c, 0, 67, 46
1, 111829, Control_c, 0, 67, 44
1, 111851, Control_c, 0, 64, 43
1, 111851, Control_c, 0, 67, 42
1, 111866, Control_c, 0, 67, 40
1, 111881, Control_c, 0, 67, 38
1, 111896, Control_c, 0, 67, 37
1, 111907, Note_on_c, 0, 74, 42
1, 111910, Control_c, 0, 64, 44
1, 111910, Control_c, 0, 67, 35
1, 111925, Control_c, 0, 64, 44
1, 111925, Control_c, 0, 67, 33
1, 111940, Control_c, 0, 64, 45
1, 111940, Control_c, 0, 67, 31
1, 111955, Control_c, 0, 64, 46
1, 111955, Control_c, 0, 67, 29
1, 111969, Control_c, 0, 64, 46
1, 111969, Control_c, 0, 67, 27
1, 111984, Control_c, 0, 64, 47
1, 111984, Control_c, 0, 67, 25
1, 111999, Control_c, 0, 67, 23
1, 112014, Control_c, 0, 67, 21
1, 112029, Control_c, 0, 64, 47
1, 112029, Control_c, 0, 67, 18
1, 112044, Control_c, 0, 64, 48
1, 112044, Control_c, 0, 67, 16
1, 112059, Control_c, 0, 64, 48
1, 112059, Control_c, 0, 67, 13
1, 112074, Control_c, 0, 64, 49
1, 112074, Control_c, 0, 67, 11
1, 112083, Note_off_c, 0, 74, 63
1, 112089, Control_c, 0, 67, 9
1, 112104, Control_c, 0, 67, 0
1, 112118, Control_c, 0, 64, 49
1, 112252, Control_c, 0, 64, 49
1, 112285, Note_on_c, 0, 75, 48
1, 112548, Control_c, 0, 64, 49
1, 112599, Control_c, 0, 64, 50
1, 112665, Note_on_c, 0, 81, 62
1, 112670, Note_on_c, 0, 53, 42
1, 112673, Control_c, 0, 64, 50
1, 112703, Control_c, 0, 64, 51
1, 112733, Control_c, 0, 64, 51
1, 112747, Control_c, 0, 64, 52
1, 112777, Control_c, 0, 64, 52
1, 112792, Control_c, 0, 64, 53
1, 112798, Note_off_c, 0, 82, 63
1, 112822, Control_c, 0, 64, 53
1, 112836, Note_off_c, 0, 55, 57
1, 112837, Control_c, 0, 64, 54
1, 112866, Control_c, 0, 64, 54
1, 112896, Control_c, 0, 64, 55
1, 112941, Control_c, 0, 64, 55
1, 112971, Control_c, 0, 64, 56
1, 113062, Note_on_c, 0, 82, 71
1, 113076, Note_on_c, 0, 55, 40
1, 113089, Control_c, 0, 64, 56
1, 113233, Note_off_c, 0, 53, 62
1, 113249, Note_off_c, 0, 81, 57
1, 113393, Control_c, 0, 64, 55
1, 113407, Control_c, 0, 64, 55
1, 113422, Control_c, 0, 64, 54
1, 113437, Control_c, 0, 64, 52
1, 113452, Control_c, 0, 64, 49
1, 113467, Control_c, 0, 64, 41
1, 113478, Note_on_c, 0, 84, 63
1, 113481, Control_c, 0, 64, 24
1, 113482, Note_on_c, 0, 48, 38
1, 113496, Control_c, 0, 64, 0
1, 113545, Note_off_c, 0, 82, 60
1, 113673, Note_off_c, 0, 55, 43
1, 113734, Control_c, 0, 64, 50
1, 113749, Control_c, 0, 64, 65
1, 113764, Control_c, 0, 64, 72
1, 113779, Control_c, 0, 64, 79
1, 113794, Control_c, 0, 64, 88
1, 113806, Note_off_c, 0, 84, 63
1, 113809, Control_c, 0, 64, 96
1, 113823, Control_c, 0, 64, 105
1, 113838, Control_c, 0, 64, 115
1, 113853, Control_c, 0, 64, 127
1, 113994, Note_on_c, 0, 53, 41
1, 114032, Note_on_c, 0, 82, 59
1, 114125, Note_off_c, 0, 82, 62
1, 114145, Note_on_c, 0, 81, 58
1, 114173, Note_off_c, 0, 48, 35
1, 114202, Note_off_c, 0, 81, 62
1, 114202, Control_c, 0, 64, 115
1, 114204, Note_off_c, 0, 75, 58
1, 114214, Note_on_c, 0, 82, 63
1, 114217, Control_c, 0, 64, 107
1, 114231, Control_c, 0, 64, 99
1, 114246, Control_c, 0, 64, 93
1, 114261, Control_c, 0, 64, 86
1, 114270, Note_off_c, 0, 82, 58
1, 114275, Control_c, 0, 64, 80
1, 114287, Note_on_c, 0, 81, 55
1, 114290, Control_c, 0, 64, 73
1, 114305, Control_c, 0, 64, 65
1, 114320, Control_c, 0, 64, 47
1, 114335, Control_c, 0, 64, 0
1, 114468, Note_on_c, 0, 75, 48
1, 114590, Note_off_c, 0, 75, 38
1, 114865, Note_on_c, 0, 74, 49
1, 114950, Control_c, 0, 64, 24
1, 114965, Control_c, 0, 64, 50
1, 114980, Control_c, 0, 64, 61
1, 114995, Control_c, 0, 64, 66
1, 115002, Note_off_c, 0, 81, 52
1, 115010, Control_c, 0, 64, 70
1, 115025, Control_c, 0, 64, 75
1, 115039, Control_c, 0, 64, 81
1, 115054, Control_c, 0, 64, 88
1, 115069, Control_c, 0, 64, 95
1, 115084, Control_c, 0, 64, 103
1, 115098, Control_c, 0, 64, 113
1, 115113, Control_c, 0, 64, 127
1, 115231, Note_on_c, 0, 79, 71
1, 115237, Note_on_c, 0, 51, 53
1, 115357, Note_off_c, 0, 53, 45
1, 115593, Note_on_c, 0, 53, 48
1, 115654, Note_off_c, 0, 51, 54
1, 115655, Control_c, 0, 64, 108
1, 115669, Control_c, 0, 64, 92
1, 115684, Control_c, 0, 64, 77
1, 115699, Control_c, 0, 64, 63
1, 115704, Note_on_c, 0, 81, 66
1, 115714, Control_c, 0, 64, 0
1, 115724, Note_off_c, 0, 79, 59
1, 115788, Control_c, 0, 64, 23
1, 115803, Control_c, 0, 64, 62
1, 115818, Control_c, 0, 64, 68
1, 115833, Control_c, 0, 64, 74
1, 115848, Control_c, 0, 64, 81
1, 115862, Control_c, 0, 64, 88
1, 115876, Note_off_c, 0, 81, 62
1, 115877, Control_c, 0, 64, 94
1, 115892, Control_c, 0, 64, 99
1, 115907, Control_c, 0, 64, 104
1, 115914, Note_on_c, 0, 82, 66
1, 115921, Control_c, 0, 64, 110
1, 115936, Control_c, 0, 64, 127
1, 115983, Note_off_c, 0, 82, 62
1, 115986, Note_on_c, 0, 81, 73
1, 116013, Note_off_c, 0, 81, 63
1, 116030, Note_on_c, 0, 79, 70
1, 116071, Control_c, 0, 64, 104
1, 116077, Note_on_c, 0, 46, 47
1, 116086, Control_c, 0, 64, 82
1, 116088, Note_on_c, 0, 81, 81
1, 116100, Note_off_c, 0, 79, 59
1, 116100, Control_c, 0, 64, 66
1, 116115, Control_c, 0, 64, 0
1, 116144, Control_c, 0, 64, 41
1, 116158, Note_off_c, 0, 53, 37
1, 116159, Control_c, 0, 64, 62
1, 116174, Control_c, 0, 64, 68
1, 116189, Control_c, 0, 64, 74
1, 116204, Control_c, 0, 64, 80
1, 116218, Control_c, 0, 64, 87
1, 116233, Control_c, 0, 64, 93
1, 116244, Note_on_c, 0, 82, 81
1, 116248, Control_c, 0, 64, 96
1, 116254, Note_off_c, 0, 81, 61
1, 116263, Control_c, 0, 64, 99
1, 116278, Control_c, 0, 64, 102
1, 116292, Control_c, 0, 64, 104
1, 116296, Note_off_c, 0, 82, 64
1, 116307, Control_c, 0, 64, 105
1, 116322, Control_c, 0, 64, 105
1, 116384, Note_off_c, 0, 74, 63
1, 116389, Control_c, 0, 64, 105
1, 116401, Note_on_c, 0, 81, 65
1, 116404, Control_c, 0, 64, 100
1, 116418, Control_c, 0, 64, 90
1, 116426, Note_off_c, 0, 81, 64
1, 116432, Note_on_c, 0, 51, 42
1, 116433, Control_c, 0, 64, 79
1, 116448, Control_c, 0, 64, 67
1, 116454, Note_off_c, 0, 46, 42
1, 116460, Note_on_c, 0, 79, 55
1, 116463, Control_c, 0, 64, 17
1, 116478, Control_c, 0, 64, 0
1, 116483, Note_off_c, 0, 79, 61
1, 116491, Note_on_c, 0, 81, 69
1, 116543, Note_off_c, 0, 81, 59
1, 116563, Note_on_c, 0, 79, 65
1, 116818, Note_on_c, 0, 74, 50
1, 116923, Control_c, 0, 67, 8
1, 116938, Control_c, 0, 67, 10
1, 116953, Control_c, 0, 67, 14
1, 116961, Note_off_c, 0, 74, 66
1, 116967, Control_c, 0, 67, 20
1, 116982, Control_c, 0, 67, 27
1, 116997, Control_c, 0, 67, 34
1, 117012, Control_c, 0, 67, 41
1, 117027, Control_c, 0, 67, 49
1, 117041, Control_c, 0, 67, 58
1, 117056, Control_c, 0, 67, 68
1, 117071, Control_c, 0, 67, 77
1, 117093, Control_c, 0, 67, 87
1, 117108, Control_c, 0, 67, 97
1, 117123, Control_c, 0, 67, 105
1, 117138, Control_c, 0, 67, 111
1, 117153, Control_c, 0, 67, 117
1, 117167, Control_c, 0, 67, 121
1, 117182, Control_c, 0, 67, 125
1, 117197, Control_c, 0, 67, 126
1, 117212, Control_c, 0, 67, 127
1, 117213, Note_on_c, 0, 72, 52
1, 117271, Control_c, 0, 64, 47
1, 117286, Control_c, 0, 64, 61
1, 117286, Control_c, 0, 67, 126
1, 117300, Control_c, 0, 64, 65
1, 117300, Control_c, 0, 67, 125
1, 117315, Control_c, 0, 64, 68
1, 117315, Control_c, 0, 67, 124
1, 117330, Control_c, 0, 64, 72
1, 117330, Control_c, 0, 67, 123
1, 117345, Control_c, 0, 64, 76
1, 117345, Control_c, 0, 67, 122
1, 117360, Control_c, 0, 64, 80
1, 117360, Control_c, 0, 67, 122
1, 117374, Control_c, 0, 64, 83
1, 117374, Control_c, 0, 67, 121
1, 117382, Note_off_c, 0, 79, 63
1, 117389, Control_c, 0, 64, 86
1, 117389, Control_c, 0, 67, 120
1, 117404, Control_c, 0, 64, 87
1, 117404, Control_c, 0, 67, 119
1, 117419, Control_c, 0, 64, 88
1, 117434, Control_c, 0, 64, 88
1, 117434, Control_c, 0, 67, 118
1, 117463, Control_c, 0, 67, 118
1, 117493, Control_c, 0, 67, 117
1, 117523, Control_c, 0, 67, 117
1, 117566, Note_on_c, 0, 50, 44
1, 117567, Control_c, 0, 64, 87
1, 117568, Note_on_c, 0, 79, 61
1, 117582, Control_c, 0, 64, 87
1, 117597, Control_c, 0, 64, 86
1, 117598, Note_off_c, 0, 79, 64
1, 117612, Control_c, 0, 64, 84
1, 117627, Control_c, 0, 64, 82
1, 117630, Note_on_c, 0, 78, 59
1, 117633, Note_off_c, 0, 51, 46
1, 117641, Control_c, 0, 64, 80
1, 117656, Control_c, 0, 64, 76
1, 117665, Note_off_c, 0, 78, 61
1, 117672, Control_c, 0, 64, 71
1, 117676, Note_on_c, 0, 79, 66
1, 117687, Control_c, 0, 64, 67
1, 117702, Control_c, 0, 64, 64
1, 117716, Control_c, 0, 64, 63
1, 117720, Note_on_c, 0, 78, 65
1, 117727, Note_off_c, 0, 79, 62
1, 117731, Control_c, 0, 64, 62
1, 117731, Control_c, 0, 67, 116
1, 117746, Control_c, 0, 64, 62
1, 117761, Control_c, 0, 64, 61
1, 117776, Control_c, 0, 64, 61
1, 117790, Control_c, 0, 64, 60
1, 117790, Control_c, 0, 67, 116
1, 117805, Control_c, 0, 67, 115
1, 117872, Control_c, 0, 67, 115
1, 117887, Control_c, 0, 64, 60
1, 117946, Control_c, 0, 64, 59
1, 117946, Control_c, 0, 67, 114
1, 117973, Note_on_c, 0, 51, 44
1, 117976, Control_c, 0, 64, 59
1, 117979, Note_on_c, 0, 79, 66
1, 117990, Control_c, 0, 64, 58
1, 118005, Control_c, 0, 64, 57
1, 118020, Control_c, 0, 64, 57
1, 118035, Control_c, 0, 64, 56
1, 118050, Control_c, 0, 64, 56
1, 118064, Control_c, 0, 64, 55
1, 118079, Control_c, 0, 64, 54
1, 118082, Note_off_c, 0, 78, 54
1, 118094, Control_c, 0, 64, 53
1, 118107, Note_off_c, 0, 50, 39
1, 118109, Control_c, 0, 64, 52
1, 118109, Control_c, 0, 67, 114
1, 118123, Control_c, 0, 64, 51
1, 118138, Control_c, 0, 64, 49
1, 118153, Control_c, 0, 64, 47
1, 118168, Control_c, 0, 64, 46
1, 118183, Control_c, 0, 64, 43
1, 118197, Control_c, 0, 64, 40
1, 118212, Control_c, 0, 64, 36
1, 118227, Control_c, 0, 64, 21
1, 118242, Control_c, 0, 64, 0
1, 118355, Note_on_c, 0, 81, 68
1, 118373, Note_on_c, 0, 45, 32
1, 118396, Note_off_c, 0, 79, 58
1, 118495, Control_c, 0, 67, 113
1, 118510, Control_c, 0, 64, 55
1, 118510, Control_c, 0, 67, 113
1, 118524, Control_c, 0, 64, 65
1, 118539, Control_c, 0, 64, 71
1, 118539, Control_c, 0, 67, 112
1, 118554, Control_c, 0, 64, 77
1, 118569, Control_c, 0, 64, 83
1, 118569, Control_c, 0, 67, 112
1, 118577, Note_off_c, 0, 72, 61
1, 118591, Control_c, 0, 64, 89
1, 118591, Control_c, 0, 67, 109
1, 118606, Control_c, 0, 64, 96
1, 118606, Control_c, 0, 67, 106
1, 118620, Control_c, 0, 64, 102
1, 118620, Control_c, 0, 67, 104
1, 118629, Note_off_c, 0, 81, 58
1, 118635, Control_c, 0, 64, 109
1, 118635, Control_c, 0, 67, 102
1, 118650, Control_c, 0, 64, 118
1, 118650, Control_c, 0, 67, 101
1, 118665, Note_off_c, 0, 51, 40
1, 118665, Control_c, 0, 64, 127
1, 118665, Control_c, 0, 67, 101
1, 118768, Note_on_c, 0, 79, 59
1, 118785, Note_on_c, 0, 50, 48
1, 118796, Note_off_c, 0, 79, 63
1, 118821, Note_on_c, 0, 74, 47
1, 118835, Note_on_c, 0, 78, 55
1, 118857, Control_c, 0, 67, 101
1, 118862, Note_off_c, 0, 78, 56
1, 118865, Note_off_c, 0, 45, 41
1, 118872, Note_on_c, 0, 79, 69
1, 118887, Control_c, 0, 64, 112
1, 118887, Control_c, 0, 67, 102
1, 118902, Control_c, 0, 64, 98
1, 118902, Control_c, 0, 67, 102
1, 118917, Control_c, 0, 64, 87
1, 118917, Control_c, 0, 67, 103
1, 118930, Note_off_c, 0, 79, 57
1, 118932, Control_c, 0, 64, 77
1, 118932, Control_c, 0, 67, 103
1, 118936, Note_on_c, 0, 78, 69
1, 118946, Control_c, 0, 64, 67
1, 118946, Control_c, 0, 67, 104
1, 118961, Control_c, 0, 64, 49
1, 118961, Control_c, 0, 67, 104
1, 118976, Control_c, 0, 64, 0
1, 118976, Control_c, 0, 67, 105
1, 118991, Control_c, 0, 67, 105
1, 119006, Control_c, 0, 67, 106
1, 119020, Control_c, 0, 67, 107
1, 119035, Control_c, 0, 67, 108
1, 119050, Control_c, 0, 67, 109
1, 119064, Control_c, 0, 67, 110
1, 119079, Control_c, 0, 67, 111
1, 119094, Control_c, 0, 67, 113
1, 119109, Control_c, 0, 67, 114
1, 119124, Control_c, 0, 67, 117
1, 119138, Control_c, 0, 67, 122
1, 119153, Control_c, 0, 67, 127
1, 119399, Control_c, 0, 64, 38
1, 119414, Control_c, 0, 64, 61
1, 119429, Control_c, 0, 64, 66
1, 119443, Control_c, 0, 64, 69
1, 119458, Control_c, 0, 64, 74
1, 119473, Control_c, 0, 64, 79
1, 119483, Note_off_c, 0, 74, 53
1, 119487, Control_c, 0, 64, 84
1, 119502, Control_c, 0, 64, 88
1, 119505, Note_on_c, 0, 81, 57
1, 119517, Control_c, 0, 64, 93
1, 119522, Note_off_c, 0, 78, 60
1, 119532, Control_c, 0, 64, 98
1, 119533, Note_off_c, 0, 81, 65
1, 119547, Control_c, 0, 64, 103
1, 119562, Control_c, 0, 64, 110
1, 119577, Control_c, 0, 64, 116
1, 119592, Control_c, 0, 64, 127
1, 119748, Note_on_c, 0, 66, 45
1, 119764, Note_on_c, 0, 69, 47
1, 119791, Note_on_c, 0, 74, 55
1, 119814, Control_c, 0, 64, 123
1, 119828, Control_c, 0, 64, 115
1, 119843, Control_c, 0, 64, 109
1, 119858, Control_c, 0, 64, 104
1, 119873, Control_c, 0, 64, 100
1, 119887, Control_c, 0, 64, 96
1, 119902, Control_c, 0, 64, 92
1, 119917, Control_c, 0, 64, 87
1, 119932, Control_c, 0, 64, 83
1, 119947, Control_c, 0, 64, 79
1, 119961, Control_c, 0, 64, 75
1, 119976, Control_c, 0, 64, 71
1, 119991, Control_c, 0, 64, 67
1, 120006, Control_c, 0, 64, 64
1, 120021, Control_c, 0, 64, 62
1, 120036, Control_c, 0, 64, 62
1, 120089, Control_c, 0, 64, 61
1, 120104, Control_c, 0, 64, 61
1, 120133, Control_c, 0, 64, 60
1, 120195, Note_on_c, 0, 48, 47
1, 120370, Control_c, 0, 64, 61
1, 120431, Note_off_c, 0, 50, 52
1, 120444, Control_c, 0, 64, 61
1, 120583, Note_on_c, 0, 46, 52
1, 120739, Note_off_c, 0, 48, 60
1, 120882, Control_c, 0, 64, 61
1, 120897, Control_c, 0, 64, 60
1, 120912, Control_c, 0, 64, 58
1, 120927, Control_c, 0, 64, 52
1, 120941, Control_c, 0, 64, 28
1, 120956, Control_c, 0, 64, 0
1, 120957, Note_on_c, 0, 45, 55
1, 121008, Note_off_c, 0, 46, 56
1, 121133, Control_c, 0, 64, 63
1, 121136, Note_off_c, 0, 69, 56
1, 121148, Control_c, 0, 64, 70
1, 121151, Note_off_c, 0, 66, 58
1, 121163, Control_c, 0, 64, 82
1, 121178, Control_c, 0, 64, 98
1, 121191, Note_off_c, 0, 45, 61
1, 121193, Control_c, 0, 64, 127
1, 121193, Control_c, 0, 67, 125
1, 121207, Control_c, 0, 67, 121
1, 121222, Control_c, 0, 67, 116
1, 121237, Control_c, 0, 67, 111
1, 121252, Control_c, 0, 67, 106
1, 121267, Control_c, 0, 67, 100
1, 121282, Control_c, 0, 67, 96
1, 121291, Note_off_c, 0, 74, 40
1, 121297, Control_c, 0, 67, 90
1, 121312, Control_c, 0, 67, 85
1, 121326, Control_c, 0, 67, 80
1, 121341, Control_c, 0, 67, 74
1, 121356, Control_c, 0, 67, 69
1, 121371, Control_c, 0, 67, 65
1, 121386, Control_c, 0, 67, 62
1, 121389, Note_on_c, 0, 74, 77
1, 121400, Control_c, 0, 67, 60
1, 121415, Control_c, 0, 67, 58
1, 121419, Note_on_c, 0, 46, 35
1, 121430, Control_c, 0, 67, 57
1, 121431, Note_on_c, 0, 58, 34
1, 121445, Control_c, 0, 67, 56
1, 121459, Control_c, 0, 64, 98
1, 121459, Control_c, 0, 67, 54
1, 121474, Control_c, 0, 64, 79
1, 121474, Control_c, 0, 67, 53
1, 121489, Control_c, 0, 64, 64
1, 121489, Control_c, 0, 67, 51
1, 121504, Control_c, 0, 64, 0
1, 121504, Control_c, 0, 67, 49
1, 121519, Control_c, 0, 67, 46
1, 121533, Control_c, 0, 67, 44
1, 121548, Control_c, 0, 67, 41
1, 121563, Control_c, 0, 67, 38
1, 121586, Control_c, 0, 64, 53
1, 121586, Control_c, 0, 67, 35
1, 121601, Control_c, 0, 64, 63
1, 121601, Control_c, 0, 67, 29
1, 121615, Control_c, 0, 64, 67
1, 121615, Control_c, 0, 67, 24
1, 121630, Control_c, 0, 64, 71
1, 121630, Control_c, 0, 67, 19
1, 121645, Control_c, 0, 64, 75
1, 121645, Control_c, 0, 67, 13
1, 121660, Control_c, 0, 64, 80
1, 121660, Control_c, 0, 67, 0
1, 121675, Control_c, 0, 64, 85
1, 121690, Control_c, 0, 64, 91
1, 121705, Control_c, 0, 64, 97
1, 121720, Control_c, 0, 64, 103
1, 121735, Control_c, 0, 64, 112
1, 121750, Control_c, 0, 64, 127
1, 121899, Note_on_c, 0, 68, 53
1, 121938, Note_off_c, 0, 46, 41
1, 122009, Note_off_c, 0, 58, 41
1, 122066, Note_off_c, 0, 68, 60
1, 122223, Note_on_c, 0, 70, 59
1, 122231, Note_on_c, 0, 47, 40
1, 122247, Note_on_c, 0, 59, 31
1, 122254, Note_off_c, 0, 70, 66
1, 122267, Control_c, 0, 64, 119
1, 122277, Note_on_c, 0, 68, 66
1, 122281, Control_c, 0, 64, 103
1, 122296, Control_c, 0, 64, 93
1, 122307, Note_off_c, 0, 68, 61
1, 122311, Control_c, 0, 64, 82
1, 122322, Note_on_c, 0, 70, 68
1, 122334, Control_c, 0, 64, 72
1, 122349, Control_c, 0, 64, 62
1, 122363, Control_c, 0, 64, 14
1, 122377, Note_off_c, 0, 70, 61
1, 122378, Control_c, 0, 64, 0
1, 122381, Note_on_c, 0, 68, 64
1, 122660, Control_c, 0, 67, 9
1, 122675, Control_c, 0, 67, 13
1, 122690, Control_c, 0, 67, 20
1, 122704, Control_c, 0, 67, 28
1, 122719, Control_c, 0, 67, 37
1, 122734, Control_c, 0, 67, 46
1, 122745, Note_on_c, 0, 67, 52
1, 122749, Control_c, 0, 67, 54
1, 122764, Control_c, 0, 67, 62
1, 122770, Note_off_c, 0, 68, 53
1, 122778, Control_c, 0, 67, 68
1, 122793, Control_c, 0, 67, 73
1, 122808, Control_c, 0, 67, 76
1, 122853, Control_c, 0, 67, 75
1, 122868, Control_c, 0, 64, 55
1, 122868, Control_c, 0, 67, 74
1, 122882, Control_c, 0, 64, 66
1, 122882, Control_c, 0, 67, 73
1, 122897, Control_c, 0, 64, 72
1, 122897, Control_c, 0, 67, 71
1, 122911, Control_c, 0, 64, 79
1, 122911, Control_c, 0, 67, 70
1, 122926, Control_c, 0, 64, 86
1, 122926, Control_c, 0, 67, 69
1, 122941, Control_c, 0, 64, 92
1, 122941, Control_c, 0, 67, 68
1, 122944, Note_off_c, 0, 67, 56
1, 122956, Control_c, 0, 64, 98
1, 122956, Control_c, 0, 67, 68
1, 122971, Control_c, 0, 64, 104
1, 122985, Control_c, 0, 64, 108
1, 123000, Control_c, 0, 64, 111
1, 123015, Control_c, 0, 64, 112
1, 123035, Note_on_c, 0, 68, 48
1, 123044, Control_c, 0, 67, 68
1, 123059, Control_c, 0, 67, 69
1, 123060, Note_off_c, 0, 68, 59
1, 123082, Control_c, 0, 64, 111
1, 123082, Control_c, 0, 67, 70
1, 123097, Control_c, 0, 64, 104
1, 123097, Control_c, 0, 67, 71
1, 123099, Note_on_c, 0, 67, 56
1, 123111, Control_c, 0, 64, 95
1, 123111, Control_c, 0, 67, 73
1, 123126, Control_c, 0, 64, 82
1, 123126, Control_c, 0, 67, 74
1, 123134, Note_off_c, 0, 67, 62
1, 123141, Control_c, 0, 64, 70
1, 123141, Control_c, 0, 67, 75
1, 123144, Note_on_c, 0, 68, 57
1, 123156, Control_c, 0, 64, 49
1, 123156, Control_c, 0, 67, 76
1, 123171, Control_c, 0, 64, 0
1, 123171, Control_c, 0, 67, 78
1, 123181, Note_off_c, 0, 68, 58
1, 123185, Control_c, 0, 67, 81
1, 123200, Control_c, 0, 67, 88
1, 123212, Note_on_c, 0, 67, 55
1, 123215, Control_c, 0, 67, 94
1, 123229, Control_c, 0, 67, 101
1, 123244, Control_c, 0, 67, 107
1, 123261, Control_c, 0, 67, 114
1, 123276, Control_c, 0, 67, 121
1, 123290, Control_c, 0, 67, 127
1, 123580, Note_on_c, 0, 65, 54
1, 123588, Note_off_c, 0, 67, 55
1, 123616, Control_c, 0, 64, 47
1, 123631, Control_c, 0, 64, 63
1, 123646, Control_c, 0, 64, 69
1, 123661, Control_c, 0, 64, 75
1, 123673, Note_off_c, 0, 47, 44
1, 123675, Control_c, 0, 64, 82
1, 123690, Control_c, 0, 64, 90
1, 123705, Control_c, 0, 64, 98
1, 123720, Control_c, 0, 64, 107
1, 123735, Control_c, 0, 64, 127
1, 123747, Note_off_c, 0, 65, 63
1, 123768, Note_off_c, 0, 59, 50
1, 123978, Note_on_c, 0, 63, 45
1, 123981, Note_on_c, 0, 48, 37
1, 124009, Control_c, 0, 64, 96
1, 124024, Control_c, 0, 64, 75
1, 124039, Control_c, 0, 64, 57
1, 124054, Control_c, 0, 64, 0
1, 124099, Control_c, 0, 64, 29
1, 124114, Control_c, 0, 64, 58
1, 124129, Control_c, 0, 64, 65
1, 124143, Control_c, 0, 64, 68
1, 124147, Note_off_c, 0, 74, 63
1, 124158, Control_c, 0, 64, 72
1, 124173, Control_c, 0, 64, 76
1, 124188, Control_c, 0, 64, 80
1, 124203, Control_c, 0, 64, 84
1, 124218, Control_c, 0, 64, 88
1, 124232, Control_c, 0, 64, 91
1, 124247, Control_c, 0, 64, 93
1, 124262, Control_c, 0, 64, 95
1, 124262, Control_c, 0, 67, 127
1, 124276, Control_c, 0, 64, 98
1, 124276, Control_c, 0, 67, 125
1, 124291, Control_c, 0, 64, 99
1, 124291, Control_c, 0, 67, 122
1, 124306, Control_c, 0, 64, 100
1, 124306, Control_c, 0, 67, 121
1, 124321, Control_c, 0, 67, 119
1, 124336, Control_c, 0, 67, 117
1, 124350, Control_c, 0, 67, 115
1, 124364, Note_on_c, 0, 74, 68
1, 124365, Control_c, 0, 67, 113
1, 124375, Note_on_c, 0, 58, 43
1, 124380, Control_c, 0, 67, 110
1, 124395, Control_c, 0, 67, 108
1, 124410, Control_c, 0, 67, 106
1, 124424, Control_c, 0, 67, 104
1, 124439, Control_c, 0, 67, 102
1, 124454, Control_c, 0, 67, 100
1, 124469, Control_c, 0, 67, 98
1, 124483, Control_c, 0, 67, 97
1, 124498, Control_c, 0, 67, 95
1, 124513, Control_c, 0, 67, 94
1, 124528, Control_c, 0, 67, 93
1, 124537, Note_off_c, 0, 58, 46
1, 124543, Control_c, 0, 67, 92
1, 124558, Control_c, 0, 67, 91
1, 124580, Control_c, 0, 67, 89
1, 124595, Control_c, 0, 67, 87
1, 124610, Control_c, 0, 67, 86
1, 124625, Control_c, 0, 67, 84
1, 124639, Control_c, 0, 67, 83
1, 124654, Control_c, 0, 67, 83
1, 124669, Control_c, 0, 64, 100
1, 124669, Control_c, 0, 67, 82
1, 124683, Control_c, 0, 64, 99
1, 124698, Control_c, 0, 64, 99
1, 124713, Control_c, 0, 64, 98
1, 124728, Control_c, 0, 64, 96
1, 124743, Control_c, 0, 64, 94
1, 124757, Control_c, 0, 64, 90
1, 124757, Control_c, 0, 67, 83
1, 124772, Control_c, 0, 64, 86
1, 124772, Control_c, 0, 67, 84
1, 124781, Note_on_c, 0, 72, 66
1, 124785, Note_on_c, 0, 57, 39
1, 124787, Control_c, 0, 64, 80
1, 124787, Control_c, 0, 67, 84
1, 124802, Control_c, 0, 64, 74
1, 124802, Control_c, 0, 67, 85
1, 124817, Control_c, 0, 64, 68
1, 124817, Control_c, 0, 67, 86
1, 124832, Control_c, 0, 64, 62
1, 124832, Control_c, 0, 67, 86
1, 124847, Control_c, 0, 64, 48
1, 124847, Control_c, 0, 67, 87
1, 124860, Note_off_c, 0, 74, 52
1, 124862, Control_c, 0, 64, 11
1, 124877, Control_c, 0, 64, 0
1, 124877, Control_c, 0, 67, 88
1, 124907, Control_c, 0, 67, 88
1, 124921, Control_c, 0, 67, 89
1, 124966, Control_c, 0, 67, 89
1, 124969, Note_off_c, 0, 63, 62
1, 125085, Control_c, 0, 67, 89
1, 125114, Control_c, 0, 67, 88
1, 125144, Control_c, 0, 67, 88
1, 125159, Control_c, 0, 67, 87
1, 125172, Note_on_c, 0, 63, 51
1, 125173, Control_c, 0, 67, 86
1, 125181, Note_on_c, 0, 55, 46
1, 125188, Control_c, 0, 64, 24
1, 125188, Control_c, 0, 67, 85
1, 125203, Control_c, 0, 64, 60
1, 125203, Control_c, 0, 67, 84
1, 125218, Control_c, 0, 64, 66
1, 125218, Control_c, 0, 67, 83
1, 125233, Control_c, 0, 64, 71
1, 125233, Control_c, 0, 67, 82
1, 125247, Control_c, 0, 64, 75
1, 125247, Control_c, 0, 67, 82
1, 125262, Control_c, 0, 64, 82
1, 125262, Control_c, 0, 67, 81
1, 125277, Control_c, 0, 64, 88
1, 125277, Control_c, 0, 67, 79
1, 125291, Control_c, 0, 64, 93
1, 125291, Control_c, 0, 67, 72
1, 125306, Control_c, 0, 64, 97
1, 125306, Control_c, 0, 67, 66
1, 125319, Note_off_c, 0, 48, 41
1, 125329, Control_c, 0, 64, 102
1, 125329, Control_c, 0, 67, 59
1, 125344, Control_c, 0, 64, 108
1, 125344, Control_c, 0, 67, 54
1, 125359, Control_c, 0, 64, 114
1, 125359, Control_c, 0, 67, 49
1, 125374, Control_c, 0, 64, 124
1, 125374, Control_c, 0, 67, 46
1, 125388, Control_c, 0, 64, 127
1, 125388, Control_c, 0, 67, 44
1, 125391, Note_off_c, 0, 63, 51
1, 125403, Control_c, 0, 67, 41
1, 125418, Control_c, 0, 67, 40
1, 125432, Control_c, 0, 67, 39
1, 125521, Control_c, 0, 67, 40
1, 125536, Control_c, 0, 64, 117
1, 125536, Control_c, 0, 67, 40
1, 125551, Control_c, 0, 64, 106
1, 125551, Control_c, 0, 67, 41
1, 125552, Note_on_c, 0, 50, 36
1, 125557, Note_on_c, 0, 54, 49
1, 125564, Note_on_c, 0, 62, 55
1, 125566, Control_c, 0, 64, 94
1, 125580, Control_c, 0, 64, 83
1, 125580, Control_c, 0, 67, 41
1, 125595, Control_c, 0, 64, 70
1, 125598, Note_off_c, 0, 57, 37
1, 125610, Control_c, 0, 64, 48
1, 125610, Control_c, 0, 67, 42
1, 125625, Control_c, 0, 64, 0
1, 125653, Note_off_c, 0, 55, 61
1, 125744, Control_c, 0, 67, 41
1, 125759, Control_c, 0, 67, 41
1, 125763, Note_off_c, 0, 72, 55
1, 125774, Control_c, 0, 64, 40
1, 125774, Control_c, 0, 67, 40
1, 125789, Control_c, 0, 64, 63
1, 125789, Control_c, 0, 67, 39
1, 125804, Control_c, 0, 64, 68
1, 125804, Control_c, 0, 67, 39
1, 125819, Control_c, 0, 64, 72
1, 125819, Control_c, 0, 67, 38
1, 125834, Control_c, 0, 64, 78
1, 125834, Control_c, 0, 67, 37
1, 125848, Control_c, 0, 64, 82
1, 125848, Control_c, 0, 67, 37
1, 125863, Control_c, 0, 64, 85
1, 125863, Control_c, 0, 67, 35
1, 125878, Control_c, 0, 64, 88
1, 125878, Control_c, 0, 67, 30
1, 125893, Control_c, 0, 64, 91
1, 125893, Control_c, 0, 67, 26
1, 125908, Control_c, 0, 64, 93
1, 125908, Control_c, 0, 67, 23
1, 125922, Control_c, 0, 64, 96
1, 125922, Control_c, 0, 67, 20
1, 125937, Control_c, 0, 64, 98
1, 125937, Control_c, 0, 67, 16
1, 125941, Note_on_c, 0, 72, 67
1, 125952, Control_c, 0, 64, 101
1, 125952, Control_c, 0, 67, 12
1, 125958, Note_on_c, 0, 69, 51
1, 125967, Control_c, 0, 64, 102
1, 125967, Control_c, 0, 67, 8
1, 125982, Control_c, 0, 64, 103
1, 125982, Control_c, 0, 67, 0
1, 125996, Control_c, 0, 64, 103
1, 126031, Note_off_c, 0, 69, 53
1, 126033, Note_off_c, 0, 62, 38
1, 126270, Control_c, 0, 64, 103
1, 126285, Control_c, 0, 64, 102
1, 126300, Control_c, 0, 64, 100
1, 126315, Control_c, 0, 64, 96
1, 126329, Control_c, 0, 64, 89
1, 126344, Control_c, 0, 64, 79
1, 126359, Control_c, 0, 64, 67
1, 126371, Note_on_c, 0, 70, 66
1, 126374, Control_c, 0, 64, 0
1, 126382, Note_on_c, 0, 62, 39
1, 126384, Note_on_c, 0, 55, 38
1, 126481, Note_off_c, 0, 72, 59
1, 126532, Note_off_c, 0, 54, 63
1, 126538, Control_c, 0, 64, 58
1, 126552, Control_c, 0, 64, 67
1, 126564, Note_off_c, 0, 50, 64
1, 126567, Control_c, 0, 64, 73
1, 126574, Note_off_c, 0, 62, 61
1, 126582, Control_c, 0, 64, 82
1, 126597, Control_c, 0, 64, 93
1, 126612, Control_c, 0, 64, 104
1, 126627, Control_c, 0, 64, 123
1, 126642, Control_c, 0, 64, 127
1, 126774, Note_on_c, 0, 69, 70
1, 126776, Control_c, 0, 64, 89
1, 126788, Note_on_c, 0, 63, 54
1, 126790, Control_c, 0, 64, 68
1, 126791, Note_on_c, 0, 48, 51
1, 126805, Control_c, 0, 64, 0
1, 126881, Note_off_c, 0, 70, 58
1, 126916, Control_c, 0, 64, 23
1, 126931, Control_c, 0, 64, 62
1, 126946, Control_c, 0, 64, 68
1, 126957, Note_off_c, 0, 55, 42
1, 126960, Control_c, 0, 64, 75
1, 126975, Control_c, 0, 64, 83
1, 126990, Control_c, 0, 64, 91
1, 127005, Control_c, 0, 64, 97
1, 127017, Note_off_c, 0, 63, 59
1, 127020, Control_c, 0, 64, 102
1, 127035, Control_c, 0, 64, 106
1, 127050, Control_c, 0, 64, 109
1, 127065, Control_c, 0, 64, 113
1, 127079, Control_c, 0, 64, 114
1, 127094, Control_c, 0, 64, 115
1, 127153, Control_c, 0, 64, 114
1, 127183, Control_c, 0, 64, 111
1, 127197, Control_c, 0, 64, 107
1, 127212, Control_c, 0, 64, 102
1, 127227, Control_c, 0, 64, 96
1, 127228, Note_on_c, 0, 70, 69
1, 127242, Control_c, 0, 64, 88
1, 127243, Note_on_c, 0, 62, 42
1, 127244, Note_on_c, 0, 50, 47
1, 127258, Control_c, 0, 64, 79
1, 127273, Control_c, 0, 64, 72
1, 127288, Control_c, 0, 64, 65
1, 127302, Control_c, 0, 64, 53
1, 127317, Control_c, 0, 64, 36
1, 127327, Note_off_c, 0, 69, 57
1, 127332, Control_c, 0, 64, 30
1, 127347, Control_c, 0, 64, 27
1, 127362, Control_c, 0, 64, 21
1, 127375, Control_c, 0, 64, 0
1, 127382, Note_off_c, 0, 48, 54
1, 127479, Control_c, 0, 67, 8
1, 127494, Control_c, 0, 67, 9
1, 127509, Control_c, 0, 67, 11
1, 127524, Control_c, 0, 67, 13
1, 127539, Control_c, 0, 67, 17
1, 127554, Control_c, 0, 67, 22
1, 127575, Control_c, 0, 67, 28
1, 127590, Control_c, 0, 67, 38
1, 127605, Control_c, 0, 67, 46
1, 127620, Control_c, 0, 67, 54
1, 127634, Control_c, 0, 67, 59
1, 127642, Note_on_c, 0, 67, 47
1, 127649, Control_c, 0, 67, 62
1, 127664, Control_c, 0, 67, 64
1, 127679, Control_c, 0, 67, 65
1, 127694, Control_c, 0, 64, 56
1, 127709, Control_c, 0, 64, 66
1, 127709, Control_c, 0, 67, 65
1, 127723, Control_c, 0, 64, 72
1, 127723, Control_c, 0, 67, 63
1, 127738, Control_c, 0, 64, 81
1, 127738, Control_c, 0, 67, 62
1, 127753, Control_c, 0, 64, 90
1, 127753, Control_c, 0, 67, 61
1, 127768, Control_c, 0, 64, 99
1, 127768, Control_c, 0, 67, 60
1, 127783, Control_c, 0, 64, 108
1, 127783, Control_c, 0, 67, 59
1, 127798, Control_c, 0, 64, 120
1, 127798, Control_c, 0, 67, 59
1, 127813, Control_c, 0, 64, 127
1, 127813, Control_c, 0, 67, 58
1, 127813, Note_off_c, 0, 67, 61
1, 127827, Note_off_c, 0, 62, 37
1, 127887, Control_c, 0, 67, 59
1, 127901, Control_c, 0, 67, 59
1, 127916, Control_c, 0, 67, 60
1, 127931, Control_c, 0, 67, 60
1, 127946, Control_c, 0, 67, 61
1, 127961, Control_c, 0, 67, 62
1, 127975, Control_c, 0, 67, 63
1, 127990, Control_c, 0, 67, 65
1, 128005, Control_c, 0, 67, 66
1, 128019, Control_c, 0, 64, 113
1, 128019, Control_c, 0, 67, 67
1, 128034, Control_c, 0, 64, 100
1, 128034, Control_c, 0, 67, 71
1, 128038, Note_on_c, 0, 69, 56
1, 128050, Note_on_c, 0, 66, 44
1, 128051, Control_c, 0, 64, 89
1, 128051, Control_c, 0, 67, 76
1, 128051, Note_on_c, 0, 38, 34
1, 128065, Control_c, 0, 64, 79
1, 128065, Control_c, 0, 67, 81
1, 128080, Control_c, 0, 64, 69
1, 128080, Control_c, 0, 67, 88
1, 128095, Control_c, 0, 64, 59
1, 128095, Control_c, 0, 67, 94
1, 128110, Control_c, 0, 64, 19
1, 128110, Control_c, 0, 67, 101
1, 128124, Control_c, 0, 64, 0
1, 128124, Control_c, 0, 67, 109
1, 128139, Control_c, 0, 67, 117
1, 128154, Control_c, 0, 67, 125
1, 128169, Control_c, 0, 67, 127
1, 128194, Note_off_c, 0, 70, 37
1, 128242, Note_off_c, 0, 50, 59
1, 128443, Control_c, 0, 64, 38
1, 128457, Control_c, 0, 64, 62
1, 128466, Note_on_c, 0, 60, 37
1, 128472, Control_c, 0, 64, 67
1, 128487, Control_c, 0, 64, 72
1, 128502, Control_c, 0, 64, 78
1, 128517, Control_c, 0, 64, 83
1, 128531, Control_c, 0, 64, 88
1, 128546, Control_c, 0, 64, 92
1, 128561, Control_c, 0, 64, 96
1, 128576, Control_c, 0, 64, 99
1, 128591, Control_c, 0, 64, 104
1, 128592, Note_off_c, 0, 69, 42
1, 128606, Control_c, 0, 64, 109
1, 128621, Control_c, 0, 64, 114
1, 128636, Control_c, 0, 64, 119
1, 128636, Note_off_c, 0, 66, 60
1, 128650, Control_c, 0, 64, 122
1, 128665, Control_c, 0, 64, 123
1, 128783, Control_c, 0, 64, 122
1, 128828, Control_c, 0, 64, 121
1, 128844, Control_c, 0, 64, 118
1, 128859, Control_c, 0, 64, 114
1, 128873, Control_c, 0, 64, 110
1, 128888, Control_c, 0, 64, 104
1, 128903, Control_c, 0, 64, 97
1, 128918, Control_c, 0, 64, 88
1, 128925, Note_on_c, 0, 67, 53
1, 128928, Note_on_c, 0, 62, 44
1, 128931, Note_on_c, 0, 43, 41
1, 128933, Control_c, 0, 64, 79
1, 128947, Control_c, 0, 64, 71
1, 128962, Control_c, 0, 64, 60
1, 128977, Control_c, 0, 64, 32
1, 128992, Control_c, 0, 64, 0
1, 129001, Note_off_c, 0, 38, 42
1, 129062, Note_off_c, 0, 60, 51
1, 129369, Control_c, 0, 64, 31
1, 129379, Note_on_c, 0, 60, 40
1, 129384, Control_c, 0, 64, 46
1, 129399, Control_c, 0, 64, 53
1, 129414, Control_c, 0, 64, 57
1, 129429, Control_c, 0, 64, 61
1, 129443, Control_c, 0, 64, 64
1, 129443, Control_c, 0, 67, 126
1, 129458, Control_c, 0, 64, 66
1, 129458, Control_c, 0, 67, 126
1, 129473, Control_c, 0, 64, 69
1, 129473, Control_c, 0, 67, 125
1, 129488, Control_c, 0, 64, 72
1, 129488, Control_c, 0, 67, 124
1, 129503, Control_c, 0, 64, 76
1, 129503, Control_c, 0, 67, 123
1, 129518, Control_c, 0, 64, 81
1, 129518, Control_c, 0, 67, 122
1, 129533, Control_c, 0, 64, 87
1, 129533, Control_c, 0, 67, 121
1, 129547, Control_c, 0, 64, 92
1, 129547, Control_c, 0, 67, 121
1, 129562, Control_c, 0, 64, 96
1, 129562, Control_c, 0, 67, 119
1, 129572, Note_off_c, 0, 60, 60
1, 129577, Control_c, 0, 64, 101
1, 129577, Control_c, 0, 67, 118
1, 129591, Control_c, 0, 64, 106
1, 129591, Control_c, 0, 67, 117
1, 129606, Control_c, 0, 64, 111
1, 129606, Control_c, 0, 67, 116
1, 129622, Control_c, 0, 64, 118
1, 129622, Control_c, 0, 67, 114
1, 129637, Control_c, 0, 64, 127
1, 129637, Control_c, 0, 67, 113
1, 129652, Control_c, 0, 67, 113
1, 129667, Control_c, 0, 67, 112
1, 129697, Control_c, 0, 67, 112
1, 129712, Control_c, 0, 67, 111
1, 129837, Control_c, 0, 67, 112
1, 129867, Control_c, 0, 67, 112
1, 129897, Control_c, 0, 67, 113
1, 129899, Note_on_c, 0, 60, 45
1, 129911, Control_c, 0, 64, 117
1, 129926, Control_c, 0, 64, 109
1, 129926, Control_c, 0, 67, 113
1, 129936, Note_off_c, 0, 60, 65
1, 129941, Control_c, 0, 64, 101
1, 129956, Control_c, 0, 64, 92
1, 129956, Control_c, 0, 67, 114
1, 129970, Note_on_c, 0, 58, 51
1, 129971, Control_c, 0, 64, 83
1, 129986, Control_c, 0, 64, 74
1, 129986, Control_c, 0, 67, 114
1, 129998, Note_off_c, 0, 58, 57
1, 130001, Control_c, 0, 64, 64
1, 130001, Control_c, 0, 67, 115
1, 130015, Control_c, 0, 64, 23
1, 130030, Note_on_c, 0, 60, 51
1, 130030, Control_c, 0, 64, 0
1, 130030, Control_c, 0, 67, 115
1, 130045, Control_c, 0, 67, 116
1, 130060, Control_c, 0, 67, 117
1, 130071, Note_off_c, 0, 60, 62
1, 130075, Control_c, 0, 67, 117
1, 130090, Control_c, 0, 67, 118
1, 130096, Note_on_c, 0, 58, 45
1, 130104, Control_c, 0, 67, 118
1, 130119, Control_c, 0, 67, 119
1, 130134, Control_c, 0, 67, 120
1, 130149, Control_c, 0, 67, 121
1, 130164, Control_c, 0, 67, 122
1, 130178, Control_c, 0, 67, 123
1, 130193, Control_c, 0, 67, 124
1, 130208, Control_c, 0, 67, 125
1, 130222, Control_c, 0, 67, 125
1, 130237, Control_c, 0, 67, 126
1, 130252, Control_c, 0, 67, 127
1, 130430, Control_c, 0, 64, 44
1, 130445, Control_c, 0, 64, 59
1, 130460, Control_c, 0, 64, 63
1, 130475, Control_c, 0, 64, 66
1, 130490, Control_c, 0, 64, 69
1, 130505, Control_c, 0, 64, 72
1, 130520, Control_c, 0, 64, 75
1, 130534, Control_c, 0, 64, 78
1, 130549, Control_c, 0, 64, 82
1, 130572, Control_c, 0, 64, 85
1, 130587, Control_c, 0, 64, 89
1, 130587, Control_c, 0, 67, 127
1, 130601, Control_c, 0, 64, 93
1, 130616, Control_c, 0, 64, 96
1, 130631, Control_c, 0, 64, 99
1, 130631, Control_c, 0, 67, 126
1, 130645, Control_c, 0, 64, 103
1, 130660, Control_c, 0, 64, 107
1, 130675, Control_c, 0, 64, 111
1, 130675, Control_c, 0, 67, 126
1, 130685, Note_off_c, 0, 58, 38
1, 130690, Control_c, 0, 64, 116
1, 130705, Control_c, 0, 64, 121
1, 130719, Control_c, 0, 64, 126
1, 130734, Control_c, 0, 64, 127
1, 130764, Control_c, 0, 67, 125
1, 130870, Note_on_c, 0, 57, 39
1, 130912, Control_c, 0, 64, 122
1, 130927, Control_c, 0, 64, 118
1, 130942, Control_c, 0, 64, 115
1, 130957, Control_c, 0, 64, 113
1, 130972, Control_c, 0, 64, 109
1, 130986, Control_c, 0, 64, 106
1, 131001, Control_c, 0, 64, 103
1, 131016, Control_c, 0, 64, 99
1, 131031, Control_c, 0, 64, 96
1, 131045, Control_c, 0, 64, 92
1, 131060, Control_c, 0, 64, 87
1, 131075, Control_c, 0, 64, 83
1, 131088, Note_on_c, 0, 55, 39
1, 131090, Control_c, 0, 64, 79
1, 131090, Control_c, 0, 67, 126
1, 131105, Control_c, 0, 64, 73
1, 131119, Control_c, 0, 64, 67
1, 131131, Note_off_c, 0, 57, 52
1, 131134, Control_c, 0, 64, 59
1, 131149, Control_c, 0, 64, 43
1, 131149, Control_c, 0, 67, 126
1, 131163, Control_c, 0, 64, 38
1, 131178, Control_c, 0, 64, 35
1, 131178, Control_c, 0, 67, 127
1, 131193, Control_c, 0, 64, 24
1, 131208, Control_c, 0, 64, 0
1, 131208, Control_c, 0, 67, 127
1, 131500, Note_off_c, 0, 55, 38
1, 131513, Note_on_c, 0, 50, 32
1, 131609, Note_off_c, 0, 43, 34
1, 131616, Control_c, 0, 64, 47
1, 131625, Note_off_c, 0, 62, 31
1, 131631, Control_c, 0, 64, 65
1, 131646, Control_c, 0, 64, 70
1, 131661, Control_c, 0, 64, 75
1, 131675, Control_c, 0, 64, 81
1, 131679, Note_off_c, 0, 67, 46
1, 131690, Control_c, 0, 64, 88
1, 131705, Control_c, 0, 64, 94
1, 131720, Control_c, 0, 64, 99
1, 131721, Note_off_c, 0, 50, 54
1, 131735, Control_c, 0, 64, 103
1, 131749, Control_c, 0, 64, 106
1, 131764, Control_c, 0, 64, 109
1, 131779, Control_c, 0, 64, 111
1, 131793, Control_c, 0, 64, 112
1, 131823, Control_c, 0, 64, 112
1, 131971, Control_c, 0, 64, 112
1, 132031, Control_c, 0, 64, 111
1, 132046, Control_c, 0, 64, 110
1, 132069, Control_c, 0, 64, 109
1, 132084, Control_c, 0, 64, 107
1, 132098, Control_c, 0, 64, 105
1, 132113, Control_c, 0, 64, 103
1, 132128, Control_c, 0, 64, 100
1, 132143, Control_c, 0, 64, 98
1, 132154, Note_on_c, 0, 55, 35
1, 132158, Control_c, 0, 64, 95
1, 132162, Note_on_c, 0, 70, 41
1, 132172, Control_c, 0, 64, 92
1, 132187, Control_c, 0, 64, 90
1, 132202, Control_c, 0, 64, 87
1, 132216, Control_c, 0, 64, 85
1, 132231, Control_c, 0, 64, 82
1, 132246, Control_c, 0, 64, 80
1, 132261, Control_c, 0, 64, 78
1, 132276, Control_c, 0, 64, 76
1, 132287, Note_off_c, 0, 70, 58
1, 132290, Control_c, 0, 64, 73
1, 132305, Control_c, 0, 64, 71
1, 132320, Control_c, 0, 64, 68
1, 132324, Note_on_c, 0, 72, 41
1, 132335, Control_c, 0, 64, 66
1, 132350, Control_c, 0, 64, 65
1, 132380, Control_c, 0, 64, 64
1, 132409, Control_c, 0, 64, 64
1, 132414, Note_off_c, 0, 72, 56
1, 132424, Control_c, 0, 64, 63
1, 132439, Control_c, 0, 64, 63
1, 132449, Note_on_c, 0, 58, 44
1, 132454, Control_c, 0, 64, 62
1, 132469, Control_c, 0, 64, 61
1, 132469, Note_on_c, 0, 74, 42
1, 132484, Control_c, 0, 64, 60
1, 132484, Note_off_c, 0, 58, 63
1, 132498, Control_c, 0, 64, 59
1, 132513, Control_c, 0, 64, 57
1, 132528, Control_c, 0, 64, 56
1, 132543, Control_c, 0, 64, 53
1, 132558, Control_c, 0, 64, 49
1, 132572, Control_c, 0, 64, 42
1, 132577, Note_off_c, 0, 74, 52
1, 132582, Note_on_c, 0, 72, 39
1, 132587, Control_c, 0, 64, 33
1, 132602, Control_c, 0, 64, 21
1, 132616, Control_c, 0, 64, 0
1, 132693, Note_off_c, 0, 72, 58
1, 132724, Note_on_c, 0, 70, 44
1, 132728, Note_on_c, 0, 62, 35
1, 132791, Note_off_c, 0, 55, 50
1, 132825, Note_off_c, 0, 70, 44
1, 132843, Note_on_c, 0, 72, 45
1, 132975, Note_on_c, 0, 53, 44
1, 132980, Note_on_c, 0, 69, 51
1, 132980, Note_off_c, 0, 72, 55
1, 133012, Note_off_c, 0, 53, 65
1, 133059, Note_off_c, 0, 69, 58
1, 133112, Note_on_c, 0, 70, 48
1, 133220, Note_off_c, 0, 70, 60
1, 133259, Note_on_c, 0, 51, 39
1, 133279, Note_on_c, 0, 67, 37
1, 133341, Note_off_c, 0, 62, 41
1, 133464, Note_on_c, 0, 75, 52
1, 133547, Note_off_c, 0, 67, 35
1, 133605, Note_on_c, 0, 60, 37
1, 133608, Note_off_c, 0, 75, 60
1, 133619, Note_on_c, 0, 74, 58
1, 133644, Note_off_c, 0, 60, 53
1, 133718, Note_off_c, 0, 74, 60
1, 133742, Note_on_c, 0, 75, 58
1, 133830, Note_off_c, 0, 75, 54
1, 133888, Note_on_c, 0, 53, 47
1, 133892, Note_on_c, 0, 69, 37
1, 133976, Note_off_c, 0, 69, 55
1, 134004, Note_on_c, 0, 70, 44
1, 134005, Note_off_c, 0, 51, 44
1, 134091, Note_off_c, 0, 70, 60
1, 134133, Note_on_c, 0, 72, 49
1, 134148, Note_on_c, 0, 57, 42
1, 134193, Note_off_c, 0, 57, 62
1, 134252, Note_off_c, 0, 72, 50
1, 134267, Note_on_c, 0, 70, 49
1, 134392, Note_off_c, 0, 70, 62
1, 134415, Note_on_c, 0, 69, 59
1, 134416, Note_on_c, 0, 60, 45
1, 134517, Note_off_c, 0, 69, 58
1, 134519, Note_off_c, 0, 53, 65
1, 134537, Note_on_c, 0, 70, 55
1, 134651, Note_off_c, 0, 70, 60
1, 134666, Note_on_c, 0, 51, 49
1, 134674, Note_on_c, 0, 67, 52
1, 134708, Note_off_c, 0, 51, 63
1, 134747, Note_off_c, 0, 67, 58
1, 134791, Note_on_c, 0, 69, 54
1, 134878, Note_off_c, 0, 69, 60
1, 134936, Note_on_c, 0, 50, 36
1, 134937, Note_on_c, 0, 65, 45
1, 134999, Note_off_c, 0, 60, 60
1, 135108, Note_on_c, 0, 74, 53
1, 135185, Note_off_c, 0, 65, 34
1, 135228, Note_off_c, 0, 74, 62
1, 135248, Note_on_c, 0, 72, 54
1, 135253, Note_on_c, 0, 58, 41
1, 135289, Note_off_c, 0, 58, 57
1, 135352, Note_off_c, 0, 72, 61
1, 135367, Note_on_c, 0, 74, 60
1, 135507, Note_on_c, 0, 51, 49
1, 135515, Note_on_c, 0, 67, 46
1, 135533, Note_off_c, 0, 74, 41
1, 135644, Note_off_c, 0, 67, 47
1, 135645, Note_on_c, 0, 69, 55
1, 135713, Note_off_c, 0, 50, 42
1, 135757, Note_on_c, 0, 55, 49
1, 135757, Note_off_c, 0, 69, 61
1, 135780, Note_on_c, 0, 70, 58
1, 135837, Note_off_c, 0, 55, 59
1, 135891, Note_on_c, 0, 69, 58
1, 135891, Note_off_c, 0, 70, 52
1, 136016, Note_off_c, 0, 69, 61
1, 136033, Note_on_c, 0, 58, 52
1, 136051, Note_on_c, 0, 67, 54
1, 136141, Note_off_c, 0, 51, 60
1, 136151, Note_off_c, 0, 67, 56
1, 136155, Note_on_c, 0, 69, 56
1, 136273, Note_on_c, 0, 50, 52
1, 136280, Note_off_c, 0, 69, 57
1, 136292, Note_on_c, 0, 66, 59
1, 136332, Note_off_c, 0, 50, 60
1, 136363, Note_off_c, 0, 66, 61
1, 136406, Note_on_c, 0, 67, 59
1, 136548, Note_on_c, 0, 48, 37
1, 136573, Note_on_c, 0, 69, 52
1, 136573, Note_off_c, 0, 67, 55
1, 136658, Note_off_c, 0, 58, 50
1, 136683, Note_off_c, 0, 69, 59
1, 136708, Note_on_c, 0, 72, 51
1, 136801, Note_off_c, 0, 72, 60
1, 136828, Note_on_c, 0, 57, 45
1, 136834, Note_on_c, 0, 70, 54
1, 136877, Note_off_c, 0, 57, 57
1, 136896, Note_off_c, 0, 70, 56
1, 136949, Note_on_c, 0, 72, 47
1, 137088, Note_on_c, 0, 50, 47
1, 137089, Note_off_c, 0, 72, 56
1, 137100, Note_on_c, 0, 66, 46
1, 137159, Note_off_c, 0, 48, 42
1, 137201, Note_off_c, 0, 66, 61
1, 137229, Note_on_c, 0, 67, 53
1, 137334, Note_off_c, 0, 67, 57
1, 137346, Note_on_c, 0, 54, 50
1, 137366, Note_on_c, 0, 69, 57
1, 137385, Note_off_c, 0, 54, 62
1, 137459, Note_off_c, 0, 69, 60
1, 137486, Note_on_c, 0, 67, 52
1, 137598, Note_off_c, 0, 67, 60
1, 137614, Note_on_c, 0, 66, 56
1, 137617, Note_on_c, 0, 57, 39
1, 137696, Note_off_c, 0, 50, 63
1, 137727, Note_off_c, 0, 66, 55
1, 137736, Note_on_c, 0, 67, 51
1, 137837, Note_off_c, 0, 67, 58
1, 137862, Note_on_c, 0, 48, 46
1, 137870, Note_on_c, 0, 64, 48
1, 137905, Note_off_c, 0, 48, 62
1, 137946, Note_off_c, 0, 64, 52
1, 137983, Note_on_c, 0, 66, 45
1, 138120, Note_off_c, 0, 66, 58
1, 138154, Note_on_c, 0, 46, 38
1, 138160, Note_off_c, 0, 57, 37
1, 138175, Note_on_c, 0, 62, 44
1, 138250, Control_c, 0, 64, 50
1, 138265, Control_c, 0, 64, 63
1, 138280, Control_c, 0, 64, 69
1, 138295, Control_c, 0, 64, 74
1, 138299, Note_off_c, 0, 62, 59
1, 138309, Control_c, 0, 64, 81
1, 138324, Control_c, 0, 64, 88
1, 138339, Control_c, 0, 64, 95
1, 138353, Control_c, 0, 64, 104
1, 138368, Control_c, 0, 64, 121
1, 138383, Control_c, 0, 64, 127
1, 138448, Note_on_c, 0, 79, 52
1, 138577, Control_c, 0, 67, 127
1, 138579, Note_on_c, 0, 50, 43
1, 138592, Control_c, 0, 67, 125
1, 138593, Note_off_c, 0, 79, 59
1, 138604, Note_on_c, 0, 78, 56
1, 138607, Control_c, 0, 67, 123
1, 138622, Control_c, 0, 67, 121
1, 138634, Note_off_c, 0, 50, 65
1, 138637, Control_c, 0, 67, 117
1, 138651, Control_c, 0, 67, 113
1, 138660, Note_off_c, 0, 46, 40
1, 138666, Control_c, 0, 67, 109
1, 138681, Control_c, 0, 67, 104
1, 138696, Control_c, 0, 67, 101
1, 138711, Control_c, 0, 67, 98
1, 138719, Note_on_c, 0, 79, 63
1, 138721, Note_off_c, 0, 78, 55
1, 138725, Control_c, 0, 67, 96
1, 138740, Control_c, 0, 67, 94
1, 138755, Control_c, 0, 67, 93
1, 138770, Control_c, 0, 67, 92
1, 138836, Control_c, 0, 67, 93
1, 138839, Note_off_c, 0, 79, 54
1, 138851, Control_c, 0, 67, 93
1, 138863, Note_on_c, 0, 69, 61
1, 138866, Control_c, 0, 67, 94
1, 138873, Note_on_c, 0, 48, 48
1, 138881, Control_c, 0, 67, 94
1, 138896, Control_c, 0, 67, 95
1, 138911, Control_c, 0, 64, 95
1, 138926, Control_c, 0, 64, 77
1, 138926, Control_c, 0, 67, 95
1, 138940, Control_c, 0, 64, 60
1, 138940, Control_c, 0, 67, 96
1, 138955, Control_c, 0, 64, 0
1, 138999, Note_on_c, 0, 79, 58
1, 139029, Control_c, 0, 64, 36
1, 139029, Control_c, 0, 67, 95
1, 139044, Control_c, 0, 64, 62
1, 139044, Control_c, 0, 67, 95
1, 139058, Control_c, 0, 64, 67
1, 139058, Control_c, 0, 67, 94
1, 139073, Control_c, 0, 64, 72
1, 139073, Control_c, 0, 67, 94
1, 139088, Control_c, 0, 64, 77
1, 139088, Control_c, 0, 67, 93
1, 139103, Control_c, 0, 64, 84
1, 139103, Control_c, 0, 67, 93
1, 139118, Control_c, 0, 64, 91
1, 139118, Control_c, 0, 67, 92
1, 139119, Note_on_c, 0, 51, 54
1, 139125, Note_off_c, 0, 79, 61
1, 139132, Note_on_c, 0, 78, 63
1, 139132, Control_c, 0, 64, 100
1, 139132, Control_c, 0, 67, 92
1, 139147, Control_c, 0, 64, 109
1, 139147, Control_c, 0, 67, 91
1, 139161, Note_off_c, 0, 48, 54
1, 139162, Control_c, 0, 64, 127
1, 139162, Control_c, 0, 67, 91
1, 139176, Control_c, 0, 67, 90
1, 139191, Control_c, 0, 67, 86
1, 139198, Note_off_c, 0, 69, 29
1, 139206, Control_c, 0, 67, 82
1, 139222, Control_c, 0, 67, 78
1, 139237, Control_c, 0, 67, 74
1, 139245, Note_on_c, 0, 79, 69
1, 139248, Note_off_c, 0, 78, 53
1, 139252, Control_c, 0, 67, 69
1, 139267, Control_c, 0, 67, 65
1, 139281, Control_c, 0, 67, 62
1, 139296, Control_c, 0, 67, 59
1, 139311, Control_c, 0, 67, 56
1, 139314, Note_off_c, 0, 51, 30
1, 139326, Control_c, 0, 67, 54
1, 139341, Control_c, 0, 67, 51
1, 139356, Control_c, 0, 67, 50
1, 139371, Control_c, 0, 67, 49
1, 139382, Note_off_c, 0, 79, 60
1, 139388, Note_on_c, 0, 69, 70
1, 139391, Note_on_c, 0, 57, 57
1, 139400, Control_c, 0, 67, 48
1, 139460, Control_c, 0, 64, 100
1, 139474, Control_c, 0, 64, 83
1, 139489, Control_c, 0, 64, 69
1, 139496, Note_on_c, 0, 79, 65
1, 139504, Control_c, 0, 64, 51
1, 139519, Control_c, 0, 64, 43
1, 139534, Control_c, 0, 64, 57
1, 139556, Control_c, 0, 64, 64
1, 139571, Control_c, 0, 64, 69
1, 139586, Control_c, 0, 64, 74
1, 139601, Control_c, 0, 64, 80
1, 139615, Control_c, 0, 64, 89
1, 139630, Control_c, 0, 64, 96
1, 139630, Control_c, 0, 67, 48
1, 139639, Note_on_c, 0, 60, 56
1, 139643, Note_off_c, 0, 79, 58
1, 139644, Note_on_c, 0, 78, 67
1, 139645, Control_c, 0, 64, 104
1, 139660, Control_c, 0, 64, 116
1, 139675, Control_c, 0, 64, 127
1, 139698, Note_off_c, 0, 69, 38
1, 139704, Note_off_c, 0, 60, 62
1, 139708, Note_off_c, 0, 57, 60
1, 139767, Note_on_c, 0, 79, 70
1, 139805, Note_off_c, 0, 78, 38
1, 139868, Control_c, 0, 67, 48
1, 139882, Control_c, 0, 67, 49
1, 139897, Control_c, 0, 67, 49
1, 139912, Control_c, 0, 67, 50
1, 139912, Note_on_c, 0, 50, 55
1, 139912, Note_on_c, 0, 70, 67
1, 139922, Note_off_c, 0, 79, 60
1, 139941, Control_c, 0, 64, 93
1, 139956, Control_c, 0, 64, 73
1, 139956, Control_c, 0, 67, 50
1, 139971, Control_c, 0, 64, 40
1, 139986, Control_c, 0, 64, 0
1, 140038, Note_on_c, 0, 79, 64
1, 140046, Control_c, 0, 64, 57
1, 140061, Control_c, 0, 64, 65
1, 140061, Control_c, 0, 67, 50
1, 140076, Control_c, 0, 64, 70
1, 140091, Control_c, 0, 64, 77
1, 140091, Control_c, 0, 67, 49
1, 140105, Control_c, 0, 64, 86
1, 140105, Control_c, 0, 67, 49
1, 140120, Control_c, 0, 64, 95
1, 140120, Control_c, 0, 67, 48
1, 140135, Control_c, 0, 64, 106
1, 140135, Control_c, 0, 67, 48
1, 140150, Control_c, 0, 64, 126
1, 140150, Control_c, 0, 67, 47
1, 140165, Control_c, 0, 64, 127
1, 140165, Control_c, 0, 67, 47
1, 140166, Note_off_c, 0, 79, 58
1, 140167, Note_on_c, 0, 58, 56
1, 140179, Control_c, 0, 67, 46
1, 140181, Note_on_c, 0, 78, 64
1, 140209, Control_c, 0, 67, 46
1, 140223, Control_c, 0, 67, 45
1, 140231, Note_off_c, 0, 70, 60
1, 140238, Control_c, 0, 67, 43
1, 140253, Control_c, 0, 67, 41
1, 140268, Control_c, 0, 67, 40
1, 140273, Note_off_c, 0, 58, 55
1, 140281, Note_on_c, 0, 79, 68
1, 140305, Control_c, 0, 67, 40
1, 140315, Note_off_c, 0, 50, 34
1, 140344, Note_off_c, 0, 78, 36
1, 140434, Note_on_c, 0, 72, 74
1, 140448, Note_off_c, 0, 79, 57
1, 140453, Control_c, 0, 64, 109
1, 140459, Note_on_c, 0, 51, 51
1, 140468, Control_c, 0, 64, 83
1, 140483, Control_c, 0, 64, 67
1, 140498, Control_c, 0, 64, 26
1, 140512, Control_c, 0, 64, 0
1, 140527, Control_c, 0, 64, 36
1, 140542, Control_c, 0, 64, 58
1, 140542, Control_c, 0, 67, 39
1, 140556, Control_c, 0, 64, 65
1, 140556, Control_c, 0, 67, 38
1, 140568, Note_on_c, 0, 79, 64
1, 140571, Control_c, 0, 64, 72
1, 140571, Control_c, 0, 67, 37
1, 140586, Control_c, 0, 64, 78
1, 140586, Control_c, 0, 67, 35
1, 140601, Control_c, 0, 64, 87
1, 140601, Control_c, 0, 67, 30
1, 140616, Control_c, 0, 64, 97
1, 140616, Control_c, 0, 67, 25
1, 140631, Control_c, 0, 64, 108
1, 140631, Control_c, 0, 67, 20
1, 140646, Control_c, 0, 64, 127
1, 140646, Control_c, 0, 67, 13
1, 140661, Control_c, 0, 67, 0
1, 140708, Note_on_c, 0, 60, 48
1, 140708, Note_on_c, 0, 78, 72
1, 140713, Note_off_c, 0, 79, 61
1, 140765, Note_off_c, 0, 60, 55
1, 140785, Note_off_c, 0, 51, 58
1, 140789, Note_off_c, 0, 72, 60
1, 140826, Note_on_c, 0, 79, 74
1, 140839, Note_off_c, 0, 78, 54
1, 140963, Note_on_c, 0, 50, 60
1, 140970, Note_on_c, 0, 74, 81
1, 140971, Note_off_c, 0, 79, 60
1, 140987, Control_c, 0, 64, 96
1, 141002, Control_c, 0, 64, 77
1, 141017, Control_c, 0, 64, 63
1, 141032, Control_c, 0, 64, 0
1, 141084, Control_c, 0, 64, 45
1, 141099, Control_c, 0, 64, 62
1, 141102, Note_on_c, 0, 79, 67
1, 141114, Control_c, 0, 64, 67
1, 141128, Control_c, 0, 64, 72
1, 141143, Control_c, 0, 64, 79
1, 141158, Control_c, 0, 64, 87
1, 141173, Control_c, 0, 64, 96
1, 141187, Control_c, 0, 64, 106
1, 141202, Control_c, 0, 64, 127
1, 141225, Note_on_c, 0, 58, 57
1, 141232, Note_on_c, 0, 78, 77
1, 141243, Note_off_c, 0, 79, 58
1, 141302, Note_off_c, 0, 74, 60
1, 141345, Note_on_c, 0, 79, 76
1, 141346, Note_off_c, 0, 50, 55
1, 141371, Note_off_c, 0, 78, 47
1, 141381, Note_off_c, 0, 58, 49
1, 141486, Note_on_c, 0, 75, 79
1, 141506, Note_on_c, 0, 48, 52
1, 141513, Control_c, 0, 64, 110
1, 141519, Note_off_c, 0, 79, 60
1, 141528, Control_c, 0, 64, 88
1, 141543, Control_c, 0, 64, 72
1, 141558, Control_c, 0, 64, 51
1, 141572, Control_c, 0, 64, 0
1, 141616, Control_c, 0, 64, 47
1, 141620, Note_on_c, 0, 79, 74
1, 141632, Control_c, 0, 64, 62
1, 141647, Control_c, 0, 64, 66
1, 141662, Control_c, 0, 64, 71
1, 141676, Control_c, 0, 64, 77
1, 141691, Control_c, 0, 64, 85
1, 141706, Control_c, 0, 64, 97
1, 141721, Control_c, 0, 64, 110
1, 141728, Note_on_c, 0, 57, 54
1, 141736, Control_c, 0, 64, 127
1, 141747, Note_on_c, 0, 78, 70
1, 141750, Note_off_c, 0, 79, 59
1, 141806, Note_off_c, 0, 57, 60
1, 141832, Note_off_c, 0, 48, 63
1, 141871, Note_on_c, 0, 79, 70
1, 141871, Note_off_c, 0, 78, 54
1, 141878, Note_off_c, 0, 75, 61
1, 142015, Note_on_c, 0, 74, 74
1, 142017, Note_off_c, 0, 79, 59
1, 142022, Note_on_c, 0, 46, 54
1, 142039, Control_c, 0, 64, 104
1, 142054, Control_c, 0, 64, 83
1, 142069, Control_c, 0, 64, 66
1, 142083, Control_c, 0, 64, 0
1, 142137, Note_on_c, 0, 79, 64
1, 142232, Control_c, 0, 64, 59
1, 142246, Control_c, 0, 64, 68
1, 142249, Note_off_c, 0, 79, 61
1, 142257, Note_on_c, 0, 78, 67
1, 142261, Control_c, 0, 64, 75
1, 142263, Note_on_c, 0, 55, 49
1, 142276, Control_c, 0, 64, 85
1, 142291, Control_c, 0, 64, 96
1, 142300, Note_off_c, 0, 74, 37
1, 142306, Control_c, 0, 64, 107
1, 142320, Control_c, 0, 64, 126
1, 142335, Control_c, 0, 64, 127
1, 142375, Note_off_c, 0, 78, 52
1, 142376, Note_off_c, 0, 55, 57
1, 142378, Note_on_c, 0, 79, 65
1, 142383, Note_off_c, 0, 46, 35
1, 142499, Note_off_c, 0, 79, 59
1, 142539, Note_on_c, 0, 45, 50
1, 142539, Note_on_c, 0, 72, 57
1, 142581, Control_c, 0, 64, 105
1, 142596, Control_c, 0, 64, 91
1, 142611, Control_c, 0, 64, 81
1, 142611, Control_c, 0, 67, 8
1, 142625, Control_c, 0, 64, 72
1, 142625, Control_c, 0, 67, 10
1, 142640, Control_c, 0, 64, 65
1, 142640, Control_c, 0, 67, 12
1, 142655, Control_c, 0, 64, 55
1, 142655, Control_c, 0, 67, 15
1, 142663, Note_on_c, 0, 79, 59
1, 142670, Control_c, 0, 64, 51
1, 142670, Control_c, 0, 67, 19
1, 142685, Control_c, 0, 64, 50
1, 142685, Control_c, 0, 67, 23
1, 142700, Control_c, 0, 64, 49
1, 142700, Control_c, 0, 67, 28
1, 142714, Control_c, 0, 64, 48
1, 142714, Control_c, 0, 67, 32
1, 142729, Control_c, 0, 64, 45
1, 142729, Control_c, 0, 67, 37
1, 142742, Note_off_c, 0, 72, 48
1, 142744, Control_c, 0, 64, 43
1, 142744, Control_c, 0, 67, 44
1, 142759, Control_c, 0, 64, 42
1, 142759, Control_c, 0, 67, 51
1, 142774, Control_c, 0, 67, 58
1, 142789, Control_c, 0, 67, 66
1, 142794, Note_on_c, 0, 43, 46
1, 142794, Note_on_c, 0, 70, 66
1, 142804, Control_c, 0, 64, 42
1, 142804, Control_c, 0, 67, 73
1, 142813, Note_off_c, 0, 79, 59
1, 142819, Control_c, 0, 64, 40
1, 142819, Control_c, 0, 67, 81
1, 142833, Control_c, 0, 64, 38
1, 142833, Control_c, 0, 67, 89
1, 142848, Control_c, 0, 64, 35
1, 142848, Control_c, 0, 67, 98
1, 142855, Note_off_c, 0, 45, 35
1, 142863, Control_c, 0, 64, 31
1, 142863, Control_c, 0, 67, 106
1, 142878, Control_c, 0, 64, 26
1, 142878, Control_c, 0, 67, 112
1, 142881, Note_off_c, 0, 70, 63
1, 142893, Control_c, 0, 64, 14
1, 142893, Control_c, 0, 67, 117
1, 142907, Control_c, 0, 64, 0
1, 142907, Control_c, 0, 67, 122
1, 142922, Control_c, 0, 67, 126
1, 142929, Note_on_c, 0, 79, 65
1, 142937, Control_c, 0, 67, 127
1, 143042, Note_off_c, 0, 79, 59
1, 143057, Note_off_c, 0, 43, 61
1, 143058, Note_on_c, 0, 50, 38
1, 143060, Note_on_c, 0, 69, 58
1, 143144, Control_c, 0, 67, 127
1, 143166, Note_on_c, 0, 79, 62
1, 143174, Control_c, 0, 67, 126
1, 143218, Control_c, 0, 67, 126
1, 143248, Control_c, 0, 67, 125
1, 143281, Note_off_c, 0, 79, 60
1, 143316, Note_on_c, 0, 38, 35
1, 143316, Control_c, 0, 67, 125
1, 143317, Note_on_c, 0, 74, 56
1, 143324, Note_off_c, 0, 69, 35
1, 143374, Control_c, 0, 67, 124
1, 143427, Note_off_c, 0, 74, 60
1, 143439, Note_on_c, 0, 78, 55
1, 143473, Note_off_c, 0, 50, 36
1, 143478, Control_c, 0, 67, 124
1, 143508, Control_c, 0, 67, 123
1, 143552, Control_c, 0, 67, 123
1, 143566, Note_off_c, 0, 78, 53
1, 143569, Note_on_c, 0, 43, 34
1, 143576, Note_on_c, 0, 79, 54
1, 143597, Control_c, 0, 67, 122
1, 143607, Note_off_c, 0, 38, 36
1, 143642, Control_c, 0, 67, 122
1, 143694, Note_on_c, 0, 74, 53
1, 143709, Note_off_c, 0, 79, 47
1, 143730, Control_c, 0, 67, 121
1, 143789, Control_c, 0, 67, 121
1, 143798, Note_off_c, 0, 74, 63
1, 143838, Note_on_c, 0, 72, 51
1, 143939, Note_off_c, 0, 72, 61
1, 143946, Note_on_c, 0, 74, 57
1, 144081, Note_off_c, 0, 74, 61
1, 144086, Note_on_c, 0, 70, 53
1, 144124, Control_c, 0, 67, 121
1, 144168, Control_c, 0, 67, 122
1, 144194, Note_off_c, 0, 70, 60
1, 144198, Control_c, 0, 67, 122
1, 144209, Note_on_c, 0, 72, 54
1, 144241, Note_off_c, 0, 43, 55
1, 144308, Note_off_c, 0, 72, 60
1, 144324, Note_on_c, 0, 69, 55
1, 144425, Note_off_c, 0, 69, 60
1, 144444, Note_on_c, 0, 70, 59
1, 144509, Control_c, 0, 67, 122
1, 144542, Note_off_c, 0, 70, 61
1, 144553, Control_c, 0, 67, 121
1, 144577, Note_on_c, 0, 67, 55
1, 144627, Control_c, 0, 67, 121
1, 144691, Note_on_c, 0, 62, 41
1, 144697, Note_on_c, 0, 69, 51
1, 144703, Note_off_c, 0, 67, 52
1, 144781, Note_off_c, 0, 62, 57
1, 144810, Note_on_c, 0, 60, 48
1, 144832, Note_on_c, 0, 70, 54
1, 144862, Note_off_c, 0, 69, 37
1, 144919, Note_off_c, 0, 60, 63
1, 144919, Note_off_c, 0, 70, 60
1, 144946, Note_on_c, 0, 62, 41
1, 144950, Note_on_c, 0, 72, 48
1, 145064, Note_off_c, 0, 62, 55
1, 145087, Note_on_c, 0, 55, 47
1, 145094, Note_on_c, 0, 70, 52
1, 145111, Note_off_c, 0, 72, 47
1, 145177, Note_off_c, 0, 55, 62
1, 145204, Note_on_c, 0, 62, 46
1, 145309, Note_off_c, 0, 62, 52
1, 145335, Note_on_c, 0, 67, 61
1, 145344, Note_on_c, 0, 60, 47
1, 145414, Note_off_c, 0, 70, 53
1, 145425, Note_off_c, 0, 60, 63
1, 145425, Note_off_c, 0, 67, 57
1, 145457, Note_on_c, 0, 62, 51
1, 145524, Control_c, 0, 67, 120
1, 145561, Control_c, 0, 67, 120
1, 145575, Note_off_c, 0, 62, 54
1, 145576, Control_c, 0, 67, 119
1, 145591, Control_c, 0, 67, 119
1, 145592, Note_on_c, 0, 74, 66
1, 145600, Note_on_c, 0, 58, 53
1, 145606, Control_c, 0, 67, 118
1, 145621, Control_c, 0, 67, 116
1, 145636, Control_c, 0, 67, 113
1, 145651, Control_c, 0, 67, 107
1, 145666, Control_c, 0, 67, 100
1, 145680, Control_c, 0, 67, 91
1, 145683, Note_off_c, 0, 58, 62
1, 145695, Control_c, 0, 67, 82
1, 145710, Control_c, 0, 67, 74
1, 145723, Note_on_c, 0, 62, 45
1, 145725, Control_c, 0, 67, 66
1, 145740, Control_c, 0, 67, 56
1, 145755, Control_c, 0, 67, 49
1, 145769, Control_c, 0, 67, 42
1, 145784, Control_c, 0, 67, 36
1, 145799, Control_c, 0, 67, 32
1, 145814, Control_c, 0, 67, 28
1, 145829, Control_c, 0, 67, 25
1, 145831, Note_on_c, 0, 70, 74
1, 145841, Note_on_c, 0, 55, 50
1, 145844, Control_c, 0, 67, 21
1, 145858, Control_c, 0, 67, 17
1, 145864, Note_off_c, 0, 74, 62
1, 145873, Control_c, 0, 67, 14
1, 145888, Control_c, 0, 67, 11
1, 145901, Note_off_c, 0, 55, 60
1, 145903, Control_c, 0, 64, 11
1, 145903, Control_c, 0, 67, 9
1, 145917, Control_c, 0, 64, 17
1, 145917, Control_c, 0, 67, 0
1, 145919, Note_off_c, 0, 70, 63
1, 145932, Note_off_c, 0, 62, 55
1, 145932, Control_c, 0, 64, 21
1, 145947, Control_c, 0, 64, 24
1, 145954, Note_on_c, 0, 58, 50
1, 145962, Control_c, 0, 64, 27
1, 145976, Control_c, 0, 64, 31
1, 145991, Control_c, 0, 64, 33
1, 146021, Control_c, 0, 64, 34
1, 146065, Control_c, 0, 64, 35
1, 146081, Note_off_c, 0, 58, 56
1, 146107, Note_on_c, 0, 51, 41
1, 146109, Note_on_c, 0, 79, 64
1, 146273, Control_c, 0, 64, 36
1, 146280, Note_off_c, 0, 51, 53
1, 146281, Note_on_c, 0, 60, 38
1, 146295, Control_c, 0, 64, 36
1, 146309, Control_c, 0, 64, 37
1, 146324, Control_c, 0, 64, 39
1, 146339, Control_c, 0, 64, 41
1, 146354, Control_c, 0, 64, 42
1, 146369, Control_c, 0, 64, 44
1, 146384, Control_c, 0, 64, 44
1, 146399, Control_c, 0, 64, 45
1, 146414, Control_c, 0, 64, 46
1, 146422, Note_off_c, 0, 60, 58
1, 146429, Note_on_c, 0, 75, 58
1, 146429, Control_c, 0, 64, 46
1, 146459, Control_c, 0, 64, 47
1, 146465, Note_on_c, 0, 58, 41
1, 146484, Note_off_c, 0, 79, 61
1, 146517, Note_off_c, 0, 75, 62
1, 146533, Note_off_c, 0, 58, 57
1, 146573, Note_on_c, 0, 60, 42
1, 146622, Control_c, 0, 64, 46
1, 146637, Control_c, 0, 64, 46
1, 146652, Control_c, 0, 64, 45
1, 146663, Note_off_c, 0, 60, 56
1, 146666, Control_c, 0, 64, 45
1, 146681, Control_c, 0, 64, 44
1, 146691, Note_on_c, 0, 69, 63
1, 146694, Note_on_c, 0, 53, 47
1, 146711, Control_c, 0, 64, 44
1, 146770, Control_c, 0, 64, 43
1, 146780, Note_off_c, 0, 53, 64
1, 146803, Note_on_c, 0, 60, 50
1, 146930, Note_off_c, 0, 60, 61
1, 146946, Note_on_c, 0, 65, 71
1, 146951, Note_on_c, 0, 58, 57
1, 147016, Note_off_c, 0, 69, 53
1, 147046, Note_off_c, 0, 65, 60
1, 147054, Note_off_c, 0, 58, 62
1, 147059, Control_c, 0, 64, 44
1, 147081, Note_on_c, 0, 60, 53
1, 147103, Control_c, 0, 64, 44
1, 147147, Control_c, 0, 64, 45
1, 147188, Note_off_c, 0, 60, 61
1, 147201, Note_on_c, 0, 72, 71
1, 147204, Note_on_c, 0, 57, 57
1, 147296, Note_off_c, 0, 57, 62
1, 147319, Note_on_c, 0, 60, 57
1, 147415, Control_c, 0, 64, 45
1, 147445, Control_c, 0, 64, 46
1, 147447, Note_on_c, 0, 69, 77
1, 147449, Note_on_c, 0, 53, 55
1, 147460, Control_c, 0, 64, 46
1, 147475, Control_c, 0, 64, 47
1, 147481, Note_off_c, 0, 72, 63
1, 147504, Control_c, 0, 64, 48
1, 147519, Control_c, 0, 64, 49
1, 147526, Note_off_c, 0, 69, 62
1, 147532, Note_off_c, 0, 60, 55
1, 147534, Control_c, 0, 64, 50
1, 147545, Note_off_c, 0, 53, 66
1, 147548, Control_c, 0, 64, 50
1, 147563, Control_c, 0, 64, 51
1, 147564, Note_on_c, 0, 57, 61
1, 147578, Control_c, 0, 64, 51
1, 147592, Control_c, 0, 64, 52
1, 147607, Control_c, 0, 64, 53
1, 147636, Control_c, 0, 64, 53
1, 147666, Control_c, 0, 64, 54
1, 147697, Note_on_c, 0, 50, 49
1, 147709, Note_on_c, 0, 77, 67
1, 147729, Note_off_c, 0, 57, 33
1, 147755, Control_c, 0, 64, 54
1, 147792, Control_c, 0, 64, 55
1, 147821, Control_c, 0, 64, 55
1, 147836, Control_c, 0, 64, 56
1, 147844, Note_off_c, 0, 50, 62
1, 147851, Control_c, 0, 64, 56
1, 147860, Note_on_c, 0, 58, 61
1, 147866, Control_c, 0, 64, 57
1, 147880, Control_c, 0, 64, 57
1, 147895, Control_c, 0, 64, 58
1, 147910, Control_c, 0, 64, 58
1, 147940, Control_c, 0, 64, 59
1, 147955, Control_c, 0, 64, 59
1, 147967, Note_off_c, 0, 58, 58
1, 147970, Control_c, 0, 64, 60
1, 147981, Note_on_c, 0, 74, 76
1, 147984, Note_on_c, 0, 57, 48
1, 148021, Note_off_c, 0, 77, 63
1, 148058, Note_off_c, 0, 74, 63
1, 148059, Control_c, 0, 64, 59
1, 148074, Control_c, 0, 64, 58
1, 148088, Note_off_c, 0, 57, 61
1, 148089, Control_c, 0, 64, 57
1, 148103, Note_on_c, 0, 58, 59
1, 148104, Control_c, 0, 64, 56
1, 148119, Control_c, 0, 64, 55
1, 148134, Control_c, 0, 64, 53
1, 148149, Control_c, 0, 64, 53
1, 148163, Control_c, 0, 64, 52
1, 148178, Control_c, 0, 64, 51
1, 148208, Control_c, 0, 64, 50
1, 148212, Note_off_c, 0, 58, 60
1, 148223, Control_c, 0, 64, 50
1, 148225, Note_on_c, 0, 67, 62
1, 148229, Note_on_c, 0, 51, 59
1, 148340, Control_c, 0, 64, 50
1, 148342, Note_on_c, 0, 58, 60
1, 148347, Note_off_c, 0, 51, 64
1, 148462, Note_off_c, 0, 58, 58
1, 148474, Control_c, 0, 64, 51
1, 148480, Note_on_c, 0, 63, 71
1, 148480, Note_on_c, 0, 57, 59
1, 148580, Note_off_c, 0, 57, 62
1, 148596, Note_on_c, 0, 58, 64
1, 148596, Note_off_c, 0, 67, 55
1, 148640, Note_off_c, 0, 63, 55
1, 148717, Note_off_c, 0, 58, 62
1, 148727, Note_on_c, 0, 55, 62
1, 148730, Note_on_c, 0, 70, 75
1, 148834, Note_off_c, 0, 55, 63
1, 148855, Note_on_c, 0, 58, 66
1, 148982, Note_on_c, 0, 51, 64
1, 148983, Note_on_c, 0, 67, 79
1, 149021, Note_off_c, 0, 70, 62
1, 149045, Control_c, 0, 64, 51
1, 149058, Note_off_c, 0, 58, 40
1, 149082, Note_off_c, 0, 67, 62
1, 149105, Control_c, 0, 64, 52
1, 149107, Note_on_c, 0, 55, 63
1, 149109, Note_off_c, 0, 51, 63
1, 149223, Control_c, 0, 64, 51
1, 149239, Note_on_c, 0, 48, 58
1, 149251, Note_on_c, 0, 75, 66
1, 149267, Control_c, 0, 64, 51
1, 149295, Note_off_c, 0, 55, 56
1, 149369, Note_on_c, 0, 57, 61
1, 149369, Note_off_c, 0, 48, 55
1, 149497, Note_off_c, 0, 57, 60
1, 149501, Note_on_c, 0, 55, 62
1, 149505, Note_on_c, 0, 72, 75
1, 149544, Note_off_c, 0, 75, 56
1, 149578, Note_off_c, 0, 72, 63
1, 149599, Note_off_c, 0, 55, 64
1, 149616, Control_c, 0, 64, 51
1, 149623, Note_on_c, 0, 57, 61
1, 149646, Control_c, 0, 64, 52
1, 149661, Control_c, 0, 64, 52
1, 149676, Control_c, 0, 64, 53
1, 149705, Control_c, 0, 64, 53
1, 149737, Note_off_c, 0, 57, 57
1, 149761, Note_on_c, 0, 50, 55
1, 149767, Note_on_c, 0, 66, 67
1, 149794, Control_c, 0, 64, 54
1, 149839, Control_c, 0, 64, 54
1, 149856, Note_off_c, 0, 50, 63
1, 149869, Control_c, 0, 64, 55
1, 149883, Control_c, 0, 64, 55
1, 149896, Note_on_c, 0, 62, 61
1, 149928, Control_c, 0, 64, 56
1, 149989, Note_off_c, 0, 66, 63
1, 150012, Note_on_c, 0, 69, 77
1, 150024, Note_on_c, 0, 60, 62
1, 150024, Note_off_c, 0, 62, 59
1, 150113, Note_off_c, 0, 60, 64
1, 150134, Note_off_c, 0, 69, 63
1, 150140, Note_on_c, 0, 62, 68
1, 150142, Control_c, 0, 64, 56
1, 150187, Control_c, 0, 64, 57
1, 150202, Control_c, 0, 64, 57
1, 150216, Control_c, 0, 64, 58
1, 150231, Control_c, 0, 64, 58
1, 150261, Control_c, 0, 64, 59
1, 150270, Note_off_c, 0, 62, 58
1, 150271, Note_on_c, 0, 57, 58
1, 150274, Note_on_c, 0, 72, 80
1, 150305, Control_c, 0, 64, 58
1, 150375, Note_off_c, 0, 57, 62
1, 150396, Note_on_c, 0, 62, 64
1, 150533, Note_on_c, 0, 60, 64
1, 150535, Note_on_c, 0, 69, 76
1, 150535, Note_off_c, 0, 62, 58
1, 150586, Note_off_c, 0, 72, 62
1, 150621, Note_off_c, 0, 60, 64
1, 150649, Note_on_c, 0, 62, 61
1, 150780, Control_c, 0, 64, 59
1, 150799, Note_off_c, 0, 62, 49
1, 150811, Note_on_c, 0, 81, 75
1, 150825, Note_on_c, 0, 54, 52
1, 150876, Control_c, 0, 64, 58
1, 150953, Note_off_c, 0, 54, 59
1, 150955, Note_on_c, 0, 62, 54
1, 151054, Control_c, 0, 64, 59
1, 151068, Note_off_c, 0, 62, 58
1, 151081, Note_on_c, 0, 72, 81
1, 151082, Note_on_c, 0, 60, 56
1, 151124, Note_off_c, 0, 81, 59
1, 151157, Control_c, 0, 64, 59
1, 151169, Note_off_c, 0, 72, 65
1, 151173, Note_off_c, 0, 60, 63
1, 151194, Note_on_c, 0, 62, 62
1, 151304, Note_off_c, 0, 62, 61
1, 151310, Note_on_c, 0, 55, 61
1, 151321, Control_c, 0, 64, 59
1, 151325, Note_on_c, 0, 70, 76
1, 151386, Note_off_c, 0, 69, 63
1, 151424, Note_off_c, 0, 55, 64
1, 151456, Note_on_c, 0, 58, 71
1, 151567, Note_off_c, 0, 58, 61
1, 151569, Note_on_c, 0, 57, 63
1, 151585, Note_on_c, 0, 67, 77
1, 151610, Control_c, 0, 64, 58
1, 151658, Note_off_c, 0, 57, 61
1, 151679, Note_on_c, 0, 58, 73
1, 151744, Control_c, 0, 64, 58
1, 151782, Note_off_c, 0, 58, 61
1, 151788, Control_c, 0, 64, 57
1, 151814, Note_on_c, 0, 46, 73
1, 151826, Note_on_c, 0, 74, 81
1, 151896, Note_off_c, 0, 67, 60
1, 151898, Note_off_c, 0, 70, 62
1, 151949, Note_on_c, 0, 55, 71
1, 151956, Note_off_c, 0, 46, 60
1, 152066, Note_on_c, 0, 67, 87
1, 152069, Note_on_c, 0, 54, 72
1, 152080, Note_off_c, 0, 55, 62
1, 152087, Note_off_c, 0, 74, 62
1, 152171, Note_off_c, 0, 54, 64
1, 152176, Note_on_c, 0, 55, 75
1, 152189, Note_off_c, 0, 67, 50
1, 152203, Control_c, 0, 64, 57
1, 152248, Control_c, 0, 64, 56
1, 152310, Note_off_c, 0, 55, 53
1, 152320, Note_on_c, 0, 46, 63
1, 152325, Note_on_c, 0, 79, 83
1, 152344, Control_c, 0, 64, 56
1, 152359, Control_c, 0, 64, 55
1, 152374, Control_c, 0, 64, 54
1, 152389, Control_c, 0, 64, 53
1, 152439, Note_on_c, 0, 55, 68
1, 152472, Note_off_c, 0, 46, 58
1, 152507, Control_c, 0, 64, 54
1, 152522, Control_c, 0, 64, 54
1, 152537, Control_c, 0, 64, 55
1, 152566, Control_c, 0, 64, 55
1, 152573, Note_on_c, 0, 54, 70
1, 152574, Note_on_c, 0, 74, 84
1, 152581, Note_off_c, 0, 55, 63
1, 152584, Note_off_c, 0, 79, 63
1, 152675, Note_off_c, 0, 54, 65
1, 152677, Note_off_c, 0, 74, 61
1, 152686, Note_on_c, 0, 55, 75
1, 152700, Control_c, 0, 64, 56
1, 152730, Control_c, 0, 64, 56
1, 152776, Note_off_c, 0, 55, 60
1, 152789, Control_c, 0, 64, 57
1, 152816, Note_on_c, 0, 75, 84
1, 152820, Note_on_c, 0, 48, 72
1, 152849, Control_c, 0, 64, 56
1, 152951, Note_on_c, 0, 56, 78
1, 153007, Note_off_c, 0, 48, 41
1, 153073, Note_on_c, 0, 55, 64
1, 153088, Note_off_c, 0, 56, 61
1, 153090, Note_on_c, 0, 68, 81
1, 153154, Note_off_c, 0, 75, 59
1, 153193, Note_off_c, 0, 55, 64
1, 153199, Note_on_c, 0, 56, 72
1, 153227, Note_off_c, 0, 68, 57
1, 153321, Note_off_c, 0, 56, 60
1, 153326, Note_on_c, 0, 77, 80
1, 153333, Note_on_c, 0, 50, 62
1, 153462, Note_on_c, 0, 56, 59
1, 153464, Control_c, 0, 64, 57
1, 153464, Note_off_c, 0, 50, 65
1, 153508, Control_c, 0, 64, 57
1, 153555, Note_off_c, 0, 56, 61
1, 153569, Note_on_c, 0, 55, 60
1, 153577, Note_on_c, 0, 68, 79
1, 153640, Note_off_c, 0, 77, 58
1, 153663, Note_off_c, 0, 55, 64
1, 153672, Control_c, 0, 64, 58
1, 153673, Note_off_c, 0, 68, 59
1, 153681, Note_on_c, 0, 56, 64
1, 153813, Note_off_c, 0, 56, 60
1, 153822, Note_on_c, 0, 51, 63
1, 153833, Note_on_c, 0, 67, 74
1, 153902, Control_c, 0, 64, 57
1, 153948, Note_off_c, 0, 51, 63
1, 153963, Note_on_c, 0, 55, 58
1, 154072, Note_off_c, 0, 55, 62
1, 154084, Note_on_c, 0, 70, 73
1, 154086, Note_on_c, 0, 54, 61
1, 154123, Control_c, 0, 64, 57
1, 154137, Note_off_c, 0, 67, 56
1, 154153, Control_c, 0, 64, 56
1, 154171, Note_off_c, 0, 54, 64
1, 154197, Control_c, 0, 64, 56
1, 154200, Note_on_c, 0, 55, 59
1, 154225, Note_off_c, 0, 70, 57
1, 154227, Control_c, 0, 64, 55
1, 154257, Control_c, 0, 64, 55
1, 154271, Control_c, 0, 64, 54
1, 154286, Control_c, 0, 64, 54
1, 154301, Note_off_c, 0, 55, 51
1, 154301, Control_c, 0, 64, 53
1, 154316, Control_c, 0, 64, 53
1, 154327, Note_on_c, 0, 75, 64
1, 154331, Control_c, 0, 64, 52
1, 154334, Note_on_c, 0, 48, 48
1, 154346, Control_c, 0, 64, 52
1, 154361, Control_c, 0, 64, 51
1, 154390, Control_c, 0, 67, 8
1, 154406, Control_c, 0, 64, 50
1, 154406, Control_c, 0, 67, 9
1, 154420, Control_c, 0, 67, 11
1, 154421, Note_off_c, 0, 48, 60
1, 154435, Control_c, 0, 67, 14
1, 154450, Control_c, 0, 64, 50
1, 154450, Control_c, 0, 67, 17
1, 154453, Note_on_c, 0, 55, 52
1, 154465, Control_c, 0, 67, 21
1, 154480, Control_c, 0, 67, 26
1, 154495, Control_c, 0, 64, 49
1, 154495, Control_c, 0, 67, 32
1, 154510, Control_c, 0, 64, 49
1, 154510, Control_c, 0, 67, 38
1, 154531, Control_c, 0, 67, 45
1, 154546, Control_c, 0, 67, 52
1, 154561, Control_c, 0, 67, 57
1, 154568, Note_off_c, 0, 55, 56
1, 154576, Control_c, 0, 64, 48
1, 154576, Control_c, 0, 67, 62
1, 154590, Note_on_c, 0, 72, 59
1, 154591, Control_c, 0, 67, 66
1, 154598, Note_on_c, 0, 54, 54
1, 154605, Control_c, 0, 67, 69
1, 154620, Control_c, 0, 67, 72
1, 154635, Control_c, 0, 67, 72
1, 154645, Note_off_c, 0, 75, 54
1, 154650, Control_c, 0, 67, 73
1, 154668, Note_off_c, 0, 72, 63
1, 154674, Note_off_c, 0, 54, 63
1, 154701, Note_on_c, 0, 55, 55
1, 154739, Control_c, 0, 67, 72
1, 154769, Control_c, 0, 64, 49
1, 154769, Control_c, 0, 67, 72
1, 154784, Control_c, 0, 67, 71
1, 154799, Control_c, 0, 67, 71
1, 154813, Control_c, 0, 67, 70
1, 154826, Note_off_c, 0, 55, 58
1, 154828, Control_c, 0, 67, 69
1, 154842, Note_on_c, 0, 50, 51
1, 154845, Note_on_c, 0, 70, 64
1, 154857, Control_c, 0, 67, 69
1, 154872, Control_c, 0, 67, 68
1, 154887, Control_c, 0, 67, 68
1, 154917, Control_c, 0, 64, 49
1, 154917, Control_c, 0, 67, 67
1, 154922, Note_off_c, 0, 50, 63
1, 154931, Control_c, 0, 64, 50
1, 154946, Control_c, 0, 67, 66
1, 154955, Note_on_c, 0, 55, 52
1, 154961, Control_c, 0, 67, 66
1, 154976, Control_c, 0, 67, 65
1, 154991, Control_c, 0, 67, 65
1, 155020, Control_c, 0, 67, 64
1, 155035, Control_c, 0, 67, 64
1, 155049, Control_c, 0, 64, 50
1, 155049, Control_c, 0, 67, 63
1, 155072, Note_off_c, 0, 55, 55
1, 155079, Control_c, 0, 64, 51
1, 155094, Control_c, 0, 67, 63
1, 155099, Note_on_c, 0, 48, 46
1, 155105, Note_on_c, 0, 79, 66
1, 155124, Control_c, 0, 67, 62
1, 155154, Control_c, 0, 67, 62
1, 155165, Note_off_c, 0, 70, 62
1, 155199, Note_off_c, 0, 48, 62
1, 155199, Control_c, 0, 64, 51
1, 155223, Note_off_c, 0, 79, 59
1, 155236, Note_on_c, 0, 55, 46
1, 155258, Control_c, 0, 64, 52
1, 155258, Control_c, 0, 67, 61
1, 155315, Note_off_c, 0, 55, 49
1, 155359, Note_on_c, 0, 69, 67
1, 155365, Note_on_c, 0, 50, 53
1, 155453, Note_off_c, 0, 50, 64
1, 155458, Control_c, 0, 64, 51
1, 155479, Note_on_c, 0, 55, 49
1, 155547, Control_c, 0, 64, 51
1, 155547, Control_c, 0, 67, 62
1, 155589, Note_off_c, 0, 55, 55
1, 155592, Control_c, 0, 67, 62
1, 155602, Note_on_c, 0, 50, 45
1, 155607, Control_c, 0, 67, 63
1, 155622, Control_c, 0, 67, 63
1, 155630, Note_on_c, 0, 74, 67
1, 155651, Control_c, 0, 67, 64
1, 155652, Note_off_c, 0, 69, 52
1, 155666, Control_c, 0, 64, 50
1, 155680, Control_c, 0, 67, 64
1, 155710, Control_c, 0, 67, 65
1, 155723, Note_off_c, 0, 50, 64
1, 155725, Control_c, 0, 64, 50
1, 155731, Note_off_c, 0, 74, 65
1, 155739, Note_on_c, 0, 54, 54
1, 155740, Control_c, 0, 67, 65
1, 155830, Note_off_c, 0, 54, 63
1, 155860, Note_on_c, 0, 72, 57
1, 155873, Control_c, 0, 64, 49
1, 155879, Note_on_c, 0, 55, 41
1, 155882, Note_off_c, 0, 72, 63
1, 155888, Control_c, 0, 64, 49
1, 155903, Control_c, 0, 64, 47
1, 155917, Note_on_c, 0, 70, 60
1, 155918, Control_c, 0, 64, 44
1, 155918, Control_c, 0, 67, 66
1, 155933, Control_c, 0, 64, 40
1, 155945, Note_off_c, 0, 70, 66
1, 155947, Control_c, 0, 64, 29
1, 155947, Control_c, 0, 67, 66
1, 155958, Note_on_c, 0, 72, 62
1, 155962, Control_c, 0, 64, 0
1, 155962, Control_c, 0, 67, 67
1, 155976, Note_off_c, 0, 55, 55
1, 155977, Control_c, 0, 67, 68
1, 155993, Control_c, 0, 67, 68
1, 155994, Note_off_c, 0, 72, 60
1, 155997, Note_on_c, 0, 50, 52
1, 156007, Note_on_c, 0, 70, 73
1, 156008, Control_c, 0, 67, 69
1, 156030, Control_c, 0, 67, 70
1, 156045, Control_c, 0, 67, 71
1, 156060, Control_c, 0, 67, 72
1, 156075, Control_c, 0, 67, 72
1, 156090, Control_c, 0, 67, 73
1, 156104, Control_c, 0, 67, 74
1, 156114, Note_off_c, 0, 50, 67
1, 156119, Control_c, 0, 67, 78
1, 156134, Note_on_c, 0, 48, 54
1, 156134, Control_c, 0, 67, 82
1, 156149, Control_c, 0, 67, 86
1, 156164, Control_c, 0, 67, 90
1, 156178, Control_c, 0, 67, 94
1, 156193, Control_c, 0, 67, 100
1, 156208, Control_c, 0, 67, 105
1, 156223, Control_c, 0, 67, 110
1, 156224, Note_off_c, 0, 70, 61
1, 156230, Note_off_c, 0, 48, 63
1, 156238, Control_c, 0, 67, 115
1, 156250, Note_on_c, 0, 50, 51
1, 156250, Note_on_c, 0, 69, 59
1, 156253, Control_c, 0, 67, 121
1, 156267, Control_c, 0, 67, 125
1, 156282, Control_c, 0, 67, 127
1, 156373, Note_off_c, 0, 69, 55
1, 156378, Note_off_c, 0, 50, 64
1, 156385, Note_on_c, 0, 67, 56
1, 156393, Note_on_c, 0, 46, 54
1, 156475, Note_off_c, 0, 46, 61
1, 156498, Note_on_c, 0, 50, 56
1, 156618, Note_off_c, 0, 50, 63
1, 156641, Note_on_c, 0, 48, 51
1, 156718, Note_off_c, 0, 48, 63
1, 156742, Note_on_c, 0, 50, 55
1, 156880, Note_off_c, 0, 50, 63
1, 156904, Note_on_c, 0, 43, 48
1, 157015, Note_on_c, 0, 50, 57
1, 157026, Note_off_c, 0, 43, 59
1, 157059, Note_off_c, 0, 67, 47
1, 157103, Note_off_c, 0, 50, 64
1, 157146, Note_on_c, 0, 52, 58
1, 157215, Note_off_c, 0, 52, 57
1, 157258, Note_on_c, 0, 54, 59
1, 157393, Note_off_c, 0, 54, 60
1, 157408, Note_on_c, 0, 55, 55
1, 157434, Note_on_c, 0, 70, 58
1, 157470, Note_off_c, 0, 70, 61
1, 157473, Note_off_c, 0, 55, 62
1, 157508, Note_on_c, 0, 58, 57
1, 157512, Note_on_c, 0, 74, 57
1, 157552, Note_off_c, 0, 58, 61
1, 157577, Note_off_c, 0, 74, 55
1, 157599, Note_on_c, 0, 57, 50
1, 157613, Note_on_c, 0, 72, 57
1, 157635, Note_off_c, 0, 57, 63
1, 157656, Note_off_c, 0, 72, 56
1, 157668, Note_on_c, 0, 58, 55
1, 157685, Note_on_c, 0, 74, 66
1, 157712, Note_off_c, 0, 58, 58
1, 157731, Note_off_c, 0, 74, 65
1, 157761, Note_on_c, 0, 55, 57
1, 157768, Note_on_c, 0, 70, 63
1, 157799, Note_off_c, 0, 70, 62
1, 157807, Note_off_c, 0, 55, 62
1, 157840, Note_on_c, 0, 58, 51
1, 157841, Note_on_c, 0, 74, 63
1, 157884, Note_off_c, 0, 58, 56
1, 157884, Note_off_c, 0, 74, 63
1, 157928, Note_on_c, 0, 67, 65
1, 157941, Note_on_c, 0, 51, 40
1, 157959, Note_off_c, 0, 67, 62
1, 157975, Note_off_c, 0, 51, 63
1, 157989, Note_on_c, 0, 55, 55
1, 157999, Note_on_c, 0, 70, 64
1, 158033, Note_off_c, 0, 70, 59
1, 158053, Note_off_c, 0, 55, 56
1, 158096, Note_on_c, 0, 48, 60
1, 158099, Note_on_c, 0, 63, 67
1, 158138, Note_off_c, 0, 48, 63
1, 158177, Note_on_c, 0, 75, 63
1, 158184, Note_on_c, 0, 60, 57
1, 158206, Note_off_c, 0, 63, 49
1, 158225, Note_off_c, 0, 60, 60
1, 158243, Note_off_c, 0, 75, 62
1, 158258, Note_on_c, 0, 74, 73
1, 158259, Note_on_c, 0, 58, 69
1, 158316, Note_off_c, 0, 58, 57
1, 158332, Note_on_c, 0, 75, 73
1, 158335, Note_off_c, 0, 74, 64
1, 158340, Note_on_c, 0, 60, 70
1, 158376, Note_off_c, 0, 60, 61
1, 158379, Note_off_c, 0, 75, 68
1, 158429, Note_on_c, 0, 53, 63
1, 158432, Note_on_c, 0, 69, 77
1, 158469, Note_off_c, 0, 69, 57
1, 158471, Note_off_c, 0, 53, 64
1, 158508, Note_on_c, 0, 72, 66
1, 158512, Note_on_c, 0, 57, 62
1, 158547, Note_off_c, 0, 57, 61
1, 158573, Note_off_c, 0, 72, 61
1, 158588, Note_on_c, 0, 55, 61
1, 158590, Note_on_c, 0, 70, 61
1, 158627, Note_off_c, 0, 55, 62
1, 158645, Note_off_c, 0, 70, 60
1, 158668, Note_on_c, 0, 57, 57
1, 158682, Note_on_c, 0, 72, 62
1, 158706, Note_off_c, 0, 57, 62
1, 158712, Note_off_c, 0, 72, 64
1, 158746, Note_on_c, 0, 69, 72
1, 158779, Note_on_c, 0, 53, 14
1, 158787, Note_off_c, 0, 69, 49
1, 158818, Note_on_c, 0, 72, 65
1, 158819, Note_on_c, 0, 57, 58
1, 158820, Note_off_c, 0, 53, 42
1, 158871, Note_off_c, 0, 57, 53
1, 158883, Note_off_c, 0, 72, 60
1, 158898, Note_on_c, 0, 50, 49
1, 158902, Note_on_c, 0, 65, 64
1, 158939, Note_off_c, 0, 65, 65
1, 158940, Note_off_c, 0, 50, 66
1, 158962, Note_on_c, 0, 53, 61
1, 158973, Note_on_c, 0, 69, 70
1, 159003, Note_off_c, 0, 53, 66
1, 159014, Note_off_c, 0, 69, 56
1, 159070, Note_on_c, 0, 62, 68
1, 159071, Note_on_c, 0, 46, 57
1, 159106, Note_off_c, 0, 46, 63
1, 159135, Note_off_c, 0, 62, 58
1, 159151, Note_on_c, 0, 58, 68
1, 159151, Note_on_c, 0, 74, 75
1, 159186, Note_off_c, 0, 58, 59
1, 159203, Control_c, 0, 67, 125
1, 159218, Control_c, 0, 67, 120
1, 159230, Note_off_c, 0, 74, 65
1, 159231, Note_on_c, 0, 57, 61
1, 159233, Note_on_c, 0, 72, 75
1, 159233, Control_c, 0, 67, 113
1, 159248, Control_c, 0, 67, 105
1, 159263, Control_c, 0, 67, 97
1, 159277, Control_c, 0, 67, 91
1, 159288, Note_off_c, 0, 57, 60
1, 159292, Control_c, 0, 67, 85
1, 159301, Note_on_c, 0, 74, 79
1, 159307, Note_on_c, 0, 58, 71
1, 159307, Control_c, 0, 67, 81
1, 159309, Note_off_c, 0, 72, 59
1, 159321, Control_c, 0, 67, 78
1, 159336, Control_c, 0, 67, 76
1, 159340, Note_off_c, 0, 58, 62
1, 159351, Control_c, 0, 67, 75
1, 159353, Note_off_c, 0, 74, 63
1, 159366, Control_c, 0, 67, 74
1, 159388, Note_on_c, 0, 51, 65
1, 159393, Note_on_c, 0, 67, 77
1, 159396, Control_c, 0, 67, 73
1, 159433, Note_off_c, 0, 67, 55
1, 159437, Note_off_c, 0, 51, 58
1, 159458, Note_on_c, 0, 70, 74
1, 159464, Note_on_c, 0, 55, 67
1, 159470, Control_c, 0, 67, 73
1, 159513, Note_off_c, 0, 55, 59
1, 159538, Note_off_c, 0, 70, 62
1, 159545, Note_on_c, 0, 53, 72
1, 159548, Note_on_c, 0, 69, 69
1, 159583, Note_off_c, 0, 53, 65
1, 159589, Control_c, 0, 67, 72
1, 159617, Note_on_c, 0, 55, 72
1, 159621, Note_off_c, 0, 69, 61
1, 159628, Note_on_c, 0, 70, 74
1, 159662, Note_off_c, 0, 55, 63
1, 159685, Note_off_c, 0, 70, 63
1, 159700, Note_on_c, 0, 51, 67
1, 159703, Note_on_c, 0, 67, 74
1, 159736, Control_c, 0, 67, 73
1, 159738, Note_off_c, 0, 51, 66
1, 159765, Note_off_c, 0, 67, 60
1, 159777, Note_on_c, 0, 70, 76
1, 159785, Note_on_c, 0, 55, 66
1, 159789, Control_c, 0, 67, 73
1, 159803, Control_c, 0, 67, 75
1, 159818, Control_c, 0, 67, 77
1, 159826, Note_off_c, 0, 55, 56
1, 159833, Control_c, 0, 67, 80
1, 159848, Control_c, 0, 67, 84
1, 159853, Note_on_c, 0, 48, 53
1, 159860, Note_on_c, 0, 63, 65
1, 159861, Note_off_c, 0, 70, 63
1, 159862, Control_c, 0, 67, 87
1, 159877, Control_c, 0, 67, 93
1, 159892, Control_c, 0, 67, 99
1, 159896, Note_off_c, 0, 48, 63
1, 159907, Control_c, 0, 67, 104
1, 159918, Note_on_c, 0, 51, 66
1, 159922, Control_c, 0, 67, 105
1, 159928, Note_off_c, 0, 63, 61
1, 159933, Note_on_c, 0, 67, 71
1, 159966, Control_c, 0, 67, 103
1, 159971, Note_off_c, 0, 51, 60
1, 159981, Note_off_c, 0, 67, 59
1, 159981, Control_c, 0, 67, 102
1, 159997, Control_c, 0, 67, 100
1, 160004, Note_on_c, 0, 45, 73
1, 160012, Control_c, 0, 67, 98
1, 160018, Note_on_c, 0, 60, 77
1, 160026, Control_c, 0, 67, 97
1, 160037, Note_off_c, 0, 45, 69
1, 160041, Control_c, 0, 67, 96
1, 160056, Control_c, 0, 67, 95
1, 160070, Control_c, 0, 67, 94
1, 160074, Note_off_c, 0, 60, 58
1, 160085, Control_c, 0, 67, 93
1, 160090, Note_on_c, 0, 57, 65
1, 160093, Note_on_c, 0, 72, 71
1, 160100, Control_c, 0, 67, 93
1, 160115, Control_c, 0, 67, 92
1, 160130, Control_c, 0, 67, 90
1, 160133, Note_off_c, 0, 57, 56
1, 160144, Control_c, 0, 67, 90
1, 160159, Note_on_c, 0, 55, 67
1, 160159, Control_c, 0, 67, 89
1, 160164, Note_off_c, 0, 72, 61
1, 160165, Note_on_c, 0, 70, 78
1, 160189, Control_c, 0, 67, 88
1, 160208, Note_off_c, 0, 55, 60
1, 160235, Note_on_c, 0, 57, 73
1, 160245, Note_on_c, 0, 72, 69
1, 160248, Note_off_c, 0, 70, 60
1, 160263, Control_c, 0, 67, 89
1, 160278, Control_c, 0, 67, 89
1, 160293, Control_c, 0, 67, 90
1, 160299, Note_off_c, 0, 57, 60
1, 160308, Note_off_c, 0, 72, 62
1, 160308, Control_c, 0, 67, 90
1, 160321, Control_c, 0, 67, 91
1, 160323, Note_on_c, 0, 50, 68
1, 160324, Note_on_c, 0, 66, 73
1, 160346, Note_off_c, 0, 66, 68
1, 160350, Control_c, 0, 67, 91
1, 160365, Control_c, 0, 67, 92
1, 160380, Control_c, 0, 67, 92
1, 160382, Note_off_c, 0, 50, 62
1, 160409, Note_on_c, 0, 57, 67
1, 160475, Note_off_c, 0, 57, 60
1, 160488, Note_on_c, 0, 55, 61
1, 160496, Note_on_c, 0, 62, 69
1, 160521, Control_c, 0, 67, 92
1, 160537, Note_off_c, 0, 55, 66
1, 160584, Note_on_c, 0, 57, 57
1, 160617, Note_off_c, 0, 57, 63
1, 160624, Control_c, 0, 67, 91
1, 160639, Control_c, 0, 67, 91
1, 160668, Control_c, 0, 67, 90
1, 160670, Note_on_c, 0, 54, 66
1, 160683, Note_off_c, 0, 62, 62
1, 160716, Note_off_c, 0, 54, 58
1, 160743, Note_on_c, 0, 62, 63
1, 160788, Control_c, 0, 67, 90
1, 160818, Control_c, 0, 67, 89
1, 160828, Note_off_c, 0, 62, 60
1, 160838, Note_on_c, 0, 60, 66
1, 160839, Note_on_c, 0, 69, 80
1, 160847, Control_c, 0, 67, 89
1, 160868, Note_off_c, 0, 69, 57
1, 160902, Note_off_c, 0, 60, 61
1, 160907, Control_c, 0, 67, 88
1, 160922, Note_on_c, 0, 62, 65
1, 160994, Note_off_c, 0, 62, 59
1, 161000, Note_on_c, 0, 74, 86
1, 161004, Note_on_c, 0, 58, 69
1, 161050, Note_off_c, 0, 74, 64
1, 161060, Note_off_c, 0, 58, 58
1, 161087, Note_on_c, 0, 62, 62
1, 161128, Note_off_c, 0, 62, 59
1, 161129, Control_c, 0, 67, 89
1, 161156, Note_on_c, 0, 57, 64
1, 161166, Note_on_c, 0, 72, 76
1, 161190, Note_off_c, 0, 57, 64
1, 161203, Note_off_c, 0, 72, 63
1, 161217, Control_c, 0, 67, 89
1, 161233, Note_on_c, 0, 62, 59
1, 161253, Note_off_c, 0, 62, 61
1, 161299, Control_c, 0, 67, 90
1, 161339, Note_on_c, 0, 70, 74
1, 161348, Note_on_c, 0, 55, 76
1, 161359, Control_c, 0, 67, 89
1, 161385, Note_off_c, 0, 55, 63
1, 161412, Note_off_c, 0, 70, 60
1, 161417, Control_c, 0, 67, 89
1, 161436, Note_on_c, 0, 74, 67
1, 161477, Control_c, 0, 67, 88
1, 161493, Note_off_c, 0, 74, 61
1, 161506, Note_on_c, 0, 43, 72
1, 161514, Note_on_c, 0, 72, 63
1, 161590, Note_off_c, 0, 43, 57
1, 161600, Note_on_c, 0, 74, 74
1, 161601, Note_off_c, 0, 72, 58
1, 161669, Note_off_c, 0, 74, 63
1, 161670, Control_c, 0, 67, 89
1, 161689, Note_on_c, 0, 46, 72
1, 161694, Note_on_c, 0, 70, 75
1, 161700, Control_c, 0, 67, 89
1, 161727, Note_off_c, 0, 46, 62
1, 161730, Control_c, 0, 67, 90
1, 161754, Note_off_c, 0, 70, 63
1, 161759, Control_c, 0, 67, 90
1, 161775, Note_on_c, 0, 74, 76
1, 161789, Control_c, 0, 67, 91
1, 161862, Note_on_c, 0, 53, 85
1, 161864, Note_on_c, 0, 68, 83
1, 161864, Note_off_c, 0, 74, 63
1, 161894, Control_c, 0, 67, 90
1, 161909, Control_c, 0, 67, 90
1, 161923, Note_off_c, 0, 53, 65
1, 161923, Control_c, 0, 67, 89
1, 161938, Note_off_c, 0, 68, 61
1, 161938, Control_c, 0, 67, 89
1, 161947, Note_on_c, 0, 74, 83
1, 161953, Control_c, 0, 67, 88
1, 161968, Control_c, 0, 67, 88
1, 161983, Control_c, 0, 67, 87
1, 161997, Control_c, 0, 67, 86
1, 162019, Control_c, 0, 67, 85
1, 162034, Note_off_c, 0, 74, 64
1, 162034, Control_c, 0, 67, 82
1, 162039, Note_on_c, 0, 47, 84
1, 162041, Note_on_c, 0, 67, 87
1, 162049, Control_c, 0, 67, 76
1, 162064, Control_c, 0, 67, 70
1, 162078, Control_c, 0, 67, 64
1, 162085, Note_off_c, 0, 47, 64
1, 162093, Control_c, 0, 67, 59
1, 162099, Note_off_c, 0, 67, 63
1, 162108, Control_c, 0, 67, 52
1, 162123, Control_c, 0, 67, 48
1, 162126, Note_on_c, 0, 74, 86
1, 162138, Control_c, 0, 67, 43
1, 162153, Control_c, 0, 67, 39
1, 162168, Control_c, 0, 67, 36
1, 162183, Control_c, 0, 67, 32
1, 162193, Note_off_c, 0, 74, 63
1, 162197, Control_c, 0, 67, 29
1, 162207, Note_on_c, 0, 65, 84
1, 162209, Note_on_c, 0, 55, 84
1, 162212, Control_c, 0, 67, 26
1, 162227, Control_c, 0, 67, 23
1, 162239, Note_off_c, 0, 55, 65
1, 162241, Control_c, 0, 67, 20
1, 162256, Control_c, 0, 67, 18
1, 162262, Note_off_c, 0, 65, 65
1, 162271, Control_c, 0, 67, 16
1, 162286, Control_c, 0, 67, 15
1, 162288, Note_on_c, 0, 74, 78
1, 162301, Control_c, 0, 67, 13
1, 162315, Control_c, 0, 67, 13
1, 162330, Control_c, 0, 67, 12
1, 162362, Note_on_c, 0, 48, 80
1, 162362, Note_off_c, 0, 74, 59
1, 162379, Note_on_c, 0, 63, 77
1, 162420, Control_c, 0, 64, 11
1, 162446, Note_off_c, 0, 63, 61
1, 162450, Control_c, 0, 64, 14
1, 162463, Note_on_c, 0, 74, 83
1, 162552, Note_on_c, 0, 58, 88
1, 162554, Note_on_c, 0, 63, 80
1, 162567, Control_c, 0, 67, 12
1, 162568, Note_off_c, 0, 74, 64
1, 162597, Control_c, 0, 64, 17
1, 162621, Note_on_c, 0, 74, 75
1, 162624, Note_off_c, 0, 58, 61
1, 162627, Control_c, 0, 64, 19
1, 162628, Note_off_c, 0, 63, 61
1, 162657, Control_c, 0, 64, 21
1, 162671, Control_c, 0, 64, 23
1, 162718, Note_off_c, 0, 74, 58
1, 162722, Note_on_c, 0, 63, 82
1, 162727, Note_on_c, 0, 56, 78
1, 162731, Control_c, 0, 64, 21
1, 162745, Control_c, 0, 64, 19
1, 162760, Control_c, 0, 64, 17
1, 162797, Note_off_c, 0, 56, 60
1, 162810, Note_on_c, 0, 72, 71
1, 162819, Note_off_c, 0, 63, 57
1, 162827, Control_c, 0, 64, 19
1, 162842, Control_c, 0, 64, 27
1, 162856, Control_c, 0, 64, 36
1, 162871, Control_c, 0, 64, 43
1, 162877, Note_off_c, 0, 72, 61
1, 162886, Control_c, 0, 64, 48
1, 162901, Control_c, 0, 64, 52
1, 162904, Note_on_c, 0, 63, 69
1, 162909, Note_on_c, 0, 55, 75
1, 162916, Control_c, 0, 64, 55
1, 162916, Control_c, 0, 67, 12
1, 162926, Note_off_c, 0, 48, 55
1, 162931, Control_c, 0, 64, 56
1, 162931, Control_c, 0, 67, 13
1, 162945, Control_c, 0, 64, 57
1, 162947, Note_off_c, 0, 55, 63
1, 162960, Control_c, 0, 64, 58
1, 162960, Control_c, 0, 67, 13
1, 162976, Note_off_c, 0, 63, 54
1, 162982, Note_on_c, 0, 72, 71
1, 162990, Control_c, 0, 64, 59
1, 163034, Note_off_c, 0, 72, 60
1, 163072, Note_on_c, 0, 54, 62
1, 163077, Note_on_c, 0, 62, 73
1, 163079, Note_on_c, 0, 50, 51
1, 163116, Note_off_c, 0, 54, 62
1, 163132, Note_off_c, 0, 62, 61
1, 163150, Note_on_c, 0, 72, 78
1, 163155, Note_on_c, 0, 57, 62
1, 163167, Control_c, 0, 67, 13
1, 163182, Control_c, 0, 67, 12
1, 163198, Control_c, 0, 67, 10
1, 163213, Note_off_c, 0, 57, 57
1, 163213, Control_c, 0, 67, 8
1, 163228, Control_c, 0, 67, 0
1, 163229, Note_on_c, 0, 70, 74
1, 163240, Note_on_c, 0, 55, 67
1, 163262, Note_off_c, 0, 72, 61
1, 163292, Note_off_c, 0, 50, 63
1, 163308, Note_on_c, 0, 54, 68
1, 163311, Note_off_c, 0, 55, 64
1, 163315, Note_on_c, 0, 69, 76
1, 163317, Note_off_c, 0, 70, 63
1, 163367, Note_off_c, 0, 54, 64
1, 163375, Control_c, 0, 64, 59
1, 163390, Control_c, 0, 64, 60
1, 163391, Note_on_c, 0, 55, 77
1, 163395, Note_on_c, 0, 70, 81
1, 163396, Note_off_c, 0, 69, 61
1, 163405, Control_c, 0, 64, 61
1, 163420, Control_c, 0, 64, 61
1, 163429, Note_off_c, 0, 55, 65
1, 163435, Control_c, 0, 64, 62
1, 163450, Control_c, 0, 64, 62
1, 163465, Note_on_c, 0, 66, 79
1, 163475, Note_off_c, 0, 70, 61
1, 163482, Note_on_c, 0, 45, 69
1, 163485, Note_on_c, 0, 44, 55
1, 163548, Note_on_c, 0, 67, 86
1, 163551, Note_on_c, 0, 46, 84
1, 163576, Note_off_c, 0, 45, 64
1, 163587, Note_off_c, 0, 44, 61
1, 163590, Control_c, 0, 64, 62
1, 163608, Note_off_c, 0, 66, 32
1, 163620, Control_c, 0, 64, 61
1, 163621, Note_on_c, 0, 69, 81
1, 163626, Note_on_c, 0, 48, 85
1, 163634, Control_c, 0, 64, 61
1, 163641, Note_off_c, 0, 46, 59
1, 163641, Note_off_c, 0, 67, 61
1, 163649, Control_c, 0, 64, 59
1, 163664, Control_c, 0, 64, 58
1, 163679, Control_c, 0, 64, 57
1, 163683, Note_off_c, 0, 69, 60
1, 163700, Note_on_c, 0, 50, 92
1, 163714, Note_on_c, 0, 58, 81
1, 163721, Note_off_c, 0, 48, 64
1, 163745, Note_off_c, 0, 50, 67
1, 163768, Control_c, 0, 64, 58
1, 163783, Control_c, 0, 64, 58
1, 163792, Note_on_c, 0, 67, 74
1, 163804, Note_off_c, 0, 58, 61
1, 163813, Control_c, 0, 64, 59
1, 163879, Note_on_c, 0, 48, 86
1, 163884, Note_on_c, 0, 66, 79
1, 163901, Control_c, 0, 64, 58
1, 163910, Note_off_c, 0, 67, 56
1, 163926, Note_off_c, 0, 48, 62
1, 163955, Note_off_c, 0, 66, 61
1, 163962, Note_on_c, 0, 64, 77
1, 164021, Control_c, 0, 64, 54
1, 164036, Control_c, 0, 64, 30
1, 164049, Note_on_c, 0, 50, 91
1, 164051, Control_c, 0, 64, 0
1, 164057, Note_on_c, 0, 66, 80
1, 164073, Note_off_c, 0, 64, 59
1, 164096, Note_off_c, 0, 50, 65
1, 164136, Note_on_c, 0, 67, 68
1, 164147, Note_off_c, 0, 66, 56
1, 164198, Control_c, 0, 64, 21
1, 164213, Note_off_c, 0, 67, 58
1, 164213, Control_c, 0, 64, 29
1, 164224, Note_on_c, 0, 64, 85
1, 164228, Control_c, 0, 64, 36
1, 164232, Note_on_c, 0, 38, 87
1, 164243, Control_c, 0, 64, 41
1, 164264, Note_off_c, 0, 38, 69
1, 164265, Control_c, 0, 64, 45
1, 164280, Control_c, 0, 64, 48
1, 164295, Control_c, 0, 64, 49
1, 164310, Control_c, 0, 64, 50
1, 164312, Note_on_c, 0, 66, 80
1, 164321, Note_off_c, 0, 64, 61
1, 164339, Control_c, 0, 64, 50
1, 164354, Control_c, 0, 64, 51
1, 164385, Note_off_c, 0, 66, 62
1, 164394, Note_on_c, 0, 67, 78
1, 164402, Note_on_c, 0, 43, 90
1, 164442, Control_c, 0, 64, 50
1, 164489, Note_on_c, 0, 63, 81
1, 164565, Note_on_c, 0, 62, 83
1, 164573, Note_on_c, 0, 50, 83
1, 164576, Control_c, 0, 64, 51
1, 164612, Note_off_c, 0, 63, 61
1, 164633, Note_off_c, 0, 50, 65
1, 164637, Note_off_c, 0, 62, 64
1, 164653, Note_on_c, 0, 60, 81
1, 164680, Control_c, 0, 64, 51
1, 164710, Control_c, 0, 64, 49
1, 164724, Control_c, 0, 64, 38
1, 164739, Note_on_c, 0, 58, 93
1, 164739, Control_c, 0, 64, 0
1, 164742, Note_on_c, 0, 55, 91
1, 164767, Note_off_c, 0, 60, 64
1, 164784, Note_off_c, 0, 55, 63
1, 164821, Note_on_c, 0, 60, 81
1, 164842, Note_off_c, 0, 58, 63
1, 164898, Note_off_c, 0, 60, 63
1, 164917, Note_on_c, 0, 57, 86
1, 164927, Note_on_c, 0, 54, 84
1, 164980, Note_off_c, 0, 54, 61
1, 164988, Note_on_c, 0, 60, 83
1, 164996, Note_off_c, 0, 57, 62
1, 165030, Control_c, 0, 64, 23
1, 165044, Control_c, 0, 64, 29
1, 165059, Control_c, 0, 64, 27
1, 165074, Control_c, 0, 64, 0
1, 165090, Note_on_c, 0, 58, 88
1, 165091, Note_on_c, 0, 55, 88
1, 165098, Note_off_c, 0, 60, 57
1, 165099, Note_off_c, 0, 43, 61
1, 165262, Note_on_c, 0, 43, 92
1, 165265, Note_off_c, 0, 58, 66
1, 165274, Note_off_c, 0, 55, 66
1, 165296, Control_c, 0, 64, 76
1, 165304, Note_off_c, 0, 43, 67
1, 165311, Control_c, 0, 64, 96
1, 165326, Control_c, 0, 64, 127
1, 165331, Note_off_c, 0, 67, 39
1, 165517, Note_on_c, 0, 55, 84
1, 165550, Note_on_c, 0, 53, 29
1, 165551, Note_off_c, 0, 53, 127
1, 165587, Poly_aftertouch_c, 0, 53, 0
1, 165623, Control_c, 0, 64, 118
1, 165628, Note_on_c, 0, 81, 89
1, 165638, Control_c, 0, 64, 97
1, 165653, Control_c, 0, 64, 83
1, 165667, Control_c, 0, 64, 74
1, 165682, Control_c, 0, 64, 66
1, 165697, Control_c, 0, 64, 59
1, 165712, Control_c, 0, 64, 55
1, 165728, Note_on_c, 0, 62, 77
1, 165729, Note_on_c, 0, 82, 89
1, 165778, Control_c, 0, 64, 55
1, 165785, Note_off_c, 0, 62, 58
1, 165786, Note_off_c, 0, 81, 63
1, 165815, Note_on_c, 0, 84, 88
1, 165819, Note_off_c, 0, 82, 65
1, 165867, Control_c, 0, 64, 54
1, 165882, Control_c, 0, 64, 51
1, 165897, Control_c, 0, 64, 48
1, 165906, Note_on_c, 0, 82, 93
1, 165912, Control_c, 0, 64, 39
1, 165921, Note_on_c, 0, 63, 83
1, 165927, Control_c, 0, 64, 0
1, 165936, Note_off_c, 0, 84, 64
1, 165995, Note_on_c, 0, 81, 89
1, 166035, Note_off_c, 0, 82, 62
1, 166077, Note_off_c, 0, 81, 65
1, 166085, Note_on_c, 0, 79, 85
1, 166160, Note_on_c, 0, 77, 84
1, 166184, Note_off_c, 0, 79, 60
1, 166198, Note_off_c, 0, 55, 65
1, 166244, Note_on_c, 0, 75, 86
1, 166280, Note_off_c, 0, 77, 61
1, 166319, Note_on_c, 0, 74, 88
1, 166359, Note_off_c, 0, 75, 62
1, 166391, Note_off_c, 0, 74, 67
1, 166403, Note_on_c, 0, 72, 79
1, 166404, Note_on_c, 0, 55, 70
1, 166442, Note_off_c, 0, 72, 66
1, 166446, Note_off_c, 0, 55, 62
1, 166493, Note_on_c, 0, 70, 63
1, 166529, Note_on_c, 0, 71, 50
1, 166544, Note_off_c, 0, 70, 43
1, 166551, Note_off_c, 0, 63, 63
1, 166551, Note_off_c, 0, 71, 61
1, 166577, Note_on_c, 0, 53, 87
1, 166577, Note_on_c, 0, 69, 79
1, 166633, Note_off_c, 0, 69, 62
1, 166671, Note_on_c, 0, 79, 76
1, 166747, Note_on_c, 0, 81, 80
1, 166747, Note_on_c, 0, 60, 80
1, 166772, Note_off_c, 0, 79, 58
1, 166801, Note_off_c, 0, 60, 64
1, 166823, Note_on_c, 0, 82, 84
1, 166827, Note_off_c, 0, 81, 64
1, 166920, Note_on_c, 0, 81, 88
1, 166925, Note_on_c, 0, 62, 77
1, 166952, Note_off_c, 0, 82, 60
1, 167009, Note_on_c, 0, 79, 89
1, 167016, Control_c, 0, 64, 19
1, 167030, Control_c, 0, 64, 26
1, 167036, Note_off_c, 0, 81, 61
1, 167045, Control_c, 0, 64, 29
1, 167060, Control_c, 0, 64, 31
1, 167074, Control_c, 0, 64, 34
1, 167085, Note_off_c, 0, 79, 65
1, 167089, Control_c, 0, 64, 35
1, 167097, Note_on_c, 0, 77, 84
1, 167104, Control_c, 0, 64, 36
1, 167119, Control_c, 0, 64, 36
1, 167134, Control_c, 0, 64, 37
1, 167172, Note_on_c, 0, 75, 85
1, 167174, Note_off_c, 0, 77, 60
1, 167194, Control_c, 0, 64, 36
1, 167209, Control_c, 0, 64, 27
1, 167223, Control_c, 0, 64, 0
1, 167263, Note_on_c, 0, 74, 91
1, 167296, Note_off_c, 0, 75, 64
1, 167306, Note_off_c, 0, 53, 64
1, 167335, Note_off_c, 0, 74, 68
1, 167341, Note_on_c, 0, 72, 82
1, 167401, Note_off_c, 0, 72, 63
1, 167417, Note_on_c, 0, 53, 77
1, 167429, Note_on_c, 0, 70, 79
1, 167464, Note_off_c, 0, 53, 62
1, 167504, Note_on_c, 0, 69, 77
1, 167515, Note_off_c, 0, 70, 59
1, 167563, Note_off_c, 0, 69, 62
1, 167575, Note_off_c, 0, 62, 62
1, 167583, Note_on_c, 0, 67, 79
1, 167590, Note_on_c, 0, 51, 82
1, 167635, Note_off_c, 0, 67, 61
1, 167674, Note_on_c, 0, 78, 79
1, 167758, Note_on_c, 0, 79, 80
1, 167765, Note_on_c, 0, 58, 77
1, 167789, Note_off_c, 0, 78, 61
1, 167808, Note_off_c, 0, 58, 57
1, 167840, Note_off_c, 0, 79, 62
1, 167843, Note_on_c, 0, 81, 77
1, 167933, Note_on_c, 0, 60, 79
1, 167939, Note_on_c, 0, 79, 78
1, 167971, Note_off_c, 0, 81, 62
1, 168026, Note_on_c, 0, 77, 80
1, 168071, Note_off_c, 0, 79, 60
1, 168106, Note_on_c, 0, 75, 85
1, 168135, Note_off_c, 0, 77, 62
1, 168177, Note_off_c, 0, 75, 65
1, 168186, Note_on_c, 0, 74, 87
1, 168234, Note_off_c, 0, 74, 67
1, 168270, Note_on_c, 0, 72, 82
1, 168295, Note_off_c, 0, 51, 63
1, 168343, Note_on_c, 0, 70, 79
1, 168377, Note_off_c, 0, 72, 62
1, 168422, Note_on_c, 0, 69, 78
1, 168425, Note_on_c, 0, 51, 73
1, 168438, Note_off_c, 0, 70, 61
1, 168471, Note_off_c, 0, 51, 60
1, 168480, Note_off_c, 0, 69, 63
1, 168502, Note_on_c, 0, 67, 67
1, 168542, Note_off_c, 0, 67, 62
1, 168562, Note_off_c, 0, 60, 63
1, 168592, Note_on_c, 0, 50, 71
1, 168598, Note_on_c, 0, 66, 65
1, 168629, Note_off_c, 0, 66, 64
1, 168693, Note_on_c, 0, 72, 68
1, 168774, Note_on_c, 0, 74, 78
1, 168777, Note_off_c, 0, 72, 62
1, 168777, Note_on_c, 0, 55, 69
1, 168804, Note_off_c, 0, 55, 63
1, 168839, Note_off_c, 0, 74, 65
1, 168852, Note_on_c, 0, 75, 71
1, 168937, Note_on_c, 0, 54, 73
1, 168944, Note_on_c, 0, 74, 76
1, 168945, Note_off_c, 0, 75, 55
1, 168999, Note_off_c, 0, 74, 65
1, 169015, Note_on_c, 0, 72, 72
1, 169060, Note_off_c, 0, 72, 60
1, 169099, Note_on_c, 0, 71, 75
1, 169165, Note_off_c, 0, 71, 63
1, 169174, Note_on_c, 0, 72, 71
1, 169220, Note_off_c, 0, 72, 60
1, 169247, Note_on_c, 0, 81, 78
1, 169248, Note_off_c, 0, 54, 64
1, 169316, Note_off_c, 0, 81, 59
1, 169334, Note_on_c, 0, 72, 74
1, 169413, Note_on_c, 0, 74, 75
1, 169414, Note_off_c, 0, 72, 62
1, 169417, Note_on_c, 0, 54, 62
1, 169475, Note_off_c, 0, 74, 65
1, 169477, Note_off_c, 0, 54, 54
1, 169493, Note_on_c, 0, 69, 67
1, 169539, Note_off_c, 0, 69, 61
1, 169581, Note_off_c, 0, 50, 63
1, 169583, Note_on_c, 0, 55, 60
1, 169585, Note_on_c, 0, 70, 69
1, 169639, Note_off_c, 0, 70, 64
1, 169663, Note_on_c, 0, 67, 66
1, 169744, Note_on_c, 0, 70, 77
1, 169758, Note_off_c, 0, 67, 51
1, 169825, Note_on_c, 0, 74, 81
1, 169844, Note_off_c, 0, 70, 60
1, 169891, Note_on_c, 0, 46, 71
1, 169895, Note_off_c, 0, 74, 65
1, 169902, Note_on_c, 0, 79, 81
1, 169983, Note_on_c, 0, 74, 84
1, 170004, Note_off_c, 0, 79, 58
1, 170053, Note_off_c, 0, 74, 65
1, 170059, Note_on_c, 0, 70, 85
1, 170138, Note_on_c, 0, 74, 86
1, 170144, Note_off_c, 0, 70, 65
1, 170159, Note_off_c, 0, 55, 63
1, 170199, Note_off_c, 0, 46, 62
1, 170205, Note_off_c, 0, 74, 64
1, 170218, Note_on_c, 0, 67, 81
1, 170285, Note_off_c, 0, 67, 58
1, 170296, Note_on_c, 0, 74, 87
1, 170350, Note_off_c, 0, 74, 66
1, 170365, Note_on_c, 0, 46, 71
1, 170371, Note_on_c, 0, 72, 75
1, 170390, Note_off_c, 0, 46, 65
1, 170452, Note_off_c, 0, 72, 63
1, 170455, Note_on_c, 0, 74, 76
1, 170530, Note_off_c, 0, 74, 61
1, 170532, Note_on_c, 0, 75, 68
1, 170544, Note_on_c, 0, 48, 57
1, 170583, Note_off_c, 0, 75, 60
1, 170625, Note_on_c, 0, 67, 59
1, 170672, Note_off_c, 0, 67, 56
1, 170702, Note_on_c, 0, 55, 61
1, 170710, Note_on_c, 0, 66, 60
1, 170716, Note_off_c, 0, 48, 61
1, 170728, Note_off_c, 0, 55, 66
1, 170741, Note_off_c, 0, 66, 65
1, 170787, Note_on_c, 0, 67, 62
1, 170826, Note_off_c, 0, 67, 60
1, 170867, Note_on_c, 0, 50, 59
1, 170867, Note_on_c, 0, 74, 74
1, 170941, Note_off_c, 0, 74, 61
1, 170953, Note_on_c, 0, 67, 69
1, 171011, Note_off_c, 0, 67, 61
1, 171031, Note_on_c, 0, 55, 65
1, 171055, Note_on_c, 0, 66, 61
1, 171062, Note_off_c, 0, 55, 64
1, 171069, Note_off_c, 0, 50, 64
1, 171087, Note_off_c, 0, 66, 64
1, 171115, Note_on_c, 0, 67, 75
1, 171165, Note_off_c, 0, 67, 60
1, 171194, Note_on_c, 0, 72, 73
1, 171194, Note_on_c, 0, 51, 72
1, 171272, Note_on_c, 0, 67, 67
1, 171301, Note_off_c, 0, 72, 55
1, 171315, Note_off_c, 0, 67, 58
1, 171360, Note_on_c, 0, 66, 53
1, 171374, Note_on_c, 0, 55, 63
1, 171382, Note_off_c, 0, 51, 60
1, 171393, Note_off_c, 0, 66, 64
1, 171400, Note_off_c, 0, 55, 66
1, 171429, Note_on_c, 0, 67, 63
1, 171477, Note_off_c, 0, 67, 56
1, 171516, Note_on_c, 0, 70, 65
1, 171525, Note_on_c, 0, 50, 69
1, 171585, Note_off_c, 0, 70, 62
1, 171592, Note_on_c, 0, 67, 70
1, 171677, Note_off_c, 0, 67, 60
1, 171684, Note_on_c, 0, 55, 64
1, 171692, Note_on_c, 0, 66, 69
1, 171711, Note_off_c, 0, 55, 65
1, 171722, Note_off_c, 0, 50, 64
1, 171763, Note_off_c, 0, 66, 60
1, 171774, Note_on_c, 0, 67, 63
1, 171829, Note_off_c, 0, 67, 60
1, 171847, Note_on_c, 0, 69, 64
1, 171861, Note_on_c, 0, 48, 70
1, 171924, Note_on_c, 0, 67, 63
1, 171935, Note_off_c, 0, 69, 50
1, 171995, Note_off_c, 0, 67, 62
1, 172005, Note_on_c, 0, 66, 62
1, 172023, Note_on_c, 0, 55, 68
1, 172047, Note_off_c, 0, 66, 56
1, 172051, Note_off_c, 0, 55, 64
1, 172059, Note_off_c, 0, 48, 58
1, 172099, Note_on_c, 0, 67, 66
1, 172140, Note_off_c, 0, 67, 58
1, 172171, Note_on_c, 0, 62, 71
1, 172185, Note_on_c, 0, 54, 78
1, 172234, Note_off_c, 0, 62, 58
1, 172254, Note_on_c, 0, 69, 78
1, 172321, Note_off_c, 0, 69, 61
1, 172327, Note_on_c, 0, 74, 81
1, 172336, Note_off_c, 0, 54, 65
1, 172336, Note_on_c, 0, 50, 75
1, 172361, Note_off_c, 0, 50, 69
1, 172410, Note_on_c, 0, 72, 69
1, 172451, Note_off_c, 0, 74, 61
1, 172479, Note_off_c, 0, 72, 63
1, 172480, Note_on_c, 0, 70, 68
1, 172493, Note_on_c, 0, 55, 86
1, 172536, Note_off_c, 0, 70, 64
1, 172562, Note_on_c, 0, 67, 69
1, 172610, Note_off_c, 0, 67, 59
1, 172617, Note_off_c, 0, 55, 65
1, 172646, Note_on_c, 0, 69, 61
1, 172718, Note_off_c, 0, 69, 62
1, 172721, Note_on_c, 0, 66, 69
1, 172804, Note_off_c, 0, 66, 61
1, 172810, Note_on_c, 0, 67, 66
1, 172818, Note_on_c, 0, 43, 83
1, 172844, Note_off_c, 0, 67, 62
1, 172882, Note_on_c, 0, 62, 64
1, 172937, Note_off_c, 0, 62, 64
1, 172964, Note_on_c, 0, 63, 72
1, 172970, Note_off_c, 0, 43, 65
1, 173031, Note_off_c, 0, 63, 61
1, 173041, Note_on_c, 0, 60, 77
1, 173118, Note_on_c, 0, 62, 83
1, 173127, Note_off_c, 0, 60, 63
1, 173188, Note_off_c, 0, 62, 61
1, 173198, Note_on_c, 0, 57, 80
1, 173239, Note_off_c, 0, 57, 65
1, 173284, Note_on_c, 0, 58, 81
1, 173360, Note_on_c, 0, 54, 84
1, 173373, Note_off_c, 0, 58, 64
1, 173402, Note_off_c, 0, 54, 66
1, 173448, Note_on_c, 0, 67, 85
1, 173527, Note_on_c, 0, 70, 76
1, 173546, Note_off_c, 0, 67, 58
1, 173581, Note_off_c, 0, 70, 62
1, 173612, Note_on_c, 0, 74, 70
1, 173620, Note_on_c, 0, 50, 64
1, 173626, Note_on_c, 0, 62, 52
1, 173644, Note_off_c, 0, 50, 64
1, 173651, Note_off_c, 0, 62, 57
1, 173688, Note_off_c, 0, 74, 61
1, 173692, Note_on_c, 0, 70, 66
1, 173752, Note_off_c, 0, 70, 62
1, 173775, Note_on_c, 0, 58, 90
1, 173777, Note_on_c, 0, 46, 84
1, 173779, Note_on_c, 0, 67, 58
1, 173799, Note_off_c, 0, 58, 67
1, 173805, Note_off_c, 0, 46, 67
1, 173849, Note_off_c, 0, 67, 37
1, 173861, Note_on_c, 0, 70, 62
1, 173898, Note_off_c, 0, 70, 59
1, 173934, Note_on_c, 0, 74, 65
1, 173942, Note_on_c, 0, 43, 90
1, 173944, Note_on_c, 0, 55, 82
1, 173966, Note_off_c, 0, 55, 70
1, 173967, Note_off_c, 0, 43, 67
1, 174011, Note_off_c, 0, 74, 61
1, 174015, Note_on_c, 0, 70, 70
1, 174086, Note_off_c, 0, 70, 60
1, 174111, Note_on_c, 0, 67, 71
1, 174119, Note_on_c, 0, 39, 85
1, 174119, Note_on_c, 0, 51, 87
1, 174142, Note_off_c, 0, 51, 72
1, 174157, Note_off_c, 0, 39, 59
1, 174171, Note_off_c, 0, 67, 50
1, 174195, Note_on_c, 0, 72, 74
1, 174251, Note_off_c, 0, 72, 62
1, 174275, Note_on_c, 0, 75, 73
1, 174279, Note_on_c, 0, 48, 95
1, 174280, Note_on_c, 0, 36, 90
1, 174298, Note_off_c, 0, 48, 71
1, 174303, Note_off_c, 0, 36, 66
1, 174346, Note_off_c, 0, 75, 59
1, 174356, Note_on_c, 0, 72, 76
1, 174431, Note_off_c, 0, 72, 64
1, 174443, Note_on_c, 0, 69, 78
1, 174503, Note_off_c, 0, 69, 57
1, 174523, Note_on_c, 0, 72, 71
1, 174577, Note_off_c, 0, 72, 61
1, 174603, Note_on_c, 0, 75, 67
1, 174604, Note_on_c, 0, 48, 91
1, 174606, Note_on_c, 0, 60, 81
1, 174626, Note_off_c, 0, 60, 72
1, 174628, Note_off_c, 0, 48, 70
1, 174673, Note_off_c, 0, 75, 55
1, 174696, Note_on_c, 0, 72, 58
1, 174759, Note_off_c, 0, 72, 61
1, 174780, Note_on_c, 0, 65, 72
1, 174783, Note_on_c, 0, 57, 88
1, 174784, Note_on_c, 0, 45, 90
1, 174803, Note_off_c, 0, 57, 70
1, 174807, Note_off_c, 0, 45, 71
1, 174837, Note_off_c, 0, 65, 50
1, 174869, Note_on_c, 0, 72, 69
1, 174929, Note_off_c, 0, 72, 61
1, 174944, Note_on_c, 0, 75, 65
1, 174959, Note_on_c, 0, 53, 91
1, 174959, Note_on_c, 0, 41, 89
1, 174980, Note_off_c, 0, 53, 73
1, 174985, Note_off_c, 0, 41, 65
1, 174990, Note_on_c, 0, 43, 37
1, 174991, Note_off_c, 0, 43, 127
1, 175013, Note_off_c, 0, 75, 61
1, 175022, Note_on_c, 0, 72, 66
1, 175078, Note_off_c, 0, 72, 62
1, 175110, Note_on_c, 0, 65, 74
1, 175118, Note_on_c, 0, 50, 93
1, 175122, Note_on_c, 0, 38, 94
1, 175139, Note_off_c, 0, 50, 74
1, 175144, Note_off_c, 0, 38, 72
1, 175179, Note_off_c, 0, 65, 56
1, 175190, Note_on_c, 0, 70, 72
1, 175265, Note_off_c, 0, 70, 61
1, 175284, Note_on_c, 0, 74, 72
1, 175286, Note_on_c, 0, 34, 89
1, 175286, Note_on_c, 0, 46, 94
1, 175308, Note_off_c, 0, 46, 71
1, 175312, Note_off_c, 0, 34, 67
1, 175346, Note_off_c, 0, 74, 61
1, 175371, Note_on_c, 0, 70, 78
1, 175432, Note_off_c, 0, 70, 64
1, 175453, Note_on_c, 0, 67, 84
1, 175540, Note_on_c, 0, 70, 79
1, 175552, Note_off_c, 0, 67, 57
1, 175589, Note_off_c, 0, 70, 63
1, 175618, Note_on_c, 0, 46, 85
1, 175621, Note_on_c, 0, 58, 84
1, 175621, Note_on_c, 0, 74, 70
1, 175641, Note_off_c, 0, 58, 71
1, 175644, Note_off_c, 0, 46, 67
1, 175679, Note_off_c, 0, 74, 61
1, 175692, Note_on_c, 0, 70, 73
1, 175743, Note_off_c, 0, 70, 62
1, 175784, Note_on_c, 0, 55, 86
1, 175785, Note_on_c, 0, 43, 89
1, 175794, Note_on_c, 0, 63, 72
1, 175804, Note_off_c, 0, 55, 71
1, 175808, Note_off_c, 0, 43, 69
1, 175865, Note_on_c, 0, 70, 66
1, 175871, Note_off_c, 0, 63, 60
1, 175916, Note_off_c, 0, 70, 61
1, 175942, Note_on_c, 0, 74, 71
1, 175950, Note_on_c, 0, 39, 78
1, 175954, Note_on_c, 0, 51, 82
1, 175976, Note_off_c, 0, 51, 68
1, 175984, Note_off_c, 0, 39, 62
1, 176026, Note_off_c, 0, 74, 63
1, 176030, Note_on_c, 0, 70, 69
1, 176094, Note_off_c, 0, 70, 62
1, 176122, Note_on_c, 0, 63, 69
1, 176130, Note_on_c, 0, 48, 66
1, 176133, Note_on_c, 0, 35, 67
1, 176134, Note_on_c, 0, 47, 63
1, 176142, Note_on_c, 0, 36, 54
1, 176152, Note_off_c, 0, 48, 60
1, 176157, Note_off_c, 0, 47, 63
1, 176157, Note_off_c, 0, 35, 63
1, 176173, Note_off_c, 0, 36, 53
1, 176200, Note_on_c, 0, 69, 69
1, 176202, Note_off_c, 0, 63, 58
1, 176276, Note_off_c, 0, 69, 63
1, 176292, Note_on_c, 0, 33, 84
1, 176292, Note_on_c, 0, 45, 88
1, 176295, Note_on_c, 0, 72, 66
1, 176313, Note_off_c, 0, 45, 67
1, 176317, Note_off_c, 0, 33, 63
1, 176365, Note_off_c, 0, 72, 62
1, 176378, Note_on_c, 0, 69, 70
1, 176442, Note_off_c, 0, 69, 60
1, 176461, Note_on_c, 0, 66, 76
1, 176535, Note_on_c, 0, 69, 63
1, 176536, Note_off_c, 0, 66, 61
1, 176592, Note_off_c, 0, 69, 60
1, 176604, Note_on_c, 0, 72, 67
1, 176613, Note_on_c, 0, 45, 88
1, 176616, Note_on_c, 0, 57, 80
1, 176637, Note_off_c, 0, 57, 69
1, 176639, Note_off_c, 0, 45, 70
1, 176685, Note_off_c, 0, 72, 61
1, 176700, Note_on_c, 0, 69, 67
1, 176756, Note_off_c, 0, 69, 60
1, 176786, Note_on_c, 0, 42, 85
1, 176786, Note_on_c, 0, 54, 87
1, 176789, Note_on_c, 0, 62, 67
1, 176813, Note_off_c, 0, 54, 67
1, 176828, Note_off_c, 0, 42, 62
1, 176851, Note_off_c, 0, 62, 59
1, 176873, Note_on_c, 0, 69, 69
1, 176923, Note_off_c, 0, 69, 58
1, 176950, Note_on_c, 0, 72, 64
1, 176953, Note_on_c, 0, 38, 90
1, 176954, Note_on_c, 0, 50, 84
1, 176977, Note_off_c, 0, 50, 69
1, 176979, Note_off_c, 0, 38, 67
1, 177003, Note_off_c, 0, 72, 60
1, 177036, Note_on_c, 0, 69, 77
1, 177071, Note_off_c, 0, 69, 60
1, 177126, Note_on_c, 0, 34, 87
1, 177126, Note_on_c, 0, 46, 90
1, 177137, Note_on_c, 0, 67, 79
1, 177151, Note_off_c, 0, 46, 68
1, 177174, Note_off_c, 0, 34, 57
1, 177212, Note_off_c, 0, 67, 60
1, 177220, Note_on_c, 0, 74, 78
1, 177269, Note_off_c, 0, 74, 63
1, 177286, Note_on_c, 0, 43, 91
1, 177289, Note_on_c, 0, 31, 84
1, 177290, Note_on_c, 0, 79, 74
1, 177309, Note_off_c, 0, 43, 69
1, 177315, Note_off_c, 0, 31, 62
1, 177335, Note_off_c, 0, 79, 55
1, 177369, Note_on_c, 0, 74, 73
1, 177386, Note_off_c, 0, 74, 69
1, 177463, Note_on_c, 0, 75, 74
1, 177521, Note_off_c, 0, 75, 61
1, 177534, Note_on_c, 0, 79, 70
1, 177594, Note_off_c, 0, 79, 61
1, 177606, Note_on_c, 0, 84, 65
1, 177614, Note_on_c, 0, 55, 80
1, 177624, Note_on_c, 0, 67, 54
1, 177636, Note_off_c, 0, 55, 68
1, 177647, Note_off_c, 0, 67, 59
1, 177685, Note_off_c, 0, 84, 59
1, 177689, Note_on_c, 0, 79, 69
1, 177732, Note_off_c, 0, 79, 62
1, 177784, Note_on_c, 0, 63, 79
1, 177787, Note_on_c, 0, 51, 74
1, 177794, Note_on_c, 0, 72, 46
1, 177805, Note_off_c, 0, 63, 69
1, 177814, Note_off_c, 0, 51, 66
1, 177844, Note_off_c, 0, 72, 58
1, 177861, Note_on_c, 0, 75, 70
1, 177921, Note_off_c, 0, 75, 61
1, 177941, Note_on_c, 0, 79, 70
1, 177950, Note_on_c, 0, 48, 95
1, 177951, Note_on_c, 0, 60, 86
1, 177972, Note_off_c, 0, 60, 72
1, 177975, Note_off_c, 0, 48, 70
1, 178017, Note_off_c, 0, 79, 60
1, 178020, Note_on_c, 0, 75, 78
1, 178083, Note_off_c, 0, 75, 64
1, 178104, Note_on_c, 0, 72, 75
1, 178113, Note_on_c, 0, 45, 99
1, 178114, Note_on_c, 0, 57, 90
1, 178135, Note_off_c, 0, 57, 68
1, 178138, Note_off_c, 0, 45, 69
1, 178184, Note_on_c, 0, 75, 79
1, 178208, Note_off_c, 0, 72, 59
1, 178251, Note_off_c, 0, 75, 61
1, 178271, Note_on_c, 0, 81, 72
1, 178277, Note_on_c, 0, 54, 92
1, 178277, Note_on_c, 0, 42, 85
1, 178296, Note_off_c, 0, 54, 74
1, 178310, Note_off_c, 0, 42, 61
1, 178353, Note_on_c, 0, 75, 73
1, 178407, Note_off_c, 0, 75, 63
1, 178425, Note_on_c, 0, 72, 77
1, 178430, Note_on_c, 0, 38, 91
1, 178430, Note_on_c, 0, 50, 95
1, 178438, Note_off_c, 0, 81, 42
1, 178453, Note_off_c, 0, 50, 73
1, 178453, Note_off_c, 0, 38, 70
1, 178516, Note_on_c, 0, 74, 81
1, 178520, Note_off_c, 0, 72, 62
1, 178575, Note_off_c, 0, 74, 66
1, 178593, Note_on_c, 0, 78, 73
1, 178616, Note_on_c, 0, 69, 91
1, 178617, Note_on_c, 0, 57, 87
1, 178643, Note_on_c, 0, 59, 56
1, 178644, Note_off_c, 0, 59, 127
1, 178644, Note_off_c, 0, 69, 61
1, 178652, Note_off_c, 0, 57, 62
1, 178667, Note_off_c, 0, 78, 61
1, 178673, Note_on_c, 0, 74, 80
1, 178740, Note_off_c, 0, 74, 64
1, 178763, Note_on_c, 0, 72, 71
1, 178771, Note_on_c, 0, 54, 92
1, 178771, Note_on_c, 0, 66, 99
1, 178801, Note_off_c, 0, 66, 61
1, 178817, Note_off_c, 0, 54, 64
1, 178829, Note_off_c, 0, 72, 64
1, 178843, Note_on_c, 0, 74, 66
1, 178903, Note_off_c, 0, 74, 63
1, 178925, Note_on_c, 0, 78, 64
1, 178941, Note_on_c, 0, 50, 90
1, 178941, Note_on_c, 0, 62, 82
1, 178964, Note_off_c, 0, 50, 72
1, 178965, Note_off_c, 0, 62, 68
1, 178989, Note_off_c, 0, 78, 50
1, 179016, Note_on_c, 0, 74, 71
1, 179078, Note_off_c, 0, 74, 63
1, 179099, Note_on_c, 0, 67, 69
1, 179102, Note_on_c, 0, 58, 93
1, 179102, Note_on_c, 0, 46, 87
1, 179123, Note_off_c, 0, 58, 69
1, 179138, Note_off_c, 0, 46, 56
1, 179189, Note_off_c, 0, 67, 57
1, 179190, Note_on_c, 0, 74, 77
1, 179251, Note_off_c, 0, 74, 62
1, 179268, Note_on_c, 0, 43, 86
1, 179271, Note_on_c, 0, 55, 86
1, 179274, Note_on_c, 0, 79, 69
1, 179293, Note_off_c, 0, 55, 69
1, 179295, Note_off_c, 0, 43, 66
1, 179350, Note_on_c, 0, 74, 78
1, 179365, Note_off_c, 0, 79, 53
1, 179408, Note_off_c, 0, 74, 67
1, 179432, Note_on_c, 0, 67, 74
1, 179436, Note_on_c, 0, 51, 92
1, 179436, Note_on_c, 0, 63, 96
1, 179463, Note_off_c, 0, 63, 62
1, 179477, Note_off_c, 0, 51, 60
1, 179515, Note_on_c, 0, 72, 74
1, 179520, Note_off_c, 0, 67, 58
1, 179580, Note_off_c, 0, 72, 63
1, 179594, Note_on_c, 0, 75, 69
1, 179607, Note_on_c, 0, 48, 78
1, 179609, Note_on_c, 0, 60, 82
1, 179632, Note_off_c, 0, 60, 70
1, 179636, Note_off_c, 0, 48, 65
1, 179685, Note_on_c, 0, 72, 70
1, 179694, Note_off_c, 0, 75, 52
1, 179755, Note_off_c, 0, 72, 63
1, 179776, Note_on_c, 0, 67, 68
1, 179779, Note_on_c, 0, 50, 88
1, 179780, Note_on_c, 0, 62, 82
1, 179802, Note_off_c, 0, 62, 69
1, 179806, Note_off_c, 0, 50, 69
1, 179848, Note_off_c, 0, 67, 40
1, 179857, Note_on_c, 0, 69, 69
1, 179918, Note_off_c, 0, 69, 51
1, 179940, Note_on_c, 0, 74, 67
1, 179946, Note_on_c, 0, 48, 83
1, 179949, Note_on_c, 0, 60, 76
1, 179972, Note_off_c, 0, 60, 70
1, 179973, Note_off_c, 0, 48, 67
1, 180032, Note_on_c, 0, 69, 64
1, 180068, Note_off_c, 0, 74, 55
1, 180081, Note_off_c, 0, 69, 62
1, 180109, Note_on_c, 0, 66, 71
1, 180113, Note_on_c, 0, 50, 90
1, 180116, Note_on_c, 0, 62, 76
1, 180124, Control_c, 0, 64, 64
1, 180133, Note_off_c, 0, 62, 67
1, 180137, Note_off_c, 0, 50, 71
1, 180138, Control_c, 0, 64, 66
1, 180153, Control_c, 0, 64, 63
1, 180168, Control_c, 0, 64, 62
1, 180174, Note_off_c, 0, 66, 60
1, 180188, Note_on_c, 0, 69, 73
1, 180276, Note_on_c, 0, 74, 70
1, 180277, Note_off_c, 0, 69, 57
1, 180283, Note_on_c, 0, 38, 75
1, 180288, Note_on_c, 0, 50, 72
1, 180298, Note_on_c, 0, 36, 48
1, 180299, Note_off_c, 0, 36, 127
1, 180308, Note_off_c, 0, 38, 64
1, 180317, Note_off_c, 0, 50, 65
1, 180363, Note_on_c, 0, 72, 66
1, 180375, Control_c, 0, 64, 63
1, 180390, Control_c, 0, 64, 63
1, 180423, Note_off_c, 0, 74, 60
1, 180432, Note_off_c, 0, 72, 63
1, 180462, Note_on_c, 0, 43, 89
1, 180464, Note_on_c, 0, 55, 86
1, 180464, Note_on_c, 0, 70, 82
1, 180494, Control_c, 0, 64, 63
1, 180509, Control_c, 0, 64, 62
1, 180523, Control_c, 0, 64, 61
1, 180538, Control_c, 0, 64, 60
1, 180543, Note_on_c, 0, 74, 81
1, 180553, Control_c, 0, 64, 58
1, 180559, Note_off_c, 0, 70, 63
1, 180568, Control_c, 0, 64, 54
1, 180583, Control_c, 0, 64, 48
1, 180597, Control_c, 0, 64, 44
1, 180612, Control_c, 0, 64, 43
1, 180614, Note_off_c, 0, 74, 64
1, 180627, Control_c, 0, 64, 41
1, 180629, Note_on_c, 0, 79, 84
1, 180686, Control_c, 0, 64, 42
1, 180701, Control_c, 0, 64, 43
1, 180705, Note_on_c, 0, 74, 88
1, 180715, Control_c, 0, 64, 44
1, 180743, Note_off_c, 0, 79, 59
1, 180769, Control_c, 0, 64, 43
1, 180769, Note_off_c, 0, 43, 64
1, 180784, Control_c, 0, 64, 38
1, 180787, Note_off_c, 0, 74, 64
1, 180791, Note_off_c, 0, 55, 65
1, 180792, Note_on_c, 0, 70, 92
1, 180798, Control_c, 0, 64, 31
1, 180813, Control_c, 0, 64, 26
1, 180828, Control_c, 0, 64, 23
1, 180858, Control_c, 0, 64, 24
1, 180870, Note_on_c, 0, 74, 89
1, 180873, Control_c, 0, 64, 29
1, 180878, Note_off_c, 0, 70, 64
1, 180887, Control_c, 0, 64, 33
1, 180902, Control_c, 0, 64, 36
1, 180917, Control_c, 0, 64, 38
1, 180932, Control_c, 0, 64, 40
1, 180934, Note_off_c, 0, 74, 66
1, 180939, Note_on_c, 0, 67, 80
1, 180946, Control_c, 0, 64, 40
1, 180961, Control_c, 0, 64, 41
1, 180976, Control_c, 0, 64, 42
1, 180991, Control_c, 0, 64, 42
1, 181006, Control_c, 0, 64, 44
1, 181015, Note_on_c, 0, 70, 86
1, 181020, Control_c, 0, 64, 45
1, 181035, Control_c, 0, 64, 46
1, 181036, Note_off_c, 0, 67, 61
1, 181050, Control_c, 0, 64, 47
1, 181065, Control_c, 0, 64, 47
1, 181079, Note_on_c, 0, 62, 79
1, 181100, Note_off_c, 0, 70, 64
1, 181124, Control_c, 0, 64, 48
1, 181138, Control_c, 0, 64, 48
1, 181145, Note_off_c, 0, 62, 60
1, 181153, Control_c, 0, 64, 50
1, 181156, Note_on_c, 0, 67, 84
1, 181168, Control_c, 0, 64, 51
1, 181183, Control_c, 0, 64, 52
1, 181198, Control_c, 0, 64, 53
1, 181213, Control_c, 0, 64, 53
1, 181226, Note_on_c, 0, 58, 78
1, 181228, Control_c, 0, 64, 54
1, 181235, Note_off_c, 0, 67, 59
1, 181243, Control_c, 0, 64, 56
1, 181258, Control_c, 0, 64, 57
1, 181272, Control_c, 0, 64, 59
1, 181284, Note_on_c, 0, 62, 77
1, 181287, Control_c, 0, 64, 60
1, 181299, Note_off_c, 0, 58, 64
1, 181302, Control_c, 0, 64, 61
1, 181317, Control_c, 0, 64, 61
1, 181326, Note_off_c, 0, 62, 61
1, 181332, Control_c, 0, 64, 62
1, 181404, Note_on_c, 0, 81, 93
1, 181416, Note_on_c, 0, 55, 68
1, 181420, Control_c, 0, 64, 61
1, 181435, Control_c, 0, 64, 59
1, 181450, Control_c, 0, 64, 57
1, 181495, Note_on_c, 0, 82, 84
1, 181496, Note_off_c, 0, 81, 64
1, 181532, Control_c, 0, 64, 58
1, 181546, Control_c, 0, 64, 58
1, 181556, Note_off_c, 0, 55, 64
1, 181568, Note_on_c, 0, 62, 59
1, 181577, Control_c, 0, 64, 59
1, 181603, Note_off_c, 0, 62, 60
1, 181621, Control_c, 0, 64, 59
1, 181662, Note_on_c, 0, 55, 66
1, 181702, Note_off_c, 0, 55, 64
1, 181739, Note_on_c, 0, 62, 52
1, 181764, Note_off_c, 0, 62, 61
1, 181769, Control_c, 0, 64, 59
1, 181812, Note_on_c, 0, 55, 70
1, 181829, Control_c, 0, 64, 58
1, 181871, Note_off_c, 0, 55, 63
1, 181873, Control_c, 0, 64, 58
1, 181895, Note_on_c, 0, 63, 70
1, 181903, Control_c, 0, 64, 57
1, 181932, Control_c, 0, 64, 57
1, 181949, Note_off_c, 0, 63, 48
1, 181972, Note_on_c, 0, 70, 85
1, 181974, Note_on_c, 0, 55, 67
1, 181999, Note_off_c, 0, 82, 62
1, 182033, Note_off_c, 0, 55, 54
1, 182059, Note_on_c, 0, 63, 61
1, 182065, Control_c, 0, 64, 56
1, 182080, Control_c, 0, 64, 49
1, 182095, Control_c, 0, 64, 0
1, 182116, Note_off_c, 0, 63, 52
1, 182134, Note_on_c, 0, 75, 89
1, 182142, Note_on_c, 0, 55, 69
1, 182182, Note_off_c, 0, 55, 62
1, 182184, Control_c, 0, 64, 27
1, 182199, Control_c, 0, 64, 62
1, 182214, Control_c, 0, 64, 67
1, 182217, Note_on_c, 0, 63, 66
1, 182235, Control_c, 0, 64, 70
1, 182250, Note_off_c, 0, 70, 53
1, 182250, Control_c, 0, 64, 71
1, 182265, Control_c, 0, 64, 73
1, 182273, Note_off_c, 0, 63, 57
1, 182280, Control_c, 0, 64, 75
1, 182292, Note_on_c, 0, 55, 66
1, 182294, Note_on_c, 0, 82, 89
1, 182295, Control_c, 0, 64, 77
1, 182310, Note_off_c, 0, 75, 64
1, 182310, Control_c, 0, 64, 79
1, 182325, Control_c, 0, 64, 81
1, 182325, Note_off_c, 0, 55, 66
1, 182340, Control_c, 0, 64, 82
1, 182347, Note_off_c, 0, 82, 67
1, 182355, Control_c, 0, 64, 83
1, 182367, Note_on_c, 0, 63, 71
1, 182370, Control_c, 0, 64, 83
1, 182399, Control_c, 0, 64, 83
1, 182414, Control_c, 0, 64, 77
1, 182429, Control_c, 0, 64, 66
1, 182431, Note_off_c, 0, 63, 60
1, 182444, Control_c, 0, 64, 0
1, 182451, Note_on_c, 0, 54, 74
1, 182456, Note_on_c, 0, 81, 81
1, 182473, Note_on_c, 0, 79, 63
1, 182493, Note_off_c, 0, 79, 39
1, 182494, Note_off_c, 0, 54, 60
1, 182514, Note_on_c, 0, 63, 68
1, 182533, Control_c, 0, 64, 27
1, 182548, Control_c, 0, 64, 64
1, 182563, Control_c, 0, 64, 71
1, 182576, Note_off_c, 0, 63, 61
1, 182578, Control_c, 0, 64, 78
1, 182592, Control_c, 0, 64, 83
1, 182600, Note_on_c, 0, 54, 73
1, 182607, Control_c, 0, 64, 86
1, 182611, Note_on_c, 0, 72, 89
1, 182617, Note_off_c, 0, 81, 63
1, 182622, Control_c, 0, 64, 88
1, 182637, Control_c, 0, 64, 89
1, 182649, Note_off_c, 0, 72, 65
1, 182652, Control_c, 0, 64, 90
1, 182662, Note_off_c, 0, 54, 64
1, 182666, Control_c, 0, 64, 90
1, 182672, Note_on_c, 0, 63, 64
1, 182681, Control_c, 0, 64, 91
1, 182696, Control_c, 0, 64, 93
1, 182698, Note_off_c, 0, 63, 65
1, 182710, Control_c, 0, 64, 95
1, 182725, Control_c, 0, 64, 96
1, 182755, Control_c, 0, 64, 93
1, 182760, Note_on_c, 0, 72, 84
1, 182766, Note_on_c, 0, 53, 69
1, 182770, Control_c, 0, 64, 77
1, 182784, Control_c, 0, 64, 43
1, 182798, Note_on_c, 0, 74, 86
1, 182799, Control_c, 0, 64, 0
1, 182810, Note_off_c, 0, 72, 65
1, 182811, Note_off_c, 0, 53, 64
1, 182843, Note_on_c, 0, 62, 66
1, 182888, Note_off_c, 0, 62, 54
1, 182923, Note_on_c, 0, 53, 70
1, 182966, Note_off_c, 0, 53, 63
1, 183005, Note_on_c, 0, 62, 64
1, 183043, Note_off_c, 0, 62, 56
1, 183089, Note_on_c, 0, 53, 69
1, 183118, Control_c, 0, 64, 59
1, 183125, Note_off_c, 0, 53, 66
1, 183133, Control_c, 0, 64, 56
1, 183147, Control_c, 0, 64, 55
1, 183168, Note_on_c, 0, 62, 55
1, 183207, Note_off_c, 0, 62, 61
1, 183208, Control_c, 0, 64, 56
1, 183222, Control_c, 0, 64, 57
1, 183237, Control_c, 0, 64, 58
1, 183238, Note_on_c, 0, 53, 71
1, 183246, Note_on_c, 0, 81, 83
1, 183255, Note_off_c, 0, 74, 66
1, 183271, Note_off_c, 0, 53, 69
1, 183283, Note_off_c, 0, 81, 63
1, 183311, Control_c, 0, 64, 57
1, 183340, Note_on_c, 0, 62, 39
1, 183374, Note_off_c, 0, 62, 58
1, 183404, Note_on_c, 0, 52, 63
1, 183412, Note_on_c, 0, 79, 71
1, 183465, Note_off_c, 0, 52, 60
1, 183499, Note_on_c, 0, 62, 51
1, 183504, Control_c, 0, 64, 58
1, 183533, Control_c, 0, 64, 58
1, 183544, Note_off_c, 0, 62, 58
1, 183580, Note_on_c, 0, 52, 66
1, 183589, Note_on_c, 0, 67, 81
1, 183630, Note_off_c, 0, 52, 60
1, 183660, Note_on_c, 0, 62, 59
1, 183662, Note_off_c, 0, 79, 60
1, 183681, Control_c, 0, 64, 58
1, 183711, Note_off_c, 0, 62, 59
1, 183733, Control_c, 0, 64, 57
1, 183746, Note_on_c, 0, 52, 74
1, 183753, Note_on_c, 0, 73, 90
1, 183788, Note_off_c, 0, 67, 62
1, 183793, Control_c, 0, 64, 57
1, 183806, Note_off_c, 0, 52, 62
1, 183822, Control_c, 0, 64, 56
1, 183834, Note_on_c, 0, 61, 76
1, 183837, Control_c, 0, 64, 56
1, 183852, Control_c, 0, 64, 54
1, 183867, Control_c, 0, 64, 53
1, 183881, Control_c, 0, 64, 51
1, 183886, Note_off_c, 0, 61, 61
1, 183896, Control_c, 0, 64, 47
1, 183911, Note_on_c, 0, 52, 70
1, 183911, Control_c, 0, 64, 31
1, 183923, Note_on_c, 0, 67, 93
1, 183926, Control_c, 0, 64, 0
1, 183927, Note_off_c, 0, 73, 63
1, 183959, Note_off_c, 0, 52, 60
1, 183988, Note_on_c, 0, 61, 67
1, 184030, Note_off_c, 0, 61, 58
1, 184084, Note_on_c, 0, 79, 94
1, 184087, Note_on_c, 0, 51, 75
1, 184094, Note_off_c, 0, 67, 53
1, 184140, Note_off_c, 0, 51, 63
1, 184162, Note_on_c, 0, 60, 63
1, 184224, Note_off_c, 0, 60, 63
1, 184251, Note_on_c, 0, 51, 79
1, 184256, Note_on_c, 0, 72, 76
1, 184292, Note_off_c, 0, 72, 58
1, 184306, Note_off_c, 0, 51, 62
1, 184312, Note_off_c, 0, 79, 57
1, 184334, Note_on_c, 0, 60, 61
1, 184371, Note_off_c, 0, 60, 60
1, 184412, Note_on_c, 0, 78, 84
1, 184416, Note_on_c, 0, 50, 70
1, 184452, Note_off_c, 0, 50, 66
1, 184491, Note_on_c, 0, 60, 62
1, 184552, Note_off_c, 0, 60, 58
1, 184573, Note_on_c, 0, 50, 60
1, 184590, Note_on_c, 0, 74, 82
1, 184593, Note_off_c, 0, 78, 63
1, 184613, Note_off_c, 0, 74, 69
1, 184623, Note_off_c, 0, 50, 61
1, 184655, Note_on_c, 0, 60, 65
1, 184693, Note_off_c, 0, 60, 58
1, 184741, Note_on_c, 0, 55, 65
1, 184748, Note_on_c, 0, 77, 84
1, 184808, Note_off_c, 0, 55, 64
1, 184835, Note_on_c, 0, 59, 65
1, 184887, Note_off_c, 0, 59, 53
1, 184917, Note_on_c, 0, 55, 66
1, 184926, Note_on_c, 0, 74, 79
1, 184962, Note_off_c, 0, 55, 64
1, 184993, Note_on_c, 0, 59, 64
1, 185066, Note_off_c, 0, 59, 60
1, 185079, Note_on_c, 0, 55, 70
1, 185080, Note_off_c, 0, 77, 62
1, 185085, Note_on_c, 0, 71, 82
1, 185122, Note_off_c, 0, 55, 64
1, 185164, Note_on_c, 0, 59, 58
1, 185235, Note_off_c, 0, 59, 60
1, 185252, Note_on_c, 0, 55, 64
1, 185255, Note_on_c, 0, 77, 83
1, 185257, Note_off_c, 0, 71, 65
1, 185261, Note_off_c, 0, 74, 64
1, 185291, Note_off_c, 0, 55, 65
1, 185294, Note_off_c, 0, 77, 64
1, 185342, Note_on_c, 0, 59, 65
1, 185372, Note_off_c, 0, 59, 61
1, 185424, Note_on_c, 0, 48, 70
1, 185425, Note_on_c, 0, 76, 81
1, 185479, Note_off_c, 0, 48, 63
1, 185510, Note_on_c, 0, 58, 67
1, 185556, Note_off_c, 0, 58, 57
1, 185578, Note_off_c, 0, 76, 63
1, 185581, Note_on_c, 0, 72, 73
1, 185590, Note_on_c, 0, 48, 71
1, 185607, Note_off_c, 0, 72, 64
1, 185628, Note_off_c, 0, 48, 61
1, 185659, Note_on_c, 0, 58, 66
1, 185692, Note_off_c, 0, 58, 61
1, 185744, Note_on_c, 0, 53, 58
1, 185747, Note_on_c, 0, 75, 77
1, 185803, Note_off_c, 0, 53, 61
1, 185843, Note_on_c, 0, 57, 52
1, 185885, Note_off_c, 0, 57, 61
1, 185917, Note_on_c, 0, 65, 66
1, 185924, Note_on_c, 0, 53, 61
1, 185963, Note_off_c, 0, 53, 66
1, 185972, Control_c, 0, 64, 11
1, 185994, Control_c, 0, 64, 14
1, 186009, Control_c, 0, 64, 17
1, 186009, Note_on_c, 0, 57, 51
1, 186024, Control_c, 0, 64, 19
1, 186039, Control_c, 0, 64, 21
1, 186069, Control_c, 0, 64, 23
1, 186070, Note_off_c, 0, 57, 57
1, 186080, Note_on_c, 0, 53, 59
1, 186089, Note_on_c, 0, 72, 76
1, 186113, Control_c, 0, 64, 24
1, 186122, Note_off_c, 0, 75, 63
1, 186137, Note_off_c, 0, 53, 65
1, 186157, Control_c, 0, 64, 26
1, 186172, Control_c, 0, 64, 27
1, 186187, Control_c, 0, 64, 28
1, 186189, Note_on_c, 0, 57, 40
1, 186216, Control_c, 0, 64, 29
1, 186221, Note_off_c, 0, 57, 57
1, 186236, Note_off_c, 0, 65, 61
1, 186248, Note_on_c, 0, 53, 60
1, 186250, Note_on_c, 0, 75, 74
1, 186257, Note_off_c, 0, 72, 62
1, 186290, Control_c, 0, 64, 30
1, 186291, Note_off_c, 0, 53, 65
1, 186297, Note_off_c, 0, 75, 60
1, 186305, Control_c, 0, 64, 32
1, 186307, Note_on_c, 0, 57, 67
1, 186320, Control_c, 0, 64, 33
1, 186350, Control_c, 0, 64, 34
1, 186364, Note_off_c, 0, 57, 59
1, 186414, Note_on_c, 0, 46, 67
1, 186421, Note_on_c, 0, 74, 81
1, 186439, Control_c, 0, 64, 35
1, 186469, Control_c, 0, 64, 36
1, 186476, Note_off_c, 0, 46, 55
1, 186484, Control_c, 0, 64, 37
1, 186495, Note_on_c, 0, 56, 64
1, 186551, Note_off_c, 0, 56, 62
1, 186558, Control_c, 0, 64, 38
1, 186586, Note_on_c, 0, 46, 62
1, 186587, Note_on_c, 0, 62, 67
1, 186632, Note_off_c, 0, 46, 60
1, 186647, Control_c, 0, 64, 38
1, 186665, Note_on_c, 0, 56, 60
1, 186692, Control_c, 0, 64, 39
1, 186699, Note_off_c, 0, 56, 62
1, 186706, Control_c, 0, 64, 40
1, 186728, Control_c, 0, 64, 42
1, 186743, Control_c, 0, 64, 44
1, 186751, Note_on_c, 0, 46, 66
1, 186757, Control_c, 0, 64, 49
1, 186767, Note_on_c, 0, 67, 82
1, 186772, Control_c, 0, 64, 54
1, 186787, Control_c, 0, 64, 58
1, 186797, Note_off_c, 0, 74, 63
1, 186802, Note_off_c, 0, 62, 58
1, 186802, Control_c, 0, 64, 60
1, 186812, Note_off_c, 0, 46, 62
1, 186817, Control_c, 0, 64, 61
1, 186832, Control_c, 0, 64, 63
1, 186843, Note_on_c, 0, 55, 62
1, 186847, Control_c, 0, 64, 64
1, 186862, Control_c, 0, 64, 65
1, 186876, Control_c, 0, 64, 65
1, 186885, Note_off_c, 0, 55, 64
1, 186891, Control_c, 0, 64, 66
1, 186906, Control_c, 0, 64, 67
1, 186921, Control_c, 0, 64, 68
1, 186922, Note_on_c, 0, 46, 69
1, 186927, Note_on_c, 0, 74, 87
1, 186933, Note_off_c, 0, 67, 62
1, 186936, Control_c, 0, 64, 70
1, 186951, Control_c, 0, 64, 71
1, 186965, Control_c, 0, 64, 72
1, 186968, Note_off_c, 0, 74, 67
1, 186975, Note_off_c, 0, 46, 61
1, 186980, Control_c, 0, 64, 73
1, 187005, Note_on_c, 0, 55, 65
1, 187010, Control_c, 0, 64, 72
1, 187025, Control_c, 0, 64, 67
1, 187039, Control_c, 0, 64, 52
1, 187049, Note_off_c, 0, 55, 59
1, 187054, Control_c, 0, 64, 0
1, 187088, Note_on_c, 0, 46, 71
1, 187094, Note_on_c, 0, 79, 89
1, 187137, Note_off_c, 0, 46, 60
1, 187172, Note_on_c, 0, 55, 55
1, 187174, Control_c, 0, 64, 57
1, 187188, Control_c, 0, 64, 66
1, 187203, Control_c, 0, 64, 73
1, 187211, Note_off_c, 0, 55, 62
1, 187218, Control_c, 0, 64, 81
1, 187233, Control_c, 0, 64, 92
1, 187237, Note_off_c, 0, 79, 63
1, 187247, Control_c, 0, 64, 102
1, 187248, Note_on_c, 0, 46, 75
1, 187262, Control_c, 0, 64, 114
1, 187264, Note_on_c, 0, 67, 82
1, 187278, Control_c, 0, 64, 127
1, 187306, Note_off_c, 0, 46, 61
1, 187309, Note_off_c, 0, 67, 63
1, 187336, Note_on_c, 0, 55, 59
1, 187377, Note_off_c, 0, 55, 55
1, 187396, Control_c, 0, 64, 117
1, 187411, Control_c, 0, 64, 86
1, 187426, Control_c, 0, 64, 56
1, 187432, Note_on_c, 0, 48, 64
1, 187434, Note_on_c, 0, 75, 80
1, 187441, Control_c, 0, 64, 0
1, 187443, Note_on_c, 0, 67, 63
1, 187484, Note_off_c, 0, 48, 62
1, 187521, Note_on_c, 0, 55, 51
1, 187537, Control_c, 0, 64, 52
1, 187552, Control_c, 0, 64, 65
1, 187562, Note_off_c, 0, 55, 59
1, 187567, Control_c, 0, 64, 71
1, 187581, Control_c, 0, 64, 76
1, 187596, Control_c, 0, 64, 81
1, 187601, Note_on_c, 0, 48, 64
1, 187608, Note_on_c, 0, 69, 77
1, 187608, Note_off_c, 0, 67, 61
1, 187611, Control_c, 0, 64, 84
1, 187626, Note_off_c, 0, 75, 62
1, 187626, Control_c, 0, 64, 86
1, 187638, Note_off_c, 0, 69, 63
1, 187641, Control_c, 0, 64, 86
1, 187653, Note_off_c, 0, 48, 60
1, 187679, Note_on_c, 0, 55, 60
1, 187737, Note_off_c, 0, 55, 56
1, 187759, Control_c, 0, 64, 83
1, 187774, Control_c, 0, 64, 73
1, 187774, Note_on_c, 0, 50, 62
1, 187789, Note_on_c, 0, 70, 67
1, 187789, Control_c, 0, 64, 58
1, 187791, Note_on_c, 0, 62, 60
1, 187804, Control_c, 0, 64, 0
1, 187812, Note_off_c, 0, 50, 65
1, 187848, Note_on_c, 0, 55, 60
1, 187878, Control_c, 0, 64, 14
1, 187893, Note_off_c, 0, 55, 59
1, 187893, Control_c, 0, 64, 38
1, 187907, Control_c, 0, 64, 42
1, 187922, Control_c, 0, 64, 44
1, 187935, Note_on_c, 0, 50, 51
1, 187937, Control_c, 0, 64, 46
1, 187944, Note_off_c, 0, 62, 58
1, 187953, Control_c, 0, 64, 45
1, 187962, Note_on_c, 0, 67, 55
1, 187968, Control_c, 0, 64, 38
1, 187980, Note_off_c, 0, 50, 65
1, 187982, Control_c, 0, 64, 0
1, 188024, Note_on_c, 0, 55, 50
1, 188066, Note_off_c, 0, 55, 58
1, 188100, Control_c, 0, 67, 9
1, 188107, Note_on_c, 0, 50, 52
1, 188115, Control_c, 0, 67, 14
1, 188120, Note_on_c, 0, 69, 70
1, 188125, Note_on_c, 0, 66, 63
1, 188129, Control_c, 0, 67, 19
1, 188135, Note_off_c, 0, 67, 56
1, 188144, Control_c, 0, 67, 23
1, 188159, Control_c, 0, 67, 24
1, 188179, Note_off_c, 0, 70, 54
1, 188182, Note_off_c, 0, 50, 63
1, 188203, Control_c, 0, 67, 23
1, 188206, Note_on_c, 0, 54, 54
1, 188226, Control_c, 0, 67, 21
1, 188241, Control_c, 0, 67, 20
1, 188256, Control_c, 0, 67, 18
1, 188266, Note_off_c, 0, 54, 62
1, 188271, Control_c, 0, 64, 62
1, 188271, Control_c, 0, 67, 17
1, 188285, Control_c, 0, 64, 68
1, 188285, Control_c, 0, 67, 15
1, 188295, Note_on_c, 0, 60, 65
1, 188299, Note_off_c, 0, 66, 61
1, 188300, Control_c, 0, 64, 74
1, 188300, Control_c, 0, 67, 14
1, 188301, Note_off_c, 0, 69, 61
1, 188309, Note_on_c, 0, 50, 46
1, 188315, Control_c, 0, 64, 81
1, 188315, Control_c, 0, 67, 13
1, 188329, Control_c, 0, 64, 88
1, 188329, Control_c, 0, 67, 12
1, 188336, Note_off_c, 0, 60, 63
1, 188344, Control_c, 0, 64, 93
1, 188344, Control_c, 0, 67, 10
1, 188347, Note_off_c, 0, 50, 64
1, 188359, Control_c, 0, 64, 95
1, 188359, Control_c, 0, 67, 9
1, 188374, Control_c, 0, 64, 98
1, 188374, Control_c, 0, 67, 0
1, 188375, Note_on_c, 0, 54, 64
1, 188389, Control_c, 0, 64, 100
1, 188403, Control_c, 0, 64, 101
1, 188424, Note_off_c, 0, 54, 57
1, 188463, Control_c, 0, 64, 100
1, 188474, Note_on_c, 0, 55, 61
1, 188477, Control_c, 0, 64, 94
1, 188492, Control_c, 0, 64, 82
1, 188497, Note_on_c, 0, 58, 61
1, 188498, Note_on_c, 0, 67, 62
1, 188501, Note_on_c, 0, 62, 42
1, 188507, Control_c, 0, 64, 67
1, 188522, Control_c, 0, 64, 0
1, 188525, Note_off_c, 0, 55, 57
1, 188561, Note_on_c, 0, 50, 68
1, 188633, Note_off_c, 0, 50, 65
1, 188640, Note_on_c, 0, 48, 69
1, 188710, Note_off_c, 0, 48, 63
1, 188727, Note_on_c, 0, 50, 70
1, 188801, Note_off_c, 0, 50, 64
1, 188811, Note_on_c, 0, 46, 64
1, 188834, Control_c, 0, 67, 9
1, 188849, Control_c, 0, 67, 10
1, 188864, Control_c, 0, 67, 12
1, 188877, Note_off_c, 0, 46, 62
1, 188879, Control_c, 0, 67, 13
1, 188894, Control_c, 0, 67, 15
1, 188895, Note_on_c, 0, 50, 60
1, 188909, Control_c, 0, 67, 17
1, 188924, Control_c, 0, 67, 19
1, 188939, Control_c, 0, 67, 25
1, 188953, Control_c, 0, 67, 32
1, 188962, Note_off_c, 0, 50, 63
1, 188975, Control_c, 0, 67, 42
1, 188986, Note_on_c, 0, 48, 62
1, 188990, Control_c, 0, 67, 53
1, 189005, Control_c, 0, 67, 64
1, 189020, Control_c, 0, 67, 74
1, 189031, Note_off_c, 0, 48, 64
1, 189035, Control_c, 0, 67, 85
1, 189050, Control_c, 0, 67, 95
1, 189065, Control_c, 0, 67, 105
1, 189073, Note_on_c, 0, 50, 54
1, 189076, Note_off_c, 0, 58, 60
1, 189079, Control_c, 0, 67, 115
1, 189094, Control_c, 0, 67, 124
1, 189109, Control_c, 0, 67, 127
1, 189170, Note_off_c, 0, 50, 63
1, 189198, Control_c, 0, 64, 49
1, 189202, Note_on_c, 0, 43, 55
1, 189213, Control_c, 0, 64, 63
1, 189227, Control_c, 0, 64, 68
1, 189242, Control_c, 0, 64, 75
1, 189252, Note_off_c, 0, 43, 63
1, 189257, Control_c, 0, 64, 82
1, 189271, Control_c, 0, 64, 89
1, 189284, Note_off_c, 0, 67, 37
1, 189285, Note_off_c, 0, 62, 31
1, 189286, Control_c, 0, 64, 94
1, 189301, Control_c, 0, 64, 98
1, 189316, Control_c, 0, 64, 101
1, 189331, Control_c, 0, 64, 104
1, 189345, Control_c, 0, 64, 105
1, 189435, Note_on_c, 0, 60, 53
1, 189449, Control_c, 0, 64, 104
1, 189464, Control_c, 0, 64, 102
1, 189479, Control_c, 0, 64, 100
1, 189494, Control_c, 0, 64, 96
1, 189509, Control_c, 0, 64, 89
1, 189512, Note_off_c, 0, 60, 59
1, 189521, Note_on_c, 0, 58, 55
1, 189524, Control_c, 0, 64, 80
1, 189538, Control_c, 0, 64, 72
1, 189554, Control_c, 0, 64, 64
1, 189568, Control_c, 0, 64, 47
1, 189583, Control_c, 0, 64, 21
1, 189586, Note_off_c, 0, 58, 62
1, 189598, Control_c, 0, 64, 0
1, 189610, Note_on_c, 0, 57, 54
1, 189700, Note_off_c, 0, 57, 61
1, 189728, Note_on_c, 0, 55, 58
1, 189736, Note_on_c, 0, 81, 73
1, 189780, Note_off_c, 0, 81, 62
1, 189792, Note_on_c, 0, 82, 71
1, 189812, Note_off_c, 0, 55, 63
1, 189855, Note_on_c, 0, 62, 38
1, 189857, Control_c, 0, 67, 127
1, 189887, Control_c, 0, 67, 126
1, 189891, Note_off_c, 0, 62, 55
1, 189937, Note_on_c, 0, 55, 50
1, 189947, Control_c, 0, 67, 126
1, 189972, Note_off_c, 0, 55, 64
1, 189998, Note_on_c, 0, 62, 51
1, 190040, Note_off_c, 0, 62, 61
1, 190088, Note_on_c, 0, 55, 55
1, 190132, Note_off_c, 0, 55, 65
1, 190175, Note_on_c, 0, 63, 53
1, 190217, Note_off_c, 0, 63, 59
1, 190260, Note_on_c, 0, 55, 55
1, 190261, Note_on_c, 0, 70, 63
1, 190281, Note_off_c, 0, 82, 60
1, 190295, Note_off_c, 0, 55, 64
1, 190333, Note_on_c, 0, 63, 45
1, 190362, Control_c, 0, 67, 126
1, 190380, Note_off_c, 0, 63, 58
1, 190421, Note_on_c, 0, 55, 57
1, 190427, Note_on_c, 0, 75, 72
1, 190457, Note_off_c, 0, 55, 64
1, 190488, Control_c, 0, 67, 125
1, 190501, Note_on_c, 0, 63, 49
1, 190503, Control_c, 0, 67, 125
1, 190518, Control_c, 0, 67, 124
1, 190524, Note_off_c, 0, 70, 53
1, 190532, Control_c, 0, 67, 123
1, 190545, Note_off_c, 0, 63, 60
1, 190547, Control_c, 0, 64, 49
1, 190547, Control_c, 0, 67, 120
1, 190562, Control_c, 0, 64, 63
1, 190562, Control_c, 0, 67, 117
1, 190577, Control_c, 0, 64, 66
1, 190577, Control_c, 0, 67, 113
1, 190588, Note_on_c, 0, 55, 49
1, 190592, Control_c, 0, 64, 69
1, 190592, Control_c, 0, 67, 110
1, 190600, Note_on_c, 0, 82, 79
1, 190606, Control_c, 0, 64, 71
1, 190606, Control_c, 0, 67, 107
1, 190607, Note_off_c, 0, 75, 63
1, 190621, Note_off_c, 0, 55, 65
1, 190621, Control_c, 0, 64, 75
1, 190621, Control_c, 0, 67, 104
1, 190636, Control_c, 0, 64, 78
1, 190636, Control_c, 0, 67, 101
1, 190649, Note_off_c, 0, 82, 64
1, 190651, Control_c, 0, 64, 82
1, 190651, Control_c, 0, 67, 100
1, 190666, Control_c, 0, 64, 84
1, 190674, Note_on_c, 0, 63, 40
1, 190680, Control_c, 0, 64, 86
1, 190695, Control_c, 0, 64, 87
1, 190695, Control_c, 0, 67, 100
1, 190710, Control_c, 0, 67, 101
1, 190723, Note_off_c, 0, 63, 57
1, 190725, Control_c, 0, 64, 84
1, 190740, Control_c, 0, 64, 75
1, 190740, Control_c, 0, 67, 101
1, 190755, Control_c, 0, 64, 55
1, 190766, Note_on_c, 0, 54, 56
1, 190770, Control_c, 0, 64, 0
1, 190774, Note_on_c, 0, 81, 70
1, 190785, Control_c, 0, 67, 101
1, 190799, Note_off_c, 0, 54, 66
1, 190829, Control_c, 0, 67, 100
1, 190838, Note_on_c, 0, 63, 48
1, 190844, Control_c, 0, 64, 40
1, 190858, Control_c, 0, 64, 64
1, 190873, Control_c, 0, 64, 69
1, 190881, Note_off_c, 0, 63, 61
1, 190888, Control_c, 0, 64, 73
1, 190888, Control_c, 0, 67, 100
1, 190903, Control_c, 0, 64, 76
1, 190917, Control_c, 0, 64, 80
1, 190920, Note_on_c, 0, 54, 51
1, 190920, Note_off_c, 0, 81, 61
1, 190932, Control_c, 0, 64, 83
1, 190933, Note_on_c, 0, 72, 66
1, 190947, Control_c, 0, 64, 86
1, 190956, Note_off_c, 0, 72, 69
1, 190960, Note_off_c, 0, 54, 64
1, 190962, Control_c, 0, 64, 88
1, 190977, Control_c, 0, 64, 90
1, 190991, Control_c, 0, 64, 92
1, 190997, Note_on_c, 0, 63, 48
1, 191006, Control_c, 0, 64, 94
1, 191022, Control_c, 0, 64, 95
1, 191029, Note_off_c, 0, 63, 57
1, 191066, Control_c, 0, 64, 94
1, 191081, Control_c, 0, 64, 84
1, 191090, Note_on_c, 0, 53, 59
1, 191095, Note_on_c, 0, 74, 65
1, 191096, Control_c, 0, 64, 68
1, 191096, Control_c, 0, 67, 100
1, 191111, Control_c, 0, 64, 0
1, 191111, Control_c, 0, 67, 101
1, 191114, Note_off_c, 0, 74, 67
1, 191124, Note_off_c, 0, 53, 67
1, 191137, Note_on_c, 0, 72, 64
1, 191141, Control_c, 0, 67, 101
1, 191180, Note_on_c, 0, 74, 73
1, 191183, Note_on_c, 0, 62, 42
1, 191197, Note_off_c, 0, 72, 62
1, 191201, Control_c, 0, 67, 102
1, 191227, Note_off_c, 0, 62, 56
1, 191245, Note_on_c, 0, 53, 60
1, 191267, Control_c, 0, 67, 102
1, 191293, Note_off_c, 0, 53, 64
1, 191297, Control_c, 0, 67, 103
1, 191312, Control_c, 0, 67, 103
1, 191327, Control_c, 0, 67, 104
1, 191339, Note_on_c, 0, 62, 43
1, 191342, Control_c, 0, 67, 105
1, 191356, Control_c, 0, 67, 106
1, 191371, Control_c, 0, 67, 106
1, 191379, Note_off_c, 0, 62, 58
1, 191412, Note_on_c, 0, 53, 63
1, 191450, Note_off_c, 0, 53, 66
1, 191460, Control_c, 0, 67, 105
1, 191474, Control_c, 0, 67, 105
1, 191489, Control_c, 0, 67, 104
1, 191497, Note_on_c, 0, 62, 40
1, 191519, Control_c, 0, 64, 61
1, 191519, Control_c, 0, 67, 104
1, 191534, Control_c, 0, 64, 66
1, 191535, Note_off_c, 0, 62, 58
1, 191548, Control_c, 0, 64, 70
1, 191563, Control_c, 0, 64, 73
1, 191568, Note_on_c, 0, 53, 61
1, 191578, Control_c, 0, 64, 75
1, 191579, Note_on_c, 0, 81, 71
1, 191592, Note_off_c, 0, 74, 65
1, 191593, Control_c, 0, 64, 76
1, 191608, Note_off_c, 0, 53, 66
1, 191613, Note_off_c, 0, 81, 63
1, 191653, Note_on_c, 0, 62, 38
1, 191682, Control_c, 0, 64, 75
1, 191694, Note_off_c, 0, 62, 51
1, 191697, Control_c, 0, 64, 74
1, 191712, Control_c, 0, 64, 73
1, 191726, Control_c, 0, 64, 70
1, 191736, Note_on_c, 0, 52, 59
1, 191741, Control_c, 0, 64, 66
1, 191746, Note_on_c, 0, 79, 69
1, 191756, Control_c, 0, 64, 62
1, 191770, Control_c, 0, 64, 57
1, 191780, Note_off_c, 0, 52, 62
1, 191785, Control_c, 0, 64, 49
1, 191800, Control_c, 0, 64, 34
1, 191815, Control_c, 0, 64, 23
1, 191829, Control_c, 0, 64, 11
1, 191830, Note_on_c, 0, 62, 37
1, 191844, Control_c, 0, 64, 0
1, 191865, Note_off_c, 0, 62, 57
1, 191902, Note_on_c, 0, 52, 61
1, 191920, Note_on_c, 0, 67, 80
1, 191958, Note_off_c, 0, 52, 60
1, 191971, Note_off_c, 0, 79, 61
1, 192001, Control_c, 0, 67, 104
1, 192004, Note_on_c, 0, 62, 48
1, 192061, Note_off_c, 0, 62, 59
1, 192084, Note_on_c, 0, 52, 68
1, 192089, Note_on_c, 0, 73, 88
1, 192126, Note_off_c, 0, 67, 62
1, 192134, Control_c, 0, 67, 104
1, 192149, Note_off_c, 0, 52, 62
1, 192187, Note_on_c, 0, 61, 62
1, 192193, Control_c, 0, 67, 103
1, 192223, Control_c, 0, 67, 103
1, 192227, Note_off_c, 0, 61, 58
1, 192238, Control_c, 0, 67, 102
1, 192254, Note_on_c, 0, 52, 68
1, 192260, Note_on_c, 0, 67, 82
1, 192266, Note_off_c, 0, 73, 63
1, 192267, Control_c, 0, 67, 102
1, 192296, Note_off_c, 0, 52, 61
1, 192326, Note_on_c, 0, 61, 62
1, 192367, Note_off_c, 0, 61, 56
1, 192422, Note_on_c, 0, 51, 71
1, 192424, Note_on_c, 0, 79, 84
1, 192430, Control_c, 0, 67, 102
1, 192445, Note_off_c, 0, 67, 55
1, 192470, Note_off_c, 0, 51, 60
1, 192511, Note_on_c, 0, 60, 51
1, 192534, Control_c, 0, 67, 102
1, 192556, Note_off_c, 0, 60, 61
1, 192582, Note_on_c, 0, 72, 72
1, 192588, Note_on_c, 0, 51, 71
1, 192609, Note_off_c, 0, 72, 65
1, 192627, Note_off_c, 0, 51, 63
1, 192631, Note_off_c, 0, 79, 61
1, 192668, Note_on_c, 0, 60, 58
1, 192723, Note_off_c, 0, 60, 56
1, 192761, Note_on_c, 0, 78, 67
1, 192773, Note_on_c, 0, 50, 52
1, 192800, Note_off_c, 0, 50, 62
1, 192839, Note_on_c, 0, 60, 46
1, 192874, Note_off_c, 0, 60, 61
1, 192908, Note_on_c, 0, 50, 48
1, 192932, Note_on_c, 0, 74, 72
1, 192939, Note_off_c, 0, 78, 62
1, 192957, Note_off_c, 0, 74, 70
1, 192960, Note_off_c, 0, 50, 64
1, 193024, Note_on_c, 0, 60, 19
1, 193059, Note_off_c, 0, 60, 47
1, 193080, Note_on_c, 0, 55, 55
1, 193095, Note_on_c, 0, 77, 69
1, 193139, Note_off_c, 0, 55, 61
1, 193196, Note_on_c, 0, 59, 44
1, 193232, Note_off_c, 0, 59, 59
1, 193270, Note_on_c, 0, 74, 62
1, 193272, Note_on_c, 0, 55, 54
1, 193297, Control_c, 0, 67, 102
1, 193309, Note_off_c, 0, 55, 64
1, 193361, Note_on_c, 0, 59, 37
1, 193405, Note_off_c, 0, 59, 60
1, 193420, Note_off_c, 0, 77, 62
1, 193423, Note_on_c, 0, 71, 70
1, 193426, Note_on_c, 0, 55, 55
1, 193476, Note_off_c, 0, 55, 65
1, 193523, Note_on_c, 0, 59, 46
1, 193576, Note_off_c, 0, 59, 55
1, 193607, Note_on_c, 0, 77, 73
1, 193608, Note_on_c, 0, 55, 54
1, 193610, Note_off_c, 0, 71, 64
1, 193633, Note_off_c, 0, 74, 65
1, 193646, Note_off_c, 0, 77, 63
1, 193646, Note_off_c, 0, 55, 65
1, 193676, Control_c, 0, 67, 103
1, 193685, Note_on_c, 0, 59, 59
1, 193727, Note_off_c, 0, 59, 59
1, 193772, Note_on_c, 0, 48, 66
1, 193778, Note_on_c, 0, 76, 70
1, 193818, Note_off_c, 0, 48, 62
1, 193855, Note_on_c, 0, 58, 62
1, 193896, Note_off_c, 0, 58, 56
1, 193936, Note_on_c, 0, 48, 63
1, 193936, Note_off_c, 0, 76, 63
1, 193941, Note_on_c, 0, 72, 70
1, 193972, Control_c, 0, 64, 11
1, 193975, Note_off_c, 0, 72, 58
1, 193983, Note_off_c, 0, 48, 57
1, 194002, Control_c, 0, 64, 14
1, 194002, Control_c, 0, 67, 102
1, 194007, Note_on_c, 0, 58, 60
1, 194017, Control_c, 0, 64, 17
1, 194032, Control_c, 0, 64, 19
1, 194044, Note_off_c, 0, 58, 58
1, 194047, Control_c, 0, 67, 103
1, 194061, Control_c, 0, 64, 21
1, 194091, Control_c, 0, 64, 23
1, 194099, Note_on_c, 0, 53, 56
1, 194106, Note_on_c, 0, 75, 69
1, 194157, Note_off_c, 0, 53, 61
1, 194205, Note_on_c, 0, 57, 51
1, 194217, Control_c, 0, 64, 24
1, 194257, Note_off_c, 0, 57, 61
1, 194262, Control_c, 0, 67, 103
1, 194284, Note_on_c, 0, 65, 69
1, 194287, Note_on_c, 0, 53, 63
1, 194291, Control_c, 0, 64, 26
1, 194291, Control_c, 0, 67, 104
1, 194329, Note_off_c, 0, 53, 65
1, 194336, Control_c, 0, 64, 27
1, 194336, Control_c, 0, 67, 104
1, 194375, Note_on_c, 0, 57, 52
1, 194427, Note_off_c, 0, 57, 59
1, 194441, Control_c, 0, 64, 28
1, 194450, Note_on_c, 0, 53, 63
1, 194450, Note_on_c, 0, 72, 75
1, 194455, Control_c, 0, 64, 33
1, 194470, Control_c, 0, 64, 42
1, 194471, Note_off_c, 0, 75, 62
1, 194485, Control_c, 0, 64, 49
1, 194485, Control_c, 0, 67, 104
1, 194499, Note_off_c, 0, 53, 64
1, 194499, Control_c, 0, 64, 52
1, 194514, Control_c, 0, 64, 54
1, 194514, Control_c, 0, 67, 103
1, 194529, Control_c, 0, 64, 55
1, 194529, Control_c, 0, 67, 103
1, 194544, Control_c, 0, 64, 55
1, 194558, Note_on_c, 0, 57, 38
1, 194559, Control_c, 0, 64, 56
1, 194559, Control_c, 0, 67, 102
1, 194594, Note_off_c, 0, 57, 59
1, 194618, Note_on_c, 0, 75, 74
1, 194618, Control_c, 0, 67, 102
1, 194619, Note_on_c, 0, 53, 58
1, 194624, Note_off_c, 0, 65, 58
1, 194642, Note_off_c, 0, 72, 60
1, 194666, Note_off_c, 0, 53, 63
1, 194675, Note_off_c, 0, 75, 62
1, 194687, Note_on_c, 0, 57, 64
1, 194734, Note_off_c, 0, 57, 56
1, 194752, Control_c, 0, 64, 56
1, 194766, Control_c, 0, 64, 55
1, 194781, Control_c, 0, 64, 55
1, 194788, Note_on_c, 0, 46, 71
1, 194788, Note_on_c, 0, 74, 80
1, 194796, Control_c, 0, 64, 54
1, 194810, Control_c, 0, 64, 54
1, 194810, Control_c, 0, 67, 102
1, 194825, Control_c, 0, 64, 53
1, 194851, Note_off_c, 0, 46, 59
1, 194855, Control_c, 0, 64, 53
1, 194868, Note_on_c, 0, 56, 65
1, 194884, Control_c, 0, 64, 52
1, 194899, Control_c, 0, 64, 52
1, 194899, Control_c, 0, 67, 103
1, 194914, Control_c, 0, 64, 51
1, 194922, Note_off_c, 0, 56, 61
1, 194929, Control_c, 0, 64, 50
1, 194944, Control_c, 0, 64, 49
1, 194966, Control_c, 0, 64, 47
1, 194969, Note_on_c, 0, 46, 62
1, 194970, Note_on_c, 0, 62, 68
1, 194981, Control_c, 0, 64, 44
1, 194996, Control_c, 0, 64, 37
1, 194996, Control_c, 0, 67, 103
1, 195009, Note_off_c, 0, 46, 62
1, 195011, Control_c, 0, 64, 0
1, 195025, Control_c, 0, 67, 104
1, 195041, Note_on_c, 0, 56, 62
1, 195077, Note_off_c, 0, 56, 63
1, 195125, Note_on_c, 0, 46, 61
1, 195133, Note_on_c, 0, 67, 76
1, 195153, Note_off_c, 0, 74, 62
1, 195175, Control_c, 0, 64, 36
1, 195175, Control_c, 0, 67, 104
1, 195181, Note_off_c, 0, 46, 61
1, 195189, Control_c, 0, 64, 51
1, 195196, Note_off_c, 0, 62, 56
1, 195204, Control_c, 0, 64, 57
1, 195219, Control_c, 0, 64, 62
1, 195221, Note_on_c, 0, 55, 60
1, 195234, Control_c, 0, 64, 65
1, 195249, Control_c, 0, 64, 66
1, 195262, Note_off_c, 0, 55, 64
1, 195264, Control_c, 0, 64, 68
1, 195278, Control_c, 0, 64, 69
1, 195293, Control_c, 0, 64, 70
1, 195299, Note_on_c, 0, 46, 68
1, 195308, Control_c, 0, 64, 71
1, 195310, Note_on_c, 0, 74, 84
1, 195315, Note_off_c, 0, 67, 63
1, 195322, Control_c, 0, 64, 73
1, 195337, Control_c, 0, 64, 76
1, 195349, Note_off_c, 0, 74, 65
1, 195352, Control_c, 0, 64, 78
1, 195356, Note_off_c, 0, 46, 62
1, 195367, Control_c, 0, 64, 79
1, 195382, Control_c, 0, 64, 80
1, 195387, Note_on_c, 0, 55, 62
1, 195396, Control_c, 0, 64, 81
1, 195396, Control_c, 0, 67, 105
1, 195426, Control_c, 0, 64, 79
1, 195432, Note_off_c, 0, 55, 61
1, 195441, Control_c, 0, 64, 73
1, 195456, Control_c, 0, 64, 60
1, 195470, Control_c, 0, 64, 0
1, 195473, Note_on_c, 0, 46, 67
1, 195473, Note_on_c, 0, 79, 83
1, 195500, Control_c, 0, 67, 104
1, 195513, Note_off_c, 0, 46, 61
1, 195515, Control_c, 0, 67, 102
1, 195530, Control_c, 0, 67, 101
1, 195545, Control_c, 0, 67, 100
1, 195557, Note_on_c, 0, 55, 50
1, 195560, Control_c, 0, 67, 99
1, 195575, Control_c, 0, 64, 60
1, 195575, Control_c, 0, 67, 98
1, 195589, Note_off_c, 0, 55, 61
1, 195589, Control_c, 0, 64, 67
1, 195589, Control_c, 0, 67, 97
1, 195604, Control_c, 0, 64, 73
1, 195604, Control_c, 0, 67, 95
1, 195617, Note_off_c, 0, 79, 64
1, 195619, Control_c, 0, 64, 78
1, 195619, Control_c, 0, 67, 87
1, 195631, Note_on_c, 0, 46, 67
1, 195633, Control_c, 0, 64, 84
1, 195633, Control_c, 0, 67, 80
1, 195648, Note_on_c, 0, 67, 73
1, 195648, Control_c, 0, 64, 90
1, 195648, Control_c, 0, 67, 75
1, 195663, Control_c, 0, 64, 95
1, 195663, Control_c, 0, 67, 72
1, 195678, Control_c, 0, 64, 101
1, 195678, Control_c, 0, 67, 70
1, 195683, Note_off_c, 0, 46, 61
1, 195683, Note_off_c, 0, 67, 61
1, 195693, Control_c, 0, 64, 107
1, 195693, Control_c, 0, 67, 70
1, 195708, Control_c, 0, 64, 112
1, 195730, Control_c, 0, 64, 116
1, 195730, Note_on_c, 0, 55, 48
1, 195745, Control_c, 0, 64, 117
1, 195745, Control_c, 0, 67, 70
1, 195760, Control_c, 0, 67, 71
1, 195768, Note_off_c, 0, 55, 60
1, 195775, Control_c, 0, 64, 117
1, 195789, Control_c, 0, 64, 116
1, 195789, Control_c, 0, 67, 71
1, 195804, Control_c, 0, 64, 101
1, 195804, Control_c, 0, 67, 72
1, 195819, Control_c, 0, 64, 83
1, 195826, Note_on_c, 0, 48, 59
1, 195834, Note_on_c, 0, 75, 66
1, 195834, Control_c, 0, 64, 63
1, 195837, Note_on_c, 0, 67, 55
1, 195848, Control_c, 0, 64, 0
1, 195862, Note_off_c, 0, 48, 62
1, 195891, Note_on_c, 0, 55, 51
1, 195937, Control_c, 0, 64, 54
1, 195945, Note_off_c, 0, 55, 55
1, 195953, Control_c, 0, 64, 66
1, 195968, Control_c, 0, 64, 73
1, 195980, Note_on_c, 0, 48, 56
1, 195983, Control_c, 0, 64, 82
1, 195992, Note_off_c, 0, 67, 61
1, 195994, Note_on_c, 0, 69, 71
1, 195998, Control_c, 0, 64, 91
1, 196007, Note_off_c, 0, 75, 61
1, 196013, Control_c, 0, 64, 99
1, 196019, Note_off_c, 0, 69, 63
1, 196028, Control_c, 0, 64, 104
1, 196031, Note_off_c, 0, 48, 61
1, 196043, Control_c, 0, 64, 109
1, 196058, Control_c, 0, 64, 114
1, 196072, Control_c, 0, 64, 119
1, 196079, Note_on_c, 0, 55, 48
1, 196087, Control_c, 0, 64, 123
1, 196087, Control_c, 0, 67, 72
1, 196102, Control_c, 0, 64, 122
1, 196102, Control_c, 0, 67, 73
1, 196117, Control_c, 0, 67, 74
1, 196123, Note_off_c, 0, 55, 59
1, 196132, Control_c, 0, 64, 112
1, 196132, Control_c, 0, 67, 74
1, 196146, Control_c, 0, 64, 94
1, 196146, Control_c, 0, 67, 75
1, 196161, Control_c, 0, 64, 75
1, 196161, Control_c, 0, 67, 76
1, 196162, Note_on_c, 0, 50, 57
1, 196173, Note_on_c, 0, 70, 65
1, 196176, Control_c, 0, 64, 0
1, 196176, Control_c, 0, 67, 77
1, 196191, Note_on_c, 0, 62, 43
1, 196191, Control_c, 0, 67, 77
1, 196201, Note_off_c, 0, 50, 64
1, 196206, Control_c, 0, 67, 78
1, 196220, Control_c, 0, 67, 78
1, 196235, Note_on_c, 0, 55, 49
1, 196235, Control_c, 0, 67, 79
1, 196250, Control_c, 0, 67, 80
1, 196263, Control_c, 0, 67, 81
1, 196284, Note_off_c, 0, 55, 54
1, 196293, Control_c, 0, 67, 81
1, 196308, Control_c, 0, 67, 82
1, 196323, Control_c, 0, 67, 82
1, 196332, Note_off_c, 0, 62, 58
1, 196332, Note_on_c, 0, 50, 47
1, 196338, Control_c, 0, 67, 84
1, 196351, Note_on_c, 0, 67, 49
1, 196353, Control_c, 0, 67, 87
1, 196368, Control_c, 0, 67, 92
1, 196383, Control_c, 0, 67, 99
1, 196385, Note_off_c, 0, 50, 65
1, 196398, Control_c, 0, 67, 107
1, 196412, Control_c, 0, 67, 119
1, 196427, Control_c, 0, 67, 127
1, 196428, Note_on_c, 0, 55, 45
1, 196478, Note_off_c, 0, 55, 52
1, 196526, Note_on_c, 0, 50, 43
1, 196531, Note_off_c, 0, 67, 55
1, 196536, Note_on_c, 0, 69, 62
1, 196541, Note_on_c, 0, 66, 54
1, 196579, Note_off_c, 0, 70, 55
1, 196595, Note_off_c, 0, 50, 61
1, 196627, Note_on_c, 0, 54, 47
1, 196672, Control_c, 0, 64, 47
1, 196678, Note_off_c, 0, 54, 59
1, 196687, Control_c, 0, 64, 62
1, 196702, Control_c, 0, 64, 68
1, 196717, Control_c, 0, 64, 75
1, 196721, Note_on_c, 0, 50, 50
1, 196730, Note_on_c, 0, 60, 50
1, 196731, Note_off_c, 0, 69, 59
1, 196731, Control_c, 0, 64, 82
1, 196734, Note_off_c, 0, 66, 60
1, 196747, Control_c, 0, 64, 90
1, 196761, Control_c, 0, 64, 96
1, 196767, Note_off_c, 0, 60, 64
1, 196773, Note_off_c, 0, 50, 63
1, 196776, Control_c, 0, 64, 100
1, 196791, Control_c, 0, 64, 104
1, 196806, Control_c, 0, 64, 108
1, 196818, Note_on_c, 0, 54, 50
1, 196821, Control_c, 0, 64, 110
1, 196836, Control_c, 0, 64, 110
1, 196899, Note_off_c, 0, 54, 57
1, 196955, Control_c, 0, 64, 110
1, 196958, Note_on_c, 0, 55, 46
1, 196969, Control_c, 0, 64, 107
1, 196979, Note_on_c, 0, 67, 51
1, 196984, Control_c, 0, 64, 104
1, 196986, Note_on_c, 0, 62, 44
1, 196993, Note_on_c, 0, 58, 47
1, 196999, Control_c, 0, 64, 98
1, 197015, Control_c, 0, 64, 89
1, 197030, Control_c, 0, 64, 76
1, 197036, Note_off_c, 0, 55, 51
1, 197044, Control_c, 0, 64, 64
1, 197059, Control_c, 0, 64, 0
1, 197073, Note_on_c, 0, 50, 50
1, 197131, Note_off_c, 0, 50, 64
1, 197157, Note_on_c, 0, 48, 55
1, 197219, Note_off_c, 0, 48, 63
1, 197252, Note_on_c, 0, 50, 57
1, 197308, Note_off_c, 0, 50, 60
1, 197343, Note_on_c, 0, 46, 53
1, 197396, Note_off_c, 0, 46, 61
1, 197426, Note_on_c, 0, 50, 51
1, 197483, Note_off_c, 0, 50, 63
1, 197518, Note_on_c, 0, 48, 49
1, 197572, Note_off_c, 0, 48, 62
1, 197608, Note_on_c, 0, 50, 47
1, 197759, Note_off_c, 0, 50, 56
1, 197796, Note_on_c, 0, 43, 34
1, 197873, Note_off_c, 0, 58, 52
1, 197897, Control_c, 0, 64, 47
1, 197911, Control_c, 0, 64, 60
1, 197926, Control_c, 0, 64, 64
1, 197941, Control_c, 0, 64, 68
1, 197963, Control_c, 0, 64, 71
1, 197978, Control_c, 0, 64, 76
1, 197992, Control_c, 0, 64, 81
1, 198007, Control_c, 0, 64, 87
1, 198022, Control_c, 0, 64, 92
1, 198037, Control_c, 0, 64, 98
1, 198052, Control_c, 0, 64, 103
1, 198067, Control_c, 0, 64, 109
1, 198082, Control_c, 0, 64, 122
1, 198097, Control_c, 0, 64, 127
1, 198120, Note_off_c, 0, 67, 56
1, 198138, Note_off_c, 0, 43, 41
1, 198167, Note_off_c, 0, 62, 28
1, 198526, Control_c, 0, 64, 114
1, 198540, Control_c, 0, 64, 107
1, 198555, Control_c, 0, 64, 101
1, 198569, Note_on_c, 0, 60, 41
1, 198570, Control_c, 0, 64, 95
1, 198585, Control_c, 0, 64, 91
1, 198600, Control_c, 0, 64, 86
1, 198603, Note_off_c, 0, 60, 58
1, 198614, Control_c, 0, 64, 81
1, 198629, Control_c, 0, 64, 77
1, 198642, Note_on_c, 0, 58, 41
1, 198644, Control_c, 0, 64, 71
1, 198658, Control_c, 0, 64, 67
1, 198673, Control_c, 0, 64, 63
1, 198685, Note_off_c, 0, 58, 61
1, 198688, Control_c, 0, 64, 61
1, 198711, Control_c, 0, 64, 60
1, 198726, Control_c, 0, 64, 59
1, 198737, Note_on_c, 0, 57, 42
1, 198740, Control_c, 0, 64, 58
1, 198755, Control_c, 0, 64, 55
1, 198770, Control_c, 0, 64, 51
1, 198785, Control_c, 0, 64, 47
1, 198794, Note_off_c, 0, 57, 61
1, 198800, Control_c, 0, 64, 43
1, 198814, Control_c, 0, 64, 38
1, 198826, Note_on_c, 0, 62, 39
1, 198829, Control_c, 0, 64, 31
1, 198843, Note_on_c, 0, 55, 34
1, 198844, Control_c, 0, 64, 21
1, 198857, Note_on_c, 0, 59, 34
1, 198859, Control_c, 0, 64, 11
1, 198873, Control_c, 0, 64, 0
1, 198937, Note_on_c, 0, 74, 30
1, 198990, Note_off_c, 0, 74, 51
1, 199029, Note_on_c, 0, 72, 38
1, 199063, Note_off_c, 0, 72, 56
1, 199092, Note_on_c, 0, 74, 51
1, 199140, Note_off_c, 0, 55, 57
1, 199141, Note_off_c, 0, 59, 56
1, 199145, Note_off_c, 0, 74, 57
1, 199156, Note_off_c, 0, 62, 54
1, 199178, Note_on_c, 0, 71, 57
1, 199217, Note_off_c, 0, 71, 62
1, 199266, Note_on_c, 0, 74, 49
1, 199304, Note_off_c, 0, 74, 63
1, 199340, Note_on_c, 0, 69, 56
1, 199390, Note_off_c, 0, 69, 51
1, 199417, Note_on_c, 0, 74, 53
1, 199477, Note_off_c, 0, 74, 59
1, 199506, Note_on_c, 0, 67, 57
1, 199539, Note_off_c, 0, 67, 61
1, 199589, Note_on_c, 0, 74, 60
1, 199630, Note_off_c, 0, 74, 58
1, 199674, Note_on_c, 0, 71, 53
1, 199714, Note_off_c, 0, 71, 63
1, 199741, Note_on_c, 0, 74, 61
1, 199793, Note_on_c, 0, 54, 51
1, 199815, Note_on_c, 0, 57, 47
1, 199817, Note_off_c, 0, 74, 63
1, 199843, Note_on_c, 0, 69, 58
1, 199857, Note_on_c, 0, 62, 53
1, 199885, Note_off_c, 0, 69, 58
1, 199917, Note_on_c, 0, 74, 51
1, 199957, Note_off_c, 0, 74, 64
1, 199993, Note_on_c, 0, 67, 59
1, 200026, Note_off_c, 0, 67, 63
1, 200076, Note_on_c, 0, 74, 60
1, 200129, Note_off_c, 0, 57, 59
1, 200130, Note_off_c, 0, 54, 61
1, 200131, Note_off_c, 0, 74, 62
1, 200140, Note_off_c, 0, 62, 60
1, 200165, Note_on_c, 0, 66, 56
1, 200186, Note_off_c, 0, 66, 62
1, 200243, Note_on_c, 0, 74, 56
1, 200282, Note_off_c, 0, 74, 62
1, 200323, Note_on_c, 0, 64, 56
1, 200354, Note_off_c, 0, 64, 66
1, 200400, Note_on_c, 0, 74, 62
1, 200448, Note_off_c, 0, 74, 63
1, 200486, Note_on_c, 0, 62, 55
1, 200517, Note_off_c, 0, 62, 63
1, 200574, Note_on_c, 0, 74, 51
1, 200599, Note_off_c, 0, 74, 58
1, 200645, Note_on_c, 0, 73, 56
1, 200695, Note_off_c, 0, 73, 57
1, 200709, Note_on_c, 0, 74, 50
1, 200738, Note_on_c, 0, 52, 52
1, 200756, Note_on_c, 0, 55, 47
1, 200770, Note_off_c, 0, 74, 63
1, 200803, Note_on_c, 0, 67, 64
1, 200833, Note_off_c, 0, 67, 63
1, 200836, Note_on_c, 0, 61, 41
1, 200884, Note_on_c, 0, 79, 69
1, 200948, Note_off_c, 0, 79, 58
1, 200969, Note_on_c, 0, 78, 62
1, 201045, Note_off_c, 0, 78, 60
1, 201056, Note_on_c, 0, 79, 60
1, 201072, Note_off_c, 0, 55, 63
1, 201088, Note_off_c, 0, 52, 59
1, 201088, Note_off_c, 0, 79, 61
1, 201095, Note_off_c, 0, 61, 56
1, 201132, Note_on_c, 0, 76, 68
1, 201178, Note_off_c, 0, 76, 61
1, 201195, Note_on_c, 0, 79, 66
1, 201257, Note_off_c, 0, 79, 60
1, 201285, Note_on_c, 0, 74, 68
1, 201321, Note_off_c, 0, 74, 64
1, 201364, Note_on_c, 0, 79, 53
1, 201402, Note_off_c, 0, 79, 58
1, 201435, Note_on_c, 0, 73, 75
1, 201460, Note_off_c, 0, 73, 67
1, 201525, Note_on_c, 0, 83, 62
1, 201594, Note_on_c, 0, 81, 65
1, 201600, Note_off_c, 0, 83, 59
1, 201675, Note_on_c, 0, 79, 69
1, 201677, Note_on_c, 0, 50, 46
1, 201687, Note_off_c, 0, 81, 57
1, 201724, Note_on_c, 0, 57, 44
1, 201748, Note_off_c, 0, 79, 61
1, 201760, Note_on_c, 0, 78, 72
1, 201785, Note_on_c, 0, 62, 42
1, 201816, Note_off_c, 0, 78, 62
1, 201838, Note_on_c, 0, 81, 62
1, 201898, Note_off_c, 0, 81, 61
1, 201914, Note_on_c, 0, 79, 73
1, 201994, Note_off_c, 0, 79, 60
1, 202006, Note_on_c, 0, 81, 72
1, 202054, Note_off_c, 0, 50, 56
1, 202059, Note_off_c, 0, 81, 60
1, 202070, Note_off_c, 0, 62, 61
1, 202079, Note_on_c, 0, 78, 78
1, 202089, Note_off_c, 0, 57, 61
1, 202119, Note_off_c, 0, 78, 56
1, 202154, Note_on_c, 0, 81, 64
1, 202186, Note_off_c, 0, 81, 61
1, 202228, Note_on_c, 0, 76, 67
1, 202260, Note_off_c, 0, 76, 60
1, 202299, Note_on_c, 0, 81, 70
1, 202358, Note_off_c, 0, 81, 64
1, 202382, Note_on_c, 0, 74, 75
1, 202407, Note_off_c, 0, 74, 66
1, 202459, Note_on_c, 0, 81, 69
1, 202506, Note_off_c, 0, 81, 60
1, 202550, Note_on_c, 0, 72, 56
1, 202573, Note_off_c, 0, 72, 64
1, 202613, Note_on_c, 0, 81, 63
1, 202663, Note_off_c, 0, 81, 58
1, 202702, Note_on_c, 0, 71, 61
1, 202703, Note_on_c, 0, 55, 49
1, 202706, Note_on_c, 0, 62, 46
1, 202738, Note_off_c, 0, 71, 60
1, 202784, Note_on_c, 0, 79, 45
1, 202828, Note_off_c, 0, 79, 52
1, 202870, Note_on_c, 0, 78, 44
1, 202902, Note_off_c, 0, 78, 55
1, 202924, Note_on_c, 0, 79, 64
1, 202985, Note_off_c, 0, 62, 55
1, 202997, Note_off_c, 0, 79, 59
1, 203030, Note_on_c, 0, 76, 66
1, 203033, Note_off_c, 0, 55, 58
1, 203076, Note_off_c, 0, 76, 60
1, 203101, Note_on_c, 0, 79, 63
1, 203163, Note_off_c, 0, 79, 60
1, 203188, Note_on_c, 0, 74, 79
1, 203248, Note_off_c, 0, 74, 62
1, 203273, Note_on_c, 0, 79, 75
1, 203307, Control_c, 0, 67, 124
1, 203322, Control_c, 0, 67, 121
1, 203332, Note_off_c, 0, 79, 62
1, 203337, Control_c, 0, 67, 119
1, 203352, Control_c, 0, 67, 116
1, 203352, Note_on_c, 0, 72, 74
1, 203367, Control_c, 0, 67, 113
1, 203382, Control_c, 0, 67, 110
1, 203397, Control_c, 0, 67, 107
1, 203400, Note_off_c, 0, 72, 63
1, 203411, Control_c, 0, 67, 104
1, 203426, Control_c, 0, 67, 102
1, 203430, Note_on_c, 0, 79, 74
1, 203441, Control_c, 0, 67, 100
1, 203455, Control_c, 0, 67, 97
1, 203470, Control_c, 0, 67, 96
1, 203484, Note_off_c, 0, 79, 62
1, 203485, Control_c, 0, 67, 95
1, 203500, Control_c, 0, 67, 94
1, 203511, Note_on_c, 0, 71, 69
1, 203529, Control_c, 0, 67, 93
1, 203543, Note_off_c, 0, 71, 64
1, 203585, Note_on_c, 0, 79, 67
1, 203635, Note_off_c, 0, 79, 57
1, 203647, Control_c, 0, 67, 94
1, 203671, Note_on_c, 0, 52, 46
1, 203675, Note_on_c, 0, 48, 39
1, 203675, Note_on_c, 0, 57, 43
1, 203677, Note_on_c, 0, 69, 57
1, 203692, Control_c, 0, 67, 94
1, 203712, Note_off_c, 0, 69, 62
1, 203737, Control_c, 0, 67, 95
1, 203754, Note_on_c, 0, 79, 57
1, 203781, Control_c, 0, 67, 95
1, 203814, Note_off_c, 0, 79, 55
1, 203833, Note_on_c, 0, 78, 60
1, 203900, Control_c, 0, 67, 96
1, 203908, Note_off_c, 0, 78, 59
1, 203924, Note_on_c, 0, 79, 65
1, 203945, Note_off_c, 0, 57, 59
1, 203948, Note_off_c, 0, 52, 61
1, 203976, Note_off_c, 0, 48, 56
1, 203984, Note_off_c, 0, 79, 54
1, 203998, Control_c, 0, 67, 95
1, 204008, Note_on_c, 0, 76, 73
1, 204049, Note_off_c, 0, 76, 54
1, 204081, Note_on_c, 0, 79, 69
1, 204139, Note_off_c, 0, 79, 61
1, 204165, Note_on_c, 0, 74, 81
1, 204216, Note_off_c, 0, 74, 61
1, 204240, Note_on_c, 0, 79, 71
1, 204304, Note_off_c, 0, 79, 60
1, 204309, Control_c, 0, 67, 95
1, 204319, Note_on_c, 0, 72, 74
1, 204363, Note_off_c, 0, 72, 63
1, 204392, Note_on_c, 0, 79, 72
1, 204448, Note_off_c, 0, 79, 62
1, 204471, Note_on_c, 0, 71, 66
1, 204506, Note_off_c, 0, 71, 63
1, 204546, Note_on_c, 0, 79, 65
1, 204598, Note_off_c, 0, 79, 59
1, 204622, Note_on_c, 0, 69, 70
1, 204625, Note_on_c, 0, 50, 65
1, 204649, Note_off_c, 0, 69, 61
1, 204716, Note_on_c, 0, 83, 77
1, 204732, Note_off_c, 0, 50, 64
1, 204796, Note_on_c, 0, 81, 76
1, 204812, Note_off_c, 0, 83, 61
1, 204873, Note_on_c, 0, 79, 80
1, 204901, Note_off_c, 0, 81, 62
1, 204944, Note_off_c, 0, 79, 62
1, 204946, Note_on_c, 0, 38, 70
1, 204950, Note_on_c, 0, 78, 77
1, 205013, Control_c, 0, 67, 95
1, 205015, Note_off_c, 0, 38, 60
1, 205036, Note_on_c, 0, 79, 79
1, 205039, Note_off_c, 0, 78, 60
1, 205096, Note_off_c, 0, 79, 63
1, 205113, Note_on_c, 0, 81, 73
1, 205197, Note_on_c, 0, 79, 75
1, 205200, Note_off_c, 0, 81, 58
1, 205251, Note_off_c, 0, 79, 63
1, 205267, Note_on_c, 0, 50, 69
1, 205276, Note_on_c, 0, 78, 75
1, 205304, Note_off_c, 0, 50, 65
1, 205324, Control_c, 0, 67, 96
1, 205340, Note_off_c, 0, 78, 61
1, 205353, Note_on_c, 0, 79, 64
1, 205417, Note_off_c, 0, 79, 58
1, 205433, Note_on_c, 0, 76, 60
1, 205504, Note_off_c, 0, 76, 54
1, 205505, Note_on_c, 0, 78, 64
1, 205558, Note_off_c, 0, 78, 59
1, 205597, Note_on_c, 0, 79, 67
1, 205611, Note_on_c, 0, 47, 45
1, 205615, Note_on_c, 0, 50, 37
1, 205617, Note_on_c, 0, 43, 42
1, 205695, Note_on_c, 0, 74, 64
1, 205703, Note_off_c, 0, 79, 61
1, 205740, Note_off_c, 0, 74, 65
1, 205770, Note_on_c, 0, 72, 69
1, 205834, Note_off_c, 0, 72, 59
1, 205841, Note_on_c, 0, 74, 75
1, 205896, Note_off_c, 0, 74, 63
1, 205916, Note_on_c, 0, 71, 72
1, 205936, Note_off_c, 0, 50, 66
1, 205946, Note_off_c, 0, 43, 57
1, 205951, Note_off_c, 0, 71, 60
1, 205958, Note_off_c, 0, 47, 65
1, 205992, Note_on_c, 0, 72, 68
1, 206034, Note_off_c, 0, 72, 65
1, 206068, Note_on_c, 0, 69, 57
1, 206088, Note_off_c, 0, 69, 63
1, 206126, Note_on_c, 0, 71, 67
1, 206147, Control_c, 0, 67, 95
1, 206162, Control_c, 0, 67, 95
1, 206184, Note_off_c, 0, 71, 60
1, 206212, Note_on_c, 0, 67, 61
1, 206288, Note_on_c, 0, 62, 60
1, 206330, Note_off_c, 0, 67, 58
1, 206333, Control_c, 0, 67, 94
1, 206336, Note_off_c, 0, 62, 54
1, 206367, Note_on_c, 0, 60, 64
1, 206402, Note_off_c, 0, 60, 65
1, 206407, Control_c, 0, 67, 94
1, 206445, Note_on_c, 0, 62, 62
1, 206475, Note_off_c, 0, 62, 64
1, 206523, Note_on_c, 0, 67, 73
1, 206524, Note_on_c, 0, 59, 58
1, 206526, Control_c, 0, 67, 94
1, 206546, Note_off_c, 0, 67, 68
1, 206548, Note_off_c, 0, 59, 59
1, 206596, Note_on_c, 0, 62, 47
1, 206599, Control_c, 0, 67, 95
1, 206644, Control_c, 0, 67, 95
1, 206653, Note_off_c, 0, 62, 60
1, 206673, Control_c, 0, 67, 96
1, 206688, Note_on_c, 0, 55, 55
1, 206688, Note_on_c, 0, 71, 66
1, 206711, Note_off_c, 0, 55, 59
1, 206716, Note_off_c, 0, 71, 66
1, 206768, Note_on_c, 0, 62, 59
1, 206807, Control_c, 0, 67, 95
1, 206809, Note_off_c, 0, 62, 59
1, 206852, Control_c, 0, 67, 95
1, 206859, Note_on_c, 0, 74, 72
1, 206864, Note_on_c, 0, 55, 54
1, 206869, Note_on_c, 0, 50, 60
1, 206872, Note_on_c, 0, 47, 55
1, 206915, Note_off_c, 0, 74, 59
1, 206932, Note_on_c, 0, 62, 61
1, 206998, Note_off_c, 0, 62, 57
1, 207028, Note_on_c, 0, 71, 70
1, 207036, Control_c, 0, 67, 94
1, 207066, Control_c, 0, 67, 94
1, 207068, Note_off_c, 0, 71, 56
1, 207096, Control_c, 0, 67, 93
1, 207108, Note_on_c, 0, 62, 62
1, 207111, Control_c, 0, 67, 92
1, 207126, Control_c, 0, 67, 91
1, 207141, Control_c, 0, 67, 89
1, 207152, Note_off_c, 0, 62, 59
1, 207156, Control_c, 0, 67, 82
1, 207168, Note_off_c, 0, 55, 64
1, 207171, Control_c, 0, 67, 75
1, 207185, Control_c, 0, 67, 70
1, 207186, Note_off_c, 0, 50, 65
1, 207191, Note_off_c, 0, 47, 64
1, 207193, Note_on_c, 0, 67, 74
1, 207200, Control_c, 0, 67, 65
1, 207215, Control_c, 0, 67, 62
1, 207228, Note_off_c, 0, 67, 62
1, 207230, Control_c, 0, 67, 61
1, 207263, Note_on_c, 0, 62, 57
1, 207301, Note_off_c, 0, 62, 62
1, 207333, Note_on_c, 0, 43, 69
1, 207336, Note_on_c, 0, 71, 71
1, 207362, Note_off_c, 0, 43, 65
1, 207378, Note_off_c, 0, 71, 61
1, 207416, Note_on_c, 0, 62, 52
1, 207455, Note_off_c, 0, 62, 62
1, 207497, Note_on_c, 0, 69, 60
1, 207498, Note_on_c, 0, 54, 70
1, 207498, Note_on_c, 0, 57, 59
1, 207520, Note_off_c, 0, 57, 62
1, 207533, Note_off_c, 0, 54, 67
1, 207535, Note_off_c, 0, 69, 58
1, 207568, Note_on_c, 0, 62, 59
1, 207626, Note_off_c, 0, 62, 59
1, 207672, Note_on_c, 0, 66, 62
1, 207716, Note_off_c, 0, 66, 63
1, 207755, Note_on_c, 0, 62, 56
1, 207810, Note_off_c, 0, 62, 57
1, 207850, Note_on_c, 0, 50, 52
1, 207851, Note_on_c, 0, 69, 66
1, 207856, Note_on_c, 0, 42, 49
1, 207856, Note_on_c, 0, 45, 53
1, 207886, Note_off_c, 0, 69, 59
1, 207934, Note_on_c, 0, 62, 54
1, 207968, Note_off_c, 0, 62, 64
1, 207979, Control_c, 0, 67, 62
1, 208010, Note_on_c, 0, 74, 71
1, 208053, Note_off_c, 0, 74, 58
1, 208080, Note_on_c, 0, 62, 51
1, 208131, Note_off_c, 0, 62, 57
1, 208151, Note_off_c, 0, 50, 65
1, 208163, Note_on_c, 0, 69, 70
1, 208166, Note_off_c, 0, 45, 65
1, 208171, Control_c, 0, 67, 62
1, 208172, Note_off_c, 0, 42, 63
1, 208200, Note_off_c, 0, 69, 58
1, 208201, Control_c, 0, 67, 63
1, 208216, Control_c, 0, 67, 63
1, 208232, Note_on_c, 0, 62, 59
1, 208245, Control_c, 0, 67, 64
1, 208270, Note_off_c, 0, 62, 61
1, 208311, Note_on_c, 0, 66, 70
1, 208334, Control_c, 0, 67, 64
1, 208364, Note_off_c, 0, 66, 61
1, 208395, Note_on_c, 0, 62, 52
1, 208431, Note_off_c, 0, 62, 63
1, 208460, Control_c, 0, 67, 65
1, 208472, Note_on_c, 0, 59, 75
1, 208474, Note_on_c, 0, 55, 71
1, 208479, Note_on_c, 0, 67, 63
1, 208494, Note_off_c, 0, 59, 68
1, 208500, Note_off_c, 0, 55, 67
1, 208507, Note_off_c, 0, 67, 66
1, 208533, Note_on_c, 0, 62, 51
1, 208563, Note_off_c, 0, 62, 63
1, 208619, Note_on_c, 0, 76, 76
1, 208676, Note_off_c, 0, 76, 60
1, 208697, Control_c, 0, 67, 64
1, 208706, Note_on_c, 0, 67, 67
1, 208712, Control_c, 0, 67, 64
1, 208742, Control_c, 0, 67, 63
1, 208757, Control_c, 0, 67, 63
1, 208761, Note_off_c, 0, 67, 60
1, 208772, Control_c, 0, 67, 62
1, 208799, Note_on_c, 0, 73, 81
1, 208801, Control_c, 0, 67, 62
1, 208807, Note_on_c, 0, 52, 61
1, 208807, Note_on_c, 0, 55, 57
1, 208807, Note_on_c, 0, 61, 59
1, 208831, Control_c, 0, 67, 61
1, 208858, Note_off_c, 0, 73, 63
1, 208861, Control_c, 0, 67, 61
1, 208873, Note_on_c, 0, 69, 76
1, 208876, Control_c, 0, 67, 60
1, 208891, Control_c, 0, 67, 60
1, 208920, Control_c, 0, 67, 59
1, 208935, Control_c, 0, 67, 59
1, 208937, Note_off_c, 0, 69, 61
1, 208950, Control_c, 0, 67, 57
1, 208965, Control_c, 0, 67, 53
1, 208972, Note_on_c, 0, 76, 83
1, 208980, Control_c, 0, 67, 49
1, 208994, Control_c, 0, 67, 45
1, 209009, Control_c, 0, 67, 42
1, 209024, Control_c, 0, 67, 39
1, 209031, Note_off_c, 0, 76, 64
1, 209039, Control_c, 0, 67, 36
1, 209041, Note_on_c, 0, 69, 76
1, 209054, Control_c, 0, 67, 32
1, 209068, Control_c, 0, 67, 27
1, 209083, Control_c, 0, 67, 20
1, 209098, Control_c, 0, 67, 15
1, 209101, Note_off_c, 0, 69, 62
1, 209113, Control_c, 0, 67, 10
1, 209124, Note_on_c, 0, 79, 83
1, 209125, Note_off_c, 0, 52, 57
1, 209128, Control_c, 0, 67, 0
1, 209139, Note_off_c, 0, 61, 62
1, 209153, Note_off_c, 0, 55, 64
1, 209200, Note_on_c, 0, 69, 76
1, 209205, Note_off_c, 0, 79, 61
1, 209262, Note_off_c, 0, 69, 62
1, 209299, Note_on_c, 0, 76, 82
1, 209353, Note_off_c, 0, 76, 62
1, 209363, Note_on_c, 0, 69, 76
1, 209433, Note_off_c, 0, 69, 62
1, 209452, Note_on_c, 0, 54, 71
1, 209453, Note_on_c, 0, 62, 64
1, 209454, Note_on_c, 0, 78, 80
1, 209463, Note_on_c, 0, 57, 64
1, 209479, Note_off_c, 0, 62, 65
1, 209494, Note_off_c, 0, 57, 64
1, 209512, Note_off_c, 0, 78, 64
1, 209514, Note_off_c, 0, 54, 65
1, 209534, Note_on_c, 0, 69, 76
1, 209613, Note_off_c, 0, 69, 61
1, 209630, Note_on_c, 0, 74, 89
1, 209693, Note_off_c, 0, 74, 66
1, 209710, Note_on_c, 0, 69, 76
1, 209776, Note_off_c, 0, 69, 61
1, 209801, Note_on_c, 0, 78, 83
1, 209809, Note_on_c, 0, 54, 64
1, 209809, Note_on_c, 0, 57, 60
1, 209811, Note_on_c, 0, 48, 65
1, 209851, Note_off_c, 0, 78, 62
1, 209879, Note_on_c, 0, 69, 74
1, 209946, Note_off_c, 0, 69, 60
1, 209974, Note_on_c, 0, 81, 80
1, 210032, Note_off_c, 0, 81, 61
1, 210051, Note_on_c, 0, 69, 76
1, 210117, Note_off_c, 0, 69, 61
1, 210132, Note_on_c, 0, 78, 84
1, 210143, Note_off_c, 0, 57, 62
1, 210154, Note_off_c, 0, 48, 62
1, 210180, Note_off_c, 0, 54, 65
1, 210204, Note_off_c, 0, 78, 59
1, 210214, Note_on_c, 0, 69, 70
1, 210272, Note_off_c, 0, 69, 61
1, 210297, Note_on_c, 0, 74, 82
1, 210358, Note_off_c, 0, 74, 65
1, 210377, Note_on_c, 0, 69, 69
1, 210419, Note_off_c, 0, 69, 62
1, 210453, Note_on_c, 0, 55, 73
1, 210453, Note_on_c, 0, 47, 66
1, 210456, Note_on_c, 0, 79, 72
1, 210462, Note_on_c, 0, 50, 73
1, 210490, Note_off_c, 0, 55, 65
1, 210499, Note_off_c, 0, 79, 60
1, 210506, Note_off_c, 0, 47, 64
1, 210522, Note_off_c, 0, 50, 66
1, 210530, Note_on_c, 0, 67, 71
1, 210594, Note_off_c, 0, 67, 59
1, 210622, Note_on_c, 0, 74, 81
1, 210681, Note_off_c, 0, 74, 65
1, 210707, Note_on_c, 0, 67, 70
1, 210781, Note_off_c, 0, 67, 58
1, 210799, Note_on_c, 0, 71, 77
1, 210805, Note_on_c, 0, 55, 72
1, 210811, Note_on_c, 0, 50, 65
1, 210813, Note_on_c, 0, 47, 65
1, 210867, Note_off_c, 0, 71, 64
1, 210884, Note_on_c, 0, 67, 78
1, 210941, Note_off_c, 0, 67, 61
1, 210966, Note_on_c, 0, 74, 85
1, 211019, Note_off_c, 0, 74, 64
1, 211045, Note_on_c, 0, 67, 77
1, 211110, Note_off_c, 0, 67, 60
1, 211132, Note_off_c, 0, 55, 64
1, 211135, Note_off_c, 0, 47, 64
1, 211136, Note_on_c, 0, 79, 81
1, 211162, Note_off_c, 0, 50, 65
1, 211186, Note_off_c, 0, 79, 61
1, 211196, Control_c, 0, 67, 8
1, 211211, Control_c, 0, 67, 9
1, 211214, Note_on_c, 0, 67, 71
1, 211226, Control_c, 0, 67, 9
1, 211240, Control_c, 0, 67, 10
1, 211255, Control_c, 0, 67, 11
1, 211269, Control_c, 0, 67, 12
1, 211271, Note_off_c, 0, 67, 57
1, 211284, Control_c, 0, 67, 16
1, 211293, Note_on_c, 0, 74, 75
1, 211299, Control_c, 0, 67, 20
1, 211314, Control_c, 0, 67, 23
1, 211329, Control_c, 0, 67, 27
1, 211339, Note_off_c, 0, 74, 63
1, 211344, Control_c, 0, 67, 33
1, 211359, Control_c, 0, 67, 40
1, 211374, Control_c, 0, 67, 52
1, 211383, Note_on_c, 0, 67, 59
1, 211388, Control_c, 0, 67, 65
1, 211403, Control_c, 0, 67, 77
1, 211418, Control_c, 0, 67, 86
1, 211418, Note_off_c, 0, 67, 62
1, 211440, Control_c, 0, 67, 93
1, 211455, Control_c, 0, 67, 99
1, 211458, Note_on_c, 0, 55, 52
1, 211462, Note_on_c, 0, 48, 58
1, 211462, Note_on_c, 0, 52, 57
1, 211468, Note_on_c, 0, 76, 71
1, 211469, Control_c, 0, 67, 104
1, 211481, Note_off_c, 0, 55, 62
1, 211484, Control_c, 0, 67, 108
1, 211499, Control_c, 0, 67, 110
1, 211504, Note_off_c, 0, 52, 64
1, 211506, Note_off_c, 0, 76, 59
1, 211514, Control_c, 0, 67, 110
1, 211525, Note_off_c, 0, 48, 63
1, 211549, Note_on_c, 0, 67, 57
1, 211590, Note_off_c, 0, 67, 60
1, 211618, Control_c, 0, 67, 110
1, 211633, Control_c, 0, 67, 109
1, 211635, Note_on_c, 0, 69, 69
1, 211648, Control_c, 0, 67, 109
1, 211662, Control_c, 0, 67, 108
1, 211677, Control_c, 0, 67, 107
1, 211681, Note_off_c, 0, 69, 60
1, 211692, Control_c, 0, 67, 107
1, 211707, Control_c, 0, 67, 106
1, 211713, Note_on_c, 0, 67, 60
1, 211722, Control_c, 0, 67, 105
1, 211736, Control_c, 0, 67, 105
1, 211751, Control_c, 0, 67, 104
1, 211766, Control_c, 0, 67, 104
1, 211769, Note_off_c, 0, 67, 56
1, 211781, Control_c, 0, 67, 103
1, 211795, Note_on_c, 0, 72, 70
1, 211795, Control_c, 0, 67, 103
1, 211806, Note_on_c, 0, 36, 52
1, 211810, Control_c, 0, 67, 102
1, 211824, Note_off_c, 0, 72, 62
1, 211825, Control_c, 0, 67, 102
1, 211875, Note_on_c, 0, 67, 59
1, 211913, Note_off_c, 0, 67, 61
1, 211954, Note_on_c, 0, 76, 70
1, 211983, Note_off_c, 0, 76, 64
1, 212038, Note_on_c, 0, 67, 52
1, 212062, Note_off_c, 0, 67, 60
1, 212110, Note_on_c, 0, 72, 66
1, 212113, Note_off_c, 0, 36, 61
1, 212151, Note_off_c, 0, 72, 56
1, 212175, Note_on_c, 0, 64, 56
1, 212204, Control_c, 0, 67, 102
1, 212220, Note_off_c, 0, 64, 65
1, 212270, Note_on_c, 0, 69, 58
1, 212313, Note_off_c, 0, 69, 55
1, 212348, Note_on_c, 0, 64, 54
1, 212386, Note_off_c, 0, 64, 65
1, 212426, Note_on_c, 0, 50, 62
1, 212433, Note_on_c, 0, 66, 52
1, 212458, Note_off_c, 0, 50, 67
1, 212486, Note_off_c, 0, 66, 57
1, 212506, Note_on_c, 0, 62, 58
1, 212530, Control_c, 0, 67, 102
1, 212568, Note_off_c, 0, 62, 59
1, 212574, Control_c, 0, 67, 101
1, 212604, Control_c, 0, 67, 101
1, 212605, Note_on_c, 0, 69, 64
1, 212633, Control_c, 0, 67, 100
1, 212644, Note_off_c, 0, 69, 54
1, 212663, Control_c, 0, 67, 100
1, 212685, Note_on_c, 0, 62, 56
1, 212692, Control_c, 0, 67, 99
1, 212708, Control_c, 0, 67, 99
1, 212723, Control_c, 0, 67, 98
1, 212732, Note_off_c, 0, 62, 58
1, 212753, Control_c, 0, 67, 98
1, 212780, Note_on_c, 0, 74, 69
1, 212784, Note_on_c, 0, 38, 58
1, 212812, Control_c, 0, 67, 97
1, 212831, Note_off_c, 0, 74, 61
1, 212856, Note_on_c, 0, 62, 62
1, 212920, Note_off_c, 0, 62, 60
1, 212953, Control_c, 0, 67, 98
1, 212960, Note_on_c, 0, 69, 66
1, 213002, Note_off_c, 0, 69, 57
1, 213036, Note_off_c, 0, 38, 63
1, 213038, Note_on_c, 0, 62, 66
1, 213103, Note_off_c, 0, 62, 60
1, 213122, Note_on_c, 0, 66, 66
1, 213152, Note_off_c, 0, 66, 63
1, 213189, Note_on_c, 0, 62, 53
1, 213243, Note_off_c, 0, 62, 59
1, 213278, Note_on_c, 0, 72, 68
1, 213281, Note_on_c, 0, 54, 61
1, 213308, Control_c, 0, 67, 98
1, 213312, Note_off_c, 0, 54, 63
1, 213319, Note_off_c, 0, 72, 59
1, 213353, Control_c, 0, 67, 99
1, 213365, Note_on_c, 0, 62, 51
1, 213397, Control_c, 0, 67, 99
1, 213408, Note_off_c, 0, 62, 59
1, 213442, Note_on_c, 0, 55, 68
1, 213445, Note_on_c, 0, 71, 67
1, 213487, Note_off_c, 0, 71, 62
1, 213492, Note_off_c, 0, 55, 63
1, 213526, Note_on_c, 0, 62, 52
1, 213546, Control_c, 0, 67, 99
1, 213590, Control_c, 0, 67, 98
1, 213599, Note_off_c, 0, 62, 60
1, 213617, Note_on_c, 0, 67, 68
1, 213635, Control_c, 0, 67, 98
1, 213672, Note_off_c, 0, 67, 58
1, 213702, Control_c, 0, 67, 97
1, 213711, Note_on_c, 0, 62, 54
1, 213768, Note_off_c, 0, 62, 59
1, 213799, Note_on_c, 0, 71, 66
1, 213815, Note_on_c, 0, 43, 47
1, 213833, Note_off_c, 0, 71, 60
1, 213884, Note_on_c, 0, 62, 58
1, 213921, Note_off_c, 0, 62, 61
1, 213953, Control_c, 0, 67, 98
1, 213967, Note_on_c, 0, 74, 69
1, 214006, Note_off_c, 0, 74, 62
1, 214042, Note_on_c, 0, 62, 56
1, 214090, Note_off_c, 0, 62, 59
1, 214122, Note_off_c, 0, 43, 62
1, 214125, Note_on_c, 0, 71, 68
1, 214160, Note_off_c, 0, 71, 59
1, 214161, Control_c, 0, 67, 98
1, 214200, Note_on_c, 0, 62, 58
1, 214232, Note_off_c, 0, 62, 63
1, 214281, Note_on_c, 0, 67, 63
1, 214319, Note_off_c, 0, 67, 61
1, 214346, Note_on_c, 0, 62, 38
1, 214399, Control_c, 0, 67, 99
1, 214415, Note_off_c, 0, 62, 59
1, 214425, Note_on_c, 0, 43, 49
1, 214435, Control_c, 0, 67, 99
1, 214442, Note_on_c, 0, 71, 56
1, 214445, Note_on_c, 0, 67, 62
1, 214450, Control_c, 0, 67, 100
1, 214465, Control_c, 0, 67, 100
1, 214495, Control_c, 0, 67, 101
1, 214515, Note_off_c, 0, 43, 57
1, 214531, Note_on_c, 0, 47, 49
1, 214574, Note_off_c, 0, 67, 60
1, 214589, Note_off_c, 0, 47, 63
1, 214589, Note_off_c, 0, 71, 61
1, 214602, Note_on_c, 0, 50, 60
1, 214666, Note_off_c, 0, 50, 59
1, 214690, Note_on_c, 0, 55, 65
1, 214702, Control_c, 0, 67, 100
1, 214725, Note_off_c, 0, 55, 62
1, 214746, Control_c, 0, 67, 100
1, 214779, Note_on_c, 0, 43, 65
1, 214784, Note_on_c, 0, 71, 66
1, 214796, Note_on_c, 0, 67, 54
1, 214806, Control_c, 0, 67, 99
1, 214860, Note_off_c, 0, 43, 63
1, 214872, Note_on_c, 0, 47, 64
1, 214944, Note_off_c, 0, 47, 64
1, 214950, Note_on_c, 0, 50, 66
1, 215012, Note_off_c, 0, 50, 64
1, 215032, Note_on_c, 0, 55, 70
1, 215058, Control_c, 0, 67, 99
1, 215068, Note_off_c, 0, 55, 64
1, 215102, Control_c, 0, 67, 98
1, 215110, Note_on_c, 0, 43, 75
1, 215111, Note_off_c, 0, 67, 62
1, 215113, Note_off_c, 0, 71, 59
1, 215118, Control_c, 0, 67, 98
1, 215147, Control_c, 0, 67, 97
1, 215162, Control_c, 0, 67, 96
1, 215177, Control_c, 0, 67, 96
1, 215191, Note_on_c, 0, 47, 72
1, 215198, Note_off_c, 0, 43, 60
1, 215199, Control_c, 0, 67, 94
1, 215214, Control_c, 0, 67, 90
1, 215229, Control_c, 0, 67, 83
1, 215243, Control_c, 0, 67, 76
1, 215258, Control_c, 0, 67, 70
1, 215269, Note_on_c, 0, 50, 66
1, 215269, Note_off_c, 0, 47, 64
1, 215273, Control_c, 0, 67, 64
1, 215278, Note_on_c, 0, 71, 69
1, 215279, Note_on_c, 0, 67, 66
1, 215288, Control_c, 0, 67, 60
1, 215303, Control_c, 0, 67, 56
1, 215305, Note_off_c, 0, 67, 66
1, 215311, Note_off_c, 0, 50, 64
1, 215317, Control_c, 0, 67, 51
1, 215318, Note_off_c, 0, 71, 62
1, 215332, Control_c, 0, 67, 46
1, 215347, Control_c, 0, 67, 42
1, 215349, Note_on_c, 0, 55, 68
1, 215362, Control_c, 0, 67, 40
1, 215377, Control_c, 0, 67, 37
1, 215392, Note_off_c, 0, 55, 63
1, 215392, Control_c, 0, 67, 35
1, 215407, Control_c, 0, 67, 34
1, 215422, Control_c, 0, 67, 33
1, 215436, Control_c, 0, 67, 32
1, 215445, Note_on_c, 0, 69, 65
1, 215448, Note_on_c, 0, 50, 62
1, 215451, Control_c, 0, 67, 31
1, 215454, Note_on_c, 0, 66, 63
1, 215466, Control_c, 0, 67, 30
1, 215481, Control_c, 0, 67, 30
1, 215496, Control_c, 0, 67, 29
1, 215510, Control_c, 0, 67, 29
1, 215527, Note_on_c, 0, 54, 65
1, 215550, Note_off_c, 0, 50, 53
1, 215609, Note_off_c, 0, 66, 61
1, 215609, Note_off_c, 0, 69, 61
1, 215613, Note_on_c, 0, 57, 73
1, 215628, Control_c, 0, 67, 28
1, 215629, Note_off_c, 0, 54, 60
1, 215643, Control_c, 0, 67, 27
1, 215658, Control_c, 0, 67, 24
1, 215673, Control_c, 0, 67, 20
1, 215681, Note_off_c, 0, 57, 60
1, 215688, Control_c, 0, 67, 16
1, 215701, Note_on_c, 0, 62, 71
1, 215703, Control_c, 0, 67, 12
1, 215717, Control_c, 0, 67, 8
1, 215732, Control_c, 0, 67, 0
1, 215733, Note_off_c, 0, 62, 61
1, 215782, Note_on_c, 0, 66, 73
1, 215784, Note_on_c, 0, 74, 82
1, 215788, Note_on_c, 0, 50, 71
1, 215875, Note_on_c, 0, 54, 68
1, 215876, Note_off_c, 0, 50, 62
1, 215952, Note_on_c, 0, 57, 71
1, 215964, Note_off_c, 0, 54, 61
1, 216030, Note_off_c, 0, 57, 58
1, 216036, Note_on_c, 0, 62, 79
1, 216069, Note_off_c, 0, 66, 62
1, 216073, Note_off_c, 0, 62, 59
1, 216079, Note_off_c, 0, 74, 65
1, 216099, Note_on_c, 0, 50, 79
1, 216180, Note_on_c, 0, 54, 71
1, 216213, Note_off_c, 0, 50, 60
1, 216239, Note_on_c, 0, 57, 73
1, 216241, Note_on_c, 0, 74, 94
1, 216256, Note_off_c, 0, 54, 65
1, 216283, Note_off_c, 0, 74, 64
1, 216289, Control_c, 0, 64, 14
1, 216304, Control_c, 0, 64, 19
1, 216311, Note_off_c, 0, 57, 63
1, 216319, Control_c, 0, 64, 23
1, 216333, Control_c, 0, 64, 27
1, 216337, Note_on_c, 0, 62, 72
1, 216348, Control_c, 0, 64, 32
1, 216363, Control_c, 0, 64, 36
1, 216377, Control_c, 0, 64, 37
1, 216379, Note_off_c, 0, 62, 56
1, 216392, Control_c, 0, 64, 38
1, 216399, Note_on_c, 0, 76, 88
1, 216407, Note_on_c, 0, 67, 76
1, 216411, Note_on_c, 0, 73, 77
1, 216420, Note_on_c, 0, 52, 78
1, 216422, Control_c, 0, 64, 37
1, 216437, Control_c, 0, 64, 36
1, 216451, Control_c, 0, 64, 32
1, 216466, Control_c, 0, 64, 29
1, 216482, Control_c, 0, 64, 27
1, 216500, Note_on_c, 0, 55, 71
1, 216525, Note_off_c, 0, 52, 54
1, 216542, Note_off_c, 0, 67, 60
1, 216556, Control_c, 0, 64, 29
1, 216571, Control_c, 0, 64, 30
1, 216573, Note_off_c, 0, 76, 61
1, 216578, Note_off_c, 0, 73, 62
1, 216580, Note_on_c, 0, 61, 82
1, 216585, Control_c, 0, 64, 31
1, 216599, Note_off_c, 0, 55, 58
1, 216600, Control_c, 0, 64, 34
1, 216615, Control_c, 0, 64, 38
1, 216630, Control_c, 0, 64, 42
1, 216645, Control_c, 0, 64, 45
1, 216656, Note_off_c, 0, 61, 59
1, 216659, Control_c, 0, 64, 47
1, 216670, Note_on_c, 0, 64, 76
1, 216682, Control_c, 0, 64, 48
1, 216697, Control_c, 0, 64, 49
1, 216712, Control_c, 0, 64, 50
1, 216718, Note_off_c, 0, 64, 58
1, 216727, Control_c, 0, 64, 50
1, 216753, Note_on_c, 0, 79, 84
1, 216755, Note_on_c, 0, 73, 79
1, 216755, Note_on_c, 0, 76, 77
1, 216757, Note_on_c, 0, 69, 77
1, 216760, Note_on_c, 0, 52, 77
1, 216772, Control_c, 0, 64, 50
1, 216787, Control_c, 0, 64, 49
1, 216802, Control_c, 0, 64, 49
1, 216816, Control_c, 0, 64, 48
1, 216831, Control_c, 0, 64, 47
1, 216839, Note_on_c, 0, 55, 72
1, 216846, Control_c, 0, 64, 46
1, 216855, Note_off_c, 0, 52, 51
1, 216861, Control_c, 0, 64, 46
1, 216890, Control_c, 0, 64, 45
1, 216920, Control_c, 0, 64, 45
1, 216921, Note_on_c, 0, 61, 79
1, 216934, Note_off_c, 0, 55, 56
1, 216964, Control_c, 0, 64, 45
1, 216979, Control_c, 0, 64, 46
1, 216994, Control_c, 0, 64, 47
1, 216999, Note_on_c, 0, 64, 78
1, 217002, Note_off_c, 0, 61, 62
1, 217008, Control_c, 0, 64, 48
1, 217023, Control_c, 0, 64, 49
1, 217038, Control_c, 0, 64, 49
1, 217049, Note_off_c, 0, 64, 62
1, 217079, Note_on_c, 0, 52, 80
1, 217112, Note_off_c, 0, 73, 60
1, 217124, Note_off_c, 0, 69, 58
1, 217131, Note_off_c, 0, 76, 60
1, 217136, Note_off_c, 0, 79, 61
1, 217142, Control_c, 0, 64, 49
1, 217148, Note_on_c, 0, 55, 71
1, 217180, Note_off_c, 0, 52, 56
1, 217201, Control_c, 0, 64, 48
1, 217219, Note_on_c, 0, 61, 79
1, 217231, Note_off_c, 0, 55, 59
1, 217238, Note_on_c, 0, 79, 77
1, 217242, Note_on_c, 0, 69, 68
1, 217255, Note_on_c, 0, 76, 65
1, 217260, Control_c, 0, 64, 49
1, 217267, Note_off_c, 0, 69, 66
1, 217274, Control_c, 0, 64, 49
1, 217276, Note_off_c, 0, 61, 63
1, 217287, Note_off_c, 0, 76, 63
1, 217289, Control_c, 0, 64, 50
1, 217291, Note_off_c, 0, 79, 58
1, 217299, Note_on_c, 0, 64, 71
1, 217319, Control_c, 0, 64, 50
1, 217325, Note_off_c, 0, 64, 69
1, 217348, Control_c, 0, 64, 51
1, 217393, Control_c, 0, 64, 50
1, 217404, Note_on_c, 0, 78, 78
1, 217407, Note_on_c, 0, 50, 65
1, 217407, Control_c, 0, 64, 46
1, 217410, Note_on_c, 0, 76, 67
1, 217413, Note_on_c, 0, 69, 63
1, 217430, Control_c, 0, 64, 28
1, 217445, Control_c, 0, 64, 0
1, 217491, Note_off_c, 0, 50, 59
1, 217493, Note_on_c, 0, 54, 64
1, 217556, Note_off_c, 0, 69, 58
1, 217569, Note_on_c, 0, 57, 66
1, 217578, Note_off_c, 0, 76, 60
1, 217581, Note_off_c, 0, 54, 60
1, 217599, Note_off_c, 0, 78, 62
1, 217645, Note_off_c, 0, 57, 55
1, 217653, Note_on_c, 0, 62, 71
1, 217687, Note_off_c, 0, 62, 61
1, 217747, Note_on_c, 0, 74, 84
1, 217750, Note_on_c, 0, 50, 69
1, 217756, Note_on_c, 0, 69, 66
1, 217823, Note_off_c, 0, 50, 62
1, 217830, Note_on_c, 0, 54, 65
1, 217901, Note_on_c, 0, 57, 65
1, 217904, Note_off_c, 0, 54, 63
1, 217972, Note_off_c, 0, 57, 59
1, 217987, Note_on_c, 0, 62, 71
1, 218019, Note_off_c, 0, 62, 64
1, 218060, Note_on_c, 0, 50, 78
1, 218060, Note_off_c, 0, 69, 58
1, 218068, Control_c, 0, 64, 11
1, 218083, Control_c, 0, 64, 14
1, 218090, Note_off_c, 0, 74, 64
1, 218112, Control_c, 0, 64, 17
1, 218127, Control_c, 0, 64, 19
1, 218137, Note_on_c, 0, 54, 70
1, 218154, Note_off_c, 0, 50, 59
1, 218156, Control_c, 0, 64, 21
1, 218171, Control_c, 0, 64, 24
1, 218194, Control_c, 0, 64, 26
1, 218208, Note_on_c, 0, 57, 71
1, 218209, Control_c, 0, 64, 27
1, 218219, Note_on_c, 0, 74, 93
1, 218224, Control_c, 0, 64, 28
1, 218229, Note_off_c, 0, 54, 61
1, 218238, Control_c, 0, 64, 29
1, 218251, Note_off_c, 0, 74, 65
1, 218253, Control_c, 0, 64, 31
1, 218268, Control_c, 0, 64, 32
1, 218278, Note_off_c, 0, 57, 62
1, 218282, Control_c, 0, 64, 34
1, 218297, Control_c, 0, 64, 37
1, 218300, Note_on_c, 0, 62, 76
1, 218313, Control_c, 0, 64, 39
1, 218328, Note_off_c, 0, 62, 65
1, 218328, Control_c, 0, 64, 41
1, 218343, Control_c, 0, 64, 42
1, 218358, Control_c, 0, 64, 43
1, 218385, Note_on_c, 0, 79, 88
1, 218395, Note_on_c, 0, 67, 71
1, 218402, Control_c, 0, 64, 42
1, 218403, Note_on_c, 0, 47, 67
1, 218417, Control_c, 0, 64, 41
1, 218432, Control_c, 0, 64, 40
1, 218447, Control_c, 0, 64, 39
1, 218461, Control_c, 0, 64, 38
1, 218489, Note_on_c, 0, 50, 72
1, 218505, Note_off_c, 0, 47, 51
1, 218506, Control_c, 0, 64, 40
1, 218521, Control_c, 0, 64, 43
1, 218535, Control_c, 0, 64, 45
1, 218539, Note_off_c, 0, 67, 61
1, 218550, Control_c, 0, 64, 46
1, 218554, Note_off_c, 0, 79, 62
1, 218558, Note_on_c, 0, 55, 77
1, 218565, Control_c, 0, 64, 47
1, 218579, Control_c, 0, 64, 49
1, 218581, Note_off_c, 0, 50, 62
1, 218594, Control_c, 0, 64, 50
1, 218609, Control_c, 0, 64, 52
1, 218624, Control_c, 0, 64, 53
1, 218630, Note_off_c, 0, 55, 64
1, 218635, Note_on_c, 0, 59, 78
1, 218639, Control_c, 0, 64, 53
1, 218668, Note_off_c, 0, 59, 60
1, 218668, Control_c, 0, 64, 54
1, 218713, Control_c, 0, 64, 53
1, 218717, Note_on_c, 0, 74, 91
1, 218724, Note_on_c, 0, 67, 83
1, 218727, Note_on_c, 0, 47, 77
1, 218728, Control_c, 0, 64, 52
1, 218742, Control_c, 0, 64, 52
1, 218757, Control_c, 0, 64, 51
1, 218772, Control_c, 0, 64, 50
1, 218802, Control_c, 0, 64, 49
1, 218811, Note_on_c, 0, 50, 77
1, 218822, Note_off_c, 0, 47, 53
1, 218847, Control_c, 0, 64, 49
1, 218894, Note_on_c, 0, 55, 79
1, 218910, Note_off_c, 0, 50, 59
1, 218957, Control_c, 0, 64, 49
1, 218972, Control_c, 0, 64, 50
1, 218974, Note_off_c, 0, 55, 64
1, 218981, Note_on_c, 0, 59, 78
1, 219017, Note_off_c, 0, 59, 60
1, 219017, Control_c, 0, 64, 43
1, 219032, Control_c, 0, 64, 0
1, 219062, Note_on_c, 0, 47, 82
1, 219085, Note_off_c, 0, 67, 60
1, 219100, Note_off_c, 0, 74, 63
1, 219134, Note_on_c, 0, 50, 76
1, 219154, Note_off_c, 0, 47, 58
1, 219214, Note_on_c, 0, 55, 78
1, 219215, Note_on_c, 0, 74, 93
1, 219220, Note_off_c, 0, 50, 65
1, 219221, Note_on_c, 0, 67, 78
1, 219252, Note_off_c, 0, 67, 59
1, 219266, Note_off_c, 0, 74, 63
1, 219283, Note_off_c, 0, 55, 62
1, 219298, Note_on_c, 0, 59, 79
1, 219334, Note_off_c, 0, 59, 60
1, 219386, Note_on_c, 0, 76, 84
1, 219391, Note_on_c, 0, 48, 75
1, 219393, Note_on_c, 0, 67, 75
1, 219476, Note_on_c, 0, 52, 79
1, 219479, Note_off_c, 0, 48, 55
1, 219507, Control_c, 0, 64, 11
1, 219522, Control_c, 0, 64, 14
1, 219523, Note_off_c, 0, 67, 60
1, 219528, Note_off_c, 0, 76, 62
1, 219551, Control_c, 0, 64, 17
1, 219555, Note_on_c, 0, 55, 75
1, 219560, Note_off_c, 0, 52, 62
1, 219566, Control_c, 0, 64, 19
1, 219581, Control_c, 0, 64, 21
1, 219596, Control_c, 0, 64, 23
1, 219610, Control_c, 0, 64, 24
1, 219621, Note_off_c, 0, 55, 61
1, 219625, Control_c, 0, 64, 26
1, 219628, Note_on_c, 0, 60, 75
1, 219655, Control_c, 0, 64, 27
1, 219664, Note_off_c, 0, 60, 61
1, 219724, Note_on_c, 0, 48, 76
1, 219724, Note_on_c, 0, 69, 76
1, 219726, Note_on_c, 0, 64, 78
1, 219728, Note_on_c, 0, 67, 66
1, 219736, Control_c, 0, 64, 24
1, 219751, Control_c, 0, 64, 23
1, 219807, Note_off_c, 0, 48, 60
1, 219814, Note_on_c, 0, 52, 70
1, 219855, Control_c, 0, 64, 24
1, 219884, Control_c, 0, 64, 26
1, 219887, Note_off_c, 0, 52, 62
1, 219888, Note_on_c, 0, 55, 68
1, 219900, Control_c, 0, 64, 27
1, 219930, Control_c, 0, 64, 28
1, 219940, Note_off_c, 0, 55, 59
1, 219945, Control_c, 0, 64, 29
1, 219969, Note_on_c, 0, 60, 68
1, 219996, Note_off_c, 0, 60, 67
1, 220048, Note_on_c, 0, 48, 70
1, 220070, Note_off_c, 0, 64, 61
1, 220085, Note_off_c, 0, 67, 60
1, 220090, Note_off_c, 0, 69, 59
1, 220121, Note_on_c, 0, 52, 70
1, 220152, Note_off_c, 0, 48, 49
1, 220197, Note_on_c, 0, 55, 71
1, 220203, Note_off_c, 0, 52, 61
1, 220205, Note_on_c, 0, 67, 75
1, 220208, Note_on_c, 0, 72, 74
1, 220212, Control_c, 0, 64, 30
1, 220226, Control_c, 0, 64, 33
1, 220229, Note_off_c, 0, 67, 66
1, 220241, Control_c, 0, 64, 36
1, 220248, Note_off_c, 0, 72, 63
1, 220256, Note_off_c, 0, 55, 63
1, 220256, Control_c, 0, 64, 37
1, 220271, Control_c, 0, 64, 38
1, 220286, Note_on_c, 0, 60, 70
1, 220286, Control_c, 0, 64, 40
1, 220300, Control_c, 0, 64, 40
1, 220318, Note_off_c, 0, 60, 64
1, 220330, Control_c, 0, 64, 41
1, 220344, Control_c, 0, 64, 42
1, 220372, Note_on_c, 0, 71, 75
1, 220374, Control_c, 0, 64, 42
1, 220375, Note_on_c, 0, 67, 75
1, 220376, Note_on_c, 0, 50, 71
1, 220389, Control_c, 0, 64, 43
1, 220419, Control_c, 0, 64, 43
1, 220462, Note_on_c, 0, 55, 66
1, 220471, Control_c, 0, 64, 44
1, 220480, Note_off_c, 0, 50, 55
1, 220500, Control_c, 0, 64, 44
1, 220515, Control_c, 0, 64, 46
1, 220530, Control_c, 0, 64, 47
1, 220540, Note_off_c, 0, 67, 60
1, 220545, Control_c, 0, 64, 49
1, 220553, Note_on_c, 0, 59, 68
1, 220554, Note_off_c, 0, 71, 62
1, 220559, Control_c, 0, 64, 50
1, 220570, Note_off_c, 0, 55, 62
1, 220574, Control_c, 0, 64, 52
1, 220589, Control_c, 0, 64, 53
1, 220604, Control_c, 0, 64, 54
1, 220619, Note_off_c, 0, 59, 59
1, 220619, Control_c, 0, 64, 55
1, 220631, Note_on_c, 0, 62, 75
1, 220633, Control_c, 0, 64, 56
1, 220648, Control_c, 0, 64, 56
1, 220666, Note_off_c, 0, 62, 59
1, 220709, Control_c, 0, 64, 56
1, 220717, Note_on_c, 0, 69, 72
1, 220722, Note_on_c, 0, 67, 73
1, 220724, Control_c, 0, 64, 55
1, 220730, Note_on_c, 0, 50, 64
1, 220738, Control_c, 0, 64, 55
1, 220768, Control_c, 0, 64, 54
1, 220801, Note_on_c, 0, 55, 66
1, 220820, Note_off_c, 0, 50, 53
1, 220886, Note_off_c, 0, 55, 64
1, 220887, Note_on_c, 0, 57, 66
1, 220951, Note_off_c, 0, 57, 59
1, 220960, Control_c, 0, 64, 55
1, 220971, Note_off_c, 0, 67, 63
1, 220971, Note_off_c, 0, 69, 61
1, 220975, Note_on_c, 0, 62, 66
1, 221002, Note_off_c, 0, 62, 64
1, 221042, Note_on_c, 0, 50, 73
1, 221092, Control_c, 0, 64, 55
1, 221117, Note_on_c, 0, 54, 67
1, 221137, Note_off_c, 0, 50, 54
1, 221189, Control_c, 0, 64, 56
1, 221193, Note_on_c, 0, 57, 63
1, 221199, Note_on_c, 0, 74, 80
1, 221200, Note_on_c, 0, 66, 75
1, 221204, Control_c, 0, 64, 57
1, 221208, Note_off_c, 0, 54, 65
1, 221219, Control_c, 0, 64, 58
1, 221232, Note_off_c, 0, 66, 58
1, 221234, Control_c, 0, 64, 59
1, 221239, Note_off_c, 0, 74, 63
1, 221245, Note_off_c, 0, 57, 60
1, 221249, Control_c, 0, 64, 59
1, 221263, Control_c, 0, 64, 60
1, 221270, Note_on_c, 0, 62, 70
1, 221278, Control_c, 0, 64, 60
1, 221296, Note_off_c, 0, 62, 66
1, 221322, Control_c, 0, 64, 61
1, 221375, Note_on_c, 0, 71, 70
1, 221376, Note_on_c, 0, 62, 63
1, 221382, Note_on_c, 0, 43, 73
1, 221382, Note_on_c, 0, 67, 70
1, 221469, Note_on_c, 0, 47, 74
1, 221485, Control_c, 0, 64, 61
1, 221492, Note_off_c, 0, 43, 51
1, 221506, Note_off_c, 0, 62, 59
1, 221521, Note_off_c, 0, 71, 60
1, 221529, Note_off_c, 0, 67, 60
1, 221547, Note_on_c, 0, 50, 78
1, 221562, Note_off_c, 0, 47, 62
1, 221590, Control_c, 0, 64, 62
1, 221625, Note_on_c, 0, 55, 78
1, 221627, Note_off_c, 0, 50, 62
1, 221663, Note_off_c, 0, 55, 64
1, 221679, Control_c, 0, 64, 61
1, 221694, Control_c, 0, 64, 61
1, 221701, Note_on_c, 0, 43, 76
1, 221708, Note_on_c, 0, 62, 73
1, 221708, Note_on_c, 0, 67, 79
1, 221710, Note_on_c, 0, 59, 75
1, 221798, Note_off_c, 0, 43, 58
1, 221799, Note_on_c, 0, 47, 71
1, 221842, Control_c, 0, 64, 61
1, 221872, Note_off_c, 0, 47, 65
1, 221873, Note_on_c, 0, 50, 76
1, 221938, Control_c, 0, 64, 60
1, 221941, Note_off_c, 0, 50, 63
1, 221953, Control_c, 0, 64, 34
1, 221968, Control_c, 0, 64, 0
1, 221970, Note_on_c, 0, 55, 75
1, 222019, Note_off_c, 0, 55, 58
1, 222041, Note_on_c, 0, 50, 80
1, 222071, Control_c, 0, 64, 53
1, 222086, Control_c, 0, 64, 64
1, 222101, Control_c, 0, 64, 67
1, 222102, Note_off_c, 0, 50, 64
1, 222116, Control_c, 0, 64, 68
1, 222123, Note_on_c, 0, 55, 78
1, 222125, Note_off_c, 0, 59, 54
1, 222130, Control_c, 0, 64, 70
1, 222144, Note_off_c, 0, 62, 60
1, 222145, Control_c, 0, 64, 73
1, 222154, Note_off_c, 0, 67, 54
1, 222160, Control_c, 0, 64, 76
1, 222175, Control_c, 0, 64, 80
1, 222183, Note_off_c, 0, 55, 55
1, 222190, Control_c, 0, 64, 83
1, 222197, Note_on_c, 0, 50, 81
1, 222204, Control_c, 0, 64, 85
1, 222219, Control_c, 0, 64, 86
1, 222234, Control_c, 0, 64, 86
1, 222248, Control_c, 0, 64, 80
1, 222262, Note_on_c, 0, 47, 71
1, 222263, Note_off_c, 0, 50, 66
1, 222263, Control_c, 0, 64, 65
1, 222278, Control_c, 0, 64, 0
1, 222293, Note_off_c, 0, 47, 68
1, 222356, Note_on_c, 0, 55, 88
1, 222361, Note_on_c, 0, 43, 82
1, 222363, Note_on_c, 0, 59, 84
1, 222368, Control_c, 0, 64, 64
1, 222377, Note_off_c, 0, 55, 72
1, 222383, Control_c, 0, 64, 84
1, 222388, Note_off_c, 0, 43, 67
1, 222398, Control_c, 0, 64, 127
1, 222457, Note_off_c, 0, 59, 54
1, 222458, Note_on_c, 0, 62, 77
1, 222475, Poly_aftertouch_c, 0, 41, 0
1, 222535, Note_off_c, 0, 62, 55
1, 222542, Note_on_c, 0, 67, 69
1, 222619, Note_on_c, 0, 71, 74
1, 222623, Note_off_c, 0, 67, 57
1, 222687, Control_c, 0, 64, 81
1, 222702, Control_c, 0, 64, 0
1, 222714, Note_off_c, 0, 71, 61
1, 222734, Note_on_c, 0, 59, 81
1, 222737, Note_on_c, 0, 43, 86
1, 222742, Note_on_c, 0, 31, 81
1, 222746, Control_c, 0, 64, 62
1, 222761, Control_c, 0, 64, 76
1, 222763, Note_off_c, 0, 43, 68
1, 222765, Note_off_c, 0, 31, 65
1, 222776, Control_c, 0, 64, 104
1, 222791, Control_c, 0, 64, 127
1, 222828, Note_on_c, 0, 62, 76
1, 222843, Note_off_c, 0, 59, 54
1, 222910, Note_off_c, 0, 62, 57
1, 222914, Note_on_c, 0, 67, 73
1, 222977, Note_on_c, 0, 71, 76
1, 223008, Note_off_c, 0, 67, 56
1, 223028, Control_c, 0, 64, 88
1, 223043, Control_c, 0, 64, 0
1, 223061, Note_off_c, 0, 71, 64
1, 223074, Note_on_c, 0, 59, 81
1, 223118, Control_c, 0, 64, 64
1, 223133, Control_c, 0, 64, 76
1, 223134, Note_off_c, 0, 59, 63
1, 223148, Control_c, 0, 64, 93
1, 223155, Note_on_c, 0, 62, 81
1, 223163, Control_c, 0, 64, 127
1, 223228, Note_on_c, 0, 55, 90
1, 223230, Note_on_c, 0, 43, 87
1, 223232, Note_on_c, 0, 67, 77
1, 223238, Note_off_c, 0, 62, 60
1, 223268, Note_off_c, 0, 43, 63
1, 223268, Note_off_c, 0, 55, 61
1, 223301, Note_on_c, 0, 71, 72
1, 223306, Note_off_c, 0, 67, 60
1, 223355, Control_c, 0, 64, 119
1, 223364, Note_off_c, 0, 71, 59
1, 223369, Control_c, 0, 64, 76
1, 223384, Control_c, 0, 64, 0
1, 223407, Note_on_c, 0, 62, 83
1, 223408, Note_on_c, 0, 54, 89
1, 223412, Note_on_c, 0, 42, 88
1, 223436, Note_off_c, 0, 54, 73
1, 223437, Control_c, 0, 64, 58
1, 223446, Note_off_c, 0, 42, 67
1, 223451, Control_c, 0, 64, 74
1, 223466, Control_c, 0, 64, 106
1, 223481, Control_c, 0, 64, 127
1, 223513, Note_on_c, 0, 66, 76
1, 223548, Note_off_c, 0, 62, 58
1, 223592, Note_on_c, 0, 69, 81
1, 223603, Note_off_c, 0, 66, 60
1, 223665, Note_off_c, 0, 69, 62
1, 223671, Note_on_c, 0, 74, 85
1, 223718, Control_c, 0, 64, 83
1, 223732, Control_c, 0, 64, 0
1, 223752, Note_off_c, 0, 74, 57
1, 223761, Note_on_c, 0, 62, 87
1, 223762, Note_on_c, 0, 42, 87
1, 223771, Note_on_c, 0, 30, 76
1, 223777, Control_c, 0, 64, 63
1, 223792, Control_c, 0, 64, 82
1, 223800, Note_off_c, 0, 30, 63
1, 223801, Note_off_c, 0, 42, 63
1, 223807, Control_c, 0, 64, 127
1, 223851, Note_on_c, 0, 66, 80
1, 223879, Note_off_c, 0, 62, 59
1, 223935, Note_on_c, 0, 69, 72
1, 223938, Note_off_c, 0, 66, 60
1, 223995, Note_off_c, 0, 69, 61
1, 224003, Note_on_c, 0, 74, 79
1, 224081, Note_off_c, 0, 74, 62
1, 224087, Control_c, 0, 64, 81
1, 224099, Note_on_c, 0, 62, 80
1, 224102, Control_c, 0, 64, 0
1, 224147, Control_c, 0, 64, 63
1, 224162, Control_c, 0, 64, 74
1, 224184, Control_c, 0, 64, 90
1, 224191, Note_off_c, 0, 62, 59
1, 224191, Note_on_c, 0, 66, 74
1, 224198, Control_c, 0, 64, 127
1, 224260, Note_on_c, 0, 69, 76
1, 224266, Note_off_c, 0, 66, 61
1, 224269, Note_on_c, 0, 54, 82
1, 224275, Note_on_c, 0, 42, 81
1, 224308, Note_off_c, 0, 54, 62
1, 224311, Note_off_c, 0, 42, 65
1, 224312, Note_off_c, 0, 69, 61
1, 224331, Note_on_c, 0, 74, 73
1, 224366, Note_off_c, 0, 74, 61
1, 224376, Control_c, 0, 64, 98
1, 224391, Control_c, 0, 64, 67
1, 224406, Control_c, 0, 64, 0
1, 224436, Control_c, 0, 64, 48
1, 224437, Note_on_c, 0, 52, 88
1, 224437, Note_on_c, 0, 67, 82
1, 224438, Note_on_c, 0, 40, 84
1, 224451, Control_c, 0, 64, 72
1, 224460, Note_off_c, 0, 52, 68
1, 224466, Control_c, 0, 64, 96
1, 224466, Note_off_c, 0, 40, 67
1, 224480, Control_c, 0, 64, 127
1, 224532, Note_on_c, 0, 73, 82
1, 224558, Note_off_c, 0, 67, 59
1, 224612, Note_on_c, 0, 76, 82
1, 224621, Note_off_c, 0, 73, 61
1, 224686, Note_on_c, 0, 79, 85
1, 224689, Note_off_c, 0, 76, 62
1, 224762, Control_c, 0, 64, 97
1, 224777, Control_c, 0, 64, 66
1, 224782, Note_on_c, 0, 67, 85
1, 224785, Note_on_c, 0, 61, 90
1, 224790, Note_on_c, 0, 49, 88
1, 224792, Control_c, 0, 64, 0
1, 224797, Note_off_c, 0, 79, 59
1, 224821, Control_c, 0, 64, 47
1, 224836, Control_c, 0, 64, 70
1, 224851, Control_c, 0, 64, 88
1, 224866, Control_c, 0, 64, 127
1, 224881, Note_on_c, 0, 73, 87
1, 224883, Note_off_c, 0, 61, 65
1, 224890, Note_off_c, 0, 49, 62
1, 224923, Note_off_c, 0, 67, 58
1, 224977, Note_on_c, 0, 76, 87
1, 224991, Note_off_c, 0, 73, 61
1, 225050, Note_on_c, 0, 79, 84
1, 225052, Note_off_c, 0, 76, 64
1, 225095, Control_c, 0, 64, 93
1, 225110, Control_c, 0, 64, 64
1, 225125, Control_c, 0, 64, 0
1, 225138, Note_on_c, 0, 67, 86
1, 225150, Note_off_c, 0, 79, 54
1, 225154, Control_c, 0, 64, 38
1, 225169, Control_c, 0, 64, 68
1, 225184, Control_c, 0, 64, 82
1, 225199, Control_c, 0, 64, 107
1, 225214, Control_c, 0, 64, 127
1, 225222, Note_on_c, 0, 73, 80
1, 225235, Note_off_c, 0, 67, 55
1, 225289, Note_on_c, 0, 76, 71
1, 225290, Note_off_c, 0, 73, 61
1, 225301, Note_on_c, 0, 40, 71
1, 225302, Note_on_c, 0, 52, 67
1, 225330, Note_off_c, 0, 40, 65
1, 225333, Note_off_c, 0, 52, 64
1, 225340, Note_off_c, 0, 76, 61
1, 225356, Note_on_c, 0, 79, 64
1, 225377, Note_off_c, 0, 79, 62
1, 225451, Control_c, 0, 64, 78
1, 225466, Control_c, 0, 64, 0
1, 225476, Note_on_c, 0, 50, 68
1, 225477, Note_on_c, 0, 38, 65
1, 225489, Note_on_c, 0, 66, 64
1, 225542, Control_c, 0, 64, 61
1, 225557, Control_c, 0, 64, 71
1, 225566, Note_on_c, 0, 69, 66
1, 225571, Note_off_c, 0, 50, 64
1, 225571, Note_off_c, 0, 66, 57
1, 225571, Control_c, 0, 64, 83
1, 225586, Control_c, 0, 64, 101
1, 225593, Note_off_c, 0, 38, 60
1, 225601, Control_c, 0, 64, 127
1, 225667, Note_on_c, 0, 74, 70
1, 225691, Note_off_c, 0, 69, 50
1, 225736, Note_on_c, 0, 78, 74
1, 225746, Note_off_c, 0, 74, 56
1, 225816, Control_c, 0, 64, 111
1, 225821, Note_on_c, 0, 48, 75
1, 225821, Note_on_c, 0, 66, 78
1, 225822, Note_on_c, 0, 36, 74
1, 225831, Control_c, 0, 64, 74
1, 225833, Note_off_c, 0, 78, 60
1, 225845, Control_c, 0, 64, 0
1, 225904, Control_c, 0, 64, 42
1, 225905, Note_off_c, 0, 66, 60
1, 225911, Note_on_c, 0, 69, 68
1, 225919, Control_c, 0, 64, 68
1, 225934, Control_c, 0, 64, 83
1, 225949, Control_c, 0, 64, 107
1, 225964, Control_c, 0, 64, 127
1, 225987, Note_on_c, 0, 74, 76
1, 226038, Note_off_c, 0, 48, 61
1, 226046, Note_off_c, 0, 36, 58
1, 226076, Note_on_c, 0, 78, 81
1, 226102, Note_off_c, 0, 69, 55
1, 226129, Note_off_c, 0, 74, 60
1, 226141, Control_c, 0, 64, 91
1, 226156, Control_c, 0, 64, 48
1, 226161, Note_on_c, 0, 66, 84
1, 226171, Control_c, 0, 64, 0
1, 226187, Note_off_c, 0, 78, 58
1, 226232, Note_on_c, 0, 69, 79
1, 226245, Control_c, 0, 64, 63
1, 226250, Note_off_c, 0, 66, 60
1, 226260, Control_c, 0, 64, 76
1, 226275, Control_c, 0, 64, 94
1, 226290, Control_c, 0, 64, 127
1, 226308, Note_on_c, 0, 48, 87
1, 226310, Note_on_c, 0, 36, 80
1, 226317, Note_on_c, 0, 74, 80
1, 226326, Note_off_c, 0, 69, 61
1, 226347, Note_off_c, 0, 48, 62
1, 226365, Note_off_c, 0, 36, 58
1, 226388, Note_on_c, 0, 78, 77
1, 226397, Note_off_c, 0, 74, 63
1, 226461, Control_c, 0, 64, 84
1, 226464, Note_off_c, 0, 78, 58
1, 226475, Control_c, 0, 64, 0
1, 226495, Note_on_c, 0, 35, 82
1, 226495, Note_on_c, 0, 47, 90
1, 226498, Note_on_c, 0, 67, 85
1, 226518, Note_off_c, 0, 47, 71
1, 226520, Note_off_c, 0, 35, 66
1, 226534, Control_c, 0, 64, 32
1, 226549, Control_c, 0, 64, 69
1, 226564, Control_c, 0, 64, 85
1, 226579, Control_c, 0, 64, 127
1, 226581, Note_on_c, 0, 71, 84
1, 226606, Note_off_c, 0, 67, 58
1, 226661, Note_on_c, 0, 74, 88
1, 226678, Note_off_c, 0, 71, 63
1, 226734, Note_off_c, 0, 74, 65
1, 226738, Note_on_c, 0, 79, 88
1, 226816, Control_c, 0, 64, 97
1, 226827, Note_on_c, 0, 67, 86
1, 226829, Note_off_c, 0, 79, 54
1, 226831, Control_c, 0, 64, 65
1, 226836, Note_on_c, 0, 47, 85
1, 226836, Note_on_c, 0, 59, 85
1, 226845, Control_c, 0, 64, 0
1, 226890, Control_c, 0, 64, 46
1, 226905, Control_c, 0, 64, 69
1, 226908, Note_on_c, 0, 71, 80
1, 226910, Note_off_c, 0, 67, 62
1, 226919, Control_c, 0, 64, 85
1, 226934, Control_c, 0, 64, 124
1, 226935, Note_off_c, 0, 59, 63
1, 226943, Note_off_c, 0, 47, 64
1, 226949, Control_c, 0, 64, 127
1, 226991, Note_on_c, 0, 74, 80
1, 226999, Note_off_c, 0, 71, 62
1, 227047, Note_off_c, 0, 74, 61
1, 227065, Note_on_c, 0, 79, 78
1, 227113, Note_off_c, 0, 79, 58
1, 227157, Control_c, 0, 64, 76
1, 227180, Control_c, 0, 64, 0
1, 227193, Note_on_c, 0, 62, 79
1, 227239, Control_c, 0, 64, 63
1, 227254, Control_c, 0, 64, 73
1, 227269, Control_c, 0, 64, 87
1, 227280, Note_on_c, 0, 67, 80
1, 227282, Note_off_c, 0, 62, 60
1, 227284, Control_c, 0, 64, 108
1, 227298, Control_c, 0, 64, 127
1, 227344, Note_on_c, 0, 47, 78
1, 227348, Note_on_c, 0, 35, 76
1, 227357, Note_on_c, 0, 71, 76
1, 227362, Note_off_c, 0, 67, 61
1, 227381, Note_off_c, 0, 35, 66
1, 227381, Note_off_c, 0, 47, 63
1, 227432, Note_on_c, 0, 74, 76
1, 227444, Note_off_c, 0, 71, 58
1, 227491, Control_c, 0, 64, 118
1, 227506, Control_c, 0, 64, 76
1, 227521, Control_c, 0, 64, 0
1, 227531, Note_on_c, 0, 48, 96
1, 227533, Note_on_c, 0, 64, 78
1, 227534, Note_on_c, 0, 36, 88
1, 227537, Note_off_c, 0, 74, 61
1, 227553, Note_off_c, 0, 48, 71
1, 227558, Note_off_c, 0, 36, 68
1, 227580, Control_c, 0, 64, 66
1, 227595, Control_c, 0, 64, 81
1, 227609, Control_c, 0, 64, 113
1, 227624, Control_c, 0, 64, 127
1, 227628, Note_on_c, 0, 67, 78
1, 227655, Note_off_c, 0, 64, 54
1, 227716, Note_on_c, 0, 72, 73
1, 227720, Note_off_c, 0, 67, 60
1, 227803, Note_on_c, 0, 76, 77
1, 227810, Note_off_c, 0, 72, 56
1, 227893, Note_off_c, 0, 76, 49
1, 227899, Note_on_c, 0, 64, 85
1, 227900, Note_on_c, 0, 48, 87
1, 227903, Note_on_c, 0, 57, 83
1, 227906, Control_c, 0, 64, 105
1, 227928, Control_c, 0, 64, 67
1, 227943, Control_c, 0, 64, 0
1, 227987, Control_c, 0, 64, 49
1, 227995, Note_on_c, 0, 67, 78
1, 227998, Note_off_c, 0, 64, 62
1, 228002, Control_c, 0, 64, 68
1, 228017, Control_c, 0, 64, 86
1, 228032, Control_c, 0, 64, 127
1, 228088, Note_off_c, 0, 57, 60
1, 228089, Note_on_c, 0, 72, 69
1, 228091, Note_off_c, 0, 67, 58
1, 228152, Note_off_c, 0, 48, 60
1, 228160, Note_on_c, 0, 76, 69
1, 228173, Note_off_c, 0, 72, 55
1, 228254, Control_c, 0, 64, 99
1, 228269, Control_c, 0, 64, 68
1, 228269, Note_off_c, 0, 76, 62
1, 228281, Note_on_c, 0, 64, 78
1, 228284, Control_c, 0, 64, 0
1, 228328, Control_c, 0, 64, 64
1, 228343, Control_c, 0, 64, 76
1, 228358, Control_c, 0, 64, 96
1, 228368, Note_off_c, 0, 64, 57
1, 228368, Note_on_c, 0, 67, 72
1, 228372, Control_c, 0, 64, 127
1, 228450, Note_on_c, 0, 48, 88
1, 228452, Note_off_c, 0, 67, 61
1, 228453, Note_on_c, 0, 36, 87
1, 228454, Note_on_c, 0, 72, 72
1, 228485, Note_off_c, 0, 36, 63
1, 228487, Note_off_c, 0, 48, 62
1, 228523, Note_on_c, 0, 76, 74
1, 228549, Note_off_c, 0, 72, 56
1, 228588, Note_off_c, 0, 76, 58
1, 228594, Control_c, 0, 64, 113
1, 228609, Control_c, 0, 64, 75
1, 228624, Control_c, 0, 64, 0
1, 228633, Note_on_c, 0, 50, 95
1, 228634, Note_on_c, 0, 62, 82
1, 228639, Note_on_c, 0, 38, 92
1, 228661, Control_c, 0, 64, 47
1, 228665, Note_off_c, 0, 50, 72
1, 228669, Note_off_c, 0, 38, 71
1, 228676, Control_c, 0, 64, 69
1, 228692, Control_c, 0, 64, 91
1, 228707, Control_c, 0, 64, 127
1, 228744, Note_on_c, 0, 67, 81
1, 228767, Note_off_c, 0, 62, 58
1, 228831, Note_on_c, 0, 69, 74
1, 228833, Note_off_c, 0, 67, 59
1, 228910, Note_off_c, 0, 69, 56
1, 228913, Note_on_c, 0, 74, 76
1, 228973, Control_c, 0, 64, 105
1, 228988, Control_c, 0, 64, 68
1, 229003, Control_c, 0, 64, 0
1, 229009, Note_on_c, 0, 62, 85
1, 229013, Note_on_c, 0, 38, 88
1, 229014, Note_on_c, 0, 26, 85
1, 229041, Note_off_c, 0, 74, 49
1, 229047, Control_c, 0, 64, 68
1, 229050, Note_off_c, 0, 26, 65
1, 229062, Control_c, 0, 64, 92
1, 229064, Note_off_c, 0, 38, 65
1, 229077, Control_c, 0, 64, 127
1, 229102, Note_on_c, 0, 67, 78
1, 229120, Note_off_c, 0, 62, 58
1, 229193, Note_on_c, 0, 69, 73
1, 229196, Note_off_c, 0, 67, 59
1, 229271, Note_off_c, 0, 69, 55
1, 229274, Note_on_c, 0, 74, 76
1, 229359, Control_c, 0, 64, 78
1, 229372, Note_off_c, 0, 74, 60
1, 229374, Control_c, 0, 64, 0
1, 229388, Note_on_c, 0, 62, 80
1, 229440, Control_c, 0, 64, 62
1, 229455, Control_c, 0, 64, 73
1, 229470, Control_c, 0, 64, 89
1, 229485, Control_c, 0, 64, 127
1, 229489, Note_on_c, 0, 66, 74
1, 229509, Note_off_c, 0, 62, 49
1, 229563, Note_on_c, 0, 50, 79
1, 229575, Note_on_c, 0, 69, 75
1, 229583, Note_on_c, 0, 38, 52
1, 229583, Note_off_c, 0, 66, 61
1, 229591, Note_off_c, 0, 50, 67
1, 229592, Note_on_c, 0, 36, 33
1, 229612, Note_off_c, 0, 38, 54
1, 229634, Note_off_c, 0, 36, 48
1, 229635, Note_off_c, 0, 69, 59
1, 229650, Note_on_c, 0, 74, 72
1, 229678, Note_off_c, 0, 74, 62
1, 229723, Control_c, 0, 64, 98
1, 229737, Control_c, 0, 64, 65
1, 229746, Note_on_c, 0, 55, 94
1, 229750, Note_on_c, 0, 59, 84
1, 229751, Note_on_c, 0, 43, 82
1, 229752, Control_c, 0, 64, 0
1, 229768, Note_off_c, 0, 55, 70
1, 229778, Note_off_c, 0, 43, 66
1, 229782, Control_c, 0, 64, 63
1, 229797, Control_c, 0, 64, 74
1, 229811, Control_c, 0, 64, 90
1, 229826, Control_c, 0, 64, 127
1, 229843, Note_on_c, 0, 62, 76
1, 229849, Note_off_c, 0, 59, 61
1, 229927, Note_on_c, 0, 67, 68
1, 229927, Note_off_c, 0, 62, 60
1, 230004, Note_on_c, 0, 71, 76
1, 230015, Note_off_c, 0, 67, 54
1, 230049, Control_c, 0, 64, 123
1, 230063, Control_c, 0, 64, 80
1, 230078, Note_off_c, 0, 71, 59
1, 230078, Control_c, 0, 64, 0
1, 230094, Note_on_c, 0, 59, 84
1, 230095, Note_on_c, 0, 31, 83
1, 230097, Note_on_c, 0, 43, 82
1, 230123, Control_c, 0, 64, 54
1, 230137, Control_c, 0, 64, 69
1, 230152, Control_c, 0, 64, 83
1, 230172, Note_off_c, 0, 59, 61
1, 230174, Control_c, 0, 64, 108
1, 230177, Note_on_c, 0, 62, 77
1, 230182, Note_off_c, 0, 31, 61
1, 230189, Control_c, 0, 64, 127
1, 230198, Note_off_c, 0, 43, 63
1, 230266, Note_on_c, 0, 67, 69
1, 230292, Note_off_c, 0, 62, 58
1, 230341, Note_off_c, 0, 67, 62
1, 230346, Note_on_c, 0, 71, 75
1, 230428, Control_c, 0, 64, 90
1, 230429, Note_on_c, 0, 62, 79
1, 230431, Note_on_c, 0, 59, 77
1, 230433, Note_on_c, 0, 67, 81
1, 230442, Control_c, 0, 64, 64
1, 230452, Note_off_c, 0, 71, 58
1, 230457, Control_c, 0, 64, 0
1, 230490, Note_off_c, 0, 59, 55
1, 230501, Control_c, 0, 64, 54
1, 230516, Control_c, 0, 64, 69
1, 230524, Note_on_c, 0, 50, 74
1, 230531, Control_c, 0, 64, 82
1, 230546, Control_c, 0, 64, 102
1, 230560, Control_c, 0, 64, 127
1, 230575, Note_off_c, 0, 62, 58
1, 230602, Note_off_c, 0, 50, 65
1, 230606, Note_on_c, 0, 47, 76
1, 230672, Note_off_c, 0, 47, 66
1, 230684, Note_on_c, 0, 50, 73
1, 230753, Control_c, 0, 64, 103
1, 230760, Note_off_c, 0, 67, 53
1, 230767, Note_off_c, 0, 50, 64
1, 230767, Control_c, 0, 64, 75
1, 230777, Note_on_c, 0, 43, 65
1, 230782, Control_c, 0, 64, 51
1, 230797, Note_on_c, 0, 59, 66
1, 230797, Control_c, 0, 64, 0
1, 230812, Control_c, 0, 64, 33
1, 230827, Control_c, 0, 64, 62
1, 230842, Control_c, 0, 64, 68
1, 230857, Control_c, 0, 64, 73
1, 230872, Control_c, 0, 64, 79
1, 230878, Note_off_c, 0, 43, 61
1, 230883, Note_on_c, 0, 47, 62
1, 230886, Control_c, 0, 64, 83
1, 230892, Note_off_c, 0, 59, 59
1, 230900, Note_on_c, 0, 62, 61
1, 230901, Control_c, 0, 64, 84
1, 230923, Control_c, 0, 64, 85
1, 230958, Note_off_c, 0, 47, 64
1, 230960, Note_on_c, 0, 50, 69
1, 230976, Note_on_c, 0, 67, 67
1, 230977, Note_off_c, 0, 62, 61
1, 231018, Note_off_c, 0, 50, 65
1, 231027, Control_c, 0, 64, 84
1, 231039, Note_on_c, 0, 71, 73
1, 231039, Note_on_c, 0, 55, 73
1, 231042, Note_off_c, 0, 67, 58
1, 231042, Control_c, 0, 64, 84
1, 231057, Control_c, 0, 64, 83
1, 231070, Note_off_c, 0, 55, 66
1, 231071, Control_c, 0, 64, 82
1, 231087, Control_c, 0, 64, 82
1, 231098, Note_off_c, 0, 71, 64
1, 231102, Control_c, 0, 64, 81
1, 231117, Note_on_c, 0, 43, 78
1, 231119, Note_on_c, 0, 59, 87
1, 231191, Note_on_c, 0, 47, 76
1, 231200, Note_off_c, 0, 43, 54
1, 231206, Note_off_c, 0, 59, 64
1, 231212, Note_on_c, 0, 62, 77
1, 231274, Note_on_c, 0, 50, 77
1, 231277, Note_off_c, 0, 47, 65
1, 231287, Note_on_c, 0, 67, 75
1, 231295, Control_c, 0, 64, 82
1, 231298, Note_off_c, 0, 62, 59
1, 231309, Control_c, 0, 64, 82
1, 231344, Note_off_c, 0, 50, 64
1, 231352, Note_on_c, 0, 71, 81
1, 231354, Control_c, 0, 64, 81
1, 231359, Note_on_c, 0, 55, 77
1, 231369, Control_c, 0, 64, 75
1, 231373, Note_off_c, 0, 67, 57
1, 231383, Control_c, 0, 64, 64
1, 231389, Note_off_c, 0, 55, 65
1, 231398, Control_c, 0, 64, 0
1, 231421, Note_off_c, 0, 71, 64
1, 231432, Note_on_c, 0, 43, 79
1, 231433, Note_on_c, 0, 59, 90
1, 231502, Note_off_c, 0, 59, 65
1, 231507, Note_on_c, 0, 47, 64
1, 231513, Note_off_c, 0, 43, 57
1, 231515, Note_on_c, 0, 62, 83
1, 231552, Note_on_c, 0, 48, 16
1, 231553, Note_off_c, 0, 48, 127
1, 231579, Note_on_c, 0, 50, 73
1, 231587, Note_on_c, 0, 67, 69
1, 231588, Note_off_c, 0, 47, 64
1, 231609, Note_off_c, 0, 62, 60
1, 231620, Control_c, 0, 64, 19
1, 231634, Control_c, 0, 64, 53
1, 231639, Note_off_c, 0, 50, 64
1, 231649, Control_c, 0, 64, 57
1, 231662, Note_on_c, 0, 71, 75
1, 231671, Control_c, 0, 64, 58
1, 231674, Note_off_c, 0, 67, 57
1, 231680, Note_on_c, 0, 55, 67
1, 231686, Control_c, 0, 64, 58
1, 231715, Note_off_c, 0, 71, 60
1, 231715, Control_c, 0, 64, 56
1, 231723, Note_off_c, 0, 55, 63
1, 231730, Control_c, 0, 64, 53
1, 231745, Control_c, 0, 64, 52
1, 231756, Note_on_c, 0, 62, 79
1, 231760, Note_on_c, 0, 54, 73
1, 231760, Control_c, 0, 64, 53
1, 231775, Control_c, 0, 64, 54
1, 231790, Control_c, 0, 64, 56
1, 231805, Control_c, 0, 64, 58
1, 231820, Control_c, 0, 64, 60
1, 231830, Note_on_c, 0, 57, 73
1, 231834, Note_off_c, 0, 54, 64
1, 231834, Control_c, 0, 64, 60
1, 231838, Note_on_c, 0, 66, 73
1, 231849, Control_c, 0, 64, 61
1, 231870, Note_off_c, 0, 62, 58
1, 231879, Control_c, 0, 64, 61
1, 231894, Control_c, 0, 64, 62
1, 231903, Note_off_c, 0, 57, 62
1, 231909, Control_c, 0, 64, 62
1, 231910, Note_on_c, 0, 62, 63
1, 231919, Note_on_c, 0, 69, 77
1, 231924, Control_c, 0, 64, 63
1, 231925, Note_off_c, 0, 66, 63
1, 231939, Control_c, 0, 64, 63
1, 231954, Control_c, 0, 64, 64
1, 231969, Control_c, 0, 64, 64
1, 231981, Note_off_c, 0, 69, 63
1, 231983, Note_off_c, 0, 62, 58
1, 231985, Note_on_c, 0, 74, 84
1, 231998, Control_c, 0, 64, 64
1, 232001, Note_on_c, 0, 57, 76
1, 232013, Control_c, 0, 64, 58
1, 232025, Note_on_c, 0, 58, 27
1, 232028, Control_c, 0, 64, 42
1, 232043, Control_c, 0, 64, 14
1, 232048, Note_off_c, 0, 74, 62
1, 232057, Control_c, 0, 64, 0
1, 232063, Note_off_c, 0, 58, 30
1, 232064, Note_on_c, 0, 62, 89
1, 232067, Note_off_c, 0, 57, 65
1, 232071, Note_on_c, 0, 54, 77
1, 232072, Control_c, 0, 64, 21
1, 232087, Control_c, 0, 64, 44
1, 232102, Control_c, 0, 64, 60
1, 232117, Control_c, 0, 64, 65
1, 232131, Control_c, 0, 64, 68
1, 232139, Note_off_c, 0, 54, 64
1, 232146, Control_c, 0, 64, 70
1, 232151, Note_on_c, 0, 57, 70
1, 232154, Note_on_c, 0, 66, 76
1, 232161, Control_c, 0, 64, 71
1, 232176, Control_c, 0, 64, 72
1, 232185, Note_off_c, 0, 62, 57
1, 232191, Control_c, 0, 64, 73
1, 232206, Control_c, 0, 64, 75
1, 232221, Control_c, 0, 64, 76
1, 232228, Note_on_c, 0, 69, 80
1, 232229, Note_off_c, 0, 57, 62
1, 232236, Control_c, 0, 64, 77
1, 232239, Note_on_c, 0, 62, 64
1, 232243, Note_off_c, 0, 66, 60
1, 232250, Control_c, 0, 64, 79
1, 232265, Control_c, 0, 64, 80
1, 232280, Control_c, 0, 64, 81
1, 232300, Note_off_c, 0, 69, 61
1, 232303, Note_on_c, 0, 74, 83
1, 232309, Note_off_c, 0, 62, 59
1, 232310, Control_c, 0, 64, 79
1, 232324, Note_on_c, 0, 57, 72
1, 232324, Control_c, 0, 64, 71
1, 232339, Control_c, 0, 64, 58
1, 232354, Control_c, 0, 64, 0
1, 232377, Note_off_c, 0, 74, 53
1, 232383, Note_on_c, 0, 62, 86
1, 232389, Note_off_c, 0, 57, 62
1, 232398, Note_on_c, 0, 54, 68
1, 232399, Control_c, 0, 64, 54
1, 232421, Control_c, 0, 64, 65
1, 232436, Control_c, 0, 64, 71
1, 232451, Control_c, 0, 64, 78
1, 232465, Control_c, 0, 64, 83
1, 232470, Note_off_c, 0, 54, 64
1, 232476, Note_on_c, 0, 57, 68
1, 232477, Note_on_c, 0, 66, 76
1, 232480, Control_c, 0, 64, 84
1, 232484, Note_off_c, 0, 62, 58
1, 232535, Note_off_c, 0, 57, 62
1, 232542, Note_on_c, 0, 69, 76
1, 232550, Note_off_c, 0, 66, 63
1, 232571, Note_on_c, 0, 62, 65
1, 232604, Note_off_c, 0, 69, 62
1, 232610, Note_on_c, 0, 74, 85
1, 232628, Control_c, 0, 64, 83
1, 232630, Note_off_c, 0, 62, 60
1, 232638, Note_on_c, 0, 57, 67
1, 232642, Note_off_c, 0, 74, 65
1, 232643, Control_c, 0, 64, 82
1, 232657, Control_c, 0, 64, 81
1, 232672, Control_c, 0, 64, 79
1, 232686, Note_off_c, 0, 57, 59
1, 232688, Control_c, 0, 64, 75
1, 232703, Control_c, 0, 64, 71
1, 232718, Control_c, 0, 64, 67
1, 232727, Note_on_c, 0, 52, 65
1, 232733, Control_c, 0, 64, 66
1, 232735, Note_on_c, 0, 67, 84
1, 232748, Control_c, 0, 64, 66
1, 232762, Control_c, 0, 64, 65
1, 232777, Control_c, 0, 64, 64
1, 232792, Control_c, 0, 64, 62
1, 232807, Control_c, 0, 64, 56
1, 232822, Control_c, 0, 64, 49
1, 232836, Control_c, 0, 64, 44
1, 232843, Note_on_c, 0, 55, 66
1, 232851, Control_c, 0, 64, 45
1, 232853, Note_on_c, 0, 73, 77
1, 232866, Control_c, 0, 64, 47
1, 232869, Note_off_c, 0, 52, 55
1, 232881, Control_c, 0, 64, 51
1, 232892, Note_off_c, 0, 67, 61
1, 232896, Control_c, 0, 64, 55
1, 232911, Control_c, 0, 64, 57
1, 232924, Note_on_c, 0, 61, 78
1, 232926, Control_c, 0, 64, 60
1, 232927, Note_on_c, 0, 76, 80
1, 232940, Control_c, 0, 64, 61
1, 232942, Note_off_c, 0, 55, 56
1, 232952, Note_off_c, 0, 73, 59
1, 232955, Control_c, 0, 64, 62
1, 232970, Control_c, 0, 64, 63
1, 232992, Note_off_c, 0, 61, 61
1, 232994, Note_on_c, 0, 79, 86
1, 232995, Note_off_c, 0, 76, 64
1, 232999, Control_c, 0, 64, 62
1, 233000, Note_on_c, 0, 64, 78
1, 233014, Control_c, 0, 64, 60
1, 233029, Control_c, 0, 64, 55
1, 233042, Note_off_c, 0, 64, 59
1, 233044, Control_c, 0, 64, 48
1, 233059, Control_c, 0, 64, 38
1, 233066, Note_off_c, 0, 79, 61
1, 233073, Control_c, 0, 64, 31
1, 233077, Note_on_c, 0, 67, 92
1, 233080, Note_on_c, 0, 52, 82
1, 233088, Control_c, 0, 64, 29
1, 233118, Control_c, 0, 64, 34
1, 233133, Control_c, 0, 64, 43
1, 233155, Control_c, 0, 64, 52
1, 233162, Note_on_c, 0, 55, 73
1, 233170, Control_c, 0, 64, 56
1, 233176, Note_on_c, 0, 73, 87
1, 233179, Note_off_c, 0, 52, 51
1, 233185, Control_c, 0, 64, 57
1, 233200, Control_c, 0, 64, 58
1, 233212, Note_off_c, 0, 67, 60
1, 233214, Control_c, 0, 64, 60
1, 233229, Control_c, 0, 64, 61
1, 233243, Note_on_c, 0, 61, 79
1, 233244, Control_c, 0, 64, 62
1, 233255, Note_on_c, 0, 76, 80
1, 233259, Control_c, 0, 64, 62
1, 233264, Note_off_c, 0, 55, 57
1, 233273, Note_off_c, 0, 73, 62
1, 233319, Note_off_c, 0, 61, 62
1, 233322, Note_on_c, 0, 64, 74
1, 233325, Note_on_c, 0, 79, 84
1, 233334, Note_off_c, 0, 76, 62
1, 233348, Control_c, 0, 64, 62
1, 233358, Note_off_c, 0, 64, 61
1, 233362, Control_c, 0, 64, 62
1, 233377, Control_c, 0, 64, 63
1, 233392, Control_c, 0, 64, 64
1, 233396, Note_on_c, 0, 67, 91
1, 233402, Note_on_c, 0, 52, 80
1, 233406, Control_c, 0, 64, 65
1, 233410, Note_off_c, 0, 79, 52
1, 233421, Control_c, 0, 64, 66
1, 233436, Control_c, 0, 64, 66
1, 233461, Note_on_c, 0, 55, 73
1, 233486, Note_on_c, 0, 73, 79
1, 233492, Note_off_c, 0, 52, 55
1, 233507, Note_off_c, 0, 67, 59
1, 233547, Note_on_c, 0, 61, 79
1, 233552, Note_on_c, 0, 76, 72
1, 233564, Note_off_c, 0, 55, 58
1, 233566, Note_off_c, 0, 73, 59
1, 233571, Control_c, 0, 64, 67
1, 233585, Control_c, 0, 64, 68
1, 233600, Control_c, 0, 64, 69
1, 233615, Control_c, 0, 64, 70
1, 233616, Note_off_c, 0, 76, 61
1, 233622, Note_off_c, 0, 61, 57
1, 233629, Note_on_c, 0, 79, 73
1, 233630, Control_c, 0, 64, 70
1, 233640, Note_on_c, 0, 64, 79
1, 233645, Control_c, 0, 64, 71
1, 233651, Note_off_c, 0, 79, 68
1, 233659, Control_c, 0, 64, 70
1, 233674, Note_off_c, 0, 64, 60
1, 233674, Control_c, 0, 64, 68
1, 233689, Control_c, 0, 64, 63
1, 233704, Control_c, 0, 64, 47
1, 233718, Control_c, 0, 64, 0
1, 233729, Note_on_c, 0, 66, 78
1, 233731, Note_on_c, 0, 50, 77
1, 233793, Control_c, 0, 64, 33
1, 233808, Control_c, 0, 64, 56
1, 233810, Note_on_c, 0, 54, 64
1, 233820, Note_on_c, 0, 69, 69
1, 233823, Control_c, 0, 64, 61
1, 233837, Control_c, 0, 64, 63
1, 233841, Note_off_c, 0, 66, 56
1, 233846, Note_off_c, 0, 50, 56
1, 233852, Control_c, 0, 64, 64
1, 233867, Control_c, 0, 64, 66
1, 233879, Note_on_c, 0, 57, 68
1, 233882, Control_c, 0, 64, 67
1, 233902, Note_on_c, 0, 74, 69
1, 233903, Control_c, 0, 64, 68
1, 233913, Note_off_c, 0, 54, 62
1, 233918, Control_c, 0, 64, 70
1, 233933, Control_c, 0, 64, 71
1, 233948, Control_c, 0, 64, 72
1, 233963, Control_c, 0, 64, 72
1, 233966, Note_off_c, 0, 69, 50
1, 233978, Control_c, 0, 64, 73
1, 233979, Note_on_c, 0, 62, 65
1, 233983, Note_on_c, 0, 78, 74
1, 233986, Note_off_c, 0, 74, 62
1, 233990, Note_off_c, 0, 57, 60
1, 233993, Control_c, 0, 64, 74
1, 234008, Control_c, 0, 64, 74
1, 234020, Note_off_c, 0, 62, 56
1, 234052, Control_c, 0, 64, 74
1, 234067, Control_c, 0, 64, 70
1, 234071, Note_on_c, 0, 50, 69
1, 234074, Note_on_c, 0, 66, 75
1, 234082, Control_c, 0, 64, 61
1, 234087, Note_off_c, 0, 78, 57
1, 234097, Control_c, 0, 64, 0
1, 234148, Note_on_c, 0, 54, 69
1, 234162, Note_on_c, 0, 69, 73
1, 234169, Note_off_c, 0, 66, 57
1, 234178, Note_off_c, 0, 50, 56
1, 234185, Control_c, 0, 64, 57
1, 234200, Control_c, 0, 64, 64
1, 234215, Control_c, 0, 64, 67
1, 234218, Note_on_c, 0, 57, 67
1, 234229, Control_c, 0, 64, 70
1, 234241, Note_off_c, 0, 54, 61
1, 234244, Control_c, 0, 64, 72
1, 234249, Note_on_c, 0, 74, 68
1, 234259, Control_c, 0, 64, 74
1, 234275, Control_c, 0, 64, 75
1, 234298, Note_on_c, 0, 60, 67
1, 234303, Note_off_c, 0, 57, 57
1, 234305, Control_c, 0, 64, 72
1, 234315, Note_on_c, 0, 78, 75
1, 234320, Control_c, 0, 64, 63
1, 234334, Control_c, 0, 64, 0
1, 234338, Note_off_c, 0, 69, 34
1, 234346, Note_off_c, 0, 60, 59
1, 234366, Note_off_c, 0, 74, 58
1, 234380, Note_on_c, 0, 50, 77
1, 234395, Note_on_c, 0, 66, 93
1, 234408, Control_c, 0, 64, 59
1, 234423, Control_c, 0, 64, 70
1, 234424, Note_off_c, 0, 78, 57
1, 234438, Control_c, 0, 64, 78
1, 234452, Control_c, 0, 64, 84
1, 234453, Note_on_c, 0, 54, 73
1, 234467, Control_c, 0, 64, 86
1, 234479, Note_on_c, 0, 69, 78
1, 234490, Note_off_c, 0, 50, 52
1, 234497, Control_c, 0, 64, 87
1, 234498, Note_off_c, 0, 66, 61
1, 234508, Note_on_c, 0, 57, 73
1, 234540, Note_off_c, 0, 54, 65
1, 234555, Note_on_c, 0, 74, 72
1, 234556, Control_c, 0, 64, 86
1, 234579, Note_off_c, 0, 69, 57
1, 234586, Control_c, 0, 64, 86
1, 234591, Note_off_c, 0, 57, 60
1, 234601, Control_c, 0, 64, 85
1, 234610, Note_on_c, 0, 60, 77
1, 234613, Note_on_c, 0, 78, 69
1, 234626, Note_off_c, 0, 74, 64
1, 234631, Control_c, 0, 64, 85
1, 234645, Note_off_c, 0, 60, 59
1, 234663, Note_off_c, 0, 78, 61
1, 234682, Control_c, 0, 64, 83
1, 234697, Control_c, 0, 64, 81
1, 234712, Control_c, 0, 64, 77
1, 234721, Note_on_c, 0, 47, 73
1, 234727, Control_c, 0, 64, 69
1, 234729, Note_on_c, 0, 67, 90
1, 234741, Control_c, 0, 64, 57
1, 234756, Control_c, 0, 64, 0
1, 234812, Note_on_c, 0, 50, 73
1, 234815, Control_c, 0, 64, 14
1, 234826, Note_on_c, 0, 71, 84
1, 234830, Control_c, 0, 64, 52
1, 234837, Note_off_c, 0, 47, 60
1, 234839, Note_off_c, 0, 67, 63
1, 234845, Control_c, 0, 64, 62
1, 234860, Control_c, 0, 64, 64
1, 234890, Control_c, 0, 64, 65
1, 234894, Note_on_c, 0, 74, 89
1, 234895, Note_on_c, 0, 55, 80
1, 234914, Note_off_c, 0, 50, 62
1, 234920, Control_c, 0, 64, 65
1, 234921, Note_off_c, 0, 71, 65
1, 234964, Note_off_c, 0, 74, 68
1, 234965, Note_on_c, 0, 79, 86
1, 234976, Note_on_c, 0, 59, 83
1, 234982, Note_off_c, 0, 55, 63
1, 235002, Note_off_c, 0, 79, 63
1, 235008, Control_c, 0, 64, 65
1, 235020, Note_off_c, 0, 59, 62
1, 235038, Control_c, 0, 64, 64
1, 235061, Note_on_c, 0, 47, 84
1, 235066, Note_on_c, 0, 62, 93
1, 235083, Control_c, 0, 64, 64
1, 235137, Note_on_c, 0, 50, 78
1, 235151, Note_off_c, 0, 62, 65
1, 235157, Note_on_c, 0, 67, 83
1, 235161, Note_off_c, 0, 47, 58
1, 235203, Control_c, 0, 64, 64
1, 235218, Control_c, 0, 64, 65
1, 235224, Note_on_c, 0, 55, 78
1, 235235, Note_on_c, 0, 71, 80
1, 235247, Control_c, 0, 64, 65
1, 235249, Note_off_c, 0, 50, 60
1, 235251, Note_off_c, 0, 67, 61
1, 235291, Control_c, 0, 64, 65
1, 235300, Note_on_c, 0, 74, 85
1, 235306, Control_c, 0, 64, 64
1, 235307, Note_on_c, 0, 59, 83
1, 235308, Note_off_c, 0, 55, 63
1, 235321, Control_c, 0, 64, 64
1, 235326, Note_off_c, 0, 71, 63
1, 235336, Control_c, 0, 64, 63
1, 235346, Note_off_c, 0, 59, 59
1, 235365, Control_c, 0, 64, 64
1, 235380, Note_off_c, 0, 74, 67
1, 235388, Note_on_c, 0, 47, 81
1, 235391, Note_on_c, 0, 62, 89
1, 235395, Control_c, 0, 64, 64
1, 235474, Note_on_c, 0, 50, 75
1, 235477, Control_c, 0, 64, 65
1, 235481, Note_on_c, 0, 67, 82
1, 235481, Note_off_c, 0, 47, 57
1, 235489, Note_off_c, 0, 62, 62
1, 235521, Control_c, 0, 64, 65
1, 235551, Control_c, 0, 64, 66
1, 235557, Note_on_c, 0, 55, 78
1, 235558, Note_on_c, 0, 71, 79
1, 235565, Control_c, 0, 64, 66
1, 235567, Note_off_c, 0, 67, 62
1, 235569, Note_off_c, 0, 50, 63
1, 235580, Control_c, 0, 64, 67
1, 235595, Control_c, 0, 64, 68
1, 235609, Control_c, 0, 64, 68
1, 235625, Note_on_c, 0, 74, 84
1, 235638, Note_off_c, 0, 55, 61
1, 235639, Control_c, 0, 64, 68
1, 235645, Note_on_c, 0, 59, 80
1, 235649, Note_off_c, 0, 71, 63
1, 235654, Control_c, 0, 64, 64
1, 235669, Control_c, 0, 64, 36
1, 235677, Note_off_c, 0, 59, 61
1, 235683, Control_c, 0, 64, 0
1, 235719, Note_off_c, 0, 74, 62
1, 235720, Note_on_c, 0, 48, 84
1, 235728, Note_on_c, 0, 64, 89
1, 235816, Note_on_c, 0, 52, 76
1, 235822, Note_on_c, 0, 67, 83
1, 235862, Note_off_c, 0, 64, 62
1, 235892, Note_off_c, 0, 48, 57
1, 235898, Note_on_c, 0, 55, 77
1, 235906, Control_c, 0, 64, 71
1, 235908, Note_on_c, 0, 72, 73
1, 235921, Control_c, 0, 64, 91
1, 235936, Control_c, 0, 64, 127
1, 235963, Note_on_c, 0, 76, 88
1, 235964, Note_off_c, 0, 52, 60
1, 235996, Note_on_c, 0, 60, 80
1, 236006, Note_off_c, 0, 55, 62
1, 236054, Note_off_c, 0, 60, 59
1, 236059, Note_off_c, 0, 76, 57
1, 236073, Note_on_c, 0, 48, 83
1, 236151, Note_on_c, 0, 52, 75
1, 236155, Note_off_c, 0, 72, 17
1, 236162, Note_off_c, 0, 67, 47
1, 236187, Note_on_c, 0, 55, 79
1, 236255, Note_on_c, 0, 64, 68
1, 236256, Note_on_c, 0, 60, 79
1, 236286, Note_on_c, 0, 67, 74
1, 236318, Note_on_c, 0, 72, 73
1, 236352, Note_on_c, 0, 76, 89
1, 236387, Control_c, 0, 64, 100
1, 236402, Control_c, 0, 64, 68
1, 236417, Control_c, 0, 64, 0
1, 236521, Control_c, 0, 64, 68
1, 236535, Control_c, 0, 64, 77
1, 236550, Control_c, 0, 64, 92
1, 236565, Control_c, 0, 64, 127
1, 236899, Note_off_c, 0, 64, 57
1, 236983, Note_off_c, 0, 60, 55
1, 236989, Note_off_c, 0, 76, 35
1, 237071, Note_off_c, 0, 52, 55
1, 237075, Note_off_c, 0, 72, 49
1, 237093, Note_off_c, 0, 55, 57
1, 237102, Note_off_c, 0, 48, 52
1, 237114, Note_off_c, 0, 67, 38
1, 237540, Note_on_c, 0, 52, 78
1, 237540, Note_on_c, 0, 48, 73
1, 237540, Note_on_c, 0, 55, 84
1, 237540, Note_on_c, 0, 76, 92
1, 237541, Note_on_c, 0, 69, 84
1, 237543, Note_on_c, 0, 67, 92
1, 237551, Control_c, 0, 64, 90
1, 237566, Control_c, 0, 64, 80
1, 237581, Control_c, 0, 64, 82
1, 237596, Control_c, 0, 64, 93
1, 237611, Control_c, 0, 64, 127
1, 237620, Note_off_c, 0, 67, 60
1, 237637, Note_off_c, 0, 76, 63
1, 237656, Note_off_c, 0, 69, 61
1, 237890, Note_on_c, 0, 71, 87
1, 237891, Note_on_c, 0, 62, 83
1, 237893, Note_on_c, 0, 67, 81
1, 237899, Note_off_c, 0, 52, 62
1, 237901, Note_on_c, 0, 50, 69
1, 237929, Control_c, 0, 64, 81
1, 237943, Control_c, 0, 64, 0
1, 237947, Note_off_c, 0, 55, 58
1, 237949, Note_off_c, 0, 48, 62
1, 238032, Control_c, 0, 64, 42
1, 238047, Control_c, 0, 64, 69
1, 238062, Control_c, 0, 64, 81
1, 238077, Control_c, 0, 64, 109
1, 238091, Control_c, 0, 64, 127
1, 238212, Note_on_c, 0, 72, 89
1, 238244, Note_off_c, 0, 71, 60
1, 238299, Note_off_c, 0, 62, 54
1, 238339, Note_off_c, 0, 72, 61
1, 238359, Note_off_c, 0, 67, 55
1, 238633, Control_c, 0, 64, 94
1, 238648, Control_c, 0, 64, 64
1, 238661, Note_on_c, 0, 71, 85
1, 238662, Note_on_c, 0, 67, 81
1, 238663, Note_on_c, 0, 62, 76
1, 238663, Control_c, 0, 64, 0
1, 238693, Control_c, 0, 64, 50
1, 238707, Control_c, 0, 64, 71
1, 238722, Control_c, 0, 64, 101
1, 238726, Note_off_c, 0, 67, 61
1, 238728, Note_off_c, 0, 62, 60
1, 238737, Control_c, 0, 64, 127
1, 238803, Note_off_c, 0, 71, 59
1, 238858, Note_on_c, 0, 69, 75
1, 238887, Note_off_c, 0, 69, 57
1, 238914, Note_on_c, 0, 71, 75
1, 238950, Note_off_c, 0, 71, 58
1, 238976, Note_on_c, 0, 69, 77
1, 239017, Note_off_c, 0, 69, 52
1, 239019, Note_on_c, 0, 71, 83
1, 239048, Note_off_c, 0, 71, 57
1, 239060, Note_on_c, 0, 69, 66
1, 239111, Note_on_c, 0, 71, 84
1, 239111, Note_off_c, 0, 69, 65
1, 239170, Note_on_c, 0, 69, 86
1, 239177, Note_off_c, 0, 71, 65
1, 239729, Note_on_c, 0, 38, 90
1, 239729, Note_on_c, 0, 60, 84
1, 239729, Note_on_c, 0, 66, 86
1, 239767, Control_c, 0, 64, 75
1, 239782, Control_c, 0, 64, 0
1, 239871, Control_c, 0, 64, 58
1, 239886, Control_c, 0, 64, 76
1, 239909, Control_c, 0, 64, 112
1, 239924, Control_c, 0, 64, 127
1, 239954, Note_off_c, 0, 50, 64
1, 239963, Note_off_c, 0, 38, 61
1, 240698, Note_on_c, 0, 67, 89
1, 240702, Note_off_c, 0, 60, 53
1, 240739, Note_off_c, 0, 66, 57
1, 240828, Note_off_c, 0, 69, 50
1, 241014, Note_on_c, 0, 31, 91
1, 241117, Control_c, 0, 64, 91
1, 241132, Control_c, 0, 64, 65
1, 241147, Control_c, 0, 64, 0
1, 241338, Control_c, 0, 64, 36
1, 241353, Control_c, 0, 64, 67
1, 241368, Control_c, 0, 64, 74
1, 241383, Control_c, 0, 64, 85
1, 241397, Note_off_c, 0, 67, 52
1, 241406, Control_c, 0, 64, 104
1, 241420, Control_c, 0, 64, 127
1, 241519, Note_off_c, 0, 31, 61
1, 241522, Note_on_c, 0, 43, 82
1, 241603, Note_off_c, 0, 43, 64
1, 241759, Note_on_c, 0, 47, 73
1, 241914, Note_on_c, 0, 50, 75
1, 242035, Note_on_c, 0, 55, 78
1, 242134, Note_on_c, 0, 59, 81
1, 242189, Note_off_c, 0, 55, 62
1, 242221, Note_off_c, 0, 47, 60
1, 242235, Note_on_c, 0, 62, 78
1, 242239, Note_off_c, 0, 50, 61
1, 242273, Note_off_c, 0, 59, 56
1, 242316, Note_on_c, 0, 67, 82
1, 242321, Note_off_c, 0, 62, 63
1, 242401, Note_on_c, 0, 62, 83
1, 242477, Note_on_c, 0, 59, 74
1, 242544, Note_on_c, 0, 55, 74
1, 242640, Note_on_c, 0, 50, 77
1, 242664, Note_off_c, 0, 55, 63
1, 242738, Note_off_c, 0, 50, 66
1, 242742, Note_on_c, 0, 47, 73
1, 242768, Note_off_c, 0, 47, 67
1, 242908, Note_on_c, 0, 43, 77
1, 243258, Note_on_c, 0, 31, 68
1, 246696, Note_off_c, 0, 31, 60
1, 246721, Note_off_c, 0, 59, 48
1, 246735, Note_off_c, 0, 43, 50
1, 246756, Note_off_c, 0, 62, 47
1, 246760, Note_off_c, 0, 67, 57
1, 246885, Control_c, 0, 64, 126
1, 246900, Control_c, 0, 64, 108
1, 246914, Control_c, 0, 64, 99
1, 246929, Control_c, 0, 64, 90
1, 246944, Control_c, 0, 64, 78
1, 246958, Control_c, 0, 64, 66
1, 246973, Control_c, 0, 64, 21
1, 246988, Control_c, 0, 64, 0
1, 247063, End_track
0, 0, End_of_file
