0, 0, Header, 0, 1, 384
1, 0, Start_track
1, 0, Title_t, "Out of Doors Suite--Clara Yang  "
1, 0, Text_t, "2009 Piano-e-Competition audition round"
1, 0, Text_t, "captured January 2009"
1, 0, Text_t, "http://www.piano-e-competition.com/"
1, 0, Text_t, "File processed for distribution by software from Zenph Studios, Inc., http://www.zenph.com"
1, 0, Instrument_name_t, "Yamaha Disklavier Pro Mark IV concert grand piano, model DCFIIISM4PRO"
1, 0, Sequencer_specific, 39, 67, 113, 0, 1, 0, 1, 0, 79, 117, 116, 79, 102, 68, 111, 111, 114, 115, 83, 117, 105, 116, 101, 32, 67, 108, 97, 114, 97, 32, 89, 97, 110, 103, 32, 32, 32, 32, 32, 32
1, 0, Sequencer_specific, 6, 67, 113, 0, 0, 0, 69
1, 0, System_exclusive, 21, 67, 113, 126, 21, 0, 2, 2, 0, 3, 14, 1, 4, 1, 13, 13, 10, 11, 9, 2, 7, 247
1, 0, Sequencer_specific, 5, 67, 123, 12, 2, 1
1, 0, Tempo, 512820
1, 0, Time_signature, 4, 2, 24, 8
1, 0, System_exclusive, 5, 126, 127, 9, 1, 247
1, 1, System_exclusive, 8, 67, 16, 76, 0, 0, 126, 0, 247
1, 2, System_exclusive, 8, 67, 16, 76, 8, 9, 7, 1, 247
1, 3, Control_c, 0, 0, 0
1, 3, Control_c, 1, 0, 0
1, 3, Control_c, 2, 0, 0
1, 3, Control_c, 3, 0, 0
1, 3, Control_c, 4, 0, 0
1, 3, Control_c, 5, 0, 0
1, 3, Control_c, 6, 0, 0
1, 3, Control_c, 7, 0, 0
1, 3, Control_c, 8, 0, 0
1, 3, Control_c, 9, 0, 127
1, 3, Control_c, 10, 0, 0
1, 3, Control_c, 11, 0, 0
1, 3, Control_c, 12, 0, 0
1, 3, Control_c, 13, 0, 0
1, 3, Control_c, 14, 0, 0
1, 3, Control_c, 15, 0, 0
1, 4, Control_c, 0, 32, 0
1, 4, Control_c, 1, 32, 0
1, 4, Control_c, 2, 32, 0
1, 4, Control_c, 3, 32, 0
1, 4, Control_c, 4, 32, 0
1, 4, Control_c, 5, 32, 0
1, 4, Control_c, 6, 32, 0
1, 4, Control_c, 7, 32, 0
1, 4, Control_c, 8, 32, 0
1, 4, Control_c, 9, 32, 0
1, 4, Control_c, 10, 32, 0
1, 4, Control_c, 11, 32, 0
1, 4, Control_c, 12, 32, 0
1, 4, Control_c, 13, 32, 0
1, 4, Control_c, 14, 32, 0
1, 4, Control_c, 15, 32, 0
1, 5, Program_c, 0, 0
1, 5, Program_c, 1, 0
1, 5, Program_c, 2, 0
1, 5, Program_c, 3, 0
1, 5, Program_c, 4, 0
1, 5, Program_c, 5, 0
1, 5, Program_c, 6, 0
1, 5, Program_c, 7, 0
1, 5, Program_c, 8, 0
1, 5, Program_c, 9, 0
1, 5, Program_c, 10, 0
1, 5, Program_c, 11, 0
1, 5, Program_c, 12, 0
1, 5, Program_c, 13, 0
1, 5, Program_c, 14, 0
1, 5, Program_c, 15, 0
1, 6, Control_c, 0, 7, 100
1, 6, Control_c, 1, 7, 100
1, 6, Control_c, 2, 7, 100
1, 6, Control_c, 3, 7, 100
1, 6, Control_c, 4, 7, 100
1, 6, Control_c, 5, 7, 100
1, 6, Control_c, 6, 7, 100
1, 6, Control_c, 7, 7, 100
1, 6, Control_c, 8, 7, 100
1, 6, Control_c, 9, 7, 100
1, 6, Control_c, 10, 7, 100
1, 6, Control_c, 11, 7, 100
1, 6, Control_c, 12, 7, 100
1, 6, Control_c, 13, 7, 100
1, 6, Control_c, 14, 7, 100
1, 6, Control_c, 15, 7, 100
1, 117, Control_c, 0, 64, 8
1, 117, Control_c, 0, 67, 15
1, 229, Control_c, 0, 64, 16
1, 229, Control_c, 0, 67, 31
1, 341, Control_c, 0, 64, 24
1, 341, Control_c, 0, 67, 46
1, 452, Control_c, 0, 64, 32
1, 452, Control_c, 0, 67, 63
1, 564, Control_c, 0, 64, 40
1, 564, Control_c, 0, 67, 77
1, 676, Control_c, 0, 64, 48
1, 676, Control_c, 0, 67, 94
1, 787, Control_c, 0, 64, 56
1, 787, Control_c, 0, 67, 108
1, 899, Control_c, 0, 64, 64
1, 899, Control_c, 0, 67, 127
1, 1138, Note_on_c, 0, 46, 28
1, 1281, Control_c, 0, 64, 63
1, 1399, Control_c, 0, 64, 63
1, 1460, Note_on_c, 0, 51, 42
1, 1542, Control_c, 0, 64, 62
1, 1601, Control_c, 0, 64, 62
1, 1630, Control_c, 0, 64, 61
1, 1638, Note_off_c, 0, 46, 42
1, 1645, Control_c, 0, 64, 61
1, 1653, Note_on_c, 0, 56, 44
1, 1660, Control_c, 0, 64, 60
1, 1689, Control_c, 0, 64, 60
1, 1704, Control_c, 0, 64, 59
1, 1719, Control_c, 0, 64, 59
1, 1734, Control_c, 0, 64, 58
1, 1749, Control_c, 0, 64, 57
1, 1763, Control_c, 0, 64, 57
1, 1778, Control_c, 0, 64, 56
1, 1793, Control_c, 0, 64, 55
1, 1808, Note_off_c, 0, 51, 31
1, 1808, Control_c, 0, 64, 54
1, 1823, Control_c, 0, 64, 53
1, 1838, Control_c, 0, 64, 52
1, 1839, Note_on_c, 0, 57, 38
1, 1853, Control_c, 0, 64, 52
1, 1867, Control_c, 0, 64, 51
1, 1882, Control_c, 0, 64, 50
1, 1897, Control_c, 0, 64, 49
1, 1912, Control_c, 0, 64, 49
1, 1927, Control_c, 0, 64, 47
1, 1942, Control_c, 0, 64, 46
1, 1956, Control_c, 0, 64, 44
1, 1971, Control_c, 0, 64, 41
1, 1986, Control_c, 0, 64, 38
1, 2001, Control_c, 0, 64, 33
1, 2009, Note_on_c, 0, 52, 48
1, 2016, Control_c, 0, 64, 26
1, 2029, Control_c, 0, 64, 19
1, 2044, Control_c, 0, 64, 10
1, 2059, Control_c, 0, 64, 0
1, 2067, Note_off_c, 0, 56, 35
1, 2166, Note_on_c, 0, 47, 52
1, 2192, Control_c, 0, 64, 9
1, 2207, Control_c, 0, 64, 10
1, 2229, Control_c, 0, 64, 12
1, 2259, Control_c, 0, 64, 13
1, 2273, Control_c, 0, 64, 14
1, 2288, Control_c, 0, 64, 15
1, 2304, Control_c, 0, 64, 17
1, 2319, Control_c, 0, 64, 18
1, 2334, Control_c, 0, 64, 19
1, 2342, Note_on_c, 0, 46, 49
1, 2349, Note_off_c, 0, 52, 37
1, 2349, Control_c, 0, 64, 20
1, 2364, Control_c, 0, 64, 21
1, 2378, Control_c, 0, 64, 22
1, 2393, Control_c, 0, 64, 23
1, 2408, Control_c, 0, 64, 23
1, 2418, Note_off_c, 0, 57, 36
1, 2423, Control_c, 0, 64, 24
1, 2438, Control_c, 0, 64, 24
1, 2452, Control_c, 0, 64, 25
1, 2482, Control_c, 0, 64, 25
1, 2493, Note_off_c, 0, 47, 58
1, 2497, Control_c, 0, 64, 26
1, 2511, Control_c, 0, 64, 27
1, 2526, Control_c, 0, 64, 28
1, 2531, Note_on_c, 0, 51, 51
1, 2541, Control_c, 0, 64, 29
1, 2571, Control_c, 0, 64, 30
1, 2601, Control_c, 0, 64, 30
1, 2630, Note_off_c, 0, 46, 36
1, 2631, Control_c, 0, 64, 31
1, 2660, Control_c, 0, 64, 31
1, 2706, Note_on_c, 0, 56, 31
1, 2734, Control_c, 0, 64, 32
1, 2749, Control_c, 0, 64, 32
1, 2791, Note_off_c, 0, 51, 33
1, 2878, Note_on_c, 0, 55, 38
1, 2956, Control_c, 0, 64, 33
1, 2978, Control_c, 0, 64, 33
1, 3008, Control_c, 0, 64, 34
1, 3023, Control_c, 0, 64, 35
1, 3037, Control_c, 0, 64, 35
1, 3044, Note_off_c, 0, 56, 45
1, 3052, Control_c, 0, 64, 36
1, 3062, Note_on_c, 0, 50, 48
1, 3082, Control_c, 0, 64, 36
1, 3096, Note_off_c, 0, 55, 36
1, 3098, Control_c, 0, 64, 37
1, 3232, Note_on_c, 0, 45, 46
1, 3245, Note_off_c, 0, 50, 59
1, 3334, Control_c, 0, 64, 36
1, 3349, Control_c, 0, 64, 34
1, 3364, Control_c, 0, 64, 32
1, 3379, Control_c, 0, 64, 30
1, 3394, Control_c, 0, 64, 29
1, 3409, Control_c, 0, 64, 28
1, 3423, Control_c, 0, 64, 27
1, 3443, Note_off_c, 0, 45, 54
1, 3449, Note_on_c, 0, 41, 39
1, 3457, Note_on_c, 0, 46, 40
1, 3468, Control_c, 0, 64, 28
1, 3483, Control_c, 0, 64, 33
1, 3498, Control_c, 0, 64, 40
1, 3513, Control_c, 0, 64, 47
1, 3527, Control_c, 0, 64, 53
1, 3542, Control_c, 0, 64, 59
1, 3557, Control_c, 0, 64, 63
1, 3572, Control_c, 0, 64, 65
1, 3587, Control_c, 0, 64, 69
1, 3601, Control_c, 0, 64, 73
1, 3616, Control_c, 0, 64, 77
1, 3624, Note_off_c, 0, 41, 49
1, 3631, Control_c, 0, 64, 79
1, 3645, Control_c, 0, 64, 81
1, 3660, Control_c, 0, 64, 82
1, 3667, Note_off_c, 0, 46, 59
1, 3675, Control_c, 0, 64, 83
1, 3690, Control_c, 0, 64, 83
1, 3698, Note_on_c, 0, 51, 49
1, 3705, Control_c, 0, 64, 84
1, 3848, Note_off_c, 0, 51, 49
1, 3860, Note_on_c, 0, 56, 59
1, 3950, Control_c, 0, 64, 83
1, 3965, Control_c, 0, 64, 83
1, 3980, Control_c, 0, 64, 82
1, 3995, Control_c, 0, 64, 81
1, 4010, Control_c, 0, 64, 79
1, 4024, Control_c, 0, 64, 76
1, 4027, Note_on_c, 0, 57, 42
1, 4030, Note_on_c, 0, 60, 63
1, 4039, Control_c, 0, 64, 72
1, 4054, Control_c, 0, 64, 69
1, 4064, Note_off_c, 0, 56, 56
1, 4068, Control_c, 0, 64, 65
1, 4083, Control_c, 0, 64, 62
1, 4098, Control_c, 0, 64, 61
1, 4113, Control_c, 0, 64, 60
1, 4128, Control_c, 0, 64, 60
1, 4142, Control_c, 0, 64, 59
1, 4157, Control_c, 0, 64, 59
1, 4172, Control_c, 0, 64, 58
1, 4201, Note_on_c, 0, 52, 60
1, 4213, Note_off_c, 0, 60, 59
1, 4276, Control_c, 0, 64, 58
1, 4360, Note_on_c, 0, 47, 64
1, 4410, Control_c, 0, 64, 57
1, 4491, Control_c, 0, 64, 57
1, 4517, Note_off_c, 0, 52, 54
1, 4558, Note_on_c, 0, 46, 55
1, 4565, Control_c, 0, 64, 56
1, 4573, Note_off_c, 0, 57, 54
1, 4654, Control_c, 0, 64, 56
1, 4658, Note_off_c, 0, 47, 55
1, 4714, Control_c, 0, 64, 55
1, 4736, Note_on_c, 0, 51, 63
1, 4744, Control_c, 0, 64, 55
1, 4773, Control_c, 0, 64, 54
1, 4777, Note_off_c, 0, 46, 54
1, 4818, Control_c, 0, 64, 54
1, 4877, Control_c, 0, 64, 53
1, 4898, Note_on_c, 0, 56, 62
1, 4953, Note_off_c, 0, 51, 51
1, 5010, Control_c, 0, 64, 53
1, 5069, Control_c, 0, 64, 52
1, 5080, Note_on_c, 0, 55, 47
1, 5253, Note_on_c, 0, 50, 52
1, 5271, Note_off_c, 0, 55, 48
1, 5277, Note_off_c, 0, 56, 43
1, 5284, Control_c, 0, 64, 52
1, 5439, Note_off_c, 0, 50, 64
1, 5440, Note_on_c, 0, 45, 47
1, 5447, Control_c, 0, 64, 51
1, 5492, Control_c, 0, 64, 51
1, 5522, Control_c, 0, 64, 50
1, 5622, Note_on_c, 0, 41, 48
1, 5627, Note_off_c, 0, 45, 52
1, 5793, Note_on_c, 0, 44, 35
1, 5833, Control_c, 0, 64, 51
1, 5847, Note_off_c, 0, 41, 50
1, 5877, Control_c, 0, 64, 51
1, 5936, Control_c, 0, 64, 52
1, 5999, Note_on_c, 0, 49, 41
1, 6047, Control_c, 0, 64, 52
1, 6062, Note_off_c, 0, 44, 37
1, 6198, Note_on_c, 0, 54, 37
1, 6264, Note_off_c, 0, 49, 35
1, 6285, Control_c, 0, 64, 52
1, 6315, Control_c, 0, 64, 51
1, 6330, Control_c, 0, 64, 48
1, 6345, Control_c, 0, 64, 42
1, 6360, Control_c, 0, 64, 25
1, 6373, Note_on_c, 0, 53, 42
1, 6375, Control_c, 0, 64, 0
1, 6458, Note_off_c, 0, 54, 48
1, 6559, Note_on_c, 0, 48, 46
1, 6565, Note_off_c, 0, 53, 52
1, 6597, Control_c, 0, 64, 42
1, 6612, Control_c, 0, 64, 56
1, 6626, Control_c, 0, 64, 62
1, 6641, Control_c, 0, 64, 65
1, 6656, Control_c, 0, 64, 70
1, 6670, Control_c, 0, 64, 76
1, 6685, Control_c, 0, 64, 84
1, 6700, Control_c, 0, 64, 88
1, 6723, Control_c, 0, 64, 92
1, 6731, Note_off_c, 0, 48, 59
1, 6738, Control_c, 0, 64, 95
1, 6738, Note_on_c, 0, 43, 63
1, 6752, Control_c, 0, 64, 99
1, 6767, Control_c, 0, 64, 104
1, 6773, Note_off_c, 0, 43, 63
1, 6782, Control_c, 0, 64, 109
1, 6797, Control_c, 0, 64, 113
1, 6812, Control_c, 0, 64, 118
1, 6826, Control_c, 0, 64, 127
1, 6959, Control_c, 0, 64, 106
1, 6974, Control_c, 0, 64, 83
1, 6989, Control_c, 0, 64, 67
1, 6991, Note_on_c, 0, 31, 46
1, 7004, Control_c, 0, 64, 49
1, 7018, Control_c, 0, 64, 41
1, 7033, Control_c, 0, 64, 51
1, 7048, Control_c, 0, 64, 58
1, 7063, Control_c, 0, 64, 64
1, 7072, Note_off_c, 0, 31, 61
1, 7078, Control_c, 0, 64, 69
1, 7093, Control_c, 0, 64, 75
1, 7108, Control_c, 0, 64, 80
1, 7123, Control_c, 0, 64, 85
1, 7138, Control_c, 0, 64, 89
1, 7153, Control_c, 0, 64, 95
1, 7167, Control_c, 0, 64, 102
1, 7182, Control_c, 0, 64, 112
1, 7197, Control_c, 0, 64, 127
1, 7272, Note_on_c, 0, 46, 49
1, 7445, Note_on_c, 0, 51, 49
1, 7496, Note_off_c, 0, 46, 35
1, 7605, Note_on_c, 0, 65, 52
1, 7610, Note_off_c, 0, 51, 50
1, 7643, Note_on_c, 0, 53, 35
1, 7662, Note_on_c, 0, 77, 65
1, 7665, Note_off_c, 0, 65, 58
1, 7692, Note_off_c, 0, 77, 64
1, 7782, Note_off_c, 0, 53, 64
1, 7796, Note_on_c, 0, 48, 52
1, 7823, Note_off_c, 0, 48, 59
1, 8005, Note_on_c, 0, 31, 53
1, 8020, Control_c, 0, 64, 119
1, 8035, Control_c, 0, 64, 106
1, 8050, Control_c, 0, 64, 97
1, 8065, Control_c, 0, 64, 90
1, 8080, Control_c, 0, 64, 83
1, 8095, Control_c, 0, 64, 77
1, 8109, Control_c, 0, 64, 69
1, 8124, Control_c, 0, 64, 64
1, 8139, Control_c, 0, 64, 59
1, 8154, Control_c, 0, 64, 56
1, 8183, Note_on_c, 0, 46, 51
1, 8235, Control_c, 0, 64, 55
1, 8324, Control_c, 0, 64, 56
1, 8324, Control_c, 0, 67, 125
1, 8339, Control_c, 0, 67, 123
1, 8354, Control_c, 0, 67, 119
1, 8366, Note_on_c, 0, 51, 61
1, 8369, Control_c, 0, 67, 115
1, 8384, Control_c, 0, 67, 112
1, 8398, Control_c, 0, 67, 107
1, 8413, Control_c, 0, 67, 102
1, 8428, Control_c, 0, 67, 96
1, 8442, Control_c, 0, 67, 89
1, 8457, Control_c, 0, 64, 56
1, 8457, Control_c, 0, 67, 83
1, 8472, Control_c, 0, 67, 76
1, 8487, Control_c, 0, 67, 71
1, 8502, Control_c, 0, 67, 66
1, 8516, Control_c, 0, 67, 62
1, 8531, Control_c, 0, 64, 57
1, 8531, Control_c, 0, 67, 59
1, 8538, Note_on_c, 0, 56, 69
1, 8546, Control_c, 0, 67, 56
1, 8561, Control_c, 0, 67, 53
1, 8571, Note_off_c, 0, 46, 38
1, 8571, Note_off_c, 0, 31, 39
1, 8576, Control_c, 0, 67, 51
1, 8590, Control_c, 0, 67, 49
1, 8605, Control_c, 0, 67, 47
1, 8620, Control_c, 0, 67, 45
1, 8635, Control_c, 0, 64, 57
1, 8635, Control_c, 0, 67, 43
1, 8649, Control_c, 0, 67, 40
1, 8664, Control_c, 0, 67, 38
1, 8679, Control_c, 0, 67, 35
1, 8685, Note_off_c, 0, 51, 52
1, 8695, Control_c, 0, 67, 33
1, 8705, Note_on_c, 0, 58, 71
1, 8710, Control_c, 0, 67, 30
1, 8725, Control_c, 0, 67, 27
1, 8739, Control_c, 0, 67, 24
1, 8754, Control_c, 0, 67, 21
1, 8769, Control_c, 0, 67, 18
1, 8784, Control_c, 0, 67, 15
1, 8799, Control_c, 0, 67, 11
1, 8813, Control_c, 0, 64, 58
1, 8813, Control_c, 0, 67, 0
1, 8861, Note_off_c, 0, 56, 48
1, 8887, Control_c, 0, 64, 58
1, 8891, Note_on_c, 0, 53, 69
1, 8999, Control_c, 0, 64, 57
1, 9014, Control_c, 0, 64, 56
1, 9028, Control_c, 0, 64, 52
1, 9043, Control_c, 0, 64, 39
1, 9056, Note_on_c, 0, 48, 66
1, 9058, Control_c, 0, 64, 0
1, 9107, Note_off_c, 0, 53, 61
1, 9182, Note_off_c, 0, 58, 20
1, 9226, Note_off_c, 0, 48, 63
1, 9231, Note_on_c, 0, 31, 68
1, 9236, Control_c, 0, 64, 23
1, 9251, Control_c, 0, 64, 57
1, 9265, Control_c, 0, 64, 64
1, 9272, Note_off_c, 0, 31, 65
1, 9280, Control_c, 0, 64, 69
1, 9295, Control_c, 0, 64, 78
1, 9310, Control_c, 0, 64, 87
1, 9325, Control_c, 0, 64, 95
1, 9339, Control_c, 0, 64, 99
1, 9354, Control_c, 0, 64, 104
1, 9369, Control_c, 0, 64, 110
1, 9384, Control_c, 0, 64, 127
1, 9428, Note_on_c, 0, 46, 65
1, 9564, Poly_aftertouch_c, 0, 53, 127
1, 9591, Note_on_c, 0, 51, 73
1, 9605, Poly_aftertouch_c, 0, 53, 0
1, 9740, Note_on_c, 0, 77, 73
1, 9768, Note_on_c, 0, 53, 61
1, 9778, Control_c, 0, 64, 113
1, 9780, Note_on_c, 0, 89, 94
1, 9793, Control_c, 0, 64, 86
1, 9808, Control_c, 0, 64, 69
1, 9816, Note_off_c, 0, 51, 58
1, 9822, Control_c, 0, 64, 52
1, 9837, Control_c, 0, 64, 47
1, 9852, Control_c, 0, 64, 51
1, 9867, Control_c, 0, 64, 55
1, 9882, Control_c, 0, 64, 60
1, 9896, Control_c, 0, 64, 63
1, 9911, Control_c, 0, 64, 64
1, 9925, Note_off_c, 0, 46, 60
1, 9926, Control_c, 0, 64, 64
1, 9927, Note_on_c, 0, 48, 69
1, 9941, Control_c, 0, 64, 63
1, 9956, Control_c, 0, 64, 59
1, 9970, Control_c, 0, 64, 46
1, 9985, Control_c, 0, 64, 0
1, 10052, Note_off_c, 0, 53, 37
1, 10096, Note_on_c, 0, 43, 76
1, 10119, Control_c, 0, 64, 25
1, 10133, Control_c, 0, 64, 44
1, 10144, Note_off_c, 0, 48, 62
1, 10148, Control_c, 0, 64, 53
1, 10151, Note_off_c, 0, 89, 61
1, 10151, Note_off_c, 0, 77, 56
1, 10163, Control_c, 0, 64, 55
1, 10178, Control_c, 0, 64, 56
1, 10193, Control_c, 0, 64, 57
1, 10208, Control_c, 0, 64, 59
1, 10222, Control_c, 0, 64, 60
1, 10237, Control_c, 0, 64, 61
1, 10252, Control_c, 0, 64, 63
1, 10267, Control_c, 0, 64, 64
1, 10282, Control_c, 0, 64, 65
1, 10289, Note_on_c, 0, 46, 64
1, 10297, Control_c, 0, 64, 66
1, 10312, Control_c, 0, 64, 66
1, 10445, Control_c, 0, 64, 66
1, 10449, Note_on_c, 0, 51, 56
1, 10482, Control_c, 0, 64, 65
1, 10497, Control_c, 0, 64, 64
1, 10512, Control_c, 0, 64, 63
1, 10527, Control_c, 0, 64, 62
1, 10542, Control_c, 0, 64, 59
1, 10557, Control_c, 0, 64, 51
1, 10572, Control_c, 0, 64, 36
1, 10586, Control_c, 0, 64, 0
1, 10616, Control_c, 0, 67, 8
1, 10625, Note_on_c, 0, 65, 47
1, 10631, Control_c, 0, 67, 9
1, 10642, Note_on_c, 0, 53, 49
1, 10642, Note_off_c, 0, 51, 55
1, 10645, Control_c, 0, 67, 11
1, 10653, Note_off_c, 0, 46, 50
1, 10660, Control_c, 0, 67, 14
1, 10667, Note_on_c, 0, 77, 68
1, 10675, Control_c, 0, 67, 17
1, 10690, Control_c, 0, 67, 23
1, 10705, Control_c, 0, 67, 31
1, 10719, Control_c, 0, 64, 29
1, 10719, Control_c, 0, 67, 41
1, 10734, Control_c, 0, 64, 52
1, 10734, Control_c, 0, 67, 52
1, 10749, Control_c, 0, 64, 62
1, 10749, Control_c, 0, 67, 65
1, 10764, Control_c, 0, 64, 67
1, 10764, Control_c, 0, 67, 76
1, 10779, Control_c, 0, 64, 75
1, 10779, Control_c, 0, 67, 87
1, 10793, Control_c, 0, 64, 83
1, 10793, Control_c, 0, 67, 97
1, 10797, Note_off_c, 0, 77, 59
1, 10804, Note_off_c, 0, 53, 63
1, 10808, Control_c, 0, 64, 92
1, 10808, Control_c, 0, 67, 106
1, 10810, Note_on_c, 0, 48, 58
1, 10814, Note_off_c, 0, 65, 56
1, 10823, Control_c, 0, 64, 98
1, 10823, Control_c, 0, 67, 113
1, 10837, Control_c, 0, 64, 103
1, 10837, Control_c, 0, 67, 118
1, 10840, Note_off_c, 0, 48, 63
1, 10850, Note_off_c, 0, 43, 57
1, 10852, Control_c, 0, 64, 106
1, 10852, Control_c, 0, 67, 122
1, 10867, Control_c, 0, 64, 110
1, 10867, Control_c, 0, 67, 126
1, 10882, Control_c, 0, 64, 112
1, 10882, Control_c, 0, 67, 127
1, 10897, Control_c, 0, 64, 112
1, 10971, Control_c, 0, 64, 112
1, 10986, Control_c, 0, 64, 111
1, 11001, Control_c, 0, 64, 108
1, 11015, Control_c, 0, 64, 106
1, 11030, Control_c, 0, 64, 103
1, 11044, Control_c, 0, 64, 99
1, 11049, Note_on_c, 0, 31, 47
1, 11059, Control_c, 0, 64, 95
1, 11074, Control_c, 0, 64, 91
1, 11090, Control_c, 0, 64, 87
1, 11105, Control_c, 0, 64, 82
1, 11120, Control_c, 0, 64, 77
1, 11134, Control_c, 0, 64, 72
1, 11149, Control_c, 0, 64, 68
1, 11164, Control_c, 0, 64, 65
1, 11179, Control_c, 0, 64, 62
1, 11194, Control_c, 0, 64, 61
1, 11216, Control_c, 0, 64, 61
1, 11230, Control_c, 0, 64, 60
1, 11245, Control_c, 0, 64, 59
1, 11259, Note_on_c, 0, 46, 41
1, 11260, Control_c, 0, 64, 58
1, 11275, Control_c, 0, 64, 58
1, 11305, Control_c, 0, 64, 57
1, 11335, Control_c, 0, 64, 57
1, 11349, Control_c, 0, 64, 56
1, 11364, Control_c, 0, 64, 55
1, 11379, Control_c, 0, 64, 55
1, 11394, Control_c, 0, 64, 54
1, 11409, Control_c, 0, 64, 52
1, 11423, Control_c, 0, 64, 51
1, 11438, Control_c, 0, 64, 48
1, 11445, Note_on_c, 0, 51, 50
1, 11453, Control_c, 0, 64, 45
1, 11467, Control_c, 0, 64, 43
1, 11482, Control_c, 0, 64, 40
1, 11497, Control_c, 0, 64, 38
1, 11512, Control_c, 0, 64, 38
1, 11527, Control_c, 0, 64, 37
1, 11556, Control_c, 0, 64, 37
1, 11584, Note_off_c, 0, 31, 44
1, 11627, Note_on_c, 0, 53, 47
1, 11659, Note_off_c, 0, 51, 36
1, 11734, Control_c, 0, 64, 36
1, 11749, Control_c, 0, 64, 35
1, 11764, Control_c, 0, 64, 34
1, 11773, Note_off_c, 0, 46, 43
1, 11779, Control_c, 0, 64, 33
1, 11793, Control_c, 0, 64, 32
1, 11808, Control_c, 0, 64, 29
1, 11810, Note_on_c, 0, 56, 45
1, 11823, Control_c, 0, 64, 26
1, 11824, Note_off_c, 0, 53, 57
1, 11838, Control_c, 0, 64, 23
1, 11853, Control_c, 0, 64, 19
1, 11867, Control_c, 0, 64, 12
1, 11883, Control_c, 0, 64, 0
1, 12024, Note_on_c, 0, 51, 41
1, 12074, Note_off_c, 0, 56, 33
1, 12128, Control_c, 0, 64, 21
1, 12143, Control_c, 0, 64, 47
1, 12157, Control_c, 0, 64, 58
1, 12172, Control_c, 0, 64, 63
1, 12187, Control_c, 0, 64, 66
1, 12202, Control_c, 0, 64, 71
1, 12216, Control_c, 0, 64, 77
1, 12219, Note_on_c, 0, 46, 42
1, 12229, Note_off_c, 0, 51, 47
1, 12231, Control_c, 0, 64, 82
1, 12246, Control_c, 0, 64, 87
1, 12251, Note_off_c, 0, 46, 59
1, 12261, Control_c, 0, 64, 91
1, 12276, Control_c, 0, 64, 95
1, 12290, Control_c, 0, 64, 99
1, 12305, Control_c, 0, 64, 102
1, 12320, Control_c, 0, 64, 105
1, 12335, Control_c, 0, 64, 106
1, 12350, Control_c, 0, 64, 106
1, 12543, Control_c, 0, 64, 106
1, 12568, Note_on_c, 0, 43, 45
1, 12572, Control_c, 0, 67, 127
1, 12587, Control_c, 0, 64, 105
1, 12588, Note_on_c, 0, 55, 37
1, 12602, Control_c, 0, 64, 104
1, 12617, Control_c, 0, 64, 103
1, 12631, Control_c, 0, 64, 103
1, 12646, Control_c, 0, 64, 101
1, 12661, Control_c, 0, 64, 100
1, 12676, Control_c, 0, 64, 98
1, 12692, Control_c, 0, 64, 96
1, 12714, Note_on_c, 0, 67, 72
1, 12714, Control_c, 0, 64, 94
1, 12729, Control_c, 0, 64, 92
1, 12744, Control_c, 0, 64, 89
1, 12744, Control_c, 0, 67, 126
1, 12759, Control_c, 0, 64, 86
1, 12774, Control_c, 0, 64, 82
1, 12774, Control_c, 0, 67, 126
1, 12788, Control_c, 0, 64, 79
1, 12803, Control_c, 0, 64, 76
1, 12818, Control_c, 0, 64, 72
1, 12833, Control_c, 0, 64, 69
1, 12847, Control_c, 0, 64, 67
1, 12859, Note_off_c, 0, 43, 41
1, 12862, Control_c, 0, 64, 65
1, 12862, Control_c, 0, 67, 125
1, 12877, Control_c, 0, 64, 64
1, 12907, Control_c, 0, 64, 63
1, 12907, Control_c, 0, 67, 125
1, 12921, Control_c, 0, 64, 63
1, 12921, Control_c, 0, 67, 124
1, 12923, Note_on_c, 0, 57, 48
1, 12936, Control_c, 0, 64, 62
1, 12936, Control_c, 0, 67, 123
1, 12951, Control_c, 0, 64, 62
1, 12951, Control_c, 0, 67, 123
1, 12966, Control_c, 0, 64, 61
1, 12981, Control_c, 0, 64, 60
1, 12981, Control_c, 0, 67, 122
1, 12995, Control_c, 0, 64, 60
1, 13010, Control_c, 0, 64, 59
1, 13025, Control_c, 0, 64, 59
1, 13025, Control_c, 0, 67, 122
1, 13040, Control_c, 0, 64, 58
1, 13055, Control_c, 0, 64, 57
1, 13070, Control_c, 0, 64, 57
1, 13082, Note_off_c, 0, 57, 59
1, 13085, Note_on_c, 0, 59, 68
1, 13099, Control_c, 0, 64, 56
1, 13159, Control_c, 0, 64, 56
1, 13188, Control_c, 0, 67, 122
1, 13218, Control_c, 0, 64, 55
1, 13218, Control_c, 0, 67, 123
1, 13232, Control_c, 0, 64, 54
1, 13232, Control_c, 0, 67, 123
1, 13247, Control_c, 0, 64, 51
1, 13247, Control_c, 0, 67, 124
1, 13248, Note_off_c, 0, 59, 63
1, 13257, Note_on_c, 0, 66, 56
1, 13262, Control_c, 0, 64, 45
1, 13262, Control_c, 0, 67, 124
1, 13264, Note_on_c, 0, 61, 55
1, 13277, Control_c, 0, 64, 32
1, 13277, Control_c, 0, 67, 125
1, 13281, Note_off_c, 0, 66, 63
1, 13292, Control_c, 0, 64, 0
1, 13292, Control_c, 0, 67, 125
1, 13306, Control_c, 0, 67, 126
1, 13336, Control_c, 0, 67, 127
1, 13366, Control_c, 0, 67, 127
1, 13427, Note_off_c, 0, 61, 60
1, 13442, Note_on_c, 0, 60, 41
1, 13607, Note_off_c, 0, 60, 39
1, 13627, Note_on_c, 0, 58, 44
1, 13633, Note_on_c, 0, 66, 39
1, 13660, Note_off_c, 0, 66, 53
1, 13685, Control_c, 0, 64, 12
1, 13700, Control_c, 0, 64, 39
1, 13715, Control_c, 0, 64, 52
1, 13730, Control_c, 0, 64, 58
1, 13744, Control_c, 0, 64, 61
1, 13759, Control_c, 0, 64, 63
1, 13773, Note_off_c, 0, 58, 60
1, 13774, Control_c, 0, 64, 64
1, 13786, Note_on_c, 0, 56, 51
1, 13789, Control_c, 0, 64, 65
1, 13804, Control_c, 0, 64, 66
1, 13813, Note_off_c, 0, 56, 62
1, 13818, Control_c, 0, 64, 66
1, 13833, Control_c, 0, 64, 67
1, 13833, Control_c, 0, 67, 127
1, 13848, Control_c, 0, 67, 126
1, 13863, Control_c, 0, 67, 126
1, 13877, Control_c, 0, 67, 125
1, 13892, Control_c, 0, 67, 125
1, 13907, Control_c, 0, 64, 66
1, 13907, Control_c, 0, 67, 124
1, 13922, Control_c, 0, 67, 124
1, 13952, Control_c, 0, 67, 123
1, 13979, Note_on_c, 0, 43, 55
1, 14009, Control_c, 0, 64, 66
1, 14039, Control_c, 0, 64, 65
1, 14068, Control_c, 0, 64, 65
1, 14082, Note_off_c, 0, 43, 52
1, 14083, Control_c, 0, 64, 64
1, 14098, Control_c, 0, 64, 63
1, 14113, Control_c, 0, 64, 62
1, 14128, Control_c, 0, 64, 60
1, 14137, Note_on_c, 0, 66, 53
1, 14143, Control_c, 0, 64, 59
1, 14152, Note_on_c, 0, 57, 48
1, 14158, Control_c, 0, 64, 58
1, 14163, Note_off_c, 0, 66, 64
1, 14173, Control_c, 0, 64, 57
1, 14187, Control_c, 0, 64, 55
1, 14209, Control_c, 0, 64, 55
1, 14224, Control_c, 0, 64, 54
1, 14268, Control_c, 0, 64, 54
1, 14310, Note_off_c, 0, 57, 57
1, 14322, Note_on_c, 0, 59, 65
1, 14480, Note_off_c, 0, 59, 62
1, 14482, Note_on_c, 0, 66, 57
1, 14495, Note_on_c, 0, 61, 56
1, 14512, Note_off_c, 0, 66, 65
1, 14521, Control_c, 0, 67, 124
1, 14610, Control_c, 0, 64, 53
1, 14625, Control_c, 0, 64, 53
1, 14625, Control_c, 0, 67, 124
1, 14640, Control_c, 0, 64, 52
1, 14648, Note_off_c, 0, 61, 59
1, 14655, Control_c, 0, 64, 50
1, 14664, Note_on_c, 0, 60, 49
1, 14670, Control_c, 0, 64, 48
1, 14684, Control_c, 0, 64, 44
1, 14684, Control_c, 0, 67, 125
1, 14699, Control_c, 0, 64, 39
1, 14714, Control_c, 0, 64, 29
1, 14729, Control_c, 0, 64, 0
1, 14729, Control_c, 0, 67, 125
1, 14744, Control_c, 0, 67, 126
1, 14773, Control_c, 0, 67, 126
1, 14788, Control_c, 0, 67, 127
1, 14802, Note_off_c, 0, 60, 56
1, 14832, Control_c, 0, 67, 127
1, 14837, Note_on_c, 0, 58, 44
1, 14906, Control_c, 0, 67, 127
1, 14917, Note_on_c, 0, 65, 74
1, 14921, Control_c, 0, 67, 126
1, 14936, Control_c, 0, 67, 125
1, 14958, Control_c, 0, 64, 45
1, 14958, Control_c, 0, 67, 124
1, 14973, Control_c, 0, 64, 57
1, 14973, Control_c, 0, 67, 124
1, 14988, Control_c, 0, 64, 61
1, 14988, Control_c, 0, 67, 123
1, 15003, Control_c, 0, 64, 64
1, 15003, Control_c, 0, 67, 123
1, 15007, Note_off_c, 0, 67, 58
1, 15016, Note_off_c, 0, 58, 62
1, 15017, Control_c, 0, 64, 67
1, 15032, Control_c, 0, 64, 71
1, 15032, Control_c, 0, 67, 122
1, 15034, Note_on_c, 0, 56, 47
1, 15044, Note_off_c, 0, 55, 56
1, 15047, Control_c, 0, 64, 76
1, 15047, Control_c, 0, 67, 122
1, 15060, Note_off_c, 0, 56, 57
1, 15062, Control_c, 0, 64, 77
1, 15077, Control_c, 0, 64, 78
1, 15093, Control_c, 0, 64, 78
1, 15107, Control_c, 0, 67, 121
1, 15255, Note_on_c, 0, 43, 24
1, 15285, Control_c, 0, 64, 78
1, 15287, Note_on_c, 0, 55, 38
1, 15314, Control_c, 0, 64, 77
1, 15320, Note_off_c, 0, 43, 0
1, 15320, Note_on_c, 0, 43, 2
1, 15329, Control_c, 0, 64, 76
1, 15330, Note_on_c, 0, 67, 80
1, 15344, Note_off_c, 0, 65, 59
1, 15344, Control_c, 0, 64, 74
1, 15359, Control_c, 0, 64, 71
1, 15374, Control_c, 0, 64, 67
1, 15389, Control_c, 0, 64, 64
1, 15404, Control_c, 0, 64, 61
1, 15419, Control_c, 0, 64, 60
1, 15433, Control_c, 0, 64, 59
1, 15439, Note_off_c, 0, 43, 51
1, 15448, Control_c, 0, 64, 59
1, 15463, Control_c, 0, 64, 58
1, 15478, Control_c, 0, 64, 58
1, 15493, Control_c, 0, 64, 57
1, 15494, Note_on_c, 0, 57, 53
1, 15507, Control_c, 0, 64, 57
1, 15552, Control_c, 0, 64, 56
1, 15581, Control_c, 0, 64, 56
1, 15611, Control_c, 0, 64, 55
1, 15654, Note_on_c, 0, 59, 65
1, 15654, Note_off_c, 0, 57, 47
1, 15655, Control_c, 0, 64, 55
1, 15781, Control_c, 0, 64, 54
1, 15811, Control_c, 0, 64, 54
1, 15820, Note_off_c, 0, 59, 60
1, 15826, Control_c, 0, 64, 53
1, 15826, Control_c, 0, 67, 122
1, 15839, Note_on_c, 0, 66, 48
1, 15839, Note_on_c, 0, 61, 55
1, 15840, Control_c, 0, 64, 53
1, 15855, Control_c, 0, 67, 122
1, 15863, Note_off_c, 0, 66, 59
1, 15870, Control_c, 0, 64, 52
1, 15886, Control_c, 0, 64, 51
1, 15886, Control_c, 0, 67, 123
1, 15901, Control_c, 0, 64, 51
1, 15916, Control_c, 0, 64, 50
1, 15916, Control_c, 0, 67, 123
1, 15930, Control_c, 0, 64, 50
1, 15930, Control_c, 0, 67, 124
1, 15945, Control_c, 0, 64, 49
1, 15960, Control_c, 0, 64, 48
1, 15960, Control_c, 0, 67, 124
1, 15975, Control_c, 0, 64, 47
1, 15975, Control_c, 0, 67, 125
1, 15990, Note_off_c, 0, 61, 57
1, 15990, Control_c, 0, 64, 47
1, 16004, Control_c, 0, 64, 46
1, 16004, Control_c, 0, 67, 125
1, 16007, Note_on_c, 0, 60, 44
1, 16019, Control_c, 0, 64, 44
1, 16019, Control_c, 0, 67, 126
1, 16034, Control_c, 0, 64, 43
1, 16034, Control_c, 0, 67, 127
1, 16049, Control_c, 0, 64, 40
1, 16049, Control_c, 0, 67, 127
1, 16063, Control_c, 0, 64, 36
1, 16078, Control_c, 0, 64, 27
1, 16093, Control_c, 0, 64, 0
1, 16191, Note_on_c, 0, 58, 50
1, 16194, Note_on_c, 0, 66, 47
1, 16203, Note_off_c, 0, 60, 45
1, 16217, Note_off_c, 0, 66, 59
1, 16256, Control_c, 0, 64, 19
1, 16271, Control_c, 0, 64, 45
1, 16286, Control_c, 0, 64, 55
1, 16301, Control_c, 0, 64, 57
1, 16316, Control_c, 0, 64, 58
1, 16331, Control_c, 0, 64, 59
1, 16336, Note_off_c, 0, 58, 62
1, 16346, Control_c, 0, 64, 59
1, 16352, Note_on_c, 0, 56, 45
1, 16378, Note_off_c, 0, 56, 58
1, 16420, Control_c, 0, 64, 59
1, 16435, Control_c, 0, 64, 58
1, 16456, Control_c, 0, 64, 58
1, 16471, Control_c, 0, 64, 57
1, 16501, Control_c, 0, 64, 57
1, 16516, Control_c, 0, 64, 56
1, 16530, Control_c, 0, 64, 56
1, 16538, Note_on_c, 0, 43, 54
1, 16545, Control_c, 0, 64, 55
1, 16575, Control_c, 0, 64, 54
1, 16590, Control_c, 0, 64, 54
1, 16620, Control_c, 0, 64, 53
1, 16650, Note_off_c, 0, 43, 59
1, 16701, Note_on_c, 0, 66, 57
1, 16724, Note_on_c, 0, 57, 53
1, 16733, Note_off_c, 0, 66, 67
1, 16799, Control_c, 0, 67, 127
1, 16813, Control_c, 0, 67, 126
1, 16828, Control_c, 0, 67, 126
1, 16843, Control_c, 0, 67, 125
1, 16858, Control_c, 0, 67, 125
1, 16873, Control_c, 0, 67, 124
1, 16882, Note_on_c, 0, 59, 73
1, 16885, Note_off_c, 0, 57, 58
1, 16887, Control_c, 0, 67, 123
1, 16902, Control_c, 0, 64, 54
1, 16902, Control_c, 0, 67, 122
1, 16917, Control_c, 0, 67, 121
1, 16932, Control_c, 0, 67, 120
1, 16947, Control_c, 0, 67, 120
1, 16961, Control_c, 0, 67, 118
1, 16976, Control_c, 0, 64, 54
1, 16976, Control_c, 0, 67, 117
1, 16991, Control_c, 0, 67, 116
1, 17004, Control_c, 0, 67, 115
1, 17019, Control_c, 0, 67, 114
1, 17049, Note_on_c, 0, 61, 72
1, 17049, Note_off_c, 0, 59, 62
1, 17049, Control_c, 0, 64, 55
1, 17049, Control_c, 0, 67, 114
1, 17064, Control_c, 0, 67, 113
1, 17079, Control_c, 0, 64, 55
1, 17153, Control_c, 0, 67, 114
1, 17168, Control_c, 0, 64, 55
1, 17168, Control_c, 0, 67, 114
1, 17183, Control_c, 0, 64, 52
1, 17183, Control_c, 0, 67, 115
1, 17204, Control_c, 0, 64, 43
1, 17204, Control_c, 0, 67, 116
1, 17219, Control_c, 0, 64, 0
1, 17219, Control_c, 0, 67, 117
1, 17234, Control_c, 0, 67, 118
1, 17237, Note_on_c, 0, 65, 57
1, 17239, Note_off_c, 0, 61, 52
1, 17246, Note_on_c, 0, 66, 45
1, 17249, Control_c, 0, 67, 118
1, 17264, Control_c, 0, 67, 119
1, 17278, Note_off_c, 0, 65, 61
1, 17294, Control_c, 0, 67, 119
1, 17323, Control_c, 0, 67, 120
1, 17387, Note_off_c, 0, 66, 60
1, 17413, Note_off_c, 0, 55, 61
1, 17414, Note_on_c, 0, 60, 54
1, 17427, Control_c, 0, 64, 42
1, 17427, Control_c, 0, 67, 119
1, 17442, Control_c, 0, 64, 56
1, 17442, Control_c, 0, 67, 119
1, 17457, Control_c, 0, 64, 61
1, 17472, Control_c, 0, 64, 63
1, 17472, Control_c, 0, 67, 118
1, 17484, Note_off_c, 0, 67, 62
1, 17487, Control_c, 0, 64, 64
1, 17487, Control_c, 0, 67, 117
1, 17502, Control_c, 0, 64, 67
1, 17502, Control_c, 0, 67, 117
1, 17517, Control_c, 0, 64, 70
1, 17517, Control_c, 0, 67, 116
1, 17532, Control_c, 0, 64, 73
1, 17532, Control_c, 0, 67, 116
1, 17547, Control_c, 0, 64, 75
1, 17562, Control_c, 0, 64, 77
1, 17562, Control_c, 0, 67, 115
1, 17571, Note_off_c, 0, 60, 60
1, 17576, Control_c, 0, 64, 79
1, 17576, Control_c, 0, 67, 115
1, 17591, Control_c, 0, 64, 80
1, 17591, Control_c, 0, 67, 114
1, 17592, Note_on_c, 0, 58, 51
1, 17606, Control_c, 0, 64, 82
1, 17606, Control_c, 0, 67, 114
1, 17621, Control_c, 0, 64, 83
1, 17621, Control_c, 0, 67, 113
1, 17635, Control_c, 0, 64, 84
1, 17635, Control_c, 0, 67, 113
1, 17650, Control_c, 0, 64, 84
1, 17650, Control_c, 0, 67, 112
1, 17663, Note_on_c, 0, 72, 78
1, 17665, Control_c, 0, 67, 112
1, 17680, Control_c, 0, 64, 85
1, 17680, Control_c, 0, 67, 111
1, 17695, Control_c, 0, 67, 107
1, 17709, Control_c, 0, 67, 102
1, 17724, Control_c, 0, 67, 97
1, 17739, Control_c, 0, 67, 92
1, 17754, Control_c, 0, 67, 87
1, 17769, Control_c, 0, 67, 81
1, 17783, Control_c, 0, 67, 75
1, 17791, Note_on_c, 0, 56, 46
1, 17798, Control_c, 0, 67, 69
1, 17800, Note_off_c, 0, 58, 38
1, 17813, Control_c, 0, 67, 63
1, 17818, Note_off_c, 0, 56, 56
1, 17827, Control_c, 0, 67, 59
1, 17842, Control_c, 0, 67, 57
1, 17857, Control_c, 0, 67, 56
1, 17872, Control_c, 0, 67, 55
1, 17887, Control_c, 0, 67, 54
1, 18013, Control_c, 0, 64, 84
1, 18027, Control_c, 0, 64, 84
1, 18040, Note_on_c, 0, 43, 53
1, 18042, Control_c, 0, 64, 83
1, 18057, Control_c, 0, 64, 83
1, 18072, Control_c, 0, 64, 82
1, 18087, Control_c, 0, 64, 81
1, 18101, Control_c, 0, 64, 80
1, 18116, Control_c, 0, 64, 79
1, 18131, Control_c, 0, 64, 77
1, 18135, Note_on_c, 0, 70, 67
1, 18146, Control_c, 0, 64, 76
1, 18161, Control_c, 0, 64, 74
1, 18176, Control_c, 0, 64, 73
1, 18191, Control_c, 0, 64, 72
1, 18206, Control_c, 0, 64, 70
1, 18221, Control_c, 0, 64, 69
1, 18235, Control_c, 0, 64, 68
1, 18242, Note_off_c, 0, 43, 45
1, 18250, Control_c, 0, 64, 68
1, 18265, Control_c, 0, 64, 67
1, 18280, Control_c, 0, 64, 67
1, 18291, Note_off_c, 0, 72, 62
1, 18295, Control_c, 0, 64, 66
1, 18309, Note_on_c, 0, 68, 73
1, 18310, Control_c, 0, 64, 66
1, 18310, Control_c, 0, 67, 55
1, 18316, Note_on_c, 0, 57, 50
1, 18325, Control_c, 0, 64, 65
1, 18340, Control_c, 0, 64, 65
1, 18355, Control_c, 0, 64, 64
1, 18370, Control_c, 0, 64, 64
1, 18385, Control_c, 0, 64, 63
1, 18399, Control_c, 0, 64, 63
1, 18429, Control_c, 0, 64, 62
1, 18444, Control_c, 0, 64, 62
1, 18458, Control_c, 0, 64, 61
1, 18462, Note_off_c, 0, 57, 64
1, 18464, Note_off_c, 0, 70, 56
1, 18469, Note_on_c, 0, 67, 74
1, 18472, Note_on_c, 0, 59, 61
1, 18473, Control_c, 0, 64, 61
1, 18488, Control_c, 0, 64, 60
1, 18518, Control_c, 0, 64, 60
1, 18547, Control_c, 0, 64, 59
1, 18577, Control_c, 0, 64, 59
1, 18606, Control_c, 0, 64, 58
1, 18614, Note_off_c, 0, 68, 63
1, 18635, Note_on_c, 0, 65, 77
1, 18635, Note_off_c, 0, 67, 64
1, 18639, Note_off_c, 0, 59, 60
1, 18640, Note_on_c, 0, 61, 62
1, 18650, Control_c, 0, 64, 58
1, 18680, Control_c, 0, 64, 57
1, 18747, Control_c, 0, 64, 57
1, 18762, Control_c, 0, 64, 56
1, 18791, Control_c, 0, 64, 56
1, 18805, Note_off_c, 0, 61, 60
1, 18821, Control_c, 0, 64, 55
1, 18831, Note_on_c, 0, 63, 60
1, 18840, Note_on_c, 0, 60, 43
1, 18859, Note_off_c, 0, 65, 57
1, 18865, Control_c, 0, 64, 55
1, 18999, Control_c, 0, 64, 54
1, 19014, Note_off_c, 0, 60, 53
1, 19018, Note_on_c, 0, 58, 52
1, 19103, Control_c, 0, 67, 55
1, 19163, Control_c, 0, 67, 56
1, 19192, Note_on_c, 0, 56, 55
1, 19222, Control_c, 0, 67, 56
1, 19236, Note_off_c, 0, 58, 54
1, 19341, Control_c, 0, 67, 57
1, 19353, Note_on_c, 0, 55, 59
1, 19374, Note_off_c, 0, 56, 59
1, 19535, Note_on_c, 0, 57, 62
1, 19541, Control_c, 0, 64, 55
1, 19595, Note_off_c, 0, 55, 54
1, 19630, Control_c, 0, 67, 57
1, 19689, Control_c, 0, 67, 58
1, 19704, Control_c, 0, 64, 55
1, 19708, Note_on_c, 0, 59, 63
1, 19719, Control_c, 0, 67, 58
1, 19734, Control_c, 0, 67, 59
1, 19762, Note_off_c, 0, 57, 61
1, 19763, Control_c, 0, 67, 59
1, 19778, Control_c, 0, 67, 60
1, 19793, Control_c, 0, 67, 60
1, 19807, Control_c, 0, 67, 61
1, 19822, Control_c, 0, 67, 61
1, 19837, Control_c, 0, 67, 62
1, 19845, Note_off_c, 0, 59, 63
1, 19852, Control_c, 0, 67, 62
1, 19868, Control_c, 0, 67, 63
1, 19878, Note_on_c, 0, 60, 50
1, 19883, Control_c, 0, 67, 64
1, 19897, Control_c, 0, 67, 64
1, 19912, Control_c, 0, 67, 65
1, 19927, Control_c, 0, 67, 67
1, 19942, Control_c, 0, 67, 69
1, 19957, Control_c, 0, 67, 73
1, 19971, Control_c, 0, 67, 77
1, 19986, Control_c, 0, 67, 82
1, 20001, Control_c, 0, 67, 87
1, 20012, Note_off_c, 0, 60, 63
1, 20016, Control_c, 0, 67, 92
1, 20030, Control_c, 0, 67, 97
1, 20043, Note_on_c, 0, 58, 48
1, 20045, Control_c, 0, 67, 100
1, 20060, Control_c, 0, 67, 102
1, 20075, Control_c, 0, 67, 104
1, 20090, Control_c, 0, 67, 104
1, 20149, Control_c, 0, 64, 56
1, 20179, Note_off_c, 0, 58, 62
1, 20201, Control_c, 0, 67, 104
1, 20205, Note_on_c, 0, 65, 61
1, 20209, Note_on_c, 0, 56, 49
1, 20230, Control_c, 0, 67, 103
1, 20245, Control_c, 0, 64, 56
1, 20260, Control_c, 0, 67, 103
1, 20290, Control_c, 0, 67, 102
1, 20304, Control_c, 0, 64, 57
1, 20319, Control_c, 0, 67, 102
1, 20334, Control_c, 0, 67, 101
1, 20349, Note_off_c, 0, 56, 61
1, 20349, Control_c, 0, 67, 101
1, 20362, Note_off_c, 0, 63, 23
1, 20379, Control_c, 0, 64, 57
1, 20379, Control_c, 0, 67, 100
1, 20382, Note_on_c, 0, 58, 51
1, 20383, Note_on_c, 0, 60, 61
1, 20394, Control_c, 0, 67, 100
1, 20395, Note_off_c, 0, 65, 60
1, 20423, Control_c, 0, 67, 99
1, 20438, Control_c, 0, 67, 99
1, 20453, Control_c, 0, 67, 98
1, 20468, Control_c, 0, 67, 98
1, 20497, Control_c, 0, 67, 97
1, 20512, Control_c, 0, 67, 97
1, 20542, Control_c, 0, 64, 58
1, 20542, Control_c, 0, 67, 96
1, 20548, Note_on_c, 0, 62, 71
1, 20556, Control_c, 0, 67, 96
1, 20557, Note_on_c, 0, 56, 54
1, 20571, Control_c, 0, 67, 95
1, 20586, Control_c, 0, 67, 95
1, 20595, Note_off_c, 0, 60, 63
1, 20611, Note_off_c, 0, 58, 37
1, 20616, Control_c, 0, 67, 94
1, 20645, Control_c, 0, 67, 94
1, 20660, Control_c, 0, 67, 93
1, 20691, Control_c, 0, 64, 58
1, 20691, Control_c, 0, 67, 93
1, 20706, Control_c, 0, 67, 92
1, 20715, Note_on_c, 0, 54, 50
1, 20718, Note_on_c, 0, 63, 72
1, 20720, Note_off_c, 0, 56, 58
1, 20720, Control_c, 0, 67, 90
1, 20735, Control_c, 0, 67, 88
1, 20750, Control_c, 0, 67, 86
1, 20754, Note_off_c, 0, 62, 63
1, 20765, Control_c, 0, 67, 84
1, 20780, Control_c, 0, 67, 82
1, 20794, Control_c, 0, 67, 79
1, 20809, Control_c, 0, 67, 75
1, 20824, Control_c, 0, 67, 72
1, 20838, Control_c, 0, 67, 70
1, 20853, Control_c, 0, 67, 67
1, 20868, Control_c, 0, 67, 66
1, 20883, Control_c, 0, 67, 65
1, 20898, Control_c, 0, 67, 64
1, 20912, Control_c, 0, 67, 64
1, 20960, Note_on_c, 0, 53, 44
1, 20963, Note_off_c, 0, 54, 46
1, 20972, Note_on_c, 0, 56, 70
1, 21179, Note_off_c, 0, 63, 58
1, 21187, Control_c, 0, 64, 58
1, 21192, Note_on_c, 0, 54, 56
1, 21228, Note_off_c, 0, 53, 55
1, 21350, Control_c, 0, 64, 57
1, 21360, Note_on_c, 0, 55, 61
1, 21445, Note_off_c, 0, 54, 57
1, 21535, Note_on_c, 0, 57, 60
1, 21541, Note_off_c, 0, 55, 62
1, 21685, Note_off_c, 0, 57, 61
1, 21712, Note_on_c, 0, 59, 58
1, 21846, Note_off_c, 0, 59, 59
1, 21887, Note_on_c, 0, 57, 46
1, 22054, Control_c, 0, 67, 64
1, 22061, Note_off_c, 0, 57, 52
1, 22069, Note_on_c, 0, 55, 44
1, 22098, Control_c, 0, 67, 65
1, 22143, Control_c, 0, 67, 65
1, 22172, Control_c, 0, 67, 66
1, 22187, Control_c, 0, 67, 66
1, 22201, Control_c, 0, 64, 58
1, 22209, Note_off_c, 0, 55, 60
1, 22216, Control_c, 0, 67, 67
1, 22231, Control_c, 0, 64, 58
1, 22231, Control_c, 0, 67, 67
1, 22232, Note_on_c, 0, 54, 52
1, 22247, Control_c, 0, 64, 59
1, 22247, Control_c, 0, 67, 68
1, 22262, Control_c, 0, 67, 68
1, 22292, Control_c, 0, 64, 59
1, 22292, Control_c, 0, 67, 69
1, 22307, Control_c, 0, 67, 70
1, 22322, Control_c, 0, 67, 70
1, 22337, Control_c, 0, 67, 71
1, 22352, Control_c, 0, 67, 72
1, 22366, Control_c, 0, 67, 73
1, 22378, Note_off_c, 0, 54, 59
1, 22381, Control_c, 0, 67, 75
1, 22396, Control_c, 0, 64, 59
1, 22396, Control_c, 0, 67, 79
1, 22411, Control_c, 0, 67, 85
1, 22415, Note_on_c, 0, 55, 47
1, 22425, Control_c, 0, 67, 94
1, 22448, Control_c, 0, 64, 58
1, 22448, Control_c, 0, 67, 104
1, 22462, Control_c, 0, 64, 58
1, 22462, Control_c, 0, 67, 112
1, 22477, Control_c, 0, 64, 57
1, 22477, Control_c, 0, 67, 120
1, 22492, Control_c, 0, 64, 56
1, 22492, Control_c, 0, 67, 127
1, 22507, Control_c, 0, 64, 54
1, 22507, Control_c, 0, 67, 127
1, 22522, Control_c, 0, 64, 46
1, 22537, Control_c, 0, 64, 0
1, 22570, Note_off_c, 0, 55, 54
1, 22586, Note_on_c, 0, 53, 49
1, 22591, Note_on_c, 0, 58, 69
1, 22655, Control_c, 0, 64, 38
1, 22670, Control_c, 0, 64, 58
1, 22685, Control_c, 0, 64, 64
1, 22685, Control_c, 0, 67, 125
1, 22699, Control_c, 0, 64, 69
1, 22699, Control_c, 0, 67, 123
1, 22714, Control_c, 0, 64, 74
1, 22714, Control_c, 0, 67, 120
1, 22718, Note_off_c, 0, 56, 38
1, 22729, Control_c, 0, 64, 79
1, 22729, Control_c, 0, 67, 116
1, 22730, Note_off_c, 0, 53, 64
1, 22743, Control_c, 0, 64, 83
1, 22743, Control_c, 0, 67, 111
1, 22750, Note_on_c, 0, 51, 41
1, 22758, Control_c, 0, 64, 85
1, 22758, Control_c, 0, 67, 105
1, 22759, Note_on_c, 0, 60, 73
1, 22773, Control_c, 0, 64, 87
1, 22773, Control_c, 0, 67, 97
1, 22784, Note_off_c, 0, 51, 53
1, 22788, Control_c, 0, 64, 89
1, 22788, Control_c, 0, 67, 88
1, 22791, Note_off_c, 0, 58, 61
1, 22803, Control_c, 0, 64, 90
1, 22803, Control_c, 0, 67, 77
1, 22817, Control_c, 0, 64, 91
1, 22817, Control_c, 0, 67, 68
1, 22827, Note_off_c, 0, 60, 63
1, 22832, Control_c, 0, 67, 61
1, 22847, Control_c, 0, 67, 56
1, 22862, Control_c, 0, 67, 53
1, 22877, Control_c, 0, 67, 51
1, 22892, Control_c, 0, 67, 50
1, 22907, Control_c, 0, 67, 50
1, 22933, Note_on_c, 0, 38, 52
1, 22933, Note_on_c, 0, 63, 67
1, 22936, Control_c, 0, 67, 49
1, 22951, Control_c, 0, 64, 90
1, 22966, Control_c, 0, 64, 88
1, 22968, Note_on_c, 0, 61, 75
1, 22981, Control_c, 0, 64, 86
1, 22981, Control_c, 0, 67, 49
1, 22996, Control_c, 0, 64, 81
1, 23011, Control_c, 0, 64, 76
1, 23012, Note_off_c, 0, 63, 63
1, 23025, Control_c, 0, 64, 71
1, 23040, Control_c, 0, 64, 65
1, 23055, Control_c, 0, 64, 62
1, 23069, Note_off_c, 0, 38, 61
1, 23071, Control_c, 0, 64, 60
1, 23085, Control_c, 0, 64, 60
1, 23100, Control_c, 0, 64, 59
1, 23115, Control_c, 0, 64, 58
1, 23124, Note_on_c, 0, 58, 85
1, 23130, Control_c, 0, 64, 57
1, 23136, Note_on_c, 0, 52, 53
1, 23145, Control_c, 0, 64, 56
1, 23174, Control_c, 0, 64, 55
1, 23236, Note_off_c, 0, 61, 56
1, 23241, Control_c, 0, 64, 56
1, 23255, Control_c, 0, 67, 49
1, 23282, Note_off_c, 0, 52, 62
1, 23304, Note_on_c, 0, 54, 56
1, 23345, Control_c, 0, 67, 50
1, 23404, Control_c, 0, 64, 55
1, 23434, Control_c, 0, 64, 55
1, 23448, Control_c, 0, 64, 54
1, 23463, Control_c, 0, 64, 54
1, 23470, Note_on_c, 0, 56, 56
1, 23470, Note_off_c, 0, 54, 58
1, 23477, Note_on_c, 0, 57, 42
1, 23478, Control_c, 0, 64, 53
1, 23493, Control_c, 0, 64, 52
1, 23505, Note_off_c, 0, 57, 52
1, 23508, Control_c, 0, 64, 51
1, 23522, Control_c, 0, 64, 51
1, 23537, Control_c, 0, 64, 50
1, 23552, Control_c, 0, 64, 50
1, 23566, Control_c, 0, 64, 49
1, 23581, Control_c, 0, 67, 50
1, 23596, Control_c, 0, 64, 49
1, 23596, Control_c, 0, 67, 51
1, 23611, Control_c, 0, 67, 52
1, 23613, Note_off_c, 0, 56, 59
1, 23640, Control_c, 0, 64, 48
1, 23640, Control_c, 0, 67, 52
1, 23649, Note_on_c, 0, 55, 44
1, 23655, Control_c, 0, 67, 53
1, 23670, Control_c, 0, 64, 48
1, 23670, Control_c, 0, 67, 54
1, 23685, Control_c, 0, 67, 55
1, 23700, Control_c, 0, 64, 47
1, 23700, Control_c, 0, 67, 56
1, 23714, Control_c, 0, 67, 57
1, 23729, Control_c, 0, 64, 47
1, 23729, Control_c, 0, 67, 58
1, 23744, Control_c, 0, 67, 58
1, 23759, Control_c, 0, 64, 46
1, 23759, Control_c, 0, 67, 59
1, 23774, Control_c, 0, 64, 46
1, 23774, Control_c, 0, 67, 61
1, 23789, Control_c, 0, 64, 45
1, 23789, Control_c, 0, 67, 65
1, 23804, Control_c, 0, 64, 45
1, 23804, Control_c, 0, 67, 70
1, 23812, Note_off_c, 0, 55, 55
1, 23819, Control_c, 0, 67, 78
1, 23834, Control_c, 0, 64, 44
1, 23834, Control_c, 0, 67, 88
1, 23835, Note_on_c, 0, 57, 48
1, 23837, Note_on_c, 0, 53, 47
1, 23848, Control_c, 0, 67, 99
1, 23861, Note_off_c, 0, 57, 58
1, 23864, Control_c, 0, 67, 107
1, 23878, Control_c, 0, 67, 113
1, 23893, Control_c, 0, 64, 44
1, 23893, Control_c, 0, 67, 118
1, 23908, Control_c, 0, 67, 121
1, 23923, Control_c, 0, 67, 123
1, 23945, Control_c, 0, 67, 124
1, 23992, Note_off_c, 0, 53, 63
1, 24021, Note_on_c, 0, 51, 49
1, 24078, Control_c, 0, 67, 123
1, 24093, Control_c, 0, 67, 122
1, 24108, Control_c, 0, 67, 122
1, 24138, Control_c, 0, 67, 121
1, 24153, Control_c, 0, 67, 121
1, 24168, Control_c, 0, 67, 120
1, 24174, Note_off_c, 0, 51, 59
1, 24182, Note_on_c, 0, 50, 56
1, 24182, Control_c, 0, 67, 120
1, 24197, Control_c, 0, 67, 119
1, 24212, Control_c, 0, 67, 118
1, 24227, Control_c, 0, 67, 118
1, 24242, Control_c, 0, 67, 117
1, 24257, Control_c, 0, 67, 117
1, 24271, Control_c, 0, 67, 116
1, 24286, Control_c, 0, 67, 116
1, 24301, Control_c, 0, 67, 115
1, 24331, Control_c, 0, 67, 114
1, 24345, Control_c, 0, 67, 114
1, 24365, Note_on_c, 0, 57, 65
1, 24371, Note_on_c, 0, 52, 55
1, 24375, Control_c, 0, 67, 113
1, 24388, Note_off_c, 0, 50, 51
1, 24394, Note_off_c, 0, 57, 66
1, 24404, Control_c, 0, 67, 113
1, 24434, Control_c, 0, 67, 112
1, 24449, Control_c, 0, 67, 112
1, 24478, Control_c, 0, 67, 111
1, 24508, Control_c, 0, 67, 111
1, 24522, Control_c, 0, 67, 110
1, 24537, Control_c, 0, 67, 110
1, 24544, Note_on_c, 0, 54, 56
1, 24551, Note_off_c, 0, 52, 57
1, 24582, Control_c, 0, 67, 109
1, 24627, Control_c, 0, 67, 109
1, 24715, Note_on_c, 0, 57, 56
1, 24724, Control_c, 0, 64, 39
1, 24730, Note_off_c, 0, 54, 57
1, 24736, Note_on_c, 0, 56, 53
1, 24739, Control_c, 0, 64, 24
1, 24741, Note_off_c, 0, 57, 63
1, 24754, Control_c, 0, 64, 0
1, 24754, Control_c, 0, 67, 109
1, 24898, Note_off_c, 0, 56, 59
1, 24916, Control_c, 0, 67, 109
1, 24921, Note_on_c, 0, 59, 46
1, 25056, Note_off_c, 0, 59, 58
1, 25092, Note_on_c, 0, 55, 45
1, 25212, Control_c, 0, 67, 109
1, 25241, Note_on_c, 0, 68, 52
1, 25249, Note_off_c, 0, 55, 56
1, 25257, Control_c, 0, 64, 12
1, 25272, Control_c, 0, 64, 14
1, 25283, Note_on_c, 0, 66, 61
1, 25286, Control_c, 0, 64, 17
1, 25288, Note_on_c, 0, 53, 32
1, 25301, Control_c, 0, 64, 19
1, 25303, Note_off_c, 0, 68, 51
1, 25309, Note_off_c, 0, 58, 52
1, 25316, Control_c, 0, 64, 20
1, 25331, Control_c, 0, 64, 21
1, 25345, Control_c, 0, 64, 23
1, 25360, Control_c, 0, 64, 26
1, 25375, Control_c, 0, 64, 29
1, 25390, Control_c, 0, 64, 33
1, 25405, Control_c, 0, 64, 41
1, 25420, Control_c, 0, 64, 49
1, 25442, Control_c, 0, 64, 55
1, 25457, Control_c, 0, 64, 60
1, 25473, Control_c, 0, 64, 64
1, 25488, Control_c, 0, 64, 67
1, 25488, Note_off_c, 0, 53, 53
1, 25503, Control_c, 0, 64, 71
1, 25514, Note_on_c, 0, 51, 36
1, 25517, Control_c, 0, 64, 77
1, 25522, Note_on_c, 0, 61, 66
1, 25532, Control_c, 0, 64, 82
1, 25547, Control_c, 0, 64, 85
1, 25548, Note_off_c, 0, 66, 64
1, 25549, Note_off_c, 0, 51, 48
1, 25561, Control_c, 0, 64, 87
1, 25576, Control_c, 0, 64, 89
1, 25576, Control_c, 0, 67, 110
1, 25591, Control_c, 0, 64, 90
1, 25606, Control_c, 0, 64, 91
1, 25695, Control_c, 0, 64, 90
1, 25701, Note_on_c, 0, 63, 75
1, 25710, Control_c, 0, 64, 88
1, 25713, Note_on_c, 0, 38, 50
1, 25724, Control_c, 0, 64, 86
1, 25730, Note_off_c, 0, 61, 57
1, 25739, Control_c, 0, 64, 83
1, 25754, Control_c, 0, 64, 80
1, 25768, Control_c, 0, 64, 76
1, 25783, Control_c, 0, 64, 72
1, 25798, Note_off_c, 0, 38, 54
1, 25798, Control_c, 0, 64, 68
1, 25813, Control_c, 0, 64, 65
1, 25828, Control_c, 0, 64, 63
1, 25843, Control_c, 0, 64, 62
1, 25858, Control_c, 0, 64, 62
1, 25872, Note_on_c, 0, 56, 72
1, 25876, Note_off_c, 0, 63, 66
1, 25888, Control_c, 0, 64, 61
1, 25891, Note_on_c, 0, 52, 52
1, 25902, Control_c, 0, 64, 60
1, 25902, Control_c, 0, 67, 109
1, 25917, Control_c, 0, 64, 59
1, 25932, Control_c, 0, 64, 59
1, 25947, Control_c, 0, 64, 58
1, 25961, Control_c, 0, 64, 58
1, 25961, Control_c, 0, 67, 110
1, 25976, Control_c, 0, 64, 57
1, 25991, Control_c, 0, 64, 56
1, 26006, Control_c, 0, 64, 55
1, 26021, Control_c, 0, 64, 53
1, 26034, Note_off_c, 0, 52, 61
1, 26035, Control_c, 0, 64, 52
1, 26045, Note_on_c, 0, 58, 70
1, 26050, Control_c, 0, 64, 51
1, 26057, Note_on_c, 0, 54, 50
1, 26065, Control_c, 0, 64, 50
1, 26072, Note_off_c, 0, 56, 60
1, 26080, Control_c, 0, 64, 49
1, 26080, Control_c, 0, 67, 110
1, 26095, Control_c, 0, 64, 48
1, 26222, Note_on_c, 0, 57, 51
1, 26237, Note_on_c, 0, 56, 49
1, 26245, Note_off_c, 0, 57, 60
1, 26250, Note_off_c, 0, 54, 50
1, 26250, Control_c, 0, 67, 110
1, 26370, Control_c, 0, 67, 109
1, 26377, Note_off_c, 0, 56, 58
1, 26412, Note_on_c, 0, 55, 46
1, 26429, Control_c, 0, 67, 109
1, 26473, Control_c, 0, 67, 108
1, 26557, Note_off_c, 0, 55, 55
1, 26571, Note_on_c, 0, 57, 49
1, 26584, Note_on_c, 0, 53, 45
1, 26600, Note_off_c, 0, 57, 62
1, 26733, Note_off_c, 0, 53, 60
1, 26759, Note_on_c, 0, 51, 48
1, 26784, Control_c, 0, 64, 49
1, 26916, Control_c, 0, 64, 49
1, 26939, Note_off_c, 0, 51, 59
1, 26950, Note_on_c, 0, 50, 57
1, 26998, Control_c, 0, 64, 50
1, 27028, Control_c, 0, 64, 50
1, 27058, Control_c, 0, 64, 51
1, 27074, Control_c, 0, 67, 109
1, 27088, Control_c, 0, 64, 51
1, 27122, Note_on_c, 0, 52, 54
1, 27122, Note_on_c, 0, 57, 58
1, 27127, Note_off_c, 0, 50, 54
1, 27133, Control_c, 0, 64, 52
1, 27148, Control_c, 0, 67, 109
1, 27154, Note_off_c, 0, 57, 65
1, 27177, Control_c, 0, 64, 52
1, 27192, Control_c, 0, 67, 110
1, 27207, Control_c, 0, 64, 53
1, 27251, Control_c, 0, 67, 110
1, 27266, Control_c, 0, 67, 111
1, 27281, Control_c, 0, 64, 53
1, 27315, Note_on_c, 0, 54, 60
1, 27325, Control_c, 0, 67, 111
1, 27376, Note_off_c, 0, 52, 54
1, 27384, Control_c, 0, 64, 53
1, 27384, Control_c, 0, 67, 112
1, 27414, Control_c, 0, 67, 112
1, 27429, Control_c, 0, 67, 113
1, 27458, Note_on_c, 0, 57, 53
1, 27458, Control_c, 0, 64, 52
1, 27458, Control_c, 0, 67, 113
1, 27473, Control_c, 0, 67, 114
1, 27487, Control_c, 0, 67, 115
1, 27488, Note_off_c, 0, 57, 65
1, 27495, Note_on_c, 0, 56, 58
1, 27502, Control_c, 0, 67, 115
1, 27517, Control_c, 0, 67, 116
1, 27531, Control_c, 0, 64, 52
1, 27531, Control_c, 0, 67, 117
1, 27546, Control_c, 0, 67, 117
1, 27561, Control_c, 0, 67, 118
1, 27572, Note_off_c, 0, 54, 36
1, 27576, Control_c, 0, 64, 51
1, 27576, Control_c, 0, 67, 119
1, 27591, Control_c, 0, 67, 120
1, 27605, Control_c, 0, 64, 51
1, 27605, Control_c, 0, 67, 121
1, 27620, Control_c, 0, 67, 124
1, 27635, Control_c, 0, 64, 50
1, 27635, Control_c, 0, 67, 127
1, 27650, Control_c, 0, 64, 50
1, 27650, Control_c, 0, 67, 127
1, 27652, Note_off_c, 0, 56, 58
1, 27665, Control_c, 0, 64, 49
1, 27682, Note_on_c, 0, 59, 44
1, 27687, Control_c, 0, 64, 49
1, 27702, Control_c, 0, 64, 48
1, 27717, Control_c, 0, 64, 47
1, 27732, Control_c, 0, 64, 46
1, 27746, Control_c, 0, 64, 45
1, 27761, Control_c, 0, 64, 44
1, 27776, Control_c, 0, 64, 42
1, 27791, Control_c, 0, 64, 39
1, 27806, Control_c, 0, 64, 34
1, 27820, Control_c, 0, 64, 28
1, 27835, Control_c, 0, 64, 18
1, 27841, Note_off_c, 0, 59, 55
1, 27850, Control_c, 0, 64, 0
1, 27867, Note_on_c, 0, 55, 46
1, 28002, Note_off_c, 0, 55, 59
1, 28034, Note_on_c, 0, 53, 45
1, 28103, Control_c, 0, 64, 41
1, 28117, Control_c, 0, 64, 57
1, 28132, Control_c, 0, 64, 63
1, 28147, Control_c, 0, 64, 67
1, 28162, Control_c, 0, 64, 72
1, 28165, Note_off_c, 0, 58, 61
1, 28177, Control_c, 0, 64, 81
1, 28181, Note_off_c, 0, 53, 63
1, 28192, Control_c, 0, 64, 88
1, 28207, Note_on_c, 0, 51, 48
1, 28207, Control_c, 0, 64, 93
1, 28222, Control_c, 0, 64, 97
1, 28236, Note_off_c, 0, 51, 55
1, 28236, Control_c, 0, 64, 100
1, 28251, Control_c, 0, 64, 103
1, 28266, Control_c, 0, 64, 106
1, 28281, Control_c, 0, 64, 108
1, 28296, Control_c, 0, 64, 109
1, 28414, Control_c, 0, 67, 125
1, 28421, Note_on_c, 0, 38, 53
1, 28429, Control_c, 0, 67, 122
1, 28439, Note_on_c, 0, 62, 58
1, 28451, Control_c, 0, 64, 108
1, 28451, Control_c, 0, 67, 118
1, 28466, Control_c, 0, 67, 113
1, 28481, Control_c, 0, 67, 104
1, 28496, Control_c, 0, 64, 106
1, 28496, Control_c, 0, 67, 96
1, 28499, Note_on_c, 0, 74, 89
1, 28510, Control_c, 0, 64, 103
1, 28510, Control_c, 0, 67, 87
1, 28525, Control_c, 0, 64, 100
1, 28525, Control_c, 0, 67, 76
1, 28540, Control_c, 0, 64, 97
1, 28540, Control_c, 0, 67, 65
1, 28555, Control_c, 0, 64, 93
1, 28555, Control_c, 0, 67, 54
1, 28569, Control_c, 0, 64, 88
1, 28569, Control_c, 0, 67, 46
1, 28584, Control_c, 0, 64, 83
1, 28584, Control_c, 0, 67, 40
1, 28585, Note_off_c, 0, 38, 55
1, 28599, Control_c, 0, 64, 78
1, 28599, Control_c, 0, 67, 36
1, 28614, Control_c, 0, 64, 73
1, 28614, Control_c, 0, 67, 34
1, 28629, Control_c, 0, 64, 68
1, 28629, Control_c, 0, 67, 33
1, 28643, Control_c, 0, 64, 62
1, 28647, Note_on_c, 0, 63, 73
1, 28648, Note_on_c, 0, 52, 57
1, 28659, Control_c, 0, 64, 59
1, 28674, Note_off_c, 0, 63, 69
1, 28674, Control_c, 0, 64, 58
1, 28704, Control_c, 0, 64, 58
1, 28719, Control_c, 0, 64, 57
1, 28733, Control_c, 0, 64, 56
1, 28819, Note_off_c, 0, 52, 55
1, 28828, Note_on_c, 0, 54, 53
1, 28926, Control_c, 0, 64, 57
1, 28987, Note_off_c, 0, 54, 61
1, 28992, Note_on_c, 0, 63, 53
1, 28997, Note_on_c, 0, 56, 55
1, 29017, Note_off_c, 0, 63, 59
1, 29074, Control_c, 0, 67, 34
1, 29104, Control_c, 0, 67, 34
1, 29134, Control_c, 0, 67, 35
1, 29149, Control_c, 0, 67, 35
1, 29155, Note_off_c, 0, 56, 58
1, 29164, Control_c, 0, 67, 36
1, 29185, Control_c, 0, 67, 36
1, 29190, Note_on_c, 0, 53, 49
1, 29245, Control_c, 0, 64, 57
1, 29259, Control_c, 0, 64, 58
1, 29274, Control_c, 0, 64, 60
1, 29274, Control_c, 0, 67, 37
1, 29289, Control_c, 0, 64, 62
1, 29304, Control_c, 0, 64, 65
1, 29304, Control_c, 0, 67, 37
1, 29319, Control_c, 0, 64, 68
1, 29333, Control_c, 0, 64, 71
1, 29339, Note_off_c, 0, 53, 63
1, 29348, Note_on_c, 0, 51, 61
1, 29348, Control_c, 0, 64, 74
1, 29363, Control_c, 0, 64, 77
1, 29363, Control_c, 0, 67, 38
1, 29376, Note_off_c, 0, 51, 65
1, 29378, Control_c, 0, 64, 78
1, 29497, Control_c, 0, 67, 38
1, 29512, Control_c, 0, 64, 78
1, 29527, Control_c, 0, 64, 77
1, 29542, Control_c, 0, 64, 77
1, 29546, Note_on_c, 0, 38, 55
1, 29557, Control_c, 0, 64, 76
1, 29572, Control_c, 0, 64, 75
1, 29587, Control_c, 0, 64, 73
1, 29602, Control_c, 0, 64, 70
1, 29616, Control_c, 0, 64, 68
1, 29631, Control_c, 0, 64, 65
1, 29638, Note_off_c, 0, 38, 55
1, 29646, Control_c, 0, 64, 63
1, 29661, Control_c, 0, 64, 62
1, 29676, Control_c, 0, 64, 60
1, 29690, Control_c, 0, 64, 59
1, 29705, Control_c, 0, 64, 58
1, 29712, Note_on_c, 0, 63, 55
1, 29720, Control_c, 0, 64, 57
1, 29723, Note_on_c, 0, 52, 59
1, 29734, Control_c, 0, 64, 56
1, 29739, Note_off_c, 0, 63, 61
1, 29749, Control_c, 0, 64, 55
1, 29764, Control_c, 0, 64, 55
1, 29779, Control_c, 0, 64, 54
1, 29794, Control_c, 0, 64, 54
1, 29809, Control_c, 0, 67, 38
1, 29823, Control_c, 0, 64, 53
1, 29838, Control_c, 0, 64, 53
1, 29853, Control_c, 0, 64, 52
1, 29853, Control_c, 0, 67, 37
1, 29882, Control_c, 0, 67, 37
1, 29891, Note_off_c, 0, 52, 61
1, 29897, Note_on_c, 0, 54, 68
1, 29897, Control_c, 0, 67, 36
1, 29934, Control_c, 0, 67, 36
1, 29979, Control_c, 0, 64, 53
1, 29979, Control_c, 0, 67, 35
1, 30008, Control_c, 0, 64, 53
1, 30008, Control_c, 0, 67, 35
1, 30023, Control_c, 0, 64, 54
1, 30023, Control_c, 0, 67, 34
1, 30038, Control_c, 0, 64, 54
1, 30053, Control_c, 0, 64, 55
1, 30053, Control_c, 0, 67, 34
1, 30068, Control_c, 0, 64, 55
1, 30077, Note_on_c, 0, 56, 74
1, 30082, Control_c, 0, 64, 56
1, 30082, Control_c, 0, 67, 33
1, 30111, Note_off_c, 0, 54, 61
1, 30112, Control_c, 0, 64, 56
1, 30112, Control_c, 0, 67, 33
1, 30141, Control_c, 0, 64, 57
1, 30171, Control_c, 0, 64, 57
1, 30243, Poly_aftertouch_c, 0, 72, 127
1, 30244, Note_on_c, 0, 63, 66
1, 30245, Note_off_c, 0, 56, 62
1, 30252, Note_on_c, 0, 61, 52
1, 30261, Control_c, 0, 64, 57
1, 30275, Note_off_c, 0, 63, 67
1, 30276, Control_c, 0, 64, 56
1, 30291, Control_c, 0, 64, 56
1, 30305, Control_c, 0, 64, 54
1, 30320, Control_c, 0, 64, 53
1, 30335, Control_c, 0, 64, 52
1, 30350, Control_c, 0, 64, 49
1, 30365, Control_c, 0, 64, 43
1, 30380, Poly_aftertouch_c, 0, 72, 0
1, 30380, Control_c, 0, 64, 31
1, 30380, Control_c, 0, 67, 34
1, 30395, Control_c, 0, 64, 0
1, 30395, Control_c, 0, 67, 35
1, 30410, Control_c, 0, 67, 36
1, 30424, Control_c, 0, 67, 38
1, 30435, Note_off_c, 0, 61, 57
1, 30439, Control_c, 0, 67, 40
1, 30439, Note_on_c, 0, 55, 50
1, 30454, Control_c, 0, 67, 43
1, 30469, Control_c, 0, 67, 47
1, 30484, Control_c, 0, 67, 55
1, 30499, Control_c, 0, 67, 64
1, 30513, Control_c, 0, 67, 73
1, 30528, Control_c, 0, 67, 82
1, 30543, Control_c, 0, 67, 90
1, 30557, Control_c, 0, 67, 95
1, 30572, Control_c, 0, 67, 98
1, 30602, Control_c, 0, 64, 19
1, 30617, Control_c, 0, 64, 45
1, 30617, Control_c, 0, 67, 97
1, 30631, Control_c, 0, 64, 55
1, 30631, Control_c, 0, 67, 96
1, 30635, Note_off_c, 0, 74, 58
1, 30636, Note_off_c, 0, 55, 50
1, 30638, Note_on_c, 0, 53, 46
1, 30646, Control_c, 0, 64, 60
1, 30646, Control_c, 0, 67, 95
1, 30650, Note_off_c, 0, 62, 61
1, 30661, Control_c, 0, 64, 62
1, 30661, Control_c, 0, 67, 94
1, 30684, Control_c, 0, 64, 64
1, 30684, Control_c, 0, 67, 93
1, 30699, Control_c, 0, 64, 67
1, 30699, Control_c, 0, 67, 92
1, 30713, Control_c, 0, 64, 70
1, 30713, Control_c, 0, 67, 91
1, 30728, Control_c, 0, 64, 73
1, 30728, Control_c, 0, 67, 91
1, 30743, Control_c, 0, 64, 77
1, 30743, Control_c, 0, 67, 90
1, 30757, Control_c, 0, 64, 80
1, 30757, Control_c, 0, 67, 89
1, 30767, Note_on_c, 0, 72, 72
1, 30772, Control_c, 0, 64, 83
1, 30772, Control_c, 0, 67, 88
1, 30787, Control_c, 0, 64, 86
1, 30787, Control_c, 0, 67, 88
1, 30790, Note_on_c, 0, 60, 58
1, 30802, Control_c, 0, 64, 89
1, 30802, Control_c, 0, 67, 87
1, 30817, Control_c, 0, 64, 91
1, 30817, Control_c, 0, 67, 86
1, 30831, Control_c, 0, 64, 94
1, 30831, Control_c, 0, 67, 85
1, 30846, Control_c, 0, 64, 96
1, 30846, Control_c, 0, 67, 83
1, 30861, Control_c, 0, 64, 98
1, 30861, Control_c, 0, 67, 81
1, 30876, Control_c, 0, 64, 100
1, 30876, Control_c, 0, 67, 78
1, 30878, Note_off_c, 0, 53, 60
1, 30891, Control_c, 0, 64, 102
1, 30891, Control_c, 0, 67, 75
1, 30905, Control_c, 0, 64, 103
1, 30905, Control_c, 0, 67, 72
1, 30906, Note_on_c, 0, 51, 50
1, 30910, Note_off_c, 0, 60, 57
1, 30920, Control_c, 0, 64, 105
1, 30920, Control_c, 0, 67, 69
1, 30934, Note_off_c, 0, 51, 58
1, 30935, Control_c, 0, 64, 106
1, 30935, Control_c, 0, 67, 66
1, 30950, Control_c, 0, 64, 107
1, 30950, Control_c, 0, 67, 63
1, 30964, Control_c, 0, 64, 108
1, 30964, Control_c, 0, 67, 60
1, 30970, Note_off_c, 0, 72, 62
1, 30979, Control_c, 0, 64, 108
1, 30979, Control_c, 0, 67, 57
1, 30994, Control_c, 0, 67, 55
1, 31009, Control_c, 0, 67, 52
1, 31024, Control_c, 0, 67, 50
1, 31039, Control_c, 0, 67, 48
1, 31054, Control_c, 0, 67, 46
1, 31069, Control_c, 0, 67, 44
1, 31084, Control_c, 0, 67, 44
1, 31089, Note_on_c, 0, 62, 57
1, 31099, Control_c, 0, 67, 43
1, 31116, Note_on_c, 0, 74, 85
1, 31119, Note_on_c, 0, 38, 50
1, 31128, Control_c, 0, 64, 104
1, 31143, Control_c, 0, 64, 97
1, 31158, Control_c, 0, 64, 86
1, 31173, Control_c, 0, 64, 74
1, 31188, Control_c, 0, 64, 65
1, 31202, Control_c, 0, 64, 56
1, 31217, Control_c, 0, 64, 53
1, 31219, Note_off_c, 0, 38, 46
1, 31232, Control_c, 0, 64, 53
1, 31262, Control_c, 0, 64, 54
1, 31269, Note_on_c, 0, 63, 73
1, 31277, Note_on_c, 0, 52, 57
1, 31292, Control_c, 0, 64, 54
1, 31295, Note_off_c, 0, 63, 69
1, 31307, Control_c, 0, 64, 55
1, 31322, Control_c, 0, 64, 55
1, 31366, Control_c, 0, 64, 56
1, 31444, Note_off_c, 0, 52, 59
1, 31462, Note_on_c, 0, 54, 54
1, 31477, Control_c, 0, 64, 55
1, 31551, Control_c, 0, 64, 55
1, 31566, Control_c, 0, 67, 44
1, 31580, Control_c, 0, 64, 54
1, 31580, Control_c, 0, 67, 46
1, 31595, Control_c, 0, 64, 54
1, 31595, Control_c, 0, 67, 47
1, 31610, Control_c, 0, 64, 53
1, 31610, Control_c, 0, 67, 48
1, 31625, Control_c, 0, 64, 53
1, 31625, Control_c, 0, 67, 49
1, 31635, Note_off_c, 0, 54, 59
1, 31640, Control_c, 0, 64, 52
1, 31640, Control_c, 0, 67, 50
1, 31644, Note_on_c, 0, 56, 52
1, 31654, Control_c, 0, 64, 50
1, 31654, Control_c, 0, 67, 52
1, 31656, Note_on_c, 0, 63, 55
1, 31669, Control_c, 0, 64, 48
1, 31669, Control_c, 0, 67, 53
1, 31679, Note_off_c, 0, 63, 60
1, 31684, Control_c, 0, 64, 45
1, 31684, Control_c, 0, 67, 55
1, 31699, Control_c, 0, 64, 42
1, 31699, Control_c, 0, 67, 57
1, 31713, Control_c, 0, 64, 37
1, 31713, Control_c, 0, 67, 62
1, 31728, Control_c, 0, 64, 31
1, 31728, Control_c, 0, 67, 67
1, 31743, Control_c, 0, 64, 25
1, 31743, Control_c, 0, 67, 73
1, 31758, Control_c, 0, 64, 19
1, 31758, Control_c, 0, 67, 79
1, 31773, Control_c, 0, 64, 10
1, 31773, Control_c, 0, 67, 88
1, 31787, Control_c, 0, 64, 0
1, 31787, Control_c, 0, 67, 97
1, 31800, Note_off_c, 0, 56, 57
1, 31802, Control_c, 0, 67, 106
1, 31817, Control_c, 0, 67, 113
1, 31832, Control_c, 0, 67, 121
1, 31837, Note_on_c, 0, 53, 45
1, 31847, Control_c, 0, 67, 127
1, 32008, Note_on_c, 0, 51, 56
1, 32009, Note_off_c, 0, 53, 64
1, 32025, Control_c, 0, 64, 15
1, 32039, Note_off_c, 0, 51, 64
1, 32040, Control_c, 0, 64, 50
1, 32055, Control_c, 0, 64, 61
1, 32070, Control_c, 0, 64, 65
1, 32070, Control_c, 0, 67, 127
1, 32085, Control_c, 0, 64, 68
1, 32085, Control_c, 0, 67, 126
1, 32100, Control_c, 0, 64, 71
1, 32100, Control_c, 0, 67, 125
1, 32115, Control_c, 0, 64, 73
1, 32129, Control_c, 0, 64, 74
1, 32144, Control_c, 0, 64, 75
1, 32207, Note_on_c, 0, 38, 53
1, 32225, Control_c, 0, 64, 74
1, 32240, Control_c, 0, 64, 74
1, 32255, Control_c, 0, 64, 73
1, 32270, Control_c, 0, 64, 72
1, 32285, Control_c, 0, 64, 70
1, 32290, Note_off_c, 0, 38, 60
1, 32299, Control_c, 0, 64, 69
1, 32314, Control_c, 0, 64, 67
1, 32329, Control_c, 0, 64, 65
1, 32341, Poly_aftertouch_c, 0, 72, 127
1, 32344, Control_c, 0, 64, 64
1, 32359, Control_c, 0, 64, 62
1, 32374, Control_c, 0, 64, 61
1, 32381, Note_on_c, 0, 52, 55
1, 32389, Control_c, 0, 64, 60
1, 32396, Note_on_c, 0, 63, 39
1, 32403, Control_c, 0, 64, 59
1, 32418, Control_c, 0, 64, 59
1, 32426, Note_off_c, 0, 63, 52
1, 32433, Control_c, 0, 64, 58
1, 32448, Control_c, 0, 64, 58
1, 32463, Control_c, 0, 64, 57
1, 32507, Control_c, 0, 64, 57
1, 32522, Control_c, 0, 67, 125
1, 32536, Control_c, 0, 67, 124
1, 32544, Note_off_c, 0, 52, 56
1, 32551, Control_c, 0, 67, 124
1, 32563, Note_on_c, 0, 54, 62
1, 32566, Control_c, 0, 67, 123
1, 32581, Control_c, 0, 67, 122
1, 32596, Control_c, 0, 67, 121
1, 32610, Control_c, 0, 67, 120
1, 32625, Control_c, 0, 67, 118
1, 32640, Control_c, 0, 67, 116
1, 32656, Control_c, 0, 67, 114
1, 32671, Control_c, 0, 67, 112
1, 32686, Control_c, 0, 64, 57
1, 32686, Control_c, 0, 67, 109
1, 32700, Control_c, 0, 67, 106
1, 32715, Control_c, 0, 67, 103
1, 32730, Note_on_c, 0, 56, 66
1, 32730, Control_c, 0, 67, 99
1, 32745, Control_c, 0, 67, 96
1, 32759, Control_c, 0, 67, 93
1, 32774, Control_c, 0, 67, 90
1, 32789, Control_c, 0, 67, 88
1, 32804, Control_c, 0, 67, 85
1, 32806, Note_off_c, 0, 54, 51
1, 32819, Control_c, 0, 67, 83
1, 32833, Control_c, 0, 67, 80
1, 32848, Control_c, 0, 67, 77
1, 32863, Control_c, 0, 67, 74
1, 32878, Control_c, 0, 67, 71
1, 32893, Control_c, 0, 67, 68
1, 32898, Note_on_c, 0, 59, 68
1, 32908, Control_c, 0, 67, 65
1, 32930, Control_c, 0, 67, 63
1, 32945, Control_c, 0, 67, 61
1, 32949, Note_off_c, 0, 56, 62
1, 32959, Control_c, 0, 64, 58
1, 32959, Control_c, 0, 67, 59
1, 32974, Control_c, 0, 64, 58
1, 32974, Control_c, 0, 67, 58
1, 32989, Control_c, 0, 67, 56
1, 33004, Control_c, 0, 64, 59
1, 33004, Control_c, 0, 67, 56
1, 33019, Control_c, 0, 64, 59
1, 33019, Control_c, 0, 67, 55
1, 33033, Control_c, 0, 64, 60
1, 33033, Control_c, 0, 67, 54
1, 33048, Control_c, 0, 64, 60
1, 33063, Control_c, 0, 67, 54
1, 33069, Note_off_c, 0, 59, 62
1, 33086, Note_on_c, 0, 63, 60
1, 33099, Note_on_c, 0, 61, 47
1, 33113, Note_off_c, 0, 63, 66
1, 33122, Control_c, 0, 67, 56
1, 33137, Control_c, 0, 64, 60
1, 33137, Control_c, 0, 67, 58
1, 33152, Control_c, 0, 64, 59
1, 33152, Control_c, 0, 67, 61
1, 33167, Control_c, 0, 64, 57
1, 33167, Control_c, 0, 67, 64
1, 33169, Poly_aftertouch_c, 0, 72, 0
1, 33182, Control_c, 0, 64, 54
1, 33182, Control_c, 0, 67, 67
1, 33197, Control_c, 0, 64, 49
1, 33197, Control_c, 0, 67, 74
1, 33212, Control_c, 0, 64, 33
1, 33212, Control_c, 0, 67, 84
1, 33226, Control_c, 0, 64, 0
1, 33226, Control_c, 0, 67, 96
1, 33241, Control_c, 0, 67, 105
1, 33256, Control_c, 0, 67, 113
1, 33271, Control_c, 0, 67, 120
1, 33274, Note_on_c, 0, 55, 57
1, 33274, Note_off_c, 0, 61, 60
1, 33285, Control_c, 0, 67, 124
1, 33300, Control_c, 0, 67, 126
1, 33315, Control_c, 0, 67, 127
1, 33359, Control_c, 0, 67, 126
1, 33374, Control_c, 0, 67, 124
1, 33389, Control_c, 0, 67, 123
1, 33404, Control_c, 0, 67, 121
1, 33419, Control_c, 0, 67, 119
1, 33433, Control_c, 0, 64, 26
1, 33433, Control_c, 0, 67, 117
1, 33449, Control_c, 0, 64, 51
1, 33449, Control_c, 0, 67, 115
1, 33456, Note_off_c, 0, 55, 56
1, 33460, Note_on_c, 0, 67, 72
1, 33464, Note_off_c, 0, 62, 61
1, 33464, Control_c, 0, 64, 60
1, 33464, Control_c, 0, 67, 110
1, 33467, Note_on_c, 0, 53, 57
1, 33479, Control_c, 0, 64, 64
1, 33479, Control_c, 0, 67, 105
1, 33494, Control_c, 0, 64, 69
1, 33494, Control_c, 0, 67, 98
1, 33509, Control_c, 0, 64, 75
1, 33509, Control_c, 0, 67, 90
1, 33523, Control_c, 0, 64, 82
1, 33523, Control_c, 0, 67, 83
1, 33538, Control_c, 0, 64, 90
1, 33538, Control_c, 0, 67, 76
1, 33553, Control_c, 0, 64, 96
1, 33553, Control_c, 0, 67, 70
1, 33557, Note_off_c, 0, 74, 34
1, 33568, Control_c, 0, 64, 101
1, 33568, Control_c, 0, 67, 63
1, 33582, Control_c, 0, 64, 109
1, 33582, Control_c, 0, 67, 57
1, 33590, Note_off_c, 0, 67, 62
1, 33596, Note_off_c, 0, 53, 64
1, 33597, Control_c, 0, 64, 117
1, 33597, Control_c, 0, 67, 52
1, 33611, Note_on_c, 0, 51, 56
1, 33612, Control_c, 0, 64, 127
1, 33612, Control_c, 0, 67, 47
1, 33627, Control_c, 0, 67, 42
1, 33637, Note_off_c, 0, 51, 59
1, 33642, Control_c, 0, 67, 39
1, 33656, Control_c, 0, 67, 36
1, 33679, Control_c, 0, 67, 34
1, 33694, Control_c, 0, 67, 32
1, 33709, Control_c, 0, 67, 31
1, 33724, Control_c, 0, 67, 30
1, 33753, Control_c, 0, 67, 30
1, 33797, Control_c, 0, 64, 118
1, 33812, Control_c, 0, 64, 90
1, 33812, Control_c, 0, 67, 29
1, 33827, Control_c, 0, 64, 72
1, 33827, Control_c, 0, 67, 28
1, 33828, Note_on_c, 0, 77, 70
1, 33835, Note_on_c, 0, 38, 50
1, 33842, Control_c, 0, 64, 55
1, 33842, Control_c, 0, 67, 26
1, 33854, Note_on_c, 0, 65, 49
1, 33856, Control_c, 0, 64, 36
1, 33856, Control_c, 0, 67, 23
1, 33871, Control_c, 0, 64, 44
1, 33871, Control_c, 0, 67, 19
1, 33886, Control_c, 0, 64, 53
1, 33886, Control_c, 0, 67, 14
1, 33891, Note_off_c, 0, 65, 64
1, 33900, Control_c, 0, 64, 61
1, 33900, Control_c, 0, 67, 8
1, 33915, Control_c, 0, 64, 67
1, 33915, Control_c, 0, 67, 0
1, 33923, Note_off_c, 0, 38, 60
1, 33930, Control_c, 0, 64, 74
1, 33945, Control_c, 0, 64, 81
1, 33960, Control_c, 0, 64, 87
1, 33975, Control_c, 0, 64, 91
1, 33990, Control_c, 0, 64, 94
1, 34005, Control_c, 0, 64, 96
1, 34019, Note_on_c, 0, 52, 59
1, 34019, Control_c, 0, 64, 98
1, 34022, Note_on_c, 0, 75, 79
1, 34034, Note_on_c, 0, 63, 62
1, 34034, Control_c, 0, 64, 100
1, 34049, Control_c, 0, 64, 102
1, 34055, Note_off_c, 0, 77, 58
1, 34064, Control_c, 0, 64, 105
1, 34079, Control_c, 0, 64, 109
1, 34094, Note_off_c, 0, 63, 62
1, 34094, Control_c, 0, 64, 114
1, 34106, Note_off_c, 0, 75, 59
1, 34108, Control_c, 0, 64, 120
1, 34123, Control_c, 0, 64, 127
1, 34158, Note_off_c, 0, 52, 62
1, 34181, Note_on_c, 0, 54, 65
1, 34185, Note_on_c, 0, 74, 88
1, 34204, Note_on_c, 0, 62, 65
1, 34237, Note_off_c, 0, 62, 63
1, 34255, Note_off_c, 0, 74, 64
1, 34287, Control_c, 0, 64, 119
1, 34302, Control_c, 0, 64, 114
1, 34317, Control_c, 0, 64, 110
1, 34331, Control_c, 0, 64, 104
1, 34346, Control_c, 0, 64, 98
1, 34357, Note_on_c, 0, 72, 88
1, 34361, Control_c, 0, 64, 92
1, 34365, Note_on_c, 0, 56, 70
1, 34365, Note_on_c, 0, 60, 75
1, 34376, Control_c, 0, 64, 87
1, 34391, Control_c, 0, 64, 82
1, 34405, Control_c, 0, 64, 78
1, 34428, Control_c, 0, 64, 74
1, 34437, Note_off_c, 0, 54, 51
1, 34443, Control_c, 0, 64, 70
1, 34458, Control_c, 0, 64, 66
1, 34473, Control_c, 0, 64, 64
1, 34487, Control_c, 0, 64, 63
1, 34502, Control_c, 0, 64, 62
1, 34517, Control_c, 0, 64, 62
1, 34531, Control_c, 0, 64, 61
1, 34538, Note_off_c, 0, 56, 62
1, 34541, Note_on_c, 0, 55, 65
1, 34546, Control_c, 0, 64, 60
1, 34561, Control_c, 0, 64, 59
1, 34576, Control_c, 0, 64, 58
1, 34591, Control_c, 0, 64, 57
1, 34605, Control_c, 0, 64, 56
1, 34610, Note_off_c, 0, 60, 61
1, 34620, Control_c, 0, 64, 55
1, 34635, Control_c, 0, 64, 52
1, 34650, Control_c, 0, 64, 47
1, 34665, Control_c, 0, 64, 35
1, 34679, Control_c, 0, 64, 0
1, 34702, Note_on_c, 0, 53, 68
1, 34728, Note_off_c, 0, 55, 57
1, 34812, Control_c, 0, 64, 24
1, 34827, Control_c, 0, 64, 54
1, 34842, Control_c, 0, 64, 62
1, 34857, Control_c, 0, 64, 66
1, 34866, Note_off_c, 0, 53, 64
1, 34870, Note_on_c, 0, 51, 60
1, 34872, Control_c, 0, 64, 70
1, 34879, Note_on_c, 0, 74, 82
1, 34887, Control_c, 0, 64, 77
1, 34887, Note_on_c, 0, 62, 70
1, 34899, Note_off_c, 0, 51, 64
1, 34902, Control_c, 0, 64, 85
1, 34917, Control_c, 0, 64, 93
1, 34920, Note_off_c, 0, 62, 66
1, 34923, Note_off_c, 0, 72, 56
1, 34931, Control_c, 0, 64, 96
1, 34946, Control_c, 0, 64, 99
1, 34961, Control_c, 0, 64, 100
1, 34968, Note_off_c, 0, 74, 66
1, 34976, Control_c, 0, 64, 101
1, 35065, Note_on_c, 0, 38, 67
1, 35214, Note_off_c, 0, 38, 50
1, 35240, Note_on_c, 0, 79, 73
1, 35270, Note_on_c, 0, 77, 74
1, 35277, Note_on_c, 0, 65, 64
1, 35281, Control_c, 0, 64, 100
1, 35296, Control_c, 0, 64, 93
1, 35305, Note_on_c, 0, 52, 59
1, 35310, Control_c, 0, 64, 77
1, 35325, Control_c, 0, 64, 63
1, 35340, Control_c, 0, 64, 24
1, 35354, Note_off_c, 0, 79, 51
1, 35355, Control_c, 0, 64, 0
1, 35355, Note_off_c, 0, 65, 60
1, 35415, Control_c, 0, 64, 40
1, 35429, Control_c, 0, 64, 55
1, 35444, Control_c, 0, 64, 61
1, 35459, Control_c, 0, 64, 64
1, 35474, Control_c, 0, 64, 66
1, 35489, Control_c, 0, 64, 70
1, 35503, Control_c, 0, 64, 74
1, 35518, Control_c, 0, 64, 76
1, 35533, Control_c, 0, 64, 78
1, 35539, Note_on_c, 0, 75, 74
1, 35543, Note_off_c, 0, 52, 60
1, 35547, Control_c, 0, 64, 79
1, 35550, Note_on_c, 0, 54, 68
1, 35559, Note_on_c, 0, 63, 69
1, 35562, Control_c, 0, 64, 79
1, 35577, Control_c, 0, 64, 80
1, 35588, Note_off_c, 0, 77, 59
1, 35592, Control_c, 0, 64, 80
1, 35607, Control_c, 0, 64, 81
1, 35621, Control_c, 0, 64, 81
1, 35626, Note_off_c, 0, 63, 61
1, 35636, Control_c, 0, 64, 82
1, 35645, Note_off_c, 0, 75, 62
1, 35651, Control_c, 0, 64, 84
1, 35666, Control_c, 0, 64, 85
1, 35680, Control_c, 0, 64, 88
1, 35695, Control_c, 0, 64, 90
1, 35710, Control_c, 0, 64, 92
1, 35719, Note_on_c, 0, 74, 88
1, 35725, Control_c, 0, 64, 93
1, 35728, Note_on_c, 0, 56, 66
1, 35732, Note_on_c, 0, 62, 68
1, 35739, Control_c, 0, 64, 94
1, 35754, Control_c, 0, 64, 94
1, 35763, Note_off_c, 0, 62, 65
1, 35769, Note_off_c, 0, 54, 55
1, 35781, Note_off_c, 0, 74, 66
1, 35888, Note_on_c, 0, 72, 93
1, 35899, Note_on_c, 0, 60, 71
1, 35900, Note_off_c, 0, 56, 61
1, 35906, Note_on_c, 0, 59, 70
1, 35924, Note_off_c, 0, 60, 66
1, 35940, Control_c, 0, 64, 94
1, 35955, Control_c, 0, 64, 93
1, 35984, Control_c, 0, 64, 93
1, 35999, Control_c, 0, 64, 92
1, 36014, Control_c, 0, 64, 92
1, 36029, Control_c, 0, 64, 91
1, 36044, Control_c, 0, 64, 89
1, 36058, Control_c, 0, 64, 83
1, 36073, Control_c, 0, 64, 71
1, 36074, Note_on_c, 0, 70, 82
1, 36082, Note_on_c, 0, 55, 65
1, 36083, Note_on_c, 0, 58, 77
1, 36088, Note_off_c, 0, 59, 60
1, 36088, Control_c, 0, 64, 57
1, 36103, Control_c, 0, 64, 0
1, 36118, Note_off_c, 0, 72, 56
1, 36222, Control_c, 0, 64, 37
1, 36237, Control_c, 0, 64, 51
1, 36240, Note_off_c, 0, 55, 61
1, 36245, Note_on_c, 0, 53, 62
1, 36251, Control_c, 0, 64, 58
1, 36252, Note_off_c, 0, 58, 62
1, 36266, Control_c, 0, 64, 61
1, 36281, Control_c, 0, 64, 64
1, 36295, Control_c, 0, 64, 66
1, 36310, Control_c, 0, 64, 70
1, 36325, Control_c, 0, 64, 75
1, 36340, Control_c, 0, 64, 79
1, 36355, Control_c, 0, 64, 82
1, 36369, Control_c, 0, 64, 83
1, 36384, Control_c, 0, 64, 84
1, 36399, Note_off_c, 0, 70, 61
1, 36399, Control_c, 0, 64, 85
1, 36407, Note_off_c, 0, 53, 61
1, 36410, Note_on_c, 0, 72, 81
1, 36421, Note_on_c, 0, 51, 57
1, 36422, Note_on_c, 0, 60, 68
1, 36429, Control_c, 0, 64, 85
1, 36452, Note_off_c, 0, 60, 68
1, 36461, Note_off_c, 0, 72, 62
1, 36532, Control_c, 0, 64, 85
1, 36547, Control_c, 0, 64, 84
1, 36562, Control_c, 0, 64, 83
1, 36571, Note_off_c, 0, 51, 62
1, 36577, Control_c, 0, 64, 81
1, 36592, Control_c, 0, 64, 78
1, 36601, Note_on_c, 0, 53, 56
1, 36601, Note_on_c, 0, 67, 68
1, 36607, Control_c, 0, 64, 73
1, 36622, Control_c, 0, 64, 68
1, 36637, Control_c, 0, 64, 62
1, 36652, Control_c, 0, 64, 58
1, 36674, Control_c, 0, 64, 56
1, 36689, Control_c, 0, 64, 56
1, 36704, Control_c, 0, 64, 54
1, 36718, Control_c, 0, 64, 53
1, 36733, Control_c, 0, 64, 52
1, 36748, Control_c, 0, 64, 51
1, 36770, Note_on_c, 0, 69, 77
1, 36803, Note_on_c, 0, 50, 36
1, 36849, Note_off_c, 0, 67, 50
1, 36867, Control_c, 0, 64, 50
1, 36926, Control_c, 0, 64, 50
1, 36939, Note_off_c, 0, 50, 49
1, 36941, Note_on_c, 0, 49, 57
1, 36941, Note_on_c, 0, 70, 79
1, 36958, Note_on_c, 0, 58, 69
1, 36963, Note_off_c, 0, 53, 33
1, 36969, Note_off_c, 0, 69, 64
1, 37015, Control_c, 0, 64, 50
1, 37089, Control_c, 0, 64, 50
1, 37104, Control_c, 0, 64, 46
1, 37118, Control_c, 0, 64, 33
1, 37124, Note_on_c, 0, 64, 70
1, 37129, Note_on_c, 0, 51, 56
1, 37133, Control_c, 0, 64, 0
1, 37137, Note_off_c, 0, 49, 58
1, 37274, Note_off_c, 0, 51, 62
1, 37275, Note_off_c, 0, 58, 45
1, 37281, Control_c, 0, 64, 42
1, 37283, Note_on_c, 0, 49, 53
1, 37296, Control_c, 0, 64, 58
1, 37311, Control_c, 0, 64, 62
1, 37325, Control_c, 0, 64, 64
1, 37340, Control_c, 0, 64, 66
1, 37346, Note_off_c, 0, 64, 61
1, 37354, Note_off_c, 0, 70, 47
1, 37355, Control_c, 0, 64, 68
1, 37370, Control_c, 0, 64, 70
1, 37385, Control_c, 0, 64, 71
1, 37400, Control_c, 0, 64, 72
1, 37460, Note_on_c, 0, 68, 74
1, 37474, Note_off_c, 0, 49, 55
1, 37481, Note_on_c, 0, 57, 54
1, 37483, Note_on_c, 0, 67, 78
1, 37483, Control_c, 0, 64, 71
1, 37495, Note_off_c, 0, 68, 67
1, 37497, Control_c, 0, 64, 71
1, 37510, Note_off_c, 0, 67, 65
1, 37512, Control_c, 0, 64, 70
1, 37527, Control_c, 0, 64, 70
1, 37556, Control_c, 0, 64, 69
1, 37601, Note_off_c, 0, 57, 55
1, 37616, Control_c, 0, 64, 69
1, 37630, Control_c, 0, 64, 68
1, 37645, Control_c, 0, 64, 67
1, 37649, Note_on_c, 0, 51, 52
1, 37652, Note_on_c, 0, 64, 71
1, 37655, Note_on_c, 0, 52, 59
1, 37660, Control_c, 0, 64, 63
1, 37675, Control_c, 0, 64, 57
1, 37675, Control_c, 0, 67, 8
1, 37689, Control_c, 0, 64, 51
1, 37689, Control_c, 0, 67, 10
1, 37704, Control_c, 0, 64, 47
1, 37704, Control_c, 0, 67, 12
1, 37719, Control_c, 0, 64, 44
1, 37719, Control_c, 0, 67, 16
1, 37734, Control_c, 0, 64, 40
1, 37734, Control_c, 0, 67, 20
1, 37749, Control_c, 0, 64, 36
1, 37749, Control_c, 0, 67, 29
1, 37763, Control_c, 0, 64, 33
1, 37763, Control_c, 0, 67, 38
1, 37778, Control_c, 0, 64, 31
1, 37778, Control_c, 0, 67, 47
1, 37793, Control_c, 0, 64, 31
1, 37793, Control_c, 0, 67, 57
1, 37799, Note_off_c, 0, 51, 62
1, 37808, Control_c, 0, 67, 67
1, 37821, Note_on_c, 0, 49, 57
1, 37823, Control_c, 0, 64, 30
1, 37823, Control_c, 0, 67, 78
1, 37838, Control_c, 0, 67, 89
1, 37853, Control_c, 0, 64, 30
1, 37853, Control_c, 0, 67, 101
1, 37868, Control_c, 0, 64, 29
1, 37868, Control_c, 0, 67, 109
1, 37882, Control_c, 0, 64, 29
1, 37882, Control_c, 0, 67, 115
1, 37897, Control_c, 0, 64, 28
1, 37897, Control_c, 0, 67, 120
1, 37912, Control_c, 0, 64, 27
1, 37912, Control_c, 0, 67, 122
1, 37927, Control_c, 0, 64, 27
1, 37927, Control_c, 0, 67, 123
1, 37959, Note_off_c, 0, 49, 63
1, 37994, Note_on_c, 0, 56, 61
1, 38045, Control_c, 0, 67, 123
1, 38060, Control_c, 0, 64, 27
1, 38060, Control_c, 0, 67, 122
1, 38089, Control_c, 0, 67, 122
1, 38104, Control_c, 0, 67, 121
1, 38119, Control_c, 0, 64, 28
1, 38158, Note_off_c, 0, 56, 63
1, 38172, Note_on_c, 0, 58, 52
1, 38182, Note_on_c, 0, 63, 53
1, 38215, Note_off_c, 0, 63, 63
1, 38276, Control_c, 0, 67, 122
1, 38291, Control_c, 0, 67, 122
1, 38305, Control_c, 0, 67, 123
1, 38320, Control_c, 0, 67, 123
1, 38321, Note_off_c, 0, 58, 54
1, 38324, Note_on_c, 0, 54, 43
1, 38335, Control_c, 0, 67, 124
1, 38357, Note_off_c, 0, 54, 53
1, 38365, Control_c, 0, 67, 124
1, 38370, Note_on_c, 0, 53, 51
1, 38379, Control_c, 0, 67, 125
1, 38394, Control_c, 0, 67, 127
1, 38453, Control_c, 0, 64, 27
1, 38523, Note_on_c, 0, 51, 57
1, 38526, Note_on_c, 0, 62, 57
1, 38526, Note_off_c, 0, 53, 60
1, 38527, Control_c, 0, 64, 27
1, 38559, Note_off_c, 0, 62, 65
1, 38696, Note_on_c, 0, 49, 62
1, 38757, Note_off_c, 0, 51, 47
1, 38825, Control_c, 0, 64, 26
1, 38863, Note_on_c, 0, 48, 63
1, 38897, Note_off_c, 0, 49, 58
1, 38898, Control_c, 0, 64, 26
1, 38920, Control_c, 0, 64, 25
1, 38935, Control_c, 0, 64, 25
1, 38950, Control_c, 0, 64, 24
1, 38980, Control_c, 0, 67, 127
1, 38995, Control_c, 0, 64, 24
1, 39009, Control_c, 0, 67, 126
1, 39024, Control_c, 0, 64, 23
1, 39039, Control_c, 0, 67, 126
1, 39048, Note_off_c, 0, 48, 62
1, 39057, Note_on_c, 0, 63, 61
1, 39066, Note_on_c, 0, 56, 67
1, 39069, Control_c, 0, 64, 23
1, 39091, Note_off_c, 0, 63, 66
1, 39218, Control_c, 0, 67, 126
1, 39226, Note_on_c, 0, 58, 59
1, 39233, Control_c, 0, 67, 127
1, 39248, Control_c, 0, 64, 23
1, 39259, Note_off_c, 0, 56, 56
1, 39307, Control_c, 0, 64, 24
1, 39307, Control_c, 0, 67, 127
1, 39405, Note_on_c, 0, 54, 52
1, 39415, Note_on_c, 0, 62, 45
1, 39421, Note_off_c, 0, 58, 56
1, 39456, Note_off_c, 0, 62, 61
1, 39573, Note_on_c, 0, 56, 52
1, 39585, Note_off_c, 0, 54, 54
1, 39749, Note_off_c, 0, 56, 60
1, 39766, Note_on_c, 0, 55, 50
1, 39801, Control_c, 0, 67, 127
1, 39847, Control_c, 0, 67, 126
1, 39937, Note_on_c, 0, 51, 49
1, 39939, Note_on_c, 0, 62, 57
1, 39943, Note_off_c, 0, 55, 52
1, 39971, Note_off_c, 0, 62, 64
1, 39995, Control_c, 0, 64, 24
1, 40010, Control_c, 0, 64, 25
1, 40024, Control_c, 0, 64, 25
1, 40039, Control_c, 0, 64, 26
1, 40054, Control_c, 0, 64, 26
1, 40069, Control_c, 0, 64, 27
1, 40084, Control_c, 0, 64, 27
1, 40097, Note_off_c, 0, 51, 58
1, 40098, Control_c, 0, 64, 28
1, 40113, Note_on_c, 0, 53, 46
1, 40128, Control_c, 0, 64, 28
1, 40257, Note_off_c, 0, 53, 62
1, 40296, Note_on_c, 0, 62, 49
1, 40298, Note_on_c, 0, 49, 44
1, 40327, Note_off_c, 0, 62, 61
1, 40479, Note_on_c, 0, 51, 51
1, 40491, Control_c, 0, 67, 127
1, 40521, Note_off_c, 0, 49, 32
1, 40565, Control_c, 0, 67, 127
1, 40624, Note_off_c, 0, 51, 58
1, 40650, Note_on_c, 0, 50, 48
1, 40834, Note_on_c, 0, 47, 40
1, 40839, Note_on_c, 0, 61, 45
1, 40861, Note_off_c, 0, 50, 37
1, 40867, Note_off_c, 0, 61, 55
1, 40965, Note_off_c, 0, 47, 49
1, 41002, Note_on_c, 0, 48, 37
1, 41010, Control_c, 0, 64, 28
1, 41039, Control_c, 0, 64, 27
1, 41144, Control_c, 0, 64, 27
1, 41152, Note_off_c, 0, 48, 53
1, 41186, Note_on_c, 0, 46, 44
1, 41186, Note_on_c, 0, 60, 49
1, 41231, Note_off_c, 0, 60, 62
1, 41247, Note_off_c, 0, 52, 60
1, 41335, Note_off_c, 0, 46, 61
1, 41367, Note_on_c, 0, 49, 47
1, 41493, Control_c, 0, 64, 27
1, 41505, Note_off_c, 0, 49, 59
1, 41507, Control_c, 0, 64, 28
1, 41534, Note_on_c, 0, 45, 49
1, 41536, Note_off_c, 0, 64, 0
1, 41537, Control_c, 0, 64, 28
1, 41552, Control_c, 0, 64, 29
1, 41558, Note_on_c, 0, 64, 15
1, 41567, Control_c, 0, 64, 29
1, 41626, Control_c, 0, 64, 30
1, 41656, Control_c, 0, 64, 31
1, 41670, Control_c, 0, 64, 31
1, 41720, Note_on_c, 0, 58, 46
1, 41725, Note_on_c, 0, 65, 43
1, 41730, Control_c, 0, 64, 32
1, 41759, Note_off_c, 0, 58, 62
1, 41760, Control_c, 0, 64, 32
1, 41828, Note_off_c, 0, 64, 42
1, 41871, Note_off_c, 0, 65, 59
1, 41893, Control_c, 0, 64, 33
1, 41913, Note_on_c, 0, 66, 39
1, 41945, Control_c, 0, 64, 33
1, 41989, Control_c, 0, 64, 34
1, 42034, Control_c, 0, 64, 34
1, 42073, Note_on_c, 0, 58, 52
1, 42077, Note_off_c, 0, 66, 61
1, 42092, Note_on_c, 0, 68, 45
1, 42113, Note_off_c, 0, 58, 64
1, 42167, Control_c, 0, 64, 35
1, 42182, Control_c, 0, 64, 35
1, 42242, Control_c, 0, 64, 36
1, 42262, Note_on_c, 0, 66, 46
1, 42318, Note_off_c, 0, 68, 36
1, 42445, Note_on_c, 0, 65, 39
1, 42523, Note_off_c, 0, 66, 33
1, 42605, Note_off_c, 0, 65, 61
1, 42622, Note_on_c, 0, 64, 50
1, 42791, Note_on_c, 0, 65, 50
1, 42799, Note_on_c, 0, 58, 44
1, 42826, Note_off_c, 0, 58, 56
1, 42840, Note_off_c, 0, 64, 36
1, 42941, Note_off_c, 0, 65, 57
1, 42959, Control_c, 0, 64, 35
1, 42967, Note_on_c, 0, 66, 44
1, 42974, Control_c, 0, 64, 34
1, 42989, Control_c, 0, 64, 32
1, 43004, Control_c, 0, 64, 21
1, 43019, Control_c, 0, 64, 0
1, 43113, Note_off_c, 0, 66, 57
1, 43135, Note_on_c, 0, 58, 49
1, 43150, Note_on_c, 0, 68, 47
1, 43175, Note_off_c, 0, 58, 64
1, 43213, Control_c, 0, 64, 21
1, 43227, Control_c, 0, 64, 46
1, 43242, Control_c, 0, 64, 57
1, 43257, Control_c, 0, 64, 62
1, 43272, Control_c, 0, 64, 65
1, 43286, Control_c, 0, 64, 70
1, 43287, Note_off_c, 0, 45, 64
1, 43293, Note_off_c, 0, 68, 57
1, 43301, Control_c, 0, 64, 75
1, 43305, Note_on_c, 0, 70, 54
1, 43316, Control_c, 0, 64, 79
1, 43331, Control_c, 0, 64, 82
1, 43346, Control_c, 0, 64, 84
1, 43360, Control_c, 0, 64, 86
1, 43375, Control_c, 0, 64, 89
1, 43390, Control_c, 0, 64, 91
1, 43427, Control_c, 0, 64, 91
1, 43442, Control_c, 0, 64, 91
1, 43472, Control_c, 0, 64, 87
1, 43487, Control_c, 0, 64, 76
1, 43498, Note_on_c, 0, 33, 45
1, 43501, Note_on_c, 0, 68, 52
1, 43501, Control_c, 0, 64, 64
1, 43516, Control_c, 0, 64, 31
1, 43531, Control_c, 0, 64, 0
1, 43578, Note_off_c, 0, 70, 37
1, 43670, Note_on_c, 0, 66, 45
1, 43723, Control_c, 0, 64, 27
1, 43738, Control_c, 0, 64, 50
1, 43753, Control_c, 0, 64, 59
1, 43767, Control_c, 0, 64, 65
1, 43782, Control_c, 0, 64, 69
1, 43788, Note_off_c, 0, 68, 32
1, 43797, Control_c, 0, 64, 74
1, 43812, Control_c, 0, 64, 78
1, 43827, Control_c, 0, 64, 80
1, 43843, Control_c, 0, 64, 82
1, 43854, Note_on_c, 0, 65, 54
1, 43857, Control_c, 0, 64, 83
1, 43872, Control_c, 0, 64, 84
1, 43875, Note_off_c, 0, 66, 60
1, 43887, Control_c, 0, 64, 85
1, 43892, Note_off_c, 0, 65, 63
1, 43902, Control_c, 0, 64, 85
1, 43916, Control_c, 0, 64, 86
1, 44005, Control_c, 0, 64, 84
1, 44020, Control_c, 0, 64, 81
1, 44026, Note_on_c, 0, 64, 47
1, 44035, Control_c, 0, 64, 74
1, 44050, Control_c, 0, 64, 61
1, 44065, Control_c, 0, 64, 33
1, 44080, Control_c, 0, 64, 0
1, 44181, Note_off_c, 0, 64, 58
1, 44200, Note_on_c, 0, 65, 52
1, 44223, Note_on_c, 0, 58, 20
1, 44264, Note_off_c, 0, 58, 47
1, 44351, Note_off_c, 0, 65, 58
1, 44362, Note_on_c, 0, 66, 55
1, 44487, Control_c, 0, 64, 10
1, 44502, Control_c, 0, 64, 14
1, 44514, Note_off_c, 0, 33, 60
1, 44516, Control_c, 0, 64, 19
1, 44525, Note_off_c, 0, 66, 55
1, 44531, Control_c, 0, 64, 23
1, 44533, Note_on_c, 0, 68, 55
1, 44537, Note_on_c, 0, 58, 51
1, 44546, Control_c, 0, 64, 26
1, 44561, Control_c, 0, 64, 29
1, 44576, Control_c, 0, 64, 31
1, 44586, Note_off_c, 0, 58, 58
1, 44590, Control_c, 0, 64, 35
1, 44605, Control_c, 0, 64, 39
1, 44620, Control_c, 0, 64, 43
1, 44636, Control_c, 0, 64, 45
1, 44651, Control_c, 0, 64, 46
1, 44666, Control_c, 0, 64, 48
1, 44680, Control_c, 0, 64, 50
1, 44695, Control_c, 0, 64, 51
1, 44711, Control_c, 0, 64, 52
1, 44717, Note_off_c, 0, 68, 56
1, 44719, Note_on_c, 0, 65, 59
1, 44726, Control_c, 0, 64, 54
1, 44740, Control_c, 0, 64, 55
1, 44755, Control_c, 0, 64, 56
1, 44770, Control_c, 0, 64, 56
1, 44785, Control_c, 0, 64, 57
1, 44829, Control_c, 0, 67, 127
1, 44844, Control_c, 0, 67, 123
1, 44859, Control_c, 0, 67, 119
1, 44874, Control_c, 0, 67, 114
1, 44888, Control_c, 0, 64, 56
1, 44888, Control_c, 0, 67, 109
1, 44911, Control_c, 0, 64, 54
1, 44911, Control_c, 0, 67, 102
1, 44924, Note_off_c, 0, 65, 57
1, 44926, Control_c, 0, 64, 52
1, 44926, Control_c, 0, 67, 92
1, 44928, Note_on_c, 0, 64, 70
1, 44934, Note_on_c, 0, 83, 96
1, 44938, Note_on_c, 0, 71, 80
1, 44940, Control_c, 0, 64, 49
1, 44940, Control_c, 0, 67, 84
1, 44955, Control_c, 0, 64, 46
1, 44955, Control_c, 0, 67, 75
1, 44970, Control_c, 0, 64, 42
1, 44970, Control_c, 0, 67, 66
1, 44985, Control_c, 0, 64, 36
1, 44985, Control_c, 0, 67, 57
1, 45000, Control_c, 0, 64, 29
1, 45000, Control_c, 0, 67, 49
1, 45014, Control_c, 0, 64, 17
1, 45014, Control_c, 0, 67, 42
1, 45029, Control_c, 0, 64, 0
1, 45029, Control_c, 0, 67, 36
1, 45044, Control_c, 0, 67, 33
1, 45058, Control_c, 0, 67, 30
1, 45073, Control_c, 0, 67, 28
1, 45088, Control_c, 0, 67, 25
1, 45103, Control_c, 0, 67, 23
1, 45118, Control_c, 0, 67, 20
1, 45127, Note_on_c, 0, 65, 56
1, 45132, Control_c, 0, 67, 17
1, 45147, Control_c, 0, 67, 15
1, 45162, Control_c, 0, 67, 12
1, 45177, Control_c, 0, 67, 10
1, 45192, Control_c, 0, 67, 0
1, 45198, Note_off_c, 0, 64, 50
1, 45222, Control_c, 0, 64, 37
1, 45237, Control_c, 0, 64, 54
1, 45251, Control_c, 0, 64, 60
1, 45266, Control_c, 0, 64, 63
1, 45275, Note_off_c, 0, 65, 60
1, 45281, Control_c, 0, 64, 66
1, 45296, Note_on_c, 0, 66, 50
1, 45296, Control_c, 0, 64, 70
1, 45302, Note_off_c, 0, 83, 61
1, 45311, Control_c, 0, 64, 75
1, 45318, Note_off_c, 0, 71, 53
1, 45326, Control_c, 0, 64, 80
1, 45340, Control_c, 0, 64, 86
1, 45355, Control_c, 0, 64, 91
1, 45370, Control_c, 0, 64, 96
1, 45385, Control_c, 0, 64, 105
1, 45400, Control_c, 0, 64, 114
1, 45414, Control_c, 0, 64, 127
1, 45440, Note_off_c, 0, 66, 55
1, 45464, Note_on_c, 0, 68, 51
1, 45602, Note_off_c, 0, 68, 61
1, 45621, Note_on_c, 0, 69, 60
1, 45812, Note_on_c, 0, 58, 63
1, 45828, Note_on_c, 0, 70, 63
1, 45829, Note_on_c, 0, 68, 55
1, 45852, Control_c, 0, 64, 113
1, 45867, Control_c, 0, 64, 104
1, 45881, Control_c, 0, 64, 97
1, 45896, Control_c, 0, 64, 91
1, 45911, Control_c, 0, 64, 84
1, 45926, Control_c, 0, 64, 77
1, 45941, Control_c, 0, 64, 70
1, 45955, Control_c, 0, 64, 62
1, 45970, Control_c, 0, 64, 56
1, 45984, Note_off_c, 0, 69, 36
1, 45985, Control_c, 0, 64, 53
1, 46015, Control_c, 0, 64, 53
1, 46030, Control_c, 0, 64, 52
1, 46035, Note_on_c, 0, 66, 46
1, 46044, Control_c, 0, 64, 52
1, 46059, Control_c, 0, 64, 51
1, 46116, Note_off_c, 0, 68, 34
1, 46168, Note_off_c, 0, 66, 59
1, 46213, Note_on_c, 0, 64, 43
1, 46311, Control_c, 0, 64, 51
1, 46348, Note_off_c, 0, 64, 61
1, 46376, Note_on_c, 0, 62, 46
1, 46561, Note_on_c, 0, 57, 45
1, 46562, Note_on_c, 0, 63, 51
1, 46610, Note_off_c, 0, 57, 50
1, 46620, Note_off_c, 0, 62, 37
1, 46689, Note_off_c, 0, 63, 60
1, 46715, Note_on_c, 0, 65, 45
1, 46748, Control_c, 0, 64, 51
1, 46822, Control_c, 0, 67, 8
1, 46837, Control_c, 0, 64, 50
1, 46837, Control_c, 0, 67, 8
1, 46852, Control_c, 0, 64, 47
1, 46852, Control_c, 0, 67, 9
1, 46867, Control_c, 0, 64, 39
1, 46867, Control_c, 0, 67, 9
1, 46874, Note_off_c, 0, 70, 55
1, 46882, Control_c, 0, 64, 24
1, 46882, Control_c, 0, 67, 10
1, 46897, Control_c, 0, 64, 0
1, 46897, Control_c, 0, 67, 11
1, 46903, Note_on_c, 0, 66, 54
1, 46905, Note_on_c, 0, 57, 50
1, 46926, Control_c, 0, 67, 11
1, 46932, Note_off_c, 0, 65, 52
1, 46971, Control_c, 0, 64, 23
1, 46985, Control_c, 0, 64, 34
1, 46989, Note_off_c, 0, 57, 58
1, 47000, Control_c, 0, 64, 41
1, 47015, Control_c, 0, 64, 44
1, 47031, Control_c, 0, 64, 47
1, 47046, Control_c, 0, 64, 49
1, 47055, Note_off_c, 0, 66, 63
1, 47061, Control_c, 0, 64, 51
1, 47076, Control_c, 0, 64, 52
1, 47078, Note_on_c, 0, 63, 60
1, 47090, Control_c, 0, 64, 54
1, 47105, Control_c, 0, 64, 56
1, 47120, Control_c, 0, 64, 57
1, 47134, Control_c, 0, 64, 58
1, 47149, Control_c, 0, 64, 58
1, 47171, Control_c, 0, 64, 59
1, 47186, Control_c, 0, 64, 59
1, 47231, Control_c, 0, 64, 59
1, 47246, Control_c, 0, 64, 58
1, 47257, Note_off_c, 0, 63, 64
1, 47260, Control_c, 0, 64, 54
1, 47261, Note_on_c, 0, 71, 89
1, 47264, Note_on_c, 0, 59, 63
1, 47275, Control_c, 0, 64, 44
1, 47278, Note_off_c, 0, 58, 58
1, 47290, Control_c, 0, 64, 0
1, 47291, Note_on_c, 0, 62, 49
1, 47305, Control_c, 0, 67, 11
1, 47320, Control_c, 0, 67, 10
1, 47334, Control_c, 0, 67, 10
1, 47340, Note_off_c, 0, 62, 43
1, 47349, Control_c, 0, 67, 9
1, 47364, Control_c, 0, 67, 8
1, 47379, Control_c, 0, 67, 0
1, 47438, Note_on_c, 0, 63, 55
1, 47482, Control_c, 0, 64, 26
1, 47497, Control_c, 0, 64, 51
1, 47512, Control_c, 0, 64, 61
1, 47526, Control_c, 0, 64, 65
1, 47536, Note_off_c, 0, 71, 60
1, 47541, Control_c, 0, 64, 68
1, 47556, Control_c, 0, 64, 72
1, 47567, Note_off_c, 0, 63, 63
1, 47571, Control_c, 0, 64, 76
1, 47586, Control_c, 0, 64, 80
1, 47600, Control_c, 0, 64, 82
1, 47608, Note_on_c, 0, 64, 50
1, 47615, Control_c, 0, 64, 84
1, 47630, Control_c, 0, 64, 86
1, 47645, Control_c, 0, 64, 88
1, 47660, Control_c, 0, 64, 91
1, 47675, Control_c, 0, 64, 92
1, 47690, Control_c, 0, 64, 94
1, 47705, Control_c, 0, 64, 95
1, 47720, Control_c, 0, 64, 95
1, 47735, Control_c, 0, 64, 96
1, 47749, Control_c, 0, 64, 96
1, 47777, Note_on_c, 0, 66, 49
1, 47814, Note_off_c, 0, 64, 34
1, 47927, Note_off_c, 0, 66, 58
1, 47967, Note_on_c, 0, 68, 48
1, 48025, Control_c, 0, 64, 96
1, 48039, Control_c, 0, 64, 95
1, 48054, Control_c, 0, 64, 95
1, 48069, Control_c, 0, 64, 94
1, 48083, Control_c, 0, 64, 93
1, 48098, Control_c, 0, 64, 91
1, 48113, Control_c, 0, 64, 89
1, 48128, Control_c, 0, 64, 87
1, 48131, Note_on_c, 0, 46, 62
1, 48143, Control_c, 0, 64, 84
1, 48144, Note_on_c, 0, 66, 55
1, 48158, Control_c, 0, 64, 81
1, 48173, Control_c, 0, 64, 79
1, 48188, Control_c, 0, 64, 76
1, 48203, Control_c, 0, 64, 73
1, 48216, Note_off_c, 0, 68, 29
1, 48217, Control_c, 0, 64, 70
1, 48232, Control_c, 0, 64, 66
1, 48247, Control_c, 0, 64, 64
1, 48260, Note_off_c, 0, 66, 59
1, 48262, Control_c, 0, 64, 62
1, 48277, Control_c, 0, 64, 61
1, 48291, Control_c, 0, 64, 60
1, 48306, Control_c, 0, 64, 60
1, 48321, Control_c, 0, 64, 59
1, 48325, Note_on_c, 0, 64, 48
1, 48336, Control_c, 0, 64, 59
1, 48350, Control_c, 0, 64, 58
1, 48365, Control_c, 0, 64, 58
1, 48410, Control_c, 0, 64, 57
1, 48455, Note_off_c, 0, 64, 62
1, 48492, Note_off_c, 0, 59, 42
1, 48501, Note_on_c, 0, 62, 48
1, 48643, Note_off_c, 0, 62, 58
1, 48671, Note_on_c, 0, 60, 49
1, 48714, Control_c, 0, 64, 57
1, 48774, Control_c, 0, 64, 56
1, 48803, Control_c, 0, 64, 56
1, 48818, Control_c, 0, 64, 55
1, 48833, Control_c, 0, 64, 55
1, 48846, Note_on_c, 0, 57, 50
1, 48848, Control_c, 0, 64, 54
1, 48850, Note_on_c, 0, 61, 50
1, 48850, Note_off_c, 0, 60, 56
1, 48862, Control_c, 0, 64, 52
1, 48873, Note_off_c, 0, 57, 58
1, 48877, Control_c, 0, 64, 51
1, 48892, Control_c, 0, 64, 49
1, 48892, Control_c, 0, 67, 8
1, 48906, Control_c, 0, 64, 44
1, 48906, Control_c, 0, 67, 8
1, 48921, Control_c, 0, 64, 38
1, 48921, Control_c, 0, 67, 9
1, 48936, Control_c, 0, 64, 24
1, 48951, Control_c, 0, 64, 0
1, 48991, Note_off_c, 0, 61, 59
1, 49010, Control_c, 0, 67, 9
1, 49013, Note_on_c, 0, 63, 48
1, 49100, Control_c, 0, 67, 9
1, 49114, Control_c, 0, 67, 8
1, 49129, Control_c, 0, 67, 8
1, 49144, Control_c, 0, 67, 0
1, 49160, Note_off_c, 0, 63, 58
1, 49195, Note_on_c, 0, 57, 41
1, 49201, Note_on_c, 0, 64, 36
1, 49218, Control_c, 0, 64, 35
1, 49232, Control_c, 0, 64, 49
1, 49243, Note_off_c, 0, 57, 63
1, 49247, Control_c, 0, 64, 56
1, 49262, Control_c, 0, 64, 59
1, 49277, Control_c, 0, 64, 62
1, 49292, Control_c, 0, 64, 64
1, 49306, Control_c, 0, 64, 67
1, 49321, Control_c, 0, 64, 71
1, 49336, Control_c, 0, 64, 75
1, 49351, Control_c, 0, 64, 78
1, 49356, Note_off_c, 0, 46, 62
1, 49356, Note_off_c, 0, 64, 55
1, 49366, Control_c, 0, 64, 80
1, 49368, Note_on_c, 0, 61, 60
1, 49380, Control_c, 0, 64, 81
1, 49403, Control_c, 0, 64, 82
1, 49418, Control_c, 0, 64, 84
1, 49434, Control_c, 0, 64, 85
1, 49449, Control_c, 0, 64, 85
1, 49463, Control_c, 0, 64, 86
1, 49537, Control_c, 0, 64, 85
1, 49538, Note_off_c, 0, 61, 61
1, 49550, Note_on_c, 0, 47, 75
1, 49552, Note_on_c, 0, 59, 84
1, 49552, Note_on_c, 0, 60, 61
1, 49552, Control_c, 0, 64, 79
1, 49567, Control_c, 0, 64, 65
1, 49582, Control_c, 0, 64, 19
1, 49597, Control_c, 0, 64, 0
1, 49700, Control_c, 0, 64, 23
1, 49715, Control_c, 0, 64, 52
1, 49729, Control_c, 0, 64, 62
1, 49736, Note_on_c, 0, 62, 50
1, 49744, Control_c, 0, 64, 66
1, 49759, Control_c, 0, 64, 73
1, 49774, Control_c, 0, 64, 80
1, 49789, Control_c, 0, 64, 86
1, 49793, Note_off_c, 0, 60, 38
1, 49803, Control_c, 0, 64, 95
1, 49818, Control_c, 0, 64, 103
1, 49833, Control_c, 0, 64, 115
1, 49848, Control_c, 0, 64, 127
1, 49857, Note_off_c, 0, 59, 62
1, 49899, Note_off_c, 0, 62, 61
1, 49917, Note_on_c, 0, 64, 52
1, 49927, Note_off_c, 0, 47, 61
1, 50075, Note_off_c, 0, 64, 61
1, 50092, Note_on_c, 0, 66, 50
1, 50242, Control_c, 0, 64, 125
1, 50256, Control_c, 0, 64, 107
1, 50271, Control_c, 0, 64, 96
1, 50276, Note_on_c, 0, 34, 44
1, 50286, Control_c, 0, 64, 88
1, 50291, Note_on_c, 0, 64, 56
1, 50301, Control_c, 0, 64, 80
1, 50316, Control_c, 0, 64, 73
1, 50328, Note_off_c, 0, 66, 37
1, 50331, Control_c, 0, 64, 65
1, 50346, Control_c, 0, 64, 60
1, 50360, Control_c, 0, 64, 54
1, 50375, Control_c, 0, 64, 51
1, 50390, Control_c, 0, 64, 48
1, 50405, Control_c, 0, 64, 42
1, 50420, Control_c, 0, 64, 29
1, 50434, Control_c, 0, 64, 0
1, 50461, Note_on_c, 0, 62, 54
1, 50474, Note_off_c, 0, 64, 57
1, 50551, Note_off_c, 0, 34, 59
1, 50622, Note_on_c, 0, 61, 66
1, 50686, Control_c, 0, 64, 30
1, 50700, Control_c, 0, 64, 56
1, 50715, Control_c, 0, 64, 65
1, 50718, Note_off_c, 0, 61, 56
1, 50730, Control_c, 0, 64, 72
1, 50744, Control_c, 0, 64, 82
1, 50759, Control_c, 0, 64, 94
1, 50774, Control_c, 0, 64, 109
1, 50781, Note_on_c, 0, 60, 78
1, 50789, Control_c, 0, 64, 127
1, 50790, Note_off_c, 0, 62, 60
1, 50984, Note_on_c, 0, 59, 81
1, 50985, Note_on_c, 0, 66, 75
1, 51034, Control_c, 0, 64, 102
1, 51049, Control_c, 0, 64, 76
1, 51064, Control_c, 0, 64, 50
1, 51079, Control_c, 0, 64, 0
1, 51084, Note_off_c, 0, 60, 61
1, 51167, Note_on_c, 0, 64, 74
1, 51182, Control_c, 0, 64, 37
1, 51197, Control_c, 0, 64, 58
1, 51212, Control_c, 0, 64, 65
1, 51227, Control_c, 0, 64, 72
1, 51242, Control_c, 0, 64, 81
1, 51256, Control_c, 0, 64, 89
1, 51271, Control_c, 0, 64, 95
1, 51278, Poly_aftertouch_c, 0, 51, 127
1, 51286, Control_c, 0, 64, 97
1, 51308, Note_off_c, 0, 66, 33
1, 51315, Control_c, 0, 64, 94
1, 51330, Control_c, 0, 64, 81
1, 51333, Note_on_c, 0, 46, 69
1, 51342, Note_on_c, 0, 62, 79
1, 51345, Control_c, 0, 64, 65
1, 51360, Control_c, 0, 64, 19
1, 51366, Poly_aftertouch_c, 0, 51, 0
1, 51374, Control_c, 0, 64, 0
1, 51389, Control_c, 0, 64, 42
1, 51404, Control_c, 0, 64, 60
1, 51409, Note_off_c, 0, 64, 51
1, 51418, Note_off_c, 0, 59, 56
1, 51419, Control_c, 0, 64, 71
1, 51434, Control_c, 0, 64, 88
1, 51449, Control_c, 0, 64, 127
1, 51462, Note_off_c, 0, 46, 63
1, 51511, Note_on_c, 0, 61, 86
1, 51562, Note_off_c, 0, 62, 61
1, 51675, Note_off_c, 0, 61, 54
1, 51764, Note_on_c, 0, 59, 66
1, 51837, Note_on_c, 0, 60, 83
1, 51857, Control_c, 0, 64, 117
1, 51872, Control_c, 0, 64, 90
1, 51887, Control_c, 0, 64, 69
1, 51902, Control_c, 0, 64, 17
1, 51917, Control_c, 0, 64, 0
1, 52005, Control_c, 0, 64, 43
1, 52020, Control_c, 0, 64, 62
1, 52035, Control_c, 0, 64, 70
1, 52049, Control_c, 0, 64, 80
1, 52064, Control_c, 0, 64, 94
1, 52079, Control_c, 0, 64, 116
1, 52091, Note_on_c, 0, 62, 81
1, 52094, Control_c, 0, 64, 127
1, 52110, Note_on_c, 0, 57, 69
1, 52221, Note_off_c, 0, 59, 52
1, 52226, Note_off_c, 0, 60, 58
1, 52263, Note_on_c, 0, 55, 69
1, 52265, Note_on_c, 0, 64, 84
1, 52268, Note_off_c, 0, 57, 64
1, 52292, Note_off_c, 0, 55, 63
1, 52400, Note_off_c, 0, 62, 59
1, 52424, Note_on_c, 0, 54, 77
1, 52426, Note_on_c, 0, 65, 90
1, 52453, Note_off_c, 0, 64, 64
1, 52486, Control_c, 0, 64, 118
1, 52501, Control_c, 0, 64, 83
1, 52516, Control_c, 0, 64, 56
1, 52531, Control_c, 0, 64, 0
1, 52546, Control_c, 0, 64, 29
1, 52561, Note_on_c, 0, 42, 74
1, 52561, Control_c, 0, 64, 52
1, 52564, Note_on_c, 0, 64, 87
1, 52570, Note_off_c, 0, 54, 63
1, 52576, Control_c, 0, 64, 63
1, 52584, Note_off_c, 0, 42, 66
1, 52590, Control_c, 0, 64, 73
1, 52605, Control_c, 0, 64, 95
1, 52605, Note_off_c, 0, 65, 61
1, 52620, Control_c, 0, 64, 127
1, 52698, Note_on_c, 0, 62, 84
1, 52799, Control_c, 0, 64, 109
1, 52814, Control_c, 0, 64, 82
1, 52820, Note_off_c, 0, 64, 63
1, 52825, Note_on_c, 0, 65, 88
1, 52828, Control_c, 0, 64, 65
1, 52832, Note_on_c, 0, 60, 85
1, 52843, Control_c, 0, 64, 55
1, 52858, Control_c, 0, 64, 62
1, 52872, Control_c, 0, 64, 68
1, 52877, Note_off_c, 0, 62, 60
1, 52887, Control_c, 0, 64, 79
1, 52902, Control_c, 0, 64, 97
1, 52917, Control_c, 0, 64, 127
1, 52941, Note_on_c, 0, 67, 95
1, 52948, Note_on_c, 0, 59, 82
1, 52981, Note_off_c, 0, 60, 65
1, 52982, Note_off_c, 0, 65, 62
1, 53045, Note_off_c, 0, 59, 65
1, 53047, Note_on_c, 0, 57, 79
1, 53052, Note_on_c, 0, 68, 99
1, 53070, Note_off_c, 0, 57, 67
1, 53072, Note_off_c, 0, 67, 64
1, 53129, Note_off_c, 0, 68, 61
1, 53199, Note_on_c, 0, 66, 85
1, 53219, Note_on_c, 0, 67, 89
1, 53264, Control_c, 0, 64, 90
1, 53279, Control_c, 0, 64, 64
1, 53294, Control_c, 0, 64, 0
1, 53324, Control_c, 0, 64, 41
1, 53339, Control_c, 0, 64, 55
1, 53353, Control_c, 0, 64, 64
1, 53368, Control_c, 0, 64, 76
1, 53383, Control_c, 0, 64, 93
1, 53383, Note_on_c, 0, 64, 77
1, 53387, Note_on_c, 0, 69, 94
1, 53397, Control_c, 0, 64, 127
1, 53415, Note_off_c, 0, 66, 62
1, 53433, Note_off_c, 0, 67, 60
1, 53483, Note_off_c, 0, 64, 64
1, 53489, Note_on_c, 0, 62, 75
1, 53497, Note_on_c, 0, 71, 91
1, 53523, Note_off_c, 0, 62, 64
1, 53562, Note_off_c, 0, 69, 58
1, 53592, Note_on_c, 0, 61, 73
1, 53595, Note_on_c, 0, 72, 91
1, 53604, Note_off_c, 0, 71, 62
1, 53667, Note_off_c, 0, 61, 61
1, 53692, Note_on_c, 0, 49, 80
1, 53692, Note_on_c, 0, 71, 92
1, 53720, Note_off_c, 0, 49, 68
1, 53737, Note_off_c, 0, 72, 57
1, 53783, Control_c, 0, 64, 95
1, 53798, Control_c, 0, 64, 72
1, 53811, Note_on_c, 0, 69, 92
1, 53813, Control_c, 0, 64, 55
1, 53828, Control_c, 0, 64, 56
1, 53842, Control_c, 0, 64, 65
1, 53857, Control_c, 0, 64, 74
1, 53872, Control_c, 0, 64, 93
1, 53875, Note_off_c, 0, 71, 65
1, 53894, Control_c, 0, 64, 127
1, 53902, Note_on_c, 0, 72, 92
1, 53920, Note_on_c, 0, 67, 90
1, 53950, Note_off_c, 0, 69, 66
1, 53996, Note_on_c, 0, 74, 94
1, 54012, Note_on_c, 0, 65, 80
1, 54027, Note_off_c, 0, 72, 63
1, 54038, Note_off_c, 0, 67, 64
1, 54078, Note_on_c, 0, 64, 80
1, 54084, Note_off_c, 0, 65, 64
1, 54090, Note_on_c, 0, 75, 97
1, 54100, Note_off_c, 0, 64, 71
1, 54101, Note_off_c, 0, 74, 67
1, 54136, Note_off_c, 0, 75, 66
1, 54206, Control_c, 0, 64, 107
1, 54217, Note_on_c, 0, 76, 88
1, 54221, Note_on_c, 0, 77, 90
1, 54221, Control_c, 0, 64, 72
1, 54236, Control_c, 0, 64, 37
1, 54251, Control_c, 0, 64, 0
1, 54296, Control_c, 0, 64, 46
1, 54310, Control_c, 0, 64, 66
1, 54325, Control_c, 0, 64, 78
1, 54340, Control_c, 0, 64, 102
1, 54355, Control_c, 0, 64, 127
1, 54362, Note_on_c, 0, 79, 95
1, 54369, Note_on_c, 0, 74, 74
1, 54409, Note_off_c, 0, 76, 62
1, 54412, Note_off_c, 0, 77, 63
1, 54469, Note_on_c, 0, 81, 92
1, 54474, Note_on_c, 0, 72, 79
1, 54481, Note_off_c, 0, 74, 64
1, 54516, Note_off_c, 0, 79, 53
1, 54545, Note_off_c, 0, 72, 63
1, 54569, Note_on_c, 0, 82, 92
1, 54571, Note_on_c, 0, 71, 88
1, 54586, Note_off_c, 0, 81, 59
1, 54648, Note_off_c, 0, 71, 63
1, 54674, Note_off_c, 0, 82, 63
1, 54680, Note_on_c, 0, 77, 90
1, 54685, Note_on_c, 0, 59, 79
1, 54701, Note_off_c, 0, 59, 67
1, 54792, Note_on_c, 0, 76, 95
1, 54793, Control_c, 0, 64, 87
1, 54807, Control_c, 0, 64, 63
1, 54822, Control_c, 0, 64, 0
1, 54837, Control_c, 0, 64, 26
1, 54851, Control_c, 0, 64, 52
1, 54866, Control_c, 0, 64, 64
1, 54873, Note_off_c, 0, 77, 58
1, 54881, Control_c, 0, 64, 76
1, 54883, Note_on_c, 0, 82, 100
1, 54885, Note_on_c, 0, 71, 88
1, 54896, Control_c, 0, 64, 97
1, 54900, Note_off_c, 0, 76, 63
1, 54911, Control_c, 0, 64, 127
1, 54963, Note_off_c, 0, 82, 62
1, 54983, Note_on_c, 0, 79, 91
1, 54984, Note_on_c, 0, 74, 83
1, 54998, Note_off_c, 0, 71, 64
1, 55054, Note_off_c, 0, 79, 65
1, 55073, Note_on_c, 0, 77, 86
1, 55077, Note_on_c, 0, 76, 101
1, 55080, Note_off_c, 0, 74, 57
1, 55095, Note_off_c, 0, 77, 67
1, 55109, Note_off_c, 0, 76, 65
1, 55193, Control_c, 0, 64, 110
1, 55208, Control_c, 0, 64, 71
1, 55223, Control_c, 0, 64, 0
1, 55252, Control_c, 0, 64, 59
1, 55259, Note_on_c, 0, 94, 101
1, 55266, Note_on_c, 0, 82, 89
1, 55267, Control_c, 0, 64, 81
1, 55270, Note_on_c, 0, 47, 80
1, 55281, Note_on_c, 0, 59, 62
1, 55282, Control_c, 0, 64, 127
1, 55288, Note_on_c, 0, 92, 52
1, 55289, Note_off_c, 0, 92, 127
1, 55289, Note_off_c, 0, 47, 67
1, 55289, Note_off_c, 0, 82, 67
1, 55291, Note_off_c, 0, 94, 68
1, 55300, Note_on_c, 0, 60, 35
1, 55301, Note_off_c, 0, 60, 127
1, 55302, Note_off_c, 0, 59, 63
1, 55333, Poly_aftertouch_c, 0, 60, 0
1, 55533, Note_on_c, 0, 77, 78
1, 55536, Note_on_c, 0, 76, 77
1, 55645, Control_c, 0, 64, 110
1, 55660, Control_c, 0, 64, 94
1, 55674, Control_c, 0, 64, 80
1, 55689, Control_c, 0, 64, 66
1, 55704, Control_c, 0, 64, 37
1, 55716, Note_on_c, 0, 64, 54
1, 55719, Control_c, 0, 64, 0
1, 55757, Note_on_c, 0, 82, 84
1, 55792, Control_c, 0, 64, 16
1, 55807, Control_c, 0, 64, 53
1, 55824, Control_c, 0, 64, 64
1, 55838, Control_c, 0, 64, 73
1, 55853, Control_c, 0, 64, 83
1, 55868, Control_c, 0, 64, 98
1, 55883, Control_c, 0, 64, 127
1, 55907, Note_off_c, 0, 77, 56
1, 55911, Note_on_c, 0, 59, 66
1, 55923, Note_on_c, 0, 79, 82
1, 55946, Note_off_c, 0, 76, 61
1, 56014, Note_off_c, 0, 64, 58
1, 56030, Note_off_c, 0, 59, 49
1, 56033, Note_on_c, 0, 71, 81
1, 56040, Note_on_c, 0, 77, 89
1, 56060, Note_off_c, 0, 71, 67
1, 56069, Note_off_c, 0, 82, 36
1, 56114, Note_off_c, 0, 79, 42
1, 56155, Note_off_c, 0, 77, 60
1, 56156, Note_on_c, 0, 74, 92
1, 56158, Note_on_c, 0, 56, 85
1, 56180, Note_off_c, 0, 56, 70
1, 56197, Note_off_c, 0, 74, 67
1, 56245, Control_c, 0, 64, 84
1, 56260, Control_c, 0, 64, 63
1, 56269, Note_on_c, 0, 72, 89
1, 56275, Control_c, 0, 64, 43
1, 56286, Note_on_c, 0, 68, 82
1, 56290, Control_c, 0, 64, 56
1, 56305, Control_c, 0, 64, 65
1, 56320, Control_c, 0, 64, 75
1, 56334, Control_c, 0, 64, 96
1, 56349, Control_c, 0, 64, 127
1, 56389, Note_on_c, 0, 77, 86
1, 56390, Note_on_c, 0, 66, 88
1, 56417, Note_off_c, 0, 72, 63
1, 56424, Note_off_c, 0, 68, 64
1, 56453, Control_c, 0, 64, 96
1, 56468, Control_c, 0, 64, 67
1, 56483, Control_c, 0, 64, 0
1, 56496, Note_on_c, 0, 69, 83
1, 56498, Note_on_c, 0, 74, 92
1, 56518, Note_off_c, 0, 77, 59
1, 56527, Control_c, 0, 64, 44
1, 56542, Control_c, 0, 64, 65
1, 56557, Control_c, 0, 64, 80
1, 56571, Control_c, 0, 64, 116
1, 56572, Note_off_c, 0, 66, 36
1, 56586, Control_c, 0, 64, 127
1, 56594, Note_on_c, 0, 71, 95
1, 56596, Note_on_c, 0, 72, 98
1, 56600, Note_off_c, 0, 74, 67
1, 56606, Note_off_c, 0, 69, 65
1, 56698, Note_on_c, 0, 74, 99
1, 56699, Note_on_c, 0, 69, 89
1, 56722, Note_off_c, 0, 72, 64
1, 56727, Note_off_c, 0, 71, 63
1, 56790, Note_on_c, 0, 66, 91
1, 56793, Note_off_c, 0, 69, 68
1, 56800, Note_on_c, 0, 77, 96
1, 56808, Note_off_c, 0, 66, 72
1, 56808, Note_off_c, 0, 74, 63
1, 56835, Note_off_c, 0, 77, 69
1, 56868, Control_c, 0, 64, 120
1, 56890, Control_c, 0, 64, 72
1, 56905, Control_c, 0, 64, 39
1, 56919, Control_c, 0, 64, 50
1, 56934, Control_c, 0, 64, 71
1, 56949, Control_c, 0, 64, 101
1, 56964, Control_c, 0, 64, 127
1, 56969, Note_on_c, 0, 89, 99
1, 56969, Note_on_c, 0, 101, 99
1, 56975, Note_on_c, 0, 42, 86
1, 56978, Note_on_c, 0, 54, 89
1, 56994, Note_off_c, 0, 89, 64
1, 56999, Note_off_c, 0, 101, 71
1, 56999, Note_off_c, 0, 54, 70
1, 57002, Note_off_c, 0, 42, 67
1, 57265, Note_on_c, 0, 71, 60
1, 57275, Note_on_c, 0, 72, 73
1, 57290, Control_c, 0, 64, 97
1, 57305, Control_c, 0, 64, 74
1, 57319, Control_c, 0, 64, 48
1, 57334, Control_c, 0, 64, 0
1, 57393, Control_c, 0, 64, 32
1, 57408, Control_c, 0, 64, 56
1, 57424, Control_c, 0, 64, 65
1, 57440, Control_c, 0, 64, 71
1, 57455, Control_c, 0, 64, 79
1, 57469, Control_c, 0, 64, 88
1, 57478, Note_on_c, 0, 74, 80
1, 57483, Note_on_c, 0, 69, 66
1, 57484, Control_c, 0, 64, 99
1, 57499, Control_c, 0, 64, 120
1, 57514, Control_c, 0, 64, 127
1, 57562, Note_off_c, 0, 71, 57
1, 57607, Note_on_c, 0, 76, 92
1, 57607, Note_off_c, 0, 69, 66
1, 57610, Note_on_c, 0, 67, 71
1, 57646, Note_off_c, 0, 67, 67
1, 57651, Note_off_c, 0, 72, 60
1, 57677, Note_off_c, 0, 74, 59
1, 57747, Note_on_c, 0, 77, 83
1, 57756, Note_on_c, 0, 66, 75
1, 57767, Note_off_c, 0, 76, 59
1, 57773, Control_c, 0, 64, 91
1, 57787, Control_c, 0, 64, 72
1, 57802, Control_c, 0, 64, 62
1, 57817, Control_c, 0, 64, 64
1, 57832, Control_c, 0, 64, 71
1, 57847, Control_c, 0, 64, 81
1, 57858, Note_off_c, 0, 66, 56
1, 57861, Control_c, 0, 64, 96
1, 57867, Note_off_c, 0, 77, 61
1, 57870, Note_on_c, 0, 54, 69
1, 57876, Control_c, 0, 64, 127
1, 57885, Note_on_c, 0, 70, 87
1, 57901, Note_off_c, 0, 54, 67
1, 57997, Note_on_c, 0, 69, 81
1, 58069, Control_c, 0, 64, 100
1, 58084, Control_c, 0, 64, 74
1, 58099, Control_c, 0, 64, 47
1, 58111, Note_on_c, 0, 72, 79
1, 58114, Control_c, 0, 64, 0
1, 58128, Note_on_c, 0, 67, 81
1, 58143, Control_c, 0, 64, 43
1, 58158, Control_c, 0, 64, 60
1, 58170, Note_off_c, 0, 69, 62
1, 58173, Control_c, 0, 64, 69
1, 58187, Control_c, 0, 64, 79
1, 58202, Control_c, 0, 64, 96
1, 58218, Control_c, 0, 64, 127
1, 58237, Note_on_c, 0, 74, 79
1, 58243, Note_on_c, 0, 65, 83
1, 58265, Note_off_c, 0, 67, 62
1, 58322, Control_c, 0, 64, 89
1, 58332, Note_off_c, 0, 70, 61
1, 58337, Control_c, 0, 64, 69
1, 58343, Note_off_c, 0, 72, 61
1, 58350, Note_off_c, 0, 65, 62
1, 58352, Control_c, 0, 64, 54
1, 58366, Control_c, 0, 64, 56
1, 58370, Note_on_c, 0, 75, 82
1, 58379, Note_on_c, 0, 64, 72
1, 58381, Control_c, 0, 64, 64
1, 58403, Control_c, 0, 64, 72
1, 58418, Control_c, 0, 64, 82
1, 58418, Note_off_c, 0, 64, 62
1, 58422, Note_off_c, 0, 74, 59
1, 58433, Control_c, 0, 64, 95
1, 58448, Control_c, 0, 64, 108
1, 58463, Control_c, 0, 64, 127
1, 58511, Note_on_c, 0, 52, 63
1, 58542, Note_off_c, 0, 52, 63
1, 58597, Note_on_c, 0, 68, 78
1, 58598, Note_off_c, 0, 75, 63
1, 58762, Note_on_c, 0, 67, 71
1, 58818, Control_c, 0, 64, 115
1, 58832, Control_c, 0, 64, 86
1, 58847, Control_c, 0, 64, 67
1, 58862, Control_c, 0, 64, 52
1, 58877, Control_c, 0, 64, 60
1, 58892, Control_c, 0, 64, 66
1, 58898, Note_on_c, 0, 70, 78
1, 58907, Control_c, 0, 64, 72
1, 58916, Note_on_c, 0, 64, 65
1, 58922, Control_c, 0, 64, 82
1, 58937, Control_c, 0, 64, 96
1, 58952, Control_c, 0, 64, 114
1, 58966, Control_c, 0, 64, 127
1, 58990, Note_off_c, 0, 67, 60
1, 59023, Note_on_c, 0, 72, 77
1, 59104, Note_off_c, 0, 68, 60
1, 59116, Note_off_c, 0, 70, 30
1, 59154, Note_off_c, 0, 64, 63
1, 59172, Note_on_c, 0, 62, 71
1, 59172, Note_on_c, 0, 73, 81
1, 59178, Note_off_c, 0, 72, 57
1, 59210, Note_off_c, 0, 62, 59
1, 59303, Note_on_c, 0, 50, 55
1, 59310, Note_on_c, 0, 66, 68
1, 59315, Note_off_c, 0, 73, 62
1, 59329, Note_off_c, 0, 50, 62
1, 59458, Note_on_c, 0, 65, 64
1, 59463, Control_c, 0, 64, 101
1, 59478, Control_c, 0, 64, 77
1, 59493, Control_c, 0, 64, 58
1, 59507, Control_c, 0, 64, 32
1, 59522, Control_c, 0, 64, 43
1, 59537, Control_c, 0, 64, 55
1, 59552, Control_c, 0, 64, 64
1, 59567, Control_c, 0, 64, 71
1, 59581, Control_c, 0, 64, 83
1, 59596, Control_c, 0, 64, 99
1, 59603, Note_on_c, 0, 68, 70
1, 59611, Control_c, 0, 64, 127
1, 59730, Control_c, 0, 64, 104
1, 59743, Note_on_c, 0, 70, 76
1, 59745, Control_c, 0, 64, 83
1, 59748, Note_on_c, 0, 60, 58
1, 59759, Control_c, 0, 64, 71
1, 59774, Control_c, 0, 64, 70
1, 59775, Note_off_c, 0, 65, 61
1, 59789, Control_c, 0, 64, 74
1, 59804, Control_c, 0, 64, 82
1, 59815, Note_off_c, 0, 60, 64
1, 59819, Control_c, 0, 64, 92
1, 59834, Control_c, 0, 64, 107
1, 59849, Control_c, 0, 64, 127
1, 59867, Note_off_c, 0, 68, 30
1, 59893, Note_on_c, 0, 71, 69
1, 59894, Note_off_c, 0, 66, 60
1, 59921, Note_off_c, 0, 70, 59
1, 59990, Control_c, 0, 64, 105
1, 60005, Control_c, 0, 64, 80
1, 60019, Control_c, 0, 64, 62
1, 60034, Control_c, 0, 64, 55
1, 60038, Note_off_c, 0, 71, 56
1, 60040, Note_on_c, 0, 48, 37
1, 60049, Control_c, 0, 64, 62
1, 60064, Control_c, 0, 64, 68
1, 60064, Note_on_c, 0, 64, 56
1, 60073, Note_off_c, 0, 48, 48
1, 60079, Control_c, 0, 64, 75
1, 60093, Control_c, 0, 64, 86
1, 60108, Control_c, 0, 64, 100
1, 60123, Control_c, 0, 64, 120
1, 60138, Control_c, 0, 64, 127
1, 60243, Note_on_c, 0, 63, 57
1, 60360, Control_c, 0, 64, 112
1, 60371, Note_on_c, 0, 69, 65
1, 60375, Control_c, 0, 64, 100
1, 60389, Control_c, 0, 64, 89
1, 60397, Note_on_c, 0, 61, 59
1, 60404, Control_c, 0, 64, 76
1, 60419, Control_c, 0, 64, 66
1, 60434, Control_c, 0, 64, 52
1, 60449, Control_c, 0, 64, 29
1, 60463, Control_c, 0, 64, 0
1, 60529, Note_on_c, 0, 68, 67
1, 60536, Note_on_c, 0, 59, 65
1, 60536, Note_off_c, 0, 61, 61
1, 60567, Note_off_c, 0, 63, 33
1, 60567, Control_c, 0, 64, 27
1, 60582, Control_c, 0, 64, 45
1, 60597, Control_c, 0, 64, 57
1, 60600, Note_off_c, 0, 69, 52
1, 60603, Note_off_c, 0, 64, 56
1, 60612, Control_c, 0, 64, 62
1, 60635, Control_c, 0, 64, 64
1, 60650, Control_c, 0, 64, 67
1, 60665, Control_c, 0, 64, 71
1, 60680, Control_c, 0, 64, 77
1, 60682, Note_on_c, 0, 58, 63
1, 60682, Note_off_c, 0, 59, 61
1, 60686, Note_on_c, 0, 66, 75
1, 60694, Control_c, 0, 64, 86
1, 60709, Control_c, 0, 64, 94
1, 60724, Control_c, 0, 64, 101
1, 60739, Control_c, 0, 64, 109
1, 60754, Control_c, 0, 64, 121
1, 60768, Control_c, 0, 64, 127
1, 60800, Note_off_c, 0, 58, 63
1, 60802, Note_off_c, 0, 68, 54
1, 60827, Note_on_c, 0, 63, 62
1, 60839, Note_on_c, 0, 64, 66
1, 60848, Note_off_c, 0, 66, 62
1, 60848, Note_off_c, 0, 63, 64
1, 60976, Control_c, 0, 64, 89
1, 60991, Control_c, 0, 64, 70
1, 60995, Note_on_c, 0, 46, 53
1, 61005, Control_c, 0, 64, 56
1, 61006, Note_on_c, 0, 69, 58
1, 61020, Control_c, 0, 64, 58
1, 61035, Note_off_c, 0, 46, 64
1, 61035, Control_c, 0, 64, 64
1, 61050, Control_c, 0, 64, 69
1, 61065, Control_c, 0, 64, 77
1, 61068, Note_off_c, 0, 64, 57
1, 61079, Control_c, 0, 64, 88
1, 61094, Control_c, 0, 64, 101
1, 61109, Control_c, 0, 64, 112
1, 61124, Control_c, 0, 64, 120
1, 61139, Control_c, 0, 64, 127
1, 61184, Note_on_c, 0, 68, 61
1, 61185, Note_on_c, 0, 59, 58
1, 61227, Control_c, 0, 67, 9
1, 61231, Note_off_c, 0, 69, 51
1, 61242, Control_c, 0, 64, 121
1, 61242, Control_c, 0, 67, 11
1, 61257, Control_c, 0, 64, 114
1, 61257, Control_c, 0, 67, 12
1, 61272, Control_c, 0, 64, 109
1, 61272, Control_c, 0, 67, 14
1, 61286, Control_c, 0, 64, 104
1, 61286, Control_c, 0, 67, 16
1, 61301, Control_c, 0, 64, 99
1, 61301, Control_c, 0, 67, 18
1, 61316, Control_c, 0, 64, 94
1, 61316, Control_c, 0, 67, 20
1, 61325, Note_off_c, 0, 59, 61
1, 61331, Control_c, 0, 64, 89
1, 61331, Control_c, 0, 67, 23
1, 61336, Note_on_c, 0, 58, 58
1, 61346, Control_c, 0, 64, 83
1, 61346, Control_c, 0, 67, 26
1, 61358, Note_on_c, 0, 66, 57
1, 61360, Control_c, 0, 64, 79
1, 61360, Control_c, 0, 67, 30
1, 61383, Control_c, 0, 64, 75
1, 61383, Control_c, 0, 67, 34
1, 61398, Control_c, 0, 64, 69
1, 61398, Control_c, 0, 67, 37
1, 61414, Control_c, 0, 64, 61
1, 61414, Control_c, 0, 67, 41
1, 61429, Control_c, 0, 64, 45
1, 61429, Control_c, 0, 67, 44
1, 61443, Control_c, 0, 64, 0
1, 61443, Control_c, 0, 67, 49
1, 61458, Control_c, 0, 67, 54
1, 61473, Control_c, 0, 67, 60
1, 61488, Control_c, 0, 67, 67
1, 61496, Note_off_c, 0, 68, 32
1, 61503, Control_c, 0, 67, 73
1, 61517, Control_c, 0, 67, 79
1, 61518, Note_off_c, 0, 58, 59
1, 61529, Note_on_c, 0, 63, 44
1, 61532, Control_c, 0, 67, 84
1, 61538, Note_on_c, 0, 64, 58
1, 61545, Note_off_c, 0, 66, 56
1, 61547, Control_c, 0, 64, 13
1, 61547, Control_c, 0, 67, 90
1, 61562, Control_c, 0, 64, 34
1, 61562, Control_c, 0, 67, 95
1, 61577, Control_c, 0, 64, 47
1, 61577, Control_c, 0, 67, 100
1, 61591, Control_c, 0, 64, 56
1, 61591, Control_c, 0, 67, 104
1, 61606, Control_c, 0, 64, 60
1, 61606, Control_c, 0, 67, 108
1, 61621, Control_c, 0, 64, 63
1, 61621, Control_c, 0, 67, 111
1, 61635, Control_c, 0, 64, 65
1, 61635, Control_c, 0, 67, 113
1, 61650, Control_c, 0, 64, 68
1, 61650, Control_c, 0, 67, 114
1, 61665, Control_c, 0, 64, 72
1, 61677, Note_off_c, 0, 63, 62
1, 61680, Control_c, 0, 64, 77
1, 61691, Note_on_c, 0, 61, 58
1, 61695, Control_c, 0, 64, 82
1, 61706, Note_on_c, 0, 69, 56
1, 61709, Control_c, 0, 64, 86
1, 61712, Note_off_c, 0, 61, 62
1, 61723, Note_off_c, 0, 64, 51
1, 61724, Control_c, 0, 64, 90
1, 61739, Control_c, 0, 64, 94
1, 61754, Control_c, 0, 64, 97
1, 61754, Control_c, 0, 67, 113
1, 61769, Control_c, 0, 64, 100
1, 61769, Control_c, 0, 67, 113
1, 61784, Control_c, 0, 64, 102
1, 61784, Control_c, 0, 67, 112
1, 61798, Control_c, 0, 64, 105
1, 61798, Control_c, 0, 67, 112
1, 61813, Control_c, 0, 64, 108
1, 61813, Control_c, 0, 67, 111
1, 61828, Control_c, 0, 64, 110
1, 61843, Control_c, 0, 64, 110
1, 61873, Control_c, 0, 67, 111
1, 61878, Note_on_c, 0, 34, 52
1, 61897, Note_on_c, 0, 68, 56
1, 61902, Control_c, 0, 67, 110
1, 61907, Note_off_c, 0, 34, 56
1, 61917, Control_c, 0, 67, 110
1, 61947, Control_c, 0, 67, 109
1, 62001, Note_off_c, 0, 69, 31
1, 62021, Control_c, 0, 67, 109
1, 62050, Control_c, 0, 67, 108
1, 62065, Control_c, 0, 67, 108
1, 62080, Control_c, 0, 64, 110
1, 62092, Note_on_c, 0, 66, 58
1, 62095, Control_c, 0, 64, 109
1, 62095, Control_c, 0, 67, 107
1, 62101, Note_on_c, 0, 58, 55
1, 62109, Control_c, 0, 64, 108
1, 62124, Control_c, 0, 64, 108
1, 62143, Note_off_c, 0, 68, 39
1, 62147, Control_c, 0, 64, 107
1, 62147, Control_c, 0, 67, 107
1, 62161, Control_c, 0, 64, 106
1, 62176, Control_c, 0, 64, 105
1, 62191, Control_c, 0, 64, 104
1, 62207, Control_c, 0, 64, 102
1, 62222, Control_c, 0, 64, 101
1, 62237, Control_c, 0, 64, 99
1, 62252, Control_c, 0, 64, 98
1, 62266, Control_c, 0, 64, 97
1, 62281, Control_c, 0, 64, 95
1, 62296, Control_c, 0, 64, 93
1, 62297, Note_on_c, 0, 64, 57
1, 62304, Note_off_c, 0, 66, 56
1, 62308, Note_on_c, 0, 63, 47
1, 62311, Control_c, 0, 64, 90
1, 62326, Control_c, 0, 64, 89
1, 62340, Control_c, 0, 64, 87
1, 62355, Control_c, 0, 64, 86
1, 62370, Control_c, 0, 64, 84
1, 62385, Control_c, 0, 64, 83
1, 62400, Control_c, 0, 64, 82
1, 62414, Control_c, 0, 64, 80
1, 62429, Control_c, 0, 64, 79
1, 62444, Control_c, 0, 64, 78
1, 62457, Note_off_c, 0, 63, 62
1, 62458, Control_c, 0, 64, 76
1, 62473, Control_c, 0, 64, 75
1, 62478, Note_on_c, 0, 69, 58
1, 62488, Control_c, 0, 64, 73
1, 62493, Note_on_c, 0, 61, 46
1, 62503, Control_c, 0, 64, 72
1, 62513, Note_off_c, 0, 64, 38
1, 62518, Control_c, 0, 64, 71
1, 62532, Control_c, 0, 64, 69
1, 62547, Control_c, 0, 64, 67
1, 62547, Control_c, 0, 67, 107
1, 62562, Control_c, 0, 64, 66
1, 62577, Control_c, 0, 64, 65
1, 62577, Control_c, 0, 67, 108
1, 62591, Control_c, 0, 64, 64
1, 62606, Control_c, 0, 64, 63
1, 62606, Control_c, 0, 67, 108
1, 62607, Note_off_c, 0, 58, 31
1, 62621, Control_c, 0, 64, 62
1, 62621, Control_c, 0, 67, 109
1, 62636, Control_c, 0, 64, 61
1, 62636, Control_c, 0, 67, 109
1, 62649, Note_off_c, 0, 61, 57
1, 62651, Control_c, 0, 64, 60
1, 62665, Note_on_c, 0, 68, 54
1, 62666, Control_c, 0, 64, 59
1, 62666, Control_c, 0, 67, 110
1, 62672, Note_on_c, 0, 59, 44
1, 62681, Control_c, 0, 64, 59
1, 62681, Control_c, 0, 67, 110
1, 62696, Control_c, 0, 64, 58
1, 62696, Control_c, 0, 67, 111
1, 62707, Note_off_c, 0, 69, 38
1, 62711, Control_c, 0, 64, 58
1, 62711, Control_c, 0, 67, 111
1, 62740, Control_c, 0, 64, 57
1, 62740, Control_c, 0, 67, 112
1, 62755, Control_c, 0, 67, 112
1, 62770, Control_c, 0, 64, 57
1, 62784, Control_c, 0, 67, 113
1, 62799, Control_c, 0, 64, 56
1, 62799, Control_c, 0, 67, 113
1, 62829, Control_c, 0, 67, 114
1, 62836, Note_off_c, 0, 59, 55
1, 62844, Control_c, 0, 64, 56
1, 62844, Control_c, 0, 67, 114
1, 62846, Note_on_c, 0, 58, 49
1, 62858, Control_c, 0, 67, 115
1, 62868, Note_on_c, 0, 66, 49
1, 62881, Control_c, 0, 67, 115
1, 62895, Control_c, 0, 67, 116
1, 62910, Control_c, 0, 67, 117
1, 62919, Note_off_c, 0, 68, 58
1, 62925, Control_c, 0, 67, 120
1, 62940, Control_c, 0, 67, 123
1, 62955, Control_c, 0, 64, 55
1, 62955, Control_c, 0, 67, 125
1, 62970, Control_c, 0, 67, 127
1, 63028, Note_off_c, 0, 58, 55
1, 63039, Note_off_c, 0, 66, 62
1, 63043, Note_on_c, 0, 56, 42
1, 63059, Control_c, 0, 64, 55
1, 63062, Note_on_c, 0, 64, 41
1, 63163, Control_c, 0, 64, 54
1, 63207, Control_c, 0, 64, 54
1, 63237, Control_c, 0, 64, 53
1, 63252, Control_c, 0, 64, 53
1, 63271, Note_on_c, 0, 55, 41
1, 63274, Note_off_c, 0, 64, 59
1, 63281, Control_c, 0, 64, 52
1, 63285, Note_on_c, 0, 63, 41
1, 63294, Note_off_c, 0, 56, 36
1, 63311, Control_c, 0, 64, 52
1, 63414, Control_c, 0, 64, 51
1, 63459, Control_c, 0, 64, 51
1, 63489, Control_c, 0, 64, 50
1, 63518, Control_c, 0, 64, 50
1, 63533, Control_c, 0, 64, 49
1, 63535, Note_off_c, 0, 63, 56
1, 63542, Note_on_c, 0, 61, 44
1, 63548, Control_c, 0, 64, 49
1, 63563, Control_c, 0, 64, 48
1, 63578, Control_c, 0, 64, 47
1, 63593, Control_c, 0, 64, 47
1, 63607, Control_c, 0, 64, 46
1, 63629, Control_c, 0, 64, 45
1, 63644, Control_c, 0, 64, 42
1, 63659, Control_c, 0, 64, 38
1, 63674, Control_c, 0, 64, 31
1, 63688, Control_c, 0, 64, 9
1, 63703, Control_c, 0, 64, 0
1, 63823, Note_on_c, 0, 42, 38
1, 63832, Note_on_c, 0, 62, 36
1, 63866, Note_off_c, 0, 55, 40
1, 63881, Note_off_c, 0, 61, 36
1, 63927, Control_c, 0, 64, 44
1, 63942, Control_c, 0, 64, 56
1, 63957, Control_c, 0, 64, 61
1, 63972, Control_c, 0, 64, 64
1, 63986, Control_c, 0, 64, 66
1, 64001, Control_c, 0, 64, 69
1, 64016, Control_c, 0, 64, 74
1, 64025, Note_off_c, 0, 42, 53
1, 64030, Control_c, 0, 64, 79
1, 64045, Control_c, 0, 64, 82
1, 64060, Control_c, 0, 64, 84
1, 64075, Control_c, 0, 64, 85
1, 64090, Control_c, 0, 64, 86
1, 64104, Control_c, 0, 64, 86
1, 64311, Control_c, 0, 64, 86
1, 64314, Note_off_c, 0, 62, 38
1, 64326, Note_on_c, 0, 59, 37
1, 64326, Control_c, 0, 64, 85
1, 64338, Note_on_c, 0, 29, 33
1, 64341, Control_c, 0, 64, 85
1, 64355, Control_c, 0, 64, 84
1, 64377, Control_c, 0, 64, 84
1, 64392, Control_c, 0, 64, 83
1, 64407, Control_c, 0, 64, 82
1, 64422, Control_c, 0, 64, 81
1, 64437, Control_c, 0, 64, 80
1, 64451, Control_c, 0, 64, 78
1, 64466, Control_c, 0, 64, 77
1, 64481, Control_c, 0, 64, 76
1, 64511, Control_c, 0, 64, 76
1, 64526, Control_c, 0, 64, 75
1, 64541, Control_c, 0, 64, 75
1, 64555, Control_c, 0, 64, 74
1, 64570, Control_c, 0, 64, 73
1, 64585, Control_c, 0, 64, 73
1, 64601, Control_c, 0, 64, 72
1, 64615, Control_c, 0, 64, 72
1, 64630, Control_c, 0, 64, 71
1, 64645, Control_c, 0, 64, 71
1, 64660, Control_c, 0, 64, 70
1, 64675, Control_c, 0, 64, 70
1, 64681, Note_on_c, 0, 64, 39
1, 64690, Control_c, 0, 64, 69
1, 64705, Control_c, 0, 64, 69
1, 64720, Control_c, 0, 64, 68
1, 64749, Control_c, 0, 64, 68
1, 64778, Control_c, 0, 64, 67
1, 64793, Control_c, 0, 64, 67
1, 64808, Control_c, 0, 64, 66
1, 64838, Control_c, 0, 64, 66
1, 64882, Control_c, 0, 64, 65
1, 64883, Note_off_c, 0, 64, 45
1, 64887, Note_on_c, 0, 69, 44
1, 64896, Note_off_c, 0, 59, 30
1, 64926, Control_c, 0, 64, 65
1, 64985, Control_c, 0, 64, 64
1, 65064, Note_off_c, 0, 69, 45
1, 65068, Note_on_c, 0, 68, 49
1, 65104, Control_c, 0, 64, 64
1, 65216, Note_off_c, 0, 68, 62
1, 65241, Note_on_c, 0, 63, 56
1, 65259, Control_c, 0, 64, 64
1, 65367, Note_off_c, 0, 29, 55
1, 65386, Note_on_c, 0, 58, 55
1, 65393, Control_c, 0, 64, 65
1, 65423, Note_off_c, 0, 63, 57
1, 65544, Note_off_c, 0, 58, 55
1, 65565, Note_on_c, 0, 64, 43
1, 65587, Control_c, 0, 64, 64
1, 65601, Control_c, 0, 64, 63
1, 65616, Control_c, 0, 64, 62
1, 65631, Control_c, 0, 64, 60
1, 65646, Control_c, 0, 64, 59
1, 65661, Control_c, 0, 64, 58
1, 65722, Note_off_c, 0, 64, 37
1, 65729, Note_on_c, 0, 59, 41
1, 65888, Note_on_c, 0, 53, 43
1, 65890, Control_c, 0, 64, 58
1, 65891, Note_off_c, 0, 59, 57
1, 65920, Control_c, 0, 64, 57
1, 65935, Control_c, 0, 64, 57
1, 65950, Control_c, 0, 64, 56
1, 65964, Control_c, 0, 64, 55
1, 65979, Control_c, 0, 64, 53
1, 65994, Control_c, 0, 64, 51
1, 66008, Control_c, 0, 64, 48
1, 66023, Control_c, 0, 64, 41
1, 66038, Control_c, 0, 64, 26
1, 66053, Control_c, 0, 64, 0
1, 66083, Note_on_c, 0, 57, 32
1, 66088, Note_on_c, 0, 46, 28
1, 66103, Note_off_c, 0, 53, 36
1, 66186, Control_c, 0, 64, 13
1, 66202, Control_c, 0, 64, 36
1, 66217, Control_c, 0, 64, 47
1, 66231, Control_c, 0, 64, 53
1, 66246, Control_c, 0, 64, 56
1, 66261, Control_c, 0, 64, 60
1, 66276, Note_on_c, 0, 62, 22
1, 66276, Control_c, 0, 64, 63
1, 66279, Note_off_c, 0, 57, 39
1, 66291, Control_c, 0, 64, 65
1, 66296, Note_off_c, 0, 46, 45
1, 66306, Control_c, 0, 64, 67
1, 66321, Control_c, 0, 64, 69
1, 66335, Control_c, 0, 64, 71
1, 66350, Control_c, 0, 64, 74
1, 66365, Control_c, 0, 64, 76
1, 66380, Control_c, 0, 64, 77
1, 66395, Control_c, 0, 64, 79
1, 66410, Control_c, 0, 64, 79
1, 66423, Note_off_c, 0, 62, 39
1, 66453, Note_on_c, 0, 67, 26
1, 66454, Control_c, 0, 64, 80
1, 66592, Note_off_c, 0, 67, 43
1, 66602, Control_c, 0, 64, 79
1, 66612, Note_on_c, 0, 59, 46
1, 66624, Control_c, 0, 64, 79
1, 66634, Note_on_c, 0, 29, 37
1, 66639, Control_c, 0, 64, 76
1, 66654, Control_c, 0, 64, 72
1, 66669, Control_c, 0, 64, 66
1, 66684, Control_c, 0, 64, 59
1, 66699, Control_c, 0, 64, 58
1, 66713, Control_c, 0, 64, 60
1, 66728, Control_c, 0, 64, 62
1, 66743, Control_c, 0, 64, 64
1, 66757, Control_c, 0, 64, 66
1, 66772, Control_c, 0, 64, 69
1, 66787, Control_c, 0, 64, 71
1, 66791, Note_off_c, 0, 59, 52
1, 66802, Control_c, 0, 64, 74
1, 66803, Note_on_c, 0, 64, 42
1, 66817, Control_c, 0, 64, 75
1, 66831, Control_c, 0, 64, 76
1, 66886, Note_off_c, 0, 29, 45
1, 66891, Control_c, 0, 67, 127
1, 66905, Control_c, 0, 67, 126
1, 66920, Control_c, 0, 67, 126
1, 66922, Note_off_c, 0, 64, 62
1, 66935, Control_c, 0, 67, 125
1, 66949, Control_c, 0, 67, 124
1, 66957, Note_on_c, 0, 69, 49
1, 66979, Control_c, 0, 67, 124
1, 67054, Control_c, 0, 64, 75
1, 67084, Note_off_c, 0, 69, 64
1, 67084, Control_c, 0, 64, 75
1, 67099, Control_c, 0, 64, 74
1, 67112, Note_on_c, 0, 72, 55
1, 67128, Control_c, 0, 64, 73
1, 67131, Note_on_c, 0, 68, 47
1, 67143, Control_c, 0, 64, 73
1, 67158, Control_c, 0, 64, 71
1, 67173, Control_c, 0, 64, 70
1, 67188, Control_c, 0, 64, 69
1, 67203, Control_c, 0, 64, 68
1, 67218, Control_c, 0, 64, 68
1, 67218, Control_c, 0, 67, 124
1, 67233, Control_c, 0, 64, 67
1, 67246, Note_off_c, 0, 72, 51
1, 67247, Control_c, 0, 64, 67
1, 67262, Control_c, 0, 64, 66
1, 67262, Control_c, 0, 67, 125
1, 67266, Note_off_c, 0, 68, 54
1, 67277, Control_c, 0, 64, 66
1, 67292, Control_c, 0, 64, 65
1, 67292, Control_c, 0, 67, 125
1, 67296, Note_on_c, 0, 63, 52
1, 67307, Control_c, 0, 64, 65
1, 67321, Control_c, 0, 67, 126
1, 67336, Control_c, 0, 64, 64
1, 67336, Control_c, 0, 67, 126
1, 67351, Control_c, 0, 67, 127
1, 67373, Control_c, 0, 67, 127
1, 67388, Control_c, 0, 64, 64
1, 67444, Note_on_c, 0, 58, 59
1, 67446, Note_off_c, 0, 63, 61
1, 67447, Control_c, 0, 64, 63
1, 67507, Control_c, 0, 64, 63
1, 67551, Control_c, 0, 64, 62
1, 67566, Control_c, 0, 64, 62
1, 67595, Control_c, 0, 64, 61
1, 67607, Note_off_c, 0, 58, 56
1, 67610, Control_c, 0, 64, 61
1, 67616, Note_on_c, 0, 64, 50
1, 67625, Control_c, 0, 64, 60
1, 67654, Control_c, 0, 64, 60
1, 67669, Control_c, 0, 64, 59
1, 67684, Control_c, 0, 64, 59
1, 67699, Control_c, 0, 64, 58
1, 67714, Control_c, 0, 64, 57
1, 67728, Control_c, 0, 64, 57
1, 67743, Control_c, 0, 64, 56
1, 67754, Note_off_c, 0, 64, 50
1, 67758, Control_c, 0, 64, 55
1, 67772, Control_c, 0, 64, 54
1, 67785, Note_on_c, 0, 59, 44
1, 67787, Control_c, 0, 64, 54
1, 67803, Control_c, 0, 64, 53
1, 67818, Control_c, 0, 64, 52
1, 67833, Control_c, 0, 64, 51
1, 67848, Control_c, 0, 64, 51
1, 67863, Control_c, 0, 64, 50
1, 67877, Control_c, 0, 64, 49
1, 67892, Control_c, 0, 64, 48
1, 67907, Control_c, 0, 64, 47
1, 67922, Control_c, 0, 64, 45
1, 67937, Control_c, 0, 64, 42
1, 67938, Note_on_c, 0, 53, 43
1, 67945, Note_off_c, 0, 59, 58
1, 67951, Control_c, 0, 64, 39
1, 67966, Control_c, 0, 64, 34
1, 67981, Control_c, 0, 64, 26
1, 67996, Control_c, 0, 64, 0
1, 68138, Note_on_c, 0, 57, 40
1, 68140, Note_on_c, 0, 46, 37
1, 68166, Control_c, 0, 64, 14
1, 68181, Control_c, 0, 64, 28
1, 68183, Note_off_c, 0, 53, 38
1, 68196, Control_c, 0, 64, 39
1, 68210, Control_c, 0, 64, 47
1, 68225, Control_c, 0, 64, 54
1, 68240, Control_c, 0, 64, 59
1, 68255, Control_c, 0, 64, 62
1, 68270, Control_c, 0, 64, 64
1, 68285, Control_c, 0, 64, 67
1, 68295, Note_on_c, 0, 62, 44
1, 68300, Control_c, 0, 64, 71
1, 68308, Note_off_c, 0, 46, 56
1, 68315, Control_c, 0, 64, 76
1, 68329, Control_c, 0, 64, 80
1, 68344, Control_c, 0, 64, 83
1, 68359, Control_c, 0, 64, 86
1, 68369, Note_off_c, 0, 57, 31
1, 68374, Control_c, 0, 64, 89
1, 68389, Control_c, 0, 64, 92
1, 68403, Control_c, 0, 64, 95
1, 68418, Control_c, 0, 64, 98
1, 68433, Control_c, 0, 64, 99
1, 68434, Note_off_c, 0, 62, 59
1, 68448, Control_c, 0, 64, 100
1, 68455, Note_on_c, 0, 67, 49
1, 68463, Control_c, 0, 64, 100
1, 68597, Control_c, 0, 64, 98
1, 68603, Note_off_c, 0, 67, 50
1, 68612, Control_c, 0, 64, 91
1, 68617, Note_on_c, 0, 29, 44
1, 68617, Note_on_c, 0, 59, 54
1, 68626, Control_c, 0, 64, 80
1, 68641, Control_c, 0, 64, 67
1, 68656, Control_c, 0, 64, 51
1, 68671, Control_c, 0, 64, 33
1, 68686, Control_c, 0, 64, 37
1, 68700, Control_c, 0, 64, 45
1, 68715, Control_c, 0, 64, 53
1, 68728, Note_off_c, 0, 29, 58
1, 68730, Control_c, 0, 64, 60
1, 68745, Control_c, 0, 64, 64
1, 68760, Control_c, 0, 64, 69
1, 68774, Control_c, 0, 64, 73
1, 68780, Note_off_c, 0, 59, 54
1, 68781, Note_on_c, 0, 64, 57
1, 68789, Control_c, 0, 64, 79
1, 68789, Control_c, 0, 67, 127
1, 68804, Control_c, 0, 64, 83
1, 68819, Control_c, 0, 64, 87
1, 68833, Control_c, 0, 64, 91
1, 68833, Control_c, 0, 67, 126
1, 68848, Control_c, 0, 64, 96
1, 68871, Control_c, 0, 64, 100
1, 68886, Control_c, 0, 64, 104
1, 68900, Control_c, 0, 64, 108
1, 68915, Control_c, 0, 64, 110
1, 68930, Control_c, 0, 64, 112
1, 68940, Note_off_c, 0, 64, 60
1, 68944, Control_c, 0, 64, 113
1, 68947, Note_on_c, 0, 69, 64
1, 68959, Control_c, 0, 64, 114
1, 68974, Control_c, 0, 64, 115
1, 68989, Control_c, 0, 64, 115
1, 69004, Control_c, 0, 64, 116
1, 69018, Control_c, 0, 64, 117
1, 69018, Control_c, 0, 67, 127
1, 69078, Control_c, 0, 64, 115
1, 69078, Control_c, 0, 67, 127
1, 69093, Control_c, 0, 64, 104
1, 69105, Note_on_c, 0, 68, 52
1, 69108, Control_c, 0, 64, 88
1, 69108, Note_on_c, 0, 72, 60
1, 69116, Note_off_c, 0, 69, 54
1, 69123, Control_c, 0, 64, 72
1, 69137, Control_c, 0, 64, 57
1, 69152, Control_c, 0, 64, 41
1, 69167, Control_c, 0, 64, 47
1, 69182, Control_c, 0, 64, 53
1, 69197, Control_c, 0, 64, 59
1, 69212, Control_c, 0, 64, 63
1, 69226, Control_c, 0, 64, 68
1, 69226, Control_c, 0, 67, 127
1, 69231, Note_off_c, 0, 72, 62
1, 69241, Control_c, 0, 64, 75
1, 69241, Control_c, 0, 67, 126
1, 69256, Control_c, 0, 64, 82
1, 69256, Control_c, 0, 67, 125
1, 69266, Note_on_c, 0, 63, 57
1, 69271, Control_c, 0, 64, 89
1, 69271, Control_c, 0, 67, 124
1, 69286, Control_c, 0, 64, 94
1, 69286, Control_c, 0, 67, 122
1, 69300, Control_c, 0, 64, 99
1, 69300, Control_c, 0, 67, 120
1, 69303, Note_off_c, 0, 68, 39
1, 69315, Control_c, 0, 64, 106
1, 69315, Control_c, 0, 67, 116
1, 69330, Control_c, 0, 64, 114
1, 69330, Control_c, 0, 67, 113
1, 69344, Control_c, 0, 64, 127
1, 69344, Control_c, 0, 67, 109
1, 69359, Control_c, 0, 67, 105
1, 69374, Control_c, 0, 67, 102
1, 69389, Control_c, 0, 67, 98
1, 69400, Note_off_c, 0, 63, 61
1, 69405, Control_c, 0, 67, 95
1, 69412, Note_on_c, 0, 58, 59
1, 69420, Control_c, 0, 67, 92
1, 69435, Control_c, 0, 67, 89
1, 69449, Control_c, 0, 67, 86
1, 69464, Control_c, 0, 67, 85
1, 69479, Control_c, 0, 67, 83
1, 69494, Control_c, 0, 67, 83
1, 69509, Control_c, 0, 67, 82
1, 69523, Control_c, 0, 67, 82
1, 69553, Control_c, 0, 64, 112
1, 69553, Control_c, 0, 67, 81
1, 69567, Control_c, 0, 64, 92
1, 69580, Note_on_c, 0, 53, 49
1, 69580, Note_on_c, 0, 71, 55
1, 69582, Control_c, 0, 64, 75
1, 69591, Note_off_c, 0, 58, 48
1, 69597, Control_c, 0, 64, 62
1, 69612, Control_c, 0, 64, 51
1, 69635, Control_c, 0, 64, 55
1, 69649, Control_c, 0, 64, 60
1, 69664, Control_c, 0, 64, 64
1, 69679, Control_c, 0, 64, 68
1, 69686, Note_off_c, 0, 53, 64
1, 69694, Control_c, 0, 64, 75
1, 69709, Control_c, 0, 64, 83
1, 69723, Control_c, 0, 64, 93
1, 69738, Control_c, 0, 64, 99
1, 69738, Control_c, 0, 67, 82
1, 69753, Control_c, 0, 64, 104
1, 69754, Note_on_c, 0, 76, 62
1, 69768, Control_c, 0, 64, 112
1, 69773, Note_off_c, 0, 71, 52
1, 69782, Control_c, 0, 64, 127
1, 69782, Control_c, 0, 67, 82
1, 69797, Control_c, 0, 67, 83
1, 69812, Control_c, 0, 67, 83
1, 69827, Control_c, 0, 67, 84
1, 69841, Control_c, 0, 67, 84
1, 69856, Control_c, 0, 67, 85
1, 69886, Control_c, 0, 67, 85
1, 69904, Note_off_c, 0, 76, 58
1, 69909, Note_on_c, 0, 81, 59
1, 69930, Control_c, 0, 67, 86
1, 69945, Control_c, 0, 67, 86
1, 69960, Control_c, 0, 67, 87
1, 69975, Control_c, 0, 67, 87
1, 69990, Control_c, 0, 67, 88
1, 70005, Control_c, 0, 67, 88
1, 70020, Control_c, 0, 67, 89
1, 70035, Control_c, 0, 67, 90
1, 70049, Control_c, 0, 64, 108
1, 70049, Control_c, 0, 67, 91
1, 70064, Control_c, 0, 64, 88
1, 70064, Control_c, 0, 67, 93
1, 70068, Note_on_c, 0, 80, 50
1, 70079, Control_c, 0, 64, 70
1, 70079, Control_c, 0, 67, 98
1, 70085, Note_on_c, 0, 84, 52
1, 70091, Note_off_c, 0, 81, 52
1, 70094, Control_c, 0, 64, 42
1, 70094, Control_c, 0, 67, 104
1, 70109, Control_c, 0, 64, 0
1, 70109, Control_c, 0, 67, 109
1, 70123, Control_c, 0, 67, 114
1, 70138, Control_c, 0, 67, 119
1, 70153, Control_c, 0, 64, 28
1, 70153, Control_c, 0, 67, 124
1, 70168, Control_c, 0, 64, 48
1, 70168, Control_c, 0, 67, 126
1, 70175, Note_off_c, 0, 84, 63
1, 70183, Control_c, 0, 64, 59
1, 70183, Control_c, 0, 67, 127
1, 70199, Control_c, 0, 64, 64
1, 70214, Control_c, 0, 64, 68
1, 70217, Note_off_c, 0, 80, 51
1, 70228, Control_c, 0, 64, 72
1, 70230, Note_on_c, 0, 75, 55
1, 70243, Control_c, 0, 64, 79
1, 70258, Control_c, 0, 64, 85
1, 70273, Control_c, 0, 64, 91
1, 70288, Control_c, 0, 64, 95
1, 70303, Control_c, 0, 64, 99
1, 70303, Control_c, 0, 67, 127
1, 70318, Control_c, 0, 64, 103
1, 70318, Control_c, 0, 67, 126
1, 70333, Control_c, 0, 64, 107
1, 70347, Control_c, 0, 64, 110
1, 70347, Control_c, 0, 67, 125
1, 70362, Control_c, 0, 64, 113
1, 70384, Control_c, 0, 64, 113
1, 70387, Note_off_c, 0, 75, 57
1, 70398, Note_on_c, 0, 70, 54
1, 70398, Control_c, 0, 64, 114
1, 70473, Control_c, 0, 64, 114
1, 70488, Control_c, 0, 64, 115
1, 70533, Control_c, 0, 64, 114
1, 70547, Control_c, 0, 64, 114
1, 70562, Control_c, 0, 64, 106
1, 70563, Note_on_c, 0, 65, 51
1, 70577, Control_c, 0, 64, 91
1, 70580, Note_on_c, 0, 47, 48
1, 70592, Control_c, 0, 64, 77
1, 70606, Control_c, 0, 64, 67
1, 70606, Control_c, 0, 67, 125
1, 70618, Note_off_c, 0, 70, 39
1, 70621, Control_c, 0, 64, 61
1, 70636, Control_c, 0, 64, 63
1, 70636, Control_c, 0, 67, 124
1, 70651, Control_c, 0, 64, 66
1, 70651, Control_c, 0, 67, 124
1, 70661, Note_off_c, 0, 65, 60
1, 70665, Control_c, 0, 64, 69
1, 70665, Control_c, 0, 67, 123
1, 70680, Control_c, 0, 64, 74
1, 70680, Control_c, 0, 67, 123
1, 70695, Control_c, 0, 64, 81
1, 70710, Note_off_c, 0, 47, 62
1, 70710, Control_c, 0, 64, 88
1, 70710, Control_c, 0, 67, 122
1, 70724, Control_c, 0, 64, 94
1, 70724, Control_c, 0, 67, 122
1, 70738, Note_on_c, 0, 52, 54
1, 70739, Control_c, 0, 64, 99
1, 70754, Control_c, 0, 64, 102
1, 70769, Control_c, 0, 64, 106
1, 70784, Control_c, 0, 64, 109
1, 70798, Control_c, 0, 64, 110
1, 70876, Note_off_c, 0, 52, 55
1, 70902, Control_c, 0, 67, 122
1, 70910, Note_on_c, 0, 57, 51
1, 70932, Control_c, 0, 64, 110
1, 70932, Control_c, 0, 67, 123
1, 70947, Control_c, 0, 64, 109
1, 70962, Control_c, 0, 64, 108
1, 70962, Control_c, 0, 67, 123
1, 70977, Control_c, 0, 64, 107
1, 70992, Control_c, 0, 64, 105
1, 70992, Control_c, 0, 67, 124
1, 71007, Control_c, 0, 64, 103
1, 71021, Control_c, 0, 64, 100
1, 71021, Control_c, 0, 67, 124
1, 71036, Control_c, 0, 64, 97
1, 71036, Control_c, 0, 67, 125
1, 71039, Note_off_c, 0, 57, 0
1, 71051, Control_c, 0, 64, 92
1, 71051, Control_c, 0, 67, 125
1, 71060, Note_on_c, 0, 60, 51
1, 71063, Note_on_c, 0, 56, 46
1, 71066, Control_c, 0, 64, 86
1, 71066, Control_c, 0, 67, 127
1, 71078, Poly_aftertouch_c, 0, 57, 0
1, 71081, Control_c, 0, 64, 80
1, 71081, Control_c, 0, 67, 127
1, 71096, Control_c, 0, 64, 72
1, 71118, Control_c, 0, 64, 63
1, 71133, Control_c, 0, 64, 49
1, 71148, Control_c, 0, 64, 0
1, 71222, Note_off_c, 0, 56, 57
1, 71245, Note_on_c, 0, 51, 45
1, 71325, Control_c, 0, 64, 25
1, 71340, Control_c, 0, 64, 51
1, 71355, Control_c, 0, 64, 60
1, 71370, Control_c, 0, 64, 64
1, 71385, Control_c, 0, 64, 68
1, 71400, Control_c, 0, 64, 72
1, 71409, Note_on_c, 0, 46, 45
1, 71415, Control_c, 0, 64, 76
1, 71424, Note_off_c, 0, 60, 57
1, 71429, Control_c, 0, 64, 79
1, 71444, Control_c, 0, 64, 80
1, 71459, Control_c, 0, 64, 81
1, 71498, Note_off_c, 0, 51, 32
1, 71533, Control_c, 0, 64, 80
1, 71547, Control_c, 0, 64, 79
1, 71562, Control_c, 0, 64, 78
1, 71577, Control_c, 0, 64, 75
1, 71592, Control_c, 0, 64, 72
1, 71605, Note_on_c, 0, 51, 51
1, 71607, Control_c, 0, 64, 69
1, 71621, Control_c, 0, 64, 65
1, 71636, Control_c, 0, 64, 64
1, 71643, Note_off_c, 0, 46, 55
1, 71651, Control_c, 0, 64, 63
1, 71665, Control_c, 0, 64, 62
1, 71695, Control_c, 0, 64, 62
1, 71710, Control_c, 0, 64, 61
1, 71725, Control_c, 0, 64, 60
1, 71739, Control_c, 0, 64, 60
1, 71785, Control_c, 0, 64, 59
1, 71788, Note_on_c, 0, 56, 57
1, 71844, Control_c, 0, 67, 126
1, 71866, Control_c, 0, 67, 124
1, 71881, Control_c, 0, 67, 122
1, 71896, Control_c, 0, 67, 120
1, 71911, Control_c, 0, 67, 116
1, 71925, Control_c, 0, 67, 112
1, 71940, Control_c, 0, 67, 107
1, 71955, Control_c, 0, 67, 101
1, 71967, Note_on_c, 0, 60, 61
1, 71969, Control_c, 0, 67, 95
1, 71972, Note_off_c, 0, 51, 24
1, 71984, Control_c, 0, 67, 87
1, 71999, Control_c, 0, 67, 79
1, 72006, Note_off_c, 0, 56, 57
1, 72014, Control_c, 0, 67, 71
1, 72029, Control_c, 0, 67, 63
1, 72044, Control_c, 0, 67, 56
1, 72059, Control_c, 0, 67, 51
1, 72074, Control_c, 0, 67, 47
1, 72089, Control_c, 0, 67, 44
1, 72103, Control_c, 0, 67, 41
1, 72118, Control_c, 0, 67, 38
1, 72133, Control_c, 0, 67, 34
1, 72136, Note_on_c, 0, 56, 60
1, 72148, Control_c, 0, 67, 30
1, 72162, Control_c, 0, 67, 27
1, 72163, Note_off_c, 0, 60, 58
1, 72177, Control_c, 0, 67, 25
1, 72192, Control_c, 0, 67, 23
1, 72207, Control_c, 0, 67, 22
1, 72311, Note_on_c, 0, 51, 58
1, 72328, Note_off_c, 0, 56, 59
1, 72476, Note_on_c, 0, 46, 61
1, 72647, Note_on_c, 0, 42, 64
1, 72688, Note_off_c, 0, 51, 37
1, 72748, Control_c, 0, 64, 59
1, 72837, Control_c, 0, 67, 22
1, 72845, Note_on_c, 0, 37, 62
1, 72848, Note_off_c, 0, 46, 37
1, 72852, Control_c, 0, 67, 21
1, 72867, Control_c, 0, 64, 58
1, 73010, Note_on_c, 0, 32, 65
1, 73021, Note_off_c, 0, 42, 56
1, 73196, Note_on_c, 0, 34, 68
1, 73200, Note_off_c, 0, 37, 50
1, 73274, Note_off_c, 0, 32, 54
1, 73400, Note_on_c, 0, 29, 72
1, 73499, Note_off_c, 0, 34, 61
1, 73612, Note_on_c, 0, 31, 74
1, 73764, Control_c, 0, 64, 58
1, 73798, Note_off_c, 0, 29, 27
1, 73942, Control_c, 0, 64, 57
1, 73955, Note_on_c, 0, 45, 67
1, 73972, Control_c, 0, 64, 57
1, 73974, Note_on_c, 0, 33, 54
1, 73987, Control_c, 0, 64, 56
1, 74002, Control_c, 0, 64, 56
1, 74016, Control_c, 0, 64, 55
1, 74031, Control_c, 0, 64, 55
1, 74046, Control_c, 0, 64, 54
1, 74061, Control_c, 0, 64, 53
1, 74076, Control_c, 0, 64, 53
1, 74090, Control_c, 0, 64, 52
1, 74113, Control_c, 0, 64, 52
1, 74125, Note_off_c, 0, 31, 55
1, 74128, Control_c, 0, 64, 51
1, 74142, Control_c, 0, 64, 51
1, 74157, Control_c, 0, 64, 50
1, 74172, Control_c, 0, 64, 50
1, 74187, Control_c, 0, 64, 49
1, 74202, Control_c, 0, 64, 49
1, 74217, Control_c, 0, 64, 48
1, 74247, Control_c, 0, 64, 48
1, 74277, Control_c, 0, 64, 47
1, 74306, Note_on_c, 0, 47, 44
1, 74306, Control_c, 0, 64, 47
1, 74321, Control_c, 0, 64, 46
1, 74351, Control_c, 0, 64, 45
1, 74365, Control_c, 0, 64, 45
1, 74380, Control_c, 0, 64, 44
1, 74395, Control_c, 0, 64, 43
1, 74410, Control_c, 0, 64, 42
1, 74425, Control_c, 0, 64, 41
1, 74439, Control_c, 0, 64, 40
1, 74454, Control_c, 0, 64, 39
1, 74469, Control_c, 0, 64, 37
1, 74484, Control_c, 0, 64, 35
1, 74497, Note_on_c, 0, 49, 49
1, 74499, Control_c, 0, 64, 34
1, 74513, Control_c, 0, 64, 32
1, 74525, Note_off_c, 0, 47, 43
1, 74528, Control_c, 0, 64, 30
1, 74543, Control_c, 0, 64, 29
1, 74557, Control_c, 0, 64, 28
1, 74572, Control_c, 0, 64, 26
1, 74587, Control_c, 0, 64, 25
1, 74602, Control_c, 0, 64, 24
1, 74631, Control_c, 0, 64, 24
1, 74676, Note_on_c, 0, 48, 48
1, 74676, Control_c, 0, 64, 24
1, 74691, Control_c, 0, 64, 25
1, 74706, Control_c, 0, 64, 27
1, 74721, Control_c, 0, 64, 31
1, 74736, Control_c, 0, 64, 39
1, 74751, Control_c, 0, 64, 48
1, 74765, Control_c, 0, 64, 56
1, 74780, Control_c, 0, 64, 61
1, 74795, Control_c, 0, 64, 64
1, 74810, Control_c, 0, 64, 66
1, 74825, Control_c, 0, 64, 67
1, 74838, Note_on_c, 0, 46, 63
1, 74839, Control_c, 0, 64, 68
1, 74861, Control_c, 0, 64, 69
1, 74876, Control_c, 0, 67, 21
1, 74882, Note_off_c, 0, 45, 60
1, 74935, Control_c, 0, 64, 68
1, 74950, Control_c, 0, 64, 68
1, 74965, Control_c, 0, 64, 67
1, 74980, Control_c, 0, 64, 67
1, 74995, Control_c, 0, 64, 66
1, 74995, Control_c, 0, 67, 20
1, 75010, Note_on_c, 0, 45, 66
1, 75010, Control_c, 0, 64, 64
1, 75025, Control_c, 0, 64, 63
1, 75040, Control_c, 0, 64, 62
1, 75042, Note_off_c, 0, 46, 61
1, 75055, Control_c, 0, 64, 60
1, 75057, Note_off_c, 0, 48, 44
1, 75068, Note_off_c, 0, 49, 41
1, 75069, Control_c, 0, 64, 59
1, 75069, Control_c, 0, 67, 20
1, 75084, Control_c, 0, 64, 58
1, 75099, Control_c, 0, 64, 57
1, 75144, Control_c, 0, 64, 57
1, 75159, Control_c, 0, 64, 56
1, 75188, Control_c, 0, 67, 19
1, 75218, Note_on_c, 0, 47, 50
1, 75248, Control_c, 0, 64, 56
1, 75248, Control_c, 0, 67, 19
1, 75277, Control_c, 0, 64, 55
1, 75277, Control_c, 0, 67, 16
1, 75292, Control_c, 0, 67, 13
1, 75306, Control_c, 0, 64, 55
1, 75306, Control_c, 0, 67, 11
1, 75321, Control_c, 0, 64, 54
1, 75321, Control_c, 0, 67, 11
1, 75336, Control_c, 0, 64, 54
1, 75336, Control_c, 0, 67, 10
1, 75351, Control_c, 0, 64, 53
1, 75366, Control_c, 0, 67, 10
1, 75377, Note_on_c, 0, 49, 54
1, 75380, Control_c, 0, 64, 52
1, 75395, Control_c, 0, 64, 52
1, 75397, Note_off_c, 0, 47, 56
1, 75409, Control_c, 0, 64, 51
1, 75424, Control_c, 0, 64, 51
1, 75439, Control_c, 0, 64, 50
1, 75454, Control_c, 0, 64, 49
1, 75469, Control_c, 0, 64, 48
1, 75484, Control_c, 0, 64, 48
1, 75499, Control_c, 0, 64, 47
1, 75513, Control_c, 0, 64, 46
1, 75528, Control_c, 0, 64, 44
1, 75543, Control_c, 0, 64, 42
1, 75558, Control_c, 0, 64, 40
1, 75567, Note_on_c, 0, 48, 50
1, 75573, Control_c, 0, 64, 39
1, 75587, Control_c, 0, 64, 35
1, 75609, Control_c, 0, 64, 23
1, 75624, Control_c, 0, 64, 0
1, 75654, Control_c, 0, 67, 9
1, 75684, Control_c, 0, 67, 9
1, 75713, Control_c, 0, 67, 0
1, 75746, Note_on_c, 0, 46, 57
1, 75788, Control_c, 0, 64, 38
1, 75799, Note_off_c, 0, 45, 58
1, 75803, Control_c, 0, 64, 53
1, 75818, Control_c, 0, 64, 58
1, 75819, Note_off_c, 0, 49, 36
1, 75833, Control_c, 0, 64, 59
1, 75847, Control_c, 0, 64, 60
1, 75862, Control_c, 0, 64, 61
1, 75877, Control_c, 0, 64, 61
1, 75916, Note_on_c, 0, 45, 63
1, 75926, Note_off_c, 0, 48, 27
1, 75940, Note_off_c, 0, 46, 59
1, 76084, Control_c, 0, 64, 61
1, 76121, Note_on_c, 0, 47, 48
1, 76158, Control_c, 0, 64, 60
1, 76277, Note_off_c, 0, 47, 56
1, 76289, Note_on_c, 0, 49, 53
1, 76307, Control_c, 0, 64, 60
1, 76373, Control_c, 0, 64, 59
1, 76447, Control_c, 0, 64, 59
1, 76447, Control_c, 0, 67, 9
1, 76462, Control_c, 0, 67, 10
1, 76471, Note_on_c, 0, 51, 46
1, 76471, Note_off_c, 0, 49, 54
1, 76477, Control_c, 0, 64, 58
1, 76477, Control_c, 0, 67, 12
1, 76491, Control_c, 0, 64, 57
1, 76491, Control_c, 0, 67, 14
1, 76506, Control_c, 0, 64, 56
1, 76506, Control_c, 0, 67, 18
1, 76521, Control_c, 0, 64, 55
1, 76521, Control_c, 0, 67, 22
1, 76536, Control_c, 0, 64, 54
1, 76536, Control_c, 0, 67, 30
1, 76551, Control_c, 0, 64, 52
1, 76551, Control_c, 0, 67, 37
1, 76566, Control_c, 0, 64, 49
1, 76566, Control_c, 0, 67, 45
1, 76581, Control_c, 0, 64, 39
1, 76581, Control_c, 0, 67, 54
1, 76596, Control_c, 0, 64, 9
1, 76596, Control_c, 0, 67, 62
1, 76611, Control_c, 0, 64, 0
1, 76611, Control_c, 0, 67, 69
1, 76626, Control_c, 0, 67, 75
1, 76640, Note_on_c, 0, 48, 47
1, 76640, Control_c, 0, 67, 81
1, 76655, Control_c, 0, 67, 85
1, 76670, Control_c, 0, 67, 88
1, 76685, Control_c, 0, 67, 90
1, 76714, Note_off_c, 0, 51, 33
1, 76774, Control_c, 0, 64, 52
1, 76774, Control_c, 0, 67, 89
1, 76789, Control_c, 0, 64, 64
1, 76789, Control_c, 0, 67, 89
1, 76797, Note_off_c, 0, 33, 59
1, 76804, Control_c, 0, 64, 69
1, 76804, Control_c, 0, 67, 88
1, 76819, Control_c, 0, 64, 75
1, 76819, Control_c, 0, 67, 88
1, 76833, Control_c, 0, 64, 80
1, 76833, Control_c, 0, 67, 87
1, 76837, Note_on_c, 0, 46, 54
1, 76843, Note_off_c, 0, 48, 56
1, 76848, Control_c, 0, 64, 83
1, 76848, Control_c, 0, 67, 87
1, 76858, Note_off_c, 0, 45, 61
1, 76863, Control_c, 0, 64, 84
1, 76878, Control_c, 0, 64, 85
1, 76882, Note_off_c, 0, 46, 64
1, 76893, Control_c, 0, 67, 86
1, 76966, Control_c, 0, 64, 84
1, 76981, Control_c, 0, 64, 84
1, 77011, Control_c, 0, 64, 83
1, 77011, Control_c, 0, 67, 86
1, 77026, Control_c, 0, 64, 83
1, 77026, Control_c, 0, 67, 85
1, 77063, Note_on_c, 0, 33, 36
1, 77070, Control_c, 0, 67, 85
1, 77085, Control_c, 0, 64, 82
1, 77100, Control_c, 0, 67, 84
1, 77122, Control_c, 0, 64, 82
1, 77122, Control_c, 0, 67, 84
1, 77137, Control_c, 0, 64, 81
1, 77150, Note_on_c, 0, 57, 52
1, 77152, Control_c, 0, 64, 80
1, 77152, Control_c, 0, 67, 83
1, 77166, Control_c, 0, 64, 79
1, 77166, Control_c, 0, 67, 83
1, 77181, Control_c, 0, 64, 78
1, 77181, Control_c, 0, 67, 82
1, 77196, Control_c, 0, 64, 76
1, 77211, Control_c, 0, 64, 74
1, 77222, Note_on_c, 0, 69, 84
1, 77226, Control_c, 0, 64, 71
1, 77226, Control_c, 0, 67, 82
1, 77240, Control_c, 0, 64, 68
1, 77240, Control_c, 0, 67, 81
1, 77255, Control_c, 0, 64, 66
1, 77255, Control_c, 0, 67, 81
1, 77270, Control_c, 0, 64, 64
1, 77270, Control_c, 0, 67, 80
1, 77284, Control_c, 0, 64, 63
1, 77299, Control_c, 0, 64, 62
1, 77314, Control_c, 0, 64, 61
1, 77329, Control_c, 0, 64, 61
1, 77344, Control_c, 0, 64, 60
1, 77359, Control_c, 0, 64, 60
1, 77365, Note_off_c, 0, 33, 55
1, 77374, Control_c, 0, 64, 59
1, 77453, Note_on_c, 0, 47, 53
1, 77553, Control_c, 0, 67, 81
1, 77567, Control_c, 0, 64, 59
1, 77582, Control_c, 0, 64, 58
1, 77591, Note_off_c, 0, 47, 63
1, 77597, Control_c, 0, 64, 57
1, 77597, Control_c, 0, 67, 81
1, 77612, Control_c, 0, 64, 56
1, 77624, Note_on_c, 0, 68, 62
1, 77625, Note_on_c, 0, 49, 49
1, 77627, Control_c, 0, 64, 54
1, 77627, Control_c, 0, 67, 82
1, 77642, Control_c, 0, 64, 52
1, 77654, Note_off_c, 0, 68, 67
1, 77655, Control_c, 0, 64, 49
1, 77655, Control_c, 0, 67, 82
1, 77670, Control_c, 0, 64, 47
1, 77685, Control_c, 0, 64, 45
1, 77699, Control_c, 0, 64, 45
1, 77767, Note_off_c, 0, 49, 59
1, 77801, Note_on_c, 0, 48, 41
1, 77914, Control_c, 0, 67, 83
1, 77973, Note_on_c, 0, 46, 49
1, 77978, Note_on_c, 0, 68, 48
1, 78001, Note_off_c, 0, 68, 60
1, 78033, Control_c, 0, 64, 45
1, 78066, Note_off_c, 0, 48, 34
1, 78139, Note_off_c, 0, 46, 60
1, 78154, Note_on_c, 0, 45, 46
1, 78226, Control_c, 0, 67, 82
1, 78256, Control_c, 0, 67, 82
1, 78286, Control_c, 0, 67, 81
1, 78316, Control_c, 0, 67, 81
1, 78327, Note_on_c, 0, 47, 52
1, 78331, Note_off_c, 0, 45, 56
1, 78360, Control_c, 0, 67, 80
1, 78507, Note_on_c, 0, 49, 55
1, 78510, Note_on_c, 0, 68, 41
1, 78515, Note_off_c, 0, 47, 54
1, 78538, Note_off_c, 0, 68, 56
1, 78661, Note_off_c, 0, 49, 57
1, 78678, Control_c, 0, 64, 46
1, 78693, Control_c, 0, 64, 46
1, 78693, Control_c, 0, 67, 81
1, 78694, Note_on_c, 0, 48, 34
1, 78737, Control_c, 0, 64, 47
1, 78841, Control_c, 0, 64, 47
1, 78865, Note_on_c, 0, 46, 43
1, 78868, Note_on_c, 0, 68, 51
1, 78871, Control_c, 0, 64, 48
1, 78897, Note_off_c, 0, 68, 65
1, 78915, Control_c, 0, 64, 48
1, 78945, Control_c, 0, 64, 49
1, 78974, Control_c, 0, 67, 80
1, 78990, Control_c, 0, 64, 49
1, 78990, Control_c, 0, 67, 80
1, 79005, Control_c, 0, 67, 79
1, 79020, Control_c, 0, 64, 50
1, 79020, Control_c, 0, 67, 79
1, 79023, Note_off_c, 0, 46, 60
1, 79034, Note_on_c, 0, 45, 58
1, 79034, Control_c, 0, 67, 78
1, 79049, Control_c, 0, 64, 50
1, 79049, Control_c, 0, 67, 77
1, 79064, Control_c, 0, 67, 74
1, 79079, Control_c, 0, 67, 71
1, 79094, Control_c, 0, 64, 51
1, 79094, Control_c, 0, 67, 66
1, 79109, Control_c, 0, 64, 51
1, 79109, Control_c, 0, 67, 61
1, 79123, Control_c, 0, 67, 55
1, 79134, Note_off_c, 0, 48, 41
1, 79138, Control_c, 0, 64, 52
1, 79138, Control_c, 0, 67, 48
1, 79153, Control_c, 0, 67, 42
1, 79168, Control_c, 0, 64, 52
1, 79168, Control_c, 0, 67, 36
1, 79183, Control_c, 0, 67, 31
1, 79198, Control_c, 0, 64, 53
1, 79198, Control_c, 0, 67, 26
1, 79213, Control_c, 0, 64, 53
1, 79213, Control_c, 0, 67, 23
1, 79222, Note_on_c, 0, 68, 47
1, 79225, Note_on_c, 0, 47, 61
1, 79227, Control_c, 0, 64, 54
1, 79227, Control_c, 0, 67, 20
1, 79242, Control_c, 0, 64, 54
1, 79242, Control_c, 0, 67, 19
1, 79251, Note_off_c, 0, 68, 62
1, 79257, Control_c, 0, 67, 18
1, 79258, Note_off_c, 0, 45, 58
1, 79272, Control_c, 0, 67, 17
1, 79287, Control_c, 0, 64, 55
1, 79287, Control_c, 0, 67, 17
1, 79301, Control_c, 0, 64, 55
1, 79331, Control_c, 0, 64, 56
1, 79395, Note_on_c, 0, 49, 60
1, 79413, Control_c, 0, 64, 56
1, 79442, Control_c, 0, 64, 57
1, 79463, Note_off_c, 0, 47, 56
1, 79486, Control_c, 0, 64, 57
1, 79531, Control_c, 0, 64, 57
1, 79531, Control_c, 0, 67, 17
1, 79546, Control_c, 0, 64, 56
1, 79546, Control_c, 0, 67, 18
1, 79560, Control_c, 0, 64, 56
1, 79560, Control_c, 0, 67, 19
1, 79566, Note_on_c, 0, 51, 62
1, 79568, Note_on_c, 0, 68, 60
1, 79575, Control_c, 0, 64, 55
1, 79575, Control_c, 0, 67, 20
1, 79583, Note_off_c, 0, 49, 60
1, 79590, Control_c, 0, 64, 52
1, 79590, Control_c, 0, 67, 22
1, 79600, Note_off_c, 0, 68, 67
1, 79605, Control_c, 0, 64, 46
1, 79605, Control_c, 0, 67, 23
1, 79620, Control_c, 0, 64, 19
1, 79620, Control_c, 0, 67, 25
1, 79634, Control_c, 0, 64, 0
1, 79634, Control_c, 0, 67, 28
1, 79649, Control_c, 0, 67, 32
1, 79664, Control_c, 0, 67, 41
1, 79678, Control_c, 0, 67, 51
1, 79693, Control_c, 0, 67, 59
1, 79708, Control_c, 0, 67, 65
1, 79723, Control_c, 0, 67, 69
1, 79738, Control_c, 0, 67, 71
1, 79743, Note_on_c, 0, 48, 46
1, 79752, Control_c, 0, 67, 71
1, 79768, Note_off_c, 0, 51, 48
1, 79798, Control_c, 0, 67, 71
1, 79813, Control_c, 0, 64, 38
1, 79813, Control_c, 0, 67, 70
1, 79828, Control_c, 0, 64, 57
1, 79828, Control_c, 0, 67, 69
1, 79843, Control_c, 0, 64, 63
1, 79843, Control_c, 0, 67, 69
1, 79857, Control_c, 0, 64, 67
1, 79857, Control_c, 0, 67, 68
1, 79872, Control_c, 0, 64, 71
1, 79872, Control_c, 0, 67, 68
1, 79884, Note_off_c, 0, 48, 60
1, 79887, Control_c, 0, 64, 75
1, 79887, Control_c, 0, 67, 67
1, 79896, Note_on_c, 0, 46, 59
1, 79903, Control_c, 0, 64, 80
1, 79903, Control_c, 0, 67, 67
1, 79915, Note_on_c, 0, 67, 75
1, 79918, Control_c, 0, 64, 83
1, 79925, Note_off_c, 0, 46, 65
1, 79932, Control_c, 0, 64, 84
1, 79932, Control_c, 0, 67, 66
1, 79934, Note_off_c, 0, 69, 60
1, 79940, Note_off_c, 0, 57, 60
1, 79947, Control_c, 0, 64, 85
1, 79962, Control_c, 0, 64, 85
1, 79991, Control_c, 0, 64, 86
1, 80006, Control_c, 0, 67, 66
1, 80051, Control_c, 0, 64, 85
1, 80051, Control_c, 0, 67, 65
1, 80079, Note_on_c, 0, 57, 60
1, 80080, Control_c, 0, 64, 85
1, 80102, Control_c, 0, 64, 83
1, 80102, Control_c, 0, 67, 65
1, 80117, Control_c, 0, 64, 79
1, 80119, Note_on_c, 0, 33, 47
1, 80122, Note_on_c, 0, 69, 81
1, 80131, Note_off_c, 0, 67, 61
1, 80132, Control_c, 0, 64, 73
1, 80147, Control_c, 0, 64, 65
1, 80147, Control_c, 0, 67, 64
1, 80162, Control_c, 0, 64, 56
1, 80176, Control_c, 0, 64, 48
1, 80176, Control_c, 0, 67, 64
1, 80191, Control_c, 0, 64, 47
1, 80206, Control_c, 0, 64, 46
1, 80206, Control_c, 0, 67, 63
1, 80216, Note_off_c, 0, 33, 57
1, 80265, Control_c, 0, 67, 63
1, 80280, Control_c, 0, 64, 47
1, 80280, Control_c, 0, 67, 62
1, 80283, Note_on_c, 0, 47, 53
1, 80310, Control_c, 0, 64, 47
1, 80340, Control_c, 0, 64, 48
1, 80355, Control_c, 0, 64, 48
1, 80355, Control_c, 0, 67, 62
1, 80414, Control_c, 0, 67, 61
1, 80429, Control_c, 0, 67, 61
1, 80438, Note_off_c, 0, 47, 61
1, 80452, Note_on_c, 0, 49, 56
1, 80632, Note_off_c, 0, 49, 59
1, 80645, Note_on_c, 0, 51, 50
1, 80647, Note_on_c, 0, 68, 52
1, 80668, Note_off_c, 0, 68, 61
1, 80711, Control_c, 0, 67, 61
1, 80725, Control_c, 0, 67, 62
1, 80740, Control_c, 0, 64, 49
1, 80781, Note_off_c, 0, 51, 60
1, 80808, Note_on_c, 0, 48, 49
1, 80867, Control_c, 0, 64, 49
1, 80881, Control_c, 0, 67, 62
1, 80981, Note_on_c, 0, 68, 57
1, 80995, Note_off_c, 0, 48, 55
1, 80997, Note_on_c, 0, 46, 52
1, 80999, Control_c, 0, 67, 63
1, 81013, Note_off_c, 0, 68, 66
1, 81073, Control_c, 0, 67, 62
1, 81155, Note_off_c, 0, 46, 58
1, 81160, Note_on_c, 0, 45, 56
1, 81192, Control_c, 0, 64, 50
1, 81222, Control_c, 0, 67, 62
1, 81237, Control_c, 0, 64, 50
1, 81251, Control_c, 0, 67, 61
1, 81266, Control_c, 0, 64, 51
1, 81266, Control_c, 0, 67, 61
1, 81281, Control_c, 0, 64, 51
1, 81281, Control_c, 0, 67, 60
1, 81296, Control_c, 0, 67, 60
1, 81311, Control_c, 0, 64, 52
1, 81311, Control_c, 0, 67, 59
1, 81325, Control_c, 0, 64, 52
1, 81325, Control_c, 0, 67, 56
1, 81329, Note_on_c, 0, 68, 52
1, 81337, Note_on_c, 0, 47, 57
1, 81340, Control_c, 0, 64, 53
1, 81340, Control_c, 0, 67, 53
1, 81355, Control_c, 0, 64, 53
1, 81355, Control_c, 0, 67, 51
1, 81362, Note_off_c, 0, 45, 53
1, 81366, Note_off_c, 0, 68, 66
1, 81370, Control_c, 0, 64, 54
1, 81370, Control_c, 0, 67, 48
1, 81386, Control_c, 0, 67, 47
1, 81401, Control_c, 0, 64, 54
1, 81401, Control_c, 0, 67, 44
1, 81416, Control_c, 0, 67, 42
1, 81430, Control_c, 0, 64, 55
1, 81430, Control_c, 0, 67, 41
1, 81445, Control_c, 0, 67, 39
1, 81460, Control_c, 0, 64, 55
1, 81460, Control_c, 0, 67, 38
1, 81475, Control_c, 0, 67, 37
1, 81490, Control_c, 0, 67, 36
1, 81504, Control_c, 0, 64, 56
1, 81504, Control_c, 0, 67, 35
1, 81507, Note_on_c, 0, 49, 70
1, 81519, Control_c, 0, 67, 34
1, 81534, Control_c, 0, 67, 33
1, 81563, Control_c, 0, 64, 56
1, 81563, Control_c, 0, 67, 32
1, 81578, Note_off_c, 0, 47, 58
1, 81630, Control_c, 0, 67, 33
1, 81660, Control_c, 0, 67, 33
1, 81688, Note_on_c, 0, 51, 68
1, 81689, Control_c, 0, 67, 34
1, 81704, Control_c, 0, 67, 34
1, 81719, Control_c, 0, 67, 35
1, 81734, Control_c, 0, 67, 35
1, 81740, Note_off_c, 0, 49, 58
1, 81748, Control_c, 0, 64, 57
1, 81748, Control_c, 0, 67, 36
1, 81763, Control_c, 0, 67, 37
1, 81778, Control_c, 0, 67, 38
1, 81793, Control_c, 0, 67, 39
1, 81808, Control_c, 0, 67, 41
1, 81823, Control_c, 0, 64, 56
1, 81823, Control_c, 0, 67, 43
1, 81837, Control_c, 0, 64, 56
1, 81837, Control_c, 0, 67, 46
1, 81850, Note_off_c, 0, 51, 60
1, 81852, Control_c, 0, 64, 54
1, 81852, Control_c, 0, 67, 53
1, 81864, Note_on_c, 0, 68, 47
1, 81866, Note_on_c, 0, 54, 56
1, 81867, Control_c, 0, 64, 51
1, 81867, Control_c, 0, 67, 62
1, 81881, Control_c, 0, 64, 42
1, 81881, Control_c, 0, 67, 71
1, 81891, Note_off_c, 0, 68, 56
1, 81896, Control_c, 0, 64, 0
1, 81896, Control_c, 0, 67, 81
1, 81911, Control_c, 0, 67, 89
1, 81926, Control_c, 0, 67, 96
1, 81941, Control_c, 0, 67, 100
1, 81955, Control_c, 0, 67, 102
1, 81970, Control_c, 0, 67, 102
1, 82015, Control_c, 0, 67, 101
1, 82024, Note_off_c, 0, 54, 58
1, 82030, Control_c, 0, 64, 23
1, 82030, Control_c, 0, 67, 100
1, 82039, Note_on_c, 0, 48, 48
1, 82045, Control_c, 0, 64, 50
1, 82045, Control_c, 0, 67, 99
1, 82060, Control_c, 0, 64, 62
1, 82060, Control_c, 0, 67, 98
1, 82069, Note_off_c, 0, 57, 62
1, 82074, Control_c, 0, 64, 66
1, 82074, Control_c, 0, 67, 98
1, 82077, Note_off_c, 0, 69, 65
1, 82089, Control_c, 0, 64, 70
1, 82089, Control_c, 0, 67, 97
1, 82104, Control_c, 0, 64, 74
1, 82104, Control_c, 0, 67, 96
1, 82119, Control_c, 0, 64, 78
1, 82119, Control_c, 0, 67, 96
1, 82134, Control_c, 0, 64, 80
1, 82134, Control_c, 0, 67, 95
1, 82147, Control_c, 0, 64, 81
1, 82162, Control_c, 0, 67, 95
1, 82208, Control_c, 0, 67, 94
1, 82214, Note_on_c, 0, 74, 74
1, 82221, Note_on_c, 0, 46, 51
1, 82223, Control_c, 0, 67, 94
1, 82238, Control_c, 0, 67, 93
1, 82247, Note_off_c, 0, 48, 35
1, 82252, Control_c, 0, 67, 92
1, 82256, Note_off_c, 0, 74, 66
1, 82267, Control_c, 0, 67, 92
1, 82282, Control_c, 0, 67, 91
1, 82296, Control_c, 0, 67, 90
1, 82311, Control_c, 0, 67, 88
1, 82326, Control_c, 0, 67, 85
1, 82349, Control_c, 0, 67, 82
1, 82364, Control_c, 0, 67, 79
1, 82378, Control_c, 0, 67, 75
1, 82393, Control_c, 0, 67, 71
1, 82408, Control_c, 0, 67, 68
1, 82423, Control_c, 0, 67, 63
1, 82438, Control_c, 0, 67, 59
1, 82442, Note_on_c, 0, 57, 40
1, 82452, Control_c, 0, 64, 80
1, 82452, Control_c, 0, 67, 56
1, 82462, Note_on_c, 0, 45, 44
1, 82465, Note_off_c, 0, 46, 37
1, 82467, Control_c, 0, 64, 80
1, 82467, Control_c, 0, 67, 52
1, 82471, Note_off_c, 0, 57, 50
1, 82482, Control_c, 0, 67, 48
1, 82496, Control_c, 0, 64, 79
1, 82496, Control_c, 0, 67, 43
1, 82511, Control_c, 0, 64, 79
1, 82511, Control_c, 0, 67, 37
1, 82526, Control_c, 0, 64, 78
1, 82526, Control_c, 0, 67, 33
1, 82534, Note_on_c, 0, 72, 72
1, 82541, Control_c, 0, 64, 77
1, 82541, Control_c, 0, 67, 29
1, 82556, Control_c, 0, 64, 76
1, 82556, Control_c, 0, 67, 25
1, 82571, Control_c, 0, 64, 74
1, 82571, Control_c, 0, 67, 22
1, 82585, Control_c, 0, 64, 73
1, 82585, Control_c, 0, 67, 18
1, 82600, Control_c, 0, 64, 72
1, 82600, Control_c, 0, 67, 15
1, 82615, Control_c, 0, 64, 70
1, 82615, Control_c, 0, 67, 11
1, 82630, Control_c, 0, 64, 69
1, 82630, Control_c, 0, 67, 8
1, 82645, Control_c, 0, 64, 68
1, 82645, Control_c, 0, 67, 0
1, 82659, Control_c, 0, 64, 67
1, 82674, Control_c, 0, 64, 66
1, 82689, Control_c, 0, 64, 66
1, 82704, Control_c, 0, 64, 65
1, 82718, Control_c, 0, 64, 65
1, 82723, Note_on_c, 0, 70, 74
1, 82730, Note_on_c, 0, 47, 48
1, 82760, Note_off_c, 0, 45, 36
1, 82763, Control_c, 0, 64, 64
1, 82793, Control_c, 0, 64, 64
1, 82823, Control_c, 0, 64, 63
1, 82852, Control_c, 0, 64, 62
1, 82867, Control_c, 0, 64, 62
1, 82869, Note_off_c, 0, 72, 62
1, 82882, Control_c, 0, 64, 61
1, 82885, Note_on_c, 0, 69, 82
1, 82888, Note_on_c, 0, 49, 64
1, 82897, Control_c, 0, 64, 60
1, 82906, Note_off_c, 0, 47, 53
1, 82912, Control_c, 0, 64, 59
1, 82927, Control_c, 0, 64, 58
1, 83051, Note_on_c, 0, 67, 78
1, 83060, Note_on_c, 0, 51, 60
1, 83140, Note_off_c, 0, 49, 37
1, 83144, Note_off_c, 0, 70, 23
1, 83160, Note_off_c, 0, 69, 54
1, 83216, Control_c, 0, 64, 58
1, 83222, Note_off_c, 0, 51, 59
1, 83236, Note_on_c, 0, 65, 80
1, 83237, Note_on_c, 0, 50, 51
1, 83246, Control_c, 0, 64, 57
1, 83276, Control_c, 0, 64, 57
1, 83291, Control_c, 0, 64, 56
1, 83306, Control_c, 0, 64, 56
1, 83320, Control_c, 0, 64, 55
1, 83335, Control_c, 0, 64, 54
1, 83344, Note_off_c, 0, 67, 55
1, 83350, Control_c, 0, 64, 52
1, 83365, Control_c, 0, 64, 49
1, 83380, Control_c, 0, 64, 39
1, 83395, Control_c, 0, 64, 0
1, 83399, Note_on_c, 0, 48, 58
1, 83407, Note_off_c, 0, 50, 57
1, 83560, Note_off_c, 0, 48, 62
1, 83568, Note_on_c, 0, 46, 55
1, 83571, Note_on_c, 0, 67, 70
1, 83572, Control_c, 0, 64, 32
1, 83587, Control_c, 0, 64, 52
1, 83601, Note_off_c, 0, 46, 65
1, 83601, Control_c, 0, 64, 62
1, 83616, Control_c, 0, 64, 68
1, 83625, Note_off_c, 0, 65, 59
1, 83631, Control_c, 0, 64, 73
1, 83646, Control_c, 0, 64, 77
1, 83660, Control_c, 0, 64, 80
1, 83675, Control_c, 0, 64, 82
1, 83753, Note_on_c, 0, 66, 80
1, 83758, Note_on_c, 0, 33, 46
1, 83765, Note_off_c, 0, 67, 62
1, 83804, Note_off_c, 0, 66, 62
1, 83888, Note_off_c, 0, 33, 59
1, 83936, Control_c, 0, 64, 81
1, 83950, Control_c, 0, 64, 80
1, 83956, Note_on_c, 0, 62, 61
1, 83961, Note_on_c, 0, 50, 58
1, 83965, Control_c, 0, 64, 78
1, 83969, Note_on_c, 0, 47, 49
1, 83980, Control_c, 0, 64, 75
1, 83995, Control_c, 0, 64, 70
1, 84010, Control_c, 0, 64, 66
1, 84024, Control_c, 0, 64, 62
1, 84039, Control_c, 0, 64, 58
1, 84054, Control_c, 0, 64, 55
1, 84069, Control_c, 0, 64, 54
1, 84084, Control_c, 0, 64, 52
1, 84099, Control_c, 0, 64, 52
1, 84108, Note_off_c, 0, 47, 63
1, 84134, Note_on_c, 0, 49, 56
1, 84203, Control_c, 0, 64, 52
1, 84284, Note_off_c, 0, 49, 55
1, 84298, Note_on_c, 0, 48, 43
1, 84467, Note_on_c, 0, 46, 47
1, 84588, Control_c, 0, 64, 53
1, 84642, Note_off_c, 0, 48, 28
1, 84653, Note_off_c, 0, 46, 56
1, 84658, Note_on_c, 0, 45, 47
1, 84814, Note_on_c, 0, 47, 54
1, 84820, Note_off_c, 0, 45, 55
1, 84833, Control_c, 0, 64, 53
1, 84892, Control_c, 0, 64, 54
1, 84966, Control_c, 0, 64, 54
1, 84989, Note_on_c, 0, 49, 55
1, 85000, Note_off_c, 0, 47, 54
1, 85026, Control_c, 0, 64, 55
1, 85129, Control_c, 0, 64, 55
1, 85142, Note_off_c, 0, 49, 53
1, 85162, Note_on_c, 0, 48, 32
1, 85233, Control_c, 0, 64, 56
1, 85321, Control_c, 0, 64, 56
1, 85350, Note_on_c, 0, 46, 40
1, 85359, Control_c, 0, 64, 57
1, 85404, Control_c, 0, 64, 57
1, 85464, Control_c, 0, 64, 58
1, 85519, Note_on_c, 0, 45, 52
1, 85521, Note_off_c, 0, 46, 53
1, 85522, Note_off_c, 0, 48, 36
1, 85626, Control_c, 0, 64, 58
1, 85700, Control_c, 0, 64, 59
1, 85717, Note_on_c, 0, 47, 54
1, 85764, Note_off_c, 0, 45, 60
1, 85848, Control_c, 0, 64, 58
1, 85863, Control_c, 0, 64, 58
1, 85878, Note_on_c, 0, 49, 65
1, 85878, Control_c, 0, 64, 57
1, 85878, Control_c, 0, 67, 9
1, 85892, Control_c, 0, 64, 54
1, 85892, Control_c, 0, 67, 12
1, 85907, Control_c, 0, 64, 49
1, 85907, Control_c, 0, 67, 16
1, 85908, Note_off_c, 0, 47, 60
1, 85921, Control_c, 0, 64, 38
1, 85921, Control_c, 0, 67, 23
1, 85936, Control_c, 0, 64, 0
1, 85936, Control_c, 0, 67, 33
1, 85951, Control_c, 0, 67, 47
1, 85966, Control_c, 0, 67, 58
1, 85981, Control_c, 0, 67, 66
1, 85995, Control_c, 0, 67, 71
1, 86010, Control_c, 0, 67, 75
1, 86019, Note_off_c, 0, 50, 65
1, 86025, Control_c, 0, 67, 77
1, 86039, Control_c, 0, 67, 80
1, 86045, Note_off_c, 0, 49, 63
1, 86048, Note_on_c, 0, 51, 60
1, 86054, Control_c, 0, 67, 81
1, 86069, Control_c, 0, 67, 82
1, 86092, Control_c, 0, 67, 83
1, 86107, Note_off_c, 0, 62, 62
1, 86167, Control_c, 0, 64, 26
1, 86182, Control_c, 0, 64, 43
1, 86197, Control_c, 0, 64, 52
1, 86212, Control_c, 0, 64, 56
1, 86212, Control_c, 0, 67, 82
1, 86226, Control_c, 0, 64, 60
1, 86226, Control_c, 0, 67, 81
1, 86236, Note_on_c, 0, 48, 49
1, 86241, Control_c, 0, 64, 63
1, 86241, Control_c, 0, 67, 80
1, 86256, Control_c, 0, 64, 65
1, 86256, Control_c, 0, 67, 79
1, 86271, Control_c, 0, 64, 68
1, 86271, Control_c, 0, 67, 78
1, 86286, Control_c, 0, 64, 71
1, 86286, Control_c, 0, 67, 77
1, 86290, Note_off_c, 0, 51, 35
1, 86300, Control_c, 0, 64, 73
1, 86300, Control_c, 0, 67, 76
1, 86315, Control_c, 0, 64, 74
1, 86315, Control_c, 0, 67, 75
1, 86330, Control_c, 0, 67, 75
1, 86344, Control_c, 0, 64, 75
1, 86344, Control_c, 0, 67, 74
1, 86362, Note_off_c, 0, 48, 62
1, 86374, Control_c, 0, 67, 74
1, 86383, Note_on_c, 0, 46, 47
1, 86389, Control_c, 0, 67, 73
1, 86392, Note_on_c, 0, 67, 70
1, 86404, Control_c, 0, 67, 73
1, 86412, Note_off_c, 0, 46, 59
1, 86418, Control_c, 0, 67, 72
1, 86433, Control_c, 0, 67, 70
1, 86448, Control_c, 0, 67, 68
1, 86463, Control_c, 0, 67, 63
1, 86477, Control_c, 0, 67, 56
1, 86492, Control_c, 0, 67, 49
1, 86507, Control_c, 0, 67, 41
1, 86522, Control_c, 0, 67, 34
1, 86537, Control_c, 0, 67, 27
1, 86552, Control_c, 0, 64, 74
1, 86552, Control_c, 0, 67, 20
1, 86567, Control_c, 0, 67, 14
1, 86567, Note_on_c, 0, 65, 68
1, 86569, Note_on_c, 0, 33, 47
1, 86582, Control_c, 0, 64, 74
1, 86582, Control_c, 0, 67, 8
1, 86597, Control_c, 0, 67, 0
1, 86612, Control_c, 0, 64, 73
1, 86626, Control_c, 0, 64, 73
1, 86641, Control_c, 0, 64, 71
1, 86656, Control_c, 0, 64, 70
1, 86671, Control_c, 0, 64, 67
1, 86683, Note_off_c, 0, 33, 59
1, 86686, Control_c, 0, 64, 65
1, 86701, Control_c, 0, 64, 62
1, 86716, Control_c, 0, 64, 59
1, 86728, Note_off_c, 0, 67, 56
1, 86731, Control_c, 0, 64, 54
1, 86740, Note_on_c, 0, 47, 54
1, 86745, Control_c, 0, 64, 42
1, 86746, Note_on_c, 0, 64, 74
1, 86760, Control_c, 0, 64, 19
1, 86775, Control_c, 0, 64, 0
1, 86817, Note_off_c, 0, 65, 61
1, 86902, Note_off_c, 0, 47, 64
1, 86913, Note_on_c, 0, 49, 61
1, 86960, Control_c, 0, 64, 32
1, 86975, Control_c, 0, 64, 52
1, 86990, Control_c, 0, 64, 60
1, 87005, Control_c, 0, 64, 64
1, 87020, Control_c, 0, 64, 67
1, 87035, Control_c, 0, 64, 71
1, 87050, Control_c, 0, 64, 75
1, 87065, Control_c, 0, 64, 80
1, 87080, Control_c, 0, 64, 82
1, 87093, Note_on_c, 0, 66, 82
1, 87094, Control_c, 0, 64, 83
1, 87094, Note_off_c, 0, 64, 66
1, 87098, Note_on_c, 0, 51, 61
1, 87109, Control_c, 0, 64, 84
1, 87146, Note_off_c, 0, 66, 64
1, 87154, Note_off_c, 0, 49, 37
1, 87228, Control_c, 0, 64, 83
1, 87242, Control_c, 0, 64, 82
1, 87257, Control_c, 0, 64, 81
1, 87264, Note_off_c, 0, 51, 56
1, 87272, Control_c, 0, 64, 80
1, 87287, Control_c, 0, 64, 78
1, 87291, Note_on_c, 0, 62, 75
1, 87292, Note_on_c, 0, 48, 46
1, 87301, Control_c, 0, 64, 75
1, 87315, Note_on_c, 0, 50, 51
1, 87316, Control_c, 0, 64, 71
1, 87331, Control_c, 0, 64, 68
1, 87346, Control_c, 0, 64, 65
1, 87361, Control_c, 0, 64, 63
1, 87375, Control_c, 0, 64, 62
1, 87390, Control_c, 0, 64, 61
1, 87405, Control_c, 0, 64, 60
1, 87420, Control_c, 0, 64, 59
1, 87440, Note_on_c, 0, 46, 52
1, 87464, Control_c, 0, 64, 59
1, 87559, Note_off_c, 0, 48, 37
1, 87568, Control_c, 0, 64, 58
1, 87627, Note_on_c, 0, 45, 50
1, 87629, Note_off_c, 0, 46, 57
1, 87738, Control_c, 0, 64, 58
1, 87804, Note_on_c, 0, 47, 54
1, 87812, Note_off_c, 0, 45, 57
1, 87962, Note_on_c, 0, 49, 55
1, 88025, Note_off_c, 0, 47, 35
1, 88137, Note_off_c, 0, 49, 48
1, 88140, Note_on_c, 0, 48, 35
1, 88317, Note_on_c, 0, 46, 45
1, 88412, Note_off_c, 0, 48, 37
1, 88483, Note_off_c, 0, 46, 60
1, 88513, Note_on_c, 0, 45, 44
1, 88531, Control_c, 0, 64, 58
1, 88689, Note_on_c, 0, 47, 54
1, 88707, Note_off_c, 0, 45, 42
1, 88800, Control_c, 0, 64, 59
1, 88854, Note_on_c, 0, 49, 64
1, 88873, Note_off_c, 0, 47, 58
1, 89017, Note_on_c, 0, 51, 62
1, 89037, Note_off_c, 0, 49, 57
1, 89192, Control_c, 0, 67, 8
1, 89193, Note_off_c, 0, 51, 59
1, 89197, Note_on_c, 0, 54, 54
1, 89207, Control_c, 0, 64, 58
1, 89207, Control_c, 0, 67, 9
1, 89221, Control_c, 0, 67, 11
1, 89236, Control_c, 0, 64, 58
1, 89236, Control_c, 0, 67, 12
1, 89251, Control_c, 0, 64, 57
1, 89251, Control_c, 0, 67, 14
1, 89265, Control_c, 0, 67, 17
1, 89280, Control_c, 0, 64, 57
1, 89280, Control_c, 0, 67, 21
1, 89295, Control_c, 0, 64, 56
1, 89295, Control_c, 0, 67, 28
1, 89310, Control_c, 0, 64, 56
1, 89310, Control_c, 0, 67, 36
1, 89325, Control_c, 0, 64, 55
1, 89325, Control_c, 0, 67, 47
1, 89339, Control_c, 0, 64, 54
1, 89339, Control_c, 0, 67, 58
1, 89354, Control_c, 0, 64, 53
1, 89354, Control_c, 0, 67, 67
1, 89370, Control_c, 0, 64, 51
1, 89370, Control_c, 0, 67, 74
1, 89375, Note_on_c, 0, 48, 50
1, 89385, Control_c, 0, 64, 49
1, 89385, Control_c, 0, 67, 81
1, 89400, Control_c, 0, 64, 46
1, 89400, Control_c, 0, 67, 89
1, 89406, Note_off_c, 0, 54, 51
1, 89415, Control_c, 0, 64, 41
1, 89415, Control_c, 0, 67, 94
1, 89430, Control_c, 0, 64, 31
1, 89430, Control_c, 0, 67, 99
1, 89444, Control_c, 0, 64, 0
1, 89444, Control_c, 0, 67, 103
1, 89459, Control_c, 0, 67, 107
1, 89474, Control_c, 0, 67, 109
1, 89488, Control_c, 0, 67, 112
1, 89503, Control_c, 0, 67, 113
1, 89554, Note_off_c, 0, 48, 53
1, 89563, Note_on_c, 0, 46, 49
1, 89622, Control_c, 0, 67, 112
1, 89636, Control_c, 0, 67, 112
1, 89651, Control_c, 0, 64, 47
1, 89651, Control_c, 0, 67, 111
1, 89666, Control_c, 0, 64, 60
1, 89680, Control_c, 0, 64, 65
1, 89695, Control_c, 0, 64, 68
1, 89695, Control_c, 0, 67, 111
1, 89710, Control_c, 0, 64, 71
1, 89725, Control_c, 0, 64, 73
1, 89740, Control_c, 0, 64, 75
1, 89740, Control_c, 0, 67, 110
1, 89741, Note_off_c, 0, 50, 65
1, 89754, Control_c, 0, 64, 75
1, 89759, Note_off_c, 0, 46, 49
1, 89769, Note_on_c, 0, 45, 48
1, 89799, Control_c, 0, 64, 76
1, 89817, Note_off_c, 0, 62, 61
1, 90013, Control_c, 0, 64, 75
1, 90031, Note_on_c, 0, 71, 59
1, 90040, Note_on_c, 0, 47, 44
1, 90043, Control_c, 0, 64, 75
1, 90054, Note_off_c, 0, 45, 34
1, 90058, Control_c, 0, 64, 74
1, 90058, Control_c, 0, 67, 110
1, 90073, Control_c, 0, 64, 74
1, 90073, Control_c, 0, 67, 109
1, 90087, Control_c, 0, 64, 73
1, 90102, Control_c, 0, 64, 72
1, 90102, Control_c, 0, 67, 108
1, 90117, Control_c, 0, 64, 71
1, 90117, Control_c, 0, 67, 108
1, 90132, Control_c, 0, 64, 70
1, 90132, Control_c, 0, 67, 107
1, 90147, Control_c, 0, 64, 69
1, 90147, Control_c, 0, 67, 106
1, 90163, Control_c, 0, 64, 68
1, 90163, Control_c, 0, 67, 105
1, 90178, Control_c, 0, 64, 68
1, 90178, Control_c, 0, 67, 104
1, 90192, Control_c, 0, 64, 67
1, 90192, Control_c, 0, 67, 103
1, 90207, Control_c, 0, 64, 67
1, 90207, Control_c, 0, 67, 102
1, 90222, Control_c, 0, 64, 66
1, 90222, Control_c, 0, 67, 101
1, 90237, Control_c, 0, 64, 66
1, 90237, Control_c, 0, 67, 98
1, 90241, Note_on_c, 0, 69, 64
1, 90248, Note_on_c, 0, 49, 59
1, 90252, Control_c, 0, 67, 95
1, 90266, Control_c, 0, 64, 65
1, 90266, Control_c, 0, 67, 91
1, 90281, Control_c, 0, 67, 86
1, 90293, Note_off_c, 0, 47, 49
1, 90296, Control_c, 0, 64, 65
1, 90296, Control_c, 0, 67, 79
1, 90311, Control_c, 0, 67, 73
1, 90326, Control_c, 0, 67, 66
1, 90341, Control_c, 0, 67, 59
1, 90356, Control_c, 0, 67, 52
1, 90370, Control_c, 0, 67, 46
1, 90385, Control_c, 0, 67, 38
1, 90399, Note_off_c, 0, 71, 57
1, 90400, Control_c, 0, 67, 33
1, 90410, Note_on_c, 0, 67, 74
1, 90415, Control_c, 0, 67, 27
1, 90430, Control_c, 0, 67, 23
1, 90445, Note_on_c, 0, 51, 56
1, 90445, Control_c, 0, 67, 18
1, 90459, Control_c, 0, 67, 13
1, 90474, Control_c, 0, 67, 0
1, 90583, Note_off_c, 0, 49, 36
1, 90594, Note_on_c, 0, 50, 57
1, 90594, Note_on_c, 0, 65, 78
1, 90595, Note_off_c, 0, 51, 60
1, 90614, Note_off_c, 0, 69, 36
1, 90659, Control_c, 0, 64, 64
1, 90674, Control_c, 0, 64, 61
1, 90685, Note_off_c, 0, 67, 53
1, 90689, Control_c, 0, 64, 52
1, 90704, Control_c, 0, 64, 24
1, 90718, Control_c, 0, 64, 0
1, 90756, Note_on_c, 0, 48, 60
1, 90761, Note_off_c, 0, 50, 60
1, 90764, Note_on_c, 0, 64, 78
1, 90783, Note_off_c, 0, 65, 64
1, 90851, Control_c, 0, 64, 18
1, 90866, Control_c, 0, 64, 50
1, 90881, Control_c, 0, 64, 63
1, 90896, Control_c, 0, 64, 69
1, 90910, Control_c, 0, 64, 76
1, 90925, Note_off_c, 0, 48, 62
1, 90925, Control_c, 0, 64, 84
1, 90926, Note_on_c, 0, 66, 87
1, 90928, Note_on_c, 0, 46, 58
1, 90940, Control_c, 0, 64, 86
1, 90946, Note_off_c, 0, 64, 65
1, 90955, Control_c, 0, 64, 87
1, 90981, Note_off_c, 0, 66, 64
1, 91074, Control_c, 0, 64, 86
1, 91089, Control_c, 0, 64, 85
1, 91104, Control_c, 0, 64, 83
1, 91119, Control_c, 0, 64, 79
1, 91122, Note_off_c, 0, 46, 62
1, 91134, Note_on_c, 0, 62, 80
1, 91134, Control_c, 0, 64, 75
1, 91135, Note_on_c, 0, 45, 56
1, 91148, Control_c, 0, 64, 71
1, 91151, Note_on_c, 0, 50, 63
1, 91163, Control_c, 0, 64, 66
1, 91178, Control_c, 0, 64, 63
1, 91193, Control_c, 0, 64, 60
1, 91208, Control_c, 0, 64, 59
1, 91223, Control_c, 0, 64, 59
1, 91238, Control_c, 0, 64, 58
1, 91252, Control_c, 0, 64, 58
1, 91342, Note_on_c, 0, 47, 55
1, 91349, Note_off_c, 0, 45, 52
1, 91378, Control_c, 0, 64, 57
1, 91438, Control_c, 0, 64, 57
1, 91453, Control_c, 0, 64, 56
1, 91482, Control_c, 0, 64, 56
1, 91489, Note_on_c, 0, 49, 64
1, 91504, Note_off_c, 0, 47, 61
1, 91556, Control_c, 0, 64, 55
1, 91615, Control_c, 0, 64, 55
1, 91659, Control_c, 0, 64, 54
1, 91664, Note_off_c, 0, 49, 61
1, 91674, Control_c, 0, 64, 54
1, 91675, Note_on_c, 0, 51, 58
1, 91679, Note_on_c, 0, 61, 54
1, 91689, Control_c, 0, 64, 53
1, 91703, Note_off_c, 0, 61, 59
1, 91704, Control_c, 0, 64, 52
1, 91719, Control_c, 0, 64, 52
1, 91733, Control_c, 0, 64, 51
1, 91748, Control_c, 0, 64, 50
1, 91764, Control_c, 0, 64, 49
1, 91779, Control_c, 0, 64, 49
1, 91794, Control_c, 0, 64, 48
1, 91809, Control_c, 0, 64, 47
1, 91824, Control_c, 0, 64, 47
1, 91828, Note_off_c, 0, 51, 60
1, 91853, Control_c, 0, 64, 46
1, 91855, Note_on_c, 0, 54, 48
1, 91868, Control_c, 0, 64, 45
1, 91882, Control_c, 0, 64, 45
1, 91897, Control_c, 0, 64, 44
1, 91912, Control_c, 0, 64, 44
1, 91927, Control_c, 0, 64, 43
1, 91942, Control_c, 0, 64, 43
1, 91956, Control_c, 0, 64, 42
1, 91971, Control_c, 0, 64, 42
1, 91986, Control_c, 0, 64, 41
1, 92001, Control_c, 0, 64, 40
1, 92010, Note_off_c, 0, 54, 57
1, 92016, Control_c, 0, 64, 40
1, 92020, Note_on_c, 0, 48, 49
1, 92024, Note_on_c, 0, 61, 66
1, 92031, Control_c, 0, 64, 39
1, 92046, Control_c, 0, 64, 39
1, 92055, Note_off_c, 0, 61, 64
1, 92061, Control_c, 0, 64, 38
1, 92076, Control_c, 0, 64, 38
1, 92097, Control_c, 0, 64, 37
1, 92112, Control_c, 0, 64, 37
1, 92127, Control_c, 0, 64, 36
1, 92142, Control_c, 0, 64, 36
1, 92198, Note_off_c, 0, 48, 51
1, 92208, Note_on_c, 0, 46, 47
1, 92245, Control_c, 0, 64, 35
1, 92374, Note_off_c, 0, 46, 56
1, 92391, Note_on_c, 0, 45, 49
1, 92555, Note_off_c, 0, 45, 59
1, 92571, Note_on_c, 0, 61, 64
1, 92582, Note_on_c, 0, 47, 47
1, 92602, Note_off_c, 0, 61, 65
1, 92632, Control_c, 0, 64, 36
1, 92676, Control_c, 0, 64, 36
1, 92691, Control_c, 0, 64, 37
1, 92720, Control_c, 0, 64, 37
1, 92720, Control_c, 0, 67, 8
1, 92735, Control_c, 0, 67, 9
1, 92739, Note_on_c, 0, 49, 53
1, 92749, Note_off_c, 0, 47, 50
1, 92750, Control_c, 0, 67, 11
1, 92765, Control_c, 0, 67, 12
1, 92779, Control_c, 0, 67, 14
1, 92794, Control_c, 0, 67, 16
1, 92809, Control_c, 0, 67, 18
1, 92824, Control_c, 0, 67, 22
1, 92846, Control_c, 0, 67, 25
1, 92861, Control_c, 0, 67, 28
1, 92876, Control_c, 0, 67, 32
1, 92891, Control_c, 0, 67, 34
1, 92906, Control_c, 0, 67, 37
1, 92911, Note_off_c, 0, 49, 58
1, 92920, Note_on_c, 0, 51, 48
1, 92920, Control_c, 0, 67, 40
1, 92935, Control_c, 0, 67, 43
1, 92950, Control_c, 0, 67, 45
1, 92965, Control_c, 0, 67, 46
1, 92980, Control_c, 0, 67, 47
1, 92994, Control_c, 0, 67, 48
1, 93024, Control_c, 0, 67, 48
1, 93038, Control_c, 0, 67, 49
1, 93053, Control_c, 0, 67, 49
1, 93068, Control_c, 0, 67, 51
1, 93083, Control_c, 0, 67, 53
1, 93089, Note_off_c, 0, 51, 56
1, 93098, Control_c, 0, 67, 56
1, 93113, Control_c, 0, 67, 59
1, 93123, Note_on_c, 0, 48, 41
1, 93128, Control_c, 0, 64, 37
1, 93128, Control_c, 0, 67, 63
1, 93134, Note_on_c, 0, 61, 50
1, 93143, Control_c, 0, 67, 67
1, 93158, Control_c, 0, 67, 71
1, 93161, Note_off_c, 0, 61, 58
1, 93172, Control_c, 0, 64, 36
1, 93172, Control_c, 0, 67, 74
1, 93187, Control_c, 0, 64, 36
1, 93187, Control_c, 0, 67, 77
1, 93202, Control_c, 0, 67, 78
1, 93217, Control_c, 0, 64, 35
1, 93217, Control_c, 0, 67, 79
1, 93246, Control_c, 0, 64, 35
1, 93261, Control_c, 0, 64, 34
1, 93291, Control_c, 0, 64, 34
1, 93300, Note_on_c, 0, 46, 40
1, 93313, Note_off_c, 0, 48, 36
1, 93366, Control_c, 0, 67, 78
1, 93381, Control_c, 0, 67, 77
1, 93396, Control_c, 0, 67, 76
1, 93410, Control_c, 0, 67, 76
1, 93440, Control_c, 0, 67, 75
1, 93469, Control_c, 0, 67, 75
1, 93479, Note_off_c, 0, 46, 54
1, 93496, Note_on_c, 0, 45, 43
1, 93667, Note_on_c, 0, 61, 60
1, 93667, Note_off_c, 0, 45, 51
1, 93670, Note_on_c, 0, 47, 50
1, 93684, Control_c, 0, 64, 34
1, 93700, Note_off_c, 0, 61, 65
1, 93714, Control_c, 0, 64, 35
1, 93729, Control_c, 0, 64, 35
1, 93758, Control_c, 0, 64, 36
1, 93758, Control_c, 0, 67, 75
1, 93773, Control_c, 0, 67, 76
1, 93803, Control_c, 0, 64, 36
1, 93803, Control_c, 0, 67, 76
1, 93817, Control_c, 0, 67, 77
1, 93832, Control_c, 0, 67, 78
1, 93847, Control_c, 0, 67, 78
1, 93852, Note_off_c, 0, 47, 53
1, 93855, Note_on_c, 0, 49, 51
1, 93861, Control_c, 0, 67, 79
1, 93876, Control_c, 0, 67, 79
1, 93891, Control_c, 0, 67, 80
1, 93906, Control_c, 0, 67, 80
1, 93921, Control_c, 0, 67, 82
1, 93936, Control_c, 0, 67, 86
1, 93951, Control_c, 0, 67, 89
1, 93965, Control_c, 0, 67, 92
1, 93980, Control_c, 0, 64, 36
1, 93980, Control_c, 0, 67, 96
1, 93995, Control_c, 0, 67, 99
1, 94010, Note_off_c, 0, 49, 59
1, 94010, Control_c, 0, 67, 101
1, 94025, Control_c, 0, 64, 35
1, 94025, Control_c, 0, 67, 104
1, 94040, Control_c, 0, 67, 106
1, 94042, Note_on_c, 0, 61, 51
1, 94048, Note_on_c, 0, 48, 36
1, 94054, Control_c, 0, 64, 34
1, 94054, Control_c, 0, 67, 109
1, 94069, Control_c, 0, 67, 112
1, 94076, Note_off_c, 0, 61, 63
1, 94084, Control_c, 0, 64, 34
1, 94084, Control_c, 0, 67, 114
1, 94099, Control_c, 0, 64, 33
1, 94099, Control_c, 0, 67, 117
1, 94114, Control_c, 0, 64, 33
1, 94114, Control_c, 0, 67, 120
1, 94128, Control_c, 0, 64, 32
1, 94128, Control_c, 0, 67, 122
1, 94143, Control_c, 0, 64, 31
1, 94143, Control_c, 0, 67, 124
1, 94159, Control_c, 0, 64, 31
1, 94159, Control_c, 0, 67, 126
1, 94174, Control_c, 0, 64, 30
1, 94174, Control_c, 0, 67, 127
1, 94189, Control_c, 0, 64, 29
1, 94204, Control_c, 0, 64, 29
1, 94219, Control_c, 0, 64, 28
1, 94233, Control_c, 0, 64, 27
1, 94238, Note_on_c, 0, 46, 41
1, 94248, Control_c, 0, 64, 27
1, 94263, Control_c, 0, 64, 26
1, 94277, Control_c, 0, 64, 26
1, 94287, Note_off_c, 0, 48, 34
1, 94292, Control_c, 0, 64, 25
1, 94329, Control_c, 0, 64, 25
1, 94359, Control_c, 0, 64, 24
1, 94389, Control_c, 0, 64, 24
1, 94419, Control_c, 0, 64, 23
1, 94424, Note_off_c, 0, 46, 55
1, 94447, Note_on_c, 0, 45, 41
1, 94663, Note_on_c, 0, 61, 45
1, 94672, Note_on_c, 0, 51, 37
1, 94690, Note_off_c, 0, 45, 40
1, 94693, Note_off_c, 0, 61, 57
1, 94874, Note_on_c, 0, 49, 46
1, 94894, Note_off_c, 0, 51, 44
1, 95012, Control_c, 0, 64, 23
1, 95079, Note_off_c, 0, 49, 58
1, 95096, Note_on_c, 0, 48, 38
1, 95197, Control_c, 0, 64, 22
1, 95315, Control_c, 0, 64, 21
1, 95345, Control_c, 0, 64, 21
1, 95355, Note_on_c, 0, 46, 33
1, 95360, Control_c, 0, 64, 20
1, 95368, Note_on_c, 0, 61, 39
1, 95389, Control_c, 0, 64, 19
1, 95400, Note_off_c, 0, 61, 57
1, 95404, Control_c, 0, 64, 19
1, 95419, Control_c, 0, 64, 18
1, 95423, Note_off_c, 0, 48, 26
1, 95433, Control_c, 0, 64, 17
1, 95463, Control_c, 0, 64, 16
1, 95493, Control_c, 0, 64, 15
1, 95507, Control_c, 0, 64, 14
1, 95522, Control_c, 0, 64, 13
1, 95552, Control_c, 0, 64, 12
1, 95567, Control_c, 0, 64, 10
1, 95581, Control_c, 0, 64, 9
1, 95611, Control_c, 0, 64, 0
1, 95646, Note_on_c, 0, 44, 34
1, 95745, Note_off_c, 0, 46, 41
1, 96054, Note_on_c, 0, 43, 34
1, 96145, Note_off_c, 0, 44, 39
1, 96443, Note_on_c, 0, 61, 52
1, 96475, Note_off_c, 0, 61, 64
1, 98167, Note_on_c, 0, 61, 48
1, 98194, Note_off_c, 0, 61, 59
1, 98912, Note_on_c, 0, 61, 45
1, 98938, Note_off_c, 0, 61, 58
1, 99930, Note_on_c, 0, 61, 35
1, 99963, Note_off_c, 0, 61, 47
1, 103645, Note_off_c, 0, 62, 46
1, 103663, Note_off_c, 0, 50, 43
1, 103696, Note_off_c, 0, 43, 36
1, 104448, Control_c, 0, 67, 127
1, 104462, Control_c, 0, 67, 124
1, 104477, Control_c, 0, 67, 120
1, 104492, Control_c, 0, 67, 117
1, 104507, Control_c, 0, 67, 113
1, 104522, Control_c, 0, 67, 108
1, 104538, Control_c, 0, 67, 102
1, 104553, Control_c, 0, 67, 96
1, 104567, Control_c, 0, 67, 90
1, 104582, Control_c, 0, 67, 83
1, 104597, Control_c, 0, 67, 76
1, 104611, Control_c, 0, 67, 69
1, 104626, Control_c, 0, 67, 63
1, 104641, Control_c, 0, 67, 56
1, 104656, Control_c, 0, 67, 51
1, 104671, Control_c, 0, 67, 46
1, 104685, Control_c, 0, 67, 43
1, 104700, Control_c, 0, 67, 40
1, 104715, Control_c, 0, 67, 38
1, 104730, Control_c, 0, 67, 35
1, 104745, Control_c, 0, 67, 33
1, 104759, Control_c, 0, 67, 31
1, 104774, Control_c, 0, 67, 30
1, 104789, Control_c, 0, 67, 28
1, 104804, Control_c, 0, 67, 26
1, 104826, Control_c, 0, 67, 23
1, 104841, Control_c, 0, 67, 21
1, 104856, Control_c, 0, 67, 19
1, 104871, Control_c, 0, 67, 17
1, 104886, Control_c, 0, 67, 15
1, 104900, Control_c, 0, 67, 13
1, 104915, Control_c, 0, 67, 11
1, 104930, Control_c, 0, 67, 9
1, 104945, Control_c, 0, 67, 0
1, 106095, Control_c, 0, 64, 9
1, 106109, Control_c, 0, 64, 10
1, 106124, Control_c, 0, 64, 12
1, 106244, Control_c, 0, 64, 10
1, 106258, Control_c, 0, 64, 0
1, 106947, Control_c, 0, 64, 30
1, 106962, Control_c, 0, 64, 42
1, 106977, Control_c, 0, 64, 50
1, 106992, Control_c, 0, 64, 58
1, 107006, Control_c, 0, 64, 63
1, 107021, Control_c, 0, 64, 67
1, 107036, Control_c, 0, 64, 75
1, 107058, Control_c, 0, 64, 85
1, 107073, Control_c, 0, 64, 95
1, 107087, Control_c, 0, 64, 104
1, 107102, Control_c, 0, 64, 120
1, 107117, Control_c, 0, 64, 127
1, 108148, Control_c, 0, 64, 84
1, 108162, Control_c, 0, 64, 61
1, 108177, Control_c, 0, 64, 0
1, 108441, Note_on_c, 0, 30, 88
1, 108444, Note_on_c, 0, 29, 81
1, 108459, Control_c, 0, 64, 54
1, 108473, Note_off_c, 0, 29, 69
1, 108473, Note_off_c, 0, 30, 66
1, 108473, Control_c, 0, 64, 92
1, 108488, Control_c, 0, 64, 127
1, 108518, Control_c, 0, 64, 103
1, 108533, Control_c, 0, 64, 84
1, 108548, Control_c, 0, 64, 63
1, 108571, Control_c, 0, 64, 0
1, 108776, Note_on_c, 0, 77, 93
1, 108778, Note_on_c, 0, 88, 90
1, 108778, Control_c, 0, 64, 73
1, 108779, Note_on_c, 0, 66, 91
1, 108779, Note_on_c, 0, 89, 98
1, 108787, Note_on_c, 0, 65, 82
1, 108792, Control_c, 0, 64, 127
1, 108807, Note_off_c, 0, 77, 66
1, 108809, Note_off_c, 0, 65, 69
1, 108814, Note_off_c, 0, 66, 66
1, 108815, Note_off_c, 0, 89, 66
1, 108821, Note_off_c, 0, 88, 68
1, 108852, Control_c, 0, 64, 88
1, 108867, Control_c, 0, 64, 61
1, 108882, Control_c, 0, 64, 0
1, 108956, Control_c, 0, 64, 14
1, 108971, Control_c, 0, 64, 29
1, 108985, Control_c, 0, 64, 44
1, 109000, Control_c, 0, 64, 56
1, 109015, Control_c, 0, 64, 59
1, 109030, Control_c, 0, 64, 59
1, 109045, Control_c, 0, 64, 50
1, 109059, Control_c, 0, 64, 0
1, 109320, Control_c, 0, 64, 59
1, 109335, Control_c, 0, 64, 75
1, 109350, Control_c, 0, 64, 99
1, 109365, Control_c, 0, 64, 127
1, 109371, Note_on_c, 0, 89, 97
1, 109372, Note_on_c, 0, 66, 82
1, 109373, Note_on_c, 0, 77, 92
1, 109374, Note_on_c, 0, 88, 89
1, 109377, Note_on_c, 0, 65, 77
1, 109397, Note_off_c, 0, 66, 67
1, 109399, Note_off_c, 0, 65, 68
1, 109404, Note_off_c, 0, 77, 63
1, 109409, Control_c, 0, 64, 104
1, 109415, Note_off_c, 0, 89, 66
1, 109415, Note_off_c, 0, 88, 67
1, 109424, Control_c, 0, 64, 77
1, 109439, Control_c, 0, 64, 54
1, 109454, Control_c, 0, 64, 0
1, 109616, Control_c, 0, 64, 50
1, 109631, Control_c, 0, 64, 71
1, 109646, Control_c, 0, 64, 93
1, 109661, Control_c, 0, 64, 127
1, 109679, Note_on_c, 0, 65, 96
1, 109682, Note_on_c, 0, 77, 99
1, 109682, Note_on_c, 0, 88, 89
1, 109684, Note_on_c, 0, 89, 98
1, 109684, Note_on_c, 0, 54, 82
1, 109690, Note_on_c, 0, 53, 67
1, 109702, Note_off_c, 0, 65, 68
1, 109705, Control_c, 0, 64, 115
1, 109713, Note_off_c, 0, 77, 62
1, 109717, Note_off_c, 0, 53, 66
1, 109718, Note_off_c, 0, 54, 64
1, 109719, Note_off_c, 0, 88, 70
1, 109719, Note_off_c, 0, 89, 65
1, 109720, Control_c, 0, 64, 80
1, 109735, Control_c, 0, 64, 53
1, 109750, Control_c, 0, 64, 0
1, 109883, Control_c, 0, 64, 47
1, 109898, Control_c, 0, 64, 67
1, 109913, Control_c, 0, 64, 80
1, 109927, Control_c, 0, 64, 101
1, 109942, Control_c, 0, 64, 127
1, 109973, Note_on_c, 0, 76, 71
1, 109981, Note_on_c, 0, 89, 84
1, 109982, Note_on_c, 0, 77, 71
1, 109985, Note_on_c, 0, 54, 72
1, 109987, Control_c, 0, 64, 96
1, 109992, Note_on_c, 0, 87, 63
1, 109994, Note_on_c, 0, 65, 54
1, 109997, Note_on_c, 0, 88, 64
1, 109998, Note_off_c, 0, 76, 66
1, 110001, Control_c, 0, 64, 68
1, 110004, Note_off_c, 0, 77, 66
1, 110004, Note_off_c, 0, 89, 66
1, 110009, Note_off_c, 0, 87, 62
1, 110011, Note_off_c, 0, 54, 67
1, 110015, Note_off_c, 0, 88, 65
1, 110015, Note_on_c, 0, 53, 26
1, 110016, Control_c, 0, 64, 0
1, 110017, Note_off_c, 0, 65, 58
1, 110062, Note_off_c, 0, 53, 30
1, 110217, Control_c, 0, 64, 26
1, 110232, Control_c, 0, 64, 63
1, 110247, Control_c, 0, 64, 77
1, 110262, Control_c, 0, 64, 99
1, 110277, Control_c, 0, 64, 127
1, 110284, Note_on_c, 0, 76, 78
1, 110289, Note_on_c, 0, 77, 78
1, 110289, Note_on_c, 0, 89, 85
1, 110295, Note_on_c, 0, 54, 80
1, 110297, Note_on_c, 0, 87, 80
1, 110298, Note_on_c, 0, 88, 76
1, 110306, Control_c, 0, 64, 99
1, 110307, Note_off_c, 0, 76, 67
1, 110308, Note_on_c, 0, 65, 54
1, 110309, Note_off_c, 0, 77, 71
1, 110318, Note_off_c, 0, 87, 70
1, 110318, Note_off_c, 0, 88, 73
1, 110320, Note_off_c, 0, 54, 68
1, 110321, Control_c, 0, 64, 68
1, 110322, Note_off_c, 0, 89, 64
1, 110331, Note_off_c, 0, 65, 57
1, 110336, Note_on_c, 0, 53, 13
1, 110336, Control_c, 0, 64, 0
1, 110379, Note_off_c, 0, 53, 29
1, 110507, Poly_aftertouch_c, 0, 53, 127
1, 110549, Poly_aftertouch_c, 0, 53, 0
1, 110629, Note_on_c, 0, 89, 91
1, 110630, Note_on_c, 0, 88, 90
1, 110631, Note_on_c, 0, 101, 110
1, 110637, Note_on_c, 0, 100, 95
1, 110638, Note_on_c, 0, 99, 98
1, 110641, Note_on_c, 0, 54, 84
1, 110645, Note_on_c, 0, 53, 58
1, 110647, Control_c, 0, 64, 78
1, 110648, Note_on_c, 0, 65, 72
1, 110661, Control_c, 0, 64, 127
1, 110663, Note_off_c, 0, 88, 64
1, 110667, Note_off_c, 0, 65, 64
1, 110669, Note_off_c, 0, 89, 64
1, 110672, Note_off_c, 0, 53, 66
1, 110673, Note_off_c, 0, 101, 69
1, 110679, Note_off_c, 0, 100, 66
1, 110680, Note_off_c, 0, 54, 64
1, 110685, Note_off_c, 0, 99, 67
1, 110736, Poly_aftertouch_c, 0, 66, 0
1, 110817, Control_c, 0, 64, 88
1, 110831, Control_c, 0, 64, 64
1, 110846, Control_c, 0, 64, 0
1, 110891, Control_c, 0, 64, 37
1, 110906, Control_c, 0, 64, 52
1, 110921, Control_c, 0, 64, 53
1, 110995, Control_c, 0, 64, 55
1, 111010, Control_c, 0, 64, 57
1, 111025, Control_c, 0, 64, 57
1, 111040, Control_c, 0, 64, 58
1, 111055, Control_c, 0, 64, 58
1, 111085, Control_c, 0, 64, 57
1, 111100, Control_c, 0, 64, 46
1, 111115, Control_c, 0, 64, 0
1, 111144, Note_on_c, 0, 30, 48
1, 111147, Note_on_c, 0, 41, 47
1, 111150, Note_on_c, 0, 29, 46
1, 111177, Note_off_c, 0, 30, 50
1, 111188, Control_c, 0, 67, 8
1, 111189, Note_off_c, 0, 29, 47
1, 111191, Note_off_c, 0, 41, 60
1, 111203, Control_c, 0, 67, 9
1, 111218, Control_c, 0, 67, 9
1, 111335, Note_on_c, 0, 44, 49
1, 111389, Note_off_c, 0, 44, 57
1, 111439, Control_c, 0, 67, 10
1, 111469, Control_c, 0, 67, 10
1, 111490, Note_on_c, 0, 30, 52
1, 111494, Note_on_c, 0, 29, 46
1, 111499, Control_c, 0, 67, 11
1, 111508, Note_on_c, 0, 47, 48
1, 111514, Control_c, 0, 67, 11
1, 111522, Note_off_c, 0, 30, 53
1, 111528, Control_c, 0, 67, 13
1, 111535, Note_off_c, 0, 29, 47
1, 111541, Note_off_c, 0, 47, 61
1, 111543, Control_c, 0, 67, 15
1, 111565, Control_c, 0, 67, 19
1, 111580, Control_c, 0, 67, 22
1, 111594, Control_c, 0, 67, 26
1, 111609, Control_c, 0, 67, 29
1, 111624, Control_c, 0, 67, 31
1, 111639, Control_c, 0, 67, 33
1, 111654, Control_c, 0, 67, 34
1, 111681, Note_on_c, 0, 49, 58
1, 111731, Note_off_c, 0, 49, 61
1, 111844, Note_on_c, 0, 29, 49
1, 111851, Note_on_c, 0, 30, 52
1, 111851, Note_on_c, 0, 52, 63
1, 111879, Note_off_c, 0, 29, 54
1, 111884, Note_off_c, 0, 30, 50
1, 111887, Note_off_c, 0, 52, 63
1, 111892, Control_c, 0, 67, 34
1, 111966, Control_c, 0, 67, 35
1, 112071, Note_on_c, 0, 41, 55
1, 112119, Note_off_c, 0, 41, 58
1, 112144, Control_c, 0, 67, 35
1, 112159, Control_c, 0, 67, 36
1, 112174, Control_c, 0, 67, 37
1, 112189, Control_c, 0, 67, 41
1, 112196, Note_on_c, 0, 30, 57
1, 112197, Note_on_c, 0, 29, 53
1, 112203, Control_c, 0, 67, 46
1, 112209, Note_on_c, 0, 44, 60
1, 112218, Control_c, 0, 67, 50
1, 112229, Note_off_c, 0, 30, 59
1, 112232, Note_off_c, 0, 29, 53
1, 112233, Control_c, 0, 67, 52
1, 112246, Note_off_c, 0, 44, 62
1, 112248, Control_c, 0, 67, 53
1, 112263, Control_c, 0, 67, 54
1, 112277, Control_c, 0, 67, 55
1, 112292, Control_c, 0, 67, 55
1, 112343, Note_on_c, 0, 47, 53
1, 112372, Note_off_c, 0, 47, 56
1, 112445, Note_on_c, 0, 49, 64
1, 112483, Note_off_c, 0, 49, 63
1, 112551, Note_on_c, 0, 30, 52
1, 112554, Note_on_c, 0, 29, 46
1, 112557, Note_on_c, 0, 52, 65
1, 112584, Note_off_c, 0, 30, 51
1, 112591, Note_off_c, 0, 52, 65
1, 112595, Note_off_c, 0, 29, 48
1, 112612, Control_c, 0, 67, 56
1, 112626, Control_c, 0, 67, 56
1, 112668, Note_on_c, 0, 41, 62
1, 112704, Note_off_c, 0, 41, 62
1, 112715, Control_c, 0, 67, 57
1, 112776, Note_on_c, 0, 44, 63
1, 112811, Note_off_c, 0, 44, 62
1, 112862, Note_on_c, 0, 30, 56
1, 112870, Note_on_c, 0, 29, 41
1, 112877, Note_on_c, 0, 47, 67
1, 112894, Note_off_c, 0, 30, 52
1, 112908, Note_off_c, 0, 47, 65
1, 112911, Note_off_c, 0, 29, 49
1, 112970, Note_on_c, 0, 49, 68
1, 113008, Note_off_c, 0, 49, 64
1, 113064, Control_c, 0, 67, 56
1, 113076, Note_on_c, 0, 52, 66
1, 113079, Control_c, 0, 67, 56
1, 113094, Control_c, 0, 67, 55
1, 113108, Control_c, 0, 67, 54
1, 113118, Note_off_c, 0, 52, 58
1, 113123, Control_c, 0, 67, 52
1, 113138, Control_c, 0, 67, 49
1, 113152, Control_c, 0, 67, 44
1, 113167, Control_c, 0, 67, 36
1, 113174, Note_on_c, 0, 41, 61
1, 113182, Control_c, 0, 67, 19
1, 113197, Control_c, 0, 67, 0
1, 113249, Note_off_c, 0, 41, 57
1, 113255, Note_on_c, 0, 44, 59
1, 113323, Note_on_c, 0, 47, 59
1, 113339, Note_off_c, 0, 44, 51
1, 113383, Note_off_c, 0, 47, 58
1, 113404, Note_on_c, 0, 49, 65
1, 113420, Control_c, 0, 64, 14
1, 113435, Control_c, 0, 64, 21
1, 113449, Control_c, 0, 64, 23
1, 113462, Note_off_c, 0, 49, 60
1, 113464, Control_c, 0, 64, 0
1, 113492, Note_on_c, 0, 52, 66
1, 113496, Note_on_c, 0, 30, 63
1, 113523, Note_off_c, 0, 52, 65
1, 113526, Note_on_c, 0, 29, 14
1, 113530, Note_off_c, 0, 30, 62
1, 113567, Note_on_c, 0, 41, 61
1, 113579, Note_off_c, 0, 29, 32
1, 113616, Note_off_c, 0, 41, 57
1, 113621, Note_on_c, 0, 44, 58
1, 113674, Note_off_c, 0, 44, 54
1, 113679, Note_on_c, 0, 47, 57
1, 113730, Note_off_c, 0, 47, 60
1, 113738, Note_on_c, 0, 49, 69
1, 113782, Note_off_c, 0, 49, 63
1, 113806, Note_on_c, 0, 30, 81
1, 113809, Note_on_c, 0, 29, 77
1, 113810, Note_on_c, 0, 52, 74
1, 113837, Note_off_c, 0, 30, 65
1, 113837, Note_off_c, 0, 52, 66
1, 113840, Note_off_c, 0, 29, 64
1, 113884, Note_on_c, 0, 41, 65
1, 113943, Note_on_c, 0, 44, 58
1, 113945, Note_off_c, 0, 41, 52
1, 113993, Note_off_c, 0, 44, 60
1, 113997, Note_on_c, 0, 47, 58
1, 114048, Note_off_c, 0, 47, 61
1, 114057, Note_on_c, 0, 49, 68
1, 114104, Note_off_c, 0, 49, 63
1, 114118, Note_on_c, 0, 30, 78
1, 114122, Note_on_c, 0, 29, 69
1, 114128, Note_on_c, 0, 52, 74
1, 114143, Note_off_c, 0, 30, 65
1, 114152, Note_off_c, 0, 52, 66
1, 114159, Note_off_c, 0, 29, 64
1, 114197, Note_on_c, 0, 41, 72
1, 114268, Note_off_c, 0, 41, 56
1, 114271, Note_on_c, 0, 44, 47
1, 114315, Note_off_c, 0, 44, 58
1, 114330, Note_on_c, 0, 47, 54
1, 114375, Note_on_c, 0, 49, 69
1, 114378, Note_off_c, 0, 47, 61
1, 114413, Note_off_c, 0, 49, 64
1, 114436, Note_on_c, 0, 52, 80
1, 114463, Note_off_c, 0, 52, 69
1, 114510, Note_on_c, 0, 41, 61
1, 114575, Note_off_c, 0, 41, 52
1, 114579, Note_on_c, 0, 44, 55
1, 114605, Note_off_c, 0, 44, 54
1, 114620, Note_on_c, 0, 47, 60
1, 114683, Note_on_c, 0, 49, 77
1, 114688, Note_off_c, 0, 47, 62
1, 114739, Note_on_c, 0, 29, 94
1, 114740, Note_on_c, 0, 30, 90
1, 114747, Note_off_c, 0, 49, 57
1, 114750, Note_on_c, 0, 52, 87
1, 114765, Note_off_c, 0, 29, 69
1, 114770, Note_off_c, 0, 30, 67
1, 114776, Note_off_c, 0, 52, 68
1, 114820, Note_on_c, 0, 41, 76
1, 114885, Note_on_c, 0, 44, 56
1, 114902, Note_off_c, 0, 41, 56
1, 114938, Note_on_c, 0, 47, 61
1, 114940, Note_off_c, 0, 44, 55
1, 114994, Note_off_c, 0, 47, 60
1, 114999, Note_on_c, 0, 49, 71
1, 115051, Note_off_c, 0, 49, 61
1, 115067, Note_on_c, 0, 52, 86
1, 115094, Note_off_c, 0, 52, 66
1, 115141, Note_on_c, 0, 41, 76
1, 115204, Note_on_c, 0, 44, 63
1, 115220, Note_off_c, 0, 41, 57
1, 115248, Note_on_c, 0, 47, 65
1, 115275, Note_off_c, 0, 44, 51
1, 115316, Note_off_c, 0, 47, 63
1, 115320, Note_on_c, 0, 49, 74
1, 115379, Note_off_c, 0, 49, 61
1, 115390, Note_on_c, 0, 30, 92
1, 115391, Note_on_c, 0, 29, 88
1, 115392, Note_on_c, 0, 52, 92
1, 115416, Note_off_c, 0, 29, 69
1, 115423, Note_off_c, 0, 30, 63
1, 115428, Note_off_c, 0, 52, 64
1, 115479, Note_on_c, 0, 41, 69
1, 115526, Note_on_c, 0, 44, 62
1, 115540, Note_off_c, 0, 41, 54
1, 115568, Note_on_c, 0, 47, 64
1, 115586, Note_off_c, 0, 44, 51
1, 115630, Note_off_c, 0, 47, 61
1, 115635, Note_on_c, 0, 49, 78
1, 115701, Note_off_c, 0, 49, 62
1, 115714, Note_on_c, 0, 52, 90
1, 115714, Note_on_c, 0, 30, 100
1, 115717, Note_on_c, 0, 29, 92
1, 115742, Note_off_c, 0, 29, 70
1, 115753, Note_off_c, 0, 52, 64
1, 115754, Note_off_c, 0, 30, 62
1, 115800, Note_on_c, 0, 41, 72
1, 115854, Note_on_c, 0, 44, 61
1, 115873, Note_off_c, 0, 41, 54
1, 115899, Note_off_c, 0, 44, 60
1, 115906, Note_on_c, 0, 47, 63
1, 115962, Note_off_c, 0, 47, 63
1, 115967, Note_on_c, 0, 49, 71
1, 116022, Note_off_c, 0, 49, 61
1, 116045, Note_on_c, 0, 30, 100
1, 116045, Note_on_c, 0, 52, 92
1, 116046, Note_on_c, 0, 29, 95
1, 116073, Note_off_c, 0, 29, 68
1, 116084, Note_off_c, 0, 52, 65
1, 116089, Note_off_c, 0, 30, 62
1, 116126, Note_on_c, 0, 41, 76
1, 116191, Note_on_c, 0, 44, 60
1, 116206, Note_off_c, 0, 41, 58
1, 116237, Note_on_c, 0, 47, 65
1, 116243, Note_off_c, 0, 44, 54
1, 116290, Note_off_c, 0, 47, 60
1, 116292, Note_on_c, 0, 49, 76
1, 116349, Note_off_c, 0, 49, 60
1, 116360, Note_on_c, 0, 30, 98
1, 116362, Note_on_c, 0, 52, 93
1, 116363, Note_on_c, 0, 29, 94
1, 116388, Note_off_c, 0, 29, 70
1, 116399, Note_off_c, 0, 52, 64
1, 116400, Note_off_c, 0, 30, 61
1, 116447, Note_on_c, 0, 41, 69
1, 116507, Note_on_c, 0, 44, 58
1, 116521, Note_off_c, 0, 41, 55
1, 116546, Note_on_c, 0, 47, 65
1, 116567, Note_off_c, 0, 44, 52
1, 116605, Note_off_c, 0, 47, 61
1, 116619, Note_on_c, 0, 49, 71
1, 116673, Note_on_c, 0, 30, 90
1, 116680, Note_on_c, 0, 29, 80
1, 116681, Note_off_c, 0, 49, 59
1, 116686, Note_on_c, 0, 52, 83
1, 116701, Note_off_c, 0, 30, 68
1, 116714, Note_off_c, 0, 52, 65
1, 116715, Note_off_c, 0, 29, 64
1, 116777, Note_on_c, 0, 41, 65
1, 116850, Note_off_c, 0, 41, 50
1, 116852, Note_on_c, 0, 44, 53
1, 116884, Note_on_c, 0, 47, 61
1, 116892, Note_off_c, 0, 44, 58
1, 116930, Note_off_c, 0, 47, 60
1, 116958, Note_on_c, 0, 49, 62
1, 117002, Note_off_c, 0, 49, 64
1, 117028, Note_on_c, 0, 52, 72
1, 117057, Note_off_c, 0, 52, 66
1, 117122, Note_on_c, 0, 53, 57
1, 117132, Note_on_c, 0, 41, 43
1, 117151, Note_off_c, 0, 53, 63
1, 117166, Note_off_c, 0, 41, 52
1, 117188, Note_on_c, 0, 44, 38
1, 117215, Note_on_c, 0, 47, 55
1, 117216, Note_on_c, 0, 55, 63
1, 117225, Note_off_c, 0, 44, 49
1, 117246, Note_off_c, 0, 55, 63
1, 117255, Note_off_c, 0, 47, 62
1, 117291, Note_on_c, 0, 49, 57
1, 117318, Note_on_c, 0, 57, 66
1, 117326, Note_off_c, 0, 49, 64
1, 117336, Note_on_c, 0, 52, 60
1, 117345, Note_off_c, 0, 57, 66
1, 117359, Note_off_c, 0, 52, 61
1, 117407, Note_on_c, 0, 41, 58
1, 117410, Note_on_c, 0, 59, 70
1, 117434, Note_off_c, 0, 59, 64
1, 117449, Note_off_c, 0, 41, 51
1, 117500, Note_on_c, 0, 61, 72
1, 117506, Note_on_c, 0, 47, 57
1, 117530, Note_off_c, 0, 61, 66
1, 117561, Note_off_c, 0, 47, 60
1, 117569, Poly_aftertouch_c, 0, 44, 0
1, 117586, Note_on_c, 0, 49, 57
1, 117604, Note_on_c, 0, 63, 80
1, 117621, Note_off_c, 0, 49, 64
1, 117625, Note_on_c, 0, 52, 76
1, 117628, Note_off_c, 0, 63, 68
1, 117650, Note_off_c, 0, 52, 67
1, 117708, Note_on_c, 0, 63, 68
1, 117713, Note_on_c, 0, 41, 59
1, 117737, Note_off_c, 0, 63, 65
1, 117757, Note_off_c, 0, 41, 59
1, 117790, Note_on_c, 0, 44, 34
1, 117805, Note_on_c, 0, 63, 62
1, 117815, Note_on_c, 0, 47, 51
1, 117825, Note_off_c, 0, 44, 48
1, 117826, Note_off_c, 0, 63, 62
1, 117853, Note_off_c, 0, 47, 61
1, 117887, Note_on_c, 0, 49, 55
1, 117925, Note_off_c, 0, 49, 64
1, 117939, Note_on_c, 0, 52, 61
1, 117966, Note_off_c, 0, 52, 63
1, 118029, Note_on_c, 0, 63, 66
1, 118030, Note_on_c, 0, 41, 51
1, 118051, Note_off_c, 0, 63, 65
1, 118073, Note_off_c, 0, 41, 57
1, 118113, Note_on_c, 0, 44, 16
1, 118122, Note_on_c, 0, 63, 69
1, 118129, Note_on_c, 0, 47, 51
1, 118149, Note_off_c, 0, 63, 65
1, 118156, Note_off_c, 0, 44, 40
1, 118173, Note_off_c, 0, 47, 58
1, 118201, Note_on_c, 0, 49, 62
1, 118221, Note_on_c, 0, 63, 91
1, 118234, Note_off_c, 0, 49, 64
1, 118242, Note_on_c, 0, 52, 69
1, 118248, Note_off_c, 0, 63, 67
1, 118272, Note_off_c, 0, 52, 66
1, 118329, Note_on_c, 0, 63, 68
1, 118338, Note_on_c, 0, 41, 56
1, 118359, Note_off_c, 0, 63, 66
1, 118378, Note_off_c, 0, 41, 58
1, 118411, Note_on_c, 0, 44, 33
1, 118430, Note_on_c, 0, 63, 51
1, 118439, Note_on_c, 0, 47, 51
1, 118445, Note_off_c, 0, 44, 48
1, 118452, Note_off_c, 0, 63, 59
1, 118481, Note_off_c, 0, 47, 61
1, 118505, Note_on_c, 0, 49, 59
1, 118540, Note_off_c, 0, 49, 63
1, 118554, Note_on_c, 0, 52, 63
1, 118584, Note_off_c, 0, 52, 64
1, 118641, Note_on_c, 0, 63, 65
1, 118646, Note_on_c, 0, 41, 56
1, 118662, Note_off_c, 0, 63, 65
1, 118680, Note_off_c, 0, 41, 51
1, 118731, Note_on_c, 0, 63, 60
1, 118743, Note_on_c, 0, 47, 43
1, 118754, Note_off_c, 0, 63, 64
1, 118775, Note_off_c, 0, 47, 56
1, 118782, Poly_aftertouch_c, 0, 44, 0
1, 118790, Note_on_c, 0, 49, 61
1, 118833, Note_off_c, 0, 49, 65
1, 118847, Note_on_c, 0, 52, 73
1, 118874, Note_off_c, 0, 52, 66
1, 118936, Note_on_c, 0, 64, 60
1, 118942, Note_on_c, 0, 41, 56
1, 118956, Note_off_c, 0, 64, 66
1, 118975, Note_off_c, 0, 41, 54
1, 119002, Note_on_c, 0, 44, 44
1, 119022, Note_on_c, 0, 66, 68
1, 119043, Note_off_c, 0, 44, 51
1, 119044, Note_on_c, 0, 47, 42
1, 119056, Note_off_c, 0, 66, 69
1, 119080, Note_off_c, 0, 47, 55
1, 119097, Note_on_c, 0, 49, 66
1, 119127, Note_on_c, 0, 68, 79
1, 119136, Note_off_c, 0, 49, 64
1, 119148, Note_on_c, 0, 52, 75
1, 119148, Note_off_c, 0, 68, 72
1, 119173, Note_off_c, 0, 52, 66
1, 119226, Note_on_c, 0, 41, 65
1, 119230, Note_on_c, 0, 66, 68
1, 119267, Note_off_c, 0, 66, 62
1, 119268, Note_off_c, 0, 41, 60
1, 119297, Note_on_c, 0, 44, 36
1, 119315, Note_on_c, 0, 47, 54
1, 119320, Note_on_c, 0, 64, 69
1, 119333, Note_off_c, 0, 44, 50
1, 119347, Note_off_c, 0, 64, 68
1, 119360, Note_off_c, 0, 47, 61
1, 119388, Note_on_c, 0, 49, 59
1, 119420, Note_on_c, 0, 63, 75
1, 119430, Note_off_c, 0, 49, 64
1, 119444, Note_on_c, 0, 52, 63
1, 119444, Note_off_c, 0, 63, 70
1, 119472, Note_off_c, 0, 52, 64
1, 119514, Note_on_c, 0, 61, 70
1, 119525, Note_on_c, 0, 41, 55
1, 119542, Note_off_c, 0, 61, 65
1, 119555, Note_off_c, 0, 41, 53
1, 119593, Note_on_c, 0, 44, 5
1, 119598, Note_on_c, 0, 47, 57
1, 119609, Note_on_c, 0, 59, 74
1, 119634, Note_off_c, 0, 59, 66
1, 119640, Note_off_c, 0, 44, 40
1, 119648, Note_off_c, 0, 47, 61
1, 119664, Note_on_c, 0, 49, 63
1, 119708, Note_off_c, 0, 49, 64
1, 119711, Note_on_c, 0, 57, 73
1, 119723, Note_on_c, 0, 52, 69
1, 119735, Note_off_c, 0, 57, 69
1, 119753, Note_off_c, 0, 52, 66
1, 119807, Note_on_c, 0, 41, 71
1, 119814, Note_on_c, 0, 59, 75
1, 119840, Note_off_c, 0, 59, 67
1, 119854, Note_off_c, 0, 41, 58
1, 119884, Note_on_c, 0, 44, 36
1, 119899, Note_on_c, 0, 47, 61
1, 119906, Note_on_c, 0, 61, 76
1, 119917, Note_off_c, 0, 44, 50
1, 119930, Note_off_c, 0, 61, 67
1, 119961, Note_off_c, 0, 47, 61
1, 119969, Note_on_c, 0, 49, 73
1, 120003, Note_on_c, 0, 63, 89
1, 120013, Note_off_c, 0, 49, 63
1, 120023, Note_on_c, 0, 52, 76
1, 120024, Note_off_c, 0, 63, 67
1, 120047, Note_off_c, 0, 52, 67
1, 120103, Note_on_c, 0, 41, 67
1, 120109, Note_on_c, 0, 63, 65
1, 120130, Note_off_c, 0, 63, 65
1, 120148, Note_off_c, 0, 41, 57
1, 120182, Note_on_c, 0, 44, 28
1, 120196, Note_on_c, 0, 63, 64
1, 120207, Note_on_c, 0, 47, 55
1, 120219, Note_off_c, 0, 44, 48
1, 120224, Note_off_c, 0, 63, 64
1, 120248, Note_off_c, 0, 47, 63
1, 120273, Note_on_c, 0, 49, 59
1, 120314, Note_off_c, 0, 49, 63
1, 120320, Note_on_c, 0, 52, 81
1, 120346, Note_off_c, 0, 52, 68
1, 120409, Note_on_c, 0, 63, 71
1, 120409, Note_on_c, 0, 41, 59
1, 120432, Note_off_c, 0, 63, 65
1, 120451, Note_off_c, 0, 41, 60
1, 120503, Note_on_c, 0, 63, 58
1, 120510, Note_on_c, 0, 47, 48
1, 120528, Note_off_c, 0, 63, 62
1, 120560, Note_off_c, 0, 47, 59
1, 120563, Poly_aftertouch_c, 0, 44, 0
1, 120582, Note_on_c, 0, 49, 59
1, 120622, Note_off_c, 0, 49, 63
1, 120631, Note_on_c, 0, 52, 71
1, 120660, Note_off_c, 0, 52, 65
1, 120723, Note_on_c, 0, 63, 67
1, 120728, Note_on_c, 0, 41, 50
1, 120752, Note_off_c, 0, 63, 65
1, 120760, Note_off_c, 0, 41, 53
1, 120797, Note_on_c, 0, 44, 21
1, 120814, Note_on_c, 0, 63, 59
1, 120821, Note_on_c, 0, 47, 49
1, 120838, Note_off_c, 0, 44, 43
1, 120838, Note_off_c, 0, 63, 64
1, 120862, Note_off_c, 0, 47, 62
1, 120883, Note_on_c, 0, 49, 53
1, 120922, Note_off_c, 0, 49, 64
1, 120931, Note_on_c, 0, 52, 72
1, 120957, Note_off_c, 0, 52, 66
1, 121026, Note_on_c, 0, 64, 65
1, 121031, Note_on_c, 0, 41, 55
1, 121053, Note_off_c, 0, 64, 67
1, 121068, Note_off_c, 0, 41, 54
1, 121093, Note_on_c, 0, 44, 38
1, 121115, Note_on_c, 0, 47, 59
1, 121116, Note_on_c, 0, 66, 78
1, 121127, Note_off_c, 0, 44, 50
1, 121139, Note_off_c, 0, 66, 70
1, 121163, Note_off_c, 0, 47, 62
1, 121180, Note_on_c, 0, 49, 67
1, 121213, Note_on_c, 0, 67, 101
1, 121226, Note_off_c, 0, 49, 63
1, 121229, Note_on_c, 0, 52, 81
1, 121243, Note_off_c, 0, 67, 65
1, 121256, Note_off_c, 0, 52, 67
1, 121335, Note_on_c, 0, 67, 69
1, 121336, Note_on_c, 0, 41, 55
1, 121351, Note_off_c, 0, 67, 67
1, 121372, Note_off_c, 0, 41, 54
1, 121414, Note_on_c, 0, 67, 69
1, 121428, Note_on_c, 0, 47, 50
1, 121446, Note_off_c, 0, 67, 63
1, 121473, Note_off_c, 0, 47, 61
1, 121492, Note_on_c, 0, 49, 56
1, 121536, Note_off_c, 0, 49, 63
1, 121552, Note_on_c, 0, 52, 67
1, 121582, Note_off_c, 0, 52, 66
1, 121643, Note_on_c, 0, 41, 59
1, 121643, Note_on_c, 0, 67, 75
1, 121669, Note_off_c, 0, 67, 67
1, 121687, Note_off_c, 0, 41, 60
1, 121726, Note_on_c, 0, 47, 56
1, 121750, Note_on_c, 0, 67, 65
1, 121770, Note_off_c, 0, 67, 64
1, 121774, Note_off_c, 0, 47, 61
1, 121793, Note_on_c, 0, 49, 68
1, 121793, Poly_aftertouch_c, 0, 44, 0
1, 121834, Note_on_c, 0, 67, 99
1, 121847, Note_off_c, 0, 49, 62
1, 121853, Note_on_c, 0, 52, 79
1, 121869, Note_off_c, 0, 67, 66
1, 121882, Note_off_c, 0, 52, 65
1, 121944, Note_on_c, 0, 67, 76
1, 121951, Note_on_c, 0, 41, 53
1, 121969, Note_off_c, 0, 67, 69
1, 121983, Note_off_c, 0, 41, 56
1, 122048, Note_on_c, 0, 47, 50
1, 122055, Note_on_c, 0, 67, 62
1, 122075, Note_off_c, 0, 67, 63
1, 122091, Note_off_c, 0, 47, 62
1, 122101, Note_on_c, 0, 49, 65
1, 122147, Note_off_c, 0, 49, 61
1, 122154, Note_on_c, 0, 52, 91
1, 122191, Note_off_c, 0, 52, 65
1, 122249, Note_on_c, 0, 41, 67
1, 122258, Note_on_c, 0, 67, 75
1, 122284, Note_off_c, 0, 67, 68
1, 122292, Note_off_c, 0, 41, 60
1, 122347, Note_on_c, 0, 47, 56
1, 122364, Note_on_c, 0, 67, 71
1, 122391, Note_off_c, 0, 47, 62
1, 122394, Note_off_c, 0, 67, 64
1, 122412, Note_on_c, 0, 49, 60
1, 122456, Note_off_c, 0, 49, 64
1, 122469, Note_on_c, 0, 52, 74
1, 122494, Note_off_c, 0, 52, 66
1, 122556, Note_on_c, 0, 41, 55
1, 122564, Note_on_c, 0, 67, 67
1, 122582, Note_off_c, 0, 67, 65
1, 122594, Note_off_c, 0, 41, 49
1, 122654, Note_on_c, 0, 66, 66
1, 122654, Note_on_c, 0, 47, 43
1, 122680, Note_off_c, 0, 66, 69
1, 122694, Note_off_c, 0, 47, 51
1, 122713, Note_on_c, 0, 49, 62
1, 122753, Note_off_c, 0, 49, 64
1, 122756, Note_on_c, 0, 64, 66
1, 122767, Note_on_c, 0, 52, 62
1, 122776, Note_off_c, 0, 64, 67
1, 122798, Note_off_c, 0, 52, 62
1, 122853, Note_on_c, 0, 63, 79
1, 122856, Note_on_c, 0, 41, 54
1, 122877, Note_off_c, 0, 63, 70
1, 122894, Note_off_c, 0, 41, 50
1, 122927, Note_on_c, 0, 44, 38
1, 122949, Note_on_c, 0, 61, 78
1, 122954, Note_on_c, 0, 47, 54
1, 122961, Note_off_c, 0, 44, 49
1, 122975, Note_off_c, 0, 61, 66
1, 122993, Note_off_c, 0, 47, 65
1, 123008, Note_on_c, 0, 49, 63
1, 123051, Note_on_c, 0, 60, 96
1, 123055, Note_off_c, 0, 49, 59
1, 123061, Note_on_c, 0, 52, 85
1, 123085, Note_off_c, 0, 60, 68
1, 123087, Note_off_c, 0, 52, 69
1, 123153, Note_on_c, 0, 41, 67
1, 123164, Note_on_c, 0, 60, 68
1, 123184, Note_off_c, 0, 60, 67
1, 123209, Note_off_c, 0, 41, 55
1, 123244, Note_on_c, 0, 44, 31
1, 123253, Note_on_c, 0, 60, 68
1, 123261, Note_on_c, 0, 47, 52
1, 123280, Note_off_c, 0, 44, 45
1, 123286, Note_off_c, 0, 60, 63
1, 123304, Note_off_c, 0, 47, 59
1, 123336, Note_on_c, 0, 49, 57
1, 123372, Note_off_c, 0, 49, 64
1, 123389, Note_on_c, 0, 52, 68
1, 123420, Note_off_c, 0, 52, 64
1, 123474, Note_on_c, 0, 62, 69
1, 123479, Note_on_c, 0, 41, 57
1, 123504, Note_off_c, 0, 62, 65
1, 123515, Note_off_c, 0, 41, 59
1, 123571, Note_on_c, 0, 47, 51
1, 123581, Note_on_c, 0, 64, 73
1, 123608, Note_off_c, 0, 64, 69
1, 123622, Note_off_c, 0, 47, 60
1, 123643, Note_on_c, 0, 49, 60
1, 123677, Note_on_c, 0, 63, 93
1, 123685, Note_off_c, 0, 49, 63
1, 123690, Note_on_c, 0, 52, 80
1, 123708, Note_off_c, 0, 63, 66
1, 123718, Note_off_c, 0, 52, 67
1, 123777, Note_on_c, 0, 41, 65
1, 123783, Note_on_c, 0, 63, 72
1, 123812, Note_off_c, 0, 63, 67
1, 123825, Note_off_c, 0, 41, 56
1, 123863, Note_on_c, 0, 47, 55
1, 123874, Note_on_c, 0, 63, 72
1, 123902, Note_off_c, 0, 63, 69
1, 123921, Poly_aftertouch_c, 0, 44, 0
1, 123924, Note_off_c, 0, 47, 58
1, 123931, Note_on_c, 0, 49, 67
1, 123980, Note_off_c, 0, 49, 59
1, 123983, Note_on_c, 0, 52, 85
1, 124009, Note_off_c, 0, 52, 68
1, 124079, Note_on_c, 0, 41, 62
1, 124081, Note_on_c, 0, 64, 69
1, 124108, Note_off_c, 0, 64, 68
1, 124122, Note_off_c, 0, 41, 59
1, 124151, Note_on_c, 0, 44, 34
1, 124177, Note_on_c, 0, 66, 65
1, 124183, Note_on_c, 0, 47, 44
1, 124186, Note_off_c, 0, 44, 50
1, 124200, Note_off_c, 0, 66, 66
1, 124225, Note_off_c, 0, 47, 52
1, 124248, Note_on_c, 0, 49, 53
1, 124292, Note_off_c, 0, 49, 63
1, 124294, Note_on_c, 0, 52, 80
1, 124320, Note_off_c, 0, 52, 68
1, 124388, Note_on_c, 0, 41, 63
1, 124400, Note_on_c, 0, 67, 59
1, 124421, Note_off_c, 0, 67, 62
1, 124433, Note_off_c, 0, 41, 58
1, 124489, Note_on_c, 0, 47, 50
1, 124492, Note_on_c, 0, 67, 65
1, 124523, Note_off_c, 0, 67, 64
1, 124538, Note_off_c, 0, 47, 57
1, 124555, Note_on_c, 0, 49, 57
1, 124592, Note_off_c, 0, 49, 64
1, 124604, Note_on_c, 0, 52, 67
1, 124636, Note_off_c, 0, 52, 65
1, 124687, Note_on_c, 0, 67, 70
1, 124693, Note_on_c, 0, 41, 53
1, 124712, Note_off_c, 0, 67, 64
1, 124731, Note_off_c, 0, 41, 49
1, 124781, Note_on_c, 0, 47, 51
1, 124782, Note_on_c, 0, 67, 61
1, 124802, Note_off_c, 0, 67, 63
1, 124818, Note_off_c, 0, 47, 64
1, 124832, Note_on_c, 0, 49, 66
1, 124877, Note_off_c, 0, 49, 62
1, 124898, Note_on_c, 0, 52, 76
1, 124924, Note_off_c, 0, 52, 66
1, 124979, Note_on_c, 0, 41, 68
1, 124991, Note_on_c, 0, 66, 70
1, 125016, Note_off_c, 0, 66, 68
1, 125034, Note_off_c, 0, 41, 57
1, 125090, Note_on_c, 0, 47, 45
1, 125101, Note_on_c, 0, 64, 63
1, 125122, Note_off_c, 0, 47, 60
1, 125127, Note_off_c, 0, 64, 66
1, 125143, Note_on_c, 0, 49, 65
1, 125185, Note_off_c, 0, 49, 63
1, 125200, Note_on_c, 0, 63, 87
1, 125213, Note_on_c, 0, 52, 73
1, 125223, Note_off_c, 0, 63, 68
1, 125240, Note_off_c, 0, 52, 66
1, 125289, Note_on_c, 0, 41, 66
1, 125303, Note_on_c, 0, 61, 76
1, 125331, Note_off_c, 0, 61, 63
1, 125334, Note_off_c, 0, 41, 59
1, 125362, Note_on_c, 0, 44, 38
1, 125375, Note_on_c, 0, 47, 57
1, 125396, Note_on_c, 0, 59, 73
1, 125400, Note_off_c, 0, 44, 49
1, 125423, Note_off_c, 0, 59, 66
1, 125425, Note_off_c, 0, 47, 60
1, 125441, Note_on_c, 0, 49, 74
1, 125497, Note_on_c, 0, 60, 107
1, 125497, Note_off_c, 0, 49, 55
1, 125505, Note_on_c, 0, 52, 87
1, 125528, Note_off_c, 0, 60, 67
1, 125531, Note_off_c, 0, 52, 67
1, 125592, Note_on_c, 0, 41, 71
1, 125605, Note_on_c, 0, 60, 77
1, 125629, Note_off_c, 0, 60, 68
1, 125641, Note_off_c, 0, 41, 55
1, 125687, Note_on_c, 0, 47, 53
1, 125692, Note_on_c, 0, 60, 75
1, 125724, Note_off_c, 0, 60, 67
1, 125731, Note_off_c, 0, 47, 61
1, 125757, Note_on_c, 0, 49, 65
1, 125808, Note_off_c, 0, 49, 64
1, 125840, Note_on_c, 0, 52, 67
1, 125870, Note_off_c, 0, 52, 64
1, 125917, Note_on_c, 0, 62, 68
1, 125925, Note_on_c, 0, 41, 54
1, 125936, Note_off_c, 0, 62, 65
1, 125955, Note_off_c, 0, 41, 54
1, 126008, Note_on_c, 0, 47, 53
1, 126013, Note_on_c, 0, 64, 69
1, 126031, Note_off_c, 0, 64, 67
1, 126055, Note_off_c, 0, 47, 61
1, 126076, Note_on_c, 0, 49, 64
1, 126106, Note_on_c, 0, 63, 75
1, 126119, Note_off_c, 0, 49, 64
1, 126130, Note_on_c, 0, 52, 64
1, 126132, Note_off_c, 0, 63, 69
1, 126160, Note_off_c, 0, 52, 64
1, 126200, Note_on_c, 0, 61, 71
1, 126209, Note_on_c, 0, 41, 70
1, 126231, Note_off_c, 0, 61, 64
1, 126252, Note_off_c, 0, 41, 59
1, 126292, Note_on_c, 0, 47, 61
1, 126292, Note_on_c, 0, 59, 74
1, 126317, Note_off_c, 0, 59, 67
1, 126348, Note_off_c, 0, 47, 61
1, 126356, Note_on_c, 0, 49, 70
1, 126394, Note_on_c, 0, 60, 109
1, 126409, Note_on_c, 0, 52, 87
1, 126409, Note_off_c, 0, 49, 59
1, 126427, Note_off_c, 0, 60, 67
1, 126433, Note_off_c, 0, 52, 69
1, 126499, Note_on_c, 0, 41, 66
1, 126503, Note_on_c, 0, 60, 79
1, 126533, Note_off_c, 0, 60, 70
1, 126547, Note_off_c, 0, 41, 59
1, 126596, Note_on_c, 0, 47, 49
1, 126603, Note_on_c, 0, 60, 75
1, 126630, Note_off_c, 0, 60, 69
1, 126638, Note_off_c, 0, 47, 60
1, 126664, Note_on_c, 0, 49, 67
1, 126710, Note_off_c, 0, 49, 63
1, 126730, Note_on_c, 0, 52, 77
1, 126755, Note_off_c, 0, 52, 66
1, 126815, Note_on_c, 0, 62, 72
1, 126819, Note_on_c, 0, 41, 60
1, 126843, Note_off_c, 0, 62, 67
1, 126858, Note_off_c, 0, 41, 61
1, 126904, Note_on_c, 0, 47, 52
1, 126906, Note_on_c, 0, 64, 80
1, 126927, Note_off_c, 0, 64, 71
1, 126948, Note_off_c, 0, 47, 59
1, 126975, Note_on_c, 0, 49, 68
1, 127006, Note_on_c, 0, 63, 94
1, 127015, Note_off_c, 0, 49, 63
1, 127021, Note_on_c, 0, 52, 79
1, 127046, Note_off_c, 0, 52, 67
1, 127047, Note_off_c, 0, 63, 60
1, 127103, Note_on_c, 0, 63, 64
1, 127107, Note_on_c, 0, 41, 62
1, 127127, Note_off_c, 0, 63, 69
1, 127152, Note_off_c, 0, 41, 58
1, 127177, Note_on_c, 0, 44, 37
1, 127191, Note_on_c, 0, 63, 72
1, 127202, Note_on_c, 0, 47, 56
1, 127210, Note_off_c, 0, 44, 49
1, 127216, Note_off_c, 0, 63, 69
1, 127263, Note_off_c, 0, 47, 59
1, 127278, Note_on_c, 0, 49, 58
1, 127314, Note_off_c, 0, 49, 63
1, 127323, Note_on_c, 0, 52, 78
1, 127347, Note_off_c, 0, 52, 66
1, 127406, Note_on_c, 0, 41, 68
1, 127419, Note_on_c, 0, 63, 70
1, 127441, Note_off_c, 0, 63, 66
1, 127469, Note_off_c, 0, 41, 51
1, 127513, Note_on_c, 0, 63, 57
1, 127524, Note_on_c, 0, 47, 52
1, 127535, Note_off_c, 0, 63, 60
1, 127559, Note_off_c, 0, 47, 62
1, 127584, Note_on_c, 0, 49, 36
1, 127617, Note_on_c, 0, 52, 73
1, 127620, Note_off_c, 0, 49, 48
1, 127649, Note_off_c, 0, 52, 65
1, 127697, Note_on_c, 0, 41, 66
1, 127699, Note_on_c, 0, 63, 82
1, 127726, Note_off_c, 0, 63, 66
1, 127745, Note_off_c, 0, 41, 56
1, 127796, Note_on_c, 0, 47, 51
1, 127802, Note_on_c, 0, 63, 66
1, 127823, Note_on_c, 0, 49, 68
1, 127825, Note_off_c, 0, 47, 58
1, 127832, Note_off_c, 0, 63, 65
1, 127896, Note_off_c, 0, 49, 61
1, 127908, Note_on_c, 0, 52, 87
1, 127938, Note_off_c, 0, 52, 63
1, 127996, Note_on_c, 0, 41, 69
1, 128002, Note_on_c, 0, 63, 72
1, 128037, Note_off_c, 0, 63, 68
1, 128048, Note_off_c, 0, 41, 59
1, 128093, Note_on_c, 0, 47, 57
1, 128095, Note_on_c, 0, 44, 12
1, 128108, Note_on_c, 0, 61, 77
1, 128136, Note_off_c, 0, 61, 66
1, 128143, Note_off_c, 0, 44, 38
1, 128144, Note_off_c, 0, 47, 58
1, 128174, Note_on_c, 0, 49, 59
1, 128204, Note_on_c, 0, 59, 78
1, 128209, Note_off_c, 0, 49, 65
1, 128227, Note_on_c, 0, 52, 68
1, 128227, Note_off_c, 0, 59, 68
1, 128256, Note_off_c, 0, 52, 64
1, 128299, Note_on_c, 0, 41, 65
1, 128301, Note_on_c, 0, 57, 77
1, 128326, Note_off_c, 0, 57, 68
1, 128347, Note_off_c, 0, 41, 57
1, 128387, Note_on_c, 0, 47, 59
1, 128398, Note_on_c, 0, 55, 75
1, 128424, Note_off_c, 0, 55, 66
1, 128434, Note_off_c, 0, 47, 62
1, 128458, Note_on_c, 0, 49, 59
1, 128491, Note_on_c, 0, 53, 88
1, 128503, Note_off_c, 0, 49, 61
1, 128504, Note_on_c, 0, 52, 81
1, 128520, Note_off_c, 0, 53, 67
1, 128530, Note_off_c, 0, 52, 69
1, 128592, Note_on_c, 0, 41, 63
1, 128598, Note_on_c, 0, 53, 67
1, 128619, Note_off_c, 0, 53, 65
1, 128642, Note_off_c, 0, 41, 56
1, 128681, Note_on_c, 0, 44, 7
1, 128684, Note_on_c, 0, 53, 70
1, 128687, Note_on_c, 0, 47, 53
1, 128714, Note_off_c, 0, 53, 67
1, 128728, Note_off_c, 0, 44, 43
1, 128734, Note_off_c, 0, 47, 61
1, 128754, Note_on_c, 0, 49, 62
1, 128804, Note_off_c, 0, 49, 62
1, 128815, Note_on_c, 0, 52, 90
1, 128842, Note_off_c, 0, 52, 67
1, 128905, Note_on_c, 0, 53, 79
1, 128908, Note_on_c, 0, 41, 62
1, 128930, Note_off_c, 0, 53, 70
1, 128949, Note_off_c, 0, 41, 60
1, 128992, Note_on_c, 0, 44, 12
1, 129005, Note_on_c, 0, 47, 52
1, 129035, Note_off_c, 0, 44, 40
1, 129054, Note_off_c, 0, 47, 60
1, 129072, Note_on_c, 0, 49, 66
1, 129124, Note_off_c, 0, 49, 59
1, 129144, Note_on_c, 0, 53, 88
1, 129153, Note_on_c, 0, 52, 73
1, 129167, Note_off_c, 0, 53, 71
1, 129179, Note_off_c, 0, 52, 66
1, 129241, Note_on_c, 0, 41, 58
1, 129245, Note_on_c, 0, 53, 75
1, 129268, Note_off_c, 0, 53, 69
1, 129291, Note_off_c, 0, 41, 57
1, 129324, Note_on_c, 0, 44, 24
1, 129344, Note_on_c, 0, 47, 46
1, 129363, Note_off_c, 0, 44, 44
1, 129392, Note_off_c, 0, 47, 60
1, 129405, Note_on_c, 0, 49, 63
1, 129453, Note_off_c, 0, 49, 60
1, 129456, Note_on_c, 0, 53, 99
1, 129465, Note_on_c, 0, 52, 88
1, 129487, Note_off_c, 0, 53, 67
1, 129492, Note_off_c, 0, 52, 65
1, 129563, Note_on_c, 0, 41, 65
1, 129567, Note_on_c, 0, 53, 75
1, 129591, Note_off_c, 0, 53, 70
1, 129608, Note_off_c, 0, 41, 58
1, 129650, Note_on_c, 0, 47, 57
1, 129656, Note_on_c, 0, 53, 69
1, 129686, Note_off_c, 0, 53, 66
1, 129700, Note_off_c, 0, 47, 61
1, 129734, Note_on_c, 0, 49, 43
1, 129766, Note_off_c, 0, 49, 56
1, 129781, Note_on_c, 0, 52, 91
1, 129814, Note_off_c, 0, 52, 65
1, 129882, Note_on_c, 0, 41, 49
1, 129888, Note_on_c, 0, 53, 68
1, 129909, Note_off_c, 0, 53, 65
1, 129931, Note_off_c, 0, 41, 44
1, 129966, Note_on_c, 0, 47, 52
1, 129972, Note_on_c, 0, 53, 69
1, 129998, Note_off_c, 0, 53, 68
1, 130021, Note_off_c, 0, 47, 62
1, 130038, Note_on_c, 0, 49, 57
1, 130079, Note_off_c, 0, 49, 63
1, 130085, Note_on_c, 0, 52, 81
1, 130112, Note_off_c, 0, 52, 69
1, 130171, Note_on_c, 0, 41, 64
1, 130184, Note_on_c, 0, 53, 74
1, 130213, Note_off_c, 0, 53, 66
1, 130220, Note_off_c, 0, 41, 56
1, 130276, Note_on_c, 0, 47, 52
1, 130284, Note_on_c, 0, 53, 68
1, 130312, Note_off_c, 0, 53, 67
1, 130325, Note_off_c, 0, 47, 62
1, 130344, Note_on_c, 0, 49, 63
1, 130385, Note_off_c, 0, 49, 62
1, 130395, Note_on_c, 0, 53, 84
1, 130397, Note_on_c, 0, 52, 93
1, 130424, Note_off_c, 0, 53, 64
1, 130431, Note_off_c, 0, 52, 65
1, 130487, Note_on_c, 0, 41, 69
1, 130510, Note_on_c, 0, 53, 53
1, 130535, Note_off_c, 0, 41, 55
1, 130535, Note_off_c, 0, 53, 60
1, 130592, Note_on_c, 0, 47, 51
1, 130594, Note_on_c, 0, 44, 3
1, 130631, Note_off_c, 0, 44, 37
1, 130642, Note_off_c, 0, 47, 60
1, 130656, Note_on_c, 0, 49, 62
1, 130699, Note_off_c, 0, 49, 63
1, 130726, Note_on_c, 0, 59, 93
1, 130733, Note_on_c, 0, 52, 70
1, 130757, Note_off_c, 0, 59, 66
1, 130760, Note_off_c, 0, 52, 66
1, 130812, Note_on_c, 0, 41, 65
1, 130824, Note_on_c, 0, 57, 77
1, 130849, Note_off_c, 0, 57, 68
1, 130868, Note_off_c, 0, 41, 53
1, 130918, Note_on_c, 0, 47, 47
1, 130929, Note_on_c, 0, 55, 67
1, 130937, Poly_aftertouch_c, 0, 44, 127
1, 130960, Note_off_c, 0, 55, 62
1, 130965, Poly_aftertouch_c, 0, 44, 0
1, 130966, Note_off_c, 0, 47, 63
1, 130985, Note_on_c, 0, 49, 54
1, 131024, Note_on_c, 0, 53, 73
1, 131033, Note_off_c, 0, 49, 63
1, 131051, Note_off_c, 0, 53, 67
1, 131053, Note_on_c, 0, 52, 66
1, 131084, Note_off_c, 0, 52, 64
1, 131128, Note_on_c, 0, 41, 60
1, 131188, Note_off_c, 0, 41, 54
1, 131197, Note_on_c, 0, 44, 49
1, 131231, Note_on_c, 0, 47, 49
1, 131245, Note_off_c, 0, 44, 49
1, 131279, Note_off_c, 0, 47, 63
1, 131292, Note_on_c, 0, 49, 68
1, 131340, Note_off_c, 0, 49, 61
1, 131346, Note_on_c, 0, 57, 82
1, 131360, Note_on_c, 0, 52, 76
1, 131368, Note_off_c, 0, 57, 70
1, 131384, Note_off_c, 0, 52, 67
1, 131441, Note_on_c, 0, 41, 64
1, 131459, Note_on_c, 0, 55, 63
1, 131480, Note_off_c, 0, 55, 61
1, 131492, Note_off_c, 0, 41, 54
1, 131543, Note_on_c, 0, 47, 47
1, 131546, Note_on_c, 0, 53, 65
1, 131581, Note_off_c, 0, 53, 66
1, 131598, Note_off_c, 0, 47, 60
1, 131613, Note_on_c, 0, 49, 53
1, 131650, Note_off_c, 0, 49, 59
1, 131656, Control_c, 0, 64, 25
1, 131657, Note_on_c, 0, 52, 80
1, 131671, Control_c, 0, 64, 31
1, 131686, Control_c, 0, 64, 0
1, 131687, Note_off_c, 0, 52, 66
1, 131753, Note_on_c, 0, 41, 65
1, 131759, Note_on_c, 0, 56, 83
1, 131790, Note_off_c, 0, 56, 69
1, 131835, Note_off_c, 0, 41, 57
1, 131862, Note_on_c, 0, 44, 23
1, 131865, Note_on_c, 0, 47, 56
1, 131871, Note_on_c, 0, 55, 87
1, 131900, Note_off_c, 0, 55, 62
1, 131901, Note_off_c, 0, 44, 49
1, 131918, Note_on_c, 0, 49, 57
1, 131920, Note_off_c, 0, 47, 57
1, 131946, Control_c, 0, 64, 13
1, 131961, Control_c, 0, 64, 63
1, 131963, Note_off_c, 0, 49, 61
1, 131966, Note_on_c, 0, 52, 85
1, 131966, Note_on_c, 0, 53, 96
1, 131976, Control_c, 0, 64, 65
1, 131991, Control_c, 0, 64, 64
1, 132002, Note_off_c, 0, 52, 63
1, 132005, Control_c, 0, 64, 50
1, 132008, Note_off_c, 0, 53, 69
1, 132020, Control_c, 0, 64, 0
1, 132043, Note_on_c, 0, 41, 72
1, 132064, Note_on_c, 0, 55, 99
1, 132097, Note_off_c, 0, 55, 66
1, 132105, Note_off_c, 0, 41, 57
1, 132122, Note_on_c, 0, 44, 35
1, 132129, Note_on_c, 0, 46, 21
1, 132157, Note_off_c, 0, 44, 51
1, 132163, Note_on_c, 0, 54, 99
1, 132166, Note_on_c, 0, 49, 77
1, 132175, Note_off_c, 0, 46, 29
1, 132202, Note_off_c, 0, 54, 66
1, 132227, Note_off_c, 0, 49, 60
1, 132257, Control_c, 0, 64, 31
1, 132261, Note_on_c, 0, 52, 87
1, 132267, Note_on_c, 0, 53, 98
1, 132272, Control_c, 0, 64, 83
1, 132287, Control_c, 0, 64, 127
1, 132291, Note_off_c, 0, 52, 64
1, 132303, Note_off_c, 0, 53, 72
1, 132330, Control_c, 0, 64, 116
1, 132345, Poly_aftertouch_c, 0, 46, 127
1, 132345, Control_c, 0, 64, 83
1, 132360, Control_c, 0, 64, 59
1, 132369, Poly_aftertouch_c, 0, 46, 0
1, 132373, Note_on_c, 0, 37, 69
1, 132375, Control_c, 0, 64, 0
1, 132456, Note_on_c, 0, 41, 67
1, 132460, Note_off_c, 0, 37, 61
1, 132535, Note_on_c, 0, 44, 67
1, 132562, Note_off_c, 0, 41, 61
1, 132591, Control_c, 0, 64, 77
1, 132592, Note_on_c, 0, 29, 116
1, 132592, Note_on_c, 0, 47, 45
1, 132598, Note_off_c, 0, 44, 59
1, 132601, Note_on_c, 0, 52, 93
1, 132606, Control_c, 0, 64, 127
1, 132613, Note_off_c, 0, 29, 71
1, 132639, Note_off_c, 0, 52, 61
1, 132641, Note_off_c, 0, 47, 62
1, 132679, Control_c, 0, 64, 79
1, 132694, Control_c, 0, 64, 46
1, 132709, Control_c, 0, 64, 0
1, 132732, Note_on_c, 0, 37, 60
1, 132768, Note_off_c, 0, 37, 63
1, 132798, Note_on_c, 0, 41, 48
1, 132842, Note_off_c, 0, 41, 47
1, 132847, Note_on_c, 0, 44, 61
1, 132901, Note_off_c, 0, 44, 59
1, 132902, Control_c, 0, 64, 52
1, 132917, Control_c, 0, 64, 93
1, 132920, Note_on_c, 0, 76, 112
1, 132926, Note_on_c, 0, 89, 110
1, 132927, Note_on_c, 0, 88, 98
1, 132928, Note_on_c, 0, 87, 97
1, 132930, Note_on_c, 0, 52, 87
1, 132930, Note_on_c, 0, 77, 96
1, 132932, Control_c, 0, 64, 127
1, 132941, Note_off_c, 0, 77, 78
1, 132943, Note_off_c, 0, 76, 66
1, 132946, Note_off_c, 0, 87, 67
1, 132948, Note_off_c, 0, 88, 69
1, 132948, Note_off_c, 0, 89, 64
1, 132950, Note_on_c, 0, 47, 45
1, 132953, Note_off_c, 0, 52, 67
1, 132961, Control_c, 0, 64, 109
1, 132976, Control_c, 0, 64, 79
1, 132982, Note_off_c, 0, 47, 61
1, 132991, Control_c, 0, 64, 35
1, 133006, Control_c, 0, 64, 0
1, 133011, Note_on_c, 0, 77, 17
1, 133029, Note_on_c, 0, 37, 69
1, 133035, Note_off_c, 0, 77, 39
1, 133072, Note_off_c, 0, 37, 63
1, 133104, Note_on_c, 0, 41, 58
1, 133146, Note_on_c, 0, 44, 69
1, 133152, Note_off_c, 0, 41, 62
1, 133221, Note_on_c, 0, 47, 45
1, 133236, Note_off_c, 0, 44, 59
1, 133242, Control_c, 0, 64, 64
1, 133245, Note_on_c, 0, 52, 89
1, 133252, Note_on_c, 0, 89, 104
1, 133255, Note_on_c, 0, 76, 93
1, 133256, Note_on_c, 0, 77, 95
1, 133257, Control_c, 0, 64, 77
1, 133259, Note_on_c, 0, 88, 96
1, 133260, Note_on_c, 0, 87, 90
1, 133279, Note_off_c, 0, 76, 75
1, 133279, Control_c, 0, 64, 78
1, 133280, Note_off_c, 0, 77, 74
1, 133290, Note_off_c, 0, 52, 62
1, 133295, Control_c, 0, 64, 68
1, 133297, Note_on_c, 0, 79, 45
1, 133298, Note_off_c, 0, 79, 127
1, 133299, Note_off_c, 0, 89, 65
1, 133300, Note_off_c, 0, 88, 58
1, 133305, Note_off_c, 0, 47, 52
1, 133305, Note_off_c, 0, 87, 55
1, 133310, Control_c, 0, 64, 0
1, 133362, Note_on_c, 0, 37, 73
1, 133414, Note_off_c, 0, 37, 59
1, 133444, Note_on_c, 0, 41, 52
1, 133492, Note_on_c, 0, 44, 69
1, 133507, Note_off_c, 0, 41, 58
1, 133552, Note_on_c, 0, 47, 67
1, 133561, Control_c, 0, 64, 27
1, 133576, Control_c, 0, 64, 59
1, 133591, Note_off_c, 0, 44, 60
1, 133591, Control_c, 0, 64, 53
1, 133602, Note_on_c, 0, 52, 86
1, 133606, Control_c, 0, 64, 25
1, 133621, Control_c, 0, 64, 0
1, 133628, Note_off_c, 0, 52, 68
1, 133634, Note_off_c, 0, 47, 62
1, 133713, Note_on_c, 0, 37, 60
1, 133755, Note_off_c, 0, 37, 62
1, 133765, Note_on_c, 0, 41, 63
1, 133814, Control_c, 0, 64, 25
1, 133826, Note_on_c, 0, 44, 70
1, 133829, Control_c, 0, 64, 68
1, 133843, Control_c, 0, 64, 95
1, 133844, Note_off_c, 0, 41, 61
1, 133858, Control_c, 0, 64, 127
1, 133883, Note_on_c, 0, 47, 59
1, 133885, Note_on_c, 0, 29, 109
1, 133896, Note_off_c, 0, 44, 60
1, 133907, Note_on_c, 0, 52, 91
1, 133910, Note_off_c, 0, 29, 68
1, 133917, Control_c, 0, 64, 105
1, 133932, Note_off_c, 0, 52, 68
1, 133932, Control_c, 0, 64, 75
1, 133940, Note_off_c, 0, 47, 64
1, 133947, Control_c, 0, 64, 45
1, 133961, Control_c, 0, 64, 0
1, 133991, Control_c, 0, 64, 30
1, 134006, Control_c, 0, 64, 41
1, 134028, Control_c, 0, 64, 39
1, 134043, Control_c, 0, 64, 38
1, 134044, Note_on_c, 0, 37, 48
1, 134058, Control_c, 0, 64, 34
1, 134073, Control_c, 0, 64, 21
1, 134087, Note_off_c, 0, 37, 59
1, 134088, Control_c, 0, 64, 0
1, 134099, Note_on_c, 0, 41, 58
1, 134148, Control_c, 0, 64, 9
1, 134153, Note_on_c, 0, 44, 68
1, 134163, Control_c, 0, 64, 56
1, 134173, Note_off_c, 0, 41, 59
1, 134178, Control_c, 0, 64, 75
1, 134192, Control_c, 0, 64, 127
1, 134214, Note_on_c, 0, 29, 113
1, 134217, Note_on_c, 0, 47, 55
1, 134227, Note_off_c, 0, 44, 60
1, 134234, Note_on_c, 0, 52, 92
1, 134238, Note_off_c, 0, 29, 69
1, 134258, Note_off_c, 0, 52, 69
1, 134266, Control_c, 0, 64, 95
1, 134281, Control_c, 0, 64, 66
1, 134282, Note_off_c, 0, 47, 49
1, 134296, Control_c, 0, 64, 0
1, 134369, Note_on_c, 0, 37, 49
1, 134370, Control_c, 0, 64, 28
1, 134384, Control_c, 0, 64, 32
1, 134399, Control_c, 0, 64, 35
1, 134405, Note_off_c, 0, 37, 63
1, 134414, Control_c, 0, 64, 42
1, 134416, Note_on_c, 0, 41, 56
1, 134429, Control_c, 0, 64, 48
1, 134443, Control_c, 0, 64, 51
1, 134458, Control_c, 0, 64, 52
1, 134473, Control_c, 0, 64, 53
1, 134477, Note_on_c, 0, 44, 68
1, 134488, Control_c, 0, 64, 55
1, 134491, Note_off_c, 0, 41, 59
1, 134503, Control_c, 0, 64, 57
1, 134518, Control_c, 0, 64, 59
1, 134524, Note_on_c, 0, 47, 53
1, 134533, Control_c, 0, 64, 60
1, 134559, Note_off_c, 0, 44, 58
1, 134571, Note_on_c, 0, 52, 90
1, 134607, Control_c, 0, 64, 60
1, 134609, Note_off_c, 0, 52, 64
1, 134643, Note_off_c, 0, 47, 38
1, 134652, Control_c, 0, 64, 59
1, 134682, Control_c, 0, 64, 59
1, 134696, Note_on_c, 0, 37, 71
1, 134706, Note_on_c, 0, 89, 99
1, 134711, Note_on_c, 0, 76, 94
1, 134711, Note_on_c, 0, 87, 94
1, 134711, Control_c, 0, 64, 58
1, 134713, Note_on_c, 0, 77, 88
1, 134714, Note_on_c, 0, 88, 87
1, 134726, Control_c, 0, 64, 58
1, 134728, Note_off_c, 0, 76, 73
1, 134731, Note_off_c, 0, 87, 64
1, 134732, Note_off_c, 0, 89, 66
1, 134732, Note_off_c, 0, 77, 71
1, 134733, Note_off_c, 0, 88, 73
1, 134741, Control_c, 0, 64, 57
1, 134741, Note_off_c, 0, 37, 59
1, 134753, Note_on_c, 0, 41, 65
1, 134756, Control_c, 0, 64, 55
1, 134778, Control_c, 0, 64, 50
1, 134792, Control_c, 0, 64, 43
1, 134807, Control_c, 0, 64, 30
1, 134808, Note_on_c, 0, 44, 76
1, 134822, Control_c, 0, 64, 0
1, 134839, Note_off_c, 0, 41, 61
1, 134846, Note_on_c, 0, 47, 63
1, 134879, Note_on_c, 0, 52, 97
1, 134905, Note_off_c, 0, 44, 59
1, 134912, Control_c, 0, 64, 31
1, 134927, Control_c, 0, 64, 39
1, 134932, Note_off_c, 0, 52, 65
1, 134941, Control_c, 0, 64, 41
1, 134962, Note_off_c, 0, 47, 37
1, 134971, Control_c, 0, 64, 42
1, 134986, Control_c, 0, 64, 42
1, 135001, Control_c, 0, 64, 44
1, 135004, Note_on_c, 0, 37, 74
1, 135015, Control_c, 0, 64, 45
1, 135021, Note_on_c, 0, 89, 103
1, 135024, Note_on_c, 0, 76, 96
1, 135026, Note_on_c, 0, 87, 92
1, 135027, Note_on_c, 0, 77, 93
1, 135029, Note_on_c, 0, 88, 87
1, 135030, Control_c, 0, 64, 46
1, 135041, Note_off_c, 0, 76, 74
1, 135043, Note_off_c, 0, 77, 76
1, 135045, Control_c, 0, 64, 48
1, 135050, Note_off_c, 0, 88, 72
1, 135051, Note_off_c, 0, 87, 62
1, 135051, Note_off_c, 0, 89, 65
1, 135060, Control_c, 0, 64, 48
1, 135063, Note_off_c, 0, 37, 61
1, 135081, Note_on_c, 0, 41, 70
1, 135090, Control_c, 0, 64, 49
1, 135124, Note_on_c, 0, 44, 73
1, 135134, Control_c, 0, 64, 48
1, 135149, Control_c, 0, 64, 45
1, 135158, Note_off_c, 0, 41, 60
1, 135164, Control_c, 0, 64, 44
1, 135176, Note_on_c, 0, 47, 50
1, 135179, Control_c, 0, 64, 44
1, 135194, Control_c, 0, 64, 44
1, 135195, Note_on_c, 0, 52, 94
1, 135212, Note_off_c, 0, 44, 59
1, 135223, Control_c, 0, 64, 45
1, 135238, Control_c, 0, 64, 47
1, 135242, Note_off_c, 0, 52, 64
1, 135244, Note_off_c, 0, 47, 59
1, 135253, Control_c, 0, 64, 49
1, 135267, Control_c, 0, 64, 51
1, 135282, Control_c, 0, 64, 52
1, 135297, Control_c, 0, 64, 54
1, 135312, Control_c, 0, 64, 54
1, 135320, Note_on_c, 0, 37, 74
1, 135327, Control_c, 0, 64, 55
1, 135329, Note_on_c, 0, 89, 111
1, 135337, Note_on_c, 0, 77, 96
1, 135337, Note_on_c, 0, 87, 94
1, 135338, Note_on_c, 0, 76, 93
1, 135339, Note_on_c, 0, 88, 87
1, 135341, Control_c, 0, 64, 56
1, 135354, Note_off_c, 0, 77, 74
1, 135354, Note_off_c, 0, 88, 68
1, 135356, Control_c, 0, 64, 56
1, 135357, Note_off_c, 0, 76, 72
1, 135361, Note_off_c, 0, 87, 64
1, 135367, Note_off_c, 0, 89, 65
1, 135382, Note_off_c, 0, 37, 60
1, 135386, Control_c, 0, 64, 56
1, 135397, Note_on_c, 0, 41, 65
1, 135401, Control_c, 0, 64, 54
1, 135415, Control_c, 0, 64, 53
1, 135430, Control_c, 0, 64, 52
1, 135446, Note_on_c, 0, 44, 71
1, 135474, Control_c, 0, 64, 52
1, 135482, Note_off_c, 0, 41, 61
1, 135489, Control_c, 0, 64, 54
1, 135501, Note_on_c, 0, 47, 67
1, 135504, Control_c, 0, 64, 51
1, 135527, Control_c, 0, 64, 0
1, 135534, Note_off_c, 0, 44, 60
1, 135543, Note_on_c, 0, 52, 86
1, 135577, Note_off_c, 0, 52, 63
1, 135578, Note_off_c, 0, 47, 63
1, 135660, Note_on_c, 0, 37, 61
1, 135704, Note_off_c, 0, 37, 64
1, 135734, Note_on_c, 0, 41, 48
1, 135785, Note_on_c, 0, 44, 70
1, 135800, Note_off_c, 0, 41, 40
1, 135824, Control_c, 0, 64, 62
1, 135838, Control_c, 0, 64, 89
1, 135844, Note_on_c, 0, 47, 61
1, 135853, Control_c, 0, 64, 127
1, 135860, Note_off_c, 0, 44, 60
1, 135863, Note_on_c, 0, 29, 111
1, 135875, Note_on_c, 0, 52, 90
1, 135890, Note_off_c, 0, 29, 67
1, 135910, Note_off_c, 0, 52, 61
1, 135916, Note_off_c, 0, 47, 56
1, 135928, Control_c, 0, 64, 86
1, 135943, Control_c, 0, 64, 59
1, 135957, Control_c, 0, 64, 0
1, 136002, Note_on_c, 0, 37, 59
1, 136053, Note_off_c, 0, 37, 59
1, 136060, Control_c, 0, 67, 8
1, 136075, Control_c, 0, 67, 11
1, 136077, Note_on_c, 0, 41, 47
1, 136089, Control_c, 0, 67, 12
1, 136104, Control_c, 0, 67, 13
1, 136119, Control_c, 0, 67, 15
1, 136129, Note_off_c, 0, 41, 58
1, 136130, Note_on_c, 0, 44, 60
1, 136134, Control_c, 0, 67, 16
1, 136149, Control_c, 0, 67, 17
1, 136163, Control_c, 0, 67, 18
1, 136190, Note_off_c, 0, 44, 53
1, 136208, Control_c, 0, 67, 17
1, 136223, Control_c, 0, 67, 16
1, 136225, Note_on_c, 0, 52, 67
1, 136226, Poly_aftertouch_c, 0, 47, 127
1, 136238, Control_c, 0, 67, 15
1, 136260, Control_c, 0, 67, 14
1, 136263, Note_off_c, 0, 52, 65
1, 136269, Poly_aftertouch_c, 0, 47, 0
1, 136289, Control_c, 0, 67, 14
1, 136319, Control_c, 0, 67, 13
1, 136329, Note_on_c, 0, 65, 63
1, 136351, Note_on_c, 0, 37, 45
1, 136351, Note_off_c, 0, 65, 63
1, 136381, Note_off_c, 0, 37, 54
1, 136390, Poly_aftertouch_c, 0, 53, 127
1, 136412, Poly_aftertouch_c, 0, 53, 0
1, 136415, Note_on_c, 0, 41, 49
1, 136431, Note_on_c, 0, 67, 76
1, 136443, Note_on_c, 0, 55, 49
1, 136454, Note_off_c, 0, 67, 68
1, 136457, Note_on_c, 0, 44, 62
1, 136457, Note_off_c, 0, 41, 61
1, 136467, Control_c, 0, 67, 12
1, 136471, Note_off_c, 0, 55, 36
1, 136482, Control_c, 0, 67, 11
1, 136498, Control_c, 0, 67, 11
1, 136506, Note_off_c, 0, 44, 59
1, 136512, Control_c, 0, 67, 10
1, 136535, Note_on_c, 0, 52, 80
1, 136536, Note_on_c, 0, 69, 85
1, 136541, Note_on_c, 0, 57, 80
1, 136542, Note_on_c, 0, 47, 25
1, 136556, Note_off_c, 0, 69, 72
1, 136557, Control_c, 0, 67, 10
1, 136561, Note_off_c, 0, 52, 71
1, 136566, Note_off_c, 0, 57, 69
1, 136578, Note_off_c, 0, 47, 52
1, 136631, Control_c, 0, 67, 10
1, 136634, Note_on_c, 0, 37, 59
1, 136640, Note_on_c, 0, 71, 87
1, 136646, Control_c, 0, 67, 11
1, 136654, Note_on_c, 0, 59, 60
1, 136659, Note_off_c, 0, 71, 73
1, 136676, Control_c, 0, 67, 11
1, 136676, Note_off_c, 0, 59, 59
1, 136678, Note_off_c, 0, 37, 62
1, 136706, Control_c, 0, 67, 12
1, 136734, Note_on_c, 0, 41, 20
1, 136735, Control_c, 0, 67, 12
1, 136738, Note_on_c, 0, 73, 81
1, 136742, Note_on_c, 0, 61, 78
1, 136744, Note_on_c, 0, 44, 68
1, 136750, Control_c, 0, 67, 13
1, 136760, Note_off_c, 0, 73, 69
1, 136768, Note_off_c, 0, 61, 67
1, 136777, Note_off_c, 0, 41, 39
1, 136786, Note_on_c, 0, 47, 50
1, 136809, Control_c, 0, 67, 12
1, 136819, Note_off_c, 0, 44, 50
1, 136836, Note_on_c, 0, 52, 84
1, 136838, Control_c, 0, 67, 12
1, 136845, Note_on_c, 0, 75, 88
1, 136850, Note_on_c, 0, 63, 84
1, 136853, Control_c, 0, 67, 11
1, 136860, Note_off_c, 0, 52, 70
1, 136864, Note_off_c, 0, 47, 0
1, 136864, Note_off_c, 0, 75, 67
1, 136868, Control_c, 0, 64, 9
1, 136875, Note_off_c, 0, 63, 68
1, 136883, Control_c, 0, 64, 0
1, 136901, Poly_aftertouch_c, 0, 47, 127
1, 136912, Control_c, 0, 67, 12
1, 136927, Poly_aftertouch_c, 0, 47, 0
1, 136943, Note_on_c, 0, 75, 72
1, 136950, Note_on_c, 0, 37, 53
1, 136951, Note_on_c, 0, 63, 67
1, 136957, Control_c, 0, 67, 12
1, 136965, Note_off_c, 0, 75, 69
1, 136972, Note_off_c, 0, 63, 64
1, 136972, Control_c, 0, 67, 13
1, 136977, Note_off_c, 0, 37, 55
1, 136986, Control_c, 0, 67, 13
1, 137001, Control_c, 0, 67, 14
1, 137024, Control_c, 0, 67, 15
1, 137038, Control_c, 0, 67, 16
1, 137051, Note_on_c, 0, 63, 69
1, 137053, Control_c, 0, 67, 17
1, 137057, Note_on_c, 0, 41, 37
1, 137066, Note_on_c, 0, 75, 56
1, 137068, Control_c, 0, 67, 18
1, 137078, Note_on_c, 0, 44, 56
1, 137081, Note_off_c, 0, 63, 67
1, 137083, Control_c, 0, 67, 19
1, 137087, Note_off_c, 0, 75, 62
1, 137093, Note_off_c, 0, 41, 45
1, 137098, Control_c, 0, 67, 20
1, 137112, Control_c, 0, 67, 22
1, 137127, Control_c, 0, 67, 22
1, 137133, Note_off_c, 0, 44, 59
1, 137142, Control_c, 0, 67, 23
1, 137150, Poly_aftertouch_c, 0, 47, 127
1, 137153, Note_on_c, 0, 52, 77
1, 137157, Control_c, 0, 67, 23
1, 137178, Note_off_c, 0, 52, 66
1, 137186, Control_c, 0, 67, 23
1, 137208, Poly_aftertouch_c, 0, 47, 0
1, 137216, Control_c, 0, 67, 22
1, 137245, Control_c, 0, 67, 22
1, 137256, Note_on_c, 0, 37, 64
1, 137257, Note_on_c, 0, 63, 67
1, 137266, Note_on_c, 0, 75, 56
1, 137287, Note_off_c, 0, 75, 61
1, 137290, Note_off_c, 0, 63, 66
1, 137299, Note_off_c, 0, 37, 63
1, 137326, Note_on_c, 0, 41, 52
1, 137355, Note_on_c, 0, 75, 76
1, 137358, Note_on_c, 0, 63, 72
1, 137365, Control_c, 0, 67, 21
1, 137378, Note_off_c, 0, 41, 55
1, 137379, Note_off_c, 0, 75, 64
1, 137380, Control_c, 0, 67, 20
1, 137386, Note_on_c, 0, 44, 49
1, 137387, Note_off_c, 0, 63, 67
1, 137395, Control_c, 0, 67, 20
1, 137409, Control_c, 0, 67, 19
1, 137422, Note_on_c, 0, 47, 37
1, 137424, Control_c, 0, 67, 18
1, 137429, Note_off_c, 0, 44, 61
1, 137439, Control_c, 0, 67, 18
1, 137449, Note_on_c, 0, 52, 78
1, 137469, Control_c, 0, 67, 17
1, 137475, Note_off_c, 0, 52, 67
1, 137516, Note_off_c, 0, 47, 45
1, 137543, Control_c, 0, 67, 18
1, 137552, Note_on_c, 0, 37, 67
1, 137557, Note_on_c, 0, 63, 73
1, 137559, Note_on_c, 0, 75, 73
1, 137583, Note_off_c, 0, 63, 69
1, 137583, Note_off_c, 0, 75, 67
1, 137594, Note_off_c, 0, 37, 63
1, 137642, Note_on_c, 0, 41, 47
1, 137662, Control_c, 0, 67, 17
1, 137664, Note_on_c, 0, 75, 63
1, 137672, Note_on_c, 0, 44, 58
1, 137674, Note_on_c, 0, 63, 52
1, 137678, Note_off_c, 0, 41, 49
1, 137681, Note_off_c, 0, 75, 65
1, 137692, Control_c, 0, 67, 17
1, 137699, Note_off_c, 0, 63, 59
1, 137707, Control_c, 0, 67, 16
1, 137719, Note_off_c, 0, 44, 60
1, 137736, Control_c, 0, 67, 16
1, 137747, Note_on_c, 0, 52, 82
1, 137779, Poly_aftertouch_c, 0, 47, 127
1, 137781, Note_off_c, 0, 52, 69
1, 137817, Control_c, 0, 67, 16
1, 137826, Poly_aftertouch_c, 0, 47, 0
1, 137847, Control_c, 0, 67, 17
1, 137853, Note_on_c, 0, 37, 72
1, 137859, Note_on_c, 0, 63, 71
1, 137862, Note_on_c, 0, 75, 78
1, 137883, Note_off_c, 0, 75, 70
1, 137885, Note_off_c, 0, 63, 68
1, 137899, Note_off_c, 0, 37, 59
1, 137907, Control_c, 0, 67, 17
1, 137963, Note_on_c, 0, 63, 67
1, 137970, Note_on_c, 0, 75, 67
1, 137972, Note_on_c, 0, 41, 6
1, 137973, Note_on_c, 0, 44, 60
1, 137981, Control_c, 0, 67, 17
1, 137987, Note_off_c, 0, 75, 65
1, 137993, Note_off_c, 0, 63, 67
1, 138010, Control_c, 0, 67, 16
1, 138022, Note_off_c, 0, 41, 35
1, 138022, Note_off_c, 0, 44, 59
1, 138068, Note_on_c, 0, 52, 50
1, 138080, Note_on_c, 0, 53, 37
1, 138081, Note_off_c, 0, 53, 127
1, 138085, Control_c, 0, 67, 17
1, 138098, Note_off_c, 0, 52, 56
1, 138145, Control_c, 0, 67, 17
1, 138160, Note_on_c, 0, 37, 70
1, 138165, Note_on_c, 0, 73, 75
1, 138167, Note_on_c, 0, 61, 72
1, 138188, Note_off_c, 0, 73, 70
1, 138194, Note_off_c, 0, 61, 67
1, 138200, Note_off_c, 0, 37, 62
1, 138243, Note_on_c, 0, 41, 48
1, 138263, Control_c, 0, 67, 17
1, 138271, Note_on_c, 0, 59, 67
1, 138275, Note_on_c, 0, 71, 56
1, 138278, Control_c, 0, 67, 16
1, 138280, Note_on_c, 0, 44, 48
1, 138287, Note_off_c, 0, 41, 45
1, 138290, Note_off_c, 0, 59, 64
1, 138292, Control_c, 0, 67, 14
1, 138293, Note_on_c, 0, 47, 43
1, 138293, Note_off_c, 0, 71, 64
1, 138307, Control_c, 0, 67, 11
1, 138322, Control_c, 0, 67, 0
1, 138338, Note_off_c, 0, 44, 57
1, 138354, Note_on_c, 0, 52, 83
1, 138371, Note_on_c, 0, 69, 77
1, 138372, Note_on_c, 0, 57, 75
1, 138387, Note_off_c, 0, 52, 63
1, 138390, Note_off_c, 0, 57, 66
1, 138395, Note_off_c, 0, 69, 72
1, 138396, Note_off_c, 0, 47, 58
1, 138456, Note_on_c, 0, 37, 73
1, 138464, Note_on_c, 0, 71, 89
1, 138470, Note_on_c, 0, 59, 79
1, 138481, Note_off_c, 0, 71, 73
1, 138494, Note_off_c, 0, 59, 67
1, 138515, Note_off_c, 0, 37, 59
1, 138540, Note_on_c, 0, 41, 49
1, 138567, Note_on_c, 0, 73, 96
1, 138569, Note_on_c, 0, 61, 85
1, 138584, Note_on_c, 0, 44, 61
1, 138587, Note_off_c, 0, 73, 66
1, 138592, Note_off_c, 0, 61, 69
1, 138607, Note_off_c, 0, 41, 52
1, 138618, Note_on_c, 0, 47, 40
1, 138643, Note_off_c, 0, 44, 58
1, 138661, Note_on_c, 0, 52, 84
1, 138662, Note_off_c, 0, 47, 0
1, 138668, Note_on_c, 0, 75, 97
1, 138671, Note_on_c, 0, 63, 99
1, 138685, Note_off_c, 0, 52, 70
1, 138698, Note_off_c, 0, 63, 63
1, 138698, Note_off_c, 0, 75, 63
1, 138699, Poly_aftertouch_c, 0, 47, 127
1, 138746, Poly_aftertouch_c, 0, 47, 0
1, 138759, Note_on_c, 0, 37, 74
1, 138769, Note_on_c, 0, 75, 81
1, 138779, Note_on_c, 0, 63, 72
1, 138789, Note_off_c, 0, 75, 70
1, 138801, Note_off_c, 0, 63, 65
1, 138815, Note_off_c, 0, 37, 58
1, 138838, Note_on_c, 0, 41, 63
1, 138867, Note_on_c, 0, 63, 78
1, 138871, Note_on_c, 0, 75, 72
1, 138892, Note_off_c, 0, 41, 59
1, 138895, Note_off_c, 0, 75, 69
1, 138897, Note_off_c, 0, 63, 65
1, 138902, Note_on_c, 0, 44, 55
1, 138926, Note_on_c, 0, 47, 42
1, 138942, Note_off_c, 0, 44, 61
1, 138968, Note_on_c, 0, 52, 74
1, 138994, Note_off_c, 0, 52, 66
1, 139038, Note_off_c, 0, 47, 41
1, 139060, Note_on_c, 0, 37, 66
1, 139061, Note_on_c, 0, 51, 74
1, 139069, Note_on_c, 0, 63, 70
1, 139086, Note_off_c, 0, 51, 66
1, 139089, Note_off_c, 0, 63, 65
1, 139112, Note_off_c, 0, 37, 56
1, 139155, Note_on_c, 0, 63, 80
1, 139156, Note_on_c, 0, 51, 70
1, 139160, Note_on_c, 0, 41, 28
1, 139184, Note_off_c, 0, 63, 62
1, 139186, Note_off_c, 0, 51, 65
1, 139194, Note_on_c, 0, 44, 51
1, 139198, Note_off_c, 0, 41, 42
1, 139214, Note_on_c, 0, 47, 48
1, 139239, Note_off_c, 0, 44, 59
1, 139247, Control_c, 0, 64, 36
1, 139266, Note_on_c, 0, 52, 80
1, 139269, Control_c, 0, 64, 40
1, 139284, Control_c, 0, 64, 40
1, 139292, Note_off_c, 0, 52, 68
1, 139299, Control_c, 0, 64, 41
1, 139314, Control_c, 0, 64, 41
1, 139329, Control_c, 0, 64, 37
1, 139344, Control_c, 0, 64, 0
1, 139345, Note_off_c, 0, 47, 46
1, 139374, Note_on_c, 0, 37, 69
1, 139377, Note_on_c, 0, 63, 82
1, 139391, Note_on_c, 0, 51, 48
1, 139392, Note_off_c, 0, 51, 127
1, 139403, Note_off_c, 0, 63, 67
1, 139423, Note_off_c, 0, 37, 59
1, 139450, Note_on_c, 0, 41, 55
1, 139495, Note_on_c, 0, 44, 62
1, 139508, Note_off_c, 0, 41, 57
1, 139538, Note_on_c, 0, 47, 44
1, 139576, Note_off_c, 0, 44, 41
1, 139580, Control_c, 0, 64, 55
1, 139595, Control_c, 0, 64, 79
1, 139597, Note_on_c, 0, 52, 69
1, 139597, Note_on_c, 0, 76, 86
1, 139599, Note_on_c, 0, 64, 77
1, 139610, Control_c, 0, 64, 127
1, 139612, Note_off_c, 0, 47, 0
1, 139618, Note_off_c, 0, 76, 71
1, 139623, Note_off_c, 0, 64, 70
1, 139627, Note_off_c, 0, 52, 65
1, 139649, Poly_aftertouch_c, 0, 47, 127
1, 139696, Note_on_c, 0, 78, 99
1, 139699, Poly_aftertouch_c, 0, 47, 0
1, 139700, Note_on_c, 0, 66, 95
1, 139710, Note_on_c, 0, 37, 67
1, 139728, Note_off_c, 0, 66, 64
1, 139734, Note_off_c, 0, 78, 67
1, 139753, Note_off_c, 0, 37, 59
1, 139772, Note_on_c, 0, 41, 66
1, 139796, Note_on_c, 0, 67, 105
1, 139797, Note_on_c, 0, 79, 106
1, 139812, Note_on_c, 0, 44, 70
1, 139826, Note_off_c, 0, 67, 68
1, 139827, Note_on_c, 0, 47, 56
1, 139829, Note_off_c, 0, 79, 67
1, 139830, Note_on_c, 0, 80, 44
1, 139835, Note_off_c, 0, 41, 59
1, 139856, Note_off_c, 0, 80, 40
1, 139861, Note_off_c, 0, 47, 62
1, 139877, Control_c, 0, 64, 108
1, 139889, Note_on_c, 0, 52, 92
1, 139892, Control_c, 0, 64, 66
1, 139900, Note_on_c, 0, 69, 102
1, 139901, Note_on_c, 0, 81, 103
1, 139907, Control_c, 0, 64, 0
1, 139911, Note_off_c, 0, 44, 53
1, 139918, Note_on_c, 0, 80, 78
1, 139922, Note_off_c, 0, 52, 65
1, 139928, Note_on_c, 0, 47, 33
1, 139932, Note_off_c, 0, 80, 69
1, 139935, Note_off_c, 0, 69, 68
1, 139936, Note_off_c, 0, 81, 70
1, 139970, Note_off_c, 0, 47, 45
1, 139993, Note_on_c, 0, 37, 75
1, 140015, Note_on_c, 0, 69, 96
1, 140016, Note_on_c, 0, 81, 94
1, 140044, Note_off_c, 0, 37, 59
1, 140045, Note_off_c, 0, 69, 68
1, 140045, Note_off_c, 0, 81, 68
1, 140081, Note_on_c, 0, 41, 59
1, 140107, Control_c, 0, 64, 10
1, 140119, Note_on_c, 0, 81, 87
1, 140122, Note_on_c, 0, 69, 80
1, 140122, Control_c, 0, 64, 17
1, 140131, Note_on_c, 0, 44, 54
1, 140131, Note_off_c, 0, 41, 57
1, 140137, Control_c, 0, 64, 22
1, 140143, Note_off_c, 0, 69, 73
1, 140143, Note_off_c, 0, 81, 65
1, 140152, Control_c, 0, 64, 26
1, 140166, Control_c, 0, 64, 29
1, 140167, Note_on_c, 0, 47, 19
1, 140178, Note_off_c, 0, 44, 59
1, 140181, Control_c, 0, 64, 33
1, 140195, Note_off_c, 0, 47, 0
1, 140196, Control_c, 0, 64, 38
1, 140210, Note_on_c, 0, 52, 77
1, 140211, Control_c, 0, 64, 42
1, 140226, Control_c, 0, 64, 47
1, 140238, Note_off_c, 0, 52, 67
1, 140241, Control_c, 0, 64, 52
1, 140255, Control_c, 0, 64, 55
1, 140270, Poly_aftertouch_c, 0, 47, 0
1, 140270, Control_c, 0, 64, 56
1, 140285, Control_c, 0, 64, 58
1, 140300, Control_c, 0, 64, 58
1, 140317, Note_on_c, 0, 37, 71
1, 140324, Note_on_c, 0, 69, 47
1, 140324, Note_on_c, 0, 81, 51
1, 140329, Note_on_c, 0, 83, 55
1, 140344, Control_c, 0, 64, 57
1, 140345, Note_off_c, 0, 81, 63
1, 140350, Note_off_c, 0, 69, 59
1, 140350, Note_off_c, 0, 83, 60
1, 140359, Control_c, 0, 64, 52
1, 140367, Note_off_c, 0, 37, 55
1, 140374, Control_c, 0, 64, 24
1, 140388, Control_c, 0, 64, 0
1, 140398, Note_on_c, 0, 41, 59
1, 140429, Note_on_c, 0, 81, 28
1, 140436, Note_off_c, 0, 81, 56
1, 140442, Note_on_c, 0, 44, 55
1, 140445, Note_on_c, 0, 69, 8
1, 140454, Note_off_c, 0, 41, 57
1, 140493, Note_off_c, 0, 69, 51
1, 140503, Note_off_c, 0, 44, 55
1, 140523, Control_c, 0, 64, 57
1, 140526, Note_on_c, 0, 52, 73
1, 140532, Note_on_c, 0, 64, 62
1, 140538, Control_c, 0, 64, 80
1, 140542, Poly_aftertouch_c, 0, 47, 127
1, 140552, Control_c, 0, 64, 127
1, 140556, Note_off_c, 0, 52, 66
1, 140562, Note_off_c, 0, 64, 66
1, 140615, Poly_aftertouch_c, 0, 47, 0
1, 140624, Note_on_c, 0, 54, 94
1, 140625, Note_on_c, 0, 66, 85
1, 140636, Note_on_c, 0, 37, 71
1, 140652, Note_off_c, 0, 54, 62
1, 140654, Note_off_c, 0, 66, 59
1, 140700, Note_off_c, 0, 37, 58
1, 140705, Note_on_c, 0, 41, 70
1, 140727, Note_on_c, 0, 55, 95
1, 140727, Note_on_c, 0, 67, 99
1, 140748, Note_on_c, 0, 44, 64
1, 140765, Note_off_c, 0, 55, 61
1, 140769, Note_off_c, 0, 67, 66
1, 140772, Note_off_c, 0, 41, 60
1, 140775, Note_on_c, 0, 47, 57
1, 140819, Note_off_c, 0, 47, 0
1, 140824, Note_on_c, 0, 52, 95
1, 140826, Control_c, 0, 64, 84
1, 140834, Note_on_c, 0, 57, 108
1, 140835, Note_on_c, 0, 69, 104
1, 140841, Control_c, 0, 64, 29
1, 140849, Poly_aftertouch_c, 0, 66, 0
1, 140856, Control_c, 0, 64, 0
1, 140857, Note_off_c, 0, 44, 33
1, 140857, Note_off_c, 0, 52, 66
1, 140859, Note_on_c, 0, 68, 59
1, 140861, Note_on_c, 0, 67, 56
1, 140862, Note_off_c, 0, 67, 127
1, 140862, Poly_aftertouch_c, 0, 47, 0
1, 140869, Note_off_c, 0, 57, 69
1, 140877, Note_off_c, 0, 68, 64
1, 140878, Note_off_c, 0, 69, 68
1, 140937, Note_on_c, 0, 37, 77
1, 140943, Note_on_c, 0, 57, 87
1, 140946, Note_on_c, 0, 69, 82
1, 140964, Note_on_c, 0, 68, 40
1, 140964, Note_off_c, 0, 57, 70
1, 140967, Note_off_c, 0, 69, 69
1, 140996, Note_off_c, 0, 68, 33
1, 141010, Note_off_c, 0, 37, 47
1, 141027, Note_on_c, 0, 41, 66
1, 141043, Note_on_c, 0, 69, 77
1, 141046, Note_on_c, 0, 57, 71
1, 141076, Note_off_c, 0, 57, 66
1, 141077, Note_off_c, 0, 41, 58
1, 141079, Note_on_c, 0, 44, 49
1, 141091, Note_off_c, 0, 69, 64
1, 141094, Note_on_c, 0, 46, 29
1, 141122, Note_off_c, 0, 44, 61
1, 141135, Note_off_c, 0, 46, 46
1, 141144, Note_on_c, 0, 52, 80
1, 141152, Control_c, 0, 64, 26
1, 141164, Note_on_c, 0, 47, 39
1, 141167, Control_c, 0, 64, 0
1, 141171, Note_off_c, 0, 52, 69
1, 141201, Note_off_c, 0, 47, 54
1, 141243, Note_on_c, 0, 37, 75
1, 141243, Note_on_c, 0, 67, 80
1, 141243, Note_on_c, 0, 79, 84
1, 141263, Note_off_c, 0, 79, 70
1, 141265, Note_off_c, 0, 67, 69
1, 141308, Note_off_c, 0, 37, 48
1, 141311, Note_on_c, 0, 41, 62
1, 141347, Note_on_c, 0, 78, 93
1, 141349, Note_on_c, 0, 66, 83
1, 141371, Note_off_c, 0, 66, 71
1, 141372, Note_on_c, 0, 44, 52
1, 141372, Note_off_c, 0, 78, 65
1, 141376, Note_off_c, 0, 41, 59
1, 141389, Note_on_c, 0, 47, 45
1, 141422, Note_off_c, 0, 44, 54
1, 141432, Note_on_c, 0, 52, 88
1, 141445, Note_on_c, 0, 79, 97
1, 141447, Note_on_c, 0, 67, 96
1, 141450, Control_c, 0, 64, 39
1, 141465, Control_c, 0, 64, 0
1, 141466, Note_off_c, 0, 52, 64
1, 141474, Note_off_c, 0, 67, 63
1, 141475, Note_off_c, 0, 79, 66
1, 141477, Note_off_c, 0, 47, 63
1, 141488, Note_on_c, 0, 80, 30
1, 141489, Note_off_c, 0, 80, 127
1, 141550, Note_on_c, 0, 37, 77
1, 141551, Note_on_c, 0, 78, 97
1, 141556, Note_on_c, 0, 66, 90
1, 141579, Note_off_c, 0, 66, 65
1, 141585, Note_off_c, 0, 78, 64
1, 141601, Note_off_c, 0, 37, 51
1, 141642, Note_on_c, 0, 41, 55
1, 141649, Note_on_c, 0, 76, 87
1, 141654, Note_on_c, 0, 64, 80
1, 141672, Note_on_c, 0, 44, 63
1, 141676, Note_off_c, 0, 64, 71
1, 141680, Note_off_c, 0, 76, 61
1, 141686, Note_off_c, 0, 41, 61
1, 141700, Note_on_c, 0, 47, 53
1, 141753, Note_on_c, 0, 52, 87
1, 141758, Note_on_c, 0, 77, 94
1, 141760, Note_on_c, 0, 65, 92
1, 141762, Note_off_c, 0, 44, 54
1, 141769, Control_c, 0, 64, 18
1, 141782, Note_off_c, 0, 52, 64
1, 141783, Control_c, 0, 64, 0
1, 141785, Note_off_c, 0, 65, 65
1, 141792, Note_off_c, 0, 47, 56
1, 141793, Note_off_c, 0, 77, 65
1, 141863, Note_on_c, 0, 77, 86
1, 141865, Note_on_c, 0, 37, 68
1, 141869, Note_on_c, 0, 65, 77
1, 141883, Note_off_c, 0, 77, 69
1, 141893, Note_off_c, 0, 65, 69
1, 141913, Note_off_c, 0, 37, 57
1, 141940, Note_on_c, 0, 41, 55
1, 141975, Note_on_c, 0, 44, 67
1, 141992, Note_off_c, 0, 41, 57
1, 142009, Note_on_c, 0, 47, 58
1, 142057, Note_off_c, 0, 44, 59
1, 142067, Note_on_c, 0, 52, 78
1, 142092, Note_off_c, 0, 52, 67
1, 142096, Note_off_c, 0, 47, 56
1, 142172, Note_on_c, 0, 37, 63
1, 142175, Note_on_c, 0, 77, 60
1, 142179, Note_on_c, 0, 65, 50
1, 142193, Note_off_c, 0, 77, 65
1, 142204, Note_off_c, 0, 65, 56
1, 142213, Note_off_c, 0, 37, 62
1, 142265, Note_on_c, 0, 77, 71
1, 142280, Note_on_c, 0, 41, 23
1, 142280, Note_on_c, 0, 65, 62
1, 142295, Note_off_c, 0, 77, 62
1, 142304, Note_on_c, 0, 44, 50
1, 142311, Note_off_c, 0, 65, 63
1, 142320, Note_off_c, 0, 41, 41
1, 142351, Note_off_c, 0, 44, 58
1, 142373, Note_on_c, 0, 52, 75
1, 142399, Note_off_c, 0, 52, 64
1, 142399, Control_c, 0, 64, 30
1, 142414, Control_c, 0, 64, 24
1, 142444, Control_c, 0, 64, 26
1, 142458, Control_c, 0, 64, 26
1, 142476, Note_on_c, 0, 37, 65
1, 142486, Note_on_c, 0, 77, 68
1, 142488, Control_c, 0, 64, 24
1, 142494, Note_on_c, 0, 65, 56
1, 142503, Control_c, 0, 64, 0
1, 142505, Note_off_c, 0, 77, 68
1, 142517, Note_off_c, 0, 65, 58
1, 142518, Note_off_c, 0, 37, 62
1, 142550, Note_on_c, 0, 41, 56
1, 142574, Note_on_c, 0, 77, 74
1, 142581, Note_on_c, 0, 65, 74
1, 142594, Note_on_c, 0, 44, 54
1, 142599, Note_off_c, 0, 77, 67
1, 142603, Note_off_c, 0, 41, 58
1, 142606, Note_off_c, 0, 65, 68
1, 142648, Note_off_c, 0, 44, 56
1, 142680, Control_c, 0, 64, 63
1, 142682, Note_on_c, 0, 52, 73
1, 142689, Note_on_c, 0, 64, 71
1, 142690, Note_on_c, 0, 76, 76
1, 142695, Control_c, 0, 64, 85
1, 142706, Note_off_c, 0, 76, 71
1, 142707, Note_off_c, 0, 64, 67
1, 142710, Control_c, 0, 64, 127
1, 142712, Note_off_c, 0, 52, 66
1, 142771, Note_on_c, 0, 66, 95
1, 142771, Note_on_c, 0, 78, 103
1, 142786, Note_on_c, 0, 37, 75
1, 142801, Note_off_c, 0, 66, 58
1, 142811, Note_off_c, 0, 78, 64
1, 142843, Note_off_c, 0, 37, 52
1, 142858, Note_on_c, 0, 41, 64
1, 142868, Note_on_c, 0, 67, 94
1, 142869, Note_on_c, 0, 79, 96
1, 142888, Note_on_c, 0, 44, 66
1, 142899, Note_off_c, 0, 67, 61
1, 142903, Note_off_c, 0, 79, 59
1, 142904, Note_on_c, 0, 47, 61
1, 142912, Note_off_c, 0, 41, 58
1, 142947, Control_c, 0, 64, 96
1, 142953, Note_off_c, 0, 44, 59
1, 142954, Note_off_c, 0, 47, 0
1, 142955, Note_on_c, 0, 52, 97
1, 142962, Control_c, 0, 64, 61
1, 142966, Note_on_c, 0, 81, 94
1, 142968, Note_on_c, 0, 69, 95
1, 142977, Control_c, 0, 64, 0
1, 142980, Note_off_c, 0, 81, 74
1, 142986, Poly_aftertouch_c, 0, 47, 0
1, 142986, Note_off_c, 0, 69, 75
1, 142987, Note_off_c, 0, 52, 66
1, 143076, Note_on_c, 0, 37, 73
1, 143141, Note_on_c, 0, 41, 65
1, 143143, Note_off_c, 0, 37, 47
1, 143180, Note_on_c, 0, 44, 55
1, 143180, Note_on_c, 0, 52, 70
1, 143187, Note_on_c, 0, 64, 79
1, 143192, Control_c, 0, 64, 48
1, 143204, Note_off_c, 0, 64, 69
1, 143206, Control_c, 0, 64, 70
1, 143207, Note_off_c, 0, 52, 66
1, 143219, Note_off_c, 0, 41, 59
1, 143220, Note_on_c, 0, 47, 40
1, 143221, Control_c, 0, 64, 90
1, 143236, Control_c, 0, 64, 127
1, 143258, Note_on_c, 0, 52, 88
1, 143276, Note_on_c, 0, 54, 103
1, 143276, Note_on_c, 0, 66, 103
1, 143294, Note_off_c, 0, 52, 66
1, 143302, Note_off_c, 0, 44, 51
1, 143305, Note_off_c, 0, 54, 65
1, 143312, Note_off_c, 0, 66, 68
1, 143323, Note_off_c, 0, 47, 49
1, 143366, Note_on_c, 0, 37, 80
1, 143380, Note_on_c, 0, 67, 91
1, 143382, Note_on_c, 0, 55, 83
1, 143384, Control_c, 0, 64, 96
1, 143398, Control_c, 0, 64, 63
1, 143403, Note_off_c, 0, 55, 69
1, 143407, Note_off_c, 0, 67, 63
1, 143413, Control_c, 0, 64, 0
1, 143422, Note_off_c, 0, 37, 61
1, 143445, Note_on_c, 0, 41, 66
1, 143477, Note_on_c, 0, 69, 84
1, 143494, Note_on_c, 0, 44, 54
1, 143503, Note_off_c, 0, 69, 68
1, 143505, Note_on_c, 0, 57, 25
1, 143506, Note_off_c, 0, 57, 127
1, 143511, Note_off_c, 0, 41, 56
1, 143520, Note_on_c, 0, 47, 45
1, 143548, Note_off_c, 0, 47, 59
1, 143552, Note_off_c, 0, 44, 59
1, 143569, Note_on_c, 0, 52, 91
1, 143577, Control_c, 0, 64, 24
1, 143591, Control_c, 0, 64, 69
1, 143603, Note_off_c, 0, 52, 64
1, 143606, Control_c, 0, 64, 89
1, 143621, Control_c, 0, 64, 127
1, 143662, Note_on_c, 0, 76, 83
1, 143666, Note_on_c, 0, 64, 75
1, 143672, Note_on_c, 0, 37, 83
1, 143683, Note_off_c, 0, 76, 70
1, 143685, Note_off_c, 0, 64, 70
1, 143738, Note_off_c, 0, 37, 60
1, 143754, Note_on_c, 0, 41, 70
1, 143771, Note_on_c, 0, 66, 99
1, 143772, Note_on_c, 0, 78, 102
1, 143803, Note_off_c, 0, 78, 66
1, 143809, Note_off_c, 0, 66, 62
1, 143816, Note_on_c, 0, 44, 52
1, 143830, Note_off_c, 0, 41, 59
1, 143837, Note_on_c, 0, 47, 53
1, 143872, Note_on_c, 0, 52, 93
1, 143873, Note_on_c, 0, 79, 104
1, 143875, Note_on_c, 0, 67, 105
1, 143887, Note_off_c, 0, 44, 58
1, 143896, Note_on_c, 0, 80, 71
1, 143907, Note_off_c, 0, 67, 67
1, 143910, Note_off_c, 0, 79, 66
1, 143911, Note_off_c, 0, 52, 64
1, 143912, Note_off_c, 0, 80, 67
1, 143926, Note_off_c, 0, 47, 60
1, 143955, Control_c, 0, 64, 107
1, 143970, Control_c, 0, 64, 66
1, 143975, Note_on_c, 0, 81, 84
1, 143978, Note_on_c, 0, 37, 75
1, 143979, Note_on_c, 0, 67, 86
1, 143980, Note_on_c, 0, 69, 79
1, 143985, Control_c, 0, 64, 0
1, 143988, Note_on_c, 0, 79, 78
1, 143997, Note_off_c, 0, 81, 70
1, 144002, Note_off_c, 0, 69, 71
1, 144003, Note_off_c, 0, 67, 67
1, 144003, Note_off_c, 0, 79, 68
1, 144039, Note_off_c, 0, 37, 61
1, 144065, Note_on_c, 0, 41, 59
1, 144095, Note_on_c, 0, 44, 68
1, 144119, Note_off_c, 0, 41, 59
1, 144125, Note_on_c, 0, 47, 64
1, 144188, Note_off_c, 0, 44, 58
1, 144197, Note_on_c, 0, 52, 85
1, 144205, Note_on_c, 0, 67, 87
1, 144224, Note_off_c, 0, 67, 70
1, 144226, Note_off_c, 0, 52, 67
1, 144259, Note_off_c, 0, 47, 24
1, 144298, Note_on_c, 0, 37, 70
1, 144302, Note_on_c, 0, 66, 72
1, 144327, Note_off_c, 0, 66, 69
1, 144353, Note_off_c, 0, 37, 57
1, 144379, Note_on_c, 0, 41, 61
1, 144397, Note_on_c, 0, 64, 72
1, 144423, Note_off_c, 0, 64, 69
1, 144427, Note_on_c, 0, 44, 60
1, 144435, Note_off_c, 0, 41, 54
1, 144475, Note_on_c, 0, 47, 43
1, 144504, Note_off_c, 0, 44, 54
1, 144515, Note_on_c, 0, 52, 88
1, 144515, Note_on_c, 0, 65, 99
1, 144540, Note_off_c, 0, 52, 67
1, 144547, Note_off_c, 0, 65, 63
1, 144569, Note_off_c, 0, 47, 46
1, 144618, Note_on_c, 0, 65, 70
1, 144625, Note_on_c, 0, 37, 63
1, 144644, Note_off_c, 0, 65, 65
1, 144681, Note_off_c, 0, 37, 57
1, 144703, Note_on_c, 0, 41, 57
1, 144703, Note_on_c, 0, 65, 78
1, 144727, Note_off_c, 0, 65, 68
1, 144745, Note_off_c, 0, 41, 61
1, 144748, Note_on_c, 0, 44, 59
1, 144787, Note_on_c, 0, 47, 48
1, 144805, Note_off_c, 0, 44, 55
1, 144825, Note_on_c, 0, 52, 77
1, 144852, Note_off_c, 0, 52, 67
1, 144881, Note_off_c, 0, 47, 30
1, 144920, Note_on_c, 0, 64, 62
1, 144921, Note_on_c, 0, 76, 75
1, 144932, Note_on_c, 0, 37, 72
1, 144939, Note_off_c, 0, 64, 63
1, 144940, Note_off_c, 0, 76, 68
1, 144984, Note_off_c, 0, 37, 57
1, 145003, Note_on_c, 0, 41, 53
1, 145013, Note_on_c, 0, 78, 86
1, 145015, Note_on_c, 0, 66, 82
1, 145041, Note_off_c, 0, 66, 65
1, 145044, Note_off_c, 0, 78, 62
1, 145055, Note_on_c, 0, 44, 53
1, 145060, Note_off_c, 0, 41, 54
1, 145104, Note_off_c, 0, 44, 58
1, 145114, Note_on_c, 0, 79, 94
1, 145116, Note_on_c, 0, 67, 90
1, 145117, Note_on_c, 0, 52, 83
1, 145138, Note_off_c, 0, 67, 67
1, 145145, Note_off_c, 0, 52, 67
1, 145148, Note_off_c, 0, 79, 63
1, 145148, Poly_aftertouch_c, 0, 47, 127
1, 145193, Poly_aftertouch_c, 0, 47, 0
1, 145211, Note_on_c, 0, 81, 88
1, 145217, Note_on_c, 0, 69, 80
1, 145222, Note_on_c, 0, 37, 72
1, 145240, Note_off_c, 0, 69, 72
1, 145241, Note_off_c, 0, 81, 64
1, 145285, Note_off_c, 0, 37, 51
1, 145326, Note_on_c, 0, 79, 88
1, 145329, Note_on_c, 0, 41, 44
1, 145331, Note_on_c, 0, 67, 81
1, 145348, Note_off_c, 0, 79, 66
1, 145352, Note_off_c, 0, 67, 69
1, 145356, Note_on_c, 0, 44, 51
1, 145362, Note_off_c, 0, 41, 50
1, 145406, Note_off_c, 0, 44, 59
1, 145425, Note_on_c, 0, 52, 81
1, 145429, Note_on_c, 0, 78, 95
1, 145432, Note_on_c, 0, 66, 84
1, 145438, Poly_aftertouch_c, 0, 47, 127
1, 145452, Note_off_c, 0, 52, 69
1, 145453, Note_off_c, 0, 78, 62
1, 145455, Note_off_c, 0, 66, 68
1, 145480, Poly_aftertouch_c, 0, 47, 0
1, 145523, Note_on_c, 0, 76, 86
1, 145527, Note_on_c, 0, 64, 83
1, 145529, Note_on_c, 0, 37, 71
1, 145544, Note_off_c, 0, 76, 69
1, 145548, Note_off_c, 0, 64, 72
1, 145589, Note_off_c, 0, 37, 53
1, 145626, Note_on_c, 0, 41, 43
1, 145626, Note_on_c, 0, 74, 85
1, 145627, Note_on_c, 0, 62, 82
1, 145648, Note_off_c, 0, 62, 69
1, 145654, Note_on_c, 0, 44, 53
1, 145657, Note_off_c, 0, 74, 62
1, 145659, Note_off_c, 0, 41, 52
1, 145678, Note_on_c, 0, 47, 39
1, 145711, Note_off_c, 0, 44, 56
1, 145723, Note_on_c, 0, 52, 91
1, 145727, Note_off_c, 0, 47, 0
1, 145729, Note_on_c, 0, 63, 99
1, 145729, Note_on_c, 0, 75, 93
1, 145735, Control_c, 0, 64, 14
1, 145743, Note_on_c, 0, 73, 81
1, 145750, Control_c, 0, 64, 0
1, 145750, Note_on_c, 0, 47, 19
1, 145756, Note_off_c, 0, 73, 71
1, 145759, Note_off_c, 0, 52, 65
1, 145762, Note_off_c, 0, 75, 65
1, 145770, Note_off_c, 0, 63, 59
1, 145791, Note_off_c, 0, 47, 44
1, 145830, Note_on_c, 0, 37, 72
1, 145838, Note_on_c, 0, 75, 78
1, 145840, Note_on_c, 0, 63, 76
1, 145857, Note_off_c, 0, 75, 71
1, 145866, Note_off_c, 0, 63, 68
1, 145896, Note_off_c, 0, 37, 54
1, 145920, Note_on_c, 0, 41, 62
1, 145935, Note_on_c, 0, 63, 75
1, 145939, Note_on_c, 0, 75, 65
1, 145966, Note_off_c, 0, 75, 60
1, 145967, Note_off_c, 0, 41, 61
1, 145968, Note_off_c, 0, 63, 64
1, 145972, Note_on_c, 0, 46, 49
1, 145980, Note_on_c, 0, 44, 53
1, 146009, Note_off_c, 0, 46, 57
1, 146036, Note_off_c, 0, 44, 58
1, 146054, Note_on_c, 0, 47, 18
1, 146054, Note_on_c, 0, 52, 75
1, 146084, Note_off_c, 0, 52, 66
1, 146097, Note_off_c, 0, 47, 50
1, 146152, Note_on_c, 0, 64, 76
1, 146161, Note_on_c, 0, 37, 68
1, 146180, Note_off_c, 0, 64, 67
1, 146209, Note_off_c, 0, 37, 55
1, 146231, Note_on_c, 0, 41, 58
1, 146245, Note_on_c, 0, 66, 82
1, 146267, Note_off_c, 0, 66, 69
1, 146284, Note_on_c, 0, 44, 57
1, 146289, Note_off_c, 0, 41, 52
1, 146319, Note_on_c, 0, 47, 45
1, 146345, Note_off_c, 0, 44, 52
1, 146350, Note_on_c, 0, 52, 86
1, 146360, Note_on_c, 0, 65, 93
1, 146382, Note_off_c, 0, 52, 64
1, 146389, Note_off_c, 0, 47, 63
1, 146391, Note_off_c, 0, 65, 63
1, 146460, Note_on_c, 0, 37, 72
1, 146465, Note_on_c, 0, 65, 68
1, 146492, Note_off_c, 0, 65, 66
1, 146527, Note_off_c, 0, 37, 56
1, 146541, Note_on_c, 0, 41, 54
1, 146553, Note_on_c, 0, 65, 72
1, 146578, Note_off_c, 0, 65, 67
1, 146587, Note_off_c, 0, 41, 60
1, 146593, Note_on_c, 0, 44, 58
1, 146617, Note_on_c, 0, 47, 53
1, 146641, Note_off_c, 0, 44, 60
1, 146666, Note_on_c, 0, 52, 77
1, 146692, Note_off_c, 0, 52, 67
1, 146697, Note_off_c, 0, 47, 58
1, 146769, Note_on_c, 0, 78, 79
1, 146774, Note_on_c, 0, 66, 69
1, 146780, Note_on_c, 0, 37, 66
1, 146789, Note_off_c, 0, 78, 72
1, 146799, Note_off_c, 0, 66, 65
1, 146832, Note_off_c, 0, 37, 56
1, 146861, Note_on_c, 0, 41, 51
1, 146866, Note_on_c, 0, 76, 88
1, 146872, Note_on_c, 0, 64, 76
1, 146890, Note_off_c, 0, 76, 67
1, 146896, Note_off_c, 0, 64, 70
1, 146898, Note_off_c, 0, 41, 59
1, 146903, Note_on_c, 0, 44, 54
1, 146927, Note_on_c, 0, 47, 46
1, 146966, Note_on_c, 0, 52, 81
1, 146972, Note_on_c, 0, 75, 88
1, 146972, Note_on_c, 0, 63, 94
1, 146983, Note_off_c, 0, 44, 51
1, 146991, Note_off_c, 0, 75, 68
1, 146992, Note_off_c, 0, 52, 69
1, 146995, Note_off_c, 0, 63, 66
1, 146999, Note_on_c, 0, 73, 47
1, 147008, Note_off_c, 0, 47, 45
1, 147028, Note_off_c, 0, 73, 39
1, 147070, Note_on_c, 0, 61, 85
1, 147070, Note_on_c, 0, 73, 88
1, 147075, Note_on_c, 0, 37, 76
1, 147095, Note_off_c, 0, 61, 65
1, 147100, Note_off_c, 0, 73, 59
1, 147127, Note_off_c, 0, 37, 56
1, 147163, Note_on_c, 0, 41, 51
1, 147167, Note_on_c, 0, 59, 79
1, 147169, Note_on_c, 0, 71, 84
1, 147189, Note_on_c, 0, 44, 59
1, 147190, Note_off_c, 0, 59, 68
1, 147194, Note_off_c, 0, 71, 66
1, 147197, Note_off_c, 0, 41, 54
1, 147235, Note_on_c, 0, 47, 23
1, 147243, Note_off_c, 0, 44, 54
1, 147260, Note_on_c, 0, 52, 91
1, 147270, Note_on_c, 0, 72, 100
1, 147271, Note_on_c, 0, 60, 97
1, 147295, Note_off_c, 0, 52, 65
1, 147301, Note_off_c, 0, 60, 67
1, 147303, Note_off_c, 0, 72, 68
1, 147324, Note_off_c, 0, 47, 45
1, 147370, Note_on_c, 0, 37, 76
1, 147374, Note_on_c, 0, 72, 86
1, 147380, Note_on_c, 0, 60, 78
1, 147395, Note_off_c, 0, 72, 67
1, 147404, Note_off_c, 0, 60, 70
1, 147440, Note_off_c, 0, 37, 53
1, 147476, Note_on_c, 0, 41, 49
1, 147479, Note_on_c, 0, 60, 74
1, 147483, Note_on_c, 0, 72, 75
1, 147517, Note_off_c, 0, 60, 66
1, 147521, Note_off_c, 0, 72, 56
1, 147523, Note_on_c, 0, 44, 50
1, 147532, Note_off_c, 0, 41, 46
1, 147566, Note_off_c, 0, 44, 60
1, 147590, Note_on_c, 0, 52, 73
1, 147598, Poly_aftertouch_c, 0, 47, 127
1, 147616, Note_off_c, 0, 52, 66
1, 147640, Poly_aftertouch_c, 0, 47, 0
1, 147696, Note_on_c, 0, 37, 65
1, 147710, Note_on_c, 0, 62, 53
1, 147733, Note_off_c, 0, 62, 59
1, 147744, Note_off_c, 0, 37, 56
1, 147791, Note_on_c, 0, 64, 67
1, 147792, Note_on_c, 0, 41, 35
1, 147821, Note_off_c, 0, 64, 67
1, 147824, Note_on_c, 0, 44, 54
1, 147830, Note_off_c, 0, 41, 44
1, 147871, Note_on_c, 0, 47, 35
1, 147883, Note_off_c, 0, 44, 57
1, 147890, Note_on_c, 0, 63, 71
1, 147899, Note_on_c, 0, 52, 72
1, 147917, Note_off_c, 0, 63, 68
1, 147927, Note_off_c, 0, 52, 66
1, 147931, Note_off_c, 0, 47, 48
1, 147993, Note_on_c, 0, 64, 72
1, 147993, Note_on_c, 0, 76, 84
1, 147999, Note_on_c, 0, 37, 74
1, 148011, Note_off_c, 0, 64, 69
1, 148013, Note_off_c, 0, 76, 70
1, 148057, Note_off_c, 0, 37, 57
1, 148067, Note_on_c, 0, 41, 59
1, 148087, Note_on_c, 0, 78, 91
1, 148090, Note_on_c, 0, 66, 86
1, 148109, Note_off_c, 0, 78, 66
1, 148114, Note_on_c, 0, 44, 57
1, 148117, Note_off_c, 0, 66, 62
1, 148127, Note_off_c, 0, 41, 54
1, 148143, Note_on_c, 0, 47, 47
1, 148171, Note_off_c, 0, 44, 54
1, 148184, Note_on_c, 0, 52, 88
1, 148188, Note_on_c, 0, 77, 93
1, 148188, Control_c, 0, 64, 29
1, 148191, Note_on_c, 0, 65, 82
1, 148203, Control_c, 0, 64, 0
1, 148212, Note_off_c, 0, 65, 70
1, 148214, Note_off_c, 0, 52, 64
1, 148225, Note_off_c, 0, 77, 67
1, 148276, Note_off_c, 0, 47, 37
1, 148294, Note_on_c, 0, 37, 77
1, 148300, Note_on_c, 0, 79, 106
1, 148333, Note_off_c, 0, 79, 66
1, 148347, Note_off_c, 0, 37, 58
1, 148379, Note_on_c, 0, 41, 47
1, 148405, Note_on_c, 0, 78, 100
1, 148415, Note_on_c, 0, 44, 57
1, 148426, Note_off_c, 0, 41, 50
1, 148436, Note_on_c, 0, 47, 44
1, 148441, Note_off_c, 0, 78, 67
1, 148479, Note_off_c, 0, 44, 56
1, 148492, Note_on_c, 0, 52, 86
1, 148497, Note_on_c, 0, 76, 99
1, 148523, Note_off_c, 0, 52, 63
1, 148532, Note_off_c, 0, 47, 56
1, 148534, Note_off_c, 0, 76, 68
1, 148593, Note_on_c, 0, 37, 74
1, 148594, Note_on_c, 0, 75, 98
1, 148623, Note_off_c, 0, 75, 65
1, 148646, Note_off_c, 0, 37, 56
1, 148683, Note_on_c, 0, 41, 55
1, 148692, Note_on_c, 0, 73, 91
1, 148706, Note_on_c, 0, 44, 63
1, 148716, Note_off_c, 0, 41, 58
1, 148729, Note_off_c, 0, 73, 65
1, 148736, Note_on_c, 0, 47, 52
1, 148774, Note_off_c, 0, 44, 55
1, 148785, Note_on_c, 0, 52, 85
1, 148790, Note_on_c, 0, 72, 95
1, 148796, Note_off_c, 0, 47, 0
1, 148805, Control_c, 0, 64, 31
1, 148819, Control_c, 0, 64, 0
1, 148823, Note_off_c, 0, 52, 65
1, 148826, Note_off_c, 0, 72, 65
1, 148879, Poly_aftertouch_c, 0, 47, 0
1, 148891, Note_on_c, 0, 72, 85
1, 148892, Note_on_c, 0, 37, 76
1, 148914, Note_off_c, 0, 72, 66
1, 148967, Note_off_c, 0, 37, 58
1, 149005, Note_on_c, 0, 41, 54
1, 149008, Note_on_c, 0, 72, 62
1, 149034, Control_c, 0, 64, 16
1, 149035, Note_off_c, 0, 41, 56
1, 149038, Note_off_c, 0, 72, 66
1, 149041, Note_on_c, 0, 44, 53
1, 149049, Control_c, 0, 64, 60
1, 149064, Control_c, 0, 64, 58
1, 149073, Note_on_c, 0, 47, 27
1, 149079, Control_c, 0, 64, 0
1, 149090, Note_off_c, 0, 44, 60
1, 149104, Note_on_c, 0, 52, 83
1, 149140, Note_off_c, 0, 52, 63
1, 149167, Control_c, 0, 64, 44
1, 149180, Note_off_c, 0, 47, 45
1, 149182, Control_c, 0, 64, 69
1, 149196, Note_on_c, 0, 74, 76
1, 149197, Note_on_c, 0, 86, 94
1, 149197, Control_c, 0, 64, 81
1, 149211, Note_on_c, 0, 37, 75
1, 149212, Control_c, 0, 64, 107
1, 149216, Note_off_c, 0, 74, 72
1, 149217, Note_off_c, 0, 86, 65
1, 149226, Control_c, 0, 64, 127
1, 149284, Note_off_c, 0, 37, 58
1, 149294, Note_on_c, 0, 88, 103
1, 149294, Note_on_c, 0, 76, 97
1, 149296, Note_on_c, 0, 41, 58
1, 149313, Note_off_c, 0, 76, 70
1, 149327, Note_off_c, 0, 88, 70
1, 149333, Note_on_c, 0, 44, 60
1, 149344, Note_off_c, 0, 41, 57
1, 149346, Control_c, 0, 64, 115
1, 149361, Control_c, 0, 64, 106
1, 149364, Note_on_c, 0, 47, 52
1, 149376, Control_c, 0, 64, 99
1, 149390, Control_c, 0, 64, 95
1, 149392, Note_off_c, 0, 44, 57
1, 149395, Note_on_c, 0, 52, 88
1, 149397, Note_on_c, 0, 90, 107
1, 149398, Note_on_c, 0, 78, 107
1, 149405, Control_c, 0, 64, 94
1, 149421, Note_off_c, 0, 78, 67
1, 149427, Note_off_c, 0, 90, 63
1, 149436, Note_off_c, 0, 52, 62
1, 149437, Note_on_c, 0, 87, 40
1, 149438, Note_off_c, 0, 87, 127
1, 149461, Note_off_c, 0, 47, 39
1, 149491, Note_on_c, 0, 87, 94
1, 149493, Note_on_c, 0, 75, 99
1, 149503, Note_on_c, 0, 37, 75
1, 149525, Note_off_c, 0, 87, 60
1, 149526, Note_off_c, 0, 75, 51
1, 149563, Note_off_c, 0, 37, 56
1, 149577, Note_on_c, 0, 41, 58
1, 149589, Note_on_c, 0, 85, 102
1, 149591, Note_on_c, 0, 73, 96
1, 149613, Note_on_c, 0, 47, 58
1, 149620, Note_on_c, 0, 44, 57
1, 149627, Note_off_c, 0, 73, 58
1, 149631, Note_off_c, 0, 85, 62
1, 149642, Control_c, 0, 64, 93
1, 149647, Note_off_c, 0, 41, 51
1, 149657, Control_c, 0, 64, 91
1, 149672, Control_c, 0, 64, 90
1, 149680, Note_on_c, 0, 52, 83
1, 149687, Control_c, 0, 64, 89
1, 149690, Note_on_c, 0, 83, 102
1, 149693, Note_on_c, 0, 71, 91
1, 149707, Note_off_c, 0, 44, 49
1, 149715, Note_off_c, 0, 52, 61
1, 149717, Note_off_c, 0, 71, 68
1, 149723, Note_off_c, 0, 83, 63
1, 149753, Note_off_c, 0, 47, 0
1, 149786, Poly_aftertouch_c, 0, 47, 0
1, 149795, Note_on_c, 0, 81, 102
1, 149798, Note_on_c, 0, 69, 93
1, 149802, Note_on_c, 0, 37, 62
1, 149824, Note_off_c, 0, 69, 68
1, 149828, Note_off_c, 0, 81, 65
1, 149836, Note_off_c, 0, 37, 50
1, 149855, Note_on_c, 0, 39, 3
1, 149857, Control_c, 0, 64, 89
1, 149866, Note_on_c, 0, 41, 51
1, 149872, Control_c, 0, 64, 91
1, 149887, Control_c, 0, 64, 95
1, 149888, Note_on_c, 0, 79, 96
1, 149892, Note_on_c, 0, 67, 94
1, 149896, Note_off_c, 0, 39, 32
1, 149902, Control_c, 0, 64, 97
1, 149905, Note_on_c, 0, 44, 51
1, 149907, Note_on_c, 0, 47, 54
1, 149916, Control_c, 0, 64, 98
1, 149917, Note_off_c, 0, 67, 66
1, 149928, Note_off_c, 0, 41, 54
1, 149930, Note_off_c, 0, 79, 63
1, 149931, Control_c, 0, 64, 93
1, 149946, Control_c, 0, 64, 81
1, 149961, Control_c, 0, 64, 72
1, 149975, Control_c, 0, 64, 74
1, 149980, Note_on_c, 0, 52, 77
1, 149989, Note_on_c, 0, 65, 90
1, 149990, Control_c, 0, 64, 86
1, 149993, Note_on_c, 0, 67, 73
1, 150000, Note_off_c, 0, 44, 32
1, 150005, Control_c, 0, 64, 103
1, 150006, Note_off_c, 0, 52, 65
1, 150015, Note_off_c, 0, 67, 64
1, 150020, Note_off_c, 0, 47, 47
1, 150020, Control_c, 0, 64, 127
1, 150025, Note_off_c, 0, 65, 61
1, 150084, Note_on_c, 0, 37, 77
1, 150095, Note_on_c, 0, 63, 112
1, 150130, Note_off_c, 0, 63, 69
1, 150161, Note_off_c, 0, 37, 55
1, 150181, Note_on_c, 0, 41, 49
1, 150191, Note_on_c, 0, 61, 108
1, 150196, Note_on_c, 0, 47, 67
1, 150201, Note_on_c, 0, 44, 54
1, 150227, Note_off_c, 0, 41, 41
1, 150230, Note_off_c, 0, 61, 67
1, 150270, Note_on_c, 0, 52, 71
1, 150289, Note_on_c, 0, 59, 112
1, 150293, Note_off_c, 0, 44, 58
1, 150299, Note_off_c, 0, 52, 68
1, 150310, Note_off_c, 0, 47, 58
1, 150330, Note_off_c, 0, 59, 70
1, 150373, Note_on_c, 0, 37, 69
1, 150385, Note_on_c, 0, 57, 104
1, 150395, Note_on_c, 0, 41, 49
1, 150420, Note_off_c, 0, 57, 69
1, 150435, Note_off_c, 0, 37, 57
1, 150454, Note_on_c, 0, 44, 51
1, 150472, Note_on_c, 0, 47, 53
1, 150478, Note_on_c, 0, 55, 103
1, 150480, Control_c, 0, 64, 106
1, 150503, Control_c, 0, 64, 66
1, 150518, Control_c, 0, 64, 0
1, 150523, Note_off_c, 0, 55, 68
1, 150534, Note_off_c, 0, 41, 35
1, 150547, Control_c, 0, 64, 38
1, 150562, Control_c, 0, 64, 69
1, 150566, Note_off_c, 0, 44, 55
1, 150576, Note_off_c, 0, 47, 48
1, 150577, Control_c, 0, 64, 105
1, 150581, Note_on_c, 0, 52, 79
1, 150588, Note_on_c, 0, 53, 101
1, 150591, Control_c, 0, 64, 127
1, 150605, Note_off_c, 0, 52, 67
1, 150617, Note_off_c, 0, 53, 70
1, 150689, Note_on_c, 0, 33, 69
1, 150721, Note_off_c, 0, 33, 62
1, 150725, Control_c, 0, 64, 96
1, 150733, Note_on_c, 0, 41, 69
1, 150740, Control_c, 0, 64, 69
1, 150755, Control_c, 0, 64, 0
1, 150764, Note_off_c, 0, 41, 63
1, 150805, Note_on_c, 0, 44, 71
1, 150874, Control_c, 0, 64, 58
1, 150880, Note_on_c, 0, 48, 66
1, 150889, Control_c, 0, 64, 86
1, 150891, Note_off_c, 0, 44, 61
1, 150903, Note_on_c, 0, 29, 118
1, 150904, Control_c, 0, 64, 127
1, 150915, Note_on_c, 0, 52, 86
1, 150921, Note_off_c, 0, 48, 61
1, 150925, Note_off_c, 0, 29, 72
1, 150925, Note_on_c, 0, 50, 74
1, 150939, Note_off_c, 0, 52, 70
1, 150956, Note_off_c, 0, 50, 70
1, 150993, Control_c, 0, 64, 84
1, 151008, Control_c, 0, 64, 24
1, 151018, Note_on_c, 0, 33, 72
1, 151022, Control_c, 0, 64, 0
1, 151050, Note_off_c, 0, 33, 62
1, 151055, Note_on_c, 0, 41, 66
1, 151088, Note_off_c, 0, 41, 61
1, 151137, Note_on_c, 0, 44, 70
1, 151154, Control_c, 0, 64, 34
1, 151169, Control_c, 0, 64, 64
1, 151184, Control_c, 0, 64, 82
1, 151187, Note_on_c, 0, 49, 77
1, 151199, Control_c, 0, 64, 127
1, 151226, Note_off_c, 0, 44, 60
1, 151246, Note_on_c, 0, 52, 98
1, 151265, Note_off_c, 0, 49, 63
1, 151291, Note_off_c, 0, 52, 66
1, 151296, Note_on_c, 0, 50, 24
1, 151297, Note_off_c, 0, 50, 127
1, 151338, Poly_aftertouch_c, 0, 50, 0
1, 151370, Note_on_c, 0, 33, 68
1, 151385, Note_on_c, 0, 89, 104
1, 151388, Note_on_c, 0, 76, 99
1, 151389, Note_on_c, 0, 88, 97
1, 151390, Note_on_c, 0, 77, 95
1, 151390, Note_on_c, 0, 87, 94
1, 151396, Note_on_c, 0, 35, 51
1, 151404, Note_off_c, 0, 76, 75
1, 151405, Note_off_c, 0, 33, 60
1, 151407, Note_off_c, 0, 77, 74
1, 151407, Note_off_c, 0, 88, 73
1, 151409, Note_off_c, 0, 87, 71
1, 151410, Note_off_c, 0, 89, 62
1, 151419, Note_on_c, 0, 41, 62
1, 151425, Note_off_c, 0, 35, 54
1, 151448, Note_off_c, 0, 41, 59
1, 151482, Note_on_c, 0, 44, 78
1, 151524, Note_on_c, 0, 49, 85
1, 151548, Note_off_c, 0, 44, 59
1, 151568, Note_on_c, 0, 52, 96
1, 151596, Note_off_c, 0, 49, 63
1, 151613, Note_off_c, 0, 52, 66
1, 151692, Note_on_c, 0, 33, 71
1, 151708, Note_on_c, 0, 89, 105
1, 151710, Note_on_c, 0, 88, 96
1, 151714, Note_on_c, 0, 76, 95
1, 151714, Note_on_c, 0, 77, 89
1, 151716, Note_on_c, 0, 87, 85
1, 151723, Note_off_c, 0, 33, 64
1, 151730, Note_on_c, 0, 35, 43
1, 151733, Note_off_c, 0, 77, 72
1, 151734, Note_off_c, 0, 76, 70
1, 151737, Note_off_c, 0, 89, 60
1, 151741, Note_off_c, 0, 87, 61
1, 151747, Note_on_c, 0, 41, 58
1, 151752, Note_off_c, 0, 88, 64
1, 151755, Note_off_c, 0, 35, 59
1, 151771, Note_off_c, 0, 41, 59
1, 151801, Note_on_c, 0, 44, 80
1, 151829, Control_c, 0, 64, 92
1, 151843, Control_c, 0, 64, 64
1, 151853, Note_on_c, 0, 49, 81
1, 151858, Control_c, 0, 64, 0
1, 151862, Note_off_c, 0, 44, 61
1, 151873, Control_c, 0, 64, 53
1, 151881, Note_on_c, 0, 52, 102
1, 151888, Control_c, 0, 64, 66
1, 151903, Control_c, 0, 64, 76
1, 151907, Note_off_c, 0, 49, 65
1, 151917, Control_c, 0, 64, 94
1, 151928, Note_on_c, 0, 50, 26
1, 151929, Note_off_c, 0, 50, 127
1, 151931, Note_off_c, 0, 52, 63
1, 151932, Control_c, 0, 64, 127
1, 151968, Poly_aftertouch_c, 0, 50, 0
1, 152030, Note_on_c, 0, 33, 63
1, 152033, Note_on_c, 0, 29, 108
1, 152055, Note_off_c, 0, 29, 71
1, 152064, Note_off_c, 0, 33, 60
1, 152105, Note_on_c, 0, 41, 44
1, 152139, Note_off_c, 0, 41, 50
1, 152150, Note_on_c, 0, 44, 79
1, 152207, Note_on_c, 0, 49, 80
1, 152212, Note_off_c, 0, 44, 61
1, 152236, Note_on_c, 0, 52, 102
1, 152260, Note_off_c, 0, 49, 63
1, 152279, Note_off_c, 0, 52, 66
1, 152282, Note_on_c, 0, 50, 32
1, 152283, Note_off_c, 0, 50, 127
1, 152321, Poly_aftertouch_c, 0, 50, 0
1, 152418, Note_on_c, 0, 41, 61
1, 152442, Note_off_c, 0, 41, 60
1, 152455, Poly_aftertouch_c, 0, 35, 127
1, 152482, Note_on_c, 0, 44, 72
1, 152494, Poly_aftertouch_c, 0, 35, 0
1, 152504, Control_c, 0, 64, 103
1, 152519, Control_c, 0, 64, 67
1, 152530, Note_on_c, 0, 49, 78
1, 152533, Control_c, 0, 64, 0
1, 152543, Note_off_c, 0, 44, 59
1, 152563, Control_c, 0, 64, 51
1, 152568, Note_on_c, 0, 89, 104
1, 152570, Note_on_c, 0, 76, 100
1, 152571, Note_on_c, 0, 77, 99
1, 152573, Note_on_c, 0, 87, 95
1, 152575, Note_on_c, 0, 88, 88
1, 152578, Control_c, 0, 64, 65
1, 152579, Note_on_c, 0, 52, 95
1, 152592, Control_c, 0, 64, 79
1, 152595, Note_off_c, 0, 49, 63
1, 152595, Note_off_c, 0, 76, 62
1, 152599, Note_off_c, 0, 77, 55
1, 152607, Note_off_c, 0, 88, 58
1, 152607, Control_c, 0, 64, 127
1, 152614, Note_off_c, 0, 52, 63
1, 152614, Note_off_c, 0, 89, 63
1, 152626, Note_off_c, 0, 87, 60
1, 152698, Note_on_c, 0, 35, 74
1, 152741, Note_on_c, 0, 89, 103
1, 152743, Note_on_c, 0, 76, 100
1, 152743, Note_off_c, 0, 35, 64
1, 152743, Note_on_c, 0, 77, 99
1, 152743, Note_on_c, 0, 88, 96
1, 152744, Note_on_c, 0, 87, 94
1, 152747, Note_on_c, 0, 41, 68
1, 152776, Note_off_c, 0, 41, 64
1, 152783, Note_on_c, 0, 79, 35
1, 152784, Note_off_c, 0, 79, 127
1, 152818, Note_on_c, 0, 44, 79
1, 152880, Note_on_c, 0, 49, 83
1, 152896, Note_off_c, 0, 44, 61
1, 152905, Note_off_c, 0, 77, 54
1, 152908, Note_off_c, 0, 76, 58
1, 152927, Note_off_c, 0, 89, 57
1, 152933, Note_on_c, 0, 52, 88
1, 152934, Note_off_c, 0, 88, 64
1, 152942, Note_off_c, 0, 87, 60
1, 152952, Note_off_c, 0, 49, 62
1, 152973, Note_off_c, 0, 52, 64
1, 153021, Note_on_c, 0, 89, 94
1, 153029, Note_on_c, 0, 76, 91
1, 153030, Note_on_c, 0, 87, 91
1, 153032, Note_on_c, 0, 77, 86
1, 153034, Note_on_c, 0, 88, 80
1, 153039, Note_off_c, 0, 89, 69
1, 153044, Note_off_c, 0, 77, 76
1, 153045, Note_off_c, 0, 76, 74
1, 153047, Note_on_c, 0, 35, 66
1, 153047, Note_off_c, 0, 88, 74
1, 153048, Note_off_c, 0, 87, 72
1, 153051, Note_on_c, 0, 33, 58
1, 153079, Note_off_c, 0, 35, 64
1, 153092, Note_off_c, 0, 33, 46
1, 153096, Note_on_c, 0, 41, 60
1, 153122, Note_off_c, 0, 41, 56
1, 153145, Note_on_c, 0, 44, 79
1, 153184, Poly_aftertouch_c, 0, 77, 0
1, 153206, Note_on_c, 0, 49, 85
1, 153207, Control_c, 0, 64, 85
1, 153219, Note_off_c, 0, 44, 59
1, 153222, Control_c, 0, 64, 72
1, 153232, Note_on_c, 0, 29, 109
1, 153237, Control_c, 0, 64, 71
1, 153246, Note_on_c, 0, 52, 98
1, 153252, Control_c, 0, 64, 76
1, 153259, Note_off_c, 0, 29, 68
1, 153268, Control_c, 0, 64, 85
1, 153276, Note_off_c, 0, 49, 63
1, 153281, Control_c, 0, 64, 96
1, 153285, Note_off_c, 0, 52, 64
1, 153296, Control_c, 0, 64, 125
1, 153311, Control_c, 0, 64, 127
1, 153366, Note_on_c, 0, 33, 64
1, 153402, Note_off_c, 0, 33, 60
1, 153404, Note_on_c, 0, 41, 68
1, 153414, Control_c, 0, 64, 94
1, 153429, Control_c, 0, 64, 74
1, 153435, Note_off_c, 0, 41, 62
1, 153444, Control_c, 0, 64, 57
1, 153459, Control_c, 0, 64, 38
1, 153474, Control_c, 0, 64, 50
1, 153485, Note_on_c, 0, 44, 72
1, 153496, Control_c, 0, 64, 59
1, 153511, Control_c, 0, 64, 62
1, 153526, Control_c, 0, 64, 65
1, 153541, Control_c, 0, 64, 67
1, 153544, Note_on_c, 0, 49, 76
1, 153556, Control_c, 0, 64, 70
1, 153557, Note_off_c, 0, 44, 60
1, 153570, Control_c, 0, 64, 71
1, 153583, Note_on_c, 0, 82, 100
1, 153585, Note_on_c, 0, 70, 99
1, 153597, Note_on_c, 0, 52, 89
1, 153600, Control_c, 0, 64, 71
1, 153605, Note_off_c, 0, 82, 69
1, 153607, Note_off_c, 0, 70, 68
1, 153609, Note_off_c, 0, 49, 63
1, 153621, Note_off_c, 0, 52, 68
1, 153629, Control_c, 0, 64, 70
1, 153644, Control_c, 0, 64, 69
1, 153688, Control_c, 0, 64, 69
1, 153695, Note_on_c, 0, 33, 67
1, 153698, Note_on_c, 0, 81, 89
1, 153700, Note_on_c, 0, 69, 85
1, 153703, Control_c, 0, 64, 68
1, 153716, Note_off_c, 0, 81, 70
1, 153718, Control_c, 0, 64, 67
1, 153720, Note_off_c, 0, 69, 71
1, 153729, Note_off_c, 0, 33, 61
1, 153755, Note_on_c, 0, 41, 54
1, 153762, Control_c, 0, 64, 68
1, 153777, Control_c, 0, 64, 69
1, 153778, Note_off_c, 0, 41, 58
1, 153786, Note_on_c, 0, 79, 69
1, 153792, Control_c, 0, 64, 70
1, 153795, Note_on_c, 0, 67, 92
1, 153805, Note_on_c, 0, 44, 83
1, 153807, Control_c, 0, 64, 73
1, 153819, Note_off_c, 0, 67, 66
1, 153822, Control_c, 0, 64, 78
1, 153830, Note_off_c, 0, 79, 64
1, 153837, Control_c, 0, 64, 83
1, 153852, Control_c, 0, 64, 89
1, 153867, Control_c, 0, 64, 94
1, 153869, Note_on_c, 0, 49, 82
1, 153881, Control_c, 0, 64, 95
1, 153882, Note_off_c, 0, 44, 60
1, 153896, Control_c, 0, 64, 90
1, 153904, Note_on_c, 0, 65, 110
1, 153905, Note_on_c, 0, 77, 104
1, 153911, Control_c, 0, 64, 71
1, 153913, Note_on_c, 0, 52, 95
1, 153926, Control_c, 0, 64, 0
1, 153934, Note_off_c, 0, 49, 63
1, 153935, Note_off_c, 0, 65, 63
1, 153936, Note_off_c, 0, 77, 68
1, 153944, Note_off_c, 0, 52, 65
1, 154005, Note_on_c, 0, 35, 80
1, 154040, Note_off_c, 0, 35, 68
1, 154069, Note_on_c, 0, 41, 59
1, 154095, Note_off_c, 0, 41, 59
1, 154137, Note_on_c, 0, 44, 66
1, 154189, Note_on_c, 0, 49, 74
1, 154199, Note_off_c, 0, 44, 59
1, 154237, Note_off_c, 0, 49, 61
1, 154256, Note_on_c, 0, 70, 88
1, 154260, Control_c, 0, 64, 13
1, 154266, Note_on_c, 0, 52, 76
1, 154275, Control_c, 0, 64, 0
1, 154284, Note_off_c, 0, 70, 64
1, 154296, Note_off_c, 0, 52, 66
1, 154359, Note_on_c, 0, 69, 78
1, 154369, Note_on_c, 0, 33, 45
1, 154376, Note_on_c, 0, 35, 45
1, 154382, Note_off_c, 0, 69, 72
1, 154403, Note_off_c, 0, 33, 51
1, 154410, Note_off_c, 0, 35, 53
1, 154459, Note_on_c, 0, 67, 78
1, 154472, Note_on_c, 0, 44, 71
1, 154493, Note_off_c, 0, 67, 60
1, 154512, Note_off_c, 0, 44, 61
1, 154529, Note_on_c, 0, 49, 79
1, 154556, Control_c, 0, 64, 39
1, 154560, Note_on_c, 0, 65, 85
1, 154570, Note_on_c, 0, 52, 94
1, 154571, Control_c, 0, 64, 0
1, 154581, Note_off_c, 0, 65, 70
1, 154585, Note_off_c, 0, 49, 61
1, 154597, Note_off_c, 0, 52, 64
1, 154666, Note_on_c, 0, 58, 103
1, 154667, Note_on_c, 0, 35, 71
1, 154684, Note_on_c, 0, 36, 57
1, 154692, Note_off_c, 0, 35, 60
1, 154704, Note_off_c, 0, 58, 66
1, 154712, Note_off_c, 0, 36, 54
1, 154727, Note_on_c, 0, 43, 70
1, 154752, Note_off_c, 0, 43, 58
1, 154768, Note_on_c, 0, 57, 105
1, 154784, Note_on_c, 0, 44, 77
1, 154806, Note_off_c, 0, 57, 66
1, 154844, Note_on_c, 0, 49, 79
1, 154853, Note_off_c, 0, 44, 60
1, 154881, Note_on_c, 0, 55, 105
1, 154883, Control_c, 0, 64, 51
1, 154892, Note_on_c, 0, 52, 88
1, 154898, Control_c, 0, 64, 47
1, 154910, Note_off_c, 0, 49, 62
1, 154913, Control_c, 0, 64, 0
1, 154916, Note_off_c, 0, 55, 68
1, 154919, Note_off_c, 0, 52, 66
1, 154988, Note_on_c, 0, 53, 92
1, 154994, Note_on_c, 0, 35, 78
1, 155026, Note_off_c, 0, 53, 68
1, 155029, Note_off_c, 0, 35, 68
1, 155048, Note_on_c, 0, 41, 67
1, 155081, Note_off_c, 0, 41, 63
1, 155092, Note_on_c, 0, 51, 91
1, 155112, Note_on_c, 0, 44, 81
1, 155114, Note_off_c, 0, 51, 69
1, 155129, Note_on_c, 0, 52, 46
1, 155157, Note_off_c, 0, 52, 57
1, 155169, Note_on_c, 0, 50, 3
1, 155170, Note_off_c, 0, 50, 127
1, 155177, Note_on_c, 0, 49, 75
1, 155184, Note_off_c, 0, 44, 60
1, 155208, Note_on_c, 0, 53, 105
1, 155217, Note_on_c, 0, 52, 88
1, 155217, Control_c, 0, 64, 15
1, 155229, Note_off_c, 0, 53, 70
1, 155232, Control_c, 0, 64, 0
1, 155238, Note_off_c, 0, 49, 62
1, 155244, Note_off_c, 0, 52, 66
1, 155321, Note_on_c, 0, 35, 74
1, 155354, Note_off_c, 0, 35, 63
1, 155375, Note_on_c, 0, 41, 50
1, 155404, Note_off_c, 0, 41, 54
1, 155440, Note_on_c, 0, 44, 66
1, 155494, Note_on_c, 0, 49, 75
1, 155501, Note_off_c, 0, 44, 60
1, 155531, Note_on_c, 0, 29, 113
1, 155542, Note_on_c, 0, 52, 94
1, 155555, Note_off_c, 0, 29, 71
1, 155563, Note_off_c, 0, 49, 63
1, 155576, Note_off_c, 0, 52, 61
1, 155639, Note_on_c, 0, 35, 74
1, 155677, Note_off_c, 0, 35, 66
1, 155688, Note_on_c, 0, 41, 63
1, 155716, Note_off_c, 0, 41, 61
1, 155763, Note_on_c, 0, 44, 69
1, 155816, Note_on_c, 0, 49, 75
1, 155819, Note_off_c, 0, 44, 59
1, 155875, Note_on_c, 0, 52, 86
1, 155877, Control_c, 0, 64, 41
1, 155882, Note_off_c, 0, 49, 56
1, 155891, Control_c, 0, 64, 0
1, 155898, Note_off_c, 0, 52, 69
1, 155965, Note_on_c, 0, 35, 73
1, 156002, Note_off_c, 0, 35, 66
1, 156020, Note_on_c, 0, 41, 65
1, 156046, Note_off_c, 0, 41, 61
1, 156083, Note_on_c, 0, 44, 69
1, 156150, Note_on_c, 0, 49, 70
1, 156156, Note_off_c, 0, 44, 59
1, 156192, Note_off_c, 0, 49, 61
1, 156210, Note_on_c, 0, 64, 73
1, 156210, Note_on_c, 0, 75, 72
1, 156213, Note_on_c, 0, 52, 70
1, 156234, Note_off_c, 0, 64, 70
1, 156234, Note_off_c, 0, 75, 68
1, 156241, Note_off_c, 0, 52, 66
1, 156308, Note_on_c, 0, 74, 83
1, 156312, Note_on_c, 0, 35, 62
1, 156319, Note_on_c, 0, 65, 64
1, 156336, Note_off_c, 0, 74, 62
1, 156338, Note_off_c, 0, 65, 62
1, 156347, Note_off_c, 0, 35, 65
1, 156357, Note_on_c, 0, 41, 57
1, 156383, Note_off_c, 0, 41, 56
1, 156401, Note_on_c, 0, 67, 85
1, 156406, Note_on_c, 0, 72, 82
1, 156418, Note_on_c, 0, 44, 72
1, 156434, Note_off_c, 0, 72, 63
1, 156436, Note_off_c, 0, 67, 64
1, 156490, Note_on_c, 0, 49, 79
1, 156500, Note_off_c, 0, 44, 60
1, 156517, Note_on_c, 0, 70, 92
1, 156520, Note_on_c, 0, 69, 89
1, 156537, Note_off_c, 0, 69, 74
1, 156541, Note_on_c, 0, 52, 86
1, 156551, Note_off_c, 0, 49, 61
1, 156552, Note_off_c, 0, 70, 67
1, 156565, Note_off_c, 0, 52, 69
1, 156630, Note_on_c, 0, 35, 79
1, 156669, Note_off_c, 0, 35, 66
1, 156682, Note_on_c, 0, 41, 69
1, 156713, Note_off_c, 0, 41, 63
1, 156756, Note_on_c, 0, 44, 66
1, 156817, Note_on_c, 0, 49, 72
1, 156825, Note_off_c, 0, 44, 59
1, 156859, Note_on_c, 0, 87, 71
1, 156860, Note_on_c, 0, 76, 71
1, 156869, Note_off_c, 0, 49, 56
1, 156883, Note_on_c, 0, 52, 64
1, 156884, Note_off_c, 0, 87, 69
1, 156885, Note_off_c, 0, 76, 66
1, 156909, Note_off_c, 0, 52, 63
1, 156957, Note_on_c, 0, 86, 88
1, 156968, Note_on_c, 0, 35, 69
1, 156979, Note_on_c, 0, 77, 45
1, 156993, Note_off_c, 0, 86, 66
1, 157000, Note_off_c, 0, 35, 65
1, 157005, Note_off_c, 0, 77, 58
1, 157022, Note_on_c, 0, 41, 50
1, 157052, Note_off_c, 0, 41, 52
1, 157054, Note_on_c, 0, 79, 80
1, 157060, Note_on_c, 0, 84, 77
1, 157076, Note_on_c, 0, 44, 69
1, 157079, Note_off_c, 0, 79, 65
1, 157093, Note_off_c, 0, 84, 60
1, 157133, Note_on_c, 0, 49, 78
1, 157145, Note_off_c, 0, 44, 59
1, 157161, Note_on_c, 0, 82, 94
1, 157172, Note_on_c, 0, 81, 70
1, 157180, Note_off_c, 0, 82, 65
1, 157184, Note_on_c, 0, 52, 78
1, 157187, Note_off_c, 0, 81, 69
1, 157188, Control_c, 0, 64, 20
1, 157193, Note_off_c, 0, 49, 62
1, 157203, Control_c, 0, 64, 0
1, 157209, Note_off_c, 0, 52, 67
1, 157292, Note_on_c, 0, 35, 76
1, 157298, Note_on_c, 0, 52, 81
1, 157298, Note_on_c, 0, 63, 94
1, 157316, Note_on_c, 0, 53, 50
1, 157322, Note_off_c, 0, 52, 69
1, 157323, Note_off_c, 0, 35, 65
1, 157324, Note_off_c, 0, 63, 68
1, 157339, Note_on_c, 0, 41, 59
1, 157340, Note_off_c, 0, 53, 61
1, 157364, Note_off_c, 0, 41, 59
1, 157393, Note_on_c, 0, 53, 96
1, 157398, Note_on_c, 0, 44, 82
1, 157401, Note_on_c, 0, 62, 86
1, 157425, Note_off_c, 0, 62, 66
1, 157428, Note_off_c, 0, 53, 63
1, 157468, Note_on_c, 0, 49, 75
1, 157472, Note_off_c, 0, 44, 60
1, 157501, Note_on_c, 0, 55, 99
1, 157503, Note_on_c, 0, 60, 88
1, 157509, Note_on_c, 0, 52, 89
1, 157523, Control_c, 0, 64, 54
1, 157526, Note_off_c, 0, 60, 69
1, 157530, Note_off_c, 0, 49, 63
1, 157531, Note_off_c, 0, 55, 69
1, 157537, Control_c, 0, 64, 45
1, 157542, Note_off_c, 0, 52, 65
1, 157552, Control_c, 0, 64, 0
1, 157599, Note_on_c, 0, 58, 93
1, 157600, Note_on_c, 0, 54, 95
1, 157602, Note_on_c, 0, 35, 84
1, 157626, Note_off_c, 0, 54, 66
1, 157631, Note_off_c, 0, 58, 65
1, 157636, Note_off_c, 0, 35, 68
1, 157654, Note_on_c, 0, 41, 67
1, 157685, Note_off_c, 0, 41, 63
1, 157702, Note_on_c, 0, 51, 96
1, 157704, Note_on_c, 0, 56, 97
1, 157721, Note_off_c, 0, 51, 71
1, 157724, Note_on_c, 0, 45, 71
1, 157733, Note_off_c, 0, 56, 67
1, 157742, Note_on_c, 0, 44, 16
1, 157776, Note_on_c, 0, 49, 83
1, 157780, Note_off_c, 0, 45, 63
1, 157781, Note_off_c, 0, 44, 49
1, 157801, Note_on_c, 0, 58, 106
1, 157802, Note_on_c, 0, 53, 106
1, 157816, Note_on_c, 0, 52, 86
1, 157819, Control_c, 0, 64, 10
1, 157828, Note_off_c, 0, 53, 70
1, 157834, Note_off_c, 0, 49, 62
1, 157834, Control_c, 0, 64, 0
1, 157844, Note_off_c, 0, 58, 68
1, 157844, Note_off_c, 0, 52, 65
1, 157915, Note_on_c, 0, 35, 80
1, 157949, Note_off_c, 0, 35, 68
1, 157982, Note_on_c, 0, 41, 58
1, 158013, Note_off_c, 0, 41, 61
1, 158041, Note_on_c, 0, 44, 76
1, 158101, Note_on_c, 0, 49, 79
1, 158106, Note_off_c, 0, 44, 61
1, 158125, Note_on_c, 0, 29, 120
1, 158144, Note_on_c, 0, 52, 87
1, 158145, Note_off_c, 0, 29, 75
1, 158162, Note_off_c, 0, 49, 62
1, 158172, Note_off_c, 0, 52, 66
1, 158246, Note_on_c, 0, 33, 63
1, 158278, Note_off_c, 0, 33, 60
1, 158285, Note_on_c, 0, 41, 67
1, 158320, Note_off_c, 0, 41, 62
1, 158360, Note_on_c, 0, 44, 65
1, 158411, Note_off_c, 0, 44, 55
1, 158430, Note_on_c, 0, 48, 51
1, 158449, Control_c, 0, 64, 26
1, 158456, Note_on_c, 0, 75, 76
1, 158457, Note_off_c, 0, 48, 58
1, 158464, Control_c, 0, 64, 0
1, 158477, Note_on_c, 0, 52, 66
1, 158480, Note_on_c, 0, 72, 40
1, 158483, Note_off_c, 0, 75, 62
1, 158499, Note_off_c, 0, 52, 62
1, 158510, Note_off_c, 0, 72, 36
1, 158553, Note_on_c, 0, 71, 78
1, 158557, Note_on_c, 0, 77, 81
1, 158568, Note_on_c, 0, 35, 70
1, 158574, Note_off_c, 0, 71, 72
1, 158579, Note_off_c, 0, 77, 71
1, 158603, Note_off_c, 0, 35, 63
1, 158610, Note_on_c, 0, 41, 64
1, 158642, Note_off_c, 0, 41, 62
1, 158647, Note_on_c, 0, 69, 84
1, 158652, Note_on_c, 0, 79, 85
1, 158670, Note_on_c, 0, 44, 75
1, 158670, Note_off_c, 0, 79, 71
1, 158672, Note_off_c, 0, 69, 68
1, 158737, Note_on_c, 0, 49, 81
1, 158749, Note_off_c, 0, 44, 61
1, 158752, Control_c, 0, 64, 24
1, 158756, Note_on_c, 0, 67, 101
1, 158760, Note_on_c, 0, 80, 98
1, 158767, Control_c, 0, 64, 0
1, 158774, Note_on_c, 0, 78, 75
1, 158777, Note_on_c, 0, 52, 84
1, 158779, Note_off_c, 0, 67, 69
1, 158785, Note_off_c, 0, 80, 68
1, 158791, Note_off_c, 0, 78, 67
1, 158794, Note_off_c, 0, 49, 64
1, 158803, Note_off_c, 0, 52, 69
1, 158888, Note_on_c, 0, 35, 50
1, 158890, Note_on_c, 0, 33, 44
1, 158917, Note_off_c, 0, 35, 55
1, 158924, Note_off_c, 0, 33, 51
1, 158927, Note_on_c, 0, 41, 53
1, 158953, Note_off_c, 0, 41, 55
1, 158991, Note_on_c, 0, 44, 64
1, 159042, Note_off_c, 0, 44, 55
1, 159046, Note_on_c, 0, 49, 75
1, 159089, Note_off_c, 0, 49, 60
1, 159116, Note_on_c, 0, 63, 72
1, 159116, Note_on_c, 0, 61, 68
1, 159120, Note_on_c, 0, 52, 61
1, 159140, Note_off_c, 0, 61, 64
1, 159143, Note_off_c, 0, 52, 62
1, 159144, Note_off_c, 0, 63, 68
1, 159203, Note_on_c, 0, 59, 83
1, 159206, Note_on_c, 0, 35, 67
1, 159218, Note_on_c, 0, 65, 67
1, 159229, Note_off_c, 0, 59, 68
1, 159238, Note_off_c, 0, 65, 64
1, 159240, Note_off_c, 0, 35, 63
1, 159284, Note_on_c, 0, 41, 31
1, 159314, Note_on_c, 0, 57, 65
1, 159316, Note_on_c, 0, 44, 75
1, 159316, Note_on_c, 0, 67, 62
1, 159323, Note_off_c, 0, 41, 31
1, 159334, Note_off_c, 0, 57, 62
1, 159337, Note_off_c, 0, 67, 62
1, 159381, Note_off_c, 0, 44, 60
1, 159384, Note_on_c, 0, 49, 79
1, 159411, Note_on_c, 0, 57, 62
1, 159411, Note_on_c, 0, 68, 89
1, 159420, Control_c, 0, 64, 31
1, 159432, Note_off_c, 0, 57, 62
1, 159434, Note_on_c, 0, 52, 73
1, 159435, Control_c, 0, 64, 0
1, 159436, Note_off_c, 0, 49, 60
1, 159444, Note_off_c, 0, 68, 67
1, 159462, Note_off_c, 0, 52, 66
1, 159521, Note_on_c, 0, 35, 75
1, 159527, Note_on_c, 0, 73, 88
1, 159527, Note_on_c, 0, 75, 90
1, 159547, Note_off_c, 0, 73, 69
1, 159551, Note_off_c, 0, 75, 64
1, 159556, Note_off_c, 0, 35, 68
1, 159595, Note_on_c, 0, 41, 24
1, 159596, Note_off_c, 0, 41, 127
1, 159620, Note_on_c, 0, 71, 94
1, 159626, Note_on_c, 0, 77, 83
1, 159631, Note_on_c, 0, 44, 72
1, 159647, Note_off_c, 0, 77, 69
1, 159650, Note_off_c, 0, 71, 64
1, 159696, Note_on_c, 0, 49, 82
1, 159703, Note_off_c, 0, 44, 60
1, 159710, Control_c, 0, 64, 39
1, 159724, Control_c, 0, 64, 29
1, 159726, Note_on_c, 0, 69, 82
1, 159726, Note_on_c, 0, 79, 89
1, 159739, Control_c, 0, 64, 0
1, 159741, Note_on_c, 0, 52, 78
1, 159745, Note_off_c, 0, 79, 70
1, 159746, Note_off_c, 0, 69, 72
1, 159751, Note_off_c, 0, 49, 63
1, 159768, Note_off_c, 0, 52, 67
1, 159818, Note_on_c, 0, 80, 94
1, 159820, Note_on_c, 0, 67, 82
1, 159838, Note_on_c, 0, 69, 59
1, 159841, Note_on_c, 0, 33, 56
1, 159841, Note_off_c, 0, 67, 71
1, 159849, Note_off_c, 0, 80, 69
1, 159858, Note_off_c, 0, 69, 62
1, 159862, Note_on_c, 0, 35, 31
1, 159870, Note_off_c, 0, 33, 53
1, 159884, Note_on_c, 0, 41, 53
1, 159900, Note_off_c, 0, 35, 51
1, 159915, Note_off_c, 0, 41, 53
1, 159921, Note_on_c, 0, 78, 95
1, 159923, Note_on_c, 0, 81, 92
1, 159932, Note_on_c, 0, 44, 80
1, 159953, Note_off_c, 0, 78, 66
1, 159957, Note_off_c, 0, 81, 69
1, 159992, Note_on_c, 0, 49, 80
1, 160003, Note_off_c, 0, 44, 61
1, 160022, Control_c, 0, 64, 10
1, 160027, Note_on_c, 0, 80, 104
1, 160031, Note_on_c, 0, 79, 93
1, 160037, Control_c, 0, 64, 35
1, 160037, Note_on_c, 0, 52, 94
1, 160049, Note_off_c, 0, 79, 70
1, 160051, Control_c, 0, 64, 0
1, 160058, Note_off_c, 0, 49, 62
1, 160061, Note_off_c, 0, 80, 66
1, 160065, Note_off_c, 0, 52, 64
1, 160130, Note_on_c, 0, 35, 75
1, 160165, Note_off_c, 0, 35, 68
1, 160175, Note_on_c, 0, 41, 69
1, 160209, Note_off_c, 0, 41, 62
1, 160245, Note_on_c, 0, 82, 83
1, 160248, Note_on_c, 0, 44, 77
1, 160251, Note_on_c, 0, 77, 41
1, 160279, Note_off_c, 0, 77, 55
1, 160284, Note_off_c, 0, 82, 65
1, 160308, Note_on_c, 0, 49, 81
1, 160323, Note_off_c, 0, 44, 60
1, 160353, Note_on_c, 0, 76, 89
1, 160355, Note_on_c, 0, 86, 87
1, 160356, Note_on_c, 0, 52, 89
1, 160372, Note_off_c, 0, 49, 61
1, 160373, Note_off_c, 0, 86, 73
1, 160375, Note_off_c, 0, 76, 69
1, 160384, Note_off_c, 0, 52, 64
1, 160449, Note_on_c, 0, 85, 95
1, 160454, Note_on_c, 0, 74, 78
1, 160455, Note_on_c, 0, 35, 70
1, 160474, Note_off_c, 0, 85, 63
1, 160475, Note_on_c, 0, 76, 52
1, 160475, Note_off_c, 0, 74, 72
1, 160485, Note_off_c, 0, 35, 64
1, 160499, Note_off_c, 0, 76, 60
1, 160504, Note_on_c, 0, 41, 59
1, 160529, Note_off_c, 0, 41, 56
1, 160556, Note_on_c, 0, 44, 76
1, 160588, Note_off_c, 0, 44, 65
1, 160623, Note_on_c, 0, 49, 78
1, 160656, Note_on_c, 0, 68, 78
1, 160664, Note_on_c, 0, 67, 71
1, 160667, Note_on_c, 0, 52, 86
1, 160679, Note_off_c, 0, 68, 70
1, 160683, Note_off_c, 0, 49, 61
1, 160692, Note_off_c, 0, 67, 68
1, 160693, Note_off_c, 0, 52, 69
1, 160748, Note_on_c, 0, 65, 86
1, 160760, Note_on_c, 0, 70, 73
1, 160771, Note_on_c, 0, 33, 57
1, 160773, Note_on_c, 0, 35, 59
1, 160773, Note_off_c, 0, 65, 67
1, 160784, Note_off_c, 0, 70, 69
1, 160799, Note_off_c, 0, 33, 54
1, 160799, Note_off_c, 0, 35, 58
1, 160814, Note_on_c, 0, 41, 59
1, 160840, Note_off_c, 0, 41, 56
1, 160860, Note_on_c, 0, 72, 73
1, 160863, Note_on_c, 0, 64, 66
1, 160869, Note_on_c, 0, 44, 75
1, 160883, Note_off_c, 0, 72, 70
1, 160889, Note_off_c, 0, 64, 68
1, 160934, Note_on_c, 0, 49, 79
1, 160937, Note_off_c, 0, 44, 59
1, 160967, Note_on_c, 0, 73, 97
1, 160976, Note_on_c, 0, 62, 70
1, 160977, Note_on_c, 0, 52, 92
1, 160994, Note_off_c, 0, 62, 68
1, 161001, Note_off_c, 0, 49, 62
1, 161006, Note_off_c, 0, 73, 64
1, 161013, Note_on_c, 0, 64, 10
1, 161014, Note_off_c, 0, 64, 127
1, 161014, Note_off_c, 0, 52, 65
1, 161077, Note_on_c, 0, 35, 75
1, 161111, Note_off_c, 0, 35, 63
1, 161128, Note_on_c, 0, 41, 70
1, 161158, Note_off_c, 0, 41, 64
1, 161167, Note_on_c, 0, 80, 95
1, 161176, Note_on_c, 0, 79, 79
1, 161195, Note_on_c, 0, 44, 71
1, 161199, Note_off_c, 0, 79, 69
1, 161200, Note_off_c, 0, 80, 64
1, 161249, Note_on_c, 0, 49, 81
1, 161265, Note_off_c, 0, 44, 60
1, 161268, Control_c, 0, 64, 18
1, 161277, Note_on_c, 0, 77, 99
1, 161279, Note_on_c, 0, 82, 96
1, 161283, Control_c, 0, 64, 10
1, 161292, Note_on_c, 0, 52, 93
1, 161297, Control_c, 0, 64, 0
1, 161301, Note_off_c, 0, 77, 61
1, 161311, Note_off_c, 0, 49, 63
1, 161314, Note_off_c, 0, 82, 64
1, 161320, Note_off_c, 0, 52, 63
1, 161380, Note_on_c, 0, 76, 85
1, 161382, Note_on_c, 0, 84, 80
1, 161387, Note_on_c, 0, 35, 73
1, 161401, Note_off_c, 0, 76, 70
1, 161401, Note_off_c, 0, 84, 72
1, 161423, Note_off_c, 0, 35, 64
1, 161439, Note_on_c, 0, 41, 65
1, 161463, Note_off_c, 0, 41, 58
1, 161493, Note_on_c, 0, 44, 76
1, 161560, Note_on_c, 0, 49, 79
1, 161565, Note_off_c, 0, 44, 58
1, 161587, Note_on_c, 0, 70, 90
1, 161590, Note_on_c, 0, 65, 91
1, 161607, Note_on_c, 0, 52, 84
1, 161613, Note_off_c, 0, 65, 68
1, 161623, Note_off_c, 0, 70, 63
1, 161624, Note_off_c, 0, 49, 61
1, 161630, Note_off_c, 0, 52, 70
1, 161693, Note_on_c, 0, 64, 81
1, 161700, Note_on_c, 0, 35, 73
1, 161722, Note_off_c, 0, 64, 71
1, 161724, Note_on_c, 0, 71, 48
1, 161725, Note_off_c, 0, 71, 127
1, 161739, Note_off_c, 0, 35, 65
1, 161766, Note_on_c, 0, 41, 59
1, 161792, Note_off_c, 0, 41, 56
1, 161820, Note_on_c, 0, 44, 73
1, 161882, Note_on_c, 0, 49, 74
1, 161888, Note_off_c, 0, 44, 59
1, 161913, Note_on_c, 0, 58, 83
1, 161920, Note_on_c, 0, 53, 79
1, 161924, Note_on_c, 0, 52, 88
1, 161943, Note_off_c, 0, 49, 62
1, 161944, Note_off_c, 0, 53, 70
1, 161949, Note_off_c, 0, 52, 67
1, 161966, Note_off_c, 0, 58, 63
1, 162019, Note_on_c, 0, 35, 74
1, 162025, Note_on_c, 0, 60, 68
1, 162044, Note_off_c, 0, 60, 66
1, 162059, Note_off_c, 0, 35, 66
1, 162093, Note_on_c, 0, 41, 48
1, 162124, Note_off_c, 0, 41, 51
1, 162148, Note_on_c, 0, 44, 71
1, 162172, Note_on_c, 0, 76, 56
1, 162194, Note_off_c, 0, 76, 61
1, 162208, Note_on_c, 0, 49, 73
1, 162216, Note_off_c, 0, 44, 59
1, 162257, Note_on_c, 0, 85, 73
1, 162261, Note_on_c, 0, 52, 78
1, 162261, Note_on_c, 0, 74, 61
1, 162270, Note_off_c, 0, 49, 61
1, 162280, Note_off_c, 0, 74, 64
1, 162282, Note_off_c, 0, 85, 69
1, 162288, Note_off_c, 0, 52, 67
1, 162345, Note_on_c, 0, 84, 84
1, 162350, Note_on_c, 0, 76, 67
1, 162371, Note_off_c, 0, 84, 63
1, 162376, Note_off_c, 0, 76, 66
1, 162380, Note_on_c, 0, 35, 40
1, 162400, Note_on_c, 0, 41, 55
1, 162415, Note_off_c, 0, 35, 51
1, 162426, Note_off_c, 0, 41, 56
1, 162446, Note_on_c, 0, 82, 82
1, 162458, Note_on_c, 0, 44, 71
1, 162473, Note_on_c, 0, 77, 41
1, 162495, Note_off_c, 0, 82, 63
1, 162499, Note_off_c, 0, 77, 58
1, 162526, Note_on_c, 0, 49, 78
1, 162532, Note_off_c, 0, 44, 60
1, 162541, Control_c, 0, 64, 24
1, 162556, Control_c, 0, 64, 21
1, 162558, Note_on_c, 0, 67, 88
1, 162567, Note_on_c, 0, 52, 82
1, 162568, Note_on_c, 0, 80, 70
1, 162569, Note_off_c, 0, 80, 127
1, 162571, Control_c, 0, 64, 0
1, 162576, Note_off_c, 0, 49, 60
1, 162582, Note_off_c, 0, 67, 67
1, 162592, Note_off_c, 0, 52, 69
1, 162658, Note_on_c, 0, 35, 70
1, 162660, Note_on_c, 0, 79, 93
1, 162666, Note_on_c, 0, 69, 80
1, 162688, Note_off_c, 0, 69, 73
1, 162689, Note_off_c, 0, 35, 65
1, 162697, Note_off_c, 0, 79, 62
1, 162702, Note_on_c, 0, 41, 65
1, 162734, Note_off_c, 0, 41, 62
1, 162756, Note_on_c, 0, 71, 94
1, 162756, Note_on_c, 0, 77, 95
1, 162765, Note_on_c, 0, 44, 76
1, 162789, Note_off_c, 0, 71, 67
1, 162800, Note_off_c, 0, 77, 62
1, 162830, Note_on_c, 0, 49, 77
1, 162840, Note_off_c, 0, 44, 60
1, 162854, Control_c, 0, 64, 33
1, 162859, Note_on_c, 0, 73, 88
1, 162865, Note_on_c, 0, 75, 79
1, 162868, Control_c, 0, 64, 55
1, 162872, Note_on_c, 0, 52, 85
1, 162883, Control_c, 0, 64, 21
1, 162884, Note_off_c, 0, 73, 66
1, 162884, Note_off_c, 0, 75, 70
1, 162889, Note_off_c, 0, 49, 62
1, 162898, Note_off_c, 0, 52, 68
1, 162898, Control_c, 0, 64, 0
1, 162958, Note_on_c, 0, 74, 90
1, 162961, Note_on_c, 0, 63, 93
1, 162966, Note_on_c, 0, 35, 80
1, 162972, Control_c, 0, 64, 32
1, 162981, Note_off_c, 0, 74, 62
1, 162985, Note_off_c, 0, 63, 65
1, 162987, Control_c, 0, 64, 39
1, 162997, Note_off_c, 0, 35, 65
1, 163001, Control_c, 0, 64, 42
1, 163012, Note_on_c, 0, 41, 69
1, 163016, Control_c, 0, 64, 45
1, 163031, Control_c, 0, 64, 47
1, 163043, Note_off_c, 0, 41, 63
1, 163046, Control_c, 0, 64, 50
1, 163055, Note_on_c, 0, 61, 98
1, 163061, Control_c, 0, 64, 53
1, 163063, Note_on_c, 0, 72, 68
1, 163075, Control_c, 0, 64, 54
1, 163084, Note_on_c, 0, 71, 49
1, 163087, Note_off_c, 0, 72, 64
1, 163090, Control_c, 0, 64, 46
1, 163092, Note_off_c, 0, 61, 60
1, 163104, Note_on_c, 0, 43, 44
1, 163105, Control_c, 0, 64, 0
1, 163109, Note_off_c, 0, 71, 59
1, 163139, Note_off_c, 0, 43, 51
1, 163154, Note_on_c, 0, 48, 63
1, 163167, Note_on_c, 0, 59, 97
1, 163176, Note_on_c, 0, 52, 72
1, 163176, Note_off_c, 0, 48, 61
1, 163178, Note_on_c, 0, 69, 91
1, 163179, Control_c, 0, 64, 19
1, 163180, Note_on_c, 0, 68, 67
1, 163194, Control_c, 0, 64, 53
1, 163201, Note_off_c, 0, 69, 69
1, 163203, Note_off_c, 0, 59, 62
1, 163206, Note_off_c, 0, 52, 66
1, 163208, Note_off_c, 0, 68, 68
1, 163209, Control_c, 0, 64, 59
1, 163231, Control_c, 0, 64, 59
1, 163261, Poly_aftertouch_c, 0, 50, 127
1, 163261, Control_c, 0, 64, 60
1, 163271, Note_on_c, 0, 35, 80
1, 163277, Note_on_c, 0, 60, 99
1, 163280, Note_on_c, 0, 67, 89
1, 163297, Poly_aftertouch_c, 0, 50, 0
1, 163301, Note_off_c, 0, 60, 68
1, 163305, Control_c, 0, 64, 59
1, 163309, Note_off_c, 0, 67, 62
1, 163316, Note_off_c, 0, 35, 62
1, 163320, Control_c, 0, 64, 54
1, 163334, Control_c, 0, 64, 0
1, 163341, Note_on_c, 0, 41, 59
1, 163367, Note_off_c, 0, 41, 58
1, 163370, Note_on_c, 0, 62, 90
1, 163370, Note_on_c, 0, 67, 97
1, 163392, Note_on_c, 0, 44, 80
1, 163406, Note_off_c, 0, 62, 65
1, 163414, Note_off_c, 0, 67, 62
1, 163465, Note_on_c, 0, 49, 80
1, 163468, Control_c, 0, 64, 78
1, 163469, Note_off_c, 0, 44, 60
1, 163476, Note_on_c, 0, 63, 98
1, 163476, Note_on_c, 0, 65, 97
1, 163483, Control_c, 0, 64, 127
1, 163494, Note_on_c, 0, 52, 89
1, 163515, Note_off_c, 0, 65, 66
1, 163519, Note_off_c, 0, 49, 61
1, 163521, Note_off_c, 0, 63, 67
1, 163522, Note_off_c, 0, 52, 66
1, 163542, Control_c, 0, 64, 103
1, 163557, Control_c, 0, 64, 76
1, 163572, Control_c, 0, 64, 50
1, 163587, Control_c, 0, 64, 19
1, 163590, Note_on_c, 0, 35, 79
1, 163601, Control_c, 0, 64, 47
1, 163616, Control_c, 0, 64, 57
1, 163624, Note_off_c, 0, 35, 68
1, 163631, Control_c, 0, 64, 50
1, 163647, Control_c, 0, 64, 0
1, 163662, Note_on_c, 0, 41, 21
1, 163663, Note_off_c, 0, 41, 127
1, 163673, Note_on_c, 0, 43, 43
1, 163705, Note_on_c, 0, 44, 76
1, 163710, Note_off_c, 0, 43, 49
1, 163766, Control_c, 0, 64, 55
1, 163775, Note_on_c, 0, 49, 79
1, 163781, Control_c, 0, 64, 105
1, 163787, Note_off_c, 0, 44, 60
1, 163793, Note_on_c, 0, 29, 117
1, 163796, Control_c, 0, 64, 127
1, 163808, Note_on_c, 0, 52, 98
1, 163816, Note_off_c, 0, 29, 69
1, 163832, Note_off_c, 0, 49, 61
1, 163847, Note_off_c, 0, 52, 63
1, 163870, Control_c, 0, 64, 92
1, 163885, Control_c, 0, 64, 66
1, 163899, Control_c, 0, 64, 0
1, 163927, Note_on_c, 0, 33, 50
1, 163929, Control_c, 0, 64, 9
1, 163940, Note_on_c, 0, 35, 42
1, 163943, Control_c, 0, 64, 50
1, 163958, Control_c, 0, 64, 60
1, 163959, Note_off_c, 0, 33, 52
1, 163973, Note_on_c, 0, 41, 56
1, 163981, Control_c, 0, 64, 64
1, 163981, Note_off_c, 0, 35, 53
1, 163996, Control_c, 0, 64, 66
1, 163999, Note_off_c, 0, 41, 55
1, 164011, Control_c, 0, 64, 68
1, 164025, Control_c, 0, 64, 71
1, 164040, Note_on_c, 0, 44, 70
1, 164040, Control_c, 0, 64, 72
1, 164070, Control_c, 0, 64, 71
1, 164085, Control_c, 0, 64, 71
1, 164092, Note_on_c, 0, 49, 77
1, 164097, Note_off_c, 0, 44, 59
1, 164099, Control_c, 0, 64, 70
1, 164114, Control_c, 0, 64, 69
1, 164129, Control_c, 0, 64, 68
1, 164148, Note_on_c, 0, 52, 81
1, 164161, Note_off_c, 0, 49, 62
1, 164172, Note_off_c, 0, 52, 67
1, 164188, Control_c, 0, 64, 69
1, 164234, Note_on_c, 0, 58, 99
1, 164246, Note_on_c, 0, 33, 69
1, 164247, Control_c, 0, 64, 69
1, 164273, Note_off_c, 0, 58, 64
1, 164276, Control_c, 0, 64, 70
1, 164279, Note_off_c, 0, 33, 60
1, 164291, Control_c, 0, 64, 71
1, 164306, Note_on_c, 0, 41, 62
1, 164306, Control_c, 0, 64, 71
1, 164329, Note_off_c, 0, 41, 59
1, 164331, Note_on_c, 0, 57, 105
1, 164336, Control_c, 0, 64, 71
1, 164351, Control_c, 0, 64, 69
1, 164365, Note_off_c, 0, 57, 68
1, 164365, Control_c, 0, 64, 66
1, 164393, Note_on_c, 0, 45, 55
1, 164395, Control_c, 0, 64, 70
1, 164410, Control_c, 0, 64, 76
1, 164419, Note_on_c, 0, 49, 85
1, 164425, Control_c, 0, 64, 87
1, 164434, Note_off_c, 0, 45, 53
1, 164440, Control_c, 0, 64, 100
1, 164443, Note_on_c, 0, 55, 107
1, 164455, Control_c, 0, 64, 119
1, 164470, Control_c, 0, 64, 127
1, 164476, Note_off_c, 0, 55, 67
1, 164482, Note_off_c, 0, 49, 62
1, 164508, Note_on_c, 0, 50, 51
1, 164538, Note_off_c, 0, 50, 56
1, 164538, Note_on_c, 0, 53, 102
1, 164541, Poly_aftertouch_c, 0, 52, 127
1, 164560, Note_on_c, 0, 35, 81
1, 164579, Note_off_c, 0, 53, 70
1, 164586, Poly_aftertouch_c, 0, 52, 0
1, 164601, Note_off_c, 0, 35, 63
1, 164639, Note_on_c, 0, 51, 103
1, 164641, Note_on_c, 0, 45, 61
1, 164672, Note_off_c, 0, 45, 53
1, 164674, Note_off_c, 0, 51, 67
1, 164690, Control_c, 0, 64, 78
1, 164705, Control_c, 0, 64, 0
1, 164719, Note_on_c, 0, 49, 43
1, 164720, Note_on_c, 0, 47, 36
1, 164743, Control_c, 0, 64, 48
1, 164755, Note_off_c, 0, 47, 51
1, 164756, Note_on_c, 0, 53, 110
1, 164758, Control_c, 0, 64, 68
1, 164759, Note_off_c, 0, 49, 45
1, 164765, Note_on_c, 0, 48, 81
1, 164772, Control_c, 0, 64, 94
1, 164787, Note_off_c, 0, 53, 71
1, 164787, Control_c, 0, 64, 127
1, 164792, Note_off_c, 0, 48, 68
1, 164839, Poly_aftertouch_c, 0, 50, 127
1, 164851, Note_on_c, 0, 33, 86
1, 164861, Control_c, 0, 64, 87
1, 164866, Poly_aftertouch_c, 0, 50, 0
1, 164876, Control_c, 0, 64, 64
1, 164887, Note_off_c, 0, 33, 60
1, 164887, Note_on_c, 0, 35, 63
1, 164890, Control_c, 0, 64, 0
1, 164917, Note_off_c, 0, 35, 66
1, 164944, Note_on_c, 0, 41, 66
1, 164960, Note_on_c, 0, 44, 65
1, 165000, Note_off_c, 0, 41, 45
1, 165006, Note_on_c, 0, 49, 74
1, 165035, Note_off_c, 0, 49, 66
1, 165039, Control_c, 0, 64, 37
1, 165051, Note_off_c, 0, 44, 57
1, 165054, Control_c, 0, 64, 85
1, 165065, Note_on_c, 0, 29, 110
1, 165069, Control_c, 0, 64, 127
1, 165084, Note_on_c, 0, 52, 86
1, 165089, Note_off_c, 0, 29, 69
1, 165108, Note_off_c, 0, 52, 69
1, 165158, Control_c, 0, 64, 82
1, 165172, Control_c, 0, 64, 57
1, 165187, Control_c, 0, 64, 0
1, 165194, Note_on_c, 0, 35, 82
1, 165248, Note_off_c, 0, 35, 64
1, 165272, Note_on_c, 0, 41, 59
1, 165291, Note_on_c, 0, 44, 56
1, 165317, Note_off_c, 0, 44, 54
1, 165321, Note_on_c, 0, 49, 72
1, 165330, Note_off_c, 0, 41, 42
1, 165354, Note_off_c, 0, 49, 65
1, 165387, Note_on_c, 0, 89, 105
1, 165391, Note_on_c, 0, 88, 98
1, 165394, Note_on_c, 0, 76, 89
1, 165395, Control_c, 0, 64, 77
1, 165400, Note_on_c, 0, 77, 81
1, 165400, Note_on_c, 0, 87, 84
1, 165409, Note_on_c, 0, 52, 87
1, 165410, Note_off_c, 0, 89, 66
1, 165410, Control_c, 0, 64, 127
1, 165411, Note_off_c, 0, 76, 72
1, 165411, Note_off_c, 0, 88, 69
1, 165414, Note_off_c, 0, 77, 73
1, 165420, Note_off_c, 0, 87, 70
1, 165432, Note_off_c, 0, 52, 70
1, 165531, Note_on_c, 0, 35, 86
1, 165584, Note_off_c, 0, 35, 64
1, 165590, Note_on_c, 0, 29, 120
1, 165595, Note_on_c, 0, 41, 56
1, 165610, Note_off_c, 0, 29, 71
1, 165611, Note_on_c, 0, 44, 72
1, 165654, Note_on_c, 0, 49, 74
1, 165681, Note_off_c, 0, 49, 66
1, 165689, Note_off_c, 0, 44, 53
1, 165701, Note_off_c, 0, 41, 29
1, 165769, Note_on_c, 0, 52, 86
1, 165791, Note_off_c, 0, 52, 69
1, 165874, Note_on_c, 0, 35, 83
1, 165885, Note_on_c, 0, 76, 102
1, 165885, Note_on_c, 0, 89, 103
1, 165891, Note_on_c, 0, 87, 87
1, 165891, Note_on_c, 0, 88, 87
1, 165899, Note_on_c, 0, 77, 69
1, 165903, Note_off_c, 0, 76, 69
1, 165909, Note_on_c, 0, 36, 49
1, 165909, Note_off_c, 0, 89, 61
1, 165910, Note_off_c, 0, 88, 72
1, 165913, Note_on_c, 0, 41, 56
1, 165915, Note_off_c, 0, 35, 51
1, 165915, Note_off_c, 0, 77, 67
1, 165921, Note_off_c, 0, 87, 53
1, 165933, Note_off_c, 0, 36, 56
1, 165948, Note_on_c, 0, 44, 66
1, 165966, Note_off_c, 0, 41, 59
1, 165977, Note_on_c, 0, 49, 75
1, 166002, Note_off_c, 0, 49, 66
1, 166008, Note_off_c, 0, 44, 58
1, 166025, Control_c, 0, 64, 80
1, 166041, Control_c, 0, 64, 0
1, 166057, Note_on_c, 0, 89, 123
1, 166062, Note_on_c, 0, 76, 106
1, 166064, Note_on_c, 0, 77, 97
1, 166068, Note_on_c, 0, 52, 93
1, 166070, Note_on_c, 0, 87, 86
1, 166073, Note_on_c, 0, 79, 84
1, 166078, Note_on_c, 0, 88, 79
1, 166079, Note_off_c, 0, 77, 74
1, 166082, Note_off_c, 0, 87, 69
1, 166085, Note_off_c, 0, 76, 66
1, 166085, Control_c, 0, 64, 48
1, 166086, Note_off_c, 0, 79, 49
1, 166092, Note_off_c, 0, 88, 71
1, 166093, Note_off_c, 0, 89, 68
1, 166094, Note_on_c, 0, 85, 44
1, 166095, Note_off_c, 0, 85, 127
1, 166098, Note_off_c, 0, 52, 66
1, 166100, Control_c, 0, 64, 73
1, 166115, Control_c, 0, 64, 127
1, 166183, Note_on_c, 0, 35, 80
1, 166221, Note_off_c, 0, 35, 50
1, 166228, Note_on_c, 0, 36, 43
1, 166263, Note_off_c, 0, 36, 48
1, 166269, Note_on_c, 0, 44, 65
1, 166297, Note_on_c, 0, 42, 32
1, 166303, Note_on_c, 0, 49, 67
1, 166314, Note_off_c, 0, 44, 57
1, 166324, Poly_aftertouch_c, 0, 41, 127
1, 166335, Note_off_c, 0, 49, 65
1, 166360, Poly_aftertouch_c, 0, 41, 0
1, 166388, Note_on_c, 0, 29, 110
1, 166389, Poly_aftertouch_c, 0, 31, 0
1, 166392, Note_on_c, 0, 31, 96
1, 166396, Note_on_c, 0, 52, 89
1, 166413, Note_off_c, 0, 29, 69
1, 166416, Note_off_c, 0, 31, 68
1, 166425, Note_off_c, 0, 52, 61
1, 166472, Note_off_c, 0, 42, 42
1, 166482, Poly_aftertouch_c, 0, 46, 127
1, 166517, Poly_aftertouch_c, 0, 46, 0
1, 166518, Poly_aftertouch_c, 0, 44, 0
1, 166537, Note_on_c, 0, 35, 70
1, 166542, Note_on_c, 0, 33, 56
1, 166571, Note_off_c, 0, 35, 63
1, 166576, Note_off_c, 0, 33, 53
1, 166590, Note_on_c, 0, 89, 76
1, 166593, Note_on_c, 0, 88, 76
1, 166596, Control_c, 0, 64, 79
1, 166599, Note_on_c, 0, 91, 40
1, 166605, Note_on_c, 0, 44, 66
1, 166608, Note_off_c, 0, 88, 69
1, 166610, Control_c, 0, 64, 0
1, 166611, Note_on_c, 0, 87, 37
1, 166613, Note_off_c, 0, 89, 64
1, 166616, Note_off_c, 0, 87, 47
1, 166625, Note_off_c, 0, 91, 47
1, 166632, Note_on_c, 0, 49, 73
1, 166642, Note_off_c, 0, 44, 60
1, 166664, Note_off_c, 0, 49, 65
1, 166714, Control_c, 0, 64, 52
1, 166729, Control_c, 0, 64, 89
1, 166740, Note_on_c, 0, 52, 78
1, 166744, Control_c, 0, 64, 127
1, 166768, Note_off_c, 0, 52, 66
1, 166882, Note_on_c, 0, 35, 42
1, 166883, Note_on_c, 0, 76, 73
1, 166884, Note_on_c, 0, 89, 73
1, 166890, Note_on_c, 0, 87, 68
1, 166891, Note_on_c, 0, 88, 64
1, 166893, Note_on_c, 0, 77, 65
1, 166900, Note_off_c, 0, 76, 67
1, 166902, Note_off_c, 0, 89, 66
1, 166908, Note_off_c, 0, 88, 67
1, 166911, Note_off_c, 0, 77, 66
1, 166916, Note_off_c, 0, 87, 63
1, 166921, Note_off_c, 0, 35, 48
1, 166952, Note_on_c, 0, 44, 51
1, 166969, Note_on_c, 0, 49, 69
1, 166989, Note_off_c, 0, 44, 56
1, 166998, Note_off_c, 0, 49, 65
1, 167066, Note_on_c, 0, 52, 73
1, 167092, Note_off_c, 0, 52, 66
1, 167207, Note_on_c, 0, 35, 65
1, 167227, Note_on_c, 0, 87, 77
1, 167233, Note_on_c, 0, 76, 65
1, 167233, Note_off_c, 0, 35, 59
1, 167239, Note_on_c, 0, 89, 58
1, 167248, Note_on_c, 0, 86, 43
1, 167250, Note_on_c, 0, 88, 47
1, 167250, Note_off_c, 0, 76, 66
1, 167253, Note_off_c, 0, 87, 66
1, 167257, Note_on_c, 0, 36, 22
1, 167260, Note_off_c, 0, 89, 61
1, 167263, Note_on_c, 0, 77, 23
1, 167273, Note_off_c, 0, 88, 60
1, 167276, Note_off_c, 0, 86, 56
1, 167299, Note_on_c, 0, 49, 73
1, 167300, Note_off_c, 0, 77, 48
1, 167302, Note_off_c, 0, 36, 44
1, 167303, Note_on_c, 0, 44, 36
1, 167326, Note_off_c, 0, 49, 66
1, 167345, Note_off_c, 0, 44, 46
1, 167398, Note_on_c, 0, 52, 91
1, 167437, Note_off_c, 0, 52, 66
1, 167540, Note_on_c, 0, 35, 76
1, 167556, Note_on_c, 0, 89, 97
1, 167561, Note_on_c, 0, 77, 88
1, 167561, Note_on_c, 0, 87, 86
1, 167561, Note_on_c, 0, 88, 80
1, 167562, Note_on_c, 0, 76, 84
1, 167568, Note_off_c, 0, 35, 69
1, 167581, Note_on_c, 0, 41, 31
1, 167582, Note_off_c, 0, 88, 72
1, 167582, Note_off_c, 0, 77, 71
1, 167583, Note_off_c, 0, 76, 70
1, 167583, Note_off_c, 0, 87, 64
1, 167590, Note_off_c, 0, 89, 57
1, 167603, Note_on_c, 0, 36, 19
1, 167618, Note_on_c, 0, 44, 57
1, 167620, Note_off_c, 0, 41, 48
1, 167638, Note_on_c, 0, 49, 78
1, 167651, Note_off_c, 0, 36, 46
1, 167663, Note_off_c, 0, 49, 66
1, 167665, Note_off_c, 0, 44, 57
1, 167735, Note_on_c, 0, 52, 97
1, 167770, Note_on_c, 0, 42, 44
1, 167773, Note_on_c, 0, 44, 39
1, 167785, Note_off_c, 0, 52, 65
1, 167796, Note_off_c, 0, 44, 57
1, 167808, Note_off_c, 0, 42, 51
1, 167816, Poly_aftertouch_c, 0, 49, 0
1, 167887, Note_on_c, 0, 35, 77
1, 167901, Note_on_c, 0, 89, 113
1, 167907, Note_on_c, 0, 77, 91
1, 167907, Note_on_c, 0, 87, 93
1, 167907, Note_on_c, 0, 76, 98
1, 167915, Note_on_c, 0, 36, 57
1, 167919, Note_off_c, 0, 35, 65
1, 167925, Note_off_c, 0, 76, 73
1, 167925, Note_off_c, 0, 87, 66
1, 167928, Note_on_c, 0, 88, 57
1, 167929, Note_off_c, 0, 88, 127
1, 167929, Note_off_c, 0, 77, 68
1, 167930, Note_on_c, 0, 79, 57
1, 167931, Note_off_c, 0, 79, 127
1, 167939, Note_off_c, 0, 89, 61
1, 167940, Note_on_c, 0, 41, 18
1, 167947, Note_on_c, 0, 44, 13
1, 167950, Note_off_c, 0, 36, 60
1, 167979, Note_on_c, 0, 49, 77
1, 167984, Note_off_c, 0, 41, 41
1, 168006, Note_off_c, 0, 49, 65
1, 168018, Note_off_c, 0, 44, 44
1, 168073, Note_on_c, 0, 52, 102
1, 168092, Note_on_c, 0, 42, 54
1, 168124, Note_off_c, 0, 52, 64
1, 168133, Note_off_c, 0, 42, 55
1, 168223, Note_on_c, 0, 35, 80
1, 168239, Note_on_c, 0, 89, 103
1, 168242, Note_on_c, 0, 76, 93
1, 168243, Note_on_c, 0, 87, 97
1, 168244, Note_on_c, 0, 77, 94
1, 168250, Note_on_c, 0, 88, 83
1, 168254, Note_off_c, 0, 35, 63
1, 168260, Note_on_c, 0, 36, 51
1, 168261, Note_off_c, 0, 77, 72
1, 168262, Note_off_c, 0, 76, 70
1, 168267, Note_off_c, 0, 87, 58
1, 168271, Note_off_c, 0, 88, 73
1, 168278, Note_off_c, 0, 89, 60
1, 168297, Note_off_c, 0, 36, 48
1, 168310, Note_on_c, 0, 41, 13
1, 168312, Note_on_c, 0, 49, 73
1, 168338, Note_off_c, 0, 49, 66
1, 168357, Note_off_c, 0, 41, 38
1, 168395, Note_on_c, 0, 52, 99
1, 168428, Note_on_c, 0, 42, 44
1, 168437, Note_on_c, 0, 47, 38
1, 168445, Note_off_c, 0, 52, 66
1, 168471, Note_off_c, 0, 42, 50
1, 168473, Note_off_c, 0, 47, 61
1, 168484, Poly_aftertouch_c, 0, 44, 127
1, 168489, Poly_aftertouch_c, 0, 46, 127
1, 168512, Poly_aftertouch_c, 0, 44, 0
1, 168524, Poly_aftertouch_c, 0, 46, 0
1, 168552, Note_on_c, 0, 35, 80
1, 168575, Note_on_c, 0, 76, 95
1, 168575, Note_on_c, 0, 89, 98
1, 168575, Note_off_c, 0, 35, 70
1, 168577, Note_on_c, 0, 87, 98
1, 168579, Note_on_c, 0, 77, 92
1, 168580, Note_on_c, 0, 88, 85
1, 168595, Note_off_c, 0, 76, 69
1, 168595, Note_off_c, 0, 77, 75
1, 168598, Note_off_c, 0, 89, 61
1, 168598, Note_off_c, 0, 88, 75
1, 168601, Note_off_c, 0, 87, 60
1, 168616, Note_on_c, 0, 44, 55
1, 168650, Poly_aftertouch_c, 0, 36, 127
1, 168655, Note_on_c, 0, 49, 66
1, 168678, Note_off_c, 0, 44, 56
1, 168686, Note_off_c, 0, 49, 64
1, 168689, Poly_aftertouch_c, 0, 36, 0
1, 168698, Poly_aftertouch_c, 0, 41, 0
1, 168735, Note_on_c, 0, 52, 96
1, 168755, Note_on_c, 0, 42, 46
1, 168786, Note_off_c, 0, 52, 64
1, 168812, Poly_aftertouch_c, 0, 47, 0
1, 168817, Note_off_c, 0, 42, 51
1, 168866, Poly_aftertouch_c, 0, 47, 0
1, 168868, Poly_aftertouch_c, 0, 44, 0
1, 168877, Note_on_c, 0, 35, 78
1, 168899, Note_on_c, 0, 87, 94
1, 168900, Note_on_c, 0, 89, 93
1, 168901, Note_on_c, 0, 76, 95
1, 168906, Note_on_c, 0, 77, 86
1, 168907, Note_on_c, 0, 88, 88
1, 168908, Note_off_c, 0, 35, 66
1, 168914, Note_on_c, 0, 36, 51
1, 168920, Note_off_c, 0, 77, 75
1, 168921, Note_off_c, 0, 76, 69
1, 168923, Note_off_c, 0, 89, 63
1, 168926, Note_off_c, 0, 88, 75
1, 168937, Note_off_c, 0, 87, 60
1, 168949, Note_off_c, 0, 36, 48
1, 168956, Note_on_c, 0, 44, 60
1, 168969, Note_on_c, 0, 49, 84
1, 168995, Note_off_c, 0, 49, 68
1, 169003, Note_off_c, 0, 44, 57
1, 169029, Poly_aftertouch_c, 0, 41, 0
1, 169072, Note_on_c, 0, 52, 90
1, 169114, Note_off_c, 0, 52, 64
1, 169175, Poly_aftertouch_c, 0, 42, 0
1, 169197, Note_on_c, 0, 35, 78
1, 169212, Note_on_c, 0, 89, 94
1, 169214, Note_on_c, 0, 87, 90
1, 169214, Poly_aftertouch_c, 0, 41, 127
1, 169216, Note_on_c, 0, 76, 90
1, 169216, Note_on_c, 0, 88, 82
1, 169218, Note_on_c, 0, 77, 90
1, 169234, Note_off_c, 0, 35, 66
1, 169240, Note_off_c, 0, 76, 67
1, 169242, Note_off_c, 0, 77, 64
1, 169270, Note_off_c, 0, 89, 58
1, 169272, Note_off_c, 0, 88, 60
1, 169291, Note_on_c, 0, 49, 73
1, 169299, Note_off_c, 0, 87, 56
1, 169325, Note_off_c, 0, 49, 64
1, 169338, Poly_aftertouch_c, 0, 41, 0
1, 169355, Control_c, 0, 64, 125
1, 169369, Control_c, 0, 64, 70
1, 169384, Control_c, 0, 64, 43
1, 169391, Note_on_c, 0, 52, 92
1, 169394, Note_on_c, 0, 89, 104
1, 169399, Note_on_c, 0, 87, 98
1, 169399, Note_on_c, 0, 88, 93
1, 169399, Control_c, 0, 64, 62
1, 169401, Note_on_c, 0, 76, 98
1, 169402, Note_on_c, 0, 77, 99
1, 169414, Control_c, 0, 64, 76
1, 169417, Note_off_c, 0, 52, 68
1, 169419, Note_off_c, 0, 77, 73
1, 169420, Note_off_c, 0, 76, 71
1, 169427, Note_off_c, 0, 89, 65
1, 169429, Control_c, 0, 64, 99
1, 169436, Note_off_c, 0, 88, 65
1, 169443, Control_c, 0, 64, 127
1, 169444, Note_off_c, 0, 87, 65
1, 169498, Poly_aftertouch_c, 0, 46, 0
1, 169504, Note_on_c, 0, 35, 81
1, 169532, Control_c, 0, 64, 93
1, 169547, Control_c, 0, 64, 65
1, 169561, Control_c, 0, 64, 0
1, 169571, Note_on_c, 0, 38, 72
1, 169574, Note_off_c, 0, 35, 59
1, 169636, Note_off_c, 0, 38, 61
1, 169646, Note_on_c, 0, 43, 85
1, 169680, Control_c, 0, 64, 33
1, 169694, Note_off_c, 0, 43, 61
1, 169695, Control_c, 0, 64, 66
1, 169710, Control_c, 0, 64, 90
1, 169725, Control_c, 0, 64, 127
1, 169726, Note_on_c, 0, 29, 114
1, 169736, Note_on_c, 0, 46, 83
1, 169749, Note_off_c, 0, 29, 71
1, 169815, Control_c, 0, 64, 82
1, 169817, Note_off_c, 0, 46, 60
1, 169820, Note_on_c, 0, 41, 79
1, 169829, Control_c, 0, 64, 53
1, 169844, Control_c, 0, 64, 0
1, 169903, Control_c, 0, 64, 25
1, 169913, Note_on_c, 0, 44, 78
1, 169918, Control_c, 0, 64, 37
1, 169924, Note_off_c, 0, 41, 55
1, 169933, Control_c, 0, 64, 42
1, 169948, Control_c, 0, 64, 51
1, 169970, Control_c, 0, 64, 57
1, 169983, Note_on_c, 0, 49, 83
1, 169984, Control_c, 0, 64, 63
1, 169998, Note_off_c, 0, 44, 58
1, 169999, Control_c, 0, 64, 67
1, 170014, Control_c, 0, 64, 71
1, 170029, Control_c, 0, 64, 75
1, 170045, Control_c, 0, 64, 78
1, 170059, Control_c, 0, 64, 75
1, 170074, Note_on_c, 0, 52, 93
1, 170074, Control_c, 0, 64, 63
1, 170089, Control_c, 0, 64, 0
1, 170090, Note_off_c, 0, 49, 37
1, 170095, Note_on_c, 0, 48, 61
1, 170096, Note_off_c, 0, 48, 127
1, 170106, Note_off_c, 0, 52, 65
1, 170148, Control_c, 0, 64, 19
1, 170163, Control_c, 0, 64, 56
1, 170172, Note_on_c, 0, 35, 79
1, 170178, Control_c, 0, 64, 64
1, 170193, Control_c, 0, 64, 66
1, 170208, Control_c, 0, 64, 67
1, 170235, Note_on_c, 0, 38, 73
1, 170235, Note_off_c, 0, 35, 63
1, 170238, Control_c, 0, 64, 66
1, 170267, Control_c, 0, 64, 66
1, 170282, Control_c, 0, 64, 67
1, 170297, Control_c, 0, 64, 69
1, 170301, Note_off_c, 0, 38, 61
1, 170311, Control_c, 0, 64, 70
1, 170314, Note_on_c, 0, 43, 85
1, 170326, Control_c, 0, 64, 72
1, 170341, Control_c, 0, 64, 71
1, 170356, Control_c, 0, 64, 64
1, 170371, Control_c, 0, 64, 45
1, 170381, Note_off_c, 0, 43, 60
1, 170385, Control_c, 0, 64, 0
1, 170399, Note_on_c, 0, 67, 95
1, 170401, Note_on_c, 0, 81, 88
1, 170402, Note_on_c, 0, 46, 80
1, 170415, Control_c, 0, 64, 26
1, 170423, Note_off_c, 0, 81, 68
1, 170423, Note_off_c, 0, 67, 65
1, 170430, Control_c, 0, 64, 44
1, 170445, Control_c, 0, 64, 55
1, 170459, Control_c, 0, 64, 60
1, 170474, Control_c, 0, 64, 63
1, 170479, Note_on_c, 0, 41, 88
1, 170485, Note_off_c, 0, 46, 63
1, 170489, Control_c, 0, 64, 64
1, 170495, Note_on_c, 0, 67, 102
1, 170495, Note_on_c, 0, 81, 99
1, 170503, Control_c, 0, 64, 65
1, 170518, Control_c, 0, 64, 66
1, 170525, Note_off_c, 0, 67, 65
1, 170530, Note_off_c, 0, 81, 68
1, 170575, Note_on_c, 0, 44, 79
1, 170578, Control_c, 0, 64, 66
1, 170594, Note_off_c, 0, 41, 57
1, 170599, Note_on_c, 0, 67, 102
1, 170604, Note_on_c, 0, 81, 93
1, 170607, Control_c, 0, 64, 64
1, 170610, Note_on_c, 0, 79, 86
1, 170622, Control_c, 0, 64, 53
1, 170629, Note_off_c, 0, 79, 70
1, 170637, Note_on_c, 0, 49, 80
1, 170637, Control_c, 0, 64, 0
1, 170648, Note_off_c, 0, 44, 61
1, 170653, Note_off_c, 0, 67, 51
1, 170697, Control_c, 0, 64, 39
1, 170711, Note_off_c, 0, 49, 57
1, 170718, Control_c, 0, 64, 62
1, 170728, Note_off_c, 0, 81, 66
1, 170733, Control_c, 0, 64, 70
1, 170735, Note_on_c, 0, 52, 95
1, 170748, Control_c, 0, 64, 74
1, 170757, Note_on_c, 0, 48, 57
1, 170763, Control_c, 0, 64, 75
1, 170774, Note_off_c, 0, 52, 61
1, 170778, Control_c, 0, 64, 74
1, 170781, Note_off_c, 0, 48, 60
1, 170792, Control_c, 0, 64, 72
1, 170807, Control_c, 0, 64, 68
1, 170822, Control_c, 0, 64, 66
1, 170837, Note_on_c, 0, 35, 73
1, 170837, Note_on_c, 0, 81, 94
1, 170838, Note_on_c, 0, 68, 92
1, 170853, Control_c, 0, 64, 67
1, 170864, Note_off_c, 0, 68, 68
1, 170865, Note_off_c, 0, 81, 67
1, 170868, Control_c, 0, 64, 69
1, 170870, Note_on_c, 0, 36, 46
1, 170883, Control_c, 0, 64, 71
1, 170897, Note_off_c, 0, 35, 62
1, 170897, Control_c, 0, 64, 72
1, 170903, Note_off_c, 0, 36, 34
1, 170912, Note_on_c, 0, 38, 55
1, 170912, Control_c, 0, 64, 72
1, 170931, Note_on_c, 0, 40, 51
1, 170937, Note_on_c, 0, 67, 93
1, 170938, Note_on_c, 0, 81, 88
1, 170941, Control_c, 0, 64, 73
1, 170957, Note_on_c, 0, 79, 72
1, 170959, Note_off_c, 0, 40, 52
1, 170962, Note_off_c, 0, 38, 64
1, 170974, Note_off_c, 0, 79, 65
1, 170986, Control_c, 0, 64, 70
1, 170988, Note_off_c, 0, 67, 60
1, 170989, Note_on_c, 0, 43, 81
1, 171001, Control_c, 0, 64, 61
1, 171016, Control_c, 0, 64, 0
1, 171033, Note_off_c, 0, 81, 66
1, 171048, Note_off_c, 0, 43, 60
1, 171068, Note_on_c, 0, 46, 74
1, 171090, Control_c, 0, 64, 24
1, 171105, Control_c, 0, 64, 48
1, 171120, Control_c, 0, 64, 57
1, 171134, Control_c, 0, 64, 59
1, 171138, Note_off_c, 0, 46, 63
1, 171138, Note_on_c, 0, 41, 77
1, 171147, Note_on_c, 0, 81, 88
1, 171149, Control_c, 0, 64, 60
1, 171151, Note_on_c, 0, 68, 90
1, 171164, Control_c, 0, 64, 61
1, 171171, Note_off_c, 0, 68, 70
1, 171179, Control_c, 0, 64, 62
1, 171184, Note_off_c, 0, 81, 64
1, 171227, Note_on_c, 0, 44, 79
1, 171233, Note_off_c, 0, 41, 57
1, 171238, Control_c, 0, 64, 60
1, 171249, Note_on_c, 0, 67, 80
1, 171249, Note_on_c, 0, 81, 78
1, 171279, Note_on_c, 0, 49, 81
1, 171284, Note_on_c, 0, 69, 49
1, 171297, Control_c, 0, 64, 59
1, 171302, Note_off_c, 0, 44, 59
1, 171311, Note_off_c, 0, 69, 38
1, 171312, Control_c, 0, 64, 58
1, 171317, Note_off_c, 0, 67, 54
1, 171326, Control_c, 0, 64, 56
1, 171341, Control_c, 0, 64, 52
1, 171356, Control_c, 0, 64, 47
1, 171362, Note_on_c, 0, 52, 97
1, 171362, Note_off_c, 0, 81, 64
1, 171383, Note_off_c, 0, 49, 62
1, 171386, Control_c, 0, 64, 49
1, 171400, Note_off_c, 0, 52, 64
1, 171400, Control_c, 0, 64, 51
1, 171405, Note_on_c, 0, 48, 27
1, 171406, Note_off_c, 0, 48, 127
1, 171415, Control_c, 0, 64, 53
1, 171430, Control_c, 0, 64, 56
1, 171445, Control_c, 0, 64, 58
1, 171462, Note_on_c, 0, 81, 92
1, 171464, Note_on_c, 0, 67, 81
1, 171467, Control_c, 0, 64, 59
1, 171469, Note_on_c, 0, 35, 81
1, 171482, Control_c, 0, 64, 60
1, 171487, Note_off_c, 0, 67, 70
1, 171497, Control_c, 0, 64, 61
1, 171498, Note_off_c, 0, 81, 67
1, 171512, Control_c, 0, 64, 62
1, 171515, Note_off_c, 0, 35, 60
1, 171525, Note_on_c, 0, 38, 75
1, 171527, Control_c, 0, 64, 63
1, 171541, Control_c, 0, 64, 64
1, 171556, Control_c, 0, 64, 65
1, 171563, Note_on_c, 0, 68, 89
1, 171564, Note_on_c, 0, 81, 91
1, 171586, Control_c, 0, 64, 62
1, 171596, Note_off_c, 0, 38, 59
1, 171597, Note_off_c, 0, 81, 66
1, 171600, Note_off_c, 0, 68, 64
1, 171601, Control_c, 0, 64, 53
1, 171605, Note_on_c, 0, 43, 84
1, 171608, Note_on_c, 0, 70, 27
1, 171609, Note_off_c, 0, 70, 127
1, 171615, Control_c, 0, 64, 32
1, 171631, Control_c, 0, 64, 17
1, 171646, Control_c, 0, 64, 29
1, 171661, Control_c, 0, 64, 47
1, 171663, Note_off_c, 0, 43, 61
1, 171672, Note_on_c, 0, 81, 99
1, 171673, Note_on_c, 0, 67, 90
1, 171676, Control_c, 0, 64, 57
1, 171687, Note_on_c, 0, 69, 65
1, 171691, Control_c, 0, 64, 62
1, 171701, Note_on_c, 0, 46, 77
1, 171705, Note_off_c, 0, 67, 66
1, 171705, Note_off_c, 0, 69, 66
1, 171705, Control_c, 0, 64, 67
1, 171711, Note_off_c, 0, 81, 68
1, 171720, Control_c, 0, 64, 71
1, 171735, Control_c, 0, 64, 75
1, 171750, Control_c, 0, 64, 78
1, 171763, Note_on_c, 0, 41, 81
1, 171767, Note_off_c, 0, 46, 64
1, 171773, Note_on_c, 0, 68, 93
1, 171781, Note_on_c, 0, 81, 84
1, 171783, Note_on_c, 0, 83, 74
1, 171791, Note_off_c, 0, 68, 74
1, 171799, Note_off_c, 0, 83, 67
1, 171806, Note_off_c, 0, 81, 68
1, 171824, Control_c, 0, 64, 77
1, 171852, Note_on_c, 0, 44, 77
1, 171871, Note_off_c, 0, 41, 54
1, 171871, Note_on_c, 0, 67, 92
1, 171874, Note_on_c, 0, 81, 88
1, 171886, Note_on_c, 0, 79, 80
1, 171898, Control_c, 0, 64, 76
1, 171901, Note_off_c, 0, 79, 67
1, 171912, Note_off_c, 0, 67, 63
1, 171913, Note_on_c, 0, 49, 80
1, 171913, Note_off_c, 0, 81, 67
1, 171913, Control_c, 0, 64, 68
1, 171922, Note_off_c, 0, 44, 61
1, 171928, Control_c, 0, 64, 9
1, 171943, Control_c, 0, 64, 0
1, 171987, Control_c, 0, 64, 55
1, 171990, Note_on_c, 0, 52, 93
1, 171991, Note_on_c, 0, 66, 106
1, 171997, Note_on_c, 0, 80, 92
1, 172000, Note_on_c, 0, 78, 93
1, 172001, Control_c, 0, 64, 69
1, 172011, Note_off_c, 0, 49, 63
1, 172011, Note_on_c, 0, 75, 66
1, 172012, Note_off_c, 0, 75, 127
1, 172016, Control_c, 0, 64, 86
1, 172017, Note_off_c, 0, 78, 76
1, 172020, Note_on_c, 0, 68, 54
1, 172021, Note_off_c, 0, 68, 127
1, 172026, Note_on_c, 0, 48, 37
1, 172026, Note_off_c, 0, 52, 64
1, 172030, Control_c, 0, 64, 127
1, 172033, Note_off_c, 0, 66, 65
1, 172033, Note_off_c, 0, 80, 62
1, 172057, Note_off_c, 0, 48, 53
1, 172086, Note_on_c, 0, 35, 85
1, 172095, Note_on_c, 0, 66, 102
1, 172101, Note_on_c, 0, 80, 82
1, 172101, Note_on_c, 0, 78, 87
1, 172109, Note_on_c, 0, 75, 53
1, 172124, Note_off_c, 0, 78, 71
1, 172131, Note_off_c, 0, 80, 59
1, 172132, Note_off_c, 0, 75, 35
1, 172135, Note_off_c, 0, 66, 58
1, 172152, Note_off_c, 0, 35, 57
1, 172193, Note_on_c, 0, 66, 93
1, 172193, Note_on_c, 0, 80, 96
1, 172211, Note_on_c, 0, 40, 58
1, 172213, Note_on_c, 0, 38, 54
1, 172216, Control_c, 0, 64, 109
1, 172219, Note_on_c, 0, 78, 73
1, 172230, Control_c, 0, 64, 70
1, 172235, Note_off_c, 0, 66, 70
1, 172236, Note_off_c, 0, 78, 68
1, 172245, Control_c, 0, 64, 0
1, 172251, Note_off_c, 0, 40, 61
1, 172253, Note_off_c, 0, 38, 64
1, 172274, Note_on_c, 0, 43, 81
1, 172276, Note_off_c, 0, 80, 66
1, 172304, Control_c, 0, 64, 35
1, 172319, Control_c, 0, 64, 63
1, 172334, Control_c, 0, 64, 71
1, 172349, Control_c, 0, 64, 79
1, 172363, Control_c, 0, 64, 88
1, 172366, Note_on_c, 0, 46, 77
1, 172367, Note_off_c, 0, 43, 38
1, 172378, Control_c, 0, 64, 94
1, 172393, Control_c, 0, 64, 95
1, 172423, Note_on_c, 0, 75, 101
1, 172423, Control_c, 0, 64, 90
1, 172426, Note_on_c, 0, 88, 106
1, 172438, Note_on_c, 0, 41, 77
1, 172439, Note_off_c, 0, 46, 63
1, 172439, Control_c, 0, 64, 76
1, 172453, Control_c, 0, 64, 57
1, 172468, Control_c, 0, 64, 0
1, 172498, Control_c, 0, 64, 19
1, 172512, Control_c, 0, 64, 49
1, 172516, Note_off_c, 0, 75, 51
1, 172519, Note_on_c, 0, 44, 80
1, 172527, Control_c, 0, 64, 60
1, 172537, Note_off_c, 0, 41, 58
1, 172542, Control_c, 0, 64, 65
1, 172557, Control_c, 0, 64, 69
1, 172560, Note_off_c, 0, 88, 61
1, 172572, Control_c, 0, 64, 71
1, 172580, Note_on_c, 0, 49, 82
1, 172587, Control_c, 0, 64, 71
1, 172602, Control_c, 0, 64, 71
1, 172617, Control_c, 0, 64, 69
1, 172631, Note_off_c, 0, 44, 49
1, 172631, Control_c, 0, 64, 67
1, 172646, Control_c, 0, 64, 63
1, 172661, Control_c, 0, 64, 61
1, 172662, Note_on_c, 0, 52, 96
1, 172676, Control_c, 0, 64, 62
1, 172685, Note_on_c, 0, 50, 61
1, 172686, Note_off_c, 0, 50, 127
1, 172689, Note_on_c, 0, 48, 55
1, 172690, Note_off_c, 0, 48, 127
1, 172691, Note_off_c, 0, 49, 62
1, 172691, Control_c, 0, 64, 64
1, 172703, Note_off_c, 0, 52, 67
1, 172751, Control_c, 0, 64, 63
1, 172763, Note_on_c, 0, 35, 85
1, 172763, Note_on_c, 0, 74, 90
1, 172766, Control_c, 0, 64, 62
1, 172766, Note_on_c, 0, 88, 80
1, 172785, Note_on_c, 0, 86, 52
1, 172791, Note_off_c, 0, 74, 65
1, 172795, Control_c, 0, 64, 62
1, 172805, Note_off_c, 0, 86, 62
1, 172810, Note_off_c, 0, 88, 66
1, 172810, Control_c, 0, 64, 64
1, 172825, Control_c, 0, 64, 65
1, 172828, Note_off_c, 0, 35, 61
1, 172840, Control_c, 0, 64, 66
1, 172854, Control_c, 0, 64, 67
1, 172862, Note_on_c, 0, 38, 49
1, 172866, Note_on_c, 0, 40, 54
1, 172869, Control_c, 0, 64, 69
1, 172876, Note_on_c, 0, 88, 87
1, 172877, Note_on_c, 0, 75, 93
1, 172884, Control_c, 0, 64, 69
1, 172898, Control_c, 0, 64, 68
1, 172903, Note_off_c, 0, 38, 63
1, 172906, Note_off_c, 0, 40, 60
1, 172913, Control_c, 0, 64, 63
1, 172928, Control_c, 0, 64, 44
1, 172935, Note_on_c, 0, 43, 82
1, 172943, Control_c, 0, 64, 0
1, 172973, Note_off_c, 0, 75, 63
1, 172985, Note_off_c, 0, 88, 65
1, 172993, Note_off_c, 0, 43, 60
1, 173025, Note_on_c, 0, 46, 74
1, 173025, Control_c, 0, 64, 27
1, 173040, Control_c, 0, 64, 43
1, 173054, Control_c, 0, 64, 51
1, 173069, Control_c, 0, 64, 54
1, 173084, Control_c, 0, 64, 56
1, 173089, Note_on_c, 0, 88, 94
1, 173091, Note_on_c, 0, 74, 83
1, 173099, Control_c, 0, 64, 58
1, 173100, Note_off_c, 0, 46, 63
1, 173102, Note_on_c, 0, 41, 74
1, 173108, Note_off_c, 0, 74, 73
1, 173111, Note_on_c, 0, 86, 58
1, 173113, Control_c, 0, 64, 58
1, 173126, Note_off_c, 0, 88, 69
1, 173132, Note_off_c, 0, 86, 43
1, 173158, Control_c, 0, 64, 57
1, 173173, Control_c, 0, 64, 52
1, 173181, Note_on_c, 0, 88, 95
1, 173184, Note_on_c, 0, 75, 96
1, 173187, Note_on_c, 0, 44, 73
1, 173187, Note_off_c, 0, 41, 56
1, 173187, Control_c, 0, 64, 35
1, 173202, Control_c, 0, 64, 0
1, 173245, Note_on_c, 0, 49, 77
1, 173262, Note_off_c, 0, 44, 58
1, 173263, Control_c, 0, 64, 36
1, 173277, Control_c, 0, 64, 56
1, 173292, Control_c, 0, 64, 62
1, 173307, Control_c, 0, 64, 64
1, 173314, Note_off_c, 0, 75, 61
1, 173320, Note_off_c, 0, 88, 64
1, 173322, Control_c, 0, 64, 64
1, 173323, Note_on_c, 0, 52, 95
1, 173336, Control_c, 0, 64, 64
1, 173344, Note_off_c, 0, 49, 63
1, 173356, Note_on_c, 0, 48, 43
1, 173357, Note_off_c, 0, 48, 127
1, 173362, Note_off_c, 0, 52, 65
1, 173393, Note_on_c, 0, 50, 3
1, 173394, Note_off_c, 0, 50, 127
1, 173410, Control_c, 0, 64, 65
1, 173416, Note_on_c, 0, 88, 94
1, 173419, Note_on_c, 0, 74, 86
1, 173421, Note_on_c, 0, 35, 82
1, 173425, Control_c, 0, 64, 65
1, 173436, Note_off_c, 0, 74, 74
1, 173440, Control_c, 0, 64, 66
1, 173444, Note_on_c, 0, 86, 49
1, 173445, Note_off_c, 0, 86, 127
1, 173460, Note_off_c, 0, 88, 66
1, 173469, Control_c, 0, 64, 67
1, 173474, Note_off_c, 0, 35, 60
1, 173484, Note_on_c, 0, 38, 73
1, 173499, Control_c, 0, 64, 67
1, 173514, Control_c, 0, 64, 68
1, 173516, Note_on_c, 0, 88, 95
1, 173517, Note_on_c, 0, 75, 96
1, 173529, Control_c, 0, 64, 69
1, 173544, Control_c, 0, 64, 68
1, 173548, Note_off_c, 0, 75, 62
1, 173553, Note_off_c, 0, 38, 61
1, 173556, Note_off_c, 0, 88, 65
1, 173559, Control_c, 0, 64, 65
1, 173567, Note_on_c, 0, 43, 78
1, 173573, Control_c, 0, 64, 62
1, 173588, Control_c, 0, 64, 61
1, 173603, Control_c, 0, 64, 62
1, 173614, Note_off_c, 0, 43, 60
1, 173618, Control_c, 0, 64, 64
1, 173619, Note_on_c, 0, 74, 92
1, 173623, Note_on_c, 0, 88, 99
1, 173633, Control_c, 0, 64, 65
1, 173648, Control_c, 0, 64, 66
1, 173648, Note_off_c, 0, 74, 70
1, 173649, Note_on_c, 0, 46, 75
1, 173662, Control_c, 0, 64, 68
1, 173664, Note_on_c, 0, 87, 32
1, 173665, Note_off_c, 0, 87, 127
1, 173666, Note_on_c, 0, 76, 30
1, 173667, Note_off_c, 0, 88, 68
1, 173677, Control_c, 0, 64, 69
1, 173713, Note_off_c, 0, 76, 31
1, 173723, Note_on_c, 0, 41, 81
1, 173725, Note_off_c, 0, 46, 63
1, 173732, Note_on_c, 0, 88, 104
1, 173734, Note_on_c, 0, 75, 100
1, 173743, Control_c, 0, 64, 68
1, 173772, Note_off_c, 0, 75, 65
1, 173773, Control_c, 0, 64, 69
1, 173775, Note_off_c, 0, 88, 69
1, 173803, Control_c, 0, 64, 69
1, 173810, Note_on_c, 0, 44, 79
1, 173827, Note_off_c, 0, 41, 52
1, 173833, Control_c, 0, 64, 65
1, 173839, Note_on_c, 0, 74, 85
1, 173841, Note_on_c, 0, 88, 95
1, 173848, Control_c, 0, 64, 40
1, 173855, Note_on_c, 0, 49, 82
1, 173858, Note_on_c, 0, 76, 68
1, 173862, Control_c, 0, 64, 0
1, 173872, Note_off_c, 0, 44, 61
1, 173877, Note_off_c, 0, 76, 64
1, 173880, Note_on_c, 0, 86, 34
1, 173881, Note_off_c, 0, 86, 127
1, 173881, Note_off_c, 0, 74, 66
1, 173892, Note_on_c, 0, 87, 15
1, 173893, Note_off_c, 0, 87, 127
1, 173914, Note_off_c, 0, 49, 62
1, 173922, Control_c, 0, 64, 39
1, 173928, Note_off_c, 0, 88, 63
1, 173936, Control_c, 0, 64, 62
1, 173940, Note_on_c, 0, 52, 93
1, 173951, Control_c, 0, 64, 69
1, 173963, Note_on_c, 0, 48, 56
1, 173966, Control_c, 0, 64, 74
1, 173978, Note_off_c, 0, 52, 61
1, 173981, Control_c, 0, 64, 75
1, 173988, Note_off_c, 0, 48, 60
1, 173996, Control_c, 0, 64, 74
1, 174010, Control_c, 0, 64, 74
1, 174026, Control_c, 0, 64, 72
1, 174041, Control_c, 0, 64, 72
1, 174044, Note_on_c, 0, 74, 75
1, 174045, Note_on_c, 0, 35, 70
1, 174047, Note_on_c, 0, 88, 76
1, 174053, Note_on_c, 0, 86, 64
1, 174067, Note_off_c, 0, 74, 71
1, 174071, Note_off_c, 0, 86, 66
1, 174071, Control_c, 0, 64, 72
1, 174073, Note_off_c, 0, 88, 71
1, 174085, Control_c, 0, 64, 73
1, 174094, Note_off_c, 0, 35, 63
1, 174096, Note_on_c, 0, 38, 74
1, 174100, Control_c, 0, 64, 74
1, 174115, Control_c, 0, 64, 74
1, 174130, Control_c, 0, 64, 75
1, 174143, Note_on_c, 0, 73, 93
1, 174149, Note_on_c, 0, 87, 87
1, 174151, Note_off_c, 0, 38, 59
1, 174155, Note_on_c, 0, 85, 70
1, 174165, Note_off_c, 0, 73, 67
1, 174167, Note_off_c, 0, 87, 71
1, 174170, Note_off_c, 0, 85, 69
1, 174185, Note_on_c, 0, 43, 74
1, 174226, Note_off_c, 0, 43, 64
1, 174243, Note_on_c, 0, 71, 103
1, 174246, Note_on_c, 0, 84, 90
1, 174257, Note_on_c, 0, 82, 70
1, 174265, Note_on_c, 0, 46, 78
1, 174266, Note_off_c, 0, 71, 63
1, 174268, Note_on_c, 0, 83, 62
1, 174272, Note_on_c, 0, 80, 44
1, 174273, Note_off_c, 0, 80, 127
1, 174273, Note_off_c, 0, 82, 67
1, 174274, Note_off_c, 0, 84, 65
1, 174286, Note_off_c, 0, 83, 40
1, 174327, Note_on_c, 0, 41, 88
1, 174335, Note_off_c, 0, 46, 63
1, 174340, Note_on_c, 0, 83, 86
1, 174343, Note_on_c, 0, 69, 98
1, 174348, Note_on_c, 0, 81, 87
1, 174351, Control_c, 0, 64, 75
1, 174366, Note_off_c, 0, 81, 73
1, 174366, Control_c, 0, 64, 76
1, 174371, Note_off_c, 0, 69, 66
1, 174374, Note_off_c, 0, 83, 67
1, 174381, Note_on_c, 0, 82, 4
1, 174381, Control_c, 0, 64, 77
1, 174388, Note_on_c, 0, 80, 22
1, 174396, Control_c, 0, 64, 79
1, 174411, Control_c, 0, 64, 81
1, 174417, Note_on_c, 0, 44, 84
1, 174426, Control_c, 0, 64, 83
1, 174427, Note_off_c, 0, 80, 43
1, 174438, Note_off_c, 0, 82, 25
1, 174439, Note_on_c, 0, 81, 92
1, 174440, Note_off_c, 0, 41, 57
1, 174441, Note_on_c, 0, 67, 100
1, 174441, Control_c, 0, 64, 83
1, 174463, Control_c, 0, 64, 80
1, 174468, Note_on_c, 0, 80, 53
1, 174476, Note_on_c, 0, 69, 60
1, 174477, Note_off_c, 0, 69, 127
1, 174478, Control_c, 0, 64, 65
1, 174480, Note_off_c, 0, 67, 59
1, 174488, Note_off_c, 0, 80, 62
1, 174489, Note_off_c, 0, 81, 62
1, 174491, Note_on_c, 0, 49, 76
1, 174492, Control_c, 0, 64, 0
1, 174493, Note_on_c, 0, 79, 27
1, 174494, Note_off_c, 0, 79, 127
1, 174498, Note_off_c, 0, 44, 59
1, 174522, Control_c, 0, 64, 46
1, 174537, Control_c, 0, 64, 65
1, 174549, Note_on_c, 0, 80, 102
1, 174552, Note_on_c, 0, 66, 109
1, 174552, Control_c, 0, 64, 84
1, 174553, Note_on_c, 0, 52, 100
1, 174554, Note_on_c, 0, 78, 73
1, 174566, Note_on_c, 0, 68, 81
1, 174566, Control_c, 0, 64, 127
1, 174571, Note_off_c, 0, 78, 65
1, 174572, Note_on_c, 0, 75, 59
1, 174573, Note_off_c, 0, 75, 127
1, 174573, Note_off_c, 0, 49, 62
1, 174579, Note_on_c, 0, 73, 53
1, 174580, Note_off_c, 0, 73, 127
1, 174581, Note_off_c, 0, 68, 45
1, 174591, Note_off_c, 0, 52, 65
1, 174591, Note_off_c, 0, 80, 66
1, 174593, Note_off_c, 0, 66, 63
1, 174648, Note_on_c, 0, 78, 65
1, 174650, Note_on_c, 0, 66, 100
1, 174651, Note_on_c, 0, 35, 82
1, 174655, Note_on_c, 0, 80, 94
1, 174670, Note_on_c, 0, 75, 53
1, 174673, Note_on_c, 0, 68, 24
1, 174676, Note_on_c, 0, 73, 52
1, 174677, Note_off_c, 0, 73, 127
1, 174683, Note_off_c, 0, 78, 65
1, 174685, Note_off_c, 0, 80, 57
1, 174688, Note_off_c, 0, 66, 62
1, 174692, Note_off_c, 0, 75, 63
1, 174701, Note_off_c, 0, 68, 34
1, 174741, Note_on_c, 0, 38, 74
1, 174748, Note_off_c, 0, 35, 47
1, 174751, Note_on_c, 0, 80, 91
1, 174759, Note_on_c, 0, 66, 88
1, 174759, Control_c, 0, 64, 85
1, 174774, Control_c, 0, 64, 52
1, 174775, Note_on_c, 0, 78, 64
1, 174789, Control_c, 0, 64, 0
1, 174790, Note_off_c, 0, 80, 68
1, 174795, Note_off_c, 0, 78, 41
1, 174802, Note_off_c, 0, 38, 60
1, 174804, Note_off_c, 0, 66, 60
1, 174819, Control_c, 0, 64, 23
1, 174827, Note_on_c, 0, 43, 78
1, 174834, Control_c, 0, 64, 47
1, 174849, Control_c, 0, 64, 61
1, 174864, Control_c, 0, 64, 67
1, 174867, Note_off_c, 0, 43, 61
1, 174879, Control_c, 0, 64, 71
1, 174894, Control_c, 0, 64, 73
1, 174904, Note_on_c, 0, 46, 78
1, 174957, Note_on_c, 0, 71, 79
1, 174959, Note_on_c, 0, 57, 75
1, 174971, Note_off_c, 0, 46, 62
1, 174974, Note_off_c, 0, 57, 67
1, 174980, Note_off_c, 0, 71, 66
1, 174982, Control_c, 0, 64, 74
1, 174986, Note_on_c, 0, 41, 69
1, 174990, Note_on_c, 0, 69, 29
1, 175027, Note_off_c, 0, 69, 31
1, 175027, Control_c, 0, 64, 74
1, 175038, Note_on_c, 0, 71, 83
1, 175042, Control_c, 0, 64, 75
1, 175044, Note_on_c, 0, 58, 96
1, 175056, Control_c, 0, 64, 76
1, 175058, Note_on_c, 0, 44, 74
1, 175069, Note_off_c, 0, 41, 58
1, 175071, Control_c, 0, 64, 78
1, 175086, Control_c, 0, 64, 78
1, 175100, Control_c, 0, 64, 77
1, 175103, Note_off_c, 0, 58, 62
1, 175112, Note_on_c, 0, 49, 83
1, 175115, Control_c, 0, 64, 68
1, 175128, Note_off_c, 0, 71, 58
1, 175130, Control_c, 0, 64, 39
1, 175134, Note_off_c, 0, 44, 53
1, 175145, Control_c, 0, 64, 0
1, 175160, Control_c, 0, 64, 29
1, 175174, Control_c, 0, 64, 61
1, 175181, Note_on_c, 0, 52, 105
1, 175189, Control_c, 0, 64, 70
1, 175211, Note_on_c, 0, 50, 65
1, 175212, Note_off_c, 0, 50, 127
1, 175212, Control_c, 0, 64, 85
1, 175214, Note_off_c, 0, 49, 63
1, 175226, Note_off_c, 0, 52, 67
1, 175227, Control_c, 0, 64, 108
1, 175242, Control_c, 0, 64, 118
1, 175271, Control_c, 0, 64, 111
1, 175286, Control_c, 0, 64, 108
1, 175294, Note_on_c, 0, 35, 81
1, 175300, Control_c, 0, 64, 109
1, 175302, Note_on_c, 0, 57, 80
1, 175307, Note_on_c, 0, 71, 80
1, 175312, Note_on_c, 0, 69, 67
1, 175315, Control_c, 0, 64, 117
1, 175326, Note_off_c, 0, 57, 69
1, 175330, Control_c, 0, 64, 127
1, 175332, Note_off_c, 0, 71, 71
1, 175342, Note_off_c, 0, 69, 67
1, 175353, Note_off_c, 0, 35, 56
1, 175369, Note_on_c, 0, 38, 75
1, 175389, Control_c, 0, 64, 88
1, 175398, Note_on_c, 0, 58, 98
1, 175404, Control_c, 0, 64, 62
1, 175405, Note_on_c, 0, 71, 85
1, 175410, Note_on_c, 0, 70, 73
1, 175419, Control_c, 0, 64, 0
1, 175435, Note_off_c, 0, 38, 60
1, 175446, Note_on_c, 0, 69, 17
1, 175463, Note_on_c, 0, 43, 80
1, 175463, Control_c, 0, 64, 28
1, 175464, Note_off_c, 0, 58, 62
1, 175470, Note_off_c, 0, 70, 57
1, 175478, Control_c, 0, 64, 52
1, 175479, Note_off_c, 0, 71, 62
1, 175481, Note_off_c, 0, 69, 30
1, 175493, Control_c, 0, 64, 62
1, 175508, Control_c, 0, 64, 64
1, 175512, Note_off_c, 0, 43, 61
1, 175523, Control_c, 0, 64, 65
1, 175538, Control_c, 0, 64, 64
1, 175547, Note_on_c, 0, 46, 73
1, 175553, Control_c, 0, 64, 61
1, 175582, Control_c, 0, 64, 63
1, 175597, Control_c, 0, 64, 66
1, 175609, Note_on_c, 0, 71, 83
1, 175611, Note_off_c, 0, 46, 61
1, 175612, Control_c, 0, 64, 69
1, 175616, Note_on_c, 0, 41, 70
1, 175617, Note_on_c, 0, 57, 72
1, 175627, Control_c, 0, 64, 74
1, 175632, Note_off_c, 0, 71, 70
1, 175636, Note_off_c, 0, 57, 64
1, 175642, Control_c, 0, 64, 81
1, 175657, Control_c, 0, 64, 85
1, 175672, Control_c, 0, 64, 88
1, 175687, Control_c, 0, 64, 92
1, 175691, Note_on_c, 0, 44, 78
1, 175699, Note_off_c, 0, 41, 56
1, 175702, Control_c, 0, 64, 97
1, 175710, Note_on_c, 0, 58, 93
1, 175716, Note_on_c, 0, 71, 77
1, 175717, Control_c, 0, 64, 103
1, 175719, Note_on_c, 0, 72, 82
1, 175731, Control_c, 0, 64, 109
1, 175735, Note_off_c, 0, 58, 65
1, 175738, Note_off_c, 0, 72, 72
1, 175743, Note_off_c, 0, 71, 68
1, 175745, Control_c, 0, 64, 106
1, 175749, Note_on_c, 0, 49, 77
1, 175755, Note_off_c, 0, 44, 60
1, 175760, Control_c, 0, 64, 93
1, 175775, Control_c, 0, 64, 84
1, 175790, Control_c, 0, 64, 82
1, 175804, Control_c, 0, 64, 87
1, 175816, Note_on_c, 0, 52, 97
1, 175817, Note_on_c, 0, 74, 93
1, 175819, Control_c, 0, 64, 97
1, 175821, Note_on_c, 0, 60, 86
1, 175824, Poly_aftertouch_c, 0, 70, 0
1, 175832, Note_on_c, 0, 62, 79
1, 175834, Control_c, 0, 64, 127
1, 175837, Note_off_c, 0, 49, 62
1, 175838, Note_on_c, 0, 73, 65
1, 175840, Note_off_c, 0, 60, 72
1, 175845, Note_off_c, 0, 52, 63
1, 175853, Note_off_c, 0, 74, 66
1, 175855, Note_off_c, 0, 62, 65
1, 175857, Note_off_c, 0, 73, 65
1, 175916, Note_on_c, 0, 76, 99
1, 175917, Note_on_c, 0, 35, 79
1, 175924, Note_on_c, 0, 62, 71
1, 175934, Note_on_c, 0, 64, 67
1, 175955, Note_off_c, 0, 76, 69
1, 175960, Note_off_c, 0, 62, 67
1, 175961, Note_off_c, 0, 64, 64
1, 175972, Note_off_c, 0, 35, 52
1, 175992, Note_on_c, 0, 38, 65
1, 176029, Note_on_c, 0, 65, 89
1, 176031, Note_on_c, 0, 78, 88
1, 176045, Note_on_c, 0, 79, 75
1, 176048, Note_off_c, 0, 38, 58
1, 176048, Note_off_c, 0, 65, 71
1, 176051, Note_off_c, 0, 78, 71
1, 176055, Note_on_c, 0, 67, 49
1, 176056, Note_off_c, 0, 67, 127
1, 176057, Note_on_c, 0, 66, 43
1, 176059, Note_off_c, 0, 79, 67
1, 176065, Note_on_c, 0, 43, 78
1, 176086, Note_off_c, 0, 66, 61
1, 176108, Control_c, 0, 64, 83
1, 176122, Control_c, 0, 64, 0
1, 176131, Note_off_c, 0, 43, 53
1, 176133, Note_on_c, 0, 80, 93
1, 176134, Note_on_c, 0, 66, 102
1, 176139, Note_on_c, 0, 78, 96
1, 176151, Note_on_c, 0, 68, 75
1, 176152, Note_off_c, 0, 68, 127
1, 176155, Note_off_c, 0, 78, 75
1, 176157, Note_on_c, 0, 46, 69
1, 176167, Control_c, 0, 64, 40
1, 176168, Note_off_c, 0, 66, 61
1, 176170, Note_off_c, 0, 80, 67
1, 176182, Control_c, 0, 64, 60
1, 176197, Control_c, 0, 64, 72
1, 176212, Control_c, 0, 64, 93
1, 176213, Note_off_c, 0, 46, 60
1, 176215, Note_on_c, 0, 41, 85
1, 176226, Control_c, 0, 64, 127
1, 176236, Note_on_c, 0, 66, 99
1, 176238, Note_on_c, 0, 80, 88
1, 176244, Note_on_c, 0, 78, 79
1, 176268, Note_off_c, 0, 78, 66
1, 176269, Note_off_c, 0, 66, 56
1, 176281, Note_off_c, 0, 80, 62
1, 176301, Control_c, 0, 64, 89
1, 176311, Poly_aftertouch_c, 0, 68, 0
1, 176316, Control_c, 0, 64, 37
1, 176317, Note_on_c, 0, 44, 77
1, 176322, Note_off_c, 0, 41, 61
1, 176330, Control_c, 0, 64, 0
1, 176332, Note_on_c, 0, 80, 89
1, 176351, Note_on_c, 0, 66, 42
1, 176352, Note_off_c, 0, 66, 127
1, 176383, Note_off_c, 0, 80, 67
1, 176389, Note_off_c, 0, 44, 58
1, 176393, Note_on_c, 0, 49, 77
1, 176420, Control_c, 0, 64, 47
1, 176435, Control_c, 0, 64, 64
1, 176450, Control_c, 0, 64, 73
1, 176453, Note_off_c, 0, 49, 60
1, 176465, Control_c, 0, 64, 89
1, 176477, Note_on_c, 0, 52, 78
1, 176479, Control_c, 0, 64, 123
1, 176495, Control_c, 0, 64, 127
1, 176504, Note_off_c, 0, 52, 67
1, 176545, Poly_aftertouch_c, 0, 86, 127
1, 176554, Note_on_c, 0, 86, 35
1, 176578, Note_on_c, 0, 88, 70
1, 176580, Note_on_c, 0, 35, 61
1, 176591, Note_off_c, 0, 86, 64
1, 176596, Note_off_c, 0, 88, 68
1, 176609, Note_off_c, 0, 35, 61
1, 176642, Note_on_c, 0, 38, 45
1, 176667, Note_on_c, 0, 85, 76
1, 176673, Note_on_c, 0, 88, 63
1, 176681, Note_off_c, 0, 38, 47
1, 176688, Note_off_c, 0, 85, 69
1, 176709, Note_off_c, 0, 88, 67
1, 176721, Note_on_c, 0, 43, 69
1, 176754, Note_off_c, 0, 43, 64
1, 176774, Note_on_c, 0, 88, 97
1, 176777, Note_on_c, 0, 83, 93
1, 176795, Note_on_c, 0, 46, 70
1, 176811, Note_off_c, 0, 88, 69
1, 176811, Note_off_c, 0, 83, 60
1, 176858, Note_off_c, 0, 46, 54
1, 176864, Note_on_c, 0, 41, 88
1, 176879, Note_on_c, 0, 88, 106
1, 176879, Note_on_c, 0, 81, 93
1, 176909, Note_off_c, 0, 81, 64
1, 176912, Note_off_c, 0, 88, 70
1, 176917, Control_c, 0, 64, 98
1, 176932, Control_c, 0, 64, 72
1, 176942, Note_on_c, 0, 44, 84
1, 176946, Control_c, 0, 64, 65
1, 176961, Control_c, 0, 64, 78
1, 176969, Note_on_c, 0, 88, 109
1, 176970, Note_off_c, 0, 41, 60
1, 176972, Note_on_c, 0, 79, 95
1, 176976, Control_c, 0, 64, 127
1, 177001, Note_off_c, 0, 79, 61
1, 177005, Note_on_c, 0, 49, 79
1, 177021, Note_off_c, 0, 88, 69
1, 177055, Note_off_c, 0, 44, 56
1, 177072, Note_on_c, 0, 52, 98
1, 177076, Note_on_c, 0, 89, 94
1, 177077, Note_on_c, 0, 78, 103
1, 177093, Note_off_c, 0, 49, 63
1, 177094, Note_off_c, 0, 89, 70
1, 177094, Note_off_c, 0, 78, 70
1, 177094, Control_c, 0, 64, 82
1, 177098, Note_on_c, 0, 48, 55
1, 177109, Note_off_c, 0, 52, 65
1, 177109, Control_c, 0, 64, 0
1, 177120, Note_on_c, 0, 77, 40
1, 177121, Note_off_c, 0, 77, 127
1, 177125, Note_off_c, 0, 48, 40
1, 177168, Control_c, 0, 64, 55
1, 177183, Control_c, 0, 64, 72
1, 177189, Note_on_c, 0, 35, 59
1, 177198, Control_c, 0, 64, 92
1, 177213, Control_c, 0, 64, 127
1, 177225, Note_off_c, 0, 35, 63
1, 177231, Note_on_c, 0, 59, 77
1, 177245, Note_on_c, 0, 38, 49
1, 177255, Note_off_c, 0, 59, 69
1, 177292, Note_off_c, 0, 38, 61
1, 177320, Note_on_c, 0, 43, 79
1, 177325, Note_on_c, 0, 58, 72
1, 177325, Note_on_c, 0, 60, 69
1, 177325, Poly_aftertouch_c, 0, 57, 0
1, 177354, Note_off_c, 0, 60, 68
1, 177356, Note_off_c, 0, 58, 65
1, 177373, Note_off_c, 0, 43, 60
1, 177415, Note_on_c, 0, 46, 77
1, 177445, Note_on_c, 0, 58, 95
1, 177451, Note_on_c, 0, 62, 85
1, 177469, Note_off_c, 0, 58, 64
1, 177472, Note_off_c, 0, 62, 70
1, 177487, Note_off_c, 0, 46, 61
1, 177504, Note_on_c, 0, 41, 68
1, 177538, Note_on_c, 0, 64, 90
1, 177540, Note_on_c, 0, 58, 96
1, 177568, Note_on_c, 0, 44, 77
1, 177577, Note_off_c, 0, 64, 68
1, 177580, Note_off_c, 0, 58, 58
1, 177584, Note_off_c, 0, 41, 60
1, 177622, Note_on_c, 0, 49, 89
1, 177633, Note_on_c, 0, 66, 95
1, 177636, Note_on_c, 0, 58, 89
1, 177648, Note_off_c, 0, 44, 54
1, 177657, Note_off_c, 0, 58, 66
1, 177665, Control_c, 0, 64, 76
1, 177680, Note_off_c, 0, 66, 67
1, 177680, Control_c, 0, 64, 33
1, 177689, Note_off_c, 0, 49, 56
1, 177694, Control_c, 0, 64, 56
1, 177709, Control_c, 0, 64, 81
1, 177711, Note_on_c, 0, 52, 95
1, 177724, Control_c, 0, 64, 127
1, 177726, Note_on_c, 0, 56, 73
1, 177727, Note_off_c, 0, 56, 127
1, 177727, Note_on_c, 0, 68, 93
1, 177728, Note_on_c, 0, 48, 72
1, 177745, Note_on_c, 0, 55, 67
1, 177746, Note_on_c, 0, 57, 80
1, 177747, Note_off_c, 0, 48, 67
1, 177748, Note_on_c, 0, 66, 64
1, 177755, Note_off_c, 0, 52, 61
1, 177764, Note_off_c, 0, 55, 65
1, 177766, Note_off_c, 0, 66, 69
1, 177767, Note_on_c, 0, 67, 71
1, 177772, Note_off_c, 0, 57, 69
1, 177776, Note_off_c, 0, 68, 51
1, 177784, Control_c, 0, 64, 94
1, 177786, Note_off_c, 0, 67, 66
1, 177797, Poly_aftertouch_c, 0, 49, 0
1, 177799, Control_c, 0, 64, 66
1, 177809, Poly_aftertouch_c, 0, 47, 0
1, 177814, Control_c, 0, 64, 0
1, 177819, Note_on_c, 0, 35, 70
1, 177858, Control_c, 0, 64, 37
1, 177861, Note_on_c, 0, 74, 80
1, 177867, Note_on_c, 0, 76, 78
1, 177871, Note_off_c, 0, 35, 59
1, 177873, Note_on_c, 0, 38, 69
1, 177873, Control_c, 0, 64, 65
1, 177882, Note_off_c, 0, 74, 72
1, 177888, Control_c, 0, 64, 85
1, 177891, Note_off_c, 0, 76, 67
1, 177903, Control_c, 0, 64, 127
1, 177918, Note_off_c, 0, 38, 62
1, 177954, Note_on_c, 0, 76, 71
1, 177960, Note_on_c, 0, 74, 66
1, 177977, Note_on_c, 0, 43, 52
1, 177984, Note_off_c, 0, 74, 65
1, 177986, Note_off_c, 0, 76, 66
1, 178008, Note_off_c, 0, 43, 52
1, 178028, Poly_aftertouch_c, 0, 41, 0
1, 178049, Note_on_c, 0, 76, 99
1, 178050, Note_on_c, 0, 71, 92
1, 178058, Poly_aftertouch_c, 0, 41, 0
1, 178080, Note_off_c, 0, 71, 62
1, 178083, Note_off_c, 0, 76, 61
1, 178115, Note_on_c, 0, 41, 80
1, 178130, Poly_aftertouch_c, 0, 45, 127
1, 178145, Note_on_c, 0, 76, 108
1, 178147, Note_on_c, 0, 69, 101
1, 178162, Poly_aftertouch_c, 0, 45, 0
1, 178183, Note_off_c, 0, 76, 67
1, 178185, Note_off_c, 0, 69, 65
1, 178200, Note_on_c, 0, 44, 77
1, 178204, Note_off_c, 0, 41, 62
1, 178254, Note_on_c, 0, 76, 103
1, 178260, Note_on_c, 0, 49, 83
1, 178260, Note_on_c, 0, 67, 90
1, 178285, Note_off_c, 0, 67, 66
1, 178295, Note_off_c, 0, 44, 57
1, 178305, Note_off_c, 0, 76, 67
1, 178326, Note_off_c, 0, 49, 62
1, 178347, Note_on_c, 0, 52, 99
1, 178359, Note_on_c, 0, 66, 110
1, 178367, Note_on_c, 0, 77, 80
1, 178370, Control_c, 0, 64, 87
1, 178371, Note_on_c, 0, 48, 62
1, 178380, Note_on_c, 0, 76, 80
1, 178385, Note_off_c, 0, 52, 66
1, 178385, Control_c, 0, 64, 52
1, 178389, Note_off_c, 0, 77, 71
1, 178395, Note_off_c, 0, 48, 58
1, 178396, Note_off_c, 0, 66, 67
1, 178396, Note_off_c, 0, 76, 67
1, 178399, Control_c, 0, 64, 0
1, 178446, Note_on_c, 0, 35, 81
1, 178458, Control_c, 0, 64, 19
1, 178473, Control_c, 0, 64, 51
1, 178488, Control_c, 0, 64, 58
1, 178503, Control_c, 0, 64, 60
1, 178515, Note_off_c, 0, 35, 63
1, 178517, Control_c, 0, 64, 62
1, 178523, Note_on_c, 0, 38, 71
1, 178532, Control_c, 0, 64, 64
1, 178547, Control_c, 0, 64, 65
1, 178562, Control_c, 0, 64, 67
1, 178577, Control_c, 0, 64, 69
1, 178584, Note_off_c, 0, 38, 60
1, 178591, Control_c, 0, 64, 71
1, 178606, Control_c, 0, 64, 72
1, 178615, Note_on_c, 0, 43, 81
1, 178621, Control_c, 0, 64, 73
1, 178651, Control_c, 0, 64, 69
1, 178654, Note_off_c, 0, 43, 65
1, 178657, Note_on_c, 0, 59, 86
1, 178666, Control_c, 0, 64, 53
1, 178668, Note_on_c, 0, 58, 70
1, 178681, Control_c, 0, 64, 0
1, 178686, Note_off_c, 0, 59, 63
1, 178696, Note_off_c, 0, 58, 65
1, 178699, Note_on_c, 0, 46, 72
1, 178749, Note_on_c, 0, 58, 88
1, 178755, Note_on_c, 0, 60, 79
1, 178770, Note_off_c, 0, 46, 63
1, 178775, Note_on_c, 0, 41, 70
1, 178778, Note_off_c, 0, 58, 65
1, 178781, Note_off_c, 0, 60, 69
1, 178857, Note_on_c, 0, 44, 72
1, 178863, Note_off_c, 0, 41, 55
1, 178925, Note_on_c, 0, 49, 77
1, 178932, Note_off_c, 0, 44, 61
1, 178985, Control_c, 0, 64, 64
1, 178995, Note_on_c, 0, 58, 93
1, 179000, Control_c, 0, 64, 78
1, 179009, Note_off_c, 0, 49, 52
1, 179015, Control_c, 0, 64, 99
1, 179016, Note_on_c, 0, 52, 81
1, 179017, Note_off_c, 0, 58, 68
1, 179029, Control_c, 0, 64, 127
1, 179040, Note_off_c, 0, 52, 69
1, 179092, Note_on_c, 0, 59, 101
1, 179116, Note_on_c, 0, 35, 68
1, 179130, Note_off_c, 0, 59, 66
1, 179159, Note_off_c, 0, 35, 43
1, 179177, Note_on_c, 0, 38, 71
1, 179184, Note_on_c, 0, 60, 83
1, 179215, Note_off_c, 0, 60, 66
1, 179241, Note_off_c, 0, 38, 60
1, 179267, Control_c, 0, 64, 74
1, 179271, Note_on_c, 0, 43, 77
1, 179281, Control_c, 0, 64, 0
1, 179296, Note_on_c, 0, 62, 88
1, 179309, Note_on_c, 0, 58, 69
1, 179309, Note_off_c, 0, 43, 62
1, 179319, Note_off_c, 0, 62, 67
1, 179327, Note_off_c, 0, 58, 67
1, 179351, Note_on_c, 0, 46, 73
1, 179393, Note_on_c, 0, 58, 74
1, 179404, Note_on_c, 0, 64, 67
1, 179414, Note_on_c, 0, 63, 43
1, 179417, Note_off_c, 0, 46, 62
1, 179417, Note_off_c, 0, 58, 68
1, 179420, Note_on_c, 0, 41, 75
1, 179432, Note_off_c, 0, 64, 68
1, 179441, Note_off_c, 0, 63, 56
1, 179489, Note_on_c, 0, 66, 89
1, 179492, Note_on_c, 0, 58, 74
1, 179500, Note_on_c, 0, 44, 71
1, 179503, Note_off_c, 0, 41, 59
1, 179524, Note_off_c, 0, 58, 63
1, 179539, Note_off_c, 0, 66, 64
1, 179562, Note_on_c, 0, 49, 80
1, 179578, Control_c, 0, 64, 50
1, 179586, Note_on_c, 0, 68, 98
1, 179586, Note_off_c, 0, 44, 59
1, 179592, Note_on_c, 0, 57, 95
1, 179593, Control_c, 0, 64, 88
1, 179608, Control_c, 0, 64, 127
1, 179614, Note_off_c, 0, 57, 72
1, 179621, Note_off_c, 0, 68, 68
1, 179630, Note_on_c, 0, 52, 87
1, 179632, Note_off_c, 0, 49, 60
1, 179661, Note_off_c, 0, 52, 63
1, 179751, Note_on_c, 0, 35, 72
1, 179773, Note_on_c, 0, 28, 113
1, 179796, Note_off_c, 0, 28, 70
1, 179817, Note_off_c, 0, 35, 62
1, 179826, Note_on_c, 0, 38, 58
1, 179889, Note_off_c, 0, 38, 54
1, 179892, Note_on_c, 0, 43, 85
1, 179960, Note_off_c, 0, 43, 59
1, 179990, Note_on_c, 0, 46, 79
1, 180004, Note_on_c, 0, 74, 92
1, 180013, Note_on_c, 0, 86, 76
1, 180018, Note_on_c, 0, 88, 70
1, 180025, Note_off_c, 0, 74, 67
1, 180034, Note_off_c, 0, 88, 70
1, 180036, Note_off_c, 0, 86, 70
1, 180057, Note_off_c, 0, 46, 60
1, 180068, Note_on_c, 0, 41, 84
1, 180102, Note_on_c, 0, 86, 97
1, 180104, Note_on_c, 0, 73, 106
1, 180132, Note_on_c, 0, 85, 50
1, 180137, Note_on_c, 0, 75, 46
1, 180138, Note_off_c, 0, 75, 127
1, 180141, Note_off_c, 0, 73, 65
1, 180149, Note_on_c, 0, 44, 80
1, 180150, Control_c, 0, 64, 94
1, 180150, Note_off_c, 0, 86, 63
1, 180154, Note_off_c, 0, 85, 61
1, 180164, Control_c, 0, 64, 54
1, 180165, Note_off_c, 0, 41, 59
1, 180179, Control_c, 0, 64, 0
1, 180205, Note_on_c, 0, 49, 76
1, 180238, Control_c, 0, 64, 59
1, 180252, Note_off_c, 0, 44, 59
1, 180253, Control_c, 0, 64, 80
1, 180264, Note_on_c, 0, 52, 103
1, 180268, Control_c, 0, 64, 127
1, 180283, Note_off_c, 0, 49, 64
1, 180301, Note_on_c, 0, 48, 34
1, 180302, Note_off_c, 0, 52, 67
1, 180336, Note_off_c, 0, 48, 53
1, 180349, Poly_aftertouch_c, 0, 50, 127
1, 180359, Note_on_c, 0, 74, 100
1, 180362, Note_on_c, 0, 88, 92
1, 180364, Note_on_c, 0, 86, 81
1, 180366, Note_on_c, 0, 35, 81
1, 180380, Note_off_c, 0, 74, 69
1, 180380, Poly_aftertouch_c, 0, 50, 0
1, 180390, Note_off_c, 0, 86, 65
1, 180396, Note_off_c, 0, 88, 67
1, 180434, Note_off_c, 0, 35, 40
1, 180450, Note_on_c, 0, 38, 73
1, 180464, Note_on_c, 0, 73, 105
1, 180466, Note_on_c, 0, 86, 103
1, 180499, Control_c, 0, 64, 111
1, 180506, Note_off_c, 0, 73, 68
1, 180508, Note_on_c, 0, 75, 32
1, 180513, Note_off_c, 0, 38, 60
1, 180514, Control_c, 0, 64, 71
1, 180528, Control_c, 0, 64, 0
1, 180533, Note_off_c, 0, 86, 56
1, 180541, Note_on_c, 0, 43, 81
1, 180542, Note_off_c, 0, 75, 53
1, 180583, Note_off_c, 0, 43, 65
1, 180625, Note_on_c, 0, 46, 74
1, 180661, Control_c, 0, 64, 42
1, 180667, Note_on_c, 0, 88, 100
1, 180676, Control_c, 0, 64, 62
1, 180677, Note_on_c, 0, 74, 82
1, 180690, Note_off_c, 0, 88, 68
1, 180691, Control_c, 0, 64, 70
1, 180695, Note_off_c, 0, 74, 73
1, 180701, Note_on_c, 0, 41, 75
1, 180702, Note_off_c, 0, 46, 63
1, 180706, Control_c, 0, 64, 76
1, 180717, Note_on_c, 0, 86, 16
1, 180718, Note_off_c, 0, 86, 127
1, 180720, Control_c, 0, 64, 78
1, 180735, Control_c, 0, 64, 79
1, 180760, Note_on_c, 0, 86, 76
1, 180764, Note_on_c, 0, 73, 102
1, 180765, Control_c, 0, 64, 78
1, 180780, Note_on_c, 0, 44, 77
1, 180780, Control_c, 0, 64, 71
1, 180785, Note_off_c, 0, 41, 57
1, 180792, Note_on_c, 0, 85, 48
1, 180794, Control_c, 0, 64, 48
1, 180803, Note_off_c, 0, 73, 67
1, 180809, Control_c, 0, 64, 0
1, 180815, Note_off_c, 0, 85, 40
1, 180817, Note_off_c, 0, 86, 65
1, 180840, Note_on_c, 0, 49, 79
1, 180881, Note_off_c, 0, 44, 41
1, 180899, Control_c, 0, 64, 61
1, 180909, Note_on_c, 0, 52, 96
1, 180913, Control_c, 0, 64, 80
1, 180924, Note_on_c, 0, 85, 21
1, 180927, Note_off_c, 0, 49, 63
1, 180928, Control_c, 0, 64, 112
1, 180943, Control_c, 0, 64, 127
1, 180949, Note_on_c, 0, 50, 29
1, 180952, Note_off_c, 0, 52, 66
1, 180971, Note_off_c, 0, 85, 53
1, 180991, Note_off_c, 0, 50, 55
1, 181000, Note_on_c, 0, 86, 99
1, 181012, Note_on_c, 0, 35, 81
1, 181012, Note_on_c, 0, 72, 83
1, 181015, Note_on_c, 0, 74, 68
1, 181031, Note_off_c, 0, 72, 72
1, 181034, Note_off_c, 0, 86, 66
1, 181039, Note_off_c, 0, 74, 68
1, 181068, Note_off_c, 0, 35, 53
1, 181080, Note_on_c, 0, 38, 79
1, 181095, Note_on_c, 0, 73, 99
1, 181104, Note_on_c, 0, 86, 96
1, 181111, Note_on_c, 0, 85, 71
1, 181125, Note_off_c, 0, 73, 65
1, 181125, Note_off_c, 0, 86, 65
1, 181127, Note_off_c, 0, 85, 71
1, 181142, Note_off_c, 0, 38, 61
1, 181144, Note_on_c, 0, 80, 21
1, 181145, Note_off_c, 0, 80, 127
1, 181176, Note_on_c, 0, 43, 81
1, 181192, Poly_aftertouch_c, 0, 80, 0
1, 181212, Note_on_c, 0, 86, 101
1, 181220, Note_on_c, 0, 72, 98
1, 181220, Note_on_c, 0, 74, 82
1, 181239, Note_off_c, 0, 43, 60
1, 181240, Note_off_c, 0, 74, 72
1, 181241, Note_off_c, 0, 72, 69
1, 181250, Note_on_c, 0, 85, 36
1, 181251, Note_off_c, 0, 86, 64
1, 181264, Note_on_c, 0, 46, 77
1, 181283, Note_off_c, 0, 85, 54
1, 181313, Note_on_c, 0, 73, 107
1, 181315, Note_on_c, 0, 85, 93
1, 181321, Note_on_c, 0, 41, 86
1, 181326, Note_on_c, 0, 82, 85
1, 181327, Note_off_c, 0, 46, 63
1, 181340, Note_off_c, 0, 82, 71
1, 181347, Note_off_c, 0, 73, 66
1, 181347, Note_off_c, 0, 85, 65
1, 181353, Note_on_c, 0, 75, 33
1, 181354, Note_off_c, 0, 75, 127
1, 181355, Note_on_c, 0, 78, 35
1, 181356, Note_off_c, 0, 78, 127
1, 181388, Poly_aftertouch_c, 0, 75, 0
1, 181401, Note_on_c, 0, 44, 84
1, 181411, Note_on_c, 0, 86, 43
1, 181421, Note_on_c, 0, 74, 97
1, 181432, Note_off_c, 0, 41, 50
1, 181447, Note_off_c, 0, 74, 67
1, 181455, Control_c, 0, 64, 122
1, 181462, Note_off_c, 0, 86, 65
1, 181469, Control_c, 0, 64, 73
1, 181476, Note_on_c, 0, 49, 78
1, 181484, Control_c, 0, 64, 0
1, 181500, Note_off_c, 0, 44, 46
1, 181514, Control_c, 0, 64, 63
1, 181523, Note_on_c, 0, 73, 109
1, 181524, Note_on_c, 0, 87, 101
1, 181527, Note_on_c, 0, 85, 103
1, 181529, Note_on_c, 0, 52, 94
1, 181529, Control_c, 0, 64, 80
1, 181536, Note_on_c, 0, 75, 82
1, 181539, Note_on_c, 0, 80, 72
1, 181540, Note_off_c, 0, 80, 127
1, 181541, Note_off_c, 0, 85, 72
1, 181543, Control_c, 0, 64, 127
1, 181547, Note_off_c, 0, 49, 62
1, 181549, Note_on_c, 0, 82, 49
1, 181550, Note_off_c, 0, 82, 127
1, 181551, Note_off_c, 0, 75, 46
1, 181560, Note_off_c, 0, 73, 65
1, 181569, Note_off_c, 0, 87, 62
1, 181572, Note_off_c, 0, 52, 63
1, 181617, Control_c, 0, 64, 114
1, 181628, Note_on_c, 0, 35, 81
1, 181632, Control_c, 0, 64, 75
1, 181647, Control_c, 0, 64, 0
1, 181686, Note_off_c, 0, 35, 61
1, 181690, Note_on_c, 0, 38, 75
1, 181721, Control_c, 0, 64, 49
1, 181736, Control_c, 0, 64, 66
1, 181751, Control_c, 0, 64, 72
1, 181753, Note_off_c, 0, 38, 61
1, 181766, Control_c, 0, 64, 78
1, 181778, Note_on_c, 0, 43, 79
1, 181781, Control_c, 0, 64, 80
1, 181823, Note_off_c, 0, 43, 59
1, 181825, Control_c, 0, 64, 79
1, 181858, Note_on_c, 0, 46, 75
1, 181861, Note_on_c, 0, 81, 88
1, 181861, Note_on_c, 0, 67, 90
1, 181876, Note_on_c, 0, 79, 77
1, 181883, Note_off_c, 0, 67, 68
1, 181888, Note_off_c, 0, 81, 68
1, 181891, Note_off_c, 0, 79, 67
1, 181914, Control_c, 0, 64, 78
1, 181921, Note_off_c, 0, 46, 60
1, 181929, Control_c, 0, 64, 71
1, 181948, Note_on_c, 0, 41, 75
1, 181951, Control_c, 0, 64, 59
1, 181965, Note_on_c, 0, 80, 96
1, 181966, Control_c, 0, 64, 0
1, 181969, Note_on_c, 0, 68, 86
1, 181976, Note_on_c, 0, 66, 76
1, 181983, Note_on_c, 0, 78, 71
1, 181984, Note_off_c, 0, 78, 127
1, 181993, Note_off_c, 0, 66, 69
1, 181996, Note_off_c, 0, 68, 64
1, 181996, Note_off_c, 0, 80, 68
1, 182025, Note_on_c, 0, 44, 78
1, 182037, Note_off_c, 0, 41, 53
1, 182068, Note_on_c, 0, 67, 98
1, 182073, Note_on_c, 0, 81, 81
1, 182084, Note_on_c, 0, 79, 82
1, 182086, Note_on_c, 0, 49, 77
1, 182094, Note_on_c, 0, 80, 58
1, 182097, Note_off_c, 0, 67, 66
1, 182104, Note_off_c, 0, 79, 70
1, 182105, Note_off_c, 0, 44, 56
1, 182106, Note_off_c, 0, 81, 64
1, 182114, Note_off_c, 0, 80, 63
1, 182145, Control_c, 0, 64, 57
1, 182159, Control_c, 0, 64, 93
1, 182162, Note_on_c, 0, 52, 96
1, 182171, Note_on_c, 0, 66, 98
1, 182174, Control_c, 0, 64, 127
1, 182180, Note_on_c, 0, 80, 75
1, 182186, Note_on_c, 0, 78, 81
1, 182195, Note_off_c, 0, 80, 69
1, 182203, Note_off_c, 0, 52, 63
1, 182204, Note_off_c, 0, 66, 69
1, 182220, Note_off_c, 0, 49, 34
1, 182222, Note_off_c, 0, 78, 62
1, 182235, Note_on_c, 0, 79, 13
1, 182274, Poly_aftertouch_c, 0, 48, 0
1, 182276, Note_on_c, 0, 35, 69
1, 182282, Note_off_c, 0, 79, 50
1, 182285, Note_on_c, 0, 72, 94
1, 182285, Note_on_c, 0, 74, 91
1, 182293, Poly_aftertouch_c, 0, 68, 0
1, 182297, Note_on_c, 0, 33, 30
1, 182316, Note_off_c, 0, 35, 65
1, 182322, Note_off_c, 0, 72, 65
1, 182323, Note_on_c, 0, 38, 74
1, 182323, Note_off_c, 0, 74, 67
1, 182340, Note_off_c, 0, 33, 49
1, 182386, Note_on_c, 0, 71, 81
1, 182387, Note_on_c, 0, 74, 83
1, 182388, Note_off_c, 0, 38, 61
1, 182392, Note_on_c, 0, 72, 84
1, 182407, Note_off_c, 0, 71, 72
1, 182408, Note_on_c, 0, 43, 77
1, 182408, Note_off_c, 0, 74, 68
1, 182409, Note_off_c, 0, 72, 73
1, 182452, Note_off_c, 0, 43, 61
1, 182482, Note_on_c, 0, 72, 105
1, 182484, Note_on_c, 0, 74, 94
1, 182484, Control_c, 0, 64, 107
1, 182494, Note_on_c, 0, 46, 78
1, 182499, Control_c, 0, 64, 73
1, 182514, Control_c, 0, 64, 0
1, 182517, Note_off_c, 0, 74, 65
1, 182519, Note_off_c, 0, 72, 65
1, 182553, Note_off_c, 0, 46, 61
1, 182556, Note_on_c, 0, 41, 79
1, 182581, Note_on_c, 0, 71, 95
1, 182589, Control_c, 0, 64, 31
1, 182592, Note_on_c, 0, 74, 76
1, 182604, Control_c, 0, 64, 50
1, 182612, Note_off_c, 0, 74, 71
1, 182613, Note_off_c, 0, 71, 69
1, 182618, Control_c, 0, 64, 53
1, 182633, Control_c, 0, 64, 49
1, 182646, Note_on_c, 0, 44, 76
1, 182648, Control_c, 0, 64, 34
1, 182651, Note_off_c, 0, 41, 61
1, 182663, Control_c, 0, 64, 0
1, 182677, Note_on_c, 0, 74, 76
1, 182678, Note_on_c, 0, 72, 89
1, 182717, Note_off_c, 0, 74, 64
1, 182719, Note_on_c, 0, 49, 76
1, 182721, Note_off_c, 0, 72, 65
1, 182732, Note_off_c, 0, 44, 54
1, 182759, Control_c, 0, 64, 24
1, 182773, Control_c, 0, 64, 73
1, 182781, Note_on_c, 0, 71, 102
1, 182788, Note_on_c, 0, 73, 100
1, 182788, Control_c, 0, 64, 127
1, 182790, Note_on_c, 0, 52, 93
1, 182813, Note_off_c, 0, 71, 69
1, 182818, Note_off_c, 0, 49, 54
1, 182832, Note_off_c, 0, 52, 62
1, 182833, Note_off_c, 0, 73, 65
1, 182884, Note_on_c, 0, 35, 80
1, 182893, Control_c, 0, 64, 116
1, 182908, Control_c, 0, 64, 84
1, 182923, Control_c, 0, 64, 63
1, 182937, Control_c, 0, 64, 0
1, 182947, Note_on_c, 0, 38, 71
1, 182952, Control_c, 0, 67, 8
1, 182953, Note_off_c, 0, 35, 60
1, 182967, Control_c, 0, 67, 15
1, 182982, Control_c, 0, 67, 25
1, 182997, Control_c, 0, 67, 38
1, 183000, Note_off_c, 0, 38, 60
1, 183012, Control_c, 0, 67, 50
1, 183027, Control_c, 0, 67, 55
1, 183037, Note_on_c, 0, 43, 70
1, 183041, Control_c, 0, 64, 19
1, 183041, Control_c, 0, 67, 56
1, 183056, Control_c, 0, 64, 31
1, 183071, Control_c, 0, 64, 36
1, 183078, Note_off_c, 0, 43, 62
1, 183086, Control_c, 0, 64, 34
1, 183086, Control_c, 0, 67, 55
1, 183101, Control_c, 0, 64, 0
1, 183101, Control_c, 0, 67, 53
1, 183115, Control_c, 0, 67, 51
1, 183120, Note_on_c, 0, 65, 79
1, 183122, Note_on_c, 0, 46, 65
1, 183130, Control_c, 0, 67, 51
1, 183132, Note_on_c, 0, 67, 64
1, 183143, Note_off_c, 0, 65, 69
1, 183145, Control_c, 0, 67, 50
1, 183152, Note_off_c, 0, 67, 63
1, 183160, Control_c, 0, 67, 50
1, 183171, Note_off_c, 0, 46, 61
1, 183175, Control_c, 0, 67, 49
1, 183189, Control_c, 0, 67, 49
1, 183204, Control_c, 0, 67, 48
1, 183209, Note_on_c, 0, 41, 63
1, 183216, Note_on_c, 0, 67, 76
1, 183217, Note_on_c, 0, 64, 82
1, 183219, Control_c, 0, 67, 47
1, 183234, Control_c, 0, 67, 46
1, 183239, Note_off_c, 0, 64, 69
1, 183240, Note_off_c, 0, 67, 68
1, 183248, Control_c, 0, 67, 44
1, 183263, Control_c, 0, 67, 42
1, 183276, Note_off_c, 0, 41, 54
1, 183278, Control_c, 0, 67, 40
1, 183290, Note_on_c, 0, 44, 67
1, 183293, Control_c, 0, 67, 38
1, 183307, Control_c, 0, 67, 36
1, 183316, Note_on_c, 0, 67, 61
1, 183322, Control_c, 0, 67, 34
1, 183337, Note_off_c, 0, 67, 62
1, 183337, Control_c, 0, 67, 31
1, 183338, Note_off_c, 0, 44, 61
1, 183343, Note_on_c, 0, 64, 24
1, 183349, Note_on_c, 0, 65, 20
1, 183352, Control_c, 0, 67, 27
1, 183355, Note_on_c, 0, 49, 74
1, 183367, Control_c, 0, 67, 24
1, 183380, Note_off_c, 0, 64, 47
1, 183382, Control_c, 0, 64, 60
1, 183382, Control_c, 0, 67, 20
1, 183393, Note_off_c, 0, 65, 29
1, 183397, Control_c, 0, 64, 83
1, 183397, Control_c, 0, 67, 17
1, 183408, Note_on_c, 0, 66, 92
1, 183408, Note_off_c, 0, 49, 56
1, 183411, Control_c, 0, 64, 127
1, 183411, Control_c, 0, 67, 16
1, 183422, Note_on_c, 0, 64, 60
1, 183426, Note_on_c, 0, 52, 86
1, 183426, Control_c, 0, 67, 15
1, 183448, Note_off_c, 0, 64, 63
1, 183453, Note_off_c, 0, 66, 62
1, 183459, Note_off_c, 0, 52, 69
1, 183478, Control_c, 0, 67, 16
1, 183493, Control_c, 0, 67, 17
1, 183508, Control_c, 0, 64, 95
1, 183508, Control_c, 0, 67, 20
1, 183522, Control_c, 0, 64, 70
1, 183522, Control_c, 0, 67, 22
1, 183525, Note_on_c, 0, 35, 72
1, 183537, Control_c, 0, 64, 0
1, 183537, Control_c, 0, 67, 25
1, 183552, Control_c, 0, 67, 28
1, 183566, Note_off_c, 0, 35, 65
1, 183567, Control_c, 0, 67, 33
1, 183580, Note_on_c, 0, 38, 69
1, 183582, Control_c, 0, 67, 40
1, 183596, Control_c, 0, 67, 48
1, 183612, Control_c, 0, 64, 34
1, 183612, Control_c, 0, 67, 57
1, 183627, Control_c, 0, 64, 47
1, 183627, Control_c, 0, 67, 64
1, 183628, Note_off_c, 0, 38, 62
1, 183642, Control_c, 0, 64, 49
1, 183642, Control_c, 0, 67, 71
1, 183657, Control_c, 0, 64, 49
1, 183657, Control_c, 0, 67, 75
1, 183671, Control_c, 0, 64, 42
1, 183671, Control_c, 0, 67, 79
1, 183672, Note_on_c, 0, 43, 65
1, 183686, Control_c, 0, 64, 0
1, 183686, Control_c, 0, 67, 80
1, 183701, Control_c, 0, 67, 81
1, 183706, Note_off_c, 0, 43, 62
1, 183738, Note_on_c, 0, 58, 73
1, 183745, Control_c, 0, 67, 80
1, 183752, Note_on_c, 0, 60, 59
1, 183760, Control_c, 0, 67, 79
1, 183766, Note_off_c, 0, 58, 66
1, 183768, Note_on_c, 0, 46, 55
1, 183777, Note_off_c, 0, 60, 65
1, 183805, Control_c, 0, 67, 79
1, 183825, Note_off_c, 0, 46, 61
1, 183835, Control_c, 0, 67, 78
1, 183840, Note_on_c, 0, 57, 74
1, 183844, Note_on_c, 0, 41, 58
1, 183845, Note_on_c, 0, 60, 63
1, 183866, Note_off_c, 0, 57, 68
1, 183867, Note_off_c, 0, 60, 64
1, 183879, Control_c, 0, 67, 79
1, 183894, Control_c, 0, 67, 81
1, 183894, Note_off_c, 0, 41, 60
1, 183908, Note_on_c, 0, 44, 56
1, 183909, Control_c, 0, 67, 83
1, 183924, Control_c, 0, 67, 88
1, 183938, Control_c, 0, 67, 97
1, 183953, Control_c, 0, 67, 109
1, 183968, Control_c, 0, 67, 121
1, 183971, Note_off_c, 0, 44, 56
1, 183983, Control_c, 0, 67, 127
1, 183984, Note_on_c, 0, 49, 70
1, 184040, Note_off_c, 0, 49, 60
1, 184071, Note_on_c, 0, 52, 81
1, 184098, Note_off_c, 0, 52, 69
1, 184165, Note_on_c, 0, 35, 69
1, 184174, Note_on_c, 0, 58, 57
1, 184175, Note_on_c, 0, 60, 59
1, 184203, Note_off_c, 0, 58, 61
1, 184206, Note_off_c, 0, 60, 64
1, 184213, Note_on_c, 0, 38, 60
1, 184213, Note_off_c, 0, 35, 61
1, 184261, Note_off_c, 0, 38, 62
1, 184271, Note_on_c, 0, 57, 73
1, 184273, Note_on_c, 0, 60, 64
1, 184300, Note_off_c, 0, 57, 67
1, 184302, Note_on_c, 0, 43, 68
1, 184302, Note_off_c, 0, 60, 65
1, 184331, Control_c, 0, 67, 126
1, 184335, Note_off_c, 0, 43, 63
1, 184345, Control_c, 0, 67, 125
1, 184360, Control_c, 0, 67, 125
1, 184362, Note_on_c, 0, 60, 73
1, 184371, Note_on_c, 0, 58, 75
1, 184387, Note_on_c, 0, 46, 63
1, 184389, Control_c, 0, 67, 124
1, 184398, Note_off_c, 0, 60, 66
1, 184401, Note_off_c, 0, 58, 63
1, 184404, Control_c, 0, 67, 124
1, 184448, Note_off_c, 0, 46, 60
1, 184461, Note_on_c, 0, 41, 69
1, 184465, Control_c, 0, 67, 124
1, 184480, Control_c, 0, 67, 127
1, 184487, Note_on_c, 0, 57, 59
1, 184494, Control_c, 0, 67, 127
1, 184497, Note_on_c, 0, 60, 36
1, 184508, Note_off_c, 0, 57, 61
1, 184526, Note_off_c, 0, 60, 56
1, 184532, Note_off_c, 0, 41, 57
1, 184542, Note_on_c, 0, 44, 66
1, 184580, Note_on_c, 0, 60, 62
1, 184602, Note_on_c, 0, 57, 12
1, 184602, Note_off_c, 0, 44, 59
1, 184609, Note_off_c, 0, 60, 66
1, 184610, Note_on_c, 0, 49, 64
1, 184628, Note_off_c, 0, 57, 36
1, 184660, Note_off_c, 0, 49, 62
1, 184679, Note_on_c, 0, 59, 81
1, 184686, Note_on_c, 0, 52, 74
1, 184702, Note_off_c, 0, 59, 69
1, 184715, Note_off_c, 0, 52, 65
1, 184787, Note_on_c, 0, 35, 68
1, 184836, Note_off_c, 0, 35, 55
1, 184911, Note_on_c, 0, 38, 28
1, 184952, Note_on_c, 0, 43, 70
1, 184957, Note_off_c, 0, 38, 45
1, 185042, Note_on_c, 0, 46, 69
1, 185042, Note_on_c, 0, 53, 68
1, 185045, Note_off_c, 0, 43, 38
1, 185057, Note_on_c, 0, 51, 46
1, 185070, Note_off_c, 0, 46, 67
1, 185075, Note_off_c, 0, 53, 67
1, 185087, Note_off_c, 0, 51, 55
1, 185138, Note_on_c, 0, 53, 68
1, 185142, Note_on_c, 0, 35, 55
1, 185143, Note_on_c, 0, 50, 60
1, 185167, Note_off_c, 0, 50, 61
1, 185177, Note_off_c, 0, 53, 64
1, 185200, Note_off_c, 0, 35, 54
1, 185242, Note_on_c, 0, 38, 53
1, 185244, Note_on_c, 0, 53, 53
1, 185249, Poly_aftertouch_c, 0, 51, 127
1, 185279, Note_off_c, 0, 53, 65
1, 185280, Poly_aftertouch_c, 0, 51, 0
1, 185307, Note_off_c, 0, 38, 58
1, 185309, Note_on_c, 0, 43, 75
1, 185387, Note_on_c, 0, 46, 76
1, 185396, Note_off_c, 0, 43, 61
1, 185416, Note_off_c, 0, 46, 67
1, 185474, Note_on_c, 0, 35, 65
1, 185540, Note_off_c, 0, 35, 62
1, 185575, Note_on_c, 0, 38, 46
1, 185629, Note_off_c, 0, 38, 60
1, 185636, Note_on_c, 0, 43, 73
1, 185751, Note_on_c, 0, 46, 68
1, 185763, Note_off_c, 0, 43, 37
1, 185766, Note_on_c, 0, 50, 71
1, 185768, Note_on_c, 0, 53, 66
1, 185781, Note_off_c, 0, 46, 67
1, 185791, Note_off_c, 0, 53, 66
1, 185792, Note_off_c, 0, 50, 70
1, 185852, Note_on_c, 0, 35, 59
1, 185852, Note_on_c, 0, 53, 72
1, 185863, Note_on_c, 0, 51, 65
1, 185893, Note_off_c, 0, 53, 63
1, 185895, Note_off_c, 0, 51, 64
1, 185919, Note_off_c, 0, 35, 53
1, 185957, Note_on_c, 0, 38, 51
1, 185966, Note_on_c, 0, 50, 66
1, 185969, Note_on_c, 0, 51, 46
1, 185969, Note_on_c, 0, 53, 49
1, 185996, Note_off_c, 0, 50, 69
1, 185998, Note_off_c, 0, 53, 59
1, 185998, Note_off_c, 0, 51, 55
1, 186021, Note_off_c, 0, 38, 56
1, 186026, Note_on_c, 0, 43, 71
1, 186067, Note_on_c, 0, 52, 79
1, 186072, Note_on_c, 0, 51, 61
1, 186097, Note_on_c, 0, 46, 68
1, 186100, Note_off_c, 0, 43, 62
1, 186104, Note_off_c, 0, 51, 64
1, 186104, Note_off_c, 0, 52, 62
1, 186126, Note_off_c, 0, 46, 66
1, 186184, Note_on_c, 0, 50, 49
1, 186184, Note_on_c, 0, 35, 62
1, 186187, Note_on_c, 0, 53, 53
1, 186212, Note_off_c, 0, 50, 58
1, 186212, Note_off_c, 0, 53, 60
1, 186243, Note_off_c, 0, 35, 57
1, 186269, Note_on_c, 0, 38, 56
1, 186335, Note_off_c, 0, 38, 58
1, 186342, Note_on_c, 0, 43, 68
1, 186422, Note_on_c, 0, 46, 84
1, 186446, Note_off_c, 0, 43, 59
1, 186467, Note_off_c, 0, 46, 65
1, 186531, Note_on_c, 0, 35, 66
1, 186532, Note_on_c, 0, 50, 64
1, 186532, Note_on_c, 0, 53, 66
1, 186563, Note_off_c, 0, 53, 67
1, 186564, Note_off_c, 0, 50, 67
1, 186590, Note_off_c, 0, 35, 52
1, 186630, Note_on_c, 0, 52, 61
1, 186633, Note_on_c, 0, 38, 56
1, 186634, Note_on_c, 0, 51, 56
1, 186667, Note_off_c, 0, 52, 64
1, 186667, Note_off_c, 0, 51, 64
1, 186699, Note_off_c, 0, 38, 57
1, 186702, Note_on_c, 0, 43, 69
1, 186768, Note_on_c, 0, 46, 75
1, 186776, Note_off_c, 0, 43, 61
1, 186798, Note_off_c, 0, 46, 65
1, 186866, Note_on_c, 0, 35, 64
1, 186875, Note_on_c, 0, 51, 46
1, 186875, Note_on_c, 0, 52, 48
1, 186902, Note_off_c, 0, 52, 57
1, 186904, Note_off_c, 0, 51, 56
1, 186926, Note_off_c, 0, 35, 53
1, 186974, Note_on_c, 0, 38, 49
1, 186983, Note_on_c, 0, 52, 41
1, 186986, Note_on_c, 0, 51, 38
1, 187014, Note_off_c, 0, 52, 54
1, 187021, Note_off_c, 0, 51, 52
1, 187036, Note_on_c, 0, 43, 64
1, 187039, Note_off_c, 0, 38, 41
1, 187087, Note_off_c, 0, 43, 62
1, 187089, Note_on_c, 0, 46, 70
1, 187096, Control_c, 0, 64, 26
1, 187111, Control_c, 0, 64, 23
1, 187122, Note_off_c, 0, 46, 65
1, 187141, Control_c, 0, 64, 21
1, 187155, Control_c, 0, 64, 0
1, 187182, Note_on_c, 0, 35, 63
1, 187201, Note_on_c, 0, 52, 48
1, 187208, Note_on_c, 0, 51, 28
1, 187230, Note_off_c, 0, 52, 57
1, 187246, Note_off_c, 0, 35, 52
1, 187251, Note_off_c, 0, 51, 29
1, 187283, Note_on_c, 0, 38, 45
1, 187299, Note_on_c, 0, 51, 46
1, 187314, Note_on_c, 0, 43, 67
1, 187324, Note_off_c, 0, 38, 46
1, 187328, Note_off_c, 0, 51, 57
1, 187360, Note_off_c, 0, 43, 64
1, 187391, Note_on_c, 0, 46, 74
1, 187415, Control_c, 0, 64, 69
1, 187418, Note_off_c, 0, 46, 67
1, 187430, Control_c, 0, 64, 86
1, 187445, Control_c, 0, 64, 127
1, 187489, Note_on_c, 0, 35, 56
1, 187498, Note_on_c, 0, 51, 69
1, 187509, Note_on_c, 0, 64, 54
1, 187524, Note_off_c, 0, 51, 65
1, 187528, Note_off_c, 0, 35, 63
1, 187531, Note_off_c, 0, 64, 62
1, 187550, Note_on_c, 0, 38, 51
1, 187588, Note_off_c, 0, 38, 60
1, 187607, Note_on_c, 0, 64, 65
1, 187610, Note_on_c, 0, 51, 62
1, 187636, Note_off_c, 0, 64, 66
1, 187639, Note_off_c, 0, 51, 63
1, 187668, Control_c, 0, 67, 116
1, 187683, Control_c, 0, 67, 99
1, 187698, Control_c, 0, 67, 72
1, 187706, Note_on_c, 0, 51, 72
1, 187709, Note_on_c, 0, 64, 67
1, 187710, Note_on_c, 0, 46, 67
1, 187712, Control_c, 0, 67, 47
1, 187727, Control_c, 0, 67, 27
1, 187736, Note_off_c, 0, 64, 68
1, 187737, Note_off_c, 0, 51, 64
1, 187742, Control_c, 0, 67, 16
1, 187757, Control_c, 0, 67, 12
1, 187762, Note_off_c, 0, 46, 58
1, 187772, Control_c, 0, 67, 12
1, 187786, Control_c, 0, 67, 11
1, 187801, Note_on_c, 0, 40, 42
1, 187801, Control_c, 0, 67, 11
1, 187808, Note_on_c, 0, 51, 71
1, 187820, Note_on_c, 0, 41, 48
1, 187823, Note_on_c, 0, 64, 50
1, 187832, Note_off_c, 0, 51, 67
1, 187841, Note_off_c, 0, 40, 44
1, 187844, Note_off_c, 0, 64, 64
1, 187868, Note_off_c, 0, 41, 47
1, 187885, Note_on_c, 0, 44, 61
1, 187890, Control_c, 0, 67, 13
1, 187904, Note_on_c, 0, 64, 78
1, 187904, Note_on_c, 0, 51, 72
1, 187904, Control_c, 0, 67, 14
1, 187919, Control_c, 0, 67, 15
1, 187935, Note_off_c, 0, 51, 68
1, 187940, Note_off_c, 0, 44, 60
1, 187942, Note_on_c, 0, 49, 72
1, 187957, Control_c, 0, 64, 102
1, 187972, Control_c, 0, 64, 66
1, 187980, Note_off_c, 0, 64, 64
1, 187986, Control_c, 0, 64, 0
1, 187989, Note_off_c, 0, 49, 61
1, 188001, Control_c, 0, 67, 14
1, 188016, Control_c, 0, 67, 13
1, 188023, Note_on_c, 0, 52, 83
1, 188030, Control_c, 0, 64, 58
1, 188030, Control_c, 0, 67, 12
1, 188045, Control_c, 0, 64, 71
1, 188045, Control_c, 0, 67, 11
1, 188049, Note_off_c, 0, 52, 68
1, 188060, Control_c, 0, 64, 91
1, 188075, Control_c, 0, 64, 127
1, 188113, Note_on_c, 0, 35, 75
1, 188118, Note_on_c, 0, 63, 85
1, 188118, Note_on_c, 0, 76, 84
1, 188139, Note_off_c, 0, 76, 69
1, 188141, Note_off_c, 0, 63, 70
1, 188165, Note_off_c, 0, 35, 60
1, 188186, Note_on_c, 0, 38, 64
1, 188218, Note_on_c, 0, 76, 84
1, 188223, Poly_aftertouch_c, 0, 75, 0
1, 188226, Note_on_c, 0, 63, 89
1, 188228, Note_off_c, 0, 38, 62
1, 188232, Poly_aftertouch_c, 0, 75, 0
1, 188237, Control_c, 0, 67, 11
1, 188252, Control_c, 0, 67, 9
1, 188253, Note_on_c, 0, 43, 78
1, 188259, Note_off_c, 0, 63, 62
1, 188259, Note_off_c, 0, 76, 65
1, 188267, Control_c, 0, 67, 8
1, 188282, Control_c, 0, 67, 0
1, 188293, Note_off_c, 0, 43, 62
1, 188335, Note_on_c, 0, 63, 102
1, 188335, Note_on_c, 0, 76, 99
1, 188338, Note_on_c, 0, 46, 84
1, 188352, Note_on_c, 0, 75, 61
1, 188369, Note_off_c, 0, 76, 68
1, 188372, Note_off_c, 0, 75, 64
1, 188372, Note_off_c, 0, 63, 65
1, 188408, Note_off_c, 0, 46, 60
1, 188410, Note_on_c, 0, 41, 79
1, 188441, Note_on_c, 0, 63, 95
1, 188441, Note_on_c, 0, 76, 91
1, 188449, Note_on_c, 0, 75, 65
1, 188467, Note_off_c, 0, 75, 65
1, 188477, Note_off_c, 0, 63, 58
1, 188478, Note_on_c, 0, 43, 3
1, 188478, Note_off_c, 0, 76, 58
1, 188512, Note_on_c, 0, 45, 77
1, 188515, Note_off_c, 0, 41, 61
1, 188526, Note_off_c, 0, 43, 48
1, 188535, Note_on_c, 0, 76, 96
1, 188539, Note_on_c, 0, 63, 90
1, 188554, Note_on_c, 0, 49, 72
1, 188559, Note_off_c, 0, 63, 71
1, 188559, Note_on_c, 0, 75, 51
1, 188559, Note_off_c, 0, 45, 55
1, 188580, Control_c, 0, 64, 94
1, 188586, Note_off_c, 0, 75, 57
1, 188592, Note_on_c, 0, 50, 44
1, 188595, Control_c, 0, 64, 50
1, 188598, Note_off_c, 0, 76, 63
1, 188606, Note_off_c, 0, 49, 57
1, 188609, Control_c, 0, 64, 0
1, 188623, Note_off_c, 0, 50, 60
1, 188634, Note_on_c, 0, 52, 100
1, 188639, Control_c, 0, 64, 34
1, 188653, Control_c, 0, 64, 68
1, 188662, Note_on_c, 0, 48, 56
1, 188663, Note_off_c, 0, 48, 127
1, 188668, Control_c, 0, 64, 93
1, 188682, Note_off_c, 0, 52, 65
1, 188691, Control_c, 0, 64, 127
1, 188698, Poly_aftertouch_c, 0, 48, 0
1, 188738, Note_on_c, 0, 35, 81
1, 188741, Note_on_c, 0, 75, 100
1, 188741, Note_on_c, 0, 88, 103
1, 188762, Note_off_c, 0, 75, 65
1, 188762, Note_off_c, 0, 88, 65
1, 188815, Note_on_c, 0, 38, 73
1, 188824, Note_off_c, 0, 35, 58
1, 188841, Note_on_c, 0, 88, 109
1, 188842, Note_on_c, 0, 75, 107
1, 188873, Note_off_c, 0, 38, 62
1, 188898, Note_on_c, 0, 43, 80
1, 188929, Note_off_c, 0, 75, 58
1, 188934, Note_off_c, 0, 88, 63
1, 188953, Note_off_c, 0, 43, 60
1, 188989, Note_on_c, 0, 46, 75
1, 189039, Note_on_c, 0, 75, 92
1, 189039, Note_on_c, 0, 88, 85
1, 189048, Note_on_c, 0, 89, 87
1, 189052, Note_on_c, 0, 41, 73
1, 189053, Note_off_c, 0, 46, 64
1, 189055, Note_on_c, 0, 78, 67
1, 189056, Note_off_c, 0, 75, 69
1, 189057, Note_on_c, 0, 87, 60
1, 189058, Note_off_c, 0, 87, 127
1, 189060, Note_off_c, 0, 88, 71
1, 189067, Note_off_c, 0, 89, 69
1, 189076, Note_off_c, 0, 78, 44
1, 189123, Note_on_c, 0, 44, 84
1, 189129, Note_on_c, 0, 75, 98
1, 189132, Note_on_c, 0, 88, 84
1, 189132, Note_off_c, 0, 41, 55
1, 189134, Note_on_c, 0, 89, 95
1, 189153, Note_off_c, 0, 75, 64
1, 189159, Note_on_c, 0, 87, 44
1, 189162, Note_off_c, 0, 89, 59
1, 189164, Note_off_c, 0, 88, 66
1, 189165, Note_on_c, 0, 49, 79
1, 189181, Note_off_c, 0, 87, 58
1, 189194, Control_c, 0, 64, 90
1, 189197, Note_off_c, 0, 44, 58
1, 189210, Control_c, 0, 64, 37
1, 189224, Control_c, 0, 64, 0
1, 189238, Note_on_c, 0, 52, 97
1, 189243, Note_on_c, 0, 90, 104
1, 189246, Note_on_c, 0, 76, 97
1, 189248, Note_on_c, 0, 87, 91
1, 189249, Note_on_c, 0, 85, 91
1, 189250, Note_on_c, 0, 77, 81
1, 189254, Control_c, 0, 64, 60
1, 189261, Note_off_c, 0, 85, 75
1, 189263, Note_off_c, 0, 76, 74
1, 189264, Note_off_c, 0, 49, 60
1, 189267, Note_on_c, 0, 48, 48
1, 189268, Note_off_c, 0, 48, 127
1, 189268, Note_off_c, 0, 87, 72
1, 189269, Control_c, 0, 64, 85
1, 189271, Note_off_c, 0, 77, 72
1, 189273, Note_off_c, 0, 52, 64
1, 189283, Control_c, 0, 64, 127
1, 189285, Note_off_c, 0, 90, 68
1, 189332, Note_on_c, 0, 35, 79
1, 189345, Note_on_c, 0, 87, 100
1, 189349, Note_on_c, 0, 85, 54
1, 189349, Note_on_c, 0, 73, 101
1, 189352, Poly_aftertouch_c, 0, 86, 0
1, 189358, Note_on_c, 0, 75, 84
1, 189367, Note_off_c, 0, 35, 67
1, 189372, Note_off_c, 0, 75, 72
1, 189375, Note_off_c, 0, 85, 64
1, 189377, Note_on_c, 0, 80, 50
1, 189378, Note_off_c, 0, 80, 127
1, 189382, Note_on_c, 0, 38, 63
1, 189388, Note_off_c, 0, 73, 60
1, 189389, Note_off_c, 0, 87, 64
1, 189448, Note_off_c, 0, 38, 60
1, 189451, Note_on_c, 0, 85, 92
1, 189453, Note_on_c, 0, 40, 3
1, 189466, Note_on_c, 0, 73, 76
1, 189467, Note_on_c, 0, 82, 77
1, 189469, Note_on_c, 0, 72, 81
1, 189471, Note_on_c, 0, 43, 79
1, 189481, Note_off_c, 0, 72, 72
1, 189482, Note_off_c, 0, 82, 70
1, 189489, Note_off_c, 0, 73, 61
1, 189495, Note_off_c, 0, 40, 43
1, 189497, Note_on_c, 0, 71, 37
1, 189498, Note_off_c, 0, 71, 127
1, 189500, Note_off_c, 0, 85, 64
1, 189511, Note_off_c, 0, 43, 63
1, 189529, Poly_aftertouch_c, 0, 71, 0
1, 189561, Note_on_c, 0, 83, 98
1, 189568, Note_on_c, 0, 69, 92
1, 189576, Note_on_c, 0, 46, 67
1, 189590, Note_off_c, 0, 69, 68
1, 189592, Note_on_c, 0, 71, 58
1, 189593, Note_off_c, 0, 71, 127
1, 189597, Note_off_c, 0, 83, 65
1, 189604, Note_off_c, 0, 46, 65
1, 189624, Note_on_c, 0, 41, 72
1, 189651, Note_on_c, 0, 81, 73
1, 189665, Note_on_c, 0, 69, 81
1, 189668, Note_on_c, 0, 67, 93
1, 189684, Note_off_c, 0, 67, 71
1, 189686, Note_off_c, 0, 69, 70
1, 189688, Note_on_c, 0, 80, 43
1, 189696, Note_on_c, 0, 44, 76
1, 189696, Note_off_c, 0, 81, 67
1, 189701, Note_off_c, 0, 41, 60
1, 189713, Note_off_c, 0, 80, 60
1, 189757, Note_on_c, 0, 79, 90
1, 189758, Note_on_c, 0, 65, 99
1, 189759, Note_on_c, 0, 49, 90
1, 189770, Note_on_c, 0, 78, 46
1, 189775, Note_off_c, 0, 44, 60
1, 189785, Note_on_c, 0, 67, 41
1, 189789, Note_off_c, 0, 65, 60
1, 189790, Note_off_c, 0, 79, 52
1, 189795, Note_off_c, 0, 78, 62
1, 189806, Note_off_c, 0, 67, 35
1, 189810, Note_on_c, 0, 77, 12
1, 189823, Note_off_c, 0, 49, 61
1, 189838, Control_c, 0, 64, 106
1, 189842, Poly_aftertouch_c, 0, 75, 127
1, 189853, Control_c, 0, 64, 70
1, 189855, Note_on_c, 0, 52, 98
1, 189856, Poly_aftertouch_c, 0, 75, 0
1, 189859, Note_off_c, 0, 77, 50
1, 189865, Note_on_c, 0, 78, 91
1, 189867, Note_on_c, 0, 75, 65
1, 189868, Note_on_c, 0, 48, 71
1, 189868, Note_on_c, 0, 64, 94
1, 189868, Control_c, 0, 64, 40
1, 189876, Note_on_c, 0, 70, 83
1, 189877, Note_off_c, 0, 70, 127
1, 189877, Note_on_c, 0, 73, 73
1, 189878, Note_on_c, 0, 65, 80
1, 189883, Control_c, 0, 64, 62
1, 189885, Note_off_c, 0, 64, 73
1, 189886, Note_on_c, 0, 47, 48
1, 189889, Note_off_c, 0, 52, 63
1, 189889, Note_off_c, 0, 48, 43
1, 189893, Note_off_c, 0, 73, 70
1, 189893, Note_off_c, 0, 75, 63
1, 189894, Note_off_c, 0, 65, 68
1, 189898, Control_c, 0, 64, 75
1, 189911, Note_off_c, 0, 78, 65
1, 189913, Control_c, 0, 64, 97
1, 189919, Note_off_c, 0, 47, 39
1, 189928, Control_c, 0, 64, 127
1, 189949, Note_on_c, 0, 35, 81
1, 189969, Note_on_c, 0, 75, 88
1, 189972, Note_on_c, 0, 63, 96
1, 189975, Poly_aftertouch_c, 0, 73, 0
1, 189975, Note_on_c, 0, 73, 82
1, 189984, Note_on_c, 0, 61, 81
1, 189986, Note_on_c, 0, 68, 67
1, 189987, Note_off_c, 0, 68, 127
1, 189990, Note_off_c, 0, 35, 63
1, 189991, Note_off_c, 0, 73, 68
1, 189992, Note_on_c, 0, 38, 72
1, 190009, Note_off_c, 0, 61, 69
1, 190011, Note_off_c, 0, 63, 52
1, 190012, Note_off_c, 0, 75, 64
1, 190017, Note_on_c, 0, 66, 22
1, 190018, Note_off_c, 0, 66, 127
1, 190027, Poly_aftertouch_c, 0, 70, 0
1, 190058, Poly_aftertouch_c, 0, 66, 0
1, 190059, Note_off_c, 0, 38, 59
1, 190068, Note_on_c, 0, 73, 75
1, 190069, Note_on_c, 0, 43, 91
1, 190084, Note_on_c, 0, 61, 77
1, 190090, Note_on_c, 0, 60, 86
1, 190107, Note_off_c, 0, 61, 69
1, 190110, Note_off_c, 0, 73, 65
1, 190112, Note_off_c, 0, 60, 70
1, 190126, Note_off_c, 0, 43, 63
1, 190184, Note_on_c, 0, 46, 80
1, 190185, Note_on_c, 0, 71, 102
1, 190187, Note_on_c, 0, 59, 97
1, 190219, Note_off_c, 0, 71, 70
1, 190222, Note_off_c, 0, 59, 65
1, 190231, Note_off_c, 0, 46, 60
1, 190238, Note_on_c, 0, 41, 75
1, 190285, Note_on_c, 0, 69, 88
1, 190294, Note_on_c, 0, 55, 87
1, 190300, Note_on_c, 0, 57, 79
1, 190308, Note_on_c, 0, 67, 66
1, 190319, Note_off_c, 0, 55, 64
1, 190323, Note_on_c, 0, 44, 73
1, 190326, Note_off_c, 0, 57, 68
1, 190326, Note_off_c, 0, 69, 68
1, 190328, Note_off_c, 0, 41, 60
1, 190328, Note_off_c, 0, 67, 63
1, 190380, Note_on_c, 0, 67, 90
1, 190383, Note_on_c, 0, 49, 84
1, 190411, Note_off_c, 0, 44, 58
1, 190425, Note_off_c, 0, 67, 64
1, 190450, Note_off_c, 0, 49, 56
1, 190469, Control_c, 0, 64, 123
1, 190477, Note_on_c, 0, 52, 89
1, 190484, Note_on_c, 0, 66, 92
1, 190484, Control_c, 0, 64, 73
1, 190498, Control_c, 0, 64, 19
1, 190502, Note_off_c, 0, 52, 67
1, 190513, Control_c, 0, 64, 0
1, 190515, Note_on_c, 0, 48, 26
1, 190516, Note_off_c, 0, 48, 127
1, 190527, Note_off_c, 0, 66, 66
1, 190528, Control_c, 0, 64, 54
1, 190543, Control_c, 0, 64, 65
1, 190557, Control_c, 0, 64, 75
1, 190563, Note_on_c, 0, 35, 81
1, 190572, Control_c, 0, 64, 95
1, 190586, Note_on_c, 0, 52, 91
1, 190587, Control_c, 0, 64, 127
1, 190588, Note_on_c, 0, 63, 91
1, 190619, Note_off_c, 0, 35, 64
1, 190622, Note_off_c, 0, 52, 65
1, 190625, Note_on_c, 0, 38, 66
1, 190634, Note_off_c, 0, 63, 64
1, 190682, Note_off_c, 0, 38, 62
1, 190684, Note_on_c, 0, 61, 86
1, 190693, Note_on_c, 0, 43, 85
1, 190696, Note_on_c, 0, 52, 82
1, 190719, Note_off_c, 0, 52, 69
1, 190730, Note_off_c, 0, 61, 64
1, 190741, Note_off_c, 0, 43, 61
1, 190795, Control_c, 0, 64, 83
1, 190798, Note_on_c, 0, 59, 94
1, 190807, Note_on_c, 0, 41, 72
1, 190807, Note_on_c, 0, 57, 79
1, 190810, Control_c, 0, 64, 62
1, 190825, Control_c, 0, 64, 52
1, 190834, Note_off_c, 0, 57, 67
1, 190840, Control_c, 0, 64, 66
1, 190841, Note_off_c, 0, 59, 63
1, 190855, Control_c, 0, 64, 77
1, 190870, Control_c, 0, 64, 97
1, 190885, Control_c, 0, 64, 127
1, 190892, Note_on_c, 0, 57, 98
1, 190898, Note_on_c, 0, 44, 79
1, 190938, Note_off_c, 0, 41, 61
1, 190940, Note_off_c, 0, 57, 64
1, 190992, Note_on_c, 0, 49, 88
1, 190995, Note_off_c, 0, 44, 58
1, 191003, Note_on_c, 0, 55, 95
1, 191035, Note_off_c, 0, 55, 62
1, 191084, Control_c, 0, 64, 122
1, 191088, Note_on_c, 0, 52, 94
1, 191090, Note_off_c, 0, 49, 53
1, 191099, Control_c, 0, 64, 75
1, 191099, Control_c, 0, 67, 14
1, 191107, Note_on_c, 0, 54, 102
1, 191114, Control_c, 0, 64, 0
1, 191114, Control_c, 0, 67, 31
1, 191121, Note_off_c, 0, 52, 65
1, 191124, Note_on_c, 0, 48, 34
1, 191125, Note_off_c, 0, 48, 127
1, 191129, Control_c, 0, 67, 58
1, 191144, Control_c, 0, 67, 90
1, 191145, Note_off_c, 0, 54, 67
1, 191159, Control_c, 0, 67, 117
1, 191173, Control_c, 0, 67, 127
1, 191181, Note_on_c, 0, 35, 83
1, 191188, Control_c, 0, 64, 14
1, 191202, Note_on_c, 0, 54, 87
1, 191203, Control_c, 0, 64, 41
1, 191218, Control_c, 0, 64, 45
1, 191242, Note_off_c, 0, 54, 64
1, 191248, Control_c, 0, 64, 45
1, 191251, Note_off_c, 0, 35, 63
1, 191262, Control_c, 0, 64, 44
1, 191263, Note_on_c, 0, 38, 67
1, 191277, Control_c, 0, 64, 45
1, 191307, Control_c, 0, 64, 45
1, 191308, Note_on_c, 0, 54, 84
1, 191321, Note_off_c, 0, 38, 60
1, 191322, Control_c, 0, 64, 45
1, 191335, Note_off_c, 0, 54, 65
1, 191336, Control_c, 0, 64, 29
1, 191351, Control_c, 0, 64, 0
1, 191352, Note_on_c, 0, 43, 74
1, 191366, Control_c, 0, 67, 125
1, 191380, Control_c, 0, 67, 121
1, 191395, Control_c, 0, 67, 119
1, 191400, Note_off_c, 0, 43, 62
1, 191410, Control_c, 0, 67, 116
1, 191425, Control_c, 0, 67, 114
1, 191440, Control_c, 0, 67, 114
1, 191446, Note_on_c, 0, 46, 61
1, 191469, Control_c, 0, 64, 20
1, 191484, Control_c, 0, 64, 26
1, 191495, Note_off_c, 0, 46, 60
1, 191499, Control_c, 0, 64, 28
1, 191508, Note_on_c, 0, 54, 85
1, 191514, Control_c, 0, 64, 30
1, 191522, Note_on_c, 0, 41, 65
1, 191528, Control_c, 0, 64, 32
1, 191535, Note_off_c, 0, 54, 65
1, 191543, Control_c, 0, 64, 34
1, 191558, Control_c, 0, 64, 37
1, 191573, Control_c, 0, 64, 39
1, 191588, Control_c, 0, 64, 43
1, 191594, Note_on_c, 0, 44, 72
1, 191594, Note_off_c, 0, 41, 59
1, 191603, Control_c, 0, 64, 48
1, 191613, Note_on_c, 0, 54, 83
1, 191618, Control_c, 0, 64, 53
1, 191633, Control_c, 0, 64, 56
1, 191640, Note_off_c, 0, 54, 68
1, 191648, Control_c, 0, 64, 58
1, 191648, Control_c, 0, 67, 113
1, 191655, Note_on_c, 0, 49, 81
1, 191663, Control_c, 0, 64, 59
1, 191663, Control_c, 0, 67, 113
1, 191676, Note_off_c, 0, 44, 54
1, 191700, Control_c, 0, 64, 51
1, 191700, Control_c, 0, 67, 112
1, 191715, Control_c, 0, 64, 0
1, 191715, Control_c, 0, 67, 113
1, 191722, Note_on_c, 0, 54, 105
1, 191728, Note_on_c, 0, 52, 96
1, 191749, Note_off_c, 0, 54, 68
1, 191750, Note_off_c, 0, 49, 63
1, 191763, Note_off_c, 0, 52, 65
1, 191774, Control_c, 0, 67, 113
1, 191803, Control_c, 0, 67, 114
1, 191818, Control_c, 0, 67, 114
1, 191821, Note_on_c, 0, 54, 88
1, 191829, Note_on_c, 0, 35, 74
1, 191833, Control_c, 0, 67, 115
1, 191851, Note_off_c, 0, 54, 64
1, 191863, Control_c, 0, 67, 116
1, 191874, Note_off_c, 0, 35, 58
1, 191877, Control_c, 0, 67, 117
1, 191892, Control_c, 0, 67, 118
1, 191901, Note_on_c, 0, 38, 70
1, 191907, Control_c, 0, 67, 120
1, 191922, Control_c, 0, 67, 121
1, 191934, Note_on_c, 0, 54, 76
1, 191937, Control_c, 0, 67, 122
1, 191952, Control_c, 0, 67, 123
1, 191962, Note_off_c, 0, 38, 60
1, 191967, Control_c, 0, 67, 124
1, 191968, Note_off_c, 0, 54, 63
1, 192008, Note_on_c, 0, 43, 65
1, 192026, Control_c, 0, 67, 123
1, 192041, Control_c, 0, 67, 122
1, 192041, Note_off_c, 0, 43, 63
1, 192056, Control_c, 0, 67, 122
1, 192070, Control_c, 0, 67, 121
1, 192075, Note_on_c, 0, 46, 69
1, 192128, Note_off_c, 0, 46, 59
1, 192130, Control_c, 0, 67, 122
1, 192144, Control_c, 0, 67, 123
1, 192154, Note_on_c, 0, 54, 69
1, 192159, Control_c, 0, 67, 125
1, 192174, Control_c, 0, 67, 127
1, 192175, Note_on_c, 0, 41, 42
1, 192181, Note_off_c, 0, 54, 66
1, 192228, Note_off_c, 0, 41, 46
1, 192241, Note_on_c, 0, 54, 71
1, 192243, Note_on_c, 0, 44, 54
1, 192282, Note_off_c, 0, 54, 57
1, 192292, Note_off_c, 0, 44, 59
1, 192315, Note_on_c, 0, 49, 65
1, 192360, Note_off_c, 0, 49, 63
1, 192390, Note_on_c, 0, 52, 84
1, 192425, Note_off_c, 0, 52, 66
1, 192498, Note_on_c, 0, 35, 66
1, 192500, Note_on_c, 0, 54, 67
1, 192528, Note_off_c, 0, 54, 66
1, 192535, Note_off_c, 0, 35, 63
1, 192551, Note_on_c, 0, 38, 57
1, 192594, Note_on_c, 0, 54, 66
1, 192594, Note_off_c, 0, 38, 61
1, 192635, Note_off_c, 0, 54, 60
1, 192642, Note_on_c, 0, 43, 60
1, 192671, Note_off_c, 0, 43, 59
1, 192724, Note_on_c, 0, 46, 59
1, 192772, Note_off_c, 0, 46, 57
1, 192802, Note_on_c, 0, 41, 62
1, 192830, Note_on_c, 0, 54, 64
1, 192856, Note_off_c, 0, 54, 64
1, 192861, Note_off_c, 0, 41, 49
1, 192897, Note_on_c, 0, 44, 48
1, 192924, Note_on_c, 0, 54, 63
1, 192932, Note_off_c, 0, 44, 62
1, 192964, Note_on_c, 0, 49, 66
1, 192964, Note_off_c, 0, 54, 60
1, 193014, Note_off_c, 0, 49, 60
1, 193056, Note_on_c, 0, 52, 74
1, 193082, Note_off_c, 0, 52, 67
1, 193136, Note_on_c, 0, 35, 71
1, 193162, Note_on_c, 0, 54, 68
1, 193192, Note_off_c, 0, 35, 63
1, 193201, Note_off_c, 0, 54, 64
1, 193208, Note_on_c, 0, 38, 58
1, 193251, Note_off_c, 0, 38, 63
1, 193261, Note_on_c, 0, 54, 66
1, 193285, Note_on_c, 0, 43, 71
1, 193295, Note_off_c, 0, 54, 62
1, 193319, Note_off_c, 0, 43, 62
1, 193373, Note_on_c, 0, 46, 63
1, 193414, Note_off_c, 0, 46, 57
1, 193446, Note_on_c, 0, 41, 66
1, 193481, Note_on_c, 0, 54, 62
1, 193510, Note_off_c, 0, 54, 65
1, 193514, Note_off_c, 0, 41, 59
1, 193531, Note_on_c, 0, 44, 57
1, 193579, Note_off_c, 0, 44, 59
1, 193580, Note_on_c, 0, 54, 58
1, 193606, Note_on_c, 0, 49, 63
1, 193616, Note_off_c, 0, 54, 62
1, 193650, Note_off_c, 0, 49, 62
1, 193690, Note_on_c, 0, 52, 75
1, 193716, Note_off_c, 0, 52, 66
1, 193793, Note_on_c, 0, 35, 50
1, 193805, Note_on_c, 0, 54, 59
1, 193821, Note_off_c, 0, 35, 58
1, 193821, Note_on_c, 0, 38, 57
1, 193828, Note_off_c, 0, 54, 62
1, 193865, Note_off_c, 0, 38, 62
1, 193897, Note_on_c, 0, 54, 65
1, 193912, Note_on_c, 0, 43, 62
1, 193940, Note_off_c, 0, 54, 62
1, 193952, Note_off_c, 0, 43, 63
1, 194024, Note_on_c, 0, 46, 41
1, 194056, Note_on_c, 0, 41, 57
1, 194057, Note_off_c, 0, 46, 54
1, 194108, Note_on_c, 0, 54, 73
1, 194136, Note_off_c, 0, 54, 65
1, 194137, Note_on_c, 0, 44, 54
1, 194140, Note_off_c, 0, 41, 60
1, 194194, Note_on_c, 0, 54, 67
1, 194201, Note_off_c, 0, 44, 60
1, 194229, Note_off_c, 0, 54, 62
1, 194229, Note_on_c, 0, 49, 62
1, 194283, Note_off_c, 0, 49, 59
1, 194315, Note_on_c, 0, 52, 73
1, 194344, Note_off_c, 0, 52, 66
1, 194408, Note_on_c, 0, 35, 73
1, 194449, Note_on_c, 0, 54, 56
1, 194473, Note_off_c, 0, 54, 62
1, 194477, Note_off_c, 0, 35, 55
1, 194521, Note_on_c, 0, 38, 42
1, 194561, Note_on_c, 0, 54, 36
1, 194572, Note_off_c, 0, 38, 46
1, 194573, Note_on_c, 0, 41, 62
1, 194593, Note_off_c, 0, 54, 53
1, 194626, Note_on_c, 0, 43, 69
1, 194655, Note_off_c, 0, 41, 60
1, 194696, Note_on_c, 0, 46, 72
1, 194706, Note_off_c, 0, 43, 62
1, 194725, Note_off_c, 0, 46, 66
1, 194777, Note_on_c, 0, 54, 61
1, 194806, Note_off_c, 0, 54, 65
1, 194807, Note_on_c, 0, 35, 50
1, 194855, Note_off_c, 0, 35, 52
1, 194867, Note_on_c, 0, 54, 72
1, 194897, Note_off_c, 0, 54, 64
1, 194898, Note_on_c, 0, 38, 30
1, 194935, Note_on_c, 0, 41, 48
1, 194943, Note_off_c, 0, 38, 47
1, 194965, Note_off_c, 0, 41, 57
1, 194968, Note_on_c, 0, 43, 65
1, 195008, Note_off_c, 0, 43, 64
1, 195048, Note_on_c, 0, 46, 76
1, 195073, Note_off_c, 0, 46, 67
1, 195137, Note_on_c, 0, 65, 72
1, 195147, Note_on_c, 0, 53, 49
1, 195154, Note_on_c, 0, 29, 60
1, 195162, Note_off_c, 0, 65, 67
1, 195174, Note_off_c, 0, 53, 58
1, 195192, Note_off_c, 0, 29, 61
1, 195242, Note_on_c, 0, 67, 72
1, 195243, Note_on_c, 0, 32, 15
1, 195255, Note_on_c, 0, 55, 48
1, 195256, Note_on_c, 0, 35, 52
1, 195268, Note_off_c, 0, 67, 67
1, 195281, Note_off_c, 0, 55, 55
1, 195290, Note_off_c, 0, 32, 39
1, 195294, Note_on_c, 0, 37, 60
1, 195302, Note_off_c, 0, 35, 59
1, 195349, Note_off_c, 0, 37, 55
1, 195350, Note_on_c, 0, 69, 80
1, 195351, Note_on_c, 0, 40, 82
1, 195356, Note_on_c, 0, 57, 71
1, 195374, Note_off_c, 0, 69, 71
1, 195379, Note_off_c, 0, 40, 62
1, 195386, Note_off_c, 0, 57, 66
1, 195445, Note_on_c, 0, 29, 65
1, 195469, Note_on_c, 0, 71, 74
1, 195488, Note_on_c, 0, 59, 42
1, 195492, Note_off_c, 0, 71, 71
1, 195501, Note_off_c, 0, 29, 57
1, 195518, Note_off_c, 0, 59, 54
1, 195519, Note_on_c, 0, 32, 37
1, 195538, Note_on_c, 0, 35, 58
1, 195556, Note_off_c, 0, 32, 47
1, 195573, Note_on_c, 0, 73, 77
1, 195576, Note_on_c, 0, 61, 75
1, 195587, Note_on_c, 0, 37, 67
1, 195593, Note_off_c, 0, 35, 63
1, 195596, Note_off_c, 0, 73, 71
1, 195604, Note_off_c, 0, 61, 66
1, 195633, Note_off_c, 0, 37, 61
1, 195666, Note_on_c, 0, 40, 68
1, 195675, Note_on_c, 0, 75, 80
1, 195676, Note_on_c, 0, 63, 84
1, 195691, Note_off_c, 0, 40, 39
1, 195696, Note_off_c, 0, 75, 70
1, 195697, Control_c, 0, 67, 127
1, 195701, Note_off_c, 0, 63, 67
1, 195726, Control_c, 0, 67, 126
1, 195749, Note_on_c, 0, 41, 73
1, 195766, Note_on_c, 0, 75, 81
1, 195774, Note_on_c, 0, 63, 75
1, 195789, Note_off_c, 0, 41, 58
1, 195796, Note_off_c, 0, 75, 58
1, 195799, Note_off_c, 0, 63, 70
1, 195800, Control_c, 0, 67, 127
1, 195811, Note_on_c, 0, 44, 44
1, 195845, Note_on_c, 0, 47, 64
1, 195845, Control_c, 0, 67, 127
1, 195881, Note_off_c, 0, 44, 52
1, 195886, Note_on_c, 0, 63, 60
1, 195895, Note_on_c, 0, 75, 42
1, 195905, Note_off_c, 0, 47, 61
1, 195908, Note_off_c, 0, 63, 61
1, 195912, Note_on_c, 0, 49, 68
1, 195922, Note_off_c, 0, 75, 55
1, 195952, Note_off_c, 0, 49, 63
1, 195982, Note_on_c, 0, 52, 83
1, 196006, Note_off_c, 0, 52, 68
1, 196075, Note_on_c, 0, 75, 70
1, 196087, Note_on_c, 0, 63, 55
1, 196098, Note_on_c, 0, 29, 61
1, 196098, Note_off_c, 0, 75, 67
1, 196100, Note_on_c, 0, 28, 47
1, 196110, Note_off_c, 0, 63, 62
1, 196134, Note_off_c, 0, 28, 53
1, 196141, Note_off_c, 0, 29, 58
1, 196179, Note_on_c, 0, 75, 71
1, 196182, Note_on_c, 0, 63, 73
1, 196192, Note_on_c, 0, 35, 60
1, 196217, Note_off_c, 0, 75, 51
1, 196227, Note_off_c, 0, 63, 58
1, 196240, Note_on_c, 0, 37, 62
1, 196248, Note_off_c, 0, 35, 63
1, 196276, Note_off_c, 0, 37, 63
1, 196294, Note_on_c, 0, 40, 73
1, 196325, Note_off_c, 0, 40, 60
1, 196397, Note_on_c, 0, 75, 69
1, 196399, Note_on_c, 0, 43, 58
1, 196399, Note_on_c, 0, 63, 66
1, 196402, Note_on_c, 0, 41, 53
1, 196423, Note_off_c, 0, 75, 66
1, 196429, Note_off_c, 0, 63, 67
1, 196430, Note_off_c, 0, 41, 57
1, 196456, Note_off_c, 0, 43, 42
1, 196471, Note_on_c, 0, 46, 28
1, 196489, Note_on_c, 0, 75, 69
1, 196505, Note_on_c, 0, 63, 63
1, 196512, Note_on_c, 0, 47, 33
1, 196512, Note_on_c, 0, 48, 41
1, 196512, Note_off_c, 0, 46, 53
1, 196514, Note_off_c, 0, 75, 68
1, 196536, Note_off_c, 0, 63, 67
1, 196544, Note_on_c, 0, 49, 74
1, 196545, Note_off_c, 0, 47, 56
1, 196545, Note_off_c, 0, 48, 56
1, 196564, Control_c, 0, 67, 127
1, 196579, Control_c, 0, 67, 126
1, 196593, Note_off_c, 0, 49, 62
1, 196609, Note_on_c, 0, 52, 91
1, 196635, Note_off_c, 0, 52, 66
1, 196638, Control_c, 0, 67, 127
1, 196667, Control_c, 0, 67, 127
1, 196709, Note_on_c, 0, 29, 82
1, 196710, Note_on_c, 0, 61, 70
1, 196738, Note_off_c, 0, 61, 65
1, 196772, Note_off_c, 0, 29, 52
1, 196805, Note_on_c, 0, 59, 81
1, 196812, Note_on_c, 0, 35, 66
1, 196840, Note_off_c, 0, 59, 58
1, 196858, Note_on_c, 0, 37, 62
1, 196862, Note_off_c, 0, 35, 61
1, 196874, Control_c, 0, 67, 126
1, 196889, Control_c, 0, 67, 125
1, 196898, Note_off_c, 0, 37, 63
1, 196904, Note_on_c, 0, 57, 80
1, 196904, Control_c, 0, 67, 124
1, 196915, Note_on_c, 0, 40, 83
1, 196927, Control_c, 0, 67, 122
1, 196941, Note_off_c, 0, 40, 63
1, 196941, Control_c, 0, 67, 120
1, 196950, Note_off_c, 0, 57, 65
1, 196956, Control_c, 0, 67, 119
1, 196971, Control_c, 0, 67, 118
1, 196986, Control_c, 0, 67, 117
1, 197000, Control_c, 0, 67, 117
1, 197009, Note_on_c, 0, 59, 83
1, 197018, Note_on_c, 0, 41, 49
1, 197030, Control_c, 0, 67, 116
1, 197034, Note_off_c, 0, 59, 67
1, 197045, Note_on_c, 0, 44, 50
1, 197045, Control_c, 0, 67, 116
1, 197055, Note_off_c, 0, 41, 48
1, 197060, Control_c, 0, 67, 115
1, 197074, Control_c, 0, 67, 113
1, 197088, Note_on_c, 0, 47, 70
1, 197089, Control_c, 0, 67, 112
1, 197101, Note_off_c, 0, 44, 54
1, 197104, Control_c, 0, 67, 110
1, 197108, Note_on_c, 0, 61, 78
1, 197118, Control_c, 0, 67, 107
1, 197133, Note_off_c, 0, 61, 67
1, 197133, Control_c, 0, 67, 104
1, 197148, Control_c, 0, 67, 99
1, 197156, Note_off_c, 0, 47, 63
1, 197157, Note_on_c, 0, 49, 67
1, 197163, Control_c, 0, 67, 94
1, 197178, Control_c, 0, 67, 90
1, 197194, Control_c, 0, 67, 89
1, 197209, Note_on_c, 0, 52, 98
1, 197210, Note_on_c, 0, 63, 85
1, 197214, Note_off_c, 0, 49, 45
1, 197223, Control_c, 0, 67, 90
1, 197232, Note_off_c, 0, 52, 68
1, 197238, Note_off_c, 0, 63, 66
1, 197238, Control_c, 0, 67, 91
1, 197253, Control_c, 0, 67, 92
1, 197268, Control_c, 0, 67, 93
1, 197283, Control_c, 0, 67, 94
1, 197297, Control_c, 0, 67, 95
1, 197311, Note_on_c, 0, 63, 71
1, 197312, Control_c, 0, 67, 96
1, 197327, Note_on_c, 0, 29, 65
1, 197327, Control_c, 0, 67, 96
1, 197338, Note_off_c, 0, 63, 69
1, 197342, Control_c, 0, 67, 97
1, 197345, Note_on_c, 0, 31, 55
1, 197357, Control_c, 0, 67, 97
1, 197376, Note_off_c, 0, 29, 50
1, 197379, Note_off_c, 0, 31, 53
1, 197401, Control_c, 0, 67, 98
1, 197416, Control_c, 0, 67, 97
1, 197430, Note_on_c, 0, 64, 48
1, 197431, Control_c, 0, 67, 96
1, 197442, Note_on_c, 0, 35, 23
1, 197446, Control_c, 0, 67, 95
1, 197456, Note_off_c, 0, 64, 58
1, 197460, Control_c, 0, 67, 93
1, 197469, Note_on_c, 0, 36, 14
1, 197474, Note_on_c, 0, 37, 57
1, 197475, Control_c, 0, 67, 91
1, 197483, Note_off_c, 0, 35, 51
1, 197484, Poly_aftertouch_c, 0, 32, 0
1, 197490, Control_c, 0, 67, 89
1, 197505, Control_c, 0, 67, 88
1, 197511, Note_off_c, 0, 37, 63
1, 197514, Note_off_c, 0, 36, 28
1, 197520, Note_on_c, 0, 40, 85
1, 197520, Control_c, 0, 67, 87
1, 197534, Control_c, 0, 67, 84
1, 197543, Note_off_c, 0, 40, 65
1, 197549, Control_c, 0, 67, 81
1, 197564, Control_c, 0, 67, 79
1, 197579, Control_c, 0, 67, 79
1, 197594, Control_c, 0, 67, 78
1, 197615, Note_on_c, 0, 41, 78
1, 197623, Control_c, 0, 67, 78
1, 197639, Note_on_c, 0, 77, 57
1, 197657, Note_off_c, 0, 41, 58
1, 197668, Note_on_c, 0, 76, 19
1, 197668, Note_off_c, 0, 77, 62
1, 197688, Note_on_c, 0, 44, 49
1, 197705, Control_c, 0, 67, 77
1, 197708, Note_on_c, 0, 47, 73
1, 197714, Note_off_c, 0, 76, 28
1, 197731, Note_on_c, 0, 78, 87
1, 197734, Note_on_c, 0, 66, 79
1, 197735, Control_c, 0, 67, 76
1, 197749, Control_c, 0, 64, 22
1, 197749, Control_c, 0, 67, 75
1, 197750, Note_off_c, 0, 78, 70
1, 197751, Note_off_c, 0, 44, 55
1, 197756, Note_off_c, 0, 66, 69
1, 197764, Control_c, 0, 64, 32
1, 197764, Control_c, 0, 67, 72
1, 197776, Note_on_c, 0, 49, 70
1, 197777, Note_off_c, 0, 47, 62
1, 197779, Control_c, 0, 64, 37
1, 197779, Control_c, 0, 67, 68
1, 197794, Control_c, 0, 64, 21
1, 197794, Control_c, 0, 67, 66
1, 197809, Control_c, 0, 64, 0
1, 197809, Control_c, 0, 67, 65
1, 197827, Note_on_c, 0, 52, 97
1, 197830, Note_on_c, 0, 65, 102
1, 197830, Note_on_c, 0, 77, 99
1, 197848, Note_off_c, 0, 49, 62
1, 197852, Note_off_c, 0, 52, 67
1, 197862, Note_off_c, 0, 77, 68
1, 197866, Note_off_c, 0, 65, 64
1, 197883, Control_c, 0, 67, 65
1, 197897, Control_c, 0, 67, 66
1, 197912, Control_c, 0, 67, 67
1, 197927, Control_c, 0, 67, 68
1, 197932, Note_on_c, 0, 77, 88
1, 197934, Note_on_c, 0, 29, 79
1, 197940, Note_on_c, 0, 65, 78
1, 197941, Control_c, 0, 67, 69
1, 197956, Control_c, 0, 67, 69
1, 197957, Note_off_c, 0, 77, 64
1, 197964, Note_off_c, 0, 65, 68
1, 197971, Control_c, 0, 67, 70
1, 198002, Control_c, 0, 67, 70
1, 198017, Note_off_c, 0, 29, 46
1, 198036, Note_on_c, 0, 65, 79
1, 198042, Note_on_c, 0, 32, 43
1, 198045, Note_on_c, 0, 77, 65
1, 198055, Note_on_c, 0, 35, 65
1, 198061, Control_c, 0, 67, 70
1, 198063, Note_off_c, 0, 77, 64
1, 198076, Note_off_c, 0, 32, 52
1, 198076, Control_c, 0, 67, 69
1, 198077, Note_off_c, 0, 65, 62
1, 198091, Control_c, 0, 67, 68
1, 198106, Control_c, 0, 67, 68
1, 198111, Note_on_c, 0, 37, 64
1, 198128, Note_off_c, 0, 35, 57
1, 198158, Note_off_c, 0, 37, 60
1, 198169, Note_on_c, 0, 40, 77
1, 198202, Note_off_c, 0, 40, 64
1, 198209, Control_c, 0, 67, 68
1, 198224, Control_c, 0, 67, 69
1, 198253, Control_c, 0, 67, 70
1, 198270, Note_on_c, 0, 41, 65
1, 198272, Note_on_c, 0, 61, 63
1, 198283, Control_c, 0, 67, 70
1, 198304, Note_off_c, 0, 61, 64
1, 198317, Note_off_c, 0, 41, 47
1, 198319, Note_on_c, 0, 44, 60
1, 198343, Control_c, 0, 67, 70
1, 198346, Note_on_c, 0, 47, 73
1, 198357, Control_c, 0, 67, 68
1, 198361, Note_on_c, 0, 59, 81
1, 198372, Control_c, 0, 67, 65
1, 198387, Control_c, 0, 67, 59
1, 198389, Note_off_c, 0, 44, 54
1, 198389, Note_off_c, 0, 59, 66
1, 198402, Control_c, 0, 67, 47
1, 198420, Note_on_c, 0, 49, 77
1, 198424, Control_c, 0, 67, 25
1, 198432, Note_off_c, 0, 47, 60
1, 198438, Control_c, 0, 67, 0
1, 198453, Control_c, 0, 64, 38
1, 198468, Control_c, 0, 64, 44
1, 198472, Note_on_c, 0, 60, 103
1, 198475, Note_on_c, 0, 52, 95
1, 198483, Control_c, 0, 64, 37
1, 198494, Note_off_c, 0, 49, 62
1, 198498, Control_c, 0, 64, 31
1, 198501, Note_off_c, 0, 52, 65
1, 198509, Note_off_c, 0, 60, 69
1, 198542, Control_c, 0, 64, 32
1, 198557, Control_c, 0, 64, 37
1, 198572, Control_c, 0, 64, 40
1, 198584, Note_on_c, 0, 60, 49
1, 198587, Control_c, 0, 64, 42
1, 198598, Note_on_c, 0, 29, 76
1, 198602, Control_c, 0, 64, 42
1, 198604, Note_off_c, 0, 60, 65
1, 198617, Control_c, 0, 64, 43
1, 198632, Control_c, 0, 64, 43
1, 198665, Note_off_c, 0, 29, 44
1, 198691, Control_c, 0, 64, 43
1, 198698, Note_on_c, 0, 35, 63
1, 198706, Control_c, 0, 64, 42
1, 198735, Control_c, 0, 64, 42
1, 198742, Note_on_c, 0, 37, 68
1, 198774, Note_on_c, 0, 64, 94
1, 198776, Note_on_c, 0, 76, 99
1, 198778, Note_off_c, 0, 35, 63
1, 198795, Control_c, 0, 64, 42
1, 198797, Note_off_c, 0, 64, 72
1, 198799, Note_on_c, 0, 40, 85
1, 198799, Note_off_c, 0, 76, 67
1, 198810, Note_off_c, 0, 37, 61
1, 198810, Control_c, 0, 64, 44
1, 198822, Note_off_c, 0, 40, 65
1, 198825, Control_c, 0, 64, 46
1, 198840, Control_c, 0, 64, 48
1, 198855, Control_c, 0, 64, 50
1, 198869, Control_c, 0, 64, 51
1, 198881, Note_on_c, 0, 78, 85
1, 198884, Control_c, 0, 64, 53
1, 198886, Note_on_c, 0, 66, 77
1, 198899, Control_c, 0, 64, 54
1, 198900, Note_off_c, 0, 78, 72
1, 198906, Note_on_c, 0, 41, 56
1, 198907, Note_off_c, 0, 66, 71
1, 198914, Control_c, 0, 64, 56
1, 198929, Control_c, 0, 64, 56
1, 198942, Note_off_c, 0, 41, 47
1, 198943, Control_c, 0, 64, 57
1, 198959, Control_c, 0, 64, 57
1, 198961, Note_on_c, 0, 44, 50
1, 198980, Note_on_c, 0, 77, 78
1, 198982, Note_on_c, 0, 47, 68
1, 198988, Note_on_c, 0, 65, 74
1, 199001, Note_off_c, 0, 77, 71
1, 199003, Control_c, 0, 64, 56
1, 199013, Note_off_c, 0, 44, 49
1, 199014, Note_off_c, 0, 65, 67
1, 199018, Control_c, 0, 64, 56
1, 199033, Control_c, 0, 64, 55
1, 199040, Note_off_c, 0, 47, 62
1, 199040, Note_on_c, 0, 49, 72
1, 199048, Control_c, 0, 64, 54
1, 199062, Control_c, 0, 64, 51
1, 199077, Control_c, 0, 64, 0
1, 199099, Note_on_c, 0, 52, 87
1, 199118, Note_off_c, 0, 49, 58
1, 199121, Note_off_c, 0, 52, 71
1, 199162, Note_on_c, 0, 50, 4
1, 199163, Note_off_c, 0, 50, 127
1, 199212, Note_on_c, 0, 29, 81
1, 199220, Note_on_c, 0, 61, 36
1, 199259, Note_off_c, 0, 61, 32
1, 199296, Note_off_c, 0, 29, 58
1, 199297, Note_on_c, 0, 59, 70
1, 199312, Note_on_c, 0, 35, 63
1, 199317, Note_on_c, 0, 32, 22
1, 199326, Note_off_c, 0, 59, 65
1, 199359, Note_on_c, 0, 37, 65
1, 199360, Note_off_c, 0, 32, 42
1, 199364, Note_off_c, 0, 35, 62
1, 199366, Control_c, 0, 64, 21
1, 199381, Control_c, 0, 64, 53
1, 199385, Note_on_c, 0, 60, 94
1, 199395, Control_c, 0, 64, 57
1, 199403, Note_off_c, 0, 37, 62
1, 199409, Note_on_c, 0, 40, 78
1, 199413, Note_off_c, 0, 60, 67
1, 199439, Note_off_c, 0, 40, 63
1, 199505, Note_on_c, 0, 41, 67
1, 199514, Control_c, 0, 64, 57
1, 199529, Control_c, 0, 64, 58
1, 199544, Control_c, 0, 64, 58
1, 199548, Note_on_c, 0, 44, 52
1, 199554, Note_off_c, 0, 41, 53
1, 199559, Control_c, 0, 64, 59
1, 199580, Note_on_c, 0, 47, 70
1, 199595, Note_on_c, 0, 64, 86
1, 199595, Note_on_c, 0, 76, 91
1, 199604, Control_c, 0, 64, 59
1, 199616, Note_off_c, 0, 76, 69
1, 199617, Note_off_c, 0, 64, 70
1, 199619, Control_c, 0, 64, 60
1, 199622, Note_off_c, 0, 44, 56
1, 199633, Control_c, 0, 64, 61
1, 199647, Note_on_c, 0, 49, 78
1, 199648, Control_c, 0, 64, 62
1, 199663, Control_c, 0, 64, 63
1, 199664, Note_off_c, 0, 47, 59
1, 199691, Note_on_c, 0, 78, 102
1, 199693, Control_c, 0, 64, 57
1, 199693, Note_on_c, 0, 66, 105
1, 199699, Note_on_c, 0, 52, 92
1, 199708, Control_c, 0, 64, 0
1, 199717, Note_off_c, 0, 49, 63
1, 199724, Note_on_c, 0, 75, 52
1, 199725, Note_off_c, 0, 75, 127
1, 199725, Note_off_c, 0, 52, 67
1, 199730, Note_on_c, 0, 68, 41
1, 199731, Note_off_c, 0, 68, 127
1, 199731, Note_off_c, 0, 78, 66
1, 199735, Note_off_c, 0, 66, 64
1, 199798, Note_on_c, 0, 77, 91
1, 199799, Note_on_c, 0, 65, 94
1, 199806, Note_on_c, 0, 29, 73
1, 199818, Note_off_c, 0, 77, 67
1, 199830, Note_off_c, 0, 65, 64
1, 199840, Note_on_c, 0, 31, 43
1, 199880, Note_off_c, 0, 31, 32
1, 199886, Note_off_c, 0, 29, 61
1, 199888, Note_on_c, 0, 32, 51
1, 199916, Note_on_c, 0, 35, 64
1, 199941, Note_off_c, 0, 32, 52
1, 199958, Note_on_c, 0, 37, 70
1, 199994, Note_on_c, 0, 61, 109
1, 199997, Note_off_c, 0, 35, 61
1, 199997, Control_c, 0, 64, 32
1, 200012, Control_c, 0, 64, 48
1, 200014, Note_on_c, 0, 40, 84
1, 200024, Note_off_c, 0, 37, 63
1, 200026, Control_c, 0, 64, 0
1, 200030, Note_off_c, 0, 61, 64
1, 200036, Note_off_c, 0, 40, 65
1, 200090, Note_on_c, 0, 59, 90
1, 200111, Note_off_c, 0, 59, 70
1, 200124, Note_on_c, 0, 41, 60
1, 200165, Note_on_c, 0, 44, 66
1, 200170, Note_off_c, 0, 41, 42
1, 200185, Note_on_c, 0, 60, 81
1, 200204, Note_on_c, 0, 47, 61
1, 200208, Note_off_c, 0, 60, 70
1, 200241, Note_off_c, 0, 44, 60
1, 200251, Note_on_c, 0, 49, 75
1, 200260, Note_off_c, 0, 47, 59
1, 200263, Control_c, 0, 64, 48
1, 200278, Control_c, 0, 64, 72
1, 200292, Control_c, 0, 64, 81
1, 200307, Control_c, 0, 64, 86
1, 200308, Note_on_c, 0, 52, 100
1, 200328, Note_off_c, 0, 49, 63
1, 200336, Note_off_c, 0, 52, 64
1, 200397, Control_c, 0, 64, 87
1, 200404, Note_on_c, 0, 89, 93
1, 200412, Control_c, 0, 64, 87
1, 200417, Note_on_c, 0, 77, 53
1, 200423, Note_on_c, 0, 29, 85
1, 200423, Note_off_c, 0, 89, 70
1, 200424, Note_on_c, 0, 76, 47
1, 200439, Note_off_c, 0, 77, 61
1, 200452, Note_off_c, 0, 76, 59
1, 200463, Note_on_c, 0, 31, 42
1, 200495, Note_on_c, 0, 90, 102
1, 200498, Note_on_c, 0, 78, 95
1, 200501, Control_c, 0, 64, 88
1, 200504, Note_on_c, 0, 32, 50
1, 200507, Note_off_c, 0, 31, 47
1, 200513, Note_off_c, 0, 29, 52
1, 200516, Control_c, 0, 64, 89
1, 200522, Note_on_c, 0, 35, 68
1, 200526, Note_off_c, 0, 90, 65
1, 200528, Note_off_c, 0, 78, 64
1, 200529, Note_on_c, 0, 80, 50
1, 200530, Note_off_c, 0, 80, 127
1, 200531, Control_c, 0, 64, 90
1, 200546, Control_c, 0, 64, 90
1, 200552, Note_off_c, 0, 32, 45
1, 200558, Note_on_c, 0, 37, 66
1, 200560, Control_c, 0, 64, 89
1, 200575, Control_c, 0, 64, 85
1, 200590, Control_c, 0, 64, 80
1, 200599, Note_off_c, 0, 35, 63
1, 200601, Note_on_c, 0, 89, 106
1, 200605, Note_on_c, 0, 77, 109
1, 200605, Control_c, 0, 64, 79
1, 200606, Note_on_c, 0, 40, 85
1, 200619, Note_off_c, 0, 37, 63
1, 200631, Note_off_c, 0, 89, 66
1, 200632, Note_off_c, 0, 40, 63
1, 200634, Control_c, 0, 64, 80
1, 200635, Note_off_c, 0, 77, 64
1, 200649, Control_c, 0, 64, 81
1, 200671, Control_c, 0, 64, 82
1, 200686, Control_c, 0, 64, 82
1, 200733, Note_on_c, 0, 41, 71
1, 200766, Note_on_c, 0, 40, 3
1, 200775, Control_c, 0, 64, 83
1, 200778, Note_off_c, 0, 41, 50
1, 200787, Note_off_c, 0, 40, 30
1, 200790, Control_c, 0, 64, 83
1, 200805, Control_c, 0, 64, 84
1, 200811, Note_on_c, 0, 60, 91
1, 200820, Control_c, 0, 64, 85
1, 200823, Note_on_c, 0, 47, 60
1, 200832, Note_on_c, 0, 45, 53
1, 200832, Note_off_c, 0, 60, 71
1, 200835, Control_c, 0, 64, 87
1, 200849, Control_c, 0, 64, 88
1, 200853, Note_on_c, 0, 61, 13
1, 200859, Note_on_c, 0, 49, 80
1, 200862, Note_off_c, 0, 45, 55
1, 200864, Control_c, 0, 64, 88
1, 200869, Note_off_c, 0, 47, 61
1, 200894, Control_c, 0, 64, 88
1, 200906, Note_off_c, 0, 61, 48
1, 200909, Control_c, 0, 64, 84
1, 200909, Note_on_c, 0, 59, 98
1, 200918, Note_on_c, 0, 52, 93
1, 200923, Control_c, 0, 64, 79
1, 200938, Control_c, 0, 64, 71
1, 200942, Note_on_c, 0, 64, 49
1, 200943, Note_off_c, 0, 64, 127
1, 200943, Note_off_c, 0, 52, 67
1, 200944, Note_off_c, 0, 49, 62
1, 200945, Note_off_c, 0, 59, 68
1, 200953, Control_c, 0, 64, 67
1, 200967, Control_c, 0, 64, 66
1, 200982, Control_c, 0, 64, 67
1, 200997, Control_c, 0, 64, 68
1, 201002, Note_on_c, 0, 60, 98
1, 201012, Control_c, 0, 64, 69
1, 201027, Control_c, 0, 64, 70
1, 201032, Note_off_c, 0, 60, 66
1, 201040, Note_on_c, 0, 29, 73
1, 201042, Control_c, 0, 64, 70
1, 201100, Note_on_c, 0, 62, 89
1, 201102, Control_c, 0, 64, 69
1, 201115, Note_off_c, 0, 29, 55
1, 201116, Control_c, 0, 64, 68
1, 201120, Note_off_c, 0, 62, 70
1, 201131, Control_c, 0, 64, 62
1, 201139, Note_on_c, 0, 35, 62
1, 201139, Note_on_c, 0, 32, 20
1, 201146, Control_c, 0, 64, 0
1, 201173, Note_off_c, 0, 32, 46
1, 201192, Note_on_c, 0, 37, 70
1, 201197, Note_off_c, 0, 35, 62
1, 201237, Note_off_c, 0, 37, 61
1, 201238, Note_on_c, 0, 40, 75
1, 201270, Note_off_c, 0, 40, 63
1, 201287, Note_on_c, 0, 61, 9
1, 201288, Note_off_c, 0, 61, 127
1, 201336, Note_on_c, 0, 41, 69
1, 201341, Note_on_c, 0, 72, 62
1, 201359, Note_off_c, 0, 72, 64
1, 201360, Note_on_c, 0, 40, 38
1, 201392, Note_off_c, 0, 40, 34
1, 201393, Note_on_c, 0, 44, 67
1, 201394, Note_off_c, 0, 41, 54
1, 201430, Note_on_c, 0, 59, 80
1, 201432, Note_on_c, 0, 71, 92
1, 201437, Note_on_c, 0, 47, 58
1, 201455, Note_off_c, 0, 59, 68
1, 201461, Note_off_c, 0, 71, 64
1, 201469, Note_off_c, 0, 44, 57
1, 201490, Note_on_c, 0, 49, 76
1, 201496, Note_off_c, 0, 47, 63
1, 201532, Note_on_c, 0, 72, 99
1, 201534, Note_on_c, 0, 60, 101
1, 201535, Note_on_c, 0, 52, 95
1, 201538, Control_c, 0, 64, 50
1, 201553, Control_c, 0, 64, 0
1, 201556, Note_off_c, 0, 49, 63
1, 201562, Note_off_c, 0, 52, 66
1, 201568, Note_off_c, 0, 60, 66
1, 201570, Note_off_c, 0, 72, 64
1, 201631, Note_on_c, 0, 62, 83
1, 201634, Note_on_c, 0, 74, 86
1, 201658, Note_off_c, 0, 62, 66
1, 201659, Note_off_c, 0, 74, 65
1, 201663, Note_on_c, 0, 29, 69
1, 201731, Note_on_c, 0, 76, 87
1, 201732, Note_on_c, 0, 64, 86
1, 201744, Note_on_c, 0, 32, 58
1, 201751, Note_off_c, 0, 76, 70
1, 201757, Note_off_c, 0, 29, 52
1, 201771, Note_off_c, 0, 64, 63
1, 201782, Note_on_c, 0, 35, 59
1, 201809, Note_on_c, 0, 37, 77
1, 201821, Note_off_c, 0, 32, 53
1, 201830, Note_off_c, 0, 35, 64
1, 201835, Control_c, 0, 64, 36
1, 201850, Control_c, 0, 64, 0
1, 201860, Note_on_c, 0, 40, 81
1, 201862, Note_off_c, 0, 37, 61
1, 201887, Note_off_c, 0, 40, 64
1, 201942, Note_on_c, 0, 59, 82
1, 201966, Note_off_c, 0, 59, 69
1, 201969, Note_on_c, 0, 41, 59
1, 201982, Note_on_c, 0, 43, 43
1, 202004, Note_off_c, 0, 41, 55
1, 202007, Note_on_c, 0, 44, 63
1, 202018, Note_off_c, 0, 43, 48
1, 202029, Note_on_c, 0, 60, 86
1, 202042, Note_on_c, 0, 47, 66
1, 202057, Note_off_c, 0, 60, 66
1, 202077, Note_off_c, 0, 44, 55
1, 202093, Note_on_c, 0, 49, 73
1, 202117, Note_off_c, 0, 47, 59
1, 202137, Note_on_c, 0, 62, 93
1, 202144, Note_on_c, 0, 52, 97
1, 202146, Control_c, 0, 64, 54
1, 202165, Note_off_c, 0, 62, 70
1, 202169, Control_c, 0, 64, 62
1, 202176, Note_off_c, 0, 49, 63
1, 202179, Note_off_c, 0, 52, 66
1, 202184, Control_c, 0, 64, 58
1, 202199, Control_c, 0, 64, 57
1, 202213, Control_c, 0, 64, 58
1, 202228, Control_c, 0, 64, 61
1, 202243, Control_c, 0, 64, 64
1, 202258, Control_c, 0, 64, 65
1, 202269, Note_on_c, 0, 29, 69
1, 202273, Control_c, 0, 64, 67
1, 202284, Note_on_c, 0, 31, 67
1, 202287, Control_c, 0, 64, 68
1, 202302, Control_c, 0, 64, 69
1, 202317, Control_c, 0, 64, 70
1, 202329, Note_off_c, 0, 29, 59
1, 202329, Note_off_c, 0, 31, 57
1, 202346, Note_on_c, 0, 83, 82
1, 202346, Note_on_c, 0, 71, 82
1, 202352, Note_on_c, 0, 32, 30
1, 202356, Note_on_c, 0, 35, 59
1, 202361, Control_c, 0, 64, 69
1, 202366, Note_off_c, 0, 83, 69
1, 202367, Note_off_c, 0, 71, 70
1, 202376, Control_c, 0, 64, 68
1, 202391, Control_c, 0, 64, 67
1, 202392, Note_off_c, 0, 32, 42
1, 202406, Control_c, 0, 64, 68
1, 202406, Note_on_c, 0, 37, 59
1, 202412, Note_off_c, 0, 35, 63
1, 202421, Control_c, 0, 64, 69
1, 202436, Control_c, 0, 64, 71
1, 202450, Control_c, 0, 64, 74
1, 202454, Note_on_c, 0, 40, 81
1, 202455, Note_off_c, 0, 37, 62
1, 202456, Note_on_c, 0, 72, 98
1, 202456, Note_on_c, 0, 84, 94
1, 202465, Control_c, 0, 64, 77
1, 202477, Note_off_c, 0, 72, 66
1, 202479, Note_off_c, 0, 40, 65
1, 202480, Control_c, 0, 64, 78
1, 202482, Note_off_c, 0, 84, 65
1, 202495, Control_c, 0, 64, 78
1, 202525, Control_c, 0, 64, 79
1, 202539, Control_c, 0, 64, 82
1, 202552, Note_on_c, 0, 74, 95
1, 202552, Note_on_c, 0, 86, 100
1, 202554, Note_on_c, 0, 41, 81
1, 202554, Control_c, 0, 64, 86
1, 202569, Control_c, 0, 64, 92
1, 202573, Note_off_c, 0, 74, 67
1, 202584, Control_c, 0, 64, 96
1, 202586, Note_off_c, 0, 86, 65
1, 202599, Control_c, 0, 64, 99
1, 202606, Note_on_c, 0, 44, 61
1, 202608, Note_off_c, 0, 41, 52
1, 202613, Control_c, 0, 64, 101
1, 202628, Control_c, 0, 64, 103
1, 202633, Note_on_c, 0, 47, 78
1, 202643, Control_c, 0, 64, 104
1, 202647, Note_on_c, 0, 77, 93
1, 202647, Note_on_c, 0, 88, 99
1, 202658, Control_c, 0, 64, 103
1, 202667, Note_on_c, 0, 87, 68
1, 202670, Note_off_c, 0, 77, 67
1, 202673, Control_c, 0, 64, 90
1, 202676, Note_off_c, 0, 44, 60
1, 202682, Note_off_c, 0, 88, 68
1, 202683, Note_off_c, 0, 87, 65
1, 202687, Control_c, 0, 64, 68
1, 202690, Note_on_c, 0, 49, 74
1, 202699, Note_off_c, 0, 47, 61
1, 202702, Control_c, 0, 64, 25
1, 202717, Control_c, 0, 64, 50
1, 202731, Control_c, 0, 64, 68
1, 202746, Control_c, 0, 64, 81
1, 202747, Note_on_c, 0, 52, 96
1, 202751, Note_on_c, 0, 90, 108
1, 202755, Note_on_c, 0, 78, 102
1, 202760, Note_on_c, 0, 87, 84
1, 202761, Control_c, 0, 64, 118
1, 202769, Note_off_c, 0, 78, 78
1, 202772, Note_off_c, 0, 87, 71
1, 202772, Note_off_c, 0, 49, 62
1, 202775, Note_off_c, 0, 52, 64
1, 202776, Control_c, 0, 64, 127
1, 202781, Note_on_c, 0, 76, 62
1, 202782, Note_off_c, 0, 90, 63
1, 202804, Note_off_c, 0, 76, 65
1, 202840, Note_on_c, 0, 87, 91
1, 202847, Note_on_c, 0, 75, 103
1, 202853, Note_on_c, 0, 85, 82
1, 202857, Note_on_c, 0, 29, 84
1, 202865, Note_off_c, 0, 85, 74
1, 202866, Note_off_c, 0, 75, 63
1, 202884, Note_off_c, 0, 87, 64
1, 202915, Note_on_c, 0, 31, 29
1, 202951, Note_on_c, 0, 85, 92
1, 202957, Note_off_c, 0, 29, 40
1, 202957, Note_on_c, 0, 73, 95
1, 202959, Note_on_c, 0, 35, 75
1, 202959, Note_off_c, 0, 31, 46
1, 202970, Note_on_c, 0, 82, 69
1, 202971, Note_off_c, 0, 85, 68
1, 202976, Note_off_c, 0, 73, 64
1, 202979, Note_on_c, 0, 72, 62
1, 202987, Note_off_c, 0, 82, 67
1, 202997, Note_off_c, 0, 72, 65
1, 203004, Note_on_c, 0, 37, 67
1, 203004, Note_on_c, 0, 71, 23
1, 203009, Note_on_c, 0, 84, 14
1, 203038, Note_off_c, 0, 71, 0
1, 203043, Note_off_c, 0, 35, 58
1, 203049, Note_on_c, 0, 71, 81
1, 203053, Note_on_c, 0, 83, 101
1, 203054, Note_off_c, 0, 84, 43
1, 203063, Note_on_c, 0, 40, 83
1, 203070, Note_on_c, 0, 82, 59
1, 203071, Note_off_c, 0, 37, 61
1, 203087, Note_off_c, 0, 83, 63
1, 203089, Note_off_c, 0, 71, 67
1, 203089, Note_off_c, 0, 82, 64
1, 203094, Note_off_c, 0, 40, 62
1, 203095, Note_on_c, 0, 81, 35
1, 203096, Note_off_c, 0, 81, 127
1, 203139, Poly_aftertouch_c, 0, 80, 0
1, 203148, Note_on_c, 0, 69, 96
1, 203155, Note_on_c, 0, 81, 76
1, 203160, Note_on_c, 0, 79, 73
1, 203161, Note_on_c, 0, 80, 18
1, 203166, Note_on_c, 0, 41, 78
1, 203175, Note_off_c, 0, 81, 73
1, 203181, Note_off_c, 0, 69, 69
1, 203182, Note_off_c, 0, 79, 68
1, 203204, Note_off_c, 0, 80, 41
1, 203232, Note_on_c, 0, 44, 69
1, 203240, Note_on_c, 0, 79, 92
1, 203243, Note_on_c, 0, 67, 101
1, 203243, Note_off_c, 0, 41, 52
1, 203255, Note_on_c, 0, 47, 72
1, 203261, Note_on_c, 0, 77, 69
1, 203279, Note_off_c, 0, 77, 66
1, 203282, Note_off_c, 0, 79, 64
1, 203282, Note_off_c, 0, 67, 64
1, 203302, Note_off_c, 0, 44, 58
1, 203312, Note_on_c, 0, 49, 74
1, 203333, Note_off_c, 0, 47, 58
1, 203348, Control_c, 0, 64, 83
1, 203362, Control_c, 0, 64, 36
1, 203369, Note_on_c, 0, 52, 98
1, 203377, Control_c, 0, 64, 0
1, 203395, Note_off_c, 0, 49, 62
1, 203400, Note_off_c, 0, 52, 67
1, 203418, Note_on_c, 0, 50, 21
1, 203419, Note_off_c, 0, 50, 127
1, 203436, Control_c, 0, 64, 49
1, 203450, Control_c, 0, 64, 62
1, 203465, Control_c, 0, 64, 64
1, 203476, Note_on_c, 0, 29, 84
1, 203494, Control_c, 0, 64, 63
1, 203539, Control_c, 0, 64, 64
1, 203554, Note_off_c, 0, 29, 44
1, 203568, Control_c, 0, 64, 64
1, 203583, Note_on_c, 0, 32, 31
1, 203583, Note_on_c, 0, 35, 61
1, 203599, Control_c, 0, 64, 64
1, 203614, Control_c, 0, 64, 63
1, 203617, Note_on_c, 0, 37, 68
1, 203622, Note_off_c, 0, 32, 47
1, 203629, Control_c, 0, 64, 63
1, 203631, Note_off_c, 0, 35, 63
1, 203664, Note_on_c, 0, 63, 79
1, 203664, Note_on_c, 0, 75, 81
1, 203664, Note_off_c, 0, 37, 63
1, 203682, Note_off_c, 0, 75, 71
1, 203686, Note_off_c, 0, 63, 70
1, 203694, Note_on_c, 0, 40, 56
1, 203711, Control_c, 0, 64, 63
1, 203721, Note_off_c, 0, 40, 53
1, 203740, Control_c, 0, 64, 64
1, 203753, Note_on_c, 0, 73, 93
1, 203755, Control_c, 0, 64, 64
1, 203757, Note_on_c, 0, 61, 89
1, 203765, Note_on_c, 0, 41, 71
1, 203780, Note_off_c, 0, 73, 63
1, 203784, Note_off_c, 0, 61, 64
1, 203805, Note_off_c, 0, 41, 59
1, 203809, Note_on_c, 0, 44, 60
1, 203846, Note_on_c, 0, 47, 65
1, 203854, Note_on_c, 0, 59, 92
1, 203855, Note_on_c, 0, 71, 87
1, 203875, Note_off_c, 0, 71, 69
1, 203879, Note_off_c, 0, 59, 66
1, 203885, Note_off_c, 0, 44, 55
1, 203888, Control_c, 0, 64, 64
1, 203895, Note_on_c, 0, 49, 78
1, 203902, Control_c, 0, 64, 60
1, 203910, Note_off_c, 0, 47, 60
1, 203917, Control_c, 0, 64, 38
1, 203932, Control_c, 0, 64, 0
1, 203951, Note_on_c, 0, 52, 94
1, 203952, Note_on_c, 0, 69, 96
1, 203956, Note_on_c, 0, 57, 93
1, 203971, Note_off_c, 0, 49, 62
1, 203973, Note_off_c, 0, 52, 70
1, 203982, Note_off_c, 0, 57, 65
1, 203986, Note_off_c, 0, 69, 67
1, 204021, Control_c, 0, 64, 19
1, 204036, Control_c, 0, 64, 35
1, 204049, Note_on_c, 0, 67, 86
1, 204050, Note_on_c, 0, 55, 87
1, 204051, Control_c, 0, 64, 39
1, 204066, Control_c, 0, 64, 40
1, 204075, Note_on_c, 0, 28, 55
1, 204075, Note_off_c, 0, 67, 63
1, 204078, Note_off_c, 0, 55, 64
1, 204081, Control_c, 0, 64, 44
1, 204090, Note_on_c, 0, 29, 50
1, 204096, Control_c, 0, 64, 48
1, 204106, Note_off_c, 0, 28, 53
1, 204110, Control_c, 0, 64, 52
1, 204125, Control_c, 0, 64, 57
1, 204130, Note_off_c, 0, 29, 55
1, 204140, Control_c, 0, 64, 59
1, 204147, Note_on_c, 0, 65, 87
1, 204150, Note_on_c, 0, 53, 83
1, 204168, Note_on_c, 0, 35, 57
1, 204169, Note_off_c, 0, 65, 67
1, 204170, Control_c, 0, 64, 46
1, 204173, Note_off_c, 0, 53, 70
1, 204184, Control_c, 0, 64, 0
1, 204215, Note_on_c, 0, 37, 59
1, 204219, Note_off_c, 0, 35, 62
1, 204241, Poly_aftertouch_c, 0, 32, 0
1, 204247, Note_off_c, 0, 37, 60
1, 204258, Control_c, 0, 64, 33
1, 204273, Control_c, 0, 64, 51
1, 204281, Note_on_c, 0, 40, 61
1, 204288, Control_c, 0, 64, 54
1, 204302, Control_c, 0, 64, 54
1, 204305, Note_off_c, 0, 40, 54
1, 204347, Control_c, 0, 64, 54
1, 204348, Note_on_c, 0, 41, 59
1, 204358, Note_on_c, 0, 44, 65
1, 204362, Control_c, 0, 64, 56
1, 204378, Control_c, 0, 64, 58
1, 204382, Note_off_c, 0, 41, 53
1, 204393, Control_c, 0, 64, 59
1, 204415, Control_c, 0, 64, 60
1, 204430, Control_c, 0, 64, 61
1, 204431, Note_on_c, 0, 47, 62
1, 204445, Control_c, 0, 64, 61
1, 204460, Control_c, 0, 64, 62
1, 204471, Note_off_c, 0, 44, 54
1, 204474, Control_c, 0, 64, 62
1, 204477, Note_on_c, 0, 49, 72
1, 204483, Note_off_c, 0, 47, 59
1, 204489, Control_c, 0, 64, 62
1, 204504, Control_c, 0, 64, 59
1, 204519, Control_c, 0, 64, 54
1, 204533, Note_on_c, 0, 58, 81
1, 204533, Control_c, 0, 64, 49
1, 204543, Note_on_c, 0, 52, 70
1, 204546, Note_off_c, 0, 49, 61
1, 204548, Control_c, 0, 64, 49
1, 204555, Note_off_c, 0, 58, 69
1, 204563, Control_c, 0, 64, 50
1, 204572, Note_off_c, 0, 52, 64
1, 204578, Control_c, 0, 64, 52
1, 204593, Control_c, 0, 64, 55
1, 204607, Control_c, 0, 64, 56
1, 204622, Control_c, 0, 64, 57
1, 204634, Note_on_c, 0, 57, 84
1, 204637, Control_c, 0, 64, 57
1, 204651, Note_on_c, 0, 28, 55
1, 204657, Note_off_c, 0, 57, 70
1, 204677, Note_on_c, 0, 29, 41
1, 204681, Control_c, 0, 64, 58
1, 204683, Note_off_c, 0, 28, 54
1, 204696, Control_c, 0, 64, 59
1, 204711, Control_c, 0, 64, 59
1, 204724, Note_off_c, 0, 29, 47
1, 204725, Control_c, 0, 64, 60
1, 204736, Note_on_c, 0, 55, 81
1, 204740, Control_c, 0, 64, 60
1, 204742, Note_on_c, 0, 35, 59
1, 204755, Control_c, 0, 64, 61
1, 204766, Note_off_c, 0, 55, 61
1, 204797, Note_on_c, 0, 37, 58
1, 204799, Note_off_c, 0, 35, 59
1, 204799, Control_c, 0, 64, 59
1, 204814, Control_c, 0, 64, 47
1, 204829, Control_c, 0, 64, 0
1, 204834, Note_on_c, 0, 53, 84
1, 204844, Control_c, 0, 67, 8
1, 204846, Note_off_c, 0, 37, 60
1, 204856, Note_off_c, 0, 53, 71
1, 204859, Control_c, 0, 67, 9
1, 204860, Note_on_c, 0, 40, 60
1, 204874, Control_c, 0, 67, 9
1, 204885, Note_off_c, 0, 40, 54
1, 204889, Control_c, 0, 67, 10
1, 204904, Control_c, 0, 67, 10
1, 204923, Note_on_c, 0, 29, 67
1, 204933, Control_c, 0, 67, 11
1, 204948, Control_c, 0, 67, 11
1, 204956, Poly_aftertouch_c, 0, 38, 0
1, 204963, Control_c, 0, 67, 12
1, 204978, Control_c, 0, 64, 13
1, 204978, Control_c, 0, 67, 12
1, 204989, Note_on_c, 0, 32, 56
1, 204993, Control_c, 0, 64, 29
1, 205008, Control_c, 0, 64, 36
1, 205018, Note_on_c, 0, 35, 63
1, 205023, Control_c, 0, 64, 42
1, 205023, Control_c, 0, 67, 12
1, 205031, Note_off_c, 0, 29, 51
1, 205038, Control_c, 0, 64, 47
1, 205038, Control_c, 0, 67, 11
1, 205053, Control_c, 0, 64, 53
1, 205053, Control_c, 0, 67, 9
1, 205063, Note_on_c, 0, 37, 62
1, 205068, Control_c, 0, 64, 58
1, 205068, Control_c, 0, 67, 0
1, 205082, Control_c, 0, 64, 62
1, 205097, Control_c, 0, 64, 64
1, 205100, Note_off_c, 0, 32, 59
1, 205107, Note_off_c, 0, 35, 63
1, 205112, Control_c, 0, 64, 66
1, 205119, Note_on_c, 0, 40, 97
1, 205126, Control_c, 0, 64, 67
1, 205140, Note_off_c, 0, 37, 63
1, 205141, Control_c, 0, 64, 64
1, 205144, Note_off_c, 0, 40, 67
1, 205147, Note_on_c, 0, 46, 14
1, 205163, Control_c, 0, 64, 49
1, 205179, Control_c, 0, 64, 0
1, 205205, Note_off_c, 0, 46, 27
1, 205230, Note_on_c, 0, 46, 98
1, 205266, Note_off_c, 0, 46, 68
1, 205330, Note_on_c, 0, 45, 105
1, 205363, Note_off_c, 0, 45, 66
1, 205366, Note_on_c, 0, 46, 34
1, 205367, Note_off_c, 0, 46, 127
1, 205387, Control_c, 0, 64, 63
1, 205402, Control_c, 0, 64, 109
1, 205416, Control_c, 0, 64, 127
1, 205425, Note_on_c, 0, 24, 89
1, 205437, Note_on_c, 0, 41, 101
1, 205437, Note_on_c, 0, 43, 102
1, 205470, Note_off_c, 0, 41, 60
1, 205479, Note_off_c, 0, 43, 66
1, 205515, Note_on_c, 0, 26, 75
1, 205521, Note_on_c, 0, 28, 73
1, 205533, Note_on_c, 0, 41, 101
1, 205542, Note_on_c, 0, 29, 57
1, 205544, Note_off_c, 0, 24, 58
1, 205561, Note_off_c, 0, 26, 59
1, 205577, Note_off_c, 0, 41, 66
1, 205577, Note_off_c, 0, 29, 53
1, 205580, Note_off_c, 0, 28, 54
1, 205586, Note_on_c, 0, 31, 72
1, 205627, Note_on_c, 0, 39, 108
1, 205668, Note_off_c, 0, 39, 68
1, 205681, Note_on_c, 0, 36, 59
1, 205683, Note_on_c, 0, 35, 40
1, 205683, Control_c, 0, 64, 105
1, 205685, Note_on_c, 0, 38, 88
1, 205697, Control_c, 0, 64, 63
1, 205703, Note_off_c, 0, 31, 46
1, 205712, Control_c, 0, 64, 0
1, 205740, Note_on_c, 0, 40, 104
1, 205742, Control_c, 0, 64, 54
1, 205753, Note_on_c, 0, 41, 112
1, 205756, Control_c, 0, 64, 127
1, 205765, Note_off_c, 0, 36, 60
1, 205768, Note_off_c, 0, 35, 58
1, 205771, Note_off_c, 0, 38, 64
1, 205795, Note_off_c, 0, 40, 65
1, 205798, Note_off_c, 0, 41, 67
1, 205942, Control_c, 0, 64, 97
1, 205956, Control_c, 0, 64, 72
1, 205971, Control_c, 0, 64, 44
1, 205987, Control_c, 0, 64, 0
1, 206062, End_track
0, 0, End_of_file
