0, 0, Header, 0, 1, 384
1, 0, Start_track
1, 0, Title_t, "Sonata in Bb,Op24#2--Yang       "
1, 0, Text_t, "2009 International Piano-e-Competition finals"
1, 0, Text_t, "captured June-July 2009"
1, 0, Text_t, "http://www.piano-e-competition.com/"
1, 0, Text_t, "standard-resolution version"
1, 0, Text_t, "File processed for distribution by software from Zenph Studios, Inc., http://www.zenph.com"
1, 0, Instrument_name_t, "Yamaha Disklavier Pro Mark IV concert grand piano, model DCFIIISM4PRO"
1, 0, Sequencer_specific, 39, 67, 113, 0, 1, 0, 1, 0, 83, 111, 110, 97, 116, 97, 32, 66, 98, 44, 79, 112, 50, 52, 35, 50, 67, 108, 97, 114, 97, 32, 89, 97, 110, 103, 32, 32, 32, 32, 32, 32
1, 0, Sequencer_specific, 6, 67, 113, 0, 0, 0, 69
1, 0, System_exclusive, 21, 67, 113, 126, 21, 0, 2, 2, 2, 3, 12, 8, 4, 10, 4, 10, 9, 14, 12, 5, 2, 247
1, 0, Sequencer_specific, 5, 67, 123, 12, 2, 1
1, 0, Tempo, 512820
1, 0, Time_signature, 4, 2, 24, 8
1, 0, System_exclusive, 5, 126, 127, 9, 1, 247
1, 1, System_exclusive, 8, 67, 16, 76, 0, 0, 126, 0, 247
1, 2, System_exclusive, 8, 67, 16, 76, 8, 9, 7, 1, 247
1, 3, Control_c, 0, 0, 0
1, 3, Control_c, 1, 0, 0
1, 3, Control_c, 2, 0, 0
1, 3, Control_c, 3, 0, 0
1, 3, Control_c, 4, 0, 0
1, 3, Control_c, 5, 0, 0
1, 3, Control_c, 6, 0, 0
1, 3, Control_c, 7, 0, 0
1, 3, Control_c, 8, 0, 0
1, 3, Control_c, 9, 0, 127
1, 3, Control_c, 10, 0, 0
1, 3, Control_c, 11, 0, 0
1, 3, Control_c, 12, 0, 0
1, 3, Control_c, 13, 0, 0
1, 3, Control_c, 14, 0, 0
1, 3, Control_c, 15, 0, 0
1, 4, Control_c, 0, 32, 0
1, 4, Control_c, 1, 32, 0
1, 4, Control_c, 2, 32, 0
1, 4, Control_c, 3, 32, 0
1, 4, Control_c, 4, 32, 0
1, 4, Control_c, 5, 32, 0
1, 4, Control_c, 6, 32, 0
1, 4, Control_c, 7, 32, 0
1, 4, Control_c, 8, 32, 0
1, 4, Control_c, 9, 32, 0
1, 4, Control_c, 10, 32, 0
1, 4, Control_c, 11, 32, 0
1, 4, Control_c, 12, 32, 0
1, 4, Control_c, 13, 32, 0
1, 4, Control_c, 14, 32, 0
1, 4, Control_c, 15, 32, 0
1, 5, Program_c, 0, 0
1, 5, Program_c, 1, 0
1, 5, Program_c, 2, 0
1, 5, Program_c, 3, 0
1, 5, Program_c, 4, 0
1, 5, Program_c, 5, 0
1, 5, Program_c, 6, 0
1, 5, Program_c, 7, 0
1, 5, Program_c, 8, 0
1, 5, Program_c, 9, 0
1, 5, Program_c, 10, 0
1, 5, Program_c, 11, 0
1, 5, Program_c, 12, 0
1, 5, Program_c, 13, 0
1, 5, Program_c, 14, 0
1, 5, Program_c, 15, 0
1, 6, Control_c, 0, 7, 100
1, 6, Control_c, 1, 7, 100
1, 6, Control_c, 2, 7, 100
1, 6, Control_c, 3, 7, 100
1, 6, Control_c, 4, 7, 100
1, 6, Control_c, 5, 7, 100
1, 6, Control_c, 6, 7, 100
1, 6, Control_c, 7, 7, 100
1, 6, Control_c, 8, 7, 100
1, 6, Control_c, 9, 7, 100
1, 6, Control_c, 10, 7, 100
1, 6, Control_c, 11, 7, 100
1, 6, Control_c, 12, 7, 100
1, 6, Control_c, 13, 7, 100
1, 6, Control_c, 14, 7, 100
1, 6, Control_c, 15, 7, 100
1, 117, Control_c, 0, 67, 15
1, 229, Control_c, 0, 67, 31
1, 341, Control_c, 0, 67, 46
1, 452, Control_c, 0, 67, 63
1, 564, Control_c, 0, 67, 77
1, 676, Control_c, 0, 67, 94
1, 787, Control_c, 0, 67, 108
1, 899, Control_c, 0, 67, 127
1, 1129, Note_on_c, 0, 58, 52
1, 1155, Note_off_c, 0, 58, 58
1, 1251, Note_on_c, 0, 58, 50
1, 1284, Note_off_c, 0, 58, 63
1, 1285, Control_c, 0, 67, 127
1, 1301, Control_c, 0, 67, 125
1, 1316, Control_c, 0, 67, 122
1, 1331, Control_c, 0, 67, 118
1, 1345, Control_c, 0, 67, 115
1, 1360, Control_c, 0, 67, 112
1, 1375, Control_c, 0, 67, 109
1, 1394, Note_on_c, 0, 58, 58
1, 1397, Control_c, 0, 67, 107
1, 1410, Note_on_c, 0, 53, 48
1, 1411, Control_c, 0, 67, 106
1, 1417, Note_off_c, 0, 58, 62
1, 1426, Control_c, 0, 67, 105
1, 1441, Control_c, 0, 67, 104
1, 1456, Control_c, 0, 67, 104
1, 1525, Note_on_c, 0, 58, 54
1, 1563, Note_off_c, 0, 58, 62
1, 1590, Control_c, 0, 67, 104
1, 1619, Control_c, 0, 67, 105
1, 1634, Control_c, 0, 67, 105
1, 1646, Note_off_c, 0, 53, 62
1, 1650, Note_on_c, 0, 50, 52
1, 1659, Note_on_c, 0, 58, 62
1, 1664, Control_c, 0, 67, 106
1, 1680, Note_off_c, 0, 58, 64
1, 1693, Control_c, 0, 67, 106
1, 1723, Control_c, 0, 67, 107
1, 1767, Control_c, 0, 67, 107
1, 1778, Note_on_c, 0, 58, 59
1, 1813, Note_off_c, 0, 58, 63
1, 1856, Control_c, 0, 67, 107
1, 1897, Note_off_c, 0, 50, 64
1, 1919, Note_on_c, 0, 46, 58
1, 1919, Note_on_c, 0, 60, 58
1, 1957, Note_off_c, 0, 60, 66
1, 1964, Note_on_c, 0, 58, 69
1, 1974, Control_c, 0, 67, 106
1, 1990, Note_off_c, 0, 58, 68
1, 2022, Note_on_c, 0, 57, 59
1, 2068, Note_on_c, 0, 58, 73
1, 2076, Note_off_c, 0, 57, 61
1, 2114, Note_off_c, 0, 46, 61
1, 2135, Note_off_c, 0, 58, 61
1, 2151, Note_on_c, 0, 45, 55
1, 2160, Control_c, 0, 67, 107
1, 2164, Note_on_c, 0, 65, 62
1, 2185, Note_off_c, 0, 65, 65
1, 2290, Note_on_c, 0, 65, 61
1, 2294, Control_c, 0, 67, 106
1, 2320, Note_off_c, 0, 65, 66
1, 2338, Control_c, 0, 67, 106
1, 2398, Note_off_c, 0, 45, 60
1, 2420, Note_on_c, 0, 65, 63
1, 2426, Note_on_c, 0, 48, 55
1, 2442, Control_c, 0, 67, 105
1, 2446, Note_off_c, 0, 65, 67
1, 2531, Control_c, 0, 67, 106
1, 2551, Note_on_c, 0, 65, 69
1, 2590, Control_c, 0, 67, 106
1, 2592, Note_off_c, 0, 65, 61
1, 2620, Control_c, 0, 67, 107
1, 2646, Note_off_c, 0, 48, 59
1, 2649, Control_c, 0, 67, 107
1, 2664, Note_on_c, 0, 45, 56
1, 2692, Note_on_c, 0, 65, 65
1, 2709, Note_off_c, 0, 65, 65
1, 2803, Note_on_c, 0, 65, 67
1, 2842, Control_c, 0, 67, 107
1, 2849, Note_off_c, 0, 65, 62
1, 2857, Control_c, 0, 67, 106
1, 2872, Control_c, 0, 67, 105
1, 2894, Control_c, 0, 67, 104
1, 2910, Control_c, 0, 67, 102
1, 2918, Note_off_c, 0, 45, 65
1, 2925, Control_c, 0, 67, 100
1, 2939, Note_on_c, 0, 67, 67
1, 2940, Control_c, 0, 67, 90
1, 2949, Note_on_c, 0, 39, 57
1, 2955, Control_c, 0, 67, 79
1, 2970, Control_c, 0, 67, 66
1, 2984, Control_c, 0, 67, 53
1, 2989, Note_on_c, 0, 65, 68
1, 2999, Note_off_c, 0, 67, 60
1, 2999, Control_c, 0, 67, 43
1, 3014, Control_c, 0, 67, 33
1, 3029, Control_c, 0, 67, 25
1, 3042, Note_off_c, 0, 65, 64
1, 3043, Note_on_c, 0, 64, 73
1, 3044, Control_c, 0, 67, 18
1, 3058, Control_c, 0, 67, 13
1, 3073, Control_c, 0, 67, 8
1, 3077, Note_off_c, 0, 64, 66
1, 3088, Control_c, 0, 67, 0
1, 3090, Note_on_c, 0, 65, 73
1, 3143, Note_off_c, 0, 65, 65
1, 3149, Note_off_c, 0, 39, 60
1, 3167, Note_on_c, 0, 38, 57
1, 3167, Note_on_c, 0, 70, 81
1, 3185, Note_off_c, 0, 70, 70
1, 3250, Control_c, 0, 64, 21
1, 3265, Control_c, 0, 64, 28
1, 3280, Control_c, 0, 64, 33
1, 3295, Control_c, 0, 64, 36
1, 3302, Note_on_c, 0, 70, 91
1, 3310, Control_c, 0, 64, 38
1, 3325, Control_c, 0, 64, 40
1, 3327, Note_off_c, 0, 70, 62
1, 3340, Control_c, 0, 64, 42
1, 3355, Control_c, 0, 64, 43
1, 3418, Note_off_c, 0, 38, 62
1, 3426, Note_on_c, 0, 41, 65
1, 3429, Note_on_c, 0, 70, 91
1, 3452, Note_off_c, 0, 70, 65
1, 3562, Note_on_c, 0, 70, 89
1, 3562, Control_c, 0, 64, 42
1, 3576, Control_c, 0, 64, 39
1, 3591, Control_c, 0, 64, 33
1, 3605, Note_off_c, 0, 70, 61
1, 3606, Control_c, 0, 64, 23
1, 3621, Control_c, 0, 64, 0
1, 3687, Note_on_c, 0, 38, 74
1, 3701, Note_on_c, 0, 70, 88
1, 3702, Note_off_c, 0, 41, 62
1, 3724, Note_off_c, 0, 70, 65
1, 3763, Control_c, 0, 64, 17
1, 3778, Control_c, 0, 64, 32
1, 3793, Control_c, 0, 64, 42
1, 3807, Control_c, 0, 64, 48
1, 3822, Control_c, 0, 64, 52
1, 3829, Note_on_c, 0, 70, 81
1, 3837, Control_c, 0, 64, 56
1, 3852, Control_c, 0, 64, 60
1, 3855, Note_off_c, 0, 70, 66
1, 3867, Control_c, 0, 64, 62
1, 3881, Control_c, 0, 64, 64
1, 3896, Control_c, 0, 64, 66
1, 3911, Control_c, 0, 64, 70
1, 3926, Control_c, 0, 64, 73
1, 3940, Control_c, 0, 64, 77
1, 3955, Note_on_c, 0, 34, 77
1, 3955, Control_c, 0, 64, 78
1, 3962, Note_off_c, 0, 38, 63
1, 3965, Note_on_c, 0, 72, 68
1, 3970, Control_c, 0, 64, 78
1, 3984, Note_off_c, 0, 34, 66
1, 3985, Control_c, 0, 64, 70
1, 4000, Control_c, 0, 64, 29
1, 4012, Note_on_c, 0, 70, 80
1, 4014, Control_c, 0, 64, 0
1, 4015, Note_off_c, 0, 72, 63
1, 4052, Note_off_c, 0, 70, 64
1, 4076, Note_on_c, 0, 69, 59
1, 4115, Note_off_c, 0, 69, 56
1, 4127, Note_on_c, 0, 70, 79
1, 4149, Note_off_c, 0, 70, 70
1, 4207, Control_c, 0, 64, 66
1, 4221, Note_on_c, 0, 79, 100
1, 4222, Control_c, 0, 64, 127
1, 4222, Note_on_c, 0, 67, 84
1, 4222, Note_on_c, 0, 70, 86
1, 4223, Note_on_c, 0, 51, 96
1, 4226, Note_on_c, 0, 39, 92
1, 4230, Note_on_c, 0, 75, 81
1, 4239, Note_off_c, 0, 70, 75
1, 4240, Note_off_c, 0, 67, 72
1, 4240, Note_off_c, 0, 79, 66
1, 4243, Note_off_c, 0, 51, 71
1, 4247, Note_off_c, 0, 75, 72
1, 4250, Note_off_c, 0, 39, 68
1, 4281, Control_c, 0, 64, 117
1, 4296, Control_c, 0, 64, 78
1, 4311, Control_c, 0, 64, 0
1, 4520, Note_on_c, 0, 77, 93
1, 4521, Note_on_c, 0, 70, 85
1, 4522, Note_on_c, 0, 65, 91
1, 4523, Note_on_c, 0, 74, 84
1, 4525, Note_on_c, 0, 46, 85
1, 4526, Note_on_c, 0, 34, 83
1, 4526, Control_c, 0, 64, 70
1, 4539, Note_off_c, 0, 65, 75
1, 4541, Control_c, 0, 64, 127
1, 4547, Note_off_c, 0, 34, 66
1, 4548, Note_off_c, 0, 46, 68
1, 4550, Note_off_c, 0, 70, 64
1, 4565, Note_off_c, 0, 74, 67
1, 4568, Note_off_c, 0, 77, 67
1, 4693, Poly_aftertouch_c, 0, 46, 0
1, 4763, Control_c, 0, 64, 97
1, 4778, Control_c, 0, 64, 70
1, 4793, Control_c, 0, 64, 0
1, 4808, Control_c, 0, 67, 17
1, 4823, Control_c, 0, 67, 40
1, 4837, Control_c, 0, 67, 64
1, 4852, Control_c, 0, 67, 85
1, 4867, Control_c, 0, 67, 102
1, 4882, Control_c, 0, 67, 114
1, 4897, Control_c, 0, 67, 121
1, 4911, Control_c, 0, 67, 122
1, 4970, Control_c, 0, 67, 122
1, 5000, Control_c, 0, 67, 121
1, 5015, Control_c, 0, 67, 121
1, 5030, Control_c, 0, 67, 119
1, 5044, Note_on_c, 0, 65, 46
1, 5045, Control_c, 0, 67, 118
1, 5060, Control_c, 0, 67, 117
1, 5069, Note_off_c, 0, 65, 60
1, 5074, Control_c, 0, 67, 116
1, 5089, Control_c, 0, 67, 115
1, 5104, Control_c, 0, 67, 115
1, 5119, Control_c, 0, 67, 114
1, 5141, Control_c, 0, 67, 113
1, 5155, Control_c, 0, 67, 113
1, 5170, Control_c, 0, 67, 112
1, 5182, Note_on_c, 0, 65, 56
1, 5185, Control_c, 0, 67, 111
1, 5200, Control_c, 0, 67, 111
1, 5212, Note_off_c, 0, 65, 65
1, 5215, Control_c, 0, 67, 110
1, 5230, Control_c, 0, 67, 110
1, 5244, Control_c, 0, 67, 109
1, 5259, Control_c, 0, 67, 108
1, 5274, Control_c, 0, 67, 107
1, 5289, Control_c, 0, 67, 106
1, 5305, Control_c, 0, 67, 104
1, 5310, Note_on_c, 0, 65, 58
1, 5320, Control_c, 0, 67, 102
1, 5334, Control_c, 0, 67, 99
1, 5341, Note_off_c, 0, 65, 66
1, 5349, Control_c, 0, 67, 97
1, 5364, Control_c, 0, 67, 96
1, 5379, Control_c, 0, 67, 94
1, 5394, Control_c, 0, 67, 94
1, 5408, Control_c, 0, 67, 93
1, 5423, Control_c, 0, 67, 92
1, 5438, Control_c, 0, 67, 92
1, 5442, Note_on_c, 0, 60, 41
1, 5444, Note_on_c, 0, 75, 63
1, 5453, Control_c, 0, 67, 91
1, 5462, Note_on_c, 0, 53, 36
1, 5468, Control_c, 0, 67, 90
1, 5483, Control_c, 0, 67, 88
1, 5498, Control_c, 0, 67, 87
1, 5512, Control_c, 0, 67, 86
1, 5580, Note_off_c, 0, 75, 59
1, 5582, Note_on_c, 0, 65, 73
1, 5704, Control_c, 0, 67, 87
1, 5713, Note_off_c, 0, 65, 59
1, 5714, Note_on_c, 0, 74, 78
1, 5718, Note_on_c, 0, 58, 56
1, 5734, Control_c, 0, 67, 87
1, 5778, Control_c, 0, 67, 88
1, 5781, Note_off_c, 0, 60, 49
1, 5826, Note_off_c, 0, 74, 62
1, 5860, Note_on_c, 0, 65, 60
1, 5949, Control_c, 0, 67, 88
1, 5978, Control_c, 0, 67, 89
1, 5984, Note_off_c, 0, 65, 57
1, 5997, Note_off_c, 0, 58, 59
1, 5998, Note_on_c, 0, 57, 47
1, 6015, Note_on_c, 0, 72, 58
1, 6023, Control_c, 0, 67, 89
1, 6038, Control_c, 0, 67, 90
1, 6052, Control_c, 0, 67, 90
1, 6067, Control_c, 0, 67, 91
1, 6090, Note_off_c, 0, 72, 61
1, 6097, Control_c, 0, 67, 91
1, 6113, Control_c, 0, 67, 92
1, 6139, Note_on_c, 0, 65, 55
1, 6170, Note_off_c, 0, 53, 55
1, 6174, Note_off_c, 0, 65, 63
1, 6203, Note_off_c, 0, 57, 62
1, 6231, Control_c, 0, 67, 91
1, 6261, Control_c, 0, 67, 90
1, 6267, Note_on_c, 0, 65, 66
1, 6276, Control_c, 0, 67, 89
1, 6291, Control_c, 0, 67, 89
1, 6294, Note_off_c, 0, 65, 66
1, 6306, Control_c, 0, 67, 88
1, 6321, Control_c, 0, 67, 86
1, 6335, Control_c, 0, 67, 86
1, 6350, Control_c, 0, 67, 85
1, 6365, Control_c, 0, 67, 84
1, 6380, Control_c, 0, 67, 79
1, 6395, Control_c, 0, 67, 72
1, 6406, Note_on_c, 0, 65, 55
1, 6409, Control_c, 0, 67, 63
1, 6424, Control_c, 0, 67, 52
1, 6439, Control_c, 0, 67, 44
1, 6443, Note_off_c, 0, 65, 62
1, 6454, Control_c, 0, 67, 38
1, 6469, Control_c, 0, 67, 34
1, 6483, Control_c, 0, 67, 32
1, 6498, Control_c, 0, 67, 30
1, 6513, Control_c, 0, 67, 29
1, 6527, Control_c, 0, 67, 28
1, 6535, Note_on_c, 0, 62, 48
1, 6536, Note_on_c, 0, 77, 68
1, 6542, Control_c, 0, 67, 27
1, 6551, Note_on_c, 0, 53, 41
1, 6557, Control_c, 0, 67, 26
1, 6572, Control_c, 0, 67, 25
1, 6587, Control_c, 0, 67, 25
1, 6601, Control_c, 0, 67, 24
1, 6703, Note_on_c, 0, 65, 73
1, 6711, Note_off_c, 0, 77, 60
1, 6757, Control_c, 0, 67, 25
1, 6772, Control_c, 0, 67, 26
1, 6787, Control_c, 0, 67, 27
1, 6801, Control_c, 0, 67, 29
1, 6809, Note_off_c, 0, 65, 62
1, 6816, Control_c, 0, 67, 31
1, 6830, Note_on_c, 0, 75, 73
1, 6831, Note_on_c, 0, 60, 59
1, 6831, Control_c, 0, 67, 35
1, 6846, Control_c, 0, 67, 39
1, 6860, Control_c, 0, 67, 47
1, 6875, Control_c, 0, 67, 60
1, 6884, Note_off_c, 0, 62, 52
1, 6890, Control_c, 0, 67, 74
1, 6906, Control_c, 0, 67, 86
1, 6921, Control_c, 0, 67, 97
1, 6923, Note_off_c, 0, 75, 61
1, 6936, Control_c, 0, 67, 103
1, 6950, Control_c, 0, 67, 107
1, 6964, Note_on_c, 0, 65, 60
1, 6965, Control_c, 0, 67, 111
1, 6980, Control_c, 0, 67, 113
1, 6995, Control_c, 0, 67, 114
1, 7075, Note_off_c, 0, 65, 53
1, 7084, Note_off_c, 0, 60, 63
1, 7089, Note_on_c, 0, 58, 63
1, 7103, Note_off_c, 0, 53, 65
1, 7107, Note_on_c, 0, 74, 62
1, 7114, Note_off_c, 0, 58, 66
1, 7128, Control_c, 0, 67, 113
1, 7143, Control_c, 0, 67, 112
1, 7158, Control_c, 0, 67, 111
1, 7173, Control_c, 0, 67, 111
1, 7188, Control_c, 0, 67, 109
1, 7203, Control_c, 0, 67, 108
1, 7218, Control_c, 0, 67, 105
1, 7229, Note_off_c, 0, 74, 53
1, 7232, Control_c, 0, 67, 101
1, 7234, Note_on_c, 0, 53, 83
1, 7239, Note_on_c, 0, 50, 75
1, 7247, Control_c, 0, 67, 94
1, 7262, Control_c, 0, 67, 79
1, 7263, Note_off_c, 0, 53, 69
1, 7267, Note_off_c, 0, 50, 70
1, 7277, Control_c, 0, 67, 57
1, 7292, Control_c, 0, 67, 28
1, 7306, Control_c, 0, 67, 0
1, 7362, Note_on_c, 0, 50, 75
1, 7363, Note_on_c, 0, 53, 89
1, 7406, Note_off_c, 0, 50, 66
1, 7406, Note_off_c, 0, 53, 64
1, 7503, Note_on_c, 0, 50, 71
1, 7504, Note_on_c, 0, 53, 82
1, 7531, Note_off_c, 0, 53, 68
1, 7535, Note_off_c, 0, 50, 65
1, 7648, Note_on_c, 0, 51, 67
1, 7650, Note_on_c, 0, 55, 59
1, 7715, Control_c, 0, 64, 11
1, 7759, Control_c, 0, 64, 14
1, 7782, Note_on_c, 0, 79, 75
1, 7788, Control_c, 0, 64, 17
1, 7818, Control_c, 0, 64, 19
1, 7877, Control_c, 0, 64, 21
1, 7915, Note_on_c, 0, 75, 81
1, 7919, Note_on_c, 0, 60, 64
1, 7921, Control_c, 0, 64, 23
1, 7936, Control_c, 0, 64, 24
1, 7951, Control_c, 0, 64, 26
1, 7966, Control_c, 0, 64, 27
1, 7996, Note_off_c, 0, 79, 56
1, 7996, Control_c, 0, 64, 28
1, 8004, Note_off_c, 0, 55, 64
1, 8018, Note_off_c, 0, 51, 64
1, 8032, Note_off_c, 0, 75, 66
1, 8038, Note_on_c, 0, 72, 88
1, 8181, Note_on_c, 0, 62, 71
1, 8185, Note_on_c, 0, 70, 78
1, 8193, Note_on_c, 0, 53, 59
1, 8196, Note_off_c, 0, 60, 57
1, 8196, Control_c, 0, 64, 27
1, 8205, Note_off_c, 0, 72, 54
1, 8225, Control_c, 0, 64, 26
1, 8255, Control_c, 0, 64, 24
1, 8285, Control_c, 0, 64, 23
1, 8299, Control_c, 0, 64, 21
1, 8312, Note_on_c, 0, 74, 88
1, 8314, Control_c, 0, 64, 19
1, 8317, Note_off_c, 0, 70, 64
1, 8329, Control_c, 0, 64, 14
1, 8344, Control_c, 0, 64, 11
1, 8359, Control_c, 0, 64, 0
1, 8451, Note_on_c, 0, 72, 79
1, 8470, Note_on_c, 0, 63, 65
1, 8541, Note_off_c, 0, 62, 61
1, 8541, Note_off_c, 0, 74, 54
1, 8565, Note_off_c, 0, 72, 65
1, 8592, Note_on_c, 0, 69, 76
1, 8595, Note_off_c, 0, 63, 62
1, 8712, Note_off_c, 0, 53, 61
1, 8725, Note_on_c, 0, 58, 51
1, 8727, Note_off_c, 0, 69, 52
1, 8729, Note_on_c, 0, 70, 65
1, 8740, Note_on_c, 0, 62, 46
1, 8826, Note_off_c, 0, 70, 61
1, 8849, Control_c, 0, 64, 11
1, 8864, Control_c, 0, 64, 17
1, 8886, Control_c, 0, 64, 19
1, 8890, Note_on_c, 0, 72, 55
1, 8901, Control_c, 0, 64, 21
1, 8916, Control_c, 0, 64, 17
1, 8928, Note_off_c, 0, 72, 65
1, 8930, Control_c, 0, 64, 0
1, 8940, Note_on_c, 0, 70, 69
1, 8964, Note_off_c, 0, 70, 67
1, 8979, Note_on_c, 0, 69, 69
1, 9029, Note_on_c, 0, 70, 73
1, 9033, Note_off_c, 0, 69, 59
1, 9049, Control_c, 0, 67, 9
1, 9059, Note_off_c, 0, 70, 65
1, 9064, Control_c, 0, 67, 12
1, 9078, Control_c, 0, 67, 15
1, 9093, Control_c, 0, 67, 20
1, 9108, Control_c, 0, 67, 26
1, 9123, Control_c, 0, 67, 33
1, 9138, Control_c, 0, 67, 42
1, 9144, Note_off_c, 0, 62, 59
1, 9152, Control_c, 0, 67, 53
1, 9167, Control_c, 0, 67, 64
1, 9170, Note_on_c, 0, 72, 70
1, 9182, Note_on_c, 0, 63, 50
1, 9182, Control_c, 0, 67, 75
1, 9193, Note_off_c, 0, 72, 69
1, 9197, Control_c, 0, 67, 85
1, 9212, Control_c, 0, 67, 96
1, 9227, Control_c, 0, 67, 107
1, 9242, Control_c, 0, 67, 115
1, 9256, Control_c, 0, 67, 121
1, 9269, Note_off_c, 0, 63, 55
1, 9271, Control_c, 0, 67, 124
1, 9286, Control_c, 0, 67, 125
1, 9321, Note_on_c, 0, 74, 66
1, 9331, Note_on_c, 0, 65, 46
1, 9346, Control_c, 0, 64, 59
1, 9346, Control_c, 0, 67, 124
1, 9361, Control_c, 0, 64, 67
1, 9361, Control_c, 0, 67, 123
1, 9376, Control_c, 0, 64, 71
1, 9376, Control_c, 0, 67, 122
1, 9391, Control_c, 0, 64, 77
1, 9391, Control_c, 0, 67, 121
1, 9406, Control_c, 0, 64, 83
1, 9406, Control_c, 0, 67, 120
1, 9415, Note_off_c, 0, 74, 65
1, 9419, Control_c, 0, 64, 88
1, 9419, Control_c, 0, 67, 119
1, 9434, Control_c, 0, 64, 89
1, 9449, Control_c, 0, 64, 91
1, 9449, Control_c, 0, 67, 119
1, 9464, Control_c, 0, 64, 93
1, 9479, Control_c, 0, 64, 95
1, 9493, Control_c, 0, 64, 95
1, 9508, Control_c, 0, 64, 96
1, 9523, Control_c, 0, 64, 96
1, 9546, Note_on_c, 0, 77, 66
1, 9567, Control_c, 0, 64, 96
1, 9580, Note_off_c, 0, 77, 64
1, 9582, Control_c, 0, 64, 93
1, 9585, Note_off_c, 0, 65, 63
1, 9597, Control_c, 0, 64, 84
1, 9603, Note_on_c, 0, 76, 77
1, 9619, Control_c, 0, 64, 72
1, 9619, Control_c, 0, 67, 118
1, 9633, Note_off_c, 0, 58, 63
1, 9634, Control_c, 0, 64, 56
1, 9649, Control_c, 0, 64, 0
1, 9674, Note_off_c, 0, 76, 60
1, 9678, Control_c, 0, 67, 118
1, 9683, Note_on_c, 0, 77, 64
1, 9693, Control_c, 0, 67, 117
1, 9708, Control_c, 0, 67, 117
1, 9709, Note_off_c, 0, 77, 69
1, 9723, Control_c, 0, 67, 116
1, 9724, Note_on_c, 0, 79, 76
1, 9738, Control_c, 0, 67, 115
1, 9752, Control_c, 0, 67, 115
1, 9767, Control_c, 0, 67, 114
1, 9782, Control_c, 0, 67, 112
1, 9784, Note_on_c, 0, 77, 80
1, 9797, Control_c, 0, 67, 110
1, 9812, Control_c, 0, 67, 105
1, 9826, Control_c, 0, 67, 101
1, 9832, Note_off_c, 0, 79, 59
1, 9841, Control_c, 0, 67, 94
1, 9856, Control_c, 0, 67, 87
1, 9863, Note_on_c, 0, 60, 56
1, 9865, Note_on_c, 0, 57, 52
1, 9871, Control_c, 0, 67, 80
1, 9872, Note_on_c, 0, 75, 75
1, 9873, Note_off_c, 0, 77, 63
1, 9886, Control_c, 0, 67, 73
1, 9889, Note_on_c, 0, 53, 46
1, 9901, Control_c, 0, 67, 66
1, 9916, Control_c, 0, 67, 58
1, 9930, Control_c, 0, 67, 50
1, 9945, Control_c, 0, 67, 44
1, 9960, Control_c, 0, 67, 37
1, 9975, Control_c, 0, 67, 32
1, 9990, Control_c, 0, 67, 28
1, 10005, Control_c, 0, 67, 24
1, 10019, Control_c, 0, 67, 19
1, 10020, Note_on_c, 0, 77, 86
1, 10023, Note_off_c, 0, 60, 64
1, 10034, Control_c, 0, 67, 16
1, 10044, Note_off_c, 0, 75, 63
1, 10049, Control_c, 0, 67, 14
1, 10064, Control_c, 0, 67, 12
1, 10078, Control_c, 0, 67, 10
1, 10094, Control_c, 0, 67, 9
1, 10109, Control_c, 0, 67, 8
1, 10124, Control_c, 0, 67, 0
1, 10153, Note_on_c, 0, 58, 70
1, 10154, Note_on_c, 0, 62, 64
1, 10156, Note_on_c, 0, 74, 87
1, 10166, Note_off_c, 0, 77, 62
1, 10187, Note_off_c, 0, 57, 60
1, 10253, Note_off_c, 0, 62, 62
1, 10274, Note_off_c, 0, 58, 64
1, 10291, Note_on_c, 0, 77, 77
1, 10295, Note_off_c, 0, 74, 65
1, 10459, Note_on_c, 0, 72, 69
1, 10464, Note_on_c, 0, 60, 49
1, 10477, Note_on_c, 0, 63, 58
1, 10559, Note_off_c, 0, 77, 58
1, 10569, Note_off_c, 0, 72, 57
1, 10676, Note_on_c, 0, 77, 62
1, 10709, Note_off_c, 0, 77, 63
1, 10723, Control_c, 0, 67, 8
1, 10736, Note_on_c, 0, 76, 70
1, 10738, Control_c, 0, 67, 9
1, 10753, Control_c, 0, 67, 10
1, 10755, Note_off_c, 0, 60, 63
1, 10759, Note_off_c, 0, 63, 61
1, 10768, Control_c, 0, 67, 12
1, 10779, Note_off_c, 0, 53, 66
1, 10783, Control_c, 0, 67, 13
1, 10794, Note_off_c, 0, 76, 60
1, 10798, Control_c, 0, 67, 15
1, 10801, Note_on_c, 0, 77, 64
1, 10813, Control_c, 0, 67, 17
1, 10828, Control_c, 0, 67, 19
1, 10830, Note_off_c, 0, 77, 68
1, 10843, Control_c, 0, 67, 21
1, 10855, Note_on_c, 0, 79, 68
1, 10857, Control_c, 0, 67, 28
1, 10872, Control_c, 0, 67, 35
1, 10887, Control_c, 0, 67, 45
1, 10902, Control_c, 0, 67, 57
1, 10917, Control_c, 0, 67, 69
1, 10923, Note_on_c, 0, 77, 69
1, 10932, Control_c, 0, 67, 78
1, 10947, Control_c, 0, 67, 84
1, 10948, Note_off_c, 0, 79, 52
1, 10962, Control_c, 0, 67, 90
1, 10977, Control_c, 0, 67, 94
1, 10991, Control_c, 0, 67, 97
1, 11001, Note_on_c, 0, 62, 40
1, 11004, Note_on_c, 0, 74, 63
1, 11006, Note_off_c, 0, 77, 59
1, 11006, Control_c, 0, 67, 98
1, 11013, Note_on_c, 0, 53, 39
1, 11014, Note_on_c, 0, 58, 43
1, 11021, Control_c, 0, 67, 99
1, 11093, Note_off_c, 0, 62, 61
1, 11132, Control_c, 0, 67, 98
1, 11147, Control_c, 0, 67, 97
1, 11148, Note_off_c, 0, 74, 63
1, 11162, Control_c, 0, 67, 97
1, 11169, Note_on_c, 0, 77, 61
1, 11176, Control_c, 0, 67, 96
1, 11191, Control_c, 0, 67, 96
1, 11206, Control_c, 0, 67, 95
1, 11221, Control_c, 0, 67, 94
1, 11266, Control_c, 0, 67, 94
1, 11286, Note_off_c, 0, 77, 57
1, 11301, Note_on_c, 0, 60, 59
1, 11302, Note_on_c, 0, 72, 63
1, 11325, Note_off_c, 0, 58, 55
1, 11326, Note_on_c, 0, 63, 54
1, 11384, Control_c, 0, 67, 93
1, 11422, Note_off_c, 0, 72, 58
1, 11429, Note_off_c, 0, 60, 63
1, 11439, Note_off_c, 0, 63, 62
1, 11443, Control_c, 0, 67, 93
1, 11450, Note_on_c, 0, 77, 57
1, 11594, Note_on_c, 0, 65, 56
1, 11596, Note_on_c, 0, 62, 61
1, 11603, Note_on_c, 0, 70, 62
1, 11618, Note_off_c, 0, 65, 60
1, 11622, Note_off_c, 0, 53, 52
1, 11627, Note_off_c, 0, 62, 64
1, 11680, Control_c, 0, 67, 92
1, 11696, Control_c, 0, 67, 91
1, 11706, Note_off_c, 0, 70, 57
1, 11711, Control_c, 0, 67, 87
1, 11726, Control_c, 0, 67, 81
1, 11739, Note_on_c, 0, 53, 81
1, 11740, Note_off_c, 0, 77, 39
1, 11740, Control_c, 0, 67, 67
1, 11746, Note_on_c, 0, 50, 70
1, 11755, Control_c, 0, 67, 46
1, 11770, Control_c, 0, 67, 24
1, 11771, Note_off_c, 0, 50, 68
1, 11771, Note_off_c, 0, 53, 67
1, 11785, Control_c, 0, 67, 0
1, 11887, Note_on_c, 0, 53, 90
1, 11888, Note_on_c, 0, 50, 65
1, 11921, Note_off_c, 0, 53, 64
1, 11924, Note_off_c, 0, 50, 68
1, 12023, Note_on_c, 0, 50, 76
1, 12023, Note_on_c, 0, 53, 83
1, 12050, Note_off_c, 0, 53, 69
1, 12063, Note_off_c, 0, 50, 63
1, 12172, Note_on_c, 0, 51, 64
1, 12173, Note_on_c, 0, 55, 48
1, 12222, Control_c, 0, 64, 11
1, 12237, Control_c, 0, 64, 14
1, 12256, Note_on_c, 0, 78, 68
1, 12266, Control_c, 0, 64, 17
1, 12311, Control_c, 0, 64, 19
1, 12338, Note_off_c, 0, 78, 63
1, 12345, Note_on_c, 0, 81, 81
1, 12433, Note_on_c, 0, 79, 84
1, 12452, Note_on_c, 0, 60, 63
1, 12482, Note_off_c, 0, 81, 59
1, 12518, Note_off_c, 0, 55, 64
1, 12519, Control_c, 0, 64, 21
1, 12520, Note_on_c, 0, 75, 83
1, 12522, Note_off_c, 0, 51, 64
1, 12542, Note_off_c, 0, 79, 61
1, 12592, Note_off_c, 0, 75, 65
1, 12595, Note_on_c, 0, 72, 81
1, 12690, Control_c, 0, 64, 19
1, 12700, Note_on_c, 0, 62, 65
1, 12704, Control_c, 0, 64, 14
1, 12705, Note_on_c, 0, 70, 77
1, 12707, Note_off_c, 0, 72, 66
1, 12708, Note_off_c, 0, 60, 64
1, 12720, Note_on_c, 0, 53, 56
1, 12734, Control_c, 0, 64, 11
1, 12749, Control_c, 0, 64, 0
1, 12846, Note_off_c, 0, 70, 64
1, 12849, Note_on_c, 0, 74, 77
1, 12996, Note_off_c, 0, 62, 61
1, 12997, Note_on_c, 0, 72, 70
1, 13003, Note_on_c, 0, 63, 66
1, 13019, Note_off_c, 0, 74, 60
1, 13099, Note_off_c, 0, 72, 63
1, 13142, Note_off_c, 0, 63, 63
1, 13144, Note_on_c, 0, 69, 65
1, 13192, Control_c, 0, 64, 32
1, 13206, Control_c, 0, 64, 46
1, 13221, Control_c, 0, 64, 53
1, 13227, Note_off_c, 0, 69, 61
1, 13236, Control_c, 0, 64, 56
1, 13251, Control_c, 0, 64, 58
1, 13266, Note_off_c, 0, 53, 57
1, 13266, Control_c, 0, 64, 54
1, 13276, Note_on_c, 0, 70, 63
1, 13281, Control_c, 0, 64, 0
1, 13292, Note_on_c, 0, 62, 49
1, 13309, Note_off_c, 0, 70, 64
1, 13370, Note_on_c, 0, 65, 49
1, 13395, Note_off_c, 0, 62, 59
1, 13405, Note_off_c, 0, 65, 64
1, 13422, Note_on_c, 0, 58, 51
1, 13427, Note_on_c, 0, 67, 70
1, 13491, Note_on_c, 0, 69, 73
1, 13492, Note_off_c, 0, 67, 61
1, 13543, Note_off_c, 0, 58, 62
1, 13547, Note_off_c, 0, 69, 61
1, 13548, Note_on_c, 0, 70, 77
1, 13568, Note_on_c, 0, 62, 57
1, 13595, Note_off_c, 0, 70, 62
1, 13624, Note_on_c, 0, 72, 75
1, 13674, Note_off_c, 0, 62, 58
1, 13677, Note_off_c, 0, 72, 63
1, 13688, Note_on_c, 0, 58, 53
1, 13690, Note_on_c, 0, 74, 77
1, 13750, Note_off_c, 0, 74, 63
1, 13752, Note_on_c, 0, 75, 77
1, 13787, Note_off_c, 0, 75, 64
1, 13796, Note_off_c, 0, 58, 60
1, 13818, Note_on_c, 0, 77, 75
1, 13827, Note_on_c, 0, 62, 51
1, 13882, Note_off_c, 0, 77, 59
1, 13885, Note_on_c, 0, 79, 81
1, 13940, Note_off_c, 0, 62, 56
1, 13941, Note_on_c, 0, 58, 53
1, 13944, Note_on_c, 0, 81, 68
1, 13961, Note_off_c, 0, 79, 60
1, 13994, Note_on_c, 0, 82, 82
1, 13996, Note_off_c, 0, 81, 62
1, 14032, Note_off_c, 0, 82, 64
1, 14046, Note_off_c, 0, 58, 58
1, 14067, Note_on_c, 0, 81, 83
1, 14068, Note_on_c, 0, 62, 53
1, 14124, Note_off_c, 0, 81, 63
1, 14137, Note_on_c, 0, 82, 84
1, 14176, Note_off_c, 0, 82, 63
1, 14177, Note_off_c, 0, 62, 60
1, 14193, Note_on_c, 0, 81, 80
1, 14195, Note_on_c, 0, 58, 56
1, 14235, Note_off_c, 0, 81, 60
1, 14244, Note_on_c, 0, 82, 79
1, 14265, Note_off_c, 0, 82, 69
1, 14334, Note_off_c, 0, 58, 59
1, 14351, Note_on_c, 0, 63, 53
1, 14353, Note_on_c, 0, 67, 75
1, 14501, Note_on_c, 0, 58, 48
1, 14504, Note_off_c, 0, 63, 45
1, 14625, Note_off_c, 0, 58, 59
1, 14649, Note_on_c, 0, 63, 44
1, 14771, Note_off_c, 0, 63, 56
1, 14787, Note_on_c, 0, 58, 47
1, 14868, Note_off_c, 0, 67, 52
1, 14903, Note_off_c, 0, 58, 59
1, 14934, Note_on_c, 0, 69, 59
1, 14938, Note_on_c, 0, 60, 44
1, 14957, Note_off_c, 0, 69, 63
1, 14978, Note_on_c, 0, 70, 63
1, 15006, Note_off_c, 0, 70, 67
1, 15025, Note_on_c, 0, 69, 71
1, 15038, Note_off_c, 0, 60, 60
1, 15056, Note_on_c, 0, 58, 49
1, 15059, Note_off_c, 0, 69, 57
1, 15067, Note_on_c, 0, 70, 80
1, 15091, Note_off_c, 0, 70, 63
1, 15125, Note_on_c, 0, 69, 50
1, 15136, Note_off_c, 0, 58, 61
1, 15151, Note_off_c, 0, 69, 59
1, 15161, Note_on_c, 0, 70, 75
1, 15163, Note_on_c, 0, 60, 53
1, 15199, Note_off_c, 0, 70, 63
1, 15204, Note_on_c, 0, 69, 75
1, 15216, Control_c, 0, 67, 11
1, 15231, Control_c, 0, 67, 21
1, 15245, Control_c, 0, 67, 38
1, 15257, Note_off_c, 0, 69, 61
1, 15260, Control_c, 0, 67, 58
1, 15275, Control_c, 0, 67, 75
1, 15282, Note_off_c, 0, 60, 63
1, 15290, Control_c, 0, 67, 89
1, 15301, Note_on_c, 0, 67, 59
1, 15305, Control_c, 0, 67, 101
1, 15307, Note_on_c, 0, 58, 47
1, 15320, Control_c, 0, 67, 108
1, 15335, Control_c, 0, 67, 113
1, 15340, Note_off_c, 0, 67, 61
1, 15350, Control_c, 0, 67, 114
1, 15368, Note_on_c, 0, 69, 54
1, 15417, Note_off_c, 0, 58, 60
1, 15424, Note_off_c, 0, 69, 62
1, 15429, Note_on_c, 0, 70, 64
1, 15454, Control_c, 0, 67, 113
1, 15460, Note_off_c, 0, 70, 62
1, 15461, Note_on_c, 0, 62, 37
1, 15469, Control_c, 0, 67, 113
1, 15484, Control_c, 0, 67, 112
1, 15498, Control_c, 0, 67, 112
1, 15503, Note_on_c, 0, 65, 55
1, 15543, Control_c, 0, 67, 111
1, 15549, Note_off_c, 0, 62, 53
1, 15552, Note_off_c, 0, 65, 60
1, 15571, Note_on_c, 0, 58, 44
1, 15576, Note_on_c, 0, 67, 60
1, 15587, Control_c, 0, 67, 111
1, 15624, Control_c, 0, 67, 110
1, 15639, Note_off_c, 0, 67, 62
1, 15643, Note_on_c, 0, 69, 68
1, 15669, Control_c, 0, 67, 110
1, 15684, Control_c, 0, 67, 109
1, 15695, Note_off_c, 0, 69, 62
1, 15698, Note_off_c, 0, 58, 61
1, 15699, Control_c, 0, 67, 109
1, 15703, Note_on_c, 0, 70, 75
1, 15713, Control_c, 0, 67, 108
1, 15728, Note_on_c, 0, 62, 47
1, 15742, Note_off_c, 0, 70, 63
1, 15743, Control_c, 0, 67, 108
1, 15758, Control_c, 0, 67, 107
1, 15782, Note_on_c, 0, 72, 72
1, 15803, Control_c, 0, 67, 107
1, 15827, Note_off_c, 0, 72, 62
1, 15833, Note_off_c, 0, 62, 53
1, 15833, Control_c, 0, 67, 106
1, 15848, Note_on_c, 0, 74, 72
1, 15854, Note_on_c, 0, 58, 42
1, 15862, Control_c, 0, 67, 106
1, 15901, Note_off_c, 0, 74, 63
1, 15907, Control_c, 0, 67, 105
1, 15908, Note_on_c, 0, 75, 72
1, 15936, Control_c, 0, 67, 105
1, 15938, Note_off_c, 0, 75, 62
1, 15944, Note_off_c, 0, 58, 60
1, 15951, Control_c, 0, 67, 104
1, 15966, Control_c, 0, 67, 104
1, 15977, Note_on_c, 0, 62, 48
1, 15980, Note_on_c, 0, 77, 72
1, 16023, Note_off_c, 0, 77, 57
1, 16047, Note_on_c, 0, 79, 70
1, 16077, Note_off_c, 0, 62, 53
1, 16089, Note_on_c, 0, 58, 43
1, 16102, Note_on_c, 0, 81, 68
1, 16119, Note_off_c, 0, 79, 54
1, 16128, Control_c, 0, 67, 103
1, 16149, Note_off_c, 0, 81, 62
1, 16158, Note_on_c, 0, 82, 78
1, 16191, Note_off_c, 0, 58, 59
1, 16191, Note_off_c, 0, 82, 60
1, 16220, Note_on_c, 0, 62, 47
1, 16234, Note_on_c, 0, 81, 76
1, 16261, Control_c, 0, 67, 103
1, 16265, Note_off_c, 0, 81, 57
1, 16291, Note_on_c, 0, 82, 78
1, 16316, Note_off_c, 0, 82, 63
1, 16329, Note_off_c, 0, 62, 61
1, 16342, Note_on_c, 0, 58, 51
1, 16347, Note_on_c, 0, 81, 75
1, 16383, Note_off_c, 0, 81, 56
1, 16410, Note_on_c, 0, 82, 75
1, 16424, Note_off_c, 0, 82, 69
1, 16488, Note_off_c, 0, 58, 60
1, 16511, Note_on_c, 0, 63, 52
1, 16515, Note_on_c, 0, 67, 73
1, 16581, Control_c, 0, 67, 103
1, 16656, Note_off_c, 0, 63, 54
1, 16657, Note_on_c, 0, 58, 48
1, 16787, Note_off_c, 0, 58, 56
1, 16794, Note_on_c, 0, 63, 51
1, 16861, Control_c, 0, 67, 103
1, 16906, Control_c, 0, 67, 102
1, 16919, Note_off_c, 0, 63, 53
1, 16927, Note_on_c, 0, 58, 51
1, 16965, Control_c, 0, 67, 102
1, 17013, Note_off_c, 0, 67, 54
1, 17025, Control_c, 0, 67, 101
1, 17039, Note_off_c, 0, 58, 61
1, 17061, Note_on_c, 0, 60, 50
1, 17064, Note_on_c, 0, 69, 53
1, 17085, Note_off_c, 0, 69, 61
1, 17119, Note_on_c, 0, 70, 64
1, 17145, Note_off_c, 0, 70, 67
1, 17165, Note_on_c, 0, 69, 70
1, 17178, Note_off_c, 0, 60, 62
1, 17194, Note_on_c, 0, 58, 54
1, 17206, Note_off_c, 0, 69, 56
1, 17209, Note_on_c, 0, 70, 80
1, 17243, Note_off_c, 0, 70, 59
1, 17274, Note_off_c, 0, 58, 62
1, 17299, Note_on_c, 0, 70, 74
1, 17302, Note_on_c, 0, 60, 56
1, 17349, Note_off_c, 0, 70, 60
1, 17363, Poly_aftertouch_c, 0, 69, 127
1, 17394, Poly_aftertouch_c, 0, 69, 0
1, 17404, Control_c, 0, 67, 102
1, 17415, Note_off_c, 0, 60, 63
1, 17421, Note_on_c, 0, 67, 55
1, 17440, Note_on_c, 0, 58, 51
1, 17454, Note_off_c, 0, 67, 64
1, 17463, Control_c, 0, 67, 102
1, 17495, Note_on_c, 0, 69, 39
1, 17529, Note_off_c, 0, 69, 63
1, 17534, Note_on_c, 0, 70, 61
1, 17547, Note_off_c, 0, 58, 57
1, 17552, Control_c, 0, 67, 103
1, 17568, Note_off_c, 0, 70, 64
1, 17596, Control_c, 0, 67, 104
1, 17597, Note_on_c, 0, 62, 44
1, 17611, Control_c, 0, 67, 104
1, 17622, Note_on_c, 0, 69, 53
1, 17626, Control_c, 0, 67, 105
1, 17640, Control_c, 0, 67, 105
1, 17644, Note_off_c, 0, 69, 59
1, 17670, Control_c, 0, 67, 106
1, 17675, Note_on_c, 0, 70, 65
1, 17684, Control_c, 0, 67, 106
1, 17704, Note_off_c, 0, 70, 65
1, 17734, Note_on_c, 0, 74, 65
1, 17788, Note_off_c, 0, 74, 62
1, 17803, Note_on_c, 0, 70, 69
1, 17818, Control_c, 0, 67, 106
1, 17821, Note_off_c, 0, 62, 61
1, 17830, Note_off_c, 0, 70, 67
1, 17866, Note_on_c, 0, 69, 59
1, 17870, Control_c, 0, 67, 105
1, 17912, Note_off_c, 0, 69, 54
1, 17935, Note_on_c, 0, 70, 64
1, 17966, Note_off_c, 0, 70, 64
1, 17988, Control_c, 0, 67, 105
1, 17994, Note_on_c, 0, 74, 62
1, 18003, Control_c, 0, 67, 104
1, 18059, Note_on_c, 0, 57, 68
1, 18062, Note_off_c, 0, 74, 63
1, 18065, Note_on_c, 0, 65, 59
1, 18065, Note_on_c, 0, 72, 63
1, 18086, Note_off_c, 0, 65, 63
1, 18087, Note_off_c, 0, 57, 66
1, 18102, Note_off_c, 0, 72, 62
1, 18123, Note_on_c, 0, 71, 63
1, 18168, Note_off_c, 0, 71, 60
1, 18211, Note_on_c, 0, 72, 66
1, 18254, Note_off_c, 0, 72, 63
1, 18284, Note_on_c, 0, 75, 63
1, 18345, Control_c, 0, 67, 105
1, 18349, Note_on_c, 0, 58, 78
1, 18352, Note_on_c, 0, 65, 64
1, 18355, Note_on_c, 0, 74, 79
1, 18362, Note_off_c, 0, 75, 58
1, 18372, Note_off_c, 0, 65, 65
1, 18377, Note_off_c, 0, 58, 67
1, 18411, Note_off_c, 0, 74, 65
1, 18420, Control_c, 0, 67, 104
1, 18442, Note_on_c, 0, 72, 66
1, 18449, Control_c, 0, 67, 104
1, 18504, Note_off_c, 0, 72, 50
1, 18508, Control_c, 0, 67, 103
1, 18511, Note_on_c, 0, 74, 79
1, 18538, Control_c, 0, 67, 103
1, 18550, Note_off_c, 0, 74, 63
1, 18568, Control_c, 0, 67, 102
1, 18572, Note_on_c, 0, 77, 81
1, 18582, Control_c, 0, 67, 102
1, 18597, Control_c, 0, 67, 101
1, 18620, Control_c, 0, 67, 100
1, 18634, Control_c, 0, 67, 99
1, 18649, Control_c, 0, 67, 97
1, 18653, Note_on_c, 0, 76, 89
1, 18659, Note_on_c, 0, 60, 75
1, 18661, Note_on_c, 0, 58, 75
1, 18664, Note_on_c, 0, 55, 71
1, 18664, Control_c, 0, 67, 88
1, 18679, Control_c, 0, 67, 78
1, 18681, Note_off_c, 0, 77, 63
1, 18694, Control_c, 0, 67, 66
1, 18708, Control_c, 0, 67, 55
1, 18719, Note_off_c, 0, 76, 64
1, 18723, Control_c, 0, 67, 44
1, 18724, Note_on_c, 0, 74, 84
1, 18738, Control_c, 0, 67, 34
1, 18753, Control_c, 0, 67, 25
1, 18768, Control_c, 0, 67, 19
1, 18782, Control_c, 0, 67, 14
1, 18790, Note_off_c, 0, 74, 66
1, 18793, Note_on_c, 0, 76, 93
1, 18797, Control_c, 0, 67, 9
1, 18812, Control_c, 0, 67, 0
1, 18851, Note_off_c, 0, 76, 65
1, 18857, Note_on_c, 0, 79, 87
1, 18930, Note_on_c, 0, 76, 89
1, 18932, Note_off_c, 0, 79, 64
1, 18974, Note_off_c, 0, 76, 63
1, 18986, Note_on_c, 0, 74, 63
1, 19042, Note_off_c, 0, 74, 64
1, 19052, Note_on_c, 0, 76, 67
1, 19102, Note_off_c, 0, 76, 62
1, 19116, Note_on_c, 0, 79, 66
1, 19151, Note_off_c, 0, 79, 58
1, 19174, Note_off_c, 0, 55, 56
1, 19180, Note_off_c, 0, 58, 59
1, 19205, Note_on_c, 0, 77, 60
1, 19213, Note_on_c, 0, 57, 42
1, 19234, Note_off_c, 0, 77, 67
1, 19287, Note_on_c, 0, 81, 34
1, 19314, Note_off_c, 0, 81, 52
1, 19341, Note_on_c, 0, 79, 66
1, 19401, Note_off_c, 0, 79, 53
1, 19402, Note_on_c, 0, 81, 64
1, 19439, Note_off_c, 0, 60, 61
1, 19457, Note_off_c, 0, 81, 64
1, 19471, Note_off_c, 0, 57, 62
1, 19475, Note_on_c, 0, 84, 71
1, 19547, Note_on_c, 0, 81, 78
1, 19553, Note_off_c, 0, 84, 60
1, 19613, Note_on_c, 0, 79, 82
1, 19622, Note_off_c, 0, 81, 62
1, 19660, Note_off_c, 0, 79, 64
1, 19665, Note_on_c, 0, 77, 76
1, 19697, Note_off_c, 0, 77, 63
1, 19734, Note_on_c, 0, 60, 71
1, 19735, Note_on_c, 0, 58, 74
1, 19736, Note_on_c, 0, 55, 68
1, 19738, Note_on_c, 0, 76, 87
1, 19804, Note_off_c, 0, 76, 63
1, 19818, Note_on_c, 0, 74, 83
1, 19884, Note_off_c, 0, 74, 63
1, 19885, Note_on_c, 0, 76, 82
1, 19937, Note_off_c, 0, 76, 63
1, 19946, Note_on_c, 0, 79, 72
1, 20009, Note_off_c, 0, 79, 60
1, 20018, Note_on_c, 0, 76, 63
1, 20051, Note_off_c, 0, 76, 60
1, 20059, Note_on_c, 0, 74, 62
1, 20087, Note_off_c, 0, 74, 67
1, 20143, Note_on_c, 0, 76, 26
1, 20173, Note_on_c, 0, 79, 66
1, 20173, Note_off_c, 0, 76, 52
1, 20262, Note_on_c, 0, 77, 68
1, 20264, Note_off_c, 0, 79, 58
1, 20277, Note_off_c, 0, 58, 38
1, 20280, Note_on_c, 0, 57, 60
1, 20287, Note_off_c, 0, 55, 60
1, 20298, Note_off_c, 0, 60, 54
1, 20306, Note_off_c, 0, 77, 63
1, 20309, Note_off_c, 0, 57, 64
1, 20333, Note_on_c, 0, 76, 59
1, 20382, Note_off_c, 0, 76, 48
1, 20405, Note_on_c, 0, 77, 68
1, 20444, Note_off_c, 0, 77, 60
1, 20474, Note_on_c, 0, 81, 67
1, 20543, Note_off_c, 0, 81, 60
1, 20548, Note_on_c, 0, 52, 74
1, 20549, Note_on_c, 0, 79, 70
1, 20554, Note_on_c, 0, 60, 61
1, 20575, Note_off_c, 0, 60, 65
1, 20580, Note_off_c, 0, 52, 66
1, 20593, Note_off_c, 0, 79, 61
1, 20617, Note_on_c, 0, 77, 61
1, 20665, Note_off_c, 0, 77, 56
1, 20695, Note_on_c, 0, 79, 69
1, 20732, Note_off_c, 0, 79, 59
1, 20756, Note_on_c, 0, 82, 73
1, 20825, Note_on_c, 0, 81, 74
1, 20825, Note_off_c, 0, 82, 61
1, 20827, Note_on_c, 0, 60, 70
1, 20829, Note_on_c, 0, 53, 75
1, 20859, Note_off_c, 0, 60, 68
1, 20867, Note_off_c, 0, 53, 69
1, 20882, Note_off_c, 0, 81, 63
1, 20902, Note_on_c, 0, 79, 68
1, 20951, Note_off_c, 0, 79, 49
1, 20979, Note_on_c, 0, 81, 72
1, 21019, Note_off_c, 0, 81, 60
1, 21043, Note_on_c, 0, 84, 71
1, 21110, Note_on_c, 0, 52, 76
1, 21111, Note_on_c, 0, 60, 78
1, 21115, Note_on_c, 0, 79, 75
1, 21133, Note_off_c, 0, 60, 71
1, 21143, Note_off_c, 0, 52, 66
1, 21151, Note_off_c, 0, 84, 58
1, 21162, Note_off_c, 0, 79, 62
1, 21170, Note_on_c, 0, 77, 72
1, 21232, Note_off_c, 0, 77, 56
1, 21254, Note_on_c, 0, 79, 68
1, 21297, Note_off_c, 0, 79, 60
1, 21308, Note_on_c, 0, 82, 75
1, 21383, Note_on_c, 0, 81, 81
1, 21389, Note_on_c, 0, 60, 79
1, 21392, Note_on_c, 0, 53, 83
1, 21409, Note_off_c, 0, 82, 58
1, 21410, Note_off_c, 0, 60, 70
1, 21434, Note_off_c, 0, 53, 67
1, 21449, Note_off_c, 0, 81, 63
1, 21464, Note_on_c, 0, 79, 76
1, 21525, Note_off_c, 0, 79, 59
1, 21535, Note_on_c, 0, 81, 91
1, 21595, Note_off_c, 0, 81, 63
1, 21610, Note_on_c, 0, 84, 87
1, 21664, Note_on_c, 0, 53, 82
1, 21666, Note_on_c, 0, 50, 78
1, 21672, Note_on_c, 0, 83, 88
1, 21689, Note_off_c, 0, 53, 70
1, 21695, Note_off_c, 0, 50, 70
1, 21702, Note_off_c, 0, 84, 64
1, 21738, Note_off_c, 0, 83, 66
1, 21741, Note_on_c, 0, 81, 85
1, 21815, Note_on_c, 0, 83, 89
1, 21821, Note_off_c, 0, 81, 64
1, 21862, Note_on_c, 0, 89, 87
1, 21868, Note_off_c, 0, 83, 66
1, 21938, Note_on_c, 0, 88, 94
1, 21991, Note_off_c, 0, 89, 60
1, 21999, Note_on_c, 0, 48, 79
1, 22072, Note_on_c, 0, 50, 84
1, 22096, Note_off_c, 0, 88, 64
1, 22105, Note_off_c, 0, 48, 62
1, 22146, Note_on_c, 0, 52, 78
1, 22149, Control_c, 0, 64, 24
1, 22164, Control_c, 0, 64, 32
1, 22179, Note_off_c, 0, 50, 65
1, 22179, Control_c, 0, 64, 39
1, 22194, Control_c, 0, 64, 45
1, 22198, Note_on_c, 0, 53, 86
1, 22208, Note_off_c, 0, 52, 62
1, 22209, Control_c, 0, 64, 49
1, 22223, Control_c, 0, 64, 51
1, 22238, Control_c, 0, 64, 50
1, 22253, Control_c, 0, 64, 26
1, 22268, Control_c, 0, 64, 0
1, 22271, Note_off_c, 0, 53, 67
1, 22277, Note_on_c, 0, 55, 76
1, 22291, Note_on_c, 0, 79, 78
1, 22340, Note_on_c, 0, 57, 78
1, 22343, Note_off_c, 0, 55, 56
1, 22361, Note_on_c, 0, 81, 88
1, 22368, Note_off_c, 0, 79, 63
1, 22420, Note_on_c, 0, 59, 85
1, 22423, Note_off_c, 0, 57, 64
1, 22427, Note_on_c, 0, 83, 84
1, 22447, Note_off_c, 0, 81, 64
1, 22483, Note_on_c, 0, 84, 83
1, 22488, Note_off_c, 0, 83, 66
1, 22490, Note_on_c, 0, 60, 89
1, 22492, Note_off_c, 0, 59, 64
1, 22553, Note_on_c, 0, 83, 83
1, 22585, Note_off_c, 0, 84, 63
1, 22626, Note_on_c, 0, 81, 86
1, 22642, Note_off_c, 0, 83, 65
1, 22676, Note_off_c, 0, 81, 65
1, 22685, Note_on_c, 0, 79, 73
1, 22698, Note_off_c, 0, 60, 64
1, 22715, Note_off_c, 0, 79, 62
1, 22741, Note_on_c, 0, 77, 86
1, 22805, Note_on_c, 0, 76, 84
1, 22843, Note_off_c, 0, 77, 64
1, 22868, Note_on_c, 0, 74, 86
1, 22882, Note_off_c, 0, 76, 63
1, 22918, Note_off_c, 0, 74, 66
1, 22922, Note_on_c, 0, 72, 69
1, 22945, Note_off_c, 0, 72, 70
1, 22992, Note_on_c, 0, 48, 82
1, 23002, Note_on_c, 0, 69, 78
1, 23011, Note_on_c, 0, 65, 75
1, 23017, Note_off_c, 0, 48, 66
1, 23159, Note_on_c, 0, 60, 72
1, 23184, Note_off_c, 0, 60, 68
1, 23304, Note_on_c, 0, 48, 81
1, 23328, Note_off_c, 0, 48, 66
1, 23447, Note_off_c, 0, 65, 62
1, 23452, Note_on_c, 0, 60, 79
1, 23468, Note_off_c, 0, 69, 62
1, 23482, Note_off_c, 0, 60, 65
1, 23581, Note_on_c, 0, 71, 82
1, 23585, Note_on_c, 0, 48, 76
1, 23585, Note_on_c, 0, 62, 77
1, 23613, Note_off_c, 0, 48, 65
1, 23635, Note_off_c, 0, 71, 59
1, 23663, Note_on_c, 0, 72, 64
1, 23695, Note_off_c, 0, 72, 63
1, 23700, Note_on_c, 0, 71, 62
1, 23729, Note_on_c, 0, 60, 62
1, 23747, Note_off_c, 0, 71, 63
1, 23757, Note_off_c, 0, 60, 66
1, 23773, Note_on_c, 0, 72, 59
1, 23811, Note_on_c, 0, 71, 64
1, 23813, Note_off_c, 0, 72, 64
1, 23854, Note_on_c, 0, 48, 70
1, 23865, Note_off_c, 0, 71, 65
1, 23875, Note_off_c, 0, 48, 62
1, 23881, Note_on_c, 0, 72, 54
1, 23923, Note_on_c, 0, 71, 60
1, 23927, Note_off_c, 0, 72, 60
1, 23938, Note_off_c, 0, 62, 55
1, 23988, Note_off_c, 0, 71, 64
1, 23997, Note_on_c, 0, 60, 68
1, 24007, Note_on_c, 0, 69, 69
1, 24015, Note_off_c, 0, 60, 65
1, 24075, Note_off_c, 0, 69, 62
1, 24081, Note_on_c, 0, 71, 77
1, 24140, Note_off_c, 0, 71, 63
1, 24148, Note_on_c, 0, 72, 82
1, 24150, Note_on_c, 0, 64, 74
1, 24218, Note_on_c, 0, 36, 75
1, 24289, Note_on_c, 0, 38, 81
1, 24319, Note_off_c, 0, 36, 60
1, 24331, Note_off_c, 0, 64, 63
1, 24354, Note_off_c, 0, 72, 64
1, 24358, Note_on_c, 0, 40, 78
1, 24385, Note_off_c, 0, 38, 64
1, 24424, Note_on_c, 0, 41, 83
1, 24434, Note_off_c, 0, 40, 63
1, 24497, Note_on_c, 0, 67, 85
1, 24497, Note_off_c, 0, 41, 63
1, 24498, Note_on_c, 0, 43, 80
1, 24534, Note_off_c, 0, 43, 64
1, 24567, Note_on_c, 0, 45, 83
1, 24569, Note_on_c, 0, 69, 86
1, 24573, Note_off_c, 0, 67, 63
1, 24637, Note_on_c, 0, 71, 80
1, 24649, Note_on_c, 0, 47, 85
1, 24649, Note_off_c, 0, 45, 66
1, 24659, Note_off_c, 0, 69, 62
1, 24698, Note_on_c, 0, 72, 81
1, 24700, Note_off_c, 0, 71, 65
1, 24716, Note_off_c, 0, 47, 66
1, 24716, Note_on_c, 0, 48, 87
1, 24775, Note_on_c, 0, 71, 85
1, 24802, Note_off_c, 0, 72, 63
1, 24850, Note_on_c, 0, 69, 83
1, 24864, Note_off_c, 0, 71, 65
1, 24902, Note_off_c, 0, 69, 62
1, 24905, Note_on_c, 0, 67, 78
1, 24928, Note_off_c, 0, 48, 62
1, 24954, Note_off_c, 0, 67, 64
1, 24974, Note_on_c, 0, 65, 82
1, 25037, Note_on_c, 0, 64, 81
1, 25078, Note_off_c, 0, 65, 62
1, 25100, Note_on_c, 0, 62, 83
1, 25114, Note_off_c, 0, 64, 65
1, 25114, Control_c, 0, 64, 21
1, 25129, Control_c, 0, 64, 34
1, 25143, Control_c, 0, 64, 47
1, 25150, Note_off_c, 0, 62, 63
1, 25153, Note_on_c, 0, 60, 74
1, 25158, Control_c, 0, 64, 53
1, 25173, Control_c, 0, 64, 57
1, 25181, Note_off_c, 0, 60, 68
1, 25188, Control_c, 0, 64, 55
1, 25202, Control_c, 0, 64, 0
1, 25231, Note_on_c, 0, 57, 79
1, 25234, Note_on_c, 0, 36, 80
1, 25237, Note_on_c, 0, 53, 85
1, 25265, Note_off_c, 0, 36, 63
1, 25400, Note_on_c, 0, 48, 72
1, 25425, Note_off_c, 0, 48, 65
1, 25550, Note_on_c, 0, 36, 77
1, 25579, Note_off_c, 0, 36, 62
1, 25685, Control_c, 0, 64, 24
1, 25696, Note_on_c, 0, 48, 82
1, 25699, Control_c, 0, 64, 37
1, 25705, Note_off_c, 0, 53, 62
1, 25714, Control_c, 0, 64, 47
1, 25718, Note_off_c, 0, 57, 62
1, 25725, Note_off_c, 0, 48, 67
1, 25729, Control_c, 0, 64, 51
1, 25744, Control_c, 0, 64, 52
1, 25759, Control_c, 0, 64, 52
1, 25774, Control_c, 0, 64, 51
1, 25789, Control_c, 0, 64, 26
1, 25804, Control_c, 0, 64, 0
1, 25838, Note_on_c, 0, 59, 80
1, 25839, Note_on_c, 0, 50, 80
1, 25840, Note_on_c, 0, 36, 76
1, 25867, Note_off_c, 0, 36, 63
1, 25877, Note_off_c, 0, 59, 54
1, 25918, Note_on_c, 0, 60, 58
1, 25947, Note_off_c, 0, 60, 66
1, 25955, Note_on_c, 0, 59, 63
1, 25973, Note_on_c, 0, 48, 72
1, 25996, Note_off_c, 0, 59, 58
1, 25998, Note_off_c, 0, 48, 65
1, 26012, Note_on_c, 0, 60, 66
1, 26070, Note_off_c, 0, 60, 64
1, 26074, Note_on_c, 0, 59, 69
1, 26113, Note_on_c, 0, 36, 71
1, 26123, Note_off_c, 0, 59, 58
1, 26139, Note_on_c, 0, 60, 62
1, 26142, Note_off_c, 0, 36, 63
1, 26177, Note_off_c, 0, 50, 58
1, 26203, Note_off_c, 0, 60, 63
1, 26206, Note_on_c, 0, 59, 65
1, 26247, Note_off_c, 0, 59, 59
1, 26257, Note_on_c, 0, 48, 67
1, 26275, Note_on_c, 0, 57, 64
1, 26285, Note_off_c, 0, 48, 65
1, 26342, Note_on_c, 0, 59, 72
1, 26352, Note_off_c, 0, 57, 57
1, 26395, Note_off_c, 0, 59, 62
1, 26407, Note_on_c, 0, 60, 84
1, 26409, Note_on_c, 0, 52, 66
1, 26412, Note_on_c, 0, 36, 64
1, 26438, Note_off_c, 0, 60, 65
1, 26439, Note_off_c, 0, 52, 64
1, 26576, Note_on_c, 0, 64, 78
1, 26618, Note_off_c, 0, 36, 59
1, 26639, Note_on_c, 0, 65, 82
1, 26658, Note_off_c, 0, 64, 60
1, 26708, Note_off_c, 0, 65, 64
1, 26712, Note_on_c, 0, 67, 83
1, 26778, Note_on_c, 0, 65, 83
1, 26805, Note_off_c, 0, 67, 61
1, 26855, Note_on_c, 0, 64, 83
1, 26858, Note_off_c, 0, 65, 64
1, 26906, Note_off_c, 0, 64, 66
1, 26913, Note_on_c, 0, 62, 71
1, 26947, Note_off_c, 0, 62, 64
1, 26989, Note_on_c, 0, 60, 85
1, 26993, Note_on_c, 0, 36, 70
1, 26996, Note_on_c, 0, 48, 71
1, 27012, Note_off_c, 0, 60, 69
1, 27154, Note_on_c, 0, 64, 75
1, 27218, Note_on_c, 0, 65, 78
1, 27232, Note_off_c, 0, 64, 57
1, 27244, Note_off_c, 0, 48, 63
1, 27244, Note_off_c, 0, 36, 60
1, 27282, Note_off_c, 0, 65, 64
1, 27292, Note_on_c, 0, 67, 78
1, 27360, Note_on_c, 0, 65, 77
1, 27372, Note_off_c, 0, 67, 61
1, 27420, Note_on_c, 0, 64, 80
1, 27422, Note_off_c, 0, 65, 64
1, 27472, Note_off_c, 0, 64, 65
1, 27486, Note_on_c, 0, 62, 69
1, 27549, Note_on_c, 0, 60, 81
1, 27551, Note_off_c, 0, 62, 39
1, 27555, Note_on_c, 0, 48, 84
1, 27556, Note_on_c, 0, 36, 80
1, 27566, Control_c, 0, 64, 66
1, 27574, Note_off_c, 0, 60, 68
1, 27579, Note_off_c, 0, 48, 68
1, 27581, Control_c, 0, 64, 84
1, 27583, Note_off_c, 0, 36, 64
1, 27603, Control_c, 0, 64, 96
1, 27618, Control_c, 0, 64, 112
1, 27648, Control_c, 0, 64, 109
1, 27663, Control_c, 0, 64, 97
1, 27679, Control_c, 0, 64, 82
1, 27693, Control_c, 0, 64, 66
1, 27708, Control_c, 0, 64, 0
1, 27864, Note_on_c, 0, 60, 82
1, 27870, Note_on_c, 0, 52, 73
1, 27872, Note_on_c, 0, 48, 80
1, 27873, Note_on_c, 0, 36, 76
1, 27873, Note_on_c, 0, 55, 71
1, 27886, Control_c, 0, 64, 70
1, 27893, Note_off_c, 0, 48, 67
1, 27896, Note_off_c, 0, 52, 65
1, 27899, Note_off_c, 0, 36, 63
1, 27900, Control_c, 0, 64, 89
1, 27902, Note_off_c, 0, 55, 67
1, 27910, Note_off_c, 0, 60, 66
1, 27915, Control_c, 0, 64, 118
1, 27930, Control_c, 0, 64, 127
1, 27989, Control_c, 0, 64, 113
1, 28004, Control_c, 0, 64, 87
1, 28019, Control_c, 0, 64, 66
1, 28033, Control_c, 0, 64, 0
1, 28180, Note_on_c, 0, 60, 77
1, 28183, Control_c, 0, 64, 60
1, 28183, Note_on_c, 0, 48, 77
1, 28186, Note_on_c, 0, 36, 67
1, 28188, Note_on_c, 0, 55, 67
1, 28191, Note_on_c, 0, 52, 68
1, 28197, Control_c, 0, 64, 77
1, 28206, Note_off_c, 0, 48, 66
1, 28212, Control_c, 0, 64, 89
1, 28215, Note_off_c, 0, 52, 65
1, 28217, Note_off_c, 0, 36, 61
1, 28227, Control_c, 0, 64, 110
1, 28236, Note_off_c, 0, 55, 62
1, 28242, Control_c, 0, 64, 127
1, 28242, Note_off_c, 0, 60, 65
1, 28367, Control_c, 0, 67, 11
1, 28382, Control_c, 0, 67, 28
1, 28397, Control_c, 0, 67, 54
1, 28412, Control_c, 0, 64, 96
1, 28412, Control_c, 0, 67, 85
1, 28427, Control_c, 0, 64, 74
1, 28427, Control_c, 0, 67, 111
1, 28442, Control_c, 0, 64, 0
1, 28442, Control_c, 0, 67, 127
1, 28846, Note_on_c, 0, 57, 41
1, 28863, Note_on_c, 0, 77, 49
1, 28888, Note_off_c, 0, 77, 59
1, 29000, Note_on_c, 0, 77, 55
1, 29032, Note_off_c, 0, 77, 65
1, 29142, Note_on_c, 0, 69, 46
1, 29157, Note_on_c, 0, 77, 51
1, 29178, Note_off_c, 0, 77, 60
1, 29282, Note_on_c, 0, 77, 58
1, 29323, Note_off_c, 0, 77, 61
1, 29405, Note_off_c, 0, 69, 54
1, 29408, Note_on_c, 0, 65, 48
1, 29429, Note_on_c, 0, 77, 64
1, 29447, Note_off_c, 0, 77, 66
1, 29571, Note_on_c, 0, 77, 36
1, 29598, Note_off_c, 0, 77, 55
1, 29666, Note_off_c, 0, 65, 62
1, 29688, Note_on_c, 0, 79, 60
1, 29688, Note_on_c, 0, 60, 48
1, 29719, Note_off_c, 0, 57, 59
1, 29726, Note_off_c, 0, 79, 60
1, 29745, Note_on_c, 0, 77, 53
1, 29772, Note_off_c, 0, 77, 67
1, 29795, Note_on_c, 0, 76, 62
1, 29824, Note_off_c, 0, 76, 65
1, 29849, Note_on_c, 0, 77, 74
1, 29878, Note_off_c, 0, 77, 59
1, 29880, Control_c, 0, 67, 124
1, 29895, Control_c, 0, 67, 121
1, 29910, Control_c, 0, 67, 119
1, 29925, Control_c, 0, 67, 116
1, 29939, Control_c, 0, 67, 112
1, 29954, Control_c, 0, 67, 109
1, 29969, Control_c, 0, 67, 104
1, 29973, Note_on_c, 0, 84, 66
1, 29975, Note_off_c, 0, 60, 54
1, 29984, Control_c, 0, 67, 99
1, 29986, Note_on_c, 0, 72, 41
1, 29995, Note_on_c, 0, 58, 41
1, 29998, Control_c, 0, 67, 94
1, 30013, Control_c, 0, 67, 90
1, 30028, Control_c, 0, 67, 85
1, 30043, Control_c, 0, 67, 80
1, 30058, Control_c, 0, 67, 74
1, 30074, Control_c, 0, 67, 68
1, 30088, Control_c, 0, 67, 64
1, 30103, Control_c, 0, 67, 60
1, 30118, Control_c, 0, 67, 56
1, 30133, Control_c, 0, 67, 53
1, 30148, Control_c, 0, 67, 50
1, 30162, Control_c, 0, 67, 48
1, 30177, Control_c, 0, 67, 46
1, 30192, Control_c, 0, 67, 44
1, 30207, Control_c, 0, 67, 43
1, 30221, Control_c, 0, 67, 42
1, 30293, Note_on_c, 0, 67, 39
1, 30407, Note_on_c, 0, 82, 65
1, 30442, Note_off_c, 0, 72, 51
1, 30458, Control_c, 0, 67, 42
1, 30517, Control_c, 0, 67, 43
1, 30547, Control_c, 0, 67, 43
1, 30554, Note_on_c, 0, 81, 71
1, 30561, Note_on_c, 0, 64, 42
1, 30613, Note_off_c, 0, 67, 31
1, 30615, Note_off_c, 0, 84, 41
1, 30671, Note_off_c, 0, 82, 57
1, 30688, Note_on_c, 0, 79, 76
1, 30721, Note_off_c, 0, 81, 59
1, 30828, Note_off_c, 0, 79, 63
1, 30836, Note_on_c, 0, 77, 70
1, 30839, Note_off_c, 0, 58, 60
1, 30842, Note_on_c, 0, 60, 45
1, 30871, Note_off_c, 0, 64, 59
1, 30966, Note_off_c, 0, 77, 61
1, 30968, Note_on_c, 0, 76, 68
1, 30995, Note_off_c, 0, 76, 65
1, 31093, Note_off_c, 0, 60, 59
1, 31103, Note_on_c, 0, 77, 60
1, 31107, Note_on_c, 0, 57, 44
1, 31136, Note_off_c, 0, 77, 64
1, 31230, Note_on_c, 0, 77, 76
1, 31262, Note_off_c, 0, 77, 58
1, 31374, Note_on_c, 0, 77, 75
1, 31388, Note_on_c, 0, 69, 48
1, 31402, Note_off_c, 0, 77, 61
1, 31512, Note_on_c, 0, 77, 78
1, 31554, Note_off_c, 0, 77, 64
1, 31633, Note_off_c, 0, 69, 57
1, 31643, Note_on_c, 0, 65, 46
1, 31649, Note_on_c, 0, 77, 70
1, 31668, Note_off_c, 0, 77, 68
1, 31675, Control_c, 0, 67, 44
1, 31764, Control_c, 0, 67, 44
1, 31770, Note_on_c, 0, 77, 65
1, 31815, Note_off_c, 0, 77, 63
1, 31886, Note_off_c, 0, 65, 62
1, 31898, Note_on_c, 0, 79, 66
1, 31903, Note_on_c, 0, 60, 51
1, 31921, Note_off_c, 0, 57, 58
1, 31940, Note_off_c, 0, 79, 59
1, 31956, Control_c, 0, 67, 44
1, 31959, Note_on_c, 0, 77, 68
1, 31983, Note_off_c, 0, 77, 68
1, 31986, Control_c, 0, 67, 43
1, 32012, Note_on_c, 0, 76, 57
1, 32031, Control_c, 0, 67, 43
1, 32035, Note_off_c, 0, 76, 63
1, 32060, Control_c, 0, 67, 42
1, 32067, Note_on_c, 0, 77, 71
1, 32098, Note_off_c, 0, 77, 67
1, 32174, Note_on_c, 0, 84, 56
1, 32186, Control_c, 0, 67, 42
1, 32186, Note_on_c, 0, 58, 44
1, 32189, Note_off_c, 0, 60, 47
1, 32197, Note_on_c, 0, 72, 45
1, 32290, Control_c, 0, 67, 41
1, 32487, Note_on_c, 0, 67, 46
1, 32528, Control_c, 0, 67, 42
1, 32557, Control_c, 0, 67, 42
1, 32602, Control_c, 0, 67, 43
1, 32612, Note_off_c, 0, 72, 48
1, 32616, Control_c, 0, 67, 43
1, 32622, Note_on_c, 0, 82, 63
1, 32631, Control_c, 0, 67, 44
1, 32661, Control_c, 0, 67, 44
1, 32676, Control_c, 0, 67, 45
1, 32690, Control_c, 0, 67, 45
1, 32705, Control_c, 0, 67, 46
1, 32720, Control_c, 0, 67, 47
1, 32735, Control_c, 0, 67, 48
1, 32750, Control_c, 0, 67, 49
1, 32764, Control_c, 0, 67, 52
1, 32770, Note_on_c, 0, 81, 66
1, 32773, Note_on_c, 0, 64, 40
1, 32779, Control_c, 0, 67, 54
1, 32794, Note_off_c, 0, 84, 38
1, 32794, Note_off_c, 0, 67, 37
1, 32794, Control_c, 0, 67, 57
1, 32809, Control_c, 0, 67, 64
1, 32824, Control_c, 0, 67, 75
1, 32846, Control_c, 0, 67, 89
1, 32857, Note_off_c, 0, 82, 38
1, 32861, Control_c, 0, 67, 105
1, 32876, Control_c, 0, 67, 115
1, 32890, Control_c, 0, 67, 123
1, 32901, Note_off_c, 0, 81, 57
1, 32905, Control_c, 0, 67, 127
1, 32909, Note_on_c, 0, 79, 62
1, 33016, Note_off_c, 0, 79, 60
1, 33038, Control_c, 0, 67, 127
1, 33049, Note_on_c, 0, 60, 42
1, 33053, Control_c, 0, 64, 55
1, 33053, Control_c, 0, 67, 125
1, 33055, Note_on_c, 0, 77, 53
1, 33068, Control_c, 0, 64, 64
1, 33068, Control_c, 0, 67, 124
1, 33080, Note_off_c, 0, 64, 55
1, 33083, Control_c, 0, 64, 68
1, 33083, Control_c, 0, 67, 123
1, 33098, Control_c, 0, 64, 70
1, 33098, Control_c, 0, 67, 123
1, 33113, Control_c, 0, 64, 72
1, 33128, Control_c, 0, 64, 75
1, 33128, Control_c, 0, 67, 122
1, 33138, Note_off_c, 0, 60, 62
1, 33142, Control_c, 0, 64, 77
1, 33142, Control_c, 0, 67, 122
1, 33157, Control_c, 0, 64, 79
1, 33157, Control_c, 0, 67, 121
1, 33162, Note_off_c, 0, 77, 59
1, 33172, Control_c, 0, 64, 81
1, 33175, Note_off_c, 0, 58, 50
1, 33187, Control_c, 0, 64, 84
1, 33187, Control_c, 0, 67, 121
1, 33187, Note_on_c, 0, 76, 53
1, 33202, Control_c, 0, 64, 87
1, 33216, Control_c, 0, 64, 90
1, 33216, Control_c, 0, 67, 120
1, 33231, Control_c, 0, 64, 92
1, 33246, Control_c, 0, 64, 94
1, 33258, Note_off_c, 0, 76, 59
1, 33262, Control_c, 0, 64, 96
1, 33277, Control_c, 0, 67, 120
1, 33336, Control_c, 0, 64, 91
1, 33336, Control_c, 0, 67, 120
1, 33340, Note_on_c, 0, 57, 48
1, 33351, Control_c, 0, 64, 78
1, 33351, Control_c, 0, 67, 121
1, 33365, Control_c, 0, 64, 59
1, 33365, Control_c, 0, 67, 122
1, 33380, Control_c, 0, 64, 0
1, 33380, Control_c, 0, 67, 123
1, 33395, Control_c, 0, 67, 123
1, 33411, Note_on_c, 0, 77, 52
1, 33442, Note_off_c, 0, 77, 65
1, 33473, Note_on_c, 0, 79, 57
1, 33522, Note_off_c, 0, 79, 55
1, 33536, Note_on_c, 0, 81, 69
1, 33589, Note_off_c, 0, 81, 60
1, 33604, Note_on_c, 0, 82, 71
1, 33637, Note_off_c, 0, 82, 63
1, 33682, Note_on_c, 0, 84, 68
1, 33709, Note_off_c, 0, 57, 58
1, 33722, Note_off_c, 0, 84, 59
1, 33750, Note_on_c, 0, 86, 71
1, 33812, Note_off_c, 0, 86, 63
1, 33816, Note_on_c, 0, 88, 65
1, 33843, Note_off_c, 0, 88, 67
1, 33866, Note_on_c, 0, 89, 69
1, 33876, Control_c, 0, 67, 123
1, 33891, Control_c, 0, 67, 122
1, 33906, Control_c, 0, 67, 121
1, 33921, Control_c, 0, 67, 119
1, 33933, Note_off_c, 0, 89, 61
1, 33935, Note_on_c, 0, 88, 76
1, 33936, Control_c, 0, 67, 118
1, 33951, Control_c, 0, 67, 118
1, 33965, Control_c, 0, 67, 114
1, 33980, Control_c, 0, 67, 110
1, 33989, Note_off_c, 0, 88, 63
1, 33995, Control_c, 0, 67, 105
1, 34000, Note_on_c, 0, 86, 63
1, 34010, Control_c, 0, 67, 101
1, 34025, Control_c, 0, 67, 98
1, 34025, Note_off_c, 0, 86, 68
1, 34039, Control_c, 0, 67, 95
1, 34054, Control_c, 0, 64, 17
1, 34054, Control_c, 0, 67, 94
1, 34056, Note_on_c, 0, 84, 63
1, 34070, Control_c, 0, 64, 38
1, 34085, Control_c, 0, 64, 41
1, 34100, Control_c, 0, 64, 0
1, 34106, Note_off_c, 0, 84, 49
1, 34124, Note_on_c, 0, 82, 67
1, 34129, Control_c, 0, 67, 94
1, 34174, Control_c, 0, 67, 95
1, 34189, Note_on_c, 0, 81, 72
1, 34193, Note_off_c, 0, 82, 61
1, 34252, Note_off_c, 0, 81, 62
1, 34261, Note_on_c, 0, 79, 72
1, 34295, Note_off_c, 0, 79, 64
1, 34318, Note_on_c, 0, 77, 64
1, 34369, Note_off_c, 0, 77, 59
1, 34386, Note_on_c, 0, 76, 75
1, 34451, Note_on_c, 0, 74, 76
1, 34451, Note_off_c, 0, 76, 61
1, 34478, Control_c, 0, 67, 95
1, 34493, Note_off_c, 0, 74, 66
1, 34508, Control_c, 0, 67, 96
1, 34521, Note_on_c, 0, 72, 63
1, 34523, Control_c, 0, 64, 19
1, 34537, Control_c, 0, 64, 31
1, 34552, Control_c, 0, 64, 42
1, 34567, Control_c, 0, 64, 48
1, 34575, Note_on_c, 0, 70, 76
1, 34581, Control_c, 0, 64, 51
1, 34587, Note_off_c, 0, 72, 61
1, 34596, Control_c, 0, 64, 49
1, 34611, Control_c, 0, 64, 0
1, 34645, Note_on_c, 0, 69, 80
1, 34670, Control_c, 0, 67, 95
1, 34676, Note_off_c, 0, 70, 63
1, 34710, Note_on_c, 0, 67, 80
1, 34713, Note_off_c, 0, 69, 62
1, 34757, Note_off_c, 0, 67, 63
1, 34759, Control_c, 0, 67, 96
1, 34770, Note_on_c, 0, 65, 71
1, 34818, Control_c, 0, 67, 96
1, 34830, Note_off_c, 0, 65, 62
1, 34835, Note_on_c, 0, 64, 75
1, 34878, Control_c, 0, 67, 96
1, 34887, Note_on_c, 0, 62, 77
1, 34896, Note_off_c, 0, 64, 65
1, 34922, Control_c, 0, 64, 64
1, 34922, Control_c, 0, 67, 95
1, 34934, Note_off_c, 0, 62, 63
1, 34937, Control_c, 0, 64, 68
1, 34937, Control_c, 0, 67, 96
1, 34948, Note_on_c, 0, 60, 70
1, 34952, Control_c, 0, 64, 66
1, 34967, Control_c, 0, 64, 65
1, 34967, Control_c, 0, 67, 96
1, 34997, Control_c, 0, 67, 97
1, 35007, Note_on_c, 0, 58, 80
1, 35019, Note_off_c, 0, 60, 66
1, 35041, Control_c, 0, 67, 97
1, 35082, Note_on_c, 0, 57, 78
1, 35128, Note_off_c, 0, 58, 64
1, 35137, Control_c, 0, 67, 96
1, 35143, Note_on_c, 0, 55, 83
1, 35152, Control_c, 0, 64, 64
1, 35152, Control_c, 0, 67, 94
1, 35159, Note_off_c, 0, 57, 62
1, 35167, Control_c, 0, 64, 64
1, 35167, Control_c, 0, 67, 92
1, 35182, Control_c, 0, 67, 87
1, 35197, Control_c, 0, 67, 74
1, 35200, Note_off_c, 0, 55, 65
1, 35205, Note_on_c, 0, 53, 80
1, 35211, Control_c, 0, 67, 57
1, 35226, Control_c, 0, 64, 64
1, 35226, Control_c, 0, 67, 41
1, 35241, Control_c, 0, 67, 30
1, 35256, Control_c, 0, 67, 23
1, 35263, Note_off_c, 0, 53, 65
1, 35271, Control_c, 0, 64, 64
1, 35271, Control_c, 0, 67, 21
1, 35279, Note_on_c, 0, 52, 77
1, 35285, Control_c, 0, 67, 20
1, 35315, Control_c, 0, 64, 64
1, 35315, Control_c, 0, 67, 20
1, 35331, Note_on_c, 0, 50, 80
1, 35359, Note_off_c, 0, 52, 61
1, 35374, Control_c, 0, 64, 64
1, 35389, Control_c, 0, 64, 61
1, 35396, Note_on_c, 0, 48, 80
1, 35396, Note_off_c, 0, 50, 65
1, 35403, Control_c, 0, 64, 54
1, 35403, Control_c, 0, 67, 19
1, 35408, Note_on_c, 0, 45, 92
1, 35413, Note_on_c, 0, 33, 87
1, 35418, Control_c, 0, 64, 47
1, 35418, Control_c, 0, 67, 18
1, 35433, Control_c, 0, 64, 43
1, 35433, Control_c, 0, 67, 17
1, 35448, Control_c, 0, 64, 42
1, 35448, Control_c, 0, 67, 16
1, 35463, Control_c, 0, 64, 43
1, 35463, Control_c, 0, 67, 15
1, 35471, Note_off_c, 0, 48, 64
1, 35473, Note_on_c, 0, 50, 79
1, 35477, Control_c, 0, 64, 46
1, 35477, Control_c, 0, 67, 15
1, 35492, Control_c, 0, 64, 49
1, 35492, Control_c, 0, 67, 14
1, 35507, Control_c, 0, 64, 53
1, 35507, Control_c, 0, 67, 14
1, 35522, Control_c, 0, 64, 55
1, 35522, Control_c, 0, 67, 13
1, 35536, Control_c, 0, 64, 56
1, 35536, Control_c, 0, 67, 12
1, 35542, Note_on_c, 0, 52, 78
1, 35548, Note_off_c, 0, 50, 66
1, 35551, Control_c, 0, 64, 57
1, 35551, Control_c, 0, 67, 11
1, 35566, Control_c, 0, 64, 57
1, 35566, Control_c, 0, 67, 8
1, 35581, Control_c, 0, 67, 0
1, 35586, Note_off_c, 0, 52, 57
1, 35596, Control_c, 0, 64, 49
1, 35603, Note_on_c, 0, 53, 80
1, 35611, Control_c, 0, 64, 0
1, 35670, Note_off_c, 0, 53, 66
1, 35672, Note_on_c, 0, 55, 84
1, 35717, Note_on_c, 0, 56, 80
1, 35739, Note_off_c, 0, 55, 64
1, 35762, Note_on_c, 0, 57, 63
1, 35768, Note_off_c, 0, 56, 64
1, 35775, Note_on_c, 0, 58, 79
1, 35777, Note_off_c, 0, 33, 60
1, 35790, Note_off_c, 0, 45, 62
1, 35793, Note_off_c, 0, 57, 63
1, 35851, Note_on_c, 0, 60, 74
1, 35888, Note_off_c, 0, 58, 63
1, 35912, Note_on_c, 0, 46, 84
1, 35914, Note_on_c, 0, 34, 80
1, 35915, Note_off_c, 0, 60, 64
1, 35922, Note_on_c, 0, 50, 89
1, 35936, Note_off_c, 0, 46, 66
1, 35937, Note_off_c, 0, 34, 64
1, 36049, Note_off_c, 0, 50, 61
1, 36078, Note_on_c, 0, 62, 77
1, 36105, Note_off_c, 0, 62, 62
1, 36220, Note_on_c, 0, 43, 84
1, 36226, Note_on_c, 0, 31, 69
1, 36229, Note_on_c, 0, 62, 79
1, 36243, Note_off_c, 0, 43, 67
1, 36253, Note_off_c, 0, 31, 59
1, 36261, Note_off_c, 0, 62, 63
1, 36378, Note_on_c, 0, 62, 82
1, 36409, Note_off_c, 0, 62, 63
1, 36508, Note_on_c, 0, 52, 70
1, 36523, Note_on_c, 0, 48, 84
1, 36523, Note_on_c, 0, 36, 84
1, 36565, Note_off_c, 0, 52, 63
1, 36581, Note_on_c, 0, 53, 70
1, 36640, Note_on_c, 0, 55, 76
1, 36648, Note_off_c, 0, 53, 65
1, 36683, Note_off_c, 0, 55, 64
1, 36717, Note_on_c, 0, 57, 76
1, 36788, Note_off_c, 0, 57, 64
1, 36788, Note_on_c, 0, 58, 77
1, 36827, Note_off_c, 0, 36, 62
1, 36833, Note_on_c, 0, 39, 41
1, 36833, Note_off_c, 0, 48, 62
1, 36848, Note_on_c, 0, 60, 79
1, 36868, Note_off_c, 0, 58, 63
1, 36868, Note_off_c, 0, 39, 49
1, 36918, Note_on_c, 0, 62, 71
1, 36937, Note_off_c, 0, 60, 60
1, 36973, Note_on_c, 0, 64, 75
1, 37015, Note_off_c, 0, 62, 58
1, 37063, Note_on_c, 0, 50, 78
1, 37063, Note_off_c, 0, 64, 64
1, 37067, Note_on_c, 0, 38, 78
1, 37075, Note_on_c, 0, 53, 89
1, 37085, Note_off_c, 0, 50, 68
1, 37091, Note_off_c, 0, 38, 65
1, 37206, Note_off_c, 0, 53, 63
1, 37212, Control_c, 0, 64, 14
1, 37227, Note_on_c, 0, 65, 78
1, 37227, Control_c, 0, 64, 19
1, 37242, Control_c, 0, 64, 21
1, 37258, Control_c, 0, 64, 23
1, 37262, Note_off_c, 0, 65, 62
1, 37272, Control_c, 0, 64, 24
1, 37373, Note_on_c, 0, 46, 83
1, 37379, Note_on_c, 0, 34, 73
1, 37386, Note_on_c, 0, 65, 74
1, 37398, Note_off_c, 0, 46, 65
1, 37405, Note_off_c, 0, 34, 63
1, 37417, Note_off_c, 0, 65, 61
1, 37535, Note_on_c, 0, 65, 78
1, 37578, Note_off_c, 0, 65, 61
1, 37605, Control_c, 0, 64, 23
1, 37635, Control_c, 0, 64, 21
1, 37671, Note_on_c, 0, 55, 63
1, 37680, Control_c, 0, 64, 19
1, 37683, Note_on_c, 0, 52, 76
1, 37690, Note_on_c, 0, 40, 66
1, 37695, Control_c, 0, 64, 17
1, 37717, Note_on_c, 0, 38, 29
1, 37718, Note_off_c, 0, 38, 127
1, 37724, Control_c, 0, 64, 14
1, 37739, Note_off_c, 0, 55, 64
1, 37742, Note_on_c, 0, 57, 74
1, 37807, Note_on_c, 0, 58, 78
1, 37809, Note_off_c, 0, 57, 63
1, 37856, Note_off_c, 0, 58, 62
1, 37872, Control_c, 0, 64, 17
1, 37873, Note_on_c, 0, 60, 77
1, 37939, Note_off_c, 0, 60, 62
1, 37946, Note_on_c, 0, 62, 76
1, 37990, Note_off_c, 0, 40, 64
1, 38004, Note_on_c, 0, 64, 82
1, 38004, Note_off_c, 0, 52, 62
1, 38031, Note_off_c, 0, 62, 61
1, 38088, Note_on_c, 0, 65, 69
1, 38091, Note_off_c, 0, 64, 65
1, 38129, Note_on_c, 0, 67, 74
1, 38132, Control_c, 0, 64, 14
1, 38154, Note_off_c, 0, 65, 60
1, 38218, Note_off_c, 0, 67, 59
1, 38225, Note_on_c, 0, 57, 65
1, 38230, Note_on_c, 0, 53, 59
1, 38235, Note_on_c, 0, 41, 63
1, 38367, Note_off_c, 0, 57, 54
1, 38385, Note_on_c, 0, 69, 66
1, 38488, Control_c, 0, 64, 17
1, 38517, Control_c, 0, 64, 19
1, 38532, Note_on_c, 0, 43, 58
1, 38542, Note_off_c, 0, 69, 58
1, 38546, Note_on_c, 0, 58, 63
1, 38561, Control_c, 0, 64, 21
1, 38633, Note_off_c, 0, 41, 50
1, 38650, Control_c, 0, 64, 23
1, 38681, Note_on_c, 0, 70, 72
1, 38699, Note_off_c, 0, 58, 61
1, 38724, Control_c, 0, 64, 24
1, 38768, Control_c, 0, 64, 26
1, 38802, Note_off_c, 0, 70, 60
1, 38813, Control_c, 0, 64, 27
1, 38829, Note_on_c, 0, 59, 74
1, 38830, Note_on_c, 0, 44, 70
1, 38850, Control_c, 0, 64, 28
1, 38881, Control_c, 0, 64, 29
1, 38893, Note_off_c, 0, 43, 63
1, 38896, Control_c, 0, 64, 31
1, 38911, Control_c, 0, 64, 32
1, 38925, Control_c, 0, 64, 34
1, 38940, Control_c, 0, 64, 36
1, 38955, Control_c, 0, 64, 36
1, 38970, Control_c, 0, 64, 37
1, 38970, Note_off_c, 0, 59, 50
1, 38975, Note_on_c, 0, 71, 82
1, 38999, Control_c, 0, 64, 38
1, 39014, Control_c, 0, 64, 38
1, 39058, Control_c, 0, 64, 39
1, 39108, Note_on_c, 0, 45, 72
1, 39110, Note_on_c, 0, 60, 82
1, 39118, Note_off_c, 0, 44, 62
1, 39118, Control_c, 0, 64, 40
1, 39125, Note_off_c, 0, 71, 62
1, 39132, Control_c, 0, 64, 40
1, 39147, Control_c, 0, 64, 41
1, 39162, Control_c, 0, 64, 42
1, 39176, Control_c, 0, 64, 43
1, 39191, Control_c, 0, 64, 44
1, 39196, Note_off_c, 0, 53, 60
1, 39206, Control_c, 0, 64, 45
1, 39221, Control_c, 0, 64, 45
1, 39238, Note_off_c, 0, 60, 62
1, 39248, Note_on_c, 0, 72, 79
1, 39251, Control_c, 0, 64, 46
1, 39266, Control_c, 0, 64, 46
1, 39280, Control_c, 0, 64, 47
1, 39310, Control_c, 0, 64, 48
1, 39325, Control_c, 0, 64, 48
1, 39340, Control_c, 0, 64, 49
1, 39355, Control_c, 0, 64, 49
1, 39369, Control_c, 0, 64, 50
1, 39374, Note_on_c, 0, 46, 71
1, 39384, Note_on_c, 0, 55, 71
1, 39385, Note_on_c, 0, 61, 73
1, 39399, Control_c, 0, 64, 50
1, 39405, Note_off_c, 0, 72, 60
1, 39429, Control_c, 0, 64, 51
1, 39443, Control_c, 0, 64, 51
1, 39458, Control_c, 0, 64, 52
1, 39473, Control_c, 0, 64, 53
1, 39488, Control_c, 0, 64, 53
1, 39516, Note_off_c, 0, 45, 62
1, 39517, Control_c, 0, 64, 54
1, 39522, Note_off_c, 0, 46, 62
1, 39527, Note_on_c, 0, 73, 83
1, 39547, Control_c, 0, 64, 54
1, 39551, Note_off_c, 0, 61, 61
1, 39562, Control_c, 0, 64, 55
1, 39584, Control_c, 0, 64, 56
1, 39599, Control_c, 0, 64, 56
1, 39614, Control_c, 0, 64, 57
1, 39644, Control_c, 0, 64, 57
1, 39659, Note_off_c, 0, 73, 62
1, 39677, Note_on_c, 0, 47, 68
1, 39686, Note_on_c, 0, 56, 72
1, 39688, Note_on_c, 0, 62, 74
1, 39763, Control_c, 0, 64, 57
1, 39778, Control_c, 0, 64, 56
1, 39791, Note_off_c, 0, 55, 53
1, 39807, Control_c, 0, 64, 56
1, 39822, Control_c, 0, 64, 55
1, 39823, Note_off_c, 0, 47, 64
1, 39826, Note_on_c, 0, 74, 83
1, 39832, Note_off_c, 0, 62, 61
1, 39852, Control_c, 0, 64, 55
1, 39984, Note_on_c, 0, 65, 76
1, 39985, Note_on_c, 0, 48, 50
1, 40073, Control_c, 0, 64, 54
1, 40103, Control_c, 0, 64, 54
1, 40133, Control_c, 0, 64, 53
1, 40148, Note_off_c, 0, 74, 44
1, 40148, Control_c, 0, 64, 53
1, 40291, Note_on_c, 0, 57, 57
1, 40348, Control_c, 0, 64, 52
1, 40374, Note_off_c, 0, 56, 65
1, 40422, Control_c, 0, 64, 52
1, 40482, Control_c, 0, 64, 51
1, 40497, Control_c, 0, 64, 50
1, 40512, Control_c, 0, 64, 49
1, 40526, Control_c, 0, 64, 48
1, 40541, Control_c, 0, 64, 47
1, 40541, Control_c, 0, 67, 10
1, 40556, Control_c, 0, 64, 45
1, 40556, Control_c, 0, 67, 13
1, 40571, Control_c, 0, 64, 42
1, 40571, Control_c, 0, 67, 18
1, 40586, Control_c, 0, 64, 38
1, 40586, Control_c, 0, 67, 24
1, 40590, Note_on_c, 0, 58, 59
1, 40601, Control_c, 0, 64, 30
1, 40601, Control_c, 0, 67, 32
1, 40616, Control_c, 0, 64, 0
1, 40616, Control_c, 0, 67, 40
1, 40630, Control_c, 0, 67, 47
1, 40645, Control_c, 0, 67, 56
1, 40660, Control_c, 0, 67, 63
1, 40675, Control_c, 0, 67, 72
1, 40690, Control_c, 0, 67, 81
1, 40704, Control_c, 0, 67, 94
1, 40709, Note_off_c, 0, 57, 50
1, 40711, Note_off_c, 0, 48, 43
1, 40719, Control_c, 0, 67, 109
1, 40734, Control_c, 0, 67, 126
1, 40748, Control_c, 0, 67, 127
1, 40871, Note_on_c, 0, 48, 55
1, 40875, Note_off_c, 0, 65, 61
1, 40892, Note_on_c, 0, 69, 53
1, 40904, Note_on_c, 0, 64, 46
1, 40911, Control_c, 0, 64, 56
1, 40926, Control_c, 0, 64, 64
1, 40941, Control_c, 0, 64, 70
1, 40943, Note_off_c, 0, 48, 62
1, 40956, Control_c, 0, 64, 75
1, 40971, Control_c, 0, 64, 80
1, 40973, Note_off_c, 0, 58, 61
1, 40986, Control_c, 0, 64, 84
1, 41000, Control_c, 0, 64, 87
1, 41015, Control_c, 0, 64, 90
1, 41030, Control_c, 0, 64, 92
1, 41042, Note_on_c, 0, 67, 58
1, 41045, Control_c, 0, 64, 93
1, 41060, Control_c, 0, 64, 95
1, 41078, Note_off_c, 0, 64, 35
1, 41082, Control_c, 0, 64, 97
1, 41096, Control_c, 0, 64, 97
1, 41135, Note_off_c, 0, 69, 26
1, 41155, Control_c, 0, 64, 95
1, 41170, Control_c, 0, 64, 88
1, 41174, Note_off_c, 0, 67, 59
1, 41185, Control_c, 0, 64, 78
1, 41188, Note_on_c, 0, 57, 41
1, 41198, Note_on_c, 0, 65, 59
1, 41200, Control_c, 0, 64, 65
1, 41211, Note_on_c, 0, 53, 31
1, 41215, Control_c, 0, 64, 17
1, 41219, Note_off_c, 0, 65, 63
1, 41230, Control_c, 0, 64, 0
1, 41349, Note_off_c, 0, 57, 61
1, 41373, Note_off_c, 0, 53, 50
1, 41379, Note_on_c, 0, 77, 58
1, 41388, Note_on_c, 0, 60, 40
1, 41400, Note_off_c, 0, 77, 64
1, 41468, Note_off_c, 0, 60, 54
1, 41507, Note_on_c, 0, 77, 61
1, 41513, Note_on_c, 0, 62, 42
1, 41528, Note_off_c, 0, 77, 66
1, 41587, Note_off_c, 0, 62, 58
1, 41632, Note_on_c, 0, 77, 60
1, 41639, Note_on_c, 0, 60, 36
1, 41667, Note_off_c, 0, 77, 59
1, 41740, Note_off_c, 0, 60, 60
1, 41765, Note_on_c, 0, 77, 69
1, 41766, Note_on_c, 0, 58, 46
1, 41782, Note_off_c, 0, 77, 69
1, 41877, Note_off_c, 0, 58, 61
1, 41894, Note_on_c, 0, 77, 60
1, 41901, Note_on_c, 0, 57, 44
1, 41930, Note_off_c, 0, 77, 61
1, 41990, Note_off_c, 0, 57, 61
1, 42023, Note_on_c, 0, 79, 66
1, 42031, Note_on_c, 0, 55, 43
1, 42073, Note_off_c, 0, 79, 59
1, 42087, Note_on_c, 0, 77, 67
1, 42112, Note_off_c, 0, 77, 70
1, 42123, Note_off_c, 0, 55, 62
1, 42135, Note_on_c, 0, 76, 63
1, 42155, Note_on_c, 0, 53, 50
1, 42162, Note_off_c, 0, 76, 61
1, 42193, Note_on_c, 0, 77, 71
1, 42212, Note_off_c, 0, 77, 68
1, 42258, Note_off_c, 0, 53, 63
1, 42285, Note_on_c, 0, 52, 48
1, 42292, Note_on_c, 0, 84, 64
1, 42315, Note_on_c, 0, 72, 35
1, 42418, Note_off_c, 0, 52, 61
1, 42431, Note_on_c, 0, 48, 54
1, 42571, Note_on_c, 0, 50, 66
1, 42572, Note_off_c, 0, 48, 54
1, 42707, Note_on_c, 0, 52, 64
1, 42711, Note_on_c, 0, 82, 74
1, 42724, Note_off_c, 0, 50, 59
1, 42738, Note_off_c, 0, 72, 58
1, 42845, Note_on_c, 0, 53, 63
1, 42849, Note_off_c, 0, 52, 59
1, 42852, Note_on_c, 0, 81, 77
1, 42872, Note_off_c, 0, 84, 58
1, 42941, Note_off_c, 0, 82, 52
1, 42958, Note_off_c, 0, 53, 65
1, 42983, Note_on_c, 0, 55, 62
1, 42984, Note_on_c, 0, 79, 80
1, 43003, Note_off_c, 0, 81, 60
1, 43086, Note_off_c, 0, 55, 61
1, 43103, Note_off_c, 0, 79, 63
1, 43108, Note_on_c, 0, 57, 56
1, 43114, Note_on_c, 0, 77, 73
1, 43219, Note_off_c, 0, 57, 61
1, 43232, Note_off_c, 0, 77, 61
1, 43236, Note_on_c, 0, 76, 69
1, 43241, Note_on_c, 0, 58, 54
1, 43268, Note_off_c, 0, 76, 60
1, 43364, Note_off_c, 0, 58, 60
1, 43388, Note_on_c, 0, 57, 44
1, 43405, Note_on_c, 0, 77, 39
1, 43433, Note_off_c, 0, 77, 54
1, 43489, Note_off_c, 0, 57, 60
1, 43517, Note_on_c, 0, 77, 66
1, 43519, Note_on_c, 0, 60, 51
1, 43543, Note_off_c, 0, 77, 65
1, 43624, Note_off_c, 0, 60, 59
1, 43651, Note_on_c, 0, 62, 51
1, 43652, Note_on_c, 0, 77, 72
1, 43677, Note_off_c, 0, 77, 64
1, 43732, Note_off_c, 0, 62, 60
1, 43771, Note_on_c, 0, 60, 46
1, 43789, Note_on_c, 0, 77, 67
1, 43818, Note_off_c, 0, 77, 61
1, 43898, Note_off_c, 0, 60, 60
1, 43918, Note_on_c, 0, 58, 49
1, 43918, Note_on_c, 0, 77, 69
1, 43945, Note_off_c, 0, 77, 64
1, 44032, Note_off_c, 0, 58, 61
1, 44044, Note_on_c, 0, 77, 74
1, 44056, Note_on_c, 0, 57, 51
1, 44084, Note_off_c, 0, 77, 60
1, 44153, Note_off_c, 0, 57, 61
1, 44178, Note_on_c, 0, 79, 72
1, 44192, Note_on_c, 0, 55, 48
1, 44238, Note_off_c, 0, 79, 60
1, 44247, Note_on_c, 0, 77, 74
1, 44280, Note_off_c, 0, 77, 63
1, 44297, Note_off_c, 0, 55, 60
1, 44302, Note_on_c, 0, 76, 66
1, 44315, Note_on_c, 0, 53, 53
1, 44333, Note_off_c, 0, 76, 60
1, 44357, Note_on_c, 0, 77, 73
1, 44377, Note_off_c, 0, 77, 71
1, 44420, Note_off_c, 0, 53, 65
1, 44442, Note_on_c, 0, 52, 57
1, 44455, Note_on_c, 0, 84, 65
1, 44479, Note_on_c, 0, 72, 35
1, 44538, Control_c, 0, 67, 126
1, 44553, Control_c, 0, 67, 124
1, 44568, Control_c, 0, 67, 123
1, 44575, Note_off_c, 0, 52, 59
1, 44583, Control_c, 0, 67, 121
1, 44586, Note_on_c, 0, 48, 59
1, 44597, Control_c, 0, 67, 119
1, 44612, Control_c, 0, 67, 118
1, 44627, Control_c, 0, 67, 115
1, 44642, Control_c, 0, 67, 113
1, 44657, Control_c, 0, 67, 110
1, 44671, Control_c, 0, 67, 107
1, 44686, Control_c, 0, 67, 105
1, 44701, Control_c, 0, 67, 103
1, 44715, Control_c, 0, 67, 101
1, 44723, Note_on_c, 0, 50, 66
1, 44730, Control_c, 0, 67, 100
1, 44731, Note_off_c, 0, 48, 50
1, 44745, Control_c, 0, 67, 99
1, 44760, Control_c, 0, 67, 98
1, 44775, Control_c, 0, 67, 97
1, 44789, Control_c, 0, 67, 97
1, 44804, Control_c, 0, 67, 96
1, 44827, Control_c, 0, 67, 94
1, 44833, Note_off_c, 0, 72, 60
1, 44842, Control_c, 0, 67, 93
1, 44855, Note_on_c, 0, 82, 69
1, 44857, Control_c, 0, 67, 93
1, 44860, Note_on_c, 0, 52, 59
1, 44871, Control_c, 0, 67, 92
1, 44885, Note_off_c, 0, 50, 54
1, 44886, Control_c, 0, 67, 91
1, 44901, Control_c, 0, 67, 90
1, 44930, Control_c, 0, 67, 90
1, 44986, Note_on_c, 0, 81, 70
1, 44989, Note_off_c, 0, 52, 60
1, 44993, Note_on_c, 0, 53, 64
1, 44993, Note_off_c, 0, 84, 58
1, 45019, Control_c, 0, 67, 89
1, 45096, Note_off_c, 0, 53, 65
1, 45105, Note_off_c, 0, 82, 36
1, 45117, Note_on_c, 0, 55, 52
1, 45128, Note_on_c, 0, 79, 68
1, 45135, Note_off_c, 0, 81, 55
1, 45212, Control_c, 0, 67, 90
1, 45227, Note_off_c, 0, 79, 60
1, 45238, Note_off_c, 0, 55, 63
1, 45242, Control_c, 0, 67, 90
1, 45257, Control_c, 0, 67, 91
1, 45260, Note_on_c, 0, 57, 46
1, 45269, Note_on_c, 0, 77, 53
1, 45272, Control_c, 0, 67, 91
1, 45287, Control_c, 0, 67, 92
1, 45302, Control_c, 0, 67, 92
1, 45317, Control_c, 0, 67, 93
1, 45332, Control_c, 0, 67, 93
1, 45346, Control_c, 0, 67, 94
1, 45360, Control_c, 0, 67, 94
1, 45364, Note_off_c, 0, 57, 60
1, 45375, Control_c, 0, 67, 95
1, 45379, Note_off_c, 0, 77, 59
1, 45390, Control_c, 0, 67, 95
1, 45394, Note_on_c, 0, 58, 43
1, 45404, Note_on_c, 0, 76, 48
1, 45405, Control_c, 0, 67, 96
1, 45434, Control_c, 0, 67, 96
1, 45449, Control_c, 0, 67, 97
1, 45464, Control_c, 0, 67, 97
1, 45479, Control_c, 0, 67, 98
1, 45490, Note_off_c, 0, 76, 61
1, 45493, Control_c, 0, 67, 99
1, 45508, Control_c, 0, 67, 99
1, 45522, Note_off_c, 0, 58, 61
1, 45523, Control_c, 0, 67, 100
1, 45537, Control_c, 0, 67, 100
1, 45545, Note_on_c, 0, 57, 51
1, 45605, Control_c, 0, 67, 100
1, 45619, Control_c, 0, 67, 99
1, 45630, Note_on_c, 0, 77, 63
1, 45634, Control_c, 0, 67, 98
1, 45649, Control_c, 0, 67, 97
1, 45663, Control_c, 0, 67, 96
1, 45664, Note_off_c, 0, 77, 59
1, 45678, Control_c, 0, 67, 94
1, 45692, Note_on_c, 0, 79, 69
1, 45693, Control_c, 0, 67, 93
1, 45708, Control_c, 0, 67, 91
1, 45723, Control_c, 0, 67, 89
1, 45737, Control_c, 0, 67, 87
1, 45746, Note_on_c, 0, 81, 72
1, 45746, Note_off_c, 0, 79, 61
1, 45752, Control_c, 0, 67, 82
1, 45767, Control_c, 0, 67, 74
1, 45782, Note_off_c, 0, 57, 62
1, 45782, Control_c, 0, 67, 65
1, 45797, Note_on_c, 0, 82, 76
1, 45797, Note_off_c, 0, 81, 62
1, 45797, Control_c, 0, 67, 55
1, 45812, Control_c, 0, 67, 46
1, 45826, Control_c, 0, 67, 38
1, 45829, Note_off_c, 0, 82, 64
1, 45841, Control_c, 0, 67, 34
1, 45856, Control_c, 0, 67, 30
1, 45871, Note_on_c, 0, 84, 74
1, 45871, Control_c, 0, 67, 28
1, 45886, Control_c, 0, 67, 26
1, 45901, Control_c, 0, 67, 25
1, 45907, Note_off_c, 0, 84, 63
1, 45916, Control_c, 0, 67, 25
1, 45931, Control_c, 0, 64, 17
1, 45936, Note_on_c, 0, 86, 68
1, 45945, Control_c, 0, 64, 32
1, 45960, Control_c, 0, 64, 43
1, 45975, Control_c, 0, 64, 48
1, 45979, Note_on_c, 0, 88, 77
1, 45979, Note_off_c, 0, 86, 64
1, 45990, Control_c, 0, 64, 51
1, 46019, Control_c, 0, 64, 0
1, 46020, Note_off_c, 0, 88, 61
1, 46034, Control_c, 0, 67, 26
1, 46035, Note_on_c, 0, 89, 78
1, 46050, Control_c, 0, 67, 27
1, 46056, Note_off_c, 0, 89, 70
1, 46065, Control_c, 0, 67, 27
1, 46080, Control_c, 0, 67, 28
1, 46109, Control_c, 0, 67, 28
1, 46139, Control_c, 0, 67, 29
1, 46168, Control_c, 0, 67, 29
1, 46174, Note_on_c, 0, 84, 76
1, 46194, Note_off_c, 0, 84, 72
1, 46242, Control_c, 0, 67, 30
1, 46319, Note_on_c, 0, 81, 77
1, 46338, Note_off_c, 0, 81, 70
1, 46398, Control_c, 0, 67, 30
1, 46456, Note_on_c, 0, 77, 75
1, 46476, Note_off_c, 0, 77, 71
1, 46560, Control_c, 0, 67, 30
1, 46590, Note_on_c, 0, 72, 78
1, 46590, Control_c, 0, 67, 29
1, 46610, Note_off_c, 0, 72, 71
1, 46730, Note_on_c, 0, 69, 83
1, 46754, Control_c, 0, 64, 26
1, 46756, Note_off_c, 0, 69, 61
1, 46768, Control_c, 0, 64, 37
1, 46783, Control_c, 0, 64, 44
1, 46798, Control_c, 0, 64, 47
1, 46813, Control_c, 0, 64, 47
1, 46828, Control_c, 0, 64, 30
1, 46843, Control_c, 0, 64, 0
1, 46867, Note_on_c, 0, 65, 93
1, 46900, Note_off_c, 0, 65, 66
1, 46992, Control_c, 0, 67, 29
1, 46998, Note_on_c, 0, 60, 88
1, 47026, Note_off_c, 0, 60, 65
1, 47052, Control_c, 0, 67, 28
1, 47088, Control_c, 0, 67, 28
1, 47103, Control_c, 0, 67, 27
1, 47117, Control_c, 0, 67, 27
1, 47132, Control_c, 0, 67, 26
1, 47147, Control_c, 0, 67, 26
1, 47149, Note_on_c, 0, 57, 88
1, 47162, Control_c, 0, 64, 62
1, 47170, Note_on_c, 0, 55, 50
1, 47171, Note_off_c, 0, 55, 127
1, 47172, Note_off_c, 0, 57, 67
1, 47177, Control_c, 0, 64, 73
1, 47177, Control_c, 0, 67, 25
1, 47192, Control_c, 0, 64, 72
1, 47207, Control_c, 0, 64, 70
1, 47222, Control_c, 0, 64, 68
1, 47236, Control_c, 0, 64, 67
1, 47278, Note_on_c, 0, 53, 91
1, 47315, Note_off_c, 0, 53, 66
1, 47355, Control_c, 0, 67, 26
1, 47412, Note_on_c, 0, 48, 96
1, 47414, Control_c, 0, 67, 26
1, 47429, Control_c, 0, 64, 67
1, 47429, Control_c, 0, 67, 27
1, 47440, Note_off_c, 0, 48, 63
1, 47443, Control_c, 0, 64, 66
1, 47443, Control_c, 0, 67, 28
1, 47458, Control_c, 0, 64, 64
1, 47473, Control_c, 0, 64, 48
1, 47473, Control_c, 0, 67, 28
1, 47488, Control_c, 0, 64, 0
1, 47503, Control_c, 0, 67, 29
1, 47532, Control_c, 0, 67, 29
1, 47547, Control_c, 0, 67, 30
1, 47551, Note_on_c, 0, 45, 97
1, 47576, Note_off_c, 0, 45, 68
1, 47621, Control_c, 0, 67, 29
1, 47637, Control_c, 0, 67, 29
1, 47667, Control_c, 0, 67, 28
1, 47681, Control_c, 0, 67, 28
1, 47696, Control_c, 0, 67, 27
1, 47711, Control_c, 0, 67, 26
1, 47713, Note_on_c, 0, 51, 96
1, 47719, Note_on_c, 0, 39, 90
1, 47726, Control_c, 0, 67, 25
1, 47740, Control_c, 0, 67, 24
1, 47755, Control_c, 0, 67, 23
1, 47770, Control_c, 0, 67, 22
1, 47785, Control_c, 0, 67, 21
1, 47822, Control_c, 0, 67, 20
1, 47882, Control_c, 0, 67, 20
1, 48010, Note_on_c, 0, 48, 57
1, 48041, Note_off_c, 0, 48, 64
1, 48079, Note_on_c, 0, 53, 65
1, 48127, Note_off_c, 0, 53, 64
1, 48134, Control_c, 0, 67, 19
1, 48148, Control_c, 0, 67, 19
1, 48151, Note_on_c, 0, 57, 59
1, 48163, Control_c, 0, 67, 16
1, 48178, Control_c, 0, 67, 0
1, 48191, Note_off_c, 0, 57, 63
1, 48202, Note_on_c, 0, 60, 61
1, 48208, Control_c, 0, 64, 40
1, 48222, Control_c, 0, 64, 60
1, 48237, Control_c, 0, 64, 65
1, 48252, Control_c, 0, 64, 68
1, 48266, Control_c, 0, 64, 71
1, 48268, Note_on_c, 0, 53, 57
1, 48275, Note_off_c, 0, 60, 63
1, 48281, Control_c, 0, 64, 74
1, 48289, Note_off_c, 0, 51, 62
1, 48296, Control_c, 0, 64, 76
1, 48311, Control_c, 0, 64, 78
1, 48312, Note_off_c, 0, 53, 66
1, 48319, Note_off_c, 0, 39, 58
1, 48320, Note_on_c, 0, 57, 67
1, 48326, Control_c, 0, 64, 78
1, 48340, Control_c, 0, 64, 79
1, 48355, Control_c, 0, 64, 80
1, 48370, Control_c, 0, 64, 81
1, 48378, Note_off_c, 0, 57, 63
1, 48381, Note_on_c, 0, 60, 65
1, 48385, Control_c, 0, 64, 82
1, 48400, Control_c, 0, 64, 83
1, 48414, Control_c, 0, 64, 85
1, 48421, Note_off_c, 0, 60, 61
1, 48430, Control_c, 0, 64, 86
1, 48444, Note_on_c, 0, 65, 63
1, 48460, Control_c, 0, 64, 85
1, 48471, Note_on_c, 0, 64, 39
1, 48475, Control_c, 0, 64, 77
1, 48490, Control_c, 0, 64, 62
1, 48495, Note_off_c, 0, 65, 60
1, 48503, Note_off_c, 0, 64, 33
1, 48504, Control_c, 0, 64, 0
1, 48505, Note_on_c, 0, 51, 80
1, 48509, Note_on_c, 0, 39, 74
1, 48512, Note_on_c, 0, 57, 66
1, 48571, Control_c, 0, 64, 55
1, 48573, Note_off_c, 0, 57, 59
1, 48586, Control_c, 0, 64, 69
1, 48593, Note_on_c, 0, 60, 70
1, 48601, Control_c, 0, 64, 79
1, 48616, Control_c, 0, 64, 92
1, 48631, Control_c, 0, 64, 100
1, 48643, Note_on_c, 0, 65, 63
1, 48645, Control_c, 0, 64, 107
1, 48649, Note_off_c, 0, 60, 62
1, 48660, Control_c, 0, 64, 112
1, 48675, Control_c, 0, 64, 119
1, 48676, Note_off_c, 0, 51, 63
1, 48689, Control_c, 0, 64, 127
1, 48712, Note_off_c, 0, 65, 62
1, 48727, Note_on_c, 0, 69, 59
1, 48750, Note_off_c, 0, 69, 61
1, 48778, Control_c, 0, 64, 121
1, 48793, Control_c, 0, 64, 93
1, 48804, Note_on_c, 0, 38, 69
1, 48804, Note_on_c, 0, 50, 78
1, 48808, Control_c, 0, 64, 70
1, 48809, Note_on_c, 0, 58, 64
1, 48823, Control_c, 0, 64, 0
1, 48863, Note_off_c, 0, 38, 64
1, 48864, Note_on_c, 0, 62, 70
1, 48869, Note_off_c, 0, 39, 31
1, 48872, Note_off_c, 0, 58, 63
1, 48875, Note_off_c, 0, 50, 64
1, 48897, Control_c, 0, 64, 27
1, 48912, Control_c, 0, 64, 36
1, 48927, Control_c, 0, 64, 34
1, 48936, Note_off_c, 0, 62, 62
1, 48941, Note_on_c, 0, 65, 67
1, 48942, Control_c, 0, 64, 31
1, 48956, Control_c, 0, 64, 0
1, 48987, Note_on_c, 0, 70, 72
1, 48995, Note_off_c, 0, 65, 63
1, 49070, Note_on_c, 0, 57, 74
1, 49071, Note_on_c, 0, 60, 66
1, 49073, Note_on_c, 0, 45, 76
1, 49075, Control_c, 0, 64, 43
1, 49082, Note_off_c, 0, 70, 60
1, 49089, Control_c, 0, 64, 66
1, 49103, Control_c, 0, 64, 72
1, 49118, Control_c, 0, 64, 80
1, 49133, Control_c, 0, 64, 88
1, 49138, Note_on_c, 0, 63, 67
1, 49140, Note_off_c, 0, 60, 60
1, 49148, Control_c, 0, 64, 97
1, 49162, Control_c, 0, 64, 106
1, 49177, Control_c, 0, 64, 117
1, 49192, Control_c, 0, 64, 127
1, 49194, Note_off_c, 0, 57, 63
1, 49197, Note_off_c, 0, 63, 61
1, 49207, Note_on_c, 0, 65, 52
1, 49250, Note_off_c, 0, 65, 59
1, 49269, Note_on_c, 0, 72, 68
1, 49347, Note_on_c, 0, 50, 37
1, 49363, Note_on_c, 0, 46, 74
1, 49368, Note_off_c, 0, 45, 50
1, 49371, Note_on_c, 0, 62, 62
1, 49374, Note_on_c, 0, 58, 85
1, 49374, Note_off_c, 0, 72, 61
1, 49396, Note_off_c, 0, 50, 62
1, 49418, Note_on_c, 0, 65, 68
1, 49423, Control_c, 0, 64, 108
1, 49429, Note_off_c, 0, 62, 56
1, 49438, Control_c, 0, 64, 93
1, 49453, Control_c, 0, 64, 81
1, 49467, Control_c, 0, 64, 69
1, 49481, Note_off_c, 0, 58, 65
1, 49482, Control_c, 0, 64, 55
1, 49489, Note_on_c, 0, 70, 76
1, 49493, Note_off_c, 0, 65, 62
1, 49497, Control_c, 0, 64, 0
1, 49529, Note_off_c, 0, 46, 63
1, 49556, Note_off_c, 0, 70, 65
1, 49559, Note_on_c, 0, 74, 80
1, 49632, Note_on_c, 0, 64, 71
1, 49639, Note_on_c, 0, 43, 80
1, 49641, Note_on_c, 0, 55, 78
1, 49645, Note_off_c, 0, 74, 64
1, 49660, Control_c, 0, 64, 63
1, 49675, Control_c, 0, 64, 70
1, 49690, Control_c, 0, 64, 77
1, 49705, Control_c, 0, 64, 88
1, 49706, Note_on_c, 0, 70, 71
1, 49719, Note_off_c, 0, 64, 59
1, 49719, Control_c, 0, 64, 103
1, 49734, Control_c, 0, 64, 127
1, 49776, Note_on_c, 0, 72, 80
1, 49779, Note_off_c, 0, 70, 63
1, 49813, Note_off_c, 0, 55, 63
1, 49825, Note_off_c, 0, 43, 64
1, 49839, Note_on_c, 0, 76, 79
1, 49842, Note_off_c, 0, 72, 62
1, 49907, Note_on_c, 0, 65, 81
1, 49916, Note_on_c, 0, 57, 85
1, 49917, Note_on_c, 0, 45, 83
1, 49920, Note_off_c, 0, 76, 61
1, 49941, Control_c, 0, 64, 103
1, 49956, Control_c, 0, 64, 77
1, 49967, Note_on_c, 0, 69, 71
1, 49971, Control_c, 0, 64, 0
1, 49977, Note_off_c, 0, 65, 62
1, 50012, Note_off_c, 0, 57, 63
1, 50039, Note_on_c, 0, 72, 79
1, 50044, Note_off_c, 0, 69, 63
1, 50068, Note_off_c, 0, 45, 65
1, 50104, Note_off_c, 0, 72, 65
1, 50109, Note_on_c, 0, 77, 75
1, 50183, Note_on_c, 0, 40, 77
1, 50184, Note_on_c, 0, 67, 74
1, 50187, Control_c, 0, 64, 46
1, 50189, Note_on_c, 0, 52, 74
1, 50202, Control_c, 0, 64, 69
1, 50208, Note_off_c, 0, 77, 56
1, 50216, Control_c, 0, 64, 73
1, 50231, Control_c, 0, 64, 82
1, 50246, Control_c, 0, 64, 92
1, 50250, Note_on_c, 0, 70, 78
1, 50260, Control_c, 0, 64, 104
1, 50271, Note_off_c, 0, 67, 55
1, 50275, Control_c, 0, 64, 127
1, 50312, Note_on_c, 0, 72, 73
1, 50325, Note_off_c, 0, 70, 62
1, 50362, Note_off_c, 0, 40, 64
1, 50362, Note_off_c, 0, 52, 62
1, 50363, Note_off_c, 0, 72, 63
1, 50366, Note_on_c, 0, 79, 80
1, 50453, Control_c, 0, 64, 107
1, 50456, Note_on_c, 0, 69, 82
1, 50458, Note_off_c, 0, 79, 55
1, 50466, Note_on_c, 0, 41, 87
1, 50466, Note_on_c, 0, 53, 94
1, 50468, Control_c, 0, 64, 76
1, 50483, Control_c, 0, 64, 0
1, 50507, Note_on_c, 0, 72, 75
1, 50524, Note_off_c, 0, 69, 61
1, 50527, Control_c, 0, 64, 60
1, 50542, Control_c, 0, 64, 70
1, 50557, Control_c, 0, 64, 83
1, 50572, Control_c, 0, 64, 106
1, 50577, Note_off_c, 0, 53, 66
1, 50587, Control_c, 0, 64, 127
1, 50591, Note_on_c, 0, 77, 83
1, 50606, Note_off_c, 0, 72, 63
1, 50628, Note_off_c, 0, 41, 62
1, 50653, Note_on_c, 0, 81, 83
1, 50665, Note_off_c, 0, 77, 61
1, 50727, Note_on_c, 0, 71, 83
1, 50735, Control_c, 0, 64, 88
1, 50739, Note_on_c, 0, 38, 90
1, 50739, Note_on_c, 0, 50, 88
1, 50741, Note_off_c, 0, 81, 62
1, 50750, Control_c, 0, 64, 56
1, 50765, Control_c, 0, 64, 0
1, 50817, Control_c, 0, 64, 60
1, 50820, Note_on_c, 0, 77, 78
1, 50832, Control_c, 0, 64, 73
1, 50840, Note_off_c, 0, 71, 64
1, 50847, Control_c, 0, 64, 88
1, 50849, Note_off_c, 0, 50, 65
1, 50862, Control_c, 0, 64, 116
1, 50876, Note_off_c, 0, 38, 64
1, 50877, Note_on_c, 0, 79, 85
1, 50877, Control_c, 0, 64, 127
1, 50904, Note_off_c, 0, 77, 61
1, 50929, Note_on_c, 0, 83, 82
1, 50939, Note_off_c, 0, 79, 63
1, 51023, Note_off_c, 0, 83, 64
1, 51059, Note_on_c, 0, 72, 80
1, 51071, Note_on_c, 0, 36, 67
1, 51072, Note_on_c, 0, 48, 67
1, 51144, Control_c, 0, 64, 112
1, 51158, Control_c, 0, 64, 100
1, 51173, Control_c, 0, 64, 91
1, 51188, Control_c, 0, 64, 83
1, 51203, Control_c, 0, 64, 77
1, 51214, Note_on_c, 0, 77, 75
1, 51218, Control_c, 0, 64, 71
1, 51232, Control_c, 0, 64, 66
1, 51237, Note_off_c, 0, 72, 60
1, 51247, Control_c, 0, 64, 60
1, 51262, Control_c, 0, 64, 56
1, 51276, Control_c, 0, 64, 53
1, 51291, Control_c, 0, 64, 50
1, 51306, Control_c, 0, 64, 47
1, 51321, Note_on_c, 0, 81, 80
1, 51321, Control_c, 0, 64, 43
1, 51336, Control_c, 0, 64, 40
1, 51349, Control_c, 0, 64, 36
1, 51362, Note_off_c, 0, 77, 61
1, 51364, Control_c, 0, 64, 32
1, 51379, Control_c, 0, 64, 28
1, 51394, Control_c, 0, 64, 21
1, 51409, Control_c, 0, 64, 0
1, 51440, Note_on_c, 0, 84, 77
1, 51443, Note_off_c, 0, 81, 65
1, 51532, Note_on_c, 0, 82, 81
1, 51606, Note_off_c, 0, 84, 62
1, 51633, Note_on_c, 0, 81, 86
1, 51705, Note_off_c, 0, 82, 61
1, 51729, Note_on_c, 0, 79, 87
1, 51760, Note_off_c, 0, 81, 63
1, 51806, Note_off_c, 0, 79, 64
1, 51812, Note_on_c, 0, 77, 83
1, 51893, Note_on_c, 0, 76, 87
1, 51902, Note_off_c, 0, 77, 63
1, 51975, Note_on_c, 0, 74, 88
1, 52001, Note_off_c, 0, 76, 63
1, 52044, Note_off_c, 0, 74, 67
1, 52048, Note_on_c, 0, 72, 79
1, 52060, Note_off_c, 0, 36, 61
1, 52093, Note_off_c, 0, 48, 63
1, 52131, Note_off_c, 0, 72, 64
1, 52132, Note_on_c, 0, 71, 78
1, 52196, Note_off_c, 0, 71, 66
1, 52209, Note_on_c, 0, 72, 81
1, 52277, Note_off_c, 0, 72, 62
1, 52307, Note_on_c, 0, 77, 67
1, 52405, Note_on_c, 0, 74, 64
1, 52408, Note_off_c, 0, 77, 55
1, 52479, Note_on_c, 0, 60, 42
1, 52480, Note_on_c, 0, 68, 46
1, 52487, Note_off_c, 0, 74, 60
1, 52500, Note_on_c, 0, 71, 58
1, 52587, Note_off_c, 0, 71, 59
1, 52599, Note_on_c, 0, 77, 58
1, 52679, Note_on_c, 0, 74, 69
1, 52724, Note_off_c, 0, 77, 60
1, 52748, Note_on_c, 0, 69, 55
1, 52767, Note_on_c, 0, 72, 72
1, 52780, Note_off_c, 0, 74, 65
1, 52801, Note_off_c, 0, 68, 49
1, 52847, Note_on_c, 0, 77, 69
1, 52856, Note_off_c, 0, 72, 64
1, 52870, Note_off_c, 0, 69, 57
1, 52881, Note_off_c, 0, 60, 63
1, 52940, Note_on_c, 0, 74, 74
1, 52978, Note_off_c, 0, 77, 60
1, 53034, Note_on_c, 0, 71, 69
1, 53039, Note_off_c, 0, 74, 62
1, 53042, Note_on_c, 0, 68, 48
1, 53044, Note_on_c, 0, 60, 39
1, 53123, Note_off_c, 0, 71, 61
1, 53137, Note_on_c, 0, 77, 55
1, 53165, Control_c, 0, 67, 10
1, 53180, Control_c, 0, 67, 13
1, 53195, Control_c, 0, 67, 16
1, 53210, Control_c, 0, 67, 21
1, 53225, Control_c, 0, 67, 26
1, 53235, Note_on_c, 0, 74, 61
1, 53240, Control_c, 0, 67, 33
1, 53255, Control_c, 0, 67, 41
1, 53270, Control_c, 0, 67, 48
1, 53276, Note_off_c, 0, 77, 55
1, 53285, Control_c, 0, 67, 55
1, 53300, Control_c, 0, 67, 62
1, 53315, Control_c, 0, 67, 72
1, 53317, Note_on_c, 0, 69, 46
1, 53326, Note_off_c, 0, 74, 62
1, 53327, Note_on_c, 0, 72, 57
1, 53329, Control_c, 0, 67, 80
1, 53333, Note_off_c, 0, 68, 50
1, 53344, Control_c, 0, 67, 87
1, 53359, Control_c, 0, 67, 94
1, 53374, Control_c, 0, 67, 100
1, 53379, Note_off_c, 0, 72, 60
1, 53389, Control_c, 0, 67, 106
1, 53404, Control_c, 0, 67, 111
1, 53419, Control_c, 0, 67, 116
1, 53426, Note_on_c, 0, 77, 50
1, 53433, Control_c, 0, 67, 121
1, 53448, Control_c, 0, 67, 125
1, 53463, Control_c, 0, 67, 127
1, 53511, Note_on_c, 0, 74, 62
1, 53529, Note_off_c, 0, 77, 49
1, 53593, Note_off_c, 0, 74, 63
1, 53616, Note_on_c, 0, 71, 54
1, 53626, Note_off_c, 0, 69, 51
1, 53663, Note_off_c, 0, 71, 57
1, 53693, Note_on_c, 0, 77, 46
1, 53732, Note_off_c, 0, 60, 58
1, 53791, Note_off_c, 0, 77, 58
1, 53805, Note_on_c, 0, 74, 53
1, 53878, Note_off_c, 0, 74, 64
1, 53900, Note_on_c, 0, 72, 56
1, 53969, Note_off_c, 0, 72, 60
1, 53991, Note_on_c, 0, 71, 63
1, 54049, Control_c, 0, 67, 126
1, 54062, Note_off_c, 0, 71, 65
1, 54064, Control_c, 0, 67, 125
1, 54079, Control_c, 0, 67, 123
1, 54081, Note_on_c, 0, 72, 71
1, 54094, Control_c, 0, 67, 122
1, 54108, Control_c, 0, 67, 120
1, 54123, Control_c, 0, 67, 117
1, 54138, Control_c, 0, 67, 113
1, 54153, Control_c, 0, 64, 11
1, 54153, Control_c, 0, 67, 109
1, 54166, Note_on_c, 0, 73, 76
1, 54168, Control_c, 0, 64, 17
1, 54168, Control_c, 0, 67, 103
1, 54169, Note_off_c, 0, 72, 62
1, 54182, Control_c, 0, 64, 21
1, 54182, Control_c, 0, 67, 97
1, 54197, Control_c, 0, 64, 23
1, 54197, Control_c, 0, 67, 91
1, 54212, Control_c, 0, 64, 24
1, 54212, Control_c, 0, 67, 82
1, 54227, Control_c, 0, 64, 27
1, 54227, Control_c, 0, 67, 74
1, 54242, Control_c, 0, 64, 29
1, 54242, Control_c, 0, 67, 66
1, 54245, Note_off_c, 0, 73, 63
1, 54250, Note_on_c, 0, 74, 81
1, 54256, Control_c, 0, 64, 32
1, 54256, Control_c, 0, 67, 57
1, 54271, Control_c, 0, 64, 35
1, 54271, Control_c, 0, 67, 50
1, 54286, Control_c, 0, 64, 37
1, 54286, Control_c, 0, 67, 45
1, 54301, Control_c, 0, 64, 38
1, 54301, Control_c, 0, 67, 40
1, 54316, Control_c, 0, 67, 37
1, 54331, Control_c, 0, 64, 38
1, 54331, Control_c, 0, 67, 33
1, 54331, Note_on_c, 0, 70, 77
1, 54346, Control_c, 0, 64, 19
1, 54346, Control_c, 0, 67, 30
1, 54361, Control_c, 0, 64, 0
1, 54361, Control_c, 0, 67, 28
1, 54364, Note_off_c, 0, 74, 57
1, 54375, Control_c, 0, 67, 26
1, 54390, Control_c, 0, 67, 24
1, 54405, Control_c, 0, 67, 22
1, 54419, Control_c, 0, 67, 20
1, 54430, Note_off_c, 0, 70, 62
1, 54434, Control_c, 0, 67, 18
1, 54444, Note_on_c, 0, 67, 68
1, 54449, Control_c, 0, 67, 16
1, 54464, Control_c, 0, 67, 14
1, 54479, Control_c, 0, 67, 12
1, 54493, Control_c, 0, 67, 10
1, 54508, Control_c, 0, 67, 8
1, 54523, Control_c, 0, 64, 47
1, 54523, Control_c, 0, 67, 0
1, 54525, Note_off_c, 0, 67, 55
1, 54538, Control_c, 0, 64, 62
1, 54561, Control_c, 0, 64, 67
1, 54564, Note_on_c, 0, 69, 61
1, 54575, Control_c, 0, 64, 72
1, 54590, Control_c, 0, 64, 78
1, 54602, Note_off_c, 0, 69, 59
1, 54605, Control_c, 0, 64, 89
1, 54620, Control_c, 0, 64, 99
1, 54634, Control_c, 0, 64, 117
1, 54642, Note_on_c, 0, 67, 64
1, 54649, Control_c, 0, 64, 127
1, 54676, Note_off_c, 0, 67, 61
1, 54684, Note_on_c, 0, 69, 69
1, 54710, Note_off_c, 0, 69, 66
1, 54740, Note_on_c, 0, 67, 68
1, 54769, Note_off_c, 0, 67, 63
1, 54786, Note_on_c, 0, 69, 75
1, 54818, Note_off_c, 0, 69, 55
1, 54844, Note_on_c, 0, 67, 69
1, 54893, Note_on_c, 0, 69, 73
1, 54895, Note_off_c, 0, 67, 60
1, 54930, Note_off_c, 0, 69, 55
1, 54948, Note_on_c, 0, 67, 60
1, 54991, Note_off_c, 0, 67, 56
1, 54999, Note_on_c, 0, 69, 60
1, 55028, Note_off_c, 0, 69, 66
1, 55046, Note_on_c, 0, 67, 59
1, 55099, Note_off_c, 0, 67, 59
1, 55117, Note_on_c, 0, 69, 60
1, 55139, Note_off_c, 0, 69, 69
1, 55168, Note_on_c, 0, 67, 65
1, 55201, Note_off_c, 0, 67, 63
1, 55215, Note_on_c, 0, 69, 69
1, 55240, Note_off_c, 0, 69, 63
1, 55271, Note_on_c, 0, 67, 73
1, 55324, Note_off_c, 0, 67, 61
1, 55329, Note_on_c, 0, 69, 74
1, 55362, Note_off_c, 0, 69, 53
1, 55389, Note_on_c, 0, 67, 73
1, 55434, Note_off_c, 0, 67, 63
1, 55438, Note_on_c, 0, 69, 71
1, 55478, Note_off_c, 0, 69, 57
1, 55499, Note_on_c, 0, 67, 77
1, 55547, Note_off_c, 0, 67, 63
1, 55556, Note_on_c, 0, 69, 70
1, 55609, Note_off_c, 0, 69, 60
1, 55615, Note_on_c, 0, 67, 80
1, 55676, Note_off_c, 0, 67, 59
1, 55684, Note_on_c, 0, 69, 68
1, 55762, Note_off_c, 0, 69, 59
1, 55785, Note_on_c, 0, 67, 66
1, 55800, Note_on_c, 0, 60, 82
1, 55804, Note_on_c, 0, 48, 73
1, 55807, Note_on_c, 0, 52, 68
1, 55839, Note_off_c, 0, 67, 60
1, 55845, Note_on_c, 0, 69, 67
1, 55916, Note_off_c, 0, 69, 60
1, 55937, Note_on_c, 0, 67, 70
1, 55942, Note_off_c, 0, 60, 66
1, 55973, Note_off_c, 0, 52, 57
1, 55978, Note_off_c, 0, 48, 62
1, 55984, Note_off_c, 0, 67, 58
1, 55992, Note_on_c, 0, 69, 70
1, 56074, Note_off_c, 0, 69, 59
1, 56092, Note_on_c, 0, 67, 76
1, 56102, Control_c, 0, 64, 113
1, 56114, Note_on_c, 0, 59, 86
1, 56114, Note_on_c, 0, 48, 74
1, 56117, Control_c, 0, 64, 86
1, 56124, Note_on_c, 0, 52, 72
1, 56131, Control_c, 0, 64, 77
1, 56146, Control_c, 0, 64, 77
1, 56148, Note_off_c, 0, 67, 58
1, 56161, Control_c, 0, 64, 80
1, 56161, Note_on_c, 0, 69, 65
1, 56176, Control_c, 0, 64, 87
1, 56176, Note_off_c, 0, 59, 63
1, 56191, Control_c, 0, 64, 103
1, 56191, Note_off_c, 0, 48, 55
1, 56197, Note_off_c, 0, 52, 63
1, 56203, Note_off_c, 0, 69, 53
1, 56205, Control_c, 0, 64, 127
1, 56227, Note_on_c, 0, 67, 65
1, 56282, Note_off_c, 0, 67, 56
1, 56293, Note_on_c, 0, 69, 68
1, 56326, Note_off_c, 0, 69, 58
1, 56364, Note_on_c, 0, 67, 55
1, 56390, Note_on_c, 0, 58, 84
1, 56392, Note_on_c, 0, 48, 66
1, 56396, Note_on_c, 0, 69, 69
1, 56399, Note_on_c, 0, 52, 70
1, 56406, Note_off_c, 0, 67, 0
1, 56412, Control_c, 0, 64, 90
1, 56424, Note_off_c, 0, 69, 64
1, 56429, Control_c, 0, 64, 73
1, 56437, Note_off_c, 0, 48, 63
1, 56439, Note_off_c, 0, 58, 64
1, 56444, Control_c, 0, 64, 67
1, 56445, Poly_aftertouch_c, 0, 67, 127
1, 56456, Note_off_c, 0, 52, 63
1, 56458, Control_c, 0, 64, 70
1, 56473, Control_c, 0, 64, 76
1, 56479, Poly_aftertouch_c, 0, 67, 0
1, 56488, Control_c, 0, 64, 87
1, 56491, Note_on_c, 0, 69, 64
1, 56502, Control_c, 0, 64, 103
1, 56517, Control_c, 0, 64, 127
1, 56540, Note_off_c, 0, 69, 63
1, 56563, Note_on_c, 0, 67, 57
1, 56589, Note_off_c, 0, 67, 62
1, 56591, Note_on_c, 0, 65, 65
1, 56624, Note_off_c, 0, 65, 63
1, 56644, Note_on_c, 0, 67, 66
1, 56679, Note_on_c, 0, 57, 69
1, 56681, Control_c, 0, 64, 81
1, 56686, Note_on_c, 0, 53, 67
1, 56695, Control_c, 0, 64, 0
1, 56696, Note_off_c, 0, 67, 62
1, 56697, Note_on_c, 0, 65, 69
1, 56707, Note_off_c, 0, 57, 67
1, 56710, Control_c, 0, 67, 8
1, 56714, Note_off_c, 0, 53, 66
1, 56725, Control_c, 0, 67, 15
1, 56740, Control_c, 0, 67, 25
1, 56755, Control_c, 0, 67, 37
1, 56769, Control_c, 0, 67, 49
1, 56784, Control_c, 0, 67, 58
1, 56807, Control_c, 0, 67, 65
1, 56821, Control_c, 0, 67, 68
1, 56836, Control_c, 0, 67, 68
1, 56839, Note_on_c, 0, 60, 64
1, 56856, Note_off_c, 0, 65, 58
1, 56862, Note_off_c, 0, 60, 66
1, 56940, Control_c, 0, 67, 67
1, 56955, Control_c, 0, 67, 66
1, 56969, Control_c, 0, 67, 65
1, 56974, Note_on_c, 0, 53, 61
1, 56984, Control_c, 0, 67, 65
1, 56996, Note_off_c, 0, 53, 62
1, 56999, Control_c, 0, 67, 64
1, 57014, Control_c, 0, 67, 64
1, 57044, Control_c, 0, 67, 63
1, 57059, Control_c, 0, 67, 63
1, 57073, Control_c, 0, 67, 62
1, 57088, Control_c, 0, 67, 61
1, 57103, Control_c, 0, 67, 61
1, 57109, Note_on_c, 0, 65, 61
1, 57138, Note_off_c, 0, 65, 65
1, 57163, Control_c, 0, 67, 60
1, 57192, Control_c, 0, 67, 60
1, 57207, Control_c, 0, 67, 59
1, 57222, Control_c, 0, 67, 59
1, 57232, Note_on_c, 0, 53, 74
1, 57252, Control_c, 0, 67, 59
1, 57257, Note_off_c, 0, 53, 68
1, 57267, Control_c, 0, 67, 60
1, 57282, Control_c, 0, 67, 61
1, 57297, Control_c, 0, 67, 61
1, 57312, Control_c, 0, 67, 62
1, 57341, Control_c, 0, 67, 62
1, 57364, Note_on_c, 0, 65, 56
1, 57389, Note_off_c, 0, 65, 64
1, 57474, Control_c, 0, 67, 62
1, 57489, Control_c, 0, 67, 61
1, 57498, Note_on_c, 0, 53, 62
1, 57504, Control_c, 0, 67, 61
1, 57520, Note_off_c, 0, 53, 65
1, 57533, Control_c, 0, 67, 60
1, 57571, Control_c, 0, 67, 60
1, 57615, Control_c, 0, 67, 59
1, 57629, Note_on_c, 0, 84, 71
1, 57637, Note_on_c, 0, 65, 55
1, 57658, Note_off_c, 0, 65, 62
1, 57685, Note_off_c, 0, 84, 59
1, 57704, Control_c, 0, 67, 60
1, 57776, Note_on_c, 0, 81, 67
1, 57778, Control_c, 0, 67, 60
1, 57784, Note_on_c, 0, 53, 57
1, 57786, Note_on_c, 0, 75, 55
1, 57807, Note_off_c, 0, 53, 62
1, 57822, Control_c, 0, 67, 61
1, 57866, Control_c, 0, 67, 61
1, 57911, Control_c, 0, 67, 62
1, 57919, Note_on_c, 0, 65, 57
1, 57944, Note_off_c, 0, 65, 64
1, 57985, Control_c, 0, 67, 61
1, 58000, Control_c, 0, 67, 61
1, 58015, Control_c, 0, 67, 60
1, 58030, Control_c, 0, 67, 59
1, 58045, Control_c, 0, 67, 59
1, 58047, Note_on_c, 0, 53, 62
1, 58060, Control_c, 0, 67, 58
1, 58071, Note_off_c, 0, 53, 65
1, 58090, Control_c, 0, 67, 58
1, 58135, Control_c, 0, 67, 57
1, 58164, Note_on_c, 0, 82, 66
1, 58167, Note_off_c, 0, 75, 62
1, 58174, Note_off_c, 0, 81, 62
1, 58175, Note_on_c, 0, 65, 57
1, 58184, Note_on_c, 0, 74, 56
1, 58189, Note_off_c, 0, 82, 69
1, 58197, Note_off_c, 0, 65, 62
1, 58205, Note_off_c, 0, 74, 64
1, 58209, Control_c, 0, 67, 58
1, 58325, Note_on_c, 0, 53, 59
1, 58329, Note_on_c, 0, 79, 70
1, 58334, Note_on_c, 0, 70, 60
1, 58347, Note_off_c, 0, 53, 63
1, 58394, Control_c, 0, 67, 58
1, 58408, Control_c, 0, 67, 58
1, 58438, Control_c, 0, 67, 57
1, 58453, Control_c, 0, 67, 57
1, 58454, Note_on_c, 0, 65, 61
1, 58482, Note_off_c, 0, 65, 67
1, 58482, Control_c, 0, 67, 56
1, 58497, Control_c, 0, 67, 55
1, 58512, Control_c, 0, 67, 52
1, 58527, Control_c, 0, 67, 49
1, 58541, Control_c, 0, 67, 46
1, 58556, Control_c, 0, 67, 45
1, 58571, Control_c, 0, 67, 44
1, 58586, Control_c, 0, 67, 42
1, 58591, Note_on_c, 0, 53, 56
1, 58615, Note_off_c, 0, 53, 62
1, 58615, Control_c, 0, 67, 42
1, 58645, Control_c, 0, 67, 42
1, 58674, Note_off_c, 0, 70, 62
1, 58674, Control_c, 0, 67, 43
1, 58689, Control_c, 0, 67, 43
1, 58704, Control_c, 0, 67, 44
1, 58719, Control_c, 0, 67, 44
1, 58720, Note_on_c, 0, 65, 58
1, 58722, Note_on_c, 0, 76, 65
1, 58726, Note_on_c, 0, 67, 52
1, 58737, Note_off_c, 0, 79, 56
1, 58746, Note_off_c, 0, 65, 64
1, 58749, Note_off_c, 0, 67, 59
1, 58749, Control_c, 0, 67, 45
1, 58755, Note_off_c, 0, 76, 62
1, 58764, Control_c, 0, 67, 45
1, 58793, Control_c, 0, 67, 46
1, 58823, Control_c, 0, 67, 46
1, 58853, Control_c, 0, 67, 47
1, 58859, Note_on_c, 0, 53, 56
1, 58865, Note_on_c, 0, 77, 65
1, 58868, Note_on_c, 0, 69, 53
1, 58868, Control_c, 0, 67, 47
1, 58883, Note_off_c, 0, 53, 61
1, 58887, Note_off_c, 0, 69, 61
1, 58893, Note_off_c, 0, 77, 65
1, 58898, Control_c, 0, 67, 48
1, 58942, Control_c, 0, 67, 48
1, 58990, Note_on_c, 0, 65, 57
1, 59016, Control_c, 0, 67, 48
1, 59020, Note_off_c, 0, 65, 65
1, 59053, Control_c, 0, 67, 47
1, 59083, Control_c, 0, 67, 47
1, 59097, Control_c, 0, 67, 46
1, 59133, Note_on_c, 0, 79, 66
1, 59139, Note_on_c, 0, 70, 52
1, 59146, Note_on_c, 0, 53, 47
1, 59160, Note_off_c, 0, 70, 61
1, 59171, Note_off_c, 0, 79, 60
1, 59174, Note_off_c, 0, 53, 57
1, 59187, Control_c, 0, 67, 47
1, 59202, Control_c, 0, 67, 47
1, 59217, Control_c, 0, 67, 48
1, 59276, Control_c, 0, 67, 47
1, 59278, Note_on_c, 0, 65, 50
1, 59303, Note_off_c, 0, 65, 59
1, 59305, Control_c, 0, 67, 47
1, 59320, Control_c, 0, 67, 46
1, 59365, Control_c, 0, 67, 46
1, 59407, Note_on_c, 0, 81, 57
1, 59418, Note_on_c, 0, 53, 48
1, 59421, Note_on_c, 0, 72, 49
1, 59447, Note_off_c, 0, 53, 56
1, 59497, Control_c, 0, 67, 46
1, 59525, Note_off_c, 0, 72, 60
1, 59540, Note_off_c, 0, 81, 62
1, 59551, Note_on_c, 0, 65, 50
1, 59574, Note_off_c, 0, 65, 59
1, 59661, Control_c, 0, 67, 46
1, 59681, Note_on_c, 0, 53, 66
1, 59691, Control_c, 0, 67, 45
1, 59706, Note_off_c, 0, 53, 66
1, 59706, Control_c, 0, 67, 44
1, 59720, Control_c, 0, 67, 43
1, 59735, Control_c, 0, 67, 41
1, 59750, Control_c, 0, 67, 40
1, 59765, Control_c, 0, 67, 39
1, 59780, Control_c, 0, 67, 35
1, 59802, Control_c, 0, 67, 29
1, 59815, Note_on_c, 0, 65, 63
1, 59817, Control_c, 0, 67, 24
1, 59822, Note_on_c, 0, 84, 74
1, 59832, Control_c, 0, 67, 20
1, 59843, Note_off_c, 0, 65, 67
1, 59846, Control_c, 0, 67, 16
1, 59861, Control_c, 0, 67, 15
1, 59876, Control_c, 0, 67, 14
1, 59883, Note_off_c, 0, 84, 62
1, 59891, Control_c, 0, 67, 13
1, 59959, Note_on_c, 0, 81, 71
1, 59962, Note_on_c, 0, 53, 64
1, 59968, Note_on_c, 0, 75, 65
1, 59992, Note_off_c, 0, 53, 67
1, 60039, Control_c, 0, 67, 14
1, 60114, Note_on_c, 0, 65, 59
1, 60143, Control_c, 0, 67, 14
1, 60144, Note_off_c, 0, 65, 66
1, 60187, Control_c, 0, 67, 15
1, 60245, Note_on_c, 0, 53, 67
1, 60275, Note_off_c, 0, 53, 68
1, 60276, Control_c, 0, 67, 14
1, 60291, Control_c, 0, 67, 14
1, 60335, Control_c, 0, 67, 13
1, 60360, Note_on_c, 0, 82, 70
1, 60368, Note_off_c, 0, 75, 61
1, 60370, Note_on_c, 0, 74, 71
1, 60373, Note_off_c, 0, 81, 55
1, 60379, Note_on_c, 0, 65, 56
1, 60387, Note_off_c, 0, 82, 66
1, 60395, Note_off_c, 0, 74, 68
1, 60402, Note_off_c, 0, 65, 63
1, 60515, Note_on_c, 0, 70, 65
1, 60515, Note_on_c, 0, 79, 70
1, 60517, Note_on_c, 0, 53, 51
1, 60549, Note_off_c, 0, 53, 60
1, 60649, Note_on_c, 0, 65, 62
1, 60677, Note_off_c, 0, 65, 66
1, 60771, Note_on_c, 0, 53, 67
1, 60773, Control_c, 0, 67, 14
1, 60788, Control_c, 0, 67, 14
1, 60801, Note_off_c, 0, 53, 66
1, 60803, Control_c, 0, 67, 15
1, 60817, Control_c, 0, 67, 15
1, 60832, Control_c, 0, 67, 16
1, 60840, Note_off_c, 0, 70, 62
1, 60847, Control_c, 0, 67, 16
1, 60862, Control_c, 0, 67, 17
1, 60877, Control_c, 0, 67, 17
1, 60892, Control_c, 0, 67, 18
1, 60903, Note_on_c, 0, 67, 59
1, 60905, Note_on_c, 0, 65, 57
1, 60906, Note_on_c, 0, 76, 61
1, 60920, Note_off_c, 0, 79, 56
1, 60925, Note_off_c, 0, 67, 62
1, 60932, Note_off_c, 0, 65, 64
1, 60936, Note_off_c, 0, 76, 64
1, 60951, Control_c, 0, 67, 18
1, 60981, Control_c, 0, 67, 19
1, 61010, Control_c, 0, 67, 19
1, 61025, Control_c, 0, 67, 20
1, 61040, Control_c, 0, 67, 20
1, 61041, Note_on_c, 0, 53, 55
1, 61048, Note_on_c, 0, 77, 64
1, 61050, Note_on_c, 0, 69, 54
1, 61055, Control_c, 0, 67, 21
1, 61068, Note_off_c, 0, 53, 61
1, 61069, Control_c, 0, 67, 21
1, 61070, Note_off_c, 0, 69, 62
1, 61084, Control_c, 0, 67, 22
1, 61092, Note_off_c, 0, 77, 62
1, 61099, Control_c, 0, 67, 23
1, 61114, Control_c, 0, 67, 25
1, 61129, Control_c, 0, 67, 26
1, 61143, Control_c, 0, 67, 28
1, 61158, Control_c, 0, 67, 33
1, 61173, Note_on_c, 0, 65, 61
1, 61173, Control_c, 0, 67, 38
1, 61187, Control_c, 0, 67, 46
1, 61202, Note_off_c, 0, 65, 66
1, 61202, Control_c, 0, 67, 53
1, 61219, Control_c, 0, 67, 61
1, 61233, Control_c, 0, 67, 68
1, 61248, Control_c, 0, 67, 74
1, 61263, Control_c, 0, 67, 80
1, 61278, Control_c, 0, 67, 85
1, 61300, Control_c, 0, 67, 90
1, 61315, Control_c, 0, 67, 94
1, 61320, Note_on_c, 0, 53, 53
1, 61324, Note_on_c, 0, 81, 62
1, 61330, Control_c, 0, 67, 100
1, 61342, Note_on_c, 0, 72, 38
1, 61345, Control_c, 0, 67, 105
1, 61345, Note_off_c, 0, 53, 60
1, 61360, Control_c, 0, 67, 111
1, 61366, Note_off_c, 0, 81, 62
1, 61368, Note_off_c, 0, 72, 54
1, 61374, Control_c, 0, 67, 117
1, 61389, Control_c, 0, 67, 124
1, 61404, Control_c, 0, 67, 127
1, 61453, Note_on_c, 0, 65, 48
1, 61478, Note_off_c, 0, 65, 58
1, 61624, Note_on_c, 0, 77, 44
1, 61632, Note_on_c, 0, 53, 28
1, 61637, Note_on_c, 0, 69, 35
1, 61844, Note_off_c, 0, 77, 61
1, 61849, Note_off_c, 0, 53, 57
1, 61852, Note_off_c, 0, 69, 61
1, 62257, Note_on_c, 0, 53, 57
1, 62287, Note_off_c, 0, 53, 67
1, 62383, Note_on_c, 0, 53, 60
1, 62412, Note_off_c, 0, 53, 67
1, 62523, Note_on_c, 0, 48, 52
1, 62523, Note_on_c, 0, 53, 53
1, 62555, Note_off_c, 0, 53, 67
1, 62641, Note_on_c, 0, 53, 65
1, 62672, Note_off_c, 0, 53, 65
1, 62775, Note_on_c, 0, 45, 55
1, 62789, Note_on_c, 0, 53, 54
1, 62821, Note_off_c, 0, 48, 64
1, 62825, Note_off_c, 0, 53, 65
1, 62919, Note_on_c, 0, 53, 66
1, 62948, Note_off_c, 0, 53, 67
1, 63036, Note_on_c, 0, 55, 66
1, 63040, Note_off_c, 0, 45, 62
1, 63041, Note_on_c, 0, 51, 60
1, 63047, Note_on_c, 0, 39, 54
1, 63073, Note_off_c, 0, 55, 64
1, 63092, Note_on_c, 0, 53, 57
1, 63101, Note_off_c, 0, 51, 59
1, 63119, Note_off_c, 0, 53, 67
1, 63130, Note_on_c, 0, 52, 67
1, 63160, Note_off_c, 0, 52, 63
1, 63184, Note_on_c, 0, 53, 73
1, 63262, Note_off_c, 0, 53, 59
1, 63277, Note_on_c, 0, 38, 55
1, 63277, Note_off_c, 0, 39, 54
1, 63277, Note_on_c, 0, 60, 57
1, 63280, Note_on_c, 0, 50, 46
1, 63396, Note_off_c, 0, 38, 62
1, 63405, Note_off_c, 0, 50, 64
1, 63431, Note_off_c, 0, 60, 63
1, 63432, Note_on_c, 0, 59, 57
1, 63459, Note_off_c, 0, 59, 63
1, 63559, Note_on_c, 0, 59, 68
1, 63570, Note_on_c, 0, 56, 72
1, 63574, Note_on_c, 0, 44, 64
1, 63592, Note_off_c, 0, 59, 60
1, 63694, Note_on_c, 0, 59, 75
1, 63700, Note_off_c, 0, 56, 66
1, 63737, Note_off_c, 0, 59, 56
1, 63825, Note_on_c, 0, 59, 82
1, 63831, Note_on_c, 0, 53, 75
1, 63833, Note_on_c, 0, 41, 73
1, 63846, Note_off_c, 0, 59, 68
1, 63854, Note_off_c, 0, 44, 61
1, 63933, Note_off_c, 0, 53, 64
1, 63962, Note_on_c, 0, 59, 77
1, 64005, Note_off_c, 0, 59, 59
1, 64068, Note_on_c, 0, 60, 71
1, 64080, Note_off_c, 0, 41, 63
1, 64087, Note_on_c, 0, 38, 67
1, 64090, Note_on_c, 0, 50, 78
1, 64123, Note_on_c, 0, 59, 69
1, 64125, Note_off_c, 0, 60, 64
1, 64158, Note_on_c, 0, 57, 77
1, 64160, Note_off_c, 0, 59, 61
1, 64183, Note_off_c, 0, 50, 61
1, 64210, Note_off_c, 0, 57, 63
1, 64222, Note_on_c, 0, 59, 80
1, 64324, Note_on_c, 0, 67, 78
1, 64344, Note_on_c, 0, 35, 64
1, 64347, Note_off_c, 0, 59, 48
1, 64353, Note_on_c, 0, 47, 60
1, 64356, Note_off_c, 0, 38, 52
1, 64467, Note_on_c, 0, 65, 77
1, 64475, Note_off_c, 0, 67, 62
1, 64481, Note_off_c, 0, 47, 66
1, 64489, Note_off_c, 0, 35, 65
1, 64493, Note_off_c, 0, 65, 67
1, 64561, Control_c, 0, 67, 126
1, 64576, Control_c, 0, 67, 122
1, 64591, Control_c, 0, 67, 117
1, 64598, Note_on_c, 0, 65, 87
1, 64603, Note_on_c, 0, 50, 78
1, 64606, Control_c, 0, 67, 111
1, 64607, Note_on_c, 0, 38, 74
1, 64621, Control_c, 0, 67, 104
1, 64624, Note_off_c, 0, 65, 63
1, 64635, Control_c, 0, 67, 96
1, 64650, Control_c, 0, 67, 89
1, 64665, Control_c, 0, 67, 80
1, 64680, Control_c, 0, 67, 70
1, 64695, Control_c, 0, 67, 61
1, 64709, Control_c, 0, 67, 53
1, 64724, Control_c, 0, 67, 47
1, 64728, Note_off_c, 0, 50, 64
1, 64731, Note_on_c, 0, 65, 89
1, 64739, Control_c, 0, 67, 44
1, 64754, Control_c, 0, 67, 41
1, 64768, Control_c, 0, 67, 38
1, 64773, Note_off_c, 0, 65, 65
1, 64783, Control_c, 0, 67, 35
1, 64798, Control_c, 0, 67, 32
1, 64813, Control_c, 0, 67, 29
1, 64828, Control_c, 0, 67, 27
1, 64842, Control_c, 0, 67, 25
1, 64857, Control_c, 0, 67, 24
1, 64860, Note_off_c, 0, 38, 62
1, 64861, Note_on_c, 0, 65, 90
1, 64865, Note_on_c, 0, 35, 69
1, 64872, Note_on_c, 0, 47, 75
1, 64901, Note_off_c, 0, 65, 63
1, 64963, Note_off_c, 0, 47, 64
1, 65002, Note_on_c, 0, 65, 84
1, 65042, Control_c, 0, 67, 24
1, 65056, Note_off_c, 0, 65, 65
1, 65087, Control_c, 0, 67, 23
1, 65116, Control_c, 0, 67, 23
1, 65137, Note_on_c, 0, 31, 73
1, 65139, Note_on_c, 0, 43, 76
1, 65139, Note_on_c, 0, 67, 76
1, 65143, Note_off_c, 0, 35, 59
1, 65169, Note_off_c, 0, 43, 66
1, 65172, Note_off_c, 0, 31, 66
1, 65190, Control_c, 0, 64, 31
1, 65196, Note_off_c, 0, 67, 61
1, 65202, Note_on_c, 0, 65, 78
1, 65206, Control_c, 0, 64, 42
1, 65221, Control_c, 0, 64, 48
1, 65236, Control_c, 0, 64, 50
1, 65248, Note_off_c, 0, 65, 66
1, 65251, Control_c, 0, 64, 52
1, 65265, Control_c, 0, 64, 53
1, 65273, Note_on_c, 0, 64, 63
1, 65280, Control_c, 0, 64, 53
1, 65295, Control_c, 0, 64, 54
1, 65310, Control_c, 0, 64, 55
1, 65325, Control_c, 0, 64, 56
1, 65328, Note_off_c, 0, 64, 66
1, 65331, Note_on_c, 0, 65, 71
1, 65339, Control_c, 0, 64, 58
1, 65354, Control_c, 0, 64, 59
1, 65369, Control_c, 0, 64, 60
1, 65384, Control_c, 0, 64, 59
1, 65399, Control_c, 0, 64, 51
1, 65405, Note_on_c, 0, 36, 78
1, 65407, Note_on_c, 0, 48, 76
1, 65408, Note_on_c, 0, 63, 76
1, 65414, Control_c, 0, 64, 0
1, 65414, Control_c, 0, 67, 23
1, 65422, Note_off_c, 0, 65, 61
1, 65429, Control_c, 0, 67, 24
1, 65444, Control_c, 0, 67, 24
1, 65458, Control_c, 0, 67, 25
1, 65482, Note_on_c, 0, 60, 73
1, 65488, Control_c, 0, 67, 25
1, 65505, Note_off_c, 0, 63, 52
1, 65518, Control_c, 0, 67, 26
1, 65543, Note_off_c, 0, 60, 64
1, 65567, Note_on_c, 0, 59, 62
1, 65614, Note_off_c, 0, 59, 57
1, 65629, Note_on_c, 0, 60, 69
1, 65665, Note_off_c, 0, 60, 65
1, 65688, Note_off_c, 0, 48, 62
1, 65694, Note_off_c, 0, 36, 61
1, 65694, Note_on_c, 0, 65, 70
1, 65695, Control_c, 0, 67, 25
1, 65725, Control_c, 0, 67, 25
1, 65769, Note_on_c, 0, 62, 65
1, 65769, Note_off_c, 0, 65, 63
1, 65810, Note_off_c, 0, 62, 64
1, 65831, Note_on_c, 0, 60, 56
1, 65870, Note_off_c, 0, 60, 63
1, 65892, Note_on_c, 0, 62, 63
1, 65933, Note_off_c, 0, 62, 61
1, 65950, Note_on_c, 0, 67, 66
1, 66014, Note_on_c, 0, 63, 70
1, 66014, Control_c, 0, 67, 25
1, 66028, Note_off_c, 0, 67, 56
1, 66044, Control_c, 0, 67, 26
1, 66054, Note_off_c, 0, 63, 60
1, 66074, Control_c, 0, 67, 26
1, 66082, Note_on_c, 0, 62, 63
1, 66088, Control_c, 0, 67, 27
1, 66118, Control_c, 0, 67, 27
1, 66129, Note_off_c, 0, 62, 53
1, 66133, Control_c, 0, 67, 28
1, 66135, Note_on_c, 0, 63, 64
1, 66162, Control_c, 0, 67, 28
1, 66189, Note_off_c, 0, 63, 62
1, 66199, Note_on_c, 0, 43, 81
1, 66201, Note_on_c, 0, 31, 75
1, 66204, Note_on_c, 0, 65, 71
1, 66224, Note_off_c, 0, 43, 66
1, 66228, Note_off_c, 0, 31, 64
1, 66252, Control_c, 0, 67, 29
1, 66275, Note_on_c, 0, 62, 66
1, 66278, Note_off_c, 0, 65, 60
1, 66329, Note_off_c, 0, 62, 62
1, 66341, Note_on_c, 0, 60, 62
1, 66393, Note_off_c, 0, 60, 51
1, 66399, Control_c, 0, 67, 28
1, 66416, Note_on_c, 0, 62, 52
1, 66444, Control_c, 0, 67, 28
1, 66468, Note_off_c, 0, 62, 61
1, 66473, Control_c, 0, 67, 27
1, 66487, Note_on_c, 0, 48, 72
1, 66487, Note_on_c, 0, 63, 66
1, 66487, Note_on_c, 0, 36, 72
1, 66562, Note_on_c, 0, 60, 70
1, 66585, Note_off_c, 0, 63, 51
1, 66621, Note_off_c, 0, 60, 65
1, 66642, Note_on_c, 0, 59, 66
1, 66691, Note_off_c, 0, 59, 56
1, 66704, Note_on_c, 0, 60, 73
1, 66732, Control_c, 0, 67, 27
1, 66747, Control_c, 0, 67, 26
1, 66751, Note_off_c, 0, 60, 63
1, 66762, Control_c, 0, 67, 26
1, 66764, Note_on_c, 0, 65, 77
1, 66785, Note_off_c, 0, 36, 61
1, 66791, Note_off_c, 0, 48, 63
1, 66792, Control_c, 0, 67, 25
1, 66841, Note_on_c, 0, 62, 75
1, 66845, Note_off_c, 0, 65, 64
1, 66888, Note_off_c, 0, 62, 63
1, 66901, Note_on_c, 0, 60, 63
1, 66961, Note_off_c, 0, 60, 61
1, 66968, Note_on_c, 0, 62, 70
1, 67007, Note_off_c, 0, 62, 62
1, 67021, Note_on_c, 0, 67, 66
1, 67045, Control_c, 0, 67, 26
1, 67088, Note_on_c, 0, 63, 68
1, 67104, Control_c, 0, 67, 26
1, 67111, Note_off_c, 0, 67, 55
1, 67135, Note_off_c, 0, 63, 59
1, 67161, Note_on_c, 0, 62, 65
1, 67193, Control_c, 0, 67, 27
1, 67214, Note_off_c, 0, 62, 51
1, 67219, Note_on_c, 0, 63, 61
1, 67222, Control_c, 0, 67, 27
1, 67237, Control_c, 0, 67, 28
1, 67267, Control_c, 0, 67, 28
1, 67281, Note_off_c, 0, 63, 61
1, 67294, Note_on_c, 0, 43, 68
1, 67295, Note_on_c, 0, 31, 65
1, 67299, Note_on_c, 0, 65, 67
1, 67328, Note_off_c, 0, 43, 65
1, 67330, Note_off_c, 0, 31, 63
1, 67371, Note_off_c, 0, 65, 60
1, 67375, Note_on_c, 0, 62, 56
1, 67425, Note_off_c, 0, 62, 61
1, 67440, Note_on_c, 0, 60, 56
1, 67484, Note_off_c, 0, 60, 57
1, 67519, Note_on_c, 0, 62, 50
1, 67560, Note_off_c, 0, 62, 59
1, 67586, Note_on_c, 0, 64, 59
1, 67590, Note_on_c, 0, 36, 62
1, 67590, Note_on_c, 0, 48, 61
1, 67656, Note_off_c, 0, 64, 58
1, 67658, Note_on_c, 0, 60, 56
1, 67699, Note_off_c, 0, 60, 65
1, 67733, Note_on_c, 0, 59, 50
1, 67769, Note_off_c, 0, 59, 63
1, 67799, Note_on_c, 0, 60, 64
1, 67823, Control_c, 0, 67, 28
1, 67833, Note_off_c, 0, 60, 65
1, 67862, Note_on_c, 0, 65, 64
1, 67867, Control_c, 0, 67, 27
1, 67930, Note_on_c, 0, 62, 70
1, 67930, Note_off_c, 0, 65, 63
1, 67980, Note_off_c, 0, 62, 62
1, 67996, Note_on_c, 0, 60, 66
1, 68055, Note_off_c, 0, 60, 62
1, 68063, Note_on_c, 0, 62, 71
1, 68097, Control_c, 0, 67, 27
1, 68112, Control_c, 0, 67, 26
1, 68118, Note_off_c, 0, 62, 59
1, 68127, Note_on_c, 0, 67, 77
1, 68142, Control_c, 0, 67, 26
1, 68195, Note_on_c, 0, 64, 75
1, 68198, Note_off_c, 0, 67, 61
1, 68247, Note_off_c, 0, 64, 66
1, 68262, Note_on_c, 0, 62, 64
1, 68320, Note_off_c, 0, 62, 61
1, 68322, Note_on_c, 0, 64, 75
1, 68371, Note_off_c, 0, 64, 63
1, 68382, Note_on_c, 0, 68, 78
1, 68455, Note_on_c, 0, 65, 76
1, 68464, Note_off_c, 0, 68, 60
1, 68510, Note_off_c, 0, 65, 65
1, 68520, Note_on_c, 0, 64, 70
1, 68585, Note_on_c, 0, 65, 75
1, 68585, Note_off_c, 0, 64, 62
1, 68641, Note_off_c, 0, 65, 64
1, 68651, Note_on_c, 0, 70, 83
1, 68676, Note_off_c, 0, 48, 64
1, 68720, Control_c, 0, 67, 26
1, 68727, Note_on_c, 0, 67, 83
1, 68742, Note_off_c, 0, 70, 62
1, 68750, Control_c, 0, 67, 27
1, 68789, Note_off_c, 0, 67, 64
1, 68804, Note_on_c, 0, 65, 68
1, 68858, Note_on_c, 0, 67, 78
1, 68862, Note_off_c, 0, 65, 63
1, 68923, Note_off_c, 0, 67, 62
1, 68924, Note_on_c, 0, 70, 79
1, 68933, Note_on_c, 0, 48, 85
1, 68958, Note_off_c, 0, 48, 69
1, 69003, Note_on_c, 0, 67, 74
1, 69006, Note_off_c, 0, 70, 63
1, 69050, Note_off_c, 0, 67, 62
1, 69058, Note_on_c, 0, 65, 67
1, 69125, Note_off_c, 0, 65, 61
1, 69128, Note_on_c, 0, 67, 69
1, 69193, Note_off_c, 0, 67, 60
1, 69207, Note_on_c, 0, 72, 73
1, 69218, Note_on_c, 0, 48, 83
1, 69242, Note_off_c, 0, 48, 69
1, 69271, Note_on_c, 0, 68, 68
1, 69288, Note_off_c, 0, 72, 54
1, 69326, Note_off_c, 0, 68, 63
1, 69355, Note_on_c, 0, 67, 68
1, 69420, Note_on_c, 0, 68, 68
1, 69423, Note_off_c, 0, 67, 58
1, 69484, Note_off_c, 0, 68, 61
1, 69485, Control_c, 0, 67, 27
1, 69486, Note_on_c, 0, 70, 71
1, 69487, Note_on_c, 0, 48, 82
1, 69499, Control_c, 0, 67, 28
1, 69509, Note_off_c, 0, 36, 61
1, 69514, Note_off_c, 0, 48, 68
1, 69537, Control_c, 0, 67, 28
1, 69551, Control_c, 0, 67, 29
1, 69566, Note_on_c, 0, 67, 67
1, 69575, Note_off_c, 0, 70, 60
1, 69581, Control_c, 0, 67, 29
1, 69611, Note_off_c, 0, 67, 61
1, 69611, Control_c, 0, 67, 30
1, 69628, Note_on_c, 0, 65, 60
1, 69683, Note_off_c, 0, 65, 58
1, 69695, Note_on_c, 0, 67, 59
1, 69744, Control_c, 0, 67, 29
1, 69750, Note_off_c, 0, 67, 61
1, 69758, Control_c, 0, 67, 29
1, 69765, Note_on_c, 0, 68, 64
1, 69773, Control_c, 0, 67, 28
1, 69793, Note_on_c, 0, 53, 52
1, 69794, Note_on_c, 0, 41, 48
1, 69803, Control_c, 0, 67, 28
1, 69818, Control_c, 0, 67, 27
1, 69845, Note_on_c, 0, 65, 62
1, 69847, Control_c, 0, 67, 27
1, 69857, Note_off_c, 0, 68, 53
1, 69862, Control_c, 0, 67, 26
1, 69877, Control_c, 0, 67, 25
1, 69892, Control_c, 0, 67, 24
1, 69901, Note_off_c, 0, 65, 62
1, 69906, Control_c, 0, 67, 23
1, 69912, Note_on_c, 0, 64, 70
1, 69921, Control_c, 0, 67, 23
1, 69936, Control_c, 0, 67, 21
1, 69951, Control_c, 0, 67, 21
1, 69966, Control_c, 0, 67, 18
1, 69970, Note_off_c, 0, 64, 65
1, 69971, Note_on_c, 0, 65, 75
1, 69981, Control_c, 0, 67, 11
1, 69996, Control_c, 0, 67, 0
1, 70009, Note_off_c, 0, 41, 62
1, 70021, Note_off_c, 0, 53, 66
1, 70028, Note_off_c, 0, 65, 64
1, 70041, Note_on_c, 0, 70, 82
1, 70118, Note_on_c, 0, 67, 78
1, 70129, Note_off_c, 0, 70, 62
1, 70163, Note_off_c, 0, 67, 63
1, 70166, Note_on_c, 0, 65, 72
1, 70229, Note_off_c, 0, 65, 63
1, 70231, Note_on_c, 0, 67, 77
1, 70295, Note_off_c, 0, 67, 63
1, 70299, Note_on_c, 0, 72, 82
1, 70365, Note_on_c, 0, 68, 77
1, 70381, Note_off_c, 0, 72, 62
1, 70419, Note_off_c, 0, 68, 63
1, 70447, Note_on_c, 0, 67, 68
1, 70506, Note_on_c, 0, 68, 65
1, 70507, Note_off_c, 0, 67, 59
1, 70568, Note_off_c, 0, 68, 61
1, 70577, Note_on_c, 0, 70, 67
1, 70578, Note_on_c, 0, 48, 70
1, 70581, Note_on_c, 0, 36, 63
1, 70595, Control_c, 0, 64, 11
1, 70603, Note_off_c, 0, 48, 65
1, 70610, Control_c, 0, 64, 17
1, 70613, Note_off_c, 0, 36, 62
1, 70625, Control_c, 0, 64, 21
1, 70640, Control_c, 0, 64, 26
1, 70654, Control_c, 0, 64, 28
1, 70660, Note_on_c, 0, 67, 64
1, 70660, Note_off_c, 0, 70, 60
1, 70669, Control_c, 0, 64, 31
1, 70684, Control_c, 0, 64, 33
1, 70699, Control_c, 0, 64, 34
1, 70699, Note_off_c, 0, 67, 63
1, 70723, Note_on_c, 0, 65, 60
1, 70786, Note_off_c, 0, 65, 56
1, 70799, Note_on_c, 0, 67, 56
1, 70867, Note_off_c, 0, 67, 60
1, 70876, Note_on_c, 0, 68, 68
1, 70878, Note_on_c, 0, 53, 65
1, 70882, Note_on_c, 0, 41, 65
1, 70893, Control_c, 0, 64, 33
1, 70908, Control_c, 0, 64, 32
1, 70923, Control_c, 0, 64, 30
1, 70938, Control_c, 0, 64, 29
1, 70950, Note_on_c, 0, 65, 71
1, 70952, Control_c, 0, 64, 27
1, 70960, Note_off_c, 0, 68, 56
1, 70967, Control_c, 0, 64, 26
1, 70982, Control_c, 0, 64, 24
1, 71002, Note_off_c, 0, 65, 64
1, 71026, Note_on_c, 0, 64, 70
1, 71084, Note_off_c, 0, 64, 64
1, 71085, Note_on_c, 0, 65, 77
1, 71093, Control_c, 0, 64, 26
1, 71137, Control_c, 0, 64, 27
1, 71142, Note_off_c, 0, 41, 63
1, 71145, Note_off_c, 0, 65, 64
1, 71146, Note_off_c, 0, 53, 65
1, 71155, Note_on_c, 0, 70, 84
1, 71230, Note_on_c, 0, 67, 77
1, 71248, Note_off_c, 0, 70, 62
1, 71256, Control_c, 0, 64, 28
1, 71270, Control_c, 0, 64, 29
1, 71281, Note_off_c, 0, 67, 63
1, 71285, Note_on_c, 0, 65, 71
1, 71285, Control_c, 0, 64, 31
1, 71300, Control_c, 0, 64, 32
1, 71315, Control_c, 0, 64, 34
1, 71344, Control_c, 0, 64, 35
1, 71346, Note_off_c, 0, 65, 63
1, 71346, Note_on_c, 0, 67, 77
1, 71374, Control_c, 0, 64, 36
1, 71403, Control_c, 0, 64, 29
1, 71409, Note_off_c, 0, 67, 62
1, 71418, Note_on_c, 0, 72, 82
1, 71418, Control_c, 0, 64, 0
1, 71477, Note_on_c, 0, 68, 78
1, 71498, Note_off_c, 0, 72, 63
1, 71531, Note_off_c, 0, 68, 63
1, 71559, Note_on_c, 0, 67, 72
1, 71620, Note_on_c, 0, 68, 66
1, 71620, Note_off_c, 0, 67, 59
1, 71679, Note_off_c, 0, 68, 61
1, 71689, Note_on_c, 0, 70, 68
1, 71708, Note_on_c, 0, 48, 76
1, 71711, Note_on_c, 0, 36, 71
1, 71739, Note_off_c, 0, 48, 66
1, 71744, Note_off_c, 0, 36, 61
1, 71777, Note_on_c, 0, 67, 64
1, 71784, Note_off_c, 0, 70, 58
1, 71823, Note_off_c, 0, 67, 60
1, 71826, Control_c, 0, 64, 11
1, 71844, Note_on_c, 0, 65, 54
1, 71871, Control_c, 0, 64, 14
1, 71886, Control_c, 0, 64, 17
1, 71900, Control_c, 0, 64, 27
1, 71909, Note_off_c, 0, 65, 57
1, 71915, Control_c, 0, 64, 36
1, 71927, Note_on_c, 0, 67, 53
1, 71930, Control_c, 0, 64, 42
1, 71945, Control_c, 0, 64, 46
1, 71960, Control_c, 0, 64, 48
1, 71974, Note_off_c, 0, 67, 60
1, 71990, Control_c, 0, 64, 21
1, 71995, Note_on_c, 0, 69, 66
1, 72005, Control_c, 0, 64, 0
1, 72014, Note_on_c, 0, 41, 67
1, 72018, Note_on_c, 0, 53, 68
1, 72072, Note_off_c, 0, 69, 56
1, 72076, Note_on_c, 0, 65, 62
1, 72127, Note_off_c, 0, 65, 62
1, 72152, Note_on_c, 0, 64, 59
1, 72200, Note_off_c, 0, 64, 61
1, 72219, Note_on_c, 0, 65, 58
1, 72264, Note_off_c, 0, 65, 63
1, 72282, Note_on_c, 0, 70, 69
1, 72354, Note_off_c, 0, 70, 61
1, 72355, Note_on_c, 0, 67, 72
1, 72411, Note_off_c, 0, 67, 63
1, 72424, Note_on_c, 0, 65, 62
1, 72476, Note_off_c, 0, 65, 61
1, 72486, Note_on_c, 0, 67, 71
1, 72537, Note_off_c, 0, 67, 61
1, 72556, Note_on_c, 0, 72, 76
1, 72625, Note_on_c, 0, 69, 78
1, 72644, Note_off_c, 0, 72, 61
1, 72678, Note_off_c, 0, 69, 64
1, 72693, Note_on_c, 0, 67, 66
1, 72750, Note_off_c, 0, 67, 61
1, 72752, Note_on_c, 0, 69, 72
1, 72798, Note_off_c, 0, 69, 61
1, 72823, Note_on_c, 0, 73, 81
1, 72890, Note_on_c, 0, 70, 77
1, 72913, Note_off_c, 0, 73, 61
1, 72950, Note_off_c, 0, 70, 63
1, 72959, Note_on_c, 0, 69, 74
1, 73015, Note_on_c, 0, 70, 76
1, 73031, Note_off_c, 0, 69, 56
1, 73078, Note_off_c, 0, 70, 62
1, 73081, Note_on_c, 0, 75, 83
1, 73101, Note_off_c, 0, 53, 66
1, 73155, Note_on_c, 0, 72, 85
1, 73167, Note_off_c, 0, 75, 63
1, 73218, Note_off_c, 0, 72, 64
1, 73236, Note_on_c, 0, 71, 70
1, 73297, Note_on_c, 0, 72, 79
1, 73301, Note_off_c, 0, 71, 63
1, 73364, Note_off_c, 0, 72, 64
1, 73369, Note_on_c, 0, 75, 81
1, 73392, Note_on_c, 0, 53, 87
1, 73414, Note_off_c, 0, 53, 72
1, 73445, Note_on_c, 0, 72, 80
1, 73452, Note_off_c, 0, 75, 62
1, 73496, Note_off_c, 0, 72, 64
1, 73513, Note_on_c, 0, 71, 66
1, 73582, Note_off_c, 0, 71, 63
1, 73583, Note_on_c, 0, 72, 74
1, 73650, Note_off_c, 0, 72, 63
1, 73665, Note_on_c, 0, 77, 72
1, 73675, Note_on_c, 0, 53, 86
1, 73698, Note_off_c, 0, 53, 73
1, 73732, Note_on_c, 0, 73, 76
1, 73764, Note_off_c, 0, 77, 59
1, 73790, Note_off_c, 0, 73, 63
1, 73813, Note_on_c, 0, 72, 70
1, 73883, Note_on_c, 0, 73, 71
1, 73886, Note_off_c, 0, 72, 60
1, 73944, Note_off_c, 0, 73, 62
1, 73948, Note_on_c, 0, 75, 73
1, 73957, Note_on_c, 0, 53, 86
1, 73977, Note_off_c, 0, 41, 63
1, 73981, Note_off_c, 0, 53, 72
1, 74023, Note_on_c, 0, 72, 75
1, 74056, Note_off_c, 0, 75, 59
1, 74081, Note_off_c, 0, 72, 65
1, 74094, Note_on_c, 0, 71, 71
1, 74169, Note_on_c, 0, 72, 71
1, 74172, Note_off_c, 0, 71, 61
1, 74220, Note_off_c, 0, 72, 62
1, 74235, Note_on_c, 0, 73, 80
1, 74252, Note_on_c, 0, 46, 75
1, 74252, Note_on_c, 0, 58, 82
1, 74314, Note_on_c, 0, 70, 78
1, 74336, Note_off_c, 0, 73, 58
1, 74371, Note_off_c, 0, 70, 65
1, 74387, Note_on_c, 0, 69, 65
1, 74444, Note_on_c, 0, 70, 80
1, 74457, Note_off_c, 0, 69, 54
1, 74504, Note_off_c, 0, 70, 63
1, 74515, Note_on_c, 0, 75, 79
1, 74531, Note_off_c, 0, 58, 63
1, 74534, Note_off_c, 0, 46, 63
1, 74589, Note_on_c, 0, 72, 77
1, 74611, Note_off_c, 0, 75, 60
1, 74639, Note_off_c, 0, 72, 66
1, 74653, Note_on_c, 0, 71, 67
1, 74708, Note_off_c, 0, 71, 62
1, 74711, Note_on_c, 0, 72, 79
1, 74779, Note_off_c, 0, 72, 64
1, 74783, Note_on_c, 0, 77, 85
1, 74854, Note_on_c, 0, 73, 81
1, 74887, Note_off_c, 0, 77, 62
1, 74906, Note_off_c, 0, 73, 62
1, 74923, Note_on_c, 0, 72, 75
1, 74970, Control_c, 0, 64, 11
1, 74974, Note_on_c, 0, 73, 72
1, 74985, Control_c, 0, 64, 23
1, 74996, Note_off_c, 0, 72, 61
1, 75000, Control_c, 0, 64, 28
1, 75015, Control_c, 0, 64, 33
1, 75030, Control_c, 0, 64, 39
1, 75044, Control_c, 0, 64, 46
1, 75045, Note_on_c, 0, 75, 75
1, 75045, Note_off_c, 0, 73, 64
1, 75053, Note_on_c, 0, 53, 88
1, 75057, Note_on_c, 0, 41, 78
1, 75059, Control_c, 0, 64, 47
1, 75074, Control_c, 0, 64, 48
1, 75077, Note_off_c, 0, 53, 73
1, 75084, Note_off_c, 0, 41, 65
1, 75089, Control_c, 0, 64, 48
1, 75104, Control_c, 0, 64, 49
1, 75118, Note_on_c, 0, 72, 70
1, 75118, Control_c, 0, 64, 50
1, 75133, Control_c, 0, 64, 52
1, 75147, Note_off_c, 0, 75, 57
1, 75148, Control_c, 0, 64, 53
1, 75163, Control_c, 0, 64, 54
1, 75176, Note_off_c, 0, 72, 65
1, 75177, Control_c, 0, 64, 55
1, 75186, Note_on_c, 0, 71, 69
1, 75192, Control_c, 0, 64, 55
1, 75207, Control_c, 0, 64, 56
1, 75263, Note_off_c, 0, 71, 63
1, 75266, Note_on_c, 0, 72, 60
1, 75320, Note_off_c, 0, 72, 63
1, 75326, Control_c, 0, 64, 55
1, 75332, Note_on_c, 0, 73, 78
1, 75340, Control_c, 0, 64, 55
1, 75345, Note_on_c, 0, 46, 76
1, 75345, Note_on_c, 0, 58, 80
1, 75355, Control_c, 0, 64, 54
1, 75370, Control_c, 0, 64, 53
1, 75385, Control_c, 0, 64, 53
1, 75415, Control_c, 0, 64, 52
1, 75418, Note_on_c, 0, 70, 75
1, 75433, Note_off_c, 0, 73, 56
1, 75475, Note_off_c, 0, 70, 64
1, 75494, Note_on_c, 0, 69, 66
1, 75557, Note_off_c, 0, 69, 60
1, 75564, Note_on_c, 0, 70, 74
1, 75570, Control_c, 0, 64, 52
1, 75600, Control_c, 0, 64, 51
1, 75615, Control_c, 0, 64, 51
1, 75619, Note_off_c, 0, 70, 64
1, 75624, Note_on_c, 0, 75, 79
1, 75630, Control_c, 0, 64, 50
1, 75637, Note_off_c, 0, 58, 64
1, 75640, Note_off_c, 0, 46, 63
1, 75660, Control_c, 0, 64, 49
1, 75703, Note_on_c, 0, 72, 71
1, 75704, Note_off_c, 0, 75, 60
1, 75726, Note_off_c, 0, 72, 67
1, 75734, Control_c, 0, 64, 50
1, 75735, Note_on_c, 0, 71, 67
1, 75749, Control_c, 0, 64, 50
1, 75764, Control_c, 0, 64, 51
1, 75779, Control_c, 0, 64, 51
1, 75785, Note_off_c, 0, 71, 61
1, 75793, Control_c, 0, 64, 52
1, 75799, Note_on_c, 0, 72, 69
1, 75854, Note_off_c, 0, 72, 65
1, 75857, Note_on_c, 0, 77, 79
1, 75897, Control_c, 0, 64, 53
1, 75912, Control_c, 0, 64, 53
1, 75926, Control_c, 0, 64, 54
1, 75934, Note_on_c, 0, 73, 74
1, 75941, Control_c, 0, 64, 56
1, 75952, Note_off_c, 0, 77, 58
1, 75956, Control_c, 0, 64, 57
1, 75971, Control_c, 0, 64, 57
1, 75975, Note_off_c, 0, 73, 62
1, 75986, Control_c, 0, 64, 58
1, 75996, Note_on_c, 0, 72, 72
1, 76000, Control_c, 0, 64, 58
1, 76056, Note_on_c, 0, 73, 78
1, 76060, Control_c, 0, 64, 57
1, 76068, Note_off_c, 0, 72, 60
1, 76074, Control_c, 0, 64, 56
1, 76114, Note_on_c, 0, 53, 92
1, 76119, Note_on_c, 0, 41, 80
1, 76121, Note_off_c, 0, 73, 64
1, 76122, Note_on_c, 0, 75, 75
1, 76133, Control_c, 0, 64, 57
1, 76136, Note_off_c, 0, 53, 73
1, 76144, Note_off_c, 0, 41, 65
1, 76148, Control_c, 0, 64, 57
1, 76163, Control_c, 0, 64, 58
1, 76178, Control_c, 0, 64, 58
1, 76193, Control_c, 0, 64, 59
1, 76200, Note_on_c, 0, 72, 73
1, 76208, Control_c, 0, 64, 60
1, 76217, Note_off_c, 0, 75, 58
1, 76223, Control_c, 0, 64, 60
1, 76238, Control_c, 0, 64, 61
1, 76243, Note_off_c, 0, 72, 64
1, 76253, Control_c, 0, 64, 61
1, 76267, Note_on_c, 0, 71, 67
1, 76338, Note_off_c, 0, 71, 63
1, 76339, Note_on_c, 0, 72, 67
1, 76363, Control_c, 0, 64, 61
1, 76389, Note_off_c, 0, 72, 62
1, 76394, Control_c, 0, 64, 60
1, 76409, Control_c, 0, 64, 60
1, 76417, Note_on_c, 0, 73, 71
1, 76423, Control_c, 0, 64, 59
1, 76432, Note_on_c, 0, 46, 72
1, 76432, Note_on_c, 0, 58, 76
1, 76438, Control_c, 0, 64, 59
1, 76453, Control_c, 0, 64, 58
1, 76485, Note_off_c, 0, 73, 62
1, 76488, Note_on_c, 0, 70, 73
1, 76539, Note_off_c, 0, 70, 61
1, 76564, Note_on_c, 0, 69, 66
1, 76622, Note_off_c, 0, 69, 60
1, 76631, Note_on_c, 0, 70, 70
1, 76646, Control_c, 0, 64, 58
1, 76661, Control_c, 0, 64, 57
1, 76689, Note_off_c, 0, 70, 62
1, 76690, Control_c, 0, 64, 57
1, 76694, Note_on_c, 0, 72, 80
1, 76705, Control_c, 0, 64, 56
1, 76764, Control_c, 0, 64, 56
1, 76769, Note_on_c, 0, 70, 84
1, 76774, Note_off_c, 0, 46, 62
1, 76777, Note_off_c, 0, 72, 63
1, 76779, Control_c, 0, 64, 55
1, 76787, Note_off_c, 0, 58, 64
1, 76794, Control_c, 0, 64, 54
1, 76820, Note_off_c, 0, 70, 64
1, 76822, Control_c, 0, 64, 54
1, 76827, Note_on_c, 0, 69, 77
1, 76837, Control_c, 0, 64, 53
1, 76882, Note_on_c, 0, 70, 82
1, 76899, Note_off_c, 0, 69, 62
1, 76926, Control_c, 0, 64, 53
1, 76941, Control_c, 0, 64, 44
1, 76942, Note_on_c, 0, 73, 89
1, 76948, Note_off_c, 0, 70, 65
1, 76956, Control_c, 0, 64, 0
1, 77020, Note_on_c, 0, 70, 82
1, 77028, Note_off_c, 0, 73, 63
1, 77073, Note_on_c, 0, 69, 76
1, 77075, Note_off_c, 0, 70, 65
1, 77137, Note_on_c, 0, 70, 81
1, 77152, Note_off_c, 0, 69, 61
1, 77195, Note_on_c, 0, 56, 92
1, 77200, Note_on_c, 0, 74, 90
1, 77206, Note_off_c, 0, 70, 65
1, 77217, Note_off_c, 0, 56, 70
1, 77245, Control_c, 0, 64, 14
1, 77260, Control_c, 0, 64, 36
1, 77274, Note_on_c, 0, 70, 81
1, 77275, Control_c, 0, 64, 45
1, 77278, Note_off_c, 0, 74, 65
1, 77290, Control_c, 0, 64, 47
1, 77305, Control_c, 0, 64, 35
1, 77320, Control_c, 0, 64, 0
1, 77320, Note_off_c, 0, 70, 66
1, 77321, Note_on_c, 0, 69, 81
1, 77390, Note_on_c, 0, 70, 86
1, 77418, Note_off_c, 0, 69, 59
1, 77474, Note_on_c, 0, 54, 62
1, 77487, Note_on_c, 0, 77, 83
1, 77495, Note_off_c, 0, 70, 64
1, 77512, Control_c, 0, 64, 64
1, 77527, Control_c, 0, 64, 71
1, 77542, Control_c, 0, 64, 82
1, 77556, Control_c, 0, 64, 106
1, 77571, Control_c, 0, 64, 127
1, 77588, Note_on_c, 0, 70, 82
1, 77630, Note_off_c, 0, 77, 62
1, 77638, Note_off_c, 0, 70, 64
1, 77646, Note_on_c, 0, 69, 72
1, 77698, Note_on_c, 0, 70, 88
1, 77721, Note_off_c, 0, 69, 62
1, 77771, Control_c, 0, 64, 93
1, 77772, Note_off_c, 0, 70, 64
1, 77773, Note_on_c, 0, 75, 87
1, 77786, Control_c, 0, 64, 68
1, 77801, Control_c, 0, 64, 0
1, 77841, Note_on_c, 0, 70, 82
1, 77852, Note_off_c, 0, 75, 64
1, 77891, Note_off_c, 0, 70, 65
1, 77907, Note_on_c, 0, 69, 58
1, 77957, Note_on_c, 0, 70, 70
1, 77973, Note_off_c, 0, 69, 59
1, 78023, Note_off_c, 0, 70, 64
1, 78042, Note_on_c, 0, 75, 62
1, 78054, Control_c, 0, 67, 8
1, 78068, Control_c, 0, 67, 13
1, 78083, Control_c, 0, 67, 25
1, 78098, Control_c, 0, 67, 43
1, 78105, Note_off_c, 0, 75, 59
1, 78113, Control_c, 0, 67, 61
1, 78115, Note_on_c, 0, 70, 62
1, 78128, Control_c, 0, 67, 73
1, 78142, Control_c, 0, 67, 84
1, 78148, Note_off_c, 0, 70, 64
1, 78157, Control_c, 0, 67, 91
1, 78172, Control_c, 0, 67, 97
1, 78183, Note_on_c, 0, 69, 57
1, 78187, Control_c, 0, 67, 102
1, 78202, Control_c, 0, 67, 107
1, 78217, Control_c, 0, 67, 111
1, 78231, Note_off_c, 0, 69, 56
1, 78232, Control_c, 0, 67, 113
1, 78247, Control_c, 0, 67, 115
1, 78254, Note_on_c, 0, 70, 58
1, 78261, Control_c, 0, 67, 116
1, 78294, Note_off_c, 0, 70, 61
1, 78318, Note_on_c, 0, 73, 62
1, 78341, Note_on_c, 0, 53, 60
1, 78342, Note_off_c, 0, 54, 58
1, 78365, Control_c, 0, 67, 116
1, 78368, Note_off_c, 0, 53, 68
1, 78379, Control_c, 0, 67, 115
1, 78383, Note_off_c, 0, 73, 61
1, 78394, Control_c, 0, 67, 115
1, 78399, Note_on_c, 0, 70, 45
1, 78423, Note_off_c, 0, 70, 61
1, 78424, Control_c, 0, 67, 114
1, 78439, Control_c, 0, 67, 114
1, 78453, Control_c, 0, 67, 113
1, 78457, Note_on_c, 0, 69, 56
1, 78483, Control_c, 0, 67, 113
1, 78498, Control_c, 0, 67, 112
1, 78518, Note_off_c, 0, 69, 49
1, 78520, Control_c, 0, 67, 111
1, 78524, Note_on_c, 0, 70, 49
1, 78550, Control_c, 0, 67, 111
1, 78565, Control_c, 0, 67, 110
1, 78580, Control_c, 0, 67, 110
1, 78594, Note_off_c, 0, 70, 62
1, 78594, Control_c, 0, 67, 109
1, 78621, Note_on_c, 0, 73, 58
1, 78624, Note_on_c, 0, 51, 51
1, 78624, Control_c, 0, 67, 109
1, 78654, Control_c, 0, 64, 52
1, 78668, Control_c, 0, 64, 64
1, 78668, Control_c, 0, 67, 108
1, 78683, Control_c, 0, 64, 69
1, 78698, Control_c, 0, 64, 75
1, 78712, Control_c, 0, 64, 82
1, 78712, Control_c, 0, 67, 108
1, 78727, Control_c, 0, 64, 91
1, 78730, Note_on_c, 0, 70, 32
1, 78742, Control_c, 0, 64, 100
1, 78757, Control_c, 0, 64, 112
1, 78757, Control_c, 0, 67, 107
1, 78764, Note_off_c, 0, 70, 53
1, 78772, Control_c, 0, 64, 127
1, 78777, Note_on_c, 0, 69, 54
1, 78786, Note_off_c, 0, 73, 58
1, 78820, Note_off_c, 0, 69, 54
1, 78832, Control_c, 0, 67, 107
1, 78843, Note_on_c, 0, 70, 62
1, 78906, Control_c, 0, 67, 106
1, 78909, Note_off_c, 0, 70, 62
1, 78921, Note_on_c, 0, 72, 67
1, 78935, Control_c, 0, 67, 106
1, 78950, Control_c, 0, 64, 105
1, 78965, Control_c, 0, 64, 82
1, 78980, Control_c, 0, 64, 66
1, 78991, Note_off_c, 0, 72, 62
1, 78995, Control_c, 0, 64, 0
1, 78996, Note_on_c, 0, 70, 65
1, 79031, Note_off_c, 0, 70, 65
1, 79055, Note_on_c, 0, 69, 61
1, 79111, Note_on_c, 0, 70, 73
1, 79126, Note_off_c, 0, 69, 58
1, 79182, Note_on_c, 0, 72, 82
1, 79183, Note_off_c, 0, 70, 63
1, 79204, Control_c, 0, 67, 106
1, 79266, Note_on_c, 0, 70, 77
1, 79269, Note_off_c, 0, 72, 63
1, 79313, Note_off_c, 0, 70, 64
1, 79317, Note_on_c, 0, 69, 78
1, 79374, Control_c, 0, 67, 106
1, 79383, Note_on_c, 0, 70, 80
1, 79388, Control_c, 0, 67, 105
1, 79403, Note_off_c, 0, 69, 60
1, 79403, Control_c, 0, 67, 103
1, 79418, Control_c, 0, 67, 100
1, 79433, Control_c, 0, 67, 90
1, 79447, Note_on_c, 0, 53, 75
1, 79448, Control_c, 0, 67, 74
1, 79451, Note_on_c, 0, 74, 85
1, 79454, Note_off_c, 0, 70, 64
1, 79462, Control_c, 0, 67, 58
1, 79468, Note_off_c, 0, 51, 64
1, 79477, Control_c, 0, 67, 41
1, 79478, Note_off_c, 0, 53, 68
1, 79492, Control_c, 0, 67, 25
1, 79507, Control_c, 0, 67, 13
1, 79522, Control_c, 0, 67, 0
1, 79526, Note_on_c, 0, 70, 80
1, 79529, Note_off_c, 0, 74, 62
1, 79575, Note_off_c, 0, 70, 65
1, 79579, Note_on_c, 0, 69, 80
1, 79648, Note_on_c, 0, 70, 84
1, 79692, Note_off_c, 0, 69, 55
1, 79701, Control_c, 0, 64, 17
1, 79715, Control_c, 0, 64, 62
1, 79724, Note_on_c, 0, 54, 58
1, 79730, Control_c, 0, 64, 69
1, 79742, Note_on_c, 0, 77, 84
1, 79745, Control_c, 0, 64, 78
1, 79757, Note_off_c, 0, 70, 64
1, 79759, Control_c, 0, 64, 92
1, 79774, Control_c, 0, 64, 122
1, 79789, Control_c, 0, 64, 127
1, 79833, Note_on_c, 0, 70, 80
1, 79878, Note_off_c, 0, 77, 61
1, 79889, Note_off_c, 0, 70, 64
1, 79894, Note_on_c, 0, 69, 79
1, 79958, Note_on_c, 0, 70, 90
1, 79979, Note_off_c, 0, 69, 59
1, 80019, Control_c, 0, 64, 87
1, 80030, Note_on_c, 0, 75, 83
1, 80030, Note_off_c, 0, 70, 65
1, 80033, Control_c, 0, 64, 66
1, 80048, Control_c, 0, 64, 0
1, 80103, Note_on_c, 0, 70, 86
1, 80106, Note_off_c, 0, 75, 66
1, 80155, Note_off_c, 0, 70, 64
1, 80164, Note_on_c, 0, 69, 66
1, 80231, Note_on_c, 0, 70, 71
1, 80238, Note_off_c, 0, 69, 59
1, 80289, Note_off_c, 0, 70, 63
1, 80298, Note_on_c, 0, 75, 74
1, 80366, Note_off_c, 0, 75, 62
1, 80372, Note_on_c, 0, 70, 66
1, 80419, Note_off_c, 0, 70, 62
1, 80446, Note_on_c, 0, 69, 61
1, 80503, Note_off_c, 0, 69, 57
1, 80506, Note_on_c, 0, 70, 63
1, 80569, Note_off_c, 0, 70, 62
1, 80581, Control_c, 0, 67, 9
1, 80585, Note_on_c, 0, 73, 61
1, 80587, Note_on_c, 0, 53, 64
1, 80596, Control_c, 0, 67, 15
1, 80600, Note_off_c, 0, 54, 63
1, 80611, Control_c, 0, 67, 23
1, 80626, Note_off_c, 0, 53, 66
1, 80626, Control_c, 0, 67, 35
1, 80641, Control_c, 0, 67, 52
1, 80652, Note_on_c, 0, 70, 57
1, 80652, Note_off_c, 0, 73, 60
1, 80655, Control_c, 0, 67, 65
1, 80670, Control_c, 0, 67, 74
1, 80685, Control_c, 0, 67, 80
1, 80694, Note_off_c, 0, 70, 65
1, 80700, Control_c, 0, 67, 84
1, 80715, Control_c, 0, 67, 86
1, 80727, Note_on_c, 0, 69, 58
1, 80796, Control_c, 0, 67, 85
1, 80811, Control_c, 0, 67, 84
1, 80813, Note_off_c, 0, 69, 58
1, 80819, Note_on_c, 0, 70, 60
1, 80826, Control_c, 0, 64, 38
1, 80826, Control_c, 0, 67, 83
1, 80841, Control_c, 0, 64, 59
1, 80841, Control_c, 0, 67, 81
1, 80856, Control_c, 0, 64, 65
1, 80856, Control_c, 0, 67, 80
1, 80870, Control_c, 0, 64, 70
1, 80870, Control_c, 0, 67, 80
1, 80883, Note_off_c, 0, 70, 61
1, 80885, Note_on_c, 0, 51, 52
1, 80885, Control_c, 0, 64, 76
1, 80885, Control_c, 0, 67, 79
1, 80890, Note_on_c, 0, 73, 70
1, 80900, Control_c, 0, 64, 85
1, 80900, Control_c, 0, 67, 79
1, 80915, Control_c, 0, 64, 96
1, 80915, Control_c, 0, 67, 78
1, 80930, Control_c, 0, 64, 113
1, 80945, Control_c, 0, 64, 127
1, 80945, Control_c, 0, 67, 77
1, 80987, Note_on_c, 0, 70, 59
1, 81033, Note_off_c, 0, 70, 60
1, 81055, Note_off_c, 0, 73, 48
1, 81056, Note_on_c, 0, 69, 63
1, 81093, Control_c, 0, 67, 78
1, 81122, Control_c, 0, 67, 78
1, 81123, Note_off_c, 0, 69, 59
1, 81138, Note_on_c, 0, 70, 70
1, 81192, Note_off_c, 0, 70, 61
1, 81198, Note_on_c, 0, 72, 77
1, 81227, Control_c, 0, 64, 98
1, 81242, Control_c, 0, 64, 75
1, 81257, Control_c, 0, 64, 0
1, 81272, Control_c, 0, 67, 79
1, 81275, Note_off_c, 0, 72, 63
1, 81281, Note_on_c, 0, 70, 70
1, 81313, Note_off_c, 0, 70, 64
1, 81326, Note_on_c, 0, 69, 67
1, 81360, Control_c, 0, 67, 78
1, 81387, Note_on_c, 0, 70, 74
1, 81397, Note_off_c, 0, 69, 58
1, 81434, Control_c, 0, 67, 78
1, 81449, Control_c, 0, 67, 77
1, 81456, Note_on_c, 0, 72, 82
1, 81458, Note_off_c, 0, 70, 64
1, 81464, Control_c, 0, 67, 76
1, 81478, Control_c, 0, 67, 74
1, 81493, Control_c, 0, 67, 67
1, 81516, Control_c, 0, 67, 51
1, 81531, Control_c, 0, 67, 31
1, 81538, Note_on_c, 0, 70, 79
1, 81544, Note_off_c, 0, 72, 64
1, 81545, Control_c, 0, 67, 9
1, 81560, Control_c, 0, 67, 0
1, 81588, Note_off_c, 0, 70, 64
1, 81592, Note_on_c, 0, 69, 76
1, 81656, Note_on_c, 0, 70, 82
1, 81675, Note_off_c, 0, 69, 62
1, 81720, Note_on_c, 0, 73, 91
1, 81727, Note_off_c, 0, 70, 64
1, 81728, Note_on_c, 0, 53, 79
1, 81745, Note_off_c, 0, 51, 64
1, 81762, Note_off_c, 0, 53, 67
1, 81799, Note_on_c, 0, 70, 79
1, 81812, Note_off_c, 0, 73, 62
1, 81846, Note_off_c, 0, 70, 65
1, 81850, Note_on_c, 0, 69, 75
1, 81916, Note_on_c, 0, 70, 82
1, 81939, Note_off_c, 0, 69, 60
1, 82019, Note_on_c, 0, 73, 86
1, 82024, Note_on_c, 0, 52, 60
1, 82031, Note_off_c, 0, 70, 62
1, 82035, Control_c, 0, 64, 53
1, 82050, Control_c, 0, 64, 65
1, 82065, Control_c, 0, 64, 73
1, 82080, Control_c, 0, 64, 85
1, 82095, Control_c, 0, 64, 102
1, 82110, Control_c, 0, 64, 127
1, 82131, Note_on_c, 0, 70, 77
1, 82183, Note_off_c, 0, 73, 59
1, 82202, Note_off_c, 0, 70, 64
1, 82223, Note_on_c, 0, 69, 72
1, 82298, Note_on_c, 0, 70, 77
1, 82302, Note_off_c, 0, 69, 56
1, 82352, Note_off_c, 0, 70, 62
1, 82360, Note_on_c, 0, 72, 76
1, 82399, Control_c, 0, 64, 98
1, 82414, Control_c, 0, 64, 73
1, 82429, Control_c, 0, 64, 0
1, 82435, Note_on_c, 0, 70, 75
1, 82437, Note_off_c, 0, 72, 62
1, 82480, Note_off_c, 0, 70, 63
1, 82492, Note_on_c, 0, 69, 69
1, 82517, Control_c, 0, 64, 44
1, 82532, Control_c, 0, 64, 50
1, 82547, Control_c, 0, 64, 50
1, 82551, Note_on_c, 0, 70, 77
1, 82557, Note_off_c, 0, 69, 59
1, 82561, Control_c, 0, 64, 51
1, 82591, Control_c, 0, 64, 49
1, 82606, Control_c, 0, 64, 26
1, 82607, Note_off_c, 0, 70, 63
1, 82616, Note_on_c, 0, 72, 77
1, 82621, Control_c, 0, 64, 0
1, 82689, Note_on_c, 0, 70, 74
1, 82691, Note_off_c, 0, 72, 62
1, 82694, Control_c, 0, 67, 9
1, 82709, Control_c, 0, 67, 11
1, 82724, Control_c, 0, 67, 15
1, 82738, Note_off_c, 0, 70, 63
1, 82739, Control_c, 0, 67, 18
1, 82749, Note_on_c, 0, 69, 70
1, 82754, Control_c, 0, 67, 22
1, 82769, Control_c, 0, 67, 27
1, 82784, Control_c, 0, 67, 32
1, 82799, Control_c, 0, 67, 37
1, 82814, Control_c, 0, 67, 42
1, 82817, Note_off_c, 0, 69, 59
1, 82820, Note_on_c, 0, 70, 68
1, 82829, Control_c, 0, 67, 49
1, 82844, Control_c, 0, 67, 60
1, 82858, Control_c, 0, 67, 69
1, 82873, Control_c, 0, 67, 74
1, 82876, Note_on_c, 0, 40, 67
1, 82882, Note_off_c, 0, 70, 61
1, 82885, Note_on_c, 0, 72, 68
1, 82888, Control_c, 0, 67, 76
1, 82903, Control_c, 0, 67, 77
1, 82918, Control_c, 0, 64, 38
1, 82933, Control_c, 0, 64, 67
1, 82945, Note_on_c, 0, 70, 48
1, 82948, Control_c, 0, 64, 74
1, 82948, Control_c, 0, 67, 75
1, 82951, Note_off_c, 0, 72, 63
1, 82963, Control_c, 0, 64, 84
1, 82963, Control_c, 0, 67, 73
1, 82977, Control_c, 0, 64, 97
1, 82977, Control_c, 0, 67, 73
1, 82986, Note_off_c, 0, 52, 58
1, 82989, Note_off_c, 0, 70, 62
1, 82992, Control_c, 0, 64, 112
1, 82992, Control_c, 0, 67, 72
1, 82996, Note_on_c, 0, 69, 69
1, 83007, Note_off_c, 0, 40, 62
1, 83014, Control_c, 0, 64, 127
1, 83067, Note_off_c, 0, 69, 54
1, 83087, Note_on_c, 0, 70, 77
1, 83171, Note_off_c, 0, 70, 62
1, 83183, Note_on_c, 0, 69, 71
1, 83207, Control_c, 0, 67, 72
1, 83216, Note_on_c, 0, 41, 55
1, 83222, Note_on_c, 0, 53, 52
1, 83281, Control_c, 0, 64, 114
1, 83296, Control_c, 0, 64, 104
1, 83310, Control_c, 0, 64, 94
1, 83325, Control_c, 0, 64, 86
1, 83332, Note_on_c, 0, 72, 68
1, 83340, Control_c, 0, 64, 79
1, 83355, Control_c, 0, 64, 73
1, 83365, Note_off_c, 0, 69, 53
1, 83370, Control_c, 0, 64, 67
1, 83384, Control_c, 0, 64, 61
1, 83399, Control_c, 0, 64, 55
1, 83414, Control_c, 0, 64, 54
1, 83420, Note_on_c, 0, 70, 73
1, 83478, Note_off_c, 0, 72, 60
1, 83488, Control_c, 0, 67, 72
1, 83502, Control_c, 0, 67, 73
1, 83506, Note_on_c, 0, 69, 78
1, 83510, Note_off_c, 0, 70, 64
1, 83532, Control_c, 0, 64, 53
1, 83547, Control_c, 0, 64, 52
1, 83562, Control_c, 0, 64, 49
1, 83578, Control_c, 0, 64, 47
1, 83592, Note_on_c, 0, 70, 82
1, 83593, Control_c, 0, 64, 44
1, 83602, Note_off_c, 0, 69, 60
1, 83607, Control_c, 0, 64, 42
1, 83622, Control_c, 0, 64, 39
1, 83637, Control_c, 0, 64, 38
1, 83656, Note_off_c, 0, 70, 63
1, 83667, Control_c, 0, 67, 72
1, 83669, Note_on_c, 0, 72, 82
1, 83681, Control_c, 0, 67, 71
1, 83696, Control_c, 0, 64, 39
1, 83696, Control_c, 0, 67, 70
1, 83711, Control_c, 0, 64, 41
1, 83711, Control_c, 0, 67, 69
1, 83726, Control_c, 0, 64, 43
1, 83726, Control_c, 0, 67, 68
1, 83741, Control_c, 0, 64, 46
1, 83741, Control_c, 0, 67, 66
1, 83743, Note_on_c, 0, 74, 86
1, 83753, Note_off_c, 0, 72, 65
1, 83763, Control_c, 0, 64, 49
1, 83778, Control_c, 0, 64, 51
1, 83778, Control_c, 0, 67, 66
1, 83793, Control_c, 0, 64, 52
1, 83807, Control_c, 0, 64, 54
1, 83807, Control_c, 0, 67, 66
1, 83822, Control_c, 0, 64, 57
1, 83830, Note_on_c, 0, 76, 79
1, 83835, Note_off_c, 0, 74, 67
1, 83837, Control_c, 0, 64, 58
1, 83852, Control_c, 0, 64, 59
1, 83852, Control_c, 0, 67, 67
1, 83867, Control_c, 0, 64, 59
1, 83882, Note_off_c, 0, 76, 62
1, 83898, Note_on_c, 0, 77, 82
1, 83911, Control_c, 0, 64, 60
1, 83911, Control_c, 0, 67, 66
1, 83925, Control_c, 0, 64, 59
1, 83925, Control_c, 0, 67, 66
1, 83955, Control_c, 0, 67, 65
1, 83970, Control_c, 0, 64, 60
1, 83970, Control_c, 0, 67, 64
1, 83971, Note_on_c, 0, 79, 85
1, 83977, Note_off_c, 0, 77, 63
1, 83985, Control_c, 0, 64, 61
1, 83985, Control_c, 0, 67, 64
1, 84000, Control_c, 0, 64, 61
1, 84000, Control_c, 0, 67, 63
1, 84015, Control_c, 0, 64, 62
1, 84015, Control_c, 0, 67, 62
1, 84030, Control_c, 0, 64, 62
1, 84030, Control_c, 0, 67, 58
1, 84038, Note_on_c, 0, 81, 87
1, 84045, Control_c, 0, 64, 63
1, 84045, Control_c, 0, 67, 55
1, 84059, Control_c, 0, 67, 50
1, 84060, Note_off_c, 0, 79, 63
1, 84074, Control_c, 0, 64, 64
1, 84074, Control_c, 0, 67, 45
1, 84089, Control_c, 0, 64, 64
1, 84089, Control_c, 0, 67, 36
1, 84104, Control_c, 0, 67, 26
1, 84111, Note_on_c, 0, 82, 87
1, 84119, Control_c, 0, 64, 65
1, 84119, Control_c, 0, 67, 14
1, 84133, Control_c, 0, 64, 65
1, 84133, Control_c, 0, 67, 0
1, 84143, Note_off_c, 0, 81, 64
1, 84148, Control_c, 0, 64, 66
1, 84167, Note_off_c, 0, 82, 63
1, 84191, Note_on_c, 0, 84, 85
1, 84193, Control_c, 0, 64, 66
1, 84251, Control_c, 0, 64, 67
1, 84270, Note_on_c, 0, 86, 89
1, 84281, Control_c, 0, 64, 66
1, 84288, Note_off_c, 0, 84, 62
1, 84325, Control_c, 0, 64, 65
1, 84340, Control_c, 0, 64, 64
1, 84348, Note_on_c, 0, 88, 85
1, 84355, Control_c, 0, 64, 63
1, 84370, Control_c, 0, 64, 57
1, 84371, Note_off_c, 0, 86, 65
1, 84386, Control_c, 0, 64, 34
1, 84401, Control_c, 0, 64, 0
1, 84466, Note_on_c, 0, 89, 71
1, 84487, Note_off_c, 0, 88, 64
1, 84630, Control_c, 0, 64, 59
1, 84632, Note_on_c, 0, 84, 78
1, 84645, Control_c, 0, 64, 67
1, 84660, Control_c, 0, 64, 74
1, 84670, Note_off_c, 0, 89, 59
1, 84674, Control_c, 0, 64, 82
1, 84689, Control_c, 0, 64, 94
1, 84704, Control_c, 0, 64, 108
1, 84719, Control_c, 0, 64, 127
1, 84741, Note_on_c, 0, 81, 70
1, 84747, Note_on_c, 0, 79, 75
1, 84768, Note_off_c, 0, 84, 61
1, 84814, Note_off_c, 0, 81, 63
1, 84816, Note_off_c, 0, 79, 53
1, 84820, Note_on_c, 0, 77, 82
1, 84864, Note_off_c, 0, 77, 64
1, 84907, Note_on_c, 0, 72, 84
1, 84990, Note_on_c, 0, 69, 83
1, 85003, Note_off_c, 0, 53, 64
1, 85016, Note_off_c, 0, 72, 62
1, 85052, Note_off_c, 0, 69, 64
1, 85059, Note_on_c, 0, 65, 77
1, 85077, Note_off_c, 0, 41, 56
1, 85100, Note_off_c, 0, 65, 61
1, 85143, Note_on_c, 0, 60, 82
1, 85215, Note_on_c, 0, 57, 81
1, 85226, Note_off_c, 0, 60, 61
1, 85294, Note_off_c, 0, 57, 65
1, 85300, Note_on_c, 0, 53, 82
1, 85335, Control_c, 0, 64, 121
1, 85350, Control_c, 0, 64, 115
1, 85365, Control_c, 0, 64, 112
1, 85379, Control_c, 0, 64, 108
1, 85382, Note_on_c, 0, 57, 85
1, 85394, Control_c, 0, 64, 106
1, 85409, Control_c, 0, 64, 103
1, 85410, Note_off_c, 0, 53, 65
1, 85424, Control_c, 0, 64, 103
1, 85439, Control_c, 0, 64, 102
1, 85468, Control_c, 0, 64, 102
1, 85471, Note_on_c, 0, 60, 87
1, 85498, Control_c, 0, 64, 101
1, 85499, Note_off_c, 0, 57, 60
1, 85512, Control_c, 0, 64, 99
1, 85527, Control_c, 0, 64, 97
1, 85542, Control_c, 0, 64, 94
1, 85556, Note_on_c, 0, 65, 88
1, 85557, Control_c, 0, 64, 90
1, 85559, Note_off_c, 0, 60, 67
1, 85572, Control_c, 0, 64, 85
1, 85586, Control_c, 0, 64, 80
1, 85601, Control_c, 0, 64, 73
1, 85616, Control_c, 0, 64, 66
1, 85631, Control_c, 0, 64, 59
1, 85645, Control_c, 0, 64, 51
1, 85648, Note_on_c, 0, 60, 75
1, 85653, Note_on_c, 0, 59, 81
1, 85660, Control_c, 0, 64, 51
1, 85687, Note_off_c, 0, 65, 62
1, 85705, Control_c, 0, 64, 49
1, 85720, Control_c, 0, 64, 44
1, 85730, Note_on_c, 0, 57, 88
1, 85735, Control_c, 0, 64, 40
1, 85750, Control_c, 0, 64, 37
1, 85763, Note_off_c, 0, 59, 52
1, 85769, Note_off_c, 0, 60, 62
1, 85794, Control_c, 0, 64, 38
1, 85809, Control_c, 0, 64, 39
1, 85815, Note_on_c, 0, 53, 81
1, 85815, Note_off_c, 0, 57, 64
1, 85823, Control_c, 0, 64, 42
1, 85838, Control_c, 0, 64, 44
1, 85853, Control_c, 0, 64, 46
1, 85868, Note_off_c, 0, 53, 64
1, 85868, Control_c, 0, 64, 47
1, 85902, Note_on_c, 0, 48, 83
1, 85973, Control_c, 0, 64, 46
1, 85988, Control_c, 0, 64, 42
1, 85992, Note_on_c, 0, 45, 83
1, 86009, Note_off_c, 0, 48, 58
1, 86009, Control_c, 0, 64, 23
1, 86024, Control_c, 0, 64, 0
1, 86095, Note_on_c, 0, 41, 83
1, 86096, Note_off_c, 0, 45, 60
1, 86135, Note_off_c, 0, 41, 63
1, 86226, Note_on_c, 0, 36, 85
1, 86261, Note_off_c, 0, 36, 60
1, 86377, Note_on_c, 0, 33, 91
1, 86406, Note_off_c, 0, 33, 65
1, 86625, Note_on_c, 0, 29, 85
1, 86996, Control_c, 0, 64, 36
1, 87011, Control_c, 0, 64, 54
1, 87025, Control_c, 0, 64, 59
1, 87040, Control_c, 0, 64, 60
1, 87055, Control_c, 0, 64, 61
1, 87070, Control_c, 0, 64, 63
1, 87084, Control_c, 0, 64, 65
1, 87099, Control_c, 0, 64, 68
1, 87114, Control_c, 0, 64, 71
1, 87129, Control_c, 0, 64, 74
1, 87144, Control_c, 0, 64, 76
1, 87158, Control_c, 0, 64, 80
1, 87173, Control_c, 0, 64, 84
1, 87188, Control_c, 0, 64, 90
1, 87203, Control_c, 0, 64, 97
1, 87218, Control_c, 0, 64, 105
1, 87232, Control_c, 0, 64, 113
1, 87247, Control_c, 0, 64, 127
1, 88537, Control_c, 0, 67, 9
1, 88552, Control_c, 0, 67, 12
1, 88567, Control_c, 0, 67, 17
1, 88582, Control_c, 0, 67, 22
1, 88596, Control_c, 0, 67, 27
1, 88611, Control_c, 0, 67, 32
1, 88626, Control_c, 0, 67, 38
1, 88641, Control_c, 0, 67, 43
1, 88656, Control_c, 0, 67, 47
1, 88671, Control_c, 0, 67, 50
1, 88686, Control_c, 0, 67, 54
1, 88701, Control_c, 0, 67, 57
1, 88715, Control_c, 0, 67, 59
1, 88730, Control_c, 0, 67, 60
1, 88939, Note_off_c, 0, 29, 47
1, 88951, Control_c, 0, 67, 60
1, 88981, Control_c, 0, 67, 61
1, 89003, Control_c, 0, 67, 61
1, 89018, Control_c, 0, 67, 62
1, 89033, Control_c, 0, 67, 65
1, 89047, Control_c, 0, 67, 70
1, 89062, Control_c, 0, 67, 74
1, 89077, Control_c, 0, 67, 79
1, 89092, Control_c, 0, 67, 84
1, 89107, Control_c, 0, 67, 89
1, 89121, Control_c, 0, 64, 124
1, 89121, Control_c, 0, 67, 95
1, 89136, Control_c, 0, 64, 114
1, 89136, Control_c, 0, 67, 101
1, 89151, Control_c, 0, 64, 109
1, 89151, Control_c, 0, 67, 107
1, 89166, Control_c, 0, 64, 105
1, 89166, Control_c, 0, 67, 113
1, 89182, Control_c, 0, 64, 102
1, 89182, Control_c, 0, 67, 118
1, 89197, Control_c, 0, 64, 98
1, 89197, Control_c, 0, 67, 124
1, 89212, Control_c, 0, 64, 94
1, 89212, Control_c, 0, 67, 127
1, 89226, Control_c, 0, 64, 90
1, 89241, Control_c, 0, 64, 85
1, 89256, Control_c, 0, 64, 78
1, 89270, Control_c, 0, 64, 70
1, 89285, Control_c, 0, 64, 59
1, 89300, Control_c, 0, 64, 0
1, 89523, Control_c, 0, 64, 11
1, 89537, Control_c, 0, 64, 17
1, 89552, Control_c, 0, 64, 23
1, 89567, Control_c, 0, 64, 27
1, 89582, Control_c, 0, 64, 30
1, 89597, Control_c, 0, 64, 32
1, 89611, Control_c, 0, 64, 34
1, 89626, Control_c, 0, 64, 35
1, 89656, Control_c, 0, 64, 27
1, 89670, Control_c, 0, 64, 0
1, 90047, Note_on_c, 0, 58, 48
1, 90075, Note_off_c, 0, 58, 57
1, 90163, Note_on_c, 0, 58, 54
1, 90206, Note_off_c, 0, 58, 58
1, 90303, Note_on_c, 0, 58, 64
1, 90316, Note_on_c, 0, 53, 46
1, 90329, Note_off_c, 0, 58, 65
1, 90437, Note_on_c, 0, 58, 55
1, 90473, Note_off_c, 0, 58, 62
1, 90564, Note_off_c, 0, 53, 61
1, 90578, Note_on_c, 0, 50, 47
1, 90582, Note_on_c, 0, 58, 66
1, 90609, Note_off_c, 0, 58, 66
1, 90713, Note_on_c, 0, 58, 58
1, 90745, Note_off_c, 0, 58, 64
1, 90829, Note_off_c, 0, 50, 64
1, 90844, Note_on_c, 0, 60, 53
1, 90849, Note_on_c, 0, 46, 53
1, 90880, Note_off_c, 0, 60, 66
1, 90891, Note_on_c, 0, 58, 64
1, 90918, Note_off_c, 0, 58, 66
1, 90945, Note_on_c, 0, 57, 51
1, 90991, Note_on_c, 0, 58, 71
1, 90995, Note_off_c, 0, 57, 58
1, 91050, Note_off_c, 0, 58, 62
1, 91054, Note_off_c, 0, 46, 58
1, 91073, Note_on_c, 0, 45, 56
1, 91073, Note_on_c, 0, 65, 70
1, 91097, Note_off_c, 0, 65, 68
1, 91209, Note_on_c, 0, 65, 66
1, 91241, Note_off_c, 0, 65, 68
1, 91344, Note_off_c, 0, 45, 62
1, 91352, Note_on_c, 0, 65, 74
1, 91371, Note_on_c, 0, 48, 50
1, 91375, Note_off_c, 0, 65, 68
1, 91488, Note_on_c, 0, 65, 69
1, 91519, Note_off_c, 0, 65, 62
1, 91602, Note_off_c, 0, 48, 60
1, 91616, Note_on_c, 0, 45, 55
1, 91623, Note_on_c, 0, 65, 72
1, 91648, Note_off_c, 0, 65, 69
1, 91756, Note_on_c, 0, 65, 68
1, 91794, Note_off_c, 0, 65, 62
1, 91861, Note_off_c, 0, 45, 64
1, 91879, Note_on_c, 0, 67, 74
1, 91892, Note_on_c, 0, 39, 56
1, 91939, Note_on_c, 0, 65, 68
1, 91949, Note_off_c, 0, 67, 59
1, 91962, Control_c, 0, 67, 127
1, 91977, Control_c, 0, 67, 121
1, 91986, Note_on_c, 0, 64, 76
1, 91996, Note_off_c, 0, 65, 63
1, 91999, Control_c, 0, 67, 114
1, 92014, Control_c, 0, 67, 103
1, 92028, Control_c, 0, 67, 93
1, 92030, Note_off_c, 0, 64, 65
1, 92036, Note_on_c, 0, 65, 71
1, 92043, Control_c, 0, 67, 84
1, 92058, Control_c, 0, 67, 75
1, 92072, Control_c, 0, 67, 68
1, 92087, Control_c, 0, 67, 64
1, 92099, Note_off_c, 0, 65, 64
1, 92102, Control_c, 0, 67, 62
1, 92105, Note_off_c, 0, 39, 60
1, 92116, Note_on_c, 0, 38, 60
1, 92117, Note_on_c, 0, 70, 80
1, 92137, Note_off_c, 0, 70, 71
1, 92162, Control_c, 0, 67, 63
1, 92177, Control_c, 0, 67, 64
1, 92191, Control_c, 0, 67, 65
1, 92206, Control_c, 0, 64, 21
1, 92206, Control_c, 0, 67, 66
1, 92221, Control_c, 0, 64, 29
1, 92221, Control_c, 0, 67, 67
1, 92236, Control_c, 0, 64, 32
1, 92251, Note_on_c, 0, 70, 88
1, 92251, Control_c, 0, 64, 35
1, 92251, Control_c, 0, 67, 68
1, 92265, Control_c, 0, 64, 37
1, 92274, Note_off_c, 0, 70, 63
1, 92280, Control_c, 0, 64, 39
1, 92295, Control_c, 0, 64, 41
1, 92295, Control_c, 0, 67, 68
1, 92310, Control_c, 0, 64, 42
1, 92325, Control_c, 0, 64, 43
1, 92376, Note_off_c, 0, 38, 61
1, 92380, Note_on_c, 0, 70, 94
1, 92381, Note_on_c, 0, 41, 70
1, 92385, Control_c, 0, 64, 42
1, 92408, Note_off_c, 0, 70, 65
1, 92415, Control_c, 0, 64, 42
1, 92488, Control_c, 0, 67, 68
1, 92517, Note_on_c, 0, 70, 94
1, 92533, Control_c, 0, 64, 41
1, 92533, Control_c, 0, 67, 67
1, 92555, Note_off_c, 0, 70, 62
1, 92556, Note_on_c, 0, 75, 30
1, 92557, Note_off_c, 0, 75, 127
1, 92562, Control_c, 0, 64, 40
1, 92621, Control_c, 0, 64, 33
1, 92636, Control_c, 0, 64, 0
1, 92641, Note_on_c, 0, 38, 73
1, 92645, Note_on_c, 0, 70, 93
1, 92651, Control_c, 0, 67, 67
1, 92666, Note_off_c, 0, 41, 60
1, 92680, Note_off_c, 0, 70, 62
1, 92681, Control_c, 0, 67, 66
1, 92695, Control_c, 0, 67, 66
1, 92710, Control_c, 0, 67, 65
1, 92725, Control_c, 0, 67, 65
1, 92748, Control_c, 0, 67, 64
1, 92763, Control_c, 0, 67, 63
1, 92777, Control_c, 0, 67, 61
1, 92792, Control_c, 0, 67, 58
1, 92793, Note_on_c, 0, 70, 86
1, 92807, Control_c, 0, 67, 50
1, 92821, Control_c, 0, 67, 37
1, 92836, Note_off_c, 0, 70, 63
1, 92836, Control_c, 0, 67, 23
1, 92851, Control_c, 0, 64, 21
1, 92851, Control_c, 0, 67, 0
1, 92866, Control_c, 0, 64, 40
1, 92881, Control_c, 0, 64, 51
1, 92895, Control_c, 0, 64, 60
1, 92910, Control_c, 0, 64, 64
1, 92925, Control_c, 0, 64, 68
1, 92926, Note_on_c, 0, 34, 79
1, 92927, Note_on_c, 0, 72, 71
1, 92940, Note_off_c, 0, 38, 62
1, 92940, Control_c, 0, 64, 70
1, 92955, Control_c, 0, 64, 71
1, 92958, Note_off_c, 0, 34, 66
1, 92969, Control_c, 0, 64, 71
1, 92978, Note_off_c, 0, 72, 63
1, 92978, Note_on_c, 0, 70, 72
1, 93014, Control_c, 0, 64, 70
1, 93020, Note_off_c, 0, 70, 63
1, 93029, Control_c, 0, 64, 68
1, 93029, Note_on_c, 0, 69, 73
1, 93044, Control_c, 0, 64, 63
1, 93059, Control_c, 0, 64, 0
1, 93095, Note_off_c, 0, 69, 61
1, 93096, Note_on_c, 0, 70, 83
1, 93123, Note_off_c, 0, 70, 64
1, 93192, Poly_aftertouch_c, 0, 75, 0
1, 93193, Control_c, 0, 64, 64
1, 93198, Note_on_c, 0, 79, 96
1, 93200, Note_on_c, 0, 51, 95
1, 93202, Note_on_c, 0, 67, 91
1, 93202, Note_on_c, 0, 75, 73
1, 93204, Note_on_c, 0, 39, 92
1, 93207, Note_on_c, 0, 70, 81
1, 93208, Control_c, 0, 64, 127
1, 93219, Note_off_c, 0, 67, 73
1, 93220, Note_off_c, 0, 51, 69
1, 93226, Note_off_c, 0, 70, 73
1, 93228, Note_off_c, 0, 39, 69
1, 93228, Note_off_c, 0, 75, 67
1, 93234, Note_off_c, 0, 79, 56
1, 93297, Control_c, 0, 64, 81
1, 93311, Control_c, 0, 64, 0
1, 93502, Note_on_c, 0, 77, 93
1, 93503, Note_on_c, 0, 70, 91
1, 93504, Note_on_c, 0, 74, 88
1, 93505, Note_on_c, 0, 65, 94
1, 93506, Note_on_c, 0, 46, 89
1, 93507, Note_on_c, 0, 34, 82
1, 93512, Control_c, 0, 64, 88
1, 93522, Note_off_c, 0, 65, 72
1, 93526, Control_c, 0, 64, 127
1, 93531, Note_off_c, 0, 46, 67
1, 93531, Note_off_c, 0, 34, 64
1, 93533, Note_off_c, 0, 70, 64
1, 93551, Note_off_c, 0, 74, 66
1, 93551, Note_off_c, 0, 77, 66
1, 93748, Control_c, 0, 64, 100
1, 93763, Control_c, 0, 64, 76
1, 93763, Control_c, 0, 67, 14
1, 93778, Control_c, 0, 64, 0
1, 93778, Control_c, 0, 67, 31
1, 93792, Control_c, 0, 67, 56
1, 93807, Control_c, 0, 67, 87
1, 93822, Control_c, 0, 67, 110
1, 93837, Control_c, 0, 67, 127
1, 94134, Note_on_c, 0, 70, 50
1, 94166, Note_off_c, 0, 70, 62
1, 94277, Note_on_c, 0, 70, 54
1, 94302, Note_off_c, 0, 70, 64
1, 94412, Note_on_c, 0, 70, 45
1, 94453, Note_off_c, 0, 70, 60
1, 94467, Control_c, 0, 67, 127
1, 94482, Control_c, 0, 67, 126
1, 94497, Control_c, 0, 67, 125
1, 94512, Control_c, 0, 67, 125
1, 94548, Note_on_c, 0, 65, 31
1, 94549, Note_on_c, 0, 80, 58
1, 94555, Note_on_c, 0, 58, 31
1, 94571, Control_c, 0, 67, 124
1, 94737, Note_on_c, 0, 70, 63
1, 94752, Note_off_c, 0, 80, 59
1, 94866, Note_off_c, 0, 70, 57
1, 94871, Note_on_c, 0, 63, 48
1, 94874, Note_on_c, 0, 79, 75
1, 94937, Note_off_c, 0, 65, 41
1, 95014, Note_on_c, 0, 70, 61
1, 95025, Note_off_c, 0, 79, 58
1, 95054, Control_c, 0, 67, 125
1, 95113, Control_c, 0, 67, 125
1, 95115, Note_off_c, 0, 63, 59
1, 95125, Note_off_c, 0, 70, 57
1, 95143, Note_on_c, 0, 62, 44
1, 95143, Control_c, 0, 67, 126
1, 95154, Note_on_c, 0, 77, 65
1, 95157, Control_c, 0, 67, 126
1, 95172, Control_c, 0, 67, 127
1, 95239, Note_off_c, 0, 77, 60
1, 95282, Note_on_c, 0, 70, 52
1, 95318, Note_off_c, 0, 70, 63
1, 95356, Note_off_c, 0, 58, 55
1, 95386, Note_off_c, 0, 62, 60
1, 95395, Control_c, 0, 67, 127
1, 95409, Control_c, 0, 67, 126
1, 95412, Note_on_c, 0, 70, 66
1, 95424, Control_c, 0, 67, 125
1, 95438, Note_off_c, 0, 70, 68
1, 95439, Control_c, 0, 67, 124
1, 95454, Control_c, 0, 67, 123
1, 95469, Control_c, 0, 67, 122
1, 95483, Control_c, 0, 67, 120
1, 95498, Control_c, 0, 67, 114
1, 95513, Control_c, 0, 67, 105
1, 95527, Control_c, 0, 67, 97
1, 95542, Control_c, 0, 67, 89
1, 95556, Note_on_c, 0, 70, 66
1, 95558, Control_c, 0, 67, 81
1, 95573, Control_c, 0, 67, 73
1, 95587, Control_c, 0, 67, 65
1, 95596, Note_off_c, 0, 70, 56
1, 95602, Control_c, 0, 67, 58
1, 95617, Control_c, 0, 67, 54
1, 95631, Control_c, 0, 64, 11
1, 95631, Control_c, 0, 67, 51
1, 95646, Control_c, 0, 64, 14
1, 95646, Control_c, 0, 67, 49
1, 95661, Control_c, 0, 64, 17
1, 95661, Control_c, 0, 67, 48
1, 95676, Control_c, 0, 64, 21
1, 95676, Control_c, 0, 67, 48
1, 95679, Note_on_c, 0, 82, 79
1, 95691, Control_c, 0, 64, 23
1, 95692, Note_on_c, 0, 67, 51
1, 95693, Note_on_c, 0, 58, 47
1, 95706, Control_c, 0, 64, 24
1, 95706, Control_c, 0, 67, 47
1, 95743, Control_c, 0, 64, 26
1, 95758, Control_c, 0, 64, 27
1, 95773, Control_c, 0, 64, 28
1, 95787, Control_c, 0, 64, 29
1, 95802, Control_c, 0, 64, 30
1, 95817, Control_c, 0, 64, 31
1, 95832, Control_c, 0, 64, 32
1, 95856, Note_on_c, 0, 70, 76
1, 95861, Control_c, 0, 64, 33
1, 95867, Note_off_c, 0, 82, 64
1, 95891, Control_c, 0, 64, 34
1, 95921, Control_c, 0, 67, 48
1, 95935, Control_c, 0, 67, 49
1, 95950, Control_c, 0, 67, 49
1, 95965, Control_c, 0, 67, 50
1, 95980, Control_c, 0, 67, 52
1, 95986, Note_on_c, 0, 80, 83
1, 95995, Control_c, 0, 67, 53
1, 95998, Note_on_c, 0, 65, 55
1, 96001, Note_off_c, 0, 70, 61
1, 96010, Control_c, 0, 67, 54
1, 96025, Control_c, 0, 64, 33
1, 96025, Control_c, 0, 67, 56
1, 96039, Control_c, 0, 64, 32
1, 96039, Control_c, 0, 67, 57
1, 96046, Note_off_c, 0, 67, 53
1, 96054, Control_c, 0, 64, 30
1, 96054, Control_c, 0, 67, 59
1, 96069, Control_c, 0, 64, 28
1, 96069, Control_c, 0, 67, 62
1, 96084, Control_c, 0, 64, 27
1, 96084, Control_c, 0, 67, 69
1, 96099, Control_c, 0, 64, 24
1, 96099, Control_c, 0, 67, 84
1, 96113, Note_on_c, 0, 70, 71
1, 96113, Control_c, 0, 64, 21
1, 96113, Control_c, 0, 67, 98
1, 96128, Control_c, 0, 64, 19
1, 96128, Control_c, 0, 67, 109
1, 96143, Control_c, 0, 64, 17
1, 96143, Control_c, 0, 67, 115
1, 96147, Note_off_c, 0, 80, 55
1, 96157, Control_c, 0, 64, 14
1, 96157, Control_c, 0, 67, 119
1, 96172, Control_c, 0, 64, 0
1, 96172, Control_c, 0, 67, 124
1, 96187, Control_c, 0, 67, 127
1, 96238, Note_off_c, 0, 70, 58
1, 96260, Note_on_c, 0, 79, 66
1, 96266, Note_off_c, 0, 65, 60
1, 96273, Note_on_c, 0, 63, 52
1, 96317, Note_off_c, 0, 79, 61
1, 96416, Note_on_c, 0, 67, 52
1, 96436, Note_off_c, 0, 58, 48
1, 96436, Note_off_c, 0, 63, 59
1, 96454, Note_off_c, 0, 67, 62
1, 96561, Note_on_c, 0, 67, 54
1, 96594, Note_off_c, 0, 67, 64
1, 96694, Note_on_c, 0, 67, 54
1, 96738, Note_off_c, 0, 67, 54
1, 96820, Note_on_c, 0, 55, 37
1, 96821, Note_on_c, 0, 62, 39
1, 96836, Note_on_c, 0, 77, 58
1, 96907, Control_c, 0, 67, 127
1, 96985, Note_on_c, 0, 67, 59
1, 96990, Note_off_c, 0, 77, 61
1, 97106, Note_off_c, 0, 67, 55
1, 97109, Note_on_c, 0, 60, 49
1, 97111, Note_on_c, 0, 75, 66
1, 97156, Note_off_c, 0, 62, 51
1, 97219, Note_off_c, 0, 75, 60
1, 97256, Note_on_c, 0, 67, 52
1, 97375, Note_off_c, 0, 67, 56
1, 97402, Note_on_c, 0, 59, 45
1, 97402, Note_on_c, 0, 74, 60
1, 97407, Note_off_c, 0, 60, 58
1, 97499, Note_off_c, 0, 74, 63
1, 97534, Note_on_c, 0, 67, 57
1, 97543, Note_off_c, 0, 55, 49
1, 97570, Note_off_c, 0, 67, 61
1, 97588, Note_off_c, 0, 59, 61
1, 97670, Note_on_c, 0, 67, 68
1, 97694, Note_off_c, 0, 67, 67
1, 97789, Control_c, 0, 67, 126
1, 97799, Note_on_c, 0, 67, 63
1, 97803, Control_c, 0, 67, 126
1, 97818, Control_c, 0, 67, 125
1, 97833, Control_c, 0, 67, 125
1, 97843, Note_off_c, 0, 67, 56
1, 97848, Control_c, 0, 67, 124
1, 97877, Control_c, 0, 67, 124
1, 97892, Control_c, 0, 67, 123
1, 97933, Note_on_c, 0, 79, 68
1, 97939, Note_on_c, 0, 63, 50
1, 97948, Note_on_c, 0, 55, 34
1, 98064, Control_c, 0, 67, 124
1, 98079, Control_c, 0, 67, 125
1, 98091, Note_on_c, 0, 67, 73
1, 98094, Control_c, 0, 67, 125
1, 98106, Note_off_c, 0, 79, 55
1, 98108, Control_c, 0, 67, 126
1, 98123, Control_c, 0, 67, 126
1, 98138, Control_c, 0, 67, 127
1, 98153, Control_c, 0, 67, 127
1, 98199, Note_off_c, 0, 67, 58
1, 98222, Note_on_c, 0, 77, 73
1, 98227, Note_on_c, 0, 62, 52
1, 98262, Note_off_c, 0, 63, 53
1, 98341, Note_off_c, 0, 77, 59
1, 98362, Note_on_c, 0, 67, 53
1, 98449, Note_off_c, 0, 67, 52
1, 98472, Note_off_c, 0, 62, 52
1, 98505, Note_on_c, 0, 60, 41
1, 98514, Note_on_c, 0, 75, 51
1, 98551, Note_off_c, 0, 75, 63
1, 98663, Note_on_c, 0, 79, 54
1, 98685, Note_off_c, 0, 79, 61
1, 98700, Note_off_c, 0, 60, 64
1, 98703, Note_off_c, 0, 55, 57
1, 98784, Control_c, 0, 67, 124
1, 98786, Note_on_c, 0, 79, 75
1, 98799, Control_c, 0, 67, 118
1, 98813, Control_c, 0, 67, 111
1, 98823, Note_off_c, 0, 79, 60
1, 98828, Control_c, 0, 67, 105
1, 98843, Control_c, 0, 67, 99
1, 98857, Control_c, 0, 67, 93
1, 98872, Control_c, 0, 67, 87
1, 98887, Control_c, 0, 64, 14
1, 98887, Control_c, 0, 67, 82
1, 98902, Control_c, 0, 64, 19
1, 98902, Control_c, 0, 67, 79
1, 98917, Note_on_c, 0, 79, 84
1, 98917, Control_c, 0, 64, 21
1, 98917, Control_c, 0, 67, 78
1, 98931, Control_c, 0, 64, 24
1, 98931, Control_c, 0, 67, 77
1, 98936, Note_off_c, 0, 79, 69
1, 98946, Control_c, 0, 64, 26
1, 98946, Control_c, 0, 67, 76
1, 98961, Control_c, 0, 67, 75
1, 98976, Control_c, 0, 64, 27
1, 98976, Control_c, 0, 67, 74
1, 98991, Control_c, 0, 64, 28
1, 98991, Control_c, 0, 67, 74
1, 99006, Control_c, 0, 67, 73
1, 99036, Control_c, 0, 67, 72
1, 99051, Control_c, 0, 64, 29
1, 99057, Note_on_c, 0, 79, 72
1, 99062, Note_on_c, 0, 51, 44
1, 99095, Control_c, 0, 64, 30
1, 99125, Control_c, 0, 64, 31
1, 99191, Note_on_c, 0, 55, 50
1, 99199, Control_c, 0, 64, 32
1, 99229, Control_c, 0, 64, 33
1, 99244, Control_c, 0, 64, 34
1, 99258, Control_c, 0, 64, 36
1, 99258, Control_c, 0, 67, 73
1, 99272, Control_c, 0, 64, 36
1, 99272, Control_c, 0, 67, 73
1, 99287, Control_c, 0, 64, 37
1, 99302, Control_c, 0, 64, 38
1, 99302, Control_c, 0, 67, 74
1, 99309, Note_off_c, 0, 55, 63
1, 99317, Control_c, 0, 67, 74
1, 99328, Note_on_c, 0, 60, 58
1, 99346, Control_c, 0, 67, 75
1, 99375, Control_c, 0, 67, 75
1, 99390, Control_c, 0, 67, 76
1, 99405, Control_c, 0, 67, 76
1, 99432, Note_off_c, 0, 51, 63
1, 99435, Control_c, 0, 64, 37
1, 99435, Control_c, 0, 67, 77
1, 99438, Note_off_c, 0, 60, 55
1, 99445, Note_on_c, 0, 55, 54
1, 99450, Control_c, 0, 64, 36
1, 99460, Note_on_c, 0, 75, 66
1, 99465, Control_c, 0, 64, 34
1, 99465, Control_c, 0, 67, 77
1, 99487, Control_c, 0, 64, 32
1, 99487, Control_c, 0, 67, 78
1, 99502, Control_c, 0, 64, 30
1, 99504, Note_off_c, 0, 79, 54
1, 99517, Control_c, 0, 64, 28
1, 99517, Control_c, 0, 67, 79
1, 99531, Control_c, 0, 64, 26
1, 99531, Control_c, 0, 67, 79
1, 99546, Control_c, 0, 64, 23
1, 99562, Control_c, 0, 64, 21
1, 99562, Control_c, 0, 67, 80
1, 99577, Control_c, 0, 64, 19
1, 99584, Note_off_c, 0, 55, 60
1, 99592, Control_c, 0, 64, 17
1, 99600, Note_on_c, 0, 51, 54
1, 99605, Note_off_c, 0, 75, 62
1, 99606, Control_c, 0, 64, 14
1, 99609, Note_on_c, 0, 72, 73
1, 99621, Control_c, 0, 64, 11
1, 99651, Control_c, 0, 64, 0
1, 99666, Control_c, 0, 67, 79
1, 99680, Control_c, 0, 67, 79
1, 99695, Control_c, 0, 67, 78
1, 99710, Note_off_c, 0, 72, 62
1, 99710, Control_c, 0, 67, 77
1, 99725, Control_c, 0, 67, 76
1, 99730, Note_on_c, 0, 55, 55
1, 99734, Note_on_c, 0, 79, 85
1, 99740, Control_c, 0, 67, 75
1, 99754, Control_c, 0, 67, 74
1, 99769, Control_c, 0, 64, 11
1, 99769, Control_c, 0, 67, 73
1, 99774, Note_off_c, 0, 79, 61
1, 99784, Control_c, 0, 64, 14
1, 99784, Control_c, 0, 67, 72
1, 99799, Control_c, 0, 64, 17
1, 99799, Control_c, 0, 67, 71
1, 99814, Control_c, 0, 64, 21
1, 99814, Control_c, 0, 67, 70
1, 99829, Control_c, 0, 64, 24
1, 99829, Control_c, 0, 67, 68
1, 99843, Control_c, 0, 64, 27
1, 99843, Control_c, 0, 67, 62
1, 99858, Control_c, 0, 64, 29
1, 99858, Control_c, 0, 67, 58
1, 99859, Note_off_c, 0, 55, 64
1, 99861, Note_on_c, 0, 79, 90
1, 99871, Note_on_c, 0, 60, 56
1, 99873, Control_c, 0, 64, 30
1, 99873, Control_c, 0, 67, 53
1, 99888, Control_c, 0, 64, 32
1, 99888, Control_c, 0, 67, 48
1, 99898, Note_off_c, 0, 79, 61
1, 99903, Control_c, 0, 64, 34
1, 99903, Control_c, 0, 67, 41
1, 99918, Control_c, 0, 64, 37
1, 99918, Control_c, 0, 67, 36
1, 99933, Control_c, 0, 64, 39
1, 99933, Control_c, 0, 67, 32
1, 99947, Control_c, 0, 64, 41
1, 99947, Control_c, 0, 67, 27
1, 99962, Control_c, 0, 64, 42
1, 99962, Control_c, 0, 67, 23
1, 99977, Control_c, 0, 64, 43
1, 99977, Control_c, 0, 67, 19
1, 99982, Note_off_c, 0, 51, 63
1, 99992, Control_c, 0, 64, 44
1, 99992, Control_c, 0, 67, 16
1, 99993, Note_on_c, 0, 79, 93
1, 99994, Note_on_c, 0, 55, 58
1, 100006, Control_c, 0, 64, 45
1, 100006, Control_c, 0, 67, 14
1, 100021, Control_c, 0, 64, 46
1, 100021, Control_c, 0, 67, 13
1, 100025, Note_off_c, 0, 79, 61
1, 100036, Control_c, 0, 64, 48
1, 100051, Control_c, 0, 64, 50
1, 100051, Control_c, 0, 67, 12
1, 100066, Control_c, 0, 64, 51
1, 100080, Control_c, 0, 64, 51
1, 100095, Control_c, 0, 64, 52
1, 100113, Note_off_c, 0, 60, 33
1, 100143, Note_on_c, 0, 79, 82
1, 100147, Note_on_c, 0, 52, 55
1, 100151, Note_off_c, 0, 55, 62
1, 100169, Control_c, 0, 64, 52
1, 100280, Control_c, 0, 67, 13
1, 100294, Note_on_c, 0, 55, 62
1, 100310, Control_c, 0, 67, 14
1, 100325, Control_c, 0, 67, 15
1, 100339, Control_c, 0, 67, 15
1, 100356, Control_c, 0, 67, 16
1, 100371, Control_c, 0, 67, 17
1, 100385, Control_c, 0, 67, 17
1, 100400, Control_c, 0, 67, 18
1, 100415, Control_c, 0, 67, 19
1, 100416, Note_off_c, 0, 55, 64
1, 100428, Note_on_c, 0, 58, 66
1, 100429, Control_c, 0, 67, 19
1, 100459, Control_c, 0, 64, 52
1, 100459, Control_c, 0, 67, 20
1, 100474, Control_c, 0, 64, 51
1, 100489, Control_c, 0, 64, 51
1, 100503, Control_c, 0, 64, 50
1, 100518, Control_c, 0, 64, 50
1, 100533, Control_c, 0, 64, 49
1, 100539, Note_on_c, 0, 55, 65
1, 100548, Control_c, 0, 64, 49
1, 100550, Note_off_c, 0, 79, 60
1, 100553, Note_on_c, 0, 76, 74
1, 100553, Note_off_c, 0, 52, 62
1, 100574, Note_off_c, 0, 58, 38
1, 100577, Control_c, 0, 64, 48
1, 100592, Control_c, 0, 64, 47
1, 100607, Control_c, 0, 64, 47
1, 100622, Control_c, 0, 64, 46
1, 100636, Control_c, 0, 64, 46
1, 100651, Control_c, 0, 64, 45
1, 100666, Control_c, 0, 64, 45
1, 100678, Note_off_c, 0, 55, 63
1, 100680, Note_on_c, 0, 52, 66
1, 100684, Note_off_c, 0, 76, 61
1, 100691, Note_on_c, 0, 73, 84
1, 100726, Control_c, 0, 67, 19
1, 100790, Note_off_c, 0, 73, 59
1, 100800, Control_c, 0, 67, 19
1, 100816, Note_on_c, 0, 55, 63
1, 100818, Note_on_c, 0, 82, 86
1, 100844, Control_c, 0, 67, 18
1, 100859, Note_off_c, 0, 82, 63
1, 100859, Control_c, 0, 64, 45
1, 100874, Control_c, 0, 67, 18
1, 100903, Control_c, 0, 64, 46
1, 100931, Note_off_c, 0, 55, 64
1, 100933, Control_c, 0, 64, 47
1, 100949, Note_on_c, 0, 58, 67
1, 100949, Note_on_c, 0, 82, 89
1, 100985, Control_c, 0, 64, 47
1, 100988, Note_off_c, 0, 82, 65
1, 101000, Control_c, 0, 64, 48
1, 101029, Control_c, 0, 64, 48
1, 101044, Control_c, 0, 64, 49
1, 101069, Note_on_c, 0, 55, 68
1, 101071, Note_off_c, 0, 52, 62
1, 101074, Control_c, 0, 64, 50
1, 101076, Note_off_c, 0, 58, 58
1, 101086, Note_on_c, 0, 82, 94
1, 101089, Control_c, 0, 64, 50
1, 101103, Control_c, 0, 64, 51
1, 101111, Note_off_c, 0, 82, 62
1, 101118, Control_c, 0, 64, 51
1, 101133, Control_c, 0, 64, 52
1, 101148, Control_c, 0, 64, 53
1, 101179, Control_c, 0, 64, 53
1, 101216, Note_on_c, 0, 82, 85
1, 101231, Note_on_c, 0, 52, 60
1, 101243, Note_off_c, 0, 55, 59
1, 101252, Control_c, 0, 64, 54
1, 101267, Control_c, 0, 64, 54
1, 101282, Control_c, 0, 64, 55
1, 101312, Control_c, 0, 64, 55
1, 101341, Control_c, 0, 64, 56
1, 101342, Note_on_c, 0, 79, 87
1, 101350, Note_off_c, 0, 82, 64
1, 101382, Note_off_c, 0, 79, 63
1, 101415, Control_c, 0, 67, 17
1, 101478, Note_on_c, 0, 79, 91
1, 101601, Note_on_c, 0, 76, 81
1, 101605, Note_off_c, 0, 79, 64
1, 101622, Control_c, 0, 64, 55
1, 101630, Note_off_c, 0, 76, 62
1, 101637, Control_c, 0, 64, 55
1, 101666, Control_c, 0, 67, 18
1, 101711, Control_c, 0, 67, 19
1, 101745, Note_on_c, 0, 76, 76
1, 101748, Control_c, 0, 64, 54
1, 101748, Control_c, 0, 67, 19
1, 101777, Control_c, 0, 67, 20
1, 101792, Control_c, 0, 64, 54
1, 101792, Control_c, 0, 67, 20
1, 101807, Control_c, 0, 67, 21
1, 101811, Note_off_c, 0, 52, 57
1, 101822, Control_c, 0, 64, 53
1, 101822, Control_c, 0, 67, 22
1, 101837, Control_c, 0, 67, 23
1, 101851, Control_c, 0, 64, 53
1, 101851, Control_c, 0, 67, 25
1, 101856, Note_off_c, 0, 76, 61
1, 101860, Note_on_c, 0, 73, 74
1, 101866, Control_c, 0, 64, 52
1, 101866, Control_c, 0, 67, 28
1, 101881, Control_c, 0, 64, 52
1, 101881, Control_c, 0, 67, 33
1, 101885, Note_off_c, 0, 73, 68
1, 101896, Control_c, 0, 64, 51
1, 101896, Control_c, 0, 67, 42
1, 101911, Control_c, 0, 64, 50
1, 101911, Control_c, 0, 67, 51
1, 101925, Control_c, 0, 64, 49
1, 101925, Control_c, 0, 67, 62
1, 101940, Control_c, 0, 64, 49
1, 101940, Control_c, 0, 67, 74
1, 101956, Control_c, 0, 64, 47
1, 101956, Control_c, 0, 67, 86
1, 101971, Control_c, 0, 64, 45
1, 101971, Control_c, 0, 67, 96
1, 101986, Control_c, 0, 64, 43
1, 101986, Control_c, 0, 67, 105
1, 102000, Control_c, 0, 64, 40
1, 102000, Control_c, 0, 67, 116
1, 102006, Note_on_c, 0, 73, 67
1, 102015, Control_c, 0, 64, 36
1, 102015, Control_c, 0, 67, 125
1, 102030, Control_c, 0, 64, 24
1, 102030, Control_c, 0, 67, 127
1, 102045, Control_c, 0, 64, 0
1, 102106, Note_off_c, 0, 73, 61
1, 102118, Note_on_c, 0, 70, 67
1, 102145, Note_off_c, 0, 70, 66
1, 102263, Note_on_c, 0, 41, 41
1, 102268, Note_on_c, 0, 69, 64
1, 102282, Control_c, 0, 64, 61
1, 102297, Control_c, 0, 64, 67
1, 102312, Note_off_c, 0, 69, 59
1, 102312, Control_c, 0, 64, 73
1, 102327, Control_c, 0, 64, 82
1, 102341, Control_c, 0, 64, 89
1, 102356, Control_c, 0, 64, 94
1, 102368, Note_off_c, 0, 41, 55
1, 102371, Control_c, 0, 64, 97
1, 102386, Control_c, 0, 64, 99
1, 102400, Control_c, 0, 64, 101
1, 102404, Note_on_c, 0, 53, 57
1, 102415, Control_c, 0, 64, 102
1, 102430, Control_c, 0, 64, 103
1, 102445, Control_c, 0, 64, 106
1, 102460, Control_c, 0, 64, 110
1, 102482, Control_c, 0, 64, 118
1, 102496, Control_c, 0, 64, 127
1, 102515, Note_off_c, 0, 53, 62
1, 102532, Note_on_c, 0, 57, 60
1, 102533, Note_on_c, 0, 65, 68
1, 102541, Control_c, 0, 64, 99
1, 102556, Control_c, 0, 64, 77
1, 102565, Note_off_c, 0, 65, 61
1, 102571, Control_c, 0, 64, 0
1, 102594, Note_on_c, 0, 67, 77
1, 102614, Note_off_c, 0, 57, 61
1, 102636, Note_on_c, 0, 53, 68
1, 102650, Note_off_c, 0, 67, 63
1, 102651, Note_on_c, 0, 69, 73
1, 102697, Note_on_c, 0, 70, 76
1, 102711, Note_off_c, 0, 69, 57
1, 102748, Note_off_c, 0, 70, 62
1, 102757, Note_off_c, 0, 53, 65
1, 102774, Note_on_c, 0, 57, 67
1, 102781, Note_on_c, 0, 72, 77
1, 102809, Control_c, 0, 67, 125
1, 102823, Control_c, 0, 67, 121
1, 102828, Note_off_c, 0, 72, 63
1, 102838, Control_c, 0, 67, 117
1, 102842, Note_on_c, 0, 74, 82
1, 102853, Control_c, 0, 67, 113
1, 102868, Control_c, 0, 67, 108
1, 102883, Control_c, 0, 67, 103
1, 102891, Note_off_c, 0, 57, 56
1, 102897, Control_c, 0, 67, 97
1, 102900, Note_on_c, 0, 76, 68
1, 102902, Note_on_c, 0, 53, 64
1, 102908, Note_off_c, 0, 74, 64
1, 102912, Control_c, 0, 67, 91
1, 102927, Control_c, 0, 67, 85
1, 102942, Control_c, 0, 67, 78
1, 102947, Note_on_c, 0, 77, 80
1, 102950, Note_off_c, 0, 76, 64
1, 102957, Control_c, 0, 67, 72
1, 102971, Control_c, 0, 67, 65
1, 102978, Note_off_c, 0, 77, 60
1, 102986, Control_c, 0, 67, 61
1, 103001, Control_c, 0, 67, 58
1, 103002, Note_off_c, 0, 53, 64
1, 103014, Note_on_c, 0, 76, 81
1, 103016, Control_c, 0, 67, 57
1, 103029, Note_on_c, 0, 57, 55
1, 103030, Control_c, 0, 67, 56
1, 103045, Control_c, 0, 67, 54
1, 103060, Control_c, 0, 67, 54
1, 103062, Note_off_c, 0, 76, 63
1, 103073, Note_on_c, 0, 77, 85
1, 103075, Control_c, 0, 67, 53
1, 103090, Control_c, 0, 67, 53
1, 103105, Control_c, 0, 67, 52
1, 103119, Note_off_c, 0, 77, 62
1, 103126, Note_off_c, 0, 57, 62
1, 103135, Note_on_c, 0, 76, 83
1, 103139, Note_on_c, 0, 53, 64
1, 103174, Note_on_c, 0, 77, 78
1, 103185, Note_off_c, 0, 76, 63
1, 103197, Note_off_c, 0, 77, 67
1, 103230, Control_c, 0, 67, 53
1, 103245, Control_c, 0, 67, 53
1, 103260, Control_c, 0, 67, 54
1, 103275, Note_off_c, 0, 53, 64
1, 103290, Control_c, 0, 67, 54
1, 103296, Note_on_c, 0, 62, 78
1, 103305, Note_on_c, 0, 58, 57
1, 103334, Control_c, 0, 67, 55
1, 103379, Control_c, 0, 67, 55
1, 103426, Note_off_c, 0, 58, 61
1, 103444, Note_on_c, 0, 53, 51
1, 103497, Control_c, 0, 67, 56
1, 103563, Note_off_c, 0, 53, 65
1, 103584, Note_on_c, 0, 58, 55
1, 103676, Control_c, 0, 67, 55
1, 103695, Note_off_c, 0, 58, 57
1, 103703, Note_on_c, 0, 53, 56
1, 103706, Control_c, 0, 67, 55
1, 103720, Control_c, 0, 67, 54
1, 103779, Control_c, 0, 67, 54
1, 103784, Note_off_c, 0, 62, 57
1, 103811, Note_off_c, 0, 53, 63
1, 103833, Note_on_c, 0, 55, 55
1, 103839, Note_on_c, 0, 64, 70
1, 103853, Control_c, 0, 67, 53
1, 103867, Note_off_c, 0, 64, 67
1, 103894, Note_on_c, 0, 65, 60
1, 103918, Note_off_c, 0, 65, 65
1, 103936, Note_off_c, 0, 55, 60
1, 103942, Note_on_c, 0, 64, 73
1, 103974, Note_on_c, 0, 53, 50
1, 103988, Note_on_c, 0, 65, 80
1, 103988, Note_off_c, 0, 64, 64
1, 104021, Note_off_c, 0, 65, 62
1, 104041, Note_on_c, 0, 64, 61
1, 104045, Note_off_c, 0, 53, 64
1, 104083, Control_c, 0, 64, 11
1, 104087, Note_off_c, 0, 64, 64
1, 104088, Note_on_c, 0, 55, 46
1, 104088, Note_on_c, 0, 65, 74
1, 104128, Note_off_c, 0, 65, 63
1, 104137, Note_on_c, 0, 64, 47
1, 104142, Control_c, 0, 67, 54
1, 104149, Note_off_c, 0, 55, 64
1, 104157, Control_c, 0, 67, 56
1, 104163, Note_on_c, 0, 53, 62
1, 104172, Control_c, 0, 67, 60
1, 104173, Note_off_c, 0, 64, 66
1, 104185, Note_off_c, 0, 53, 63
1, 104187, Control_c, 0, 64, 0
1, 104187, Control_c, 0, 67, 64
1, 104190, Note_on_c, 0, 62, 61
1, 104202, Control_c, 0, 67, 70
1, 104216, Control_c, 0, 67, 82
1, 104229, Note_off_c, 0, 62, 59
1, 104231, Control_c, 0, 67, 98
1, 104246, Control_c, 0, 67, 112
1, 104258, Note_on_c, 0, 64, 72
1, 104261, Control_c, 0, 67, 123
1, 104276, Control_c, 0, 67, 127
1, 104327, Note_on_c, 0, 41, 46
1, 104335, Note_on_c, 0, 65, 68
1, 104351, Control_c, 0, 64, 39
1, 104354, Note_off_c, 0, 64, 57
1, 104365, Control_c, 0, 64, 51
1, 104380, Control_c, 0, 64, 56
1, 104395, Control_c, 0, 64, 59
1, 104410, Control_c, 0, 64, 61
1, 104425, Control_c, 0, 64, 62
1, 104429, Note_off_c, 0, 41, 61
1, 104431, Note_off_c, 0, 65, 65
1, 104440, Control_c, 0, 64, 62
1, 104455, Control_c, 0, 64, 63
1, 104471, Note_on_c, 0, 53, 59
1, 104529, Control_c, 0, 64, 62
1, 104559, Control_c, 0, 64, 61
1, 104574, Control_c, 0, 64, 60
1, 104588, Control_c, 0, 64, 58
1, 104589, Note_off_c, 0, 53, 63
1, 104598, Note_on_c, 0, 65, 64
1, 104603, Control_c, 0, 64, 56
1, 104607, Note_on_c, 0, 57, 55
1, 104618, Control_c, 0, 64, 54
1, 104633, Control_c, 0, 64, 53
1, 104645, Note_off_c, 0, 65, 58
1, 104661, Note_on_c, 0, 67, 75
1, 104695, Note_off_c, 0, 57, 61
1, 104707, Control_c, 0, 64, 54
1, 104713, Note_on_c, 0, 53, 66
1, 104714, Note_on_c, 0, 69, 74
1, 104727, Note_off_c, 0, 67, 62
1, 104771, Note_on_c, 0, 70, 79
1, 104789, Control_c, 0, 64, 53
1, 104794, Note_off_c, 0, 69, 59
1, 104803, Control_c, 0, 67, 124
1, 104818, Control_c, 0, 67, 119
1, 104820, Note_off_c, 0, 70, 65
1, 104833, Control_c, 0, 64, 53
1, 104833, Control_c, 0, 67, 111
1, 104838, Note_off_c, 0, 53, 65
1, 104848, Control_c, 0, 67, 102
1, 104851, Note_on_c, 0, 72, 80
1, 104852, Note_on_c, 0, 57, 66
1, 104863, Control_c, 0, 67, 92
1, 104877, Control_c, 0, 67, 82
1, 104892, Control_c, 0, 67, 69
1, 104905, Note_off_c, 0, 72, 64
1, 104907, Control_c, 0, 64, 53
1, 104907, Control_c, 0, 67, 58
1, 104917, Note_on_c, 0, 74, 84
1, 104921, Control_c, 0, 64, 54
1, 104921, Control_c, 0, 67, 49
1, 104936, Control_c, 0, 64, 54
1, 104936, Control_c, 0, 67, 42
1, 104951, Control_c, 0, 64, 55
1, 104951, Control_c, 0, 67, 38
1, 104957, Note_off_c, 0, 57, 59
1, 104964, Note_on_c, 0, 53, 70
1, 104966, Control_c, 0, 64, 55
1, 104966, Control_c, 0, 67, 34
1, 104968, Note_on_c, 0, 76, 85
1, 104973, Note_off_c, 0, 74, 67
1, 104981, Control_c, 0, 67, 30
1, 104995, Control_c, 0, 64, 56
1, 104995, Control_c, 0, 67, 27
1, 105006, Note_off_c, 0, 76, 64
1, 105010, Control_c, 0, 67, 24
1, 105025, Control_c, 0, 67, 22
1, 105033, Note_on_c, 0, 77, 81
1, 105040, Control_c, 0, 64, 56
1, 105040, Control_c, 0, 67, 20
1, 105055, Control_c, 0, 67, 18
1, 105062, Note_off_c, 0, 53, 62
1, 105069, Control_c, 0, 64, 57
1, 105069, Control_c, 0, 67, 17
1, 105078, Note_on_c, 0, 57, 63
1, 105093, Note_on_c, 0, 79, 85
1, 105093, Note_off_c, 0, 77, 63
1, 105099, Control_c, 0, 64, 58
1, 105114, Control_c, 0, 64, 59
1, 105114, Control_c, 0, 67, 17
1, 105129, Control_c, 0, 64, 60
1, 105138, Note_on_c, 0, 81, 79
1, 105145, Control_c, 0, 64, 61
1, 105160, Control_c, 0, 64, 62
1, 105163, Note_off_c, 0, 79, 63
1, 105173, Note_off_c, 0, 57, 60
1, 105174, Control_c, 0, 64, 63
1, 105183, Note_on_c, 0, 82, 86
1, 105189, Control_c, 0, 64, 63
1, 105195, Note_off_c, 0, 81, 62
1, 105200, Note_on_c, 0, 53, 65
1, 105204, Control_c, 0, 64, 64
1, 105233, Control_c, 0, 64, 64
1, 105233, Control_c, 0, 67, 17
1, 105248, Control_c, 0, 67, 18
1, 105252, Note_on_c, 0, 84, 69
1, 105257, Note_off_c, 0, 82, 65
1, 105263, Control_c, 0, 67, 19
1, 105275, Note_off_c, 0, 84, 70
1, 105278, Control_c, 0, 64, 64
1, 105278, Control_c, 0, 67, 19
1, 105293, Control_c, 0, 67, 20
1, 105307, Control_c, 0, 64, 63
1, 105307, Control_c, 0, 67, 20
1, 105337, Note_off_c, 0, 53, 59
1, 105337, Control_c, 0, 64, 63
1, 105337, Control_c, 0, 67, 21
1, 105350, Note_on_c, 0, 58, 68
1, 105352, Control_c, 0, 64, 62
1, 105364, Note_on_c, 0, 62, 79
1, 105367, Control_c, 0, 64, 62
1, 105397, Control_c, 0, 64, 61
1, 105411, Control_c, 0, 64, 61
1, 105482, Note_off_c, 0, 58, 58
1, 105492, Control_c, 0, 64, 60
1, 105503, Note_on_c, 0, 53, 58
1, 105522, Control_c, 0, 64, 60
1, 105537, Control_c, 0, 64, 59
1, 105567, Control_c, 0, 64, 59
1, 105611, Control_c, 0, 64, 58
1, 105629, Note_off_c, 0, 53, 64
1, 105641, Control_c, 0, 64, 58
1, 105647, Note_on_c, 0, 58, 54
1, 105671, Control_c, 0, 64, 57
1, 105763, Note_off_c, 0, 58, 58
1, 105768, Note_on_c, 0, 53, 63
1, 105789, Control_c, 0, 67, 20
1, 105848, Control_c, 0, 67, 20
1, 105876, Note_off_c, 0, 62, 58
1, 105889, Note_off_c, 0, 53, 61
1, 105892, Control_c, 0, 64, 56
1, 105892, Control_c, 0, 67, 19
1, 105904, Note_on_c, 0, 55, 57
1, 105907, Control_c, 0, 64, 53
1, 105922, Control_c, 0, 64, 51
1, 105924, Note_on_c, 0, 64, 67
1, 105937, Control_c, 0, 64, 50
1, 105953, Note_off_c, 0, 64, 67
1, 105953, Control_c, 0, 64, 49
1, 105967, Control_c, 0, 64, 49
1, 105978, Note_on_c, 0, 65, 66
1, 106002, Note_off_c, 0, 55, 62
1, 106005, Note_off_c, 0, 65, 68
1, 106011, Control_c, 0, 64, 49
1, 106025, Note_on_c, 0, 53, 54
1, 106025, Note_on_c, 0, 64, 77
1, 106026, Control_c, 0, 64, 50
1, 106041, Control_c, 0, 64, 51
1, 106056, Control_c, 0, 64, 52
1, 106071, Control_c, 0, 64, 52
1, 106072, Note_on_c, 0, 65, 80
1, 106076, Note_off_c, 0, 64, 61
1, 106085, Control_c, 0, 64, 53
1, 106099, Note_off_c, 0, 65, 64
1, 106100, Control_c, 0, 64, 52
1, 106101, Note_off_c, 0, 53, 65
1, 106112, Note_on_c, 0, 64, 51
1, 106115, Control_c, 0, 64, 27
1, 106130, Control_c, 0, 64, 0
1, 106131, Note_on_c, 0, 55, 56
1, 106159, Note_on_c, 0, 65, 76
1, 106162, Note_off_c, 0, 64, 65
1, 106196, Note_off_c, 0, 65, 65
1, 106223, Note_on_c, 0, 64, 61
1, 106245, Note_off_c, 0, 55, 64
1, 106255, Note_off_c, 0, 64, 67
1, 106259, Note_on_c, 0, 62, 73
1, 106261, Note_on_c, 0, 53, 60
1, 106314, Note_on_c, 0, 64, 65
1, 106314, Note_off_c, 0, 62, 63
1, 106360, Control_c, 0, 67, 20
1, 106362, Note_off_c, 0, 53, 64
1, 106370, Note_on_c, 0, 65, 81
1, 106376, Note_off_c, 0, 64, 66
1, 106389, Control_c, 0, 67, 20
1, 106390, Note_off_c, 0, 65, 72
1, 106403, Note_on_c, 0, 57, 56
1, 106434, Control_c, 0, 67, 21
1, 106478, Control_c, 0, 67, 21
1, 106528, Note_on_c, 0, 69, 77
1, 106552, Control_c, 0, 64, 17
1, 106559, Note_off_c, 0, 57, 60
1, 106581, Control_c, 0, 64, 19
1, 106591, Note_on_c, 0, 70, 78
1, 106613, Note_off_c, 0, 69, 58
1, 106626, Control_c, 0, 64, 21
1, 106644, Note_off_c, 0, 70, 64
1, 106655, Note_on_c, 0, 72, 75
1, 106726, Note_on_c, 0, 70, 85
1, 106745, Control_c, 0, 64, 23
1, 106747, Note_off_c, 0, 72, 61
1, 106785, Note_on_c, 0, 69, 85
1, 106795, Note_off_c, 0, 70, 64
1, 106804, Control_c, 0, 64, 21
1, 106819, Control_c, 0, 67, 21
1, 106834, Control_c, 0, 64, 19
1, 106835, Note_off_c, 0, 69, 63
1, 106846, Note_on_c, 0, 67, 67
1, 106849, Control_c, 0, 64, 17
1, 106864, Control_c, 0, 64, 14
1, 106902, Note_on_c, 0, 65, 86
1, 106904, Note_off_c, 0, 67, 56
1, 106906, Note_on_c, 0, 41, 75
1, 106908, Note_on_c, 0, 53, 76
1, 106922, Note_off_c, 0, 65, 70
1, 106923, Control_c, 0, 64, 11
1, 106990, Control_c, 0, 64, 14
1, 107004, Control_c, 0, 64, 21
1, 107019, Control_c, 0, 64, 26
1, 107034, Control_c, 0, 64, 31
1, 107049, Control_c, 0, 64, 38
1, 107049, Control_c, 0, 67, 20
1, 107064, Control_c, 0, 64, 44
1, 107069, Note_on_c, 0, 69, 73
1, 107078, Control_c, 0, 64, 51
1, 107093, Control_c, 0, 64, 57
1, 107108, Control_c, 0, 64, 63
1, 107123, Control_c, 0, 64, 65
1, 107128, Note_on_c, 0, 70, 74
1, 107138, Control_c, 0, 64, 67
1, 107138, Control_c, 0, 67, 20
1, 107140, Note_off_c, 0, 69, 56
1, 107147, Note_off_c, 0, 41, 62
1, 107148, Note_off_c, 0, 53, 66
1, 107153, Control_c, 0, 64, 69
1, 107179, Note_off_c, 0, 70, 64
1, 107182, Control_c, 0, 64, 68
1, 107185, Note_on_c, 0, 72, 74
1, 107197, Control_c, 0, 64, 61
1, 107212, Control_c, 0, 64, 0
1, 107263, Note_on_c, 0, 70, 82
1, 107286, Control_c, 0, 67, 20
1, 107287, Note_off_c, 0, 72, 60
1, 107317, Note_on_c, 0, 69, 82
1, 107322, Note_off_c, 0, 70, 64
1, 107365, Note_off_c, 0, 69, 63
1, 107372, Note_on_c, 0, 67, 71
1, 107404, Control_c, 0, 67, 20
1, 107419, Control_c, 0, 67, 19
1, 107434, Control_c, 0, 67, 19
1, 107442, Note_on_c, 0, 65, 84
1, 107449, Control_c, 0, 64, 76
1, 107449, Control_c, 0, 67, 18
1, 107451, Note_on_c, 0, 41, 81
1, 107451, Note_on_c, 0, 53, 85
1, 107455, Note_off_c, 0, 67, 59
1, 107463, Control_c, 0, 64, 101
1, 107469, Note_off_c, 0, 65, 66
1, 107472, Note_off_c, 0, 53, 69
1, 107475, Note_off_c, 0, 41, 66
1, 107478, Control_c, 0, 64, 127
1, 107508, Control_c, 0, 67, 18
1, 107523, Control_c, 0, 67, 19
1, 107540, Control_c, 0, 64, 88
1, 107540, Control_c, 0, 67, 20
1, 107555, Control_c, 0, 64, 62
1, 107555, Control_c, 0, 67, 20
1, 107569, Control_c, 0, 64, 0
1, 107599, Control_c, 0, 67, 21
1, 107725, Control_c, 0, 67, 20
1, 107740, Control_c, 0, 67, 20
1, 107751, Note_on_c, 0, 65, 84
1, 107754, Control_c, 0, 64, 29
1, 107756, Note_on_c, 0, 60, 80
1, 107757, Note_on_c, 0, 57, 73
1, 107759, Note_on_c, 0, 53, 83
1, 107767, Note_on_c, 0, 45, 73
1, 107767, Note_on_c, 0, 48, 75
1, 107768, Note_on_c, 0, 41, 61
1, 107769, Control_c, 0, 64, 83
1, 107769, Control_c, 0, 67, 19
1, 107782, Note_off_c, 0, 57, 68
1, 107782, Note_off_c, 0, 53, 69
1, 107784, Control_c, 0, 64, 127
1, 107785, Note_off_c, 0, 60, 66
1, 107793, Note_off_c, 0, 45, 67
1, 107793, Note_off_c, 0, 48, 66
1, 107794, Note_off_c, 0, 65, 66
1, 107797, Note_off_c, 0, 41, 55
1, 107888, Control_c, 0, 64, 110
1, 107902, Control_c, 0, 64, 79
1, 107917, Control_c, 0, 64, 0
1, 108057, Note_on_c, 0, 65, 78
1, 108062, Note_on_c, 0, 53, 77
1, 108063, Note_on_c, 0, 57, 71
1, 108065, Note_on_c, 0, 45, 69
1, 108066, Note_on_c, 0, 60, 72
1, 108068, Note_on_c, 0, 48, 71
1, 108071, Note_on_c, 0, 41, 50
1, 108080, Control_c, 0, 64, 51
1, 108085, Note_off_c, 0, 53, 69
1, 108089, Note_off_c, 0, 57, 67
1, 108090, Note_off_c, 0, 48, 66
1, 108092, Note_off_c, 0, 45, 66
1, 108095, Control_c, 0, 64, 80
1, 108101, Note_off_c, 0, 41, 51
1, 108104, Note_off_c, 0, 60, 62
1, 108109, Control_c, 0, 64, 91
1, 108118, Note_off_c, 0, 65, 66
1, 108124, Control_c, 0, 64, 111
1, 108139, Control_c, 0, 64, 124
1, 108154, Control_c, 0, 64, 127
1, 108184, Control_c, 0, 67, 19
1, 108228, Control_c, 0, 67, 20
1, 108243, Control_c, 0, 67, 23
1, 108258, Control_c, 0, 67, 28
1, 108273, Control_c, 0, 67, 37
1, 108287, Control_c, 0, 67, 59
1, 108302, Control_c, 0, 67, 90
1, 108317, Control_c, 0, 64, 100
1, 108317, Control_c, 0, 67, 119
1, 108333, Control_c, 0, 64, 78
1, 108333, Control_c, 0, 67, 127
1, 108348, Control_c, 0, 64, 50
1, 108362, Control_c, 0, 64, 0
1, 108747, Note_on_c, 0, 50, 32
1, 108756, Note_on_c, 0, 70, 44
1, 108782, Note_off_c, 0, 70, 57
1, 108884, Note_on_c, 0, 70, 43
1, 108926, Note_off_c, 0, 70, 60
1, 109022, Note_on_c, 0, 62, 46
1, 109033, Note_on_c, 0, 70, 47
1, 109055, Note_off_c, 0, 70, 59
1, 109153, Note_on_c, 0, 70, 55
1, 109188, Note_off_c, 0, 70, 62
1, 109288, Note_off_c, 0, 62, 52
1, 109290, Note_on_c, 0, 58, 49
1, 109290, Note_on_c, 0, 70, 75
1, 109320, Note_off_c, 0, 70, 58
1, 109422, Note_on_c, 0, 70, 72
1, 109448, Note_off_c, 0, 70, 66
1, 109513, Note_off_c, 0, 58, 59
1, 109534, Note_on_c, 0, 53, 56
1, 109537, Note_on_c, 0, 72, 60
1, 109565, Note_off_c, 0, 50, 52
1, 109580, Note_off_c, 0, 72, 60
1, 109594, Note_on_c, 0, 70, 76
1, 109627, Note_off_c, 0, 70, 65
1, 109657, Note_on_c, 0, 69, 56
1, 109682, Note_off_c, 0, 69, 55
1, 109722, Note_on_c, 0, 70, 54
1, 109743, Note_off_c, 0, 70, 61
1, 109805, Note_off_c, 0, 53, 59
1, 109829, Note_on_c, 0, 51, 43
1, 109833, Note_on_c, 0, 77, 62
1, 109852, Note_on_c, 0, 65, 48
1, 110137, Note_on_c, 0, 60, 47
1, 110256, Note_off_c, 0, 65, 53
1, 110280, Note_on_c, 0, 75, 63
1, 110411, Note_on_c, 0, 74, 74
1, 110417, Note_on_c, 0, 57, 48
1, 110461, Note_off_c, 0, 60, 36
1, 110467, Note_off_c, 0, 77, 54
1, 110479, Note_off_c, 0, 75, 37
1, 110527, Note_off_c, 0, 74, 65
1, 110545, Note_on_c, 0, 72, 67
1, 110667, Note_off_c, 0, 72, 61
1, 110680, Note_on_c, 0, 70, 62
1, 110686, Note_on_c, 0, 53, 45
1, 110694, Note_off_c, 0, 57, 55
1, 110695, Note_off_c, 0, 51, 60
1, 110793, Note_off_c, 0, 70, 59
1, 110808, Note_on_c, 0, 69, 60
1, 110835, Note_off_c, 0, 69, 66
1, 110935, Note_off_c, 0, 53, 59
1, 110948, Note_on_c, 0, 50, 43
1, 110952, Note_on_c, 0, 70, 55
1, 110984, Note_off_c, 0, 70, 65
1, 111082, Note_on_c, 0, 70, 66
1, 111112, Note_off_c, 0, 70, 60
1, 111218, Note_on_c, 0, 70, 69
1, 111223, Note_on_c, 0, 62, 44
1, 111241, Note_off_c, 0, 70, 69
1, 111351, Note_on_c, 0, 70, 68
1, 111381, Note_off_c, 0, 70, 60
1, 111448, Note_off_c, 0, 62, 57
1, 111469, Note_on_c, 0, 58, 51
1, 111478, Note_on_c, 0, 70, 77
1, 111508, Note_off_c, 0, 70, 57
1, 111613, Note_on_c, 0, 70, 69
1, 111640, Note_off_c, 0, 70, 65
1, 111709, Note_off_c, 0, 58, 59
1, 111731, Note_on_c, 0, 53, 55
1, 111742, Note_on_c, 0, 72, 60
1, 111742, Note_off_c, 0, 50, 56
1, 111786, Note_off_c, 0, 72, 61
1, 111802, Note_on_c, 0, 70, 70
1, 111825, Note_off_c, 0, 70, 69
1, 111841, Note_on_c, 0, 69, 60
1, 111872, Note_off_c, 0, 69, 60
1, 111891, Note_on_c, 0, 70, 76
1, 111915, Note_off_c, 0, 70, 66
1, 111992, Note_off_c, 0, 53, 60
1, 112017, Note_on_c, 0, 65, 55
1, 112017, Note_on_c, 0, 77, 62
1, 112019, Note_on_c, 0, 51, 44
1, 112309, Note_on_c, 0, 60, 38
1, 112390, Note_off_c, 0, 65, 55
1, 112448, Note_on_c, 0, 75, 59
1, 112587, Note_on_c, 0, 57, 44
1, 112594, Note_on_c, 0, 74, 63
1, 112622, Note_off_c, 0, 77, 45
1, 112628, Note_off_c, 0, 75, 38
1, 112689, Note_off_c, 0, 60, 30
1, 112691, Note_off_c, 0, 74, 64
1, 112718, Note_on_c, 0, 72, 60
1, 112840, Note_off_c, 0, 72, 62
1, 112846, Note_on_c, 0, 53, 45
1, 112852, Note_on_c, 0, 70, 59
1, 112876, Note_off_c, 0, 57, 56
1, 112928, Control_c, 0, 64, 24
1, 112943, Control_c, 0, 64, 53
1, 112965, Control_c, 0, 64, 61
1, 112970, Note_off_c, 0, 53, 63
1, 112973, Note_off_c, 0, 70, 62
1, 112980, Control_c, 0, 64, 64
1, 112995, Control_c, 0, 64, 65
1, 113000, Note_off_c, 0, 51, 45
1, 113002, Note_on_c, 0, 69, 56
1, 113010, Control_c, 0, 64, 67
1, 113025, Control_c, 0, 64, 68
1, 113040, Control_c, 0, 64, 69
1, 113054, Control_c, 0, 64, 70
1, 113069, Control_c, 0, 64, 72
1, 113084, Control_c, 0, 64, 72
1, 113099, Control_c, 0, 64, 73
1, 113129, Control_c, 0, 64, 72
1, 113132, Note_off_c, 0, 69, 56
1, 113136, Note_on_c, 0, 70, 59
1, 113141, Note_on_c, 0, 50, 54
1, 113144, Control_c, 0, 64, 66
1, 113159, Control_c, 0, 64, 0
1, 113174, Note_off_c, 0, 70, 63
1, 113215, Note_on_c, 0, 72, 64
1, 113247, Note_off_c, 0, 72, 61
1, 113280, Note_on_c, 0, 74, 69
1, 113338, Note_off_c, 0, 74, 62
1, 113342, Note_on_c, 0, 75, 65
1, 113378, Note_off_c, 0, 75, 63
1, 113417, Note_on_c, 0, 77, 67
1, 113451, Note_off_c, 0, 77, 58
1, 113478, Note_on_c, 0, 79, 70
1, 113541, Note_off_c, 0, 79, 60
1, 113543, Note_on_c, 0, 81, 70
1, 113568, Note_off_c, 0, 50, 61
1, 113597, Note_on_c, 0, 82, 75
1, 113599, Note_off_c, 0, 81, 54
1, 113637, Note_off_c, 0, 82, 65
1, 113667, Note_on_c, 0, 84, 75
1, 113729, Control_c, 0, 67, 124
1, 113733, Note_off_c, 0, 84, 59
1, 113744, Note_on_c, 0, 86, 76
1, 113744, Control_c, 0, 67, 119
1, 113758, Control_c, 0, 64, 23
1, 113758, Control_c, 0, 67, 114
1, 113773, Control_c, 0, 64, 36
1, 113773, Control_c, 0, 67, 107
1, 113788, Note_on_c, 0, 87, 74
1, 113788, Control_c, 0, 64, 44
1, 113788, Control_c, 0, 67, 101
1, 113803, Control_c, 0, 64, 50
1, 113803, Control_c, 0, 67, 94
1, 113815, Note_off_c, 0, 86, 62
1, 113818, Control_c, 0, 64, 54
1, 113818, Control_c, 0, 67, 86
1, 113833, Control_c, 0, 64, 57
1, 113833, Control_c, 0, 67, 79
1, 113841, Note_off_c, 0, 87, 64
1, 113848, Control_c, 0, 64, 59
1, 113848, Control_c, 0, 67, 74
1, 113857, Note_on_c, 0, 89, 74
1, 113863, Control_c, 0, 64, 58
1, 113863, Control_c, 0, 67, 69
1, 113878, Control_c, 0, 64, 47
1, 113878, Control_c, 0, 67, 67
1, 113892, Control_c, 0, 64, 0
1, 113892, Control_c, 0, 67, 66
1, 113920, Note_on_c, 0, 87, 77
1, 113931, Note_off_c, 0, 89, 59
1, 113952, Control_c, 0, 67, 66
1, 113967, Control_c, 0, 67, 67
1, 113976, Note_on_c, 0, 86, 76
1, 113982, Control_c, 0, 67, 68
1, 113987, Note_off_c, 0, 87, 64
1, 114012, Control_c, 0, 67, 68
1, 114020, Note_off_c, 0, 86, 65
1, 114027, Control_c, 0, 67, 69
1, 114039, Note_on_c, 0, 84, 67
1, 114041, Control_c, 0, 67, 70
1, 114071, Control_c, 0, 67, 70
1, 114086, Control_c, 0, 67, 71
1, 114092, Note_on_c, 0, 82, 81
1, 114097, Note_off_c, 0, 84, 58
1, 114160, Note_on_c, 0, 81, 79
1, 114175, Control_c, 0, 67, 70
1, 114182, Note_off_c, 0, 82, 61
1, 114189, Control_c, 0, 67, 70
1, 114204, Control_c, 0, 67, 69
1, 114219, Control_c, 0, 67, 68
1, 114220, Note_on_c, 0, 79, 77
1, 114224, Note_off_c, 0, 81, 64
1, 114234, Control_c, 0, 67, 68
1, 114248, Control_c, 0, 67, 67
1, 114262, Note_off_c, 0, 79, 63
1, 114262, Control_c, 0, 67, 67
1, 114277, Control_c, 0, 67, 66
1, 114286, Note_on_c, 0, 77, 70
1, 114292, Control_c, 0, 64, 19
1, 114307, Control_c, 0, 64, 30
1, 114307, Control_c, 0, 67, 66
1, 114322, Control_c, 0, 64, 37
1, 114336, Note_on_c, 0, 75, 80
1, 114337, Control_c, 0, 64, 44
1, 114343, Note_off_c, 0, 77, 62
1, 114351, Control_c, 0, 64, 50
1, 114366, Control_c, 0, 64, 54
1, 114381, Control_c, 0, 64, 56
1, 114396, Control_c, 0, 64, 55
1, 114408, Note_on_c, 0, 74, 78
1, 114411, Control_c, 0, 64, 33
1, 114417, Note_off_c, 0, 75, 64
1, 114426, Control_c, 0, 64, 0
1, 114441, Control_c, 0, 67, 66
1, 114449, Note_off_c, 0, 74, 66
1, 114474, Note_on_c, 0, 72, 67
1, 114477, Control_c, 0, 67, 67
1, 114492, Control_c, 0, 67, 67
1, 114527, Note_on_c, 0, 70, 76
1, 114536, Control_c, 0, 67, 68
1, 114539, Note_off_c, 0, 72, 64
1, 114566, Control_c, 0, 67, 68
1, 114598, Note_on_c, 0, 69, 82
1, 114633, Note_off_c, 0, 70, 63
1, 114664, Note_on_c, 0, 67, 81
1, 114670, Note_off_c, 0, 69, 65
1, 114700, Control_c, 0, 64, 56
1, 114712, Note_off_c, 0, 67, 63
1, 114714, Control_c, 0, 64, 33
1, 114720, Note_on_c, 0, 65, 77
1, 114730, Control_c, 0, 64, 19
1, 114745, Control_c, 0, 64, 30
1, 114760, Control_c, 0, 64, 36
1, 114775, Control_c, 0, 64, 40
1, 114781, Note_off_c, 0, 65, 62
1, 114788, Note_on_c, 0, 63, 78
1, 114790, Control_c, 0, 64, 43
1, 114804, Control_c, 0, 64, 45
1, 114819, Control_c, 0, 64, 49
1, 114834, Control_c, 0, 64, 53
1, 114844, Note_on_c, 0, 62, 75
1, 114849, Control_c, 0, 64, 56
1, 114864, Control_c, 0, 64, 59
1, 114864, Control_c, 0, 67, 68
1, 114864, Note_off_c, 0, 63, 62
1, 114878, Control_c, 0, 64, 62
1, 114878, Control_c, 0, 67, 66
1, 114891, Note_off_c, 0, 62, 64
1, 114893, Control_c, 0, 64, 62
1, 114893, Control_c, 0, 67, 65
1, 114899, Note_on_c, 0, 60, 79
1, 114908, Control_c, 0, 64, 62
1, 114908, Control_c, 0, 67, 63
1, 114923, Control_c, 0, 64, 61
1, 114923, Control_c, 0, 67, 57
1, 114937, Control_c, 0, 64, 60
1, 114937, Control_c, 0, 67, 48
1, 114952, Control_c, 0, 67, 39
1, 114957, Note_on_c, 0, 58, 83
1, 114967, Control_c, 0, 67, 32
1, 114980, Note_off_c, 0, 60, 65
1, 114982, Control_c, 0, 67, 30
1, 114997, Control_c, 0, 67, 30
1, 115011, Control_c, 0, 67, 29
1, 115026, Control_c, 0, 64, 59
1, 115026, Control_c, 0, 67, 29
1, 115031, Note_on_c, 0, 57, 81
1, 115041, Control_c, 0, 67, 27
1, 115056, Control_c, 0, 67, 24
1, 115070, Note_off_c, 0, 58, 64
1, 115071, Control_c, 0, 64, 59
1, 115071, Control_c, 0, 67, 21
1, 115079, Note_on_c, 0, 55, 78
1, 115085, Control_c, 0, 64, 58
1, 115085, Control_c, 0, 67, 19
1, 115098, Note_off_c, 0, 57, 62
1, 115100, Control_c, 0, 64, 58
1, 115100, Control_c, 0, 67, 17
1, 115115, Control_c, 0, 64, 57
1, 115115, Control_c, 0, 67, 16
1, 115130, Control_c, 0, 64, 55
1, 115137, Note_off_c, 0, 55, 65
1, 115144, Note_on_c, 0, 53, 78
1, 115144, Control_c, 0, 64, 53
1, 115144, Control_c, 0, 67, 16
1, 115159, Note_on_c, 0, 50, 88
1, 115159, Control_c, 0, 64, 50
1, 115164, Note_on_c, 0, 38, 84
1, 115174, Control_c, 0, 64, 49
1, 115189, Control_c, 0, 64, 48
1, 115211, Control_c, 0, 64, 48
1, 115211, Control_c, 0, 67, 15
1, 115220, Note_on_c, 0, 55, 80
1, 115224, Note_off_c, 0, 53, 67
1, 115241, Control_c, 0, 67, 15
1, 115256, Control_c, 0, 64, 49
1, 115256, Control_c, 0, 67, 14
1, 115271, Control_c, 0, 64, 50
1, 115285, Control_c, 0, 64, 52
1, 115285, Control_c, 0, 67, 14
1, 115289, Note_on_c, 0, 57, 76
1, 115300, Control_c, 0, 64, 54
1, 115309, Note_off_c, 0, 55, 60
1, 115315, Control_c, 0, 64, 56
1, 115315, Control_c, 0, 67, 13
1, 115329, Control_c, 0, 64, 57
1, 115329, Control_c, 0, 67, 12
1, 115336, Note_on_c, 0, 58, 78
1, 115344, Control_c, 0, 64, 57
1, 115344, Control_c, 0, 67, 10
1, 115359, Control_c, 0, 64, 57
1, 115359, Control_c, 0, 67, 0
1, 115367, Note_off_c, 0, 57, 62
1, 115374, Control_c, 0, 64, 47
1, 115389, Control_c, 0, 64, 0
1, 115390, Note_off_c, 0, 58, 64
1, 115418, Note_on_c, 0, 60, 78
1, 115481, Note_on_c, 0, 62, 80
1, 115489, Note_off_c, 0, 60, 64
1, 115511, Note_off_c, 0, 38, 63
1, 115531, Note_off_c, 0, 50, 66
1, 115536, Note_on_c, 0, 63, 82
1, 115555, Note_off_c, 0, 62, 62
1, 115589, Note_on_c, 0, 65, 79
1, 115619, Note_off_c, 0, 63, 62
1, 115655, Note_on_c, 0, 51, 88
1, 115660, Note_on_c, 0, 39, 78
1, 115672, Note_off_c, 0, 65, 63
1, 115672, Control_c, 0, 64, 64
1, 115675, Note_on_c, 0, 55, 82
1, 115678, Note_off_c, 0, 51, 72
1, 115685, Note_off_c, 0, 39, 65
1, 115687, Control_c, 0, 64, 59
1, 115701, Control_c, 0, 64, 55
1, 115716, Control_c, 0, 64, 57
1, 115731, Control_c, 0, 64, 57
1, 115746, Control_c, 0, 64, 58
1, 115760, Control_c, 0, 64, 59
1, 115775, Control_c, 0, 64, 61
1, 115790, Control_c, 0, 64, 61
1, 115791, Note_off_c, 0, 55, 63
1, 115816, Note_on_c, 0, 67, 81
1, 115840, Note_off_c, 0, 67, 62
1, 115878, Control_c, 0, 64, 61
1, 115956, Note_on_c, 0, 48, 81
1, 115961, Note_on_c, 0, 67, 80
1, 115966, Note_on_c, 0, 36, 61
1, 115978, Note_off_c, 0, 48, 67
1, 115994, Note_off_c, 0, 67, 60
1, 115995, Note_off_c, 0, 36, 56
1, 116005, Control_c, 0, 64, 60
1, 116078, Control_c, 0, 64, 60
1, 116093, Control_c, 0, 64, 59
1, 116105, Note_on_c, 0, 67, 84
1, 116108, Control_c, 0, 64, 59
1, 116123, Control_c, 0, 64, 58
1, 116139, Note_off_c, 0, 67, 62
1, 116182, Control_c, 0, 64, 58
1, 116212, Control_c, 0, 64, 56
1, 116226, Control_c, 0, 64, 53
1, 116227, Note_on_c, 0, 57, 74
1, 116241, Control_c, 0, 64, 46
1, 116244, Note_on_c, 0, 41, 88
1, 116244, Note_on_c, 0, 53, 89
1, 116256, Control_c, 0, 64, 29
1, 116271, Control_c, 0, 64, 0
1, 116288, Note_off_c, 0, 57, 63
1, 116292, Note_on_c, 0, 58, 76
1, 116359, Note_on_c, 0, 60, 78
1, 116361, Note_off_c, 0, 58, 63
1, 116390, Note_off_c, 0, 60, 66
1, 116433, Note_on_c, 0, 62, 76
1, 116505, Note_off_c, 0, 62, 62
1, 116507, Note_on_c, 0, 63, 79
1, 116538, Control_c, 0, 64, 11
1, 116553, Control_c, 0, 64, 17
1, 116558, Note_on_c, 0, 65, 78
1, 116561, Note_off_c, 0, 41, 61
1, 116566, Note_off_c, 0, 53, 64
1, 116567, Control_c, 0, 64, 23
1, 116580, Note_off_c, 0, 63, 63
1, 116582, Control_c, 0, 64, 27
1, 116597, Control_c, 0, 64, 30
1, 116612, Control_c, 0, 64, 33
1, 116627, Control_c, 0, 64, 36
1, 116629, Poly_aftertouch_c, 0, 44, 0
1, 116632, Note_on_c, 0, 67, 73
1, 116632, Note_off_c, 0, 65, 66
1, 116641, Control_c, 0, 64, 38
1, 116656, Control_c, 0, 64, 40
1, 116671, Control_c, 0, 64, 40
1, 116682, Note_on_c, 0, 69, 74
1, 116706, Note_off_c, 0, 67, 59
1, 116708, Control_c, 0, 64, 41
1, 116723, Control_c, 0, 64, 40
1, 116738, Control_c, 0, 64, 24
1, 116753, Control_c, 0, 64, 0
1, 116767, Note_off_c, 0, 69, 62
1, 116776, Note_on_c, 0, 55, 79
1, 116779, Note_on_c, 0, 43, 80
1, 116793, Note_on_c, 0, 58, 83
1, 116799, Note_off_c, 0, 55, 67
1, 116806, Note_off_c, 0, 43, 66
1, 116906, Note_off_c, 0, 58, 62
1, 116933, Note_on_c, 0, 70, 78
1, 116945, Control_c, 0, 64, 21
1, 116960, Control_c, 0, 64, 24
1, 116975, Control_c, 0, 64, 26
1, 116975, Note_off_c, 0, 70, 62
1, 117049, Control_c, 0, 64, 27
1, 117061, Note_on_c, 0, 51, 85
1, 117064, Control_c, 0, 64, 29
1, 117067, Note_on_c, 0, 39, 75
1, 117073, Note_on_c, 0, 70, 78
1, 117079, Control_c, 0, 64, 31
1, 117085, Note_off_c, 0, 51, 72
1, 117094, Control_c, 0, 64, 32
1, 117094, Note_off_c, 0, 39, 64
1, 117108, Control_c, 0, 64, 34
1, 117109, Note_off_c, 0, 70, 63
1, 117124, Control_c, 0, 64, 36
1, 117139, Control_c, 0, 64, 39
1, 117154, Control_c, 0, 64, 42
1, 117168, Control_c, 0, 64, 43
1, 117183, Control_c, 0, 64, 44
1, 117198, Control_c, 0, 64, 45
1, 117221, Note_on_c, 0, 70, 78
1, 117228, Control_c, 0, 64, 45
1, 117249, Note_off_c, 0, 70, 65
1, 117288, Control_c, 0, 64, 45
1, 117317, Control_c, 0, 64, 44
1, 117332, Control_c, 0, 64, 43
1, 117347, Control_c, 0, 64, 42
1, 117356, Note_on_c, 0, 60, 66
1, 117362, Control_c, 0, 64, 40
1, 117368, Note_on_c, 0, 45, 81
1, 117368, Note_on_c, 0, 57, 77
1, 117377, Control_c, 0, 64, 38
1, 117392, Control_c, 0, 64, 38
1, 117406, Control_c, 0, 64, 36
1, 117413, Note_off_c, 0, 60, 64
1, 117423, Note_on_c, 0, 62, 68
1, 117492, Note_on_c, 0, 63, 81
1, 117499, Note_off_c, 0, 62, 63
1, 117548, Note_off_c, 0, 63, 61
1, 117563, Note_on_c, 0, 65, 78
1, 117606, Control_c, 0, 64, 36
1, 117629, Note_on_c, 0, 67, 82
1, 117630, Note_off_c, 0, 65, 62
1, 117648, Note_off_c, 0, 45, 63
1, 117661, Note_off_c, 0, 57, 63
1, 117680, Control_c, 0, 64, 35
1, 117685, Note_on_c, 0, 69, 80
1, 117709, Note_off_c, 0, 67, 62
1, 117741, Note_on_c, 0, 70, 75
1, 117758, Note_off_c, 0, 69, 61
1, 117798, Control_c, 0, 64, 36
1, 117812, Note_on_c, 0, 72, 73
1, 117843, Note_off_c, 0, 70, 61
1, 117887, Note_off_c, 0, 72, 59
1, 117887, Control_c, 0, 64, 36
1, 117898, Note_on_c, 0, 46, 58
1, 117898, Note_on_c, 0, 58, 59
1, 117908, Note_on_c, 0, 62, 65
1, 118057, Note_off_c, 0, 62, 61
1, 118079, Note_on_c, 0, 74, 69
1, 118096, Control_c, 0, 64, 37
1, 118125, Control_c, 0, 64, 38
1, 118140, Control_c, 0, 64, 39
1, 118155, Control_c, 0, 64, 40
1, 118170, Control_c, 0, 64, 40
1, 118185, Control_c, 0, 64, 42
1, 118207, Control_c, 0, 64, 42
1, 118215, Note_on_c, 0, 48, 60
1, 118222, Control_c, 0, 64, 43
1, 118228, Note_on_c, 0, 63, 62
1, 118233, Note_off_c, 0, 74, 62
1, 118266, Control_c, 0, 64, 43
1, 118295, Control_c, 0, 64, 44
1, 118325, Control_c, 0, 64, 44
1, 118355, Control_c, 0, 64, 45
1, 118367, Note_on_c, 0, 75, 66
1, 118388, Note_off_c, 0, 63, 57
1, 118400, Control_c, 0, 64, 45
1, 118444, Control_c, 0, 64, 46
1, 118480, Note_off_c, 0, 75, 59
1, 118488, Control_c, 0, 64, 46
1, 118501, Note_on_c, 0, 49, 62
1, 118504, Note_off_c, 0, 46, 16
1, 118507, Note_on_c, 0, 64, 69
1, 118547, Control_c, 0, 64, 47
1, 118552, Note_off_c, 0, 48, 59
1, 118638, Note_off_c, 0, 64, 51
1, 118646, Note_on_c, 0, 76, 79
1, 118770, Control_c, 0, 64, 47
1, 118772, Note_on_c, 0, 50, 65
1, 118778, Note_off_c, 0, 49, 62
1, 118784, Note_on_c, 0, 65, 84
1, 118798, Note_off_c, 0, 76, 61
1, 118800, Control_c, 0, 64, 48
1, 118815, Control_c, 0, 64, 48
1, 118830, Control_c, 0, 64, 49
1, 118859, Control_c, 0, 64, 50
1, 118874, Note_off_c, 0, 58, 63
1, 118889, Control_c, 0, 64, 50
1, 118903, Control_c, 0, 64, 51
1, 118921, Note_on_c, 0, 77, 77
1, 118922, Note_off_c, 0, 65, 58
1, 118933, Control_c, 0, 64, 51
1, 118956, Control_c, 0, 64, 52
1, 118971, Control_c, 0, 64, 52
1, 118985, Control_c, 0, 64, 53
1, 119000, Control_c, 0, 64, 53
1, 119015, Control_c, 0, 64, 54
1, 119030, Control_c, 0, 64, 54
1, 119045, Control_c, 0, 64, 55
1, 119059, Control_c, 0, 64, 55
1, 119060, Note_on_c, 0, 51, 71
1, 119061, Note_on_c, 0, 60, 70
1, 119064, Note_on_c, 0, 66, 76
1, 119074, Control_c, 0, 64, 56
1, 119080, Note_off_c, 0, 77, 60
1, 119089, Control_c, 0, 64, 56
1, 119103, Control_c, 0, 64, 57
1, 119118, Control_c, 0, 64, 58
1, 119133, Control_c, 0, 64, 58
1, 119148, Control_c, 0, 64, 59
1, 119163, Control_c, 0, 64, 60
1, 119178, Control_c, 0, 64, 60
1, 119191, Note_off_c, 0, 50, 48
1, 119205, Note_off_c, 0, 51, 64
1, 119207, Control_c, 0, 64, 61
1, 119211, Note_on_c, 0, 78, 78
1, 119229, Note_off_c, 0, 66, 62
1, 119252, Control_c, 0, 64, 61
1, 119314, Note_off_c, 0, 78, 61
1, 119344, Note_on_c, 0, 52, 69
1, 119353, Note_on_c, 0, 67, 73
1, 119355, Note_on_c, 0, 61, 70
1, 119356, Control_c, 0, 64, 61
1, 119385, Control_c, 0, 64, 60
1, 119429, Control_c, 0, 64, 60
1, 119444, Control_c, 0, 64, 59
1, 119459, Note_off_c, 0, 60, 55
1, 119459, Control_c, 0, 64, 59
1, 119494, Note_on_c, 0, 79, 78
1, 119497, Note_off_c, 0, 52, 61
1, 119505, Note_off_c, 0, 67, 58
1, 119534, Control_c, 0, 64, 59
1, 119658, Note_on_c, 0, 70, 68
1, 119659, Note_on_c, 0, 53, 50
1, 119705, Control_c, 0, 64, 59
1, 119720, Control_c, 0, 64, 58
1, 119749, Control_c, 0, 64, 58
1, 119779, Control_c, 0, 64, 57
1, 119811, Note_off_c, 0, 79, 50
1, 119912, Control_c, 0, 64, 57
1, 119941, Control_c, 0, 64, 56
1, 119968, Note_on_c, 0, 62, 58
1, 119971, Control_c, 0, 64, 56
1, 119986, Control_c, 0, 64, 55
1, 120000, Control_c, 0, 67, 8
1, 120015, Control_c, 0, 64, 55
1, 120015, Control_c, 0, 67, 9
1, 120030, Control_c, 0, 67, 10
1, 120045, Control_c, 0, 64, 54
1, 120045, Control_c, 0, 67, 12
1, 120060, Control_c, 0, 64, 54
1, 120060, Control_c, 0, 67, 14
1, 120063, Note_off_c, 0, 61, 62
1, 120075, Control_c, 0, 67, 16
1, 120090, Control_c, 0, 64, 53
1, 120090, Control_c, 0, 67, 19
1, 120105, Control_c, 0, 64, 53
1, 120105, Control_c, 0, 67, 21
1, 120119, Control_c, 0, 67, 25
1, 120134, Control_c, 0, 64, 52
1, 120134, Control_c, 0, 67, 29
1, 120149, Control_c, 0, 67, 33
1, 120164, Control_c, 0, 64, 51
1, 120164, Control_c, 0, 67, 37
1, 120179, Control_c, 0, 64, 50
1, 120179, Control_c, 0, 67, 42
1, 120193, Control_c, 0, 64, 49
1, 120193, Control_c, 0, 67, 46
1, 120208, Control_c, 0, 64, 48
1, 120208, Control_c, 0, 67, 52
1, 120223, Control_c, 0, 64, 46
1, 120223, Control_c, 0, 67, 58
1, 120238, Control_c, 0, 64, 44
1, 120238, Control_c, 0, 67, 66
1, 120252, Control_c, 0, 64, 40
1, 120252, Control_c, 0, 67, 77
1, 120267, Note_on_c, 0, 63, 57
1, 120267, Control_c, 0, 64, 33
1, 120267, Control_c, 0, 67, 88
1, 120282, Control_c, 0, 64, 24
1, 120282, Control_c, 0, 67, 100
1, 120297, Control_c, 0, 64, 0
1, 120297, Control_c, 0, 67, 113
1, 120313, Control_c, 0, 67, 124
1, 120328, Control_c, 0, 67, 127
1, 120340, Note_off_c, 0, 53, 62
1, 120353, Note_off_c, 0, 62, 54
1, 120554, Note_on_c, 0, 53, 46
1, 120561, Note_off_c, 0, 70, 59
1, 120579, Note_on_c, 0, 74, 50
1, 120587, Control_c, 0, 64, 60
1, 120601, Note_on_c, 0, 69, 35
1, 120602, Control_c, 0, 64, 66
1, 120617, Control_c, 0, 64, 72
1, 120619, Note_off_c, 0, 53, 61
1, 120631, Control_c, 0, 64, 78
1, 120640, Note_off_c, 0, 63, 60
1, 120646, Control_c, 0, 64, 84
1, 120661, Control_c, 0, 64, 89
1, 120675, Control_c, 0, 64, 93
1, 120690, Control_c, 0, 64, 97
1, 120705, Control_c, 0, 64, 99
1, 120716, Note_on_c, 0, 72, 52
1, 120720, Control_c, 0, 64, 101
1, 120735, Control_c, 0, 64, 102
1, 120740, Note_off_c, 0, 69, 38
1, 120764, Control_c, 0, 64, 102
1, 120794, Control_c, 0, 64, 102
1, 120811, Note_off_c, 0, 74, 38
1, 120823, Control_c, 0, 64, 100
1, 120825, Note_off_c, 0, 72, 54
1, 120838, Control_c, 0, 64, 92
1, 120853, Control_c, 0, 64, 78
1, 120867, Note_on_c, 0, 58, 39
1, 120868, Control_c, 0, 64, 65
1, 120869, Note_on_c, 0, 70, 43
1, 120874, Note_on_c, 0, 62, 29
1, 120883, Control_c, 0, 64, 0
1, 120894, Note_off_c, 0, 70, 59
1, 120980, Note_off_c, 0, 58, 58
1, 120991, Note_off_c, 0, 62, 56
1, 121011, Note_on_c, 0, 70, 46
1, 121026, Note_on_c, 0, 65, 48
1, 121039, Note_off_c, 0, 70, 64
1, 121123, Note_off_c, 0, 65, 57
1, 121136, Note_on_c, 0, 70, 65
1, 121157, Note_on_c, 0, 67, 46
1, 121162, Note_off_c, 0, 70, 68
1, 121239, Note_off_c, 0, 67, 61
1, 121276, Note_on_c, 0, 65, 40
1, 121285, Note_on_c, 0, 70, 60
1, 121312, Note_off_c, 0, 70, 65
1, 121376, Note_off_c, 0, 65, 60
1, 121395, Note_on_c, 0, 63, 49
1, 121415, Note_on_c, 0, 70, 53
1, 121440, Note_off_c, 0, 70, 60
1, 121498, Control_c, 0, 64, 11
1, 121511, Note_off_c, 0, 63, 61
1, 121530, Note_on_c, 0, 70, 55
1, 121536, Note_on_c, 0, 62, 46
1, 121558, Control_c, 0, 64, 14
1, 121562, Note_off_c, 0, 70, 66
1, 121592, Note_off_c, 0, 62, 54
1, 121657, Note_on_c, 0, 60, 49
1, 121665, Note_on_c, 0, 72, 54
1, 121690, Control_c, 0, 64, 11
1, 121697, Note_off_c, 0, 72, 66
1, 121710, Note_on_c, 0, 70, 69
1, 121735, Note_off_c, 0, 70, 69
1, 121760, Note_on_c, 0, 69, 51
1, 121765, Control_c, 0, 64, 0
1, 121765, Note_off_c, 0, 60, 53
1, 121780, Note_on_c, 0, 58, 53
1, 121782, Note_off_c, 0, 69, 57
1, 121805, Note_on_c, 0, 70, 77
1, 121833, Note_off_c, 0, 70, 64
1, 121876, Note_off_c, 0, 58, 62
1, 121908, Note_on_c, 0, 57, 47
1, 121913, Note_on_c, 0, 77, 68
1, 121918, Note_on_c, 0, 65, 61
1, 122024, Note_off_c, 0, 57, 61
1, 122049, Note_on_c, 0, 53, 55
1, 122171, Note_off_c, 0, 53, 61
1, 122187, Note_on_c, 0, 55, 59
1, 122248, Note_off_c, 0, 65, 52
1, 122309, Note_off_c, 0, 55, 61
1, 122313, Note_on_c, 0, 75, 66
1, 122316, Note_on_c, 0, 57, 59
1, 122437, Note_off_c, 0, 77, 48
1, 122445, Note_on_c, 0, 74, 71
1, 122451, Note_off_c, 0, 57, 60
1, 122456, Note_on_c, 0, 58, 64
1, 122489, Note_off_c, 0, 75, 45
1, 122558, Note_off_c, 0, 58, 63
1, 122567, Note_off_c, 0, 74, 65
1, 122582, Note_on_c, 0, 72, 71
1, 122591, Note_on_c, 0, 60, 52
1, 122704, Note_off_c, 0, 60, 62
1, 122725, Note_off_c, 0, 72, 62
1, 122728, Note_on_c, 0, 70, 68
1, 122731, Note_on_c, 0, 62, 44
1, 122828, Note_off_c, 0, 62, 60
1, 122842, Note_off_c, 0, 70, 62
1, 122856, Note_on_c, 0, 63, 46
1, 122859, Note_on_c, 0, 69, 60
1, 122887, Note_off_c, 0, 69, 65
1, 122922, Control_c, 0, 64, 11
1, 122951, Control_c, 0, 64, 14
1, 122972, Note_off_c, 0, 63, 58
1, 122996, Note_on_c, 0, 70, 54
1, 122999, Note_on_c, 0, 62, 41
1, 123011, Control_c, 0, 64, 17
1, 123025, Note_off_c, 0, 70, 65
1, 123056, Control_c, 0, 64, 19
1, 123092, Note_off_c, 0, 62, 61
1, 123100, Control_c, 0, 64, 21
1, 123121, Note_on_c, 0, 70, 71
1, 123130, Control_c, 0, 64, 23
1, 123130, Note_on_c, 0, 65, 53
1, 123144, Control_c, 0, 64, 26
1, 123150, Note_off_c, 0, 70, 63
1, 123159, Control_c, 0, 64, 28
1, 123174, Control_c, 0, 64, 29
1, 123189, Control_c, 0, 64, 31
1, 123204, Control_c, 0, 64, 32
1, 123218, Control_c, 0, 64, 34
1, 123233, Control_c, 0, 64, 36
1, 123237, Note_off_c, 0, 65, 59
1, 123248, Control_c, 0, 64, 36
1, 123253, Note_on_c, 0, 70, 79
1, 123262, Control_c, 0, 64, 38
1, 123268, Note_on_c, 0, 67, 48
1, 123274, Note_off_c, 0, 70, 67
1, 123277, Control_c, 0, 64, 38
1, 123292, Control_c, 0, 64, 39
1, 123307, Control_c, 0, 64, 40
1, 123322, Control_c, 0, 64, 40
1, 123336, Control_c, 0, 64, 41
1, 123351, Control_c, 0, 64, 42
1, 123354, Note_off_c, 0, 67, 60
1, 123366, Control_c, 0, 64, 42
1, 123388, Note_on_c, 0, 70, 78
1, 123392, Note_on_c, 0, 65, 48
1, 123422, Note_off_c, 0, 70, 64
1, 123504, Note_off_c, 0, 65, 59
1, 123526, Note_on_c, 0, 63, 52
1, 123526, Note_on_c, 0, 70, 76
1, 123554, Note_off_c, 0, 70, 61
1, 123633, Note_off_c, 0, 63, 61
1, 123654, Note_on_c, 0, 70, 65
1, 123658, Note_on_c, 0, 62, 46
1, 123682, Note_off_c, 0, 70, 66
1, 123729, Note_off_c, 0, 62, 57
1, 123774, Control_c, 0, 64, 42
1, 123776, Note_on_c, 0, 72, 59
1, 123780, Note_on_c, 0, 60, 50
1, 123789, Control_c, 0, 64, 41
1, 123804, Control_c, 0, 64, 40
1, 123819, Note_off_c, 0, 72, 63
1, 123819, Control_c, 0, 64, 40
1, 123832, Note_on_c, 0, 70, 66
1, 123858, Note_off_c, 0, 70, 68
1, 123864, Control_c, 0, 64, 39
1, 123878, Control_c, 0, 64, 38
1, 123880, Note_on_c, 0, 69, 56
1, 123881, Note_off_c, 0, 60, 57
1, 123893, Control_c, 0, 64, 37
1, 123898, Note_on_c, 0, 58, 50
1, 123900, Note_off_c, 0, 69, 63
1, 123908, Control_c, 0, 64, 35
1, 123923, Control_c, 0, 64, 31
1, 123926, Note_on_c, 0, 70, 65
1, 123938, Control_c, 0, 64, 29
1, 123953, Control_c, 0, 64, 27
1, 123956, Note_off_c, 0, 70, 65
1, 123967, Control_c, 0, 64, 26
1, 123983, Control_c, 0, 64, 24
1, 123995, Note_off_c, 0, 58, 62
1, 124011, Note_on_c, 0, 65, 58
1, 124030, Note_on_c, 0, 57, 44
1, 124086, Control_c, 0, 64, 26
1, 124101, Control_c, 0, 64, 27
1, 124116, Control_c, 0, 64, 28
1, 124131, Control_c, 0, 64, 30
1, 124146, Control_c, 0, 64, 31
1, 124151, Note_off_c, 0, 57, 53
1, 124160, Control_c, 0, 64, 32
1, 124165, Note_on_c, 0, 77, 63
1, 124168, Note_off_c, 0, 65, 59
1, 124169, Note_on_c, 0, 53, 45
1, 124175, Control_c, 0, 64, 33
1, 124212, Control_c, 0, 64, 34
1, 124242, Control_c, 0, 64, 35
1, 124287, Control_c, 0, 64, 36
1, 124305, Note_off_c, 0, 53, 59
1, 124316, Control_c, 0, 64, 36
1, 124319, Note_on_c, 0, 76, 65
1, 124320, Note_on_c, 0, 55, 56
1, 124361, Control_c, 0, 64, 37
1, 124385, Note_off_c, 0, 77, 38
1, 124406, Control_c, 0, 64, 38
1, 124421, Control_c, 0, 64, 38
1, 124450, Note_on_c, 0, 57, 59
1, 124450, Control_c, 0, 64, 39
1, 124451, Note_on_c, 0, 75, 74
1, 124451, Note_off_c, 0, 55, 59
1, 124480, Control_c, 0, 64, 40
1, 124501, Note_off_c, 0, 76, 53
1, 124510, Control_c, 0, 64, 40
1, 124581, Note_off_c, 0, 57, 60
1, 124585, Note_on_c, 0, 74, 76
1, 124588, Note_on_c, 0, 58, 65
1, 124623, Note_off_c, 0, 75, 57
1, 124687, Control_c, 0, 64, 40
1, 124689, Note_off_c, 0, 58, 63
1, 124692, Note_off_c, 0, 74, 64
1, 124702, Control_c, 0, 64, 39
1, 124712, Note_on_c, 0, 72, 68
1, 124714, Note_on_c, 0, 60, 54
1, 124716, Control_c, 0, 64, 38
1, 124731, Control_c, 0, 64, 37
1, 124746, Control_c, 0, 64, 36
1, 124761, Control_c, 0, 64, 36
1, 124776, Control_c, 0, 64, 34
1, 124790, Control_c, 0, 64, 31
1, 124805, Control_c, 0, 64, 28
1, 124820, Control_c, 0, 64, 26
1, 124834, Control_c, 0, 64, 24
1, 124836, Note_off_c, 0, 60, 63
1, 124845, Note_off_c, 0, 72, 61
1, 124849, Control_c, 0, 64, 23
1, 124856, Note_on_c, 0, 70, 60
1, 124862, Note_on_c, 0, 62, 46
1, 124879, Control_c, 0, 64, 21
1, 124946, Control_c, 0, 64, 23
1, 124975, Control_c, 0, 64, 24
1, 124976, Note_off_c, 0, 62, 60
1, 124989, Note_off_c, 0, 70, 56
1, 124990, Control_c, 0, 64, 26
1, 124991, Note_on_c, 0, 69, 54
1, 125003, Note_on_c, 0, 63, 48
1, 125005, Control_c, 0, 64, 27
1, 125020, Control_c, 0, 64, 28
1, 125035, Control_c, 0, 64, 30
1, 125049, Control_c, 0, 64, 32
1, 125064, Control_c, 0, 64, 33
1, 125068, Note_off_c, 0, 69, 59
1, 125079, Control_c, 0, 64, 35
1, 125094, Control_c, 0, 64, 36
1, 125110, Control_c, 0, 64, 37
1, 125133, Note_off_c, 0, 63, 60
1, 125139, Control_c, 0, 64, 36
1, 125154, Control_c, 0, 64, 29
1, 125155, Note_on_c, 0, 62, 52
1, 125169, Control_c, 0, 64, 24
1, 125184, Control_c, 0, 64, 19
1, 125199, Control_c, 0, 64, 11
1, 125213, Control_c, 0, 64, 0
1, 125215, Note_on_c, 0, 70, 59
1, 125244, Note_off_c, 0, 70, 67
1, 125278, Note_on_c, 0, 72, 67
1, 125316, Note_off_c, 0, 72, 61
1, 125339, Note_on_c, 0, 74, 77
1, 125370, Note_off_c, 0, 62, 62
1, 125397, Note_off_c, 0, 74, 66
1, 125399, Note_on_c, 0, 75, 76
1, 125420, Note_off_c, 0, 75, 70
1, 125454, Note_on_c, 0, 77, 75
1, 125495, Note_off_c, 0, 77, 63
1, 125522, Note_on_c, 0, 79, 75
1, 125568, Note_on_c, 0, 81, 78
1, 125582, Note_off_c, 0, 79, 62
1, 125620, Note_off_c, 0, 81, 64
1, 125623, Note_on_c, 0, 82, 84
1, 125641, Note_off_c, 0, 82, 72
1, 125777, Note_on_c, 0, 77, 77
1, 125797, Note_off_c, 0, 77, 71
1, 125909, Note_on_c, 0, 74, 78
1, 125929, Note_off_c, 0, 74, 72
1, 126040, Note_on_c, 0, 70, 78
1, 126065, Note_off_c, 0, 70, 65
1, 126177, Note_on_c, 0, 65, 89
1, 126198, Note_off_c, 0, 65, 68
1, 126199, Control_c, 0, 64, 61
1, 126213, Control_c, 0, 64, 59
1, 126213, Control_c, 0, 67, 126
1, 126228, Control_c, 0, 64, 39
1, 126228, Control_c, 0, 67, 119
1, 126243, Control_c, 0, 64, 42
1, 126243, Control_c, 0, 67, 114
1, 126258, Control_c, 0, 64, 44
1, 126258, Control_c, 0, 67, 109
1, 126273, Control_c, 0, 64, 46
1, 126273, Control_c, 0, 67, 105
1, 126287, Control_c, 0, 64, 48
1, 126287, Control_c, 0, 67, 102
1, 126302, Control_c, 0, 64, 50
1, 126302, Control_c, 0, 67, 100
1, 126308, Note_on_c, 0, 62, 83
1, 126317, Control_c, 0, 64, 53
1, 126317, Control_c, 0, 67, 98
1, 126332, Control_c, 0, 64, 55
1, 126332, Control_c, 0, 67, 96
1, 126335, Note_off_c, 0, 62, 66
1, 126347, Control_c, 0, 64, 57
1, 126347, Control_c, 0, 67, 94
1, 126362, Control_c, 0, 64, 59
1, 126362, Control_c, 0, 67, 92
1, 126376, Control_c, 0, 64, 60
1, 126376, Control_c, 0, 67, 88
1, 126391, Control_c, 0, 67, 82
1, 126406, Control_c, 0, 64, 59
1, 126406, Control_c, 0, 67, 72
1, 126421, Control_c, 0, 64, 43
1, 126421, Control_c, 0, 67, 61
1, 126443, Control_c, 0, 64, 0
1, 126443, Control_c, 0, 67, 46
1, 126445, Note_on_c, 0, 58, 91
1, 126458, Control_c, 0, 67, 34
1, 126473, Control_c, 0, 67, 23
1, 126487, Note_off_c, 0, 58, 62
1, 126487, Control_c, 0, 67, 13
1, 126502, Control_c, 0, 67, 0
1, 126577, Note_on_c, 0, 53, 96
1, 126605, Note_off_c, 0, 53, 66
1, 126711, Note_on_c, 0, 50, 87
1, 126725, Control_c, 0, 64, 69
1, 126735, Note_off_c, 0, 50, 73
1, 126740, Note_on_c, 0, 52, 29
1, 126740, Control_c, 0, 64, 73
1, 126755, Control_c, 0, 64, 71
1, 126770, Control_c, 0, 64, 68
1, 126773, Note_off_c, 0, 52, 39
1, 126785, Control_c, 0, 64, 66
1, 126800, Control_c, 0, 64, 66
1, 126830, Control_c, 0, 64, 66
1, 126841, Note_on_c, 0, 46, 89
1, 126859, Control_c, 0, 64, 67
1, 126878, Note_off_c, 0, 46, 61
1, 126976, Note_on_c, 0, 41, 96
1, 126977, Control_c, 0, 64, 66
1, 126991, Control_c, 0, 64, 65
1, 126999, Note_off_c, 0, 41, 69
1, 127006, Control_c, 0, 64, 64
1, 127021, Control_c, 0, 64, 63
1, 127035, Control_c, 0, 64, 59
1, 127050, Control_c, 0, 64, 51
1, 127065, Control_c, 0, 64, 38
1, 127080, Control_c, 0, 64, 0
1, 127118, Note_on_c, 0, 36, 75
1, 127125, Note_on_c, 0, 38, 66
1, 127143, Note_off_c, 0, 36, 66
1, 127149, Note_off_c, 0, 38, 59
1, 127289, Note_on_c, 0, 44, 98
1, 127292, Note_on_c, 0, 32, 92
1, 127518, Control_c, 0, 64, 11
1, 127533, Control_c, 0, 64, 28
1, 127548, Control_c, 0, 64, 33
1, 127578, Control_c, 0, 64, 0
1, 127601, Note_on_c, 0, 53, 71
1, 127641, Note_off_c, 0, 53, 57
1, 127665, Note_on_c, 0, 58, 74
1, 127724, Note_on_c, 0, 62, 61
1, 127725, Note_off_c, 0, 58, 61
1, 127770, Control_c, 0, 64, 43
1, 127778, Note_on_c, 0, 65, 71
1, 127780, Note_off_c, 0, 62, 61
1, 127785, Control_c, 0, 64, 61
1, 127800, Control_c, 0, 64, 66
1, 127804, Note_off_c, 0, 65, 69
1, 127805, Note_off_c, 0, 32, 63
1, 127814, Control_c, 0, 64, 70
1, 127822, Note_off_c, 0, 44, 61
1, 127829, Control_c, 0, 64, 74
1, 127844, Control_c, 0, 64, 77
1, 127858, Note_on_c, 0, 58, 70
1, 127858, Control_c, 0, 64, 78
1, 127873, Control_c, 0, 64, 79
1, 127888, Control_c, 0, 64, 80
1, 127903, Control_c, 0, 64, 81
1, 127910, Note_off_c, 0, 58, 64
1, 127918, Control_c, 0, 64, 82
1, 127933, Note_on_c, 0, 62, 75
1, 127940, Control_c, 0, 64, 83
1, 127955, Control_c, 0, 64, 84
1, 127970, Control_c, 0, 64, 86
1, 127984, Control_c, 0, 64, 87
1, 127992, Note_off_c, 0, 62, 61
1, 127998, Note_on_c, 0, 65, 60
1, 127999, Control_c, 0, 64, 88
1, 128014, Control_c, 0, 64, 89
1, 128038, Note_off_c, 0, 65, 63
1, 128039, Note_on_c, 0, 70, 73
1, 128044, Control_c, 0, 64, 90
1, 128073, Control_c, 0, 64, 88
1, 128088, Control_c, 0, 64, 74
1, 128101, Note_off_c, 0, 70, 60
1, 128103, Control_c, 0, 64, 0
1, 128117, Note_on_c, 0, 56, 78
1, 128117, Note_on_c, 0, 62, 71
1, 128117, Note_on_c, 0, 44, 71
1, 128176, Note_off_c, 0, 62, 59
1, 128177, Control_c, 0, 64, 55
1, 128186, Note_on_c, 0, 65, 64
1, 128192, Control_c, 0, 64, 68
1, 128207, Control_c, 0, 64, 76
1, 128222, Control_c, 0, 64, 83
1, 128237, Control_c, 0, 64, 89
1, 128243, Note_off_c, 0, 65, 63
1, 128248, Note_on_c, 0, 70, 62
1, 128251, Control_c, 0, 64, 93
1, 128263, Note_off_c, 0, 56, 65
1, 128266, Control_c, 0, 64, 96
1, 128281, Control_c, 0, 64, 99
1, 128296, Control_c, 0, 64, 102
1, 128305, Note_off_c, 0, 70, 62
1, 128311, Control_c, 0, 64, 105
1, 128313, Note_on_c, 0, 74, 64
1, 128326, Control_c, 0, 64, 108
1, 128341, Control_c, 0, 64, 110
1, 128373, Note_off_c, 0, 74, 47
1, 128386, Control_c, 0, 64, 107
1, 128395, Note_on_c, 0, 55, 88
1, 128398, Note_on_c, 0, 63, 73
1, 128400, Control_c, 0, 64, 97
1, 128412, Note_on_c, 0, 43, 69
1, 128414, Note_off_c, 0, 44, 59
1, 128415, Control_c, 0, 64, 87
1, 128430, Control_c, 0, 64, 80
1, 128445, Control_c, 0, 64, 77
1, 128448, Note_off_c, 0, 55, 66
1, 128463, Note_on_c, 0, 67, 73
1, 128465, Note_off_c, 0, 63, 60
1, 128475, Control_c, 0, 64, 77
1, 128489, Control_c, 0, 64, 78
1, 128493, Note_off_c, 0, 43, 64
1, 128504, Control_c, 0, 64, 80
1, 128519, Control_c, 0, 64, 80
1, 128520, Note_on_c, 0, 70, 75
1, 128532, Note_off_c, 0, 67, 59
1, 128534, Control_c, 0, 64, 81
1, 128587, Note_on_c, 0, 75, 67
1, 128589, Note_off_c, 0, 70, 62
1, 128593, Control_c, 0, 64, 79
1, 128607, Control_c, 0, 64, 70
1, 128622, Control_c, 0, 64, 0
1, 128657, Note_on_c, 0, 65, 76
1, 128663, Poly_aftertouch_c, 0, 44, 127
1, 128670, Note_on_c, 0, 50, 81
1, 128681, Note_on_c, 0, 38, 76
1, 128684, Note_off_c, 0, 75, 55
1, 128692, Poly_aftertouch_c, 0, 44, 0
1, 128743, Note_on_c, 0, 68, 72
1, 128749, Note_off_c, 0, 65, 56
1, 128803, Note_on_c, 0, 70, 69
1, 128818, Note_off_c, 0, 68, 59
1, 128839, Note_off_c, 0, 50, 65
1, 128862, Note_off_c, 0, 70, 64
1, 128873, Note_on_c, 0, 77, 64
1, 128952, Note_on_c, 0, 67, 69
1, 128966, Note_off_c, 0, 77, 62
1, 128970, Note_on_c, 0, 51, 88
1, 128970, Note_on_c, 0, 39, 76
1, 128983, Note_off_c, 0, 38, 62
1, 129021, Note_on_c, 0, 70, 73
1, 129029, Note_off_c, 0, 67, 51
1, 129029, Control_c, 0, 64, 14
1, 129044, Control_c, 0, 64, 30
1, 129051, Note_off_c, 0, 39, 61
1, 129051, Note_off_c, 0, 51, 62
1, 129059, Control_c, 0, 64, 33
1, 129074, Control_c, 0, 64, 35
1, 129089, Control_c, 0, 64, 38
1, 129096, Note_on_c, 0, 75, 68
1, 129104, Control_c, 0, 64, 41
1, 129113, Note_off_c, 0, 70, 61
1, 129119, Control_c, 0, 64, 44
1, 129134, Control_c, 0, 64, 47
1, 129149, Control_c, 0, 64, 48
1, 129164, Control_c, 0, 64, 44
1, 129168, Note_on_c, 0, 79, 72
1, 129173, Note_off_c, 0, 75, 64
1, 129179, Control_c, 0, 64, 0
1, 129232, Note_on_c, 0, 69, 74
1, 129236, Note_on_c, 0, 63, 81
1, 129241, Note_on_c, 0, 51, 78
1, 129250, Note_off_c, 0, 79, 61
1, 129253, Control_c, 0, 64, 60
1, 129268, Control_c, 0, 64, 69
1, 129283, Control_c, 0, 64, 79
1, 129289, Note_off_c, 0, 69, 62
1, 129294, Note_on_c, 0, 72, 76
1, 129298, Control_c, 0, 64, 90
1, 129312, Control_c, 0, 64, 100
1, 129327, Control_c, 0, 64, 107
1, 129342, Control_c, 0, 64, 110
1, 129357, Control_c, 0, 64, 113
1, 129365, Note_off_c, 0, 72, 59
1, 129372, Note_on_c, 0, 77, 70
1, 129372, Control_c, 0, 64, 117
1, 129386, Control_c, 0, 64, 124
1, 129401, Control_c, 0, 64, 127
1, 129405, Note_off_c, 0, 63, 62
1, 129441, Note_off_c, 0, 77, 63
1, 129449, Note_on_c, 0, 81, 64
1, 129471, Note_off_c, 0, 81, 59
1, 129497, Control_c, 0, 64, 103
1, 129512, Control_c, 0, 64, 78
1, 129527, Note_on_c, 0, 62, 83
1, 129527, Control_c, 0, 64, 56
1, 129531, Note_on_c, 0, 70, 68
1, 129533, Note_on_c, 0, 50, 76
1, 129542, Control_c, 0, 64, 0
1, 129545, Note_off_c, 0, 51, 57
1, 129572, Control_c, 0, 64, 53
1, 129586, Control_c, 0, 64, 64
1, 129597, Note_off_c, 0, 62, 62
1, 129599, Note_on_c, 0, 74, 75
1, 129601, Control_c, 0, 64, 69
1, 129605, Note_off_c, 0, 70, 62
1, 129616, Control_c, 0, 64, 71
1, 129630, Control_c, 0, 64, 73
1, 129641, Note_off_c, 0, 50, 64
1, 129645, Control_c, 0, 64, 75
1, 129660, Control_c, 0, 64, 77
1, 129662, Note_off_c, 0, 74, 65
1, 129674, Note_on_c, 0, 77, 62
1, 129675, Control_c, 0, 64, 78
1, 129690, Control_c, 0, 64, 79
1, 129697, Note_on_c, 0, 76, 45
1, 129704, Control_c, 0, 64, 77
1, 129716, Note_on_c, 0, 82, 75
1, 129719, Control_c, 0, 64, 67
1, 129721, Note_off_c, 0, 77, 64
1, 129726, Note_off_c, 0, 76, 34
1, 129734, Control_c, 0, 64, 0
1, 129789, Note_on_c, 0, 57, 80
1, 129795, Note_on_c, 0, 72, 73
1, 129799, Note_on_c, 0, 45, 78
1, 129815, Note_off_c, 0, 82, 62
1, 129852, Control_c, 0, 64, 67
1, 129856, Note_off_c, 0, 72, 60
1, 129857, Note_on_c, 0, 75, 70
1, 129867, Control_c, 0, 64, 72
1, 129882, Note_off_c, 0, 57, 63
1, 129882, Control_c, 0, 64, 80
1, 129897, Control_c, 0, 64, 89
1, 129913, Control_c, 0, 64, 104
1, 129917, Note_on_c, 0, 77, 76
1, 129922, Note_off_c, 0, 75, 62
1, 129927, Control_c, 0, 64, 127
1, 129980, Note_on_c, 0, 84, 81
1, 129981, Note_off_c, 0, 77, 60
1, 130041, Note_on_c, 0, 50, 31
1, 130047, Control_c, 0, 64, 119
1, 130056, Note_on_c, 0, 46, 77
1, 130058, Note_on_c, 0, 58, 101
1, 130061, Control_c, 0, 64, 84
1, 130070, Note_off_c, 0, 45, 54
1, 130073, Note_on_c, 0, 74, 77
1, 130074, Note_off_c, 0, 84, 61
1, 130076, Control_c, 0, 64, 63
1, 130088, Note_off_c, 0, 50, 64
1, 130091, Control_c, 0, 64, 41
1, 130106, Control_c, 0, 64, 63
1, 130120, Note_on_c, 0, 77, 73
1, 130121, Control_c, 0, 64, 72
1, 130132, Note_off_c, 0, 58, 67
1, 130135, Control_c, 0, 64, 83
1, 130141, Note_off_c, 0, 74, 60
1, 130150, Control_c, 0, 64, 103
1, 130165, Control_c, 0, 64, 127
1, 130189, Note_off_c, 0, 46, 62
1, 130203, Note_on_c, 0, 82, 83
1, 130216, Note_off_c, 0, 77, 62
1, 130269, Note_on_c, 0, 86, 86
1, 130270, Note_off_c, 0, 82, 64
1, 130321, Control_c, 0, 64, 97
1, 130335, Control_c, 0, 64, 66
1, 130344, Note_on_c, 0, 55, 88
1, 130346, Note_on_c, 0, 76, 82
1, 130350, Note_on_c, 0, 43, 90
1, 130350, Control_c, 0, 64, 0
1, 130362, Note_off_c, 0, 86, 65
1, 130395, Control_c, 0, 64, 23
1, 130410, Control_c, 0, 64, 68
1, 130422, Note_on_c, 0, 82, 84
1, 130422, Note_off_c, 0, 55, 64
1, 130425, Control_c, 0, 64, 81
1, 130439, Control_c, 0, 64, 101
1, 130453, Note_off_c, 0, 43, 64
1, 130454, Control_c, 0, 64, 127
1, 130460, Note_off_c, 0, 76, 57
1, 130486, Note_on_c, 0, 84, 85
1, 130505, Note_off_c, 0, 82, 64
1, 130541, Note_on_c, 0, 88, 87
1, 130548, Note_off_c, 0, 84, 65
1, 130648, Note_off_c, 0, 88, 62
1, 130664, Note_on_c, 0, 41, 79
1, 130664, Note_on_c, 0, 77, 81
1, 130668, Note_on_c, 0, 53, 76
1, 130691, Control_c, 0, 64, 117
1, 130707, Control_c, 0, 64, 100
1, 130721, Control_c, 0, 64, 88
1, 130736, Control_c, 0, 64, 78
1, 130750, Control_c, 0, 64, 67
1, 130765, Control_c, 0, 64, 54
1, 130780, Control_c, 0, 64, 19
1, 130795, Control_c, 0, 64, 0
1, 130827, Note_on_c, 0, 82, 79
1, 130901, Note_off_c, 0, 77, 58
1, 130954, Note_on_c, 0, 86, 81
1, 130982, Note_off_c, 0, 82, 64
1, 131055, Note_on_c, 0, 89, 80
1, 131058, Note_off_c, 0, 86, 65
1, 131153, Note_on_c, 0, 87, 88
1, 131187, Note_off_c, 0, 89, 63
1, 131243, Note_on_c, 0, 86, 88
1, 131291, Note_off_c, 0, 87, 64
1, 131327, Note_off_c, 0, 86, 67
1, 131335, Note_on_c, 0, 84, 86
1, 131414, Note_on_c, 0, 82, 87
1, 131440, Note_off_c, 0, 84, 64
1, 131497, Note_on_c, 0, 81, 88
1, 131552, Note_off_c, 0, 82, 64
1, 131573, Note_on_c, 0, 79, 89
1, 131584, Note_off_c, 0, 41, 62
1, 131611, Note_off_c, 0, 81, 62
1, 131621, Note_off_c, 0, 53, 65
1, 131653, Note_off_c, 0, 79, 64
1, 131654, Note_on_c, 0, 77, 87
1, 131739, Note_on_c, 0, 76, 87
1, 131751, Note_off_c, 0, 77, 62
1, 131817, Note_off_c, 0, 76, 64
1, 131825, Note_on_c, 0, 77, 85
1, 131903, Note_on_c, 0, 82, 84
1, 131904, Note_off_c, 0, 77, 59
1, 131996, Note_on_c, 0, 79, 72
1, 132021, Note_off_c, 0, 82, 59
1, 132082, Note_on_c, 0, 73, 42
1, 132085, Note_off_c, 0, 79, 60
1, 132088, Note_on_c, 0, 76, 58
1, 132092, Note_on_c, 0, 65, 25
1, 132174, Note_off_c, 0, 76, 59
1, 132188, Note_on_c, 0, 82, 59
1, 132269, Note_on_c, 0, 79, 67
1, 132309, Note_off_c, 0, 82, 55
1, 132332, Note_on_c, 0, 74, 53
1, 132362, Note_on_c, 0, 77, 69
1, 132373, Note_off_c, 0, 79, 59
1, 132388, Note_off_c, 0, 73, 47
1, 132449, Note_off_c, 0, 74, 55
1, 132455, Note_off_c, 0, 77, 61
1, 132457, Note_on_c, 0, 82, 64
1, 132457, Note_off_c, 0, 65, 58
1, 132547, Note_on_c, 0, 79, 61
1, 132570, Note_off_c, 0, 82, 52
1, 132627, Note_on_c, 0, 76, 62
1, 132630, Note_on_c, 0, 73, 47
1, 132630, Note_on_c, 0, 65, 42
1, 132632, Note_off_c, 0, 79, 60
1, 132700, Note_off_c, 0, 76, 59
1, 132717, Note_on_c, 0, 82, 53
1, 132759, Control_c, 0, 67, 9
1, 132773, Control_c, 0, 67, 12
1, 132788, Control_c, 0, 67, 16
1, 132803, Control_c, 0, 67, 25
1, 132809, Note_on_c, 0, 79, 59
1, 132818, Control_c, 0, 67, 40
1, 132833, Control_c, 0, 67, 53
1, 132836, Note_off_c, 0, 82, 50
1, 132848, Control_c, 0, 67, 63
1, 132863, Control_c, 0, 67, 72
1, 132878, Control_c, 0, 67, 81
1, 132893, Control_c, 0, 67, 90
1, 132893, Note_off_c, 0, 79, 60
1, 132897, Note_on_c, 0, 77, 53
1, 132908, Control_c, 0, 67, 100
1, 132917, Note_on_c, 0, 74, 45
1, 132922, Control_c, 0, 67, 107
1, 132923, Note_off_c, 0, 73, 54
1, 132937, Control_c, 0, 67, 113
1, 132943, Note_off_c, 0, 77, 60
1, 132952, Control_c, 0, 67, 118
1, 132967, Control_c, 0, 67, 122
1, 132981, Control_c, 0, 67, 125
1, 132992, Note_on_c, 0, 82, 48
1, 132996, Control_c, 0, 67, 126
1, 133011, Control_c, 0, 67, 127
1, 133081, Note_off_c, 0, 82, 52
1, 133082, Note_on_c, 0, 79, 54
1, 133149, Note_off_c, 0, 79, 61
1, 133176, Note_on_c, 0, 76, 53
1, 133221, Note_off_c, 0, 74, 62
1, 133228, Note_off_c, 0, 76, 55
1, 133255, Note_on_c, 0, 82, 52
1, 133299, Note_off_c, 0, 65, 58
1, 133345, Note_off_c, 0, 82, 57
1, 133351, Note_on_c, 0, 79, 52
1, 133418, Note_off_c, 0, 79, 59
1, 133439, Note_on_c, 0, 77, 61
1, 133509, Note_off_c, 0, 77, 54
1, 133523, Control_c, 0, 67, 127
1, 133534, Note_on_c, 0, 76, 68
1, 133538, Control_c, 0, 67, 126
1, 133552, Control_c, 0, 67, 125
1, 133567, Control_c, 0, 64, 17
1, 133567, Control_c, 0, 67, 124
1, 133582, Control_c, 0, 64, 24
1, 133582, Control_c, 0, 67, 122
1, 133596, Control_c, 0, 64, 29
1, 133596, Control_c, 0, 67, 121
1, 133608, Note_off_c, 0, 76, 62
1, 133611, Control_c, 0, 64, 32
1, 133611, Control_c, 0, 67, 119
1, 133616, Note_on_c, 0, 77, 71
1, 133626, Control_c, 0, 64, 35
1, 133626, Control_c, 0, 67, 118
1, 133641, Control_c, 0, 64, 37
1, 133641, Control_c, 0, 67, 116
1, 133656, Control_c, 0, 64, 38
1, 133656, Control_c, 0, 67, 112
1, 133671, Control_c, 0, 64, 40
1, 133671, Control_c, 0, 67, 106
1, 133686, Control_c, 0, 64, 42
1, 133686, Control_c, 0, 67, 97
1, 133701, Control_c, 0, 64, 44
1, 133701, Control_c, 0, 67, 87
1, 133713, Note_on_c, 0, 78, 77
1, 133716, Control_c, 0, 64, 46
1, 133716, Control_c, 0, 67, 76
1, 133721, Note_off_c, 0, 77, 63
1, 133731, Control_c, 0, 64, 47
1, 133731, Control_c, 0, 67, 66
1, 133745, Control_c, 0, 64, 49
1, 133745, Control_c, 0, 67, 56
1, 133760, Control_c, 0, 64, 50
1, 133760, Control_c, 0, 67, 48
1, 133775, Control_c, 0, 64, 50
1, 133775, Control_c, 0, 67, 42
1, 133790, Control_c, 0, 67, 36
1, 133803, Note_off_c, 0, 78, 63
1, 133805, Note_on_c, 0, 79, 77
1, 133805, Control_c, 0, 67, 32
1, 133820, Control_c, 0, 64, 50
1, 133820, Control_c, 0, 67, 29
1, 133835, Control_c, 0, 64, 46
1, 133835, Control_c, 0, 67, 27
1, 133850, Control_c, 0, 64, 28
1, 133850, Control_c, 0, 67, 26
1, 133864, Control_c, 0, 64, 0
1, 133864, Control_c, 0, 67, 26
1, 133891, Note_on_c, 0, 75, 77
1, 133894, Control_c, 0, 67, 25
1, 133939, Note_off_c, 0, 79, 53
1, 133976, Control_c, 0, 67, 25
1, 134008, Note_off_c, 0, 75, 62
1, 134014, Note_on_c, 0, 72, 72
1, 134035, Control_c, 0, 67, 24
1, 134080, Control_c, 0, 64, 58
1, 134080, Control_c, 0, 67, 24
1, 134083, Note_off_c, 0, 72, 60
1, 134095, Control_c, 0, 64, 64
1, 134095, Control_c, 0, 67, 23
1, 134109, Control_c, 0, 64, 69
1, 134109, Control_c, 0, 67, 22
1, 134124, Control_c, 0, 64, 76
1, 134124, Control_c, 0, 67, 21
1, 134125, Note_on_c, 0, 74, 62
1, 134139, Control_c, 0, 64, 87
1, 134139, Control_c, 0, 67, 20
1, 134154, Control_c, 0, 64, 105
1, 134154, Control_c, 0, 67, 19
1, 134160, Note_off_c, 0, 74, 64
1, 134169, Control_c, 0, 64, 127
1, 134169, Control_c, 0, 67, 18
1, 134183, Control_c, 0, 67, 18
1, 134193, Note_on_c, 0, 72, 66
1, 134198, Control_c, 0, 67, 17
1, 134213, Control_c, 0, 67, 17
1, 134228, Control_c, 0, 67, 16
1, 134238, Note_off_c, 0, 72, 53
1, 134243, Control_c, 0, 67, 16
1, 134258, Control_c, 0, 67, 15
1, 134258, Note_on_c, 0, 74, 63
1, 134284, Note_off_c, 0, 74, 66
1, 134288, Control_c, 0, 67, 15
1, 134300, Note_on_c, 0, 72, 65
1, 134317, Control_c, 0, 67, 14
1, 134326, Note_off_c, 0, 72, 64
1, 134347, Control_c, 0, 67, 14
1, 134350, Note_on_c, 0, 74, 71
1, 134375, Note_off_c, 0, 74, 68
1, 134403, Note_on_c, 0, 72, 75
1, 134420, Control_c, 0, 67, 13
1, 134449, Note_off_c, 0, 72, 41
1, 134464, Note_on_c, 0, 74, 74
1, 134465, Control_c, 0, 67, 13
1, 134488, Note_off_c, 0, 74, 68
1, 134493, Note_on_c, 0, 72, 59
1, 134509, Control_c, 0, 67, 12
1, 134547, Note_off_c, 0, 72, 61
1, 134553, Note_on_c, 0, 74, 76
1, 134553, Control_c, 0, 67, 12
1, 134577, Note_off_c, 0, 74, 68
1, 134593, Note_on_c, 0, 72, 58
1, 134648, Note_off_c, 0, 72, 62
1, 134656, Note_on_c, 0, 74, 80
1, 134696, Note_off_c, 0, 74, 62
1, 134720, Note_on_c, 0, 72, 72
1, 134766, Note_off_c, 0, 72, 64
1, 134771, Note_on_c, 0, 74, 75
1, 134806, Note_off_c, 0, 74, 61
1, 134825, Note_on_c, 0, 72, 79
1, 134870, Note_off_c, 0, 72, 65
1, 134873, Control_c, 0, 67, 11
1, 134876, Note_on_c, 0, 74, 76
1, 134903, Control_c, 0, 67, 11
1, 134924, Note_off_c, 0, 74, 60
1, 134935, Note_on_c, 0, 72, 79
1, 134947, Control_c, 0, 67, 10
1, 134962, Control_c, 0, 67, 10
1, 134976, Control_c, 0, 67, 9
1, 134988, Note_on_c, 0, 74, 76
1, 134988, Note_off_c, 0, 72, 64
1, 134991, Control_c, 0, 67, 8
1, 135006, Control_c, 0, 67, 0
1, 135047, Note_off_c, 0, 74, 65
1, 135060, Note_on_c, 0, 72, 78
1, 135108, Note_on_c, 0, 74, 76
1, 135108, Note_off_c, 0, 72, 63
1, 135170, Note_off_c, 0, 74, 65
1, 135182, Note_on_c, 0, 72, 75
1, 135245, Note_off_c, 0, 72, 60
1, 135256, Note_on_c, 0, 74, 73
1, 135340, Note_off_c, 0, 74, 65
1, 135357, Note_on_c, 0, 72, 65
1, 135364, Note_on_c, 0, 65, 81
1, 135368, Note_on_c, 0, 57, 68
1, 135369, Note_on_c, 0, 53, 76
1, 135425, Note_off_c, 0, 72, 61
1, 135434, Note_on_c, 0, 74, 73
1, 135516, Note_off_c, 0, 74, 62
1, 135522, Note_off_c, 0, 65, 61
1, 135527, Note_on_c, 0, 72, 75
1, 135531, Note_off_c, 0, 53, 48
1, 135583, Note_off_c, 0, 72, 63
1, 135585, Note_off_c, 0, 57, 50
1, 135593, Note_on_c, 0, 74, 74
1, 135651, Note_off_c, 0, 74, 63
1, 135672, Note_on_c, 0, 53, 81
1, 135672, Note_on_c, 0, 72, 83
1, 135674, Note_on_c, 0, 64, 91
1, 135680, Control_c, 0, 64, 112
1, 135686, Note_on_c, 0, 57, 74
1, 135695, Control_c, 0, 64, 89
1, 135710, Control_c, 0, 64, 84
1, 135725, Control_c, 0, 64, 84
1, 135728, Note_off_c, 0, 72, 59
1, 135738, Note_off_c, 0, 64, 64
1, 135740, Control_c, 0, 64, 88
1, 135744, Note_on_c, 0, 74, 76
1, 135746, Note_off_c, 0, 53, 57
1, 135754, Control_c, 0, 64, 98
1, 135760, Note_off_c, 0, 57, 62
1, 135769, Control_c, 0, 64, 127
1, 135771, Note_off_c, 0, 74, 64
1, 135806, Note_on_c, 0, 72, 63
1, 135855, Note_off_c, 0, 72, 61
1, 135861, Note_on_c, 0, 74, 76
1, 135903, Note_off_c, 0, 74, 62
1, 135937, Note_on_c, 0, 72, 51
1, 135943, Note_on_c, 0, 63, 88
1, 135945, Note_on_c, 0, 57, 70
1, 135947, Control_c, 0, 64, 123
1, 135948, Note_on_c, 0, 53, 76
1, 135957, Note_on_c, 0, 74, 58
1, 135962, Control_c, 0, 64, 85
1, 135974, Note_off_c, 0, 72, 0
1, 135977, Control_c, 0, 64, 66
1, 135980, Note_off_c, 0, 74, 62
1, 135991, Control_c, 0, 64, 63
1, 135996, Note_off_c, 0, 63, 63
1, 136006, Control_c, 0, 64, 68
1, 136011, Poly_aftertouch_c, 0, 72, 127
1, 136021, Control_c, 0, 64, 78
1, 136029, Note_off_c, 0, 57, 58
1, 136031, Poly_aftertouch_c, 0, 72, 0
1, 136036, Control_c, 0, 64, 95
1, 136048, Note_on_c, 0, 74, 66
1, 136051, Control_c, 0, 64, 127
1, 136070, Note_off_c, 0, 53, 49
1, 136081, Note_off_c, 0, 74, 64
1, 136096, Poly_aftertouch_c, 0, 73, 127
1, 136116, Note_on_c, 0, 72, 50
1, 136141, Note_off_c, 0, 72, 63
1, 136145, Poly_aftertouch_c, 0, 73, 0
1, 136169, Note_on_c, 0, 70, 60
1, 136194, Note_off_c, 0, 70, 65
1, 136212, Note_on_c, 0, 72, 67
1, 136237, Note_on_c, 0, 62, 82
1, 136241, Note_on_c, 0, 58, 91
1, 136248, Note_on_c, 0, 70, 84
1, 136251, Control_c, 0, 64, 77
1, 136258, Note_off_c, 0, 72, 62
1, 136258, Note_off_c, 0, 62, 70
1, 136265, Control_c, 0, 64, 0
1, 136268, Note_off_c, 0, 58, 66
1, 136388, Note_on_c, 0, 34, 86
1, 136389, Note_on_c, 0, 46, 90
1, 136412, Note_off_c, 0, 34, 65
1, 136413, Note_off_c, 0, 46, 67
1, 136424, Note_off_c, 0, 70, 58
1, 136520, Note_on_c, 0, 34, 82
1, 136520, Note_on_c, 0, 46, 88
1, 136550, Note_off_c, 0, 34, 64
1, 136552, Note_off_c, 0, 46, 63
1, 136659, Note_on_c, 0, 46, 92
1, 136660, Note_on_c, 0, 34, 88
1, 136687, Note_off_c, 0, 34, 67
1, 136688, Note_off_c, 0, 46, 61
1, 136802, Note_on_c, 0, 56, 101
1, 136804, Note_on_c, 0, 44, 84
1, 136944, Note_on_c, 0, 58, 81
1, 136950, Note_on_c, 0, 70, 72
1, 136964, Note_off_c, 0, 58, 71
1, 136968, Note_off_c, 0, 70, 67
1, 137069, Note_on_c, 0, 70, 80
1, 137072, Note_on_c, 0, 58, 91
1, 137098, Note_off_c, 0, 70, 61
1, 137102, Note_off_c, 0, 58, 61
1, 137206, Note_on_c, 0, 70, 91
1, 137211, Note_on_c, 0, 58, 72
1, 137234, Note_off_c, 0, 58, 67
1, 137243, Note_off_c, 0, 70, 61
1, 137339, Note_on_c, 0, 75, 93
1, 137343, Note_on_c, 0, 63, 96
1, 137369, Note_off_c, 0, 56, 61
1, 137391, Note_off_c, 0, 44, 62
1, 137463, Note_on_c, 0, 55, 83
1, 137464, Note_on_c, 0, 43, 86
1, 137485, Note_off_c, 0, 55, 69
1, 137492, Note_off_c, 0, 43, 67
1, 137605, Note_on_c, 0, 41, 94
1, 137607, Note_on_c, 0, 53, 87
1, 137629, Note_off_c, 0, 41, 68
1, 137630, Note_off_c, 0, 53, 72
1, 137744, Note_on_c, 0, 51, 93
1, 137745, Note_on_c, 0, 39, 82
1, 137771, Note_off_c, 0, 51, 65
1, 137777, Note_off_c, 0, 39, 64
1, 137882, Note_on_c, 0, 50, 92
1, 137883, Note_on_c, 0, 38, 89
1, 137887, Note_off_c, 0, 63, 60
1, 137904, Note_off_c, 0, 75, 62
1, 138014, Note_on_c, 0, 77, 84
1, 138016, Note_on_c, 0, 65, 79
1, 138038, Note_off_c, 0, 77, 65
1, 138039, Note_off_c, 0, 65, 69
1, 138139, Note_on_c, 0, 79, 95
1, 138142, Note_on_c, 0, 67, 83
1, 138163, Note_off_c, 0, 67, 68
1, 138170, Note_off_c, 0, 79, 65
1, 138228, Note_off_c, 0, 50, 64
1, 138242, Note_off_c, 0, 38, 60
1, 138267, Note_on_c, 0, 80, 84
1, 138274, Note_on_c, 0, 68, 83
1, 138299, Note_off_c, 0, 68, 62
1, 138303, Note_off_c, 0, 80, 62
1, 138401, Note_on_c, 0, 51, 74
1, 138404, Note_on_c, 0, 39, 70
1, 138405, Note_on_c, 0, 79, 93
1, 138409, Note_on_c, 0, 67, 79
1, 138433, Note_off_c, 0, 51, 67
1, 138440, Note_off_c, 0, 39, 63
1, 138542, Note_on_c, 0, 34, 92
1, 138543, Note_on_c, 0, 46, 92
1, 138565, Note_off_c, 0, 46, 69
1, 138568, Note_off_c, 0, 34, 68
1, 138583, Note_off_c, 0, 67, 60
1, 138606, Note_off_c, 0, 79, 57
1, 138680, Note_on_c, 0, 46, 95
1, 138681, Note_on_c, 0, 34, 97
1, 138709, Note_off_c, 0, 46, 61
1, 138712, Note_off_c, 0, 34, 66
1, 138808, Note_on_c, 0, 34, 90
1, 138810, Note_on_c, 0, 46, 92
1, 138838, Note_off_c, 0, 34, 66
1, 138839, Note_off_c, 0, 46, 59
1, 138953, Note_on_c, 0, 56, 103
1, 138956, Note_on_c, 0, 44, 93
1, 139084, Note_on_c, 0, 70, 90
1, 139084, Note_on_c, 0, 58, 88
1, 139104, Note_off_c, 0, 70, 66
1, 139106, Note_off_c, 0, 58, 67
1, 139225, Note_on_c, 0, 58, 93
1, 139226, Note_on_c, 0, 70, 94
1, 139251, Note_off_c, 0, 70, 61
1, 139259, Note_off_c, 0, 58, 58
1, 139353, Note_on_c, 0, 70, 92
1, 139355, Note_on_c, 0, 58, 82
1, 139376, Note_off_c, 0, 58, 71
1, 139389, Note_off_c, 0, 70, 61
1, 139469, Control_c, 0, 64, 39
1, 139483, Control_c, 0, 64, 45
1, 139485, Note_on_c, 0, 75, 94
1, 139490, Note_on_c, 0, 63, 93
1, 139499, Control_c, 0, 64, 0
1, 139520, Note_on_c, 0, 76, 48
1, 139531, Note_off_c, 0, 56, 61
1, 139546, Note_off_c, 0, 44, 61
1, 139552, Note_off_c, 0, 76, 49
1, 139588, Control_c, 0, 64, 11
1, 139603, Control_c, 0, 64, 14
1, 139611, Note_on_c, 0, 43, 87
1, 139612, Note_on_c, 0, 55, 87
1, 139637, Note_off_c, 0, 55, 67
1, 139649, Note_off_c, 0, 43, 61
1, 139750, Note_on_c, 0, 41, 94
1, 139752, Note_on_c, 0, 53, 90
1, 139765, Control_c, 0, 64, 17
1, 139774, Note_off_c, 0, 41, 68
1, 139775, Note_off_c, 0, 53, 72
1, 139810, Control_c, 0, 64, 19
1, 139825, Control_c, 0, 64, 21
1, 139839, Control_c, 0, 64, 27
1, 139854, Control_c, 0, 64, 32
1, 139869, Control_c, 0, 64, 36
1, 139883, Note_on_c, 0, 39, 85
1, 139884, Note_on_c, 0, 51, 88
1, 139884, Control_c, 0, 64, 38
1, 139899, Control_c, 0, 64, 39
1, 139917, Note_off_c, 0, 51, 69
1, 139921, Control_c, 0, 64, 40
1, 139938, Note_off_c, 0, 39, 61
1, 139965, Control_c, 0, 64, 40
1, 140010, Control_c, 0, 64, 41
1, 140025, Control_c, 0, 64, 42
1, 140031, Note_on_c, 0, 38, 92
1, 140031, Note_on_c, 0, 50, 95
1, 140041, Note_off_c, 0, 63, 59
1, 140054, Control_c, 0, 64, 42
1, 140055, Note_off_c, 0, 75, 60
1, 140069, Control_c, 0, 64, 43
1, 140084, Control_c, 0, 64, 44
1, 140099, Control_c, 0, 64, 47
1, 140113, Control_c, 0, 64, 49
1, 140128, Control_c, 0, 64, 50
1, 140143, Control_c, 0, 64, 53
1, 140158, Control_c, 0, 64, 55
1, 140160, Note_on_c, 0, 77, 89
1, 140164, Note_on_c, 0, 65, 78
1, 140172, Control_c, 0, 64, 58
1, 140185, Note_off_c, 0, 65, 71
1, 140187, Control_c, 0, 64, 60
1, 140193, Note_off_c, 0, 77, 64
1, 140202, Control_c, 0, 64, 62
1, 140217, Control_c, 0, 64, 64
1, 140232, Control_c, 0, 64, 66
1, 140247, Control_c, 0, 64, 67
1, 140262, Control_c, 0, 64, 68
1, 140276, Control_c, 0, 64, 68
1, 140289, Note_on_c, 0, 79, 99
1, 140292, Control_c, 0, 64, 67
1, 140293, Note_on_c, 0, 67, 86
1, 140307, Control_c, 0, 64, 56
1, 140310, Note_off_c, 0, 67, 72
1, 140314, Note_off_c, 0, 79, 66
1, 140322, Control_c, 0, 64, 0
1, 140357, Note_off_c, 0, 50, 64
1, 140360, Note_off_c, 0, 38, 62
1, 140412, Note_on_c, 0, 80, 100
1, 140414, Note_on_c, 0, 68, 94
1, 140443, Note_off_c, 0, 68, 62
1, 140444, Note_off_c, 0, 80, 62
1, 140554, Note_on_c, 0, 51, 90
1, 140557, Note_on_c, 0, 39, 79
1, 140559, Control_c, 0, 64, 82
1, 140560, Note_on_c, 0, 67, 93
1, 140560, Note_on_c, 0, 79, 102
1, 140574, Control_c, 0, 64, 127
1, 140576, Note_off_c, 0, 51, 73
1, 140577, Note_off_c, 0, 67, 71
1, 140580, Note_off_c, 0, 39, 65
1, 140589, Note_off_c, 0, 79, 68
1, 140633, Control_c, 0, 64, 102
1, 140648, Control_c, 0, 64, 72
1, 140670, Control_c, 0, 64, 0
1, 140851, Note_on_c, 0, 82, 96
1, 140852, Note_on_c, 0, 70, 92
1, 140857, Note_on_c, 0, 73, 93
1, 140859, Note_on_c, 0, 52, 97
1, 140862, Note_on_c, 0, 40, 83
1, 140862, Control_c, 0, 64, 51
1, 140876, Note_off_c, 0, 70, 68
1, 140877, Control_c, 0, 64, 102
1, 140881, Note_off_c, 0, 52, 71
1, 140888, Note_off_c, 0, 40, 66
1, 140892, Control_c, 0, 64, 127
1, 140896, Note_off_c, 0, 82, 66
1, 140898, Note_off_c, 0, 73, 62
1, 141160, Control_c, 0, 64, 97
1, 141174, Control_c, 0, 64, 65
1, 141189, Control_c, 0, 64, 0
1, 141459, Note_on_c, 0, 73, 100
1, 141460, Note_on_c, 0, 61, 92
1, 141463, Note_on_c, 0, 52, 91
1, 141464, Note_on_c, 0, 70, 85
1, 141471, Note_on_c, 0, 40, 79
1, 141478, Control_c, 0, 64, 72
1, 141487, Note_off_c, 0, 52, 70
1, 141487, Note_off_c, 0, 61, 66
1, 141492, Control_c, 0, 64, 104
1, 141496, Note_off_c, 0, 40, 66
1, 141496, Note_off_c, 0, 73, 66
1, 141507, Control_c, 0, 64, 127
1, 141512, Note_off_c, 0, 70, 66
1, 141625, Control_c, 0, 64, 86
1, 141640, Control_c, 0, 64, 64
1, 141655, Control_c, 0, 64, 0
1, 141877, Control_c, 0, 64, 27
1, 141893, Control_c, 0, 64, 40
1, 141907, Control_c, 0, 64, 48
1, 141922, Control_c, 0, 64, 53
1, 141937, Control_c, 0, 64, 55
1, 141952, Control_c, 0, 64, 57
1, 141967, Note_on_c, 0, 74, 91
1, 141970, Note_on_c, 0, 62, 81
1, 141973, Note_on_c, 0, 70, 78
1, 141976, Note_on_c, 0, 41, 82
1, 141981, Note_on_c, 0, 53, 83
1, 141981, Control_c, 0, 64, 50
1, 141996, Control_c, 0, 64, 0
1, 142359, Control_c, 0, 64, 39
1, 142374, Control_c, 0, 64, 59
1, 142389, Control_c, 0, 64, 64
1, 142404, Control_c, 0, 64, 70
1, 142419, Control_c, 0, 64, 77
1, 142433, Control_c, 0, 64, 88
1, 142448, Control_c, 0, 64, 106
1, 142463, Control_c, 0, 64, 127
1, 142670, Control_c, 0, 67, 8
1, 142686, Control_c, 0, 67, 11
1, 142702, Control_c, 0, 67, 15
1, 142717, Control_c, 0, 67, 20
1, 142731, Control_c, 0, 67, 27
1, 142746, Control_c, 0, 67, 33
1, 142761, Control_c, 0, 67, 39
1, 142775, Control_c, 0, 67, 45
1, 142790, Control_c, 0, 67, 52
1, 142805, Control_c, 0, 67, 59
1, 142820, Control_c, 0, 67, 66
1, 142835, Control_c, 0, 67, 73
1, 142850, Control_c, 0, 67, 81
1, 142864, Control_c, 0, 67, 89
1, 142879, Control_c, 0, 67, 96
1, 142894, Control_c, 0, 67, 106
1, 142917, Control_c, 0, 67, 114
1, 142932, Control_c, 0, 67, 122
1, 142946, Control_c, 0, 67, 127
1, 143208, Note_off_c, 0, 41, 59
1, 143223, Note_off_c, 0, 70, 57
1, 143228, Note_off_c, 0, 53, 34
1, 143233, Note_off_c, 0, 62, 35
1, 143261, Note_off_c, 0, 74, 28
1, 143828, Control_c, 0, 64, 117
1, 143843, Control_c, 0, 64, 112
1, 143858, Control_c, 0, 64, 108
1, 143873, Control_c, 0, 64, 104
1, 143887, Control_c, 0, 64, 102
1, 143902, Control_c, 0, 64, 99
1, 143917, Control_c, 0, 64, 95
1, 143931, Control_c, 0, 64, 88
1, 143946, Control_c, 0, 64, 79
1, 143961, Control_c, 0, 64, 65
1, 143976, Control_c, 0, 64, 0
1, 144125, Control_c, 0, 64, 17
1, 144139, Control_c, 0, 64, 21
1, 144184, Control_c, 0, 64, 17
1, 144199, Control_c, 0, 64, 0
1, 144251, Note_on_c, 0, 65, 43
1, 144279, Note_off_c, 0, 65, 54
1, 144288, Note_on_c, 0, 67, 72
1, 144329, Note_off_c, 0, 67, 57
1, 144330, Note_on_c, 0, 69, 69
1, 144360, Note_on_c, 0, 70, 75
1, 144372, Note_off_c, 0, 69, 60
1, 144387, Note_off_c, 0, 70, 65
1, 144432, Note_on_c, 0, 72, 77
1, 144465, Note_off_c, 0, 72, 65
1, 144495, Note_on_c, 0, 74, 63
1, 144524, Note_off_c, 0, 74, 64
1, 144530, Note_on_c, 0, 75, 43
1, 144531, Note_off_c, 0, 75, 127
1, 144548, Control_c, 0, 67, 127
1, 144562, Control_c, 0, 64, 17
1, 144562, Control_c, 0, 67, 125
1, 144572, Note_on_c, 0, 77, 73
1, 144577, Control_c, 0, 64, 21
1, 144577, Control_c, 0, 67, 122
1, 144592, Control_c, 0, 64, 23
1, 144592, Control_c, 0, 67, 120
1, 144596, Note_off_c, 0, 77, 68
1, 144607, Control_c, 0, 64, 24
1, 144607, Control_c, 0, 67, 119
1, 144620, Note_on_c, 0, 79, 81
1, 144622, Control_c, 0, 64, 26
1, 144622, Control_c, 0, 67, 118
1, 144663, Note_on_c, 0, 81, 75
1, 144666, Control_c, 0, 64, 0
1, 144688, Note_off_c, 0, 79, 63
1, 144696, Control_c, 0, 67, 118
1, 144697, Note_on_c, 0, 82, 88
1, 144700, Note_off_c, 0, 81, 66
1, 144718, Note_off_c, 0, 82, 68
1, 144725, Control_c, 0, 67, 119
1, 144754, Control_c, 0, 67, 119
1, 144769, Control_c, 0, 67, 120
1, 144784, Control_c, 0, 67, 120
1, 144799, Control_c, 0, 67, 121
1, 144814, Control_c, 0, 67, 121
1, 144827, Note_on_c, 0, 82, 89
1, 144829, Control_c, 0, 67, 122
1, 144853, Note_off_c, 0, 82, 62
1, 144968, Note_on_c, 0, 82, 76
1, 144989, Note_off_c, 0, 82, 70
1, 145094, Note_on_c, 0, 82, 67
1, 145097, Control_c, 0, 67, 122
1, 145119, Note_off_c, 0, 82, 68
1, 145192, Control_c, 0, 67, 123
1, 145229, Note_on_c, 0, 82, 74
1, 145253, Note_off_c, 0, 82, 67
1, 145281, Control_c, 0, 67, 123
1, 145359, Note_on_c, 0, 82, 76
1, 145383, Note_off_c, 0, 82, 65
1, 145484, Note_on_c, 0, 84, 80
1, 145542, Note_on_c, 0, 82, 71
1, 145544, Note_off_c, 0, 84, 64
1, 145568, Note_off_c, 0, 82, 66
1, 145576, Note_on_c, 0, 81, 80
1, 145622, Control_c, 0, 67, 123
1, 145641, Note_on_c, 0, 82, 86
1, 145648, Note_off_c, 0, 81, 62
1, 145693, Note_off_c, 0, 82, 64
1, 145696, Note_on_c, 0, 77, 76
1, 145711, Note_on_c, 0, 74, 70
1, 145720, Note_off_c, 0, 77, 67
1, 145737, Note_off_c, 0, 74, 69
1, 145755, Control_c, 0, 67, 123
1, 145770, Control_c, 0, 67, 124
1, 145784, Control_c, 0, 67, 125
1, 145814, Control_c, 0, 67, 125
1, 145829, Control_c, 0, 67, 126
1, 145833, Note_on_c, 0, 74, 66
1, 145835, Note_on_c, 0, 77, 70
1, 145857, Note_off_c, 0, 77, 70
1, 145858, Control_c, 0, 67, 126
1, 145859, Note_off_c, 0, 74, 69
1, 145964, Note_on_c, 0, 74, 65
1, 145981, Note_on_c, 0, 77, 61
1, 145991, Note_off_c, 0, 74, 69
1, 146000, Note_off_c, 0, 77, 65
1, 146105, Note_on_c, 0, 74, 49
1, 146108, Note_on_c, 0, 77, 58
1, 146128, Note_off_c, 0, 74, 60
1, 146134, Note_off_c, 0, 77, 67
1, 146230, Note_on_c, 0, 74, 49
1, 146238, Note_on_c, 0, 77, 65
1, 146262, Note_off_c, 0, 74, 65
1, 146265, Note_off_c, 0, 77, 65
1, 146368, Note_on_c, 0, 74, 62
1, 146373, Note_on_c, 0, 77, 77
1, 146387, Note_off_c, 0, 74, 66
1, 146399, Control_c, 0, 67, 126
1, 146400, Note_off_c, 0, 77, 62
1, 146489, Control_c, 0, 67, 125
1, 146498, Note_on_c, 0, 75, 65
1, 146502, Note_on_c, 0, 79, 65
1, 146504, Control_c, 0, 67, 125
1, 146533, Control_c, 0, 67, 124
1, 146553, Note_on_c, 0, 77, 74
1, 146556, Note_off_c, 0, 79, 60
1, 146557, Note_off_c, 0, 75, 63
1, 146581, Note_on_c, 0, 74, 60
1, 146584, Note_off_c, 0, 77, 60
1, 146593, Control_c, 0, 67, 124
1, 146608, Control_c, 0, 67, 123
1, 146609, Note_off_c, 0, 74, 67
1, 146612, Note_on_c, 0, 73, 72
1, 146615, Note_on_c, 0, 76, 72
1, 146666, Note_off_c, 0, 73, 59
1, 146675, Note_off_c, 0, 76, 60
1, 146678, Note_on_c, 0, 77, 77
1, 146679, Note_on_c, 0, 74, 76
1, 146705, Control_c, 0, 67, 125
1, 146720, Control_c, 0, 67, 126
1, 146721, Note_off_c, 0, 77, 62
1, 146724, Note_off_c, 0, 74, 0
1, 146735, Control_c, 0, 67, 127
1, 146739, Note_on_c, 0, 70, 70
1, 146755, Note_off_c, 0, 70, 67
1, 146761, Poly_aftertouch_c, 0, 74, 127
1, 146775, Poly_aftertouch_c, 0, 74, 0
1, 146879, Note_on_c, 0, 74, 69
1, 146903, Note_off_c, 0, 74, 70
1, 147010, Note_on_c, 0, 79, 66
1, 147012, Note_on_c, 0, 70, 57
1, 147040, Note_off_c, 0, 79, 61
1, 147157, Note_on_c, 0, 79, 60
1, 147176, Note_off_c, 0, 79, 63
1, 147293, Note_on_c, 0, 72, 53
1, 147313, Note_off_c, 0, 72, 63
1, 147429, Note_on_c, 0, 72, 41
1, 147456, Note_off_c, 0, 72, 58
1, 147571, Note_on_c, 0, 77, 61
1, 147583, Note_on_c, 0, 69, 39
1, 147595, Note_off_c, 0, 77, 65
1, 147653, Note_off_c, 0, 70, 37
1, 147709, Note_on_c, 0, 77, 59
1, 147738, Note_off_c, 0, 69, 59
1, 147739, Note_off_c, 0, 77, 65
1, 147860, Note_on_c, 0, 74, 57
1, 147881, Note_off_c, 0, 74, 64
1, 147991, Note_on_c, 0, 74, 52
1, 148026, Note_off_c, 0, 74, 65
1, 148127, Note_on_c, 0, 70, 54
1, 148139, Note_on_c, 0, 79, 65
1, 148178, Note_off_c, 0, 79, 60
1, 148292, Note_on_c, 0, 79, 61
1, 148323, Note_off_c, 0, 79, 62
1, 148432, Note_on_c, 0, 72, 54
1, 148451, Note_off_c, 0, 72, 62
1, 148547, Note_on_c, 0, 72, 51
1, 148582, Note_off_c, 0, 72, 63
1, 148684, Note_on_c, 0, 69, 58
1, 148687, Note_on_c, 0, 77, 64
1, 148715, Note_off_c, 0, 77, 65
1, 148720, Note_off_c, 0, 70, 57
1, 148766, Note_off_c, 0, 69, 63
1, 148822, Note_on_c, 0, 77, 76
1, 148843, Note_off_c, 0, 77, 69
1, 148976, Note_on_c, 0, 67, 54
1, 148982, Note_on_c, 0, 70, 59
1, 149016, Note_off_c, 0, 70, 59
1, 149112, Note_on_c, 0, 75, 67
1, 149142, Note_off_c, 0, 67, 57
1, 149147, Note_off_c, 0, 75, 60
1, 149252, Note_on_c, 0, 69, 70
1, 149255, Note_on_c, 0, 65, 60
1, 149288, Note_off_c, 0, 69, 54
1, 149381, Control_c, 0, 67, 125
1, 149383, Note_off_c, 0, 65, 63
1, 149387, Note_on_c, 0, 74, 69
1, 149396, Control_c, 0, 67, 122
1, 149411, Control_c, 0, 67, 118
1, 149418, Note_off_c, 0, 74, 63
1, 149425, Control_c, 0, 67, 114
1, 149440, Control_c, 0, 67, 111
1, 149455, Control_c, 0, 67, 107
1, 149470, Control_c, 0, 67, 103
1, 149484, Control_c, 0, 67, 99
1, 149499, Control_c, 0, 67, 96
1, 149514, Control_c, 0, 67, 93
1, 149529, Control_c, 0, 67, 90
1, 149541, Note_on_c, 0, 63, 52
1, 149541, Note_on_c, 0, 67, 54
1, 149544, Control_c, 0, 67, 87
1, 149559, Control_c, 0, 67, 84
1, 149574, Control_c, 0, 67, 82
1, 149580, Note_off_c, 0, 67, 60
1, 149589, Control_c, 0, 67, 81
1, 149604, Control_c, 0, 67, 81
1, 149618, Control_c, 0, 67, 80
1, 149687, Note_off_c, 0, 63, 59
1, 149700, Note_on_c, 0, 72, 53
1, 149724, Note_off_c, 0, 72, 59
1, 149818, Control_c, 0, 67, 81
1, 149866, Note_on_c, 0, 62, 42
1, 149884, Note_on_c, 0, 65, 48
1, 149928, Note_off_c, 0, 65, 60
1, 150006, Note_off_c, 0, 62, 62
1, 150056, Control_c, 0, 67, 81
1, 150059, Note_on_c, 0, 71, 57
1, 150096, Note_off_c, 0, 71, 64
1, 150248, Control_c, 0, 64, 11
1, 150263, Control_c, 0, 64, 14
1, 150292, Control_c, 0, 64, 19
1, 150307, Control_c, 0, 64, 21
1, 150311, Note_on_c, 0, 51, 32
1, 150322, Control_c, 0, 64, 23
1, 150337, Control_c, 0, 64, 26
1, 150346, Note_on_c, 0, 55, 38
1, 150352, Control_c, 0, 64, 27
1, 150367, Control_c, 0, 64, 29
1, 150382, Control_c, 0, 64, 30
1, 150419, Control_c, 0, 64, 31
1, 150431, Note_on_c, 0, 67, 36
1, 150468, Note_on_c, 0, 60, 23
1, 150476, Note_on_c, 0, 72, 56
1, 150493, Control_c, 0, 64, 32
1, 150716, Control_c, 0, 67, 82
1, 150760, Control_c, 0, 67, 82
1, 150775, Control_c, 0, 64, 33
1, 150775, Control_c, 0, 67, 83
1, 150790, Control_c, 0, 67, 84
1, 150805, Control_c, 0, 64, 34
1, 150805, Control_c, 0, 67, 84
1, 150820, Control_c, 0, 67, 85
1, 150835, Control_c, 0, 64, 36
1, 150835, Control_c, 0, 67, 85
1, 150850, Control_c, 0, 64, 43
1, 150850, Control_c, 0, 67, 86
1, 150865, Control_c, 0, 64, 53
1, 150865, Control_c, 0, 67, 86
1, 150879, Control_c, 0, 64, 61
1, 150879, Control_c, 0, 67, 87
1, 150894, Control_c, 0, 64, 64
1, 150894, Control_c, 0, 67, 88
1, 150909, Control_c, 0, 64, 68
1, 150923, Control_c, 0, 64, 70
1, 150923, Control_c, 0, 67, 88
1, 150953, Control_c, 0, 67, 89
1, 150968, Control_c, 0, 64, 69
1, 150983, Control_c, 0, 67, 89
1, 150997, Control_c, 0, 64, 69
1, 151012, Control_c, 0, 67, 90
1, 151027, Control_c, 0, 64, 68
1, 151027, Control_c, 0, 67, 90
1, 151042, Control_c, 0, 67, 91
1, 151057, Control_c, 0, 67, 92
1, 151071, Control_c, 0, 67, 92
1, 151086, Control_c, 0, 64, 69
1, 151086, Control_c, 0, 67, 93
1, 151101, Control_c, 0, 67, 93
1, 151115, Control_c, 0, 64, 69
1, 151130, Control_c, 0, 64, 70
1, 151130, Control_c, 0, 67, 94
1, 151153, Control_c, 0, 67, 95
1, 151168, Control_c, 0, 64, 70
1, 151168, Control_c, 0, 67, 97
1, 151183, Control_c, 0, 64, 71
1, 151183, Control_c, 0, 67, 100
1, 151197, Note_off_c, 0, 51, 32
1, 151197, Control_c, 0, 64, 71
1, 151197, Control_c, 0, 67, 103
1, 151212, Control_c, 0, 64, 72
1, 151212, Control_c, 0, 67, 105
1, 151227, Control_c, 0, 67, 107
1, 151236, Note_off_c, 0, 67, 35
1, 151242, Control_c, 0, 67, 109
1, 151256, Control_c, 0, 67, 110
1, 151260, Note_off_c, 0, 60, 29
1, 151271, Control_c, 0, 67, 113
1, 151283, Note_off_c, 0, 55, 24
1, 151286, Control_c, 0, 67, 115
1, 151301, Control_c, 0, 64, 71
1, 151301, Control_c, 0, 67, 118
1, 151316, Control_c, 0, 64, 71
1, 151316, Control_c, 0, 67, 120
1, 151330, Control_c, 0, 64, 70
1, 151330, Control_c, 0, 67, 123
1, 151345, Control_c, 0, 64, 70
1, 151345, Control_c, 0, 67, 125
1, 151360, Control_c, 0, 64, 68
1, 151360, Control_c, 0, 67, 127
1, 151375, Control_c, 0, 64, 66
1, 151390, Control_c, 0, 64, 65
1, 151404, Control_c, 0, 64, 64
1, 151419, Control_c, 0, 64, 62
1, 151434, Control_c, 0, 64, 60
1, 151449, Control_c, 0, 64, 57
1, 151464, Control_c, 0, 64, 52
1, 151480, Control_c, 0, 64, 40
1, 151494, Control_c, 0, 64, 24
1, 151509, Control_c, 0, 64, 0
1, 151820, Control_c, 0, 64, 17
1, 151835, Control_c, 0, 64, 29
1, 151850, Control_c, 0, 64, 41
1, 151864, Control_c, 0, 64, 49
1, 151879, Control_c, 0, 64, 54
1, 151902, Control_c, 0, 64, 57
1, 151917, Control_c, 0, 64, 59
1, 151932, Control_c, 0, 64, 62
1, 151946, Control_c, 0, 64, 63
1, 151961, Control_c, 0, 64, 65
1, 151976, Control_c, 0, 64, 66
1, 151991, Control_c, 0, 64, 67
1, 152006, Control_c, 0, 64, 69
1, 152020, Control_c, 0, 64, 70
1, 152035, Control_c, 0, 64, 72
1, 152050, Control_c, 0, 64, 75
1, 152065, Control_c, 0, 64, 77
1, 152078, Note_off_c, 0, 72, 59
1, 152079, Control_c, 0, 64, 79
1, 152094, Control_c, 0, 64, 82
1, 152104, Note_on_c, 0, 74, 46
1, 152109, Control_c, 0, 64, 84
1, 152124, Control_c, 0, 64, 86
1, 152139, Control_c, 0, 64, 88
1, 152153, Control_c, 0, 64, 89
1, 152168, Control_c, 0, 64, 89
1, 152198, Control_c, 0, 64, 90
1, 152227, Note_on_c, 0, 72, 46
1, 152252, Note_off_c, 0, 74, 51
1, 152323, Note_off_c, 0, 72, 57
1, 152329, Note_on_c, 0, 71, 58
1, 152362, Control_c, 0, 64, 89
1, 152390, Note_off_c, 0, 71, 65
1, 152391, Control_c, 0, 64, 89
1, 152406, Control_c, 0, 64, 88
1, 152415, Note_on_c, 0, 72, 62
1, 152421, Control_c, 0, 64, 87
1, 152436, Control_c, 0, 64, 86
1, 152450, Control_c, 0, 64, 84
1, 152465, Control_c, 0, 64, 81
1, 152480, Control_c, 0, 64, 77
1, 152494, Control_c, 0, 64, 72
1, 152509, Control_c, 0, 64, 64
1, 152524, Control_c, 0, 64, 44
1, 152539, Control_c, 0, 64, 0
1, 152540, Note_on_c, 0, 74, 66
1, 152555, Note_off_c, 0, 72, 54
1, 152694, Control_c, 0, 64, 46
1, 152698, Note_on_c, 0, 75, 67
1, 152709, Control_c, 0, 64, 64
1, 152724, Control_c, 0, 64, 67
1, 152732, Note_off_c, 0, 74, 56
1, 152739, Control_c, 0, 64, 70
1, 152754, Control_c, 0, 64, 73
1, 152768, Control_c, 0, 64, 75
1, 152781, Note_off_c, 0, 75, 62
1, 152783, Control_c, 0, 64, 77
1, 152798, Control_c, 0, 64, 78
1, 152825, Note_on_c, 0, 77, 58
1, 152883, Note_on_c, 0, 75, 66
1, 152892, Note_off_c, 0, 77, 61
1, 152913, Note_off_c, 0, 75, 63
1, 152931, Note_on_c, 0, 74, 76
1, 152946, Control_c, 0, 64, 78
1, 152961, Control_c, 0, 64, 77
1, 152975, Control_c, 0, 64, 76
1, 152986, Note_on_c, 0, 75, 75
1, 152990, Control_c, 0, 64, 74
1, 153005, Control_c, 0, 64, 72
1, 153011, Note_off_c, 0, 74, 58
1, 153020, Control_c, 0, 64, 69
1, 153035, Control_c, 0, 64, 66
1, 153050, Control_c, 0, 64, 65
1, 153065, Control_c, 0, 64, 64
1, 153080, Control_c, 0, 64, 62
1, 153095, Control_c, 0, 64, 60
1, 153110, Control_c, 0, 64, 54
1, 153124, Control_c, 0, 64, 42
1, 153138, Note_off_c, 0, 75, 64
1, 153139, Control_c, 0, 64, 14
1, 153142, Note_on_c, 0, 77, 78
1, 153154, Control_c, 0, 64, 0
1, 153319, Note_on_c, 0, 78, 61
1, 153378, Note_off_c, 0, 77, 56
1, 153725, Note_on_c, 0, 81, 49
1, 153792, Note_off_c, 0, 78, 53
1, 153987, Note_on_c, 0, 79, 42
1, 154021, Note_off_c, 0, 81, 53
1, 154340, Note_off_c, 0, 79, 47
1, 154964, Note_on_c, 0, 77, 43
1, 155354, Note_on_c, 0, 75, 38
1, 155498, Note_off_c, 0, 77, 47
1, 155930, Note_off_c, 0, 75, 43
1, 156665, Note_on_c, 0, 74, 37
1, 156883, Control_c, 0, 64, 11
1, 156893, Note_on_c, 0, 72, 45
1, 156913, Note_off_c, 0, 74, 53
1, 156942, Control_c, 0, 64, 14
1, 157002, Control_c, 0, 64, 17
1, 157033, Note_off_c, 0, 72, 61
1, 157044, Note_on_c, 0, 71, 55
1, 157046, Control_c, 0, 64, 19
1, 157091, Control_c, 0, 64, 21
1, 157106, Control_c, 0, 64, 23
1, 157143, Control_c, 0, 64, 24
1, 157158, Control_c, 0, 64, 26
1, 157172, Control_c, 0, 64, 27
1, 157187, Control_c, 0, 64, 28
1, 157188, Note_on_c, 0, 72, 59
1, 157190, Note_off_c, 0, 71, 58
1, 157217, Control_c, 0, 64, 29
1, 157247, Control_c, 0, 64, 30
1, 157262, Control_c, 0, 64, 31
1, 157288, Note_off_c, 0, 72, 62
1, 157291, Control_c, 0, 64, 32
1, 157306, Control_c, 0, 64, 33
1, 157312, Note_on_c, 0, 74, 58
1, 157321, Control_c, 0, 64, 35
1, 157336, Control_c, 0, 64, 36
1, 157351, Control_c, 0, 64, 37
1, 157365, Control_c, 0, 64, 39
1, 157369, Note_off_c, 0, 74, 63
1, 157380, Control_c, 0, 64, 41
1, 157395, Control_c, 0, 64, 44
1, 157406, Note_on_c, 0, 72, 52
1, 157410, Control_c, 0, 64, 46
1, 157425, Control_c, 0, 64, 49
1, 157430, Note_off_c, 0, 72, 58
1, 157439, Control_c, 0, 64, 51
1, 157454, Control_c, 0, 64, 54
1, 157461, Note_on_c, 0, 74, 57
1, 157469, Control_c, 0, 64, 59
1, 157483, Control_c, 0, 64, 62
1, 157492, Note_off_c, 0, 74, 67
1, 157498, Control_c, 0, 64, 64
1, 157512, Note_on_c, 0, 72, 52
1, 157513, Control_c, 0, 64, 66
1, 157528, Control_c, 0, 64, 67
1, 157543, Control_c, 0, 64, 69
1, 157545, Note_off_c, 0, 72, 64
1, 157557, Control_c, 0, 64, 70
1, 157572, Control_c, 0, 64, 71
1, 157581, Note_on_c, 0, 74, 65
1, 157587, Control_c, 0, 64, 72
1, 157602, Control_c, 0, 64, 73
1, 157608, Note_off_c, 0, 74, 69
1, 157617, Control_c, 0, 64, 74
1, 157631, Control_c, 0, 64, 75
1, 157640, Note_on_c, 0, 72, 58
1, 157646, Control_c, 0, 64, 76
1, 157661, Control_c, 0, 64, 77
1, 157668, Note_off_c, 0, 72, 66
1, 157676, Control_c, 0, 64, 78
1, 157684, Note_on_c, 0, 74, 65
1, 157691, Control_c, 0, 64, 80
1, 157706, Control_c, 0, 64, 82
1, 157712, Note_off_c, 0, 74, 67
1, 157721, Control_c, 0, 64, 84
1, 157736, Control_c, 0, 64, 87
1, 157750, Control_c, 0, 64, 89
1, 157755, Note_on_c, 0, 72, 50
1, 157765, Control_c, 0, 64, 91
1, 157775, Note_off_c, 0, 72, 61
1, 157780, Control_c, 0, 64, 93
1, 157795, Control_c, 0, 64, 95
1, 157801, Note_on_c, 0, 74, 67
1, 157809, Control_c, 0, 64, 97
1, 157819, Note_off_c, 0, 74, 66
1, 157824, Control_c, 0, 64, 98
1, 157839, Control_c, 0, 64, 101
1, 157852, Note_on_c, 0, 72, 63
1, 157854, Control_c, 0, 64, 103
1, 157870, Control_c, 0, 64, 105
1, 157885, Note_off_c, 0, 72, 61
1, 157892, Control_c, 0, 64, 108
1, 157900, Note_on_c, 0, 74, 72
1, 157907, Control_c, 0, 64, 111
1, 157921, Control_c, 0, 64, 116
1, 157929, Note_off_c, 0, 74, 65
1, 157936, Control_c, 0, 64, 127
1, 157959, Note_on_c, 0, 72, 61
1, 157987, Note_off_c, 0, 72, 66
1, 158011, Note_on_c, 0, 74, 65
1, 158034, Note_off_c, 0, 74, 70
1, 158077, Note_on_c, 0, 72, 61
1, 158096, Note_off_c, 0, 72, 66
1, 158123, Note_on_c, 0, 74, 65
1, 158143, Note_off_c, 0, 74, 67
1, 158162, Note_on_c, 0, 72, 63
1, 158203, Note_off_c, 0, 72, 58
1, 158212, Note_on_c, 0, 74, 63
1, 158245, Note_off_c, 0, 74, 62
1, 158278, Note_on_c, 0, 72, 57
1, 158304, Note_off_c, 0, 72, 68
1, 158317, Note_on_c, 0, 74, 67
1, 158344, Note_off_c, 0, 74, 68
1, 158375, Note_on_c, 0, 72, 60
1, 158402, Note_off_c, 0, 72, 67
1, 158412, Note_on_c, 0, 74, 78
1, 158439, Note_off_c, 0, 74, 64
1, 158477, Note_on_c, 0, 72, 70
1, 158499, Note_off_c, 0, 72, 68
1, 158511, Note_on_c, 0, 74, 79
1, 158544, Note_off_c, 0, 74, 60
1, 158578, Note_on_c, 0, 72, 65
1, 158600, Note_off_c, 0, 72, 66
1, 158612, Note_on_c, 0, 74, 78
1, 158651, Note_off_c, 0, 74, 61
1, 158670, Control_c, 0, 67, 126
1, 158671, Note_on_c, 0, 72, 72
1, 158685, Control_c, 0, 67, 123
1, 158700, Control_c, 0, 67, 119
1, 158715, Control_c, 0, 67, 115
1, 158719, Note_off_c, 0, 72, 61
1, 158724, Note_on_c, 0, 74, 77
1, 158730, Control_c, 0, 67, 109
1, 158744, Control_c, 0, 67, 104
1, 158752, Note_off_c, 0, 74, 59
1, 158759, Control_c, 0, 67, 97
1, 158774, Control_c, 0, 67, 90
1, 158783, Note_on_c, 0, 72, 66
1, 158789, Control_c, 0, 67, 83
1, 158804, Control_c, 0, 67, 75
1, 158812, Note_off_c, 0, 72, 63
1, 158818, Control_c, 0, 67, 67
1, 158825, Note_on_c, 0, 74, 76
1, 158833, Control_c, 0, 67, 60
1, 158848, Control_c, 0, 67, 55
1, 158852, Note_off_c, 0, 74, 63
1, 158862, Control_c, 0, 67, 49
1, 158877, Control_c, 0, 67, 45
1, 158881, Note_on_c, 0, 72, 68
1, 158892, Control_c, 0, 67, 41
1, 158907, Control_c, 0, 67, 36
1, 158908, Note_off_c, 0, 72, 62
1, 158920, Note_on_c, 0, 74, 80
1, 158922, Control_c, 0, 67, 32
1, 158937, Control_c, 0, 67, 28
1, 158952, Control_c, 0, 67, 23
1, 158957, Note_off_c, 0, 74, 60
1, 158967, Control_c, 0, 67, 19
1, 158979, Note_on_c, 0, 72, 74
1, 158982, Control_c, 0, 67, 15
1, 158996, Control_c, 0, 67, 10
1, 159011, Control_c, 0, 67, 0
1, 159014, Note_off_c, 0, 72, 55
1, 159021, Note_on_c, 0, 74, 78
1, 159062, Note_off_c, 0, 74, 61
1, 159080, Note_on_c, 0, 72, 74
1, 159111, Note_off_c, 0, 72, 56
1, 159116, Note_on_c, 0, 74, 74
1, 159161, Note_off_c, 0, 74, 63
1, 159184, Note_on_c, 0, 72, 73
1, 159209, Note_off_c, 0, 72, 60
1, 159219, Note_on_c, 0, 74, 77
1, 159265, Note_off_c, 0, 74, 64
1, 159288, Note_on_c, 0, 72, 76
1, 159315, Note_off_c, 0, 72, 57
1, 159321, Note_on_c, 0, 63, 84
1, 159321, Note_on_c, 0, 74, 76
1, 159326, Note_on_c, 0, 53, 79
1, 159328, Note_on_c, 0, 57, 74
1, 159337, Control_c, 0, 64, 96
1, 159352, Control_c, 0, 64, 67
1, 159367, Control_c, 0, 64, 0
1, 159369, Note_off_c, 0, 74, 67
1, 159405, Note_on_c, 0, 72, 75
1, 159419, Control_c, 0, 64, 47
1, 159432, Note_off_c, 0, 72, 61
1, 159434, Control_c, 0, 64, 68
1, 159445, Note_on_c, 0, 74, 74
1, 159449, Control_c, 0, 64, 81
1, 159464, Control_c, 0, 64, 109
1, 159479, Control_c, 0, 64, 127
1, 159487, Note_off_c, 0, 74, 62
1, 159510, Note_on_c, 0, 72, 75
1, 159543, Note_off_c, 0, 72, 52
1, 159551, Note_on_c, 0, 74, 77
1, 159591, Note_off_c, 0, 74, 62
1, 159612, Note_on_c, 0, 72, 78
1, 159649, Note_off_c, 0, 72, 57
1, 159655, Note_on_c, 0, 74, 79
1, 159696, Note_off_c, 0, 74, 63
1, 159712, Note_on_c, 0, 72, 78
1, 159757, Note_on_c, 0, 74, 81
1, 159757, Note_off_c, 0, 72, 60
1, 159801, Note_off_c, 0, 74, 63
1, 159819, Note_on_c, 0, 72, 74
1, 159864, Note_on_c, 0, 74, 81
1, 159866, Note_off_c, 0, 72, 61
1, 159900, Note_off_c, 0, 74, 65
1, 159913, Note_on_c, 0, 72, 63
1, 159963, Note_on_c, 0, 74, 78
1, 159963, Note_off_c, 0, 72, 62
1, 160010, Note_off_c, 0, 74, 63
1, 160031, Note_on_c, 0, 72, 67
1, 160052, Note_off_c, 0, 53, 59
1, 160058, Note_off_c, 0, 63, 61
1, 160079, Note_off_c, 0, 57, 60
1, 160137, Note_off_c, 0, 72, 54
1, 160156, Note_on_c, 0, 70, 68
1, 160207, Note_off_c, 0, 70, 64
1, 160237, Note_on_c, 0, 72, 66
1, 160257, Control_c, 0, 67, 9
1, 160272, Control_c, 0, 64, 82
1, 160272, Control_c, 0, 67, 16
1, 160276, Note_off_c, 0, 72, 62
1, 160283, Note_on_c, 0, 46, 65
1, 160287, Control_c, 0, 64, 0
1, 160287, Control_c, 0, 67, 27
1, 160293, Note_on_c, 0, 62, 67
1, 160296, Note_on_c, 0, 70, 68
1, 160302, Control_c, 0, 67, 41
1, 160305, Note_off_c, 0, 46, 63
1, 160316, Control_c, 0, 67, 55
1, 160331, Control_c, 0, 67, 64
1, 160346, Control_c, 0, 67, 73
1, 160361, Control_c, 0, 67, 82
1, 160376, Control_c, 0, 67, 90
1, 160390, Control_c, 0, 67, 97
1, 160405, Control_c, 0, 67, 102
1, 160420, Control_c, 0, 67, 107
1, 160434, Control_c, 0, 67, 110
1, 160437, Note_on_c, 0, 58, 50
1, 160449, Control_c, 0, 67, 113
1, 160461, Note_off_c, 0, 58, 61
1, 160464, Control_c, 0, 67, 113
1, 160465, Note_off_c, 0, 62, 56
1, 160466, Note_off_c, 0, 70, 62
1, 160538, Control_c, 0, 67, 113
1, 160553, Control_c, 0, 67, 111
1, 160568, Control_c, 0, 67, 110
1, 160574, Note_on_c, 0, 46, 48
1, 160582, Control_c, 0, 67, 110
1, 160597, Control_c, 0, 67, 109
1, 160603, Note_off_c, 0, 46, 54
1, 160612, Control_c, 0, 67, 108
1, 160627, Control_c, 0, 67, 108
1, 160642, Control_c, 0, 67, 107
1, 160657, Control_c, 0, 67, 107
1, 160687, Control_c, 0, 67, 106
1, 160699, Note_on_c, 0, 58, 71
1, 160724, Note_off_c, 0, 58, 67
1, 160833, Note_on_c, 0, 46, 69
1, 160834, Control_c, 0, 67, 107
1, 160849, Control_c, 0, 67, 109
1, 160860, Note_off_c, 0, 46, 64
1, 160864, Control_c, 0, 67, 110
1, 160886, Control_c, 0, 67, 112
1, 160901, Control_c, 0, 67, 113
1, 160916, Control_c, 0, 67, 115
1, 160931, Control_c, 0, 67, 119
1, 160946, Control_c, 0, 67, 127
1, 160979, Note_on_c, 0, 58, 65
1, 161007, Note_off_c, 0, 58, 66
1, 161116, Note_on_c, 0, 46, 62
1, 161140, Note_off_c, 0, 46, 61
1, 161241, Note_on_c, 0, 58, 60
1, 161247, Note_on_c, 0, 77, 67
1, 161267, Note_off_c, 0, 58, 65
1, 161288, Note_off_c, 0, 77, 53
1, 161387, Note_on_c, 0, 74, 69
1, 161387, Note_on_c, 0, 46, 54
1, 161393, Note_on_c, 0, 68, 55
1, 161417, Note_off_c, 0, 46, 58
1, 161527, Note_on_c, 0, 58, 65
1, 161554, Note_off_c, 0, 58, 65
1, 161667, Note_on_c, 0, 46, 67
1, 161701, Note_off_c, 0, 46, 60
1, 161799, Note_on_c, 0, 58, 62
1, 161800, Note_on_c, 0, 75, 64
1, 161803, Note_off_c, 0, 68, 62
1, 161805, Note_on_c, 0, 67, 65
1, 161812, Note_off_c, 0, 74, 64
1, 161826, Note_off_c, 0, 58, 66
1, 161826, Note_off_c, 0, 75, 68
1, 161831, Note_off_c, 0, 67, 67
1, 161944, Note_on_c, 0, 72, 70
1, 161945, Note_on_c, 0, 46, 50
1, 161948, Note_on_c, 0, 63, 59
1, 161972, Note_off_c, 0, 46, 57
1, 162070, Note_on_c, 0, 58, 63
1, 162095, Control_c, 0, 67, 127
1, 162099, Note_off_c, 0, 58, 66
1, 162110, Control_c, 0, 67, 125
1, 162125, Control_c, 0, 67, 122
1, 162140, Control_c, 0, 67, 118
1, 162154, Control_c, 0, 67, 115
1, 162170, Control_c, 0, 67, 113
1, 162185, Control_c, 0, 67, 110
1, 162199, Control_c, 0, 67, 107
1, 162202, Note_on_c, 0, 46, 67
1, 162214, Control_c, 0, 67, 106
1, 162229, Control_c, 0, 67, 105
1, 162234, Note_off_c, 0, 46, 63
1, 162244, Control_c, 0, 67, 105
1, 162288, Control_c, 0, 67, 105
1, 162309, Note_off_c, 0, 63, 55
1, 162318, Control_c, 0, 67, 106
1, 162326, Note_on_c, 0, 58, 66
1, 162332, Note_on_c, 0, 60, 60
1, 162347, Note_off_c, 0, 72, 58
1, 162348, Control_c, 0, 67, 106
1, 162348, Note_on_c, 0, 69, 46
1, 162351, Note_off_c, 0, 58, 67
1, 162361, Note_off_c, 0, 60, 66
1, 162362, Control_c, 0, 67, 107
1, 162379, Note_off_c, 0, 69, 55
1, 162385, Control_c, 0, 67, 107
1, 162400, Control_c, 0, 67, 108
1, 162414, Control_c, 0, 67, 108
1, 162429, Control_c, 0, 67, 109
1, 162444, Control_c, 0, 67, 110
1, 162459, Control_c, 0, 67, 112
1, 162474, Control_c, 0, 67, 113
1, 162485, Note_on_c, 0, 62, 51
1, 162485, Note_on_c, 0, 70, 57
1, 162488, Control_c, 0, 67, 115
1, 162489, Note_on_c, 0, 46, 40
1, 162503, Control_c, 0, 67, 117
1, 162511, Note_off_c, 0, 62, 61
1, 162518, Control_c, 0, 67, 119
1, 162521, Note_off_c, 0, 70, 63
1, 162522, Note_off_c, 0, 46, 50
1, 162533, Control_c, 0, 67, 123
1, 162548, Control_c, 0, 67, 127
1, 162619, Note_on_c, 0, 58, 55
1, 162643, Note_off_c, 0, 58, 63
1, 162767, Note_on_c, 0, 46, 54
1, 162767, Note_on_c, 0, 63, 57
1, 162767, Note_on_c, 0, 72, 65
1, 162794, Note_off_c, 0, 46, 59
1, 162801, Note_off_c, 0, 63, 65
1, 162815, Note_off_c, 0, 72, 61
1, 162897, Note_on_c, 0, 58, 62
1, 162924, Note_off_c, 0, 58, 65
1, 162964, Control_c, 0, 67, 127
1, 162993, Control_c, 0, 67, 126
1, 163052, Note_on_c, 0, 46, 53
1, 163057, Note_on_c, 0, 74, 63
1, 163068, Note_on_c, 0, 65, 48
1, 163080, Note_off_c, 0, 46, 59
1, 163164, Control_c, 0, 67, 127
1, 163183, Note_off_c, 0, 65, 63
1, 163190, Note_on_c, 0, 58, 60
1, 163197, Note_off_c, 0, 74, 64
1, 163217, Note_off_c, 0, 58, 65
1, 163311, Control_c, 0, 67, 125
1, 163326, Control_c, 0, 67, 124
1, 163327, Note_on_c, 0, 46, 66
1, 163341, Control_c, 0, 67, 121
1, 163355, Note_off_c, 0, 46, 64
1, 163356, Control_c, 0, 67, 117
1, 163371, Control_c, 0, 67, 111
1, 163385, Control_c, 0, 67, 105
1, 163400, Control_c, 0, 67, 99
1, 163415, Control_c, 0, 67, 94
1, 163429, Control_c, 0, 67, 91
1, 163444, Control_c, 0, 67, 87
1, 163457, Note_on_c, 0, 58, 68
1, 163460, Note_on_c, 0, 77, 73
1, 163460, Control_c, 0, 67, 84
1, 163475, Control_c, 0, 67, 80
1, 163483, Note_off_c, 0, 58, 66
1, 163490, Control_c, 0, 67, 76
1, 163505, Control_c, 0, 67, 73
1, 163520, Control_c, 0, 67, 71
1, 163521, Note_off_c, 0, 77, 58
1, 163534, Control_c, 0, 67, 69
1, 163549, Control_c, 0, 67, 69
1, 163601, Note_on_c, 0, 74, 73
1, 163605, Note_on_c, 0, 46, 60
1, 163606, Note_on_c, 0, 68, 64
1, 163637, Note_off_c, 0, 46, 64
1, 163742, Note_on_c, 0, 58, 70
1, 163771, Note_off_c, 0, 58, 64
1, 163831, Control_c, 0, 67, 69
1, 163888, Note_on_c, 0, 46, 66
1, 163917, Note_off_c, 0, 46, 64
1, 164001, Control_c, 0, 67, 69
1, 164019, Note_on_c, 0, 75, 68
1, 164020, Note_on_c, 0, 58, 63
1, 164027, Note_on_c, 0, 67, 68
1, 164028, Note_off_c, 0, 68, 62
1, 164038, Note_off_c, 0, 74, 63
1, 164046, Note_off_c, 0, 58, 66
1, 164051, Note_off_c, 0, 75, 63
1, 164052, Note_off_c, 0, 67, 67
1, 164075, Control_c, 0, 67, 68
1, 164171, Note_on_c, 0, 72, 65
1, 164175, Note_on_c, 0, 46, 47
1, 164180, Note_on_c, 0, 63, 53
1, 164204, Note_off_c, 0, 46, 52
1, 164311, Note_on_c, 0, 58, 56
1, 164339, Note_off_c, 0, 58, 64
1, 164431, Control_c, 0, 67, 69
1, 164445, Note_on_c, 0, 46, 61
1, 164460, Control_c, 0, 67, 69
1, 164475, Control_c, 0, 67, 70
1, 164477, Note_off_c, 0, 46, 62
1, 164490, Control_c, 0, 67, 71
1, 164505, Control_c, 0, 67, 71
1, 164520, Control_c, 0, 67, 72
1, 164535, Control_c, 0, 67, 73
1, 164542, Note_off_c, 0, 63, 56
1, 164549, Control_c, 0, 67, 73
1, 164564, Control_c, 0, 67, 74
1, 164570, Note_on_c, 0, 58, 64
1, 164579, Note_on_c, 0, 60, 45
1, 164579, Control_c, 0, 67, 74
1, 164580, Note_on_c, 0, 69, 54
1, 164589, Note_off_c, 0, 72, 62
1, 164593, Control_c, 0, 67, 75
1, 164596, Note_off_c, 0, 58, 66
1, 164604, Note_off_c, 0, 60, 58
1, 164604, Note_off_c, 0, 69, 63
1, 164608, Control_c, 0, 67, 76
1, 164630, Control_c, 0, 67, 76
1, 164645, Control_c, 0, 67, 77
1, 164660, Control_c, 0, 67, 78
1, 164675, Control_c, 0, 67, 78
1, 164690, Control_c, 0, 67, 79
1, 164705, Control_c, 0, 67, 80
1, 164718, Note_on_c, 0, 46, 62
1, 164720, Control_c, 0, 67, 80
1, 164728, Note_on_c, 0, 70, 61
1, 164734, Note_on_c, 0, 62, 51
1, 164735, Control_c, 0, 67, 81
1, 164749, Control_c, 0, 67, 82
1, 164754, Note_off_c, 0, 46, 63
1, 164764, Control_c, 0, 67, 83
1, 164765, Note_off_c, 0, 62, 63
1, 164779, Control_c, 0, 67, 85
1, 164782, Note_off_c, 0, 70, 61
1, 164794, Control_c, 0, 67, 88
1, 164808, Control_c, 0, 67, 90
1, 164823, Control_c, 0, 67, 93
1, 164838, Control_c, 0, 67, 97
1, 164853, Control_c, 0, 67, 100
1, 164861, Note_on_c, 0, 58, 56
1, 164868, Control_c, 0, 67, 102
1, 164882, Control_c, 0, 67, 105
1, 164887, Note_off_c, 0, 58, 64
1, 164897, Control_c, 0, 67, 107
1, 164912, Control_c, 0, 67, 109
1, 164927, Control_c, 0, 67, 112
1, 164942, Control_c, 0, 67, 115
1, 164956, Control_c, 0, 67, 118
1, 164971, Control_c, 0, 67, 120
1, 164986, Control_c, 0, 67, 122
1, 165000, Control_c, 0, 67, 125
1, 165006, Note_on_c, 0, 46, 51
1, 165013, Note_on_c, 0, 74, 62
1, 165015, Note_on_c, 0, 65, 56
1, 165015, Control_c, 0, 67, 127
1, 165036, Note_off_c, 0, 46, 58
1, 165055, Note_off_c, 0, 65, 64
1, 165063, Note_off_c, 0, 74, 64
1, 165143, Note_on_c, 0, 58, 55
1, 165166, Note_off_c, 0, 58, 62
1, 165378, Note_on_c, 0, 70, 40
1, 165386, Note_on_c, 0, 46, 38
1, 165401, Note_on_c, 0, 62, 27
1, 165798, Note_off_c, 0, 62, 50
1, 165820, Note_off_c, 0, 70, 54
1, 165822, Note_off_c, 0, 46, 43
1, 168494, Control_c, 0, 64, 19
1, 168509, Control_c, 0, 64, 35
1, 168523, Control_c, 0, 64, 47
1, 168538, Control_c, 0, 64, 55
1, 168553, Control_c, 0, 64, 60
1, 168567, Control_c, 0, 64, 63
1, 168582, Control_c, 0, 64, 65
1, 168597, Control_c, 0, 64, 66
1, 168612, Control_c, 0, 64, 67
1, 168627, Control_c, 0, 64, 68
1, 168641, Control_c, 0, 64, 69
1, 168656, Control_c, 0, 64, 70
1, 168671, Control_c, 0, 64, 71
1, 168686, Control_c, 0, 64, 73
1, 168701, Control_c, 0, 64, 75
1, 168715, Control_c, 0, 64, 77
1, 168730, Control_c, 0, 64, 79
1, 168745, Control_c, 0, 64, 83
1, 168760, Control_c, 0, 64, 87
1, 168774, Control_c, 0, 64, 93
1, 168789, Control_c, 0, 64, 98
1, 168804, Control_c, 0, 64, 105
1, 168819, Control_c, 0, 64, 112
1, 168834, Control_c, 0, 64, 127
1, 172637, Control_c, 0, 67, 123
1, 172652, Control_c, 0, 67, 119
1, 172667, Control_c, 0, 67, 115
1, 172682, Control_c, 0, 67, 109
1, 172697, Control_c, 0, 67, 104
1, 172712, Control_c, 0, 67, 98
1, 172727, Control_c, 0, 67, 89
1, 172741, Control_c, 0, 67, 81
1, 172756, Control_c, 0, 67, 72
1, 172771, Control_c, 0, 67, 64
1, 172786, Control_c, 0, 67, 57
1, 172801, Control_c, 0, 67, 51
1, 172815, Control_c, 0, 67, 45
1, 172830, Control_c, 0, 67, 40
1, 172845, Control_c, 0, 67, 35
1, 172867, Control_c, 0, 67, 30
1, 172881, Note_on_c, 0, 53, 57
1, 172882, Control_c, 0, 67, 26
1, 172896, Control_c, 0, 67, 23
1, 172911, Control_c, 0, 67, 19
1, 172926, Control_c, 0, 67, 16
1, 172927, Note_on_c, 0, 57, 52
1, 172941, Control_c, 0, 67, 12
1, 172956, Control_c, 0, 67, 9
1, 172968, Note_on_c, 0, 69, 62
1, 172971, Control_c, 0, 67, 0
1, 172976, Note_on_c, 0, 60, 59
1, 173010, Note_on_c, 0, 72, 65
1, 173040, Note_on_c, 0, 65, 54
1, 173075, Note_on_c, 0, 77, 83
1, 173110, Note_off_c, 0, 69, 53
1, 173218, Note_off_c, 0, 72, 61
1, 173737, Note_off_c, 0, 77, 60
1, 173774, Note_on_c, 0, 79, 57
1, 173859, Note_on_c, 0, 77, 63
1, 173874, Note_off_c, 0, 79, 56
1, 173931, Note_on_c, 0, 76, 70
1, 173956, Note_off_c, 0, 77, 56
1, 173958, Control_c, 0, 64, 110
1, 173973, Control_c, 0, 64, 98
1, 173987, Control_c, 0, 64, 85
1, 174002, Control_c, 0, 64, 70
1, 174012, Note_on_c, 0, 77, 57
1, 174017, Control_c, 0, 64, 51
1, 174019, Note_off_c, 0, 76, 57
1, 174032, Control_c, 0, 64, 0
1, 174159, Note_off_c, 0, 77, 60
1, 174250, Note_on_c, 0, 79, 69
1, 174371, Note_off_c, 0, 79, 58
1, 174468, Note_on_c, 0, 81, 64
1, 174567, Note_off_c, 0, 81, 59
1, 174684, Note_on_c, 0, 82, 75
1, 174772, Note_off_c, 0, 82, 64
1, 174971, Note_on_c, 0, 83, 65
1, 174987, Note_off_c, 0, 53, 41
1, 175114, Note_off_c, 0, 65, 57
1, 175140, Note_off_c, 0, 57, 36
1, 175173, Note_off_c, 0, 60, 52
1, 175450, Note_on_c, 0, 84, 55
1, 175581, Note_off_c, 0, 83, 60
1, 175693, Control_c, 0, 67, 8
1, 175707, Control_c, 0, 67, 9
1, 175722, Control_c, 0, 67, 11
1, 175737, Control_c, 0, 67, 13
1, 175751, Control_c, 0, 67, 16
1, 175766, Control_c, 0, 67, 19
1, 175781, Control_c, 0, 67, 24
1, 175796, Control_c, 0, 67, 29
1, 175811, Control_c, 0, 67, 34
1, 175825, Control_c, 0, 67, 38
1, 175840, Control_c, 0, 67, 43
1, 175862, Control_c, 0, 67, 48
1, 175877, Control_c, 0, 67, 53
1, 175892, Control_c, 0, 67, 60
1, 175907, Control_c, 0, 67, 66
1, 175921, Note_on_c, 0, 72, 40
1, 175922, Control_c, 0, 67, 75
1, 175937, Control_c, 0, 67, 83
1, 175951, Note_off_c, 0, 84, 44
1, 175952, Control_c, 0, 64, 27
1, 175952, Control_c, 0, 67, 92
1, 175966, Control_c, 0, 64, 37
1, 175966, Control_c, 0, 67, 101
1, 175981, Control_c, 0, 64, 47
1, 175981, Control_c, 0, 67, 109
1, 175996, Control_c, 0, 64, 55
1, 175996, Control_c, 0, 67, 117
1, 176011, Control_c, 0, 64, 60
1, 176011, Control_c, 0, 67, 125
1, 176026, Control_c, 0, 64, 63
1, 176026, Control_c, 0, 67, 127
1, 176040, Control_c, 0, 64, 66
1, 176055, Control_c, 0, 64, 69
1, 176070, Control_c, 0, 64, 73
1, 176085, Control_c, 0, 64, 77
1, 176100, Control_c, 0, 64, 83
1, 176114, Control_c, 0, 64, 87
1, 176129, Control_c, 0, 64, 91
1, 176144, Control_c, 0, 64, 94
1, 176158, Control_c, 0, 64, 98
1, 176173, Control_c, 0, 64, 101
1, 176188, Control_c, 0, 64, 106
1, 176203, Control_c, 0, 64, 110
1, 176218, Control_c, 0, 64, 114
1, 176234, Control_c, 0, 64, 123
1, 176241, Note_off_c, 0, 72, 59
1, 176248, Control_c, 0, 64, 127
1, 176487, Note_on_c, 0, 72, 48
1, 176494, Note_on_c, 0, 69, 34
1, 176499, Note_on_c, 0, 65, 40
1, 176686, Note_off_c, 0, 65, 36
1, 176701, Note_off_c, 0, 69, 50
1, 176742, Note_off_c, 0, 72, 60
1, 176985, Note_on_c, 0, 71, 61
1, 176987, Note_on_c, 0, 65, 46
1, 176993, Note_on_c, 0, 68, 54
1, 177027, Control_c, 0, 64, 105
1, 177042, Control_c, 0, 64, 93
1, 177057, Control_c, 0, 64, 84
1, 177072, Control_c, 0, 64, 76
1, 177086, Control_c, 0, 64, 68
1, 177101, Control_c, 0, 64, 57
1, 177116, Control_c, 0, 64, 32
1, 177131, Control_c, 0, 64, 19
1, 177146, Control_c, 0, 64, 0
1, 177419, Control_c, 0, 64, 23
1, 177434, Control_c, 0, 64, 28
1, 177449, Control_c, 0, 64, 29
1, 177464, Control_c, 0, 64, 33
1, 177477, Note_on_c, 0, 69, 54
1, 177479, Note_on_c, 0, 72, 60
1, 177479, Control_c, 0, 64, 39
1, 177493, Control_c, 0, 64, 45
1, 177508, Control_c, 0, 64, 50
1, 177523, Control_c, 0, 64, 53
1, 177538, Control_c, 0, 64, 55
1, 177538, Control_c, 0, 67, 127
1, 177553, Control_c, 0, 64, 58
1, 177568, Control_c, 0, 64, 59
1, 177568, Control_c, 0, 67, 126
1, 177582, Control_c, 0, 64, 60
1, 177592, Note_off_c, 0, 68, 53
1, 177597, Control_c, 0, 64, 61
1, 177612, Control_c, 0, 64, 62
1, 177612, Control_c, 0, 67, 126
1, 177615, Note_off_c, 0, 71, 58
1, 177657, Control_c, 0, 64, 62
1, 177657, Control_c, 0, 67, 125
1, 177714, Note_off_c, 0, 65, 39
1, 177730, Control_c, 0, 67, 125
1, 177775, Control_c, 0, 64, 62
1, 177819, Control_c, 0, 64, 61
1, 177835, Control_c, 0, 64, 61
1, 177865, Control_c, 0, 64, 60
1, 177880, Control_c, 0, 64, 59
1, 177894, Control_c, 0, 64, 59
1, 177908, Control_c, 0, 64, 57
1, 177923, Control_c, 0, 64, 56
1, 177938, Control_c, 0, 64, 54
1, 177950, Note_on_c, 0, 74, 50
1, 177952, Control_c, 0, 64, 52
1, 177959, Note_on_c, 0, 70, 41
1, 177967, Note_on_c, 0, 65, 34
1, 177967, Control_c, 0, 64, 49
1, 177982, Control_c, 0, 64, 47
1, 177997, Control_c, 0, 64, 44
1, 178001, Note_off_c, 0, 72, 56
1, 178012, Control_c, 0, 64, 42
1, 178027, Control_c, 0, 64, 41
1, 178027, Control_c, 0, 67, 125
1, 178030, Note_off_c, 0, 69, 53
1, 178041, Control_c, 0, 64, 39
1, 178056, Control_c, 0, 64, 37
1, 178071, Control_c, 0, 64, 35
1, 178086, Control_c, 0, 64, 33
1, 178108, Control_c, 0, 64, 32
1, 178123, Control_c, 0, 64, 31
1, 178198, Note_off_c, 0, 70, 60
1, 178209, Note_off_c, 0, 74, 60
1, 178256, Control_c, 0, 67, 126
1, 178405, Control_c, 0, 67, 126
1, 178434, Control_c, 0, 64, 30
1, 178434, Control_c, 0, 67, 127
1, 178435, Note_on_c, 0, 70, 40
1, 178435, Note_on_c, 0, 74, 52
1, 178449, Control_c, 0, 64, 29
1, 178464, Control_c, 0, 64, 27
1, 178464, Control_c, 0, 67, 127
1, 178479, Control_c, 0, 64, 26
1, 178494, Control_c, 0, 64, 23
1, 178508, Control_c, 0, 64, 17
1, 178523, Control_c, 0, 64, 14
1, 178538, Control_c, 0, 64, 0
1, 178581, Note_off_c, 0, 65, 49
1, 178668, Note_off_c, 0, 70, 58
1, 178691, Note_off_c, 0, 74, 57
1, 178887, Note_on_c, 0, 72, 47
1, 178892, Note_on_c, 0, 69, 40
1, 178894, Note_on_c, 0, 65, 35
1, 179091, Note_off_c, 0, 65, 55
1, 179374, Note_on_c, 0, 65, 34
1, 179527, Note_off_c, 0, 65, 56
1, 179901, Note_on_c, 0, 65, 29
1, 180011, Note_off_c, 0, 69, 50
1, 180117, Note_off_c, 0, 72, 38
1, 180648, Note_off_c, 0, 65, 45
1, 180855, Note_on_c, 0, 69, 40
1, 180915, Note_on_c, 0, 72, 41
1, 180967, Note_off_c, 0, 69, 34
1, 180993, Note_on_c, 0, 77, 50
1, 181087, Note_off_c, 0, 72, 45
1, 181326, Control_c, 0, 64, 19
1, 181341, Control_c, 0, 64, 28
1, 181356, Control_c, 0, 64, 35
1, 181370, Control_c, 0, 64, 41
1, 181385, Control_c, 0, 64, 47
1, 181400, Control_c, 0, 64, 52
1, 181415, Control_c, 0, 64, 58
1, 181430, Control_c, 0, 64, 62
1, 181445, Control_c, 0, 64, 64
1, 181455, Note_on_c, 0, 60, 25
1, 181459, Note_on_c, 0, 65, 23
1, 181459, Control_c, 0, 64, 66
1, 181469, Note_on_c, 0, 57, 12
1, 181474, Control_c, 0, 64, 68
1, 181489, Control_c, 0, 64, 70
1, 181503, Control_c, 0, 64, 72
1, 181518, Control_c, 0, 64, 76
1, 181533, Control_c, 0, 64, 80
1, 181548, Control_c, 0, 64, 84
1, 181563, Control_c, 0, 64, 88
1, 181577, Control_c, 0, 64, 92
1, 181592, Control_c, 0, 64, 96
1, 181607, Control_c, 0, 64, 102
1, 181622, Control_c, 0, 64, 109
1, 181637, Control_c, 0, 64, 120
1, 181651, Control_c, 0, 64, 127
1, 181671, Note_off_c, 0, 65, 42
1, 181676, Note_off_c, 0, 77, 58
1, 181694, Note_on_c, 0, 79, 53
1, 181697, Note_off_c, 0, 57, 42
1, 181700, Note_off_c, 0, 60, 44
1, 181770, Control_c, 0, 67, 127
1, 181785, Control_c, 0, 67, 126
1, 181787, Note_on_c, 0, 77, 66
1, 181800, Control_c, 0, 67, 125
1, 181830, Control_c, 0, 67, 125
1, 181889, Note_off_c, 0, 79, 35
1, 181911, Note_on_c, 0, 65, 40
1, 181912, Note_on_c, 0, 76, 65
1, 181925, Note_on_c, 0, 60, 38
1, 181927, Note_on_c, 0, 57, 34
1, 181941, Control_c, 0, 67, 125
1, 181949, Note_off_c, 0, 77, 60
1, 181971, Control_c, 0, 64, 107
1, 181986, Control_c, 0, 64, 89
1, 182000, Control_c, 0, 64, 76
1, 182015, Control_c, 0, 64, 65
1, 182030, Control_c, 0, 64, 48
1, 182030, Control_c, 0, 67, 125
1, 182045, Control_c, 0, 64, 43
1, 182045, Control_c, 0, 67, 124
1, 182060, Control_c, 0, 64, 52
1, 182075, Control_c, 0, 64, 60
1, 182075, Control_c, 0, 67, 123
1, 182090, Control_c, 0, 64, 65
1, 182090, Control_c, 0, 67, 123
1, 182104, Control_c, 0, 64, 68
1, 182104, Control_c, 0, 67, 122
1, 182119, Control_c, 0, 64, 71
1, 182119, Control_c, 0, 67, 119
1, 182134, Control_c, 0, 64, 73
1, 182134, Control_c, 0, 67, 116
1, 182140, Note_on_c, 0, 77, 78
1, 182149, Control_c, 0, 64, 76
1, 182149, Control_c, 0, 67, 112
1, 182152, Note_off_c, 0, 65, 56
1, 182164, Note_off_c, 0, 60, 59
1, 182164, Control_c, 0, 64, 78
1, 182164, Control_c, 0, 67, 108
1, 182167, Note_off_c, 0, 57, 49
1, 182179, Control_c, 0, 64, 79
1, 182179, Control_c, 0, 67, 105
1, 182194, Control_c, 0, 64, 80
1, 182194, Control_c, 0, 67, 101
1, 182208, Control_c, 0, 67, 99
1, 182223, Control_c, 0, 67, 96
1, 182238, Control_c, 0, 67, 94
1, 182253, Control_c, 0, 67, 93
1, 182267, Control_c, 0, 67, 92
1, 182282, Control_c, 0, 64, 80
1, 182282, Control_c, 0, 67, 92
1, 182297, Control_c, 0, 64, 79
1, 182297, Control_c, 0, 67, 91
1, 182312, Control_c, 0, 64, 77
1, 182312, Control_c, 0, 67, 91
1, 182326, Control_c, 0, 64, 75
1, 182341, Control_c, 0, 64, 71
1, 182348, Note_on_c, 0, 65, 39
1, 182351, Note_on_c, 0, 81, 69
1, 182353, Note_on_c, 0, 60, 36
1, 182356, Control_c, 0, 64, 66
1, 182357, Note_on_c, 0, 57, 17
1, 182371, Control_c, 0, 64, 63
1, 182386, Control_c, 0, 64, 62
1, 182393, Note_off_c, 0, 76, 61
1, 182400, Control_c, 0, 64, 60
1, 182401, Note_off_c, 0, 77, 63
1, 182415, Control_c, 0, 64, 58
1, 182430, Control_c, 0, 64, 56
1, 182445, Control_c, 0, 64, 53
1, 182460, Control_c, 0, 64, 52
1, 182474, Control_c, 0, 64, 51
1, 182504, Control_c, 0, 64, 50
1, 182564, Control_c, 0, 67, 91
1, 182565, Note_on_c, 0, 77, 75
1, 182578, Control_c, 0, 64, 50
1, 182640, Note_off_c, 0, 81, 55
1, 182676, Control_c, 0, 67, 92
1, 182727, Note_off_c, 0, 57, 43
1, 182781, Note_off_c, 0, 65, 38
1, 182809, Control_c, 0, 67, 92
1, 182814, Note_on_c, 0, 73, 59
1, 182825, Note_off_c, 0, 60, 44
1, 182927, Control_c, 0, 67, 93
1, 183043, Note_off_c, 0, 77, 53
1, 183046, Control_c, 0, 67, 93
1, 183091, Control_c, 0, 67, 94
1, 183135, Control_c, 0, 67, 94
1, 183164, Control_c, 0, 67, 95
1, 183209, Control_c, 0, 67, 95
1, 183223, Control_c, 0, 64, 50
1, 183223, Control_c, 0, 67, 96
1, 183253, Note_on_c, 0, 62, 33
1, 183253, Control_c, 0, 64, 51
1, 183253, Control_c, 0, 67, 96
1, 183255, Note_on_c, 0, 58, 35
1, 183255, Note_on_c, 0, 65, 28
1, 183267, Control_c, 0, 64, 52
1, 183282, Control_c, 0, 64, 52
1, 183297, Control_c, 0, 64, 53
1, 183297, Control_c, 0, 67, 97
1, 183312, Control_c, 0, 64, 53
1, 183327, Control_c, 0, 67, 97
1, 183349, Control_c, 0, 64, 54
1, 183364, Control_c, 0, 64, 55
1, 183364, Control_c, 0, 67, 98
1, 183379, Control_c, 0, 64, 56
1, 183394, Control_c, 0, 64, 56
1, 183394, Control_c, 0, 67, 98
1, 183409, Control_c, 0, 64, 57
1, 183409, Control_c, 0, 67, 99
1, 183425, Control_c, 0, 64, 58
1, 183425, Control_c, 0, 67, 99
1, 183440, Control_c, 0, 64, 58
1, 183440, Control_c, 0, 67, 100
1, 183454, Control_c, 0, 64, 59
1, 183454, Control_c, 0, 67, 100
1, 183469, Control_c, 0, 67, 101
1, 183479, Note_on_c, 0, 74, 72
1, 183484, Control_c, 0, 64, 59
1, 183484, Control_c, 0, 67, 101
1, 183499, Control_c, 0, 67, 102
1, 183528, Control_c, 0, 67, 102
1, 183536, Note_off_c, 0, 65, 44
1, 183543, Note_off_c, 0, 58, 57
1, 183543, Control_c, 0, 67, 103
1, 183547, Note_off_c, 0, 62, 50
1, 183558, Control_c, 0, 64, 60
1, 183587, Control_c, 0, 67, 103
1, 183617, Control_c, 0, 67, 104
1, 183666, Note_off_c, 0, 73, 33
1, 183690, Note_on_c, 0, 76, 64
1, 183696, Note_on_c, 0, 58, 31
1, 183705, Note_on_c, 0, 65, 21
1, 183713, Note_on_c, 0, 62, 26
1, 183720, Control_c, 0, 67, 104
1, 183722, Note_off_c, 0, 74, 62
1, 183780, Control_c, 0, 67, 105
1, 183810, Control_c, 0, 67, 105
1, 183854, Control_c, 0, 67, 106
1, 183869, Control_c, 0, 67, 109
1, 183884, Control_c, 0, 67, 112
1, 183898, Control_c, 0, 67, 114
1, 183901, Note_on_c, 0, 74, 76
1, 183913, Control_c, 0, 67, 116
1, 183928, Control_c, 0, 67, 118
1, 183943, Control_c, 0, 67, 120
1, 183946, Note_off_c, 0, 76, 60
1, 183958, Control_c, 0, 67, 122
1, 183972, Control_c, 0, 67, 125
1, 183973, Note_off_c, 0, 65, 54
1, 183982, Note_off_c, 0, 62, 53
1, 183987, Control_c, 0, 67, 126
1, 183990, Note_off_c, 0, 58, 56
1, 184002, Control_c, 0, 67, 127
1, 184131, Note_on_c, 0, 58, 32
1, 184134, Note_on_c, 0, 62, 21
1, 184140, Note_on_c, 0, 65, 25
1, 184143, Control_c, 0, 64, 59
1, 184143, Note_on_c, 0, 77, 68
1, 184188, Note_off_c, 0, 74, 63
1, 184350, Note_on_c, 0, 74, 68
1, 184388, Note_off_c, 0, 65, 54
1, 184395, Control_c, 0, 64, 59
1, 184415, Note_off_c, 0, 62, 45
1, 184448, Note_off_c, 0, 77, 41
1, 184467, Note_off_c, 0, 58, 42
1, 184484, Control_c, 0, 64, 58
1, 184513, Control_c, 0, 64, 58
1, 184543, Control_c, 0, 64, 57
1, 184588, Control_c, 0, 64, 57
1, 184594, Note_on_c, 0, 69, 52
1, 184596, Note_on_c, 0, 72, 56
1, 184633, Control_c, 0, 64, 56
1, 184692, Control_c, 0, 64, 56
1, 184715, Note_off_c, 0, 74, 50
1, 184796, Control_c, 0, 64, 55
1, 184921, Control_c, 0, 64, 55
1, 184966, Control_c, 0, 64, 54
1, 185011, Control_c, 0, 64, 54
1, 185056, Control_c, 0, 64, 53
1, 185088, Note_on_c, 0, 48, 42
1, 185090, Note_on_c, 0, 60, 36
1, 185100, Control_c, 0, 64, 53
1, 185145, Control_c, 0, 64, 52
1, 185160, Control_c, 0, 64, 52
1, 185205, Control_c, 0, 64, 51
1, 185219, Control_c, 0, 64, 51
1, 185279, Control_c, 0, 64, 50
1, 185308, Control_c, 0, 64, 50
1, 185321, Note_on_c, 0, 70, 54
1, 185322, Note_on_c, 0, 74, 61
1, 185337, Control_c, 0, 64, 49
1, 185344, Note_off_c, 0, 60, 53
1, 185352, Control_c, 0, 64, 49
1, 185354, Note_off_c, 0, 69, 60
1, 185355, Note_off_c, 0, 72, 60
1, 185356, Note_off_c, 0, 48, 51
1, 185381, Control_c, 0, 64, 48
1, 185396, Control_c, 0, 64, 48
1, 185425, Control_c, 0, 64, 47
1, 185455, Control_c, 0, 64, 47
1, 185485, Control_c, 0, 64, 46
1, 185500, Control_c, 0, 64, 46
1, 185530, Control_c, 0, 64, 45
1, 185544, Control_c, 0, 64, 45
1, 185545, Note_on_c, 0, 69, 51
1, 185546, Note_on_c, 0, 48, 40
1, 185550, Note_on_c, 0, 72, 57
1, 185559, Control_c, 0, 64, 44
1, 185559, Note_on_c, 0, 60, 31
1, 185578, Note_off_c, 0, 70, 60
1, 185596, Control_c, 0, 64, 44
1, 185625, Control_c, 0, 64, 43
1, 185628, Note_off_c, 0, 74, 47
1, 185750, Note_off_c, 0, 48, 50
1, 185751, Note_off_c, 0, 69, 53
1, 185756, Note_off_c, 0, 60, 43
1, 185762, Note_off_c, 0, 72, 54
1, 186015, Note_on_c, 0, 48, 27
1, 186021, Note_on_c, 0, 70, 48
1, 186029, Note_on_c, 0, 67, 38
1, 186033, Note_on_c, 0, 60, 23
1, 186191, Note_off_c, 0, 48, 42
1, 186198, Note_off_c, 0, 67, 55
1, 186227, Note_off_c, 0, 70, 62
1, 186275, Note_off_c, 0, 60, 44
1, 186495, Note_on_c, 0, 72, 47
1, 186501, Note_on_c, 0, 67, 38
1, 186627, Control_c, 0, 64, 44
1, 186731, Note_on_c, 0, 70, 55
1, 186755, Note_off_c, 0, 72, 51
1, 186805, Control_c, 0, 64, 44
1, 186850, Control_c, 0, 64, 45
1, 186909, Control_c, 0, 64, 45
1, 186922, Note_off_c, 0, 67, 57
1, 186960, Note_on_c, 0, 69, 48
1, 186968, Control_c, 0, 64, 46
1, 186975, Note_on_c, 0, 65, 38
1, 186979, Note_on_c, 0, 53, 35
1, 186985, Note_off_c, 0, 70, 44
1, 186987, Note_on_c, 0, 60, 27
1, 187027, Control_c, 0, 64, 46
1, 187094, Control_c, 0, 64, 47
1, 187153, Control_c, 0, 64, 47
1, 187166, Note_off_c, 0, 65, 52
1, 187183, Control_c, 0, 64, 48
1, 187195, Note_off_c, 0, 60, 44
1, 187197, Control_c, 0, 64, 48
1, 187212, Control_c, 0, 64, 49
1, 187220, Note_off_c, 0, 53, 54
1, 187220, Note_off_c, 0, 69, 55
1, 187227, Control_c, 0, 64, 49
1, 187242, Control_c, 0, 64, 50
1, 187257, Control_c, 0, 64, 50
1, 187271, Control_c, 0, 64, 51
1, 187301, Control_c, 0, 64, 51
1, 187330, Control_c, 0, 64, 52
1, 187445, Note_on_c, 0, 69, 38
1, 187457, Note_on_c, 0, 53, 26
1, 187462, Note_on_c, 0, 60, 26
1, 187473, Note_on_c, 0, 65, 31
1, 187653, Note_off_c, 0, 60, 51
1, 187683, Note_off_c, 0, 53, 58
1, 187792, Control_c, 0, 64, 52
1, 187807, Control_c, 0, 64, 53
1, 187902, Note_off_c, 0, 65, 63
1, 187950, Note_on_c, 0, 60, 27
1, 187956, Note_on_c, 0, 53, 31
1, 188007, Note_off_c, 0, 69, 57
1, 188051, Control_c, 0, 64, 52
1, 188065, Control_c, 0, 64, 50
1, 188080, Control_c, 0, 64, 46
1, 188095, Control_c, 0, 64, 36
1, 188110, Control_c, 0, 64, 0
1, 188185, Note_off_c, 0, 60, 58
1, 188212, Note_off_c, 0, 53, 50
1, 188382, Note_on_c, 0, 77, 53
1, 188392, Control_c, 0, 67, 126
1, 188407, Control_c, 0, 67, 121
1, 188422, Control_c, 0, 64, 11
1, 188422, Control_c, 0, 67, 115
1, 188436, Control_c, 0, 64, 24
1, 188436, Control_c, 0, 67, 107
1, 188438, Note_on_c, 0, 81, 60
1, 188451, Control_c, 0, 64, 32
1, 188451, Control_c, 0, 67, 98
1, 188462, Note_off_c, 0, 77, 46
1, 188466, Control_c, 0, 64, 37
1, 188466, Control_c, 0, 67, 89
1, 188481, Control_c, 0, 64, 40
1, 188481, Control_c, 0, 67, 78
1, 188489, Note_on_c, 0, 84, 64
1, 188496, Control_c, 0, 64, 42
1, 188496, Control_c, 0, 67, 70
1, 188510, Control_c, 0, 64, 43
1, 188510, Control_c, 0, 67, 63
1, 188525, Control_c, 0, 64, 44
1, 188525, Control_c, 0, 67, 56
1, 188540, Control_c, 0, 64, 46
1, 188540, Control_c, 0, 67, 50
1, 188555, Control_c, 0, 64, 47
1, 188555, Control_c, 0, 67, 45
1, 188557, Note_on_c, 0, 89, 85
1, 188570, Control_c, 0, 64, 49
1, 188570, Control_c, 0, 67, 38
1, 188591, Note_off_c, 0, 81, 57
1, 188592, Control_c, 0, 64, 51
1, 188592, Control_c, 0, 67, 33
1, 188607, Control_c, 0, 64, 54
1, 188607, Control_c, 0, 67, 27
1, 188622, Control_c, 0, 64, 57
1, 188622, Control_c, 0, 67, 20
1, 188623, Note_off_c, 0, 84, 64
1, 188637, Control_c, 0, 64, 60
1, 188637, Control_c, 0, 67, 13
1, 188651, Control_c, 0, 64, 63
1, 188651, Control_c, 0, 67, 0
1, 188666, Control_c, 0, 64, 66
1, 188681, Control_c, 0, 64, 69
1, 188695, Control_c, 0, 64, 72
1, 188710, Control_c, 0, 64, 77
1, 188725, Control_c, 0, 64, 82
1, 188740, Control_c, 0, 64, 89
1, 188755, Control_c, 0, 64, 96
1, 188770, Control_c, 0, 64, 103
1, 188773, Note_on_c, 0, 84, 81
1, 188785, Control_c, 0, 64, 115
1, 188800, Control_c, 0, 64, 127
1, 188909, Note_off_c, 0, 89, 51
1, 188912, Note_on_c, 0, 81, 88
1, 188992, Note_off_c, 0, 84, 56
1, 189027, Note_on_c, 0, 45, 49
1, 189032, Note_on_c, 0, 33, 40
1, 189051, Note_on_c, 0, 77, 78
1, 189055, Note_off_c, 0, 81, 65
1, 189120, Note_off_c, 0, 77, 65
1, 189122, Note_off_c, 0, 45, 57
1, 189152, Note_off_c, 0, 33, 36
1, 189182, Note_on_c, 0, 72, 80
1, 189296, Note_on_c, 0, 69, 89
1, 189357, Note_off_c, 0, 72, 56
1, 189415, Note_on_c, 0, 45, 62
1, 189416, Note_on_c, 0, 33, 57
1, 189426, Note_on_c, 0, 65, 79
1, 189426, Note_off_c, 0, 69, 66
1, 189492, Note_off_c, 0, 65, 65
1, 189505, Note_off_c, 0, 33, 56
1, 189508, Note_off_c, 0, 45, 61
1, 189546, Note_on_c, 0, 60, 80
1, 189664, Note_on_c, 0, 57, 84
1, 189698, Note_off_c, 0, 60, 62
1, 189784, Control_c, 0, 64, 118
1, 189799, Control_c, 0, 64, 100
1, 189815, Control_c, 0, 64, 88
1, 189830, Control_c, 0, 64, 77
1, 189840, Note_on_c, 0, 53, 74
1, 189840, Note_on_c, 0, 33, 51
1, 189844, Note_off_c, 0, 57, 63
1, 189845, Control_c, 0, 64, 67
1, 189849, Note_on_c, 0, 45, 47
1, 189860, Control_c, 0, 64, 44
1, 189875, Control_c, 0, 64, 0
1, 189967, Note_off_c, 0, 53, 66
1, 190043, Note_off_c, 0, 33, 58
1, 190066, Note_off_c, 0, 45, 60
1, 190104, Note_on_c, 0, 51, 66
1, 190230, Note_off_c, 0, 51, 63
1, 190348, Note_on_c, 0, 49, 65
1, 190851, Note_on_c, 0, 46, 39
1, 190855, Note_on_c, 0, 50, 61
1, 190856, Note_on_c, 0, 34, 41
1, 190958, Note_off_c, 0, 49, 46
1, 191104, Note_off_c, 0, 34, 53
1, 191110, Note_off_c, 0, 46, 54
1, 191253, Control_c, 0, 64, 11
1, 191282, Control_c, 0, 64, 14
1, 191342, Control_c, 0, 64, 17
1, 191375, Note_on_c, 0, 46, 31
1, 191376, Note_on_c, 0, 34, 31
1, 191378, Note_on_c, 0, 62, 57
1, 191385, Control_c, 0, 64, 19
1, 191416, Control_c, 0, 64, 21
1, 191446, Control_c, 0, 64, 23
1, 191490, Control_c, 0, 64, 24
1, 191534, Control_c, 0, 64, 26
1, 191564, Control_c, 0, 64, 27
1, 191601, Control_c, 0, 64, 28
1, 191612, Note_off_c, 0, 46, 52
1, 191616, Note_off_c, 0, 34, 52
1, 191616, Control_c, 0, 64, 29
1, 191644, Note_off_c, 0, 50, 59
1, 191646, Control_c, 0, 64, 30
1, 191660, Control_c, 0, 64, 31
1, 191675, Control_c, 0, 64, 32
1, 191690, Control_c, 0, 64, 34
1, 191705, Control_c, 0, 64, 36
1, 191719, Control_c, 0, 64, 36
1, 191734, Control_c, 0, 64, 38
1, 191749, Control_c, 0, 64, 38
1, 191764, Control_c, 0, 64, 39
1, 191778, Control_c, 0, 64, 40
1, 191793, Control_c, 0, 64, 41
1, 191808, Control_c, 0, 64, 42
1, 191823, Control_c, 0, 64, 43
1, 191837, Control_c, 0, 64, 43
1, 191852, Control_c, 0, 64, 44
1, 191867, Note_on_c, 0, 34, 42
1, 191867, Control_c, 0, 64, 45
1, 191868, Note_on_c, 0, 46, 40
1, 191882, Control_c, 0, 64, 45
1, 191897, Control_c, 0, 64, 46
1, 191912, Control_c, 0, 64, 46
1, 191927, Control_c, 0, 64, 47
1, 191956, Control_c, 0, 64, 47
1, 191971, Control_c, 0, 64, 48
1, 191986, Control_c, 0, 64, 49
1, 192016, Control_c, 0, 64, 49
1, 192030, Control_c, 0, 64, 50
1, 192040, Note_off_c, 0, 62, 56
1, 192060, Control_c, 0, 64, 50
1, 192075, Control_c, 0, 64, 51
1, 192082, Note_off_c, 0, 34, 58
1, 192104, Control_c, 0, 64, 51
1, 192119, Control_c, 0, 64, 52
1, 192159, Note_off_c, 0, 46, 54
1, 192164, Control_c, 0, 64, 52
1, 192394, Note_on_c, 0, 60, 55
1, 192398, Note_on_c, 0, 57, 47
1, 192824, Control_c, 0, 64, 52
1, 192895, Note_on_c, 0, 48, 36
1, 192902, Note_on_c, 0, 36, 36
1, 192972, Control_c, 0, 64, 51
1, 193018, Control_c, 0, 64, 51
1, 193062, Control_c, 0, 67, 8
1, 193083, Control_c, 0, 67, 9
1, 193098, Control_c, 0, 67, 10
1, 193113, Control_c, 0, 67, 11
1, 193128, Control_c, 0, 67, 13
1, 193143, Control_c, 0, 67, 15
1, 193144, Note_on_c, 0, 62, 56
1, 193145, Note_on_c, 0, 58, 55
1, 193158, Control_c, 0, 67, 17
1, 193169, Note_off_c, 0, 48, 51
1, 193172, Note_off_c, 0, 60, 63
1, 193173, Control_c, 0, 67, 20
1, 193187, Control_c, 0, 67, 23
1, 193189, Note_off_c, 0, 57, 61
1, 193197, Note_off_c, 0, 36, 44
1, 193202, Control_c, 0, 67, 26
1, 193217, Control_c, 0, 67, 29
1, 193232, Control_c, 0, 67, 31
1, 193247, Control_c, 0, 67, 34
1, 193262, Control_c, 0, 67, 36
1, 193277, Control_c, 0, 67, 39
1, 193291, Control_c, 0, 67, 41
1, 193306, Control_c, 0, 67, 44
1, 193321, Control_c, 0, 67, 46
1, 193336, Control_c, 0, 67, 49
1, 193351, Control_c, 0, 64, 50
1, 193351, Control_c, 0, 67, 52
1, 193365, Control_c, 0, 67, 56
1, 193380, Control_c, 0, 64, 50
1, 193380, Control_c, 0, 67, 59
1, 193385, Note_on_c, 0, 60, 51
1, 193392, Note_on_c, 0, 48, 38
1, 193393, Note_on_c, 0, 57, 40
1, 193395, Control_c, 0, 64, 49
1, 193395, Control_c, 0, 67, 62
1, 193399, Note_on_c, 0, 36, 33
1, 193410, Control_c, 0, 64, 49
1, 193410, Control_c, 0, 67, 65
1, 193425, Control_c, 0, 64, 48
1, 193425, Control_c, 0, 67, 69
1, 193426, Note_off_c, 0, 58, 53
1, 193439, Control_c, 0, 64, 48
1, 193439, Control_c, 0, 67, 72
1, 193447, Note_off_c, 0, 62, 48
1, 193454, Control_c, 0, 64, 47
1, 193454, Control_c, 0, 67, 76
1, 193469, Control_c, 0, 64, 47
1, 193469, Control_c, 0, 67, 81
1, 193483, Control_c, 0, 67, 85
1, 193498, Control_c, 0, 64, 46
1, 193498, Control_c, 0, 67, 89
1, 193513, Control_c, 0, 64, 46
1, 193513, Control_c, 0, 67, 93
1, 193528, Control_c, 0, 67, 98
1, 193543, Control_c, 0, 67, 102
1, 193557, Control_c, 0, 67, 106
1, 193572, Control_c, 0, 67, 111
1, 193587, Control_c, 0, 67, 114
1, 193590, Note_off_c, 0, 48, 42
1, 193602, Control_c, 0, 67, 118
1, 193614, Note_off_c, 0, 36, 42
1, 193617, Control_c, 0, 67, 122
1, 193632, Control_c, 0, 67, 126
1, 193639, Note_off_c, 0, 57, 53
1, 193647, Control_c, 0, 67, 127
1, 193650, Note_off_c, 0, 60, 59
1, 193877, Note_on_c, 0, 58, 49
1, 193881, Note_on_c, 0, 36, 28
1, 193888, Note_on_c, 0, 55, 46
1, 193893, Note_on_c, 0, 48, 21
1, 194070, Control_c, 0, 64, 46
1, 194070, Note_off_c, 0, 55, 60
1, 194079, Note_off_c, 0, 58, 60
1, 194129, Control_c, 0, 64, 47
1, 194129, Note_off_c, 0, 36, 42
1, 194170, Note_off_c, 0, 48, 46
1, 194174, Control_c, 0, 64, 47
1, 194188, Control_c, 0, 64, 48
1, 194203, Control_c, 0, 64, 48
1, 194232, Control_c, 0, 64, 49
1, 194344, Note_on_c, 0, 60, 39
1, 194351, Control_c, 0, 64, 49
1, 194353, Note_on_c, 0, 55, 31
1, 194411, Control_c, 0, 64, 50
1, 194499, Control_c, 0, 64, 50
1, 194544, Control_c, 0, 64, 51
1, 194609, Note_on_c, 0, 58, 54
1, 194618, Note_off_c, 0, 60, 51
1, 194775, Control_c, 0, 64, 50
1, 194790, Control_c, 0, 64, 49
1, 194804, Control_c, 0, 64, 48
1, 194819, Control_c, 0, 64, 47
1, 194821, Note_off_c, 0, 55, 49
1, 194834, Control_c, 0, 64, 46
1, 194849, Control_c, 0, 64, 45
1, 194854, Note_on_c, 0, 57, 39
1, 194857, Note_on_c, 0, 41, 29
1, 194860, Note_on_c, 0, 53, 37
1, 194862, Note_on_c, 0, 48, 29
1, 194863, Control_c, 0, 64, 43
1, 194878, Control_c, 0, 64, 40
1, 194893, Control_c, 0, 64, 38
1, 194908, Control_c, 0, 64, 38
1, 194913, Note_off_c, 0, 58, 38
1, 194937, Control_c, 0, 64, 37
1, 194982, Control_c, 0, 64, 38
1, 195012, Control_c, 0, 64, 39
1, 195027, Control_c, 0, 64, 40
1, 195042, Control_c, 0, 64, 40
1, 195056, Control_c, 0, 64, 41
1, 195071, Control_c, 0, 64, 42
1, 195080, Note_off_c, 0, 48, 41
1, 195086, Control_c, 0, 64, 42
1, 195115, Note_off_c, 0, 41, 49
1, 195116, Control_c, 0, 64, 43
1, 195122, Note_off_c, 0, 53, 45
1, 195125, Note_off_c, 0, 57, 50
1, 195145, Control_c, 0, 64, 43
1, 195190, Control_c, 0, 64, 44
1, 195234, Control_c, 0, 64, 44
1, 195390, Control_c, 0, 64, 45
1, 195411, Note_on_c, 0, 57, 31
1, 195417, Note_on_c, 0, 41, 25
1, 195429, Note_on_c, 0, 48, 21
1, 195435, Control_c, 0, 64, 45
1, 195448, Note_on_c, 0, 53, 16
1, 195450, Control_c, 0, 64, 46
1, 195479, Control_c, 0, 64, 46
1, 195539, Control_c, 0, 64, 47
1, 195906, Note_off_c, 0, 53, 51
1, 196028, Note_off_c, 0, 48, 43
1, 196028, Note_off_c, 0, 57, 59
1, 196031, Note_off_c, 0, 41, 42
1, 196167, Control_c, 0, 64, 47
1, 196182, Control_c, 0, 64, 48
1, 196198, Control_c, 0, 64, 49
1, 196213, Control_c, 0, 64, 51
1, 196228, Control_c, 0, 64, 52
1, 196243, Control_c, 0, 64, 54
1, 196257, Control_c, 0, 64, 55
1, 196272, Control_c, 0, 64, 56
1, 196287, Control_c, 0, 64, 57
1, 196301, Control_c, 0, 64, 59
1, 196316, Control_c, 0, 64, 59
1, 196331, Control_c, 0, 64, 60
1, 196346, Control_c, 0, 64, 61
1, 196346, Control_c, 0, 67, 125
1, 196361, Control_c, 0, 64, 62
1, 196361, Control_c, 0, 67, 121
1, 196375, Control_c, 0, 64, 62
1, 196375, Control_c, 0, 67, 117
1, 196390, Control_c, 0, 64, 63
1, 196390, Control_c, 0, 67, 111
1, 196405, Control_c, 0, 64, 64
1, 196405, Control_c, 0, 67, 105
1, 196419, Control_c, 0, 64, 64
1, 196419, Control_c, 0, 67, 97
1, 196434, Control_c, 0, 64, 65
1, 196434, Control_c, 0, 67, 90
1, 196449, Control_c, 0, 64, 66
1, 196449, Control_c, 0, 67, 82
1, 196464, Control_c, 0, 64, 67
1, 196464, Control_c, 0, 67, 73
1, 196479, Control_c, 0, 64, 68
1, 196479, Control_c, 0, 67, 67
1, 196493, Control_c, 0, 64, 69
1, 196493, Control_c, 0, 67, 62
1, 196508, Control_c, 0, 64, 70
1, 196508, Control_c, 0, 67, 57
1, 196523, Control_c, 0, 64, 72
1, 196523, Control_c, 0, 67, 53
1, 196538, Control_c, 0, 64, 73
1, 196538, Control_c, 0, 67, 50
1, 196553, Control_c, 0, 64, 75
1, 196553, Control_c, 0, 67, 47
1, 196568, Control_c, 0, 64, 76
1, 196568, Control_c, 0, 67, 44
1, 196583, Control_c, 0, 64, 78
1, 196583, Control_c, 0, 67, 42
1, 196598, Control_c, 0, 64, 80
1, 196598, Control_c, 0, 67, 39
1, 196613, Control_c, 0, 64, 82
1, 196613, Control_c, 0, 67, 37
1, 196627, Control_c, 0, 64, 84
1, 196627, Control_c, 0, 67, 34
1, 196642, Control_c, 0, 64, 86
1, 196642, Control_c, 0, 67, 32
1, 196657, Control_c, 0, 64, 88
1, 196657, Control_c, 0, 67, 30
1, 196672, Control_c, 0, 64, 90
1, 196672, Control_c, 0, 67, 28
1, 196687, Control_c, 0, 64, 93
1, 196687, Control_c, 0, 67, 26
1, 196701, Control_c, 0, 64, 95
1, 196701, Control_c, 0, 67, 25
1, 196716, Control_c, 0, 64, 98
1, 196716, Control_c, 0, 67, 23
1, 196731, Control_c, 0, 64, 101
1, 196731, Control_c, 0, 67, 21
1, 196746, Control_c, 0, 64, 105
1, 196746, Control_c, 0, 67, 20
1, 196761, Control_c, 0, 64, 111
1, 196761, Control_c, 0, 67, 18
1, 196775, Control_c, 0, 64, 122
1, 196775, Control_c, 0, 67, 17
1, 196780, Note_on_c, 0, 81, 68
1, 196788, Note_on_c, 0, 64, 30
1, 196790, Control_c, 0, 64, 127
1, 196790, Control_c, 0, 67, 16
1, 196797, Note_on_c, 0, 61, 39
1, 196803, Note_on_c, 0, 69, 51
1, 196805, Control_c, 0, 67, 15
1, 196827, Control_c, 0, 67, 15
1, 196842, Control_c, 0, 67, 14
1, 196857, Control_c, 0, 67, 13
1, 196872, Control_c, 0, 67, 12
1, 196887, Control_c, 0, 67, 11
1, 196901, Control_c, 0, 67, 11
1, 196916, Control_c, 0, 67, 10
1, 196931, Control_c, 0, 67, 9
1, 196946, Control_c, 0, 67, 8
1, 196961, Control_c, 0, 67, 0
1, 197096, Note_off_c, 0, 61, 40
1, 197097, Note_on_c, 0, 57, 35
1, 197104, Note_off_c, 0, 64, 42
1, 197304, Note_on_c, 0, 64, 44
1, 197306, Note_off_c, 0, 57, 51
1, 197313, Note_on_c, 0, 61, 49
1, 197509, Note_on_c, 0, 57, 50
1, 197518, Note_off_c, 0, 64, 54
1, 197526, Note_off_c, 0, 61, 37
1, 197722, Note_on_c, 0, 64, 55
1, 197729, Note_on_c, 0, 61, 61
1, 197760, Note_off_c, 0, 57, 57
1, 197924, Note_off_c, 0, 69, 61
1, 197924, Note_on_c, 0, 57, 56
1, 197926, Note_off_c, 0, 64, 61
1, 197957, Note_off_c, 0, 61, 58
1, 198157, Note_on_c, 0, 80, 75
1, 198167, Note_on_c, 0, 65, 47
1, 198169, Note_on_c, 0, 62, 45
1, 198170, Control_c, 0, 64, 108
1, 198172, Note_on_c, 0, 68, 55
1, 198185, Control_c, 0, 64, 84
1, 198200, Control_c, 0, 64, 66
1, 198215, Control_c, 0, 64, 0
1, 198237, Note_off_c, 0, 57, 56
1, 198273, Control_c, 0, 64, 30
1, 198288, Control_c, 0, 64, 63
1, 198303, Control_c, 0, 64, 70
1, 198312, Note_off_c, 0, 81, 51
1, 198326, Control_c, 0, 64, 78
1, 198341, Control_c, 0, 64, 93
1, 198355, Control_c, 0, 64, 110
1, 198370, Control_c, 0, 64, 127
1, 198393, Note_off_c, 0, 65, 59
1, 198402, Note_on_c, 0, 57, 48
1, 198407, Note_off_c, 0, 62, 56
1, 198459, Note_off_c, 0, 68, 60
1, 198625, Note_on_c, 0, 81, 77
1, 198625, Note_off_c, 0, 57, 56
1, 198631, Note_on_c, 0, 64, 43
1, 198643, Note_on_c, 0, 61, 49
1, 198643, Note_on_c, 0, 69, 60
1, 198652, Control_c, 0, 64, 91
1, 198663, Note_off_c, 0, 80, 57
1, 198667, Control_c, 0, 64, 69
1, 198682, Control_c, 0, 64, 0
1, 198726, Control_c, 0, 67, 8
1, 198741, Control_c, 0, 67, 11
1, 198756, Control_c, 0, 67, 15
1, 198771, Control_c, 0, 67, 19
1, 198786, Control_c, 0, 64, 58
1, 198786, Control_c, 0, 67, 24
1, 198795, Note_off_c, 0, 69, 56
1, 198800, Control_c, 0, 64, 66
1, 198800, Control_c, 0, 67, 29
1, 198815, Note_off_c, 0, 61, 59
1, 198815, Control_c, 0, 64, 74
1, 198815, Control_c, 0, 67, 34
1, 198830, Control_c, 0, 64, 82
1, 198830, Control_c, 0, 67, 40
1, 198830, Note_off_c, 0, 64, 58
1, 198842, Note_on_c, 0, 57, 47
1, 198845, Control_c, 0, 64, 94
1, 198845, Control_c, 0, 67, 45
1, 198860, Control_c, 0, 64, 109
1, 198860, Control_c, 0, 67, 52
1, 198860, Note_off_c, 0, 81, 60
1, 198872, Note_off_c, 0, 57, 61
1, 198875, Control_c, 0, 64, 127
1, 198875, Control_c, 0, 67, 58
1, 198890, Control_c, 0, 67, 66
1, 198904, Control_c, 0, 67, 74
1, 198919, Control_c, 0, 67, 81
1, 198934, Control_c, 0, 67, 90
1, 198949, Control_c, 0, 67, 100
1, 198964, Control_c, 0, 67, 109
1, 198978, Control_c, 0, 67, 118
1, 198993, Control_c, 0, 67, 126
1, 199008, Control_c, 0, 67, 127
1, 199193, Control_c, 0, 64, 114
1, 199208, Control_c, 0, 64, 88
1, 199222, Note_on_c, 0, 70, 37
1, 199222, Control_c, 0, 64, 68
1, 199227, Note_on_c, 0, 67, 22
1, 199232, Note_on_c, 0, 73, 39
1, 199237, Control_c, 0, 64, 0
1, 199311, Control_c, 0, 64, 56
1, 199326, Control_c, 0, 64, 65
1, 199341, Control_c, 0, 64, 70
1, 199356, Control_c, 0, 64, 76
1, 199370, Control_c, 0, 64, 83
1, 199385, Control_c, 0, 64, 93
1, 199401, Control_c, 0, 64, 103
1, 199416, Control_c, 0, 64, 116
1, 199431, Control_c, 0, 64, 127
1, 199492, Note_on_c, 0, 85, 52
1, 199508, Note_off_c, 0, 73, 54
1, 199512, Note_off_c, 0, 70, 47
1, 199667, Control_c, 0, 64, 114
1, 199682, Control_c, 0, 64, 92
1, 199686, Note_off_c, 0, 85, 58
1, 199687, Note_on_c, 0, 65, 41
1, 199697, Control_c, 0, 64, 80
1, 199698, Note_on_c, 0, 74, 58
1, 199707, Note_on_c, 0, 69, 39
1, 199712, Control_c, 0, 64, 74
1, 199726, Control_c, 0, 64, 74
1, 199741, Control_c, 0, 64, 76
1, 199745, Note_off_c, 0, 67, 39
1, 199756, Control_c, 0, 64, 82
1, 199771, Control_c, 0, 64, 91
1, 199771, Control_c, 0, 67, 124
1, 199786, Control_c, 0, 64, 102
1, 199786, Control_c, 0, 67, 119
1, 199800, Control_c, 0, 64, 118
1, 199800, Control_c, 0, 67, 113
1, 199823, Control_c, 0, 64, 127
1, 199823, Control_c, 0, 67, 104
1, 199838, Control_c, 0, 67, 95
1, 199852, Control_c, 0, 67, 82
1, 199867, Control_c, 0, 67, 71
1, 199882, Control_c, 0, 67, 60
1, 199897, Control_c, 0, 67, 51
1, 199912, Control_c, 0, 67, 43
1, 199914, Note_on_c, 0, 86, 74
1, 199921, Note_off_c, 0, 74, 63
1, 199926, Control_c, 0, 67, 36
1, 199941, Control_c, 0, 67, 31
1, 199956, Control_c, 0, 67, 26
1, 199971, Control_c, 0, 67, 22
1, 199986, Control_c, 0, 67, 20
1, 200000, Control_c, 0, 67, 18
1, 200015, Control_c, 0, 67, 17
1, 200106, Note_on_c, 0, 64, 51
1, 200115, Note_on_c, 0, 76, 69
1, 200124, Note_on_c, 0, 67, 49
1, 200124, Note_off_c, 0, 86, 59
1, 200133, Control_c, 0, 64, 116
1, 200148, Control_c, 0, 64, 88
1, 200163, Control_c, 0, 64, 71
1, 200172, Note_off_c, 0, 65, 39
1, 200178, Control_c, 0, 64, 0
1, 200270, Note_off_c, 0, 69, 28
1, 200312, Control_c, 0, 64, 56
1, 200318, Note_on_c, 0, 88, 72
1, 200320, Note_off_c, 0, 76, 56
1, 200327, Control_c, 0, 64, 67
1, 200342, Control_c, 0, 64, 73
1, 200357, Control_c, 0, 64, 80
1, 200372, Control_c, 0, 64, 90
1, 200387, Control_c, 0, 64, 100
1, 200402, Control_c, 0, 64, 114
1, 200416, Control_c, 0, 64, 127
1, 200430, Note_off_c, 0, 88, 57
1, 200482, Note_on_c, 0, 85, 59
1, 200539, Note_off_c, 0, 85, 51
1, 200553, Note_on_c, 0, 86, 57
1, 200587, Control_c, 0, 67, 18
1, 200601, Control_c, 0, 67, 18
1, 200603, Note_off_c, 0, 86, 61
1, 200616, Control_c, 0, 67, 19
1, 200628, Note_on_c, 0, 88, 65
1, 200661, Control_c, 0, 67, 19
1, 200705, Control_c, 0, 67, 20
1, 200735, Control_c, 0, 64, 108
1, 200742, Note_on_c, 0, 62, 31
1, 200747, Note_on_c, 0, 89, 67
1, 200750, Control_c, 0, 64, 97
1, 200750, Control_c, 0, 67, 20
1, 200761, Note_on_c, 0, 65, 37
1, 200765, Control_c, 0, 64, 88
1, 200780, Control_c, 0, 64, 81
1, 200787, Note_on_c, 0, 77, 40
1, 200792, Note_off_c, 0, 88, 60
1, 200794, Control_c, 0, 64, 73
1, 200808, Note_off_c, 0, 64, 35
1, 200809, Control_c, 0, 64, 64
1, 200824, Control_c, 0, 64, 48
1, 200828, Note_off_c, 0, 67, 20
1, 200839, Control_c, 0, 64, 0
1, 200868, Control_c, 0, 67, 21
1, 200957, Control_c, 0, 67, 21
1, 200972, Control_c, 0, 67, 22
1, 201017, Control_c, 0, 67, 22
1, 201047, Control_c, 0, 67, 23
1, 201091, Control_c, 0, 67, 23
1, 201106, Control_c, 0, 64, 38
1, 201121, Control_c, 0, 64, 59
1, 201121, Control_c, 0, 67, 24
1, 201136, Control_c, 0, 64, 64
1, 201136, Control_c, 0, 67, 24
1, 201151, Control_c, 0, 64, 67
1, 201165, Control_c, 0, 64, 71
1, 201165, Control_c, 0, 67, 25
1, 201180, Control_c, 0, 64, 76
1, 201180, Control_c, 0, 67, 25
1, 201195, Control_c, 0, 64, 81
1, 201195, Control_c, 0, 67, 26
1, 201209, Control_c, 0, 64, 87
1, 201209, Control_c, 0, 67, 27
1, 201224, Control_c, 0, 64, 92
1, 201224, Control_c, 0, 67, 27
1, 201239, Control_c, 0, 64, 99
1, 201239, Control_c, 0, 67, 28
1, 201254, Control_c, 0, 64, 109
1, 201254, Control_c, 0, 67, 29
1, 201264, Note_off_c, 0, 77, 42
1, 201269, Control_c, 0, 64, 127
1, 201269, Control_c, 0, 67, 30
1, 201284, Control_c, 0, 67, 32
1, 201298, Control_c, 0, 67, 34
1, 201321, Control_c, 0, 67, 38
1, 201336, Control_c, 0, 67, 41
1, 201351, Control_c, 0, 67, 45
1, 201365, Control_c, 0, 67, 49
1, 201380, Control_c, 0, 67, 53
1, 201389, Note_off_c, 0, 89, 58
1, 201395, Control_c, 0, 67, 57
1, 201410, Control_c, 0, 67, 61
1, 201424, Control_c, 0, 67, 64
1, 201439, Control_c, 0, 67, 66
1, 201454, Control_c, 0, 67, 68
1, 201469, Control_c, 0, 67, 70
1, 201484, Control_c, 0, 67, 72
1, 201498, Control_c, 0, 67, 73
1, 201513, Control_c, 0, 67, 75
1, 201528, Control_c, 0, 67, 77
1, 201543, Control_c, 0, 67, 78
1, 201558, Control_c, 0, 67, 80
1, 201573, Control_c, 0, 67, 82
1, 201588, Control_c, 0, 67, 83
1, 201594, Note_on_c, 0, 88, 49
1, 201603, Control_c, 0, 67, 85
1, 201611, Note_on_c, 0, 76, 38
1, 201617, Control_c, 0, 67, 87
1, 201632, Control_c, 0, 67, 89
1, 201647, Control_c, 0, 67, 91
1, 201662, Control_c, 0, 67, 92
1, 201677, Control_c, 0, 67, 94
1, 201691, Control_c, 0, 67, 96
1, 201692, Note_off_c, 0, 76, 38
1, 201705, Note_off_c, 0, 88, 37
1, 201706, Control_c, 0, 67, 97
1, 201721, Control_c, 0, 67, 99
1, 201736, Control_c, 0, 67, 101
1, 201750, Control_c, 0, 67, 104
1, 201765, Control_c, 0, 67, 106
1, 201780, Control_c, 0, 67, 109
1, 201796, Control_c, 0, 67, 112
1, 201811, Control_c, 0, 67, 114
1, 201826, Control_c, 0, 67, 118
1, 201840, Control_c, 0, 64, 111
1, 201840, Control_c, 0, 67, 121
1, 201848, Note_on_c, 0, 86, 44
1, 201855, Control_c, 0, 64, 93
1, 201855, Control_c, 0, 67, 124
1, 201870, Control_c, 0, 64, 80
1, 201870, Control_c, 0, 67, 126
1, 201872, Note_on_c, 0, 74, 36
1, 201885, Control_c, 0, 64, 68
1, 201885, Control_c, 0, 67, 127
1, 201889, Note_off_c, 0, 86, 0
1, 201889, Note_on_c, 0, 86, 15
1, 201900, Control_c, 0, 64, 37
1, 201914, Control_c, 0, 64, 0
1, 201974, Control_c, 0, 64, 32
1, 201988, Control_c, 0, 64, 59
1, 202003, Control_c, 0, 64, 65
1, 202018, Control_c, 0, 64, 68
1, 202032, Control_c, 0, 64, 72
1, 202047, Control_c, 0, 64, 77
1, 202070, Control_c, 0, 64, 83
1, 202074, Note_off_c, 0, 74, 49
1, 202085, Control_c, 0, 64, 89
1, 202099, Note_off_c, 0, 65, 32
1, 202100, Control_c, 0, 64, 94
1, 202114, Control_c, 0, 64, 98
1, 202115, Note_off_c, 0, 62, 38
1, 202129, Control_c, 0, 64, 102
1, 202134, Note_off_c, 0, 86, 44
1, 202144, Control_c, 0, 64, 106
1, 202159, Control_c, 0, 64, 110
1, 202174, Control_c, 0, 64, 112
1, 202188, Control_c, 0, 64, 114
1, 202203, Control_c, 0, 64, 116
1, 202321, Control_c, 0, 64, 115
1, 202366, Control_c, 0, 64, 115
1, 202381, Control_c, 0, 64, 114
1, 202395, Control_c, 0, 64, 112
1, 202410, Control_c, 0, 64, 111
1, 202425, Control_c, 0, 64, 109
1, 202440, Control_c, 0, 64, 107
1, 202455, Control_c, 0, 64, 104
1, 202470, Control_c, 0, 64, 101
1, 202485, Control_c, 0, 64, 98
1, 202500, Control_c, 0, 64, 94
1, 202514, Control_c, 0, 64, 89
1, 202529, Control_c, 0, 64, 83
1, 202544, Control_c, 0, 64, 77
1, 202559, Control_c, 0, 64, 70
1, 202573, Control_c, 0, 64, 63
1, 202589, Control_c, 0, 64, 49
1, 202604, Control_c, 0, 64, 23
1, 202619, Control_c, 0, 64, 0
1, 202796, Control_c, 0, 67, 126
1, 202819, Control_c, 0, 67, 124
1, 202834, Control_c, 0, 67, 122
1, 202849, Control_c, 0, 67, 121
1, 202863, Control_c, 0, 67, 119
1, 202878, Control_c, 0, 67, 115
1, 202893, Control_c, 0, 67, 110
1, 202908, Control_c, 0, 64, 36
1, 202908, Control_c, 0, 67, 103
1, 202923, Control_c, 0, 64, 47
1, 202923, Control_c, 0, 67, 94
1, 202938, Control_c, 0, 64, 54
1, 202938, Control_c, 0, 67, 85
1, 202952, Control_c, 0, 64, 57
1, 202952, Control_c, 0, 67, 75
1, 202967, Control_c, 0, 64, 60
1, 202967, Control_c, 0, 67, 68
1, 202982, Control_c, 0, 64, 63
1, 202982, Control_c, 0, 67, 63
1, 202996, Control_c, 0, 64, 65
1, 202996, Control_c, 0, 67, 58
1, 203007, Note_on_c, 0, 79, 67
1, 203011, Control_c, 0, 64, 67
1, 203011, Control_c, 0, 67, 54
1, 203020, Note_on_c, 0, 67, 47
1, 203023, Note_on_c, 0, 62, 30
1, 203024, Note_on_c, 0, 59, 33
1, 203026, Control_c, 0, 64, 69
1, 203026, Control_c, 0, 67, 51
1, 203041, Control_c, 0, 64, 71
1, 203041, Control_c, 0, 67, 47
1, 203056, Control_c, 0, 64, 73
1, 203056, Control_c, 0, 67, 43
1, 203070, Control_c, 0, 64, 76
1, 203070, Control_c, 0, 67, 40
1, 203085, Control_c, 0, 64, 80
1, 203085, Control_c, 0, 67, 37
1, 203100, Control_c, 0, 64, 83
1, 203100, Control_c, 0, 67, 33
1, 203115, Control_c, 0, 64, 85
1, 203115, Control_c, 0, 67, 30
1, 203130, Control_c, 0, 64, 88
1, 203130, Control_c, 0, 67, 27
1, 203144, Control_c, 0, 64, 91
1, 203144, Control_c, 0, 67, 24
1, 203159, Control_c, 0, 64, 94
1, 203159, Control_c, 0, 67, 21
1, 203174, Control_c, 0, 64, 98
1, 203174, Control_c, 0, 67, 19
1, 203188, Control_c, 0, 64, 104
1, 203188, Control_c, 0, 67, 17
1, 203203, Control_c, 0, 64, 110
1, 203203, Control_c, 0, 67, 14
1, 203218, Control_c, 0, 64, 124
1, 203218, Control_c, 0, 67, 12
1, 203233, Control_c, 0, 64, 127
1, 203233, Control_c, 0, 67, 9
1, 203248, Control_c, 0, 67, 0
1, 203281, Note_on_c, 0, 55, 44
1, 203299, Note_off_c, 0, 59, 37
1, 203308, Note_off_c, 0, 62, 39
1, 203490, Note_on_c, 0, 62, 43
1, 203492, Note_on_c, 0, 59, 51
1, 203521, Note_off_c, 0, 55, 37
1, 203690, Note_on_c, 0, 55, 52
1, 203719, Note_off_c, 0, 62, 46
1, 203725, Note_off_c, 0, 59, 38
1, 203894, Note_on_c, 0, 59, 58
1, 203901, Note_on_c, 0, 62, 50
1, 203926, Note_off_c, 0, 55, 55
1, 204025, Note_off_c, 0, 67, 38
1, 204065, Note_off_c, 0, 59, 59
1, 204071, Note_off_c, 0, 62, 59
1, 204089, Note_on_c, 0, 55, 50
1, 204301, Note_on_c, 0, 78, 74
1, 204315, Note_on_c, 0, 66, 65
1, 204319, Note_on_c, 0, 63, 56
1, 204322, Note_on_c, 0, 60, 52
1, 204330, Control_c, 0, 64, 95
1, 204345, Control_c, 0, 64, 74
1, 204360, Control_c, 0, 64, 35
1, 204374, Note_off_c, 0, 55, 60
1, 204375, Control_c, 0, 64, 0
1, 204434, Control_c, 0, 64, 51
1, 204449, Control_c, 0, 64, 65
1, 204464, Control_c, 0, 64, 70
1, 204479, Control_c, 0, 64, 77
1, 204493, Note_off_c, 0, 79, 49
1, 204494, Control_c, 0, 64, 88
1, 204509, Control_c, 0, 64, 101
1, 204523, Control_c, 0, 64, 127
1, 204535, Note_on_c, 0, 55, 51
1, 204539, Note_off_c, 0, 63, 49
1, 204541, Note_off_c, 0, 60, 49
1, 204576, Note_off_c, 0, 66, 60
1, 204730, Control_c, 0, 67, 8
1, 204745, Control_c, 0, 67, 9
1, 204758, Note_off_c, 0, 55, 62
1, 204759, Control_c, 0, 67, 11
1, 204771, Note_on_c, 0, 79, 73
1, 204774, Control_c, 0, 67, 13
1, 204786, Note_on_c, 0, 59, 49
1, 204786, Note_on_c, 0, 67, 58
1, 204789, Control_c, 0, 64, 92
1, 204789, Control_c, 0, 67, 17
1, 204791, Note_on_c, 0, 62, 36
1, 204801, Note_off_c, 0, 78, 59
1, 204804, Control_c, 0, 64, 71
1, 204804, Control_c, 0, 67, 22
1, 204819, Control_c, 0, 64, 0
1, 204819, Control_c, 0, 67, 28
1, 204834, Control_c, 0, 67, 35
1, 204849, Control_c, 0, 67, 44
1, 204864, Control_c, 0, 67, 52
1, 204879, Control_c, 0, 67, 60
1, 204893, Control_c, 0, 67, 68
1, 204908, Control_c, 0, 67, 76
1, 204923, Control_c, 0, 64, 47
1, 204923, Control_c, 0, 67, 83
1, 204938, Control_c, 0, 64, 63
1, 204938, Control_c, 0, 67, 89
1, 204951, Note_off_c, 0, 59, 56
1, 204952, Control_c, 0, 64, 67
1, 204952, Control_c, 0, 67, 93
1, 204967, Control_c, 0, 64, 73
1, 204967, Control_c, 0, 67, 95
1, 204978, Note_on_c, 0, 55, 54
1, 204983, Control_c, 0, 64, 82
1, 204983, Control_c, 0, 67, 96
1, 204987, Note_off_c, 0, 67, 55
1, 204994, Note_off_c, 0, 62, 53
1, 204998, Control_c, 0, 64, 91
1, 205013, Control_c, 0, 64, 100
1, 205016, Note_off_c, 0, 55, 63
1, 205028, Control_c, 0, 64, 109
1, 205043, Control_c, 0, 64, 126
1, 205045, Note_off_c, 0, 79, 55
1, 205064, Control_c, 0, 64, 127
1, 205183, Control_c, 0, 67, 96
1, 205212, Control_c, 0, 67, 97
1, 205227, Control_c, 0, 67, 97
1, 205242, Control_c, 0, 67, 98
1, 205257, Control_c, 0, 67, 99
1, 205272, Control_c, 0, 67, 102
1, 205287, Control_c, 0, 67, 106
1, 205302, Control_c, 0, 67, 110
1, 205317, Control_c, 0, 67, 113
1, 205332, Control_c, 0, 64, 96
1, 205332, Control_c, 0, 67, 117
1, 205346, Control_c, 0, 64, 78
1, 205346, Control_c, 0, 67, 122
1, 205356, Note_on_c, 0, 71, 45
1, 205361, Control_c, 0, 64, 63
1, 205361, Control_c, 0, 67, 126
1, 205361, Note_on_c, 0, 68, 37
1, 205373, Note_on_c, 0, 65, 33
1, 205376, Control_c, 0, 64, 0
1, 205376, Control_c, 0, 67, 127
1, 205435, Control_c, 0, 64, 32
1, 205450, Control_c, 0, 64, 61
1, 205464, Control_c, 0, 64, 67
1, 205479, Control_c, 0, 64, 71
1, 205494, Control_c, 0, 64, 76
1, 205509, Control_c, 0, 64, 81
1, 205524, Control_c, 0, 64, 86
1, 205538, Control_c, 0, 64, 92
1, 205553, Control_c, 0, 64, 96
1, 205568, Control_c, 0, 64, 102
1, 205582, Control_c, 0, 64, 106
1, 205597, Control_c, 0, 64, 111
1, 205603, Note_off_c, 0, 71, 60
1, 205612, Control_c, 0, 64, 117
1, 205618, Note_on_c, 0, 83, 57
1, 205621, Note_off_c, 0, 68, 36
1, 205627, Control_c, 0, 64, 127
1, 205824, Note_off_c, 0, 83, 58
1, 205825, Note_on_c, 0, 72, 59
1, 205828, Control_c, 0, 64, 114
1, 205833, Note_on_c, 0, 64, 47
1, 205843, Note_on_c, 0, 67, 40
1, 205843, Control_c, 0, 64, 93
1, 205858, Control_c, 0, 64, 72
1, 205873, Control_c, 0, 64, 44
1, 205880, Note_off_c, 0, 65, 37
1, 205887, Control_c, 0, 64, 0
1, 205932, Control_c, 0, 64, 47
1, 205947, Control_c, 0, 64, 65
1, 205961, Control_c, 0, 64, 70
1, 205976, Control_c, 0, 64, 76
1, 205976, Control_c, 0, 67, 126
1, 205991, Control_c, 0, 64, 82
1, 205991, Control_c, 0, 67, 126
1, 206005, Control_c, 0, 64, 89
1, 206005, Control_c, 0, 67, 125
1, 206017, Note_off_c, 0, 72, 55
1, 206020, Control_c, 0, 64, 96
1, 206020, Control_c, 0, 67, 125
1, 206032, Note_on_c, 0, 84, 67
1, 206035, Control_c, 0, 64, 105
1, 206035, Control_c, 0, 67, 124
1, 206050, Control_c, 0, 64, 115
1, 206050, Control_c, 0, 67, 124
1, 206065, Control_c, 0, 64, 127
1, 206065, Control_c, 0, 67, 123
1, 206080, Control_c, 0, 67, 123
1, 206213, Note_off_c, 0, 84, 55
1, 206213, Control_c, 0, 67, 123
1, 206222, Note_on_c, 0, 74, 66
1, 206228, Note_on_c, 0, 65, 46
1, 206228, Control_c, 0, 64, 116
1, 206228, Control_c, 0, 67, 124
1, 206238, Note_on_c, 0, 62, 41
1, 206243, Control_c, 0, 64, 89
1, 206243, Control_c, 0, 67, 124
1, 206255, Note_off_c, 0, 64, 37
1, 206258, Control_c, 0, 64, 70
1, 206266, Note_off_c, 0, 67, 29
1, 206273, Control_c, 0, 64, 0
1, 206287, Control_c, 0, 67, 125
1, 206390, Control_c, 0, 64, 21
1, 206405, Control_c, 0, 64, 62
1, 206405, Control_c, 0, 67, 124
1, 206411, Note_off_c, 0, 74, 53
1, 206420, Control_c, 0, 64, 70
1, 206420, Control_c, 0, 67, 124
1, 206420, Note_on_c, 0, 86, 64
1, 206435, Control_c, 0, 64, 77
1, 206435, Control_c, 0, 67, 123
1, 206449, Control_c, 0, 64, 86
1, 206464, Control_c, 0, 64, 95
1, 206479, Control_c, 0, 64, 104
1, 206494, Control_c, 0, 64, 114
1, 206494, Control_c, 0, 67, 123
1, 206504, Note_off_c, 0, 86, 49
1, 206509, Control_c, 0, 64, 127
1, 206595, Note_on_c, 0, 83, 50
1, 206651, Note_off_c, 0, 83, 56
1, 206653, Note_on_c, 0, 84, 52
1, 206694, Note_off_c, 0, 84, 59
1, 206718, Note_on_c, 0, 86, 60
1, 206769, Control_c, 0, 64, 123
1, 206783, Control_c, 0, 64, 104
1, 206798, Control_c, 0, 64, 92
1, 206813, Control_c, 0, 64, 84
1, 206825, Note_on_c, 0, 88, 62
1, 206828, Control_c, 0, 64, 77
1, 206830, Note_off_c, 0, 65, 19
1, 206831, Note_on_c, 0, 60, 30
1, 206831, Note_on_c, 0, 64, 38
1, 206843, Control_c, 0, 64, 71
1, 206845, Note_off_c, 0, 86, 59
1, 206855, Note_on_c, 0, 76, 43
1, 206857, Note_off_c, 0, 62, 32
1, 206858, Control_c, 0, 64, 64
1, 206873, Control_c, 0, 64, 45
1, 206888, Control_c, 0, 64, 0
1, 207140, Control_c, 0, 64, 58
1, 207154, Control_c, 0, 64, 65
1, 207169, Control_c, 0, 64, 70
1, 207184, Control_c, 0, 64, 74
1, 207199, Control_c, 0, 64, 79
1, 207214, Control_c, 0, 64, 84
1, 207228, Control_c, 0, 64, 89
1, 207243, Control_c, 0, 64, 95
1, 207258, Control_c, 0, 64, 101
1, 207273, Control_c, 0, 64, 110
1, 207279, Note_off_c, 0, 76, 46
1, 207288, Control_c, 0, 64, 127
1, 207400, Control_c, 0, 67, 123
1, 207406, Note_off_c, 0, 88, 55
1, 207415, Control_c, 0, 67, 124
1, 207430, Control_c, 0, 67, 124
1, 207445, Control_c, 0, 67, 125
1, 207474, Control_c, 0, 67, 125
1, 207489, Control_c, 0, 67, 126
1, 207504, Control_c, 0, 67, 126
1, 207519, Control_c, 0, 67, 127
1, 207548, Control_c, 0, 67, 127
1, 207687, Note_on_c, 0, 86, 42
1, 207702, Note_on_c, 0, 74, 35
1, 207752, Note_off_c, 0, 74, 49
1, 207770, Note_off_c, 0, 86, 40
1, 207930, Note_on_c, 0, 84, 42
1, 207948, Control_c, 0, 64, 117
1, 207953, Note_on_c, 0, 72, 27
1, 207963, Control_c, 0, 64, 100
1, 207977, Control_c, 0, 64, 88
1, 207992, Control_c, 0, 64, 77
1, 208007, Control_c, 0, 64, 66
1, 208022, Control_c, 0, 64, 0
1, 208104, Control_c, 0, 64, 49
1, 208119, Control_c, 0, 64, 62
1, 208133, Control_c, 0, 64, 66
1, 208148, Control_c, 0, 64, 70
1, 208163, Control_c, 0, 64, 74
1, 208168, Note_off_c, 0, 72, 48
1, 208178, Control_c, 0, 64, 78
1, 208193, Control_c, 0, 64, 83
1, 208208, Control_c, 0, 64, 88
1, 208211, Note_off_c, 0, 84, 55
1, 208223, Control_c, 0, 64, 92
1, 208235, Note_off_c, 0, 64, 32
1, 208238, Control_c, 0, 64, 94
1, 208238, Note_off_c, 0, 60, 44
1, 208253, Control_c, 0, 64, 97
1, 208268, Control_c, 0, 64, 99
1, 208282, Control_c, 0, 64, 101
1, 208297, Control_c, 0, 64, 103
1, 208312, Control_c, 0, 64, 105
1, 208327, Control_c, 0, 64, 106
1, 208342, Control_c, 0, 64, 107
1, 208356, Control_c, 0, 64, 108
1, 208371, Control_c, 0, 64, 108
1, 208401, Control_c, 0, 64, 109
1, 208652, Control_c, 0, 64, 108
1, 208682, Control_c, 0, 64, 107
1, 208697, Control_c, 0, 64, 106
1, 208712, Control_c, 0, 64, 105
1, 208726, Control_c, 0, 64, 103
1, 208741, Control_c, 0, 64, 101
1, 208756, Control_c, 0, 64, 99
1, 208771, Control_c, 0, 64, 96
1, 208786, Control_c, 0, 64, 92
1, 208807, Control_c, 0, 64, 88
1, 208822, Control_c, 0, 64, 84
1, 208837, Control_c, 0, 64, 78
1, 208852, Control_c, 0, 64, 72
1, 208867, Control_c, 0, 64, 65
1, 208882, Control_c, 0, 64, 59
1, 208897, Control_c, 0, 64, 56
1, 208926, Control_c, 0, 64, 55
1, 208941, Control_c, 0, 64, 55
1, 208956, Control_c, 0, 64, 54
1, 208971, Control_c, 0, 64, 54
1, 208986, Control_c, 0, 64, 53
1, 209179, Control_c, 0, 64, 54
1, 209209, Control_c, 0, 64, 54
1, 209268, Control_c, 0, 64, 55
1, 209312, Control_c, 0, 64, 55
1, 209414, Note_on_c, 0, 48, 36
1, 209460, Control_c, 0, 64, 56
1, 209571, Control_c, 0, 64, 56
1, 209653, Note_on_c, 0, 52, 47
1, 209655, Note_off_c, 0, 48, 49
1, 209660, Control_c, 0, 64, 57
1, 209690, Control_c, 0, 64, 57
1, 209724, Note_off_c, 0, 52, 53
1, 209821, Note_on_c, 0, 55, 46
1, 209824, Control_c, 0, 64, 58
1, 209856, Note_off_c, 0, 55, 61
1, 209966, Note_on_c, 0, 60, 45
1, 209994, Note_off_c, 0, 60, 58
1, 210047, Control_c, 0, 64, 57
1, 210076, Control_c, 0, 64, 57
1, 210091, Control_c, 0, 64, 56
1, 210104, Note_on_c, 0, 59, 41
1, 210106, Control_c, 0, 64, 56
1, 210121, Control_c, 0, 64, 55
1, 210134, Note_off_c, 0, 59, 54
1, 210135, Control_c, 0, 64, 54
1, 210150, Control_c, 0, 64, 54
1, 210165, Control_c, 0, 64, 53
1, 210179, Control_c, 0, 64, 53
1, 210230, Note_on_c, 0, 57, 46
1, 210260, Note_off_c, 0, 57, 54
1, 210368, Note_on_c, 0, 40, 39
1, 210375, Note_on_c, 0, 55, 49
1, 210433, Note_off_c, 0, 55, 55
1, 210505, Note_on_c, 0, 57, 56
1, 210554, Note_off_c, 0, 57, 57
1, 210632, Note_on_c, 0, 59, 62
1, 210670, Note_off_c, 0, 59, 59
1, 210754, Note_on_c, 0, 60, 69
1, 210778, Note_off_c, 0, 40, 48
1, 210800, Note_off_c, 0, 60, 61
1, 210873, Note_on_c, 0, 59, 74
1, 210913, Note_off_c, 0, 59, 56
1, 210995, Note_on_c, 0, 57, 68
1, 211002, Control_c, 0, 64, 52
1, 211017, Control_c, 0, 64, 52
1, 211052, Note_off_c, 0, 57, 53
1, 211055, Control_c, 0, 64, 51
1, 211070, Control_c, 0, 64, 51
1, 211084, Control_c, 0, 64, 50
1, 211099, Control_c, 0, 64, 48
1, 211114, Control_c, 0, 64, 46
1, 211128, Control_c, 0, 64, 44
1, 211134, Note_on_c, 0, 40, 50
1, 211135, Note_on_c, 0, 55, 66
1, 211143, Control_c, 0, 64, 42
1, 211158, Control_c, 0, 64, 40
1, 211173, Control_c, 0, 64, 40
1, 211188, Control_c, 0, 64, 39
1, 211205, Note_off_c, 0, 55, 59
1, 211217, Control_c, 0, 64, 38
1, 211255, Note_on_c, 0, 57, 64
1, 211316, Note_off_c, 0, 57, 60
1, 211377, Note_on_c, 0, 59, 71
1, 211381, Control_c, 0, 64, 38
1, 211411, Control_c, 0, 64, 36
1, 211425, Control_c, 0, 64, 34
1, 211438, Note_off_c, 0, 59, 59
1, 211440, Control_c, 0, 64, 31
1, 211455, Control_c, 0, 64, 28
1, 211470, Control_c, 0, 64, 24
1, 211485, Control_c, 0, 64, 17
1, 211499, Control_c, 0, 64, 0
1, 211504, Note_on_c, 0, 60, 73
1, 211561, Note_off_c, 0, 60, 62
1, 211612, Note_off_c, 0, 40, 59
1, 211618, Note_on_c, 0, 59, 73
1, 211669, Note_off_c, 0, 59, 57
1, 211739, Note_on_c, 0, 57, 65
1, 211803, Note_off_c, 0, 57, 59
1, 211863, Note_on_c, 0, 55, 63
1, 211902, Note_off_c, 0, 55, 62
1, 211981, Note_on_c, 0, 53, 71
1, 212018, Note_off_c, 0, 53, 63
1, 212098, Note_on_c, 0, 52, 66
1, 212150, Note_off_c, 0, 52, 56
1, 212216, Note_on_c, 0, 50, 61
1, 212256, Note_off_c, 0, 50, 65
1, 212336, Note_on_c, 0, 48, 60
1, 212374, Note_off_c, 0, 48, 61
1, 212476, Note_on_c, 0, 47, 39
1, 212511, Note_off_c, 0, 47, 55
1, 212622, Note_on_c, 0, 45, 44
1, 212745, Note_off_c, 0, 45, 60
1, 212755, Note_on_c, 0, 49, 55
1, 212808, Note_off_c, 0, 49, 60
1, 212885, Note_on_c, 0, 50, 62
1, 212934, Note_off_c, 0, 50, 61
1, 213015, Note_on_c, 0, 52, 70
1, 213065, Note_off_c, 0, 52, 56
1, 213137, Note_on_c, 0, 53, 70
1, 213170, Note_off_c, 0, 53, 67
1, 213255, Note_on_c, 0, 56, 66
1, 213291, Note_off_c, 0, 56, 60
1, 213386, Note_on_c, 0, 57, 67
1, 213394, Note_on_c, 0, 41, 51
1, 213397, Note_on_c, 0, 53, 51
1, 213455, Note_off_c, 0, 57, 56
1, 213502, Note_on_c, 0, 61, 70
1, 213550, Note_off_c, 0, 61, 58
1, 213627, Note_on_c, 0, 62, 74
1, 213672, Note_off_c, 0, 62, 57
1, 213749, Note_on_c, 0, 64, 79
1, 213783, Note_off_c, 0, 41, 58
1, 213786, Note_off_c, 0, 53, 65
1, 213804, Note_off_c, 0, 64, 64
1, 213860, Note_on_c, 0, 65, 75
1, 213896, Note_off_c, 0, 65, 60
1, 213967, Note_on_c, 0, 68, 70
1, 214003, Note_off_c, 0, 68, 59
1, 214084, Note_on_c, 0, 69, 73
1, 214098, Note_on_c, 0, 53, 63
1, 214098, Note_on_c, 0, 41, 58
1, 214150, Note_off_c, 0, 69, 54
1, 214195, Note_on_c, 0, 73, 77
1, 214234, Note_off_c, 0, 73, 60
1, 214302, Control_c, 0, 67, 126
1, 214310, Note_on_c, 0, 74, 82
1, 214317, Control_c, 0, 67, 116
1, 214332, Control_c, 0, 64, 17
1, 214332, Control_c, 0, 67, 106
1, 214346, Control_c, 0, 64, 23
1, 214346, Control_c, 0, 67, 96
1, 214353, Note_off_c, 0, 74, 63
1, 214361, Control_c, 0, 64, 27
1, 214361, Control_c, 0, 67, 86
1, 214376, Control_c, 0, 64, 29
1, 214376, Control_c, 0, 67, 75
1, 214391, Control_c, 0, 64, 31
1, 214391, Control_c, 0, 67, 63
1, 214406, Control_c, 0, 64, 34
1, 214406, Control_c, 0, 67, 50
1, 214420, Note_on_c, 0, 76, 85
1, 214420, Control_c, 0, 64, 36
1, 214420, Control_c, 0, 67, 36
1, 214435, Control_c, 0, 64, 37
1, 214435, Control_c, 0, 67, 25
1, 214450, Control_c, 0, 64, 39
1, 214450, Control_c, 0, 67, 14
1, 214465, Control_c, 0, 64, 41
1, 214465, Control_c, 0, 67, 0
1, 214471, Note_off_c, 0, 76, 64
1, 214480, Control_c, 0, 64, 43
1, 214495, Control_c, 0, 64, 46
1, 214510, Control_c, 0, 64, 47
1, 214525, Control_c, 0, 64, 49
1, 214530, Note_off_c, 0, 41, 62
1, 214534, Note_on_c, 0, 77, 70
1, 214536, Note_off_c, 0, 53, 65
1, 214540, Control_c, 0, 64, 49
1, 214554, Control_c, 0, 64, 50
1, 214566, Note_off_c, 0, 77, 63
1, 214569, Control_c, 0, 64, 52
1, 214584, Control_c, 0, 64, 53
1, 214599, Control_c, 0, 64, 55
1, 214614, Control_c, 0, 64, 56
1, 214629, Control_c, 0, 64, 57
1, 214643, Control_c, 0, 64, 58
1, 214650, Note_on_c, 0, 80, 73
1, 214658, Control_c, 0, 64, 58
1, 214672, Note_off_c, 0, 80, 68
1, 214673, Control_c, 0, 64, 59
1, 214688, Control_c, 0, 64, 60
1, 214717, Control_c, 0, 64, 60
1, 214794, Note_on_c, 0, 81, 67
1, 214799, Control_c, 0, 64, 60
1, 214829, Control_c, 0, 64, 59
1, 214933, Note_on_c, 0, 77, 78
1, 214982, Note_off_c, 0, 81, 60
1, 215033, Note_off_c, 0, 77, 64
1, 215045, Note_on_c, 0, 74, 86
1, 215065, Control_c, 0, 64, 60
1, 215094, Note_off_c, 0, 74, 65
1, 215109, Control_c, 0, 64, 60
1, 215168, Note_on_c, 0, 81, 84
1, 215213, Control_c, 0, 64, 60
1, 215292, Note_on_c, 0, 77, 85
1, 215317, Control_c, 0, 64, 60
1, 215347, Control_c, 0, 64, 61
1, 215362, Control_c, 0, 64, 62
1, 215366, Note_off_c, 0, 81, 58
1, 215377, Control_c, 0, 64, 62
1, 215407, Control_c, 0, 64, 63
1, 215412, Note_on_c, 0, 74, 89
1, 215416, Note_off_c, 0, 77, 64
1, 215422, Control_c, 0, 64, 63
1, 215437, Control_c, 0, 64, 64
1, 215489, Note_off_c, 0, 74, 67
1, 215543, Note_on_c, 0, 55, 63
1, 215554, Note_on_c, 0, 67, 70
1, 215557, Note_on_c, 0, 64, 62
1, 215561, Note_on_c, 0, 60, 63
1, 215592, Control_c, 0, 64, 63
1, 215799, Note_on_c, 0, 88, 79
1, 215971, Note_on_c, 0, 86, 78
1, 216051, Control_c, 0, 64, 64
1, 216102, Note_on_c, 0, 84, 85
1, 216112, Note_off_c, 0, 88, 61
1, 216216, Note_on_c, 0, 83, 85
1, 216254, Note_off_c, 0, 86, 40
1, 216276, Note_off_c, 0, 84, 54
1, 216343, Note_off_c, 0, 83, 66
1, 216346, Note_on_c, 0, 81, 89
1, 216370, Control_c, 0, 64, 64
1, 216444, Control_c, 0, 64, 65
1, 216493, Note_on_c, 0, 78, 77
1, 216497, Note_off_c, 0, 81, 62
1, 216504, Control_c, 0, 64, 65
1, 216593, Control_c, 0, 64, 66
1, 216626, Note_on_c, 0, 79, 77
1, 216653, Note_off_c, 0, 78, 61
1, 216737, Note_off_c, 0, 79, 59
1, 216743, Note_on_c, 0, 84, 75
1, 216883, Note_on_c, 0, 75, 79
1, 216914, Note_off_c, 0, 84, 60
1, 217006, Note_on_c, 0, 76, 76
1, 217008, Control_c, 0, 64, 65
1, 217026, Note_off_c, 0, 75, 61
1, 217059, Control_c, 0, 67, 8
1, 217074, Control_c, 0, 67, 8
1, 217089, Control_c, 0, 67, 9
1, 217104, Control_c, 0, 67, 9
1, 217118, Control_c, 0, 67, 10
1, 217127, Note_off_c, 0, 76, 59
1, 217133, Control_c, 0, 67, 10
1, 217138, Note_on_c, 0, 79, 79
1, 217148, Control_c, 0, 67, 11
1, 217163, Control_c, 0, 67, 11
1, 217178, Control_c, 0, 67, 12
1, 217193, Control_c, 0, 67, 12
1, 217208, Control_c, 0, 67, 13
1, 217222, Control_c, 0, 64, 65
1, 217222, Control_c, 0, 67, 14
1, 217237, Control_c, 0, 67, 15
1, 217247, Note_off_c, 0, 79, 61
1, 217252, Control_c, 0, 67, 15
1, 217267, Control_c, 0, 67, 16
1, 217276, Note_on_c, 0, 71, 71
1, 217356, Control_c, 0, 67, 16
1, 217382, Note_off_c, 0, 55, 41
1, 217389, Note_off_c, 0, 67, 59
1, 217404, Note_on_c, 0, 72, 70
1, 217417, Note_off_c, 0, 60, 54
1, 217431, Note_off_c, 0, 64, 56
1, 217434, Note_off_c, 0, 71, 59
1, 217515, Note_off_c, 0, 72, 65
1, 217518, Control_c, 0, 67, 16
1, 217522, Note_on_c, 0, 76, 78
1, 217533, Control_c, 0, 64, 64
1, 217648, Note_on_c, 0, 66, 75
1, 217698, Note_off_c, 0, 76, 55
1, 217711, Control_c, 0, 64, 64
1, 217756, Control_c, 0, 67, 15
1, 217771, Control_c, 0, 64, 63
1, 217774, Note_on_c, 0, 67, 73
1, 217779, Note_off_c, 0, 66, 64
1, 217868, Note_off_c, 0, 67, 58
1, 217896, Note_on_c, 0, 72, 67
1, 217986, Control_c, 0, 67, 16
1, 218015, Control_c, 0, 67, 16
1, 218021, Note_on_c, 0, 63, 66
1, 218045, Control_c, 0, 64, 63
1, 218045, Control_c, 0, 67, 17
1, 218050, Note_off_c, 0, 72, 56
1, 218075, Control_c, 0, 67, 17
1, 218090, Control_c, 0, 67, 18
1, 218105, Control_c, 0, 67, 19
1, 218119, Control_c, 0, 67, 23
1, 218134, Control_c, 0, 67, 27
1, 218138, Note_off_c, 0, 63, 61
1, 218139, Note_on_c, 0, 64, 67
1, 218149, Control_c, 0, 67, 30
1, 218164, Control_c, 0, 64, 62
1, 218164, Control_c, 0, 67, 32
1, 218179, Control_c, 0, 67, 35
1, 218193, Control_c, 0, 67, 37
1, 218208, Control_c, 0, 67, 40
1, 218223, Control_c, 0, 67, 42
1, 218236, Note_off_c, 0, 64, 62
1, 218238, Control_c, 0, 64, 62
1, 218238, Control_c, 0, 67, 44
1, 218253, Control_c, 0, 67, 46
1, 218264, Note_on_c, 0, 67, 62
1, 218267, Control_c, 0, 64, 61
1, 218267, Control_c, 0, 67, 48
1, 218282, Control_c, 0, 67, 50
1, 218297, Control_c, 0, 67, 52
1, 218311, Control_c, 0, 64, 61
1, 218311, Control_c, 0, 67, 54
1, 218326, Control_c, 0, 67, 56
1, 218341, Control_c, 0, 67, 58
1, 218356, Control_c, 0, 67, 60
1, 218365, Note_off_c, 0, 67, 60
1, 218371, Control_c, 0, 64, 60
1, 218371, Control_c, 0, 67, 61
1, 218385, Control_c, 0, 67, 63
1, 218394, Note_on_c, 0, 59, 58
1, 218400, Control_c, 0, 64, 60
1, 218400, Control_c, 0, 67, 64
1, 218415, Control_c, 0, 67, 65
1, 218430, Control_c, 0, 64, 59
1, 218430, Control_c, 0, 67, 67
1, 218445, Control_c, 0, 67, 69
1, 218460, Control_c, 0, 64, 59
1, 218460, Control_c, 0, 67, 71
1, 218474, Control_c, 0, 64, 58
1, 218474, Control_c, 0, 67, 73
1, 218489, Control_c, 0, 67, 75
1, 218504, Control_c, 0, 64, 58
1, 218504, Control_c, 0, 67, 77
1, 218519, Control_c, 0, 64, 57
1, 218519, Control_c, 0, 67, 79
1, 218525, Note_off_c, 0, 59, 57
1, 218527, Note_on_c, 0, 60, 59
1, 218541, Control_c, 0, 67, 81
1, 218556, Control_c, 0, 64, 56
1, 218556, Control_c, 0, 67, 83
1, 218572, Control_c, 0, 64, 56
1, 218572, Control_c, 0, 67, 86
1, 218587, Control_c, 0, 64, 54
1, 218587, Control_c, 0, 67, 89
1, 218602, Control_c, 0, 64, 53
1, 218602, Control_c, 0, 67, 92
1, 218616, Control_c, 0, 64, 52
1, 218616, Control_c, 0, 67, 96
1, 218631, Control_c, 0, 64, 50
1, 218631, Control_c, 0, 67, 100
1, 218646, Control_c, 0, 64, 48
1, 218646, Control_c, 0, 67, 103
1, 218661, Control_c, 0, 64, 45
1, 218661, Control_c, 0, 67, 107
1, 218663, Note_on_c, 0, 64, 58
1, 218676, Control_c, 0, 64, 39
1, 218676, Control_c, 0, 67, 112
1, 218679, Note_off_c, 0, 60, 54
1, 218690, Control_c, 0, 64, 31
1, 218690, Control_c, 0, 67, 116
1, 218705, Control_c, 0, 64, 11
1, 218705, Control_c, 0, 67, 121
1, 218720, Control_c, 0, 64, 0
1, 218720, Control_c, 0, 67, 125
1, 218735, Control_c, 0, 67, 127
1, 218842, Note_on_c, 0, 55, 51
1, 218895, Note_off_c, 0, 64, 59
1, 219208, Control_c, 0, 64, 23
1, 219223, Control_c, 0, 64, 34
1, 219238, Control_c, 0, 64, 44
1, 219253, Control_c, 0, 64, 49
1, 219267, Control_c, 0, 64, 53
1, 219290, Control_c, 0, 64, 56
1, 219305, Control_c, 0, 64, 60
1, 219320, Control_c, 0, 64, 63
1, 219335, Control_c, 0, 64, 65
1, 219349, Control_c, 0, 64, 67
1, 219365, Control_c, 0, 64, 69
1, 219380, Note_on_c, 0, 43, 43
1, 219380, Control_c, 0, 64, 71
1, 219395, Control_c, 0, 64, 73
1, 219410, Control_c, 0, 64, 76
1, 219425, Control_c, 0, 64, 79
1, 219439, Control_c, 0, 64, 84
1, 219454, Control_c, 0, 64, 87
1, 219469, Control_c, 0, 64, 90
1, 219484, Control_c, 0, 64, 94
1, 219499, Control_c, 0, 64, 98
1, 219513, Control_c, 0, 64, 102
1, 219528, Control_c, 0, 64, 106
1, 219543, Control_c, 0, 64, 111
1, 219558, Control_c, 0, 64, 116
1, 219572, Control_c, 0, 64, 127
1, 219586, Note_off_c, 0, 43, 61
1, 219852, Note_on_c, 0, 43, 49
1, 220089, Note_off_c, 0, 43, 56
1, 220368, Note_on_c, 0, 43, 43
1, 220626, Note_off_c, 0, 43, 36
1, 220678, Note_off_c, 0, 55, 61
1, 220718, Note_on_c, 0, 53, 42
1, 220830, Note_off_c, 0, 53, 63
1, 220859, Note_on_c, 0, 55, 45
1, 220870, Note_on_c, 0, 43, 44
1, 220911, Note_off_c, 0, 55, 62
1, 220962, Note_on_c, 0, 53, 50
1, 220996, Note_off_c, 0, 53, 66
1, 221029, Note_on_c, 0, 55, 52
1, 221060, Note_off_c, 0, 55, 63
1, 221078, Note_off_c, 0, 43, 49
1, 221080, Note_on_c, 0, 53, 57
1, 221119, Note_off_c, 0, 53, 64
1, 221157, Note_on_c, 0, 55, 51
1, 221185, Note_off_c, 0, 55, 59
1, 221224, Note_on_c, 0, 53, 48
1, 221256, Note_off_c, 0, 53, 58
1, 221267, Note_on_c, 0, 55, 58
1, 221299, Note_off_c, 0, 55, 65
1, 221320, Note_on_c, 0, 43, 50
1, 221357, Note_on_c, 0, 53, 43
1, 221384, Note_off_c, 0, 53, 57
1, 221387, Note_on_c, 0, 55, 56
1, 221417, Note_off_c, 0, 55, 64
1, 221478, Note_on_c, 0, 53, 44
1, 221483, Note_off_c, 0, 43, 60
1, 221508, Note_off_c, 0, 53, 56
1, 221520, Note_on_c, 0, 55, 54
1, 221555, Note_off_c, 0, 55, 65
1, 221601, Note_on_c, 0, 53, 49
1, 221631, Note_on_c, 0, 55, 63
1, 221633, Note_off_c, 0, 53, 54
1, 221674, Note_off_c, 0, 55, 61
1, 221715, Note_on_c, 0, 53, 61
1, 221746, Note_off_c, 0, 53, 67
1, 221755, Note_on_c, 0, 43, 53
1, 221769, Note_on_c, 0, 55, 60
1, 221802, Note_off_c, 0, 55, 64
1, 221826, Note_on_c, 0, 53, 64
1, 221866, Note_off_c, 0, 53, 63
1, 221881, Note_on_c, 0, 55, 65
1, 221897, Note_off_c, 0, 43, 60
1, 221926, Note_off_c, 0, 55, 61
1, 221948, Note_on_c, 0, 53, 66
1, 221983, Note_off_c, 0, 53, 60
1, 222012, Note_on_c, 0, 55, 61
1, 222039, Note_off_c, 0, 55, 67
1, 222072, Note_on_c, 0, 53, 68
1, 222113, Note_off_c, 0, 53, 64
1, 222126, Note_on_c, 0, 55, 72
1, 222162, Note_off_c, 0, 55, 64
1, 222191, Note_on_c, 0, 53, 70
1, 222193, Note_on_c, 0, 43, 56
1, 222230, Note_off_c, 0, 53, 61
1, 222230, Note_on_c, 0, 55, 66
1, 222267, Note_off_c, 0, 55, 64
1, 222281, Note_on_c, 0, 53, 55
1, 222329, Note_off_c, 0, 53, 65
1, 222330, Control_c, 0, 67, 126
1, 222334, Note_on_c, 0, 55, 69
1, 222345, Control_c, 0, 67, 123
1, 222359, Control_c, 0, 67, 118
1, 222360, Note_off_c, 0, 43, 56
1, 222374, Control_c, 0, 67, 112
1, 222389, Control_c, 0, 67, 105
1, 222397, Note_off_c, 0, 55, 60
1, 222400, Note_on_c, 0, 53, 66
1, 222404, Control_c, 0, 67, 94
1, 222419, Control_c, 0, 67, 86
1, 222433, Control_c, 0, 67, 77
1, 222448, Control_c, 0, 67, 68
1, 222457, Note_off_c, 0, 53, 65
1, 222463, Control_c, 0, 67, 59
1, 222477, Note_on_c, 0, 52, 63
1, 222478, Control_c, 0, 67, 52
1, 222493, Control_c, 0, 67, 46
1, 222508, Control_c, 0, 67, 42
1, 222523, Control_c, 0, 67, 40
1, 222537, Control_c, 0, 67, 39
1, 222542, Note_off_c, 0, 52, 62
1, 222555, Note_on_c, 0, 53, 66
1, 222672, Control_c, 0, 67, 40
1, 222701, Control_c, 0, 67, 40
1, 222716, Control_c, 0, 67, 41
1, 222731, Control_c, 0, 67, 41
1, 222761, Note_on_c, 0, 47, 53
1, 222761, Note_on_c, 0, 44, 59
1, 222764, Note_on_c, 0, 52, 67
1, 222790, Control_c, 0, 64, 121
1, 222805, Control_c, 0, 64, 106
1, 222805, Control_c, 0, 67, 42
1, 222821, Control_c, 0, 64, 97
1, 222836, Control_c, 0, 64, 90
1, 222850, Control_c, 0, 64, 84
1, 222865, Control_c, 0, 64, 76
1, 222880, Control_c, 0, 64, 68
1, 222883, Note_off_c, 0, 53, 59
1, 222895, Control_c, 0, 64, 62
1, 222895, Control_c, 0, 67, 42
1, 222909, Control_c, 0, 64, 51
1, 222924, Control_c, 0, 64, 47
1, 222939, Control_c, 0, 64, 46
1, 222954, Control_c, 0, 64, 44
1, 222969, Control_c, 0, 64, 44
1, 222983, Control_c, 0, 64, 43
1, 223013, Control_c, 0, 67, 43
1, 223065, Control_c, 0, 64, 44
1, 223080, Control_c, 0, 64, 44
1, 223095, Control_c, 0, 64, 45
1, 223095, Control_c, 0, 67, 43
1, 223109, Control_c, 0, 64, 46
1, 223124, Control_c, 0, 64, 46
1, 223139, Control_c, 0, 64, 47
1, 223154, Control_c, 0, 64, 48
1, 223169, Control_c, 0, 64, 48
1, 223198, Control_c, 0, 64, 49
1, 223228, Control_c, 0, 64, 49
1, 223228, Control_c, 0, 67, 44
1, 223242, Control_c, 0, 64, 50
1, 223307, Note_on_c, 0, 64, 58
1, 223331, Control_c, 0, 64, 50
1, 223392, Control_c, 0, 64, 51
1, 223443, Note_off_c, 0, 52, 53
1, 223451, Control_c, 0, 67, 44
1, 223480, Control_c, 0, 64, 51
1, 223495, Control_c, 0, 64, 52
1, 223510, Control_c, 0, 64, 53
1, 223524, Control_c, 0, 64, 53
1, 223524, Control_c, 0, 67, 45
1, 223554, Control_c, 0, 64, 54
1, 223584, Control_c, 0, 64, 54
1, 223614, Control_c, 0, 64, 55
1, 223628, Control_c, 0, 67, 45
1, 223643, Control_c, 0, 64, 55
1, 223652, Note_off_c, 0, 64, 64
1, 223673, Control_c, 0, 64, 56
1, 223688, Control_c, 0, 67, 46
1, 223718, Control_c, 0, 64, 56
1, 223849, Note_on_c, 0, 64, 53
1, 223918, Control_c, 0, 64, 57
1, 224139, Control_c, 0, 67, 46
1, 224185, Control_c, 0, 67, 47
1, 224200, Control_c, 0, 67, 47
1, 224229, Control_c, 0, 64, 56
1, 224229, Control_c, 0, 67, 48
1, 224259, Control_c, 0, 67, 48
1, 224303, Control_c, 0, 67, 49
1, 224318, Control_c, 0, 67, 49
1, 224347, Control_c, 0, 67, 50
1, 224350, Note_on_c, 0, 48, 38
1, 224373, Note_on_c, 0, 45, 43
1, 224377, Control_c, 0, 67, 50
1, 224392, Control_c, 0, 67, 51
1, 224407, Control_c, 0, 67, 51
1, 224422, Control_c, 0, 67, 52
1, 224428, Note_off_c, 0, 44, 41
1, 224451, Control_c, 0, 67, 53
1, 224463, Note_off_c, 0, 47, 39
1, 224466, Control_c, 0, 67, 54
1, 224481, Control_c, 0, 67, 57
1, 224496, Control_c, 0, 67, 60
1, 224511, Control_c, 0, 67, 63
1, 224533, Control_c, 0, 67, 66
1, 224548, Control_c, 0, 67, 69
1, 224562, Control_c, 0, 67, 72
1, 224577, Control_c, 0, 67, 76
1, 224592, Control_c, 0, 67, 80
1, 224607, Control_c, 0, 67, 85
1, 224622, Control_c, 0, 67, 91
1, 224636, Control_c, 0, 67, 97
1, 224651, Control_c, 0, 67, 102
1, 224666, Control_c, 0, 67, 106
1, 224681, Control_c, 0, 67, 109
1, 224696, Control_c, 0, 67, 113
1, 224704, Note_off_c, 0, 45, 44
1, 224705, Note_off_c, 0, 48, 43
1, 224711, Control_c, 0, 67, 116
1, 224725, Control_c, 0, 67, 119
1, 224740, Control_c, 0, 67, 122
1, 224755, Control_c, 0, 67, 125
1, 224770, Control_c, 0, 67, 127
1, 225029, Note_on_c, 0, 45, 38
1, 225029, Note_on_c, 0, 48, 30
1, 225081, Control_c, 0, 64, 56
1, 225125, Control_c, 0, 64, 55
1, 225155, Control_c, 0, 64, 55
1, 225229, Control_c, 0, 64, 54
1, 225370, Control_c, 0, 64, 54
1, 225444, Control_c, 0, 64, 53
1, 225503, Control_c, 0, 64, 53
1, 225569, Note_off_c, 0, 64, 38
1, 225621, Control_c, 0, 64, 52
1, 225816, Control_c, 0, 64, 52
1, 226134, Control_c, 0, 64, 51
1, 226326, Note_off_c, 0, 48, 40
1, 226353, Note_off_c, 0, 45, 40
1, 226416, Control_c, 0, 64, 51
1, 226854, Control_c, 0, 64, 50
1, 226898, Control_c, 0, 64, 50
1, 227031, Control_c, 0, 64, 49
1, 227179, Control_c, 0, 64, 49
1, 227395, Note_on_c, 0, 48, 35
1, 227587, Control_c, 0, 64, 49
1, 227632, Control_c, 0, 64, 50
1, 227658, Note_off_c, 0, 48, 48
1, 227664, Note_on_c, 0, 52, 45
1, 227706, Control_c, 0, 64, 50
1, 227751, Control_c, 0, 64, 51
1, 227759, Note_off_c, 0, 52, 58
1, 227823, Note_on_c, 0, 55, 51
1, 227859, Note_off_c, 0, 55, 63
1, 227960, Note_on_c, 0, 60, 50
1, 227998, Note_off_c, 0, 60, 62
1, 228106, Note_on_c, 0, 59, 41
1, 228134, Note_off_c, 0, 59, 52
1, 228229, Note_on_c, 0, 57, 43
1, 228255, Control_c, 0, 64, 50
1, 228263, Note_off_c, 0, 57, 53
1, 228277, Control_c, 0, 64, 50
1, 228321, Control_c, 0, 64, 49
1, 228336, Control_c, 0, 64, 49
1, 228351, Control_c, 0, 64, 48
1, 228360, Note_on_c, 0, 55, 53
1, 228366, Control_c, 0, 64, 47
1, 228367, Note_on_c, 0, 52, 40
1, 228372, Note_on_c, 0, 40, 37
1, 228381, Control_c, 0, 64, 47
1, 228413, Note_off_c, 0, 55, 55
1, 228425, Control_c, 0, 64, 46
1, 228455, Control_c, 0, 64, 46
1, 228469, Control_c, 0, 64, 45
1, 228480, Note_on_c, 0, 57, 58
1, 228526, Note_off_c, 0, 57, 57
1, 228611, Note_on_c, 0, 59, 64
1, 228651, Note_off_c, 0, 59, 57
1, 228703, Note_off_c, 0, 52, 47
1, 228704, Note_off_c, 0, 40, 43
1, 228735, Note_on_c, 0, 60, 67
1, 228783, Note_off_c, 0, 60, 61
1, 228849, Note_on_c, 0, 59, 69
1, 228882, Note_off_c, 0, 59, 59
1, 228943, Control_c, 0, 64, 45
1, 228976, Note_on_c, 0, 57, 67
1, 228988, Control_c, 0, 64, 44
1, 229024, Control_c, 0, 64, 44
1, 229026, Note_off_c, 0, 57, 54
1, 229054, Control_c, 0, 64, 43
1, 229098, Note_on_c, 0, 55, 65
1, 229098, Control_c, 0, 64, 43
1, 229103, Note_on_c, 0, 52, 50
1, 229107, Note_on_c, 0, 40, 45
1, 229143, Control_c, 0, 64, 42
1, 229146, Note_off_c, 0, 55, 55
1, 229173, Control_c, 0, 64, 42
1, 229213, Note_on_c, 0, 57, 73
1, 229232, Control_c, 0, 64, 41
1, 229262, Note_off_c, 0, 57, 58
1, 229330, Note_on_c, 0, 59, 75
1, 229360, Note_off_c, 0, 59, 63
1, 229365, Control_c, 0, 64, 42
1, 229380, Control_c, 0, 67, 124
1, 229395, Control_c, 0, 67, 119
1, 229410, Control_c, 0, 64, 42
1, 229410, Control_c, 0, 67, 114
1, 229424, Control_c, 0, 64, 43
1, 229424, Control_c, 0, 67, 109
1, 229439, Control_c, 0, 64, 43
1, 229439, Control_c, 0, 67, 104
1, 229453, Note_on_c, 0, 60, 76
1, 229454, Control_c, 0, 64, 44
1, 229454, Control_c, 0, 67, 100
1, 229468, Control_c, 0, 64, 44
1, 229468, Control_c, 0, 67, 96
1, 229483, Control_c, 0, 64, 45
1, 229483, Control_c, 0, 67, 92
1, 229498, Control_c, 0, 64, 45
1, 229498, Control_c, 0, 67, 89
1, 229513, Control_c, 0, 67, 86
1, 229524, Note_off_c, 0, 60, 59
1, 229526, Note_off_c, 0, 52, 58
1, 229528, Control_c, 0, 64, 46
1, 229528, Control_c, 0, 67, 85
1, 229543, Control_c, 0, 67, 84
1, 229549, Note_off_c, 0, 40, 42
1, 229558, Control_c, 0, 64, 46
1, 229568, Note_on_c, 0, 64, 76
1, 229617, Note_off_c, 0, 64, 61
1, 229677, Control_c, 0, 64, 46
1, 229677, Control_c, 0, 67, 85
1, 229690, Note_on_c, 0, 65, 76
1, 229692, Control_c, 0, 64, 45
1, 229707, Control_c, 0, 64, 44
1, 229707, Control_c, 0, 67, 85
1, 229721, Control_c, 0, 64, 43
1, 229736, Control_c, 0, 64, 42
1, 229736, Control_c, 0, 67, 86
1, 229745, Note_off_c, 0, 65, 61
1, 229752, Control_c, 0, 67, 86
1, 229774, Control_c, 0, 64, 41
1, 229789, Control_c, 0, 67, 87
1, 229804, Control_c, 0, 64, 40
1, 229804, Control_c, 0, 67, 87
1, 229819, Control_c, 0, 67, 88
1, 229830, Note_on_c, 0, 67, 64
1, 229834, Control_c, 0, 64, 40
1, 229834, Control_c, 0, 67, 88
1, 229848, Control_c, 0, 64, 39
1, 229863, Control_c, 0, 64, 38
1, 229863, Control_c, 0, 67, 89
1, 229871, Note_off_c, 0, 67, 61
1, 229878, Control_c, 0, 64, 38
1, 229878, Control_c, 0, 67, 90
1, 229893, Control_c, 0, 64, 36
1, 229893, Control_c, 0, 67, 90
1, 229922, Control_c, 0, 67, 91
1, 229937, Control_c, 0, 67, 91
1, 229946, Note_on_c, 0, 65, 60
1, 229952, Control_c, 0, 64, 36
1, 229952, Control_c, 0, 67, 92
1, 229967, Control_c, 0, 67, 93
1, 229976, Note_off_c, 0, 65, 66
1, 229981, Control_c, 0, 64, 35
1, 229981, Control_c, 0, 67, 93
1, 229996, Control_c, 0, 64, 33
1, 229996, Control_c, 0, 67, 94
1, 230011, Control_c, 0, 64, 31
1, 230011, Control_c, 0, 67, 95
1, 230026, Control_c, 0, 64, 29
1, 230026, Control_c, 0, 67, 96
1, 230041, Control_c, 0, 64, 27
1, 230041, Control_c, 0, 67, 97
1, 230055, Control_c, 0, 64, 23
1, 230055, Control_c, 0, 67, 98
1, 230064, Note_on_c, 0, 64, 62
1, 230070, Control_c, 0, 64, 14
1, 230070, Control_c, 0, 67, 100
1, 230085, Control_c, 0, 64, 0
1, 230085, Control_c, 0, 67, 104
1, 230100, Control_c, 0, 67, 107
1, 230104, Note_off_c, 0, 64, 61
1, 230115, Control_c, 0, 67, 110
1, 230130, Control_c, 0, 67, 112
1, 230145, Control_c, 0, 67, 115
1, 230160, Control_c, 0, 67, 118
1, 230174, Control_c, 0, 67, 121
1, 230180, Note_on_c, 0, 62, 53
1, 230189, Control_c, 0, 67, 123
1, 230204, Control_c, 0, 67, 126
1, 230214, Note_off_c, 0, 62, 62
1, 230218, Control_c, 0, 67, 127
1, 230293, Note_on_c, 0, 60, 57
1, 230337, Note_off_c, 0, 60, 60
1, 230444, Note_on_c, 0, 58, 47
1, 230477, Note_off_c, 0, 58, 57
1, 230583, Note_on_c, 0, 57, 53
1, 230704, Note_off_c, 0, 57, 53
1, 230714, Note_on_c, 0, 61, 59
1, 230764, Note_off_c, 0, 61, 59
1, 230837, Note_on_c, 0, 62, 72
1, 230881, Note_off_c, 0, 62, 56
1, 230954, Note_on_c, 0, 64, 74
1, 231014, Note_off_c, 0, 64, 63
1, 231078, Note_on_c, 0, 65, 66
1, 231106, Note_off_c, 0, 65, 67
1, 231316, Note_on_c, 0, 41, 60
1, 231322, Note_on_c, 0, 53, 57
1, 231324, Note_on_c, 0, 69, 64
1, 231371, Note_off_c, 0, 69, 51
1, 231435, Note_on_c, 0, 70, 67
1, 231469, Note_off_c, 0, 70, 58
1, 231552, Control_c, 0, 64, 11
1, 231564, Note_on_c, 0, 71, 71
1, 231567, Control_c, 0, 64, 19
1, 231582, Control_c, 0, 64, 23
1, 231597, Control_c, 0, 64, 24
1, 231612, Control_c, 0, 64, 26
1, 231621, Note_off_c, 0, 71, 63
1, 231680, Note_on_c, 0, 72, 82
1, 231723, Note_off_c, 0, 72, 63
1, 231724, Note_off_c, 0, 41, 56
1, 231728, Note_off_c, 0, 53, 64
1, 231775, Control_c, 0, 64, 27
1, 231801, Note_on_c, 0, 73, 86
1, 231804, Control_c, 0, 64, 29
1, 231819, Control_c, 0, 64, 31
1, 231834, Control_c, 0, 64, 33
1, 231849, Control_c, 0, 64, 35
1, 231855, Note_off_c, 0, 73, 62
1, 231878, Control_c, 0, 64, 36
1, 231893, Control_c, 0, 64, 36
1, 231908, Control_c, 0, 64, 37
1, 231912, Note_on_c, 0, 74, 87
1, 231923, Control_c, 0, 64, 38
1, 231968, Note_off_c, 0, 74, 66
1, 232034, Control_c, 0, 64, 38
1, 232038, Note_on_c, 0, 75, 82
1, 232040, Note_on_c, 0, 41, 64
1, 232045, Note_on_c, 0, 53, 65
1, 232049, Control_c, 0, 64, 39
1, 232063, Control_c, 0, 64, 41
1, 232078, Control_c, 0, 64, 43
1, 232093, Control_c, 0, 64, 45
1, 232108, Note_off_c, 0, 75, 61
1, 232108, Control_c, 0, 64, 46
1, 232123, Control_c, 0, 64, 47
1, 232139, Control_c, 0, 64, 47
1, 232154, Control_c, 0, 64, 48
1, 232154, Control_c, 0, 67, 126
1, 232157, Note_on_c, 0, 76, 82
1, 232168, Control_c, 0, 64, 49
1, 232168, Control_c, 0, 67, 123
1, 232183, Control_c, 0, 64, 50
1, 232183, Control_c, 0, 67, 120
1, 232198, Control_c, 0, 64, 51
1, 232198, Control_c, 0, 67, 116
1, 232213, Control_c, 0, 64, 52
1, 232213, Control_c, 0, 67, 112
1, 232216, Note_off_c, 0, 76, 63
1, 232228, Control_c, 0, 64, 52
1, 232228, Control_c, 0, 67, 108
1, 232242, Control_c, 0, 64, 53
1, 232242, Control_c, 0, 67, 104
1, 232257, Control_c, 0, 67, 100
1, 232266, Note_on_c, 0, 77, 89
1, 232272, Control_c, 0, 64, 53
1, 232272, Control_c, 0, 67, 95
1, 232287, Control_c, 0, 67, 90
1, 232301, Control_c, 0, 64, 54
1, 232301, Control_c, 0, 67, 84
1, 232316, Note_off_c, 0, 77, 63
1, 232316, Control_c, 0, 64, 54
1, 232316, Control_c, 0, 67, 78
1, 232331, Control_c, 0, 64, 55
1, 232331, Control_c, 0, 67, 70
1, 232346, Control_c, 0, 64, 55
1, 232346, Control_c, 0, 67, 61
1, 232361, Control_c, 0, 64, 56
1, 232361, Control_c, 0, 67, 52
1, 232375, Control_c, 0, 67, 41
1, 232383, Note_on_c, 0, 78, 89
1, 232390, Control_c, 0, 64, 57
1, 232390, Control_c, 0, 67, 30
1, 232405, Control_c, 0, 64, 58
1, 232405, Control_c, 0, 67, 19
1, 232419, Control_c, 0, 64, 58
1, 232419, Control_c, 0, 67, 0
1, 232432, Note_off_c, 0, 78, 63
1, 232434, Control_c, 0, 64, 59
1, 232449, Control_c, 0, 64, 59
1, 232464, Control_c, 0, 64, 60
1, 232479, Control_c, 0, 64, 61
1, 232504, Note_on_c, 0, 79, 91
1, 232509, Control_c, 0, 64, 61
1, 232523, Control_c, 0, 64, 62
1, 232538, Control_c, 0, 64, 62
1, 232547, Note_off_c, 0, 41, 59
1, 232553, Note_off_c, 0, 79, 64
1, 232554, Control_c, 0, 64, 63
1, 232583, Control_c, 0, 64, 63
1, 232595, Note_off_c, 0, 53, 66
1, 232613, Control_c, 0, 64, 64
1, 232628, Note_on_c, 0, 80, 87
1, 232658, Control_c, 0, 64, 64
1, 232679, Note_off_c, 0, 80, 64
1, 232799, Note_on_c, 0, 81, 83
1, 233317, Control_c, 0, 64, 63
1, 233328, Note_on_c, 0, 54, 67
1, 233332, Control_c, 0, 64, 61
1, 233338, Note_on_c, 0, 42, 64
1, 233347, Control_c, 0, 64, 49
1, 233362, Control_c, 0, 64, 0
1, 233501, Note_off_c, 0, 81, 50
1, 233562, Control_c, 0, 64, 59
1, 233577, Control_c, 0, 64, 66
1, 233591, Control_c, 0, 64, 73
1, 233606, Control_c, 0, 64, 84
1, 233621, Control_c, 0, 64, 98
1, 233636, Control_c, 0, 64, 119
1, 233650, Control_c, 0, 64, 127
1, 233733, Note_off_c, 0, 42, 63
1, 233747, Note_off_c, 0, 54, 63
1, 234011, Note_on_c, 0, 43, 67
1, 234012, Note_on_c, 0, 55, 67
1, 234066, Control_c, 0, 64, 126
1, 234081, Control_c, 0, 64, 108
1, 234096, Control_c, 0, 64, 101
1, 234111, Control_c, 0, 64, 95
1, 234126, Control_c, 0, 64, 90
1, 234140, Control_c, 0, 64, 84
1, 234155, Control_c, 0, 64, 79
1, 234170, Control_c, 0, 64, 73
1, 234184, Control_c, 0, 64, 67
1, 234199, Control_c, 0, 64, 63
1, 234214, Control_c, 0, 64, 62
1, 234244, Control_c, 0, 64, 61
1, 234272, Note_on_c, 0, 88, 70
1, 234281, Control_c, 0, 64, 61
1, 234296, Control_c, 0, 64, 60
1, 234452, Note_on_c, 0, 86, 77
1, 234576, Note_on_c, 0, 84, 81
1, 234585, Note_off_c, 0, 88, 57
1, 234697, Control_c, 0, 64, 60
1, 234704, Note_on_c, 0, 83, 86
1, 234711, Note_off_c, 0, 86, 62
1, 234711, Control_c, 0, 64, 59
1, 234726, Control_c, 0, 64, 59
1, 234741, Control_c, 0, 64, 58
1, 234756, Control_c, 0, 64, 57
1, 234771, Note_off_c, 0, 84, 42
1, 234771, Control_c, 0, 64, 56
1, 234786, Control_c, 0, 64, 55
1, 234801, Control_c, 0, 64, 53
1, 234815, Control_c, 0, 64, 52
1, 234823, Note_off_c, 0, 83, 66
1, 234825, Note_on_c, 0, 81, 85
1, 234830, Control_c, 0, 64, 51
1, 234845, Control_c, 0, 64, 51
1, 234958, Note_on_c, 0, 78, 83
1, 234962, Note_off_c, 0, 81, 63
1, 235080, Note_off_c, 0, 78, 64
1, 235082, Note_on_c, 0, 79, 78
1, 235212, Note_on_c, 0, 80, 77
1, 235254, Note_off_c, 0, 79, 59
1, 235372, Control_c, 0, 67, 8
1, 235408, Note_on_c, 0, 83, 72
1, 235431, Control_c, 0, 67, 8
1, 235440, Note_off_c, 0, 80, 62
1, 235460, Control_c, 0, 67, 9
1, 235580, Note_on_c, 0, 81, 69
1, 235677, Note_off_c, 0, 83, 53
1, 235699, Note_on_c, 0, 76, 72
1, 235708, Note_off_c, 0, 81, 62
1, 235764, Control_c, 0, 67, 9
1, 235819, Note_off_c, 0, 76, 62
1, 235831, Note_on_c, 0, 79, 73
1, 235936, Note_off_c, 0, 79, 62
1, 235941, Note_on_c, 0, 77, 74
1, 236060, Control_c, 0, 67, 10
1, 236068, Note_on_c, 0, 78, 80
1, 236109, Note_off_c, 0, 77, 59
1, 236119, Control_c, 0, 67, 10
1, 236150, Control_c, 0, 67, 11
1, 236165, Control_c, 0, 64, 50
1, 236180, Control_c, 0, 64, 50
1, 236180, Control_c, 0, 67, 11
1, 236195, Control_c, 0, 64, 49
1, 236205, Note_on_c, 0, 81, 77
1, 236209, Control_c, 0, 64, 49
1, 236209, Control_c, 0, 67, 14
1, 236224, Note_off_c, 0, 78, 62
1, 236224, Control_c, 0, 64, 47
1, 236224, Control_c, 0, 67, 17
1, 236239, Control_c, 0, 64, 45
1, 236239, Control_c, 0, 67, 19
1, 236254, Control_c, 0, 64, 44
1, 236254, Control_c, 0, 67, 21
1, 236268, Control_c, 0, 64, 43
1, 236268, Control_c, 0, 67, 24
1, 236283, Control_c, 0, 64, 41
1, 236283, Control_c, 0, 67, 26
1, 236298, Control_c, 0, 64, 38
1, 236298, Control_c, 0, 67, 29
1, 236313, Control_c, 0, 64, 36
1, 236313, Control_c, 0, 67, 32
1, 236326, Note_on_c, 0, 79, 78
1, 236328, Control_c, 0, 64, 34
1, 236328, Control_c, 0, 67, 35
1, 236342, Control_c, 0, 64, 32
1, 236342, Control_c, 0, 67, 39
1, 236357, Control_c, 0, 64, 29
1, 236357, Control_c, 0, 67, 44
1, 236372, Control_c, 0, 64, 27
1, 236372, Control_c, 0, 67, 47
1, 236384, Note_off_c, 0, 81, 54
1, 236387, Control_c, 0, 64, 26
1, 236387, Control_c, 0, 67, 50
1, 236402, Control_c, 0, 64, 24
1, 236402, Control_c, 0, 67, 54
1, 236417, Control_c, 0, 64, 23
1, 236417, Control_c, 0, 67, 57
1, 236431, Control_c, 0, 67, 60
1, 236437, Note_off_c, 0, 79, 63
1, 236446, Control_c, 0, 64, 21
1, 236446, Control_c, 0, 67, 63
1, 236451, Note_on_c, 0, 74, 73
1, 236461, Control_c, 0, 67, 67
1, 236476, Control_c, 0, 64, 19
1, 236476, Control_c, 0, 67, 69
1, 236491, Control_c, 0, 67, 71
1, 236513, Control_c, 0, 67, 72
1, 236528, Control_c, 0, 64, 17
1, 236616, Note_on_c, 0, 77, 62
1, 236628, Note_off_c, 0, 74, 56
1, 236676, Control_c, 0, 67, 71
1, 236691, Control_c, 0, 67, 71
1, 236735, Control_c, 0, 67, 70
1, 236756, Note_on_c, 0, 76, 70
1, 236765, Control_c, 0, 67, 70
1, 236792, Note_off_c, 0, 77, 60
1, 236794, Control_c, 0, 67, 69
1, 236841, Note_off_c, 0, 76, 63
1, 236863, Note_on_c, 0, 71, 69
1, 236973, Control_c, 0, 67, 70
1, 236988, Control_c, 0, 64, 14
1, 236996, Note_off_c, 0, 71, 62
1, 237001, Note_on_c, 0, 74, 62
1, 237003, Control_c, 0, 67, 70
1, 237017, Control_c, 0, 67, 71
1, 237032, Control_c, 0, 64, 11
1, 237047, Control_c, 0, 67, 72
1, 237062, Control_c, 0, 64, 0
1, 237077, Control_c, 0, 67, 72
1, 237091, Control_c, 0, 67, 73
1, 237106, Control_c, 0, 67, 73
1, 237117, Note_on_c, 0, 72, 64
1, 237121, Control_c, 0, 67, 74
1, 237136, Control_c, 0, 67, 75
1, 237151, Control_c, 0, 67, 78
1, 237157, Note_off_c, 0, 74, 55
1, 237165, Control_c, 0, 67, 82
1, 237180, Control_c, 0, 67, 85
1, 237195, Control_c, 0, 67, 87
1, 237209, Control_c, 0, 67, 89
1, 237224, Control_c, 0, 67, 92
1, 237239, Control_c, 0, 67, 94
1, 237259, Note_on_c, 0, 66, 59
1, 237262, Control_c, 0, 67, 98
1, 237271, Note_off_c, 0, 72, 58
1, 237277, Control_c, 0, 67, 101
1, 237291, Control_c, 0, 67, 106
1, 237306, Control_c, 0, 67, 110
1, 237321, Control_c, 0, 67, 114
1, 237336, Control_c, 0, 67, 118
1, 237351, Control_c, 0, 67, 122
1, 237365, Control_c, 0, 67, 127
1, 237371, Note_off_c, 0, 66, 61
1, 237380, Control_c, 0, 67, 127
1, 237387, Note_on_c, 0, 69, 59
1, 237503, Note_off_c, 0, 69, 60
1, 237513, Note_on_c, 0, 67, 59
1, 237540, Note_off_c, 0, 43, 50
1, 237560, Note_off_c, 0, 55, 51
1, 237645, Note_off_c, 0, 67, 56
1, 237646, Note_on_c, 0, 68, 60
1, 237778, Note_off_c, 0, 68, 59
1, 237794, Note_on_c, 0, 71, 55
1, 237931, Note_on_c, 0, 69, 55
1, 237990, Note_off_c, 0, 71, 40
1, 238059, Note_off_c, 0, 69, 60
1, 238092, Note_on_c, 0, 65, 46
1, 238355, Note_on_c, 0, 62, 37
1, 238366, Control_c, 0, 64, 19
1, 238366, Note_off_c, 0, 65, 53
1, 238381, Control_c, 0, 64, 30
1, 238396, Control_c, 0, 64, 38
1, 238411, Control_c, 0, 64, 45
1, 238426, Control_c, 0, 64, 50
1, 238440, Control_c, 0, 64, 53
1, 238455, Control_c, 0, 64, 57
1, 238470, Control_c, 0, 64, 60
1, 238470, Note_off_c, 0, 62, 59
1, 238485, Control_c, 0, 64, 62
1, 238494, Note_on_c, 0, 64, 49
1, 238500, Control_c, 0, 64, 64
1, 238514, Control_c, 0, 64, 65
1, 238530, Control_c, 0, 64, 67
1, 238539, Note_off_c, 0, 64, 63
1, 238545, Control_c, 0, 64, 69
1, 238560, Control_c, 0, 64, 70
1, 238575, Note_on_c, 0, 62, 44
1, 238575, Control_c, 0, 64, 72
1, 238590, Control_c, 0, 64, 73
1, 238605, Control_c, 0, 64, 75
1, 238619, Note_off_c, 0, 62, 60
1, 238619, Control_c, 0, 64, 77
1, 238634, Control_c, 0, 64, 79
1, 238649, Note_on_c, 0, 64, 42
1, 238649, Control_c, 0, 64, 80
1, 238664, Control_c, 0, 64, 82
1, 238676, Note_off_c, 0, 64, 60
1, 238679, Control_c, 0, 64, 84
1, 238694, Control_c, 0, 64, 86
1, 238709, Control_c, 0, 64, 88
1, 238715, Note_on_c, 0, 62, 46
1, 238724, Control_c, 0, 64, 91
1, 238737, Note_off_c, 0, 62, 60
1, 238738, Control_c, 0, 64, 94
1, 238760, Control_c, 0, 64, 97
1, 238766, Note_on_c, 0, 64, 65
1, 238775, Control_c, 0, 64, 101
1, 238789, Control_c, 0, 64, 106
1, 238798, Note_off_c, 0, 64, 65
1, 238804, Control_c, 0, 64, 112
1, 238818, Note_on_c, 0, 62, 60
1, 238819, Control_c, 0, 64, 124
1, 238834, Control_c, 0, 64, 127
1, 238864, Note_off_c, 0, 62, 57
1, 238874, Note_on_c, 0, 64, 64
1, 238918, Note_off_c, 0, 64, 57
1, 238951, Note_on_c, 0, 62, 51
1, 238982, Note_off_c, 0, 62, 61
1, 239001, Note_on_c, 0, 64, 51
1, 239025, Note_off_c, 0, 64, 66
1, 239063, Note_on_c, 0, 62, 53
1, 239090, Note_off_c, 0, 62, 63
1, 239097, Note_on_c, 0, 64, 71
1, 239145, Note_off_c, 0, 64, 60
1, 239168, Note_on_c, 0, 62, 62
1, 239210, Note_off_c, 0, 62, 59
1, 239224, Note_on_c, 0, 64, 60
1, 239270, Note_off_c, 0, 64, 60
1, 239291, Note_on_c, 0, 62, 61
1, 239337, Note_off_c, 0, 62, 55
1, 239356, Note_on_c, 0, 64, 61
1, 239397, Note_off_c, 0, 64, 63
1, 239421, Note_on_c, 0, 62, 64
1, 239460, Note_off_c, 0, 62, 60
1, 239481, Note_on_c, 0, 64, 63
1, 239530, Note_off_c, 0, 64, 63
1, 239561, Note_on_c, 0, 62, 63
1, 239600, Note_off_c, 0, 62, 61
1, 239610, Note_on_c, 0, 64, 64
1, 239655, Note_off_c, 0, 64, 62
1, 239682, Note_on_c, 0, 62, 62
1, 239719, Note_off_c, 0, 62, 61
1, 239734, Note_on_c, 0, 64, 64
1, 239790, Note_off_c, 0, 64, 63
1, 239810, Note_on_c, 0, 62, 65
1, 239859, Note_off_c, 0, 62, 52
1, 239874, Note_on_c, 0, 64, 59
1, 239934, Note_on_c, 0, 53, 60
1, 239936, Note_on_c, 0, 43, 51
1, 239937, Note_off_c, 0, 64, 63
1, 239943, Note_on_c, 0, 47, 55
1, 239961, Note_on_c, 0, 62, 56
1, 240002, Note_off_c, 0, 62, 60
1, 240024, Note_on_c, 0, 64, 58
1, 240068, Note_off_c, 0, 64, 64
1, 240094, Note_on_c, 0, 62, 63
1, 240101, Control_c, 0, 67, 126
1, 240116, Control_c, 0, 67, 123
1, 240117, Note_off_c, 0, 53, 64
1, 240118, Note_off_c, 0, 43, 54
1, 240131, Control_c, 0, 67, 121
1, 240132, Note_off_c, 0, 62, 57
1, 240146, Control_c, 0, 67, 118
1, 240147, Note_off_c, 0, 47, 64
1, 240153, Note_on_c, 0, 64, 66
1, 240161, Control_c, 0, 67, 116
1, 240175, Control_c, 0, 67, 115
1, 240190, Control_c, 0, 67, 113
1, 240196, Note_off_c, 0, 64, 62
1, 240205, Control_c, 0, 67, 112
1, 240220, Control_c, 0, 67, 112
1, 240227, Note_on_c, 0, 62, 67
1, 240235, Control_c, 0, 67, 111
1, 240257, Control_c, 0, 67, 111
1, 240262, Note_off_c, 0, 62, 62
1, 240284, Note_on_c, 0, 64, 63
1, 240340, Note_off_c, 0, 64, 63
1, 240359, Note_on_c, 0, 62, 70
1, 240405, Note_off_c, 0, 62, 57
1, 240405, Control_c, 0, 67, 110
1, 240417, Note_on_c, 0, 64, 66
1, 240435, Control_c, 0, 67, 110
1, 240441, Note_on_c, 0, 53, 65
1, 240441, Note_on_c, 0, 43, 52
1, 240450, Note_on_c, 0, 47, 55
1, 240450, Control_c, 0, 67, 109
1, 240465, Control_c, 0, 67, 108
1, 240471, Note_off_c, 0, 64, 63
1, 240479, Control_c, 0, 67, 106
1, 240487, Note_on_c, 0, 62, 67
1, 240494, Control_c, 0, 67, 102
1, 240509, Control_c, 0, 67, 99
1, 240524, Control_c, 0, 67, 96
1, 240536, Note_off_c, 0, 62, 57
1, 240539, Control_c, 0, 67, 93
1, 240544, Note_on_c, 0, 64, 65
1, 240553, Control_c, 0, 67, 88
1, 240568, Control_c, 0, 67, 84
1, 240583, Control_c, 0, 67, 80
1, 240591, Note_off_c, 0, 64, 63
1, 240598, Control_c, 0, 67, 74
1, 240605, Note_on_c, 0, 62, 69
1, 240610, Note_off_c, 0, 53, 65
1, 240613, Control_c, 0, 67, 68
1, 240627, Control_c, 0, 67, 62
1, 240630, Note_off_c, 0, 43, 50
1, 240640, Note_off_c, 0, 47, 64
1, 240642, Control_c, 0, 67, 57
1, 240657, Control_c, 0, 67, 51
1, 240658, Note_off_c, 0, 62, 60
1, 240669, Note_on_c, 0, 64, 68
1, 240672, Control_c, 0, 67, 47
1, 240687, Control_c, 0, 67, 43
1, 240701, Control_c, 0, 67, 39
1, 240703, Note_off_c, 0, 64, 65
1, 240716, Control_c, 0, 67, 35
1, 240721, Note_on_c, 0, 62, 60
1, 240731, Control_c, 0, 67, 31
1, 240746, Control_c, 0, 67, 27
1, 240760, Control_c, 0, 67, 24
1, 240775, Control_c, 0, 67, 21
1, 240782, Note_off_c, 0, 62, 59
1, 240790, Control_c, 0, 67, 19
1, 240793, Note_on_c, 0, 64, 66
1, 240805, Control_c, 0, 67, 18
1, 240820, Control_c, 0, 67, 18
1, 240822, Note_off_c, 0, 64, 65
1, 240849, Control_c, 0, 67, 17
1, 240852, Note_on_c, 0, 62, 46
1, 240888, Note_on_c, 0, 64, 66
1, 240904, Note_off_c, 0, 62, 0
1, 240918, Note_off_c, 0, 64, 64
1, 240919, Note_on_c, 0, 53, 57
1, 240923, Note_on_c, 0, 47, 54
1, 240929, Note_on_c, 0, 43, 41
1, 240942, Poly_aftertouch_c, 0, 62, 127
1, 240973, Poly_aftertouch_c, 0, 62, 0
1, 240986, Note_on_c, 0, 64, 70
1, 241034, Note_off_c, 0, 64, 62
1, 241046, Note_on_c, 0, 62, 58
1, 241080, Control_c, 0, 67, 18
1, 241082, Note_on_c, 0, 64, 61
1, 241086, Note_off_c, 0, 62, 60
1, 241110, Control_c, 0, 67, 18
1, 241125, Control_c, 0, 67, 19
1, 241141, Note_off_c, 0, 64, 56
1, 241144, Note_on_c, 0, 62, 61
1, 241151, Note_off_c, 0, 53, 62
1, 241169, Control_c, 0, 67, 19
1, 241171, Note_on_c, 0, 64, 52
1, 241179, Note_off_c, 0, 62, 58
1, 241228, Control_c, 0, 67, 20
1, 241252, Note_on_c, 0, 62, 67
1, 241258, Control_c, 0, 67, 20
1, 241259, Note_off_c, 0, 64, 60
1, 241302, Control_c, 0, 67, 21
1, 241332, Control_c, 0, 67, 21
1, 241362, Control_c, 0, 67, 22
1, 241384, Note_off_c, 0, 62, 60
1, 241396, Note_on_c, 0, 60, 62
1, 241406, Control_c, 0, 67, 22
1, 241436, Control_c, 0, 67, 23
1, 241489, Note_off_c, 0, 60, 63
1, 241495, Control_c, 0, 67, 23
1, 241496, Note_on_c, 0, 62, 69
1, 241538, Control_c, 0, 67, 24
1, 241568, Control_c, 0, 67, 24
1, 241612, Control_c, 0, 67, 25
1, 241627, Control_c, 0, 64, 112
1, 241642, Control_c, 0, 64, 102
1, 241656, Control_c, 0, 64, 93
1, 241656, Control_c, 0, 67, 25
1, 241671, Control_c, 0, 64, 83
1, 241676, Note_on_c, 0, 60, 65
1, 241686, Control_c, 0, 64, 74
1, 241688, Note_on_c, 0, 48, 43
1, 241697, Note_on_c, 0, 52, 38
1, 241701, Control_c, 0, 64, 66
1, 241716, Control_c, 0, 64, 53
1, 241731, Control_c, 0, 64, 36
1, 241753, Control_c, 0, 64, 31
1, 241753, Control_c, 0, 67, 26
1, 241768, Control_c, 0, 64, 0
1, 241785, Note_off_c, 0, 62, 48
1, 241798, Control_c, 0, 67, 26
1, 241812, Control_c, 0, 67, 27
1, 241815, Note_off_c, 0, 43, 34
1, 241827, Control_c, 0, 67, 27
1, 241836, Note_off_c, 0, 47, 51
1, 241842, Control_c, 0, 67, 28
1, 241857, Control_c, 0, 67, 28
1, 241872, Control_c, 0, 67, 29
1, 241886, Control_c, 0, 67, 30
1, 241901, Control_c, 0, 67, 31
1, 241916, Control_c, 0, 67, 34
1, 241931, Control_c, 0, 67, 37
1, 241946, Control_c, 0, 67, 41
1, 241961, Control_c, 0, 67, 45
1, 241976, Control_c, 0, 67, 50
1, 241991, Control_c, 0, 67, 56
1, 242005, Control_c, 0, 67, 62
1, 242020, Control_c, 0, 67, 70
1, 242035, Control_c, 0, 67, 77
1, 242050, Control_c, 0, 67, 86
1, 242065, Control_c, 0, 67, 94
1, 242079, Control_c, 0, 67, 102
1, 242094, Control_c, 0, 67, 110
1, 242109, Control_c, 0, 67, 120
1, 242124, Control_c, 0, 67, 127
1, 242317, Control_c, 0, 64, 27
1, 242332, Control_c, 0, 64, 40
1, 242346, Control_c, 0, 64, 48
1, 242361, Control_c, 0, 64, 52
1, 242376, Control_c, 0, 64, 56
1, 242390, Control_c, 0, 64, 59
1, 242405, Control_c, 0, 64, 61
1, 242420, Control_c, 0, 64, 63
1, 242435, Control_c, 0, 64, 64
1, 242450, Control_c, 0, 64, 65
1, 242465, Control_c, 0, 64, 66
1, 242480, Control_c, 0, 64, 68
1, 242502, Control_c, 0, 64, 69
1, 242517, Control_c, 0, 64, 70
1, 242533, Control_c, 0, 64, 72
1, 242548, Control_c, 0, 64, 74
1, 242563, Control_c, 0, 64, 76
1, 242577, Control_c, 0, 64, 77
1, 242592, Control_c, 0, 64, 79
1, 242607, Control_c, 0, 64, 81
1, 242622, Control_c, 0, 64, 83
1, 242636, Control_c, 0, 64, 85
1, 242651, Control_c, 0, 64, 87
1, 242662, Note_off_c, 0, 52, 34
1, 242666, Control_c, 0, 64, 89
1, 242681, Control_c, 0, 64, 91
1, 242696, Control_c, 0, 64, 93
1, 242710, Control_c, 0, 64, 95
1, 242725, Control_c, 0, 64, 98
1, 242740, Control_c, 0, 64, 100
1, 242755, Control_c, 0, 64, 103
1, 242770, Control_c, 0, 64, 105
1, 242778, Note_off_c, 0, 48, 31
1, 242784, Control_c, 0, 64, 108
1, 242799, Control_c, 0, 64, 112
1, 242814, Control_c, 0, 64, 116
1, 242828, Control_c, 0, 64, 127
1, 242884, Note_off_c, 0, 60, 54
1, 242892, Note_on_c, 0, 62, 44
1, 243020, Note_off_c, 0, 62, 57
1, 243025, Note_on_c, 0, 60, 54
1, 243092, Note_off_c, 0, 60, 61
1, 243124, Note_on_c, 0, 59, 47
1, 243153, Note_off_c, 0, 59, 62
1, 243185, Note_on_c, 0, 60, 60
1, 243214, Control_c, 0, 64, 115
1, 243218, Note_off_c, 0, 60, 65
1, 243228, Control_c, 0, 64, 108
1, 243251, Control_c, 0, 64, 101
1, 243266, Control_c, 0, 64, 95
1, 243273, Note_on_c, 0, 62, 21
1, 243281, Control_c, 0, 64, 89
1, 243295, Control_c, 0, 64, 83
1, 243305, Note_on_c, 0, 64, 61
1, 243310, Control_c, 0, 64, 77
1, 243312, Note_off_c, 0, 62, 41
1, 243326, Control_c, 0, 64, 71
1, 243326, Note_off_c, 0, 64, 65
1, 243341, Control_c, 0, 64, 65
1, 243356, Control_c, 0, 64, 62
1, 243362, Note_on_c, 0, 65, 65
1, 243370, Control_c, 0, 64, 61
1, 243392, Note_off_c, 0, 65, 64
1, 243400, Control_c, 0, 64, 60
1, 243415, Control_c, 0, 64, 59
1, 243416, Note_on_c, 0, 67, 72
1, 243430, Control_c, 0, 64, 58
1, 243445, Control_c, 0, 64, 57
1, 243459, Control_c, 0, 64, 56
1, 243470, Note_on_c, 0, 69, 65
1, 243472, Note_off_c, 0, 67, 62
1, 243474, Control_c, 0, 64, 56
1, 243489, Control_c, 0, 64, 55
1, 243504, Control_c, 0, 64, 54
1, 243517, Note_off_c, 0, 69, 61
1, 243519, Control_c, 0, 64, 53
1, 243522, Note_on_c, 0, 71, 65
1, 243533, Control_c, 0, 64, 51
1, 243538, Note_off_c, 0, 71, 67
1, 243548, Control_c, 0, 64, 47
1, 243563, Control_c, 0, 64, 39
1, 243577, Control_c, 0, 64, 26
1, 243589, Note_on_c, 0, 72, 60
1, 243592, Control_c, 0, 64, 0
1, 243633, Note_off_c, 0, 72, 60
1, 243663, Note_on_c, 0, 74, 63
1, 243770, Note_on_c, 0, 76, 50
1, 243789, Note_off_c, 0, 74, 58
1, 244015, Control_c, 0, 64, 40
1, 244030, Control_c, 0, 64, 57
1, 244045, Control_c, 0, 64, 64
1, 244059, Control_c, 0, 64, 67
1, 244074, Control_c, 0, 64, 70
1, 244089, Control_c, 0, 64, 72
1, 244104, Control_c, 0, 64, 75
1, 244119, Control_c, 0, 64, 78
1, 244134, Control_c, 0, 64, 81
1, 244149, Control_c, 0, 64, 85
1, 244164, Control_c, 0, 64, 89
1, 244179, Control_c, 0, 64, 93
1, 244193, Control_c, 0, 64, 96
1, 244208, Control_c, 0, 64, 100
1, 244223, Control_c, 0, 64, 105
1, 244238, Control_c, 0, 64, 110
1, 244253, Control_c, 0, 64, 118
1, 244267, Control_c, 0, 64, 127
1, 244507, Note_off_c, 0, 76, 58
1, 244542, Note_on_c, 0, 77, 47
1, 244636, Note_on_c, 0, 76, 54
1, 244653, Control_c, 0, 64, 113
1, 244656, Note_off_c, 0, 77, 50
1, 244667, Control_c, 0, 64, 104
1, 244682, Control_c, 0, 64, 97
1, 244697, Control_c, 0, 64, 91
1, 244712, Control_c, 0, 64, 86
1, 244719, Note_off_c, 0, 76, 58
1, 244726, Control_c, 0, 64, 79
1, 244729, Note_on_c, 0, 74, 54
1, 244748, Control_c, 0, 64, 73
1, 244763, Control_c, 0, 64, 66
1, 244778, Control_c, 0, 64, 60
1, 244793, Control_c, 0, 64, 56
1, 244812, Note_off_c, 0, 74, 61
1, 244830, Note_on_c, 0, 76, 55
1, 244838, Control_c, 0, 64, 55
1, 244852, Control_c, 0, 64, 53
1, 244867, Control_c, 0, 64, 51
1, 244882, Control_c, 0, 64, 50
1, 244897, Control_c, 0, 64, 50
1, 244909, Note_off_c, 0, 76, 59
1, 244912, Control_c, 0, 64, 49
1, 244927, Control_c, 0, 64, 49
1, 244942, Control_c, 0, 64, 48
1, 244957, Control_c, 0, 64, 48
1, 244972, Control_c, 0, 64, 47
1, 244987, Control_c, 0, 64, 46
1, 245002, Control_c, 0, 64, 44
1, 245016, Control_c, 0, 64, 43
1, 245031, Control_c, 0, 64, 42
1, 245046, Control_c, 0, 64, 40
1, 245061, Control_c, 0, 64, 38
1, 245076, Control_c, 0, 64, 36
1, 245091, Control_c, 0, 64, 33
1, 245097, Note_on_c, 0, 77, 40
1, 245105, Control_c, 0, 64, 29
1, 245120, Control_c, 0, 64, 27
1, 245135, Control_c, 0, 64, 24
1, 245149, Control_c, 0, 64, 23
1, 245164, Control_c, 0, 64, 21
1, 245171, Note_off_c, 0, 77, 59
1, 245365, Note_on_c, 0, 79, 47
1, 245387, Control_c, 0, 64, 19
1, 245448, Note_off_c, 0, 79, 55
1, 245674, Note_on_c, 0, 81, 44
1, 245779, Note_off_c, 0, 81, 58
1, 245810, Control_c, 0, 64, 21
1, 245929, Control_c, 0, 64, 23
1, 246032, Control_c, 0, 64, 24
1, 246179, Note_on_c, 0, 82, 41
1, 246179, Control_c, 0, 64, 26
1, 246224, Control_c, 0, 64, 27
1, 246276, Control_c, 0, 64, 28
1, 246306, Control_c, 0, 64, 29
1, 246320, Control_c, 0, 64, 31
1, 246335, Control_c, 0, 64, 34
1, 246350, Control_c, 0, 64, 37
1, 246365, Control_c, 0, 64, 40
1, 246379, Control_c, 0, 64, 42
1, 246394, Control_c, 0, 64, 44
1, 246409, Control_c, 0, 64, 47
1, 246424, Control_c, 0, 64, 49
1, 246439, Control_c, 0, 64, 53
1, 246453, Control_c, 0, 64, 55
1, 246468, Control_c, 0, 64, 58
1, 246483, Control_c, 0, 64, 59
1, 246498, Control_c, 0, 64, 61
1, 246513, Control_c, 0, 64, 62
1, 246529, Control_c, 0, 64, 63
1, 246543, Control_c, 0, 64, 64
1, 246558, Control_c, 0, 64, 65
1, 246573, Control_c, 0, 64, 66
1, 246588, Control_c, 0, 64, 68
1, 246602, Control_c, 0, 64, 69
1, 246617, Control_c, 0, 64, 70
1, 246632, Control_c, 0, 64, 72
1, 246647, Control_c, 0, 64, 74
1, 246662, Control_c, 0, 64, 76
1, 246677, Control_c, 0, 64, 78
1, 246692, Control_c, 0, 64, 80
1, 246707, Control_c, 0, 64, 82
1, 246722, Control_c, 0, 64, 86
1, 246736, Control_c, 0, 64, 89
1, 246751, Control_c, 0, 64, 91
1, 246766, Control_c, 0, 64, 94
1, 246781, Control_c, 0, 64, 97
1, 246795, Control_c, 0, 64, 100
1, 246810, Control_c, 0, 64, 105
1, 246825, Control_c, 0, 64, 110
1, 246840, Control_c, 0, 64, 117
1, 246855, Control_c, 0, 64, 127
1, 247173, Note_off_c, 0, 82, 41
1, 247981, Control_c, 0, 64, 114
1, 247996, Control_c, 0, 64, 100
1, 248010, Control_c, 0, 64, 87
1, 248025, Control_c, 0, 64, 75
1, 248040, Control_c, 0, 64, 63
1, 248055, Control_c, 0, 64, 0
1, 248115, Control_c, 0, 67, 118
1, 248130, Control_c, 0, 67, 106
1, 248145, Control_c, 0, 67, 88
1, 248160, Control_c, 0, 67, 73
1, 248174, Control_c, 0, 67, 59
1, 248189, Control_c, 0, 67, 47
1, 248204, Control_c, 0, 67, 38
1, 248219, Control_c, 0, 64, 32
1, 248219, Control_c, 0, 67, 31
1, 248234, Control_c, 0, 64, 44
1, 248234, Control_c, 0, 67, 24
1, 248248, Control_c, 0, 64, 53
1, 248248, Control_c, 0, 67, 19
1, 248255, Note_on_c, 0, 53, 53
1, 248263, Control_c, 0, 64, 59
1, 248263, Control_c, 0, 67, 14
1, 248279, Control_c, 0, 64, 62
1, 248279, Control_c, 0, 67, 8
1, 248294, Control_c, 0, 64, 65
1, 248294, Control_c, 0, 67, 0
1, 248295, Note_on_c, 0, 57, 50
1, 248309, Control_c, 0, 64, 68
1, 248323, Control_c, 0, 64, 71
1, 248338, Control_c, 0, 64, 75
1, 248342, Note_on_c, 0, 69, 63
1, 248351, Note_on_c, 0, 60, 57
1, 248353, Control_c, 0, 64, 79
1, 248367, Control_c, 0, 64, 85
1, 248382, Control_c, 0, 64, 90
1, 248385, Note_on_c, 0, 72, 67
1, 248397, Control_c, 0, 64, 96
1, 248412, Control_c, 0, 64, 102
1, 248427, Note_on_c, 0, 65, 56
1, 248427, Control_c, 0, 64, 111
1, 248441, Control_c, 0, 64, 127
1, 248451, Note_on_c, 0, 77, 85
1, 248629, Note_off_c, 0, 69, 48
1, 248685, Note_off_c, 0, 72, 57
1, 249183, Note_off_c, 0, 77, 59
1, 249225, Note_on_c, 0, 79, 52
1, 249312, Note_on_c, 0, 77, 59
1, 249326, Note_off_c, 0, 79, 55
1, 249346, Control_c, 0, 64, 126
1, 249361, Control_c, 0, 64, 108
1, 249376, Control_c, 0, 64, 99
1, 249386, Note_on_c, 0, 76, 68
1, 249390, Control_c, 0, 64, 91
1, 249404, Note_off_c, 0, 77, 47
1, 249405, Control_c, 0, 64, 84
1, 249420, Control_c, 0, 64, 76
1, 249435, Control_c, 0, 64, 68
1, 249450, Control_c, 0, 64, 60
1, 249458, Note_on_c, 0, 77, 56
1, 249464, Note_off_c, 0, 76, 60
1, 249464, Control_c, 0, 64, 50
1, 249479, Control_c, 0, 64, 49
1, 249509, Control_c, 0, 64, 49
1, 249605, Note_off_c, 0, 77, 59
1, 249628, Control_c, 0, 64, 49
1, 249658, Control_c, 0, 64, 50
1, 249708, Note_on_c, 0, 79, 67
1, 249762, Control_c, 0, 64, 50
1, 249830, Note_off_c, 0, 79, 59
1, 249850, Control_c, 0, 64, 51
1, 249936, Note_on_c, 0, 81, 72
1, 250020, Control_c, 0, 64, 52
1, 250050, Control_c, 0, 64, 52
1, 250054, Note_off_c, 0, 81, 60
1, 250065, Control_c, 0, 64, 53
1, 250094, Control_c, 0, 64, 53
1, 250138, Control_c, 0, 67, 8
1, 250153, Control_c, 0, 67, 8
1, 250168, Control_c, 0, 64, 54
1, 250176, Note_on_c, 0, 82, 72
1, 250183, Control_c, 0, 67, 9
1, 250212, Control_c, 0, 67, 9
1, 250227, Control_c, 0, 67, 10
1, 250242, Control_c, 0, 67, 11
1, 250257, Control_c, 0, 67, 11
1, 250267, Note_off_c, 0, 82, 63
1, 250272, Control_c, 0, 67, 12
1, 250287, Control_c, 0, 67, 13
1, 250302, Control_c, 0, 64, 53
1, 250302, Control_c, 0, 67, 13
1, 250316, Control_c, 0, 67, 14
1, 250331, Control_c, 0, 67, 15
1, 250346, Control_c, 0, 64, 53
1, 250346, Control_c, 0, 67, 15
1, 250361, Control_c, 0, 67, 16
1, 250376, Control_c, 0, 64, 52
1, 250391, Control_c, 0, 64, 51
1, 250391, Control_c, 0, 67, 16
1, 250406, Control_c, 0, 64, 51
1, 250420, Control_c, 0, 64, 50
1, 250420, Control_c, 0, 67, 17
1, 250435, Control_c, 0, 64, 50
1, 250447, Note_off_c, 0, 53, 39
1, 250450, Control_c, 0, 64, 49
1, 250450, Control_c, 0, 67, 17
1, 250464, Note_on_c, 0, 83, 56
1, 250465, Control_c, 0, 64, 48
1, 250480, Control_c, 0, 64, 47
1, 250494, Control_c, 0, 64, 46
1, 250494, Control_c, 0, 67, 18
1, 250510, Control_c, 0, 64, 45
1, 250510, Control_c, 0, 67, 19
1, 250525, Control_c, 0, 64, 44
1, 250525, Control_c, 0, 67, 19
1, 250540, Control_c, 0, 64, 43
1, 250540, Control_c, 0, 67, 20
1, 250555, Control_c, 0, 64, 41
1, 250555, Control_c, 0, 67, 20
1, 250569, Control_c, 0, 64, 38
1, 250569, Control_c, 0, 67, 21
1, 250584, Note_off_c, 0, 65, 57
1, 250584, Control_c, 0, 64, 36
1, 250584, Control_c, 0, 67, 22
1, 250597, Note_off_c, 0, 57, 37
1, 250599, Control_c, 0, 64, 32
1, 250599, Control_c, 0, 67, 23
1, 250602, Note_off_c, 0, 60, 54
1, 250614, Control_c, 0, 64, 23
1, 250614, Control_c, 0, 67, 23
1, 250628, Control_c, 0, 64, 0
1, 250628, Control_c, 0, 67, 24
1, 250643, Control_c, 0, 67, 24
1, 250658, Control_c, 0, 67, 25
1, 250673, Control_c, 0, 67, 25
1, 250688, Control_c, 0, 67, 26
1, 250702, Control_c, 0, 67, 26
1, 250717, Control_c, 0, 67, 27
1, 250740, Control_c, 0, 67, 27
1, 250755, Control_c, 0, 67, 28
1, 250769, Control_c, 0, 67, 29
1, 250784, Control_c, 0, 67, 29
1, 250799, Control_c, 0, 67, 30
1, 250814, Control_c, 0, 67, 32
1, 250829, Control_c, 0, 67, 33
1, 250843, Control_c, 0, 67, 34
1, 250858, Control_c, 0, 67, 34
1, 250873, Control_c, 0, 67, 35
1, 250888, Control_c, 0, 67, 36
1, 250903, Control_c, 0, 67, 37
1, 250917, Control_c, 0, 67, 38
1, 250932, Control_c, 0, 67, 39
1, 250945, Note_on_c, 0, 84, 54
1, 250947, Control_c, 0, 67, 40
1, 250961, Control_c, 0, 67, 41
1, 250976, Control_c, 0, 67, 42
1, 250991, Control_c, 0, 67, 43
1, 251006, Control_c, 0, 67, 44
1, 251021, Control_c, 0, 67, 46
1, 251035, Control_c, 0, 67, 47
1, 251050, Control_c, 0, 67, 49
1, 251065, Control_c, 0, 67, 50
1, 251080, Control_c, 0, 67, 52
1, 251094, Control_c, 0, 67, 54
1, 251095, Note_off_c, 0, 83, 63
1, 251109, Control_c, 0, 67, 57
1, 251124, Control_c, 0, 67, 59
1, 251139, Control_c, 0, 67, 61
1, 251154, Control_c, 0, 67, 64
1, 251169, Control_c, 0, 67, 66
1, 251184, Control_c, 0, 67, 69
1, 251199, Control_c, 0, 67, 71
1, 251214, Control_c, 0, 67, 74
1, 251229, Control_c, 0, 67, 77
1, 251243, Control_c, 0, 67, 79
1, 251258, Control_c, 0, 67, 81
1, 251273, Control_c, 0, 67, 84
1, 251288, Control_c, 0, 64, 21
1, 251288, Control_c, 0, 67, 87
1, 251303, Control_c, 0, 64, 28
1, 251303, Control_c, 0, 67, 89
1, 251319, Control_c, 0, 64, 33
1, 251319, Control_c, 0, 67, 92
1, 251333, Control_c, 0, 64, 37
1, 251333, Control_c, 0, 67, 96
1, 251348, Control_c, 0, 64, 40
1, 251348, Control_c, 0, 67, 100
1, 251363, Control_c, 0, 64, 43
1, 251363, Control_c, 0, 67, 103
1, 251378, Control_c, 0, 64, 47
1, 251378, Control_c, 0, 67, 107
1, 251393, Control_c, 0, 64, 50
1, 251393, Control_c, 0, 67, 112
1, 251407, Control_c, 0, 64, 52
1, 251407, Control_c, 0, 67, 118
1, 251418, Note_on_c, 0, 72, 43
1, 251422, Control_c, 0, 64, 54
1, 251422, Control_c, 0, 67, 124
1, 251437, Control_c, 0, 64, 57
1, 251437, Control_c, 0, 67, 127
1, 251452, Control_c, 0, 64, 59
1, 251467, Control_c, 0, 64, 61
1, 251489, Control_c, 0, 64, 63
1, 251494, Note_off_c, 0, 84, 49
1, 251504, Control_c, 0, 64, 64
1, 251518, Control_c, 0, 64, 66
1, 251533, Control_c, 0, 64, 68
1, 251548, Control_c, 0, 64, 70
1, 251563, Control_c, 0, 64, 73
1, 251578, Control_c, 0, 64, 76
1, 251592, Control_c, 0, 64, 79
1, 251607, Control_c, 0, 64, 82
1, 251622, Control_c, 0, 64, 86
1, 251637, Control_c, 0, 64, 90
1, 251652, Control_c, 0, 64, 94
1, 251667, Control_c, 0, 64, 98
1, 251682, Control_c, 0, 64, 102
1, 251697, Control_c, 0, 64, 106
1, 251711, Control_c, 0, 64, 112
1, 251726, Control_c, 0, 64, 124
1, 251741, Control_c, 0, 64, 127
1, 251750, Note_off_c, 0, 72, 59
1, 251973, Note_on_c, 0, 69, 46
1, 251974, Note_on_c, 0, 65, 43
1, 251979, Note_on_c, 0, 72, 52
1, 252151, Note_off_c, 0, 69, 57
1, 252180, Note_off_c, 0, 65, 40
1, 252206, Note_off_c, 0, 72, 61
1, 252453, Note_on_c, 0, 71, 64
1, 252466, Note_on_c, 0, 68, 55
1, 252469, Note_on_c, 0, 65, 46
1, 252519, Control_c, 0, 64, 121
1, 252534, Control_c, 0, 64, 105
1, 252549, Control_c, 0, 64, 96
1, 252564, Control_c, 0, 64, 88
1, 252579, Control_c, 0, 64, 80
1, 252594, Control_c, 0, 64, 71
1, 252608, Control_c, 0, 64, 58
1, 252623, Control_c, 0, 64, 0
1, 252952, Note_on_c, 0, 72, 56
1, 252966, Note_on_c, 0, 69, 48
1, 253034, Note_off_c, 0, 68, 58
1, 253043, Note_off_c, 0, 71, 57
1, 253150, Control_c, 0, 64, 57
1, 253164, Control_c, 0, 64, 66
1, 253178, Note_off_c, 0, 65, 55
1, 253179, Control_c, 0, 64, 73
1, 253194, Control_c, 0, 64, 81
1, 253209, Control_c, 0, 64, 88
1, 253224, Control_c, 0, 64, 94
1, 253238, Control_c, 0, 64, 98
1, 253253, Control_c, 0, 64, 102
1, 253268, Control_c, 0, 64, 104
1, 253282, Control_c, 0, 64, 107
1, 253297, Control_c, 0, 64, 109
1, 253312, Control_c, 0, 64, 109
1, 253402, Control_c, 0, 64, 107
1, 253417, Control_c, 0, 64, 104
1, 253422, Note_on_c, 0, 74, 55
1, 253427, Note_on_c, 0, 65, 36
1, 253431, Note_on_c, 0, 70, 49
1, 253431, Control_c, 0, 64, 98
1, 253446, Control_c, 0, 64, 91
1, 253457, Note_off_c, 0, 72, 56
1, 253461, Control_c, 0, 64, 82
1, 253463, Note_off_c, 0, 69, 44
1, 253476, Control_c, 0, 64, 71
1, 253490, Control_c, 0, 64, 62
1, 253505, Control_c, 0, 64, 42
1, 253520, Control_c, 0, 64, 34
1, 253564, Control_c, 0, 64, 33
1, 253610, Note_off_c, 0, 70, 58
1, 253618, Note_off_c, 0, 74, 62
1, 253682, Control_c, 0, 64, 34
1, 253697, Control_c, 0, 64, 35
1, 253736, Control_c, 0, 64, 36
1, 253750, Control_c, 0, 64, 36
1, 253810, Control_c, 0, 64, 38
1, 253825, Control_c, 0, 64, 38
1, 253840, Control_c, 0, 64, 39
1, 253855, Control_c, 0, 64, 40
1, 253880, Note_on_c, 0, 74, 52
1, 253892, Note_on_c, 0, 70, 42
1, 253943, Control_c, 0, 64, 40
1, 253973, Control_c, 0, 64, 41
1, 254005, Note_off_c, 0, 65, 51
1, 254047, Control_c, 0, 64, 42
1, 254049, Note_off_c, 0, 70, 56
1, 254076, Control_c, 0, 64, 42
1, 254081, Note_off_c, 0, 74, 57
1, 254091, Control_c, 0, 64, 43
1, 254105, Control_c, 0, 64, 43
1, 254120, Control_c, 0, 64, 44
1, 254150, Control_c, 0, 64, 44
1, 254195, Control_c, 0, 64, 45
1, 254210, Control_c, 0, 64, 45
1, 254224, Control_c, 0, 64, 46
1, 254296, Control_c, 0, 64, 46
1, 254299, Note_on_c, 0, 72, 45
1, 254305, Note_on_c, 0, 69, 38
1, 254311, Note_on_c, 0, 65, 34
1, 254311, Control_c, 0, 64, 47
1, 254356, Control_c, 0, 64, 47
1, 254400, Control_c, 0, 64, 48
1, 254430, Control_c, 0, 64, 48
1, 254445, Control_c, 0, 64, 49
1, 254501, Note_off_c, 0, 65, 56
1, 254587, Control_c, 0, 64, 49
1, 254631, Control_c, 0, 64, 50
1, 254705, Control_c, 0, 64, 50
1, 254749, Control_c, 0, 64, 51
1, 254785, Note_on_c, 0, 65, 29
1, 254839, Control_c, 0, 64, 51
1, 254868, Control_c, 0, 64, 52
1, 254927, Control_c, 0, 64, 52
1, 254931, Note_off_c, 0, 65, 52
1, 254942, Control_c, 0, 64, 53
1, 254957, Control_c, 0, 64, 53
1, 254987, Control_c, 0, 64, 54
1, 255061, Control_c, 0, 64, 54
1, 255209, Control_c, 0, 64, 55
1, 255275, Note_on_c, 0, 65, 28
1, 255319, Note_off_c, 0, 69, 51
1, 255399, Note_off_c, 0, 72, 38
1, 255485, Control_c, 0, 64, 55
1, 255573, Control_c, 0, 64, 56
1, 255603, Control_c, 0, 64, 56
1, 255662, Control_c, 0, 64, 57
1, 255691, Control_c, 0, 64, 57
1, 255736, Control_c, 0, 64, 58
1, 255766, Control_c, 0, 64, 58
1, 255855, Control_c, 0, 64, 59
1, 255929, Control_c, 0, 64, 59
1, 255980, Control_c, 0, 64, 60
1, 256025, Control_c, 0, 64, 60
1, 256076, Note_off_c, 0, 65, 46
1, 256084, Control_c, 0, 64, 61
1, 256144, Control_c, 0, 64, 61
1, 256189, Control_c, 0, 64, 62
1, 256234, Control_c, 0, 64, 62
1, 256278, Note_on_c, 0, 69, 33
1, 256293, Control_c, 0, 64, 63
1, 256337, Control_c, 0, 64, 63
1, 256338, Note_on_c, 0, 72, 40
1, 256344, Note_off_c, 0, 69, 48
1, 256407, Note_on_c, 0, 77, 47
1, 256411, Control_c, 0, 64, 64
1, 256462, Note_off_c, 0, 72, 55
1, 256499, Control_c, 0, 64, 64
1, 256588, Control_c, 0, 64, 65
1, 256633, Control_c, 0, 64, 65
1, 256677, Control_c, 0, 64, 66
1, 256692, Control_c, 0, 64, 66
1, 256728, Control_c, 0, 64, 67
1, 256743, Control_c, 0, 64, 67
1, 256758, Control_c, 0, 64, 68
1, 256773, Control_c, 0, 64, 69
1, 256788, Control_c, 0, 64, 70
1, 256803, Control_c, 0, 64, 71
1, 256818, Control_c, 0, 64, 73
1, 256833, Control_c, 0, 64, 75
1, 256837, Note_on_c, 0, 65, 32
1, 256843, Note_on_c, 0, 60, 34
1, 256845, Note_on_c, 0, 57, 24
1, 256848, Control_c, 0, 64, 77
1, 256862, Control_c, 0, 64, 80
1, 256877, Control_c, 0, 64, 84
1, 256892, Control_c, 0, 64, 87
1, 256907, Control_c, 0, 64, 91
1, 256922, Control_c, 0, 64, 95
1, 256937, Control_c, 0, 64, 98
1, 256952, Control_c, 0, 64, 103
1, 256967, Control_c, 0, 64, 108
1, 256982, Control_c, 0, 64, 116
1, 256997, Control_c, 0, 64, 127
1, 257032, Note_off_c, 0, 65, 41
1, 257037, Note_off_c, 0, 60, 54
1, 257047, Note_off_c, 0, 77, 61
1, 257059, Note_off_c, 0, 57, 42
1, 257070, Control_c, 0, 67, 126
1, 257071, Note_on_c, 0, 79, 54
1, 257085, Control_c, 0, 67, 125
1, 257100, Control_c, 0, 67, 124
1, 257115, Control_c, 0, 67, 123
1, 257129, Control_c, 0, 67, 123
1, 257164, Note_on_c, 0, 77, 65
1, 257233, Control_c, 0, 67, 123
1, 257244, Note_off_c, 0, 79, 38
1, 257270, Note_on_c, 0, 76, 64
1, 257280, Note_on_c, 0, 60, 39
1, 257287, Note_on_c, 0, 65, 30
1, 257289, Note_off_c, 0, 77, 61
1, 257298, Note_on_c, 0, 57, 31
1, 257307, Control_c, 0, 64, 109
1, 257322, Control_c, 0, 64, 93
1, 257337, Control_c, 0, 64, 81
1, 257351, Control_c, 0, 64, 71
1, 257366, Control_c, 0, 64, 63
1, 257381, Control_c, 0, 64, 62
1, 257396, Control_c, 0, 64, 64
1, 257396, Control_c, 0, 67, 123
1, 257411, Control_c, 0, 64, 67
1, 257411, Control_c, 0, 67, 122
1, 257426, Control_c, 0, 64, 70
1, 257426, Control_c, 0, 67, 122
1, 257441, Control_c, 0, 64, 74
1, 257441, Control_c, 0, 67, 121
1, 257455, Control_c, 0, 64, 80
1, 257455, Control_c, 0, 67, 120
1, 257477, Control_c, 0, 64, 86
1, 257477, Control_c, 0, 67, 119
1, 257484, Note_off_c, 0, 65, 52
1, 257489, Note_on_c, 0, 77, 74
1, 257489, Note_off_c, 0, 60, 59
1, 257492, Control_c, 0, 64, 91
1, 257492, Control_c, 0, 67, 115
1, 257493, Note_off_c, 0, 57, 49
1, 257507, Control_c, 0, 64, 96
1, 257507, Control_c, 0, 67, 109
1, 257522, Control_c, 0, 64, 101
1, 257522, Control_c, 0, 67, 103
1, 257536, Control_c, 0, 64, 104
1, 257536, Control_c, 0, 67, 98
1, 257551, Control_c, 0, 64, 108
1, 257551, Control_c, 0, 67, 94
1, 257566, Control_c, 0, 64, 112
1, 257566, Control_c, 0, 67, 91
1, 257581, Control_c, 0, 64, 116
1, 257581, Control_c, 0, 67, 88
1, 257596, Control_c, 0, 64, 118
1, 257596, Control_c, 0, 67, 84
1, 257611, Control_c, 0, 64, 119
1, 257611, Control_c, 0, 67, 81
1, 257626, Control_c, 0, 67, 79
1, 257641, Control_c, 0, 67, 77
1, 257655, Control_c, 0, 67, 76
1, 257670, Control_c, 0, 64, 118
1, 257670, Control_c, 0, 67, 76
1, 257685, Control_c, 0, 64, 118
1, 257686, Note_on_c, 0, 81, 71
1, 257699, Note_on_c, 0, 60, 37
1, 257700, Control_c, 0, 64, 112
1, 257705, Note_on_c, 0, 65, 31
1, 257711, Note_on_c, 0, 57, 22
1, 257715, Control_c, 0, 64, 106
1, 257721, Note_off_c, 0, 76, 50
1, 257730, Control_c, 0, 64, 99
1, 257741, Note_off_c, 0, 77, 63
1, 257745, Control_c, 0, 64, 89
1, 257760, Control_c, 0, 64, 79
1, 257775, Control_c, 0, 64, 70
1, 257790, Control_c, 0, 64, 62
1, 257805, Control_c, 0, 64, 47
1, 257819, Control_c, 0, 64, 45
1, 257849, Control_c, 0, 64, 46
1, 257849, Control_c, 0, 67, 76
1, 257864, Control_c, 0, 64, 49
1, 257878, Control_c, 0, 64, 53
1, 257893, Control_c, 0, 64, 58
1, 257896, Note_on_c, 0, 77, 71
1, 257908, Control_c, 0, 64, 61
1, 257923, Control_c, 0, 64, 63
1, 257938, Control_c, 0, 64, 64
1, 257952, Control_c, 0, 64, 64
1, 257955, Note_off_c, 0, 81, 55
1, 257967, Control_c, 0, 67, 77
1, 258027, Control_c, 0, 67, 77
1, 258057, Control_c, 0, 67, 78
1, 258086, Control_c, 0, 67, 78
1, 258116, Control_c, 0, 67, 79
1, 258132, Note_on_c, 0, 73, 64
1, 258134, Note_off_c, 0, 57, 41
1, 258145, Control_c, 0, 64, 64
1, 258145, Control_c, 0, 67, 80
1, 258160, Control_c, 0, 67, 80
1, 258165, Note_off_c, 0, 65, 38
1, 258190, Control_c, 0, 67, 81
1, 258205, Control_c, 0, 67, 81
1, 258227, Control_c, 0, 67, 82
1, 258230, Note_off_c, 0, 60, 32
1, 258242, Control_c, 0, 67, 83
1, 258257, Control_c, 0, 67, 84
1, 258271, Control_c, 0, 67, 84
1, 258286, Control_c, 0, 67, 85
1, 258301, Control_c, 0, 67, 85
1, 258316, Control_c, 0, 64, 63
1, 258316, Control_c, 0, 67, 86
1, 258331, Control_c, 0, 67, 87
1, 258346, Control_c, 0, 67, 88
1, 258360, Control_c, 0, 67, 89
1, 258367, Note_off_c, 0, 77, 53
1, 258375, Control_c, 0, 67, 90
1, 258390, Control_c, 0, 67, 92
1, 258405, Control_c, 0, 67, 95
1, 258420, Control_c, 0, 67, 98
1, 258434, Control_c, 0, 67, 102
1, 258449, Control_c, 0, 64, 63
1, 258449, Control_c, 0, 67, 105
1, 258464, Control_c, 0, 67, 108
1, 258478, Control_c, 0, 67, 111
1, 258493, Control_c, 0, 67, 114
1, 258509, Control_c, 0, 64, 62
1, 258509, Control_c, 0, 67, 118
1, 258524, Control_c, 0, 67, 121
1, 258539, Control_c, 0, 67, 124
1, 258554, Control_c, 0, 64, 62
1, 258554, Control_c, 0, 67, 127
1, 258583, Control_c, 0, 64, 61
1, 258598, Control_c, 0, 64, 61
1, 258612, Note_on_c, 0, 65, 36
1, 258613, Control_c, 0, 64, 59
1, 258615, Note_on_c, 0, 62, 37
1, 258623, Note_on_c, 0, 58, 37
1, 258628, Control_c, 0, 64, 58
1, 258643, Control_c, 0, 64, 56
1, 258657, Control_c, 0, 64, 51
1, 258672, Control_c, 0, 64, 44
1, 258687, Control_c, 0, 64, 30
1, 258702, Control_c, 0, 64, 0
1, 258821, Control_c, 0, 64, 36
1, 258827, Note_on_c, 0, 74, 71
1, 258836, Control_c, 0, 64, 53
1, 258850, Control_c, 0, 64, 62
1, 258865, Control_c, 0, 64, 65
1, 258873, Note_off_c, 0, 65, 51
1, 258880, Control_c, 0, 64, 68
1, 258883, Note_off_c, 0, 58, 55
1, 258894, Note_off_c, 0, 62, 55
1, 258894, Control_c, 0, 64, 72
1, 258909, Control_c, 0, 64, 75
1, 258924, Control_c, 0, 64, 77
1, 258939, Control_c, 0, 64, 79
1, 258954, Control_c, 0, 64, 79
1, 258964, Note_off_c, 0, 73, 34
1, 258976, Control_c, 0, 64, 80
1, 259050, Control_c, 0, 64, 79
1, 259051, Note_on_c, 0, 58, 36
1, 259054, Note_on_c, 0, 76, 64
1, 259056, Note_on_c, 0, 62, 38
1, 259056, Note_on_c, 0, 65, 33
1, 259065, Control_c, 0, 64, 78
1, 259080, Control_c, 0, 64, 75
1, 259094, Note_off_c, 0, 74, 62
1, 259095, Control_c, 0, 64, 71
1, 259109, Control_c, 0, 64, 66
1, 259124, Control_c, 0, 64, 64
1, 259139, Control_c, 0, 64, 62
1, 259169, Control_c, 0, 64, 63
1, 259183, Control_c, 0, 64, 64
1, 259198, Control_c, 0, 64, 66
1, 259213, Control_c, 0, 64, 70
1, 259227, Control_c, 0, 64, 73
1, 259227, Control_c, 0, 67, 127
1, 259242, Control_c, 0, 64, 76
1, 259242, Control_c, 0, 67, 125
1, 259253, Note_on_c, 0, 74, 71
1, 259257, Control_c, 0, 64, 79
1, 259257, Control_c, 0, 67, 124
1, 259272, Control_c, 0, 64, 81
1, 259272, Control_c, 0, 67, 123
1, 259287, Control_c, 0, 64, 83
1, 259287, Control_c, 0, 67, 122
1, 259292, Note_off_c, 0, 76, 62
1, 259303, Control_c, 0, 64, 84
1, 259303, Control_c, 0, 67, 122
1, 259316, Note_off_c, 0, 65, 57
1, 259318, Control_c, 0, 64, 85
1, 259327, Note_off_c, 0, 62, 56
1, 259330, Note_off_c, 0, 58, 55
1, 259332, Control_c, 0, 64, 85
1, 259421, Control_c, 0, 67, 122
1, 259436, Control_c, 0, 64, 85
1, 259451, Control_c, 0, 64, 84
1, 259451, Control_c, 0, 67, 123
1, 259466, Control_c, 0, 64, 83
1, 259480, Control_c, 0, 64, 81
1, 259480, Control_c, 0, 67, 123
1, 259491, Note_on_c, 0, 58, 31
1, 259492, Note_on_c, 0, 77, 65
1, 259495, Control_c, 0, 64, 79
1, 259504, Note_on_c, 0, 62, 26
1, 259506, Note_on_c, 0, 65, 29
1, 259510, Control_c, 0, 64, 76
1, 259510, Control_c, 0, 67, 124
1, 259524, Control_c, 0, 64, 73
1, 259528, Note_off_c, 0, 74, 63
1, 259539, Control_c, 0, 64, 70
1, 259539, Control_c, 0, 67, 125
1, 259554, Control_c, 0, 64, 66
1, 259554, Control_c, 0, 67, 125
1, 259569, Control_c, 0, 64, 64
1, 259584, Control_c, 0, 64, 63
1, 259584, Control_c, 0, 67, 126
1, 259599, Control_c, 0, 64, 63
1, 259599, Control_c, 0, 67, 126
1, 259614, Control_c, 0, 64, 62
1, 259629, Control_c, 0, 64, 61
1, 259629, Control_c, 0, 67, 127
1, 259643, Control_c, 0, 64, 60
1, 259643, Control_c, 0, 67, 127
1, 259658, Control_c, 0, 64, 59
1, 259673, Control_c, 0, 64, 59
1, 259691, Note_on_c, 0, 74, 71
1, 259795, Note_off_c, 0, 77, 39
1, 259800, Note_off_c, 0, 65, 52
1, 259861, Note_off_c, 0, 62, 41
1, 259948, Note_off_c, 0, 58, 44
1, 259958, Note_on_c, 0, 69, 47
1, 259958, Note_on_c, 0, 72, 54
1, 260073, Note_off_c, 0, 74, 56
1, 260141, Control_c, 0, 64, 59
1, 260377, Control_c, 0, 64, 60
1, 260432, Note_on_c, 0, 48, 35
1, 260432, Note_on_c, 0, 60, 31
1, 260502, Control_c, 0, 64, 60
1, 260651, Control_c, 0, 64, 61
1, 260657, Note_on_c, 0, 70, 59
1, 260657, Note_on_c, 0, 74, 62
1, 260661, Note_off_c, 0, 72, 62
1, 260672, Note_off_c, 0, 69, 60
1, 260700, Note_off_c, 0, 48, 50
1, 260711, Note_off_c, 0, 60, 46
1, 260725, Control_c, 0, 64, 61
1, 260876, Note_on_c, 0, 60, 22
1, 260883, Note_on_c, 0, 48, 29
1, 260887, Note_on_c, 0, 72, 56
1, 260900, Note_on_c, 0, 69, 48
1, 260928, Note_off_c, 0, 70, 58
1, 260973, Note_off_c, 0, 74, 49
1, 261081, Note_off_c, 0, 48, 53
1, 261095, Note_off_c, 0, 60, 47
1, 261121, Note_off_c, 0, 69, 58
1, 261135, Note_off_c, 0, 72, 58
1, 261200, Control_c, 0, 64, 62
1, 261364, Note_on_c, 0, 48, 22
1, 261364, Note_on_c, 0, 70, 45
1, 261379, Note_on_c, 0, 60, 18
1, 261380, Note_on_c, 0, 67, 39
1, 261534, Control_c, 0, 64, 61
1, 261558, Note_off_c, 0, 67, 58
1, 261574, Note_off_c, 0, 70, 63
1, 261614, Note_off_c, 0, 48, 43
1, 261713, Note_off_c, 0, 60, 46
1, 261814, Note_on_c, 0, 72, 46
1, 261834, Note_on_c, 0, 67, 38
1, 262051, Note_on_c, 0, 70, 54
1, 262077, Note_off_c, 0, 72, 52
1, 262285, Note_on_c, 0, 53, 39
1, 262292, Note_off_c, 0, 67, 49
1, 262296, Note_on_c, 0, 60, 27
1, 262302, Note_on_c, 0, 65, 34
1, 262312, Note_on_c, 0, 69, 42
1, 262341, Control_c, 0, 64, 62
1, 262351, Note_off_c, 0, 70, 47
1, 262386, Control_c, 0, 64, 62
1, 262401, Control_c, 0, 64, 63
1, 262416, Control_c, 0, 64, 63
1, 262431, Control_c, 0, 64, 64
1, 262460, Control_c, 0, 64, 64
1, 262475, Control_c, 0, 64, 65
1, 262490, Control_c, 0, 64, 65
1, 262505, Note_off_c, 0, 60, 53
1, 262526, Note_off_c, 0, 53, 57
1, 262532, Note_off_c, 0, 65, 39
1, 262532, Note_off_c, 0, 69, 52
1, 262580, Control_c, 0, 64, 66
1, 262683, Control_c, 0, 64, 65
1, 262804, Note_on_c, 0, 53, 32
1, 262814, Note_on_c, 0, 60, 21
1, 262814, Note_on_c, 0, 69, 40
1, 262838, Note_on_c, 0, 65, 24
1, 262972, Control_c, 0, 64, 66
1, 263016, Control_c, 0, 64, 66
1, 263051, Note_off_c, 0, 60, 46
1, 263075, Note_off_c, 0, 53, 51
1, 263075, Control_c, 0, 64, 67
1, 263120, Control_c, 0, 64, 67
1, 263224, Control_c, 0, 64, 68
1, 263239, Control_c, 0, 64, 68
1, 263254, Control_c, 0, 64, 69
1, 263268, Control_c, 0, 64, 70
1, 263283, Control_c, 0, 64, 71
1, 263298, Control_c, 0, 64, 71
1, 263328, Control_c, 0, 64, 72
1, 263334, Note_on_c, 0, 60, 29
1, 263337, Note_on_c, 0, 53, 34
1, 263339, Note_off_c, 0, 65, 58
1, 263397, Note_off_c, 0, 69, 59
1, 263484, Control_c, 0, 64, 71
1, 263558, Control_c, 0, 64, 71
1, 263587, Control_c, 0, 64, 70
1, 263602, Control_c, 0, 64, 70
1, 263617, Note_off_c, 0, 53, 47
1, 263617, Control_c, 0, 64, 69
1, 263618, Note_off_c, 0, 60, 54
1, 263632, Control_c, 0, 64, 69
1, 263647, Control_c, 0, 64, 68
1, 263662, Control_c, 0, 64, 68
1, 263677, Control_c, 0, 64, 67
1, 263736, Control_c, 0, 64, 67
1, 263765, Control_c, 0, 64, 66
1, 263774, Note_on_c, 0, 77, 51
1, 263780, Control_c, 0, 64, 62
1, 263795, Control_c, 0, 64, 11
1, 263797, Note_on_c, 0, 81, 70
1, 263810, Note_off_c, 0, 77, 64
1, 263810, Control_c, 0, 64, 0
1, 263849, Note_on_c, 0, 84, 68
1, 263884, Control_c, 0, 67, 124
1, 263898, Control_c, 0, 67, 115
1, 263908, Note_on_c, 0, 89, 91
1, 263913, Control_c, 0, 67, 105
1, 263928, Control_c, 0, 67, 96
1, 263933, Note_off_c, 0, 81, 60
1, 263943, Control_c, 0, 67, 86
1, 263956, Note_off_c, 0, 84, 64
1, 263958, Control_c, 0, 67, 77
1, 263972, Control_c, 0, 64, 24
1, 263972, Control_c, 0, 67, 69
1, 263987, Control_c, 0, 64, 31
1, 263987, Control_c, 0, 67, 61
1, 264002, Control_c, 0, 64, 36
1, 264002, Control_c, 0, 67, 53
1, 264017, Control_c, 0, 64, 42
1, 264017, Control_c, 0, 67, 48
1, 264032, Control_c, 0, 64, 46
1, 264032, Control_c, 0, 67, 43
1, 264047, Control_c, 0, 64, 50
1, 264047, Control_c, 0, 67, 39
1, 264061, Control_c, 0, 64, 54
1, 264061, Control_c, 0, 67, 34
1, 264076, Control_c, 0, 64, 56
1, 264076, Control_c, 0, 67, 29
1, 264092, Control_c, 0, 64, 59
1, 264092, Control_c, 0, 67, 24
1, 264107, Control_c, 0, 64, 60
1, 264107, Control_c, 0, 67, 20
1, 264121, Control_c, 0, 64, 61
1, 264121, Control_c, 0, 67, 18
1, 264136, Control_c, 0, 64, 62
1, 264136, Control_c, 0, 67, 15
1, 264137, Note_on_c, 0, 84, 87
1, 264151, Control_c, 0, 64, 62
1, 264151, Control_c, 0, 67, 12
1, 264166, Control_c, 0, 64, 63
1, 264166, Control_c, 0, 67, 8
1, 264181, Control_c, 0, 64, 63
1, 264181, Control_c, 0, 67, 0
1, 264196, Control_c, 0, 64, 64
1, 264218, Control_c, 0, 64, 64
1, 264233, Control_c, 0, 64, 65
1, 264248, Control_c, 0, 64, 65
1, 264263, Control_c, 0, 64, 66
1, 264277, Control_c, 0, 64, 67
1, 264285, Note_on_c, 0, 81, 87
1, 264292, Control_c, 0, 64, 68
1, 264299, Note_off_c, 0, 89, 40
1, 264307, Control_c, 0, 64, 69
1, 264321, Control_c, 0, 64, 70
1, 264336, Control_c, 0, 64, 71
1, 264351, Control_c, 0, 64, 73
1, 264364, Note_off_c, 0, 84, 58
1, 264366, Control_c, 0, 64, 76
1, 264381, Control_c, 0, 64, 81
1, 264395, Note_on_c, 0, 33, 35
1, 264395, Control_c, 0, 64, 88
1, 264396, Note_on_c, 0, 45, 37
1, 264410, Control_c, 0, 64, 99
1, 264425, Control_c, 0, 64, 113
1, 264430, Note_off_c, 0, 81, 65
1, 264433, Note_on_c, 0, 77, 78
1, 264440, Control_c, 0, 64, 127
1, 264499, Note_off_c, 0, 77, 63
1, 264558, Note_off_c, 0, 45, 42
1, 264565, Note_on_c, 0, 72, 87
1, 264578, Note_off_c, 0, 33, 40
1, 264673, Note_on_c, 0, 69, 88
1, 264723, Note_off_c, 0, 72, 59
1, 264781, Note_on_c, 0, 45, 62
1, 264783, Note_on_c, 0, 33, 60
1, 264794, Note_off_c, 0, 69, 63
1, 264795, Note_on_c, 0, 65, 79
1, 264859, Note_off_c, 0, 65, 63
1, 264886, Note_off_c, 0, 45, 61
1, 264913, Note_on_c, 0, 60, 81
1, 264925, Note_off_c, 0, 33, 48
1, 265036, Note_on_c, 0, 57, 86
1, 265070, Control_c, 0, 64, 112
1, 265078, Note_off_c, 0, 60, 61
1, 265085, Control_c, 0, 64, 102
1, 265100, Control_c, 0, 64, 93
1, 265115, Control_c, 0, 64, 86
1, 265130, Control_c, 0, 64, 78
1, 265130, Control_c, 0, 67, 8
1, 265144, Control_c, 0, 64, 70
1, 265159, Control_c, 0, 64, 60
1, 265159, Control_c, 0, 67, 8
1, 265174, Control_c, 0, 64, 49
1, 265189, Control_c, 0, 64, 47
1, 265197, Note_on_c, 0, 53, 76
1, 265200, Note_on_c, 0, 33, 49
1, 265204, Control_c, 0, 64, 46
1, 265204, Control_c, 0, 67, 9
1, 265206, Note_off_c, 0, 57, 63
1, 265209, Note_on_c, 0, 45, 50
1, 265218, Control_c, 0, 64, 43
1, 265233, Control_c, 0, 64, 41
1, 265248, Control_c, 0, 64, 39
1, 265248, Control_c, 0, 67, 9
1, 265322, Note_off_c, 0, 53, 65
1, 265367, Control_c, 0, 67, 9
1, 265370, Note_off_c, 0, 33, 60
1, 265385, Note_off_c, 0, 45, 63
1, 265453, Note_on_c, 0, 51, 71
1, 265551, Note_off_c, 0, 51, 62
1, 265711, Note_on_c, 0, 49, 64
1, 265849, Control_c, 0, 67, 8
1, 265908, Control_c, 0, 67, 8
1, 265997, Control_c, 0, 67, 0
1, 266202, Note_on_c, 0, 50, 53
1, 266217, Note_on_c, 0, 34, 32
1, 266227, Note_on_c, 0, 46, 26
1, 266284, Note_off_c, 0, 49, 58
1, 266323, Control_c, 0, 64, 40
1, 266353, Control_c, 0, 64, 40
1, 266382, Control_c, 0, 64, 41
1, 266397, Control_c, 0, 64, 42
1, 266411, Control_c, 0, 64, 42
1, 266426, Control_c, 0, 64, 43
1, 266441, Control_c, 0, 64, 44
1, 266451, Note_off_c, 0, 34, 52
1, 266452, Note_off_c, 0, 46, 55
1, 266464, Control_c, 0, 64, 44
1, 266479, Control_c, 0, 64, 45
1, 266494, Control_c, 0, 64, 45
1, 266509, Control_c, 0, 64, 46
1, 266539, Control_c, 0, 64, 46
1, 266553, Control_c, 0, 64, 47
1, 266598, Control_c, 0, 64, 47
1, 266613, Control_c, 0, 64, 48
1, 266628, Control_c, 0, 64, 48
1, 266657, Control_c, 0, 64, 49
1, 266723, Note_on_c, 0, 62, 56
1, 266744, Note_on_c, 0, 34, 32
1, 266746, Control_c, 0, 64, 49
1, 266748, Note_on_c, 0, 46, 35
1, 266805, Control_c, 0, 64, 50
1, 266879, Control_c, 0, 64, 50
1, 266908, Control_c, 0, 64, 51
1, 266935, Note_off_c, 0, 50, 60
1, 266938, Control_c, 0, 64, 51
1, 266950, Note_off_c, 0, 34, 53
1, 266953, Note_off_c, 0, 46, 55
1, 266968, Control_c, 0, 64, 52
1, 267040, Control_c, 0, 64, 52
1, 267144, Control_c, 0, 64, 53
1, 267211, Control_c, 0, 64, 53
1, 267212, Note_on_c, 0, 34, 39
1, 267215, Note_on_c, 0, 46, 35
1, 267255, Control_c, 0, 64, 54
1, 267345, Control_c, 0, 64, 54
1, 267379, Note_off_c, 0, 62, 58
1, 267390, Control_c, 0, 64, 55
1, 267390, Control_c, 0, 67, 8
1, 267419, Control_c, 0, 64, 55
1, 267419, Control_c, 0, 67, 8
1, 267449, Control_c, 0, 64, 56
1, 267449, Control_c, 0, 67, 9
1, 267474, Note_off_c, 0, 34, 52
1, 267478, Control_c, 0, 64, 56
1, 267493, Control_c, 0, 67, 9
1, 267508, Control_c, 0, 64, 57
1, 267537, Control_c, 0, 64, 57
1, 267551, Note_off_c, 0, 46, 48
1, 267656, Control_c, 0, 67, 10
1, 267715, Note_on_c, 0, 60, 57
1, 267719, Note_on_c, 0, 57, 47
1, 267879, Control_c, 0, 67, 10
1, 267924, Control_c, 0, 67, 11
1, 267960, Control_c, 0, 67, 11
1, 267990, Control_c, 0, 67, 12
1, 268005, Control_c, 0, 67, 12
1, 268020, Control_c, 0, 67, 13
1, 268035, Control_c, 0, 67, 16
1, 268050, Control_c, 0, 67, 19
1, 268064, Control_c, 0, 67, 21
1, 268079, Control_c, 0, 67, 23
1, 268095, Control_c, 0, 67, 24
1, 268109, Control_c, 0, 67, 26
1, 268124, Control_c, 0, 67, 27
1, 268139, Control_c, 0, 67, 29
1, 268154, Control_c, 0, 67, 30
1, 268169, Control_c, 0, 67, 32
1, 268184, Control_c, 0, 67, 33
1, 268199, Control_c, 0, 67, 35
1, 268214, Control_c, 0, 67, 37
1, 268224, Note_on_c, 0, 48, 36
1, 268226, Note_on_c, 0, 36, 37
1, 268229, Control_c, 0, 67, 38
1, 268243, Control_c, 0, 67, 39
1, 268258, Control_c, 0, 67, 41
1, 268273, Control_c, 0, 67, 42
1, 268287, Control_c, 0, 67, 43
1, 268302, Control_c, 0, 67, 44
1, 268317, Control_c, 0, 67, 45
1, 268332, Control_c, 0, 67, 47
1, 268347, Control_c, 0, 67, 48
1, 268361, Control_c, 0, 67, 49
1, 268376, Control_c, 0, 67, 51
1, 268391, Control_c, 0, 67, 53
1, 268405, Control_c, 0, 67, 55
1, 268420, Control_c, 0, 67, 57
1, 268435, Control_c, 0, 67, 59
1, 268450, Control_c, 0, 67, 62
1, 268454, Note_on_c, 0, 58, 55
1, 268458, Note_on_c, 0, 62, 56
1, 268465, Control_c, 0, 67, 64
1, 268474, Note_off_c, 0, 60, 62
1, 268478, Note_off_c, 0, 48, 49
1, 268480, Control_c, 0, 67, 67
1, 268482, Note_off_c, 0, 57, 56
1, 268494, Control_c, 0, 67, 69
1, 268509, Control_c, 0, 67, 71
1, 268516, Note_off_c, 0, 36, 46
1, 268524, Control_c, 0, 67, 73
1, 268539, Control_c, 0, 67, 76
1, 268554, Control_c, 0, 67, 78
1, 268569, Control_c, 0, 67, 80
1, 268583, Control_c, 0, 67, 82
1, 268598, Control_c, 0, 67, 85
1, 268613, Control_c, 0, 67, 87
1, 268628, Control_c, 0, 67, 90
1, 268643, Control_c, 0, 67, 92
1, 268658, Control_c, 0, 67, 94
1, 268673, Control_c, 0, 67, 97
1, 268676, Note_on_c, 0, 60, 55
1, 268687, Control_c, 0, 67, 100
1, 268691, Note_on_c, 0, 57, 48
1, 268692, Note_on_c, 0, 48, 38
1, 268709, Note_on_c, 0, 36, 26
1, 268709, Control_c, 0, 67, 103
1, 268724, Control_c, 0, 67, 105
1, 268727, Note_off_c, 0, 58, 48
1, 268739, Control_c, 0, 67, 108
1, 268754, Control_c, 0, 67, 111
1, 268766, Note_off_c, 0, 62, 37
1, 268768, Control_c, 0, 67, 114
1, 268783, Control_c, 0, 67, 117
1, 268798, Control_c, 0, 67, 119
1, 268813, Control_c, 0, 67, 122
1, 268828, Control_c, 0, 67, 125
1, 268843, Control_c, 0, 67, 127
1, 268857, Note_off_c, 0, 48, 53
1, 268898, Note_off_c, 0, 36, 40
1, 268905, Note_off_c, 0, 57, 55
1, 268929, Note_off_c, 0, 60, 59
1, 269148, Note_on_c, 0, 55, 43
1, 269150, Note_on_c, 0, 58, 44
1, 269156, Note_on_c, 0, 36, 19
1, 269174, Note_on_c, 0, 48, 6
1, 269184, Control_c, 0, 64, 58
1, 269335, Note_off_c, 0, 55, 60
1, 269344, Note_off_c, 0, 58, 60
1, 269400, Note_off_c, 0, 36, 42
1, 269421, Control_c, 0, 64, 58
1, 269436, Note_off_c, 0, 48, 47
1, 269591, Control_c, 0, 64, 59
1, 269608, Note_on_c, 0, 60, 41
1, 269612, Note_on_c, 0, 55, 33
1, 269785, Control_c, 0, 64, 59
1, 269851, Note_on_c, 0, 58, 50
1, 269883, Note_off_c, 0, 60, 39
1, 270073, Note_off_c, 0, 55, 49
1, 270096, Control_c, 0, 64, 58
1, 270108, Note_on_c, 0, 48, 20
1, 270109, Note_on_c, 0, 41, 22
1, 270110, Note_on_c, 0, 57, 40
1, 270110, Note_on_c, 0, 53, 35
1, 270111, Control_c, 0, 64, 57
1, 270125, Control_c, 0, 64, 54
1, 270140, Control_c, 0, 64, 48
1, 270152, Note_off_c, 0, 58, 39
1, 270155, Control_c, 0, 64, 40
1, 270170, Control_c, 0, 64, 29
1, 270184, Control_c, 0, 64, 0
1, 270266, Control_c, 0, 64, 27
1, 270281, Control_c, 0, 64, 47
1, 270296, Control_c, 0, 64, 59
1, 270311, Control_c, 0, 64, 63
1, 270326, Control_c, 0, 64, 64
1, 270333, Note_off_c, 0, 48, 42
1, 270340, Control_c, 0, 64, 65
1, 270355, Control_c, 0, 64, 66
1, 270370, Control_c, 0, 64, 67
1, 270379, Note_off_c, 0, 41, 47
1, 270384, Control_c, 0, 64, 68
1, 270386, Note_off_c, 0, 53, 44
1, 270414, Control_c, 0, 64, 68
1, 270426, Note_off_c, 0, 57, 53
1, 270473, Control_c, 0, 64, 68
1, 270519, Control_c, 0, 64, 67
1, 270549, Control_c, 0, 64, 67
1, 270578, Control_c, 0, 64, 66
1, 270593, Control_c, 0, 64, 65
1, 270607, Control_c, 0, 64, 65
1, 270622, Control_c, 0, 64, 64
1, 270637, Control_c, 0, 64, 63
1, 270652, Control_c, 0, 64, 61
1, 270664, Note_on_c, 0, 41, 26
1, 270667, Control_c, 0, 64, 57
1, 270671, Note_on_c, 0, 57, 33
1, 270676, Note_on_c, 0, 48, 31
1, 270682, Control_c, 0, 64, 50
1, 270687, Note_on_c, 0, 53, 33
1, 270697, Control_c, 0, 64, 31
1, 270712, Control_c, 0, 64, 0
1, 270971, Control_c, 0, 64, 55
1, 270986, Control_c, 0, 64, 64
1, 271001, Control_c, 0, 64, 68
1, 271015, Control_c, 0, 64, 72
1, 271030, Control_c, 0, 64, 77
1, 271045, Control_c, 0, 64, 82
1, 271060, Control_c, 0, 64, 88
1, 271075, Control_c, 0, 64, 93
1, 271089, Control_c, 0, 64, 97
1, 271104, Control_c, 0, 64, 101
1, 271111, Note_off_c, 0, 53, 48
1, 271119, Control_c, 0, 64, 105
1, 271134, Control_c, 0, 64, 109
1, 271149, Control_c, 0, 64, 112
1, 271163, Control_c, 0, 64, 113
1, 271178, Control_c, 0, 64, 114
1, 271186, Note_off_c, 0, 41, 40
1, 271186, Note_off_c, 0, 48, 41
1, 271232, Note_off_c, 0, 57, 35
1, 271401, Control_c, 0, 64, 114
1, 271430, Control_c, 0, 64, 113
1, 271445, Control_c, 0, 64, 112
1, 271460, Control_c, 0, 64, 111
1, 271475, Control_c, 0, 64, 110
1, 271490, Control_c, 0, 64, 108
1, 271505, Control_c, 0, 64, 107
1, 271520, Control_c, 0, 64, 104
1, 271535, Control_c, 0, 64, 101
1, 271549, Control_c, 0, 64, 97
1, 271564, Control_c, 0, 64, 91
1, 271579, Control_c, 0, 64, 85
1, 271594, Control_c, 0, 64, 78
1, 271609, Control_c, 0, 64, 69
1, 271623, Control_c, 0, 64, 55
1, 271638, Control_c, 0, 64, 24
1, 271653, Control_c, 0, 64, 23
1, 271719, Control_c, 0, 64, 26
1, 271734, Control_c, 0, 64, 31
1, 271749, Control_c, 0, 64, 36
1, 271764, Control_c, 0, 64, 39
1, 271779, Control_c, 0, 64, 42
1, 271794, Control_c, 0, 64, 45
1, 271809, Control_c, 0, 64, 47
1, 271824, Control_c, 0, 64, 50
1, 271838, Control_c, 0, 64, 53
1, 271853, Control_c, 0, 64, 55
1, 271868, Control_c, 0, 64, 57
1, 271883, Control_c, 0, 64, 58
1, 271898, Control_c, 0, 64, 60
1, 271912, Control_c, 0, 64, 61
1, 271927, Control_c, 0, 64, 62
1, 271940, Note_on_c, 0, 81, 74
1, 271942, Control_c, 0, 64, 63
1, 271949, Note_on_c, 0, 64, 30
1, 271951, Note_on_c, 0, 61, 37
1, 271956, Control_c, 0, 64, 64
1, 271971, Note_on_c, 0, 69, 50
1, 271971, Control_c, 0, 64, 65
1, 271986, Control_c, 0, 64, 66
1, 272001, Control_c, 0, 64, 69
1, 272016, Control_c, 0, 64, 72
1, 272030, Control_c, 0, 64, 75
1, 272045, Control_c, 0, 64, 78
1, 272060, Control_c, 0, 64, 82
1, 272060, Control_c, 0, 67, 125
1, 272076, Control_c, 0, 64, 86
1, 272076, Control_c, 0, 67, 121
1, 272091, Control_c, 0, 64, 90
1, 272091, Control_c, 0, 67, 117
1, 272106, Control_c, 0, 64, 95
1, 272106, Control_c, 0, 67, 111
1, 272120, Control_c, 0, 64, 100
1, 272120, Control_c, 0, 67, 106
1, 272135, Control_c, 0, 64, 105
1, 272135, Control_c, 0, 67, 101
1, 272150, Control_c, 0, 64, 112
1, 272150, Control_c, 0, 67, 96
1, 272165, Control_c, 0, 64, 127
1, 272165, Control_c, 0, 67, 92
1, 272180, Control_c, 0, 67, 87
1, 272195, Control_c, 0, 67, 82
1, 272209, Control_c, 0, 67, 77
1, 272223, Note_on_c, 0, 57, 37
1, 272224, Control_c, 0, 67, 72
1, 272233, Note_off_c, 0, 64, 42
1, 272239, Control_c, 0, 67, 67
1, 272242, Note_off_c, 0, 61, 40
1, 272253, Control_c, 0, 67, 62
1, 272268, Control_c, 0, 67, 58
1, 272283, Control_c, 0, 67, 54
1, 272298, Control_c, 0, 67, 52
1, 272313, Control_c, 0, 67, 49
1, 272327, Control_c, 0, 67, 46
1, 272342, Control_c, 0, 67, 43
1, 272357, Control_c, 0, 67, 41
1, 272372, Control_c, 0, 67, 38
1, 272387, Control_c, 0, 67, 36
1, 272402, Control_c, 0, 67, 34
1, 272417, Control_c, 0, 67, 32
1, 272432, Control_c, 0, 67, 30
1, 272437, Note_on_c, 0, 64, 47
1, 272452, Note_on_c, 0, 61, 55
1, 272453, Control_c, 0, 67, 28
1, 272466, Note_off_c, 0, 57, 53
1, 272468, Control_c, 0, 67, 26
1, 272483, Control_c, 0, 67, 25
1, 272498, Control_c, 0, 67, 24
1, 272513, Control_c, 0, 67, 23
1, 272527, Control_c, 0, 67, 22
1, 272542, Control_c, 0, 67, 21
1, 272557, Control_c, 0, 67, 21
1, 272587, Control_c, 0, 67, 20
1, 272645, Note_off_c, 0, 61, 51
1, 272652, Note_on_c, 0, 57, 50
1, 272664, Note_off_c, 0, 64, 51
1, 272852, Note_on_c, 0, 64, 56
1, 272864, Note_on_c, 0, 61, 58
1, 272906, Note_off_c, 0, 57, 59
1, 272958, Control_c, 0, 67, 21
1, 273043, Note_off_c, 0, 64, 62
1, 273044, Note_off_c, 0, 69, 62
1, 273063, Note_on_c, 0, 57, 52
1, 273100, Note_off_c, 0, 61, 57
1, 273121, Control_c, 0, 67, 21
1, 273282, Note_on_c, 0, 80, 76
1, 273290, Note_on_c, 0, 65, 49
1, 273292, Note_on_c, 0, 68, 66
1, 273295, Note_on_c, 0, 62, 51
1, 273306, Control_c, 0, 64, 93
1, 273319, Note_off_c, 0, 57, 53
1, 273321, Control_c, 0, 64, 76
1, 273336, Control_c, 0, 64, 62
1, 273350, Control_c, 0, 64, 56
1, 273365, Control_c, 0, 64, 62
1, 273380, Control_c, 0, 64, 67
1, 273380, Control_c, 0, 67, 21
1, 273389, Note_off_c, 0, 81, 59
1, 273395, Control_c, 0, 64, 73
1, 273395, Control_c, 0, 67, 20
1, 273410, Control_c, 0, 64, 82
1, 273410, Control_c, 0, 67, 18
1, 273424, Control_c, 0, 64, 98
1, 273424, Control_c, 0, 67, 13
1, 273439, Control_c, 0, 64, 127
1, 273439, Control_c, 0, 67, 0
1, 273475, Note_off_c, 0, 65, 60
1, 273479, Note_off_c, 0, 62, 58
1, 273486, Note_on_c, 0, 57, 52
1, 273538, Note_off_c, 0, 68, 61
1, 273709, Note_on_c, 0, 81, 79
1, 273709, Note_off_c, 0, 80, 58
1, 273719, Note_on_c, 0, 69, 66
1, 273722, Note_on_c, 0, 64, 49
1, 273722, Control_c, 0, 64, 108
1, 273728, Note_on_c, 0, 61, 51
1, 273737, Control_c, 0, 64, 82
1, 273741, Note_off_c, 0, 57, 54
1, 273752, Control_c, 0, 64, 65
1, 273767, Control_c, 0, 64, 0
1, 273782, Control_c, 0, 64, 14
1, 273797, Control_c, 0, 64, 56
1, 273812, Control_c, 0, 64, 67
1, 273821, Note_off_c, 0, 69, 60
1, 273826, Control_c, 0, 64, 76
1, 273841, Control_c, 0, 64, 88
1, 273856, Control_c, 0, 64, 108
1, 273871, Control_c, 0, 64, 127
1, 273890, Note_off_c, 0, 61, 55
1, 273891, Note_off_c, 0, 81, 64
1, 273901, Note_off_c, 0, 64, 59
1, 273913, Note_on_c, 0, 57, 49
1, 274027, Note_on_c, 0, 79, 67
1, 274071, Note_on_c, 0, 81, 79
1, 274071, Note_off_c, 0, 79, 58
1, 274115, Control_c, 0, 64, 118
1, 274122, Note_on_c, 0, 82, 82
1, 274124, Note_on_c, 0, 64, 46
1, 274125, Note_on_c, 0, 61, 55
1, 274130, Control_c, 0, 64, 95
1, 274139, Note_off_c, 0, 57, 53
1, 274143, Note_off_c, 0, 81, 61
1, 274145, Control_c, 0, 64, 81
1, 274159, Control_c, 0, 64, 68
1, 274174, Control_c, 0, 64, 21
1, 274189, Control_c, 0, 64, 0
1, 274283, Note_off_c, 0, 82, 64
1, 274300, Note_off_c, 0, 64, 57
1, 274316, Note_off_c, 0, 61, 57
1, 274330, Note_on_c, 0, 57, 50
1, 274547, Note_on_c, 0, 62, 46
1, 274548, Note_on_c, 0, 81, 61
1, 274557, Note_on_c, 0, 65, 36
1, 274566, Note_off_c, 0, 57, 48
1, 274732, Note_off_c, 0, 81, 59
1, 274736, Note_off_c, 0, 62, 62
1, 274764, Note_off_c, 0, 65, 44
1, 274771, Note_on_c, 0, 57, 46
1, 274981, Note_on_c, 0, 79, 57
1, 274985, Note_on_c, 0, 67, 38
1, 274997, Control_c, 0, 64, 14
1, 275007, Note_on_c, 0, 64, 39
1, 275012, Control_c, 0, 64, 21
1, 275027, Control_c, 0, 64, 23
1, 275035, Note_off_c, 0, 57, 55
1, 275042, Control_c, 0, 64, 27
1, 275056, Control_c, 0, 64, 29
1, 275071, Control_c, 0, 64, 32
1, 275086, Control_c, 0, 64, 35
1, 275101, Control_c, 0, 64, 37
1, 275116, Control_c, 0, 64, 39
1, 275126, Note_off_c, 0, 79, 61
1, 275130, Control_c, 0, 64, 40
1, 275132, Note_off_c, 0, 67, 57
1, 275145, Control_c, 0, 64, 42
1, 275160, Control_c, 0, 64, 42
1, 275172, Note_on_c, 0, 57, 49
1, 275173, Note_off_c, 0, 64, 58
1, 275174, Control_c, 0, 64, 43
1, 275189, Control_c, 0, 64, 43
1, 275204, Control_c, 0, 64, 44
1, 275219, Control_c, 0, 64, 44
1, 275234, Control_c, 0, 64, 45
1, 275279, Control_c, 0, 64, 45
1, 275368, Control_c, 0, 64, 46
1, 275409, Note_on_c, 0, 79, 61
1, 275411, Note_on_c, 0, 68, 42
1, 275412, Control_c, 0, 64, 46
1, 275423, Note_on_c, 0, 62, 46
1, 275464, Control_c, 0, 64, 47
1, 275465, Note_off_c, 0, 57, 53
1, 275493, Control_c, 0, 64, 48
1, 275508, Control_c, 0, 64, 49
1, 275523, Control_c, 0, 64, 50
1, 275553, Control_c, 0, 64, 50
1, 275578, Note_off_c, 0, 68, 61
1, 275583, Control_c, 0, 64, 51
1, 275621, Note_on_c, 0, 77, 64
1, 275621, Note_off_c, 0, 62, 59
1, 275628, Note_on_c, 0, 57, 51
1, 275804, Control_c, 0, 64, 50
1, 275824, Note_off_c, 0, 79, 35
1, 275834, Control_c, 0, 64, 50
1, 275834, Control_c, 0, 67, 8
1, 275840, Note_on_c, 0, 69, 38
1, 275846, Note_on_c, 0, 76, 54
1, 275849, Control_c, 0, 67, 10
1, 275859, Note_on_c, 0, 61, 44
1, 275861, Note_off_c, 0, 57, 56
1, 275864, Control_c, 0, 67, 11
1, 275878, Control_c, 0, 67, 12
1, 275893, Note_off_c, 0, 77, 57
1, 275893, Control_c, 0, 64, 49
1, 275893, Control_c, 0, 67, 14
1, 275908, Control_c, 0, 64, 49
1, 275908, Control_c, 0, 67, 16
1, 275922, Control_c, 0, 67, 19
1, 275937, Control_c, 0, 64, 48
1, 275937, Control_c, 0, 67, 23
1, 275952, Control_c, 0, 64, 48
1, 275952, Control_c, 0, 67, 27
1, 275967, Control_c, 0, 67, 31
1, 275982, Control_c, 0, 64, 47
1, 275982, Control_c, 0, 67, 34
1, 275997, Control_c, 0, 64, 47
1, 275997, Control_c, 0, 67, 37
1, 276012, Control_c, 0, 67, 40
1, 276027, Control_c, 0, 64, 46
1, 276027, Control_c, 0, 67, 43
1, 276029, Note_off_c, 0, 76, 60
1, 276042, Note_off_c, 0, 61, 56
1, 276042, Control_c, 0, 64, 46
1, 276042, Control_c, 0, 67, 46
1, 276045, Note_off_c, 0, 69, 50
1, 276051, Note_on_c, 0, 57, 46
1, 276057, Control_c, 0, 64, 45
1, 276057, Control_c, 0, 67, 49
1, 276072, Control_c, 0, 64, 45
1, 276072, Control_c, 0, 67, 52
1, 276087, Control_c, 0, 67, 55
1, 276101, Control_c, 0, 64, 44
1, 276101, Control_c, 0, 67, 58
1, 276116, Control_c, 0, 67, 61
1, 276131, Control_c, 0, 64, 44
1, 276131, Control_c, 0, 67, 64
1, 276146, Control_c, 0, 67, 67
1, 276161, Control_c, 0, 67, 71
1, 276176, Control_c, 0, 67, 74
1, 276198, Control_c, 0, 67, 78
1, 276213, Control_c, 0, 67, 82
1, 276227, Control_c, 0, 64, 43
1, 276227, Control_c, 0, 67, 86
1, 276242, Control_c, 0, 67, 91
1, 276257, Control_c, 0, 67, 96
1, 276266, Note_on_c, 0, 76, 49
1, 276272, Control_c, 0, 67, 104
1, 276281, Note_off_c, 0, 57, 52
1, 276282, Note_on_c, 0, 69, 34
1, 276287, Control_c, 0, 67, 111
1, 276295, Note_on_c, 0, 61, 34
1, 276301, Control_c, 0, 67, 118
1, 276316, Control_c, 0, 67, 126
1, 276331, Control_c, 0, 67, 127
1, 276405, Control_c, 0, 64, 43
1, 276435, Control_c, 0, 64, 42
1, 276450, Control_c, 0, 64, 41
1, 276465, Control_c, 0, 64, 40
1, 276480, Control_c, 0, 64, 39
1, 276485, Note_off_c, 0, 69, 44
1, 276494, Control_c, 0, 64, 38
1, 276500, Note_on_c, 0, 57, 42
1, 276501, Note_off_c, 0, 61, 40
1, 276509, Control_c, 0, 64, 38
1, 276524, Control_c, 0, 64, 37
1, 276539, Control_c, 0, 64, 36
1, 276554, Control_c, 0, 64, 36
1, 276568, Control_c, 0, 64, 35
1, 276583, Control_c, 0, 64, 34
1, 276598, Control_c, 0, 64, 33
1, 276613, Control_c, 0, 64, 32
1, 276627, Control_c, 0, 64, 31
1, 276642, Control_c, 0, 64, 30
1, 276657, Control_c, 0, 64, 27
1, 276672, Control_c, 0, 64, 21
1, 276687, Control_c, 0, 64, 0
1, 276690, Note_off_c, 0, 57, 58
1, 276700, Note_on_c, 0, 69, 39
1, 276715, Note_on_c, 0, 61, 39
1, 276718, Note_off_c, 0, 76, 52
1, 276880, Control_c, 0, 67, 127
1, 276895, Note_on_c, 0, 57, 52
1, 276895, Control_c, 0, 64, 34
1, 276895, Control_c, 0, 67, 121
1, 276902, Note_off_c, 0, 61, 47
1, 276910, Control_c, 0, 64, 63
1, 276910, Control_c, 0, 67, 112
1, 276924, Control_c, 0, 64, 71
1, 276924, Control_c, 0, 67, 101
1, 276947, Control_c, 0, 64, 83
1, 276947, Control_c, 0, 67, 89
1, 276960, Note_off_c, 0, 69, 37
1, 276961, Note_off_c, 0, 57, 58
1, 276962, Control_c, 0, 64, 100
1, 276962, Control_c, 0, 67, 78
1, 276976, Control_c, 0, 64, 127
1, 276976, Control_c, 0, 67, 65
1, 276991, Control_c, 0, 67, 57
1, 277006, Control_c, 0, 67, 50
1, 277021, Control_c, 0, 67, 44
1, 277036, Control_c, 0, 67, 38
1, 277050, Control_c, 0, 67, 34
1, 277065, Control_c, 0, 67, 29
1, 277080, Control_c, 0, 67, 26
1, 277095, Control_c, 0, 67, 23
1, 277110, Control_c, 0, 67, 20
1, 277124, Control_c, 0, 67, 18
1, 277139, Control_c, 0, 67, 16
1, 277154, Control_c, 0, 67, 14
1, 277168, Control_c, 0, 67, 12
1, 277183, Control_c, 0, 67, 11
1, 277198, Note_on_c, 0, 86, 79
1, 277198, Control_c, 0, 67, 10
1, 277213, Note_on_c, 0, 69, 40
1, 277213, Control_c, 0, 67, 9
1, 277219, Note_on_c, 0, 66, 42
1, 277222, Note_on_c, 0, 74, 58
1, 277228, Control_c, 0, 67, 0
1, 277273, Control_c, 0, 64, 99
1, 277288, Control_c, 0, 64, 80
1, 277303, Control_c, 0, 64, 64
1, 277317, Control_c, 0, 64, 0
1, 277435, Note_off_c, 0, 66, 52
1, 277439, Note_on_c, 0, 62, 46
1, 277450, Control_c, 0, 64, 52
1, 277462, Note_off_c, 0, 69, 53
1, 277465, Control_c, 0, 64, 64
1, 277481, Control_c, 0, 64, 70
1, 277496, Control_c, 0, 64, 76
1, 277511, Control_c, 0, 64, 84
1, 277525, Control_c, 0, 64, 95
1, 277540, Control_c, 0, 64, 106
1, 277555, Control_c, 0, 64, 127
1, 277636, Note_on_c, 0, 69, 49
1, 277645, Note_on_c, 0, 66, 62
1, 277672, Note_off_c, 0, 62, 52
1, 277841, Note_on_c, 0, 62, 51
1, 277855, Note_off_c, 0, 69, 56
1, 277866, Note_off_c, 0, 66, 38
1, 278042, Note_on_c, 0, 69, 48
1, 278053, Note_on_c, 0, 66, 57
1, 278053, Note_off_c, 0, 62, 54
1, 278177, Note_off_c, 0, 74, 63
1, 278185, Note_off_c, 0, 69, 60
1, 278212, Note_on_c, 0, 62, 53
1, 278215, Note_off_c, 0, 66, 54
1, 278407, Control_c, 0, 64, 109
1, 278422, Control_c, 0, 64, 83
1, 278429, Note_on_c, 0, 70, 51
1, 278432, Note_on_c, 0, 85, 74
1, 278444, Control_c, 0, 64, 64
1, 278446, Note_on_c, 0, 73, 65
1, 278455, Note_on_c, 0, 67, 55
1, 278459, Control_c, 0, 64, 0
1, 278476, Note_off_c, 0, 62, 58
1, 278490, Control_c, 0, 64, 40
1, 278504, Control_c, 0, 64, 62
1, 278519, Control_c, 0, 64, 70
1, 278534, Control_c, 0, 64, 80
1, 278549, Control_c, 0, 64, 96
1, 278564, Control_c, 0, 64, 127
1, 278572, Note_off_c, 0, 86, 53
1, 278632, Note_off_c, 0, 67, 58
1, 278636, Note_off_c, 0, 70, 60
1, 278641, Note_on_c, 0, 62, 58
1, 278694, Note_off_c, 0, 73, 60
1, 278866, Note_on_c, 0, 86, 80
1, 278867, Note_off_c, 0, 62, 57
1, 278868, Note_on_c, 0, 66, 54
1, 278879, Note_on_c, 0, 69, 47
1, 278883, Note_on_c, 0, 74, 68
1, 278888, Note_off_c, 0, 85, 57
1, 278889, Control_c, 0, 64, 98
1, 278904, Control_c, 0, 64, 75
1, 278919, Control_c, 0, 64, 48
1, 278934, Control_c, 0, 64, 0
1, 278963, Control_c, 0, 64, 57
1, 278978, Control_c, 0, 64, 67
1, 278993, Control_c, 0, 64, 76
1, 279008, Control_c, 0, 64, 87
1, 279014, Note_off_c, 0, 74, 64
1, 279022, Control_c, 0, 64, 104
1, 279034, Note_off_c, 0, 66, 58
1, 279037, Control_c, 0, 64, 127
1, 279042, Note_off_c, 0, 69, 58
1, 279054, Note_on_c, 0, 62, 57
1, 279072, Note_off_c, 0, 86, 67
1, 279203, Note_on_c, 0, 84, 66
1, 279241, Note_on_c, 0, 86, 79
1, 279243, Note_off_c, 0, 84, 59
1, 279264, Note_on_c, 0, 69, 41
1, 279273, Note_on_c, 0, 66, 54
1, 279282, Control_c, 0, 64, 102
1, 279291, Note_on_c, 0, 87, 90
1, 279297, Control_c, 0, 64, 84
1, 279301, Note_off_c, 0, 62, 45
1, 279307, Note_off_c, 0, 86, 65
1, 279312, Control_c, 0, 64, 69
1, 279327, Control_c, 0, 64, 17
1, 279342, Control_c, 0, 64, 0
1, 279419, Note_off_c, 0, 69, 57
1, 279446, Note_off_c, 0, 66, 59
1, 279461, Note_off_c, 0, 87, 65
1, 279462, Note_on_c, 0, 62, 49
1, 279688, Note_on_c, 0, 86, 66
1, 279691, Note_on_c, 0, 67, 46
1, 279691, Note_on_c, 0, 70, 43
1, 279726, Note_off_c, 0, 62, 56
1, 279850, Note_off_c, 0, 86, 65
1, 279858, Note_off_c, 0, 70, 60
1, 279866, Note_off_c, 0, 67, 59
1, 279888, Note_on_c, 0, 62, 39
1, 280097, Note_on_c, 0, 84, 64
1, 280114, Note_on_c, 0, 72, 37
1, 280129, Note_on_c, 0, 69, 35
1, 280134, Note_off_c, 0, 62, 42
1, 280224, Note_off_c, 0, 84, 64
1, 280263, Note_off_c, 0, 72, 59
1, 280268, Note_off_c, 0, 69, 60
1, 280290, Note_on_c, 0, 62, 45
1, 280495, Note_on_c, 0, 84, 65
1, 280498, Note_on_c, 0, 73, 49
1, 280506, Note_on_c, 0, 67, 48
1, 280547, Note_off_c, 0, 62, 41
1, 280608, Control_c, 0, 64, 14
1, 280623, Control_c, 0, 64, 17
1, 280638, Control_c, 0, 64, 19
1, 280665, Note_off_c, 0, 73, 60
1, 280668, Control_c, 0, 64, 21
1, 280710, Note_off_c, 0, 67, 59
1, 280712, Note_on_c, 0, 82, 77
1, 280714, Note_on_c, 0, 62, 50
1, 280823, Note_off_c, 0, 84, 48
1, 280916, Note_on_c, 0, 81, 61
1, 280925, Note_on_c, 0, 66, 46
1, 280926, Note_off_c, 0, 62, 55
1, 280927, Note_on_c, 0, 74, 38
1, 280987, Control_c, 0, 64, 19
1, 280997, Note_off_c, 0, 82, 39
1, 281065, Note_off_c, 0, 81, 59
1, 281092, Note_off_c, 0, 66, 55
1, 281098, Note_off_c, 0, 74, 50
1, 281129, Note_on_c, 0, 62, 39
1, 281165, Control_c, 0, 64, 17
1, 281224, Control_c, 0, 64, 14
1, 281238, Control_c, 0, 64, 11
1, 281253, Control_c, 0, 67, 9
1, 281268, Control_c, 0, 64, 0
1, 281268, Control_c, 0, 67, 10
1, 281282, Control_c, 0, 67, 13
1, 281297, Control_c, 0, 67, 16
1, 281312, Control_c, 0, 67, 20
1, 281327, Control_c, 0, 67, 24
1, 281339, Note_on_c, 0, 81, 54
1, 281342, Control_c, 0, 67, 29
1, 281345, Note_on_c, 0, 66, 38
1, 281345, Note_off_c, 0, 62, 55
1, 281350, Note_on_c, 0, 74, 40
1, 281357, Control_c, 0, 67, 34
1, 281372, Control_c, 0, 67, 38
1, 281386, Control_c, 0, 67, 42
1, 281401, Control_c, 0, 67, 47
1, 281416, Control_c, 0, 67, 51
1, 281438, Control_c, 0, 67, 56
1, 281453, Control_c, 0, 67, 60
1, 281468, Control_c, 0, 67, 66
1, 281483, Control_c, 0, 67, 72
1, 281497, Control_c, 0, 67, 78
1, 281512, Control_c, 0, 67, 84
1, 281527, Control_c, 0, 67, 91
1, 281535, Note_off_c, 0, 66, 54
1, 281541, Control_c, 0, 67, 97
1, 281546, Note_off_c, 0, 74, 56
1, 281548, Note_on_c, 0, 62, 48
1, 281556, Control_c, 0, 67, 105
1, 281571, Control_c, 0, 67, 111
1, 281586, Control_c, 0, 67, 117
1, 281601, Control_c, 0, 67, 121
1, 281616, Control_c, 0, 67, 126
1, 281631, Control_c, 0, 67, 127
1, 281694, Note_off_c, 0, 81, 59
1, 281706, Control_c, 0, 64, 11
1, 281741, Note_on_c, 0, 74, 46
1, 281757, Note_off_c, 0, 62, 57
1, 281765, Note_on_c, 0, 66, 48
1, 281795, Control_c, 0, 64, 14
1, 281883, Note_off_c, 0, 74, 54
1, 281919, Note_off_c, 0, 66, 59
1, 281943, Control_c, 0, 67, 127
1, 281947, Note_on_c, 0, 62, 44
1, 281957, Control_c, 0, 67, 126
1, 281972, Control_c, 0, 67, 125
1, 281987, Control_c, 0, 67, 124
1, 282002, Control_c, 0, 67, 124
1, 282017, Control_c, 0, 67, 123
1, 282031, Control_c, 0, 67, 123
1, 282046, Control_c, 0, 67, 122
1, 282061, Control_c, 0, 67, 121
1, 282076, Control_c, 0, 67, 121
1, 282091, Control_c, 0, 67, 120
1, 282105, Control_c, 0, 67, 119
1, 282120, Control_c, 0, 67, 119
1, 282135, Control_c, 0, 67, 118
1, 282150, Control_c, 0, 67, 117
1, 282158, Note_on_c, 0, 81, 61
1, 282164, Control_c, 0, 67, 115
1, 282174, Note_on_c, 0, 70, 39
1, 282175, Note_on_c, 0, 73, 42
1, 282187, Control_c, 0, 64, 17
1, 282187, Control_c, 0, 67, 113
1, 282202, Control_c, 0, 67, 111
1, 282217, Control_c, 0, 64, 19
1, 282217, Control_c, 0, 67, 109
1, 282221, Note_off_c, 0, 62, 57
1, 282232, Control_c, 0, 64, 21
1, 282232, Control_c, 0, 67, 106
1, 282246, Control_c, 0, 64, 23
1, 282246, Control_c, 0, 67, 103
1, 282261, Control_c, 0, 67, 100
1, 282276, Control_c, 0, 64, 24
1, 282276, Control_c, 0, 67, 96
1, 282290, Control_c, 0, 67, 91
1, 282305, Control_c, 0, 64, 26
1, 282305, Control_c, 0, 67, 88
1, 282320, Control_c, 0, 67, 84
1, 282335, Control_c, 0, 64, 27
1, 282335, Control_c, 0, 67, 82
1, 282350, Control_c, 0, 67, 80
1, 282364, Control_c, 0, 64, 28
1, 282364, Control_c, 0, 67, 77
1, 282379, Note_on_c, 0, 62, 46
1, 282379, Control_c, 0, 67, 76
1, 282391, Note_on_c, 0, 79, 71
1, 282394, Control_c, 0, 64, 29
1, 282394, Control_c, 0, 67, 74
1, 282409, Control_c, 0, 64, 30
1, 282409, Control_c, 0, 67, 72
1, 282412, Note_off_c, 0, 70, 48
1, 282424, Control_c, 0, 64, 31
1, 282424, Control_c, 0, 67, 71
1, 282439, Control_c, 0, 67, 70
1, 282445, Note_off_c, 0, 73, 59
1, 282454, Control_c, 0, 64, 32
1, 282454, Control_c, 0, 67, 69
1, 282469, Control_c, 0, 64, 33
1, 282514, Control_c, 0, 64, 34
1, 282582, Note_on_c, 0, 78, 70
1, 282591, Note_on_c, 0, 69, 48
1, 282591, Note_on_c, 0, 74, 53
1, 282616, Note_off_c, 0, 62, 59
1, 282640, Note_off_c, 0, 81, 34
1, 282662, Control_c, 0, 67, 70
1, 282692, Note_off_c, 0, 79, 37
1, 282722, Control_c, 0, 67, 70
1, 282728, Note_off_c, 0, 74, 63
1, 282758, Note_off_c, 0, 69, 59
1, 282766, Control_c, 0, 67, 71
1, 282769, Note_off_c, 0, 78, 62
1, 282776, Note_on_c, 0, 62, 49
1, 282795, Control_c, 0, 64, 35
1, 282810, Control_c, 0, 67, 71
1, 282825, Control_c, 0, 67, 72
1, 282854, Control_c, 0, 67, 72
1, 282884, Control_c, 0, 67, 73
1, 282913, Control_c, 0, 67, 73
1, 282936, Control_c, 0, 67, 74
1, 282951, Control_c, 0, 67, 74
1, 282966, Control_c, 0, 67, 75
1, 282981, Control_c, 0, 67, 76
1, 282995, Control_c, 0, 67, 76
1, 282996, Note_on_c, 0, 69, 43
1, 282998, Note_on_c, 0, 78, 57
1, 283010, Control_c, 0, 67, 77
1, 283011, Note_on_c, 0, 74, 52
1, 283023, Note_off_c, 0, 62, 57
1, 283025, Control_c, 0, 67, 78
1, 283040, Control_c, 0, 67, 79
1, 283055, Control_c, 0, 67, 80
1, 283069, Control_c, 0, 67, 81
1, 283084, Control_c, 0, 67, 82
1, 283099, Control_c, 0, 64, 34
1, 283099, Control_c, 0, 67, 83
1, 283113, Control_c, 0, 67, 86
1, 283128, Control_c, 0, 67, 89
1, 283143, Control_c, 0, 64, 33
1, 283143, Control_c, 0, 67, 92
1, 283158, Control_c, 0, 64, 32
1, 283158, Control_c, 0, 67, 96
1, 283173, Control_c, 0, 67, 99
1, 283176, Note_off_c, 0, 69, 55
1, 283187, Control_c, 0, 67, 102
1, 283202, Control_c, 0, 64, 31
1, 283202, Control_c, 0, 67, 105
1, 283205, Note_on_c, 0, 62, 34
1, 283217, Control_c, 0, 67, 109
1, 283232, Control_c, 0, 67, 112
1, 283247, Control_c, 0, 64, 30
1, 283247, Control_c, 0, 67, 117
1, 283263, Control_c, 0, 67, 120
1, 283278, Control_c, 0, 67, 124
1, 283292, Control_c, 0, 64, 29
1, 283292, Control_c, 0, 67, 127
1, 283307, Control_c, 0, 64, 28
1, 283322, Control_c, 0, 64, 27
1, 283336, Control_c, 0, 64, 26
1, 283351, Control_c, 0, 64, 23
1, 283366, Control_c, 0, 64, 19
1, 283381, Control_c, 0, 64, 14
1, 283391, Note_off_c, 0, 62, 55
1, 283395, Note_off_c, 0, 74, 60
1, 283396, Note_on_c, 0, 69, 35
1, 283396, Control_c, 0, 64, 0
1, 283452, Note_off_c, 0, 78, 60
1, 283565, Note_off_c, 0, 69, 57
1, 283607, Note_on_c, 0, 62, 37
1, 283861, Note_on_c, 0, 81, 50
1, 283867, Note_on_c, 0, 70, 36
1, 283871, Note_on_c, 0, 73, 43
1, 283905, Note_off_c, 0, 62, 50
1, 284095, Note_off_c, 0, 73, 62
1, 284106, Note_on_c, 0, 62, 39
1, 284117, Note_on_c, 0, 79, 55
1, 284150, Note_off_c, 0, 70, 46
1, 284264, Control_c, 0, 64, 11
1, 284287, Note_off_c, 0, 81, 34
1, 284317, Note_on_c, 0, 77, 48
1, 284334, Note_off_c, 0, 62, 55
1, 284335, Note_on_c, 0, 74, 39
1, 284338, Note_on_c, 0, 69, 33
1, 284338, Control_c, 0, 64, 14
1, 284372, Note_off_c, 0, 79, 38
1, 284490, Note_off_c, 0, 74, 50
1, 284505, Note_off_c, 0, 77, 59
1, 284509, Control_c, 0, 64, 17
1, 284519, Note_off_c, 0, 69, 48
1, 284535, Note_on_c, 0, 62, 41
1, 284736, Note_on_c, 0, 69, 32
1, 284740, Note_on_c, 0, 77, 39
1, 284753, Note_on_c, 0, 74, 35
1, 284756, Note_off_c, 0, 62, 54
1, 284937, Note_off_c, 0, 69, 42
1, 284945, Note_on_c, 0, 62, 36
1, 285028, Control_c, 0, 64, 19
1, 285087, Control_c, 0, 64, 21
1, 285122, Note_off_c, 0, 74, 59
1, 285140, Note_off_c, 0, 62, 57
1, 285149, Note_on_c, 0, 69, 30
1, 285164, Note_off_c, 0, 77, 60
1, 285228, Control_c, 0, 64, 23
1, 285257, Control_c, 0, 64, 24
1, 285287, Control_c, 0, 64, 26
1, 285331, Control_c, 0, 64, 27
1, 285345, Note_off_c, 0, 69, 38
1, 285350, Note_on_c, 0, 62, 33
1, 285578, Note_on_c, 0, 68, 37
1, 285581, Note_on_c, 0, 79, 49
1, 285581, Note_on_c, 0, 71, 41
1, 285592, Note_off_c, 0, 62, 47
1, 285643, Control_c, 0, 64, 28
1, 285717, Control_c, 0, 64, 29
1, 285769, Note_off_c, 0, 68, 56
1, 285784, Note_on_c, 0, 77, 55
1, 285791, Control_c, 0, 64, 30
1, 285800, Note_on_c, 0, 62, 34
1, 285819, Note_off_c, 0, 71, 58
1, 285835, Control_c, 0, 64, 31
1, 285865, Control_c, 0, 64, 32
1, 285894, Control_c, 0, 64, 33
1, 285909, Control_c, 0, 64, 34
1, 285946, Control_c, 0, 64, 35
1, 285947, Note_off_c, 0, 79, 33
1, 285961, Control_c, 0, 64, 36
1, 285976, Control_c, 0, 64, 36
1, 285989, Note_off_c, 0, 62, 54
1, 285991, Control_c, 0, 64, 37
1, 285998, Note_on_c, 0, 76, 59
1, 286004, Note_on_c, 0, 71, 28
1, 286010, Note_on_c, 0, 68, 37
1, 286020, Control_c, 0, 64, 38
1, 286035, Control_c, 0, 64, 38
1, 286078, Note_off_c, 0, 77, 46
1, 286079, Control_c, 0, 64, 39
1, 286124, Control_c, 0, 64, 40
1, 286168, Control_c, 0, 64, 40
1, 286169, Note_off_c, 0, 68, 53
1, 286186, Note_off_c, 0, 71, 61
1, 286198, Control_c, 0, 64, 41
1, 286201, Note_on_c, 0, 62, 33
1, 286203, Note_off_c, 0, 76, 62
1, 286227, Control_c, 0, 64, 42
1, 286242, Control_c, 0, 64, 42
1, 286272, Control_c, 0, 64, 43
1, 286302, Control_c, 0, 64, 43
1, 286418, Note_on_c, 0, 76, 47
1, 286430, Note_on_c, 0, 68, 35
1, 286430, Note_on_c, 0, 71, 40
1, 286444, Note_off_c, 0, 62, 44
1, 286615, Control_c, 0, 64, 44
1, 286618, Note_off_c, 0, 68, 53
1, 286635, Note_on_c, 0, 62, 34
1, 286740, Control_c, 0, 64, 44
1, 286785, Control_c, 0, 64, 45
1, 286815, Control_c, 0, 64, 45
1, 286824, Note_off_c, 0, 71, 60
1, 286829, Control_c, 0, 64, 46
1, 286836, Note_off_c, 0, 62, 53
1, 286844, Note_on_c, 0, 68, 48
1, 286844, Control_c, 0, 64, 46
1, 286859, Control_c, 0, 64, 47
1, 286879, Note_off_c, 0, 76, 59
1, 286889, Control_c, 0, 67, 125
1, 286903, Control_c, 0, 64, 47
1, 286903, Control_c, 0, 67, 121
1, 286918, Control_c, 0, 64, 48
1, 286918, Control_c, 0, 67, 117
1, 286933, Control_c, 0, 64, 49
1, 286933, Control_c, 0, 67, 112
1, 286948, Control_c, 0, 67, 105
1, 286962, Control_c, 0, 64, 50
1, 286962, Control_c, 0, 67, 98
1, 286977, Control_c, 0, 64, 50
1, 286977, Control_c, 0, 67, 91
1, 286992, Control_c, 0, 64, 51
1, 286992, Control_c, 0, 67, 84
1, 287007, Control_c, 0, 64, 52
1, 287007, Control_c, 0, 67, 77
1, 287009, Note_off_c, 0, 68, 59
1, 287018, Note_on_c, 0, 62, 52
1, 287022, Control_c, 0, 64, 53
1, 287022, Control_c, 0, 67, 71
1, 287036, Control_c, 0, 64, 54
1, 287036, Control_c, 0, 67, 65
1, 287051, Control_c, 0, 64, 55
1, 287051, Control_c, 0, 67, 61
1, 287066, Control_c, 0, 64, 56
1, 287066, Control_c, 0, 67, 58
1, 287080, Control_c, 0, 64, 56
1, 287080, Control_c, 0, 67, 55
1, 287095, Control_c, 0, 64, 57
1, 287095, Control_c, 0, 67, 53
1, 287110, Control_c, 0, 64, 58
1, 287110, Control_c, 0, 67, 50
1, 287125, Control_c, 0, 64, 58
1, 287125, Control_c, 0, 67, 49
1, 287140, Control_c, 0, 64, 59
1, 287140, Control_c, 0, 67, 47
1, 287154, Control_c, 0, 64, 59
1, 287154, Control_c, 0, 67, 46
1, 287169, Control_c, 0, 67, 45
1, 287184, Control_c, 0, 64, 60
1, 287199, Control_c, 0, 64, 60
1, 287236, Note_on_c, 0, 79, 60
1, 287239, Note_off_c, 0, 62, 59
1, 287244, Control_c, 0, 64, 61
1, 287245, Note_on_c, 0, 67, 45
1, 287246, Note_on_c, 0, 70, 48
1, 287319, Control_c, 0, 64, 61
1, 287408, Control_c, 0, 64, 62
1, 287445, Control_c, 0, 64, 62
1, 287464, Note_on_c, 0, 77, 67
1, 287470, Note_on_c, 0, 61, 46
1, 287503, Note_off_c, 0, 67, 38
1, 287503, Control_c, 0, 64, 63
1, 287524, Note_off_c, 0, 70, 63
1, 287563, Control_c, 0, 64, 63
1, 287637, Control_c, 0, 67, 46
1, 287662, Note_on_c, 0, 67, 46
1, 287663, Note_on_c, 0, 76, 73
1, 287667, Control_c, 0, 67, 46
1, 287668, Note_off_c, 0, 79, 50
1, 287675, Note_on_c, 0, 70, 53
1, 287697, Control_c, 0, 67, 47
1, 287703, Note_off_c, 0, 61, 58
1, 287726, Control_c, 0, 67, 48
1, 287741, Control_c, 0, 67, 48
1, 287756, Control_c, 0, 67, 49
1, 287769, Note_off_c, 0, 77, 54
1, 287785, Control_c, 0, 67, 49
1, 287800, Control_c, 0, 67, 50
1, 287830, Control_c, 0, 67, 50
1, 287857, Note_off_c, 0, 70, 60
1, 287870, Note_on_c, 0, 61, 62
1, 287896, Note_off_c, 0, 76, 59
1, 287925, Note_off_c, 0, 67, 55
1, 288007, Control_c, 0, 64, 63
1, 288065, Note_on_c, 0, 76, 66
1, 288072, Note_on_c, 0, 70, 59
1, 288086, Note_on_c, 0, 67, 54
1, 288171, Note_off_c, 0, 61, 61
1, 288304, Note_on_c, 0, 61, 67
1, 288371, Control_c, 0, 67, 50
1, 288396, Note_off_c, 0, 67, 60
1, 288445, Control_c, 0, 67, 49
1, 288475, Control_c, 0, 67, 49
1, 288509, Note_on_c, 0, 67, 73
1, 288520, Control_c, 0, 67, 48
1, 288537, Note_off_c, 0, 70, 59
1, 288549, Control_c, 0, 64, 62
1, 288549, Control_c, 0, 67, 48
1, 288562, Note_off_c, 0, 61, 62
1, 288579, Control_c, 0, 67, 47
1, 288608, Control_c, 0, 67, 47
1, 288610, Note_off_c, 0, 76, 57
1, 288623, Control_c, 0, 67, 46
1, 288653, Control_c, 0, 67, 46
1, 288682, Control_c, 0, 67, 45
1, 288690, Note_on_c, 0, 61, 72
1, 288697, Control_c, 0, 67, 45
1, 288712, Control_c, 0, 67, 44
1, 288726, Control_c, 0, 64, 62
1, 288726, Control_c, 0, 67, 43
1, 288736, Note_off_c, 0, 67, 56
1, 288741, Control_c, 0, 67, 42
1, 288756, Control_c, 0, 67, 37
1, 288771, Control_c, 0, 64, 61
1, 288771, Control_c, 0, 67, 30
1, 288786, Control_c, 0, 67, 24
1, 288800, Control_c, 0, 67, 18
1, 288815, Control_c, 0, 64, 61
1, 288815, Control_c, 0, 67, 11
1, 288830, Control_c, 0, 67, 0
1, 288905, Control_c, 0, 64, 61
1, 288950, Note_on_c, 0, 79, 75
1, 288951, Note_on_c, 0, 70, 63
1, 288959, Note_on_c, 0, 67, 53
1, 288987, Control_c, 0, 64, 62
1, 289038, Note_off_c, 0, 61, 57
1, 289175, Note_on_c, 0, 60, 68
1, 289180, Note_on_c, 0, 77, 80
1, 289226, Note_off_c, 0, 67, 57
1, 289260, Note_off_c, 0, 70, 61
1, 289268, Control_c, 0, 64, 62
1, 289357, Control_c, 0, 64, 63
1, 289362, Note_off_c, 0, 79, 60
1, 289374, Note_on_c, 0, 76, 76
1, 289382, Note_on_c, 0, 70, 71
1, 289387, Note_on_c, 0, 67, 63
1, 289402, Control_c, 0, 64, 63
1, 289440, Note_off_c, 0, 77, 58
1, 289456, Note_off_c, 0, 60, 63
1, 289460, Control_c, 0, 64, 64
1, 289548, Control_c, 0, 64, 64
1, 289567, Note_off_c, 0, 70, 57
1, 289579, Note_on_c, 0, 60, 68
1, 289611, Note_off_c, 0, 76, 60
1, 289622, Note_off_c, 0, 67, 57
1, 289653, Control_c, 0, 64, 65
1, 289802, Note_on_c, 0, 67, 61
1, 289809, Note_on_c, 0, 76, 77
1, 289812, Note_on_c, 0, 70, 67
1, 289876, Note_off_c, 0, 60, 62
1, 289971, Control_c, 0, 64, 64
1, 290018, Note_on_c, 0, 60, 60
1, 290067, Note_off_c, 0, 67, 58
1, 290150, Control_c, 0, 64, 64
1, 290158, Note_off_c, 0, 70, 63
1, 290165, Control_c, 0, 64, 62
1, 290179, Control_c, 0, 64, 56
1, 290194, Control_c, 0, 64, 35
1, 290210, Control_c, 0, 64, 0
1, 290238, Note_on_c, 0, 67, 65
1, 290308, Note_off_c, 0, 60, 62
1, 290377, Note_off_c, 0, 76, 48
1, 290470, Control_c, 0, 64, 64
1, 290473, Note_on_c, 0, 60, 70
1, 290484, Control_c, 0, 64, 70
1, 290499, Control_c, 0, 64, 79
1, 290514, Control_c, 0, 64, 94
1, 290517, Note_off_c, 0, 67, 61
1, 290529, Control_c, 0, 64, 127
1, 290586, Note_off_c, 0, 60, 56
1, 290673, Note_on_c, 0, 60, 52
1, 290720, Note_on_c, 0, 64, 51
1, 290755, Note_on_c, 0, 67, 62
1, 290786, Note_on_c, 0, 76, 61
1, 290812, Note_on_c, 0, 70, 65
1, 290812, Note_on_c, 0, 79, 66
1, 290856, Note_on_c, 0, 82, 79
1, 290934, Note_on_c, 0, 86, 85
1, 291085, Note_off_c, 0, 82, 56
1, 291180, Note_off_c, 0, 79, 58
1, 291203, Note_off_c, 0, 76, 60
1, 291766, Note_on_c, 0, 85, 68
1, 291861, Note_off_c, 0, 86, 63
1, 292037, Note_on_c, 0, 86, 79
1, 292091, Note_off_c, 0, 85, 62
1, 292231, Note_on_c, 0, 85, 81
1, 292278, Note_off_c, 0, 86, 63
1, 292413, Note_on_c, 0, 86, 84
1, 292448, Note_off_c, 0, 85, 63
1, 292640, Note_on_c, 0, 85, 76
1, 292688, Note_off_c, 0, 86, 63
1, 292843, Note_on_c, 0, 86, 85
1, 292878, Control_c, 0, 64, 114
1, 292893, Control_c, 0, 64, 106
1, 292908, Control_c, 0, 64, 99
1, 292919, Note_off_c, 0, 85, 54
1, 292922, Control_c, 0, 64, 93
1, 292937, Control_c, 0, 64, 88
1, 292952, Control_c, 0, 64, 83
1, 292966, Note_off_c, 0, 60, 34
1, 292967, Control_c, 0, 64, 78
1, 292982, Control_c, 0, 64, 72
1, 292996, Control_c, 0, 64, 67
1, 293009, Note_off_c, 0, 70, 55
1, 293011, Control_c, 0, 64, 64
1, 293015, Note_off_c, 0, 64, 37
1, 293018, Note_off_c, 0, 67, 38
1, 293026, Control_c, 0, 64, 63
1, 293040, Note_on_c, 0, 88, 68
1, 293070, Control_c, 0, 64, 63
1, 293078, Note_off_c, 0, 86, 63
1, 293085, Control_c, 0, 64, 62
1, 293100, Control_c, 0, 64, 61
1, 293114, Control_c, 0, 64, 61
1, 293129, Control_c, 0, 64, 60
1, 293144, Control_c, 0, 64, 60
1, 293159, Control_c, 0, 64, 59
1, 293174, Control_c, 0, 64, 59
1, 293188, Control_c, 0, 64, 58
1, 293203, Control_c, 0, 64, 57
1, 293219, Control_c, 0, 64, 57
1, 293234, Control_c, 0, 64, 56
1, 293244, Note_on_c, 0, 86, 75
1, 293249, Control_c, 0, 64, 56
1, 293263, Control_c, 0, 64, 55
1, 293278, Control_c, 0, 64, 54
1, 293293, Control_c, 0, 64, 53
1, 293308, Control_c, 0, 64, 52
1, 293322, Control_c, 0, 64, 51
1, 293337, Control_c, 0, 64, 50
1, 293352, Control_c, 0, 64, 49
1, 293367, Control_c, 0, 64, 49
1, 293396, Control_c, 0, 64, 48
1, 293422, Note_off_c, 0, 88, 44
1, 293434, Control_c, 0, 64, 48
1, 293444, Note_on_c, 0, 84, 63
1, 293463, Control_c, 0, 67, 8
1, 293470, Note_off_c, 0, 86, 62
1, 293478, Control_c, 0, 67, 8
1, 293493, Control_c, 0, 67, 9
1, 293522, Control_c, 0, 67, 9
1, 293537, Control_c, 0, 67, 10
1, 293582, Control_c, 0, 67, 10
1, 293596, Control_c, 0, 67, 11
1, 293611, Control_c, 0, 67, 11
1, 293626, Control_c, 0, 67, 12
1, 293641, Control_c, 0, 67, 13
1, 293647, Note_on_c, 0, 82, 67
1, 293655, Note_off_c, 0, 84, 61
1, 293657, Control_c, 0, 67, 14
1, 293672, Control_c, 0, 67, 15
1, 293687, Control_c, 0, 67, 16
1, 293701, Control_c, 0, 67, 16
1, 293716, Control_c, 0, 67, 17
1, 293731, Control_c, 0, 67, 18
1, 293745, Control_c, 0, 67, 19
1, 293760, Control_c, 0, 67, 20
1, 293775, Control_c, 0, 67, 21
1, 293790, Control_c, 0, 67, 22
1, 293805, Control_c, 0, 67, 23
1, 293820, Control_c, 0, 67, 24
1, 293835, Control_c, 0, 67, 26
1, 293850, Control_c, 0, 64, 47
1, 293850, Control_c, 0, 67, 27
1, 293853, Note_on_c, 0, 81, 58
1, 293864, Control_c, 0, 64, 44
1, 293864, Control_c, 0, 67, 28
1, 293879, Control_c, 0, 64, 36
1, 293879, Control_c, 0, 67, 30
1, 293894, Control_c, 0, 64, 0
1, 293894, Control_c, 0, 67, 32
1, 293909, Control_c, 0, 67, 34
1, 293909, Note_off_c, 0, 82, 56
1, 293924, Control_c, 0, 67, 36
1, 293938, Control_c, 0, 67, 38
1, 293953, Control_c, 0, 67, 41
1, 293968, Control_c, 0, 67, 44
1, 293983, Control_c, 0, 67, 46
1, 293998, Control_c, 0, 67, 49
1, 294012, Control_c, 0, 67, 51
1, 294027, Control_c, 0, 67, 52
1, 294042, Control_c, 0, 67, 53
1, 294082, Note_on_c, 0, 79, 60
1, 294086, Control_c, 0, 64, 11
1, 294086, Control_c, 0, 67, 52
1, 294097, Note_off_c, 0, 81, 61
1, 294101, Control_c, 0, 64, 63
1, 294101, Control_c, 0, 67, 51
1, 294116, Control_c, 0, 64, 69
1, 294116, Control_c, 0, 67, 50
1, 294131, Control_c, 0, 64, 76
1, 294131, Control_c, 0, 67, 49
1, 294145, Control_c, 0, 64, 87
1, 294168, Control_c, 0, 64, 96
1, 294168, Control_c, 0, 67, 48
1, 294183, Control_c, 0, 64, 106
1, 294195, Note_off_c, 0, 79, 58
1, 294198, Control_c, 0, 64, 115
1, 294213, Control_c, 0, 64, 127
1, 294271, Control_c, 0, 67, 49
1, 294286, Control_c, 0, 67, 49
1, 294301, Control_c, 0, 67, 50
1, 294316, Control_c, 0, 67, 50
1, 294331, Note_on_c, 0, 79, 54
1, 294331, Control_c, 0, 67, 51
1, 294345, Control_c, 0, 67, 51
1, 294360, Control_c, 0, 67, 52
1, 294375, Control_c, 0, 67, 52
1, 294390, Control_c, 0, 67, 53
1, 294405, Control_c, 0, 67, 53
1, 294419, Control_c, 0, 64, 114
1, 294419, Control_c, 0, 67, 54
1, 294434, Control_c, 0, 64, 105
1, 294434, Control_c, 0, 67, 57
1, 294450, Control_c, 0, 64, 98
1, 294450, Control_c, 0, 67, 61
1, 294465, Control_c, 0, 64, 92
1, 294465, Control_c, 0, 67, 64
1, 294480, Control_c, 0, 64, 86
1, 294480, Control_c, 0, 67, 68
1, 294494, Control_c, 0, 64, 81
1, 294494, Control_c, 0, 67, 71
1, 294509, Control_c, 0, 64, 76
1, 294509, Control_c, 0, 67, 74
1, 294524, Control_c, 0, 64, 70
1, 294524, Control_c, 0, 67, 78
1, 294539, Control_c, 0, 64, 65
1, 294539, Control_c, 0, 67, 81
1, 294554, Control_c, 0, 64, 63
1, 294554, Control_c, 0, 67, 85
1, 294568, Control_c, 0, 64, 63
1, 294568, Control_c, 0, 67, 89
1, 294583, Control_c, 0, 67, 92
1, 294598, Control_c, 0, 67, 96
1, 294608, Note_on_c, 0, 77, 44
1, 294613, Control_c, 0, 64, 62
1, 294613, Control_c, 0, 67, 100
1, 294628, Control_c, 0, 64, 62
1, 294628, Control_c, 0, 67, 104
1, 294643, Control_c, 0, 64, 61
1, 294643, Control_c, 0, 67, 107
1, 294657, Control_c, 0, 64, 60
1, 294657, Control_c, 0, 67, 110
1, 294658, Note_off_c, 0, 79, 48
1, 294672, Control_c, 0, 64, 60
1, 294672, Control_c, 0, 67, 113
1, 294687, Control_c, 0, 64, 59
1, 294687, Control_c, 0, 67, 117
1, 294702, Control_c, 0, 64, 59
1, 294702, Control_c, 0, 67, 120
1, 294717, Control_c, 0, 64, 58
1, 294717, Control_c, 0, 67, 124
1, 294732, Control_c, 0, 64, 57
1, 294732, Control_c, 0, 67, 127
1, 294747, Control_c, 0, 64, 56
1, 294747, Control_c, 0, 67, 127
1, 294761, Control_c, 0, 64, 55
1, 294776, Control_c, 0, 64, 55
1, 294791, Control_c, 0, 64, 54
1, 294806, Control_c, 0, 64, 53
1, 294821, Control_c, 0, 64, 51
1, 294835, Control_c, 0, 64, 51
1, 294850, Control_c, 0, 64, 50
1, 294865, Control_c, 0, 64, 49
1, 294872, Note_on_c, 0, 60, 26
1, 294876, Note_on_c, 0, 76, 47
1, 294880, Control_c, 0, 64, 48
1, 294883, Note_on_c, 0, 67, 39
1, 294889, Note_on_c, 0, 70, 31
1, 294894, Control_c, 0, 64, 47
1, 294909, Control_c, 0, 64, 47
1, 294926, Note_off_c, 0, 77, 37
1, 294947, Control_c, 0, 64, 46
1, 295151, Note_off_c, 0, 70, 53
1, 295154, Note_off_c, 0, 76, 50
1, 295174, Note_off_c, 0, 67, 52
1, 295183, Control_c, 0, 64, 47
1, 295185, Note_off_c, 0, 60, 46
1, 295198, Control_c, 0, 64, 48
1, 295212, Control_c, 0, 64, 49
1, 295244, Control_c, 0, 64, 49
1, 295259, Control_c, 0, 64, 50
1, 295273, Control_c, 0, 64, 50
1, 295288, Control_c, 0, 64, 51
1, 295317, Control_c, 0, 64, 52
1, 295332, Control_c, 0, 64, 52
1, 295347, Control_c, 0, 64, 53
1, 295362, Control_c, 0, 64, 53
1, 295377, Control_c, 0, 64, 54
1, 295391, Control_c, 0, 64, 55
1, 295406, Control_c, 0, 64, 56
1, 295421, Control_c, 0, 64, 57
1, 295436, Control_c, 0, 64, 57
1, 295451, Control_c, 0, 64, 58
1, 295465, Control_c, 0, 64, 59
1, 295480, Control_c, 0, 64, 59
1, 295495, Control_c, 0, 64, 60
1, 295510, Control_c, 0, 64, 61
1, 295525, Control_c, 0, 64, 61
1, 295555, Control_c, 0, 64, 62
1, 295584, Control_c, 0, 64, 62
1, 295614, Control_c, 0, 64, 63
1, 295629, Control_c, 0, 64, 63
1, 295635, Note_on_c, 0, 76, 38
1, 295648, Note_on_c, 0, 60, 24
1, 295659, Note_on_c, 0, 70, 28
1, 295672, Note_on_c, 0, 67, 31
1, 295680, Control_c, 0, 64, 64
1, 295710, Control_c, 0, 64, 64
1, 295739, Control_c, 0, 64, 65
1, 295754, Control_c, 0, 64, 65
1, 295769, Control_c, 0, 64, 66
1, 295784, Control_c, 0, 64, 66
1, 295799, Control_c, 0, 64, 67
1, 295814, Control_c, 0, 64, 67
1, 295829, Control_c, 0, 64, 68
1, 295843, Control_c, 0, 64, 68
1, 295858, Control_c, 0, 64, 69
1, 295873, Control_c, 0, 64, 70
1, 295888, Control_c, 0, 64, 70
1, 295903, Control_c, 0, 64, 71
1, 295917, Control_c, 0, 64, 72
1, 295932, Control_c, 0, 64, 73
1, 295947, Control_c, 0, 64, 75
1, 295962, Control_c, 0, 64, 77
1, 295977, Control_c, 0, 64, 79
1, 295991, Control_c, 0, 64, 81
1, 296006, Control_c, 0, 64, 83
1, 296021, Control_c, 0, 64, 84
1, 296037, Control_c, 0, 64, 87
1, 296052, Control_c, 0, 64, 90
1, 296067, Control_c, 0, 64, 93
1, 296082, Control_c, 0, 64, 96
1, 296096, Control_c, 0, 64, 98
1, 296111, Control_c, 0, 64, 101
1, 296126, Control_c, 0, 64, 104
1, 296140, Control_c, 0, 64, 109
1, 296155, Control_c, 0, 64, 114
1, 296170, Control_c, 0, 64, 123
1, 296185, Control_c, 0, 64, 127
1, 296771, Note_off_c, 0, 60, 33
1, 296881, Note_off_c, 0, 67, 29
1, 296942, Note_off_c, 0, 70, 38
1, 296991, Note_off_c, 0, 76, 36
1, 297504, Control_c, 0, 64, 118
1, 297519, Control_c, 0, 64, 112
1, 297534, Control_c, 0, 64, 108
1, 297549, Control_c, 0, 64, 105
1, 297563, Control_c, 0, 64, 102
1, 297578, Control_c, 0, 64, 98
1, 297593, Control_c, 0, 64, 96
1, 297608, Control_c, 0, 64, 93
1, 297622, Control_c, 0, 64, 90
1, 297638, Control_c, 0, 64, 87
1, 297653, Control_c, 0, 64, 85
1, 297668, Control_c, 0, 64, 81
1, 297683, Control_c, 0, 64, 77
1, 297698, Control_c, 0, 64, 73
1, 297712, Control_c, 0, 64, 68
1, 297727, Control_c, 0, 64, 64
1, 297742, Control_c, 0, 64, 62
1, 297772, Control_c, 0, 64, 62
1, 297801, Control_c, 0, 64, 61
1, 297816, Control_c, 0, 64, 61
1, 297831, Control_c, 0, 64, 60
1, 297846, Control_c, 0, 64, 60
1, 297875, Control_c, 0, 64, 59
1, 297890, Control_c, 0, 64, 59
1, 297912, Control_c, 0, 64, 58
1, 297942, Control_c, 0, 64, 58
1, 298179, Control_c, 0, 64, 58
1, 298401, Control_c, 0, 64, 58
1, 298416, Control_c, 0, 64, 57
1, 298431, Control_c, 0, 64, 57
1, 298446, Control_c, 0, 64, 56
1, 298461, Control_c, 0, 64, 56
1, 298476, Control_c, 0, 64, 55
1, 298491, Control_c, 0, 64, 54
1, 298506, Control_c, 0, 64, 54
1, 298521, Control_c, 0, 64, 53
1, 298550, Control_c, 0, 64, 53
1, 298928, Control_c, 0, 64, 53
1, 299060, Control_c, 0, 64, 54
1, 299084, Note_on_c, 0, 53, 33
1, 299255, Control_c, 0, 64, 54
1, 299342, Note_on_c, 0, 57, 42
1, 299350, Note_off_c, 0, 53, 48
1, 299373, Control_c, 0, 64, 55
1, 299433, Note_off_c, 0, 57, 55
1, 299455, Control_c, 0, 64, 55
1, 299521, Note_on_c, 0, 60, 47
1, 299557, Note_off_c, 0, 60, 63
1, 299573, Control_c, 0, 64, 56
1, 299666, Note_on_c, 0, 65, 51
1, 299702, Note_off_c, 0, 65, 60
1, 299805, Note_on_c, 0, 64, 53
1, 299830, Note_off_c, 0, 64, 61
1, 299870, Control_c, 0, 64, 55
1, 299922, Note_on_c, 0, 62, 56
1, 299929, Control_c, 0, 64, 55
1, 299960, Note_off_c, 0, 62, 60
1, 299972, Control_c, 0, 64, 54
1, 300052, Note_on_c, 0, 33, 43
1, 300059, Note_on_c, 0, 45, 39
1, 300059, Note_on_c, 0, 60, 56
1, 300108, Note_off_c, 0, 60, 56
1, 300192, Note_on_c, 0, 62, 41
1, 300226, Note_off_c, 0, 62, 52
1, 300303, Note_on_c, 0, 64, 56
1, 300337, Note_off_c, 0, 64, 62
1, 300399, Note_off_c, 0, 33, 41
1, 300405, Note_off_c, 0, 45, 50
1, 300418, Note_on_c, 0, 65, 63
1, 300454, Note_off_c, 0, 65, 63
1, 300514, Control_c, 0, 64, 54
1, 300530, Note_on_c, 0, 64, 71
1, 300565, Note_off_c, 0, 64, 61
1, 300588, Control_c, 0, 64, 53
1, 300652, Note_on_c, 0, 62, 71
1, 300704, Note_off_c, 0, 62, 56
1, 300777, Note_on_c, 0, 45, 52
1, 300778, Note_on_c, 0, 33, 50
1, 300778, Note_on_c, 0, 60, 69
1, 300843, Note_off_c, 0, 60, 59
1, 300885, Note_on_c, 0, 62, 76
1, 300945, Note_off_c, 0, 62, 58
1, 301007, Note_on_c, 0, 64, 77
1, 301055, Note_off_c, 0, 64, 62
1, 301106, Note_off_c, 0, 45, 53
1, 301121, Note_on_c, 0, 65, 76
1, 301143, Note_off_c, 0, 33, 53
1, 301161, Note_off_c, 0, 65, 60
1, 301225, Note_on_c, 0, 64, 74
1, 301233, Control_c, 0, 64, 53
1, 301263, Note_off_c, 0, 64, 61
1, 301278, Control_c, 0, 64, 52
1, 301293, Control_c, 0, 64, 50
1, 301308, Control_c, 0, 64, 49
1, 301323, Control_c, 0, 64, 48
1, 301337, Control_c, 0, 64, 46
1, 301344, Note_on_c, 0, 62, 71
1, 301352, Control_c, 0, 64, 42
1, 301367, Control_c, 0, 64, 33
1, 301382, Control_c, 0, 64, 0
1, 301388, Note_off_c, 0, 62, 55
1, 301454, Note_on_c, 0, 60, 62
1, 301491, Note_off_c, 0, 60, 64
1, 301557, Note_on_c, 0, 58, 66
1, 301595, Note_off_c, 0, 58, 58
1, 301686, Note_on_c, 0, 57, 62
1, 301722, Note_off_c, 0, 57, 60
1, 301797, Note_on_c, 0, 55, 51
1, 301828, Note_off_c, 0, 55, 65
1, 301902, Note_on_c, 0, 53, 56
1, 301940, Note_off_c, 0, 53, 64
1, 302009, Note_on_c, 0, 52, 55
1, 302044, Note_off_c, 0, 52, 62
1, 302142, Note_on_c, 0, 50, 51
1, 302264, Note_off_c, 0, 50, 58
1, 302271, Note_on_c, 0, 54, 57
1, 302317, Note_off_c, 0, 54, 62
1, 302394, Note_on_c, 0, 55, 68
1, 302433, Note_off_c, 0, 55, 64
1, 302516, Note_on_c, 0, 57, 69
1, 302567, Note_off_c, 0, 57, 59
1, 302629, Note_on_c, 0, 58, 66
1, 302660, Note_off_c, 0, 58, 63
1, 302730, Note_on_c, 0, 61, 70
1, 302762, Note_off_c, 0, 61, 62
1, 302840, Note_on_c, 0, 62, 68
1, 302843, Note_on_c, 0, 34, 56
1, 302846, Note_on_c, 0, 46, 55
1, 302901, Note_off_c, 0, 62, 56
1, 302950, Note_on_c, 0, 66, 65
1, 302982, Note_off_c, 0, 66, 61
1, 303056, Note_on_c, 0, 67, 75
1, 303088, Note_off_c, 0, 67, 60
1, 303177, Note_on_c, 0, 69, 75
1, 303197, Note_off_c, 0, 34, 56
1, 303213, Note_off_c, 0, 46, 61
1, 303234, Note_off_c, 0, 69, 59
1, 303288, Control_c, 0, 64, 17
1, 303303, Control_c, 0, 64, 21
1, 303318, Control_c, 0, 64, 24
1, 303332, Control_c, 0, 64, 26
1, 303333, Note_on_c, 0, 71, 6
1, 303362, Control_c, 0, 64, 27
1, 303368, Note_off_c, 0, 71, 30
1, 303386, Note_on_c, 0, 73, 68
1, 303409, Note_off_c, 0, 73, 68
1, 303483, Note_on_c, 0, 46, 58
1, 303483, Note_on_c, 0, 74, 69
1, 303484, Note_on_c, 0, 34, 59
1, 303496, Control_c, 0, 64, 31
1, 303511, Control_c, 0, 64, 37
1, 303525, Control_c, 0, 64, 42
1, 303532, Note_off_c, 0, 74, 60
1, 303540, Control_c, 0, 64, 44
1, 303555, Control_c, 0, 64, 46
1, 303570, Control_c, 0, 64, 47
1, 303582, Note_on_c, 0, 78, 69
1, 303585, Control_c, 0, 64, 48
1, 303599, Control_c, 0, 64, 49
1, 303614, Control_c, 0, 64, 50
1, 303618, Note_off_c, 0, 78, 60
1, 303629, Control_c, 0, 64, 51
1, 303644, Control_c, 0, 64, 51
1, 303658, Control_c, 0, 64, 52
1, 303673, Control_c, 0, 64, 53
1, 303688, Control_c, 0, 64, 54
1, 303693, Note_on_c, 0, 79, 81
1, 303703, Control_c, 0, 64, 55
1, 303718, Control_c, 0, 64, 56
1, 303732, Control_c, 0, 64, 56
1, 303735, Note_off_c, 0, 79, 60
1, 303762, Control_c, 0, 64, 57
1, 303776, Control_c, 0, 64, 58
1, 303791, Control_c, 0, 64, 59
1, 303791, Control_c, 0, 67, 122
1, 303803, Note_on_c, 0, 81, 86
1, 303806, Control_c, 0, 64, 59
1, 303806, Control_c, 0, 67, 115
1, 303821, Control_c, 0, 64, 60
1, 303821, Control_c, 0, 67, 106
1, 303836, Control_c, 0, 64, 60
1, 303836, Control_c, 0, 67, 96
1, 303851, Control_c, 0, 64, 61
1, 303851, Control_c, 0, 67, 84
1, 303857, Note_off_c, 0, 81, 64
1, 303865, Control_c, 0, 64, 62
1, 303865, Control_c, 0, 67, 71
1, 303880, Control_c, 0, 64, 63
1, 303880, Control_c, 0, 67, 59
1, 303888, Note_off_c, 0, 34, 59
1, 303903, Control_c, 0, 64, 63
1, 303903, Control_c, 0, 67, 47
1, 303918, Control_c, 0, 67, 40
1, 303923, Note_on_c, 0, 82, 82
1, 303928, Note_off_c, 0, 46, 60
1, 303932, Control_c, 0, 64, 64
1, 303932, Control_c, 0, 67, 34
1, 303947, Control_c, 0, 64, 64
1, 303947, Control_c, 0, 67, 29
1, 303962, Control_c, 0, 67, 26
1, 303967, Note_off_c, 0, 82, 63
1, 303977, Control_c, 0, 64, 65
1, 303977, Control_c, 0, 67, 25
1, 304006, Control_c, 0, 64, 65
1, 304037, Control_c, 0, 64, 66
1, 304040, Note_on_c, 0, 85, 79
1, 304062, Note_off_c, 0, 85, 67
1, 304081, Control_c, 0, 64, 66
1, 304111, Control_c, 0, 64, 66
1, 304170, Control_c, 0, 64, 65
1, 304181, Note_on_c, 0, 86, 75
1, 304301, Note_on_c, 0, 82, 88
1, 304338, Note_off_c, 0, 86, 63
1, 304410, Note_off_c, 0, 82, 62
1, 304411, Note_on_c, 0, 79, 83
1, 304466, Control_c, 0, 64, 66
1, 304475, Note_off_c, 0, 79, 60
1, 304533, Note_on_c, 0, 86, 78
1, 304540, Control_c, 0, 64, 66
1, 304668, Note_on_c, 0, 82, 87
1, 304710, Control_c, 0, 64, 66
1, 304743, Note_off_c, 0, 86, 60
1, 304787, Note_on_c, 0, 79, 83
1, 304822, Note_off_c, 0, 82, 58
1, 304927, Note_off_c, 0, 79, 63
1, 304935, Note_on_c, 0, 48, 70
1, 304936, Note_on_c, 0, 57, 58
1, 304942, Note_on_c, 0, 60, 72
1, 304947, Note_on_c, 0, 53, 65
1, 305166, Note_on_c, 0, 81, 76
1, 305214, Control_c, 0, 64, 65
1, 305337, Note_on_c, 0, 79, 81
1, 305469, Note_off_c, 0, 81, 61
1, 305470, Note_on_c, 0, 77, 85
1, 305576, Control_c, 0, 64, 65
1, 305583, Note_off_c, 0, 79, 61
1, 305590, Note_on_c, 0, 76, 87
1, 305660, Note_off_c, 0, 77, 40
1, 305666, Control_c, 0, 64, 64
1, 305709, Note_off_c, 0, 76, 64
1, 305711, Control_c, 0, 67, 25
1, 305715, Note_on_c, 0, 74, 88
1, 305740, Control_c, 0, 67, 26
1, 305770, Control_c, 0, 67, 26
1, 305785, Control_c, 0, 67, 27
1, 305815, Control_c, 0, 67, 27
1, 305844, Control_c, 0, 67, 28
1, 305859, Control_c, 0, 64, 65
1, 305859, Control_c, 0, 67, 28
1, 305870, Note_on_c, 0, 71, 71
1, 305870, Note_off_c, 0, 74, 59
1, 305889, Control_c, 0, 67, 29
1, 305949, Control_c, 0, 67, 29
1, 306018, Note_on_c, 0, 72, 72
1, 306020, Note_off_c, 0, 71, 61
1, 306082, Control_c, 0, 67, 30
1, 306104, Note_off_c, 0, 72, 60
1, 306129, Note_on_c, 0, 77, 74
1, 306149, Control_c, 0, 67, 30
1, 306164, Control_c, 0, 67, 31
1, 306178, Control_c, 0, 67, 31
1, 306223, Control_c, 0, 67, 32
1, 306238, Control_c, 0, 67, 32
1, 306252, Control_c, 0, 67, 33
1, 306259, Note_on_c, 0, 68, 79
1, 306267, Control_c, 0, 67, 33
1, 306282, Control_c, 0, 67, 34
1, 306286, Note_off_c, 0, 77, 57
1, 306312, Control_c, 0, 67, 34
1, 306326, Control_c, 0, 67, 35
1, 306341, Control_c, 0, 67, 35
1, 306356, Control_c, 0, 67, 36
1, 306370, Control_c, 0, 67, 36
1, 306375, Note_on_c, 0, 69, 76
1, 306385, Control_c, 0, 67, 37
1, 306388, Note_off_c, 0, 68, 60
1, 306400, Control_c, 0, 67, 41
1, 306415, Control_c, 0, 67, 44
1, 306431, Control_c, 0, 67, 48
1, 306446, Control_c, 0, 67, 53
1, 306461, Control_c, 0, 67, 57
1, 306475, Note_off_c, 0, 69, 56
1, 306475, Control_c, 0, 67, 62
1, 306490, Control_c, 0, 67, 67
1, 306495, Note_on_c, 0, 72, 72
1, 306505, Control_c, 0, 67, 72
1, 306520, Control_c, 0, 67, 76
1, 306535, Control_c, 0, 67, 79
1, 306549, Control_c, 0, 67, 82
1, 306564, Control_c, 0, 67, 84
1, 306579, Control_c, 0, 67, 85
1, 306584, Note_off_c, 0, 72, 63
1, 306594, Control_c, 0, 67, 85
1, 306622, Note_on_c, 0, 64, 71
1, 306623, Note_off_c, 0, 48, 32
1, 306696, Note_off_c, 0, 60, 61
1, 306697, Control_c, 0, 67, 85
1, 306708, Note_off_c, 0, 53, 35
1, 306738, Note_on_c, 0, 65, 73
1, 306742, Control_c, 0, 67, 84
1, 306757, Note_off_c, 0, 64, 58
1, 306779, Note_off_c, 0, 57, 55
1, 306786, Control_c, 0, 67, 84
1, 306800, Control_c, 0, 67, 83
1, 306815, Control_c, 0, 67, 83
1, 306830, Control_c, 0, 64, 64
1, 306845, Control_c, 0, 67, 82
1, 306853, Note_on_c, 0, 69, 72
1, 306865, Note_off_c, 0, 65, 54
1, 306874, Control_c, 0, 67, 82
1, 306889, Control_c, 0, 67, 81
1, 306927, Control_c, 0, 67, 81
1, 306942, Control_c, 0, 67, 80
1, 306963, Note_off_c, 0, 69, 59
1, 306974, Note_on_c, 0, 59, 72
1, 306986, Control_c, 0, 64, 64
1, 306986, Control_c, 0, 67, 80
1, 307030, Control_c, 0, 67, 79
1, 307045, Control_c, 0, 67, 79
1, 307087, Note_on_c, 0, 60, 72
1, 307118, Note_off_c, 0, 59, 56
1, 307192, Note_off_c, 0, 60, 65
1, 307192, Control_c, 0, 67, 79
1, 307208, Note_on_c, 0, 65, 69
1, 307238, Control_c, 0, 67, 80
1, 307312, Control_c, 0, 67, 80
1, 307344, Note_on_c, 0, 56, 66
1, 307376, Note_off_c, 0, 65, 56
1, 307386, Control_c, 0, 67, 81
1, 307461, Note_off_c, 0, 56, 63
1, 307463, Note_on_c, 0, 57, 60
1, 307490, Control_c, 0, 67, 81
1, 307505, Control_c, 0, 64, 63
1, 307550, Control_c, 0, 67, 82
1, 307559, Note_off_c, 0, 57, 60
1, 307577, Note_on_c, 0, 60, 64
1, 307594, Control_c, 0, 64, 63
1, 307594, Control_c, 0, 67, 82
1, 307623, Control_c, 0, 67, 83
1, 307645, Control_c, 0, 64, 62
1, 307660, Control_c, 0, 67, 83
1, 307675, Control_c, 0, 67, 84
1, 307678, Note_off_c, 0, 60, 63
1, 307690, Control_c, 0, 64, 62
1, 307715, Note_on_c, 0, 52, 58
1, 307720, Control_c, 0, 67, 84
1, 307735, Control_c, 0, 64, 61
1, 307764, Control_c, 0, 64, 61
1, 307764, Control_c, 0, 67, 85
1, 307779, Control_c, 0, 64, 60
1, 307794, Control_c, 0, 67, 85
1, 307823, Control_c, 0, 64, 60
1, 307834, Note_off_c, 0, 52, 57
1, 307836, Note_on_c, 0, 53, 62
1, 307838, Control_c, 0, 67, 86
1, 307853, Control_c, 0, 64, 59
1, 307868, Control_c, 0, 67, 86
1, 307883, Control_c, 0, 67, 87
1, 307897, Control_c, 0, 67, 89
1, 307912, Control_c, 0, 67, 93
1, 307927, Control_c, 0, 67, 95
1, 307941, Control_c, 0, 67, 98
1, 307956, Control_c, 0, 67, 100
1, 307964, Note_off_c, 0, 53, 58
1, 307966, Note_on_c, 0, 57, 57
1, 307971, Control_c, 0, 67, 102
1, 307986, Control_c, 0, 67, 105
1, 308001, Control_c, 0, 67, 109
1, 308017, Control_c, 0, 64, 59
1, 308017, Control_c, 0, 67, 113
1, 308032, Control_c, 0, 67, 116
1, 308046, Control_c, 0, 67, 119
1, 308061, Control_c, 0, 64, 58
1, 308061, Control_c, 0, 67, 123
1, 308076, Control_c, 0, 67, 126
1, 308091, Control_c, 0, 67, 127
1, 308106, Control_c, 0, 64, 58
1, 308120, Control_c, 0, 64, 57
1, 308150, Control_c, 0, 64, 57
1, 308161, Note_on_c, 0, 48, 57
1, 308165, Control_c, 0, 64, 56
1, 308180, Control_c, 0, 64, 56
1, 308194, Control_c, 0, 64, 55
1, 308209, Control_c, 0, 64, 55
1, 308215, Note_off_c, 0, 57, 52
1, 308224, Control_c, 0, 64, 54
1, 308238, Control_c, 0, 64, 53
1, 308253, Control_c, 0, 64, 52
1, 308268, Control_c, 0, 64, 50
1, 308283, Control_c, 0, 64, 47
1, 308298, Control_c, 0, 64, 43
1, 308313, Control_c, 0, 64, 33
1, 308328, Control_c, 0, 64, 0
1, 308689, Note_on_c, 0, 36, 43
1, 308720, Control_c, 0, 64, 17
1, 308735, Control_c, 0, 64, 37
1, 308750, Control_c, 0, 64, 47
1, 308765, Control_c, 0, 64, 55
1, 308779, Control_c, 0, 64, 60
1, 308794, Control_c, 0, 64, 62
1, 308809, Control_c, 0, 64, 63
1, 308825, Control_c, 0, 64, 64
1, 308840, Control_c, 0, 64, 65
1, 308855, Control_c, 0, 64, 67
1, 308869, Control_c, 0, 64, 68
1, 308884, Control_c, 0, 64, 70
1, 308899, Control_c, 0, 64, 71
1, 308914, Control_c, 0, 64, 72
1, 308921, Note_off_c, 0, 36, 52
1, 308929, Control_c, 0, 64, 73
1, 308944, Control_c, 0, 64, 74
1, 308959, Control_c, 0, 64, 75
1, 308974, Control_c, 0, 64, 76
1, 308988, Control_c, 0, 64, 77
1, 309003, Control_c, 0, 64, 79
1, 309018, Control_c, 0, 64, 81
1, 309033, Control_c, 0, 64, 83
1, 309048, Control_c, 0, 64, 85
1, 309062, Control_c, 0, 64, 87
1, 309077, Control_c, 0, 64, 89
1, 309092, Control_c, 0, 64, 91
1, 309107, Control_c, 0, 64, 93
1, 309122, Control_c, 0, 64, 95
1, 309144, Control_c, 0, 64, 96
1, 309151, Note_on_c, 0, 36, 50
1, 309159, Control_c, 0, 64, 98
1, 309174, Control_c, 0, 64, 100
1, 309189, Control_c, 0, 64, 101
1, 309203, Control_c, 0, 64, 103
1, 309218, Control_c, 0, 64, 104
1, 309233, Control_c, 0, 64, 106
1, 309248, Control_c, 0, 64, 109
1, 309263, Control_c, 0, 64, 111
1, 309277, Control_c, 0, 64, 114
1, 309292, Control_c, 0, 64, 118
1, 309307, Control_c, 0, 64, 123
1, 309322, Control_c, 0, 64, 127
1, 309404, Note_off_c, 0, 36, 39
1, 309630, Note_on_c, 0, 36, 50
1, 309873, Note_off_c, 0, 36, 36
1, 309942, Note_off_c, 0, 48, 59
1, 309949, Note_on_c, 0, 46, 53
1, 310060, Note_off_c, 0, 46, 59
1, 310071, Control_c, 0, 64, 124
1, 310084, Note_on_c, 0, 48, 50
1, 310086, Control_c, 0, 64, 104
1, 310100, Control_c, 0, 64, 92
1, 310105, Note_on_c, 0, 36, 45
1, 310115, Control_c, 0, 64, 81
1, 310130, Control_c, 0, 64, 70
1, 310135, Note_off_c, 0, 48, 61
1, 310145, Control_c, 0, 64, 62
1, 310160, Control_c, 0, 64, 57
1, 310174, Control_c, 0, 64, 59
1, 310175, Note_on_c, 0, 46, 52
1, 310189, Control_c, 0, 64, 62
1, 310204, Control_c, 0, 64, 64
1, 310207, Note_off_c, 0, 46, 63
1, 310218, Control_c, 0, 64, 66
1, 310230, Note_on_c, 0, 48, 63
1, 310233, Control_c, 0, 64, 68
1, 310248, Control_c, 0, 64, 70
1, 310263, Note_off_c, 0, 48, 64
1, 310263, Control_c, 0, 64, 71
1, 310278, Control_c, 0, 64, 73
1, 310283, Note_on_c, 0, 46, 64
1, 310292, Control_c, 0, 64, 75
1, 310298, Note_off_c, 0, 36, 59
1, 310307, Control_c, 0, 64, 77
1, 310322, Control_c, 0, 64, 79
1, 310326, Note_off_c, 0, 46, 62
1, 310336, Note_on_c, 0, 48, 64
1, 310337, Control_c, 0, 64, 79
1, 310352, Control_c, 0, 64, 80
1, 310377, Note_off_c, 0, 48, 59
1, 310382, Control_c, 0, 64, 81
1, 310409, Note_on_c, 0, 46, 64
1, 310444, Note_off_c, 0, 46, 61
1, 310468, Note_on_c, 0, 48, 54
1, 310506, Note_off_c, 0, 48, 63
1, 310507, Note_on_c, 0, 36, 50
1, 310531, Note_on_c, 0, 46, 64
1, 310560, Control_c, 0, 64, 80
1, 310566, Note_off_c, 0, 46, 62
1, 310586, Note_on_c, 0, 48, 63
1, 310631, Note_off_c, 0, 48, 62
1, 310659, Note_on_c, 0, 46, 59
1, 310668, Note_off_c, 0, 36, 58
1, 310701, Note_off_c, 0, 46, 60
1, 310723, Note_on_c, 0, 48, 64
1, 310766, Note_off_c, 0, 48, 62
1, 310787, Note_on_c, 0, 46, 63
1, 310823, Note_off_c, 0, 46, 62
1, 310853, Note_on_c, 0, 48, 61
1, 310890, Note_off_c, 0, 48, 64
1, 310912, Note_on_c, 0, 46, 60
1, 310955, Note_on_c, 0, 36, 55
1, 310957, Note_off_c, 0, 46, 60
1, 310973, Note_on_c, 0, 48, 62
1, 311018, Note_off_c, 0, 48, 60
1, 311046, Note_on_c, 0, 46, 63
1, 311086, Note_off_c, 0, 46, 59
1, 311106, Note_off_c, 0, 36, 50
1, 311108, Note_on_c, 0, 48, 61
1, 311144, Note_off_c, 0, 48, 64
1, 311175, Note_on_c, 0, 46, 63
1, 311207, Note_off_c, 0, 46, 64
1, 311219, Control_c, 0, 64, 81
1, 311220, Note_on_c, 0, 48, 67
1, 311256, Note_off_c, 0, 48, 65
1, 311279, Note_on_c, 0, 46, 61
1, 311327, Note_on_c, 0, 48, 67
1, 311332, Note_on_c, 0, 36, 52
1, 311338, Control_c, 0, 64, 81
1, 311340, Note_off_c, 0, 46, 0
1, 311353, Note_off_c, 0, 48, 67
1, 311356, Note_on_c, 0, 46, 47
1, 311389, Control_c, 0, 67, 119
1, 311404, Control_c, 0, 67, 110
1, 311410, Note_off_c, 0, 46, 63
1, 311418, Note_on_c, 0, 48, 76
1, 311419, Control_c, 0, 67, 100
1, 311434, Control_c, 0, 67, 88
1, 311449, Control_c, 0, 67, 75
1, 311464, Control_c, 0, 67, 63
1, 311469, Note_off_c, 0, 36, 58
1, 311479, Control_c, 0, 67, 52
1, 311487, Note_on_c, 0, 46, 70
1, 311494, Control_c, 0, 67, 46
1, 311497, Note_off_c, 0, 48, 59
1, 311508, Control_c, 0, 67, 44
1, 311523, Control_c, 0, 67, 43
1, 311549, Note_off_c, 0, 46, 62
1, 311565, Note_on_c, 0, 45, 72
1, 311638, Note_off_c, 0, 45, 64
1, 311652, Note_on_c, 0, 46, 71
1, 311657, Control_c, 0, 67, 44
1, 311671, Control_c, 0, 67, 44
1, 311686, Control_c, 0, 67, 45
1, 311701, Control_c, 0, 64, 81
1, 311701, Control_c, 0, 67, 45
1, 311731, Control_c, 0, 64, 80
1, 311731, Control_c, 0, 67, 46
1, 311745, Control_c, 0, 64, 80
1, 311760, Control_c, 0, 64, 79
1, 311760, Control_c, 0, 67, 46
1, 311775, Control_c, 0, 64, 78
1, 311775, Control_c, 0, 67, 47
1, 311789, Control_c, 0, 64, 77
1, 311789, Control_c, 0, 67, 47
1, 311804, Control_c, 0, 64, 75
1, 311819, Control_c, 0, 64, 74
1, 311819, Control_c, 0, 67, 48
1, 311834, Control_c, 0, 64, 71
1, 311843, Note_on_c, 0, 40, 46
1, 311845, Note_on_c, 0, 45, 63
1, 311849, Control_c, 0, 64, 68
1, 311849, Control_c, 0, 67, 48
1, 311857, Note_on_c, 0, 37, 50
1, 311863, Control_c, 0, 64, 66
1, 311878, Control_c, 0, 64, 64
1, 311893, Control_c, 0, 64, 63
1, 311893, Control_c, 0, 67, 49
1, 311908, Control_c, 0, 64, 63
1, 311909, Note_off_c, 0, 46, 54
1, 311923, Control_c, 0, 64, 61
1, 311938, Control_c, 0, 64, 58
1, 311953, Control_c, 0, 64, 54
1, 311968, Control_c, 0, 64, 49
1, 311982, Control_c, 0, 64, 44
1, 311997, Control_c, 0, 64, 42
1, 311997, Control_c, 0, 67, 49
1, 312013, Control_c, 0, 64, 40
1, 312028, Control_c, 0, 64, 40
1, 312043, Control_c, 0, 64, 39
1, 312073, Control_c, 0, 64, 38
1, 312073, Control_c, 0, 67, 50
1, 312184, Control_c, 0, 67, 50
1, 312376, Control_c, 0, 67, 51
1, 312379, Note_on_c, 0, 57, 62
1, 312450, Control_c, 0, 64, 39
1, 312480, Control_c, 0, 64, 40
1, 312480, Control_c, 0, 67, 51
1, 312495, Control_c, 0, 64, 40
1, 312510, Control_c, 0, 64, 41
1, 312525, Control_c, 0, 64, 42
1, 312529, Note_off_c, 0, 45, 46
1, 312539, Control_c, 0, 64, 43
1, 312554, Control_c, 0, 64, 44
1, 312554, Control_c, 0, 67, 52
1, 312569, Control_c, 0, 64, 44
1, 312584, Control_c, 0, 64, 45
1, 312599, Control_c, 0, 64, 45
1, 312599, Control_c, 0, 67, 52
1, 312613, Control_c, 0, 64, 46
1, 312628, Control_c, 0, 64, 47
1, 312643, Control_c, 0, 64, 47
1, 312658, Control_c, 0, 64, 48
1, 312658, Control_c, 0, 67, 53
1, 312673, Control_c, 0, 64, 49
1, 312687, Control_c, 0, 64, 50
1, 312702, Control_c, 0, 64, 50
1, 312702, Control_c, 0, 67, 53
1, 312717, Control_c, 0, 64, 51
1, 312731, Note_off_c, 0, 57, 62
1, 312746, Control_c, 0, 64, 51
1, 312761, Control_c, 0, 64, 52
1, 312791, Control_c, 0, 64, 53
1, 312791, Control_c, 0, 67, 54
1, 312807, Control_c, 0, 64, 53
1, 312851, Control_c, 0, 64, 54
1, 312889, Note_on_c, 0, 57, 50
1, 312889, Control_c, 0, 67, 54
1, 312933, Control_c, 0, 64, 54
1, 312963, Control_c, 0, 67, 55
1, 312978, Control_c, 0, 67, 55
1, 313007, Control_c, 0, 67, 56
1, 313036, Control_c, 0, 64, 55
1, 313036, Control_c, 0, 67, 56
1, 313051, Control_c, 0, 67, 59
1, 313066, Control_c, 0, 64, 55
1, 313066, Control_c, 0, 67, 62
1, 313081, Control_c, 0, 67, 65
1, 313096, Control_c, 0, 64, 56
1, 313096, Control_c, 0, 67, 67
1, 313110, Control_c, 0, 67, 69
1, 313125, Control_c, 0, 67, 70
1, 313140, Control_c, 0, 67, 72
1, 313155, Control_c, 0, 64, 56
1, 313155, Control_c, 0, 67, 74
1, 313169, Control_c, 0, 67, 76
1, 313184, Control_c, 0, 67, 78
1, 313199, Control_c, 0, 67, 80
1, 313214, Control_c, 0, 67, 81
1, 313229, Control_c, 0, 67, 82
1, 313243, Control_c, 0, 67, 84
1, 313258, Control_c, 0, 67, 85
1, 313273, Control_c, 0, 67, 86
1, 313288, Control_c, 0, 67, 88
1, 313303, Control_c, 0, 67, 89
1, 313318, Control_c, 0, 67, 90
1, 313333, Control_c, 0, 67, 91
1, 313348, Control_c, 0, 67, 92
1, 313362, Control_c, 0, 67, 93
1, 313377, Control_c, 0, 67, 95
1, 313392, Control_c, 0, 67, 96
1, 313401, Note_on_c, 0, 41, 33
1, 313405, Note_on_c, 0, 38, 38
1, 313407, Control_c, 0, 67, 97
1, 313422, Control_c, 0, 67, 98
1, 313436, Control_c, 0, 67, 99
1, 313442, Note_off_c, 0, 37, 45
1, 313451, Control_c, 0, 67, 100
1, 313466, Control_c, 0, 64, 57
1, 313466, Control_c, 0, 67, 101
1, 313481, Control_c, 0, 67, 102
1, 313496, Control_c, 0, 67, 103
1, 313510, Control_c, 0, 67, 105
1, 313512, Note_off_c, 0, 40, 38
1, 313525, Control_c, 0, 67, 107
1, 313540, Control_c, 0, 67, 109
1, 313554, Control_c, 0, 67, 112
1, 313569, Control_c, 0, 67, 116
1, 313584, Control_c, 0, 67, 120
1, 313599, Control_c, 0, 67, 123
1, 313615, Control_c, 0, 67, 127
1, 313637, Control_c, 0, 67, 127
1, 313652, Control_c, 0, 64, 58
1, 313667, Control_c, 0, 64, 59
1, 313682, Control_c, 0, 64, 60
1, 313696, Control_c, 0, 64, 60
1, 313726, Control_c, 0, 64, 61
1, 313772, Note_off_c, 0, 38, 43
1, 313778, Note_off_c, 0, 41, 41
1, 313992, Control_c, 0, 64, 60
1, 314010, Note_on_c, 0, 41, 32
1, 314027, Note_on_c, 0, 38, 31
1, 314037, Control_c, 0, 64, 60
1, 314081, Control_c, 0, 64, 59
1, 314126, Control_c, 0, 64, 59
1, 314156, Control_c, 0, 64, 58
1, 314200, Control_c, 0, 64, 58
1, 314215, Control_c, 0, 64, 57
1, 314245, Note_off_c, 0, 57, 50
1, 314259, Control_c, 0, 64, 57
1, 314289, Control_c, 0, 64, 56
1, 314318, Control_c, 0, 64, 56
1, 314333, Control_c, 0, 64, 55
1, 314363, Control_c, 0, 64, 55
1, 314378, Control_c, 0, 64, 54
1, 314400, Control_c, 0, 64, 54
1, 314415, Control_c, 0, 64, 53
1, 314445, Control_c, 0, 64, 53
1, 314504, Control_c, 0, 64, 52
1, 314534, Control_c, 0, 64, 52
1, 314697, Control_c, 0, 64, 51
1, 315252, Control_c, 0, 64, 51
1, 315588, Note_off_c, 0, 41, 40
1, 315640, Note_off_c, 0, 38, 36
1, 315727, Control_c, 0, 64, 50
1, 315742, Control_c, 0, 64, 50
1, 315756, Control_c, 0, 64, 49
1, 315771, Control_c, 0, 64, 48
1, 315786, Control_c, 0, 64, 47
1, 315801, Control_c, 0, 64, 46
1, 315816, Control_c, 0, 64, 45
1, 315831, Control_c, 0, 64, 44
1, 315846, Control_c, 0, 64, 43
1, 315861, Control_c, 0, 64, 43
1, 315883, Control_c, 0, 64, 42
1, 315898, Control_c, 0, 64, 42
1, 315912, Control_c, 0, 64, 41
1, 315927, Control_c, 0, 64, 40
1, 315942, Control_c, 0, 64, 40
1, 315956, Control_c, 0, 64, 39
1, 315986, Control_c, 0, 64, 38
1, 316017, Control_c, 0, 64, 38
1, 316047, Control_c, 0, 64, 37
1, 316262, Note_on_c, 0, 53, 38
1, 316358, Control_c, 0, 64, 38
1, 316402, Control_c, 0, 64, 38
1, 316417, Control_c, 0, 64, 39
1, 316447, Control_c, 0, 64, 40
1, 316461, Control_c, 0, 64, 40
1, 316476, Control_c, 0, 64, 41
1, 316491, Control_c, 0, 64, 42
1, 316503, Note_on_c, 0, 57, 43
1, 316507, Note_off_c, 0, 53, 56
1, 316521, Control_c, 0, 64, 42
1, 316535, Control_c, 0, 64, 43
1, 316565, Control_c, 0, 64, 43
1, 316579, Control_c, 0, 64, 44
1, 316592, Note_off_c, 0, 57, 45
1, 316609, Control_c, 0, 64, 44
1, 316661, Control_c, 0, 64, 45
1, 316665, Note_on_c, 0, 60, 45
1, 316676, Control_c, 0, 64, 45
1, 316691, Control_c, 0, 64, 46
1, 316695, Note_off_c, 0, 60, 61
1, 316705, Control_c, 0, 64, 46
1, 316735, Control_c, 0, 64, 47
1, 316779, Control_c, 0, 64, 47
1, 316794, Control_c, 0, 64, 48
1, 316798, Note_on_c, 0, 65, 50
1, 316825, Control_c, 0, 64, 48
1, 316839, Note_off_c, 0, 65, 62
1, 316870, Control_c, 0, 64, 49
1, 316937, Note_on_c, 0, 64, 42
1, 316964, Note_off_c, 0, 64, 55
1, 317051, Note_on_c, 0, 62, 49
1, 317080, Note_off_c, 0, 62, 55
1, 317166, Control_c, 0, 64, 48
1, 317181, Note_on_c, 0, 45, 46
1, 317185, Note_on_c, 0, 60, 55
1, 317190, Note_on_c, 0, 57, 41
1, 317225, Control_c, 0, 64, 48
1, 317229, Note_off_c, 0, 60, 57
1, 317284, Control_c, 0, 64, 47
1, 317307, Note_on_c, 0, 62, 55
1, 317343, Control_c, 0, 64, 47
1, 317345, Note_off_c, 0, 62, 61
1, 317432, Note_on_c, 0, 64, 61
1, 317440, Control_c, 0, 64, 46
1, 317467, Note_off_c, 0, 64, 63
1, 317470, Control_c, 0, 64, 46
1, 317514, Control_c, 0, 64, 45
1, 317515, Note_off_c, 0, 57, 52
1, 317523, Note_off_c, 0, 45, 38
1, 317557, Note_on_c, 0, 65, 58
1, 317588, Control_c, 0, 64, 45
1, 317593, Note_off_c, 0, 65, 62
1, 317677, Note_on_c, 0, 64, 61
1, 317706, Note_off_c, 0, 64, 67
1, 317722, Control_c, 0, 64, 44
1, 317766, Control_c, 0, 64, 44
1, 317796, Control_c, 0, 64, 43
1, 317797, Note_on_c, 0, 62, 61
1, 317811, Control_c, 0, 64, 42
1, 317825, Control_c, 0, 64, 41
1, 317840, Control_c, 0, 64, 37
1, 317855, Control_c, 0, 64, 30
1, 317865, Note_off_c, 0, 62, 51
1, 317870, Control_c, 0, 64, 17
1, 317885, Control_c, 0, 64, 0
1, 317926, Note_on_c, 0, 60, 57
1, 317929, Note_on_c, 0, 57, 49
1, 317930, Note_on_c, 0, 45, 48
1, 317995, Note_off_c, 0, 60, 40
1, 318040, Note_on_c, 0, 62, 65
1, 318081, Note_off_c, 0, 62, 55
1, 318163, Note_on_c, 0, 64, 75
1, 318195, Note_off_c, 0, 64, 63
1, 318202, Control_c, 0, 64, 11
1, 318217, Control_c, 0, 64, 17
1, 318231, Control_c, 0, 64, 23
1, 318231, Control_c, 0, 67, 124
1, 318245, Note_off_c, 0, 57, 37
1, 318246, Control_c, 0, 64, 26
1, 318246, Control_c, 0, 67, 119
1, 318261, Control_c, 0, 64, 29
1, 318261, Control_c, 0, 67, 114
1, 318264, Note_off_c, 0, 45, 35
1, 318276, Control_c, 0, 64, 31
1, 318276, Control_c, 0, 67, 108
1, 318278, Note_on_c, 0, 65, 74
1, 318291, Control_c, 0, 64, 32
1, 318291, Control_c, 0, 67, 102
1, 318305, Control_c, 0, 64, 34
1, 318305, Control_c, 0, 67, 96
1, 318320, Control_c, 0, 64, 35
1, 318320, Control_c, 0, 67, 89
1, 318335, Control_c, 0, 64, 36
1, 318335, Control_c, 0, 67, 81
1, 318344, Note_off_c, 0, 65, 60
1, 318350, Control_c, 0, 64, 36
1, 318350, Control_c, 0, 67, 74
1, 318365, Control_c, 0, 64, 37
1, 318365, Control_c, 0, 67, 68
1, 318379, Control_c, 0, 67, 64
1, 318394, Note_on_c, 0, 69, 75
1, 318394, Control_c, 0, 64, 38
1, 318394, Control_c, 0, 67, 61
1, 318410, Control_c, 0, 67, 60
1, 318425, Control_c, 0, 64, 38
1, 318425, Control_c, 0, 67, 60
1, 318437, Note_off_c, 0, 69, 57
1, 318440, Control_c, 0, 64, 39
1, 318469, Control_c, 0, 64, 40
1, 318499, Control_c, 0, 67, 60
1, 318511, Note_on_c, 0, 70, 72
1, 318528, Control_c, 0, 67, 61
1, 318543, Control_c, 0, 67, 61
1, 318558, Control_c, 0, 67, 62
1, 318571, Note_off_c, 0, 70, 61
1, 318573, Control_c, 0, 67, 63
1, 318588, Control_c, 0, 67, 63
1, 318603, Control_c, 0, 67, 64
1, 318618, Control_c, 0, 67, 64
1, 318633, Control_c, 0, 64, 39
1, 318633, Control_c, 0, 67, 65
1, 318647, Control_c, 0, 64, 38
1, 318647, Control_c, 0, 67, 65
1, 318649, Note_on_c, 0, 72, 59
1, 318662, Control_c, 0, 64, 36
1, 318662, Control_c, 0, 67, 66
1, 318678, Control_c, 0, 64, 35
1, 318678, Control_c, 0, 67, 66
1, 318692, Control_c, 0, 64, 33
1, 318692, Control_c, 0, 67, 67
1, 318707, Control_c, 0, 64, 32
1, 318707, Control_c, 0, 67, 68
1, 318722, Control_c, 0, 64, 31
1, 318722, Control_c, 0, 67, 68
1, 318729, Note_off_c, 0, 72, 53
1, 318737, Control_c, 0, 64, 30
1, 318752, Control_c, 0, 64, 29
1, 318752, Control_c, 0, 67, 69
1, 318767, Control_c, 0, 64, 28
1, 318767, Control_c, 0, 67, 70
1, 318767, Note_on_c, 0, 70, 52
1, 318781, Control_c, 0, 64, 27
1, 318781, Control_c, 0, 67, 70
1, 318796, Control_c, 0, 64, 26
1, 318796, Control_c, 0, 67, 71
1, 318803, Note_off_c, 0, 70, 63
1, 318811, Control_c, 0, 64, 23
1, 318811, Control_c, 0, 67, 71
1, 318826, Control_c, 0, 64, 21
1, 318826, Control_c, 0, 67, 72
1, 318841, Control_c, 0, 64, 19
1, 318841, Control_c, 0, 67, 73
1, 318855, Control_c, 0, 64, 17
1, 318855, Control_c, 0, 67, 76
1, 318870, Control_c, 0, 64, 14
1, 318870, Control_c, 0, 67, 80
1, 318892, Control_c, 0, 64, 11
1, 318892, Control_c, 0, 67, 83
1, 318895, Note_on_c, 0, 69, 65
1, 318907, Control_c, 0, 64, 0
1, 318907, Control_c, 0, 67, 86
1, 318922, Control_c, 0, 67, 89
1, 318937, Control_c, 0, 67, 92
1, 318940, Note_off_c, 0, 69, 55
1, 318952, Control_c, 0, 67, 95
1, 318967, Control_c, 0, 67, 99
1, 318981, Control_c, 0, 67, 102
1, 318996, Control_c, 0, 67, 106
1, 319011, Control_c, 0, 67, 109
1, 319025, Note_on_c, 0, 67, 58
1, 319026, Control_c, 0, 67, 111
1, 319041, Control_c, 0, 67, 114
1, 319055, Control_c, 0, 67, 117
1, 319059, Note_off_c, 0, 67, 62
1, 319070, Control_c, 0, 67, 120
1, 319085, Control_c, 0, 67, 123
1, 319100, Control_c, 0, 67, 126
1, 319114, Control_c, 0, 67, 127
1, 319140, Note_on_c, 0, 65, 53
1, 319178, Note_off_c, 0, 65, 63
1, 319284, Note_on_c, 0, 63, 47
1, 319317, Note_off_c, 0, 63, 61
1, 319426, Note_on_c, 0, 62, 49
1, 319564, Note_off_c, 0, 62, 54
1, 319566, Note_on_c, 0, 66, 57
1, 319607, Note_off_c, 0, 66, 61
1, 319697, Note_on_c, 0, 67, 68
1, 319728, Note_off_c, 0, 67, 60
1, 319814, Note_on_c, 0, 69, 68
1, 319873, Note_off_c, 0, 69, 58
1, 319925, Note_on_c, 0, 70, 66
1, 319961, Note_off_c, 0, 70, 58
1, 319982, Control_c, 0, 64, 11
1, 320013, Control_c, 0, 64, 14
1, 320044, Note_on_c, 0, 73, 69
1, 320057, Control_c, 0, 64, 17
1, 320089, Note_off_c, 0, 73, 56
1, 320159, Note_on_c, 0, 74, 68
1, 320160, Note_on_c, 0, 46, 55
1, 320160, Note_on_c, 0, 58, 57
1, 320217, Note_off_c, 0, 74, 61
1, 320234, Control_c, 0, 64, 19
1, 320278, Note_on_c, 0, 75, 66
1, 320339, Note_off_c, 0, 75, 60
1, 320398, Note_on_c, 0, 76, 75
1, 320420, Control_c, 0, 64, 17
1, 320434, Control_c, 0, 64, 11
1, 320449, Control_c, 0, 64, 0
1, 320457, Note_off_c, 0, 76, 63
1, 320516, Note_on_c, 0, 77, 82
1, 320526, Note_off_c, 0, 46, 56
1, 320564, Note_off_c, 0, 77, 63
1, 320568, Note_off_c, 0, 58, 62
1, 320633, Note_on_c, 0, 78, 77
1, 320693, Note_off_c, 0, 78, 63
1, 320755, Note_on_c, 0, 79, 76
1, 320818, Note_off_c, 0, 79, 62
1, 320870, Note_on_c, 0, 80, 77
1, 320879, Note_on_c, 0, 58, 65
1, 320885, Note_on_c, 0, 46, 57
1, 320960, Note_off_c, 0, 80, 62
1, 320982, Note_on_c, 0, 81, 72
1, 321036, Note_off_c, 0, 81, 64
1, 321084, Note_on_c, 0, 82, 85
1, 321138, Control_c, 0, 64, 11
1, 321153, Control_c, 0, 64, 14
1, 321154, Note_off_c, 0, 82, 62
1, 321168, Control_c, 0, 64, 19
1, 321182, Control_c, 0, 64, 21
1, 321182, Control_c, 0, 67, 125
1, 321197, Control_c, 0, 64, 24
1, 321197, Control_c, 0, 67, 116
1, 321212, Control_c, 0, 64, 28
1, 321212, Control_c, 0, 67, 103
1, 321217, Note_on_c, 0, 83, 83
1, 321227, Control_c, 0, 64, 31
1, 321227, Control_c, 0, 67, 88
1, 321242, Control_c, 0, 64, 36
1, 321242, Control_c, 0, 67, 74
1, 321256, Control_c, 0, 64, 38
1, 321256, Control_c, 0, 67, 60
1, 321265, Note_off_c, 0, 83, 66
1, 321271, Control_c, 0, 64, 41
1, 321271, Control_c, 0, 67, 49
1, 321286, Control_c, 0, 64, 43
1, 321286, Control_c, 0, 67, 39
1, 321301, Control_c, 0, 64, 46
1, 321301, Control_c, 0, 67, 30
1, 321316, Control_c, 0, 64, 49
1, 321316, Control_c, 0, 67, 21
1, 321331, Control_c, 0, 64, 50
1, 321331, Control_c, 0, 67, 12
1, 321339, Note_on_c, 0, 84, 88
1, 321345, Control_c, 0, 64, 52
1, 321345, Control_c, 0, 67, 0
1, 321353, Note_off_c, 0, 46, 61
1, 321360, Control_c, 0, 64, 53
1, 321375, Control_c, 0, 64, 54
1, 321380, Note_off_c, 0, 84, 65
1, 321390, Control_c, 0, 64, 55
1, 321405, Control_c, 0, 64, 56
1, 321420, Control_c, 0, 64, 56
1, 321427, Note_off_c, 0, 58, 61
1, 321435, Control_c, 0, 64, 57
1, 321464, Control_c, 0, 64, 58
1, 321465, Note_on_c, 0, 85, 87
1, 321493, Control_c, 0, 64, 59
1, 321531, Note_off_c, 0, 85, 63
1, 321538, Control_c, 0, 64, 59
1, 321673, Control_c, 0, 64, 59
1, 321679, Note_on_c, 0, 86, 83
1, 321718, Control_c, 0, 64, 58
1, 321747, Control_c, 0, 64, 58
1, 321777, Control_c, 0, 64, 57
1, 321992, Control_c, 0, 64, 58
1, 322124, Control_c, 0, 64, 58
1, 322184, Control_c, 0, 64, 58
1, 322198, Control_c, 0, 64, 57
1, 322213, Control_c, 0, 64, 55
1, 322228, Control_c, 0, 64, 48
1, 322243, Control_c, 0, 64, 19
1, 322250, Note_on_c, 0, 47, 63
1, 322252, Note_on_c, 0, 59, 62
1, 322258, Control_c, 0, 64, 0
1, 322426, Note_off_c, 0, 86, 58
1, 322496, Control_c, 0, 64, 64
1, 322511, Control_c, 0, 64, 70
1, 322526, Control_c, 0, 64, 78
1, 322541, Control_c, 0, 64, 91
1, 322555, Control_c, 0, 64, 109
1, 322570, Control_c, 0, 64, 127
1, 322675, Note_off_c, 0, 59, 61
1, 322676, Note_off_c, 0, 47, 38
1, 322912, Note_on_c, 0, 48, 70
1, 322919, Note_on_c, 0, 60, 64
1, 322977, Control_c, 0, 64, 112
1, 322992, Control_c, 0, 64, 101
1, 323007, Control_c, 0, 64, 92
1, 323021, Control_c, 0, 64, 84
1, 323036, Control_c, 0, 64, 77
1, 323051, Control_c, 0, 64, 68
1, 323065, Control_c, 0, 64, 60
1, 323080, Control_c, 0, 64, 53
1, 323095, Control_c, 0, 64, 52
1, 323110, Control_c, 0, 64, 51
1, 323125, Control_c, 0, 64, 49
1, 323140, Control_c, 0, 64, 48
1, 323147, Note_on_c, 0, 89, 70
1, 323155, Control_c, 0, 64, 47
1, 323230, Control_c, 0, 64, 48
1, 323259, Control_c, 0, 64, 48
1, 323274, Control_c, 0, 64, 49
1, 323304, Control_c, 0, 64, 49
1, 323319, Control_c, 0, 64, 50
1, 323323, Note_on_c, 0, 88, 78
1, 323349, Control_c, 0, 64, 50
1, 323370, Control_c, 0, 64, 51
1, 323400, Control_c, 0, 64, 51
1, 323415, Control_c, 0, 64, 52
1, 323444, Control_c, 0, 64, 52
1, 323459, Control_c, 0, 64, 53
1, 323461, Note_on_c, 0, 86, 81
1, 323467, Note_off_c, 0, 89, 59
1, 323474, Control_c, 0, 64, 53
1, 323504, Control_c, 0, 64, 54
1, 323575, Note_on_c, 0, 84, 82
1, 323578, Control_c, 0, 64, 54
1, 323587, Note_off_c, 0, 88, 59
1, 323634, Note_off_c, 0, 86, 60
1, 323697, Note_on_c, 0, 83, 78
1, 323710, Note_off_c, 0, 84, 65
1, 323756, Control_c, 0, 64, 54
1, 323785, Control_c, 0, 64, 53
1, 323824, Note_off_c, 0, 83, 64
1, 323825, Note_on_c, 0, 86, 84
1, 323844, Control_c, 0, 64, 53
1, 323930, Note_off_c, 0, 86, 65
1, 323933, Note_on_c, 0, 84, 78
1, 324064, Note_on_c, 0, 85, 80
1, 324067, Control_c, 0, 67, 8
1, 324107, Note_off_c, 0, 84, 61
1, 324179, Control_c, 0, 67, 8
1, 324208, Control_c, 0, 64, 53
1, 324255, Note_on_c, 0, 88, 68
1, 324297, Note_off_c, 0, 85, 64
1, 324297, Control_c, 0, 67, 9
1, 324416, Control_c, 0, 67, 9
1, 324435, Note_on_c, 0, 86, 73
1, 324460, Control_c, 0, 64, 54
1, 324490, Control_c, 0, 67, 10
1, 324493, Note_off_c, 0, 88, 52
1, 324549, Control_c, 0, 67, 11
1, 324550, Note_off_c, 0, 86, 65
1, 324562, Note_on_c, 0, 81, 76
1, 324564, Control_c, 0, 67, 12
1, 324579, Control_c, 0, 67, 12
1, 324593, Control_c, 0, 67, 13
1, 324653, Control_c, 0, 67, 13
1, 324684, Note_on_c, 0, 84, 72
1, 324701, Note_off_c, 0, 81, 58
1, 324771, Control_c, 0, 67, 14
1, 324806, Note_on_c, 0, 82, 77
1, 324839, Note_off_c, 0, 84, 63
1, 324846, Control_c, 0, 67, 14
1, 324869, Control_c, 0, 64, 53
1, 324869, Control_c, 0, 67, 15
1, 324898, Control_c, 0, 67, 16
1, 324913, Control_c, 0, 67, 16
1, 324928, Control_c, 0, 67, 17
1, 324934, Note_on_c, 0, 83, 78
1, 324942, Control_c, 0, 67, 17
1, 324957, Control_c, 0, 67, 18
1, 324972, Control_c, 0, 67, 19
1, 324976, Note_off_c, 0, 82, 59
1, 324987, Control_c, 0, 64, 53
1, 325002, Control_c, 0, 67, 19
1, 325031, Control_c, 0, 64, 52
1, 325031, Control_c, 0, 67, 20
1, 325046, Control_c, 0, 64, 52
1, 325061, Note_on_c, 0, 86, 75
1, 325061, Control_c, 0, 64, 51
1, 325061, Control_c, 0, 67, 21
1, 325072, Note_off_c, 0, 83, 63
1, 325076, Control_c, 0, 64, 51
1, 325076, Control_c, 0, 67, 21
1, 325090, Control_c, 0, 64, 50
1, 325090, Control_c, 0, 67, 23
1, 325105, Control_c, 0, 64, 50
1, 325105, Control_c, 0, 67, 24
1, 325120, Control_c, 0, 64, 49
1, 325120, Control_c, 0, 67, 26
1, 325135, Control_c, 0, 64, 48
1, 325135, Control_c, 0, 67, 28
1, 325149, Control_c, 0, 64, 47
1, 325149, Control_c, 0, 67, 32
1, 325164, Control_c, 0, 64, 47
1, 325164, Control_c, 0, 67, 36
1, 325179, Control_c, 0, 64, 46
1, 325179, Control_c, 0, 67, 39
1, 325182, Note_on_c, 0, 84, 71
1, 325194, Control_c, 0, 64, 45
1, 325194, Control_c, 0, 67, 43
1, 325209, Control_c, 0, 64, 44
1, 325209, Control_c, 0, 67, 46
1, 325220, Note_off_c, 0, 86, 61
1, 325224, Control_c, 0, 64, 43
1, 325224, Control_c, 0, 67, 49
1, 325239, Control_c, 0, 64, 43
1, 325239, Control_c, 0, 67, 51
1, 325253, Control_c, 0, 64, 42
1, 325253, Control_c, 0, 67, 53
1, 325262, Note_off_c, 0, 84, 65
1, 325268, Control_c, 0, 64, 42
1, 325268, Control_c, 0, 67, 55
1, 325283, Control_c, 0, 64, 41
1, 325283, Control_c, 0, 67, 57
1, 325297, Note_on_c, 0, 79, 68
1, 325298, Control_c, 0, 67, 58
1, 325313, Control_c, 0, 64, 40
1, 325313, Control_c, 0, 67, 60
1, 325328, Control_c, 0, 64, 40
1, 325328, Control_c, 0, 67, 62
1, 325342, Control_c, 0, 67, 64
1, 325357, Control_c, 0, 64, 39
1, 325357, Control_c, 0, 67, 67
1, 325372, Control_c, 0, 67, 69
1, 325387, Control_c, 0, 67, 72
1, 325402, Control_c, 0, 64, 38
1, 325402, Control_c, 0, 67, 75
1, 325416, Control_c, 0, 67, 78
1, 325431, Control_c, 0, 67, 81
1, 325446, Control_c, 0, 67, 85
1, 325451, Note_on_c, 0, 82, 62
1, 325461, Control_c, 0, 67, 88
1, 325471, Note_off_c, 0, 79, 54
1, 325475, Control_c, 0, 67, 92
1, 325490, Control_c, 0, 67, 95
1, 325505, Control_c, 0, 67, 98
1, 325520, Control_c, 0, 67, 102
1, 325535, Control_c, 0, 67, 106
1, 325549, Control_c, 0, 67, 110
1, 325564, Control_c, 0, 67, 114
1, 325579, Control_c, 0, 67, 118
1, 325595, Control_c, 0, 67, 122
1, 325617, Note_on_c, 0, 81, 68
1, 325617, Control_c, 0, 67, 125
1, 325632, Control_c, 0, 67, 126
1, 325647, Control_c, 0, 67, 127
1, 325699, Note_off_c, 0, 82, 52
1, 325704, Note_off_c, 0, 81, 62
1, 325730, Note_on_c, 0, 76, 70
1, 325850, Note_off_c, 0, 76, 60
1, 325854, Note_on_c, 0, 79, 69
1, 325975, Note_on_c, 0, 77, 68
1, 326010, Note_off_c, 0, 79, 58
1, 326064, Note_off_c, 0, 77, 61
1, 326106, Note_on_c, 0, 71, 59
1, 326206, Note_off_c, 0, 71, 62
1, 326228, Note_on_c, 0, 74, 62
1, 326332, Note_off_c, 0, 48, 46
1, 326332, Note_off_c, 0, 60, 55
1, 326349, Note_off_c, 0, 74, 60
1, 326366, Note_on_c, 0, 72, 62
1, 326380, Control_c, 0, 64, 38
1, 326410, Control_c, 0, 64, 37
1, 326455, Control_c, 0, 64, 36
1, 326485, Control_c, 0, 64, 36
1, 326488, Note_on_c, 0, 73, 64
1, 326499, Control_c, 0, 64, 35
1, 326511, Note_off_c, 0, 72, 56
1, 326514, Control_c, 0, 64, 33
1, 326529, Control_c, 0, 64, 32
1, 326544, Control_c, 0, 64, 30
1, 326559, Control_c, 0, 64, 29
1, 326574, Control_c, 0, 64, 27
1, 326588, Control_c, 0, 64, 23
1, 326603, Control_c, 0, 64, 19
1, 326618, Control_c, 0, 64, 11
1, 326633, Control_c, 0, 64, 0
1, 326641, Note_off_c, 0, 73, 61
1, 326645, Note_on_c, 0, 76, 55
1, 326798, Note_on_c, 0, 74, 59
1, 326815, Note_off_c, 0, 76, 50
1, 326965, Note_on_c, 0, 70, 51
1, 326969, Note_off_c, 0, 74, 58
1, 327132, Note_off_c, 0, 70, 53
1, 327162, Note_on_c, 0, 67, 49
1, 327233, Control_c, 0, 64, 19
1, 327248, Control_c, 0, 64, 42
1, 327263, Control_c, 0, 64, 52
1, 327273, Note_off_c, 0, 67, 59
1, 327278, Control_c, 0, 64, 59
1, 327289, Note_on_c, 0, 69, 49
1, 327292, Control_c, 0, 64, 64
1, 327307, Control_c, 0, 64, 67
1, 327322, Control_c, 0, 64, 70
1, 327337, Control_c, 0, 64, 75
1, 327352, Control_c, 0, 64, 79
1, 327352, Note_off_c, 0, 69, 61
1, 327367, Control_c, 0, 64, 84
1, 327382, Control_c, 0, 64, 88
1, 327397, Note_on_c, 0, 67, 48
1, 327397, Control_c, 0, 64, 92
1, 327412, Control_c, 0, 64, 97
1, 327426, Control_c, 0, 64, 104
1, 327436, Note_off_c, 0, 67, 61
1, 327441, Control_c, 0, 64, 113
1, 327456, Control_c, 0, 64, 127
1, 327477, Note_on_c, 0, 69, 44
1, 327499, Note_off_c, 0, 69, 60
1, 327535, Note_on_c, 0, 67, 54
1, 327572, Note_off_c, 0, 67, 63
1, 327583, Note_on_c, 0, 69, 58
1, 327623, Note_off_c, 0, 69, 58
1, 327660, Note_on_c, 0, 67, 60
1, 327693, Note_off_c, 0, 67, 63
1, 327728, Note_on_c, 0, 69, 49
1, 327751, Note_off_c, 0, 69, 62
1, 327791, Note_on_c, 0, 67, 53
1, 327821, Note_off_c, 0, 67, 65
1, 327829, Note_on_c, 0, 69, 65
1, 327871, Note_off_c, 0, 69, 55
1, 327906, Note_on_c, 0, 67, 66
1, 327944, Note_off_c, 0, 67, 59
1, 327968, Note_on_c, 0, 69, 61
1, 327996, Note_off_c, 0, 69, 66
1, 328023, Note_on_c, 0, 67, 70
1, 328068, Note_off_c, 0, 67, 57
1, 328083, Note_on_c, 0, 69, 66
1, 328116, Note_off_c, 0, 69, 57
1, 328143, Note_on_c, 0, 67, 71
1, 328192, Note_off_c, 0, 67, 60
1, 328201, Note_on_c, 0, 69, 67
1, 328236, Note_off_c, 0, 69, 58
1, 328255, Note_on_c, 0, 67, 69
1, 328306, Note_off_c, 0, 67, 62
1, 328315, Note_on_c, 0, 69, 73
1, 328365, Note_off_c, 0, 69, 59
1, 328377, Note_on_c, 0, 67, 73
1, 328431, Note_off_c, 0, 67, 61
1, 328440, Note_on_c, 0, 69, 67
1, 328491, Note_off_c, 0, 69, 63
1, 328503, Note_on_c, 0, 67, 71
1, 328559, Note_off_c, 0, 67, 60
1, 328560, Control_c, 0, 67, 126
1, 328571, Note_on_c, 0, 69, 69
1, 328575, Control_c, 0, 67, 123
1, 328590, Control_c, 0, 67, 120
1, 328605, Control_c, 0, 67, 116
1, 328628, Control_c, 0, 67, 111
1, 328634, Note_off_c, 0, 69, 63
1, 328642, Control_c, 0, 67, 105
1, 328651, Note_on_c, 0, 67, 67
1, 328657, Control_c, 0, 67, 100
1, 328672, Control_c, 0, 67, 94
1, 328686, Control_c, 0, 67, 88
1, 328701, Control_c, 0, 67, 82
1, 328711, Note_off_c, 0, 67, 60
1, 328716, Control_c, 0, 67, 77
1, 328720, Note_on_c, 0, 69, 70
1, 328731, Control_c, 0, 67, 72
1, 328746, Control_c, 0, 67, 67
1, 328754, Note_on_c, 0, 58, 64
1, 328759, Note_on_c, 0, 48, 55
1, 328760, Control_c, 0, 67, 64
1, 328762, Note_on_c, 0, 52, 60
1, 328775, Control_c, 0, 67, 61
1, 328783, Note_off_c, 0, 69, 61
1, 328791, Control_c, 0, 67, 58
1, 328804, Note_on_c, 0, 67, 67
1, 328806, Control_c, 0, 67, 55
1, 328821, Control_c, 0, 67, 52
1, 328836, Control_c, 0, 67, 48
1, 328851, Control_c, 0, 67, 43
1, 328854, Note_off_c, 0, 67, 58
1, 328865, Control_c, 0, 67, 39
1, 328866, Note_on_c, 0, 69, 68
1, 328880, Control_c, 0, 67, 35
1, 328895, Control_c, 0, 67, 32
1, 328909, Control_c, 0, 67, 29
1, 328916, Note_off_c, 0, 69, 59
1, 328924, Control_c, 0, 67, 26
1, 328928, Note_off_c, 0, 48, 60
1, 328938, Note_on_c, 0, 67, 72
1, 328939, Control_c, 0, 67, 24
1, 328947, Note_off_c, 0, 58, 61
1, 328954, Control_c, 0, 67, 22
1, 328969, Control_c, 0, 67, 20
1, 328979, Note_off_c, 0, 52, 62
1, 328979, Note_off_c, 0, 67, 56
1, 328984, Control_c, 0, 67, 20
1, 328984, Note_on_c, 0, 69, 70
1, 328998, Control_c, 0, 67, 19
1, 329013, Control_c, 0, 67, 18
1, 329028, Control_c, 0, 67, 18
1, 329033, Note_off_c, 0, 69, 60
1, 329052, Note_on_c, 0, 67, 75
1, 329058, Control_c, 0, 67, 17
1, 329072, Control_c, 0, 67, 17
1, 329098, Note_on_c, 0, 69, 67
1, 329098, Note_off_c, 0, 67, 60
1, 329102, Control_c, 0, 67, 16
1, 329117, Control_c, 0, 67, 16
1, 329146, Control_c, 0, 67, 15
1, 329147, Note_off_c, 0, 69, 60
1, 329166, Note_on_c, 0, 67, 71
1, 329176, Control_c, 0, 67, 15
1, 329190, Control_c, 0, 67, 14
1, 329205, Control_c, 0, 67, 13
1, 329218, Note_on_c, 0, 58, 75
1, 329220, Control_c, 0, 67, 12
1, 329223, Note_off_c, 0, 67, 61
1, 329225, Note_on_c, 0, 69, 72
1, 329226, Note_on_c, 0, 48, 67
1, 329227, Note_on_c, 0, 52, 64
1, 329235, Control_c, 0, 67, 10
1, 329250, Control_c, 0, 67, 8
1, 329264, Control_c, 0, 67, 0
1, 329278, Note_off_c, 0, 69, 62
1, 329294, Note_on_c, 0, 67, 72
1, 329355, Note_off_c, 0, 67, 61
1, 329367, Note_on_c, 0, 69, 74
1, 329390, Note_off_c, 0, 48, 58
1, 329409, Note_off_c, 0, 58, 62
1, 329418, Note_off_c, 0, 69, 61
1, 329436, Note_on_c, 0, 67, 70
1, 329439, Note_off_c, 0, 52, 61
1, 329483, Note_off_c, 0, 67, 58
1, 329493, Note_on_c, 0, 69, 72
1, 329541, Note_off_c, 0, 69, 60
1, 329555, Note_on_c, 0, 67, 77
1, 329610, Note_off_c, 0, 67, 61
1, 329623, Note_on_c, 0, 69, 68
1, 329650, Note_off_c, 0, 69, 60
1, 329678, Note_on_c, 0, 67, 68
1, 329730, Note_off_c, 0, 67, 59
1, 329739, Note_on_c, 0, 52, 55
1, 329740, Note_on_c, 0, 69, 73
1, 329754, Note_on_c, 0, 58, 59
1, 329759, Note_on_c, 0, 48, 43
1, 329775, Note_off_c, 0, 69, 58
1, 329809, Note_on_c, 0, 67, 56
1, 329839, Note_on_c, 0, 69, 68
1, 329862, Note_off_c, 0, 67, 0
1, 329868, Note_off_c, 0, 69, 59
1, 329874, Note_on_c, 0, 67, 49
1, 329931, Note_on_c, 0, 69, 64
1, 329932, Note_off_c, 0, 67, 62
1, 329992, Note_on_c, 0, 67, 59
1, 329997, Note_off_c, 0, 69, 58
1, 330079, Note_off_c, 0, 67, 61
1, 330096, Note_on_c, 0, 65, 64
1, 330116, Note_off_c, 0, 58, 52
1, 330189, Note_off_c, 0, 65, 62
1, 330202, Note_on_c, 0, 67, 69
1, 330316, Control_c, 0, 67, 8
1, 330345, Control_c, 0, 67, 8
1, 330360, Control_c, 0, 67, 9
1, 330374, Note_on_c, 0, 65, 61
1, 330378, Note_on_c, 0, 53, 48
1, 330391, Control_c, 0, 67, 10
1, 330398, Note_on_c, 0, 57, 43
1, 330406, Control_c, 0, 64, 119
1, 330406, Control_c, 0, 67, 10
1, 330421, Control_c, 0, 64, 103
1, 330421, Control_c, 0, 67, 11
1, 330435, Control_c, 0, 64, 94
1, 330435, Control_c, 0, 67, 12
1, 330450, Control_c, 0, 64, 85
1, 330450, Control_c, 0, 67, 13
1, 330456, Note_off_c, 0, 67, 49
1, 330465, Control_c, 0, 64, 74
1, 330465, Control_c, 0, 67, 14
1, 330479, Control_c, 0, 64, 64
1, 330479, Control_c, 0, 67, 15
1, 330494, Control_c, 0, 64, 38
1, 330494, Control_c, 0, 67, 16
1, 330509, Control_c, 0, 64, 0
1, 330509, Control_c, 0, 67, 16
1, 330512, Note_off_c, 0, 52, 51
1, 330524, Control_c, 0, 67, 17
1, 330539, Control_c, 0, 67, 19
1, 330553, Control_c, 0, 67, 20
1, 330568, Control_c, 0, 67, 20
1, 330579, Note_off_c, 0, 48, 42
1, 330583, Control_c, 0, 67, 21
1, 330598, Control_c, 0, 67, 22
1, 330613, Control_c, 0, 67, 23
1, 330628, Control_c, 0, 67, 25
1, 330643, Control_c, 0, 67, 27
1, 330658, Control_c, 0, 67, 29
1, 330673, Control_c, 0, 67, 31
1, 330687, Control_c, 0, 67, 33
1, 330702, Control_c, 0, 67, 35
1, 330717, Control_c, 0, 67, 37
1, 330732, Control_c, 0, 67, 40
1, 330747, Control_c, 0, 67, 42
1, 330761, Control_c, 0, 67, 45
1, 330776, Control_c, 0, 67, 48
1, 330791, Control_c, 0, 67, 51
1, 330806, Control_c, 0, 67, 54
1, 330821, Control_c, 0, 64, 49
1, 330821, Control_c, 0, 67, 57
1, 330835, Control_c, 0, 64, 63
1, 330835, Control_c, 0, 67, 60
1, 330850, Control_c, 0, 64, 67
1, 330850, Control_c, 0, 67, 62
1, 330872, Control_c, 0, 64, 71
1, 330872, Control_c, 0, 67, 64
1, 330887, Control_c, 0, 64, 75
1, 330887, Control_c, 0, 67, 66
1, 330902, Control_c, 0, 64, 80
1, 330902, Control_c, 0, 67, 68
1, 330917, Control_c, 0, 64, 85
1, 330917, Control_c, 0, 67, 70
1, 330932, Control_c, 0, 64, 89
1, 330932, Control_c, 0, 67, 73
1, 330947, Control_c, 0, 64, 95
1, 330947, Control_c, 0, 67, 75
1, 330961, Control_c, 0, 64, 101
1, 330961, Control_c, 0, 67, 78
1, 330976, Control_c, 0, 64, 107
1, 330976, Control_c, 0, 67, 80
1, 330991, Control_c, 0, 64, 118
1, 330991, Control_c, 0, 67, 83
1, 331006, Control_c, 0, 64, 127
1, 331006, Control_c, 0, 67, 86
1, 331021, Control_c, 0, 67, 88
1, 331035, Control_c, 0, 67, 90
1, 331050, Control_c, 0, 67, 93
1, 331065, Control_c, 0, 67, 95
1, 331080, Control_c, 0, 67, 97
1, 331094, Control_c, 0, 67, 100
1, 331109, Control_c, 0, 67, 102
1, 331124, Control_c, 0, 67, 104
1, 331139, Control_c, 0, 67, 106
1, 331154, Control_c, 0, 67, 108
1, 331168, Control_c, 0, 67, 110
1, 331184, Control_c, 0, 67, 112
1, 331199, Control_c, 0, 67, 114
1, 331214, Control_c, 0, 67, 115
1, 331229, Control_c, 0, 67, 118
1, 331240, Note_off_c, 0, 57, 33
1, 331244, Control_c, 0, 67, 120
1, 331258, Control_c, 0, 67, 122
1, 331273, Control_c, 0, 67, 124
1, 331288, Control_c, 0, 67, 126
1, 331292, Note_off_c, 0, 65, 53
1, 331302, Control_c, 0, 67, 127
1, 331310, Note_off_c, 0, 53, 34
1, 331481, Control_c, 0, 64, 107
1, 331495, Control_c, 0, 64, 98
1, 331510, Control_c, 0, 64, 89
1, 331525, Control_c, 0, 64, 83
1, 331540, Control_c, 0, 64, 76
1, 331555, Control_c, 0, 64, 70
1, 331570, Control_c, 0, 64, 64
1, 331584, Control_c, 0, 64, 62
1, 331606, Control_c, 0, 64, 61
1, 331665, Control_c, 0, 64, 61
1, 331695, Control_c, 0, 64, 60
1, 331770, Control_c, 0, 64, 60
1, 331814, Control_c, 0, 64, 59
1, 332185, Control_c, 0, 64, 59
1, 332797, Note_on_c, 0, 60, 40
1, 332801, Note_on_c, 0, 57, 32
1, 333335, Note_on_c, 0, 36, 29
1, 333338, Note_on_c, 0, 48, 29
1, 333445, Control_c, 0, 64, 59
1, 333563, Control_c, 0, 64, 60
1, 333575, Note_off_c, 0, 57, 57
1, 333581, Note_on_c, 0, 58, 45
1, 333588, Note_on_c, 0, 62, 46
1, 333598, Note_off_c, 0, 60, 58
1, 333599, Note_off_c, 0, 48, 48
1, 333613, Note_off_c, 0, 36, 41
1, 333668, Control_c, 0, 64, 60
1, 333813, Note_on_c, 0, 60, 49
1, 333826, Note_on_c, 0, 57, 35
1, 333838, Note_on_c, 0, 36, 35
1, 333845, Note_on_c, 0, 48, 32
1, 333865, Note_off_c, 0, 58, 39
1, 333886, Note_off_c, 0, 62, 37
1, 334024, Note_off_c, 0, 48, 48
1, 334064, Note_off_c, 0, 36, 42
1, 334065, Note_off_c, 0, 57, 53
1, 334097, Note_off_c, 0, 60, 53
1, 334134, Control_c, 0, 64, 61
1, 334345, Note_on_c, 0, 58, 48
1, 334348, Note_on_c, 0, 36, 31
1, 334354, Note_on_c, 0, 55, 43
1, 334357, Note_on_c, 0, 48, 32
1, 334549, Note_off_c, 0, 55, 57
1, 334581, Note_off_c, 0, 58, 60
1, 334587, Note_off_c, 0, 36, 41
1, 334635, Note_off_c, 0, 48, 43
1, 334780, Control_c, 0, 64, 61
1, 334852, Note_on_c, 0, 60, 38
1, 334870, Note_on_c, 0, 55, 37
1, 334988, Control_c, 0, 64, 62
1, 335120, Note_on_c, 0, 58, 41
1, 335140, Note_off_c, 0, 60, 48
1, 335374, Note_off_c, 0, 55, 44
1, 335411, Control_c, 0, 64, 61
1, 335412, Note_on_c, 0, 57, 33
1, 335415, Note_on_c, 0, 53, 39
1, 335427, Note_on_c, 0, 41, 28
1, 335430, Note_on_c, 0, 48, 27
1, 335472, Note_off_c, 0, 58, 39
1, 335703, Note_off_c, 0, 48, 41
1, 335723, Note_off_c, 0, 53, 46
1, 335730, Note_off_c, 0, 57, 47
1, 335742, Note_off_c, 0, 41, 41
1, 335840, Control_c, 0, 64, 61
1, 336161, Note_on_c, 0, 48, 27
1, 336164, Note_on_c, 0, 57, 28
1, 336174, Note_on_c, 0, 41, 26
1, 336175, Note_on_c, 0, 53, 28
1, 336351, Control_c, 0, 64, 61
1, 336455, Control_c, 0, 64, 62
1, 336499, Control_c, 0, 64, 62
1, 336544, Control_c, 0, 64, 63
1, 336559, Control_c, 0, 64, 63
1, 336588, Control_c, 0, 64, 64
1, 336603, Control_c, 0, 64, 64
1, 336618, Control_c, 0, 64, 65
1, 336632, Control_c, 0, 64, 65
1, 336647, Control_c, 0, 64, 66
1, 336662, Control_c, 0, 64, 67
1, 336677, Control_c, 0, 64, 68
1, 336692, Control_c, 0, 64, 69
1, 336706, Control_c, 0, 64, 70
1, 336721, Control_c, 0, 64, 72
1, 336736, Control_c, 0, 64, 74
1, 336751, Control_c, 0, 64, 76
1, 336766, Control_c, 0, 64, 78
1, 336782, Control_c, 0, 64, 79
1, 336796, Control_c, 0, 64, 81
1, 336811, Control_c, 0, 64, 82
1, 336826, Control_c, 0, 64, 83
1, 336848, Control_c, 0, 64, 85
1, 336863, Control_c, 0, 64, 86
1, 336878, Control_c, 0, 64, 87
1, 336893, Control_c, 0, 64, 88
1, 336908, Control_c, 0, 64, 90
1, 336923, Control_c, 0, 64, 91
1, 336937, Control_c, 0, 64, 93
1, 336952, Control_c, 0, 64, 94
1, 336967, Control_c, 0, 64, 95
1, 336982, Control_c, 0, 64, 97
1, 336996, Control_c, 0, 64, 98
1, 337011, Control_c, 0, 64, 100
1, 337026, Control_c, 0, 64, 101
1, 337041, Control_c, 0, 64, 103
1, 337055, Control_c, 0, 64, 104
1, 337070, Control_c, 0, 64, 105
1, 337085, Control_c, 0, 64, 107
1, 337100, Control_c, 0, 64, 108
1, 337115, Control_c, 0, 64, 110
1, 337129, Control_c, 0, 64, 112
1, 337144, Control_c, 0, 64, 113
1, 337159, Control_c, 0, 64, 114
1, 337174, Control_c, 0, 64, 116
1, 337189, Control_c, 0, 64, 117
1, 337204, Control_c, 0, 64, 119
1, 337219, Control_c, 0, 64, 121
1, 337234, Control_c, 0, 64, 123
1, 337248, Control_c, 0, 64, 126
1, 337263, Control_c, 0, 64, 127
1, 337878, Control_c, 0, 64, 123
1, 337893, Control_c, 0, 64, 121
1, 337908, Control_c, 0, 64, 119
1, 337912, Note_off_c, 0, 53, 38
1, 337923, Control_c, 0, 64, 118
1, 337936, Note_off_c, 0, 48, 31
1, 337938, Control_c, 0, 64, 116
1, 337952, Control_c, 0, 64, 115
1, 337967, Control_c, 0, 64, 113
1, 337982, Control_c, 0, 64, 112
1, 337985, Note_off_c, 0, 57, 33
1, 337997, Control_c, 0, 64, 110
1, 338012, Control_c, 0, 64, 109
1, 338027, Control_c, 0, 64, 108
1, 338041, Control_c, 0, 64, 107
1, 338056, Control_c, 0, 64, 106
1, 338071, Control_c, 0, 64, 104
1, 338086, Control_c, 0, 64, 103
1, 338090, Note_off_c, 0, 41, 32
1, 338101, Control_c, 0, 64, 102
1, 338116, Control_c, 0, 64, 101
1, 338131, Control_c, 0, 64, 100
1, 338146, Control_c, 0, 64, 99
1, 338161, Control_c, 0, 64, 98
1, 338176, Control_c, 0, 64, 97
1, 338190, Control_c, 0, 64, 96
1, 338205, Control_c, 0, 64, 95
1, 338220, Control_c, 0, 64, 94
1, 338235, Control_c, 0, 64, 94
1, 338250, Control_c, 0, 64, 93
1, 338264, Control_c, 0, 64, 92
1, 338279, Control_c, 0, 64, 92
1, 338294, Control_c, 0, 64, 91
1, 338309, Control_c, 0, 64, 91
1, 338324, Control_c, 0, 64, 90
1, 338346, Control_c, 0, 64, 89
1, 338360, Control_c, 0, 64, 88
1, 338376, Control_c, 0, 64, 87
1, 338391, Control_c, 0, 64, 85
1, 338406, Control_c, 0, 64, 84
1, 338421, Control_c, 0, 64, 82
1, 338436, Control_c, 0, 64, 79
1, 338450, Control_c, 0, 64, 75
1, 338465, Control_c, 0, 64, 71
1, 338480, Control_c, 0, 64, 66
1, 338495, Control_c, 0, 64, 63
1, 338509, Control_c, 0, 64, 61
1, 338524, Control_c, 0, 64, 61
1, 338539, Control_c, 0, 64, 60
1, 338554, Control_c, 0, 64, 58
1, 338569, Control_c, 0, 64, 57
1, 338584, Control_c, 0, 64, 56
1, 338628, Control_c, 0, 64, 56
1, 338850, Control_c, 0, 64, 56
1, 338924, Control_c, 0, 64, 57
1, 338998, Control_c, 0, 64, 57
1, 339585, Control_c, 0, 64, 58
1, 339642, Control_c, 0, 64, 58
1, 339687, Control_c, 0, 64, 59
1, 339717, Control_c, 0, 64, 59
1, 339732, Control_c, 0, 64, 60
1, 339747, Control_c, 0, 64, 60
1, 339761, Control_c, 0, 64, 61
1, 339776, Control_c, 0, 64, 61
1, 339806, Control_c, 0, 64, 62
1, 339821, Control_c, 0, 64, 62
1, 339872, Control_c, 0, 64, 63
1, 339887, Control_c, 0, 64, 63
1, 339902, Control_c, 0, 64, 64
1, 339916, Control_c, 0, 64, 64
1, 339946, Control_c, 0, 64, 65
1, 339961, Control_c, 0, 64, 66
1, 339977, Control_c, 0, 64, 67
1, 339992, Control_c, 0, 64, 68
1, 340007, Control_c, 0, 64, 70
1, 340021, Control_c, 0, 64, 71
1, 340036, Control_c, 0, 64, 73
1, 340051, Control_c, 0, 64, 76
1, 340066, Control_c, 0, 64, 80
1, 340080, Control_c, 0, 64, 84
1, 340095, Control_c, 0, 64, 86
1, 340110, Control_c, 0, 64, 89
1, 340125, Control_c, 0, 64, 91
1, 340140, Control_c, 0, 64, 94
1, 340155, Control_c, 0, 64, 96
1, 340170, Control_c, 0, 64, 98
1, 340185, Control_c, 0, 64, 100
1, 340200, Control_c, 0, 64, 101
1, 340215, Control_c, 0, 64, 101
1, 340651, Control_c, 0, 64, 98
1, 340666, Control_c, 0, 64, 92
1, 340680, Control_c, 0, 64, 83
1, 340695, Control_c, 0, 64, 73
1, 340710, Control_c, 0, 64, 65
1, 340725, Control_c, 0, 64, 56
1, 340740, Control_c, 0, 64, 55
1, 340754, Control_c, 0, 64, 58
1, 340770, Control_c, 0, 64, 59
1, 340785, Control_c, 0, 64, 60
1, 340829, Control_c, 0, 64, 61
1, 340861, Note_on_c, 0, 77, 63
1, 340890, Note_off_c, 0, 77, 65
1, 340931, Note_on_c, 0, 76, 57
1, 340960, Note_off_c, 0, 76, 53
1, 340963, Control_c, 0, 64, 60
1, 340978, Control_c, 0, 64, 58
1, 340993, Control_c, 0, 64, 50
1, 340996, Note_on_c, 0, 77, 64
1, 341007, Control_c, 0, 64, 0
1, 341046, Note_off_c, 0, 77, 64
1, 341052, Note_on_c, 0, 79, 72
1, 341103, Note_off_c, 0, 79, 59
1, 341117, Note_on_c, 0, 75, 68
1, 341171, Note_on_c, 0, 77, 73
1, 341172, Note_off_c, 0, 75, 63
1, 341201, Note_off_c, 0, 77, 62
1, 341232, Note_on_c, 0, 74, 71
1, 341256, Note_off_c, 0, 74, 70
1, 341288, Note_on_c, 0, 75, 61
1, 341307, Note_off_c, 0, 75, 65
1, 341350, Note_on_c, 0, 72, 68
1, 341384, Note_off_c, 0, 72, 52
1, 341401, Note_on_c, 0, 74, 70
1, 341455, Note_off_c, 0, 74, 62
1, 341482, Note_on_c, 0, 70, 71
1, 341505, Note_off_c, 0, 70, 69
1, 341630, Note_on_c, 0, 58, 52
1, 341632, Note_on_c, 0, 70, 70
1, 341656, Note_off_c, 0, 70, 69
1, 341752, Note_off_c, 0, 58, 59
1, 341759, Note_on_c, 0, 72, 64
1, 341773, Note_on_c, 0, 62, 54
1, 341805, Note_off_c, 0, 72, 60
1, 341814, Note_off_c, 0, 62, 60
1, 341819, Note_on_c, 0, 70, 67
1, 341851, Note_off_c, 0, 70, 63
1, 341866, Note_on_c, 0, 58, 56
1, 341882, Note_on_c, 0, 69, 57
1, 341920, Note_off_c, 0, 69, 57
1, 341945, Note_on_c, 0, 70, 60
1, 341970, Note_off_c, 0, 58, 59
1, 341981, Note_off_c, 0, 70, 64
1, 341984, Note_on_c, 0, 63, 60
1, 341996, Note_on_c, 0, 72, 54
1, 342015, Note_off_c, 0, 72, 62
1, 342096, Note_off_c, 0, 63, 54
1, 342120, Note_on_c, 0, 58, 52
1, 342132, Note_on_c, 0, 65, 71
1, 342157, Note_off_c, 0, 65, 69
1, 342233, Note_off_c, 0, 58, 58
1, 342262, Note_on_c, 0, 63, 41
1, 342266, Note_on_c, 0, 67, 70
1, 342291, Note_off_c, 0, 67, 68
1, 342380, Note_off_c, 0, 63, 43
1, 342398, Note_on_c, 0, 58, 47
1, 342409, Note_on_c, 0, 69, 64
1, 342425, Note_off_c, 0, 69, 65
1, 342476, Control_c, 0, 67, 127
1, 342491, Control_c, 0, 67, 124
1, 342506, Control_c, 0, 67, 120
1, 342521, Control_c, 0, 67, 117
1, 342536, Control_c, 0, 67, 114
1, 342545, Note_on_c, 0, 70, 62
1, 342548, Note_on_c, 0, 62, 51
1, 342550, Control_c, 0, 67, 110
1, 342553, Note_off_c, 0, 58, 47
1, 342565, Control_c, 0, 67, 107
1, 342580, Control_c, 0, 67, 104
1, 342594, Control_c, 0, 67, 100
1, 342609, Control_c, 0, 67, 95
1, 342624, Control_c, 0, 67, 90
1, 342638, Control_c, 0, 67, 86
1, 342653, Control_c, 0, 67, 81
1, 342660, Note_off_c, 0, 62, 61
1, 342667, Control_c, 0, 67, 77
1, 342682, Control_c, 0, 67, 74
1, 342684, Note_on_c, 0, 65, 53
1, 342697, Control_c, 0, 67, 72
1, 342712, Control_c, 0, 67, 70
1, 342727, Control_c, 0, 67, 69
1, 342741, Control_c, 0, 64, 11
1, 342741, Control_c, 0, 67, 67
1, 342756, Control_c, 0, 64, 17
1, 342756, Control_c, 0, 67, 66
1, 342771, Control_c, 0, 64, 19
1, 342771, Control_c, 0, 67, 65
1, 342783, Note_off_c, 0, 65, 57
1, 342785, Control_c, 0, 67, 65
1, 342800, Control_c, 0, 64, 14
1, 342815, Control_c, 0, 64, 0
1, 342818, Note_on_c, 0, 58, 59
1, 342838, Control_c, 0, 67, 65
1, 342841, Note_off_c, 0, 70, 61
1, 342853, Control_c, 0, 67, 67
1, 342867, Control_c, 0, 67, 68
1, 342882, Control_c, 0, 67, 68
1, 342897, Control_c, 0, 67, 69
1, 342898, Note_on_c, 0, 65, 59
1, 342912, Control_c, 0, 67, 70
1, 342927, Control_c, 0, 67, 71
1, 342931, Note_off_c, 0, 65, 63
1, 342941, Control_c, 0, 67, 72
1, 342958, Note_on_c, 0, 67, 68
1, 342971, Control_c, 0, 67, 72
1, 343008, Note_off_c, 0, 67, 61
1, 343008, Note_on_c, 0, 69, 68
1, 343030, Control_c, 0, 67, 71
1, 343045, Control_c, 0, 67, 70
1, 343059, Note_on_c, 0, 70, 76
1, 343060, Control_c, 0, 67, 69
1, 343066, Note_off_c, 0, 69, 59
1, 343067, Note_off_c, 0, 58, 63
1, 343074, Control_c, 0, 67, 68
1, 343089, Control_c, 0, 67, 66
1, 343101, Note_off_c, 0, 70, 62
1, 343104, Control_c, 0, 67, 64
1, 343119, Control_c, 0, 67, 61
1, 343134, Control_c, 0, 67, 55
1, 343136, Note_on_c, 0, 72, 73
1, 343148, Control_c, 0, 67, 49
1, 343164, Control_c, 0, 67, 43
1, 343179, Control_c, 0, 67, 36
1, 343187, Note_off_c, 0, 72, 59
1, 343194, Control_c, 0, 67, 29
1, 343200, Note_on_c, 0, 74, 76
1, 343209, Control_c, 0, 67, 21
1, 343223, Control_c, 0, 64, 11
1, 343223, Control_c, 0, 67, 13
1, 343238, Control_c, 0, 64, 21
1, 343238, Control_c, 0, 67, 0
1, 343246, Note_off_c, 0, 74, 64
1, 343248, Note_on_c, 0, 75, 75
1, 343253, Control_c, 0, 64, 26
1, 343268, Control_c, 0, 64, 28
1, 343283, Control_c, 0, 64, 29
1, 343286, Note_off_c, 0, 75, 63
1, 343311, Note_on_c, 0, 77, 73
1, 343359, Note_off_c, 0, 77, 57
1, 343371, Control_c, 0, 64, 30
1, 343379, Note_on_c, 0, 79, 73
1, 343386, Control_c, 0, 64, 32
1, 343401, Control_c, 0, 64, 35
1, 343416, Control_c, 0, 64, 37
1, 343431, Control_c, 0, 64, 40
1, 343440, Note_on_c, 0, 81, 72
1, 343441, Note_off_c, 0, 79, 60
1, 343446, Control_c, 0, 64, 42
1, 343453, Note_on_c, 0, 74, 60
1, 343461, Control_c, 0, 64, 44
1, 343476, Note_off_c, 0, 81, 64
1, 343476, Control_c, 0, 64, 46
1, 343490, Control_c, 0, 64, 47
1, 343498, Note_on_c, 0, 82, 72
1, 343505, Control_c, 0, 64, 48
1, 343559, Note_off_c, 0, 74, 63
1, 343572, Note_off_c, 0, 82, 64
1, 343577, Note_on_c, 0, 81, 76
1, 343592, Note_on_c, 0, 75, 58
1, 343640, Note_off_c, 0, 81, 60
1, 343646, Note_on_c, 0, 79, 68
1, 343684, Note_off_c, 0, 79, 62
1, 343693, Note_off_c, 0, 75, 57
1, 343696, Note_on_c, 0, 74, 70
1, 343704, Note_on_c, 0, 77, 68
1, 343720, Control_c, 0, 64, 48
1, 343749, Note_off_c, 0, 77, 64
1, 343750, Control_c, 0, 64, 49
1, 343763, Note_on_c, 0, 79, 68
1, 343783, Note_off_c, 0, 74, 64
1, 343818, Note_on_c, 0, 72, 60
1, 343827, Note_on_c, 0, 81, 62
1, 343828, Note_off_c, 0, 79, 61
1, 343875, Note_off_c, 0, 81, 60
1, 343880, Note_on_c, 0, 82, 73
1, 343902, Note_off_c, 0, 82, 69
1, 343927, Control_c, 0, 64, 48
1, 343941, Note_off_c, 0, 72, 55
1, 343945, Note_on_c, 0, 84, 69
1, 343954, Note_on_c, 0, 70, 51
1, 343980, Note_off_c, 0, 84, 63
1, 344007, Note_on_c, 0, 86, 72
1, 344055, Note_off_c, 0, 70, 63
1, 344055, Note_off_c, 0, 86, 63
1, 344062, Note_on_c, 0, 87, 81
1, 344078, Note_on_c, 0, 69, 54
1, 344082, Note_off_c, 0, 87, 71
1, 344120, Control_c, 0, 64, 49
1, 344151, Control_c, 0, 64, 49
1, 344166, Control_c, 0, 64, 50
1, 344179, Note_off_c, 0, 69, 60
1, 344214, Note_on_c, 0, 87, 88
1, 344215, Note_on_c, 0, 65, 49
1, 344235, Note_off_c, 0, 87, 68
1, 344239, Control_c, 0, 64, 50
1, 344254, Control_c, 0, 64, 51
1, 344269, Control_c, 0, 64, 51
1, 344284, Control_c, 0, 64, 52
1, 344340, Note_off_c, 0, 65, 63
1, 344355, Note_on_c, 0, 87, 67
1, 344362, Note_on_c, 0, 70, 49
1, 344394, Note_off_c, 0, 87, 58
1, 344395, Control_c, 0, 64, 52
1, 344410, Control_c, 0, 64, 53
1, 344422, Note_on_c, 0, 86, 70
1, 344453, Note_off_c, 0, 70, 61
1, 344455, Note_off_c, 0, 86, 66
1, 344469, Control_c, 0, 64, 52
1, 344477, Note_on_c, 0, 84, 60
1, 344478, Note_on_c, 0, 65, 53
1, 344484, Control_c, 0, 64, 52
1, 344499, Control_c, 0, 64, 51
1, 344504, Note_off_c, 0, 84, 67
1, 344513, Control_c, 0, 64, 50
1, 344543, Note_on_c, 0, 86, 69
1, 344543, Control_c, 0, 64, 49
1, 344582, Note_off_c, 0, 86, 63
1, 344605, Note_on_c, 0, 84, 58
1, 344617, Note_on_c, 0, 69, 54
1, 344709, Note_off_c, 0, 65, 35
1, 344736, Note_off_c, 0, 69, 61
1, 344771, Note_on_c, 0, 72, 50
1, 344781, Control_c, 0, 64, 49
1, 344796, Control_c, 0, 64, 50
1, 344854, Note_off_c, 0, 84, 63
1, 344885, Control_c, 0, 64, 49
1, 344898, Note_off_c, 0, 72, 45
1, 344900, Control_c, 0, 64, 48
1, 344901, Note_on_c, 0, 65, 60
1, 344915, Control_c, 0, 64, 48
1, 344974, Control_c, 0, 64, 48
1, 344988, Control_c, 0, 64, 49
1, 345003, Control_c, 0, 64, 50
1, 345018, Control_c, 0, 64, 51
1, 345033, Control_c, 0, 64, 52
1, 345043, Note_on_c, 0, 77, 69
1, 345048, Control_c, 0, 64, 52
1, 345062, Control_c, 0, 64, 53
1, 345075, Note_off_c, 0, 77, 64
1, 345102, Note_off_c, 0, 65, 58
1, 345122, Note_on_c, 0, 76, 66
1, 345159, Control_c, 0, 64, 51
1, 345166, Note_off_c, 0, 76, 46
1, 345174, Control_c, 0, 64, 21
1, 345184, Note_on_c, 0, 77, 76
1, 345188, Control_c, 0, 64, 0
1, 345234, Note_on_c, 0, 79, 79
1, 345238, Note_off_c, 0, 77, 64
1, 345302, Note_off_c, 0, 79, 62
1, 345306, Note_on_c, 0, 75, 83
1, 345371, Note_on_c, 0, 77, 81
1, 345378, Note_off_c, 0, 75, 63
1, 345421, Note_off_c, 0, 77, 63
1, 345428, Note_on_c, 0, 74, 88
1, 345470, Note_off_c, 0, 74, 67
1, 345485, Note_on_c, 0, 75, 83
1, 345534, Note_off_c, 0, 75, 65
1, 345548, Note_on_c, 0, 72, 80
1, 345606, Note_on_c, 0, 74, 81
1, 345611, Note_off_c, 0, 72, 63
1, 345672, Note_off_c, 0, 74, 63
1, 345676, Note_on_c, 0, 70, 92
1, 345705, Note_off_c, 0, 70, 66
1, 345819, Note_on_c, 0, 50, 94
1, 345821, Note_on_c, 0, 62, 84
1, 345825, Note_on_c, 0, 70, 87
1, 345852, Note_off_c, 0, 50, 69
1, 345852, Note_off_c, 0, 62, 66
1, 345858, Note_off_c, 0, 70, 63
1, 345966, Note_on_c, 0, 48, 97
1, 345966, Note_on_c, 0, 72, 89
1, 345967, Note_on_c, 0, 60, 95
1, 345989, Note_off_c, 0, 48, 69
1, 345990, Note_off_c, 0, 60, 67
1, 346031, Note_off_c, 0, 72, 64
1, 346036, Note_on_c, 0, 70, 80
1, 346086, Note_off_c, 0, 70, 64
1, 346099, Note_on_c, 0, 69, 73
1, 346108, Note_on_c, 0, 58, 95
1, 346109, Note_on_c, 0, 46, 89
1, 346150, Note_off_c, 0, 58, 61
1, 346156, Note_on_c, 0, 70, 80
1, 346158, Note_off_c, 0, 46, 59
1, 346170, Note_off_c, 0, 69, 62
1, 346230, Note_on_c, 0, 72, 88
1, 346236, Note_on_c, 0, 57, 93
1, 346237, Note_on_c, 0, 45, 92
1, 346240, Note_off_c, 0, 70, 65
1, 346260, Note_off_c, 0, 57, 65
1, 346263, Note_off_c, 0, 72, 65
1, 346267, Note_off_c, 0, 45, 65
1, 346378, Note_on_c, 0, 43, 88
1, 346381, Note_on_c, 0, 65, 85
1, 346385, Note_on_c, 0, 55, 75
1, 346404, Note_off_c, 0, 43, 66
1, 346408, Note_off_c, 0, 55, 68
1, 346423, Note_off_c, 0, 65, 63
1, 346519, Note_on_c, 0, 41, 94
1, 346522, Note_on_c, 0, 53, 88
1, 346522, Note_on_c, 0, 67, 91
1, 346545, Note_off_c, 0, 53, 72
1, 346546, Note_off_c, 0, 41, 66
1, 346554, Note_off_c, 0, 67, 64
1, 346641, Control_c, 0, 64, 11
1, 346656, Control_c, 0, 64, 17
1, 346662, Note_on_c, 0, 39, 82
1, 346665, Note_on_c, 0, 51, 86
1, 346671, Control_c, 0, 64, 21
1, 346672, Note_on_c, 0, 69, 90
1, 346686, Control_c, 0, 64, 24
1, 346689, Note_off_c, 0, 51, 70
1, 346700, Note_off_c, 0, 39, 60
1, 346701, Control_c, 0, 64, 26
1, 346707, Note_off_c, 0, 69, 61
1, 346715, Control_c, 0, 64, 23
1, 346730, Control_c, 0, 64, 0
1, 346804, Note_on_c, 0, 70, 83
1, 346806, Note_on_c, 0, 50, 83
1, 346813, Note_on_c, 0, 38, 64
1, 346819, Control_c, 0, 64, 49
1, 346833, Control_c, 0, 64, 66
1, 346836, Note_off_c, 0, 50, 68
1, 346838, Note_off_c, 0, 38, 59
1, 346848, Control_c, 0, 64, 73
1, 346863, Control_c, 0, 64, 80
1, 346878, Control_c, 0, 64, 85
1, 346893, Control_c, 0, 64, 87
1, 346907, Control_c, 0, 64, 88
1, 346922, Control_c, 0, 64, 88
1, 346943, Note_on_c, 0, 41, 83
1, 347081, Note_on_c, 0, 46, 75
1, 347086, Control_c, 0, 64, 88
1, 347100, Control_c, 0, 64, 86
1, 347115, Control_c, 0, 64, 84
1, 347124, Note_off_c, 0, 70, 59
1, 347130, Control_c, 0, 64, 81
1, 347133, Note_on_c, 0, 65, 68
1, 347145, Control_c, 0, 64, 77
1, 347161, Control_c, 0, 64, 72
1, 347176, Control_c, 0, 64, 68
1, 347190, Note_off_c, 0, 41, 36
1, 347191, Control_c, 0, 64, 62
1, 347198, Note_off_c, 0, 65, 61
1, 347205, Control_c, 0, 64, 57
1, 347208, Note_on_c, 0, 50, 76
1, 347209, Note_on_c, 0, 67, 76
1, 347220, Control_c, 0, 64, 56
1, 347244, Note_off_c, 0, 46, 60
1, 347264, Control_c, 0, 64, 57
1, 347267, Note_on_c, 0, 69, 73
1, 347277, Note_off_c, 0, 67, 59
1, 347317, Note_off_c, 0, 50, 64
1, 347319, Note_on_c, 0, 70, 77
1, 347331, Control_c, 0, 64, 57
1, 347339, Note_off_c, 0, 69, 60
1, 347342, Note_on_c, 0, 53, 80
1, 347367, Note_off_c, 0, 70, 61
1, 347390, Control_c, 0, 64, 57
1, 347400, Note_on_c, 0, 72, 74
1, 347420, Control_c, 0, 64, 58
1, 347435, Control_c, 0, 64, 58
1, 347458, Note_off_c, 0, 72, 62
1, 347464, Note_off_c, 0, 53, 46
1, 347465, Note_on_c, 0, 58, 80
1, 347469, Note_on_c, 0, 74, 82
1, 347479, Control_c, 0, 64, 59
1, 347509, Control_c, 0, 64, 59
1, 347530, Note_on_c, 0, 75, 77
1, 347532, Note_off_c, 0, 74, 65
1, 347578, Note_off_c, 0, 75, 62
1, 347583, Control_c, 0, 64, 59
1, 347593, Note_on_c, 0, 62, 73
1, 347597, Note_on_c, 0, 77, 76
1, 347598, Control_c, 0, 64, 58
1, 347605, Note_off_c, 0, 58, 59
1, 347628, Control_c, 0, 64, 58
1, 347643, Control_c, 0, 64, 57
1, 347658, Control_c, 0, 64, 57
1, 347661, Note_off_c, 0, 77, 60
1, 347664, Note_on_c, 0, 79, 79
1, 347673, Control_c, 0, 64, 53
1, 347688, Control_c, 0, 64, 21
1, 347703, Control_c, 0, 64, 0
1, 347728, Note_off_c, 0, 62, 62
1, 347729, Note_on_c, 0, 81, 79
1, 347737, Note_on_c, 0, 65, 73
1, 347746, Note_off_c, 0, 79, 60
1, 347787, Note_on_c, 0, 82, 79
1, 347805, Note_off_c, 0, 81, 57
1, 347852, Note_off_c, 0, 65, 62
1, 347864, Note_on_c, 0, 62, 62
1, 347867, Note_off_c, 0, 82, 64
1, 347871, Note_on_c, 0, 77, 82
1, 347994, Note_off_c, 0, 77, 56
1, 348002, Note_off_c, 0, 62, 61
1, 348003, Note_on_c, 0, 79, 74
1, 348025, Note_on_c, 0, 65, 65
1, 348075, Note_on_c, 0, 81, 74
1, 348075, Note_off_c, 0, 79, 58
1, 348126, Note_on_c, 0, 82, 77
1, 348132, Note_off_c, 0, 65, 60
1, 348142, Note_off_c, 0, 81, 62
1, 348153, Note_on_c, 0, 62, 61
1, 348164, Note_off_c, 0, 82, 63
1, 348203, Note_on_c, 0, 84, 71
1, 348245, Note_off_c, 0, 62, 61
1, 348271, Note_off_c, 0, 84, 59
1, 348276, Note_on_c, 0, 58, 50
1, 348276, Note_on_c, 0, 86, 72
1, 348325, Note_on_c, 0, 87, 70
1, 348331, Note_off_c, 0, 86, 62
1, 348377, Note_off_c, 0, 87, 63
1, 348386, Note_off_c, 0, 58, 61
1, 348393, Note_on_c, 0, 53, 64
1, 348405, Note_on_c, 0, 89, 52
1, 348427, Note_off_c, 0, 89, 57
1, 348451, Control_c, 0, 67, 8
1, 348461, Note_off_c, 0, 53, 66
1, 348496, Control_c, 0, 67, 8
1, 348531, Note_on_c, 0, 89, 70
1, 348555, Control_c, 0, 67, 9
1, 348561, Note_off_c, 0, 89, 63
1, 348629, Control_c, 0, 64, 17
1, 348644, Control_c, 0, 64, 19
1, 348659, Control_c, 0, 64, 17
1, 348674, Control_c, 0, 64, 0
1, 348680, Note_on_c, 0, 89, 56
1, 348682, Note_on_c, 0, 41, 41
1, 348682, Note_on_c, 0, 48, 45
1, 348697, Note_on_c, 0, 45, 42
1, 348698, Note_on_c, 0, 53, 31
1, 348710, Note_on_c, 0, 88, 40
1, 348718, Control_c, 0, 67, 9
1, 348732, Note_off_c, 0, 88, 36
1, 348747, Control_c, 0, 67, 10
1, 348756, Note_on_c, 0, 87, 65
1, 348764, Note_off_c, 0, 45, 62
1, 348764, Note_off_c, 0, 48, 62
1, 348767, Note_off_c, 0, 89, 45
1, 348773, Note_off_c, 0, 41, 41
1, 348793, Control_c, 0, 67, 11
1, 348808, Control_c, 0, 67, 13
1, 348811, Note_off_c, 0, 87, 63
1, 348820, Note_on_c, 0, 86, 59
1, 348823, Control_c, 0, 67, 13
1, 348844, Control_c, 0, 67, 14
1, 348862, Note_off_c, 0, 86, 66
1, 348898, Note_on_c, 0, 84, 60
1, 348919, Control_c, 0, 67, 14
1, 348934, Control_c, 0, 67, 15
1, 348949, Control_c, 0, 67, 16
1, 348954, Note_off_c, 0, 53, 56
1, 348963, Control_c, 0, 67, 19
1, 348978, Note_off_c, 0, 84, 61
1, 348978, Control_c, 0, 67, 22
1, 348978, Note_on_c, 0, 50, 46
1, 348987, Note_on_c, 0, 46, 36
1, 348991, Note_on_c, 0, 82, 54
1, 348993, Control_c, 0, 67, 25
1, 349008, Control_c, 0, 67, 29
1, 349023, Control_c, 0, 67, 32
1, 349037, Control_c, 0, 67, 36
1, 349052, Control_c, 0, 67, 41
1, 349067, Control_c, 0, 67, 45
1, 349082, Control_c, 0, 67, 49
1, 349097, Control_c, 0, 67, 54
1, 349111, Control_c, 0, 67, 59
1, 349114, Note_off_c, 0, 50, 64
1, 349122, Note_off_c, 0, 46, 53
1, 349126, Control_c, 0, 67, 66
1, 349141, Control_c, 0, 67, 76
1, 349146, Note_on_c, 0, 53, 50
1, 349155, Control_c, 0, 67, 88
1, 349170, Control_c, 0, 67, 98
1, 349185, Control_c, 0, 67, 108
1, 349200, Control_c, 0, 67, 117
1, 349215, Control_c, 0, 67, 122
1, 349229, Control_c, 0, 67, 127
1, 349232, Note_off_c, 0, 82, 64
1, 349244, Control_c, 0, 67, 127
1, 349267, Note_off_c, 0, 53, 64
1, 349293, Note_on_c, 0, 50, 41
1, 349317, Note_on_c, 0, 46, 26
1, 349431, Note_on_c, 0, 72, 57
1, 349460, Note_off_c, 0, 72, 67
1, 349470, Note_on_c, 0, 70, 64
1, 349474, Note_off_c, 0, 50, 55
1, 349496, Note_off_c, 0, 70, 67
1, 349509, Note_off_c, 0, 46, 44
1, 349512, Note_on_c, 0, 69, 65
1, 349541, Note_off_c, 0, 69, 64
1, 349561, Note_on_c, 0, 70, 76
1, 349598, Note_off_c, 0, 70, 64
1, 349623, Control_c, 0, 67, 127
1, 349625, Note_on_c, 0, 71, 77
1, 349638, Control_c, 0, 67, 126
1, 349653, Control_c, 0, 67, 126
1, 349667, Control_c, 0, 67, 125
1, 349675, Note_off_c, 0, 71, 62
1, 349682, Control_c, 0, 67, 125
1, 349688, Note_on_c, 0, 72, 72
1, 349697, Control_c, 0, 67, 124
1, 349712, Control_c, 0, 67, 123
1, 349727, Control_c, 0, 67, 123
1, 349739, Note_on_c, 0, 73, 78
1, 349742, Control_c, 0, 67, 122
1, 349750, Note_off_c, 0, 72, 60
1, 349756, Control_c, 0, 67, 121
1, 349771, Control_c, 0, 67, 120
1, 349774, Note_off_c, 0, 73, 63
1, 349786, Note_on_c, 0, 74, 79
1, 349786, Control_c, 0, 67, 118
1, 349801, Control_c, 0, 67, 117
1, 349821, Note_off_c, 0, 74, 65
1, 349850, Note_on_c, 0, 75, 72
1, 349873, Note_off_c, 0, 75, 70
1, 349875, Control_c, 0, 67, 118
1, 349890, Control_c, 0, 67, 118
1, 349905, Control_c, 0, 67, 119
1, 349911, Note_on_c, 0, 76, 63
1, 349920, Control_c, 0, 67, 119
1, 349934, Control_c, 0, 67, 120
1, 349941, Note_off_c, 0, 76, 63
1, 349964, Control_c, 0, 67, 121
1, 349973, Note_on_c, 0, 77, 63
1, 350023, Control_c, 0, 67, 121
1, 350025, Note_on_c, 0, 78, 58
1, 350027, Note_off_c, 0, 77, 60
1, 350052, Control_c, 0, 67, 122
1, 350065, Note_off_c, 0, 78, 57
1, 350082, Control_c, 0, 67, 123
1, 350092, Note_on_c, 0, 58, 34
1, 350092, Note_on_c, 0, 63, 36
1, 350096, Note_on_c, 0, 79, 58
1, 350097, Control_c, 0, 67, 123
1, 350126, Control_c, 0, 67, 124
1, 350141, Control_c, 0, 67, 124
1, 350156, Control_c, 0, 67, 125
1, 350185, Control_c, 0, 67, 125
1, 350204, Note_off_c, 0, 63, 59
1, 350215, Control_c, 0, 67, 126
1, 350215, Note_off_c, 0, 58, 53
1, 350254, Note_on_c, 0, 67, 41
1, 350297, Note_off_c, 0, 79, 61
1, 350341, Control_c, 0, 67, 125
1, 350375, Note_off_c, 0, 67, 55
1, 350382, Note_on_c, 0, 58, 41
1, 350386, Control_c, 0, 67, 125
1, 350400, Note_on_c, 0, 63, 43
1, 350401, Control_c, 0, 67, 124
1, 350430, Control_c, 0, 67, 123
1, 350445, Control_c, 0, 67, 123
1, 350460, Control_c, 0, 67, 122
1, 350475, Control_c, 0, 67, 122
1, 350490, Control_c, 0, 67, 121
1, 350493, Note_off_c, 0, 63, 60
1, 350505, Control_c, 0, 67, 121
1, 350516, Note_off_c, 0, 58, 63
1, 350520, Control_c, 0, 67, 120
1, 350526, Note_on_c, 0, 81, 62
1, 350534, Control_c, 0, 67, 119
1, 350549, Control_c, 0, 67, 119
1, 350555, Note_off_c, 0, 81, 63
1, 350564, Control_c, 0, 67, 118
1, 350565, Note_on_c, 0, 79, 66
1, 350579, Control_c, 0, 67, 117
1, 350588, Note_off_c, 0, 79, 68
1, 350593, Note_on_c, 0, 78, 71
1, 350594, Control_c, 0, 67, 116
1, 350608, Control_c, 0, 67, 115
1, 350616, Note_off_c, 0, 78, 68
1, 350623, Control_c, 0, 67, 113
1, 350638, Control_c, 0, 67, 109
1, 350645, Note_on_c, 0, 79, 68
1, 350653, Control_c, 0, 67, 103
1, 350668, Control_c, 0, 67, 98
1, 350676, Note_off_c, 0, 79, 58
1, 350682, Control_c, 0, 67, 94
1, 350684, Note_on_c, 0, 58, 42
1, 350686, Note_on_c, 0, 81, 71
1, 350689, Note_on_c, 0, 60, 44
1, 350697, Control_c, 0, 67, 92
1, 350712, Control_c, 0, 67, 91
1, 350726, Control_c, 0, 67, 91
1, 350818, Note_off_c, 0, 58, 59
1, 350830, Note_off_c, 0, 60, 63
1, 350830, Control_c, 0, 67, 91
1, 350860, Control_c, 0, 67, 92
1, 350868, Note_on_c, 0, 63, 49
1, 350890, Control_c, 0, 67, 92
1, 350894, Note_off_c, 0, 81, 59
1, 350920, Control_c, 0, 67, 93
1, 350934, Control_c, 0, 67, 93
1, 350949, Control_c, 0, 67, 94
1, 350964, Control_c, 0, 67, 96
1, 350979, Control_c, 0, 67, 98
1, 350994, Control_c, 0, 67, 100
1, 350999, Note_off_c, 0, 63, 60
1, 351003, Note_on_c, 0, 58, 52
1, 351004, Note_on_c, 0, 60, 48
1, 351008, Control_c, 0, 67, 102
1, 351023, Control_c, 0, 67, 103
1, 351038, Control_c, 0, 67, 105
1, 351053, Control_c, 0, 67, 108
1, 351068, Control_c, 0, 67, 111
1, 351090, Control_c, 0, 67, 115
1, 351105, Control_c, 0, 67, 119
1, 351120, Control_c, 0, 67, 121
1, 351132, Note_on_c, 0, 82, 65
1, 351134, Control_c, 0, 67, 123
1, 351143, Note_off_c, 0, 60, 62
1, 351145, Note_off_c, 0, 58, 61
1, 351151, Control_c, 0, 67, 126
1, 351166, Control_c, 0, 67, 127
1, 351168, Note_off_c, 0, 82, 62
1, 351180, Control_c, 0, 67, 127
1, 351185, Note_on_c, 0, 81, 60
1, 351211, Note_off_c, 0, 81, 66
1, 351216, Note_on_c, 0, 79, 68
1, 351244, Note_off_c, 0, 79, 60
1, 351276, Note_on_c, 0, 81, 72
1, 351321, Note_off_c, 0, 81, 59
1, 351321, Note_on_c, 0, 82, 60
1, 351327, Note_on_c, 0, 62, 46
1, 351340, Note_on_c, 0, 58, 40
1, 351454, Note_off_c, 0, 62, 61
1, 351467, Note_off_c, 0, 58, 53
1, 351486, Note_on_c, 0, 65, 43
1, 351562, Note_off_c, 0, 82, 64
1, 351607, Note_off_c, 0, 65, 55
1, 351620, Note_on_c, 0, 62, 48
1, 351631, Note_on_c, 0, 58, 43
1, 351766, Note_on_c, 0, 72, 54
1, 351798, Note_off_c, 0, 72, 65
1, 351800, Note_off_c, 0, 62, 52
1, 351809, Note_on_c, 0, 70, 61
1, 351845, Note_off_c, 0, 70, 66
1, 351850, Note_off_c, 0, 58, 45
1, 351867, Note_on_c, 0, 69, 61
1, 351895, Note_off_c, 0, 69, 66
1, 351911, Note_on_c, 0, 70, 71
1, 351959, Note_off_c, 0, 70, 61
1, 351977, Note_on_c, 0, 71, 77
1, 352026, Note_off_c, 0, 71, 62
1, 352042, Note_on_c, 0, 72, 75
1, 352099, Note_on_c, 0, 73, 82
1, 352103, Note_off_c, 0, 72, 64
1, 352131, Note_off_c, 0, 73, 64
1, 352152, Note_on_c, 0, 74, 81
1, 352197, Note_off_c, 0, 74, 65
1, 352210, Note_on_c, 0, 75, 84
1, 352245, Note_off_c, 0, 75, 64
1, 352277, Note_on_c, 0, 76, 70
1, 352329, Note_off_c, 0, 76, 58
1, 352332, Note_on_c, 0, 77, 74
1, 352382, Note_on_c, 0, 78, 67
1, 352393, Note_off_c, 0, 77, 57
1, 352428, Note_off_c, 0, 78, 63
1, 352442, Note_on_c, 0, 81, 71
1, 352445, Note_on_c, 0, 58, 47
1, 352449, Note_on_c, 0, 63, 45
1, 352594, Note_off_c, 0, 63, 61
1, 352609, Note_off_c, 0, 58, 55
1, 352614, Note_on_c, 0, 79, 63
1, 352631, Note_on_c, 0, 67, 44
1, 352661, Note_off_c, 0, 81, 52
1, 352744, Note_off_c, 0, 79, 62
1, 352770, Note_off_c, 0, 67, 59
1, 352778, Note_on_c, 0, 58, 49
1, 352779, Note_on_c, 0, 63, 56
1, 352855, Note_off_c, 0, 63, 60
1, 352876, Note_off_c, 0, 58, 64
1, 352905, Note_on_c, 0, 81, 70
1, 352941, Note_off_c, 0, 81, 59
1, 352955, Note_on_c, 0, 79, 50
1, 352971, Note_on_c, 0, 78, 78
1, 353003, Note_off_c, 0, 79, 0
1, 353004, Note_off_c, 0, 78, 64
1, 353014, Note_on_c, 0, 79, 61
1, 353056, Note_on_c, 0, 58, 51
1, 353061, Note_on_c, 0, 60, 46
1, 353067, Note_on_c, 0, 82, 77
1, 353075, Note_off_c, 0, 79, 61
1, 353197, Note_off_c, 0, 58, 56
1, 353198, Note_off_c, 0, 60, 62
1, 353225, Note_on_c, 0, 81, 64
1, 353230, Note_off_c, 0, 82, 59
1, 353234, Note_on_c, 0, 63, 45
1, 353354, Note_off_c, 0, 81, 63
1, 353387, Note_on_c, 0, 60, 50
1, 353393, Note_off_c, 0, 63, 53
1, 353393, Note_on_c, 0, 58, 45
1, 353494, Note_off_c, 0, 60, 63
1, 353495, Note_off_c, 0, 58, 61
1, 353513, Note_on_c, 0, 82, 75
1, 353542, Note_off_c, 0, 82, 61
1, 353569, Note_on_c, 0, 81, 52
1, 353588, Note_off_c, 0, 81, 61
1, 353598, Note_on_c, 0, 79, 68
1, 353626, Note_off_c, 0, 79, 61
1, 353649, Note_on_c, 0, 81, 67
1, 353688, Note_on_c, 0, 62, 45
1, 353688, Note_on_c, 0, 58, 45
1, 353698, Note_on_c, 0, 82, 76
1, 353700, Note_off_c, 0, 81, 61
1, 353735, Note_off_c, 0, 82, 64
1, 353772, Note_on_c, 0, 84, 68
1, 353807, Note_off_c, 0, 62, 60
1, 353816, Note_off_c, 0, 58, 54
1, 353822, Note_off_c, 0, 84, 49
1, 353843, Note_on_c, 0, 65, 47
1, 353849, Note_on_c, 0, 86, 64
1, 353909, Note_on_c, 0, 87, 68
1, 353916, Note_off_c, 0, 86, 59
1, 353963, Note_off_c, 0, 87, 64
1, 353974, Note_off_c, 0, 65, 55
1, 353984, Note_on_c, 0, 89, 67
1, 354000, Note_on_c, 0, 62, 40
1, 354001, Note_on_c, 0, 58, 44
1, 354060, Note_on_c, 0, 87, 72
1, 354064, Note_off_c, 0, 89, 59
1, 354135, Note_off_c, 0, 87, 63
1, 354138, Note_on_c, 0, 86, 74
1, 354147, Note_off_c, 0, 62, 61
1, 354150, Note_off_c, 0, 58, 60
1, 354174, Note_off_c, 0, 86, 65
1, 354199, Note_on_c, 0, 84, 66
1, 354254, Note_off_c, 0, 84, 51
1, 354261, Note_on_c, 0, 82, 81
1, 354325, Note_on_c, 0, 81, 80
1, 354362, Note_off_c, 0, 82, 63
1, 354394, Note_on_c, 0, 79, 81
1, 354405, Note_off_c, 0, 81, 63
1, 354445, Note_off_c, 0, 79, 64
1, 354454, Note_on_c, 0, 77, 79
1, 354514, Note_off_c, 0, 77, 64
1, 354528, Note_on_c, 0, 75, 82
1, 354592, Note_on_c, 0, 74, 89
1, 354617, Note_off_c, 0, 75, 64
1, 354635, Control_c, 0, 64, 24
1, 354649, Control_c, 0, 64, 36
1, 354652, Note_off_c, 0, 74, 67
1, 354663, Note_on_c, 0, 72, 78
1, 354664, Control_c, 0, 64, 43
1, 354669, Note_on_c, 0, 50, 87
1, 354675, Note_on_c, 0, 38, 92
1, 354679, Control_c, 0, 64, 49
1, 354679, Control_c, 0, 67, 126
1, 354694, Control_c, 0, 64, 53
1, 354694, Control_c, 0, 67, 120
1, 354709, Note_off_c, 0, 50, 66
1, 354709, Control_c, 0, 64, 58
1, 354709, Control_c, 0, 67, 114
1, 354723, Note_on_c, 0, 70, 79
1, 354723, Control_c, 0, 64, 60
1, 354723, Control_c, 0, 67, 108
1, 354738, Note_off_c, 0, 72, 57
1, 354738, Control_c, 0, 64, 61
1, 354738, Control_c, 0, 67, 102
1, 354753, Control_c, 0, 64, 62
1, 354753, Control_c, 0, 67, 97
1, 354767, Control_c, 0, 67, 92
1, 354770, Note_on_c, 0, 71, 19
1, 354779, Poly_aftertouch_c, 0, 43, 0
1, 354782, Control_c, 0, 67, 85
1, 354797, Control_c, 0, 67, 75
1, 354802, Note_on_c, 0, 69, 88
1, 354808, Note_off_c, 0, 71, 43
1, 354820, Control_c, 0, 67, 61
1, 354824, Note_off_c, 0, 38, 63
1, 354827, Note_on_c, 0, 51, 101
1, 354834, Note_on_c, 0, 39, 78
1, 354835, Control_c, 0, 67, 47
1, 354839, Note_on_c, 0, 43, 43
1, 354848, Note_off_c, 0, 70, 62
1, 354849, Control_c, 0, 67, 22
1, 354864, Control_c, 0, 64, 61
1, 354864, Control_c, 0, 67, 0
1, 354871, Note_off_c, 0, 43, 49
1, 354872, Note_off_c, 0, 51, 68
1, 354886, Note_on_c, 0, 67, 83
1, 354894, Note_off_c, 0, 39, 56
1, 354898, Note_off_c, 0, 69, 63
1, 354957, Note_off_c, 0, 67, 61
1, 354970, Note_on_c, 0, 65, 75
1, 354997, Control_c, 0, 64, 62
1, 355012, Control_c, 0, 64, 62
1, 355027, Control_c, 0, 64, 63
1, 355039, Note_on_c, 0, 63, 78
1, 355039, Note_off_c, 0, 65, 56
1, 355042, Control_c, 0, 64, 64
1, 355056, Control_c, 0, 64, 65
1, 355071, Control_c, 0, 64, 67
1, 355086, Control_c, 0, 64, 68
1, 355116, Control_c, 0, 64, 65
1, 355121, Note_on_c, 0, 62, 83
1, 355130, Note_on_c, 0, 51, 98
1, 355131, Control_c, 0, 64, 0
1, 355137, Note_on_c, 0, 39, 85
1, 355140, Note_off_c, 0, 63, 60
1, 355180, Note_off_c, 0, 62, 64
1, 355191, Note_on_c, 0, 60, 80
1, 355226, Note_off_c, 0, 51, 65
1, 355229, Note_off_c, 0, 39, 61
1, 355271, Note_on_c, 0, 58, 80
1, 355288, Note_off_c, 0, 60, 63
1, 355356, Note_on_c, 0, 57, 81
1, 355402, Note_off_c, 0, 58, 63
1, 355429, Note_on_c, 0, 55, 85
1, 355438, Note_off_c, 0, 57, 63
1, 355484, Note_off_c, 0, 55, 67
1, 355495, Note_on_c, 0, 53, 76
1, 355573, Note_off_c, 0, 53, 60
1, 355581, Note_on_c, 0, 51, 72
1, 355654, Note_on_c, 0, 50, 73
1, 355677, Note_off_c, 0, 51, 63
1, 355712, Note_off_c, 0, 50, 65
1, 355725, Note_on_c, 0, 48, 71
1, 355802, Note_on_c, 0, 46, 66
1, 355810, Note_off_c, 0, 48, 60
1, 355882, Note_on_c, 0, 40, 75
1, 355883, Note_on_c, 0, 45, 73
1, 355906, Note_off_c, 0, 46, 57
1, 355906, Note_off_c, 0, 40, 66
1, 355954, Note_off_c, 0, 45, 64
1, 355965, Note_on_c, 0, 43, 75
1, 356031, Note_off_c, 0, 43, 62
1, 356046, Note_on_c, 0, 41, 84
1, 356056, Note_on_c, 0, 29, 74
1, 356070, Note_off_c, 0, 41, 66
1, 356088, Note_off_c, 0, 29, 64
1, 356117, Control_c, 0, 67, 8
1, 356132, Control_c, 0, 67, 9
1, 356146, Control_c, 0, 67, 9
1, 356280, Control_c, 0, 67, 9
1, 356362, Note_on_c, 0, 41, 66
1, 356365, Note_on_c, 0, 29, 66
1, 356435, Control_c, 0, 67, 9
1, 356467, Note_on_c, 0, 53, 52
1, 356507, Note_off_c, 0, 53, 63
1, 356541, Note_on_c, 0, 57, 58
1, 356602, Note_off_c, 0, 57, 61
1, 356607, Note_on_c, 0, 60, 64
1, 356666, Note_on_c, 0, 65, 69
1, 356666, Note_off_c, 0, 60, 64
1, 356672, Note_off_c, 0, 41, 62
1, 356690, Note_off_c, 0, 29, 63
1, 356755, Note_on_c, 0, 57, 63
1, 356756, Note_off_c, 0, 65, 59
1, 356812, Note_off_c, 0, 57, 58
1, 356828, Note_on_c, 0, 60, 65
1, 356894, Note_on_c, 0, 65, 63
1, 356899, Note_off_c, 0, 60, 63
1, 356910, Control_c, 0, 67, 9
1, 356953, Note_on_c, 0, 69, 76
1, 356955, Control_c, 0, 67, 8
1, 356967, Note_off_c, 0, 65, 59
1, 357027, Note_on_c, 0, 60, 68
1, 357035, Note_off_c, 0, 69, 60
1, 357104, Note_on_c, 0, 65, 70
1, 357104, Note_off_c, 0, 60, 64
1, 357172, Note_on_c, 0, 69, 71
1, 357176, Note_off_c, 0, 65, 63
1, 357234, Note_off_c, 0, 69, 63
1, 357235, Note_on_c, 0, 72, 75
1, 357309, Note_on_c, 0, 65, 67
1, 357310, Note_off_c, 0, 72, 62
1, 357368, Note_off_c, 0, 65, 61
1, 357373, Note_on_c, 0, 69, 68
1, 357435, Note_on_c, 0, 72, 74
1, 357441, Note_off_c, 0, 69, 59
1, 357490, Note_on_c, 0, 77, 73
1, 357493, Note_off_c, 0, 72, 64
1, 357562, Note_off_c, 0, 77, 59
1, 357565, Note_on_c, 0, 69, 67
1, 357584, Control_c, 0, 67, 9
1, 357620, Note_off_c, 0, 69, 60
1, 357629, Note_on_c, 0, 72, 72
1, 357696, Note_on_c, 0, 77, 67
1, 357698, Note_off_c, 0, 72, 62
1, 357744, Note_on_c, 0, 81, 76
1, 357754, Note_off_c, 0, 77, 60
1, 357792, Control_c, 0, 67, 9
1, 357806, Note_off_c, 0, 81, 59
1, 357824, Note_on_c, 0, 72, 67
1, 357829, Control_c, 0, 67, 10
1, 357873, Control_c, 0, 67, 11
1, 357875, Note_off_c, 0, 72, 62
1, 357893, Note_on_c, 0, 77, 65
1, 357903, Control_c, 0, 67, 12
1, 357918, Control_c, 0, 67, 13
1, 357933, Control_c, 0, 67, 19
1, 357945, Note_on_c, 0, 81, 66
1, 357945, Note_off_c, 0, 77, 63
1, 357948, Control_c, 0, 67, 30
1, 357963, Control_c, 0, 67, 45
1, 357978, Control_c, 0, 67, 65
1, 357992, Control_c, 0, 67, 84
1, 357998, Note_off_c, 0, 81, 62
1, 358002, Note_on_c, 0, 84, 65
1, 358007, Control_c, 0, 67, 101
1, 358022, Control_c, 0, 67, 115
1, 358030, Note_off_c, 0, 84, 66
1, 358037, Control_c, 0, 67, 125
1, 358052, Control_c, 0, 67, 127
1, 358069, Note_on_c, 0, 77, 67
1, 358112, Note_off_c, 0, 77, 63
1, 358126, Note_on_c, 0, 81, 64
1, 358182, Note_on_c, 0, 84, 65
1, 358191, Note_off_c, 0, 81, 60
1, 358257, Note_off_c, 0, 84, 56
1, 358271, Note_on_c, 0, 89, 72
1, 358291, Note_on_c, 0, 69, 35
1, 358302, Note_on_c, 0, 65, 37
1, 358409, Note_off_c, 0, 69, 57
1, 358452, Note_on_c, 0, 72, 46
1, 358482, Control_c, 0, 64, 14
1, 358496, Control_c, 0, 64, 24
1, 358511, Control_c, 0, 64, 29
1, 358526, Control_c, 0, 64, 31
1, 358541, Note_off_c, 0, 89, 63
1, 358600, Note_off_c, 0, 72, 57
1, 358601, Note_on_c, 0, 70, 55
1, 358696, Control_c, 0, 64, 30
1, 358700, Note_off_c, 0, 65, 58
1, 358700, Note_off_c, 0, 70, 62
1, 358711, Control_c, 0, 64, 29
1, 358712, Note_on_c, 0, 89, 70
1, 358726, Control_c, 0, 64, 28
1, 358730, Note_on_c, 0, 67, 49
1, 358741, Control_c, 0, 64, 27
1, 358749, Note_off_c, 0, 89, 62
1, 358770, Note_on_c, 0, 88, 63
1, 358795, Note_off_c, 0, 88, 67
1, 358799, Note_on_c, 0, 86, 63
1, 358830, Control_c, 0, 67, 127
1, 358831, Note_off_c, 0, 86, 61
1, 358838, Note_on_c, 0, 88, 80
1, 358845, Control_c, 0, 67, 126
1, 358856, Note_off_c, 0, 67, 59
1, 358860, Control_c, 0, 67, 125
1, 358868, Note_on_c, 0, 69, 58
1, 358875, Control_c, 0, 64, 26
1, 358875, Control_c, 0, 67, 125
1, 358884, Note_on_c, 0, 65, 45
1, 358887, Note_on_c, 0, 89, 88
1, 358889, Control_c, 0, 67, 124
1, 358896, Note_off_c, 0, 88, 64
1, 358919, Control_c, 0, 64, 27
1, 358919, Control_c, 0, 67, 124
1, 358934, Control_c, 0, 67, 123
1, 358987, Note_off_c, 0, 69, 62
1, 359024, Note_on_c, 0, 72, 54
1, 359037, Control_c, 0, 64, 28
1, 359081, Control_c, 0, 67, 123
1, 359111, Control_c, 0, 67, 122
1, 359126, Note_off_c, 0, 89, 63
1, 359126, Control_c, 0, 67, 122
1, 359157, Control_c, 0, 64, 29
1, 359157, Control_c, 0, 67, 121
1, 359158, Note_off_c, 0, 72, 52
1, 359163, Note_on_c, 0, 70, 55
1, 359171, Control_c, 0, 67, 119
1, 359186, Control_c, 0, 64, 30
1, 359186, Control_c, 0, 67, 117
1, 359201, Control_c, 0, 64, 31
1, 359201, Control_c, 0, 67, 115
1, 359216, Control_c, 0, 64, 32
1, 359216, Control_c, 0, 67, 114
1, 359231, Control_c, 0, 64, 33
1, 359231, Control_c, 0, 67, 113
1, 359245, Control_c, 0, 67, 113
1, 359260, Note_off_c, 0, 70, 61
1, 359260, Control_c, 0, 64, 34
1, 359260, Control_c, 0, 67, 112
1, 359264, Note_off_c, 0, 65, 60
1, 359275, Control_c, 0, 64, 35
1, 359283, Note_on_c, 0, 89, 66
1, 359292, Note_on_c, 0, 67, 51
1, 359312, Control_c, 0, 64, 36
1, 359315, Note_off_c, 0, 89, 67
1, 359339, Note_on_c, 0, 88, 62
1, 359342, Control_c, 0, 64, 36
1, 359358, Note_off_c, 0, 88, 66
1, 359371, Control_c, 0, 67, 113
1, 359372, Note_on_c, 0, 86, 61
1, 359399, Note_off_c, 0, 86, 67
1, 359408, Note_on_c, 0, 88, 78
1, 359416, Control_c, 0, 67, 113
1, 359418, Note_off_c, 0, 67, 59
1, 359436, Note_on_c, 0, 69, 53
1, 359452, Note_on_c, 0, 89, 86
1, 359459, Note_off_c, 0, 88, 64
1, 359460, Control_c, 0, 67, 114
1, 359461, Note_on_c, 0, 65, 41
1, 359519, Control_c, 0, 67, 114
1, 359534, Control_c, 0, 64, 36
1, 359549, Control_c, 0, 67, 115
1, 359558, Note_off_c, 0, 69, 60
1, 359564, Control_c, 0, 67, 115
1, 359593, Control_c, 0, 67, 116
1, 359609, Note_on_c, 0, 72, 46
1, 359623, Control_c, 0, 67, 116
1, 359638, Control_c, 0, 64, 34
1, 359643, Note_off_c, 0, 89, 62
1, 359653, Control_c, 0, 64, 30
1, 359653, Control_c, 0, 67, 117
1, 359668, Control_c, 0, 64, 23
1, 359668, Control_c, 0, 67, 117
1, 359683, Control_c, 0, 64, 0
1, 359697, Control_c, 0, 67, 118
1, 359712, Control_c, 0, 67, 118
1, 359727, Control_c, 0, 67, 119
1, 359728, Note_off_c, 0, 72, 47
1, 359739, Note_on_c, 0, 70, 50
1, 359742, Control_c, 0, 67, 119
1, 359771, Control_c, 0, 67, 120
1, 359816, Control_c, 0, 67, 121
1, 359823, Note_off_c, 0, 65, 60
1, 359824, Note_off_c, 0, 70, 61
1, 359859, Note_on_c, 0, 67, 48
1, 359874, Note_on_c, 0, 77, 51
1, 359890, Control_c, 0, 67, 121
1, 359895, Note_off_c, 0, 77, 60
1, 359920, Control_c, 0, 67, 122
1, 359936, Control_c, 0, 67, 122
1, 359945, Note_on_c, 0, 74, 66
1, 359951, Control_c, 0, 67, 123
1, 359966, Control_c, 0, 67, 124
1, 359972, Note_off_c, 0, 74, 68
1, 359981, Note_off_c, 0, 67, 60
1, 359981, Control_c, 0, 67, 126
1, 359991, Poly_aftertouch_c, 0, 76, 127
1, 359995, Control_c, 0, 67, 127
1, 360018, Note_on_c, 0, 77, 61
1, 360020, Note_on_c, 0, 69, 47
1, 360023, Note_on_c, 0, 65, 39
1, 360028, Poly_aftertouch_c, 0, 76, 0
1, 360044, Note_off_c, 0, 77, 68
1, 360137, Note_off_c, 0, 69, 60
1, 360157, Note_off_c, 0, 65, 62
1, 360169, Note_on_c, 0, 72, 51
1, 360302, Note_off_c, 0, 72, 49
1, 360318, Note_on_c, 0, 77, 65
1, 360322, Note_on_c, 0, 65, 33
1, 360337, Note_on_c, 0, 69, 40
1, 360342, Note_off_c, 0, 77, 69
1, 360445, Note_off_c, 0, 69, 58
1, 360455, Note_off_c, 0, 65, 54
1, 360486, Note_on_c, 0, 72, 36
1, 360644, Note_on_c, 0, 77, 49
1, 360656, Note_on_c, 0, 65, 33
1, 360673, Note_on_c, 0, 69, 30
1, 360674, Note_off_c, 0, 72, 35
1, 361029, Note_off_c, 0, 77, 61
1, 361073, Note_on_c, 0, 79, 51
1, 361123, Note_off_c, 0, 79, 49
1, 361150, Note_on_c, 0, 77, 56
1, 361180, Note_off_c, 0, 77, 67
1, 361209, Note_on_c, 0, 76, 56
1, 361238, Note_off_c, 0, 69, 57
1, 361250, Note_off_c, 0, 76, 57
1, 361256, Note_off_c, 0, 65, 62
1, 361272, Note_on_c, 0, 77, 62
1, 361311, Note_off_c, 0, 77, 59
1, 361340, Note_on_c, 0, 79, 65
1, 361398, Note_off_c, 0, 79, 60
1, 361409, Note_on_c, 0, 77, 68
1, 361440, Note_off_c, 0, 77, 64
1, 361465, Note_on_c, 0, 76, 66
1, 361497, Note_off_c, 0, 76, 58
1, 361537, Note_on_c, 0, 77, 65
1, 361573, Note_off_c, 0, 77, 63
1, 361608, Note_on_c, 0, 79, 62
1, 361660, Note_off_c, 0, 79, 58
1, 361686, Note_on_c, 0, 77, 54
1, 361714, Note_off_c, 0, 77, 66
1, 361740, Note_on_c, 0, 76, 48
1, 361796, Note_off_c, 0, 76, 57
1, 361800, Note_on_c, 0, 77, 51
1, 362163, Note_off_c, 0, 77, 62
1, 362199, Note_on_c, 0, 79, 59
1, 362242, Note_off_c, 0, 79, 59
1, 362275, Note_on_c, 0, 77, 58
1, 362302, Note_off_c, 0, 77, 67
1, 362342, Note_on_c, 0, 76, 56
1, 362384, Note_off_c, 0, 76, 51
1, 362409, Note_on_c, 0, 77, 48
1, 362471, Note_on_c, 0, 79, 72
1, 362471, Note_off_c, 0, 77, 48
1, 362527, Note_off_c, 0, 79, 61
1, 362541, Note_on_c, 0, 75, 78
1, 362592, Note_on_c, 0, 77, 73
1, 362599, Note_off_c, 0, 75, 64
1, 362638, Note_off_c, 0, 77, 62
1, 362660, Note_on_c, 0, 74, 74
1, 362685, Note_off_c, 0, 74, 67
1, 362711, Note_on_c, 0, 75, 76
1, 362744, Note_off_c, 0, 75, 62
1, 362775, Note_on_c, 0, 72, 72
1, 362825, Note_on_c, 0, 74, 69
1, 362828, Note_off_c, 0, 72, 62
1, 362890, Note_off_c, 0, 74, 63
1, 362893, Note_on_c, 0, 70, 77
1, 362912, Note_off_c, 0, 70, 71
1, 363050, Note_on_c, 0, 58, 55
1, 363062, Note_on_c, 0, 70, 59
1, 363081, Note_off_c, 0, 70, 64
1, 363180, Note_off_c, 0, 58, 59
1, 363191, Note_on_c, 0, 72, 59
1, 363215, Note_on_c, 0, 62, 37
1, 363227, Note_off_c, 0, 72, 63
1, 363248, Note_on_c, 0, 70, 56
1, 363261, Note_off_c, 0, 62, 55
1, 363280, Note_off_c, 0, 70, 65
1, 363305, Note_on_c, 0, 58, 53
1, 363313, Note_on_c, 0, 69, 56
1, 363346, Note_off_c, 0, 69, 59
1, 363385, Note_on_c, 0, 70, 54
1, 363414, Note_off_c, 0, 70, 66
1, 363417, Note_off_c, 0, 58, 58
1, 363432, Note_on_c, 0, 63, 51
1, 363435, Note_on_c, 0, 72, 43
1, 363459, Note_off_c, 0, 72, 37
1, 363549, Note_off_c, 0, 63, 41
1, 363559, Note_on_c, 0, 58, 48
1, 363575, Note_on_c, 0, 65, 60
1, 363600, Note_off_c, 0, 65, 65
1, 363692, Note_off_c, 0, 58, 58
1, 363716, Note_on_c, 0, 67, 64
1, 363719, Note_on_c, 0, 63, 37
1, 363736, Note_off_c, 0, 67, 64
1, 363844, Note_off_c, 0, 63, 55
1, 363853, Note_on_c, 0, 58, 49
1, 363865, Note_on_c, 0, 69, 61
1, 363883, Note_off_c, 0, 69, 64
1, 364002, Note_on_c, 0, 70, 64
1, 364020, Note_on_c, 0, 62, 48
1, 364070, Note_off_c, 0, 58, 35
1, 364128, Note_off_c, 0, 62, 61
1, 364159, Note_on_c, 0, 65, 52
1, 364265, Note_off_c, 0, 65, 60
1, 364300, Note_on_c, 0, 58, 60
1, 364311, Note_off_c, 0, 70, 59
1, 364359, Note_on_c, 0, 65, 52
1, 364397, Note_off_c, 0, 65, 64
1, 364428, Note_on_c, 0, 67, 62
1, 364488, Note_off_c, 0, 67, 61
1, 364491, Note_on_c, 0, 69, 64
1, 364535, Note_off_c, 0, 58, 64
1, 364539, Note_on_c, 0, 70, 73
1, 364546, Note_off_c, 0, 69, 57
1, 364584, Note_off_c, 0, 70, 62
1, 364622, Note_on_c, 0, 72, 74
1, 364666, Note_off_c, 0, 72, 62
1, 364692, Note_on_c, 0, 74, 67
1, 364739, Note_off_c, 0, 74, 62
1, 364743, Note_on_c, 0, 75, 74
1, 364783, Note_off_c, 0, 75, 62
1, 364805, Note_on_c, 0, 77, 75
1, 364855, Note_off_c, 0, 77, 56
1, 364871, Note_on_c, 0, 79, 74
1, 364935, Note_on_c, 0, 81, 71
1, 364936, Note_off_c, 0, 79, 59
1, 364943, Note_on_c, 0, 74, 61
1, 364968, Note_off_c, 0, 81, 61
1, 364995, Note_on_c, 0, 82, 75
1, 365050, Note_off_c, 0, 74, 63
1, 365069, Note_on_c, 0, 81, 75
1, 365069, Note_off_c, 0, 82, 62
1, 365072, Note_on_c, 0, 75, 55
1, 365133, Note_on_c, 0, 79, 71
1, 365135, Note_off_c, 0, 81, 57
1, 365173, Note_off_c, 0, 75, 60
1, 365174, Note_off_c, 0, 79, 61
1, 365182, Note_on_c, 0, 74, 67
1, 365192, Note_on_c, 0, 77, 74
1, 365249, Note_off_c, 0, 77, 64
1, 365254, Note_on_c, 0, 79, 78
1, 365288, Note_off_c, 0, 74, 63
1, 365326, Note_on_c, 0, 81, 70
1, 365326, Note_off_c, 0, 79, 61
1, 365335, Note_on_c, 0, 72, 57
1, 365361, Control_c, 0, 67, 123
1, 365376, Note_on_c, 0, 82, 75
1, 365376, Control_c, 0, 67, 118
1, 365383, Note_off_c, 0, 81, 61
1, 365391, Control_c, 0, 67, 113
1, 365405, Note_off_c, 0, 82, 64
1, 365406, Control_c, 0, 67, 107
1, 365421, Control_c, 0, 67, 102
1, 365435, Control_c, 0, 67, 100
1, 365444, Note_on_c, 0, 84, 73
1, 365450, Control_c, 0, 67, 98
1, 365453, Note_off_c, 0, 72, 54
1, 365460, Note_on_c, 0, 70, 58
1, 365465, Control_c, 0, 67, 97
1, 365481, Note_off_c, 0, 84, 62
1, 365503, Note_on_c, 0, 86, 79
1, 365540, Control_c, 0, 67, 97
1, 365555, Control_c, 0, 67, 98
1, 365560, Note_off_c, 0, 70, 63
1, 365564, Note_off_c, 0, 86, 65
1, 365570, Note_on_c, 0, 87, 80
1, 365570, Control_c, 0, 67, 98
1, 365585, Note_on_c, 0, 69, 53
1, 365585, Control_c, 0, 67, 99
1, 365594, Note_off_c, 0, 87, 69
1, 365600, Control_c, 0, 67, 100
1, 365629, Control_c, 0, 67, 100
1, 365659, Control_c, 0, 67, 101
1, 365674, Control_c, 0, 67, 101
1, 365686, Note_off_c, 0, 69, 61
1, 365703, Control_c, 0, 67, 102
1, 365718, Control_c, 0, 67, 102
1, 365719, Note_on_c, 0, 87, 78
1, 365722, Note_on_c, 0, 65, 44
1, 365732, Control_c, 0, 67, 103
1, 365742, Note_off_c, 0, 87, 69
1, 365747, Control_c, 0, 67, 103
1, 365762, Control_c, 0, 67, 104
1, 365777, Control_c, 0, 67, 104
1, 365806, Control_c, 0, 67, 105
1, 365821, Control_c, 0, 67, 105
1, 365846, Note_off_c, 0, 65, 62
1, 365850, Control_c, 0, 67, 106
1, 365860, Note_on_c, 0, 87, 67
1, 365867, Note_on_c, 0, 70, 51
1, 365880, Control_c, 0, 67, 106
1, 365900, Note_off_c, 0, 87, 62
1, 365910, Control_c, 0, 67, 107
1, 365922, Note_on_c, 0, 86, 66
1, 365962, Note_off_c, 0, 86, 65
1, 365964, Note_off_c, 0, 70, 58
1, 365987, Note_on_c, 0, 84, 58
1, 365996, Note_on_c, 0, 65, 47
1, 366014, Control_c, 0, 67, 107
1, 366017, Note_off_c, 0, 84, 65
1, 366074, Note_on_c, 0, 86, 59
1, 366110, Control_c, 0, 67, 108
1, 366112, Note_off_c, 0, 86, 63
1, 366129, Note_on_c, 0, 84, 59
1, 366147, Note_on_c, 0, 69, 49
1, 366169, Control_c, 0, 67, 108
1, 366259, Note_off_c, 0, 65, 30
1, 366259, Note_off_c, 0, 69, 60
1, 366300, Note_on_c, 0, 72, 49
1, 366327, Poly_aftertouch_c, 0, 91, 127
1, 366363, Poly_aftertouch_c, 0, 91, 0
1, 366388, Note_off_c, 0, 84, 61
1, 366442, Note_on_c, 0, 65, 61
1, 366453, Note_off_c, 0, 72, 42
1, 366496, Control_c, 0, 67, 109
1, 366584, Note_on_c, 0, 77, 66
1, 366625, Note_off_c, 0, 77, 61
1, 366645, Control_c, 0, 67, 108
1, 366652, Note_on_c, 0, 76, 68
1, 366674, Control_c, 0, 67, 107
1, 366680, Note_off_c, 0, 65, 59
1, 366689, Control_c, 0, 67, 107
1, 366704, Control_c, 0, 67, 106
1, 366712, Note_off_c, 0, 76, 49
1, 366715, Note_on_c, 0, 77, 76
1, 366719, Control_c, 0, 67, 106
1, 366734, Control_c, 0, 67, 105
1, 366748, Control_c, 0, 67, 104
1, 366772, Note_on_c, 0, 79, 80
1, 366777, Note_off_c, 0, 77, 62
1, 366835, Note_off_c, 0, 79, 63
1, 366837, Note_on_c, 0, 75, 85
1, 366860, Control_c, 0, 67, 103
1, 366875, Control_c, 0, 67, 103
1, 366903, Note_on_c, 0, 77, 82
1, 366904, Control_c, 0, 67, 101
1, 366913, Note_off_c, 0, 75, 63
1, 366919, Control_c, 0, 67, 98
1, 366934, Control_c, 0, 67, 93
1, 366949, Control_c, 0, 67, 80
1, 366954, Note_off_c, 0, 77, 63
1, 366959, Note_on_c, 0, 74, 86
1, 366963, Control_c, 0, 67, 64
1, 366978, Control_c, 0, 67, 47
1, 366993, Control_c, 0, 67, 33
1, 367001, Note_off_c, 0, 74, 66
1, 367008, Control_c, 0, 67, 25
1, 367023, Note_on_c, 0, 75, 81
1, 367023, Control_c, 0, 67, 20
1, 367037, Control_c, 0, 67, 18
1, 367052, Control_c, 0, 67, 17
1, 367069, Note_off_c, 0, 75, 62
1, 367077, Note_on_c, 0, 72, 79
1, 367136, Note_on_c, 0, 74, 85
1, 367144, Note_off_c, 0, 72, 64
1, 367204, Note_on_c, 0, 70, 94
1, 367207, Note_off_c, 0, 74, 64
1, 367240, Note_off_c, 0, 70, 67
1, 367246, Control_c, 0, 67, 18
1, 367260, Control_c, 0, 67, 19
1, 367275, Control_c, 0, 67, 19
1, 367305, Control_c, 0, 67, 20
1, 367335, Control_c, 0, 67, 20
1, 367350, Control_c, 0, 67, 21
1, 367353, Note_on_c, 0, 50, 90
1, 367354, Note_on_c, 0, 70, 90
1, 367356, Note_on_c, 0, 62, 90
1, 367365, Control_c, 0, 67, 21
1, 367378, Note_off_c, 0, 62, 66
1, 367379, Note_off_c, 0, 50, 69
1, 367382, Note_off_c, 0, 70, 64
1, 367493, Note_on_c, 0, 72, 88
1, 367494, Note_on_c, 0, 48, 99
1, 367496, Note_on_c, 0, 60, 93
1, 367517, Note_off_c, 0, 48, 67
1, 367518, Note_off_c, 0, 60, 68
1, 367565, Note_off_c, 0, 72, 63
1, 367572, Note_on_c, 0, 70, 80
1, 367624, Note_off_c, 0, 70, 65
1, 367637, Note_on_c, 0, 58, 95
1, 367639, Note_on_c, 0, 69, 69
1, 367640, Note_on_c, 0, 46, 87
1, 367676, Note_off_c, 0, 46, 63
1, 367681, Note_off_c, 0, 58, 61
1, 367700, Note_on_c, 0, 70, 80
1, 367713, Note_off_c, 0, 69, 60
1, 367773, Note_on_c, 0, 72, 84
1, 367776, Note_on_c, 0, 45, 93
1, 367776, Note_on_c, 0, 57, 95
1, 367783, Note_off_c, 0, 70, 64
1, 367801, Note_off_c, 0, 57, 64
1, 367805, Note_off_c, 0, 45, 64
1, 367806, Note_off_c, 0, 72, 67
1, 367814, Note_on_c, 0, 46, 22
1, 367815, Note_off_c, 0, 46, 127
1, 367875, Control_c, 0, 67, 22
1, 367904, Control_c, 0, 67, 22
1, 367920, Control_c, 0, 67, 23
1, 367922, Note_on_c, 0, 43, 98
1, 367923, Note_on_c, 0, 55, 90
1, 367927, Note_on_c, 0, 65, 88
1, 367946, Note_off_c, 0, 55, 67
1, 367950, Note_off_c, 0, 43, 64
1, 367964, Note_off_c, 0, 65, 63
1, 368009, Control_c, 0, 67, 22
1, 368024, Control_c, 0, 67, 21
1, 368039, Control_c, 0, 67, 20
1, 368053, Control_c, 0, 64, 53
1, 368062, Note_on_c, 0, 41, 97
1, 368065, Note_on_c, 0, 67, 94
1, 368066, Note_on_c, 0, 53, 89
1, 368068, Control_c, 0, 64, 62
1, 368068, Control_c, 0, 67, 20
1, 368083, Control_c, 0, 64, 59
1, 368087, Note_off_c, 0, 53, 72
1, 368089, Note_off_c, 0, 41, 64
1, 368093, Note_off_c, 0, 67, 63
1, 368097, Control_c, 0, 64, 59
1, 368112, Control_c, 0, 64, 60
1, 368156, Control_c, 0, 64, 59
1, 368171, Control_c, 0, 64, 45
1, 368171, Control_c, 0, 67, 21
1, 368186, Control_c, 0, 64, 0
1, 368186, Control_c, 0, 67, 22
1, 368200, Control_c, 0, 67, 23
1, 368204, Note_on_c, 0, 39, 84
1, 368205, Note_on_c, 0, 51, 88
1, 368215, Control_c, 0, 67, 24
1, 368220, Note_on_c, 0, 69, 90
1, 368230, Control_c, 0, 67, 25
1, 368231, Note_off_c, 0, 51, 69
1, 368242, Note_off_c, 0, 39, 59
1, 368259, Note_off_c, 0, 69, 61
1, 368259, Control_c, 0, 67, 25
1, 368326, Control_c, 0, 67, 25
1, 368341, Control_c, 0, 67, 24
1, 368356, Control_c, 0, 67, 23
1, 368358, Note_on_c, 0, 50, 90
1, 368363, Note_on_c, 0, 38, 78
1, 368363, Note_on_c, 0, 70, 82
1, 368371, Control_c, 0, 67, 23
1, 368384, Note_off_c, 0, 50, 70
1, 368384, Note_off_c, 0, 38, 63
1, 368386, Control_c, 0, 64, 57
1, 368386, Control_c, 0, 67, 22
1, 368400, Control_c, 0, 64, 88
1, 368400, Control_c, 0, 67, 22
1, 368415, Control_c, 0, 64, 109
1, 368430, Control_c, 0, 64, 127
1, 368507, Note_on_c, 0, 41, 82
1, 368608, Control_c, 0, 67, 21
1, 368637, Control_c, 0, 67, 21
1, 368653, Note_on_c, 0, 46, 79
1, 368694, Note_off_c, 0, 70, 60
1, 368697, Control_c, 0, 67, 20
1, 368706, Note_on_c, 0, 65, 76
1, 368712, Control_c, 0, 64, 117
1, 368727, Control_c, 0, 64, 102
1, 368742, Control_c, 0, 64, 92
1, 368742, Control_c, 0, 67, 20
1, 368757, Control_c, 0, 64, 84
1, 368772, Control_c, 0, 64, 77
1, 368776, Note_off_c, 0, 65, 63
1, 368784, Note_on_c, 0, 50, 77
1, 368785, Note_off_c, 0, 41, 38
1, 368786, Note_on_c, 0, 67, 71
1, 368787, Control_c, 0, 64, 70
1, 368801, Control_c, 0, 64, 65
1, 368813, Note_off_c, 0, 46, 60
1, 368816, Control_c, 0, 64, 58
1, 368831, Control_c, 0, 64, 54
1, 368846, Control_c, 0, 67, 20
1, 368846, Note_on_c, 0, 69, 73
1, 368852, Note_off_c, 0, 67, 62
1, 368875, Control_c, 0, 64, 53
1, 368875, Control_c, 0, 67, 21
1, 368889, Note_off_c, 0, 50, 64
1, 368890, Control_c, 0, 64, 51
1, 368900, Note_on_c, 0, 70, 75
1, 368902, Note_on_c, 0, 53, 78
1, 368905, Control_c, 0, 64, 50
1, 368905, Control_c, 0, 67, 21
1, 368915, Note_off_c, 0, 69, 60
1, 368920, Control_c, 0, 64, 49
1, 368935, Control_c, 0, 67, 22
1, 368939, Note_off_c, 0, 70, 62
1, 368968, Note_on_c, 0, 72, 77
1, 368994, Control_c, 0, 64, 48
1, 369028, Note_on_c, 0, 58, 81
1, 369031, Note_off_c, 0, 72, 60
1, 369034, Note_off_c, 0, 53, 61
1, 369039, Note_on_c, 0, 74, 81
1, 369075, Control_c, 0, 64, 49
1, 369110, Note_on_c, 0, 75, 79
1, 369113, Note_off_c, 0, 74, 64
1, 369135, Control_c, 0, 64, 49
1, 369149, Control_c, 0, 64, 49
1, 369159, Note_off_c, 0, 75, 63
1, 369164, Control_c, 0, 64, 32
1, 369167, Note_on_c, 0, 62, 78
1, 369179, Control_c, 0, 64, 0
1, 369180, Note_on_c, 0, 77, 77
1, 369180, Note_off_c, 0, 58, 59
1, 369252, Note_on_c, 0, 79, 78
1, 369254, Note_off_c, 0, 77, 61
1, 369303, Note_on_c, 0, 81, 79
1, 369305, Note_off_c, 0, 62, 62
1, 369311, Note_on_c, 0, 65, 74
1, 369326, Note_off_c, 0, 79, 59
1, 369342, Control_c, 0, 67, 22
1, 369356, Control_c, 0, 67, 23
1, 369362, Note_on_c, 0, 82, 83
1, 369389, Note_off_c, 0, 81, 60
1, 369415, Note_off_c, 0, 65, 63
1, 369415, Control_c, 0, 67, 23
1, 369421, Note_on_c, 0, 62, 72
1, 369430, Control_c, 0, 67, 24
1, 369442, Note_on_c, 0, 77, 82
1, 369445, Control_c, 0, 67, 24
1, 369450, Note_off_c, 0, 82, 62
1, 369460, Control_c, 0, 67, 25
1, 369490, Control_c, 0, 67, 25
1, 369505, Control_c, 0, 67, 26
1, 369535, Control_c, 0, 67, 27
1, 369550, Control_c, 0, 67, 27
1, 369560, Note_off_c, 0, 62, 61
1, 369573, Note_off_c, 0, 77, 59
1, 369576, Note_on_c, 0, 79, 72
1, 369594, Note_on_c, 0, 65, 63
1, 369651, Note_on_c, 0, 81, 75
1, 369654, Note_off_c, 0, 79, 60
1, 369654, Control_c, 0, 67, 27
1, 369684, Control_c, 0, 67, 26
1, 369685, Note_off_c, 0, 65, 60
1, 369699, Note_on_c, 0, 82, 77
1, 369700, Note_on_c, 0, 62, 66
1, 369708, Note_off_c, 0, 81, 63
1, 369714, Control_c, 0, 67, 26
1, 369731, Note_off_c, 0, 82, 63
1, 369766, Note_on_c, 0, 84, 73
1, 369812, Note_off_c, 0, 62, 62
1, 369836, Note_on_c, 0, 58, 56
1, 369839, Note_off_c, 0, 84, 63
1, 369842, Note_on_c, 0, 86, 75
1, 369890, Note_on_c, 0, 87, 76
1, 369900, Note_off_c, 0, 86, 65
1, 369943, Control_c, 0, 67, 26
1, 369951, Note_off_c, 0, 87, 66
1, 369952, Note_off_c, 0, 58, 62
1, 369955, Note_on_c, 0, 89, 73
1, 369961, Note_on_c, 0, 53, 65
1, 369973, Control_c, 0, 67, 27
1, 369976, Note_off_c, 0, 89, 69
1, 370047, Control_c, 0, 67, 27
1, 370057, Note_off_c, 0, 53, 67
1, 370119, Note_on_c, 0, 89, 72
1, 370136, Control_c, 0, 64, 31
1, 370144, Note_off_c, 0, 89, 67
1, 370151, Control_c, 0, 64, 47
1, 370166, Control_c, 0, 64, 57
1, 370180, Control_c, 0, 64, 61
1, 370195, Control_c, 0, 64, 64
1, 370210, Control_c, 0, 64, 65
1, 370224, Control_c, 0, 64, 65
1, 370247, Note_on_c, 0, 89, 75
1, 370250, Note_on_c, 0, 41, 56
1, 370251, Note_on_c, 0, 48, 56
1, 370254, Control_c, 0, 64, 63
1, 370263, Note_on_c, 0, 45, 49
1, 370269, Note_on_c, 0, 53, 43
1, 370269, Control_c, 0, 64, 30
1, 370284, Control_c, 0, 64, 0
1, 370317, Note_off_c, 0, 45, 64
1, 370318, Note_off_c, 0, 48, 63
1, 370319, Note_off_c, 0, 41, 58
1, 370325, Note_on_c, 0, 87, 72
1, 370340, Note_off_c, 0, 89, 60
1, 370344, Control_c, 0, 67, 28
1, 370389, Note_on_c, 0, 86, 71
1, 370393, Note_off_c, 0, 87, 63
1, 370439, Note_off_c, 0, 86, 65
1, 370457, Note_on_c, 0, 84, 64
1, 370492, Control_c, 0, 67, 27
1, 370507, Control_c, 0, 67, 27
1, 370521, Control_c, 0, 67, 26
1, 370536, Note_off_c, 0, 53, 66
1, 370536, Control_c, 0, 67, 25
1, 370539, Note_on_c, 0, 46, 65
1, 370539, Note_off_c, 0, 84, 61
1, 370551, Note_on_c, 0, 82, 76
1, 370559, Control_c, 0, 67, 24
1, 370571, Note_off_c, 0, 46, 64
1, 370574, Control_c, 0, 64, 67
1, 370589, Control_c, 0, 64, 90
1, 370603, Control_c, 0, 64, 127
1, 370617, Note_off_c, 0, 82, 60
1, 370677, Control_c, 0, 67, 25
1, 370692, Control_c, 0, 67, 25
1, 370705, Note_on_c, 0, 34, 85
1, 370707, Control_c, 0, 67, 26
1, 370721, Control_c, 0, 67, 26
1, 370736, Control_c, 0, 67, 27
1, 370751, Control_c, 0, 64, 85
1, 370752, Note_off_c, 0, 34, 59
1, 370766, Control_c, 0, 64, 26
1, 370769, Note_on_c, 0, 46, 74
1, 370781, Control_c, 0, 64, 0
1, 370781, Control_c, 0, 67, 27
1, 370793, Note_off_c, 0, 46, 63
1, 370834, Note_on_c, 0, 35, 82
1, 370842, Note_on_c, 0, 36, 79
1, 370857, Note_off_c, 0, 35, 67
1, 370870, Control_c, 0, 64, 31
1, 370873, Note_off_c, 0, 36, 66
1, 370885, Control_c, 0, 64, 39
1, 370897, Note_on_c, 0, 48, 75
1, 370900, Control_c, 0, 64, 46
1, 370915, Control_c, 0, 64, 53
1, 370915, Control_c, 0, 67, 27
1, 370920, Note_off_c, 0, 48, 66
1, 370929, Control_c, 0, 64, 56
1, 370929, Control_c, 0, 67, 25
1, 370944, Control_c, 0, 64, 61
1, 370944, Control_c, 0, 67, 25
1, 370959, Control_c, 0, 64, 65
1, 370959, Control_c, 0, 67, 24
1, 370967, Note_on_c, 0, 38, 93
1, 370974, Control_c, 0, 64, 69
1, 370974, Control_c, 0, 67, 23
1, 370989, Control_c, 0, 64, 75
1, 370989, Control_c, 0, 67, 20
1, 371003, Control_c, 0, 64, 82
1, 371003, Control_c, 0, 67, 17
1, 371018, Control_c, 0, 64, 89
1, 371018, Control_c, 0, 67, 12
1, 371019, Note_off_c, 0, 38, 56
1, 371025, Note_on_c, 0, 50, 88
1, 371033, Control_c, 0, 64, 93
1, 371033, Control_c, 0, 67, 0
1, 371047, Control_c, 0, 64, 93
1, 371067, Note_off_c, 0, 50, 63
1, 371077, Control_c, 0, 64, 86
1, 371091, Control_c, 0, 64, 68
1, 371095, Note_on_c, 0, 43, 48
1, 371100, Note_on_c, 0, 39, 80
1, 371106, Control_c, 0, 64, 0
1, 371130, Note_off_c, 0, 43, 57
1, 371159, Note_on_c, 0, 51, 83
1, 371165, Note_off_c, 0, 39, 59
1, 371185, Note_off_c, 0, 51, 70
1, 371243, Note_on_c, 0, 36, 94
1, 371279, Note_off_c, 0, 36, 57
1, 371324, Note_on_c, 0, 48, 73
1, 371347, Note_off_c, 0, 48, 66
1, 371351, Control_c, 0, 64, 63
1, 371366, Control_c, 0, 64, 98
1, 371380, Note_on_c, 0, 81, 99
1, 371381, Control_c, 0, 64, 127
1, 371385, Note_on_c, 0, 41, 95
1, 371385, Note_on_c, 0, 69, 92
1, 371386, Note_on_c, 0, 72, 86
1, 371395, Note_on_c, 0, 77, 81
1, 371400, Note_off_c, 0, 69, 73
1, 371411, Control_c, 0, 64, 85
1, 371412, Note_off_c, 0, 72, 63
1, 371416, Note_off_c, 0, 77, 71
1, 371419, Note_off_c, 0, 81, 70
1, 371425, Note_off_c, 0, 41, 62
1, 371425, Control_c, 0, 64, 47
1, 371440, Control_c, 0, 64, 0
1, 371443, Note_on_c, 0, 53, 87
1, 371478, Note_off_c, 0, 53, 65
1, 371530, Note_on_c, 0, 39, 80
1, 371589, Note_on_c, 0, 51, 85
1, 371599, Note_off_c, 0, 39, 55
1, 371620, Note_off_c, 0, 51, 66
1, 371667, Note_on_c, 0, 38, 89
1, 371670, Note_on_c, 0, 82, 103
1, 371676, Note_on_c, 0, 70, 95
1, 371677, Control_c, 0, 64, 93
1, 371681, Note_on_c, 0, 74, 91
1, 371685, Note_on_c, 0, 77, 77
1, 371692, Control_c, 0, 64, 127
1, 371698, Note_off_c, 0, 70, 67
1, 371705, Note_off_c, 0, 74, 65
1, 371715, Note_on_c, 0, 50, 91
1, 371715, Note_off_c, 0, 77, 62
1, 371715, Note_off_c, 0, 82, 69
1, 371716, Note_off_c, 0, 38, 59
1, 371743, Note_off_c, 0, 50, 67
1, 371751, Control_c, 0, 64, 109
1, 371766, Control_c, 0, 64, 75
1, 371781, Control_c, 0, 64, 0
1, 371786, Note_on_c, 0, 44, 15
1, 371811, Note_off_c, 0, 44, 41
1, 371820, Note_on_c, 0, 34, 84
1, 371857, Note_off_c, 0, 34, 63
1, 371886, Note_on_c, 0, 46, 72
1, 371910, Note_off_c, 0, 46, 65
1, 371956, Note_on_c, 0, 36, 95
1, 371997, Note_off_c, 0, 36, 60
1, 372026, Note_on_c, 0, 48, 79
1, 372063, Note_off_c, 0, 48, 67
1, 372086, Control_c, 0, 64, 32
1, 372099, Note_on_c, 0, 38, 89
1, 372100, Control_c, 0, 64, 49
1, 372115, Control_c, 0, 64, 57
1, 372130, Control_c, 0, 64, 61
1, 372145, Control_c, 0, 64, 64
1, 372146, Note_off_c, 0, 38, 60
1, 372160, Control_c, 0, 64, 66
1, 372170, Note_on_c, 0, 50, 79
1, 372174, Control_c, 0, 64, 68
1, 372189, Control_c, 0, 64, 71
1, 372202, Note_off_c, 0, 50, 67
1, 372204, Control_c, 0, 64, 73
1, 372218, Control_c, 0, 64, 73
1, 372233, Control_c, 0, 64, 71
1, 372241, Note_on_c, 0, 39, 80
1, 372248, Control_c, 0, 64, 62
1, 372263, Control_c, 0, 64, 0
1, 372290, Note_off_c, 0, 39, 58
1, 372298, Note_on_c, 0, 51, 83
1, 372324, Note_off_c, 0, 51, 70
1, 372380, Note_on_c, 0, 36, 91
1, 372408, Note_off_c, 0, 36, 67
1, 372439, Note_on_c, 0, 48, 73
1, 372462, Note_off_c, 0, 48, 66
1, 372500, Control_c, 0, 64, 67
1, 372513, Note_on_c, 0, 41, 93
1, 372514, Note_on_c, 0, 81, 99
1, 372515, Control_c, 0, 64, 112
1, 372520, Note_on_c, 0, 69, 87
1, 372522, Note_on_c, 0, 72, 94
1, 372530, Control_c, 0, 64, 127
1, 372533, Note_on_c, 0, 77, 69
1, 372536, Note_off_c, 0, 69, 73
1, 372539, Note_off_c, 0, 72, 70
1, 372555, Note_off_c, 0, 81, 68
1, 372556, Note_off_c, 0, 77, 68
1, 372560, Note_off_c, 0, 41, 57
1, 372566, Note_on_c, 0, 53, 94
1, 372574, Control_c, 0, 64, 82
1, 372590, Control_c, 0, 64, 0
1, 372603, Note_off_c, 0, 53, 64
1, 372659, Note_on_c, 0, 39, 84
1, 372718, Note_on_c, 0, 51, 83
1, 372733, Note_off_c, 0, 39, 60
1, 372754, Note_off_c, 0, 51, 64
1, 372813, Note_on_c, 0, 38, 91
1, 372820, Note_on_c, 0, 70, 94
1, 372820, Note_on_c, 0, 82, 95
1, 372820, Control_c, 0, 64, 64
1, 372822, Note_on_c, 0, 74, 82
1, 372835, Note_on_c, 0, 77, 69
1, 372835, Control_c, 0, 64, 99
1, 372849, Control_c, 0, 64, 127
1, 372853, Note_off_c, 0, 38, 65
1, 372855, Note_off_c, 0, 70, 61
1, 372867, Note_off_c, 0, 74, 64
1, 372873, Note_off_c, 0, 77, 58
1, 372878, Note_off_c, 0, 82, 66
1, 372888, Note_on_c, 0, 50, 62
1, 372916, Note_off_c, 0, 50, 58
1, 372975, Note_on_c, 0, 41, 90
1, 373002, Note_off_c, 0, 41, 67
1, 373013, Control_c, 0, 64, 107
1, 373028, Control_c, 0, 64, 71
1, 373037, Note_on_c, 0, 53, 68
1, 373042, Control_c, 0, 64, 0
1, 373067, Note_off_c, 0, 53, 68
1, 373103, Note_on_c, 0, 43, 86
1, 373143, Note_on_c, 0, 45, 39
1, 373144, Note_off_c, 0, 45, 127
1, 373148, Note_off_c, 0, 43, 64
1, 373175, Note_on_c, 0, 55, 74
1, 373200, Note_off_c, 0, 55, 66
1, 373243, Note_on_c, 0, 45, 83
1, 373249, Control_c, 0, 64, 46
1, 373264, Control_c, 0, 64, 59
1, 373273, Note_off_c, 0, 45, 68
1, 373279, Control_c, 0, 64, 64
1, 373294, Control_c, 0, 64, 65
1, 373298, Note_on_c, 0, 57, 80
1, 373309, Control_c, 0, 64, 66
1, 373323, Note_off_c, 0, 57, 66
1, 373323, Control_c, 0, 64, 67
1, 373353, Control_c, 0, 64, 66
1, 373368, Control_c, 0, 64, 45
1, 373372, Note_on_c, 0, 46, 84
1, 373383, Control_c, 0, 64, 0
1, 373421, Note_on_c, 0, 58, 83
1, 373426, Note_off_c, 0, 46, 49
1, 373440, Note_off_c, 0, 58, 71
1, 373514, Note_on_c, 0, 43, 82
1, 373525, Note_on_c, 0, 45, 73
1, 373553, Note_off_c, 0, 43, 67
1, 373557, Note_off_c, 0, 45, 62
1, 373576, Note_on_c, 0, 55, 75
1, 373601, Note_off_c, 0, 55, 68
1, 373643, Control_c, 0, 64, 87
1, 373651, Note_on_c, 0, 48, 98
1, 373654, Note_on_c, 0, 76, 96
1, 373655, Note_on_c, 0, 64, 94
1, 373658, Control_c, 0, 64, 127
1, 373660, Note_on_c, 0, 67, 87
1, 373668, Note_on_c, 0, 72, 72
1, 373675, Note_off_c, 0, 64, 68
1, 373681, Note_off_c, 0, 67, 67
1, 373686, Note_off_c, 0, 48, 62
1, 373687, Control_c, 0, 64, 97
1, 373690, Note_off_c, 0, 72, 69
1, 373694, Note_off_c, 0, 76, 68
1, 373702, Control_c, 0, 64, 70
1, 373703, Note_on_c, 0, 60, 85
1, 373717, Control_c, 0, 64, 0
1, 373739, Note_off_c, 0, 60, 61
1, 373801, Note_on_c, 0, 46, 83
1, 373860, Note_on_c, 0, 58, 80
1, 373866, Note_off_c, 0, 46, 61
1, 373893, Note_off_c, 0, 58, 62
1, 373939, Control_c, 0, 64, 54
1, 373943, Note_on_c, 0, 77, 96
1, 373944, Note_on_c, 0, 45, 76
1, 373946, Note_on_c, 0, 43, 82
1, 373948, Note_on_c, 0, 65, 87
1, 373949, Note_on_c, 0, 69, 81
1, 373952, Note_on_c, 0, 72, 76
1, 373954, Control_c, 0, 64, 104
1, 373967, Note_off_c, 0, 65, 73
1, 373969, Control_c, 0, 64, 127
1, 373970, Note_off_c, 0, 43, 66
1, 373985, Note_off_c, 0, 69, 62
1, 373986, Note_off_c, 0, 77, 68
1, 373991, Note_off_c, 0, 45, 64
1, 373997, Note_on_c, 0, 57, 86
1, 373997, Note_off_c, 0, 72, 60
1, 374024, Note_off_c, 0, 57, 64
1, 374072, Control_c, 0, 64, 105
1, 374087, Control_c, 0, 64, 72
1, 374097, Note_on_c, 0, 41, 88
1, 374102, Control_c, 0, 64, 0
1, 374131, Note_off_c, 0, 41, 65
1, 374160, Note_on_c, 0, 53, 78
1, 374185, Note_off_c, 0, 53, 68
1, 374230, Note_on_c, 0, 43, 92
1, 374267, Note_off_c, 0, 43, 64
1, 374301, Note_on_c, 0, 55, 77
1, 374318, Control_c, 0, 64, 23
1, 374331, Note_off_c, 0, 55, 67
1, 374333, Control_c, 0, 64, 36
1, 374348, Control_c, 0, 64, 43
1, 374362, Control_c, 0, 64, 51
1, 374374, Note_on_c, 0, 45, 84
1, 374377, Control_c, 0, 64, 58
1, 374392, Control_c, 0, 64, 62
1, 374407, Control_c, 0, 64, 64
1, 374418, Note_off_c, 0, 45, 59
1, 374422, Control_c, 0, 64, 65
1, 374429, Note_on_c, 0, 57, 82
1, 374436, Control_c, 0, 64, 66
1, 374451, Control_c, 0, 64, 66
1, 374458, Note_off_c, 0, 57, 64
1, 374466, Control_c, 0, 64, 66
1, 374481, Control_c, 0, 64, 61
1, 374495, Control_c, 0, 64, 0
1, 374505, Note_on_c, 0, 46, 82
1, 374552, Note_off_c, 0, 46, 54
1, 374561, Note_on_c, 0, 58, 82
1, 374582, Note_off_c, 0, 58, 71
1, 374641, Note_on_c, 0, 43, 88
1, 374669, Note_off_c, 0, 43, 67
1, 374705, Note_on_c, 0, 55, 71
1, 374733, Note_off_c, 0, 55, 66
1, 374775, Note_on_c, 0, 48, 93
1, 374777, Control_c, 0, 64, 75
1, 374784, Note_on_c, 0, 76, 91
1, 374784, Note_on_c, 0, 64, 89
1, 374792, Note_on_c, 0, 67, 83
1, 374792, Control_c, 0, 64, 127
1, 374805, Note_off_c, 0, 64, 71
1, 374809, Note_on_c, 0, 72, 56
1, 374811, Note_off_c, 0, 67, 69
1, 374812, Note_off_c, 0, 48, 60
1, 374825, Note_on_c, 0, 60, 89
1, 374827, Note_off_c, 0, 76, 68
1, 374827, Note_off_c, 0, 72, 64
1, 374851, Control_c, 0, 64, 88
1, 374865, Note_off_c, 0, 60, 64
1, 374866, Control_c, 0, 64, 62
1, 374881, Control_c, 0, 64, 0
1, 374920, Note_on_c, 0, 46, 85
1, 374984, Note_on_c, 0, 58, 82
1, 374993, Note_off_c, 0, 46, 60
1, 375011, Note_off_c, 0, 58, 67
1, 375065, Note_on_c, 0, 45, 94
1, 375074, Note_on_c, 0, 65, 88
1, 375077, Note_on_c, 0, 69, 71
1, 375077, Note_on_c, 0, 77, 94
1, 375081, Control_c, 0, 64, 65
1, 375095, Control_c, 0, 64, 110
1, 375097, Note_off_c, 0, 65, 68
1, 375098, Note_off_c, 0, 69, 68
1, 375108, Note_off_c, 0, 45, 65
1, 375110, Note_on_c, 0, 57, 77
1, 375111, Control_c, 0, 64, 127
1, 375127, Note_off_c, 0, 77, 67
1, 375134, Note_off_c, 0, 57, 67
1, 375237, Note_on_c, 0, 72, 85
1, 375278, Note_off_c, 0, 72, 65
1, 375302, Note_on_c, 0, 84, 85
1, 375304, Control_c, 0, 64, 88
1, 375318, Control_c, 0, 64, 56
1, 375333, Control_c, 0, 64, 0
1, 375353, Note_off_c, 0, 84, 65
1, 375377, Note_on_c, 0, 74, 93
1, 375422, Note_off_c, 0, 74, 67
1, 375439, Note_on_c, 0, 86, 89
1, 375490, Note_off_c, 0, 86, 64
1, 375497, Control_c, 0, 64, 14
1, 375503, Note_on_c, 0, 76, 87
1, 375526, Control_c, 0, 64, 17
1, 375550, Note_off_c, 0, 76, 64
1, 375573, Note_on_c, 0, 88, 81
1, 375603, Note_off_c, 0, 88, 62
1, 375629, Control_c, 0, 64, 19
1, 375634, Note_on_c, 0, 77, 78
1, 375670, Note_off_c, 0, 77, 65
1, 375673, Control_c, 0, 64, 21
1, 375688, Control_c, 0, 64, 26
1, 375696, Note_on_c, 0, 89, 80
1, 375703, Control_c, 0, 64, 32
1, 375717, Note_off_c, 0, 89, 67
1, 375717, Control_c, 0, 64, 40
1, 375732, Control_c, 0, 64, 42
1, 375747, Control_c, 0, 64, 42
1, 375762, Control_c, 0, 64, 34
1, 375774, Note_on_c, 0, 60, 99
1, 375774, Note_on_c, 0, 48, 94
1, 375775, Note_on_c, 0, 72, 85
1, 375777, Control_c, 0, 64, 0
1, 375804, Note_off_c, 0, 60, 69
1, 375807, Note_off_c, 0, 48, 68
1, 375824, Note_off_c, 0, 72, 66
1, 375844, Note_on_c, 0, 84, 79
1, 375875, Note_off_c, 0, 84, 65
1, 375925, Note_on_c, 0, 69, 83
1, 375930, Note_on_c, 0, 57, 100
1, 375933, Note_on_c, 0, 45, 94
1, 375934, Control_c, 0, 64, 36
1, 375948, Control_c, 0, 64, 44
1, 375953, Note_off_c, 0, 57, 65
1, 375956, Note_off_c, 0, 45, 71
1, 375963, Control_c, 0, 64, 49
1, 375970, Note_off_c, 0, 69, 64
1, 375978, Control_c, 0, 64, 53
1, 375985, Note_on_c, 0, 81, 84
1, 375993, Control_c, 0, 64, 57
1, 376008, Control_c, 0, 64, 59
1, 376018, Note_off_c, 0, 81, 66
1, 376022, Control_c, 0, 64, 59
1, 376037, Control_c, 0, 64, 59
1, 376052, Control_c, 0, 64, 56
1, 376066, Note_on_c, 0, 53, 99
1, 376066, Control_c, 0, 64, 50
1, 376067, Note_on_c, 0, 41, 97
1, 376069, Note_on_c, 0, 65, 76
1, 376081, Control_c, 0, 64, 0
1, 376087, Note_off_c, 0, 53, 74
1, 376093, Note_off_c, 0, 41, 66
1, 376109, Note_off_c, 0, 65, 66
1, 376130, Note_on_c, 0, 77, 80
1, 376152, Note_off_c, 0, 77, 67
1, 376211, Note_on_c, 0, 62, 88
1, 376215, Control_c, 0, 64, 79
1, 376217, Note_on_c, 0, 50, 99
1, 376220, Note_on_c, 0, 38, 93
1, 376230, Control_c, 0, 64, 127
1, 376237, Note_off_c, 0, 50, 74
1, 376242, Note_off_c, 0, 38, 69
1, 376264, Note_off_c, 0, 62, 61
1, 376277, Note_on_c, 0, 74, 72
1, 376289, Control_c, 0, 64, 95
1, 376294, Note_off_c, 0, 74, 68
1, 376304, Control_c, 0, 64, 67
1, 376319, Control_c, 0, 64, 0
1, 376512, Note_on_c, 0, 65, 92
1, 376518, Note_on_c, 0, 53, 91
1, 376522, Note_on_c, 0, 41, 90
1, 376527, Control_c, 0, 64, 77
1, 376548, Note_off_c, 0, 53, 73
1, 376549, Control_c, 0, 64, 127
1, 376561, Note_on_c, 0, 77, 83
1, 376564, Note_off_c, 0, 41, 64
1, 376573, Note_off_c, 0, 65, 65
1, 376583, Note_off_c, 0, 77, 69
1, 376638, Control_c, 0, 64, 90
1, 376645, Poly_aftertouch_c, 0, 67, 0
1, 376653, Control_c, 0, 64, 63
1, 376667, Control_c, 0, 64, 0
1, 376925, Note_on_c, 0, 47, 93
1, 376926, Note_on_c, 0, 35, 87
1, 376930, Note_on_c, 0, 59, 95
1, 376950, Control_c, 0, 64, 88
1, 376964, Control_c, 0, 64, 127
1, 376975, Note_off_c, 0, 59, 64
1, 377005, Note_on_c, 0, 60, 78
1, 377053, Note_off_c, 0, 60, 60
1, 377070, Note_on_c, 0, 59, 77
1, 377120, Note_off_c, 0, 59, 57
1, 377129, Note_on_c, 0, 60, 70
1, 377158, Note_off_c, 0, 60, 65
1, 377185, Note_on_c, 0, 59, 75
1, 377223, Note_off_c, 0, 59, 60
1, 377230, Note_on_c, 0, 60, 71
1, 377300, Note_on_c, 0, 59, 75
1, 377301, Note_off_c, 0, 60, 60
1, 377309, Note_off_c, 0, 35, 61
1, 377312, Note_on_c, 0, 37, 52
1, 377321, Note_off_c, 0, 47, 61
1, 377344, Note_off_c, 0, 37, 54
1, 377380, Note_off_c, 0, 59, 62
1, 377408, Note_on_c, 0, 57, 64
1, 377470, Note_off_c, 0, 57, 54
1, 377505, Note_on_c, 0, 59, 65
1, 377544, Note_on_c, 0, 60, 79
1, 377557, Note_on_c, 0, 36, 82
1, 377559, Note_on_c, 0, 48, 81
1, 377563, Note_off_c, 0, 59, 56
1, 377565, Control_c, 0, 64, 102
1, 377580, Control_c, 0, 64, 77
1, 377595, Control_c, 0, 64, 47
1, 377603, Note_off_c, 0, 60, 65
1, 377610, Control_c, 0, 64, 0
1, 377625, Note_on_c, 0, 62, 64
1, 377669, Control_c, 0, 64, 32
1, 377684, Control_c, 0, 64, 50
1, 377696, Note_on_c, 0, 60, 80
1, 377699, Control_c, 0, 64, 52
1, 377704, Note_off_c, 0, 62, 60
1, 377713, Control_c, 0, 64, 54
1, 377728, Control_c, 0, 64, 56
1, 377743, Control_c, 0, 64, 57
1, 377758, Note_off_c, 0, 60, 63
1, 377758, Control_c, 0, 64, 58
1, 377764, Note_on_c, 0, 59, 72
1, 377813, Note_off_c, 0, 59, 60
1, 377817, Control_c, 0, 64, 57
1, 377828, Note_on_c, 0, 60, 67
1, 377891, Control_c, 0, 64, 58
1, 377901, Note_on_c, 0, 64, 73
1, 377905, Note_off_c, 0, 60, 61
1, 377935, Control_c, 0, 64, 58
1, 377954, Note_off_c, 0, 64, 65
1, 377963, Note_on_c, 0, 62, 68
1, 377980, Control_c, 0, 64, 59
1, 378014, Note_on_c, 0, 65, 75
1, 378018, Note_off_c, 0, 62, 61
1, 378024, Control_c, 0, 64, 58
1, 378046, Control_c, 0, 64, 57
1, 378061, Control_c, 0, 64, 54
1, 378076, Control_c, 0, 64, 52
1, 378091, Control_c, 0, 64, 51
1, 378095, Note_on_c, 0, 64, 80
1, 378097, Note_off_c, 0, 65, 63
1, 378120, Control_c, 0, 64, 52
1, 378135, Control_c, 0, 64, 54
1, 378147, Note_off_c, 0, 64, 65
1, 378150, Control_c, 0, 64, 55
1, 378161, Note_on_c, 0, 67, 69
1, 378164, Control_c, 0, 64, 56
1, 378179, Control_c, 0, 64, 57
1, 378194, Control_c, 0, 64, 57
1, 378209, Control_c, 0, 64, 58
1, 378214, Note_off_c, 0, 48, 61
1, 378222, Note_on_c, 0, 65, 73
1, 378224, Note_off_c, 0, 36, 58
1, 378224, Control_c, 0, 64, 58
1, 378239, Control_c, 0, 64, 59
1, 378253, Note_off_c, 0, 67, 61
1, 378254, Control_c, 0, 64, 60
1, 378269, Control_c, 0, 64, 61
1, 378284, Control_c, 0, 64, 62
1, 378299, Control_c, 0, 64, 62
1, 378311, Note_on_c, 0, 62, 68
1, 378314, Control_c, 0, 64, 61
1, 378325, Note_off_c, 0, 65, 55
1, 378329, Control_c, 0, 64, 54
1, 378343, Control_c, 0, 64, 27
1, 378344, Note_on_c, 0, 64, 76
1, 378358, Control_c, 0, 64, 0
1, 378369, Note_off_c, 0, 62, 56
1, 378399, Note_off_c, 0, 64, 65
1, 378403, Control_c, 0, 64, 17
1, 378418, Note_on_c, 0, 60, 73
1, 378418, Control_c, 0, 64, 57
1, 378433, Control_c, 0, 64, 65
1, 378448, Control_c, 0, 64, 69
1, 378462, Control_c, 0, 64, 71
1, 378466, Note_off_c, 0, 60, 60
1, 378477, Control_c, 0, 64, 73
1, 378477, Note_on_c, 0, 62, 73
1, 378544, Note_off_c, 0, 62, 63
1, 378545, Note_on_c, 0, 59, 79
1, 378566, Control_c, 0, 64, 74
1, 378580, Control_c, 0, 64, 74
1, 378595, Control_c, 0, 64, 73
1, 378610, Control_c, 0, 64, 70
1, 378619, Note_on_c, 0, 60, 77
1, 378625, Control_c, 0, 64, 61
1, 378628, Note_on_c, 0, 48, 87
1, 378629, Note_on_c, 0, 36, 85
1, 378632, Note_off_c, 0, 59, 61
1, 378640, Control_c, 0, 64, 0
1, 378680, Note_off_c, 0, 60, 66
1, 378680, Note_on_c, 0, 62, 76
1, 378767, Note_on_c, 0, 60, 79
1, 378802, Note_off_c, 0, 62, 57
1, 378843, Note_on_c, 0, 59, 76
1, 378856, Note_off_c, 0, 60, 54
1, 378906, Note_off_c, 0, 59, 62
1, 378914, Note_on_c, 0, 60, 72
1, 378978, Note_off_c, 0, 60, 61
1, 378988, Note_on_c, 0, 64, 82
1, 379046, Note_off_c, 0, 64, 64
1, 379059, Note_on_c, 0, 62, 76
1, 379120, Note_off_c, 0, 62, 62
1, 379125, Note_on_c, 0, 65, 80
1, 379195, Note_off_c, 0, 65, 60
1, 379198, Note_on_c, 0, 64, 81
1, 379217, Note_off_c, 0, 36, 60
1, 379218, Note_off_c, 0, 48, 61
1, 379226, Control_c, 0, 64, 63
1, 379241, Control_c, 0, 64, 51
1, 379251, Note_off_c, 0, 64, 65
1, 379255, Control_c, 0, 64, 47
1, 379258, Note_on_c, 0, 67, 77
1, 379270, Control_c, 0, 64, 49
1, 379285, Control_c, 0, 64, 49
1, 379300, Control_c, 0, 64, 50
1, 379315, Control_c, 0, 64, 51
1, 379330, Control_c, 0, 64, 53
1, 379333, Note_on_c, 0, 65, 74
1, 379345, Control_c, 0, 64, 54
1, 379359, Control_c, 0, 64, 55
1, 379374, Control_c, 0, 64, 56
1, 379375, Note_off_c, 0, 67, 56
1, 379389, Control_c, 0, 64, 58
1, 379403, Control_c, 0, 64, 59
1, 379406, Note_off_c, 0, 65, 65
1, 379407, Note_on_c, 0, 62, 75
1, 379418, Control_c, 0, 64, 61
1, 379433, Control_c, 0, 64, 61
1, 379448, Control_c, 0, 64, 60
1, 379463, Control_c, 0, 64, 0
1, 379468, Note_on_c, 0, 64, 78
1, 379488, Note_off_c, 0, 62, 59
1, 379516, Note_off_c, 0, 64, 65
1, 379536, Note_on_c, 0, 60, 77
1, 379589, Note_off_c, 0, 60, 64
1, 379615, Note_on_c, 0, 62, 73
1, 379680, Note_on_c, 0, 59, 77
1, 379700, Note_off_c, 0, 62, 60
1, 379750, Note_on_c, 0, 60, 90
1, 379752, Note_off_c, 0, 59, 63
1, 379759, Note_on_c, 0, 36, 86
1, 379781, Control_c, 0, 64, 62
1, 379796, Control_c, 0, 64, 50
1, 379810, Control_c, 0, 64, 50
1, 379825, Control_c, 0, 64, 52
1, 379840, Control_c, 0, 64, 54
1, 379855, Control_c, 0, 64, 56
1, 379870, Control_c, 0, 64, 59
1, 379884, Control_c, 0, 64, 60
1, 379899, Control_c, 0, 64, 61
1, 379915, Control_c, 0, 64, 61
1, 379917, Note_on_c, 0, 38, 70
1, 379921, Note_off_c, 0, 60, 63
1, 379926, Note_on_c, 0, 62, 77
1, 379929, Note_off_c, 0, 36, 51
1, 379945, Control_c, 0, 64, 62
1, 379974, Control_c, 0, 64, 60
1, 379986, Note_on_c, 0, 40, 68
1, 379989, Control_c, 0, 64, 0
1, 379992, Note_on_c, 0, 64, 84
1, 379994, Note_off_c, 0, 38, 59
1, 379997, Note_off_c, 0, 62, 61
1, 380048, Note_off_c, 0, 64, 63
1, 380053, Note_off_c, 0, 40, 64
1, 380054, Note_on_c, 0, 41, 75
1, 380059, Note_on_c, 0, 65, 82
1, 380118, Note_off_c, 0, 41, 63
1, 380120, Note_off_c, 0, 65, 64
1, 380128, Note_on_c, 0, 43, 64
1, 380132, Note_on_c, 0, 67, 82
1, 380159, Note_off_c, 0, 43, 64
1, 380191, Note_on_c, 0, 45, 73
1, 380191, Note_on_c, 0, 69, 78
1, 380206, Note_off_c, 0, 67, 63
1, 380255, Note_on_c, 0, 71, 81
1, 380265, Note_on_c, 0, 47, 73
1, 380265, Note_off_c, 0, 45, 64
1, 380284, Note_off_c, 0, 69, 64
1, 380301, Note_off_c, 0, 71, 65
1, 380330, Note_off_c, 0, 47, 65
1, 380331, Note_on_c, 0, 72, 83
1, 380332, Note_on_c, 0, 48, 80
1, 380338, Control_c, 0, 64, 70
1, 380352, Control_c, 0, 64, 67
1, 380367, Control_c, 0, 64, 63
1, 380372, Note_off_c, 0, 48, 62
1, 380382, Control_c, 0, 64, 62
1, 380397, Control_c, 0, 64, 62
1, 380399, Note_off_c, 0, 72, 64
1, 380404, Note_on_c, 0, 50, 79
1, 380407, Note_on_c, 0, 74, 89
1, 380441, Control_c, 0, 64, 63
1, 380457, Note_on_c, 0, 52, 70
1, 380466, Note_on_c, 0, 76, 85
1, 380475, Note_off_c, 0, 74, 65
1, 380498, Note_off_c, 0, 50, 64
1, 380501, Control_c, 0, 64, 63
1, 380504, Note_off_c, 0, 76, 64
1, 380513, Note_on_c, 0, 53, 71
1, 380527, Note_on_c, 0, 77, 80
1, 380529, Note_off_c, 0, 52, 62
1, 380562, Note_off_c, 0, 53, 66
1, 380567, Note_on_c, 0, 55, 71
1, 380574, Control_c, 0, 64, 64
1, 380589, Control_c, 0, 64, 64
1, 380590, Note_on_c, 0, 79, 87
1, 380591, Note_off_c, 0, 77, 62
1, 380595, Note_off_c, 0, 55, 62
1, 380619, Control_c, 0, 64, 65
1, 380630, Note_on_c, 0, 57, 69
1, 380632, Note_on_c, 0, 81, 83
1, 380633, Control_c, 0, 64, 66
1, 380648, Control_c, 0, 64, 67
1, 380661, Note_off_c, 0, 79, 64
1, 380663, Control_c, 0, 64, 67
1, 380678, Control_c, 0, 64, 68
1, 380692, Note_on_c, 0, 59, 81
1, 380693, Control_c, 0, 64, 69
1, 380695, Note_on_c, 0, 83, 75
1, 380698, Note_off_c, 0, 57, 62
1, 380709, Control_c, 0, 64, 71
1, 380711, Note_off_c, 0, 81, 62
1, 380723, Control_c, 0, 64, 72
1, 380737, Note_on_c, 0, 84, 83
1, 380738, Control_c, 0, 64, 74
1, 380753, Control_c, 0, 64, 76
1, 380761, Note_off_c, 0, 59, 64
1, 380762, Note_off_c, 0, 83, 65
1, 380763, Note_on_c, 0, 60, 82
1, 380768, Control_c, 0, 64, 78
1, 380782, Control_c, 0, 64, 79
1, 380797, Control_c, 0, 64, 80
1, 380803, Note_off_c, 0, 84, 62
1, 380812, Control_c, 0, 64, 79
1, 380814, Note_off_c, 0, 60, 64
1, 380826, Control_c, 0, 64, 71
1, 380836, Note_on_c, 0, 48, 97
1, 380841, Control_c, 0, 64, 0
1, 380842, Note_on_c, 0, 72, 83
1, 380902, Note_off_c, 0, 72, 63
1, 380943, Note_on_c, 0, 74, 75
1, 380984, Note_off_c, 0, 74, 61
1, 381004, Control_c, 0, 64, 64
1, 381016, Note_on_c, 0, 72, 73
1, 381019, Control_c, 0, 64, 75
1, 381041, Control_c, 0, 64, 93
1, 381053, Note_off_c, 0, 72, 58
1, 381056, Control_c, 0, 64, 127
1, 381090, Note_on_c, 0, 74, 63
1, 381110, Note_off_c, 0, 74, 64
1, 381127, Note_on_c, 0, 72, 79
1, 381172, Note_off_c, 0, 72, 60
1, 381174, Note_on_c, 0, 74, 81
1, 381211, Note_off_c, 0, 74, 58
1, 381217, Note_on_c, 0, 72, 57
1, 381269, Note_on_c, 0, 74, 79
1, 381289, Note_off_c, 0, 72, 0
1, 381315, Note_off_c, 0, 74, 59
1, 381326, Poly_aftertouch_c, 0, 72, 127
1, 381351, Note_on_c, 0, 74, 73
1, 381366, Poly_aftertouch_c, 0, 72, 0
1, 381413, Note_off_c, 0, 74, 64
1, 381416, Note_on_c, 0, 72, 67
1, 381461, Note_off_c, 0, 72, 66
1, 381473, Note_on_c, 0, 71, 71
1, 381485, Control_c, 0, 64, 111
1, 381501, Control_c, 0, 64, 84
1, 381516, Control_c, 0, 64, 61
1, 381531, Control_c, 0, 64, 0
1, 381556, Note_on_c, 0, 72, 74
1, 381563, Note_off_c, 0, 71, 58
1, 381664, Control_c, 0, 67, 9
1, 381678, Control_c, 0, 67, 12
1, 381693, Control_c, 0, 67, 16
1, 381708, Control_c, 0, 67, 23
1, 381723, Control_c, 0, 64, 14
1, 381723, Control_c, 0, 67, 29
1, 381738, Control_c, 0, 64, 59
1, 381738, Control_c, 0, 67, 34
1, 381752, Control_c, 0, 64, 66
1, 381752, Control_c, 0, 67, 38
1, 381767, Control_c, 0, 64, 71
1, 381767, Control_c, 0, 67, 41
1, 381789, Control_c, 0, 64, 76
1, 381789, Control_c, 0, 67, 43
1, 381804, Control_c, 0, 64, 83
1, 381804, Control_c, 0, 67, 46
1, 381819, Control_c, 0, 64, 88
1, 381819, Control_c, 0, 67, 49
1, 381834, Control_c, 0, 64, 92
1, 381834, Control_c, 0, 67, 51
1, 381839, Note_off_c, 0, 48, 54
1, 381843, Note_off_c, 0, 72, 48
1, 381849, Control_c, 0, 64, 94
1, 381849, Control_c, 0, 67, 54
1, 381864, Control_c, 0, 64, 96
1, 381864, Control_c, 0, 67, 56
1, 381878, Control_c, 0, 64, 97
1, 381878, Control_c, 0, 67, 59
1, 381893, Control_c, 0, 64, 98
1, 381893, Control_c, 0, 67, 61
1, 381908, Control_c, 0, 67, 65
1, 381923, Control_c, 0, 67, 68
1, 381938, Control_c, 0, 67, 71
1, 381952, Control_c, 0, 67, 74
1, 381967, Control_c, 0, 67, 78
1, 381982, Control_c, 0, 64, 97
1, 381982, Control_c, 0, 67, 82
1, 381996, Control_c, 0, 64, 95
1, 381996, Control_c, 0, 67, 85
1, 382011, Control_c, 0, 64, 93
1, 382011, Control_c, 0, 67, 91
1, 382026, Control_c, 0, 64, 90
1, 382026, Control_c, 0, 67, 95
1, 382041, Control_c, 0, 64, 86
1, 382041, Control_c, 0, 67, 100
1, 382056, Control_c, 0, 64, 81
1, 382056, Control_c, 0, 67, 105
1, 382071, Control_c, 0, 64, 74
1, 382071, Control_c, 0, 67, 110
1, 382085, Control_c, 0, 64, 67
1, 382085, Control_c, 0, 67, 115
1, 382100, Control_c, 0, 64, 62
1, 382100, Control_c, 0, 67, 121
1, 382115, Control_c, 0, 64, 56
1, 382115, Control_c, 0, 67, 127
1, 382130, Control_c, 0, 64, 50
1, 382145, Control_c, 0, 64, 42
1, 382159, Control_c, 0, 64, 26
1, 382174, Control_c, 0, 64, 0
1, 382865, Control_c, 0, 64, 11
1, 382880, Control_c, 0, 64, 17
1, 382894, Control_c, 0, 64, 19
1, 382909, Control_c, 0, 64, 23
1, 382924, Control_c, 0, 64, 26
1, 382939, Control_c, 0, 64, 28
1, 382953, Control_c, 0, 64, 29
1, 382968, Control_c, 0, 64, 31
1, 382983, Control_c, 0, 64, 32
1, 382999, Note_on_c, 0, 84, 39
1, 383007, Note_on_c, 0, 81, 34
1, 383013, Control_c, 0, 64, 33
1, 383042, Control_c, 0, 64, 34
1, 383072, Control_c, 0, 64, 35
1, 383087, Control_c, 0, 64, 36
1, 383103, Control_c, 0, 64, 36
1, 383138, Note_off_c, 0, 84, 61
1, 383144, Note_off_c, 0, 81, 44
1, 383151, Note_on_c, 0, 82, 56
1, 383155, Note_on_c, 0, 79, 46
1, 383162, Control_c, 0, 64, 37
1, 383206, Control_c, 0, 64, 38
1, 383236, Control_c, 0, 64, 38
1, 383276, Note_off_c, 0, 79, 58
1, 383277, Note_off_c, 0, 82, 63
1, 383290, Note_on_c, 0, 81, 57
1, 383298, Note_on_c, 0, 77, 48
1, 383303, Control_c, 0, 64, 39
1, 383347, Control_c, 0, 64, 40
1, 383408, Note_off_c, 0, 77, 60
1, 383420, Note_on_c, 0, 79, 49
1, 383420, Note_on_c, 0, 82, 61
1, 383423, Note_off_c, 0, 81, 59
1, 383465, Control_c, 0, 64, 40
1, 383480, Control_c, 0, 64, 42
1, 383495, Control_c, 0, 64, 43
1, 383510, Control_c, 0, 64, 44
1, 383524, Control_c, 0, 64, 46
1, 383539, Control_c, 0, 64, 47
1, 383543, Note_off_c, 0, 79, 58
1, 383554, Control_c, 0, 64, 48
1, 383566, Note_on_c, 0, 84, 53
1, 383569, Control_c, 0, 64, 49
1, 383571, Note_off_c, 0, 82, 59
1, 383573, Note_on_c, 0, 81, 46
1, 383584, Control_c, 0, 64, 50
1, 383599, Control_c, 0, 64, 51
1, 383628, Control_c, 0, 64, 51
1, 383643, Control_c, 0, 64, 52
1, 383711, Note_on_c, 0, 76, 51
1, 383776, Control_c, 0, 64, 51
1, 383825, Note_off_c, 0, 76, 57
1, 383850, Note_on_c, 0, 77, 54
1, 383940, Control_c, 0, 64, 51
1, 383971, Note_off_c, 0, 77, 59
1, 383982, Note_off_c, 0, 81, 62
1, 383984, Note_on_c, 0, 76, 49
1, 383984, Note_off_c, 0, 84, 63
1, 383990, Note_on_c, 0, 82, 65
1, 383993, Note_on_c, 0, 86, 65
1, 384096, Control_c, 0, 64, 50
1, 384122, Note_off_c, 0, 76, 61
1, 384124, Note_off_c, 0, 86, 62
1, 384127, Note_on_c, 0, 84, 68
1, 384127, Note_off_c, 0, 82, 62
1, 384132, Note_on_c, 0, 81, 62
1, 384141, Note_on_c, 0, 77, 48
1, 384155, Control_c, 0, 64, 50
1, 384240, Note_off_c, 0, 81, 59
1, 384245, Note_off_c, 0, 84, 63
1, 384248, Note_on_c, 0, 82, 71
1, 384250, Note_off_c, 0, 77, 61
1, 384255, Note_on_c, 0, 86, 69
1, 384269, Note_on_c, 0, 76, 54
1, 384303, Control_c, 0, 64, 49
1, 384318, Control_c, 0, 64, 49
1, 384347, Control_c, 0, 64, 48
1, 384362, Control_c, 0, 64, 48
1, 384377, Control_c, 0, 64, 47
1, 384387, Note_off_c, 0, 76, 60
1, 384389, Note_off_c, 0, 86, 63
1, 384392, Control_c, 0, 64, 47
1, 384393, Note_off_c, 0, 82, 61
1, 384398, Note_on_c, 0, 81, 60
1, 384398, Note_on_c, 0, 77, 46
1, 384399, Note_on_c, 0, 84, 66
1, 384406, Control_c, 0, 64, 46
1, 384421, Control_c, 0, 64, 45
1, 384436, Control_c, 0, 64, 44
1, 384451, Control_c, 0, 64, 44
1, 384466, Control_c, 0, 64, 43
1, 384481, Control_c, 0, 64, 42
1, 384496, Control_c, 0, 64, 40
1, 384506, Note_off_c, 0, 77, 59
1, 384511, Control_c, 0, 64, 39
1, 384512, Note_off_c, 0, 84, 63
1, 384517, Note_off_c, 0, 81, 59
1, 384525, Control_c, 0, 64, 38
1, 384531, Note_on_c, 0, 82, 62
1, 384532, Note_on_c, 0, 86, 57
1, 384533, Note_on_c, 0, 76, 51
1, 384540, Control_c, 0, 64, 36
1, 384555, Control_c, 0, 64, 35
1, 384570, Control_c, 0, 64, 33
1, 384585, Control_c, 0, 64, 32
1, 384599, Control_c, 0, 64, 31
1, 384614, Control_c, 0, 64, 30
1, 384657, Note_off_c, 0, 82, 61
1, 384657, Note_off_c, 0, 86, 54
1, 384659, Control_c, 0, 64, 29
1, 384660, Note_off_c, 0, 76, 54
1, 384681, Note_on_c, 0, 84, 49
1, 384686, Note_on_c, 0, 81, 52
1, 384688, Note_on_c, 0, 77, 39
1, 384726, Note_off_c, 0, 77, 55
1, 384729, Note_off_c, 0, 81, 57
1, 384740, Note_off_c, 0, 84, 54
1, 384845, Control_c, 0, 64, 30
1, 384919, Control_c, 0, 64, 31
1, 384964, Control_c, 0, 64, 32
1, 384978, Control_c, 0, 64, 33
1, 384991, Note_on_c, 0, 84, 48
1, 384993, Note_on_c, 0, 81, 40
1, 384999, Note_on_c, 0, 77, 44
1, 385008, Control_c, 0, 64, 34
1, 385023, Note_off_c, 0, 81, 56
1, 385037, Control_c, 0, 64, 35
1, 385038, Note_off_c, 0, 77, 63
1, 385040, Note_off_c, 0, 84, 61
1, 385067, Control_c, 0, 64, 36
1, 385082, Control_c, 0, 64, 36
1, 385096, Control_c, 0, 64, 37
1, 385111, Control_c, 0, 64, 38
1, 385126, Control_c, 0, 64, 39
1, 385141, Control_c, 0, 64, 40
1, 385155, Control_c, 0, 64, 42
1, 385170, Control_c, 0, 64, 43
1, 385185, Control_c, 0, 64, 44
1, 385200, Control_c, 0, 64, 44
1, 385215, Control_c, 0, 64, 46
1, 385229, Control_c, 0, 64, 46
1, 385244, Control_c, 0, 64, 47
1, 385259, Control_c, 0, 64, 47
1, 385274, Control_c, 0, 64, 48
1, 385289, Control_c, 0, 64, 49
1, 385313, Note_on_c, 0, 82, 57
1, 385314, Note_on_c, 0, 86, 55
1, 385319, Control_c, 0, 64, 50
1, 385334, Control_c, 0, 64, 51
1, 385348, Control_c, 0, 64, 52
1, 385363, Control_c, 0, 64, 53
1, 385378, Control_c, 0, 64, 54
1, 385393, Control_c, 0, 64, 54
1, 385408, Control_c, 0, 64, 55
1, 385422, Control_c, 0, 64, 56
1, 385429, Note_off_c, 0, 82, 61
1, 385437, Control_c, 0, 64, 56
1, 385452, Note_on_c, 0, 81, 71
1, 385456, Note_on_c, 0, 84, 67
1, 385467, Control_c, 0, 64, 57
1, 385482, Control_c, 0, 64, 57
1, 385497, Control_c, 0, 64, 58
1, 385512, Control_c, 0, 64, 58
1, 385534, Control_c, 0, 64, 59
1, 385549, Control_c, 0, 64, 59
1, 385551, Note_off_c, 0, 86, 39
1, 385589, Note_off_c, 0, 84, 62
1, 385590, Note_on_c, 0, 82, 73
1, 385608, Note_off_c, 0, 81, 61
1, 385615, Note_on_c, 0, 79, 77
1, 385644, Note_off_c, 0, 82, 64
1, 385652, Control_c, 0, 64, 60
1, 385737, Note_on_c, 0, 77, 78
1, 385739, Note_on_c, 0, 81, 71
1, 385753, Note_off_c, 0, 79, 61
1, 385757, Control_c, 0, 64, 59
1, 385831, Control_c, 0, 64, 59
1, 385882, Note_on_c, 0, 79, 74
1, 385883, Note_on_c, 0, 76, 71
1, 385904, Note_off_c, 0, 77, 60
1, 385919, Control_c, 0, 64, 58
1, 385933, Note_off_c, 0, 81, 53
1, 385978, Control_c, 0, 64, 58
1, 386019, Note_on_c, 0, 71, 64
1, 386023, Control_c, 0, 64, 57
1, 386067, Control_c, 0, 64, 57
1, 386097, Control_c, 0, 64, 56
1, 386141, Control_c, 0, 64, 56
1, 386150, Note_off_c, 0, 71, 64
1, 386156, Note_on_c, 0, 72, 71
1, 386156, Control_c, 0, 64, 55
1, 386186, Control_c, 0, 64, 55
1, 386216, Control_c, 0, 64, 54
1, 386260, Control_c, 0, 64, 54
1, 386287, Note_on_c, 0, 71, 60
1, 386298, Control_c, 0, 64, 53
1, 386299, Note_off_c, 0, 72, 60
1, 386301, Note_on_c, 0, 81, 72
1, 386305, Note_on_c, 0, 77, 70
1, 386311, Note_off_c, 0, 76, 62
1, 386316, Note_off_c, 0, 79, 58
1, 386328, Control_c, 0, 64, 53
1, 386372, Control_c, 0, 64, 52
1, 386436, Note_off_c, 0, 71, 65
1, 386439, Note_on_c, 0, 72, 61
1, 386442, Note_on_c, 0, 79, 76
1, 386444, Note_on_c, 0, 76, 71
1, 386453, Note_off_c, 0, 81, 60
1, 386457, Note_off_c, 0, 77, 61
1, 386535, Control_c, 0, 67, 126
1, 386550, Control_c, 0, 67, 124
1, 386565, Note_off_c, 0, 76, 62
1, 386565, Control_c, 0, 67, 122
1, 386571, Note_on_c, 0, 77, 74
1, 386574, Note_on_c, 0, 81, 73
1, 386574, Note_on_c, 0, 71, 61
1, 386575, Note_off_c, 0, 72, 62
1, 386579, Note_off_c, 0, 79, 61
1, 386580, Control_c, 0, 67, 119
1, 386594, Control_c, 0, 67, 117
1, 386609, Control_c, 0, 64, 53
1, 386609, Control_c, 0, 67, 114
1, 386624, Control_c, 0, 67, 113
1, 386639, Control_c, 0, 67, 111
1, 386654, Control_c, 0, 67, 110
1, 386668, Control_c, 0, 64, 53
1, 386668, Control_c, 0, 67, 109
1, 386683, Control_c, 0, 67, 107
1, 386698, Control_c, 0, 67, 107
1, 386702, Note_off_c, 0, 71, 65
1, 386705, Note_off_c, 0, 81, 61
1, 386706, Note_on_c, 0, 79, 73
1, 386710, Note_on_c, 0, 72, 65
1, 386711, Note_off_c, 0, 77, 62
1, 386711, Note_on_c, 0, 76, 68
1, 386713, Control_c, 0, 67, 106
1, 386727, Control_c, 0, 64, 53
1, 386727, Control_c, 0, 67, 106
1, 386757, Control_c, 0, 64, 52
1, 386772, Control_c, 0, 64, 52
1, 386787, Control_c, 0, 64, 51
1, 386801, Control_c, 0, 64, 49
1, 386801, Control_c, 0, 67, 106
1, 386816, Control_c, 0, 64, 47
1, 386816, Control_c, 0, 67, 107
1, 386822, Note_off_c, 0, 76, 61
1, 386831, Control_c, 0, 64, 47
1, 386831, Control_c, 0, 67, 108
1, 386833, Note_on_c, 0, 77, 66
1, 386836, Note_on_c, 0, 71, 60
1, 386836, Note_on_c, 0, 81, 67
1, 386836, Note_off_c, 0, 79, 59
1, 386839, Note_off_c, 0, 72, 61
1, 386846, Control_c, 0, 67, 109
1, 386861, Control_c, 0, 67, 110
1, 386875, Control_c, 0, 67, 111
1, 386890, Control_c, 0, 64, 46
1, 386890, Control_c, 0, 67, 112
1, 386905, Control_c, 0, 64, 43
1, 386905, Control_c, 0, 67, 114
1, 386919, Control_c, 0, 64, 29
1, 386919, Control_c, 0, 67, 115
1, 386934, Control_c, 0, 64, 0
1, 386934, Control_c, 0, 67, 116
1, 386949, Control_c, 0, 67, 117
1, 386962, Note_off_c, 0, 81, 59
1, 386964, Note_off_c, 0, 71, 63
1, 386964, Control_c, 0, 67, 117
1, 386970, Note_off_c, 0, 77, 60
1, 386982, Note_on_c, 0, 79, 55
1, 386988, Note_on_c, 0, 76, 56
1, 386991, Note_on_c, 0, 72, 52
1, 386994, Control_c, 0, 67, 118
1, 387034, Note_off_c, 0, 76, 61
1, 387036, Note_off_c, 0, 72, 61
1, 387040, Note_off_c, 0, 79, 59
1, 387121, Control_c, 0, 67, 118
1, 387151, Control_c, 0, 67, 119
1, 387166, Control_c, 0, 67, 119
1, 387180, Control_c, 0, 67, 120
1, 387195, Control_c, 0, 67, 122
1, 387210, Control_c, 0, 67, 127
1, 387224, Control_c, 0, 67, 127
1, 387281, Note_on_c, 0, 79, 57
1, 387282, Note_on_c, 0, 72, 54
1, 387287, Note_on_c, 0, 76, 52
1, 387313, Note_off_c, 0, 72, 66
1, 387316, Note_off_c, 0, 76, 63
1, 387329, Note_off_c, 0, 79, 61
1, 387596, Note_on_c, 0, 72, 52
1, 387597, Note_on_c, 0, 69, 51
1, 387732, Note_off_c, 0, 69, 62
1, 387749, Note_on_c, 0, 67, 73
1, 387750, Note_on_c, 0, 70, 71
1, 387816, Note_off_c, 0, 72, 56
1, 387890, Note_off_c, 0, 70, 56
1, 387897, Note_on_c, 0, 65, 71
1, 387908, Note_on_c, 0, 69, 73
1, 387908, Note_off_c, 0, 67, 62
1, 388022, Note_off_c, 0, 69, 61
1, 388025, Note_on_c, 0, 70, 69
1, 388037, Note_on_c, 0, 67, 65
1, 388037, Note_off_c, 0, 65, 58
1, 388142, Note_on_c, 0, 41, 60
1, 388167, Note_on_c, 0, 72, 59
1, 388170, Note_off_c, 0, 41, 62
1, 388174, Note_on_c, 0, 69, 59
1, 388176, Note_off_c, 0, 70, 51
1, 388182, Note_off_c, 0, 67, 57
1, 388292, Note_off_c, 0, 69, 60
1, 388296, Note_on_c, 0, 53, 53
1, 388296, Note_off_c, 0, 72, 60
1, 388320, Note_off_c, 0, 53, 61
1, 388359, Control_c, 0, 64, 14
1, 388403, Control_c, 0, 64, 0
1, 388434, Note_on_c, 0, 41, 63
1, 388460, Note_off_c, 0, 41, 57
1, 388580, Note_on_c, 0, 53, 55
1, 388581, Note_on_c, 0, 69, 53
1, 388583, Note_on_c, 0, 77, 64
1, 388605, Note_off_c, 0, 53, 62
1, 388714, Note_off_c, 0, 69, 62
1, 388717, Note_on_c, 0, 41, 61
1, 388722, Note_on_c, 0, 76, 64
1, 388729, Note_on_c, 0, 67, 58
1, 388744, Note_off_c, 0, 41, 57
1, 388759, Note_off_c, 0, 77, 52
1, 388779, Note_off_c, 0, 67, 55
1, 388838, Note_off_c, 0, 76, 62
1, 388854, Note_on_c, 0, 53, 62
1, 388881, Note_off_c, 0, 53, 67
1, 388989, Note_on_c, 0, 41, 65
1, 389014, Note_off_c, 0, 41, 61
1, 389117, Note_on_c, 0, 79, 72
1, 389122, Note_on_c, 0, 70, 61
1, 389131, Note_on_c, 0, 53, 58
1, 389155, Note_off_c, 0, 53, 64
1, 389253, Note_on_c, 0, 69, 63
1, 389253, Note_off_c, 0, 70, 63
1, 389256, Note_on_c, 0, 41, 69
1, 389272, Note_on_c, 0, 77, 69
1, 389292, Note_off_c, 0, 41, 64
1, 389316, Note_off_c, 0, 69, 57
1, 389317, Note_off_c, 0, 79, 54
1, 389376, Note_off_c, 0, 77, 63
1, 389399, Note_on_c, 0, 53, 67
1, 389426, Note_off_c, 0, 53, 68
1, 389531, Note_on_c, 0, 41, 70
1, 389560, Note_off_c, 0, 41, 64
1, 389663, Note_on_c, 0, 81, 67
1, 389672, Note_on_c, 0, 53, 57
1, 389673, Note_on_c, 0, 77, 64
1, 389695, Note_off_c, 0, 53, 64
1, 389799, Note_off_c, 0, 77, 61
1, 389799, Note_on_c, 0, 79, 73
1, 389805, Note_on_c, 0, 41, 64
1, 389806, Note_on_c, 0, 76, 67
1, 389819, Note_off_c, 0, 81, 57
1, 389831, Note_off_c, 0, 41, 62
1, 389901, Note_off_c, 0, 76, 60
1, 389927, Note_off_c, 0, 79, 63
1, 389935, Note_on_c, 0, 53, 70
1, 389961, Note_off_c, 0, 53, 68
1, 390076, Note_on_c, 0, 41, 74
1, 390103, Note_off_c, 0, 41, 64
1, 390219, Note_on_c, 0, 82, 80
1, 390222, Note_on_c, 0, 53, 61
1, 390228, Note_on_c, 0, 79, 71
1, 390251, Note_off_c, 0, 53, 67
1, 390357, Note_off_c, 0, 79, 58
1, 390359, Note_on_c, 0, 41, 61
1, 390362, Note_on_c, 0, 81, 71
1, 390366, Note_on_c, 0, 77, 63
1, 390385, Note_off_c, 0, 41, 58
1, 390417, Note_off_c, 0, 82, 52
1, 390470, Note_off_c, 0, 77, 61
1, 390486, Note_off_c, 0, 81, 62
1, 390496, Note_on_c, 0, 53, 66
1, 390516, Control_c, 0, 64, 31
1, 390521, Note_off_c, 0, 53, 68
1, 390531, Control_c, 0, 64, 40
1, 390546, Control_c, 0, 64, 45
1, 390560, Control_c, 0, 64, 46
1, 390575, Control_c, 0, 64, 38
1, 390590, Control_c, 0, 64, 0
1, 390628, Note_on_c, 0, 41, 75
1, 390655, Note_off_c, 0, 41, 65
1, 390771, Note_on_c, 0, 81, 81
1, 390774, Note_on_c, 0, 77, 80
1, 390774, Note_on_c, 0, 53, 67
1, 390805, Note_off_c, 0, 53, 66
1, 390886, Note_off_c, 0, 81, 62
1, 390892, Note_off_c, 0, 77, 62
1, 390899, Note_on_c, 0, 79, 66
1, 390904, Note_on_c, 0, 41, 66
1, 390907, Note_on_c, 0, 76, 64
1, 390923, Note_off_c, 0, 79, 69
1, 390929, Note_off_c, 0, 41, 62
1, 390931, Note_off_c, 0, 76, 64
1, 391034, Note_on_c, 0, 76, 69
1, 391036, Note_on_c, 0, 79, 76
1, 391045, Note_on_c, 0, 53, 62
1, 391056, Note_off_c, 0, 79, 70
1, 391060, Note_off_c, 0, 76, 67
1, 391072, Note_off_c, 0, 53, 68
1, 391172, Note_on_c, 0, 41, 72
1, 391179, Note_on_c, 0, 76, 69
1, 391182, Note_on_c, 0, 79, 78
1, 391200, Note_off_c, 0, 79, 71
1, 391201, Note_off_c, 0, 41, 64
1, 391205, Note_off_c, 0, 76, 67
1, 391309, Note_on_c, 0, 79, 85
1, 391312, Note_on_c, 0, 53, 74
1, 391314, Note_on_c, 0, 82, 83
1, 391343, Note_off_c, 0, 53, 69
1, 391438, Note_off_c, 0, 79, 61
1, 391441, Note_on_c, 0, 81, 76
1, 391443, Note_on_c, 0, 41, 72
1, 391446, Note_on_c, 0, 77, 63
1, 391448, Note_off_c, 0, 82, 63
1, 391462, Note_off_c, 0, 81, 66
1, 391468, Note_off_c, 0, 41, 65
1, 391471, Note_off_c, 0, 77, 69
1, 391587, Note_on_c, 0, 81, 82
1, 391588, Note_on_c, 0, 77, 71
1, 391594, Note_on_c, 0, 53, 68
1, 391611, Note_off_c, 0, 81, 62
1, 391613, Note_off_c, 0, 77, 67
1, 391622, Note_off_c, 0, 53, 67
1, 391715, Note_on_c, 0, 41, 76
1, 391722, Note_on_c, 0, 77, 74
1, 391722, Note_on_c, 0, 81, 88
1, 391745, Note_off_c, 0, 41, 64
1, 391745, Note_off_c, 0, 77, 68
1, 391751, Note_off_c, 0, 81, 65
1, 391856, Note_on_c, 0, 84, 85
1, 391857, Note_on_c, 0, 81, 91
1, 391861, Note_on_c, 0, 53, 75
1, 391894, Note_off_c, 0, 53, 66
1, 391985, Note_off_c, 0, 81, 64
1, 391987, Note_on_c, 0, 82, 81
1, 391989, Note_off_c, 0, 84, 63
1, 391993, Note_on_c, 0, 41, 77
1, 391995, Note_on_c, 0, 79, 69
1, 392013, Note_off_c, 0, 82, 66
1, 392018, Note_off_c, 0, 79, 68
1, 392023, Note_off_c, 0, 41, 64
1, 392123, Note_on_c, 0, 79, 78
1, 392124, Note_on_c, 0, 82, 91
1, 392129, Note_on_c, 0, 53, 76
1, 392147, Note_off_c, 0, 79, 64
1, 392148, Note_off_c, 0, 82, 64
1, 392160, Note_off_c, 0, 53, 68
1, 392249, Note_on_c, 0, 41, 82
1, 392261, Note_on_c, 0, 79, 83
1, 392264, Note_on_c, 0, 82, 88
1, 392286, Note_off_c, 0, 79, 63
1, 392287, Note_off_c, 0, 41, 66
1, 392287, Note_off_c, 0, 82, 66
1, 392399, Note_on_c, 0, 82, 92
1, 392401, Note_on_c, 0, 53, 78
1, 392401, Note_on_c, 0, 86, 87
1, 392433, Note_off_c, 0, 53, 66
1, 392496, Control_c, 0, 64, 11
1, 392511, Control_c, 0, 64, 17
1, 392526, Control_c, 0, 64, 21
1, 392528, Note_on_c, 0, 41, 83
1, 392529, Note_on_c, 0, 81, 78
1, 392534, Note_on_c, 0, 84, 82
1, 392540, Control_c, 0, 64, 23
1, 392556, Note_off_c, 0, 82, 63
1, 392565, Note_off_c, 0, 41, 63
1, 392575, Note_off_c, 0, 86, 58
1, 392585, Control_c, 0, 64, 21
1, 392600, Control_c, 0, 64, 17
1, 392614, Control_c, 0, 64, 11
1, 392629, Control_c, 0, 64, 0
1, 392668, Note_on_c, 0, 53, 82
1, 392690, Control_c, 0, 64, 14
1, 392704, Note_off_c, 0, 53, 65
1, 392705, Control_c, 0, 64, 23
1, 392719, Control_c, 0, 64, 29
1, 392734, Control_c, 0, 64, 37
1, 392749, Control_c, 0, 64, 41
1, 392758, Note_off_c, 0, 81, 59
1, 392763, Control_c, 0, 64, 44
1, 392778, Control_c, 0, 64, 47
1, 392788, Note_off_c, 0, 84, 64
1, 392793, Control_c, 0, 64, 52
1, 392795, Note_on_c, 0, 41, 91
1, 392808, Control_c, 0, 64, 56
1, 392808, Control_c, 0, 67, 120
1, 392821, Note_off_c, 0, 41, 69
1, 392823, Control_c, 0, 64, 60
1, 392823, Control_c, 0, 67, 100
1, 392837, Control_c, 0, 64, 62
1, 392837, Control_c, 0, 67, 70
1, 392852, Control_c, 0, 64, 63
1, 392852, Control_c, 0, 67, 39
1, 392867, Control_c, 0, 64, 65
1, 392867, Control_c, 0, 67, 13
1, 392882, Control_c, 0, 64, 66
1, 392882, Control_c, 0, 67, 0
1, 392897, Control_c, 0, 64, 66
1, 392911, Control_c, 0, 64, 67
1, 392926, Control_c, 0, 64, 67
1, 392938, Note_on_c, 0, 84, 88
1, 392942, Note_on_c, 0, 81, 79
1, 392956, Control_c, 0, 64, 64
1, 392961, Note_off_c, 0, 84, 68
1, 392965, Note_off_c, 0, 81, 64
1, 392971, Control_c, 0, 64, 30
1, 392986, Control_c, 0, 64, 0
1, 393082, Note_on_c, 0, 81, 80
1, 393085, Note_on_c, 0, 84, 85
1, 393170, Control_c, 0, 64, 60
1, 393185, Control_c, 0, 64, 68
1, 393200, Control_c, 0, 64, 76
1, 393212, Note_on_c, 0, 89, 86
1, 393213, Note_off_c, 0, 84, 64
1, 393215, Control_c, 0, 64, 94
1, 393230, Note_off_c, 0, 81, 63
1, 393230, Control_c, 0, 64, 127
1, 393253, Note_off_c, 0, 89, 64
1, 393349, Note_on_c, 0, 89, 105
1, 393352, Note_on_c, 0, 81, 88
1, 393381, Note_off_c, 0, 81, 61
1, 393384, Note_off_c, 0, 89, 67
1, 393485, Note_on_c, 0, 89, 96
1, 393486, Note_on_c, 0, 81, 89
1, 393519, Note_off_c, 0, 81, 58
1, 393522, Note_off_c, 0, 89, 63
1, 393612, Note_on_c, 0, 89, 96
1, 393615, Note_on_c, 0, 81, 85
1, 393751, Note_on_c, 0, 84, 81
1, 393761, Note_off_c, 0, 81, 64
1, 393775, Note_off_c, 0, 89, 61
1, 393788, Note_off_c, 0, 84, 62
1, 393829, Control_c, 0, 67, 8
1, 393844, Control_c, 0, 67, 10
1, 393859, Control_c, 0, 67, 11
1, 393874, Control_c, 0, 67, 12
1, 393888, Note_on_c, 0, 84, 75
1, 393889, Control_c, 0, 64, 117
1, 393889, Control_c, 0, 67, 13
1, 393894, Note_on_c, 0, 81, 64
1, 393903, Control_c, 0, 64, 89
1, 393903, Control_c, 0, 67, 14
1, 393918, Control_c, 0, 64, 75
1, 393918, Control_c, 0, 67, 15
1, 393933, Control_c, 0, 64, 67
1, 393933, Control_c, 0, 67, 15
1, 393948, Control_c, 0, 64, 68
1, 393948, Control_c, 0, 67, 16
1, 393963, Control_c, 0, 64, 73
1, 393963, Control_c, 0, 67, 17
1, 393978, Control_c, 0, 64, 81
1, 393978, Control_c, 0, 67, 20
1, 393992, Control_c, 0, 64, 94
1, 393992, Control_c, 0, 67, 23
1, 394007, Control_c, 0, 64, 126
1, 394007, Control_c, 0, 67, 25
1, 394009, Note_off_c, 0, 84, 63
1, 394016, Note_off_c, 0, 81, 65
1, 394022, Control_c, 0, 64, 127
1, 394022, Control_c, 0, 67, 27
1, 394023, Note_on_c, 0, 77, 76
1, 394037, Control_c, 0, 67, 29
1, 394052, Control_c, 0, 67, 30
1, 394066, Control_c, 0, 67, 31
1, 394073, Note_off_c, 0, 77, 62
1, 394081, Control_c, 0, 67, 32
1, 394096, Control_c, 0, 67, 34
1, 394110, Control_c, 0, 67, 35
1, 394125, Control_c, 0, 67, 37
1, 394140, Control_c, 0, 67, 38
1, 394146, Note_on_c, 0, 81, 69
1, 394155, Control_c, 0, 64, 102
1, 394155, Control_c, 0, 67, 39
1, 394159, Note_on_c, 0, 77, 60
1, 394170, Control_c, 0, 64, 82
1, 394170, Control_c, 0, 67, 40
1, 394184, Control_c, 0, 64, 70
1, 394184, Control_c, 0, 67, 41
1, 394199, Control_c, 0, 64, 66
1, 394199, Control_c, 0, 67, 42
1, 394214, Control_c, 0, 64, 70
1, 394214, Control_c, 0, 67, 44
1, 394229, Control_c, 0, 64, 76
1, 394229, Control_c, 0, 67, 47
1, 394244, Control_c, 0, 64, 87
1, 394244, Control_c, 0, 67, 50
1, 394248, Note_off_c, 0, 81, 62
1, 394258, Control_c, 0, 64, 100
1, 394258, Control_c, 0, 67, 54
1, 394268, Note_off_c, 0, 77, 64
1, 394273, Control_c, 0, 64, 119
1, 394273, Control_c, 0, 67, 58
1, 394288, Note_on_c, 0, 72, 62
1, 394289, Control_c, 0, 64, 127
1, 394289, Control_c, 0, 67, 61
1, 394304, Control_c, 0, 67, 64
1, 394315, Note_off_c, 0, 72, 67
1, 394319, Control_c, 0, 67, 68
1, 394333, Control_c, 0, 67, 73
1, 394348, Control_c, 0, 67, 78
1, 394363, Control_c, 0, 67, 83
1, 394378, Control_c, 0, 67, 91
1, 394393, Control_c, 0, 67, 99
1, 394407, Control_c, 0, 67, 107
1, 394422, Control_c, 0, 67, 116
1, 394427, Note_on_c, 0, 77, 56
1, 394435, Note_on_c, 0, 72, 46
1, 394437, Control_c, 0, 67, 125
1, 394452, Control_c, 0, 64, 104
1, 394452, Control_c, 0, 67, 127
1, 394467, Control_c, 0, 64, 81
1, 394482, Control_c, 0, 64, 65
1, 394497, Control_c, 0, 64, 41
1, 394519, Control_c, 0, 64, 54
1, 394533, Control_c, 0, 64, 64
1, 394548, Control_c, 0, 64, 70
1, 394563, Control_c, 0, 64, 76
1, 394578, Control_c, 0, 64, 83
1, 394581, Note_on_c, 0, 69, 51
1, 394589, Note_off_c, 0, 77, 52
1, 394593, Control_c, 0, 64, 90
1, 394595, Note_off_c, 0, 72, 58
1, 394607, Control_c, 0, 64, 95
1, 394614, Note_off_c, 0, 69, 64
1, 394622, Control_c, 0, 64, 98
1, 394637, Control_c, 0, 64, 100
1, 394652, Control_c, 0, 64, 100
1, 394667, Control_c, 0, 64, 101
1, 394756, Control_c, 0, 64, 100
1, 394771, Control_c, 0, 64, 100
1, 394786, Control_c, 0, 64, 99
1, 394801, Control_c, 0, 64, 97
1, 394815, Control_c, 0, 64, 95
1, 394830, Control_c, 0, 64, 92
1, 394845, Control_c, 0, 64, 90
1, 394850, Note_on_c, 0, 72, 45
1, 394860, Control_c, 0, 64, 87
1, 394875, Control_c, 0, 64, 83
1, 394878, Note_on_c, 0, 63, 24
1, 394880, Note_on_c, 0, 69, 31
1, 394889, Control_c, 0, 64, 79
1, 394904, Control_c, 0, 64, 73
1, 394919, Control_c, 0, 64, 65
1, 394933, Control_c, 0, 64, 51
1, 394948, Control_c, 0, 64, 0
1, 395011, Note_off_c, 0, 63, 54
1, 395030, Note_on_c, 0, 65, 37
1, 395067, Control_c, 0, 64, 50
1, 395084, Control_c, 0, 64, 63
1, 395099, Control_c, 0, 64, 67
1, 395113, Control_c, 0, 64, 70
1, 395128, Control_c, 0, 64, 73
1, 395143, Control_c, 0, 64, 75
1, 395157, Control_c, 0, 64, 76
1, 395166, Note_off_c, 0, 65, 42
1, 395168, Note_on_c, 0, 63, 38
1, 395172, Control_c, 0, 64, 76
1, 395187, Control_c, 0, 64, 77
1, 395269, Control_c, 0, 64, 76
1, 395299, Control_c, 0, 64, 76
1, 395299, Note_on_c, 0, 65, 37
1, 395300, Note_off_c, 0, 63, 58
1, 395306, Note_on_c, 0, 74, 60
1, 395313, Control_c, 0, 64, 75
1, 395328, Control_c, 0, 64, 74
1, 395343, Control_c, 0, 64, 73
1, 395352, Note_off_c, 0, 72, 53
1, 395357, Control_c, 0, 64, 72
1, 395372, Control_c, 0, 64, 70
1, 395387, Control_c, 0, 64, 68
1, 395402, Control_c, 0, 64, 67
1, 395417, Control_c, 0, 64, 67
1, 395431, Note_off_c, 0, 65, 56
1, 395431, Control_c, 0, 64, 66
1, 395446, Control_c, 0, 64, 66
1, 395451, Note_on_c, 0, 63, 39
1, 395453, Note_on_c, 0, 77, 62
1, 395459, Note_off_c, 0, 74, 60
1, 395461, Control_c, 0, 64, 65
1, 395476, Control_c, 0, 64, 65
1, 395490, Control_c, 0, 64, 64
1, 395520, Control_c, 0, 64, 64
1, 395550, Control_c, 0, 64, 63
1, 395556, Note_off_c, 0, 63, 59
1, 395577, Note_on_c, 0, 65, 41
1, 395579, Control_c, 0, 64, 63
1, 395590, Note_off_c, 0, 69, 37
1, 395592, Note_on_c, 0, 75, 69
1, 395609, Control_c, 0, 64, 62
1, 395624, Control_c, 0, 64, 62
1, 395653, Control_c, 0, 64, 61
1, 395660, Note_off_c, 0, 77, 59
1, 395683, Control_c, 0, 64, 61
1, 395698, Control_c, 0, 64, 60
1, 395699, Note_off_c, 0, 65, 58
1, 395721, Note_on_c, 0, 74, 74
1, 395725, Note_on_c, 0, 63, 37
1, 395728, Control_c, 0, 64, 60
1, 395757, Control_c, 0, 64, 59
1, 395772, Control_c, 0, 64, 59
1, 395787, Control_c, 0, 64, 58
1, 395802, Control_c, 0, 64, 58
1, 395806, Note_off_c, 0, 75, 40
1, 395817, Control_c, 0, 64, 57
1, 395818, Note_off_c, 0, 63, 60
1, 395831, Control_c, 0, 64, 56
1, 395844, Note_on_c, 0, 65, 38
1, 395845, Note_on_c, 0, 72, 71
1, 395861, Control_c, 0, 64, 55
1, 395870, Note_off_c, 0, 74, 60
1, 395877, Control_c, 0, 64, 54
1, 395892, Control_c, 0, 64, 53
1, 395907, Control_c, 0, 64, 53
1, 395921, Control_c, 0, 64, 51
1, 395936, Control_c, 0, 64, 51
1, 395951, Control_c, 0, 64, 50
1, 395966, Control_c, 0, 64, 50
1, 395972, Note_off_c, 0, 65, 54
1, 395980, Control_c, 0, 64, 49
1, 395984, Note_off_c, 0, 72, 61
1, 396006, Note_on_c, 0, 70, 59
1, 396008, Note_on_c, 0, 62, 43
1, 396032, Control_c, 0, 64, 49
1, 396115, Note_off_c, 0, 62, 59
1, 396142, Note_on_c, 0, 65, 44
1, 396188, Note_off_c, 0, 70, 50
1, 396264, Note_off_c, 0, 65, 54
1, 396292, Note_on_c, 0, 62, 42
1, 396300, Note_on_c, 0, 70, 63
1, 396399, Note_off_c, 0, 62, 59
1, 396414, Note_on_c, 0, 65, 48
1, 396432, Control_c, 0, 64, 49
1, 396447, Control_c, 0, 64, 50
1, 396461, Control_c, 0, 64, 50
1, 396472, Note_off_c, 0, 70, 58
1, 396476, Control_c, 0, 64, 51
1, 396491, Control_c, 0, 64, 51
1, 396506, Control_c, 0, 64, 52
1, 396550, Note_off_c, 0, 65, 58
1, 396576, Note_on_c, 0, 63, 47
1, 396577, Note_on_c, 0, 72, 50
1, 396581, Note_on_c, 0, 69, 36
1, 396623, Control_c, 0, 64, 52
1, 396638, Control_c, 0, 64, 53
1, 396668, Control_c, 0, 64, 53
1, 396695, Note_off_c, 0, 63, 61
1, 396709, Note_off_c, 0, 72, 59
1, 396715, Note_on_c, 0, 65, 42
1, 396726, Note_on_c, 0, 74, 63
1, 396837, Note_off_c, 0, 65, 58
1, 396856, Note_on_c, 0, 63, 43
1, 396869, Note_on_c, 0, 75, 67
1, 396870, Control_c, 0, 64, 54
1, 396879, Note_off_c, 0, 74, 61
1, 396914, Control_c, 0, 64, 54
1, 396943, Control_c, 0, 64, 55
1, 396950, Note_off_c, 0, 63, 59
1, 396958, Control_c, 0, 64, 55
1, 396983, Note_on_c, 0, 65, 38
1, 396983, Note_on_c, 0, 72, 69
1, 396988, Control_c, 0, 64, 56
1, 397002, Control_c, 0, 64, 56
1, 397017, Control_c, 0, 64, 57
1, 397025, Note_off_c, 0, 69, 52
1, 397032, Control_c, 0, 64, 58
1, 397047, Control_c, 0, 64, 59
1, 397062, Control_c, 0, 64, 60
1, 397076, Control_c, 0, 64, 60
1, 397081, Note_off_c, 0, 75, 38
1, 397086, Note_off_c, 0, 65, 57
1, 397102, Note_off_c, 0, 72, 62
1, 397117, Note_on_c, 0, 70, 59
1, 397121, Note_on_c, 0, 62, 40
1, 397135, Control_c, 0, 64, 58
1, 397145, Note_off_c, 0, 70, 66
1, 397150, Control_c, 0, 64, 52
1, 397165, Control_c, 0, 64, 24
1, 397180, Control_c, 0, 64, 0
1, 397268, Note_off_c, 0, 62, 54
1, 397269, Note_on_c, 0, 77, 69
1, 397284, Note_on_c, 0, 65, 37
1, 397328, Control_c, 0, 64, 58
1, 397343, Control_c, 0, 64, 66
1, 397358, Control_c, 0, 64, 72
1, 397373, Control_c, 0, 64, 77
1, 397388, Control_c, 0, 64, 83
1, 397394, Note_off_c, 0, 65, 58
1, 397402, Control_c, 0, 64, 87
1, 397415, Note_on_c, 0, 62, 41
1, 397417, Control_c, 0, 64, 89
1, 397432, Control_c, 0, 64, 90
1, 397444, Note_off_c, 0, 77, 63
1, 397446, Control_c, 0, 64, 91
1, 397528, Note_off_c, 0, 62, 58
1, 397554, Note_on_c, 0, 65, 44
1, 397554, Note_on_c, 0, 77, 75
1, 397588, Control_c, 0, 64, 91
1, 397603, Control_c, 0, 64, 90
1, 397618, Control_c, 0, 64, 89
1, 397633, Control_c, 0, 64, 89
1, 397648, Control_c, 0, 64, 87
1, 397663, Control_c, 0, 64, 86
1, 397677, Control_c, 0, 64, 85
1, 397692, Control_c, 0, 64, 83
1, 397694, Note_on_c, 0, 57, 56
1, 397696, Note_off_c, 0, 65, 57
1, 397707, Control_c, 0, 64, 81
1, 397722, Control_c, 0, 64, 80
1, 397737, Control_c, 0, 64, 78
1, 397751, Control_c, 0, 64, 76
1, 397766, Control_c, 0, 64, 75
1, 397781, Control_c, 0, 64, 73
1, 397796, Control_c, 0, 64, 72
1, 397811, Control_c, 0, 64, 70
1, 397826, Note_off_c, 0, 57, 60
1, 397826, Control_c, 0, 64, 69
1, 397832, Note_on_c, 0, 65, 52
1, 397841, Note_on_c, 0, 75, 75
1, 397841, Control_c, 0, 64, 68
1, 397856, Control_c, 0, 64, 67
1, 397871, Control_c, 0, 64, 66
1, 397885, Control_c, 0, 64, 65
1, 397915, Control_c, 0, 64, 65
1, 397931, Note_off_c, 0, 77, 42
1, 397955, Note_off_c, 0, 65, 56
1, 397959, Control_c, 0, 64, 64
1, 397961, Note_on_c, 0, 57, 48
1, 397975, Note_on_c, 0, 74, 77
1, 397981, Note_off_c, 0, 75, 64
1, 398075, Note_off_c, 0, 57, 61
1, 398089, Note_on_c, 0, 73, 77
1, 398092, Control_c, 0, 64, 64
1, 398095, Note_on_c, 0, 65, 48
1, 398103, Note_off_c, 0, 74, 60
1, 398148, Note_off_c, 0, 73, 62
1, 398181, Control_c, 0, 64, 63
1, 398210, Note_off_c, 0, 65, 48
1, 398211, Control_c, 0, 64, 63
1, 398226, Control_c, 0, 64, 62
1, 398235, Note_on_c, 0, 73, 57
1, 398239, Note_on_c, 0, 58, 47
1, 398241, Control_c, 0, 64, 62
1, 398263, Control_c, 0, 64, 61
1, 398279, Control_c, 0, 64, 60
1, 398294, Control_c, 0, 64, 56
1, 398308, Control_c, 0, 64, 44
1, 398323, Control_c, 0, 64, 0
1, 398376, Note_off_c, 0, 58, 61
1, 398387, Note_on_c, 0, 65, 37
1, 398482, Note_off_c, 0, 65, 54
1, 398523, Note_on_c, 0, 58, 41
1, 398590, Control_c, 0, 64, 37
1, 398605, Control_c, 0, 64, 62
1, 398619, Control_c, 0, 64, 68
1, 398634, Control_c, 0, 64, 73
1, 398648, Note_off_c, 0, 58, 59
1, 398649, Control_c, 0, 64, 78
1, 398650, Note_off_c, 0, 73, 60
1, 398662, Note_on_c, 0, 74, 53
1, 398664, Control_c, 0, 64, 83
1, 398674, Note_on_c, 0, 65, 44
1, 398679, Control_c, 0, 64, 87
1, 398685, Note_off_c, 0, 74, 64
1, 398693, Control_c, 0, 64, 90
1, 398708, Control_c, 0, 64, 92
1, 398723, Control_c, 0, 64, 94
1, 398753, Control_c, 0, 64, 94
1, 398813, Control_c, 0, 64, 94
1, 398848, Note_on_c, 0, 84, 60
1, 398849, Note_on_c, 0, 58, 42
1, 398852, Note_off_c, 0, 65, 43
1, 398857, Control_c, 0, 64, 93
1, 398872, Control_c, 0, 64, 92
1, 398887, Control_c, 0, 64, 90
1, 398901, Control_c, 0, 64, 88
1, 398916, Control_c, 0, 64, 86
1, 398931, Control_c, 0, 64, 83
1, 398946, Control_c, 0, 64, 80
1, 398961, Control_c, 0, 64, 77
1, 398975, Control_c, 0, 64, 74
1, 398990, Control_c, 0, 64, 71
1, 399001, Note_on_c, 0, 82, 78
1, 399008, Note_on_c, 0, 62, 50
1, 399013, Control_c, 0, 64, 69
1, 399028, Control_c, 0, 64, 67
1, 399043, Control_c, 0, 64, 66
1, 399057, Control_c, 0, 64, 65
1, 399072, Control_c, 0, 64, 65
1, 399087, Control_c, 0, 64, 64
1, 399091, Note_off_c, 0, 84, 50
1, 399099, Note_off_c, 0, 62, 58
1, 399102, Control_c, 0, 64, 64
1, 399132, Control_c, 0, 64, 63
1, 399139, Note_on_c, 0, 67, 45
1, 399139, Note_on_c, 0, 81, 84
1, 399147, Control_c, 0, 64, 63
1, 399177, Control_c, 0, 64, 62
1, 399192, Control_c, 0, 64, 62
1, 399205, Note_off_c, 0, 82, 49
1, 399206, Control_c, 0, 64, 61
1, 399221, Control_c, 0, 64, 61
1, 399236, Control_c, 0, 64, 60
1, 399249, Note_off_c, 0, 58, 61
1, 399266, Note_off_c, 0, 81, 66
1, 399266, Control_c, 0, 64, 60
1, 399273, Note_on_c, 0, 79, 84
1, 399276, Note_on_c, 0, 62, 44
1, 399295, Control_c, 0, 64, 59
1, 399324, Control_c, 0, 64, 59
1, 399354, Control_c, 0, 64, 58
1, 399368, Note_off_c, 0, 67, 28
1, 399408, Note_on_c, 0, 77, 68
1, 399412, Note_off_c, 0, 62, 50
1, 399424, Note_on_c, 0, 58, 44
1, 399428, Control_c, 0, 64, 58
1, 399433, Note_off_c, 0, 79, 60
1, 399443, Control_c, 0, 64, 57
1, 399457, Control_c, 0, 64, 56
1, 399472, Control_c, 0, 64, 55
1, 399487, Control_c, 0, 64, 54
1, 399502, Control_c, 0, 64, 53
1, 399517, Control_c, 0, 64, 49
1, 399532, Control_c, 0, 64, 43
1, 399546, Control_c, 0, 64, 32
1, 399547, Note_on_c, 0, 60, 49
1, 399561, Control_c, 0, 64, 19
1, 399576, Control_c, 0, 64, 14
1, 399591, Control_c, 0, 64, 17
1, 399606, Control_c, 0, 64, 31
1, 399621, Control_c, 0, 64, 50
1, 399636, Control_c, 0, 64, 62
1, 399650, Control_c, 0, 64, 66
1, 399665, Control_c, 0, 64, 69
1, 399676, Note_off_c, 0, 60, 62
1, 399680, Control_c, 0, 64, 70
1, 399694, Note_on_c, 0, 67, 46
1, 399695, Control_c, 0, 64, 71
1, 399710, Control_c, 0, 64, 73
1, 399724, Control_c, 0, 64, 74
1, 399739, Control_c, 0, 64, 74
1, 399761, Control_c, 0, 64, 75
1, 399806, Control_c, 0, 64, 75
1, 399807, Note_off_c, 0, 58, 56
1, 399825, Note_on_c, 0, 60, 43
1, 399827, Note_on_c, 0, 76, 67
1, 399836, Control_c, 0, 64, 76
1, 399851, Control_c, 0, 64, 77
1, 399851, Note_off_c, 0, 77, 61
1, 399865, Control_c, 0, 64, 77
1, 399868, Note_off_c, 0, 76, 61
1, 399881, Control_c, 0, 64, 78
1, 399895, Note_off_c, 0, 67, 27
1, 399940, Note_off_c, 0, 60, 59
1, 399940, Control_c, 0, 64, 76
1, 399955, Control_c, 0, 64, 71
1, 399958, Note_on_c, 0, 74, 76
1, 399966, Note_on_c, 0, 58, 50
1, 399970, Control_c, 0, 64, 65
1, 399985, Note_off_c, 0, 74, 63
1, 399985, Control_c, 0, 64, 50
1, 400000, Control_c, 0, 64, 14
1, 400014, Control_c, 0, 64, 0
1, 400089, Note_on_c, 0, 72, 73
1, 400107, Note_on_c, 0, 60, 39
1, 400123, Note_off_c, 0, 72, 60
1, 400215, Note_off_c, 0, 60, 55
1, 400226, Note_on_c, 0, 67, 43
1, 400226, Note_on_c, 0, 74, 72
1, 400250, Note_off_c, 0, 74, 69
1, 400342, Note_off_c, 0, 58, 58
1, 400348, Note_on_c, 0, 76, 70
1, 400362, Note_on_c, 0, 60, 44
1, 400363, Note_off_c, 0, 67, 49
1, 400374, Note_off_c, 0, 76, 67
1, 400428, Control_c, 0, 64, 14
1, 400443, Control_c, 0, 64, 17
1, 400458, Control_c, 0, 64, 19
1, 400472, Note_off_c, 0, 60, 63
1, 400509, Control_c, 0, 64, 21
1, 400515, Note_on_c, 0, 77, 51
1, 400518, Note_on_c, 0, 57, 38
1, 400539, Control_c, 0, 64, 23
1, 400554, Control_c, 0, 64, 27
1, 400569, Control_c, 0, 64, 29
1, 400584, Control_c, 0, 64, 30
1, 400599, Control_c, 0, 64, 31
1, 400623, Note_off_c, 0, 57, 60
1, 400643, Control_c, 0, 64, 30
1, 400643, Note_off_c, 0, 77, 63
1, 400649, Note_on_c, 0, 60, 43
1, 400658, Control_c, 0, 64, 28
1, 400673, Control_c, 0, 64, 26
1, 400688, Control_c, 0, 64, 23
1, 400703, Control_c, 0, 64, 19
1, 400718, Control_c, 0, 64, 14
1, 400748, Control_c, 0, 64, 11
1, 400774, Note_off_c, 0, 60, 57
1, 400793, Note_on_c, 0, 57, 46
1, 400889, Note_off_c, 0, 57, 62
1, 400918, Note_on_c, 0, 81, 61
1, 400920, Note_on_c, 0, 53, 54
1, 400925, Control_c, 0, 64, 14
1, 400955, Control_c, 0, 64, 17
1, 401036, Note_off_c, 0, 53, 64
1, 401054, Note_on_c, 0, 48, 56
1, 401058, Control_c, 0, 64, 19
1, 401061, Note_on_c, 0, 77, 69
1, 401153, Note_off_c, 0, 48, 57
1, 401189, Note_off_c, 0, 81, 50
1, 401192, Control_c, 0, 64, 21
1, 401196, Note_on_c, 0, 60, 57
1, 401213, Note_off_c, 0, 77, 64
1, 401258, Control_c, 0, 64, 23
1, 401288, Control_c, 0, 64, 24
1, 401302, Control_c, 0, 64, 26
1, 401317, Control_c, 0, 64, 27
1, 401330, Note_on_c, 0, 57, 60
1, 401332, Control_c, 0, 64, 28
1, 401335, Note_off_c, 0, 60, 59
1, 401347, Control_c, 0, 64, 29
1, 401377, Control_c, 0, 64, 30
1, 401421, Control_c, 0, 64, 31
1, 401429, Note_off_c, 0, 57, 62
1, 401453, Note_on_c, 0, 53, 54
1, 401463, Note_on_c, 0, 81, 73
1, 401571, Control_c, 0, 64, 32
1, 401579, Note_off_c, 0, 53, 65
1, 401597, Note_on_c, 0, 48, 61
1, 401605, Note_on_c, 0, 77, 76
1, 401678, Note_off_c, 0, 48, 55
1, 401728, Note_on_c, 0, 60, 62
1, 401741, Note_off_c, 0, 81, 60
1, 401760, Note_off_c, 0, 77, 64
1, 401794, Control_c, 0, 64, 33
1, 401823, Control_c, 0, 64, 34
1, 401838, Control_c, 0, 64, 36
1, 401851, Note_off_c, 0, 60, 59
1, 401852, Control_c, 0, 64, 37
1, 401863, Note_on_c, 0, 57, 54
1, 401867, Control_c, 0, 64, 38
1, 401882, Control_c, 0, 64, 38
1, 401897, Control_c, 0, 64, 39
1, 401941, Control_c, 0, 64, 40
1, 401961, Note_off_c, 0, 57, 61
1, 401999, Note_on_c, 0, 81, 57
1, 402003, Note_on_c, 0, 53, 46
1, 402052, Control_c, 0, 64, 40
1, 402082, Control_c, 0, 64, 41
1, 402097, Control_c, 0, 64, 42
1, 402112, Control_c, 0, 64, 42
1, 402119, Note_off_c, 0, 53, 57
1, 402126, Control_c, 0, 64, 43
1, 402132, Note_on_c, 0, 77, 65
1, 402141, Control_c, 0, 64, 43
1, 402143, Note_on_c, 0, 48, 43
1, 402156, Control_c, 0, 64, 44
1, 402163, Note_off_c, 0, 81, 50
1, 402186, Control_c, 0, 64, 44
1, 402200, Control_c, 0, 64, 45
1, 402215, Control_c, 0, 64, 45
1, 402230, Control_c, 0, 64, 46
1, 402244, Control_c, 0, 64, 46
1, 402265, Note_on_c, 0, 72, 68
1, 402290, Control_c, 0, 64, 47
1, 402319, Note_off_c, 0, 77, 58
1, 402370, Note_off_c, 0, 72, 65
1, 402387, Note_on_c, 0, 69, 72
1, 402423, Control_c, 0, 64, 47
1, 402519, Note_on_c, 0, 70, 71
1, 402537, Note_off_c, 0, 69, 53
1, 402653, Note_on_c, 0, 71, 76
1, 402691, Note_off_c, 0, 70, 60
1, 402782, Note_on_c, 0, 74, 72
1, 402797, Note_off_c, 0, 71, 63
1, 402817, Control_c, 0, 64, 48
1, 402927, Note_on_c, 0, 72, 70
1, 402972, Note_off_c, 0, 74, 60
1, 402979, Note_off_c, 0, 48, 52
1, 403055, Note_on_c, 0, 69, 67
1, 403084, Control_c, 0, 64, 48
1, 403092, Note_off_c, 0, 72, 53
1, 403098, Control_c, 0, 64, 49
1, 403128, Control_c, 0, 64, 49
1, 403143, Control_c, 0, 64, 50
1, 403189, Note_off_c, 0, 69, 61
1, 403218, Note_on_c, 0, 65, 61
1, 403395, Control_c, 0, 64, 48
1, 403410, Control_c, 0, 64, 43
1, 403425, Control_c, 0, 64, 11
1, 403439, Control_c, 0, 64, 0
1, 403509, Note_off_c, 0, 65, 57
1, 403510, Note_on_c, 0, 69, 52
1, 403524, Note_on_c, 0, 48, 45
1, 403527, Note_on_c, 0, 58, 49
1, 403531, Note_on_c, 0, 64, 48
1, 403560, Note_off_c, 0, 58, 64
1, 403565, Control_c, 0, 64, 60
1, 403577, Note_off_c, 0, 48, 62
1, 403580, Control_c, 0, 64, 71
1, 403595, Control_c, 0, 64, 81
1, 403609, Control_c, 0, 64, 93
1, 403624, Control_c, 0, 64, 107
1, 403639, Control_c, 0, 64, 127
1, 403652, Note_off_c, 0, 64, 56
1, 403666, Note_on_c, 0, 67, 62
1, 403702, Note_off_c, 0, 69, 33
1, 403787, Control_c, 0, 64, 103
1, 403797, Note_on_c, 0, 41, 63
1, 403802, Control_c, 0, 64, 78
1, 403810, Note_off_c, 0, 67, 54
1, 403811, Note_on_c, 0, 65, 53
1, 403815, Note_on_c, 0, 57, 52
1, 403816, Control_c, 0, 64, 52
1, 403823, Note_off_c, 0, 41, 58
1, 403831, Control_c, 0, 64, 0
1, 403936, Control_c, 0, 64, 11
1, 403938, Note_on_c, 0, 53, 63
1, 403951, Control_c, 0, 64, 28
1, 403953, Note_off_c, 0, 57, 56
1, 403966, Control_c, 0, 64, 37
1, 403968, Note_off_c, 0, 53, 67
1, 403981, Control_c, 0, 64, 43
1, 403995, Control_c, 0, 64, 47
1, 403996, Note_off_c, 0, 65, 63
1, 404010, Control_c, 0, 64, 48
1, 404025, Control_c, 0, 64, 42
1, 404039, Control_c, 0, 64, 0
1, 404075, Note_on_c, 0, 41, 59
1, 404103, Note_off_c, 0, 41, 57
1, 404205, Note_on_c, 0, 53, 61
1, 404219, Note_on_c, 0, 65, 58
1, 404221, Note_on_c, 0, 69, 60
1, 404233, Note_off_c, 0, 53, 67
1, 404331, Note_off_c, 0, 65, 60
1, 404331, Note_off_c, 0, 69, 59
1, 404352, Note_on_c, 0, 41, 53
1, 404352, Note_on_c, 0, 67, 58
1, 404373, Note_off_c, 0, 67, 63
1, 404382, Note_off_c, 0, 41, 54
1, 404438, Poly_aftertouch_c, 0, 64, 0
1, 404483, Note_on_c, 0, 53, 59
1, 404489, Note_on_c, 0, 67, 56
1, 404511, Note_off_c, 0, 67, 60
1, 404512, Note_on_c, 0, 64, 26
1, 404512, Note_off_c, 0, 53, 66
1, 404552, Note_off_c, 0, 64, 29
1, 404605, Note_on_c, 0, 41, 69
1, 404611, Note_on_c, 0, 67, 64
1, 404630, Note_off_c, 0, 41, 62
1, 404635, Note_on_c, 0, 64, 42
1, 404638, Note_off_c, 0, 67, 63
1, 404665, Note_off_c, 0, 64, 56
1, 404738, Note_on_c, 0, 67, 59
1, 404745, Note_on_c, 0, 70, 66
1, 404749, Note_on_c, 0, 53, 57
1, 404774, Note_off_c, 0, 53, 64
1, 404869, Note_off_c, 0, 67, 59
1, 404876, Note_on_c, 0, 69, 67
1, 404884, Note_on_c, 0, 41, 57
1, 404889, Note_on_c, 0, 65, 55
1, 404903, Note_off_c, 0, 70, 43
1, 404912, Note_off_c, 0, 41, 57
1, 404999, Note_off_c, 0, 65, 61
1, 405016, Note_on_c, 0, 53, 61
1, 405019, Note_off_c, 0, 69, 61
1, 405046, Note_off_c, 0, 53, 67
1, 405063, Control_c, 0, 64, 29
1, 405077, Control_c, 0, 64, 36
1, 405092, Control_c, 0, 64, 37
1, 405107, Control_c, 0, 64, 0
1, 405146, Note_on_c, 0, 41, 74
1, 405175, Note_off_c, 0, 41, 64
1, 405289, Note_on_c, 0, 53, 67
1, 405292, Note_on_c, 0, 69, 73
1, 405292, Note_on_c, 0, 72, 74
1, 405320, Note_off_c, 0, 53, 66
1, 405404, Note_off_c, 0, 69, 60
1, 405405, Note_off_c, 0, 72, 59
1, 405416, Note_on_c, 0, 70, 69
1, 405420, Note_on_c, 0, 41, 60
1, 405424, Note_on_c, 0, 67, 51
1, 405439, Note_off_c, 0, 70, 69
1, 405447, Note_off_c, 0, 41, 57
1, 405448, Note_off_c, 0, 67, 59
1, 405544, Note_on_c, 0, 67, 68
1, 405547, Note_on_c, 0, 70, 74
1, 405553, Note_on_c, 0, 53, 62
1, 405568, Note_off_c, 0, 70, 70
1, 405568, Note_off_c, 0, 67, 67
1, 405580, Note_off_c, 0, 53, 67
1, 405582, Control_c, 0, 64, 21
1, 405597, Control_c, 0, 64, 29
1, 405627, Control_c, 0, 64, 0
1, 405672, Note_on_c, 0, 41, 71
1, 405675, Note_on_c, 0, 67, 67
1, 405676, Note_on_c, 0, 70, 72
1, 405697, Note_off_c, 0, 70, 70
1, 405699, Note_off_c, 0, 67, 67
1, 405700, Note_off_c, 0, 41, 64
1, 405817, Note_on_c, 0, 53, 61
1, 405817, Note_on_c, 0, 70, 69
1, 405817, Note_on_c, 0, 74, 71
1, 405845, Note_off_c, 0, 53, 67
1, 405946, Note_on_c, 0, 41, 70
1, 405947, Note_on_c, 0, 72, 72
1, 405954, Note_on_c, 0, 69, 67
1, 405955, Note_off_c, 0, 70, 56
1, 405969, Note_off_c, 0, 74, 59
1, 405976, Note_off_c, 0, 41, 64
1, 406038, Note_off_c, 0, 69, 60
1, 406076, Note_on_c, 0, 53, 71
1, 406077, Note_off_c, 0, 72, 65
1, 406105, Note_off_c, 0, 53, 67
1, 406202, Note_on_c, 0, 41, 79
1, 406232, Note_off_c, 0, 41, 65
1, 406256, Control_c, 0, 67, 122
1, 406271, Control_c, 0, 67, 115
1, 406286, Control_c, 0, 67, 107
1, 406301, Control_c, 0, 67, 100
1, 406315, Control_c, 0, 67, 94
1, 406330, Control_c, 0, 67, 89
1, 406340, Note_on_c, 0, 81, 85
1, 406342, Note_on_c, 0, 77, 82
1, 406345, Control_c, 0, 67, 85
1, 406346, Note_on_c, 0, 53, 61
1, 406360, Control_c, 0, 67, 83
1, 406375, Control_c, 0, 67, 82
1, 406376, Note_off_c, 0, 53, 67
1, 406419, Control_c, 0, 67, 82
1, 406433, Control_c, 0, 67, 84
1, 406448, Control_c, 0, 67, 85
1, 406463, Control_c, 0, 67, 86
1, 406464, Note_off_c, 0, 77, 61
1, 406465, Note_off_c, 0, 81, 62
1, 406471, Note_on_c, 0, 41, 65
1, 406472, Note_on_c, 0, 79, 67
1, 406476, Note_on_c, 0, 76, 62
1, 406478, Control_c, 0, 67, 87
1, 406501, Control_c, 0, 67, 87
1, 406503, Note_off_c, 0, 79, 68
1, 406504, Note_off_c, 0, 41, 61
1, 406511, Note_off_c, 0, 76, 65
1, 406515, Control_c, 0, 67, 88
1, 406530, Control_c, 0, 67, 88
1, 406560, Control_c, 0, 64, 11
1, 406560, Control_c, 0, 67, 89
1, 406589, Control_c, 0, 64, 14
1, 406605, Note_on_c, 0, 76, 72
1, 406605, Note_on_c, 0, 79, 83
1, 406614, Note_on_c, 0, 53, 65
1, 406628, Note_off_c, 0, 79, 65
1, 406630, Note_off_c, 0, 76, 67
1, 406634, Control_c, 0, 67, 88
1, 406641, Note_off_c, 0, 53, 67
1, 406663, Control_c, 0, 67, 88
1, 406678, Control_c, 0, 67, 87
1, 406693, Control_c, 0, 67, 87
1, 406733, Note_on_c, 0, 41, 79
1, 406740, Note_on_c, 0, 76, 78
1, 406742, Note_on_c, 0, 79, 87
1, 406763, Note_off_c, 0, 79, 67
1, 406763, Note_off_c, 0, 41, 65
1, 406763, Note_off_c, 0, 76, 68
1, 406767, Control_c, 0, 64, 17
1, 406782, Control_c, 0, 67, 87
1, 406796, Control_c, 0, 64, 23
1, 406811, Control_c, 0, 64, 24
1, 406811, Control_c, 0, 67, 88
1, 406866, Note_on_c, 0, 79, 96
1, 406871, Note_on_c, 0, 82, 88
1, 406877, Note_on_c, 0, 53, 74
1, 406909, Note_off_c, 0, 53, 67
1, 406915, Control_c, 0, 67, 88
1, 406960, Control_c, 0, 67, 89
1, 406989, Control_c, 0, 67, 89
1, 406993, Note_on_c, 0, 81, 80
1, 406995, Note_off_c, 0, 79, 60
1, 407002, Note_on_c, 0, 41, 76
1, 407005, Note_off_c, 0, 82, 63
1, 407006, Note_on_c, 0, 77, 63
1, 407026, Note_off_c, 0, 81, 65
1, 407031, Note_off_c, 0, 77, 68
1, 407032, Note_off_c, 0, 41, 63
1, 407032, Control_c, 0, 64, 21
1, 407047, Control_c, 0, 64, 11
1, 407063, Control_c, 0, 64, 0
1, 407130, Note_on_c, 0, 77, 79
1, 407130, Note_on_c, 0, 81, 86
1, 407136, Note_on_c, 0, 53, 73
1, 407137, Control_c, 0, 67, 89
1, 407157, Note_off_c, 0, 81, 62
1, 407163, Note_off_c, 0, 77, 60
1, 407167, Control_c, 0, 67, 88
1, 407169, Note_off_c, 0, 53, 67
1, 407264, Control_c, 0, 64, 14
1, 407267, Note_on_c, 0, 41, 82
1, 407270, Note_on_c, 0, 81, 90
1, 407271, Note_on_c, 0, 77, 79
1, 407278, Control_c, 0, 64, 17
1, 407292, Note_off_c, 0, 77, 69
1, 407293, Control_c, 0, 64, 19
1, 407297, Note_off_c, 0, 41, 66
1, 407297, Note_off_c, 0, 81, 65
1, 407308, Control_c, 0, 64, 21
1, 407397, Control_c, 0, 64, 19
1, 407404, Note_on_c, 0, 81, 91
1, 407406, Note_on_c, 0, 53, 78
1, 407407, Note_on_c, 0, 84, 84
1, 407426, Control_c, 0, 64, 17
1, 407441, Control_c, 0, 64, 14
1, 407444, Note_off_c, 0, 53, 62
1, 407528, Note_on_c, 0, 82, 85
1, 407530, Note_off_c, 0, 81, 63
1, 407531, Note_off_c, 0, 84, 63
1, 407532, Note_on_c, 0, 41, 81
1, 407532, Note_on_c, 0, 79, 73
1, 407556, Note_off_c, 0, 79, 66
1, 407562, Note_off_c, 0, 41, 64
1, 407563, Note_off_c, 0, 82, 65
1, 407604, Control_c, 0, 64, 17
1, 407619, Control_c, 0, 64, 19
1, 407634, Control_c, 0, 64, 21
1, 407634, Control_c, 0, 67, 89
1, 407649, Control_c, 0, 64, 24
1, 407656, Note_on_c, 0, 79, 85
1, 407658, Note_on_c, 0, 82, 91
1, 407663, Note_on_c, 0, 53, 77
1, 407678, Control_c, 0, 64, 26
1, 407684, Note_off_c, 0, 79, 63
1, 407686, Note_off_c, 0, 82, 64
1, 407694, Note_off_c, 0, 53, 66
1, 407767, Control_c, 0, 64, 27
1, 407782, Control_c, 0, 64, 29
1, 407786, Note_on_c, 0, 41, 80
1, 407787, Note_on_c, 0, 82, 90
1, 407789, Note_on_c, 0, 79, 80
1, 407797, Control_c, 0, 64, 31
1, 407809, Note_off_c, 0, 79, 69
1, 407812, Control_c, 0, 64, 33
1, 407815, Note_off_c, 0, 82, 65
1, 407816, Note_off_c, 0, 41, 65
1, 407827, Control_c, 0, 64, 36
1, 407842, Control_c, 0, 64, 38
1, 407857, Control_c, 0, 64, 40
1, 407872, Control_c, 0, 64, 42
1, 407887, Control_c, 0, 64, 43
1, 407902, Control_c, 0, 64, 43
1, 407923, Note_on_c, 0, 82, 90
1, 407923, Note_on_c, 0, 86, 86
1, 407926, Note_on_c, 0, 53, 77
1, 407932, Control_c, 0, 64, 43
1, 407947, Control_c, 0, 64, 36
1, 407947, Control_c, 0, 67, 89
1, 407957, Note_off_c, 0, 53, 67
1, 407961, Control_c, 0, 64, 14
1, 407976, Control_c, 0, 64, 0
1, 408059, Note_on_c, 0, 81, 80
1, 408065, Note_on_c, 0, 41, 79
1, 408066, Note_on_c, 0, 84, 83
1, 408086, Note_off_c, 0, 82, 63
1, 408096, Note_off_c, 0, 41, 66
1, 408102, Note_off_c, 0, 86, 64
1, 408102, Control_c, 0, 67, 89
1, 408117, Control_c, 0, 67, 88
1, 408131, Control_c, 0, 67, 86
1, 408146, Control_c, 0, 67, 81
1, 408161, Control_c, 0, 64, 30
1, 408161, Control_c, 0, 67, 77
1, 408176, Control_c, 0, 64, 41
1, 408176, Control_c, 0, 67, 66
1, 408191, Control_c, 0, 64, 47
1, 408191, Control_c, 0, 67, 52
1, 408194, Note_on_c, 0, 53, 83
1, 408206, Control_c, 0, 64, 52
1, 408206, Control_c, 0, 67, 39
1, 408220, Control_c, 0, 64, 54
1, 408220, Control_c, 0, 67, 27
1, 408235, Control_c, 0, 64, 57
1, 408235, Control_c, 0, 67, 18
1, 408239, Note_off_c, 0, 53, 63
1, 408250, Control_c, 0, 64, 60
1, 408250, Control_c, 0, 67, 10
1, 408265, Control_c, 0, 64, 62
1, 408265, Control_c, 0, 67, 0
1, 408273, Note_off_c, 0, 81, 61
1, 408280, Control_c, 0, 64, 63
1, 408294, Control_c, 0, 64, 64
1, 408303, Note_off_c, 0, 84, 64
1, 408309, Control_c, 0, 64, 65
1, 408323, Note_on_c, 0, 41, 90
1, 408324, Control_c, 0, 64, 67
1, 408339, Control_c, 0, 64, 68
1, 408350, Note_off_c, 0, 41, 67
1, 408354, Control_c, 0, 64, 69
1, 408368, Control_c, 0, 64, 70
1, 408383, Control_c, 0, 64, 71
1, 408383, Control_c, 0, 67, 8
1, 408398, Control_c, 0, 64, 72
1, 408398, Control_c, 0, 67, 8
1, 408412, Control_c, 0, 64, 73
1, 408412, Control_c, 0, 67, 9
1, 408427, Control_c, 0, 64, 72
1, 408427, Control_c, 0, 67, 9
1, 408442, Control_c, 0, 64, 68
1, 408442, Control_c, 0, 67, 10
1, 408457, Control_c, 0, 64, 54
1, 408457, Control_c, 0, 67, 10
1, 408462, Note_on_c, 0, 84, 90
1, 408465, Note_on_c, 0, 81, 77
1, 408472, Control_c, 0, 64, 0
1, 408472, Control_c, 0, 67, 11
1, 408486, Control_c, 0, 67, 11
1, 408487, Note_off_c, 0, 81, 66
1, 408488, Note_off_c, 0, 84, 66
1, 408516, Control_c, 0, 67, 12
1, 408531, Control_c, 0, 67, 12
1, 408546, Control_c, 0, 67, 13
1, 408576, Control_c, 0, 67, 13
1, 408599, Note_on_c, 0, 81, 83
1, 408599, Note_on_c, 0, 84, 95
1, 408650, Control_c, 0, 64, 32
1, 408650, Control_c, 0, 67, 14
1, 408665, Control_c, 0, 64, 70
1, 408680, Control_c, 0, 64, 81
1, 408695, Control_c, 0, 64, 116
1, 408710, Control_c, 0, 64, 127
1, 408724, Note_off_c, 0, 84, 65
1, 408725, Control_c, 0, 67, 14
1, 408740, Note_on_c, 0, 89, 92
1, 408756, Note_off_c, 0, 81, 63
1, 408762, Control_c, 0, 67, 14
1, 408776, Note_off_c, 0, 89, 61
1, 408873, Note_on_c, 0, 89, 101
1, 408877, Note_on_c, 0, 81, 89
1, 408901, Note_off_c, 0, 81, 63
1, 408907, Note_off_c, 0, 89, 67
1, 409005, Note_on_c, 0, 89, 100
1, 409006, Note_on_c, 0, 81, 92
1, 409038, Note_off_c, 0, 89, 66
1, 409041, Note_off_c, 0, 81, 60
1, 409058, Control_c, 0, 67, 15
1, 409073, Control_c, 0, 67, 15
1, 409088, Control_c, 0, 67, 16
1, 409103, Control_c, 0, 67, 17
1, 409117, Control_c, 0, 67, 20
1, 409132, Control_c, 0, 67, 24
1, 409134, Note_on_c, 0, 89, 101
1, 409138, Note_on_c, 0, 81, 90
1, 409147, Control_c, 0, 67, 31
1, 409162, Control_c, 0, 67, 37
1, 409177, Control_c, 0, 67, 45
1, 409191, Control_c, 0, 67, 53
1, 409206, Control_c, 0, 67, 64
1, 409221, Control_c, 0, 67, 73
1, 409235, Control_c, 0, 67, 80
1, 409250, Control_c, 0, 67, 87
1, 409265, Note_on_c, 0, 84, 87
1, 409265, Control_c, 0, 67, 93
1, 409280, Note_off_c, 0, 81, 63
1, 409280, Control_c, 0, 67, 98
1, 409295, Control_c, 0, 67, 102
1, 409300, Note_off_c, 0, 89, 62
1, 409304, Note_off_c, 0, 84, 67
1, 409309, Control_c, 0, 67, 107
1, 409324, Control_c, 0, 67, 111
1, 409339, Control_c, 0, 67, 115
1, 409354, Control_c, 0, 67, 118
1, 409369, Control_c, 0, 67, 122
1, 409383, Control_c, 0, 67, 126
1, 409393, Note_on_c, 0, 81, 83
1, 409398, Note_on_c, 0, 84, 79
1, 409398, Control_c, 0, 67, 127
1, 409413, Control_c, 0, 64, 106
1, 409428, Control_c, 0, 64, 88
1, 409443, Control_c, 0, 64, 80
1, 409458, Control_c, 0, 64, 79
1, 409473, Control_c, 0, 64, 82
1, 409496, Control_c, 0, 64, 89
1, 409510, Note_off_c, 0, 84, 64
1, 409511, Control_c, 0, 64, 103
1, 409516, Note_off_c, 0, 81, 64
1, 409526, Control_c, 0, 64, 127
1, 409528, Note_on_c, 0, 77, 76
1, 409573, Note_off_c, 0, 77, 63
1, 409672, Note_on_c, 0, 81, 38
1, 409673, Control_c, 0, 64, 103
1, 409676, Note_on_c, 0, 77, 54
1, 409688, Control_c, 0, 64, 79
1, 409703, Control_c, 0, 64, 62
1, 409704, Note_off_c, 0, 81, 0
1, 409704, Note_on_c, 0, 81, 5
1, 409718, Control_c, 0, 64, 0
1, 409732, Control_c, 0, 64, 43
1, 409747, Control_c, 0, 64, 63
1, 409753, Note_off_c, 0, 81, 60
1, 409762, Control_c, 0, 64, 69
1, 409770, Note_off_c, 0, 77, 63
1, 409777, Control_c, 0, 64, 76
1, 409781, Note_on_c, 0, 72, 63
1, 409792, Control_c, 0, 64, 84
1, 409807, Control_c, 0, 64, 93
1, 409808, Note_off_c, 0, 72, 65
1, 409822, Control_c, 0, 64, 99
1, 409837, Control_c, 0, 64, 102
1, 409851, Control_c, 0, 64, 103
1, 409866, Control_c, 0, 64, 104
1, 409923, Note_on_c, 0, 72, 57
1, 409925, Note_on_c, 0, 77, 59
1, 409940, Control_c, 0, 64, 101
1, 409955, Control_c, 0, 64, 97
1, 409970, Control_c, 0, 64, 92
1, 409984, Control_c, 0, 64, 90
1, 409999, Control_c, 0, 64, 89
1, 410040, Note_off_c, 0, 77, 56
1, 410048, Note_off_c, 0, 72, 60
1, 410048, Note_on_c, 0, 69, 52
1, 410073, Control_c, 0, 64, 90
1, 410081, Note_off_c, 0, 69, 64
1, 410088, Control_c, 0, 64, 91
1, 410118, Control_c, 0, 64, 91
1, 410275, Control_c, 0, 64, 91
1, 410302, Note_on_c, 0, 72, 48
1, 410304, Control_c, 0, 64, 90
1, 410314, Note_on_c, 0, 63, 23
1, 410319, Control_c, 0, 64, 88
1, 410325, Note_on_c, 0, 69, 41
1, 410334, Control_c, 0, 64, 83
1, 410349, Control_c, 0, 64, 76
1, 410363, Control_c, 0, 64, 67
1, 410378, Control_c, 0, 64, 40
1, 410393, Control_c, 0, 64, 0
1, 410474, Note_off_c, 0, 63, 52
1, 410477, Note_on_c, 0, 65, 40
1, 410496, Control_c, 0, 64, 47
1, 410511, Control_c, 0, 64, 63
1, 410526, Control_c, 0, 64, 66
1, 410541, Control_c, 0, 64, 69
1, 410555, Control_c, 0, 64, 72
1, 410570, Control_c, 0, 64, 74
1, 410585, Control_c, 0, 64, 77
1, 410600, Control_c, 0, 64, 78
1, 410603, Note_off_c, 0, 65, 50
1, 410614, Note_on_c, 0, 63, 43
1, 410615, Control_c, 0, 64, 79
1, 410629, Control_c, 0, 64, 80
1, 410644, Control_c, 0, 64, 81
1, 410674, Control_c, 0, 64, 81
1, 410739, Note_off_c, 0, 63, 58
1, 410744, Note_on_c, 0, 65, 43
1, 410747, Note_on_c, 0, 74, 62
1, 410749, Control_c, 0, 64, 81
1, 410763, Control_c, 0, 64, 80
1, 410777, Control_c, 0, 64, 80
1, 410792, Control_c, 0, 64, 78
1, 410801, Note_off_c, 0, 72, 48
1, 410806, Control_c, 0, 64, 77
1, 410821, Control_c, 0, 64, 75
1, 410836, Control_c, 0, 64, 72
1, 410851, Control_c, 0, 64, 68
1, 410866, Control_c, 0, 64, 65
1, 410871, Note_off_c, 0, 65, 55
1, 410880, Note_on_c, 0, 63, 43
1, 410880, Control_c, 0, 64, 64
1, 410882, Note_on_c, 0, 77, 61
1, 410896, Note_off_c, 0, 74, 60
1, 410910, Control_c, 0, 64, 64
1, 410925, Control_c, 0, 64, 63
1, 410940, Control_c, 0, 64, 63
1, 410954, Note_off_c, 0, 69, 49
1, 410954, Control_c, 0, 64, 62
1, 410969, Control_c, 0, 64, 62
1, 410993, Note_off_c, 0, 63, 58
1, 411007, Control_c, 0, 64, 61
1, 411016, Note_on_c, 0, 65, 43
1, 411020, Note_on_c, 0, 75, 69
1, 411094, Note_off_c, 0, 77, 55
1, 411126, Control_c, 0, 64, 61
1, 411139, Note_off_c, 0, 65, 56
1, 411148, Note_on_c, 0, 74, 72
1, 411154, Note_on_c, 0, 63, 42
1, 411231, Note_off_c, 0, 75, 39
1, 411242, Note_off_c, 0, 63, 60
1, 411259, Control_c, 0, 64, 60
1, 411274, Control_c, 0, 64, 59
1, 411279, Note_on_c, 0, 65, 39
1, 411284, Note_on_c, 0, 72, 65
1, 411289, Control_c, 0, 64, 57
1, 411303, Control_c, 0, 64, 49
1, 411304, Note_off_c, 0, 74, 58
1, 411318, Control_c, 0, 64, 0
1, 411384, Note_off_c, 0, 65, 52
1, 411416, Note_off_c, 0, 72, 61
1, 411422, Note_on_c, 0, 70, 59
1, 411425, Note_on_c, 0, 62, 41
1, 411524, Note_off_c, 0, 62, 60
1, 411527, Control_c, 0, 64, 11
1, 411542, Control_c, 0, 64, 57
1, 411549, Note_on_c, 0, 65, 44
1, 411557, Control_c, 0, 64, 65
1, 411571, Control_c, 0, 64, 68
1, 411580, Note_off_c, 0, 70, 59
1, 411586, Control_c, 0, 64, 70
1, 411601, Control_c, 0, 64, 71
1, 411616, Control_c, 0, 64, 73
1, 411630, Control_c, 0, 64, 74
1, 411645, Control_c, 0, 64, 76
1, 411660, Control_c, 0, 64, 78
1, 411667, Note_off_c, 0, 65, 53
1, 411675, Control_c, 0, 64, 81
1, 411688, Note_on_c, 0, 62, 37
1, 411690, Control_c, 0, 64, 84
1, 411697, Note_on_c, 0, 70, 63
1, 411704, Control_c, 0, 64, 86
1, 411719, Control_c, 0, 64, 89
1, 411741, Control_c, 0, 64, 90
1, 411756, Control_c, 0, 64, 91
1, 411771, Control_c, 0, 64, 91
1, 411801, Note_off_c, 0, 62, 58
1, 411822, Note_off_c, 0, 70, 51
1, 411827, Note_on_c, 0, 71, 63
1, 411828, Note_on_c, 0, 65, 46
1, 411855, Note_off_c, 0, 71, 66
1, 411935, Control_c, 0, 64, 90
1, 411950, Note_off_c, 0, 65, 57
1, 411950, Control_c, 0, 64, 88
1, 411965, Control_c, 0, 64, 85
1, 411969, Note_on_c, 0, 69, 56
1, 411974, Note_on_c, 0, 63, 50
1, 411979, Note_on_c, 0, 72, 56
1, 411980, Control_c, 0, 64, 80
1, 411995, Control_c, 0, 64, 75
1, 412009, Control_c, 0, 64, 69
1, 412024, Control_c, 0, 64, 62
1, 412039, Control_c, 0, 64, 56
1, 412053, Control_c, 0, 64, 53
1, 412068, Control_c, 0, 64, 53
1, 412075, Note_off_c, 0, 63, 58
1, 412102, Note_on_c, 0, 65, 42
1, 412112, Note_on_c, 0, 74, 71
1, 412114, Note_off_c, 0, 72, 61
1, 412172, Control_c, 0, 64, 53
1, 412201, Control_c, 0, 64, 54
1, 412226, Note_off_c, 0, 65, 57
1, 412245, Note_on_c, 0, 75, 74
1, 412247, Note_off_c, 0, 74, 61
1, 412248, Note_on_c, 0, 63, 44
1, 412275, Control_c, 0, 64, 53
1, 412290, Control_c, 0, 64, 53
1, 412305, Control_c, 0, 64, 52
1, 412335, Note_off_c, 0, 63, 60
1, 412359, Note_on_c, 0, 72, 71
1, 412362, Note_on_c, 0, 65, 41
1, 412367, Note_off_c, 0, 69, 59
1, 412415, Note_off_c, 0, 75, 48
1, 412439, Control_c, 0, 64, 53
1, 412453, Control_c, 0, 64, 54
1, 412468, Control_c, 0, 64, 55
1, 412486, Note_off_c, 0, 65, 56
1, 412495, Note_off_c, 0, 72, 62
1, 412505, Control_c, 0, 64, 55
1, 412514, Note_on_c, 0, 70, 59
1, 412519, Note_on_c, 0, 62, 42
1, 412520, Control_c, 0, 64, 55
1, 412534, Control_c, 0, 64, 54
1, 412541, Note_off_c, 0, 70, 67
1, 412549, Control_c, 0, 64, 49
1, 412564, Control_c, 0, 64, 35
1, 412579, Control_c, 0, 64, 0
1, 412645, Note_off_c, 0, 62, 55
1, 412654, Note_on_c, 0, 77, 67
1, 412670, Note_on_c, 0, 65, 33
1, 412713, Control_c, 0, 64, 17
1, 412728, Control_c, 0, 64, 60
1, 412743, Control_c, 0, 64, 66
1, 412758, Control_c, 0, 64, 71
1, 412772, Note_off_c, 0, 65, 58
1, 412773, Control_c, 0, 64, 75
1, 412788, Control_c, 0, 64, 81
1, 412791, Note_on_c, 0, 62, 43
1, 412802, Control_c, 0, 64, 84
1, 412817, Control_c, 0, 64, 86
1, 412820, Note_off_c, 0, 77, 63
1, 412832, Control_c, 0, 64, 87
1, 412898, Note_off_c, 0, 62, 61
1, 412921, Control_c, 0, 64, 86
1, 412925, Note_on_c, 0, 77, 73
1, 412928, Note_on_c, 0, 65, 46
1, 412936, Control_c, 0, 64, 86
1, 412950, Control_c, 0, 64, 85
1, 412965, Control_c, 0, 64, 84
1, 412980, Control_c, 0, 64, 83
1, 412995, Control_c, 0, 64, 82
1, 413009, Control_c, 0, 64, 81
1, 413024, Control_c, 0, 64, 79
1, 413039, Control_c, 0, 64, 78
1, 413054, Control_c, 0, 64, 76
1, 413064, Note_off_c, 0, 65, 53
1, 413067, Note_on_c, 0, 57, 49
1, 413069, Control_c, 0, 64, 74
1, 413083, Control_c, 0, 64, 72
1, 413098, Control_c, 0, 64, 71
1, 413113, Control_c, 0, 64, 70
1, 413128, Control_c, 0, 64, 69
1, 413143, Control_c, 0, 64, 68
1, 413157, Control_c, 0, 64, 66
1, 413172, Control_c, 0, 64, 64
1, 413184, Note_on_c, 0, 75, 72
1, 413187, Control_c, 0, 64, 62
1, 413189, Note_off_c, 0, 57, 61
1, 413197, Note_on_c, 0, 65, 53
1, 413202, Control_c, 0, 64, 57
1, 413217, Control_c, 0, 64, 48
1, 413238, Note_off_c, 0, 77, 55
1, 413239, Control_c, 0, 64, 41
1, 413254, Control_c, 0, 64, 39
1, 413283, Control_c, 0, 64, 40
1, 413298, Control_c, 0, 64, 47
1, 413313, Control_c, 0, 64, 53
1, 413327, Note_off_c, 0, 65, 55
1, 413328, Control_c, 0, 64, 58
1, 413335, Note_off_c, 0, 75, 63
1, 413336, Note_on_c, 0, 57, 48
1, 413337, Note_on_c, 0, 74, 76
1, 413343, Control_c, 0, 64, 59
1, 413443, Note_off_c, 0, 57, 59
1, 413454, Note_on_c, 0, 73, 76
1, 413462, Note_on_c, 0, 65, 55
1, 413465, Note_off_c, 0, 74, 59
1, 413506, Note_off_c, 0, 73, 61
1, 413536, Control_c, 0, 64, 59
1, 413551, Control_c, 0, 64, 58
1, 413566, Control_c, 0, 64, 57
1, 413585, Note_off_c, 0, 65, 48
1, 413595, Control_c, 0, 64, 57
1, 413600, Note_on_c, 0, 58, 49
1, 413610, Note_on_c, 0, 73, 61
1, 413625, Control_c, 0, 64, 56
1, 413746, Note_on_c, 0, 62, 40
1, 413852, Note_off_c, 0, 62, 61
1, 413885, Note_on_c, 0, 65, 44
1, 413992, Note_off_c, 0, 58, 60
1, 414001, Note_off_c, 0, 65, 53
1, 414015, Note_on_c, 0, 62, 40
1, 414040, Note_on_c, 0, 74, 55
1, 414051, Note_off_c, 0, 73, 58
1, 414092, Control_c, 0, 64, 55
1, 414106, Control_c, 0, 64, 54
1, 414121, Control_c, 0, 64, 52
1, 414126, Note_off_c, 0, 74, 64
1, 414135, Note_off_c, 0, 62, 60
1, 414136, Control_c, 0, 64, 50
1, 414150, Control_c, 0, 64, 47
1, 414152, Note_on_c, 0, 58, 49
1, 414165, Control_c, 0, 64, 45
1, 414180, Control_c, 0, 64, 44
1, 414255, Control_c, 0, 64, 45
1, 414270, Control_c, 0, 64, 46
1, 414285, Control_c, 0, 64, 47
1, 414300, Control_c, 0, 64, 47
1, 414301, Note_on_c, 0, 62, 43
1, 414308, Note_on_c, 0, 85, 77
1, 414315, Control_c, 0, 64, 48
1, 414329, Control_c, 0, 64, 49
1, 414344, Control_c, 0, 64, 49
1, 414359, Control_c, 0, 64, 50
1, 414374, Control_c, 0, 64, 50
1, 414389, Control_c, 0, 64, 51
1, 414403, Control_c, 0, 64, 52
1, 414420, Note_off_c, 0, 62, 60
1, 414433, Control_c, 0, 64, 53
1, 414445, Note_on_c, 0, 67, 48
1, 414463, Control_c, 0, 64, 53
1, 414508, Control_c, 0, 64, 54
1, 414552, Control_c, 0, 64, 54
1, 414584, Note_off_c, 0, 58, 59
1, 414588, Note_off_c, 0, 67, 52
1, 414593, Note_on_c, 0, 86, 63
1, 414597, Control_c, 0, 64, 55
1, 414607, Note_on_c, 0, 62, 37
1, 414627, Control_c, 0, 64, 55
1, 414642, Control_c, 0, 64, 56
1, 414669, Note_off_c, 0, 85, 57
1, 414671, Control_c, 0, 64, 57
1, 414686, Control_c, 0, 64, 57
1, 414704, Note_off_c, 0, 62, 56
1, 414715, Note_off_c, 0, 86, 65
1, 414716, Control_c, 0, 64, 58
1, 414728, Note_on_c, 0, 58, 52
1, 414767, Control_c, 0, 64, 58
1, 414782, Control_c, 0, 64, 59
1, 414812, Control_c, 0, 64, 59
1, 414861, Note_on_c, 0, 84, 82
1, 414863, Note_on_c, 0, 62, 41
1, 414987, Note_off_c, 0, 62, 61
1, 415004, Control_c, 0, 64, 60
1, 415008, Note_on_c, 0, 67, 53
1, 415134, Note_on_c, 0, 82, 75
1, 415139, Note_off_c, 0, 58, 61
1, 415146, Note_on_c, 0, 62, 46
1, 415168, Control_c, 0, 64, 59
1, 415208, Note_off_c, 0, 84, 57
1, 415212, Control_c, 0, 64, 59
1, 415213, Note_off_c, 0, 67, 29
1, 415227, Control_c, 0, 64, 58
1, 415242, Control_c, 0, 64, 58
1, 415268, Note_on_c, 0, 58, 62
1, 415268, Note_off_c, 0, 82, 63
1, 415269, Note_off_c, 0, 62, 60
1, 415271, Control_c, 0, 64, 57
1, 415408, Note_on_c, 0, 62, 53
1, 415408, Note_on_c, 0, 81, 81
1, 415419, Control_c, 0, 64, 58
1, 415464, Control_c, 0, 64, 58
1, 415500, Control_c, 0, 64, 59
1, 415524, Note_off_c, 0, 62, 61
1, 415545, Control_c, 0, 64, 59
1, 415552, Note_on_c, 0, 67, 56
1, 415590, Control_c, 0, 64, 60
1, 415604, Control_c, 0, 64, 60
1, 415634, Control_c, 0, 64, 61
1, 415664, Control_c, 0, 64, 61
1, 415679, Note_off_c, 0, 58, 60
1, 415693, Control_c, 0, 64, 62
1, 415697, Note_on_c, 0, 62, 42
1, 415700, Note_on_c, 0, 79, 69
1, 415712, Note_off_c, 0, 67, 36
1, 415755, Note_off_c, 0, 81, 57
1, 415787, Note_off_c, 0, 79, 62
1, 415816, Note_off_c, 0, 62, 50
1, 415822, Note_on_c, 0, 58, 52
1, 415916, Control_c, 0, 64, 61
1, 415946, Control_c, 0, 64, 60
1, 415961, Control_c, 0, 64, 59
1, 415974, Note_on_c, 0, 60, 49
1, 415975, Control_c, 0, 64, 56
1, 415990, Control_c, 0, 64, 48
1, 415991, Note_on_c, 0, 77, 48
1, 415999, Note_on_c, 0, 79, 49
1, 416005, Control_c, 0, 64, 32
1, 416019, Control_c, 0, 64, 0
1, 416030, Note_off_c, 0, 79, 55
1, 416093, Control_c, 0, 64, 27
1, 416108, Control_c, 0, 64, 58
1, 416110, Note_off_c, 0, 60, 62
1, 416123, Control_c, 0, 64, 64
1, 416125, Note_on_c, 0, 67, 41
1, 416138, Control_c, 0, 64, 67
1, 416153, Control_c, 0, 64, 70
1, 416168, Control_c, 0, 64, 71
1, 416183, Control_c, 0, 64, 73
1, 416198, Control_c, 0, 64, 74
1, 416213, Control_c, 0, 64, 75
1, 416218, Note_off_c, 0, 58, 59
1, 416234, Control_c, 0, 64, 76
1, 416246, Note_on_c, 0, 76, 67
1, 416247, Note_off_c, 0, 77, 63
1, 416249, Control_c, 0, 64, 77
1, 416256, Note_on_c, 0, 60, 39
1, 416264, Control_c, 0, 64, 78
1, 416272, Note_off_c, 0, 76, 66
1, 416279, Control_c, 0, 64, 79
1, 416293, Note_off_c, 0, 67, 30
1, 416294, Control_c, 0, 64, 80
1, 416308, Control_c, 0, 64, 80
1, 416338, Control_c, 0, 64, 80
1, 416353, Control_c, 0, 64, 74
1, 416356, Note_off_c, 0, 60, 61
1, 416364, Note_on_c, 0, 76, 69
1, 416368, Control_c, 0, 64, 61
1, 416383, Control_c, 0, 64, 0
1, 416386, Note_off_c, 0, 76, 70
1, 416386, Note_on_c, 0, 58, 46
1, 416388, Note_on_c, 0, 74, 73
1, 416409, Note_off_c, 0, 74, 71
1, 416502, Note_on_c, 0, 60, 41
1, 416511, Note_on_c, 0, 72, 70
1, 416533, Note_off_c, 0, 72, 69
1, 416602, Note_off_c, 0, 60, 60
1, 416633, Note_on_c, 0, 74, 76
1, 416642, Note_on_c, 0, 67, 38
1, 416656, Note_off_c, 0, 74, 70
1, 416724, Note_off_c, 0, 58, 57
1, 416739, Note_off_c, 0, 67, 43
1, 416759, Note_on_c, 0, 60, 44
1, 416761, Note_on_c, 0, 76, 70
1, 416786, Note_off_c, 0, 76, 67
1, 416868, Note_off_c, 0, 60, 63
1, 416901, Note_on_c, 0, 57, 46
1, 416901, Note_on_c, 0, 77, 59
1, 417006, Note_off_c, 0, 57, 61
1, 417035, Note_off_c, 0, 77, 64
1, 417038, Note_on_c, 0, 60, 51
1, 417154, Note_off_c, 0, 60, 61
1, 417166, Note_on_c, 0, 57, 51
1, 417270, Note_off_c, 0, 57, 63
1, 417295, Note_on_c, 0, 81, 67
1, 417300, Note_on_c, 0, 53, 54
1, 417417, Note_off_c, 0, 53, 64
1, 417433, Note_on_c, 0, 77, 75
1, 417435, Note_on_c, 0, 48, 61
1, 417533, Note_off_c, 0, 81, 46
1, 417536, Note_off_c, 0, 48, 57
1, 417572, Note_on_c, 0, 60, 58
1, 417577, Note_off_c, 0, 77, 64
1, 417707, Note_on_c, 0, 57, 59
1, 417711, Note_off_c, 0, 60, 60
1, 417818, Note_off_c, 0, 57, 62
1, 417837, Note_on_c, 0, 81, 66
1, 417840, Note_on_c, 0, 53, 57
1, 417951, Note_off_c, 0, 53, 64
1, 417968, Note_on_c, 0, 48, 58
1, 417987, Note_on_c, 0, 77, 57
1, 418053, Note_off_c, 0, 48, 57
1, 418081, Note_off_c, 0, 81, 55
1, 418106, Note_on_c, 0, 60, 57
1, 418128, Note_off_c, 0, 77, 63
1, 418207, Control_c, 0, 64, 14
1, 418222, Control_c, 0, 64, 17
1, 418231, Note_off_c, 0, 60, 61
1, 418237, Control_c, 0, 64, 19
1, 418250, Note_on_c, 0, 57, 55
1, 418267, Control_c, 0, 64, 21
1, 418326, Control_c, 0, 64, 23
1, 418350, Note_off_c, 0, 57, 62
1, 418363, Note_on_c, 0, 81, 59
1, 418371, Control_c, 0, 64, 24
1, 418385, Note_on_c, 0, 53, 44
1, 418401, Control_c, 0, 64, 26
1, 418415, Control_c, 0, 64, 28
1, 418430, Control_c, 0, 64, 29
1, 418445, Control_c, 0, 64, 30
1, 418460, Control_c, 0, 64, 32
1, 418482, Control_c, 0, 64, 34
1, 418496, Control_c, 0, 64, 36
1, 418503, Note_off_c, 0, 53, 58
1, 418509, Note_on_c, 0, 77, 61
1, 418511, Control_c, 0, 64, 37
1, 418516, Note_off_c, 0, 81, 48
1, 418526, Control_c, 0, 64, 38
1, 418529, Note_on_c, 0, 48, 39
1, 418556, Control_c, 0, 64, 38
1, 418615, Control_c, 0, 64, 39
1, 418645, Control_c, 0, 64, 40
1, 418651, Note_on_c, 0, 72, 67
1, 418696, Note_off_c, 0, 77, 60
1, 418734, Control_c, 0, 64, 40
1, 418758, Note_off_c, 0, 72, 64
1, 418782, Note_on_c, 0, 69, 63
1, 418896, Control_c, 0, 64, 41
1, 418908, Note_on_c, 0, 70, 71
1, 418931, Note_off_c, 0, 69, 56
1, 418970, Control_c, 0, 64, 42
1, 419036, Note_on_c, 0, 71, 76
1, 419071, Note_off_c, 0, 70, 61
1, 419172, Note_on_c, 0, 74, 80
1, 419191, Note_off_c, 0, 71, 64
1, 419319, Note_on_c, 0, 72, 75
1, 419336, Note_off_c, 0, 48, 52
1, 419387, Note_off_c, 0, 74, 56
1, 419435, Note_on_c, 0, 69, 69
1, 419489, Note_off_c, 0, 72, 55
1, 419525, Control_c, 0, 64, 41
1, 419566, Note_off_c, 0, 69, 62
1, 419584, Control_c, 0, 64, 40
1, 419590, Note_on_c, 0, 65, 57
1, 419629, Control_c, 0, 64, 40
1, 419688, Control_c, 0, 64, 39
1, 419748, Control_c, 0, 64, 38
1, 419777, Control_c, 0, 64, 37
1, 419792, Control_c, 0, 64, 35
1, 419807, Control_c, 0, 64, 30
1, 419822, Control_c, 0, 64, 0
1, 419867, Note_off_c, 0, 65, 57
1, 419878, Note_on_c, 0, 69, 49
1, 419903, Note_on_c, 0, 64, 48
1, 419903, Note_on_c, 0, 58, 38
1, 419905, Note_on_c, 0, 48, 24
1, 419978, Control_c, 0, 64, 45
1, 419992, Control_c, 0, 64, 64
1, 420001, Note_off_c, 0, 58, 53
1, 420007, Control_c, 0, 64, 72
1, 420014, Note_off_c, 0, 69, 56
1, 420016, Note_off_c, 0, 64, 63
1, 420022, Control_c, 0, 64, 81
1, 420037, Control_c, 0, 64, 90
1, 420046, Note_on_c, 0, 67, 56
1, 420052, Control_c, 0, 64, 97
1, 420067, Control_c, 0, 64, 104
1, 420082, Control_c, 0, 64, 112
1, 420097, Control_c, 0, 64, 127
1, 420156, Note_off_c, 0, 67, 60
1, 420171, Control_c, 0, 64, 101
1, 420177, Note_off_c, 0, 48, 48
1, 420186, Control_c, 0, 64, 82
1, 420193, Note_on_c, 0, 65, 63
1, 420195, Note_on_c, 0, 53, 45
1, 420200, Control_c, 0, 64, 63
1, 420207, Note_on_c, 0, 57, 31
1, 420215, Control_c, 0, 64, 37
1, 420230, Control_c, 0, 64, 54
1, 420245, Control_c, 0, 64, 62
1, 420260, Control_c, 0, 64, 66
1, 420274, Control_c, 0, 64, 70
1, 420289, Control_c, 0, 64, 72
1, 420304, Control_c, 0, 64, 75
1, 420319, Control_c, 0, 64, 76
1, 420329, Note_off_c, 0, 65, 59
1, 420334, Control_c, 0, 64, 76
1, 420341, Note_on_c, 0, 67, 68
1, 420348, Control_c, 0, 64, 77
1, 420392, Control_c, 0, 64, 76
1, 420403, Note_off_c, 0, 67, 60
1, 420407, Control_c, 0, 64, 76
1, 420413, Note_on_c, 0, 69, 67
1, 420422, Control_c, 0, 64, 74
1, 420437, Control_c, 0, 64, 72
1, 420446, Note_on_c, 0, 70, 75
1, 420452, Control_c, 0, 64, 69
1, 420456, Note_off_c, 0, 53, 62
1, 420457, Note_off_c, 0, 57, 45
1, 420459, Note_off_c, 0, 69, 57
1, 420466, Control_c, 0, 64, 66
1, 420479, Note_off_c, 0, 70, 63
1, 420481, Control_c, 0, 64, 65
1, 420496, Control_c, 0, 64, 64
1, 420511, Control_c, 0, 64, 46
1, 420518, Note_on_c, 0, 72, 76
1, 420526, Control_c, 0, 64, 0
1, 420560, Note_off_c, 0, 72, 64
1, 420579, Note_on_c, 0, 74, 75
1, 420630, Note_off_c, 0, 74, 65
1, 420633, Note_on_c, 0, 76, 72
1, 420660, Note_off_c, 0, 76, 66
1, 420687, Note_on_c, 0, 77, 78
1, 420747, Note_off_c, 0, 77, 59
1, 420755, Note_on_c, 0, 79, 77
1, 420810, Note_on_c, 0, 81, 73
1, 420813, Note_off_c, 0, 79, 62
1, 420856, Note_on_c, 0, 82, 76
1, 420884, Note_off_c, 0, 81, 62
1, 420905, Note_off_c, 0, 82, 65
1, 420931, Note_on_c, 0, 84, 78
1, 420983, Note_off_c, 0, 84, 60
1, 420988, Note_on_c, 0, 86, 78
1, 421055, Note_on_c, 0, 88, 68
1, 421070, Note_off_c, 0, 86, 63
1, 421081, Note_off_c, 0, 88, 68
1, 421102, Note_on_c, 0, 89, 74
1, 421146, Note_off_c, 0, 89, 53
1, 421164, Note_on_c, 0, 87, 82
1, 421221, Note_off_c, 0, 87, 65
1, 421239, Note_on_c, 0, 89, 79
1, 421269, Note_off_c, 0, 89, 56
1, 421297, Note_on_c, 0, 86, 80
1, 421353, Note_off_c, 0, 86, 63
1, 421359, Note_on_c, 0, 89, 80
1, 421379, Note_off_c, 0, 89, 69
1, 421408, Note_on_c, 0, 84, 73
1, 421438, Note_off_c, 0, 84, 58
1, 421473, Note_on_c, 0, 89, 79
1, 421517, Note_off_c, 0, 89, 61
1, 421535, Note_on_c, 0, 82, 80
1, 421563, Note_off_c, 0, 82, 62
1, 421592, Note_on_c, 0, 89, 76
1, 421635, Note_off_c, 0, 89, 62
1, 421646, Note_on_c, 0, 81, 81
1, 421688, Note_off_c, 0, 81, 64
1, 421712, Note_on_c, 0, 89, 79
1, 421753, Note_off_c, 0, 89, 64
1, 421775, Note_on_c, 0, 79, 79
1, 421810, Note_off_c, 0, 79, 64
1, 421838, Note_on_c, 0, 89, 81
1, 421873, Note_off_c, 0, 89, 63
1, 421899, Note_on_c, 0, 77, 77
1, 421935, Note_off_c, 0, 77, 64
1, 421960, Note_on_c, 0, 89, 74
1, 421995, Note_off_c, 0, 89, 60
1, 422020, Note_on_c, 0, 79, 78
1, 422053, Note_off_c, 0, 79, 64
1, 422085, Note_on_c, 0, 89, 73
1, 422119, Note_off_c, 0, 89, 60
1, 422141, Note_on_c, 0, 81, 79
1, 422177, Note_off_c, 0, 81, 64
1, 422213, Note_on_c, 0, 89, 71
1, 422237, Note_off_c, 0, 89, 67
1, 422259, Note_on_c, 0, 82, 82
1, 422301, Note_off_c, 0, 82, 63
1, 422328, Note_on_c, 0, 89, 73
1, 422356, Note_off_c, 0, 89, 60
1, 422380, Note_on_c, 0, 84, 75
1, 422425, Note_off_c, 0, 84, 63
1, 422455, Note_on_c, 0, 89, 57
1, 422480, Note_off_c, 0, 89, 56
1, 422502, Note_on_c, 0, 86, 63
1, 422535, Note_off_c, 0, 86, 66
1, 422553, Note_on_c, 0, 89, 73
1, 422653, Note_on_c, 0, 60, 44
1, 422653, Note_on_c, 0, 87, 52
1, 422663, Note_off_c, 0, 89, 50
1, 422790, Note_off_c, 0, 60, 58
1, 422796, Note_on_c, 0, 57, 46
1, 422917, Note_off_c, 0, 87, 65
1, 422938, Note_off_c, 0, 57, 61
1, 422964, Note_on_c, 0, 53, 54
1, 423105, Note_on_c, 0, 87, 71
1, 423141, Note_off_c, 0, 87, 63
1, 423169, Note_on_c, 0, 86, 63
1, 423199, Note_off_c, 0, 86, 62
1, 423239, Note_on_c, 0, 87, 74
1, 423244, Note_off_c, 0, 53, 63
1, 423292, Note_off_c, 0, 87, 63
1, 423297, Note_on_c, 0, 89, 76
1, 423358, Note_off_c, 0, 89, 63
1, 423368, Note_on_c, 0, 86, 79
1, 423406, Note_on_c, 0, 87, 77
1, 423430, Note_off_c, 0, 86, 63
1, 423454, Note_off_c, 0, 87, 65
1, 423475, Note_on_c, 0, 84, 75
1, 423503, Note_off_c, 0, 84, 60
1, 423531, Note_on_c, 0, 86, 71
1, 423576, Note_off_c, 0, 86, 64
1, 423585, Note_on_c, 0, 82, 78
1, 423644, Note_off_c, 0, 82, 63
1, 423647, Note_on_c, 0, 84, 71
1, 423716, Note_off_c, 0, 84, 63
1, 423722, Control_c, 0, 64, 19
1, 423723, Note_on_c, 0, 81, 64
1, 423736, Control_c, 0, 64, 23
1, 423741, Note_on_c, 0, 63, 55
1, 423751, Control_c, 0, 64, 26
1, 423766, Control_c, 0, 64, 28
1, 423781, Control_c, 0, 64, 29
1, 423810, Control_c, 0, 64, 30
1, 423825, Control_c, 0, 64, 31
1, 423841, Control_c, 0, 64, 32
1, 423856, Control_c, 0, 64, 34
1, 423871, Control_c, 0, 64, 35
1, 423886, Control_c, 0, 64, 36
1, 423887, Note_on_c, 0, 60, 62
1, 423900, Control_c, 0, 64, 38
1, 423915, Control_c, 0, 64, 40
1, 423930, Control_c, 0, 64, 41
1, 423944, Note_off_c, 0, 63, 39
1, 423945, Control_c, 0, 64, 42
1, 423951, Note_off_c, 0, 81, 60
1, 423959, Control_c, 0, 64, 43
1, 423974, Control_c, 0, 64, 43
1, 424034, Control_c, 0, 64, 43
1, 424052, Note_off_c, 0, 60, 62
1, 424054, Note_on_c, 0, 57, 67
1, 424063, Control_c, 0, 64, 42
1, 424078, Control_c, 0, 64, 42
1, 424122, Control_c, 0, 64, 41
1, 424213, Note_on_c, 0, 75, 63
1, 424251, Note_off_c, 0, 75, 63
1, 424275, Note_on_c, 0, 74, 76
1, 424301, Control_c, 0, 64, 42
1, 424330, Control_c, 0, 64, 42
1, 424343, Note_on_c, 0, 75, 80
1, 424345, Note_off_c, 0, 57, 60
1, 424345, Control_c, 0, 64, 43
1, 424349, Note_off_c, 0, 74, 36
1, 424360, Control_c, 0, 64, 43
1, 424374, Control_c, 0, 64, 44
1, 424389, Control_c, 0, 64, 44
1, 424407, Note_on_c, 0, 77, 76
1, 424407, Note_off_c, 0, 75, 65
1, 424471, Control_c, 0, 64, 45
1, 424479, Note_off_c, 0, 77, 63
1, 424479, Note_on_c, 0, 74, 85
1, 424486, Control_c, 0, 64, 45
1, 424501, Control_c, 0, 64, 46
1, 424515, Control_c, 0, 64, 47
1, 424515, Control_c, 0, 67, 114
1, 424529, Note_on_c, 0, 75, 77
1, 424530, Control_c, 0, 67, 97
1, 424545, Control_c, 0, 64, 48
1, 424545, Control_c, 0, 67, 77
1, 424553, Note_off_c, 0, 74, 62
1, 424559, Control_c, 0, 64, 48
1, 424559, Control_c, 0, 67, 57
1, 424574, Note_off_c, 0, 75, 64
1, 424574, Control_c, 0, 64, 50
1, 424574, Control_c, 0, 67, 41
1, 424587, Note_on_c, 0, 72, 74
1, 424589, Control_c, 0, 64, 51
1, 424589, Control_c, 0, 67, 30
1, 424604, Control_c, 0, 64, 52
1, 424604, Control_c, 0, 67, 23
1, 424617, Note_off_c, 0, 72, 61
1, 424619, Control_c, 0, 64, 52
1, 424619, Control_c, 0, 67, 15
1, 424635, Control_c, 0, 64, 53
1, 424635, Control_c, 0, 67, 9
1, 424649, Note_on_c, 0, 74, 80
1, 424650, Control_c, 0, 64, 54
1, 424650, Control_c, 0, 67, 0
1, 424664, Control_c, 0, 64, 54
1, 424679, Control_c, 0, 64, 55
1, 424694, Control_c, 0, 64, 55
1, 424697, Note_off_c, 0, 74, 66
1, 424699, Note_on_c, 0, 70, 81
1, 424755, Note_on_c, 0, 72, 81
1, 424766, Note_off_c, 0, 70, 63
1, 424813, Control_c, 0, 64, 55
1, 424828, Control_c, 0, 64, 54
1, 424834, Note_off_c, 0, 72, 64
1, 424836, Note_on_c, 0, 69, 75
1, 424846, Note_on_c, 0, 66, 71
1, 424857, Control_c, 0, 64, 54
1, 424887, Control_c, 0, 64, 53
1, 424931, Control_c, 0, 64, 53
1, 424961, Control_c, 0, 64, 52
1, 425032, Note_on_c, 0, 63, 75
1, 425035, Control_c, 0, 64, 53
1, 425064, Control_c, 0, 64, 53
1, 425079, Control_c, 0, 64, 54
1, 425094, Control_c, 0, 64, 55
1, 425108, Control_c, 0, 64, 56
1, 425111, Note_off_c, 0, 69, 61
1, 425123, Control_c, 0, 64, 56
1, 425138, Control_c, 0, 64, 57
1, 425153, Control_c, 0, 64, 58
1, 425168, Control_c, 0, 64, 58
1, 425197, Control_c, 0, 64, 59
1, 425216, Note_on_c, 0, 60, 71
1, 425220, Control_c, 0, 64, 59
1, 425250, Control_c, 0, 64, 60
1, 425259, Note_off_c, 0, 63, 58
1, 425260, Note_off_c, 0, 66, 53
1, 425264, Control_c, 0, 64, 60
1, 425430, Note_on_c, 0, 75, 57
1, 425502, Note_off_c, 0, 75, 62
1, 425519, Note_on_c, 0, 74, 68
1, 425561, Control_c, 0, 64, 60
1, 425591, Control_c, 0, 64, 59
1, 425597, Note_off_c, 0, 74, 57
1, 425603, Note_on_c, 0, 75, 71
1, 425605, Note_off_c, 0, 60, 59
1, 425635, Control_c, 0, 64, 59
1, 425659, Note_off_c, 0, 75, 61
1, 425665, Control_c, 0, 64, 58
1, 425674, Note_on_c, 0, 77, 65
1, 425680, Control_c, 0, 64, 57
1, 425695, Control_c, 0, 64, 56
1, 425710, Control_c, 0, 64, 54
1, 425725, Control_c, 0, 64, 52
1, 425732, Note_off_c, 0, 77, 62
1, 425739, Control_c, 0, 64, 50
1, 425743, Note_on_c, 0, 74, 70
1, 425753, Control_c, 0, 64, 47
1, 425753, Control_c, 0, 67, 8
1, 425768, Control_c, 0, 64, 46
1, 425768, Control_c, 0, 67, 8
1, 425783, Control_c, 0, 64, 43
1, 425783, Control_c, 0, 67, 9
1, 425798, Control_c, 0, 64, 40
1, 425798, Control_c, 0, 67, 10
1, 425799, Note_off_c, 0, 74, 63
1, 425804, Note_on_c, 0, 75, 61
1, 425812, Control_c, 0, 64, 34
1, 425812, Control_c, 0, 67, 11
1, 425827, Control_c, 0, 64, 28
1, 425827, Control_c, 0, 67, 12
1, 425837, Note_off_c, 0, 75, 64
1, 425842, Control_c, 0, 64, 19
1, 425842, Control_c, 0, 67, 14
1, 425857, Control_c, 0, 64, 0
1, 425857, Control_c, 0, 67, 16
1, 425872, Control_c, 0, 67, 18
1, 425874, Note_on_c, 0, 72, 59
1, 425886, Control_c, 0, 67, 20
1, 425901, Control_c, 0, 67, 23
1, 425912, Note_off_c, 0, 72, 56
1, 425916, Control_c, 0, 67, 24
1, 425930, Control_c, 0, 67, 26
1, 425937, Note_on_c, 0, 74, 56
1, 425945, Control_c, 0, 67, 27
1, 425968, Control_c, 0, 67, 29
1, 425983, Control_c, 0, 67, 30
1, 425998, Control_c, 0, 67, 32
1, 426001, Note_off_c, 0, 74, 59
1, 426012, Control_c, 0, 67, 34
1, 426027, Control_c, 0, 67, 36
1, 426028, Note_on_c, 0, 70, 52
1, 426042, Control_c, 0, 67, 37
1, 426057, Control_c, 0, 67, 38
1, 426071, Note_off_c, 0, 70, 62
1, 426072, Control_c, 0, 67, 40
1, 426086, Control_c, 0, 67, 41
1, 426101, Control_c, 0, 67, 42
1, 426109, Note_on_c, 0, 72, 43
1, 426116, Control_c, 0, 67, 45
1, 426130, Control_c, 0, 67, 47
1, 426145, Control_c, 0, 67, 49
1, 426158, Note_off_c, 0, 72, 58
1, 426160, Control_c, 0, 67, 51
1, 426175, Control_c, 0, 67, 53
1, 426190, Control_c, 0, 67, 55
1, 426196, Note_on_c, 0, 69, 44
1, 426205, Control_c, 0, 67, 58
1, 426220, Control_c, 0, 67, 60
1, 426220, Note_on_c, 0, 65, 39
1, 426235, Control_c, 0, 67, 62
1, 426250, Control_c, 0, 67, 64
1, 426265, Control_c, 0, 67, 67
1, 426280, Control_c, 0, 67, 69
1, 426295, Control_c, 0, 67, 72
1, 426309, Control_c, 0, 67, 74
1, 426324, Control_c, 0, 67, 76
1, 426339, Control_c, 0, 67, 79
1, 426354, Control_c, 0, 67, 81
1, 426369, Control_c, 0, 67, 84
1, 426384, Control_c, 0, 67, 86
1, 426398, Control_c, 0, 67, 89
1, 426413, Control_c, 0, 67, 92
1, 426428, Control_c, 0, 67, 95
1, 426443, Control_c, 0, 67, 98
1, 426458, Control_c, 0, 67, 101
1, 426473, Control_c, 0, 67, 104
1, 426488, Control_c, 0, 67, 107
1, 426492, Note_on_c, 0, 63, 36
1, 426502, Control_c, 0, 67, 111
1, 426517, Control_c, 0, 67, 114
1, 426532, Control_c, 0, 67, 117
1, 426547, Control_c, 0, 67, 120
1, 426561, Control_c, 0, 67, 123
1, 426576, Control_c, 0, 67, 126
1, 426591, Control_c, 0, 67, 127
1, 426600, Note_off_c, 0, 65, 35
1, 426665, Note_off_c, 0, 69, 53
1, 426763, Note_on_c, 0, 60, 32
1, 426839, Note_off_c, 0, 63, 35
1, 427178, Note_off_c, 0, 60, 43
1, 428071, Note_on_c, 0, 77, 63
1, 428106, Note_off_c, 0, 77, 61
1, 428142, Note_on_c, 0, 76, 58
1, 428169, Note_off_c, 0, 76, 62
1, 428215, Control_c, 0, 64, 14
1, 428219, Note_on_c, 0, 77, 63
1, 428245, Control_c, 0, 64, 17
1, 428263, Note_off_c, 0, 77, 61
1, 428275, Note_on_c, 0, 79, 72
1, 428323, Note_off_c, 0, 79, 60
1, 428333, Note_on_c, 0, 75, 73
1, 428333, Control_c, 0, 64, 14
1, 428385, Note_on_c, 0, 77, 75
1, 428387, Note_off_c, 0, 75, 63
1, 428393, Control_c, 0, 64, 11
1, 428414, Note_off_c, 0, 77, 62
1, 428445, Note_on_c, 0, 74, 68
1, 428452, Control_c, 0, 64, 0
1, 428470, Note_off_c, 0, 74, 70
1, 428505, Note_on_c, 0, 75, 57
1, 428525, Note_off_c, 0, 75, 63
1, 428556, Note_on_c, 0, 72, 68
1, 428600, Note_off_c, 0, 72, 62
1, 428609, Note_on_c, 0, 74, 69
1, 428667, Note_off_c, 0, 74, 63
1, 428681, Note_on_c, 0, 70, 69
1, 428704, Note_off_c, 0, 70, 69
1, 428831, Note_on_c, 0, 70, 69
1, 428841, Note_on_c, 0, 58, 40
1, 428855, Note_off_c, 0, 70, 69
1, 428963, Note_off_c, 0, 58, 56
1, 428969, Note_on_c, 0, 72, 54
1, 428985, Note_on_c, 0, 62, 48
1, 429006, Note_off_c, 0, 72, 63
1, 429025, Note_on_c, 0, 70, 62
1, 429034, Note_off_c, 0, 62, 57
1, 429059, Note_off_c, 0, 70, 62
1, 429087, Note_on_c, 0, 58, 52
1, 429093, Note_on_c, 0, 69, 59
1, 429126, Note_off_c, 0, 69, 57
1, 429161, Note_on_c, 0, 70, 50
1, 429194, Note_off_c, 0, 70, 65
1, 429203, Note_on_c, 0, 72, 66
1, 429205, Note_off_c, 0, 58, 58
1, 429211, Note_on_c, 0, 63, 55
1, 429221, Note_off_c, 0, 72, 67
1, 429342, Note_on_c, 0, 58, 50
1, 429345, Note_off_c, 0, 63, 44
1, 429350, Note_on_c, 0, 65, 61
1, 429379, Note_off_c, 0, 65, 65
1, 429479, Note_off_c, 0, 58, 57
1, 429490, Note_on_c, 0, 67, 62
1, 429490, Note_on_c, 0, 63, 42
1, 429508, Note_off_c, 0, 67, 64
1, 429608, Note_off_c, 0, 63, 54
1, 429618, Note_on_c, 0, 58, 49
1, 429640, Note_on_c, 0, 69, 51
1, 429661, Note_off_c, 0, 69, 59
1, 429779, Note_on_c, 0, 70, 60
1, 429788, Note_on_c, 0, 62, 46
1, 429854, Note_off_c, 0, 58, 34
1, 429892, Note_off_c, 0, 62, 60
1, 429926, Note_on_c, 0, 65, 48
1, 430042, Note_off_c, 0, 65, 60
1, 430072, Note_on_c, 0, 58, 60
1, 430098, Note_off_c, 0, 70, 58
1, 430140, Note_on_c, 0, 65, 57
1, 430184, Note_off_c, 0, 65, 61
1, 430213, Note_on_c, 0, 67, 66
1, 430273, Note_off_c, 0, 67, 60
1, 430279, Note_on_c, 0, 69, 61
1, 430310, Note_off_c, 0, 58, 63
1, 430325, Note_on_c, 0, 70, 74
1, 430327, Note_off_c, 0, 69, 58
1, 430363, Note_off_c, 0, 70, 63
1, 430399, Note_on_c, 0, 72, 73
1, 430444, Note_off_c, 0, 72, 61
1, 430470, Note_on_c, 0, 74, 72
1, 430515, Note_off_c, 0, 74, 64
1, 430521, Note_on_c, 0, 75, 68
1, 430554, Note_off_c, 0, 75, 64
1, 430584, Note_on_c, 0, 77, 72
1, 430627, Note_off_c, 0, 77, 60
1, 430649, Note_on_c, 0, 79, 75
1, 430715, Note_off_c, 0, 79, 60
1, 430719, Note_on_c, 0, 81, 67
1, 430727, Note_on_c, 0, 74, 51
1, 430745, Note_off_c, 0, 81, 66
1, 430768, Note_on_c, 0, 82, 71
1, 430831, Note_off_c, 0, 74, 64
1, 430839, Note_on_c, 0, 81, 76
1, 430839, Note_off_c, 0, 82, 62
1, 430854, Note_on_c, 0, 75, 57
1, 430898, Note_on_c, 0, 79, 77
1, 430898, Note_off_c, 0, 81, 63
1, 430948, Note_off_c, 0, 79, 63
1, 430955, Note_off_c, 0, 75, 62
1, 430963, Note_on_c, 0, 74, 68
1, 430963, Note_on_c, 0, 77, 74
1, 431016, Note_off_c, 0, 77, 63
1, 431020, Note_on_c, 0, 79, 75
1, 431058, Note_off_c, 0, 74, 63
1, 431084, Note_on_c, 0, 81, 70
1, 431088, Note_off_c, 0, 79, 62
1, 431090, Note_on_c, 0, 72, 63
1, 431138, Note_on_c, 0, 82, 76
1, 431144, Note_off_c, 0, 81, 61
1, 431171, Note_off_c, 0, 82, 64
1, 431217, Note_on_c, 0, 84, 76
1, 431228, Note_off_c, 0, 72, 57
1, 431231, Note_on_c, 0, 70, 58
1, 431254, Note_off_c, 0, 84, 62
1, 431277, Note_on_c, 0, 86, 77
1, 431327, Note_off_c, 0, 70, 63
1, 431335, Note_off_c, 0, 86, 63
1, 431343, Note_on_c, 0, 87, 78
1, 431350, Note_on_c, 0, 69, 57
1, 431364, Note_off_c, 0, 87, 72
1, 431453, Note_off_c, 0, 69, 61
1, 431484, Note_on_c, 0, 65, 52
1, 431495, Note_on_c, 0, 87, 76
1, 431517, Note_off_c, 0, 87, 71
1, 431617, Note_off_c, 0, 65, 62
1, 431631, Note_on_c, 0, 87, 63
1, 431639, Note_on_c, 0, 70, 48
1, 431666, Note_off_c, 0, 87, 63
1, 431693, Note_on_c, 0, 86, 61
1, 431732, Note_off_c, 0, 86, 66
1, 431735, Note_off_c, 0, 70, 61
1, 431759, Note_on_c, 0, 84, 57
1, 431763, Note_on_c, 0, 65, 48
1, 431788, Note_off_c, 0, 84, 66
1, 431833, Note_on_c, 0, 86, 58
1, 431871, Note_off_c, 0, 86, 66
1, 431887, Note_on_c, 0, 84, 54
1, 431896, Note_on_c, 0, 69, 49
1, 432028, Note_off_c, 0, 69, 61
1, 432043, Note_off_c, 0, 65, 37
1, 432053, Note_on_c, 0, 72, 54
1, 432164, Note_off_c, 0, 84, 63
1, 432186, Note_off_c, 0, 72, 57
1, 432193, Note_on_c, 0, 65, 56
1, 432348, Note_on_c, 0, 77, 66
1, 432395, Note_off_c, 0, 77, 64
1, 432416, Note_on_c, 0, 76, 74
1, 432420, Note_off_c, 0, 65, 59
1, 432483, Note_off_c, 0, 76, 55
1, 432484, Note_on_c, 0, 77, 72
1, 432536, Note_on_c, 0, 79, 72
1, 432539, Note_off_c, 0, 77, 65
1, 432590, Note_off_c, 0, 79, 63
1, 432595, Note_on_c, 0, 75, 83
1, 432658, Note_on_c, 0, 77, 81
1, 432668, Note_off_c, 0, 75, 62
1, 432713, Note_off_c, 0, 77, 63
1, 432724, Note_on_c, 0, 74, 83
1, 432763, Note_off_c, 0, 74, 66
1, 432781, Note_on_c, 0, 75, 82
1, 432826, Note_off_c, 0, 75, 61
1, 432837, Note_on_c, 0, 72, 84
1, 432894, Note_on_c, 0, 74, 86
1, 432906, Note_off_c, 0, 72, 62
1, 432959, Control_c, 0, 64, 33
1, 432962, Note_on_c, 0, 70, 92
1, 432965, Note_off_c, 0, 74, 67
1, 432974, Control_c, 0, 64, 58
1, 432989, Control_c, 0, 64, 28
1, 432989, Control_c, 0, 67, 114
1, 432993, Note_off_c, 0, 70, 65
1, 433003, Control_c, 0, 67, 97
1, 433018, Control_c, 0, 64, 33
1, 433018, Control_c, 0, 67, 80
1, 433033, Control_c, 0, 64, 37
1, 433033, Control_c, 0, 67, 64
1, 433048, Control_c, 0, 64, 39
1, 433048, Control_c, 0, 67, 50
1, 433063, Control_c, 0, 67, 39
1, 433077, Control_c, 0, 64, 40
1, 433077, Control_c, 0, 67, 30
1, 433092, Control_c, 0, 64, 43
1, 433092, Control_c, 0, 67, 23
1, 433107, Note_on_c, 0, 70, 91
1, 433107, Control_c, 0, 64, 46
1, 433107, Control_c, 0, 67, 20
1, 433108, Note_on_c, 0, 50, 94
1, 433108, Note_on_c, 0, 62, 88
1, 433121, Control_c, 0, 64, 46
1, 433121, Control_c, 0, 67, 18
1, 433129, Note_off_c, 0, 50, 73
1, 433129, Note_off_c, 0, 62, 67
1, 433135, Note_off_c, 0, 70, 64
1, 433136, Control_c, 0, 67, 17
1, 433151, Control_c, 0, 67, 16
1, 433166, Control_c, 0, 67, 15
1, 433181, Control_c, 0, 64, 46
1, 433181, Control_c, 0, 67, 14
1, 433195, Control_c, 0, 67, 13
1, 433210, Control_c, 0, 67, 12
1, 433225, Control_c, 0, 67, 11
1, 433240, Control_c, 0, 64, 46
1, 433240, Control_c, 0, 67, 11
1, 433241, Note_on_c, 0, 72, 85
1, 433243, Note_on_c, 0, 48, 99
1, 433243, Note_on_c, 0, 60, 96
1, 433255, Control_c, 0, 67, 10
1, 433263, Note_off_c, 0, 48, 71
1, 433265, Note_off_c, 0, 60, 69
1, 433269, Control_c, 0, 67, 10
1, 433284, Control_c, 0, 64, 47
1, 433314, Note_on_c, 0, 70, 85
1, 433314, Control_c, 0, 64, 49
1, 433314, Control_c, 0, 67, 9
1, 433315, Note_off_c, 0, 72, 61
1, 433329, Control_c, 0, 64, 51
1, 433329, Control_c, 0, 67, 9
1, 433344, Control_c, 0, 64, 54
1, 433359, Control_c, 0, 64, 55
1, 433359, Control_c, 0, 67, 8
1, 433365, Note_off_c, 0, 70, 65
1, 433374, Control_c, 0, 64, 55
1, 433380, Note_on_c, 0, 69, 76
1, 433380, Note_on_c, 0, 58, 96
1, 433382, Note_on_c, 0, 46, 84
1, 433418, Control_c, 0, 64, 56
1, 433423, Note_off_c, 0, 58, 62
1, 433429, Note_off_c, 0, 46, 62
1, 433436, Note_on_c, 0, 70, 81
1, 433456, Control_c, 0, 67, 8
1, 433458, Note_off_c, 0, 69, 60
1, 433486, Control_c, 0, 64, 55
1, 433500, Control_c, 0, 64, 53
1, 433514, Note_on_c, 0, 72, 90
1, 433515, Control_c, 0, 64, 51
1, 433523, Note_off_c, 0, 70, 64
1, 433524, Note_on_c, 0, 45, 89
1, 433527, Note_on_c, 0, 57, 87
1, 433530, Control_c, 0, 64, 50
1, 433544, Control_c, 0, 64, 49
1, 433546, Note_off_c, 0, 72, 67
1, 433550, Note_off_c, 0, 45, 67
1, 433552, Note_off_c, 0, 57, 64
1, 433559, Control_c, 0, 64, 49
1, 433604, Control_c, 0, 64, 50
1, 433618, Control_c, 0, 64, 51
1, 433633, Control_c, 0, 64, 52
1, 433648, Control_c, 0, 64, 53
1, 433663, Control_c, 0, 67, 8
1, 433664, Note_on_c, 0, 43, 94
1, 433664, Note_on_c, 0, 65, 93
1, 433668, Note_on_c, 0, 55, 85
1, 433678, Control_c, 0, 64, 53
1, 433690, Note_off_c, 0, 55, 70
1, 433691, Note_off_c, 0, 43, 65
1, 433702, Note_off_c, 0, 65, 66
1, 433797, Control_c, 0, 64, 55
1, 433802, Note_on_c, 0, 41, 98
1, 433804, Note_on_c, 0, 67, 97
1, 433807, Note_on_c, 0, 53, 91
1, 433812, Control_c, 0, 64, 56
1, 433826, Control_c, 0, 64, 59
1, 433827, Note_off_c, 0, 41, 67
1, 433829, Note_off_c, 0, 53, 72
1, 433833, Note_off_c, 0, 67, 64
1, 433841, Control_c, 0, 64, 61
1, 433856, Control_c, 0, 64, 63
1, 433870, Control_c, 0, 64, 64
1, 433885, Control_c, 0, 64, 65
1, 433915, Control_c, 0, 64, 62
1, 433915, Control_c, 0, 67, 9
1, 433930, Control_c, 0, 64, 38
1, 433930, Control_c, 0, 67, 11
1, 433937, Note_on_c, 0, 39, 88
1, 433939, Note_on_c, 0, 51, 86
1, 433944, Control_c, 0, 64, 0
1, 433944, Control_c, 0, 67, 12
1, 433945, Note_on_c, 0, 69, 92
1, 433959, Control_c, 0, 67, 12
1, 433963, Note_off_c, 0, 51, 71
1, 433970, Note_off_c, 0, 39, 60
1, 433974, Control_c, 0, 67, 13
1, 433983, Note_off_c, 0, 69, 62
1, 433990, Control_c, 0, 67, 13
1, 434005, Control_c, 0, 67, 14
1, 434063, Control_c, 0, 67, 13
1, 434078, Control_c, 0, 67, 13
1, 434083, Note_on_c, 0, 70, 82
1, 434084, Note_on_c, 0, 50, 88
1, 434093, Control_c, 0, 67, 12
1, 434108, Control_c, 0, 64, 65
1, 434108, Control_c, 0, 67, 12
1, 434109, Note_off_c, 0, 50, 70
1, 434113, Note_on_c, 0, 38, 34
1, 434114, Note_off_c, 0, 38, 127
1, 434123, Control_c, 0, 64, 84
1, 434137, Control_c, 0, 64, 104
1, 434152, Control_c, 0, 64, 127
1, 434158, Poly_aftertouch_c, 0, 38, 0
1, 434167, Control_c, 0, 67, 11
1, 434205, Control_c, 0, 67, 11
1, 434224, Note_on_c, 0, 41, 85
1, 434235, Control_c, 0, 67, 10
1, 434250, Control_c, 0, 67, 10
1, 434372, Note_on_c, 0, 46, 79
1, 434425, Note_off_c, 0, 70, 59
1, 434435, Note_on_c, 0, 65, 74
1, 434498, Note_off_c, 0, 65, 62
1, 434499, Note_on_c, 0, 50, 79
1, 434507, Note_on_c, 0, 67, 80
1, 434512, Note_off_c, 0, 41, 55
1, 434516, Control_c, 0, 67, 10
1, 434531, Control_c, 0, 67, 11
1, 434536, Note_off_c, 0, 46, 61
1, 434546, Control_c, 0, 64, 121
1, 434546, Control_c, 0, 67, 11
1, 434561, Note_on_c, 0, 69, 74
1, 434561, Control_c, 0, 64, 114
1, 434575, Control_c, 0, 64, 108
1, 434579, Note_off_c, 0, 67, 55
1, 434590, Control_c, 0, 64, 103
1, 434605, Control_c, 0, 64, 96
1, 434611, Note_on_c, 0, 70, 78
1, 434620, Control_c, 0, 64, 90
1, 434624, Note_off_c, 0, 69, 60
1, 434629, Note_off_c, 0, 50, 64
1, 434635, Control_c, 0, 64, 83
1, 434636, Note_on_c, 0, 53, 79
1, 434650, Control_c, 0, 64, 77
1, 434654, Note_off_c, 0, 70, 61
1, 434664, Control_c, 0, 64, 71
1, 434679, Control_c, 0, 64, 66
1, 434682, Note_on_c, 0, 72, 76
1, 434694, Control_c, 0, 64, 64
1, 434709, Control_c, 0, 64, 63
1, 434739, Note_off_c, 0, 72, 63
1, 434753, Note_on_c, 0, 74, 80
1, 434754, Note_on_c, 0, 58, 82
1, 434765, Note_off_c, 0, 53, 60
1, 434810, Note_on_c, 0, 75, 76
1, 434811, Note_off_c, 0, 74, 65
1, 434857, Note_off_c, 0, 75, 59
1, 434871, Note_on_c, 0, 62, 76
1, 434872, Control_c, 0, 64, 63
1, 434885, Note_on_c, 0, 77, 75
1, 434895, Note_off_c, 0, 58, 60
1, 434901, Control_c, 0, 64, 62
1, 434916, Control_c, 0, 64, 61
1, 434931, Control_c, 0, 64, 60
1, 434954, Control_c, 0, 64, 59
1, 434960, Note_on_c, 0, 79, 79
1, 434963, Note_off_c, 0, 77, 62
1, 434983, Control_c, 0, 64, 59
1, 434998, Control_c, 0, 64, 56
1, 435013, Control_c, 0, 64, 49
1, 435013, Control_c, 0, 67, 12
1, 435015, Note_off_c, 0, 62, 63
1, 435023, Note_on_c, 0, 81, 78
1, 435024, Note_on_c, 0, 65, 71
1, 435028, Control_c, 0, 64, 14
1, 435040, Note_off_c, 0, 79, 62
1, 435043, Control_c, 0, 64, 0
1, 435043, Control_c, 0, 67, 12
1, 435073, Control_c, 0, 67, 13
1, 435079, Note_on_c, 0, 82, 82
1, 435103, Note_off_c, 0, 81, 58
1, 435103, Control_c, 0, 67, 13
1, 435131, Note_off_c, 0, 65, 64
1, 435132, Control_c, 0, 67, 14
1, 435138, Note_on_c, 0, 62, 68
1, 435159, Note_off_c, 0, 82, 64
1, 435162, Note_on_c, 0, 77, 83
1, 435191, Control_c, 0, 67, 14
1, 435221, Control_c, 0, 67, 15
1, 435251, Control_c, 0, 67, 15
1, 435269, Note_off_c, 0, 62, 61
1, 435271, Note_off_c, 0, 77, 50
1, 435280, Control_c, 0, 67, 16
1, 435282, Note_on_c, 0, 79, 76
1, 435294, Note_on_c, 0, 65, 64
1, 435310, Control_c, 0, 67, 16
1, 435324, Control_c, 0, 67, 17
1, 435351, Note_off_c, 0, 79, 62
1, 435354, Control_c, 0, 67, 17
1, 435356, Note_on_c, 0, 81, 77
1, 435384, Note_off_c, 0, 65, 60
1, 435401, Note_off_c, 0, 81, 60
1, 435404, Note_on_c, 0, 82, 69
1, 435410, Note_on_c, 0, 62, 59
1, 435413, Control_c, 0, 67, 18
1, 435429, Note_off_c, 0, 82, 69
1, 435457, Control_c, 0, 67, 19
1, 435464, Note_on_c, 0, 84, 70
1, 435472, Control_c, 0, 67, 19
1, 435487, Control_c, 0, 67, 20
1, 435502, Control_c, 0, 67, 23
1, 435505, Note_off_c, 0, 62, 61
1, 435517, Control_c, 0, 67, 28
1, 435526, Note_on_c, 0, 58, 58
1, 435529, Note_off_c, 0, 84, 60
1, 435532, Control_c, 0, 67, 34
1, 435534, Note_on_c, 0, 86, 76
1, 435547, Control_c, 0, 67, 41
1, 435562, Control_c, 0, 67, 47
1, 435577, Control_c, 0, 67, 55
1, 435580, Note_on_c, 0, 87, 74
1, 435586, Note_off_c, 0, 86, 64
1, 435591, Control_c, 0, 67, 63
1, 435606, Control_c, 0, 67, 73
1, 435621, Control_c, 0, 67, 82
1, 435634, Note_off_c, 0, 87, 64
1, 435635, Control_c, 0, 67, 89
1, 435641, Note_on_c, 0, 89, 73
1, 435644, Note_off_c, 0, 58, 61
1, 435650, Control_c, 0, 67, 95
1, 435653, Note_on_c, 0, 53, 67
1, 435665, Control_c, 0, 67, 99
1, 435666, Note_off_c, 0, 89, 66
1, 435680, Control_c, 0, 67, 103
1, 435702, Control_c, 0, 67, 104
1, 435749, Note_off_c, 0, 53, 66
1, 435806, Note_on_c, 0, 89, 69
1, 435821, Control_c, 0, 67, 104
1, 435833, Note_off_c, 0, 89, 67
1, 435881, Control_c, 0, 67, 103
1, 435940, Note_on_c, 0, 89, 74
1, 435943, Note_on_c, 0, 41, 49
1, 435947, Note_on_c, 0, 48, 46
1, 435961, Note_on_c, 0, 53, 33
1, 435973, Note_on_c, 0, 45, 42
1, 436014, Note_off_c, 0, 89, 61
1, 436015, Note_on_c, 0, 87, 66
1, 436027, Note_off_c, 0, 41, 55
1, 436030, Note_off_c, 0, 45, 60
1, 436031, Note_off_c, 0, 48, 63
1, 436071, Note_off_c, 0, 87, 64
1, 436077, Note_on_c, 0, 86, 61
1, 436103, Control_c, 0, 67, 104
1, 436110, Note_off_c, 0, 86, 66
1, 436118, Control_c, 0, 67, 104
1, 436142, Note_on_c, 0, 84, 59
1, 436147, Control_c, 0, 67, 105
1, 436162, Control_c, 0, 67, 105
1, 436177, Control_c, 0, 67, 106
1, 436192, Control_c, 0, 67, 108
1, 436207, Control_c, 0, 67, 113
1, 436221, Control_c, 0, 67, 118
1, 436225, Note_off_c, 0, 53, 57
1, 436235, Control_c, 0, 67, 123
1, 436237, Note_off_c, 0, 84, 58
1, 436240, Note_on_c, 0, 50, 48
1, 436250, Control_c, 0, 67, 127
1, 436254, Note_on_c, 0, 82, 53
1, 436256, Note_on_c, 0, 46, 42
1, 436382, Note_off_c, 0, 50, 64
1, 436398, Note_off_c, 0, 46, 53
1, 436409, Note_on_c, 0, 53, 47
1, 436501, Note_off_c, 0, 82, 63
1, 436537, Note_off_c, 0, 53, 64
1, 436579, Note_on_c, 0, 50, 31
1, 436584, Note_on_c, 0, 46, 27
1, 436709, Note_on_c, 0, 72, 54
1, 436741, Note_off_c, 0, 72, 65
1, 436751, Note_on_c, 0, 70, 65
1, 436763, Note_off_c, 0, 50, 46
1, 436772, Note_off_c, 0, 46, 49
1, 436781, Note_off_c, 0, 70, 65
1, 436799, Note_on_c, 0, 69, 62
1, 436827, Note_off_c, 0, 69, 65
1, 436843, Note_on_c, 0, 70, 73
1, 436886, Note_off_c, 0, 70, 63
1, 436905, Note_on_c, 0, 71, 80
1, 436957, Note_off_c, 0, 71, 61
1, 436968, Note_on_c, 0, 72, 74
1, 437018, Note_on_c, 0, 73, 79
1, 437028, Note_off_c, 0, 72, 61
1, 437054, Note_off_c, 0, 73, 64
1, 437067, Note_on_c, 0, 74, 79
1, 437106, Note_off_c, 0, 74, 63
1, 437121, Note_on_c, 0, 75, 77
1, 437151, Note_off_c, 0, 75, 66
1, 437196, Note_on_c, 0, 76, 67
1, 437228, Note_off_c, 0, 76, 57
1, 437255, Note_on_c, 0, 77, 66
1, 437299, Note_on_c, 0, 78, 66
1, 437302, Note_off_c, 0, 77, 56
1, 437350, Note_off_c, 0, 78, 52
1, 437366, Note_on_c, 0, 63, 34
1, 437373, Note_on_c, 0, 58, 40
1, 437377, Note_on_c, 0, 79, 62
1, 437491, Note_off_c, 0, 63, 59
1, 437505, Note_off_c, 0, 58, 57
1, 437526, Note_on_c, 0, 67, 49
1, 437562, Note_off_c, 0, 79, 61
1, 437654, Note_off_c, 0, 67, 58
1, 437666, Note_on_c, 0, 58, 45
1, 437684, Note_on_c, 0, 63, 44
1, 437786, Note_off_c, 0, 63, 59
1, 437808, Note_off_c, 0, 58, 63
1, 437815, Note_on_c, 0, 81, 61
1, 437842, Note_off_c, 0, 81, 65
1, 437848, Note_on_c, 0, 79, 70
1, 437872, Note_off_c, 0, 79, 69
1, 437876, Note_on_c, 0, 78, 74
1, 437905, Note_off_c, 0, 78, 63
1, 437923, Note_on_c, 0, 79, 69
1, 437980, Note_on_c, 0, 58, 47
1, 437985, Note_on_c, 0, 60, 46
1, 437985, Note_on_c, 0, 81, 76
1, 437988, Note_off_c, 0, 79, 61
1, 438098, Note_off_c, 0, 58, 56
1, 438101, Note_off_c, 0, 60, 62
1, 438133, Note_on_c, 0, 63, 50
1, 438141, Note_off_c, 0, 81, 61
1, 438260, Note_off_c, 0, 63, 57
1, 438268, Note_on_c, 0, 60, 43
1, 438275, Note_on_c, 0, 58, 43
1, 438386, Note_off_c, 0, 60, 63
1, 438388, Note_off_c, 0, 58, 61
1, 438410, Note_on_c, 0, 82, 58
1, 438434, Note_off_c, 0, 82, 65
1, 438451, Note_on_c, 0, 81, 58
1, 438469, Note_off_c, 0, 81, 66
1, 438492, Note_on_c, 0, 79, 55
1, 438513, Note_off_c, 0, 79, 61
1, 438549, Note_on_c, 0, 81, 62
1, 438583, Note_off_c, 0, 81, 58
1, 438590, Note_on_c, 0, 62, 37
1, 438593, Note_on_c, 0, 58, 45
1, 438593, Note_on_c, 0, 82, 63
1, 438702, Note_off_c, 0, 62, 60
1, 438716, Note_off_c, 0, 58, 55
1, 438735, Note_on_c, 0, 65, 44
1, 438796, Note_off_c, 0, 82, 63
1, 438853, Note_off_c, 0, 65, 47
1, 438888, Note_on_c, 0, 58, 36
1, 438889, Note_on_c, 0, 62, 39
1, 439034, Note_on_c, 0, 72, 51
1, 439058, Note_off_c, 0, 62, 52
1, 439067, Note_off_c, 0, 72, 65
1, 439072, Note_on_c, 0, 70, 64
1, 439096, Note_off_c, 0, 58, 48
1, 439098, Note_off_c, 0, 70, 67
1, 439115, Note_on_c, 0, 69, 62
1, 439144, Note_off_c, 0, 69, 63
1, 439165, Note_on_c, 0, 70, 76
1, 439215, Note_off_c, 0, 70, 62
1, 439228, Note_on_c, 0, 71, 82
1, 439284, Note_off_c, 0, 71, 63
1, 439290, Note_on_c, 0, 72, 78
1, 439334, Note_on_c, 0, 73, 81
1, 439351, Note_off_c, 0, 72, 59
1, 439373, Note_off_c, 0, 73, 63
1, 439382, Note_on_c, 0, 74, 86
1, 439437, Note_off_c, 0, 74, 65
1, 439450, Note_on_c, 0, 75, 85
1, 439491, Note_off_c, 0, 75, 63
1, 439511, Note_on_c, 0, 76, 83
1, 439567, Note_off_c, 0, 76, 62
1, 439568, Note_on_c, 0, 77, 78
1, 439611, Note_on_c, 0, 78, 72
1, 439630, Note_off_c, 0, 77, 60
1, 439667, Note_off_c, 0, 78, 62
1, 439677, Note_on_c, 0, 63, 38
1, 439681, Note_on_c, 0, 58, 37
1, 439684, Note_on_c, 0, 81, 66
1, 439818, Note_off_c, 0, 63, 59
1, 439824, Note_off_c, 0, 58, 58
1, 439845, Note_on_c, 0, 79, 62
1, 439848, Control_c, 0, 64, 14
1, 439856, Note_on_c, 0, 67, 44
1, 439862, Control_c, 0, 64, 21
1, 439877, Control_c, 0, 64, 23
1, 439878, Note_off_c, 0, 81, 50
1, 439892, Control_c, 0, 64, 26
1, 439922, Note_off_c, 0, 79, 62
1, 439951, Control_c, 0, 64, 27
1, 439981, Control_c, 0, 64, 28
1, 439989, Note_on_c, 0, 58, 52
1, 440000, Note_off_c, 0, 67, 52
1, 440002, Note_on_c, 0, 63, 51
1, 440076, Note_off_c, 0, 63, 61
1, 440096, Note_off_c, 0, 58, 64
1, 440105, Note_on_c, 0, 81, 70
1, 440114, Control_c, 0, 64, 27
1, 440128, Control_c, 0, 64, 26
1, 440143, Control_c, 0, 64, 23
1, 440144, Note_off_c, 0, 81, 63
1, 440158, Note_on_c, 0, 79, 61
1, 440158, Control_c, 0, 64, 19
1, 440189, Note_on_c, 0, 78, 74
1, 440189, Note_off_c, 0, 79, 64
1, 440195, Control_c, 0, 64, 17
1, 440220, Note_off_c, 0, 78, 63
1, 440225, Control_c, 0, 64, 11
1, 440230, Note_on_c, 0, 79, 72
1, 440239, Control_c, 0, 64, 0
1, 440285, Note_on_c, 0, 58, 50
1, 440295, Note_off_c, 0, 79, 57
1, 440298, Note_on_c, 0, 60, 39
1, 440298, Note_on_c, 0, 82, 66
1, 440424, Note_off_c, 0, 58, 57
1, 440433, Note_off_c, 0, 60, 63
1, 440441, Note_off_c, 0, 82, 59
1, 440446, Note_on_c, 0, 81, 64
1, 440453, Note_on_c, 0, 63, 51
1, 440546, Note_off_c, 0, 81, 60
1, 440600, Note_on_c, 0, 60, 49
1, 440609, Note_on_c, 0, 58, 49
1, 440617, Note_off_c, 0, 63, 50
1, 440713, Note_off_c, 0, 60, 63
1, 440713, Note_off_c, 0, 58, 62
1, 440731, Note_on_c, 0, 82, 69
1, 440759, Control_c, 0, 64, 17
1, 440760, Note_off_c, 0, 82, 64
1, 440774, Control_c, 0, 64, 27
1, 440777, Note_on_c, 0, 81, 56
1, 440789, Control_c, 0, 64, 32
1, 440800, Note_off_c, 0, 81, 64
1, 440804, Control_c, 0, 64, 35
1, 440814, Note_on_c, 0, 79, 70
1, 440818, Control_c, 0, 64, 36
1, 440833, Control_c, 0, 64, 23
1, 440844, Note_off_c, 0, 79, 60
1, 440848, Control_c, 0, 64, 0
1, 440874, Note_on_c, 0, 81, 70
1, 440907, Note_on_c, 0, 58, 50
1, 440916, Note_on_c, 0, 62, 49
1, 440933, Note_on_c, 0, 82, 75
1, 440933, Note_off_c, 0, 81, 61
1, 440975, Note_off_c, 0, 82, 63
1, 441007, Note_on_c, 0, 84, 69
1, 441057, Note_off_c, 0, 62, 61
1, 441059, Note_off_c, 0, 58, 59
1, 441067, Note_off_c, 0, 84, 61
1, 441082, Note_on_c, 0, 86, 70
1, 441085, Note_on_c, 0, 65, 50
1, 441143, Note_on_c, 0, 87, 72
1, 441150, Note_off_c, 0, 86, 59
1, 441202, Note_off_c, 0, 87, 65
1, 441208, Note_off_c, 0, 65, 61
1, 441219, Note_on_c, 0, 89, 78
1, 441227, Note_on_c, 0, 58, 51
1, 441227, Note_on_c, 0, 62, 43
1, 441299, Note_on_c, 0, 87, 80
1, 441318, Note_off_c, 0, 89, 59
1, 441371, Note_on_c, 0, 86, 73
1, 441372, Note_off_c, 0, 87, 63
1, 441420, Note_off_c, 0, 86, 66
1, 441432, Note_off_c, 0, 58, 59
1, 441433, Note_off_c, 0, 62, 60
1, 441438, Note_on_c, 0, 84, 70
1, 441503, Note_on_c, 0, 82, 83
1, 441518, Note_off_c, 0, 84, 60
1, 441571, Note_on_c, 0, 81, 80
1, 441604, Note_off_c, 0, 82, 62
1, 441640, Note_on_c, 0, 79, 83
1, 441651, Note_off_c, 0, 81, 63
1, 441704, Note_off_c, 0, 79, 64
1, 441712, Note_on_c, 0, 77, 80
1, 441781, Note_on_c, 0, 75, 90
1, 441789, Note_off_c, 0, 77, 62
1, 441812, Control_c, 0, 64, 59
1, 441827, Control_c, 0, 64, 38
1, 441841, Control_c, 0, 64, 26
1, 441852, Note_on_c, 0, 74, 90
1, 441856, Control_c, 0, 64, 35
1, 441871, Control_c, 0, 64, 39
1, 441872, Note_off_c, 0, 75, 63
1, 441885, Control_c, 0, 64, 42
1, 441900, Control_c, 0, 64, 43
1, 441908, Note_off_c, 0, 74, 67
1, 441915, Control_c, 0, 64, 47
1, 441920, Note_on_c, 0, 50, 89
1, 441920, Note_on_c, 0, 72, 77
1, 441926, Note_on_c, 0, 38, 91
1, 441930, Control_c, 0, 64, 49
1, 441945, Control_c, 0, 64, 52
1, 441959, Control_c, 0, 64, 53
1, 441960, Note_off_c, 0, 50, 65
1, 441974, Control_c, 0, 64, 56
1, 441985, Note_on_c, 0, 70, 82
1, 441989, Control_c, 0, 64, 58
1, 442004, Control_c, 0, 64, 60
1, 442008, Note_off_c, 0, 72, 63
1, 442018, Control_c, 0, 64, 62
1, 442018, Control_c, 0, 67, 123
1, 442032, Note_on_c, 0, 71, 20
1, 442033, Poly_aftertouch_c, 0, 43, 0
1, 442033, Control_c, 0, 64, 62
1, 442033, Control_c, 0, 67, 103
1, 442048, Control_c, 0, 64, 54
1, 442048, Control_c, 0, 67, 74
1, 442063, Note_off_c, 0, 38, 65
1, 442063, Control_c, 0, 64, 0
1, 442063, Control_c, 0, 67, 47
1, 442064, Note_on_c, 0, 69, 86
1, 442066, Note_on_c, 0, 51, 97
1, 442072, Note_on_c, 0, 39, 79
1, 442072, Note_off_c, 0, 71, 30
1, 442078, Control_c, 0, 67, 29
1, 442085, Note_on_c, 0, 43, 35
1, 442093, Control_c, 0, 67, 18
1, 442097, Note_off_c, 0, 70, 63
1, 442108, Note_off_c, 0, 51, 68
1, 442108, Control_c, 0, 67, 11
1, 442111, Note_off_c, 0, 39, 60
1, 442123, Control_c, 0, 67, 8
1, 442124, Note_off_c, 0, 43, 42
1, 442138, Control_c, 0, 67, 8
1, 442139, Note_on_c, 0, 67, 87
1, 442149, Note_off_c, 0, 69, 60
1, 442207, Note_off_c, 0, 67, 63
1, 442222, Note_on_c, 0, 65, 77
1, 442257, Control_c, 0, 64, 35
1, 442272, Control_c, 0, 64, 51
1, 442287, Control_c, 0, 64, 57
1, 442289, Note_on_c, 0, 63, 82
1, 442297, Note_off_c, 0, 65, 61
1, 442301, Control_c, 0, 64, 60
1, 442316, Control_c, 0, 64, 61
1, 442331, Control_c, 0, 64, 61
1, 442346, Control_c, 0, 64, 32
1, 442361, Control_c, 0, 64, 0
1, 442365, Note_on_c, 0, 51, 95
1, 442368, Note_on_c, 0, 62, 87
1, 442371, Note_on_c, 0, 39, 84
1, 442375, Control_c, 0, 67, 9
1, 442390, Control_c, 0, 67, 10
1, 442391, Note_off_c, 0, 63, 61
1, 442405, Control_c, 0, 67, 11
1, 442420, Control_c, 0, 67, 12
1, 442425, Note_on_c, 0, 43, 2
1, 442438, Note_on_c, 0, 60, 77
1, 442438, Note_off_c, 0, 62, 64
1, 442442, Control_c, 0, 67, 12
1, 442457, Control_c, 0, 67, 13
1, 442474, Note_off_c, 0, 43, 33
1, 442478, Note_off_c, 0, 51, 64
1, 442481, Note_off_c, 0, 39, 61
1, 442486, Control_c, 0, 67, 13
1, 442516, Note_on_c, 0, 58, 82
1, 442531, Note_off_c, 0, 60, 65
1, 442561, Control_c, 0, 67, 13
1, 442590, Control_c, 0, 67, 12
1, 442595, Note_on_c, 0, 57, 82
1, 442605, Control_c, 0, 67, 12
1, 442620, Control_c, 0, 67, 11
1, 442629, Note_off_c, 0, 58, 64
1, 442634, Control_c, 0, 67, 11
1, 442662, Note_on_c, 0, 55, 82
1, 442672, Note_off_c, 0, 57, 62
1, 442718, Note_off_c, 0, 55, 65
1, 442723, Control_c, 0, 67, 11
1, 442733, Note_on_c, 0, 53, 72
1, 442792, Note_off_c, 0, 53, 62
1, 442801, Note_on_c, 0, 51, 74
1, 442871, Control_c, 0, 67, 12
1, 442880, Note_on_c, 0, 50, 66
1, 442885, Note_off_c, 0, 51, 64
1, 442919, Note_off_c, 0, 50, 67
1, 442941, Note_on_c, 0, 48, 67
1, 442960, Control_c, 0, 67, 12
1, 442990, Control_c, 0, 67, 13
1, 443007, Note_off_c, 0, 48, 46
1, 443018, Note_on_c, 0, 46, 68
1, 443021, Control_c, 0, 67, 13
1, 443050, Control_c, 0, 67, 14
1, 443080, Control_c, 0, 67, 14
1, 443097, Note_on_c, 0, 45, 71
1, 443101, Note_on_c, 0, 40, 73
1, 443118, Note_off_c, 0, 46, 58
1, 443130, Note_off_c, 0, 40, 65
1, 443139, Control_c, 0, 67, 15
1, 443151, Note_off_c, 0, 45, 63
1, 443166, Note_on_c, 0, 43, 77
1, 443169, Control_c, 0, 67, 15
1, 443207, Note_off_c, 0, 43, 66
1, 443258, Note_on_c, 0, 29, 81
1, 443258, Note_on_c, 0, 41, 85
1, 443265, Control_c, 0, 67, 16
1, 443282, Note_off_c, 0, 41, 66
1, 443285, Note_off_c, 0, 29, 66
1, 443325, Control_c, 0, 67, 16
1, 443488, Control_c, 0, 67, 16
1, 443564, Note_on_c, 0, 41, 70
1, 443572, Note_on_c, 0, 29, 67
1, 443636, Control_c, 0, 67, 16
1, 443638, Note_on_c, 0, 53, 56
1, 443680, Control_c, 0, 67, 17
1, 443685, Note_off_c, 0, 53, 62
1, 443709, Note_on_c, 0, 57, 57
1, 443710, Control_c, 0, 67, 17
1, 443725, Control_c, 0, 67, 18
1, 443754, Control_c, 0, 67, 18
1, 443775, Note_off_c, 0, 57, 61
1, 443780, Note_on_c, 0, 60, 60
1, 443838, Note_off_c, 0, 60, 61
1, 443844, Note_on_c, 0, 65, 65
1, 443870, Note_off_c, 0, 41, 62
1, 443881, Note_off_c, 0, 29, 63
1, 443919, Note_off_c, 0, 65, 58
1, 443941, Control_c, 0, 67, 19
1, 443944, Note_on_c, 0, 57, 59
1, 443984, Note_off_c, 0, 57, 63
1, 444011, Note_on_c, 0, 60, 62
1, 444080, Note_off_c, 0, 60, 62
1, 444081, Note_on_c, 0, 65, 66
1, 444150, Note_on_c, 0, 69, 74
1, 444153, Note_off_c, 0, 65, 60
1, 444211, Note_off_c, 0, 69, 53
1, 444218, Note_on_c, 0, 60, 63
1, 444272, Note_off_c, 0, 60, 64
1, 444288, Note_on_c, 0, 65, 67
1, 444352, Note_on_c, 0, 69, 70
1, 444358, Note_off_c, 0, 65, 63
1, 444412, Note_on_c, 0, 72, 74
1, 444413, Note_off_c, 0, 69, 62
1, 444459, Control_c, 0, 67, 18
1, 444478, Note_on_c, 0, 65, 69
1, 444483, Note_off_c, 0, 72, 63
1, 444540, Note_on_c, 0, 69, 74
1, 444540, Note_off_c, 0, 65, 62
1, 444576, Control_c, 0, 67, 18
1, 444599, Note_on_c, 0, 72, 71
1, 444608, Note_off_c, 0, 69, 58
1, 444665, Control_c, 0, 67, 17
1, 444668, Note_on_c, 0, 77, 72
1, 444677, Note_off_c, 0, 72, 60
1, 444688, Control_c, 0, 67, 17
1, 444717, Control_c, 0, 67, 16
1, 444732, Control_c, 0, 64, 60
1, 444747, Control_c, 0, 64, 63
1, 444749, Note_on_c, 0, 69, 65
1, 444751, Note_off_c, 0, 77, 60
1, 444762, Control_c, 0, 64, 62
1, 444807, Note_off_c, 0, 69, 62
1, 444810, Note_on_c, 0, 72, 69
1, 444821, Control_c, 0, 64, 63
1, 444835, Control_c, 0, 64, 63
1, 444874, Note_on_c, 0, 77, 76
1, 444882, Note_off_c, 0, 72, 63
1, 444940, Note_on_c, 0, 81, 79
1, 444940, Control_c, 0, 64, 62
1, 444949, Note_off_c, 0, 77, 62
1, 444955, Control_c, 0, 64, 60
1, 444969, Control_c, 0, 64, 58
1, 444984, Control_c, 0, 64, 57
1, 444999, Control_c, 0, 64, 57
1, 445002, Note_off_c, 0, 81, 58
1, 445009, Note_on_c, 0, 72, 67
1, 445014, Control_c, 0, 64, 57
1, 445043, Control_c, 0, 64, 58
1, 445064, Note_off_c, 0, 72, 63
1, 445073, Control_c, 0, 64, 56
1, 445079, Note_on_c, 0, 77, 68
1, 445088, Control_c, 0, 64, 45
1, 445102, Control_c, 0, 64, 0
1, 445130, Note_off_c, 0, 77, 63
1, 445136, Note_on_c, 0, 81, 61
1, 445162, Control_c, 0, 67, 17
1, 445176, Control_c, 0, 67, 18
1, 445188, Note_on_c, 0, 84, 71
1, 445191, Note_off_c, 0, 81, 64
1, 445191, Control_c, 0, 67, 19
1, 445206, Control_c, 0, 67, 22
1, 445220, Control_c, 0, 67, 30
1, 445223, Note_off_c, 0, 84, 62
1, 445235, Control_c, 0, 67, 49
1, 445250, Control_c, 0, 67, 71
1, 445256, Note_on_c, 0, 77, 67
1, 445265, Control_c, 0, 67, 85
1, 445280, Control_c, 0, 67, 95
1, 445294, Control_c, 0, 67, 105
1, 445303, Note_off_c, 0, 77, 63
1, 445309, Control_c, 0, 67, 115
1, 445311, Note_on_c, 0, 81, 70
1, 445324, Control_c, 0, 67, 125
1, 445339, Control_c, 0, 67, 127
1, 445371, Note_on_c, 0, 84, 67
1, 445379, Note_off_c, 0, 81, 56
1, 445450, Note_off_c, 0, 84, 60
1, 445461, Note_on_c, 0, 69, 38
1, 445464, Note_on_c, 0, 89, 65
1, 445466, Note_on_c, 0, 65, 42
1, 445571, Note_off_c, 0, 69, 62
1, 445616, Note_on_c, 0, 72, 47
1, 445703, Control_c, 0, 64, 11
1, 445704, Note_off_c, 0, 89, 60
1, 445718, Control_c, 0, 64, 14
1, 445733, Control_c, 0, 64, 19
1, 445747, Control_c, 0, 64, 24
1, 445762, Control_c, 0, 64, 31
1, 445768, Note_on_c, 0, 70, 54
1, 445768, Note_off_c, 0, 72, 55
1, 445777, Control_c, 0, 64, 38
1, 445792, Control_c, 0, 64, 41
1, 445807, Control_c, 0, 64, 43
1, 445822, Control_c, 0, 64, 44
1, 445837, Control_c, 0, 64, 45
1, 445851, Control_c, 0, 64, 46
1, 445852, Note_off_c, 0, 65, 59
1, 445861, Note_off_c, 0, 70, 62
1, 445866, Control_c, 0, 64, 46
1, 445876, Note_on_c, 0, 89, 67
1, 445881, Control_c, 0, 64, 47
1, 445889, Note_on_c, 0, 67, 53
1, 445916, Note_off_c, 0, 89, 63
1, 445932, Note_on_c, 0, 88, 67
1, 445940, Control_c, 0, 64, 47
1, 445956, Note_off_c, 0, 88, 68
1, 445962, Note_on_c, 0, 86, 70
1, 445969, Control_c, 0, 64, 47
1, 445984, Control_c, 0, 64, 46
1, 445999, Control_c, 0, 64, 46
1, 446000, Note_off_c, 0, 86, 63
1, 446005, Note_on_c, 0, 88, 77
1, 446014, Control_c, 0, 64, 45
1, 446015, Note_off_c, 0, 67, 60
1, 446034, Note_on_c, 0, 69, 56
1, 446043, Control_c, 0, 64, 45
1, 446055, Note_on_c, 0, 89, 82
1, 446056, Note_on_c, 0, 65, 42
1, 446069, Note_off_c, 0, 88, 65
1, 446073, Control_c, 0, 64, 44
1, 446103, Control_c, 0, 64, 44
1, 446132, Control_c, 0, 64, 43
1, 446176, Note_off_c, 0, 69, 61
1, 446215, Note_on_c, 0, 72, 54
1, 446260, Control_c, 0, 64, 44
1, 446293, Note_off_c, 0, 89, 63
1, 446304, Control_c, 0, 64, 43
1, 446319, Control_c, 0, 64, 43
1, 446334, Control_c, 0, 64, 40
1, 446348, Control_c, 0, 64, 38
1, 446363, Note_on_c, 0, 70, 55
1, 446363, Note_off_c, 0, 72, 55
1, 446363, Control_c, 0, 64, 38
1, 446378, Control_c, 0, 64, 37
1, 446423, Control_c, 0, 64, 36
1, 446452, Control_c, 0, 64, 36
1, 446458, Note_off_c, 0, 70, 61
1, 446467, Control_c, 0, 64, 34
1, 446470, Note_off_c, 0, 65, 60
1, 446481, Control_c, 0, 64, 33
1, 446482, Note_on_c, 0, 89, 68
1, 446493, Note_on_c, 0, 67, 48
1, 446496, Control_c, 0, 64, 30
1, 446511, Control_c, 0, 64, 29
1, 446514, Note_off_c, 0, 89, 63
1, 446526, Control_c, 0, 64, 28
1, 446537, Note_on_c, 0, 88, 62
1, 446541, Control_c, 0, 64, 27
1, 446555, Control_c, 0, 64, 26
1, 446563, Note_off_c, 0, 88, 66
1, 446566, Note_on_c, 0, 86, 66
1, 446585, Control_c, 0, 64, 24
1, 446595, Note_off_c, 0, 86, 61
1, 446611, Note_on_c, 0, 88, 78
1, 446630, Control_c, 0, 64, 23
1, 446633, Note_off_c, 0, 67, 60
1, 446657, Note_on_c, 0, 69, 48
1, 446659, Note_on_c, 0, 89, 84
1, 446663, Note_off_c, 0, 88, 65
1, 446670, Note_on_c, 0, 65, 43
1, 446771, Note_off_c, 0, 69, 62
1, 446792, Control_c, 0, 64, 24
1, 446817, Note_on_c, 0, 72, 50
1, 446822, Control_c, 0, 64, 26
1, 446837, Note_off_c, 0, 89, 63
1, 446837, Control_c, 0, 64, 27
1, 446866, Control_c, 0, 64, 26
1, 446881, Control_c, 0, 64, 23
1, 446896, Control_c, 0, 64, 0
1, 446951, Note_off_c, 0, 72, 56
1, 446965, Note_on_c, 0, 70, 51
1, 447051, Note_off_c, 0, 70, 60
1, 447065, Note_off_c, 0, 65, 61
1, 447079, Note_on_c, 0, 77, 60
1, 447098, Note_on_c, 0, 67, 43
1, 447106, Note_off_c, 0, 77, 68
1, 447151, Note_on_c, 0, 76, 36
1, 447167, Note_on_c, 0, 74, 67
1, 447192, Note_off_c, 0, 74, 70
1, 447193, Note_off_c, 0, 76, 0
1, 447193, Note_on_c, 0, 76, 33
1, 447211, Note_off_c, 0, 67, 61
1, 447251, Note_on_c, 0, 69, 44
1, 447253, Note_on_c, 0, 77, 70
1, 447253, Note_off_c, 0, 76, 63
1, 447261, Note_on_c, 0, 65, 34
1, 447276, Note_off_c, 0, 77, 70
1, 447361, Note_off_c, 0, 69, 60
1, 447384, Note_off_c, 0, 65, 62
1, 447397, Note_on_c, 0, 72, 44
1, 447538, Note_off_c, 0, 72, 47
1, 447557, Note_on_c, 0, 77, 58
1, 447568, Note_on_c, 0, 65, 33
1, 447571, Note_on_c, 0, 69, 42
1, 447575, Note_off_c, 0, 77, 64
1, 447681, Note_off_c, 0, 69, 59
1, 447691, Note_off_c, 0, 65, 60
1, 447712, Note_on_c, 0, 72, 36
1, 447919, Note_on_c, 0, 77, 41
1, 447941, Note_on_c, 0, 65, 25
1, 447943, Note_on_c, 0, 69, 33
1, 448053, Note_off_c, 0, 72, 30
1, 448466, Note_off_c, 0, 77, 60
1, 448504, Note_on_c, 0, 79, 37
1, 448600, Note_on_c, 0, 77, 52
1, 448618, Note_off_c, 0, 79, 41
1, 448682, Note_off_c, 0, 77, 62
1, 448713, Note_on_c, 0, 76, 51
1, 448758, Note_off_c, 0, 76, 59
1, 448772, Note_off_c, 0, 69, 38
1, 448787, Note_on_c, 0, 77, 53
1, 448798, Note_off_c, 0, 65, 41
1, 448821, Note_off_c, 0, 77, 64
1, 448858, Note_on_c, 0, 79, 54
1, 448902, Note_off_c, 0, 79, 60
1, 448910, Note_on_c, 0, 77, 65
1, 448951, Note_off_c, 0, 77, 64
1, 448978, Note_on_c, 0, 76, 58
1, 449016, Note_off_c, 0, 76, 58
1, 449050, Note_on_c, 0, 77, 52
1, 449071, Note_off_c, 0, 77, 63
1, 449114, Note_on_c, 0, 79, 55
1, 449152, Note_off_c, 0, 79, 61
1, 449162, Note_on_c, 0, 77, 53
1, 449205, Note_off_c, 0, 77, 63
1, 449239, Note_on_c, 0, 76, 50
1, 449295, Note_off_c, 0, 76, 53
1, 449331, Note_on_c, 0, 77, 46
1, 449766, Note_off_c, 0, 77, 62
1, 449792, Note_on_c, 0, 79, 53
1, 449854, Note_off_c, 0, 79, 52
1, 449884, Note_on_c, 0, 77, 58
1, 449929, Note_off_c, 0, 77, 61
1, 449961, Note_on_c, 0, 76, 51
1, 449990, Note_off_c, 0, 76, 57
1, 450034, Note_on_c, 0, 77, 65
1, 450081, Note_off_c, 0, 77, 57
1, 450103, Note_on_c, 0, 79, 72
1, 450156, Note_off_c, 0, 79, 60
1, 450173, Note_on_c, 0, 75, 72
1, 450222, Note_on_c, 0, 77, 70
1, 450226, Note_off_c, 0, 75, 61
1, 450252, Note_off_c, 0, 77, 62
1, 450284, Note_on_c, 0, 74, 75
1, 450309, Note_off_c, 0, 74, 67
1, 450341, Note_on_c, 0, 75, 73
1, 450368, Note_off_c, 0, 75, 65
1, 450399, Note_on_c, 0, 72, 74
1, 450444, Note_off_c, 0, 72, 62
1, 450445, Note_on_c, 0, 74, 66
1, 450505, Note_off_c, 0, 74, 63
1, 450510, Note_on_c, 0, 70, 72
1, 450531, Note_off_c, 0, 70, 70
1, 450661, Note_on_c, 0, 58, 52
1, 450681, Note_on_c, 0, 70, 57
1, 450700, Note_off_c, 0, 70, 63
1, 450789, Note_off_c, 0, 58, 59
1, 450806, Note_on_c, 0, 72, 59
1, 450822, Note_on_c, 0, 62, 38
1, 450847, Note_off_c, 0, 72, 62
1, 450861, Note_off_c, 0, 62, 59
1, 450865, Note_on_c, 0, 70, 58
1, 450904, Note_off_c, 0, 70, 64
1, 450916, Note_on_c, 0, 58, 49
1, 450935, Note_on_c, 0, 69, 61
1, 450973, Note_off_c, 0, 69, 54
1, 451005, Note_on_c, 0, 70, 55
1, 451037, Note_off_c, 0, 58, 58
1, 451042, Note_off_c, 0, 70, 65
1, 451046, Note_on_c, 0, 63, 52
1, 451046, Note_on_c, 0, 72, 69
1, 451068, Note_off_c, 0, 72, 69
1, 451175, Note_off_c, 0, 63, 38
1, 451182, Note_on_c, 0, 58, 47
1, 451200, Note_on_c, 0, 65, 63
1, 451227, Note_off_c, 0, 65, 68
1, 451314, Note_off_c, 0, 58, 58
1, 451332, Note_on_c, 0, 67, 71
1, 451335, Note_on_c, 0, 63, 44
1, 451357, Note_off_c, 0, 67, 67
1, 451455, Note_off_c, 0, 63, 52
1, 451467, Note_on_c, 0, 58, 47
1, 451484, Note_on_c, 0, 69, 67
1, 451510, Note_off_c, 0, 69, 66
1, 451620, Note_on_c, 0, 70, 63
1, 451627, Note_on_c, 0, 62, 48
1, 451678, Note_off_c, 0, 58, 36
1, 451744, Note_off_c, 0, 62, 60
1, 451776, Note_on_c, 0, 65, 48
1, 451873, Note_off_c, 0, 65, 58
1, 451916, Note_on_c, 0, 58, 55
1, 451929, Note_off_c, 0, 70, 59
1, 451981, Note_on_c, 0, 65, 59
1, 452016, Note_off_c, 0, 65, 62
1, 452046, Note_on_c, 0, 67, 65
1, 452100, Note_off_c, 0, 67, 61
1, 452104, Note_on_c, 0, 69, 68
1, 452153, Note_on_c, 0, 70, 73
1, 452153, Note_off_c, 0, 69, 61
1, 452174, Note_off_c, 0, 58, 63
1, 452192, Note_off_c, 0, 70, 64
1, 452234, Note_on_c, 0, 72, 74
1, 452276, Note_off_c, 0, 72, 60
1, 452291, Note_on_c, 0, 74, 74
1, 452343, Note_off_c, 0, 74, 62
1, 452348, Note_on_c, 0, 75, 73
1, 452387, Note_off_c, 0, 75, 64
1, 452412, Note_on_c, 0, 77, 73
1, 452461, Note_off_c, 0, 77, 56
1, 452484, Note_on_c, 0, 79, 66
1, 452537, Note_on_c, 0, 81, 70
1, 452540, Note_off_c, 0, 79, 60
1, 452547, Note_on_c, 0, 74, 60
1, 452577, Note_off_c, 0, 81, 63
1, 452605, Note_on_c, 0, 82, 71
1, 452669, Note_off_c, 0, 74, 63
1, 452684, Note_off_c, 0, 82, 63
1, 452686, Note_on_c, 0, 75, 58
1, 452687, Note_on_c, 0, 81, 76
1, 452737, Note_off_c, 0, 81, 60
1, 452739, Note_on_c, 0, 79, 68
1, 452782, Note_off_c, 0, 79, 62
1, 452800, Note_off_c, 0, 75, 63
1, 452800, Note_on_c, 0, 77, 71
1, 452808, Note_on_c, 0, 74, 67
1, 452854, Note_off_c, 0, 77, 62
1, 452865, Note_on_c, 0, 79, 66
1, 452905, Note_off_c, 0, 74, 63
1, 452936, Note_on_c, 0, 81, 68
1, 452941, Note_off_c, 0, 79, 59
1, 452949, Note_on_c, 0, 72, 59
1, 452987, Note_off_c, 0, 81, 60
1, 452991, Note_on_c, 0, 82, 73
1, 453019, Note_off_c, 0, 82, 63
1, 453064, Note_on_c, 0, 84, 71
1, 453078, Note_off_c, 0, 72, 51
1, 453080, Note_on_c, 0, 70, 54
1, 453101, Note_off_c, 0, 84, 62
1, 453132, Note_on_c, 0, 86, 72
1, 453180, Note_off_c, 0, 70, 63
1, 453190, Note_off_c, 0, 86, 64
1, 453201, Note_on_c, 0, 87, 71
1, 453203, Note_on_c, 0, 69, 53
1, 453226, Note_off_c, 0, 87, 69
1, 453309, Note_off_c, 0, 69, 60
1, 453343, Note_on_c, 0, 65, 47
1, 453349, Note_on_c, 0, 87, 79
1, 453370, Note_off_c, 0, 87, 71
1, 453474, Note_off_c, 0, 65, 63
1, 453489, Note_on_c, 0, 87, 61
1, 453495, Note_on_c, 0, 70, 53
1, 453527, Note_off_c, 0, 87, 64
1, 453548, Note_on_c, 0, 86, 64
1, 453591, Note_off_c, 0, 86, 65
1, 453592, Note_off_c, 0, 70, 62
1, 453611, Note_on_c, 0, 84, 65
1, 453621, Note_on_c, 0, 65, 48
1, 453639, Note_off_c, 0, 84, 66
1, 453698, Note_on_c, 0, 86, 64
1, 453733, Note_off_c, 0, 86, 63
1, 453750, Note_on_c, 0, 84, 59
1, 453772, Note_on_c, 0, 69, 51
1, 453883, Note_off_c, 0, 69, 60
1, 453901, Note_off_c, 0, 65, 43
1, 453923, Note_on_c, 0, 72, 46
1, 454014, Note_off_c, 0, 84, 62
1, 454056, Note_on_c, 0, 65, 55
1, 454058, Note_off_c, 0, 72, 54
1, 454201, Note_on_c, 0, 77, 71
1, 454238, Note_off_c, 0, 77, 60
1, 454269, Note_on_c, 0, 76, 70
1, 454290, Note_off_c, 0, 65, 59
1, 454332, Note_on_c, 0, 77, 82
1, 454333, Note_off_c, 0, 76, 39
1, 454389, Note_on_c, 0, 79, 81
1, 454401, Control_c, 0, 67, 117
1, 454402, Note_off_c, 0, 77, 64
1, 454422, Control_c, 0, 67, 95
1, 454437, Control_c, 0, 67, 66
1, 454452, Control_c, 0, 67, 46
1, 454460, Note_off_c, 0, 79, 63
1, 454461, Note_on_c, 0, 75, 86
1, 454467, Control_c, 0, 67, 31
1, 454482, Control_c, 0, 67, 22
1, 454496, Control_c, 0, 67, 15
1, 454511, Control_c, 0, 67, 11
1, 454526, Note_on_c, 0, 77, 80
1, 454526, Control_c, 0, 67, 8
1, 454537, Note_off_c, 0, 75, 63
1, 454541, Control_c, 0, 67, 0
1, 454573, Note_off_c, 0, 77, 64
1, 454577, Note_on_c, 0, 74, 86
1, 454620, Note_off_c, 0, 74, 67
1, 454643, Note_on_c, 0, 75, 79
1, 454685, Note_off_c, 0, 75, 61
1, 454694, Note_on_c, 0, 72, 86
1, 454747, Note_on_c, 0, 74, 85
1, 454759, Note_off_c, 0, 72, 63
1, 454793, Control_c, 0, 64, 17
1, 454808, Control_c, 0, 64, 27
1, 454815, Note_on_c, 0, 70, 92
1, 454820, Note_off_c, 0, 74, 67
1, 454822, Control_c, 0, 64, 32
1, 454837, Control_c, 0, 64, 35
1, 454850, Note_off_c, 0, 70, 66
1, 454852, Control_c, 0, 64, 37
1, 454867, Control_c, 0, 64, 39
1, 454882, Control_c, 0, 64, 43
1, 454896, Control_c, 0, 64, 46
1, 454911, Control_c, 0, 64, 47
1, 454926, Control_c, 0, 64, 48
1, 454941, Control_c, 0, 64, 45
1, 454955, Control_c, 0, 64, 0
1, 454959, Note_on_c, 0, 70, 92
1, 454963, Note_on_c, 0, 50, 96
1, 454963, Note_on_c, 0, 62, 91
1, 454983, Note_off_c, 0, 62, 69
1, 454986, Note_off_c, 0, 50, 72
1, 454991, Note_off_c, 0, 70, 63
1, 455103, Note_on_c, 0, 72, 88
1, 455105, Note_on_c, 0, 48, 103
1, 455105, Note_on_c, 0, 60, 93
1, 455125, Note_off_c, 0, 48, 73
1, 455125, Note_off_c, 0, 60, 69
1, 455181, Note_on_c, 0, 70, 81
1, 455182, Note_off_c, 0, 72, 62
1, 455233, Note_off_c, 0, 70, 65
1, 455245, Note_on_c, 0, 58, 101
1, 455248, Note_on_c, 0, 46, 91
1, 455248, Note_on_c, 0, 69, 72
1, 455286, Note_off_c, 0, 58, 59
1, 455292, Note_off_c, 0, 46, 63
1, 455305, Note_on_c, 0, 70, 80
1, 455318, Note_off_c, 0, 69, 60
1, 455376, Note_on_c, 0, 72, 89
1, 455377, Note_on_c, 0, 45, 96
1, 455379, Note_on_c, 0, 57, 96
1, 455386, Note_off_c, 0, 70, 64
1, 455400, Note_off_c, 0, 57, 68
1, 455403, Note_off_c, 0, 45, 67
1, 455409, Note_off_c, 0, 72, 67
1, 455410, Note_on_c, 0, 46, 37
1, 455411, Note_off_c, 0, 46, 127
1, 455521, Note_on_c, 0, 43, 92
1, 455525, Note_on_c, 0, 55, 85
1, 455528, Note_on_c, 0, 65, 87
1, 455546, Note_off_c, 0, 43, 66
1, 455546, Note_off_c, 0, 55, 71
1, 455563, Note_off_c, 0, 65, 62
1, 455659, Note_on_c, 0, 41, 96
1, 455659, Control_c, 0, 64, 54
1, 455662, Note_on_c, 0, 53, 91
1, 455664, Note_on_c, 0, 67, 96
1, 455674, Control_c, 0, 64, 38
1, 455683, Note_off_c, 0, 41, 69
1, 455684, Note_off_c, 0, 53, 73
1, 455689, Note_off_c, 0, 67, 65
1, 455689, Control_c, 0, 64, 42
1, 455705, Control_c, 0, 64, 47
1, 455719, Control_c, 0, 64, 49
1, 455734, Control_c, 0, 64, 51
1, 455749, Control_c, 0, 64, 53
1, 455763, Control_c, 0, 64, 47
1, 455778, Control_c, 0, 64, 0
1, 455805, Note_on_c, 0, 39, 82
1, 455805, Note_on_c, 0, 51, 87
1, 455817, Note_on_c, 0, 69, 88
1, 455829, Note_off_c, 0, 51, 70
1, 455838, Note_off_c, 0, 39, 64
1, 455854, Note_off_c, 0, 69, 59
1, 455959, Note_on_c, 0, 50, 88
1, 455959, Note_on_c, 0, 70, 84
1, 455965, Note_on_c, 0, 38, 75
1, 455980, Control_c, 0, 64, 59
1, 455984, Note_off_c, 0, 50, 72
1, 455986, Note_off_c, 0, 38, 62
1, 455994, Control_c, 0, 64, 82
1, 456009, Control_c, 0, 64, 94
1, 456024, Control_c, 0, 64, 114
1, 456039, Control_c, 0, 64, 123
1, 456054, Control_c, 0, 64, 127
1, 456102, Note_on_c, 0, 41, 86
1, 456165, Poly_aftertouch_c, 0, 50, 127
1, 456196, Poly_aftertouch_c, 0, 50, 0
1, 456248, Note_on_c, 0, 46, 77
1, 456294, Note_off_c, 0, 70, 57
1, 456306, Control_c, 0, 64, 118
1, 456306, Note_on_c, 0, 65, 71
1, 456321, Control_c, 0, 64, 112
1, 456335, Control_c, 0, 64, 107
1, 456350, Control_c, 0, 64, 101
1, 456365, Control_c, 0, 64, 95
1, 456371, Note_off_c, 0, 65, 64
1, 456378, Note_on_c, 0, 50, 79
1, 456378, Note_on_c, 0, 67, 77
1, 456379, Control_c, 0, 64, 88
1, 456394, Control_c, 0, 64, 83
1, 456401, Note_off_c, 0, 41, 54
1, 456408, Note_off_c, 0, 46, 60
1, 456409, Control_c, 0, 64, 78
1, 456424, Control_c, 0, 64, 75
1, 456437, Note_on_c, 0, 69, 75
1, 456439, Control_c, 0, 64, 73
1, 456453, Control_c, 0, 64, 72
1, 456454, Note_off_c, 0, 67, 59
1, 456468, Control_c, 0, 64, 69
1, 456483, Control_c, 0, 64, 65
1, 456489, Note_on_c, 0, 70, 75
1, 456497, Note_off_c, 0, 50, 65
1, 456498, Control_c, 0, 64, 61
1, 456503, Note_off_c, 0, 69, 60
1, 456506, Note_on_c, 0, 53, 82
1, 456512, Control_c, 0, 64, 58
1, 456527, Control_c, 0, 64, 57
1, 456532, Note_off_c, 0, 70, 58
1, 456559, Note_on_c, 0, 72, 78
1, 456588, Control_c, 0, 64, 57
1, 456617, Control_c, 0, 64, 57
1, 456625, Note_off_c, 0, 72, 63
1, 456625, Note_on_c, 0, 58, 82
1, 456628, Note_on_c, 0, 74, 81
1, 456640, Note_off_c, 0, 53, 62
1, 456647, Control_c, 0, 64, 58
1, 456670, Control_c, 0, 64, 58
1, 456693, Note_on_c, 0, 75, 81
1, 456696, Note_off_c, 0, 74, 66
1, 456714, Control_c, 0, 64, 58
1, 456729, Control_c, 0, 64, 57
1, 456744, Control_c, 0, 64, 55
1, 456750, Note_off_c, 0, 75, 65
1, 456759, Control_c, 0, 64, 41
1, 456760, Note_on_c, 0, 62, 76
1, 456770, Note_on_c, 0, 77, 76
1, 456773, Control_c, 0, 64, 0
1, 456789, Note_off_c, 0, 58, 58
1, 456837, Note_on_c, 0, 79, 81
1, 456840, Note_off_c, 0, 77, 61
1, 456888, Note_on_c, 0, 65, 70
1, 456888, Note_off_c, 0, 62, 63
1, 456896, Note_on_c, 0, 81, 78
1, 456917, Note_off_c, 0, 79, 60
1, 456949, Note_on_c, 0, 82, 81
1, 456975, Note_off_c, 0, 81, 58
1, 456997, Note_off_c, 0, 65, 64
1, 457003, Note_on_c, 0, 62, 73
1, 457031, Note_on_c, 0, 77, 75
1, 457048, Note_off_c, 0, 82, 63
1, 457144, Note_off_c, 0, 77, 58
1, 457146, Note_off_c, 0, 62, 61
1, 457158, Note_on_c, 0, 79, 72
1, 457170, Note_on_c, 0, 65, 69
1, 457225, Note_off_c, 0, 79, 58
1, 457227, Note_on_c, 0, 81, 73
1, 457266, Note_on_c, 0, 82, 75
1, 457269, Note_off_c, 0, 65, 60
1, 457278, Note_on_c, 0, 62, 66
1, 457282, Note_off_c, 0, 81, 61
1, 457304, Control_c, 0, 64, 11
1, 457307, Note_off_c, 0, 82, 62
1, 457319, Control_c, 0, 64, 14
1, 457338, Note_on_c, 0, 84, 71
1, 457391, Note_off_c, 0, 62, 62
1, 457409, Note_on_c, 0, 58, 64
1, 457409, Note_off_c, 0, 84, 61
1, 457413, Note_on_c, 0, 86, 75
1, 457446, Control_c, 0, 64, 17
1, 457470, Note_on_c, 0, 87, 70
1, 457483, Note_off_c, 0, 86, 62
1, 457491, Control_c, 0, 64, 14
1, 457506, Control_c, 0, 64, 11
1, 457525, Note_off_c, 0, 87, 64
1, 457534, Note_on_c, 0, 89, 79
1, 457539, Note_on_c, 0, 53, 72
1, 457558, Note_off_c, 0, 58, 57
1, 457570, Note_off_c, 0, 89, 62
1, 457579, Control_c, 0, 64, 14
1, 457594, Control_c, 0, 64, 17
1, 457618, Note_off_c, 0, 53, 66
1, 457624, Control_c, 0, 64, 19
1, 457638, Control_c, 0, 64, 21
1, 457653, Control_c, 0, 64, 24
1, 457668, Control_c, 0, 64, 29
1, 457683, Control_c, 0, 64, 34
1, 457697, Note_on_c, 0, 89, 74
1, 457698, Control_c, 0, 64, 40
1, 457713, Control_c, 0, 64, 46
1, 457728, Control_c, 0, 64, 51
1, 457729, Note_off_c, 0, 89, 59
1, 457743, Control_c, 0, 64, 55
1, 457757, Control_c, 0, 64, 59
1, 457772, Control_c, 0, 64, 62
1, 457787, Control_c, 0, 64, 63
1, 457802, Control_c, 0, 64, 64
1, 457817, Control_c, 0, 64, 65
1, 457831, Note_on_c, 0, 89, 78
1, 457831, Control_c, 0, 64, 64
1, 457835, Note_on_c, 0, 48, 59
1, 457838, Note_on_c, 0, 41, 57
1, 457843, Note_on_c, 0, 53, 47
1, 457846, Control_c, 0, 64, 45
1, 457847, Note_on_c, 0, 45, 53
1, 457861, Control_c, 0, 64, 0
1, 457886, Note_off_c, 0, 41, 59
1, 457889, Note_off_c, 0, 48, 63
1, 457892, Note_off_c, 0, 45, 62
1, 457901, Note_on_c, 0, 87, 72
1, 457909, Note_off_c, 0, 89, 58
1, 457972, Note_off_c, 0, 87, 63
1, 457972, Note_on_c, 0, 86, 65
1, 458020, Note_off_c, 0, 86, 64
1, 458047, Note_on_c, 0, 84, 60
1, 458127, Note_off_c, 0, 53, 66
1, 458130, Note_on_c, 0, 46, 63
1, 458139, Note_off_c, 0, 84, 63
1, 458142, Note_on_c, 0, 82, 68
1, 458162, Note_off_c, 0, 46, 64
1, 458164, Control_c, 0, 64, 53
1, 458180, Control_c, 0, 64, 79
1, 458195, Control_c, 0, 64, 98
1, 458210, Control_c, 0, 64, 127
1, 458232, Note_off_c, 0, 82, 51
1, 458294, Note_on_c, 0, 34, 86
1, 458339, Note_off_c, 0, 34, 60
1, 458357, Note_on_c, 0, 46, 75
1, 458358, Control_c, 0, 64, 104
1, 458373, Control_c, 0, 64, 71
1, 458381, Note_off_c, 0, 46, 65
1, 458387, Control_c, 0, 64, 0
1, 458420, Note_on_c, 0, 36, 95
1, 458461, Note_off_c, 0, 36, 63
1, 458476, Control_c, 0, 64, 27
1, 458486, Note_on_c, 0, 48, 85
1, 458491, Control_c, 0, 64, 38
1, 458506, Control_c, 0, 64, 47
1, 458513, Note_off_c, 0, 48, 68
1, 458521, Control_c, 0, 64, 56
1, 458536, Control_c, 0, 64, 63
1, 458550, Control_c, 0, 64, 66
1, 458557, Note_on_c, 0, 38, 87
1, 458565, Control_c, 0, 64, 70
1, 458577, Note_on_c, 0, 40, 60
1, 458580, Control_c, 0, 64, 74
1, 458595, Control_c, 0, 64, 78
1, 458606, Note_off_c, 0, 40, 36
1, 458609, Note_off_c, 0, 38, 63
1, 458610, Control_c, 0, 64, 83
1, 458610, Note_on_c, 0, 50, 89
1, 458625, Control_c, 0, 64, 84
1, 458646, Note_off_c, 0, 50, 66
1, 458654, Control_c, 0, 64, 75
1, 458669, Control_c, 0, 64, 0
1, 458685, Note_on_c, 0, 39, 86
1, 458688, Note_on_c, 0, 43, 30
1, 458698, Poly_aftertouch_c, 0, 44, 0
1, 458717, Note_off_c, 0, 43, 48
1, 458743, Note_on_c, 0, 51, 87
1, 458747, Note_off_c, 0, 39, 62
1, 458771, Note_off_c, 0, 51, 69
1, 458828, Note_on_c, 0, 36, 92
1, 458849, Note_on_c, 0, 38, 63
1, 458863, Note_off_c, 0, 36, 63
1, 458875, Note_off_c, 0, 38, 61
1, 458905, Note_on_c, 0, 48, 71
1, 458928, Control_c, 0, 64, 61
1, 458931, Note_off_c, 0, 48, 64
1, 458943, Control_c, 0, 64, 93
1, 458948, Poly_aftertouch_c, 0, 72, 0
1, 458958, Control_c, 0, 64, 127
1, 458962, Note_on_c, 0, 72, 24
1, 458965, Note_on_c, 0, 81, 98
1, 458967, Note_on_c, 0, 69, 91
1, 458968, Note_on_c, 0, 41, 95
1, 458977, Note_on_c, 0, 77, 81
1, 458987, Note_off_c, 0, 69, 65
1, 458989, Control_c, 0, 64, 80
1, 459000, Note_off_c, 0, 77, 70
1, 459000, Note_off_c, 0, 41, 63
1, 459000, Note_off_c, 0, 72, 66
1, 459002, Note_off_c, 0, 81, 70
1, 459003, Control_c, 0, 64, 0
1, 459024, Note_on_c, 0, 53, 91
1, 459060, Note_off_c, 0, 53, 63
1, 459110, Note_on_c, 0, 39, 82
1, 459161, Note_on_c, 0, 51, 82
1, 459170, Note_off_c, 0, 39, 61
1, 459200, Note_off_c, 0, 51, 63
1, 459240, Control_c, 0, 64, 65
1, 459245, Note_on_c, 0, 38, 91
1, 459245, Note_on_c, 0, 82, 98
1, 459251, Note_on_c, 0, 70, 93
1, 459255, Note_on_c, 0, 74, 87
1, 459255, Control_c, 0, 64, 127
1, 459262, Note_on_c, 0, 77, 74
1, 459281, Note_off_c, 0, 38, 64
1, 459283, Note_off_c, 0, 70, 62
1, 459284, Note_on_c, 0, 50, 91
1, 459290, Note_off_c, 0, 74, 66
1, 459295, Note_off_c, 0, 82, 69
1, 459299, Note_off_c, 0, 77, 58
1, 459320, Note_off_c, 0, 50, 64
1, 459343, Control_c, 0, 64, 83
1, 459358, Control_c, 0, 64, 0
1, 459392, Note_on_c, 0, 34, 80
1, 459432, Note_off_c, 0, 34, 62
1, 459454, Note_on_c, 0, 46, 72
1, 459477, Note_off_c, 0, 46, 65
1, 459525, Note_on_c, 0, 36, 94
1, 459567, Note_off_c, 0, 36, 60
1, 459591, Note_on_c, 0, 48, 75
1, 459622, Note_off_c, 0, 48, 65
1, 459663, Control_c, 0, 64, 27
1, 459665, Note_on_c, 0, 38, 89
1, 459678, Control_c, 0, 64, 38
1, 459692, Control_c, 0, 64, 46
1, 459707, Control_c, 0, 64, 54
1, 459710, Note_off_c, 0, 38, 61
1, 459722, Control_c, 0, 64, 61
1, 459731, Note_on_c, 0, 50, 79
1, 459737, Control_c, 0, 64, 64
1, 459752, Control_c, 0, 64, 66
1, 459761, Note_off_c, 0, 50, 69
1, 459767, Control_c, 0, 64, 65
1, 459782, Control_c, 0, 64, 47
1, 459797, Control_c, 0, 64, 0
1, 459800, Note_on_c, 0, 39, 83
1, 459857, Note_on_c, 0, 51, 83
1, 459873, Note_off_c, 0, 39, 60
1, 459882, Note_off_c, 0, 51, 70
1, 459939, Note_on_c, 0, 36, 92
1, 459970, Note_off_c, 0, 36, 62
1, 460008, Note_on_c, 0, 48, 75
1, 460034, Control_c, 0, 64, 65
1, 460035, Note_off_c, 0, 48, 65
1, 460049, Control_c, 0, 64, 103
1, 460064, Control_c, 0, 64, 127
1, 460072, Note_on_c, 0, 81, 97
1, 460074, Note_on_c, 0, 41, 93
1, 460074, Note_on_c, 0, 69, 103
1, 460077, Note_on_c, 0, 72, 82
1, 460085, Note_on_c, 0, 77, 77
1, 460094, Control_c, 0, 64, 91
1, 460096, Note_off_c, 0, 69, 66
1, 460101, Note_off_c, 0, 72, 66
1, 460107, Note_off_c, 0, 77, 69
1, 460108, Control_c, 0, 64, 66
1, 460110, Note_off_c, 0, 81, 68
1, 460111, Note_off_c, 0, 41, 64
1, 460123, Control_c, 0, 64, 0
1, 460130, Note_on_c, 0, 53, 90
1, 460161, Note_off_c, 0, 53, 66
1, 460219, Note_on_c, 0, 39, 81
1, 460267, Note_on_c, 0, 51, 77
1, 460280, Note_off_c, 0, 39, 62
1, 460302, Note_off_c, 0, 51, 66
1, 460345, Control_c, 0, 64, 61
1, 460354, Note_on_c, 0, 38, 91
1, 460354, Note_on_c, 0, 82, 101
1, 460358, Note_on_c, 0, 70, 98
1, 460360, Control_c, 0, 64, 114
1, 460363, Note_on_c, 0, 74, 89
1, 460371, Note_on_c, 0, 77, 76
1, 460375, Control_c, 0, 64, 127
1, 460396, Note_off_c, 0, 70, 64
1, 460406, Note_on_c, 0, 50, 91
1, 460410, Note_off_c, 0, 38, 63
1, 460412, Note_off_c, 0, 74, 63
1, 460417, Note_off_c, 0, 82, 69
1, 460425, Note_off_c, 0, 77, 59
1, 460442, Note_off_c, 0, 50, 64
1, 460471, Control_c, 0, 64, 109
1, 460485, Control_c, 0, 64, 72
1, 460500, Control_c, 0, 64, 0
1, 460511, Note_on_c, 0, 34, 85
1, 460554, Note_off_c, 0, 34, 63
1, 460575, Note_on_c, 0, 46, 70
1, 460603, Note_off_c, 0, 46, 64
1, 460646, Note_on_c, 0, 36, 93
1, 460682, Note_off_c, 0, 36, 61
1, 460708, Note_on_c, 0, 48, 74
1, 460739, Note_off_c, 0, 48, 66
1, 460768, Control_c, 0, 64, 36
1, 460774, Note_on_c, 0, 38, 88
1, 460783, Control_c, 0, 64, 50
1, 460798, Control_c, 0, 64, 60
1, 460813, Control_c, 0, 64, 64
1, 460819, Note_off_c, 0, 38, 60
1, 460828, Control_c, 0, 64, 66
1, 460840, Note_on_c, 0, 50, 80
1, 460843, Control_c, 0, 64, 67
1, 460857, Control_c, 0, 64, 68
1, 460869, Note_off_c, 0, 50, 70
1, 460887, Control_c, 0, 64, 66
1, 460901, Control_c, 0, 64, 29
1, 460908, Note_on_c, 0, 39, 79
1, 460916, Control_c, 0, 64, 0
1, 460965, Note_on_c, 0, 51, 78
1, 460978, Note_off_c, 0, 39, 59
1, 460987, Note_off_c, 0, 51, 67
1, 461019, Poly_aftertouch_c, 0, 43, 0
1, 461053, Note_on_c, 0, 36, 73
1, 461063, Note_on_c, 0, 38, 71
1, 461084, Note_off_c, 0, 36, 62
1, 461093, Note_off_c, 0, 38, 65
1, 461136, Note_on_c, 0, 50, 50
1, 461175, Note_off_c, 0, 50, 57
1, 461175, Control_c, 0, 64, 75
1, 461186, Note_on_c, 0, 41, 90
1, 461187, Note_on_c, 0, 81, 101
1, 461189, Note_on_c, 0, 69, 94
1, 461189, Control_c, 0, 64, 108
1, 461202, Note_on_c, 0, 77, 75
1, 461204, Control_c, 0, 64, 127
1, 461210, Note_off_c, 0, 69, 66
1, 461221, Note_on_c, 0, 72, 29
1, 461224, Note_off_c, 0, 77, 70
1, 461234, Control_c, 0, 64, 93
1, 461236, Note_off_c, 0, 41, 61
1, 461236, Note_off_c, 0, 81, 68
1, 461249, Control_c, 0, 64, 69
1, 461251, Note_off_c, 0, 72, 57
1, 461263, Note_on_c, 0, 53, 66
1, 461263, Control_c, 0, 64, 0
1, 461269, Note_on_c, 0, 54, 59
1, 461288, Note_off_c, 0, 53, 68
1, 461297, Note_off_c, 0, 54, 60
1, 461337, Note_on_c, 0, 39, 72
1, 461380, Note_on_c, 0, 51, 84
1, 461400, Note_off_c, 0, 39, 61
1, 461406, Note_off_c, 0, 51, 69
1, 461470, Note_on_c, 0, 82, 100
1, 461472, Note_on_c, 0, 70, 93
1, 461472, Control_c, 0, 64, 68
1, 461477, Note_on_c, 0, 50, 95
1, 461483, Note_on_c, 0, 38, 84
1, 461484, Note_on_c, 0, 74, 65
1, 461487, Control_c, 0, 64, 109
1, 461498, Note_off_c, 0, 50, 75
1, 461502, Control_c, 0, 64, 127
1, 461503, Note_off_c, 0, 74, 66
1, 461506, Note_off_c, 0, 38, 67
1, 461511, Note_off_c, 0, 70, 60
1, 461513, Note_off_c, 0, 82, 68
1, 461622, Note_on_c, 0, 65, 83
1, 461659, Note_off_c, 0, 65, 63
1, 461675, Note_on_c, 0, 77, 87
1, 461731, Note_off_c, 0, 77, 61
1, 461751, Note_on_c, 0, 67, 90
1, 461790, Note_off_c, 0, 67, 66
1, 461797, Control_c, 0, 64, 98
1, 461812, Control_c, 0, 64, 84
1, 461814, Note_on_c, 0, 79, 84
1, 461827, Control_c, 0, 64, 71
1, 461842, Control_c, 0, 64, 55
1, 461844, Note_off_c, 0, 79, 58
1, 461857, Control_c, 0, 64, 0
1, 461870, Note_on_c, 0, 69, 86
1, 461921, Note_off_c, 0, 69, 64
1, 461925, Note_on_c, 0, 81, 85
1, 461968, Note_off_c, 0, 81, 63
1, 461999, Note_on_c, 0, 70, 87
1, 462049, Note_off_c, 0, 70, 64
1, 462064, Note_on_c, 0, 82, 79
1, 462098, Note_off_c, 0, 82, 64
1, 462127, Note_on_c, 0, 72, 80
1, 462164, Note_off_c, 0, 72, 66
1, 462189, Note_on_c, 0, 84, 76
1, 462206, Control_c, 0, 67, 8
1, 462211, Note_off_c, 0, 84, 70
1, 462221, Control_c, 0, 67, 9
1, 462235, Control_c, 0, 67, 13
1, 462250, Control_c, 0, 67, 20
1, 462254, Note_on_c, 0, 74, 78
1, 462265, Control_c, 0, 67, 32
1, 462280, Note_off_c, 0, 74, 67
1, 462280, Control_c, 0, 67, 46
1, 462295, Control_c, 0, 67, 59
1, 462298, Note_on_c, 0, 86, 74
1, 462309, Control_c, 0, 64, 11
1, 462309, Control_c, 0, 67, 71
1, 462324, Control_c, 0, 64, 57
1, 462324, Control_c, 0, 67, 87
1, 462339, Control_c, 0, 64, 64
1, 462339, Control_c, 0, 67, 103
1, 462342, Note_off_c, 0, 86, 63
1, 462354, Control_c, 0, 64, 69
1, 462354, Control_c, 0, 67, 120
1, 462369, Control_c, 0, 64, 74
1, 462369, Control_c, 0, 67, 127
1, 462379, Note_on_c, 0, 75, 66
1, 462384, Control_c, 0, 64, 80
1, 462399, Control_c, 0, 64, 84
1, 462411, Note_off_c, 0, 75, 58
1, 462414, Control_c, 0, 64, 86
1, 462426, Note_on_c, 0, 87, 72
1, 462428, Control_c, 0, 64, 86
1, 462458, Note_off_c, 0, 87, 61
1, 462577, Control_c, 0, 64, 86
1, 462592, Control_c, 0, 64, 83
1, 462593, Note_on_c, 0, 89, 63
1, 462602, Note_on_c, 0, 56, 37
1, 462604, Note_on_c, 0, 77, 44
1, 462607, Control_c, 0, 64, 78
1, 462621, Control_c, 0, 64, 69
1, 462636, Control_c, 0, 64, 52
1, 462658, Control_c, 0, 64, 0
1, 462762, Control_c, 0, 64, 60
1, 462777, Control_c, 0, 64, 66
1, 462780, Note_on_c, 0, 58, 38
1, 462792, Control_c, 0, 64, 70
1, 462807, Control_c, 0, 64, 72
1, 462821, Control_c, 0, 64, 75
1, 462836, Control_c, 0, 64, 78
1, 462851, Control_c, 0, 64, 81
1, 462864, Note_off_c, 0, 89, 61
1, 462866, Control_c, 0, 64, 83
1, 462880, Control_c, 0, 64, 84
1, 462892, Note_off_c, 0, 58, 59
1, 462895, Control_c, 0, 64, 85
1, 462901, Note_off_c, 0, 56, 34
1, 462914, Note_on_c, 0, 62, 41
1, 462925, Control_c, 0, 64, 85
1, 462954, Control_c, 0, 64, 85
1, 463015, Control_c, 0, 64, 84
1, 463030, Control_c, 0, 64, 84
1, 463036, Note_on_c, 0, 58, 38
1, 463044, Control_c, 0, 64, 83
1, 463045, Note_on_c, 0, 79, 58
1, 463059, Control_c, 0, 64, 83
1, 463069, Note_off_c, 0, 62, 32
1, 463074, Control_c, 0, 64, 81
1, 463089, Control_c, 0, 64, 80
1, 463104, Control_c, 0, 64, 78
1, 463119, Control_c, 0, 64, 76
1, 463133, Control_c, 0, 64, 74
1, 463148, Control_c, 0, 64, 72
1, 463151, Note_off_c, 0, 77, 51
1, 463163, Control_c, 0, 64, 70
1, 463168, Note_off_c, 0, 58, 53
1, 463174, Note_off_c, 0, 79, 59
1, 463177, Control_c, 0, 64, 69
1, 463179, Note_on_c, 0, 82, 62
1, 463192, Note_on_c, 0, 56, 39
1, 463192, Control_c, 0, 64, 68
1, 463207, Control_c, 0, 64, 68
1, 463222, Control_c, 0, 64, 67
1, 463237, Control_c, 0, 64, 67
1, 463251, Control_c, 0, 64, 66
1, 463266, Control_c, 0, 64, 66
1, 463281, Control_c, 0, 64, 65
1, 463296, Control_c, 0, 64, 65
1, 463311, Control_c, 0, 64, 64
1, 463314, Note_on_c, 0, 80, 70
1, 463317, Note_on_c, 0, 58, 43
1, 463326, Control_c, 0, 64, 64
1, 463341, Control_c, 0, 64, 63
1, 463356, Control_c, 0, 64, 62
1, 463370, Control_c, 0, 64, 61
1, 463385, Control_c, 0, 64, 59
1, 463407, Control_c, 0, 64, 57
1, 463412, Note_off_c, 0, 82, 54
1, 463421, Note_off_c, 0, 58, 59
1, 463422, Control_c, 0, 64, 54
1, 463437, Control_c, 0, 64, 51
1, 463447, Note_on_c, 0, 79, 77
1, 463448, Note_on_c, 0, 62, 45
1, 463451, Control_c, 0, 64, 47
1, 463466, Control_c, 0, 64, 43
1, 463481, Control_c, 0, 64, 40
1, 463496, Control_c, 0, 64, 38
1, 463499, Note_off_c, 0, 80, 50
1, 463511, Control_c, 0, 64, 36
1, 463526, Control_c, 0, 64, 34
1, 463541, Control_c, 0, 64, 33
1, 463555, Control_c, 0, 64, 32
1, 463559, Note_off_c, 0, 79, 62
1, 463570, Control_c, 0, 64, 31
1, 463582, Note_on_c, 0, 77, 64
1, 463585, Control_c, 0, 64, 29
1, 463597, Note_on_c, 0, 58, 24
1, 463600, Control_c, 0, 64, 27
1, 463615, Control_c, 0, 64, 24
1, 463630, Control_c, 0, 64, 21
1, 463644, Control_c, 0, 64, 17
1, 463645, Note_off_c, 0, 62, 34
1, 463659, Control_c, 0, 64, 11
1, 463674, Control_c, 0, 64, 0
1, 463700, Note_off_c, 0, 56, 38
1, 463700, Note_off_c, 0, 77, 59
1, 463706, Note_on_c, 0, 75, 63
1, 463719, Note_on_c, 0, 55, 39
1, 463734, Note_off_c, 0, 58, 46
1, 463843, Note_on_c, 0, 58, 53
1, 463855, Note_off_c, 0, 75, 61
1, 463979, Note_off_c, 0, 58, 60
1, 463991, Note_on_c, 0, 75, 61
1, 464000, Note_on_c, 0, 63, 46
1, 464060, Control_c, 0, 64, 14
1, 464074, Control_c, 0, 64, 23
1, 464089, Control_c, 0, 64, 28
1, 464104, Control_c, 0, 64, 30
1, 464119, Control_c, 0, 64, 32
1, 464134, Control_c, 0, 64, 33
1, 464134, Note_on_c, 0, 58, 49
1, 464156, Note_off_c, 0, 55, 58
1, 464156, Control_c, 0, 64, 34
1, 464175, Note_off_c, 0, 63, 45
1, 464180, Note_off_c, 0, 75, 55
1, 464284, Note_on_c, 0, 77, 56
1, 464290, Note_on_c, 0, 74, 49
1, 464296, Note_on_c, 0, 56, 47
1, 464299, Note_off_c, 0, 58, 56
1, 464319, Control_c, 0, 64, 33
1, 464348, Control_c, 0, 64, 32
1, 464418, Note_on_c, 0, 79, 70
1, 464422, Note_off_c, 0, 77, 60
1, 464434, Note_on_c, 0, 58, 45
1, 464453, Control_c, 0, 64, 33
1, 464468, Control_c, 0, 64, 34
1, 464482, Control_c, 0, 64, 35
1, 464497, Control_c, 0, 64, 36
1, 464512, Control_c, 0, 64, 36
1, 464533, Note_off_c, 0, 58, 60
1, 464552, Note_on_c, 0, 62, 46
1, 464554, Note_on_c, 0, 80, 73
1, 464554, Note_off_c, 0, 79, 60
1, 464556, Control_c, 0, 64, 37
1, 464667, Note_off_c, 0, 62, 51
1, 464674, Note_on_c, 0, 77, 71
1, 464676, Note_on_c, 0, 58, 41
1, 464676, Control_c, 0, 64, 38
1, 464691, Note_off_c, 0, 74, 57
1, 464754, Note_off_c, 0, 80, 39
1, 464790, Note_off_c, 0, 56, 52
1, 464807, Note_off_c, 0, 58, 57
1, 464810, Note_off_c, 0, 77, 61
1, 464819, Note_on_c, 0, 75, 63
1, 464828, Note_on_c, 0, 55, 49
1, 464838, Control_c, 0, 64, 36
1, 464844, Note_off_c, 0, 75, 66
1, 464853, Control_c, 0, 64, 29
1, 464868, Control_c, 0, 64, 0
1, 464967, Note_on_c, 0, 58, 48
1, 464974, Note_on_c, 0, 82, 69
1, 465023, Control_c, 0, 64, 46
1, 465038, Control_c, 0, 64, 62
1, 465053, Control_c, 0, 64, 66
1, 465068, Control_c, 0, 64, 70
1, 465076, Note_off_c, 0, 58, 61
1, 465082, Control_c, 0, 64, 72
1, 465097, Control_c, 0, 64, 75
1, 465101, Note_on_c, 0, 63, 54
1, 465112, Control_c, 0, 64, 76
1, 465127, Control_c, 0, 64, 77
1, 465160, Note_off_c, 0, 82, 64
1, 465220, Note_off_c, 0, 55, 64
1, 465237, Note_on_c, 0, 58, 55
1, 465238, Note_off_c, 0, 63, 52
1, 465250, Note_on_c, 0, 82, 80
1, 465260, Control_c, 0, 64, 77
1, 465290, Control_c, 0, 64, 76
1, 465320, Control_c, 0, 64, 76
1, 465335, Control_c, 0, 64, 75
1, 465349, Control_c, 0, 64, 75
1, 465365, Control_c, 0, 64, 74
1, 465380, Control_c, 0, 64, 73
1, 465395, Note_off_c, 0, 58, 53
1, 465395, Control_c, 0, 64, 72
1, 465396, Note_on_c, 0, 50, 51
1, 465410, Control_c, 0, 64, 71
1, 465424, Control_c, 0, 64, 69
1, 465439, Control_c, 0, 64, 68
1, 465454, Control_c, 0, 64, 66
1, 465469, Control_c, 0, 64, 64
1, 465484, Control_c, 0, 64, 60
1, 465499, Control_c, 0, 64, 47
1, 465507, Note_on_c, 0, 53, 56
1, 465513, Control_c, 0, 64, 0
1, 465546, Note_on_c, 0, 80, 74
1, 465632, Control_c, 0, 64, 27
1, 465654, Control_c, 0, 64, 56
1, 465663, Note_on_c, 0, 58, 49
1, 465669, Control_c, 0, 64, 62
1, 465673, Note_off_c, 0, 82, 59
1, 465684, Control_c, 0, 64, 63
1, 465685, Note_off_c, 0, 80, 63
1, 465687, Note_on_c, 0, 79, 75
1, 465698, Control_c, 0, 64, 64
1, 465713, Control_c, 0, 64, 65
1, 465728, Control_c, 0, 64, 66
1, 465743, Control_c, 0, 64, 66
1, 465758, Control_c, 0, 64, 67
1, 465772, Note_off_c, 0, 53, 62
1, 465772, Control_c, 0, 64, 67
1, 465780, Note_on_c, 0, 62, 40
1, 465780, Note_off_c, 0, 50, 38
1, 465808, Note_on_c, 0, 78, 80
1, 465830, Note_off_c, 0, 79, 57
1, 465853, Note_off_c, 0, 58, 33
1, 465866, Note_off_c, 0, 78, 64
1, 465905, Control_c, 0, 64, 67
1, 465920, Control_c, 0, 64, 66
1, 465935, Control_c, 0, 64, 65
1, 465943, Note_on_c, 0, 78, 58
1, 465950, Control_c, 0, 64, 64
1, 465955, Note_on_c, 0, 51, 43
1, 465965, Control_c, 0, 64, 61
1, 465967, Note_off_c, 0, 62, 48
1, 465979, Control_c, 0, 64, 54
1, 465994, Control_c, 0, 64, 39
1, 466009, Control_c, 0, 64, 0
1, 466100, Note_on_c, 0, 55, 47
1, 466229, Note_off_c, 0, 55, 59
1, 466256, Note_on_c, 0, 58, 44
1, 466321, Control_c, 0, 64, 46
1, 466336, Control_c, 0, 64, 62
1, 466343, Note_off_c, 0, 58, 60
1, 466351, Control_c, 0, 64, 67
1, 466364, Note_off_c, 0, 78, 56
1, 466366, Control_c, 0, 64, 70
1, 466375, Note_on_c, 0, 79, 52
1, 466381, Control_c, 0, 64, 73
1, 466402, Control_c, 0, 64, 76
1, 466407, Note_off_c, 0, 79, 62
1, 466410, Note_on_c, 0, 63, 37
1, 466417, Control_c, 0, 64, 79
1, 466432, Control_c, 0, 64, 81
1, 466447, Control_c, 0, 64, 82
1, 466462, Control_c, 0, 64, 83
1, 466551, Control_c, 0, 64, 82
1, 466566, Control_c, 0, 64, 82
1, 466581, Note_on_c, 0, 89, 54
1, 466581, Control_c, 0, 64, 80
1, 466595, Control_c, 0, 64, 78
1, 466598, Note_off_c, 0, 51, 60
1, 466610, Control_c, 0, 64, 74
1, 466625, Control_c, 0, 64, 69
1, 466640, Control_c, 0, 64, 65
1, 466655, Control_c, 0, 64, 63
1, 466658, Note_off_c, 0, 63, 52
1, 466669, Control_c, 0, 64, 63
1, 466684, Control_c, 0, 64, 62
1, 466699, Control_c, 0, 64, 62
1, 466714, Control_c, 0, 64, 61
1, 466718, Note_on_c, 0, 87, 73
1, 466728, Control_c, 0, 64, 60
1, 466743, Control_c, 0, 64, 59
1, 466788, Control_c, 0, 64, 59
1, 466798, Note_off_c, 0, 89, 55
1, 466843, Note_on_c, 0, 86, 78
1, 466847, Control_c, 0, 64, 58
1, 466876, Control_c, 0, 64, 57
1, 466891, Control_c, 0, 64, 57
1, 466906, Control_c, 0, 64, 56
1, 466917, Note_off_c, 0, 87, 53
1, 466921, Control_c, 0, 64, 55
1, 466936, Control_c, 0, 64, 54
1, 466951, Control_c, 0, 64, 54
1, 466963, Note_off_c, 0, 86, 66
1, 466966, Control_c, 0, 64, 53
1, 466976, Note_on_c, 0, 84, 75
1, 466981, Control_c, 0, 64, 52
1, 466996, Control_c, 0, 64, 52
1, 467011, Control_c, 0, 64, 51
1, 467025, Control_c, 0, 64, 49
1, 467040, Control_c, 0, 64, 47
1, 467055, Control_c, 0, 64, 44
1, 467070, Control_c, 0, 64, 42
1, 467085, Control_c, 0, 64, 38
1, 467100, Control_c, 0, 64, 31
1, 467108, Note_off_c, 0, 84, 62
1, 467115, Control_c, 0, 64, 0
1, 467118, Note_on_c, 0, 82, 64
1, 467141, Note_on_c, 0, 63, 42
1, 467279, Note_on_c, 0, 65, 52
1, 467299, Control_c, 0, 64, 41
1, 467314, Control_c, 0, 64, 59
1, 467329, Control_c, 0, 64, 63
1, 467344, Control_c, 0, 64, 65
1, 467359, Control_c, 0, 64, 68
1, 467374, Control_c, 0, 64, 70
1, 467389, Control_c, 0, 64, 72
1, 467404, Note_on_c, 0, 69, 48
1, 467404, Control_c, 0, 64, 75
1, 467418, Control_c, 0, 64, 77
1, 467433, Control_c, 0, 64, 79
1, 467448, Control_c, 0, 64, 81
1, 467462, Control_c, 0, 64, 82
1, 467477, Control_c, 0, 64, 83
1, 467492, Control_c, 0, 64, 84
1, 467499, Note_off_c, 0, 65, 60
1, 467507, Control_c, 0, 64, 84
1, 467508, Note_off_c, 0, 69, 53
1, 467522, Control_c, 0, 64, 85
1, 467527, Note_off_c, 0, 82, 38
1, 467530, Note_on_c, 0, 81, 70
1, 467530, Note_off_c, 0, 63, 37
1, 467532, Note_on_c, 0, 72, 43
1, 467537, Control_c, 0, 64, 86
1, 467551, Control_c, 0, 64, 87
1, 467558, Note_off_c, 0, 81, 60
1, 467566, Control_c, 0, 64, 87
1, 467581, Control_c, 0, 64, 88
1, 467610, Control_c, 0, 64, 88
1, 467640, Control_c, 0, 64, 88
1, 467655, Control_c, 0, 64, 85
1, 467662, Note_on_c, 0, 79, 77
1, 467664, Note_on_c, 0, 63, 51
1, 467669, Control_c, 0, 64, 77
1, 467670, Note_off_c, 0, 72, 30
1, 467682, Note_off_c, 0, 79, 68
1, 467684, Control_c, 0, 64, 66
1, 467699, Control_c, 0, 64, 0
1, 467793, Note_on_c, 0, 77, 70
1, 467805, Note_on_c, 0, 65, 42
1, 467824, Note_off_c, 0, 77, 59
1, 467937, Note_on_c, 0, 69, 51
1, 467939, Note_on_c, 0, 79, 80
1, 467959, Note_off_c, 0, 79, 67
1, 468006, Note_off_c, 0, 65, 36
1, 468026, Note_off_c, 0, 69, 58
1, 468039, Note_off_c, 0, 63, 34
1, 468059, Note_on_c, 0, 72, 45
1, 468063, Note_on_c, 0, 81, 79
1, 468092, Note_off_c, 0, 81, 58
1, 468135, Note_off_c, 0, 72, 41
1, 468201, Note_on_c, 0, 62, 47
1, 468206, Note_on_c, 0, 82, 62
1, 468241, Control_c, 0, 64, 11
1, 468256, Control_c, 0, 64, 14
1, 468271, Control_c, 0, 64, 17
1, 468285, Control_c, 0, 64, 19
1, 468304, Note_off_c, 0, 62, 60
1, 468334, Note_off_c, 0, 82, 64
1, 468346, Note_on_c, 0, 65, 49
1, 468472, Note_off_c, 0, 65, 44
1, 468481, Note_on_c, 0, 62, 50
1, 468588, Note_off_c, 0, 62, 61
1, 468610, Note_on_c, 0, 86, 65
1, 468624, Note_on_c, 0, 58, 48
1, 468748, Note_off_c, 0, 58, 56
1, 468763, Note_on_c, 0, 53, 53
1, 468766, Note_on_c, 0, 82, 71
1, 468815, Note_off_c, 0, 86, 58
1, 468859, Note_off_c, 0, 53, 57
1, 468890, Note_off_c, 0, 82, 65
1, 468901, Control_c, 0, 64, 21
1, 468902, Note_on_c, 0, 65, 51
1, 468975, Control_c, 0, 64, 23
1, 469005, Control_c, 0, 64, 24
1, 469017, Note_off_c, 0, 65, 56
1, 469025, Note_on_c, 0, 62, 54
1, 469049, Control_c, 0, 64, 26
1, 469133, Note_off_c, 0, 62, 61
1, 469158, Note_on_c, 0, 86, 65
1, 469166, Note_on_c, 0, 58, 51
1, 469168, Control_c, 0, 64, 27
1, 469197, Control_c, 0, 64, 28
1, 469212, Control_c, 0, 64, 29
1, 469227, Control_c, 0, 64, 30
1, 469241, Control_c, 0, 64, 31
1, 469256, Control_c, 0, 64, 32
1, 469287, Note_off_c, 0, 58, 53
1, 469294, Note_on_c, 0, 53, 55
1, 469308, Note_on_c, 0, 82, 67
1, 469381, Note_off_c, 0, 86, 52
1, 469428, Note_off_c, 0, 53, 39
1, 469443, Note_off_c, 0, 82, 64
1, 469445, Note_on_c, 0, 65, 50
1, 469547, Note_off_c, 0, 65, 57
1, 469574, Note_on_c, 0, 62, 45
1, 469675, Note_off_c, 0, 62, 60
1, 469704, Note_on_c, 0, 86, 55
1, 469713, Note_on_c, 0, 58, 42
1, 469724, Control_c, 0, 64, 33
1, 469753, Control_c, 0, 64, 34
1, 469768, Control_c, 0, 64, 35
1, 469783, Control_c, 0, 64, 36
1, 469798, Control_c, 0, 64, 36
1, 469812, Control_c, 0, 64, 37
1, 469820, Note_off_c, 0, 58, 50
1, 469827, Control_c, 0, 64, 38
1, 469842, Control_c, 0, 64, 38
1, 469853, Note_on_c, 0, 82, 63
1, 469857, Control_c, 0, 64, 39
1, 469860, Note_on_c, 0, 53, 35
1, 469872, Control_c, 0, 64, 40
1, 469887, Control_c, 0, 64, 41
1, 469902, Control_c, 0, 64, 42
1, 469917, Control_c, 0, 64, 42
1, 469923, Note_off_c, 0, 86, 35
1, 469960, Control_c, 0, 64, 43
1, 469982, Note_on_c, 0, 77, 66
1, 470019, Control_c, 0, 64, 43
1, 470028, Note_off_c, 0, 82, 56
1, 470096, Note_off_c, 0, 77, 64
1, 470119, Note_on_c, 0, 74, 73
1, 470176, Control_c, 0, 64, 44
1, 470254, Note_on_c, 0, 75, 73
1, 470275, Note_off_c, 0, 74, 60
1, 470354, Control_c, 0, 64, 44
1, 470391, Note_on_c, 0, 76, 81
1, 470413, Control_c, 0, 64, 45
1, 470426, Note_off_c, 0, 75, 60
1, 470509, Note_on_c, 0, 79, 66
1, 470522, Note_off_c, 0, 76, 61
1, 470590, Note_off_c, 0, 53, 47
1, 470605, Control_c, 0, 64, 45
1, 470620, Control_c, 0, 64, 46
1, 470635, Control_c, 0, 64, 47
1, 470650, Note_on_c, 0, 77, 66
1, 470650, Control_c, 0, 64, 47
1, 470665, Control_c, 0, 64, 48
1, 470680, Control_c, 0, 64, 48
1, 470684, Note_off_c, 0, 79, 54
1, 470694, Control_c, 0, 64, 49
1, 470709, Control_c, 0, 64, 50
1, 470724, Control_c, 0, 64, 50
1, 470739, Control_c, 0, 64, 51
1, 470753, Note_off_c, 0, 77, 61
1, 470754, Control_c, 0, 64, 52
1, 470783, Control_c, 0, 64, 52
1, 470787, Note_on_c, 0, 74, 60
1, 470798, Control_c, 0, 64, 53
1, 470842, Control_c, 0, 64, 53
1, 470894, Control_c, 0, 64, 52
1, 470909, Control_c, 0, 64, 47
1, 470924, Control_c, 0, 64, 0
1, 470927, Note_off_c, 0, 74, 62
1, 470939, Note_on_c, 0, 70, 62
1, 471244, Note_on_c, 0, 63, 48
1, 471249, Note_off_c, 0, 70, 56
1, 471257, Note_on_c, 0, 53, 47
1, 471258, Note_on_c, 0, 74, 51
1, 471265, Control_c, 0, 64, 53
1, 471269, Note_on_c, 0, 69, 43
1, 471280, Control_c, 0, 64, 66
1, 471295, Control_c, 0, 64, 73
1, 471309, Control_c, 0, 64, 81
1, 471312, Note_off_c, 0, 63, 47
1, 471324, Control_c, 0, 64, 90
1, 471339, Control_c, 0, 64, 100
1, 471354, Control_c, 0, 64, 108
1, 471369, Control_c, 0, 64, 121
1, 471383, Control_c, 0, 64, 127
1, 471396, Note_off_c, 0, 69, 49
1, 471401, Note_on_c, 0, 72, 62
1, 471491, Note_off_c, 0, 74, 30
1, 471531, Control_c, 0, 64, 83
1, 471536, Note_on_c, 0, 58, 68
1, 471540, Note_on_c, 0, 62, 46
1, 471541, Note_off_c, 0, 53, 63
1, 471545, Note_on_c, 0, 70, 67
1, 471546, Control_c, 0, 64, 64
1, 471550, Note_off_c, 0, 72, 58
1, 471556, Note_off_c, 0, 58, 65
1, 471561, Control_c, 0, 64, 58
1, 471568, Note_off_c, 0, 62, 54
1, 471576, Control_c, 0, 64, 66
1, 471590, Control_c, 0, 64, 73
1, 471605, Control_c, 0, 64, 84
1, 471616, Note_off_c, 0, 70, 59
1, 471620, Control_c, 0, 64, 124
1, 471642, Control_c, 0, 64, 127
1, 471684, Note_on_c, 0, 46, 78
1, 471719, Note_off_c, 0, 46, 62
1, 471746, Control_c, 0, 64, 82
1, 471755, Note_on_c, 0, 58, 61
1, 471762, Control_c, 0, 64, 0
1, 471777, Note_off_c, 0, 58, 63
1, 471777, Control_c, 0, 67, 113
1, 471792, Control_c, 0, 67, 72
1, 471806, Control_c, 0, 67, 30
1, 471813, Note_on_c, 0, 48, 88
1, 471821, Control_c, 0, 67, 0
1, 471843, Note_off_c, 0, 48, 65
1, 471846, Note_on_c, 0, 50, 41
1, 471881, Control_c, 0, 64, 31
1, 471881, Note_off_c, 0, 50, 58
1, 471884, Note_on_c, 0, 60, 72
1, 471895, Control_c, 0, 64, 50
1, 471907, Note_off_c, 0, 60, 68
1, 471910, Control_c, 0, 64, 62
1, 471925, Control_c, 0, 64, 65
1, 471939, Control_c, 0, 64, 69
1, 471940, Note_on_c, 0, 52, 77
1, 471944, Note_on_c, 0, 50, 76
1, 471954, Control_c, 0, 64, 72
1, 471969, Control_c, 0, 64, 76
1, 471972, Note_off_c, 0, 52, 64
1, 471973, Note_off_c, 0, 50, 68
1, 471984, Control_c, 0, 64, 78
1, 471999, Control_c, 0, 64, 79
1, 472007, Note_on_c, 0, 56, 62
1, 472011, Note_on_c, 0, 62, 71
1, 472028, Control_c, 0, 64, 72
1, 472034, Note_off_c, 0, 56, 67
1, 472037, Note_off_c, 0, 62, 63
1, 472043, Control_c, 0, 64, 32
1, 472057, Control_c, 0, 64, 0
1, 472066, Note_on_c, 0, 51, 87
1, 472125, Note_on_c, 0, 63, 88
1, 472129, Note_off_c, 0, 51, 61
1, 472145, Note_off_c, 0, 63, 70
1, 472201, Note_on_c, 0, 50, 91
1, 472248, Note_off_c, 0, 50, 64
1, 472266, Note_on_c, 0, 60, 63
1, 472286, Note_off_c, 0, 60, 66
1, 472310, Control_c, 0, 64, 67
1, 472316, Poly_aftertouch_c, 0, 72, 0
1, 472325, Control_c, 0, 64, 127
1, 472328, Note_on_c, 0, 53, 93
1, 472330, Note_on_c, 0, 72, 55
1, 472331, Note_on_c, 0, 69, 95
1, 472331, Note_on_c, 0, 81, 94
1, 472339, Note_on_c, 0, 77, 85
1, 472352, Note_off_c, 0, 69, 65
1, 472359, Note_off_c, 0, 72, 67
1, 472361, Note_off_c, 0, 77, 69
1, 472364, Note_off_c, 0, 53, 64
1, 472367, Note_off_c, 0, 81, 67
1, 472370, Control_c, 0, 64, 86
1, 472373, Note_on_c, 0, 65, 85
1, 472392, Control_c, 0, 64, 58
1, 472407, Control_c, 0, 64, 0
1, 472413, Note_off_c, 0, 65, 61
1, 472470, Note_on_c, 0, 51, 83
1, 472518, Note_off_c, 0, 51, 62
1, 472522, Note_on_c, 0, 63, 81
1, 472555, Note_off_c, 0, 63, 63
1, 472600, Control_c, 0, 64, 47
1, 472605, Note_on_c, 0, 50, 82
1, 472609, Note_on_c, 0, 82, 98
1, 472613, Note_on_c, 0, 70, 91
1, 472614, Note_on_c, 0, 74, 84
1, 472615, Control_c, 0, 64, 98
1, 472626, Note_on_c, 0, 77, 68
1, 472630, Control_c, 0, 64, 127
1, 472641, Note_off_c, 0, 70, 62
1, 472648, Note_on_c, 0, 62, 83
1, 472653, Note_off_c, 0, 74, 60
1, 472655, Note_off_c, 0, 77, 62
1, 472658, Note_off_c, 0, 50, 62
1, 472665, Note_off_c, 0, 82, 66
1, 472674, Note_off_c, 0, 62, 64
1, 472749, Note_on_c, 0, 46, 90
1, 472749, Control_c, 0, 64, 89
1, 472763, Control_c, 0, 64, 59
1, 472776, Note_off_c, 0, 46, 63
1, 472778, Control_c, 0, 64, 0
1, 472804, Note_on_c, 0, 58, 76
1, 472826, Note_off_c, 0, 58, 68
1, 472874, Note_on_c, 0, 48, 98
1, 472913, Note_off_c, 0, 48, 58
1, 472944, Note_on_c, 0, 60, 69
1, 472969, Note_off_c, 0, 60, 69
1, 472985, Control_c, 0, 64, 29
1, 473000, Control_c, 0, 64, 48
1, 473002, Note_on_c, 0, 50, 87
1, 473015, Control_c, 0, 64, 59
1, 473029, Control_c, 0, 64, 64
1, 473033, Note_off_c, 0, 50, 63
1, 473044, Control_c, 0, 64, 68
1, 473059, Control_c, 0, 64, 70
1, 473070, Note_on_c, 0, 62, 70
1, 473073, Control_c, 0, 64, 72
1, 473088, Control_c, 0, 64, 72
1, 473097, Note_off_c, 0, 62, 66
1, 473103, Control_c, 0, 64, 69
1, 473118, Control_c, 0, 64, 45
1, 473137, Note_on_c, 0, 51, 85
1, 473141, Control_c, 0, 64, 0
1, 473171, Note_off_c, 0, 51, 63
1, 473192, Note_on_c, 0, 63, 80
1, 473213, Note_off_c, 0, 63, 69
1, 473265, Note_on_c, 0, 48, 91
1, 473305, Note_off_c, 0, 48, 63
1, 473364, Control_c, 0, 64, 61
1, 473379, Control_c, 0, 64, 104
1, 473393, Control_c, 0, 64, 127
1, 473395, Note_on_c, 0, 69, 94
1, 473395, Note_on_c, 0, 81, 103
1, 473396, Note_on_c, 0, 72, 71
1, 473398, Note_on_c, 0, 53, 95
1, 473410, Note_on_c, 0, 77, 75
1, 473416, Note_off_c, 0, 69, 63
1, 473424, Note_off_c, 0, 72, 66
1, 473431, Note_off_c, 0, 81, 69
1, 473433, Note_off_c, 0, 77, 71
1, 473434, Note_off_c, 0, 53, 68
1, 473438, Control_c, 0, 64, 84
1, 473449, Note_on_c, 0, 64, 87
1, 473453, Control_c, 0, 64, 0
1, 473496, Note_off_c, 0, 64, 60
1, 473536, Note_on_c, 0, 51, 81
1, 473589, Note_on_c, 0, 63, 81
1, 473604, Note_off_c, 0, 51, 62
1, 473623, Note_off_c, 0, 63, 61
1, 473664, Note_on_c, 0, 50, 88
1, 473670, Note_on_c, 0, 82, 98
1, 473673, Note_on_c, 0, 70, 90
1, 473675, Control_c, 0, 64, 67
1, 473677, Note_on_c, 0, 74, 85
1, 473685, Note_on_c, 0, 77, 74
1, 473690, Control_c, 0, 64, 127
1, 473715, Note_on_c, 0, 62, 84
1, 473715, Note_off_c, 0, 70, 62
1, 473720, Note_off_c, 0, 74, 66
1, 473722, Note_off_c, 0, 50, 66
1, 473730, Note_off_c, 0, 82, 66
1, 473735, Note_off_c, 0, 77, 59
1, 473738, Note_off_c, 0, 62, 67
1, 473766, Poly_aftertouch_c, 0, 51, 0
1, 473808, Control_c, 0, 64, 121
1, 473811, Note_on_c, 0, 46, 88
1, 473822, Control_c, 0, 64, 74
1, 473837, Control_c, 0, 64, 0
1, 473848, Note_off_c, 0, 46, 61
1, 473870, Note_on_c, 0, 58, 74
1, 473901, Note_off_c, 0, 58, 67
1, 473948, Note_on_c, 0, 48, 83
1, 473971, Note_on_c, 0, 47, 45
1, 473972, Note_off_c, 0, 47, 127
1, 473974, Note_off_c, 0, 48, 68
1, 474016, Note_on_c, 0, 60, 71
1, 474037, Control_c, 0, 64, 28
1, 474039, Note_off_c, 0, 60, 68
1, 474052, Control_c, 0, 64, 50
1, 474067, Control_c, 0, 64, 59
1, 474075, Note_on_c, 0, 50, 87
1, 474082, Control_c, 0, 64, 64
1, 474097, Control_c, 0, 64, 65
1, 474111, Note_off_c, 0, 50, 61
1, 474111, Control_c, 0, 64, 67
1, 474126, Control_c, 0, 64, 68
1, 474144, Note_on_c, 0, 62, 76
1, 474167, Note_off_c, 0, 62, 68
1, 474172, Control_c, 0, 64, 64
1, 474187, Control_c, 0, 64, 24
1, 474202, Control_c, 0, 64, 0
1, 474204, Note_on_c, 0, 51, 86
1, 474255, Note_off_c, 0, 51, 58
1, 474266, Note_on_c, 0, 63, 74
1, 474288, Note_off_c, 0, 63, 69
1, 474340, Note_on_c, 0, 48, 89
1, 474368, Note_off_c, 0, 48, 65
1, 474468, Control_c, 0, 64, 82
1, 474469, Note_on_c, 0, 53, 88
1, 474469, Note_on_c, 0, 69, 88
1, 474470, Note_on_c, 0, 81, 97
1, 474479, Note_on_c, 0, 72, 61
1, 474480, Note_on_c, 0, 77, 73
1, 474483, Control_c, 0, 64, 127
1, 474488, Note_off_c, 0, 69, 69
1, 474501, Note_off_c, 0, 72, 65
1, 474501, Note_off_c, 0, 77, 70
1, 474505, Note_on_c, 0, 55, 33
1, 474507, Note_off_c, 0, 81, 68
1, 474511, Note_off_c, 0, 53, 60
1, 474522, Note_on_c, 0, 65, 83
1, 474534, Note_off_c, 0, 55, 56
1, 474542, Control_c, 0, 64, 100
1, 474557, Control_c, 0, 64, 71
1, 474558, Note_off_c, 0, 65, 62
1, 474572, Control_c, 0, 64, 0
1, 474616, Note_on_c, 0, 51, 79
1, 474680, Note_on_c, 0, 63, 55
1, 474680, Note_off_c, 0, 51, 63
1, 474703, Note_off_c, 0, 63, 60
1, 474750, Note_on_c, 0, 82, 95
1, 474752, Note_on_c, 0, 62, 92
1, 474753, Note_on_c, 0, 50, 91
1, 474753, Note_on_c, 0, 70, 89
1, 474757, Control_c, 0, 64, 75
1, 474762, Note_on_c, 0, 74, 67
1, 474771, Note_off_c, 0, 62, 70
1, 474772, Control_c, 0, 64, 127
1, 474776, Note_off_c, 0, 50, 71
1, 474785, Note_on_c, 0, 80, 45
1, 474788, Note_off_c, 0, 74, 69
1, 474793, Note_off_c, 0, 70, 58
1, 474798, Note_off_c, 0, 82, 66
1, 474809, Note_off_c, 0, 80, 57
1, 474898, Note_on_c, 0, 65, 77
1, 474934, Note_off_c, 0, 65, 63
1, 474952, Note_on_c, 0, 77, 86
1, 475002, Note_off_c, 0, 77, 60
1, 475026, Note_on_c, 0, 67, 90
1, 475054, Control_c, 0, 64, 118
1, 475065, Note_off_c, 0, 67, 66
1, 475069, Control_c, 0, 64, 92
1, 475083, Control_c, 0, 64, 76
1, 475084, Note_on_c, 0, 79, 82
1, 475098, Control_c, 0, 64, 64
1, 475113, Control_c, 0, 64, 21
1, 475119, Note_off_c, 0, 79, 60
1, 475128, Control_c, 0, 64, 11
1, 475143, Control_c, 0, 64, 38
1, 475148, Note_on_c, 0, 69, 86
1, 475157, Control_c, 0, 64, 44
1, 475173, Control_c, 0, 64, 45
1, 475189, Note_off_c, 0, 69, 62
1, 475194, Note_on_c, 0, 81, 83
1, 475203, Control_c, 0, 64, 45
1, 475218, Control_c, 0, 64, 29
1, 475232, Control_c, 0, 64, 0
1, 475244, Note_off_c, 0, 81, 60
1, 475266, Note_on_c, 0, 70, 83
1, 475306, Control_c, 0, 67, 8
1, 475311, Note_off_c, 0, 70, 64
1, 475321, Control_c, 0, 67, 8
1, 475327, Note_on_c, 0, 82, 83
1, 475361, Note_off_c, 0, 82, 64
1, 475366, Control_c, 0, 67, 9
1, 475402, Note_on_c, 0, 72, 75
1, 475403, Control_c, 0, 67, 9
1, 475418, Control_c, 0, 67, 10
1, 475431, Note_off_c, 0, 72, 63
1, 475432, Control_c, 0, 67, 11
1, 475447, Control_c, 0, 67, 12
1, 475462, Control_c, 0, 67, 12
1, 475473, Note_on_c, 0, 84, 55
1, 475491, Note_off_c, 0, 84, 63
1, 475521, Control_c, 0, 67, 13
1, 475523, Note_on_c, 0, 74, 73
1, 475536, Control_c, 0, 67, 13
1, 475545, Note_off_c, 0, 74, 71
1, 475551, Control_c, 0, 67, 14
1, 475565, Note_on_c, 0, 86, 63
1, 475565, Control_c, 0, 67, 16
1, 475580, Control_c, 0, 64, 44
1, 475580, Control_c, 0, 67, 18
1, 475595, Control_c, 0, 64, 65
1, 475595, Control_c, 0, 67, 20
1, 475601, Note_off_c, 0, 86, 66
1, 475610, Control_c, 0, 64, 68
1, 475610, Control_c, 0, 67, 22
1, 475625, Control_c, 0, 64, 74
1, 475625, Control_c, 0, 67, 23
1, 475640, Control_c, 0, 64, 81
1, 475640, Control_c, 0, 67, 25
1, 475643, Note_on_c, 0, 75, 65
1, 475655, Control_c, 0, 64, 90
1, 475655, Control_c, 0, 67, 28
1, 475670, Control_c, 0, 64, 98
1, 475670, Control_c, 0, 67, 31
1, 475682, Note_off_c, 0, 75, 53
1, 475684, Control_c, 0, 64, 104
1, 475684, Control_c, 0, 67, 35
1, 475698, Note_on_c, 0, 87, 70
1, 475699, Control_c, 0, 64, 109
1, 475699, Control_c, 0, 67, 38
1, 475714, Control_c, 0, 64, 115
1, 475714, Control_c, 0, 67, 40
1, 475729, Control_c, 0, 64, 123
1, 475729, Control_c, 0, 67, 42
1, 475732, Note_off_c, 0, 87, 61
1, 475744, Control_c, 0, 64, 127
1, 475744, Control_c, 0, 67, 45
1, 475759, Control_c, 0, 67, 47
1, 475774, Control_c, 0, 67, 50
1, 475789, Control_c, 0, 67, 55
1, 475804, Control_c, 0, 67, 59
1, 475819, Control_c, 0, 67, 62
1, 475834, Control_c, 0, 67, 66
1, 475848, Control_c, 0, 67, 70
1, 475863, Control_c, 0, 67, 74
1, 475878, Control_c, 0, 67, 78
1, 475883, Note_on_c, 0, 89, 63
1, 475884, Note_on_c, 0, 77, 48
1, 475893, Control_c, 0, 67, 85
1, 475899, Note_on_c, 0, 56, 39
1, 475907, Control_c, 0, 67, 91
1, 475921, Control_c, 0, 64, 106
1, 475921, Control_c, 0, 67, 97
1, 475936, Control_c, 0, 64, 89
1, 475936, Control_c, 0, 67, 104
1, 475951, Control_c, 0, 64, 73
1, 475951, Control_c, 0, 67, 110
1, 475966, Control_c, 0, 64, 54
1, 475966, Control_c, 0, 67, 116
1, 475980, Control_c, 0, 64, 0
1, 475980, Control_c, 0, 67, 123
1, 475995, Control_c, 0, 67, 127
1, 476025, Control_c, 0, 64, 27
1, 476040, Control_c, 0, 64, 59
1, 476054, Control_c, 0, 64, 65
1, 476069, Control_c, 0, 64, 70
1, 476076, Note_on_c, 0, 58, 36
1, 476084, Control_c, 0, 64, 73
1, 476099, Control_c, 0, 64, 78
1, 476114, Control_c, 0, 64, 83
1, 476136, Control_c, 0, 64, 86
1, 476151, Control_c, 0, 64, 89
1, 476166, Control_c, 0, 64, 91
1, 476171, Note_off_c, 0, 89, 62
1, 476180, Control_c, 0, 64, 93
1, 476188, Note_off_c, 0, 58, 58
1, 476195, Control_c, 0, 64, 94
1, 476210, Control_c, 0, 64, 95
1, 476215, Note_on_c, 0, 62, 41
1, 476221, Note_off_c, 0, 56, 37
1, 476225, Control_c, 0, 64, 95
1, 476338, Note_on_c, 0, 58, 42
1, 476338, Note_on_c, 0, 79, 60
1, 476373, Control_c, 0, 64, 95
1, 476403, Control_c, 0, 64, 94
1, 476418, Control_c, 0, 64, 94
1, 476432, Control_c, 0, 64, 93
1, 476447, Control_c, 0, 64, 92
1, 476462, Control_c, 0, 64, 91
1, 476463, Note_off_c, 0, 77, 35
1, 476475, Note_on_c, 0, 82, 72
1, 476477, Note_off_c, 0, 79, 60
1, 476477, Control_c, 0, 64, 89
1, 476485, Note_on_c, 0, 56, 48
1, 476488, Note_off_c, 0, 58, 52
1, 476490, Note_off_c, 0, 62, 16
1, 476492, Control_c, 0, 64, 87
1, 476506, Control_c, 0, 64, 85
1, 476521, Control_c, 0, 64, 83
1, 476536, Control_c, 0, 64, 82
1, 476552, Control_c, 0, 64, 80
1, 476567, Control_c, 0, 64, 78
1, 476582, Control_c, 0, 64, 77
1, 476596, Control_c, 0, 64, 75
1, 476611, Control_c, 0, 64, 74
1, 476615, Note_on_c, 0, 80, 73
1, 476618, Note_on_c, 0, 58, 49
1, 476626, Control_c, 0, 64, 72
1, 476641, Control_c, 0, 64, 71
1, 476655, Control_c, 0, 64, 70
1, 476670, Control_c, 0, 64, 69
1, 476685, Control_c, 0, 64, 68
1, 476700, Control_c, 0, 64, 67
1, 476713, Note_off_c, 0, 58, 61
1, 476715, Control_c, 0, 64, 67
1, 476729, Control_c, 0, 64, 65
1, 476738, Note_off_c, 0, 82, 62
1, 476741, Note_on_c, 0, 62, 51
1, 476743, Note_on_c, 0, 79, 80
1, 476744, Control_c, 0, 64, 64
1, 476759, Control_c, 0, 64, 62
1, 476774, Control_c, 0, 64, 60
1, 476789, Control_c, 0, 64, 58
1, 476803, Control_c, 0, 64, 57
1, 476807, Note_off_c, 0, 80, 52
1, 476818, Control_c, 0, 64, 56
1, 476833, Control_c, 0, 64, 55
1, 476847, Control_c, 0, 64, 53
1, 476850, Note_off_c, 0, 79, 63
1, 476862, Control_c, 0, 64, 50
1, 476865, Note_on_c, 0, 58, 38
1, 476881, Note_on_c, 0, 77, 67
1, 476885, Control_c, 0, 64, 46
1, 476900, Control_c, 0, 64, 40
1, 476915, Control_c, 0, 64, 30
1, 476929, Control_c, 0, 64, 0
1, 476945, Note_off_c, 0, 62, 31
1, 477004, Note_off_c, 0, 56, 50
1, 477017, Note_off_c, 0, 58, 50
1, 477020, Note_on_c, 0, 55, 42
1, 477026, Note_off_c, 0, 77, 57
1, 477031, Note_on_c, 0, 75, 60
1, 477151, Control_c, 0, 64, 59
1, 477156, Note_on_c, 0, 58, 50
1, 477166, Control_c, 0, 64, 65
1, 477175, Note_off_c, 0, 75, 61
1, 477181, Control_c, 0, 64, 69
1, 477196, Control_c, 0, 64, 72
1, 477211, Control_c, 0, 64, 76
1, 477226, Control_c, 0, 64, 80
1, 477241, Control_c, 0, 64, 84
1, 477255, Control_c, 0, 64, 87
1, 477270, Control_c, 0, 64, 89
1, 477285, Control_c, 0, 64, 90
1, 477288, Note_off_c, 0, 58, 56
1, 477300, Control_c, 0, 64, 91
1, 477306, Note_on_c, 0, 75, 60
1, 477308, Note_on_c, 0, 63, 50
1, 477315, Control_c, 0, 64, 92
1, 477434, Note_on_c, 0, 76, 67
1, 477437, Note_on_c, 0, 58, 55
1, 477440, Note_off_c, 0, 63, 49
1, 477445, Note_off_c, 0, 55, 59
1, 477450, Note_off_c, 0, 75, 53
1, 477468, Note_off_c, 0, 76, 59
1, 477552, Control_c, 0, 64, 91
1, 477567, Control_c, 0, 64, 90
1, 477581, Note_on_c, 0, 56, 56
1, 477581, Note_on_c, 0, 74, 61
1, 477582, Control_c, 0, 64, 87
1, 477583, Note_on_c, 0, 77, 58
1, 477592, Note_off_c, 0, 58, 54
1, 477597, Control_c, 0, 64, 82
1, 477612, Control_c, 0, 64, 76
1, 477634, Control_c, 0, 64, 69
1, 477649, Control_c, 0, 64, 64
1, 477664, Control_c, 0, 64, 57
1, 477678, Control_c, 0, 64, 54
1, 477693, Control_c, 0, 64, 52
1, 477708, Control_c, 0, 64, 50
1, 477723, Control_c, 0, 64, 47
1, 477725, Note_on_c, 0, 79, 71
1, 477733, Note_on_c, 0, 58, 49
1, 477736, Note_off_c, 0, 77, 59
1, 477738, Control_c, 0, 64, 43
1, 477752, Control_c, 0, 64, 40
1, 477767, Control_c, 0, 64, 38
1, 477834, Note_off_c, 0, 58, 59
1, 477841, Control_c, 0, 64, 38
1, 477855, Note_off_c, 0, 79, 59
1, 477857, Note_on_c, 0, 80, 68
1, 477867, Note_on_c, 0, 62, 44
1, 477974, Note_off_c, 0, 62, 55
1, 477983, Note_on_c, 0, 77, 65
1, 477989, Control_c, 0, 64, 38
1, 477993, Note_on_c, 0, 58, 36
1, 478006, Note_off_c, 0, 74, 52
1, 478019, Control_c, 0, 64, 40
1, 478034, Control_c, 0, 64, 42
1, 478049, Control_c, 0, 64, 43
1, 478063, Control_c, 0, 64, 45
1, 478078, Control_c, 0, 64, 45
1, 478086, Note_off_c, 0, 80, 37
1, 478093, Control_c, 0, 64, 46
1, 478104, Note_off_c, 0, 56, 54
1, 478105, Note_off_c, 0, 77, 62
1, 478113, Note_on_c, 0, 75, 64
1, 478114, Note_off_c, 0, 58, 59
1, 478135, Note_on_c, 0, 55, 47
1, 478138, Note_off_c, 0, 75, 67
1, 478169, Control_c, 0, 64, 44
1, 478183, Control_c, 0, 64, 34
1, 478198, Control_c, 0, 64, 0
1, 478259, Note_on_c, 0, 58, 48
1, 478262, Note_on_c, 0, 82, 67
1, 478347, Control_c, 0, 64, 58
1, 478362, Control_c, 0, 64, 65
1, 478380, Note_off_c, 0, 58, 60
1, 478383, Control_c, 0, 64, 69
1, 478398, Control_c, 0, 64, 72
1, 478399, Note_on_c, 0, 63, 59
1, 478413, Control_c, 0, 64, 75
1, 478427, Control_c, 0, 64, 78
1, 478442, Control_c, 0, 64, 80
1, 478451, Note_off_c, 0, 82, 64
1, 478457, Control_c, 0, 64, 81
1, 478472, Control_c, 0, 64, 82
1, 478487, Control_c, 0, 64, 82
1, 478502, Control_c, 0, 64, 83
1, 478540, Note_on_c, 0, 58, 56
1, 478543, Note_off_c, 0, 55, 59
1, 478544, Note_on_c, 0, 82, 81
1, 478557, Note_off_c, 0, 63, 54
1, 478665, Control_c, 0, 64, 82
1, 478680, Control_c, 0, 64, 82
1, 478694, Note_on_c, 0, 50, 60
1, 478695, Note_off_c, 0, 58, 59
1, 478695, Control_c, 0, 64, 81
1, 478709, Control_c, 0, 64, 81
1, 478724, Control_c, 0, 64, 80
1, 478739, Control_c, 0, 64, 78
1, 478754, Control_c, 0, 64, 74
1, 478768, Control_c, 0, 64, 69
1, 478783, Control_c, 0, 64, 63
1, 478798, Control_c, 0, 64, 47
1, 478813, Control_c, 0, 64, 0
1, 478824, Note_on_c, 0, 53, 56
1, 478833, Note_on_c, 0, 80, 76
1, 478965, Note_on_c, 0, 79, 79
1, 478965, Note_off_c, 0, 82, 59
1, 478966, Note_off_c, 0, 80, 63
1, 478970, Note_on_c, 0, 58, 56
1, 479021, Control_c, 0, 64, 52
1, 479036, Control_c, 0, 64, 64
1, 479050, Control_c, 0, 64, 69
1, 479065, Control_c, 0, 64, 74
1, 479068, Note_off_c, 0, 50, 52
1, 479073, Note_off_c, 0, 53, 64
1, 479080, Control_c, 0, 64, 80
1, 479086, Note_on_c, 0, 78, 81
1, 479095, Control_c, 0, 64, 84
1, 479105, Note_on_c, 0, 62, 54
1, 479105, Note_off_c, 0, 79, 60
1, 479110, Control_c, 0, 64, 88
1, 479132, Control_c, 0, 64, 91
1, 479146, Note_off_c, 0, 78, 64
1, 479147, Note_off_c, 0, 58, 37
1, 479147, Control_c, 0, 64, 93
1, 479162, Control_c, 0, 64, 95
1, 479177, Control_c, 0, 64, 95
1, 479236, Control_c, 0, 64, 94
1, 479248, Note_on_c, 0, 51, 51
1, 479250, Note_on_c, 0, 78, 66
1, 479250, Control_c, 0, 64, 90
1, 479252, Note_off_c, 0, 62, 51
1, 479265, Control_c, 0, 64, 83
1, 479280, Control_c, 0, 64, 72
1, 479295, Control_c, 0, 64, 56
1, 479310, Control_c, 0, 64, 0
1, 479392, Note_on_c, 0, 55, 49
1, 479542, Note_off_c, 0, 55, 56
1, 479552, Note_on_c, 0, 58, 43
1, 479632, Note_off_c, 0, 78, 59
1, 479642, Note_off_c, 0, 58, 60
1, 479650, Control_c, 0, 64, 39
1, 479664, Control_c, 0, 64, 59
1, 479673, Note_on_c, 0, 79, 54
1, 479679, Control_c, 0, 64, 65
1, 479694, Control_c, 0, 64, 69
1, 479703, Note_on_c, 0, 63, 31
1, 479709, Control_c, 0, 64, 73
1, 479724, Control_c, 0, 64, 76
1, 479730, Note_off_c, 0, 79, 56
1, 479739, Control_c, 0, 64, 79
1, 479754, Control_c, 0, 64, 81
1, 479769, Control_c, 0, 64, 83
1, 479784, Control_c, 0, 64, 83
1, 479799, Control_c, 0, 64, 84
1, 479828, Control_c, 0, 64, 85
1, 479855, Note_on_c, 0, 67, 52
1, 479912, Note_off_c, 0, 63, 41
1, 479954, Control_c, 0, 64, 84
1, 479971, Note_off_c, 0, 67, 59
1, 479984, Control_c, 0, 64, 84
1, 479991, Note_off_c, 0, 51, 23
1, 479995, Note_on_c, 0, 66, 57
1, 479999, Control_c, 0, 64, 83
1, 480014, Control_c, 0, 64, 83
1, 480028, Control_c, 0, 64, 82
1, 480043, Control_c, 0, 64, 80
1, 480058, Control_c, 0, 64, 79
1, 480073, Control_c, 0, 64, 77
1, 480084, Note_off_c, 0, 66, 60
1, 480088, Control_c, 0, 64, 75
1, 480096, Note_on_c, 0, 67, 61
1, 480102, Control_c, 0, 64, 73
1, 480117, Control_c, 0, 64, 72
1, 480132, Control_c, 0, 64, 70
1, 480147, Control_c, 0, 64, 70
1, 480162, Control_c, 0, 64, 69
1, 480170, Note_off_c, 0, 67, 61
1, 480177, Control_c, 0, 64, 69
1, 480185, Note_on_c, 0, 68, 67
1, 480192, Control_c, 0, 64, 68
1, 480206, Control_c, 0, 64, 68
1, 480236, Control_c, 0, 64, 67
1, 480251, Control_c, 0, 64, 67
1, 480253, Note_off_c, 0, 68, 63
1, 480265, Control_c, 0, 64, 66
1, 480269, Note_on_c, 0, 69, 73
1, 480280, Control_c, 0, 64, 64
1, 480295, Control_c, 0, 64, 63
1, 480310, Control_c, 0, 64, 61
1, 480324, Note_off_c, 0, 69, 60
1, 480325, Control_c, 0, 64, 60
1, 480340, Control_c, 0, 64, 58
1, 480344, Note_on_c, 0, 70, 69
1, 480354, Control_c, 0, 64, 54
1, 480369, Control_c, 0, 64, 51
1, 480384, Control_c, 0, 64, 48
1, 480398, Control_c, 0, 64, 47
1, 480408, Note_off_c, 0, 70, 64
1, 480413, Control_c, 0, 64, 46
1, 480427, Note_on_c, 0, 71, 72
1, 480428, Control_c, 0, 64, 43
1, 480443, Control_c, 0, 64, 42
1, 480458, Control_c, 0, 64, 40
1, 480472, Control_c, 0, 64, 40
1, 480517, Note_on_c, 0, 72, 73
1, 480528, Note_off_c, 0, 71, 62
1, 480591, Note_on_c, 0, 73, 80
1, 480624, Note_off_c, 0, 72, 61
1, 480666, Note_off_c, 0, 73, 64
1, 480668, Note_on_c, 0, 74, 81
1, 480718, Control_c, 0, 64, 39
1, 480728, Note_off_c, 0, 74, 65
1, 480740, Note_on_c, 0, 75, 79
1, 480748, Control_c, 0, 64, 38
1, 480777, Control_c, 0, 64, 38
1, 480792, Control_c, 0, 64, 37
1, 480797, Note_off_c, 0, 75, 66
1, 480807, Note_on_c, 0, 76, 79
1, 480807, Control_c, 0, 64, 36
1, 480821, Control_c, 0, 64, 35
1, 480836, Control_c, 0, 64, 34
1, 480851, Control_c, 0, 64, 33
1, 480888, Note_on_c, 0, 77, 82
1, 480898, Note_off_c, 0, 76, 62
1, 480910, Control_c, 0, 64, 32
1, 480956, Note_on_c, 0, 78, 81
1, 480979, Note_off_c, 0, 77, 61
1, 481024, Note_off_c, 0, 78, 64
1, 481032, Note_on_c, 0, 79, 78
1, 481044, Control_c, 0, 64, 30
1, 481059, Control_c, 0, 64, 29
1, 481074, Control_c, 0, 64, 28
1, 481083, Note_off_c, 0, 79, 63
1, 481089, Control_c, 0, 64, 26
1, 481097, Note_on_c, 0, 80, 78
1, 481103, Control_c, 0, 64, 19
1, 481118, Control_c, 0, 64, 0
1, 481152, Note_off_c, 0, 80, 65
1, 481167, Note_on_c, 0, 81, 75
1, 481206, Note_off_c, 0, 81, 62
1, 481218, Note_on_c, 0, 82, 76
1, 481279, Note_off_c, 0, 82, 64
1, 481303, Note_on_c, 0, 83, 66
1, 481453, Note_on_c, 0, 84, 65
1, 481500, Note_off_c, 0, 83, 56
1, 481579, Note_on_c, 0, 85, 71
1, 481614, Note_off_c, 0, 84, 59
1, 481708, Note_off_c, 0, 85, 64
1, 481712, Note_on_c, 0, 86, 73
1, 481861, Note_on_c, 0, 89, 71
1, 481918, Note_off_c, 0, 86, 60
1, 481994, Note_on_c, 0, 87, 82
1, 482075, Control_c, 0, 64, 30
1, 482090, Control_c, 0, 64, 43
1, 482105, Control_c, 0, 64, 48
1, 482126, Control_c, 0, 64, 50
1, 482133, Note_on_c, 0, 86, 81
1, 482141, Control_c, 0, 64, 51
1, 482144, Note_off_c, 0, 89, 33
1, 482157, Control_c, 0, 64, 52
1, 482231, Note_off_c, 0, 87, 64
1, 482246, Control_c, 0, 64, 51
1, 482255, Note_off_c, 0, 86, 67
1, 482261, Control_c, 0, 64, 51
1, 482270, Note_on_c, 0, 84, 74
1, 482275, Control_c, 0, 64, 50
1, 482305, Control_c, 0, 64, 49
1, 482335, Control_c, 0, 64, 48
1, 482350, Control_c, 0, 64, 48
1, 482365, Control_c, 0, 64, 47
1, 482380, Control_c, 0, 64, 47
1, 482419, Note_on_c, 0, 82, 62
1, 482423, Note_off_c, 0, 84, 61
1, 482424, Control_c, 0, 64, 46
1, 482428, Note_on_c, 0, 63, 33
1, 482439, Control_c, 0, 64, 46
1, 482454, Control_c, 0, 64, 45
1, 482468, Control_c, 0, 64, 45
1, 482483, Control_c, 0, 64, 44
1, 482498, Control_c, 0, 64, 43
1, 482513, Control_c, 0, 64, 42
1, 482528, Control_c, 0, 64, 41
1, 482542, Control_c, 0, 64, 40
1, 482562, Note_on_c, 0, 65, 48
1, 482587, Control_c, 0, 64, 42
1, 482601, Control_c, 0, 64, 46
1, 482616, Control_c, 0, 64, 52
1, 482631, Control_c, 0, 64, 59
1, 482646, Control_c, 0, 64, 64
1, 482660, Control_c, 0, 64, 68
1, 482674, Control_c, 0, 64, 72
1, 482682, Note_on_c, 0, 69, 47
1, 482689, Control_c, 0, 64, 78
1, 482704, Control_c, 0, 64, 84
1, 482719, Control_c, 0, 64, 90
1, 482719, Control_c, 0, 67, 126
1, 482734, Control_c, 0, 64, 96
1, 482734, Control_c, 0, 67, 124
1, 482748, Control_c, 0, 64, 101
1, 482748, Control_c, 0, 67, 121
1, 482763, Control_c, 0, 64, 106
1, 482763, Control_c, 0, 67, 119
1, 482775, Note_off_c, 0, 82, 56
1, 482778, Control_c, 0, 64, 110
1, 482778, Control_c, 0, 67, 117
1, 482779, Note_off_c, 0, 65, 57
1, 482788, Note_on_c, 0, 81, 69
1, 482792, Control_c, 0, 64, 116
1, 482792, Control_c, 0, 67, 115
1, 482807, Control_c, 0, 64, 127
1, 482807, Control_c, 0, 67, 114
1, 482811, Note_off_c, 0, 69, 37
1, 482812, Note_on_c, 0, 72, 50
1, 482819, Note_off_c, 0, 81, 59
1, 482822, Control_c, 0, 67, 114
1, 482831, Note_off_c, 0, 63, 45
1, 482889, Control_c, 0, 67, 114
1, 482904, Control_c, 0, 67, 115
1, 482919, Control_c, 0, 67, 117
1, 482923, Note_on_c, 0, 81, 72
1, 482934, Control_c, 0, 67, 119
1, 482940, Note_off_c, 0, 72, 36
1, 482946, Note_off_c, 0, 81, 69
1, 482949, Note_on_c, 0, 63, 52
1, 482949, Control_c, 0, 64, 107
1, 482949, Control_c, 0, 67, 121
1, 482955, Note_on_c, 0, 79, 72
1, 482964, Control_c, 0, 64, 84
1, 482964, Control_c, 0, 67, 122
1, 482973, Note_off_c, 0, 79, 66
1, 482979, Control_c, 0, 64, 65
1, 482979, Control_c, 0, 67, 123
1, 482994, Control_c, 0, 64, 0
1, 483074, Note_on_c, 0, 77, 72
1, 483081, Note_on_c, 0, 65, 45
1, 483083, Control_c, 0, 67, 122
1, 483097, Control_c, 0, 67, 122
1, 483099, Note_off_c, 0, 77, 67
1, 483127, Control_c, 0, 67, 121
1, 483205, Note_on_c, 0, 79, 73
1, 483209, Note_on_c, 0, 69, 49
1, 483226, Note_off_c, 0, 79, 68
1, 483230, Control_c, 0, 67, 121
1, 483275, Control_c, 0, 67, 121
1, 483304, Note_off_c, 0, 69, 54
1, 483316, Note_off_c, 0, 65, 36
1, 483319, Control_c, 0, 67, 122
1, 483333, Note_on_c, 0, 81, 73
1, 483343, Note_off_c, 0, 63, 50
1, 483349, Note_on_c, 0, 72, 51
1, 483354, Note_off_c, 0, 81, 66
1, 483364, Control_c, 0, 67, 122
1, 483378, Control_c, 0, 67, 123
1, 483390, Note_off_c, 0, 72, 57
1, 483393, Control_c, 0, 67, 123
1, 483408, Control_c, 0, 67, 124
1, 483423, Control_c, 0, 67, 125
1, 483438, Control_c, 0, 67, 126
1, 483453, Control_c, 0, 67, 127
1, 483468, Control_c, 0, 67, 127
1, 483472, Note_on_c, 0, 82, 61
1, 483478, Note_on_c, 0, 62, 44
1, 483577, Note_off_c, 0, 62, 60
1, 483602, Note_off_c, 0, 82, 64
1, 483623, Note_on_c, 0, 65, 46
1, 483726, Note_off_c, 0, 65, 57
1, 483754, Note_on_c, 0, 62, 50
1, 483862, Note_off_c, 0, 62, 61
1, 483876, Note_on_c, 0, 86, 61
1, 483900, Note_on_c, 0, 58, 45
1, 484017, Note_off_c, 0, 58, 57
1, 484033, Note_on_c, 0, 82, 69
1, 484036, Note_on_c, 0, 53, 53
1, 484112, Note_off_c, 0, 86, 53
1, 484123, Note_off_c, 0, 53, 54
1, 484164, Note_off_c, 0, 82, 65
1, 484171, Note_on_c, 0, 65, 54
1, 484294, Note_off_c, 0, 65, 55
1, 484300, Note_on_c, 0, 62, 54
1, 484424, Note_off_c, 0, 62, 60
1, 484445, Note_on_c, 0, 86, 67
1, 484450, Note_on_c, 0, 58, 51
1, 484583, Note_on_c, 0, 53, 54
1, 484595, Note_on_c, 0, 82, 69
1, 484598, Note_off_c, 0, 58, 37
1, 484681, Note_off_c, 0, 86, 58
1, 484684, Note_off_c, 0, 53, 56
1, 484729, Note_off_c, 0, 82, 64
1, 484732, Note_on_c, 0, 65, 52
1, 484817, Control_c, 0, 64, 11
1, 484840, Note_off_c, 0, 65, 56
1, 484863, Note_on_c, 0, 62, 49
1, 484973, Note_off_c, 0, 62, 61
1, 484985, Note_on_c, 0, 86, 51
1, 485010, Control_c, 0, 64, 14
1, 485012, Note_on_c, 0, 58, 42
1, 485025, Control_c, 0, 64, 17
1, 485040, Control_c, 0, 64, 19
1, 485055, Control_c, 0, 64, 23
1, 485069, Control_c, 0, 64, 26
1, 485084, Control_c, 0, 64, 28
1, 485099, Control_c, 0, 64, 30
1, 485122, Control_c, 0, 64, 32
1, 485128, Note_on_c, 0, 82, 64
1, 485136, Control_c, 0, 64, 33
1, 485151, Control_c, 0, 64, 35
1, 485157, Note_on_c, 0, 53, 40
1, 485164, Note_off_c, 0, 58, 35
1, 485166, Control_c, 0, 64, 36
1, 485181, Control_c, 0, 64, 37
1, 485185, Note_off_c, 0, 86, 38
1, 485195, Control_c, 0, 64, 38
1, 485210, Control_c, 0, 64, 40
1, 485225, Control_c, 0, 64, 40
1, 485240, Control_c, 0, 64, 42
1, 485255, Control_c, 0, 64, 42
1, 485271, Note_on_c, 0, 77, 66
1, 485284, Control_c, 0, 64, 43
1, 485314, Control_c, 0, 64, 43
1, 485333, Note_off_c, 0, 82, 56
1, 485360, Control_c, 0, 64, 44
1, 485374, Control_c, 0, 64, 44
1, 485396, Note_off_c, 0, 77, 63
1, 485404, Control_c, 0, 64, 45
1, 485410, Note_on_c, 0, 74, 72
1, 485418, Control_c, 0, 64, 45
1, 485433, Control_c, 0, 64, 46
1, 485463, Control_c, 0, 64, 46
1, 485522, Control_c, 0, 64, 47
1, 485537, Note_on_c, 0, 75, 73
1, 485567, Note_off_c, 0, 74, 62
1, 485596, Control_c, 0, 64, 47
1, 485683, Note_on_c, 0, 76, 79
1, 485700, Control_c, 0, 64, 48
1, 485744, Note_off_c, 0, 75, 56
1, 485807, Note_on_c, 0, 79, 79
1, 485826, Note_off_c, 0, 76, 62
1, 485885, Control_c, 0, 64, 47
1, 485895, Note_off_c, 0, 53, 54
1, 485930, Control_c, 0, 64, 47
1, 485957, Note_on_c, 0, 77, 72
1, 485974, Control_c, 0, 64, 46
1, 485989, Control_c, 0, 64, 46
1, 486011, Note_off_c, 0, 79, 55
1, 486018, Control_c, 0, 64, 45
1, 486073, Note_off_c, 0, 77, 61
1, 486091, Note_on_c, 0, 74, 69
1, 486182, Control_c, 0, 64, 45
1, 486213, Note_off_c, 0, 74, 62
1, 486240, Note_on_c, 0, 70, 59
1, 486345, Control_c, 0, 64, 44
1, 486419, Control_c, 0, 64, 44
1, 486448, Control_c, 0, 64, 43
1, 486463, Control_c, 0, 64, 40
1, 486478, Control_c, 0, 64, 23
1, 486493, Control_c, 0, 64, 0
1, 486533, Note_off_c, 0, 70, 61
1, 486551, Note_on_c, 0, 74, 60
1, 486555, Note_on_c, 0, 63, 46
1, 486559, Note_on_c, 0, 69, 52
1, 486567, Note_on_c, 0, 53, 50
1, 486589, Note_off_c, 0, 63, 60
1, 486619, Control_c, 0, 64, 58
1, 486634, Control_c, 0, 64, 65
1, 486648, Control_c, 0, 64, 70
1, 486660, Note_off_c, 0, 69, 51
1, 486663, Control_c, 0, 64, 73
1, 486678, Control_c, 0, 64, 76
1, 486693, Control_c, 0, 64, 80
1, 486706, Note_on_c, 0, 72, 57
1, 486707, Control_c, 0, 64, 83
1, 486722, Control_c, 0, 64, 87
1, 486737, Control_c, 0, 64, 90
1, 486752, Control_c, 0, 64, 93
1, 486766, Control_c, 0, 64, 94
1, 486781, Control_c, 0, 64, 94
1, 486795, Note_off_c, 0, 74, 38
1, 486811, Control_c, 0, 64, 90
1, 486820, Note_off_c, 0, 72, 58
1, 486826, Control_c, 0, 64, 76
1, 486831, Note_off_c, 0, 53, 62
1, 486836, Note_on_c, 0, 58, 58
1, 486839, Note_on_c, 0, 70, 65
1, 486840, Control_c, 0, 64, 0
1, 486844, Note_on_c, 0, 62, 39
1, 486860, Note_off_c, 0, 58, 61
1, 486865, Note_off_c, 0, 70, 68
1, 486875, Note_off_c, 0, 62, 33
1, 486979, Note_on_c, 0, 62, 62
1, 486981, Note_on_c, 0, 50, 74
1, 486984, Note_on_c, 0, 70, 68
1, 487006, Note_off_c, 0, 62, 64
1, 487009, Note_off_c, 0, 70, 68
1, 487010, Note_off_c, 0, 50, 67
1, 487108, Note_on_c, 0, 48, 84
1, 487117, Note_on_c, 0, 60, 65
1, 487122, Note_on_c, 0, 72, 58
1, 487129, Note_off_c, 0, 48, 67
1, 487137, Note_off_c, 0, 60, 63
1, 487161, Note_off_c, 0, 72, 62
1, 487171, Note_on_c, 0, 70, 74
1, 487212, Note_off_c, 0, 70, 62
1, 487241, Note_on_c, 0, 46, 67
1, 487244, Note_on_c, 0, 58, 62
1, 487244, Note_on_c, 0, 69, 55
1, 487269, Note_off_c, 0, 46, 64
1, 487271, Note_off_c, 0, 58, 65
1, 487281, Note_off_c, 0, 69, 61
1, 487295, Note_on_c, 0, 70, 68
1, 487345, Control_c, 0, 67, 121
1, 487353, Note_on_c, 0, 72, 71
1, 487353, Note_off_c, 0, 70, 62
1, 487364, Note_on_c, 0, 45, 82
1, 487367, Control_c, 0, 67, 111
1, 487373, Note_on_c, 0, 57, 62
1, 487382, Note_off_c, 0, 72, 70
1, 487382, Control_c, 0, 67, 102
1, 487388, Note_off_c, 0, 45, 67
1, 487397, Control_c, 0, 67, 93
1, 487399, Note_off_c, 0, 57, 64
1, 487412, Control_c, 0, 67, 86
1, 487426, Control_c, 0, 67, 79
1, 487441, Control_c, 0, 67, 72
1, 487456, Control_c, 0, 67, 65
1, 487471, Control_c, 0, 67, 60
1, 487486, Control_c, 0, 67, 56
1, 487501, Control_c, 0, 67, 52
1, 487508, Note_on_c, 0, 43, 79
1, 487512, Note_on_c, 0, 65, 77
1, 487513, Note_on_c, 0, 55, 66
1, 487513, Note_on_c, 0, 77, 87
1, 487516, Control_c, 0, 67, 48
1, 487531, Note_off_c, 0, 77, 73
1, 487531, Control_c, 0, 67, 45
1, 487532, Note_off_c, 0, 55, 64
1, 487534, Note_off_c, 0, 65, 70
1, 487534, Note_off_c, 0, 43, 65
1, 487545, Control_c, 0, 64, 11
1, 487545, Control_c, 0, 67, 40
1, 487560, Control_c, 0, 64, 19
1, 487560, Control_c, 0, 67, 33
1, 487575, Control_c, 0, 64, 23
1, 487575, Control_c, 0, 67, 26
1, 487589, Control_c, 0, 64, 24
1, 487589, Control_c, 0, 67, 18
1, 487604, Control_c, 0, 64, 27
1, 487604, Control_c, 0, 67, 8
1, 487619, Control_c, 0, 64, 28
1, 487619, Control_c, 0, 67, 0
1, 487641, Note_on_c, 0, 77, 93
1, 487643, Note_on_c, 0, 41, 89
1, 487647, Note_on_c, 0, 67, 84
1, 487648, Note_on_c, 0, 53, 76
1, 487665, Note_off_c, 0, 67, 70
1, 487667, Note_off_c, 0, 41, 66
1, 487668, Note_off_c, 0, 53, 67
1, 487672, Note_off_c, 0, 77, 64
1, 487678, Control_c, 0, 64, 29
1, 487693, Control_c, 0, 64, 31
1, 487707, Control_c, 0, 64, 35
1, 487722, Control_c, 0, 64, 36
1, 487739, Control_c, 0, 64, 38
1, 487754, Control_c, 0, 64, 38
1, 487768, Control_c, 0, 64, 40
1, 487769, Note_on_c, 0, 39, 84
1, 487774, Note_on_c, 0, 51, 88
1, 487778, Note_on_c, 0, 77, 102
1, 487779, Note_on_c, 0, 69, 91
1, 487783, Control_c, 0, 64, 42
1, 487798, Control_c, 0, 64, 43
1, 487799, Note_off_c, 0, 51, 68
1, 487812, Control_c, 0, 64, 45
1, 487815, Note_off_c, 0, 77, 65
1, 487817, Note_off_c, 0, 69, 61
1, 487817, Note_off_c, 0, 39, 60
1, 487827, Control_c, 0, 64, 46
1, 487842, Control_c, 0, 64, 47
1, 487872, Control_c, 0, 64, 47
1, 487886, Control_c, 0, 64, 47
1, 487902, Control_c, 0, 64, 11
1, 487909, Note_on_c, 0, 38, 89
1, 487912, Note_on_c, 0, 50, 87
1, 487917, Control_c, 0, 64, 0
1, 487920, Note_on_c, 0, 70, 81
1, 487921, Note_on_c, 0, 77, 76
1, 487931, Note_off_c, 0, 38, 69
1, 487936, Note_off_c, 0, 50, 72
1, 487941, Note_off_c, 0, 70, 69
1, 487945, Note_off_c, 0, 77, 68
1, 488045, Note_on_c, 0, 50, 78
1, 488054, Note_on_c, 0, 70, 81
1, 488055, Note_on_c, 0, 62, 73
1, 488073, Note_off_c, 0, 50, 70
1, 488077, Note_off_c, 0, 70, 68
1, 488080, Note_off_c, 0, 62, 67
1, 488192, Note_on_c, 0, 72, 79
1, 488194, Note_on_c, 0, 48, 90
1, 488199, Note_on_c, 0, 60, 74
1, 488216, Note_off_c, 0, 48, 67
1, 488222, Note_off_c, 0, 60, 70
1, 488245, Note_off_c, 0, 72, 63
1, 488252, Note_on_c, 0, 70, 73
1, 488287, Note_off_c, 0, 70, 63
1, 488306, Note_on_c, 0, 69, 61
1, 488323, Note_on_c, 0, 46, 65
1, 488328, Note_on_c, 0, 58, 58
1, 488350, Note_off_c, 0, 46, 64
1, 488352, Note_off_c, 0, 69, 56
1, 488355, Note_off_c, 0, 58, 65
1, 488367, Note_on_c, 0, 70, 63
1, 488425, Note_on_c, 0, 72, 73
1, 488425, Note_off_c, 0, 70, 63
1, 488439, Note_on_c, 0, 45, 80
1, 488443, Note_on_c, 0, 57, 70
1, 488447, Note_off_c, 0, 72, 70
1, 488467, Note_off_c, 0, 45, 66
1, 488470, Note_off_c, 0, 57, 67
1, 488574, Note_on_c, 0, 43, 87
1, 488574, Note_on_c, 0, 65, 91
1, 488574, Note_on_c, 0, 77, 96
1, 488580, Note_on_c, 0, 55, 74
1, 488592, Note_off_c, 0, 65, 71
1, 488594, Note_off_c, 0, 77, 65
1, 488600, Note_off_c, 0, 43, 67
1, 488607, Note_off_c, 0, 55, 67
1, 488708, Note_on_c, 0, 41, 91
1, 488711, Note_on_c, 0, 77, 93
1, 488713, Note_on_c, 0, 67, 90
1, 488714, Note_on_c, 0, 53, 79
1, 488732, Note_off_c, 0, 41, 68
1, 488735, Note_off_c, 0, 67, 66
1, 488738, Note_off_c, 0, 77, 65
1, 488741, Note_off_c, 0, 53, 69
1, 488840, Note_on_c, 0, 39, 86
1, 488846, Note_on_c, 0, 69, 91
1, 488846, Note_on_c, 0, 77, 93
1, 488847, Note_on_c, 0, 51, 78
1, 488878, Note_off_c, 0, 51, 68
1, 488886, Note_off_c, 0, 69, 62
1, 488891, Note_off_c, 0, 39, 56
1, 488892, Note_off_c, 0, 77, 61
1, 488940, Control_c, 0, 64, 23
1, 488954, Control_c, 0, 64, 31
1, 488969, Control_c, 0, 64, 14
1, 488980, Note_on_c, 0, 38, 90
1, 488984, Control_c, 0, 64, 0
1, 488986, Note_on_c, 0, 50, 85
1, 488988, Note_on_c, 0, 70, 85
1, 488993, Note_on_c, 0, 77, 73
1, 489003, Note_off_c, 0, 38, 69
1, 489011, Note_off_c, 0, 50, 72
1, 489011, Note_off_c, 0, 77, 65
1, 489015, Note_off_c, 0, 70, 63
1, 489117, Note_on_c, 0, 50, 81
1, 489123, Note_on_c, 0, 70, 82
1, 489126, Note_on_c, 0, 62, 79
1, 489146, Note_off_c, 0, 50, 67
1, 489146, Note_off_c, 0, 62, 69
1, 489149, Note_off_c, 0, 70, 63
1, 489251, Note_on_c, 0, 48, 93
1, 489251, Note_on_c, 0, 72, 85
1, 489254, Note_on_c, 0, 60, 84
1, 489273, Note_off_c, 0, 48, 71
1, 489274, Note_off_c, 0, 60, 72
1, 489316, Note_off_c, 0, 72, 63
1, 489327, Note_on_c, 0, 70, 77
1, 489368, Note_off_c, 0, 70, 61
1, 489379, Note_on_c, 0, 69, 67
1, 489384, Note_on_c, 0, 46, 73
1, 489386, Note_on_c, 0, 58, 76
1, 489409, Note_off_c, 0, 58, 69
1, 489412, Note_off_c, 0, 46, 64
1, 489438, Note_off_c, 0, 69, 60
1, 489447, Note_on_c, 0, 70, 57
1, 489498, Note_on_c, 0, 45, 84
1, 489499, Note_on_c, 0, 72, 79
1, 489503, Note_on_c, 0, 57, 75
1, 489506, Note_off_c, 0, 70, 63
1, 489522, Note_off_c, 0, 72, 68
1, 489525, Note_off_c, 0, 45, 66
1, 489528, Note_off_c, 0, 57, 68
1, 489644, Note_on_c, 0, 43, 84
1, 489644, Note_on_c, 0, 65, 89
1, 489644, Note_on_c, 0, 77, 91
1, 489647, Note_on_c, 0, 55, 78
1, 489670, Note_off_c, 0, 43, 66
1, 489670, Note_off_c, 0, 55, 67
1, 489672, Note_off_c, 0, 65, 65
1, 489674, Control_c, 0, 64, 46
1, 489678, Note_off_c, 0, 77, 65
1, 489689, Control_c, 0, 64, 59
1, 489704, Control_c, 0, 64, 62
1, 489719, Control_c, 0, 64, 63
1, 489733, Control_c, 0, 64, 64
1, 489763, Control_c, 0, 64, 63
1, 489776, Note_on_c, 0, 41, 90
1, 489778, Control_c, 0, 64, 48
1, 489778, Note_on_c, 0, 77, 96
1, 489782, Note_on_c, 0, 53, 80
1, 489784, Note_on_c, 0, 67, 89
1, 489793, Control_c, 0, 64, 0
1, 489802, Note_off_c, 0, 41, 66
1, 489806, Note_off_c, 0, 67, 64
1, 489808, Note_off_c, 0, 53, 66
1, 489811, Note_off_c, 0, 77, 66
1, 489914, Note_on_c, 0, 39, 84
1, 489917, Note_on_c, 0, 51, 84
1, 489917, Note_on_c, 0, 69, 90
1, 489918, Note_on_c, 0, 77, 87
1, 489935, Note_off_c, 0, 77, 70
1, 489937, Note_off_c, 0, 69, 63
1, 489939, Note_off_c, 0, 39, 64
1, 489941, Note_off_c, 0, 51, 68
1, 490030, Control_c, 0, 64, 75
1, 490045, Control_c, 0, 64, 95
1, 490053, Note_on_c, 0, 38, 93
1, 490055, Note_on_c, 0, 77, 89
1, 490056, Note_on_c, 0, 50, 81
1, 490057, Note_on_c, 0, 70, 85
1, 490059, Control_c, 0, 64, 103
1, 490074, Note_off_c, 0, 70, 73
1, 490074, Control_c, 0, 64, 93
1, 490075, Note_off_c, 0, 38, 68
1, 490083, Note_off_c, 0, 77, 61
1, 490084, Note_off_c, 0, 50, 65
1, 490089, Control_c, 0, 64, 74
1, 490104, Control_c, 0, 64, 43
1, 490119, Control_c, 0, 64, 0
1, 490163, Control_c, 0, 67, 8
1, 490178, Control_c, 0, 67, 8
1, 490193, Control_c, 0, 67, 9
1, 490208, Control_c, 0, 67, 10
1, 490312, Control_c, 0, 67, 9
1, 490327, Note_on_c, 0, 79, 80
1, 490327, Control_c, 0, 64, 63
1, 490327, Control_c, 0, 67, 9
1, 490332, Note_on_c, 0, 75, 64
1, 490333, Note_on_c, 0, 51, 71
1, 490335, Note_on_c, 0, 39, 62
1, 490336, Note_on_c, 0, 67, 70
1, 490339, Note_on_c, 0, 70, 65
1, 490342, Control_c, 0, 64, 77
1, 490342, Control_c, 0, 67, 8
1, 490363, Note_off_c, 0, 51, 67
1, 490363, Control_c, 0, 64, 81
1, 490363, Control_c, 0, 67, 8
1, 490366, Note_off_c, 0, 75, 66
1, 490369, Note_off_c, 0, 39, 61
1, 490369, Note_off_c, 0, 67, 67
1, 490372, Note_off_c, 0, 70, 68
1, 490378, Control_c, 0, 64, 77
1, 490378, Control_c, 0, 67, 0
1, 490379, Note_off_c, 0, 79, 60
1, 490393, Control_c, 0, 64, 66
1, 490407, Control_c, 0, 64, 0
1, 490601, Control_c, 0, 64, 53
1, 490611, Note_on_c, 0, 53, 66
1, 490612, Note_on_c, 0, 41, 65
1, 490612, Note_on_c, 0, 74, 60
1, 490615, Control_c, 0, 64, 74
1, 490617, Note_on_c, 0, 70, 59
1, 490617, Note_on_c, 0, 77, 65
1, 490630, Control_c, 0, 64, 79
1, 490640, Note_off_c, 0, 53, 66
1, 490641, Note_off_c, 0, 41, 64
1, 490643, Note_on_c, 0, 65, 24
1, 490644, Note_off_c, 0, 77, 67
1, 490645, Control_c, 0, 64, 81
1, 490646, Note_off_c, 0, 74, 67
1, 490646, Note_off_c, 0, 70, 65
1, 490660, Control_c, 0, 64, 75
1, 490675, Control_c, 0, 64, 64
1, 490682, Note_off_c, 0, 65, 30
1, 490689, Control_c, 0, 64, 0
1, 490909, Note_on_c, 0, 41, 60
1, 490909, Note_on_c, 0, 69, 46
1, 490914, Note_on_c, 0, 77, 58
1, 490917, Note_on_c, 0, 53, 56
1, 490923, Note_on_c, 0, 65, 39
1, 490928, Control_c, 0, 64, 66
1, 490929, Note_on_c, 0, 72, 40
1, 490942, Note_off_c, 0, 41, 63
1, 490943, Control_c, 0, 64, 71
1, 490947, Note_off_c, 0, 53, 66
1, 490957, Note_off_c, 0, 69, 59
1, 490958, Control_c, 0, 64, 74
1, 490962, Note_off_c, 0, 65, 65
1, 490965, Note_off_c, 0, 72, 58
1, 490986, Note_off_c, 0, 77, 61
1, 490987, Control_c, 0, 64, 71
1, 491002, Control_c, 0, 64, 65
1, 491017, Control_c, 0, 64, 49
1, 491031, Control_c, 0, 64, 17
1, 491046, Control_c, 0, 64, 0
1, 491157, Control_c, 0, 64, 31
1, 491172, Control_c, 0, 64, 48
1, 491187, Control_c, 0, 64, 55
1, 491202, Control_c, 0, 64, 51
1, 491217, Control_c, 0, 64, 0
1, 491393, Note_on_c, 0, 70, 94
1, 491397, Note_on_c, 0, 62, 89
1, 491400, Note_on_c, 0, 50, 81
1, 491418, Note_on_c, 0, 52, 59
1, 491421, Note_off_c, 0, 62, 64
1, 491427, Note_off_c, 0, 50, 70
1, 491436, Note_off_c, 0, 70, 64
1, 491443, Note_off_c, 0, 52, 36
1, 491524, Note_on_c, 0, 72, 88
1, 491526, Note_on_c, 0, 48, 93
1, 491526, Note_on_c, 0, 60, 93
1, 491528, Control_c, 0, 64, 50
1, 491543, Control_c, 0, 64, 0
1, 491547, Note_off_c, 0, 48, 72
1, 491547, Note_off_c, 0, 60, 70
1, 491591, Note_off_c, 0, 72, 62
1, 491594, Note_on_c, 0, 70, 79
1, 491641, Note_off_c, 0, 70, 63
1, 491649, Note_on_c, 0, 69, 69
1, 491658, Note_on_c, 0, 58, 93
1, 491659, Note_on_c, 0, 46, 85
1, 491685, Note_off_c, 0, 58, 61
1, 491698, Note_off_c, 0, 46, 59
1, 491701, Note_on_c, 0, 70, 75
1, 491711, Note_off_c, 0, 69, 60
1, 491773, Note_on_c, 0, 72, 87
1, 491778, Note_on_c, 0, 45, 96
1, 491779, Note_on_c, 0, 57, 93
1, 491783, Note_off_c, 0, 70, 64
1, 491798, Note_off_c, 0, 57, 71
1, 491800, Note_off_c, 0, 45, 72
1, 491800, Note_off_c, 0, 72, 63
1, 491924, Note_on_c, 0, 65, 86
1, 491925, Note_on_c, 0, 77, 90
1, 491928, Note_on_c, 0, 43, 86
1, 491934, Note_on_c, 0, 55, 77
1, 491943, Note_off_c, 0, 77, 71
1, 491945, Note_off_c, 0, 65, 68
1, 491951, Note_off_c, 0, 43, 68
1, 491960, Note_off_c, 0, 55, 68
1, 492060, Note_on_c, 0, 41, 95
1, 492060, Note_on_c, 0, 77, 97
1, 492063, Note_on_c, 0, 53, 87
1, 492066, Note_on_c, 0, 67, 89
1, 492084, Note_off_c, 0, 41, 69
1, 492086, Note_off_c, 0, 53, 71
1, 492088, Note_off_c, 0, 67, 66
1, 492092, Note_off_c, 0, 77, 67
1, 492188, Control_c, 0, 67, 8
1, 492193, Note_on_c, 0, 39, 86
1, 492196, Note_on_c, 0, 51, 89
1, 492197, Note_on_c, 0, 77, 93
1, 492200, Note_on_c, 0, 69, 90
1, 492220, Note_off_c, 0, 51, 71
1, 492233, Note_off_c, 0, 69, 62
1, 492238, Note_off_c, 0, 77, 62
1, 492241, Note_off_c, 0, 39, 55
1, 492277, Control_c, 0, 67, 0
1, 492324, Note_on_c, 0, 70, 92
1, 492326, Note_on_c, 0, 77, 82
1, 492330, Note_on_c, 0, 38, 89
1, 492330, Note_on_c, 0, 50, 93
1, 492351, Note_off_c, 0, 77, 64
1, 492352, Note_off_c, 0, 70, 65
1, 492353, Note_off_c, 0, 50, 73
1, 492354, Note_off_c, 0, 38, 68
1, 492464, Note_on_c, 0, 50, 79
1, 492466, Note_on_c, 0, 62, 90
1, 492468, Note_on_c, 0, 70, 83
1, 492488, Note_off_c, 0, 62, 66
1, 492489, Note_on_c, 0, 52, 53
1, 492490, Note_off_c, 0, 52, 127
1, 492491, Note_off_c, 0, 70, 67
1, 492494, Note_off_c, 0, 50, 69
1, 492595, Note_on_c, 0, 72, 83
1, 492604, Note_on_c, 0, 48, 95
1, 492604, Note_on_c, 0, 60, 90
1, 492625, Note_off_c, 0, 48, 71
1, 492625, Note_off_c, 0, 60, 69
1, 492667, Note_on_c, 0, 70, 80
1, 492670, Note_off_c, 0, 72, 62
1, 492715, Note_off_c, 0, 70, 65
1, 492724, Note_on_c, 0, 69, 68
1, 492726, Note_on_c, 0, 46, 89
1, 492727, Note_on_c, 0, 58, 93
1, 492750, Note_off_c, 0, 58, 66
1, 492753, Note_off_c, 0, 46, 68
1, 492780, Note_off_c, 0, 69, 61
1, 492780, Note_on_c, 0, 70, 72
1, 492843, Note_on_c, 0, 72, 80
1, 492845, Note_on_c, 0, 45, 90
1, 492846, Note_on_c, 0, 57, 83
1, 492850, Note_off_c, 0, 70, 65
1, 492866, Note_off_c, 0, 72, 66
1, 492867, Note_off_c, 0, 57, 70
1, 492870, Note_off_c, 0, 45, 69
1, 492981, Note_on_c, 0, 77, 95
1, 492983, Note_on_c, 0, 65, 89
1, 492985, Note_on_c, 0, 43, 84
1, 492987, Note_on_c, 0, 55, 78
1, 493007, Note_off_c, 0, 65, 65
1, 493009, Note_off_c, 0, 55, 68
1, 493010, Note_off_c, 0, 43, 66
1, 493010, Note_off_c, 0, 77, 61
1, 493115, Note_on_c, 0, 77, 102
1, 493118, Note_on_c, 0, 41, 91
1, 493119, Note_on_c, 0, 67, 95
1, 493121, Note_on_c, 0, 53, 88
1, 493141, Note_off_c, 0, 41, 69
1, 493143, Note_off_c, 0, 67, 64
1, 493144, Note_off_c, 0, 53, 70
1, 493144, Note_off_c, 0, 77, 68
1, 493203, Control_c, 0, 67, 8
1, 493218, Control_c, 0, 67, 8
1, 493233, Control_c, 0, 67, 9
1, 493245, Note_on_c, 0, 39, 87
1, 493248, Note_on_c, 0, 51, 85
1, 493248, Control_c, 0, 67, 9
1, 493253, Note_on_c, 0, 69, 95
1, 493253, Note_on_c, 0, 77, 98
1, 493263, Control_c, 0, 67, 10
1, 493270, Note_off_c, 0, 51, 71
1, 493278, Control_c, 0, 67, 10
1, 493281, Note_off_c, 0, 77, 62
1, 493286, Note_off_c, 0, 69, 62
1, 493287, Note_off_c, 0, 39, 58
1, 493338, Control_c, 0, 67, 10
1, 493361, Control_c, 0, 67, 9
1, 493376, Control_c, 0, 67, 8
1, 493385, Note_on_c, 0, 38, 91
1, 493385, Note_on_c, 0, 50, 92
1, 493385, Note_on_c, 0, 77, 83
1, 493387, Note_on_c, 0, 70, 88
1, 493390, Control_c, 0, 67, 8
1, 493405, Control_c, 0, 67, 0
1, 493407, Note_off_c, 0, 38, 68
1, 493407, Note_off_c, 0, 50, 73
1, 493415, Note_off_c, 0, 70, 62
1, 493415, Note_off_c, 0, 77, 59
1, 493519, Note_on_c, 0, 50, 81
1, 493525, Note_on_c, 0, 62, 83
1, 493528, Note_on_c, 0, 70, 82
1, 493546, Note_off_c, 0, 62, 68
1, 493549, Note_off_c, 0, 50, 68
1, 493550, Note_off_c, 0, 70, 66
1, 493653, Note_on_c, 0, 48, 94
1, 493654, Note_on_c, 0, 60, 89
1, 493657, Note_on_c, 0, 72, 81
1, 493673, Note_off_c, 0, 60, 71
1, 493674, Note_off_c, 0, 48, 71
1, 493722, Note_on_c, 0, 70, 83
1, 493725, Note_off_c, 0, 72, 62
1, 493746, Control_c, 0, 67, 8
1, 493772, Note_off_c, 0, 70, 64
1, 493780, Note_on_c, 0, 46, 82
1, 493782, Note_on_c, 0, 58, 79
1, 493784, Note_on_c, 0, 69, 66
1, 493803, Note_off_c, 0, 58, 69
1, 493811, Note_off_c, 0, 46, 65
1, 493844, Note_off_c, 0, 69, 61
1, 493849, Control_c, 0, 67, 0
1, 493852, Note_on_c, 0, 70, 62
1, 493901, Note_on_c, 0, 45, 78
1, 493904, Note_on_c, 0, 57, 74
1, 493906, Note_on_c, 0, 72, 76
1, 493908, Note_off_c, 0, 70, 62
1, 493925, Note_off_c, 0, 45, 67
1, 493928, Note_off_c, 0, 57, 69
1, 493928, Note_off_c, 0, 72, 70
1, 494039, Note_on_c, 0, 43, 86
1, 494042, Note_on_c, 0, 55, 78
1, 494044, Note_on_c, 0, 77, 91
1, 494047, Note_on_c, 0, 65, 84
1, 494066, Note_off_c, 0, 55, 67
1, 494068, Note_off_c, 0, 43, 67
1, 494071, Note_off_c, 0, 65, 67
1, 494077, Note_off_c, 0, 77, 62
1, 494181, Note_on_c, 0, 41, 94
1, 494181, Note_on_c, 0, 79, 99
1, 494182, Note_on_c, 0, 53, 89
1, 494185, Note_on_c, 0, 67, 93
1, 494204, Note_off_c, 0, 53, 70
1, 494205, Note_off_c, 0, 41, 68
1, 494214, Note_off_c, 0, 67, 65
1, 494216, Note_off_c, 0, 79, 66
1, 494313, Note_on_c, 0, 39, 92
1, 494317, Note_on_c, 0, 51, 90
1, 494321, Note_on_c, 0, 81, 96
1, 494322, Note_on_c, 0, 69, 88
1, 494335, Note_off_c, 0, 81, 75
1, 494337, Note_off_c, 0, 39, 69
1, 494337, Note_off_c, 0, 69, 73
1, 494338, Note_off_c, 0, 51, 72
1, 494447, Note_on_c, 0, 38, 92
1, 494447, Note_on_c, 0, 82, 102
1, 494448, Note_on_c, 0, 50, 89
1, 494449, Note_on_c, 0, 70, 92
1, 494471, Note_off_c, 0, 38, 69
1, 494473, Note_off_c, 0, 50, 70
1, 494473, Note_off_c, 0, 70, 66
1, 494481, Note_off_c, 0, 82, 62
1, 494554, Control_c, 0, 64, 17
1, 494569, Control_c, 0, 64, 36
1, 494573, Note_on_c, 0, 48, 83
1, 494574, Note_on_c, 0, 84, 103
1, 494575, Note_on_c, 0, 36, 84
1, 494579, Note_on_c, 0, 72, 89
1, 494583, Control_c, 0, 64, 47
1, 494597, Note_off_c, 0, 48, 66
1, 494598, Control_c, 0, 64, 54
1, 494601, Note_off_c, 0, 36, 64
1, 494605, Note_off_c, 0, 72, 64
1, 494613, Control_c, 0, 64, 59
1, 494613, Note_off_c, 0, 84, 67
1, 494628, Control_c, 0, 64, 63
1, 494643, Control_c, 0, 64, 65
1, 494657, Control_c, 0, 64, 68
1, 494672, Control_c, 0, 64, 69
1, 494701, Control_c, 0, 64, 68
1, 494714, Note_on_c, 0, 86, 95
1, 494715, Note_on_c, 0, 46, 87
1, 494716, Control_c, 0, 64, 63
1, 494717, Note_on_c, 0, 74, 92
1, 494721, Note_on_c, 0, 34, 63
1, 494722, Note_off_c, 0, 34, 127
1, 494729, Note_off_c, 0, 86, 75
1, 494731, Control_c, 0, 64, 0
1, 494735, Note_off_c, 0, 74, 71
1, 494737, Note_off_c, 0, 46, 66
1, 494852, Note_on_c, 0, 82, 92
1, 494853, Note_on_c, 0, 70, 94
1, 494855, Note_on_c, 0, 38, 87
1, 494856, Note_on_c, 0, 50, 84
1, 494871, Note_off_c, 0, 82, 68
1, 494872, Note_off_c, 0, 70, 69
1, 494879, Note_off_c, 0, 38, 66
1, 494881, Note_off_c, 0, 50, 70
1, 494977, Control_c, 0, 64, 54
1, 494992, Control_c, 0, 64, 112
1, 494999, Note_on_c, 0, 79, 102
1, 495001, Note_on_c, 0, 51, 96
1, 495001, Note_on_c, 0, 39, 91
1, 495001, Note_on_c, 0, 67, 99
1, 495007, Control_c, 0, 64, 127
1, 495021, Note_off_c, 0, 51, 73
1, 495022, Note_off_c, 0, 39, 65
1, 495022, Note_off_c, 0, 67, 65
1, 495027, Note_off_c, 0, 79, 66
1, 495067, Control_c, 0, 64, 84
1, 495081, Control_c, 0, 64, 38
1, 495096, Control_c, 0, 64, 0
1, 495259, Control_c, 0, 64, 27
1, 495269, Note_on_c, 0, 53, 91
1, 495272, Note_on_c, 0, 41, 79
1, 495273, Note_on_c, 0, 77, 93
1, 495273, Control_c, 0, 64, 100
1, 495275, Note_on_c, 0, 72, 58
1, 495275, Note_on_c, 0, 65, 93
1, 495275, Note_on_c, 0, 69, 86
1, 495279, Note_on_c, 0, 45, 75
1, 495281, Note_on_c, 0, 48, 78
1, 495288, Control_c, 0, 64, 127
1, 495290, Note_off_c, 0, 53, 73
1, 495305, Note_off_c, 0, 41, 63
1, 495307, Note_off_c, 0, 48, 66
1, 495311, Note_off_c, 0, 72, 65
1, 495311, Note_off_c, 0, 45, 65
1, 495312, Note_off_c, 0, 65, 62
1, 495312, Note_off_c, 0, 77, 66
1, 495314, Note_off_c, 0, 69, 63
1, 495362, Control_c, 0, 64, 117
1, 495377, Control_c, 0, 64, 83
1, 495391, Control_c, 0, 64, 58
1, 495406, Control_c, 0, 64, 0
1, 495555, Note_on_c, 0, 34, 81
1, 495555, Note_on_c, 0, 70, 73
1, 495557, Note_on_c, 0, 74, 88
1, 495558, Note_on_c, 0, 62, 81
1, 495562, Note_on_c, 0, 65, 71
1, 495626, Note_off_c, 0, 34, 60
1, 495707, Note_on_c, 0, 46, 76
1, 495741, Note_off_c, 0, 46, 64
1, 495788, Note_off_c, 0, 62, 60
1, 495809, Note_off_c, 0, 74, 56
1, 495825, Note_off_c, 0, 65, 63
1, 495848, Note_off_c, 0, 70, 58
1, 495849, Note_on_c, 0, 34, 73
1, 495896, Note_off_c, 0, 34, 54
1, 495986, Note_on_c, 0, 46, 73
1, 495986, Note_on_c, 0, 65, 66
1, 495991, Note_on_c, 0, 74, 83
1, 496023, Note_off_c, 0, 46, 61
1, 496138, Note_on_c, 0, 62, 73
1, 496139, Note_on_c, 0, 34, 70
1, 496139, Note_on_c, 0, 70, 76
1, 496175, Note_off_c, 0, 65, 54
1, 496185, Note_off_c, 0, 34, 60
1, 496234, Note_off_c, 0, 74, 52
1, 496268, Note_off_c, 0, 62, 59
1, 496283, Note_on_c, 0, 46, 66
1, 496308, Note_off_c, 0, 46, 64
1, 496331, Note_off_c, 0, 70, 60
1, 496428, Note_on_c, 0, 34, 64
1, 496486, Note_off_c, 0, 34, 57
1, 496566, Note_on_c, 0, 65, 66
1, 496567, Note_on_c, 0, 46, 61
1, 496569, Note_on_c, 0, 74, 76
1, 496597, Note_off_c, 0, 46, 61
1, 496712, Note_on_c, 0, 62, 68
1, 496712, Note_on_c, 0, 70, 72
1, 496718, Note_on_c, 0, 34, 59
1, 496732, Note_off_c, 0, 65, 54
1, 496751, Note_off_c, 0, 34, 62
1, 496770, Control_c, 0, 64, 11
1, 496785, Control_c, 0, 64, 14
1, 496789, Note_off_c, 0, 74, 49
1, 496815, Control_c, 0, 64, 17
1, 496819, Note_off_c, 0, 62, 58
1, 496830, Control_c, 0, 64, 19
1, 496856, Note_on_c, 0, 46, 66
1, 496859, Control_c, 0, 64, 21
1, 496879, Note_off_c, 0, 70, 62
1, 496882, Note_off_c, 0, 46, 64
1, 496888, Control_c, 0, 64, 23
1, 496947, Control_c, 0, 64, 24
1, 496962, Control_c, 0, 64, 26
1, 496977, Control_c, 0, 64, 28
1, 496981, Note_on_c, 0, 34, 69
1, 496992, Control_c, 0, 64, 30
1, 497007, Control_c, 0, 64, 32
1, 497019, Note_off_c, 0, 34, 64
1, 497022, Control_c, 0, 64, 34
1, 497037, Control_c, 0, 64, 35
1, 497051, Control_c, 0, 64, 37
1, 497066, Control_c, 0, 64, 40
1, 497081, Control_c, 0, 64, 43
1, 497103, Control_c, 0, 64, 45
1, 497117, Control_c, 0, 64, 47
1, 497132, Note_on_c, 0, 46, 53
1, 497132, Control_c, 0, 64, 47
1, 497135, Note_on_c, 0, 74, 69
1, 497147, Control_c, 0, 64, 48
1, 497160, Note_off_c, 0, 46, 60
1, 497162, Control_c, 0, 64, 49
1, 497177, Control_c, 0, 64, 49
1, 497192, Control_c, 0, 64, 50
1, 497207, Control_c, 0, 64, 51
1, 497222, Control_c, 0, 64, 52
1, 497237, Control_c, 0, 64, 53
1, 497251, Control_c, 0, 64, 54
1, 497272, Note_on_c, 0, 34, 59
1, 497280, Note_on_c, 0, 70, 73
1, 497295, Control_c, 0, 64, 54
1, 497326, Control_c, 0, 64, 55
1, 497327, Note_off_c, 0, 34, 57
1, 497341, Control_c, 0, 64, 55
1, 497407, Note_off_c, 0, 74, 52
1, 497418, Note_on_c, 0, 65, 78
1, 497419, Note_on_c, 0, 46, 61
1, 497457, Note_off_c, 0, 46, 58
1, 497519, Control_c, 0, 64, 55
1, 497534, Note_off_c, 0, 70, 60
1, 497534, Control_c, 0, 64, 54
1, 497548, Control_c, 0, 64, 54
1, 497553, Note_on_c, 0, 34, 63
1, 497553, Note_on_c, 0, 62, 75
1, 497562, Note_off_c, 0, 65, 64
1, 497563, Control_c, 0, 64, 53
1, 497578, Control_c, 0, 64, 53
1, 497603, Note_off_c, 0, 34, 56
1, 497607, Control_c, 0, 64, 52
1, 497622, Control_c, 0, 64, 52
1, 497638, Control_c, 0, 64, 51
1, 497653, Control_c, 0, 64, 50
1, 497667, Control_c, 0, 64, 49
1, 497682, Control_c, 0, 64, 48
1, 497687, Note_on_c, 0, 46, 61
1, 497688, Note_on_c, 0, 63, 78
1, 497697, Control_c, 0, 64, 47
1, 497712, Control_c, 0, 64, 46
1, 497715, Note_off_c, 0, 46, 63
1, 497726, Note_off_c, 0, 62, 60
1, 497726, Control_c, 0, 64, 46
1, 497741, Control_c, 0, 64, 45
1, 497756, Control_c, 0, 64, 44
1, 497771, Control_c, 0, 64, 43
1, 497786, Control_c, 0, 64, 42
1, 497800, Control_c, 0, 64, 41
1, 497815, Control_c, 0, 64, 40
1, 497830, Control_c, 0, 64, 39
1, 497831, Note_on_c, 0, 65, 70
1, 497846, Note_on_c, 0, 34, 54
1, 497853, Control_c, 0, 64, 38
1, 497862, Note_off_c, 0, 63, 59
1, 497868, Control_c, 0, 64, 37
1, 497878, Note_off_c, 0, 34, 60
1, 497882, Control_c, 0, 64, 36
1, 497897, Control_c, 0, 64, 36
1, 497971, Note_off_c, 0, 65, 64
1, 497979, Note_on_c, 0, 46, 64
1, 498000, Control_c, 0, 64, 35
1, 498004, Note_off_c, 0, 46, 64
1, 498015, Control_c, 0, 64, 29
1, 498030, Control_c, 0, 64, 0
1, 498128, Note_on_c, 0, 34, 63
1, 498158, Note_off_c, 0, 34, 62
1, 498265, Note_on_c, 0, 46, 59
1, 498280, Note_on_c, 0, 53, 51
1, 498281, Note_on_c, 0, 62, 55
1, 498291, Note_off_c, 0, 46, 61
1, 498418, Note_on_c, 0, 34, 55
1, 498422, Note_on_c, 0, 58, 66
1, 498435, Note_on_c, 0, 50, 53
1, 498435, Note_off_c, 0, 53, 59
1, 498453, Note_off_c, 0, 34, 62
1, 498498, Note_off_c, 0, 62, 36
1, 498551, Note_off_c, 0, 50, 63
1, 498553, Note_on_c, 0, 46, 58
1, 498581, Note_off_c, 0, 46, 62
1, 498608, Note_off_c, 0, 58, 62
1, 498694, Note_on_c, 0, 34, 61
1, 498727, Note_off_c, 0, 34, 62
1, 498830, Note_on_c, 0, 46, 56
1, 498839, Note_on_c, 0, 53, 55
1, 498845, Note_on_c, 0, 62, 47
1, 498858, Note_off_c, 0, 46, 63
1, 498973, Note_off_c, 0, 62, 52
1, 498982, Note_off_c, 0, 53, 61
1, 498984, Note_on_c, 0, 34, 53
1, 498984, Note_on_c, 0, 58, 60
1, 498995, Note_on_c, 0, 50, 51
1, 499015, Note_off_c, 0, 34, 59
1, 499106, Note_off_c, 0, 50, 62
1, 499117, Note_on_c, 0, 46, 59
1, 499144, Note_off_c, 0, 46, 64
1, 499147, Note_off_c, 0, 58, 62
1, 499254, Note_on_c, 0, 34, 57
1, 499286, Note_off_c, 0, 34, 61
1, 499395, Note_on_c, 0, 46, 54
1, 499413, Note_on_c, 0, 53, 55
1, 499417, Note_on_c, 0, 62, 46
1, 499423, Note_off_c, 0, 46, 60
1, 499522, Note_off_c, 0, 62, 48
1, 499543, Control_c, 0, 67, 8
1, 499548, Note_off_c, 0, 53, 59
1, 499558, Control_c, 0, 67, 9
1, 499559, Note_on_c, 0, 34, 44
1, 499561, Note_on_c, 0, 58, 54
1, 499575, Note_on_c, 0, 50, 43
1, 499587, Control_c, 0, 67, 10
1, 499592, Note_off_c, 0, 34, 54
1, 499672, Note_off_c, 0, 50, 49
1, 499690, Note_off_c, 0, 58, 60
1, 499695, Note_on_c, 0, 46, 55
1, 499705, Control_c, 0, 67, 10
1, 499721, Control_c, 0, 67, 11
1, 499723, Note_off_c, 0, 46, 59
1, 499795, Control_c, 0, 67, 11
1, 499825, Control_c, 0, 67, 12
1, 499840, Control_c, 0, 67, 14
1, 499855, Control_c, 0, 67, 18
1, 499856, Note_on_c, 0, 34, 43
1, 499869, Control_c, 0, 67, 21
1, 499872, Note_on_c, 0, 58, 40
1, 499884, Control_c, 0, 67, 25
1, 499887, Note_on_c, 0, 50, 29
1, 499891, Note_off_c, 0, 34, 56
1, 499899, Control_c, 0, 67, 30
1, 499913, Control_c, 0, 67, 36
1, 499928, Control_c, 0, 67, 43
1, 499943, Control_c, 0, 67, 48
1, 499958, Control_c, 0, 67, 52
1, 499973, Control_c, 0, 67, 56
1, 499988, Control_c, 0, 67, 61
1, 500003, Control_c, 0, 67, 68
1, 500016, Note_on_c, 0, 46, 51
1, 500018, Control_c, 0, 67, 76
1, 500032, Note_off_c, 0, 58, 61
1, 500033, Control_c, 0, 67, 85
1, 500040, Note_off_c, 0, 50, 45
1, 500048, Note_off_c, 0, 46, 62
1, 500048, Control_c, 0, 67, 94
1, 500062, Control_c, 0, 67, 102
1, 500077, Control_c, 0, 67, 109
1, 500099, Control_c, 0, 67, 116
1, 500113, Control_c, 0, 67, 122
1, 500128, Control_c, 0, 67, 127
1, 500286, Note_on_c, 0, 50, 26
1, 500287, Note_on_c, 0, 58, 34
1, 500314, Note_on_c, 0, 46, 26
1, 500322, Note_on_c, 0, 34, 22
1, 500854, Note_off_c, 0, 34, 44
1, 500878, Note_off_c, 0, 46, 43
1, 500895, Note_off_c, 0, 50, 45
1, 500902, Note_off_c, 0, 58, 48
1, 502612, Control_c, 0, 67, 126
1, 502627, Control_c, 0, 67, 122
1, 502642, Control_c, 0, 67, 118
1, 502657, Control_c, 0, 67, 112
1, 502671, Control_c, 0, 67, 105
1, 502686, Control_c, 0, 67, 97
1, 502701, Control_c, 0, 67, 89
1, 502716, Control_c, 0, 67, 80
1, 502730, Control_c, 0, 67, 72
1, 502745, Control_c, 0, 67, 67
1, 502760, Control_c, 0, 67, 64
1, 502775, Control_c, 0, 67, 62
1, 502790, Control_c, 0, 67, 61
1, 502805, Control_c, 0, 67, 61
1, 502820, Control_c, 0, 67, 60
1, 503043, Control_c, 0, 64, 11
1, 503073, Control_c, 0, 64, 14
1, 503109, Control_c, 0, 67, 61
1, 503124, Control_c, 0, 64, 17
1, 503169, Control_c, 0, 64, 19
1, 503169, Control_c, 0, 67, 61
1, 503184, Control_c, 0, 64, 23
1, 503198, Control_c, 0, 64, 26
1, 503213, Control_c, 0, 64, 27
1, 503228, Control_c, 0, 67, 62
1, 503258, Control_c, 0, 64, 28
1, 503273, Control_c, 0, 67, 62
1, 503302, Control_c, 0, 64, 27
1, 503317, Control_c, 0, 67, 63
1, 503332, Control_c, 0, 67, 63
1, 503346, Control_c, 0, 67, 64
1, 503361, Control_c, 0, 67, 65
1, 503376, Control_c, 0, 64, 28
1, 503376, Control_c, 0, 67, 66
1, 503391, Control_c, 0, 67, 67
1, 503406, Control_c, 0, 67, 68
1, 503420, Control_c, 0, 64, 29
1, 503420, Control_c, 0, 67, 69
1, 503479, Control_c, 0, 64, 28
1, 503494, Control_c, 0, 64, 26
1, 503509, Control_c, 0, 64, 23
1, 503538, Control_c, 0, 64, 28
1, 503553, Control_c, 0, 64, 29
1, 503568, Control_c, 0, 64, 30
1, 503598, Control_c, 0, 64, 31
1, 503613, Control_c, 0, 64, 37
1, 503628, Control_c, 0, 64, 39
1, 503628, Control_c, 0, 67, 68
1, 503643, Control_c, 0, 64, 31
1, 503643, Control_c, 0, 67, 65
1, 503658, Control_c, 0, 64, 0
1, 503658, Control_c, 0, 67, 63
1, 503672, Control_c, 0, 67, 62
1, 503748, Control_c, 0, 67, 62
1, 503874, Control_c, 0, 67, 61
1, 503903, Control_c, 0, 67, 61
1, 503918, Control_c, 0, 67, 59
1, 503933, Control_c, 0, 67, 57
1, 503948, Control_c, 0, 67, 50
1, 503962, Control_c, 0, 67, 44
1, 503977, Control_c, 0, 67, 40
1, 503992, Control_c, 0, 67, 39
1, 504022, Control_c, 0, 64, 28
1, 504036, Control_c, 0, 64, 37
1, 504036, Control_c, 0, 67, 40
1, 504051, Control_c, 0, 64, 45
1, 504066, Control_c, 0, 64, 50
1, 504066, Control_c, 0, 67, 40
1, 504081, Control_c, 0, 64, 55
1, 504081, Control_c, 0, 67, 42
1, 504096, Control_c, 0, 64, 60
1, 504096, Control_c, 0, 67, 43
1, 504111, Control_c, 0, 64, 62
1, 504111, Control_c, 0, 67, 44
1, 504126, Control_c, 0, 64, 64
1, 504126, Control_c, 0, 67, 44
1, 504140, Control_c, 0, 64, 64
1, 504155, Control_c, 0, 64, 64
1, 504170, Control_c, 0, 64, 63
1, 504185, Control_c, 0, 64, 59
1, 504200, Control_c, 0, 64, 0
1, 504230, Control_c, 0, 67, 45
1, 504333, Control_c, 0, 67, 44
1, 504348, Control_c, 0, 67, 44
1, 504362, Control_c, 0, 67, 43
1, 504377, Control_c, 0, 67, 42
1, 504392, Control_c, 0, 67, 41
1, 504407, Control_c, 0, 67, 40
1, 504422, Control_c, 0, 67, 40
1, 504436, Control_c, 0, 67, 39
1, 504451, Control_c, 0, 67, 38
1, 504466, Control_c, 0, 64, 23
1, 504480, Control_c, 0, 64, 27
1, 504480, Control_c, 0, 67, 38
1, 504495, Control_c, 0, 64, 30
1, 504511, Control_c, 0, 64, 36
1, 504511, Control_c, 0, 67, 37
1, 504526, Control_c, 0, 64, 38
1, 504526, Control_c, 0, 67, 35
1, 504541, Control_c, 0, 67, 30
1, 504556, Control_c, 0, 67, 24
1, 504571, Control_c, 0, 64, 36
1, 504571, Control_c, 0, 67, 17
1, 504593, Control_c, 0, 64, 33
1, 504593, Control_c, 0, 67, 11
1, 504608, Control_c, 0, 64, 28
1, 504608, Control_c, 0, 67, 0
1, 504683, End_track
0, 0, End_of_file
