0, 0, Header, 0, 1, 384
1, 0, Start_track
1, 0, Title_t, "Sonata Hob. XVI/34--Clara Yang  "
1, 0, Text_t, "2009 Piano-e-Competition audition round"
1, 0, Text_t, "captured January 2009"
1, 0, Text_t, "http://www.piano-e-competition.com/"
1, 0, Text_t, "File processed for distribution by software from Zenph Studios, Inc., http://www.zenph.com"
1, 0, Instrument_name_t, "Yamaha Disklavier Pro Mark IV concert grand piano, model DCFIIISM4PRO"
1, 0, Sequencer_specific, 39, 67, 113, 0, 1, 0, 1, 0, 83, 111, 110, 97, 116, 97, 72, 111, 98, 46, 88, 86, 73, 47, 51, 52, 67, 108, 97, 114, 97, 32, 89, 97, 110, 103, 32, 32, 32, 32, 32, 32
1, 0, Sequencer_specific, 6, 67, 113, 0, 0, 0, 69
1, 0, System_exclusive, 21, 67, 113, 126, 21, 0, 2, 2, 0, 3, 14, 1, 4, 1, 13, 13, 10, 11, 9, 2, 7, 247
1, 0, Sequencer_specific, 5, 67, 123, 12, 2, 1
1, 0, Tempo, 512820
1, 0, Time_signature, 4, 2, 24, 8
1, 0, System_exclusive, 5, 126, 127, 9, 1, 247
1, 1, System_exclusive, 8, 67, 16, 76, 0, 0, 126, 0, 247
1, 2, System_exclusive, 8, 67, 16, 76, 8, 9, 7, 1, 247
1, 3, Control_c, 0, 0, 0
1, 3, Control_c, 1, 0, 0
1, 3, Control_c, 2, 0, 0
1, 3, Control_c, 3, 0, 0
1, 3, Control_c, 4, 0, 0
1, 3, Control_c, 5, 0, 0
1, 3, Control_c, 6, 0, 0
1, 3, Control_c, 7, 0, 0
1, 3, Control_c, 8, 0, 0
1, 3, Control_c, 9, 0, 127
1, 3, Control_c, 10, 0, 0
1, 3, Control_c, 11, 0, 0
1, 3, Control_c, 12, 0, 0
1, 3, Control_c, 13, 0, 0
1, 3, Control_c, 14, 0, 0
1, 3, Control_c, 15, 0, 0
1, 4, Control_c, 0, 32, 0
1, 4, Control_c, 1, 32, 0
1, 4, Control_c, 2, 32, 0
1, 4, Control_c, 3, 32, 0
1, 4, Control_c, 4, 32, 0
1, 4, Control_c, 5, 32, 0
1, 4, Control_c, 6, 32, 0
1, 4, Control_c, 7, 32, 0
1, 4, Control_c, 8, 32, 0
1, 4, Control_c, 9, 32, 0
1, 4, Control_c, 10, 32, 0
1, 4, Control_c, 11, 32, 0
1, 4, Control_c, 12, 32, 0
1, 4, Control_c, 13, 32, 0
1, 4, Control_c, 14, 32, 0
1, 4, Control_c, 15, 32, 0
1, 5, Program_c, 0, 0
1, 5, Program_c, 1, 0
1, 5, Program_c, 2, 0
1, 5, Program_c, 3, 0
1, 5, Program_c, 4, 0
1, 5, Program_c, 5, 0
1, 5, Program_c, 6, 0
1, 5, Program_c, 7, 0
1, 5, Program_c, 8, 0
1, 5, Program_c, 9, 0
1, 5, Program_c, 10, 0
1, 5, Program_c, 11, 0
1, 5, Program_c, 12, 0
1, 5, Program_c, 13, 0
1, 5, Program_c, 14, 0
1, 5, Program_c, 15, 0
1, 6, Control_c, 0, 7, 100
1, 6, Control_c, 1, 7, 100
1, 6, Control_c, 2, 7, 100
1, 6, Control_c, 3, 7, 100
1, 6, Control_c, 4, 7, 100
1, 6, Control_c, 5, 7, 100
1, 6, Control_c, 6, 7, 100
1, 6, Control_c, 7, 7, 100
1, 6, Control_c, 8, 7, 100
1, 6, Control_c, 9, 7, 100
1, 6, Control_c, 10, 7, 100
1, 6, Control_c, 11, 7, 100
1, 6, Control_c, 12, 7, 100
1, 6, Control_c, 13, 7, 100
1, 6, Control_c, 14, 7, 100
1, 6, Control_c, 15, 7, 100
1, 117, Control_c, 0, 67, 15
1, 229, Control_c, 0, 67, 31
1, 341, Control_c, 0, 67, 46
1, 452, Control_c, 0, 67, 63
1, 564, Control_c, 0, 67, 77
1, 676, Control_c, 0, 67, 94
1, 787, Control_c, 0, 67, 108
1, 899, Control_c, 0, 67, 127
1, 1126, Note_on_c, 0, 40, 51
1, 1153, Note_off_c, 0, 40, 54
1, 1262, Note_on_c, 0, 43, 67
1, 1295, Note_off_c, 0, 43, 62
1, 1411, Note_on_c, 0, 47, 60
1, 1440, Note_off_c, 0, 47, 64
1, 1556, Note_on_c, 0, 52, 50
1, 1584, Note_off_c, 0, 52, 56
1, 1688, Note_on_c, 0, 67, 56
1, 1693, Note_on_c, 0, 59, 45
1, 1808, Note_off_c, 0, 67, 55
1, 1837, Note_on_c, 0, 63, 66
1, 1841, Note_on_c, 0, 57, 59
1, 1841, Note_off_c, 0, 59, 60
1, 1875, Note_off_c, 0, 57, 65
1, 1979, Note_on_c, 0, 64, 62
1, 1980, Note_off_c, 0, 63, 59
1, 1980, Note_on_c, 0, 40, 43
1, 1995, Note_on_c, 0, 55, 46
1, 2010, Note_off_c, 0, 40, 50
1, 2071, Note_off_c, 0, 55, 59
1, 2119, Note_on_c, 0, 43, 67
1, 2123, Note_off_c, 0, 64, 64
1, 2152, Note_off_c, 0, 43, 63
1, 2164, Control_c, 0, 67, 127
1, 2179, Control_c, 0, 67, 124
1, 2194, Control_c, 0, 67, 121
1, 2209, Control_c, 0, 67, 118
1, 2223, Control_c, 0, 67, 115
1, 2238, Control_c, 0, 67, 111
1, 2252, Note_on_c, 0, 47, 68
1, 2253, Control_c, 0, 67, 108
1, 2268, Control_c, 0, 67, 104
1, 2283, Note_off_c, 0, 47, 66
1, 2283, Control_c, 0, 67, 101
1, 2297, Control_c, 0, 67, 98
1, 2312, Control_c, 0, 67, 95
1, 2327, Control_c, 0, 67, 92
1, 2341, Control_c, 0, 67, 89
1, 2356, Control_c, 0, 67, 87
1, 2371, Control_c, 0, 67, 84
1, 2386, Control_c, 0, 67, 83
1, 2392, Note_on_c, 0, 52, 62
1, 2401, Control_c, 0, 67, 81
1, 2416, Note_off_c, 0, 52, 62
1, 2416, Control_c, 0, 67, 79
1, 2431, Control_c, 0, 67, 77
1, 2446, Control_c, 0, 67, 75
1, 2460, Control_c, 0, 67, 73
1, 2483, Control_c, 0, 67, 72
1, 2498, Control_c, 0, 67, 71
1, 2512, Control_c, 0, 67, 71
1, 2543, Note_on_c, 0, 71, 58
1, 2548, Note_on_c, 0, 67, 55
1, 2556, Control_c, 0, 67, 70
1, 2656, Note_off_c, 0, 67, 62
1, 2676, Control_c, 0, 67, 70
1, 2681, Note_on_c, 0, 66, 63
1, 2681, Note_on_c, 0, 69, 63
1, 2705, Note_off_c, 0, 71, 55
1, 2706, Control_c, 0, 67, 68
1, 2721, Control_c, 0, 67, 66
1, 2735, Control_c, 0, 67, 62
1, 2750, Control_c, 0, 67, 56
1, 2765, Control_c, 0, 67, 49
1, 2779, Control_c, 0, 67, 44
1, 2794, Control_c, 0, 67, 39
1, 2809, Control_c, 0, 64, 9
1, 2809, Control_c, 0, 67, 34
1, 2821, Note_on_c, 0, 40, 51
1, 2824, Note_on_c, 0, 67, 64
1, 2824, Control_c, 0, 64, 14
1, 2824, Control_c, 0, 67, 30
1, 2827, Note_on_c, 0, 64, 57
1, 2839, Note_off_c, 0, 66, 53
1, 2839, Control_c, 0, 64, 18
1, 2839, Control_c, 0, 67, 25
1, 2847, Note_off_c, 0, 69, 54
1, 2850, Note_off_c, 0, 40, 55
1, 2854, Control_c, 0, 64, 21
1, 2854, Control_c, 0, 67, 20
1, 2869, Control_c, 0, 64, 23
1, 2869, Control_c, 0, 67, 15
1, 2884, Control_c, 0, 64, 25
1, 2884, Control_c, 0, 67, 10
1, 2890, Note_off_c, 0, 64, 64
1, 2899, Control_c, 0, 64, 27
1, 2899, Control_c, 0, 67, 0
1, 2914, Control_c, 0, 64, 29
1, 2928, Control_c, 0, 64, 31
1, 2943, Control_c, 0, 64, 34
1, 2953, Note_on_c, 0, 43, 72
1, 2958, Control_c, 0, 64, 35
1, 2964, Note_off_c, 0, 67, 61
1, 2972, Control_c, 0, 64, 37
1, 2987, Note_off_c, 0, 43, 64
1, 2987, Control_c, 0, 64, 38
1, 3002, Control_c, 0, 64, 39
1, 3017, Control_c, 0, 64, 40
1, 3032, Control_c, 0, 64, 41
1, 3046, Control_c, 0, 64, 42
1, 3061, Control_c, 0, 64, 43
1, 3076, Control_c, 0, 64, 45
1, 3088, Note_on_c, 0, 47, 68
1, 3091, Control_c, 0, 64, 45
1, 3105, Control_c, 0, 64, 46
1, 3118, Note_off_c, 0, 47, 66
1, 3150, Control_c, 0, 64, 45
1, 3165, Control_c, 0, 64, 39
1, 3179, Control_c, 0, 64, 16
1, 3194, Control_c, 0, 64, 0
1, 3232, Note_on_c, 0, 52, 60
1, 3255, Note_off_c, 0, 52, 60
1, 3350, Control_c, 0, 64, 32
1, 3365, Control_c, 0, 64, 49
1, 3379, Note_on_c, 0, 79, 68
1, 3379, Control_c, 0, 64, 58
1, 3381, Note_on_c, 0, 71, 54
1, 3394, Control_c, 0, 64, 65
1, 3410, Control_c, 0, 64, 71
1, 3423, Note_off_c, 0, 71, 65
1, 3425, Control_c, 0, 64, 79
1, 3440, Control_c, 0, 64, 86
1, 3455, Control_c, 0, 64, 91
1, 3470, Control_c, 0, 64, 93
1, 3484, Control_c, 0, 64, 96
1, 3499, Control_c, 0, 64, 98
1, 3514, Control_c, 0, 64, 99
1, 3518, Note_on_c, 0, 78, 84
1, 3531, Note_on_c, 0, 69, 58
1, 3554, Note_off_c, 0, 69, 64
1, 3662, Note_on_c, 0, 48, 61
1, 3667, Note_on_c, 0, 76, 76
1, 3668, Note_off_c, 0, 79, 56
1, 3677, Control_c, 0, 64, 98
1, 3679, Note_on_c, 0, 67, 63
1, 3692, Control_c, 0, 64, 96
1, 3706, Control_c, 0, 64, 93
1, 3721, Control_c, 0, 64, 89
1, 3736, Control_c, 0, 64, 82
1, 3751, Control_c, 0, 64, 75
1, 3766, Control_c, 0, 64, 69
1, 3781, Control_c, 0, 64, 64
1, 3795, Control_c, 0, 64, 61
1, 3807, Note_on_c, 0, 52, 69
1, 3810, Control_c, 0, 64, 59
1, 3825, Control_c, 0, 64, 57
1, 3840, Control_c, 0, 64, 57
1, 3850, Note_off_c, 0, 78, 40
1, 3855, Control_c, 0, 64, 56
1, 3914, Control_c, 0, 64, 57
1, 3920, Note_off_c, 0, 48, 47
1, 3928, Control_c, 0, 64, 57
1, 3935, Note_on_c, 0, 55, 70
1, 3999, Note_off_c, 0, 76, 64
1, 4010, Control_c, 0, 64, 58
1, 4025, Control_c, 0, 64, 58
1, 4083, Control_c, 0, 64, 58
1, 4087, Note_on_c, 0, 60, 70
1, 4098, Control_c, 0, 64, 57
1, 4113, Control_c, 0, 64, 54
1, 4127, Control_c, 0, 64, 47
1, 4142, Control_c, 0, 64, 13
1, 4143, Note_off_c, 0, 55, 56
1, 4157, Control_c, 0, 64, 0
1, 4175, Note_off_c, 0, 52, 57
1, 4233, Note_on_c, 0, 72, 66
1, 4247, Note_off_c, 0, 67, 58
1, 4250, Note_on_c, 0, 69, 59
1, 4288, Note_off_c, 0, 69, 65
1, 4292, Control_c, 0, 64, 33
1, 4306, Control_c, 0, 64, 50
1, 4321, Control_c, 0, 64, 61
1, 4336, Control_c, 0, 64, 66
1, 4350, Control_c, 0, 64, 72
1, 4365, Control_c, 0, 64, 79
1, 4367, Note_on_c, 0, 66, 68
1, 4374, Note_on_c, 0, 69, 72
1, 4380, Control_c, 0, 64, 84
1, 4395, Control_c, 0, 64, 88
1, 4398, Note_off_c, 0, 66, 65
1, 4410, Control_c, 0, 64, 89
1, 4424, Note_off_c, 0, 72, 53
1, 4425, Control_c, 0, 64, 90
1, 4440, Control_c, 0, 64, 91
1, 4484, Control_c, 0, 64, 90
1, 4499, Control_c, 0, 64, 89
1, 4514, Control_c, 0, 64, 87
1, 4523, Note_on_c, 0, 66, 69
1, 4525, Note_on_c, 0, 63, 63
1, 4529, Control_c, 0, 64, 84
1, 4543, Control_c, 0, 64, 80
1, 4558, Control_c, 0, 64, 77
1, 4567, Note_off_c, 0, 69, 63
1, 4573, Control_c, 0, 64, 73
1, 4588, Control_c, 0, 64, 70
1, 4603, Control_c, 0, 64, 68
1, 4617, Control_c, 0, 64, 66
1, 4632, Control_c, 0, 64, 65
1, 4661, Note_on_c, 0, 51, 56
1, 4662, Control_c, 0, 64, 64
1, 4744, Control_c, 0, 64, 64
1, 4802, Note_off_c, 0, 60, 59
1, 4813, Note_on_c, 0, 54, 58
1, 4856, Note_off_c, 0, 51, 56
1, 4862, Control_c, 0, 64, 63
1, 4877, Control_c, 0, 64, 63
1, 4892, Control_c, 0, 64, 62
1, 4906, Control_c, 0, 64, 59
1, 4921, Control_c, 0, 64, 51
1, 4936, Control_c, 0, 64, 30
1, 4950, Control_c, 0, 64, 0
1, 4976, Note_off_c, 0, 54, 57
1, 4978, Note_on_c, 0, 59, 52
1, 5027, Note_off_c, 0, 63, 60
1, 5100, Control_c, 0, 64, 35
1, 5114, Control_c, 0, 64, 58
1, 5129, Control_c, 0, 64, 65
1, 5140, Note_on_c, 0, 71, 67
1, 5144, Control_c, 0, 64, 71
1, 5159, Control_c, 0, 64, 80
1, 5173, Control_c, 0, 64, 89
1, 5188, Control_c, 0, 64, 98
1, 5203, Control_c, 0, 64, 106
1, 5218, Note_off_c, 0, 59, 52
1, 5218, Control_c, 0, 64, 113
1, 5233, Control_c, 0, 64, 127
1, 5267, Note_on_c, 0, 69, 76
1, 5310, Note_off_c, 0, 71, 62
1, 5319, Note_off_c, 0, 66, 59
1, 5325, Note_off_c, 0, 69, 64
1, 5427, Note_on_c, 0, 69, 71
1, 5435, Note_on_c, 0, 66, 66
1, 5543, Note_on_c, 0, 52, 63
1, 5567, Control_c, 0, 64, 117
1, 5581, Control_c, 0, 64, 110
1, 5596, Control_c, 0, 64, 104
1, 5611, Control_c, 0, 64, 99
1, 5626, Control_c, 0, 64, 94
1, 5641, Control_c, 0, 64, 89
1, 5655, Control_c, 0, 64, 84
1, 5670, Control_c, 0, 64, 79
1, 5685, Control_c, 0, 64, 75
1, 5688, Note_on_c, 0, 64, 66
1, 5688, Note_on_c, 0, 67, 72
1, 5699, Control_c, 0, 64, 72
1, 5701, Note_on_c, 0, 58, 68
1, 5706, Note_off_c, 0, 66, 61
1, 5714, Control_c, 0, 64, 68
1, 5729, Note_off_c, 0, 69, 63
1, 5729, Control_c, 0, 64, 65
1, 5730, Note_off_c, 0, 64, 60
1, 5744, Control_c, 0, 64, 62
1, 5757, Note_off_c, 0, 67, 60
1, 5759, Control_c, 0, 64, 59
1, 5773, Control_c, 0, 64, 57
1, 5788, Control_c, 0, 64, 56
1, 5804, Control_c, 0, 64, 54
1, 5812, Note_off_c, 0, 52, 57
1, 5819, Control_c, 0, 64, 54
1, 5834, Control_c, 0, 64, 53
1, 5844, Note_on_c, 0, 59, 60
1, 5847, Note_on_c, 0, 66, 71
1, 5849, Control_c, 0, 64, 53
1, 5851, Note_off_c, 0, 58, 62
1, 5878, Control_c, 0, 64, 53
1, 5923, Control_c, 0, 64, 54
1, 5952, Control_c, 0, 64, 54
1, 5971, Note_on_c, 0, 70, 80
1, 5996, Control_c, 0, 64, 55
1, 6062, Note_off_c, 0, 59, 59
1, 6109, Note_on_c, 0, 71, 76
1, 6136, Note_off_c, 0, 70, 62
1, 6150, Note_off_c, 0, 66, 63
1, 6160, Control_c, 0, 64, 54
1, 6182, Note_off_c, 0, 71, 64
1, 6189, Control_c, 0, 64, 54
1, 6204, Control_c, 0, 64, 53
1, 6241, Control_c, 0, 64, 53
1, 6264, Note_on_c, 0, 66, 58
1, 6264, Note_on_c, 0, 69, 62
1, 6270, Control_c, 0, 64, 52
1, 6315, Control_c, 0, 64, 52
1, 6345, Control_c, 0, 64, 51
1, 6359, Control_c, 0, 64, 51
1, 6359, Control_c, 0, 67, 10
1, 6374, Control_c, 0, 64, 50
1, 6374, Control_c, 0, 67, 13
1, 6389, Control_c, 0, 64, 49
1, 6389, Control_c, 0, 67, 18
1, 6401, Note_on_c, 0, 52, 51
1, 6404, Control_c, 0, 64, 49
1, 6404, Control_c, 0, 67, 25
1, 6419, Control_c, 0, 64, 48
1, 6419, Control_c, 0, 67, 33
1, 6434, Control_c, 0, 64, 48
1, 6434, Control_c, 0, 67, 41
1, 6449, Control_c, 0, 64, 47
1, 6449, Control_c, 0, 67, 50
1, 6464, Control_c, 0, 64, 46
1, 6464, Control_c, 0, 67, 56
1, 6478, Control_c, 0, 67, 60
1, 6493, Control_c, 0, 64, 46
1, 6493, Control_c, 0, 67, 64
1, 6508, Control_c, 0, 67, 66
1, 6522, Control_c, 0, 67, 67
1, 6546, Note_on_c, 0, 64, 51
1, 6547, Note_on_c, 0, 67, 57
1, 6552, Note_on_c, 0, 58, 54
1, 6559, Note_off_c, 0, 66, 57
1, 6582, Note_off_c, 0, 69, 50
1, 6583, Note_off_c, 0, 64, 64
1, 6595, Note_off_c, 0, 67, 59
1, 6601, Note_off_c, 0, 52, 46
1, 6613, Control_c, 0, 67, 66
1, 6627, Control_c, 0, 67, 66
1, 6642, Control_c, 0, 67, 65
1, 6669, Note_off_c, 0, 58, 58
1, 6672, Control_c, 0, 64, 46
1, 6687, Control_c, 0, 64, 47
1, 6696, Note_on_c, 0, 66, 49
1, 6697, Note_on_c, 0, 59, 44
1, 6731, Control_c, 0, 64, 47
1, 6760, Control_c, 0, 64, 48
1, 6775, Control_c, 0, 64, 48
1, 6790, Control_c, 0, 64, 49
1, 6805, Control_c, 0, 64, 49
1, 6819, Control_c, 0, 64, 51
1, 6833, Note_on_c, 0, 70, 60
1, 6834, Control_c, 0, 64, 53
1, 6834, Control_c, 0, 67, 66
1, 6849, Control_c, 0, 64, 55
1, 6864, Control_c, 0, 64, 57
1, 6879, Control_c, 0, 64, 59
1, 6891, Note_off_c, 0, 59, 57
1, 6893, Control_c, 0, 64, 61
1, 6908, Control_c, 0, 64, 62
1, 6923, Control_c, 0, 64, 63
1, 6938, Control_c, 0, 64, 64
1, 6949, Note_off_c, 0, 70, 60
1, 6953, Control_c, 0, 64, 64
1, 6975, Note_on_c, 0, 71, 60
1, 6990, Control_c, 0, 64, 65
1, 6990, Control_c, 0, 67, 66
1, 6994, Note_off_c, 0, 66, 61
1, 7005, Control_c, 0, 64, 65
1, 7005, Control_c, 0, 67, 67
1, 7019, Control_c, 0, 67, 67
1, 7020, Note_off_c, 0, 71, 61
1, 7034, Control_c, 0, 64, 65
1, 7034, Control_c, 0, 67, 69
1, 7049, Control_c, 0, 64, 64
1, 7049, Control_c, 0, 67, 75
1, 7064, Control_c, 0, 64, 63
1, 7064, Control_c, 0, 67, 85
1, 7079, Control_c, 0, 64, 58
1, 7079, Control_c, 0, 67, 97
1, 7093, Control_c, 0, 64, 46
1, 7093, Control_c, 0, 67, 108
1, 7108, Control_c, 0, 64, 0
1, 7108, Control_c, 0, 67, 120
1, 7121, Note_on_c, 0, 69, 55
1, 7123, Control_c, 0, 67, 127
1, 7137, Note_on_c, 0, 66, 48
1, 7227, Control_c, 0, 64, 41
1, 7242, Control_c, 0, 64, 59
1, 7254, Note_on_c, 0, 52, 49
1, 7257, Control_c, 0, 64, 64
1, 7271, Control_c, 0, 64, 69
1, 7282, Note_off_c, 0, 66, 63
1, 7282, Note_off_c, 0, 69, 64
1, 7286, Control_c, 0, 64, 76
1, 7301, Control_c, 0, 64, 82
1, 7316, Control_c, 0, 64, 85
1, 7331, Control_c, 0, 64, 86
1, 7345, Control_c, 0, 64, 87
1, 7360, Control_c, 0, 64, 87
1, 7397, Note_on_c, 0, 67, 60
1, 7421, Note_on_c, 0, 58, 49
1, 7430, Note_off_c, 0, 67, 63
1, 7436, Control_c, 0, 64, 86
1, 7450, Control_c, 0, 64, 84
1, 7453, Note_on_c, 0, 69, 55
1, 7465, Control_c, 0, 64, 81
1, 7480, Control_c, 0, 64, 74
1, 7484, Note_off_c, 0, 52, 33
1, 7484, Note_off_c, 0, 69, 56
1, 7495, Control_c, 0, 64, 66
1, 7510, Control_c, 0, 64, 58
1, 7511, Note_on_c, 0, 67, 49
1, 7524, Control_c, 0, 64, 47
1, 7539, Control_c, 0, 64, 41
1, 7554, Control_c, 0, 64, 39
1, 7562, Note_off_c, 0, 67, 48
1, 7568, Control_c, 0, 64, 35
1, 7581, Note_off_c, 0, 58, 49
1, 7583, Control_c, 0, 64, 29
1, 7598, Control_c, 0, 64, 24
1, 7613, Note_on_c, 0, 66, 39
1, 7613, Control_c, 0, 64, 23
1, 7628, Control_c, 0, 64, 23
1, 7638, Note_on_c, 0, 59, 32
1, 7641, Note_on_c, 0, 63, 35
1, 7768, Control_c, 0, 64, 23
1, 7783, Control_c, 0, 64, 24
1, 7798, Control_c, 0, 64, 25
1, 7813, Control_c, 0, 64, 26
1, 7828, Control_c, 0, 64, 27
1, 7842, Control_c, 0, 64, 28
1, 7857, Control_c, 0, 64, 28
1, 7872, Control_c, 0, 64, 29
1, 7884, Note_off_c, 0, 59, 46
1, 7901, Control_c, 0, 64, 30
1, 7916, Control_c, 0, 64, 30
1, 7931, Control_c, 0, 64, 31
1, 7943, Note_off_c, 0, 63, 45
1, 7943, Note_off_c, 0, 66, 35
1, 7960, Control_c, 0, 64, 31
1, 8318, Control_c, 0, 64, 31
1, 8333, Control_c, 0, 64, 30
1, 8347, Control_c, 0, 64, 30
1, 8362, Control_c, 0, 64, 29
1, 8377, Control_c, 0, 64, 29
1, 8391, Control_c, 0, 64, 28
1, 8406, Control_c, 0, 64, 28
1, 8436, Control_c, 0, 64, 27
1, 8473, Control_c, 0, 64, 27
1, 8503, Control_c, 0, 64, 26
1, 8532, Control_c, 0, 64, 26
1, 8556, Note_on_c, 0, 40, 45
1, 8586, Note_off_c, 0, 40, 50
1, 8606, Control_c, 0, 64, 25
1, 8682, Note_on_c, 0, 43, 65
1, 8708, Note_off_c, 0, 43, 59
1, 8822, Note_on_c, 0, 47, 59
1, 8849, Note_off_c, 0, 47, 64
1, 8872, Control_c, 0, 64, 25
1, 8960, Note_on_c, 0, 52, 59
1, 8985, Note_off_c, 0, 52, 60
1, 9099, Note_on_c, 0, 67, 60
1, 9104, Note_on_c, 0, 59, 51
1, 9208, Note_off_c, 0, 67, 60
1, 9244, Note_off_c, 0, 59, 61
1, 9249, Note_on_c, 0, 63, 62
1, 9261, Note_on_c, 0, 57, 49
1, 9285, Note_off_c, 0, 57, 58
1, 9355, Control_c, 0, 67, 127
1, 9370, Control_c, 0, 67, 126
1, 9376, Note_off_c, 0, 63, 56
1, 9380, Note_on_c, 0, 40, 47
1, 9385, Control_c, 0, 67, 126
1, 9392, Note_on_c, 0, 64, 55
1, 9410, Note_off_c, 0, 40, 53
1, 9415, Note_on_c, 0, 55, 24
1, 9429, Control_c, 0, 64, 25
1, 9454, Note_off_c, 0, 55, 48
1, 9474, Control_c, 0, 64, 26
1, 9488, Control_c, 0, 64, 26
1, 9500, Note_off_c, 0, 64, 63
1, 9517, Note_on_c, 0, 43, 66
1, 9549, Note_off_c, 0, 43, 63
1, 9607, Control_c, 0, 67, 125
1, 9636, Control_c, 0, 67, 125
1, 9659, Note_on_c, 0, 47, 60
1, 9665, Control_c, 0, 67, 124
1, 9680, Control_c, 0, 67, 123
1, 9683, Note_off_c, 0, 47, 63
1, 9695, Control_c, 0, 64, 26
1, 9695, Control_c, 0, 67, 121
1, 9710, Control_c, 0, 64, 25
1, 9710, Control_c, 0, 67, 120
1, 9725, Control_c, 0, 64, 25
1, 9725, Control_c, 0, 67, 119
1, 9740, Control_c, 0, 67, 118
1, 9755, Control_c, 0, 64, 24
1, 9755, Control_c, 0, 67, 117
1, 9785, Control_c, 0, 67, 117
1, 9799, Note_on_c, 0, 52, 59
1, 9823, Note_off_c, 0, 52, 61
1, 9844, Control_c, 0, 67, 116
1, 9859, Control_c, 0, 64, 24
1, 9859, Control_c, 0, 67, 116
1, 9874, Control_c, 0, 67, 115
1, 9889, Control_c, 0, 64, 23
1, 9889, Control_c, 0, 67, 114
1, 9904, Control_c, 0, 64, 23
1, 9904, Control_c, 0, 67, 112
1, 9919, Control_c, 0, 64, 22
1, 9919, Control_c, 0, 67, 111
1, 9934, Control_c, 0, 64, 21
1, 9934, Control_c, 0, 67, 109
1, 9948, Note_on_c, 0, 71, 56
1, 9948, Control_c, 0, 64, 20
1, 9948, Control_c, 0, 67, 107
1, 9966, Note_on_c, 0, 67, 48
1, 9970, Control_c, 0, 64, 19
1, 9970, Control_c, 0, 67, 106
1, 9985, Control_c, 0, 64, 18
1, 9985, Control_c, 0, 67, 104
1, 10000, Control_c, 0, 64, 16
1, 10000, Control_c, 0, 67, 102
1, 10015, Control_c, 0, 64, 14
1, 10015, Control_c, 0, 67, 100
1, 10030, Control_c, 0, 64, 12
1, 10030, Control_c, 0, 67, 99
1, 10044, Control_c, 0, 64, 9
1, 10044, Control_c, 0, 67, 97
1, 10059, Control_c, 0, 64, 0
1, 10059, Control_c, 0, 67, 96
1, 10064, Note_off_c, 0, 67, 63
1, 10074, Control_c, 0, 67, 95
1, 10089, Control_c, 0, 67, 94
1, 10096, Note_on_c, 0, 66, 55
1, 10099, Note_on_c, 0, 69, 61
1, 10104, Control_c, 0, 67, 93
1, 10118, Control_c, 0, 67, 92
1, 10123, Note_off_c, 0, 71, 47
1, 10133, Control_c, 0, 67, 92
1, 10193, Control_c, 0, 67, 91
1, 10221, Note_off_c, 0, 66, 59
1, 10240, Note_on_c, 0, 40, 42
1, 10241, Note_on_c, 0, 64, 49
1, 10243, Note_on_c, 0, 67, 58
1, 10255, Note_off_c, 0, 69, 50
1, 10267, Control_c, 0, 67, 92
1, 10274, Note_off_c, 0, 40, 49
1, 10285, Note_off_c, 0, 64, 60
1, 10326, Control_c, 0, 67, 92
1, 10344, Note_off_c, 0, 67, 62
1, 10356, Control_c, 0, 64, 9
1, 10370, Control_c, 0, 64, 10
1, 10370, Control_c, 0, 67, 93
1, 10378, Note_on_c, 0, 43, 61
1, 10385, Control_c, 0, 64, 12
1, 10400, Control_c, 0, 64, 13
1, 10412, Note_off_c, 0, 43, 61
1, 10430, Control_c, 0, 64, 14
1, 10488, Control_c, 0, 67, 92
1, 10517, Note_on_c, 0, 47, 60
1, 10533, Control_c, 0, 67, 92
1, 10552, Note_off_c, 0, 47, 64
1, 10608, Control_c, 0, 67, 91
1, 10655, Note_on_c, 0, 52, 64
1, 10667, Control_c, 0, 64, 13
1, 10687, Note_off_c, 0, 52, 64
1, 10697, Control_c, 0, 64, 12
1, 10719, Control_c, 0, 64, 0
1, 10764, Control_c, 0, 67, 91
1, 10808, Note_on_c, 0, 76, 66
1, 10808, Control_c, 0, 67, 90
1, 10824, Control_c, 0, 67, 90
1, 10830, Note_on_c, 0, 68, 49
1, 10839, Control_c, 0, 67, 86
1, 10854, Control_c, 0, 67, 83
1, 10868, Control_c, 0, 67, 80
1, 10883, Control_c, 0, 67, 77
1, 10898, Control_c, 0, 67, 75
1, 10912, Control_c, 0, 67, 74
1, 10927, Control_c, 0, 67, 73
1, 10941, Note_on_c, 0, 74, 70
1, 10942, Control_c, 0, 67, 72
1, 10946, Note_on_c, 0, 71, 69
1, 10957, Control_c, 0, 67, 72
1, 10962, Note_off_c, 0, 68, 64
1, 10972, Control_c, 0, 67, 71
1, 10986, Control_c, 0, 67, 71
1, 11016, Control_c, 0, 67, 70
1, 11060, Control_c, 0, 67, 70
1, 11064, Note_off_c, 0, 76, 31
1, 11077, Note_off_c, 0, 71, 61
1, 11087, Note_on_c, 0, 40, 46
1, 11090, Note_on_c, 0, 72, 65
1, 11091, Note_on_c, 0, 69, 58
1, 11116, Note_off_c, 0, 40, 54
1, 11135, Control_c, 0, 67, 69
1, 11154, Note_off_c, 0, 74, 56
1, 11165, Control_c, 0, 67, 69
1, 11178, Note_off_c, 0, 69, 60
1, 11223, Note_on_c, 0, 45, 60
1, 11244, Note_off_c, 0, 72, 61
1, 11256, Note_off_c, 0, 45, 65
1, 11312, Control_c, 0, 67, 69
1, 11327, Control_c, 0, 67, 70
1, 11342, Control_c, 0, 67, 70
1, 11357, Control_c, 0, 64, 14
1, 11357, Control_c, 0, 67, 71
1, 11369, Note_on_c, 0, 48, 57
1, 11372, Control_c, 0, 64, 17
1, 11372, Control_c, 0, 67, 72
1, 11388, Control_c, 0, 67, 74
1, 11395, Note_off_c, 0, 48, 61
1, 11403, Control_c, 0, 64, 13
1, 11403, Control_c, 0, 67, 76
1, 11417, Control_c, 0, 64, 0
1, 11417, Control_c, 0, 67, 78
1, 11432, Control_c, 0, 67, 81
1, 11447, Control_c, 0, 67, 87
1, 11469, Control_c, 0, 67, 94
1, 11484, Control_c, 0, 67, 104
1, 11499, Control_c, 0, 67, 114
1, 11513, Note_on_c, 0, 52, 69
1, 11513, Control_c, 0, 67, 124
1, 11528, Control_c, 0, 67, 127
1, 11544, Note_off_c, 0, 52, 65
1, 11659, Note_on_c, 0, 72, 61
1, 11661, Control_c, 0, 67, 125
1, 11666, Note_on_c, 0, 69, 45
1, 11676, Control_c, 0, 67, 124
1, 11690, Control_c, 0, 64, 37
1, 11690, Control_c, 0, 67, 122
1, 11705, Control_c, 0, 64, 54
1, 11705, Control_c, 0, 67, 120
1, 11720, Control_c, 0, 64, 63
1, 11720, Control_c, 0, 67, 118
1, 11734, Control_c, 0, 64, 69
1, 11734, Control_c, 0, 67, 115
1, 11749, Control_c, 0, 64, 76
1, 11749, Control_c, 0, 67, 113
1, 11764, Control_c, 0, 64, 85
1, 11764, Control_c, 0, 67, 111
1, 11779, Control_c, 0, 64, 90
1, 11779, Control_c, 0, 67, 109
1, 11794, Control_c, 0, 64, 93
1, 11794, Control_c, 0, 67, 107
1, 11798, Note_on_c, 0, 76, 74
1, 11801, Note_off_c, 0, 72, 59
1, 11809, Note_on_c, 0, 67, 52
1, 11809, Control_c, 0, 64, 96
1, 11809, Control_c, 0, 67, 105
1, 11823, Control_c, 0, 64, 100
1, 11823, Control_c, 0, 67, 104
1, 11832, Note_off_c, 0, 67, 59
1, 11835, Note_off_c, 0, 69, 56
1, 11838, Control_c, 0, 64, 105
1, 11838, Control_c, 0, 67, 103
1, 11853, Control_c, 0, 64, 111
1, 11853, Control_c, 0, 67, 102
1, 11868, Control_c, 0, 64, 114
1, 11868, Control_c, 0, 67, 101
1, 11883, Control_c, 0, 64, 115
1, 11913, Control_c, 0, 64, 114
1, 11928, Control_c, 0, 64, 112
1, 11928, Control_c, 0, 67, 102
1, 11930, Note_off_c, 0, 76, 60
1, 11940, Note_on_c, 0, 74, 61
1, 11942, Control_c, 0, 64, 103
1, 11942, Control_c, 0, 67, 102
1, 11949, Note_on_c, 0, 38, 52
1, 11950, Note_on_c, 0, 66, 56
1, 11957, Control_c, 0, 64, 88
1, 11957, Control_c, 0, 67, 103
1, 11972, Control_c, 0, 64, 73
1, 11972, Control_c, 0, 67, 103
1, 11979, Note_off_c, 0, 38, 53
1, 11987, Control_c, 0, 64, 55
1, 11987, Control_c, 0, 67, 104
1, 12002, Control_c, 0, 64, 0
1, 12016, Control_c, 0, 67, 104
1, 12031, Control_c, 0, 67, 105
1, 12046, Control_c, 0, 67, 105
1, 12060, Control_c, 0, 67, 106
1, 12071, Note_off_c, 0, 66, 37
1, 12093, Note_on_c, 0, 42, 54
1, 12096, Note_off_c, 0, 74, 63
1, 12105, Control_c, 0, 64, 15
1, 12120, Control_c, 0, 64, 22
1, 12123, Note_off_c, 0, 42, 59
1, 12134, Control_c, 0, 64, 27
1, 12149, Control_c, 0, 64, 31
1, 12164, Control_c, 0, 64, 34
1, 12164, Control_c, 0, 67, 105
1, 12180, Control_c, 0, 64, 37
1, 12180, Control_c, 0, 67, 105
1, 12195, Control_c, 0, 64, 39
1, 12195, Control_c, 0, 67, 104
1, 12217, Control_c, 0, 64, 42
1, 12217, Control_c, 0, 67, 103
1, 12232, Control_c, 0, 64, 43
1, 12232, Control_c, 0, 67, 102
1, 12239, Note_on_c, 0, 45, 60
1, 12247, Control_c, 0, 64, 43
1, 12247, Control_c, 0, 67, 101
1, 12262, Control_c, 0, 67, 100
1, 12266, Note_off_c, 0, 45, 62
1, 12277, Control_c, 0, 67, 98
1, 12291, Control_c, 0, 67, 92
1, 12306, Control_c, 0, 64, 40
1, 12306, Control_c, 0, 67, 85
1, 12321, Control_c, 0, 64, 28
1, 12321, Control_c, 0, 67, 77
1, 12336, Control_c, 0, 64, 0
1, 12336, Control_c, 0, 67, 69
1, 12351, Control_c, 0, 67, 58
1, 12365, Control_c, 0, 67, 49
1, 12380, Note_on_c, 0, 50, 72
1, 12380, Control_c, 0, 67, 41
1, 12395, Control_c, 0, 67, 34
1, 12410, Note_off_c, 0, 50, 69
1, 12410, Control_c, 0, 67, 27
1, 12425, Control_c, 0, 67, 20
1, 12439, Control_c, 0, 67, 10
1, 12454, Control_c, 0, 67, 0
1, 12521, Note_on_c, 0, 69, 68
1, 12536, Note_on_c, 0, 66, 57
1, 12543, Control_c, 0, 64, 23
1, 12557, Control_c, 0, 64, 61
1, 12572, Control_c, 0, 64, 67
1, 12574, Note_off_c, 0, 69, 66
1, 12587, Control_c, 0, 64, 75
1, 12602, Control_c, 0, 64, 86
1, 12617, Control_c, 0, 64, 104
1, 12631, Control_c, 0, 64, 127
1, 12672, Note_on_c, 0, 69, 77
1, 12673, Note_on_c, 0, 72, 79
1, 12687, Note_off_c, 0, 66, 60
1, 12804, Note_on_c, 0, 43, 106
1, 12804, Note_on_c, 0, 71, 84
1, 12805, Note_off_c, 0, 69, 63
1, 12807, Note_on_c, 0, 31, 90
1, 12807, Note_on_c, 0, 67, 79
1, 12810, Control_c, 0, 64, 109
1, 12824, Note_off_c, 0, 72, 55
1, 12825, Control_c, 0, 64, 76
1, 12828, Note_off_c, 0, 43, 68
1, 12833, Note_off_c, 0, 31, 64
1, 12839, Control_c, 0, 64, 38
1, 12854, Control_c, 0, 64, 0
1, 12913, Control_c, 0, 64, 23
1, 12928, Control_c, 0, 64, 31
1, 12967, Note_on_c, 0, 47, 97
1, 12970, Note_on_c, 0, 35, 88
1, 12989, Note_off_c, 0, 47, 71
1, 12998, Note_off_c, 0, 35, 69
1, 13010, Control_c, 0, 64, 31
1, 13099, Control_c, 0, 64, 32
1, 13107, Note_off_c, 0, 67, 59
1, 13110, Note_on_c, 0, 50, 84
1, 13114, Control_c, 0, 64, 35
1, 13117, Note_off_c, 0, 71, 62
1, 13118, Note_on_c, 0, 36, 66
1, 13119, Note_on_c, 0, 38, 70
1, 13119, Note_on_c, 0, 48, 69
1, 13129, Control_c, 0, 64, 37
1, 13133, Note_off_c, 0, 50, 73
1, 13139, Note_off_c, 0, 48, 61
1, 13144, Note_off_c, 0, 38, 57
1, 13144, Control_c, 0, 64, 38
1, 13144, Note_off_c, 0, 36, 57
1, 13174, Control_c, 0, 64, 38
1, 13203, Control_c, 0, 64, 38
1, 13218, Control_c, 0, 64, 37
1, 13233, Control_c, 0, 64, 36
1, 13248, Control_c, 0, 64, 35
1, 13257, Note_on_c, 0, 43, 95
1, 13259, Note_on_c, 0, 55, 88
1, 13262, Control_c, 0, 64, 34
1, 13277, Control_c, 0, 64, 34
1, 13292, Control_c, 0, 64, 33
1, 13306, Control_c, 0, 64, 33
1, 13321, Control_c, 0, 64, 32
1, 13322, Note_on_c, 0, 62, 74
1, 13336, Control_c, 0, 64, 31
1, 13351, Control_c, 0, 64, 30
1, 13355, Note_off_c, 0, 55, 63
1, 13366, Control_c, 0, 64, 28
1, 13368, Note_off_c, 0, 62, 63
1, 13376, Note_off_c, 0, 43, 62
1, 13380, Control_c, 0, 64, 25
1, 13385, Note_on_c, 0, 74, 83
1, 13395, Control_c, 0, 64, 21
1, 13410, Control_c, 0, 64, 18
1, 13425, Control_c, 0, 64, 16
1, 13440, Control_c, 0, 64, 15
1, 13456, Note_on_c, 0, 71, 82
1, 13460, Note_off_c, 0, 74, 66
1, 13513, Note_on_c, 0, 69, 85
1, 13521, Note_off_c, 0, 71, 65
1, 13564, Note_off_c, 0, 69, 68
1, 13570, Note_on_c, 0, 67, 81
1, 13645, Note_on_c, 0, 66, 86
1, 13646, Note_on_c, 0, 45, 93
1, 13650, Note_on_c, 0, 33, 84
1, 13661, Note_off_c, 0, 67, 60
1, 13662, Control_c, 0, 64, 16
1, 13671, Note_off_c, 0, 45, 68
1, 13672, Note_off_c, 0, 33, 64
1, 13677, Control_c, 0, 64, 17
1, 13692, Control_c, 0, 64, 18
1, 13713, Control_c, 0, 64, 19
1, 13728, Control_c, 0, 64, 19
1, 13758, Control_c, 0, 64, 20
1, 13789, Control_c, 0, 64, 21
1, 13804, Control_c, 0, 64, 22
1, 13806, Note_on_c, 0, 48, 97
1, 13809, Note_on_c, 0, 36, 89
1, 13828, Note_off_c, 0, 48, 69
1, 13834, Note_off_c, 0, 36, 65
1, 13834, Control_c, 0, 64, 23
1, 13850, Note_on_c, 0, 39, 13
1, 13851, Note_off_c, 0, 39, 127
1, 13889, Note_off_c, 0, 66, 62
1, 13923, Control_c, 0, 64, 23
1, 13937, Control_c, 0, 64, 25
1, 13952, Control_c, 0, 64, 28
1, 13955, Note_on_c, 0, 50, 98
1, 13958, Note_on_c, 0, 38, 94
1, 13967, Control_c, 0, 64, 30
1, 13975, Note_off_c, 0, 50, 73
1, 13982, Note_off_c, 0, 38, 69
1, 13982, Control_c, 0, 64, 31
1, 14026, Control_c, 0, 64, 32
1, 14041, Control_c, 0, 64, 32
1, 14100, Note_on_c, 0, 42, 93
1, 14103, Note_on_c, 0, 54, 92
1, 14169, Note_on_c, 0, 62, 77
1, 14198, Note_off_c, 0, 42, 58
1, 14206, Note_off_c, 0, 54, 62
1, 14216, Note_off_c, 0, 62, 64
1, 14232, Note_on_c, 0, 74, 79
1, 14298, Note_on_c, 0, 72, 82
1, 14323, Control_c, 0, 64, 33
1, 14337, Control_c, 0, 64, 33
1, 14347, Note_off_c, 0, 74, 63
1, 14357, Note_on_c, 0, 71, 86
1, 14367, Control_c, 0, 64, 34
1, 14393, Note_off_c, 0, 72, 65
1, 14419, Note_off_c, 0, 71, 68
1, 14423, Note_on_c, 0, 69, 81
1, 14505, Note_on_c, 0, 55, 62
1, 14512, Note_on_c, 0, 71, 81
1, 14524, Note_off_c, 0, 69, 63
1, 14537, Control_c, 0, 64, 33
1, 14672, Control_c, 0, 64, 34
1, 14675, Note_on_c, 0, 59, 68
1, 14687, Control_c, 0, 64, 35
1, 14702, Control_c, 0, 64, 38
1, 14716, Control_c, 0, 64, 41
1, 14731, Control_c, 0, 64, 43
1, 14746, Control_c, 0, 64, 44
1, 14748, Note_off_c, 0, 71, 65
1, 14760, Control_c, 0, 64, 45
1, 14775, Control_c, 0, 64, 47
1, 14790, Control_c, 0, 64, 47
1, 14805, Control_c, 0, 64, 48
1, 14816, Note_on_c, 0, 62, 58
1, 14849, Control_c, 0, 64, 47
1, 14864, Control_c, 0, 64, 46
1, 14879, Control_c, 0, 64, 41
1, 14894, Control_c, 0, 64, 31
1, 14909, Control_c, 0, 64, 0
1, 14973, Note_on_c, 0, 67, 66
1, 15039, Note_off_c, 0, 55, 35
1, 15055, Note_on_c, 0, 74, 64
1, 15057, Control_c, 0, 64, 32
1, 15071, Control_c, 0, 64, 55
1, 15086, Control_c, 0, 64, 63
1, 15088, Note_off_c, 0, 74, 65
1, 15101, Control_c, 0, 64, 68
1, 15107, Note_off_c, 0, 67, 62
1, 15109, Note_on_c, 0, 86, 77
1, 15116, Control_c, 0, 64, 73
1, 15131, Control_c, 0, 64, 77
1, 15146, Control_c, 0, 64, 79
1, 15147, Note_off_c, 0, 59, 61
1, 15150, Note_off_c, 0, 62, 61
1, 15160, Control_c, 0, 64, 79
1, 15186, Note_on_c, 0, 83, 80
1, 15192, Note_off_c, 0, 86, 65
1, 15254, Note_on_c, 0, 81, 79
1, 15257, Control_c, 0, 64, 79
1, 15258, Note_off_c, 0, 83, 63
1, 15272, Control_c, 0, 64, 78
1, 15286, Control_c, 0, 64, 75
1, 15301, Control_c, 0, 64, 71
1, 15302, Note_off_c, 0, 81, 67
1, 15311, Note_on_c, 0, 79, 79
1, 15315, Control_c, 0, 64, 64
1, 15330, Control_c, 0, 64, 53
1, 15345, Control_c, 0, 64, 40
1, 15347, Note_off_c, 0, 79, 63
1, 15359, Control_c, 0, 64, 36
1, 15375, Control_c, 0, 64, 31
1, 15388, Note_on_c, 0, 57, 51
1, 15390, Control_c, 0, 64, 23
1, 15405, Note_on_c, 0, 79, 65
1, 15405, Control_c, 0, 64, 19
1, 15420, Control_c, 0, 67, 8
1, 15435, Control_c, 0, 67, 11
1, 15449, Control_c, 0, 64, 20
1, 15449, Control_c, 0, 67, 15
1, 15464, Control_c, 0, 64, 22
1, 15464, Control_c, 0, 67, 22
1, 15479, Control_c, 0, 64, 23
1, 15479, Control_c, 0, 67, 32
1, 15494, Control_c, 0, 64, 24
1, 15494, Control_c, 0, 67, 44
1, 15508, Control_c, 0, 64, 24
1, 15508, Control_c, 0, 67, 56
1, 15523, Control_c, 0, 64, 25
1, 15523, Control_c, 0, 67, 70
1, 15538, Control_c, 0, 64, 26
1, 15538, Control_c, 0, 67, 82
1, 15553, Control_c, 0, 64, 26
1, 15553, Control_c, 0, 67, 94
1, 15556, Note_on_c, 0, 60, 51
1, 15568, Control_c, 0, 64, 27
1, 15568, Control_c, 0, 67, 105
1, 15582, Control_c, 0, 64, 28
1, 15582, Control_c, 0, 67, 116
1, 15597, Control_c, 0, 64, 29
1, 15597, Control_c, 0, 67, 126
1, 15612, Control_c, 0, 64, 29
1, 15612, Control_c, 0, 67, 127
1, 15699, Note_on_c, 0, 62, 49
1, 15699, Note_on_c, 0, 78, 68
1, 15708, Note_off_c, 0, 79, 57
1, 15716, Control_c, 0, 64, 27
1, 15731, Control_c, 0, 64, 15
1, 15746, Control_c, 0, 64, 0
1, 15818, Note_off_c, 0, 78, 60
1, 15847, Note_on_c, 0, 66, 64
1, 15864, Control_c, 0, 64, 33
1, 15879, Control_c, 0, 64, 47
1, 15894, Control_c, 0, 64, 52
1, 15908, Control_c, 0, 64, 55
1, 15908, Control_c, 0, 67, 125
1, 15923, Control_c, 0, 64, 56
1, 15923, Control_c, 0, 67, 120
1, 15925, Note_on_c, 0, 74, 60
1, 15938, Control_c, 0, 64, 58
1, 15938, Control_c, 0, 67, 116
1, 15961, Control_c, 0, 64, 58
1, 15961, Control_c, 0, 67, 111
1, 15962, Note_off_c, 0, 74, 67
1, 15975, Note_off_c, 0, 57, 43
1, 15976, Control_c, 0, 64, 59
1, 15976, Control_c, 0, 67, 104
1, 15985, Note_off_c, 0, 66, 62
1, 15990, Control_c, 0, 67, 95
1, 15991, Note_on_c, 0, 86, 75
1, 16000, Note_off_c, 0, 60, 62
1, 16002, Note_off_c, 0, 62, 62
1, 16005, Control_c, 0, 67, 83
1, 16020, Control_c, 0, 67, 70
1, 16035, Control_c, 0, 67, 59
1, 16050, Control_c, 0, 67, 50
1, 16062, Note_on_c, 0, 84, 76
1, 16064, Control_c, 0, 67, 43
1, 16079, Control_c, 0, 67, 39
1, 16094, Note_off_c, 0, 86, 62
1, 16094, Control_c, 0, 67, 36
1, 16108, Control_c, 0, 67, 34
1, 16123, Control_c, 0, 64, 58
1, 16123, Control_c, 0, 67, 32
1, 16125, Note_on_c, 0, 83, 83
1, 16138, Control_c, 0, 67, 30
1, 16153, Control_c, 0, 64, 58
1, 16153, Control_c, 0, 67, 29
1, 16155, Note_off_c, 0, 84, 64
1, 16168, Control_c, 0, 64, 57
1, 16168, Control_c, 0, 67, 28
1, 16184, Control_c, 0, 64, 55
1, 16189, Note_off_c, 0, 83, 65
1, 16193, Note_on_c, 0, 81, 74
1, 16198, Control_c, 0, 64, 52
1, 16213, Control_c, 0, 64, 47
1, 16215, Note_off_c, 0, 81, 70
1, 16228, Control_c, 0, 64, 42
1, 16243, Control_c, 0, 64, 37
1, 16258, Control_c, 0, 64, 33
1, 16258, Control_c, 0, 67, 28
1, 16273, Control_c, 0, 64, 31
1, 16273, Control_c, 0, 67, 29
1, 16277, Note_on_c, 0, 59, 46
1, 16286, Note_on_c, 0, 81, 76
1, 16287, Control_c, 0, 67, 30
1, 16302, Control_c, 0, 67, 31
1, 16317, Control_c, 0, 67, 32
1, 16331, Control_c, 0, 67, 33
1, 16346, Control_c, 0, 67, 34
1, 16361, Control_c, 0, 64, 32
1, 16361, Control_c, 0, 67, 35
1, 16376, Control_c, 0, 64, 32
1, 16376, Control_c, 0, 67, 36
1, 16391, Control_c, 0, 64, 33
1, 16391, Control_c, 0, 67, 38
1, 16405, Control_c, 0, 64, 33
1, 16405, Control_c, 0, 67, 40
1, 16420, Control_c, 0, 67, 46
1, 16435, Control_c, 0, 67, 51
1, 16441, Note_on_c, 0, 62, 46
1, 16450, Control_c, 0, 67, 59
1, 16465, Control_c, 0, 67, 69
1, 16480, Control_c, 0, 67, 81
1, 16495, Control_c, 0, 67, 96
1, 16509, Control_c, 0, 67, 109
1, 16524, Control_c, 0, 64, 32
1, 16524, Control_c, 0, 67, 121
1, 16539, Control_c, 0, 64, 32
1, 16539, Control_c, 0, 67, 127
1, 16554, Control_c, 0, 64, 30
1, 16569, Control_c, 0, 64, 27
1, 16584, Control_c, 0, 64, 25
1, 16590, Note_on_c, 0, 66, 45
1, 16596, Note_on_c, 0, 83, 65
1, 16597, Note_off_c, 0, 81, 60
1, 16598, Control_c, 0, 64, 23
1, 16628, Control_c, 0, 64, 23
1, 16687, Control_c, 0, 64, 23
1, 16709, Control_c, 0, 64, 24
1, 16724, Control_c, 0, 64, 24
1, 16725, Note_off_c, 0, 66, 62
1, 16733, Note_off_c, 0, 83, 59
1, 16739, Control_c, 0, 64, 25
1, 16747, Note_on_c, 0, 67, 60
1, 16754, Control_c, 0, 64, 26
1, 16769, Control_c, 0, 64, 27
1, 16784, Control_c, 0, 64, 27
1, 16799, Control_c, 0, 64, 28
1, 16813, Control_c, 0, 64, 28
1, 16833, Note_on_c, 0, 74, 54
1, 16843, Control_c, 0, 64, 29
1, 16858, Note_off_c, 0, 74, 65
1, 16872, Control_c, 0, 64, 29
1, 16872, Control_c, 0, 67, 127
1, 16882, Note_on_c, 0, 86, 81
1, 16887, Control_c, 0, 64, 30
1, 16887, Control_c, 0, 67, 125
1, 16888, Note_off_c, 0, 59, 53
1, 16901, Note_off_c, 0, 67, 62
1, 16902, Control_c, 0, 64, 31
1, 16902, Control_c, 0, 67, 123
1, 16917, Control_c, 0, 64, 31
1, 16917, Control_c, 0, 67, 119
1, 16929, Note_off_c, 0, 62, 62
1, 16931, Control_c, 0, 64, 32
1, 16931, Control_c, 0, 67, 115
1, 16946, Control_c, 0, 64, 33
1, 16946, Control_c, 0, 67, 110
1, 16959, Note_on_c, 0, 83, 76
1, 16961, Control_c, 0, 64, 34
1, 16961, Control_c, 0, 67, 103
1, 16963, Note_off_c, 0, 86, 65
1, 16977, Control_c, 0, 64, 34
1, 16977, Control_c, 0, 67, 96
1, 16992, Control_c, 0, 64, 35
1, 16992, Control_c, 0, 67, 89
1, 17007, Control_c, 0, 64, 36
1, 17007, Control_c, 0, 67, 84
1, 17022, Control_c, 0, 64, 36
1, 17022, Control_c, 0, 67, 78
1, 17025, Note_off_c, 0, 83, 61
1, 17027, Note_on_c, 0, 81, 76
1, 17036, Control_c, 0, 64, 37
1, 17036, Control_c, 0, 67, 74
1, 17051, Control_c, 0, 67, 70
1, 17066, Control_c, 0, 67, 67
1, 17076, Note_off_c, 0, 81, 64
1, 17080, Control_c, 0, 67, 65
1, 17083, Note_on_c, 0, 79, 79
1, 17095, Control_c, 0, 64, 36
1, 17095, Control_c, 0, 67, 63
1, 17110, Control_c, 0, 64, 33
1, 17110, Control_c, 0, 67, 62
1, 17125, Note_off_c, 0, 79, 62
1, 17125, Control_c, 0, 64, 30
1, 17125, Control_c, 0, 67, 61
1, 17140, Control_c, 0, 64, 27
1, 17154, Note_on_c, 0, 88, 75
1, 17154, Control_c, 0, 64, 27
1, 17158, Note_on_c, 0, 60, 56
1, 17169, Control_c, 0, 64, 26
1, 17180, Note_off_c, 0, 60, 61
1, 17193, Note_off_c, 0, 88, 67
1, 17214, Control_c, 0, 64, 27
1, 17222, Note_on_c, 0, 76, 67
1, 17228, Control_c, 0, 64, 27
1, 17228, Control_c, 0, 67, 61
1, 17243, Control_c, 0, 67, 62
1, 17258, Note_off_c, 0, 76, 60
1, 17258, Control_c, 0, 64, 28
1, 17273, Control_c, 0, 67, 62
1, 17299, Note_on_c, 0, 69, 62
1, 17302, Control_c, 0, 67, 63
1, 17303, Note_on_c, 0, 84, 71
1, 17319, Note_off_c, 0, 69, 65
1, 17332, Control_c, 0, 67, 63
1, 17335, Note_off_c, 0, 84, 62
1, 17362, Control_c, 0, 64, 28
1, 17364, Note_on_c, 0, 88, 73
1, 17407, Control_c, 0, 64, 29
1, 17410, Note_off_c, 0, 88, 66
1, 17421, Control_c, 0, 64, 29
1, 17436, Note_on_c, 0, 67, 61
1, 17436, Control_c, 0, 64, 30
1, 17451, Note_on_c, 0, 83, 65
1, 17458, Control_c, 0, 64, 30
1, 17463, Note_off_c, 0, 67, 63
1, 17473, Control_c, 0, 67, 63
1, 17485, Note_off_c, 0, 83, 63
1, 17502, Control_c, 0, 67, 62
1, 17514, Note_on_c, 0, 88, 70
1, 17517, Control_c, 0, 67, 62
1, 17532, Control_c, 0, 67, 61
1, 17547, Control_c, 0, 67, 61
1, 17556, Note_off_c, 0, 88, 64
1, 17561, Control_c, 0, 67, 60
1, 17576, Control_c, 0, 67, 60
1, 17585, Note_on_c, 0, 81, 68
1, 17587, Note_on_c, 0, 66, 43
1, 17591, Control_c, 0, 67, 59
1, 17606, Control_c, 0, 64, 32
1, 17606, Control_c, 0, 67, 57
1, 17621, Control_c, 0, 64, 37
1, 17621, Control_c, 0, 67, 52
1, 17632, Note_off_c, 0, 81, 59
1, 17635, Control_c, 0, 64, 40
1, 17635, Control_c, 0, 67, 47
1, 17650, Control_c, 0, 64, 43
1, 17650, Control_c, 0, 67, 42
1, 17654, Note_on_c, 0, 83, 77
1, 17665, Control_c, 0, 64, 45
1, 17665, Control_c, 0, 67, 36
1, 17679, Control_c, 0, 64, 45
1, 17679, Control_c, 0, 67, 31
1, 17694, Control_c, 0, 67, 25
1, 17709, Control_c, 0, 67, 20
1, 17720, Note_on_c, 0, 84, 71
1, 17724, Control_c, 0, 67, 16
1, 17734, Note_off_c, 0, 83, 61
1, 17739, Control_c, 0, 67, 12
1, 17753, Control_c, 0, 67, 9
1, 17755, Note_off_c, 0, 66, 63
1, 17768, Control_c, 0, 64, 46
1, 17768, Control_c, 0, 67, 0
1, 17774, Note_off_c, 0, 84, 62
1, 17785, Note_on_c, 0, 86, 76
1, 17814, Control_c, 0, 64, 46
1, 17844, Note_on_c, 0, 88, 72
1, 17844, Note_off_c, 0, 86, 65
1, 17844, Control_c, 0, 64, 47
1, 17882, Note_off_c, 0, 88, 68
1, 17888, Control_c, 0, 64, 46
1, 17902, Control_c, 0, 64, 43
1, 17904, Note_on_c, 0, 84, 66
1, 17917, Control_c, 0, 64, 40
1, 17922, Note_off_c, 0, 84, 68
1, 17932, Control_c, 0, 64, 38
1, 17947, Control_c, 0, 64, 36
1, 17962, Control_c, 0, 64, 36
1, 17975, Note_on_c, 0, 59, 61
1, 17979, Note_on_c, 0, 86, 75
1, 17996, Note_off_c, 0, 59, 61
1, 18021, Note_off_c, 0, 86, 60
1, 18048, Note_on_c, 0, 74, 68
1, 18095, Note_off_c, 0, 74, 59
1, 18122, Note_on_c, 0, 67, 64
1, 18131, Note_on_c, 0, 83, 68
1, 18153, Note_off_c, 0, 67, 65
1, 18169, Note_off_c, 0, 83, 62
1, 18188, Note_on_c, 0, 86, 72
1, 18250, Note_off_c, 0, 86, 62
1, 18277, Note_on_c, 0, 81, 74
1, 18278, Note_on_c, 0, 66, 65
1, 18295, Control_c, 0, 64, 36
1, 18305, Note_off_c, 0, 81, 63
1, 18305, Note_off_c, 0, 66, 67
1, 18344, Note_on_c, 0, 86, 71
1, 18393, Note_off_c, 0, 86, 57
1, 18417, Note_on_c, 0, 79, 67
1, 18429, Note_on_c, 0, 64, 50
1, 18458, Control_c, 0, 64, 37
1, 18465, Note_off_c, 0, 79, 55
1, 18473, Control_c, 0, 64, 38
1, 18488, Control_c, 0, 64, 40
1, 18491, Note_on_c, 0, 81, 72
1, 18502, Control_c, 0, 64, 41
1, 18517, Control_c, 0, 64, 43
1, 18532, Control_c, 0, 64, 44
1, 18547, Control_c, 0, 64, 45
1, 18557, Note_on_c, 0, 83, 70
1, 18562, Control_c, 0, 64, 45
1, 18571, Note_off_c, 0, 81, 63
1, 18588, Note_off_c, 0, 64, 64
1, 18593, Control_c, 0, 64, 46
1, 18607, Control_c, 0, 64, 46
1, 18620, Note_off_c, 0, 83, 61
1, 18622, Control_c, 0, 64, 47
1, 18629, Note_on_c, 0, 84, 76
1, 18637, Control_c, 0, 64, 47
1, 18652, Control_c, 0, 64, 48
1, 18667, Control_c, 0, 64, 49
1, 18680, Note_on_c, 0, 86, 69
1, 18681, Control_c, 0, 64, 50
1, 18687, Note_off_c, 0, 84, 64
1, 18696, Control_c, 0, 64, 50
1, 18720, Note_off_c, 0, 86, 59
1, 18725, Control_c, 0, 64, 49
1, 18736, Note_on_c, 0, 83, 78
1, 18740, Control_c, 0, 64, 43
1, 18755, Control_c, 0, 64, 22
1, 18757, Note_off_c, 0, 83, 70
1, 18770, Control_c, 0, 64, 0
1, 18825, Note_on_c, 0, 84, 80
1, 18827, Note_on_c, 0, 57, 69
1, 18846, Note_off_c, 0, 57, 63
1, 18864, Note_off_c, 0, 84, 66
1, 18894, Note_on_c, 0, 72, 73
1, 18954, Note_off_c, 0, 72, 60
1, 18986, Note_on_c, 0, 66, 75
1, 18997, Note_on_c, 0, 81, 67
1, 19009, Note_off_c, 0, 66, 70
1, 19025, Note_off_c, 0, 81, 66
1, 19059, Note_on_c, 0, 84, 71
1, 19111, Note_off_c, 0, 84, 64
1, 19136, Note_on_c, 0, 64, 67
1, 19145, Note_on_c, 0, 79, 78
1, 19163, Note_off_c, 0, 64, 66
1, 19168, Note_off_c, 0, 79, 67
1, 19213, Note_on_c, 0, 84, 74
1, 19255, Note_off_c, 0, 84, 65
1, 19282, Note_on_c, 0, 78, 80
1, 19286, Note_on_c, 0, 62, 68
1, 19316, Note_off_c, 0, 62, 65
1, 19320, Note_off_c, 0, 78, 63
1, 19364, Note_on_c, 0, 84, 74
1, 19428, Note_off_c, 0, 84, 62
1, 19437, Note_on_c, 0, 64, 74
1, 19446, Note_on_c, 0, 79, 76
1, 19461, Note_off_c, 0, 64, 70
1, 19472, Note_off_c, 0, 79, 64
1, 19507, Note_on_c, 0, 84, 68
1, 19553, Note_off_c, 0, 84, 64
1, 19586, Note_on_c, 0, 66, 66
1, 19592, Note_on_c, 0, 81, 65
1, 19615, Note_off_c, 0, 66, 68
1, 19621, Note_off_c, 0, 81, 66
1, 19652, Note_on_c, 0, 84, 66
1, 19705, Note_off_c, 0, 84, 63
1, 19736, Note_on_c, 0, 55, 61
1, 19746, Note_on_c, 0, 83, 79
1, 19767, Note_off_c, 0, 83, 70
1, 19769, Note_off_c, 0, 55, 63
1, 19824, Note_on_c, 0, 67, 55
1, 19872, Note_off_c, 0, 67, 59
1, 19889, Note_on_c, 0, 86, 73
1, 19908, Note_on_c, 0, 57, 65
1, 19931, Note_off_c, 0, 86, 62
1, 19939, Note_on_c, 0, 84, 54
1, 19944, Note_off_c, 0, 57, 63
1, 19957, Note_on_c, 0, 83, 71
1, 19958, Note_off_c, 0, 84, 62
1, 19985, Note_on_c, 0, 67, 66
1, 19994, Note_on_c, 0, 84, 74
1, 20006, Note_off_c, 0, 83, 63
1, 20033, Note_off_c, 0, 67, 60
1, 20040, Note_on_c, 0, 86, 89
1, 20048, Note_off_c, 0, 84, 67
1, 20058, Note_on_c, 0, 59, 69
1, 20065, Note_off_c, 0, 86, 66
1, 20090, Note_off_c, 0, 59, 63
1, 20141, Note_on_c, 0, 67, 56
1, 20176, Note_off_c, 0, 67, 60
1, 20198, Note_on_c, 0, 81, 90
1, 20202, Note_on_c, 0, 60, 69
1, 20215, Note_off_c, 0, 81, 73
1, 20237, Note_off_c, 0, 60, 64
1, 20277, Note_on_c, 0, 67, 65
1, 20333, Note_off_c, 0, 67, 53
1, 20351, Note_on_c, 0, 60, 69
1, 20359, Note_on_c, 0, 81, 90
1, 20388, Note_off_c, 0, 60, 64
1, 20391, Note_off_c, 0, 81, 68
1, 20436, Note_on_c, 0, 67, 60
1, 20475, Note_off_c, 0, 67, 63
1, 20497, Control_c, 0, 67, 10
1, 20511, Note_on_c, 0, 60, 62
1, 20512, Control_c, 0, 67, 15
1, 20516, Note_on_c, 0, 81, 85
1, 20527, Control_c, 0, 67, 22
1, 20536, Note_off_c, 0, 81, 69
1, 20542, Note_off_c, 0, 60, 66
1, 20542, Control_c, 0, 67, 34
1, 20557, Control_c, 0, 67, 49
1, 20572, Control_c, 0, 67, 66
1, 20573, Note_on_c, 0, 67, 60
1, 20587, Control_c, 0, 67, 81
1, 20602, Control_c, 0, 67, 94
1, 20617, Control_c, 0, 67, 106
1, 20624, Note_off_c, 0, 67, 58
1, 20632, Control_c, 0, 67, 112
1, 20646, Control_c, 0, 67, 116
1, 20661, Control_c, 0, 67, 116
1, 20668, Note_on_c, 0, 55, 59
1, 20672, Note_on_c, 0, 83, 71
1, 20690, Note_off_c, 0, 55, 60
1, 20697, Note_off_c, 0, 83, 69
1, 20752, Note_on_c, 0, 67, 46
1, 20781, Note_off_c, 0, 67, 56
1, 20794, Control_c, 0, 67, 116
1, 20809, Control_c, 0, 67, 115
1, 20811, Note_on_c, 0, 86, 67
1, 20823, Control_c, 0, 67, 115
1, 20825, Note_on_c, 0, 57, 59
1, 20838, Control_c, 0, 67, 114
1, 20847, Note_off_c, 0, 86, 66
1, 20853, Control_c, 0, 67, 114
1, 20858, Note_off_c, 0, 57, 64
1, 20859, Note_on_c, 0, 84, 52
1, 20868, Control_c, 0, 67, 113
1, 20882, Note_off_c, 0, 84, 60
1, 20883, Note_on_c, 0, 83, 65
1, 20883, Control_c, 0, 67, 113
1, 20894, Note_on_c, 0, 67, 46
1, 20897, Control_c, 0, 67, 112
1, 20912, Control_c, 0, 67, 112
1, 20919, Note_on_c, 0, 84, 78
1, 20919, Note_off_c, 0, 83, 62
1, 20937, Note_off_c, 0, 67, 61
1, 20942, Control_c, 0, 67, 111
1, 20950, Note_on_c, 0, 86, 73
1, 20957, Note_off_c, 0, 84, 66
1, 20957, Control_c, 0, 67, 111
1, 20963, Note_on_c, 0, 59, 56
1, 20973, Note_off_c, 0, 86, 70
1, 20973, Control_c, 0, 67, 110
1, 20988, Control_c, 0, 67, 110
1, 20994, Note_off_c, 0, 59, 64
1, 21036, Note_on_c, 0, 67, 53
1, 21067, Note_off_c, 0, 67, 59
1, 21076, Control_c, 0, 67, 109
1, 21106, Note_on_c, 0, 60, 60
1, 21118, Note_on_c, 0, 81, 60
1, 21136, Note_off_c, 0, 81, 66
1, 21139, Note_off_c, 0, 60, 66
1, 21187, Note_on_c, 0, 67, 44
1, 21202, Control_c, 0, 67, 109
1, 21237, Note_off_c, 0, 67, 50
1, 21263, Note_on_c, 0, 60, 51
1, 21275, Note_on_c, 0, 81, 60
1, 21291, Control_c, 0, 67, 108
1, 21299, Note_off_c, 0, 60, 65
1, 21303, Note_off_c, 0, 81, 68
1, 21306, Control_c, 0, 67, 108
1, 21333, Note_on_c, 0, 67, 56
1, 21376, Note_off_c, 0, 67, 58
1, 21413, Note_on_c, 0, 60, 48
1, 21433, Note_on_c, 0, 81, 69
1, 21447, Note_off_c, 0, 60, 66
1, 21449, Note_off_c, 0, 81, 69
1, 21485, Note_on_c, 0, 67, 58
1, 21529, Note_off_c, 0, 67, 60
1, 21565, Note_on_c, 0, 55, 70
1, 21579, Note_on_c, 0, 83, 78
1, 21594, Note_off_c, 0, 55, 65
1, 21601, Note_off_c, 0, 83, 70
1, 21649, Note_on_c, 0, 67, 55
1, 21676, Control_c, 0, 67, 108
1, 21693, Note_off_c, 0, 67, 63
1, 21717, Note_on_c, 0, 86, 77
1, 21728, Note_on_c, 0, 57, 66
1, 21735, Control_c, 0, 67, 108
1, 21750, Control_c, 0, 67, 106
1, 21759, Note_off_c, 0, 86, 64
1, 21761, Note_off_c, 0, 57, 65
1, 21766, Control_c, 0, 67, 104
1, 21769, Note_on_c, 0, 84, 55
1, 21781, Control_c, 0, 67, 95
1, 21788, Note_on_c, 0, 83, 73
1, 21790, Note_off_c, 0, 84, 62
1, 21796, Control_c, 0, 67, 77
1, 21806, Note_on_c, 0, 67, 64
1, 21810, Control_c, 0, 67, 57
1, 21825, Control_c, 0, 67, 34
1, 21826, Note_on_c, 0, 84, 79
1, 21840, Control_c, 0, 67, 16
1, 21843, Note_off_c, 0, 83, 61
1, 21851, Note_off_c, 0, 67, 61
1, 21855, Control_c, 0, 67, 0
1, 21865, Note_on_c, 0, 86, 85
1, 21873, Note_on_c, 0, 59, 74
1, 21881, Note_off_c, 0, 84, 66
1, 21897, Note_off_c, 0, 86, 67
1, 21902, Note_off_c, 0, 59, 66
1, 21967, Note_on_c, 0, 67, 61
1, 22005, Note_off_c, 0, 67, 62
1, 22027, Note_on_c, 0, 60, 72
1, 22028, Note_on_c, 0, 81, 92
1, 22045, Note_off_c, 0, 81, 72
1, 22069, Note_off_c, 0, 60, 64
1, 22103, Note_on_c, 0, 67, 62
1, 22155, Note_off_c, 0, 67, 53
1, 22173, Note_on_c, 0, 60, 70
1, 22180, Note_on_c, 0, 81, 91
1, 22212, Note_off_c, 0, 60, 65
1, 22214, Note_off_c, 0, 81, 68
1, 22251, Note_on_c, 0, 67, 69
1, 22283, Note_off_c, 0, 67, 61
1, 22323, Note_on_c, 0, 60, 68
1, 22325, Note_on_c, 0, 81, 91
1, 22352, Note_off_c, 0, 60, 67
1, 22356, Note_off_c, 0, 81, 68
1, 22395, Note_on_c, 0, 67, 67
1, 22432, Note_off_c, 0, 67, 62
1, 22472, Note_on_c, 0, 61, 78
1, 22476, Note_on_c, 0, 79, 89
1, 22502, Note_off_c, 0, 79, 64
1, 22516, Note_off_c, 0, 61, 55
1, 22544, Note_on_c, 0, 70, 78
1, 22610, Note_off_c, 0, 70, 63
1, 22625, Note_on_c, 0, 61, 77
1, 22632, Note_on_c, 0, 79, 87
1, 22650, Note_off_c, 0, 79, 68
1, 22683, Note_off_c, 0, 61, 60
1, 22707, Note_on_c, 0, 70, 71
1, 22762, Note_off_c, 0, 70, 62
1, 22787, Note_on_c, 0, 61, 73
1, 22787, Note_on_c, 0, 79, 85
1, 22810, Note_off_c, 0, 79, 66
1, 22820, Note_off_c, 0, 61, 63
1, 22853, Note_on_c, 0, 70, 72
1, 22881, Note_off_c, 0, 70, 66
1, 22921, Note_on_c, 0, 62, 70
1, 22927, Note_on_c, 0, 78, 93
1, 22948, Note_off_c, 0, 78, 66
1, 22974, Note_off_c, 0, 62, 57
1, 23003, Note_on_c, 0, 69, 69
1, 23052, Note_off_c, 0, 69, 61
1, 23076, Note_on_c, 0, 78, 89
1, 23078, Note_on_c, 0, 62, 67
1, 23107, Note_off_c, 0, 78, 66
1, 23115, Note_off_c, 0, 62, 62
1, 23150, Note_on_c, 0, 69, 66
1, 23187, Note_off_c, 0, 69, 59
1, 23221, Note_on_c, 0, 62, 61
1, 23225, Note_on_c, 0, 78, 91
1, 23246, Note_off_c, 0, 78, 69
1, 23255, Note_off_c, 0, 62, 66
1, 23289, Note_on_c, 0, 69, 69
1, 23323, Note_off_c, 0, 69, 64
1, 23371, Note_on_c, 0, 64, 66
1, 23376, Note_on_c, 0, 73, 88
1, 23394, Note_off_c, 0, 73, 72
1, 23407, Note_off_c, 0, 64, 60
1, 23457, Note_on_c, 0, 67, 68
1, 23501, Note_off_c, 0, 67, 62
1, 23528, Note_on_c, 0, 64, 64
1, 23532, Note_on_c, 0, 73, 84
1, 23562, Note_off_c, 0, 73, 62
1, 23566, Note_off_c, 0, 64, 63
1, 23607, Note_on_c, 0, 67, 57
1, 23644, Note_off_c, 0, 67, 63
1, 23674, Note_on_c, 0, 73, 84
1, 23681, Note_on_c, 0, 64, 54
1, 23696, Note_off_c, 0, 73, 68
1, 23711, Note_off_c, 0, 64, 65
1, 23747, Note_on_c, 0, 67, 59
1, 23827, Note_on_c, 0, 74, 79
1, 23827, Note_off_c, 0, 67, 61
1, 23833, Note_on_c, 0, 66, 69
1, 23884, Note_off_c, 0, 74, 63
1, 23893, Note_on_c, 0, 69, 73
1, 23960, Note_off_c, 0, 69, 65
1, 23967, Note_on_c, 0, 71, 84
1, 23983, Note_off_c, 0, 66, 63
1, 24035, Note_on_c, 0, 73, 88
1, 24042, Note_off_c, 0, 71, 65
1, 24090, Note_off_c, 0, 73, 63
1, 24108, Note_on_c, 0, 74, 81
1, 24175, Note_on_c, 0, 76, 94
1, 24176, Note_off_c, 0, 74, 65
1, 24252, Note_on_c, 0, 78, 91
1, 24261, Note_off_c, 0, 76, 62
1, 24309, Note_off_c, 0, 78, 67
1, 24313, Note_on_c, 0, 74, 81
1, 24313, Note_on_c, 0, 62, 80
1, 24382, Note_on_c, 0, 76, 92
1, 24384, Note_on_c, 0, 64, 81
1, 24389, Note_off_c, 0, 74, 65
1, 24415, Note_off_c, 0, 62, 63
1, 24441, Note_on_c, 0, 66, 82
1, 24450, Note_on_c, 0, 78, 93
1, 24462, Note_off_c, 0, 64, 63
1, 24464, Note_off_c, 0, 76, 62
1, 24513, Note_on_c, 0, 67, 79
1, 24514, Note_off_c, 0, 78, 65
1, 24522, Note_off_c, 0, 66, 64
1, 24525, Note_on_c, 0, 79, 85
1, 24559, Note_off_c, 0, 67, 57
1, 24583, Note_on_c, 0, 69, 77
1, 24590, Note_on_c, 0, 81, 88
1, 24591, Note_off_c, 0, 79, 62
1, 24618, Note_off_c, 0, 69, 57
1, 24652, Note_on_c, 0, 71, 84
1, 24652, Note_on_c, 0, 83, 94
1, 24657, Note_off_c, 0, 81, 67
1, 24688, Note_off_c, 0, 71, 65
1, 24718, Note_on_c, 0, 81, 89
1, 24722, Note_off_c, 0, 83, 60
1, 24731, Note_on_c, 0, 69, 78
1, 24769, Note_off_c, 0, 69, 66
1, 24784, Note_off_c, 0, 81, 68
1, 24790, Note_on_c, 0, 79, 86
1, 24800, Note_on_c, 0, 67, 79
1, 24839, Note_off_c, 0, 67, 62
1, 24862, Note_on_c, 0, 81, 87
1, 24864, Note_on_c, 0, 69, 75
1, 24865, Note_off_c, 0, 79, 64
1, 24922, Note_on_c, 0, 71, 82
1, 24925, Note_off_c, 0, 69, 56
1, 24926, Note_on_c, 0, 83, 81
1, 24940, Note_off_c, 0, 81, 66
1, 24986, Note_on_c, 0, 85, 88
1, 25004, Note_on_c, 0, 73, 88
1, 25005, Note_off_c, 0, 71, 65
1, 25005, Note_off_c, 0, 83, 52
1, 25061, Note_on_c, 0, 86, 97
1, 25062, Note_off_c, 0, 73, 65
1, 25065, Control_c, 0, 64, 18
1, 25068, Note_on_c, 0, 74, 95
1, 25070, Note_off_c, 0, 85, 65
1, 25080, Control_c, 0, 64, 0
1, 25091, Note_off_c, 0, 86, 70
1, 25101, Note_off_c, 0, 74, 69
1, 25218, Note_on_c, 0, 81, 94
1, 25219, Note_on_c, 0, 69, 77
1, 25241, Note_off_c, 0, 81, 66
1, 25267, Note_off_c, 0, 69, 62
1, 25361, Note_on_c, 0, 78, 101
1, 25362, Note_on_c, 0, 66, 80
1, 25382, Note_off_c, 0, 66, 71
1, 25394, Note_off_c, 0, 78, 66
1, 25508, Note_on_c, 0, 74, 90
1, 25509, Note_on_c, 0, 62, 84
1, 25530, Note_off_c, 0, 74, 68
1, 25540, Note_off_c, 0, 62, 66
1, 25660, Note_on_c, 0, 57, 81
1, 25662, Note_on_c, 0, 69, 90
1, 25687, Note_off_c, 0, 69, 75
1, 25690, Note_off_c, 0, 57, 69
1, 25821, Note_on_c, 0, 54, 78
1, 25823, Note_on_c, 0, 66, 94
1, 25843, Note_off_c, 0, 66, 67
1, 25847, Note_off_c, 0, 54, 67
1, 25980, Note_on_c, 0, 62, 76
1, 25986, Note_on_c, 0, 50, 69
1, 26330, Note_off_c, 0, 50, 63
1, 26346, Note_off_c, 0, 62, 60
1, 26361, Control_c, 0, 67, 9
1, 26376, Control_c, 0, 67, 11
1, 26391, Control_c, 0, 67, 16
1, 26406, Control_c, 0, 67, 22
1, 26421, Control_c, 0, 67, 32
1, 26442, Control_c, 0, 67, 43
1, 26457, Control_c, 0, 67, 57
1, 26472, Control_c, 0, 67, 71
1, 26487, Control_c, 0, 67, 88
1, 26502, Control_c, 0, 67, 105
1, 26516, Control_c, 0, 67, 122
1, 26531, Control_c, 0, 67, 127
1, 26608, Control_c, 0, 64, 16
1, 26622, Control_c, 0, 64, 23
1, 26637, Control_c, 0, 64, 27
1, 26652, Control_c, 0, 64, 31
1, 26666, Control_c, 0, 64, 35
1, 26681, Control_c, 0, 64, 38
1, 26696, Control_c, 0, 64, 42
1, 26711, Control_c, 0, 64, 45
1, 26726, Control_c, 0, 64, 47
1, 26740, Control_c, 0, 64, 49
1, 26755, Control_c, 0, 64, 50
1, 26770, Control_c, 0, 64, 52
1, 26785, Control_c, 0, 64, 55
1, 26800, Control_c, 0, 64, 57
1, 26814, Control_c, 0, 64, 59
1, 26829, Control_c, 0, 64, 60
1, 26844, Control_c, 0, 64, 61
1, 26859, Control_c, 0, 64, 63
1, 26874, Control_c, 0, 64, 64
1, 26889, Control_c, 0, 64, 66
1, 26904, Control_c, 0, 64, 68
1, 26919, Control_c, 0, 64, 70
1, 26933, Control_c, 0, 64, 72
1, 26948, Control_c, 0, 64, 74
1, 26963, Control_c, 0, 64, 77
1, 26978, Control_c, 0, 64, 81
1, 26993, Control_c, 0, 64, 83
1, 27007, Control_c, 0, 64, 86
1, 27022, Control_c, 0, 64, 90
1, 27037, Control_c, 0, 64, 94
1, 27052, Control_c, 0, 64, 99
1, 27066, Control_c, 0, 64, 106
1, 27081, Control_c, 0, 64, 114
1, 27096, Control_c, 0, 64, 127
1, 27201, Note_on_c, 0, 31, 33
1, 27222, Note_on_c, 0, 43, 40
1, 27317, Note_off_c, 0, 43, 35
1, 27331, Note_off_c, 0, 31, 34
1, 27372, Note_on_c, 0, 74, 41
1, 27382, Note_on_c, 0, 71, 33
1, 27509, Note_off_c, 0, 71, 55
1, 27527, Note_on_c, 0, 72, 62
1, 27534, Note_off_c, 0, 74, 51
1, 27550, Note_on_c, 0, 69, 54
1, 27593, Control_c, 0, 64, 97
1, 27607, Control_c, 0, 64, 75
1, 27622, Control_c, 0, 64, 48
1, 27637, Control_c, 0, 64, 0
1, 27672, Note_off_c, 0, 69, 64
1, 27676, Note_on_c, 0, 71, 65
1, 27676, Note_off_c, 0, 72, 63
1, 27689, Note_on_c, 0, 67, 63
1, 27697, Control_c, 0, 64, 46
1, 27712, Control_c, 0, 64, 63
1, 27719, Note_off_c, 0, 67, 66
1, 27722, Note_off_c, 0, 71, 66
1, 27727, Control_c, 0, 64, 70
1, 27741, Control_c, 0, 64, 80
1, 27756, Control_c, 0, 64, 89
1, 27771, Control_c, 0, 64, 95
1, 27786, Control_c, 0, 64, 99
1, 27801, Control_c, 0, 64, 102
1, 27815, Control_c, 0, 64, 106
1, 27830, Control_c, 0, 64, 112
1, 27831, Note_on_c, 0, 83, 72
1, 27845, Control_c, 0, 64, 122
1, 27855, Note_on_c, 0, 74, 38
1, 27860, Control_c, 0, 64, 127
1, 27956, Control_c, 0, 67, 126
1, 27971, Control_c, 0, 67, 123
1, 27986, Control_c, 0, 67, 119
1, 28000, Note_on_c, 0, 79, 73
1, 28001, Control_c, 0, 64, 111
1, 28001, Control_c, 0, 67, 113
1, 28004, Note_off_c, 0, 83, 56
1, 28006, Note_on_c, 0, 59, 50
1, 28007, Note_off_c, 0, 74, 50
1, 28008, Note_on_c, 0, 55, 46
1, 28013, Note_on_c, 0, 71, 59
1, 28015, Control_c, 0, 64, 86
1, 28015, Control_c, 0, 67, 105
1, 28030, Control_c, 0, 64, 69
1, 28030, Control_c, 0, 67, 95
1, 28035, Note_off_c, 0, 71, 62
1, 28045, Control_c, 0, 64, 65
1, 28045, Control_c, 0, 67, 81
1, 28060, Control_c, 0, 64, 70
1, 28060, Control_c, 0, 67, 65
1, 28075, Control_c, 0, 64, 82
1, 28075, Control_c, 0, 67, 49
1, 28089, Control_c, 0, 64, 103
1, 28089, Control_c, 0, 67, 35
1, 28104, Control_c, 0, 64, 127
1, 28104, Control_c, 0, 67, 28
1, 28119, Control_c, 0, 67, 22
1, 28120, Note_off_c, 0, 59, 60
1, 28128, Note_off_c, 0, 55, 48
1, 28134, Control_c, 0, 67, 18
1, 28149, Control_c, 0, 67, 15
1, 28159, Note_on_c, 0, 57, 50
1, 28165, Note_on_c, 0, 69, 62
1, 28165, Control_c, 0, 64, 109
1, 28165, Control_c, 0, 67, 12
1, 28167, Note_off_c, 0, 79, 60
1, 28168, Note_on_c, 0, 78, 72
1, 28174, Note_on_c, 0, 60, 48
1, 28179, Control_c, 0, 64, 84
1, 28179, Control_c, 0, 67, 10
1, 28192, Note_off_c, 0, 69, 66
1, 28194, Control_c, 0, 64, 68
1, 28194, Control_c, 0, 67, 9
1, 28209, Control_c, 0, 64, 60
1, 28209, Control_c, 0, 67, 8
1, 28224, Control_c, 0, 64, 63
1, 28224, Control_c, 0, 67, 8
1, 28227, Note_off_c, 0, 78, 64
1, 28238, Control_c, 0, 64, 68
1, 28253, Control_c, 0, 64, 76
1, 28259, Note_off_c, 0, 60, 51
1, 28260, Note_off_c, 0, 57, 55
1, 28268, Control_c, 0, 64, 89
1, 28283, Control_c, 0, 64, 106
1, 28283, Control_c, 0, 67, 0
1, 28298, Control_c, 0, 64, 127
1, 28324, Note_on_c, 0, 84, 65
1, 28327, Note_on_c, 0, 81, 64
1, 28401, Control_c, 0, 64, 83
1, 28416, Control_c, 0, 64, 62
1, 28430, Control_c, 0, 64, 0
1, 28472, Note_on_c, 0, 83, 74
1, 28472, Note_off_c, 0, 84, 64
1, 28475, Control_c, 0, 64, 46
1, 28477, Note_off_c, 0, 81, 66
1, 28478, Note_on_c, 0, 79, 73
1, 28490, Control_c, 0, 64, 65
1, 28505, Control_c, 0, 64, 74
1, 28519, Control_c, 0, 64, 87
1, 28530, Note_off_c, 0, 83, 63
1, 28534, Control_c, 0, 64, 104
1, 28549, Control_c, 0, 64, 127
1, 28628, Note_on_c, 0, 78, 83
1, 28629, Note_on_c, 0, 81, 77
1, 28641, Note_off_c, 0, 79, 60
1, 28670, Note_off_c, 0, 78, 61
1, 28685, Note_off_c, 0, 81, 65
1, 28779, Control_c, 0, 64, 101
1, 28789, Note_on_c, 0, 88, 76
1, 28794, Note_on_c, 0, 84, 59
1, 28794, Control_c, 0, 64, 78
1, 28797, Note_on_c, 0, 66, 53
1, 28809, Control_c, 0, 64, 61
1, 28819, Note_off_c, 0, 84, 57
1, 28821, Note_on_c, 0, 62, 56
1, 28824, Note_off_c, 0, 66, 59
1, 28824, Control_c, 0, 64, 45
1, 28838, Control_c, 0, 64, 52
1, 28853, Control_c, 0, 64, 61
1, 28868, Control_c, 0, 64, 66
1, 28883, Control_c, 0, 64, 75
1, 28898, Control_c, 0, 64, 86
1, 28912, Control_c, 0, 64, 97
1, 28927, Control_c, 0, 64, 106
1, 28937, Note_on_c, 0, 84, 66
1, 28942, Control_c, 0, 64, 114
1, 28943, Note_on_c, 0, 66, 51
1, 28944, Note_on_c, 0, 81, 68
1, 28958, Control_c, 0, 64, 127
1, 28962, Note_on_c, 0, 69, 53
1, 28967, Note_off_c, 0, 62, 46
1, 29015, Note_off_c, 0, 88, 51
1, 29085, Note_off_c, 0, 69, 64
1, 29087, Note_off_c, 0, 66, 57
1, 29091, Control_c, 0, 64, 105
1, 29092, Note_off_c, 0, 81, 62
1, 29099, Note_on_c, 0, 71, 51
1, 29104, Note_on_c, 0, 79, 60
1, 29106, Note_on_c, 0, 83, 66
1, 29106, Control_c, 0, 64, 79
1, 29111, Note_on_c, 0, 67, 57
1, 29113, Note_off_c, 0, 84, 62
1, 29121, Control_c, 0, 64, 55
1, 29135, Control_c, 0, 64, 0
1, 29209, Control_c, 0, 64, 50
1, 29224, Control_c, 0, 64, 63
1, 29229, Note_off_c, 0, 71, 60
1, 29239, Control_c, 0, 64, 69
1, 29253, Control_c, 0, 64, 77
1, 29255, Note_on_c, 0, 86, 85
1, 29262, Note_off_c, 0, 83, 63
1, 29268, Control_c, 0, 64, 84
1, 29269, Note_off_c, 0, 67, 61
1, 29272, Note_off_c, 0, 79, 61
1, 29283, Control_c, 0, 64, 87
1, 29298, Control_c, 0, 64, 89
1, 29313, Control_c, 0, 64, 89
1, 29421, Note_on_c, 0, 74, 49
1, 29454, Note_off_c, 0, 74, 58
1, 29509, Note_on_c, 0, 71, 5
1, 29564, Note_off_c, 0, 71, 45
1, 29572, Note_on_c, 0, 76, 69
1, 29576, Note_on_c, 0, 72, 48
1, 29705, Control_c, 0, 64, 89
1, 29706, Note_off_c, 0, 86, 57
1, 29708, Note_off_c, 0, 72, 59
1, 29718, Note_on_c, 0, 80, 70
1, 29727, Note_on_c, 0, 71, 52
1, 29734, Control_c, 0, 64, 88
1, 29825, Control_c, 0, 64, 88
1, 29839, Control_c, 0, 64, 87
1, 29854, Control_c, 0, 64, 86
1, 29857, Note_off_c, 0, 80, 60
1, 29869, Control_c, 0, 64, 85
1, 29872, Note_off_c, 0, 71, 62
1, 29881, Note_on_c, 0, 69, 57
1, 29883, Control_c, 0, 64, 84
1, 29884, Note_on_c, 0, 84, 78
1, 29898, Control_c, 0, 64, 83
1, 29913, Control_c, 0, 64, 82
1, 29928, Control_c, 0, 64, 80
1, 29943, Control_c, 0, 64, 78
1, 29957, Control_c, 0, 64, 76
1, 29959, Note_off_c, 0, 76, 59
1, 29960, Poly_aftertouch_c, 0, 81, 0
1, 29972, Control_c, 0, 64, 74
1, 29987, Control_c, 0, 64, 72
1, 30001, Control_c, 0, 64, 70
1, 30002, Note_off_c, 0, 69, 63
1, 30016, Control_c, 0, 64, 68
1, 30031, Control_c, 0, 64, 67
1, 30046, Note_on_c, 0, 67, 47
1, 30046, Control_c, 0, 64, 67
1, 30046, Control_c, 0, 67, 9
1, 30053, Note_on_c, 0, 75, 59
1, 30061, Control_c, 0, 64, 66
1, 30061, Control_c, 0, 67, 11
1, 30076, Control_c, 0, 64, 65
1, 30076, Control_c, 0, 67, 14
1, 30090, Control_c, 0, 64, 64
1, 30090, Control_c, 0, 67, 17
1, 30105, Control_c, 0, 64, 61
1, 30105, Control_c, 0, 67, 23
1, 30120, Control_c, 0, 64, 56
1, 30120, Control_c, 0, 67, 32
1, 30135, Control_c, 0, 64, 49
1, 30135, Control_c, 0, 67, 43
1, 30150, Control_c, 0, 64, 30
1, 30150, Control_c, 0, 67, 56
1, 30157, Note_off_c, 0, 75, 63
1, 30163, Note_off_c, 0, 67, 61
1, 30165, Control_c, 0, 64, 0
1, 30165, Control_c, 0, 67, 70
1, 30187, Control_c, 0, 67, 80
1, 30199, Note_on_c, 0, 74, 50
1, 30201, Note_on_c, 0, 66, 48
1, 30202, Control_c, 0, 67, 88
1, 30216, Control_c, 0, 67, 94
1, 30231, Control_c, 0, 67, 96
1, 30276, Control_c, 0, 67, 96
1, 30290, Control_c, 0, 67, 94
1, 30305, Control_c, 0, 64, 30
1, 30305, Control_c, 0, 67, 92
1, 30320, Control_c, 0, 64, 55
1, 30320, Control_c, 0, 67, 90
1, 30333, Note_off_c, 0, 66, 63
1, 30335, Control_c, 0, 64, 63
1, 30335, Control_c, 0, 67, 89
1, 30350, Control_c, 0, 64, 68
1, 30350, Control_c, 0, 67, 88
1, 30361, Note_on_c, 0, 67, 57
1, 30365, Control_c, 0, 64, 75
1, 30365, Control_c, 0, 67, 87
1, 30365, Note_on_c, 0, 83, 73
1, 30375, Note_off_c, 0, 74, 64
1, 30380, Control_c, 0, 64, 85
1, 30382, Note_off_c, 0, 67, 62
1, 30394, Control_c, 0, 64, 99
1, 30394, Control_c, 0, 67, 86
1, 30409, Control_c, 0, 64, 115
1, 30424, Control_c, 0, 64, 127
1, 30464, Note_off_c, 0, 84, 32
1, 30483, Control_c, 0, 67, 86
1, 30498, Control_c, 0, 67, 85
1, 30513, Control_c, 0, 67, 85
1, 30526, Note_on_c, 0, 72, 55
1, 30526, Note_on_c, 0, 81, 74
1, 30528, Control_c, 0, 64, 105
1, 30528, Control_c, 0, 67, 84
1, 30530, Note_on_c, 0, 60, 47
1, 30537, Note_off_c, 0, 83, 61
1, 30543, Note_on_c, 0, 76, 51
1, 30543, Control_c, 0, 64, 82
1, 30543, Control_c, 0, 67, 81
1, 30558, Control_c, 0, 64, 65
1, 30558, Control_c, 0, 67, 78
1, 30569, Note_off_c, 0, 72, 62
1, 30573, Control_c, 0, 64, 53
1, 30573, Control_c, 0, 67, 74
1, 30581, Note_off_c, 0, 76, 54
1, 30588, Control_c, 0, 64, 57
1, 30588, Control_c, 0, 67, 70
1, 30603, Control_c, 0, 64, 63
1, 30603, Control_c, 0, 67, 65
1, 30618, Control_c, 0, 64, 68
1, 30618, Control_c, 0, 67, 60
1, 30632, Control_c, 0, 64, 76
1, 30632, Control_c, 0, 67, 56
1, 30647, Control_c, 0, 64, 86
1, 30647, Control_c, 0, 67, 53
1, 30662, Control_c, 0, 64, 96
1, 30662, Control_c, 0, 67, 50
1, 30669, Note_on_c, 0, 83, 84
1, 30677, Control_c, 0, 64, 106
1, 30677, Control_c, 0, 67, 47
1, 30684, Note_off_c, 0, 81, 62
1, 30687, Note_on_c, 0, 71, 52
1, 30691, Note_on_c, 0, 74, 68
1, 30692, Control_c, 0, 64, 120
1, 30692, Control_c, 0, 67, 44
1, 30706, Control_c, 0, 64, 127
1, 30706, Control_c, 0, 67, 41
1, 30716, Note_off_c, 0, 74, 66
1, 30721, Control_c, 0, 67, 38
1, 30736, Control_c, 0, 67, 34
1, 30751, Control_c, 0, 67, 30
1, 30766, Control_c, 0, 67, 28
1, 30780, Control_c, 0, 67, 26
1, 30795, Control_c, 0, 67, 25
1, 30810, Control_c, 0, 67, 24
1, 30818, Note_on_c, 0, 84, 84
1, 30821, Note_off_c, 0, 60, 54
1, 30824, Note_on_c, 0, 69, 60
1, 30824, Note_off_c, 0, 71, 63
1, 30824, Control_c, 0, 67, 22
1, 30838, Note_on_c, 0, 72, 65
1, 30839, Control_c, 0, 67, 21
1, 30846, Note_off_c, 0, 83, 63
1, 30854, Control_c, 0, 67, 20
1, 30858, Note_off_c, 0, 69, 66
1, 30869, Control_c, 0, 67, 20
1, 30871, Note_off_c, 0, 72, 63
1, 30880, Note_off_c, 0, 84, 62
1, 30884, Control_c, 0, 67, 19
1, 30913, Control_c, 0, 67, 19
1, 31010, Control_c, 0, 64, 113
1, 31015, Note_on_c, 0, 79, 69
1, 31025, Control_c, 0, 64, 90
1, 31032, Note_on_c, 0, 74, 48
1, 31035, Note_on_c, 0, 62, 38
1, 31037, Note_on_c, 0, 71, 43
1, 31039, Control_c, 0, 64, 72
1, 31039, Control_c, 0, 67, 19
1, 31054, Control_c, 0, 64, 50
1, 31069, Control_c, 0, 64, 0
1, 31069, Control_c, 0, 67, 20
1, 31084, Control_c, 0, 67, 21
1, 31099, Control_c, 0, 67, 22
1, 31113, Control_c, 0, 67, 23
1, 31128, Control_c, 0, 67, 24
1, 31143, Control_c, 0, 67, 25
1, 31158, Control_c, 0, 67, 26
1, 31173, Control_c, 0, 67, 27
1, 31187, Control_c, 0, 67, 28
1, 31202, Control_c, 0, 67, 29
1, 31217, Control_c, 0, 64, 38
1, 31217, Control_c, 0, 67, 31
1, 31232, Control_c, 0, 64, 55
1, 31232, Control_c, 0, 67, 34
1, 31247, Control_c, 0, 64, 62
1, 31247, Control_c, 0, 67, 38
1, 31262, Control_c, 0, 64, 67
1, 31262, Control_c, 0, 67, 44
1, 31277, Control_c, 0, 64, 72
1, 31277, Control_c, 0, 67, 52
1, 31292, Control_c, 0, 64, 78
1, 31292, Control_c, 0, 67, 59
1, 31306, Control_c, 0, 64, 82
1, 31306, Control_c, 0, 67, 65
1, 31321, Control_c, 0, 64, 84
1, 31321, Control_c, 0, 67, 71
1, 31336, Control_c, 0, 64, 86
1, 31336, Control_c, 0, 67, 77
1, 31351, Control_c, 0, 64, 87
1, 31351, Control_c, 0, 67, 83
1, 31366, Control_c, 0, 64, 88
1, 31366, Control_c, 0, 67, 89
1, 31381, Control_c, 0, 64, 89
1, 31381, Control_c, 0, 67, 95
1, 31396, Control_c, 0, 67, 99
1, 31411, Control_c, 0, 67, 104
1, 31426, Control_c, 0, 67, 108
1, 31441, Control_c, 0, 67, 113
1, 31455, Control_c, 0, 67, 116
1, 31470, Control_c, 0, 64, 88
1, 31470, Control_c, 0, 67, 121
1, 31485, Control_c, 0, 64, 87
1, 31485, Control_c, 0, 67, 124
1, 31497, Note_on_c, 0, 72, 43
1, 31498, Note_on_c, 0, 69, 43
1, 31500, Control_c, 0, 64, 86
1, 31500, Control_c, 0, 67, 127
1, 31514, Note_off_c, 0, 74, 47
1, 31515, Control_c, 0, 64, 84
1, 31529, Control_c, 0, 64, 82
1, 31544, Control_c, 0, 64, 79
1, 31551, Note_off_c, 0, 71, 32
1, 31559, Control_c, 0, 64, 76
1, 31574, Control_c, 0, 64, 71
1, 31589, Control_c, 0, 64, 67
1, 31603, Control_c, 0, 64, 62
1, 31618, Control_c, 0, 64, 56
1, 31633, Control_c, 0, 64, 51
1, 31647, Control_c, 0, 64, 49
1, 31660, Note_on_c, 0, 81, 53
1, 31662, Control_c, 0, 64, 47
1, 31664, Note_off_c, 0, 79, 58
1, 31685, Control_c, 0, 64, 44
1, 31700, Control_c, 0, 64, 40
1, 31715, Control_c, 0, 64, 36
1, 31729, Control_c, 0, 64, 33
1, 31744, Control_c, 0, 64, 32
1, 31774, Control_c, 0, 64, 32
1, 31789, Control_c, 0, 64, 31
1, 31795, Note_off_c, 0, 72, 63
1, 31821, Note_on_c, 0, 78, 46
1, 31833, Control_c, 0, 64, 30
1, 31848, Control_c, 0, 64, 30
1, 31862, Control_c, 0, 64, 29
1, 31951, Control_c, 0, 64, 29
1, 31980, Control_c, 0, 64, 28
1, 31981, Note_off_c, 0, 81, 54
1, 31995, Control_c, 0, 64, 28
1, 32001, Note_off_c, 0, 78, 48
1, 32010, Control_c, 0, 64, 27
1, 32013, Note_on_c, 0, 79, 40
1, 32020, Note_on_c, 0, 67, 32
1, 32025, Control_c, 0, 64, 27
1, 32033, Note_on_c, 0, 71, 17
1, 32068, Note_off_c, 0, 62, 40
1, 32085, Control_c, 0, 64, 26
1, 32129, Note_off_c, 0, 69, 43
1, 32357, Note_off_c, 0, 79, 35
1, 32368, Note_off_c, 0, 67, 44
1, 32397, Control_c, 0, 64, 27
1, 32411, Control_c, 0, 64, 28
1, 32419, Note_off_c, 0, 71, 43
1, 32433, Control_c, 0, 64, 28
1, 32448, Control_c, 0, 64, 29
1, 32463, Control_c, 0, 64, 29
1, 32508, Control_c, 0, 64, 30
1, 32523, Control_c, 0, 64, 30
1, 32537, Control_c, 0, 64, 31
1, 32551, Control_c, 0, 64, 31
1, 32581, Control_c, 0, 64, 32
1, 32596, Control_c, 0, 64, 32
1, 32610, Control_c, 0, 64, 33
1, 32625, Control_c, 0, 64, 33
1, 32640, Control_c, 0, 64, 34
1, 32670, Control_c, 0, 64, 35
1, 32684, Control_c, 0, 64, 35
1, 32714, Control_c, 0, 64, 36
1, 32758, Control_c, 0, 64, 37
1, 32773, Control_c, 0, 64, 37
1, 32803, Control_c, 0, 64, 38
1, 32818, Control_c, 0, 64, 38
1, 32892, Control_c, 0, 64, 39
1, 32922, Control_c, 0, 64, 39
1, 33012, Control_c, 0, 64, 40
1, 33041, Control_c, 0, 64, 40
1, 33056, Control_c, 0, 64, 41
1, 33071, Control_c, 0, 64, 41
1, 33086, Control_c, 0, 64, 42
1, 33100, Control_c, 0, 64, 43
1, 33115, Control_c, 0, 64, 45
1, 33130, Control_c, 0, 64, 47
1, 33145, Control_c, 0, 64, 48
1, 33160, Control_c, 0, 64, 50
1, 33182, Control_c, 0, 64, 52
1, 33197, Control_c, 0, 64, 54
1, 33211, Control_c, 0, 64, 56
1, 33226, Control_c, 0, 64, 58
1, 33241, Control_c, 0, 64, 59
1, 33256, Control_c, 0, 64, 61
1, 33271, Control_c, 0, 64, 63
1, 33286, Control_c, 0, 64, 65
1, 33301, Control_c, 0, 64, 67
1, 33316, Control_c, 0, 64, 69
1, 33331, Control_c, 0, 64, 72
1, 33346, Control_c, 0, 64, 77
1, 33360, Control_c, 0, 64, 80
1, 33375, Control_c, 0, 64, 83
1, 33390, Control_c, 0, 64, 86
1, 33405, Control_c, 0, 64, 89
1, 33420, Control_c, 0, 64, 92
1, 33434, Control_c, 0, 64, 94
1, 33449, Control_c, 0, 64, 96
1, 33453, Note_on_c, 0, 31, 34
1, 33464, Control_c, 0, 64, 98
1, 33465, Note_on_c, 0, 43, 41
1, 33479, Control_c, 0, 64, 98
1, 33494, Control_c, 0, 64, 99
1, 33560, Note_off_c, 0, 31, 50
1, 33587, Note_off_c, 0, 43, 40
1, 33628, Note_on_c, 0, 74, 41
1, 33632, Note_on_c, 0, 71, 45
1, 33746, Control_c, 0, 64, 98
1, 33754, Note_off_c, 0, 71, 63
1, 33761, Control_c, 0, 64, 96
1, 33776, Control_c, 0, 64, 93
1, 33781, Note_on_c, 0, 72, 61
1, 33790, Note_on_c, 0, 69, 60
1, 33790, Control_c, 0, 64, 87
1, 33805, Note_off_c, 0, 74, 45
1, 33805, Control_c, 0, 64, 77
1, 33820, Control_c, 0, 64, 58
1, 33835, Control_c, 0, 64, 0
1, 33923, Note_off_c, 0, 69, 63
1, 33930, Note_off_c, 0, 72, 62
1, 33938, Note_on_c, 0, 71, 68
1, 33946, Control_c, 0, 64, 33
1, 33959, Note_on_c, 0, 67, 58
1, 33961, Control_c, 0, 64, 58
1, 33976, Control_c, 0, 64, 66
1, 33978, Note_off_c, 0, 71, 63
1, 33991, Note_off_c, 0, 67, 65
1, 33991, Control_c, 0, 64, 73
1, 34005, Control_c, 0, 64, 84
1, 34020, Control_c, 0, 64, 100
1, 34035, Control_c, 0, 64, 114
1, 34049, Control_c, 0, 64, 127
1, 34064, Control_c, 0, 67, 125
1, 34079, Control_c, 0, 67, 122
1, 34088, Note_on_c, 0, 83, 72
1, 34094, Control_c, 0, 67, 119
1, 34108, Note_on_c, 0, 74, 50
1, 34109, Control_c, 0, 67, 115
1, 34124, Control_c, 0, 67, 111
1, 34138, Control_c, 0, 67, 108
1, 34153, Control_c, 0, 67, 104
1, 34168, Control_c, 0, 67, 100
1, 34183, Control_c, 0, 67, 97
1, 34198, Control_c, 0, 67, 93
1, 34213, Control_c, 0, 67, 89
1, 34228, Control_c, 0, 67, 83
1, 34243, Control_c, 0, 64, 86
1, 34243, Control_c, 0, 67, 76
1, 34244, Note_off_c, 0, 74, 64
1, 34246, Note_on_c, 0, 79, 75
1, 34247, Note_on_c, 0, 59, 50
1, 34252, Note_on_c, 0, 71, 63
1, 34257, Control_c, 0, 64, 65
1, 34257, Control_c, 0, 67, 67
1, 34258, Note_on_c, 0, 55, 43
1, 34266, Note_off_c, 0, 83, 54
1, 34272, Control_c, 0, 64, 38
1, 34272, Control_c, 0, 67, 54
1, 34285, Note_off_c, 0, 71, 68
1, 34287, Control_c, 0, 64, 51
1, 34287, Control_c, 0, 67, 41
1, 34302, Control_c, 0, 64, 66
1, 34302, Control_c, 0, 67, 28
1, 34317, Control_c, 0, 64, 77
1, 34317, Control_c, 0, 67, 17
1, 34331, Control_c, 0, 64, 99
1, 34331, Control_c, 0, 67, 8
1, 34346, Control_c, 0, 64, 127
1, 34346, Control_c, 0, 67, 0
1, 34366, Note_off_c, 0, 59, 58
1, 34393, Note_off_c, 0, 55, 44
1, 34398, Note_on_c, 0, 69, 73
1, 34401, Note_on_c, 0, 78, 77
1, 34402, Note_on_c, 0, 57, 49
1, 34409, Note_off_c, 0, 79, 61
1, 34411, Note_on_c, 0, 60, 54
1, 34432, Note_off_c, 0, 69, 62
1, 34435, Control_c, 0, 64, 96
1, 34449, Control_c, 0, 64, 71
1, 34464, Control_c, 0, 64, 49
1, 34469, Note_off_c, 0, 78, 64
1, 34479, Control_c, 0, 64, 52
1, 34494, Control_c, 0, 64, 64
1, 34509, Control_c, 0, 64, 75
1, 34523, Note_off_c, 0, 57, 57
1, 34523, Control_c, 0, 64, 92
1, 34526, Note_off_c, 0, 60, 57
1, 34538, Control_c, 0, 64, 127
1, 34561, Note_on_c, 0, 81, 71
1, 34562, Note_on_c, 0, 84, 70
1, 34628, Control_c, 0, 64, 96
1, 34643, Control_c, 0, 64, 70
1, 34658, Control_c, 0, 64, 0
1, 34713, Note_on_c, 0, 83, 74
1, 34718, Note_off_c, 0, 84, 64
1, 34720, Note_off_c, 0, 81, 66
1, 34721, Note_on_c, 0, 79, 80
1, 34740, Control_c, 0, 64, 48
1, 34754, Control_c, 0, 64, 66
1, 34769, Control_c, 0, 64, 77
1, 34770, Note_off_c, 0, 83, 63
1, 34784, Control_c, 0, 64, 99
1, 34798, Control_c, 0, 64, 127
1, 34870, Note_on_c, 0, 78, 84
1, 34871, Note_on_c, 0, 81, 79
1, 34887, Note_off_c, 0, 79, 61
1, 34914, Note_off_c, 0, 78, 61
1, 34919, Note_off_c, 0, 81, 65
1, 35019, Note_on_c, 0, 88, 80
1, 35021, Control_c, 0, 64, 116
1, 35021, Note_on_c, 0, 84, 64
1, 35035, Note_on_c, 0, 66, 48
1, 35036, Control_c, 0, 64, 86
1, 35042, Note_on_c, 0, 62, 59
1, 35051, Control_c, 0, 64, 66
1, 35059, Note_off_c, 0, 84, 55
1, 35060, Note_off_c, 0, 66, 59
1, 35066, Control_c, 0, 64, 38
1, 35080, Control_c, 0, 64, 45
1, 35095, Control_c, 0, 64, 56
1, 35110, Control_c, 0, 64, 63
1, 35125, Control_c, 0, 64, 69
1, 35140, Control_c, 0, 64, 78
1, 35154, Control_c, 0, 64, 93
1, 35169, Control_c, 0, 64, 101
1, 35173, Note_on_c, 0, 66, 49
1, 35173, Note_on_c, 0, 84, 73
1, 35182, Note_on_c, 0, 81, 72
1, 35184, Control_c, 0, 64, 103
1, 35192, Note_on_c, 0, 69, 60
1, 35198, Control_c, 0, 64, 105
1, 35213, Control_c, 0, 64, 109
1, 35228, Control_c, 0, 64, 114
1, 35243, Control_c, 0, 64, 127
1, 35252, Note_off_c, 0, 62, 34
1, 35259, Note_off_c, 0, 88, 53
1, 35323, Note_off_c, 0, 69, 64
1, 35332, Control_c, 0, 64, 116
1, 35334, Note_off_c, 0, 66, 52
1, 35340, Note_on_c, 0, 67, 63
1, 35342, Note_off_c, 0, 81, 59
1, 35345, Note_on_c, 0, 71, 50
1, 35346, Note_on_c, 0, 83, 69
1, 35347, Note_on_c, 0, 79, 61
1, 35348, Control_c, 0, 64, 91
1, 35363, Control_c, 0, 64, 69
1, 35368, Note_off_c, 0, 84, 62
1, 35377, Control_c, 0, 64, 0
1, 35474, Control_c, 0, 64, 53
1, 35483, Note_off_c, 0, 71, 61
1, 35489, Control_c, 0, 64, 64
1, 35503, Control_c, 0, 64, 70
1, 35505, Note_on_c, 0, 86, 81
1, 35516, Note_off_c, 0, 79, 61
1, 35518, Control_c, 0, 64, 78
1, 35524, Note_off_c, 0, 83, 60
1, 35533, Note_off_c, 0, 67, 61
1, 35533, Control_c, 0, 64, 86
1, 35548, Control_c, 0, 64, 90
1, 35563, Control_c, 0, 64, 92
1, 35577, Control_c, 0, 64, 93
1, 35657, Note_on_c, 0, 74, 51
1, 35664, Note_on_c, 0, 71, 49
1, 35680, Note_off_c, 0, 74, 59
1, 35740, Control_c, 0, 64, 93
1, 35755, Control_c, 0, 64, 92
1, 35769, Control_c, 0, 64, 91
1, 35781, Note_off_c, 0, 71, 63
1, 35784, Control_c, 0, 64, 91
1, 35799, Control_c, 0, 64, 90
1, 35808, Note_on_c, 0, 76, 65
1, 35814, Control_c, 0, 64, 89
1, 35821, Note_on_c, 0, 72, 54
1, 35829, Control_c, 0, 64, 88
1, 35844, Control_c, 0, 64, 87
1, 35858, Control_c, 0, 64, 86
1, 35873, Control_c, 0, 64, 86
1, 35888, Control_c, 0, 64, 85
1, 35903, Control_c, 0, 64, 85
1, 35918, Control_c, 0, 64, 84
1, 35933, Control_c, 0, 64, 83
1, 35945, Note_off_c, 0, 72, 57
1, 35948, Control_c, 0, 64, 83
1, 35949, Note_off_c, 0, 86, 53
1, 35954, Note_on_c, 0, 80, 68
1, 35963, Control_c, 0, 64, 82
1, 35969, Note_on_c, 0, 71, 56
1, 35977, Control_c, 0, 64, 81
1, 35992, Control_c, 0, 64, 80
1, 36007, Control_c, 0, 64, 79
1, 36021, Control_c, 0, 64, 78
1, 36021, Control_c, 0, 67, 8
1, 36036, Control_c, 0, 64, 77
1, 36036, Control_c, 0, 67, 9
1, 36051, Control_c, 0, 64, 76
1, 36051, Control_c, 0, 67, 11
1, 36066, Control_c, 0, 64, 75
1, 36066, Control_c, 0, 67, 12
1, 36081, Control_c, 0, 64, 73
1, 36081, Control_c, 0, 67, 13
1, 36090, Note_off_c, 0, 80, 61
1, 36095, Control_c, 0, 64, 72
1, 36095, Control_c, 0, 67, 14
1, 36104, Note_on_c, 0, 84, 69
1, 36110, Note_on_c, 0, 81, 51
1, 36110, Control_c, 0, 64, 71
1, 36110, Control_c, 0, 67, 14
1, 36123, Note_off_c, 0, 71, 63
1, 36125, Control_c, 0, 64, 70
1, 36125, Control_c, 0, 67, 15
1, 36129, Note_on_c, 0, 69, 59
1, 36130, Note_off_c, 0, 81, 65
1, 36141, Control_c, 0, 64, 70
1, 36141, Control_c, 0, 67, 17
1, 36156, Control_c, 0, 64, 69
1, 36156, Control_c, 0, 67, 19
1, 36178, Control_c, 0, 64, 68
1, 36178, Control_c, 0, 67, 20
1, 36193, Control_c, 0, 64, 67
1, 36193, Control_c, 0, 67, 22
1, 36207, Control_c, 0, 64, 67
1, 36207, Control_c, 0, 67, 25
1, 36222, Control_c, 0, 64, 66
1, 36222, Control_c, 0, 67, 29
1, 36237, Control_c, 0, 67, 33
1, 36240, Note_off_c, 0, 76, 54
1, 36246, Note_off_c, 0, 69, 63
1, 36252, Control_c, 0, 67, 38
1, 36267, Control_c, 0, 64, 66
1, 36267, Control_c, 0, 67, 45
1, 36275, Note_on_c, 0, 75, 54
1, 36282, Control_c, 0, 64, 65
1, 36282, Control_c, 0, 67, 51
1, 36285, Note_on_c, 0, 67, 52
1, 36297, Control_c, 0, 64, 64
1, 36297, Control_c, 0, 67, 57
1, 36312, Control_c, 0, 64, 64
1, 36312, Control_c, 0, 67, 62
1, 36326, Control_c, 0, 64, 63
1, 36326, Control_c, 0, 67, 67
1, 36341, Control_c, 0, 67, 73
1, 36356, Control_c, 0, 67, 79
1, 36371, Control_c, 0, 67, 84
1, 36384, Note_off_c, 0, 75, 62
1, 36386, Control_c, 0, 67, 87
1, 36395, Note_off_c, 0, 67, 59
1, 36400, Control_c, 0, 67, 89
1, 36415, Control_c, 0, 64, 63
1, 36415, Control_c, 0, 67, 91
1, 36421, Note_on_c, 0, 66, 52
1, 36421, Note_on_c, 0, 74, 49
1, 36430, Control_c, 0, 67, 92
1, 36444, Control_c, 0, 64, 61
1, 36444, Control_c, 0, 67, 94
1, 36459, Control_c, 0, 64, 58
1, 36459, Control_c, 0, 67, 96
1, 36474, Control_c, 0, 64, 54
1, 36474, Control_c, 0, 67, 97
1, 36489, Control_c, 0, 64, 51
1, 36489, Control_c, 0, 67, 100
1, 36504, Control_c, 0, 64, 49
1, 36504, Control_c, 0, 67, 102
1, 36518, Control_c, 0, 64, 48
1, 36518, Control_c, 0, 67, 104
1, 36533, Note_off_c, 0, 66, 56
1, 36533, Control_c, 0, 64, 46
1, 36533, Control_c, 0, 67, 106
1, 36548, Control_c, 0, 67, 107
1, 36563, Control_c, 0, 67, 108
1, 36577, Control_c, 0, 64, 47
1, 36580, Note_on_c, 0, 83, 71
1, 36583, Note_on_c, 0, 67, 41
1, 36592, Control_c, 0, 64, 49
1, 36606, Note_off_c, 0, 74, 65
1, 36607, Control_c, 0, 64, 51
1, 36622, Control_c, 0, 64, 52
1, 36637, Control_c, 0, 64, 55
1, 36651, Control_c, 0, 64, 57
1, 36651, Control_c, 0, 67, 107
1, 36666, Control_c, 0, 64, 58
1, 36666, Control_c, 0, 67, 107
1, 36681, Control_c, 0, 64, 59
1, 36681, Control_c, 0, 67, 106
1, 36696, Control_c, 0, 64, 60
1, 36696, Control_c, 0, 67, 105
1, 36704, Note_off_c, 0, 84, 38
1, 36711, Control_c, 0, 64, 61
1, 36726, Control_c, 0, 64, 61
1, 36726, Control_c, 0, 67, 105
1, 36736, Note_off_c, 0, 67, 50
1, 36741, Control_c, 0, 64, 62
1, 36745, Note_on_c, 0, 64, 42
1, 36747, Note_on_c, 0, 72, 57
1, 36756, Control_c, 0, 64, 62
1, 36830, Control_c, 0, 64, 59
1, 36844, Control_c, 0, 64, 50
1, 36844, Control_c, 0, 67, 106
1, 36859, Control_c, 0, 64, 0
1, 36859, Control_c, 0, 67, 106
1, 36874, Control_c, 0, 67, 107
1, 36881, Note_off_c, 0, 64, 62
1, 36889, Control_c, 0, 67, 107
1, 36890, Note_on_c, 0, 81, 75
1, 36897, Note_on_c, 0, 66, 56
1, 36904, Control_c, 0, 67, 108
1, 36926, Control_c, 0, 67, 109
1, 36941, Control_c, 0, 64, 26
1, 36941, Control_c, 0, 67, 109
1, 36944, Note_off_c, 0, 72, 63
1, 36956, Control_c, 0, 64, 53
1, 36956, Control_c, 0, 67, 113
1, 36958, Note_off_c, 0, 83, 54
1, 36971, Control_c, 0, 64, 63
1, 36971, Control_c, 0, 67, 117
1, 36986, Control_c, 0, 64, 66
1, 36986, Control_c, 0, 67, 122
1, 37000, Control_c, 0, 64, 70
1, 37000, Control_c, 0, 67, 124
1, 37015, Control_c, 0, 64, 75
1, 37015, Control_c, 0, 67, 126
1, 37030, Control_c, 0, 64, 81
1, 37030, Control_c, 0, 67, 127
1, 37032, Note_off_c, 0, 66, 62
1, 37035, Note_off_c, 0, 81, 60
1, 37042, Note_on_c, 0, 71, 68
1, 37045, Control_c, 0, 64, 86
1, 37051, Note_on_c, 0, 63, 55
1, 37060, Control_c, 0, 64, 90
1, 37075, Control_c, 0, 64, 94
1, 37090, Control_c, 0, 64, 98
1, 37104, Control_c, 0, 64, 103
1, 37119, Control_c, 0, 64, 108
1, 37134, Control_c, 0, 64, 113
1, 37149, Control_c, 0, 64, 115
1, 37164, Control_c, 0, 64, 114
1, 37174, Note_off_c, 0, 63, 60
1, 37179, Control_c, 0, 64, 99
1, 37187, Note_on_c, 0, 79, 70
1, 37193, Control_c, 0, 64, 82
1, 37199, Note_off_c, 0, 71, 59
1, 37206, Note_on_c, 0, 64, 53
1, 37208, Control_c, 0, 64, 66
1, 37223, Control_c, 0, 64, 56
1, 37238, Control_c, 0, 64, 62
1, 37253, Control_c, 0, 64, 66
1, 37256, Note_off_c, 0, 79, 60
1, 37267, Control_c, 0, 64, 70
1, 37282, Control_c, 0, 64, 76
1, 37297, Control_c, 0, 64, 82
1, 37312, Control_c, 0, 64, 83
1, 37328, Note_off_c, 0, 64, 58
1, 37340, Note_on_c, 0, 60, 52
1, 37342, Note_on_c, 0, 69, 64
1, 37343, Note_on_c, 0, 79, 66
1, 37384, Note_off_c, 0, 69, 59
1, 37391, Note_off_c, 0, 79, 56
1, 37400, Control_c, 0, 64, 83
1, 37415, Control_c, 0, 64, 82
1, 37430, Control_c, 0, 64, 82
1, 37445, Control_c, 0, 64, 81
1, 37460, Control_c, 0, 64, 80
1, 37474, Control_c, 0, 64, 78
1, 37483, Note_off_c, 0, 60, 56
1, 37486, Note_on_c, 0, 61, 62
1, 37489, Control_c, 0, 64, 76
1, 37491, Note_on_c, 0, 70, 71
1, 37491, Note_on_c, 0, 79, 78
1, 37504, Control_c, 0, 64, 73
1, 37504, Control_c, 0, 67, 126
1, 37519, Control_c, 0, 64, 71
1, 37519, Control_c, 0, 67, 124
1, 37534, Note_off_c, 0, 70, 64
1, 37534, Control_c, 0, 64, 70
1, 37534, Control_c, 0, 67, 122
1, 37549, Control_c, 0, 64, 68
1, 37549, Control_c, 0, 67, 119
1, 37564, Control_c, 0, 64, 67
1, 37564, Control_c, 0, 67, 115
1, 37572, Note_off_c, 0, 79, 62
1, 37578, Control_c, 0, 64, 65
1, 37578, Control_c, 0, 67, 111
1, 37593, Control_c, 0, 64, 64
1, 37593, Control_c, 0, 67, 106
1, 37608, Control_c, 0, 64, 63
1, 37608, Control_c, 0, 67, 98
1, 37623, Control_c, 0, 64, 62
1, 37623, Control_c, 0, 67, 89
1, 37637, Note_on_c, 0, 71, 83
1, 37638, Control_c, 0, 64, 61
1, 37638, Control_c, 0, 67, 78
1, 37638, Note_off_c, 0, 61, 62
1, 37640, Note_on_c, 0, 62, 61
1, 37647, Note_on_c, 0, 79, 72
1, 37653, Control_c, 0, 64, 61
1, 37653, Control_c, 0, 67, 67
1, 37674, Control_c, 0, 64, 60
1, 37674, Control_c, 0, 67, 58
1, 37689, Control_c, 0, 64, 59
1, 37689, Control_c, 0, 67, 50
1, 37695, Note_off_c, 0, 71, 64
1, 37704, Control_c, 0, 64, 58
1, 37704, Control_c, 0, 67, 43
1, 37718, Note_off_c, 0, 79, 61
1, 37719, Control_c, 0, 64, 57
1, 37719, Control_c, 0, 67, 38
1, 37733, Control_c, 0, 64, 55
1, 37733, Control_c, 0, 67, 33
1, 37750, Control_c, 0, 64, 54
1, 37750, Control_c, 0, 67, 28
1, 37765, Control_c, 0, 64, 53
1, 37765, Control_c, 0, 67, 24
1, 37779, Control_c, 0, 64, 53
1, 37779, Control_c, 0, 67, 21
1, 37789, Note_on_c, 0, 72, 84
1, 37794, Control_c, 0, 64, 52
1, 37794, Control_c, 0, 67, 19
1, 37797, Note_on_c, 0, 63, 66
1, 37800, Note_on_c, 0, 79, 69
1, 37809, Control_c, 0, 64, 51
1, 37809, Control_c, 0, 67, 17
1, 37820, Note_off_c, 0, 62, 56
1, 37823, Control_c, 0, 64, 51
1, 37823, Control_c, 0, 67, 15
1, 37838, Control_c, 0, 64, 50
1, 37838, Control_c, 0, 67, 12
1, 37849, Note_off_c, 0, 79, 57
1, 37853, Note_off_c, 0, 72, 61
1, 37853, Control_c, 0, 67, 9
1, 37868, Control_c, 0, 67, 0
1, 37883, Control_c, 0, 64, 50
1, 37912, Control_c, 0, 64, 49
1, 37943, Note_on_c, 0, 64, 65
1, 37943, Note_on_c, 0, 73, 79
1, 37950, Note_on_c, 0, 79, 75
1, 37950, Note_off_c, 0, 63, 58
1, 37987, Note_off_c, 0, 79, 62
1, 37999, Note_off_c, 0, 73, 58
1, 38076, Control_c, 0, 64, 49
1, 38090, Control_c, 0, 64, 46
1, 38105, Control_c, 0, 64, 36
1, 38107, Note_on_c, 0, 62, 53
1, 38107, Note_on_c, 0, 79, 72
1, 38115, Note_on_c, 0, 74, 68
1, 38115, Note_on_c, 0, 71, 58
1, 38120, Note_off_c, 0, 64, 61
1, 38120, Control_c, 0, 64, 0
1, 38283, Control_c, 0, 64, 22
1, 38297, Control_c, 0, 64, 53
1, 38312, Control_c, 0, 64, 64
1, 38327, Control_c, 0, 64, 70
1, 38342, Control_c, 0, 64, 78
1, 38356, Control_c, 0, 64, 90
1, 38371, Control_c, 0, 64, 105
1, 38386, Control_c, 0, 64, 127
1, 38479, Note_off_c, 0, 74, 64
1, 38494, Note_off_c, 0, 71, 58
1, 38652, Note_on_c, 0, 72, 58
1, 38667, Note_on_c, 0, 69, 43
1, 38691, Control_c, 0, 64, 104
1, 38706, Control_c, 0, 64, 85
1, 38720, Control_c, 0, 64, 67
1, 38735, Control_c, 0, 64, 16
1, 38750, Control_c, 0, 64, 0
1, 38798, Note_on_c, 0, 81, 64
1, 38805, Note_off_c, 0, 79, 58
1, 38824, Control_c, 0, 64, 48
1, 38839, Note_off_c, 0, 69, 61
1, 38839, Control_c, 0, 64, 64
1, 38854, Control_c, 0, 64, 74
1, 38869, Control_c, 0, 64, 85
1, 38884, Control_c, 0, 64, 95
1, 38897, Note_off_c, 0, 62, 62
1, 38899, Control_c, 0, 64, 102
1, 38914, Control_c, 0, 64, 107
1, 38928, Control_c, 0, 64, 113
1, 38938, Note_off_c, 0, 72, 57
1, 38943, Control_c, 0, 64, 123
1, 38948, Note_on_c, 0, 78, 77
1, 38952, Note_off_c, 0, 81, 63
1, 38958, Control_c, 0, 64, 127
1, 38984, Note_off_c, 0, 78, 62
1, 39076, Control_c, 0, 64, 95
1, 39091, Control_c, 0, 64, 69
1, 39094, Note_on_c, 0, 79, 72
1, 39106, Control_c, 0, 64, 0
1, 39111, Note_on_c, 0, 67, 44
1, 39117, Note_on_c, 0, 55, 41
1, 39122, Note_off_c, 0, 79, 62
1, 39173, Note_on_c, 0, 74, 67
1, 39224, Note_off_c, 0, 74, 66
1, 39254, Note_on_c, 0, 71, 58
1, 39254, Note_off_c, 0, 67, 62
1, 39258, Note_off_c, 0, 55, 60
1, 39275, Note_off_c, 0, 71, 64
1, 39277, Control_c, 0, 64, 18
1, 39292, Control_c, 0, 64, 24
1, 39307, Control_c, 0, 64, 27
1, 39321, Control_c, 0, 64, 30
1, 39327, Note_on_c, 0, 74, 63
1, 39336, Control_c, 0, 64, 33
1, 39352, Control_c, 0, 64, 36
1, 39361, Note_off_c, 0, 74, 66
1, 39367, Control_c, 0, 64, 38
1, 39382, Control_c, 0, 64, 38
1, 39385, Note_on_c, 0, 62, 55
1, 39388, Note_on_c, 0, 72, 67
1, 39388, Note_on_c, 0, 66, 54
1, 39396, Control_c, 0, 64, 39
1, 39408, Note_off_c, 0, 62, 60
1, 39411, Note_off_c, 0, 66, 61
1, 39415, Note_off_c, 0, 72, 68
1, 39447, Note_on_c, 0, 74, 63
1, 39456, Control_c, 0, 64, 38
1, 39470, Control_c, 0, 64, 37
1, 39485, Control_c, 0, 64, 32
1, 39489, Note_off_c, 0, 74, 62
1, 39500, Control_c, 0, 64, 0
1, 39528, Note_on_c, 0, 71, 65
1, 39543, Note_on_c, 0, 67, 57
1, 39548, Note_on_c, 0, 55, 46
1, 39569, Note_off_c, 0, 71, 56
1, 39602, Note_on_c, 0, 74, 70
1, 39654, Note_off_c, 0, 74, 61
1, 39685, Note_on_c, 0, 79, 77
1, 39694, Note_off_c, 0, 67, 63
1, 39702, Note_off_c, 0, 55, 56
1, 39716, Note_off_c, 0, 79, 57
1, 39758, Note_on_c, 0, 74, 64
1, 39784, Note_off_c, 0, 74, 68
1, 39826, Note_on_c, 0, 66, 63
1, 39826, Note_on_c, 0, 81, 76
1, 39830, Note_on_c, 0, 62, 61
1, 39854, Note_off_c, 0, 66, 67
1, 39861, Note_off_c, 0, 62, 64
1, 39862, Note_off_c, 0, 81, 67
1, 39899, Note_on_c, 0, 74, 65
1, 39945, Note_off_c, 0, 74, 64
1, 39989, Note_on_c, 0, 83, 85
1, 40002, Note_on_c, 0, 55, 50
1, 40003, Note_on_c, 0, 67, 46
1, 40038, Note_off_c, 0, 83, 58
1, 40065, Note_on_c, 0, 74, 67
1, 40070, Note_off_c, 0, 67, 0
1, 40070, Note_on_c, 0, 67, 17
1, 40115, Note_off_c, 0, 74, 66
1, 40137, Note_on_c, 0, 71, 65
1, 40152, Note_off_c, 0, 55, 60
1, 40155, Note_off_c, 0, 67, 60
1, 40166, Note_off_c, 0, 71, 68
1, 40215, Note_on_c, 0, 74, 63
1, 40260, Note_off_c, 0, 74, 64
1, 40279, Note_on_c, 0, 72, 67
1, 40284, Note_on_c, 0, 66, 60
1, 40288, Note_on_c, 0, 62, 54
1, 40307, Note_off_c, 0, 72, 66
1, 40309, Note_off_c, 0, 66, 65
1, 40312, Note_off_c, 0, 62, 60
1, 40351, Note_on_c, 0, 74, 60
1, 40390, Note_off_c, 0, 74, 63
1, 40424, Note_on_c, 0, 71, 64
1, 40442, Note_on_c, 0, 67, 56
1, 40451, Note_on_c, 0, 55, 44
1, 40466, Note_off_c, 0, 71, 56
1, 40500, Note_on_c, 0, 74, 67
1, 40546, Note_off_c, 0, 74, 57
1, 40586, Note_on_c, 0, 79, 72
1, 40595, Note_off_c, 0, 67, 62
1, 40602, Note_off_c, 0, 55, 57
1, 40611, Note_off_c, 0, 79, 65
1, 40664, Note_on_c, 0, 74, 64
1, 40690, Note_off_c, 0, 74, 67
1, 40731, Note_on_c, 0, 81, 75
1, 40738, Note_on_c, 0, 66, 63
1, 40744, Note_on_c, 0, 62, 59
1, 40767, Note_off_c, 0, 62, 62
1, 40767, Note_off_c, 0, 66, 68
1, 40776, Note_off_c, 0, 81, 64
1, 40816, Note_on_c, 0, 74, 59
1, 40852, Note_off_c, 0, 74, 65
1, 40898, Note_on_c, 0, 83, 80
1, 40905, Note_on_c, 0, 67, 59
1, 40907, Note_on_c, 0, 55, 56
1, 40942, Note_off_c, 0, 83, 59
1, 40977, Note_on_c, 0, 74, 71
1, 41028, Note_off_c, 0, 74, 66
1, 41056, Note_on_c, 0, 71, 60
1, 41067, Note_off_c, 0, 67, 62
1, 41069, Note_off_c, 0, 55, 61
1, 41075, Note_off_c, 0, 71, 64
1, 41126, Note_on_c, 0, 74, 59
1, 41164, Note_off_c, 0, 74, 65
1, 41188, Note_on_c, 0, 72, 62
1, 41188, Note_on_c, 0, 66, 62
1, 41204, Note_on_c, 0, 62, 43
1, 41218, Note_off_c, 0, 66, 67
1, 41219, Note_off_c, 0, 72, 67
1, 41232, Note_off_c, 0, 62, 56
1, 41260, Note_on_c, 0, 74, 62
1, 41295, Note_off_c, 0, 74, 65
1, 41340, Note_on_c, 0, 71, 56
1, 41346, Note_on_c, 0, 67, 54
1, 41352, Note_on_c, 0, 55, 47
1, 41380, Note_off_c, 0, 71, 60
1, 41414, Note_on_c, 0, 74, 65
1, 41471, Note_off_c, 0, 74, 58
1, 41488, Note_off_c, 0, 67, 62
1, 41503, Note_on_c, 0, 79, 67
1, 41504, Note_off_c, 0, 55, 60
1, 41531, Note_off_c, 0, 79, 64
1, 41572, Note_on_c, 0, 74, 64
1, 41599, Note_off_c, 0, 74, 67
1, 41626, Control_c, 0, 67, 8
1, 41636, Note_on_c, 0, 81, 70
1, 41638, Note_on_c, 0, 66, 52
1, 41640, Control_c, 0, 67, 10
1, 41642, Note_on_c, 0, 62, 53
1, 41655, Control_c, 0, 67, 13
1, 41662, Note_off_c, 0, 66, 63
1, 41665, Note_off_c, 0, 81, 64
1, 41670, Control_c, 0, 67, 18
1, 41671, Note_off_c, 0, 62, 63
1, 41685, Control_c, 0, 67, 24
1, 41700, Control_c, 0, 67, 35
1, 41708, Note_on_c, 0, 74, 50
1, 41714, Control_c, 0, 67, 49
1, 41729, Control_c, 0, 67, 64
1, 41745, Control_c, 0, 67, 77
1, 41746, Note_off_c, 0, 74, 64
1, 41760, Control_c, 0, 67, 84
1, 41775, Control_c, 0, 67, 90
1, 41782, Note_on_c, 0, 83, 67
1, 41789, Control_c, 0, 67, 95
1, 41799, Note_off_c, 0, 83, 66
1, 41804, Control_c, 0, 67, 99
1, 41806, Note_on_c, 0, 67, 39
1, 41808, Note_on_c, 0, 55, 35
1, 41819, Control_c, 0, 67, 102
1, 41834, Control_c, 0, 67, 105
1, 41849, Control_c, 0, 67, 106
1, 41863, Control_c, 0, 67, 107
1, 41939, Note_on_c, 0, 83, 57
1, 41948, Note_on_c, 0, 79, 56
1, 41955, Note_off_c, 0, 55, 52
1, 41964, Note_off_c, 0, 67, 59
1, 41970, Note_off_c, 0, 79, 63
1, 41976, Note_off_c, 0, 83, 63
1, 42071, Control_c, 0, 67, 106
1, 42086, Control_c, 0, 67, 106
1, 42095, Note_on_c, 0, 83, 55
1, 42097, Note_on_c, 0, 86, 55
1, 42115, Control_c, 0, 67, 105
1, 42127, Note_off_c, 0, 86, 52
1, 42128, Note_off_c, 0, 83, 64
1, 42267, Note_on_c, 0, 83, 50
1, 42285, Control_c, 0, 67, 106
1, 42293, Note_on_c, 0, 79, 40
1, 42300, Control_c, 0, 67, 106
1, 42315, Control_c, 0, 67, 107
1, 42330, Control_c, 0, 67, 107
1, 42345, Control_c, 0, 67, 108
1, 42360, Control_c, 0, 67, 109
1, 42375, Control_c, 0, 67, 111
1, 42388, Note_off_c, 0, 83, 58
1, 42389, Control_c, 0, 67, 117
1, 42397, Note_off_c, 0, 79, 49
1, 42404, Control_c, 0, 67, 123
1, 42419, Control_c, 0, 67, 127
1, 42763, Note_on_c, 0, 40, 47
1, 42792, Note_off_c, 0, 40, 52
1, 42898, Note_on_c, 0, 44, 53
1, 42933, Note_off_c, 0, 44, 58
1, 43051, Note_on_c, 0, 47, 53
1, 43076, Note_off_c, 0, 47, 58
1, 43203, Note_on_c, 0, 52, 47
1, 43232, Note_off_c, 0, 52, 56
1, 43353, Note_on_c, 0, 64, 54
1, 43361, Note_on_c, 0, 56, 47
1, 43496, Note_on_c, 0, 62, 62
1, 43519, Note_on_c, 0, 59, 50
1, 43519, Note_off_c, 0, 56, 62
1, 43553, Note_off_c, 0, 64, 30
1, 43634, Note_off_c, 0, 59, 59
1, 43648, Note_on_c, 0, 60, 61
1, 43649, Note_on_c, 0, 57, 57
1, 43651, Note_on_c, 0, 40, 47
1, 43678, Note_off_c, 0, 62, 50
1, 43680, Control_c, 0, 67, 127
1, 43686, Note_off_c, 0, 40, 55
1, 43695, Control_c, 0, 67, 125
1, 43698, Note_off_c, 0, 57, 65
1, 43709, Control_c, 0, 67, 125
1, 43724, Control_c, 0, 67, 124
1, 43739, Control_c, 0, 67, 123
1, 43783, Control_c, 0, 67, 123
1, 43797, Note_on_c, 0, 45, 64
1, 43797, Note_off_c, 0, 60, 62
1, 43826, Note_off_c, 0, 45, 65
1, 43938, Note_on_c, 0, 48, 61
1, 43968, Note_off_c, 0, 48, 64
1, 44085, Note_on_c, 0, 52, 68
1, 44115, Note_off_c, 0, 52, 65
1, 44139, Control_c, 0, 67, 122
1, 44199, Control_c, 0, 67, 122
1, 44229, Control_c, 0, 67, 121
1, 44238, Note_on_c, 0, 72, 70
1, 44256, Note_on_c, 0, 64, 54
1, 44258, Control_c, 0, 67, 121
1, 44273, Control_c, 0, 67, 119
1, 44288, Control_c, 0, 67, 117
1, 44303, Control_c, 0, 67, 116
1, 44318, Control_c, 0, 67, 115
1, 44332, Control_c, 0, 67, 114
1, 44347, Control_c, 0, 67, 113
1, 44362, Control_c, 0, 67, 113
1, 44377, Control_c, 0, 67, 112
1, 44381, Note_on_c, 0, 69, 74
1, 44382, Note_off_c, 0, 64, 63
1, 44391, Note_on_c, 0, 60, 60
1, 44391, Control_c, 0, 67, 112
1, 44414, Control_c, 0, 67, 111
1, 44429, Control_c, 0, 67, 110
1, 44430, Note_off_c, 0, 60, 66
1, 44443, Control_c, 0, 67, 109
1, 44447, Note_off_c, 0, 72, 54
1, 44535, Note_on_c, 0, 68, 69
1, 44536, Note_on_c, 0, 40, 60
1, 44548, Note_on_c, 0, 59, 58
1, 44549, Note_off_c, 0, 69, 64
1, 44571, Note_off_c, 0, 40, 60
1, 44577, Control_c, 0, 67, 110
1, 44591, Note_off_c, 0, 59, 60
1, 44606, Control_c, 0, 67, 110
1, 44621, Control_c, 0, 67, 111
1, 44673, Note_off_c, 0, 68, 63
1, 44680, Control_c, 0, 67, 111
1, 44684, Note_on_c, 0, 44, 58
1, 44717, Note_off_c, 0, 44, 62
1, 44831, Note_on_c, 0, 47, 58
1, 44860, Note_off_c, 0, 47, 64
1, 44982, Note_on_c, 0, 52, 61
1, 45004, Note_off_c, 0, 52, 63
1, 45096, Control_c, 0, 67, 112
1, 45134, Note_on_c, 0, 76, 62
1, 45144, Note_on_c, 0, 68, 50
1, 45284, Note_on_c, 0, 74, 65
1, 45285, Note_on_c, 0, 71, 61
1, 45298, Note_off_c, 0, 68, 60
1, 45311, Control_c, 0, 67, 111
1, 45370, Control_c, 0, 67, 111
1, 45385, Note_off_c, 0, 76, 29
1, 45397, Note_off_c, 0, 71, 57
1, 45430, Note_on_c, 0, 40, 45
1, 45438, Note_on_c, 0, 72, 61
1, 45443, Note_on_c, 0, 69, 47
1, 45460, Note_off_c, 0, 40, 51
1, 45494, Note_off_c, 0, 74, 53
1, 45497, Note_off_c, 0, 69, 61
1, 45573, Note_on_c, 0, 45, 50
1, 45588, Note_off_c, 0, 72, 60
1, 45601, Note_off_c, 0, 45, 59
1, 45651, Control_c, 0, 67, 111
1, 45681, Control_c, 0, 67, 112
1, 45710, Control_c, 0, 67, 112
1, 45719, Note_on_c, 0, 48, 54
1, 45726, Control_c, 0, 67, 113
1, 45744, Note_off_c, 0, 48, 59
1, 45755, Control_c, 0, 67, 113
1, 45815, Control_c, 0, 67, 114
1, 45844, Control_c, 0, 67, 114
1, 45859, Control_c, 0, 67, 115
1, 45874, Control_c, 0, 67, 116
1, 45877, Note_on_c, 0, 52, 48
1, 45889, Control_c, 0, 67, 117
1, 45911, Control_c, 0, 67, 119
1, 45913, Note_off_c, 0, 52, 56
1, 45926, Control_c, 0, 67, 122
1, 45941, Control_c, 0, 67, 127
1, 46036, Note_on_c, 0, 81, 54
1, 46059, Note_on_c, 0, 72, 29
1, 46104, Control_c, 0, 64, 35
1, 46119, Control_c, 0, 64, 55
1, 46134, Control_c, 0, 64, 63
1, 46143, Note_off_c, 0, 81, 59
1, 46149, Control_c, 0, 64, 68
1, 46163, Control_c, 0, 64, 76
1, 46178, Control_c, 0, 64, 86
1, 46186, Note_off_c, 0, 72, 58
1, 46193, Control_c, 0, 64, 93
1, 46193, Control_c, 0, 67, 127
1, 46199, Note_on_c, 0, 69, 51
1, 46200, Note_on_c, 0, 75, 57
1, 46208, Control_c, 0, 64, 98
1, 46208, Control_c, 0, 67, 126
1, 46223, Control_c, 0, 64, 101
1, 46223, Control_c, 0, 67, 126
1, 46228, Note_off_c, 0, 69, 64
1, 46238, Control_c, 0, 64, 105
1, 46238, Control_c, 0, 67, 125
1, 46253, Control_c, 0, 64, 108
1, 46268, Control_c, 0, 64, 110
1, 46312, Control_c, 0, 64, 109
1, 46327, Control_c, 0, 64, 104
1, 46342, Control_c, 0, 64, 92
1, 46342, Control_c, 0, 67, 126
1, 46349, Note_on_c, 0, 40, 40
1, 46351, Note_off_c, 0, 75, 56
1, 46351, Note_on_c, 0, 76, 58
1, 46356, Control_c, 0, 64, 76
1, 46356, Control_c, 0, 67, 126
1, 46368, Note_on_c, 0, 68, 36
1, 46371, Control_c, 0, 64, 57
1, 46371, Control_c, 0, 67, 127
1, 46380, Note_off_c, 0, 40, 44
1, 46386, Control_c, 0, 64, 0
1, 46401, Control_c, 0, 67, 127
1, 46503, Note_on_c, 0, 44, 52
1, 46539, Note_off_c, 0, 44, 61
1, 46664, Note_on_c, 0, 47, 42
1, 46703, Note_off_c, 0, 47, 52
1, 46709, Note_off_c, 0, 68, 46
1, 46724, Note_off_c, 0, 76, 55
1, 46835, Note_on_c, 0, 52, 40
1, 46891, Note_off_c, 0, 52, 54
1, 47104, Control_c, 0, 64, 9
1, 47119, Control_c, 0, 64, 10
1, 47134, Control_c, 0, 64, 13
1, 47149, Control_c, 0, 64, 14
1, 47164, Control_c, 0, 64, 16
1, 47178, Control_c, 0, 64, 18
1, 47193, Control_c, 0, 64, 19
1, 47193, Control_c, 0, 67, 126
1, 47208, Control_c, 0, 64, 19
1, 47208, Control_c, 0, 67, 123
1, 47223, Control_c, 0, 67, 110
1, 47238, Control_c, 0, 67, 84
1, 47252, Control_c, 0, 67, 45
1, 47267, Control_c, 0, 67, 0
1, 47296, Control_c, 0, 64, 19
1, 47311, Control_c, 0, 64, 17
1, 47328, Control_c, 0, 64, 15
1, 47343, Control_c, 0, 64, 14
1, 47372, Control_c, 0, 64, 13
1, 47424, Control_c, 0, 64, 14
1, 47432, Note_on_c, 0, 48, 104
1, 47436, Note_on_c, 0, 36, 94
1, 47439, Control_c, 0, 64, 18
1, 47454, Control_c, 0, 64, 19
1, 47457, Note_off_c, 0, 48, 66
1, 47459, Note_off_c, 0, 36, 69
1, 47469, Control_c, 0, 64, 21
1, 47483, Control_c, 0, 64, 21
1, 47498, Control_c, 0, 64, 22
1, 47572, Control_c, 0, 64, 23
1, 47590, Note_on_c, 0, 52, 98
1, 47591, Note_on_c, 0, 40, 97
1, 47609, Note_off_c, 0, 52, 69
1, 47613, Note_off_c, 0, 40, 65
1, 47720, Control_c, 0, 64, 25
1, 47734, Control_c, 0, 64, 29
1, 47741, Note_on_c, 0, 55, 100
1, 47743, Note_on_c, 0, 43, 106
1, 47749, Control_c, 0, 64, 33
1, 47760, Note_off_c, 0, 55, 70
1, 47764, Control_c, 0, 64, 36
1, 47765, Note_off_c, 0, 43, 68
1, 47779, Control_c, 0, 64, 36
1, 47794, Control_c, 0, 64, 37
1, 47809, Control_c, 0, 64, 37
1, 47895, Note_on_c, 0, 60, 91
1, 47895, Note_on_c, 0, 48, 89
1, 47898, Control_c, 0, 64, 37
1, 47927, Control_c, 0, 64, 36
1, 47958, Note_on_c, 0, 67, 81
1, 47993, Note_off_c, 0, 60, 66
1, 48008, Note_off_c, 0, 67, 64
1, 48012, Note_off_c, 0, 48, 63
1, 48021, Note_on_c, 0, 79, 89
1, 48031, Control_c, 0, 64, 36
1, 48046, Control_c, 0, 64, 35
1, 48061, Control_c, 0, 64, 35
1, 48075, Control_c, 0, 64, 34
1, 48088, Note_on_c, 0, 76, 86
1, 48103, Note_off_c, 0, 79, 59
1, 48105, Control_c, 0, 64, 33
1, 48121, Control_c, 0, 64, 33
1, 48136, Control_c, 0, 64, 32
1, 48140, Note_on_c, 0, 74, 89
1, 48170, Note_off_c, 0, 76, 62
1, 48173, Control_c, 0, 64, 31
1, 48187, Control_c, 0, 64, 30
1, 48202, Control_c, 0, 64, 30
1, 48209, Note_off_c, 0, 74, 66
1, 48211, Note_on_c, 0, 72, 82
1, 48232, Control_c, 0, 64, 29
1, 48284, Note_on_c, 0, 71, 88
1, 48285, Note_on_c, 0, 50, 98
1, 48288, Note_on_c, 0, 38, 94
1, 48305, Note_off_c, 0, 72, 64
1, 48306, Control_c, 0, 64, 29
1, 48310, Note_off_c, 0, 50, 68
1, 48310, Note_off_c, 0, 38, 67
1, 48395, Control_c, 0, 64, 29
1, 48424, Control_c, 0, 64, 30
1, 48439, Control_c, 0, 64, 30
1, 48440, Note_on_c, 0, 41, 94
1, 48440, Note_on_c, 0, 53, 95
1, 48447, Note_off_c, 0, 71, 64
1, 48461, Note_off_c, 0, 53, 73
1, 48462, Note_off_c, 0, 41, 68
1, 48572, Control_c, 0, 64, 31
1, 48587, Control_c, 0, 64, 31
1, 48591, Note_on_c, 0, 43, 98
1, 48591, Note_on_c, 0, 55, 93
1, 48602, Control_c, 0, 64, 32
1, 48611, Note_off_c, 0, 55, 71
1, 48615, Note_off_c, 0, 43, 68
1, 48617, Control_c, 0, 64, 32
1, 48633, Note_on_c, 0, 45, 30
1, 48634, Note_off_c, 0, 45, 127
1, 48647, Control_c, 0, 64, 33
1, 48691, Control_c, 0, 64, 34
1, 48721, Control_c, 0, 64, 34
1, 48744, Note_on_c, 0, 59, 96
1, 48745, Note_on_c, 0, 47, 95
1, 48806, Note_on_c, 0, 67, 80
1, 48824, Control_c, 0, 64, 34
1, 48839, Control_c, 0, 64, 33
1, 48844, Note_off_c, 0, 47, 64
1, 48849, Note_off_c, 0, 59, 62
1, 48857, Note_off_c, 0, 67, 65
1, 48868, Control_c, 0, 64, 33
1, 48872, Note_on_c, 0, 79, 83
1, 48906, Control_c, 0, 64, 32
1, 48945, Note_on_c, 0, 77, 81
1, 48992, Note_off_c, 0, 79, 62
1, 49003, Note_on_c, 0, 76, 89
1, 49037, Note_off_c, 0, 77, 64
1, 49064, Note_off_c, 0, 76, 66
1, 49067, Note_on_c, 0, 74, 84
1, 49085, Control_c, 0, 64, 32
1, 49100, Control_c, 0, 64, 31
1, 49129, Control_c, 0, 64, 31
1, 49158, Note_on_c, 0, 76, 77
1, 49159, Control_c, 0, 64, 30
1, 49161, Note_on_c, 0, 48, 53
1, 49178, Note_off_c, 0, 74, 57
1, 49219, Control_c, 0, 64, 30
1, 49263, Control_c, 0, 64, 30
1, 49293, Control_c, 0, 64, 31
1, 49307, Control_c, 0, 64, 32
1, 49322, Control_c, 0, 64, 34
1, 49323, Note_on_c, 0, 52, 70
1, 49337, Control_c, 0, 64, 36
1, 49352, Control_c, 0, 64, 38
1, 49367, Control_c, 0, 64, 40
1, 49381, Control_c, 0, 64, 41
1, 49396, Control_c, 0, 64, 42
1, 49409, Note_off_c, 0, 76, 60
1, 49441, Control_c, 0, 64, 43
1, 49472, Note_on_c, 0, 55, 68
1, 49529, Control_c, 0, 64, 42
1, 49544, Control_c, 0, 64, 40
1, 49559, Control_c, 0, 64, 30
1, 49574, Control_c, 0, 64, 0
1, 49624, Note_on_c, 0, 60, 71
1, 49699, Control_c, 0, 64, 50
1, 49702, Note_on_c, 0, 67, 68
1, 49706, Note_off_c, 0, 48, 46
1, 49714, Control_c, 0, 64, 61
1, 49731, Control_c, 0, 64, 63
1, 49735, Note_off_c, 0, 67, 66
1, 49746, Control_c, 0, 64, 65
1, 49758, Note_on_c, 0, 79, 77
1, 49760, Control_c, 0, 64, 66
1, 49770, Note_off_c, 0, 60, 63
1, 49775, Control_c, 0, 64, 66
1, 49790, Control_c, 0, 64, 67
1, 49804, Note_off_c, 0, 52, 62
1, 49806, Note_off_c, 0, 55, 59
1, 49819, Control_c, 0, 64, 66
1, 49827, Note_on_c, 0, 76, 84
1, 49840, Note_off_c, 0, 79, 61
1, 49849, Control_c, 0, 64, 65
1, 49864, Control_c, 0, 64, 65
1, 49878, Control_c, 0, 64, 64
1, 49888, Note_on_c, 0, 74, 84
1, 49893, Control_c, 0, 64, 63
1, 49898, Note_off_c, 0, 76, 62
1, 49908, Control_c, 0, 64, 61
1, 49922, Control_c, 0, 64, 58
1, 49937, Note_off_c, 0, 74, 67
1, 49937, Control_c, 0, 64, 54
1, 49950, Note_on_c, 0, 72, 80
1, 49952, Control_c, 0, 64, 49
1, 49967, Control_c, 0, 64, 45
1, 49982, Control_c, 0, 64, 39
1, 49988, Note_off_c, 0, 72, 65
1, 49997, Control_c, 0, 64, 35
1, 50012, Control_c, 0, 64, 32
1, 50025, Note_on_c, 0, 50, 55
1, 50027, Control_c, 0, 64, 32
1, 50037, Note_on_c, 0, 72, 63
1, 50042, Control_c, 0, 64, 31
1, 50086, Control_c, 0, 64, 31
1, 50101, Control_c, 0, 64, 30
1, 50116, Control_c, 0, 64, 30
1, 50130, Control_c, 0, 64, 29
1, 50160, Control_c, 0, 67, 9
1, 50175, Control_c, 0, 67, 11
1, 50190, Control_c, 0, 67, 15
1, 50198, Note_on_c, 0, 53, 56
1, 50204, Control_c, 0, 67, 21
1, 50219, Control_c, 0, 67, 31
1, 50234, Control_c, 0, 67, 41
1, 50249, Control_c, 0, 67, 51
1, 50264, Control_c, 0, 67, 61
1, 50278, Control_c, 0, 67, 70
1, 50293, Control_c, 0, 67, 78
1, 50308, Control_c, 0, 67, 87
1, 50322, Control_c, 0, 67, 94
1, 50335, Note_on_c, 0, 55, 55
1, 50337, Control_c, 0, 64, 29
1, 50337, Control_c, 0, 67, 100
1, 50339, Note_on_c, 0, 71, 68
1, 50346, Note_off_c, 0, 72, 59
1, 50352, Control_c, 0, 64, 26
1, 50352, Control_c, 0, 67, 106
1, 50367, Control_c, 0, 64, 0
1, 50367, Control_c, 0, 67, 112
1, 50382, Control_c, 0, 67, 116
1, 50404, Control_c, 0, 67, 120
1, 50419, Control_c, 0, 67, 122
1, 50450, Note_off_c, 0, 71, 62
1, 50490, Note_on_c, 0, 59, 66
1, 50508, Control_c, 0, 64, 32
1, 50508, Control_c, 0, 67, 122
1, 50524, Control_c, 0, 64, 51
1, 50524, Control_c, 0, 67, 121
1, 50539, Control_c, 0, 64, 55
1, 50539, Control_c, 0, 67, 120
1, 50540, Note_on_c, 0, 67, 67
1, 50553, Control_c, 0, 64, 56
1, 50553, Control_c, 0, 67, 119
1, 50568, Control_c, 0, 67, 117
1, 50569, Note_off_c, 0, 67, 67
1, 50583, Control_c, 0, 64, 56
1, 50583, Control_c, 0, 67, 116
1, 50598, Control_c, 0, 67, 114
1, 50613, Note_on_c, 0, 79, 78
1, 50613, Control_c, 0, 67, 113
1, 50627, Control_c, 0, 64, 56
1, 50627, Control_c, 0, 67, 111
1, 50631, Note_off_c, 0, 59, 62
1, 50642, Note_off_c, 0, 50, 47
1, 50642, Control_c, 0, 67, 108
1, 50653, Note_off_c, 0, 53, 65
1, 50657, Control_c, 0, 67, 104
1, 50661, Note_off_c, 0, 55, 62
1, 50672, Control_c, 0, 67, 99
1, 50682, Note_on_c, 0, 77, 77
1, 50687, Control_c, 0, 67, 90
1, 50701, Control_c, 0, 67, 80
1, 50716, Control_c, 0, 67, 67
1, 50719, Note_off_c, 0, 79, 61
1, 50731, Control_c, 0, 67, 57
1, 50744, Note_on_c, 0, 76, 83
1, 50745, Control_c, 0, 67, 48
1, 50760, Control_c, 0, 67, 40
1, 50771, Note_off_c, 0, 77, 65
1, 50775, Control_c, 0, 67, 34
1, 50790, Control_c, 0, 67, 31
1, 50799, Note_on_c, 0, 74, 84
1, 50800, Note_off_c, 0, 76, 65
1, 50805, Control_c, 0, 67, 30
1, 50820, Control_c, 0, 67, 30
1, 50825, Note_off_c, 0, 74, 63
1, 50835, Control_c, 0, 64, 56
1, 50849, Control_c, 0, 64, 56
1, 50864, Control_c, 0, 64, 55
1, 50879, Control_c, 0, 64, 54
1, 50894, Control_c, 0, 64, 50
1, 50905, Note_on_c, 0, 52, 53
1, 50908, Note_on_c, 0, 74, 65
1, 50909, Control_c, 0, 64, 41
1, 50924, Control_c, 0, 64, 18
1, 50939, Control_c, 0, 64, 0
1, 51042, Control_c, 0, 64, 21
1, 51042, Control_c, 0, 67, 29
1, 51057, Control_c, 0, 64, 32
1, 51057, Control_c, 0, 67, 28
1, 51065, Note_on_c, 0, 55, 55
1, 51072, Control_c, 0, 64, 38
1, 51072, Control_c, 0, 67, 27
1, 51087, Control_c, 0, 64, 42
1, 51087, Control_c, 0, 67, 25
1, 51101, Control_c, 0, 64, 46
1, 51101, Control_c, 0, 67, 22
1, 51116, Control_c, 0, 64, 49
1, 51116, Control_c, 0, 67, 19
1, 51131, Control_c, 0, 64, 52
1, 51131, Control_c, 0, 67, 17
1, 51153, Control_c, 0, 64, 54
1, 51153, Control_c, 0, 67, 16
1, 51168, Control_c, 0, 64, 55
1, 51168, Control_c, 0, 67, 15
1, 51183, Control_c, 0, 64, 56
1, 51198, Control_c, 0, 64, 57
1, 51198, Control_c, 0, 67, 14
1, 51207, Note_off_c, 0, 74, 62
1, 51213, Control_c, 0, 64, 57
1, 51213, Control_c, 0, 67, 14
1, 51217, Note_on_c, 0, 73, 66
1, 51222, Note_on_c, 0, 58, 57
1, 51227, Control_c, 0, 64, 58
1, 51242, Control_c, 0, 64, 59
1, 51242, Control_c, 0, 67, 13
1, 51256, Control_c, 0, 64, 59
1, 51256, Control_c, 0, 67, 12
1, 51271, Control_c, 0, 67, 11
1, 51279, Note_off_c, 0, 73, 63
1, 51285, Control_c, 0, 67, 10
1, 51300, Control_c, 0, 67, 9
1, 51315, Control_c, 0, 64, 57
1, 51315, Control_c, 0, 67, 8
1, 51331, Control_c, 0, 64, 44
1, 51331, Control_c, 0, 67, 0
1, 51346, Control_c, 0, 64, 0
1, 51373, Note_on_c, 0, 61, 61
1, 51436, Note_on_c, 0, 82, 74
1, 51449, Control_c, 0, 64, 46
1, 51464, Control_c, 0, 64, 61
1, 51479, Control_c, 0, 64, 66
1, 51494, Control_c, 0, 64, 71
1, 51508, Note_on_c, 0, 81, 76
1, 51509, Note_off_c, 0, 52, 42
1, 51509, Control_c, 0, 64, 76
1, 51513, Note_off_c, 0, 61, 61
1, 51518, Note_off_c, 0, 82, 62
1, 51523, Note_off_c, 0, 55, 60
1, 51523, Control_c, 0, 64, 79
1, 51526, Note_off_c, 0, 58, 63
1, 51538, Control_c, 0, 64, 79
1, 51553, Control_c, 0, 64, 80
1, 51574, Note_on_c, 0, 79, 87
1, 51587, Note_off_c, 0, 81, 61
1, 51598, Control_c, 0, 64, 79
1, 51613, Control_c, 0, 64, 78
1, 51627, Control_c, 0, 64, 77
1, 51632, Note_off_c, 0, 79, 65
1, 51642, Control_c, 0, 64, 75
1, 51645, Note_on_c, 0, 77, 75
1, 51657, Control_c, 0, 64, 71
1, 51672, Control_c, 0, 64, 65
1, 51675, Note_off_c, 0, 77, 60
1, 51687, Control_c, 0, 64, 55
1, 51701, Control_c, 0, 64, 42
1, 51709, Note_on_c, 0, 76, 79
1, 51716, Control_c, 0, 64, 39
1, 51731, Control_c, 0, 64, 38
1, 51732, Note_off_c, 0, 76, 68
1, 51746, Control_c, 0, 64, 36
1, 51761, Control_c, 0, 64, 36
1, 51779, Note_on_c, 0, 53, 54
1, 51791, Note_on_c, 0, 76, 79
1, 51820, Control_c, 0, 64, 35
1, 51835, Control_c, 0, 64, 34
1, 51849, Control_c, 0, 64, 32
1, 51864, Control_c, 0, 64, 31
1, 51879, Control_c, 0, 64, 29
1, 51901, Control_c, 0, 64, 27
1, 51916, Control_c, 0, 64, 26
1, 51931, Control_c, 0, 64, 26
1, 51946, Control_c, 0, 64, 25
1, 51956, Note_on_c, 0, 57, 51
1, 51961, Control_c, 0, 64, 25
1, 51975, Control_c, 0, 64, 24
1, 51990, Control_c, 0, 64, 22
1, 52006, Control_c, 0, 64, 18
1, 52021, Control_c, 0, 64, 12
1, 52036, Control_c, 0, 64, 0
1, 52080, Control_c, 0, 67, 8
1, 52094, Control_c, 0, 67, 9
1, 52109, Note_off_c, 0, 76, 55
1, 52109, Control_c, 0, 67, 12
1, 52110, Note_on_c, 0, 61, 47
1, 52112, Note_on_c, 0, 74, 62
1, 52125, Control_c, 0, 67, 15
1, 52140, Control_c, 0, 67, 20
1, 52155, Control_c, 0, 67, 26
1, 52170, Control_c, 0, 67, 35
1, 52185, Control_c, 0, 67, 46
1, 52199, Control_c, 0, 67, 58
1, 52214, Control_c, 0, 67, 73
1, 52229, Control_c, 0, 67, 86
1, 52233, Note_off_c, 0, 74, 55
1, 52244, Control_c, 0, 67, 98
1, 52255, Note_off_c, 0, 61, 62
1, 52259, Control_c, 0, 67, 108
1, 52261, Note_on_c, 0, 62, 52
1, 52273, Control_c, 0, 67, 116
1, 52288, Control_c, 0, 67, 120
1, 52303, Control_c, 0, 67, 123
1, 52349, Note_on_c, 0, 69, 42
1, 52376, Note_off_c, 0, 69, 57
1, 52394, Note_on_c, 0, 81, 70
1, 52406, Control_c, 0, 67, 122
1, 52411, Note_off_c, 0, 62, 61
1, 52421, Control_c, 0, 67, 121
1, 52425, Note_off_c, 0, 57, 63
1, 52436, Control_c, 0, 67, 120
1, 52451, Control_c, 0, 67, 120
1, 52455, Note_off_c, 0, 53, 45
1, 52465, Control_c, 0, 67, 119
1, 52470, Note_off_c, 0, 81, 65
1, 52471, Note_on_c, 0, 77, 62
1, 52480, Control_c, 0, 67, 119
1, 52510, Control_c, 0, 67, 118
1, 52534, Note_on_c, 0, 76, 73
1, 52534, Note_off_c, 0, 77, 62
1, 52554, Control_c, 0, 67, 118
1, 52575, Note_off_c, 0, 76, 64
1, 52595, Note_on_c, 0, 74, 64
1, 52599, Control_c, 0, 67, 117
1, 52620, Note_off_c, 0, 74, 67
1, 52629, Control_c, 0, 67, 117
1, 52666, Control_c, 0, 67, 116
1, 52689, Note_on_c, 0, 52, 39
1, 52691, Note_on_c, 0, 74, 58
1, 52695, Control_c, 0, 67, 116
1, 52739, Control_c, 0, 67, 115
1, 52799, Control_c, 0, 67, 115
1, 52860, Note_on_c, 0, 55, 51
1, 53002, Note_on_c, 0, 58, 49
1, 53005, Note_on_c, 0, 73, 63
1, 53006, Note_off_c, 0, 74, 61
1, 53008, Control_c, 0, 64, 10
1, 53022, Control_c, 0, 64, 21
1, 53037, Control_c, 0, 64, 28
1, 53052, Control_c, 0, 64, 32
1, 53067, Control_c, 0, 64, 36
1, 53082, Control_c, 0, 64, 37
1, 53090, Note_off_c, 0, 73, 63
1, 53096, Control_c, 0, 64, 38
1, 53126, Control_c, 0, 64, 21
1, 53140, Control_c, 0, 64, 0
1, 53161, Note_on_c, 0, 61, 56
1, 53231, Note_on_c, 0, 82, 76
1, 53244, Control_c, 0, 64, 21
1, 53259, Control_c, 0, 64, 27
1, 53274, Control_c, 0, 64, 29
1, 53282, Note_off_c, 0, 52, 51
1, 53288, Control_c, 0, 64, 31
1, 53301, Note_on_c, 0, 81, 73
1, 53303, Control_c, 0, 64, 34
1, 53307, Note_off_c, 0, 82, 63
1, 53312, Note_off_c, 0, 61, 62
1, 53318, Control_c, 0, 64, 35
1, 53325, Note_off_c, 0, 55, 55
1, 53333, Control_c, 0, 64, 35
1, 53338, Note_off_c, 0, 58, 62
1, 53347, Control_c, 0, 64, 36
1, 53362, Note_on_c, 0, 79, 79
1, 53362, Control_c, 0, 64, 36
1, 53367, Note_off_c, 0, 81, 62
1, 53377, Control_c, 0, 64, 38
1, 53400, Control_c, 0, 64, 39
1, 53415, Control_c, 0, 64, 41
1, 53424, Note_off_c, 0, 79, 64
1, 53429, Control_c, 0, 64, 42
1, 53439, Note_on_c, 0, 77, 74
1, 53486, Note_off_c, 0, 77, 57
1, 53503, Note_on_c, 0, 76, 75
1, 53518, Control_c, 0, 64, 41
1, 53527, Note_off_c, 0, 76, 67
1, 53533, Control_c, 0, 64, 41
1, 53547, Control_c, 0, 64, 40
1, 53562, Control_c, 0, 64, 40
1, 53577, Control_c, 0, 64, 39
1, 53580, Note_on_c, 0, 76, 77
1, 53586, Note_on_c, 0, 54, 53
1, 53592, Control_c, 0, 64, 38
1, 53622, Control_c, 0, 64, 38
1, 53637, Control_c, 0, 64, 37
1, 53651, Control_c, 0, 64, 37
1, 53666, Control_c, 0, 64, 36
1, 53696, Control_c, 0, 64, 35
1, 53747, Note_on_c, 0, 57, 59
1, 53875, Control_c, 0, 64, 36
1, 53875, Control_c, 0, 67, 115
1, 53890, Control_c, 0, 64, 36
1, 53902, Note_on_c, 0, 60, 56
1, 53905, Control_c, 0, 64, 37
1, 53905, Control_c, 0, 67, 116
1, 53906, Note_on_c, 0, 75, 70
1, 53913, Note_off_c, 0, 76, 60
1, 53919, Control_c, 0, 64, 37
1, 53934, Control_c, 0, 64, 38
1, 53949, Control_c, 0, 64, 38
1, 53978, Control_c, 0, 64, 39
1, 53987, Note_off_c, 0, 75, 63
1, 53993, Control_c, 0, 64, 40
1, 54008, Control_c, 0, 64, 42
1, 54023, Control_c, 0, 64, 44
1, 54023, Control_c, 0, 67, 115
1, 54037, Control_c, 0, 64, 46
1, 54037, Control_c, 0, 67, 114
1, 54052, Control_c, 0, 64, 47
1, 54052, Control_c, 0, 67, 113
1, 54067, Control_c, 0, 64, 49
1, 54067, Control_c, 0, 67, 111
1, 54078, Note_on_c, 0, 63, 62
1, 54082, Control_c, 0, 64, 49
1, 54082, Control_c, 0, 67, 108
1, 54096, Control_c, 0, 64, 50
1, 54096, Control_c, 0, 67, 101
1, 54111, Control_c, 0, 64, 50
1, 54111, Control_c, 0, 67, 93
1, 54126, Control_c, 0, 67, 82
1, 54131, Note_on_c, 0, 84, 73
1, 54149, Control_c, 0, 64, 51
1, 54149, Control_c, 0, 67, 70
1, 54164, Control_c, 0, 64, 51
1, 54164, Control_c, 0, 67, 57
1, 54178, Control_c, 0, 67, 44
1, 54193, Control_c, 0, 64, 52
1, 54193, Control_c, 0, 67, 32
1, 54208, Note_on_c, 0, 83, 76
1, 54208, Control_c, 0, 64, 52
1, 54208, Control_c, 0, 67, 22
1, 54223, Control_c, 0, 67, 16
1, 54231, Note_off_c, 0, 84, 63
1, 54238, Control_c, 0, 64, 53
1, 54238, Control_c, 0, 67, 12
1, 54239, Note_off_c, 0, 57, 52
1, 54239, Note_off_c, 0, 60, 63
1, 54241, Note_off_c, 0, 63, 60
1, 54242, Note_off_c, 0, 54, 51
1, 54251, Control_c, 0, 67, 8
1, 54266, Note_on_c, 0, 81, 84
1, 54266, Control_c, 0, 67, 0
1, 54280, Note_off_c, 0, 83, 62
1, 54311, Note_off_c, 0, 81, 68
1, 54334, Note_on_c, 0, 79, 74
1, 54340, Control_c, 0, 64, 52
1, 54355, Control_c, 0, 64, 51
1, 54358, Note_off_c, 0, 79, 67
1, 54369, Control_c, 0, 64, 50
1, 54384, Control_c, 0, 64, 49
1, 54394, Note_on_c, 0, 78, 88
1, 54399, Control_c, 0, 64, 48
1, 54414, Control_c, 0, 64, 47
1, 54419, Note_off_c, 0, 78, 65
1, 54429, Control_c, 0, 64, 46
1, 54443, Control_c, 0, 64, 45
1, 54458, Control_c, 0, 64, 44
1, 54473, Control_c, 0, 64, 43
1, 54482, Note_on_c, 0, 55, 55
1, 54489, Note_on_c, 0, 78, 73
1, 54502, Control_c, 0, 64, 43
1, 54518, Control_c, 0, 64, 42
1, 54548, Control_c, 0, 64, 42
1, 54637, Control_c, 0, 64, 41
1, 54647, Note_on_c, 0, 59, 66
1, 54681, Control_c, 0, 64, 41
1, 54725, Control_c, 0, 64, 40
1, 54740, Control_c, 0, 64, 39
1, 54755, Control_c, 0, 64, 38
1, 54770, Control_c, 0, 64, 38
1, 54785, Control_c, 0, 64, 37
1, 54785, Control_c, 0, 67, 8
1, 54799, Control_c, 0, 64, 36
1, 54799, Control_c, 0, 67, 10
1, 54808, Note_on_c, 0, 63, 49
1, 54811, Note_on_c, 0, 76, 63
1, 54814, Control_c, 0, 64, 35
1, 54814, Control_c, 0, 67, 12
1, 54829, Control_c, 0, 64, 33
1, 54829, Control_c, 0, 67, 14
1, 54844, Control_c, 0, 64, 32
1, 54844, Control_c, 0, 67, 17
1, 54859, Control_c, 0, 64, 30
1, 54859, Control_c, 0, 67, 21
1, 54869, Note_off_c, 0, 78, 51
1, 54874, Control_c, 0, 64, 29
1, 54874, Control_c, 0, 67, 26
1, 54896, Control_c, 0, 64, 27
1, 54896, Control_c, 0, 67, 32
1, 54911, Control_c, 0, 64, 26
1, 54911, Control_c, 0, 67, 41
1, 54925, Control_c, 0, 64, 24
1, 54925, Control_c, 0, 67, 50
1, 54940, Control_c, 0, 64, 22
1, 54940, Control_c, 0, 67, 59
1, 54955, Control_c, 0, 64, 19
1, 54955, Control_c, 0, 67, 67
1, 54970, Control_c, 0, 64, 15
1, 54970, Control_c, 0, 67, 75
1, 54972, Note_off_c, 0, 76, 58
1, 54973, Note_off_c, 0, 63, 63
1, 54981, Note_on_c, 0, 64, 54
1, 54985, Control_c, 0, 64, 0
1, 54985, Control_c, 0, 67, 84
1, 54999, Control_c, 0, 67, 93
1, 55014, Control_c, 0, 67, 101
1, 55029, Control_c, 0, 67, 108
1, 55044, Control_c, 0, 67, 114
1, 55057, Note_on_c, 0, 71, 60
1, 55059, Control_c, 0, 67, 117
1, 55073, Control_c, 0, 67, 119
1, 55088, Control_c, 0, 67, 119
1, 55089, Note_off_c, 0, 71, 64
1, 55103, Control_c, 0, 67, 120
1, 55127, Note_on_c, 0, 83, 65
1, 55135, Note_off_c, 0, 55, 52
1, 55142, Note_off_c, 0, 64, 61
1, 55162, Note_off_c, 0, 59, 61
1, 55187, Note_off_c, 0, 83, 59
1, 55191, Note_on_c, 0, 79, 60
1, 55222, Control_c, 0, 67, 119
1, 55236, Control_c, 0, 67, 119
1, 55248, Note_off_c, 0, 79, 59
1, 55251, Control_c, 0, 67, 118
1, 55258, Note_on_c, 0, 78, 69
1, 55266, Control_c, 0, 67, 118
1, 55296, Control_c, 0, 67, 117
1, 55302, Note_off_c, 0, 78, 64
1, 55312, Control_c, 0, 67, 117
1, 55327, Control_c, 0, 67, 116
1, 55332, Note_on_c, 0, 76, 55
1, 55369, Note_off_c, 0, 76, 60
1, 55419, Note_on_c, 0, 54, 38
1, 55419, Note_on_c, 0, 83, 53
1, 55588, Note_on_c, 0, 58, 46
1, 55738, Note_on_c, 0, 82, 59
1, 55756, Note_on_c, 0, 61, 40
1, 55764, Control_c, 0, 67, 116
1, 55768, Note_off_c, 0, 83, 52
1, 55823, Control_c, 0, 67, 115
1, 55853, Note_off_c, 0, 82, 61
1, 55853, Control_c, 0, 67, 115
1, 55897, Control_c, 0, 67, 114
1, 55911, Note_on_c, 0, 64, 43
1, 55927, Control_c, 0, 67, 114
1, 55971, Control_c, 0, 67, 113
1, 55992, Note_off_c, 0, 54, 61
1, 55994, Note_on_c, 0, 79, 60
1, 56001, Control_c, 0, 67, 113
1, 56015, Note_off_c, 0, 64, 61
1, 56040, Note_off_c, 0, 58, 60
1, 56045, Control_c, 0, 67, 112
1, 56049, Note_off_c, 0, 79, 59
1, 56052, Note_on_c, 0, 78, 64
1, 56053, Note_off_c, 0, 61, 54
1, 56075, Control_c, 0, 67, 112
1, 56120, Control_c, 0, 67, 111
1, 56121, Note_on_c, 0, 76, 66
1, 56121, Note_off_c, 0, 78, 62
1, 56135, Control_c, 0, 67, 111
1, 56160, Note_off_c, 0, 76, 63
1, 56164, Control_c, 0, 67, 110
1, 56179, Control_c, 0, 67, 110
1, 56187, Note_on_c, 0, 74, 58
1, 56209, Control_c, 0, 67, 109
1, 56228, Note_off_c, 0, 74, 59
1, 56251, Note_on_c, 0, 73, 66
1, 56325, Note_on_c, 0, 59, 49
1, 56340, Note_off_c, 0, 73, 56
1, 56345, Note_on_c, 0, 76, 60
1, 56510, Note_on_c, 0, 62, 51
1, 56572, Control_c, 0, 67, 110
1, 56632, Control_c, 0, 67, 110
1, 56646, Control_c, 0, 67, 111
1, 56655, Note_on_c, 0, 74, 55
1, 56656, Note_off_c, 0, 76, 55
1, 56657, Note_on_c, 0, 66, 54
1, 56690, Control_c, 0, 67, 111
1, 56735, Control_c, 0, 67, 112
1, 56778, Note_off_c, 0, 74, 61
1, 56809, Control_c, 0, 64, 9
1, 56818, Note_on_c, 0, 71, 60
1, 56824, Control_c, 0, 64, 13
1, 56838, Control_c, 0, 64, 15
1, 56853, Control_c, 0, 64, 16
1, 56868, Control_c, 0, 64, 17
1, 56893, Note_off_c, 0, 59, 43
1, 56895, Note_on_c, 0, 74, 64
1, 56898, Control_c, 0, 64, 18
1, 56898, Control_c, 0, 67, 111
1, 56913, Control_c, 0, 64, 19
1, 56928, Control_c, 0, 64, 21
1, 56929, Note_off_c, 0, 74, 65
1, 56943, Control_c, 0, 64, 23
1, 56949, Note_off_c, 0, 71, 64
1, 56958, Control_c, 0, 64, 24
1, 56959, Note_on_c, 0, 78, 70
1, 56973, Control_c, 0, 64, 26
1, 56983, Note_off_c, 0, 62, 63
1, 56987, Control_c, 0, 64, 27
1, 56989, Note_off_c, 0, 66, 59
1, 57002, Control_c, 0, 64, 27
1, 57017, Control_c, 0, 64, 29
1, 57032, Control_c, 0, 64, 29
1, 57035, Note_on_c, 0, 74, 68
1, 57042, Note_off_c, 0, 78, 60
1, 57047, Control_c, 0, 64, 30
1, 57062, Control_c, 0, 64, 31
1, 57077, Control_c, 0, 64, 32
1, 57084, Note_on_c, 0, 73, 82
1, 57088, Note_off_c, 0, 74, 64
1, 57091, Control_c, 0, 64, 32
1, 57106, Control_c, 0, 64, 33
1, 57144, Note_off_c, 0, 73, 65
1, 57157, Note_on_c, 0, 71, 70
1, 57189, Note_off_c, 0, 71, 64
1, 57202, Control_c, 0, 67, 112
1, 57217, Control_c, 0, 64, 32
1, 57232, Control_c, 0, 67, 112
1, 57246, Note_on_c, 0, 71, 66
1, 57246, Control_c, 0, 64, 31
1, 57247, Note_on_c, 0, 61, 53
1, 57261, Control_c, 0, 67, 113
1, 57276, Control_c, 0, 64, 30
1, 57276, Control_c, 0, 67, 113
1, 57291, Control_c, 0, 64, 29
1, 57291, Control_c, 0, 67, 114
1, 57306, Control_c, 0, 64, 29
1, 57306, Control_c, 0, 67, 114
1, 57320, Control_c, 0, 64, 27
1, 57320, Control_c, 0, 67, 115
1, 57335, Control_c, 0, 64, 26
1, 57335, Control_c, 0, 67, 116
1, 57350, Control_c, 0, 64, 25
1, 57350, Control_c, 0, 67, 117
1, 57365, Control_c, 0, 64, 24
1, 57365, Control_c, 0, 67, 118
1, 57380, Control_c, 0, 64, 22
1, 57380, Control_c, 0, 67, 120
1, 57394, Control_c, 0, 64, 20
1, 57394, Control_c, 0, 67, 121
1, 57409, Control_c, 0, 64, 16
1, 57409, Control_c, 0, 67, 125
1, 57423, Note_on_c, 0, 64, 52
1, 57424, Control_c, 0, 64, 12
1, 57424, Control_c, 0, 67, 127
1, 57439, Control_c, 0, 64, 0
1, 57575, Note_on_c, 0, 70, 68
1, 57578, Note_on_c, 0, 67, 54
1, 57589, Note_off_c, 0, 71, 59
1, 57672, Note_off_c, 0, 70, 63
1, 57676, Control_c, 0, 64, 14
1, 57691, Control_c, 0, 64, 16
1, 57706, Control_c, 0, 64, 17
1, 57721, Control_c, 0, 64, 19
1, 57730, Note_on_c, 0, 70, 56
1, 57750, Control_c, 0, 64, 19
1, 57765, Control_c, 0, 64, 20
1, 57780, Control_c, 0, 64, 21
1, 57795, Control_c, 0, 64, 21
1, 57810, Control_c, 0, 64, 22
1, 57821, Note_on_c, 0, 79, 70
1, 57825, Control_c, 0, 64, 23
1, 57840, Control_c, 0, 64, 24
1, 57855, Control_c, 0, 64, 25
1, 57855, Note_off_c, 0, 61, 44
1, 57858, Note_off_c, 0, 70, 62
1, 57869, Control_c, 0, 64, 26
1, 57875, Note_off_c, 0, 67, 62
1, 57875, Note_off_c, 0, 64, 62
1, 57888, Note_on_c, 0, 78, 74
1, 57891, Control_c, 0, 64, 27
1, 57904, Note_off_c, 0, 79, 56
1, 57906, Control_c, 0, 64, 27
1, 57921, Control_c, 0, 64, 28
1, 57935, Control_c, 0, 64, 28
1, 57951, Note_on_c, 0, 76, 79
1, 57965, Control_c, 0, 64, 29
1, 57971, Note_off_c, 0, 78, 62
1, 57995, Control_c, 0, 67, 127
1, 58001, Note_off_c, 0, 76, 65
1, 58010, Control_c, 0, 67, 126
1, 58023, Note_on_c, 0, 74, 65
1, 58024, Control_c, 0, 67, 126
1, 58054, Control_c, 0, 64, 28
1, 58073, Note_off_c, 0, 74, 64
1, 58081, Note_on_c, 0, 73, 74
1, 58084, Control_c, 0, 64, 28
1, 58129, Control_c, 0, 64, 27
1, 58159, Note_on_c, 0, 62, 54
1, 58160, Note_off_c, 0, 73, 60
1, 58163, Note_on_c, 0, 76, 66
1, 58188, Control_c, 0, 64, 27
1, 58203, Control_c, 0, 64, 26
1, 58217, Control_c, 0, 64, 26
1, 58247, Control_c, 0, 64, 25
1, 58261, Control_c, 0, 64, 25
1, 58261, Control_c, 0, 67, 126
1, 58276, Control_c, 0, 67, 127
1, 58306, Control_c, 0, 64, 24
1, 58306, Control_c, 0, 67, 127
1, 58329, Note_on_c, 0, 66, 55
1, 58335, Control_c, 0, 64, 24
1, 58380, Control_c, 0, 64, 23
1, 58481, Note_on_c, 0, 70, 51
1, 58488, Note_on_c, 0, 74, 61
1, 58512, Note_off_c, 0, 76, 51
1, 58561, Note_off_c, 0, 74, 63
1, 58639, Note_off_c, 0, 70, 60
1, 58640, Control_c, 0, 64, 24
1, 58650, Note_on_c, 0, 71, 58
1, 58716, Note_on_c, 0, 83, 65
1, 58745, Control_c, 0, 64, 24
1, 58752, Note_off_c, 0, 83, 61
1, 58787, Note_on_c, 0, 82, 71
1, 58788, Note_off_c, 0, 71, 64
1, 58789, Control_c, 0, 64, 25
1, 58812, Note_off_c, 0, 66, 63
1, 58820, Note_off_c, 0, 62, 62
1, 58840, Note_off_c, 0, 82, 59
1, 58854, Note_on_c, 0, 83, 65
1, 58863, Control_c, 0, 64, 25
1, 58882, Note_off_c, 0, 83, 67
1, 58913, Note_on_c, 0, 86, 69
1, 58972, Note_on_c, 0, 83, 66
1, 58993, Note_off_c, 0, 86, 59
1, 58996, Control_c, 0, 64, 25
1, 59011, Control_c, 0, 64, 23
1, 59020, Note_off_c, 0, 83, 64
1, 59026, Control_c, 0, 64, 21
1, 59041, Control_c, 0, 64, 20
1, 59048, Note_on_c, 0, 79, 68
1, 59056, Control_c, 0, 64, 19
1, 59058, Note_on_c, 0, 64, 59
1, 59074, Note_off_c, 0, 79, 68
1, 59077, Note_off_c, 0, 64, 64
1, 59126, Note_on_c, 0, 83, 69
1, 59181, Note_off_c, 0, 83, 61
1, 59208, Note_on_c, 0, 62, 62
1, 59210, Note_on_c, 0, 78, 70
1, 59219, Control_c, 0, 67, 127
1, 59231, Note_off_c, 0, 62, 64
1, 59240, Note_off_c, 0, 78, 63
1, 59263, Control_c, 0, 64, 19
1, 59278, Control_c, 0, 67, 126
1, 59282, Note_on_c, 0, 83, 69
1, 59292, Control_c, 0, 67, 126
1, 59333, Note_off_c, 0, 83, 63
1, 59347, Note_on_c, 0, 61, 67
1, 59360, Note_on_c, 0, 76, 69
1, 59368, Control_c, 0, 67, 125
1, 59384, Note_off_c, 0, 61, 66
1, 59395, Note_off_c, 0, 76, 65
1, 59405, Control_c, 0, 67, 125
1, 59434, Control_c, 0, 67, 124
1, 59443, Note_on_c, 0, 83, 65
1, 59475, Note_off_c, 0, 83, 62
1, 59510, Note_on_c, 0, 59, 62
1, 59512, Note_on_c, 0, 74, 65
1, 59542, Note_off_c, 0, 74, 66
1, 59578, Note_on_c, 0, 83, 68
1, 59612, Control_c, 0, 64, 19
1, 59628, Note_off_c, 0, 59, 63
1, 59640, Note_off_c, 0, 83, 62
1, 59642, Control_c, 0, 64, 20
1, 59650, Note_on_c, 0, 82, 77
1, 59656, Control_c, 0, 64, 21
1, 59686, Control_c, 0, 64, 22
1, 59701, Control_c, 0, 64, 23
1, 59701, Control_c, 0, 67, 124
1, 59706, Note_on_c, 0, 83, 75
1, 59709, Note_off_c, 0, 82, 63
1, 59715, Control_c, 0, 64, 24
1, 59730, Control_c, 0, 67, 123
1, 59745, Control_c, 0, 64, 24
1, 59745, Control_c, 0, 67, 123
1, 59760, Control_c, 0, 67, 121
1, 59764, Note_off_c, 0, 83, 62
1, 59775, Control_c, 0, 67, 119
1, 59783, Note_on_c, 0, 86, 73
1, 59789, Control_c, 0, 67, 115
1, 59804, Control_c, 0, 67, 112
1, 59819, Control_c, 0, 67, 108
1, 59834, Control_c, 0, 64, 23
1, 59834, Control_c, 0, 67, 103
1, 59846, Note_on_c, 0, 83, 81
1, 59849, Control_c, 0, 64, 23
1, 59849, Control_c, 0, 67, 99
1, 59864, Control_c, 0, 64, 21
1, 59864, Control_c, 0, 67, 94
1, 59868, Note_off_c, 0, 86, 48
1, 59879, Control_c, 0, 64, 18
1, 59879, Control_c, 0, 67, 88
1, 59893, Note_off_c, 0, 83, 63
1, 59893, Control_c, 0, 64, 16
1, 59893, Control_c, 0, 67, 84
1, 59908, Control_c, 0, 64, 15
1, 59908, Control_c, 0, 67, 82
1, 59923, Note_on_c, 0, 67, 73
1, 59923, Control_c, 0, 64, 14
1, 59923, Control_c, 0, 67, 80
1, 59925, Note_on_c, 0, 76, 76
1, 59938, Control_c, 0, 67, 80
1, 59948, Note_off_c, 0, 67, 69
1, 59953, Control_c, 0, 64, 13
1, 59953, Control_c, 0, 67, 79
1, 59960, Note_off_c, 0, 76, 61
1, 59968, Control_c, 0, 64, 12
1, 59968, Control_c, 0, 67, 79
1, 59991, Note_on_c, 0, 83, 77
1, 59997, Control_c, 0, 64, 10
1, 60051, Note_off_c, 0, 83, 62
1, 60071, Control_c, 0, 64, 12
1, 60075, Note_on_c, 0, 66, 73
1, 60078, Note_on_c, 0, 74, 75
1, 60099, Note_off_c, 0, 66, 70
1, 60101, Control_c, 0, 64, 13
1, 60102, Control_c, 0, 67, 79
1, 60108, Note_off_c, 0, 74, 66
1, 60117, Control_c, 0, 64, 14
1, 60138, Control_c, 0, 64, 15
1, 60138, Control_c, 0, 67, 80
1, 60147, Note_on_c, 0, 83, 68
1, 60153, Control_c, 0, 64, 17
1, 60168, Control_c, 0, 64, 18
1, 60183, Control_c, 0, 64, 19
1, 60183, Control_c, 0, 67, 80
1, 60198, Control_c, 0, 64, 20
1, 60198, Control_c, 0, 67, 81
1, 60204, Note_off_c, 0, 83, 60
1, 60212, Control_c, 0, 64, 21
1, 60227, Control_c, 0, 64, 22
1, 60230, Note_on_c, 0, 73, 83
1, 60231, Note_on_c, 0, 64, 74
1, 60257, Note_off_c, 0, 64, 70
1, 60274, Note_off_c, 0, 73, 62
1, 60299, Note_on_c, 0, 83, 79
1, 60302, Control_c, 0, 64, 20
1, 60317, Control_c, 0, 64, 19
1, 60332, Control_c, 0, 64, 17
1, 60335, Note_off_c, 0, 83, 57
1, 60346, Control_c, 0, 64, 15
1, 60379, Note_on_c, 0, 71, 72
1, 60382, Note_on_c, 0, 62, 77
1, 60406, Note_off_c, 0, 71, 68
1, 60406, Control_c, 0, 67, 81
1, 60442, Note_on_c, 0, 83, 75
1, 60450, Control_c, 0, 67, 82
1, 60464, Control_c, 0, 64, 16
1, 60479, Control_c, 0, 64, 17
1, 60494, Control_c, 0, 64, 18
1, 60494, Control_c, 0, 67, 81
1, 60505, Note_off_c, 0, 62, 64
1, 60508, Note_off_c, 0, 83, 63
1, 60509, Control_c, 0, 64, 19
1, 60518, Note_on_c, 0, 82, 88
1, 60538, Control_c, 0, 64, 19
1, 60538, Control_c, 0, 67, 81
1, 60553, Control_c, 0, 64, 20
1, 60568, Control_c, 0, 64, 21
1, 60583, Note_off_c, 0, 82, 64
1, 60583, Control_c, 0, 64, 21
1, 60583, Control_c, 0, 67, 80
1, 60592, Note_on_c, 0, 83, 75
1, 60598, Control_c, 0, 64, 23
1, 60612, Control_c, 0, 64, 24
1, 60612, Control_c, 0, 67, 80
1, 60627, Control_c, 0, 64, 25
1, 60627, Control_c, 0, 67, 79
1, 60634, Note_off_c, 0, 83, 65
1, 60642, Control_c, 0, 64, 26
1, 60642, Control_c, 0, 67, 78
1, 60645, Note_on_c, 0, 86, 78
1, 60657, Control_c, 0, 67, 77
1, 60671, Control_c, 0, 67, 75
1, 60686, Control_c, 0, 67, 67
1, 60701, Control_c, 0, 67, 57
1, 60716, Note_on_c, 0, 83, 86
1, 60716, Control_c, 0, 64, 25
1, 60716, Control_c, 0, 67, 46
1, 60731, Control_c, 0, 64, 23
1, 60731, Control_c, 0, 67, 35
1, 60743, Note_off_c, 0, 86, 62
1, 60746, Control_c, 0, 64, 21
1, 60746, Control_c, 0, 67, 25
1, 60761, Control_c, 0, 64, 20
1, 60761, Control_c, 0, 67, 18
1, 60773, Note_off_c, 0, 83, 64
1, 60776, Control_c, 0, 64, 19
1, 60776, Control_c, 0, 67, 13
1, 60786, Note_on_c, 0, 79, 82
1, 60788, Note_on_c, 0, 76, 95
1, 60791, Control_c, 0, 67, 11
1, 60805, Control_c, 0, 67, 9
1, 60817, Note_on_c, 0, 69, 48
1, 60820, Control_c, 0, 67, 9
1, 60823, Note_off_c, 0, 79, 63
1, 60825, Note_off_c, 0, 76, 63
1, 60835, Control_c, 0, 67, 8
1, 60843, Note_off_c, 0, 69, 58
1, 60849, Control_c, 0, 67, 8
1, 60859, Note_on_c, 0, 83, 80
1, 60938, Note_off_c, 0, 83, 63
1, 60947, Control_c, 0, 64, 20
1, 60948, Note_on_c, 0, 74, 85
1, 60952, Note_on_c, 0, 78, 87
1, 60961, Control_c, 0, 64, 21
1, 60973, Note_off_c, 0, 74, 63
1, 60976, Control_c, 0, 64, 22
1, 60996, Note_off_c, 0, 78, 62
1, 61017, Note_on_c, 0, 83, 79
1, 61082, Note_off_c, 0, 83, 63
1, 61095, Control_c, 0, 67, 0
1, 61099, Note_on_c, 0, 76, 86
1, 61100, Note_on_c, 0, 73, 87
1, 61130, Note_off_c, 0, 73, 63
1, 61142, Note_off_c, 0, 76, 66
1, 61171, Note_on_c, 0, 83, 80
1, 61214, Control_c, 0, 64, 21
1, 61226, Note_off_c, 0, 83, 61
1, 61229, Control_c, 0, 64, 21
1, 61243, Control_c, 0, 64, 20
1, 61250, Note_on_c, 0, 71, 87
1, 61253, Note_on_c, 0, 74, 72
1, 61258, Control_c, 0, 64, 19
1, 61287, Note_off_c, 0, 74, 64
1, 61320, Note_on_c, 0, 83, 79
1, 61361, Note_off_c, 0, 71, 66
1, 61385, Note_off_c, 0, 83, 63
1, 61393, Note_on_c, 0, 82, 85
1, 61406, Control_c, 0, 64, 20
1, 61447, Note_on_c, 0, 83, 79
1, 61451, Note_off_c, 0, 82, 64
1, 61506, Note_off_c, 0, 83, 64
1, 61527, Note_on_c, 0, 86, 79
1, 61569, Control_c, 0, 64, 19
1, 61584, Control_c, 0, 64, 19
1, 61595, Note_on_c, 0, 83, 76
1, 61599, Control_c, 0, 64, 18
1, 61613, Control_c, 0, 64, 16
1, 61614, Note_on_c, 0, 84, 43
1, 61623, Note_off_c, 0, 86, 61
1, 61646, Note_off_c, 0, 83, 65
1, 61649, Note_off_c, 0, 84, 55
1, 61650, Control_c, 0, 64, 15
1, 61670, Note_on_c, 0, 67, 79
1, 61670, Note_on_c, 0, 76, 83
1, 61693, Note_off_c, 0, 67, 69
1, 61713, Note_off_c, 0, 76, 66
1, 61747, Note_on_c, 0, 83, 73
1, 61801, Note_off_c, 0, 83, 62
1, 61822, Note_on_c, 0, 66, 63
1, 61824, Note_on_c, 0, 74, 72
1, 61848, Note_off_c, 0, 74, 70
1, 61850, Note_off_c, 0, 66, 65
1, 61858, Control_c, 0, 64, 14
1, 61858, Control_c, 0, 67, 11
1, 61873, Control_c, 0, 64, 9
1, 61873, Control_c, 0, 67, 16
1, 61888, Control_c, 0, 64, 0
1, 61888, Control_c, 0, 67, 23
1, 61896, Note_on_c, 0, 83, 65
1, 61903, Control_c, 0, 67, 34
1, 61918, Control_c, 0, 67, 51
1, 61932, Control_c, 0, 67, 68
1, 61934, Note_off_c, 0, 83, 59
1, 61947, Control_c, 0, 67, 82
1, 61962, Control_c, 0, 67, 90
1, 61969, Note_on_c, 0, 73, 66
1, 61975, Note_on_c, 0, 64, 54
1, 61977, Control_c, 0, 67, 96
1, 61992, Control_c, 0, 67, 99
1, 61996, Note_off_c, 0, 64, 61
1, 62001, Note_off_c, 0, 73, 59
1, 62007, Control_c, 0, 67, 101
1, 62022, Control_c, 0, 67, 102
1, 62040, Note_on_c, 0, 83, 59
1, 62058, Note_off_c, 0, 83, 63
1, 62113, Note_on_c, 0, 62, 53
1, 62122, Note_on_c, 0, 71, 66
1, 62155, Control_c, 0, 67, 101
1, 62170, Note_off_c, 0, 62, 59
1, 62170, Control_c, 0, 67, 100
1, 62184, Control_c, 0, 67, 100
1, 62199, Control_c, 0, 67, 99
1, 62200, Note_on_c, 0, 66, 55
1, 62214, Control_c, 0, 67, 98
1, 62229, Control_c, 0, 67, 98
1, 62244, Control_c, 0, 67, 97
1, 62248, Note_off_c, 0, 66, 58
1, 62258, Control_c, 0, 67, 97
1, 62273, Control_c, 0, 67, 96
1, 62275, Note_on_c, 0, 62, 63
1, 62288, Control_c, 0, 67, 95
1, 62322, Note_off_c, 0, 62, 61
1, 62332, Control_c, 0, 67, 95
1, 62353, Note_on_c, 0, 66, 67
1, 62362, Control_c, 0, 67, 94
1, 62406, Note_off_c, 0, 66, 62
1, 62415, Note_on_c, 0, 83, 80
1, 62427, Note_on_c, 0, 62, 69
1, 62439, Note_off_c, 0, 71, 53
1, 62483, Note_off_c, 0, 62, 60
1, 62497, Note_on_c, 0, 66, 69
1, 62519, Control_c, 0, 67, 93
1, 62548, Control_c, 0, 67, 93
1, 62559, Note_off_c, 0, 66, 60
1, 62563, Note_on_c, 0, 64, 73
1, 62563, Control_c, 0, 67, 92
1, 62567, Note_on_c, 0, 73, 84
1, 62578, Control_c, 0, 67, 92
1, 62580, Note_off_c, 0, 83, 61
1, 62593, Control_c, 0, 67, 91
1, 62607, Control_c, 0, 64, 12
1, 62607, Control_c, 0, 67, 90
1, 62622, Control_c, 0, 64, 14
1, 62622, Control_c, 0, 67, 88
1, 62631, Note_off_c, 0, 64, 64
1, 62637, Control_c, 0, 64, 15
1, 62637, Control_c, 0, 67, 85
1, 62649, Note_on_c, 0, 67, 74
1, 62652, Control_c, 0, 64, 16
1, 62652, Control_c, 0, 67, 81
1, 62667, Control_c, 0, 64, 17
1, 62667, Control_c, 0, 67, 76
1, 62681, Control_c, 0, 67, 69
1, 62696, Control_c, 0, 67, 63
1, 62711, Note_off_c, 0, 67, 61
1, 62711, Control_c, 0, 67, 58
1, 62722, Note_on_c, 0, 64, 72
1, 62725, Control_c, 0, 67, 52
1, 62740, Control_c, 0, 64, 16
1, 62740, Control_c, 0, 67, 46
1, 62755, Control_c, 0, 64, 13
1, 62755, Control_c, 0, 67, 40
1, 62770, Control_c, 0, 64, 10
1, 62770, Control_c, 0, 67, 32
1, 62771, Note_off_c, 0, 64, 62
1, 62785, Control_c, 0, 64, 0
1, 62785, Control_c, 0, 67, 24
1, 62791, Note_on_c, 0, 67, 71
1, 62800, Control_c, 0, 67, 17
1, 62815, Control_c, 0, 67, 13
1, 62830, Control_c, 0, 67, 9
1, 62836, Note_off_c, 0, 67, 61
1, 62845, Control_c, 0, 67, 0
1, 62851, Note_on_c, 0, 79, 86
1, 62863, Note_on_c, 0, 64, 65
1, 62895, Note_off_c, 0, 73, 62
1, 62896, Note_off_c, 0, 64, 66
1, 62929, Note_on_c, 0, 67, 75
1, 62971, Note_off_c, 0, 67, 62
1, 63008, Note_on_c, 0, 66, 77
1, 63010, Note_on_c, 0, 78, 89
1, 63062, Note_off_c, 0, 66, 61
1, 63062, Note_off_c, 0, 79, 59
1, 63081, Note_on_c, 0, 70, 83
1, 63152, Note_off_c, 0, 70, 63
1, 63163, Note_on_c, 0, 66, 75
1, 63163, Control_c, 0, 64, 9
1, 63216, Note_off_c, 0, 66, 64
1, 63229, Note_on_c, 0, 70, 80
1, 63290, Note_off_c, 0, 70, 62
1, 63297, Note_on_c, 0, 76, 88
1, 63303, Note_on_c, 0, 66, 76
1, 63331, Note_off_c, 0, 78, 64
1, 63355, Note_off_c, 0, 66, 65
1, 63356, Control_c, 0, 64, 10
1, 63365, Note_off_c, 0, 76, 63
1, 63370, Note_on_c, 0, 70, 80
1, 63386, Control_c, 0, 64, 12
1, 63401, Control_c, 0, 64, 13
1, 63426, Note_off_c, 0, 70, 62
1, 63444, Note_on_c, 0, 67, 76
1, 63449, Note_on_c, 0, 76, 85
1, 63509, Note_off_c, 0, 67, 61
1, 63524, Note_on_c, 0, 71, 77
1, 63534, Control_c, 0, 64, 12
1, 63548, Control_c, 0, 64, 10
1, 63563, Control_c, 0, 64, 9
1, 63578, Control_c, 0, 64, 0
1, 63580, Note_off_c, 0, 71, 63
1, 63588, Note_on_c, 0, 67, 70
1, 63629, Note_off_c, 0, 67, 62
1, 63667, Note_on_c, 0, 71, 65
1, 63667, Control_c, 0, 67, 9
1, 63682, Control_c, 0, 67, 14
1, 63696, Note_off_c, 0, 71, 66
1, 63697, Control_c, 0, 67, 21
1, 63712, Control_c, 0, 67, 32
1, 63727, Control_c, 0, 67, 46
1, 63738, Note_off_c, 0, 76, 63
1, 63742, Note_on_c, 0, 67, 43
1, 63742, Control_c, 0, 67, 61
1, 63743, Note_on_c, 0, 74, 64
1, 63756, Control_c, 0, 67, 76
1, 63769, Note_off_c, 0, 67, 56
1, 63770, Note_off_c, 0, 74, 67
1, 63771, Control_c, 0, 67, 90
1, 63786, Control_c, 0, 67, 98
1, 63788, Note_on_c, 0, 71, 58
1, 63801, Control_c, 0, 67, 104
1, 63816, Control_c, 0, 67, 107
1, 63819, Note_off_c, 0, 71, 67
1, 63830, Control_c, 0, 67, 108
1, 63885, Note_on_c, 0, 62, 56
1, 63896, Note_on_c, 0, 71, 65
1, 63934, Note_off_c, 0, 62, 59
1, 63979, Note_on_c, 0, 66, 54
1, 64025, Note_off_c, 0, 66, 62
1, 64047, Note_on_c, 0, 62, 62
1, 64060, Control_c, 0, 67, 108
1, 64075, Control_c, 0, 67, 106
1, 64089, Control_c, 0, 67, 106
1, 64097, Note_off_c, 0, 62, 59
1, 64105, Control_c, 0, 67, 105
1, 64120, Control_c, 0, 67, 105
1, 64132, Note_on_c, 0, 66, 60
1, 64135, Control_c, 0, 67, 104
1, 64150, Control_c, 0, 67, 104
1, 64165, Control_c, 0, 67, 103
1, 64166, Note_off_c, 0, 71, 61
1, 64171, Note_off_c, 0, 66, 62
1, 64179, Control_c, 0, 67, 102
1, 64191, Note_on_c, 0, 83, 72
1, 64205, Note_on_c, 0, 62, 55
1, 64209, Control_c, 0, 67, 102
1, 64239, Control_c, 0, 67, 101
1, 64243, Note_off_c, 0, 62, 65
1, 64269, Note_on_c, 0, 66, 63
1, 64309, Note_off_c, 0, 66, 56
1, 64313, Note_off_c, 0, 83, 61
1, 64330, Note_on_c, 0, 73, 72
1, 64347, Note_on_c, 0, 64, 56
1, 64357, Control_c, 0, 67, 103
1, 64371, Control_c, 0, 67, 104
1, 64386, Control_c, 0, 67, 105
1, 64393, Note_off_c, 0, 64, 64
1, 64401, Control_c, 0, 67, 107
1, 64414, Note_on_c, 0, 67, 68
1, 64416, Control_c, 0, 67, 110
1, 64431, Control_c, 0, 67, 115
1, 64445, Control_c, 0, 67, 124
1, 64460, Control_c, 0, 67, 127
1, 64465, Note_off_c, 0, 67, 58
1, 64494, Note_on_c, 0, 64, 53
1, 64529, Note_off_c, 0, 64, 66
1, 64559, Note_on_c, 0, 67, 61
1, 64591, Note_off_c, 0, 67, 63
1, 64622, Note_on_c, 0, 64, 61
1, 64638, Note_on_c, 0, 79, 64
1, 64644, Note_off_c, 0, 73, 61
1, 64657, Note_off_c, 0, 64, 65
1, 64690, Control_c, 0, 67, 126
1, 64700, Note_on_c, 0, 67, 55
1, 64705, Control_c, 0, 67, 125
1, 64720, Control_c, 0, 67, 124
1, 64734, Note_off_c, 0, 67, 64
1, 64734, Control_c, 0, 67, 124
1, 64746, Note_off_c, 0, 79, 56
1, 64749, Control_c, 0, 67, 123
1, 64779, Control_c, 0, 67, 123
1, 64783, Note_on_c, 0, 66, 59
1, 64925, Note_off_c, 0, 66, 63
1, 64940, Note_on_c, 0, 78, 70
1, 64965, Note_off_c, 0, 78, 70
1, 65076, Control_c, 0, 67, 122
1, 65100, Note_on_c, 0, 70, 59
1, 65106, Control_c, 0, 67, 122
1, 65127, Note_off_c, 0, 70, 64
1, 65135, Control_c, 0, 67, 121
1, 65150, Control_c, 0, 67, 121
1, 65165, Control_c, 0, 67, 120
1, 65180, Control_c, 0, 67, 119
1, 65209, Control_c, 0, 67, 118
1, 65224, Control_c, 0, 67, 118
1, 65239, Control_c, 0, 67, 117
1, 65246, Note_on_c, 0, 59, 50
1, 65247, Note_on_c, 0, 71, 63
1, 65253, Control_c, 0, 67, 116
1, 65268, Control_c, 0, 67, 115
1, 65279, Note_off_c, 0, 71, 66
1, 65283, Control_c, 0, 67, 114
1, 65298, Control_c, 0, 67, 113
1, 65313, Control_c, 0, 67, 112
1, 65328, Control_c, 0, 67, 111
1, 65407, Note_on_c, 0, 74, 61
1, 65430, Note_off_c, 0, 74, 66
1, 65459, Note_off_c, 0, 59, 63
1, 65548, Note_on_c, 0, 78, 65
1, 65578, Note_off_c, 0, 78, 67
1, 65700, Note_on_c, 0, 83, 63
1, 65706, Control_c, 0, 67, 111
1, 65723, Note_off_c, 0, 83, 65
1, 65751, Control_c, 0, 67, 112
1, 65766, Control_c, 0, 67, 112
1, 65781, Control_c, 0, 67, 113
1, 65796, Control_c, 0, 67, 113
1, 65825, Control_c, 0, 67, 114
1, 65847, Note_on_c, 0, 62, 51
1, 65851, Note_on_c, 0, 66, 49
1, 65855, Control_c, 0, 67, 114
1, 65958, Control_c, 0, 67, 114
1, 65973, Control_c, 0, 67, 113
1, 65986, Note_off_c, 0, 62, 59
1, 65992, Note_off_c, 0, 66, 58
1, 66003, Control_c, 0, 67, 113
1, 66007, Note_on_c, 0, 61, 58
1, 66007, Note_on_c, 0, 64, 53
1, 66032, Control_c, 0, 67, 112
1, 66062, Control_c, 0, 67, 112
1, 66091, Control_c, 0, 67, 111
1, 66129, Control_c, 0, 67, 111
1, 66135, Note_off_c, 0, 61, 58
1, 66160, Note_on_c, 0, 59, 52
1, 66166, Note_on_c, 0, 71, 59
1, 66177, Note_on_c, 0, 62, 50
1, 66181, Note_off_c, 0, 64, 52
1, 66201, Note_off_c, 0, 71, 65
1, 66313, Note_on_c, 0, 74, 60
1, 66317, Note_off_c, 0, 59, 62
1, 66329, Note_off_c, 0, 62, 62
1, 66338, Note_off_c, 0, 74, 66
1, 66457, Note_on_c, 0, 78, 65
1, 66486, Note_off_c, 0, 78, 65
1, 66618, Note_on_c, 0, 83, 58
1, 66636, Note_off_c, 0, 83, 64
1, 66770, Note_on_c, 0, 59, 52
1, 66779, Note_on_c, 0, 62, 39
1, 66796, Control_c, 0, 67, 110
1, 66825, Control_c, 0, 67, 110
1, 66878, Control_c, 0, 67, 109
1, 66907, Control_c, 0, 67, 109
1, 66911, Note_off_c, 0, 59, 60
1, 66922, Control_c, 0, 67, 108
1, 66933, Note_on_c, 0, 57, 59
1, 66940, Note_on_c, 0, 60, 50
1, 66952, Control_c, 0, 67, 106
1, 66964, Note_off_c, 0, 62, 40
1, 66967, Control_c, 0, 67, 102
1, 66980, Control_c, 0, 67, 99
1, 66995, Control_c, 0, 67, 96
1, 67010, Control_c, 0, 67, 93
1, 67024, Control_c, 0, 67, 91
1, 67039, Control_c, 0, 67, 89
1, 67054, Control_c, 0, 67, 87
1, 67060, Note_off_c, 0, 57, 62
1, 67069, Control_c, 0, 67, 85
1, 67084, Control_c, 0, 67, 83
1, 67089, Note_on_c, 0, 55, 50
1, 67095, Note_on_c, 0, 71, 65
1, 67097, Note_on_c, 0, 59, 54
1, 67098, Control_c, 0, 67, 82
1, 67103, Note_off_c, 0, 60, 55
1, 67113, Control_c, 0, 67, 82
1, 67129, Note_off_c, 0, 71, 63
1, 67241, Note_on_c, 0, 74, 64
1, 67243, Note_off_c, 0, 55, 61
1, 67245, Note_off_c, 0, 59, 62
1, 67268, Note_off_c, 0, 74, 66
1, 67337, Control_c, 0, 67, 82
1, 67396, Note_on_c, 0, 79, 63
1, 67425, Note_off_c, 0, 79, 64
1, 67534, Note_on_c, 0, 83, 75
1, 67557, Note_off_c, 0, 83, 69
1, 67559, Control_c, 0, 67, 83
1, 67588, Control_c, 0, 67, 83
1, 67641, Control_c, 0, 67, 84
1, 67701, Note_on_c, 0, 55, 55
1, 67701, Note_on_c, 0, 59, 53
1, 67728, Control_c, 0, 67, 83
1, 67758, Control_c, 0, 67, 83
1, 67773, Control_c, 0, 67, 82
1, 67802, Control_c, 0, 67, 82
1, 67817, Control_c, 0, 67, 81
1, 67832, Control_c, 0, 67, 81
1, 67847, Control_c, 0, 67, 80
1, 67853, Note_on_c, 0, 54, 73
1, 67861, Note_off_c, 0, 55, 57
1, 67861, Control_c, 0, 67, 78
1, 67863, Note_on_c, 0, 57, 63
1, 67876, Control_c, 0, 67, 74
1, 67889, Note_off_c, 0, 59, 38
1, 67891, Control_c, 0, 67, 69
1, 67906, Control_c, 0, 67, 65
1, 67921, Control_c, 0, 67, 60
1, 67936, Control_c, 0, 67, 55
1, 67951, Control_c, 0, 67, 49
1, 67966, Control_c, 0, 67, 43
1, 67981, Control_c, 0, 67, 39
1, 67990, Note_off_c, 0, 54, 60
1, 67995, Control_c, 0, 67, 34
1, 68010, Note_on_c, 0, 55, 55
1, 68010, Control_c, 0, 67, 30
1, 68013, Note_on_c, 0, 52, 59
1, 68019, Note_on_c, 0, 71, 75
1, 68025, Control_c, 0, 67, 26
1, 68028, Note_off_c, 0, 57, 57
1, 68039, Control_c, 0, 67, 23
1, 68054, Control_c, 0, 67, 21
1, 68055, Note_off_c, 0, 71, 62
1, 68069, Control_c, 0, 67, 19
1, 68084, Control_c, 0, 67, 18
1, 68159, Control_c, 0, 67, 18
1, 68163, Note_on_c, 0, 76, 81
1, 68182, Note_off_c, 0, 52, 63
1, 68189, Note_off_c, 0, 76, 66
1, 68190, Note_off_c, 0, 55, 62
1, 68319, Note_on_c, 0, 79, 77
1, 68342, Note_off_c, 0, 79, 67
1, 68473, Note_on_c, 0, 83, 85
1, 68493, Note_off_c, 0, 83, 71
1, 68626, Note_on_c, 0, 52, 72
1, 68626, Note_on_c, 0, 55, 69
1, 68784, Note_on_c, 0, 50, 80
1, 68789, Control_c, 0, 67, 17
1, 68791, Note_on_c, 0, 53, 75
1, 68807, Note_off_c, 0, 52, 59
1, 68818, Control_c, 0, 67, 17
1, 68833, Control_c, 0, 67, 16
1, 68836, Note_off_c, 0, 55, 56
1, 68848, Control_c, 0, 67, 16
1, 68863, Control_c, 0, 67, 15
1, 68878, Control_c, 0, 67, 14
1, 68893, Control_c, 0, 67, 13
1, 68908, Control_c, 0, 67, 12
1, 68923, Control_c, 0, 67, 12
1, 68936, Note_on_c, 0, 52, 72
1, 68939, Note_off_c, 0, 50, 63
1, 68944, Note_on_c, 0, 48, 69
1, 68948, Note_on_c, 0, 72, 84
1, 68967, Control_c, 0, 67, 11
1, 68969, Note_off_c, 0, 53, 62
1, 68996, Note_off_c, 0, 72, 63
1, 69093, Note_on_c, 0, 76, 89
1, 69120, Note_off_c, 0, 48, 62
1, 69130, Note_off_c, 0, 52, 63
1, 69136, Note_off_c, 0, 76, 61
1, 69253, Note_on_c, 0, 79, 91
1, 69287, Note_off_c, 0, 79, 64
1, 69403, Note_on_c, 0, 84, 90
1, 69423, Note_off_c, 0, 84, 68
1, 69434, Control_c, 0, 64, 9
1, 69449, Control_c, 0, 64, 10
1, 69550, Note_on_c, 0, 52, 80
1, 69553, Note_on_c, 0, 48, 78
1, 69671, Control_c, 0, 64, 9
1, 69686, Control_c, 0, 64, 0
1, 69701, Note_on_c, 0, 47, 82
1, 69710, Note_on_c, 0, 50, 80
1, 69716, Control_c, 0, 67, 11
1, 69727, Note_off_c, 0, 48, 61
1, 69731, Control_c, 0, 67, 10
1, 69746, Control_c, 0, 67, 10
1, 69753, Note_off_c, 0, 52, 55
1, 69776, Control_c, 0, 67, 9
1, 69790, Control_c, 0, 67, 8
1, 69805, Control_c, 0, 67, 0
1, 69861, Note_on_c, 0, 48, 77
1, 69871, Note_on_c, 0, 72, 93
1, 69874, Note_on_c, 0, 45, 77
1, 69888, Note_off_c, 0, 47, 60
1, 69904, Note_off_c, 0, 50, 64
1, 69920, Note_off_c, 0, 72, 66
1, 70008, Note_on_c, 0, 76, 100
1, 70043, Note_off_c, 0, 76, 67
1, 70055, Note_off_c, 0, 45, 63
1, 70057, Note_off_c, 0, 48, 62
1, 70158, Note_on_c, 0, 81, 96
1, 70169, Control_c, 0, 64, 9
1, 70184, Control_c, 0, 64, 13
1, 70198, Control_c, 0, 64, 15
1, 70202, Note_off_c, 0, 81, 67
1, 70213, Control_c, 0, 64, 16
1, 70306, Note_on_c, 0, 84, 96
1, 70316, Control_c, 0, 64, 18
1, 70331, Control_c, 0, 64, 20
1, 70333, Note_off_c, 0, 84, 67
1, 70346, Control_c, 0, 64, 21
1, 70361, Control_c, 0, 64, 22
1, 70449, Control_c, 0, 64, 23
1, 70460, Note_on_c, 0, 48, 83
1, 70461, Note_on_c, 0, 45, 83
1, 70464, Control_c, 0, 64, 23
1, 70479, Control_c, 0, 64, 24
1, 70495, Control_c, 0, 64, 24
1, 70554, Control_c, 0, 64, 24
1, 70569, Control_c, 0, 64, 23
1, 70584, Control_c, 0, 64, 22
1, 70599, Control_c, 0, 64, 20
1, 70606, Note_on_c, 0, 43, 86
1, 70621, Control_c, 0, 64, 18
1, 70622, Note_on_c, 0, 47, 82
1, 70626, Note_off_c, 0, 45, 59
1, 70636, Control_c, 0, 64, 15
1, 70651, Control_c, 0, 64, 12
1, 70662, Note_off_c, 0, 48, 57
1, 70666, Control_c, 0, 64, 10
1, 70680, Control_c, 0, 64, 9
1, 70695, Control_c, 0, 64, 0
1, 70771, Note_on_c, 0, 45, 73
1, 70783, Note_on_c, 0, 42, 79
1, 70787, Note_on_c, 0, 72, 94
1, 70801, Note_off_c, 0, 47, 59
1, 70804, Note_off_c, 0, 43, 62
1, 70824, Note_off_c, 0, 72, 65
1, 70933, Note_on_c, 0, 78, 101
1, 70970, Note_off_c, 0, 78, 66
1, 70976, Control_c, 0, 64, 9
1, 70991, Control_c, 0, 64, 10
1, 71006, Control_c, 0, 64, 12
1, 71021, Note_off_c, 0, 42, 60
1, 71023, Note_off_c, 0, 45, 64
1, 71076, Note_on_c, 0, 81, 102
1, 71121, Note_off_c, 0, 81, 65
1, 71230, Note_on_c, 0, 84, 101
1, 71243, Control_c, 0, 64, 13
1, 71260, Note_off_c, 0, 84, 70
1, 71272, Control_c, 0, 64, 14
1, 71348, Control_c, 0, 64, 13
1, 71393, Note_on_c, 0, 45, 85
1, 71396, Note_on_c, 0, 42, 91
1, 71415, Control_c, 0, 64, 14
1, 71430, Control_c, 0, 64, 15
1, 71444, Control_c, 0, 64, 17
1, 71459, Control_c, 0, 64, 20
1, 71474, Control_c, 0, 64, 23
1, 71489, Control_c, 0, 64, 25
1, 71504, Control_c, 0, 64, 27
1, 71519, Control_c, 0, 64, 28
1, 71534, Control_c, 0, 64, 28
1, 71549, Control_c, 0, 64, 29
1, 71553, Note_on_c, 0, 40, 81
1, 71556, Note_on_c, 0, 43, 89
1, 71564, Control_c, 0, 64, 30
1, 71570, Note_off_c, 0, 45, 64
1, 71578, Control_c, 0, 64, 31
1, 71592, Note_off_c, 0, 42, 60
1, 71593, Control_c, 0, 64, 33
1, 71608, Control_c, 0, 64, 34
1, 71622, Control_c, 0, 64, 35
1, 71652, Control_c, 0, 64, 36
1, 71711, Control_c, 0, 64, 35
1, 71726, Control_c, 0, 64, 34
1, 71732, Note_on_c, 0, 42, 80
1, 71740, Note_on_c, 0, 71, 97
1, 71741, Note_on_c, 0, 39, 73
1, 71741, Control_c, 0, 64, 33
1, 71756, Control_c, 0, 64, 32
1, 71757, Note_off_c, 0, 43, 63
1, 71770, Control_c, 0, 64, 29
1, 71782, Note_off_c, 0, 40, 60
1, 71785, Note_off_c, 0, 71, 65
1, 71785, Control_c, 0, 64, 27
1, 71800, Control_c, 0, 64, 25
1, 71814, Control_c, 0, 64, 23
1, 71829, Control_c, 0, 64, 22
1, 71844, Control_c, 0, 64, 21
1, 71859, Control_c, 0, 64, 21
1, 71889, Control_c, 0, 64, 20
1, 71930, Note_on_c, 0, 75, 99
1, 71948, Control_c, 0, 64, 19
1, 71960, Note_off_c, 0, 75, 65
1, 71963, Control_c, 0, 64, 19
1, 71978, Control_c, 0, 64, 18
1, 72007, Control_c, 0, 64, 17
1, 72124, Note_on_c, 0, 78, 104
1, 72134, Control_c, 0, 64, 18
1, 72149, Control_c, 0, 64, 19
1, 72161, Note_off_c, 0, 78, 67
1, 72164, Control_c, 0, 64, 19
1, 72179, Control_c, 0, 64, 20
1, 72193, Control_c, 0, 64, 21
1, 72208, Control_c, 0, 64, 22
1, 72222, Control_c, 0, 64, 23
1, 72237, Control_c, 0, 64, 24
1, 72252, Control_c, 0, 64, 25
1, 72267, Control_c, 0, 64, 26
1, 72282, Control_c, 0, 64, 27
1, 72297, Control_c, 0, 64, 28
1, 72312, Control_c, 0, 64, 28
1, 72326, Control_c, 0, 64, 29
1, 72341, Control_c, 0, 64, 29
1, 72429, Note_on_c, 0, 83, 88
1, 72533, Control_c, 0, 64, 29
1, 72548, Control_c, 0, 64, 28
1, 72563, Control_c, 0, 64, 27
1, 72578, Control_c, 0, 64, 26
1, 72592, Control_c, 0, 64, 25
1, 72607, Control_c, 0, 64, 24
1, 72622, Control_c, 0, 64, 23
1, 72637, Control_c, 0, 64, 23
1, 72770, Control_c, 0, 64, 23
1, 72800, Control_c, 0, 64, 24
1, 72815, Control_c, 0, 64, 25
1, 72829, Control_c, 0, 64, 25
1, 72866, Control_c, 0, 64, 26
1, 72881, Control_c, 0, 64, 26
1, 72897, Control_c, 0, 64, 27
1, 72912, Control_c, 0, 64, 28
1, 72927, Control_c, 0, 64, 28
1, 72941, Control_c, 0, 64, 29
1, 72956, Control_c, 0, 64, 29
1, 72986, Control_c, 0, 64, 30
1, 73001, Control_c, 0, 64, 30
1, 73015, Control_c, 0, 64, 31
1, 73030, Control_c, 0, 64, 32
1, 73045, Control_c, 0, 64, 33
1, 73060, Control_c, 0, 64, 34
1, 73075, Control_c, 0, 64, 35
1, 73090, Control_c, 0, 64, 38
1, 73105, Control_c, 0, 64, 40
1, 73120, Control_c, 0, 64, 42
1, 73134, Control_c, 0, 64, 45
1, 73149, Control_c, 0, 64, 47
1, 73164, Control_c, 0, 64, 49
1, 73179, Control_c, 0, 64, 52
1, 73194, Control_c, 0, 64, 53
1, 73208, Control_c, 0, 64, 55
1, 73223, Control_c, 0, 64, 56
1, 73238, Control_c, 0, 64, 57
1, 73253, Control_c, 0, 64, 59
1, 73267, Control_c, 0, 64, 60
1, 73282, Control_c, 0, 64, 61
1, 73297, Control_c, 0, 64, 62
1, 73312, Control_c, 0, 64, 64
1, 73327, Control_c, 0, 64, 65
1, 73341, Control_c, 0, 64, 67
1, 73356, Control_c, 0, 64, 69
1, 73371, Control_c, 0, 64, 72
1, 73385, Control_c, 0, 64, 74
1, 73400, Control_c, 0, 64, 76
1, 73415, Control_c, 0, 64, 77
1, 73430, Control_c, 0, 64, 79
1, 73445, Control_c, 0, 64, 80
1, 73460, Control_c, 0, 64, 82
1, 73474, Control_c, 0, 64, 84
1, 73489, Control_c, 0, 64, 85
1, 73504, Control_c, 0, 64, 87
1, 73519, Control_c, 0, 64, 88
1, 73534, Control_c, 0, 64, 90
1, 73549, Control_c, 0, 64, 91
1, 73564, Control_c, 0, 64, 92
1, 73579, Control_c, 0, 64, 93
1, 73593, Control_c, 0, 64, 93
1, 73645, Control_c, 0, 64, 94
1, 73720, Control_c, 0, 64, 94
1, 73735, Control_c, 0, 64, 95
1, 73750, Control_c, 0, 64, 95
1, 73764, Control_c, 0, 64, 96
1, 73779, Control_c, 0, 64, 96
1, 73794, Control_c, 0, 64, 97
1, 74112, Note_off_c, 0, 39, 37
1, 74114, Note_off_c, 0, 83, 55
1, 74194, Control_c, 0, 67, 8
1, 74208, Control_c, 0, 67, 8
1, 74223, Control_c, 0, 64, 96
1, 74223, Control_c, 0, 67, 9
1, 74234, Note_off_c, 0, 42, 47
1, 74238, Control_c, 0, 64, 96
1, 74238, Control_c, 0, 67, 10
1, 74253, Control_c, 0, 64, 95
1, 74253, Control_c, 0, 67, 11
1, 74268, Control_c, 0, 64, 95
1, 74268, Control_c, 0, 67, 12
1, 74282, Control_c, 0, 64, 94
1, 74282, Control_c, 0, 67, 14
1, 74297, Control_c, 0, 64, 94
1, 74297, Control_c, 0, 67, 16
1, 74312, Control_c, 0, 64, 93
1, 74312, Control_c, 0, 67, 18
1, 74327, Control_c, 0, 64, 91
1, 74327, Control_c, 0, 67, 22
1, 74342, Control_c, 0, 64, 90
1, 74342, Control_c, 0, 67, 25
1, 74364, Control_c, 0, 64, 88
1, 74364, Control_c, 0, 67, 31
1, 74379, Control_c, 0, 64, 86
1, 74379, Control_c, 0, 67, 36
1, 74394, Control_c, 0, 64, 82
1, 74394, Control_c, 0, 67, 42
1, 74409, Control_c, 0, 64, 76
1, 74409, Control_c, 0, 67, 49
1, 74423, Control_c, 0, 64, 66
1, 74423, Control_c, 0, 67, 55
1, 74438, Control_c, 0, 64, 53
1, 74438, Control_c, 0, 67, 63
1, 74453, Control_c, 0, 64, 24
1, 74453, Control_c, 0, 67, 69
1, 74469, Control_c, 0, 64, 9
1, 74469, Control_c, 0, 67, 75
1, 74484, Control_c, 0, 67, 82
1, 74500, Control_c, 0, 67, 90
1, 74514, Control_c, 0, 67, 98
1, 74529, Control_c, 0, 67, 106
1, 74544, Control_c, 0, 67, 116
1, 74559, Control_c, 0, 67, 123
1, 74574, Control_c, 0, 67, 127
1, 74688, Note_on_c, 0, 40, 56
1, 74721, Note_off_c, 0, 40, 60
1, 74751, Control_c, 0, 64, 10
1, 74780, Control_c, 0, 64, 12
1, 74795, Control_c, 0, 64, 13
1, 74810, Control_c, 0, 64, 14
1, 74843, Note_on_c, 0, 43, 44
1, 74870, Control_c, 0, 64, 15
1, 74879, Note_off_c, 0, 43, 51
1, 74884, Control_c, 0, 64, 16
1, 74899, Control_c, 0, 64, 17
1, 74914, Control_c, 0, 64, 18
1, 74944, Control_c, 0, 64, 19
1, 74959, Control_c, 0, 64, 19
1, 74974, Control_c, 0, 64, 21
1, 74981, Note_on_c, 0, 47, 55
1, 74988, Control_c, 0, 64, 21
1, 75003, Control_c, 0, 64, 22
1, 75007, Note_off_c, 0, 47, 60
1, 75018, Control_c, 0, 64, 23
1, 75032, Control_c, 0, 64, 23
1, 75114, Control_c, 0, 64, 24
1, 75129, Control_c, 0, 64, 24
1, 75135, Note_on_c, 0, 52, 62
1, 75158, Control_c, 0, 64, 25
1, 75162, Note_off_c, 0, 52, 63
1, 75218, Control_c, 0, 64, 25
1, 75247, Control_c, 0, 64, 26
1, 75262, Control_c, 0, 64, 26
1, 75277, Control_c, 0, 64, 27
1, 75284, Note_on_c, 0, 67, 60
1, 75290, Note_on_c, 0, 59, 54
1, 75293, Control_c, 0, 64, 28
1, 75367, Control_c, 0, 64, 28
1, 75403, Note_off_c, 0, 67, 60
1, 75420, Note_off_c, 0, 59, 60
1, 75427, Note_on_c, 0, 63, 66
1, 75430, Note_on_c, 0, 57, 61
1, 75456, Control_c, 0, 64, 29
1, 75463, Note_off_c, 0, 57, 66
1, 75564, Note_on_c, 0, 40, 54
1, 75580, Note_on_c, 0, 64, 60
1, 75585, Note_on_c, 0, 55, 48
1, 75588, Note_off_c, 0, 63, 58
1, 75597, Note_off_c, 0, 40, 59
1, 75637, Note_off_c, 0, 55, 57
1, 75690, Note_off_c, 0, 64, 64
1, 75705, Note_on_c, 0, 43, 72
1, 75738, Note_off_c, 0, 43, 63
1, 75852, Note_on_c, 0, 47, 64
1, 75892, Note_off_c, 0, 47, 65
1, 75907, Control_c, 0, 67, 127
1, 75937, Control_c, 0, 67, 126
1, 75952, Control_c, 0, 67, 126
1, 75966, Control_c, 0, 67, 125
1, 75980, Control_c, 0, 67, 124
1, 75995, Control_c, 0, 67, 123
1, 76010, Control_c, 0, 67, 123
1, 76011, Note_on_c, 0, 52, 60
1, 76025, Control_c, 0, 67, 122
1, 76035, Note_off_c, 0, 52, 62
1, 76054, Control_c, 0, 67, 122
1, 76069, Control_c, 0, 67, 121
1, 76085, Control_c, 0, 67, 121
1, 76100, Control_c, 0, 67, 120
1, 76130, Control_c, 0, 67, 120
1, 76153, Note_on_c, 0, 71, 56
1, 76160, Note_on_c, 0, 67, 52
1, 76189, Control_c, 0, 67, 119
1, 76218, Control_c, 0, 64, 29
1, 76233, Control_c, 0, 67, 119
1, 76248, Control_c, 0, 67, 118
1, 76263, Control_c, 0, 64, 30
1, 76263, Control_c, 0, 67, 117
1, 76278, Control_c, 0, 67, 116
1, 76286, Note_off_c, 0, 67, 63
1, 76292, Control_c, 0, 67, 115
1, 76307, Control_c, 0, 67, 114
1, 76308, Note_on_c, 0, 69, 60
1, 76313, Note_on_c, 0, 66, 55
1, 76322, Control_c, 0, 67, 114
1, 76337, Control_c, 0, 64, 30
1, 76337, Control_c, 0, 67, 113
1, 76351, Control_c, 0, 64, 31
1, 76351, Control_c, 0, 67, 113
1, 76366, Control_c, 0, 67, 112
1, 76372, Note_off_c, 0, 71, 39
1, 76381, Control_c, 0, 64, 31
1, 76396, Control_c, 0, 67, 112
1, 76411, Control_c, 0, 64, 32
1, 76449, Note_off_c, 0, 66, 59
1, 76460, Note_on_c, 0, 52, 42
1, 76461, Note_off_c, 0, 69, 60
1, 76465, Note_on_c, 0, 67, 56
1, 76483, Note_on_c, 0, 64, 40
1, 76589, Control_c, 0, 64, 32
1, 76589, Control_c, 0, 67, 112
1, 76610, Note_off_c, 0, 64, 62
1, 76622, Note_on_c, 0, 55, 59
1, 76625, Control_c, 0, 64, 33
1, 76625, Control_c, 0, 67, 113
1, 76640, Control_c, 0, 64, 36
1, 76655, Control_c, 0, 64, 38
1, 76655, Control_c, 0, 67, 113
1, 76670, Control_c, 0, 64, 40
1, 76670, Control_c, 0, 67, 114
1, 76677, Note_off_c, 0, 67, 63
1, 76685, Control_c, 0, 64, 42
1, 76685, Control_c, 0, 67, 114
1, 76700, Control_c, 0, 64, 43
1, 76700, Control_c, 0, 67, 115
1, 76715, Control_c, 0, 64, 44
1, 76715, Control_c, 0, 67, 116
1, 76730, Control_c, 0, 64, 45
1, 76730, Control_c, 0, 67, 117
1, 76745, Control_c, 0, 64, 45
1, 76745, Control_c, 0, 67, 117
1, 76759, Control_c, 0, 67, 118
1, 76774, Control_c, 0, 64, 46
1, 76774, Control_c, 0, 67, 119
1, 76776, Note_on_c, 0, 59, 61
1, 76789, Control_c, 0, 67, 120
1, 76803, Control_c, 0, 67, 121
1, 76818, Control_c, 0, 67, 122
1, 76833, Control_c, 0, 67, 124
1, 76848, Control_c, 0, 64, 45
1, 76848, Control_c, 0, 67, 127
1, 76863, Control_c, 0, 64, 42
1, 76863, Control_c, 0, 67, 127
1, 76879, Control_c, 0, 64, 36
1, 76894, Control_c, 0, 64, 0
1, 76947, Note_on_c, 0, 64, 58
1, 77021, Note_on_c, 0, 83, 70
1, 77041, Control_c, 0, 64, 23
1, 77043, Note_off_c, 0, 52, 40
1, 77056, Control_c, 0, 64, 49
1, 77056, Control_c, 0, 67, 126
1, 77071, Control_c, 0, 64, 61
1, 77071, Control_c, 0, 67, 124
1, 77074, Note_off_c, 0, 64, 64
1, 77081, Note_on_c, 0, 81, 69
1, 77086, Control_c, 0, 64, 64
1, 77086, Control_c, 0, 67, 122
1, 77099, Note_off_c, 0, 83, 58
1, 77101, Control_c, 0, 64, 65
1, 77101, Control_c, 0, 67, 119
1, 77108, Note_off_c, 0, 55, 60
1, 77115, Note_off_c, 0, 59, 59
1, 77115, Control_c, 0, 64, 66
1, 77115, Control_c, 0, 67, 114
1, 77130, Control_c, 0, 64, 66
1, 77130, Control_c, 0, 67, 108
1, 77145, Control_c, 0, 64, 67
1, 77145, Control_c, 0, 67, 101
1, 77147, Note_on_c, 0, 79, 74
1, 77160, Control_c, 0, 67, 95
1, 77172, Note_off_c, 0, 81, 64
1, 77174, Control_c, 0, 67, 89
1, 77189, Control_c, 0, 64, 66
1, 77189, Control_c, 0, 67, 83
1, 77203, Note_on_c, 0, 78, 84
1, 77204, Control_c, 0, 67, 76
1, 77210, Note_off_c, 0, 79, 64
1, 77219, Control_c, 0, 67, 68
1, 77233, Control_c, 0, 64, 66
1, 77233, Control_c, 0, 67, 61
1, 77248, Control_c, 0, 64, 65
1, 77248, Control_c, 0, 67, 57
1, 77253, Note_off_c, 0, 78, 65
1, 77263, Control_c, 0, 64, 64
1, 77263, Control_c, 0, 67, 57
1, 77265, Note_on_c, 0, 76, 76
1, 77278, Control_c, 0, 64, 63
1, 77293, Control_c, 0, 64, 60
1, 77296, Note_off_c, 0, 76, 65
1, 77308, Control_c, 0, 64, 56
1, 77323, Control_c, 0, 64, 51
1, 77338, Control_c, 0, 64, 44
1, 77338, Control_c, 0, 67, 58
1, 77360, Note_on_c, 0, 54, 52
1, 77360, Control_c, 0, 64, 29
1, 77360, Control_c, 0, 67, 58
1, 77361, Note_on_c, 0, 76, 68
1, 77375, Control_c, 0, 64, 0
1, 77375, Control_c, 0, 67, 59
1, 77389, Control_c, 0, 67, 59
1, 77419, Control_c, 0, 67, 60
1, 77433, Control_c, 0, 67, 61
1, 77448, Control_c, 0, 67, 62
1, 77463, Control_c, 0, 67, 63
1, 77478, Control_c, 0, 67, 64
1, 77493, Control_c, 0, 67, 65
1, 77508, Control_c, 0, 64, 10
1, 77508, Control_c, 0, 67, 66
1, 77517, Note_on_c, 0, 57, 54
1, 77523, Control_c, 0, 64, 19
1, 77523, Control_c, 0, 67, 68
1, 77537, Control_c, 0, 64, 25
1, 77537, Control_c, 0, 67, 72
1, 77552, Control_c, 0, 64, 31
1, 77552, Control_c, 0, 67, 79
1, 77567, Control_c, 0, 64, 33
1, 77567, Control_c, 0, 67, 88
1, 77582, Control_c, 0, 64, 35
1, 77582, Control_c, 0, 67, 97
1, 77597, Control_c, 0, 64, 37
1, 77597, Control_c, 0, 67, 106
1, 77612, Control_c, 0, 64, 39
1, 77612, Control_c, 0, 67, 114
1, 77626, Control_c, 0, 64, 40
1, 77626, Control_c, 0, 67, 124
1, 77641, Control_c, 0, 64, 41
1, 77641, Control_c, 0, 67, 127
1, 77656, Control_c, 0, 64, 42
1, 77666, Note_on_c, 0, 60, 54
1, 77669, Note_off_c, 0, 76, 59
1, 77670, Note_on_c, 0, 75, 61
1, 77671, Control_c, 0, 64, 43
1, 77686, Control_c, 0, 64, 44
1, 77731, Control_c, 0, 64, 43
1, 77734, Note_off_c, 0, 75, 61
1, 77746, Control_c, 0, 64, 32
1, 77761, Control_c, 0, 64, 0
1, 77812, Note_on_c, 0, 63, 58
1, 77879, Control_c, 0, 64, 41
1, 77889, Note_on_c, 0, 84, 71
1, 77894, Control_c, 0, 64, 54
1, 77894, Control_c, 0, 67, 125
1, 77909, Control_c, 0, 64, 59
1, 77909, Control_c, 0, 67, 122
1, 77916, Note_off_c, 0, 54, 56
1, 77924, Control_c, 0, 64, 61
1, 77924, Control_c, 0, 67, 117
1, 77938, Control_c, 0, 64, 63
1, 77938, Control_c, 0, 67, 111
1, 77949, Note_off_c, 0, 63, 62
1, 77953, Control_c, 0, 64, 64
1, 77953, Control_c, 0, 67, 104
1, 77958, Note_on_c, 0, 83, 79
1, 77968, Control_c, 0, 64, 66
1, 77968, Control_c, 0, 67, 95
1, 77970, Note_off_c, 0, 60, 63
1, 77975, Note_off_c, 0, 57, 43
1, 77977, Note_off_c, 0, 84, 61
1, 77982, Control_c, 0, 64, 67
1, 77982, Control_c, 0, 67, 86
1, 77997, Control_c, 0, 64, 68
1, 77997, Control_c, 0, 67, 77
1, 78012, Control_c, 0, 67, 68
1, 78023, Note_on_c, 0, 81, 80
1, 78027, Control_c, 0, 67, 59
1, 78037, Note_off_c, 0, 83, 61
1, 78042, Control_c, 0, 67, 54
1, 78056, Control_c, 0, 67, 50
1, 78070, Note_off_c, 0, 81, 67
1, 78071, Control_c, 0, 67, 48
1, 78086, Control_c, 0, 64, 67
1, 78086, Control_c, 0, 67, 46
1, 78087, Note_on_c, 0, 79, 74
1, 78109, Control_c, 0, 64, 66
1, 78109, Control_c, 0, 67, 45
1, 78124, Control_c, 0, 64, 65
1, 78124, Control_c, 0, 67, 45
1, 78127, Note_off_c, 0, 79, 62
1, 78138, Control_c, 0, 64, 63
1, 78138, Control_c, 0, 67, 44
1, 78153, Control_c, 0, 64, 61
1, 78160, Note_on_c, 0, 78, 80
1, 78168, Control_c, 0, 64, 58
1, 78182, Control_c, 0, 64, 56
1, 78185, Note_off_c, 0, 78, 64
1, 78197, Control_c, 0, 64, 54
1, 78213, Control_c, 0, 64, 52
1, 78228, Control_c, 0, 64, 50
1, 78243, Control_c, 0, 64, 49
1, 78244, Note_on_c, 0, 55, 52
1, 78253, Note_on_c, 0, 78, 77
1, 78257, Control_c, 0, 64, 47
1, 78272, Control_c, 0, 64, 46
1, 78287, Control_c, 0, 64, 44
1, 78302, Control_c, 0, 64, 42
1, 78317, Control_c, 0, 64, 41
1, 78331, Control_c, 0, 64, 39
1, 78346, Control_c, 0, 64, 38
1, 78361, Control_c, 0, 64, 36
1, 78376, Control_c, 0, 64, 34
1, 78390, Control_c, 0, 64, 32
1, 78390, Control_c, 0, 67, 45
1, 78405, Control_c, 0, 64, 30
1, 78405, Control_c, 0, 67, 45
1, 78414, Note_on_c, 0, 59, 53
1, 78420, Control_c, 0, 64, 29
1, 78420, Control_c, 0, 67, 46
1, 78435, Control_c, 0, 64, 28
1, 78435, Control_c, 0, 67, 48
1, 78450, Control_c, 0, 64, 28
1, 78450, Control_c, 0, 67, 50
1, 78465, Control_c, 0, 67, 51
1, 78480, Control_c, 0, 64, 27
1, 78480, Control_c, 0, 67, 54
1, 78495, Control_c, 0, 64, 26
1, 78495, Control_c, 0, 67, 57
1, 78510, Control_c, 0, 64, 24
1, 78510, Control_c, 0, 67, 65
1, 78525, Control_c, 0, 64, 22
1, 78525, Control_c, 0, 67, 77
1, 78540, Control_c, 0, 64, 20
1, 78540, Control_c, 0, 67, 89
1, 78554, Control_c, 0, 64, 19
1, 78554, Control_c, 0, 67, 98
1, 78569, Control_c, 0, 64, 17
1, 78569, Control_c, 0, 67, 105
1, 78571, Note_on_c, 0, 63, 49
1, 78584, Note_on_c, 0, 76, 64
1, 78584, Control_c, 0, 64, 15
1, 78584, Control_c, 0, 67, 110
1, 78599, Control_c, 0, 67, 113
1, 78614, Control_c, 0, 67, 115
1, 78673, Control_c, 0, 67, 114
1, 78674, Note_off_c, 0, 76, 62
1, 78688, Control_c, 0, 67, 114
1, 78688, Note_off_c, 0, 78, 33
1, 78703, Control_c, 0, 67, 113
1, 78718, Control_c, 0, 67, 112
1, 78729, Note_off_c, 0, 63, 61
1, 78733, Control_c, 0, 67, 111
1, 78738, Note_on_c, 0, 64, 57
1, 78747, Control_c, 0, 67, 110
1, 78762, Control_c, 0, 67, 109
1, 78777, Control_c, 0, 67, 109
1, 78806, Control_c, 0, 67, 108
1, 78821, Control_c, 0, 67, 108
1, 78830, Note_on_c, 0, 83, 71
1, 78836, Control_c, 0, 67, 107
1, 78858, Control_c, 0, 67, 107
1, 78872, Note_off_c, 0, 55, 57
1, 78873, Control_c, 0, 67, 106
1, 78888, Control_c, 0, 67, 106
1, 78894, Note_on_c, 0, 81, 75
1, 78898, Note_off_c, 0, 64, 63
1, 78903, Control_c, 0, 67, 105
1, 78918, Note_off_c, 0, 83, 60
1, 78918, Control_c, 0, 67, 104
1, 78924, Note_off_c, 0, 59, 61
1, 78933, Control_c, 0, 67, 101
1, 78947, Control_c, 0, 64, 16
1, 78947, Control_c, 0, 67, 100
1, 78960, Control_c, 0, 64, 17
1, 78960, Control_c, 0, 67, 98
1, 78967, Note_on_c, 0, 79, 73
1, 78975, Control_c, 0, 64, 19
1, 78975, Control_c, 0, 67, 97
1, 78985, Note_off_c, 0, 81, 64
1, 78990, Control_c, 0, 64, 19
1, 78990, Control_c, 0, 67, 95
1, 79004, Control_c, 0, 64, 20
1, 79004, Control_c, 0, 67, 94
1, 79019, Note_on_c, 0, 78, 86
1, 79019, Control_c, 0, 67, 93
1, 79028, Note_off_c, 0, 79, 60
1, 79034, Control_c, 0, 64, 21
1, 79034, Control_c, 0, 67, 92
1, 79049, Control_c, 0, 64, 21
1, 79064, Control_c, 0, 64, 22
1, 79084, Note_off_c, 0, 78, 65
1, 79091, Note_on_c, 0, 76, 75
1, 79093, Control_c, 0, 64, 21
1, 79108, Control_c, 0, 64, 12
1, 79123, Control_c, 0, 64, 0
1, 79138, Note_off_c, 0, 76, 64
1, 79164, Note_on_c, 0, 57, 64
1, 79165, Note_on_c, 0, 84, 73
1, 79168, Control_c, 0, 67, 93
1, 79183, Note_off_c, 0, 57, 62
1, 79196, Note_off_c, 0, 84, 62
1, 79198, Control_c, 0, 67, 93
1, 79212, Control_c, 0, 67, 94
1, 79227, Control_c, 0, 67, 95
1, 79230, Note_on_c, 0, 72, 68
1, 79242, Control_c, 0, 67, 95
1, 79257, Control_c, 0, 67, 96
1, 79265, Note_off_c, 0, 72, 60
1, 79272, Control_c, 0, 67, 96
1, 79302, Control_c, 0, 67, 97
1, 79311, Note_on_c, 0, 66, 63
1, 79317, Control_c, 0, 67, 97
1, 79321, Note_on_c, 0, 81, 61
1, 79332, Control_c, 0, 67, 98
1, 79341, Note_off_c, 0, 66, 67
1, 79359, Note_off_c, 0, 81, 63
1, 79374, Note_on_c, 0, 84, 70
1, 79376, Control_c, 0, 67, 98
1, 79427, Note_off_c, 0, 84, 63
1, 79435, Control_c, 0, 67, 98
1, 79448, Note_on_c, 0, 64, 58
1, 79459, Note_on_c, 0, 79, 68
1, 79465, Control_c, 0, 67, 97
1, 79469, Note_off_c, 0, 64, 66
1, 79480, Control_c, 0, 67, 97
1, 79484, Note_off_c, 0, 79, 68
1, 79494, Control_c, 0, 67, 96
1, 79509, Control_c, 0, 67, 95
1, 79513, Note_on_c, 0, 84, 65
1, 79524, Control_c, 0, 67, 94
1, 79539, Control_c, 0, 67, 93
1, 79554, Control_c, 0, 67, 92
1, 79564, Note_off_c, 0, 84, 58
1, 79569, Control_c, 0, 67, 91
1, 79583, Control_c, 0, 67, 90
1, 79600, Note_on_c, 0, 78, 73
1, 79606, Control_c, 0, 67, 87
1, 79609, Note_on_c, 0, 62, 56
1, 79621, Control_c, 0, 67, 82
1, 79635, Control_c, 0, 67, 75
1, 79650, Control_c, 0, 67, 70
1, 79665, Control_c, 0, 67, 64
1, 79670, Note_off_c, 0, 78, 62
1, 79672, Note_on_c, 0, 81, 76
1, 79680, Control_c, 0, 67, 58
1, 79695, Control_c, 0, 67, 52
1, 79709, Control_c, 0, 67, 46
1, 79724, Control_c, 0, 67, 39
1, 79728, Note_off_c, 0, 81, 66
1, 79739, Control_c, 0, 67, 33
1, 79752, Note_on_c, 0, 86, 78
1, 79753, Control_c, 0, 67, 28
1, 79768, Control_c, 0, 67, 23
1, 79774, Note_off_c, 0, 62, 63
1, 79783, Control_c, 0, 67, 19
1, 79798, Control_c, 0, 67, 16
1, 79813, Control_c, 0, 67, 14
1, 79815, Note_on_c, 0, 84, 84
1, 79827, Control_c, 0, 64, 13
1, 79827, Control_c, 0, 67, 12
1, 79842, Control_c, 0, 64, 17
1, 79842, Control_c, 0, 67, 12
1, 79857, Control_c, 0, 64, 19
1, 79857, Control_c, 0, 67, 11
1, 79860, Note_off_c, 0, 86, 63
1, 79872, Control_c, 0, 64, 21
1, 79877, Note_on_c, 0, 83, 83
1, 79887, Control_c, 0, 64, 23
1, 79901, Control_c, 0, 64, 23
1, 79909, Note_off_c, 0, 84, 65
1, 79939, Note_on_c, 0, 81, 76
1, 79941, Note_off_c, 0, 83, 64
1, 79959, Note_off_c, 0, 81, 72
1, 79961, Control_c, 0, 64, 23
1, 79976, Control_c, 0, 64, 21
1, 79991, Control_c, 0, 64, 19
1, 80006, Control_c, 0, 64, 18
1, 80024, Note_on_c, 0, 55, 67
1, 80026, Note_on_c, 0, 83, 82
1, 80035, Control_c, 0, 64, 17
1, 80048, Note_off_c, 0, 55, 62
1, 80063, Note_off_c, 0, 83, 51
1, 80086, Note_on_c, 0, 71, 68
1, 80128, Note_off_c, 0, 71, 60
1, 80170, Control_c, 0, 67, 12
1, 80171, Note_on_c, 0, 79, 73
1, 80179, Note_on_c, 0, 64, 53
1, 80202, Note_off_c, 0, 64, 60
1, 80216, Note_off_c, 0, 79, 51
1, 80239, Note_on_c, 0, 83, 77
1, 80292, Note_off_c, 0, 83, 62
1, 80317, Control_c, 0, 64, 18
1, 80319, Note_on_c, 0, 62, 52
1, 80320, Note_on_c, 0, 78, 70
1, 80343, Note_off_c, 0, 62, 58
1, 80354, Control_c, 0, 64, 19
1, 80368, Note_off_c, 0, 78, 56
1, 80400, Note_on_c, 0, 83, 65
1, 80433, Note_off_c, 0, 83, 62
1, 80469, Note_on_c, 0, 76, 72
1, 80470, Note_on_c, 0, 60, 59
1, 80518, Note_off_c, 0, 76, 62
1, 80532, Control_c, 0, 67, 11
1, 80542, Note_on_c, 0, 79, 69
1, 80547, Control_c, 0, 64, 19
1, 80547, Control_c, 0, 67, 10
1, 80562, Control_c, 0, 64, 21
1, 80562, Control_c, 0, 67, 10
1, 80576, Control_c, 0, 64, 23
1, 80576, Control_c, 0, 67, 8
1, 80591, Control_c, 0, 64, 23
1, 80591, Control_c, 0, 67, 0
1, 80593, Note_off_c, 0, 79, 58
1, 80606, Control_c, 0, 64, 24
1, 80610, Note_on_c, 0, 84, 72
1, 80621, Control_c, 0, 64, 25
1, 80630, Note_off_c, 0, 60, 65
1, 80636, Control_c, 0, 64, 26
1, 80650, Control_c, 0, 64, 26
1, 80665, Control_c, 0, 64, 27
1, 80678, Note_on_c, 0, 83, 86
1, 80680, Control_c, 0, 64, 27
1, 80695, Control_c, 0, 64, 28
1, 80710, Control_c, 0, 64, 29
1, 80716, Note_off_c, 0, 84, 64
1, 80724, Control_c, 0, 64, 29
1, 80742, Note_on_c, 0, 81, 77
1, 80754, Control_c, 0, 64, 30
1, 80769, Control_c, 0, 64, 30
1, 80769, Note_off_c, 0, 83, 62
1, 80803, Note_on_c, 0, 79, 76
1, 80803, Note_off_c, 0, 81, 67
1, 80813, Control_c, 0, 64, 29
1, 80824, Note_off_c, 0, 79, 69
1, 80828, Control_c, 0, 64, 26
1, 80843, Control_c, 0, 64, 24
1, 80858, Control_c, 0, 64, 23
1, 80873, Control_c, 0, 64, 23
1, 80884, Note_on_c, 0, 54, 73
1, 80894, Note_on_c, 0, 81, 77
1, 80912, Note_off_c, 0, 54, 65
1, 80924, Note_on_c, 0, 79, 35
1, 80951, Note_off_c, 0, 81, 66
1, 80956, Note_off_c, 0, 79, 32
1, 80975, Note_on_c, 0, 69, 72
1, 81007, Note_off_c, 0, 69, 58
1, 81034, Note_on_c, 0, 63, 78
1, 81047, Note_on_c, 0, 78, 76
1, 81061, Note_off_c, 0, 63, 66
1, 81085, Note_off_c, 0, 78, 50
1, 81126, Note_on_c, 0, 81, 69
1, 81168, Note_off_c, 0, 81, 64
1, 81186, Note_on_c, 0, 61, 64
1, 81198, Note_on_c, 0, 76, 75
1, 81214, Note_off_c, 0, 61, 65
1, 81225, Note_off_c, 0, 76, 66
1, 81264, Note_on_c, 0, 81, 64
1, 81308, Note_off_c, 0, 81, 65
1, 81311, Control_c, 0, 64, 22
1, 81335, Note_on_c, 0, 75, 68
1, 81338, Note_on_c, 0, 59, 53
1, 81356, Control_c, 0, 64, 21
1, 81395, Note_off_c, 0, 75, 56
1, 81403, Note_on_c, 0, 78, 79
1, 81464, Note_off_c, 0, 78, 64
1, 81477, Note_on_c, 0, 83, 76
1, 81491, Note_off_c, 0, 59, 63
1, 81542, Note_on_c, 0, 81, 82
1, 81563, Control_c, 0, 64, 21
1, 81572, Note_off_c, 0, 83, 63
1, 81592, Control_c, 0, 64, 21
1, 81609, Note_on_c, 0, 79, 77
1, 81622, Control_c, 0, 64, 22
1, 81625, Note_off_c, 0, 81, 63
1, 81637, Control_c, 0, 64, 23
1, 81665, Note_off_c, 0, 79, 60
1, 81666, Note_on_c, 0, 78, 86
1, 81683, Control_c, 0, 64, 19
1, 81697, Control_c, 0, 64, 0
1, 81720, Note_off_c, 0, 78, 66
1, 81732, Note_on_c, 0, 52, 63
1, 81735, Note_on_c, 0, 79, 81
1, 81761, Note_off_c, 0, 52, 62
1, 81762, Note_off_c, 0, 79, 64
1, 81812, Note_on_c, 0, 64, 58
1, 81863, Note_off_c, 0, 64, 58
1, 81891, Note_on_c, 0, 83, 71
1, 81901, Note_on_c, 0, 54, 63
1, 81937, Note_off_c, 0, 83, 62
1, 81943, Note_on_c, 0, 81, 66
1, 81945, Note_off_c, 0, 54, 63
1, 81963, Note_on_c, 0, 79, 72
1, 81985, Note_off_c, 0, 81, 0
1, 81988, Note_on_c, 0, 64, 53
1, 81994, Note_on_c, 0, 81, 63
1, 82004, Note_off_c, 0, 79, 55
1, 82023, Note_off_c, 0, 64, 62
1, 82042, Note_on_c, 0, 83, 93
1, 82047, Note_off_c, 0, 81, 68
1, 82048, Note_on_c, 0, 55, 65
1, 82073, Note_off_c, 0, 83, 65
1, 82083, Note_off_c, 0, 55, 62
1, 82124, Note_on_c, 0, 64, 62
1, 82171, Note_off_c, 0, 64, 57
1, 82199, Note_on_c, 0, 57, 69
1, 82207, Note_on_c, 0, 78, 81
1, 82226, Note_off_c, 0, 78, 72
1, 82230, Note_off_c, 0, 57, 66
1, 82279, Note_on_c, 0, 64, 62
1, 82322, Note_off_c, 0, 64, 57
1, 82355, Note_on_c, 0, 78, 93
1, 82356, Note_on_c, 0, 57, 62
1, 82386, Note_off_c, 0, 78, 67
1, 82389, Note_off_c, 0, 57, 65
1, 82433, Note_on_c, 0, 64, 61
1, 82465, Note_off_c, 0, 64, 63
1, 82476, Control_c, 0, 67, 10
1, 82491, Control_c, 0, 67, 13
1, 82504, Note_on_c, 0, 57, 60
1, 82506, Control_c, 0, 67, 19
1, 82511, Note_on_c, 0, 78, 86
1, 82520, Control_c, 0, 67, 31
1, 82532, Note_off_c, 0, 78, 67
1, 82533, Note_off_c, 0, 57, 65
1, 82535, Control_c, 0, 67, 41
1, 82550, Control_c, 0, 67, 50
1, 82565, Control_c, 0, 67, 59
1, 82572, Note_on_c, 0, 64, 55
1, 82579, Control_c, 0, 67, 65
1, 82602, Control_c, 0, 67, 69
1, 82617, Control_c, 0, 67, 71
1, 82621, Note_off_c, 0, 64, 61
1, 82666, Note_on_c, 0, 52, 58
1, 82677, Note_on_c, 0, 79, 65
1, 82690, Note_off_c, 0, 52, 59
1, 82696, Note_off_c, 0, 79, 65
1, 82720, Control_c, 0, 67, 71
1, 82734, Control_c, 0, 67, 70
1, 82742, Note_on_c, 0, 64, 47
1, 82749, Control_c, 0, 67, 70
1, 82764, Control_c, 0, 67, 69
1, 82778, Note_off_c, 0, 64, 49
1, 82778, Control_c, 0, 67, 69
1, 82808, Control_c, 0, 67, 68
1, 82819, Note_on_c, 0, 83, 51
1, 82823, Note_on_c, 0, 54, 62
1, 82823, Control_c, 0, 67, 68
1, 82843, Note_off_c, 0, 83, 58
1, 82852, Control_c, 0, 67, 67
1, 82857, Note_on_c, 0, 81, 54
1, 82857, Note_off_c, 0, 54, 63
1, 82867, Control_c, 0, 67, 67
1, 82877, Note_off_c, 0, 81, 62
1, 82882, Control_c, 0, 67, 66
1, 82889, Note_on_c, 0, 79, 58
1, 82897, Control_c, 0, 67, 66
1, 82903, Note_on_c, 0, 64, 39
1, 82912, Note_off_c, 0, 79, 61
1, 82912, Control_c, 0, 67, 65
1, 82925, Note_on_c, 0, 81, 81
1, 82940, Note_off_c, 0, 64, 52
1, 82946, Note_on_c, 0, 83, 74
1, 82958, Note_off_c, 0, 81, 64
1, 82968, Note_on_c, 0, 55, 61
1, 82971, Note_off_c, 0, 83, 68
1, 82998, Note_off_c, 0, 55, 63
1, 83040, Note_on_c, 0, 64, 53
1, 83081, Note_off_c, 0, 64, 58
1, 83114, Note_on_c, 0, 57, 61
1, 83125, Note_on_c, 0, 78, 55
1, 83145, Note_off_c, 0, 57, 66
1, 83147, Note_off_c, 0, 78, 62
1, 83183, Note_on_c, 0, 64, 56
1, 83231, Note_off_c, 0, 64, 57
1, 83257, Note_on_c, 0, 78, 73
1, 83258, Note_on_c, 0, 57, 60
1, 83287, Note_off_c, 0, 78, 66
1, 83297, Note_off_c, 0, 57, 64
1, 83357, Note_on_c, 0, 64, 50
1, 83386, Note_off_c, 0, 64, 57
1, 83424, Note_on_c, 0, 57, 58
1, 83431, Note_on_c, 0, 78, 82
1, 83452, Note_off_c, 0, 78, 70
1, 83455, Note_off_c, 0, 57, 66
1, 83485, Note_on_c, 0, 64, 56
1, 83532, Note_off_c, 0, 64, 58
1, 83577, Note_on_c, 0, 52, 69
1, 83583, Note_on_c, 0, 79, 78
1, 83604, Note_off_c, 0, 79, 69
1, 83607, Note_off_c, 0, 52, 64
1, 83654, Note_on_c, 0, 64, 54
1, 83684, Note_off_c, 0, 64, 57
1, 83720, Note_on_c, 0, 83, 72
1, 83732, Note_on_c, 0, 54, 60
1, 83735, Control_c, 0, 67, 64
1, 83750, Control_c, 0, 67, 63
1, 83753, Note_off_c, 0, 83, 61
1, 83764, Note_off_c, 0, 54, 64
1, 83765, Control_c, 0, 67, 62
1, 83768, Note_on_c, 0, 81, 54
1, 83779, Control_c, 0, 67, 58
1, 83782, Note_on_c, 0, 79, 67
1, 83787, Note_off_c, 0, 81, 63
1, 83794, Control_c, 0, 67, 47
1, 83797, Note_on_c, 0, 64, 48
1, 83809, Control_c, 0, 67, 28
1, 83819, Note_on_c, 0, 81, 80
1, 83824, Control_c, 0, 67, 12
1, 83830, Note_off_c, 0, 79, 61
1, 83839, Control_c, 0, 67, 0
1, 83841, Note_off_c, 0, 64, 64
1, 83852, Note_on_c, 0, 83, 84
1, 83863, Note_on_c, 0, 55, 71
1, 83872, Note_off_c, 0, 81, 68
1, 83887, Note_off_c, 0, 83, 68
1, 83905, Note_off_c, 0, 55, 62
1, 83937, Note_on_c, 0, 64, 67
1, 83988, Note_off_c, 0, 64, 57
1, 84009, Note_on_c, 0, 57, 72
1, 84011, Note_on_c, 0, 78, 91
1, 84028, Note_off_c, 0, 78, 75
1, 84049, Note_off_c, 0, 57, 64
1, 84107, Note_on_c, 0, 64, 60
1, 84145, Note_off_c, 0, 64, 61
1, 84169, Note_on_c, 0, 57, 73
1, 84179, Note_on_c, 0, 78, 97
1, 84212, Note_off_c, 0, 78, 67
1, 84212, Note_off_c, 0, 57, 64
1, 84234, Note_on_c, 0, 64, 68
1, 84283, Note_off_c, 0, 64, 60
1, 84323, Note_on_c, 0, 57, 66
1, 84328, Note_on_c, 0, 78, 95
1, 84354, Note_off_c, 0, 57, 66
1, 84354, Note_off_c, 0, 78, 64
1, 84391, Note_on_c, 0, 64, 74
1, 84432, Note_off_c, 0, 64, 63
1, 84466, Note_on_c, 0, 58, 83
1, 84479, Note_on_c, 0, 76, 97
1, 84511, Note_off_c, 0, 76, 66
1, 84522, Note_off_c, 0, 58, 63
1, 84553, Note_on_c, 0, 67, 70
1, 84617, Note_off_c, 0, 67, 58
1, 84628, Note_on_c, 0, 58, 72
1, 84632, Note_on_c, 0, 76, 90
1, 84651, Note_off_c, 0, 76, 72
1, 84680, Note_off_c, 0, 58, 60
1, 84724, Note_on_c, 0, 67, 54
1, 84762, Note_off_c, 0, 67, 63
1, 84778, Note_on_c, 0, 76, 85
1, 84783, Note_on_c, 0, 58, 69
1, 84802, Note_off_c, 0, 76, 69
1, 84825, Note_off_c, 0, 58, 61
1, 84859, Note_on_c, 0, 67, 65
1, 84896, Note_off_c, 0, 67, 63
1, 84933, Note_on_c, 0, 59, 72
1, 84936, Note_on_c, 0, 75, 88
1, 84953, Note_off_c, 0, 75, 73
1, 84993, Note_off_c, 0, 59, 62
1, 85015, Note_on_c, 0, 66, 70
1, 85066, Note_off_c, 0, 66, 59
1, 85085, Note_on_c, 0, 59, 65
1, 85088, Note_on_c, 0, 75, 84
1, 85121, Note_off_c, 0, 75, 63
1, 85130, Note_off_c, 0, 59, 60
1, 85157, Note_on_c, 0, 66, 68
1, 85196, Note_off_c, 0, 66, 64
1, 85220, Note_on_c, 0, 59, 67
1, 85234, Note_on_c, 0, 75, 85
1, 85250, Note_off_c, 0, 75, 72
1, 85261, Note_off_c, 0, 59, 63
1, 85291, Note_on_c, 0, 66, 73
1, 85328, Note_off_c, 0, 66, 64
1, 85367, Note_on_c, 0, 60, 76
1, 85380, Note_on_c, 0, 70, 86
1, 85399, Note_off_c, 0, 70, 72
1, 85430, Note_off_c, 0, 60, 59
1, 85448, Note_on_c, 0, 64, 75
1, 85511, Note_off_c, 0, 64, 63
1, 85524, Note_on_c, 0, 70, 80
1, 85532, Note_on_c, 0, 60, 69
1, 85547, Note_off_c, 0, 70, 67
1, 85576, Note_off_c, 0, 60, 64
1, 85607, Note_on_c, 0, 64, 62
1, 85641, Note_off_c, 0, 64, 65
1, 85677, Note_on_c, 0, 70, 78
1, 85683, Note_on_c, 0, 60, 60
1, 85699, Note_off_c, 0, 70, 70
1, 85717, Note_off_c, 0, 60, 66
1, 85741, Note_on_c, 0, 64, 70
1, 85786, Note_off_c, 0, 64, 63
1, 85821, Note_on_c, 0, 59, 83
1, 85893, Note_on_c, 0, 71, 76
1, 85953, Note_on_c, 0, 73, 85
1, 85955, Note_off_c, 0, 71, 63
1, 85987, Note_off_c, 0, 59, 63
1, 86024, Note_on_c, 0, 75, 86
1, 86033, Note_off_c, 0, 73, 63
1, 86072, Note_off_c, 0, 75, 63
1, 86087, Note_on_c, 0, 76, 84
1, 86152, Note_on_c, 0, 78, 90
1, 86161, Note_off_c, 0, 76, 62
1, 86219, Note_on_c, 0, 79, 87
1, 86230, Note_off_c, 0, 78, 66
1, 86271, Note_off_c, 0, 79, 64
1, 86279, Note_on_c, 0, 59, 82
1, 86289, Note_on_c, 0, 71, 86
1, 86367, Note_on_c, 0, 73, 87
1, 86368, Note_on_c, 0, 61, 79
1, 86370, Note_off_c, 0, 71, 66
1, 86383, Note_off_c, 0, 59, 62
1, 86429, Note_on_c, 0, 75, 85
1, 86435, Note_on_c, 0, 63, 79
1, 86435, Note_off_c, 0, 61, 63
1, 86439, Note_off_c, 0, 73, 64
1, 86480, Note_off_c, 0, 75, 65
1, 86487, Note_off_c, 0, 63, 62
1, 86492, Note_on_c, 0, 64, 77
1, 86498, Note_on_c, 0, 76, 81
1, 86528, Note_off_c, 0, 64, 65
1, 86561, Note_on_c, 0, 78, 94
1, 86563, Note_on_c, 0, 66, 78
1, 86569, Note_off_c, 0, 76, 62
1, 86620, Note_off_c, 0, 66, 65
1, 86626, Note_on_c, 0, 79, 88
1, 86632, Note_off_c, 0, 78, 66
1, 86636, Note_on_c, 0, 67, 83
1, 86684, Note_on_c, 0, 66, 72
1, 86689, Note_off_c, 0, 67, 63
1, 86691, Note_on_c, 0, 78, 93
1, 86697, Note_off_c, 0, 79, 62
1, 86742, Note_off_c, 0, 66, 65
1, 86746, Note_on_c, 0, 64, 78
1, 86752, Note_off_c, 0, 78, 66
1, 86758, Note_on_c, 0, 76, 81
1, 86823, Note_on_c, 0, 78, 88
1, 86825, Note_off_c, 0, 76, 63
1, 86826, Note_on_c, 0, 66, 84
1, 86830, Note_off_c, 0, 64, 65
1, 86878, Note_off_c, 0, 66, 64
1, 86885, Note_on_c, 0, 79, 82
1, 86894, Note_off_c, 0, 78, 64
1, 86898, Note_on_c, 0, 67, 67
1, 86927, Note_off_c, 0, 67, 64
1, 86943, Note_on_c, 0, 81, 83
1, 86954, Note_on_c, 0, 69, 79
1, 86972, Note_off_c, 0, 79, 48
1, 87014, Note_on_c, 0, 83, 99
1, 87014, Note_off_c, 0, 69, 64
1, 87022, Note_off_c, 0, 81, 67
1, 87030, Note_on_c, 0, 71, 92
1, 87046, Note_off_c, 0, 83, 68
1, 87068, Note_off_c, 0, 71, 67
1, 87181, Note_on_c, 0, 78, 97
1, 87196, Note_on_c, 0, 66, 71
1, 87214, Note_off_c, 0, 78, 65
1, 87258, Note_off_c, 0, 66, 59
1, 87329, Note_on_c, 0, 63, 81
1, 87335, Note_on_c, 0, 75, 95
1, 87351, Note_off_c, 0, 63, 69
1, 87366, Note_off_c, 0, 75, 64
1, 87477, Note_on_c, 0, 71, 88
1, 87483, Note_on_c, 0, 59, 80
1, 87497, Note_off_c, 0, 71, 73
1, 87510, Note_off_c, 0, 59, 66
1, 87627, Note_on_c, 0, 66, 94
1, 87635, Note_on_c, 0, 54, 80
1, 87655, Note_off_c, 0, 66, 66
1, 87666, Note_off_c, 0, 54, 62
1, 87780, Note_on_c, 0, 63, 94
1, 87783, Note_on_c, 0, 51, 75
1, 87800, Note_off_c, 0, 63, 71
1, 87809, Note_off_c, 0, 51, 66
1, 87960, Note_on_c, 0, 59, 77
1, 87968, Note_on_c, 0, 47, 66
1, 88185, Control_c, 0, 67, 8
1, 88199, Control_c, 0, 67, 8
1, 88214, Control_c, 0, 67, 10
1, 88229, Control_c, 0, 67, 11
1, 88244, Control_c, 0, 67, 13
1, 88259, Control_c, 0, 67, 16
1, 88273, Control_c, 0, 67, 19
1, 88288, Control_c, 0, 67, 24
1, 88303, Control_c, 0, 67, 32
1, 88318, Control_c, 0, 64, 17
1, 88318, Control_c, 0, 67, 39
1, 88333, Control_c, 0, 64, 33
1, 88333, Control_c, 0, 67, 47
1, 88347, Control_c, 0, 64, 43
1, 88347, Control_c, 0, 67, 54
1, 88362, Control_c, 0, 64, 52
1, 88362, Control_c, 0, 67, 61
1, 88377, Control_c, 0, 64, 57
1, 88377, Control_c, 0, 67, 68
1, 88391, Control_c, 0, 64, 60
1, 88391, Control_c, 0, 67, 75
1, 88406, Control_c, 0, 64, 61
1, 88406, Control_c, 0, 67, 82
1, 88421, Control_c, 0, 64, 62
1, 88421, Control_c, 0, 67, 87
1, 88433, Note_off_c, 0, 59, 62
1, 88436, Control_c, 0, 64, 63
1, 88436, Control_c, 0, 67, 91
1, 88451, Control_c, 0, 67, 97
1, 88459, Note_off_c, 0, 47, 42
1, 88465, Control_c, 0, 67, 102
1, 88480, Control_c, 0, 67, 108
1, 88495, Control_c, 0, 64, 62
1, 88495, Control_c, 0, 67, 116
1, 88510, Control_c, 0, 64, 60
1, 88510, Control_c, 0, 67, 125
1, 88525, Control_c, 0, 64, 58
1, 88525, Control_c, 0, 67, 127
1, 88540, Control_c, 0, 64, 55
1, 88555, Control_c, 0, 64, 53
1, 88570, Control_c, 0, 64, 51
1, 88591, Control_c, 0, 64, 50
1, 88606, Control_c, 0, 64, 48
1, 88621, Control_c, 0, 64, 47
1, 88636, Control_c, 0, 64, 45
1, 88651, Control_c, 0, 64, 42
1, 88665, Control_c, 0, 64, 38
1, 88680, Control_c, 0, 64, 33
1, 88695, Control_c, 0, 64, 26
1, 88710, Control_c, 0, 64, 9
1, 88725, Control_c, 0, 64, 0
1, 89007, Control_c, 0, 64, 19
1, 89022, Control_c, 0, 64, 32
1, 89037, Control_c, 0, 64, 42
1, 89052, Control_c, 0, 64, 50
1, 89067, Control_c, 0, 64, 56
1, 89082, Control_c, 0, 64, 59
1, 89096, Control_c, 0, 64, 61
1, 89111, Control_c, 0, 64, 63
1, 89121, Note_on_c, 0, 40, 31
1, 89126, Control_c, 0, 64, 65
1, 89140, Control_c, 0, 64, 68
1, 89155, Control_c, 0, 64, 72
1, 89170, Control_c, 0, 64, 75
1, 89185, Control_c, 0, 64, 78
1, 89200, Control_c, 0, 64, 80
1, 89214, Control_c, 0, 64, 83
1, 89219, Note_off_c, 0, 40, 46
1, 89229, Control_c, 0, 64, 86
1, 89244, Control_c, 0, 64, 89
1, 89259, Control_c, 0, 64, 91
1, 89267, Note_on_c, 0, 71, 50
1, 89274, Control_c, 0, 64, 93
1, 89288, Control_c, 0, 64, 94
1, 89297, Note_on_c, 0, 67, 41
1, 89303, Control_c, 0, 64, 95
1, 89391, Note_off_c, 0, 67, 59
1, 89427, Note_on_c, 0, 69, 58
1, 89430, Note_on_c, 0, 66, 61
1, 89446, Note_off_c, 0, 71, 40
1, 89459, Control_c, 0, 64, 92
1, 89474, Control_c, 0, 64, 86
1, 89488, Control_c, 0, 64, 75
1, 89503, Control_c, 0, 64, 59
1, 89518, Control_c, 0, 64, 0
1, 89553, Note_off_c, 0, 66, 59
1, 89571, Note_off_c, 0, 69, 63
1, 89578, Note_on_c, 0, 67, 64
1, 89591, Note_on_c, 0, 64, 64
1, 89607, Control_c, 0, 64, 45
1, 89620, Note_off_c, 0, 64, 67
1, 89620, Note_off_c, 0, 67, 65
1, 89622, Control_c, 0, 64, 62
1, 89637, Control_c, 0, 64, 69
1, 89652, Control_c, 0, 64, 76
1, 89667, Control_c, 0, 64, 85
1, 89682, Control_c, 0, 64, 92
1, 89697, Control_c, 0, 64, 96
1, 89697, Control_c, 0, 67, 127
1, 89711, Control_c, 0, 64, 100
1, 89711, Control_c, 0, 67, 124
1, 89726, Control_c, 0, 64, 104
1, 89726, Control_c, 0, 67, 120
1, 89738, Note_on_c, 0, 79, 69
1, 89741, Control_c, 0, 64, 109
1, 89741, Control_c, 0, 67, 115
1, 89752, Note_on_c, 0, 71, 54
1, 89756, Control_c, 0, 64, 116
1, 89756, Control_c, 0, 67, 110
1, 89771, Control_c, 0, 64, 127
1, 89771, Control_c, 0, 67, 106
1, 89786, Control_c, 0, 67, 101
1, 89801, Control_c, 0, 67, 95
1, 89816, Control_c, 0, 67, 90
1, 89831, Control_c, 0, 67, 83
1, 89846, Control_c, 0, 67, 77
1, 89861, Control_c, 0, 67, 70
1, 89875, Control_c, 0, 67, 63
1, 89878, Note_off_c, 0, 71, 61
1, 89887, Note_on_c, 0, 76, 75
1, 89890, Control_c, 0, 67, 55
1, 89897, Note_on_c, 0, 55, 50
1, 89905, Control_c, 0, 64, 95
1, 89905, Control_c, 0, 67, 48
1, 89908, Note_on_c, 0, 52, 38
1, 89909, Note_on_c, 0, 67, 60
1, 89912, Note_off_c, 0, 79, 53
1, 89920, Control_c, 0, 64, 69
1, 89920, Control_c, 0, 67, 40
1, 89935, Control_c, 0, 64, 44
1, 89935, Control_c, 0, 67, 32
1, 89941, Note_off_c, 0, 67, 62
1, 89950, Control_c, 0, 64, 41
1, 89950, Control_c, 0, 67, 23
1, 89964, Control_c, 0, 64, 60
1, 89964, Control_c, 0, 67, 15
1, 89979, Control_c, 0, 64, 70
1, 89979, Control_c, 0, 67, 0
1, 89994, Control_c, 0, 64, 84
1, 90009, Control_c, 0, 64, 127
1, 90013, Note_off_c, 0, 55, 60
1, 90036, Note_off_c, 0, 76, 62
1, 90048, Note_on_c, 0, 75, 67
1, 90053, Note_on_c, 0, 54, 52
1, 90053, Control_c, 0, 64, 107
1, 90054, Note_off_c, 0, 52, 38
1, 90058, Note_on_c, 0, 66, 55
1, 90062, Note_on_c, 0, 57, 49
1, 90068, Control_c, 0, 64, 86
1, 90087, Note_off_c, 0, 66, 62
1, 90090, Control_c, 0, 64, 70
1, 90099, Note_off_c, 0, 75, 57
1, 90105, Control_c, 0, 64, 64
1, 90120, Control_c, 0, 64, 68
1, 90135, Control_c, 0, 64, 77
1, 90150, Control_c, 0, 64, 94
1, 90164, Control_c, 0, 64, 127
1, 90187, Note_off_c, 0, 57, 57
1, 90193, Note_off_c, 0, 54, 56
1, 90212, Note_on_c, 0, 81, 66
1, 90222, Note_on_c, 0, 78, 65
1, 90283, Control_c, 0, 64, 96
1, 90297, Control_c, 0, 64, 67
1, 90312, Control_c, 0, 64, 0
1, 90332, Note_off_c, 0, 78, 61
1, 90362, Note_on_c, 0, 79, 72
1, 90365, Note_on_c, 0, 76, 75
1, 90380, Note_off_c, 0, 81, 60
1, 90386, Control_c, 0, 64, 56
1, 90401, Control_c, 0, 64, 66
1, 90416, Control_c, 0, 64, 74
1, 90431, Control_c, 0, 64, 85
1, 90445, Control_c, 0, 64, 97
1, 90461, Control_c, 0, 64, 108
1, 90476, Control_c, 0, 64, 127
1, 90507, Note_on_c, 0, 78, 86
1, 90513, Note_on_c, 0, 75, 80
1, 90518, Note_off_c, 0, 79, 60
1, 90519, Note_off_c, 0, 76, 63
1, 90548, Note_off_c, 0, 75, 60
1, 90558, Note_off_c, 0, 78, 64
1, 90639, Control_c, 0, 64, 106
1, 90653, Control_c, 0, 64, 82
1, 90657, Note_on_c, 0, 63, 56
1, 90661, Note_on_c, 0, 84, 76
1, 90668, Note_on_c, 0, 81, 54
1, 90668, Control_c, 0, 64, 63
1, 90683, Note_on_c, 0, 59, 57
1, 90683, Control_c, 0, 64, 52
1, 90686, Note_off_c, 0, 63, 59
1, 90692, Note_off_c, 0, 81, 59
1, 90698, Control_c, 0, 64, 57
1, 90713, Control_c, 0, 64, 63
1, 90728, Control_c, 0, 64, 69
1, 90743, Control_c, 0, 64, 77
1, 90758, Control_c, 0, 64, 87
1, 90773, Control_c, 0, 64, 96
1, 90787, Control_c, 0, 64, 101
1, 90798, Note_off_c, 0, 59, 60
1, 90802, Control_c, 0, 64, 105
1, 90803, Note_on_c, 0, 63, 53
1, 90808, Note_on_c, 0, 78, 76
1, 90811, Note_on_c, 0, 81, 65
1, 90817, Control_c, 0, 64, 112
1, 90820, Note_on_c, 0, 66, 60
1, 90839, Control_c, 0, 64, 127
1, 90853, Note_off_c, 0, 84, 59
1, 90928, Control_c, 0, 64, 100
1, 90943, Control_c, 0, 64, 76
1, 90957, Control_c, 0, 64, 48
1, 90958, Note_off_c, 0, 66, 63
1, 90972, Control_c, 0, 64, 0
1, 90984, Note_off_c, 0, 78, 62
1, 90991, Note_on_c, 0, 79, 69
1, 90993, Note_off_c, 0, 81, 64
1, 90994, Note_on_c, 0, 64, 48
1, 90998, Note_on_c, 0, 67, 41
1, 91004, Note_on_c, 0, 76, 55
1, 91047, Note_off_c, 0, 63, 38
1, 91047, Control_c, 0, 64, 47
1, 91061, Control_c, 0, 64, 62
1, 91076, Control_c, 0, 64, 68
1, 91091, Control_c, 0, 64, 74
1, 91102, Note_off_c, 0, 67, 59
1, 91106, Control_c, 0, 64, 82
1, 91120, Control_c, 0, 64, 88
1, 91131, Note_off_c, 0, 76, 60
1, 91135, Control_c, 0, 64, 93
1, 91136, Note_on_c, 0, 83, 85
1, 91150, Control_c, 0, 64, 96
1, 91151, Note_off_c, 0, 64, 64
1, 91163, Note_off_c, 0, 79, 60
1, 91165, Control_c, 0, 64, 97
1, 91180, Control_c, 0, 64, 97
1, 91194, Control_c, 0, 64, 98
1, 91299, Control_c, 0, 64, 97
1, 91300, Note_on_c, 0, 71, 62
1, 91302, Note_on_c, 0, 67, 49
1, 91314, Control_c, 0, 64, 96
1, 91329, Control_c, 0, 64, 94
1, 91331, Note_off_c, 0, 71, 67
1, 91343, Control_c, 0, 64, 91
1, 91358, Control_c, 0, 64, 87
1, 91373, Control_c, 0, 64, 82
1, 91388, Control_c, 0, 64, 76
1, 91402, Control_c, 0, 64, 71
1, 91417, Control_c, 0, 64, 67
1, 91421, Note_off_c, 0, 67, 61
1, 91432, Control_c, 0, 64, 61
1, 91447, Control_c, 0, 64, 55
1, 91455, Note_on_c, 0, 72, 68
1, 91458, Note_on_c, 0, 69, 47
1, 91462, Control_c, 0, 64, 51
1, 91476, Control_c, 0, 64, 49
1, 91491, Control_c, 0, 64, 48
1, 91506, Control_c, 0, 64, 45
1, 91521, Control_c, 0, 64, 42
1, 91536, Control_c, 0, 64, 38
1, 91551, Control_c, 0, 64, 35
1, 91551, Control_c, 0, 67, 8
1, 91566, Control_c, 0, 64, 33
1, 91566, Control_c, 0, 67, 9
1, 91588, Control_c, 0, 64, 32
1, 91588, Control_c, 0, 67, 10
1, 91603, Control_c, 0, 67, 12
1, 91616, Note_on_c, 0, 81, 73
1, 91617, Control_c, 0, 67, 14
1, 91625, Note_off_c, 0, 69, 61
1, 91632, Control_c, 0, 67, 17
1, 91634, Note_on_c, 0, 66, 50
1, 91647, Control_c, 0, 64, 34
1, 91647, Control_c, 0, 67, 21
1, 91652, Note_off_c, 0, 83, 63
1, 91662, Control_c, 0, 64, 36
1, 91662, Control_c, 0, 67, 27
1, 91677, Control_c, 0, 64, 37
1, 91677, Control_c, 0, 67, 33
1, 91691, Control_c, 0, 64, 38
1, 91691, Control_c, 0, 67, 40
1, 91691, Note_off_c, 0, 72, 62
1, 91706, Control_c, 0, 67, 45
1, 91721, Control_c, 0, 67, 49
1, 91735, Control_c, 0, 67, 53
1, 91750, Control_c, 0, 64, 38
1, 91750, Control_c, 0, 67, 57
1, 91751, Note_off_c, 0, 66, 63
1, 91765, Control_c, 0, 67, 62
1, 91774, Note_on_c, 0, 64, 52
1, 91780, Control_c, 0, 67, 66
1, 91795, Control_c, 0, 67, 71
1, 91809, Control_c, 0, 67, 75
1, 91824, Control_c, 0, 67, 79
1, 91839, Control_c, 0, 64, 38
1, 91839, Control_c, 0, 67, 82
1, 91854, Control_c, 0, 64, 37
1, 91854, Control_c, 0, 67, 85
1, 91869, Control_c, 0, 64, 34
1, 91869, Control_c, 0, 67, 87
1, 91883, Control_c, 0, 64, 30
1, 91883, Control_c, 0, 67, 89
1, 91898, Control_c, 0, 64, 16
1, 91898, Control_c, 0, 67, 89
1, 91908, Note_off_c, 0, 64, 62
1, 91913, Control_c, 0, 64, 0
1, 91913, Control_c, 0, 67, 90
1, 91923, Note_on_c, 0, 63, 54
1, 91929, Note_on_c, 0, 71, 47
1, 91957, Control_c, 0, 67, 90
1, 92002, Control_c, 0, 67, 91
1, 92016, Control_c, 0, 67, 91
1, 92031, Control_c, 0, 67, 92
1, 92046, Control_c, 0, 67, 94
1, 92056, Note_off_c, 0, 63, 60
1, 92062, Control_c, 0, 67, 96
1, 92077, Control_c, 0, 67, 97
1, 92080, Note_on_c, 0, 64, 47
1, 92092, Control_c, 0, 67, 98
1, 92093, Note_on_c, 0, 79, 70
1, 92180, Control_c, 0, 67, 96
1, 92195, Control_c, 0, 67, 95
1, 92203, Note_off_c, 0, 71, 59
1, 92210, Control_c, 0, 64, 39
1, 92210, Control_c, 0, 67, 94
1, 92213, Note_off_c, 0, 81, 40
1, 92224, Control_c, 0, 64, 56
1, 92224, Control_c, 0, 67, 93
1, 92234, Note_off_c, 0, 64, 62
1, 92239, Control_c, 0, 64, 64
1, 92239, Control_c, 0, 67, 92
1, 92245, Note_on_c, 0, 67, 60
1, 92248, Note_on_c, 0, 76, 60
1, 92254, Control_c, 0, 64, 70
1, 92254, Control_c, 0, 67, 91
1, 92269, Control_c, 0, 64, 78
1, 92269, Control_c, 0, 67, 90
1, 92276, Note_off_c, 0, 67, 66
1, 92284, Control_c, 0, 64, 89
1, 92284, Control_c, 0, 67, 89
1, 92299, Control_c, 0, 64, 97
1, 92314, Control_c, 0, 64, 105
1, 92336, Control_c, 0, 64, 114
1, 92336, Control_c, 0, 67, 89
1, 92351, Control_c, 0, 64, 127
1, 92398, Note_on_c, 0, 72, 62
1, 92402, Note_on_c, 0, 69, 58
1, 92410, Control_c, 0, 67, 89
1, 92425, Control_c, 0, 64, 104
1, 92426, Note_on_c, 0, 57, 42
1, 92439, Control_c, 0, 64, 82
1, 92454, Control_c, 0, 64, 62
1, 92469, Control_c, 0, 64, 0
1, 92492, Note_off_c, 0, 76, 55
1, 92528, Control_c, 0, 67, 89
1, 92558, Control_c, 0, 64, 51
1, 92558, Control_c, 0, 67, 88
1, 92564, Note_on_c, 0, 77, 65
1, 92573, Control_c, 0, 64, 63
1, 92588, Control_c, 0, 64, 69
1, 92588, Control_c, 0, 67, 88
1, 92599, Note_off_c, 0, 79, 60
1, 92603, Control_c, 0, 64, 76
1, 92603, Control_c, 0, 67, 87
1, 92618, Control_c, 0, 64, 84
1, 92618, Control_c, 0, 67, 87
1, 92632, Control_c, 0, 64, 94
1, 92647, Control_c, 0, 64, 103
1, 92662, Control_c, 0, 64, 113
1, 92662, Control_c, 0, 67, 86
1, 92676, Control_c, 0, 64, 127
1, 92680, Note_off_c, 0, 69, 64
1, 92705, Note_on_c, 0, 81, 70
1, 92706, Control_c, 0, 67, 86
1, 92710, Note_off_c, 0, 77, 62
1, 92722, Note_off_c, 0, 72, 62
1, 92750, Control_c, 0, 67, 85
1, 92870, Control_c, 0, 64, 113
1, 92870, Control_c, 0, 67, 86
1, 92876, Note_on_c, 0, 76, 64
1, 92885, Control_c, 0, 64, 89
1, 92885, Control_c, 0, 67, 87
1, 92887, Note_on_c, 0, 71, 49
1, 92890, Note_on_c, 0, 59, 48
1, 92894, Note_on_c, 0, 67, 39
1, 92900, Control_c, 0, 64, 68
1, 92913, Note_off_c, 0, 57, 58
1, 92915, Control_c, 0, 64, 0
1, 92915, Control_c, 0, 67, 87
1, 92921, Note_off_c, 0, 81, 59
1, 92929, Control_c, 0, 67, 88
1, 92944, Control_c, 0, 67, 88
1, 92974, Control_c, 0, 67, 89
1, 92988, Control_c, 0, 67, 89
1, 93018, Control_c, 0, 64, 40
1, 93018, Control_c, 0, 67, 90
1, 93033, Control_c, 0, 64, 60
1, 93048, Control_c, 0, 64, 68
1, 93048, Control_c, 0, 67, 90
1, 93062, Control_c, 0, 64, 76
1, 93085, Control_c, 0, 64, 84
1, 93085, Control_c, 0, 67, 91
1, 93100, Control_c, 0, 64, 92
1, 93100, Control_c, 0, 67, 92
1, 93101, Note_off_c, 0, 67, 54
1, 93115, Control_c, 0, 64, 97
1, 93115, Control_c, 0, 67, 92
1, 93127, Note_off_c, 0, 71, 63
1, 93130, Control_c, 0, 64, 100
1, 93130, Control_c, 0, 67, 93
1, 93144, Control_c, 0, 64, 104
1, 93144, Control_c, 0, 67, 94
1, 93159, Control_c, 0, 64, 108
1, 93159, Control_c, 0, 67, 95
1, 93174, Control_c, 0, 64, 111
1, 93174, Control_c, 0, 67, 96
1, 93187, Control_c, 0, 64, 113
1, 93187, Control_c, 0, 67, 99
1, 93202, Control_c, 0, 64, 114
1, 93202, Control_c, 0, 67, 103
1, 93217, Control_c, 0, 67, 108
1, 93232, Control_c, 0, 67, 113
1, 93247, Control_c, 0, 67, 119
1, 93262, Control_c, 0, 67, 124
1, 93277, Control_c, 0, 67, 127
1, 93292, Control_c, 0, 64, 113
1, 93306, Control_c, 0, 64, 108
1, 93321, Control_c, 0, 64, 101
1, 93336, Control_c, 0, 64, 87
1, 93341, Note_on_c, 0, 66, 44
1, 93351, Control_c, 0, 64, 73
1, 93354, Note_on_c, 0, 69, 35
1, 93366, Control_c, 0, 64, 57
1, 93380, Control_c, 0, 64, 0
1, 93513, Control_c, 0, 64, 14
1, 93515, Note_on_c, 0, 78, 51
1, 93528, Control_c, 0, 64, 51
1, 93543, Note_off_c, 0, 76, 57
1, 93543, Control_c, 0, 64, 61
1, 93558, Control_c, 0, 64, 66
1, 93572, Control_c, 0, 64, 70
1, 93587, Control_c, 0, 64, 75
1, 93602, Control_c, 0, 64, 80
1, 93617, Control_c, 0, 64, 84
1, 93632, Control_c, 0, 64, 85
1, 93648, Control_c, 0, 64, 86
1, 93661, Note_off_c, 0, 69, 50
1, 93663, Control_c, 0, 64, 87
1, 93667, Note_on_c, 0, 75, 51
1, 93766, Control_c, 0, 64, 86
1, 93781, Control_c, 0, 64, 84
1, 93796, Control_c, 0, 64, 81
1, 93810, Control_c, 0, 64, 77
1, 93833, Control_c, 0, 64, 72
1, 93843, Note_off_c, 0, 75, 37
1, 93848, Control_c, 0, 64, 66
1, 93859, Note_on_c, 0, 76, 43
1, 93863, Control_c, 0, 64, 58
1, 93869, Note_on_c, 0, 64, 34
1, 93872, Note_on_c, 0, 67, 30
1, 93878, Control_c, 0, 64, 47
1, 93892, Control_c, 0, 64, 42
1, 93907, Control_c, 0, 64, 40
1, 93922, Control_c, 0, 64, 35
1, 93937, Control_c, 0, 64, 25
1, 93952, Control_c, 0, 64, 0
1, 93958, Note_off_c, 0, 78, 37
1, 93982, Note_off_c, 0, 66, 37
1, 94009, Note_off_c, 0, 59, 37
1, 94255, Note_off_c, 0, 64, 42
1, 94272, Note_off_c, 0, 67, 43
1, 94288, Note_off_c, 0, 76, 44
1, 94952, Control_c, 0, 64, 9
1, 94967, Control_c, 0, 64, 13
1, 94982, Control_c, 0, 64, 15
1, 94997, Control_c, 0, 64, 18
1, 95012, Control_c, 0, 64, 21
1, 95026, Control_c, 0, 64, 24
1, 95041, Control_c, 0, 64, 29
1, 95056, Control_c, 0, 64, 36
1, 95071, Control_c, 0, 64, 42
1, 95086, Control_c, 0, 64, 46
1, 95101, Control_c, 0, 64, 49
1, 95116, Control_c, 0, 64, 52
1, 95131, Control_c, 0, 64, 56
1, 95146, Control_c, 0, 64, 59
1, 95160, Control_c, 0, 64, 61
1, 95175, Control_c, 0, 64, 63
1, 95190, Control_c, 0, 64, 65
1, 95205, Control_c, 0, 64, 67
1, 95220, Control_c, 0, 64, 70
1, 95234, Control_c, 0, 64, 73
1, 95250, Control_c, 0, 64, 76
1, 95265, Control_c, 0, 64, 79
1, 95280, Control_c, 0, 64, 82
1, 95282, Note_on_c, 0, 40, 31
1, 95295, Control_c, 0, 64, 85
1, 95310, Control_c, 0, 64, 87
1, 95331, Control_c, 0, 64, 89
1, 95346, Control_c, 0, 64, 91
1, 95361, Control_c, 0, 64, 92
1, 95375, Control_c, 0, 64, 93
1, 95396, Note_off_c, 0, 40, 34
1, 95455, Note_on_c, 0, 71, 50
1, 95471, Note_on_c, 0, 67, 44
1, 95583, Control_c, 0, 64, 93
1, 95585, Note_off_c, 0, 67, 62
1, 95598, Control_c, 0, 64, 90
1, 95611, Note_on_c, 0, 66, 57
1, 95613, Control_c, 0, 64, 86
1, 95614, Note_on_c, 0, 69, 59
1, 95628, Control_c, 0, 64, 76
1, 95640, Note_off_c, 0, 71, 44
1, 95643, Control_c, 0, 64, 64
1, 95657, Control_c, 0, 64, 0
1, 95753, Note_off_c, 0, 66, 62
1, 95760, Note_off_c, 0, 69, 64
1, 95765, Note_on_c, 0, 67, 67
1, 95772, Note_on_c, 0, 64, 62
1, 95775, Control_c, 0, 64, 41
1, 95790, Control_c, 0, 64, 63
1, 95795, Note_off_c, 0, 67, 65
1, 95801, Note_off_c, 0, 64, 67
1, 95805, Control_c, 0, 64, 73
1, 95820, Control_c, 0, 64, 87
1, 95835, Control_c, 0, 64, 103
1, 95849, Control_c, 0, 64, 127
1, 95922, Note_on_c, 0, 79, 71
1, 95928, Note_on_c, 0, 71, 59
1, 96013, Control_c, 0, 64, 92
1, 96013, Control_c, 0, 67, 122
1, 96028, Control_c, 0, 64, 68
1, 96028, Control_c, 0, 67, 115
1, 96038, Note_off_c, 0, 71, 60
1, 96043, Control_c, 0, 64, 43
1, 96043, Control_c, 0, 67, 105
1, 96058, Control_c, 0, 64, 50
1, 96058, Control_c, 0, 67, 92
1, 96063, Note_on_c, 0, 76, 73
1, 96080, Note_on_c, 0, 55, 38
1, 96080, Control_c, 0, 64, 63
1, 96080, Control_c, 0, 67, 74
1, 96086, Note_on_c, 0, 67, 59
1, 96091, Note_on_c, 0, 52, 42
1, 96095, Control_c, 0, 64, 73
1, 96095, Control_c, 0, 67, 58
1, 96109, Note_off_c, 0, 79, 56
1, 96110, Control_c, 0, 64, 92
1, 96110, Control_c, 0, 67, 44
1, 96123, Note_off_c, 0, 67, 63
1, 96124, Control_c, 0, 64, 127
1, 96124, Control_c, 0, 67, 34
1, 96139, Control_c, 0, 67, 25
1, 96154, Control_c, 0, 67, 18
1, 96169, Control_c, 0, 67, 11
1, 96184, Control_c, 0, 67, 8
1, 96198, Control_c, 0, 67, 0
1, 96199, Note_off_c, 0, 55, 61
1, 96212, Note_off_c, 0, 52, 57
1, 96228, Note_on_c, 0, 54, 56
1, 96228, Note_on_c, 0, 75, 67
1, 96228, Control_c, 0, 64, 85
1, 96232, Note_on_c, 0, 66, 65
1, 96234, Note_on_c, 0, 57, 54
1, 96237, Note_off_c, 0, 76, 63
1, 96243, Control_c, 0, 64, 61
1, 96258, Control_c, 0, 64, 0
1, 96262, Note_off_c, 0, 66, 67
1, 96272, Control_c, 0, 64, 46
1, 96287, Note_off_c, 0, 75, 63
1, 96287, Control_c, 0, 64, 66
1, 96288, Note_off_c, 0, 57, 57
1, 96302, Control_c, 0, 64, 80
1, 96311, Note_off_c, 0, 54, 48
1, 96317, Control_c, 0, 64, 113
1, 96332, Control_c, 0, 64, 127
1, 96395, Note_on_c, 0, 78, 63
1, 96395, Note_on_c, 0, 81, 67
1, 96406, Control_c, 0, 64, 104
1, 96421, Control_c, 0, 64, 74
1, 96436, Control_c, 0, 64, 15
1, 96451, Control_c, 0, 64, 0
1, 96533, Note_off_c, 0, 78, 61
1, 96544, Note_on_c, 0, 79, 71
1, 96548, Note_on_c, 0, 76, 75
1, 96572, Note_off_c, 0, 81, 61
1, 96613, Control_c, 0, 64, 39
1, 96628, Control_c, 0, 64, 65
1, 96643, Control_c, 0, 64, 74
1, 96658, Control_c, 0, 64, 95
1, 96672, Control_c, 0, 64, 127
1, 96686, Note_on_c, 0, 78, 84
1, 96691, Note_on_c, 0, 75, 80
1, 96701, Note_off_c, 0, 76, 62
1, 96702, Note_off_c, 0, 79, 60
1, 96734, Note_off_c, 0, 75, 61
1, 96740, Note_off_c, 0, 78, 64
1, 96828, Control_c, 0, 64, 112
1, 96843, Note_on_c, 0, 63, 62
1, 96843, Control_c, 0, 64, 80
1, 96850, Note_on_c, 0, 84, 76
1, 96851, Note_on_c, 0, 81, 71
1, 96859, Control_c, 0, 64, 55
1, 96860, Note_on_c, 0, 59, 53
1, 96874, Control_c, 0, 64, 0
1, 96884, Note_off_c, 0, 63, 65
1, 96888, Note_off_c, 0, 81, 63
1, 96889, Control_c, 0, 64, 37
1, 96903, Control_c, 0, 64, 59
1, 96918, Control_c, 0, 64, 69
1, 96933, Control_c, 0, 64, 81
1, 96948, Control_c, 0, 64, 103
1, 96962, Control_c, 0, 64, 127
1, 96982, Note_off_c, 0, 59, 62
1, 96997, Note_on_c, 0, 78, 82
1, 97001, Note_on_c, 0, 66, 63
1, 97001, Note_on_c, 0, 81, 72
1, 97005, Note_on_c, 0, 63, 60
1, 97066, Note_off_c, 0, 84, 44
1, 97095, Control_c, 0, 64, 81
1, 97110, Control_c, 0, 64, 29
1, 97125, Control_c, 0, 64, 0
1, 97146, Note_off_c, 0, 66, 63
1, 97149, Note_off_c, 0, 63, 59
1, 97156, Note_off_c, 0, 78, 61
1, 97158, Note_on_c, 0, 79, 72
1, 97162, Note_on_c, 0, 67, 52
1, 97164, Note_on_c, 0, 64, 61
1, 97164, Note_on_c, 0, 76, 62
1, 97179, Note_off_c, 0, 81, 61
1, 97199, Control_c, 0, 64, 53
1, 97214, Control_c, 0, 64, 67
1, 97229, Control_c, 0, 64, 80
1, 97244, Control_c, 0, 64, 105
1, 97259, Control_c, 0, 64, 127
1, 97275, Note_off_c, 0, 67, 60
1, 97304, Note_off_c, 0, 76, 62
1, 97314, Note_off_c, 0, 64, 62
1, 97319, Note_on_c, 0, 83, 87
1, 97339, Note_off_c, 0, 79, 61
1, 97462, Note_on_c, 0, 71, 65
1, 97468, Note_on_c, 0, 67, 53
1, 97491, Note_off_c, 0, 71, 67
1, 97510, Control_c, 0, 64, 110
1, 97525, Control_c, 0, 64, 102
1, 97540, Control_c, 0, 64, 96
1, 97554, Control_c, 0, 64, 91
1, 97577, Control_c, 0, 64, 87
1, 97592, Control_c, 0, 64, 82
1, 97598, Note_off_c, 0, 67, 60
1, 97607, Control_c, 0, 64, 77
1, 97622, Control_c, 0, 64, 70
1, 97623, Note_on_c, 0, 69, 52
1, 97632, Note_on_c, 0, 72, 57
1, 97636, Control_c, 0, 64, 65
1, 97652, Control_c, 0, 64, 59
1, 97667, Control_c, 0, 64, 48
1, 97682, Control_c, 0, 64, 38
1, 97697, Control_c, 0, 64, 30
1, 97712, Control_c, 0, 64, 23
1, 97726, Control_c, 0, 64, 21
1, 97787, Note_on_c, 0, 81, 74
1, 97804, Note_off_c, 0, 83, 60
1, 97805, Note_on_c, 0, 66, 54
1, 97814, Note_off_c, 0, 69, 58
1, 97830, Control_c, 0, 64, 23
1, 97844, Control_c, 0, 64, 24
1, 97859, Control_c, 0, 64, 24
1, 97874, Control_c, 0, 64, 25
1, 97889, Control_c, 0, 64, 26
1, 97892, Note_off_c, 0, 72, 63
1, 97903, Control_c, 0, 64, 26
1, 97918, Control_c, 0, 64, 27
1, 97933, Note_off_c, 0, 66, 63
1, 97933, Control_c, 0, 64, 27
1, 97948, Note_on_c, 0, 64, 59
1, 97948, Control_c, 0, 64, 29
1, 97963, Control_c, 0, 64, 30
1, 97978, Control_c, 0, 64, 31
1, 97992, Control_c, 0, 64, 32
1, 98022, Control_c, 0, 64, 33
1, 98037, Control_c, 0, 64, 33
1, 98052, Control_c, 0, 64, 34
1, 98067, Control_c, 0, 64, 35
1, 98082, Control_c, 0, 64, 35
1, 98085, Note_off_c, 0, 64, 61
1, 98096, Control_c, 0, 64, 36
1, 98100, Note_on_c, 0, 63, 55
1, 98105, Note_on_c, 0, 71, 45
1, 98111, Control_c, 0, 64, 37
1, 98126, Control_c, 0, 64, 37
1, 98156, Control_c, 0, 64, 38
1, 98185, Control_c, 0, 64, 38
1, 98200, Control_c, 0, 64, 39
1, 98215, Control_c, 0, 64, 40
1, 98230, Control_c, 0, 64, 40
1, 98244, Control_c, 0, 64, 41
1, 98255, Note_off_c, 0, 63, 58
1, 98255, Note_on_c, 0, 64, 53
1, 98259, Note_on_c, 0, 79, 74
1, 98259, Control_c, 0, 64, 42
1, 98274, Control_c, 0, 64, 42
1, 98303, Control_c, 0, 64, 43
1, 98326, Control_c, 0, 64, 43
1, 98341, Control_c, 0, 64, 44
1, 98356, Control_c, 0, 64, 45
1, 98361, Note_off_c, 0, 71, 57
1, 98400, Control_c, 0, 64, 45
1, 98426, Note_on_c, 0, 76, 73
1, 98436, Note_on_c, 0, 67, 63
1, 98454, Note_off_c, 0, 64, 59
1, 98505, Control_c, 0, 64, 44
1, 98520, Control_c, 0, 64, 41
1, 98534, Control_c, 0, 64, 29
1, 98549, Control_c, 0, 64, 0
1, 98574, Note_on_c, 0, 77, 79
1, 98574, Note_off_c, 0, 81, 57
1, 98583, Note_off_c, 0, 67, 63
1, 98591, Note_on_c, 0, 69, 61
1, 98714, Note_off_c, 0, 69, 62
1, 98745, Note_on_c, 0, 71, 52
1, 98756, Note_on_c, 0, 74, 58
1, 98756, Control_c, 0, 64, 41
1, 98771, Control_c, 0, 64, 57
1, 98786, Control_c, 0, 64, 63
1, 98800, Control_c, 0, 64, 69
1, 98815, Control_c, 0, 64, 76
1, 98830, Control_c, 0, 64, 86
1, 98845, Control_c, 0, 64, 97
1, 98857, Note_off_c, 0, 71, 63
1, 98860, Control_c, 0, 64, 104
1, 98861, Note_off_c, 0, 79, 37
1, 98866, Note_off_c, 0, 77, 62
1, 98866, Note_off_c, 0, 76, 61
1, 98875, Control_c, 0, 64, 113
1, 98890, Control_c, 0, 64, 127
1, 98892, Note_on_c, 0, 69, 47
1, 99036, Note_off_c, 0, 69, 61
1, 99045, Note_on_c, 0, 76, 77
1, 99059, Note_on_c, 0, 68, 52
1, 99074, Control_c, 0, 64, 96
1, 99075, Note_off_c, 0, 74, 64
1, 99089, Control_c, 0, 64, 73
1, 99104, Control_c, 0, 64, 35
1, 99119, Control_c, 0, 64, 0
1, 99185, Note_off_c, 0, 68, 59
1, 99193, Control_c, 0, 64, 14
1, 99208, Note_on_c, 0, 69, 44
1, 99208, Control_c, 0, 64, 50
1, 99223, Note_on_c, 0, 72, 55
1, 99223, Control_c, 0, 64, 61
1, 99238, Control_c, 0, 64, 66
1, 99253, Control_c, 0, 64, 70
1, 99268, Control_c, 0, 64, 77
1, 99283, Control_c, 0, 64, 84
1, 99298, Control_c, 0, 64, 90
1, 99313, Control_c, 0, 64, 94
1, 99328, Control_c, 0, 64, 98
1, 99341, Note_off_c, 0, 69, 56
1, 99343, Control_c, 0, 64, 101
1, 99357, Control_c, 0, 64, 105
1, 99372, Note_on_c, 0, 67, 55
1, 99372, Control_c, 0, 64, 110
1, 99387, Control_c, 0, 64, 114
1, 99402, Control_c, 0, 64, 120
1, 99417, Control_c, 0, 64, 127
1, 99493, Note_off_c, 0, 67, 61
1, 99508, Note_off_c, 0, 72, 62
1, 99516, Note_on_c, 0, 66, 57
1, 99518, Note_on_c, 0, 74, 67
1, 99520, Control_c, 0, 64, 104
1, 99535, Control_c, 0, 64, 81
1, 99549, Control_c, 0, 64, 59
1, 99564, Control_c, 0, 64, 0
1, 99638, Control_c, 0, 64, 40
1, 99640, Note_off_c, 0, 66, 55
1, 99653, Control_c, 0, 64, 58
1, 99663, Note_on_c, 0, 67, 43
1, 99668, Control_c, 0, 64, 64
1, 99683, Control_c, 0, 64, 68
1, 99684, Note_on_c, 0, 71, 50
1, 99697, Control_c, 0, 64, 74
1, 99712, Control_c, 0, 64, 82
1, 99727, Control_c, 0, 64, 89
1, 99742, Control_c, 0, 64, 93
1, 99743, Note_off_c, 0, 76, 37
1, 99757, Control_c, 0, 64, 97
1, 99761, Note_off_c, 0, 74, 58
1, 99772, Control_c, 0, 64, 100
1, 99787, Control_c, 0, 64, 104
1, 99802, Control_c, 0, 64, 109
1, 99820, Note_on_c, 0, 66, 39
1, 99823, Control_c, 0, 64, 112
1, 99838, Control_c, 0, 64, 113
1, 99844, Note_off_c, 0, 67, 32
1, 99853, Control_c, 0, 64, 114
1, 99868, Control_c, 0, 64, 115
1, 99882, Control_c, 0, 64, 118
1, 99897, Control_c, 0, 64, 127
1, 99972, Note_off_c, 0, 66, 57
1, 99972, Control_c, 0, 64, 106
1, 99982, Note_on_c, 0, 72, 65
1, 99987, Control_c, 0, 64, 85
1, 99993, Note_off_c, 0, 71, 59
1, 99996, Note_on_c, 0, 64, 50
1, 100002, Control_c, 0, 64, 61
1, 100016, Control_c, 0, 64, 0
1, 100031, Control_c, 0, 67, 8
1, 100046, Control_c, 0, 67, 8
1, 100061, Control_c, 0, 67, 10
1, 100076, Control_c, 0, 67, 11
1, 100091, Control_c, 0, 64, 41
1, 100091, Control_c, 0, 67, 11
1, 100106, Control_c, 0, 64, 57
1, 100106, Control_c, 0, 67, 12
1, 100106, Note_off_c, 0, 64, 60
1, 100121, Control_c, 0, 64, 63
1, 100121, Control_c, 0, 67, 13
1, 100135, Note_on_c, 0, 66, 42
1, 100136, Control_c, 0, 64, 67
1, 100136, Control_c, 0, 67, 14
1, 100147, Note_on_c, 0, 69, 47
1, 100151, Control_c, 0, 64, 71
1, 100151, Control_c, 0, 67, 15
1, 100165, Control_c, 0, 64, 76
1, 100165, Control_c, 0, 67, 16
1, 100180, Control_c, 0, 64, 82
1, 100180, Control_c, 0, 67, 17
1, 100195, Control_c, 0, 64, 86
1, 100195, Control_c, 0, 67, 17
1, 100210, Control_c, 0, 64, 88
1, 100210, Control_c, 0, 67, 19
1, 100225, Control_c, 0, 64, 90
1, 100225, Control_c, 0, 67, 21
1, 100240, Control_c, 0, 64, 92
1, 100240, Control_c, 0, 67, 24
1, 100254, Control_c, 0, 64, 94
1, 100254, Control_c, 0, 67, 30
1, 100269, Control_c, 0, 64, 94
1, 100269, Control_c, 0, 67, 36
1, 100270, Note_off_c, 0, 66, 60
1, 100284, Control_c, 0, 64, 94
1, 100284, Control_c, 0, 67, 44
1, 100298, Control_c, 0, 67, 51
1, 100302, Note_on_c, 0, 64, 48
1, 100313, Control_c, 0, 64, 91
1, 100313, Control_c, 0, 67, 57
1, 100328, Control_c, 0, 64, 87
1, 100328, Control_c, 0, 67, 64
1, 100343, Control_c, 0, 64, 81
1, 100343, Control_c, 0, 67, 71
1, 100358, Control_c, 0, 64, 72
1, 100358, Control_c, 0, 67, 79
1, 100372, Control_c, 0, 64, 56
1, 100372, Control_c, 0, 67, 84
1, 100387, Control_c, 0, 64, 0
1, 100387, Control_c, 0, 67, 88
1, 100402, Note_off_c, 0, 64, 60
1, 100402, Control_c, 0, 67, 90
1, 100417, Control_c, 0, 67, 92
1, 100425, Note_off_c, 0, 69, 59
1, 100445, Note_on_c, 0, 63, 43
1, 100452, Note_on_c, 0, 71, 56
1, 100490, Control_c, 0, 67, 91
1, 100505, Control_c, 0, 64, 35
1, 100505, Control_c, 0, 67, 90
1, 100520, Control_c, 0, 64, 57
1, 100520, Control_c, 0, 67, 89
1, 100532, Note_off_c, 0, 72, 52
1, 100535, Control_c, 0, 64, 64
1, 100535, Control_c, 0, 67, 88
1, 100550, Control_c, 0, 64, 70
1, 100550, Control_c, 0, 67, 87
1, 100568, Note_off_c, 0, 63, 62
1, 100572, Control_c, 0, 64, 78
1, 100572, Control_c, 0, 67, 87
1, 100587, Control_c, 0, 64, 83
1, 100589, Note_off_c, 0, 71, 65
1, 100600, Note_on_c, 0, 64, 56
1, 100602, Control_c, 0, 64, 87
1, 100602, Control_c, 0, 67, 86
1, 100612, Note_on_c, 0, 67, 55
1, 100617, Control_c, 0, 64, 89
1, 100617, Control_c, 0, 67, 86
1, 100621, Note_off_c, 0, 64, 63
1, 100632, Control_c, 0, 64, 91
1, 100632, Control_c, 0, 67, 85
1, 100634, Note_off_c, 0, 67, 60
1, 100677, Control_c, 0, 64, 91
1, 100736, Control_c, 0, 64, 91
1, 100761, Note_on_c, 0, 64, 43
1, 100767, Note_on_c, 0, 76, 58
1, 100771, Note_on_c, 0, 55, 58
1, 100794, Note_off_c, 0, 64, 51
1, 100810, Control_c, 0, 64, 90
1, 100815, Note_off_c, 0, 76, 60
1, 100825, Control_c, 0, 64, 89
1, 100841, Control_c, 0, 64, 88
1, 100856, Control_c, 0, 64, 86
1, 100870, Control_c, 0, 64, 84
1, 100885, Control_c, 0, 64, 81
1, 100899, Note_off_c, 0, 55, 52
1, 100900, Control_c, 0, 64, 77
1, 100907, Note_on_c, 0, 56, 59
1, 100912, Note_on_c, 0, 65, 67
1, 100914, Control_c, 0, 64, 72
1, 100917, Note_on_c, 0, 76, 64
1, 100929, Control_c, 0, 64, 67
1, 100944, Control_c, 0, 64, 62
1, 100949, Note_off_c, 0, 76, 50
1, 100959, Control_c, 0, 64, 59
1, 100959, Control_c, 0, 67, 85
1, 100974, Control_c, 0, 64, 58
1, 100974, Control_c, 0, 67, 84
1, 100988, Control_c, 0, 64, 57
1, 100988, Control_c, 0, 67, 84
1, 101003, Control_c, 0, 64, 55
1, 101003, Control_c, 0, 67, 83
1, 101018, Control_c, 0, 64, 54
1, 101018, Control_c, 0, 67, 83
1, 101033, Control_c, 0, 64, 52
1, 101033, Control_c, 0, 67, 82
1, 101048, Control_c, 0, 64, 50
1, 101048, Control_c, 0, 67, 82
1, 101054, Note_off_c, 0, 56, 63
1, 101056, Note_on_c, 0, 66, 76
1, 101058, Note_on_c, 0, 57, 64
1, 101058, Note_on_c, 0, 76, 69
1, 101063, Control_c, 0, 64, 49
1, 101063, Control_c, 0, 67, 81
1, 101066, Note_off_c, 0, 65, 63
1, 101078, Control_c, 0, 64, 49
1, 101078, Control_c, 0, 67, 80
1, 101093, Control_c, 0, 67, 78
1, 101107, Control_c, 0, 64, 48
1, 101107, Control_c, 0, 67, 75
1, 101118, Note_off_c, 0, 76, 62
1, 101122, Control_c, 0, 64, 47
1, 101122, Control_c, 0, 67, 73
1, 101137, Control_c, 0, 64, 47
1, 101137, Control_c, 0, 67, 70
1, 101152, Control_c, 0, 67, 67
1, 101167, Control_c, 0, 67, 63
1, 101182, Control_c, 0, 67, 59
1, 101196, Control_c, 0, 67, 55
1, 101197, Note_on_c, 0, 58, 69
1, 101200, Note_on_c, 0, 67, 86
1, 101208, Note_off_c, 0, 66, 64
1, 101210, Note_off_c, 0, 57, 54
1, 101211, Control_c, 0, 64, 46
1, 101211, Control_c, 0, 67, 51
1, 101213, Note_on_c, 0, 76, 69
1, 101226, Control_c, 0, 67, 47
1, 101241, Control_c, 0, 67, 43
1, 101251, Note_off_c, 0, 76, 62
1, 101256, Control_c, 0, 67, 37
1, 101270, Control_c, 0, 67, 32
1, 101285, Control_c, 0, 67, 26
1, 101300, Control_c, 0, 67, 20
1, 101322, Control_c, 0, 67, 16
1, 101337, Control_c, 0, 67, 12
1, 101351, Note_on_c, 0, 59, 68
1, 101352, Control_c, 0, 67, 10
1, 101361, Note_on_c, 0, 68, 76
1, 101361, Note_on_c, 0, 76, 78
1, 101365, Note_off_c, 0, 67, 64
1, 101367, Control_c, 0, 67, 8
1, 101377, Note_off_c, 0, 58, 51
1, 101382, Control_c, 0, 67, 0
1, 101412, Note_off_c, 0, 76, 62
1, 101480, Note_off_c, 0, 59, 61
1, 101499, Note_on_c, 0, 69, 83
1, 101500, Note_on_c, 0, 60, 66
1, 101501, Note_off_c, 0, 68, 63
1, 101513, Note_on_c, 0, 76, 75
1, 101543, Note_off_c, 0, 76, 62
1, 101613, Note_off_c, 0, 60, 62
1, 101636, Note_on_c, 0, 61, 64
1, 101653, Note_on_c, 0, 70, 74
1, 101653, Note_on_c, 0, 76, 70
1, 101656, Note_off_c, 0, 69, 66
1, 101684, Note_off_c, 0, 76, 63
1, 101707, Control_c, 0, 64, 47
1, 101811, Control_c, 0, 64, 46
1, 101823, Note_on_c, 0, 71, 72
1, 101826, Control_c, 0, 64, 44
1, 101826, Note_on_c, 0, 76, 65
1, 101828, Note_off_c, 0, 61, 59
1, 101829, Note_on_c, 0, 67, 57
1, 101832, Note_on_c, 0, 59, 52
1, 101834, Note_off_c, 0, 70, 58
1, 101841, Control_c, 0, 64, 36
1, 101856, Control_c, 0, 64, 0
1, 102048, Control_c, 0, 64, 47
1, 102070, Control_c, 0, 64, 62
1, 102085, Control_c, 0, 64, 69
1, 102100, Control_c, 0, 64, 77
1, 102115, Control_c, 0, 64, 87
1, 102130, Control_c, 0, 64, 96
1, 102144, Control_c, 0, 64, 103
1, 102159, Control_c, 0, 64, 108
1, 102163, Note_off_c, 0, 71, 61
1, 102174, Control_c, 0, 64, 112
1, 102183, Note_off_c, 0, 67, 58
1, 102189, Control_c, 0, 64, 114
1, 102204, Control_c, 0, 64, 115
1, 102366, Control_c, 0, 64, 112
1, 102381, Control_c, 0, 64, 104
1, 102389, Note_on_c, 0, 69, 45
1, 102396, Control_c, 0, 64, 90
1, 102398, Note_on_c, 0, 66, 42
1, 102411, Control_c, 0, 64, 73
1, 102425, Control_c, 0, 64, 51
1, 102441, Control_c, 0, 64, 0
1, 102545, Control_c, 0, 64, 51
1, 102554, Note_on_c, 0, 78, 62
1, 102559, Note_off_c, 0, 76, 58
1, 102560, Control_c, 0, 64, 66
1, 102574, Control_c, 0, 64, 73
1, 102589, Control_c, 0, 64, 85
1, 102601, Note_off_c, 0, 66, 54
1, 102604, Control_c, 0, 64, 98
1, 102619, Control_c, 0, 64, 112
1, 102634, Control_c, 0, 64, 127
1, 102638, Note_off_c, 0, 59, 61
1, 102700, Note_off_c, 0, 69, 54
1, 102706, Note_on_c, 0, 75, 69
1, 102706, Note_off_c, 0, 78, 61
1, 102730, Note_off_c, 0, 75, 68
1, 102848, Control_c, 0, 64, 91
1, 102863, Control_c, 0, 64, 66
1, 102878, Note_on_c, 0, 76, 66
1, 102878, Control_c, 0, 64, 0
1, 102893, Note_on_c, 0, 64, 42
1, 102902, Note_on_c, 0, 52, 38
1, 102917, Note_off_c, 0, 76, 56
1, 102941, Note_on_c, 0, 71, 67
1, 102982, Control_c, 0, 64, 10
1, 102992, Note_off_c, 0, 71, 65
1, 103022, Note_on_c, 0, 67, 59
1, 103035, Note_off_c, 0, 64, 64
1, 103035, Note_off_c, 0, 52, 62
1, 103054, Note_off_c, 0, 67, 65
1, 103056, Control_c, 0, 64, 12
1, 103086, Control_c, 0, 64, 14
1, 103094, Note_on_c, 0, 71, 61
1, 103115, Control_c, 0, 64, 16
1, 103130, Note_off_c, 0, 71, 66
1, 103130, Control_c, 0, 64, 19
1, 103160, Control_c, 0, 64, 19
1, 103161, Note_on_c, 0, 63, 61
1, 103162, Note_on_c, 0, 69, 61
1, 103166, Note_on_c, 0, 59, 56
1, 103191, Note_off_c, 0, 59, 59
1, 103193, Note_off_c, 0, 63, 65
1, 103194, Note_off_c, 0, 69, 68
1, 103204, Control_c, 0, 64, 20
1, 103219, Control_c, 0, 64, 23
1, 103231, Note_on_c, 0, 71, 71
1, 103234, Control_c, 0, 64, 25
1, 103279, Control_c, 0, 64, 23
1, 103282, Note_off_c, 0, 71, 63
1, 103294, Control_c, 0, 64, 20
1, 103309, Control_c, 0, 64, 18
1, 103315, Note_on_c, 0, 67, 65
1, 103323, Control_c, 0, 64, 16
1, 103325, Note_on_c, 0, 64, 52
1, 103338, Control_c, 0, 64, 15
1, 103348, Note_on_c, 0, 52, 38
1, 103365, Note_off_c, 0, 67, 57
1, 103383, Control_c, 0, 64, 14
1, 103390, Note_on_c, 0, 71, 72
1, 103412, Control_c, 0, 64, 13
1, 103442, Control_c, 0, 64, 12
1, 103451, Note_off_c, 0, 71, 60
1, 103473, Note_on_c, 0, 76, 77
1, 103483, Note_off_c, 0, 64, 65
1, 103492, Note_off_c, 0, 52, 57
1, 103519, Note_off_c, 0, 76, 60
1, 103537, Note_on_c, 0, 71, 69
1, 103568, Control_c, 0, 64, 13
1, 103583, Control_c, 0, 64, 14
1, 103597, Control_c, 0, 64, 16
1, 103604, Note_off_c, 0, 71, 62
1, 103612, Control_c, 0, 64, 18
1, 103627, Note_on_c, 0, 78, 80
1, 103627, Control_c, 0, 64, 19
1, 103629, Note_on_c, 0, 63, 63
1, 103638, Note_on_c, 0, 59, 51
1, 103641, Control_c, 0, 64, 19
1, 103660, Note_off_c, 0, 63, 65
1, 103662, Note_off_c, 0, 59, 60
1, 103669, Note_off_c, 0, 78, 53
1, 103672, Control_c, 0, 64, 20
1, 103707, Note_on_c, 0, 71, 78
1, 103754, Note_off_c, 0, 71, 66
1, 103776, Control_c, 0, 64, 19
1, 103788, Note_on_c, 0, 79, 75
1, 103790, Note_on_c, 0, 64, 57
1, 103790, Control_c, 0, 64, 17
1, 103793, Note_on_c, 0, 52, 55
1, 103805, Control_c, 0, 64, 15
1, 103833, Note_off_c, 0, 79, 59
1, 103835, Control_c, 0, 64, 14
1, 103861, Note_on_c, 0, 71, 71
1, 103915, Note_off_c, 0, 71, 65
1, 103937, Note_on_c, 0, 67, 64
1, 103949, Note_off_c, 0, 64, 65
1, 103952, Note_off_c, 0, 52, 61
1, 103969, Note_off_c, 0, 67, 65
1, 103984, Control_c, 0, 64, 15
1, 104018, Note_on_c, 0, 71, 69
1, 104044, Control_c, 0, 64, 16
1, 104056, Note_off_c, 0, 71, 65
1, 104059, Control_c, 0, 64, 17
1, 104073, Control_c, 0, 64, 19
1, 104079, Note_on_c, 0, 63, 64
1, 104088, Control_c, 0, 64, 19
1, 104090, Note_on_c, 0, 69, 48
1, 104091, Note_on_c, 0, 59, 49
1, 104103, Control_c, 0, 64, 20
1, 104112, Note_off_c, 0, 63, 66
1, 104114, Note_off_c, 0, 69, 59
1, 104117, Note_off_c, 0, 59, 59
1, 104118, Control_c, 0, 64, 21
1, 104156, Note_on_c, 0, 71, 62
1, 104191, Note_off_c, 0, 71, 65
1, 104192, Control_c, 0, 64, 20
1, 104207, Control_c, 0, 64, 18
1, 104221, Control_c, 0, 64, 17
1, 104235, Note_on_c, 0, 67, 58
1, 104236, Control_c, 0, 64, 16
1, 104245, Note_on_c, 0, 64, 63
1, 104251, Control_c, 0, 64, 15
1, 104253, Note_on_c, 0, 52, 53
1, 104265, Control_c, 0, 64, 14
1, 104276, Note_off_c, 0, 67, 61
1, 104280, Control_c, 0, 64, 13
1, 104315, Note_on_c, 0, 71, 65
1, 104347, Control_c, 0, 64, 12
1, 104366, Note_off_c, 0, 64, 65
1, 104380, Note_off_c, 0, 71, 64
1, 104391, Note_on_c, 0, 76, 75
1, 104391, Note_off_c, 0, 52, 57
1, 104422, Note_off_c, 0, 76, 61
1, 104449, Control_c, 0, 64, 13
1, 104463, Note_on_c, 0, 71, 63
1, 104464, Control_c, 0, 64, 14
1, 104479, Control_c, 0, 64, 15
1, 104494, Control_c, 0, 64, 17
1, 104509, Control_c, 0, 64, 18
1, 104511, Note_off_c, 0, 71, 60
1, 104524, Control_c, 0, 64, 19
1, 104529, Note_on_c, 0, 63, 53
1, 104533, Note_on_c, 0, 59, 48
1, 104537, Note_on_c, 0, 78, 69
1, 104560, Note_off_c, 0, 59, 55
1, 104563, Note_off_c, 0, 63, 65
1, 104566, Note_off_c, 0, 78, 62
1, 104591, Note_on_c, 0, 71, 57
1, 104625, Note_off_c, 0, 71, 65
1, 104684, Note_on_c, 0, 79, 58
1, 104686, Control_c, 0, 64, 18
1, 104695, Note_on_c, 0, 64, 44
1, 104701, Control_c, 0, 64, 17
1, 104722, Note_off_c, 0, 64, 58
1, 104730, Control_c, 0, 64, 16
1, 104760, Control_c, 0, 64, 15
1, 104764, Note_on_c, 0, 71, 51
1, 104801, Note_off_c, 0, 71, 63
1, 104841, Note_on_c, 0, 67, 64
1, 104873, Note_off_c, 0, 67, 66
1, 104898, Note_on_c, 0, 71, 58
1, 104909, Control_c, 0, 64, 16
1, 104939, Control_c, 0, 64, 17
1, 104945, Note_off_c, 0, 71, 62
1, 104968, Control_c, 0, 64, 18
1, 104979, Note_on_c, 0, 64, 71
1, 104983, Control_c, 0, 64, 19
1, 104998, Control_c, 0, 64, 19
1, 105012, Note_off_c, 0, 64, 64
1, 105013, Note_off_c, 0, 79, 62
1, 105042, Control_c, 0, 64, 20
1, 105068, Note_on_c, 0, 71, 61
1, 105102, Note_off_c, 0, 71, 66
1, 105146, Note_on_c, 0, 62, 57
1, 105156, Note_on_c, 0, 77, 62
1, 105180, Note_off_c, 0, 62, 62
1, 105183, Control_c, 0, 64, 19
1, 105212, Note_on_c, 0, 71, 58
1, 105213, Control_c, 0, 64, 19
1, 105255, Note_off_c, 0, 71, 60
1, 105290, Note_on_c, 0, 67, 69
1, 105331, Note_off_c, 0, 67, 59
1, 105365, Note_on_c, 0, 71, 60
1, 105409, Note_off_c, 0, 71, 62
1, 105434, Note_on_c, 0, 62, 59
1, 105454, Note_off_c, 0, 77, 64
1, 105474, Note_off_c, 0, 62, 62
1, 105516, Note_on_c, 0, 71, 66
1, 105524, Control_c, 0, 64, 19
1, 105558, Note_off_c, 0, 71, 55
1, 105597, Note_on_c, 0, 76, 70
1, 105602, Note_on_c, 0, 60, 62
1, 105629, Note_off_c, 0, 76, 64
1, 105665, Note_on_c, 0, 79, 61
1, 105707, Note_off_c, 0, 79, 61
1, 105736, Note_on_c, 0, 76, 69
1, 105757, Note_off_c, 0, 60, 60
1, 105774, Note_off_c, 0, 76, 58
1, 105808, Note_on_c, 0, 79, 61
1, 105839, Note_off_c, 0, 79, 64
1, 105885, Note_on_c, 0, 77, 60
1, 105888, Control_c, 0, 64, 19
1, 105892, Note_on_c, 0, 67, 66
1, 105894, Note_on_c, 0, 71, 59
1, 105903, Control_c, 0, 64, 18
1, 105912, Note_off_c, 0, 71, 63
1, 105917, Control_c, 0, 64, 16
1, 105922, Note_off_c, 0, 67, 66
1, 105931, Note_off_c, 0, 77, 61
1, 105933, Note_on_c, 0, 79, 64
1, 105947, Control_c, 0, 64, 15
1, 105977, Control_c, 0, 64, 14
1, 105984, Note_off_c, 0, 79, 56
1, 106006, Control_c, 0, 64, 13
1, 106027, Note_on_c, 0, 76, 70
1, 106039, Note_on_c, 0, 72, 58
1, 106048, Note_on_c, 0, 60, 50
1, 106074, Note_off_c, 0, 76, 60
1, 106112, Note_on_c, 0, 79, 73
1, 106169, Control_c, 0, 64, 12
1, 106172, Note_off_c, 0, 79, 56
1, 106184, Control_c, 0, 64, 0
1, 106190, Note_off_c, 0, 72, 62
1, 106193, Note_on_c, 0, 84, 79
1, 106200, Note_off_c, 0, 60, 62
1, 106231, Note_off_c, 0, 84, 62
1, 106261, Note_on_c, 0, 79, 79
1, 106294, Note_off_c, 0, 79, 60
1, 106333, Note_on_c, 0, 86, 83
1, 106341, Note_on_c, 0, 67, 67
1, 106344, Note_on_c, 0, 71, 64
1, 106362, Note_off_c, 0, 71, 66
1, 106369, Note_off_c, 0, 67, 67
1, 106380, Note_off_c, 0, 86, 63
1, 106404, Note_on_c, 0, 79, 77
1, 106454, Note_off_c, 0, 79, 63
1, 106492, Note_on_c, 0, 88, 94
1, 106495, Note_on_c, 0, 60, 66
1, 106495, Note_on_c, 0, 72, 69
1, 106548, Note_off_c, 0, 88, 64
1, 106577, Note_on_c, 0, 79, 75
1, 106631, Note_off_c, 0, 79, 59
1, 106649, Note_off_c, 0, 72, 60
1, 106657, Note_on_c, 0, 76, 65
1, 106663, Note_off_c, 0, 60, 60
1, 106683, Note_off_c, 0, 76, 66
1, 106741, Note_on_c, 0, 79, 60
1, 106774, Note_off_c, 0, 79, 64
1, 106797, Note_on_c, 0, 67, 59
1, 106804, Note_on_c, 0, 71, 51
1, 106804, Note_on_c, 0, 77, 49
1, 106825, Note_off_c, 0, 67, 63
1, 106825, Note_off_c, 0, 71, 60
1, 106828, Note_off_c, 0, 77, 60
1, 106859, Note_on_c, 0, 79, 65
1, 106902, Note_off_c, 0, 79, 57
1, 106941, Note_on_c, 0, 72, 68
1, 106942, Note_on_c, 0, 76, 66
1, 106946, Note_on_c, 0, 60, 59
1, 106989, Note_off_c, 0, 76, 57
1, 107016, Note_on_c, 0, 79, 72
1, 107073, Note_off_c, 0, 72, 61
1, 107090, Note_off_c, 0, 79, 61
1, 107092, Note_off_c, 0, 60, 59
1, 107099, Note_on_c, 0, 84, 79
1, 107147, Note_off_c, 0, 84, 63
1, 107161, Note_on_c, 0, 79, 78
1, 107212, Note_off_c, 0, 79, 62
1, 107233, Note_on_c, 0, 71, 60
1, 107236, Note_on_c, 0, 67, 63
1, 107239, Note_on_c, 0, 86, 78
1, 107254, Note_off_c, 0, 71, 65
1, 107265, Note_off_c, 0, 67, 64
1, 107283, Note_off_c, 0, 86, 61
1, 107315, Note_on_c, 0, 79, 79
1, 107346, Note_off_c, 0, 79, 61
1, 107382, Note_on_c, 0, 72, 74
1, 107391, Note_on_c, 0, 88, 88
1, 107409, Note_off_c, 0, 88, 74
1, 107426, Note_off_c, 0, 72, 64
1, 107463, Note_on_c, 0, 76, 62
1, 107508, Note_off_c, 0, 76, 56
1, 107540, Note_on_c, 0, 81, 73
1, 107543, Note_on_c, 0, 72, 61
1, 107561, Note_off_c, 0, 81, 70
1, 107577, Note_off_c, 0, 72, 66
1, 107628, Note_on_c, 0, 76, 52
1, 107653, Note_off_c, 0, 76, 59
1, 107683, Note_on_c, 0, 81, 83
1, 107692, Note_on_c, 0, 72, 45
1, 107704, Note_off_c, 0, 81, 70
1, 107718, Note_off_c, 0, 72, 56
1, 107747, Note_on_c, 0, 76, 50
1, 107782, Note_off_c, 0, 76, 63
1, 107827, Note_on_c, 0, 86, 70
1, 107833, Note_on_c, 0, 71, 45
1, 107857, Note_off_c, 0, 86, 66
1, 107859, Note_off_c, 0, 71, 58
1, 107904, Note_on_c, 0, 74, 51
1, 107944, Note_off_c, 0, 74, 61
1, 107972, Note_on_c, 0, 71, 49
1, 107976, Note_on_c, 0, 80, 69
1, 107999, Note_off_c, 0, 80, 66
1, 108014, Note_off_c, 0, 71, 65
1, 108048, Note_on_c, 0, 74, 48
1, 108092, Note_off_c, 0, 74, 64
1, 108126, Note_on_c, 0, 71, 53
1, 108133, Note_on_c, 0, 80, 70
1, 108159, Note_off_c, 0, 80, 67
1, 108163, Note_off_c, 0, 71, 63
1, 108197, Note_on_c, 0, 74, 50
1, 108229, Note_off_c, 0, 74, 66
1, 108268, Note_on_c, 0, 84, 73
1, 108282, Note_on_c, 0, 69, 45
1, 108300, Note_off_c, 0, 84, 62
1, 108308, Note_off_c, 0, 69, 59
1, 108351, Note_on_c, 0, 72, 51
1, 108381, Note_off_c, 0, 72, 57
1, 108416, Note_on_c, 0, 69, 40
1, 108428, Note_on_c, 0, 77, 64
1, 108445, Note_off_c, 0, 77, 66
1, 108460, Note_off_c, 0, 69, 65
1, 108482, Note_on_c, 0, 72, 48
1, 108521, Note_off_c, 0, 72, 62
1, 108571, Note_on_c, 0, 77, 65
1, 108581, Note_on_c, 0, 69, 28
1, 108597, Note_off_c, 0, 77, 67
1, 108616, Note_off_c, 0, 69, 53
1, 108625, Note_on_c, 0, 72, 56
1, 108666, Note_off_c, 0, 72, 65
1, 108715, Note_on_c, 0, 83, 73
1, 108736, Note_on_c, 0, 67, 27
1, 108742, Note_off_c, 0, 83, 64
1, 108772, Note_off_c, 0, 67, 46
1, 108807, Note_on_c, 0, 71, 55
1, 108849, Note_off_c, 0, 71, 63
1, 108867, Note_on_c, 0, 67, 57
1, 108882, Note_on_c, 0, 76, 70
1, 108900, Note_off_c, 0, 76, 66
1, 108908, Note_off_c, 0, 67, 63
1, 108940, Note_on_c, 0, 71, 57
1, 108989, Note_off_c, 0, 71, 59
1, 109026, Note_on_c, 0, 76, 74
1, 109030, Note_on_c, 0, 67, 59
1, 109052, Note_off_c, 0, 76, 68
1, 109061, Note_off_c, 0, 67, 65
1, 109105, Note_on_c, 0, 71, 56
1, 109125, Note_off_c, 0, 71, 62
1, 109162, Note_on_c, 0, 66, 64
1, 109177, Note_on_c, 0, 81, 64
1, 109195, Note_off_c, 0, 66, 64
1, 109196, Note_off_c, 0, 81, 63
1, 109245, Note_on_c, 0, 69, 61
1, 109289, Note_off_c, 0, 69, 58
1, 109317, Note_on_c, 0, 66, 67
1, 109318, Note_on_c, 0, 75, 81
1, 109343, Note_off_c, 0, 75, 62
1, 109345, Note_off_c, 0, 66, 66
1, 109400, Note_on_c, 0, 69, 55
1, 109440, Note_off_c, 0, 69, 65
1, 109454, Note_on_c, 0, 66, 67
1, 109474, Note_on_c, 0, 75, 88
1, 109499, Note_off_c, 0, 66, 61
1, 109509, Note_off_c, 0, 75, 62
1, 109534, Note_on_c, 0, 69, 68
1, 109588, Note_off_c, 0, 69, 65
1, 109617, Note_on_c, 0, 79, 88
1, 109621, Note_on_c, 0, 64, 62
1, 109657, Note_off_c, 0, 79, 64
1, 109663, Note_off_c, 0, 64, 63
1, 109697, Note_on_c, 0, 67, 68
1, 109741, Note_off_c, 0, 67, 59
1, 109764, Note_on_c, 0, 70, 85
1, 109772, Note_on_c, 0, 64, 62
1, 109793, Note_off_c, 0, 70, 62
1, 109806, Note_off_c, 0, 64, 66
1, 109842, Note_on_c, 0, 67, 59
1, 109875, Note_off_c, 0, 67, 64
1, 109904, Note_on_c, 0, 64, 65
1, 109923, Note_on_c, 0, 70, 81
1, 109938, Note_off_c, 0, 64, 64
1, 109944, Note_off_c, 0, 70, 71
1, 109970, Note_on_c, 0, 67, 56
1, 110039, Note_off_c, 0, 67, 59
1, 110050, Note_on_c, 0, 63, 67
1, 110071, Note_on_c, 0, 78, 62
1, 110092, Note_off_c, 0, 63, 61
1, 110092, Note_off_c, 0, 78, 42
1, 110122, Note_on_c, 0, 66, 66
1, 110184, Note_off_c, 0, 66, 62
1, 110190, Note_on_c, 0, 63, 76
1, 110199, Note_on_c, 0, 71, 80
1, 110240, Note_off_c, 0, 71, 67
1, 110252, Note_off_c, 0, 63, 62
1, 110272, Note_on_c, 0, 66, 63
1, 110322, Note_off_c, 0, 66, 58
1, 110350, Note_on_c, 0, 63, 68
1, 110351, Note_on_c, 0, 71, 84
1, 110393, Note_off_c, 0, 71, 65
1, 110396, Note_off_c, 0, 63, 63
1, 110417, Note_on_c, 0, 66, 66
1, 110459, Note_off_c, 0, 66, 55
1, 110496, Note_on_c, 0, 81, 88
1, 110501, Note_on_c, 0, 63, 64
1, 110532, Note_off_c, 0, 81, 67
1, 110539, Note_off_c, 0, 63, 64
1, 110557, Note_on_c, 0, 66, 74
1, 110610, Note_off_c, 0, 66, 56
1, 110637, Note_on_c, 0, 63, 68
1, 110649, Note_on_c, 0, 69, 78
1, 110679, Note_off_c, 0, 63, 62
1, 110688, Note_off_c, 0, 69, 67
1, 110702, Note_on_c, 0, 66, 61
1, 110741, Note_off_c, 0, 66, 65
1, 110760, Note_on_c, 0, 63, 61
1, 110798, Note_on_c, 0, 69, 74
1, 110817, Note_off_c, 0, 63, 62
1, 110834, Note_on_c, 0, 66, 67
1, 110837, Note_off_c, 0, 69, 60
1, 110903, Note_off_c, 0, 66, 60
1, 110926, Note_on_c, 0, 64, 70
1, 110936, Note_on_c, 0, 79, 83
1, 110977, Note_off_c, 0, 79, 57
1, 111012, Note_on_c, 0, 71, 78
1, 111073, Note_off_c, 0, 64, 65
1, 111077, Note_off_c, 0, 71, 64
1, 111098, Note_on_c, 0, 67, 71
1, 111130, Note_off_c, 0, 67, 63
1, 111178, Note_on_c, 0, 71, 69
1, 111189, Control_c, 0, 64, 23
1, 111204, Control_c, 0, 64, 29
1, 111219, Control_c, 0, 64, 31
1, 111222, Note_on_c, 0, 59, 74
1, 111225, Note_off_c, 0, 71, 68
1, 111228, Note_on_c, 0, 63, 64
1, 111234, Control_c, 0, 64, 33
1, 111240, Note_on_c, 0, 69, 69
1, 111248, Note_off_c, 0, 63, 65
1, 111249, Note_off_c, 0, 59, 66
1, 111249, Control_c, 0, 64, 34
1, 111272, Note_off_c, 0, 69, 65
1, 111293, Control_c, 0, 64, 16
1, 111302, Note_on_c, 0, 71, 67
1, 111308, Control_c, 0, 64, 0
1, 111347, Note_off_c, 0, 71, 61
1, 111370, Note_on_c, 0, 67, 73
1, 111375, Note_on_c, 0, 64, 82
1, 111378, Note_on_c, 0, 52, 71
1, 111383, Control_c, 0, 64, 34
1, 111398, Control_c, 0, 64, 54
1, 111412, Control_c, 0, 64, 64
1, 111421, Note_off_c, 0, 67, 60
1, 111427, Control_c, 0, 64, 71
1, 111442, Control_c, 0, 64, 79
1, 111448, Note_on_c, 0, 71, 76
1, 111456, Control_c, 0, 64, 86
1, 111471, Control_c, 0, 64, 92
1, 111486, Control_c, 0, 64, 94
1, 111501, Control_c, 0, 64, 86
1, 111508, Note_off_c, 0, 71, 63
1, 111516, Control_c, 0, 64, 69
1, 111520, Note_off_c, 0, 64, 66
1, 111522, Note_on_c, 0, 76, 79
1, 111530, Control_c, 0, 64, 0
1, 111532, Note_off_c, 0, 52, 62
1, 111570, Note_off_c, 0, 76, 59
1, 111601, Note_on_c, 0, 71, 61
1, 111619, Control_c, 0, 64, 28
1, 111631, Note_on_c, 0, 72, 37
1, 111634, Control_c, 0, 64, 30
1, 111644, Note_off_c, 0, 71, 50
1, 111648, Control_c, 0, 64, 27
1, 111657, Note_off_c, 0, 72, 35
1, 111663, Control_c, 0, 64, 16
1, 111668, Note_on_c, 0, 63, 76
1, 111669, Note_on_c, 0, 78, 82
1, 111674, Note_on_c, 0, 59, 70
1, 111678, Control_c, 0, 64, 0
1, 111692, Note_off_c, 0, 63, 70
1, 111699, Note_off_c, 0, 59, 65
1, 111734, Note_off_c, 0, 78, 62
1, 111749, Note_on_c, 0, 71, 66
1, 111780, Note_on_c, 0, 70, 24
1, 111781, Note_off_c, 0, 70, 127
1, 111806, Note_off_c, 0, 71, 66
1, 111836, Note_on_c, 0, 64, 68
1, 111836, Note_on_c, 0, 79, 81
1, 111840, Note_on_c, 0, 52, 69
1, 111849, Control_c, 0, 64, 41
1, 111863, Control_c, 0, 64, 65
1, 111878, Control_c, 0, 64, 75
1, 111892, Note_off_c, 0, 79, 59
1, 111893, Control_c, 0, 64, 94
1, 111901, Note_on_c, 0, 71, 84
1, 111907, Control_c, 0, 64, 127
1, 111967, Note_off_c, 0, 71, 65
1, 111981, Note_on_c, 0, 67, 72
1, 111981, Control_c, 0, 64, 88
1, 111996, Control_c, 0, 64, 60
1, 112011, Control_c, 0, 64, 0
1, 112015, Note_off_c, 0, 67, 63
1, 112020, Note_off_c, 0, 64, 65
1, 112021, Note_off_c, 0, 52, 61
1, 112064, Note_on_c, 0, 71, 73
1, 112071, Control_c, 0, 64, 25
1, 112086, Control_c, 0, 64, 36
1, 112101, Control_c, 0, 64, 29
1, 112114, Note_off_c, 0, 71, 66
1, 112116, Control_c, 0, 64, 0
1, 112139, Note_on_c, 0, 63, 77
1, 112139, Note_on_c, 0, 69, 63
1, 112143, Note_on_c, 0, 59, 66
1, 112163, Note_off_c, 0, 63, 69
1, 112170, Note_off_c, 0, 69, 68
1, 112170, Note_off_c, 0, 59, 65
1, 112202, Note_on_c, 0, 71, 71
1, 112256, Note_off_c, 0, 71, 64
1, 112282, Note_on_c, 0, 67, 67
1, 112291, Note_on_c, 0, 64, 69
1, 112293, Control_c, 0, 64, 55
1, 112302, Note_on_c, 0, 52, 61
1, 112308, Control_c, 0, 64, 69
1, 112323, Control_c, 0, 64, 81
1, 112329, Note_off_c, 0, 67, 59
1, 112338, Control_c, 0, 64, 104
1, 112352, Control_c, 0, 64, 127
1, 112360, Note_on_c, 0, 71, 69
1, 112419, Note_off_c, 0, 71, 64
1, 112426, Control_c, 0, 64, 84
1, 112438, Note_off_c, 0, 64, 64
1, 112439, Note_on_c, 0, 76, 60
1, 112441, Note_off_c, 0, 52, 62
1, 112441, Control_c, 0, 64, 36
1, 112456, Control_c, 0, 64, 0
1, 112474, Note_off_c, 0, 76, 63
1, 112508, Note_on_c, 0, 71, 65
1, 112528, Note_on_c, 0, 72, 46
1, 112555, Note_off_c, 0, 71, 53
1, 112561, Note_off_c, 0, 72, 55
1, 112581, Note_on_c, 0, 78, 81
1, 112583, Note_on_c, 0, 63, 78
1, 112593, Note_on_c, 0, 59, 60
1, 112607, Note_off_c, 0, 63, 69
1, 112619, Note_off_c, 0, 59, 65
1, 112640, Note_off_c, 0, 78, 61
1, 112653, Note_on_c, 0, 71, 69
1, 112707, Note_off_c, 0, 71, 65
1, 112733, Note_on_c, 0, 79, 82
1, 112737, Note_on_c, 0, 64, 72
1, 112739, Note_on_c, 0, 52, 72
1, 112760, Control_c, 0, 64, 53
1, 112775, Control_c, 0, 64, 70
1, 112790, Control_c, 0, 64, 87
1, 112797, Note_off_c, 0, 79, 58
1, 112804, Control_c, 0, 64, 127
1, 112805, Note_on_c, 0, 71, 79
1, 112879, Note_off_c, 0, 71, 66
1, 112883, Note_on_c, 0, 67, 74
1, 112883, Note_off_c, 0, 64, 65
1, 112894, Control_c, 0, 64, 100
1, 112898, Note_off_c, 0, 52, 62
1, 112909, Control_c, 0, 64, 71
1, 112924, Control_c, 0, 64, 0
1, 112927, Note_off_c, 0, 67, 61
1, 112960, Note_on_c, 0, 71, 71
1, 113005, Note_off_c, 0, 71, 67
1, 113018, Note_on_c, 0, 67, 67
1, 113075, Note_off_c, 0, 67, 54
1, 113088, Note_on_c, 0, 71, 82
1, 113139, Note_off_c, 0, 71, 64
1, 113162, Note_on_c, 0, 76, 81
1, 113172, Note_on_c, 0, 48, 79
1, 113172, Note_on_c, 0, 60, 78
1, 113205, Control_c, 0, 64, 42
1, 113219, Control_c, 0, 64, 65
1, 113234, Control_c, 0, 64, 75
1, 113235, Note_on_c, 0, 72, 76
1, 113249, Control_c, 0, 64, 103
1, 113264, Control_c, 0, 64, 127
1, 113274, Note_off_c, 0, 76, 59
1, 113308, Note_off_c, 0, 72, 64
1, 113315, Note_on_c, 0, 67, 78
1, 113326, Note_off_c, 0, 60, 64
1, 113350, Note_off_c, 0, 48, 59
1, 113362, Note_off_c, 0, 67, 62
1, 113375, Control_c, 0, 64, 111
1, 113379, Note_on_c, 0, 72, 78
1, 113390, Control_c, 0, 64, 78
1, 113406, Control_c, 0, 64, 21
1, 113421, Control_c, 0, 64, 0
1, 113436, Note_off_c, 0, 72, 64
1, 113449, Note_on_c, 0, 67, 72
1, 113502, Note_off_c, 0, 67, 61
1, 113510, Note_on_c, 0, 72, 75
1, 113583, Note_off_c, 0, 72, 63
1, 113601, Note_on_c, 0, 66, 76
1, 113606, Note_on_c, 0, 57, 87
1, 113606, Note_on_c, 0, 45, 84
1, 113613, Control_c, 0, 64, 41
1, 113629, Control_c, 0, 64, 65
1, 113644, Control_c, 0, 64, 77
1, 113658, Control_c, 0, 64, 109
1, 113673, Control_c, 0, 64, 127
1, 113680, Note_on_c, 0, 72, 79
1, 113702, Note_off_c, 0, 66, 60
1, 113755, Note_off_c, 0, 72, 64
1, 113759, Note_on_c, 0, 76, 81
1, 113761, Note_off_c, 0, 57, 64
1, 113764, Note_off_c, 0, 45, 64
1, 113792, Control_c, 0, 64, 89
1, 113806, Control_c, 0, 64, 62
1, 113821, Control_c, 0, 64, 0
1, 113843, Note_on_c, 0, 72, 71
1, 113845, Note_off_c, 0, 76, 60
1, 113879, Note_off_c, 0, 72, 62
1, 113899, Note_on_c, 0, 76, 69
1, 113959, Note_on_c, 0, 72, 80
1, 113975, Note_off_c, 0, 76, 52
1, 114024, Note_off_c, 0, 72, 62
1, 114038, Note_on_c, 0, 66, 82
1, 114051, Control_c, 0, 64, 18
1, 114051, Note_on_c, 0, 59, 88
1, 114052, Note_on_c, 0, 47, 82
1, 114065, Control_c, 0, 64, 67
1, 114080, Control_c, 0, 64, 80
1, 114095, Control_c, 0, 64, 127
1, 114104, Note_off_c, 0, 59, 65
1, 114122, Note_on_c, 0, 71, 84
1, 114127, Note_off_c, 0, 47, 61
1, 114145, Note_off_c, 0, 66, 62
1, 114198, Note_off_c, 0, 71, 66
1, 114199, Note_on_c, 0, 75, 77
1, 114229, Control_c, 0, 64, 99
1, 114243, Control_c, 0, 64, 70
1, 114249, Note_off_c, 0, 75, 62
1, 114258, Control_c, 0, 64, 0
1, 114269, Note_on_c, 0, 71, 76
1, 114300, Note_on_c, 0, 70, 30
1, 114301, Note_off_c, 0, 70, 127
1, 114328, Note_off_c, 0, 71, 64
1, 114333, Note_on_c, 0, 75, 81
1, 114382, Note_off_c, 0, 75, 61
1, 114392, Note_on_c, 0, 71, 79
1, 114422, Note_on_c, 0, 70, 42
1, 114423, Note_off_c, 0, 70, 127
1, 114474, Note_off_c, 0, 71, 64
1, 114474, Note_on_c, 0, 79, 92
1, 114480, Note_on_c, 0, 52, 92
1, 114483, Note_on_c, 0, 40, 84
1, 114496, Control_c, 0, 64, 23
1, 114511, Control_c, 0, 64, 65
1, 114526, Control_c, 0, 64, 74
1, 114541, Control_c, 0, 64, 102
1, 114545, Note_off_c, 0, 40, 60
1, 114554, Note_on_c, 0, 71, 88
1, 114555, Control_c, 0, 64, 127
1, 114561, Note_off_c, 0, 79, 60
1, 114563, Note_off_c, 0, 52, 63
1, 114629, Note_on_c, 0, 67, 81
1, 114629, Note_off_c, 0, 71, 67
1, 114688, Control_c, 0, 64, 92
1, 114698, Note_off_c, 0, 67, 60
1, 114703, Control_c, 0, 64, 65
1, 114711, Note_on_c, 0, 71, 81
1, 114718, Control_c, 0, 64, 0
1, 114769, Note_off_c, 0, 71, 67
1, 114778, Note_on_c, 0, 67, 73
1, 114853, Note_on_c, 0, 71, 90
1, 114868, Note_off_c, 0, 67, 57
1, 114924, Note_on_c, 0, 60, 97
1, 114927, Note_on_c, 0, 48, 91
1, 114928, Note_on_c, 0, 76, 92
1, 114930, Note_off_c, 0, 71, 64
1, 114963, Control_c, 0, 64, 68
1, 114978, Control_c, 0, 64, 85
1, 114992, Control_c, 0, 64, 127
1, 115012, Note_on_c, 0, 72, 87
1, 115044, Note_off_c, 0, 76, 62
1, 115050, Note_off_c, 0, 60, 66
1, 115064, Note_off_c, 0, 48, 63
1, 115079, Note_off_c, 0, 72, 64
1, 115094, Note_on_c, 0, 67, 77
1, 115143, Note_off_c, 0, 67, 63
1, 115158, Note_on_c, 0, 72, 80
1, 115170, Control_c, 0, 64, 93
1, 115185, Control_c, 0, 64, 72
1, 115199, Control_c, 0, 64, 0
1, 115209, Note_off_c, 0, 72, 61
1, 115222, Note_on_c, 0, 67, 77
1, 115277, Note_off_c, 0, 67, 62
1, 115290, Note_on_c, 0, 72, 76
1, 115358, Note_off_c, 0, 72, 62
1, 115372, Note_on_c, 0, 57, 96
1, 115373, Note_on_c, 0, 45, 96
1, 115375, Note_on_c, 0, 66, 80
1, 115393, Control_c, 0, 64, 68
1, 115408, Control_c, 0, 64, 83
1, 115422, Control_c, 0, 64, 127
1, 115453, Note_on_c, 0, 72, 85
1, 115476, Note_off_c, 0, 66, 59
1, 115530, Note_off_c, 0, 72, 63
1, 115532, Note_on_c, 0, 76, 82
1, 115534, Note_off_c, 0, 45, 64
1, 115535, Note_off_c, 0, 57, 64
1, 115593, Control_c, 0, 64, 110
1, 115608, Note_off_c, 0, 76, 63
1, 115608, Control_c, 0, 64, 78
1, 115610, Note_on_c, 0, 72, 81
1, 115622, Control_c, 0, 64, 42
1, 115637, Control_c, 0, 64, 0
1, 115668, Note_off_c, 0, 72, 64
1, 115683, Note_on_c, 0, 76, 72
1, 115740, Note_on_c, 0, 72, 80
1, 115753, Note_off_c, 0, 76, 58
1, 115813, Note_off_c, 0, 72, 64
1, 115826, Note_on_c, 0, 66, 80
1, 115830, Note_on_c, 0, 59, 98
1, 115834, Note_on_c, 0, 47, 85
1, 115844, Control_c, 0, 64, 32
1, 115859, Control_c, 0, 64, 68
1, 115863, Note_off_c, 0, 59, 65
1, 115872, Note_off_c, 0, 47, 64
1, 115874, Control_c, 0, 64, 82
1, 115888, Control_c, 0, 64, 111
1, 115903, Control_c, 0, 64, 127
1, 115905, Note_on_c, 0, 71, 84
1, 115931, Note_off_c, 0, 66, 61
1, 115982, Note_on_c, 0, 75, 79
1, 115982, Note_off_c, 0, 71, 66
1, 116036, Note_off_c, 0, 75, 63
1, 116038, Control_c, 0, 64, 107
1, 116050, Note_on_c, 0, 71, 71
1, 116052, Control_c, 0, 64, 74
1, 116067, Control_c, 0, 64, 0
1, 116114, Note_off_c, 0, 71, 66
1, 116116, Note_on_c, 0, 75, 76
1, 116164, Note_off_c, 0, 75, 61
1, 116185, Note_on_c, 0, 71, 61
1, 116246, Note_off_c, 0, 71, 63
1, 116251, Note_on_c, 0, 40, 69
1, 116255, Note_on_c, 0, 76, 73
1, 116282, Note_off_c, 0, 40, 63
1, 116326, Control_c, 0, 67, 8
1, 116341, Control_c, 0, 67, 11
1, 116356, Control_c, 0, 67, 16
1, 116371, Control_c, 0, 67, 23
1, 116386, Control_c, 0, 67, 32
1, 116401, Control_c, 0, 67, 42
1, 116407, Note_on_c, 0, 43, 78
1, 116410, Note_off_c, 0, 76, 59
1, 116416, Control_c, 0, 67, 54
1, 116431, Control_c, 0, 67, 64
1, 116436, Note_off_c, 0, 43, 62
1, 116445, Control_c, 0, 67, 73
1, 116460, Control_c, 0, 67, 78
1, 116475, Control_c, 0, 67, 81
1, 116490, Control_c, 0, 67, 82
1, 116554, Note_on_c, 0, 47, 68
1, 116576, Note_off_c, 0, 47, 64
1, 116695, Note_on_c, 0, 52, 69
1, 116698, Control_c, 0, 67, 82
1, 116712, Control_c, 0, 67, 81
1, 116724, Note_off_c, 0, 52, 66
1, 116727, Control_c, 0, 67, 81
1, 116742, Control_c, 0, 67, 80
1, 116757, Control_c, 0, 67, 80
1, 116817, Control_c, 0, 67, 79
1, 116832, Control_c, 0, 67, 79
1, 116856, Note_on_c, 0, 59, 50
1, 116861, Control_c, 0, 67, 78
1, 116864, Note_on_c, 0, 67, 51
1, 116906, Control_c, 0, 67, 78
1, 116921, Control_c, 0, 67, 77
1, 116950, Control_c, 0, 67, 77
1, 116965, Control_c, 0, 67, 76
1, 116980, Control_c, 0, 67, 76
1, 116993, Note_off_c, 0, 59, 63
1, 116993, Note_off_c, 0, 67, 61
1, 117005, Note_on_c, 0, 63, 62
1, 117007, Note_on_c, 0, 57, 55
1, 117047, Note_off_c, 0, 57, 66
1, 117106, Control_c, 0, 67, 75
1, 117154, Note_on_c, 0, 40, 52
1, 117172, Note_on_c, 0, 55, 53
1, 117172, Note_off_c, 0, 63, 60
1, 117175, Note_on_c, 0, 64, 57
1, 117180, Note_off_c, 0, 40, 54
1, 117234, Note_off_c, 0, 55, 53
1, 117238, Control_c, 0, 67, 75
1, 117267, Control_c, 0, 67, 74
1, 117289, Note_off_c, 0, 64, 64
1, 117297, Control_c, 0, 67, 74
1, 117309, Note_on_c, 0, 43, 57
1, 117327, Control_c, 0, 67, 73
1, 117339, Note_off_c, 0, 43, 53
1, 117446, Control_c, 0, 67, 74
1, 117450, Note_on_c, 0, 47, 59
1, 117474, Note_off_c, 0, 47, 61
1, 117475, Control_c, 0, 67, 74
1, 117490, Control_c, 0, 67, 75
1, 117505, Control_c, 0, 67, 76
1, 117520, Control_c, 0, 67, 77
1, 117535, Control_c, 0, 67, 79
1, 117549, Control_c, 0, 67, 81
1, 117564, Control_c, 0, 67, 83
1, 117579, Control_c, 0, 67, 84
1, 117593, Control_c, 0, 67, 89
1, 117605, Note_on_c, 0, 52, 59
1, 117609, Control_c, 0, 67, 99
1, 117624, Control_c, 0, 67, 106
1, 117630, Note_off_c, 0, 52, 61
1, 117639, Control_c, 0, 67, 112
1, 117654, Control_c, 0, 67, 116
1, 117669, Control_c, 0, 67, 117
1, 117683, Control_c, 0, 67, 118
1, 117760, Note_on_c, 0, 71, 62
1, 117767, Note_on_c, 0, 67, 51
1, 117809, Control_c, 0, 67, 117
1, 117824, Control_c, 0, 67, 116
1, 117839, Control_c, 0, 67, 116
1, 117854, Control_c, 0, 67, 115
1, 117869, Control_c, 0, 67, 115
1, 117884, Control_c, 0, 67, 114
1, 117897, Control_c, 0, 67, 114
1, 117899, Note_off_c, 0, 67, 61
1, 117907, Note_on_c, 0, 63, 66
1, 117908, Note_on_c, 0, 66, 67
1, 117912, Control_c, 0, 67, 113
1, 117942, Control_c, 0, 67, 113
1, 117957, Control_c, 0, 67, 112
1, 117962, Note_off_c, 0, 71, 60
1, 117967, Note_off_c, 0, 63, 60
1, 117986, Control_c, 0, 67, 112
1, 118015, Control_c, 0, 67, 111
1, 118045, Control_c, 0, 67, 111
1, 118052, Note_on_c, 0, 40, 54
1, 118060, Note_on_c, 0, 67, 61
1, 118070, Note_off_c, 0, 66, 58
1, 118075, Control_c, 0, 67, 110
1, 118081, Note_off_c, 0, 40, 56
1, 118084, Note_on_c, 0, 64, 45
1, 118111, Note_off_c, 0, 64, 59
1, 118170, Note_off_c, 0, 67, 59
1, 118209, Note_on_c, 0, 43, 57
1, 118236, Note_off_c, 0, 43, 54
1, 118355, Note_on_c, 0, 47, 54
1, 118380, Note_off_c, 0, 47, 60
1, 118476, Control_c, 0, 67, 110
1, 118491, Control_c, 0, 67, 111
1, 118501, Note_on_c, 0, 52, 55
1, 118505, Control_c, 0, 67, 111
1, 118520, Control_c, 0, 67, 112
1, 118527, Note_off_c, 0, 52, 62
1, 118543, Control_c, 0, 67, 113
1, 118558, Control_c, 0, 67, 113
1, 118573, Control_c, 0, 67, 114
1, 118587, Control_c, 0, 67, 115
1, 118602, Control_c, 0, 67, 116
1, 118617, Control_c, 0, 67, 118
1, 118632, Control_c, 0, 67, 119
1, 118646, Control_c, 0, 67, 120
1, 118658, Note_on_c, 0, 83, 47
1, 118661, Control_c, 0, 67, 124
1, 118676, Note_on_c, 0, 79, 42
1, 118676, Control_c, 0, 67, 127
1, 118794, Note_off_c, 0, 79, 61
1, 118818, Note_on_c, 0, 78, 56
1, 118825, Note_on_c, 0, 81, 52
1, 118840, Note_off_c, 0, 83, 50
1, 118942, Note_off_c, 0, 78, 57
1, 118944, Note_off_c, 0, 81, 61
1, 118963, Note_on_c, 0, 79, 62
1, 118991, Note_on_c, 0, 76, 34
1, 118993, Note_off_c, 0, 79, 65
1, 119028, Note_off_c, 0, 76, 48
1, 119131, Note_on_c, 0, 76, 49
1, 119137, Note_on_c, 0, 88, 55
1, 119159, Note_off_c, 0, 88, 59
1, 119163, Note_off_c, 0, 76, 54
1, 119307, Note_on_c, 0, 88, 52
1, 119336, Note_on_c, 0, 76, 8
1, 119343, Note_off_c, 0, 88, 63
1, 119381, Note_off_c, 0, 76, 38
1, 119482, Note_on_c, 0, 88, 45
1, 119485, Control_c, 0, 64, 37
1, 119488, Note_on_c, 0, 76, 47
1, 119500, Control_c, 0, 64, 49
1, 119515, Control_c, 0, 64, 56
1, 119529, Control_c, 0, 64, 61
1, 119544, Note_off_c, 0, 76, 48
1, 119544, Control_c, 0, 64, 64
1, 119559, Control_c, 0, 64, 68
1, 119565, Note_off_c, 0, 88, 53
1, 119574, Control_c, 0, 64, 74
1, 119588, Control_c, 0, 64, 80
1, 119603, Control_c, 0, 64, 85
1, 119618, Control_c, 0, 64, 88
1, 119633, Control_c, 0, 64, 92
1, 119648, Control_c, 0, 64, 97
1, 119662, Control_c, 0, 64, 101
1, 119677, Control_c, 0, 64, 105
1, 119692, Control_c, 0, 64, 108
1, 119707, Control_c, 0, 64, 110
1, 119810, Control_c, 0, 64, 109
1, 119825, Control_c, 0, 64, 107
1, 119840, Control_c, 0, 64, 103
1, 119855, Control_c, 0, 64, 98
1, 119869, Control_c, 0, 64, 90
1, 119884, Control_c, 0, 64, 83
1, 119899, Control_c, 0, 64, 76
1, 119914, Control_c, 0, 64, 69
1, 119929, Control_c, 0, 64, 63
1, 119944, Control_c, 0, 64, 54
1, 119959, Control_c, 0, 64, 45
1, 119974, Control_c, 0, 64, 45
1, 119988, Control_c, 0, 64, 44
1, 120003, Control_c, 0, 64, 41
1, 120018, Control_c, 0, 64, 37
1, 120041, Control_c, 0, 64, 32
1, 120056, Control_c, 0, 64, 27
1, 120071, Control_c, 0, 64, 25
1, 120086, Control_c, 0, 64, 24
1, 120100, Control_c, 0, 64, 23
1, 120115, Control_c, 0, 64, 22
1, 120130, Control_c, 0, 64, 21
1, 120145, Control_c, 0, 64, 19
1, 120160, Control_c, 0, 64, 15
1, 120174, Control_c, 0, 64, 13
1, 120174, Control_c, 0, 67, 127
1, 120189, Control_c, 0, 64, 12
1, 120204, Control_c, 0, 64, 10
1, 120204, Control_c, 0, 67, 126
1, 120218, Control_c, 0, 64, 9
1, 120218, Control_c, 0, 67, 125
1, 120248, Control_c, 0, 67, 125
1, 120263, Control_c, 0, 67, 124
1, 120293, Control_c, 0, 67, 124
1, 120307, Control_c, 0, 67, 123
1, 120322, Control_c, 0, 67, 123
1, 120352, Control_c, 0, 67, 122
1, 120367, Control_c, 0, 67, 122
1, 120397, Control_c, 0, 67, 121
1, 120426, Control_c, 0, 67, 121
1, 120441, Control_c, 0, 67, 120
1, 120456, Control_c, 0, 67, 120
1, 120471, Control_c, 0, 67, 119
1, 120485, Control_c, 0, 67, 119
1, 120500, Control_c, 0, 67, 118
1, 120515, Control_c, 0, 67, 118
1, 120530, Control_c, 0, 64, 10
1, 120559, Control_c, 0, 67, 117
1, 120574, Control_c, 0, 67, 117
1, 120589, Control_c, 0, 67, 116
1, 120603, Control_c, 0, 67, 115
1, 120618, Control_c, 0, 67, 114
1, 120633, Control_c, 0, 67, 114
1, 120648, Control_c, 0, 64, 12
1, 120648, Control_c, 0, 67, 113
1, 120663, Control_c, 0, 67, 113
1, 120677, Control_c, 0, 64, 13
1, 120677, Control_c, 0, 67, 112
1, 120692, Control_c, 0, 67, 112
1, 120707, Control_c, 0, 67, 111
1, 120722, Control_c, 0, 67, 109
1, 120737, Control_c, 0, 67, 108
1, 120752, Control_c, 0, 67, 107
1, 120767, Control_c, 0, 67, 105
1, 120789, Control_c, 0, 67, 104
1, 120804, Control_c, 0, 67, 101
1, 120820, Control_c, 0, 67, 100
1, 120835, Control_c, 0, 64, 14
1, 120835, Control_c, 0, 67, 98
1, 120849, Control_c, 0, 67, 95
1, 120864, Control_c, 0, 67, 92
1, 120879, Control_c, 0, 67, 90
1, 120894, Control_c, 0, 67, 87
1, 120909, Control_c, 0, 64, 15
1, 120909, Control_c, 0, 67, 84
1, 120923, Control_c, 0, 67, 81
1, 120938, Control_c, 0, 67, 79
1, 120953, Control_c, 0, 67, 77
1, 120968, Control_c, 0, 67, 74
1, 120983, Control_c, 0, 67, 72
1, 120997, Control_c, 0, 67, 69
1, 121012, Control_c, 0, 64, 16
1, 121012, Control_c, 0, 67, 67
1, 121027, Control_c, 0, 67, 65
1, 121041, Control_c, 0, 67, 63
1, 121056, Control_c, 0, 67, 61
1, 121071, Control_c, 0, 67, 59
1, 121086, Control_c, 0, 67, 58
1, 121101, Control_c, 0, 67, 57
1, 121115, Control_c, 0, 64, 17
1, 121115, Control_c, 0, 67, 56
1, 121130, Control_c, 0, 67, 55
1, 121145, Control_c, 0, 67, 55
1, 121160, Control_c, 0, 67, 54
1, 121175, Control_c, 0, 67, 52
1, 121190, Control_c, 0, 64, 18
1, 121190, Control_c, 0, 67, 51
1, 121205, Control_c, 0, 67, 50
1, 121220, Control_c, 0, 67, 49
1, 121234, Control_c, 0, 67, 48
1, 121249, Control_c, 0, 67, 47
1, 121264, Control_c, 0, 67, 47
1, 121279, Control_c, 0, 67, 46
1, 121294, Control_c, 0, 67, 45
1, 121308, Control_c, 0, 64, 19
1, 121308, Control_c, 0, 67, 44
1, 121323, Control_c, 0, 67, 44
1, 121338, Control_c, 0, 67, 43
1, 121353, Control_c, 0, 67, 42
1, 121367, Control_c, 0, 64, 19
1, 121367, Control_c, 0, 67, 41
1, 121382, Control_c, 0, 67, 39
1, 121397, Control_c, 0, 64, 20
1, 121397, Control_c, 0, 67, 38
1, 121412, Control_c, 0, 67, 37
1, 121426, Control_c, 0, 67, 35
1, 121441, Control_c, 0, 67, 34
1, 121456, Control_c, 0, 64, 21
1, 121456, Control_c, 0, 67, 33
1, 121471, Control_c, 0, 67, 32
1, 121486, Control_c, 0, 67, 30
1, 121500, Control_c, 0, 67, 29
1, 121515, Control_c, 0, 67, 27
1, 121538, Control_c, 0, 64, 21
1, 121538, Control_c, 0, 67, 26
1, 121553, Control_c, 0, 67, 24
1, 121567, Control_c, 0, 67, 23
1, 121582, Control_c, 0, 64, 22
1, 121582, Control_c, 0, 67, 22
1, 121597, Control_c, 0, 67, 20
1, 121613, Control_c, 0, 67, 19
1, 121628, Control_c, 0, 67, 18
1, 121643, Control_c, 0, 67, 18
1, 121658, Control_c, 0, 67, 17
1, 121672, Control_c, 0, 64, 23
1, 121672, Control_c, 0, 67, 16
1, 121687, Control_c, 0, 67, 15
1, 121702, Control_c, 0, 67, 14
1, 121717, Control_c, 0, 67, 14
1, 121732, Control_c, 0, 67, 12
1, 121746, Control_c, 0, 67, 12
1, 121761, Control_c, 0, 67, 11
1, 121776, Control_c, 0, 67, 10
1, 121790, Control_c, 0, 67, 9
1, 121805, Control_c, 0, 67, 8
1, 121820, Control_c, 0, 67, 8
1, 121835, Control_c, 0, 67, 0
1, 121998, Control_c, 0, 64, 21
1, 122013, Control_c, 0, 64, 19
1, 122027, Control_c, 0, 64, 15
1, 122042, Control_c, 0, 64, 13
1, 122057, Control_c, 0, 64, 10
1, 122072, Control_c, 0, 64, 0
1, 122147, End_track
0, 0, End_of_file
