0, 0, Header, 0, 1, 384
1, 0, Start_track
1, 0, Title_t, "Schubert D894--Yeletskiy        "
1, 0, Text_t, "2009 International Piano-e-Competition finals"
1, 0, Text_t, "captured June-July 2009"
1, 0, Text_t, "http://www.piano-e-competition.com/"
1, 0, Text_t, "standard-resolution version"
1, 0, Text_t, "File processed for distribution by software from Zenph Studios, Inc., http://www.zenph.com"
1, 0, Instrument_name_t, "Yamaha Disklavier Pro Mark IV concert grand piano, model DCFIIISM4PRO"
1, 0, Sequencer_specific, 39, 67, 113, 0, 1, 0, 1, 0, 83, 99, 104, 117, 98, 101, 114, 116, 32, 68, 56, 57, 52, 32, 32, 32, 80, 97, 118, 101, 108, 32, 89, 101, 108, 101, 116, 115, 107, 105, 121, 32
1, 0, Sequencer_specific, 6, 67, 113, 0, 0, 0, 69
1, 0, System_exclusive, 21, 67, 113, 126, 21, 0, 2, 2, 1, 1, 13, 3, 4, 10, 5, 1, 3, 10, 3, 7, 0, 247
1, 0, Sequencer_specific, 5, 67, 123, 12, 2, 1
1, 0, Tempo, 512820
1, 0, Time_signature, 4, 2, 24, 8
1, 0, System_exclusive, 5, 126, 127, 9, 1, 247
1, 1, System_exclusive, 8, 67, 16, 76, 0, 0, 126, 0, 247
1, 2, System_exclusive, 8, 67, 16, 76, 8, 9, 7, 1, 247
1, 3, Control_c, 0, 0, 0
1, 3, Control_c, 1, 0, 0
1, 3, Control_c, 2, 0, 0
1, 3, Control_c, 3, 0, 0
1, 3, Control_c, 4, 0, 0
1, 3, Control_c, 5, 0, 0
1, 3, Control_c, 6, 0, 0
1, 3, Control_c, 7, 0, 0
1, 3, Control_c, 8, 0, 0
1, 3, Control_c, 9, 0, 127
1, 3, Control_c, 10, 0, 0
1, 3, Control_c, 11, 0, 0
1, 3, Control_c, 12, 0, 0
1, 3, Control_c, 13, 0, 0
1, 3, Control_c, 14, 0, 0
1, 3, Control_c, 15, 0, 0
1, 4, Control_c, 0, 32, 0
1, 4, Control_c, 1, 32, 0
1, 4, Control_c, 2, 32, 0
1, 4, Control_c, 3, 32, 0
1, 4, Control_c, 4, 32, 0
1, 4, Control_c, 5, 32, 0
1, 4, Control_c, 6, 32, 0
1, 4, Control_c, 7, 32, 0
1, 4, Control_c, 8, 32, 0
1, 4, Control_c, 9, 32, 0
1, 4, Control_c, 10, 32, 0
1, 4, Control_c, 11, 32, 0
1, 4, Control_c, 12, 32, 0
1, 4, Control_c, 13, 32, 0
1, 4, Control_c, 14, 32, 0
1, 4, Control_c, 15, 32, 0
1, 5, Program_c, 0, 0
1, 5, Program_c, 1, 0
1, 5, Program_c, 2, 0
1, 5, Program_c, 3, 0
1, 5, Program_c, 4, 0
1, 5, Program_c, 5, 0
1, 5, Program_c, 6, 0
1, 5, Program_c, 7, 0
1, 5, Program_c, 8, 0
1, 5, Program_c, 9, 0
1, 5, Program_c, 10, 0
1, 5, Program_c, 11, 0
1, 5, Program_c, 12, 0
1, 5, Program_c, 13, 0
1, 5, Program_c, 14, 0
1, 5, Program_c, 15, 0
1, 6, Control_c, 0, 7, 100
1, 6, Control_c, 1, 7, 100
1, 6, Control_c, 2, 7, 100
1, 6, Control_c, 3, 7, 100
1, 6, Control_c, 4, 7, 100
1, 6, Control_c, 5, 7, 100
1, 6, Control_c, 6, 7, 100
1, 6, Control_c, 7, 7, 100
1, 6, Control_c, 8, 7, 100
1, 6, Control_c, 9, 7, 100
1, 6, Control_c, 10, 7, 100
1, 6, Control_c, 11, 7, 100
1, 6, Control_c, 12, 7, 100
1, 6, Control_c, 13, 7, 100
1, 6, Control_c, 14, 7, 100
1, 6, Control_c, 15, 7, 100
1, 117, Control_c, 0, 64, 15
1, 117, Control_c, 0, 67, 15
1, 229, Control_c, 0, 64, 31
1, 229, Control_c, 0, 67, 31
1, 341, Control_c, 0, 64, 46
1, 341, Control_c, 0, 67, 46
1, 452, Control_c, 0, 64, 63
1, 452, Control_c, 0, 67, 63
1, 564, Control_c, 0, 64, 77
1, 564, Control_c, 0, 67, 77
1, 676, Control_c, 0, 64, 94
1, 676, Control_c, 0, 67, 94
1, 787, Control_c, 0, 64, 108
1, 787, Control_c, 0, 67, 108
1, 899, Control_c, 0, 64, 127
1, 899, Control_c, 0, 67, 127
1, 1136, Note_on_c, 0, 71, 41
1, 1163, Note_on_c, 0, 67, 30
1, 1178, Note_on_c, 0, 59, 21
1, 1184, Note_on_c, 0, 43, 27
1, 1190, Note_on_c, 0, 50, 8
1, 2210, Note_off_c, 0, 59, 39
1, 2278, Note_off_c, 0, 71, 35
1, 2287, Note_off_c, 0, 50, 33
1, 2319, Note_off_c, 0, 43, 37
1, 2364, Note_off_c, 0, 67, 42
1, 2869, Note_on_c, 0, 69, 37
1, 2876, Note_on_c, 0, 66, 35
1, 2883, Note_on_c, 0, 43, 31
1, 2884, Note_on_c, 0, 60, 25
1, 2889, Note_on_c, 0, 50, 21
1, 2920, Note_off_c, 0, 60, 51
1, 2944, Note_off_c, 0, 69, 52
1, 2946, Note_off_c, 0, 50, 45
1, 2950, Note_off_c, 0, 66, 43
1, 2955, Note_off_c, 0, 43, 39
1, 3061, Note_on_c, 0, 71, 46
1, 3065, Note_on_c, 0, 43, 29
1, 3067, Note_on_c, 0, 67, 44
1, 3071, Note_on_c, 0, 50, 31
1, 3095, Note_on_c, 0, 59, 31
1, 3107, Control_c, 0, 64, 105
1, 3122, Control_c, 0, 64, 87
1, 3137, Control_c, 0, 64, 77
1, 3152, Control_c, 0, 64, 69
1, 3166, Control_c, 0, 64, 62
1, 3181, Control_c, 0, 64, 43
1, 3196, Control_c, 0, 64, 0
1, 3389, Control_c, 0, 64, 34
1, 3404, Control_c, 0, 64, 49
1, 3418, Control_c, 0, 64, 55
1, 3433, Control_c, 0, 64, 57
1, 3448, Control_c, 0, 64, 59
1, 3463, Control_c, 0, 64, 61
1, 3478, Control_c, 0, 64, 62
1, 3492, Control_c, 0, 64, 63
1, 3507, Control_c, 0, 64, 63
1, 3522, Control_c, 0, 64, 64
1, 3536, Control_c, 0, 64, 64
1, 3551, Control_c, 0, 64, 65
1, 3568, Control_c, 0, 64, 65
1, 3583, Control_c, 0, 64, 66
1, 3597, Control_c, 0, 64, 68
1, 3612, Control_c, 0, 64, 69
1, 3627, Control_c, 0, 64, 70
1, 3641, Control_c, 0, 64, 71
1, 3656, Control_c, 0, 64, 72
1, 3671, Control_c, 0, 64, 73
1, 3694, Control_c, 0, 64, 74
1, 3709, Control_c, 0, 64, 77
1, 3723, Control_c, 0, 64, 79
1, 3738, Control_c, 0, 64, 81
1, 3753, Control_c, 0, 64, 82
1, 3768, Control_c, 0, 64, 84
1, 3783, Control_c, 0, 64, 87
1, 3797, Control_c, 0, 64, 93
1, 3812, Control_c, 0, 64, 103
1, 3827, Control_c, 0, 64, 121
1, 3841, Control_c, 0, 64, 127
1, 3968, Note_off_c, 0, 59, 39
1, 3995, Note_off_c, 0, 71, 36
1, 4032, Note_off_c, 0, 50, 32
1, 4046, Note_off_c, 0, 43, 37
1, 4117, Note_off_c, 0, 67, 38
1, 4475, Note_on_c, 0, 69, 41
1, 4491, Note_on_c, 0, 60, 36
1, 4499, Note_on_c, 0, 66, 39
1, 4514, Note_on_c, 0, 43, 23
1, 4521, Note_on_c, 0, 50, 14
1, 4539, Note_off_c, 0, 60, 58
1, 4556, Note_off_c, 0, 66, 45
1, 4563, Note_off_c, 0, 43, 43
1, 4563, Note_off_c, 0, 50, 47
1, 4565, Note_off_c, 0, 69, 55
1, 4679, Control_c, 0, 64, 85
1, 4684, Note_on_c, 0, 71, 48
1, 4693, Note_on_c, 0, 67, 40
1, 4694, Control_c, 0, 64, 66
1, 4702, Note_on_c, 0, 59, 31
1, 4706, Note_on_c, 0, 43, 27
1, 4709, Note_on_c, 0, 50, 24
1, 4709, Control_c, 0, 64, 53
1, 4724, Control_c, 0, 64, 44
1, 4738, Control_c, 0, 64, 51
1, 4753, Control_c, 0, 64, 60
1, 4768, Control_c, 0, 64, 63
1, 4780, Note_off_c, 0, 67, 59
1, 4782, Control_c, 0, 64, 67
1, 4785, Note_off_c, 0, 59, 39
1, 4797, Control_c, 0, 64, 70
1, 4804, Note_off_c, 0, 71, 57
1, 4812, Control_c, 0, 64, 73
1, 4824, Note_off_c, 0, 50, 38
1, 4827, Control_c, 0, 64, 75
1, 4842, Note_off_c, 0, 43, 38
1, 4842, Control_c, 0, 64, 76
1, 4857, Control_c, 0, 64, 77
1, 4871, Control_c, 0, 64, 77
1, 4901, Control_c, 0, 64, 78
1, 4931, Control_c, 0, 64, 78
1, 4955, Note_on_c, 0, 72, 49
1, 4961, Control_c, 0, 64, 79
1, 4973, Note_on_c, 0, 69, 50
1, 4976, Note_on_c, 0, 60, 36
1, 4976, Control_c, 0, 64, 79
1, 4979, Note_on_c, 0, 43, 38
1, 4990, Control_c, 0, 64, 80
1, 4995, Note_on_c, 0, 50, 11
1, 5005, Control_c, 0, 64, 81
1, 5020, Control_c, 0, 64, 81
1, 5026, Note_off_c, 0, 60, 49
1, 5035, Control_c, 0, 64, 82
1, 5045, Note_off_c, 0, 72, 59
1, 5046, Note_off_c, 0, 43, 51
1, 5050, Control_c, 0, 64, 82
1, 5052, Note_off_c, 0, 50, 43
1, 5064, Control_c, 0, 64, 83
1, 5075, Note_off_c, 0, 69, 55
1, 5079, Control_c, 0, 64, 83
1, 5094, Control_c, 0, 64, 84
1, 5109, Control_c, 0, 64, 84
1, 5124, Control_c, 0, 64, 85
1, 5153, Control_c, 0, 64, 83
1, 5169, Control_c, 0, 64, 77
1, 5189, Note_on_c, 0, 74, 60
1, 5191, Control_c, 0, 64, 70
1, 5193, Note_on_c, 0, 62, 49
1, 5193, Note_on_c, 0, 71, 47
1, 5200, Note_on_c, 0, 43, 48
1, 5207, Control_c, 0, 64, 67
1, 5215, Note_on_c, 0, 50, 33
1, 5221, Control_c, 0, 64, 66
1, 5236, Control_c, 0, 64, 68
1, 5251, Control_c, 0, 64, 71
1, 5257, Note_off_c, 0, 71, 58
1, 5266, Control_c, 0, 64, 77
1, 5281, Control_c, 0, 64, 83
1, 5286, Note_off_c, 0, 50, 36
1, 5295, Control_c, 0, 64, 86
1, 5307, Note_off_c, 0, 62, 34
1, 5310, Control_c, 0, 64, 87
1, 5312, Note_off_c, 0, 43, 36
1, 5349, Note_off_c, 0, 74, 39
1, 5414, Control_c, 0, 64, 86
1, 5429, Control_c, 0, 64, 77
1, 5431, Note_on_c, 0, 74, 56
1, 5444, Control_c, 0, 64, 66
1, 5458, Note_on_c, 0, 66, 47
1, 5459, Control_c, 0, 64, 44
1, 5462, Note_on_c, 0, 62, 45
1, 5474, Control_c, 0, 64, 0
1, 5474, Note_on_c, 0, 38, 37
1, 5479, Note_on_c, 0, 50, 30
1, 5503, Control_c, 0, 64, 36
1, 5518, Control_c, 0, 64, 59
1, 5533, Control_c, 0, 64, 67
1, 5542, Note_off_c, 0, 62, 51
1, 5545, Note_off_c, 0, 74, 61
1, 5548, Control_c, 0, 64, 73
1, 5562, Control_c, 0, 64, 80
1, 5577, Control_c, 0, 64, 83
1, 5590, Note_off_c, 0, 66, 37
1, 5592, Control_c, 0, 64, 85
1, 5605, Note_off_c, 0, 50, 32
1, 5606, Control_c, 0, 64, 87
1, 5607, Note_off_c, 0, 38, 36
1, 5621, Control_c, 0, 64, 88
1, 5700, Note_on_c, 0, 72, 50
1, 5710, Control_c, 0, 64, 82
1, 5716, Note_on_c, 0, 66, 47
1, 5719, Note_on_c, 0, 38, 33
1, 5721, Note_on_c, 0, 50, 22
1, 5725, Control_c, 0, 64, 71
1, 5731, Note_on_c, 0, 60, 41
1, 5739, Control_c, 0, 64, 62
1, 5754, Control_c, 0, 64, 51
1, 5784, Control_c, 0, 64, 57
1, 5786, Note_off_c, 0, 60, 51
1, 5799, Control_c, 0, 64, 63
1, 5807, Note_off_c, 0, 72, 56
1, 5813, Control_c, 0, 64, 66
1, 5818, Note_off_c, 0, 66, 37
1, 5828, Control_c, 0, 64, 70
1, 5835, Note_off_c, 0, 50, 35
1, 5839, Note_off_c, 0, 38, 41
1, 5843, Control_c, 0, 64, 74
1, 5858, Control_c, 0, 64, 76
1, 5873, Control_c, 0, 64, 77
1, 5888, Control_c, 0, 64, 77
1, 5939, Control_c, 0, 64, 77
1, 5954, Control_c, 0, 64, 73
1, 5970, Note_on_c, 0, 72, 45
1, 5970, Control_c, 0, 64, 66
1, 5980, Note_on_c, 0, 50, 28
1, 5983, Note_on_c, 0, 66, 39
1, 5984, Note_on_c, 0, 38, 29
1, 5985, Control_c, 0, 64, 60
1, 5989, Note_on_c, 0, 60, 33
1, 5999, Control_c, 0, 64, 57
1, 6014, Control_c, 0, 64, 60
1, 6029, Control_c, 0, 64, 64
1, 6040, Note_off_c, 0, 72, 62
1, 6043, Control_c, 0, 64, 68
1, 6058, Control_c, 0, 64, 74
1, 6064, Note_off_c, 0, 60, 52
1, 6065, Note_off_c, 0, 66, 49
1, 6073, Control_c, 0, 64, 79
1, 6085, Note_off_c, 0, 38, 36
1, 6088, Control_c, 0, 64, 81
1, 6103, Control_c, 0, 64, 82
1, 6108, Note_off_c, 0, 50, 32
1, 6117, Control_c, 0, 64, 82
1, 6132, Control_c, 0, 64, 83
1, 6365, Note_on_c, 0, 71, 45
1, 6384, Note_on_c, 0, 59, 31
1, 6384, Control_c, 0, 64, 82
1, 6394, Note_on_c, 0, 67, 37
1, 6399, Control_c, 0, 64, 80
1, 6401, Note_on_c, 0, 50, 17
1, 6406, Note_on_c, 0, 43, 26
1, 6414, Control_c, 0, 64, 78
1, 6429, Control_c, 0, 64, 73
1, 6443, Control_c, 0, 64, 69
1, 6458, Control_c, 0, 64, 64
1, 6473, Control_c, 0, 64, 56
1, 6488, Control_c, 0, 64, 26
1, 6503, Control_c, 0, 64, 0
1, 6778, Control_c, 0, 64, 36
1, 6792, Control_c, 0, 64, 48
1, 6807, Control_c, 0, 64, 53
1, 6822, Control_c, 0, 64, 57
1, 6837, Control_c, 0, 64, 59
1, 6852, Control_c, 0, 64, 61
1, 6866, Control_c, 0, 64, 62
1, 6881, Control_c, 0, 64, 63
1, 6896, Control_c, 0, 64, 64
1, 6911, Control_c, 0, 64, 65
1, 6926, Control_c, 0, 64, 67
1, 6940, Control_c, 0, 64, 69
1, 6955, Control_c, 0, 64, 72
1, 6970, Control_c, 0, 64, 74
1, 6985, Control_c, 0, 64, 75
1, 7000, Control_c, 0, 64, 78
1, 7015, Control_c, 0, 64, 81
1, 7030, Control_c, 0, 64, 86
1, 7045, Control_c, 0, 64, 92
1, 7059, Control_c, 0, 64, 98
1, 7074, Control_c, 0, 64, 106
1, 7089, Control_c, 0, 64, 121
1, 7104, Control_c, 0, 64, 127
1, 7357, Note_off_c, 0, 59, 41
1, 7364, Note_off_c, 0, 50, 35
1, 7367, Note_off_c, 0, 71, 41
1, 7435, Note_off_c, 0, 43, 35
1, 7501, Note_off_c, 0, 67, 40
1, 7704, Control_c, 0, 64, 110
1, 7719, Control_c, 0, 64, 90
1, 7734, Control_c, 0, 64, 78
1, 7749, Control_c, 0, 64, 70
1, 7763, Control_c, 0, 64, 63
1, 7778, Control_c, 0, 64, 44
1, 7793, Control_c, 0, 64, 0
1, 8045, Control_c, 0, 64, 34
1, 8060, Control_c, 0, 64, 48
1, 8075, Control_c, 0, 64, 56
1, 8089, Control_c, 0, 64, 61
1, 8104, Control_c, 0, 64, 63
1, 8119, Control_c, 0, 64, 65
1, 8133, Control_c, 0, 64, 67
1, 8148, Control_c, 0, 64, 69
1, 8163, Control_c, 0, 64, 73
1, 8186, Control_c, 0, 64, 77
1, 8201, Control_c, 0, 64, 80
1, 8216, Control_c, 0, 64, 83
1, 8231, Control_c, 0, 64, 86
1, 8246, Control_c, 0, 64, 88
1, 8261, Control_c, 0, 64, 91
1, 8276, Control_c, 0, 64, 92
1, 8305, Control_c, 0, 64, 93
1, 8320, Control_c, 0, 64, 94
1, 8356, Note_on_c, 0, 76, 60
1, 8365, Control_c, 0, 64, 94
1, 8379, Note_on_c, 0, 72, 41
1, 8380, Control_c, 0, 64, 95
1, 8393, Note_on_c, 0, 64, 28
1, 8407, Note_on_c, 0, 48, 28
1, 8422, Note_off_c, 0, 72, 0
1, 8422, Note_on_c, 0, 72, 11
1, 8425, Note_on_c, 0, 36, 15
1, 8439, Control_c, 0, 64, 95
1, 8484, Control_c, 0, 64, 96
1, 8499, Control_c, 0, 64, 96
1, 8513, Control_c, 0, 64, 97
1, 8528, Control_c, 0, 64, 98
1, 8543, Control_c, 0, 64, 99
1, 8557, Control_c, 0, 64, 101
1, 8572, Control_c, 0, 64, 104
1, 8587, Control_c, 0, 64, 107
1, 8602, Control_c, 0, 64, 110
1, 8617, Control_c, 0, 64, 115
1, 8631, Control_c, 0, 64, 127
1, 9279, Note_off_c, 0, 76, 60
1, 9316, Note_off_c, 0, 64, 41
1, 9396, Note_off_c, 0, 48, 36
1, 9468, Note_off_c, 0, 36, 38
1, 9468, Note_off_c, 0, 72, 44
1, 9979, Note_on_c, 0, 75, 47
1, 9987, Note_on_c, 0, 71, 46
1, 9993, Note_on_c, 0, 48, 37
1, 9996, Note_on_c, 0, 36, 32
1, 9997, Note_on_c, 0, 63, 37
1, 10050, Note_off_c, 0, 36, 44
1, 10058, Note_off_c, 0, 48, 41
1, 10064, Note_off_c, 0, 71, 53
1, 10070, Note_off_c, 0, 75, 52
1, 10085, Note_off_c, 0, 63, 36
1, 10137, Note_on_c, 0, 76, 58
1, 10143, Note_on_c, 0, 72, 45
1, 10160, Note_on_c, 0, 48, 33
1, 10162, Note_on_c, 0, 64, 43
1, 10174, Control_c, 0, 64, 109
1, 10175, Note_on_c, 0, 36, 33
1, 10189, Control_c, 0, 64, 95
1, 10203, Control_c, 0, 64, 84
1, 10218, Control_c, 0, 64, 75
1, 10233, Control_c, 0, 64, 68
1, 10248, Control_c, 0, 64, 62
1, 10263, Control_c, 0, 64, 51
1, 10277, Control_c, 0, 64, 28
1, 10292, Control_c, 0, 64, 0
1, 10922, Control_c, 0, 64, 49
1, 10937, Control_c, 0, 64, 63
1, 10951, Control_c, 0, 64, 67
1, 10966, Control_c, 0, 64, 72
1, 10981, Control_c, 0, 64, 80
1, 10996, Control_c, 0, 64, 92
1, 11011, Control_c, 0, 64, 110
1, 11025, Control_c, 0, 64, 127
1, 11032, Note_off_c, 0, 76, 59
1, 11152, Note_off_c, 0, 64, 42
1, 11224, Note_off_c, 0, 48, 30
1, 11224, Note_off_c, 0, 36, 37
1, 11243, Note_off_c, 0, 72, 38
1, 11703, Note_on_c, 0, 75, 48
1, 11716, Note_on_c, 0, 71, 40
1, 11719, Note_on_c, 0, 36, 30
1, 11719, Note_on_c, 0, 63, 36
1, 11729, Note_on_c, 0, 48, 25
1, 11773, Note_off_c, 0, 36, 43
1, 11777, Note_off_c, 0, 48, 44
1, 11777, Note_off_c, 0, 71, 41
1, 11781, Note_off_c, 0, 63, 46
1, 11796, Note_off_c, 0, 75, 51
1, 11863, Control_c, 0, 64, 98
1, 11868, Note_on_c, 0, 72, 43
1, 11869, Note_on_c, 0, 76, 57
1, 11878, Control_c, 0, 64, 76
1, 11883, Note_on_c, 0, 64, 44
1, 11893, Control_c, 0, 64, 62
1, 11900, Note_on_c, 0, 48, 34
1, 11906, Note_on_c, 0, 36, 29
1, 11908, Control_c, 0, 64, 8
1, 11930, Control_c, 0, 64, 0
1, 11960, Control_c, 0, 64, 32
1, 11975, Control_c, 0, 64, 55
1, 11990, Control_c, 0, 64, 64
1, 12005, Control_c, 0, 64, 67
1, 12014, Note_off_c, 0, 64, 37
1, 12017, Note_off_c, 0, 76, 55
1, 12020, Control_c, 0, 64, 71
1, 12035, Control_c, 0, 64, 73
1, 12047, Note_off_c, 0, 36, 44
1, 12049, Control_c, 0, 64, 76
1, 12061, Note_off_c, 0, 48, 33
1, 12064, Control_c, 0, 64, 78
1, 12079, Control_c, 0, 64, 80
1, 12094, Control_c, 0, 64, 81
1, 12108, Control_c, 0, 64, 82
1, 12123, Control_c, 0, 64, 81
1, 12138, Control_c, 0, 64, 79
1, 12153, Control_c, 0, 64, 74
1, 12161, Note_off_c, 0, 72, 29
1, 12168, Control_c, 0, 64, 70
1, 12182, Control_c, 0, 64, 69
1, 12183, Note_on_c, 0, 77, 62
1, 12196, Note_on_c, 0, 48, 30
1, 12201, Note_on_c, 0, 71, 47
1, 12206, Note_on_c, 0, 65, 43
1, 12213, Note_on_c, 0, 36, 31
1, 12227, Control_c, 0, 64, 71
1, 12242, Control_c, 0, 64, 74
1, 12256, Control_c, 0, 64, 76
1, 12271, Control_c, 0, 64, 78
1, 12275, Note_off_c, 0, 77, 57
1, 12280, Note_off_c, 0, 65, 54
1, 12286, Control_c, 0, 64, 79
1, 12300, Control_c, 0, 64, 79
1, 12315, Note_off_c, 0, 36, 36
1, 12321, Note_off_c, 0, 48, 34
1, 12410, Note_off_c, 0, 71, 62
1, 12413, Note_on_c, 0, 76, 68
1, 12420, Note_on_c, 0, 48, 33
1, 12421, Note_on_c, 0, 72, 57
1, 12428, Note_on_c, 0, 36, 33
1, 12435, Note_on_c, 0, 64, 53
1, 12491, Note_off_c, 0, 64, 56
1, 12517, Note_off_c, 0, 48, 38
1, 12523, Control_c, 0, 64, 80
1, 12526, Note_off_c, 0, 36, 36
1, 12553, Control_c, 0, 64, 81
1, 12568, Note_off_c, 0, 72, 54
1, 12598, Control_c, 0, 64, 77
1, 12613, Control_c, 0, 64, 67
1, 12628, Control_c, 0, 64, 52
1, 12631, Note_off_c, 0, 76, 63
1, 12636, Note_on_c, 0, 74, 65
1, 12643, Control_c, 0, 64, 10
1, 12648, Note_on_c, 0, 36, 31
1, 12648, Note_on_c, 0, 48, 38
1, 12649, Note_on_c, 0, 62, 52
1, 12658, Control_c, 0, 64, 28
1, 12659, Note_on_c, 0, 71, 33
1, 12679, Control_c, 0, 64, 46
1, 12693, Control_c, 0, 64, 60
1, 12699, Note_off_c, 0, 71, 53
1, 12708, Control_c, 0, 64, 67
1, 12723, Control_c, 0, 64, 73
1, 12733, Note_off_c, 0, 74, 64
1, 12737, Control_c, 0, 64, 80
1, 12744, Note_off_c, 0, 62, 53
1, 12752, Control_c, 0, 64, 83
1, 12767, Control_c, 0, 64, 85
1, 12770, Note_off_c, 0, 48, 34
1, 12777, Note_off_c, 0, 36, 43
1, 12782, Control_c, 0, 64, 86
1, 12826, Control_c, 0, 64, 83
1, 12841, Control_c, 0, 64, 75
1, 12856, Control_c, 0, 64, 69
1, 12864, Note_on_c, 0, 72, 62
1, 12871, Control_c, 0, 64, 68
1, 12887, Note_on_c, 0, 60, 42
1, 12896, Note_on_c, 0, 69, 48
1, 12898, Note_on_c, 0, 48, 28
1, 12900, Control_c, 0, 64, 69
1, 12901, Note_on_c, 0, 36, 41
1, 12915, Control_c, 0, 64, 73
1, 12929, Control_c, 0, 64, 79
1, 12944, Note_off_c, 0, 48, 56
1, 12944, Control_c, 0, 64, 83
1, 12953, Note_off_c, 0, 60, 56
1, 12959, Control_c, 0, 64, 84
1, 12974, Control_c, 0, 64, 84
1, 13064, Note_off_c, 0, 36, 40
1, 13074, Note_off_c, 0, 69, 39
1, 13093, Control_c, 0, 64, 83
1, 13105, Note_off_c, 0, 72, 60
1, 13108, Control_c, 0, 64, 76
1, 13122, Control_c, 0, 64, 65
1, 13125, Note_on_c, 0, 71, 53
1, 13132, Note_on_c, 0, 67, 43
1, 13137, Control_c, 0, 64, 28
1, 13140, Note_on_c, 0, 49, 39
1, 13142, Note_on_c, 0, 59, 43
1, 13150, Note_on_c, 0, 37, 41
1, 13152, Control_c, 0, 64, 0
1, 13210, Note_off_c, 0, 67, 53
1, 13212, Control_c, 0, 64, 53
1, 13227, Control_c, 0, 64, 66
1, 13242, Control_c, 0, 64, 71
1, 13250, Note_off_c, 0, 71, 59
1, 13257, Control_c, 0, 64, 74
1, 13270, Note_off_c, 0, 59, 62
1, 13272, Control_c, 0, 64, 76
1, 13287, Control_c, 0, 64, 77
1, 13301, Control_c, 0, 64, 78
1, 13316, Control_c, 0, 64, 78
1, 13331, Control_c, 0, 64, 79
1, 13405, Note_off_c, 0, 49, 51
1, 13453, Note_off_c, 0, 37, 30
1, 13492, Note_on_c, 0, 69, 48
1, 13501, Control_c, 0, 64, 76
1, 13501, Note_on_c, 0, 66, 44
1, 13510, Note_on_c, 0, 57, 35
1, 13516, Control_c, 0, 64, 70
1, 13527, Note_on_c, 0, 50, 32
1, 13531, Control_c, 0, 64, 62
1, 13543, Note_on_c, 0, 38, 28
1, 13546, Control_c, 0, 64, 0
1, 13620, Control_c, 0, 64, 34
1, 13634, Control_c, 0, 64, 61
1, 13641, Note_off_c, 0, 57, 52
1, 13649, Control_c, 0, 64, 67
1, 13664, Control_c, 0, 64, 72
1, 13677, Note_off_c, 0, 69, 53
1, 13678, Control_c, 0, 64, 76
1, 13688, Note_off_c, 0, 66, 56
1, 13693, Control_c, 0, 64, 78
1, 13708, Control_c, 0, 64, 80
1, 13723, Control_c, 0, 64, 82
1, 13738, Control_c, 0, 64, 83
1, 13739, Note_off_c, 0, 50, 53
1, 13752, Control_c, 0, 64, 84
1, 13766, Note_off_c, 0, 38, 39
1, 13782, Control_c, 0, 64, 84
1, 13886, Control_c, 0, 64, 82
1, 13895, Note_on_c, 0, 62, 49
1, 13901, Control_c, 0, 64, 71
1, 13916, Control_c, 0, 64, 60
1, 13930, Control_c, 0, 64, 0
1, 13961, Control_c, 0, 64, 34
1, 13975, Control_c, 0, 64, 54
1, 13990, Control_c, 0, 64, 64
1, 14005, Control_c, 0, 64, 71
1, 14020, Control_c, 0, 64, 79
1, 14035, Control_c, 0, 64, 85
1, 14038, Note_off_c, 0, 62, 51
1, 14050, Control_c, 0, 64, 87
1, 14065, Control_c, 0, 64, 89
1, 14079, Control_c, 0, 64, 94
1, 14094, Control_c, 0, 64, 101
1, 14109, Control_c, 0, 64, 111
1, 14124, Control_c, 0, 64, 127
1, 14175, Control_c, 0, 64, 112
1, 14182, Note_on_c, 0, 64, 62
1, 14190, Control_c, 0, 64, 85
1, 14205, Control_c, 0, 64, 70
1, 14220, Control_c, 0, 64, 64
1, 14249, Control_c, 0, 64, 66
1, 14264, Control_c, 0, 64, 71
1, 14264, Control_c, 0, 67, 125
1, 14279, Control_c, 0, 64, 81
1, 14279, Control_c, 0, 67, 122
1, 14294, Control_c, 0, 64, 94
1, 14294, Control_c, 0, 67, 118
1, 14309, Control_c, 0, 64, 107
1, 14309, Control_c, 0, 67, 112
1, 14309, Note_off_c, 0, 64, 54
1, 14324, Control_c, 0, 64, 127
1, 14324, Control_c, 0, 67, 107
1, 14339, Control_c, 0, 67, 101
1, 14354, Control_c, 0, 67, 97
1, 14369, Control_c, 0, 67, 93
1, 14383, Control_c, 0, 64, 99
1, 14383, Control_c, 0, 67, 90
1, 14398, Control_c, 0, 64, 75
1, 14398, Control_c, 0, 67, 86
1, 14400, Note_on_c, 0, 66, 66
1, 14413, Control_c, 0, 64, 60
1, 14413, Control_c, 0, 67, 83
1, 14428, Control_c, 0, 64, 50
1, 14428, Control_c, 0, 67, 80
1, 14443, Control_c, 0, 64, 55
1, 14443, Control_c, 0, 67, 77
1, 14457, Control_c, 0, 64, 62
1, 14457, Control_c, 0, 67, 73
1, 14472, Control_c, 0, 64, 67
1, 14472, Control_c, 0, 67, 68
1, 14487, Control_c, 0, 64, 78
1, 14487, Control_c, 0, 67, 63
1, 14501, Control_c, 0, 64, 110
1, 14501, Control_c, 0, 67, 58
1, 14516, Control_c, 0, 64, 127
1, 14516, Control_c, 0, 67, 52
1, 14531, Control_c, 0, 67, 48
1, 14546, Control_c, 0, 67, 44
1, 14553, Note_off_c, 0, 66, 56
1, 14561, Control_c, 0, 67, 41
1, 14575, Control_c, 0, 67, 38
1, 14590, Control_c, 0, 67, 36
1, 14605, Control_c, 0, 64, 118
1, 14605, Control_c, 0, 67, 33
1, 14614, Note_on_c, 0, 67, 71
1, 14620, Control_c, 0, 64, 75
1, 14620, Control_c, 0, 67, 30
1, 14635, Control_c, 0, 64, 57
1, 14635, Control_c, 0, 67, 27
1, 14649, Control_c, 0, 64, 28
1, 14649, Control_c, 0, 67, 24
1, 14664, Control_c, 0, 64, 37
1, 14664, Control_c, 0, 67, 19
1, 14679, Control_c, 0, 64, 52
1, 14679, Control_c, 0, 67, 13
1, 14694, Control_c, 0, 64, 64
1, 14694, Control_c, 0, 67, 0
1, 14708, Control_c, 0, 64, 73
1, 14723, Control_c, 0, 64, 89
1, 14738, Control_c, 0, 64, 106
1, 14754, Control_c, 0, 64, 115
1, 14769, Control_c, 0, 64, 125
1, 14784, Control_c, 0, 64, 127
1, 14826, Note_off_c, 0, 67, 37
1, 14843, Control_c, 0, 64, 99
1, 14857, Note_on_c, 0, 69, 73
1, 14858, Control_c, 0, 64, 71
1, 14872, Control_c, 0, 64, 38
1, 14887, Control_c, 0, 64, 0
1, 14939, Control_c, 0, 64, 43
1, 14954, Control_c, 0, 64, 66
1, 14969, Control_c, 0, 64, 76
1, 14984, Control_c, 0, 64, 90
1, 14992, Note_off_c, 0, 69, 61
1, 14998, Control_c, 0, 64, 94
1, 15013, Control_c, 0, 64, 97
1, 15028, Control_c, 0, 64, 103
1, 15043, Control_c, 0, 64, 115
1, 15058, Control_c, 0, 64, 127
1, 15304, Note_on_c, 0, 71, 68
1, 15320, Note_on_c, 0, 67, 56
1, 15340, Note_on_c, 0, 59, 45
1, 15355, Note_on_c, 0, 43, 40
1, 15359, Note_on_c, 0, 50, 37
1, 15384, Control_c, 0, 64, 110
1, 15398, Control_c, 0, 64, 99
1, 15413, Control_c, 0, 64, 93
1, 15428, Control_c, 0, 64, 86
1, 15442, Control_c, 0, 64, 78
1, 15457, Control_c, 0, 64, 69
1, 15472, Control_c, 0, 64, 61
1, 15487, Control_c, 0, 64, 37
1, 15502, Control_c, 0, 64, 0
1, 16089, Control_c, 0, 64, 15
1, 16104, Control_c, 0, 64, 53
1, 16118, Control_c, 0, 64, 62
1, 16133, Control_c, 0, 64, 64
1, 16148, Control_c, 0, 64, 67
1, 16163, Control_c, 0, 64, 72
1, 16178, Control_c, 0, 64, 83
1, 16193, Control_c, 0, 64, 99
1, 16208, Control_c, 0, 64, 127
1, 16382, Note_off_c, 0, 59, 33
1, 16390, Note_off_c, 0, 71, 50
1, 16473, Note_off_c, 0, 50, 35
1, 16497, Note_off_c, 0, 43, 38
1, 16536, Note_off_c, 0, 67, 34
1, 16786, Note_on_c, 0, 69, 52
1, 16795, Note_on_c, 0, 66, 47
1, 16798, Note_on_c, 0, 60, 40
1, 16803, Note_on_c, 0, 43, 43
1, 16811, Note_on_c, 0, 50, 44
1, 16837, Note_off_c, 0, 60, 60
1, 16860, Note_off_c, 0, 50, 53
1, 16861, Note_off_c, 0, 43, 47
1, 16865, Note_off_c, 0, 66, 47
1, 16873, Note_off_c, 0, 69, 55
1, 16943, Note_on_c, 0, 71, 61
1, 16953, Note_on_c, 0, 67, 53
1, 16958, Note_on_c, 0, 43, 39
1, 16959, Note_on_c, 0, 59, 49
1, 16959, Note_on_c, 0, 50, 35
1, 17000, Control_c, 0, 64, 106
1, 17015, Control_c, 0, 64, 94
1, 17030, Control_c, 0, 64, 83
1, 17044, Control_c, 0, 64, 72
1, 17059, Control_c, 0, 64, 60
1, 17074, Control_c, 0, 64, 0
1, 17230, Control_c, 0, 64, 17
1, 17245, Control_c, 0, 64, 43
1, 17260, Control_c, 0, 64, 54
1, 17275, Control_c, 0, 64, 60
1, 17290, Control_c, 0, 64, 62
1, 17305, Control_c, 0, 64, 62
1, 17319, Control_c, 0, 64, 63
1, 17334, Control_c, 0, 64, 63
1, 17349, Control_c, 0, 64, 64
1, 17364, Control_c, 0, 64, 66
1, 17379, Control_c, 0, 64, 67
1, 17393, Control_c, 0, 64, 68
1, 17408, Control_c, 0, 64, 70
1, 17423, Control_c, 0, 64, 71
1, 17438, Control_c, 0, 64, 72
1, 17467, Control_c, 0, 64, 73
1, 17482, Control_c, 0, 64, 73
1, 17497, Control_c, 0, 64, 75
1, 17512, Control_c, 0, 64, 76
1, 17526, Control_c, 0, 64, 78
1, 17541, Control_c, 0, 64, 80
1, 17556, Control_c, 0, 64, 83
1, 17571, Control_c, 0, 64, 87
1, 17586, Control_c, 0, 64, 91
1, 17600, Control_c, 0, 64, 97
1, 17615, Control_c, 0, 64, 110
1, 17630, Control_c, 0, 64, 127
1, 17921, Note_off_c, 0, 59, 34
1, 17983, Note_off_c, 0, 71, 35
1, 18018, Note_off_c, 0, 43, 38
1, 18018, Note_off_c, 0, 50, 32
1, 18087, Note_off_c, 0, 67, 37
1, 18307, Note_on_c, 0, 69, 51
1, 18312, Note_on_c, 0, 60, 44
1, 18315, Note_on_c, 0, 66, 46
1, 18319, Note_on_c, 0, 43, 36
1, 18325, Note_on_c, 0, 50, 36
1, 18352, Note_off_c, 0, 60, 62
1, 18360, Note_off_c, 0, 66, 58
1, 18366, Note_off_c, 0, 50, 50
1, 18377, Note_off_c, 0, 43, 42
1, 18387, Note_off_c, 0, 69, 55
1, 18453, Control_c, 0, 64, 86
1, 18463, Note_on_c, 0, 71, 61
1, 18467, Control_c, 0, 64, 62
1, 18470, Note_on_c, 0, 67, 57
1, 18476, Note_on_c, 0, 50, 35
1, 18477, Note_on_c, 0, 59, 38
1, 18482, Control_c, 0, 64, 0
1, 18490, Note_on_c, 0, 43, 44
1, 18527, Control_c, 0, 64, 28
1, 18542, Control_c, 0, 64, 57
1, 18557, Control_c, 0, 64, 66
1, 18569, Note_off_c, 0, 59, 55
1, 18572, Control_c, 0, 64, 72
1, 18576, Note_off_c, 0, 71, 60
1, 18578, Note_off_c, 0, 67, 60
1, 18587, Control_c, 0, 64, 77
1, 18602, Control_c, 0, 64, 80
1, 18625, Note_off_c, 0, 50, 39
1, 18647, Note_off_c, 0, 43, 38
1, 18711, Note_on_c, 0, 72, 67
1, 18712, Note_on_c, 0, 43, 38
1, 18715, Note_on_c, 0, 60, 59
1, 18718, Note_on_c, 0, 50, 42
1, 18718, Note_on_c, 0, 69, 63
1, 18783, Note_off_c, 0, 43, 59
1, 18789, Note_off_c, 0, 60, 55
1, 18803, Control_c, 0, 64, 81
1, 18810, Note_off_c, 0, 72, 62
1, 18818, Note_off_c, 0, 69, 61
1, 18818, Control_c, 0, 64, 82
1, 18833, Control_c, 0, 64, 84
1, 18847, Control_c, 0, 64, 87
1, 18848, Note_off_c, 0, 50, 35
1, 18862, Control_c, 0, 64, 88
1, 18891, Control_c, 0, 64, 85
1, 18906, Control_c, 0, 64, 72
1, 18917, Note_on_c, 0, 74, 69
1, 18920, Note_on_c, 0, 71, 61
1, 18920, Note_on_c, 0, 62, 62
1, 18921, Note_on_c, 0, 43, 58
1, 18921, Control_c, 0, 64, 62
1, 18934, Note_on_c, 0, 50, 44
1, 18936, Control_c, 0, 64, 50
1, 18951, Control_c, 0, 64, 51
1, 18965, Control_c, 0, 64, 59
1, 18980, Control_c, 0, 64, 64
1, 18986, Note_off_c, 0, 71, 61
1, 18988, Note_off_c, 0, 62, 56
1, 18989, Note_off_c, 0, 74, 62
1, 18995, Control_c, 0, 64, 70
1, 19001, Note_off_c, 0, 50, 60
1, 19010, Control_c, 0, 64, 78
1, 19025, Control_c, 0, 64, 81
1, 19040, Control_c, 0, 64, 82
1, 19043, Note_off_c, 0, 43, 50
1, 19055, Control_c, 0, 64, 83
1, 19070, Control_c, 0, 64, 84
1, 19084, Control_c, 0, 64, 84
1, 19099, Control_c, 0, 64, 85
1, 19188, Control_c, 0, 64, 84
1, 19195, Note_on_c, 0, 71, 71
1, 19203, Control_c, 0, 64, 83
1, 19216, Note_on_c, 0, 66, 55
1, 19218, Control_c, 0, 64, 73
1, 19220, Note_on_c, 0, 59, 48
1, 19225, Note_on_c, 0, 51, 47
1, 19233, Control_c, 0, 64, 62
1, 19241, Note_on_c, 0, 39, 39
1, 19247, Control_c, 0, 64, 0
1, 19306, Control_c, 0, 64, 45
1, 19321, Control_c, 0, 64, 63
1, 19336, Control_c, 0, 64, 69
1, 19343, Note_off_c, 0, 59, 55
1, 19350, Note_off_c, 0, 51, 53
1, 19351, Control_c, 0, 64, 75
1, 19365, Control_c, 0, 64, 81
1, 19367, Note_off_c, 0, 66, 53
1, 19380, Control_c, 0, 64, 87
1, 19391, Note_off_c, 0, 39, 34
1, 19395, Control_c, 0, 64, 94
1, 19418, Control_c, 0, 64, 99
1, 19433, Control_c, 0, 64, 100
1, 19447, Control_c, 0, 64, 99
1, 19462, Control_c, 0, 64, 85
1, 19474, Note_off_c, 0, 71, 55
1, 19477, Control_c, 0, 64, 68
1, 19484, Note_on_c, 0, 69, 61
1, 19491, Control_c, 0, 64, 57
1, 19495, Note_on_c, 0, 66, 51
1, 19501, Note_on_c, 0, 39, 48
1, 19502, Note_on_c, 0, 51, 45
1, 19506, Control_c, 0, 64, 49
1, 19512, Note_on_c, 0, 60, 50
1, 19521, Control_c, 0, 64, 57
1, 19537, Control_c, 0, 64, 63
1, 19552, Control_c, 0, 64, 69
1, 19567, Control_c, 0, 64, 81
1, 19574, Note_off_c, 0, 60, 51
1, 19582, Control_c, 0, 64, 98
1, 19590, Note_off_c, 0, 66, 62
1, 19590, Note_off_c, 0, 69, 62
1, 19591, Note_off_c, 0, 39, 49
1, 19596, Control_c, 0, 64, 105
1, 19601, Note_off_c, 0, 51, 37
1, 19611, Control_c, 0, 64, 109
1, 19626, Control_c, 0, 64, 113
1, 19641, Control_c, 0, 64, 115
1, 19670, Control_c, 0, 64, 110
1, 19685, Control_c, 0, 64, 85
1, 19698, Note_on_c, 0, 69, 64
1, 19700, Control_c, 0, 64, 65
1, 19710, Note_on_c, 0, 66, 57
1, 19711, Note_on_c, 0, 60, 45
1, 19714, Control_c, 0, 64, 39
1, 19720, Note_on_c, 0, 39, 44
1, 19722, Note_on_c, 0, 51, 47
1, 19729, Control_c, 0, 64, 0
1, 19744, Control_c, 0, 64, 29
1, 19759, Control_c, 0, 64, 53
1, 19774, Control_c, 0, 64, 65
1, 19788, Control_c, 0, 64, 76
1, 19791, Note_off_c, 0, 60, 58
1, 19803, Control_c, 0, 64, 89
1, 19818, Control_c, 0, 64, 93
1, 19819, Note_off_c, 0, 69, 59
1, 19833, Control_c, 0, 64, 94
1, 19845, Note_off_c, 0, 39, 0
1, 19848, Control_c, 0, 64, 95
1, 19862, Control_c, 0, 64, 96
1, 19867, Note_off_c, 0, 66, 37
1, 19872, Note_off_c, 0, 51, 32
1, 19877, Control_c, 0, 64, 98
1, 19892, Control_c, 0, 64, 100
1, 19907, Control_c, 0, 64, 104
1, 19909, Poly_aftertouch_c, 0, 39, 0
1, 19922, Control_c, 0, 64, 105
1, 19937, Control_c, 0, 64, 106
1, 20070, Control_c, 0, 64, 106
1, 20100, Control_c, 0, 64, 105
1, 20102, Note_on_c, 0, 67, 61
1, 20114, Control_c, 0, 64, 104
1, 20129, Control_c, 0, 64, 101
1, 20131, Note_on_c, 0, 52, 44
1, 20133, Note_on_c, 0, 40, 42
1, 20133, Note_on_c, 0, 64, 43
1, 20142, Note_on_c, 0, 59, 36
1, 20144, Control_c, 0, 64, 96
1, 20166, Control_c, 0, 64, 92
1, 20181, Control_c, 0, 64, 87
1, 20196, Control_c, 0, 64, 83
1, 20211, Control_c, 0, 64, 79
1, 20226, Control_c, 0, 64, 75
1, 20240, Control_c, 0, 64, 70
1, 20255, Control_c, 0, 64, 63
1, 20270, Control_c, 0, 64, 54
1, 20285, Control_c, 0, 64, 28
1, 20300, Control_c, 0, 64, 0
1, 20670, Control_c, 0, 64, 29
1, 20685, Control_c, 0, 64, 42
1, 20700, Control_c, 0, 64, 47
1, 20715, Control_c, 0, 64, 51
1, 20730, Control_c, 0, 64, 57
1, 20745, Control_c, 0, 64, 60
1, 20760, Control_c, 0, 64, 62
1, 20775, Control_c, 0, 64, 63
1, 20789, Control_c, 0, 64, 64
1, 20804, Control_c, 0, 64, 65
1, 20819, Control_c, 0, 64, 66
1, 20834, Control_c, 0, 64, 69
1, 20849, Control_c, 0, 64, 72
1, 20863, Control_c, 0, 64, 75
1, 20878, Control_c, 0, 64, 77
1, 20893, Control_c, 0, 64, 78
1, 20915, Control_c, 0, 64, 81
1, 20930, Control_c, 0, 64, 86
1, 20944, Control_c, 0, 64, 93
1, 20959, Control_c, 0, 64, 105
1, 20974, Control_c, 0, 64, 127
1, 21022, Note_off_c, 0, 40, 40
1, 21031, Note_off_c, 0, 52, 35
1, 21063, Note_off_c, 0, 64, 42
1, 21171, Note_off_c, 0, 59, 41
1, 21266, Note_off_c, 0, 67, 29
1, 21389, Control_c, 0, 64, 101
1, 21404, Control_c, 0, 64, 84
1, 21419, Control_c, 0, 64, 71
1, 21433, Control_c, 0, 64, 62
1, 21448, Control_c, 0, 64, 34
1, 21463, Control_c, 0, 64, 0
1, 21678, Control_c, 0, 64, 45
1, 21678, Control_c, 0, 67, 8
1, 21693, Control_c, 0, 64, 56
1, 21693, Control_c, 0, 67, 12
1, 21708, Control_c, 0, 64, 60
1, 21708, Control_c, 0, 67, 14
1, 21723, Control_c, 0, 64, 63
1, 21723, Control_c, 0, 67, 17
1, 21737, Control_c, 0, 64, 65
1, 21737, Control_c, 0, 67, 20
1, 21752, Control_c, 0, 64, 68
1, 21752, Control_c, 0, 67, 24
1, 21767, Control_c, 0, 64, 74
1, 21767, Control_c, 0, 67, 28
1, 21782, Control_c, 0, 64, 83
1, 21782, Control_c, 0, 67, 31
1, 21797, Control_c, 0, 64, 88
1, 21797, Control_c, 0, 67, 36
1, 21811, Control_c, 0, 64, 95
1, 21811, Control_c, 0, 67, 40
1, 21826, Control_c, 0, 64, 106
1, 21826, Control_c, 0, 67, 43
1, 21841, Control_c, 0, 64, 127
1, 21841, Control_c, 0, 67, 48
1, 21856, Control_c, 0, 67, 52
1, 21871, Control_c, 0, 67, 57
1, 21885, Control_c, 0, 67, 62
1, 21900, Control_c, 0, 67, 68
1, 21915, Control_c, 0, 67, 73
1, 21930, Control_c, 0, 67, 78
1, 21946, Control_c, 0, 67, 82
1, 21961, Control_c, 0, 67, 85
1, 21976, Control_c, 0, 67, 86
1, 21990, Control_c, 0, 67, 86
1, 22062, Note_on_c, 0, 68, 46
1, 22075, Note_on_c, 0, 47, 34
1, 22079, Control_c, 0, 67, 86
1, 22083, Note_on_c, 0, 53, 33
1, 22083, Note_on_c, 0, 56, 29
1, 22092, Note_on_c, 0, 62, 33
1, 22094, Note_on_c, 0, 65, 32
1, 22099, Note_on_c, 0, 50, 32
1, 22103, Note_on_c, 0, 59, 7
1, 22134, Note_off_c, 0, 56, 45
1, 22138, Control_c, 0, 67, 85
1, 22140, Note_off_c, 0, 50, 48
1, 22140, Note_off_c, 0, 53, 54
1, 22140, Note_off_c, 0, 62, 46
1, 22147, Note_off_c, 0, 65, 44
1, 22154, Note_off_c, 0, 59, 50
1, 22166, Note_off_c, 0, 68, 36
1, 22170, Note_off_c, 0, 47, 34
1, 22229, Note_on_c, 0, 68, 52
1, 22241, Control_c, 0, 67, 84
1, 22244, Note_on_c, 0, 47, 22
1, 22252, Note_on_c, 0, 53, 17
1, 22257, Note_on_c, 0, 56, 29
1, 22257, Note_on_c, 0, 65, 34
1, 22263, Note_on_c, 0, 50, 39
1, 22268, Note_on_c, 0, 59, 30
1, 22271, Control_c, 0, 67, 83
1, 22281, Note_on_c, 0, 62, 29
1, 22286, Control_c, 0, 67, 82
1, 22301, Control_c, 0, 67, 82
1, 22316, Control_c, 0, 64, 111
1, 22329, Note_off_c, 0, 62, 0
1, 22329, Note_on_c, 0, 62, 5
1, 22331, Control_c, 0, 64, 91
1, 22346, Control_c, 0, 64, 77
1, 22360, Control_c, 0, 64, 68
1, 22375, Control_c, 0, 64, 61
1, 22390, Control_c, 0, 64, 44
1, 22412, Control_c, 0, 64, 0
1, 22457, Control_c, 0, 67, 81
1, 22516, Control_c, 0, 67, 81
1, 22635, Control_c, 0, 67, 80
1, 22650, Control_c, 0, 67, 80
1, 22664, Control_c, 0, 67, 79
1, 22679, Control_c, 0, 67, 79
1, 22709, Control_c, 0, 67, 78
1, 22724, Control_c, 0, 67, 78
1, 22888, Control_c, 0, 64, 10
1, 22903, Control_c, 0, 64, 17
1, 22918, Control_c, 0, 64, 22
1, 22932, Control_c, 0, 64, 28
1, 22947, Control_c, 0, 64, 34
1, 22962, Control_c, 0, 64, 38
1, 22977, Control_c, 0, 64, 41
1, 22977, Control_c, 0, 67, 78
1, 22992, Control_c, 0, 64, 43
1, 23006, Control_c, 0, 64, 46
1, 23006, Control_c, 0, 67, 79
1, 23021, Control_c, 0, 64, 50
1, 23036, Control_c, 0, 64, 53
1, 23051, Control_c, 0, 64, 56
1, 23065, Control_c, 0, 64, 60
1, 23080, Control_c, 0, 64, 62
1, 23095, Control_c, 0, 64, 64
1, 23110, Control_c, 0, 64, 67
1, 23125, Control_c, 0, 64, 71
1, 23139, Control_c, 0, 64, 77
1, 23162, Control_c, 0, 64, 85
1, 23162, Control_c, 0, 67, 79
1, 23177, Control_c, 0, 64, 94
1, 23192, Control_c, 0, 64, 108
1, 23192, Control_c, 0, 67, 80
1, 23207, Control_c, 0, 64, 127
1, 23251, Control_c, 0, 67, 80
1, 23256, Note_off_c, 0, 59, 41
1, 23295, Control_c, 0, 67, 81
1, 23346, Note_off_c, 0, 62, 42
1, 23349, Note_off_c, 0, 53, 42
1, 23359, Note_off_c, 0, 47, 41
1, 23365, Note_off_c, 0, 50, 38
1, 23394, Note_off_c, 0, 65, 40
1, 23413, Control_c, 0, 67, 80
1, 23440, Note_off_c, 0, 68, 44
1, 23442, Note_off_c, 0, 56, 41
1, 23443, Control_c, 0, 67, 80
1, 23829, Control_c, 0, 64, 109
1, 23844, Control_c, 0, 64, 81
1, 23859, Control_c, 0, 64, 64
1, 23864, Note_on_c, 0, 69, 56
1, 23874, Control_c, 0, 64, 0
1, 23882, Note_on_c, 0, 64, 47
1, 23886, Note_on_c, 0, 60, 37
1, 23887, Note_on_c, 0, 57, 38
1, 23889, Note_on_c, 0, 52, 36
1, 23892, Note_on_c, 0, 48, 42
1, 23911, Control_c, 0, 67, 79
1, 23925, Control_c, 0, 67, 78
1, 23940, Control_c, 0, 64, 31
1, 23940, Control_c, 0, 67, 77
1, 23955, Note_off_c, 0, 57, 57
1, 23955, Control_c, 0, 64, 56
1, 23955, Control_c, 0, 67, 76
1, 23970, Control_c, 0, 64, 64
1, 23970, Control_c, 0, 67, 74
1, 23975, Note_off_c, 0, 52, 58
1, 23985, Control_c, 0, 64, 66
1, 23985, Control_c, 0, 67, 71
1, 24000, Control_c, 0, 64, 68
1, 24000, Control_c, 0, 67, 68
1, 24005, Note_off_c, 0, 69, 67
1, 24009, Note_off_c, 0, 64, 35
1, 24015, Control_c, 0, 64, 71
1, 24015, Control_c, 0, 67, 63
1, 24021, Note_off_c, 0, 48, 61
1, 24030, Control_c, 0, 64, 74
1, 24030, Control_c, 0, 67, 58
1, 24044, Control_c, 0, 64, 77
1, 24044, Control_c, 0, 67, 53
1, 24059, Control_c, 0, 64, 81
1, 24059, Control_c, 0, 67, 50
1, 24074, Control_c, 0, 64, 85
1, 24074, Control_c, 0, 67, 49
1, 24084, Note_off_c, 0, 60, 29
1, 24088, Control_c, 0, 64, 89
1, 24103, Control_c, 0, 64, 91
1, 24103, Control_c, 0, 67, 48
1, 24118, Control_c, 0, 64, 94
1, 24118, Control_c, 0, 67, 47
1, 24133, Control_c, 0, 64, 97
1, 24133, Control_c, 0, 67, 45
1, 24148, Control_c, 0, 64, 99
1, 24148, Control_c, 0, 67, 42
1, 24162, Control_c, 0, 64, 103
1, 24162, Control_c, 0, 67, 40
1, 24177, Control_c, 0, 64, 107
1, 24177, Control_c, 0, 67, 37
1, 24192, Control_c, 0, 64, 114
1, 24192, Control_c, 0, 67, 36
1, 24206, Control_c, 0, 64, 118
1, 24206, Control_c, 0, 67, 34
1, 24221, Control_c, 0, 64, 119
1, 24221, Control_c, 0, 67, 32
1, 24236, Control_c, 0, 67, 30
1, 24251, Control_c, 0, 67, 27
1, 24266, Control_c, 0, 67, 26
1, 24280, Control_c, 0, 64, 121
1, 24310, Control_c, 0, 67, 25
1, 24326, Control_c, 0, 67, 25
1, 24341, Control_c, 0, 64, 119
1, 24341, Control_c, 0, 67, 24
1, 24356, Control_c, 0, 67, 22
1, 24363, Note_on_c, 0, 77, 71
1, 24371, Control_c, 0, 67, 22
1, 24385, Control_c, 0, 64, 118
1, 24385, Control_c, 0, 67, 21
1, 24394, Note_on_c, 0, 68, 47
1, 24400, Control_c, 0, 64, 115
1, 24400, Control_c, 0, 67, 21
1, 24403, Note_on_c, 0, 65, 40
1, 24410, Note_on_c, 0, 53, 39
1, 24415, Control_c, 0, 64, 109
1, 24415, Control_c, 0, 67, 20
1, 24419, Note_on_c, 0, 56, 32
1, 24420, Note_on_c, 0, 47, 43
1, 24430, Control_c, 0, 64, 103
1, 24430, Control_c, 0, 67, 18
1, 24445, Control_c, 0, 64, 95
1, 24445, Control_c, 0, 67, 17
1, 24459, Control_c, 0, 64, 89
1, 24459, Control_c, 0, 67, 14
1, 24474, Control_c, 0, 64, 83
1, 24474, Control_c, 0, 67, 12
1, 24489, Control_c, 0, 64, 77
1, 24489, Control_c, 0, 67, 10
1, 24504, Control_c, 0, 64, 71
1, 24504, Control_c, 0, 67, 8
1, 24519, Control_c, 0, 64, 65
1, 24519, Control_c, 0, 67, 0
1, 24534, Control_c, 0, 64, 58
1, 24548, Control_c, 0, 64, 28
1, 24563, Control_c, 0, 64, 0
1, 24822, Control_c, 0, 64, 24
1, 24836, Control_c, 0, 64, 38
1, 24851, Control_c, 0, 64, 43
1, 24866, Control_c, 0, 64, 45
1, 24881, Control_c, 0, 64, 47
1, 24896, Control_c, 0, 64, 49
1, 24910, Control_c, 0, 64, 51
1, 24925, Control_c, 0, 64, 54
1, 24940, Control_c, 0, 64, 56
1, 24955, Control_c, 0, 64, 58
1, 24970, Control_c, 0, 64, 59
1, 24984, Control_c, 0, 64, 60
1, 24999, Control_c, 0, 64, 60
1, 25014, Control_c, 0, 64, 61
1, 25028, Control_c, 0, 64, 63
1, 25043, Control_c, 0, 64, 63
1, 25073, Control_c, 0, 64, 64
1, 25088, Control_c, 0, 64, 65
1, 25103, Control_c, 0, 64, 65
1, 25118, Control_c, 0, 64, 66
1, 25133, Control_c, 0, 64, 67
1, 25148, Control_c, 0, 64, 69
1, 25163, Control_c, 0, 64, 71
1, 25178, Control_c, 0, 64, 73
1, 25193, Control_c, 0, 64, 75
1, 25207, Control_c, 0, 64, 79
1, 25222, Control_c, 0, 64, 85
1, 25237, Control_c, 0, 64, 89
1, 25252, Control_c, 0, 64, 93
1, 25267, Control_c, 0, 64, 99
1, 25282, Control_c, 0, 64, 107
1, 25297, Control_c, 0, 64, 121
1, 25312, Control_c, 0, 64, 127
1, 25484, Note_off_c, 0, 77, 34
1, 25515, Note_off_c, 0, 53, 40
1, 25584, Note_off_c, 0, 47, 40
1, 25620, Note_off_c, 0, 65, 44
1, 25768, Note_off_c, 0, 68, 45
1, 25778, Control_c, 0, 67, 10
1, 25793, Control_c, 0, 67, 13
1, 25808, Control_c, 0, 67, 14
1, 25823, Control_c, 0, 67, 15
1, 25838, Control_c, 0, 67, 16
1, 25852, Control_c, 0, 67, 18
1, 25861, Note_off_c, 0, 56, 40
1, 25867, Control_c, 0, 67, 19
1, 25882, Control_c, 0, 67, 23
1, 25897, Control_c, 0, 67, 26
1, 25912, Control_c, 0, 67, 29
1, 25928, Control_c, 0, 67, 31
1, 25943, Control_c, 0, 67, 34
1, 25957, Control_c, 0, 67, 37
1, 25972, Control_c, 0, 67, 40
1, 25987, Control_c, 0, 67, 43
1, 26002, Control_c, 0, 67, 46
1, 26017, Control_c, 0, 67, 48
1, 26031, Control_c, 0, 67, 50
1, 26046, Control_c, 0, 64, 103
1, 26046, Control_c, 0, 67, 53
1, 26054, Note_on_c, 0, 76, 55
1, 26061, Control_c, 0, 64, 79
1, 26061, Control_c, 0, 67, 56
1, 26066, Note_on_c, 0, 69, 43
1, 26072, Note_on_c, 0, 57, 40
1, 26075, Note_on_c, 0, 52, 38
1, 26075, Control_c, 0, 64, 64
1, 26075, Control_c, 0, 67, 60
1, 26087, Note_on_c, 0, 64, 31
1, 26090, Control_c, 0, 64, 49
1, 26090, Control_c, 0, 67, 64
1, 26094, Note_on_c, 0, 48, 31
1, 26105, Control_c, 0, 64, 26
1, 26105, Control_c, 0, 67, 67
1, 26120, Control_c, 0, 64, 31
1, 26120, Control_c, 0, 67, 69
1, 26135, Control_c, 0, 64, 44
1, 26135, Control_c, 0, 67, 72
1, 26157, Control_c, 0, 64, 55
1, 26157, Control_c, 0, 67, 74
1, 26171, Control_c, 0, 64, 63
1, 26171, Control_c, 0, 67, 77
1, 26179, Note_off_c, 0, 57, 53
1, 26186, Control_c, 0, 64, 67
1, 26186, Control_c, 0, 67, 80
1, 26197, Note_off_c, 0, 76, 55
1, 26201, Control_c, 0, 64, 71
1, 26201, Control_c, 0, 67, 83
1, 26212, Note_off_c, 0, 52, 58
1, 26216, Control_c, 0, 64, 74
1, 26216, Control_c, 0, 67, 87
1, 26230, Control_c, 0, 64, 77
1, 26230, Control_c, 0, 67, 91
1, 26245, Control_c, 0, 64, 80
1, 26245, Control_c, 0, 67, 95
1, 26260, Control_c, 0, 64, 83
1, 26260, Control_c, 0, 67, 99
1, 26262, Note_off_c, 0, 48, 52
1, 26274, Control_c, 0, 64, 85
1, 26274, Control_c, 0, 67, 103
1, 26289, Control_c, 0, 64, 86
1, 26289, Control_c, 0, 67, 107
1, 26304, Control_c, 0, 64, 87
1, 26304, Control_c, 0, 67, 111
1, 26307, Note_off_c, 0, 64, 41
1, 26319, Control_c, 0, 67, 116
1, 26334, Control_c, 0, 64, 87
1, 26334, Control_c, 0, 67, 121
1, 26349, Control_c, 0, 67, 126
1, 26364, Control_c, 0, 64, 88
1, 26364, Control_c, 0, 67, 127
1, 26408, Control_c, 0, 64, 88
1, 26441, Note_off_c, 0, 69, 34
1, 26600, Control_c, 0, 64, 88
1, 26645, Control_c, 0, 64, 87
1, 26660, Control_c, 0, 64, 85
1, 26667, Note_on_c, 0, 74, 47
1, 26674, Control_c, 0, 64, 82
1, 26679, Note_on_c, 0, 64, 43
1, 26689, Control_c, 0, 64, 77
1, 26691, Note_on_c, 0, 48, 42
1, 26697, Note_on_c, 0, 36, 28
1, 26704, Control_c, 0, 64, 70
1, 26719, Control_c, 0, 64, 61
1, 26735, Control_c, 0, 64, 0
1, 26809, Control_c, 0, 64, 37
1, 26823, Control_c, 0, 64, 57
1, 26838, Control_c, 0, 64, 64
1, 26853, Control_c, 0, 64, 65
1, 26868, Control_c, 0, 64, 67
1, 26878, Note_off_c, 0, 64, 40
1, 26883, Control_c, 0, 64, 70
1, 26903, Note_off_c, 0, 36, 39
1, 26905, Control_c, 0, 64, 72
1, 26913, Note_off_c, 0, 48, 27
1, 26919, Control_c, 0, 64, 74
1, 26934, Control_c, 0, 64, 76
1, 26949, Control_c, 0, 64, 78
1, 26964, Control_c, 0, 64, 80
1, 26978, Control_c, 0, 64, 80
1, 27008, Control_c, 0, 64, 81
1, 27023, Control_c, 0, 64, 81
1, 27037, Control_c, 0, 64, 82
1, 27052, Control_c, 0, 64, 83
1, 27067, Control_c, 0, 64, 83
1, 27082, Control_c, 0, 64, 85
1, 27097, Control_c, 0, 64, 86
1, 27121, Note_off_c, 0, 74, 49
1, 27127, Control_c, 0, 64, 84
1, 27142, Control_c, 0, 64, 77
1, 27157, Note_on_c, 0, 72, 46
1, 27157, Control_c, 0, 64, 68
1, 27172, Control_c, 0, 64, 63
1, 27175, Note_on_c, 0, 48, 35
1, 27178, Note_on_c, 0, 64, 36
1, 27186, Control_c, 0, 64, 63
1, 27199, Note_on_c, 0, 36, 19
1, 27201, Control_c, 0, 64, 63
1, 27216, Control_c, 0, 64, 65
1, 27230, Control_c, 0, 64, 69
1, 27245, Control_c, 0, 64, 75
1, 27260, Control_c, 0, 64, 78
1, 27267, Note_off_c, 0, 36, 40
1, 27275, Control_c, 0, 64, 79
1, 27304, Control_c, 0, 64, 79
1, 27308, Note_off_c, 0, 48, 29
1, 27315, Note_off_c, 0, 64, 34
1, 27334, Control_c, 0, 64, 80
1, 27349, Control_c, 0, 64, 80
1, 27364, Control_c, 0, 64, 81
1, 27378, Control_c, 0, 64, 81
1, 27393, Control_c, 0, 64, 82
1, 27412, Note_off_c, 0, 72, 57
1, 27422, Control_c, 0, 64, 80
1, 27437, Note_on_c, 0, 71, 53
1, 27437, Control_c, 0, 64, 73
1, 27443, Note_on_c, 0, 48, 34
1, 27452, Control_c, 0, 64, 67
1, 27467, Control_c, 0, 64, 65
1, 27469, Note_on_c, 0, 36, 32
1, 27477, Note_on_c, 0, 64, 16
1, 27486, Note_on_c, 0, 62, 15
1, 27497, Control_c, 0, 64, 65
1, 27511, Control_c, 0, 64, 68
1, 27517, Note_off_c, 0, 64, 53
1, 27527, Control_c, 0, 64, 71
1, 27532, Note_off_c, 0, 62, 51
1, 27542, Control_c, 0, 64, 75
1, 27557, Control_c, 0, 64, 77
1, 27572, Control_c, 0, 64, 78
1, 27574, Note_off_c, 0, 36, 35
1, 27606, Note_off_c, 0, 48, 28
1, 27631, Control_c, 0, 64, 78
1, 27698, Control_c, 0, 64, 77
1, 27704, Note_on_c, 0, 69, 57
1, 27706, Note_on_c, 0, 48, 25
1, 27712, Note_off_c, 0, 71, 47
1, 27713, Control_c, 0, 64, 70
1, 27717, Note_on_c, 0, 64, 45
1, 27726, Note_on_c, 0, 36, 25
1, 27727, Control_c, 0, 64, 63
1, 27735, Note_on_c, 0, 60, 37
1, 27742, Control_c, 0, 64, 53
1, 27757, Control_c, 0, 64, 53
1, 27772, Control_c, 0, 64, 57
1, 27774, Note_off_c, 0, 60, 48
1, 27787, Control_c, 0, 64, 62
1, 27801, Control_c, 0, 64, 68
1, 27816, Control_c, 0, 64, 78
1, 27831, Control_c, 0, 64, 91
1, 27845, Note_off_c, 0, 36, 34
1, 27846, Control_c, 0, 64, 101
1, 27847, Note_off_c, 0, 64, 37
1, 27875, Control_c, 0, 64, 101
1, 27890, Control_c, 0, 64, 90
1, 27905, Control_c, 0, 64, 79
1, 27916, Note_off_c, 0, 48, 0
1, 27920, Control_c, 0, 64, 76
1, 27929, Note_on_c, 0, 48, 27
1, 27935, Note_on_c, 0, 71, 57
1, 27937, Note_on_c, 0, 62, 53
1, 27953, Note_on_c, 0, 64, 48
1, 27959, Note_on_c, 0, 36, 33
1, 27979, Control_c, 0, 64, 78
1, 27994, Control_c, 0, 64, 81
1, 28001, Note_off_c, 0, 64, 49
1, 28003, Note_off_c, 0, 62, 56
1, 28009, Control_c, 0, 64, 82
1, 28029, Note_off_c, 0, 69, 39
1, 28030, Note_off_c, 0, 36, 40
1, 28039, Control_c, 0, 64, 82
1, 28072, Note_off_c, 0, 48, 31
1, 28141, Note_on_c, 0, 72, 63
1, 28142, Note_on_c, 0, 48, 29
1, 28146, Note_on_c, 0, 64, 54
1, 28158, Note_off_c, 0, 71, 59
1, 28170, Note_on_c, 0, 36, 45
1, 28197, Note_off_c, 0, 72, 64
1, 28218, Note_off_c, 0, 64, 57
1, 28225, Note_off_c, 0, 36, 52
1, 28270, Note_off_c, 0, 48, 35
1, 28321, Control_c, 0, 64, 83
1, 28350, Control_c, 0, 64, 82
1, 28365, Control_c, 0, 64, 78
1, 28374, Note_on_c, 0, 71, 66
1, 28380, Control_c, 0, 64, 69
1, 28401, Note_on_c, 0, 62, 55
1, 28403, Control_c, 0, 64, 60
1, 28406, Note_on_c, 0, 48, 43
1, 28406, Note_on_c, 0, 64, 48
1, 28418, Control_c, 0, 64, 47
1, 28421, Note_on_c, 0, 36, 36
1, 28432, Control_c, 0, 64, 49
1, 28447, Control_c, 0, 64, 55
1, 28462, Control_c, 0, 64, 60
1, 28475, Note_off_c, 0, 48, 55
1, 28476, Control_c, 0, 64, 66
1, 28487, Note_off_c, 0, 36, 41
1, 28489, Note_off_c, 0, 62, 59
1, 28491, Control_c, 0, 64, 72
1, 28506, Control_c, 0, 64, 80
1, 28521, Control_c, 0, 64, 84
1, 28533, Note_off_c, 0, 64, 36
1, 28536, Control_c, 0, 64, 86
1, 28550, Control_c, 0, 64, 88
1, 28565, Control_c, 0, 64, 88
1, 28580, Control_c, 0, 64, 88
1, 28595, Control_c, 0, 64, 83
1, 28609, Control_c, 0, 64, 72
1, 28615, Note_on_c, 0, 69, 64
1, 28624, Control_c, 0, 64, 64
1, 28633, Note_on_c, 0, 60, 50
1, 28637, Note_on_c, 0, 36, 45
1, 28638, Note_off_c, 0, 71, 61
1, 28639, Control_c, 0, 64, 60
1, 28641, Note_on_c, 0, 64, 43
1, 28654, Control_c, 0, 64, 61
1, 28669, Control_c, 0, 64, 63
1, 28683, Control_c, 0, 64, 67
1, 28689, Note_off_c, 0, 64, 44
1, 28698, Note_off_c, 0, 60, 56
1, 28698, Control_c, 0, 64, 72
1, 28713, Control_c, 0, 64, 78
1, 28728, Control_c, 0, 64, 81
1, 28743, Control_c, 0, 64, 82
1, 28757, Control_c, 0, 64, 83
1, 28782, Note_off_c, 0, 36, 45
1, 28802, Control_c, 0, 64, 82
1, 28817, Control_c, 0, 64, 74
1, 28817, Note_off_c, 0, 69, 64
1, 28832, Control_c, 0, 64, 65
1, 28833, Note_on_c, 0, 67, 59
1, 28839, Note_on_c, 0, 64, 46
1, 28842, Note_on_c, 0, 37, 46
1, 28847, Control_c, 0, 64, 51
1, 28850, Note_on_c, 0, 59, 42
1, 28854, Note_on_c, 0, 49, 44
1, 28862, Control_c, 0, 64, 47
1, 28876, Control_c, 0, 64, 53
1, 28886, Note_off_c, 0, 64, 62
1, 28891, Control_c, 0, 64, 60
1, 28906, Control_c, 0, 64, 65
1, 28921, Control_c, 0, 64, 70
1, 28923, Note_off_c, 0, 59, 58
1, 28936, Control_c, 0, 64, 77
1, 28950, Control_c, 0, 64, 80
1, 28950, Control_c, 0, 67, 121
1, 28965, Control_c, 0, 64, 81
1, 28965, Control_c, 0, 67, 112
1, 28980, Control_c, 0, 64, 82
1, 28980, Control_c, 0, 67, 103
1, 28994, Control_c, 0, 64, 82
1, 28994, Control_c, 0, 67, 97
1, 29009, Control_c, 0, 67, 93
1, 29024, Control_c, 0, 67, 90
1, 29036, Note_off_c, 0, 49, 59
1, 29039, Control_c, 0, 67, 89
1, 29054, Control_c, 0, 64, 82
1, 29054, Control_c, 0, 67, 88
1, 29068, Control_c, 0, 64, 75
1, 29068, Control_c, 0, 67, 87
1, 29073, Note_on_c, 0, 66, 66
1, 29083, Control_c, 0, 64, 65
1, 29083, Control_c, 0, 67, 85
1, 29087, Note_off_c, 0, 37, 35
1, 29097, Note_on_c, 0, 57, 48
1, 29098, Note_on_c, 0, 62, 55
1, 29098, Control_c, 0, 64, 44
1, 29098, Control_c, 0, 67, 84
1, 29109, Note_on_c, 0, 38, 43
1, 29109, Note_off_c, 0, 67, 61
1, 29112, Note_on_c, 0, 50, 39
1, 29113, Control_c, 0, 64, 0
1, 29113, Control_c, 0, 67, 82
1, 29129, Control_c, 0, 64, 36
1, 29129, Control_c, 0, 67, 79
1, 29151, Control_c, 0, 64, 52
1, 29151, Control_c, 0, 67, 76
1, 29167, Control_c, 0, 64, 62
1, 29167, Control_c, 0, 67, 72
1, 29174, Note_off_c, 0, 57, 50
1, 29181, Control_c, 0, 64, 68
1, 29181, Control_c, 0, 67, 69
1, 29196, Control_c, 0, 64, 76
1, 29196, Control_c, 0, 67, 65
1, 29211, Control_c, 0, 64, 82
1, 29211, Control_c, 0, 67, 61
1, 29225, Control_c, 0, 64, 86
1, 29225, Control_c, 0, 67, 56
1, 29240, Control_c, 0, 64, 93
1, 29240, Control_c, 0, 67, 53
1, 29255, Control_c, 0, 64, 99
1, 29255, Control_c, 0, 67, 50
1, 29256, Note_off_c, 0, 50, 34
1, 29265, Note_off_c, 0, 62, 36
1, 29266, Note_off_c, 0, 38, 41
1, 29270, Control_c, 0, 64, 101
1, 29270, Control_c, 0, 67, 48
1, 29285, Control_c, 0, 67, 47
1, 29300, Control_c, 0, 64, 96
1, 29300, Control_c, 0, 67, 45
1, 29315, Control_c, 0, 64, 80
1, 29315, Control_c, 0, 67, 42
1, 29320, Note_on_c, 0, 67, 71
1, 29330, Control_c, 0, 64, 65
1, 29330, Control_c, 0, 67, 41
1, 29341, Note_on_c, 0, 38, 41
1, 29341, Note_on_c, 0, 62, 44
1, 29345, Note_on_c, 0, 59, 49
1, 29345, Control_c, 0, 64, 58
1, 29345, Control_c, 0, 67, 39
1, 29345, Note_on_c, 0, 50, 41
1, 29360, Control_c, 0, 64, 56
1, 29360, Control_c, 0, 67, 38
1, 29374, Control_c, 0, 64, 60
1, 29374, Control_c, 0, 67, 36
1, 29383, Note_off_c, 0, 66, 53
1, 29389, Control_c, 0, 64, 64
1, 29389, Control_c, 0, 67, 33
1, 29404, Control_c, 0, 64, 69
1, 29404, Control_c, 0, 67, 30
1, 29419, Control_c, 0, 64, 79
1, 29419, Control_c, 0, 67, 27
1, 29433, Control_c, 0, 64, 89
1, 29433, Control_c, 0, 67, 25
1, 29442, Note_off_c, 0, 38, 0
1, 29448, Control_c, 0, 64, 90
1, 29448, Control_c, 0, 67, 22
1, 29459, Note_off_c, 0, 59, 35
1, 29463, Control_c, 0, 67, 19
1, 29474, Note_off_c, 0, 50, 34
1, 29478, Control_c, 0, 64, 91
1, 29478, Control_c, 0, 67, 15
1, 29479, Poly_aftertouch_c, 0, 38, 0
1, 29493, Control_c, 0, 64, 91
1, 29493, Control_c, 0, 67, 11
1, 29498, Note_off_c, 0, 62, 46
1, 29507, Control_c, 0, 67, 8
1, 29522, Control_c, 0, 67, 0
1, 29552, Control_c, 0, 64, 82
1, 29565, Note_off_c, 0, 67, 59
1, 29567, Note_on_c, 0, 69, 72
1, 29567, Control_c, 0, 64, 67
1, 29578, Note_on_c, 0, 66, 59
1, 29580, Note_on_c, 0, 60, 54
1, 29581, Note_on_c, 0, 50, 40
1, 29581, Control_c, 0, 64, 45
1, 29595, Note_on_c, 0, 38, 41
1, 29596, Control_c, 0, 64, 0
1, 29625, Control_c, 0, 64, 32
1, 29638, Note_off_c, 0, 66, 64
1, 29640, Control_c, 0, 64, 56
1, 29655, Note_off_c, 0, 60, 56
1, 29655, Control_c, 0, 64, 65
1, 29670, Control_c, 0, 64, 72
1, 29685, Control_c, 0, 64, 78
1, 29699, Control_c, 0, 64, 81
1, 29710, Note_off_c, 0, 69, 60
1, 29714, Control_c, 0, 64, 83
1, 29729, Control_c, 0, 64, 85
1, 29737, Note_off_c, 0, 38, 40
1, 29744, Control_c, 0, 64, 88
1, 29747, Note_off_c, 0, 50, 34
1, 29759, Control_c, 0, 64, 92
1, 29774, Control_c, 0, 64, 95
1, 29789, Control_c, 0, 64, 98
1, 29804, Control_c, 0, 64, 100
1, 29818, Control_c, 0, 64, 101
1, 29968, Note_on_c, 0, 69, 65
1, 29989, Note_on_c, 0, 66, 52
1, 29990, Control_c, 0, 64, 100
1, 30004, Note_on_c, 0, 60, 41
1, 30009, Note_on_c, 0, 62, 45
1, 30018, Note_on_c, 0, 38, 34
1, 30019, Control_c, 0, 64, 99
1, 30020, Note_on_c, 0, 50, 31
1, 30034, Control_c, 0, 64, 96
1, 30048, Control_c, 0, 64, 93
1, 30063, Control_c, 0, 64, 89
1, 30078, Control_c, 0, 64, 85
1, 30093, Control_c, 0, 64, 80
1, 30108, Control_c, 0, 64, 77
1, 30123, Control_c, 0, 64, 72
1, 30138, Control_c, 0, 64, 68
1, 30153, Control_c, 0, 64, 63
1, 30167, Control_c, 0, 64, 57
1, 30182, Control_c, 0, 64, 46
1, 30197, Control_c, 0, 64, 18
1, 30212, Control_c, 0, 64, 0
1, 30797, Control_c, 0, 64, 42
1, 30812, Control_c, 0, 64, 57
1, 30827, Control_c, 0, 64, 61
1, 30842, Control_c, 0, 64, 63
1, 30857, Control_c, 0, 64, 65
1, 30871, Control_c, 0, 64, 68
1, 30886, Control_c, 0, 64, 72
1, 30901, Control_c, 0, 64, 81
1, 30916, Control_c, 0, 64, 93
1, 30931, Control_c, 0, 64, 115
1, 30945, Control_c, 0, 64, 127
1, 31172, Note_off_c, 0, 38, 37
1, 31176, Note_off_c, 0, 50, 36
1, 31275, Note_on_c, 0, 70, 63
1, 31297, Note_off_c, 0, 69, 56
1, 31312, Note_off_c, 0, 66, 63
1, 31351, Note_off_c, 0, 62, 39
1, 31358, Note_off_c, 0, 60, 40
1, 31378, Note_off_c, 0, 70, 61
1, 31738, Note_on_c, 0, 71, 51
1, 31765, Note_on_c, 0, 67, 43
1, 31777, Note_on_c, 0, 59, 27
1, 31777, Note_on_c, 0, 62, 25
1, 31779, Note_on_c, 0, 43, 35
1, 31784, Note_on_c, 0, 50, 24
1, 31798, Control_c, 0, 64, 107
1, 31812, Control_c, 0, 64, 92
1, 31827, Control_c, 0, 64, 83
1, 31842, Control_c, 0, 64, 75
1, 31857, Control_c, 0, 64, 67
1, 31872, Control_c, 0, 64, 58
1, 31886, Control_c, 0, 64, 32
1, 31901, Control_c, 0, 64, 0
1, 32385, Control_c, 0, 64, 28
1, 32399, Control_c, 0, 64, 40
1, 32414, Control_c, 0, 64, 47
1, 32429, Control_c, 0, 64, 51
1, 32443, Control_c, 0, 64, 54
1, 32458, Control_c, 0, 64, 58
1, 32473, Control_c, 0, 64, 61
1, 32488, Control_c, 0, 64, 64
1, 32503, Control_c, 0, 64, 66
1, 32517, Control_c, 0, 64, 69
1, 32532, Control_c, 0, 64, 72
1, 32547, Control_c, 0, 64, 76
1, 32562, Control_c, 0, 64, 83
1, 32576, Control_c, 0, 64, 94
1, 32591, Control_c, 0, 64, 110
1, 32606, Control_c, 0, 64, 127
1, 32803, Note_off_c, 0, 59, 42
1, 32827, Note_off_c, 0, 62, 42
1, 32858, Note_off_c, 0, 50, 38
1, 32917, Note_off_c, 0, 67, 36
1, 32929, Note_off_c, 0, 71, 48
1, 32952, Note_off_c, 0, 43, 39
1, 33014, Control_c, 0, 67, 8
1, 33029, Control_c, 0, 67, 17
1, 33043, Control_c, 0, 67, 23
1, 33058, Control_c, 0, 67, 31
1, 33073, Control_c, 0, 67, 37
1, 33088, Control_c, 0, 67, 45
1, 33103, Control_c, 0, 67, 53
1, 33119, Control_c, 0, 67, 61
1, 33133, Control_c, 0, 67, 68
1, 33148, Control_c, 0, 67, 76
1, 33163, Control_c, 0, 67, 86
1, 33178, Control_c, 0, 67, 94
1, 33192, Control_c, 0, 67, 102
1, 33207, Control_c, 0, 67, 109
1, 33222, Control_c, 0, 67, 116
1, 33237, Control_c, 0, 67, 124
1, 33252, Control_c, 0, 67, 127
1, 33459, Control_c, 0, 64, 95
1, 33473, Control_c, 0, 64, 81
1, 33488, Control_c, 0, 64, 70
1, 33503, Control_c, 0, 64, 58
1, 33518, Control_c, 0, 64, 0
1, 33733, Control_c, 0, 64, 51
1, 33747, Control_c, 0, 64, 58
1, 33762, Control_c, 0, 64, 61
1, 33777, Control_c, 0, 64, 63
1, 33792, Control_c, 0, 64, 65
1, 33807, Control_c, 0, 64, 68
1, 33822, Control_c, 0, 64, 74
1, 33837, Control_c, 0, 64, 82
1, 33852, Control_c, 0, 64, 89
1, 33866, Control_c, 0, 64, 95
1, 33881, Control_c, 0, 64, 104
1, 33896, Control_c, 0, 64, 127
1, 34236, Note_on_c, 0, 71, 31
1, 34248, Note_on_c, 0, 62, 30
1, 34252, Note_on_c, 0, 66, 34
1, 34256, Note_on_c, 0, 42, 26
1, 34261, Note_on_c, 0, 30, 22
1, 34726, Note_off_c, 0, 42, 28
1, 34734, Note_off_c, 0, 66, 38
1, 34735, Note_off_c, 0, 62, 33
1, 34758, Note_off_c, 0, 30, 32
1, 34779, Note_off_c, 0, 71, 35
1, 35160, Note_on_c, 0, 71, 36
1, 35166, Note_on_c, 0, 62, 33
1, 35169, Note_on_c, 0, 66, 28
1, 35188, Note_on_c, 0, 42, 24
1, 35190, Note_on_c, 0, 30, 21
1, 35241, Note_off_c, 0, 66, 41
1, 35241, Note_off_c, 0, 30, 46
1, 35246, Note_off_c, 0, 42, 42
1, 35259, Note_off_c, 0, 62, 37
1, 35284, Note_off_c, 0, 71, 35
1, 35367, Note_on_c, 0, 73, 46
1, 35388, Note_on_c, 0, 67, 39
1, 35390, Note_on_c, 0, 64, 34
1, 35402, Note_on_c, 0, 42, 17
1, 35408, Control_c, 0, 64, 114
1, 35409, Note_on_c, 0, 30, 21
1, 35423, Control_c, 0, 64, 100
1, 35437, Control_c, 0, 64, 90
1, 35452, Control_c, 0, 64, 81
1, 35467, Control_c, 0, 64, 73
1, 35482, Control_c, 0, 64, 66
1, 35497, Control_c, 0, 64, 54
1, 35512, Control_c, 0, 64, 0
1, 35631, Control_c, 0, 64, 35
1, 35646, Control_c, 0, 64, 59
1, 35660, Control_c, 0, 64, 64
1, 35675, Control_c, 0, 64, 66
1, 35690, Control_c, 0, 64, 69
1, 35705, Control_c, 0, 64, 73
1, 35720, Control_c, 0, 64, 76
1, 35734, Control_c, 0, 64, 79
1, 35749, Control_c, 0, 64, 82
1, 35764, Control_c, 0, 64, 85
1, 35779, Control_c, 0, 64, 87
1, 35793, Control_c, 0, 64, 90
1, 35808, Control_c, 0, 64, 92
1, 35823, Control_c, 0, 64, 96
1, 35838, Control_c, 0, 64, 100
1, 35853, Control_c, 0, 64, 104
1, 35867, Control_c, 0, 64, 107
1, 35870, Note_off_c, 0, 64, 32
1, 35890, Control_c, 0, 64, 110
1, 35900, Note_off_c, 0, 67, 39
1, 35906, Control_c, 0, 64, 115
1, 35921, Control_c, 0, 64, 121
1, 35935, Control_c, 0, 64, 127
1, 36000, Note_off_c, 0, 42, 22
1, 36028, Note_off_c, 0, 30, 20
1, 36365, Control_c, 0, 64, 125
1, 36380, Control_c, 0, 64, 111
1, 36386, Note_on_c, 0, 71, 44
1, 36395, Control_c, 0, 64, 104
1, 36407, Note_on_c, 0, 66, 37
1, 36409, Note_on_c, 0, 62, 36
1, 36409, Control_c, 0, 64, 97
1, 36424, Control_c, 0, 64, 91
1, 36427, Note_on_c, 0, 42, 28
1, 36429, Note_on_c, 0, 30, 24
1, 36430, Note_off_c, 0, 73, 35
1, 36439, Control_c, 0, 64, 84
1, 36454, Control_c, 0, 64, 76
1, 36469, Control_c, 0, 64, 68
1, 36478, Note_off_c, 0, 66, 0
1, 36478, Note_on_c, 0, 66, 3
1, 36484, Control_c, 0, 64, 57
1, 36499, Control_c, 0, 64, 0
1, 36588, Control_c, 0, 64, 45
1, 36603, Control_c, 0, 64, 61
1, 36617, Control_c, 0, 64, 65
1, 36639, Control_c, 0, 64, 68
1, 36654, Control_c, 0, 64, 73
1, 36669, Control_c, 0, 64, 79
1, 36684, Control_c, 0, 64, 85
1, 36699, Control_c, 0, 64, 90
1, 36710, Note_off_c, 0, 71, 36
1, 36713, Control_c, 0, 64, 93
1, 36728, Control_c, 0, 64, 95
1, 36743, Control_c, 0, 64, 98
1, 36757, Note_off_c, 0, 42, 28
1, 36758, Control_c, 0, 64, 101
1, 36772, Note_off_c, 0, 30, 27
1, 36773, Control_c, 0, 64, 106
1, 36788, Control_c, 0, 64, 115
1, 36794, Note_off_c, 0, 62, 36
1, 36803, Control_c, 0, 64, 127
1, 36803, Note_off_c, 0, 66, 39
1, 37284, Note_on_c, 0, 71, 41
1, 37302, Note_on_c, 0, 30, 36
1, 37304, Note_on_c, 0, 42, 33
1, 37307, Note_on_c, 0, 66, 40
1, 37319, Note_on_c, 0, 62, 22
1, 37363, Note_off_c, 0, 62, 51
1, 37363, Note_off_c, 0, 66, 42
1, 37367, Note_off_c, 0, 30, 41
1, 37370, Note_off_c, 0, 71, 56
1, 37372, Note_off_c, 0, 42, 40
1, 37510, Note_on_c, 0, 70, 48
1, 37512, Note_on_c, 0, 66, 34
1, 37548, Note_on_c, 0, 61, 39
1, 37551, Control_c, 0, 64, 110
1, 37556, Note_on_c, 0, 42, 22
1, 37566, Control_c, 0, 64, 100
1, 37567, Note_on_c, 0, 30, 20
1, 37581, Control_c, 0, 64, 94
1, 37596, Control_c, 0, 64, 88
1, 37611, Control_c, 0, 64, 83
1, 37626, Control_c, 0, 64, 78
1, 37640, Control_c, 0, 64, 72
1, 37655, Control_c, 0, 64, 64
1, 37670, Control_c, 0, 64, 52
1, 37685, Control_c, 0, 64, 0
1, 37818, Control_c, 0, 64, 21
1, 37832, Control_c, 0, 64, 48
1, 37847, Control_c, 0, 64, 57
1, 37862, Control_c, 0, 64, 63
1, 37877, Control_c, 0, 64, 65
1, 37891, Control_c, 0, 64, 67
1, 37908, Control_c, 0, 64, 69
1, 37923, Control_c, 0, 64, 72
1, 37937, Control_c, 0, 64, 75
1, 37952, Control_c, 0, 64, 77
1, 37967, Control_c, 0, 64, 79
1, 37981, Control_c, 0, 64, 81
1, 37996, Control_c, 0, 64, 83
1, 38011, Control_c, 0, 64, 85
1, 38026, Control_c, 0, 64, 87
1, 38041, Control_c, 0, 64, 90
1, 38055, Control_c, 0, 64, 92
1, 38070, Control_c, 0, 64, 95
1, 38085, Control_c, 0, 64, 98
1, 38100, Control_c, 0, 64, 100
1, 38115, Control_c, 0, 64, 103
1, 38137, Control_c, 0, 64, 106
1, 38152, Control_c, 0, 64, 110
1, 38167, Control_c, 0, 64, 115
1, 38182, Control_c, 0, 64, 119
1, 38187, Note_off_c, 0, 42, 25
1, 38196, Control_c, 0, 64, 127
1, 38255, Note_off_c, 0, 30, 31
1, 38309, Note_off_c, 0, 61, 38
1, 38311, Note_off_c, 0, 70, 33
1, 38451, Note_off_c, 0, 66, 41
1, 38804, Control_c, 0, 64, 110
1, 38819, Control_c, 0, 64, 98
1, 38834, Note_on_c, 0, 71, 39
1, 38834, Control_c, 0, 64, 85
1, 38845, Note_on_c, 0, 62, 37
1, 38847, Note_on_c, 0, 66, 41
1, 38849, Control_c, 0, 64, 71
1, 38864, Control_c, 0, 64, 60
1, 38866, Note_on_c, 0, 30, 26
1, 38875, Note_on_c, 0, 42, 22
1, 38886, Control_c, 0, 64, 28
1, 38900, Control_c, 0, 64, 0
1, 38915, Control_c, 0, 64, 26
1, 38930, Control_c, 0, 64, 45
1, 38944, Control_c, 0, 64, 57
1, 38959, Control_c, 0, 64, 64
1, 38974, Control_c, 0, 64, 68
1, 38989, Control_c, 0, 64, 72
1, 38992, Note_off_c, 0, 42, 38
1, 38996, Note_off_c, 0, 30, 37
1, 39000, Note_off_c, 0, 71, 52
1, 39004, Control_c, 0, 64, 75
1, 39018, Control_c, 0, 64, 78
1, 39033, Control_c, 0, 64, 81
1, 39043, Note_off_c, 0, 66, 33
1, 39048, Control_c, 0, 64, 82
1, 39052, Note_off_c, 0, 62, 35
1, 39063, Control_c, 0, 64, 83
1, 39078, Control_c, 0, 64, 84
1, 39092, Control_c, 0, 64, 84
1, 39137, Control_c, 0, 64, 83
1, 39152, Control_c, 0, 64, 75
1, 39156, Note_on_c, 0, 62, 30
1, 39158, Note_on_c, 0, 73, 49
1, 39165, Note_on_c, 0, 66, 38
1, 39167, Control_c, 0, 64, 67
1, 39175, Note_on_c, 0, 42, 25
1, 39182, Control_c, 0, 64, 62
1, 39188, Note_on_c, 0, 30, 26
1, 39211, Control_c, 0, 64, 64
1, 39226, Control_c, 0, 64, 66
1, 39241, Control_c, 0, 64, 71
1, 39256, Control_c, 0, 64, 77
1, 39260, Note_off_c, 0, 42, 46
1, 39265, Note_off_c, 0, 30, 39
1, 39271, Control_c, 0, 64, 83
1, 39285, Control_c, 0, 64, 85
1, 39295, Note_off_c, 0, 62, 42
1, 39298, Note_off_c, 0, 66, 40
1, 39303, Note_off_c, 0, 73, 34
1, 39329, Control_c, 0, 64, 80
1, 39344, Control_c, 0, 64, 73
1, 39359, Control_c, 0, 64, 69
1, 39374, Control_c, 0, 64, 69
1, 39394, Note_on_c, 0, 71, 53
1, 39399, Note_on_c, 0, 62, 38
1, 39400, Note_on_c, 0, 66, 47
1, 39404, Control_c, 0, 64, 70
1, 39415, Note_on_c, 0, 42, 27
1, 39418, Control_c, 0, 64, 75
1, 39420, Note_on_c, 0, 30, 26
1, 39433, Control_c, 0, 64, 80
1, 39448, Control_c, 0, 64, 84
1, 39463, Control_c, 0, 64, 85
1, 39477, Control_c, 0, 64, 86
1, 39513, Note_off_c, 0, 71, 56
1, 39515, Note_off_c, 0, 62, 40
1, 39516, Note_off_c, 0, 66, 29
1, 39518, Note_off_c, 0, 30, 34
1, 39525, Note_off_c, 0, 42, 35
1, 39738, Control_c, 0, 64, 85
1, 39767, Control_c, 0, 64, 84
1, 39782, Control_c, 0, 64, 83
1, 39797, Control_c, 0, 64, 81
1, 39799, Note_on_c, 0, 74, 53
1, 39812, Control_c, 0, 64, 79
1, 39821, Note_on_c, 0, 67, 42
1, 39827, Control_c, 0, 64, 77
1, 39830, Note_on_c, 0, 64, 37
1, 39841, Control_c, 0, 64, 75
1, 39854, Note_on_c, 0, 42, 28
1, 39856, Control_c, 0, 64, 74
1, 39871, Note_on_c, 0, 30, 11
1, 39871, Control_c, 0, 64, 72
1, 39886, Control_c, 0, 64, 71
1, 39901, Control_c, 0, 64, 68
1, 39915, Control_c, 0, 64, 65
1, 39930, Control_c, 0, 64, 62
1, 39945, Control_c, 0, 64, 58
1, 39960, Control_c, 0, 64, 50
1, 39975, Control_c, 0, 64, 36
1, 39989, Control_c, 0, 64, 0
1, 40197, Control_c, 0, 64, 43
1, 40212, Control_c, 0, 64, 57
1, 40226, Control_c, 0, 64, 62
1, 40241, Control_c, 0, 64, 63
1, 40256, Control_c, 0, 64, 65
1, 40271, Control_c, 0, 64, 66
1, 40285, Control_c, 0, 64, 68
1, 40302, Control_c, 0, 64, 71
1, 40317, Control_c, 0, 64, 75
1, 40331, Control_c, 0, 64, 81
1, 40346, Control_c, 0, 64, 86
1, 40361, Control_c, 0, 64, 91
1, 40383, Control_c, 0, 64, 95
1, 40398, Control_c, 0, 64, 99
1, 40413, Control_c, 0, 64, 103
1, 40428, Control_c, 0, 64, 107
1, 40443, Control_c, 0, 64, 112
1, 40457, Control_c, 0, 64, 125
1, 40472, Control_c, 0, 64, 127
1, 40642, Note_off_c, 0, 74, 38
1, 40646, Note_on_c, 0, 73, 44
1, 40683, Note_off_c, 0, 42, 25
1, 40690, Note_off_c, 0, 67, 53
1, 40723, Note_off_c, 0, 30, 32
1, 40737, Note_off_c, 0, 64, 40
1, 40788, Note_off_c, 0, 73, 42
1, 40975, Control_c, 0, 64, 107
1, 40990, Control_c, 0, 64, 77
1, 40991, Note_on_c, 0, 73, 42
1, 41005, Control_c, 0, 64, 64
1, 41015, Note_on_c, 0, 66, 34
1, 41020, Control_c, 0, 64, 53
1, 41033, Note_on_c, 0, 42, 12
1, 41033, Note_on_c, 0, 62, 23
1, 41035, Control_c, 0, 64, 48
1, 41036, Note_on_c, 0, 30, 12
1, 41049, Control_c, 0, 64, 54
1, 41064, Control_c, 0, 64, 59
1, 41079, Control_c, 0, 64, 63
1, 41095, Control_c, 0, 64, 68
1, 41110, Control_c, 0, 64, 72
1, 41113, Note_off_c, 0, 30, 40
1, 41131, Control_c, 0, 64, 75
1, 41133, Note_off_c, 0, 42, 37
1, 41141, Note_off_c, 0, 62, 36
1, 41146, Control_c, 0, 64, 76
1, 41161, Control_c, 0, 64, 78
1, 41168, Note_off_c, 0, 66, 46
1, 41176, Control_c, 0, 64, 79
1, 41191, Control_c, 0, 64, 81
1, 41194, Note_off_c, 0, 73, 36
1, 41206, Control_c, 0, 64, 81
1, 41236, Control_c, 0, 64, 79
1, 41250, Control_c, 0, 64, 73
1, 41265, Control_c, 0, 64, 68
1, 41280, Control_c, 0, 64, 67
1, 41282, Note_on_c, 0, 42, 20
1, 41284, Note_on_c, 0, 66, 38
1, 41286, Note_on_c, 0, 71, 45
1, 41286, Note_on_c, 0, 30, 32
1, 41294, Note_on_c, 0, 62, 31
1, 41310, Control_c, 0, 64, 68
1, 41325, Control_c, 0, 64, 72
1, 41339, Control_c, 0, 64, 76
1, 41354, Control_c, 0, 64, 79
1, 41369, Control_c, 0, 64, 81
1, 41384, Control_c, 0, 64, 82
1, 41385, Note_off_c, 0, 71, 54
1, 41396, Note_off_c, 0, 30, 35
1, 41396, Note_off_c, 0, 42, 40
1, 41399, Control_c, 0, 64, 83
1, 41409, Note_off_c, 0, 62, 36
1, 41409, Note_off_c, 0, 66, 34
1, 41413, Control_c, 0, 64, 84
1, 41487, Control_c, 0, 64, 80
1, 41502, Control_c, 0, 64, 72
1, 41517, Control_c, 0, 64, 64
1, 41523, Note_on_c, 0, 42, 14
1, 41524, Note_on_c, 0, 66, 39
1, 41525, Note_on_c, 0, 73, 48
1, 41531, Note_on_c, 0, 30, 30
1, 41531, Control_c, 0, 64, 58
1, 41536, Note_on_c, 0, 62, 37
1, 41546, Control_c, 0, 64, 57
1, 41561, Control_c, 0, 64, 61
1, 41576, Control_c, 0, 64, 65
1, 41591, Control_c, 0, 64, 69
1, 41595, Note_off_c, 0, 62, 50
1, 41605, Control_c, 0, 64, 77
1, 41618, Note_off_c, 0, 73, 56
1, 41620, Control_c, 0, 64, 83
1, 41635, Control_c, 0, 64, 84
1, 41663, Note_off_c, 0, 30, 36
1, 41665, Control_c, 0, 64, 85
1, 41666, Note_off_c, 0, 66, 36
1, 41674, Note_off_c, 0, 42, 34
1, 41695, Control_c, 0, 64, 85
1, 41939, Control_c, 0, 64, 85
1, 41942, Note_on_c, 0, 71, 42
1, 41954, Control_c, 0, 64, 83
1, 41964, Note_on_c, 0, 66, 37
1, 41969, Control_c, 0, 64, 81
1, 41972, Note_on_c, 0, 61, 28
1, 41984, Control_c, 0, 64, 79
1, 41994, Note_on_c, 0, 42, 19
1, 41999, Control_c, 0, 64, 77
1, 42011, Note_on_c, 0, 30, 16
1, 42014, Control_c, 0, 64, 74
1, 42028, Control_c, 0, 64, 72
1, 42043, Control_c, 0, 64, 69
1, 42058, Control_c, 0, 64, 67
1, 42073, Control_c, 0, 64, 64
1, 42088, Control_c, 0, 64, 61
1, 42102, Control_c, 0, 64, 56
1, 42117, Control_c, 0, 64, 48
1, 42132, Control_c, 0, 64, 36
1, 42147, Control_c, 0, 64, 0
1, 42398, Control_c, 0, 64, 24
1, 42413, Control_c, 0, 64, 47
1, 42428, Control_c, 0, 64, 55
1, 42443, Control_c, 0, 64, 60
1, 42458, Control_c, 0, 64, 63
1, 42472, Control_c, 0, 64, 64
1, 42487, Control_c, 0, 64, 66
1, 42502, Control_c, 0, 64, 67
1, 42517, Control_c, 0, 64, 69
1, 42532, Control_c, 0, 64, 70
1, 42546, Control_c, 0, 64, 72
1, 42561, Control_c, 0, 64, 72
1, 42628, Control_c, 0, 64, 73
1, 42763, Control_c, 0, 64, 72
1, 42807, Control_c, 0, 64, 71
1, 42822, Control_c, 0, 64, 69
1, 42837, Control_c, 0, 64, 64
1, 42851, Control_c, 0, 64, 49
1, 42854, Note_off_c, 0, 71, 36
1, 42866, Control_c, 0, 64, 0
1, 42868, Note_on_c, 0, 70, 40
1, 42941, Control_c, 0, 64, 52
1, 42955, Control_c, 0, 64, 64
1, 42970, Control_c, 0, 64, 70
1, 42985, Control_c, 0, 64, 74
1, 43000, Control_c, 0, 64, 78
1, 43015, Control_c, 0, 64, 80
1, 43021, Note_off_c, 0, 30, 39
1, 43021, Note_off_c, 0, 42, 39
1, 43027, Note_off_c, 0, 61, 38
1, 43030, Control_c, 0, 64, 82
1, 43039, Note_off_c, 0, 66, 42
1, 43045, Control_c, 0, 64, 85
1, 43045, Note_off_c, 0, 70, 33
1, 43059, Control_c, 0, 64, 87
1, 43074, Control_c, 0, 64, 89
1, 43089, Control_c, 0, 64, 89
1, 43103, Control_c, 0, 64, 90
1, 43118, Control_c, 0, 64, 91
1, 43133, Control_c, 0, 64, 91
1, 43148, Control_c, 0, 64, 92
1, 43192, Control_c, 0, 64, 92
1, 43289, Note_on_c, 0, 70, 33
1, 43298, Note_on_c, 0, 66, 32
1, 43303, Note_on_c, 0, 30, 25
1, 43303, Note_on_c, 0, 61, 17
1, 43310, Note_on_c, 0, 42, 17
1, 43436, Note_off_c, 0, 70, 43
1, 43442, Note_off_c, 0, 66, 45
1, 43443, Note_off_c, 0, 30, 37
1, 43447, Note_off_c, 0, 42, 34
1, 43488, Note_off_c, 0, 61, 37
1, 43644, Note_on_c, 0, 70, 37
1, 43647, Note_on_c, 0, 73, 41
1, 43655, Note_on_c, 0, 61, 28
1, 43656, Note_on_c, 0, 30, 15
1, 43660, Note_on_c, 0, 42, 9
1, 43748, Note_off_c, 0, 42, 36
1, 43757, Note_off_c, 0, 30, 34
1, 43769, Note_off_c, 0, 61, 32
1, 43776, Note_off_c, 0, 73, 39
1, 43779, Note_off_c, 0, 70, 36
1, 43901, Note_on_c, 0, 73, 51
1, 43923, Note_on_c, 0, 70, 39
1, 43925, Note_on_c, 0, 42, 20
1, 43926, Note_on_c, 0, 30, 18
1, 43931, Note_on_c, 0, 61, 14
1, 43953, Note_off_c, 0, 70, 57
1, 43970, Note_off_c, 0, 61, 42
1, 43978, Note_off_c, 0, 73, 60
1, 44017, Note_off_c, 0, 42, 34
1, 44035, Note_off_c, 0, 30, 32
1, 44156, Control_c, 0, 64, 91
1, 44165, Note_on_c, 0, 73, 52
1, 44171, Control_c, 0, 64, 78
1, 44184, Note_on_c, 0, 71, 39
1, 44186, Control_c, 0, 64, 66
1, 44187, Note_on_c, 0, 68, 41
1, 44195, Note_on_c, 0, 30, 21
1, 44200, Control_c, 0, 64, 55
1, 44207, Note_on_c, 0, 42, 11
1, 44215, Control_c, 0, 64, 44
1, 44230, Control_c, 0, 64, 49
1, 44245, Control_c, 0, 64, 56
1, 44259, Control_c, 0, 64, 62
1, 44266, Note_off_c, 0, 71, 48
1, 44274, Control_c, 0, 64, 66
1, 44289, Control_c, 0, 64, 71
1, 44294, Note_off_c, 0, 42, 37
1, 44302, Note_off_c, 0, 68, 47
1, 44305, Control_c, 0, 64, 77
1, 44312, Note_off_c, 0, 30, 35
1, 44320, Control_c, 0, 64, 82
1, 44335, Control_c, 0, 64, 85
1, 44354, Note_off_c, 0, 73, 37
1, 44364, Control_c, 0, 64, 84
1, 44379, Control_c, 0, 64, 78
1, 44394, Control_c, 0, 64, 70
1, 44409, Control_c, 0, 64, 64
1, 44416, Note_on_c, 0, 75, 56
1, 44419, Note_on_c, 0, 68, 44
1, 44423, Control_c, 0, 64, 63
1, 44425, Note_on_c, 0, 71, 49
1, 44438, Control_c, 0, 64, 64
1, 44440, Note_on_c, 0, 30, 33
1, 44443, Note_on_c, 0, 42, 26
1, 44453, Control_c, 0, 64, 66
1, 44468, Control_c, 0, 64, 70
1, 44483, Control_c, 0, 64, 75
1, 44497, Control_c, 0, 64, 78
1, 44500, Note_off_c, 0, 75, 62
1, 44527, Note_off_c, 0, 42, 37
1, 44527, Control_c, 0, 64, 78
1, 44529, Note_off_c, 0, 30, 36
1, 44534, Note_off_c, 0, 68, 34
1, 44538, Note_off_c, 0, 71, 30
1, 44556, Control_c, 0, 64, 79
1, 44571, Control_c, 0, 64, 80
1, 44586, Control_c, 0, 64, 80
1, 44631, Control_c, 0, 64, 74
1, 44631, Control_c, 0, 67, 126
1, 44646, Control_c, 0, 64, 65
1, 44646, Control_c, 0, 67, 126
1, 44660, Note_on_c, 0, 77, 67
1, 44661, Control_c, 0, 64, 56
1, 44661, Control_c, 0, 67, 125
1, 44672, Note_on_c, 0, 71, 53
1, 44675, Control_c, 0, 64, 47
1, 44675, Control_c, 0, 67, 124
1, 44675, Note_on_c, 0, 68, 43
1, 44680, Note_on_c, 0, 30, 33
1, 44683, Note_on_c, 0, 42, 28
1, 44690, Control_c, 0, 64, 50
1, 44690, Control_c, 0, 67, 122
1, 44705, Control_c, 0, 64, 58
1, 44705, Control_c, 0, 67, 119
1, 44720, Control_c, 0, 64, 65
1, 44720, Control_c, 0, 67, 116
1, 44735, Control_c, 0, 64, 73
1, 44735, Control_c, 0, 67, 114
1, 44749, Control_c, 0, 64, 82
1, 44764, Control_c, 0, 64, 84
1, 44772, Note_off_c, 0, 77, 51
1, 44791, Note_off_c, 0, 30, 34
1, 44792, Note_off_c, 0, 42, 36
1, 44794, Control_c, 0, 64, 84
1, 44798, Note_off_c, 0, 71, 37
1, 44807, Note_off_c, 0, 68, 39
1, 44823, Control_c, 0, 67, 114
1, 44838, Control_c, 0, 64, 85
1, 44853, Control_c, 0, 67, 115
1, 44890, Control_c, 0, 67, 116
1, 44905, Control_c, 0, 64, 83
1, 44920, Control_c, 0, 64, 71
1, 44920, Control_c, 0, 67, 116
1, 44935, Control_c, 0, 64, 61
1, 44935, Control_c, 0, 67, 117
1, 44935, Note_on_c, 0, 77, 63
1, 44949, Control_c, 0, 64, 43
1, 44949, Control_c, 0, 67, 117
1, 44953, Note_on_c, 0, 68, 48
1, 44960, Note_on_c, 0, 71, 47
1, 44962, Note_on_c, 0, 42, 27
1, 44964, Control_c, 0, 64, 36
1, 44967, Note_on_c, 0, 30, 24
1, 44979, Control_c, 0, 64, 47
1, 44979, Control_c, 0, 67, 118
1, 44994, Control_c, 0, 64, 58
1, 44994, Control_c, 0, 67, 119
1, 45009, Control_c, 0, 64, 66
1, 45009, Control_c, 0, 67, 120
1, 45015, Note_off_c, 0, 77, 61
1, 45016, Note_off_c, 0, 71, 53
1, 45023, Control_c, 0, 64, 74
1, 45023, Control_c, 0, 67, 121
1, 45038, Control_c, 0, 64, 79
1, 45038, Control_c, 0, 67, 122
1, 45053, Control_c, 0, 64, 80
1, 45053, Control_c, 0, 67, 123
1, 45057, Note_off_c, 0, 68, 61
1, 45068, Control_c, 0, 64, 80
1, 45068, Control_c, 0, 67, 124
1, 45078, Note_off_c, 0, 42, 38
1, 45081, Note_off_c, 0, 30, 35
1, 45082, Control_c, 0, 64, 81
1, 45082, Control_c, 0, 67, 124
1, 45098, Control_c, 0, 67, 125
1, 45113, Control_c, 0, 64, 82
1, 45128, Control_c, 0, 67, 125
1, 45143, Control_c, 0, 67, 126
1, 45158, Control_c, 0, 67, 127
1, 45202, Control_c, 0, 64, 81
1, 45217, Control_c, 0, 64, 76
1, 45226, Note_on_c, 0, 78, 58
1, 45232, Control_c, 0, 64, 66
1, 45239, Note_on_c, 0, 70, 48
1, 45246, Control_c, 0, 64, 47
1, 45247, Note_on_c, 0, 66, 45
1, 45254, Note_on_c, 0, 42, 25
1, 45256, Note_on_c, 0, 30, 27
1, 45261, Control_c, 0, 64, 0
1, 45305, Control_c, 0, 64, 35
1, 45320, Control_c, 0, 64, 60
1, 45335, Control_c, 0, 64, 66
1, 45350, Control_c, 0, 64, 70
1, 45361, Note_off_c, 0, 78, 51
1, 45362, Note_off_c, 0, 66, 34
1, 45365, Control_c, 0, 64, 73
1, 45367, Note_off_c, 0, 42, 39
1, 45369, Note_off_c, 0, 30, 36
1, 45379, Control_c, 0, 64, 74
1, 45382, Note_off_c, 0, 70, 32
1, 45409, Control_c, 0, 64, 75
1, 45424, Control_c, 0, 64, 75
1, 45439, Control_c, 0, 64, 76
1, 45498, Control_c, 0, 64, 74
1, 45499, Note_on_c, 0, 78, 58
1, 45510, Note_on_c, 0, 70, 48
1, 45513, Control_c, 0, 64, 67
1, 45522, Note_on_c, 0, 42, 12
1, 45527, Note_on_c, 0, 66, 35
1, 45528, Control_c, 0, 64, 58
1, 45528, Note_on_c, 0, 30, 21
1, 45543, Control_c, 0, 64, 0
1, 45602, Control_c, 0, 64, 40
1, 45623, Note_off_c, 0, 66, 35
1, 45624, Control_c, 0, 64, 59
1, 45637, Note_off_c, 0, 78, 51
1, 45639, Control_c, 0, 64, 63
1, 45647, Note_off_c, 0, 30, 35
1, 45650, Note_off_c, 0, 42, 37
1, 45651, Note_off_c, 0, 70, 36
1, 45653, Control_c, 0, 64, 65
1, 45668, Control_c, 0, 64, 67
1, 45683, Control_c, 0, 64, 70
1, 45698, Control_c, 0, 64, 74
1, 45713, Control_c, 0, 64, 76
1, 45728, Control_c, 0, 64, 77
1, 45758, Control_c, 0, 64, 78
1, 45888, Note_on_c, 0, 78, 39
1, 45891, Control_c, 0, 64, 77
1, 45901, Note_on_c, 0, 70, 34
1, 45907, Control_c, 0, 64, 77
1, 45920, Note_on_c, 0, 66, 26
1, 45921, Control_c, 0, 64, 76
1, 45925, Note_on_c, 0, 42, 5
1, 45936, Control_c, 0, 64, 74
1, 45937, Note_on_c, 0, 30, 14
1, 45951, Control_c, 0, 64, 70
1, 45966, Control_c, 0, 64, 65
1, 45981, Control_c, 0, 64, 58
1, 45995, Control_c, 0, 64, 20
1, 46010, Control_c, 0, 64, 0
1, 46114, Control_c, 0, 64, 36
1, 46128, Control_c, 0, 64, 60
1, 46143, Control_c, 0, 64, 65
1, 46158, Control_c, 0, 64, 67
1, 46173, Control_c, 0, 64, 71
1, 46188, Control_c, 0, 64, 75
1, 46202, Control_c, 0, 64, 80
1, 46217, Control_c, 0, 64, 84
1, 46220, Note_off_c, 0, 66, 43
1, 46232, Control_c, 0, 64, 89
1, 46247, Control_c, 0, 64, 93
1, 46262, Control_c, 0, 64, 98
1, 46276, Control_c, 0, 64, 105
1, 46291, Control_c, 0, 64, 118
1, 46306, Control_c, 0, 64, 127
1, 46320, Note_off_c, 0, 78, 43
1, 46407, Note_off_c, 0, 70, 44
1, 46529, Note_off_c, 0, 30, 28
1, 46543, Note_off_c, 0, 42, 23
1, 47405, Note_on_c, 0, 71, 46
1, 47424, Note_on_c, 0, 66, 41
1, 47424, Note_on_c, 0, 63, 32
1, 47462, Note_on_c, 0, 30, 17
1, 47464, Note_on_c, 0, 42, 26
1, 47477, Control_c, 0, 64, 119
1, 47482, Note_off_c, 0, 63, 0
1, 47482, Note_on_c, 0, 63, 3
1, 47492, Control_c, 0, 64, 103
1, 47507, Control_c, 0, 64, 95
1, 47522, Control_c, 0, 64, 89
1, 47537, Control_c, 0, 64, 83
1, 47552, Control_c, 0, 64, 77
1, 47567, Control_c, 0, 64, 71
1, 47582, Control_c, 0, 64, 66
1, 47597, Control_c, 0, 64, 60
1, 47612, Control_c, 0, 64, 48
1, 47627, Control_c, 0, 64, 17
1, 47641, Control_c, 0, 64, 0
1, 47760, Control_c, 0, 64, 46
1, 47774, Control_c, 0, 64, 62
1, 47789, Control_c, 0, 64, 65
1, 47804, Control_c, 0, 64, 67
1, 47819, Control_c, 0, 64, 69
1, 47834, Control_c, 0, 64, 71
1, 47848, Control_c, 0, 64, 73
1, 47871, Control_c, 0, 64, 76
1, 47886, Control_c, 0, 64, 79
1, 47900, Control_c, 0, 64, 81
1, 47915, Control_c, 0, 64, 84
1, 47930, Control_c, 0, 64, 87
1, 47945, Control_c, 0, 64, 91
1, 47960, Control_c, 0, 64, 94
1, 47974, Control_c, 0, 64, 98
1, 47978, Note_off_c, 0, 42, 31
1, 47989, Control_c, 0, 64, 102
1, 47993, Note_off_c, 0, 30, 28
1, 47993, Note_off_c, 0, 71, 32
1, 48004, Control_c, 0, 64, 107
1, 48015, Note_off_c, 0, 66, 38
1, 48019, Control_c, 0, 64, 113
1, 48034, Control_c, 0, 64, 121
1, 48048, Control_c, 0, 64, 127
1, 48053, Note_off_c, 0, 63, 35
1, 48376, Note_on_c, 0, 71, 43
1, 48378, Note_on_c, 0, 63, 37
1, 48387, Note_on_c, 0, 66, 41
1, 48399, Note_on_c, 0, 30, 25
1, 48403, Note_on_c, 0, 42, 26
1, 48459, Note_off_c, 0, 42, 44
1, 48461, Note_off_c, 0, 30, 42
1, 48503, Note_off_c, 0, 71, 35
1, 48504, Note_off_c, 0, 66, 33
1, 48509, Note_off_c, 0, 63, 40
1, 48601, Note_on_c, 0, 73, 45
1, 48619, Control_c, 0, 64, 110
1, 48621, Note_on_c, 0, 68, 39
1, 48622, Note_on_c, 0, 64, 32
1, 48634, Control_c, 0, 64, 102
1, 48647, Note_on_c, 0, 42, 25
1, 48649, Control_c, 0, 64, 95
1, 48658, Note_on_c, 0, 30, 13
1, 48664, Control_c, 0, 64, 88
1, 48679, Control_c, 0, 64, 82
1, 48688, Note_off_c, 0, 68, 0
1, 48688, Note_on_c, 0, 68, 3
1, 48694, Control_c, 0, 64, 75
1, 48709, Control_c, 0, 64, 69
1, 48723, Control_c, 0, 64, 63
1, 48738, Control_c, 0, 64, 46
1, 48753, Control_c, 0, 64, 0
1, 48886, Control_c, 0, 64, 37
1, 48901, Control_c, 0, 64, 56
1, 48915, Control_c, 0, 64, 63
1, 48930, Control_c, 0, 64, 65
1, 48945, Control_c, 0, 64, 68
1, 48960, Control_c, 0, 64, 70
1, 48975, Control_c, 0, 64, 72
1, 48989, Control_c, 0, 64, 75
1, 49004, Control_c, 0, 64, 78
1, 49019, Control_c, 0, 64, 81
1, 49034, Control_c, 0, 64, 85
1, 49048, Control_c, 0, 64, 88
1, 49063, Control_c, 0, 64, 92
1, 49078, Control_c, 0, 64, 97
1, 49094, Control_c, 0, 64, 101
1, 49109, Control_c, 0, 64, 106
1, 49124, Control_c, 0, 64, 116
1, 49138, Control_c, 0, 64, 127
1, 49192, Note_off_c, 0, 64, 40
1, 49196, Note_off_c, 0, 73, 43
1, 49308, Note_off_c, 0, 42, 28
1, 49357, Note_off_c, 0, 68, 44
1, 49370, Note_off_c, 0, 30, 33
1, 49680, Control_c, 0, 64, 125
1, 49695, Control_c, 0, 64, 106
1, 49703, Note_on_c, 0, 71, 44
1, 49710, Control_c, 0, 64, 99
1, 49713, Note_on_c, 0, 63, 34
1, 49716, Note_on_c, 0, 66, 38
1, 49725, Control_c, 0, 64, 92
1, 49736, Note_on_c, 0, 42, 29
1, 49739, Note_on_c, 0, 30, 24
1, 49740, Control_c, 0, 64, 85
1, 49754, Control_c, 0, 64, 78
1, 49769, Control_c, 0, 64, 72
1, 49784, Control_c, 0, 64, 65
1, 49799, Control_c, 0, 64, 47
1, 49813, Control_c, 0, 64, 0
1, 49918, Control_c, 0, 64, 54
1, 49933, Control_c, 0, 64, 65
1, 49948, Control_c, 0, 64, 69
1, 49962, Control_c, 0, 64, 74
1, 49977, Control_c, 0, 64, 79
1, 49992, Control_c, 0, 64, 83
1, 50007, Control_c, 0, 64, 87
1, 50022, Control_c, 0, 64, 91
1, 50036, Control_c, 0, 64, 96
1, 50051, Control_c, 0, 64, 100
1, 50066, Control_c, 0, 64, 104
1, 50081, Control_c, 0, 64, 110
1, 50089, Note_off_c, 0, 42, 29
1, 50095, Control_c, 0, 64, 115
1, 50118, Control_c, 0, 64, 125
1, 50132, Control_c, 0, 64, 127
1, 50142, Note_off_c, 0, 30, 25
1, 50147, Note_off_c, 0, 71, 28
1, 50170, Note_off_c, 0, 63, 34
1, 50190, Note_off_c, 0, 66, 40
1, 50536, Note_on_c, 0, 71, 35
1, 50545, Note_on_c, 0, 63, 34
1, 50551, Note_on_c, 0, 66, 39
1, 50560, Note_on_c, 0, 30, 27
1, 50564, Note_on_c, 0, 42, 25
1, 50616, Note_off_c, 0, 30, 44
1, 50617, Note_off_c, 0, 42, 44
1, 50625, Note_off_c, 0, 63, 38
1, 50649, Note_off_c, 0, 71, 34
1, 50704, Note_off_c, 0, 66, 0
1, 50730, Note_on_c, 0, 66, 20
1, 50731, Note_on_c, 0, 70, 48
1, 50754, Note_on_c, 0, 61, 42
1, 50770, Control_c, 0, 64, 119
1, 50779, Note_on_c, 0, 30, 29
1, 50780, Note_on_c, 0, 42, 21
1, 50784, Control_c, 0, 64, 106
1, 50799, Control_c, 0, 64, 98
1, 50814, Control_c, 0, 64, 90
1, 50829, Control_c, 0, 64, 83
1, 50844, Control_c, 0, 64, 77
1, 50866, Control_c, 0, 64, 70
1, 50881, Control_c, 0, 64, 64
1, 50896, Control_c, 0, 64, 52
1, 50911, Control_c, 0, 64, 0
1, 51073, Control_c, 0, 64, 38
1, 51088, Control_c, 0, 64, 56
1, 51103, Control_c, 0, 64, 62
1, 51117, Control_c, 0, 64, 65
1, 51132, Control_c, 0, 64, 66
1, 51147, Control_c, 0, 64, 68
1, 51162, Control_c, 0, 64, 70
1, 51177, Control_c, 0, 64, 72
1, 51192, Control_c, 0, 64, 75
1, 51207, Control_c, 0, 64, 77
1, 51222, Control_c, 0, 64, 80
1, 51236, Control_c, 0, 64, 81
1, 51251, Control_c, 0, 64, 84
1, 51266, Control_c, 0, 64, 88
1, 51281, Control_c, 0, 64, 92
1, 51296, Control_c, 0, 64, 97
1, 51310, Control_c, 0, 64, 104
1, 51325, Control_c, 0, 64, 114
1, 51340, Control_c, 0, 64, 127
1, 51425, Note_off_c, 0, 61, 39
1, 51540, Note_off_c, 0, 42, 26
1, 51594, Note_off_c, 0, 66, 43
1, 51598, Note_off_c, 0, 30, 38
1, 51619, Note_off_c, 0, 70, 35
1, 51981, Note_on_c, 0, 71, 45
1, 51985, Control_c, 0, 64, 100
1, 52000, Control_c, 0, 64, 81
1, 52004, Note_on_c, 0, 63, 33
1, 52007, Note_on_c, 0, 66, 40
1, 52014, Control_c, 0, 64, 67
1, 52015, Note_on_c, 0, 30, 21
1, 52026, Note_on_c, 0, 42, 21
1, 52029, Control_c, 0, 64, 55
1, 52044, Control_c, 0, 64, 36
1, 52059, Control_c, 0, 64, 41
1, 52074, Control_c, 0, 64, 51
1, 52089, Control_c, 0, 64, 60
1, 52104, Control_c, 0, 64, 64
1, 52119, Control_c, 0, 64, 68
1, 52133, Note_off_c, 0, 42, 48
1, 52133, Control_c, 0, 64, 72
1, 52145, Note_off_c, 0, 30, 40
1, 52148, Control_c, 0, 64, 78
1, 52163, Control_c, 0, 64, 83
1, 52164, Note_off_c, 0, 66, 37
1, 52166, Note_off_c, 0, 63, 40
1, 52170, Note_off_c, 0, 71, 37
1, 52178, Control_c, 0, 64, 89
1, 52192, Control_c, 0, 64, 90
1, 52222, Control_c, 0, 64, 86
1, 52237, Control_c, 0, 64, 77
1, 52252, Control_c, 0, 64, 68
1, 52266, Control_c, 0, 64, 66
1, 52271, Note_on_c, 0, 70, 54
1, 52276, Note_on_c, 0, 63, 47
1, 52280, Note_on_c, 0, 42, 28
1, 52283, Note_on_c, 0, 30, 41
1, 52285, Note_on_c, 0, 66, 53
1, 52297, Control_c, 0, 64, 68
1, 52312, Control_c, 0, 64, 73
1, 52327, Control_c, 0, 64, 79
1, 52342, Control_c, 0, 64, 81
1, 52363, Control_c, 0, 64, 83
1, 52378, Note_off_c, 0, 42, 47
1, 52378, Control_c, 0, 64, 85
1, 52387, Note_off_c, 0, 30, 37
1, 52393, Control_c, 0, 64, 86
1, 52404, Note_off_c, 0, 66, 32
1, 52410, Note_off_c, 0, 63, 33
1, 52437, Control_c, 0, 64, 83
1, 52452, Control_c, 0, 64, 72
1, 52467, Control_c, 0, 64, 62
1, 52474, Note_off_c, 0, 70, 30
1, 52482, Control_c, 0, 64, 49
1, 52496, Control_c, 0, 64, 45
1, 52511, Control_c, 0, 64, 52
1, 52518, Note_on_c, 0, 30, 36
1, 52519, Note_on_c, 0, 71, 61
1, 52526, Control_c, 0, 64, 60
1, 52527, Note_on_c, 0, 66, 49
1, 52530, Note_on_c, 0, 42, 29
1, 52533, Note_on_c, 0, 63, 44
1, 52541, Control_c, 0, 64, 65
1, 52556, Control_c, 0, 64, 69
1, 52570, Control_c, 0, 64, 76
1, 52583, Note_off_c, 0, 66, 51
1, 52585, Control_c, 0, 64, 80
1, 52600, Control_c, 0, 64, 82
1, 52615, Control_c, 0, 64, 85
1, 52615, Control_c, 0, 67, 124
1, 52630, Control_c, 0, 64, 90
1, 52630, Control_c, 0, 67, 120
1, 52634, Note_off_c, 0, 42, 46
1, 52644, Control_c, 0, 64, 93
1, 52644, Control_c, 0, 67, 116
1, 52651, Note_off_c, 0, 71, 58
1, 52658, Note_off_c, 0, 30, 40
1, 52659, Control_c, 0, 64, 95
1, 52659, Control_c, 0, 67, 113
1, 52674, Control_c, 0, 64, 97
1, 52674, Control_c, 0, 67, 110
1, 52688, Control_c, 0, 64, 98
1, 52688, Control_c, 0, 67, 106
1, 52695, Note_off_c, 0, 63, 42
1, 52703, Control_c, 0, 67, 104
1, 52718, Control_c, 0, 67, 104
1, 52733, Control_c, 0, 67, 104
1, 52748, Control_c, 0, 67, 105
1, 52763, Control_c, 0, 67, 106
1, 52778, Control_c, 0, 67, 107
1, 52792, Control_c, 0, 67, 109
1, 52807, Control_c, 0, 67, 111
1, 52822, Control_c, 0, 67, 112
1, 52837, Control_c, 0, 67, 114
1, 52852, Control_c, 0, 67, 115
1, 52867, Control_c, 0, 67, 115
1, 52881, Control_c, 0, 64, 97
1, 52881, Control_c, 0, 67, 116
1, 52896, Control_c, 0, 67, 117
1, 52911, Control_c, 0, 64, 96
1, 52911, Control_c, 0, 67, 118
1, 52916, Note_on_c, 0, 75, 57
1, 52926, Control_c, 0, 64, 93
1, 52926, Control_c, 0, 67, 119
1, 52935, Note_on_c, 0, 68, 46
1, 52941, Control_c, 0, 64, 90
1, 52941, Control_c, 0, 67, 120
1, 52951, Note_on_c, 0, 64, 37
1, 52955, Control_c, 0, 64, 86
1, 52955, Control_c, 0, 67, 121
1, 52970, Control_c, 0, 64, 82
1, 52970, Control_c, 0, 67, 122
1, 52974, Note_on_c, 0, 42, 28
1, 52985, Control_c, 0, 64, 78
1, 52985, Control_c, 0, 67, 124
1, 52988, Note_on_c, 0, 30, 23
1, 52998, Note_off_c, 0, 68, 0
1, 52998, Note_on_c, 0, 68, 4
1, 53000, Control_c, 0, 64, 74
1, 53000, Control_c, 0, 67, 125
1, 53014, Control_c, 0, 64, 71
1, 53014, Control_c, 0, 67, 127
1, 53029, Control_c, 0, 64, 67
1, 53029, Control_c, 0, 67, 127
1, 53044, Control_c, 0, 64, 62
1, 53059, Control_c, 0, 64, 56
1, 53074, Control_c, 0, 64, 36
1, 53090, Control_c, 0, 64, 0
1, 53245, Control_c, 0, 64, 38
1, 53260, Control_c, 0, 64, 58
1, 53275, Control_c, 0, 64, 64
1, 53290, Control_c, 0, 64, 66
1, 53305, Control_c, 0, 64, 67
1, 53319, Control_c, 0, 64, 69
1, 53334, Control_c, 0, 64, 72
1, 53349, Control_c, 0, 64, 75
1, 53364, Control_c, 0, 64, 79
1, 53379, Control_c, 0, 64, 84
1, 53393, Control_c, 0, 64, 87
1, 53408, Control_c, 0, 64, 90
1, 53423, Control_c, 0, 64, 93
1, 53437, Control_c, 0, 64, 96
1, 53452, Control_c, 0, 64, 98
1, 53467, Control_c, 0, 64, 102
1, 53482, Control_c, 0, 64, 111
1, 53497, Control_c, 0, 64, 127
1, 53640, Note_off_c, 0, 42, 32
1, 53654, Note_off_c, 0, 75, 58
1, 53666, Note_off_c, 0, 30, 36
1, 53687, Note_on_c, 0, 73, 47
1, 53716, Note_off_c, 0, 64, 42
1, 53746, Note_off_c, 0, 68, 47
1, 53777, Note_off_c, 0, 73, 54
1, 54038, Control_c, 0, 64, 113
1, 54053, Note_on_c, 0, 73, 50
1, 54053, Control_c, 0, 64, 82
1, 54066, Note_on_c, 0, 66, 42
1, 54068, Control_c, 0, 64, 66
1, 54078, Note_on_c, 0, 63, 32
1, 54083, Control_c, 0, 64, 51
1, 54085, Note_on_c, 0, 42, 21
1, 54088, Note_on_c, 0, 30, 21
1, 54098, Control_c, 0, 64, 34
1, 54113, Control_c, 0, 64, 45
1, 54128, Control_c, 0, 64, 55
1, 54142, Control_c, 0, 64, 62
1, 54157, Control_c, 0, 64, 67
1, 54172, Control_c, 0, 64, 74
1, 54187, Control_c, 0, 64, 81
1, 54189, Note_off_c, 0, 42, 39
1, 54199, Note_off_c, 0, 30, 35
1, 54202, Control_c, 0, 64, 84
1, 54216, Control_c, 0, 64, 86
1, 54226, Note_off_c, 0, 63, 41
1, 54231, Control_c, 0, 64, 88
1, 54239, Note_off_c, 0, 73, 34
1, 54241, Note_off_c, 0, 66, 39
1, 54246, Control_c, 0, 64, 89
1, 54260, Control_c, 0, 64, 90
1, 54275, Control_c, 0, 64, 90
1, 54305, Control_c, 0, 64, 87
1, 54320, Control_c, 0, 64, 77
1, 54334, Control_c, 0, 64, 67
1, 54349, Control_c, 0, 64, 62
1, 54353, Note_on_c, 0, 63, 35
1, 54353, Note_on_c, 0, 71, 48
1, 54355, Note_on_c, 0, 66, 39
1, 54363, Note_on_c, 0, 30, 31
1, 54373, Note_on_c, 0, 42, 26
1, 54379, Control_c, 0, 64, 64
1, 54394, Control_c, 0, 64, 67
1, 54408, Control_c, 0, 64, 74
1, 54423, Control_c, 0, 64, 81
1, 54438, Control_c, 0, 64, 85
1, 54448, Note_off_c, 0, 42, 38
1, 54453, Control_c, 0, 64, 87
1, 54468, Control_c, 0, 64, 88
1, 54468, Note_off_c, 0, 71, 53
1, 54470, Note_off_c, 0, 30, 34
1, 54483, Control_c, 0, 64, 89
1, 54487, Note_off_c, 0, 66, 33
1, 54498, Note_off_c, 0, 63, 38
1, 54527, Control_c, 0, 64, 88
1, 54542, Control_c, 0, 64, 80
1, 54557, Control_c, 0, 64, 67
1, 54572, Control_c, 0, 64, 44
1, 54578, Note_on_c, 0, 63, 30
1, 54580, Note_on_c, 0, 73, 55
1, 54584, Note_on_c, 0, 66, 36
1, 54586, Control_c, 0, 64, 15
1, 54590, Note_on_c, 0, 30, 21
1, 54608, Control_c, 0, 64, 39
1, 54609, Note_on_c, 0, 42, 13
1, 54623, Control_c, 0, 64, 54
1, 54638, Control_c, 0, 64, 63
1, 54653, Control_c, 0, 64, 69
1, 54667, Control_c, 0, 64, 78
1, 54683, Control_c, 0, 64, 81
1, 54696, Note_off_c, 0, 42, 37
1, 54696, Note_off_c, 0, 73, 59
1, 54698, Control_c, 0, 64, 82
1, 54713, Control_c, 0, 64, 83
1, 54718, Note_off_c, 0, 30, 32
1, 54721, Note_off_c, 0, 63, 42
1, 54743, Control_c, 0, 64, 83
1, 54754, Note_off_c, 0, 66, 39
1, 54980, Control_c, 0, 64, 83
1, 54995, Control_c, 0, 64, 82
1, 54995, Note_on_c, 0, 71, 41
1, 55009, Control_c, 0, 64, 81
1, 55016, Note_on_c, 0, 66, 40
1, 55022, Note_on_c, 0, 61, 29
1, 55024, Control_c, 0, 64, 79
1, 55039, Control_c, 0, 64, 77
1, 55043, Note_on_c, 0, 42, 21
1, 55046, Note_on_c, 0, 30, 16
1, 55054, Control_c, 0, 64, 75
1, 55069, Control_c, 0, 64, 73
1, 55083, Control_c, 0, 64, 70
1, 55098, Control_c, 0, 64, 67
1, 55113, Control_c, 0, 64, 64
1, 55128, Control_c, 0, 64, 61
1, 55143, Control_c, 0, 64, 55
1, 55157, Control_c, 0, 64, 47
1, 55172, Control_c, 0, 64, 35
1, 55187, Control_c, 0, 64, 0
1, 55446, Control_c, 0, 64, 31
1, 55461, Control_c, 0, 64, 47
1, 55476, Control_c, 0, 64, 54
1, 55492, Control_c, 0, 64, 58
1, 55506, Control_c, 0, 64, 60
1, 55521, Control_c, 0, 64, 62
1, 55536, Control_c, 0, 64, 63
1, 55551, Control_c, 0, 64, 63
1, 55566, Control_c, 0, 64, 65
1, 55580, Control_c, 0, 64, 66
1, 55595, Control_c, 0, 64, 68
1, 55610, Control_c, 0, 64, 69
1, 55625, Control_c, 0, 64, 71
1, 55639, Control_c, 0, 64, 71
1, 55654, Control_c, 0, 64, 72
1, 55669, Control_c, 0, 64, 73
1, 55862, Control_c, 0, 64, 72
1, 55877, Control_c, 0, 64, 70
1, 55892, Control_c, 0, 64, 65
1, 55906, Control_c, 0, 64, 52
1, 55913, Note_on_c, 0, 70, 39
1, 55916, Note_off_c, 0, 71, 36
1, 55921, Control_c, 0, 64, 0
1, 55980, Control_c, 0, 64, 47
1, 55995, Control_c, 0, 64, 61
1, 56010, Control_c, 0, 64, 67
1, 56024, Control_c, 0, 64, 72
1, 56039, Control_c, 0, 64, 76
1, 56042, Note_off_c, 0, 30, 41
1, 56042, Note_off_c, 0, 42, 39
1, 56054, Control_c, 0, 64, 78
1, 56058, Note_off_c, 0, 61, 39
1, 56068, Note_off_c, 0, 70, 37
1, 56069, Control_c, 0, 64, 80
1, 56077, Note_off_c, 0, 66, 34
1, 56084, Control_c, 0, 64, 82
1, 56106, Control_c, 0, 64, 85
1, 56121, Control_c, 0, 64, 88
1, 56136, Control_c, 0, 64, 89
1, 56151, Control_c, 0, 64, 90
1, 56166, Control_c, 0, 64, 91
1, 56180, Control_c, 0, 64, 92
1, 56195, Control_c, 0, 64, 92
1, 56225, Control_c, 0, 64, 93
1, 56265, Note_on_c, 0, 70, 39
1, 56266, Note_on_c, 0, 66, 34
1, 56269, Control_c, 0, 64, 93
1, 56282, Note_on_c, 0, 61, 29
1, 56300, Control_c, 0, 64, 94
1, 56304, Note_on_c, 0, 30, 16
1, 56311, Note_on_c, 0, 42, 8
1, 56329, Control_c, 0, 64, 94
1, 56344, Control_c, 0, 64, 95
1, 56363, Note_off_c, 0, 70, 52
1, 56378, Note_off_c, 0, 42, 40
1, 56379, Note_off_c, 0, 30, 38
1, 56385, Note_off_c, 0, 66, 36
1, 56418, Control_c, 0, 64, 95
1, 56449, Note_off_c, 0, 61, 30
1, 56582, Note_on_c, 0, 73, 43
1, 56588, Note_on_c, 0, 70, 39
1, 56593, Note_on_c, 0, 61, 27
1, 56594, Note_on_c, 0, 30, 22
1, 56596, Note_on_c, 0, 42, 15
1, 56667, Note_off_c, 0, 30, 40
1, 56670, Note_off_c, 0, 42, 38
1, 56677, Note_off_c, 0, 70, 48
1, 56697, Note_off_c, 0, 61, 33
1, 56708, Note_off_c, 0, 73, 38
1, 56831, Note_on_c, 0, 73, 49
1, 56840, Note_on_c, 0, 70, 45
1, 56842, Note_on_c, 0, 61, 30
1, 56843, Note_on_c, 0, 42, 26
1, 56855, Note_on_c, 0, 30, 22
1, 56880, Note_off_c, 0, 61, 54
1, 56883, Note_off_c, 0, 70, 61
1, 56912, Note_off_c, 0, 73, 60
1, 56913, Note_off_c, 0, 30, 42
1, 56933, Note_off_c, 0, 42, 36
1, 57093, Control_c, 0, 64, 93
1, 57106, Note_on_c, 0, 73, 53
1, 57108, Control_c, 0, 64, 81
1, 57114, Note_on_c, 0, 68, 40
1, 57123, Control_c, 0, 64, 69
1, 57127, Note_on_c, 0, 71, 38
1, 57131, Note_on_c, 0, 42, 20
1, 57134, Note_on_c, 0, 30, 30
1, 57138, Control_c, 0, 64, 60
1, 57152, Control_c, 0, 64, 53
1, 57167, Control_c, 0, 64, 57
1, 57182, Control_c, 0, 64, 61
1, 57197, Control_c, 0, 64, 64
1, 57211, Control_c, 0, 64, 67
1, 57213, Note_off_c, 0, 30, 39
1, 57222, Note_off_c, 0, 42, 37
1, 57224, Note_off_c, 0, 71, 35
1, 57226, Control_c, 0, 64, 72
1, 57234, Note_off_c, 0, 68, 45
1, 57241, Control_c, 0, 64, 77
1, 57256, Control_c, 0, 64, 82
1, 57270, Note_off_c, 0, 73, 36
1, 57271, Control_c, 0, 64, 83
1, 57300, Control_c, 0, 64, 81
1, 57315, Control_c, 0, 64, 75
1, 57330, Control_c, 0, 64, 68
1, 57345, Control_c, 0, 64, 63
1, 57353, Note_on_c, 0, 75, 55
1, 57358, Note_on_c, 0, 68, 40
1, 57371, Note_on_c, 0, 71, 43
1, 57374, Control_c, 0, 64, 65
1, 57377, Note_on_c, 0, 42, 28
1, 57377, Note_on_c, 0, 30, 31
1, 57389, Control_c, 0, 64, 68
1, 57404, Control_c, 0, 64, 72
1, 57419, Control_c, 0, 64, 75
1, 57434, Control_c, 0, 64, 77
1, 57441, Note_off_c, 0, 71, 48
1, 57446, Note_off_c, 0, 75, 61
1, 57449, Control_c, 0, 64, 78
1, 57463, Note_off_c, 0, 30, 37
1, 57464, Control_c, 0, 64, 79
1, 57470, Note_off_c, 0, 42, 37
1, 57478, Control_c, 0, 64, 80
1, 57493, Control_c, 0, 64, 82
1, 57494, Note_off_c, 0, 68, 41
1, 57508, Control_c, 0, 64, 83
1, 57523, Control_c, 0, 64, 83
1, 57552, Control_c, 0, 64, 80
1, 57567, Control_c, 0, 64, 72
1, 57582, Control_c, 0, 64, 65
1, 57591, Note_on_c, 0, 77, 59
1, 57604, Control_c, 0, 64, 61
1, 57607, Note_on_c, 0, 68, 44
1, 57609, Note_on_c, 0, 71, 48
1, 57612, Note_on_c, 0, 42, 28
1, 57618, Note_on_c, 0, 30, 34
1, 57633, Control_c, 0, 64, 64
1, 57648, Control_c, 0, 64, 67
1, 57663, Control_c, 0, 64, 71
1, 57678, Control_c, 0, 64, 75
1, 57693, Control_c, 0, 64, 77
1, 57708, Control_c, 0, 64, 77
1, 57713, Note_off_c, 0, 77, 50
1, 57715, Note_off_c, 0, 42, 39
1, 57720, Note_off_c, 0, 30, 35
1, 57723, Control_c, 0, 64, 78
1, 57727, Note_off_c, 0, 71, 45
1, 57738, Control_c, 0, 64, 78
1, 57752, Control_c, 0, 64, 80
1, 57753, Note_off_c, 0, 68, 41
1, 57767, Control_c, 0, 64, 83
1, 57782, Control_c, 0, 64, 86
1, 57782, Control_c, 0, 67, 127
1, 57797, Control_c, 0, 64, 87
1, 57797, Control_c, 0, 67, 124
1, 57811, Control_c, 0, 67, 120
1, 57826, Control_c, 0, 64, 83
1, 57826, Control_c, 0, 67, 117
1, 57841, Control_c, 0, 64, 72
1, 57841, Control_c, 0, 67, 115
1, 57851, Note_on_c, 0, 77, 63
1, 57856, Control_c, 0, 64, 63
1, 57856, Control_c, 0, 67, 113
1, 57871, Control_c, 0, 64, 57
1, 57871, Control_c, 0, 67, 111
1, 57874, Note_on_c, 0, 68, 49
1, 57874, Note_on_c, 0, 71, 51
1, 57887, Note_on_c, 0, 42, 27
1, 57887, Control_c, 0, 67, 110
1, 57889, Note_on_c, 0, 30, 30
1, 57901, Control_c, 0, 64, 60
1, 57901, Control_c, 0, 67, 107
1, 57916, Control_c, 0, 64, 65
1, 57916, Control_c, 0, 67, 105
1, 57931, Control_c, 0, 64, 71
1, 57931, Control_c, 0, 67, 103
1, 57935, Note_off_c, 0, 77, 61
1, 57946, Control_c, 0, 64, 76
1, 57946, Control_c, 0, 67, 101
1, 57954, Note_off_c, 0, 71, 61
1, 57961, Control_c, 0, 64, 78
1, 57961, Control_c, 0, 67, 100
1, 57975, Control_c, 0, 64, 79
1, 57975, Control_c, 0, 67, 100
1, 57976, Note_off_c, 0, 68, 53
1, 57990, Control_c, 0, 64, 79
1, 57990, Control_c, 0, 67, 99
1, 57994, Note_off_c, 0, 30, 34
1, 57995, Note_off_c, 0, 42, 37
1, 58005, Control_c, 0, 64, 80
1, 58005, Control_c, 0, 67, 98
1, 58020, Control_c, 0, 64, 82
1, 58020, Control_c, 0, 67, 98
1, 58034, Control_c, 0, 64, 86
1, 58034, Control_c, 0, 67, 96
1, 58049, Control_c, 0, 64, 93
1, 58049, Control_c, 0, 67, 95
1, 58064, Control_c, 0, 64, 101
1, 58064, Control_c, 0, 67, 93
1, 58079, Control_c, 0, 64, 104
1, 58079, Control_c, 0, 67, 93
1, 58094, Control_c, 0, 64, 103
1, 58094, Control_c, 0, 67, 92
1, 58104, Note_on_c, 0, 78, 62
1, 58108, Control_c, 0, 64, 86
1, 58108, Control_c, 0, 67, 92
1, 58118, Note_on_c, 0, 70, 54
1, 58123, Control_c, 0, 64, 66
1, 58124, Note_on_c, 0, 66, 46
1, 58137, Note_on_c, 0, 30, 35
1, 58138, Control_c, 0, 64, 34
1, 58141, Note_on_c, 0, 42, 32
1, 58153, Control_c, 0, 64, 0
1, 58153, Control_c, 0, 67, 91
1, 58168, Control_c, 0, 67, 91
1, 58182, Control_c, 0, 64, 29
1, 58197, Control_c, 0, 64, 56
1, 58197, Control_c, 0, 67, 90
1, 58212, Control_c, 0, 64, 65
1, 58212, Control_c, 0, 67, 89
1, 58227, Control_c, 0, 64, 70
1, 58227, Control_c, 0, 67, 88
1, 58232, Note_off_c, 0, 42, 36
1, 58242, Control_c, 0, 64, 74
1, 58242, Control_c, 0, 67, 87
1, 58253, Note_off_c, 0, 30, 36
1, 58254, Note_off_c, 0, 78, 58
1, 58256, Control_c, 0, 64, 77
1, 58256, Control_c, 0, 67, 85
1, 58271, Control_c, 0, 64, 80
1, 58271, Control_c, 0, 67, 84
1, 58274, Note_off_c, 0, 70, 38
1, 58284, Note_off_c, 0, 66, 35
1, 58286, Control_c, 0, 64, 86
1, 58286, Control_c, 0, 67, 82
1, 58301, Control_c, 0, 64, 98
1, 58301, Control_c, 0, 67, 79
1, 58316, Control_c, 0, 64, 115
1, 58316, Control_c, 0, 67, 75
1, 58331, Control_c, 0, 64, 127
1, 58331, Control_c, 0, 67, 71
1, 58353, Control_c, 0, 67, 67
1, 58368, Control_c, 0, 67, 63
1, 58371, Note_on_c, 0, 78, 69
1, 58373, Note_on_c, 0, 66, 49
1, 58376, Note_on_c, 0, 70, 58
1, 58382, Control_c, 0, 67, 60
1, 58391, Note_on_c, 0, 30, 47
1, 58391, Note_on_c, 0, 42, 43
1, 58397, Control_c, 0, 67, 57
1, 58412, Control_c, 0, 67, 53
1, 58426, Control_c, 0, 67, 50
1, 58441, Control_c, 0, 67, 47
1, 58456, Control_c, 0, 67, 43
1, 58471, Control_c, 0, 67, 39
1, 58483, Note_off_c, 0, 42, 45
1, 58486, Control_c, 0, 67, 35
1, 58501, Control_c, 0, 67, 32
1, 58504, Note_off_c, 0, 30, 33
1, 58509, Note_off_c, 0, 78, 53
1, 58516, Control_c, 0, 67, 29
1, 58524, Note_off_c, 0, 70, 39
1, 58531, Control_c, 0, 67, 25
1, 58541, Note_off_c, 0, 66, 42
1, 58546, Control_c, 0, 67, 22
1, 58560, Control_c, 0, 67, 19
1, 58575, Control_c, 0, 67, 16
1, 58590, Control_c, 0, 67, 12
1, 58605, Control_c, 0, 67, 8
1, 58620, Note_on_c, 0, 78, 72
1, 58620, Control_c, 0, 67, 0
1, 58624, Note_on_c, 0, 70, 64
1, 58626, Note_on_c, 0, 66, 55
1, 58634, Note_on_c, 0, 30, 48
1, 58634, Note_on_c, 0, 42, 47
1, 58735, Note_off_c, 0, 42, 45
1, 58766, Note_off_c, 0, 70, 52
1, 58769, Note_off_c, 0, 78, 56
1, 58781, Note_off_c, 0, 66, 37
1, 58789, Note_off_c, 0, 30, 31
1, 58873, Note_on_c, 0, 78, 75
1, 58879, Note_on_c, 0, 70, 71
1, 58882, Note_on_c, 0, 66, 63
1, 58883, Note_on_c, 0, 30, 49
1, 58886, Note_on_c, 0, 42, 52
1, 59010, Note_off_c, 0, 78, 56
1, 59018, Note_off_c, 0, 70, 54
1, 59033, Note_off_c, 0, 66, 37
1, 59034, Note_off_c, 0, 42, 38
1, 59042, Note_off_c, 0, 30, 44
1, 59148, Note_on_c, 0, 70, 67
1, 59151, Note_on_c, 0, 78, 73
1, 59156, Note_on_c, 0, 66, 61
1, 59158, Note_on_c, 0, 30, 61
1, 59170, Note_on_c, 0, 42, 54
1, 59265, Note_off_c, 0, 70, 52
1, 59288, Note_off_c, 0, 30, 57
1, 59297, Note_off_c, 0, 42, 56
1, 59318, Note_off_c, 0, 66, 38
1, 59321, Note_off_c, 0, 78, 55
1, 59485, Note_on_c, 0, 78, 80
1, 59488, Note_on_c, 0, 71, 69
1, 59491, Note_on_c, 0, 66, 71
1, 59502, Control_c, 0, 64, 89
1, 59505, Note_on_c, 0, 38, 56
1, 59517, Control_c, 0, 64, 66
1, 59532, Control_c, 0, 64, 0
1, 59606, Control_c, 0, 64, 51
1, 59621, Control_c, 0, 64, 64
1, 59636, Control_c, 0, 64, 72
1, 59651, Control_c, 0, 64, 78
1, 59652, Note_off_c, 0, 78, 59
1, 59666, Control_c, 0, 64, 83
1, 59680, Control_c, 0, 64, 89
1, 59695, Control_c, 0, 64, 97
1, 59710, Control_c, 0, 64, 107
1, 59718, Note_off_c, 0, 38, 40
1, 59725, Control_c, 0, 64, 119
1, 59726, Note_off_c, 0, 71, 54
1, 59740, Control_c, 0, 64, 127
1, 59766, Note_off_c, 0, 66, 36
1, 59839, Note_on_c, 0, 78, 75
1, 59854, Note_on_c, 0, 66, 65
1, 59857, Note_on_c, 0, 72, 67
1, 59866, Control_c, 0, 64, 110
1, 59874, Note_on_c, 0, 38, 47
1, 59881, Control_c, 0, 64, 79
1, 59896, Control_c, 0, 64, 59
1, 59911, Control_c, 0, 64, 0
1, 59970, Control_c, 0, 64, 57
1, 59985, Control_c, 0, 64, 66
1, 60000, Control_c, 0, 64, 72
1, 60014, Control_c, 0, 64, 76
1, 60019, Note_off_c, 0, 78, 58
1, 60024, Note_off_c, 0, 72, 54
1, 60029, Control_c, 0, 64, 81
1, 60044, Control_c, 0, 64, 86
1, 60046, Note_off_c, 0, 66, 34
1, 60059, Control_c, 0, 64, 93
1, 60073, Control_c, 0, 64, 101
1, 60088, Control_c, 0, 64, 107
1, 60103, Control_c, 0, 64, 116
1, 60118, Control_c, 0, 64, 127
1, 60127, Note_off_c, 0, 38, 0
1, 60143, Note_on_c, 0, 38, 34
1, 60143, Note_on_c, 0, 78, 63
1, 60150, Note_on_c, 0, 66, 59
1, 60150, Note_on_c, 0, 72, 62
1, 60267, Note_off_c, 0, 72, 50
1, 60269, Note_off_c, 0, 78, 50
1, 60297, Note_off_c, 0, 66, 40
1, 60309, Note_off_c, 0, 38, 36
1, 60398, Note_on_c, 0, 72, 54
1, 60398, Note_on_c, 0, 78, 62
1, 60399, Note_on_c, 0, 38, 33
1, 60406, Note_on_c, 0, 66, 44
1, 60510, Note_off_c, 0, 72, 49
1, 60518, Note_off_c, 0, 78, 40
1, 60523, Note_off_c, 0, 66, 33
1, 60534, Note_off_c, 0, 38, 37
1, 60644, Note_on_c, 0, 78, 55
1, 60659, Note_on_c, 0, 72, 53
1, 60662, Note_on_c, 0, 66, 41
1, 60666, Note_on_c, 0, 38, 27
1, 60775, Note_off_c, 0, 78, 38
1, 60776, Note_off_c, 0, 38, 37
1, 60781, Note_off_c, 0, 66, 32
1, 60784, Note_off_c, 0, 72, 33
1, 60883, Note_on_c, 0, 78, 55
1, 60884, Note_on_c, 0, 72, 38
1, 60890, Note_on_c, 0, 66, 40
1, 60892, Note_on_c, 0, 38, 32
1, 61003, Note_off_c, 0, 78, 39
1, 61007, Note_off_c, 0, 72, 36
1, 61011, Note_off_c, 0, 38, 35
1, 61014, Note_off_c, 0, 66, 37
1, 61130, Note_on_c, 0, 78, 41
1, 61145, Note_on_c, 0, 72, 46
1, 61146, Note_on_c, 0, 38, 36
1, 61160, Note_on_c, 0, 66, 38
1, 61181, Note_off_c, 0, 78, 50
1, 61190, Note_off_c, 0, 38, 60
1, 61196, Note_off_c, 0, 72, 59
1, 61229, Note_off_c, 0, 66, 44
1, 61467, Control_c, 0, 64, 93
1, 61479, Note_on_c, 0, 62, 54
1, 61482, Control_c, 0, 64, 71
1, 61486, Note_on_c, 0, 50, 46
1, 61497, Control_c, 0, 64, 55
1, 61512, Control_c, 0, 64, 0
1, 61541, Control_c, 0, 64, 30
1, 61556, Control_c, 0, 64, 57
1, 61570, Control_c, 0, 64, 64
1, 61585, Control_c, 0, 64, 68
1, 61600, Control_c, 0, 64, 74
1, 61615, Control_c, 0, 64, 79
1, 61630, Control_c, 0, 64, 82
1, 61644, Control_c, 0, 64, 83
1, 61670, Note_off_c, 0, 50, 39
1, 61675, Note_off_c, 0, 62, 33
1, 61763, Note_on_c, 0, 62, 51
1, 61763, Control_c, 0, 64, 78
1, 61777, Note_on_c, 0, 50, 40
1, 61777, Control_c, 0, 64, 68
1, 61783, Note_on_c, 0, 48, 45
1, 61792, Control_c, 0, 64, 50
1, 61792, Control_c, 0, 67, 9
1, 61807, Control_c, 0, 64, 0
1, 61807, Control_c, 0, 67, 13
1, 61822, Control_c, 0, 67, 17
1, 61837, Control_c, 0, 67, 19
1, 61851, Control_c, 0, 64, 53
1, 61851, Control_c, 0, 67, 20
1, 61867, Control_c, 0, 64, 64
1, 61867, Control_c, 0, 67, 22
1, 61875, Note_off_c, 0, 62, 49
1, 61882, Control_c, 0, 64, 70
1, 61882, Control_c, 0, 67, 24
1, 61897, Control_c, 0, 64, 75
1, 61897, Control_c, 0, 67, 26
1, 61903, Note_off_c, 0, 50, 35
1, 61912, Control_c, 0, 64, 79
1, 61912, Control_c, 0, 67, 28
1, 61927, Control_c, 0, 64, 81
1, 61927, Control_c, 0, 67, 29
1, 61941, Control_c, 0, 64, 81
1, 61941, Control_c, 0, 67, 30
1, 61956, Control_c, 0, 64, 82
1, 61956, Control_c, 0, 67, 32
1, 61971, Control_c, 0, 67, 35
1, 61986, Control_c, 0, 67, 36
1, 62000, Control_c, 0, 67, 38
1, 62015, Control_c, 0, 67, 40
1, 62017, Note_off_c, 0, 48, 31
1, 62030, Control_c, 0, 64, 79
1, 62030, Control_c, 0, 67, 43
1, 62043, Note_on_c, 0, 62, 47
1, 62045, Control_c, 0, 64, 71
1, 62045, Control_c, 0, 67, 45
1, 62058, Note_on_c, 0, 47, 46
1, 62060, Control_c, 0, 64, 61
1, 62060, Control_c, 0, 67, 47
1, 62073, Note_on_c, 0, 50, 25
1, 62075, Control_c, 0, 64, 28
1, 62075, Control_c, 0, 67, 49
1, 62097, Control_c, 0, 64, 0
1, 62097, Control_c, 0, 67, 53
1, 62112, Control_c, 0, 64, 34
1, 62112, Control_c, 0, 67, 57
1, 62127, Control_c, 0, 64, 56
1, 62127, Control_c, 0, 67, 60
1, 62142, Control_c, 0, 64, 65
1, 62142, Control_c, 0, 67, 62
1, 62156, Control_c, 0, 64, 70
1, 62156, Control_c, 0, 67, 64
1, 62171, Control_c, 0, 64, 75
1, 62171, Control_c, 0, 67, 67
1, 62186, Control_c, 0, 64, 80
1, 62186, Control_c, 0, 67, 70
1, 62194, Note_off_c, 0, 62, 31
1, 62194, Note_off_c, 0, 50, 36
1, 62200, Control_c, 0, 64, 83
1, 62200, Control_c, 0, 67, 73
1, 62215, Control_c, 0, 64, 86
1, 62215, Control_c, 0, 67, 76
1, 62230, Control_c, 0, 67, 78
1, 62245, Control_c, 0, 67, 81
1, 62260, Control_c, 0, 67, 84
1, 62275, Note_off_c, 0, 47, 35
1, 62275, Control_c, 0, 67, 87
1, 62290, Control_c, 0, 67, 90
1, 62305, Control_c, 0, 67, 93
1, 62319, Control_c, 0, 67, 97
1, 62334, Control_c, 0, 64, 83
1, 62334, Control_c, 0, 67, 100
1, 62349, Control_c, 0, 64, 73
1, 62349, Control_c, 0, 67, 103
1, 62353, Note_on_c, 0, 62, 42
1, 62364, Control_c, 0, 64, 62
1, 62364, Control_c, 0, 67, 105
1, 62372, Note_on_c, 0, 45, 40
1, 62379, Control_c, 0, 64, 17
1, 62379, Control_c, 0, 67, 106
1, 62383, Note_on_c, 0, 50, 27
1, 62393, Control_c, 0, 64, 0
1, 62393, Control_c, 0, 67, 106
1, 62408, Control_c, 0, 67, 107
1, 62423, Control_c, 0, 64, 43
1, 62438, Control_c, 0, 64, 60
1, 62453, Control_c, 0, 64, 67
1, 62453, Control_c, 0, 67, 107
1, 62467, Control_c, 0, 64, 71
1, 62467, Control_c, 0, 67, 108
1, 62482, Control_c, 0, 64, 75
1, 62482, Control_c, 0, 67, 108
1, 62483, Note_off_c, 0, 62, 34
1, 62496, Note_off_c, 0, 50, 32
1, 62497, Control_c, 0, 64, 78
1, 62497, Control_c, 0, 67, 110
1, 62512, Control_c, 0, 64, 80
1, 62512, Control_c, 0, 67, 112
1, 62526, Control_c, 0, 64, 81
1, 62541, Control_c, 0, 67, 112
1, 62544, Note_off_c, 0, 45, 30
1, 62615, Control_c, 0, 67, 113
1, 62705, Control_c, 0, 64, 78
1, 62720, Control_c, 0, 64, 68
1, 62735, Control_c, 0, 64, 53
1, 62735, Control_c, 0, 67, 112
1, 62737, Note_on_c, 0, 62, 40
1, 62750, Control_c, 0, 64, 0
1, 62750, Control_c, 0, 67, 112
1, 62751, Note_on_c, 0, 43, 37
1, 62753, Note_on_c, 0, 50, 35
1, 62764, Control_c, 0, 67, 111
1, 62779, Control_c, 0, 67, 111
1, 62794, Control_c, 0, 67, 110
1, 62809, Control_c, 0, 64, 8
1, 62809, Control_c, 0, 67, 109
1, 62823, Control_c, 0, 64, 59
1, 62823, Control_c, 0, 67, 108
1, 62846, Control_c, 0, 64, 67
1, 62846, Control_c, 0, 67, 108
1, 62862, Control_c, 0, 64, 75
1, 62862, Control_c, 0, 67, 107
1, 62877, Control_c, 0, 64, 82
1, 62892, Control_c, 0, 64, 87
1, 62906, Control_c, 0, 64, 93
1, 62908, Note_off_c, 0, 62, 35
1, 62921, Control_c, 0, 64, 98
1, 62921, Control_c, 0, 67, 106
1, 62936, Control_c, 0, 64, 105
1, 62936, Control_c, 0, 67, 106
1, 62938, Note_off_c, 0, 50, 33
1, 62951, Control_c, 0, 64, 110
1, 62962, Note_off_c, 0, 43, 30
1, 62966, Control_c, 0, 64, 111
1, 62966, Control_c, 0, 67, 105
1, 62980, Control_c, 0, 64, 113
1, 62980, Control_c, 0, 67, 104
1, 62995, Control_c, 0, 64, 114
1, 62995, Control_c, 0, 67, 104
1, 63010, Control_c, 0, 64, 116
1, 63024, Control_c, 0, 64, 119
1, 63039, Control_c, 0, 64, 127
1, 63069, Control_c, 0, 67, 103
1, 63084, Control_c, 0, 67, 103
1, 63098, Control_c, 0, 67, 102
1, 63113, Control_c, 0, 67, 102
1, 63202, Control_c, 0, 67, 101
1, 63350, Control_c, 0, 67, 102
1, 63433, Note_on_c, 0, 71, 55
1, 63458, Note_on_c, 0, 67, 46
1, 63476, Note_on_c, 0, 59, 38
1, 63485, Control_c, 0, 64, 118
1, 63490, Note_on_c, 0, 43, 33
1, 63492, Note_on_c, 0, 50, 26
1, 63500, Control_c, 0, 64, 106
1, 63514, Control_c, 0, 64, 96
1, 63514, Control_c, 0, 67, 102
1, 63529, Control_c, 0, 64, 86
1, 63544, Control_c, 0, 64, 77
1, 63559, Control_c, 0, 64, 68
1, 63559, Control_c, 0, 67, 103
1, 63573, Control_c, 0, 64, 61
1, 63595, Control_c, 0, 64, 36
1, 63610, Control_c, 0, 64, 0
1, 63640, Control_c, 0, 67, 103
1, 63729, Control_c, 0, 67, 104
1, 63818, Control_c, 0, 67, 104
1, 64247, Control_c, 0, 64, 47
1, 64263, Control_c, 0, 64, 62
1, 64278, Control_c, 0, 64, 67
1, 64293, Control_c, 0, 64, 72
1, 64308, Control_c, 0, 64, 78
1, 64323, Control_c, 0, 64, 87
1, 64344, Control_c, 0, 64, 99
1, 64358, Control_c, 0, 64, 127
1, 64373, Control_c, 0, 67, 105
1, 64418, Control_c, 0, 67, 105
1, 64433, Control_c, 0, 67, 106
1, 64463, Control_c, 0, 67, 106
1, 64477, Control_c, 0, 67, 107
1, 64492, Control_c, 0, 67, 107
1, 64507, Control_c, 0, 67, 108
1, 64516, Note_off_c, 0, 59, 36
1, 64537, Control_c, 0, 67, 108
1, 64551, Control_c, 0, 67, 109
1, 64553, Note_off_c, 0, 71, 34
1, 64559, Note_off_c, 0, 43, 39
1, 64581, Control_c, 0, 67, 110
1, 64594, Note_off_c, 0, 50, 31
1, 64610, Control_c, 0, 67, 110
1, 64625, Control_c, 0, 67, 111
1, 64655, Control_c, 0, 67, 111
1, 64662, Note_off_c, 0, 67, 35
1, 64669, Control_c, 0, 67, 112
1, 64684, Control_c, 0, 67, 112
1, 64714, Control_c, 0, 67, 113
1, 64922, Note_on_c, 0, 69, 40
1, 64931, Note_on_c, 0, 66, 41
1, 64934, Note_on_c, 0, 60, 38
1, 64943, Note_on_c, 0, 43, 32
1, 64946, Note_on_c, 0, 50, 35
1, 64973, Note_off_c, 0, 60, 54
1, 64995, Control_c, 0, 67, 112
1, 65010, Control_c, 0, 67, 112
1, 65012, Note_off_c, 0, 50, 40
1, 65016, Note_off_c, 0, 66, 40
1, 65040, Control_c, 0, 67, 111
1, 65044, Note_off_c, 0, 69, 38
1, 65055, Control_c, 0, 67, 111
1, 65071, Control_c, 0, 67, 110
1, 65078, Note_off_c, 0, 43, 0
1, 65083, Note_on_c, 0, 71, 51
1, 65092, Control_c, 0, 67, 110
1, 65103, Note_on_c, 0, 43, 15
1, 65107, Note_on_c, 0, 67, 39
1, 65110, Note_on_c, 0, 59, 38
1, 65116, Note_on_c, 0, 50, 30
1, 65121, Control_c, 0, 64, 100
1, 65121, Control_c, 0, 67, 109
1, 65136, Control_c, 0, 64, 87
1, 65136, Control_c, 0, 67, 109
1, 65151, Control_c, 0, 64, 78
1, 65166, Control_c, 0, 64, 70
1, 65166, Control_c, 0, 67, 108
1, 65181, Control_c, 0, 64, 62
1, 65196, Control_c, 0, 64, 35
1, 65211, Control_c, 0, 64, 0
1, 65225, Control_c, 0, 67, 108
1, 65343, Control_c, 0, 67, 107
1, 65900, Control_c, 0, 64, 19
1, 65914, Control_c, 0, 64, 61
1, 65929, Control_c, 0, 64, 72
1, 65944, Control_c, 0, 64, 87
1, 65959, Control_c, 0, 64, 127
1, 66063, Control_c, 0, 67, 108
1, 66078, Control_c, 0, 67, 108
1, 66093, Control_c, 0, 67, 109
1, 66108, Control_c, 0, 67, 110
1, 66122, Control_c, 0, 67, 110
1, 66137, Control_c, 0, 67, 111
1, 66152, Control_c, 0, 67, 111
1, 66166, Control_c, 0, 67, 112
1, 66177, Note_off_c, 0, 59, 37
1, 66207, Note_off_c, 0, 43, 36
1, 66211, Control_c, 0, 67, 112
1, 66240, Control_c, 0, 67, 113
1, 66243, Note_off_c, 0, 50, 32
1, 66248, Note_off_c, 0, 71, 31
1, 66340, Note_off_c, 0, 67, 43
1, 66344, Control_c, 0, 67, 113
1, 66373, Control_c, 0, 67, 114
1, 66508, Control_c, 0, 67, 114
1, 66516, Note_on_c, 0, 69, 48
1, 66534, Note_on_c, 0, 60, 37
1, 66536, Note_on_c, 0, 66, 35
1, 66546, Note_on_c, 0, 43, 32
1, 66549, Note_on_c, 0, 50, 27
1, 66566, Control_c, 0, 67, 115
1, 66578, Note_off_c, 0, 60, 61
1, 66601, Note_off_c, 0, 66, 45
1, 66615, Note_off_c, 0, 43, 41
1, 66621, Note_off_c, 0, 50, 40
1, 66633, Control_c, 0, 67, 118
1, 66648, Control_c, 0, 67, 121
1, 66654, Note_off_c, 0, 69, 45
1, 66663, Control_c, 0, 67, 124
1, 66678, Control_c, 0, 67, 127
1, 66693, Control_c, 0, 67, 127
1, 66708, Control_c, 0, 64, 101
1, 66710, Note_on_c, 0, 67, 45
1, 66710, Note_on_c, 0, 71, 54
1, 66719, Note_on_c, 0, 50, 21
1, 66723, Control_c, 0, 64, 70
1, 66728, Note_on_c, 0, 43, 36
1, 66730, Note_on_c, 0, 59, 33
1, 66737, Control_c, 0, 64, 58
1, 66752, Control_c, 0, 64, 44
1, 66753, Note_off_c, 0, 67, 54
1, 66767, Control_c, 0, 64, 50
1, 66782, Control_c, 0, 64, 57
1, 66797, Control_c, 0, 64, 61
1, 66801, Note_off_c, 0, 59, 41
1, 66812, Control_c, 0, 64, 65
1, 66827, Control_c, 0, 64, 68
1, 66841, Control_c, 0, 64, 70
1, 66842, Note_off_c, 0, 43, 39
1, 66847, Note_off_c, 0, 50, 35
1, 66856, Control_c, 0, 64, 71
1, 66871, Control_c, 0, 64, 72
1, 66886, Control_c, 0, 64, 72
1, 66901, Control_c, 0, 64, 73
1, 66916, Control_c, 0, 64, 73
1, 66931, Control_c, 0, 64, 74
1, 66935, Note_off_c, 0, 71, 61
1, 66945, Control_c, 0, 64, 75
1, 66947, Note_on_c, 0, 72, 60
1, 66958, Note_on_c, 0, 69, 53
1, 66960, Control_c, 0, 64, 76
1, 66963, Note_on_c, 0, 60, 44
1, 66964, Note_on_c, 0, 43, 42
1, 66966, Note_on_c, 0, 50, 29
1, 66975, Control_c, 0, 64, 77
1, 66989, Control_c, 0, 64, 78
1, 67004, Control_c, 0, 64, 79
1, 67014, Note_off_c, 0, 60, 55
1, 67018, Note_off_c, 0, 43, 59
1, 67034, Control_c, 0, 64, 80
1, 67040, Note_off_c, 0, 50, 37
1, 67049, Control_c, 0, 64, 81
1, 67063, Control_c, 0, 64, 83
1, 67078, Control_c, 0, 64, 84
1, 67093, Control_c, 0, 64, 85
1, 67107, Note_off_c, 0, 69, 38
1, 67107, Control_c, 0, 64, 86
1, 67137, Control_c, 0, 64, 86
1, 67147, Note_off_c, 0, 72, 36
1, 67152, Note_on_c, 0, 74, 68
1, 67152, Control_c, 0, 64, 79
1, 67166, Note_on_c, 0, 71, 58
1, 67167, Control_c, 0, 64, 70
1, 67169, Note_on_c, 0, 62, 57
1, 67181, Note_on_c, 0, 50, 47
1, 67181, Control_c, 0, 64, 65
1, 67190, Note_on_c, 0, 43, 34
1, 67196, Control_c, 0, 64, 64
1, 67201, Note_off_c, 0, 71, 60
1, 67211, Control_c, 0, 64, 65
1, 67226, Control_c, 0, 64, 68
1, 67241, Control_c, 0, 64, 74
1, 67256, Control_c, 0, 64, 82
1, 67261, Note_off_c, 0, 50, 38
1, 67270, Note_off_c, 0, 62, 36
1, 67271, Control_c, 0, 64, 85
1, 67284, Note_off_c, 0, 74, 58
1, 67286, Control_c, 0, 64, 86
1, 67296, Note_off_c, 0, 43, 32
1, 67411, Control_c, 0, 64, 82
1, 67417, Note_on_c, 0, 74, 58
1, 67426, Control_c, 0, 64, 71
1, 67441, Control_c, 0, 64, 59
1, 67447, Note_on_c, 0, 62, 45
1, 67447, Note_on_c, 0, 66, 49
1, 67456, Control_c, 0, 64, 0
1, 67472, Note_on_c, 0, 38, 37
1, 67472, Note_on_c, 0, 50, 27
1, 67501, Control_c, 0, 64, 45
1, 67516, Control_c, 0, 64, 61
1, 67530, Note_off_c, 0, 62, 53
1, 67531, Control_c, 0, 64, 68
1, 67546, Control_c, 0, 64, 74
1, 67560, Control_c, 0, 64, 79
1, 67562, Note_off_c, 0, 66, 37
1, 67572, Note_off_c, 0, 50, 34
1, 67575, Control_c, 0, 64, 81
1, 67590, Control_c, 0, 64, 83
1, 67599, Note_off_c, 0, 38, 31
1, 67605, Control_c, 0, 64, 84
1, 67619, Control_c, 0, 64, 85
1, 67661, Note_off_c, 0, 74, 58
1, 67679, Control_c, 0, 64, 81
1, 67684, Note_on_c, 0, 72, 56
1, 67690, Note_on_c, 0, 38, 28
1, 67693, Note_on_c, 0, 66, 43
1, 67694, Control_c, 0, 64, 72
1, 67700, Note_on_c, 0, 60, 36
1, 67706, Note_on_c, 0, 50, 29
1, 67709, Control_c, 0, 64, 64
1, 67724, Control_c, 0, 64, 59
1, 67738, Control_c, 0, 64, 60
1, 67753, Control_c, 0, 64, 64
1, 67768, Control_c, 0, 64, 68
1, 67777, Note_off_c, 0, 60, 40
1, 67783, Control_c, 0, 64, 74
1, 67790, Note_off_c, 0, 50, 35
1, 67798, Control_c, 0, 64, 79
1, 67807, Note_off_c, 0, 66, 37
1, 67812, Control_c, 0, 64, 81
1, 67825, Note_off_c, 0, 38, 32
1, 67827, Control_c, 0, 64, 82
1, 67842, Control_c, 0, 64, 82
1, 67876, Note_off_c, 0, 72, 0
1, 67904, Note_on_c, 0, 72, 9
1, 67930, Control_c, 0, 64, 77
1, 67932, Note_on_c, 0, 38, 13
1, 67938, Note_on_c, 0, 66, 47
1, 67940, Note_on_c, 0, 50, 21
1, 67945, Control_c, 0, 64, 68
1, 67946, Note_on_c, 0, 60, 34
1, 67960, Control_c, 0, 64, 59
1, 67975, Control_c, 0, 64, 51
1, 67990, Control_c, 0, 64, 56
1, 68000, Note_off_c, 0, 60, 57
1, 68004, Control_c, 0, 64, 62
1, 68019, Control_c, 0, 64, 65
1, 68028, Note_off_c, 0, 50, 35
1, 68034, Control_c, 0, 64, 70
1, 68037, Note_off_c, 0, 66, 35
1, 68044, Note_off_c, 0, 38, 40
1, 68049, Control_c, 0, 64, 78
1, 68064, Control_c, 0, 64, 81
1, 68101, Control_c, 0, 64, 81
1, 68249, Control_c, 0, 64, 80
1, 68256, Note_off_c, 0, 72, 53
1, 68265, Control_c, 0, 64, 74
1, 68271, Note_on_c, 0, 71, 51
1, 68277, Note_on_c, 0, 67, 40
1, 68280, Control_c, 0, 64, 64
1, 68292, Note_on_c, 0, 59, 33
1, 68295, Control_c, 0, 64, 27
1, 68296, Note_on_c, 0, 43, 28
1, 68302, Note_on_c, 0, 50, 25
1, 68310, Control_c, 0, 64, 0
1, 68360, Note_off_c, 0, 59, 60
1, 68368, Control_c, 0, 64, 48
1, 68383, Control_c, 0, 64, 64
1, 68398, Control_c, 0, 64, 71
1, 68406, Note_off_c, 0, 67, 60
1, 68413, Control_c, 0, 64, 79
1, 68428, Control_c, 0, 64, 85
1, 68442, Control_c, 0, 64, 89
1, 68448, Note_off_c, 0, 71, 61
1, 68457, Control_c, 0, 64, 93
1, 68472, Control_c, 0, 64, 98
1, 68487, Control_c, 0, 64, 102
1, 68501, Note_off_c, 0, 50, 40
1, 68502, Control_c, 0, 64, 105
1, 68517, Control_c, 0, 64, 106
1, 68532, Control_c, 0, 64, 107
1, 68561, Control_c, 0, 64, 107
1, 68564, Note_off_c, 0, 43, 38
1, 68665, Control_c, 0, 67, 127
1, 68680, Control_c, 0, 64, 105
1, 68689, Note_on_c, 0, 67, 44
1, 68695, Control_c, 0, 64, 87
1, 68695, Control_c, 0, 67, 126
1, 68709, Control_c, 0, 64, 71
1, 68709, Control_c, 0, 67, 125
1, 68724, Control_c, 0, 64, 53
1, 68724, Control_c, 0, 67, 123
1, 68739, Control_c, 0, 64, 15
1, 68739, Control_c, 0, 67, 121
1, 68753, Control_c, 0, 64, 33
1, 68753, Control_c, 0, 67, 118
1, 68768, Control_c, 0, 64, 51
1, 68768, Control_c, 0, 67, 115
1, 68783, Control_c, 0, 64, 60
1, 68783, Control_c, 0, 67, 111
1, 68798, Control_c, 0, 64, 66
1, 68798, Control_c, 0, 67, 108
1, 68813, Control_c, 0, 64, 70
1, 68813, Control_c, 0, 67, 105
1, 68835, Control_c, 0, 64, 75
1, 68835, Control_c, 0, 67, 102
1, 68839, Note_off_c, 0, 67, 52
1, 68850, Control_c, 0, 64, 78
1, 68850, Control_c, 0, 67, 99
1, 68865, Control_c, 0, 64, 80
1, 68865, Control_c, 0, 67, 95
1, 68880, Control_c, 0, 64, 82
1, 68880, Control_c, 0, 67, 90
1, 68894, Control_c, 0, 64, 84
1, 68894, Control_c, 0, 67, 86
1, 68909, Control_c, 0, 64, 85
1, 68909, Control_c, 0, 67, 82
1, 68924, Control_c, 0, 64, 86
1, 68924, Control_c, 0, 67, 78
1, 68939, Control_c, 0, 64, 87
1, 68939, Control_c, 0, 67, 75
1, 68954, Control_c, 0, 67, 73
1, 68968, Control_c, 0, 67, 71
1, 68978, Note_on_c, 0, 69, 56
1, 68983, Control_c, 0, 64, 82
1, 68983, Control_c, 0, 67, 69
1, 68998, Control_c, 0, 64, 71
1, 68998, Control_c, 0, 67, 66
1, 69013, Control_c, 0, 64, 61
1, 69013, Control_c, 0, 67, 63
1, 69028, Control_c, 0, 64, 54
1, 69028, Control_c, 0, 67, 59
1, 69042, Control_c, 0, 64, 58
1, 69042, Control_c, 0, 67, 56
1, 69058, Control_c, 0, 64, 63
1, 69058, Control_c, 0, 67, 52
1, 69073, Control_c, 0, 64, 66
1, 69073, Control_c, 0, 67, 47
1, 69088, Control_c, 0, 64, 72
1, 69088, Control_c, 0, 67, 43
1, 69096, Note_off_c, 0, 69, 57
1, 69103, Control_c, 0, 64, 80
1, 69103, Control_c, 0, 67, 39
1, 69118, Control_c, 0, 64, 87
1, 69118, Control_c, 0, 67, 35
1, 69132, Control_c, 0, 64, 92
1, 69132, Control_c, 0, 67, 32
1, 69147, Control_c, 0, 64, 98
1, 69147, Control_c, 0, 67, 30
1, 69162, Control_c, 0, 64, 102
1, 69162, Control_c, 0, 67, 28
1, 69177, Control_c, 0, 67, 25
1, 69191, Control_c, 0, 64, 101
1, 69191, Control_c, 0, 67, 21
1, 69206, Note_on_c, 0, 71, 64
1, 69206, Control_c, 0, 64, 86
1, 69206, Control_c, 0, 67, 18
1, 69221, Control_c, 0, 64, 71
1, 69221, Control_c, 0, 67, 16
1, 69236, Control_c, 0, 64, 62
1, 69236, Control_c, 0, 67, 15
1, 69251, Control_c, 0, 64, 59
1, 69251, Control_c, 0, 67, 14
1, 69265, Control_c, 0, 64, 63
1, 69265, Control_c, 0, 67, 12
1, 69280, Control_c, 0, 64, 67
1, 69280, Control_c, 0, 67, 10
1, 69295, Control_c, 0, 64, 74
1, 69295, Control_c, 0, 67, 8
1, 69310, Control_c, 0, 64, 84
1, 69310, Control_c, 0, 67, 0
1, 69325, Control_c, 0, 64, 92
1, 69339, Control_c, 0, 64, 95
1, 69354, Control_c, 0, 64, 98
1, 69369, Control_c, 0, 64, 98
1, 69384, Note_off_c, 0, 71, 37
1, 69384, Control_c, 0, 64, 98
1, 69399, Control_c, 0, 64, 86
1, 69414, Control_c, 0, 64, 70
1, 69428, Note_on_c, 0, 72, 66
1, 69429, Control_c, 0, 64, 58
1, 69444, Control_c, 0, 64, 49
1, 69458, Control_c, 0, 64, 58
1, 69473, Control_c, 0, 64, 63
1, 69488, Control_c, 0, 64, 70
1, 69502, Control_c, 0, 64, 84
1, 69517, Control_c, 0, 64, 101
1, 69532, Control_c, 0, 64, 106
1, 69547, Control_c, 0, 64, 109
1, 69573, Note_off_c, 0, 72, 53
1, 69599, Control_c, 0, 64, 106
1, 69614, Control_c, 0, 64, 85
1, 69629, Control_c, 0, 64, 65
1, 69644, Control_c, 0, 64, 0
1, 69652, Note_on_c, 0, 74, 72
1, 69718, Control_c, 0, 64, 58
1, 69733, Control_c, 0, 64, 65
1, 69748, Control_c, 0, 64, 68
1, 69763, Control_c, 0, 64, 71
1, 69778, Control_c, 0, 64, 75
1, 69790, Note_off_c, 0, 74, 56
1, 69792, Control_c, 0, 64, 81
1, 69807, Control_c, 0, 64, 87
1, 69822, Control_c, 0, 64, 92
1, 69837, Control_c, 0, 64, 94
1, 69852, Control_c, 0, 64, 94
1, 69986, Control_c, 0, 64, 94
1, 69988, Note_on_c, 0, 76, 75
1, 70003, Note_on_c, 0, 72, 61
1, 70015, Control_c, 0, 64, 92
1, 70021, Note_on_c, 0, 64, 48
1, 70030, Control_c, 0, 64, 89
1, 70031, Note_on_c, 0, 48, 41
1, 70045, Control_c, 0, 64, 84
1, 70046, Note_on_c, 0, 36, 37
1, 70060, Control_c, 0, 64, 78
1, 70075, Control_c, 0, 64, 70
1, 70089, Control_c, 0, 64, 62
1, 70104, Control_c, 0, 64, 0
1, 70794, Control_c, 0, 64, 56
1, 70809, Control_c, 0, 64, 67
1, 70824, Control_c, 0, 64, 78
1, 70838, Control_c, 0, 64, 97
1, 70853, Control_c, 0, 64, 127
1, 70959, Note_off_c, 0, 76, 60
1, 71015, Note_off_c, 0, 64, 33
1, 71066, Note_off_c, 0, 48, 37
1, 71101, Note_off_c, 0, 72, 50
1, 71102, Note_off_c, 0, 36, 36
1, 71503, Note_on_c, 0, 75, 58
1, 71507, Note_on_c, 0, 71, 54
1, 71516, Note_on_c, 0, 63, 47
1, 71521, Note_on_c, 0, 48, 48
1, 71532, Note_on_c, 0, 36, 41
1, 71575, Note_off_c, 0, 48, 58
1, 71577, Note_off_c, 0, 36, 47
1, 71579, Note_off_c, 0, 63, 63
1, 71584, Note_off_c, 0, 71, 54
1, 71602, Note_off_c, 0, 75, 57
1, 71644, Note_on_c, 0, 72, 57
1, 71650, Note_on_c, 0, 76, 74
1, 71670, Note_on_c, 0, 64, 53
1, 71682, Note_on_c, 0, 48, 48
1, 71688, Note_on_c, 0, 36, 44
1, 71690, Control_c, 0, 64, 101
1, 71704, Control_c, 0, 64, 82
1, 71719, Control_c, 0, 64, 69
1, 71734, Control_c, 0, 64, 59
1, 71749, Control_c, 0, 64, 0
1, 72454, Control_c, 0, 64, 48
1, 72469, Control_c, 0, 64, 66
1, 72483, Control_c, 0, 64, 80
1, 72498, Control_c, 0, 64, 110
1, 72513, Control_c, 0, 64, 127
1, 72601, Note_off_c, 0, 76, 59
1, 72717, Note_off_c, 0, 64, 35
1, 72762, Note_off_c, 0, 72, 47
1, 72791, Note_off_c, 0, 48, 29
1, 72830, Note_off_c, 0, 36, 38
1, 73102, Note_on_c, 0, 75, 58
1, 73110, Note_on_c, 0, 71, 52
1, 73120, Note_on_c, 0, 63, 44
1, 73131, Note_on_c, 0, 48, 37
1, 73132, Note_on_c, 0, 36, 40
1, 73165, Note_off_c, 0, 63, 57
1, 73171, Note_off_c, 0, 48, 46
1, 73174, Note_off_c, 0, 36, 48
1, 73175, Note_off_c, 0, 71, 53
1, 73186, Note_off_c, 0, 75, 57
1, 73245, Note_on_c, 0, 72, 54
1, 73251, Note_on_c, 0, 76, 67
1, 73259, Note_on_c, 0, 64, 50
1, 73262, Control_c, 0, 64, 91
1, 73273, Note_on_c, 0, 48, 41
1, 73276, Control_c, 0, 64, 65
1, 73285, Note_on_c, 0, 36, 36
1, 73291, Control_c, 0, 64, 0
1, 73358, Control_c, 0, 64, 49
1, 73373, Control_c, 0, 64, 62
1, 73378, Note_off_c, 0, 64, 43
1, 73388, Control_c, 0, 64, 67
1, 73399, Note_off_c, 0, 76, 59
1, 73403, Control_c, 0, 64, 71
1, 73418, Control_c, 0, 64, 75
1, 73432, Control_c, 0, 64, 78
1, 73447, Control_c, 0, 64, 81
1, 73455, Note_off_c, 0, 36, 41
1, 73455, Note_off_c, 0, 48, 37
1, 73462, Control_c, 0, 64, 85
1, 73477, Control_c, 0, 64, 87
1, 73528, Note_off_c, 0, 72, 51
1, 73559, Note_on_c, 0, 77, 67
1, 73568, Note_on_c, 0, 71, 51
1, 73580, Note_on_c, 0, 65, 40
1, 73589, Note_on_c, 0, 48, 45
1, 73595, Note_on_c, 0, 36, 40
1, 73650, Note_off_c, 0, 77, 59
1, 73679, Note_off_c, 0, 36, 38
1, 73686, Note_off_c, 0, 48, 37
1, 73689, Note_off_c, 0, 65, 42
1, 73789, Note_off_c, 0, 71, 62
1, 73790, Note_on_c, 0, 76, 73
1, 73798, Note_on_c, 0, 72, 59
1, 73807, Note_on_c, 0, 64, 56
1, 73808, Note_on_c, 0, 48, 42
1, 73816, Note_on_c, 0, 36, 38
1, 73880, Note_off_c, 0, 64, 57
1, 73891, Note_off_c, 0, 48, 47
1, 73905, Note_off_c, 0, 36, 36
1, 73967, Control_c, 0, 64, 84
1, 73968, Note_off_c, 0, 72, 54
1, 73981, Control_c, 0, 64, 68
1, 73996, Control_c, 0, 64, 46
1, 74006, Note_off_c, 0, 76, 63
1, 74011, Note_on_c, 0, 74, 70
1, 74011, Control_c, 0, 64, 0
1, 74017, Note_on_c, 0, 71, 57
1, 74017, Note_on_c, 0, 62, 64
1, 74029, Note_on_c, 0, 48, 47
1, 74036, Note_on_c, 0, 36, 44
1, 74041, Control_c, 0, 64, 21
1, 74055, Control_c, 0, 64, 50
1, 74078, Control_c, 0, 64, 62
1, 74093, Control_c, 0, 64, 69
1, 74097, Note_off_c, 0, 71, 59
1, 74107, Control_c, 0, 64, 76
1, 74122, Control_c, 0, 64, 84
1, 74123, Note_off_c, 0, 74, 63
1, 74135, Note_off_c, 0, 62, 59
1, 74137, Control_c, 0, 64, 92
1, 74144, Note_off_c, 0, 48, 47
1, 74152, Control_c, 0, 64, 100
1, 74159, Note_off_c, 0, 36, 35
1, 74167, Control_c, 0, 64, 110
1, 74181, Control_c, 0, 64, 112
1, 74196, Control_c, 0, 64, 107
1, 74211, Control_c, 0, 64, 87
1, 74226, Control_c, 0, 64, 73
1, 74241, Control_c, 0, 64, 66
1, 74243, Note_on_c, 0, 72, 68
1, 74255, Control_c, 0, 64, 65
1, 74257, Note_on_c, 0, 60, 54
1, 74259, Note_on_c, 0, 48, 49
1, 74259, Note_on_c, 0, 69, 52
1, 74262, Note_on_c, 0, 36, 49
1, 74270, Control_c, 0, 64, 66
1, 74285, Control_c, 0, 64, 70
1, 74299, Note_off_c, 0, 48, 63
1, 74300, Control_c, 0, 64, 76
1, 74315, Control_c, 0, 64, 81
1, 74330, Control_c, 0, 64, 83
1, 74344, Control_c, 0, 64, 83
1, 74346, Note_off_c, 0, 60, 60
1, 74419, Note_off_c, 0, 69, 59
1, 74434, Control_c, 0, 64, 82
1, 74448, Control_c, 0, 64, 73
1, 74455, Note_off_c, 0, 36, 39
1, 74463, Control_c, 0, 64, 50
1, 74469, Note_on_c, 0, 49, 50
1, 74470, Note_on_c, 0, 67, 61
1, 74473, Note_on_c, 0, 71, 67
1, 74473, Note_off_c, 0, 72, 63
1, 74477, Note_on_c, 0, 37, 50
1, 74478, Control_c, 0, 64, 0
1, 74482, Note_on_c, 0, 59, 57
1, 74537, Control_c, 0, 64, 50
1, 74552, Control_c, 0, 64, 65
1, 74556, Note_off_c, 0, 67, 58
1, 74567, Control_c, 0, 64, 73
1, 74581, Control_c, 0, 64, 79
1, 74591, Note_off_c, 0, 71, 57
1, 74596, Control_c, 0, 64, 81
1, 74603, Note_off_c, 0, 59, 53
1, 74611, Control_c, 0, 64, 83
1, 74625, Control_c, 0, 64, 84
1, 74640, Control_c, 0, 64, 85
1, 74657, Control_c, 0, 64, 86
1, 74669, Note_off_c, 0, 49, 52
1, 74672, Control_c, 0, 64, 87
1, 74686, Control_c, 0, 64, 87
1, 74744, Note_off_c, 0, 37, 61
1, 74745, Control_c, 0, 64, 79
1, 74755, Note_on_c, 0, 69, 61
1, 74760, Note_on_c, 0, 66, 59
1, 74760, Control_c, 0, 64, 65
1, 74767, Note_on_c, 0, 50, 50
1, 74769, Note_on_c, 0, 38, 52
1, 74775, Note_on_c, 0, 57, 49
1, 74775, Control_c, 0, 64, 28
1, 74790, Control_c, 0, 64, 0
1, 74841, Control_c, 0, 64, 51
1, 74852, Note_off_c, 0, 50, 60
1, 74856, Control_c, 0, 64, 63
1, 74871, Control_c, 0, 64, 67
1, 74885, Control_c, 0, 64, 72
1, 74900, Control_c, 0, 64, 77
1, 74915, Control_c, 0, 64, 80
1, 74919, Note_off_c, 0, 69, 55
1, 74920, Note_off_c, 0, 57, 37
1, 74929, Control_c, 0, 64, 83
1, 74944, Control_c, 0, 64, 85
1, 74948, Note_off_c, 0, 38, 53
1, 74959, Control_c, 0, 64, 86
1, 74974, Control_c, 0, 64, 87
1, 74989, Control_c, 0, 64, 89
1, 75003, Control_c, 0, 64, 91
1, 75018, Control_c, 0, 64, 94
1, 75033, Control_c, 0, 64, 95
1, 75036, Note_off_c, 0, 66, 38
1, 75063, Control_c, 0, 64, 92
1, 75076, Note_on_c, 0, 38, 68
1, 75078, Control_c, 0, 64, 77
1, 75093, Control_c, 0, 64, 61
1, 75108, Control_c, 0, 64, 0
1, 75152, Control_c, 0, 64, 23
1, 75167, Control_c, 0, 64, 54
1, 75182, Control_c, 0, 64, 63
1, 75196, Control_c, 0, 64, 68
1, 75211, Control_c, 0, 64, 75
1, 75226, Control_c, 0, 64, 87
1, 75241, Control_c, 0, 64, 95
1, 75247, Note_off_c, 0, 38, 58
1, 75255, Control_c, 0, 64, 102
1, 75270, Control_c, 0, 64, 110
1, 75285, Control_c, 0, 64, 115
1, 75315, Control_c, 0, 64, 113
1, 75329, Control_c, 0, 64, 83
1, 75336, Note_on_c, 0, 36, 76
1, 75344, Control_c, 0, 64, 65
1, 75359, Control_c, 0, 64, 36
1, 75374, Control_c, 0, 64, 25
1, 75389, Control_c, 0, 64, 45
1, 75403, Control_c, 0, 64, 58
1, 75418, Control_c, 0, 64, 65
1, 75433, Control_c, 0, 64, 72
1, 75449, Control_c, 0, 64, 80
1, 75464, Control_c, 0, 64, 86
1, 75479, Control_c, 0, 64, 92
1, 75484, Note_off_c, 0, 36, 61
1, 75493, Control_c, 0, 64, 99
1, 75508, Control_c, 0, 64, 105
1, 75523, Control_c, 0, 64, 106
1, 75538, Control_c, 0, 64, 105
1, 75552, Control_c, 0, 64, 88
1, 75575, Control_c, 0, 64, 67
1, 75583, Note_on_c, 0, 35, 82
1, 75590, Control_c, 0, 64, 18
1, 75605, Control_c, 0, 64, 0
1, 75649, Control_c, 0, 64, 46
1, 75664, Control_c, 0, 64, 62
1, 75678, Control_c, 0, 64, 68
1, 75693, Control_c, 0, 64, 79
1, 75708, Control_c, 0, 64, 94
1, 75723, Control_c, 0, 64, 106
1, 75738, Control_c, 0, 64, 127
1, 75756, Note_off_c, 0, 35, 62
1, 75812, Control_c, 0, 64, 81
1, 75826, Control_c, 0, 64, 44
1, 75827, Note_on_c, 0, 33, 87
1, 75841, Control_c, 0, 64, 0
1, 75900, Control_c, 0, 64, 62
1, 75915, Control_c, 0, 64, 71
1, 75930, Control_c, 0, 64, 86
1, 75945, Control_c, 0, 64, 127
1, 75971, Note_off_c, 0, 33, 62
1, 76078, Control_c, 0, 64, 106
1, 76093, Control_c, 0, 64, 52
1, 76108, Control_c, 0, 64, 0
1, 76117, Note_on_c, 0, 31, 88
1, 76167, Control_c, 0, 64, 48
1, 76181, Note_off_c, 0, 31, 63
1, 76182, Control_c, 0, 64, 75
1, 76197, Control_c, 0, 64, 127
1, 76604, Note_on_c, 0, 67, 81
1, 76604, Note_on_c, 0, 71, 86
1, 76607, Note_on_c, 0, 59, 84
1, 76613, Note_on_c, 0, 50, 73
1, 76613, Note_on_c, 0, 43, 80
1, 76665, Control_c, 0, 64, 113
1, 76680, Control_c, 0, 64, 76
1, 76695, Control_c, 0, 64, 58
1, 76709, Control_c, 0, 64, 0
1, 76902, Control_c, 0, 64, 31
1, 76917, Control_c, 0, 64, 54
1, 76932, Control_c, 0, 64, 60
1, 76947, Control_c, 0, 64, 62
1, 76962, Control_c, 0, 64, 63
1, 76976, Control_c, 0, 64, 64
1, 76991, Control_c, 0, 64, 66
1, 77006, Control_c, 0, 64, 70
1, 77020, Control_c, 0, 64, 76
1, 77035, Control_c, 0, 64, 81
1, 77051, Control_c, 0, 64, 83
1, 77073, Control_c, 0, 64, 86
1, 77088, Control_c, 0, 64, 90
1, 77103, Control_c, 0, 64, 95
1, 77118, Control_c, 0, 64, 99
1, 77132, Control_c, 0, 64, 105
1, 77147, Control_c, 0, 64, 114
1, 77162, Control_c, 0, 64, 127
1, 77689, Note_off_c, 0, 71, 51
1, 77720, Note_off_c, 0, 59, 34
1, 77752, Note_off_c, 0, 50, 37
1, 77800, Note_off_c, 0, 43, 50
1, 77860, Note_off_c, 0, 67, 47
1, 78093, Note_on_c, 0, 69, 72
1, 78097, Note_on_c, 0, 66, 73
1, 78099, Note_on_c, 0, 60, 69
1, 78104, Note_on_c, 0, 50, 62
1, 78105, Note_on_c, 0, 43, 57
1, 78153, Note_off_c, 0, 60, 62
1, 78154, Note_off_c, 0, 43, 60
1, 78156, Note_off_c, 0, 50, 61
1, 78186, Note_off_c, 0, 66, 62
1, 78190, Note_off_c, 0, 69, 63
1, 78233, Note_on_c, 0, 71, 86
1, 78234, Note_on_c, 0, 67, 78
1, 78242, Note_on_c, 0, 59, 79
1, 78246, Note_on_c, 0, 50, 62
1, 78249, Note_on_c, 0, 43, 65
1, 78279, Control_c, 0, 64, 77
1, 78294, Control_c, 0, 64, 49
1, 78309, Control_c, 0, 64, 0
1, 78643, Control_c, 0, 64, 18
1, 78658, Control_c, 0, 64, 31
1, 78673, Control_c, 0, 64, 37
1, 78688, Control_c, 0, 64, 40
1, 78702, Control_c, 0, 64, 42
1, 78717, Control_c, 0, 64, 43
1, 78732, Control_c, 0, 64, 44
1, 78747, Control_c, 0, 64, 44
1, 78837, Control_c, 0, 64, 45
1, 78881, Control_c, 0, 64, 46
1, 78895, Control_c, 0, 64, 47
1, 78910, Control_c, 0, 64, 48
1, 78925, Control_c, 0, 64, 53
1, 78940, Control_c, 0, 64, 59
1, 78955, Control_c, 0, 64, 63
1, 78969, Control_c, 0, 64, 66
1, 78984, Control_c, 0, 64, 69
1, 78999, Control_c, 0, 64, 76
1, 79014, Control_c, 0, 64, 87
1, 79029, Control_c, 0, 64, 99
1, 79043, Control_c, 0, 64, 119
1, 79058, Control_c, 0, 64, 127
1, 79273, Note_off_c, 0, 59, 33
1, 79277, Note_off_c, 0, 71, 47
1, 79298, Note_off_c, 0, 43, 34
1, 79330, Note_off_c, 0, 50, 31
1, 79429, Note_off_c, 0, 67, 35
1, 79504, Note_on_c, 0, 69, 66
1, 79505, Note_on_c, 0, 60, 61
1, 79508, Note_on_c, 0, 66, 61
1, 79514, Note_on_c, 0, 43, 53
1, 79519, Note_on_c, 0, 50, 54
1, 79561, Note_off_c, 0, 43, 57
1, 79563, Note_off_c, 0, 50, 59
1, 79563, Note_off_c, 0, 60, 59
1, 79564, Note_off_c, 0, 66, 59
1, 79581, Note_off_c, 0, 69, 56
1, 79630, Control_c, 0, 64, 96
1, 79636, Note_on_c, 0, 71, 77
1, 79639, Note_on_c, 0, 67, 68
1, 79643, Note_on_c, 0, 59, 66
1, 79644, Control_c, 0, 64, 66
1, 79655, Note_on_c, 0, 43, 49
1, 79659, Control_c, 0, 64, 12
1, 79662, Note_on_c, 0, 50, 46
1, 79674, Control_c, 0, 64, 0
1, 79704, Control_c, 0, 64, 22
1, 79718, Control_c, 0, 64, 58
1, 79733, Control_c, 0, 64, 66
1, 79748, Control_c, 0, 64, 73
1, 79763, Control_c, 0, 64, 81
1, 79778, Control_c, 0, 64, 84
1, 79788, Note_off_c, 0, 71, 58
1, 79792, Control_c, 0, 64, 85
1, 79794, Note_off_c, 0, 67, 60
1, 79803, Note_off_c, 0, 59, 38
1, 79822, Control_c, 0, 64, 85
1, 79825, Note_off_c, 0, 50, 36
1, 79888, Note_off_c, 0, 43, 0
1, 79898, Note_on_c, 0, 72, 78
1, 79901, Note_on_c, 0, 43, 37
1, 79903, Note_on_c, 0, 60, 73
1, 79904, Note_on_c, 0, 69, 71
1, 79907, Note_on_c, 0, 50, 45
1, 79910, Control_c, 0, 64, 86
1, 79940, Control_c, 0, 64, 87
1, 79955, Control_c, 0, 64, 89
1, 79970, Note_off_c, 0, 43, 61
1, 79970, Control_c, 0, 64, 95
1, 79984, Control_c, 0, 64, 113
1, 79999, Control_c, 0, 64, 127
1, 80005, Note_off_c, 0, 60, 56
1, 80017, Note_off_c, 0, 72, 63
1, 80026, Note_off_c, 0, 50, 35
1, 80034, Note_off_c, 0, 69, 65
1, 80108, Note_on_c, 0, 74, 82
1, 80110, Note_on_c, 0, 43, 69
1, 80112, Note_on_c, 0, 62, 84
1, 80113, Note_on_c, 0, 71, 79
1, 80116, Note_on_c, 0, 50, 57
1, 80170, Note_off_c, 0, 50, 61
1, 80173, Note_off_c, 0, 71, 61
1, 80178, Note_off_c, 0, 62, 58
1, 80180, Note_off_c, 0, 74, 63
1, 80194, Note_off_c, 0, 43, 60
1, 80364, Note_on_c, 0, 71, 84
1, 80378, Note_on_c, 0, 51, 61
1, 80379, Note_on_c, 0, 59, 67
1, 80379, Control_c, 0, 64, 83
1, 80381, Note_on_c, 0, 39, 55
1, 80384, Note_on_c, 0, 66, 68
1, 80394, Control_c, 0, 64, 59
1, 80409, Control_c, 0, 64, 0
1, 80482, Control_c, 0, 64, 48
1, 80497, Control_c, 0, 64, 65
1, 80512, Control_c, 0, 64, 72
1, 80527, Control_c, 0, 64, 79
1, 80542, Control_c, 0, 64, 84
1, 80546, Note_off_c, 0, 59, 39
1, 80547, Note_off_c, 0, 66, 57
1, 80557, Control_c, 0, 64, 88
1, 80560, Note_off_c, 0, 39, 54
1, 80565, Note_off_c, 0, 51, 38
1, 80572, Control_c, 0, 64, 96
1, 80586, Control_c, 0, 64, 104
1, 80601, Control_c, 0, 64, 103
1, 80616, Control_c, 0, 64, 90
1, 80631, Control_c, 0, 64, 71
1, 80646, Control_c, 0, 64, 58
1, 80651, Note_off_c, 0, 71, 59
1, 80652, Note_on_c, 0, 69, 63
1, 80660, Note_on_c, 0, 66, 68
1, 80660, Control_c, 0, 64, 50
1, 80667, Note_on_c, 0, 51, 59
1, 80668, Note_on_c, 0, 60, 58
1, 80669, Note_on_c, 0, 39, 48
1, 80675, Control_c, 0, 64, 60
1, 80690, Control_c, 0, 64, 65
1, 80705, Control_c, 0, 64, 72
1, 80720, Control_c, 0, 64, 87
1, 80734, Control_c, 0, 64, 109
1, 80749, Control_c, 0, 64, 127
1, 80759, Note_off_c, 0, 60, 51
1, 80768, Note_off_c, 0, 69, 64
1, 80774, Note_off_c, 0, 39, 53
1, 80774, Note_off_c, 0, 66, 57
1, 80781, Note_off_c, 0, 51, 47
1, 80846, Control_c, 0, 64, 90
1, 80861, Control_c, 0, 64, 69
1, 80875, Control_c, 0, 64, 57
1, 80876, Note_on_c, 0, 69, 68
1, 80884, Note_on_c, 0, 66, 66
1, 80890, Control_c, 0, 64, 57
1, 80890, Note_on_c, 0, 39, 50
1, 80893, Note_on_c, 0, 51, 49
1, 80895, Note_on_c, 0, 60, 51
1, 80905, Control_c, 0, 64, 62
1, 80920, Control_c, 0, 64, 66
1, 80935, Control_c, 0, 64, 73
1, 80949, Control_c, 0, 64, 84
1, 80964, Control_c, 0, 64, 92
1, 80979, Control_c, 0, 64, 94
1, 80991, Note_off_c, 0, 60, 36
1, 80993, Control_c, 0, 64, 97
1, 81008, Control_c, 0, 64, 98
1, 81023, Control_c, 0, 64, 98
1, 81044, Note_off_c, 0, 51, 41
1, 81080, Note_off_c, 0, 39, 26
1, 81113, Control_c, 0, 64, 98
1, 81143, Control_c, 0, 64, 97
1, 81158, Note_off_c, 0, 66, 33
1, 81158, Control_c, 0, 64, 93
1, 81172, Control_c, 0, 64, 86
1, 81174, Note_off_c, 0, 69, 28
1, 81187, Control_c, 0, 64, 77
1, 81193, Note_on_c, 0, 67, 58
1, 81202, Control_c, 0, 64, 66
1, 81206, Note_on_c, 0, 59, 46
1, 81206, Note_on_c, 0, 64, 46
1, 81214, Note_on_c, 0, 40, 47
1, 81214, Note_on_c, 0, 52, 47
1, 81217, Control_c, 0, 64, 43
1, 81232, Control_c, 0, 64, 0
1, 81320, Control_c, 0, 64, 54
1, 81335, Control_c, 0, 64, 65
1, 81350, Control_c, 0, 64, 72
1, 81358, Note_off_c, 0, 59, 60
1, 81364, Control_c, 0, 64, 79
1, 81379, Control_c, 0, 64, 85
1, 81387, Note_off_c, 0, 64, 51
1, 81394, Control_c, 0, 64, 93
1, 81409, Control_c, 0, 64, 102
1, 81424, Control_c, 0, 64, 111
1, 81439, Control_c, 0, 64, 118
1, 81451, Note_off_c, 0, 67, 46
1, 81546, Note_off_c, 0, 40, 42
1, 81563, Note_on_c, 0, 64, 58
1, 81564, Control_c, 0, 64, 101
1, 81579, Control_c, 0, 64, 74
1, 81594, Control_c, 0, 64, 54
1, 81598, Note_off_c, 0, 52, 66
1, 81609, Control_c, 0, 64, 0
1, 81653, Control_c, 0, 64, 46
1, 81668, Control_c, 0, 64, 62
1, 81683, Control_c, 0, 64, 68
1, 81697, Control_c, 0, 64, 76
1, 81712, Control_c, 0, 64, 85
1, 81727, Control_c, 0, 64, 95
1, 81742, Control_c, 0, 64, 107
1, 81753, Note_off_c, 0, 64, 58
1, 81757, Control_c, 0, 64, 127
1, 81815, Control_c, 0, 64, 83
1, 81830, Control_c, 0, 64, 62
1, 81833, Note_on_c, 0, 66, 69
1, 81846, Control_c, 0, 64, 50
1, 81861, Control_c, 0, 64, 58
1, 81876, Control_c, 0, 64, 65
1, 81891, Control_c, 0, 64, 72
1, 81906, Control_c, 0, 64, 89
1, 81920, Control_c, 0, 64, 127
1, 81970, Note_off_c, 0, 66, 65
1, 82009, Control_c, 0, 64, 99
1, 82024, Control_c, 0, 64, 75
1, 82035, Note_on_c, 0, 67, 76
1, 82038, Control_c, 0, 64, 67
1, 82068, Control_c, 0, 64, 71
1, 82083, Control_c, 0, 64, 81
1, 82098, Control_c, 0, 64, 127
1, 82195, Note_off_c, 0, 67, 58
1, 82202, Control_c, 0, 64, 87
1, 82217, Control_c, 0, 64, 64
1, 82232, Control_c, 0, 64, 50
1, 82245, Note_on_c, 0, 69, 76
1, 82246, Control_c, 0, 64, 56
1, 82261, Control_c, 0, 64, 64
1, 82276, Control_c, 0, 64, 70
1, 82291, Control_c, 0, 64, 86
1, 82306, Control_c, 0, 64, 127
1, 82445, Note_off_c, 0, 69, 58
1, 82446, Control_c, 0, 64, 112
1, 82461, Note_on_c, 0, 71, 76
1, 82461, Control_c, 0, 64, 69
1, 82476, Control_c, 0, 64, 0
1, 82535, Control_c, 0, 64, 46
1, 82550, Control_c, 0, 64, 64
1, 82565, Control_c, 0, 64, 70
1, 82580, Control_c, 0, 64, 76
1, 82594, Control_c, 0, 64, 84
1, 82609, Control_c, 0, 64, 90
1, 82622, Note_off_c, 0, 71, 57
1, 82624, Control_c, 0, 64, 97
1, 82639, Control_c, 0, 64, 103
1, 82655, Control_c, 0, 64, 108
1, 82669, Control_c, 0, 64, 111
1, 82684, Control_c, 0, 64, 112
1, 82779, Note_on_c, 0, 71, 73
1, 82803, Control_c, 0, 64, 110
1, 82806, Note_on_c, 0, 67, 53
1, 82809, Note_on_c, 0, 64, 51
1, 82817, Control_c, 0, 64, 107
1, 82827, Note_on_c, 0, 45, 40
1, 82830, Note_on_c, 0, 33, 41
1, 82832, Control_c, 0, 64, 102
1, 82847, Control_c, 0, 64, 97
1, 82861, Control_c, 0, 64, 91
1, 82876, Control_c, 0, 64, 82
1, 82891, Control_c, 0, 64, 75
1, 82906, Control_c, 0, 64, 70
1, 82921, Control_c, 0, 64, 64
1, 82935, Control_c, 0, 64, 59
1, 82950, Control_c, 0, 64, 52
1, 82965, Control_c, 0, 64, 43
1, 82980, Control_c, 0, 64, 35
1, 82995, Control_c, 0, 64, 15
1, 83010, Control_c, 0, 64, 0
1, 83483, Note_on_c, 0, 73, 64
1, 83513, Note_off_c, 0, 71, 58
1, 83552, Control_c, 0, 64, 42
1, 83564, Note_off_c, 0, 64, 56
1, 83567, Control_c, 0, 64, 58
1, 83582, Control_c, 0, 64, 65
1, 83593, Note_off_c, 0, 67, 59
1, 83597, Control_c, 0, 64, 71
1, 83611, Control_c, 0, 64, 79
1, 83626, Control_c, 0, 64, 88
1, 83641, Control_c, 0, 64, 94
1, 83648, Note_off_c, 0, 73, 60
1, 83652, Note_off_c, 0, 33, 50
1, 83655, Note_off_c, 0, 45, 42
1, 83656, Control_c, 0, 64, 98
1, 83671, Control_c, 0, 64, 102
1, 83685, Control_c, 0, 64, 104
1, 83700, Control_c, 0, 64, 106
1, 83715, Control_c, 0, 64, 107
1, 83730, Control_c, 0, 64, 108
1, 83745, Control_c, 0, 64, 109
1, 83841, Control_c, 0, 64, 107
1, 83856, Control_c, 0, 64, 94
1, 83871, Control_c, 0, 64, 76
1, 83885, Control_c, 0, 64, 59
1, 83900, Control_c, 0, 64, 0
1, 83989, Control_c, 0, 64, 53
1, 84004, Control_c, 0, 64, 63
1, 84013, Note_on_c, 0, 73, 72
1, 84014, Note_on_c, 0, 68, 70
1, 84016, Note_on_c, 0, 65, 66
1, 84018, Control_c, 0, 64, 67
1, 84031, Note_on_c, 0, 33, 52
1, 84033, Note_on_c, 0, 45, 57
1, 84033, Control_c, 0, 64, 73
1, 84048, Control_c, 0, 64, 80
1, 84053, Note_off_c, 0, 65, 62
1, 84063, Control_c, 0, 64, 88
1, 84064, Note_off_c, 0, 68, 65
1, 84066, Note_off_c, 0, 33, 63
1, 84068, Note_off_c, 0, 45, 65
1, 84077, Note_off_c, 0, 73, 62
1, 84078, Control_c, 0, 64, 95
1, 84092, Control_c, 0, 64, 99
1, 84107, Control_c, 0, 64, 101
1, 84122, Control_c, 0, 64, 103
1, 84136, Note_on_c, 0, 73, 79
1, 84137, Control_c, 0, 64, 105
1, 84140, Note_on_c, 0, 69, 77
1, 84143, Note_on_c, 0, 66, 83
1, 84162, Note_on_c, 0, 45, 54
1, 84163, Note_on_c, 0, 33, 59
1, 84181, Control_c, 0, 64, 104
1, 84196, Control_c, 0, 64, 94
1, 84211, Control_c, 0, 64, 75
1, 84226, Control_c, 0, 64, 48
1, 84241, Control_c, 0, 64, 0
1, 84789, Note_on_c, 0, 74, 79
1, 84812, Control_c, 0, 64, 32
1, 84813, Note_off_c, 0, 73, 61
1, 84827, Control_c, 0, 64, 61
1, 84841, Control_c, 0, 64, 66
1, 84856, Control_c, 0, 64, 71
1, 84871, Control_c, 0, 64, 79
1, 84882, Note_off_c, 0, 66, 63
1, 84886, Control_c, 0, 64, 89
1, 84888, Note_off_c, 0, 45, 62
1, 84892, Note_off_c, 0, 33, 56
1, 84900, Note_off_c, 0, 74, 63
1, 84901, Control_c, 0, 64, 93
1, 84912, Note_off_c, 0, 69, 61
1, 84915, Control_c, 0, 64, 98
1, 84930, Control_c, 0, 64, 100
1, 84945, Control_c, 0, 64, 102
1, 84959, Control_c, 0, 64, 103
1, 84974, Control_c, 0, 64, 104
1, 84989, Control_c, 0, 64, 104
1, 85004, Control_c, 0, 64, 105
1, 85124, Control_c, 0, 64, 104
1, 85138, Control_c, 0, 64, 96
1, 85153, Control_c, 0, 64, 79
1, 85168, Control_c, 0, 64, 57
1, 85183, Control_c, 0, 64, 0
1, 85297, Note_on_c, 0, 74, 60
1, 85309, Note_on_c, 0, 69, 63
1, 85309, Control_c, 0, 64, 53
1, 85311, Note_on_c, 0, 66, 59
1, 85320, Note_on_c, 0, 45, 50
1, 85323, Control_c, 0, 64, 63
1, 85326, Note_on_c, 0, 33, 48
1, 85338, Control_c, 0, 64, 67
1, 85347, Note_off_c, 0, 66, 64
1, 85352, Note_off_c, 0, 45, 58
1, 85353, Control_c, 0, 64, 71
1, 85354, Note_off_c, 0, 69, 61
1, 85355, Note_off_c, 0, 74, 61
1, 85358, Note_off_c, 0, 33, 57
1, 85368, Control_c, 0, 64, 75
1, 85383, Control_c, 0, 64, 79
1, 85398, Control_c, 0, 64, 81
1, 85412, Control_c, 0, 64, 84
1, 85420, Note_on_c, 0, 74, 62
1, 85426, Note_on_c, 0, 69, 50
1, 85427, Control_c, 0, 64, 87
1, 85433, Note_on_c, 0, 66, 63
1, 85442, Control_c, 0, 64, 90
1, 85443, Note_on_c, 0, 45, 43
1, 85454, Note_on_c, 0, 33, 41
1, 85456, Control_c, 0, 64, 93
1, 85471, Control_c, 0, 64, 97
1, 85486, Control_c, 0, 64, 100
1, 85501, Control_c, 0, 64, 105
1, 85516, Control_c, 0, 64, 114
1, 85530, Control_c, 0, 64, 127
1, 85556, Note_off_c, 0, 66, 65
1, 85557, Note_off_c, 0, 45, 34
1, 85559, Note_off_c, 0, 74, 59
1, 85573, Note_off_c, 0, 33, 33
1, 85577, Note_off_c, 0, 69, 38
1, 85647, Note_on_c, 0, 74, 73
1, 85656, Note_on_c, 0, 33, 50
1, 85657, Note_on_c, 0, 67, 63
1, 85657, Note_on_c, 0, 71, 66
1, 85664, Note_on_c, 0, 45, 57
1, 85739, Note_off_c, 0, 45, 50
1, 85741, Note_off_c, 0, 71, 57
1, 85762, Note_off_c, 0, 74, 60
1, 85791, Note_off_c, 0, 67, 37
1, 85797, Note_off_c, 0, 33, 37
1, 85843, Note_on_c, 0, 74, 77
1, 85846, Note_on_c, 0, 67, 72
1, 85847, Note_on_c, 0, 33, 47
1, 85853, Note_on_c, 0, 45, 60
1, 85853, Note_on_c, 0, 71, 74
1, 85857, Control_c, 0, 64, 100
1, 85872, Control_c, 0, 64, 63
1, 85886, Control_c, 0, 64, 0
1, 85931, Control_c, 0, 64, 56
1, 85946, Control_c, 0, 64, 69
1, 85955, Note_off_c, 0, 71, 54
1, 85961, Control_c, 0, 64, 88
1, 85961, Note_off_c, 0, 45, 52
1, 85966, Note_off_c, 0, 74, 61
1, 85976, Control_c, 0, 64, 127
1, 85976, Note_off_c, 0, 67, 48
1, 85990, Note_off_c, 0, 33, 0
1, 86031, Poly_aftertouch_c, 0, 33, 0
1, 86049, Note_on_c, 0, 33, 43
1, 86062, Note_on_c, 0, 45, 58
1, 86062, Note_on_c, 0, 74, 86
1, 86063, Note_on_c, 0, 67, 74
1, 86066, Note_on_c, 0, 71, 73
1, 86127, Note_off_c, 0, 71, 61
1, 86147, Note_off_c, 0, 67, 53
1, 86172, Note_off_c, 0, 74, 61
1, 86198, Note_off_c, 0, 45, 37
1, 86210, Note_off_c, 0, 33, 46
1, 86271, Note_on_c, 0, 76, 91
1, 86277, Note_on_c, 0, 67, 71
1, 86280, Note_on_c, 0, 45, 55
1, 86280, Note_on_c, 0, 73, 77
1, 86281, Note_on_c, 0, 33, 54
1, 86358, Note_off_c, 0, 45, 55
1, 86366, Note_off_c, 0, 33, 52
1, 86391, Note_off_c, 0, 76, 61
1, 86394, Note_off_c, 0, 67, 51
1, 86395, Note_off_c, 0, 73, 58
1, 86486, Note_on_c, 0, 76, 87
1, 86488, Note_on_c, 0, 67, 84
1, 86490, Note_on_c, 0, 45, 65
1, 86490, Note_on_c, 0, 73, 82
1, 86498, Note_on_c, 0, 33, 63
1, 86567, Note_off_c, 0, 67, 56
1, 86590, Note_off_c, 0, 45, 54
1, 86602, Note_off_c, 0, 76, 63
1, 86618, Note_off_c, 0, 73, 56
1, 86631, Note_off_c, 0, 33, 35
1, 86739, Control_c, 0, 64, 95
1, 86745, Note_on_c, 0, 78, 85
1, 86749, Note_on_c, 0, 74, 70
1, 86751, Note_on_c, 0, 45, 71
1, 86751, Note_on_c, 0, 66, 73
1, 86754, Note_on_c, 0, 38, 71
1, 86754, Control_c, 0, 64, 63
1, 86769, Control_c, 0, 64, 0
1, 86847, Note_off_c, 0, 66, 66
1, 86851, Control_c, 0, 64, 61
1, 86866, Control_c, 0, 64, 77
1, 86870, Note_off_c, 0, 74, 63
1, 86881, Control_c, 0, 64, 127
1, 86921, Note_off_c, 0, 78, 63
1, 86980, Note_off_c, 0, 38, 50
1, 86985, Note_off_c, 0, 45, 58
1, 87025, Note_on_c, 0, 81, 84
1, 87128, Note_off_c, 0, 81, 60
1, 87232, Note_on_c, 0, 81, 84
1, 87355, Note_off_c, 0, 81, 56
1, 87459, Control_c, 0, 64, 70
1, 87462, Note_on_c, 0, 81, 78
1, 87474, Control_c, 0, 64, 0
1, 87533, Control_c, 0, 64, 59
1, 87556, Control_c, 0, 64, 72
1, 87571, Control_c, 0, 64, 102
1, 87586, Control_c, 0, 64, 127
1, 87622, Note_off_c, 0, 81, 56
1, 87688, Note_on_c, 0, 81, 62
1, 87788, Note_off_c, 0, 81, 59
1, 87899, Note_on_c, 0, 81, 72
1, 87927, Note_off_c, 0, 81, 61
1, 88089, Control_c, 0, 67, 9
1, 88104, Control_c, 0, 67, 11
1, 88119, Control_c, 0, 67, 12
1, 88133, Control_c, 0, 67, 14
1, 88148, Control_c, 0, 67, 16
1, 88159, Note_on_c, 0, 74, 62
1, 88163, Control_c, 0, 64, 98
1, 88163, Control_c, 0, 67, 17
1, 88167, Note_on_c, 0, 69, 52
1, 88176, Note_on_c, 0, 66, 49
1, 88177, Control_c, 0, 64, 68
1, 88177, Control_c, 0, 67, 17
1, 88179, Note_on_c, 0, 45, 47
1, 88190, Note_on_c, 0, 33, 38
1, 88192, Control_c, 0, 64, 41
1, 88192, Control_c, 0, 67, 18
1, 88207, Control_c, 0, 64, 0
1, 88207, Control_c, 0, 67, 19
1, 88223, Control_c, 0, 64, 42
1, 88238, Control_c, 0, 64, 59
1, 88253, Control_c, 0, 64, 65
1, 88268, Control_c, 0, 64, 71
1, 88282, Control_c, 0, 64, 81
1, 88304, Note_off_c, 0, 45, 51
1, 88304, Control_c, 0, 64, 90
1, 88304, Control_c, 0, 67, 18
1, 88319, Control_c, 0, 64, 97
1, 88319, Control_c, 0, 67, 18
1, 88320, Note_off_c, 0, 69, 57
1, 88326, Note_off_c, 0, 74, 56
1, 88328, Note_off_c, 0, 66, 65
1, 88334, Note_off_c, 0, 33, 37
1, 88334, Control_c, 0, 64, 100
1, 88349, Control_c, 0, 64, 100
1, 88349, Control_c, 0, 67, 17
1, 88364, Control_c, 0, 64, 93
1, 88364, Control_c, 0, 67, 17
1, 88379, Control_c, 0, 64, 81
1, 88393, Control_c, 0, 64, 76
1, 88393, Control_c, 0, 67, 16
1, 88399, Note_on_c, 0, 74, 61
1, 88408, Control_c, 0, 64, 75
1, 88408, Control_c, 0, 67, 16
1, 88408, Note_on_c, 0, 71, 62
1, 88410, Note_on_c, 0, 45, 43
1, 88414, Note_on_c, 0, 67, 60
1, 88416, Note_on_c, 0, 33, 37
1, 88438, Control_c, 0, 64, 77
1, 88453, Control_c, 0, 64, 82
1, 88468, Control_c, 0, 64, 89
1, 88482, Control_c, 0, 64, 92
1, 88497, Control_c, 0, 64, 94
1, 88512, Control_c, 0, 64, 95
1, 88516, Note_off_c, 0, 71, 54
1, 88522, Note_off_c, 0, 74, 59
1, 88526, Note_off_c, 0, 45, 35
1, 88527, Note_off_c, 0, 33, 33
1, 88527, Control_c, 0, 64, 95
1, 88527, Control_c, 0, 67, 15
1, 88541, Note_off_c, 0, 67, 44
1, 88542, Control_c, 0, 67, 15
1, 88607, Note_on_c, 0, 74, 67
1, 88611, Note_on_c, 0, 45, 46
1, 88612, Note_on_c, 0, 33, 40
1, 88614, Note_on_c, 0, 71, 62
1, 88617, Note_on_c, 0, 67, 55
1, 88701, Note_off_c, 0, 71, 56
1, 88704, Control_c, 0, 67, 15
1, 88717, Note_off_c, 0, 45, 37
1, 88719, Control_c, 0, 64, 96
1, 88724, Note_off_c, 0, 74, 56
1, 88726, Note_off_c, 0, 33, 34
1, 88734, Control_c, 0, 64, 97
1, 88734, Control_c, 0, 67, 16
1, 88749, Control_c, 0, 64, 99
1, 88761, Note_off_c, 0, 67, 35
1, 88763, Control_c, 0, 64, 102
1, 88778, Control_c, 0, 64, 104
1, 88793, Control_c, 0, 64, 103
1, 88808, Control_c, 0, 64, 88
1, 88823, Control_c, 0, 64, 71
1, 88836, Note_on_c, 0, 71, 57
1, 88836, Note_on_c, 0, 74, 70
1, 88838, Control_c, 0, 64, 59
1, 88839, Note_on_c, 0, 45, 45
1, 88843, Note_on_c, 0, 67, 61
1, 88844, Note_on_c, 0, 33, 37
1, 88852, Control_c, 0, 64, 41
1, 88867, Control_c, 0, 64, 45
1, 88867, Control_c, 0, 67, 15
1, 88882, Control_c, 0, 64, 56
1, 88897, Control_c, 0, 64, 63
1, 88897, Note_off_c, 0, 71, 62
1, 88912, Control_c, 0, 64, 70
1, 88926, Control_c, 0, 64, 79
1, 88941, Control_c, 0, 64, 86
1, 88951, Note_off_c, 0, 67, 37
1, 88955, Note_off_c, 0, 45, 37
1, 88956, Control_c, 0, 64, 89
1, 88964, Note_off_c, 0, 74, 63
1, 88971, Control_c, 0, 64, 90
1, 88971, Control_c, 0, 67, 15
1, 88979, Note_off_c, 0, 33, 43
1, 89031, Control_c, 0, 67, 14
1, 89079, Note_on_c, 0, 76, 75
1, 89088, Note_on_c, 0, 67, 58
1, 89092, Note_on_c, 0, 73, 60
1, 89093, Note_on_c, 0, 33, 39
1, 89095, Note_on_c, 0, 45, 42
1, 89186, Note_off_c, 0, 45, 38
1, 89192, Note_off_c, 0, 33, 36
1, 89193, Note_off_c, 0, 76, 58
1, 89201, Control_c, 0, 64, 91
1, 89202, Note_off_c, 0, 67, 37
1, 89211, Note_off_c, 0, 73, 38
1, 89231, Control_c, 0, 64, 91
1, 89231, Control_c, 0, 67, 15
1, 89246, Control_c, 0, 64, 92
1, 89276, Control_c, 0, 64, 90
1, 89291, Control_c, 0, 64, 76
1, 89291, Control_c, 0, 67, 14
1, 89298, Note_on_c, 0, 76, 72
1, 89305, Control_c, 0, 64, 66
1, 89305, Control_c, 0, 67, 14
1, 89313, Note_on_c, 0, 67, 49
1, 89317, Note_on_c, 0, 33, 41
1, 89317, Note_on_c, 0, 45, 41
1, 89319, Note_on_c, 0, 73, 58
1, 89320, Control_c, 0, 64, 62
1, 89335, Control_c, 0, 64, 63
1, 89350, Control_c, 0, 64, 66
1, 89365, Control_c, 0, 64, 70
1, 89375, Note_off_c, 0, 67, 60
1, 89379, Control_c, 0, 64, 80
1, 89379, Control_c, 0, 67, 14
1, 89394, Control_c, 0, 64, 89
1, 89394, Control_c, 0, 67, 15
1, 89396, Note_off_c, 0, 45, 51
1, 89403, Note_off_c, 0, 76, 62
1, 89409, Control_c, 0, 64, 91
1, 89453, Note_off_c, 0, 73, 35
1, 89455, Note_off_c, 0, 33, 34
1, 89468, Control_c, 0, 67, 14
1, 89512, Control_c, 0, 67, 13
1, 89542, Control_c, 0, 64, 85
1, 89556, Control_c, 0, 64, 68
1, 89556, Control_c, 0, 67, 12
1, 89571, Control_c, 0, 64, 0
1, 89571, Control_c, 0, 67, 11
1, 89572, Note_on_c, 0, 78, 68
1, 89574, Note_on_c, 0, 74, 56
1, 89585, Note_on_c, 0, 66, 56
1, 89586, Control_c, 0, 67, 10
1, 89597, Note_on_c, 0, 38, 46
1, 89601, Control_c, 0, 67, 9
1, 89604, Note_on_c, 0, 45, 43
1, 89616, Control_c, 0, 67, 8
1, 89630, Control_c, 0, 67, 8
1, 89645, Control_c, 0, 64, 58
1, 89660, Control_c, 0, 64, 71
1, 89669, Note_off_c, 0, 66, 65
1, 89675, Control_c, 0, 64, 81
1, 89675, Control_c, 0, 67, 0
1, 89677, Note_off_c, 0, 74, 61
1, 89690, Control_c, 0, 64, 91
1, 89705, Control_c, 0, 64, 97
1, 89720, Control_c, 0, 64, 112
1, 89735, Control_c, 0, 64, 127
1, 89744, Note_off_c, 0, 78, 62
1, 89774, Note_off_c, 0, 45, 51
1, 89834, Note_off_c, 0, 38, 40
1, 89879, Note_on_c, 0, 81, 74
1, 89987, Note_off_c, 0, 81, 57
1, 90101, Note_on_c, 0, 81, 71
1, 90210, Note_off_c, 0, 81, 52
1, 90306, Control_c, 0, 64, 96
1, 90320, Control_c, 0, 64, 65
1, 90335, Control_c, 0, 64, 0
1, 90337, Note_on_c, 0, 81, 61
1, 90379, Control_c, 0, 64, 40
1, 90394, Control_c, 0, 64, 62
1, 90409, Control_c, 0, 64, 73
1, 90424, Control_c, 0, 64, 89
1, 90439, Control_c, 0, 64, 121
1, 90453, Control_c, 0, 64, 127
1, 90507, Note_off_c, 0, 81, 37
1, 90575, Note_on_c, 0, 81, 45
1, 90673, Note_off_c, 0, 81, 56
1, 90744, Control_c, 0, 67, 8
1, 90758, Control_c, 0, 67, 11
1, 90773, Control_c, 0, 67, 15
1, 90788, Control_c, 0, 67, 19
1, 90792, Note_on_c, 0, 81, 66
1, 90802, Control_c, 0, 67, 22
1, 90817, Control_c, 0, 67, 25
1, 90830, Note_off_c, 0, 81, 55
1, 90832, Control_c, 0, 67, 27
1, 90847, Control_c, 0, 67, 28
1, 90862, Control_c, 0, 67, 29
1, 90877, Control_c, 0, 67, 29
1, 90891, Control_c, 0, 67, 30
1, 90951, Control_c, 0, 67, 30
1, 90966, Control_c, 0, 67, 31
1, 90981, Control_c, 0, 67, 32
1, 90995, Control_c, 0, 67, 34
1, 91010, Control_c, 0, 67, 35
1, 91025, Control_c, 0, 67, 36
1, 91040, Control_c, 0, 67, 37
1, 91055, Control_c, 0, 67, 39
1, 91069, Control_c, 0, 64, 94
1, 91069, Control_c, 0, 67, 42
1, 91075, Note_on_c, 0, 74, 56
1, 91084, Control_c, 0, 64, 68
1, 91084, Control_c, 0, 67, 46
1, 91087, Note_on_c, 0, 69, 45
1, 91090, Note_on_c, 0, 66, 45
1, 91093, Note_on_c, 0, 45, 35
1, 91099, Control_c, 0, 64, 28
1, 91099, Control_c, 0, 67, 49
1, 91107, Note_on_c, 0, 33, 32
1, 91114, Control_c, 0, 64, 0
1, 91114, Control_c, 0, 67, 52
1, 91128, Control_c, 0, 64, 18
1, 91128, Control_c, 0, 67, 55
1, 91143, Control_c, 0, 64, 51
1, 91143, Control_c, 0, 67, 58
1, 91158, Control_c, 0, 64, 62
1, 91158, Control_c, 0, 67, 60
1, 91173, Control_c, 0, 64, 69
1, 91173, Control_c, 0, 67, 63
1, 91188, Control_c, 0, 64, 77
1, 91188, Control_c, 0, 67, 67
1, 91202, Control_c, 0, 64, 86
1, 91202, Control_c, 0, 67, 72
1, 91217, Control_c, 0, 64, 90
1, 91217, Control_c, 0, 67, 75
1, 91232, Control_c, 0, 64, 95
1, 91232, Control_c, 0, 67, 78
1, 91243, Note_off_c, 0, 74, 56
1, 91245, Note_off_c, 0, 33, 41
1, 91247, Control_c, 0, 64, 101
1, 91247, Control_c, 0, 67, 80
1, 91251, Note_off_c, 0, 45, 41
1, 91251, Note_off_c, 0, 69, 56
1, 91261, Note_off_c, 0, 66, 63
1, 91262, Control_c, 0, 64, 113
1, 91262, Control_c, 0, 67, 82
1, 91276, Control_c, 0, 64, 127
1, 91276, Control_c, 0, 67, 85
1, 91299, Control_c, 0, 67, 89
1, 91313, Control_c, 0, 67, 94
1, 91327, Control_c, 0, 64, 93
1, 91327, Control_c, 0, 67, 99
1, 91342, Control_c, 0, 64, 74
1, 91342, Control_c, 0, 67, 105
1, 91357, Control_c, 0, 64, 64
1, 91357, Control_c, 0, 67, 111
1, 91359, Note_on_c, 0, 74, 59
1, 91364, Note_on_c, 0, 71, 52
1, 91365, Note_on_c, 0, 67, 47
1, 91370, Note_on_c, 0, 45, 32
1, 91372, Control_c, 0, 64, 61
1, 91372, Control_c, 0, 67, 116
1, 91377, Note_on_c, 0, 33, 34
1, 91387, Control_c, 0, 64, 64
1, 91387, Control_c, 0, 67, 122
1, 91401, Control_c, 0, 64, 68
1, 91401, Control_c, 0, 67, 126
1, 91416, Control_c, 0, 64, 75
1, 91416, Control_c, 0, 67, 127
1, 91432, Control_c, 0, 64, 85
1, 91447, Control_c, 0, 64, 91
1, 91458, Note_off_c, 0, 71, 54
1, 91462, Control_c, 0, 64, 94
1, 91473, Note_off_c, 0, 74, 58
1, 91477, Control_c, 0, 64, 95
1, 91483, Note_off_c, 0, 33, 33
1, 91492, Control_c, 0, 64, 98
1, 91498, Note_off_c, 0, 45, 35
1, 91499, Note_off_c, 0, 67, 37
1, 91506, Control_c, 0, 64, 99
1, 91521, Control_c, 0, 64, 99
1, 91551, Control_c, 0, 64, 96
1, 91566, Control_c, 0, 64, 83
1, 91571, Note_on_c, 0, 45, 29
1, 91576, Note_on_c, 0, 74, 56
1, 91580, Note_on_c, 0, 71, 52
1, 91580, Control_c, 0, 64, 70
1, 91584, Note_on_c, 0, 67, 39
1, 91585, Note_on_c, 0, 33, 30
1, 91595, Control_c, 0, 64, 65
1, 91625, Control_c, 0, 64, 67
1, 91640, Control_c, 0, 64, 72
1, 91655, Control_c, 0, 64, 81
1, 91669, Note_off_c, 0, 71, 54
1, 91669, Control_c, 0, 64, 91
1, 91684, Control_c, 0, 64, 95
1, 91693, Note_off_c, 0, 74, 54
1, 91696, Note_off_c, 0, 45, 37
1, 91699, Note_off_c, 0, 33, 35
1, 91699, Control_c, 0, 64, 97
1, 91714, Control_c, 0, 64, 99
1, 91729, Control_c, 0, 64, 101
1, 91737, Note_off_c, 0, 67, 40
1, 91744, Control_c, 0, 64, 104
1, 91758, Control_c, 0, 64, 106
1, 91773, Control_c, 0, 64, 106
1, 91788, Control_c, 0, 64, 99
1, 91803, Control_c, 0, 64, 83
1, 91817, Control_c, 0, 64, 71
1, 91831, Note_on_c, 0, 71, 45
1, 91831, Note_on_c, 0, 74, 48
1, 91832, Note_on_c, 0, 67, 44
1, 91832, Control_c, 0, 64, 65
1, 91833, Note_on_c, 0, 45, 32
1, 91847, Control_c, 0, 64, 65
1, 91850, Note_on_c, 0, 33, 28
1, 91862, Control_c, 0, 64, 67
1, 91877, Control_c, 0, 64, 71
1, 91891, Note_off_c, 0, 71, 61
1, 91892, Control_c, 0, 64, 80
1, 91906, Control_c, 0, 64, 89
1, 91921, Control_c, 0, 64, 91
1, 91929, Note_off_c, 0, 67, 37
1, 91936, Control_c, 0, 64, 92
1, 91947, Note_off_c, 0, 74, 55
1, 91948, Note_off_c, 0, 33, 34
1, 91952, Note_off_c, 0, 45, 36
1, 91965, Control_c, 0, 64, 92
1, 92105, Control_c, 0, 64, 88
1, 92119, Note_on_c, 0, 76, 54
1, 92120, Note_on_c, 0, 45, 30
1, 92120, Control_c, 0, 64, 75
1, 92135, Control_c, 0, 64, 64
1, 92137, Note_on_c, 0, 67, 43
1, 92137, Note_on_c, 0, 33, 27
1, 92137, Note_on_c, 0, 73, 47
1, 92149, Control_c, 0, 64, 48
1, 92164, Control_c, 0, 64, 47
1, 92179, Control_c, 0, 64, 57
1, 92194, Control_c, 0, 64, 63
1, 92209, Control_c, 0, 64, 68
1, 92225, Control_c, 0, 64, 77
1, 92240, Control_c, 0, 64, 86
1, 92245, Note_off_c, 0, 45, 37
1, 92246, Note_off_c, 0, 33, 36
1, 92247, Note_off_c, 0, 73, 37
1, 92251, Note_off_c, 0, 67, 32
1, 92254, Control_c, 0, 64, 88
1, 92263, Note_off_c, 0, 76, 36
1, 92269, Control_c, 0, 64, 89
1, 92284, Control_c, 0, 64, 90
1, 92299, Control_c, 0, 64, 91
1, 92314, Control_c, 0, 64, 91
1, 92447, Control_c, 0, 64, 85
1, 92447, Note_on_c, 0, 76, 49
1, 92461, Note_on_c, 0, 73, 44
1, 92462, Control_c, 0, 64, 71
1, 92466, Note_on_c, 0, 45, 28
1, 92471, Note_on_c, 0, 33, 29
1, 92471, Note_on_c, 0, 67, 32
1, 92477, Control_c, 0, 64, 58
1, 92492, Control_c, 0, 64, 0
1, 92521, Control_c, 0, 64, 39
1, 92536, Control_c, 0, 64, 58
1, 92541, Note_off_c, 0, 67, 53
1, 92551, Control_c, 0, 64, 66
1, 92566, Control_c, 0, 64, 73
1, 92579, Note_off_c, 0, 76, 54
1, 92580, Control_c, 0, 64, 81
1, 92588, Note_off_c, 0, 33, 35
1, 92595, Control_c, 0, 64, 83
1, 92610, Control_c, 0, 64, 85
1, 92615, Note_off_c, 0, 45, 37
1, 92615, Note_off_c, 0, 73, 28
1, 92625, Control_c, 0, 64, 87
1, 92640, Control_c, 0, 64, 89
1, 92654, Control_c, 0, 64, 89
1, 92684, Control_c, 0, 64, 90
1, 92972, Control_c, 0, 64, 89
1, 92987, Control_c, 0, 64, 87
1, 93002, Control_c, 0, 64, 85
1, 93018, Control_c, 0, 64, 81
1, 93033, Control_c, 0, 64, 76
1, 93035, Note_on_c, 0, 78, 42
1, 93040, Note_on_c, 0, 74, 33
1, 93048, Control_c, 0, 64, 70
1, 93059, Note_on_c, 0, 45, 27
1, 93059, Note_on_c, 0, 66, 28
1, 93063, Control_c, 0, 64, 63
1, 93070, Note_on_c, 0, 38, 23
1, 93077, Control_c, 0, 64, 29
1, 93092, Control_c, 0, 64, 0
1, 93166, Control_c, 0, 64, 41
1, 93181, Control_c, 0, 64, 62
1, 93196, Control_c, 0, 64, 70
1, 93211, Control_c, 0, 64, 80
1, 93211, Note_off_c, 0, 74, 61
1, 93216, Note_off_c, 0, 78, 49
1, 93225, Control_c, 0, 64, 84
1, 93240, Control_c, 0, 64, 87
1, 93255, Control_c, 0, 64, 91
1, 93270, Control_c, 0, 64, 95
1, 93285, Control_c, 0, 64, 99
1, 93297, Note_off_c, 0, 66, 43
1, 93300, Control_c, 0, 64, 102
1, 93315, Control_c, 0, 64, 105
1, 93326, Note_off_c, 0, 45, 41
1, 93330, Control_c, 0, 64, 106
1, 93344, Control_c, 0, 64, 107
1, 93359, Control_c, 0, 64, 108
1, 93380, Note_off_c, 0, 38, 37
1, 93389, Control_c, 0, 64, 109
1, 93418, Control_c, 0, 64, 110
1, 93678, Control_c, 0, 64, 109
1, 93708, Control_c, 0, 64, 107
1, 93722, Control_c, 0, 64, 105
1, 93737, Control_c, 0, 64, 101
1, 93752, Control_c, 0, 64, 97
1, 93767, Control_c, 0, 64, 92
1, 93782, Control_c, 0, 64, 86
1, 93796, Control_c, 0, 64, 79
1, 93804, Note_on_c, 0, 74, 38
1, 93811, Control_c, 0, 64, 71
1, 93821, Note_on_c, 0, 62, 34
1, 93827, Control_c, 0, 64, 62
1, 93842, Control_c, 0, 64, 0
1, 93931, Control_c, 0, 64, 55
1, 93945, Control_c, 0, 64, 65
1, 93960, Control_c, 0, 64, 72
1, 93972, Note_off_c, 0, 74, 37
1, 93974, Note_off_c, 0, 62, 38
1, 93975, Control_c, 0, 64, 79
1, 93990, Control_c, 0, 64, 82
1, 94005, Control_c, 0, 64, 85
1, 94019, Control_c, 0, 64, 88
1, 94034, Control_c, 0, 64, 90
1, 94049, Control_c, 0, 64, 91
1, 94064, Control_c, 0, 64, 92
1, 94079, Control_c, 0, 64, 92
1, 94093, Control_c, 0, 64, 93
1, 94108, Control_c, 0, 64, 94
1, 94108, Control_c, 0, 67, 126
1, 94118, Note_on_c, 0, 74, 40
1, 94123, Control_c, 0, 64, 94
1, 94123, Control_c, 0, 67, 125
1, 94134, Note_on_c, 0, 62, 31
1, 94138, Control_c, 0, 64, 95
1, 94138, Control_c, 0, 67, 124
1, 94153, Control_c, 0, 64, 95
1, 94153, Control_c, 0, 67, 123
1, 94167, Control_c, 0, 64, 97
1, 94167, Control_c, 0, 67, 121
1, 94182, Control_c, 0, 64, 97
1, 94182, Control_c, 0, 67, 119
1, 94197, Control_c, 0, 64, 98
1, 94197, Control_c, 0, 67, 117
1, 94212, Control_c, 0, 64, 99
1, 94212, Control_c, 0, 67, 116
1, 94227, Control_c, 0, 64, 100
1, 94227, Control_c, 0, 67, 115
1, 94242, Control_c, 0, 64, 101
1, 94242, Control_c, 0, 67, 115
1, 94254, Note_off_c, 0, 74, 34
1, 94257, Control_c, 0, 64, 102
1, 94257, Control_c, 0, 67, 114
1, 94257, Note_off_c, 0, 62, 32
1, 94272, Control_c, 0, 64, 102
1, 94272, Control_c, 0, 67, 113
1, 94287, Control_c, 0, 64, 103
1, 94287, Control_c, 0, 67, 112
1, 94308, Control_c, 0, 67, 110
1, 94323, Control_c, 0, 67, 109
1, 94338, Control_c, 0, 67, 108
1, 94352, Control_c, 0, 67, 107
1, 94367, Control_c, 0, 67, 105
1, 94376, Note_on_c, 0, 74, 50
1, 94382, Control_c, 0, 67, 104
1, 94387, Note_on_c, 0, 62, 37
1, 94397, Control_c, 0, 67, 102
1, 94412, Control_c, 0, 67, 101
1, 94427, Control_c, 0, 67, 100
1, 94442, Control_c, 0, 67, 99
1, 94457, Control_c, 0, 67, 98
1, 94468, Note_off_c, 0, 62, 36
1, 94471, Control_c, 0, 67, 97
1, 94479, Note_off_c, 0, 74, 38
1, 94486, Control_c, 0, 67, 96
1, 94501, Control_c, 0, 67, 95
1, 94516, Control_c, 0, 67, 94
1, 94531, Control_c, 0, 67, 93
1, 94545, Control_c, 0, 67, 92
1, 94560, Control_c, 0, 67, 91
1, 94575, Control_c, 0, 67, 89
1, 94590, Control_c, 0, 67, 88
1, 94603, Note_on_c, 0, 74, 52
1, 94605, Control_c, 0, 67, 86
1, 94618, Note_on_c, 0, 62, 40
1, 94621, Control_c, 0, 67, 83
1, 94635, Control_c, 0, 67, 81
1, 94650, Control_c, 0, 67, 79
1, 94665, Control_c, 0, 67, 77
1, 94680, Note_off_c, 0, 62, 40
1, 94680, Control_c, 0, 67, 75
1, 94683, Note_off_c, 0, 74, 48
1, 94695, Control_c, 0, 67, 73
1, 94710, Control_c, 0, 67, 71
1, 94724, Control_c, 0, 67, 70
1, 94739, Control_c, 0, 67, 69
1, 94754, Control_c, 0, 67, 68
1, 94828, Control_c, 0, 64, 99
1, 94842, Control_c, 0, 64, 83
1, 94857, Control_c, 0, 64, 67
1, 94857, Control_c, 0, 67, 69
1, 94864, Note_on_c, 0, 74, 54
1, 94872, Control_c, 0, 64, 51
1, 94880, Note_on_c, 0, 54, 37
1, 94887, Note_on_c, 0, 57, 38
1, 94887, Control_c, 0, 64, 19
1, 94887, Control_c, 0, 67, 69
1, 94889, Note_on_c, 0, 62, 31
1, 94902, Control_c, 0, 64, 36
1, 94902, Control_c, 0, 67, 70
1, 94916, Control_c, 0, 64, 52
1, 94916, Control_c, 0, 67, 70
1, 94931, Control_c, 0, 64, 61
1, 94931, Control_c, 0, 67, 71
1, 94946, Control_c, 0, 64, 65
1, 94946, Control_c, 0, 67, 72
1, 94960, Control_c, 0, 64, 70
1, 94960, Control_c, 0, 67, 73
1, 94975, Note_off_c, 0, 62, 41
1, 94975, Control_c, 0, 64, 74
1, 94975, Control_c, 0, 67, 74
1, 94990, Control_c, 0, 64, 77
1, 94990, Control_c, 0, 67, 75
1, 95005, Control_c, 0, 64, 79
1, 95005, Control_c, 0, 67, 76
1, 95020, Control_c, 0, 64, 80
1, 95020, Control_c, 0, 67, 77
1, 95042, Control_c, 0, 64, 81
1, 95057, Control_c, 0, 67, 78
1, 95063, Note_off_c, 0, 57, 29
1, 95065, Note_off_c, 0, 54, 39
1, 95072, Control_c, 0, 67, 79
1, 95087, Control_c, 0, 67, 80
1, 95102, Control_c, 0, 67, 82
1, 95116, Control_c, 0, 67, 85
1, 95131, Control_c, 0, 67, 88
1, 95146, Control_c, 0, 67, 91
1, 95161, Control_c, 0, 67, 93
1, 95175, Control_c, 0, 67, 96
1, 95190, Control_c, 0, 64, 81
1, 95190, Control_c, 0, 67, 98
1, 95205, Control_c, 0, 64, 80
1, 95205, Control_c, 0, 67, 101
1, 95220, Control_c, 0, 64, 77
1, 95220, Control_c, 0, 67, 103
1, 95235, Control_c, 0, 64, 74
1, 95235, Control_c, 0, 67, 106
1, 95249, Control_c, 0, 64, 72
1, 95249, Control_c, 0, 67, 108
1, 95264, Control_c, 0, 64, 69
1, 95264, Control_c, 0, 67, 110
1, 95276, Note_on_c, 0, 73, 55
1, 95279, Control_c, 0, 64, 65
1, 95279, Control_c, 0, 67, 112
1, 95294, Control_c, 0, 64, 55
1, 95294, Control_c, 0, 67, 114
1, 95306, Note_on_c, 0, 61, 34
1, 95309, Control_c, 0, 64, 0
1, 95309, Control_c, 0, 67, 117
1, 95310, Note_on_c, 0, 45, 34
1, 95324, Control_c, 0, 67, 122
1, 95325, Note_off_c, 0, 74, 63
1, 95339, Control_c, 0, 67, 127
1, 95383, Control_c, 0, 64, 29
1, 95398, Control_c, 0, 64, 60
1, 95413, Control_c, 0, 64, 69
1, 95422, Note_off_c, 0, 45, 52
1, 95428, Control_c, 0, 64, 73
1, 95443, Control_c, 0, 64, 76
1, 95458, Control_c, 0, 64, 76
1, 95473, Control_c, 0, 64, 77
1, 95640, Note_on_c, 0, 55, 40
1, 95640, Note_on_c, 0, 52, 45
1, 95672, Note_off_c, 0, 55, 53
1, 95680, Note_off_c, 0, 52, 48
1, 95680, Control_c, 0, 64, 76
1, 95724, Control_c, 0, 64, 76
1, 95739, Control_c, 0, 64, 74
1, 95741, Note_on_c, 0, 52, 44
1, 95744, Note_on_c, 0, 55, 49
1, 95754, Control_c, 0, 64, 73
1, 95769, Control_c, 0, 64, 71
1, 95772, Note_off_c, 0, 61, 61
1, 95781, Note_off_c, 0, 73, 62
1, 95791, Control_c, 0, 64, 69
1, 95805, Control_c, 0, 64, 67
1, 95812, Note_off_c, 0, 55, 48
1, 95820, Control_c, 0, 64, 65
1, 95835, Control_c, 0, 64, 64
1, 95850, Control_c, 0, 64, 61
1, 95852, Note_off_c, 0, 52, 38
1, 95864, Control_c, 0, 64, 58
1, 95879, Control_c, 0, 64, 52
1, 95894, Control_c, 0, 64, 44
1, 95909, Control_c, 0, 64, 26
1, 95923, Control_c, 0, 64, 0
1, 95990, Note_on_c, 0, 71, 58
1, 96003, Note_on_c, 0, 59, 47
1, 96010, Note_on_c, 0, 45, 40
1, 96042, Control_c, 0, 64, 34
1, 96057, Control_c, 0, 64, 61
1, 96072, Control_c, 0, 64, 67
1, 96087, Control_c, 0, 64, 69
1, 96087, Note_off_c, 0, 45, 61
1, 96102, Control_c, 0, 64, 70
1, 96116, Control_c, 0, 64, 72
1, 96131, Control_c, 0, 64, 73
1, 96146, Control_c, 0, 64, 73
1, 96314, Note_on_c, 0, 50, 47
1, 96317, Note_on_c, 0, 54, 38
1, 96347, Note_off_c, 0, 54, 51
1, 96353, Note_off_c, 0, 50, 57
1, 96384, Control_c, 0, 64, 73
1, 96413, Control_c, 0, 64, 72
1, 96416, Note_on_c, 0, 50, 35
1, 96428, Control_c, 0, 64, 71
1, 96432, Note_on_c, 0, 54, 41
1, 96443, Control_c, 0, 64, 70
1, 96458, Control_c, 0, 64, 69
1, 96473, Control_c, 0, 64, 67
1, 96475, Note_off_c, 0, 54, 45
1, 96478, Note_off_c, 0, 71, 50
1, 96487, Note_off_c, 0, 50, 51
1, 96487, Control_c, 0, 64, 66
1, 96490, Note_off_c, 0, 59, 59
1, 96502, Control_c, 0, 64, 65
1, 96517, Control_c, 0, 64, 63
1, 96532, Control_c, 0, 64, 61
1, 96555, Control_c, 0, 64, 53
1, 96570, Control_c, 0, 64, 0
1, 96662, Note_on_c, 0, 69, 50
1, 96674, Control_c, 0, 64, 46
1, 96680, Note_on_c, 0, 57, 40
1, 96684, Note_on_c, 0, 45, 44
1, 96688, Control_c, 0, 64, 65
1, 96703, Control_c, 0, 64, 72
1, 96712, Note_off_c, 0, 57, 57
1, 96718, Control_c, 0, 64, 77
1, 96728, Note_off_c, 0, 69, 63
1, 96733, Control_c, 0, 64, 79
1, 96746, Note_off_c, 0, 45, 57
1, 96747, Control_c, 0, 64, 81
1, 96762, Control_c, 0, 64, 82
1, 96866, Control_c, 0, 64, 81
1, 96881, Control_c, 0, 64, 75
1, 96889, Note_on_c, 0, 73, 63
1, 96895, Control_c, 0, 64, 67
1, 96902, Note_on_c, 0, 61, 49
1, 96907, Note_on_c, 0, 49, 44
1, 96910, Control_c, 0, 64, 56
1, 96911, Note_on_c, 0, 45, 37
1, 96915, Note_on_c, 0, 52, 39
1, 96925, Control_c, 0, 64, 0
1, 96932, Note_off_c, 0, 61, 64
1, 96940, Note_off_c, 0, 73, 52
1, 96946, Note_off_c, 0, 52, 55
1, 96949, Note_off_c, 0, 49, 57
1, 96966, Note_off_c, 0, 45, 44
1, 97086, Note_on_c, 0, 74, 64
1, 97099, Note_on_c, 0, 62, 47
1, 97101, Note_on_c, 0, 45, 46
1, 97105, Note_on_c, 0, 47, 47
1, 97107, Note_on_c, 0, 50, 39
1, 97136, Note_off_c, 0, 62, 51
1, 97140, Note_off_c, 0, 50, 51
1, 97142, Note_off_c, 0, 45, 62
1, 97143, Note_off_c, 0, 47, 61
1, 97147, Note_off_c, 0, 74, 62
1, 97303, Note_on_c, 0, 76, 68
1, 97309, Note_on_c, 0, 49, 49
1, 97311, Note_on_c, 0, 64, 56
1, 97315, Note_on_c, 0, 45, 43
1, 97318, Note_on_c, 0, 52, 53
1, 97343, Note_off_c, 0, 64, 65
1, 97354, Note_off_c, 0, 52, 64
1, 97355, Note_off_c, 0, 45, 62
1, 97361, Note_off_c, 0, 49, 61
1, 97364, Note_off_c, 0, 76, 62
1, 97494, Note_on_c, 0, 78, 77
1, 97503, Note_on_c, 0, 66, 55
1, 97508, Note_on_c, 0, 54, 54
1, 97516, Note_on_c, 0, 45, 38
1, 97516, Note_on_c, 0, 50, 49
1, 97535, Note_off_c, 0, 66, 69
1, 97561, Note_off_c, 0, 50, 59
1, 97561, Note_off_c, 0, 78, 58
1, 97563, Note_off_c, 0, 45, 47
1, 97570, Note_off_c, 0, 54, 58
1, 97690, Note_on_c, 0, 79, 73
1, 97709, Note_on_c, 0, 45, 35
1, 97710, Note_on_c, 0, 67, 57
1, 97712, Note_on_c, 0, 55, 47
1, 97733, Note_on_c, 0, 52, 26
1, 97750, Note_off_c, 0, 55, 54
1, 97751, Note_off_c, 0, 67, 56
1, 97762, Note_off_c, 0, 52, 50
1, 97774, Note_off_c, 0, 45, 47
1, 97775, Note_off_c, 0, 79, 58
1, 97932, Note_on_c, 0, 78, 76
1, 97951, Note_on_c, 0, 66, 56
1, 97968, Note_on_c, 0, 45, 39
1, 97986, Control_c, 0, 64, 31
1, 98001, Control_c, 0, 64, 61
1, 98016, Control_c, 0, 64, 69
1, 98031, Control_c, 0, 64, 80
1, 98053, Control_c, 0, 64, 100
1, 98067, Control_c, 0, 64, 127
1, 98069, Note_off_c, 0, 45, 56
1, 98171, Control_c, 0, 64, 113
1, 98186, Control_c, 0, 64, 95
1, 98201, Control_c, 0, 64, 87
1, 98215, Control_c, 0, 64, 81
1, 98230, Control_c, 0, 64, 76
1, 98245, Control_c, 0, 64, 71
1, 98260, Note_on_c, 0, 50, 51
1, 98260, Control_c, 0, 64, 66
1, 98264, Note_on_c, 0, 54, 38
1, 98275, Control_c, 0, 64, 58
1, 98290, Control_c, 0, 64, 41
1, 98295, Note_off_c, 0, 54, 52
1, 98301, Note_off_c, 0, 50, 59
1, 98305, Control_c, 0, 64, 0
1, 98365, Note_on_c, 0, 50, 43
1, 98368, Note_on_c, 0, 54, 52
1, 98427, Note_off_c, 0, 54, 49
1, 98428, Note_off_c, 0, 50, 58
1, 98450, Note_off_c, 0, 66, 52
1, 98601, Note_on_c, 0, 79, 68
1, 98622, Note_on_c, 0, 67, 52
1, 98625, Note_on_c, 0, 45, 45
1, 98626, Note_off_c, 0, 78, 38
1, 98676, Control_c, 0, 64, 51
1, 98690, Control_c, 0, 64, 65
1, 98705, Control_c, 0, 64, 71
1, 98720, Control_c, 0, 64, 78
1, 98734, Control_c, 0, 64, 82
1, 98749, Control_c, 0, 64, 84
1, 98770, Note_off_c, 0, 45, 51
1, 98846, Control_c, 0, 64, 84
1, 98861, Control_c, 0, 64, 83
1, 98876, Control_c, 0, 64, 81
1, 98890, Control_c, 0, 64, 78
1, 98905, Control_c, 0, 64, 75
1, 98920, Control_c, 0, 64, 72
1, 98935, Control_c, 0, 64, 69
1, 98940, Note_on_c, 0, 55, 46
1, 98944, Note_on_c, 0, 52, 47
1, 98949, Control_c, 0, 64, 66
1, 98964, Control_c, 0, 64, 63
1, 98971, Note_off_c, 0, 55, 53
1, 98973, Note_off_c, 0, 52, 57
1, 98979, Control_c, 0, 64, 58
1, 98994, Control_c, 0, 64, 47
1, 99009, Control_c, 0, 64, 28
1, 99023, Control_c, 0, 64, 0
1, 99045, Note_on_c, 0, 55, 52
1, 99059, Note_on_c, 0, 52, 46
1, 99102, Note_off_c, 0, 55, 55
1, 99102, Note_off_c, 0, 67, 37
1, 99112, Note_off_c, 0, 52, 58
1, 99270, Note_off_c, 0, 79, 55
1, 99286, Note_on_c, 0, 81, 56
1, 99303, Note_on_c, 0, 69, 41
1, 99321, Note_on_c, 0, 45, 47
1, 99334, Control_c, 0, 64, 28
1, 99349, Control_c, 0, 64, 62
1, 99364, Control_c, 0, 64, 70
1, 99378, Note_off_c, 0, 69, 62
1, 99379, Control_c, 0, 64, 78
1, 99394, Control_c, 0, 64, 84
1, 99400, Note_off_c, 0, 45, 64
1, 99410, Control_c, 0, 64, 86
1, 99412, Note_off_c, 0, 81, 60
1, 99425, Control_c, 0, 64, 88
1, 99439, Control_c, 0, 64, 89
1, 99595, Control_c, 0, 64, 88
1, 99610, Control_c, 0, 64, 86
1, 99611, Note_on_c, 0, 86, 66
1, 99622, Note_on_c, 0, 74, 54
1, 99625, Control_c, 0, 64, 82
1, 99630, Note_on_c, 0, 54, 46
1, 99632, Note_on_c, 0, 57, 50
1, 99639, Control_c, 0, 64, 77
1, 99654, Control_c, 0, 64, 73
1, 99667, Note_off_c, 0, 74, 57
1, 99669, Control_c, 0, 64, 69
1, 99679, Note_off_c, 0, 86, 61
1, 99683, Control_c, 0, 64, 65
1, 99698, Control_c, 0, 64, 60
1, 99713, Control_c, 0, 64, 52
1, 99728, Control_c, 0, 64, 41
1, 99743, Control_c, 0, 64, 29
1, 99758, Control_c, 0, 64, 0
1, 99833, Note_on_c, 0, 86, 74
1, 99846, Note_on_c, 0, 74, 57
1, 99851, Note_on_c, 0, 56, 47
1, 99852, Note_on_c, 0, 53, 53
1, 99855, Note_off_c, 0, 54, 59
1, 99887, Note_off_c, 0, 74, 57
1, 99892, Note_off_c, 0, 57, 36
1, 99897, Note_off_c, 0, 86, 61
1, 100040, Note_on_c, 0, 86, 69
1, 100043, Note_off_c, 0, 56, 62
1, 100050, Note_on_c, 0, 74, 58
1, 100057, Note_on_c, 0, 57, 45
1, 100069, Note_off_c, 0, 53, 53
1, 100070, Note_on_c, 0, 54, 47
1, 100111, Note_off_c, 0, 74, 61
1, 100111, Note_off_c, 0, 86, 62
1, 100251, Note_on_c, 0, 86, 68
1, 100260, Note_off_c, 0, 54, 52
1, 100261, Note_on_c, 0, 74, 59
1, 100262, Note_on_c, 0, 55, 51
1, 100267, Note_on_c, 0, 59, 51
1, 100318, Note_off_c, 0, 74, 58
1, 100320, Note_off_c, 0, 57, 50
1, 100329, Note_off_c, 0, 86, 62
1, 100451, Note_off_c, 0, 55, 54
1, 100456, Note_on_c, 0, 86, 80
1, 100470, Note_on_c, 0, 54, 54
1, 100471, Note_on_c, 0, 57, 45
1, 100471, Note_on_c, 0, 74, 56
1, 100482, Note_off_c, 0, 59, 41
1, 100511, Note_off_c, 0, 54, 63
1, 100540, Note_off_c, 0, 74, 58
1, 100543, Note_off_c, 0, 57, 50
1, 100711, Note_on_c, 0, 85, 72
1, 100728, Note_on_c, 0, 73, 62
1, 100743, Note_on_c, 0, 45, 48
1, 100749, Note_off_c, 0, 86, 63
1, 100758, Control_c, 0, 64, 61
1, 100773, Control_c, 0, 64, 86
1, 100788, Control_c, 0, 64, 127
1, 100834, Note_off_c, 0, 45, 59
1, 100906, Control_c, 0, 64, 110
1, 100921, Control_c, 0, 64, 92
1, 100936, Control_c, 0, 64, 83
1, 100951, Control_c, 0, 64, 75
1, 100966, Control_c, 0, 64, 69
1, 100980, Control_c, 0, 64, 64
1, 100995, Control_c, 0, 64, 58
1, 101011, Control_c, 0, 64, 49
1, 101017, Note_on_c, 0, 52, 55
1, 101021, Note_on_c, 0, 55, 43
1, 101026, Control_c, 0, 64, 36
1, 101048, Control_c, 0, 64, 0
1, 101057, Note_off_c, 0, 55, 56
1, 101058, Note_off_c, 0, 52, 66
1, 101129, Note_on_c, 0, 55, 51
1, 101130, Note_on_c, 0, 52, 56
1, 101165, Note_off_c, 0, 55, 62
1, 101179, Note_off_c, 0, 52, 58
1, 101195, Note_off_c, 0, 73, 57
1, 101219, Note_off_c, 0, 85, 66
1, 101346, Note_on_c, 0, 83, 64
1, 101369, Note_on_c, 0, 71, 44
1, 101378, Note_on_c, 0, 45, 42
1, 101389, Control_c, 0, 64, 47
1, 101403, Control_c, 0, 64, 72
1, 101418, Control_c, 0, 64, 127
1, 101438, Note_off_c, 0, 45, 59
1, 101626, Control_c, 0, 64, 109
1, 101641, Control_c, 0, 64, 91
1, 101645, Note_on_c, 0, 50, 54
1, 101655, Control_c, 0, 64, 78
1, 101658, Note_on_c, 0, 54, 33
1, 101670, Control_c, 0, 64, 67
1, 101685, Control_c, 0, 64, 54
1, 101686, Note_off_c, 0, 50, 59
1, 101689, Note_off_c, 0, 54, 45
1, 101700, Control_c, 0, 64, 0
1, 101748, Note_on_c, 0, 50, 44
1, 101751, Note_on_c, 0, 54, 47
1, 101811, Note_off_c, 0, 54, 51
1, 101830, Note_off_c, 0, 83, 55
1, 101833, Note_off_c, 0, 50, 53
1, 101842, Note_off_c, 0, 71, 62
1, 101975, Note_on_c, 0, 81, 58
1, 101989, Control_c, 0, 64, 51
1, 101992, Note_on_c, 0, 69, 48
1, 102001, Note_on_c, 0, 45, 48
1, 102004, Control_c, 0, 64, 70
1, 102019, Control_c, 0, 64, 83
1, 102026, Note_off_c, 0, 69, 67
1, 102034, Control_c, 0, 64, 94
1, 102042, Note_off_c, 0, 81, 58
1, 102049, Control_c, 0, 64, 99
1, 102054, Note_off_c, 0, 45, 58
1, 102064, Control_c, 0, 64, 104
1, 102079, Control_c, 0, 64, 106
1, 102138, Control_c, 0, 64, 106
1, 102153, Control_c, 0, 64, 96
1, 102167, Control_c, 0, 64, 80
1, 102182, Control_c, 0, 64, 67
1, 102197, Note_on_c, 0, 85, 67
1, 102197, Control_c, 0, 64, 51
1, 102206, Note_on_c, 0, 73, 52
1, 102208, Note_on_c, 0, 49, 47
1, 102209, Note_on_c, 0, 52, 55
1, 102212, Control_c, 0, 64, 0
1, 102218, Note_on_c, 0, 45, 36
1, 102237, Note_off_c, 0, 73, 62
1, 102240, Note_off_c, 0, 85, 55
1, 102246, Note_off_c, 0, 52, 63
1, 102250, Note_off_c, 0, 49, 57
1, 102266, Note_off_c, 0, 45, 45
1, 102389, Note_on_c, 0, 86, 69
1, 102393, Note_on_c, 0, 74, 60
1, 102399, Note_on_c, 0, 47, 53
1, 102399, Note_on_c, 0, 50, 44
1, 102408, Note_on_c, 0, 45, 40
1, 102440, Note_off_c, 0, 74, 56
1, 102440, Note_off_c, 0, 50, 50
1, 102444, Note_off_c, 0, 47, 61
1, 102445, Note_off_c, 0, 45, 55
1, 102447, Note_off_c, 0, 86, 62
1, 102559, Control_c, 0, 67, 123
1, 102574, Control_c, 0, 67, 118
1, 102583, Note_on_c, 0, 45, 49
1, 102587, Note_on_c, 0, 88, 75
1, 102589, Control_c, 0, 67, 113
1, 102592, Note_on_c, 0, 76, 68
1, 102597, Note_on_c, 0, 49, 54
1, 102597, Note_on_c, 0, 52, 55
1, 102605, Control_c, 0, 67, 110
1, 102620, Control_c, 0, 67, 107
1, 102633, Note_off_c, 0, 52, 64
1, 102635, Control_c, 0, 67, 104
1, 102638, Note_off_c, 0, 76, 62
1, 102645, Note_off_c, 0, 45, 59
1, 102650, Control_c, 0, 67, 102
1, 102653, Note_off_c, 0, 49, 56
1, 102657, Note_off_c, 0, 88, 60
1, 102664, Control_c, 0, 67, 100
1, 102679, Control_c, 0, 67, 100
1, 102694, Control_c, 0, 67, 99
1, 102777, Note_on_c, 0, 90, 81
1, 102782, Control_c, 0, 67, 99
1, 102785, Note_on_c, 0, 78, 67
1, 102786, Note_on_c, 0, 45, 53
1, 102794, Note_on_c, 0, 50, 50
1, 102795, Note_on_c, 0, 54, 53
1, 102812, Control_c, 0, 67, 98
1, 102827, Control_c, 0, 67, 98
1, 102832, Note_off_c, 0, 50, 62
1, 102837, Note_off_c, 0, 45, 59
1, 102844, Note_off_c, 0, 54, 57
1, 102851, Note_off_c, 0, 78, 62
1, 102854, Note_off_c, 0, 90, 61
1, 102887, Control_c, 0, 67, 97
1, 102901, Control_c, 0, 67, 96
1, 102916, Control_c, 0, 67, 94
1, 102931, Control_c, 0, 67, 91
1, 102946, Control_c, 0, 67, 86
1, 102961, Control_c, 0, 67, 81
1, 102970, Note_on_c, 0, 91, 81
1, 102976, Control_c, 0, 67, 78
1, 102979, Note_on_c, 0, 45, 44
1, 102980, Note_on_c, 0, 79, 67
1, 102987, Note_on_c, 0, 55, 53
1, 102990, Control_c, 0, 67, 75
1, 102993, Note_on_c, 0, 52, 46
1, 103005, Control_c, 0, 67, 73
1, 103020, Control_c, 0, 67, 71
1, 103024, Note_off_c, 0, 55, 59
1, 103027, Note_off_c, 0, 52, 60
1, 103035, Control_c, 0, 67, 70
1, 103040, Note_off_c, 0, 79, 60
1, 103047, Note_off_c, 0, 45, 59
1, 103049, Control_c, 0, 67, 70
1, 103064, Control_c, 0, 67, 68
1, 103076, Note_off_c, 0, 91, 58
1, 103079, Control_c, 0, 67, 67
1, 103094, Control_c, 0, 67, 65
1, 103108, Control_c, 0, 67, 62
1, 103123, Control_c, 0, 67, 59
1, 103138, Control_c, 0, 67, 56
1, 103153, Control_c, 0, 67, 51
1, 103168, Control_c, 0, 67, 48
1, 103182, Control_c, 0, 67, 44
1, 103196, Note_on_c, 0, 90, 82
1, 103197, Control_c, 0, 67, 40
1, 103211, Note_on_c, 0, 78, 64
1, 103212, Control_c, 0, 67, 35
1, 103224, Note_on_c, 0, 45, 37
1, 103226, Control_c, 0, 67, 29
1, 103241, Control_c, 0, 67, 22
1, 103256, Control_c, 0, 64, 37
1, 103256, Control_c, 0, 67, 12
1, 103279, Control_c, 0, 64, 63
1, 103279, Control_c, 0, 67, 0
1, 103294, Control_c, 0, 64, 71
1, 103308, Control_c, 0, 64, 78
1, 103323, Control_c, 0, 64, 81
1, 103338, Control_c, 0, 64, 82
1, 103405, Note_off_c, 0, 45, 36
1, 103413, Control_c, 0, 64, 81
1, 103428, Control_c, 0, 64, 77
1, 103443, Control_c, 0, 64, 72
1, 103458, Control_c, 0, 64, 69
1, 103473, Control_c, 0, 64, 67
1, 103487, Control_c, 0, 64, 66
1, 103498, Note_on_c, 0, 54, 44
1, 103502, Control_c, 0, 64, 64
1, 103505, Note_on_c, 0, 50, 44
1, 103517, Control_c, 0, 64, 62
1, 103528, Note_off_c, 0, 54, 54
1, 103531, Control_c, 0, 64, 56
1, 103534, Note_off_c, 0, 50, 56
1, 103546, Control_c, 0, 64, 48
1, 103561, Control_c, 0, 64, 40
1, 103576, Control_c, 0, 64, 36
1, 103591, Control_c, 0, 64, 32
1, 103595, Note_on_c, 0, 54, 55
1, 103603, Note_on_c, 0, 50, 44
1, 103605, Control_c, 0, 64, 19
1, 103620, Control_c, 0, 64, 0
1, 103656, Note_off_c, 0, 50, 55
1, 103664, Note_off_c, 0, 54, 47
1, 103691, Note_off_c, 0, 78, 63
1, 103754, Control_c, 0, 67, 10
1, 103769, Control_c, 0, 67, 15
1, 103784, Control_c, 0, 67, 20
1, 103799, Control_c, 0, 67, 26
1, 103813, Control_c, 0, 67, 31
1, 103820, Note_on_c, 0, 91, 70
1, 103828, Control_c, 0, 67, 36
1, 103843, Control_c, 0, 67, 41
1, 103846, Note_on_c, 0, 79, 53
1, 103855, Note_on_c, 0, 45, 39
1, 103857, Control_c, 0, 67, 47
1, 103859, Note_off_c, 0, 90, 61
1, 103872, Control_c, 0, 67, 52
1, 103887, Control_c, 0, 67, 58
1, 103902, Control_c, 0, 67, 64
1, 103917, Control_c, 0, 64, 50
1, 103917, Control_c, 0, 67, 68
1, 103931, Control_c, 0, 64, 63
1, 103931, Control_c, 0, 67, 71
1, 103946, Control_c, 0, 64, 69
1, 103946, Control_c, 0, 67, 73
1, 103961, Control_c, 0, 64, 76
1, 103961, Control_c, 0, 67, 76
1, 103976, Control_c, 0, 64, 82
1, 103976, Control_c, 0, 67, 78
1, 103991, Control_c, 0, 64, 85
1, 103991, Control_c, 0, 67, 80
1, 103999, Note_off_c, 0, 45, 0
1, 104005, Control_c, 0, 64, 86
1, 104005, Control_c, 0, 67, 84
1, 104020, Control_c, 0, 67, 87
1, 104039, Poly_aftertouch_c, 0, 45, 0
1, 104042, Control_c, 0, 67, 90
1, 104056, Control_c, 0, 67, 92
1, 104071, Control_c, 0, 67, 94
1, 104086, Control_c, 0, 64, 85
1, 104086, Control_c, 0, 67, 95
1, 104101, Control_c, 0, 64, 82
1, 104101, Control_c, 0, 67, 96
1, 104116, Control_c, 0, 64, 78
1, 104116, Control_c, 0, 67, 97
1, 104130, Control_c, 0, 64, 74
1, 104130, Control_c, 0, 67, 98
1, 104145, Control_c, 0, 64, 71
1, 104145, Control_c, 0, 67, 99
1, 104156, Note_on_c, 0, 52, 53
1, 104160, Control_c, 0, 64, 67
1, 104160, Control_c, 0, 67, 100
1, 104165, Note_on_c, 0, 55, 41
1, 104175, Control_c, 0, 64, 64
1, 104175, Control_c, 0, 67, 101
1, 104190, Control_c, 0, 64, 61
1, 104190, Control_c, 0, 67, 102
1, 104196, Note_off_c, 0, 52, 64
1, 104206, Note_off_c, 0, 55, 48
1, 104206, Control_c, 0, 64, 54
1, 104206, Control_c, 0, 67, 102
1, 104221, Control_c, 0, 64, 43
1, 104221, Control_c, 0, 67, 103
1, 104235, Control_c, 0, 64, 26
1, 104235, Control_c, 0, 67, 104
1, 104250, Control_c, 0, 64, 0
1, 104250, Control_c, 0, 67, 105
1, 104265, Control_c, 0, 67, 107
1, 104270, Note_on_c, 0, 55, 39
1, 104279, Control_c, 0, 67, 107
1, 104285, Note_on_c, 0, 52, 46
1, 104294, Control_c, 0, 67, 108
1, 104309, Control_c, 0, 67, 110
1, 104324, Control_c, 0, 67, 111
1, 104338, Note_off_c, 0, 52, 57
1, 104339, Note_off_c, 0, 55, 53
1, 104339, Control_c, 0, 67, 112
1, 104353, Note_off_c, 0, 79, 35
1, 104353, Control_c, 0, 67, 113
1, 104368, Control_c, 0, 67, 114
1, 104383, Control_c, 0, 67, 115
1, 104398, Control_c, 0, 67, 115
1, 104413, Control_c, 0, 67, 116
1, 104428, Control_c, 0, 67, 116
1, 104517, Control_c, 0, 67, 116
1, 104532, Control_c, 0, 67, 115
1, 104547, Control_c, 0, 67, 114
1, 104561, Note_on_c, 0, 93, 50
1, 104561, Control_c, 0, 67, 113
1, 104575, Note_on_c, 0, 81, 39
1, 104576, Control_c, 0, 67, 111
1, 104587, Note_on_c, 0, 45, 38
1, 104591, Control_c, 0, 64, 28
1, 104591, Control_c, 0, 67, 110
1, 104604, Note_off_c, 0, 91, 32
1, 104606, Control_c, 0, 64, 61
1, 104606, Control_c, 0, 67, 109
1, 104621, Control_c, 0, 64, 68
1, 104621, Control_c, 0, 67, 108
1, 104635, Control_c, 0, 64, 76
1, 104642, Note_off_c, 0, 93, 59
1, 104650, Control_c, 0, 64, 83
1, 104665, Control_c, 0, 64, 91
1, 104665, Control_c, 0, 67, 107
1, 104671, Note_off_c, 0, 45, 61
1, 104671, Note_off_c, 0, 81, 57
1, 104679, Control_c, 0, 64, 100
1, 104694, Control_c, 0, 64, 107
1, 104709, Control_c, 0, 64, 110
1, 104739, Control_c, 0, 64, 110
1, 104821, Control_c, 0, 67, 107
1, 104835, Control_c, 0, 64, 110
1, 104850, Control_c, 0, 67, 106
1, 104865, Control_c, 0, 67, 105
1, 104879, Control_c, 0, 67, 104
1, 104894, Control_c, 0, 67, 104
1, 104909, Control_c, 0, 64, 109
1, 104909, Control_c, 0, 67, 103
1, 104924, Control_c, 0, 64, 107
1, 104924, Control_c, 0, 67, 102
1, 104939, Control_c, 0, 64, 105
1, 104939, Control_c, 0, 67, 101
1, 104944, Note_on_c, 0, 81, 59
1, 104953, Control_c, 0, 64, 102
1, 104953, Control_c, 0, 67, 99
1, 104956, Note_on_c, 0, 57, 31
1, 104961, Note_on_c, 0, 54, 42
1, 104964, Note_on_c, 0, 69, 36
1, 104968, Control_c, 0, 64, 99
1, 104968, Control_c, 0, 67, 96
1, 104983, Control_c, 0, 64, 96
1, 104983, Control_c, 0, 67, 94
1, 104999, Control_c, 0, 64, 93
1, 104999, Control_c, 0, 67, 92
1, 105014, Control_c, 0, 64, 90
1, 105014, Control_c, 0, 67, 90
1, 105029, Control_c, 0, 64, 88
1, 105029, Control_c, 0, 67, 88
1, 105044, Control_c, 0, 64, 87
1, 105044, Control_c, 0, 67, 86
1, 105058, Control_c, 0, 64, 85
1, 105058, Control_c, 0, 67, 84
1, 105059, Note_off_c, 0, 81, 55
1, 105073, Control_c, 0, 64, 83
1, 105073, Control_c, 0, 67, 82
1, 105088, Control_c, 0, 64, 82
1, 105088, Control_c, 0, 67, 81
1, 105097, Note_off_c, 0, 69, 45
1, 105102, Control_c, 0, 64, 81
1, 105102, Control_c, 0, 67, 80
1, 105117, Control_c, 0, 64, 80
1, 105117, Control_c, 0, 67, 79
1, 105132, Control_c, 0, 64, 79
1, 105132, Control_c, 0, 67, 77
1, 105147, Control_c, 0, 64, 77
1, 105147, Control_c, 0, 67, 76
1, 105162, Control_c, 0, 64, 76
1, 105162, Control_c, 0, 67, 74
1, 105173, Note_on_c, 0, 81, 65
1, 105176, Control_c, 0, 64, 75
1, 105176, Control_c, 0, 67, 73
1, 105185, Note_on_c, 0, 53, 51
1, 105190, Note_on_c, 0, 56, 51
1, 105191, Control_c, 0, 64, 73
1, 105191, Control_c, 0, 67, 71
1, 105195, Note_on_c, 0, 69, 49
1, 105206, Control_c, 0, 64, 72
1, 105206, Control_c, 0, 67, 70
1, 105221, Control_c, 0, 64, 71
1, 105221, Control_c, 0, 67, 68
1, 105233, Note_off_c, 0, 54, 36
1, 105236, Control_c, 0, 64, 70
1, 105236, Control_c, 0, 67, 67
1, 105250, Control_c, 0, 64, 69
1, 105250, Control_c, 0, 67, 66
1, 105265, Control_c, 0, 64, 68
1, 105265, Control_c, 0, 67, 64
1, 105277, Note_off_c, 0, 69, 57
1, 105280, Note_off_c, 0, 57, 41
1, 105280, Control_c, 0, 64, 66
1, 105280, Control_c, 0, 67, 62
1, 105281, Note_off_c, 0, 81, 55
1, 105295, Control_c, 0, 64, 65
1, 105295, Control_c, 0, 67, 61
1, 105310, Control_c, 0, 64, 64
1, 105310, Control_c, 0, 67, 60
1, 105325, Control_c, 0, 64, 64
1, 105325, Control_c, 0, 67, 59
1, 105340, Control_c, 0, 64, 63
1, 105340, Control_c, 0, 67, 58
1, 105355, Control_c, 0, 64, 62
1, 105355, Control_c, 0, 67, 57
1, 105370, Control_c, 0, 64, 62
1, 105370, Control_c, 0, 67, 57
1, 105384, Control_c, 0, 64, 61
1, 105388, Note_on_c, 0, 81, 69
1, 105394, Note_on_c, 0, 57, 43
1, 105396, Note_on_c, 0, 69, 59
1, 105397, Note_on_c, 0, 54, 52
1, 105399, Control_c, 0, 64, 60
1, 105399, Control_c, 0, 67, 56
1, 105414, Control_c, 0, 64, 59
1, 105414, Control_c, 0, 67, 56
1, 105420, Note_off_c, 0, 56, 62
1, 105429, Note_off_c, 0, 53, 36
1, 105429, Control_c, 0, 64, 58
1, 105429, Control_c, 0, 67, 54
1, 105444, Control_c, 0, 64, 58
1, 105444, Control_c, 0, 67, 53
1, 105458, Control_c, 0, 64, 57
1, 105458, Control_c, 0, 67, 52
1, 105473, Control_c, 0, 64, 56
1, 105473, Control_c, 0, 67, 51
1, 105488, Control_c, 0, 64, 55
1, 105488, Control_c, 0, 67, 49
1, 105492, Note_off_c, 0, 69, 57
1, 105492, Note_off_c, 0, 81, 56
1, 105502, Control_c, 0, 64, 53
1, 105502, Control_c, 0, 67, 48
1, 105517, Control_c, 0, 64, 50
1, 105517, Control_c, 0, 67, 46
1, 105540, Control_c, 0, 64, 47
1, 105540, Control_c, 0, 67, 44
1, 105554, Control_c, 0, 64, 46
1, 105554, Control_c, 0, 67, 41
1, 105569, Control_c, 0, 64, 44
1, 105569, Control_c, 0, 67, 40
1, 105584, Control_c, 0, 64, 41
1, 105584, Control_c, 0, 67, 38
1, 105599, Control_c, 0, 64, 33
1, 105599, Control_c, 0, 67, 36
1, 105602, Note_on_c, 0, 81, 69
1, 105606, Note_on_c, 0, 59, 55
1, 105607, Note_on_c, 0, 55, 57
1, 105614, Control_c, 0, 64, 20
1, 105614, Control_c, 0, 67, 34
1, 105614, Note_on_c, 0, 69, 58
1, 105622, Note_off_c, 0, 54, 55
1, 105628, Control_c, 0, 64, 0
1, 105628, Control_c, 0, 67, 32
1, 105643, Control_c, 0, 67, 30
1, 105658, Control_c, 0, 67, 29
1, 105673, Control_c, 0, 67, 27
1, 105684, Note_off_c, 0, 57, 54
1, 105688, Control_c, 0, 67, 24
1, 105699, Note_off_c, 0, 69, 59
1, 105701, Note_off_c, 0, 81, 57
1, 105702, Control_c, 0, 67, 21
1, 105717, Control_c, 0, 67, 18
1, 105732, Control_c, 0, 67, 16
1, 105747, Control_c, 0, 67, 13
1, 105762, Control_c, 0, 67, 11
1, 105776, Control_c, 0, 67, 8
1, 105791, Note_on_c, 0, 81, 70
1, 105791, Control_c, 0, 67, 0
1, 105801, Note_on_c, 0, 54, 57
1, 105805, Note_on_c, 0, 57, 58
1, 105805, Note_off_c, 0, 59, 61
1, 105806, Note_on_c, 0, 69, 66
1, 105811, Note_off_c, 0, 55, 60
1, 105861, Note_off_c, 0, 54, 62
1, 105891, Note_off_c, 0, 69, 62
1, 105909, Note_off_c, 0, 81, 58
1, 105930, Note_off_c, 0, 57, 43
1, 106049, Note_on_c, 0, 83, 79
1, 106070, Note_on_c, 0, 71, 60
1, 106081, Note_on_c, 0, 45, 50
1, 106163, Control_c, 0, 64, 57
1, 106177, Control_c, 0, 64, 68
1, 106192, Control_c, 0, 64, 77
1, 106207, Control_c, 0, 64, 92
1, 106222, Control_c, 0, 64, 105
1, 106237, Control_c, 0, 64, 127
1, 106370, Note_on_c, 0, 59, 49
1, 106371, Note_on_c, 0, 54, 50
1, 106374, Note_on_c, 0, 57, 48
1, 106409, Note_off_c, 0, 71, 37
1, 106415, Note_off_c, 0, 54, 53
1, 106418, Note_off_c, 0, 57, 46
1, 106453, Note_off_c, 0, 59, 0
1, 106467, Note_on_c, 0, 59, 47
1, 106470, Note_on_c, 0, 57, 44
1, 106474, Note_on_c, 0, 54, 48
1, 106558, Note_off_c, 0, 83, 61
1, 106584, Note_off_c, 0, 54, 42
1, 106586, Note_off_c, 0, 45, 42
1, 106604, Note_off_c, 0, 57, 35
1, 106606, Note_off_c, 0, 59, 34
1, 106763, Note_on_c, 0, 95, 81
1, 106777, Control_c, 0, 67, 8
1, 106783, Note_on_c, 0, 83, 60
1, 106792, Note_on_c, 0, 45, 41
1, 106792, Control_c, 0, 67, 9
1, 106807, Control_c, 0, 67, 10
1, 106821, Control_c, 0, 67, 11
1, 106836, Control_c, 0, 67, 12
1, 106851, Control_c, 0, 67, 14
1, 106862, Note_off_c, 0, 95, 63
1, 106863, Note_off_c, 0, 83, 54
1, 106866, Control_c, 0, 67, 19
1, 106881, Control_c, 0, 67, 26
1, 106896, Control_c, 0, 67, 32
1, 106911, Control_c, 0, 67, 36
1, 106926, Control_c, 0, 67, 40
1, 106940, Control_c, 0, 67, 43
1, 106955, Control_c, 0, 67, 44
1, 106970, Control_c, 0, 67, 45
1, 107111, Control_c, 0, 67, 45
1, 107126, Control_c, 0, 67, 46
1, 107131, Note_on_c, 0, 59, 43
1, 107136, Note_on_c, 0, 57, 41
1, 107144, Note_on_c, 0, 51, 35
1, 107152, Note_on_c, 0, 54, 31
1, 107179, Note_off_c, 0, 57, 44
1, 107185, Control_c, 0, 67, 46
1, 107188, Note_off_c, 0, 51, 44
1, 107188, Note_off_c, 0, 54, 46
1, 107215, Control_c, 0, 67, 47
1, 107224, Note_off_c, 0, 59, 0
1, 107230, Control_c, 0, 67, 50
1, 107240, Note_on_c, 0, 59, 33
1, 107245, Control_c, 0, 67, 53
1, 107248, Note_on_c, 0, 57, 35
1, 107250, Note_on_c, 0, 54, 44
1, 107258, Note_on_c, 0, 51, 36
1, 107260, Control_c, 0, 67, 56
1, 107274, Control_c, 0, 67, 58
1, 107289, Control_c, 0, 67, 60
1, 107304, Control_c, 0, 67, 62
1, 107319, Control_c, 0, 67, 64
1, 107334, Control_c, 0, 67, 66
1, 107342, Note_off_c, 0, 45, 41
1, 107345, Note_off_c, 0, 51, 35
1, 107348, Control_c, 0, 67, 68
1, 107358, Note_off_c, 0, 59, 33
1, 107362, Note_off_c, 0, 57, 39
1, 107363, Control_c, 0, 67, 70
1, 107378, Control_c, 0, 67, 72
1, 107393, Control_c, 0, 67, 73
1, 107409, Control_c, 0, 67, 76
1, 107412, Note_off_c, 0, 54, 36
1, 107423, Control_c, 0, 67, 79
1, 107438, Control_c, 0, 64, 91
1, 107438, Control_c, 0, 67, 84
1, 107453, Control_c, 0, 64, 66
1, 107453, Control_c, 0, 67, 90
1, 107468, Control_c, 0, 64, 43
1, 107468, Control_c, 0, 67, 97
1, 107483, Control_c, 0, 64, 0
1, 107483, Control_c, 0, 67, 105
1, 107491, Note_on_c, 0, 93, 70
1, 107497, Control_c, 0, 64, 44
1, 107497, Control_c, 0, 67, 114
1, 107503, Note_on_c, 0, 45, 43
1, 107506, Note_on_c, 0, 81, 56
1, 107512, Control_c, 0, 64, 58
1, 107512, Control_c, 0, 67, 119
1, 107527, Control_c, 0, 64, 63
1, 107527, Control_c, 0, 67, 124
1, 107542, Control_c, 0, 64, 66
1, 107542, Control_c, 0, 67, 127
1, 107557, Control_c, 0, 64, 67
1, 107570, Note_off_c, 0, 45, 65
1, 107579, Note_off_c, 0, 93, 57
1, 107582, Note_off_c, 0, 81, 57
1, 107616, Control_c, 0, 64, 66
1, 107631, Control_c, 0, 64, 66
1, 107645, Control_c, 0, 64, 65
1, 107660, Control_c, 0, 64, 64
1, 107675, Control_c, 0, 64, 63
1, 107690, Control_c, 0, 64, 62
1, 107704, Control_c, 0, 64, 61
1, 107712, Note_on_c, 0, 91, 70
1, 107719, Control_c, 0, 64, 59
1, 107720, Note_on_c, 0, 79, 60
1, 107723, Note_on_c, 0, 52, 55
1, 107725, Note_on_c, 0, 55, 50
1, 107734, Control_c, 0, 64, 57
1, 107749, Control_c, 0, 64, 53
1, 107760, Note_off_c, 0, 79, 58
1, 107764, Control_c, 0, 64, 46
1, 107786, Control_c, 0, 64, 39
1, 107789, Note_off_c, 0, 91, 56
1, 107801, Control_c, 0, 64, 32
1, 107816, Control_c, 0, 64, 28
1, 107830, Control_c, 0, 64, 28
1, 107860, Control_c, 0, 64, 26
1, 107875, Control_c, 0, 64, 23
1, 107890, Control_c, 0, 64, 20
1, 107904, Control_c, 0, 64, 14
1, 107905, Note_off_c, 0, 52, 36
1, 107906, Note_on_c, 0, 90, 73
1, 107909, Note_on_c, 0, 54, 50
1, 107911, Note_off_c, 0, 55, 58
1, 107917, Note_on_c, 0, 78, 61
1, 107919, Control_c, 0, 64, 8
1, 107934, Control_c, 0, 64, 0
1, 107937, Note_on_c, 0, 57, 47
1, 107990, Note_off_c, 0, 78, 62
1, 107999, Note_off_c, 0, 90, 62
1, 108122, Note_off_c, 0, 57, 55
1, 108123, Note_off_c, 0, 54, 57
1, 108131, Note_on_c, 0, 88, 61
1, 108139, Note_on_c, 0, 76, 56
1, 108143, Note_on_c, 0, 59, 31
1, 108145, Note_on_c, 0, 55, 45
1, 108190, Note_off_c, 0, 76, 64
1, 108233, Note_off_c, 0, 88, 60
1, 108330, Note_on_c, 0, 90, 68
1, 108342, Note_on_c, 0, 78, 54
1, 108343, Note_on_c, 0, 54, 54
1, 108344, Note_off_c, 0, 55, 59
1, 108360, Note_on_c, 0, 57, 41
1, 108379, Note_off_c, 0, 59, 40
1, 108401, Note_off_c, 0, 78, 63
1, 108454, Note_off_c, 0, 90, 54
1, 108475, Note_off_c, 0, 54, 53
1, 108531, Note_on_c, 0, 91, 64
1, 108532, Note_off_c, 0, 57, 59
1, 108539, Note_on_c, 0, 79, 60
1, 108543, Note_on_c, 0, 55, 37
1, 108548, Note_on_c, 0, 52, 51
1, 108570, Note_off_c, 0, 55, 57
1, 108577, Note_off_c, 0, 91, 57
1, 108589, Note_off_c, 0, 52, 67
1, 108592, Note_off_c, 0, 79, 58
1, 108793, Note_on_c, 0, 81, 73
1, 108819, Note_on_c, 0, 69, 47
1, 108821, Note_on_c, 0, 45, 44
1, 108890, Control_c, 0, 64, 60
1, 108905, Control_c, 0, 64, 70
1, 108920, Control_c, 0, 64, 81
1, 108920, Control_c, 0, 67, 127
1, 108935, Control_c, 0, 64, 93
1, 108935, Control_c, 0, 67, 124
1, 108950, Control_c, 0, 64, 99
1, 108950, Control_c, 0, 67, 120
1, 108965, Control_c, 0, 64, 103
1, 108965, Control_c, 0, 67, 116
1, 108980, Control_c, 0, 64, 108
1, 108980, Control_c, 0, 67, 113
1, 108995, Control_c, 0, 64, 110
1, 108995, Control_c, 0, 67, 110
1, 109010, Control_c, 0, 64, 111
1, 109010, Control_c, 0, 67, 107
1, 109024, Control_c, 0, 67, 106
1, 109039, Control_c, 0, 67, 105
1, 109054, Control_c, 0, 64, 112
1, 109054, Control_c, 0, 67, 104
1, 109069, Control_c, 0, 64, 113
1, 109069, Control_c, 0, 67, 104
1, 109084, Control_c, 0, 64, 114
1, 109091, Note_on_c, 0, 52, 50
1, 109099, Control_c, 0, 64, 115
1, 109099, Note_on_c, 0, 57, 41
1, 109103, Note_on_c, 0, 55, 37
1, 109114, Control_c, 0, 64, 116
1, 109123, Note_off_c, 0, 69, 42
1, 109129, Control_c, 0, 64, 118
1, 109136, Note_off_c, 0, 52, 59
1, 109140, Note_off_c, 0, 55, 48
1, 109143, Note_off_c, 0, 57, 45
1, 109188, Control_c, 0, 64, 119
1, 109211, Note_on_c, 0, 52, 48
1, 109215, Note_on_c, 0, 57, 33
1, 109217, Note_on_c, 0, 55, 30
1, 109232, Control_c, 0, 67, 104
1, 109258, Note_off_c, 0, 81, 62
1, 109262, Control_c, 0, 67, 105
1, 109281, Note_off_c, 0, 52, 55
1, 109298, Control_c, 0, 67, 105
1, 109313, Control_c, 0, 67, 106
1, 109319, Note_off_c, 0, 45, 57
1, 109328, Note_off_c, 0, 57, 33
1, 109328, Control_c, 0, 67, 106
1, 109343, Control_c, 0, 67, 107
1, 109354, Note_off_c, 0, 55, 36
1, 109358, Control_c, 0, 67, 107
1, 109373, Control_c, 0, 67, 108
1, 109388, Control_c, 0, 67, 108
1, 109403, Control_c, 0, 67, 109
1, 109418, Control_c, 0, 67, 109
1, 109432, Control_c, 0, 67, 110
1, 109447, Control_c, 0, 67, 110
1, 109462, Control_c, 0, 67, 111
1, 109476, Control_c, 0, 64, 118
1, 109476, Control_c, 0, 67, 111
1, 109480, Note_on_c, 0, 93, 64
1, 109491, Control_c, 0, 64, 104
1, 109491, Control_c, 0, 67, 112
1, 109492, Note_on_c, 0, 81, 55
1, 109506, Control_c, 0, 64, 81
1, 109507, Note_on_c, 0, 45, 38
1, 109521, Control_c, 0, 64, 66
1, 109521, Control_c, 0, 67, 112
1, 109536, Control_c, 0, 64, 51
1, 109536, Control_c, 0, 67, 113
1, 109550, Control_c, 0, 64, 44
1, 109565, Control_c, 0, 64, 56
1, 109565, Control_c, 0, 67, 113
1, 109580, Control_c, 0, 64, 62
1, 109580, Control_c, 0, 67, 114
1, 109594, Control_c, 0, 64, 65
1, 109594, Control_c, 0, 67, 115
1, 109609, Control_c, 0, 64, 68
1, 109609, Control_c, 0, 67, 115
1, 109620, Note_off_c, 0, 81, 57
1, 109624, Control_c, 0, 64, 74
1, 109624, Control_c, 0, 67, 117
1, 109629, Note_off_c, 0, 93, 59
1, 109639, Control_c, 0, 64, 79
1, 109639, Control_c, 0, 67, 118
1, 109654, Control_c, 0, 64, 80
1, 109654, Control_c, 0, 67, 120
1, 109668, Control_c, 0, 67, 121
1, 109683, Control_c, 0, 67, 122
1, 109698, Control_c, 0, 67, 124
1, 109713, Control_c, 0, 67, 125
1, 109728, Control_c, 0, 67, 127
1, 109803, Note_on_c, 0, 52, 43
1, 109806, Note_on_c, 0, 57, 36
1, 109811, Note_on_c, 0, 55, 33
1, 109820, Note_on_c, 0, 49, 28
1, 109844, Note_off_c, 0, 52, 58
1, 109851, Note_off_c, 0, 55, 48
1, 109856, Note_off_c, 0, 49, 44
1, 109860, Note_off_c, 0, 57, 42
1, 109924, Note_on_c, 0, 57, 33
1, 109928, Note_on_c, 0, 55, 32
1, 109930, Note_on_c, 0, 52, 43
1, 109945, Note_on_c, 0, 49, 40
1, 109985, Note_off_c, 0, 52, 58
1, 109990, Note_off_c, 0, 49, 46
1, 109994, Note_off_c, 0, 45, 57
1, 110001, Note_off_c, 0, 57, 38
1, 110007, Note_off_c, 0, 55, 38
1, 110151, Control_c, 0, 64, 78
1, 110166, Control_c, 0, 64, 69
1, 110181, Control_c, 0, 64, 56
1, 110188, Note_on_c, 0, 91, 59
1, 110196, Control_c, 0, 64, 0
1, 110199, Note_on_c, 0, 45, 40
1, 110204, Note_on_c, 0, 79, 46
1, 110225, Control_c, 0, 64, 38
1, 110240, Control_c, 0, 64, 56
1, 110255, Control_c, 0, 64, 63
1, 110270, Control_c, 0, 64, 66
1, 110276, Note_off_c, 0, 45, 64
1, 110276, Note_off_c, 0, 79, 57
1, 110285, Control_c, 0, 64, 69
1, 110299, Control_c, 0, 64, 69
1, 110373, Control_c, 0, 64, 69
1, 110402, Note_off_c, 0, 91, 58
1, 110403, Control_c, 0, 64, 68
1, 110404, Note_on_c, 0, 90, 67
1, 110418, Control_c, 0, 64, 68
1, 110419, Note_on_c, 0, 54, 44
1, 110432, Control_c, 0, 64, 67
1, 110437, Note_on_c, 0, 78, 43
1, 110445, Note_on_c, 0, 50, 35
1, 110477, Control_c, 0, 64, 67
1, 110478, Note_off_c, 0, 78, 57
1, 110506, Control_c, 0, 64, 66
1, 110511, Note_off_c, 0, 90, 64
1, 110521, Control_c, 0, 64, 66
1, 110536, Control_c, 0, 64, 65
1, 110551, Control_c, 0, 64, 65
1, 110580, Control_c, 0, 64, 64
1, 110595, Note_off_c, 0, 54, 57
1, 110596, Note_on_c, 0, 88, 63
1, 110611, Control_c, 0, 64, 64
1, 110616, Note_on_c, 0, 76, 52
1, 110619, Note_off_c, 0, 50, 41
1, 110623, Note_on_c, 0, 52, 42
1, 110632, Note_on_c, 0, 55, 31
1, 110640, Control_c, 0, 64, 63
1, 110685, Note_off_c, 0, 76, 60
1, 110685, Control_c, 0, 64, 63
1, 110714, Control_c, 0, 64, 62
1, 110744, Control_c, 0, 64, 62
1, 110782, Control_c, 0, 64, 61
1, 110796, Control_c, 0, 64, 61
1, 110819, Note_off_c, 0, 52, 50
1, 110824, Note_off_c, 0, 88, 58
1, 110826, Control_c, 0, 64, 60
1, 110827, Note_on_c, 0, 86, 57
1, 110840, Control_c, 0, 64, 60
1, 110843, Note_on_c, 0, 74, 37
1, 110846, Note_on_c, 0, 57, 35
1, 110846, Note_off_c, 0, 55, 50
1, 110856, Note_on_c, 0, 54, 37
1, 110870, Control_c, 0, 64, 59
1, 110900, Control_c, 0, 64, 59
1, 110913, Note_off_c, 0, 74, 56
1, 110915, Control_c, 0, 64, 58
1, 110959, Control_c, 0, 64, 58
1, 110989, Control_c, 0, 64, 57
1, 111004, Control_c, 0, 64, 57
1, 111018, Control_c, 0, 64, 56
1, 111033, Control_c, 0, 64, 56
1, 111040, Note_off_c, 0, 86, 58
1, 111048, Control_c, 0, 64, 55
1, 111060, Note_on_c, 0, 88, 55
1, 111063, Control_c, 0, 64, 55
1, 111070, Note_off_c, 0, 57, 41
1, 111073, Note_off_c, 0, 54, 43
1, 111078, Control_c, 0, 64, 54
1, 111078, Note_on_c, 0, 76, 47
1, 111092, Note_on_c, 0, 52, 40
1, 111093, Control_c, 0, 64, 53
1, 111096, Note_on_c, 0, 55, 32
1, 111108, Control_c, 0, 64, 52
1, 111111, Note_off_c, 0, 76, 63
1, 111122, Control_c, 0, 64, 51
1, 111137, Control_c, 0, 64, 50
1, 111152, Control_c, 0, 64, 49
1, 111167, Control_c, 0, 64, 49
1, 111182, Control_c, 0, 64, 46
1, 111196, Control_c, 0, 64, 41
1, 111211, Control_c, 0, 64, 17
1, 111226, Control_c, 0, 64, 0
1, 111260, Note_off_c, 0, 52, 53
1, 111287, Note_off_c, 0, 88, 54
1, 111289, Note_on_c, 0, 90, 55
1, 111299, Note_off_c, 0, 55, 43
1, 111311, Note_on_c, 0, 78, 41
1, 111317, Note_on_c, 0, 54, 35
1, 111326, Note_on_c, 0, 50, 34
1, 111329, Control_c, 0, 64, 47
1, 111344, Control_c, 0, 64, 64
1, 111358, Note_off_c, 0, 90, 62
1, 111359, Control_c, 0, 64, 68
1, 111367, Note_off_c, 0, 54, 61
1, 111372, Note_off_c, 0, 78, 59
1, 111373, Control_c, 0, 64, 69
1, 111392, Note_off_c, 0, 50, 62
1, 111405, Control_c, 0, 64, 69
1, 111478, Control_c, 0, 64, 69
1, 111516, Control_c, 0, 64, 68
1, 111531, Control_c, 0, 64, 67
1, 111545, Control_c, 0, 64, 67
1, 111560, Control_c, 0, 64, 65
1, 111575, Control_c, 0, 64, 64
1, 111590, Control_c, 0, 64, 63
1, 111605, Control_c, 0, 64, 62
1, 111619, Control_c, 0, 64, 59
1, 111634, Control_c, 0, 64, 44
1, 111649, Control_c, 0, 64, 0
1, 111655, Note_on_c, 0, 78, 64
1, 111665, Note_on_c, 0, 45, 41
1, 111677, Note_on_c, 0, 66, 47
1, 111737, Control_c, 0, 64, 58
1, 111752, Note_off_c, 0, 45, 59
1, 111752, Control_c, 0, 64, 68
1, 111767, Control_c, 0, 64, 74
1, 111782, Control_c, 0, 64, 74
1, 111945, Control_c, 0, 64, 74
1, 111956, Note_on_c, 0, 50, 51
1, 111960, Note_on_c, 0, 54, 43
1, 111960, Control_c, 0, 64, 73
1, 111975, Control_c, 0, 64, 70
1, 111989, Control_c, 0, 64, 65
1, 111996, Note_off_c, 0, 50, 58
1, 111996, Note_off_c, 0, 54, 47
1, 112004, Control_c, 0, 64, 55
1, 112019, Control_c, 0, 64, 0
1, 112047, Note_on_c, 0, 54, 52
1, 112050, Note_on_c, 0, 50, 50
1, 112098, Note_off_c, 0, 50, 61
1, 112098, Note_off_c, 0, 54, 55
1, 112158, Note_off_c, 0, 66, 55
1, 112246, Note_off_c, 0, 78, 53
1, 112309, Note_on_c, 0, 79, 60
1, 112318, Note_on_c, 0, 67, 50
1, 112321, Note_on_c, 0, 45, 42
1, 112368, Control_c, 0, 64, 28
1, 112383, Control_c, 0, 64, 61
1, 112398, Control_c, 0, 64, 68
1, 112413, Control_c, 0, 64, 74
1, 112427, Control_c, 0, 64, 77
1, 112442, Control_c, 0, 64, 78
1, 112477, Note_off_c, 0, 45, 38
1, 112605, Control_c, 0, 64, 77
1, 112606, Note_on_c, 0, 52, 57
1, 112609, Note_on_c, 0, 55, 48
1, 112619, Control_c, 0, 64, 77
1, 112634, Control_c, 0, 64, 76
1, 112638, Note_off_c, 0, 52, 64
1, 112640, Note_off_c, 0, 55, 53
1, 112649, Control_c, 0, 64, 73
1, 112664, Control_c, 0, 64, 71
1, 112679, Control_c, 0, 64, 69
1, 112694, Control_c, 0, 64, 68
1, 112709, Control_c, 0, 64, 66
1, 112721, Note_on_c, 0, 55, 49
1, 112724, Control_c, 0, 64, 65
1, 112724, Note_on_c, 0, 52, 54
1, 112738, Control_c, 0, 64, 63
1, 112753, Control_c, 0, 64, 61
1, 112759, Note_off_c, 0, 55, 54
1, 112763, Note_off_c, 0, 52, 62
1, 112768, Control_c, 0, 64, 59
1, 112783, Control_c, 0, 64, 56
1, 112785, Note_off_c, 0, 67, 59
1, 112798, Control_c, 0, 64, 53
1, 112811, Note_off_c, 0, 79, 60
1, 112812, Control_c, 0, 64, 49
1, 112827, Control_c, 0, 64, 46
1, 112842, Control_c, 0, 64, 42
1, 112857, Control_c, 0, 64, 30
1, 112872, Control_c, 0, 64, 0
1, 112977, Note_on_c, 0, 80, 62
1, 112992, Note_on_c, 0, 68, 40
1, 112996, Note_on_c, 0, 45, 42
1, 113006, Control_c, 0, 64, 58
1, 113028, Control_c, 0, 64, 66
1, 113043, Control_c, 0, 64, 73
1, 113057, Control_c, 0, 64, 80
1, 113072, Control_c, 0, 64, 86
1, 113075, Note_off_c, 0, 68, 59
1, 113083, Note_off_c, 0, 45, 63
1, 113087, Control_c, 0, 64, 91
1, 113102, Control_c, 0, 64, 97
1, 113117, Control_c, 0, 64, 98
1, 113132, Control_c, 0, 64, 99
1, 113236, Control_c, 0, 64, 98
1, 113245, Note_on_c, 0, 83, 57
1, 113265, Control_c, 0, 64, 98
1, 113266, Note_on_c, 0, 71, 49
1, 113274, Note_on_c, 0, 56, 46
1, 113280, Note_off_c, 0, 80, 53
1, 113280, Control_c, 0, 64, 96
1, 113284, Note_on_c, 0, 53, 41
1, 113295, Control_c, 0, 64, 92
1, 113310, Control_c, 0, 64, 88
1, 113324, Control_c, 0, 64, 84
1, 113339, Control_c, 0, 64, 81
1, 113343, Note_off_c, 0, 71, 62
1, 113354, Control_c, 0, 64, 78
1, 113369, Control_c, 0, 64, 75
1, 113384, Control_c, 0, 64, 71
1, 113398, Control_c, 0, 64, 67
1, 113413, Control_c, 0, 64, 63
1, 113422, Note_off_c, 0, 53, 37
1, 113428, Control_c, 0, 64, 57
1, 113442, Control_c, 0, 64, 46
1, 113457, Control_c, 0, 64, 33
1, 113466, Note_on_c, 0, 81, 58
1, 113472, Control_c, 0, 64, 20
1, 113476, Note_on_c, 0, 69, 45
1, 113477, Note_on_c, 0, 57, 37
1, 113481, Note_off_c, 0, 83, 56
1, 113482, Note_on_c, 0, 54, 48
1, 113487, Control_c, 0, 64, 17
1, 113488, Note_off_c, 0, 56, 34
1, 113502, Control_c, 0, 64, 12
1, 113516, Control_c, 0, 64, 0
1, 113519, Note_off_c, 0, 69, 57
1, 113534, Note_off_c, 0, 54, 57
1, 113534, Note_off_c, 0, 81, 59
1, 113534, Note_off_c, 0, 57, 56
1, 113657, Note_on_c, 0, 81, 65
1, 113662, Note_on_c, 0, 57, 49
1, 113669, Note_on_c, 0, 69, 48
1, 113671, Note_on_c, 0, 54, 45
1, 113717, Note_off_c, 0, 69, 59
1, 113725, Note_off_c, 0, 81, 56
1, 113729, Note_off_c, 0, 54, 56
1, 113729, Note_off_c, 0, 57, 54
1, 113855, Note_on_c, 0, 81, 60
1, 113859, Note_on_c, 0, 69, 48
1, 113864, Note_on_c, 0, 57, 41
1, 113865, Note_on_c, 0, 54, 50
1, 113911, Note_off_c, 0, 81, 57
1, 113913, Note_off_c, 0, 69, 59
1, 113916, Note_off_c, 0, 57, 48
1, 113919, Note_off_c, 0, 54, 58
1, 113940, Control_c, 0, 67, 126
1, 113955, Control_c, 0, 67, 125
1, 113970, Control_c, 0, 67, 123
1, 113985, Control_c, 0, 67, 121
1, 113999, Control_c, 0, 67, 120
1, 114014, Control_c, 0, 67, 119
1, 114029, Control_c, 0, 67, 118
1, 114043, Note_on_c, 0, 54, 52
1, 114047, Note_on_c, 0, 69, 54
1, 114047, Note_on_c, 0, 81, 62
1, 114047, Note_on_c, 0, 57, 44
1, 114074, Control_c, 0, 67, 118
1, 114077, Note_off_c, 0, 54, 63
1, 114089, Control_c, 0, 67, 119
1, 114104, Control_c, 0, 67, 119
1, 114114, Note_off_c, 0, 69, 62
1, 114119, Control_c, 0, 67, 120
1, 114120, Note_off_c, 0, 57, 59
1, 114136, Note_off_c, 0, 81, 59
1, 114148, Control_c, 0, 67, 120
1, 114163, Control_c, 0, 67, 121
1, 114207, Control_c, 0, 67, 121
1, 114252, Control_c, 0, 67, 121
1, 114266, Control_c, 0, 67, 120
1, 114275, Note_on_c, 0, 83, 65
1, 114281, Control_c, 0, 67, 120
1, 114288, Note_on_c, 0, 71, 56
1, 114290, Note_on_c, 0, 45, 41
1, 114296, Control_c, 0, 67, 119
1, 114311, Control_c, 0, 67, 119
1, 114326, Control_c, 0, 64, 32
1, 114326, Control_c, 0, 67, 118
1, 114340, Control_c, 0, 64, 64
1, 114355, Control_c, 0, 64, 71
1, 114370, Control_c, 0, 64, 75
1, 114370, Control_c, 0, 67, 119
1, 114376, Note_off_c, 0, 45, 37
1, 114384, Control_c, 0, 64, 76
1, 114384, Control_c, 0, 67, 119
1, 114399, Control_c, 0, 67, 120
1, 114414, Control_c, 0, 67, 120
1, 114444, Control_c, 0, 67, 121
1, 114488, Control_c, 0, 64, 75
1, 114488, Control_c, 0, 67, 121
1, 114511, Control_c, 0, 64, 75
1, 114511, Control_c, 0, 67, 122
1, 114525, Control_c, 0, 64, 73
1, 114539, Control_c, 0, 64, 71
1, 114539, Control_c, 0, 67, 122
1, 114554, Control_c, 0, 64, 69
1, 114563, Note_on_c, 0, 59, 54
1, 114568, Note_on_c, 0, 55, 48
1, 114569, Control_c, 0, 64, 67
1, 114585, Control_c, 0, 64, 67
1, 114600, Control_c, 0, 64, 66
1, 114601, Note_off_c, 0, 59, 61
1, 114607, Note_off_c, 0, 55, 60
1, 114614, Control_c, 0, 64, 65
1, 114629, Control_c, 0, 64, 64
1, 114644, Control_c, 0, 64, 64
1, 114659, Control_c, 0, 64, 63
1, 114666, Note_on_c, 0, 59, 65
1, 114669, Note_on_c, 0, 55, 53
1, 114688, Control_c, 0, 64, 62
1, 114694, Note_off_c, 0, 71, 62
1, 114703, Control_c, 0, 64, 61
1, 114716, Note_off_c, 0, 55, 51
1, 114718, Control_c, 0, 64, 58
1, 114731, Note_off_c, 0, 83, 56
1, 114733, Control_c, 0, 64, 54
1, 114736, Note_off_c, 0, 59, 51
1, 114748, Control_c, 0, 64, 50
1, 114748, Control_c, 0, 67, 123
1, 114762, Control_c, 0, 64, 47
1, 114762, Control_c, 0, 67, 124
1, 114777, Control_c, 0, 64, 36
1, 114792, Control_c, 0, 64, 0
1, 114792, Control_c, 0, 67, 124
1, 114807, Control_c, 0, 67, 125
1, 114852, Control_c, 0, 67, 124
1, 114867, Control_c, 0, 67, 124
1, 114880, Note_on_c, 0, 85, 75
1, 114882, Control_c, 0, 67, 122
1, 114892, Note_on_c, 0, 73, 64
1, 114896, Control_c, 0, 67, 121
1, 114903, Note_on_c, 0, 45, 48
1, 114911, Control_c, 0, 67, 121
1, 114926, Control_c, 0, 64, 59
1, 114941, Control_c, 0, 64, 66
1, 114956, Control_c, 0, 64, 69
1, 114964, Note_off_c, 0, 45, 64
1, 114970, Control_c, 0, 64, 71
1, 114985, Control_c, 0, 64, 71
1, 115014, Control_c, 0, 64, 72
1, 115148, Control_c, 0, 67, 120
1, 115171, Note_on_c, 0, 61, 53
1, 115173, Note_on_c, 0, 52, 62
1, 115177, Control_c, 0, 67, 120
1, 115202, Note_off_c, 0, 61, 59
1, 115207, Control_c, 0, 64, 71
1, 115213, Note_off_c, 0, 52, 62
1, 115222, Control_c, 0, 64, 69
1, 115222, Control_c, 0, 67, 119
1, 115236, Control_c, 0, 64, 68
1, 115236, Control_c, 0, 67, 119
1, 115251, Control_c, 0, 64, 65
1, 115274, Note_on_c, 0, 52, 56
1, 115274, Control_c, 0, 64, 63
1, 115274, Control_c, 0, 67, 118
1, 115288, Control_c, 0, 64, 58
1, 115288, Control_c, 0, 67, 118
1, 115293, Note_on_c, 0, 61, 59
1, 115303, Control_c, 0, 64, 44
1, 115318, Control_c, 0, 64, 10
1, 115329, Note_off_c, 0, 61, 62
1, 115330, Note_off_c, 0, 52, 66
1, 115333, Control_c, 0, 64, 0
1, 115347, Control_c, 0, 67, 118
1, 115362, Control_c, 0, 67, 119
1, 115364, Note_off_c, 0, 85, 59
1, 115365, Note_off_c, 0, 73, 56
1, 115377, Control_c, 0, 67, 119
1, 115467, Control_c, 0, 67, 119
1, 115497, Control_c, 0, 67, 118
1, 115502, Note_on_c, 0, 85, 70
1, 115511, Control_c, 0, 67, 118
1, 115517, Note_on_c, 0, 73, 52
1, 115526, Control_c, 0, 64, 59
1, 115541, Note_on_c, 0, 45, 53
1, 115541, Control_c, 0, 64, 71
1, 115541, Control_c, 0, 67, 117
1, 115556, Control_c, 0, 64, 89
1, 115556, Control_c, 0, 67, 116
1, 115571, Control_c, 0, 64, 127
1, 115571, Control_c, 0, 67, 115
1, 115582, Note_off_c, 0, 73, 62
1, 115585, Control_c, 0, 67, 113
1, 115588, Note_off_c, 0, 45, 65
1, 115600, Control_c, 0, 67, 111
1, 115615, Control_c, 0, 67, 108
1, 115630, Control_c, 0, 67, 106
1, 115645, Control_c, 0, 67, 105
1, 115660, Control_c, 0, 67, 104
1, 115675, Control_c, 0, 67, 103
1, 115690, Control_c, 0, 67, 102
1, 115704, Control_c, 0, 67, 102
1, 115737, Note_on_c, 0, 88, 73
1, 115749, Control_c, 0, 67, 101
1, 115751, Note_on_c, 0, 76, 60
1, 115752, Note_on_c, 0, 52, 57
1, 115761, Note_on_c, 0, 61, 47
1, 115763, Control_c, 0, 67, 101
1, 115778, Control_c, 0, 67, 100
1, 115793, Control_c, 0, 67, 99
1, 115808, Control_c, 0, 67, 98
1, 115823, Control_c, 0, 64, 104
1, 115823, Control_c, 0, 67, 97
1, 115831, Note_off_c, 0, 76, 59
1, 115837, Control_c, 0, 64, 92
1, 115837, Control_c, 0, 67, 97
1, 115842, Note_off_c, 0, 85, 31
1, 115852, Control_c, 0, 64, 84
1, 115852, Control_c, 0, 67, 95
1, 115865, Note_off_c, 0, 52, 55
1, 115867, Control_c, 0, 64, 76
1, 115867, Control_c, 0, 67, 94
1, 115882, Control_c, 0, 64, 69
1, 115882, Control_c, 0, 67, 91
1, 115897, Control_c, 0, 64, 63
1, 115897, Control_c, 0, 67, 88
1, 115911, Control_c, 0, 64, 54
1, 115911, Control_c, 0, 67, 85
1, 115926, Control_c, 0, 64, 30
1, 115926, Control_c, 0, 67, 83
1, 115932, Note_on_c, 0, 86, 63
1, 115935, Note_off_c, 0, 88, 61
1, 115940, Note_on_c, 0, 74, 51
1, 115941, Note_off_c, 0, 61, 33
1, 115941, Control_c, 0, 64, 0
1, 115941, Control_c, 0, 67, 80
1, 115950, Note_on_c, 0, 54, 47
1, 115952, Note_on_c, 0, 62, 48
1, 115955, Control_c, 0, 67, 78
1, 115970, Control_c, 0, 67, 76
1, 115985, Control_c, 0, 67, 74
1, 115994, Note_off_c, 0, 74, 58
1, 115998, Note_off_c, 0, 86, 62
1, 116000, Control_c, 0, 67, 72
1, 116013, Note_off_c, 0, 54, 59
1, 116023, Control_c, 0, 67, 70
1, 116026, Note_off_c, 0, 62, 40
1, 116037, Control_c, 0, 67, 68
1, 116052, Control_c, 0, 67, 65
1, 116067, Control_c, 0, 67, 62
1, 116082, Control_c, 0, 67, 58
1, 116097, Control_c, 0, 67, 54
1, 116111, Control_c, 0, 67, 50
1, 116126, Control_c, 0, 67, 46
1, 116131, Note_on_c, 0, 86, 71
1, 116138, Note_on_c, 0, 74, 55
1, 116141, Control_c, 0, 67, 42
1, 116142, Note_on_c, 0, 54, 52
1, 116143, Note_on_c, 0, 62, 49
1, 116156, Control_c, 0, 67, 38
1, 116170, Control_c, 0, 67, 35
1, 116187, Control_c, 0, 67, 31
1, 116192, Note_off_c, 0, 86, 62
1, 116197, Note_off_c, 0, 54, 58
1, 116199, Note_off_c, 0, 74, 60
1, 116202, Control_c, 0, 67, 28
1, 116203, Note_off_c, 0, 62, 54
1, 116216, Control_c, 0, 67, 25
1, 116231, Control_c, 0, 67, 23
1, 116246, Control_c, 0, 67, 20
1, 116260, Control_c, 0, 67, 17
1, 116275, Control_c, 0, 67, 15
1, 116290, Control_c, 0, 67, 12
1, 116305, Control_c, 0, 67, 9
1, 116317, Note_on_c, 0, 86, 68
1, 116318, Note_on_c, 0, 54, 55
1, 116320, Control_c, 0, 67, 0
1, 116321, Note_on_c, 0, 74, 61
1, 116326, Note_on_c, 0, 62, 56
1, 116379, Note_off_c, 0, 86, 62
1, 116381, Note_off_c, 0, 62, 56
1, 116384, Note_off_c, 0, 74, 61
1, 116385, Note_off_c, 0, 54, 60
1, 116497, Note_on_c, 0, 86, 75
1, 116498, Note_on_c, 0, 74, 62
1, 116502, Note_on_c, 0, 62, 59
1, 116505, Note_on_c, 0, 54, 60
1, 116546, Note_off_c, 0, 54, 62
1, 116558, Note_off_c, 0, 62, 54
1, 116574, Note_off_c, 0, 74, 59
1, 116605, Note_off_c, 0, 86, 62
1, 116727, Note_on_c, 0, 88, 82
1, 116739, Note_on_c, 0, 76, 72
1, 116742, Note_on_c, 0, 45, 53
1, 116784, Control_c, 0, 64, 61
1, 116799, Control_c, 0, 64, 78
1, 116812, Note_off_c, 0, 45, 64
1, 116814, Control_c, 0, 64, 118
1, 116829, Control_c, 0, 64, 127
1, 116977, Control_c, 0, 64, 105
1, 116993, Control_c, 0, 64, 96
1, 117007, Control_c, 0, 64, 89
1, 117019, Note_on_c, 0, 55, 61
1, 117022, Note_on_c, 0, 64, 58
1, 117022, Control_c, 0, 64, 82
1, 117037, Control_c, 0, 64, 76
1, 117050, Note_off_c, 0, 64, 61
1, 117052, Control_c, 0, 64, 70
1, 117058, Note_off_c, 0, 55, 61
1, 117067, Control_c, 0, 64, 64
1, 117082, Control_c, 0, 64, 56
1, 117097, Control_c, 0, 64, 38
1, 117111, Control_c, 0, 64, 0
1, 117125, Note_on_c, 0, 55, 60
1, 117126, Note_on_c, 0, 64, 70
1, 117167, Note_off_c, 0, 55, 65
1, 117171, Note_off_c, 0, 64, 58
1, 117175, Note_off_c, 0, 88, 63
1, 117180, Note_off_c, 0, 76, 64
1, 117346, Note_on_c, 0, 90, 86
1, 117350, Note_on_c, 0, 78, 77
1, 117380, Note_on_c, 0, 45, 54
1, 117393, Control_c, 0, 64, 46
1, 117407, Control_c, 0, 64, 67
1, 117422, Control_c, 0, 64, 83
1, 117429, Note_off_c, 0, 45, 64
1, 117437, Control_c, 0, 64, 111
1, 117452, Control_c, 0, 64, 127
1, 117643, Note_on_c, 0, 66, 61
1, 117654, Note_on_c, 0, 57, 55
1, 117679, Note_off_c, 0, 66, 61
1, 117696, Note_off_c, 0, 57, 57
1, 117697, Control_c, 0, 64, 125
1, 117712, Control_c, 0, 64, 106
1, 117727, Control_c, 0, 64, 98
1, 117739, Note_off_c, 0, 90, 61
1, 117741, Control_c, 0, 64, 93
1, 117756, Control_c, 0, 64, 89
1, 117758, Note_on_c, 0, 66, 59
1, 117761, Note_on_c, 0, 57, 56
1, 117762, Note_off_c, 0, 78, 62
1, 117771, Control_c, 0, 64, 86
1, 117787, Control_c, 0, 64, 83
1, 117788, Note_off_c, 0, 66, 69
1, 117800, Note_off_c, 0, 57, 61
1, 117802, Control_c, 0, 64, 79
1, 117817, Control_c, 0, 64, 77
1, 117831, Control_c, 0, 64, 74
1, 117846, Control_c, 0, 64, 71
1, 117861, Control_c, 0, 64, 68
1, 117876, Control_c, 0, 64, 65
1, 117891, Control_c, 0, 64, 63
1, 117905, Control_c, 0, 64, 60
1, 117920, Control_c, 0, 64, 54
1, 117935, Control_c, 0, 64, 26
1, 117950, Control_c, 0, 64, 0
1, 118004, Note_on_c, 0, 85, 73
1, 118018, Note_on_c, 0, 73, 54
1, 118028, Note_on_c, 0, 45, 50
1, 118038, Control_c, 0, 64, 48
1, 118053, Control_c, 0, 64, 66
1, 118068, Control_c, 0, 64, 79
1, 118083, Control_c, 0, 64, 90
1, 118084, Note_off_c, 0, 73, 61
1, 118092, Note_off_c, 0, 45, 64
1, 118098, Control_c, 0, 64, 93
1, 118113, Control_c, 0, 64, 96
1, 118128, Control_c, 0, 64, 97
1, 118231, Control_c, 0, 64, 97
1, 118253, Control_c, 0, 64, 94
1, 118254, Note_on_c, 0, 88, 71
1, 118266, Note_on_c, 0, 76, 59
1, 118268, Control_c, 0, 64, 89
1, 118283, Control_c, 0, 64, 84
1, 118284, Note_on_c, 0, 52, 35
1, 118293, Note_on_c, 0, 61, 51
1, 118298, Control_c, 0, 64, 79
1, 118313, Control_c, 0, 64, 73
1, 118328, Control_c, 0, 64, 68
1, 118343, Note_off_c, 0, 85, 31
1, 118343, Control_c, 0, 64, 63
1, 118351, Note_off_c, 0, 76, 54
1, 118357, Control_c, 0, 64, 59
1, 118372, Control_c, 0, 64, 56
1, 118387, Control_c, 0, 64, 53
1, 118402, Control_c, 0, 64, 48
1, 118415, Note_off_c, 0, 52, 43
1, 118417, Control_c, 0, 64, 43
1, 118431, Control_c, 0, 64, 33
1, 118446, Control_c, 0, 64, 0
1, 118462, Note_on_c, 0, 86, 62
1, 118471, Note_on_c, 0, 74, 44
1, 118474, Note_off_c, 0, 88, 59
1, 118476, Note_on_c, 0, 54, 50
1, 118477, Note_on_c, 0, 62, 46
1, 118496, Note_off_c, 0, 61, 36
1, 118519, Note_off_c, 0, 74, 49
1, 118523, Note_off_c, 0, 54, 58
1, 118527, Note_off_c, 0, 86, 62
1, 118527, Note_off_c, 0, 62, 46
1, 118656, Note_on_c, 0, 86, 65
1, 118662, Note_on_c, 0, 54, 42
1, 118665, Note_on_c, 0, 62, 47
1, 118670, Note_on_c, 0, 74, 40
1, 118714, Note_off_c, 0, 74, 53
1, 118721, Note_off_c, 0, 86, 61
1, 118721, Note_off_c, 0, 54, 59
1, 118721, Note_off_c, 0, 62, 53
1, 118845, Note_on_c, 0, 86, 64
1, 118849, Note_on_c, 0, 62, 50
1, 118850, Note_on_c, 0, 54, 47
1, 118850, Note_on_c, 0, 74, 42
1, 118894, Note_off_c, 0, 54, 58
1, 118900, Note_off_c, 0, 74, 57
1, 118903, Note_off_c, 0, 86, 59
1, 118907, Note_off_c, 0, 62, 45
1, 119039, Note_on_c, 0, 86, 63
1, 119041, Note_on_c, 0, 62, 53
1, 119042, Note_on_c, 0, 74, 45
1, 119051, Note_on_c, 0, 54, 49
1, 119080, Note_off_c, 0, 74, 65
1, 119091, Note_off_c, 0, 62, 59
1, 119093, Note_off_c, 0, 54, 62
1, 119101, Note_off_c, 0, 86, 63
1, 119348, Note_on_c, 0, 95, 68
1, 119361, Note_on_c, 0, 45, 45
1, 119375, Note_on_c, 0, 83, 44
1, 119403, Control_c, 0, 64, 23
1, 119418, Control_c, 0, 64, 58
1, 119433, Control_c, 0, 64, 67
1, 119448, Control_c, 0, 64, 74
1, 119452, Note_off_c, 0, 45, 64
1, 119463, Control_c, 0, 64, 79
1, 119477, Control_c, 0, 64, 82
1, 119492, Control_c, 0, 64, 83
1, 119507, Control_c, 0, 64, 84
1, 119695, Note_on_c, 0, 55, 46
1, 119699, Control_c, 0, 64, 83
1, 119703, Note_on_c, 0, 64, 30
1, 119711, Note_off_c, 0, 95, 64
1, 119723, Note_off_c, 0, 55, 55
1, 119729, Control_c, 0, 64, 83
1, 119738, Note_off_c, 0, 64, 54
1, 119744, Control_c, 0, 64, 82
1, 119756, Note_off_c, 0, 83, 62
1, 119766, Control_c, 0, 64, 81
1, 119781, Control_c, 0, 64, 81
1, 119796, Control_c, 0, 64, 80
1, 119796, Control_c, 0, 67, 8
1, 119805, Note_on_c, 0, 64, 49
1, 119810, Control_c, 0, 64, 80
1, 119810, Control_c, 0, 67, 10
1, 119823, Note_on_c, 0, 55, 46
1, 119825, Control_c, 0, 64, 79
1, 119825, Control_c, 0, 67, 13
1, 119839, Note_off_c, 0, 64, 65
1, 119840, Control_c, 0, 64, 79
1, 119840, Control_c, 0, 67, 15
1, 119855, Control_c, 0, 64, 78
1, 119855, Control_c, 0, 67, 18
1, 119859, Note_off_c, 0, 55, 49
1, 119870, Control_c, 0, 64, 77
1, 119870, Control_c, 0, 67, 20
1, 119884, Control_c, 0, 64, 75
1, 119884, Control_c, 0, 67, 23
1, 119899, Control_c, 0, 64, 73
1, 119899, Control_c, 0, 67, 25
1, 119914, Control_c, 0, 64, 71
1, 119914, Control_c, 0, 67, 28
1, 119928, Control_c, 0, 64, 68
1, 119928, Control_c, 0, 67, 30
1, 119943, Control_c, 0, 64, 66
1, 119958, Control_c, 0, 64, 63
1, 119958, Control_c, 0, 67, 30
1, 119973, Control_c, 0, 64, 58
1, 119988, Control_c, 0, 64, 41
1, 120003, Control_c, 0, 64, 0
1, 120033, Control_c, 0, 67, 31
1, 120058, Note_on_c, 0, 85, 60
1, 120075, Note_on_c, 0, 73, 48
1, 120092, Control_c, 0, 67, 31
1, 120107, Control_c, 0, 67, 33
1, 120107, Note_on_c, 0, 45, 39
1, 120121, Control_c, 0, 64, 58
1, 120121, Control_c, 0, 67, 40
1, 120136, Control_c, 0, 64, 66
1, 120136, Control_c, 0, 67, 46
1, 120148, Note_off_c, 0, 45, 64
1, 120151, Control_c, 0, 64, 70
1, 120151, Control_c, 0, 67, 51
1, 120166, Control_c, 0, 64, 72
1, 120166, Control_c, 0, 67, 55
1, 120182, Control_c, 0, 64, 74
1, 120182, Control_c, 0, 67, 58
1, 120197, Control_c, 0, 64, 75
1, 120197, Control_c, 0, 67, 60
1, 120212, Control_c, 0, 64, 76
1, 120212, Control_c, 0, 67, 62
1, 120226, Control_c, 0, 67, 65
1, 120241, Control_c, 0, 67, 68
1, 120256, Control_c, 0, 67, 71
1, 120271, Control_c, 0, 67, 75
1, 120286, Control_c, 0, 67, 78
1, 120300, Control_c, 0, 67, 82
1, 120315, Control_c, 0, 67, 85
1, 120330, Control_c, 0, 67, 89
1, 120345, Control_c, 0, 67, 92
1, 120359, Control_c, 0, 67, 95
1, 120374, Control_c, 0, 67, 97
1, 120389, Control_c, 0, 67, 99
1, 120404, Control_c, 0, 67, 101
1, 120419, Control_c, 0, 67, 103
1, 120432, Note_on_c, 0, 66, 48
1, 120433, Control_c, 0, 67, 104
1, 120440, Note_on_c, 0, 57, 43
1, 120448, Control_c, 0, 64, 75
1, 120448, Control_c, 0, 67, 105
1, 120463, Control_c, 0, 67, 106
1, 120466, Note_off_c, 0, 66, 54
1, 120478, Control_c, 0, 67, 107
1, 120481, Note_off_c, 0, 57, 57
1, 120493, Control_c, 0, 64, 75
1, 120493, Control_c, 0, 67, 107
1, 120516, Control_c, 0, 67, 108
1, 120531, Control_c, 0, 67, 110
1, 120545, Control_c, 0, 67, 113
1, 120560, Control_c, 0, 64, 74
1, 120560, Control_c, 0, 67, 115
1, 120575, Control_c, 0, 67, 118
1, 120577, Note_on_c, 0, 57, 37
1, 120590, Control_c, 0, 67, 121
1, 120594, Note_on_c, 0, 66, 43
1, 120605, Control_c, 0, 67, 123
1, 120620, Control_c, 0, 67, 125
1, 120624, Note_off_c, 0, 66, 61
1, 120634, Control_c, 0, 67, 127
1, 120649, Control_c, 0, 67, 127
1, 120650, Note_off_c, 0, 57, 52
1, 120684, Note_off_c, 0, 85, 37
1, 120730, Note_off_c, 0, 73, 27
1, 120782, Control_c, 0, 64, 74
1, 120812, Control_c, 0, 64, 73
1, 120826, Control_c, 0, 64, 72
1, 120841, Control_c, 0, 64, 71
1, 120856, Control_c, 0, 64, 70
1, 120871, Control_c, 0, 64, 69
1, 120886, Control_c, 0, 64, 69
1, 120900, Control_c, 0, 64, 68
1, 120915, Control_c, 0, 64, 67
1, 120930, Control_c, 0, 64, 66
1, 120945, Control_c, 0, 64, 65
1, 120960, Control_c, 0, 64, 62
1, 120975, Control_c, 0, 64, 55
1, 120982, Note_on_c, 0, 85, 52
1, 120990, Control_c, 0, 64, 0
1, 121010, Note_on_c, 0, 73, 38
1, 121042, Note_on_c, 0, 38, 35
1, 121079, Control_c, 0, 64, 56
1, 121094, Control_c, 0, 64, 68
1, 121109, Control_c, 0, 64, 78
1, 121116, Note_off_c, 0, 73, 49
1, 121124, Control_c, 0, 64, 91
1, 121128, Note_off_c, 0, 38, 55
1, 121139, Control_c, 0, 64, 94
1, 121154, Control_c, 0, 64, 95
1, 121353, Control_c, 0, 64, 95
1, 121373, Note_on_c, 0, 88, 59
1, 121382, Control_c, 0, 64, 94
1, 121392, Note_on_c, 0, 76, 39
1, 121397, Control_c, 0, 64, 93
1, 121404, Note_on_c, 0, 61, 43
1, 121412, Control_c, 0, 64, 92
1, 121413, Note_on_c, 0, 52, 44
1, 121427, Control_c, 0, 64, 92
1, 121442, Control_c, 0, 64, 91
1, 121456, Control_c, 0, 64, 90
1, 121457, Note_off_c, 0, 85, 38
1, 121471, Control_c, 0, 64, 89
1, 121473, Note_off_c, 0, 76, 47
1, 121486, Control_c, 0, 64, 88
1, 121501, Control_c, 0, 64, 87
1, 121516, Control_c, 0, 64, 86
1, 121530, Control_c, 0, 64, 86
1, 121545, Control_c, 0, 64, 85
1, 121560, Control_c, 0, 64, 84
1, 121571, Note_off_c, 0, 52, 36
1, 121574, Control_c, 0, 64, 83
1, 121589, Control_c, 0, 64, 83
1, 121604, Control_c, 0, 64, 76
1, 121619, Control_c, 0, 64, 65
1, 121632, Note_off_c, 0, 61, 37
1, 121633, Note_on_c, 0, 86, 52
1, 121634, Control_c, 0, 64, 0
1, 121637, Note_on_c, 0, 74, 40
1, 121647, Note_on_c, 0, 62, 42
1, 121653, Note_off_c, 0, 88, 48
1, 121654, Note_on_c, 0, 54, 41
1, 121693, Control_c, 0, 64, 38
1, 121708, Control_c, 0, 64, 61
1, 121723, Control_c, 0, 64, 66
1, 121723, Note_off_c, 0, 54, 55
1, 121731, Note_off_c, 0, 86, 56
1, 121732, Note_off_c, 0, 74, 54
1, 121738, Control_c, 0, 64, 69
1, 121747, Note_off_c, 0, 62, 37
1, 121753, Control_c, 0, 64, 71
1, 121768, Control_c, 0, 64, 73
1, 121849, Note_on_c, 0, 86, 49
1, 121856, Note_on_c, 0, 74, 42
1, 121857, Note_on_c, 0, 54, 35
1, 121857, Control_c, 0, 64, 73
1, 121859, Note_on_c, 0, 62, 31
1, 121887, Control_c, 0, 64, 74
1, 121917, Control_c, 0, 64, 74
1, 121917, Note_off_c, 0, 86, 54
1, 121924, Note_off_c, 0, 74, 50
1, 121930, Note_off_c, 0, 54, 54
1, 121945, Note_off_c, 0, 62, 41
1, 121961, Control_c, 0, 64, 75
1, 121976, Control_c, 0, 64, 76
1, 121997, Control_c, 0, 64, 76
1, 122012, Control_c, 0, 64, 77
1, 122027, Control_c, 0, 64, 77
1, 122063, Note_on_c, 0, 86, 48
1, 122070, Note_on_c, 0, 62, 35
1, 122072, Control_c, 0, 64, 78
1, 122081, Note_on_c, 0, 74, 34
1, 122086, Note_on_c, 0, 54, 31
1, 122087, Control_c, 0, 64, 78
1, 122101, Control_c, 0, 64, 79
1, 122116, Control_c, 0, 64, 79
1, 122126, Note_off_c, 0, 74, 52
1, 122131, Note_off_c, 0, 86, 54
1, 122139, Note_off_c, 0, 54, 43
1, 122143, Note_off_c, 0, 62, 38
1, 122146, Control_c, 0, 64, 80
1, 122176, Control_c, 0, 64, 80
1, 122265, Note_on_c, 0, 86, 57
1, 122287, Note_on_c, 0, 54, 38
1, 122293, Note_on_c, 0, 62, 37
1, 122301, Note_on_c, 0, 74, 31
1, 122318, Note_off_c, 0, 54, 55
1, 122324, Note_off_c, 0, 86, 62
1, 122341, Note_off_c, 0, 62, 56
1, 122372, Note_off_c, 0, 74, 50
1, 122412, Control_c, 0, 64, 81
1, 122595, Note_on_c, 0, 57, 37
1, 122606, Control_c, 0, 64, 80
1, 122635, Control_c, 0, 64, 80
1, 122650, Control_c, 0, 64, 77
1, 122665, Control_c, 0, 64, 69
1, 122674, Note_on_c, 0, 73, 62
1, 122680, Control_c, 0, 64, 60
1, 122695, Control_c, 0, 64, 17
1, 122710, Control_c, 0, 64, 0
1, 122761, Control_c, 0, 64, 42
1, 122776, Control_c, 0, 64, 59
1, 122791, Control_c, 0, 64, 65
1, 122806, Control_c, 0, 64, 69
1, 122820, Control_c, 0, 64, 73
1, 122835, Control_c, 0, 64, 75
1, 122850, Control_c, 0, 64, 76
1, 122854, Note_on_c, 0, 81, 52
1, 122865, Control_c, 0, 64, 76
1, 122880, Control_c, 0, 64, 77
1, 122894, Control_c, 0, 64, 77
1, 122909, Control_c, 0, 64, 78
1, 122920, Note_on_c, 0, 67, 37
1, 122926, Note_off_c, 0, 81, 60
1, 122931, Note_on_c, 0, 64, 32
1, 122939, Control_c, 0, 64, 78
1, 122954, Control_c, 0, 64, 79
1, 122954, Note_on_c, 0, 80, 55
1, 122956, Note_off_c, 0, 73, 34
1, 122976, Note_off_c, 0, 67, 0
1, 122976, Note_on_c, 0, 67, 5
1, 122999, Control_c, 0, 64, 79
1, 123040, Note_on_c, 0, 81, 59
1, 123067, Note_off_c, 0, 80, 34
1, 123073, Control_c, 0, 64, 80
1, 123085, Note_off_c, 0, 57, 48
1, 123098, Note_off_c, 0, 81, 57
1, 123102, Control_c, 0, 64, 80
1, 123124, Note_on_c, 0, 73, 59
1, 123198, Note_off_c, 0, 67, 44
1, 123209, Note_off_c, 0, 73, 54
1, 123216, Note_on_c, 0, 81, 56
1, 123273, Note_off_c, 0, 81, 54
1, 123315, Note_on_c, 0, 71, 63
1, 123319, Note_on_c, 0, 57, 48
1, 123321, Note_off_c, 0, 64, 32
1, 123339, Control_c, 0, 64, 78
1, 123353, Control_c, 0, 64, 72
1, 123369, Control_c, 0, 64, 64
1, 123384, Control_c, 0, 64, 29
1, 123399, Control_c, 0, 64, 0
1, 123425, Note_on_c, 0, 81, 52
1, 123458, Control_c, 0, 64, 19
1, 123473, Control_c, 0, 64, 54
1, 123488, Control_c, 0, 64, 63
1, 123508, Note_off_c, 0, 71, 35
1, 123510, Note_off_c, 0, 81, 60
1, 123511, Control_c, 0, 64, 66
1, 123525, Control_c, 0, 64, 68
1, 123528, Note_on_c, 0, 80, 60
1, 123535, Note_on_c, 0, 66, 36
1, 123540, Control_c, 0, 64, 70
1, 123541, Note_on_c, 0, 62, 42
1, 123555, Control_c, 0, 64, 72
1, 123570, Control_c, 0, 64, 73
1, 123584, Control_c, 0, 64, 74
1, 123599, Control_c, 0, 64, 74
1, 123605, Note_off_c, 0, 80, 55
1, 123614, Control_c, 0, 64, 75
1, 123625, Note_on_c, 0, 81, 57
1, 123629, Control_c, 0, 64, 75
1, 123644, Control_c, 0, 64, 76
1, 123673, Control_c, 0, 64, 76
1, 123678, Note_off_c, 0, 81, 59
1, 123714, Note_off_c, 0, 57, 49
1, 123718, Note_on_c, 0, 71, 49
1, 123778, Note_off_c, 0, 71, 56
1, 123810, Note_on_c, 0, 81, 57
1, 123851, Note_off_c, 0, 62, 36
1, 123866, Note_off_c, 0, 81, 58
1, 123881, Control_c, 0, 64, 76
1, 123896, Note_on_c, 0, 57, 37
1, 123908, Note_on_c, 0, 69, 54
1, 123925, Control_c, 0, 64, 75
1, 123934, Note_off_c, 0, 66, 42
1, 123940, Control_c, 0, 64, 74
1, 123955, Control_c, 0, 64, 74
1, 123969, Control_c, 0, 64, 72
1, 123984, Control_c, 0, 64, 71
1, 123988, Note_off_c, 0, 69, 53
1, 123999, Control_c, 0, 64, 70
1, 124003, Note_on_c, 0, 71, 55
1, 124014, Control_c, 0, 64, 69
1, 124029, Control_c, 0, 64, 68
1, 124043, Control_c, 0, 64, 68
1, 124058, Control_c, 0, 64, 67
1, 124073, Control_c, 0, 64, 66
1, 124081, Note_off_c, 0, 71, 55
1, 124092, Note_on_c, 0, 73, 64
1, 124096, Note_on_c, 0, 64, 48
1, 124097, Note_on_c, 0, 61, 53
1, 124102, Control_c, 0, 64, 66
1, 124117, Control_c, 0, 64, 65
1, 124132, Control_c, 0, 64, 65
1, 124160, Note_off_c, 0, 73, 62
1, 124162, Control_c, 0, 64, 64
1, 124185, Note_on_c, 0, 74, 65
1, 124192, Control_c, 0, 64, 64
1, 124237, Control_c, 0, 64, 63
1, 124275, Control_c, 0, 64, 63
1, 124279, Note_off_c, 0, 74, 59
1, 124281, Note_off_c, 0, 64, 48
1, 124286, Note_on_c, 0, 76, 67
1, 124289, Note_on_c, 0, 62, 59
1, 124289, Control_c, 0, 64, 62
1, 124290, Note_off_c, 0, 61, 56
1, 124299, Note_on_c, 0, 59, 42
1, 124319, Control_c, 0, 64, 62
1, 124334, Control_c, 0, 64, 61
1, 124349, Control_c, 0, 64, 60
1, 124364, Control_c, 0, 64, 59
1, 124379, Control_c, 0, 64, 57
1, 124380, Note_on_c, 0, 74, 66
1, 124394, Control_c, 0, 64, 54
1, 124408, Control_c, 0, 64, 41
1, 124415, Note_off_c, 0, 76, 38
1, 124423, Control_c, 0, 64, 0
1, 124450, Note_off_c, 0, 74, 60
1, 124459, Note_off_c, 0, 62, 59
1, 124467, Note_on_c, 0, 73, 68
1, 124486, Note_off_c, 0, 59, 55
1, 124491, Note_on_c, 0, 61, 56
1, 124506, Note_on_c, 0, 64, 38
1, 124531, Note_off_c, 0, 73, 62
1, 124537, Note_off_c, 0, 61, 60
1, 124558, Note_on_c, 0, 74, 62
1, 124624, Note_off_c, 0, 64, 60
1, 124647, Note_off_c, 0, 74, 63
1, 124656, Note_on_c, 0, 76, 57
1, 124680, Note_on_c, 0, 66, 45
1, 124689, Note_on_c, 0, 62, 35
1, 124742, Note_off_c, 0, 76, 60
1, 124746, Note_on_c, 0, 78, 62
1, 124755, Note_off_c, 0, 66, 63
1, 124804, Note_off_c, 0, 78, 63
1, 124827, Note_off_c, 0, 62, 51
1, 124834, Note_on_c, 0, 79, 66
1, 124850, Note_on_c, 0, 64, 48
1, 124857, Note_on_c, 0, 67, 50
1, 124871, Note_off_c, 0, 57, 42
1, 124904, Note_off_c, 0, 79, 53
1, 124912, Note_off_c, 0, 67, 53
1, 124929, Note_off_c, 0, 64, 38
1, 124933, Note_on_c, 0, 81, 63
1, 125029, Note_off_c, 0, 81, 61
1, 125056, Note_on_c, 0, 78, 67
1, 125060, Note_on_c, 0, 57, 45
1, 125144, Note_on_c, 0, 86, 64
1, 125186, Control_c, 0, 64, 23
1, 125201, Control_c, 0, 64, 44
1, 125216, Control_c, 0, 64, 54
1, 125222, Note_off_c, 0, 86, 63
1, 125230, Control_c, 0, 64, 58
1, 125231, Note_on_c, 0, 85, 64
1, 125245, Control_c, 0, 64, 60
1, 125252, Note_off_c, 0, 78, 49
1, 125252, Note_on_c, 0, 62, 54
1, 125256, Note_on_c, 0, 66, 52
1, 125260, Control_c, 0, 64, 61
1, 125275, Control_c, 0, 64, 62
1, 125290, Control_c, 0, 64, 62
1, 125304, Control_c, 0, 64, 63
1, 125319, Control_c, 0, 64, 63
1, 125328, Note_on_c, 0, 86, 71
1, 125334, Control_c, 0, 64, 64
1, 125339, Note_off_c, 0, 85, 52
1, 125363, Control_c, 0, 64, 65
1, 125378, Control_c, 0, 64, 66
1, 125393, Control_c, 0, 64, 67
1, 125394, Note_off_c, 0, 86, 62
1, 125408, Control_c, 0, 64, 67
1, 125413, Note_on_c, 0, 78, 72
1, 125422, Control_c, 0, 64, 68
1, 125444, Note_off_c, 0, 57, 49
1, 125456, Note_off_c, 0, 62, 51
1, 125500, Note_on_c, 0, 86, 67
1, 125513, Note_off_c, 0, 78, 58
1, 125555, Note_off_c, 0, 66, 37
1, 125590, Note_off_c, 0, 86, 61
1, 125600, Note_on_c, 0, 57, 42
1, 125615, Control_c, 0, 64, 67
1, 125622, Note_on_c, 0, 79, 68
1, 125630, Control_c, 0, 64, 67
1, 125645, Control_c, 0, 64, 66
1, 125659, Control_c, 0, 64, 64
1, 125674, Control_c, 0, 64, 59
1, 125689, Control_c, 0, 64, 39
1, 125704, Control_c, 0, 64, 0
1, 125732, Note_on_c, 0, 86, 57
1, 125801, Control_c, 0, 64, 28
1, 125816, Control_c, 0, 64, 53
1, 125825, Note_off_c, 0, 79, 34
1, 125830, Note_off_c, 0, 86, 61
1, 125831, Control_c, 0, 64, 59
1, 125843, Note_on_c, 0, 67, 45
1, 125845, Control_c, 0, 64, 61
1, 125851, Note_on_c, 0, 85, 58
1, 125854, Note_on_c, 0, 64, 44
1, 125860, Control_c, 0, 64, 62
1, 125875, Control_c, 0, 64, 63
1, 125890, Control_c, 0, 64, 64
1, 125905, Control_c, 0, 64, 66
1, 125920, Control_c, 0, 64, 68
1, 125935, Control_c, 0, 64, 69
1, 125941, Note_on_c, 0, 86, 60
1, 125950, Control_c, 0, 64, 70
1, 125965, Control_c, 0, 64, 72
1, 125979, Control_c, 0, 64, 73
1, 125993, Note_off_c, 0, 86, 58
1, 125994, Control_c, 0, 64, 73
1, 126009, Control_c, 0, 64, 74
1, 126023, Note_on_c, 0, 79, 55
1, 126024, Control_c, 0, 64, 74
1, 126039, Control_c, 0, 64, 75
1, 126049, Note_off_c, 0, 57, 34
1, 126053, Control_c, 0, 64, 76
1, 126068, Control_c, 0, 64, 76
1, 126077, Note_off_c, 0, 85, 40
1, 126083, Control_c, 0, 64, 77
1, 126086, Note_off_c, 0, 79, 48
1, 126097, Control_c, 0, 64, 78
1, 126104, Note_off_c, 0, 67, 37
1, 126112, Control_c, 0, 64, 79
1, 126114, Note_on_c, 0, 86, 57
1, 126141, Note_off_c, 0, 64, 33
1, 126142, Control_c, 0, 64, 73
1, 126157, Control_c, 0, 64, 63
1, 126171, Control_c, 0, 64, 36
1, 126186, Control_c, 0, 64, 0
1, 126200, Note_off_c, 0, 86, 50
1, 126201, Control_c, 0, 64, 34
1, 126205, Note_on_c, 0, 57, 46
1, 126206, Note_on_c, 0, 81, 58
1, 126216, Control_c, 0, 64, 50
1, 126231, Control_c, 0, 64, 60
1, 126245, Control_c, 0, 64, 64
1, 126266, Note_off_c, 0, 57, 61
1, 126293, Note_on_c, 0, 83, 49
1, 126298, Note_off_c, 0, 81, 53
1, 126334, Control_c, 0, 64, 64
1, 126379, Control_c, 0, 64, 63
1, 126380, Note_on_c, 0, 85, 64
1, 126397, Note_on_c, 0, 66, 58
1, 126406, Note_on_c, 0, 69, 52
1, 126409, Note_off_c, 0, 83, 57
1, 126468, Control_c, 0, 67, 125
1, 126472, Note_on_c, 0, 86, 66
1, 126473, Note_off_c, 0, 85, 61
1, 126489, Control_c, 0, 64, 63
1, 126489, Control_c, 0, 67, 121
1, 126504, Control_c, 0, 67, 117
1, 126519, Control_c, 0, 64, 62
1, 126519, Control_c, 0, 67, 113
1, 126534, Control_c, 0, 67, 110
1, 126549, Control_c, 0, 67, 107
1, 126565, Control_c, 0, 64, 62
1, 126565, Control_c, 0, 67, 104
1, 126566, Note_off_c, 0, 86, 63
1, 126576, Note_on_c, 0, 85, 72
1, 126580, Control_c, 0, 67, 101
1, 126585, Note_on_c, 0, 68, 56
1, 126594, Note_off_c, 0, 66, 65
1, 126594, Control_c, 0, 64, 61
1, 126594, Control_c, 0, 67, 97
1, 126596, Note_on_c, 0, 65, 58
1, 126609, Control_c, 0, 64, 61
1, 126609, Control_c, 0, 67, 93
1, 126619, Note_off_c, 0, 69, 39
1, 126624, Control_c, 0, 64, 60
1, 126624, Control_c, 0, 67, 89
1, 126639, Control_c, 0, 67, 86
1, 126649, Note_off_c, 0, 85, 63
1, 126654, Control_c, 0, 64, 60
1, 126654, Control_c, 0, 67, 83
1, 126662, Note_on_c, 0, 86, 78
1, 126668, Control_c, 0, 67, 81
1, 126683, Control_c, 0, 67, 78
1, 126698, Control_c, 0, 67, 74
1, 126713, Control_c, 0, 67, 71
1, 126728, Control_c, 0, 67, 68
1, 126743, Control_c, 0, 64, 59
1, 126743, Control_c, 0, 67, 65
1, 126756, Note_off_c, 0, 86, 56
1, 126758, Note_on_c, 0, 90, 69
1, 126758, Control_c, 0, 64, 58
1, 126758, Control_c, 0, 67, 62
1, 126773, Control_c, 0, 64, 57
1, 126773, Control_c, 0, 67, 60
1, 126782, Note_off_c, 0, 68, 64
1, 126787, Control_c, 0, 64, 55
1, 126787, Control_c, 0, 67, 57
1, 126790, Note_on_c, 0, 69, 45
1, 126795, Note_on_c, 0, 66, 53
1, 126802, Note_off_c, 0, 65, 47
1, 126802, Control_c, 0, 64, 54
1, 126802, Control_c, 0, 67, 54
1, 126817, Control_c, 0, 67, 51
1, 126832, Control_c, 0, 64, 54
1, 126832, Control_c, 0, 67, 48
1, 126846, Note_on_c, 0, 88, 62
1, 126847, Control_c, 0, 64, 53
1, 126847, Control_c, 0, 67, 46
1, 126850, Note_off_c, 0, 90, 62
1, 126862, Control_c, 0, 64, 53
1, 126862, Control_c, 0, 67, 43
1, 126876, Control_c, 0, 64, 51
1, 126876, Control_c, 0, 67, 42
1, 126890, Note_off_c, 0, 88, 64
1, 126891, Control_c, 0, 64, 50
1, 126891, Control_c, 0, 67, 40
1, 126906, Control_c, 0, 64, 49
1, 126906, Control_c, 0, 67, 39
1, 126908, Note_on_c, 0, 86, 61
1, 126920, Control_c, 0, 64, 47
1, 126920, Control_c, 0, 67, 38
1, 126935, Control_c, 0, 64, 46
1, 126935, Control_c, 0, 67, 38
1, 126943, Note_off_c, 0, 86, 57
1, 126950, Control_c, 0, 64, 44
1, 126951, Note_on_c, 0, 88, 58
1, 126965, Control_c, 0, 64, 39
1, 126979, Note_off_c, 0, 66, 61
1, 126980, Control_c, 0, 64, 28
1, 126994, Control_c, 0, 64, 0
1, 126999, Note_on_c, 0, 67, 50
1, 126999, Note_on_c, 0, 71, 50
1, 127001, Note_on_c, 0, 86, 70
1, 127008, Note_off_c, 0, 69, 38
1, 127009, Control_c, 0, 67, 38
1, 127024, Control_c, 0, 67, 39
1, 127050, Note_off_c, 0, 88, 56
1, 127087, Note_on_c, 0, 85, 68
1, 127092, Note_off_c, 0, 86, 55
1, 127142, Control_c, 0, 67, 38
1, 127151, Note_off_c, 0, 85, 64
1, 127157, Control_c, 0, 67, 38
1, 127158, Note_off_c, 0, 71, 57
1, 127168, Note_off_c, 0, 67, 57
1, 127169, Note_on_c, 0, 66, 59
1, 127172, Control_c, 0, 67, 37
1, 127175, Note_on_c, 0, 86, 67
1, 127185, Note_on_c, 0, 69, 54
1, 127201, Note_off_c, 0, 66, 68
1, 127202, Control_c, 0, 67, 37
1, 127266, Note_off_c, 0, 86, 54
1, 127277, Note_off_c, 0, 69, 51
1, 127285, Note_on_c, 0, 88, 65
1, 127343, Control_c, 0, 67, 37
1, 127374, Control_c, 0, 67, 38
1, 127404, Note_on_c, 0, 57, 48
1, 127405, Note_off_c, 0, 88, 64
1, 127419, Note_on_c, 0, 85, 73
1, 127519, Note_on_c, 0, 93, 66
1, 127536, Control_c, 0, 64, 39
1, 127551, Control_c, 0, 64, 51
1, 127551, Control_c, 0, 67, 38
1, 127566, Control_c, 0, 64, 56
1, 127566, Control_c, 0, 67, 39
1, 127581, Control_c, 0, 64, 59
1, 127581, Control_c, 0, 67, 39
1, 127596, Control_c, 0, 64, 62
1, 127596, Control_c, 0, 67, 40
1, 127609, Note_on_c, 0, 67, 48
1, 127610, Note_on_c, 0, 64, 43
1, 127611, Control_c, 0, 64, 64
1, 127611, Note_on_c, 0, 92, 76
1, 127615, Note_off_c, 0, 93, 61
1, 127618, Note_off_c, 0, 85, 52
1, 127625, Control_c, 0, 64, 66
1, 127625, Control_c, 0, 67, 41
1, 127640, Control_c, 0, 64, 68
1, 127655, Control_c, 0, 64, 70
1, 127655, Control_c, 0, 67, 41
1, 127670, Control_c, 0, 64, 71
1, 127670, Control_c, 0, 67, 42
1, 127685, Control_c, 0, 64, 72
1, 127685, Control_c, 0, 67, 43
1, 127700, Control_c, 0, 64, 72
1, 127712, Note_on_c, 0, 93, 79
1, 127715, Control_c, 0, 64, 73
1, 127715, Control_c, 0, 67, 44
1, 127728, Note_off_c, 0, 57, 61
1, 127744, Control_c, 0, 67, 44
1, 127759, Control_c, 0, 67, 45
1, 127781, Note_off_c, 0, 93, 59
1, 127789, Control_c, 0, 67, 45
1, 127798, Note_on_c, 0, 85, 71
1, 127804, Control_c, 0, 67, 46
1, 127808, Note_off_c, 0, 67, 53
1, 127810, Note_off_c, 0, 92, 27
1, 127818, Control_c, 0, 67, 46
1, 127833, Control_c, 0, 67, 47
1, 127848, Control_c, 0, 67, 48
1, 127862, Control_c, 0, 67, 48
1, 127877, Control_c, 0, 67, 49
1, 127880, Note_on_c, 0, 93, 70
1, 127888, Note_off_c, 0, 85, 62
1, 127892, Control_c, 0, 67, 49
1, 127901, Note_off_c, 0, 64, 35
1, 127907, Control_c, 0, 67, 50
1, 127922, Control_c, 0, 67, 51
1, 127936, Control_c, 0, 67, 51
1, 127951, Control_c, 0, 67, 52
1, 127962, Note_off_c, 0, 93, 60
1, 127966, Control_c, 0, 67, 53
1, 127975, Note_on_c, 0, 57, 40
1, 127981, Control_c, 0, 64, 72
1, 127981, Control_c, 0, 67, 55
1, 128001, Note_on_c, 0, 83, 66
1, 128004, Control_c, 0, 64, 68
1, 128004, Control_c, 0, 67, 56
1, 128018, Control_c, 0, 64, 61
1, 128018, Control_c, 0, 67, 57
1, 128033, Control_c, 0, 64, 41
1, 128033, Control_c, 0, 67, 59
1, 128048, Control_c, 0, 64, 0
1, 128048, Control_c, 0, 67, 60
1, 128063, Control_c, 0, 67, 61
1, 128077, Control_c, 0, 67, 62
1, 128092, Control_c, 0, 67, 64
1, 128096, Note_on_c, 0, 93, 62
1, 128107, Control_c, 0, 64, 26
1, 128107, Control_c, 0, 67, 65
1, 128122, Control_c, 0, 64, 49
1, 128122, Control_c, 0, 67, 67
1, 128137, Control_c, 0, 64, 58
1, 128137, Control_c, 0, 67, 70
1, 128150, Note_off_c, 0, 83, 33
1, 128151, Control_c, 0, 64, 61
1, 128151, Control_c, 0, 67, 72
1, 128167, Control_c, 0, 64, 62
1, 128167, Control_c, 0, 67, 74
1, 128173, Note_off_c, 0, 93, 60
1, 128182, Control_c, 0, 64, 63
1, 128182, Control_c, 0, 67, 75
1, 128190, Note_on_c, 0, 92, 66
1, 128194, Note_on_c, 0, 62, 48
1, 128197, Control_c, 0, 64, 64
1, 128197, Control_c, 0, 67, 78
1, 128208, Note_on_c, 0, 66, 30
1, 128212, Control_c, 0, 64, 65
1, 128212, Control_c, 0, 67, 80
1, 128227, Control_c, 0, 64, 67
1, 128227, Control_c, 0, 67, 82
1, 128241, Control_c, 0, 64, 68
1, 128241, Control_c, 0, 67, 84
1, 128256, Control_c, 0, 64, 69
1, 128256, Control_c, 0, 67, 85
1, 128271, Control_c, 0, 64, 70
1, 128271, Control_c, 0, 67, 85
1, 128278, Note_off_c, 0, 92, 56
1, 128285, Control_c, 0, 64, 71
1, 128285, Control_c, 0, 67, 86
1, 128288, Note_on_c, 0, 93, 64
1, 128300, Control_c, 0, 64, 71
1, 128300, Control_c, 0, 67, 86
1, 128315, Control_c, 0, 64, 72
1, 128315, Control_c, 0, 67, 87
1, 128343, Note_off_c, 0, 93, 61
1, 128375, Note_on_c, 0, 83, 58
1, 128398, Note_off_c, 0, 57, 36
1, 128433, Control_c, 0, 67, 86
1, 128446, Note_off_c, 0, 62, 35
1, 128448, Note_off_c, 0, 83, 59
1, 128469, Note_on_c, 0, 93, 63
1, 128478, Control_c, 0, 67, 86
1, 128493, Control_c, 0, 64, 71
1, 128507, Control_c, 0, 67, 85
1, 128522, Control_c, 0, 67, 85
1, 128523, Note_on_c, 0, 57, 43
1, 128523, Note_off_c, 0, 93, 59
1, 128537, Control_c, 0, 64, 71
1, 128564, Note_on_c, 0, 81, 57
1, 128567, Control_c, 0, 64, 70
1, 128567, Control_c, 0, 67, 84
1, 128577, Note_off_c, 0, 66, 40
1, 128582, Control_c, 0, 64, 70
1, 128597, Control_c, 0, 64, 69
1, 128612, Control_c, 0, 64, 68
1, 128612, Control_c, 0, 67, 84
1, 128627, Control_c, 0, 64, 68
1, 128627, Control_c, 0, 67, 83
1, 128639, Note_off_c, 0, 81, 57
1, 128641, Control_c, 0, 64, 67
1, 128653, Note_on_c, 0, 83, 57
1, 128656, Control_c, 0, 64, 66
1, 128656, Control_c, 0, 67, 83
1, 128671, Control_c, 0, 64, 65
1, 128685, Control_c, 0, 64, 65
1, 128685, Control_c, 0, 67, 82
1, 128700, Control_c, 0, 64, 64
1, 128700, Control_c, 0, 67, 82
1, 128728, Note_off_c, 0, 83, 60
1, 128730, Control_c, 0, 64, 64
1, 128730, Control_c, 0, 67, 81
1, 128731, Note_on_c, 0, 85, 73
1, 128744, Note_on_c, 0, 61, 52
1, 128749, Note_on_c, 0, 64, 53
1, 128752, Control_c, 0, 64, 63
1, 128752, Control_c, 0, 67, 81
1, 128767, Control_c, 0, 64, 63
1, 128782, Control_c, 0, 64, 62
1, 128782, Control_c, 0, 67, 80
1, 128797, Control_c, 0, 67, 79
1, 128807, Note_off_c, 0, 85, 65
1, 128811, Control_c, 0, 64, 62
1, 128811, Control_c, 0, 67, 79
1, 128826, Control_c, 0, 64, 61
1, 128832, Note_on_c, 0, 86, 71
1, 128841, Control_c, 0, 67, 78
1, 128856, Control_c, 0, 67, 77
1, 128871, Control_c, 0, 64, 61
1, 128871, Control_c, 0, 67, 77
1, 128900, Control_c, 0, 64, 60
1, 128915, Control_c, 0, 64, 59
1, 128915, Control_c, 0, 67, 76
1, 128919, Note_on_c, 0, 88, 70
1, 128923, Note_off_c, 0, 86, 59
1, 128930, Control_c, 0, 64, 58
1, 128931, Note_on_c, 0, 62, 64
1, 128941, Note_on_c, 0, 59, 50
1, 128942, Note_off_c, 0, 64, 46
1, 128945, Control_c, 0, 64, 58
1, 128951, Note_off_c, 0, 61, 55
1, 128960, Control_c, 0, 64, 57
1, 128975, Control_c, 0, 64, 55
1, 128975, Control_c, 0, 67, 77
1, 128990, Control_c, 0, 64, 53
1, 129005, Control_c, 0, 64, 51
1, 129005, Control_c, 0, 67, 77
1, 129012, Note_on_c, 0, 86, 69
1, 129020, Control_c, 0, 64, 47
1, 129033, Note_off_c, 0, 88, 47
1, 129035, Control_c, 0, 64, 33
1, 129035, Control_c, 0, 67, 78
1, 129050, Control_c, 0, 64, 0
1, 129077, Note_off_c, 0, 62, 57
1, 129087, Note_off_c, 0, 86, 60
1, 129095, Note_on_c, 0, 85, 66
1, 129123, Control_c, 0, 67, 77
1, 129125, Note_on_c, 0, 61, 60
1, 129135, Note_on_c, 0, 64, 49
1, 129136, Note_off_c, 0, 59, 59
1, 129138, Control_c, 0, 67, 77
1, 129159, Note_off_c, 0, 85, 65
1, 129183, Control_c, 0, 67, 76
1, 129190, Note_on_c, 0, 86, 65
1, 129197, Control_c, 0, 67, 76
1, 129199, Note_off_c, 0, 61, 62
1, 129212, Control_c, 0, 67, 75
1, 129227, Control_c, 0, 67, 75
1, 129257, Note_off_c, 0, 64, 61
1, 129265, Note_off_c, 0, 86, 58
1, 129271, Note_on_c, 0, 88, 70
1, 129286, Control_c, 0, 64, 10
1, 129286, Control_c, 0, 67, 74
1, 129291, Note_on_c, 0, 66, 53
1, 129294, Note_on_c, 0, 62, 51
1, 129301, Control_c, 0, 64, 12
1, 129315, Control_c, 0, 64, 18
1, 129330, Control_c, 0, 64, 23
1, 129345, Control_c, 0, 64, 26
1, 129360, Control_c, 0, 64, 28
1, 129360, Control_c, 0, 67, 75
1, 129363, Note_on_c, 0, 90, 69
1, 129364, Note_off_c, 0, 88, 60
1, 129375, Control_c, 0, 64, 28
1, 129384, Note_off_c, 0, 66, 64
1, 129420, Control_c, 0, 64, 28
1, 129422, Note_off_c, 0, 90, 64
1, 129434, Control_c, 0, 64, 26
1, 129442, Note_off_c, 0, 62, 55
1, 129449, Control_c, 0, 64, 26
1, 129449, Control_c, 0, 67, 75
1, 129455, Note_on_c, 0, 91, 66
1, 129461, Note_off_c, 0, 57, 36
1, 129464, Control_c, 0, 67, 76
1, 129467, Note_on_c, 0, 64, 51
1, 129474, Note_on_c, 0, 67, 56
1, 129479, Control_c, 0, 67, 76
1, 129501, Control_c, 0, 64, 27
1, 129501, Control_c, 0, 67, 77
1, 129514, Control_c, 0, 67, 77
1, 129538, Note_off_c, 0, 91, 57
1, 129544, Control_c, 0, 67, 78
1, 129551, Note_on_c, 0, 93, 70
1, 129553, Note_off_c, 0, 67, 46
1, 129559, Control_c, 0, 64, 26
1, 129574, Control_c, 0, 64, 26
1, 129574, Control_c, 0, 67, 79
1, 129588, Control_c, 0, 64, 23
1, 129588, Control_c, 0, 67, 79
1, 129603, Control_c, 0, 64, 8
1, 129603, Control_c, 0, 67, 80
1, 129618, Control_c, 0, 64, 0
1, 129618, Control_c, 0, 67, 81
1, 129646, Note_off_c, 0, 93, 56
1, 129663, Note_off_c, 0, 64, 40
1, 129667, Note_on_c, 0, 57, 55
1, 129667, Note_on_c, 0, 90, 75
1, 129707, Control_c, 0, 67, 80
1, 129751, Control_c, 0, 64, 10
1, 129764, Note_on_c, 0, 98, 66
1, 129767, Control_c, 0, 64, 31
1, 129782, Control_c, 0, 64, 40
1, 129797, Control_c, 0, 64, 45
1, 129811, Control_c, 0, 64, 50
1, 129826, Control_c, 0, 64, 54
1, 129837, Note_off_c, 0, 98, 66
1, 129838, Note_on_c, 0, 97, 73
1, 129841, Control_c, 0, 64, 59
1, 129856, Control_c, 0, 64, 62
1, 129856, Control_c, 0, 67, 80
1, 129864, Note_off_c, 0, 90, 46
1, 129871, Control_c, 0, 64, 63
1, 129872, Note_on_c, 0, 66, 52
1, 129875, Note_on_c, 0, 62, 57
1, 129885, Control_c, 0, 64, 64
1, 129900, Control_c, 0, 64, 64
1, 129915, Control_c, 0, 64, 65
1, 129930, Control_c, 0, 64, 65
1, 129941, Note_on_c, 0, 98, 79
1, 129944, Control_c, 0, 64, 66
1, 129959, Control_c, 0, 64, 67
1, 129974, Control_c, 0, 64, 68
1, 129989, Control_c, 0, 64, 68
1, 130004, Control_c, 0, 64, 69
1, 130005, Note_off_c, 0, 97, 0
1, 130013, Note_off_c, 0, 98, 67
1, 130019, Control_c, 0, 64, 70
1, 130019, Control_c, 0, 67, 79
1, 130034, Note_on_c, 0, 90, 76
1, 130045, Note_off_c, 0, 57, 56
1, 130058, Poly_aftertouch_c, 0, 97, 0
1, 130078, Control_c, 0, 67, 80
1, 130092, Note_off_c, 0, 62, 35
1, 130108, Control_c, 0, 67, 81
1, 130113, Note_on_c, 0, 98, 74
1, 130125, Note_off_c, 0, 90, 59
1, 130137, Control_c, 0, 67, 81
1, 130144, Note_off_c, 0, 66, 51
1, 130152, Control_c, 0, 67, 82
1, 130182, Control_c, 0, 67, 82
1, 130198, Note_off_c, 0, 98, 66
1, 130202, Note_on_c, 0, 57, 40
1, 130211, Control_c, 0, 67, 83
1, 130224, Note_on_c, 0, 91, 76
1, 130233, Control_c, 0, 64, 69
1, 130248, Control_c, 0, 64, 66
1, 130263, Control_c, 0, 64, 62
1, 130278, Control_c, 0, 64, 50
1, 130293, Control_c, 0, 64, 0
1, 130333, Note_on_c, 0, 98, 65
1, 130381, Note_off_c, 0, 91, 47
1, 130382, Control_c, 0, 64, 21
1, 130382, Control_c, 0, 67, 83
1, 130397, Control_c, 0, 64, 48
1, 130397, Control_c, 0, 67, 84
1, 130408, Note_off_c, 0, 98, 65
1, 130412, Control_c, 0, 64, 59
1, 130422, Note_on_c, 0, 97, 69
1, 130426, Control_c, 0, 64, 62
1, 130426, Control_c, 0, 67, 84
1, 130435, Note_on_c, 0, 67, 40
1, 130438, Note_on_c, 0, 64, 46
1, 130441, Control_c, 0, 64, 64
1, 130441, Control_c, 0, 67, 85
1, 130456, Control_c, 0, 64, 65
1, 130470, Control_c, 0, 64, 66
1, 130485, Control_c, 0, 64, 67
1, 130485, Control_c, 0, 67, 85
1, 130500, Control_c, 0, 64, 69
1, 130515, Control_c, 0, 64, 70
1, 130521, Note_on_c, 0, 98, 67
1, 130530, Control_c, 0, 64, 71
1, 130544, Control_c, 0, 64, 73
1, 130544, Control_c, 0, 67, 86
1, 130558, Note_off_c, 0, 97, 34
1, 130560, Control_c, 0, 64, 74
1, 130575, Control_c, 0, 64, 75
1, 130583, Note_off_c, 0, 98, 63
1, 130590, Control_c, 0, 64, 75
1, 130606, Note_on_c, 0, 91, 62
1, 130620, Control_c, 0, 64, 76
1, 130636, Note_off_c, 0, 57, 54
1, 130693, Control_c, 0, 64, 76
1, 130704, Note_off_c, 0, 67, 37
1, 130707, Note_on_c, 0, 98, 60
1, 130716, Note_off_c, 0, 91, 37
1, 130723, Control_c, 0, 64, 77
1, 130733, Note_off_c, 0, 64, 34
1, 130753, Control_c, 0, 64, 76
1, 130753, Control_c, 0, 67, 85
1, 130767, Control_c, 0, 64, 69
1, 130767, Control_c, 0, 67, 85
1, 130782, Control_c, 0, 64, 57
1, 130782, Control_c, 0, 67, 84
1, 130797, Control_c, 0, 64, 23
1, 130812, Control_c, 0, 64, 17
1, 130812, Control_c, 0, 67, 84
1, 130814, Note_on_c, 0, 93, 62
1, 130818, Note_on_c, 0, 57, 42
1, 130821, Note_off_c, 0, 98, 58
1, 130827, Control_c, 0, 64, 42
1, 130841, Control_c, 0, 64, 54
1, 130841, Control_c, 0, 67, 83
1, 130856, Control_c, 0, 64, 62
1, 130871, Control_c, 0, 64, 66
1, 130871, Control_c, 0, 67, 83
1, 130886, Control_c, 0, 64, 66
1, 130891, Note_off_c, 0, 57, 62
1, 130894, Note_off_c, 0, 93, 61
1, 130914, Note_on_c, 0, 91, 56
1, 130946, Control_c, 0, 67, 82
1, 130960, Control_c, 0, 64, 66
1, 131022, Note_off_c, 0, 91, 58
1, 131023, Note_on_c, 0, 90, 62
1, 131025, Note_on_c, 0, 66, 56
1, 131028, Control_c, 0, 64, 65
1, 131028, Control_c, 0, 67, 82
1, 131033, Note_on_c, 0, 69, 50
1, 131057, Control_c, 0, 64, 65
1, 131057, Control_c, 0, 67, 81
1, 131072, Control_c, 0, 67, 81
1, 131086, Control_c, 0, 67, 80
1, 131113, Note_on_c, 0, 88, 58
1, 131116, Control_c, 0, 64, 64
1, 131156, Note_off_c, 0, 90, 35
1, 131160, Control_c, 0, 64, 64
1, 131178, Note_off_c, 0, 88, 64
1, 131190, Control_c, 0, 67, 80
1, 131203, Note_on_c, 0, 86, 60
1, 131205, Control_c, 0, 64, 63
1, 131209, Note_on_c, 0, 65, 60
1, 131211, Note_off_c, 0, 66, 64
1, 131214, Note_on_c, 0, 68, 54
1, 131246, Note_off_c, 0, 69, 39
1, 131250, Control_c, 0, 64, 63
1, 131279, Control_c, 0, 64, 62
1, 131296, Note_off_c, 0, 86, 58
1, 131297, Note_on_c, 0, 85, 57
1, 131309, Control_c, 0, 64, 62
1, 131324, Control_c, 0, 67, 80
1, 131339, Control_c, 0, 64, 61
1, 131354, Control_c, 0, 64, 61
1, 131369, Control_c, 0, 64, 60
1, 131384, Control_c, 0, 64, 60
1, 131399, Control_c, 0, 64, 59
1, 131408, Note_on_c, 0, 83, 45
1, 131414, Control_c, 0, 64, 58
1, 131414, Control_c, 0, 67, 81
1, 131420, Note_off_c, 0, 68, 63
1, 131422, Note_on_c, 0, 69, 49
1, 131428, Note_on_c, 0, 66, 54
1, 131431, Note_off_c, 0, 65, 37
1, 131444, Control_c, 0, 64, 58
1, 131451, Note_off_c, 0, 85, 32
1, 131458, Control_c, 0, 64, 56
1, 131458, Control_c, 0, 67, 81
1, 131473, Control_c, 0, 64, 55
1, 131488, Control_c, 0, 64, 51
1, 131493, Note_off_c, 0, 83, 61
1, 131503, Control_c, 0, 64, 47
1, 131517, Control_c, 0, 64, 44
1, 131521, Note_on_c, 0, 81, 47
1, 131532, Control_c, 0, 64, 42
1, 131547, Control_c, 0, 64, 36
1, 131562, Control_c, 0, 64, 21
1, 131562, Control_c, 0, 67, 82
1, 131577, Control_c, 0, 64, 0
1, 131591, Control_c, 0, 67, 82
1, 131611, Note_off_c, 0, 81, 48
1, 131621, Control_c, 0, 67, 83
1, 131626, Note_on_c, 0, 83, 48
1, 131637, Note_off_c, 0, 66, 53
1, 131649, Note_on_c, 0, 67, 41
1, 131651, Note_on_c, 0, 71, 46
1, 131688, Note_off_c, 0, 83, 57
1, 131690, Note_off_c, 0, 69, 60
1, 131716, Note_on_c, 0, 81, 52
1, 131747, Control_c, 0, 64, 23
1, 131761, Control_c, 0, 64, 49
1, 131776, Control_c, 0, 64, 56
1, 131790, Control_c, 0, 64, 59
1, 131805, Control_c, 0, 64, 61
1, 131807, Note_off_c, 0, 81, 54
1, 131820, Control_c, 0, 64, 63
1, 131825, Note_off_c, 0, 67, 55
1, 131825, Note_off_c, 0, 71, 61
1, 131828, Note_on_c, 0, 83, 52
1, 131835, Control_c, 0, 64, 64
1, 131836, Note_on_c, 0, 66, 54
1, 131843, Note_on_c, 0, 69, 46
1, 131850, Control_c, 0, 64, 64
1, 131864, Control_c, 0, 67, 82
1, 131867, Note_off_c, 0, 66, 68
1, 131879, Control_c, 0, 64, 65
1, 131935, Note_off_c, 0, 83, 58
1, 131938, Note_off_c, 0, 69, 53
1, 131938, Control_c, 0, 67, 82
1, 131947, Note_on_c, 0, 81, 51
1, 132028, Control_c, 0, 64, 64
1, 132042, Control_c, 0, 64, 63
1, 132057, Control_c, 0, 64, 58
1, 132060, Note_on_c, 0, 57, 51
1, 132072, Control_c, 0, 64, 40
1, 132087, Control_c, 0, 64, 0
1, 132089, Note_off_c, 0, 81, 60
1, 132116, Control_c, 0, 67, 81
1, 132127, Note_on_c, 0, 83, 58
1, 132146, Control_c, 0, 67, 81
1, 132162, Control_c, 0, 64, 47
1, 132177, Control_c, 0, 64, 58
1, 132192, Control_c, 0, 64, 62
1, 132206, Control_c, 0, 64, 63
1, 132221, Control_c, 0, 64, 64
1, 132236, Control_c, 0, 64, 65
1, 132251, Control_c, 0, 64, 66
1, 132257, Note_on_c, 0, 85, 54
1, 132266, Control_c, 0, 64, 67
1, 132274, Note_off_c, 0, 83, 34
1, 132280, Control_c, 0, 64, 68
1, 132295, Control_c, 0, 64, 70
1, 132310, Control_c, 0, 64, 71
1, 132325, Control_c, 0, 64, 72
1, 132339, Control_c, 0, 64, 73
1, 132343, Note_on_c, 0, 66, 41
1, 132345, Note_on_c, 0, 69, 38
1, 132346, Note_on_c, 0, 71, 43
1, 132354, Control_c, 0, 64, 75
1, 132354, Control_c, 0, 67, 81
1, 132364, Note_on_c, 0, 87, 60
1, 132369, Control_c, 0, 64, 75
1, 132378, Note_off_c, 0, 85, 57
1, 132384, Control_c, 0, 64, 76
1, 132384, Control_c, 0, 67, 82
1, 132399, Control_c, 0, 64, 76
1, 132427, Note_off_c, 0, 87, 64
1, 132457, Control_c, 0, 64, 77
1, 132457, Control_c, 0, 67, 82
1, 132463, Note_on_c, 0, 88, 65
1, 132472, Control_c, 0, 67, 83
1, 132564, Note_off_c, 0, 88, 53
1, 132570, Note_on_c, 0, 90, 67
1, 132614, Note_off_c, 0, 57, 42
1, 132620, Note_off_c, 0, 66, 33
1, 132634, Note_off_c, 0, 71, 36
1, 132642, Note_off_c, 0, 69, 36
1, 132660, Note_off_c, 0, 90, 60
1, 132661, Note_on_c, 0, 91, 74
1, 132672, Control_c, 0, 67, 82
1, 132722, Note_off_c, 0, 91, 60
1, 132746, Note_on_c, 0, 57, 49
1, 132772, Note_on_c, 0, 93, 69
1, 132776, Control_c, 0, 64, 76
1, 132791, Control_c, 0, 64, 69
1, 132806, Control_c, 0, 64, 61
1, 132806, Control_c, 0, 67, 82
1, 132821, Control_c, 0, 64, 42
1, 132836, Control_c, 0, 64, 22
1, 132851, Control_c, 0, 64, 31
1, 132865, Control_c, 0, 64, 44
1, 132866, Note_on_c, 0, 94, 72
1, 132867, Note_off_c, 0, 93, 55
1, 132880, Control_c, 0, 64, 54
1, 132895, Control_c, 0, 64, 60
1, 132910, Control_c, 0, 64, 63
1, 132925, Control_c, 0, 64, 65
1, 132939, Control_c, 0, 64, 66
1, 132954, Note_off_c, 0, 94, 63
1, 132955, Control_c, 0, 64, 67
1, 132964, Note_on_c, 0, 95, 66
1, 132970, Control_c, 0, 64, 69
1, 132970, Control_c, 0, 67, 82
1, 132985, Note_on_c, 0, 63, 48
1, 132985, Control_c, 0, 64, 70
1, 132985, Note_on_c, 0, 66, 51
1, 132991, Note_on_c, 0, 69, 46
1, 132991, Note_on_c, 0, 71, 48
1, 133000, Control_c, 0, 64, 72
1, 133015, Control_c, 0, 64, 73
1, 133015, Control_c, 0, 67, 83
1, 133029, Control_c, 0, 64, 74
1, 133044, Control_c, 0, 64, 76
1, 133044, Control_c, 0, 67, 83
1, 133058, Note_off_c, 0, 95, 63
1, 133059, Control_c, 0, 64, 77
1, 133062, Note_on_c, 0, 93, 70
1, 133073, Control_c, 0, 64, 78
1, 133073, Control_c, 0, 67, 84
1, 133088, Control_c, 0, 64, 78
1, 133103, Control_c, 0, 64, 79
1, 133118, Control_c, 0, 64, 79
1, 133118, Control_c, 0, 67, 83
1, 133122, Note_off_c, 0, 93, 61
1, 133133, Control_c, 0, 64, 80
1, 133141, Note_off_c, 0, 63, 48
1, 133148, Control_c, 0, 64, 81
1, 133152, Note_on_c, 0, 91, 67
1, 133162, Control_c, 0, 64, 82
1, 133175, Note_off_c, 0, 71, 50
1, 133177, Control_c, 0, 64, 83
1, 133183, Note_off_c, 0, 66, 37
1, 133192, Control_c, 0, 64, 85
1, 133205, Note_off_c, 0, 57, 41
1, 133205, Note_off_c, 0, 69, 38
1, 133207, Control_c, 0, 64, 86
1, 133222, Control_c, 0, 64, 87
1, 133244, Control_c, 0, 64, 88
1, 133249, Note_on_c, 0, 90, 79
1, 133259, Control_c, 0, 67, 83
1, 133274, Control_c, 0, 64, 83
1, 133274, Control_c, 0, 67, 82
1, 133274, Note_off_c, 0, 91, 49
1, 133288, Control_c, 0, 64, 69
1, 133303, Control_c, 0, 64, 55
1, 133303, Control_c, 0, 67, 82
1, 133318, Control_c, 0, 64, 0
1, 133333, Note_on_c, 0, 57, 43
1, 133333, Control_c, 0, 64, 15
1, 133348, Control_c, 0, 64, 41
1, 133349, Note_on_c, 0, 93, 68
1, 133361, Note_off_c, 0, 90, 58
1, 133362, Control_c, 0, 64, 53
1, 133362, Control_c, 0, 67, 82
1, 133377, Control_c, 0, 64, 61
1, 133377, Control_c, 0, 67, 83
1, 133392, Control_c, 0, 64, 62
1, 133407, Control_c, 0, 67, 83
1, 133417, Note_off_c, 0, 57, 63
1, 133435, Note_off_c, 0, 93, 61
1, 133439, Note_on_c, 0, 91, 72
1, 133451, Control_c, 0, 64, 62
1, 133466, Control_c, 0, 67, 83
1, 133495, Control_c, 0, 64, 61
1, 133539, Note_off_c, 0, 91, 60
1, 133539, Note_on_c, 0, 95, 70
1, 133548, Note_on_c, 0, 67, 57
1, 133557, Note_on_c, 0, 64, 53
1, 133584, Control_c, 0, 64, 61
1, 133614, Control_c, 0, 64, 60
1, 133630, Note_on_c, 0, 93, 74
1, 133658, Note_off_c, 0, 95, 57
1, 133673, Control_c, 0, 67, 83
1, 133703, Control_c, 0, 67, 84
1, 133713, Note_off_c, 0, 67, 61
1, 133715, Note_on_c, 0, 66, 65
1, 133718, Note_on_c, 0, 91, 78
1, 133724, Note_on_c, 0, 69, 60
1, 133724, Note_off_c, 0, 64, 38
1, 133762, Note_off_c, 0, 93, 53
1, 133793, Control_c, 0, 67, 84
1, 133813, Note_off_c, 0, 91, 59
1, 133814, Note_on_c, 0, 90, 79
1, 133822, Control_c, 0, 67, 85
1, 133867, Control_c, 0, 64, 60
1, 133878, Note_off_c, 0, 90, 63
1, 133882, Control_c, 0, 64, 56
1, 133897, Control_c, 0, 64, 41
1, 133911, Control_c, 0, 64, 0
1, 133926, Control_c, 0, 67, 84
1, 133939, Note_off_c, 0, 69, 63
1, 133941, Control_c, 0, 67, 84
1, 133948, Note_off_c, 0, 66, 61
1, 133953, Note_on_c, 0, 90, 62
1, 133955, Note_on_c, 0, 67, 48
1, 133964, Note_on_c, 0, 71, 41
1, 133977, Control_c, 0, 64, 33
1, 133992, Control_c, 0, 64, 49
1, 134008, Control_c, 0, 64, 57
1, 134023, Control_c, 0, 64, 58
1, 134067, Note_on_c, 0, 88, 64
1, 134067, Note_off_c, 0, 90, 60
1, 134082, Control_c, 0, 64, 59
1, 134097, Control_c, 0, 64, 60
1, 134119, Note_off_c, 0, 88, 60
1, 134126, Control_c, 0, 64, 60
1, 134141, Control_c, 0, 64, 61
1, 134156, Control_c, 0, 64, 61
1, 134166, Note_off_c, 0, 67, 57
1, 134171, Note_on_c, 0, 66, 54
1, 134179, Note_on_c, 0, 88, 61
1, 134183, Note_on_c, 0, 69, 46
1, 134186, Control_c, 0, 64, 62
1, 134201, Note_off_c, 0, 71, 36
1, 134240, Note_off_c, 0, 88, 63
1, 134245, Control_c, 0, 64, 63
1, 134260, Control_c, 0, 67, 84
1, 134272, Note_on_c, 0, 87, 61
1, 134290, Control_c, 0, 64, 63
1, 134322, Note_off_c, 0, 87, 58
1, 134334, Control_c, 0, 67, 84
1, 134340, Note_off_c, 0, 69, 65
1, 134355, Note_on_c, 0, 67, 43
1, 134356, Note_on_c, 0, 87, 51
1, 134380, Note_off_c, 0, 67, 57
1, 134381, Note_on_c, 0, 64, 36
1, 134383, Note_off_c, 0, 66, 26
1, 134410, Note_off_c, 0, 64, 52
1, 134442, Note_off_c, 0, 87, 56
1, 134451, Note_on_c, 0, 88, 67
1, 134497, Control_c, 0, 64, 63
1, 134497, Control_c, 0, 67, 83
1, 134505, Note_off_c, 0, 88, 63
1, 134511, Control_c, 0, 64, 60
1, 134526, Control_c, 0, 64, 49
1, 134526, Control_c, 0, 67, 83
1, 134534, Note_on_c, 0, 57, 48
1, 134541, Control_c, 0, 64, 0
1, 134557, Control_c, 0, 67, 82
1, 134587, Control_c, 0, 67, 82
1, 134588, Note_on_c, 0, 81, 65
1, 134616, Control_c, 0, 64, 39
1, 134616, Control_c, 0, 67, 81
1, 134631, Control_c, 0, 64, 56
1, 134646, Control_c, 0, 64, 62
1, 134660, Control_c, 0, 64, 63
1, 134675, Control_c, 0, 64, 63
1, 134682, Note_off_c, 0, 81, 60
1, 134686, Note_on_c, 0, 83, 60
1, 134690, Control_c, 0, 64, 64
1, 134705, Control_c, 0, 67, 81
1, 134720, Control_c, 0, 64, 64
1, 134757, Control_c, 0, 64, 65
1, 134770, Note_on_c, 0, 64, 45
1, 134779, Note_on_c, 0, 69, 46
1, 134781, Note_on_c, 0, 67, 46
1, 134787, Control_c, 0, 64, 65
1, 134789, Note_on_c, 0, 85, 70
1, 134790, Note_off_c, 0, 83, 60
1, 134802, Control_c, 0, 64, 66
1, 134816, Control_c, 0, 64, 68
1, 134831, Control_c, 0, 64, 69
1, 134846, Note_off_c, 0, 85, 65
1, 134846, Control_c, 0, 64, 69
1, 134860, Control_c, 0, 64, 70
1, 134880, Note_on_c, 0, 86, 69
1, 134890, Control_c, 0, 64, 70
1, 134905, Control_c, 0, 67, 81
1, 134920, Control_c, 0, 67, 82
1, 134964, Control_c, 0, 67, 82
1, 134971, Note_on_c, 0, 88, 75
1, 134973, Note_off_c, 0, 86, 63
1, 135006, Note_off_c, 0, 64, 56
1, 135012, Note_off_c, 0, 69, 54
1, 135022, Note_off_c, 0, 57, 62
1, 135041, Note_off_c, 0, 67, 37
1, 135061, Note_on_c, 0, 90, 75
1, 135062, Note_off_c, 0, 88, 62
1, 135098, Control_c, 0, 67, 82
1, 135122, Note_off_c, 0, 90, 63
1, 135142, Control_c, 0, 64, 70
1, 135153, Note_on_c, 0, 57, 48
1, 135157, Note_on_c, 0, 91, 73
1, 135157, Control_c, 0, 64, 66
1, 135172, Control_c, 0, 64, 60
1, 135187, Control_c, 0, 64, 25
1, 135201, Control_c, 0, 64, 0
1, 135246, Control_c, 0, 64, 28
1, 135256, Note_on_c, 0, 92, 73
1, 135260, Control_c, 0, 64, 47
1, 135263, Note_off_c, 0, 91, 57
1, 135275, Control_c, 0, 64, 58
1, 135290, Control_c, 0, 64, 61
1, 135290, Control_c, 0, 67, 82
1, 135305, Control_c, 0, 64, 63
1, 135320, Control_c, 0, 64, 63
1, 135320, Control_c, 0, 67, 83
1, 135331, Note_off_c, 0, 92, 64
1, 135334, Control_c, 0, 64, 64
1, 135338, Note_on_c, 0, 93, 69
1, 135350, Control_c, 0, 64, 65
1, 135364, Note_on_c, 0, 64, 36
1, 135365, Control_c, 0, 64, 66
1, 135371, Note_on_c, 0, 61, 36
1, 135375, Note_on_c, 0, 69, 35
1, 135377, Note_on_c, 0, 67, 36
1, 135380, Control_c, 0, 64, 67
1, 135395, Control_c, 0, 64, 68
1, 135410, Control_c, 0, 64, 69
1, 135424, Control_c, 0, 64, 69
1, 135438, Note_off_c, 0, 93, 55
1, 135439, Note_on_c, 0, 91, 71
1, 135439, Control_c, 0, 64, 70
1, 135439, Control_c, 0, 67, 83
1, 135454, Control_c, 0, 64, 70
1, 135505, Control_c, 0, 64, 71
1, 135534, Note_off_c, 0, 61, 49
1, 135535, Control_c, 0, 67, 84
1, 135536, Note_off_c, 0, 91, 51
1, 135536, Note_on_c, 0, 90, 70
1, 135550, Control_c, 0, 64, 71
1, 135564, Control_c, 0, 64, 72
1, 135579, Note_off_c, 0, 64, 42
1, 135579, Control_c, 0, 64, 73
1, 135586, Note_off_c, 0, 57, 60
1, 135586, Note_off_c, 0, 69, 37
1, 135602, Note_off_c, 0, 67, 35
1, 135607, Note_off_c, 0, 90, 59
1, 135609, Control_c, 0, 64, 74
1, 135624, Control_c, 0, 64, 75
1, 135626, Note_on_c, 0, 88, 64
1, 135653, Control_c, 0, 64, 73
1, 135668, Control_c, 0, 64, 64
1, 135682, Control_c, 0, 64, 46
1, 135697, Control_c, 0, 64, 25
1, 135712, Control_c, 0, 64, 38
1, 135718, Note_on_c, 0, 91, 64
1, 135721, Note_on_c, 0, 57, 46
1, 135724, Note_off_c, 0, 88, 56
1, 135727, Control_c, 0, 64, 50
1, 135727, Control_c, 0, 67, 84
1, 135742, Control_c, 0, 64, 57
1, 135757, Control_c, 0, 64, 63
1, 135757, Control_c, 0, 67, 85
1, 135785, Note_off_c, 0, 57, 63
1, 135802, Note_off_c, 0, 91, 55
1, 135815, Note_on_c, 0, 90, 69
1, 135817, Control_c, 0, 64, 62
1, 135831, Control_c, 0, 64, 62
1, 135890, Control_c, 0, 67, 86
1, 135897, Note_on_c, 0, 93, 70
1, 135900, Note_off_c, 0, 90, 61
1, 135905, Control_c, 0, 67, 86
1, 135910, Note_on_c, 0, 66, 53
1, 135925, Note_on_c, 0, 62, 52
1, 135935, Control_c, 0, 67, 87
1, 135949, Control_c, 0, 64, 61
1, 135979, Control_c, 0, 64, 61
1, 135979, Control_c, 0, 67, 87
1, 135994, Control_c, 0, 64, 60
1, 135994, Control_c, 0, 67, 88
1, 135995, Note_on_c, 0, 91, 64
1, 136022, Note_off_c, 0, 93, 37
1, 136023, Control_c, 0, 67, 89
1, 136038, Control_c, 0, 67, 94
1, 136053, Control_c, 0, 67, 99
1, 136061, Note_off_c, 0, 62, 49
1, 136068, Control_c, 0, 64, 60
1, 136068, Control_c, 0, 67, 102
1, 136070, Note_off_c, 0, 66, 61
1, 136070, Note_off_c, 0, 91, 57
1, 136078, Note_on_c, 0, 64, 57
1, 136078, Note_on_c, 0, 90, 76
1, 136082, Control_c, 0, 67, 103
1, 136086, Note_on_c, 0, 67, 46
1, 136097, Control_c, 0, 67, 104
1, 136112, Control_c, 0, 67, 105
1, 136127, Control_c, 0, 67, 105
1, 136142, Control_c, 0, 67, 106
1, 136150, Note_off_c, 0, 90, 61
1, 136172, Control_c, 0, 64, 59
1, 136172, Control_c, 0, 67, 106
1, 136174, Note_on_c, 0, 88, 72
1, 136187, Control_c, 0, 67, 107
1, 136235, Note_off_c, 0, 88, 63
1, 136254, Control_c, 0, 64, 58
1, 136269, Control_c, 0, 64, 51
1, 136269, Control_c, 0, 67, 107
1, 136284, Control_c, 0, 64, 22
1, 136299, Control_c, 0, 64, 0
1, 136300, Note_off_c, 0, 67, 53
1, 136305, Note_off_c, 0, 64, 58
1, 136310, Note_on_c, 0, 88, 59
1, 136313, Control_c, 0, 67, 108
1, 136317, Note_on_c, 0, 66, 53
1, 136320, Note_on_c, 0, 69, 48
1, 136373, Control_c, 0, 64, 39
1, 136373, Control_c, 0, 67, 108
1, 136387, Control_c, 0, 64, 53
1, 136387, Control_c, 0, 67, 109
1, 136402, Control_c, 0, 64, 56
1, 136402, Control_c, 0, 67, 111
1, 136415, Note_off_c, 0, 88, 63
1, 136417, Control_c, 0, 67, 113
1, 136421, Note_on_c, 0, 86, 62
1, 136431, Control_c, 0, 67, 114
1, 136446, Control_c, 0, 67, 115
1, 136461, Control_c, 0, 67, 118
1, 136466, Note_off_c, 0, 86, 57
1, 136476, Control_c, 0, 67, 121
1, 136491, Control_c, 0, 64, 56
1, 136491, Control_c, 0, 67, 127
1, 136505, Control_c, 0, 67, 127
1, 136536, Note_off_c, 0, 66, 50
1, 136538, Note_on_c, 0, 67, 45
1, 136538, Note_on_c, 0, 86, 63
1, 136546, Note_on_c, 0, 64, 43
1, 136547, Note_off_c, 0, 69, 49
1, 136565, Control_c, 0, 64, 55
1, 136595, Control_c, 0, 64, 55
1, 136595, Note_off_c, 0, 86, 62
1, 136610, Control_c, 0, 64, 54
1, 136624, Note_on_c, 0, 85, 64
1, 136624, Control_c, 0, 64, 54
1, 136639, Control_c, 0, 64, 53
1, 136654, Control_c, 0, 64, 53
1, 136669, Control_c, 0, 64, 52
1, 136679, Note_off_c, 0, 85, 61
1, 136684, Control_c, 0, 64, 51
1, 136698, Control_c, 0, 64, 51
1, 136713, Control_c, 0, 64, 50
1, 136727, Note_on_c, 0, 85, 48
1, 136728, Control_c, 0, 64, 49
1, 136736, Note_off_c, 0, 67, 54
1, 136750, Note_off_c, 0, 64, 33
1, 136752, Note_on_c, 0, 66, 51
1, 136758, Control_c, 0, 64, 49
1, 136761, Note_on_c, 0, 62, 39
1, 136774, Note_off_c, 0, 66, 65
1, 136787, Note_off_c, 0, 62, 58
1, 136787, Control_c, 0, 64, 48
1, 136814, Note_off_c, 0, 85, 58
1, 136817, Control_c, 0, 64, 48
1, 136831, Control_c, 0, 64, 47
1, 136832, Note_on_c, 0, 86, 66
1, 136846, Control_c, 0, 64, 46
1, 136861, Control_c, 0, 64, 46
1, 136876, Control_c, 0, 64, 45
1, 136891, Control_c, 0, 64, 43
1, 136905, Control_c, 0, 64, 37
1, 136920, Control_c, 0, 64, 12
1, 136935, Control_c, 0, 64, 0
1, 136985, Note_on_c, 0, 57, 40
1, 137008, Note_off_c, 0, 86, 41
1, 137032, Note_on_c, 0, 78, 76
1, 137077, Control_c, 0, 64, 36
1, 137092, Control_c, 0, 64, 52
1, 137107, Control_c, 0, 64, 60
1, 137122, Control_c, 0, 64, 63
1, 137136, Control_c, 0, 64, 64
1, 137151, Control_c, 0, 64, 65
1, 137166, Control_c, 0, 64, 67
1, 137173, Note_on_c, 0, 86, 55
1, 137181, Control_c, 0, 64, 69
1, 137196, Control_c, 0, 64, 71
1, 137210, Control_c, 0, 64, 71
1, 137240, Control_c, 0, 64, 72
1, 137250, Note_off_c, 0, 86, 62
1, 137276, Note_on_c, 0, 85, 55
1, 137299, Note_on_c, 0, 66, 40
1, 137303, Note_off_c, 0, 78, 39
1, 137312, Note_on_c, 0, 62, 37
1, 137380, Note_on_c, 0, 86, 61
1, 137388, Control_c, 0, 64, 72
1, 137444, Note_off_c, 0, 86, 62
1, 137450, Note_off_c, 0, 85, 27
1, 137465, Note_on_c, 0, 78, 69
1, 137477, Note_off_c, 0, 57, 35
1, 137480, Note_off_c, 0, 62, 42
1, 137527, Note_off_c, 0, 66, 49
1, 137581, Control_c, 0, 64, 72
1, 137584, Note_on_c, 0, 86, 53
1, 137598, Note_off_c, 0, 78, 53
1, 137640, Control_c, 0, 64, 71
1, 137654, Control_c, 0, 64, 71
1, 137656, Note_on_c, 0, 57, 38
1, 137669, Control_c, 0, 64, 70
1, 137684, Control_c, 0, 64, 69
1, 137699, Control_c, 0, 64, 69
1, 137703, Note_off_c, 0, 86, 58
1, 137721, Control_c, 0, 64, 67
1, 137736, Control_c, 0, 64, 65
1, 137750, Note_on_c, 0, 79, 60
1, 137752, Control_c, 0, 64, 62
1, 137767, Control_c, 0, 64, 47
1, 137782, Control_c, 0, 64, 0
1, 137856, Control_c, 0, 64, 23
1, 137871, Control_c, 0, 64, 52
1, 137881, Note_on_c, 0, 86, 44
1, 137885, Control_c, 0, 64, 60
1, 137900, Control_c, 0, 64, 62
1, 137915, Control_c, 0, 64, 63
1, 137930, Control_c, 0, 64, 64
1, 137945, Control_c, 0, 64, 65
1, 137960, Control_c, 0, 64, 66
1, 137964, Note_off_c, 0, 86, 60
1, 137975, Control_c, 0, 64, 68
1, 137975, Note_off_c, 0, 79, 29
1, 137976, Note_on_c, 0, 67, 38
1, 137977, Note_on_c, 0, 64, 31
1, 137990, Control_c, 0, 64, 70
1, 137996, Note_on_c, 0, 85, 50
1, 138005, Control_c, 0, 64, 71
1, 138019, Control_c, 0, 64, 72
1, 138034, Control_c, 0, 64, 73
1, 138049, Control_c, 0, 64, 74
1, 138064, Control_c, 0, 64, 75
1, 138078, Control_c, 0, 64, 75
1, 138093, Control_c, 0, 64, 76
1, 138097, Note_on_c, 0, 86, 53
1, 138108, Control_c, 0, 64, 77
1, 138123, Control_c, 0, 64, 78
1, 138152, Control_c, 0, 64, 78
1, 138158, Note_off_c, 0, 86, 61
1, 138190, Note_on_c, 0, 79, 51
1, 138192, Note_off_c, 0, 85, 21
1, 138197, Note_off_c, 0, 57, 31
1, 138197, Control_c, 0, 64, 79
1, 138269, Note_off_c, 0, 64, 38
1, 138279, Note_off_c, 0, 67, 34
1, 138281, Note_off_c, 0, 79, 59
1, 138285, Control_c, 0, 64, 79
1, 138300, Note_on_c, 0, 86, 55
1, 138315, Control_c, 0, 64, 80
1, 138344, Control_c, 0, 64, 80
1, 138374, Control_c, 0, 64, 80
1, 138389, Control_c, 0, 64, 75
1, 138404, Control_c, 0, 64, 65
1, 138419, Control_c, 0, 64, 45
1, 138434, Control_c, 0, 64, 17
1, 138449, Control_c, 0, 64, 41
1, 138455, Note_on_c, 0, 57, 42
1, 138458, Note_on_c, 0, 80, 48
1, 138464, Control_c, 0, 64, 54
1, 138485, Control_c, 0, 64, 62
1, 138500, Control_c, 0, 64, 66
1, 138515, Control_c, 0, 64, 70
1, 138530, Control_c, 0, 64, 72
1, 138534, Note_off_c, 0, 57, 61
1, 138548, Note_off_c, 0, 80, 64
1, 138580, Note_off_c, 0, 86, 39
1, 138613, Note_on_c, 0, 81, 49
1, 138688, Note_off_c, 0, 81, 51
1, 138708, Control_c, 0, 64, 72
1, 138714, Note_on_c, 0, 83, 51
1, 138723, Control_c, 0, 64, 71
1, 138726, Note_on_c, 0, 68, 33
1, 138738, Control_c, 0, 64, 71
1, 138743, Note_on_c, 0, 65, 36
1, 138753, Control_c, 0, 64, 70
1, 138768, Control_c, 0, 64, 70
1, 138783, Control_c, 0, 64, 69
1, 138802, Note_off_c, 0, 83, 59
1, 138808, Note_on_c, 0, 81, 61
1, 138812, Control_c, 0, 64, 69
1, 138827, Control_c, 0, 64, 68
1, 138842, Control_c, 0, 64, 68
1, 138857, Control_c, 0, 64, 67
1, 138872, Control_c, 0, 64, 67
1, 138884, Note_off_c, 0, 65, 36
1, 138899, Note_off_c, 0, 81, 56
1, 138907, Note_on_c, 0, 86, 57
1, 138914, Note_off_c, 0, 68, 44
1, 138916, Control_c, 0, 64, 66
1, 138922, Note_on_c, 0, 69, 46
1, 138926, Note_on_c, 0, 66, 46
1, 138983, Note_off_c, 0, 69, 51
1, 139000, Note_on_c, 0, 81, 59
1, 139019, Control_c, 0, 64, 65
1, 139026, Note_off_c, 0, 66, 37
1, 139034, Control_c, 0, 64, 61
1, 139049, Control_c, 0, 64, 41
1, 139064, Control_c, 0, 64, 0
1, 139100, Note_on_c, 0, 90, 61
1, 139115, Note_on_c, 0, 66, 40
1, 139116, Note_off_c, 0, 86, 44
1, 139123, Control_c, 0, 64, 43
1, 139125, Note_on_c, 0, 69, 45
1, 139138, Control_c, 0, 64, 56
1, 139153, Control_c, 0, 64, 61
1, 139167, Control_c, 0, 64, 63
1, 139182, Control_c, 0, 64, 64
1, 139189, Note_off_c, 0, 69, 46
1, 139197, Note_off_c, 0, 66, 53
1, 139197, Control_c, 0, 64, 65
1, 139207, Note_on_c, 0, 88, 55
1, 139212, Control_c, 0, 64, 65
1, 139234, Control_c, 0, 64, 66
1, 139249, Control_c, 0, 64, 67
1, 139259, Note_off_c, 0, 81, 33
1, 139264, Control_c, 0, 64, 68
1, 139279, Control_c, 0, 64, 69
1, 139281, Note_off_c, 0, 90, 34
1, 139294, Control_c, 0, 64, 70
1, 139297, Note_on_c, 0, 66, 43
1, 139303, Note_on_c, 0, 86, 56
1, 139304, Note_on_c, 0, 69, 43
1, 139308, Control_c, 0, 64, 71
1, 139323, Control_c, 0, 64, 73
1, 139338, Control_c, 0, 64, 74
1, 139354, Control_c, 0, 64, 75
1, 139365, Note_off_c, 0, 69, 51
1, 139369, Control_c, 0, 64, 76
1, 139370, Note_off_c, 0, 88, 32
1, 139384, Control_c, 0, 64, 77
1, 139388, Note_on_c, 0, 85, 60
1, 139389, Note_off_c, 0, 66, 42
1, 139398, Control_c, 0, 64, 78
1, 139408, Note_off_c, 0, 86, 37
1, 139413, Control_c, 0, 67, 126
1, 139428, Control_c, 0, 64, 78
1, 139428, Control_c, 0, 67, 123
1, 139443, Control_c, 0, 64, 79
1, 139443, Control_c, 0, 67, 120
1, 139449, Note_off_c, 0, 85, 63
1, 139457, Control_c, 0, 64, 79
1, 139457, Control_c, 0, 67, 117
1, 139465, Note_on_c, 0, 66, 43
1, 139472, Control_c, 0, 64, 80
1, 139472, Control_c, 0, 67, 114
1, 139475, Note_on_c, 0, 69, 50
1, 139478, Note_on_c, 0, 83, 61
1, 139487, Control_c, 0, 67, 112
1, 139500, Note_off_c, 0, 66, 65
1, 139502, Control_c, 0, 64, 80
1, 139502, Control_c, 0, 67, 110
1, 139517, Control_c, 0, 64, 81
1, 139517, Control_c, 0, 67, 109
1, 139531, Control_c, 0, 67, 106
1, 139546, Control_c, 0, 67, 103
1, 139549, Note_off_c, 0, 69, 58
1, 139552, Note_off_c, 0, 83, 48
1, 139561, Control_c, 0, 67, 99
1, 139570, Note_on_c, 0, 81, 64
1, 139576, Control_c, 0, 67, 96
1, 139590, Control_c, 0, 67, 93
1, 139605, Control_c, 0, 67, 91
1, 139620, Control_c, 0, 64, 75
1, 139620, Control_c, 0, 67, 89
1, 139635, Control_c, 0, 64, 63
1, 139635, Control_c, 0, 67, 89
1, 139644, Note_off_c, 0, 81, 61
1, 139650, Control_c, 0, 64, 0
1, 139673, Note_on_c, 0, 83, 57
1, 139680, Control_c, 0, 67, 88
1, 139690, Note_on_c, 0, 57, 42
1, 139710, Control_c, 0, 67, 87
1, 139739, Control_c, 0, 64, 32
1, 139754, Control_c, 0, 64, 61
1, 139769, Control_c, 0, 64, 65
1, 139772, Note_on_c, 0, 86, 61
1, 139783, Control_c, 0, 64, 66
1, 139784, Note_off_c, 0, 57, 39
1, 139798, Control_c, 0, 64, 67
1, 139798, Control_c, 0, 67, 87
1, 139813, Note_off_c, 0, 83, 34
1, 139813, Control_c, 0, 64, 69
1, 139828, Control_c, 0, 64, 70
1, 139828, Control_c, 0, 67, 86
1, 139835, Note_off_c, 0, 86, 61
1, 139842, Control_c, 0, 64, 73
1, 139842, Control_c, 0, 67, 86
1, 139857, Control_c, 0, 64, 76
1, 139857, Control_c, 0, 67, 85
1, 139862, Note_on_c, 0, 85, 65
1, 139865, Note_on_c, 0, 67, 43
1, 139867, Note_on_c, 0, 71, 53
1, 139872, Control_c, 0, 64, 78
1, 139872, Control_c, 0, 67, 84
1, 139887, Control_c, 0, 64, 80
1, 139887, Control_c, 0, 67, 83
1, 139902, Control_c, 0, 64, 82
1, 139902, Control_c, 0, 67, 81
1, 139916, Control_c, 0, 64, 84
1, 139916, Control_c, 0, 67, 79
1, 139931, Control_c, 0, 64, 87
1, 139931, Control_c, 0, 67, 77
1, 139946, Control_c, 0, 64, 88
1, 139946, Control_c, 0, 67, 74
1, 139947, Note_off_c, 0, 85, 62
1, 139954, Note_on_c, 0, 86, 72
1, 139961, Control_c, 0, 64, 90
1, 139961, Control_c, 0, 67, 70
1, 139983, Control_c, 0, 64, 92
1, 139983, Control_c, 0, 67, 66
1, 139997, Control_c, 0, 64, 93
1, 139997, Control_c, 0, 67, 62
1, 140012, Control_c, 0, 64, 93
1, 140012, Control_c, 0, 67, 59
1, 140022, Note_off_c, 0, 71, 51
1, 140023, Note_off_c, 0, 86, 62
1, 140027, Control_c, 0, 64, 94
1, 140027, Control_c, 0, 67, 56
1, 140035, Note_off_c, 0, 67, 62
1, 140042, Control_c, 0, 64, 95
1, 140042, Control_c, 0, 67, 54
1, 140056, Control_c, 0, 64, 96
1, 140056, Control_c, 0, 67, 53
1, 140064, Note_on_c, 0, 83, 59
1, 140071, Control_c, 0, 64, 98
1, 140071, Control_c, 0, 67, 52
1, 140086, Control_c, 0, 64, 99
1, 140086, Control_c, 0, 67, 51
1, 140101, Control_c, 0, 64, 100
1, 140101, Control_c, 0, 67, 50
1, 140116, Control_c, 0, 64, 101
1, 140116, Control_c, 0, 67, 48
1, 140130, Control_c, 0, 67, 46
1, 140132, Note_off_c, 0, 83, 60
1, 140140, Note_on_c, 0, 86, 70
1, 140146, Control_c, 0, 64, 99
1, 140146, Control_c, 0, 67, 43
1, 140161, Control_c, 0, 64, 78
1, 140161, Control_c, 0, 67, 40
1, 140176, Control_c, 0, 64, 64
1, 140176, Control_c, 0, 67, 37
1, 140191, Control_c, 0, 64, 28
1, 140191, Control_c, 0, 67, 33
1, 140206, Control_c, 0, 64, 0
1, 140206, Control_c, 0, 67, 28
1, 140213, Note_off_c, 0, 86, 63
1, 140220, Control_c, 0, 64, 27
1, 140220, Control_c, 0, 67, 24
1, 140228, Note_on_c, 0, 57, 56
1, 140235, Control_c, 0, 64, 50
1, 140235, Control_c, 0, 67, 17
1, 140250, Control_c, 0, 64, 63
1, 140250, Control_c, 0, 67, 12
1, 140259, Note_on_c, 0, 85, 65
1, 140265, Control_c, 0, 64, 68
1, 140265, Control_c, 0, 67, 8
1, 140276, Note_off_c, 0, 57, 62
1, 140279, Control_c, 0, 64, 73
1, 140279, Control_c, 0, 67, 0
1, 140294, Control_c, 0, 64, 74
1, 140309, Control_c, 0, 64, 75
1, 140324, Control_c, 0, 64, 76
1, 140339, Control_c, 0, 64, 78
1, 140346, Note_on_c, 0, 93, 63
1, 140354, Control_c, 0, 64, 80
1, 140368, Control_c, 0, 64, 81
1, 140383, Control_c, 0, 64, 82
1, 140398, Control_c, 0, 64, 83
1, 140404, Note_off_c, 0, 85, 36
1, 140413, Control_c, 0, 64, 83
1, 140429, Note_off_c, 0, 93, 60
1, 140439, Note_on_c, 0, 92, 65
1, 140443, Control_c, 0, 64, 84
1, 140453, Note_on_c, 0, 73, 55
1, 140458, Control_c, 0, 64, 85
1, 140464, Note_on_c, 0, 64, 55
1, 140472, Control_c, 0, 64, 85
1, 140538, Note_off_c, 0, 92, 60
1, 140539, Note_on_c, 0, 93, 71
1, 140562, Note_off_c, 0, 73, 59
1, 140569, Note_off_c, 0, 64, 63
1, 140605, Note_off_c, 0, 93, 61
1, 140627, Note_on_c, 0, 85, 66
1, 140707, Note_off_c, 0, 85, 58
1, 140720, Note_on_c, 0, 93, 69
1, 140732, Control_c, 0, 64, 77
1, 140746, Control_c, 0, 64, 62
1, 140761, Control_c, 0, 64, 0
1, 140819, Note_on_c, 0, 57, 64
1, 140820, Control_c, 0, 64, 23
1, 140827, Note_on_c, 0, 85, 57
1, 140835, Control_c, 0, 64, 64
1, 140850, Control_c, 0, 64, 72
1, 140853, Note_off_c, 0, 57, 64
1, 140865, Control_c, 0, 64, 79
1, 140875, Note_off_c, 0, 85, 63
1, 140879, Control_c, 0, 64, 81
1, 140894, Control_c, 0, 64, 81
1, 140908, Note_off_c, 0, 93, 56
1, 140909, Control_c, 0, 64, 82
1, 140929, Note_on_c, 0, 86, 60
1, 140969, Control_c, 0, 64, 82
1, 141003, Note_off_c, 0, 86, 38
1, 141017, Note_on_c, 0, 88, 68
1, 141025, Note_on_c, 0, 64, 50
1, 141028, Note_on_c, 0, 73, 50
1, 141069, Note_off_c, 0, 73, 0
1, 141069, Note_on_c, 0, 73, 6
1, 141074, Note_off_c, 0, 88, 63
1, 141109, Note_on_c, 0, 86, 64
1, 141138, Note_off_c, 0, 64, 60
1, 141188, Note_off_c, 0, 86, 47
1, 141197, Note_on_c, 0, 90, 69
1, 141197, Note_off_c, 0, 73, 41
1, 141213, Note_on_c, 0, 66, 59
1, 141218, Note_on_c, 0, 74, 51
1, 141284, Note_off_c, 0, 90, 61
1, 141288, Note_off_c, 0, 66, 55
1, 141292, Note_on_c, 0, 86, 74
1, 141313, Note_off_c, 0, 74, 39
1, 141387, Note_on_c, 0, 98, 67
1, 141408, Note_on_c, 0, 74, 52
1, 141412, Note_on_c, 0, 66, 58
1, 141426, Note_off_c, 0, 86, 36
1, 141491, Note_off_c, 0, 66, 39
1, 141495, Note_on_c, 0, 97, 62
1, 141509, Note_off_c, 0, 74, 38
1, 141552, Note_off_c, 0, 98, 34
1, 141574, Note_on_c, 0, 74, 39
1, 141585, Note_on_c, 0, 66, 55
1, 141586, Note_on_c, 0, 95, 62
1, 141643, Note_off_c, 0, 66, 58
1, 141650, Note_off_c, 0, 74, 53
1, 141660, Note_on_c, 0, 93, 68
1, 141667, Note_off_c, 0, 95, 57
1, 141678, Note_off_c, 0, 97, 42
1, 141726, Note_off_c, 0, 93, 62
1, 141751, Note_on_c, 0, 91, 67
1, 141756, Note_on_c, 0, 74, 48
1, 141760, Note_on_c, 0, 66, 59
1, 141764, Control_c, 0, 67, 8
1, 141791, Note_off_c, 0, 66, 67
1, 141793, Control_c, 0, 67, 8
1, 141794, Note_off_c, 0, 91, 52
1, 141796, Note_off_c, 0, 74, 63
1, 141823, Control_c, 0, 67, 9
1, 141841, Note_on_c, 0, 90, 69
1, 141867, Control_c, 0, 64, 76
1, 141882, Control_c, 0, 64, 62
1, 141897, Control_c, 0, 64, 0
1, 141897, Control_c, 0, 67, 8
1, 141912, Control_c, 0, 67, 8
1, 141926, Control_c, 0, 67, 0
1, 141948, Note_on_c, 0, 83, 65
1, 141955, Note_on_c, 0, 57, 62
1, 141966, Note_off_c, 0, 90, 54
1, 141971, Control_c, 0, 64, 58
1, 141986, Control_c, 0, 64, 66
1, 141994, Note_off_c, 0, 57, 58
1, 142000, Control_c, 0, 64, 70
1, 142015, Control_c, 0, 64, 75
1, 142015, Control_c, 0, 67, 8
1, 142030, Control_c, 0, 64, 80
1, 142040, Note_on_c, 0, 91, 60
1, 142044, Control_c, 0, 64, 85
1, 142044, Control_c, 0, 67, 8
1, 142059, Control_c, 0, 64, 93
1, 142074, Control_c, 0, 64, 105
1, 142074, Control_c, 0, 67, 9
1, 142104, Control_c, 0, 64, 88
1, 142104, Control_c, 0, 67, 9
1, 142118, Control_c, 0, 64, 67
1, 142133, Note_off_c, 0, 91, 59
1, 142133, Control_c, 0, 64, 36
1, 142135, Note_on_c, 0, 90, 69
1, 142148, Control_c, 0, 64, 0
1, 142156, Note_on_c, 0, 76, 72
1, 142163, Control_c, 0, 64, 48
1, 142171, Note_on_c, 0, 67, 50
1, 142178, Control_c, 0, 64, 61
1, 142182, Note_off_c, 0, 83, 55
1, 142193, Control_c, 0, 64, 70
1, 142208, Control_c, 0, 64, 86
1, 142230, Control_c, 0, 64, 108
1, 142241, Note_on_c, 0, 91, 67
1, 142244, Control_c, 0, 64, 116
1, 142259, Control_c, 0, 64, 125
1, 142274, Control_c, 0, 64, 127
1, 142287, Note_off_c, 0, 76, 62
1, 142289, Control_c, 0, 67, 9
1, 142302, Note_off_c, 0, 67, 61
1, 142313, Note_off_c, 0, 91, 60
1, 142321, Note_on_c, 0, 88, 72
1, 142345, Note_off_c, 0, 90, 23
1, 142410, Note_off_c, 0, 88, 61
1, 142413, Note_on_c, 0, 91, 79
1, 142422, Control_c, 0, 64, 78
1, 142437, Control_c, 0, 64, 52
1, 142452, Control_c, 0, 64, 0
1, 142477, Note_off_c, 0, 91, 61
1, 142482, Control_c, 0, 67, 8
1, 142506, Note_on_c, 0, 57, 69
1, 142512, Control_c, 0, 64, 41
1, 142512, Note_on_c, 0, 85, 73
1, 142526, Control_c, 0, 64, 65
1, 142533, Note_off_c, 0, 57, 67
1, 142542, Control_c, 0, 64, 71
1, 142556, Control_c, 0, 64, 76
1, 142571, Control_c, 0, 64, 78
1, 142586, Control_c, 0, 64, 81
1, 142601, Note_on_c, 0, 93, 73
1, 142601, Control_c, 0, 64, 86
1, 142616, Control_c, 0, 64, 96
1, 142631, Control_c, 0, 64, 121
1, 142631, Control_c, 0, 67, 9
1, 142646, Control_c, 0, 64, 127
1, 142661, Control_c, 0, 67, 9
1, 142661, Note_off_c, 0, 85, 48
1, 142675, Control_c, 0, 67, 10
1, 142690, Control_c, 0, 64, 98
1, 142698, Note_off_c, 0, 93, 61
1, 142705, Control_c, 0, 64, 68
1, 142705, Note_on_c, 0, 92, 74
1, 142714, Note_on_c, 0, 78, 74
1, 142720, Control_c, 0, 64, 39
1, 142720, Control_c, 0, 67, 9
1, 142720, Note_on_c, 0, 69, 59
1, 142735, Control_c, 0, 64, 0
1, 142735, Control_c, 0, 67, 9
1, 142749, Control_c, 0, 64, 46
1, 142749, Control_c, 0, 67, 8
1, 142764, Control_c, 0, 64, 61
1, 142779, Control_c, 0, 64, 69
1, 142793, Control_c, 0, 64, 79
1, 142806, Note_on_c, 0, 93, 75
1, 142808, Control_c, 0, 64, 89
1, 142808, Control_c, 0, 67, 8
1, 142815, Note_off_c, 0, 78, 64
1, 142823, Control_c, 0, 64, 91
1, 142838, Control_c, 0, 64, 92
1, 142849, Note_off_c, 0, 69, 64
1, 142853, Control_c, 0, 64, 92
1, 142878, Note_off_c, 0, 93, 61
1, 142882, Control_c, 0, 64, 93
1, 142882, Control_c, 0, 67, 8
1, 142885, Note_off_c, 0, 92, 0
1, 142896, Note_on_c, 0, 85, 73
1, 142897, Control_c, 0, 64, 94
1, 142912, Control_c, 0, 64, 97
1, 142923, Poly_aftertouch_c, 0, 92, 127
1, 142927, Control_c, 0, 64, 105
1, 142941, Control_c, 0, 64, 121
1, 142956, Control_c, 0, 64, 127
1, 142976, Note_off_c, 0, 85, 59
1, 142980, Note_on_c, 0, 93, 73
1, 142992, Control_c, 0, 64, 111
1, 143007, Control_c, 0, 64, 72
1, 143021, Control_c, 0, 64, 0
1, 143072, Note_on_c, 0, 57, 70
1, 143079, Note_on_c, 0, 85, 62
1, 143081, Control_c, 0, 64, 15
1, 143081, Control_c, 0, 67, 8
1, 143096, Control_c, 0, 64, 65
1, 143096, Control_c, 0, 67, 9
1, 143111, Control_c, 0, 64, 76
1, 143116, Note_off_c, 0, 57, 62
1, 143126, Control_c, 0, 64, 86
1, 143137, Note_off_c, 0, 85, 63
1, 143140, Control_c, 0, 64, 87
1, 143153, Note_off_c, 0, 93, 58
1, 143155, Control_c, 0, 64, 87
1, 143170, Control_c, 0, 64, 88
1, 143176, Poly_aftertouch_c, 0, 92, 0
1, 143182, Note_on_c, 0, 86, 70
1, 143185, Control_c, 0, 64, 89
1, 143199, Control_c, 0, 64, 90
1, 143199, Control_c, 0, 67, 8
1, 143214, Control_c, 0, 64, 91
1, 143264, Note_off_c, 0, 86, 59
1, 143273, Control_c, 0, 67, 8
1, 143274, Note_on_c, 0, 64, 60
1, 143281, Note_on_c, 0, 88, 68
1, 143286, Note_on_c, 0, 73, 59
1, 143322, Note_off_c, 0, 64, 0
1, 143322, Note_on_c, 0, 64, 19
1, 143333, Control_c, 0, 67, 0
1, 143344, Note_off_c, 0, 88, 63
1, 143363, Control_c, 0, 64, 91
1, 143372, Note_on_c, 0, 86, 64
1, 143378, Control_c, 0, 64, 92
1, 143393, Control_c, 0, 64, 94
1, 143395, Note_off_c, 0, 64, 58
1, 143407, Control_c, 0, 64, 100
1, 143422, Control_c, 0, 64, 107
1, 143427, Note_off_c, 0, 73, 51
1, 143437, Control_c, 0, 64, 109
1, 143452, Control_c, 0, 64, 98
1, 143458, Note_on_c, 0, 93, 67
1, 143463, Note_on_c, 0, 66, 63
1, 143466, Note_on_c, 0, 74, 58
1, 143467, Control_c, 0, 64, 71
1, 143482, Control_c, 0, 64, 42
1, 143496, Control_c, 0, 64, 0
1, 143511, Control_c, 0, 64, 25
1, 143526, Control_c, 0, 64, 53
1, 143530, Note_off_c, 0, 93, 60
1, 143541, Control_c, 0, 64, 65
1, 143544, Note_on_c, 0, 90, 74
1, 143556, Control_c, 0, 64, 77
1, 143556, Control_c, 0, 67, 8
1, 143570, Control_c, 0, 64, 94
1, 143572, Note_off_c, 0, 66, 60
1, 143578, Note_off_c, 0, 74, 58
1, 143585, Control_c, 0, 64, 103
1, 143600, Control_c, 0, 64, 103
1, 143644, Control_c, 0, 67, 0
1, 143654, Note_off_c, 0, 90, 63
1, 143656, Note_on_c, 0, 74, 56
1, 143656, Note_on_c, 0, 98, 70
1, 143656, Note_off_c, 0, 86, 41
1, 143659, Note_on_c, 0, 66, 62
1, 143752, Note_off_c, 0, 66, 55
1, 143761, Note_on_c, 0, 97, 71
1, 143778, Note_off_c, 0, 74, 39
1, 143812, Note_off_c, 0, 98, 57
1, 143841, Note_on_c, 0, 74, 53
1, 143846, Note_on_c, 0, 66, 62
1, 143859, Note_on_c, 0, 95, 66
1, 143904, Note_off_c, 0, 66, 60
1, 143910, Note_off_c, 0, 74, 57
1, 143913, Note_off_c, 0, 97, 59
1, 143919, Note_on_c, 0, 93, 71
1, 143927, Note_off_c, 0, 95, 60
1, 143993, Note_off_c, 0, 93, 61
1, 144014, Note_on_c, 0, 91, 66
1, 144020, Note_on_c, 0, 66, 63
1, 144028, Note_on_c, 0, 74, 62
1, 144047, Note_off_c, 0, 66, 67
1, 144052, Control_c, 0, 67, 8
1, 144059, Note_off_c, 0, 74, 64
1, 144059, Note_off_c, 0, 91, 53
1, 144096, Control_c, 0, 67, 8
1, 144101, Note_on_c, 0, 90, 73
1, 144172, Control_c, 0, 64, 89
1, 144186, Control_c, 0, 64, 69
1, 144197, Note_off_c, 0, 90, 60
1, 144201, Control_c, 0, 64, 28
1, 144215, Note_on_c, 0, 83, 71
1, 144216, Control_c, 0, 64, 0
1, 144236, Note_on_c, 0, 57, 58
1, 144275, Control_c, 0, 64, 57
1, 144275, Control_c, 0, 67, 9
1, 144290, Control_c, 0, 64, 66
1, 144290, Control_c, 0, 67, 9
1, 144304, Note_off_c, 0, 57, 63
1, 144305, Control_c, 0, 64, 71
1, 144305, Control_c, 0, 67, 10
1, 144319, Control_c, 0, 64, 74
1, 144319, Control_c, 0, 67, 11
1, 144334, Control_c, 0, 64, 76
1, 144349, Control_c, 0, 64, 76
1, 144355, Note_on_c, 0, 95, 72
1, 144364, Control_c, 0, 64, 77
1, 144364, Control_c, 0, 67, 11
1, 144379, Control_c, 0, 64, 77
1, 144423, Control_c, 0, 64, 78
1, 144437, Control_c, 0, 64, 78
1, 144452, Control_c, 0, 64, 79
1, 144485, Note_off_c, 0, 95, 65
1, 144491, Control_c, 0, 64, 79
1, 144493, Note_on_c, 0, 94, 70
1, 144497, Note_on_c, 0, 76, 63
1, 144519, Note_on_c, 0, 67, 45
1, 144520, Control_c, 0, 67, 11
1, 144601, Note_on_c, 0, 95, 68
1, 144606, Note_off_c, 0, 94, 62
1, 144628, Note_off_c, 0, 67, 58
1, 144634, Note_off_c, 0, 76, 61
1, 144638, Control_c, 0, 67, 10
1, 144682, Note_off_c, 0, 83, 31
1, 144700, Note_off_c, 0, 95, 60
1, 144702, Note_on_c, 0, 91, 69
1, 144781, Note_off_c, 0, 91, 56
1, 144782, Note_on_c, 0, 88, 73
1, 144786, Control_c, 0, 64, 76
1, 144801, Control_c, 0, 64, 66
1, 144816, Control_c, 0, 64, 34
1, 144831, Control_c, 0, 64, 0
1, 144846, Control_c, 0, 67, 10
1, 144881, Note_on_c, 0, 57, 54
1, 144886, Note_on_c, 0, 85, 69
1, 144890, Control_c, 0, 64, 29
1, 144905, Control_c, 0, 64, 61
1, 144910, Note_off_c, 0, 57, 65
1, 144920, Control_c, 0, 64, 68
1, 144935, Control_c, 0, 64, 74
1, 144950, Control_c, 0, 64, 78
1, 144965, Control_c, 0, 64, 82
1, 144969, Note_off_c, 0, 88, 38
1, 144980, Control_c, 0, 64, 88
1, 144992, Note_on_c, 0, 93, 62
1, 144995, Control_c, 0, 64, 95
1, 145010, Control_c, 0, 64, 104
1, 145025, Control_c, 0, 64, 115
1, 145025, Control_c, 0, 67, 10
1, 145040, Control_c, 0, 64, 125
1, 145054, Control_c, 0, 64, 116
1, 145069, Control_c, 0, 64, 82
1, 145084, Control_c, 0, 64, 60
1, 145090, Note_off_c, 0, 93, 61
1, 145098, Note_on_c, 0, 78, 62
1, 145099, Control_c, 0, 64, 0
1, 145102, Note_on_c, 0, 69, 44
1, 145102, Note_on_c, 0, 92, 65
1, 145114, Control_c, 0, 67, 10
1, 145121, Note_off_c, 0, 85, 36
1, 145143, Control_c, 0, 64, 36
1, 145143, Control_c, 0, 67, 9
1, 145158, Control_c, 0, 64, 63
1, 145173, Control_c, 0, 64, 69
1, 145187, Control_c, 0, 64, 75
1, 145202, Control_c, 0, 64, 80
1, 145221, Note_off_c, 0, 78, 64
1, 145224, Note_on_c, 0, 93, 67
1, 145224, Control_c, 0, 64, 87
1, 145224, Control_c, 0, 67, 9
1, 145239, Control_c, 0, 64, 96
1, 145239, Control_c, 0, 67, 8
1, 145254, Control_c, 0, 64, 127
1, 145254, Control_c, 0, 67, 0
1, 145295, Note_off_c, 0, 69, 63
1, 145338, Note_off_c, 0, 93, 60
1, 145353, Note_on_c, 0, 85, 59
1, 145454, Note_off_c, 0, 92, 13
1, 145486, Note_on_c, 0, 93, 61
1, 145499, Note_off_c, 0, 85, 54
1, 145683, Control_c, 0, 64, 114
1, 145698, Control_c, 0, 64, 78
1, 145713, Control_c, 0, 64, 61
1, 145716, Note_on_c, 0, 85, 52
1, 145728, Control_c, 0, 64, 0
1, 145745, Note_on_c, 0, 50, 46
1, 145788, Control_c, 0, 64, 12
1, 145803, Control_c, 0, 64, 63
1, 145818, Control_c, 0, 64, 69
1, 145832, Control_c, 0, 64, 81
1, 145834, Note_off_c, 0, 50, 63
1, 145847, Control_c, 0, 64, 105
1, 145859, Note_off_c, 0, 85, 65
1, 145862, Control_c, 0, 64, 127
1, 145952, Note_on_c, 0, 86, 52
1, 145976, Note_off_c, 0, 93, 31
1, 146092, Note_off_c, 0, 86, 47
1, 146123, Note_on_c, 0, 88, 45
1, 146142, Note_on_c, 0, 64, 37
1, 146154, Note_on_c, 0, 73, 45
1, 146233, Note_off_c, 0, 88, 58
1, 146277, Note_on_c, 0, 86, 53
1, 146340, Note_off_c, 0, 64, 42
1, 146383, Note_off_c, 0, 73, 32
1, 146402, Note_on_c, 0, 74, 37
1, 146403, Note_on_c, 0, 98, 52
1, 146414, Note_on_c, 0, 66, 39
1, 146494, Note_off_c, 0, 98, 56
1, 146506, Note_on_c, 0, 97, 57
1, 146519, Note_off_c, 0, 74, 35
1, 146519, Note_off_c, 0, 86, 41
1, 146524, Note_off_c, 0, 66, 35
1, 146613, Note_on_c, 0, 74, 38
1, 146617, Note_on_c, 0, 66, 37
1, 146621, Note_on_c, 0, 95, 56
1, 146682, Note_off_c, 0, 66, 55
1, 146694, Note_off_c, 0, 74, 46
1, 146714, Note_off_c, 0, 95, 59
1, 146716, Note_off_c, 0, 97, 35
1, 146726, Note_on_c, 0, 93, 56
1, 146789, Note_off_c, 0, 93, 61
1, 146813, Note_on_c, 0, 74, 40
1, 146814, Note_on_c, 0, 91, 65
1, 146820, Note_on_c, 0, 66, 43
1, 146879, Note_off_c, 0, 66, 54
1, 146906, Note_on_c, 0, 90, 64
1, 146906, Note_off_c, 0, 91, 57
1, 146909, Note_off_c, 0, 74, 39
1, 146995, Note_on_c, 0, 74, 40
1, 146998, Note_on_c, 0, 88, 63
1, 147011, Note_on_c, 0, 66, 45
1, 147024, Note_off_c, 0, 90, 48
1, 147064, Note_off_c, 0, 88, 63
1, 147072, Note_off_c, 0, 74, 58
1, 147073, Note_off_c, 0, 66, 47
1, 147087, Note_on_c, 0, 86, 60
1, 147142, Note_off_c, 0, 86, 54
1, 147171, Note_on_c, 0, 85, 64
1, 147257, Note_on_c, 0, 83, 69
1, 147320, Note_off_c, 0, 85, 47
1, 147341, Note_off_c, 0, 83, 57
1, 147342, Note_on_c, 0, 81, 66
1, 147397, Note_off_c, 0, 81, 60
1, 147422, Note_on_c, 0, 79, 61
1, 147500, Note_off_c, 0, 79, 58
1, 147510, Note_on_c, 0, 78, 67
1, 147588, Note_on_c, 0, 76, 69
1, 147591, Note_off_c, 0, 78, 63
1, 147648, Note_off_c, 0, 76, 65
1, 147673, Note_on_c, 0, 74, 59
1, 147722, Note_off_c, 0, 74, 61
1, 147752, Note_on_c, 0, 73, 52
1, 147813, Note_on_c, 0, 71, 72
1, 147856, Note_off_c, 0, 73, 61
1, 147887, Note_off_c, 0, 71, 61
1, 147893, Note_on_c, 0, 69, 67
1, 147945, Note_off_c, 0, 69, 65
1, 147970, Note_on_c, 0, 67, 65
1, 148041, Note_on_c, 0, 66, 73
1, 148044, Note_off_c, 0, 67, 58
1, 148090, Note_off_c, 0, 66, 65
1, 148119, Note_on_c, 0, 76, 63
1, 148122, Control_c, 0, 64, 109
1, 148130, Note_on_c, 0, 64, 67
1, 148138, Control_c, 0, 64, 67
1, 148152, Control_c, 0, 64, 0
1, 148197, Control_c, 0, 64, 43
1, 148211, Note_off_c, 0, 64, 61
1, 148214, Note_on_c, 0, 74, 63
1, 148219, Note_on_c, 0, 62, 59
1, 148219, Control_c, 0, 64, 62
1, 148235, Control_c, 0, 64, 70
1, 148244, Note_off_c, 0, 76, 50
1, 148250, Control_c, 0, 64, 79
1, 148265, Control_c, 0, 64, 87
1, 148276, Note_on_c, 0, 61, 73
1, 148277, Note_off_c, 0, 62, 62
1, 148280, Control_c, 0, 64, 89
1, 148291, Note_on_c, 0, 73, 65
1, 148294, Control_c, 0, 64, 92
1, 148296, Note_off_c, 0, 74, 57
1, 148309, Control_c, 0, 64, 94
1, 148324, Control_c, 0, 64, 96
1, 148326, Note_off_c, 0, 61, 62
1, 148339, Control_c, 0, 64, 98
1, 148343, Note_off_c, 0, 73, 60
1, 148354, Control_c, 0, 64, 101
1, 148362, Note_on_c, 0, 71, 66
1, 148365, Note_on_c, 0, 59, 63
1, 148368, Control_c, 0, 64, 103
1, 148383, Control_c, 0, 64, 105
1, 148388, Note_off_c, 0, 71, 68
1, 148398, Control_c, 0, 64, 108
1, 148412, Control_c, 0, 64, 111
1, 148427, Control_c, 0, 64, 113
1, 148429, Note_on_c, 0, 69, 66
1, 148430, Note_off_c, 0, 59, 62
1, 148432, Note_on_c, 0, 57, 70
1, 148442, Control_c, 0, 64, 115
1, 148457, Control_c, 0, 64, 118
1, 148472, Control_c, 0, 64, 125
1, 148486, Control_c, 0, 64, 127
1, 148493, Note_on_c, 0, 67, 72
1, 148497, Note_on_c, 0, 55, 67
1, 148497, Note_off_c, 0, 57, 63
1, 148530, Note_off_c, 0, 69, 53
1, 148553, Note_on_c, 0, 54, 71
1, 148566, Note_off_c, 0, 55, 64
1, 148568, Note_on_c, 0, 66, 75
1, 148570, Note_off_c, 0, 67, 61
1, 148608, Note_off_c, 0, 54, 61
1, 148619, Note_off_c, 0, 66, 66
1, 148632, Note_on_c, 0, 64, 69
1, 148638, Note_on_c, 0, 52, 77
1, 148658, Note_off_c, 0, 64, 67
1, 148692, Note_on_c, 0, 62, 76
1, 148706, Note_on_c, 0, 50, 69
1, 148706, Note_off_c, 0, 52, 63
1, 148759, Note_on_c, 0, 49, 74
1, 148764, Note_off_c, 0, 50, 63
1, 148766, Note_on_c, 0, 61, 79
1, 148795, Note_off_c, 0, 62, 52
1, 148832, Note_on_c, 0, 59, 78
1, 148834, Note_on_c, 0, 47, 74
1, 148836, Note_off_c, 0, 49, 62
1, 148864, Note_off_c, 0, 61, 62
1, 148889, Note_on_c, 0, 45, 75
1, 148899, Note_off_c, 0, 59, 64
1, 148903, Note_off_c, 0, 47, 65
1, 148906, Note_on_c, 0, 57, 74
1, 148981, Note_off_c, 0, 45, 63
1, 148983, Control_c, 0, 64, 86
1, 148986, Note_on_c, 0, 56, 83
1, 148987, Note_on_c, 0, 44, 85
1, 148998, Control_c, 0, 64, 53
1, 149007, Note_off_c, 0, 57, 62
1, 149013, Control_c, 0, 64, 0
1, 149073, Control_c, 0, 64, 31
1, 149078, Note_off_c, 0, 56, 64
1, 149088, Control_c, 0, 64, 76
1, 149102, Control_c, 0, 64, 127
1, 149117, Note_off_c, 0, 44, 63
1, 149317, Note_on_c, 0, 59, 69
1, 149318, Note_on_c, 0, 56, 68
1, 149320, Note_on_c, 0, 52, 78
1, 149323, Note_on_c, 0, 47, 76
1, 149325, Note_on_c, 0, 44, 62
1, 149327, Note_on_c, 0, 62, 63
1, 149329, Note_on_c, 0, 50, 61
1, 149337, Note_on_c, 0, 64, 42
1, 149344, Note_off_c, 0, 56, 66
1, 149346, Note_off_c, 0, 52, 69
1, 149352, Note_off_c, 0, 59, 59
1, 149352, Note_off_c, 0, 44, 63
1, 149352, Note_off_c, 0, 50, 64
1, 149353, Note_off_c, 0, 62, 64
1, 149356, Note_off_c, 0, 47, 66
1, 149365, Note_off_c, 0, 64, 55
1, 149394, Note_on_c, 0, 59, 58
1, 149395, Note_on_c, 0, 56, 86
1, 149408, Note_on_c, 0, 62, 80
1, 149410, Note_on_c, 0, 64, 80
1, 149413, Note_on_c, 0, 52, 70
1, 149415, Note_on_c, 0, 47, 53
1, 149425, Note_on_c, 0, 50, 67
1, 149435, Note_on_c, 0, 44, 64
1, 150791, Note_off_c, 0, 56, 60
1, 150826, Note_off_c, 0, 59, 56
1, 150844, Note_off_c, 0, 62, 48
1, 150859, Note_off_c, 0, 64, 53
1, 150864, Note_off_c, 0, 52, 60
1, 150952, Note_off_c, 0, 50, 56
1, 151046, Note_off_c, 0, 47, 52
1, 151110, Note_off_c, 0, 44, 58
1, 151349, Control_c, 0, 64, 98
1, 151363, Control_c, 0, 64, 70
1, 151378, Control_c, 0, 64, 38
1, 151393, Control_c, 0, 64, 0
1, 151511, Note_on_c, 0, 76, 69
1, 151563, Note_on_c, 0, 44, 35
1, 151630, Control_c, 0, 64, 38
1, 151645, Control_c, 0, 64, 58
1, 151660, Control_c, 0, 64, 64
1, 151660, Control_c, 0, 67, 10
1, 151675, Control_c, 0, 64, 67
1, 151675, Control_c, 0, 67, 12
1, 151690, Control_c, 0, 64, 71
1, 151690, Control_c, 0, 67, 14
1, 151704, Control_c, 0, 64, 77
1, 151704, Control_c, 0, 67, 18
1, 151719, Control_c, 0, 64, 82
1, 151719, Control_c, 0, 67, 23
1, 151734, Control_c, 0, 64, 88
1, 151734, Control_c, 0, 67, 28
1, 151748, Control_c, 0, 64, 92
1, 151748, Control_c, 0, 67, 34
1, 151763, Control_c, 0, 64, 94
1, 151763, Control_c, 0, 67, 37
1, 151778, Control_c, 0, 64, 95
1, 151778, Control_c, 0, 67, 39
1, 151793, Control_c, 0, 64, 96
1, 151793, Control_c, 0, 67, 40
1, 151808, Control_c, 0, 64, 97
1, 151808, Control_c, 0, 67, 42
1, 151821, Note_on_c, 0, 64, 42
1, 151823, Control_c, 0, 64, 98
1, 151867, Control_c, 0, 64, 98
1, 151882, Control_c, 0, 64, 99
1, 151897, Control_c, 0, 67, 41
1, 151911, Control_c, 0, 64, 99
1, 151911, Control_c, 0, 67, 41
1, 151912, Note_on_c, 0, 71, 47
1, 151926, Control_c, 0, 67, 40
1, 151941, Control_c, 0, 67, 40
1, 151985, Note_off_c, 0, 64, 42
1, 151993, Control_c, 0, 67, 39
1, 152008, Control_c, 0, 67, 39
1, 152011, Note_on_c, 0, 74, 50
1, 152037, Control_c, 0, 67, 38
1, 152067, Control_c, 0, 67, 38
1, 152142, Control_c, 0, 67, 37
1, 152157, Control_c, 0, 67, 36
1, 152172, Control_c, 0, 67, 36
1, 152186, Control_c, 0, 64, 98
1, 152186, Control_c, 0, 67, 35
1, 152201, Control_c, 0, 64, 98
1, 152201, Control_c, 0, 67, 35
1, 152216, Control_c, 0, 64, 95
1, 152216, Control_c, 0, 67, 34
1, 152231, Control_c, 0, 64, 91
1, 152231, Control_c, 0, 67, 34
1, 152237, Note_on_c, 0, 77, 68
1, 152246, Control_c, 0, 64, 87
1, 152246, Control_c, 0, 67, 33
1, 152260, Control_c, 0, 64, 83
1, 152260, Control_c, 0, 67, 33
1, 152275, Control_c, 0, 64, 78
1, 152275, Control_c, 0, 67, 32
1, 152285, Note_on_c, 0, 40, 45
1, 152290, Control_c, 0, 64, 72
1, 152290, Control_c, 0, 67, 31
1, 152304, Note_off_c, 0, 71, 17
1, 152305, Control_c, 0, 64, 61
1, 152305, Control_c, 0, 67, 31
1, 152318, Note_off_c, 0, 76, 48
1, 152320, Control_c, 0, 64, 0
1, 152320, Control_c, 0, 67, 30
1, 152324, Note_off_c, 0, 74, 47
1, 152325, Note_off_c, 0, 44, 56
1, 152334, Control_c, 0, 67, 29
1, 152349, Control_c, 0, 67, 27
1, 152364, Control_c, 0, 67, 23
1, 152379, Control_c, 0, 67, 21
1, 152393, Control_c, 0, 67, 18
1, 152408, Control_c, 0, 64, 51
1, 152408, Control_c, 0, 67, 16
1, 152423, Control_c, 0, 64, 62
1, 152423, Control_c, 0, 67, 14
1, 152438, Control_c, 0, 64, 64
1, 152438, Control_c, 0, 67, 13
1, 152453, Control_c, 0, 64, 64
1, 152453, Control_c, 0, 67, 11
1, 152468, Control_c, 0, 64, 66
1, 152468, Control_c, 0, 67, 9
1, 152483, Control_c, 0, 64, 67
1, 152483, Control_c, 0, 67, 8
1, 152493, Note_on_c, 0, 68, 40
1, 152497, Control_c, 0, 64, 70
1, 152497, Control_c, 0, 67, 0
1, 152512, Control_c, 0, 64, 73
1, 152527, Control_c, 0, 64, 75
1, 152542, Control_c, 0, 64, 76
1, 152557, Control_c, 0, 64, 77
1, 152571, Control_c, 0, 64, 79
1, 152578, Note_on_c, 0, 71, 47
1, 152586, Control_c, 0, 64, 81
1, 152601, Control_c, 0, 64, 82
1, 152616, Control_c, 0, 64, 84
1, 152631, Control_c, 0, 64, 87
1, 152645, Control_c, 0, 64, 89
1, 152660, Control_c, 0, 64, 92
1, 152668, Note_on_c, 0, 74, 53
1, 152675, Control_c, 0, 64, 95
1, 152686, Note_off_c, 0, 68, 46
1, 152690, Control_c, 0, 64, 98
1, 152712, Control_c, 0, 64, 101
1, 152727, Control_c, 0, 64, 103
1, 152742, Control_c, 0, 64, 105
1, 152745, Note_off_c, 0, 77, 54
1, 152757, Control_c, 0, 64, 105
1, 152772, Note_off_c, 0, 71, 33
1, 152772, Control_c, 0, 64, 106
1, 152873, Note_on_c, 0, 76, 75
1, 152890, Control_c, 0, 64, 105
1, 152900, Note_on_c, 0, 45, 51
1, 152904, Control_c, 0, 64, 103
1, 152907, Note_off_c, 0, 74, 63
1, 152919, Control_c, 0, 64, 90
1, 152936, Control_c, 0, 64, 75
1, 152950, Control_c, 0, 64, 64
1, 152954, Note_off_c, 0, 40, 56
1, 152965, Control_c, 0, 64, 46
1, 152980, Control_c, 0, 64, 0
1, 153009, Control_c, 0, 64, 38
1, 153024, Control_c, 0, 64, 54
1, 153039, Control_c, 0, 64, 61
1, 153054, Control_c, 0, 64, 64
1, 153069, Control_c, 0, 64, 66
1, 153083, Control_c, 0, 64, 68
1, 153092, Note_on_c, 0, 67, 49
1, 153098, Control_c, 0, 64, 70
1, 153113, Control_c, 0, 64, 73
1, 153127, Control_c, 0, 64, 77
1, 153142, Control_c, 0, 64, 81
1, 153157, Control_c, 0, 64, 86
1, 153171, Note_on_c, 0, 69, 52
1, 153172, Control_c, 0, 64, 90
1, 153187, Control_c, 0, 64, 94
1, 153198, Note_off_c, 0, 67, 38
1, 153201, Control_c, 0, 64, 98
1, 153216, Control_c, 0, 64, 102
1, 153231, Control_c, 0, 64, 109
1, 153246, Control_c, 0, 64, 127
1, 153259, Note_on_c, 0, 74, 61
1, 153299, Note_off_c, 0, 69, 49
1, 153439, Control_c, 0, 64, 77
1, 153461, Control_c, 0, 64, 53
1, 153462, Note_off_c, 0, 74, 64
1, 153463, Note_on_c, 0, 81, 77
1, 153475, Control_c, 0, 64, 0
1, 153490, Control_c, 0, 64, 19
1, 153498, Note_off_c, 0, 76, 22
1, 153505, Control_c, 0, 64, 51
1, 153512, Note_on_c, 0, 33, 49
1, 153520, Control_c, 0, 64, 64
1, 153535, Note_off_c, 0, 45, 62
1, 153535, Control_c, 0, 64, 75
1, 153550, Control_c, 0, 64, 99
1, 153556, Note_off_c, 0, 81, 61
1, 153565, Control_c, 0, 64, 121
1, 153580, Control_c, 0, 64, 127
1, 153683, Note_on_c, 0, 67, 50
1, 153755, Note_off_c, 0, 67, 54
1, 153761, Note_on_c, 0, 69, 52
1, 153844, Note_off_c, 0, 69, 65
1, 153848, Note_on_c, 0, 73, 58
1, 153853, Note_off_c, 0, 33, 54
1, 153915, Note_off_c, 0, 73, 54
1, 154096, Note_on_c, 0, 78, 76
1, 154128, Control_c, 0, 64, 125
1, 154138, Note_on_c, 0, 34, 48
1, 154143, Control_c, 0, 64, 104
1, 154158, Control_c, 0, 64, 89
1, 154173, Control_c, 0, 64, 74
1, 154188, Control_c, 0, 64, 62
1, 154210, Control_c, 0, 64, 0
1, 154283, Control_c, 0, 64, 41
1, 154298, Control_c, 0, 64, 60
1, 154313, Control_c, 0, 64, 66
1, 154328, Control_c, 0, 64, 68
1, 154343, Control_c, 0, 64, 69
1, 154351, Note_on_c, 0, 76, 50
1, 154357, Control_c, 0, 64, 70
1, 154372, Control_c, 0, 64, 72
1, 154387, Control_c, 0, 64, 74
1, 154402, Control_c, 0, 64, 76
1, 154417, Control_c, 0, 64, 77
1, 154431, Control_c, 0, 64, 79
1, 154432, Note_on_c, 0, 73, 52
1, 154446, Control_c, 0, 64, 80
1, 154461, Control_c, 0, 64, 81
1, 154470, Note_off_c, 0, 76, 59
1, 154490, Control_c, 0, 64, 81
1, 154505, Control_c, 0, 64, 82
1, 154523, Note_on_c, 0, 66, 54
1, 154536, Control_c, 0, 64, 82
1, 154704, Note_on_c, 0, 75, 71
1, 154714, Control_c, 0, 64, 82
1, 154719, Note_off_c, 0, 73, 62
1, 154728, Control_c, 0, 64, 81
1, 154743, Control_c, 0, 64, 79
1, 154751, Note_off_c, 0, 78, 63
1, 154757, Note_on_c, 0, 35, 41
1, 154758, Control_c, 0, 64, 72
1, 154772, Control_c, 0, 64, 64
1, 154787, Control_c, 0, 64, 0
1, 154820, Note_off_c, 0, 34, 39
1, 154846, Note_off_c, 0, 66, 37
1, 154877, Control_c, 0, 64, 21
1, 154891, Control_c, 0, 64, 53
1, 154906, Control_c, 0, 64, 61
1, 154921, Control_c, 0, 64, 64
1, 154921, Control_c, 0, 67, 9
1, 154936, Note_on_c, 0, 72, 49
1, 154936, Control_c, 0, 64, 64
1, 154936, Control_c, 0, 67, 10
1, 154958, Control_c, 0, 64, 65
1, 154958, Control_c, 0, 67, 11
1, 154973, Control_c, 0, 64, 67
1, 154973, Control_c, 0, 67, 13
1, 154988, Control_c, 0, 64, 69
1, 154988, Control_c, 0, 67, 16
1, 155003, Control_c, 0, 64, 71
1, 155003, Control_c, 0, 67, 18
1, 155018, Control_c, 0, 64, 73
1, 155018, Control_c, 0, 67, 20
1, 155032, Note_on_c, 0, 69, 48
1, 155033, Control_c, 0, 64, 75
1, 155033, Control_c, 0, 67, 22
1, 155047, Control_c, 0, 64, 77
1, 155047, Control_c, 0, 67, 24
1, 155062, Control_c, 0, 64, 79
1, 155062, Control_c, 0, 67, 26
1, 155077, Control_c, 0, 64, 80
1, 155077, Control_c, 0, 67, 27
1, 155092, Control_c, 0, 64, 81
1, 155092, Control_c, 0, 67, 29
1, 155100, Note_off_c, 0, 72, 28
1, 155106, Control_c, 0, 64, 81
1, 155106, Control_c, 0, 67, 32
1, 155119, Note_on_c, 0, 66, 49
1, 155121, Control_c, 0, 64, 82
1, 155121, Control_c, 0, 67, 35
1, 155123, Note_off_c, 0, 69, 58
1, 155136, Control_c, 0, 64, 82
1, 155136, Control_c, 0, 67, 37
1, 155151, Control_c, 0, 67, 40
1, 155166, Control_c, 0, 67, 42
1, 155181, Control_c, 0, 67, 44
1, 155195, Control_c, 0, 67, 47
1, 155210, Control_c, 0, 67, 50
1, 155220, Note_off_c, 0, 66, 63
1, 155225, Control_c, 0, 67, 54
1, 155240, Control_c, 0, 67, 57
1, 155255, Control_c, 0, 67, 59
1, 155270, Control_c, 0, 67, 61
1, 155285, Control_c, 0, 67, 64
1, 155299, Control_c, 0, 67, 66
1, 155315, Note_on_c, 0, 76, 72
1, 155315, Control_c, 0, 67, 67
1, 155330, Control_c, 0, 64, 80
1, 155330, Control_c, 0, 67, 68
1, 155330, Note_on_c, 0, 32, 47
1, 155345, Control_c, 0, 64, 73
1, 155345, Control_c, 0, 67, 69
1, 155345, Note_off_c, 0, 75, 63
1, 155359, Control_c, 0, 64, 63
1, 155359, Control_c, 0, 67, 70
1, 155374, Control_c, 0, 64, 27
1, 155374, Control_c, 0, 67, 72
1, 155389, Control_c, 0, 64, 0
1, 155389, Control_c, 0, 67, 73
1, 155404, Control_c, 0, 67, 75
1, 155413, Note_off_c, 0, 35, 46
1, 155419, Control_c, 0, 67, 76
1, 155434, Control_c, 0, 67, 77
1, 155449, Control_c, 0, 67, 78
1, 155464, Control_c, 0, 64, 48
1, 155464, Control_c, 0, 67, 79
1, 155478, Control_c, 0, 64, 59
1, 155478, Control_c, 0, 67, 81
1, 155493, Control_c, 0, 64, 62
1, 155493, Control_c, 0, 67, 82
1, 155508, Control_c, 0, 64, 63
1, 155508, Control_c, 0, 67, 82
1, 155521, Note_on_c, 0, 74, 48
1, 155522, Control_c, 0, 64, 64
1, 155537, Control_c, 0, 64, 65
1, 155552, Control_c, 0, 64, 67
1, 155567, Control_c, 0, 64, 69
1, 155582, Control_c, 0, 64, 72
1, 155596, Control_c, 0, 64, 74
1, 155611, Note_on_c, 0, 71, 47
1, 155611, Control_c, 0, 64, 75
1, 155626, Control_c, 0, 64, 76
1, 155640, Note_off_c, 0, 74, 53
1, 155641, Control_c, 0, 64, 77
1, 155656, Control_c, 0, 67, 83
1, 155685, Control_c, 0, 64, 77
1, 155696, Note_off_c, 0, 71, 61
1, 155702, Note_on_c, 0, 64, 44
1, 155751, Control_c, 0, 67, 83
1, 155766, Control_c, 0, 67, 84
1, 155781, Control_c, 0, 67, 85
1, 155795, Control_c, 0, 67, 87
1, 155810, Control_c, 0, 67, 88
1, 155825, Control_c, 0, 64, 77
1, 155825, Control_c, 0, 67, 89
1, 155840, Control_c, 0, 67, 90
1, 155855, Control_c, 0, 67, 91
1, 155869, Control_c, 0, 64, 76
1, 155884, Control_c, 0, 64, 75
1, 155884, Control_c, 0, 67, 92
1, 155899, Control_c, 0, 64, 73
1, 155900, Note_on_c, 0, 73, 68
1, 155914, Control_c, 0, 64, 70
1, 155929, Control_c, 0, 64, 66
1, 155938, Note_off_c, 0, 64, 36
1, 155939, Note_on_c, 0, 33, 38
1, 155944, Note_off_c, 0, 76, 62
1, 155944, Control_c, 0, 64, 57
1, 155959, Control_c, 0, 64, 0
1, 155959, Control_c, 0, 67, 92
1, 155969, Note_off_c, 0, 32, 43
1, 156062, Control_c, 0, 64, 44
1, 156062, Control_c, 0, 67, 93
1, 156077, Control_c, 0, 64, 57
1, 156092, Control_c, 0, 64, 61
1, 156092, Control_c, 0, 67, 93
1, 156107, Control_c, 0, 64, 62
1, 156107, Control_c, 0, 67, 94
1, 156123, Control_c, 0, 64, 63
1, 156128, Note_on_c, 0, 70, 46
1, 156137, Control_c, 0, 64, 64
1, 156137, Control_c, 0, 67, 96
1, 156152, Control_c, 0, 64, 66
1, 156152, Control_c, 0, 67, 97
1, 156167, Control_c, 0, 64, 67
1, 156167, Control_c, 0, 67, 99
1, 156182, Control_c, 0, 64, 69
1, 156182, Control_c, 0, 67, 102
1, 156197, Control_c, 0, 64, 71
1, 156197, Control_c, 0, 67, 105
1, 156210, Note_on_c, 0, 67, 50
1, 156212, Control_c, 0, 64, 72
1, 156212, Control_c, 0, 67, 107
1, 156226, Control_c, 0, 64, 74
1, 156226, Control_c, 0, 67, 110
1, 156230, Note_off_c, 0, 70, 0
1, 156241, Control_c, 0, 64, 74
1, 156241, Control_c, 0, 67, 112
1, 156256, Control_c, 0, 64, 75
1, 156256, Control_c, 0, 67, 114
1, 156267, Poly_aftertouch_c, 0, 70, 127
1, 156271, Control_c, 0, 67, 117
1, 156286, Control_c, 0, 67, 120
1, 156292, Note_off_c, 0, 67, 60
1, 156300, Control_c, 0, 64, 76
1, 156300, Control_c, 0, 67, 124
1, 156315, Note_on_c, 0, 64, 44
1, 156315, Control_c, 0, 67, 127
1, 156349, Poly_aftertouch_c, 0, 70, 0
1, 156518, Note_on_c, 0, 74, 63
1, 156529, Control_c, 0, 64, 75
1, 156543, Control_c, 0, 64, 74
1, 156544, Note_on_c, 0, 30, 41
1, 156558, Control_c, 0, 64, 71
1, 156573, Control_c, 0, 64, 67
1, 156578, Note_off_c, 0, 73, 52
1, 156588, Control_c, 0, 64, 60
1, 156597, Note_off_c, 0, 33, 42
1, 156601, Note_off_c, 0, 64, 39
1, 156603, Control_c, 0, 64, 0
1, 156707, Control_c, 0, 64, 49
1, 156722, Control_c, 0, 64, 59
1, 156737, Control_c, 0, 64, 62
1, 156741, Note_on_c, 0, 72, 49
1, 156751, Control_c, 0, 64, 63
1, 156766, Control_c, 0, 64, 64
1, 156781, Control_c, 0, 64, 66
1, 156796, Control_c, 0, 64, 68
1, 156811, Control_c, 0, 64, 70
1, 156825, Control_c, 0, 64, 72
1, 156833, Note_on_c, 0, 69, 50
1, 156840, Control_c, 0, 64, 74
1, 156855, Control_c, 0, 64, 75
1, 156869, Control_c, 0, 64, 75
1, 156875, Note_off_c, 0, 72, 37
1, 156884, Control_c, 0, 64, 76
1, 156899, Control_c, 0, 64, 76
1, 156915, Control_c, 0, 64, 77
1, 156923, Note_off_c, 0, 69, 62
1, 156937, Note_on_c, 0, 62, 47
1, 156960, Control_c, 0, 64, 77
1, 157000, Note_off_c, 0, 74, 55
1, 157130, Note_on_c, 0, 74, 65
1, 157166, Control_c, 0, 64, 77
1, 157173, Note_on_c, 0, 31, 43
1, 157181, Control_c, 0, 64, 76
1, 157199, Note_off_c, 0, 30, 36
1, 157204, Control_c, 0, 64, 72
1, 157219, Control_c, 0, 64, 66
1, 157234, Control_c, 0, 64, 58
1, 157239, Note_off_c, 0, 62, 38
1, 157248, Control_c, 0, 64, 12
1, 157263, Control_c, 0, 64, 0
1, 157322, Control_c, 0, 64, 20
1, 157337, Control_c, 0, 64, 47
1, 157344, Note_on_c, 0, 71, 46
1, 157352, Control_c, 0, 64, 57
1, 157366, Control_c, 0, 64, 62
1, 157381, Control_c, 0, 64, 64
1, 157396, Control_c, 0, 64, 65
1, 157411, Control_c, 0, 64, 66
1, 157425, Note_on_c, 0, 67, 49
1, 157426, Control_c, 0, 64, 68
1, 157441, Control_c, 0, 64, 71
1, 157454, Note_off_c, 0, 71, 36
1, 157455, Control_c, 0, 64, 73
1, 157470, Control_c, 0, 64, 75
1, 157485, Control_c, 0, 64, 77
1, 157497, Note_off_c, 0, 67, 62
1, 157500, Control_c, 0, 64, 79
1, 157515, Control_c, 0, 64, 82
1, 157527, Note_off_c, 0, 74, 61
1, 157528, Note_on_c, 0, 62, 49
1, 157530, Control_c, 0, 64, 83
1, 157544, Control_c, 0, 64, 85
1, 157559, Control_c, 0, 64, 85
1, 157574, Control_c, 0, 64, 86
1, 157712, Note_off_c, 0, 62, 36
1, 157759, Note_on_c, 0, 74, 65
1, 157797, Control_c, 0, 64, 85
1, 157803, Note_on_c, 0, 33, 40
1, 157810, Note_off_c, 0, 31, 39
1, 157812, Control_c, 0, 64, 83
1, 157827, Control_c, 0, 64, 80
1, 157842, Control_c, 0, 64, 72
1, 157857, Control_c, 0, 64, 63
1, 157871, Control_c, 0, 64, 28
1, 157886, Control_c, 0, 64, 0
1, 157968, Control_c, 0, 64, 45
1, 157983, Control_c, 0, 64, 60
1, 157989, Note_on_c, 0, 66, 46
1, 157998, Control_c, 0, 64, 64
1, 158012, Control_c, 0, 64, 65
1, 158027, Control_c, 0, 64, 66
1, 158042, Control_c, 0, 64, 68
1, 158057, Control_c, 0, 64, 71
1, 158072, Control_c, 0, 64, 73
1, 158073, Note_on_c, 0, 69, 49
1, 158102, Control_c, 0, 64, 73
1, 158123, Note_off_c, 0, 69, 55
1, 158150, Note_on_c, 0, 71, 51
1, 158163, Note_off_c, 0, 66, 42
1, 158167, Note_off_c, 0, 33, 42
1, 158230, Note_off_c, 0, 71, 59
1, 158254, Note_on_c, 0, 69, 49
1, 158279, Control_c, 0, 64, 73
1, 158294, Control_c, 0, 64, 72
1, 158309, Control_c, 0, 64, 72
1, 158323, Control_c, 0, 64, 70
1, 158338, Control_c, 0, 64, 69
1, 158353, Control_c, 0, 64, 67
1, 158368, Control_c, 0, 64, 65
1, 158375, Note_on_c, 0, 73, 60
1, 158383, Control_c, 0, 64, 62
1, 158391, Note_off_c, 0, 74, 39
1, 158395, Note_off_c, 0, 69, 57
1, 158397, Control_c, 0, 64, 55
1, 158404, Note_on_c, 0, 33, 34
1, 158412, Control_c, 0, 64, 31
1, 158427, Control_c, 0, 64, 0
1, 158546, Control_c, 0, 64, 49
1, 158561, Control_c, 0, 64, 60
1, 158576, Control_c, 0, 64, 63
1, 158591, Control_c, 0, 64, 64
1, 158601, Note_on_c, 0, 71, 47
1, 158606, Control_c, 0, 64, 66
1, 158621, Control_c, 0, 64, 68
1, 158635, Control_c, 0, 64, 70
1, 158650, Control_c, 0, 64, 72
1, 158665, Control_c, 0, 64, 73
1, 158680, Control_c, 0, 64, 74
1, 158683, Note_on_c, 0, 67, 46
1, 158700, Note_off_c, 0, 71, 57
1, 158773, Note_off_c, 0, 67, 38
1, 158791, Note_off_c, 0, 33, 41
1, 158796, Note_on_c, 0, 66, 45
1, 158860, Note_off_c, 0, 66, 56
1, 158880, Note_on_c, 0, 67, 52
1, 158895, Control_c, 0, 64, 73
1, 158910, Control_c, 0, 64, 73
1, 158925, Control_c, 0, 64, 72
1, 158939, Control_c, 0, 64, 71
1, 158954, Control_c, 0, 64, 70
1, 158969, Control_c, 0, 64, 69
1, 158984, Control_c, 0, 64, 68
1, 158999, Control_c, 0, 64, 66
1, 159013, Control_c, 0, 64, 63
1, 159026, Note_on_c, 0, 74, 56
1, 159028, Control_c, 0, 64, 53
1, 159029, Note_off_c, 0, 67, 39
1, 159043, Control_c, 0, 64, 0
1, 159047, Note_off_c, 0, 73, 52
1, 159061, Note_on_c, 0, 33, 29
1, 159146, Control_c, 0, 64, 53
1, 159161, Control_c, 0, 64, 62
1, 159176, Control_c, 0, 64, 64
1, 159191, Control_c, 0, 64, 64
1, 159206, Control_c, 0, 64, 65
1, 159220, Control_c, 0, 64, 67
1, 159235, Control_c, 0, 64, 69
1, 159250, Control_c, 0, 64, 72
1, 159264, Control_c, 0, 64, 73
1, 159266, Note_on_c, 0, 66, 40
1, 159279, Control_c, 0, 64, 73
1, 159340, Control_c, 0, 64, 74
1, 159348, Note_off_c, 0, 33, 55
1, 159359, Note_on_c, 0, 69, 41
1, 159422, Note_off_c, 0, 69, 56
1, 159430, Note_off_c, 0, 66, 25
1, 159461, Note_on_c, 0, 71, 43
1, 159525, Control_c, 0, 64, 73
1, 159568, Note_off_c, 0, 71, 50
1, 159584, Control_c, 0, 64, 73
1, 159603, Note_on_c, 0, 69, 40
1, 159614, Control_c, 0, 64, 72
1, 159629, Control_c, 0, 64, 72
1, 159643, Control_c, 0, 64, 71
1, 159658, Control_c, 0, 64, 70
1, 159673, Control_c, 0, 64, 69
1, 159688, Control_c, 0, 64, 69
1, 159703, Control_c, 0, 64, 68
1, 159717, Control_c, 0, 64, 67
1, 159732, Control_c, 0, 64, 66
1, 159747, Note_on_c, 0, 33, 30
1, 159747, Control_c, 0, 64, 66
1, 159762, Control_c, 0, 64, 65
1, 159777, Control_c, 0, 64, 64
1, 159792, Control_c, 0, 64, 64
1, 159795, Note_on_c, 0, 73, 48
1, 159807, Control_c, 0, 64, 63
1, 159822, Control_c, 0, 64, 61
1, 159836, Control_c, 0, 64, 59
1, 159842, Note_off_c, 0, 74, 39
1, 159851, Control_c, 0, 64, 56
1, 159866, Control_c, 0, 64, 50
1, 159877, Note_off_c, 0, 69, 43
1, 159881, Control_c, 0, 64, 43
1, 159895, Control_c, 0, 64, 30
1, 159910, Control_c, 0, 64, 0
1, 160123, Note_on_c, 0, 71, 37
1, 160224, Note_off_c, 0, 71, 60
1, 160239, Note_on_c, 0, 67, 39
1, 160334, Note_off_c, 0, 67, 45
1, 160372, Note_on_c, 0, 66, 32
1, 160445, Note_off_c, 0, 66, 46
1, 160472, Note_on_c, 0, 67, 37
1, 160737, Note_on_c, 0, 74, 33
1, 160749, Note_off_c, 0, 67, 42
1, 160750, Note_on_c, 0, 66, 39
1, 160770, Note_on_c, 0, 38, 25
1, 160784, Note_off_c, 0, 73, 34
1, 160798, Note_off_c, 0, 33, 43
1, 160927, Control_c, 0, 64, 32
1, 160949, Control_c, 0, 64, 61
1, 160963, Control_c, 0, 64, 66
1, 160978, Control_c, 0, 64, 68
1, 160983, Note_off_c, 0, 66, 62
1, 160993, Control_c, 0, 64, 71
1, 161008, Control_c, 0, 64, 77
1, 161022, Control_c, 0, 64, 82
1, 161037, Control_c, 0, 64, 87
1, 161052, Control_c, 0, 64, 91
1, 161066, Control_c, 0, 64, 94
1, 161071, Note_off_c, 0, 74, 34
1, 161081, Control_c, 0, 64, 97
1, 161096, Control_c, 0, 64, 101
1, 161111, Control_c, 0, 64, 104
1, 161126, Control_c, 0, 64, 106
1, 161140, Control_c, 0, 64, 107
1, 161155, Control_c, 0, 64, 107
1, 161170, Control_c, 0, 64, 109
1, 161185, Control_c, 0, 64, 110
1, 161200, Control_c, 0, 64, 110
1, 161214, Control_c, 0, 64, 111
1, 161256, Note_off_c, 0, 38, 35
1, 161259, Control_c, 0, 64, 112
1, 161288, Control_c, 0, 67, 124
1, 161303, Control_c, 0, 67, 119
1, 161318, Control_c, 0, 67, 115
1, 161333, Control_c, 0, 67, 110
1, 161348, Control_c, 0, 67, 107
1, 161363, Control_c, 0, 67, 104
1, 161378, Control_c, 0, 67, 102
1, 161393, Control_c, 0, 67, 100
1, 161407, Control_c, 0, 67, 98
1, 161422, Control_c, 0, 67, 95
1, 161437, Control_c, 0, 67, 92
1, 161452, Control_c, 0, 67, 90
1, 161454, Note_on_c, 0, 85, 43
1, 161466, Control_c, 0, 67, 87
1, 161481, Control_c, 0, 67, 85
1, 161496, Control_c, 0, 67, 83
1, 161511, Control_c, 0, 67, 81
1, 161526, Control_c, 0, 67, 79
1, 161540, Control_c, 0, 67, 77
1, 161555, Control_c, 0, 67, 75
1, 161570, Control_c, 0, 67, 73
1, 161585, Control_c, 0, 67, 71
1, 161600, Control_c, 0, 67, 68
1, 161605, Note_off_c, 0, 85, 54
1, 161614, Control_c, 0, 67, 66
1, 161629, Control_c, 0, 67, 64
1, 161631, Note_on_c, 0, 86, 50
1, 161644, Control_c, 0, 67, 62
1, 161658, Control_c, 0, 67, 60
1, 161673, Control_c, 0, 67, 59
1, 161696, Control_c, 0, 67, 58
1, 161712, Control_c, 0, 67, 57
1, 161727, Control_c, 0, 67, 56
1, 161742, Control_c, 0, 67, 55
1, 161757, Control_c, 0, 67, 53
1, 161771, Control_c, 0, 67, 52
1, 161786, Control_c, 0, 67, 51
1, 161801, Control_c, 0, 67, 49
1, 161809, Note_on_c, 0, 98, 44
1, 161816, Control_c, 0, 67, 48
1, 161822, Note_off_c, 0, 86, 30
1, 161831, Control_c, 0, 67, 46
1, 161846, Control_c, 0, 67, 45
1, 161861, Control_c, 0, 67, 44
1, 161876, Control_c, 0, 67, 42
1, 161890, Control_c, 0, 67, 41
1, 161905, Control_c, 0, 67, 40
1, 161915, Note_on_c, 0, 97, 54
1, 161920, Control_c, 0, 67, 39
1, 161935, Control_c, 0, 67, 38
1, 161950, Control_c, 0, 67, 37
1, 161969, Note_off_c, 0, 98, 27
1, 161979, Control_c, 0, 67, 36
1, 162009, Control_c, 0, 67, 35
1, 162024, Control_c, 0, 67, 35
1, 162029, Note_on_c, 0, 95, 52
1, 162038, Control_c, 0, 67, 34
1, 162053, Control_c, 0, 67, 33
1, 162068, Control_c, 0, 67, 33
1, 162082, Control_c, 0, 67, 32
1, 162097, Control_c, 0, 67, 31
1, 162099, Note_off_c, 0, 97, 29
1, 162103, Note_off_c, 0, 95, 59
1, 162112, Control_c, 0, 67, 30
1, 162123, Note_on_c, 0, 93, 52
1, 162127, Control_c, 0, 67, 28
1, 162142, Control_c, 0, 67, 27
1, 162157, Control_c, 0, 67, 26
1, 162171, Control_c, 0, 67, 25
1, 162177, Note_off_c, 0, 93, 62
1, 162186, Control_c, 0, 67, 24
1, 162201, Control_c, 0, 67, 23
1, 162210, Note_on_c, 0, 91, 59
1, 162216, Control_c, 0, 67, 21
1, 162231, Control_c, 0, 67, 20
1, 162245, Control_c, 0, 67, 19
1, 162260, Control_c, 0, 67, 18
1, 162275, Control_c, 0, 67, 16
1, 162283, Note_off_c, 0, 91, 54
1, 162290, Control_c, 0, 67, 15
1, 162292, Note_on_c, 0, 90, 63
1, 162305, Control_c, 0, 67, 14
1, 162320, Control_c, 0, 67, 12
1, 162335, Control_c, 0, 67, 11
1, 162350, Control_c, 0, 67, 10
1, 162364, Control_c, 0, 67, 9
1, 162379, Control_c, 0, 67, 9
1, 162380, Note_on_c, 0, 88, 63
1, 162385, Note_off_c, 0, 90, 53
1, 162394, Control_c, 0, 67, 8
1, 162408, Control_c, 0, 67, 0
1, 162439, Note_off_c, 0, 88, 62
1, 162469, Note_on_c, 0, 86, 60
1, 162521, Note_off_c, 0, 86, 54
1, 162550, Note_on_c, 0, 85, 61
1, 162633, Note_on_c, 0, 83, 64
1, 162704, Note_off_c, 0, 85, 35
1, 162704, Note_off_c, 0, 83, 58
1, 162708, Note_on_c, 0, 81, 60
1, 162762, Note_off_c, 0, 81, 61
1, 162777, Note_on_c, 0, 79, 63
1, 162851, Note_off_c, 0, 79, 56
1, 162861, Note_on_c, 0, 78, 67
1, 162933, Note_on_c, 0, 76, 66
1, 162948, Note_off_c, 0, 78, 57
1, 162988, Note_off_c, 0, 76, 64
1, 163008, Note_on_c, 0, 74, 65
1, 163064, Note_off_c, 0, 74, 57
1, 163084, Note_on_c, 0, 73, 62
1, 163148, Note_on_c, 0, 71, 71
1, 163198, Note_off_c, 0, 73, 61
1, 163224, Note_off_c, 0, 71, 62
1, 163226, Note_on_c, 0, 69, 66
1, 163253, Control_c, 0, 64, 113
1, 163275, Note_off_c, 0, 69, 63
1, 163298, Note_on_c, 0, 67, 64
1, 163370, Note_on_c, 0, 66, 76
1, 163374, Note_off_c, 0, 67, 59
1, 163403, Control_c, 0, 64, 112
1, 163418, Note_off_c, 0, 66, 65
1, 163445, Note_on_c, 0, 76, 66
1, 163453, Note_on_c, 0, 64, 61
1, 163520, Note_off_c, 0, 64, 60
1, 163525, Note_on_c, 0, 62, 63
1, 163529, Note_on_c, 0, 74, 63
1, 163580, Note_off_c, 0, 62, 62
1, 163582, Note_on_c, 0, 61, 72
1, 163582, Note_off_c, 0, 76, 38
1, 163600, Note_on_c, 0, 73, 69
1, 163604, Note_off_c, 0, 74, 59
1, 163637, Note_off_c, 0, 61, 62
1, 163651, Note_off_c, 0, 73, 62
1, 163663, Note_on_c, 0, 71, 70
1, 163667, Note_on_c, 0, 59, 72
1, 163688, Note_off_c, 0, 71, 68
1, 163728, Note_on_c, 0, 69, 68
1, 163740, Note_on_c, 0, 57, 71
1, 163744, Note_off_c, 0, 59, 59
1, 163789, Note_on_c, 0, 67, 72
1, 163800, Note_on_c, 0, 55, 72
1, 163804, Note_off_c, 0, 57, 61
1, 163826, Note_off_c, 0, 69, 60
1, 163862, Note_on_c, 0, 54, 75
1, 163862, Note_on_c, 0, 66, 76
1, 163873, Note_off_c, 0, 55, 63
1, 163874, Note_off_c, 0, 67, 58
1, 163916, Note_off_c, 0, 66, 65
1, 163919, Note_off_c, 0, 54, 63
1, 163935, Note_on_c, 0, 64, 67
1, 163953, Note_on_c, 0, 52, 78
1, 163958, Control_c, 0, 64, 111
1, 163959, Note_off_c, 0, 64, 70
1, 163988, Control_c, 0, 64, 110
1, 163995, Note_on_c, 0, 62, 76
1, 164003, Control_c, 0, 64, 102
1, 164017, Control_c, 0, 64, 87
1, 164024, Note_on_c, 0, 50, 70
1, 164028, Note_off_c, 0, 52, 61
1, 164032, Control_c, 0, 64, 73
1, 164047, Control_c, 0, 64, 63
1, 164058, Note_on_c, 0, 61, 79
1, 164061, Control_c, 0, 64, 46
1, 164067, Note_on_c, 0, 49, 75
1, 164076, Control_c, 0, 64, 29
1, 164081, Note_off_c, 0, 50, 63
1, 164088, Note_off_c, 0, 62, 57
1, 164091, Control_c, 0, 64, 21
1, 164107, Control_c, 0, 64, 0
1, 164127, Note_on_c, 0, 59, 76
1, 164144, Note_off_c, 0, 49, 62
1, 164147, Note_on_c, 0, 47, 69
1, 164154, Note_off_c, 0, 61, 64
1, 164178, Note_on_c, 0, 45, 78
1, 164185, Note_off_c, 0, 59, 65
1, 164191, Note_on_c, 0, 57, 70
1, 164198, Note_off_c, 0, 47, 60
1, 164259, Note_on_c, 0, 56, 84
1, 164267, Note_on_c, 0, 44, 85
1, 164269, Note_off_c, 0, 45, 64
1, 164278, Note_off_c, 0, 57, 63
1, 164347, Note_off_c, 0, 56, 63
1, 164359, Control_c, 0, 64, 55
1, 164368, Note_off_c, 0, 44, 65
1, 164374, Control_c, 0, 64, 83
1, 164389, Control_c, 0, 64, 127
1, 164558, Note_on_c, 0, 56, 75
1, 164560, Note_on_c, 0, 59, 75
1, 164562, Note_on_c, 0, 52, 78
1, 164562, Note_on_c, 0, 64, 67
1, 164567, Note_on_c, 0, 47, 72
1, 164567, Note_on_c, 0, 62, 68
1, 164567, Note_on_c, 0, 44, 64
1, 164567, Note_on_c, 0, 50, 65
1, 164585, Note_off_c, 0, 56, 62
1, 164589, Note_off_c, 0, 64, 68
1, 164590, Note_off_c, 0, 52, 68
1, 164594, Note_off_c, 0, 62, 63
1, 164595, Note_off_c, 0, 50, 65
1, 164600, Note_off_c, 0, 47, 66
1, 164602, Note_off_c, 0, 44, 64
1, 164603, Note_off_c, 0, 59, 56
1, 164630, Note_on_c, 0, 59, 57
1, 164631, Note_on_c, 0, 56, 83
1, 164640, Note_on_c, 0, 64, 81
1, 164642, Note_on_c, 0, 62, 73
1, 164645, Note_on_c, 0, 52, 75
1, 164648, Note_on_c, 0, 47, 66
1, 164654, Note_on_c, 0, 44, 67
1, 164654, Note_on_c, 0, 50, 75
1, 166155, Note_off_c, 0, 52, 58
1, 166159, Note_off_c, 0, 50, 38
1, 166193, Note_off_c, 0, 47, 61
1, 166240, Note_off_c, 0, 44, 62
1, 166359, Note_off_c, 0, 56, 56
1, 166423, Note_off_c, 0, 59, 21
1, 166425, Note_off_c, 0, 64, 27
1, 166486, Control_c, 0, 64, 76
1, 166502, Control_c, 0, 64, 0
1, 166509, Note_on_c, 0, 55, 88
1, 166517, Note_on_c, 0, 43, 80
1, 166518, Note_on_c, 0, 31, 77
1, 166522, Note_off_c, 0, 62, 41
1, 166588, Note_off_c, 0, 31, 64
1, 166591, Control_c, 0, 64, 65
1, 166606, Control_c, 0, 64, 127
1, 166609, Note_off_c, 0, 43, 64
1, 166636, Note_off_c, 0, 55, 60
1, 166840, Note_on_c, 0, 55, 76
1, 166844, Note_on_c, 0, 65, 65
1, 166848, Note_on_c, 0, 59, 68
1, 166849, Note_on_c, 0, 53, 70
1, 166851, Note_on_c, 0, 62, 63
1, 166852, Note_on_c, 0, 47, 66
1, 166856, Note_on_c, 0, 43, 55
1, 166860, Note_on_c, 0, 50, 55
1, 166870, Note_off_c, 0, 65, 65
1, 166872, Note_off_c, 0, 55, 60
1, 166875, Note_off_c, 0, 43, 58
1, 166875, Note_off_c, 0, 53, 68
1, 166876, Note_off_c, 0, 59, 66
1, 166878, Note_off_c, 0, 62, 66
1, 166883, Note_off_c, 0, 47, 65
1, 166883, Note_off_c, 0, 50, 61
1, 166927, Note_on_c, 0, 65, 88
1, 166928, Note_on_c, 0, 55, 77
1, 166936, Note_on_c, 0, 62, 79
1, 166937, Note_on_c, 0, 59, 68
1, 166937, Note_on_c, 0, 53, 77
1, 166946, Note_on_c, 0, 43, 65
1, 166947, Note_on_c, 0, 50, 62
1, 166948, Note_on_c, 0, 47, 70
1, 167546, Note_off_c, 0, 53, 52
1, 167549, Note_off_c, 0, 59, 61
1, 167572, Note_off_c, 0, 62, 59
1, 167572, Note_off_c, 0, 50, 44
1, 167593, Note_off_c, 0, 65, 56
1, 167610, Note_off_c, 0, 47, 58
1, 167613, Note_off_c, 0, 55, 61
1, 167651, Note_off_c, 0, 43, 62
1, 167732, Control_c, 0, 64, 60
1, 167747, Control_c, 0, 64, 0
1, 167790, Note_on_c, 0, 42, 99
1, 167790, Note_on_c, 0, 54, 93
1, 167792, Note_on_c, 0, 30, 93
1, 167806, Control_c, 0, 64, 74
1, 167816, Note_off_c, 0, 30, 69
1, 167820, Note_off_c, 0, 42, 62
1, 167821, Control_c, 0, 64, 127
1, 167862, Note_off_c, 0, 54, 57
1, 168077, Note_on_c, 0, 54, 84
1, 168081, Note_on_c, 0, 57, 78
1, 168085, Note_on_c, 0, 62, 73
1, 168087, Note_on_c, 0, 42, 77
1, 168088, Note_on_c, 0, 50, 78
1, 168091, Note_on_c, 0, 66, 65
1, 168092, Note_on_c, 0, 45, 72
1, 168116, Note_off_c, 0, 66, 68
1, 168116, Note_off_c, 0, 54, 60
1, 168118, Note_off_c, 0, 50, 66
1, 168120, Note_off_c, 0, 62, 60
1, 168124, Note_off_c, 0, 42, 62
1, 168125, Note_off_c, 0, 45, 67
1, 168125, Note_off_c, 0, 57, 63
1, 168161, Note_on_c, 0, 57, 78
1, 168162, Note_on_c, 0, 54, 82
1, 168164, Note_on_c, 0, 66, 92
1, 168165, Note_on_c, 0, 62, 75
1, 168168, Note_on_c, 0, 50, 82
1, 168170, Note_on_c, 0, 45, 82
1, 168175, Note_on_c, 0, 42, 81
1, 168465, Note_off_c, 0, 50, 58
1, 168495, Note_off_c, 0, 45, 55
1, 168515, Note_off_c, 0, 42, 56
1, 168516, Note_off_c, 0, 66, 62
1, 168544, Note_off_c, 0, 62, 58
1, 168561, Note_off_c, 0, 57, 58
1, 168637, Note_off_c, 0, 54, 60
1, 168911, Control_c, 0, 64, 97
1, 168926, Control_c, 0, 64, 60
1, 168940, Control_c, 0, 64, 0
1, 168989, Note_on_c, 0, 52, 98
1, 168990, Note_on_c, 0, 28, 92
1, 168993, Note_on_c, 0, 40, 98
1, 169027, Note_off_c, 0, 28, 65
1, 169029, Control_c, 0, 64, 58
1, 169033, Note_off_c, 0, 40, 67
1, 169040, Note_off_c, 0, 52, 70
1, 169044, Control_c, 0, 64, 127
1, 169310, Note_on_c, 0, 62, 83
1, 169312, Note_on_c, 0, 68, 76
1, 169313, Note_on_c, 0, 47, 78
1, 169313, Note_on_c, 0, 52, 72
1, 169314, Note_on_c, 0, 59, 74
1, 169316, Note_on_c, 0, 40, 71
1, 169323, Note_on_c, 0, 50, 69
1, 169336, Note_off_c, 0, 52, 73
1, 169336, Note_off_c, 0, 68, 69
1, 169338, Note_off_c, 0, 59, 69
1, 169343, Note_off_c, 0, 40, 66
1, 169343, Note_off_c, 0, 47, 68
1, 169343, Note_off_c, 0, 50, 62
1, 169346, Note_off_c, 0, 62, 62
1, 169384, Note_on_c, 0, 62, 76
1, 169385, Note_on_c, 0, 68, 87
1, 169389, Note_on_c, 0, 47, 77
1, 169391, Note_on_c, 0, 59, 85
1, 169397, Note_on_c, 0, 40, 76
1, 169401, Note_on_c, 0, 52, 67
1, 169403, Note_on_c, 0, 50, 66
1, 169536, Note_off_c, 0, 59, 58
1, 169552, Note_off_c, 0, 62, 61
1, 169578, Note_off_c, 0, 40, 62
1, 169596, Note_off_c, 0, 52, 58
1, 169599, Note_off_c, 0, 68, 62
1, 169602, Note_off_c, 0, 50, 40
1, 169605, Note_off_c, 0, 47, 60
1, 169793, Note_on_c, 0, 71, 76
1, 169796, Note_on_c, 0, 62, 66
1, 169803, Note_on_c, 0, 52, 70
1, 169811, Note_on_c, 0, 68, 57
1, 169841, Note_off_c, 0, 52, 64
1, 169850, Note_off_c, 0, 68, 57
1, 169855, Note_off_c, 0, 62, 54
1, 169856, Note_off_c, 0, 71, 60
1, 169983, Note_on_c, 0, 74, 73
1, 169992, Note_on_c, 0, 68, 52
1, 169993, Note_on_c, 0, 52, 70
1, 170010, Note_on_c, 0, 71, 28
1, 170017, Note_off_c, 0, 68, 63
1, 170031, Note_off_c, 0, 52, 62
1, 170031, Note_off_c, 0, 74, 65
1, 170043, Note_off_c, 0, 71, 53
1, 170158, Note_on_c, 0, 80, 79
1, 170166, Note_on_c, 0, 71, 55
1, 170169, Note_on_c, 0, 52, 77
1, 170196, Note_off_c, 0, 71, 64
1, 170201, Note_off_c, 0, 52, 69
1, 170208, Note_off_c, 0, 80, 63
1, 170327, Note_on_c, 0, 83, 75
1, 170336, Note_on_c, 0, 64, 85
1, 170337, Note_on_c, 0, 74, 66
1, 170377, Note_off_c, 0, 83, 61
1, 170379, Note_off_c, 0, 64, 62
1, 170392, Note_off_c, 0, 74, 57
1, 170498, Note_on_c, 0, 86, 86
1, 170501, Note_on_c, 0, 64, 89
1, 170505, Note_on_c, 0, 83, 59
1, 170510, Note_on_c, 0, 80, 62
1, 170526, Note_off_c, 0, 83, 64
1, 170529, Note_off_c, 0, 80, 67
1, 170550, Note_off_c, 0, 86, 63
1, 170556, Note_off_c, 0, 64, 65
1, 170663, Note_on_c, 0, 64, 91
1, 170679, Note_on_c, 0, 92, 91
1, 170684, Note_on_c, 0, 83, 84
1, 170705, Note_off_c, 0, 64, 66
1, 170714, Note_on_c, 0, 90, 36
1, 170722, Note_off_c, 0, 83, 56
1, 170729, Note_off_c, 0, 92, 67
1, 170749, Note_off_c, 0, 90, 53
1, 170846, Note_on_c, 0, 76, 78
1, 170847, Note_on_c, 0, 86, 84
1, 170848, Note_on_c, 0, 95, 93
1, 170887, Note_off_c, 0, 95, 68
1, 170893, Note_off_c, 0, 76, 62
1, 170918, Note_off_c, 0, 86, 57
1, 171060, Note_on_c, 0, 98, 85
1, 171066, Note_on_c, 0, 92, 79
1, 171070, Note_on_c, 0, 76, 91
1, 171074, Note_on_c, 0, 95, 69
1, 171085, Note_off_c, 0, 76, 76
1, 171088, Note_off_c, 0, 92, 71
1, 171092, Note_off_c, 0, 95, 66
1, 171099, Note_off_c, 0, 98, 67
1, 171394, Control_c, 0, 64, 77
1, 171409, Control_c, 0, 64, 42
1, 171431, Control_c, 0, 64, 0
1, 171584, Note_on_c, 0, 76, 75
1, 171641, Note_on_c, 0, 44, 40
1, 171757, Control_c, 0, 64, 39
1, 171772, Control_c, 0, 64, 53
1, 171787, Control_c, 0, 64, 57
1, 171801, Control_c, 0, 64, 60
1, 171816, Control_c, 0, 64, 63
1, 171831, Control_c, 0, 64, 66
1, 171846, Control_c, 0, 64, 71
1, 171861, Control_c, 0, 64, 76
1, 171875, Control_c, 0, 64, 80
1, 171890, Control_c, 0, 64, 83
1, 171905, Control_c, 0, 64, 87
1, 171920, Control_c, 0, 64, 92
1, 171935, Control_c, 0, 64, 98
1, 171945, Note_on_c, 0, 64, 46
1, 171949, Control_c, 0, 64, 106
1, 171964, Control_c, 0, 64, 118
1, 171964, Control_c, 0, 67, 9
1, 171979, Control_c, 0, 64, 127
1, 171979, Control_c, 0, 67, 11
1, 171993, Control_c, 0, 67, 13
1, 172008, Control_c, 0, 67, 14
1, 172024, Note_on_c, 0, 71, 54
1, 172095, Note_on_c, 0, 74, 55
1, 172102, Note_off_c, 0, 64, 43
1, 172113, Control_c, 0, 67, 13
1, 172128, Control_c, 0, 67, 13
1, 172143, Control_c, 0, 67, 12
1, 172158, Control_c, 0, 67, 11
1, 172180, Control_c, 0, 67, 11
1, 172284, Control_c, 0, 67, 10
1, 172309, Note_on_c, 0, 77, 73
1, 172313, Control_c, 0, 64, 119
1, 172313, Control_c, 0, 67, 10
1, 172328, Control_c, 0, 64, 106
1, 172328, Control_c, 0, 67, 9
1, 172343, Control_c, 0, 64, 97
1, 172343, Control_c, 0, 67, 9
1, 172355, Note_on_c, 0, 40, 48
1, 172358, Control_c, 0, 64, 87
1, 172358, Control_c, 0, 67, 8
1, 172372, Control_c, 0, 64, 74
1, 172372, Control_c, 0, 67, 8
1, 172374, Note_off_c, 0, 71, 40
1, 172375, Note_off_c, 0, 44, 58
1, 172384, Note_off_c, 0, 74, 56
1, 172387, Control_c, 0, 64, 56
1, 172387, Control_c, 0, 67, 0
1, 172397, Note_off_c, 0, 76, 46
1, 172402, Control_c, 0, 64, 0
1, 172506, Control_c, 0, 64, 54
1, 172520, Control_c, 0, 64, 62
1, 172535, Control_c, 0, 64, 64
1, 172550, Control_c, 0, 64, 65
1, 172554, Note_on_c, 0, 68, 40
1, 172565, Control_c, 0, 64, 67
1, 172580, Control_c, 0, 64, 68
1, 172595, Control_c, 0, 64, 69
1, 172610, Control_c, 0, 64, 69
1, 172624, Control_c, 0, 64, 70
1, 172631, Note_on_c, 0, 71, 53
1, 172639, Control_c, 0, 64, 70
1, 172654, Control_c, 0, 64, 71
1, 172669, Control_c, 0, 64, 73
1, 172684, Control_c, 0, 64, 75
1, 172698, Control_c, 0, 64, 78
1, 172699, Note_on_c, 0, 74, 58
1, 172713, Control_c, 0, 64, 80
1, 172726, Note_off_c, 0, 68, 35
1, 172728, Control_c, 0, 64, 83
1, 172742, Control_c, 0, 64, 86
1, 172757, Control_c, 0, 64, 90
1, 172769, Note_off_c, 0, 77, 54
1, 172772, Control_c, 0, 64, 94
1, 172775, Note_off_c, 0, 71, 47
1, 172787, Control_c, 0, 64, 99
1, 172802, Control_c, 0, 64, 107
1, 172816, Control_c, 0, 64, 121
1, 172831, Control_c, 0, 64, 127
1, 172893, Note_on_c, 0, 76, 74
1, 172928, Note_off_c, 0, 74, 51
1, 172929, Control_c, 0, 64, 99
1, 172935, Note_on_c, 0, 45, 52
1, 172944, Control_c, 0, 64, 76
1, 172959, Control_c, 0, 64, 61
1, 172974, Control_c, 0, 64, 0
1, 172987, Note_off_c, 0, 40, 59
1, 173047, Control_c, 0, 64, 57
1, 173062, Control_c, 0, 64, 64
1, 173077, Control_c, 0, 64, 66
1, 173092, Control_c, 0, 64, 69
1, 173107, Control_c, 0, 64, 73
1, 173116, Note_on_c, 0, 64, 51
1, 173121, Control_c, 0, 64, 77
1, 173136, Control_c, 0, 64, 80
1, 173151, Control_c, 0, 64, 84
1, 173165, Control_c, 0, 64, 87
1, 173180, Control_c, 0, 64, 90
1, 173182, Note_on_c, 0, 69, 57
1, 173188, Note_off_c, 0, 64, 56
1, 173195, Control_c, 0, 64, 93
1, 173210, Control_c, 0, 64, 97
1, 173225, Control_c, 0, 64, 100
1, 173240, Control_c, 0, 64, 103
1, 173254, Control_c, 0, 64, 103
1, 173257, Note_on_c, 0, 74, 65
1, 173269, Control_c, 0, 64, 104
1, 173298, Note_off_c, 0, 69, 52
1, 173388, Control_c, 0, 64, 103
1, 173403, Control_c, 0, 64, 97
1, 173418, Control_c, 0, 64, 76
1, 173433, Control_c, 0, 64, 34
1, 173445, Note_on_c, 0, 81, 81
1, 173447, Control_c, 0, 64, 0
1, 173451, Note_off_c, 0, 74, 65
1, 173474, Note_off_c, 0, 76, 24
1, 173486, Note_on_c, 0, 33, 52
1, 173507, Control_c, 0, 64, 42
1, 173510, Note_off_c, 0, 45, 59
1, 173521, Control_c, 0, 64, 66
1, 173536, Control_c, 0, 64, 77
1, 173546, Note_off_c, 0, 81, 61
1, 173551, Control_c, 0, 64, 92
1, 173565, Control_c, 0, 64, 127
1, 173668, Note_on_c, 0, 67, 48
1, 173749, Note_off_c, 0, 67, 38
1, 173753, Note_on_c, 0, 69, 45
1, 173802, Note_off_c, 0, 33, 49
1, 173820, Note_on_c, 0, 73, 61
1, 173829, Note_off_c, 0, 69, 64
1, 173901, Note_off_c, 0, 73, 56
1, 174061, Note_on_c, 0, 78, 71
1, 174100, Note_on_c, 0, 34, 44
1, 174107, Control_c, 0, 64, 98
1, 174122, Control_c, 0, 64, 86
1, 174136, Control_c, 0, 64, 75
1, 174151, Control_c, 0, 64, 64
1, 174166, Control_c, 0, 64, 21
1, 174181, Control_c, 0, 64, 0
1, 174285, Control_c, 0, 64, 54
1, 174300, Control_c, 0, 64, 63
1, 174300, Note_on_c, 0, 76, 45
1, 174314, Control_c, 0, 64, 65
1, 174329, Control_c, 0, 64, 67
1, 174344, Control_c, 0, 64, 70
1, 174359, Control_c, 0, 64, 72
1, 174366, Note_on_c, 0, 73, 51
1, 174374, Control_c, 0, 64, 75
1, 174388, Control_c, 0, 64, 77
1, 174403, Control_c, 0, 64, 79
1, 174425, Control_c, 0, 64, 82
1, 174431, Note_off_c, 0, 76, 54
1, 174440, Control_c, 0, 64, 84
1, 174455, Control_c, 0, 64, 87
1, 174460, Note_on_c, 0, 66, 45
1, 174470, Control_c, 0, 64, 89
1, 174485, Control_c, 0, 64, 90
1, 174574, Control_c, 0, 67, 8
1, 174589, Control_c, 0, 67, 10
1, 174604, Control_c, 0, 67, 12
1, 174619, Control_c, 0, 67, 14
1, 174634, Control_c, 0, 64, 89
1, 174634, Control_c, 0, 67, 15
1, 174649, Control_c, 0, 64, 88
1, 174649, Control_c, 0, 67, 18
1, 174658, Note_on_c, 0, 75, 67
1, 174664, Control_c, 0, 64, 86
1, 174664, Control_c, 0, 67, 19
1, 174670, Note_off_c, 0, 73, 61
1, 174679, Control_c, 0, 64, 82
1, 174679, Control_c, 0, 67, 20
1, 174693, Control_c, 0, 64, 77
1, 174693, Control_c, 0, 67, 22
1, 174704, Note_off_c, 0, 78, 63
1, 174708, Control_c, 0, 64, 69
1, 174708, Control_c, 0, 67, 24
1, 174713, Note_on_c, 0, 35, 35
1, 174723, Control_c, 0, 64, 57
1, 174723, Control_c, 0, 67, 25
1, 174738, Control_c, 0, 64, 0
1, 174738, Control_c, 0, 67, 26
1, 174764, Note_off_c, 0, 34, 41
1, 174767, Control_c, 0, 67, 26
1, 174782, Control_c, 0, 67, 27
1, 174786, Note_off_c, 0, 66, 49
1, 174797, Control_c, 0, 67, 28
1, 174811, Control_c, 0, 67, 29
1, 174826, Control_c, 0, 67, 32
1, 174841, Control_c, 0, 64, 43
1, 174841, Control_c, 0, 67, 34
1, 174856, Control_c, 0, 64, 58
1, 174856, Control_c, 0, 67, 37
1, 174871, Control_c, 0, 64, 62
1, 174871, Control_c, 0, 67, 40
1, 174877, Note_on_c, 0, 72, 44
1, 174885, Control_c, 0, 64, 63
1, 174885, Control_c, 0, 67, 41
1, 174900, Control_c, 0, 64, 64
1, 174900, Control_c, 0, 67, 42
1, 174915, Control_c, 0, 64, 65
1, 174915, Control_c, 0, 67, 43
1, 174930, Control_c, 0, 64, 66
1, 174930, Control_c, 0, 67, 44
1, 174944, Control_c, 0, 64, 68
1, 174944, Control_c, 0, 67, 45
1, 174959, Control_c, 0, 64, 72
1, 174959, Control_c, 0, 67, 45
1, 174961, Note_on_c, 0, 69, 46
1, 174974, Control_c, 0, 64, 74
1, 174974, Control_c, 0, 67, 47
1, 174989, Control_c, 0, 64, 75
1, 174989, Control_c, 0, 67, 47
1, 175004, Control_c, 0, 64, 78
1, 175004, Control_c, 0, 67, 48
1, 175018, Control_c, 0, 64, 80
1, 175018, Control_c, 0, 67, 49
1, 175033, Control_c, 0, 64, 81
1, 175033, Control_c, 0, 67, 51
1, 175037, Note_on_c, 0, 66, 46
1, 175037, Note_off_c, 0, 72, 38
1, 175048, Control_c, 0, 64, 82
1, 175048, Control_c, 0, 67, 52
1, 175052, Note_off_c, 0, 69, 64
1, 175063, Control_c, 0, 64, 83
1, 175063, Control_c, 0, 67, 54
1, 175078, Control_c, 0, 67, 56
1, 175093, Control_c, 0, 64, 83
1, 175093, Control_c, 0, 67, 58
1, 175108, Control_c, 0, 67, 59
1, 175123, Control_c, 0, 67, 59
1, 175137, Control_c, 0, 67, 60
1, 175152, Control_c, 0, 67, 61
1, 175169, Note_off_c, 0, 66, 61
1, 175174, Control_c, 0, 67, 61
1, 175189, Control_c, 0, 67, 62
1, 175204, Control_c, 0, 67, 63
1, 175218, Control_c, 0, 67, 64
1, 175233, Control_c, 0, 64, 83
1, 175233, Control_c, 0, 67, 64
1, 175240, Note_on_c, 0, 76, 68
1, 175248, Control_c, 0, 64, 82
1, 175248, Control_c, 0, 67, 65
1, 175250, Note_on_c, 0, 32, 39
1, 175263, Control_c, 0, 64, 77
1, 175263, Control_c, 0, 67, 65
1, 175278, Control_c, 0, 64, 69
1, 175278, Control_c, 0, 67, 66
1, 175285, Note_off_c, 0, 75, 64
1, 175294, Control_c, 0, 64, 59
1, 175294, Control_c, 0, 67, 66
1, 175309, Control_c, 0, 64, 0
1, 175313, Note_off_c, 0, 35, 52
1, 175382, Control_c, 0, 64, 45
1, 175397, Control_c, 0, 64, 57
1, 175412, Control_c, 0, 64, 61
1, 175427, Control_c, 0, 64, 63
1, 175442, Control_c, 0, 64, 64
1, 175445, Note_on_c, 0, 74, 47
1, 175457, Control_c, 0, 64, 65
1, 175472, Control_c, 0, 64, 67
1, 175486, Control_c, 0, 64, 70
1, 175486, Control_c, 0, 67, 66
1, 175501, Control_c, 0, 64, 72
1, 175516, Control_c, 0, 64, 74
1, 175531, Control_c, 0, 64, 76
1, 175535, Note_on_c, 0, 71, 42
1, 175546, Control_c, 0, 64, 77
1, 175555, Note_off_c, 0, 74, 57
1, 175560, Control_c, 0, 64, 77
1, 175560, Control_c, 0, 67, 65
1, 175575, Control_c, 0, 64, 78
1, 175575, Control_c, 0, 67, 65
1, 175590, Note_off_c, 0, 71, 59
1, 175603, Note_on_c, 0, 64, 47
1, 175605, Control_c, 0, 67, 64
1, 175634, Control_c, 0, 67, 64
1, 175723, Control_c, 0, 67, 64
1, 175753, Control_c, 0, 64, 77
1, 175767, Control_c, 0, 64, 75
1, 175767, Control_c, 0, 67, 65
1, 175782, Control_c, 0, 64, 73
1, 175794, Note_on_c, 0, 73, 60
1, 175797, Control_c, 0, 64, 69
1, 175812, Control_c, 0, 64, 66
1, 175825, Note_on_c, 0, 33, 41
1, 175826, Note_off_c, 0, 64, 35
1, 175827, Control_c, 0, 64, 58
1, 175841, Control_c, 0, 64, 0
1, 175846, Note_off_c, 0, 76, 59
1, 175866, Note_off_c, 0, 32, 43
1, 175871, Control_c, 0, 67, 65
1, 175923, Control_c, 0, 67, 66
1, 175953, Control_c, 0, 67, 66
1, 175967, Control_c, 0, 64, 51
1, 175967, Control_c, 0, 67, 67
1, 175982, Control_c, 0, 64, 61
1, 175997, Control_c, 0, 64, 63
1, 175997, Control_c, 0, 67, 67
1, 176012, Control_c, 0, 64, 64
1, 176012, Control_c, 0, 67, 68
1, 176020, Note_on_c, 0, 70, 43
1, 176027, Control_c, 0, 64, 65
1, 176041, Control_c, 0, 64, 67
1, 176041, Control_c, 0, 67, 69
1, 176056, Control_c, 0, 64, 69
1, 176056, Control_c, 0, 67, 72
1, 176071, Control_c, 0, 64, 71
1, 176071, Control_c, 0, 67, 73
1, 176086, Control_c, 0, 64, 74
1, 176086, Control_c, 0, 67, 75
1, 176102, Control_c, 0, 64, 76
1, 176102, Control_c, 0, 67, 76
1, 176107, Note_on_c, 0, 67, 44
1, 176117, Control_c, 0, 64, 77
1, 176117, Control_c, 0, 67, 77
1, 176132, Control_c, 0, 64, 79
1, 176132, Control_c, 0, 67, 78
1, 176146, Control_c, 0, 64, 79
1, 176146, Control_c, 0, 67, 79
1, 176161, Control_c, 0, 64, 80
1, 176161, Control_c, 0, 67, 81
1, 176176, Control_c, 0, 67, 82
1, 176187, Note_off_c, 0, 67, 57
1, 176190, Control_c, 0, 67, 86
1, 176202, Note_on_c, 0, 64, 47
1, 176205, Control_c, 0, 67, 89
1, 176220, Control_c, 0, 67, 93
1, 176235, Control_c, 0, 67, 97
1, 176250, Control_c, 0, 67, 101
1, 176264, Control_c, 0, 67, 105
1, 176279, Control_c, 0, 67, 110
1, 176294, Control_c, 0, 67, 116
1, 176309, Control_c, 0, 67, 122
1, 176324, Control_c, 0, 67, 127
1, 176383, Control_c, 0, 64, 79
1, 176393, Note_on_c, 0, 74, 62
1, 176398, Control_c, 0, 64, 77
1, 176413, Control_c, 0, 64, 75
1, 176428, Control_c, 0, 64, 70
1, 176429, Note_on_c, 0, 30, 36
1, 176443, Control_c, 0, 64, 63
1, 176457, Control_c, 0, 64, 38
1, 176465, Note_off_c, 0, 70, 12
1, 176468, Note_off_c, 0, 73, 57
1, 176472, Control_c, 0, 64, 0
1, 176497, Note_off_c, 0, 33, 46
1, 176506, Note_off_c, 0, 64, 42
1, 176546, Control_c, 0, 64, 12
1, 176561, Control_c, 0, 64, 49
1, 176576, Control_c, 0, 64, 59
1, 176590, Control_c, 0, 64, 62
1, 176605, Control_c, 0, 64, 63
1, 176620, Control_c, 0, 64, 64
1, 176627, Note_on_c, 0, 72, 47
1, 176635, Control_c, 0, 64, 65
1, 176650, Control_c, 0, 64, 67
1, 176672, Control_c, 0, 64, 69
1, 176687, Control_c, 0, 64, 72
1, 176702, Control_c, 0, 64, 73
1, 176716, Control_c, 0, 64, 75
1, 176722, Note_on_c, 0, 69, 48
1, 176731, Control_c, 0, 64, 78
1, 176746, Control_c, 0, 64, 79
1, 176761, Control_c, 0, 64, 80
1, 176763, Note_off_c, 0, 72, 36
1, 176776, Control_c, 0, 64, 81
1, 176801, Note_off_c, 0, 69, 63
1, 176805, Control_c, 0, 64, 81
1, 176839, Note_on_c, 0, 62, 40
1, 176852, Note_off_c, 0, 74, 54
1, 176999, Control_c, 0, 64, 81
1, 177013, Control_c, 0, 64, 80
1, 177023, Note_on_c, 0, 74, 63
1, 177028, Control_c, 0, 64, 78
1, 177043, Note_off_c, 0, 30, 39
1, 177043, Control_c, 0, 64, 75
1, 177056, Note_on_c, 0, 31, 41
1, 177058, Control_c, 0, 64, 72
1, 177073, Control_c, 0, 64, 65
1, 177087, Control_c, 0, 64, 51
1, 177102, Note_off_c, 0, 62, 37
1, 177102, Control_c, 0, 64, 0
1, 177177, Control_c, 0, 64, 18
1, 177192, Control_c, 0, 64, 52
1, 177206, Control_c, 0, 64, 61
1, 177221, Control_c, 0, 64, 64
1, 177236, Control_c, 0, 64, 65
1, 177238, Note_on_c, 0, 71, 42
1, 177251, Control_c, 0, 64, 67
1, 177266, Control_c, 0, 64, 69
1, 177280, Control_c, 0, 64, 72
1, 177295, Control_c, 0, 64, 75
1, 177310, Control_c, 0, 64, 77
1, 177324, Note_off_c, 0, 71, 47
1, 177325, Control_c, 0, 64, 78
1, 177326, Note_on_c, 0, 67, 45
1, 177339, Control_c, 0, 64, 81
1, 177354, Control_c, 0, 64, 83
1, 177369, Control_c, 0, 64, 84
1, 177384, Control_c, 0, 64, 86
1, 177397, Note_off_c, 0, 67, 61
1, 177399, Control_c, 0, 64, 86
1, 177404, Note_off_c, 0, 74, 54
1, 177421, Control_c, 0, 64, 87
1, 177436, Note_on_c, 0, 62, 44
1, 177436, Control_c, 0, 64, 87
1, 177618, Note_off_c, 0, 31, 33
1, 177653, Note_off_c, 0, 62, 38
1, 177701, Note_on_c, 0, 74, 57
1, 177718, Control_c, 0, 64, 86
1, 177733, Control_c, 0, 64, 84
1, 177748, Control_c, 0, 64, 83
1, 177762, Control_c, 0, 64, 81
1, 177777, Control_c, 0, 64, 79
1, 177783, Note_on_c, 0, 33, 38
1, 177792, Control_c, 0, 64, 76
1, 177807, Control_c, 0, 64, 72
1, 177822, Control_c, 0, 64, 65
1, 177836, Control_c, 0, 64, 42
1, 177851, Control_c, 0, 64, 0
1, 177940, Control_c, 0, 64, 48
1, 177955, Control_c, 0, 64, 60
1, 177970, Control_c, 0, 64, 63
1, 177983, Note_on_c, 0, 66, 34
1, 177984, Control_c, 0, 64, 64
1, 177999, Control_c, 0, 64, 64
1, 178014, Control_c, 0, 64, 66
1, 178029, Control_c, 0, 64, 68
1, 178044, Control_c, 0, 64, 70
1, 178059, Control_c, 0, 64, 71
1, 178074, Note_on_c, 0, 69, 36
1, 178114, Note_off_c, 0, 69, 51
1, 178139, Note_off_c, 0, 66, 40
1, 178146, Note_on_c, 0, 71, 45
1, 178166, Note_off_c, 0, 33, 43
1, 178230, Note_off_c, 0, 71, 59
1, 178250, Note_on_c, 0, 69, 44
1, 178274, Control_c, 0, 64, 70
1, 178303, Control_c, 0, 64, 69
1, 178318, Control_c, 0, 64, 68
1, 178333, Control_c, 0, 64, 67
1, 178348, Control_c, 0, 64, 67
1, 178363, Control_c, 0, 64, 66
1, 178378, Control_c, 0, 64, 65
1, 178380, Note_on_c, 0, 33, 32
1, 178384, Note_on_c, 0, 73, 51
1, 178393, Control_c, 0, 64, 65
1, 178408, Control_c, 0, 64, 64
1, 178411, Note_off_c, 0, 69, 38
1, 178423, Control_c, 0, 64, 63
1, 178424, Note_off_c, 0, 74, 39
1, 178437, Control_c, 0, 64, 63
1, 178452, Control_c, 0, 64, 62
1, 178467, Control_c, 0, 64, 61
1, 178482, Control_c, 0, 64, 59
1, 178497, Control_c, 0, 64, 56
1, 178512, Control_c, 0, 64, 43
1, 178527, Control_c, 0, 64, 0
1, 178593, Note_on_c, 0, 71, 48
1, 178674, Note_on_c, 0, 67, 47
1, 178674, Note_off_c, 0, 71, 61
1, 178675, Control_c, 0, 64, 45
1, 178690, Control_c, 0, 64, 56
1, 178705, Control_c, 0, 64, 60
1, 178720, Control_c, 0, 64, 62
1, 178734, Control_c, 0, 64, 64
1, 178741, Note_off_c, 0, 67, 51
1, 178749, Control_c, 0, 64, 66
1, 178764, Control_c, 0, 64, 68
1, 178774, Note_on_c, 0, 66, 47
1, 178778, Control_c, 0, 64, 69
1, 178793, Control_c, 0, 64, 70
1, 178826, Note_off_c, 0, 33, 46
1, 178836, Note_off_c, 0, 66, 60
1, 178856, Note_on_c, 0, 67, 55
1, 178919, Control_c, 0, 64, 69
1, 178934, Control_c, 0, 64, 69
1, 178949, Control_c, 0, 64, 68
1, 178964, Control_c, 0, 64, 68
1, 178979, Control_c, 0, 64, 67
1, 178993, Control_c, 0, 64, 66
1, 179008, Control_c, 0, 64, 65
1, 179021, Note_off_c, 0, 67, 35
1, 179023, Control_c, 0, 64, 65
1, 179031, Note_on_c, 0, 74, 58
1, 179038, Control_c, 0, 64, 64
1, 179053, Control_c, 0, 64, 64
1, 179067, Control_c, 0, 64, 63
1, 179082, Control_c, 0, 64, 61
1, 179084, Note_off_c, 0, 73, 37
1, 179091, Note_on_c, 0, 33, 25
1, 179097, Control_c, 0, 64, 56
1, 179111, Control_c, 0, 64, 32
1, 179126, Control_c, 0, 64, 0
1, 179216, Control_c, 0, 64, 28
1, 179230, Control_c, 0, 64, 53
1, 179245, Control_c, 0, 64, 62
1, 179260, Control_c, 0, 64, 64
1, 179275, Control_c, 0, 64, 66
1, 179290, Control_c, 0, 64, 68
1, 179296, Note_on_c, 0, 66, 41
1, 179305, Control_c, 0, 64, 71
1, 179320, Control_c, 0, 64, 73
1, 179335, Control_c, 0, 64, 74
1, 179350, Control_c, 0, 64, 75
1, 179365, Control_c, 0, 64, 76
1, 179380, Control_c, 0, 64, 77
1, 179391, Note_off_c, 0, 33, 52
1, 179394, Control_c, 0, 64, 77
1, 179400, Note_on_c, 0, 69, 37
1, 179449, Note_off_c, 0, 69, 61
1, 179463, Note_off_c, 0, 66, 39
1, 179483, Note_on_c, 0, 71, 41
1, 179594, Note_off_c, 0, 71, 37
1, 179597, Note_on_c, 0, 69, 40
1, 179669, Control_c, 0, 64, 77
1, 179697, Control_c, 0, 64, 76
1, 179712, Control_c, 0, 64, 75
1, 179727, Control_c, 0, 64, 74
1, 179741, Control_c, 0, 64, 73
1, 179756, Control_c, 0, 64, 71
1, 179771, Control_c, 0, 64, 69
1, 179773, Note_off_c, 0, 74, 55
1, 179775, Note_on_c, 0, 73, 51
1, 179786, Control_c, 0, 64, 68
1, 179787, Note_on_c, 0, 33, 24
1, 179801, Control_c, 0, 64, 66
1, 179815, Control_c, 0, 64, 65
1, 179826, Note_off_c, 0, 69, 32
1, 179830, Control_c, 0, 64, 63
1, 179845, Control_c, 0, 64, 61
1, 179860, Control_c, 0, 64, 55
1, 179875, Control_c, 0, 64, 43
1, 179889, Control_c, 0, 64, 14
1, 179904, Control_c, 0, 64, 0
1, 180073, Note_on_c, 0, 71, 45
1, 180175, Note_off_c, 0, 71, 57
1, 180181, Note_on_c, 0, 67, 41
1, 180280, Note_off_c, 0, 67, 50
1, 180316, Note_on_c, 0, 66, 36
1, 180429, Note_off_c, 0, 66, 49
1, 180453, Note_on_c, 0, 67, 39
1, 180784, Note_off_c, 0, 73, 25
1, 180794, Note_on_c, 0, 74, 22
1, 180813, Note_on_c, 0, 66, 34
1, 180815, Note_off_c, 0, 67, 39
1, 180843, Note_on_c, 0, 38, 20
1, 180887, Note_off_c, 0, 33, 43
1, 180980, Control_c, 0, 64, 33
1, 180995, Control_c, 0, 64, 57
1, 181010, Control_c, 0, 64, 63
1, 181025, Control_c, 0, 64, 65
1, 181040, Control_c, 0, 64, 68
1, 181054, Control_c, 0, 64, 73
1, 181069, Control_c, 0, 64, 80
1, 181084, Control_c, 0, 64, 86
1, 181091, Note_off_c, 0, 74, 37
1, 181098, Control_c, 0, 64, 92
1, 181113, Control_c, 0, 64, 99
1, 181128, Control_c, 0, 64, 107
1, 181143, Control_c, 0, 64, 121
1, 181165, Control_c, 0, 64, 127
1, 181171, Note_off_c, 0, 66, 44
1, 181268, Note_off_c, 0, 38, 34
1, 181269, Control_c, 0, 67, 121
1, 181284, Control_c, 0, 67, 114
1, 181299, Control_c, 0, 67, 108
1, 181313, Control_c, 0, 67, 104
1, 181328, Control_c, 0, 67, 100
1, 181343, Control_c, 0, 67, 95
1, 181358, Control_c, 0, 67, 92
1, 181373, Control_c, 0, 67, 88
1, 181387, Control_c, 0, 67, 84
1, 181402, Control_c, 0, 67, 80
1, 181417, Control_c, 0, 67, 76
1, 181432, Control_c, 0, 67, 71
1, 181447, Control_c, 0, 67, 67
1, 181461, Control_c, 0, 67, 64
1, 181476, Control_c, 0, 67, 61
1, 181491, Control_c, 0, 67, 59
1, 181505, Control_c, 0, 67, 57
1, 181520, Control_c, 0, 67, 55
1, 181535, Control_c, 0, 67, 52
1, 181550, Control_c, 0, 67, 50
1, 181565, Control_c, 0, 67, 48
1, 181579, Control_c, 0, 67, 46
1, 181594, Control_c, 0, 67, 44
1, 181609, Control_c, 0, 67, 42
1, 181624, Control_c, 0, 67, 40
1, 181639, Control_c, 0, 64, 115
1, 181639, Control_c, 0, 67, 37
1, 181654, Control_c, 0, 64, 107
1, 181654, Control_c, 0, 67, 35
1, 181669, Control_c, 0, 64, 103
1, 181669, Control_c, 0, 67, 33
1, 181684, Control_c, 0, 64, 98
1, 181684, Control_c, 0, 67, 31
1, 181699, Control_c, 0, 64, 95
1, 181699, Control_c, 0, 67, 29
1, 181711, Note_on_c, 0, 57, 42
1, 181714, Control_c, 0, 64, 93
1, 181714, Control_c, 0, 67, 26
1, 181729, Control_c, 0, 64, 90
1, 181729, Control_c, 0, 67, 24
1, 181743, Control_c, 0, 64, 88
1, 181743, Control_c, 0, 67, 21
1, 181758, Control_c, 0, 64, 86
1, 181758, Control_c, 0, 67, 18
1, 181773, Control_c, 0, 64, 83
1, 181773, Control_c, 0, 67, 15
1, 181788, Control_c, 0, 64, 81
1, 181788, Control_c, 0, 67, 13
1, 181803, Control_c, 0, 64, 79
1, 181803, Control_c, 0, 67, 10
1, 181818, Control_c, 0, 64, 77
1, 181818, Control_c, 0, 67, 8
1, 181833, Control_c, 0, 64, 74
1, 181833, Control_c, 0, 67, 0
1, 181848, Control_c, 0, 64, 72
1, 181863, Control_c, 0, 64, 70
1, 181877, Control_c, 0, 64, 68
1, 181892, Control_c, 0, 64, 66
1, 181914, Control_c, 0, 64, 64
1, 181928, Control_c, 0, 64, 63
1, 181943, Control_c, 0, 64, 62
1, 181958, Control_c, 0, 64, 60
1, 181973, Control_c, 0, 64, 59
1, 181988, Control_c, 0, 64, 57
1, 182002, Control_c, 0, 64, 55
1, 182017, Control_c, 0, 64, 53
1, 182031, Note_on_c, 0, 62, 61
1, 182032, Control_c, 0, 64, 51
1, 182047, Control_c, 0, 64, 49
1, 182062, Control_c, 0, 64, 47
1, 182076, Control_c, 0, 64, 46
1, 182091, Control_c, 0, 64, 44
1, 182106, Control_c, 0, 64, 43
1, 182121, Control_c, 0, 64, 41
1, 182135, Control_c, 0, 64, 40
1, 182150, Control_c, 0, 64, 39
1, 182158, Note_off_c, 0, 57, 33
1, 182165, Control_c, 0, 64, 37
1, 182180, Control_c, 0, 64, 33
1, 182195, Control_c, 0, 64, 26
1, 182209, Control_c, 0, 64, 18
1, 182224, Control_c, 0, 64, 10
1, 182239, Control_c, 0, 64, 0
1, 182245, Note_on_c, 0, 66, 69
1, 182335, Note_off_c, 0, 62, 56
1, 182447, Note_on_c, 0, 67, 74
1, 182478, Note_off_c, 0, 66, 63
1, 182650, Note_on_c, 0, 69, 76
1, 182683, Note_off_c, 0, 67, 52
1, 182706, Control_c, 0, 64, 39
1, 182721, Control_c, 0, 64, 61
1, 182736, Control_c, 0, 64, 67
1, 182751, Control_c, 0, 64, 73
1, 182766, Control_c, 0, 64, 80
1, 182781, Control_c, 0, 64, 85
1, 182796, Control_c, 0, 64, 90
1, 182811, Control_c, 0, 64, 96
1, 182825, Control_c, 0, 64, 100
1, 182840, Control_c, 0, 64, 104
1, 182855, Control_c, 0, 64, 106
1, 182869, Note_off_c, 0, 69, 35
1, 182870, Control_c, 0, 64, 107
1, 182885, Control_c, 0, 64, 107
1, 182975, Note_on_c, 0, 69, 75
1, 182990, Note_on_c, 0, 66, 62
1, 183003, Control_c, 0, 64, 107
1, 183004, Note_on_c, 0, 57, 48
1, 183014, Note_on_c, 0, 50, 40
1, 183019, Note_on_c, 0, 38, 40
1, 183032, Control_c, 0, 64, 105
1, 183047, Control_c, 0, 64, 100
1, 183062, Control_c, 0, 64, 95
1, 183076, Control_c, 0, 64, 89
1, 183091, Control_c, 0, 64, 82
1, 183106, Control_c, 0, 64, 76
1, 183121, Control_c, 0, 64, 71
1, 183136, Control_c, 0, 64, 67
1, 183150, Control_c, 0, 64, 63
1, 183165, Control_c, 0, 64, 55
1, 183180, Control_c, 0, 64, 24
1, 183195, Control_c, 0, 64, 0
1, 183455, Control_c, 0, 64, 24
1, 183470, Control_c, 0, 64, 36
1, 183485, Control_c, 0, 64, 40
1, 183500, Control_c, 0, 64, 41
1, 183514, Control_c, 0, 64, 43
1, 183529, Control_c, 0, 64, 46
1, 183544, Control_c, 0, 64, 48
1, 183559, Control_c, 0, 64, 51
1, 183574, Control_c, 0, 64, 55
1, 183589, Control_c, 0, 64, 58
1, 183603, Control_c, 0, 64, 60
1, 183618, Control_c, 0, 64, 61
1, 183633, Control_c, 0, 64, 62
1, 183648, Control_c, 0, 64, 63
1, 183663, Control_c, 0, 64, 65
1, 183678, Control_c, 0, 64, 68
1, 183693, Control_c, 0, 64, 73
1, 183707, Control_c, 0, 64, 79
1, 183722, Control_c, 0, 64, 83
1, 183737, Control_c, 0, 64, 87
1, 183752, Control_c, 0, 64, 91
1, 183767, Control_c, 0, 64, 98
1, 183781, Control_c, 0, 64, 107
1, 183796, Control_c, 0, 64, 127
1, 184035, Note_off_c, 0, 66, 35
1, 184062, Note_off_c, 0, 69, 38
1, 184093, Note_off_c, 0, 57, 29
1, 184116, Note_off_c, 0, 38, 38
1, 184238, Note_off_c, 0, 50, 37
1, 184404, Note_on_c, 0, 69, 69
1, 184411, Note_on_c, 0, 38, 48
1, 184414, Note_on_c, 0, 57, 54
1, 184416, Note_on_c, 0, 66, 65
1, 184429, Note_on_c, 0, 50, 53
1, 184447, Note_off_c, 0, 38, 52
1, 184459, Note_off_c, 0, 57, 57
1, 184464, Note_off_c, 0, 50, 64
1, 184528, Note_off_c, 0, 66, 38
1, 184563, Note_off_c, 0, 69, 55
1, 184569, Note_on_c, 0, 71, 76
1, 184587, Note_on_c, 0, 67, 53
1, 184590, Note_on_c, 0, 59, 52
1, 184597, Note_on_c, 0, 50, 44
1, 184618, Note_on_c, 0, 43, 51
1, 184634, Control_c, 0, 64, 109
1, 184648, Control_c, 0, 64, 93
1, 184663, Control_c, 0, 64, 83
1, 184678, Control_c, 0, 64, 74
1, 184693, Control_c, 0, 64, 68
1, 184708, Control_c, 0, 64, 63
1, 184722, Control_c, 0, 64, 55
1, 184737, Control_c, 0, 64, 43
1, 184752, Control_c, 0, 64, 25
1, 184767, Control_c, 0, 64, 0
1, 185090, Note_on_c, 0, 55, 63
1, 185103, Note_off_c, 0, 50, 60
1, 185234, Control_c, 0, 64, 46
1, 185249, Control_c, 0, 64, 59
1, 185264, Control_c, 0, 64, 64
1, 185279, Control_c, 0, 64, 66
1, 185294, Control_c, 0, 64, 69
1, 185309, Control_c, 0, 64, 73
1, 185323, Control_c, 0, 64, 78
1, 185338, Control_c, 0, 64, 84
1, 185353, Control_c, 0, 64, 91
1, 185368, Control_c, 0, 64, 99
1, 185383, Control_c, 0, 64, 118
1, 185398, Control_c, 0, 64, 127
1, 185410, Note_off_c, 0, 43, 52
1, 185518, Note_off_c, 0, 55, 55
1, 185616, Note_off_c, 0, 67, 57
1, 185648, Note_off_c, 0, 59, 37
1, 185648, Note_off_c, 0, 71, 49
1, 185821, Control_c, 0, 64, 96
1, 185836, Control_c, 0, 64, 72
1, 185839, Note_on_c, 0, 71, 59
1, 185848, Note_on_c, 0, 67, 51
1, 185850, Control_c, 0, 64, 60
1, 185853, Note_on_c, 0, 59, 45
1, 185861, Note_on_c, 0, 54, 43
1, 185863, Note_on_c, 0, 43, 42
1, 185865, Control_c, 0, 64, 46
1, 185880, Control_c, 0, 64, 50
1, 185893, Note_off_c, 0, 67, 61
1, 185894, Control_c, 0, 64, 56
1, 185909, Control_c, 0, 64, 61
1, 185924, Control_c, 0, 64, 65
1, 185938, Note_off_c, 0, 59, 62
1, 185939, Control_c, 0, 64, 70
1, 185952, Note_off_c, 0, 71, 59
1, 185954, Control_c, 0, 64, 75
1, 185965, Note_off_c, 0, 54, 60
1, 185968, Control_c, 0, 64, 80
1, 185983, Control_c, 0, 64, 82
1, 185998, Control_c, 0, 64, 84
1, 186013, Control_c, 0, 64, 86
1, 186028, Control_c, 0, 64, 87
1, 186042, Control_c, 0, 64, 89
1, 186057, Control_c, 0, 64, 90
1, 186069, Note_off_c, 0, 43, 39
1, 186072, Control_c, 0, 64, 91
1, 186087, Control_c, 0, 64, 94
1, 186101, Control_c, 0, 64, 95
1, 186131, Control_c, 0, 64, 90
1, 186137, Note_on_c, 0, 73, 66
1, 186146, Control_c, 0, 64, 71
1, 186158, Note_on_c, 0, 52, 52
1, 186159, Note_on_c, 0, 61, 50
1, 186161, Control_c, 0, 64, 20
1, 186167, Note_on_c, 0, 45, 48
1, 186170, Note_on_c, 0, 67, 47
1, 186176, Control_c, 0, 64, 0
1, 186221, Control_c, 0, 64, 36
1, 186236, Control_c, 0, 64, 63
1, 186250, Control_c, 0, 64, 71
1, 186265, Control_c, 0, 64, 78
1, 186271, Note_off_c, 0, 61, 56
1, 186280, Control_c, 0, 64, 81
1, 186283, Note_off_c, 0, 45, 57
1, 186285, Note_off_c, 0, 67, 53
1, 186289, Note_off_c, 0, 73, 58
1, 186294, Control_c, 0, 64, 83
1, 186308, Note_off_c, 0, 52, 36
1, 186309, Control_c, 0, 64, 85
1, 186324, Control_c, 0, 64, 86
1, 186339, Control_c, 0, 64, 87
1, 186354, Control_c, 0, 64, 87
1, 186382, Note_on_c, 0, 73, 71
1, 186383, Control_c, 0, 64, 88
1, 186401, Note_on_c, 0, 45, 55
1, 186404, Note_on_c, 0, 61, 48
1, 186405, Note_on_c, 0, 52, 50
1, 186406, Control_c, 0, 64, 90
1, 186412, Note_on_c, 0, 67, 59
1, 186420, Control_c, 0, 64, 92
1, 186435, Control_c, 0, 64, 95
1, 186450, Control_c, 0, 64, 97
1, 186464, Note_off_c, 0, 45, 60
1, 186472, Note_off_c, 0, 52, 50
1, 186474, Note_off_c, 0, 61, 54
1, 186480, Control_c, 0, 64, 98
1, 186490, Note_off_c, 0, 73, 55
1, 186570, Note_off_c, 0, 67, 0
1, 186575, Note_on_c, 0, 73, 70
1, 186583, Note_on_c, 0, 67, 50
1, 186584, Control_c, 0, 64, 98
1, 186588, Note_on_c, 0, 45, 55
1, 186593, Note_on_c, 0, 61, 58
1, 186596, Note_on_c, 0, 52, 60
1, 186614, Control_c, 0, 64, 99
1, 186629, Control_c, 0, 64, 103
1, 186644, Control_c, 0, 64, 121
1, 186652, Note_off_c, 0, 52, 58
1, 186657, Note_off_c, 0, 45, 58
1, 186659, Control_c, 0, 64, 127
1, 186675, Note_off_c, 0, 73, 55
1, 186682, Note_off_c, 0, 61, 39
1, 186732, Control_c, 0, 64, 103
1, 186747, Control_c, 0, 64, 68
1, 186757, Note_off_c, 0, 67, 0
1, 186762, Control_c, 0, 64, 31
1, 186766, Note_on_c, 0, 73, 72
1, 186768, Note_on_c, 0, 67, 51
1, 186772, Note_on_c, 0, 52, 67
1, 186773, Note_on_c, 0, 45, 62
1, 186777, Control_c, 0, 64, 0
1, 186781, Note_on_c, 0, 61, 65
1, 186791, Control_c, 0, 64, 36
1, 186806, Control_c, 0, 64, 58
1, 186821, Control_c, 0, 64, 71
1, 186833, Note_off_c, 0, 67, 61
1, 186836, Control_c, 0, 64, 99
1, 186844, Note_off_c, 0, 45, 59
1, 186851, Control_c, 0, 64, 127
1, 186852, Note_off_c, 0, 61, 62
1, 186858, Note_off_c, 0, 52, 58
1, 186922, Note_off_c, 0, 73, 55
1, 186924, Control_c, 0, 64, 80
1, 186939, Control_c, 0, 64, 63
1, 186954, Control_c, 0, 64, 57
1, 186959, Note_on_c, 0, 74, 81
1, 186969, Note_on_c, 0, 45, 60
1, 186969, Control_c, 0, 64, 63
1, 186971, Note_on_c, 0, 66, 74
1, 186972, Note_on_c, 0, 54, 64
1, 186975, Note_on_c, 0, 62, 66
1, 186984, Control_c, 0, 64, 71
1, 186999, Control_c, 0, 64, 99
1, 187014, Control_c, 0, 64, 127
1, 187036, Note_off_c, 0, 66, 65
1, 187040, Note_off_c, 0, 62, 57
1, 187067, Note_off_c, 0, 54, 52
1, 187067, Note_off_c, 0, 74, 62
1, 187071, Note_off_c, 0, 45, 55
1, 187169, Control_c, 0, 64, 94
1, 187171, Note_on_c, 0, 76, 87
1, 187184, Note_on_c, 0, 73, 75
1, 187184, Control_c, 0, 64, 61
1, 187187, Note_on_c, 0, 64, 71
1, 187188, Note_on_c, 0, 45, 60
1, 187194, Note_on_c, 0, 57, 45
1, 187197, Note_on_c, 0, 55, 46
1, 187198, Control_c, 0, 64, 0
1, 187243, Control_c, 0, 64, 47
1, 187258, Control_c, 0, 64, 64
1, 187268, Note_off_c, 0, 64, 60
1, 187273, Control_c, 0, 64, 71
1, 187288, Note_off_c, 0, 76, 60
1, 187288, Control_c, 0, 64, 84
1, 187296, Note_off_c, 0, 73, 58
1, 187298, Note_off_c, 0, 45, 56
1, 187303, Control_c, 0, 64, 113
1, 187318, Control_c, 0, 64, 127
1, 187328, Note_off_c, 0, 57, 36
1, 187332, Note_off_c, 0, 55, 37
1, 187506, Note_on_c, 0, 76, 80
1, 187525, Note_on_c, 0, 73, 63
1, 187534, Note_on_c, 0, 64, 55
1, 187550, Note_on_c, 0, 57, 45
1, 187551, Note_on_c, 0, 55, 41
1, 187553, Note_on_c, 0, 45, 48
1, 187614, Control_c, 0, 64, 111
1, 187629, Control_c, 0, 64, 86
1, 187644, Control_c, 0, 64, 70
1, 187659, Control_c, 0, 64, 54
1, 187673, Control_c, 0, 64, 0
1, 187762, Control_c, 0, 64, 31
1, 187777, Control_c, 0, 64, 61
1, 187792, Control_c, 0, 64, 66
1, 187807, Control_c, 0, 64, 72
1, 187821, Control_c, 0, 64, 82
1, 187836, Control_c, 0, 64, 92
1, 187851, Control_c, 0, 64, 103
1, 187866, Control_c, 0, 64, 127
1, 187920, Note_off_c, 0, 64, 54
1, 188072, Note_off_c, 0, 55, 34
1, 188152, Note_off_c, 0, 45, 39
1, 188197, Note_off_c, 0, 73, 25
1, 188349, Control_c, 0, 64, 96
1, 188353, Note_on_c, 0, 74, 49
1, 188364, Control_c, 0, 64, 83
1, 188367, Note_on_c, 0, 62, 35
1, 188378, Control_c, 0, 64, 73
1, 188388, Note_off_c, 0, 76, 58
1, 188389, Note_on_c, 0, 54, 28
1, 188393, Control_c, 0, 64, 64
1, 188398, Note_on_c, 0, 50, 35
1, 188408, Control_c, 0, 64, 45
1, 188423, Control_c, 0, 64, 0
1, 188541, Control_c, 0, 64, 54
1, 188556, Control_c, 0, 64, 63
1, 188570, Control_c, 0, 64, 66
1, 188573, Note_off_c, 0, 57, 55
1, 188585, Control_c, 0, 64, 69
1, 188600, Control_c, 0, 64, 76
1, 188614, Note_off_c, 0, 74, 64
1, 188615, Note_off_c, 0, 62, 41
1, 188615, Control_c, 0, 64, 87
1, 188630, Control_c, 0, 64, 98
1, 188645, Note_off_c, 0, 54, 40
1, 188652, Control_c, 0, 64, 107
1, 188668, Control_c, 0, 64, 127
1, 188676, Note_off_c, 0, 50, 40
1, 189024, Control_c, 0, 67, 11
1, 189039, Control_c, 0, 64, 99
1, 189039, Control_c, 0, 67, 16
1, 189054, Control_c, 0, 64, 78
1, 189054, Control_c, 0, 67, 21
1, 189068, Control_c, 0, 64, 63
1, 189068, Control_c, 0, 67, 26
1, 189083, Control_c, 0, 64, 0
1, 189083, Control_c, 0, 67, 31
1, 189098, Control_c, 0, 67, 35
1, 189113, Control_c, 0, 67, 40
1, 189127, Control_c, 0, 67, 44
1, 189142, Control_c, 0, 67, 49
1, 189157, Control_c, 0, 67, 56
1, 189172, Control_c, 0, 67, 63
1, 189187, Control_c, 0, 67, 70
1, 189202, Control_c, 0, 67, 75
1, 189217, Control_c, 0, 67, 80
1, 189231, Control_c, 0, 67, 83
1, 189246, Control_c, 0, 67, 88
1, 189261, Control_c, 0, 67, 92
1, 189276, Control_c, 0, 67, 95
1, 189291, Control_c, 0, 67, 98
1, 189306, Control_c, 0, 67, 101
1, 189317, Note_on_c, 0, 69, 50
1, 189320, Control_c, 0, 67, 103
1, 189333, Note_on_c, 0, 66, 45
1, 189335, Control_c, 0, 67, 106
1, 189336, Note_on_c, 0, 60, 33
1, 189350, Control_c, 0, 67, 110
1, 189363, Note_on_c, 0, 38, 29
1, 189365, Note_on_c, 0, 50, 28
1, 189365, Control_c, 0, 67, 114
1, 189380, Control_c, 0, 67, 118
1, 189401, Control_c, 0, 67, 120
1, 189416, Control_c, 0, 67, 122
1, 189431, Control_c, 0, 67, 124
1, 189446, Control_c, 0, 67, 125
1, 189535, Control_c, 0, 64, 24
1, 189550, Control_c, 0, 64, 32
1, 189565, Control_c, 0, 64, 37
1, 189580, Control_c, 0, 64, 42
1, 189594, Control_c, 0, 64, 45
1, 189609, Control_c, 0, 64, 47
1, 189624, Control_c, 0, 64, 48
1, 189638, Control_c, 0, 64, 48
1, 189653, Control_c, 0, 64, 49
1, 189653, Control_c, 0, 67, 124
1, 189669, Control_c, 0, 64, 49
1, 189684, Control_c, 0, 64, 50
1, 189699, Control_c, 0, 67, 124
1, 189714, Control_c, 0, 64, 50
1, 189803, Control_c, 0, 64, 51
1, 189906, Control_c, 0, 64, 51
1, 189921, Control_c, 0, 64, 52
1, 189935, Control_c, 0, 64, 52
1, 189950, Control_c, 0, 64, 54
1, 189965, Control_c, 0, 64, 56
1, 189980, Control_c, 0, 64, 58
1, 189980, Control_c, 0, 67, 123
1, 189995, Control_c, 0, 64, 60
1, 190010, Control_c, 0, 64, 63
1, 190024, Control_c, 0, 64, 64
1, 190039, Control_c, 0, 64, 66
1, 190054, Control_c, 0, 64, 69
1, 190069, Control_c, 0, 64, 74
1, 190084, Control_c, 0, 64, 79
1, 190099, Control_c, 0, 64, 82
1, 190114, Control_c, 0, 64, 86
1, 190129, Control_c, 0, 64, 91
1, 190150, Control_c, 0, 64, 99
1, 190164, Control_c, 0, 64, 115
1, 190179, Control_c, 0, 64, 127
1, 190313, Control_c, 0, 67, 124
1, 190328, Control_c, 0, 67, 124
1, 190342, Control_c, 0, 67, 125
1, 190372, Control_c, 0, 67, 125
1, 190402, Control_c, 0, 67, 126
1, 190460, Note_off_c, 0, 60, 30
1, 190461, Note_off_c, 0, 66, 35
1, 190472, Note_off_c, 0, 69, 39
1, 190477, Control_c, 0, 67, 126
1, 190490, Note_off_c, 0, 38, 36
1, 190490, Note_off_c, 0, 50, 29
1, 190506, Control_c, 0, 67, 127
1, 190536, Control_c, 0, 67, 127
1, 190846, Note_on_c, 0, 69, 42
1, 190865, Note_on_c, 0, 60, 32
1, 190867, Note_on_c, 0, 38, 35
1, 190875, Note_on_c, 0, 66, 29
1, 190892, Note_on_c, 0, 50, 27
1, 190918, Note_off_c, 0, 38, 48
1, 190931, Note_off_c, 0, 60, 49
1, 190940, Note_off_c, 0, 66, 44
1, 190952, Note_off_c, 0, 50, 54
1, 191017, Note_off_c, 0, 69, 37
1, 191092, Note_on_c, 0, 71, 46
1, 191106, Control_c, 0, 64, 106
1, 191106, Note_on_c, 0, 67, 43
1, 191121, Control_c, 0, 64, 96
1, 191130, Note_on_c, 0, 59, 31
1, 191136, Control_c, 0, 64, 90
1, 191148, Note_on_c, 0, 43, 29
1, 191151, Control_c, 0, 64, 84
1, 191152, Note_on_c, 0, 50, 22
1, 191165, Control_c, 0, 64, 79
1, 191180, Control_c, 0, 64, 73
1, 191195, Control_c, 0, 64, 67
1, 191210, Control_c, 0, 64, 56
1, 191224, Control_c, 0, 64, 0
1, 191744, Note_on_c, 0, 55, 43
1, 191759, Note_off_c, 0, 50, 51
1, 191929, Control_c, 0, 64, 28
1, 191944, Control_c, 0, 64, 50
1, 191959, Control_c, 0, 64, 59
1, 191974, Control_c, 0, 64, 63
1, 191988, Control_c, 0, 64, 67
1, 192003, Control_c, 0, 64, 71
1, 192018, Control_c, 0, 64, 77
1, 192033, Control_c, 0, 64, 82
1, 192047, Control_c, 0, 64, 86
1, 192063, Control_c, 0, 64, 89
1, 192078, Control_c, 0, 64, 95
1, 192090, Note_off_c, 0, 71, 51
1, 192093, Control_c, 0, 64, 100
1, 192108, Control_c, 0, 64, 106
1, 192123, Control_c, 0, 64, 114
1, 192137, Control_c, 0, 64, 127
1, 192141, Note_off_c, 0, 67, 50
1, 192202, Note_off_c, 0, 55, 38
1, 192254, Note_off_c, 0, 59, 42
1, 192310, Note_off_c, 0, 43, 34
1, 192663, Control_c, 0, 64, 125
1, 192678, Control_c, 0, 64, 107
1, 192693, Control_c, 0, 64, 93
1, 192708, Control_c, 0, 64, 79
1, 192723, Control_c, 0, 64, 67
1, 192725, Note_on_c, 0, 64, 46
1, 192737, Control_c, 0, 64, 54
1, 192743, Note_on_c, 0, 62, 36
1, 192752, Control_c, 0, 64, 0
1, 192758, Note_on_c, 0, 44, 34
1, 192767, Note_on_c, 0, 52, 29
1, 192767, Note_on_c, 0, 59, 9
1, 192767, Control_c, 0, 64, 18
1, 192782, Control_c, 0, 64, 40
1, 192797, Control_c, 0, 64, 53
1, 192811, Control_c, 0, 64, 60
1, 192826, Control_c, 0, 64, 64
1, 192841, Control_c, 0, 64, 69
1, 192856, Control_c, 0, 64, 75
1, 192871, Note_off_c, 0, 64, 62
1, 192872, Control_c, 0, 64, 79
1, 192877, Note_off_c, 0, 62, 40
1, 192883, Note_off_c, 0, 44, 58
1, 192886, Control_c, 0, 64, 82
1, 192901, Control_c, 0, 64, 83
1, 192916, Control_c, 0, 64, 84
1, 192961, Note_off_c, 0, 59, 38
1, 192963, Note_off_c, 0, 52, 36
1, 193094, Control_c, 0, 64, 80
1, 193109, Control_c, 0, 64, 70
1, 193114, Note_on_c, 0, 64, 47
1, 193124, Control_c, 0, 64, 60
1, 193129, Note_on_c, 0, 52, 30
1, 193137, Note_on_c, 0, 61, 37
1, 193138, Note_on_c, 0, 45, 36
1, 193146, Control_c, 0, 64, 0
1, 193175, Control_c, 0, 64, 25
1, 193190, Control_c, 0, 64, 50
1, 193205, Control_c, 0, 64, 61
1, 193220, Control_c, 0, 64, 66
1, 193235, Control_c, 0, 64, 71
1, 193250, Control_c, 0, 64, 76
1, 193260, Note_off_c, 0, 64, 53
1, 193265, Control_c, 0, 64, 80
1, 193268, Note_off_c, 0, 45, 35
1, 193272, Note_off_c, 0, 61, 38
1, 193277, Note_off_c, 0, 52, 48
1, 193279, Control_c, 0, 64, 83
1, 193294, Control_c, 0, 64, 85
1, 193309, Control_c, 0, 64, 86
1, 193339, Control_c, 0, 64, 84
1, 193354, Control_c, 0, 64, 74
1, 193368, Control_c, 0, 64, 64
1, 193373, Note_on_c, 0, 64, 51
1, 193383, Control_c, 0, 64, 46
1, 193387, Note_on_c, 0, 54, 46
1, 193394, Note_on_c, 0, 61, 43
1, 193397, Note_on_c, 0, 45, 44
1, 193398, Control_c, 0, 64, 45
1, 193412, Control_c, 0, 64, 58
1, 193427, Control_c, 0, 64, 65
1, 193442, Control_c, 0, 64, 71
1, 193457, Control_c, 0, 64, 77
1, 193467, Note_off_c, 0, 61, 39
1, 193468, Note_off_c, 0, 45, 55
1, 193472, Control_c, 0, 64, 79
1, 193488, Note_off_c, 0, 64, 51
1, 193500, Note_off_c, 0, 54, 48
1, 193501, Control_c, 0, 64, 79
1, 193560, Control_c, 0, 64, 79
1, 193575, Control_c, 0, 64, 71
1, 193584, Note_on_c, 0, 64, 49
1, 193590, Control_c, 0, 64, 60
1, 193603, Note_on_c, 0, 61, 44
1, 193605, Control_c, 0, 64, 0
1, 193607, Note_on_c, 0, 55, 44
1, 193617, Note_on_c, 0, 45, 41
1, 193634, Control_c, 0, 64, 39
1, 193649, Control_c, 0, 64, 56
1, 193665, Control_c, 0, 64, 65
1, 193674, Note_off_c, 0, 61, 45
1, 193680, Control_c, 0, 64, 70
1, 193681, Note_off_c, 0, 45, 50
1, 193695, Control_c, 0, 64, 74
1, 193709, Control_c, 0, 64, 75
1, 193715, Note_off_c, 0, 55, 37
1, 193715, Note_off_c, 0, 64, 37
1, 193739, Control_c, 0, 64, 75
1, 193754, Control_c, 0, 64, 76
1, 193769, Control_c, 0, 64, 76
1, 193798, Control_c, 0, 64, 74
1, 193813, Control_c, 0, 64, 67
1, 193828, Control_c, 0, 64, 54
1, 193837, Note_on_c, 0, 64, 52
1, 193843, Control_c, 0, 64, 0
1, 193851, Note_on_c, 0, 61, 41
1, 193852, Note_on_c, 0, 55, 42
1, 193864, Note_on_c, 0, 45, 38
1, 193873, Control_c, 0, 64, 32
1, 193895, Control_c, 0, 64, 54
1, 193909, Control_c, 0, 64, 66
1, 193914, Note_off_c, 0, 55, 62
1, 193919, Note_off_c, 0, 45, 60
1, 193920, Note_off_c, 0, 64, 62
1, 193923, Control_c, 0, 64, 70
1, 193938, Control_c, 0, 64, 72
1, 193994, Note_off_c, 0, 61, 33
1, 194087, Control_c, 0, 64, 68
1, 194102, Control_c, 0, 64, 61
1, 194116, Note_on_c, 0, 67, 50
1, 194116, Control_c, 0, 64, 0
1, 194129, Note_on_c, 0, 59, 40
1, 194135, Note_on_c, 0, 61, 28
1, 194137, Note_on_c, 0, 45, 40
1, 194190, Control_c, 0, 64, 56
1, 194205, Control_c, 0, 64, 66
1, 194220, Control_c, 0, 64, 71
1, 194233, Note_off_c, 0, 61, 36
1, 194234, Control_c, 0, 64, 75
1, 194235, Note_off_c, 0, 67, 51
1, 194262, Note_off_c, 0, 59, 35
1, 194269, Note_off_c, 0, 45, 36
1, 194279, Control_c, 0, 64, 76
1, 194368, Control_c, 0, 64, 74
1, 194382, Control_c, 0, 64, 66
1, 194396, Note_on_c, 0, 66, 51
1, 194397, Control_c, 0, 64, 48
1, 194406, Note_on_c, 0, 57, 40
1, 194406, Note_on_c, 0, 45, 38
1, 194408, Note_on_c, 0, 61, 41
1, 194412, Control_c, 0, 64, 0
1, 194472, Control_c, 0, 64, 47
1, 194485, Note_off_c, 0, 66, 63
1, 194487, Control_c, 0, 64, 62
1, 194499, Note_off_c, 0, 61, 56
1, 194502, Control_c, 0, 64, 66
1, 194517, Control_c, 0, 64, 69
1, 194531, Control_c, 0, 64, 72
1, 194545, Note_off_c, 0, 57, 35
1, 194546, Note_off_c, 0, 45, 35
1, 194546, Control_c, 0, 64, 75
1, 194561, Control_c, 0, 64, 77
1, 194776, Control_c, 0, 64, 76
1, 194791, Control_c, 0, 64, 76
1, 194806, Control_c, 0, 64, 75
1, 194820, Control_c, 0, 64, 73
1, 194835, Control_c, 0, 64, 71
1, 194842, Note_on_c, 0, 64, 38
1, 194847, Note_on_c, 0, 61, 33
1, 194850, Control_c, 0, 64, 68
1, 194864, Control_c, 0, 64, 66
1, 194876, Note_on_c, 0, 55, 18
1, 194879, Control_c, 0, 64, 64
1, 194884, Note_on_c, 0, 45, 23
1, 194894, Control_c, 0, 64, 61
1, 194909, Control_c, 0, 64, 54
1, 194924, Control_c, 0, 64, 0
1, 195116, Control_c, 0, 64, 47
1, 195131, Control_c, 0, 64, 60
1, 195146, Control_c, 0, 64, 63
1, 195160, Control_c, 0, 64, 64
1, 195175, Control_c, 0, 64, 65
1, 195190, Control_c, 0, 64, 68
1, 195205, Control_c, 0, 64, 71
1, 195220, Control_c, 0, 64, 74
1, 195235, Control_c, 0, 64, 78
1, 195250, Control_c, 0, 64, 80
1, 195265, Control_c, 0, 64, 82
1, 195273, Note_off_c, 0, 45, 35
1, 195280, Control_c, 0, 64, 85
1, 195295, Control_c, 0, 64, 89
1, 195309, Control_c, 0, 64, 93
1, 195324, Control_c, 0, 64, 98
1, 195339, Control_c, 0, 64, 102
1, 195354, Control_c, 0, 64, 106
1, 195369, Control_c, 0, 64, 110
1, 195391, Control_c, 0, 64, 119
1, 195406, Control_c, 0, 64, 127
1, 195450, Note_off_c, 0, 61, 36
1, 195467, Note_off_c, 0, 55, 37
1, 195984, Control_c, 0, 64, 113
1, 195998, Control_c, 0, 64, 102
1, 196001, Note_on_c, 0, 62, 38
1, 196013, Control_c, 0, 64, 95
1, 196028, Control_c, 0, 64, 89
1, 196043, Control_c, 0, 64, 83
1, 196052, Note_on_c, 0, 54, 28
1, 196059, Control_c, 0, 64, 77
1, 196061, Note_on_c, 0, 50, 24
1, 196071, Note_off_c, 0, 64, 40
1, 196074, Note_off_c, 0, 62, 0
1, 196074, Note_on_c, 0, 62, 3
1, 196074, Control_c, 0, 64, 71
1, 196089, Control_c, 0, 64, 65
1, 196103, Control_c, 0, 64, 60
1, 196118, Control_c, 0, 64, 44
1, 196141, Control_c, 0, 64, 0
1, 196317, Control_c, 0, 64, 42
1, 196332, Control_c, 0, 64, 58
1, 196347, Control_c, 0, 64, 63
1, 196362, Control_c, 0, 64, 66
1, 196377, Control_c, 0, 64, 68
1, 196392, Control_c, 0, 64, 70
1, 196406, Control_c, 0, 64, 72
1, 196421, Control_c, 0, 64, 75
1, 196435, Note_off_c, 0, 62, 38
1, 196436, Control_c, 0, 64, 77
1, 196442, Note_off_c, 0, 50, 37
1, 196447, Note_off_c, 0, 54, 35
1, 196451, Control_c, 0, 64, 79
1, 196466, Control_c, 0, 64, 81
1, 196481, Control_c, 0, 64, 84
1, 196496, Control_c, 0, 64, 87
1, 196510, Control_c, 0, 64, 90
1, 196525, Control_c, 0, 64, 92
1, 196540, Control_c, 0, 64, 96
1, 196555, Control_c, 0, 64, 99
1, 196570, Control_c, 0, 64, 104
1, 196584, Control_c, 0, 64, 107
1, 196599, Control_c, 0, 64, 109
1, 196614, Control_c, 0, 64, 110
1, 196628, Control_c, 0, 64, 111
1, 196673, Control_c, 0, 64, 112
1, 196866, Control_c, 0, 64, 111
1, 196948, Control_c, 0, 64, 110
1, 196963, Control_c, 0, 64, 104
1, 196978, Control_c, 0, 64, 97
1, 196993, Control_c, 0, 64, 89
1, 197007, Control_c, 0, 64, 83
1, 197022, Control_c, 0, 64, 77
1, 197037, Control_c, 0, 64, 70
1, 197051, Control_c, 0, 64, 62
1, 197066, Control_c, 0, 64, 44
1, 197081, Control_c, 0, 64, 0
1, 197348, Control_c, 0, 64, 32
1, 197363, Control_c, 0, 64, 48
1, 197377, Control_c, 0, 64, 56
1, 197392, Control_c, 0, 64, 59
1, 197407, Control_c, 0, 64, 61
1, 197422, Control_c, 0, 64, 62
1, 197437, Control_c, 0, 64, 64
1, 197451, Control_c, 0, 64, 66
1, 197466, Control_c, 0, 64, 68
1, 197481, Control_c, 0, 64, 70
1, 197496, Control_c, 0, 64, 73
1, 197511, Control_c, 0, 64, 76
1, 197525, Control_c, 0, 64, 81
1, 197540, Control_c, 0, 64, 85
1, 197555, Control_c, 0, 64, 91
1, 197570, Control_c, 0, 64, 97
1, 197584, Control_c, 0, 64, 104
1, 197599, Control_c, 0, 64, 114
1, 197614, Control_c, 0, 64, 127
1, 197933, Note_on_c, 0, 71, 49
1, 197960, Note_on_c, 0, 67, 30
1, 197980, Note_on_c, 0, 43, 31
1, 197982, Note_on_c, 0, 50, 25
1, 197987, Note_on_c, 0, 59, 20
1, 199199, Note_off_c, 0, 59, 38
1, 199239, Note_off_c, 0, 43, 37
1, 199241, Note_off_c, 0, 71, 34
1, 199310, Note_off_c, 0, 50, 25
1, 199356, Note_off_c, 0, 67, 42
1, 199614, Note_on_c, 0, 69, 48
1, 199629, Note_on_c, 0, 66, 44
1, 199633, Note_on_c, 0, 60, 41
1, 199641, Note_on_c, 0, 43, 37
1, 199649, Note_on_c, 0, 50, 30
1, 199672, Note_off_c, 0, 60, 58
1, 199691, Note_off_c, 0, 66, 51
1, 199702, Note_off_c, 0, 50, 44
1, 199714, Note_off_c, 0, 43, 38
1, 199768, Note_off_c, 0, 69, 36
1, 199782, Note_on_c, 0, 71, 52
1, 199802, Note_on_c, 0, 67, 39
1, 199804, Note_on_c, 0, 43, 18
1, 199805, Note_on_c, 0, 50, 21
1, 199819, Note_on_c, 0, 59, 37
1, 199832, Control_c, 0, 64, 107
1, 199846, Control_c, 0, 64, 93
1, 199861, Control_c, 0, 64, 83
1, 199884, Control_c, 0, 64, 76
1, 199899, Control_c, 0, 64, 68
1, 199914, Control_c, 0, 64, 60
1, 199928, Control_c, 0, 64, 0
1, 200107, Control_c, 0, 64, 41
1, 200122, Control_c, 0, 64, 55
1, 200137, Control_c, 0, 64, 59
1, 200151, Control_c, 0, 64, 61
1, 200181, Control_c, 0, 64, 62
1, 200196, Control_c, 0, 64, 62
1, 200210, Control_c, 0, 64, 63
1, 200225, Control_c, 0, 64, 64
1, 200240, Control_c, 0, 64, 65
1, 200255, Control_c, 0, 64, 66
1, 200270, Control_c, 0, 64, 67
1, 200285, Control_c, 0, 64, 68
1, 200300, Control_c, 0, 64, 70
1, 200314, Control_c, 0, 64, 71
1, 200329, Control_c, 0, 64, 72
1, 200359, Control_c, 0, 64, 72
1, 200374, Control_c, 0, 64, 73
1, 200389, Control_c, 0, 64, 74
1, 200403, Control_c, 0, 64, 76
1, 200418, Control_c, 0, 64, 77
1, 200448, Control_c, 0, 64, 77
1, 200463, Control_c, 0, 64, 78
1, 200477, Control_c, 0, 64, 78
1, 200492, Control_c, 0, 64, 80
1, 200507, Control_c, 0, 64, 82
1, 200522, Control_c, 0, 64, 83
1, 200537, Control_c, 0, 64, 85
1, 200551, Control_c, 0, 64, 88
1, 200566, Control_c, 0, 64, 92
1, 200581, Control_c, 0, 64, 100
1, 200595, Control_c, 0, 64, 127
1, 200949, Note_off_c, 0, 59, 33
1, 201008, Note_off_c, 0, 71, 33
1, 201009, Note_off_c, 0, 43, 33
1, 201039, Note_off_c, 0, 50, 30
1, 201146, Note_off_c, 0, 67, 41
1, 201308, Note_on_c, 0, 69, 48
1, 201322, Note_on_c, 0, 60, 42
1, 201328, Note_on_c, 0, 66, 37
1, 201333, Note_on_c, 0, 43, 36
1, 201342, Note_on_c, 0, 50, 24
1, 201379, Note_off_c, 0, 60, 58
1, 201382, Note_off_c, 0, 66, 48
1, 201405, Note_off_c, 0, 50, 42
1, 201415, Note_off_c, 0, 43, 37
1, 201418, Note_off_c, 0, 69, 58
1, 201499, Control_c, 0, 64, 88
1, 201510, Note_on_c, 0, 71, 55
1, 201511, Note_on_c, 0, 67, 48
1, 201512, Note_on_c, 0, 50, 31
1, 201514, Control_c, 0, 64, 65
1, 201529, Note_on_c, 0, 59, 40
1, 201529, Control_c, 0, 64, 36
1, 201534, Note_on_c, 0, 43, 36
1, 201544, Control_c, 0, 64, 39
1, 201558, Control_c, 0, 64, 56
1, 201573, Control_c, 0, 64, 62
1, 201588, Control_c, 0, 64, 66
1, 201597, Note_off_c, 0, 67, 58
1, 201603, Control_c, 0, 64, 71
1, 201604, Note_off_c, 0, 59, 50
1, 201617, Note_off_c, 0, 71, 57
1, 201618, Control_c, 0, 64, 78
1, 201632, Control_c, 0, 64, 81
1, 201648, Control_c, 0, 64, 82
1, 201663, Note_off_c, 0, 43, 37
1, 201665, Note_off_c, 0, 50, 38
1, 201751, Note_on_c, 0, 72, 60
1, 201752, Control_c, 0, 64, 82
1, 201758, Note_on_c, 0, 69, 59
1, 201762, Note_on_c, 0, 60, 51
1, 201769, Note_on_c, 0, 50, 30
1, 201778, Note_on_c, 0, 43, 51
1, 201781, Control_c, 0, 64, 83
1, 201811, Control_c, 0, 64, 83
1, 201820, Note_off_c, 0, 60, 50
1, 201826, Control_c, 0, 64, 84
1, 201827, Note_off_c, 0, 43, 61
1, 201837, Note_off_c, 0, 72, 60
1, 201856, Control_c, 0, 64, 85
1, 201860, Note_off_c, 0, 69, 57
1, 201870, Control_c, 0, 64, 87
1, 201885, Control_c, 0, 64, 89
1, 201889, Note_off_c, 0, 50, 31
1, 201900, Control_c, 0, 64, 91
1, 201930, Control_c, 0, 64, 90
1, 201945, Control_c, 0, 64, 81
1, 201960, Control_c, 0, 64, 69
1, 201960, Note_on_c, 0, 74, 67
1, 201966, Note_on_c, 0, 50, 30
1, 201970, Note_on_c, 0, 62, 57
1, 201972, Note_on_c, 0, 71, 55
1, 201973, Note_on_c, 0, 43, 45
1, 201974, Control_c, 0, 64, 62
1, 201989, Control_c, 0, 64, 61
1, 202004, Control_c, 0, 64, 63
1, 202019, Control_c, 0, 64, 68
1, 202034, Control_c, 0, 64, 74
1, 202040, Note_off_c, 0, 62, 50
1, 202045, Note_off_c, 0, 71, 54
1, 202048, Control_c, 0, 64, 81
1, 202063, Control_c, 0, 64, 82
1, 202076, Note_off_c, 0, 74, 52
1, 202099, Note_off_c, 0, 43, 31
1, 202106, Note_off_c, 0, 50, 32
1, 202189, Control_c, 0, 64, 80
1, 202204, Control_c, 0, 64, 71
1, 202210, Note_on_c, 0, 74, 64
1, 202219, Control_c, 0, 64, 57
1, 202234, Note_on_c, 0, 50, 22
1, 202234, Control_c, 0, 64, 0
1, 202239, Note_on_c, 0, 66, 48
1, 202246, Note_on_c, 0, 62, 47
1, 202254, Note_on_c, 0, 38, 41
1, 202279, Control_c, 0, 64, 29
1, 202294, Control_c, 0, 64, 58
1, 202309, Control_c, 0, 64, 68
1, 202318, Note_off_c, 0, 62, 50
1, 202323, Control_c, 0, 64, 79
1, 202334, Note_off_c, 0, 74, 60
1, 202338, Control_c, 0, 64, 86
1, 202347, Note_off_c, 0, 38, 0
1, 202353, Control_c, 0, 64, 87
1, 202368, Control_c, 0, 64, 90
1, 202380, Note_off_c, 0, 50, 34
1, 202382, Control_c, 0, 64, 93
1, 202385, Note_off_c, 0, 66, 36
1, 202390, Poly_aftertouch_c, 0, 38, 0
1, 202397, Control_c, 0, 64, 95
1, 202442, Control_c, 0, 64, 94
1, 202458, Control_c, 0, 64, 89
1, 202458, Note_on_c, 0, 66, 44
1, 202461, Note_on_c, 0, 72, 57
1, 202472, Control_c, 0, 64, 74
1, 202479, Note_on_c, 0, 38, 33
1, 202485, Note_on_c, 0, 50, 20
1, 202486, Note_on_c, 0, 60, 38
1, 202487, Control_c, 0, 64, 61
1, 202502, Control_c, 0, 64, 19
1, 202517, Control_c, 0, 64, 35
1, 202532, Control_c, 0, 64, 54
1, 202543, Note_off_c, 0, 60, 52
1, 202546, Control_c, 0, 64, 63
1, 202561, Control_c, 0, 64, 68
1, 202568, Note_off_c, 0, 72, 58
1, 202576, Control_c, 0, 64, 76
1, 202582, Note_off_c, 0, 50, 36
1, 202589, Note_off_c, 0, 66, 37
1, 202590, Control_c, 0, 64, 82
1, 202598, Note_off_c, 0, 38, 36
1, 202605, Control_c, 0, 64, 85
1, 202620, Control_c, 0, 64, 86
1, 202664, Control_c, 0, 64, 81
1, 202679, Control_c, 0, 64, 69
1, 202694, Control_c, 0, 64, 55
1, 202695, Note_on_c, 0, 72, 55
1, 202699, Note_on_c, 0, 66, 41
1, 202709, Control_c, 0, 64, 40
1, 202712, Note_on_c, 0, 38, 32
1, 202714, Note_on_c, 0, 60, 35
1, 202717, Note_on_c, 0, 50, 25
1, 202724, Control_c, 0, 64, 52
1, 202738, Control_c, 0, 64, 62
1, 202753, Control_c, 0, 64, 66
1, 202765, Note_off_c, 0, 72, 59
1, 202768, Control_c, 0, 64, 72
1, 202776, Note_off_c, 0, 60, 56
1, 202783, Control_c, 0, 64, 81
1, 202798, Control_c, 0, 64, 84
1, 202808, Note_off_c, 0, 50, 35
1, 202811, Note_off_c, 0, 38, 35
1, 202812, Control_c, 0, 64, 86
1, 202825, Note_off_c, 0, 66, 37
1, 202827, Control_c, 0, 64, 86
1, 202997, Control_c, 0, 64, 86
1, 203012, Control_c, 0, 64, 83
1, 203027, Control_c, 0, 64, 80
1, 203029, Note_on_c, 0, 71, 47
1, 203040, Note_on_c, 0, 67, 38
1, 203042, Control_c, 0, 64, 77
1, 203056, Note_on_c, 0, 59, 28
1, 203057, Control_c, 0, 64, 73
1, 203061, Note_on_c, 0, 50, 23
1, 203062, Note_on_c, 0, 43, 32
1, 203072, Control_c, 0, 64, 69
1, 203087, Control_c, 0, 64, 65
1, 203102, Control_c, 0, 64, 60
1, 203116, Control_c, 0, 64, 48
1, 203131, Control_c, 0, 64, 0
1, 203428, Control_c, 0, 64, 44
1, 203443, Control_c, 0, 64, 50
1, 203458, Control_c, 0, 64, 53
1, 203473, Control_c, 0, 64, 58
1, 203488, Control_c, 0, 64, 62
1, 203502, Control_c, 0, 64, 63
1, 203517, Control_c, 0, 64, 64
1, 203532, Control_c, 0, 64, 65
1, 203546, Control_c, 0, 64, 66
1, 203561, Control_c, 0, 64, 68
1, 203576, Control_c, 0, 64, 71
1, 203591, Control_c, 0, 64, 74
1, 203606, Control_c, 0, 64, 76
1, 203628, Control_c, 0, 64, 78
1, 203643, Control_c, 0, 64, 79
1, 203658, Control_c, 0, 64, 83
1, 203673, Control_c, 0, 64, 86
1, 203688, Control_c, 0, 64, 91
1, 203702, Control_c, 0, 64, 97
1, 203717, Control_c, 0, 64, 106
1, 203732, Control_c, 0, 64, 127
1, 203791, Note_off_c, 0, 50, 33
1, 203832, Note_off_c, 0, 43, 38
1, 203979, Note_off_c, 0, 67, 40
1, 203980, Note_off_c, 0, 71, 40
1, 204003, Note_off_c, 0, 59, 40
1, 204251, Control_c, 0, 64, 105
1, 204266, Control_c, 0, 64, 90
1, 204281, Control_c, 0, 64, 78
1, 204296, Control_c, 0, 64, 68
1, 204311, Control_c, 0, 64, 58
1, 204325, Control_c, 0, 64, 0
1, 204524, Control_c, 0, 64, 47
1, 204539, Control_c, 0, 64, 60
1, 204554, Control_c, 0, 64, 63
1, 204568, Control_c, 0, 64, 64
1, 204583, Control_c, 0, 64, 66
1, 204598, Control_c, 0, 64, 70
1, 204613, Control_c, 0, 64, 77
1, 204628, Control_c, 0, 64, 84
1, 204643, Control_c, 0, 64, 90
1, 204658, Control_c, 0, 64, 95
1, 204672, Control_c, 0, 64, 105
1, 204687, Control_c, 0, 64, 127
1, 204772, Note_on_c, 0, 76, 67
1, 204802, Note_on_c, 0, 72, 44
1, 204817, Note_on_c, 0, 64, 41
1, 204841, Note_on_c, 0, 48, 30
1, 204848, Note_on_c, 0, 36, 31
1, 205073, Control_c, 0, 67, 120
1, 205088, Control_c, 0, 67, 115
1, 205103, Control_c, 0, 67, 110
1, 205126, Control_c, 0, 67, 105
1, 205140, Control_c, 0, 67, 102
1, 205155, Control_c, 0, 67, 99
1, 205170, Control_c, 0, 67, 97
1, 205185, Control_c, 0, 67, 96
1, 205273, Control_c, 0, 67, 96
1, 205288, Control_c, 0, 67, 97
1, 205303, Control_c, 0, 67, 97
1, 205317, Control_c, 0, 67, 98
1, 205332, Control_c, 0, 67, 98
1, 205347, Control_c, 0, 67, 99
1, 205362, Control_c, 0, 67, 99
1, 205377, Control_c, 0, 67, 100
1, 205391, Control_c, 0, 67, 100
1, 205406, Control_c, 0, 67, 101
1, 205421, Control_c, 0, 67, 101
1, 205436, Control_c, 0, 67, 102
1, 205465, Control_c, 0, 67, 102
1, 205480, Control_c, 0, 67, 103
1, 205510, Control_c, 0, 67, 103
1, 205525, Control_c, 0, 67, 104
1, 205570, Control_c, 0, 67, 104
1, 205584, Control_c, 0, 67, 105
1, 205614, Control_c, 0, 67, 105
1, 205629, Control_c, 0, 67, 106
1, 205674, Control_c, 0, 67, 107
1, 205704, Control_c, 0, 67, 107
1, 205719, Control_c, 0, 67, 108
1, 205749, Control_c, 0, 67, 108
1, 205763, Control_c, 0, 67, 109
1, 205778, Control_c, 0, 67, 111
1, 205793, Control_c, 0, 67, 111
1, 205808, Control_c, 0, 67, 112
1, 205822, Control_c, 0, 67, 113
1, 205837, Control_c, 0, 67, 115
1, 205852, Control_c, 0, 67, 117
1, 205874, Control_c, 0, 67, 118
1, 205890, Control_c, 0, 67, 120
1, 205904, Control_c, 0, 67, 121
1, 205915, Note_off_c, 0, 76, 56
1, 205919, Control_c, 0, 67, 122
1, 205934, Control_c, 0, 67, 123
1, 205948, Control_c, 0, 67, 124
1, 205956, Note_off_c, 0, 64, 41
1, 205963, Control_c, 0, 67, 125
1, 205978, Control_c, 0, 67, 127
1, 205993, Control_c, 0, 67, 127
1, 206048, Note_off_c, 0, 48, 33
1, 206069, Note_off_c, 0, 36, 36
1, 206082, Note_off_c, 0, 72, 36
1, 206503, Note_on_c, 0, 75, 52
1, 206504, Note_on_c, 0, 71, 52
1, 206514, Note_on_c, 0, 63, 42
1, 206525, Note_on_c, 0, 48, 40
1, 206539, Note_on_c, 0, 36, 24
1, 206568, Note_off_c, 0, 63, 59
1, 206572, Note_off_c, 0, 71, 57
1, 206580, Note_off_c, 0, 36, 49
1, 206580, Note_off_c, 0, 48, 41
1, 206643, Note_on_c, 0, 72, 55
1, 206652, Note_on_c, 0, 76, 67
1, 206657, Note_off_c, 0, 75, 30
1, 206671, Note_on_c, 0, 64, 52
1, 206672, Note_on_c, 0, 48, 34
1, 206691, Note_on_c, 0, 36, 36
1, 206713, Control_c, 0, 64, 91
1, 206727, Control_c, 0, 64, 76
1, 206742, Control_c, 0, 64, 65
1, 206757, Control_c, 0, 64, 40
1, 206771, Control_c, 0, 64, 0
1, 207447, Control_c, 0, 64, 12
1, 207461, Control_c, 0, 64, 48
1, 207476, Control_c, 0, 64, 63
1, 207491, Control_c, 0, 64, 70
1, 207506, Control_c, 0, 64, 83
1, 207520, Control_c, 0, 64, 113
1, 207535, Control_c, 0, 64, 127
1, 207628, Note_off_c, 0, 76, 55
1, 207743, Note_off_c, 0, 64, 42
1, 207787, Note_off_c, 0, 48, 33
1, 207822, Note_off_c, 0, 36, 37
1, 207835, Note_off_c, 0, 72, 36
1, 208196, Note_on_c, 0, 75, 53
1, 208197, Note_on_c, 0, 71, 49
1, 208208, Note_on_c, 0, 63, 39
1, 208214, Note_on_c, 0, 48, 39
1, 208217, Note_on_c, 0, 36, 38
1, 208245, Note_off_c, 0, 63, 56
1, 208256, Note_off_c, 0, 36, 49
1, 208256, Note_off_c, 0, 48, 45
1, 208257, Note_off_c, 0, 71, 51
1, 208276, Note_off_c, 0, 75, 55
1, 208321, Note_on_c, 0, 72, 57
1, 208327, Control_c, 0, 64, 94
1, 208330, Note_on_c, 0, 76, 65
1, 208342, Note_on_c, 0, 64, 50
1, 208342, Control_c, 0, 64, 63
1, 208356, Note_on_c, 0, 48, 37
1, 208357, Control_c, 0, 64, 0
1, 208373, Note_on_c, 0, 36, 38
1, 208402, Control_c, 0, 64, 36
1, 208416, Control_c, 0, 64, 54
1, 208431, Control_c, 0, 64, 63
1, 208446, Control_c, 0, 64, 67
1, 208452, Note_off_c, 0, 64, 37
1, 208458, Note_off_c, 0, 76, 55
1, 208461, Control_c, 0, 64, 71
1, 208476, Control_c, 0, 64, 76
1, 208490, Control_c, 0, 64, 81
1, 208505, Control_c, 0, 64, 83
1, 208514, Note_off_c, 0, 36, 42
1, 208592, Note_off_c, 0, 48, 0
1, 208598, Note_off_c, 0, 72, 37
1, 208604, Note_on_c, 0, 77, 70
1, 208604, Note_on_c, 0, 48, 28
1, 208610, Note_on_c, 0, 71, 56
1, 208616, Note_on_c, 0, 65, 56
1, 208628, Note_on_c, 0, 36, 36
1, 208698, Note_off_c, 0, 65, 55
1, 208706, Note_off_c, 0, 77, 57
1, 208712, Control_c, 0, 64, 84
1, 208727, Note_off_c, 0, 36, 35
1, 208739, Note_off_c, 0, 48, 34
1, 208824, Note_on_c, 0, 76, 73
1, 208825, Note_off_c, 0, 71, 59
1, 208827, Note_on_c, 0, 72, 64
1, 208829, Note_on_c, 0, 48, 45
1, 208842, Note_on_c, 0, 64, 55
1, 208846, Note_on_c, 0, 36, 43
1, 208899, Control_c, 0, 64, 85
1, 208914, Control_c, 0, 64, 87
1, 208917, Note_off_c, 0, 64, 54
1, 208929, Control_c, 0, 64, 89
1, 208932, Note_off_c, 0, 36, 39
1, 208943, Note_off_c, 0, 48, 37
1, 208944, Control_c, 0, 64, 92
1, 208959, Control_c, 0, 64, 97
1, 208973, Control_c, 0, 64, 98
1, 208988, Control_c, 0, 64, 98
1, 209003, Control_c, 0, 64, 83
1, 209018, Control_c, 0, 64, 63
1, 209033, Control_c, 0, 64, 0
1, 209034, Note_off_c, 0, 72, 38
1, 209048, Note_on_c, 0, 74, 70
1, 209056, Note_on_c, 0, 62, 59
1, 209057, Note_on_c, 0, 71, 48
1, 209061, Note_off_c, 0, 76, 64
1, 209062, Control_c, 0, 64, 34
1, 209068, Note_on_c, 0, 48, 47
1, 209071, Note_on_c, 0, 36, 49
1, 209077, Control_c, 0, 64, 55
1, 209092, Control_c, 0, 64, 64
1, 209106, Control_c, 0, 64, 73
1, 209118, Note_off_c, 0, 71, 62
1, 209121, Control_c, 0, 64, 84
1, 209136, Control_c, 0, 64, 93
1, 209138, Note_off_c, 0, 36, 53
1, 209144, Note_off_c, 0, 74, 63
1, 209151, Control_c, 0, 64, 99
1, 209151, Control_c, 0, 67, 127
1, 209152, Note_off_c, 0, 48, 48
1, 209154, Note_off_c, 0, 62, 55
1, 209165, Control_c, 0, 64, 110
1, 209180, Control_c, 0, 64, 127
1, 209180, Control_c, 0, 67, 126
1, 209195, Control_c, 0, 67, 125
1, 209210, Control_c, 0, 67, 124
1, 209225, Control_c, 0, 64, 94
1, 209225, Control_c, 0, 67, 123
1, 209239, Control_c, 0, 64, 74
1, 209239, Control_c, 0, 67, 120
1, 209254, Control_c, 0, 64, 64
1, 209254, Control_c, 0, 67, 117
1, 209260, Note_on_c, 0, 72, 63
1, 209269, Control_c, 0, 64, 63
1, 209269, Control_c, 0, 67, 115
1, 209275, Note_on_c, 0, 69, 56
1, 209278, Note_on_c, 0, 36, 37
1, 209284, Note_on_c, 0, 60, 45
1, 209284, Control_c, 0, 64, 66
1, 209284, Control_c, 0, 67, 112
1, 209299, Control_c, 0, 64, 71
1, 209299, Control_c, 0, 67, 109
1, 209314, Control_c, 0, 64, 79
1, 209314, Control_c, 0, 67, 106
1, 209329, Control_c, 0, 64, 87
1, 209329, Control_c, 0, 67, 104
1, 209344, Control_c, 0, 64, 89
1, 209344, Control_c, 0, 67, 102
1, 209358, Note_off_c, 0, 60, 52
1, 209358, Control_c, 0, 64, 89
1, 209358, Control_c, 0, 67, 99
1, 209361, Poly_aftertouch_c, 0, 48, 0
1, 209373, Control_c, 0, 67, 98
1, 209418, Control_c, 0, 67, 98
1, 209432, Control_c, 0, 67, 99
1, 209442, Note_off_c, 0, 69, 54
1, 209447, Control_c, 0, 64, 85
1, 209447, Control_c, 0, 67, 100
1, 209462, Control_c, 0, 64, 72
1, 209462, Control_c, 0, 67, 101
1, 209469, Note_off_c, 0, 36, 41
1, 209477, Control_c, 0, 64, 48
1, 209485, Note_off_c, 0, 72, 64
1, 209488, Note_on_c, 0, 67, 51
1, 209491, Note_on_c, 0, 71, 56
1, 209491, Control_c, 0, 64, 0
1, 209497, Note_on_c, 0, 49, 40
1, 209507, Note_on_c, 0, 37, 41
1, 209513, Note_on_c, 0, 59, 43
1, 209551, Control_c, 0, 67, 102
1, 209564, Note_off_c, 0, 67, 58
1, 209565, Control_c, 0, 64, 58
1, 209565, Control_c, 0, 67, 102
1, 209580, Control_c, 0, 64, 66
1, 209580, Control_c, 0, 67, 103
1, 209595, Control_c, 0, 64, 69
1, 209595, Control_c, 0, 67, 104
1, 209616, Note_off_c, 0, 71, 61
1, 209618, Control_c, 0, 64, 73
1, 209618, Control_c, 0, 67, 105
1, 209630, Note_off_c, 0, 59, 62
1, 209633, Control_c, 0, 64, 78
1, 209633, Control_c, 0, 67, 106
1, 209648, Control_c, 0, 64, 83
1, 209648, Control_c, 0, 67, 106
1, 209663, Control_c, 0, 64, 89
1, 209663, Control_c, 0, 67, 107
1, 209677, Control_c, 0, 64, 92
1, 209677, Control_c, 0, 67, 109
1, 209692, Control_c, 0, 64, 92
1, 209692, Control_c, 0, 67, 111
1, 209707, Control_c, 0, 67, 113
1, 209722, Control_c, 0, 67, 117
1, 209737, Control_c, 0, 67, 119
1, 209752, Control_c, 0, 67, 121
1, 209763, Note_off_c, 0, 49, 55
1, 209767, Control_c, 0, 67, 122
1, 209782, Control_c, 0, 64, 92
1, 209782, Control_c, 0, 67, 123
1, 209796, Control_c, 0, 64, 88
1, 209796, Control_c, 0, 67, 123
1, 209808, Note_on_c, 0, 69, 46
1, 209811, Control_c, 0, 64, 77
1, 209814, Note_on_c, 0, 66, 49
1, 209826, Control_c, 0, 64, 64
1, 209826, Note_off_c, 0, 37, 39
1, 209835, Note_on_c, 0, 57, 37
1, 209841, Control_c, 0, 64, 0
1, 209855, Note_on_c, 0, 50, 31
1, 209863, Note_on_c, 0, 38, 35
1, 209870, Control_c, 0, 67, 123
1, 209885, Control_c, 0, 67, 121
1, 209900, Control_c, 0, 67, 120
1, 209914, Control_c, 0, 67, 119
1, 209929, Control_c, 0, 64, 46
1, 209929, Control_c, 0, 67, 117
1, 209937, Note_off_c, 0, 57, 57
1, 209944, Control_c, 0, 64, 63
1, 209944, Control_c, 0, 67, 116
1, 209959, Control_c, 0, 64, 69
1, 209959, Control_c, 0, 67, 115
1, 209974, Control_c, 0, 64, 75
1, 209974, Control_c, 0, 67, 114
1, 209979, Note_off_c, 0, 69, 53
1, 209988, Control_c, 0, 64, 83
1, 209988, Control_c, 0, 67, 113
1, 210003, Control_c, 0, 64, 93
1, 210003, Control_c, 0, 67, 112
1, 210012, Note_off_c, 0, 50, 52
1, 210018, Control_c, 0, 64, 107
1, 210018, Control_c, 0, 67, 110
1, 210033, Control_c, 0, 64, 127
1, 210033, Control_c, 0, 67, 109
1, 210038, Note_off_c, 0, 38, 40
1, 210040, Note_off_c, 0, 66, 36
1, 210048, Control_c, 0, 67, 108
1, 210062, Control_c, 0, 67, 107
1, 210077, Control_c, 0, 67, 107
1, 210092, Control_c, 0, 67, 106
1, 210122, Control_c, 0, 67, 105
1, 210136, Control_c, 0, 67, 103
1, 210151, Control_c, 0, 64, 115
1, 210151, Control_c, 0, 67, 101
1, 210166, Note_on_c, 0, 62, 52
1, 210166, Control_c, 0, 64, 80
1, 210166, Control_c, 0, 67, 98
1, 210181, Control_c, 0, 64, 61
1, 210181, Control_c, 0, 67, 96
1, 210196, Control_c, 0, 64, 0
1, 210196, Control_c, 0, 67, 93
1, 210211, Control_c, 0, 67, 90
1, 210226, Control_c, 0, 64, 26
1, 210226, Control_c, 0, 67, 85
1, 210241, Control_c, 0, 64, 51
1, 210241, Control_c, 0, 67, 80
1, 210255, Control_c, 0, 64, 63
1, 210255, Control_c, 0, 67, 74
1, 210270, Control_c, 0, 64, 68
1, 210270, Control_c, 0, 67, 70
1, 210285, Control_c, 0, 64, 75
1, 210285, Control_c, 0, 67, 66
1, 210293, Note_off_c, 0, 62, 57
1, 210300, Control_c, 0, 64, 85
1, 210300, Control_c, 0, 67, 63
1, 210314, Control_c, 0, 64, 95
1, 210314, Control_c, 0, 67, 59
1, 210329, Control_c, 0, 64, 107
1, 210329, Control_c, 0, 67, 54
1, 210344, Control_c, 0, 64, 127
1, 210344, Control_c, 0, 67, 51
1, 210366, Control_c, 0, 67, 48
1, 210381, Control_c, 0, 67, 45
1, 210396, Control_c, 0, 67, 44
1, 210411, Control_c, 0, 67, 42
1, 210425, Note_on_c, 0, 64, 66
1, 210426, Control_c, 0, 64, 105
1, 210426, Control_c, 0, 67, 41
1, 210441, Control_c, 0, 64, 69
1, 210441, Control_c, 0, 67, 39
1, 210456, Control_c, 0, 64, 47
1, 210456, Control_c, 0, 67, 36
1, 210471, Control_c, 0, 64, 21
1, 210471, Control_c, 0, 67, 33
1, 210485, Control_c, 0, 64, 43
1, 210485, Control_c, 0, 67, 30
1, 210500, Control_c, 0, 64, 59
1, 210500, Control_c, 0, 67, 26
1, 210515, Control_c, 0, 64, 65
1, 210515, Control_c, 0, 67, 21
1, 210530, Control_c, 0, 64, 73
1, 210530, Control_c, 0, 67, 15
1, 210545, Control_c, 0, 64, 91
1, 210545, Control_c, 0, 67, 11
1, 210560, Control_c, 0, 64, 127
1, 210560, Control_c, 0, 67, 8
1, 210575, Control_c, 0, 67, 0
1, 210582, Note_off_c, 0, 64, 48
1, 210619, Control_c, 0, 64, 95
1, 210634, Control_c, 0, 64, 72
1, 210640, Note_on_c, 0, 66, 70
1, 210649, Control_c, 0, 64, 57
1, 210664, Control_c, 0, 64, 47
1, 210679, Control_c, 0, 64, 56
1, 210693, Control_c, 0, 64, 63
1, 210708, Control_c, 0, 64, 67
1, 210723, Control_c, 0, 64, 75
1, 210737, Control_c, 0, 64, 87
1, 210752, Control_c, 0, 64, 97
1, 210767, Control_c, 0, 64, 102
1, 210782, Control_c, 0, 64, 107
1, 210794, Note_off_c, 0, 66, 55
1, 210797, Control_c, 0, 64, 110
1, 210826, Control_c, 0, 64, 100
1, 210841, Control_c, 0, 64, 76
1, 210846, Note_on_c, 0, 67, 76
1, 210856, Control_c, 0, 64, 59
1, 210871, Control_c, 0, 64, 0
1, 210900, Control_c, 0, 64, 44
1, 210915, Control_c, 0, 64, 62
1, 210929, Control_c, 0, 64, 70
1, 210944, Control_c, 0, 64, 83
1, 210959, Control_c, 0, 64, 106
1, 210974, Control_c, 0, 64, 127
1, 211030, Note_off_c, 0, 67, 53
1, 211034, Control_c, 0, 64, 105
1, 211049, Control_c, 0, 64, 69
1, 211064, Control_c, 0, 64, 39
1, 211072, Note_on_c, 0, 69, 82
1, 211078, Control_c, 0, 64, 0
1, 211093, Control_c, 0, 64, 36
1, 211115, Control_c, 0, 64, 61
1, 211129, Control_c, 0, 64, 71
1, 211144, Control_c, 0, 64, 89
1, 211159, Control_c, 0, 64, 127
1, 211223, Note_off_c, 0, 69, 57
1, 211458, Note_on_c, 0, 71, 76
1, 211474, Note_on_c, 0, 67, 59
1, 211486, Control_c, 0, 64, 125
1, 211496, Note_on_c, 0, 59, 44
1, 211501, Note_on_c, 0, 50, 36
1, 211501, Control_c, 0, 64, 105
1, 211510, Note_on_c, 0, 43, 41
1, 211515, Control_c, 0, 64, 95
1, 211530, Control_c, 0, 64, 87
1, 211545, Control_c, 0, 64, 80
1, 211559, Control_c, 0, 64, 73
1, 211574, Control_c, 0, 64, 67
1, 211589, Control_c, 0, 64, 62
1, 211604, Control_c, 0, 64, 55
1, 211619, Control_c, 0, 64, 38
1, 211633, Control_c, 0, 64, 0
1, 212250, Control_c, 0, 64, 26
1, 212264, Control_c, 0, 64, 58
1, 212279, Control_c, 0, 64, 66
1, 212294, Control_c, 0, 64, 77
1, 212308, Control_c, 0, 64, 97
1, 212323, Control_c, 0, 64, 127
1, 212591, Note_off_c, 0, 59, 38
1, 212620, Note_off_c, 0, 71, 59
1, 212641, Note_off_c, 0, 43, 37
1, 212647, Note_off_c, 0, 50, 34
1, 212782, Note_off_c, 0, 67, 33
1, 212942, Note_on_c, 0, 66, 61
1, 212942, Note_on_c, 0, 69, 61
1, 212951, Note_on_c, 0, 60, 51
1, 212963, Note_on_c, 0, 43, 41
1, 212966, Note_on_c, 0, 50, 41
1, 212988, Note_off_c, 0, 60, 63
1, 213006, Note_off_c, 0, 50, 54
1, 213007, Note_off_c, 0, 66, 57
1, 213012, Note_off_c, 0, 43, 43
1, 213059, Note_off_c, 0, 69, 50
1, 213069, Note_on_c, 0, 71, 76
1, 213080, Note_on_c, 0, 67, 63
1, 213088, Note_on_c, 0, 59, 56
1, 213094, Note_on_c, 0, 50, 46
1, 213099, Note_on_c, 0, 43, 49
1, 213132, Control_c, 0, 64, 92
1, 213147, Control_c, 0, 64, 71
1, 213162, Control_c, 0, 64, 39
1, 213177, Control_c, 0, 64, 0
1, 213280, Control_c, 0, 64, 38
1, 213295, Control_c, 0, 64, 43
1, 213310, Control_c, 0, 64, 45
1, 213324, Control_c, 0, 64, 46
1, 213339, Control_c, 0, 64, 47
1, 213362, Control_c, 0, 64, 48
1, 213377, Control_c, 0, 64, 49
1, 213392, Control_c, 0, 64, 49
1, 213480, Control_c, 0, 64, 50
1, 213510, Control_c, 0, 64, 49
1, 213584, Control_c, 0, 64, 50
1, 213659, Control_c, 0, 64, 49
1, 213762, Control_c, 0, 64, 49
1, 213777, Control_c, 0, 64, 46
1, 213792, Control_c, 0, 64, 39
1, 213807, Control_c, 0, 64, 32
1, 213836, Control_c, 0, 64, 40
1, 213851, Control_c, 0, 64, 51
1, 213866, Control_c, 0, 64, 61
1, 213881, Control_c, 0, 64, 69
1, 213895, Control_c, 0, 64, 83
1, 213910, Control_c, 0, 64, 125
1, 213925, Control_c, 0, 64, 127
1, 214227, Note_off_c, 0, 59, 36
1, 214290, Note_off_c, 0, 71, 37
1, 214292, Note_off_c, 0, 50, 32
1, 214323, Note_off_c, 0, 43, 38
1, 214415, Note_off_c, 0, 67, 37
1, 214587, Note_on_c, 0, 69, 61
1, 214593, Note_on_c, 0, 60, 50
1, 214594, Note_on_c, 0, 66, 51
1, 214615, Note_on_c, 0, 43, 39
1, 214618, Note_on_c, 0, 50, 32
1, 214640, Note_off_c, 0, 60, 60
1, 214650, Note_off_c, 0, 66, 56
1, 214663, Note_off_c, 0, 50, 48
1, 214676, Note_off_c, 0, 43, 41
1, 214679, Note_off_c, 0, 69, 56
1, 214739, Note_on_c, 0, 71, 67
1, 214748, Note_on_c, 0, 67, 58
1, 214748, Control_c, 0, 64, 68
1, 214752, Note_on_c, 0, 59, 49
1, 214761, Note_on_c, 0, 50, 31
1, 214763, Control_c, 0, 64, 0
1, 214768, Note_on_c, 0, 43, 40
1, 214822, Control_c, 0, 64, 38
1, 214837, Control_c, 0, 64, 59
1, 214859, Control_c, 0, 64, 65
1, 214871, Note_off_c, 0, 59, 53
1, 214873, Control_c, 0, 64, 69
1, 214885, Note_off_c, 0, 67, 60
1, 214888, Control_c, 0, 64, 72
1, 214891, Note_off_c, 0, 71, 59
1, 214903, Control_c, 0, 64, 73
1, 214918, Control_c, 0, 64, 74
1, 214926, Note_off_c, 0, 50, 40
1, 214933, Control_c, 0, 64, 75
1, 214944, Note_off_c, 0, 43, 37
1, 214948, Control_c, 0, 64, 75
1, 215006, Note_on_c, 0, 72, 73
1, 215007, Control_c, 0, 64, 76
1, 215015, Note_on_c, 0, 43, 42
1, 215018, Note_on_c, 0, 69, 64
1, 215019, Note_on_c, 0, 60, 57
1, 215022, Control_c, 0, 64, 76
1, 215028, Note_on_c, 0, 50, 28
1, 215037, Control_c, 0, 64, 78
1, 215051, Control_c, 0, 64, 80
1, 215066, Control_c, 0, 64, 82
1, 215081, Control_c, 0, 64, 86
1, 215086, Note_off_c, 0, 43, 59
1, 215086, Note_off_c, 0, 50, 53
1, 215096, Control_c, 0, 64, 90
1, 215097, Note_off_c, 0, 60, 57
1, 215110, Note_off_c, 0, 72, 61
1, 215110, Control_c, 0, 64, 95
1, 215125, Control_c, 0, 64, 102
1, 215130, Note_off_c, 0, 69, 63
1, 215140, Control_c, 0, 64, 111
1, 215155, Control_c, 0, 64, 127
1, 215199, Control_c, 0, 64, 89
1, 215207, Note_on_c, 0, 74, 79
1, 215214, Control_c, 0, 64, 64
1, 215216, Note_on_c, 0, 62, 68
1, 215216, Note_on_c, 0, 50, 49
1, 215221, Note_on_c, 0, 71, 66
1, 215222, Note_on_c, 0, 43, 61
1, 215230, Control_c, 0, 64, 34
1, 215245, Control_c, 0, 64, 40
1, 215260, Control_c, 0, 64, 56
1, 215274, Control_c, 0, 64, 63
1, 215289, Control_c, 0, 64, 68
1, 215299, Note_off_c, 0, 50, 61
1, 215301, Note_off_c, 0, 71, 61
1, 215303, Note_off_c, 0, 62, 55
1, 215303, Note_off_c, 0, 74, 62
1, 215304, Control_c, 0, 64, 78
1, 215319, Control_c, 0, 64, 87
1, 215323, Note_off_c, 0, 43, 57
1, 215494, Note_on_c, 0, 71, 74
1, 215496, Control_c, 0, 64, 86
1, 215511, Control_c, 0, 64, 76
1, 215515, Note_on_c, 0, 66, 61
1, 215517, Note_on_c, 0, 59, 52
1, 215520, Note_on_c, 0, 51, 45
1, 215526, Control_c, 0, 64, 64
1, 215535, Note_on_c, 0, 39, 36
1, 215541, Control_c, 0, 64, 0
1, 215623, Control_c, 0, 64, 46
1, 215638, Control_c, 0, 64, 63
1, 215652, Control_c, 0, 64, 70
1, 215666, Note_off_c, 0, 59, 49
1, 215667, Control_c, 0, 64, 77
1, 215675, Note_off_c, 0, 66, 56
1, 215675, Note_off_c, 0, 51, 36
1, 215682, Control_c, 0, 64, 86
1, 215697, Control_c, 0, 64, 99
1, 215705, Note_off_c, 0, 39, 34
1, 215712, Control_c, 0, 64, 127
1, 215771, Control_c, 0, 64, 82
1, 215786, Control_c, 0, 64, 63
1, 215788, Note_on_c, 0, 69, 64
1, 215792, Note_off_c, 0, 71, 55
1, 215799, Note_on_c, 0, 66, 55
1, 215800, Control_c, 0, 64, 41
1, 215806, Note_on_c, 0, 60, 52
1, 215809, Note_on_c, 0, 51, 42
1, 215815, Note_on_c, 0, 39, 50
1, 215815, Control_c, 0, 64, 54
1, 215830, Control_c, 0, 64, 63
1, 215845, Control_c, 0, 64, 68
1, 215860, Control_c, 0, 64, 78
1, 215875, Control_c, 0, 64, 96
1, 215890, Control_c, 0, 64, 125
1, 215893, Note_off_c, 0, 51, 48
1, 215896, Note_off_c, 0, 39, 53
1, 215899, Note_off_c, 0, 60, 51
1, 215905, Note_off_c, 0, 66, 59
1, 215905, Control_c, 0, 64, 127
1, 215916, Note_off_c, 0, 69, 63
1, 215994, Control_c, 0, 64, 79
1, 216008, Control_c, 0, 64, 62
1, 216014, Note_on_c, 0, 69, 67
1, 216021, Note_on_c, 0, 66, 61
1, 216024, Control_c, 0, 64, 38
1, 216026, Note_on_c, 0, 60, 53
1, 216034, Note_on_c, 0, 51, 47
1, 216039, Control_c, 0, 64, 41
1, 216042, Note_on_c, 0, 39, 42
1, 216054, Control_c, 0, 64, 55
1, 216068, Control_c, 0, 64, 62
1, 216083, Control_c, 0, 64, 68
1, 216098, Control_c, 0, 64, 74
1, 216110, Note_off_c, 0, 60, 40
1, 216113, Control_c, 0, 64, 80
1, 216128, Control_c, 0, 64, 86
1, 216129, Note_off_c, 0, 39, 57
1, 216143, Control_c, 0, 64, 90
1, 216157, Control_c, 0, 64, 94
1, 216169, Note_off_c, 0, 66, 48
1, 216172, Control_c, 0, 64, 97
1, 216187, Control_c, 0, 64, 98
1, 216197, Note_off_c, 0, 51, 31
1, 216217, Control_c, 0, 64, 98
1, 216231, Control_c, 0, 64, 99
1, 216322, Note_off_c, 0, 69, 36
1, 216402, Control_c, 0, 64, 98
1, 216417, Control_c, 0, 64, 98
1, 216431, Control_c, 0, 64, 96
1, 216437, Note_on_c, 0, 67, 59
1, 216446, Control_c, 0, 64, 93
1, 216459, Note_on_c, 0, 64, 43
1, 216461, Control_c, 0, 64, 89
1, 216471, Note_on_c, 0, 59, 35
1, 216475, Control_c, 0, 64, 86
1, 216486, Note_on_c, 0, 52, 38
1, 216489, Note_on_c, 0, 40, 38
1, 216490, Control_c, 0, 64, 82
1, 216505, Control_c, 0, 64, 78
1, 216520, Control_c, 0, 64, 74
1, 216535, Control_c, 0, 64, 68
1, 216549, Control_c, 0, 64, 62
1, 216564, Control_c, 0, 64, 42
1, 216579, Control_c, 0, 64, 0
1, 216980, Control_c, 0, 64, 17
1, 216995, Control_c, 0, 64, 37
1, 217010, Control_c, 0, 64, 48
1, 217025, Control_c, 0, 64, 55
1, 217040, Control_c, 0, 64, 59
1, 217054, Control_c, 0, 64, 62
1, 217069, Control_c, 0, 64, 63
1, 217084, Control_c, 0, 64, 65
1, 217106, Control_c, 0, 64, 67
1, 217121, Control_c, 0, 64, 69
1, 217136, Control_c, 0, 64, 71
1, 217151, Control_c, 0, 64, 73
1, 217165, Control_c, 0, 64, 75
1, 217180, Control_c, 0, 64, 77
1, 217195, Control_c, 0, 64, 80
1, 217210, Control_c, 0, 64, 82
1, 217225, Control_c, 0, 64, 85
1, 217240, Control_c, 0, 64, 87
1, 217254, Control_c, 0, 64, 90
1, 217269, Control_c, 0, 64, 94
1, 217284, Control_c, 0, 64, 100
1, 217298, Control_c, 0, 64, 107
1, 217313, Control_c, 0, 64, 125
1, 217328, Control_c, 0, 64, 127
1, 217383, Note_off_c, 0, 64, 37
1, 217386, Note_off_c, 0, 52, 40
1, 217413, Note_off_c, 0, 40, 39
1, 217524, Note_off_c, 0, 59, 42
1, 217541, Note_off_c, 0, 67, 60
1, 217744, Control_c, 0, 64, 97
1, 217759, Control_c, 0, 64, 83
1, 217774, Control_c, 0, 64, 75
1, 217788, Control_c, 0, 64, 69
1, 217803, Control_c, 0, 64, 63
1, 217818, Control_c, 0, 64, 50
1, 217833, Control_c, 0, 64, 0
1, 217929, Control_c, 0, 67, 8
1, 217943, Control_c, 0, 67, 20
1, 217958, Control_c, 0, 67, 27
1, 217973, Control_c, 0, 67, 32
1, 217988, Control_c, 0, 67, 36
1, 218003, Control_c, 0, 67, 44
1, 218018, Control_c, 0, 67, 52
1, 218033, Control_c, 0, 64, 19
1, 218033, Control_c, 0, 67, 61
1, 218047, Control_c, 0, 64, 52
1, 218047, Control_c, 0, 67, 69
1, 218062, Control_c, 0, 64, 61
1, 218062, Control_c, 0, 67, 74
1, 218077, Control_c, 0, 64, 64
1, 218077, Control_c, 0, 67, 77
1, 218092, Control_c, 0, 64, 67
1, 218092, Control_c, 0, 67, 79
1, 218107, Control_c, 0, 64, 70
1, 218107, Control_c, 0, 67, 84
1, 218121, Control_c, 0, 64, 74
1, 218121, Control_c, 0, 67, 88
1, 218136, Control_c, 0, 64, 79
1, 218136, Control_c, 0, 67, 93
1, 218151, Control_c, 0, 64, 86
1, 218151, Control_c, 0, 67, 100
1, 218166, Control_c, 0, 64, 95
1, 218166, Control_c, 0, 67, 105
1, 218181, Control_c, 0, 64, 103
1, 218181, Control_c, 0, 67, 111
1, 218195, Control_c, 0, 64, 111
1, 218195, Control_c, 0, 67, 116
1, 218210, Control_c, 0, 64, 125
1, 218210, Control_c, 0, 67, 122
1, 218225, Control_c, 0, 64, 127
1, 218225, Control_c, 0, 67, 126
1, 218240, Control_c, 0, 67, 127
1, 218345, Note_on_c, 0, 68, 44
1, 218361, Note_on_c, 0, 53, 34
1, 218364, Note_on_c, 0, 47, 33
1, 218368, Note_on_c, 0, 59, 24
1, 218369, Note_on_c, 0, 50, 34
1, 218370, Note_on_c, 0, 65, 32
1, 218374, Note_on_c, 0, 62, 31
1, 218378, Note_on_c, 0, 56, 27
1, 218414, Note_off_c, 0, 59, 48
1, 218415, Note_off_c, 0, 56, 50
1, 218417, Note_off_c, 0, 62, 48
1, 218423, Note_off_c, 0, 65, 45
1, 218426, Note_off_c, 0, 50, 41
1, 218428, Note_off_c, 0, 47, 43
1, 218441, Note_off_c, 0, 68, 37
1, 218450, Note_off_c, 0, 53, 37
1, 218495, Note_on_c, 0, 68, 48
1, 218521, Note_on_c, 0, 53, 27
1, 218526, Note_on_c, 0, 59, 40
1, 218526, Note_on_c, 0, 65, 39
1, 218529, Note_on_c, 0, 47, 38
1, 218529, Note_on_c, 0, 56, 33
1, 218533, Note_on_c, 0, 62, 42
1, 218538, Note_on_c, 0, 50, 37
1, 218552, Control_c, 0, 67, 127
1, 218566, Control_c, 0, 64, 119
1, 218566, Control_c, 0, 67, 126
1, 218581, Control_c, 0, 64, 102
1, 218599, Note_off_c, 0, 62, 0
1, 218599, Note_on_c, 0, 62, 15
1, 218604, Control_c, 0, 64, 92
1, 218604, Control_c, 0, 67, 125
1, 218618, Control_c, 0, 64, 83
1, 218633, Control_c, 0, 64, 75
1, 218633, Control_c, 0, 67, 124
1, 218648, Control_c, 0, 64, 66
1, 218648, Control_c, 0, 67, 124
1, 218663, Control_c, 0, 64, 25
1, 218677, Control_c, 0, 64, 0
1, 218677, Control_c, 0, 67, 123
1, 218692, Control_c, 0, 67, 123
1, 218707, Control_c, 0, 67, 122
1, 218722, Control_c, 0, 67, 122
1, 218751, Control_c, 0, 67, 121
1, 218766, Control_c, 0, 64, 29
1, 218781, Control_c, 0, 64, 56
1, 218781, Control_c, 0, 67, 120
1, 218796, Control_c, 0, 64, 62
1, 218796, Control_c, 0, 67, 120
1, 218811, Control_c, 0, 64, 63
1, 218811, Control_c, 0, 67, 117
1, 218826, Control_c, 0, 67, 115
1, 218841, Control_c, 0, 64, 64
1, 218841, Control_c, 0, 67, 113
1, 218856, Control_c, 0, 64, 65
1, 218856, Control_c, 0, 67, 111
1, 218870, Control_c, 0, 64, 67
1, 218870, Control_c, 0, 67, 108
1, 218885, Control_c, 0, 64, 69
1, 218885, Control_c, 0, 67, 106
1, 218900, Control_c, 0, 64, 70
1, 218900, Control_c, 0, 67, 103
1, 218915, Control_c, 0, 64, 71
1, 218915, Control_c, 0, 67, 99
1, 218930, Control_c, 0, 64, 72
1, 218930, Control_c, 0, 67, 95
1, 218944, Control_c, 0, 64, 72
1, 218944, Control_c, 0, 67, 91
1, 218959, Control_c, 0, 64, 73
1, 218959, Control_c, 0, 67, 88
1, 218974, Control_c, 0, 64, 74
1, 218974, Control_c, 0, 67, 84
1, 218989, Control_c, 0, 64, 75
1, 218989, Control_c, 0, 67, 81
1, 219004, Control_c, 0, 64, 76
1, 219004, Control_c, 0, 67, 78
1, 219018, Control_c, 0, 64, 77
1, 219018, Control_c, 0, 67, 75
1, 219033, Control_c, 0, 64, 78
1, 219033, Control_c, 0, 67, 73
1, 219048, Control_c, 0, 64, 79
1, 219048, Control_c, 0, 67, 71
1, 219063, Control_c, 0, 64, 80
1, 219063, Control_c, 0, 67, 69
1, 219077, Control_c, 0, 64, 81
1, 219077, Control_c, 0, 67, 67
1, 219092, Control_c, 0, 64, 82
1, 219092, Control_c, 0, 67, 66
1, 219107, Control_c, 0, 64, 83
1, 219107, Control_c, 0, 67, 65
1, 219122, Control_c, 0, 64, 85
1, 219122, Control_c, 0, 67, 63
1, 219137, Control_c, 0, 64, 88
1, 219137, Control_c, 0, 67, 62
1, 219151, Control_c, 0, 64, 91
1, 219151, Control_c, 0, 67, 61
1, 219166, Control_c, 0, 64, 95
1, 219166, Control_c, 0, 67, 60
1, 219181, Control_c, 0, 64, 99
1, 219181, Control_c, 0, 67, 58
1, 219195, Control_c, 0, 64, 107
1, 219195, Control_c, 0, 67, 57
1, 219210, Control_c, 0, 64, 119
1, 219210, Control_c, 0, 67, 56
1, 219227, Control_c, 0, 64, 127
1, 219227, Control_c, 0, 67, 55
1, 219241, Control_c, 0, 67, 55
1, 219256, Control_c, 0, 67, 54
1, 219271, Control_c, 0, 67, 52
1, 219286, Control_c, 0, 67, 51
1, 219300, Control_c, 0, 67, 49
1, 219315, Control_c, 0, 67, 48
1, 219330, Control_c, 0, 67, 46
1, 219353, Control_c, 0, 67, 44
1, 219367, Control_c, 0, 67, 42
1, 219382, Control_c, 0, 67, 40
1, 219397, Control_c, 0, 67, 38
1, 219412, Control_c, 0, 67, 36
1, 219427, Control_c, 0, 67, 34
1, 219431, Note_off_c, 0, 59, 40
1, 219441, Control_c, 0, 67, 31
1, 219456, Control_c, 0, 67, 29
1, 219471, Control_c, 0, 67, 27
1, 219486, Control_c, 0, 67, 25
1, 219500, Control_c, 0, 67, 22
1, 219515, Note_off_c, 0, 62, 42
1, 219515, Control_c, 0, 67, 19
1, 219530, Control_c, 0, 67, 17
1, 219534, Note_off_c, 0, 53, 42
1, 219537, Note_off_c, 0, 47, 39
1, 219544, Note_off_c, 0, 50, 37
1, 219545, Control_c, 0, 67, 15
1, 219553, Note_off_c, 0, 65, 38
1, 219560, Control_c, 0, 67, 13
1, 219574, Control_c, 0, 67, 12
1, 219589, Control_c, 0, 67, 10
1, 219595, Note_off_c, 0, 68, 41
1, 219604, Control_c, 0, 67, 9
1, 219619, Control_c, 0, 67, 9
1, 219625, Note_off_c, 0, 56, 41
1, 219634, Control_c, 0, 67, 8
1, 219693, Control_c, 0, 67, 0
1, 219989, Control_c, 0, 64, 113
1, 220002, Note_on_c, 0, 69, 65
1, 220004, Control_c, 0, 64, 71
1, 220020, Control_c, 0, 64, 51
1, 220021, Note_on_c, 0, 64, 57
1, 220024, Note_on_c, 0, 57, 40
1, 220026, Note_on_c, 0, 60, 42
1, 220028, Note_on_c, 0, 52, 44
1, 220035, Control_c, 0, 64, 0
1, 220040, Note_on_c, 0, 48, 42
1, 220049, Control_c, 0, 64, 23
1, 220064, Control_c, 0, 64, 48
1, 220079, Control_c, 0, 64, 57
1, 220102, Control_c, 0, 64, 64
1, 220106, Note_off_c, 0, 57, 61
1, 220117, Control_c, 0, 64, 69
1, 220131, Control_c, 0, 64, 78
1, 220134, Note_off_c, 0, 52, 60
1, 220146, Control_c, 0, 64, 88
1, 220149, Note_off_c, 0, 64, 37
1, 220152, Note_off_c, 0, 69, 66
1, 220161, Control_c, 0, 64, 101
1, 220170, Note_off_c, 0, 48, 61
1, 220176, Control_c, 0, 64, 127
1, 220271, Note_off_c, 0, 60, 33
1, 220434, Note_on_c, 0, 77, 82
1, 220467, Note_on_c, 0, 68, 42
1, 220474, Note_on_c, 0, 65, 48
1, 220491, Note_on_c, 0, 47, 46
1, 220495, Note_on_c, 0, 56, 34
1, 220505, Note_on_c, 0, 53, 40
1, 220546, Control_c, 0, 64, 113
1, 220561, Control_c, 0, 64, 94
1, 220576, Control_c, 0, 64, 78
1, 220590, Control_c, 0, 64, 68
1, 220605, Control_c, 0, 64, 57
1, 220620, Control_c, 0, 64, 0
1, 220865, Control_c, 0, 64, 39
1, 220879, Control_c, 0, 64, 51
1, 220894, Control_c, 0, 64, 56
1, 220909, Control_c, 0, 64, 59
1, 220924, Control_c, 0, 64, 61
1, 220939, Control_c, 0, 64, 62
1, 220968, Control_c, 0, 64, 62
1, 220983, Control_c, 0, 64, 63
1, 220998, Control_c, 0, 64, 65
1, 221013, Control_c, 0, 64, 66
1, 221027, Control_c, 0, 64, 68
1, 221042, Control_c, 0, 64, 70
1, 221057, Control_c, 0, 64, 74
1, 221071, Control_c, 0, 64, 76
1, 221086, Control_c, 0, 64, 78
1, 221101, Control_c, 0, 64, 81
1, 221116, Control_c, 0, 64, 86
1, 221131, Control_c, 0, 64, 91
1, 221145, Control_c, 0, 64, 95
1, 221160, Control_c, 0, 64, 101
1, 221175, Control_c, 0, 64, 110
1, 221190, Control_c, 0, 64, 127
1, 221318, Note_off_c, 0, 53, 41
1, 221383, Note_off_c, 0, 77, 34
1, 221418, Note_off_c, 0, 47, 54
1, 221519, Note_off_c, 0, 65, 40
1, 221559, Note_off_c, 0, 68, 54
1, 221701, Note_off_c, 0, 56, 41
1, 221911, Note_on_c, 0, 76, 63
1, 221923, Control_c, 0, 64, 83
1, 221938, Control_c, 0, 64, 66
1, 221944, Note_on_c, 0, 57, 33
1, 221944, Note_on_c, 0, 69, 38
1, 221946, Note_on_c, 0, 52, 37
1, 221953, Control_c, 0, 64, 48
1, 221956, Note_on_c, 0, 48, 33
1, 221962, Note_on_c, 0, 64, 34
1, 221968, Control_c, 0, 64, 8
1, 221968, Control_c, 0, 67, 10
1, 221983, Control_c, 0, 64, 29
1, 221983, Control_c, 0, 67, 17
1, 221998, Control_c, 0, 64, 44
1, 221998, Control_c, 0, 67, 25
1, 222012, Control_c, 0, 64, 55
1, 222012, Control_c, 0, 67, 33
1, 222027, Control_c, 0, 64, 62
1, 222027, Control_c, 0, 67, 41
1, 222030, Note_off_c, 0, 57, 49
1, 222042, Control_c, 0, 64, 67
1, 222042, Control_c, 0, 67, 51
1, 222057, Control_c, 0, 64, 73
1, 222057, Control_c, 0, 67, 60
1, 222060, Note_off_c, 0, 52, 60
1, 222072, Control_c, 0, 64, 80
1, 222072, Control_c, 0, 67, 70
1, 222086, Control_c, 0, 64, 87
1, 222086, Control_c, 0, 67, 81
1, 222094, Note_off_c, 0, 76, 40
1, 222101, Control_c, 0, 64, 95
1, 222101, Control_c, 0, 67, 93
1, 222104, Note_off_c, 0, 48, 56
1, 222116, Control_c, 0, 64, 111
1, 222116, Control_c, 0, 67, 105
1, 222131, Control_c, 0, 64, 127
1, 222131, Control_c, 0, 67, 117
1, 222146, Control_c, 0, 67, 127
1, 222164, Note_off_c, 0, 64, 42
1, 222451, Control_c, 0, 64, 113
1, 222457, Note_off_c, 0, 69, 32
1, 222466, Control_c, 0, 64, 101
1, 222477, Note_on_c, 0, 64, 52
1, 222477, Note_on_c, 0, 74, 48
1, 222480, Control_c, 0, 64, 92
1, 222495, Control_c, 0, 64, 81
1, 222504, Note_on_c, 0, 48, 35
1, 222510, Control_c, 0, 64, 68
1, 222513, Note_on_c, 0, 36, 29
1, 222525, Control_c, 0, 64, 51
1, 222540, Control_c, 0, 64, 0
1, 222629, Control_c, 0, 64, 32
1, 222643, Control_c, 0, 64, 59
1, 222658, Control_c, 0, 64, 65
1, 222673, Control_c, 0, 64, 67
1, 222688, Control_c, 0, 64, 69
1, 222695, Note_off_c, 0, 36, 40
1, 222695, Note_off_c, 0, 48, 34
1, 222703, Control_c, 0, 64, 71
1, 222717, Control_c, 0, 64, 74
1, 222732, Control_c, 0, 64, 77
1, 222747, Control_c, 0, 64, 78
1, 222762, Control_c, 0, 64, 79
1, 222764, Note_off_c, 0, 64, 31
1, 222777, Control_c, 0, 64, 80
1, 222791, Control_c, 0, 64, 81
1, 222806, Control_c, 0, 64, 82
1, 222821, Control_c, 0, 64, 83
1, 222835, Control_c, 0, 64, 85
1, 222878, Note_off_c, 0, 74, 59
1, 222880, Control_c, 0, 64, 83
1, 222895, Control_c, 0, 64, 75
1, 222909, Note_on_c, 0, 72, 49
1, 222910, Control_c, 0, 64, 66
1, 222922, Note_on_c, 0, 64, 42
1, 222925, Control_c, 0, 64, 57
1, 222939, Note_on_c, 0, 36, 30
1, 222939, Note_on_c, 0, 48, 31
1, 222939, Control_c, 0, 64, 54
1, 222954, Control_c, 0, 64, 59
1, 222969, Control_c, 0, 64, 63
1, 222984, Control_c, 0, 64, 66
1, 222999, Control_c, 0, 64, 69
1, 223007, Note_off_c, 0, 36, 41
1, 223014, Control_c, 0, 64, 73
1, 223029, Control_c, 0, 64, 76
1, 223035, Note_off_c, 0, 48, 32
1, 223040, Note_off_c, 0, 64, 58
1, 223043, Control_c, 0, 64, 77
1, 223058, Control_c, 0, 64, 77
1, 223073, Control_c, 0, 64, 78
1, 223095, Control_c, 0, 64, 78
1, 223124, Control_c, 0, 64, 79
1, 223153, Note_off_c, 0, 72, 58
1, 223154, Control_c, 0, 64, 78
1, 223169, Control_c, 0, 64, 71
1, 223180, Note_on_c, 0, 71, 54
1, 223184, Control_c, 0, 64, 64
1, 223191, Note_on_c, 0, 48, 36
1, 223196, Note_on_c, 0, 64, 40
1, 223198, Note_on_c, 0, 62, 41
1, 223199, Control_c, 0, 64, 52
1, 223206, Note_on_c, 0, 36, 33
1, 223214, Control_c, 0, 64, 47
1, 223229, Control_c, 0, 64, 56
1, 223244, Control_c, 0, 64, 62
1, 223258, Note_off_c, 0, 64, 59
1, 223259, Control_c, 0, 64, 66
1, 223262, Note_off_c, 0, 36, 44
1, 223273, Control_c, 0, 64, 71
1, 223288, Control_c, 0, 64, 75
1, 223298, Note_off_c, 0, 62, 36
1, 223303, Control_c, 0, 64, 79
1, 223312, Note_off_c, 0, 48, 31
1, 223318, Control_c, 0, 64, 80
1, 223333, Control_c, 0, 64, 81
1, 223348, Control_c, 0, 64, 82
1, 223363, Control_c, 0, 64, 81
1, 223378, Control_c, 0, 64, 77
1, 223393, Control_c, 0, 64, 67
1, 223397, Note_off_c, 0, 71, 55
1, 223401, Note_on_c, 0, 69, 56
1, 223407, Control_c, 0, 64, 53
1, 223409, Note_on_c, 0, 48, 33
1, 223416, Note_on_c, 0, 60, 47
1, 223419, Note_on_c, 0, 64, 41
1, 223422, Control_c, 0, 64, 0
1, 223428, Note_on_c, 0, 36, 28
1, 223452, Control_c, 0, 64, 49
1, 223466, Control_c, 0, 64, 62
1, 223477, Note_off_c, 0, 60, 53
1, 223481, Control_c, 0, 64, 68
1, 223483, Note_off_c, 0, 36, 45
1, 223496, Control_c, 0, 64, 77
1, 223511, Control_c, 0, 64, 89
1, 223525, Note_off_c, 0, 48, 35
1, 223526, Control_c, 0, 64, 92
1, 223547, Note_off_c, 0, 64, 43
1, 223555, Control_c, 0, 64, 84
1, 223570, Control_c, 0, 64, 71
1, 223584, Control_c, 0, 64, 61
1, 223599, Control_c, 0, 64, 53
1, 223606, Note_on_c, 0, 71, 59
1, 223614, Control_c, 0, 64, 58
1, 223616, Note_on_c, 0, 62, 52
1, 223617, Note_on_c, 0, 48, 38
1, 223619, Note_on_c, 0, 64, 28
1, 223629, Control_c, 0, 64, 63
1, 223639, Note_on_c, 0, 36, 29
1, 223644, Control_c, 0, 64, 66
1, 223658, Control_c, 0, 64, 71
1, 223673, Control_c, 0, 64, 76
1, 223680, Note_off_c, 0, 69, 37
1, 223688, Note_off_c, 0, 36, 45
1, 223688, Control_c, 0, 64, 77
1, 223707, Note_off_c, 0, 62, 35
1, 223707, Note_off_c, 0, 64, 38
1, 223722, Note_off_c, 0, 48, 37
1, 223807, Note_on_c, 0, 72, 62
1, 223813, Note_on_c, 0, 48, 37
1, 223814, Note_on_c, 0, 64, 54
1, 223843, Note_off_c, 0, 71, 60
1, 223849, Note_on_c, 0, 36, 29
1, 223878, Note_off_c, 0, 72, 63
1, 223899, Note_off_c, 0, 36, 45
1, 223913, Note_off_c, 0, 64, 38
1, 223944, Note_off_c, 0, 48, 35
1, 224023, Control_c, 0, 64, 75
1, 224037, Control_c, 0, 64, 68
1, 224048, Note_on_c, 0, 71, 64
1, 224052, Control_c, 0, 64, 55
1, 224067, Control_c, 0, 64, 0
1, 224069, Note_on_c, 0, 48, 34
1, 224072, Note_on_c, 0, 62, 52
1, 224072, Note_on_c, 0, 64, 46
1, 224096, Control_c, 0, 64, 17
1, 224109, Note_on_c, 0, 36, 12
1, 224111, Control_c, 0, 64, 50
1, 224126, Control_c, 0, 64, 61
1, 224141, Control_c, 0, 64, 66
1, 224156, Control_c, 0, 64, 73
1, 224159, Note_off_c, 0, 36, 49
1, 224168, Note_off_c, 0, 62, 59
1, 224171, Control_c, 0, 64, 83
1, 224176, Note_off_c, 0, 48, 35
1, 224185, Control_c, 0, 64, 84
1, 224200, Control_c, 0, 64, 83
1, 224215, Control_c, 0, 64, 75
1, 224219, Note_off_c, 0, 64, 34
1, 224230, Control_c, 0, 64, 65
1, 224245, Control_c, 0, 64, 53
1, 224260, Control_c, 0, 64, 49
1, 224265, Note_on_c, 0, 69, 66
1, 224275, Control_c, 0, 64, 56
1, 224277, Note_on_c, 0, 60, 57
1, 224284, Note_on_c, 0, 36, 41
1, 224287, Note_off_c, 0, 71, 62
1, 224289, Control_c, 0, 64, 62
1, 224290, Note_on_c, 0, 64, 42
1, 224293, Note_on_c, 0, 48, 26
1, 224304, Control_c, 0, 64, 66
1, 224319, Control_c, 0, 64, 70
1, 224328, Note_off_c, 0, 64, 53
1, 224329, Note_off_c, 0, 48, 49
1, 224334, Control_c, 0, 64, 74
1, 224349, Control_c, 0, 64, 76
1, 224361, Note_off_c, 0, 60, 53
1, 224363, Control_c, 0, 64, 77
1, 224378, Control_c, 0, 64, 78
1, 224393, Control_c, 0, 64, 78
1, 224407, Control_c, 0, 64, 79
1, 224437, Control_c, 0, 64, 77
1, 224451, Note_off_c, 0, 36, 41
1, 224452, Control_c, 0, 64, 68
1, 224467, Control_c, 0, 64, 51
1, 224475, Note_off_c, 0, 69, 65
1, 224475, Note_on_c, 0, 67, 61
1, 224479, Note_on_c, 0, 64, 53
1, 224481, Control_c, 0, 64, 0
1, 224484, Note_on_c, 0, 49, 46
1, 224486, Note_on_c, 0, 37, 48
1, 224490, Note_on_c, 0, 59, 49
1, 224526, Control_c, 0, 64, 46
1, 224537, Note_off_c, 0, 64, 63
1, 224541, Control_c, 0, 64, 61
1, 224555, Control_c, 0, 64, 67
1, 224570, Control_c, 0, 64, 73
1, 224570, Control_c, 0, 67, 124
1, 224593, Control_c, 0, 64, 81
1, 224593, Control_c, 0, 67, 120
1, 224597, Note_off_c, 0, 59, 59
1, 224608, Control_c, 0, 64, 86
1, 224608, Control_c, 0, 67, 117
1, 224622, Control_c, 0, 64, 90
1, 224622, Control_c, 0, 67, 114
1, 224637, Control_c, 0, 64, 91
1, 224637, Control_c, 0, 67, 110
1, 224652, Control_c, 0, 67, 107
1, 224663, Note_off_c, 0, 49, 60
1, 224667, Control_c, 0, 64, 86
1, 224667, Control_c, 0, 67, 103
1, 224682, Control_c, 0, 64, 71
1, 224682, Control_c, 0, 67, 100
1, 224688, Note_off_c, 0, 37, 50
1, 224696, Control_c, 0, 64, 46
1, 224696, Control_c, 0, 67, 97
1, 224710, Note_on_c, 0, 66, 70
1, 224711, Control_c, 0, 64, 0
1, 224711, Control_c, 0, 67, 94
1, 224719, Note_on_c, 0, 62, 56
1, 224726, Control_c, 0, 67, 90
1, 224728, Note_on_c, 0, 38, 49
1, 224732, Note_on_c, 0, 57, 50
1, 224741, Control_c, 0, 67, 86
1, 224743, Note_off_c, 0, 67, 60
1, 224745, Note_on_c, 0, 50, 37
1, 224756, Control_c, 0, 64, 43
1, 224756, Control_c, 0, 67, 81
1, 224770, Control_c, 0, 64, 62
1, 224770, Control_c, 0, 67, 76
1, 224785, Control_c, 0, 64, 68
1, 224785, Control_c, 0, 67, 71
1, 224800, Control_c, 0, 64, 74
1, 224800, Control_c, 0, 67, 67
1, 224816, Control_c, 0, 64, 80
1, 224816, Control_c, 0, 67, 64
1, 224831, Control_c, 0, 64, 87
1, 224831, Control_c, 0, 67, 62
1, 224832, Note_off_c, 0, 57, 37
1, 224845, Control_c, 0, 64, 92
1, 224845, Control_c, 0, 67, 60
1, 224849, Note_off_c, 0, 62, 56
1, 224860, Control_c, 0, 67, 57
1, 224867, Note_off_c, 0, 50, 35
1, 224875, Control_c, 0, 64, 88
1, 224875, Control_c, 0, 67, 54
1, 224878, Note_off_c, 0, 38, 35
1, 224890, Control_c, 0, 64, 72
1, 224890, Control_c, 0, 67, 51
1, 224905, Control_c, 0, 64, 58
1, 224905, Control_c, 0, 67, 48
1, 224919, Control_c, 0, 64, 0
1, 224919, Control_c, 0, 67, 45
1, 224920, Note_on_c, 0, 67, 74
1, 224934, Control_c, 0, 64, 23
1, 224934, Control_c, 0, 67, 42
1, 224941, Note_on_c, 0, 50, 44
1, 224941, Note_on_c, 0, 59, 52
1, 224946, Note_on_c, 0, 62, 53
1, 224948, Note_on_c, 0, 38, 40
1, 224949, Control_c, 0, 64, 53
1, 224949, Control_c, 0, 67, 39
1, 224964, Control_c, 0, 64, 64
1, 224964, Control_c, 0, 67, 34
1, 224978, Control_c, 0, 64, 70
1, 224978, Control_c, 0, 67, 30
1, 224993, Control_c, 0, 64, 81
1, 224993, Control_c, 0, 67, 26
1, 225008, Control_c, 0, 64, 88
1, 225008, Control_c, 0, 67, 23
1, 225014, Note_off_c, 0, 66, 38
1, 225023, Control_c, 0, 64, 93
1, 225023, Control_c, 0, 67, 19
1, 225038, Note_off_c, 0, 59, 46
1, 225038, Control_c, 0, 64, 99
1, 225038, Control_c, 0, 67, 17
1, 225053, Control_c, 0, 64, 107
1, 225053, Control_c, 0, 67, 14
1, 225056, Note_off_c, 0, 38, 35
1, 225067, Note_off_c, 0, 62, 50
1, 225068, Control_c, 0, 64, 121
1, 225068, Control_c, 0, 67, 11
1, 225071, Note_off_c, 0, 50, 35
1, 225083, Control_c, 0, 67, 8
1, 225098, Control_c, 0, 64, 118
1, 225098, Control_c, 0, 67, 0
1, 225112, Control_c, 0, 64, 93
1, 225127, Control_c, 0, 64, 72
1, 225142, Control_c, 0, 64, 54
1, 225143, Note_on_c, 0, 69, 74
1, 225150, Note_on_c, 0, 66, 62
1, 225153, Note_on_c, 0, 50, 40
1, 225153, Note_off_c, 0, 67, 57
1, 225156, Note_on_c, 0, 60, 57
1, 225157, Control_c, 0, 64, 0
1, 225170, Note_on_c, 0, 38, 43
1, 225172, Control_c, 0, 64, 23
1, 225186, Control_c, 0, 64, 53
1, 225201, Control_c, 0, 64, 63
1, 225215, Note_off_c, 0, 66, 62
1, 225216, Control_c, 0, 64, 69
1, 225229, Note_off_c, 0, 60, 55
1, 225230, Control_c, 0, 64, 77
1, 225245, Control_c, 0, 64, 87
1, 225255, Note_off_c, 0, 50, 50
1, 225260, Control_c, 0, 64, 98
1, 225275, Control_c, 0, 64, 110
1, 225284, Note_off_c, 0, 69, 61
1, 225290, Control_c, 0, 64, 121
1, 225292, Note_off_c, 0, 38, 35
1, 225304, Control_c, 0, 64, 127
1, 225506, Note_on_c, 0, 69, 73
1, 225524, Note_on_c, 0, 66, 59
1, 225536, Note_on_c, 0, 60, 39
1, 225545, Note_on_c, 0, 62, 48
1, 225548, Note_on_c, 0, 50, 36
1, 225552, Note_on_c, 0, 38, 41
1, 225563, Control_c, 0, 64, 125
1, 225578, Control_c, 0, 64, 106
1, 225587, Note_off_c, 0, 62, 0
1, 225587, Note_on_c, 0, 62, 14
1, 225592, Control_c, 0, 64, 97
1, 225608, Control_c, 0, 64, 90
1, 225623, Control_c, 0, 64, 85
1, 225638, Control_c, 0, 64, 79
1, 225653, Control_c, 0, 64, 74
1, 225667, Control_c, 0, 64, 69
1, 225682, Control_c, 0, 64, 65
1, 225697, Control_c, 0, 64, 61
1, 225712, Control_c, 0, 64, 52
1, 225727, Control_c, 0, 64, 36
1, 225742, Control_c, 0, 64, 0
1, 226298, Control_c, 0, 64, 33
1, 226313, Control_c, 0, 64, 60
1, 226328, Control_c, 0, 64, 65
1, 226342, Control_c, 0, 64, 70
1, 226357, Control_c, 0, 64, 81
1, 226372, Control_c, 0, 64, 127
1, 226669, Note_off_c, 0, 38, 39
1, 226683, Note_off_c, 0, 50, 36
1, 226769, Note_on_c, 0, 70, 63
1, 226803, Note_off_c, 0, 69, 61
1, 226815, Note_off_c, 0, 66, 61
1, 226853, Note_off_c, 0, 62, 41
1, 226856, Note_off_c, 0, 60, 37
1, 226883, Note_off_c, 0, 70, 56
1, 227192, Note_on_c, 0, 71, 56
1, 227209, Note_on_c, 0, 67, 52
1, 227221, Note_on_c, 0, 59, 31
1, 227223, Note_on_c, 0, 62, 40
1, 227239, Note_on_c, 0, 43, 37
1, 227248, Note_on_c, 0, 50, 31
1, 227255, Control_c, 0, 64, 102
1, 227270, Control_c, 0, 64, 88
1, 227280, Note_off_c, 0, 62, 0
1, 227280, Note_on_c, 0, 62, 3
1, 227285, Control_c, 0, 64, 79
1, 227300, Control_c, 0, 64, 72
1, 227314, Control_c, 0, 64, 65
1, 227329, Control_c, 0, 64, 58
1, 227344, Control_c, 0, 64, 40
1, 227359, Control_c, 0, 64, 0
1, 227736, Control_c, 0, 64, 23
1, 227751, Control_c, 0, 64, 42
1, 227766, Control_c, 0, 64, 49
1, 227780, Control_c, 0, 64, 55
1, 227795, Control_c, 0, 64, 60
1, 227810, Control_c, 0, 64, 64
1, 227825, Control_c, 0, 64, 67
1, 227840, Control_c, 0, 64, 71
1, 227855, Control_c, 0, 64, 78
1, 227870, Control_c, 0, 64, 86
1, 227885, Control_c, 0, 64, 97
1, 227900, Control_c, 0, 64, 127
1, 228004, Control_c, 0, 67, 13
1, 228019, Control_c, 0, 67, 19
1, 228034, Control_c, 0, 67, 21
1, 228049, Control_c, 0, 67, 23
1, 228063, Control_c, 0, 67, 24
1, 228078, Control_c, 0, 67, 27
1, 228086, Note_off_c, 0, 50, 37
1, 228093, Control_c, 0, 67, 30
1, 228108, Control_c, 0, 67, 36
1, 228123, Control_c, 0, 67, 42
1, 228129, Note_off_c, 0, 59, 42
1, 228137, Control_c, 0, 67, 46
1, 228152, Control_c, 0, 67, 50
1, 228167, Control_c, 0, 67, 54
1, 228171, Note_off_c, 0, 62, 42
1, 228181, Note_off_c, 0, 43, 39
1, 228181, Control_c, 0, 67, 58
1, 228196, Control_c, 0, 67, 63
1, 228211, Control_c, 0, 67, 69
1, 228226, Control_c, 0, 67, 75
1, 228239, Note_off_c, 0, 67, 37
1, 228241, Control_c, 0, 67, 81
1, 228255, Control_c, 0, 67, 87
1, 228264, Note_off_c, 0, 71, 36
1, 228270, Control_c, 0, 67, 92
1, 228285, Control_c, 0, 67, 97
1, 228300, Control_c, 0, 67, 102
1, 228315, Control_c, 0, 67, 106
1, 228337, Control_c, 0, 67, 111
1, 228352, Control_c, 0, 67, 117
1, 228367, Control_c, 0, 67, 122
1, 228381, Control_c, 0, 67, 127
1, 228618, Control_c, 0, 64, 95
1, 228633, Control_c, 0, 64, 75
1, 228648, Control_c, 0, 64, 64
1, 228663, Control_c, 0, 64, 35
1, 228678, Control_c, 0, 64, 0
1, 228842, Control_c, 0, 64, 49
1, 228857, Control_c, 0, 64, 62
1, 228871, Control_c, 0, 64, 64
1, 228886, Control_c, 0, 64, 66
1, 228901, Control_c, 0, 64, 71
1, 228916, Control_c, 0, 64, 80
1, 228931, Control_c, 0, 64, 91
1, 228946, Control_c, 0, 64, 99
1, 228960, Control_c, 0, 64, 111
1, 228975, Control_c, 0, 64, 127
1, 229378, Note_on_c, 0, 71, 32
1, 229390, Note_on_c, 0, 66, 32
1, 229391, Note_on_c, 0, 62, 34
1, 229399, Note_on_c, 0, 30, 31
1, 229402, Note_on_c, 0, 42, 27
1, 229935, Note_off_c, 0, 42, 29
1, 229938, Note_off_c, 0, 66, 38
1, 229939, Note_off_c, 0, 62, 33
1, 229960, Note_off_c, 0, 30, 32
1, 229968, Note_off_c, 0, 71, 35
1, 230324, Note_on_c, 0, 66, 35
1, 230327, Note_on_c, 0, 71, 41
1, 230333, Note_on_c, 0, 62, 36
1, 230361, Note_on_c, 0, 42, 24
1, 230362, Note_on_c, 0, 30, 25
1, 230413, Note_off_c, 0, 30, 47
1, 230425, Note_off_c, 0, 42, 41
1, 230428, Note_off_c, 0, 62, 36
1, 230433, Note_off_c, 0, 66, 36
1, 230484, Note_off_c, 0, 71, 32
1, 230528, Note_on_c, 0, 73, 42
1, 230550, Note_on_c, 0, 42, 20
1, 230559, Note_on_c, 0, 64, 33
1, 230559, Note_on_c, 0, 67, 33
1, 230564, Note_on_c, 0, 30, 25
1, 230583, Control_c, 0, 64, 98
1, 230591, Note_off_c, 0, 73, 0
1, 230591, Note_on_c, 0, 73, 13
1, 230598, Control_c, 0, 64, 84
1, 230613, Control_c, 0, 64, 73
1, 230628, Control_c, 0, 64, 64
1, 230643, Control_c, 0, 64, 49
1, 230657, Control_c, 0, 64, 0
1, 230791, Control_c, 0, 64, 47
1, 230806, Control_c, 0, 64, 61
1, 230821, Control_c, 0, 64, 64
1, 230836, Control_c, 0, 64, 65
1, 230850, Control_c, 0, 64, 67
1, 230865, Control_c, 0, 64, 69
1, 230880, Control_c, 0, 64, 72
1, 230895, Control_c, 0, 64, 75
1, 230910, Control_c, 0, 64, 79
1, 230924, Control_c, 0, 64, 83
1, 230939, Control_c, 0, 64, 88
1, 230954, Control_c, 0, 64, 94
1, 230969, Control_c, 0, 64, 101
1, 230983, Control_c, 0, 64, 113
1, 230998, Control_c, 0, 64, 127
1, 231093, Note_off_c, 0, 67, 42
1, 231113, Note_off_c, 0, 42, 26
1, 231149, Note_off_c, 0, 64, 38
1, 231173, Note_off_c, 0, 30, 25
1, 231584, Control_c, 0, 64, 110
1, 231597, Note_on_c, 0, 71, 48
1, 231599, Control_c, 0, 64, 99
1, 231614, Control_c, 0, 64, 91
1, 231619, Note_on_c, 0, 66, 42
1, 231629, Control_c, 0, 64, 83
1, 231632, Note_on_c, 0, 62, 38
1, 231640, Note_on_c, 0, 30, 29
1, 231644, Control_c, 0, 64, 76
1, 231647, Note_on_c, 0, 42, 23
1, 231657, Note_off_c, 0, 73, 40
1, 231659, Control_c, 0, 64, 69
1, 231673, Control_c, 0, 64, 62
1, 231688, Control_c, 0, 64, 31
1, 231703, Control_c, 0, 64, 0
1, 231792, Control_c, 0, 64, 12
1, 231806, Control_c, 0, 64, 59
1, 231821, Control_c, 0, 64, 67
1, 231836, Control_c, 0, 64, 73
1, 231851, Control_c, 0, 64, 80
1, 231866, Control_c, 0, 64, 89
1, 231880, Control_c, 0, 64, 101
1, 231895, Control_c, 0, 64, 127
1, 231970, Note_off_c, 0, 71, 26
1, 231981, Note_off_c, 0, 42, 33
1, 232009, Note_off_c, 0, 30, 33
1, 232040, Note_off_c, 0, 62, 34
1, 232046, Note_off_c, 0, 66, 41
1, 232491, Note_on_c, 0, 71, 39
1, 232508, Note_on_c, 0, 66, 42
1, 232510, Note_on_c, 0, 30, 25
1, 232520, Note_on_c, 0, 42, 17
1, 232529, Note_on_c, 0, 62, 26
1, 232569, Note_off_c, 0, 30, 42
1, 232569, Note_off_c, 0, 62, 44
1, 232576, Note_off_c, 0, 71, 55
1, 232581, Note_off_c, 0, 42, 42
1, 232586, Note_off_c, 0, 66, 49
1, 232689, Note_on_c, 0, 66, 23
1, 232696, Note_on_c, 0, 70, 50
1, 232718, Control_c, 0, 64, 104
1, 232726, Note_on_c, 0, 61, 41
1, 232733, Control_c, 0, 64, 94
1, 232747, Note_on_c, 0, 42, 14
1, 232747, Control_c, 0, 64, 87
1, 232751, Note_on_c, 0, 30, 23
1, 232762, Control_c, 0, 64, 80
1, 232777, Control_c, 0, 64, 74
1, 232793, Control_c, 0, 64, 67
1, 232808, Control_c, 0, 64, 59
1, 232809, Note_off_c, 0, 61, 0
1, 232809, Note_on_c, 0, 61, 3
1, 232830, Control_c, 0, 64, 36
1, 232846, Control_c, 0, 64, 0
1, 232994, Control_c, 0, 64, 37
1, 233009, Control_c, 0, 64, 56
1, 233024, Control_c, 0, 64, 61
1, 233039, Control_c, 0, 64, 63
1, 233053, Control_c, 0, 64, 64
1, 233068, Control_c, 0, 64, 66
1, 233083, Control_c, 0, 64, 68
1, 233098, Control_c, 0, 64, 72
1, 233113, Control_c, 0, 64, 75
1, 233127, Control_c, 0, 64, 77
1, 233142, Control_c, 0, 64, 79
1, 233157, Control_c, 0, 64, 82
1, 233171, Control_c, 0, 64, 85
1, 233186, Control_c, 0, 64, 89
1, 233201, Control_c, 0, 64, 94
1, 233216, Control_c, 0, 64, 98
1, 233231, Control_c, 0, 64, 103
1, 233245, Control_c, 0, 64, 107
1, 233260, Control_c, 0, 64, 114
1, 233275, Control_c, 0, 64, 127
1, 233423, Note_off_c, 0, 42, 26
1, 233432, Note_off_c, 0, 30, 32
1, 233441, Note_off_c, 0, 61, 38
1, 233498, Note_off_c, 0, 70, 37
1, 233598, Note_off_c, 0, 66, 40
1, 233904, Control_c, 0, 64, 125
1, 233908, Note_on_c, 0, 71, 45
1, 233918, Control_c, 0, 64, 91
1, 233933, Control_c, 0, 64, 73
1, 233937, Note_on_c, 0, 66, 43
1, 233940, Note_on_c, 0, 30, 24
1, 233945, Note_on_c, 0, 62, 34
1, 233948, Note_on_c, 0, 42, 21
1, 233948, Control_c, 0, 64, 62
1, 233963, Control_c, 0, 64, 40
1, 233978, Control_c, 0, 64, 39
1, 233993, Control_c, 0, 64, 50
1, 234008, Control_c, 0, 64, 58
1, 234022, Control_c, 0, 64, 63
1, 234037, Control_c, 0, 64, 66
1, 234052, Control_c, 0, 64, 70
1, 234067, Control_c, 0, 64, 75
1, 234073, Note_off_c, 0, 30, 43
1, 234082, Control_c, 0, 64, 80
1, 234093, Note_off_c, 0, 42, 36
1, 234097, Control_c, 0, 64, 85
1, 234099, Note_off_c, 0, 66, 0
1, 234102, Note_off_c, 0, 71, 51
1, 234112, Control_c, 0, 64, 87
1, 234126, Control_c, 0, 64, 89
1, 234130, Note_off_c, 0, 62, 39
1, 234141, Control_c, 0, 64, 90
1, 234147, Poly_aftertouch_c, 0, 66, 0
1, 234156, Control_c, 0, 64, 90
1, 234171, Control_c, 0, 64, 90
1, 234186, Control_c, 0, 64, 87
1, 234200, Control_c, 0, 64, 75
1, 234207, Note_on_c, 0, 73, 58
1, 234215, Control_c, 0, 64, 65
1, 234222, Note_on_c, 0, 62, 33
1, 234224, Note_on_c, 0, 66, 27
1, 234230, Control_c, 0, 64, 61
1, 234238, Note_on_c, 0, 42, 28
1, 234245, Note_on_c, 0, 30, 23
1, 234245, Control_c, 0, 64, 63
1, 234260, Control_c, 0, 64, 66
1, 234274, Control_c, 0, 64, 71
1, 234289, Control_c, 0, 64, 78
1, 234304, Control_c, 0, 64, 84
1, 234326, Control_c, 0, 64, 87
1, 234332, Note_off_c, 0, 42, 50
1, 234340, Note_off_c, 0, 30, 37
1, 234341, Control_c, 0, 64, 90
1, 234356, Control_c, 0, 64, 92
1, 234376, Note_off_c, 0, 73, 37
1, 234377, Note_off_c, 0, 62, 40
1, 234379, Note_off_c, 0, 66, 43
1, 234386, Control_c, 0, 64, 90
1, 234401, Control_c, 0, 64, 78
1, 234416, Control_c, 0, 64, 68
1, 234431, Control_c, 0, 64, 64
1, 234441, Note_on_c, 0, 71, 62
1, 234443, Note_on_c, 0, 66, 45
1, 234446, Control_c, 0, 64, 65
1, 234455, Note_on_c, 0, 62, 37
1, 234458, Note_on_c, 0, 42, 23
1, 234461, Control_c, 0, 64, 68
1, 234474, Note_on_c, 0, 30, 23
1, 234476, Control_c, 0, 64, 74
1, 234490, Control_c, 0, 64, 83
1, 234505, Control_c, 0, 64, 88
1, 234520, Control_c, 0, 64, 88
1, 234535, Control_c, 0, 64, 89
1, 234549, Control_c, 0, 64, 89
1, 234564, Control_c, 0, 64, 91
1, 234567, Note_off_c, 0, 30, 32
1, 234574, Note_off_c, 0, 66, 33
1, 234577, Note_off_c, 0, 62, 39
1, 234579, Control_c, 0, 64, 92
1, 234585, Note_off_c, 0, 42, 33
1, 234594, Control_c, 0, 64, 92
1, 234628, Note_off_c, 0, 71, 37
1, 234638, Control_c, 0, 64, 93
1, 234727, Control_c, 0, 64, 92
1, 234786, Control_c, 0, 64, 92
1, 234801, Control_c, 0, 64, 91
1, 234815, Control_c, 0, 64, 89
1, 234820, Note_on_c, 0, 74, 59
1, 234830, Control_c, 0, 64, 85
1, 234845, Control_c, 0, 64, 82
1, 234854, Note_on_c, 0, 67, 37
1, 234860, Control_c, 0, 64, 78
1, 234861, Note_on_c, 0, 64, 38
1, 234875, Control_c, 0, 64, 75
1, 234890, Control_c, 0, 64, 72
1, 234905, Control_c, 0, 64, 70
1, 234908, Note_on_c, 0, 42, 15
1, 234920, Control_c, 0, 64, 67
1, 234925, Note_on_c, 0, 30, 12
1, 234935, Control_c, 0, 64, 64
1, 234949, Control_c, 0, 64, 62
1, 234964, Control_c, 0, 64, 58
1, 234979, Control_c, 0, 64, 51
1, 234994, Control_c, 0, 64, 42
1, 235009, Control_c, 0, 64, 18
1, 235023, Control_c, 0, 64, 0
1, 235491, Control_c, 0, 64, 45
1, 235506, Control_c, 0, 64, 54
1, 235520, Control_c, 0, 64, 59
1, 235535, Control_c, 0, 64, 62
1, 235550, Control_c, 0, 64, 63
1, 235564, Control_c, 0, 64, 65
1, 235579, Control_c, 0, 64, 67
1, 235584, Note_off_c, 0, 74, 55
1, 235594, Control_c, 0, 64, 70
1, 235606, Note_on_c, 0, 73, 44
1, 235609, Control_c, 0, 64, 73
1, 235624, Control_c, 0, 64, 76
1, 235638, Control_c, 0, 64, 79
1, 235653, Control_c, 0, 64, 81
1, 235655, Note_off_c, 0, 67, 50
1, 235663, Note_off_c, 0, 42, 34
1, 235668, Control_c, 0, 64, 84
1, 235683, Control_c, 0, 64, 86
1, 235686, Note_off_c, 0, 30, 38
1, 235698, Control_c, 0, 64, 88
1, 235702, Note_off_c, 0, 64, 35
1, 235713, Control_c, 0, 64, 90
1, 235713, Note_off_c, 0, 73, 59
1, 235728, Control_c, 0, 64, 91
1, 235742, Control_c, 0, 64, 92
1, 235772, Control_c, 0, 64, 92
1, 235927, Control_c, 0, 64, 91
1, 235934, Note_on_c, 0, 73, 48
1, 235942, Control_c, 0, 64, 81
1, 235954, Note_on_c, 0, 66, 40
1, 235957, Control_c, 0, 64, 69
1, 235971, Control_c, 0, 64, 54
1, 235975, Note_on_c, 0, 62, 28
1, 235981, Note_on_c, 0, 42, 13
1, 235986, Control_c, 0, 64, 34
1, 235993, Note_on_c, 0, 30, 15
1, 236002, Control_c, 0, 64, 46
1, 236017, Control_c, 0, 64, 57
1, 236032, Control_c, 0, 64, 62
1, 236047, Control_c, 0, 64, 66
1, 236051, Note_off_c, 0, 30, 45
1, 236061, Control_c, 0, 64, 71
1, 236076, Control_c, 0, 64, 78
1, 236078, Note_off_c, 0, 42, 39
1, 236091, Control_c, 0, 64, 82
1, 236101, Note_off_c, 0, 62, 41
1, 236106, Control_c, 0, 64, 84
1, 236115, Note_off_c, 0, 73, 34
1, 236118, Note_off_c, 0, 66, 33
1, 236150, Control_c, 0, 64, 82
1, 236165, Control_c, 0, 64, 74
1, 236180, Control_c, 0, 64, 68
1, 236194, Note_on_c, 0, 71, 49
1, 236194, Control_c, 0, 64, 66
1, 236195, Note_on_c, 0, 66, 29
1, 236207, Note_on_c, 0, 62, 37
1, 236209, Control_c, 0, 64, 66
1, 236214, Note_on_c, 0, 42, 17
1, 236218, Note_on_c, 0, 30, 20
1, 236224, Control_c, 0, 64, 69
1, 236239, Control_c, 0, 64, 73
1, 236254, Control_c, 0, 64, 79
1, 236268, Control_c, 0, 64, 81
1, 236283, Control_c, 0, 64, 83
1, 236295, Note_off_c, 0, 30, 39
1, 236298, Control_c, 0, 64, 85
1, 236305, Note_off_c, 0, 71, 54
1, 236308, Note_off_c, 0, 42, 36
1, 236312, Control_c, 0, 64, 86
1, 236327, Note_off_c, 0, 66, 45
1, 236327, Control_c, 0, 64, 87
1, 236332, Note_off_c, 0, 62, 40
1, 236387, Control_c, 0, 64, 82
1, 236401, Control_c, 0, 64, 73
1, 236416, Control_c, 0, 64, 66
1, 236423, Note_on_c, 0, 73, 51
1, 236431, Control_c, 0, 64, 64
1, 236439, Note_on_c, 0, 66, 46
1, 236446, Control_c, 0, 64, 65
1, 236447, Note_on_c, 0, 42, 23
1, 236452, Note_on_c, 0, 30, 25
1, 236452, Note_on_c, 0, 62, 29
1, 236461, Control_c, 0, 64, 68
1, 236476, Control_c, 0, 64, 72
1, 236491, Control_c, 0, 64, 78
1, 236506, Control_c, 0, 64, 81
1, 236509, Note_off_c, 0, 62, 41
1, 236520, Control_c, 0, 64, 81
1, 236533, Note_off_c, 0, 73, 53
1, 236535, Control_c, 0, 64, 82
1, 236572, Note_off_c, 0, 30, 35
1, 236577, Note_off_c, 0, 66, 36
1, 236579, Note_off_c, 0, 42, 35
1, 236765, Control_c, 0, 64, 81
1, 236780, Control_c, 0, 64, 80
1, 236796, Control_c, 0, 64, 78
1, 236811, Control_c, 0, 64, 77
1, 236818, Note_on_c, 0, 71, 49
1, 236825, Control_c, 0, 64, 75
1, 236840, Control_c, 0, 64, 73
1, 236849, Note_on_c, 0, 66, 38
1, 236855, Control_c, 0, 64, 70
1, 236860, Note_on_c, 0, 61, 30
1, 236870, Control_c, 0, 64, 67
1, 236885, Control_c, 0, 64, 64
1, 236899, Control_c, 0, 64, 59
1, 236900, Note_on_c, 0, 42, 7
1, 236908, Note_on_c, 0, 30, 5
1, 236914, Control_c, 0, 64, 51
1, 236929, Control_c, 0, 64, 39
1, 236944, Control_c, 0, 64, 10
1, 236959, Control_c, 0, 64, 0
1, 237635, Note_off_c, 0, 71, 36
1, 237637, Note_on_c, 0, 70, 38
1, 237648, Control_c, 0, 64, 43
1, 237663, Control_c, 0, 64, 54
1, 237678, Control_c, 0, 64, 60
1, 237693, Control_c, 0, 64, 63
1, 237708, Control_c, 0, 64, 65
1, 237722, Control_c, 0, 64, 67
1, 237737, Control_c, 0, 64, 70
1, 237752, Control_c, 0, 64, 73
1, 237757, Note_off_c, 0, 30, 40
1, 237758, Note_off_c, 0, 42, 39
1, 237766, Control_c, 0, 64, 75
1, 237774, Note_off_c, 0, 61, 39
1, 237781, Control_c, 0, 64, 77
1, 237783, Note_off_c, 0, 66, 33
1, 237787, Note_off_c, 0, 70, 34
1, 237796, Control_c, 0, 64, 78
1, 237811, Control_c, 0, 64, 79
1, 237826, Control_c, 0, 64, 79
1, 237841, Control_c, 0, 64, 80
1, 237856, Control_c, 0, 64, 80
1, 237871, Control_c, 0, 64, 81
1, 237885, Control_c, 0, 64, 81
1, 237900, Control_c, 0, 64, 82
1, 237915, Control_c, 0, 64, 82
1, 237930, Control_c, 0, 64, 83
1, 237945, Control_c, 0, 64, 83
1, 237959, Control_c, 0, 64, 84
1, 237974, Control_c, 0, 64, 84
1, 237989, Control_c, 0, 64, 85
1, 238004, Control_c, 0, 64, 85
1, 238007, Note_on_c, 0, 70, 35
1, 238013, Note_on_c, 0, 66, 29
1, 238018, Note_on_c, 0, 61, 29
1, 238030, Note_on_c, 0, 30, 14
1, 238033, Control_c, 0, 64, 86
1, 238036, Note_on_c, 0, 42, 11
1, 238100, Note_off_c, 0, 70, 51
1, 238100, Control_c, 0, 64, 86
1, 238103, Note_off_c, 0, 66, 41
1, 238132, Note_off_c, 0, 30, 35
1, 238142, Note_off_c, 0, 42, 34
1, 238160, Control_c, 0, 64, 87
1, 238170, Note_off_c, 0, 61, 25
1, 238330, Note_on_c, 0, 70, 42
1, 238333, Note_on_c, 0, 73, 42
1, 238354, Note_on_c, 0, 61, 26
1, 238355, Note_on_c, 0, 42, 17
1, 238360, Note_on_c, 0, 30, 12
1, 238425, Note_off_c, 0, 30, 41
1, 238425, Note_off_c, 0, 42, 38
1, 238429, Note_off_c, 0, 61, 36
1, 238452, Note_off_c, 0, 73, 35
1, 238460, Note_off_c, 0, 70, 37
1, 238579, Note_on_c, 0, 73, 51
1, 238584, Note_on_c, 0, 70, 52
1, 238592, Note_on_c, 0, 61, 33
1, 238603, Note_on_c, 0, 42, 24
1, 238604, Note_on_c, 0, 30, 21
1, 238622, Note_off_c, 0, 61, 55
1, 238624, Note_off_c, 0, 70, 62
1, 238647, Note_off_c, 0, 73, 53
1, 238671, Note_off_c, 0, 30, 41
1, 238682, Note_off_c, 0, 42, 37
1, 238819, Control_c, 0, 64, 86
1, 238834, Control_c, 0, 64, 78
1, 238837, Note_on_c, 0, 73, 58
1, 238849, Control_c, 0, 64, 65
1, 238852, Note_on_c, 0, 71, 46
1, 238854, Note_on_c, 0, 68, 44
1, 238863, Control_c, 0, 64, 51
1, 238866, Note_on_c, 0, 42, 26
1, 238868, Note_on_c, 0, 30, 29
1, 238878, Control_c, 0, 64, 36
1, 238893, Control_c, 0, 64, 48
1, 238908, Control_c, 0, 64, 57
1, 238923, Control_c, 0, 64, 62
1, 238938, Control_c, 0, 64, 66
1, 238953, Control_c, 0, 64, 71
1, 238968, Control_c, 0, 64, 79
1, 238968, Note_off_c, 0, 42, 38
1, 238974, Note_off_c, 0, 68, 37
1, 238977, Note_off_c, 0, 30, 35
1, 238982, Control_c, 0, 64, 85
1, 238984, Note_off_c, 0, 71, 31
1, 238997, Control_c, 0, 64, 87
1, 239024, Note_off_c, 0, 73, 35
1, 239027, Control_c, 0, 64, 86
1, 239042, Control_c, 0, 64, 78
1, 239057, Control_c, 0, 64, 69
1, 239071, Control_c, 0, 64, 62
1, 239078, Note_on_c, 0, 75, 61
1, 239086, Control_c, 0, 64, 60
1, 239093, Note_on_c, 0, 30, 31
1, 239094, Note_on_c, 0, 68, 50
1, 239096, Note_on_c, 0, 71, 36
1, 239101, Control_c, 0, 64, 62
1, 239107, Note_on_c, 0, 42, 26
1, 239115, Control_c, 0, 64, 64
1, 239130, Control_c, 0, 64, 68
1, 239145, Control_c, 0, 64, 71
1, 239145, Control_c, 0, 67, 126
1, 239160, Control_c, 0, 64, 74
1, 239160, Control_c, 0, 67, 124
1, 239175, Control_c, 0, 64, 76
1, 239175, Control_c, 0, 67, 121
1, 239191, Control_c, 0, 64, 76
1, 239191, Control_c, 0, 67, 119
1, 239192, Note_off_c, 0, 75, 62
1, 239206, Control_c, 0, 64, 77
1, 239206, Control_c, 0, 67, 117
1, 239206, Note_off_c, 0, 42, 37
1, 239212, Note_off_c, 0, 30, 36
1, 239217, Note_off_c, 0, 68, 33
1, 239218, Note_off_c, 0, 71, 35
1, 239220, Control_c, 0, 64, 77
1, 239220, Control_c, 0, 67, 115
1, 239235, Control_c, 0, 64, 78
1, 239235, Control_c, 0, 67, 114
1, 239250, Control_c, 0, 64, 79
1, 239250, Control_c, 0, 67, 113
1, 239265, Control_c, 0, 67, 112
1, 239280, Control_c, 0, 67, 111
1, 239294, Control_c, 0, 64, 73
1, 239294, Control_c, 0, 67, 110
1, 239309, Control_c, 0, 64, 64
1, 239309, Control_c, 0, 67, 109
1, 239317, Note_on_c, 0, 77, 72
1, 239324, Control_c, 0, 64, 37
1, 239324, Control_c, 0, 67, 108
1, 239337, Note_on_c, 0, 71, 56
1, 239338, Control_c, 0, 64, 19
1, 239338, Control_c, 0, 67, 107
1, 239340, Note_on_c, 0, 30, 35
1, 239340, Note_on_c, 0, 42, 31
1, 239344, Note_on_c, 0, 68, 43
1, 239353, Control_c, 0, 64, 42
1, 239353, Control_c, 0, 67, 106
1, 239368, Control_c, 0, 64, 57
1, 239368, Control_c, 0, 67, 104
1, 239383, Control_c, 0, 64, 65
1, 239383, Control_c, 0, 67, 103
1, 239398, Control_c, 0, 64, 72
1, 239398, Control_c, 0, 67, 102
1, 239412, Control_c, 0, 64, 82
1, 239427, Control_c, 0, 64, 85
1, 239431, Note_off_c, 0, 77, 54
1, 239442, Control_c, 0, 64, 86
1, 239442, Control_c, 0, 67, 102
1, 239444, Note_off_c, 0, 42, 39
1, 239453, Note_off_c, 0, 30, 33
1, 239457, Control_c, 0, 64, 89
1, 239457, Control_c, 0, 67, 103
1, 239458, Note_off_c, 0, 71, 47
1, 239472, Control_c, 0, 64, 91
1, 239477, Note_off_c, 0, 68, 44
1, 239486, Control_c, 0, 64, 92
1, 239486, Control_c, 0, 67, 103
1, 239501, Control_c, 0, 64, 92
1, 239501, Control_c, 0, 67, 104
1, 239516, Control_c, 0, 67, 104
1, 239531, Control_c, 0, 67, 105
1, 239568, Control_c, 0, 67, 106
1, 239584, Control_c, 0, 64, 91
1, 239584, Control_c, 0, 67, 107
1, 239599, Control_c, 0, 64, 79
1, 239606, Note_on_c, 0, 77, 69
1, 239613, Control_c, 0, 64, 63
1, 239613, Control_c, 0, 67, 107
1, 239625, Note_on_c, 0, 71, 48
1, 239628, Note_on_c, 0, 68, 44
1, 239628, Control_c, 0, 64, 20
1, 239628, Control_c, 0, 67, 108
1, 239643, Control_c, 0, 64, 0
1, 239652, Note_on_c, 0, 30, 28
1, 239658, Control_c, 0, 67, 108
1, 239662, Note_on_c, 0, 42, 18
1, 239672, Control_c, 0, 64, 48
1, 239672, Control_c, 0, 67, 109
1, 239687, Control_c, 0, 64, 62
1, 239687, Control_c, 0, 67, 110
1, 239702, Control_c, 0, 64, 70
1, 239702, Control_c, 0, 67, 111
1, 239714, Note_off_c, 0, 77, 60
1, 239715, Note_off_c, 0, 71, 60
1, 239717, Control_c, 0, 64, 80
1, 239717, Control_c, 0, 67, 112
1, 239732, Control_c, 0, 64, 88
1, 239732, Control_c, 0, 67, 113
1, 239746, Control_c, 0, 64, 91
1, 239746, Control_c, 0, 67, 114
1, 239761, Note_off_c, 0, 68, 59
1, 239761, Control_c, 0, 64, 95
1, 239761, Control_c, 0, 67, 115
1, 239776, Control_c, 0, 64, 97
1, 239776, Control_c, 0, 67, 115
1, 239778, Note_off_c, 0, 30, 32
1, 239779, Note_off_c, 0, 42, 34
1, 239806, Control_c, 0, 67, 116
1, 239820, Control_c, 0, 67, 116
1, 239835, Control_c, 0, 67, 118
1, 239850, Control_c, 0, 67, 120
1, 239865, Control_c, 0, 67, 124
1, 239880, Control_c, 0, 64, 93
1, 239880, Control_c, 0, 67, 126
1, 239895, Control_c, 0, 64, 76
1, 239895, Control_c, 0, 67, 127
1, 239898, Note_on_c, 0, 78, 54
1, 239910, Control_c, 0, 64, 63
1, 239915, Note_on_c, 0, 66, 42
1, 239918, Note_on_c, 0, 70, 47
1, 239923, Note_on_c, 0, 42, 23
1, 239925, Control_c, 0, 64, 0
1, 239927, Note_on_c, 0, 30, 29
1, 239969, Control_c, 0, 64, 45
1, 239984, Control_c, 0, 64, 62
1, 239999, Control_c, 0, 64, 68
1, 240014, Control_c, 0, 64, 75
1, 240029, Control_c, 0, 64, 81
1, 240030, Note_off_c, 0, 42, 38
1, 240035, Note_off_c, 0, 78, 51
1, 240037, Note_off_c, 0, 30, 36
1, 240044, Control_c, 0, 64, 84
1, 240047, Note_off_c, 0, 70, 36
1, 240055, Note_off_c, 0, 66, 40
1, 240059, Control_c, 0, 64, 87
1, 240074, Control_c, 0, 64, 88
1, 240089, Control_c, 0, 64, 88
1, 240118, Control_c, 0, 64, 88
1, 240133, Control_c, 0, 64, 86
1, 240148, Control_c, 0, 64, 75
1, 240157, Note_on_c, 0, 78, 53
1, 240162, Control_c, 0, 64, 63
1, 240169, Note_on_c, 0, 70, 47
1, 240177, Control_c, 0, 64, 0
1, 240178, Note_on_c, 0, 42, 24
1, 240181, Note_on_c, 0, 66, 35
1, 240185, Note_on_c, 0, 30, 25
1, 240207, Control_c, 0, 64, 24
1, 240222, Control_c, 0, 64, 54
1, 240236, Control_c, 0, 64, 64
1, 240251, Control_c, 0, 64, 68
1, 240266, Control_c, 0, 64, 73
1, 240276, Note_off_c, 0, 66, 34
1, 240281, Control_c, 0, 64, 77
1, 240288, Note_off_c, 0, 70, 34
1, 240295, Control_c, 0, 64, 79
1, 240297, Note_off_c, 0, 42, 37
1, 240297, Note_off_c, 0, 30, 35
1, 240300, Note_off_c, 0, 78, 38
1, 240318, Control_c, 0, 64, 81
1, 240332, Control_c, 0, 64, 81
1, 240347, Control_c, 0, 64, 82
1, 240524, Note_on_c, 0, 78, 44
1, 240524, Control_c, 0, 64, 81
1, 240539, Control_c, 0, 64, 80
1, 240542, Note_on_c, 0, 70, 36
1, 240554, Control_c, 0, 64, 78
1, 240556, Note_on_c, 0, 42, 15
1, 240559, Note_on_c, 0, 66, 29
1, 240569, Control_c, 0, 64, 74
1, 240572, Note_on_c, 0, 30, 20
1, 240583, Control_c, 0, 64, 71
1, 240598, Control_c, 0, 64, 65
1, 240613, Control_c, 0, 64, 57
1, 240628, Control_c, 0, 64, 0
1, 240732, Control_c, 0, 64, 46
1, 240747, Control_c, 0, 64, 63
1, 240761, Control_c, 0, 64, 68
1, 240776, Control_c, 0, 64, 71
1, 240792, Control_c, 0, 64, 74
1, 240807, Control_c, 0, 64, 78
1, 240822, Control_c, 0, 64, 83
1, 240837, Control_c, 0, 64, 88
1, 240851, Control_c, 0, 64, 94
1, 240858, Note_off_c, 0, 66, 44
1, 240866, Control_c, 0, 64, 98
1, 240881, Control_c, 0, 64, 101
1, 240896, Control_c, 0, 64, 103
1, 240899, Note_off_c, 0, 78, 52
1, 240910, Control_c, 0, 64, 105
1, 240925, Control_c, 0, 64, 105
1, 240940, Control_c, 0, 64, 106
1, 240955, Control_c, 0, 64, 106
1, 240962, Note_off_c, 0, 70, 37
1, 240970, Control_c, 0, 64, 107
1, 240984, Control_c, 0, 64, 107
1, 241014, Control_c, 0, 64, 108
1, 241034, Note_off_c, 0, 42, 36
1, 241046, Note_off_c, 0, 30, 30
1, 241904, Control_c, 0, 64, 107
1, 241933, Control_c, 0, 64, 107
1, 241948, Control_c, 0, 64, 105
1, 241963, Control_c, 0, 64, 103
1, 241978, Control_c, 0, 64, 99
1, 241988, Note_on_c, 0, 71, 41
1, 241993, Control_c, 0, 64, 95
1, 242002, Note_on_c, 0, 63, 26
1, 242003, Note_on_c, 0, 66, 36
1, 242008, Control_c, 0, 64, 92
1, 242022, Control_c, 0, 64, 88
1, 242037, Control_c, 0, 64, 84
1, 242052, Control_c, 0, 64, 79
1, 242053, Note_on_c, 0, 42, 14
1, 242066, Control_c, 0, 64, 75
1, 242072, Poly_aftertouch_c, 0, 30, 127
1, 242074, Note_on_c, 0, 30, 3
1, 242081, Control_c, 0, 64, 71
1, 242096, Control_c, 0, 64, 67
1, 242111, Control_c, 0, 64, 64
1, 242126, Control_c, 0, 64, 60
1, 242140, Control_c, 0, 64, 53
1, 242155, Control_c, 0, 64, 43
1, 242170, Control_c, 0, 64, 0
1, 242318, Control_c, 0, 64, 53
1, 242333, Control_c, 0, 64, 61
1, 242348, Control_c, 0, 64, 64
1, 242363, Control_c, 0, 64, 65
1, 242378, Control_c, 0, 64, 68
1, 242393, Control_c, 0, 64, 71
1, 242408, Control_c, 0, 64, 75
1, 242423, Control_c, 0, 64, 79
1, 242438, Control_c, 0, 64, 81
1, 242452, Control_c, 0, 64, 83
1, 242467, Control_c, 0, 64, 86
1, 242482, Control_c, 0, 64, 91
1, 242497, Control_c, 0, 64, 97
1, 242512, Control_c, 0, 64, 104
1, 242527, Control_c, 0, 64, 115
1, 242542, Control_c, 0, 64, 127
1, 242581, Note_off_c, 0, 30, 26
1, 242587, Note_off_c, 0, 42, 28
1, 242604, Note_off_c, 0, 63, 34
1, 242612, Note_off_c, 0, 66, 41
1, 242615, Note_off_c, 0, 71, 30
1, 242879, Note_on_c, 0, 66, 41
1, 242881, Note_on_c, 0, 71, 36
1, 242882, Note_on_c, 0, 63, 36
1, 242903, Note_on_c, 0, 42, 22
1, 242905, Note_on_c, 0, 30, 27
1, 242969, Note_off_c, 0, 30, 42
1, 242981, Note_off_c, 0, 42, 39
1, 242999, Note_off_c, 0, 63, 40
1, 243025, Note_off_c, 0, 71, 32
1, 243027, Note_off_c, 0, 66, 29
1, 243052, Control_c, 0, 64, 110
1, 243067, Control_c, 0, 64, 97
1, 243081, Control_c, 0, 64, 87
1, 243084, Note_on_c, 0, 73, 49
1, 243096, Control_c, 0, 64, 80
1, 243099, Note_on_c, 0, 64, 39
1, 243101, Note_on_c, 0, 68, 44
1, 243111, Control_c, 0, 64, 73
1, 243126, Control_c, 0, 64, 66
1, 243135, Note_on_c, 0, 42, 17
1, 243141, Control_c, 0, 64, 60
1, 243143, Note_on_c, 0, 30, 15
1, 243156, Control_c, 0, 64, 51
1, 243171, Control_c, 0, 64, 43
1, 243186, Control_c, 0, 64, 36
1, 243201, Control_c, 0, 64, 20
1, 243216, Control_c, 0, 64, 0
1, 243432, Control_c, 0, 64, 47
1, 243447, Control_c, 0, 64, 59
1, 243461, Control_c, 0, 64, 62
1, 243476, Control_c, 0, 64, 62
1, 243491, Control_c, 0, 64, 63
1, 243505, Control_c, 0, 64, 64
1, 243520, Control_c, 0, 64, 67
1, 243535, Control_c, 0, 64, 69
1, 243550, Control_c, 0, 64, 72
1, 243565, Control_c, 0, 64, 75
1, 243579, Control_c, 0, 64, 77
1, 243594, Control_c, 0, 64, 80
1, 243609, Control_c, 0, 64, 83
1, 243624, Control_c, 0, 64, 87
1, 243639, Control_c, 0, 64, 89
1, 243648, Note_off_c, 0, 73, 51
1, 243654, Control_c, 0, 64, 91
1, 243669, Note_off_c, 0, 64, 41
1, 243669, Control_c, 0, 64, 93
1, 243684, Control_c, 0, 64, 96
1, 243698, Control_c, 0, 64, 99
1, 243713, Control_c, 0, 64, 102
1, 243728, Control_c, 0, 64, 105
1, 243736, Note_off_c, 0, 30, 29
1, 243740, Note_off_c, 0, 42, 26
1, 243743, Control_c, 0, 64, 107
1, 243758, Control_c, 0, 64, 109
1, 243773, Control_c, 0, 64, 110
1, 243787, Control_c, 0, 64, 112
1, 243802, Control_c, 0, 64, 114
1, 243810, Note_off_c, 0, 68, 35
1, 243817, Control_c, 0, 64, 115
1, 243846, Control_c, 0, 64, 116
1, 243996, Control_c, 0, 64, 115
1, 244025, Control_c, 0, 64, 113
1, 244040, Control_c, 0, 64, 107
1, 244062, Control_c, 0, 64, 102
1, 244077, Control_c, 0, 64, 96
1, 244091, Control_c, 0, 64, 90
1, 244098, Note_on_c, 0, 71, 46
1, 244106, Control_c, 0, 64, 83
1, 244110, Note_on_c, 0, 63, 39
1, 244110, Note_on_c, 0, 66, 42
1, 244121, Control_c, 0, 64, 77
1, 244128, Note_on_c, 0, 30, 24
1, 244135, Control_c, 0, 64, 70
1, 244140, Note_on_c, 0, 42, 24
1, 244150, Control_c, 0, 64, 61
1, 244165, Control_c, 0, 64, 0
1, 244268, Control_c, 0, 64, 27
1, 244283, Control_c, 0, 64, 60
1, 244298, Control_c, 0, 64, 67
1, 244313, Control_c, 0, 64, 72
1, 244327, Control_c, 0, 64, 78
1, 244342, Control_c, 0, 64, 85
1, 244357, Control_c, 0, 64, 92
1, 244372, Control_c, 0, 64, 100
1, 244387, Control_c, 0, 64, 113
1, 244402, Control_c, 0, 64, 127
1, 244482, Note_off_c, 0, 71, 34
1, 244483, Note_off_c, 0, 42, 24
1, 244533, Note_off_c, 0, 63, 36
1, 244539, Note_off_c, 0, 30, 24
1, 244550, Note_off_c, 0, 66, 42
1, 244885, Note_on_c, 0, 71, 46
1, 244891, Note_on_c, 0, 66, 45
1, 244897, Note_on_c, 0, 63, 40
1, 244901, Note_on_c, 0, 30, 33
1, 244915, Note_on_c, 0, 42, 29
1, 244951, Note_off_c, 0, 66, 53
1, 244962, Note_off_c, 0, 63, 40
1, 244963, Note_off_c, 0, 30, 42
1, 244965, Note_off_c, 0, 42, 45
1, 244995, Note_off_c, 0, 71, 35
1, 245085, Note_on_c, 0, 70, 47
1, 245092, Note_on_c, 0, 66, 37
1, 245112, Note_on_c, 0, 61, 42
1, 245114, Note_on_c, 0, 42, 32
1, 245119, Note_on_c, 0, 30, 36
1, 245150, Control_c, 0, 64, 105
1, 245165, Control_c, 0, 64, 95
1, 245180, Control_c, 0, 64, 86
1, 245195, Control_c, 0, 64, 79
1, 245210, Control_c, 0, 64, 72
1, 245225, Control_c, 0, 64, 65
1, 245240, Control_c, 0, 64, 49
1, 245255, Control_c, 0, 64, 0
1, 245403, Control_c, 0, 64, 20
1, 245418, Control_c, 0, 64, 44
1, 245432, Control_c, 0, 64, 57
1, 245447, Control_c, 0, 64, 62
1, 245462, Control_c, 0, 64, 64
1, 245476, Control_c, 0, 64, 66
1, 245491, Control_c, 0, 64, 68
1, 245506, Control_c, 0, 64, 71
1, 245521, Control_c, 0, 64, 74
1, 245536, Control_c, 0, 64, 77
1, 245558, Control_c, 0, 64, 79
1, 245573, Control_c, 0, 64, 81
1, 245588, Control_c, 0, 64, 82
1, 245603, Control_c, 0, 64, 84
1, 245618, Control_c, 0, 64, 86
1, 245633, Control_c, 0, 64, 88
1, 245648, Control_c, 0, 64, 90
1, 245663, Control_c, 0, 64, 92
1, 245669, Note_off_c, 0, 61, 33
1, 245678, Control_c, 0, 64, 93
1, 245693, Control_c, 0, 64, 94
1, 245707, Control_c, 0, 64, 95
1, 245722, Control_c, 0, 64, 96
1, 245737, Control_c, 0, 64, 97
1, 245752, Control_c, 0, 64, 97
1, 245767, Control_c, 0, 64, 98
1, 245838, Note_off_c, 0, 70, 38
1, 245863, Note_off_c, 0, 42, 32
1, 245889, Note_off_c, 0, 30, 34
1, 245890, Note_off_c, 0, 66, 31
1, 246152, Control_c, 0, 64, 97
1, 246167, Control_c, 0, 64, 95
1, 246181, Control_c, 0, 64, 91
1, 246196, Control_c, 0, 64, 81
1, 246203, Note_on_c, 0, 71, 43
1, 246211, Control_c, 0, 64, 71
1, 246225, Control_c, 0, 64, 61
1, 246229, Note_on_c, 0, 66, 39
1, 246240, Control_c, 0, 64, 20
1, 246246, Note_on_c, 0, 63, 29
1, 246253, Note_on_c, 0, 30, 16
1, 246255, Control_c, 0, 64, 0
1, 246256, Note_on_c, 0, 42, 18
1, 246307, Control_c, 0, 64, 41
1, 246321, Control_c, 0, 64, 56
1, 246336, Control_c, 0, 64, 63
1, 246351, Control_c, 0, 64, 67
1, 246366, Control_c, 0, 64, 70
1, 246381, Control_c, 0, 64, 73
1, 246394, Note_off_c, 0, 30, 43
1, 246396, Control_c, 0, 64, 77
1, 246402, Note_off_c, 0, 42, 38
1, 246407, Note_off_c, 0, 63, 42
1, 246411, Control_c, 0, 64, 80
1, 246413, Note_off_c, 0, 66, 36
1, 246426, Control_c, 0, 64, 82
1, 246433, Note_off_c, 0, 71, 36
1, 246456, Control_c, 0, 64, 81
1, 246471, Control_c, 0, 64, 73
1, 246485, Control_c, 0, 64, 64
1, 246500, Control_c, 0, 64, 55
1, 246515, Control_c, 0, 64, 58
1, 246519, Note_on_c, 0, 70, 56
1, 246529, Control_c, 0, 64, 62
1, 246531, Note_on_c, 0, 66, 53
1, 246537, Note_on_c, 0, 63, 40
1, 246539, Note_on_c, 0, 30, 32
1, 246544, Control_c, 0, 64, 64
1, 246545, Note_on_c, 0, 42, 37
1, 246559, Control_c, 0, 64, 68
1, 246574, Control_c, 0, 64, 75
1, 246589, Control_c, 0, 64, 81
1, 246603, Control_c, 0, 64, 84
1, 246618, Control_c, 0, 64, 88
1, 246633, Control_c, 0, 64, 94
1, 246638, Note_off_c, 0, 42, 46
1, 246648, Control_c, 0, 64, 98
1, 246655, Note_off_c, 0, 30, 32
1, 246656, Note_off_c, 0, 63, 44
1, 246662, Control_c, 0, 64, 98
1, 246677, Control_c, 0, 64, 95
1, 246683, Note_off_c, 0, 66, 35
1, 246692, Control_c, 0, 64, 80
1, 246707, Control_c, 0, 64, 67
1, 246721, Control_c, 0, 64, 58
1, 246742, Note_off_c, 0, 70, 27
1, 246748, Note_on_c, 0, 71, 64
1, 246750, Note_on_c, 0, 66, 45
1, 246751, Control_c, 0, 64, 62
1, 246756, Note_on_c, 0, 30, 34
1, 246763, Note_on_c, 0, 42, 27
1, 246766, Control_c, 0, 64, 65
1, 246769, Note_on_c, 0, 63, 38
1, 246781, Control_c, 0, 64, 71
1, 246796, Control_c, 0, 64, 79
1, 246811, Note_off_c, 0, 66, 54
1, 246811, Control_c, 0, 64, 86
1, 246825, Control_c, 0, 64, 88
1, 246840, Control_c, 0, 64, 91
1, 246855, Control_c, 0, 64, 93
1, 246870, Control_c, 0, 64, 94
1, 246900, Note_off_c, 0, 42, 35
1, 246909, Note_off_c, 0, 30, 38
1, 246909, Note_off_c, 0, 71, 48
1, 246915, Control_c, 0, 64, 94
1, 246939, Note_off_c, 0, 63, 41
1, 247070, Control_c, 0, 64, 94
1, 247100, Control_c, 0, 64, 92
1, 247115, Control_c, 0, 64, 91
1, 247129, Control_c, 0, 64, 89
1, 247130, Note_on_c, 0, 75, 61
1, 247144, Control_c, 0, 64, 85
1, 247159, Control_c, 0, 64, 82
1, 247164, Note_on_c, 0, 68, 43
1, 247174, Control_c, 0, 64, 80
1, 247177, Note_on_c, 0, 64, 34
1, 247189, Control_c, 0, 64, 78
1, 247195, Note_on_c, 0, 42, 25
1, 247198, Note_on_c, 0, 30, 26
1, 247204, Control_c, 0, 64, 76
1, 247219, Control_c, 0, 64, 74
1, 247234, Control_c, 0, 64, 71
1, 247249, Control_c, 0, 64, 67
1, 247264, Control_c, 0, 64, 65
1, 247278, Control_c, 0, 64, 63
1, 247293, Control_c, 0, 64, 60
1, 247308, Control_c, 0, 64, 54
1, 247323, Control_c, 0, 64, 44
1, 247338, Control_c, 0, 64, 10
1, 247352, Control_c, 0, 64, 0
1, 247818, Control_c, 0, 64, 36
1, 247833, Control_c, 0, 64, 51
1, 247848, Control_c, 0, 64, 58
1, 247863, Control_c, 0, 64, 62
1, 247878, Control_c, 0, 64, 64
1, 247893, Control_c, 0, 64, 65
1, 247908, Control_c, 0, 64, 67
1, 247922, Control_c, 0, 64, 70
1, 247937, Control_c, 0, 64, 73
1, 247952, Control_c, 0, 64, 76
1, 247967, Control_c, 0, 64, 77
1, 247977, Note_off_c, 0, 75, 56
1, 247982, Control_c, 0, 64, 79
1, 247997, Control_c, 0, 64, 80
1, 248004, Note_on_c, 0, 73, 44
1, 248012, Control_c, 0, 64, 82
1, 248027, Control_c, 0, 64, 84
1, 248042, Control_c, 0, 64, 85
1, 248049, Note_off_c, 0, 68, 58
1, 248052, Note_off_c, 0, 64, 41
1, 248060, Note_off_c, 0, 30, 36
1, 248078, Note_off_c, 0, 42, 34
1, 248091, Note_off_c, 0, 73, 60
1, 248131, Control_c, 0, 64, 85
1, 248308, Control_c, 0, 64, 82
1, 248318, Note_on_c, 0, 73, 48
1, 248323, Control_c, 0, 64, 71
1, 248338, Control_c, 0, 64, 61
1, 248342, Note_on_c, 0, 66, 39
1, 248353, Control_c, 0, 64, 31
1, 248357, Note_on_c, 0, 63, 25
1, 248367, Control_c, 0, 64, 12
1, 248368, Note_on_c, 0, 30, 18
1, 248373, Note_on_c, 0, 42, 4
1, 248382, Control_c, 0, 64, 40
1, 248397, Control_c, 0, 64, 56
1, 248412, Control_c, 0, 64, 63
1, 248426, Control_c, 0, 64, 67
1, 248441, Control_c, 0, 64, 72
1, 248456, Control_c, 0, 64, 78
1, 248465, Note_off_c, 0, 30, 36
1, 248471, Control_c, 0, 64, 83
1, 248474, Note_off_c, 0, 42, 39
1, 248486, Control_c, 0, 64, 86
1, 248493, Note_off_c, 0, 63, 41
1, 248501, Control_c, 0, 64, 91
1, 248502, Note_off_c, 0, 66, 44
1, 248502, Note_off_c, 0, 73, 34
1, 248516, Control_c, 0, 64, 92
1, 248553, Control_c, 0, 64, 90
1, 248568, Control_c, 0, 64, 81
1, 248582, Control_c, 0, 64, 73
1, 248597, Control_c, 0, 64, 70
1, 248599, Note_on_c, 0, 66, 34
1, 248607, Note_on_c, 0, 71, 46
1, 248611, Note_on_c, 0, 30, 34
1, 248611, Note_on_c, 0, 42, 15
1, 248612, Note_on_c, 0, 63, 36
1, 248626, Control_c, 0, 64, 71
1, 248641, Control_c, 0, 64, 76
1, 248656, Control_c, 0, 64, 83
1, 248671, Control_c, 0, 64, 88
1, 248686, Control_c, 0, 64, 91
1, 248700, Control_c, 0, 64, 93
1, 248715, Control_c, 0, 64, 94
1, 248721, Note_off_c, 0, 42, 35
1, 248723, Note_off_c, 0, 71, 51
1, 248727, Note_off_c, 0, 30, 33
1, 248730, Control_c, 0, 64, 95
1, 248732, Note_off_c, 0, 66, 43
1, 248741, Note_off_c, 0, 63, 37
1, 248776, Control_c, 0, 64, 91
1, 248791, Control_c, 0, 64, 78
1, 248805, Control_c, 0, 64, 68
1, 248820, Control_c, 0, 64, 61
1, 248833, Note_on_c, 0, 73, 55
1, 248835, Control_c, 0, 64, 61
1, 248846, Note_on_c, 0, 66, 40
1, 248847, Note_on_c, 0, 30, 24
1, 248849, Note_on_c, 0, 42, 17
1, 248849, Control_c, 0, 64, 63
1, 248852, Note_on_c, 0, 63, 24
1, 248864, Control_c, 0, 64, 66
1, 248879, Control_c, 0, 64, 71
1, 248894, Control_c, 0, 64, 77
1, 248909, Control_c, 0, 64, 84
1, 248924, Control_c, 0, 64, 88
1, 248939, Control_c, 0, 64, 90
1, 248947, Note_off_c, 0, 73, 60
1, 248954, Control_c, 0, 64, 92
1, 248960, Note_off_c, 0, 63, 40
1, 248969, Control_c, 0, 64, 93
1, 248984, Control_c, 0, 64, 94
1, 248995, Note_off_c, 0, 30, 31
1, 249002, Note_off_c, 0, 42, 32
1, 249010, Note_off_c, 0, 66, 39
1, 249131, Control_c, 0, 64, 93
1, 249161, Control_c, 0, 64, 91
1, 249176, Control_c, 0, 64, 88
1, 249190, Control_c, 0, 64, 85
1, 249205, Note_on_c, 0, 71, 49
1, 249205, Control_c, 0, 64, 82
1, 249220, Control_c, 0, 64, 79
1, 249231, Note_on_c, 0, 66, 39
1, 249232, Note_on_c, 0, 61, 32
1, 249235, Control_c, 0, 64, 76
1, 249249, Control_c, 0, 64, 73
1, 249264, Note_on_c, 0, 42, 7
1, 249264, Control_c, 0, 64, 71
1, 249271, Note_on_c, 0, 30, 21
1, 249279, Control_c, 0, 64, 69
1, 249302, Control_c, 0, 64, 67
1, 249317, Control_c, 0, 64, 64
1, 249331, Control_c, 0, 64, 61
1, 249346, Control_c, 0, 64, 57
1, 249361, Control_c, 0, 64, 51
1, 249376, Control_c, 0, 64, 42
1, 249391, Control_c, 0, 64, 0
1, 249643, Control_c, 0, 64, 33
1, 249658, Control_c, 0, 64, 51
1, 249672, Control_c, 0, 64, 59
1, 249687, Control_c, 0, 64, 63
1, 249702, Control_c, 0, 64, 65
1, 249717, Control_c, 0, 64, 68
1, 249732, Control_c, 0, 64, 71
1, 249747, Control_c, 0, 64, 75
1, 249762, Control_c, 0, 64, 77
1, 249777, Control_c, 0, 64, 79
1, 249791, Control_c, 0, 64, 81
1, 249806, Control_c, 0, 64, 81
1, 249821, Control_c, 0, 64, 82
1, 249836, Control_c, 0, 64, 83
1, 249880, Control_c, 0, 64, 81
1, 249895, Control_c, 0, 64, 71
1, 249910, Control_c, 0, 64, 60
1, 249925, Control_c, 0, 64, 0
1, 249947, Note_on_c, 0, 70, 46
1, 249954, Control_c, 0, 64, 18
1, 249969, Control_c, 0, 64, 49
1, 249984, Control_c, 0, 64, 61
1, 249989, Note_off_c, 0, 71, 36
1, 249998, Control_c, 0, 64, 66
1, 250013, Control_c, 0, 64, 69
1, 250028, Control_c, 0, 64, 74
1, 250051, Control_c, 0, 64, 78
1, 250066, Control_c, 0, 64, 82
1, 250081, Control_c, 0, 64, 84
1, 250084, Note_off_c, 0, 42, 39
1, 250087, Note_off_c, 0, 30, 39
1, 250096, Control_c, 0, 64, 86
1, 250110, Control_c, 0, 64, 87
1, 250111, Note_off_c, 0, 61, 35
1, 250123, Note_off_c, 0, 70, 37
1, 250125, Control_c, 0, 64, 89
1, 250140, Note_off_c, 0, 66, 38
1, 250140, Control_c, 0, 64, 90
1, 250155, Control_c, 0, 64, 92
1, 250170, Control_c, 0, 64, 93
1, 250185, Control_c, 0, 64, 94
1, 250199, Control_c, 0, 64, 94
1, 250214, Control_c, 0, 64, 95
1, 250283, Note_on_c, 0, 70, 39
1, 250296, Note_on_c, 0, 66, 38
1, 250304, Note_on_c, 0, 61, 23
1, 250324, Note_on_c, 0, 30, 25
1, 250330, Note_on_c, 0, 42, 6
1, 250393, Note_off_c, 0, 70, 50
1, 250400, Note_off_c, 0, 66, 38
1, 250429, Note_off_c, 0, 42, 36
1, 250429, Note_off_c, 0, 30, 33
1, 250458, Note_off_c, 0, 61, 36
1, 250591, Note_on_c, 0, 70, 39
1, 250591, Note_on_c, 0, 73, 42
1, 250593, Note_on_c, 0, 30, 29
1, 250599, Note_on_c, 0, 42, 21
1, 250611, Note_on_c, 0, 61, 31
1, 250709, Note_off_c, 0, 42, 38
1, 250716, Note_off_c, 0, 61, 31
1, 250718, Note_off_c, 0, 70, 37
1, 250723, Note_off_c, 0, 30, 32
1, 250730, Note_off_c, 0, 73, 40
1, 250844, Note_on_c, 0, 30, 19
1, 250847, Note_on_c, 0, 70, 48
1, 250848, Note_on_c, 0, 73, 55
1, 250853, Note_on_c, 0, 42, 29
1, 250856, Note_on_c, 0, 61, 36
1, 250882, Note_off_c, 0, 61, 57
1, 250888, Note_off_c, 0, 70, 64
1, 250916, Note_off_c, 0, 73, 46
1, 250953, Note_off_c, 0, 42, 36
1, 250976, Note_off_c, 0, 30, 37
1, 251081, Control_c, 0, 64, 87
1, 251088, Note_on_c, 0, 73, 52
1, 251095, Control_c, 0, 64, 73
1, 251102, Note_on_c, 0, 30, 28
1, 251106, Note_on_c, 0, 68, 44
1, 251110, Control_c, 0, 64, 62
1, 251114, Note_on_c, 0, 71, 40
1, 251116, Note_on_c, 0, 42, 29
1, 251125, Control_c, 0, 64, 47
1, 251140, Control_c, 0, 64, 49
1, 251155, Control_c, 0, 64, 57
1, 251171, Control_c, 0, 64, 61
1, 251186, Control_c, 0, 64, 66
1, 251200, Control_c, 0, 64, 72
1, 251210, Note_off_c, 0, 71, 45
1, 251213, Note_off_c, 0, 42, 40
1, 251215, Control_c, 0, 64, 82
1, 251230, Control_c, 0, 64, 87
1, 251239, Note_off_c, 0, 30, 38
1, 251240, Note_off_c, 0, 68, 36
1, 251259, Control_c, 0, 64, 87
1, 251270, Note_off_c, 0, 73, 37
1, 251274, Control_c, 0, 64, 83
1, 251289, Control_c, 0, 64, 81
1, 251335, Note_on_c, 0, 75, 58
1, 251339, Note_on_c, 0, 30, 36
1, 251347, Note_on_c, 0, 71, 44
1, 251348, Note_on_c, 0, 42, 36
1, 251348, Control_c, 0, 64, 82
1, 251350, Note_on_c, 0, 68, 47
1, 251363, Control_c, 0, 64, 83
1, 251378, Control_c, 0, 64, 83
1, 251392, Control_c, 0, 64, 84
1, 251428, Note_off_c, 0, 42, 52
1, 251432, Note_off_c, 0, 75, 63
1, 251458, Note_off_c, 0, 71, 34
1, 251464, Note_off_c, 0, 30, 34
1, 251471, Note_off_c, 0, 68, 32
1, 251574, Note_on_c, 0, 77, 69
1, 251587, Note_on_c, 0, 30, 35
1, 251587, Note_on_c, 0, 71, 55
1, 251593, Note_on_c, 0, 68, 46
1, 251601, Note_on_c, 0, 42, 38
1, 251652, Control_c, 0, 64, 84
1, 251666, Note_off_c, 0, 77, 54
1, 251666, Note_off_c, 0, 42, 51
1, 251666, Control_c, 0, 67, 125
1, 251681, Control_c, 0, 67, 120
1, 251696, Control_c, 0, 67, 115
1, 251699, Note_off_c, 0, 30, 34
1, 251711, Note_off_c, 0, 71, 36
1, 251711, Control_c, 0, 67, 111
1, 251720, Note_off_c, 0, 68, 32
1, 251726, Control_c, 0, 67, 107
1, 251741, Control_c, 0, 64, 85
1, 251741, Control_c, 0, 67, 104
1, 251756, Control_c, 0, 67, 103
1, 251770, Control_c, 0, 64, 85
1, 251770, Control_c, 0, 67, 101
1, 251785, Control_c, 0, 64, 86
1, 251785, Control_c, 0, 67, 99
1, 251800, Control_c, 0, 67, 98
1, 251815, Control_c, 0, 64, 85
1, 251815, Control_c, 0, 67, 97
1, 251830, Control_c, 0, 64, 76
1, 251830, Control_c, 0, 67, 96
1, 251839, Note_on_c, 0, 77, 66
1, 251844, Control_c, 0, 64, 65
1, 251844, Control_c, 0, 67, 94
1, 251854, Note_on_c, 0, 71, 51
1, 251857, Note_on_c, 0, 68, 48
1, 251859, Control_c, 0, 64, 47
1, 251859, Control_c, 0, 67, 92
1, 251869, Note_on_c, 0, 30, 38
1, 251874, Control_c, 0, 64, 46
1, 251874, Control_c, 0, 67, 91
1, 251884, Note_on_c, 0, 42, 29
1, 251889, Control_c, 0, 64, 56
1, 251889, Control_c, 0, 67, 88
1, 251904, Control_c, 0, 64, 62
1, 251904, Control_c, 0, 67, 85
1, 251918, Control_c, 0, 64, 65
1, 251918, Control_c, 0, 67, 84
1, 251933, Control_c, 0, 64, 72
1, 251933, Control_c, 0, 67, 82
1, 251946, Note_off_c, 0, 77, 60
1, 251947, Note_off_c, 0, 71, 61
1, 251948, Control_c, 0, 64, 82
1, 251948, Control_c, 0, 67, 82
1, 251963, Note_off_c, 0, 68, 51
1, 251964, Control_c, 0, 64, 85
1, 251979, Control_c, 0, 64, 86
1, 251979, Control_c, 0, 67, 81
1, 251994, Control_c, 0, 64, 86
1, 251995, Note_off_c, 0, 42, 39
1, 252009, Control_c, 0, 64, 87
1, 252016, Note_off_c, 0, 30, 39
1, 252023, Control_c, 0, 64, 87
1, 252023, Control_c, 0, 67, 81
1, 252067, Control_c, 0, 64, 88
1, 252067, Control_c, 0, 67, 80
1, 252082, Control_c, 0, 64, 88
1, 252097, Control_c, 0, 64, 89
1, 252127, Control_c, 0, 64, 84
1, 252129, Note_on_c, 0, 78, 58
1, 252141, Control_c, 0, 64, 69
1, 252142, Note_on_c, 0, 70, 48
1, 252156, Control_c, 0, 64, 51
1, 252156, Control_c, 0, 67, 80
1, 252158, Note_on_c, 0, 66, 32
1, 252161, Note_on_c, 0, 30, 28
1, 252166, Note_on_c, 0, 42, 27
1, 252171, Control_c, 0, 64, 0
1, 252186, Control_c, 0, 64, 10
1, 252201, Control_c, 0, 64, 44
1, 252215, Control_c, 0, 64, 57
1, 252215, Control_c, 0, 67, 79
1, 252230, Control_c, 0, 64, 64
1, 252245, Control_c, 0, 64, 70
1, 252245, Control_c, 0, 67, 77
1, 252260, Control_c, 0, 64, 76
1, 252260, Control_c, 0, 67, 74
1, 252275, Control_c, 0, 64, 81
1, 252275, Control_c, 0, 67, 72
1, 252275, Note_off_c, 0, 78, 58
1, 252281, Note_off_c, 0, 70, 50
1, 252286, Note_off_c, 0, 42, 38
1, 252297, Control_c, 0, 64, 84
1, 252297, Control_c, 0, 67, 70
1, 252310, Note_off_c, 0, 30, 34
1, 252310, Note_off_c, 0, 66, 47
1, 252312, Control_c, 0, 64, 89
1, 252312, Control_c, 0, 67, 68
1, 252327, Control_c, 0, 64, 91
1, 252327, Control_c, 0, 67, 65
1, 252341, Control_c, 0, 67, 62
1, 252356, Control_c, 0, 67, 58
1, 252371, Control_c, 0, 64, 90
1, 252371, Control_c, 0, 67, 55
1, 252378, Note_on_c, 0, 78, 66
1, 252379, Note_on_c, 0, 66, 51
1, 252381, Note_on_c, 0, 70, 53
1, 252386, Control_c, 0, 67, 51
1, 252400, Note_on_c, 0, 30, 37
1, 252400, Note_on_c, 0, 42, 38
1, 252400, Control_c, 0, 67, 49
1, 252415, Control_c, 0, 64, 90
1, 252415, Control_c, 0, 67, 47
1, 252430, Control_c, 0, 64, 102
1, 252430, Control_c, 0, 67, 45
1, 252445, Control_c, 0, 64, 127
1, 252445, Control_c, 0, 67, 43
1, 252460, Control_c, 0, 67, 40
1, 252474, Control_c, 0, 67, 37
1, 252489, Control_c, 0, 67, 35
1, 252499, Note_off_c, 0, 42, 48
1, 252504, Control_c, 0, 67, 32
1, 252511, Note_off_c, 0, 78, 52
1, 252516, Note_off_c, 0, 70, 45
1, 252519, Control_c, 0, 67, 28
1, 252534, Note_off_c, 0, 30, 39
1, 252534, Control_c, 0, 67, 25
1, 252540, Note_off_c, 0, 66, 43
1, 252549, Control_c, 0, 67, 20
1, 252564, Control_c, 0, 67, 14
1, 252579, Control_c, 0, 67, 9
1, 252593, Control_c, 0, 67, 0
1, 252617, Note_on_c, 0, 78, 72
1, 252623, Note_on_c, 0, 70, 68
1, 252632, Note_on_c, 0, 66, 61
1, 252640, Note_on_c, 0, 42, 47
1, 252644, Note_on_c, 0, 30, 48
1, 252752, Note_off_c, 0, 42, 43
1, 252755, Note_off_c, 0, 78, 58
1, 252756, Note_off_c, 0, 70, 57
1, 252772, Note_off_c, 0, 66, 37
1, 252782, Note_off_c, 0, 30, 33
1, 252858, Note_on_c, 0, 78, 75
1, 252863, Note_on_c, 0, 70, 73
1, 252865, Note_on_c, 0, 66, 71
1, 252874, Note_on_c, 0, 30, 55
1, 252878, Note_on_c, 0, 42, 54
1, 252999, Note_off_c, 0, 42, 49
1, 253002, Note_off_c, 0, 78, 58
1, 253010, Note_off_c, 0, 70, 56
1, 253014, Note_off_c, 0, 66, 38
1, 253038, Note_off_c, 0, 30, 34
1, 253115, Note_on_c, 0, 78, 78
1, 253118, Note_on_c, 0, 70, 79
1, 253121, Note_on_c, 0, 66, 71
1, 253127, Note_on_c, 0, 30, 61
1, 253132, Note_on_c, 0, 42, 57
1, 253222, Note_off_c, 0, 70, 60
1, 253228, Note_off_c, 0, 42, 58
1, 253234, Note_off_c, 0, 30, 57
1, 253262, Note_off_c, 0, 66, 53
1, 253292, Note_off_c, 0, 78, 59
1, 253417, Note_on_c, 0, 78, 81
1, 253423, Note_on_c, 0, 71, 75
1, 253428, Note_on_c, 0, 38, 61
1, 253428, Note_on_c, 0, 66, 77
1, 253461, Control_c, 0, 64, 71
1, 253476, Control_c, 0, 64, 0
1, 253535, Control_c, 0, 64, 47
1, 253550, Control_c, 0, 64, 66
1, 253566, Control_c, 0, 64, 80
1, 253580, Note_off_c, 0, 78, 59
1, 253581, Control_c, 0, 64, 104
1, 253595, Control_c, 0, 64, 127
1, 253637, Note_off_c, 0, 38, 32
1, 253647, Note_off_c, 0, 71, 59
1, 253704, Note_off_c, 0, 66, 0
1, 253716, Note_on_c, 0, 66, 56
1, 253720, Note_on_c, 0, 78, 77
1, 253725, Note_on_c, 0, 38, 52
1, 253725, Note_on_c, 0, 72, 72
1, 253759, Control_c, 0, 64, 106
1, 253774, Control_c, 0, 64, 65
1, 253795, Control_c, 0, 64, 0
1, 253854, Control_c, 0, 64, 57
1, 253869, Control_c, 0, 64, 68
1, 253884, Control_c, 0, 64, 80
1, 253889, Note_off_c, 0, 78, 58
1, 253899, Control_c, 0, 64, 100
1, 253904, Note_off_c, 0, 72, 59
1, 253910, Note_off_c, 0, 66, 38
1, 253914, Control_c, 0, 64, 127
1, 253924, Note_off_c, 0, 38, 37
1, 253989, Note_on_c, 0, 78, 75
1, 253993, Note_on_c, 0, 72, 67
1, 253995, Note_on_c, 0, 38, 44
1, 253995, Note_on_c, 0, 66, 62
1, 254126, Note_off_c, 0, 78, 57
1, 254131, Note_off_c, 0, 38, 32
1, 254144, Note_off_c, 0, 72, 37
1, 254156, Note_off_c, 0, 66, 38
1, 254233, Note_on_c, 0, 78, 72
1, 254239, Note_on_c, 0, 66, 51
1, 254242, Note_on_c, 0, 72, 59
1, 254258, Note_on_c, 0, 38, 41
1, 254361, Note_off_c, 0, 78, 54
1, 254370, Note_off_c, 0, 72, 54
1, 254389, Note_off_c, 0, 38, 29
1, 254400, Note_off_c, 0, 66, 37
1, 254484, Note_on_c, 0, 78, 58
1, 254492, Note_on_c, 0, 72, 51
1, 254492, Note_on_c, 0, 66, 41
1, 254496, Note_on_c, 0, 38, 26
1, 254610, Note_off_c, 0, 78, 50
1, 254623, Note_off_c, 0, 72, 48
1, 254634, Note_off_c, 0, 38, 38
1, 254644, Note_off_c, 0, 66, 40
1, 254738, Note_on_c, 0, 78, 53
1, 254753, Note_on_c, 0, 72, 45
1, 254755, Note_on_c, 0, 66, 40
1, 254764, Note_on_c, 0, 38, 36
1, 254858, Note_off_c, 0, 78, 47
1, 254862, Note_off_c, 0, 66, 35
1, 254877, Note_off_c, 0, 72, 36
1, 254882, Note_off_c, 0, 38, 37
1, 254999, Note_on_c, 0, 78, 44
1, 255017, Note_on_c, 0, 72, 46
1, 255029, Note_on_c, 0, 38, 43
1, 255032, Note_on_c, 0, 66, 36
1, 255062, Note_off_c, 0, 78, 52
1, 255092, Note_off_c, 0, 72, 62
1, 255092, Note_off_c, 0, 38, 58
1, 255127, Note_off_c, 0, 66, 35
1, 255337, Control_c, 0, 64, 107
1, 255352, Control_c, 0, 64, 78
1, 255361, Note_on_c, 0, 62, 57
1, 255366, Control_c, 0, 64, 62
1, 255375, Note_on_c, 0, 50, 57
1, 255381, Control_c, 0, 64, 0
1, 255440, Control_c, 0, 64, 51
1, 255455, Control_c, 0, 64, 63
1, 255470, Control_c, 0, 64, 70
1, 255485, Control_c, 0, 64, 80
1, 255500, Control_c, 0, 64, 87
1, 255515, Control_c, 0, 64, 93
1, 255530, Control_c, 0, 64, 99
1, 255545, Control_c, 0, 64, 101
1, 255555, Note_off_c, 0, 50, 54
1, 255584, Note_off_c, 0, 62, 35
1, 255648, Control_c, 0, 64, 99
1, 255663, Control_c, 0, 64, 80
1, 255673, Note_on_c, 0, 62, 53
1, 255678, Control_c, 0, 64, 64
1, 255682, Note_on_c, 0, 48, 53
1, 255684, Note_on_c, 0, 50, 43
1, 255692, Control_c, 0, 64, 0
1, 255736, Control_c, 0, 64, 48
1, 255751, Control_c, 0, 64, 62
1, 255766, Control_c, 0, 64, 69
1, 255781, Control_c, 0, 64, 78
1, 255796, Control_c, 0, 64, 87
1, 255810, Control_c, 0, 64, 92
1, 255825, Control_c, 0, 64, 96
1, 255840, Control_c, 0, 64, 98
1, 255842, Note_off_c, 0, 50, 30
1, 255854, Note_off_c, 0, 62, 32
1, 255855, Control_c, 0, 64, 99
1, 255870, Control_c, 0, 64, 99
1, 255914, Control_c, 0, 64, 98
1, 255922, Note_off_c, 0, 48, 32
1, 255929, Control_c, 0, 64, 83
1, 255944, Control_c, 0, 64, 65
1, 255952, Note_on_c, 0, 47, 48
1, 255953, Note_on_c, 0, 50, 30
1, 255956, Note_on_c, 0, 62, 47
1, 255960, Control_c, 0, 64, 0
1, 256004, Control_c, 0, 64, 40
1, 256019, Control_c, 0, 64, 62
1, 256041, Control_c, 0, 64, 69
1, 256056, Control_c, 0, 64, 79
1, 256071, Control_c, 0, 64, 86
1, 256086, Control_c, 0, 64, 91
1, 256101, Control_c, 0, 64, 96
1, 256111, Note_off_c, 0, 50, 37
1, 256115, Control_c, 0, 64, 101
1, 256130, Control_c, 0, 64, 105
1, 256131, Note_off_c, 0, 62, 31
1, 256145, Control_c, 0, 64, 107
1, 256160, Control_c, 0, 64, 107
1, 256173, Note_off_c, 0, 47, 36
1, 256175, Control_c, 0, 64, 108
1, 256204, Control_c, 0, 64, 107
1, 256219, Control_c, 0, 64, 86
1, 256233, Control_c, 0, 64, 67
1, 256236, Note_on_c, 0, 62, 39
1, 256248, Control_c, 0, 64, 0
1, 256254, Note_on_c, 0, 45, 36
1, 256264, Note_on_c, 0, 50, 20
1, 256293, Control_c, 0, 64, 52
1, 256308, Control_c, 0, 64, 64
1, 256323, Control_c, 0, 64, 72
1, 256338, Control_c, 0, 64, 85
1, 256352, Control_c, 0, 64, 93
1, 256367, Control_c, 0, 64, 96
1, 256382, Control_c, 0, 64, 99
1, 256393, Note_off_c, 0, 62, 41
1, 256397, Control_c, 0, 64, 102
1, 256409, Note_off_c, 0, 50, 36
1, 256412, Control_c, 0, 64, 103
1, 256427, Control_c, 0, 64, 103
1, 256444, Note_off_c, 0, 45, 40
1, 256545, Control_c, 0, 64, 93
1, 256559, Control_c, 0, 64, 72
1, 256573, Note_on_c, 0, 62, 37
1, 256573, Note_on_c, 0, 43, 37
1, 256574, Control_c, 0, 64, 53
1, 256575, Note_on_c, 0, 50, 27
1, 256589, Control_c, 0, 64, 0
1, 256633, Control_c, 0, 64, 44
1, 256648, Control_c, 0, 64, 62
1, 256663, Control_c, 0, 64, 68
1, 256678, Control_c, 0, 64, 75
1, 256692, Note_off_c, 0, 62, 50
1, 256693, Control_c, 0, 64, 82
1, 256707, Control_c, 0, 64, 88
1, 256722, Control_c, 0, 64, 95
1, 256737, Control_c, 0, 64, 103
1, 256753, Control_c, 0, 64, 110
1, 256768, Control_c, 0, 64, 116
1, 256788, Note_off_c, 0, 50, 35
1, 256790, Control_c, 0, 64, 125
1, 256806, Control_c, 0, 64, 127
1, 256820, Note_off_c, 0, 43, 31
1, 257218, Note_on_c, 0, 71, 56
1, 257236, Note_on_c, 0, 67, 46
1, 257267, Note_on_c, 0, 59, 38
1, 257282, Note_on_c, 0, 43, 36
1, 257285, Note_on_c, 0, 50, 27
1, 257294, Control_c, 0, 64, 118
1, 257309, Control_c, 0, 64, 105
1, 257324, Control_c, 0, 64, 97
1, 257339, Control_c, 0, 64, 90
1, 257354, Control_c, 0, 64, 83
1, 257369, Control_c, 0, 64, 76
1, 257383, Control_c, 0, 64, 68
1, 257398, Control_c, 0, 64, 62
1, 257413, Control_c, 0, 64, 47
1, 257428, Control_c, 0, 64, 0
1, 257984, Control_c, 0, 64, 17
1, 257999, Control_c, 0, 64, 33
1, 258013, Control_c, 0, 64, 42
1, 258028, Control_c, 0, 64, 49
1, 258043, Control_c, 0, 64, 55
1, 258058, Control_c, 0, 64, 61
1, 258073, Control_c, 0, 64, 64
1, 258087, Control_c, 0, 64, 68
1, 258102, Control_c, 0, 64, 73
1, 258117, Control_c, 0, 64, 81
1, 258132, Control_c, 0, 64, 90
1, 258147, Control_c, 0, 64, 104
1, 258162, Control_c, 0, 64, 127
1, 258396, Note_off_c, 0, 59, 39
1, 258414, Note_off_c, 0, 43, 38
1, 258447, Note_off_c, 0, 50, 28
1, 258465, Note_off_c, 0, 71, 36
1, 258481, Control_c, 0, 67, 14
1, 258496, Control_c, 0, 67, 22
1, 258511, Control_c, 0, 67, 27
1, 258526, Control_c, 0, 67, 31
1, 258540, Control_c, 0, 67, 34
1, 258555, Control_c, 0, 67, 38
1, 258570, Control_c, 0, 67, 41
1, 258580, Note_off_c, 0, 67, 34
1, 258585, Control_c, 0, 67, 45
1, 258600, Control_c, 0, 67, 50
1, 258615, Control_c, 0, 67, 55
1, 258630, Control_c, 0, 67, 59
1, 258644, Control_c, 0, 67, 63
1, 258659, Control_c, 0, 67, 66
1, 258674, Control_c, 0, 67, 69
1, 258689, Control_c, 0, 67, 72
1, 258703, Control_c, 0, 67, 74
1, 258718, Control_c, 0, 67, 76
1, 258733, Control_c, 0, 67, 76
1, 258748, Control_c, 0, 67, 77
1, 258828, Note_on_c, 0, 69, 47
1, 258834, Note_on_c, 0, 66, 47
1, 258841, Note_on_c, 0, 60, 41
1, 258841, Note_on_c, 0, 43, 41
1, 258853, Note_on_c, 0, 50, 37
1, 258878, Note_off_c, 0, 60, 59
1, 258896, Control_c, 0, 67, 76
1, 258910, Control_c, 0, 67, 75
1, 258919, Note_off_c, 0, 50, 41
1, 258925, Control_c, 0, 67, 74
1, 258930, Note_off_c, 0, 43, 35
1, 258940, Control_c, 0, 67, 74
1, 258945, Note_off_c, 0, 66, 35
1, 258953, Note_off_c, 0, 69, 57
1, 258955, Control_c, 0, 67, 73
1, 258970, Control_c, 0, 67, 73
1, 258982, Note_on_c, 0, 71, 55
1, 258985, Control_c, 0, 67, 72
1, 258991, Note_on_c, 0, 67, 44
1, 258999, Control_c, 0, 67, 72
1, 259000, Note_on_c, 0, 43, 20
1, 259011, Note_on_c, 0, 50, 15
1, 259014, Control_c, 0, 67, 71
1, 259020, Note_on_c, 0, 59, 39
1, 259036, Control_c, 0, 67, 70
1, 259050, Control_c, 0, 64, 102
1, 259050, Control_c, 0, 67, 70
1, 259065, Control_c, 0, 64, 87
1, 259080, Control_c, 0, 64, 75
1, 259095, Control_c, 0, 64, 66
1, 259095, Control_c, 0, 67, 69
1, 259110, Control_c, 0, 64, 40
1, 259125, Control_c, 0, 64, 0
1, 259140, Control_c, 0, 67, 69
1, 259304, Control_c, 0, 64, 14
1, 259318, Control_c, 0, 64, 22
1, 259392, Control_c, 0, 64, 23
1, 259407, Control_c, 0, 64, 23
1, 259422, Control_c, 0, 64, 24
1, 259437, Control_c, 0, 64, 25
1, 259451, Control_c, 0, 64, 26
1, 259466, Control_c, 0, 64, 28
1, 259481, Control_c, 0, 64, 29
1, 259496, Control_c, 0, 64, 30
1, 259570, Control_c, 0, 64, 31
1, 259644, Control_c, 0, 64, 29
1, 259658, Control_c, 0, 64, 23
1, 259673, Control_c, 0, 64, 0
1, 259748, Control_c, 0, 64, 39
1, 259748, Control_c, 0, 67, 68
1, 259763, Control_c, 0, 64, 60
1, 259763, Control_c, 0, 67, 68
1, 259784, Control_c, 0, 64, 69
1, 259799, Control_c, 0, 64, 80
1, 259799, Control_c, 0, 67, 67
1, 259814, Control_c, 0, 64, 95
1, 259829, Control_c, 0, 64, 111
1, 259844, Control_c, 0, 64, 127
1, 259858, Control_c, 0, 67, 66
1, 259903, Control_c, 0, 67, 66
1, 260079, Note_off_c, 0, 59, 38
1, 260126, Control_c, 0, 67, 65
1, 260140, Note_off_c, 0, 71, 31
1, 260147, Note_off_c, 0, 43, 37
1, 260162, Note_off_c, 0, 50, 30
1, 260289, Control_c, 0, 67, 65
1, 260305, Note_off_c, 0, 67, 38
1, 260403, Note_on_c, 0, 69, 43
1, 260411, Note_on_c, 0, 60, 36
1, 260420, Note_on_c, 0, 50, 32
1, 260422, Note_on_c, 0, 66, 30
1, 260429, Note_on_c, 0, 43, 37
1, 260460, Note_off_c, 0, 60, 58
1, 260473, Note_off_c, 0, 66, 47
1, 260481, Control_c, 0, 67, 65
1, 260484, Note_off_c, 0, 43, 42
1, 260493, Note_off_c, 0, 50, 38
1, 260511, Control_c, 0, 67, 66
1, 260578, Note_off_c, 0, 69, 42
1, 260578, Control_c, 0, 64, 99
1, 260578, Control_c, 0, 67, 66
1, 260581, Note_on_c, 0, 67, 50
1, 260588, Note_on_c, 0, 71, 57
1, 260593, Control_c, 0, 64, 71
1, 260593, Control_c, 0, 67, 67
1, 260602, Note_on_c, 0, 50, 22
1, 260607, Note_on_c, 0, 59, 36
1, 260607, Control_c, 0, 64, 56
1, 260610, Note_on_c, 0, 43, 29
1, 260622, Control_c, 0, 64, 47
1, 260637, Control_c, 0, 64, 56
1, 260638, Note_off_c, 0, 67, 57
1, 260652, Control_c, 0, 64, 62
1, 260667, Control_c, 0, 64, 65
1, 260681, Control_c, 0, 64, 68
1, 260681, Control_c, 0, 67, 66
1, 260696, Control_c, 0, 64, 72
1, 260711, Control_c, 0, 64, 75
1, 260711, Control_c, 0, 67, 66
1, 260720, Note_off_c, 0, 59, 36
1, 260726, Control_c, 0, 64, 76
1, 260745, Note_off_c, 0, 50, 41
1, 260749, Note_off_c, 0, 43, 40
1, 260756, Control_c, 0, 67, 65
1, 260771, Control_c, 0, 67, 65
1, 260833, Note_on_c, 0, 72, 65
1, 260842, Note_off_c, 0, 71, 58
1, 260845, Note_on_c, 0, 69, 59
1, 260845, Control_c, 0, 64, 76
1, 260853, Note_on_c, 0, 60, 47
1, 260856, Note_on_c, 0, 43, 43
1, 260857, Note_on_c, 0, 50, 30
1, 260860, Control_c, 0, 64, 77
1, 260875, Control_c, 0, 64, 77
1, 260890, Control_c, 0, 64, 78
1, 260904, Note_off_c, 0, 60, 54
1, 260904, Control_c, 0, 64, 79
1, 260908, Note_off_c, 0, 43, 60
1, 260934, Control_c, 0, 64, 79
1, 260949, Control_c, 0, 64, 80
1, 260955, Note_off_c, 0, 50, 33
1, 261031, Note_on_c, 0, 74, 70
1, 261034, Note_off_c, 0, 69, 32
1, 261047, Note_on_c, 0, 62, 60
1, 261047, Note_on_c, 0, 50, 39
1, 261049, Note_off_c, 0, 72, 48
1, 261050, Note_on_c, 0, 71, 57
1, 261053, Control_c, 0, 67, 65
1, 261065, Note_on_c, 0, 43, 40
1, 261068, Control_c, 0, 67, 66
1, 261083, Note_off_c, 0, 71, 62
1, 261097, Control_c, 0, 67, 66
1, 261112, Control_c, 0, 67, 67
1, 261142, Control_c, 0, 67, 67
1, 261146, Note_off_c, 0, 74, 59
1, 261152, Note_off_c, 0, 62, 37
1, 261156, Control_c, 0, 67, 68
1, 261161, Note_off_c, 0, 50, 35
1, 261171, Control_c, 0, 67, 68
1, 261179, Note_off_c, 0, 43, 31
1, 261201, Control_c, 0, 67, 69
1, 261230, Control_c, 0, 67, 69
1, 261245, Control_c, 0, 67, 70
1, 261260, Control_c, 0, 67, 70
1, 261283, Control_c, 0, 64, 79
1, 261283, Control_c, 0, 67, 71
1, 261294, Note_on_c, 0, 74, 53
1, 261297, Control_c, 0, 64, 74
1, 261297, Control_c, 0, 67, 72
1, 261311, Control_c, 0, 64, 62
1, 261313, Note_on_c, 0, 62, 40
1, 261324, Note_on_c, 0, 66, 49
1, 261326, Control_c, 0, 64, 0
1, 261326, Control_c, 0, 67, 72
1, 261333, Note_on_c, 0, 50, 18
1, 261337, Note_on_c, 0, 38, 38
1, 261341, Control_c, 0, 67, 74
1, 261370, Control_c, 0, 64, 25
1, 261385, Control_c, 0, 64, 55
1, 261400, Control_c, 0, 64, 65
1, 261400, Control_c, 0, 67, 75
1, 261405, Note_off_c, 0, 62, 50
1, 261415, Control_c, 0, 64, 74
1, 261415, Control_c, 0, 67, 76
1, 261429, Control_c, 0, 64, 84
1, 261429, Control_c, 0, 67, 76
1, 261441, Note_off_c, 0, 66, 37
1, 261444, Control_c, 0, 64, 92
1, 261444, Control_c, 0, 67, 77
1, 261459, Control_c, 0, 64, 97
1, 261474, Control_c, 0, 64, 106
1, 261478, Note_off_c, 0, 50, 36
1, 261481, Note_off_c, 0, 38, 40
1, 261489, Control_c, 0, 64, 110
1, 261503, Control_c, 0, 64, 112
1, 261518, Control_c, 0, 64, 111
1, 261531, Note_off_c, 0, 74, 59
1, 261533, Control_c, 0, 64, 107
1, 261533, Control_c, 0, 67, 77
1, 261548, Control_c, 0, 64, 89
1, 261551, Note_on_c, 0, 72, 58
1, 261563, Note_on_c, 0, 66, 49
1, 261564, Control_c, 0, 64, 74
1, 261568, Note_on_c, 0, 38, 29
1, 261574, Note_on_c, 0, 50, 21
1, 261574, Note_on_c, 0, 60, 41
1, 261578, Control_c, 0, 64, 65
1, 261593, Control_c, 0, 64, 64
1, 261608, Control_c, 0, 64, 66
1, 261623, Control_c, 0, 64, 71
1, 261638, Control_c, 0, 64, 78
1, 261641, Note_off_c, 0, 60, 49
1, 261652, Control_c, 0, 64, 84
1, 261667, Note_off_c, 0, 72, 60
1, 261667, Control_c, 0, 64, 88
1, 261673, Note_off_c, 0, 50, 35
1, 261678, Note_off_c, 0, 66, 36
1, 261682, Control_c, 0, 64, 91
1, 261688, Note_off_c, 0, 38, 33
1, 261697, Control_c, 0, 64, 92
1, 261727, Control_c, 0, 67, 77
1, 261757, Control_c, 0, 67, 76
1, 261771, Control_c, 0, 64, 90
1, 261771, Control_c, 0, 67, 76
1, 261776, Note_on_c, 0, 72, 46
1, 261786, Control_c, 0, 64, 77
1, 261786, Control_c, 0, 67, 75
1, 261789, Note_on_c, 0, 66, 45
1, 261796, Note_on_c, 0, 38, 30
1, 261797, Note_on_c, 0, 50, 31
1, 261801, Control_c, 0, 64, 67
1, 261806, Note_on_c, 0, 60, 34
1, 261816, Control_c, 0, 64, 60
1, 261816, Control_c, 0, 67, 75
1, 261831, Control_c, 0, 64, 59
1, 261831, Control_c, 0, 67, 74
1, 261845, Control_c, 0, 64, 63
1, 261845, Control_c, 0, 67, 74
1, 261860, Control_c, 0, 64, 67
1, 261860, Control_c, 0, 67, 73
1, 261867, Note_off_c, 0, 60, 56
1, 261875, Control_c, 0, 64, 73
1, 261875, Control_c, 0, 67, 72
1, 261890, Control_c, 0, 64, 81
1, 261890, Control_c, 0, 67, 72
1, 261903, Note_off_c, 0, 50, 34
1, 261905, Control_c, 0, 64, 85
1, 261905, Control_c, 0, 67, 71
1, 261908, Note_off_c, 0, 38, 35
1, 261910, Note_off_c, 0, 66, 34
1, 261919, Control_c, 0, 64, 86
1, 261934, Control_c, 0, 67, 70
1, 261964, Control_c, 0, 67, 69
1, 261978, Control_c, 0, 67, 69
1, 262008, Control_c, 0, 67, 68
1, 262031, Control_c, 0, 67, 68
1, 262046, Control_c, 0, 64, 85
1, 262060, Control_c, 0, 64, 80
1, 262060, Control_c, 0, 67, 67
1, 262074, Note_off_c, 0, 72, 62
1, 262075, Control_c, 0, 64, 70
1, 262075, Control_c, 0, 67, 67
1, 262090, Control_c, 0, 64, 51
1, 262091, Note_on_c, 0, 67, 38
1, 262099, Note_on_c, 0, 71, 47
1, 262104, Control_c, 0, 64, 0
1, 262104, Control_c, 0, 67, 66
1, 262114, Note_on_c, 0, 59, 37
1, 262119, Note_on_c, 0, 50, 31
1, 262119, Control_c, 0, 67, 66
1, 262134, Control_c, 0, 67, 65
1, 262137, Note_on_c, 0, 43, 29
1, 262149, Control_c, 0, 64, 17
1, 262149, Control_c, 0, 67, 65
1, 262164, Note_off_c, 0, 59, 61
1, 262164, Control_c, 0, 64, 57
1, 262164, Control_c, 0, 67, 64
1, 262178, Control_c, 0, 64, 68
1, 262193, Control_c, 0, 64, 77
1, 262193, Control_c, 0, 67, 64
1, 262208, Control_c, 0, 64, 85
1, 262208, Control_c, 0, 67, 63
1, 262209, Note_off_c, 0, 67, 61
1, 262223, Control_c, 0, 64, 91
1, 262223, Control_c, 0, 67, 62
1, 262238, Control_c, 0, 64, 99
1, 262238, Control_c, 0, 67, 61
1, 262252, Control_c, 0, 64, 107
1, 262252, Control_c, 0, 67, 60
1, 262253, Note_off_c, 0, 71, 61
1, 262267, Control_c, 0, 64, 112
1, 262267, Control_c, 0, 67, 58
1, 262282, Control_c, 0, 64, 114
1, 262282, Control_c, 0, 67, 57
1, 262296, Control_c, 0, 67, 57
1, 262312, Note_off_c, 0, 50, 40
1, 262326, Control_c, 0, 64, 115
1, 262416, Control_c, 0, 67, 56
1, 262431, Control_c, 0, 64, 112
1, 262445, Note_on_c, 0, 67, 48
1, 262446, Control_c, 0, 64, 91
1, 262461, Control_c, 0, 64, 68
1, 262461, Control_c, 0, 67, 56
1, 262475, Control_c, 0, 64, 47
1, 262480, Note_off_c, 0, 43, 39
1, 262490, Control_c, 0, 64, 0
1, 262505, Control_c, 0, 64, 41
1, 262520, Control_c, 0, 64, 59
1, 262520, Control_c, 0, 67, 55
1, 262535, Control_c, 0, 64, 65
1, 262550, Control_c, 0, 64, 72
1, 262550, Control_c, 0, 67, 55
1, 262565, Control_c, 0, 64, 82
1, 262565, Control_c, 0, 67, 54
1, 262580, Control_c, 0, 64, 91
1, 262580, Control_c, 0, 67, 51
1, 262594, Note_off_c, 0, 67, 37
1, 262594, Control_c, 0, 64, 96
1, 262594, Control_c, 0, 67, 50
1, 262609, Control_c, 0, 64, 101
1, 262609, Control_c, 0, 67, 48
1, 262624, Control_c, 0, 64, 106
1, 262624, Control_c, 0, 67, 46
1, 262639, Control_c, 0, 64, 110
1, 262639, Control_c, 0, 67, 44
1, 262654, Control_c, 0, 64, 114
1, 262654, Control_c, 0, 67, 42
1, 262668, Control_c, 0, 64, 115
1, 262668, Control_c, 0, 67, 40
1, 262683, Control_c, 0, 64, 114
1, 262683, Control_c, 0, 67, 39
1, 262698, Control_c, 0, 64, 95
1, 262698, Control_c, 0, 67, 38
1, 262707, Note_on_c, 0, 69, 59
1, 262713, Control_c, 0, 64, 73
1, 262713, Control_c, 0, 67, 37
1, 262727, Control_c, 0, 64, 58
1, 262727, Control_c, 0, 67, 35
1, 262742, Control_c, 0, 64, 39
1, 262742, Control_c, 0, 67, 33
1, 262757, Control_c, 0, 64, 55
1, 262757, Control_c, 0, 67, 31
1, 262779, Control_c, 0, 64, 63
1, 262779, Control_c, 0, 67, 28
1, 262794, Control_c, 0, 64, 67
1, 262794, Control_c, 0, 67, 25
1, 262809, Control_c, 0, 64, 75
1, 262809, Control_c, 0, 67, 22
1, 262824, Control_c, 0, 64, 88
1, 262824, Control_c, 0, 67, 20
1, 262839, Control_c, 0, 64, 103
1, 262839, Control_c, 0, 67, 18
1, 262846, Note_off_c, 0, 69, 54
1, 262854, Control_c, 0, 64, 127
1, 262854, Control_c, 0, 67, 16
1, 262869, Control_c, 0, 67, 15
1, 262883, Control_c, 0, 67, 14
1, 262898, Control_c, 0, 67, 12
1, 262913, Control_c, 0, 64, 92
1, 262913, Control_c, 0, 67, 10
1, 262927, Control_c, 0, 64, 73
1, 262927, Control_c, 0, 67, 0
1, 262931, Note_on_c, 0, 71, 68
1, 262942, Control_c, 0, 64, 62
1, 262972, Control_c, 0, 64, 66
1, 262987, Control_c, 0, 64, 72
1, 263001, Control_c, 0, 64, 82
1, 263016, Control_c, 0, 64, 95
1, 263031, Control_c, 0, 64, 109
1, 263046, Control_c, 0, 64, 127
1, 263073, Note_off_c, 0, 71, 55
1, 263119, Control_c, 0, 64, 116
1, 263134, Control_c, 0, 64, 76
1, 263138, Note_on_c, 0, 72, 71
1, 263150, Control_c, 0, 64, 56
1, 263165, Control_c, 0, 64, 26
1, 263180, Control_c, 0, 64, 55
1, 263195, Control_c, 0, 64, 65
1, 263210, Control_c, 0, 64, 74
1, 263224, Control_c, 0, 64, 99
1, 263239, Control_c, 0, 64, 127
1, 263308, Note_off_c, 0, 72, 58
1, 263343, Control_c, 0, 64, 83
1, 263346, Note_on_c, 0, 74, 75
1, 263358, Control_c, 0, 64, 56
1, 263372, Control_c, 0, 64, 0
1, 263417, Control_c, 0, 64, 52
1, 263432, Control_c, 0, 64, 70
1, 263447, Control_c, 0, 64, 84
1, 263462, Control_c, 0, 64, 95
1, 263477, Control_c, 0, 64, 97
1, 263492, Control_c, 0, 64, 101
1, 263502, Note_off_c, 0, 74, 56
1, 263506, Control_c, 0, 64, 107
1, 263528, Control_c, 0, 64, 111
1, 263544, Control_c, 0, 64, 113
1, 263694, Note_on_c, 0, 76, 78
1, 263705, Note_on_c, 0, 72, 64
1, 263720, Note_on_c, 0, 64, 53
1, 263721, Control_c, 0, 64, 112
1, 263735, Note_on_c, 0, 48, 40
1, 263736, Control_c, 0, 64, 110
1, 263742, Note_on_c, 0, 36, 37
1, 263751, Control_c, 0, 64, 104
1, 263766, Control_c, 0, 64, 97
1, 263781, Control_c, 0, 64, 89
1, 263796, Control_c, 0, 64, 80
1, 263811, Control_c, 0, 64, 72
1, 263825, Control_c, 0, 64, 65
1, 263840, Control_c, 0, 64, 49
1, 263855, Control_c, 0, 64, 0
1, 264499, Control_c, 0, 64, 42
1, 264514, Control_c, 0, 64, 63
1, 264529, Control_c, 0, 64, 72
1, 264544, Control_c, 0, 64, 86
1, 264559, Control_c, 0, 64, 127
1, 264696, Note_off_c, 0, 76, 60
1, 264768, Note_off_c, 0, 64, 32
1, 264836, Note_off_c, 0, 36, 38
1, 264855, Note_off_c, 0, 48, 33
1, 264873, Note_off_c, 0, 72, 57
1, 265225, Note_on_c, 0, 75, 65
1, 265231, Note_on_c, 0, 71, 59
1, 265233, Note_on_c, 0, 63, 58
1, 265244, Note_on_c, 0, 48, 50
1, 265250, Note_on_c, 0, 36, 44
1, 265278, Note_off_c, 0, 48, 52
1, 265286, Note_off_c, 0, 36, 50
1, 265289, Note_off_c, 0, 63, 63
1, 265296, Note_off_c, 0, 71, 57
1, 265323, Note_off_c, 0, 75, 56
1, 265357, Note_on_c, 0, 72, 63
1, 265361, Note_on_c, 0, 76, 79
1, 265370, Note_on_c, 0, 64, 64
1, 265378, Note_on_c, 0, 48, 59
1, 265384, Note_on_c, 0, 36, 48
1, 265426, Control_c, 0, 64, 89
1, 265441, Control_c, 0, 64, 67
1, 265456, Control_c, 0, 64, 0
1, 266115, Control_c, 0, 64, 51
1, 266130, Control_c, 0, 64, 68
1, 266145, Control_c, 0, 64, 85
1, 266160, Control_c, 0, 64, 127
1, 266266, Note_off_c, 0, 76, 61
1, 266330, Note_off_c, 0, 64, 54
1, 266448, Note_off_c, 0, 48, 31
1, 266455, Note_off_c, 0, 36, 37
1, 266482, Note_off_c, 0, 72, 36
1, 266781, Note_on_c, 0, 75, 60
1, 266789, Note_on_c, 0, 71, 52
1, 266797, Note_on_c, 0, 63, 48
1, 266798, Note_on_c, 0, 48, 47
1, 266815, Note_on_c, 0, 36, 33
1, 266834, Note_off_c, 0, 63, 64
1, 266842, Note_off_c, 0, 48, 46
1, 266845, Note_off_c, 0, 71, 50
1, 266854, Note_off_c, 0, 36, 51
1, 266881, Note_off_c, 0, 75, 55
1, 266914, Note_on_c, 0, 72, 57
1, 266922, Note_on_c, 0, 76, 70
1, 266935, Note_on_c, 0, 64, 54
1, 266939, Control_c, 0, 64, 71
1, 266941, Note_on_c, 0, 48, 41
1, 266954, Control_c, 0, 64, 21
1, 266960, Note_on_c, 0, 36, 37
1, 266968, Control_c, 0, 64, 0
1, 266998, Control_c, 0, 64, 41
1, 267013, Control_c, 0, 64, 56
1, 267028, Control_c, 0, 64, 65
1, 267042, Control_c, 0, 64, 71
1, 267052, Note_off_c, 0, 64, 35
1, 267057, Control_c, 0, 64, 81
1, 267060, Note_off_c, 0, 76, 55
1, 267072, Control_c, 0, 64, 88
1, 267087, Control_c, 0, 64, 93
1, 267102, Control_c, 0, 64, 97
1, 267116, Control_c, 0, 64, 97
1, 267127, Note_off_c, 0, 36, 38
1, 267145, Note_off_c, 0, 48, 33
1, 267188, Note_off_c, 0, 72, 58
1, 267209, Note_on_c, 0, 77, 74
1, 267221, Note_on_c, 0, 71, 56
1, 267224, Note_on_c, 0, 65, 60
1, 267227, Note_on_c, 0, 48, 36
1, 267236, Note_on_c, 0, 36, 39
1, 267312, Note_off_c, 0, 48, 50
1, 267322, Note_off_c, 0, 65, 56
1, 267324, Note_off_c, 0, 77, 57
1, 267329, Note_off_c, 0, 36, 38
1, 267432, Note_off_c, 0, 71, 60
1, 267434, Note_on_c, 0, 76, 78
1, 267443, Note_on_c, 0, 72, 63
1, 267449, Note_on_c, 0, 64, 65
1, 267460, Note_on_c, 0, 48, 48
1, 267462, Note_on_c, 0, 36, 48
1, 267516, Note_off_c, 0, 36, 53
1, 267525, Control_c, 0, 64, 98
1, 267540, Control_c, 0, 64, 99
1, 267540, Note_off_c, 0, 64, 53
1, 267547, Note_off_c, 0, 48, 36
1, 267555, Control_c, 0, 64, 104
1, 267570, Control_c, 0, 64, 115
1, 267584, Control_c, 0, 64, 119
1, 267599, Control_c, 0, 64, 111
1, 267614, Control_c, 0, 64, 83
1, 267629, Control_c, 0, 64, 64
1, 267644, Control_c, 0, 64, 43
1, 267656, Note_on_c, 0, 74, 70
1, 267659, Note_on_c, 0, 71, 59
1, 267659, Control_c, 0, 64, 43
1, 267659, Note_on_c, 0, 62, 65
1, 267665, Note_on_c, 0, 36, 49
1, 267666, Note_off_c, 0, 76, 63
1, 267673, Control_c, 0, 64, 56
1, 267674, Note_on_c, 0, 48, 55
1, 267688, Control_c, 0, 64, 62
1, 267692, Note_off_c, 0, 72, 26
1, 267703, Control_c, 0, 64, 68
1, 267717, Control_c, 0, 64, 78
1, 267732, Control_c, 0, 64, 89
1, 267736, Note_off_c, 0, 71, 62
1, 267744, Note_off_c, 0, 48, 53
1, 267747, Control_c, 0, 64, 97
1, 267748, Note_off_c, 0, 36, 54
1, 267757, Note_off_c, 0, 74, 64
1, 267762, Control_c, 0, 64, 103
1, 267770, Note_off_c, 0, 62, 58
1, 267777, Control_c, 0, 64, 115
1, 267791, Control_c, 0, 64, 127
1, 267821, Control_c, 0, 64, 111
1, 267835, Control_c, 0, 64, 85
1, 267850, Control_c, 0, 64, 70
1, 267865, Control_c, 0, 64, 64
1, 267874, Note_on_c, 0, 72, 69
1, 267880, Note_on_c, 0, 69, 59
1, 267880, Control_c, 0, 64, 65
1, 267888, Note_on_c, 0, 60, 54
1, 267892, Note_on_c, 0, 36, 52
1, 267895, Control_c, 0, 64, 68
1, 267896, Note_on_c, 0, 48, 41
1, 267909, Control_c, 0, 64, 75
1, 267924, Control_c, 0, 64, 84
1, 267926, Note_off_c, 0, 48, 51
1, 267940, Control_c, 0, 64, 87
1, 267984, Note_off_c, 0, 60, 53
1, 268070, Note_off_c, 0, 69, 53
1, 268082, Control_c, 0, 64, 86
1, 268088, Note_off_c, 0, 36, 39
1, 268096, Control_c, 0, 64, 76
1, 268100, Note_off_c, 0, 72, 63
1, 268111, Note_on_c, 0, 67, 58
1, 268111, Control_c, 0, 64, 58
1, 268112, Note_on_c, 0, 71, 66
1, 268115, Note_on_c, 0, 37, 57
1, 268117, Note_on_c, 0, 59, 61
1, 268119, Note_on_c, 0, 49, 49
1, 268126, Control_c, 0, 64, 0
1, 268185, Control_c, 0, 64, 49
1, 268200, Control_c, 0, 64, 66
1, 268201, Note_off_c, 0, 67, 61
1, 268214, Control_c, 0, 64, 74
1, 268229, Control_c, 0, 64, 83
1, 268244, Control_c, 0, 64, 87
1, 268252, Note_off_c, 0, 71, 57
1, 268255, Note_off_c, 0, 59, 60
1, 268259, Control_c, 0, 64, 89
1, 268274, Control_c, 0, 64, 91
1, 268288, Control_c, 0, 64, 92
1, 268303, Control_c, 0, 64, 93
1, 268318, Control_c, 0, 64, 94
1, 268333, Control_c, 0, 64, 95
1, 268348, Control_c, 0, 64, 98
1, 268362, Control_c, 0, 64, 100
1, 268364, Note_off_c, 0, 49, 56
1, 268377, Control_c, 0, 64, 102
1, 268392, Control_c, 0, 64, 102
1, 268407, Control_c, 0, 64, 102
1, 268422, Control_c, 0, 64, 93
1, 268425, Note_on_c, 0, 69, 59
1, 268425, Note_on_c, 0, 66, 55
1, 268435, Note_off_c, 0, 37, 31
1, 268437, Control_c, 0, 64, 72
1, 268446, Note_on_c, 0, 57, 48
1, 268452, Control_c, 0, 64, 51
1, 268452, Note_on_c, 0, 38, 49
1, 268453, Note_on_c, 0, 50, 48
1, 268466, Control_c, 0, 64, 0
1, 268496, Control_c, 0, 64, 8
1, 268511, Control_c, 0, 64, 51
1, 268526, Control_c, 0, 64, 62
1, 268531, Note_off_c, 0, 50, 61
1, 268540, Control_c, 0, 64, 68
1, 268555, Control_c, 0, 64, 74
1, 268570, Control_c, 0, 64, 82
1, 268571, Note_off_c, 0, 57, 53
1, 268585, Control_c, 0, 64, 86
1, 268596, Note_off_c, 0, 69, 54
1, 268600, Control_c, 0, 64, 88
1, 268614, Control_c, 0, 64, 90
1, 268629, Control_c, 0, 64, 91
1, 268639, Note_off_c, 0, 38, 53
1, 268644, Control_c, 0, 64, 92
1, 268658, Control_c, 0, 64, 97
1, 268672, Note_off_c, 0, 66, 47
1, 268673, Control_c, 0, 64, 106
1, 268688, Control_c, 0, 64, 114
1, 268703, Control_c, 0, 64, 118
1, 268734, Control_c, 0, 64, 116
1, 268749, Control_c, 0, 64, 95
1, 268750, Note_on_c, 0, 38, 69
1, 268771, Control_c, 0, 64, 68
1, 268786, Control_c, 0, 64, 28
1, 268801, Control_c, 0, 64, 0
1, 268830, Control_c, 0, 64, 20
1, 268845, Control_c, 0, 64, 52
1, 268860, Control_c, 0, 64, 62
1, 268875, Control_c, 0, 64, 70
1, 268889, Control_c, 0, 64, 77
1, 268904, Control_c, 0, 64, 81
1, 268919, Control_c, 0, 64, 82
1, 268934, Control_c, 0, 64, 83
1, 268947, Note_off_c, 0, 38, 58
1, 268949, Control_c, 0, 64, 87
1, 268964, Control_c, 0, 64, 97
1, 268978, Control_c, 0, 64, 101
1, 268993, Control_c, 0, 64, 99
1, 269008, Control_c, 0, 64, 79
1, 269023, Control_c, 0, 64, 60
1, 269028, Note_on_c, 0, 36, 76
1, 269038, Control_c, 0, 64, 0
1, 269067, Control_c, 0, 64, 31
1, 269082, Control_c, 0, 64, 56
1, 269096, Control_c, 0, 64, 65
1, 269111, Control_c, 0, 64, 76
1, 269126, Control_c, 0, 64, 92
1, 269141, Control_c, 0, 64, 107
1, 269156, Control_c, 0, 64, 127
1, 269201, Note_off_c, 0, 36, 58
1, 269245, Control_c, 0, 64, 84
1, 269260, Control_c, 0, 64, 50
1, 269261, Note_on_c, 0, 35, 81
1, 269275, Control_c, 0, 64, 0
1, 269319, Control_c, 0, 64, 28
1, 269334, Control_c, 0, 64, 62
1, 269349, Control_c, 0, 64, 74
1, 269363, Control_c, 0, 64, 91
1, 269378, Control_c, 0, 64, 127
1, 269430, Note_off_c, 0, 35, 62
1, 269467, Control_c, 0, 64, 99
1, 269481, Control_c, 0, 64, 61
1, 269496, Control_c, 0, 64, 0
1, 269503, Note_on_c, 0, 33, 88
1, 269533, Control_c, 0, 64, 34
1, 269549, Control_c, 0, 64, 63
1, 269564, Control_c, 0, 64, 83
1, 269579, Control_c, 0, 64, 127
1, 269643, Note_off_c, 0, 33, 62
1, 269771, Control_c, 0, 64, 67
1, 269786, Control_c, 0, 64, 0
1, 269790, Note_on_c, 0, 31, 90
1, 269845, Control_c, 0, 64, 46
1, 269853, Note_off_c, 0, 31, 64
1, 269860, Control_c, 0, 64, 73
1, 269874, Control_c, 0, 64, 127
1, 270284, Note_on_c, 0, 71, 81
1, 270285, Note_on_c, 0, 67, 80
1, 270286, Note_on_c, 0, 59, 80
1, 270295, Note_on_c, 0, 43, 73
1, 270295, Note_on_c, 0, 50, 70
1, 270372, Control_c, 0, 64, 82
1, 270387, Control_c, 0, 64, 50
1, 270402, Control_c, 0, 64, 0
1, 270816, Control_c, 0, 64, 12
1, 270831, Control_c, 0, 64, 22
1, 270846, Control_c, 0, 64, 25
1, 270890, Control_c, 0, 64, 26
1, 270905, Control_c, 0, 64, 29
1, 270920, Control_c, 0, 64, 32
1, 270935, Control_c, 0, 64, 33
1, 270980, Control_c, 0, 64, 32
1, 270995, Control_c, 0, 64, 30
1, 271016, Control_c, 0, 64, 29
1, 271031, Control_c, 0, 64, 31
1, 271046, Control_c, 0, 64, 37
1, 271060, Control_c, 0, 64, 48
1, 271075, Control_c, 0, 64, 61
1, 271090, Control_c, 0, 64, 68
1, 271105, Control_c, 0, 64, 76
1, 271120, Control_c, 0, 64, 87
1, 271136, Control_c, 0, 64, 98
1, 271151, Control_c, 0, 64, 125
1, 271165, Control_c, 0, 64, 127
1, 271400, Note_off_c, 0, 71, 38
1, 271427, Note_off_c, 0, 59, 37
1, 271445, Note_off_c, 0, 50, 33
1, 271482, Note_off_c, 0, 43, 37
1, 271564, Note_off_c, 0, 67, 53
1, 271746, Note_on_c, 0, 69, 78
1, 271748, Note_on_c, 0, 66, 79
1, 271761, Note_on_c, 0, 43, 63
1, 271761, Note_on_c, 0, 50, 61
1, 271761, Note_on_c, 0, 60, 73
1, 271812, Note_off_c, 0, 43, 57
1, 271824, Note_off_c, 0, 60, 60
1, 271826, Note_off_c, 0, 50, 54
1, 271845, Note_off_c, 0, 66, 59
1, 271861, Note_off_c, 0, 69, 62
1, 271888, Note_on_c, 0, 71, 88
1, 271889, Note_on_c, 0, 50, 56
1, 271889, Note_on_c, 0, 67, 78
1, 271895, Note_on_c, 0, 59, 85
1, 271896, Note_on_c, 0, 43, 63
1, 271944, Control_c, 0, 64, 72
1, 271959, Control_c, 0, 64, 0
1, 272151, Control_c, 0, 64, 28
1, 272166, Control_c, 0, 64, 38
1, 272181, Control_c, 0, 64, 41
1, 272241, Control_c, 0, 64, 42
1, 272255, Control_c, 0, 64, 43
1, 272270, Control_c, 0, 64, 44
1, 272285, Control_c, 0, 64, 44
1, 272300, Control_c, 0, 64, 45
1, 272314, Control_c, 0, 64, 45
1, 272329, Control_c, 0, 64, 46
1, 272344, Control_c, 0, 64, 47
1, 272359, Control_c, 0, 64, 48
1, 272374, Control_c, 0, 64, 49
1, 272418, Control_c, 0, 64, 49
1, 272572, Control_c, 0, 64, 48
1, 272586, Control_c, 0, 64, 47
1, 272601, Control_c, 0, 64, 44
1, 272616, Control_c, 0, 64, 43
1, 272631, Control_c, 0, 64, 44
1, 272646, Control_c, 0, 64, 50
1, 272661, Control_c, 0, 64, 60
1, 272676, Control_c, 0, 64, 70
1, 272691, Control_c, 0, 64, 101
1, 272706, Control_c, 0, 64, 127
1, 272902, Note_off_c, 0, 59, 34
1, 272926, Note_off_c, 0, 71, 47
1, 272977, Note_off_c, 0, 50, 28
1, 272981, Note_off_c, 0, 43, 39
1, 273137, Note_off_c, 0, 67, 37
1, 273235, Note_on_c, 0, 69, 73
1, 273239, Note_on_c, 0, 60, 67
1, 273242, Note_on_c, 0, 66, 65
1, 273257, Note_on_c, 0, 43, 55
1, 273263, Note_on_c, 0, 50, 51
1, 273299, Note_off_c, 0, 66, 57
1, 273304, Note_off_c, 0, 50, 62
1, 273305, Note_off_c, 0, 60, 61
1, 273308, Note_off_c, 0, 43, 57
1, 273332, Note_off_c, 0, 69, 60
1, 273372, Note_on_c, 0, 71, 84
1, 273379, Note_on_c, 0, 67, 71
1, 273380, Control_c, 0, 64, 73
1, 273383, Note_on_c, 0, 59, 69
1, 273388, Note_on_c, 0, 50, 54
1, 273393, Note_on_c, 0, 43, 51
1, 273395, Control_c, 0, 64, 0
1, 273454, Control_c, 0, 64, 52
1, 273469, Control_c, 0, 64, 66
1, 273484, Control_c, 0, 64, 75
1, 273499, Control_c, 0, 64, 90
1, 273504, Note_off_c, 0, 59, 55
1, 273509, Note_off_c, 0, 71, 58
1, 273513, Control_c, 0, 64, 99
1, 273519, Note_off_c, 0, 67, 60
1, 273528, Note_off_c, 0, 50, 49
1, 273528, Control_c, 0, 64, 100
1, 273544, Note_off_c, 0, 43, 41
1, 273544, Control_c, 0, 64, 100
1, 273615, Note_on_c, 0, 72, 83
1, 273621, Note_on_c, 0, 60, 78
1, 273623, Note_on_c, 0, 69, 78
1, 273624, Note_on_c, 0, 50, 52
1, 273627, Note_on_c, 0, 43, 55
1, 273648, Control_c, 0, 64, 102
1, 273663, Control_c, 0, 64, 108
1, 273677, Control_c, 0, 64, 127
1, 273678, Note_off_c, 0, 43, 56
1, 273702, Note_off_c, 0, 50, 56
1, 273708, Note_off_c, 0, 60, 58
1, 273725, Note_off_c, 0, 72, 64
1, 273739, Note_off_c, 0, 69, 63
1, 273815, Note_on_c, 0, 74, 84
1, 273821, Note_on_c, 0, 62, 84
1, 273823, Note_on_c, 0, 43, 55
1, 273823, Note_on_c, 0, 71, 83
1, 273829, Note_on_c, 0, 50, 61
1, 273876, Note_off_c, 0, 62, 61
1, 273880, Note_off_c, 0, 50, 61
1, 273884, Note_off_c, 0, 71, 61
1, 273892, Note_off_c, 0, 74, 64
1, 273911, Note_off_c, 0, 43, 51
1, 274123, Note_on_c, 0, 71, 84
1, 274145, Control_c, 0, 64, 77
1, 274145, Note_on_c, 0, 59, 65
1, 274148, Note_on_c, 0, 39, 53
1, 274149, Note_on_c, 0, 51, 53
1, 274151, Note_on_c, 0, 66, 68
1, 274159, Control_c, 0, 64, 49
1, 274174, Control_c, 0, 64, 0
1, 274248, Control_c, 0, 64, 51
1, 274263, Control_c, 0, 64, 65
1, 274277, Control_c, 0, 64, 71
1, 274292, Control_c, 0, 64, 79
1, 274307, Control_c, 0, 64, 85
1, 274311, Note_off_c, 0, 59, 57
1, 274322, Control_c, 0, 64, 97
1, 274326, Note_off_c, 0, 66, 58
1, 274330, Note_off_c, 0, 51, 46
1, 274338, Control_c, 0, 64, 127
1, 274345, Note_off_c, 0, 39, 58
1, 274412, Control_c, 0, 64, 88
1, 274416, Note_off_c, 0, 71, 57
1, 274427, Note_on_c, 0, 69, 76
1, 274427, Control_c, 0, 64, 71
1, 274435, Note_on_c, 0, 66, 74
1, 274442, Control_c, 0, 64, 68
1, 274444, Note_on_c, 0, 60, 61
1, 274453, Note_on_c, 0, 51, 59
1, 274456, Control_c, 0, 64, 71
1, 274458, Note_on_c, 0, 39, 53
1, 274471, Control_c, 0, 64, 79
1, 274486, Control_c, 0, 64, 100
1, 274501, Control_c, 0, 64, 127
1, 274526, Note_off_c, 0, 60, 55
1, 274537, Note_off_c, 0, 66, 62
1, 274545, Note_off_c, 0, 39, 58
1, 274545, Note_off_c, 0, 69, 64
1, 274546, Note_off_c, 0, 51, 50
1, 274590, Control_c, 0, 64, 118
1, 274604, Control_c, 0, 64, 75
1, 274619, Control_c, 0, 64, 66
1, 274634, Control_c, 0, 64, 65
1, 274634, Note_on_c, 0, 69, 74
1, 274643, Note_on_c, 0, 60, 62
1, 274643, Note_on_c, 0, 66, 70
1, 274649, Control_c, 0, 64, 67
1, 274656, Note_on_c, 0, 51, 55
1, 274659, Note_on_c, 0, 39, 51
1, 274664, Control_c, 0, 64, 72
1, 274679, Control_c, 0, 64, 80
1, 274694, Control_c, 0, 64, 96
1, 274708, Control_c, 0, 64, 119
1, 274723, Control_c, 0, 64, 127
1, 274734, Note_off_c, 0, 60, 51
1, 274800, Note_off_c, 0, 51, 54
1, 274830, Note_off_c, 0, 39, 34
1, 274861, Note_off_c, 0, 69, 54
1, 274910, Note_off_c, 0, 66, 40
1, 274968, Control_c, 0, 64, 104
1, 274982, Control_c, 0, 64, 85
1, 274986, Note_on_c, 0, 67, 67
1, 274997, Control_c, 0, 64, 72
1, 275004, Note_on_c, 0, 64, 57
1, 275006, Note_on_c, 0, 59, 54
1, 275012, Control_c, 0, 64, 61
1, 275024, Note_on_c, 0, 52, 47
1, 275026, Control_c, 0, 64, 0
1, 275035, Note_on_c, 0, 40, 47
1, 275131, Control_c, 0, 64, 53
1, 275146, Control_c, 0, 64, 64
1, 275161, Control_c, 0, 64, 71
1, 275172, Note_off_c, 0, 59, 58
1, 275176, Control_c, 0, 64, 89
1, 275191, Control_c, 0, 64, 127
1, 275200, Note_off_c, 0, 64, 63
1, 275244, Note_off_c, 0, 40, 55
1, 275263, Note_off_c, 0, 52, 66
1, 275304, Note_off_c, 0, 67, 31
1, 275386, Note_on_c, 0, 64, 56
1, 275398, Control_c, 0, 64, 89
1, 275412, Control_c, 0, 64, 64
1, 275427, Control_c, 0, 64, 0
1, 275487, Control_c, 0, 64, 55
1, 275509, Control_c, 0, 64, 66
1, 275523, Control_c, 0, 64, 74
1, 275538, Control_c, 0, 64, 87
1, 275552, Control_c, 0, 64, 114
1, 275567, Control_c, 0, 64, 127
1, 275591, Note_off_c, 0, 64, 57
1, 275642, Control_c, 0, 64, 93
1, 275651, Note_on_c, 0, 66, 69
1, 275656, Control_c, 0, 64, 63
1, 275671, Control_c, 0, 64, 32
1, 275686, Control_c, 0, 64, 43
1, 275701, Control_c, 0, 64, 60
1, 275716, Control_c, 0, 64, 68
1, 275730, Control_c, 0, 64, 85
1, 275745, Control_c, 0, 64, 127
1, 275806, Note_off_c, 0, 66, 64
1, 275819, Control_c, 0, 64, 112
1, 275834, Control_c, 0, 64, 73
1, 275848, Note_on_c, 0, 67, 78
1, 275849, Control_c, 0, 64, 60
1, 275863, Control_c, 0, 64, 61
1, 275878, Control_c, 0, 64, 67
1, 275893, Control_c, 0, 64, 79
1, 275908, Control_c, 0, 64, 127
1, 275983, Control_c, 0, 64, 101
1, 275998, Control_c, 0, 64, 70
1, 276013, Control_c, 0, 64, 61
1, 276018, Note_off_c, 0, 67, 57
1, 276027, Control_c, 0, 64, 63
1, 276042, Control_c, 0, 64, 70
1, 276057, Control_c, 0, 64, 86
1, 276061, Note_on_c, 0, 69, 83
1, 276071, Control_c, 0, 64, 127
1, 276205, Control_c, 0, 64, 91
1, 276220, Control_c, 0, 64, 55
1, 276234, Note_off_c, 0, 69, 61
1, 276235, Control_c, 0, 64, 0
1, 276270, Note_on_c, 0, 71, 85
1, 276286, Control_c, 0, 64, 56
1, 276301, Control_c, 0, 64, 70
1, 276316, Control_c, 0, 64, 83
1, 276331, Control_c, 0, 64, 104
1, 276346, Control_c, 0, 64, 127
1, 276408, Note_off_c, 0, 71, 57
1, 276541, Note_on_c, 0, 71, 75
1, 276563, Note_on_c, 0, 67, 63
1, 276569, Note_on_c, 0, 64, 58
1, 276575, Note_on_c, 0, 45, 47
1, 276578, Note_on_c, 0, 33, 51
1, 276657, Control_c, 0, 64, 94
1, 276672, Control_c, 0, 64, 77
1, 276686, Control_c, 0, 64, 64
1, 276701, Control_c, 0, 64, 0
1, 277234, Note_on_c, 0, 73, 66
1, 277264, Note_off_c, 0, 71, 59
1, 277302, Control_c, 0, 64, 40
1, 277317, Note_off_c, 0, 64, 57
1, 277317, Control_c, 0, 64, 63
1, 277332, Control_c, 0, 64, 69
1, 277341, Note_off_c, 0, 67, 58
1, 277347, Control_c, 0, 64, 76
1, 277362, Control_c, 0, 64, 83
1, 277377, Control_c, 0, 64, 92
1, 277386, Note_off_c, 0, 45, 59
1, 277392, Control_c, 0, 64, 102
1, 277407, Control_c, 0, 64, 119
1, 277410, Note_off_c, 0, 73, 60
1, 277415, Note_off_c, 0, 33, 40
1, 277421, Control_c, 0, 64, 127
1, 277615, Control_c, 0, 64, 79
1, 277630, Control_c, 0, 64, 50
1, 277644, Control_c, 0, 64, 0
1, 277718, Control_c, 0, 64, 54
1, 277733, Control_c, 0, 64, 65
1, 277743, Note_on_c, 0, 68, 73
1, 277743, Note_on_c, 0, 73, 78
1, 277755, Note_on_c, 0, 65, 71
1, 277755, Control_c, 0, 64, 72
1, 277763, Note_on_c, 0, 45, 61
1, 277767, Note_on_c, 0, 33, 59
1, 277770, Control_c, 0, 64, 83
1, 277785, Control_c, 0, 64, 98
1, 277797, Note_off_c, 0, 65, 61
1, 277800, Note_off_c, 0, 45, 64
1, 277800, Control_c, 0, 64, 127
1, 277803, Note_off_c, 0, 33, 62
1, 277807, Note_off_c, 0, 68, 59
1, 277811, Note_off_c, 0, 73, 62
1, 277868, Note_on_c, 0, 73, 83
1, 277878, Note_on_c, 0, 69, 77
1, 277882, Note_on_c, 0, 66, 82
1, 277891, Note_on_c, 0, 45, 60
1, 277902, Note_on_c, 0, 33, 53
1, 277919, Control_c, 0, 64, 90
1, 277933, Control_c, 0, 64, 67
1, 277948, Control_c, 0, 64, 0
1, 278491, Note_on_c, 0, 74, 81
1, 278512, Note_off_c, 0, 73, 58
1, 278578, Control_c, 0, 64, 31
1, 278593, Control_c, 0, 64, 61
1, 278594, Note_off_c, 0, 33, 61
1, 278605, Note_off_c, 0, 66, 64
1, 278608, Control_c, 0, 64, 69
1, 278610, Note_off_c, 0, 45, 61
1, 278623, Control_c, 0, 64, 79
1, 278631, Note_off_c, 0, 69, 62
1, 278635, Note_off_c, 0, 74, 58
1, 278638, Control_c, 0, 64, 88
1, 278653, Control_c, 0, 64, 95
1, 278667, Control_c, 0, 64, 99
1, 278682, Control_c, 0, 64, 101
1, 278697, Control_c, 0, 64, 102
1, 278712, Control_c, 0, 64, 102
1, 278727, Control_c, 0, 64, 103
1, 278800, Control_c, 0, 64, 103
1, 278860, Control_c, 0, 64, 102
1, 278874, Control_c, 0, 64, 84
1, 278889, Control_c, 0, 64, 66
1, 278904, Control_c, 0, 64, 0
1, 278949, Note_on_c, 0, 74, 60
1, 278954, Note_on_c, 0, 69, 61
1, 278957, Note_on_c, 0, 66, 54
1, 278959, Note_on_c, 0, 45, 52
1, 278962, Note_on_c, 0, 33, 51
1, 278963, Control_c, 0, 64, 53
1, 278978, Control_c, 0, 64, 65
1, 278992, Control_c, 0, 64, 72
1, 278994, Note_off_c, 0, 66, 63
1, 278994, Note_off_c, 0, 74, 61
1, 278996, Note_off_c, 0, 45, 63
1, 279001, Note_off_c, 0, 33, 56
1, 279007, Note_off_c, 0, 69, 62
1, 279007, Control_c, 0, 64, 79
1, 279022, Control_c, 0, 64, 82
1, 279037, Control_c, 0, 64, 85
1, 279052, Note_on_c, 0, 74, 65
1, 279052, Control_c, 0, 64, 88
1, 279058, Note_on_c, 0, 69, 45
1, 279067, Control_c, 0, 64, 92
1, 279070, Note_on_c, 0, 66, 63
1, 279082, Control_c, 0, 64, 98
1, 279086, Note_on_c, 0, 33, 43
1, 279097, Control_c, 0, 64, 105
1, 279097, Note_on_c, 0, 45, 39
1, 279112, Control_c, 0, 64, 111
1, 279127, Control_c, 0, 64, 127
1, 279156, Note_off_c, 0, 45, 48
1, 279174, Note_off_c, 0, 74, 61
1, 279176, Note_off_c, 0, 66, 65
1, 279177, Note_off_c, 0, 69, 57
1, 279193, Note_off_c, 0, 33, 36
1, 279271, Note_on_c, 0, 74, 82
1, 279277, Note_on_c, 0, 67, 68
1, 279280, Note_on_c, 0, 71, 66
1, 279285, Note_on_c, 0, 33, 45
1, 279285, Note_on_c, 0, 45, 53
1, 279370, Note_off_c, 0, 45, 52
1, 279382, Note_off_c, 0, 71, 46
1, 279387, Note_off_c, 0, 74, 59
1, 279395, Note_off_c, 0, 67, 52
1, 279404, Note_off_c, 0, 33, 33
1, 279460, Control_c, 0, 64, 94
1, 279468, Note_on_c, 0, 74, 85
1, 279469, Note_on_c, 0, 67, 72
1, 279472, Note_on_c, 0, 71, 66
1, 279473, Note_on_c, 0, 33, 50
1, 279475, Control_c, 0, 64, 64
1, 279478, Note_on_c, 0, 45, 57
1, 279490, Control_c, 0, 64, 54
1, 279505, Control_c, 0, 64, 61
1, 279520, Control_c, 0, 64, 67
1, 279535, Control_c, 0, 64, 81
1, 279550, Control_c, 0, 64, 127
1, 279578, Note_off_c, 0, 71, 55
1, 279580, Note_off_c, 0, 45, 48
1, 279590, Note_off_c, 0, 74, 61
1, 279612, Note_off_c, 0, 67, 38
1, 279623, Note_off_c, 0, 33, 41
1, 279672, Note_on_c, 0, 74, 86
1, 279673, Note_on_c, 0, 45, 54
1, 279678, Note_on_c, 0, 67, 73
1, 279678, Note_on_c, 0, 33, 49
1, 279684, Note_on_c, 0, 71, 72
1, 279735, Note_off_c, 0, 71, 59
1, 279746, Note_off_c, 0, 67, 55
1, 279772, Note_off_c, 0, 74, 61
1, 279797, Note_off_c, 0, 45, 37
1, 279842, Note_off_c, 0, 33, 38
1, 279884, Note_on_c, 0, 76, 96
1, 279888, Note_on_c, 0, 33, 47
1, 279893, Note_on_c, 0, 67, 79
1, 279895, Note_on_c, 0, 73, 80
1, 279902, Note_on_c, 0, 45, 56
1, 279974, Note_off_c, 0, 45, 54
1, 279985, Note_off_c, 0, 67, 57
1, 279985, Note_off_c, 0, 73, 57
1, 280011, Note_off_c, 0, 76, 61
1, 280045, Note_off_c, 0, 33, 33
1, 280097, Note_on_c, 0, 33, 51
1, 280102, Note_on_c, 0, 76, 88
1, 280104, Note_on_c, 0, 45, 67
1, 280105, Note_on_c, 0, 67, 82
1, 280106, Note_on_c, 0, 73, 83
1, 280189, Note_off_c, 0, 67, 59
1, 280212, Note_off_c, 0, 76, 60
1, 280218, Note_off_c, 0, 73, 51
1, 280238, Note_off_c, 0, 33, 44
1, 280238, Note_off_c, 0, 45, 40
1, 280379, Note_on_c, 0, 78, 86
1, 280381, Note_on_c, 0, 74, 76
1, 280384, Note_on_c, 0, 66, 80
1, 280385, Note_on_c, 0, 45, 66
1, 280386, Note_on_c, 0, 38, 67
1, 280387, Control_c, 0, 64, 81
1, 280401, Control_c, 0, 64, 0
1, 280475, Control_c, 0, 64, 61
1, 280490, Note_off_c, 0, 66, 66
1, 280490, Control_c, 0, 64, 90
1, 280505, Control_c, 0, 64, 127
1, 280510, Note_off_c, 0, 74, 63
1, 280563, Note_off_c, 0, 78, 64
1, 280572, Note_off_c, 0, 38, 51
1, 280619, Note_off_c, 0, 45, 63
1, 280664, Note_on_c, 0, 81, 84
1, 280773, Note_off_c, 0, 81, 60
1, 280877, Note_on_c, 0, 81, 85
1, 280999, Note_off_c, 0, 81, 56
1, 281062, Control_c, 0, 64, 71
1, 281076, Control_c, 0, 64, 0
1, 281102, Note_on_c, 0, 81, 75
1, 281136, Control_c, 0, 64, 57
1, 281151, Control_c, 0, 64, 74
1, 281165, Control_c, 0, 64, 110
1, 281180, Control_c, 0, 64, 127
1, 281223, Note_off_c, 0, 81, 59
1, 281312, Note_on_c, 0, 81, 73
1, 281411, Note_off_c, 0, 81, 53
1, 281517, Note_on_c, 0, 81, 71
1, 281562, Note_off_c, 0, 81, 60
1, 281775, Note_on_c, 0, 74, 63
1, 281781, Control_c, 0, 64, 82
1, 281789, Note_on_c, 0, 66, 51
1, 281791, Note_on_c, 0, 45, 45
1, 281792, Note_on_c, 0, 69, 56
1, 281793, Note_on_c, 0, 33, 45
1, 281796, Control_c, 0, 64, 60
1, 281811, Control_c, 0, 64, 0
1, 281840, Control_c, 0, 64, 45
1, 281855, Control_c, 0, 64, 58
1, 281870, Control_c, 0, 64, 63
1, 281885, Control_c, 0, 64, 68
1, 281899, Control_c, 0, 64, 73
1, 281914, Control_c, 0, 64, 77
1, 281915, Note_off_c, 0, 45, 51
1, 281928, Note_off_c, 0, 74, 58
1, 281929, Control_c, 0, 64, 79
1, 281932, Note_off_c, 0, 69, 56
1, 281937, Note_off_c, 0, 66, 65
1, 281944, Note_off_c, 0, 33, 38
1, 281944, Control_c, 0, 64, 79
1, 281959, Control_c, 0, 64, 80
1, 282009, Note_on_c, 0, 74, 66
1, 282018, Note_on_c, 0, 45, 44
1, 282021, Note_on_c, 0, 71, 60
1, 282023, Note_on_c, 0, 33, 38
1, 282024, Note_on_c, 0, 67, 58
1, 282033, Control_c, 0, 64, 80
1, 282063, Control_c, 0, 64, 81
1, 282078, Control_c, 0, 64, 83
1, 282084, Note_off_c, 0, 45, 54
1, 282085, Note_off_c, 0, 33, 54
1, 282092, Control_c, 0, 64, 84
1, 282107, Control_c, 0, 64, 89
1, 282107, Note_off_c, 0, 71, 56
1, 282121, Note_off_c, 0, 74, 59
1, 282122, Control_c, 0, 64, 98
1, 282137, Control_c, 0, 64, 116
1, 282150, Note_off_c, 0, 67, 38
1, 282152, Control_c, 0, 64, 127
1, 282203, Note_on_c, 0, 74, 70
1, 282209, Note_on_c, 0, 71, 59
1, 282213, Note_on_c, 0, 45, 47
1, 282215, Note_on_c, 0, 33, 43
1, 282217, Note_on_c, 0, 67, 53
1, 282225, Control_c, 0, 64, 92
1, 282248, Control_c, 0, 64, 67
1, 282262, Control_c, 0, 64, 53
1, 282277, Control_c, 0, 64, 59
1, 282292, Control_c, 0, 64, 64
1, 282307, Control_c, 0, 64, 68
1, 282322, Note_off_c, 0, 45, 39
1, 282322, Control_c, 0, 64, 77
1, 282325, Note_off_c, 0, 33, 37
1, 282331, Note_off_c, 0, 74, 59
1, 282332, Note_off_c, 0, 71, 53
1, 282337, Control_c, 0, 64, 98
1, 282352, Control_c, 0, 64, 127
1, 282358, Note_off_c, 0, 67, 37
1, 282397, Control_c, 0, 64, 109
1, 282411, Control_c, 0, 64, 86
1, 282426, Control_c, 0, 64, 82
1, 282429, Note_on_c, 0, 45, 46
1, 282432, Note_on_c, 0, 74, 74
1, 282433, Note_on_c, 0, 71, 60
1, 282440, Note_on_c, 0, 33, 40
1, 282444, Note_on_c, 0, 67, 59
1, 282456, Control_c, 0, 64, 82
1, 282471, Control_c, 0, 64, 87
1, 282486, Control_c, 0, 64, 95
1, 282489, Note_off_c, 0, 71, 61
1, 282501, Control_c, 0, 64, 103
1, 282515, Control_c, 0, 64, 105
1, 282525, Note_off_c, 0, 67, 38
1, 282530, Control_c, 0, 64, 105
1, 282531, Note_off_c, 0, 74, 59
1, 282541, Note_off_c, 0, 45, 39
1, 282542, Note_off_c, 0, 33, 34
1, 282647, Note_on_c, 0, 76, 82
1, 282662, Note_on_c, 0, 45, 46
1, 282664, Note_on_c, 0, 67, 65
1, 282666, Note_on_c, 0, 33, 41
1, 282671, Note_on_c, 0, 73, 58
1, 282733, Note_off_c, 0, 33, 52
1, 282733, Note_off_c, 0, 45, 50
1, 282735, Note_off_c, 0, 67, 53
1, 282743, Note_off_c, 0, 73, 36
1, 282758, Note_off_c, 0, 76, 62
1, 282865, Note_on_c, 0, 76, 85
1, 282879, Note_on_c, 0, 67, 67
1, 282883, Note_on_c, 0, 33, 45
1, 282883, Note_on_c, 0, 45, 49
1, 282883, Note_on_c, 0, 73, 64
1, 282941, Note_off_c, 0, 67, 60
1, 282960, Note_off_c, 0, 45, 57
1, 282977, Note_off_c, 0, 76, 61
1, 282981, Note_off_c, 0, 33, 35
1, 283000, Note_off_c, 0, 73, 57
1, 283166, Note_on_c, 0, 78, 80
1, 283175, Note_on_c, 0, 74, 63
1, 283175, Control_c, 0, 64, 100
1, 283187, Note_on_c, 0, 66, 61
1, 283189, Control_c, 0, 64, 77
1, 283201, Note_on_c, 0, 38, 48
1, 283204, Control_c, 0, 64, 47
1, 283206, Note_on_c, 0, 45, 43
1, 283219, Control_c, 0, 64, 0
1, 283279, Control_c, 0, 64, 58
1, 283286, Note_off_c, 0, 74, 61
1, 283288, Note_off_c, 0, 66, 64
1, 283294, Control_c, 0, 64, 73
1, 283309, Control_c, 0, 64, 110
1, 283324, Control_c, 0, 64, 127
1, 283359, Note_off_c, 0, 78, 64
1, 283452, Note_off_c, 0, 45, 43
1, 283456, Note_off_c, 0, 38, 40
1, 283473, Note_on_c, 0, 81, 74
1, 283577, Note_off_c, 0, 81, 57
1, 283691, Note_on_c, 0, 81, 70
1, 283800, Note_off_c, 0, 81, 58
1, 283878, Control_c, 0, 64, 81
1, 283893, Control_c, 0, 64, 54
1, 283908, Control_c, 0, 64, 0
1, 283916, Note_on_c, 0, 81, 65
1, 283939, Control_c, 0, 64, 55
1, 283954, Control_c, 0, 64, 64
1, 283968, Control_c, 0, 64, 75
1, 283983, Control_c, 0, 64, 110
1, 283998, Control_c, 0, 64, 127
1, 284033, Note_off_c, 0, 81, 54
1, 284123, Note_on_c, 0, 81, 53
1, 284191, Control_c, 0, 67, 10
1, 284206, Control_c, 0, 67, 15
1, 284206, Note_off_c, 0, 81, 57
1, 284220, Control_c, 0, 67, 19
1, 284235, Control_c, 0, 67, 22
1, 284250, Control_c, 0, 67, 26
1, 284265, Control_c, 0, 67, 29
1, 284280, Control_c, 0, 67, 31
1, 284294, Control_c, 0, 67, 33
1, 284309, Control_c, 0, 67, 34
1, 284324, Control_c, 0, 67, 37
1, 284327, Note_on_c, 0, 81, 59
1, 284339, Control_c, 0, 67, 40
1, 284354, Control_c, 0, 67, 43
1, 284358, Note_off_c, 0, 81, 63
1, 284368, Control_c, 0, 67, 46
1, 284383, Control_c, 0, 67, 48
1, 284398, Control_c, 0, 67, 50
1, 284412, Control_c, 0, 67, 52
1, 284427, Control_c, 0, 67, 54
1, 284442, Control_c, 0, 67, 57
1, 284457, Control_c, 0, 67, 60
1, 284472, Control_c, 0, 67, 64
1, 284494, Control_c, 0, 67, 67
1, 284509, Control_c, 0, 67, 70
1, 284524, Control_c, 0, 67, 72
1, 284538, Control_c, 0, 67, 74
1, 284553, Control_c, 0, 67, 77
1, 284568, Control_c, 0, 67, 81
1, 284583, Control_c, 0, 64, 107
1, 284583, Control_c, 0, 67, 84
1, 284598, Control_c, 0, 64, 72
1, 284598, Control_c, 0, 67, 87
1, 284601, Note_on_c, 0, 74, 56
1, 284610, Note_on_c, 0, 69, 44
1, 284611, Note_on_c, 0, 66, 40
1, 284613, Control_c, 0, 64, 50
1, 284613, Control_c, 0, 67, 89
1, 284616, Note_on_c, 0, 45, 30
1, 284621, Note_on_c, 0, 33, 30
1, 284627, Control_c, 0, 64, 0
1, 284627, Control_c, 0, 67, 90
1, 284642, Control_c, 0, 64, 49
1, 284657, Control_c, 0, 64, 61
1, 284672, Control_c, 0, 64, 66
1, 284686, Control_c, 0, 64, 73
1, 284701, Control_c, 0, 64, 85
1, 284717, Control_c, 0, 64, 98
1, 284732, Control_c, 0, 64, 112
1, 284743, Note_off_c, 0, 74, 57
1, 284747, Note_off_c, 0, 33, 42
1, 284747, Control_c, 0, 64, 127
1, 284749, Note_off_c, 0, 45, 34
1, 284751, Note_off_c, 0, 66, 55
1, 284770, Note_off_c, 0, 69, 38
1, 284791, Control_c, 0, 64, 97
1, 284806, Control_c, 0, 64, 75
1, 284821, Control_c, 0, 64, 64
1, 284823, Note_on_c, 0, 74, 53
1, 284835, Note_on_c, 0, 71, 57
1, 284836, Control_c, 0, 64, 63
1, 284837, Note_on_c, 0, 45, 36
1, 284841, Note_on_c, 0, 33, 35
1, 284841, Note_on_c, 0, 67, 55
1, 284850, Control_c, 0, 64, 65
1, 284865, Control_c, 0, 64, 69
1, 284880, Control_c, 0, 64, 75
1, 284880, Control_c, 0, 67, 90
1, 284895, Control_c, 0, 64, 82
1, 284910, Control_c, 0, 64, 87
1, 284924, Control_c, 0, 64, 91
1, 284928, Note_off_c, 0, 71, 50
1, 284931, Note_off_c, 0, 33, 37
1, 284933, Note_off_c, 0, 45, 37
1, 284938, Note_off_c, 0, 74, 55
1, 284939, Control_c, 0, 64, 95
1, 284954, Control_c, 0, 64, 98
1, 284961, Note_off_c, 0, 67, 38
1, 284984, Control_c, 0, 64, 94
1, 284999, Control_c, 0, 64, 78
1, 285014, Control_c, 0, 64, 66
1, 285026, Note_on_c, 0, 74, 53
1, 285029, Note_on_c, 0, 71, 50
1, 285029, Control_c, 0, 64, 61
1, 285029, Control_c, 0, 67, 91
1, 285041, Note_on_c, 0, 67, 47
1, 285042, Note_on_c, 0, 45, 37
1, 285043, Control_c, 0, 64, 62
1, 285051, Note_on_c, 0, 33, 36
1, 285058, Control_c, 0, 64, 66
1, 285058, Control_c, 0, 67, 92
1, 285073, Control_c, 0, 64, 71
1, 285073, Control_c, 0, 67, 94
1, 285088, Control_c, 0, 64, 82
1, 285088, Control_c, 0, 67, 100
1, 285103, Control_c, 0, 64, 97
1, 285103, Control_c, 0, 67, 107
1, 285117, Control_c, 0, 64, 102
1, 285117, Control_c, 0, 67, 115
1, 285122, Note_off_c, 0, 71, 55
1, 285127, Note_off_c, 0, 45, 48
1, 285130, Note_off_c, 0, 33, 40
1, 285132, Control_c, 0, 64, 102
1, 285132, Control_c, 0, 67, 123
1, 285147, Control_c, 0, 67, 127
1, 285158, Note_off_c, 0, 74, 38
1, 285161, Control_c, 0, 64, 103
1, 285176, Control_c, 0, 64, 105
1, 285179, Note_off_c, 0, 67, 35
1, 285191, Control_c, 0, 64, 107
1, 285206, Control_c, 0, 64, 108
1, 285221, Control_c, 0, 64, 107
1, 285243, Control_c, 0, 64, 91
1, 285258, Control_c, 0, 64, 72
1, 285273, Control_c, 0, 64, 58
1, 285285, Note_on_c, 0, 74, 56
1, 285286, Note_on_c, 0, 45, 32
1, 285288, Note_on_c, 0, 71, 45
1, 285288, Control_c, 0, 64, 41
1, 285302, Note_on_c, 0, 33, 33
1, 285303, Note_on_c, 0, 67, 47
1, 285303, Control_c, 0, 64, 50
1, 285317, Control_c, 0, 64, 61
1, 285329, Note_off_c, 0, 71, 61
1, 285332, Control_c, 0, 64, 66
1, 285347, Control_c, 0, 64, 74
1, 285359, Note_off_c, 0, 67, 45
1, 285361, Control_c, 0, 64, 86
1, 285376, Control_c, 0, 64, 94
1, 285386, Note_off_c, 0, 33, 38
1, 285391, Control_c, 0, 64, 95
1, 285392, Note_off_c, 0, 74, 61
1, 285406, Control_c, 0, 64, 96
1, 285413, Note_off_c, 0, 45, 35
1, 285435, Control_c, 0, 64, 97
1, 285450, Control_c, 0, 64, 97
1, 285465, Control_c, 0, 64, 98
1, 285480, Control_c, 0, 64, 98
1, 285511, Control_c, 0, 64, 96
1, 285526, Control_c, 0, 64, 81
1, 285533, Note_on_c, 0, 76, 54
1, 285540, Control_c, 0, 64, 66
1, 285543, Note_on_c, 0, 45, 35
1, 285545, Note_on_c, 0, 73, 49
1, 285553, Note_on_c, 0, 67, 41
1, 285555, Control_c, 0, 64, 44
1, 285563, Note_on_c, 0, 33, 34
1, 285570, Control_c, 0, 64, 0
1, 285585, Control_c, 0, 64, 38
1, 285599, Control_c, 0, 64, 58
1, 285614, Control_c, 0, 64, 66
1, 285623, Note_off_c, 0, 73, 49
1, 285629, Control_c, 0, 64, 73
1, 285630, Note_off_c, 0, 76, 58
1, 285637, Note_off_c, 0, 67, 38
1, 285640, Note_off_c, 0, 33, 40
1, 285644, Control_c, 0, 64, 82
1, 285647, Note_off_c, 0, 45, 40
1, 285659, Control_c, 0, 64, 89
1, 285673, Control_c, 0, 64, 95
1, 285688, Control_c, 0, 64, 103
1, 285703, Control_c, 0, 64, 105
1, 285718, Control_c, 0, 64, 106
1, 285792, Control_c, 0, 64, 105
1, 285799, Note_on_c, 0, 76, 42
1, 285807, Control_c, 0, 64, 92
1, 285814, Note_on_c, 0, 73, 41
1, 285821, Note_on_c, 0, 45, 34
1, 285822, Control_c, 0, 64, 75
1, 285825, Note_on_c, 0, 67, 33
1, 285834, Note_on_c, 0, 33, 28
1, 285837, Control_c, 0, 64, 63
1, 285851, Control_c, 0, 64, 47
1, 285866, Control_c, 0, 64, 46
1, 285873, Note_off_c, 0, 67, 53
1, 285881, Control_c, 0, 64, 57
1, 285896, Control_c, 0, 64, 63
1, 285911, Control_c, 0, 64, 68
1, 285926, Control_c, 0, 64, 75
1, 285929, Note_off_c, 0, 33, 37
1, 285938, Note_off_c, 0, 73, 35
1, 285940, Note_off_c, 0, 45, 42
1, 285940, Control_c, 0, 64, 83
1, 285955, Control_c, 0, 64, 87
1, 285965, Note_off_c, 0, 76, 38
1, 285970, Control_c, 0, 64, 90
1, 285992, Control_c, 0, 64, 93
1, 286005, Control_c, 0, 64, 96
1, 286020, Control_c, 0, 64, 98
1, 286182, Control_c, 0, 64, 97
1, 286197, Control_c, 0, 64, 94
1, 286212, Control_c, 0, 64, 90
1, 286227, Control_c, 0, 64, 86
1, 286242, Control_c, 0, 64, 81
1, 286257, Control_c, 0, 64, 75
1, 286261, Note_on_c, 0, 78, 39
1, 286263, Note_on_c, 0, 74, 31
1, 286272, Control_c, 0, 64, 66
1, 286278, Note_on_c, 0, 66, 31
1, 286281, Note_on_c, 0, 45, 29
1, 286284, Note_on_c, 0, 38, 29
1, 286287, Control_c, 0, 64, 42
1, 286302, Control_c, 0, 64, 0
1, 286391, Note_off_c, 0, 74, 61
1, 286391, Control_c, 0, 64, 58
1, 286405, Note_off_c, 0, 78, 60
1, 286406, Control_c, 0, 64, 70
1, 286421, Control_c, 0, 64, 82
1, 286436, Control_c, 0, 64, 95
1, 286451, Control_c, 0, 64, 105
1, 286466, Control_c, 0, 64, 127
1, 286479, Note_off_c, 0, 66, 46
1, 286482, Note_off_c, 0, 45, 45
1, 286519, Note_off_c, 0, 38, 40
1, 286843, Control_c, 0, 64, 101
1, 286858, Control_c, 0, 64, 83
1, 286865, Note_on_c, 0, 74, 37
1, 286873, Control_c, 0, 64, 68
1, 286886, Note_on_c, 0, 62, 33
1, 286887, Control_c, 0, 64, 45
1, 286902, Control_c, 0, 64, 0
1, 286976, Control_c, 0, 64, 34
1, 286991, Control_c, 0, 64, 60
1, 287006, Control_c, 0, 64, 66
1, 287020, Control_c, 0, 64, 71
1, 287032, Note_off_c, 0, 62, 39
1, 287035, Control_c, 0, 64, 75
1, 287036, Note_off_c, 0, 74, 37
1, 287050, Control_c, 0, 64, 77
1, 287065, Control_c, 0, 64, 79
1, 287080, Control_c, 0, 64, 81
1, 287094, Control_c, 0, 64, 83
1, 287110, Control_c, 0, 64, 84
1, 287125, Control_c, 0, 64, 85
1, 287140, Control_c, 0, 64, 87
1, 287155, Control_c, 0, 64, 89
1, 287170, Control_c, 0, 64, 91
1, 287174, Note_on_c, 0, 74, 43
1, 287184, Control_c, 0, 64, 93
1, 287192, Note_on_c, 0, 62, 32
1, 287199, Control_c, 0, 64, 96
1, 287214, Control_c, 0, 64, 98
1, 287229, Control_c, 0, 64, 99
1, 287244, Control_c, 0, 64, 102
1, 287258, Control_c, 0, 64, 103
1, 287273, Control_c, 0, 64, 105
1, 287282, Note_off_c, 0, 74, 38
1, 287288, Control_c, 0, 64, 106
1, 287295, Note_off_c, 0, 62, 34
1, 287318, Control_c, 0, 64, 106
1, 287398, Note_on_c, 0, 74, 54
1, 287406, Note_on_c, 0, 62, 35
1, 287436, Control_c, 0, 67, 125
1, 287451, Control_c, 0, 67, 119
1, 287466, Control_c, 0, 67, 113
1, 287488, Control_c, 0, 67, 108
1, 287504, Control_c, 0, 67, 103
1, 287515, Note_off_c, 0, 74, 36
1, 287518, Control_c, 0, 67, 100
1, 287533, Note_off_c, 0, 62, 36
1, 287533, Control_c, 0, 67, 97
1, 287548, Control_c, 0, 67, 95
1, 287562, Control_c, 0, 67, 93
1, 287577, Control_c, 0, 67, 91
1, 287592, Control_c, 0, 67, 89
1, 287607, Control_c, 0, 67, 86
1, 287622, Control_c, 0, 67, 85
1, 287624, Note_on_c, 0, 74, 59
1, 287631, Note_on_c, 0, 62, 45
1, 287637, Control_c, 0, 67, 83
1, 287652, Control_c, 0, 67, 81
1, 287667, Control_c, 0, 67, 77
1, 287682, Control_c, 0, 67, 73
1, 287697, Control_c, 0, 67, 69
1, 287709, Note_off_c, 0, 62, 36
1, 287711, Control_c, 0, 67, 65
1, 287726, Control_c, 0, 67, 60
1, 287734, Note_off_c, 0, 74, 37
1, 287741, Control_c, 0, 67, 55
1, 287756, Control_c, 0, 67, 52
1, 287770, Control_c, 0, 67, 49
1, 287785, Control_c, 0, 67, 47
1, 287800, Control_c, 0, 67, 44
1, 287815, Control_c, 0, 67, 42
1, 287830, Control_c, 0, 64, 106
1, 287830, Control_c, 0, 67, 40
1, 287844, Control_c, 0, 64, 104
1, 287844, Control_c, 0, 67, 39
1, 287855, Note_on_c, 0, 74, 56
1, 287859, Control_c, 0, 64, 90
1, 287859, Control_c, 0, 67, 38
1, 287874, Control_c, 0, 64, 75
1, 287874, Control_c, 0, 67, 36
1, 287885, Note_on_c, 0, 57, 34
1, 287887, Note_on_c, 0, 62, 36
1, 287889, Control_c, 0, 64, 63
1, 287889, Control_c, 0, 67, 35
1, 287892, Note_on_c, 0, 54, 36
1, 287905, Control_c, 0, 64, 53
1, 287905, Control_c, 0, 67, 34
1, 287920, Control_c, 0, 64, 55
1, 287920, Control_c, 0, 67, 33
1, 287934, Control_c, 0, 64, 61
1, 287949, Control_c, 0, 64, 64
1, 287964, Control_c, 0, 64, 68
1, 287978, Control_c, 0, 64, 73
1, 287982, Note_off_c, 0, 62, 38
1, 287993, Control_c, 0, 64, 82
1, 287993, Control_c, 0, 67, 35
1, 288008, Control_c, 0, 64, 86
1, 288008, Control_c, 0, 67, 37
1, 288023, Control_c, 0, 64, 86
1, 288023, Control_c, 0, 67, 38
1, 288038, Control_c, 0, 64, 87
1, 288038, Control_c, 0, 67, 40
1, 288052, Control_c, 0, 67, 41
1, 288054, Note_off_c, 0, 57, 35
1, 288064, Note_off_c, 0, 54, 40
1, 288067, Control_c, 0, 67, 41
1, 288082, Control_c, 0, 67, 43
1, 288097, Control_c, 0, 67, 45
1, 288112, Control_c, 0, 67, 47
1, 288126, Control_c, 0, 67, 50
1, 288141, Control_c, 0, 67, 54
1, 288156, Control_c, 0, 67, 57
1, 288171, Control_c, 0, 64, 86
1, 288171, Control_c, 0, 67, 59
1, 288185, Control_c, 0, 64, 85
1, 288185, Control_c, 0, 67, 61
1, 288200, Control_c, 0, 64, 81
1, 288200, Control_c, 0, 67, 63
1, 288215, Control_c, 0, 64, 72
1, 288215, Control_c, 0, 67, 66
1, 288222, Note_on_c, 0, 73, 55
1, 288238, Control_c, 0, 64, 61
1, 288238, Control_c, 0, 67, 72
1, 288253, Control_c, 0, 64, 0
1, 288253, Control_c, 0, 67, 80
1, 288257, Note_on_c, 0, 61, 44
1, 288267, Control_c, 0, 67, 88
1, 288269, Note_on_c, 0, 45, 35
1, 288271, Note_off_c, 0, 74, 63
1, 288282, Control_c, 0, 67, 95
1, 288297, Control_c, 0, 67, 101
1, 288312, Control_c, 0, 67, 107
1, 288327, Control_c, 0, 64, 38
1, 288327, Control_c, 0, 67, 114
1, 288341, Control_c, 0, 64, 63
1, 288341, Control_c, 0, 67, 122
1, 288356, Control_c, 0, 64, 71
1, 288356, Control_c, 0, 67, 127
1, 288371, Control_c, 0, 64, 78
1, 288376, Note_off_c, 0, 45, 52
1, 288385, Control_c, 0, 64, 81
1, 288400, Control_c, 0, 64, 82
1, 288415, Control_c, 0, 64, 82
1, 288445, Control_c, 0, 64, 83
1, 288534, Control_c, 0, 64, 82
1, 288576, Note_on_c, 0, 52, 44
1, 288581, Note_on_c, 0, 55, 35
1, 288593, Control_c, 0, 64, 80
1, 288608, Control_c, 0, 64, 75
1, 288618, Note_off_c, 0, 55, 48
1, 288623, Control_c, 0, 64, 70
1, 288638, Control_c, 0, 64, 65
1, 288648, Note_off_c, 0, 52, 0
1, 288653, Control_c, 0, 64, 62
1, 288662, Note_on_c, 0, 52, 42
1, 288667, Note_on_c, 0, 55, 42
1, 288667, Control_c, 0, 64, 52
1, 288682, Control_c, 0, 64, 36
1, 288683, Note_off_c, 0, 61, 59
1, 288697, Control_c, 0, 64, 14
1, 288713, Control_c, 0, 64, 0
1, 288716, Note_off_c, 0, 73, 62
1, 288740, Note_off_c, 0, 55, 47
1, 288752, Note_off_c, 0, 52, 40
1, 288828, Poly_aftertouch_c, 0, 70, 127
1, 288914, Note_on_c, 0, 71, 51
1, 288925, Note_on_c, 0, 59, 41
1, 288931, Note_on_c, 0, 45, 35
1, 288949, Control_c, 0, 64, 39
1, 288964, Control_c, 0, 64, 62
1, 288987, Control_c, 0, 64, 67
1, 289002, Control_c, 0, 64, 71
1, 289012, Note_off_c, 0, 45, 59
1, 289016, Control_c, 0, 64, 73
1, 289024, Poly_aftertouch_c, 0, 70, 0
1, 289031, Control_c, 0, 64, 75
1, 289046, Control_c, 0, 64, 77
1, 289061, Control_c, 0, 64, 77
1, 289208, Control_c, 0, 64, 77
1, 289238, Control_c, 0, 64, 76
1, 289242, Note_on_c, 0, 50, 45
1, 289245, Note_on_c, 0, 54, 39
1, 289253, Control_c, 0, 64, 74
1, 289268, Control_c, 0, 64, 73
1, 289279, Note_off_c, 0, 54, 49
1, 289282, Control_c, 0, 64, 71
1, 289284, Note_off_c, 0, 50, 55
1, 289297, Control_c, 0, 64, 69
1, 289312, Control_c, 0, 64, 67
1, 289327, Control_c, 0, 64, 65
1, 289342, Control_c, 0, 64, 64
1, 289345, Note_on_c, 0, 50, 33
1, 289352, Note_on_c, 0, 54, 37
1, 289357, Control_c, 0, 64, 63
1, 289372, Control_c, 0, 64, 62
1, 289387, Control_c, 0, 64, 61
1, 289402, Control_c, 0, 64, 60
1, 289405, Note_off_c, 0, 71, 47
1, 289416, Note_off_c, 0, 59, 56
1, 289416, Control_c, 0, 64, 57
1, 289431, Control_c, 0, 64, 52
1, 289432, Note_off_c, 0, 50, 47
1, 289446, Control_c, 0, 64, 44
1, 289449, Note_off_c, 0, 54, 37
1, 289461, Control_c, 0, 64, 19
1, 289476, Control_c, 0, 64, 0
1, 289573, Note_on_c, 0, 69, 50
1, 289594, Note_on_c, 0, 57, 33
1, 289595, Control_c, 0, 64, 45
1, 289609, Note_on_c, 0, 45, 38
1, 289610, Control_c, 0, 64, 64
1, 289624, Note_off_c, 0, 57, 56
1, 289625, Control_c, 0, 64, 70
1, 289627, Note_off_c, 0, 69, 59
1, 289639, Control_c, 0, 64, 73
1, 289654, Control_c, 0, 64, 76
1, 289661, Note_off_c, 0, 45, 59
1, 289669, Control_c, 0, 64, 79
1, 289684, Control_c, 0, 64, 81
1, 289780, Control_c, 0, 64, 77
1, 289795, Control_c, 0, 64, 70
1, 289804, Note_on_c, 0, 73, 63
1, 289810, Control_c, 0, 64, 60
1, 289812, Note_on_c, 0, 61, 47
1, 289820, Note_on_c, 0, 45, 42
1, 289824, Note_on_c, 0, 52, 47
1, 289825, Control_c, 0, 64, 26
1, 289825, Note_on_c, 0, 49, 41
1, 289839, Control_c, 0, 64, 0
1, 289849, Note_off_c, 0, 61, 64
1, 289854, Note_off_c, 0, 73, 51
1, 289861, Note_off_c, 0, 52, 60
1, 289867, Note_off_c, 0, 49, 56
1, 289870, Note_off_c, 0, 45, 58
1, 290001, Note_on_c, 0, 74, 62
1, 290009, Note_on_c, 0, 62, 53
1, 290010, Note_on_c, 0, 50, 46
1, 290013, Note_on_c, 0, 47, 47
1, 290014, Note_on_c, 0, 45, 43
1, 290040, Note_off_c, 0, 62, 56
1, 290049, Note_off_c, 0, 74, 58
1, 290056, Note_off_c, 0, 45, 61
1, 290056, Note_off_c, 0, 47, 61
1, 290058, Note_off_c, 0, 50, 56
1, 290188, Note_on_c, 0, 76, 69
1, 290189, Note_on_c, 0, 49, 46
1, 290191, Note_on_c, 0, 45, 45
1, 290194, Note_on_c, 0, 64, 62
1, 290206, Note_on_c, 0, 52, 42
1, 290227, Note_off_c, 0, 64, 65
1, 290234, Note_off_c, 0, 45, 60
1, 290239, Note_off_c, 0, 52, 61
1, 290248, Note_off_c, 0, 49, 60
1, 290252, Note_off_c, 0, 76, 62
1, 290375, Note_on_c, 0, 78, 75
1, 290386, Note_on_c, 0, 66, 55
1, 290389, Note_on_c, 0, 45, 42
1, 290389, Note_on_c, 0, 54, 53
1, 290395, Note_on_c, 0, 50, 45
1, 290429, Note_off_c, 0, 66, 61
1, 290435, Note_off_c, 0, 50, 58
1, 290436, Note_off_c, 0, 54, 56
1, 290439, Note_off_c, 0, 45, 61
1, 290448, Note_off_c, 0, 78, 61
1, 290574, Note_on_c, 0, 79, 72
1, 290579, Note_on_c, 0, 45, 43
1, 290594, Note_on_c, 0, 67, 58
1, 290597, Note_on_c, 0, 55, 44
1, 290606, Note_on_c, 0, 52, 34
1, 290632, Note_off_c, 0, 55, 56
1, 290636, Note_off_c, 0, 67, 56
1, 290643, Note_off_c, 0, 52, 57
1, 290653, Note_off_c, 0, 79, 59
1, 290654, Note_off_c, 0, 45, 54
1, 290814, Note_on_c, 0, 78, 74
1, 290831, Note_on_c, 0, 66, 55
1, 290852, Note_on_c, 0, 45, 39
1, 290898, Control_c, 0, 64, 44
1, 290913, Control_c, 0, 64, 68
1, 290928, Control_c, 0, 64, 90
1, 290943, Control_c, 0, 64, 127
1, 290949, Note_off_c, 0, 45, 51
1, 291032, Control_c, 0, 64, 96
1, 291047, Control_c, 0, 64, 74
1, 291062, Control_c, 0, 64, 64
1, 291077, Control_c, 0, 64, 55
1, 291092, Control_c, 0, 64, 43
1, 291107, Control_c, 0, 64, 40
1, 291118, Note_on_c, 0, 54, 46
1, 291122, Note_on_c, 0, 50, 51
1, 291122, Control_c, 0, 64, 38
1, 291137, Control_c, 0, 64, 28
1, 291150, Note_off_c, 0, 54, 56
1, 291151, Control_c, 0, 64, 0
1, 291159, Note_off_c, 0, 50, 59
1, 291214, Note_on_c, 0, 54, 57
1, 291220, Note_on_c, 0, 50, 50
1, 291274, Note_off_c, 0, 50, 61
1, 291279, Note_off_c, 0, 54, 50
1, 291299, Note_off_c, 0, 66, 61
1, 291442, Note_on_c, 0, 79, 66
1, 291466, Note_on_c, 0, 67, 52
1, 291473, Note_off_c, 0, 78, 36
1, 291476, Note_on_c, 0, 45, 49
1, 291544, Control_c, 0, 64, 62
1, 291559, Control_c, 0, 64, 76
1, 291574, Control_c, 0, 64, 109
1, 291589, Control_c, 0, 64, 127
1, 291619, Note_off_c, 0, 45, 48
1, 291707, Control_c, 0, 64, 103
1, 291722, Control_c, 0, 64, 84
1, 291736, Control_c, 0, 64, 74
1, 291751, Control_c, 0, 64, 68
1, 291766, Note_on_c, 0, 52, 52
1, 291766, Control_c, 0, 64, 63
1, 291769, Note_on_c, 0, 55, 47
1, 291781, Control_c, 0, 64, 59
1, 291795, Control_c, 0, 64, 55
1, 291798, Note_off_c, 0, 52, 65
1, 291800, Note_off_c, 0, 55, 55
1, 291810, Control_c, 0, 64, 51
1, 291825, Control_c, 0, 64, 47
1, 291840, Control_c, 0, 64, 43
1, 291855, Control_c, 0, 64, 35
1, 291870, Control_c, 0, 64, 18
1, 291877, Note_on_c, 0, 55, 49
1, 291885, Control_c, 0, 64, 0
1, 291885, Note_on_c, 0, 52, 51
1, 291918, Note_off_c, 0, 55, 58
1, 291925, Note_off_c, 0, 52, 63
1, 291943, Note_off_c, 0, 67, 37
1, 292084, Note_off_c, 0, 79, 48
1, 292093, Note_on_c, 0, 81, 58
1, 292111, Note_on_c, 0, 69, 49
1, 292115, Control_c, 0, 64, 44
1, 292123, Note_on_c, 0, 45, 52
1, 292130, Control_c, 0, 64, 65
1, 292145, Control_c, 0, 64, 74
1, 292159, Control_c, 0, 64, 83
1, 292162, Note_off_c, 0, 69, 59
1, 292174, Control_c, 0, 64, 88
1, 292175, Note_off_c, 0, 45, 64
1, 292189, Control_c, 0, 64, 91
1, 292192, Note_off_c, 0, 81, 59
1, 292204, Control_c, 0, 64, 92
1, 292248, Control_c, 0, 67, 127
1, 292293, Control_c, 0, 64, 91
1, 292308, Control_c, 0, 64, 89
1, 292323, Control_c, 0, 64, 84
1, 292337, Note_on_c, 0, 86, 71
1, 292338, Control_c, 0, 64, 78
1, 292343, Note_on_c, 0, 54, 45
1, 292345, Note_on_c, 0, 57, 43
1, 292350, Note_on_c, 0, 74, 53
1, 292352, Control_c, 0, 64, 71
1, 292367, Control_c, 0, 64, 64
1, 292380, Note_off_c, 0, 86, 57
1, 292382, Control_c, 0, 64, 54
1, 292385, Note_off_c, 0, 74, 66
1, 292397, Control_c, 0, 64, 8
1, 292412, Control_c, 0, 64, 0
1, 292441, Control_c, 0, 67, 127
1, 292533, Note_on_c, 0, 86, 72
1, 292544, Note_on_c, 0, 74, 58
1, 292545, Note_off_c, 0, 54, 62
1, 292547, Note_on_c, 0, 53, 53
1, 292552, Note_on_c, 0, 56, 43
1, 292579, Note_off_c, 0, 74, 64
1, 292589, Note_off_c, 0, 57, 45
1, 292592, Note_off_c, 0, 86, 62
1, 292739, Note_on_c, 0, 86, 66
1, 292747, Note_off_c, 0, 56, 62
1, 292749, Note_on_c, 0, 57, 37
1, 292757, Note_on_c, 0, 74, 51
1, 292769, Note_on_c, 0, 54, 50
1, 292773, Note_off_c, 0, 53, 51
1, 292795, Note_off_c, 0, 74, 64
1, 292805, Note_off_c, 0, 86, 61
1, 292941, Note_on_c, 0, 86, 62
1, 292961, Note_on_c, 0, 74, 43
1, 292964, Note_off_c, 0, 54, 52
1, 292973, Note_on_c, 0, 59, 48
1, 292974, Note_on_c, 0, 55, 38
1, 293000, Note_off_c, 0, 74, 64
1, 293008, Note_off_c, 0, 86, 61
1, 293023, Note_off_c, 0, 57, 52
1, 293149, Note_on_c, 0, 86, 77
1, 293151, Note_off_c, 0, 59, 26
1, 293152, Note_off_c, 0, 55, 42
1, 293160, Note_on_c, 0, 54, 54
1, 293169, Note_on_c, 0, 57, 46
1, 293171, Note_on_c, 0, 74, 54
1, 293205, Note_off_c, 0, 54, 62
1, 293226, Note_off_c, 0, 57, 54
1, 293245, Note_off_c, 0, 74, 61
1, 293435, Note_on_c, 0, 85, 79
1, 293454, Note_on_c, 0, 73, 62
1, 293463, Note_on_c, 0, 45, 45
1, 293478, Note_off_c, 0, 86, 63
1, 293494, Control_c, 0, 64, 48
1, 293509, Control_c, 0, 64, 74
1, 293524, Control_c, 0, 64, 127
1, 293575, Note_off_c, 0, 45, 58
1, 293742, Note_on_c, 0, 52, 56
1, 293754, Note_on_c, 0, 55, 37
1, 293786, Note_off_c, 0, 52, 57
1, 293791, Control_c, 0, 64, 83
1, 293796, Note_off_c, 0, 55, 45
1, 293805, Control_c, 0, 64, 65
1, 293820, Control_c, 0, 64, 0
1, 293845, Note_on_c, 0, 52, 54
1, 293846, Note_on_c, 0, 55, 39
1, 293901, Note_off_c, 0, 55, 56
1, 293923, Note_off_c, 0, 52, 55
1, 293925, Note_off_c, 0, 73, 53
1, 293951, Note_off_c, 0, 85, 64
1, 294064, Note_on_c, 0, 83, 66
1, 294086, Note_on_c, 0, 45, 44
1, 294089, Note_on_c, 0, 71, 53
1, 294102, Control_c, 0, 64, 58
1, 294117, Control_c, 0, 64, 80
1, 294131, Control_c, 0, 64, 127
1, 294151, Note_off_c, 0, 45, 60
1, 294364, Note_on_c, 0, 50, 50
1, 294370, Note_on_c, 0, 54, 40
1, 294377, Control_c, 0, 64, 103
1, 294392, Control_c, 0, 64, 84
1, 294401, Note_off_c, 0, 54, 52
1, 294407, Control_c, 0, 64, 69
1, 294422, Control_c, 0, 64, 58
1, 294436, Control_c, 0, 64, 0
1, 294446, Note_off_c, 0, 50, 0
1, 294458, Note_on_c, 0, 50, 39
1, 294467, Note_on_c, 0, 54, 49
1, 294517, Note_off_c, 0, 54, 53
1, 294519, Note_off_c, 0, 50, 54
1, 294535, Note_off_c, 0, 83, 56
1, 294550, Note_off_c, 0, 71, 61
1, 294683, Note_on_c, 0, 81, 59
1, 294687, Note_on_c, 0, 69, 49
1, 294688, Control_c, 0, 64, 54
1, 294702, Control_c, 0, 64, 69
1, 294705, Note_on_c, 0, 45, 45
1, 294717, Control_c, 0, 64, 83
1, 294726, Note_off_c, 0, 69, 65
1, 294732, Control_c, 0, 64, 101
1, 294745, Note_off_c, 0, 81, 57
1, 294746, Control_c, 0, 64, 119
1, 294752, Note_off_c, 0, 45, 60
1, 294761, Control_c, 0, 64, 127
1, 294880, Control_c, 0, 64, 102
1, 294895, Note_on_c, 0, 85, 66
1, 294895, Control_c, 0, 64, 79
1, 294903, Note_on_c, 0, 49, 48
1, 294906, Note_on_c, 0, 52, 52
1, 294908, Note_on_c, 0, 73, 52
1, 294910, Control_c, 0, 64, 65
1, 294915, Note_on_c, 0, 45, 40
1, 294925, Control_c, 0, 64, 48
1, 294937, Note_off_c, 0, 73, 63
1, 294940, Control_c, 0, 64, 0
1, 294940, Note_off_c, 0, 52, 57
1, 294946, Note_off_c, 0, 85, 53
1, 294947, Note_off_c, 0, 49, 47
1, 294957, Note_off_c, 0, 45, 60
1, 295088, Note_on_c, 0, 86, 69
1, 295095, Note_on_c, 0, 74, 61
1, 295105, Note_on_c, 0, 50, 46
1, 295109, Note_on_c, 0, 45, 43
1, 295109, Note_on_c, 0, 47, 47
1, 295146, Note_off_c, 0, 74, 59
1, 295148, Note_off_c, 0, 86, 63
1, 295152, Note_off_c, 0, 50, 55
1, 295156, Note_off_c, 0, 45, 60
1, 295156, Note_off_c, 0, 47, 60
1, 295244, Control_c, 0, 67, 126
1, 295259, Control_c, 0, 67, 123
1, 295274, Control_c, 0, 67, 122
1, 295282, Note_on_c, 0, 88, 73
1, 295286, Note_on_c, 0, 45, 46
1, 295286, Note_on_c, 0, 76, 66
1, 295289, Control_c, 0, 67, 121
1, 295289, Note_on_c, 0, 49, 56
1, 295298, Note_on_c, 0, 52, 50
1, 295303, Control_c, 0, 67, 121
1, 295318, Control_c, 0, 67, 120
1, 295323, Note_off_c, 0, 52, 61
1, 295324, Note_off_c, 0, 76, 62
1, 295326, Note_off_c, 0, 45, 62
1, 295333, Control_c, 0, 67, 119
1, 295346, Note_off_c, 0, 88, 59
1, 295347, Note_off_c, 0, 49, 58
1, 295407, Control_c, 0, 67, 119
1, 295422, Control_c, 0, 67, 120
1, 295451, Control_c, 0, 67, 120
1, 295459, Note_on_c, 0, 90, 81
1, 295474, Note_on_c, 0, 78, 61
1, 295475, Note_on_c, 0, 45, 51
1, 295479, Note_on_c, 0, 54, 55
1, 295484, Note_on_c, 0, 50, 50
1, 295523, Note_off_c, 0, 45, 60
1, 295523, Note_off_c, 0, 50, 61
1, 295535, Note_off_c, 0, 78, 63
1, 295537, Note_off_c, 0, 90, 63
1, 295542, Note_off_c, 0, 54, 59
1, 295653, Note_on_c, 0, 91, 80
1, 295657, Note_on_c, 0, 45, 49
1, 295666, Note_on_c, 0, 52, 54
1, 295666, Note_on_c, 0, 55, 55
1, 295668, Note_on_c, 0, 79, 64
1, 295688, Control_c, 0, 67, 121
1, 295703, Control_c, 0, 67, 122
1, 295703, Note_off_c, 0, 55, 59
1, 295709, Note_off_c, 0, 52, 62
1, 295709, Note_off_c, 0, 79, 57
1, 295725, Control_c, 0, 67, 122
1, 295730, Note_off_c, 0, 45, 59
1, 295740, Control_c, 0, 67, 123
1, 295755, Control_c, 0, 67, 124
1, 295757, Note_off_c, 0, 91, 57
1, 295770, Control_c, 0, 67, 124
1, 295784, Control_c, 0, 67, 125
1, 295873, Control_c, 0, 67, 124
1, 295879, Note_on_c, 0, 90, 89
1, 295888, Control_c, 0, 67, 123
1, 295890, Note_on_c, 0, 78, 74
1, 295904, Control_c, 0, 67, 122
1, 295906, Note_on_c, 0, 45, 42
1, 295948, Control_c, 0, 64, 57
1, 295963, Control_c, 0, 64, 71
1, 295963, Control_c, 0, 67, 123
1, 295978, Control_c, 0, 64, 90
1, 295978, Control_c, 0, 67, 125
1, 295993, Control_c, 0, 64, 127
1, 295993, Control_c, 0, 67, 126
1, 296002, Note_off_c, 0, 45, 59
1, 296007, Control_c, 0, 67, 127
1, 296156, Control_c, 0, 64, 110
1, 296168, Note_on_c, 0, 50, 53
1, 296168, Note_on_c, 0, 54, 48
1, 296171, Control_c, 0, 64, 96
1, 296186, Control_c, 0, 64, 87
1, 296198, Note_off_c, 0, 50, 56
1, 296200, Control_c, 0, 64, 77
1, 296201, Note_off_c, 0, 54, 50
1, 296215, Control_c, 0, 64, 67
1, 296230, Control_c, 0, 64, 60
1, 296245, Control_c, 0, 64, 48
1, 296260, Control_c, 0, 64, 33
1, 296269, Note_on_c, 0, 54, 52
1, 296274, Control_c, 0, 64, 19
1, 296275, Note_on_c, 0, 50, 48
1, 296289, Control_c, 0, 64, 0
1, 296327, Note_off_c, 0, 50, 56
1, 296357, Note_off_c, 0, 54, 49
1, 296384, Note_off_c, 0, 78, 63
1, 296495, Note_on_c, 0, 91, 71
1, 296519, Note_on_c, 0, 79, 57
1, 296525, Note_off_c, 0, 90, 59
1, 296527, Note_on_c, 0, 45, 46
1, 296607, Control_c, 0, 64, 28
1, 296622, Control_c, 0, 64, 62
1, 296637, Control_c, 0, 64, 68
1, 296651, Control_c, 0, 64, 72
1, 296666, Control_c, 0, 64, 75
1, 296669, Note_off_c, 0, 45, 49
1, 296681, Control_c, 0, 64, 76
1, 296786, Control_c, 0, 64, 75
1, 296801, Control_c, 0, 64, 74
1, 296816, Control_c, 0, 64, 73
1, 296830, Control_c, 0, 64, 71
1, 296831, Note_on_c, 0, 52, 53
1, 296834, Note_on_c, 0, 55, 43
1, 296845, Control_c, 0, 64, 69
1, 296860, Note_off_c, 0, 52, 60
1, 296860, Control_c, 0, 64, 67
1, 296866, Note_off_c, 0, 55, 53
1, 296875, Control_c, 0, 64, 65
1, 296890, Control_c, 0, 64, 63
1, 296905, Control_c, 0, 64, 61
1, 296920, Control_c, 0, 64, 59
1, 296934, Control_c, 0, 64, 54
1, 296949, Note_on_c, 0, 55, 43
1, 296949, Control_c, 0, 64, 46
1, 296955, Note_on_c, 0, 52, 51
1, 296964, Control_c, 0, 64, 28
1, 296979, Control_c, 0, 64, 0
1, 297016, Note_off_c, 0, 52, 52
1, 297024, Note_off_c, 0, 55, 51
1, 297025, Note_off_c, 0, 79, 35
1, 297263, Note_on_c, 0, 93, 54
1, 297275, Note_on_c, 0, 81, 32
1, 297283, Note_on_c, 0, 45, 37
1, 297311, Note_off_c, 0, 91, 54
1, 297313, Control_c, 0, 64, 46
1, 297328, Control_c, 0, 64, 64
1, 297343, Control_c, 0, 64, 72
1, 297350, Note_off_c, 0, 93, 61
1, 297357, Control_c, 0, 64, 83
1, 297372, Note_off_c, 0, 45, 62
1, 297372, Control_c, 0, 64, 98
1, 297380, Note_off_c, 0, 81, 52
1, 297387, Control_c, 0, 64, 111
1, 297402, Control_c, 0, 64, 127
1, 297580, Control_c, 0, 64, 125
1, 297595, Control_c, 0, 64, 113
1, 297610, Control_c, 0, 64, 106
1, 297620, Note_on_c, 0, 81, 58
1, 297625, Control_c, 0, 64, 100
1, 297637, Note_on_c, 0, 69, 44
1, 297640, Note_on_c, 0, 54, 39
1, 297640, Control_c, 0, 64, 97
1, 297645, Note_on_c, 0, 57, 33
1, 297654, Control_c, 0, 64, 95
1, 297669, Control_c, 0, 64, 94
1, 297684, Control_c, 0, 64, 92
1, 297698, Control_c, 0, 64, 90
1, 297713, Control_c, 0, 64, 88
1, 297728, Control_c, 0, 64, 87
1, 297743, Control_c, 0, 64, 85
1, 297745, Note_off_c, 0, 81, 55
1, 297758, Control_c, 0, 64, 83
1, 297772, Note_off_c, 0, 69, 44
1, 297772, Control_c, 0, 64, 81
1, 297787, Control_c, 0, 64, 80
1, 297802, Control_c, 0, 64, 78
1, 297817, Control_c, 0, 64, 77
1, 297832, Control_c, 0, 64, 75
1, 297844, Note_on_c, 0, 81, 65
1, 297847, Control_c, 0, 64, 73
1, 297860, Note_on_c, 0, 69, 48
1, 297861, Note_on_c, 0, 56, 47
1, 297862, Control_c, 0, 64, 71
1, 297869, Note_off_c, 0, 54, 50
1, 297876, Control_c, 0, 64, 70
1, 297887, Note_on_c, 0, 53, 21
1, 297891, Control_c, 0, 64, 68
1, 297906, Control_c, 0, 64, 67
1, 297921, Control_c, 0, 64, 66
1, 297936, Control_c, 0, 64, 64
1, 297940, Note_off_c, 0, 57, 41
1, 297940, Poly_aftertouch_c, 0, 55, 127
1, 297942, Note_off_c, 0, 69, 53
1, 297948, Note_off_c, 0, 81, 57
1, 297951, Control_c, 0, 64, 63
1, 297972, Control_c, 0, 64, 62
1, 297983, Poly_aftertouch_c, 0, 55, 0
1, 297987, Control_c, 0, 64, 61
1, 298002, Control_c, 0, 64, 60
1, 298017, Control_c, 0, 64, 60
1, 298032, Control_c, 0, 64, 59
1, 298046, Control_c, 0, 64, 58
1, 298061, Control_c, 0, 64, 58
1, 298067, Note_on_c, 0, 81, 69
1, 298070, Note_on_c, 0, 69, 57
1, 298076, Control_c, 0, 64, 57
1, 298078, Note_on_c, 0, 54, 54
1, 298078, Note_on_c, 0, 57, 41
1, 298083, Note_off_c, 0, 56, 62
1, 298091, Control_c, 0, 64, 57
1, 298103, Note_off_c, 0, 53, 40
1, 298106, Control_c, 0, 64, 55
1, 298121, Control_c, 0, 64, 54
1, 298136, Control_c, 0, 64, 52
1, 298151, Control_c, 0, 64, 52
1, 298166, Control_c, 0, 64, 51
1, 298174, Note_off_c, 0, 69, 59
1, 298175, Note_off_c, 0, 81, 56
1, 298180, Control_c, 0, 64, 50
1, 298195, Control_c, 0, 64, 48
1, 298210, Control_c, 0, 64, 47
1, 298225, Control_c, 0, 64, 46
1, 298254, Control_c, 0, 64, 46
1, 298269, Control_c, 0, 64, 45
1, 298273, Note_on_c, 0, 81, 69
1, 298282, Note_on_c, 0, 55, 52
1, 298283, Note_off_c, 0, 54, 56
1, 298284, Control_c, 0, 64, 44
1, 298288, Note_on_c, 0, 59, 51
1, 298288, Note_on_c, 0, 69, 62
1, 298300, Control_c, 0, 64, 43
1, 298314, Control_c, 0, 64, 40
1, 298329, Control_c, 0, 64, 37
1, 298341, Note_off_c, 0, 57, 53
1, 298344, Control_c, 0, 64, 34
1, 298359, Control_c, 0, 64, 31
1, 298367, Note_off_c, 0, 69, 60
1, 298367, Note_off_c, 0, 81, 58
1, 298374, Control_c, 0, 64, 23
1, 298388, Control_c, 0, 64, 0
1, 298462, Control_c, 0, 67, 123
1, 298472, Note_on_c, 0, 81, 74
1, 298472, Note_off_c, 0, 55, 60
1, 298473, Note_off_c, 0, 59, 60
1, 298474, Note_on_c, 0, 54, 54
1, 298477, Control_c, 0, 67, 119
1, 298479, Note_on_c, 0, 69, 62
1, 298481, Note_on_c, 0, 57, 45
1, 298492, Control_c, 0, 67, 115
1, 298507, Control_c, 0, 67, 109
1, 298521, Control_c, 0, 67, 103
1, 298522, Note_off_c, 0, 54, 62
1, 298536, Control_c, 0, 67, 96
1, 298551, Control_c, 0, 67, 88
1, 298565, Note_off_c, 0, 69, 62
1, 298566, Control_c, 0, 67, 81
1, 298581, Control_c, 0, 67, 76
1, 298592, Note_off_c, 0, 81, 58
1, 298595, Control_c, 0, 67, 72
1, 298604, Note_off_c, 0, 57, 42
1, 298610, Control_c, 0, 67, 70
1, 298625, Control_c, 0, 67, 69
1, 298640, Control_c, 0, 67, 68
1, 298721, Control_c, 0, 67, 68
1, 298732, Note_on_c, 0, 83, 77
1, 298750, Control_c, 0, 67, 69
1, 298755, Note_on_c, 0, 45, 45
1, 298756, Note_on_c, 0, 71, 58
1, 298765, Control_c, 0, 67, 69
1, 298780, Control_c, 0, 67, 70
1, 298794, Control_c, 0, 67, 70
1, 298809, Control_c, 0, 67, 71
1, 298824, Control_c, 0, 67, 72
1, 298839, Control_c, 0, 67, 73
1, 298853, Control_c, 0, 64, 37
1, 298853, Control_c, 0, 67, 74
1, 298868, Control_c, 0, 64, 64
1, 298868, Control_c, 0, 67, 75
1, 298883, Control_c, 0, 64, 74
1, 298883, Control_c, 0, 67, 76
1, 298898, Control_c, 0, 64, 88
1, 298898, Control_c, 0, 67, 77
1, 298913, Control_c, 0, 64, 100
1, 298913, Control_c, 0, 67, 79
1, 298927, Control_c, 0, 64, 127
1, 298927, Control_c, 0, 67, 81
1, 298942, Control_c, 0, 67, 84
1, 298957, Control_c, 0, 67, 86
1, 298972, Control_c, 0, 67, 91
1, 298987, Control_c, 0, 67, 97
1, 299001, Control_c, 0, 67, 102
1, 299016, Control_c, 0, 67, 106
1, 299031, Control_c, 0, 67, 110
1, 299045, Control_c, 0, 67, 115
1, 299047, Note_on_c, 0, 59, 53
1, 299049, Note_on_c, 0, 57, 47
1, 299050, Note_on_c, 0, 54, 50
1, 299053, Note_off_c, 0, 71, 37
1, 299060, Control_c, 0, 67, 120
1, 299075, Control_c, 0, 67, 126
1, 299081, Note_off_c, 0, 54, 59
1, 299088, Note_off_c, 0, 59, 55
1, 299091, Note_off_c, 0, 57, 50
1, 299091, Control_c, 0, 67, 127
1, 299164, Note_on_c, 0, 57, 42
1, 299164, Note_on_c, 0, 59, 42
1, 299167, Note_on_c, 0, 54, 57
1, 299203, Note_off_c, 0, 83, 61
1, 299215, Note_off_c, 0, 54, 54
1, 299269, Note_off_c, 0, 59, 35
1, 299275, Note_off_c, 0, 45, 42
1, 299284, Note_off_c, 0, 57, 32
1, 299431, Note_on_c, 0, 95, 77
1, 299451, Note_on_c, 0, 83, 60
1, 299476, Note_on_c, 0, 45, 45
1, 299525, Note_off_c, 0, 83, 57
1, 299532, Note_off_c, 0, 95, 66
1, 299785, Note_on_c, 0, 51, 39
1, 299789, Note_on_c, 0, 59, 38
1, 299790, Note_on_c, 0, 54, 42
1, 299796, Note_on_c, 0, 57, 38
1, 299828, Note_off_c, 0, 57, 51
1, 299838, Note_off_c, 0, 59, 46
1, 299838, Note_off_c, 0, 54, 43
1, 299903, Note_off_c, 0, 51, 0
1, 299919, Note_on_c, 0, 54, 31
1, 299923, Note_on_c, 0, 59, 41
1, 299927, Note_on_c, 0, 51, 6
1, 299933, Note_on_c, 0, 57, 32
1, 299972, Note_off_c, 0, 57, 47
1, 299981, Note_off_c, 0, 59, 42
1, 299992, Note_off_c, 0, 51, 40
1, 300009, Note_off_c, 0, 45, 42
1, 300049, Note_off_c, 0, 54, 36
1, 300106, Control_c, 0, 64, 100
1, 300121, Control_c, 0, 64, 69
1, 300136, Control_c, 0, 64, 25
1, 300151, Control_c, 0, 64, 19
1, 300157, Note_on_c, 0, 93, 72
1, 300163, Note_on_c, 0, 45, 46
1, 300166, Control_c, 0, 64, 54
1, 300177, Note_on_c, 0, 81, 55
1, 300181, Control_c, 0, 64, 62
1, 300196, Control_c, 0, 64, 65
1, 300218, Control_c, 0, 64, 69
1, 300233, Control_c, 0, 64, 71
1, 300235, Note_off_c, 0, 45, 64
1, 300246, Note_off_c, 0, 81, 58
1, 300247, Note_off_c, 0, 93, 58
1, 300321, Control_c, 0, 64, 70
1, 300336, Control_c, 0, 64, 68
1, 300351, Control_c, 0, 64, 65
1, 300365, Control_c, 0, 64, 63
1, 300378, Note_on_c, 0, 91, 68
1, 300380, Note_on_c, 0, 55, 55
1, 300380, Control_c, 0, 64, 60
1, 300385, Note_on_c, 0, 79, 55
1, 300393, Note_on_c, 0, 52, 50
1, 300395, Control_c, 0, 64, 57
1, 300410, Control_c, 0, 64, 52
1, 300419, Note_off_c, 0, 79, 62
1, 300425, Control_c, 0, 64, 45
1, 300440, Control_c, 0, 64, 36
1, 300449, Note_off_c, 0, 91, 56
1, 300455, Control_c, 0, 64, 29
1, 300470, Control_c, 0, 64, 27
1, 300499, Control_c, 0, 64, 23
1, 300514, Control_c, 0, 64, 0
1, 300544, Note_off_c, 0, 52, 51
1, 300558, Note_on_c, 0, 90, 70
1, 300570, Note_on_c, 0, 54, 47
1, 300573, Note_off_c, 0, 55, 55
1, 300577, Note_on_c, 0, 78, 52
1, 300587, Note_on_c, 0, 57, 47
1, 300635, Note_off_c, 0, 78, 58
1, 300646, Note_off_c, 0, 90, 62
1, 300757, Note_off_c, 0, 57, 53
1, 300759, Note_off_c, 0, 54, 59
1, 300775, Note_on_c, 0, 88, 57
1, 300782, Note_on_c, 0, 76, 56
1, 300787, Note_on_c, 0, 59, 45
1, 300795, Note_on_c, 0, 55, 40
1, 300841, Note_off_c, 0, 76, 64
1, 300874, Note_off_c, 0, 88, 58
1, 300991, Note_on_c, 0, 90, 57
1, 300997, Note_off_c, 0, 55, 53
1, 301003, Note_on_c, 0, 54, 45
1, 301004, Note_on_c, 0, 78, 39
1, 301018, Note_on_c, 0, 57, 38
1, 301033, Note_off_c, 0, 59, 35
1, 301063, Note_off_c, 0, 78, 56
1, 301090, Note_off_c, 0, 90, 53
1, 301126, Note_off_c, 0, 54, 53
1, 301185, Note_on_c, 0, 91, 59
1, 301200, Note_on_c, 0, 79, 49
1, 301201, Note_off_c, 0, 57, 36
1, 301208, Note_on_c, 0, 55, 34
1, 301209, Note_on_c, 0, 52, 48
1, 301236, Note_off_c, 0, 55, 56
1, 301237, Note_off_c, 0, 91, 52
1, 301256, Note_off_c, 0, 79, 54
1, 301260, Note_off_c, 0, 52, 65
1, 301487, Note_on_c, 0, 81, 71
1, 301501, Note_on_c, 0, 45, 43
1, 301502, Note_on_c, 0, 69, 52
1, 301605, Control_c, 0, 64, 50
1, 301619, Control_c, 0, 64, 62
1, 301634, Control_c, 0, 64, 68
1, 301649, Control_c, 0, 64, 73
1, 301663, Control_c, 0, 64, 79
1, 301678, Control_c, 0, 64, 83
1, 301693, Control_c, 0, 64, 87
1, 301716, Control_c, 0, 64, 90
1, 301731, Control_c, 0, 64, 91
1, 301745, Control_c, 0, 64, 91
1, 301775, Control_c, 0, 64, 92
1, 301802, Note_on_c, 0, 52, 51
1, 301811, Note_on_c, 0, 57, 37
1, 301814, Note_on_c, 0, 55, 34
1, 301830, Note_off_c, 0, 69, 39
1, 301836, Note_off_c, 0, 52, 56
1, 301856, Note_off_c, 0, 57, 44
1, 301857, Note_off_c, 0, 55, 46
1, 301922, Note_on_c, 0, 52, 40
1, 301922, Note_on_c, 0, 57, 27
1, 301926, Note_on_c, 0, 55, 22
1, 301971, Note_off_c, 0, 81, 60
1, 301975, Note_off_c, 0, 52, 45
1, 302020, Note_off_c, 0, 45, 59
1, 302068, Note_off_c, 0, 57, 38
1, 302079, Note_off_c, 0, 55, 40
1, 302190, Control_c, 0, 64, 88
1, 302191, Note_on_c, 0, 93, 66
1, 302203, Note_on_c, 0, 81, 55
1, 302205, Control_c, 0, 64, 74
1, 302213, Note_on_c, 0, 45, 36
1, 302219, Control_c, 0, 64, 62
1, 302234, Control_c, 0, 64, 27
1, 302249, Control_c, 0, 64, 44
1, 302263, Control_c, 0, 64, 59
1, 302279, Control_c, 0, 64, 64
1, 302294, Control_c, 0, 64, 68
1, 302309, Control_c, 0, 64, 74
1, 302324, Control_c, 0, 64, 80
1, 302329, Note_off_c, 0, 81, 54
1, 302333, Note_off_c, 0, 93, 59
1, 302339, Control_c, 0, 64, 82
1, 302520, Note_on_c, 0, 57, 41
1, 302524, Note_on_c, 0, 55, 37
1, 302528, Note_on_c, 0, 52, 40
1, 302536, Note_on_c, 0, 49, 32
1, 302565, Note_off_c, 0, 52, 50
1, 302568, Note_off_c, 0, 55, 45
1, 302572, Note_off_c, 0, 49, 47
1, 302612, Note_off_c, 0, 57, 0
1, 302626, Note_on_c, 0, 57, 33
1, 302631, Note_on_c, 0, 55, 31
1, 302646, Note_on_c, 0, 52, 38
1, 302652, Note_on_c, 0, 49, 37
1, 302696, Note_off_c, 0, 52, 48
1, 302717, Note_off_c, 0, 49, 37
1, 302731, Control_c, 0, 64, 81
1, 302732, Note_off_c, 0, 45, 44
1, 302735, Note_off_c, 0, 57, 34
1, 302750, Note_off_c, 0, 55, 38
1, 302834, Control_c, 0, 64, 81
1, 302849, Control_c, 0, 64, 80
1, 302864, Control_c, 0, 64, 77
1, 302879, Control_c, 0, 64, 70
1, 302893, Control_c, 0, 64, 63
1, 302902, Note_on_c, 0, 91, 58
1, 302908, Control_c, 0, 64, 50
1, 302918, Note_on_c, 0, 45, 42
1, 302919, Note_on_c, 0, 79, 43
1, 302923, Control_c, 0, 64, 48
1, 302938, Control_c, 0, 64, 55
1, 302953, Control_c, 0, 64, 61
1, 302968, Control_c, 0, 64, 64
1, 302973, Note_off_c, 0, 79, 58
1, 302980, Note_off_c, 0, 45, 64
1, 302983, Control_c, 0, 64, 66
1, 302998, Control_c, 0, 64, 67
1, 303012, Control_c, 0, 64, 68
1, 303057, Control_c, 0, 64, 67
1, 303072, Control_c, 0, 64, 66
1, 303087, Control_c, 0, 64, 66
1, 303102, Control_c, 0, 64, 65
1, 303111, Note_on_c, 0, 90, 67
1, 303113, Note_off_c, 0, 91, 59
1, 303117, Control_c, 0, 64, 64
1, 303123, Note_on_c, 0, 54, 48
1, 303132, Note_on_c, 0, 78, 49
1, 303132, Control_c, 0, 64, 63
1, 303146, Note_on_c, 0, 50, 43
1, 303191, Control_c, 0, 64, 63
1, 303212, Note_off_c, 0, 78, 62
1, 303213, Control_c, 0, 64, 62
1, 303228, Control_c, 0, 64, 61
1, 303231, Note_off_c, 0, 90, 64
1, 303243, Control_c, 0, 64, 61
1, 303258, Control_c, 0, 64, 60
1, 303287, Control_c, 0, 64, 59
1, 303302, Control_c, 0, 64, 59
1, 303305, Note_off_c, 0, 54, 57
1, 303312, Note_on_c, 0, 88, 61
1, 303317, Control_c, 0, 64, 58
1, 303331, Control_c, 0, 64, 57
1, 303335, Note_on_c, 0, 52, 42
1, 303335, Note_on_c, 0, 76, 52
1, 303338, Note_off_c, 0, 50, 41
1, 303343, Note_on_c, 0, 55, 35
1, 303346, Control_c, 0, 64, 56
1, 303361, Control_c, 0, 64, 55
1, 303376, Control_c, 0, 64, 54
1, 303391, Control_c, 0, 64, 52
1, 303404, Note_off_c, 0, 76, 59
1, 303406, Control_c, 0, 64, 51
1, 303421, Control_c, 0, 64, 50
1, 303435, Control_c, 0, 64, 48
1, 303450, Control_c, 0, 64, 46
1, 303465, Control_c, 0, 64, 43
1, 303480, Control_c, 0, 64, 38
1, 303495, Control_c, 0, 64, 31
1, 303509, Control_c, 0, 64, 23
1, 303524, Control_c, 0, 64, 10
1, 303539, Control_c, 0, 64, 0
1, 303543, Note_off_c, 0, 88, 59
1, 303546, Note_on_c, 0, 86, 59
1, 303554, Note_off_c, 0, 52, 42
1, 303560, Note_on_c, 0, 57, 32
1, 303567, Note_on_c, 0, 54, 46
1, 303569, Note_on_c, 0, 74, 35
1, 303572, Note_off_c, 0, 55, 42
1, 303623, Note_off_c, 0, 74, 54
1, 303755, Note_off_c, 0, 86, 58
1, 303770, Note_on_c, 0, 88, 53
1, 303779, Note_off_c, 0, 54, 55
1, 303794, Note_off_c, 0, 57, 40
1, 303800, Note_on_c, 0, 52, 43
1, 303802, Note_on_c, 0, 76, 33
1, 303814, Note_on_c, 0, 55, 29
1, 303829, Note_off_c, 0, 76, 59
1, 303962, Note_off_c, 0, 52, 57
1, 304001, Note_on_c, 0, 90, 54
1, 304008, Note_off_c, 0, 88, 54
1, 304014, Note_off_c, 0, 55, 40
1, 304026, Note_on_c, 0, 54, 35
1, 304036, Note_on_c, 0, 50, 38
1, 304040, Note_on_c, 0, 78, 29
1, 304071, Note_off_c, 0, 54, 62
1, 304073, Note_off_c, 0, 90, 62
1, 304086, Note_off_c, 0, 78, 55
1, 304096, Note_off_c, 0, 50, 62
1, 304318, Note_on_c, 0, 78, 59
1, 304336, Note_on_c, 0, 66, 45
1, 304337, Note_on_c, 0, 45, 41
1, 304363, Control_c, 0, 64, 28
1, 304378, Control_c, 0, 64, 66
1, 304393, Control_c, 0, 64, 92
1, 304407, Control_c, 0, 64, 127
1, 304411, Note_off_c, 0, 45, 60
1, 304496, Control_c, 0, 64, 104
1, 304511, Control_c, 0, 64, 83
1, 304526, Control_c, 0, 64, 72
1, 304540, Control_c, 0, 64, 63
1, 304555, Control_c, 0, 64, 56
1, 304570, Control_c, 0, 64, 48
1, 304584, Control_c, 0, 64, 45
1, 304599, Control_c, 0, 64, 43
1, 304614, Control_c, 0, 64, 38
1, 304629, Control_c, 0, 64, 25
1, 304631, Note_on_c, 0, 50, 48
1, 304635, Note_on_c, 0, 54, 37
1, 304644, Control_c, 0, 64, 0
1, 304670, Note_off_c, 0, 50, 52
1, 304673, Note_off_c, 0, 54, 47
1, 304730, Note_on_c, 0, 50, 44
1, 304732, Note_on_c, 0, 54, 50
1, 304779, Note_off_c, 0, 54, 56
1, 304783, Note_off_c, 0, 50, 60
1, 304822, Note_off_c, 0, 66, 60
1, 304953, Note_off_c, 0, 78, 36
1, 304959, Note_on_c, 0, 79, 74
1, 304978, Note_on_c, 0, 45, 48
1, 304981, Note_on_c, 0, 67, 55
1, 305007, Control_c, 0, 64, 62
1, 305022, Control_c, 0, 64, 81
1, 305037, Control_c, 0, 64, 127
1, 305094, Note_off_c, 0, 45, 56
1, 305155, Control_c, 0, 64, 112
1, 305170, Control_c, 0, 64, 83
1, 305185, Control_c, 0, 64, 69
1, 305185, Control_c, 0, 67, 125
1, 305200, Control_c, 0, 64, 59
1, 305200, Control_c, 0, 67, 122
1, 305214, Control_c, 0, 64, 45
1, 305214, Control_c, 0, 67, 119
1, 305229, Control_c, 0, 64, 39
1, 305229, Control_c, 0, 67, 113
1, 305242, Note_on_c, 0, 52, 57
1, 305244, Control_c, 0, 67, 107
1, 305245, Note_on_c, 0, 55, 44
1, 305259, Control_c, 0, 64, 38
1, 305259, Control_c, 0, 67, 102
1, 305274, Note_off_c, 0, 55, 57
1, 305274, Control_c, 0, 64, 32
1, 305274, Control_c, 0, 67, 95
1, 305277, Note_off_c, 0, 52, 65
1, 305288, Control_c, 0, 64, 0
1, 305288, Control_c, 0, 67, 90
1, 305303, Control_c, 0, 67, 84
1, 305318, Control_c, 0, 67, 79
1, 305333, Control_c, 0, 67, 74
1, 305348, Control_c, 0, 67, 69
1, 305350, Note_on_c, 0, 55, 56
1, 305353, Note_on_c, 0, 52, 56
1, 305362, Control_c, 0, 67, 67
1, 305377, Control_c, 0, 67, 66
1, 305391, Note_off_c, 0, 55, 59
1, 305392, Control_c, 0, 67, 68
1, 305397, Note_off_c, 0, 52, 61
1, 305401, Note_off_c, 0, 67, 60
1, 305406, Control_c, 0, 67, 70
1, 305416, Note_off_c, 0, 79, 57
1, 305421, Control_c, 0, 67, 72
1, 305436, Control_c, 0, 67, 74
1, 305459, Control_c, 0, 67, 75
1, 305474, Control_c, 0, 67, 76
1, 305490, Control_c, 0, 67, 78
1, 305505, Control_c, 0, 67, 80
1, 305519, Control_c, 0, 67, 83
1, 305534, Control_c, 0, 67, 86
1, 305549, Control_c, 0, 67, 90
1, 305564, Control_c, 0, 67, 93
1, 305567, Note_on_c, 0, 80, 73
1, 305578, Control_c, 0, 67, 95
1, 305582, Note_on_c, 0, 68, 62
1, 305591, Note_on_c, 0, 45, 46
1, 305593, Control_c, 0, 64, 64
1, 305593, Control_c, 0, 67, 96
1, 305608, Control_c, 0, 64, 87
1, 305608, Control_c, 0, 67, 98
1, 305623, Control_c, 0, 64, 127
1, 305623, Control_c, 0, 67, 100
1, 305637, Control_c, 0, 67, 102
1, 305652, Control_c, 0, 67, 105
1, 305657, Note_off_c, 0, 45, 64
1, 305660, Note_off_c, 0, 68, 62
1, 305667, Control_c, 0, 67, 109
1, 305682, Control_c, 0, 67, 115
1, 305697, Control_c, 0, 67, 122
1, 305711, Control_c, 0, 67, 126
1, 305726, Control_c, 0, 67, 127
1, 305795, Note_on_c, 0, 83, 68
1, 305805, Note_on_c, 0, 56, 46
1, 305805, Note_on_c, 0, 71, 57
1, 305820, Note_off_c, 0, 80, 54
1, 305827, Note_on_c, 0, 53, 41
1, 305829, Control_c, 0, 64, 95
1, 305844, Control_c, 0, 64, 80
1, 305859, Control_c, 0, 64, 70
1, 305874, Control_c, 0, 64, 61
1, 305882, Note_off_c, 0, 71, 57
1, 305889, Control_c, 0, 64, 49
1, 305904, Control_c, 0, 64, 29
1, 305919, Control_c, 0, 64, 0
1, 305975, Note_off_c, 0, 53, 37
1, 305979, Note_off_c, 0, 56, 52
1, 305989, Note_on_c, 0, 81, 67
1, 305992, Note_on_c, 0, 57, 50
1, 305996, Note_on_c, 0, 69, 56
1, 305996, Note_off_c, 0, 83, 61
1, 306005, Note_on_c, 0, 54, 50
1, 306044, Note_off_c, 0, 57, 54
1, 306050, Note_off_c, 0, 69, 59
1, 306051, Note_off_c, 0, 54, 57
1, 306061, Note_off_c, 0, 81, 57
1, 306097, Control_c, 0, 67, 127
1, 306111, Control_c, 0, 67, 126
1, 306126, Control_c, 0, 67, 125
1, 306141, Control_c, 0, 67, 125
1, 306156, Control_c, 0, 67, 124
1, 306184, Note_on_c, 0, 81, 68
1, 306185, Note_on_c, 0, 57, 47
1, 306185, Control_c, 0, 67, 124
1, 306192, Note_on_c, 0, 54, 46
1, 306195, Note_on_c, 0, 69, 54
1, 306223, Control_c, 0, 67, 123
1, 306252, Note_off_c, 0, 69, 58
1, 306252, Control_c, 0, 67, 123
1, 306255, Note_off_c, 0, 54, 56
1, 306259, Note_off_c, 0, 57, 51
1, 306261, Note_off_c, 0, 81, 56
1, 306378, Note_on_c, 0, 57, 40
1, 306378, Note_on_c, 0, 81, 63
1, 306381, Note_on_c, 0, 69, 52
1, 306382, Note_on_c, 0, 54, 48
1, 306438, Note_off_c, 0, 57, 57
1, 306444, Note_off_c, 0, 69, 61
1, 306445, Note_off_c, 0, 54, 54
1, 306446, Control_c, 0, 67, 123
1, 306448, Note_off_c, 0, 81, 54
1, 306460, Control_c, 0, 67, 124
1, 306490, Control_c, 0, 67, 124
1, 306520, Control_c, 0, 67, 125
1, 306563, Note_on_c, 0, 81, 65
1, 306564, Note_on_c, 0, 54, 55
1, 306566, Note_on_c, 0, 69, 52
1, 306571, Note_on_c, 0, 57, 46
1, 306579, Control_c, 0, 67, 125
1, 306594, Control_c, 0, 67, 126
1, 306602, Note_off_c, 0, 54, 63
1, 306635, Note_off_c, 0, 69, 63
1, 306640, Note_off_c, 0, 57, 58
1, 306652, Control_c, 0, 67, 126
1, 306663, Note_off_c, 0, 81, 59
1, 306757, Control_c, 0, 67, 126
1, 306771, Control_c, 0, 67, 124
1, 306786, Note_on_c, 0, 83, 78
1, 306786, Control_c, 0, 67, 122
1, 306801, Note_on_c, 0, 71, 68
1, 306801, Control_c, 0, 67, 119
1, 306808, Note_on_c, 0, 45, 47
1, 306816, Control_c, 0, 67, 116
1, 306831, Control_c, 0, 64, 55
1, 306831, Control_c, 0, 67, 114
1, 306845, Control_c, 0, 64, 78
1, 306845, Control_c, 0, 67, 113
1, 306860, Control_c, 0, 64, 127
1, 306865, Note_off_c, 0, 45, 55
1, 306875, Control_c, 0, 67, 114
1, 306890, Control_c, 0, 67, 114
1, 306905, Control_c, 0, 67, 115
1, 306919, Control_c, 0, 67, 116
1, 306934, Control_c, 0, 67, 116
1, 306956, Control_c, 0, 67, 117
1, 307001, Control_c, 0, 67, 117
1, 307016, Control_c, 0, 67, 118
1, 307046, Control_c, 0, 64, 114
1, 307060, Control_c, 0, 64, 98
1, 307070, Note_on_c, 0, 59, 53
1, 307075, Control_c, 0, 64, 88
1, 307078, Note_on_c, 0, 55, 50
1, 307090, Control_c, 0, 64, 81
1, 307105, Note_off_c, 0, 59, 56
1, 307105, Control_c, 0, 64, 75
1, 307107, Note_off_c, 0, 55, 58
1, 307120, Control_c, 0, 64, 68
1, 307135, Control_c, 0, 64, 65
1, 307150, Control_c, 0, 64, 62
1, 307165, Control_c, 0, 64, 59
1, 307167, Note_on_c, 0, 55, 56
1, 307169, Note_on_c, 0, 59, 50
1, 307180, Control_c, 0, 64, 56
1, 307180, Control_c, 0, 67, 118
1, 307195, Control_c, 0, 64, 54
1, 307195, Control_c, 0, 67, 119
1, 307203, Note_off_c, 0, 55, 62
1, 307207, Note_off_c, 0, 59, 59
1, 307210, Note_off_c, 0, 71, 61
1, 307210, Control_c, 0, 64, 53
1, 307225, Control_c, 0, 64, 49
1, 307225, Control_c, 0, 67, 119
1, 307235, Note_off_c, 0, 83, 55
1, 307239, Control_c, 0, 64, 46
1, 307239, Control_c, 0, 67, 120
1, 307254, Control_c, 0, 64, 41
1, 307269, Control_c, 0, 64, 35
1, 307283, Control_c, 0, 64, 25
1, 307298, Control_c, 0, 64, 0
1, 307357, Control_c, 0, 67, 118
1, 307367, Note_on_c, 0, 85, 80
1, 307372, Control_c, 0, 67, 117
1, 307376, Note_on_c, 0, 73, 73
1, 307382, Note_on_c, 0, 45, 54
1, 307387, Control_c, 0, 67, 116
1, 307401, Control_c, 0, 67, 115
1, 307416, Control_c, 0, 64, 62
1, 307430, Note_off_c, 0, 45, 64
1, 307431, Control_c, 0, 64, 77
1, 307446, Control_c, 0, 64, 109
1, 307446, Control_c, 0, 67, 116
1, 307461, Control_c, 0, 64, 127
1, 307461, Control_c, 0, 67, 117
1, 307490, Control_c, 0, 67, 117
1, 307505, Control_c, 0, 67, 118
1, 307549, Control_c, 0, 67, 118
1, 307564, Control_c, 0, 67, 119
1, 307594, Control_c, 0, 67, 119
1, 307609, Control_c, 0, 67, 120
1, 307624, Control_c, 0, 67, 120
1, 307629, Note_on_c, 0, 61, 62
1, 307635, Note_on_c, 0, 52, 64
1, 307639, Control_c, 0, 67, 121
1, 307660, Note_off_c, 0, 61, 62
1, 307668, Control_c, 0, 64, 110
1, 307673, Note_off_c, 0, 52, 64
1, 307683, Control_c, 0, 64, 88
1, 307683, Control_c, 0, 67, 121
1, 307705, Control_c, 0, 64, 75
1, 307705, Control_c, 0, 67, 122
1, 307721, Control_c, 0, 64, 66
1, 307736, Control_c, 0, 64, 56
1, 307742, Note_on_c, 0, 52, 67
1, 307749, Note_on_c, 0, 61, 69
1, 307751, Control_c, 0, 64, 0
1, 307751, Control_c, 0, 67, 122
1, 307782, Note_off_c, 0, 61, 58
1, 307795, Control_c, 0, 67, 123
1, 307796, Note_off_c, 0, 52, 67
1, 307824, Control_c, 0, 67, 123
1, 307839, Control_c, 0, 67, 124
1, 307861, Note_off_c, 0, 73, 58
1, 307869, Control_c, 0, 67, 124
1, 307876, Note_off_c, 0, 85, 62
1, 307974, Control_c, 0, 67, 123
1, 307988, Control_c, 0, 67, 122
1, 307989, Note_on_c, 0, 85, 83
1, 307999, Note_on_c, 0, 73, 67
1, 308003, Control_c, 0, 67, 121
1, 308014, Note_on_c, 0, 45, 56
1, 308018, Control_c, 0, 64, 46
1, 308018, Control_c, 0, 67, 120
1, 308032, Control_c, 0, 64, 67
1, 308032, Control_c, 0, 67, 120
1, 308047, Control_c, 0, 64, 86
1, 308062, Control_c, 0, 64, 127
1, 308080, Note_off_c, 0, 73, 61
1, 308084, Note_off_c, 0, 45, 64
1, 308107, Control_c, 0, 67, 120
1, 308122, Control_c, 0, 67, 121
1, 308166, Control_c, 0, 67, 121
1, 308232, Note_on_c, 0, 88, 73
1, 308248, Note_on_c, 0, 76, 62
1, 308261, Note_on_c, 0, 52, 54
1, 308263, Note_on_c, 0, 61, 58
1, 308270, Control_c, 0, 64, 107
1, 308285, Control_c, 0, 64, 91
1, 308287, Note_off_c, 0, 85, 51
1, 308299, Control_c, 0, 64, 80
1, 308314, Control_c, 0, 64, 70
1, 308329, Control_c, 0, 64, 63
1, 308334, Note_off_c, 0, 76, 62
1, 308344, Control_c, 0, 64, 48
1, 308359, Control_c, 0, 64, 0
1, 308363, Note_off_c, 0, 52, 55
1, 308373, Control_c, 0, 67, 121
1, 308403, Control_c, 0, 67, 120
1, 308423, Note_off_c, 0, 61, 51
1, 308429, Note_on_c, 0, 86, 70
1, 308432, Control_c, 0, 67, 119
1, 308435, Note_on_c, 0, 74, 60
1, 308442, Note_off_c, 0, 88, 61
1, 308443, Note_on_c, 0, 54, 52
1, 308455, Control_c, 0, 67, 119
1, 308456, Note_on_c, 0, 62, 53
1, 308503, Note_off_c, 0, 74, 63
1, 308506, Note_off_c, 0, 62, 51
1, 308506, Note_off_c, 0, 86, 61
1, 308511, Note_off_c, 0, 54, 59
1, 308514, Control_c, 0, 67, 118
1, 308529, Control_c, 0, 67, 118
1, 308544, Control_c, 0, 67, 117
1, 308559, Control_c, 0, 67, 117
1, 308603, Control_c, 0, 67, 116
1, 308627, Note_on_c, 0, 86, 72
1, 308632, Control_c, 0, 67, 116
1, 308635, Note_on_c, 0, 62, 53
1, 308636, Note_on_c, 0, 74, 61
1, 308641, Note_on_c, 0, 54, 54
1, 308694, Note_off_c, 0, 54, 57
1, 308694, Note_off_c, 0, 62, 55
1, 308697, Note_off_c, 0, 86, 61
1, 308699, Note_off_c, 0, 74, 62
1, 308708, Control_c, 0, 67, 115
1, 308752, Control_c, 0, 67, 115
1, 308797, Control_c, 0, 67, 114
1, 308802, Note_on_c, 0, 86, 75
1, 308809, Note_on_c, 0, 62, 58
1, 308811, Note_on_c, 0, 74, 56
1, 308811, Control_c, 0, 67, 114
1, 308813, Note_on_c, 0, 54, 57
1, 308841, Control_c, 0, 67, 113
1, 308855, Control_c, 0, 67, 113
1, 308863, Note_off_c, 0, 62, 57
1, 308864, Note_off_c, 0, 54, 58
1, 308871, Note_off_c, 0, 86, 61
1, 308872, Note_off_c, 0, 74, 62
1, 308885, Control_c, 0, 67, 112
1, 308900, Control_c, 0, 67, 112
1, 308915, Control_c, 0, 67, 109
1, 308930, Control_c, 0, 67, 105
1, 308945, Control_c, 0, 67, 102
1, 308959, Control_c, 0, 67, 99
1, 308974, Control_c, 0, 67, 96
1, 308977, Note_on_c, 0, 74, 68
1, 308979, Note_on_c, 0, 86, 76
1, 308980, Note_on_c, 0, 62, 57
1, 308983, Note_on_c, 0, 54, 60
1, 308989, Control_c, 0, 67, 93
1, 309004, Control_c, 0, 67, 92
1, 309019, Control_c, 0, 67, 90
1, 309023, Note_off_c, 0, 54, 63
1, 309041, Note_off_c, 0, 62, 58
1, 309048, Control_c, 0, 67, 90
1, 309055, Note_off_c, 0, 74, 61
1, 309063, Control_c, 0, 67, 89
1, 309087, Note_off_c, 0, 86, 58
1, 309093, Control_c, 0, 67, 89
1, 309167, Control_c, 0, 67, 88
1, 309181, Control_c, 0, 67, 87
1, 309184, Note_on_c, 0, 88, 85
1, 309201, Note_on_c, 0, 76, 81
1, 309204, Control_c, 0, 67, 83
1, 309217, Note_on_c, 0, 45, 59
1, 309218, Control_c, 0, 67, 72
1, 309233, Control_c, 0, 67, 64
1, 309248, Control_c, 0, 64, 56
1, 309248, Control_c, 0, 67, 59
1, 309262, Control_c, 0, 64, 74
1, 309277, Control_c, 0, 64, 108
1, 309277, Control_c, 0, 67, 59
1, 309278, Note_off_c, 0, 45, 64
1, 309292, Control_c, 0, 64, 127
1, 309292, Control_c, 0, 67, 61
1, 309307, Control_c, 0, 67, 62
1, 309322, Control_c, 0, 67, 63
1, 309351, Control_c, 0, 67, 64
1, 309366, Control_c, 0, 67, 64
1, 309380, Control_c, 0, 67, 65
1, 309395, Control_c, 0, 67, 66
1, 309410, Control_c, 0, 67, 67
1, 309425, Control_c, 0, 67, 68
1, 309475, Note_on_c, 0, 64, 58
1, 309482, Note_on_c, 0, 55, 51
1, 309485, Control_c, 0, 64, 105
1, 309500, Control_c, 0, 64, 95
1, 309501, Note_off_c, 0, 64, 63
1, 309515, Control_c, 0, 64, 86
1, 309517, Note_off_c, 0, 55, 50
1, 309530, Control_c, 0, 64, 81
1, 309530, Control_c, 0, 67, 68
1, 309544, Control_c, 0, 64, 78
1, 309559, Control_c, 0, 64, 75
1, 309559, Control_c, 0, 67, 69
1, 309566, Note_on_c, 0, 55, 59
1, 309571, Note_on_c, 0, 64, 70
1, 309574, Control_c, 0, 64, 73
1, 309585, Note_off_c, 0, 76, 65
1, 309589, Control_c, 0, 64, 70
1, 309589, Control_c, 0, 67, 70
1, 309590, Note_off_c, 0, 88, 63
1, 309595, Note_off_c, 0, 64, 67
1, 309603, Control_c, 0, 64, 67
1, 309604, Note_off_c, 0, 55, 64
1, 309618, Control_c, 0, 64, 66
1, 309618, Control_c, 0, 67, 70
1, 309633, Control_c, 0, 64, 65
1, 309633, Control_c, 0, 67, 71
1, 309648, Control_c, 0, 64, 64
1, 309648, Control_c, 0, 67, 73
1, 309663, Control_c, 0, 64, 61
1, 309663, Control_c, 0, 67, 74
1, 309678, Control_c, 0, 64, 54
1, 309678, Control_c, 0, 67, 76
1, 309693, Control_c, 0, 64, 17
1, 309693, Control_c, 0, 67, 77
1, 309708, Control_c, 0, 64, 0
1, 309708, Control_c, 0, 67, 78
1, 309737, Control_c, 0, 67, 78
1, 309752, Control_c, 0, 67, 77
1, 309767, Control_c, 0, 67, 76
1, 309782, Control_c, 0, 67, 76
1, 309796, Control_c, 0, 67, 75
1, 309801, Note_on_c, 0, 90, 90
1, 309809, Note_on_c, 0, 78, 80
1, 309811, Control_c, 0, 67, 75
1, 309823, Note_on_c, 0, 45, 58
1, 309826, Control_c, 0, 64, 58
1, 309841, Control_c, 0, 64, 67
1, 309841, Control_c, 0, 67, 75
1, 309856, Control_c, 0, 64, 72
1, 309856, Control_c, 0, 67, 76
1, 309863, Note_off_c, 0, 45, 66
1, 309870, Control_c, 0, 64, 75
1, 309870, Control_c, 0, 67, 76
1, 309885, Control_c, 0, 64, 78
1, 309885, Control_c, 0, 67, 77
1, 309900, Control_c, 0, 64, 80
1, 309915, Control_c, 0, 64, 81
1, 309915, Control_c, 0, 67, 77
1, 310026, Control_c, 0, 67, 78
1, 310071, Control_c, 0, 67, 78
1, 310077, Note_on_c, 0, 66, 58
1, 310084, Note_on_c, 0, 57, 52
1, 310106, Note_off_c, 0, 66, 58
1, 310117, Note_off_c, 0, 57, 54
1, 310130, Control_c, 0, 64, 80
1, 310145, Control_c, 0, 64, 80
1, 310145, Control_c, 0, 67, 79
1, 310155, Note_off_c, 0, 90, 62
1, 310159, Control_c, 0, 64, 79
1, 310174, Control_c, 0, 64, 78
1, 310174, Control_c, 0, 67, 78
1, 310179, Note_on_c, 0, 66, 69
1, 310181, Note_on_c, 0, 57, 58
1, 310181, Note_off_c, 0, 78, 63
1, 310189, Control_c, 0, 64, 77
1, 310189, Control_c, 0, 67, 78
1, 310202, Note_off_c, 0, 66, 70
1, 310203, Control_c, 0, 64, 76
1, 310213, Note_off_c, 0, 57, 63
1, 310218, Control_c, 0, 64, 75
1, 310233, Control_c, 0, 64, 73
1, 310248, Control_c, 0, 64, 71
1, 310263, Control_c, 0, 64, 69
1, 310279, Control_c, 0, 64, 67
1, 310279, Control_c, 0, 67, 78
1, 310294, Control_c, 0, 64, 65
1, 310308, Control_c, 0, 64, 62
1, 310323, Control_c, 0, 64, 51
1, 310338, Control_c, 0, 64, 0
1, 310353, Control_c, 0, 67, 78
1, 310367, Control_c, 0, 67, 77
1, 310382, Control_c, 0, 67, 77
1, 310397, Control_c, 0, 67, 76
1, 310411, Note_on_c, 0, 85, 75
1, 310412, Control_c, 0, 67, 75
1, 310423, Note_on_c, 0, 73, 60
1, 310426, Control_c, 0, 67, 75
1, 310439, Note_on_c, 0, 45, 51
1, 310456, Control_c, 0, 64, 63
1, 310471, Control_c, 0, 64, 71
1, 310486, Control_c, 0, 64, 79
1, 310498, Note_off_c, 0, 73, 61
1, 310498, Note_off_c, 0, 45, 64
1, 310501, Control_c, 0, 64, 87
1, 310515, Control_c, 0, 64, 95
1, 310515, Control_c, 0, 67, 75
1, 310530, Control_c, 0, 64, 105
1, 310530, Control_c, 0, 67, 76
1, 310545, Control_c, 0, 64, 109
1, 310634, Control_c, 0, 64, 107
1, 310641, Note_on_c, 0, 88, 75
1, 310649, Control_c, 0, 64, 102
1, 310656, Note_on_c, 0, 76, 60
1, 310664, Control_c, 0, 64, 95
1, 310670, Note_on_c, 0, 52, 54
1, 310675, Note_on_c, 0, 61, 44
1, 310679, Control_c, 0, 64, 90
1, 310700, Control_c, 0, 64, 86
1, 310716, Control_c, 0, 64, 83
1, 310731, Control_c, 0, 64, 80
1, 310746, Control_c, 0, 64, 77
1, 310748, Note_off_c, 0, 76, 60
1, 310757, Note_off_c, 0, 85, 32
1, 310761, Control_c, 0, 64, 74
1, 310775, Control_c, 0, 64, 71
1, 310790, Control_c, 0, 64, 68
1, 310790, Control_c, 0, 67, 75
1, 310805, Control_c, 0, 64, 66
1, 310806, Note_off_c, 0, 52, 57
1, 310820, Control_c, 0, 64, 64
1, 310820, Control_c, 0, 67, 75
1, 310834, Control_c, 0, 64, 62
1, 310834, Control_c, 0, 67, 74
1, 310848, Note_on_c, 0, 86, 74
1, 310849, Control_c, 0, 64, 59
1, 310856, Note_on_c, 0, 74, 60
1, 310864, Control_c, 0, 64, 56
1, 310864, Control_c, 0, 67, 73
1, 310866, Note_off_c, 0, 61, 33
1, 310874, Note_off_c, 0, 88, 62
1, 310876, Note_on_c, 0, 54, 41
1, 310879, Control_c, 0, 64, 51
1, 310879, Control_c, 0, 67, 72
1, 310880, Note_on_c, 0, 62, 43
1, 310894, Control_c, 0, 64, 44
1, 310894, Control_c, 0, 67, 72
1, 310909, Control_c, 0, 64, 32
1, 310909, Control_c, 0, 67, 71
1, 310924, Control_c, 0, 64, 0
1, 310927, Note_off_c, 0, 74, 62
1, 310933, Note_off_c, 0, 62, 43
1, 310933, Note_off_c, 0, 86, 61
1, 310938, Note_off_c, 0, 54, 57
1, 310939, Control_c, 0, 67, 70
1, 310968, Control_c, 0, 67, 69
1, 310998, Control_c, 0, 67, 68
1, 311027, Control_c, 0, 67, 67
1, 311042, Control_c, 0, 67, 65
1, 311045, Note_on_c, 0, 86, 72
1, 311055, Note_on_c, 0, 74, 54
1, 311057, Control_c, 0, 67, 64
1, 311060, Note_on_c, 0, 54, 42
1, 311060, Note_on_c, 0, 62, 41
1, 311073, Control_c, 0, 67, 63
1, 311088, Control_c, 0, 67, 62
1, 311103, Control_c, 0, 67, 61
1, 311114, Note_off_c, 0, 86, 62
1, 311118, Control_c, 0, 67, 59
1, 311121, Note_off_c, 0, 54, 58
1, 311121, Note_off_c, 0, 74, 62
1, 311132, Control_c, 0, 67, 58
1, 311143, Note_off_c, 0, 62, 37
1, 311147, Control_c, 0, 67, 57
1, 311162, Control_c, 0, 67, 56
1, 311177, Control_c, 0, 67, 54
1, 311192, Control_c, 0, 67, 51
1, 311206, Control_c, 0, 67, 48
1, 311221, Control_c, 0, 67, 46
1, 311231, Note_on_c, 0, 86, 69
1, 311236, Control_c, 0, 67, 42
1, 311238, Note_on_c, 0, 74, 55
1, 311246, Note_on_c, 0, 62, 42
1, 311250, Control_c, 0, 67, 39
1, 311252, Note_on_c, 0, 54, 41
1, 311265, Control_c, 0, 67, 36
1, 311280, Control_c, 0, 67, 33
1, 311295, Note_off_c, 0, 86, 61
1, 311295, Control_c, 0, 67, 30
1, 311297, Note_off_c, 0, 54, 60
1, 311299, Note_off_c, 0, 74, 61
1, 311310, Control_c, 0, 67, 27
1, 311313, Note_off_c, 0, 62, 41
1, 311324, Control_c, 0, 67, 23
1, 311339, Control_c, 0, 67, 18
1, 311354, Control_c, 0, 67, 14
1, 311368, Control_c, 0, 67, 9
1, 311383, Control_c, 0, 67, 0
1, 311416, Note_on_c, 0, 86, 73
1, 311422, Note_on_c, 0, 54, 52
1, 311423, Note_on_c, 0, 74, 52
1, 311428, Note_on_c, 0, 62, 46
1, 311464, Note_off_c, 0, 74, 64
1, 311467, Note_off_c, 0, 54, 62
1, 311491, Note_off_c, 0, 62, 42
1, 311502, Note_off_c, 0, 86, 63
1, 311673, Note_on_c, 0, 95, 77
1, 311690, Note_on_c, 0, 83, 56
1, 311711, Note_on_c, 0, 45, 42
1, 311730, Control_c, 0, 67, 15
1, 311745, Control_c, 0, 67, 33
1, 311760, Control_c, 0, 64, 54
1, 311760, Control_c, 0, 67, 46
1, 311772, Note_off_c, 0, 45, 65
1, 311774, Control_c, 0, 64, 68
1, 311774, Control_c, 0, 67, 56
1, 311789, Control_c, 0, 64, 78
1, 311789, Control_c, 0, 67, 63
1, 311804, Control_c, 0, 64, 85
1, 311804, Control_c, 0, 67, 68
1, 311819, Control_c, 0, 64, 86
1, 311819, Control_c, 0, 67, 74
1, 311834, Control_c, 0, 67, 81
1, 311848, Control_c, 0, 67, 88
1, 311863, Control_c, 0, 67, 92
1, 311879, Control_c, 0, 67, 94
1, 311894, Control_c, 0, 67, 96
1, 311909, Control_c, 0, 67, 98
1, 311924, Control_c, 0, 67, 100
1, 311939, Control_c, 0, 67, 102
1, 311953, Control_c, 0, 67, 103
1, 311968, Control_c, 0, 67, 104
1, 311983, Control_c, 0, 67, 105
1, 311994, Note_on_c, 0, 55, 49
1, 311997, Control_c, 0, 64, 85
1, 311997, Control_c, 0, 67, 105
1, 311998, Note_on_c, 0, 64, 45
1, 312012, Control_c, 0, 64, 84
1, 312012, Control_c, 0, 67, 106
1, 312024, Note_off_c, 0, 64, 57
1, 312027, Note_off_c, 0, 55, 53
1, 312027, Control_c, 0, 64, 83
1, 312030, Note_off_c, 0, 95, 65
1, 312042, Control_c, 0, 64, 83
1, 312057, Control_c, 0, 67, 107
1, 312062, Note_off_c, 0, 83, 61
1, 312071, Control_c, 0, 64, 82
1, 312071, Control_c, 0, 67, 108
1, 312086, Control_c, 0, 64, 81
1, 312086, Control_c, 0, 67, 109
1, 312095, Note_on_c, 0, 55, 47
1, 312101, Control_c, 0, 64, 81
1, 312101, Control_c, 0, 67, 111
1, 312104, Note_on_c, 0, 64, 59
1, 312116, Control_c, 0, 64, 80
1, 312116, Control_c, 0, 67, 112
1, 312119, Note_off_c, 0, 55, 62
1, 312131, Control_c, 0, 64, 79
1, 312131, Control_c, 0, 67, 113
1, 312134, Note_off_c, 0, 64, 58
1, 312146, Control_c, 0, 64, 78
1, 312146, Control_c, 0, 67, 115
1, 312161, Control_c, 0, 64, 77
1, 312161, Control_c, 0, 67, 117
1, 312176, Control_c, 0, 64, 75
1, 312176, Control_c, 0, 67, 119
1, 312197, Control_c, 0, 64, 74
1, 312197, Control_c, 0, 67, 122
1, 312212, Control_c, 0, 64, 72
1, 312212, Control_c, 0, 67, 124
1, 312227, Control_c, 0, 64, 71
1, 312227, Control_c, 0, 67, 125
1, 312242, Control_c, 0, 64, 68
1, 312242, Control_c, 0, 67, 125
1, 312257, Control_c, 0, 64, 66
1, 312257, Control_c, 0, 67, 126
1, 312271, Control_c, 0, 64, 63
1, 312271, Control_c, 0, 67, 127
1, 312286, Control_c, 0, 64, 54
1, 312301, Control_c, 0, 64, 0
1, 312343, Note_on_c, 0, 85, 62
1, 312358, Note_on_c, 0, 73, 52
1, 312367, Note_on_c, 0, 45, 43
1, 312405, Control_c, 0, 64, 54
1, 312420, Control_c, 0, 64, 67
1, 312435, Control_c, 0, 64, 73
1, 312435, Note_off_c, 0, 45, 64
1, 312450, Control_c, 0, 64, 75
1, 312464, Control_c, 0, 64, 76
1, 312597, Control_c, 0, 64, 75
1, 312627, Control_c, 0, 64, 74
1, 312642, Control_c, 0, 64, 74
1, 312657, Control_c, 0, 64, 72
1, 312666, Note_on_c, 0, 66, 47
1, 312671, Note_on_c, 0, 57, 47
1, 312673, Control_c, 0, 64, 71
1, 312688, Control_c, 0, 64, 69
1, 312702, Note_off_c, 0, 66, 52
1, 312702, Control_c, 0, 64, 68
1, 312712, Note_off_c, 0, 57, 55
1, 312717, Control_c, 0, 64, 66
1, 312732, Control_c, 0, 64, 65
1, 312747, Control_c, 0, 64, 63
1, 312762, Control_c, 0, 64, 61
1, 312776, Control_c, 0, 64, 60
1, 312780, Note_on_c, 0, 66, 53
1, 312784, Note_on_c, 0, 57, 43
1, 312791, Control_c, 0, 64, 57
1, 312806, Control_c, 0, 64, 54
1, 312814, Note_off_c, 0, 66, 65
1, 312820, Control_c, 0, 64, 51
1, 312835, Control_c, 0, 64, 48
1, 312844, Note_off_c, 0, 57, 60
1, 312850, Control_c, 0, 64, 46
1, 312865, Control_c, 0, 64, 44
1, 312880, Control_c, 0, 64, 42
1, 312894, Control_c, 0, 64, 39
1, 312909, Control_c, 0, 64, 35
1, 312924, Control_c, 0, 64, 33
1, 312947, Control_c, 0, 64, 29
1, 312962, Control_c, 0, 64, 20
1, 312976, Control_c, 0, 64, 0
1, 312992, Note_off_c, 0, 73, 36
1, 313021, Note_off_c, 0, 85, 37
1, 313131, Note_on_c, 0, 85, 59
1, 313164, Note_on_c, 0, 73, 44
1, 313204, Note_on_c, 0, 38, 36
1, 313213, Control_c, 0, 64, 52
1, 313228, Control_c, 0, 64, 64
1, 313243, Control_c, 0, 64, 71
1, 313258, Control_c, 0, 64, 80
1, 313268, Note_off_c, 0, 73, 57
1, 313273, Control_c, 0, 64, 94
1, 313285, Note_off_c, 0, 38, 57
1, 313288, Control_c, 0, 64, 119
1, 313302, Control_c, 0, 64, 127
1, 313497, Note_on_c, 0, 88, 57
1, 313520, Note_on_c, 0, 76, 34
1, 313525, Control_c, 0, 64, 113
1, 313534, Note_on_c, 0, 61, 38
1, 313540, Control_c, 0, 64, 107
1, 313547, Note_on_c, 0, 52, 24
1, 313555, Control_c, 0, 64, 103
1, 313570, Control_c, 0, 64, 99
1, 313585, Control_c, 0, 64, 95
1, 313589, Note_off_c, 0, 85, 28
1, 313599, Control_c, 0, 64, 90
1, 313614, Control_c, 0, 64, 87
1, 313619, Note_off_c, 0, 76, 36
1, 313629, Control_c, 0, 64, 84
1, 313643, Control_c, 0, 64, 82
1, 313658, Control_c, 0, 64, 80
1, 313673, Control_c, 0, 64, 78
1, 313696, Control_c, 0, 64, 75
1, 313710, Note_off_c, 0, 52, 48
1, 313711, Control_c, 0, 64, 73
1, 313725, Control_c, 0, 64, 71
1, 313740, Control_c, 0, 64, 68
1, 313747, Note_off_c, 0, 88, 55
1, 313753, Note_on_c, 0, 86, 54
1, 313755, Control_c, 0, 64, 66
1, 313762, Note_on_c, 0, 74, 38
1, 313763, Note_on_c, 0, 54, 40
1, 313769, Note_on_c, 0, 62, 30
1, 313769, Control_c, 0, 64, 64
1, 313782, Note_off_c, 0, 61, 34
1, 313784, Control_c, 0, 64, 63
1, 313799, Control_c, 0, 64, 62
1, 313814, Control_c, 0, 64, 61
1, 313829, Control_c, 0, 64, 59
1, 313839, Note_off_c, 0, 54, 56
1, 313840, Note_off_c, 0, 74, 56
1, 313842, Note_off_c, 0, 86, 57
1, 313843, Control_c, 0, 64, 55
1, 313844, Note_off_c, 0, 62, 40
1, 313858, Control_c, 0, 64, 49
1, 313873, Control_c, 0, 64, 41
1, 313888, Control_c, 0, 64, 23
1, 313903, Control_c, 0, 64, 0
1, 313952, Note_on_c, 0, 86, 54
1, 313958, Note_on_c, 0, 54, 34
1, 313964, Note_on_c, 0, 74, 43
1, 313966, Note_on_c, 0, 62, 38
1, 314040, Note_off_c, 0, 74, 51
1, 314042, Note_off_c, 0, 86, 53
1, 314044, Note_off_c, 0, 54, 49
1, 314050, Note_off_c, 0, 62, 43
1, 314051, Control_c, 0, 64, 40
1, 314066, Control_c, 0, 64, 54
1, 314081, Control_c, 0, 64, 58
1, 314096, Control_c, 0, 64, 59
1, 314110, Control_c, 0, 64, 61
1, 314125, Control_c, 0, 64, 63
1, 314140, Control_c, 0, 64, 63
1, 314143, Note_on_c, 0, 86, 49
1, 314155, Control_c, 0, 64, 64
1, 314161, Note_on_c, 0, 62, 34
1, 314163, Note_on_c, 0, 54, 31
1, 314167, Note_on_c, 0, 74, 40
1, 314169, Control_c, 0, 64, 64
1, 314184, Control_c, 0, 64, 65
1, 314199, Control_c, 0, 64, 66
1, 314214, Control_c, 0, 64, 67
1, 314222, Note_off_c, 0, 74, 54
1, 314229, Control_c, 0, 64, 68
1, 314230, Note_off_c, 0, 54, 52
1, 314241, Note_off_c, 0, 86, 54
1, 314243, Control_c, 0, 64, 69
1, 314250, Note_off_c, 0, 62, 41
1, 314259, Control_c, 0, 64, 71
1, 314274, Control_c, 0, 64, 72
1, 314289, Control_c, 0, 64, 72
1, 314304, Control_c, 0, 64, 73
1, 314319, Control_c, 0, 64, 75
1, 314333, Control_c, 0, 64, 76
1, 314348, Control_c, 0, 64, 77
1, 314362, Note_on_c, 0, 86, 54
1, 314363, Control_c, 0, 64, 78
1, 314378, Control_c, 0, 64, 79
1, 314379, Note_on_c, 0, 74, 32
1, 314387, Note_on_c, 0, 54, 32
1, 314392, Control_c, 0, 64, 81
1, 314396, Note_on_c, 0, 62, 31
1, 314407, Control_c, 0, 64, 82
1, 314421, Note_off_c, 0, 86, 61
1, 314422, Control_c, 0, 64, 83
1, 314423, Note_off_c, 0, 54, 46
1, 314444, Control_c, 0, 64, 83
1, 314448, Note_off_c, 0, 74, 56
1, 314460, Control_c, 0, 64, 84
1, 314475, Note_off_c, 0, 62, 39
1, 314504, Control_c, 0, 64, 84
1, 314638, Control_c, 0, 64, 84
1, 314682, Control_c, 0, 64, 83
1, 314697, Control_c, 0, 64, 82
1, 314712, Control_c, 0, 64, 81
1, 314727, Control_c, 0, 64, 80
1, 314731, Note_on_c, 0, 57, 38
1, 314741, Control_c, 0, 64, 79
1, 314742, Note_on_c, 0, 73, 57
1, 314756, Control_c, 0, 64, 78
1, 314771, Control_c, 0, 64, 76
1, 314786, Control_c, 0, 64, 72
1, 314800, Control_c, 0, 64, 66
1, 314815, Control_c, 0, 64, 55
1, 314830, Control_c, 0, 64, 0
1, 314874, Control_c, 0, 64, 22
1, 314889, Control_c, 0, 64, 48
1, 314904, Control_c, 0, 64, 59
1, 314918, Control_c, 0, 64, 63
1, 314933, Control_c, 0, 64, 65
1, 314934, Note_on_c, 0, 81, 40
1, 314948, Control_c, 0, 64, 67
1, 314963, Control_c, 0, 64, 68
1, 314978, Control_c, 0, 64, 71
1, 314990, Note_off_c, 0, 81, 57
1, 314993, Control_c, 0, 64, 72
1, 315008, Control_c, 0, 64, 73
1, 315023, Control_c, 0, 64, 73
1, 315027, Note_on_c, 0, 80, 49
1, 315037, Control_c, 0, 64, 74
1, 315043, Note_on_c, 0, 67, 38
1, 315044, Note_on_c, 0, 64, 31
1, 315052, Control_c, 0, 64, 75
1, 315068, Control_c, 0, 64, 76
1, 315082, Control_c, 0, 64, 77
1, 315084, Note_off_c, 0, 73, 36
1, 315097, Control_c, 0, 64, 78
1, 315112, Control_c, 0, 64, 79
1, 315122, Note_on_c, 0, 81, 48
1, 315127, Control_c, 0, 64, 80
1, 315142, Control_c, 0, 64, 80
1, 315157, Control_c, 0, 64, 81
1, 315169, Note_off_c, 0, 57, 50
1, 315172, Control_c, 0, 64, 82
1, 315175, Note_off_c, 0, 80, 0
1, 315184, Note_off_c, 0, 81, 57
1, 315208, Control_c, 0, 64, 82
1, 315211, Note_on_c, 0, 73, 58
1, 315219, Poly_aftertouch_c, 0, 80, 127
1, 315279, Poly_aftertouch_c, 0, 80, 0
1, 315303, Note_off_c, 0, 73, 59
1, 315305, Note_off_c, 0, 67, 34
1, 315315, Note_on_c, 0, 81, 52
1, 315354, Note_off_c, 0, 81, 59
1, 315389, Note_on_c, 0, 57, 44
1, 315401, Control_c, 0, 64, 82
1, 315404, Note_on_c, 0, 71, 62
1, 315412, Note_off_c, 0, 64, 38
1, 315415, Control_c, 0, 64, 80
1, 315430, Control_c, 0, 64, 73
1, 315445, Control_c, 0, 64, 63
1, 315460, Control_c, 0, 64, 40
1, 315475, Control_c, 0, 64, 0
1, 315516, Note_on_c, 0, 81, 55
1, 315519, Control_c, 0, 64, 38
1, 315534, Control_c, 0, 64, 53
1, 315548, Control_c, 0, 64, 60
1, 315563, Control_c, 0, 64, 63
1, 315575, Note_off_c, 0, 81, 57
1, 315578, Control_c, 0, 64, 65
1, 315593, Control_c, 0, 64, 66
1, 315597, Note_on_c, 0, 62, 44
1, 315598, Note_on_c, 0, 80, 60
1, 315602, Note_on_c, 0, 66, 35
1, 315604, Note_off_c, 0, 71, 34
1, 315608, Control_c, 0, 64, 68
1, 315622, Control_c, 0, 64, 70
1, 315637, Control_c, 0, 64, 72
1, 315652, Control_c, 0, 64, 74
1, 315667, Control_c, 0, 64, 75
1, 315682, Control_c, 0, 64, 76
1, 315685, Note_off_c, 0, 80, 52
1, 315689, Note_on_c, 0, 81, 65
1, 315696, Control_c, 0, 64, 77
1, 315711, Control_c, 0, 64, 78
1, 315726, Control_c, 0, 64, 78
1, 315746, Note_off_c, 0, 81, 61
1, 315784, Note_on_c, 0, 71, 55
1, 315803, Note_off_c, 0, 57, 37
1, 315849, Note_off_c, 0, 71, 58
1, 315876, Note_on_c, 0, 81, 58
1, 315912, Note_off_c, 0, 62, 34
1, 315920, Control_c, 0, 64, 78
1, 315928, Note_off_c, 0, 81, 53
1, 315954, Note_on_c, 0, 57, 43
1, 315957, Control_c, 0, 64, 77
1, 315971, Note_on_c, 0, 69, 60
1, 315971, Control_c, 0, 64, 76
1, 315986, Control_c, 0, 64, 75
1, 316001, Control_c, 0, 64, 74
1, 316016, Control_c, 0, 64, 72
1, 316021, Note_off_c, 0, 66, 40
1, 316031, Control_c, 0, 64, 71
1, 316045, Control_c, 0, 64, 69
1, 316060, Control_c, 0, 64, 68
1, 316061, Note_off_c, 0, 69, 64
1, 316070, Note_on_c, 0, 71, 61
1, 316075, Control_c, 0, 64, 68
1, 316090, Control_c, 0, 64, 67
1, 316105, Control_c, 0, 64, 67
1, 316120, Control_c, 0, 64, 66
1, 316134, Control_c, 0, 64, 65
1, 316147, Note_off_c, 0, 71, 61
1, 316149, Control_c, 0, 64, 65
1, 316153, Note_on_c, 0, 73, 68
1, 316164, Note_on_c, 0, 61, 55
1, 316164, Control_c, 0, 64, 64
1, 316168, Note_on_c, 0, 64, 46
1, 316194, Control_c, 0, 64, 64
1, 316209, Control_c, 0, 64, 63
1, 316222, Note_off_c, 0, 73, 62
1, 316224, Control_c, 0, 64, 63
1, 316249, Note_on_c, 0, 74, 70
1, 316253, Control_c, 0, 64, 62
1, 316283, Control_c, 0, 64, 62
1, 316298, Control_c, 0, 64, 61
1, 316312, Control_c, 0, 64, 61
1, 316326, Note_on_c, 0, 76, 71
1, 316327, Control_c, 0, 64, 60
1, 316331, Note_off_c, 0, 74, 62
1, 316340, Note_on_c, 0, 62, 58
1, 316342, Note_off_c, 0, 64, 56
1, 316342, Control_c, 0, 64, 59
1, 316350, Note_off_c, 0, 61, 57
1, 316351, Note_on_c, 0, 59, 42
1, 316357, Control_c, 0, 64, 58
1, 316371, Control_c, 0, 64, 56
1, 316386, Control_c, 0, 64, 51
1, 316401, Control_c, 0, 64, 44
1, 316416, Control_c, 0, 64, 22
1, 316420, Note_on_c, 0, 74, 70
1, 316431, Control_c, 0, 64, 0
1, 316448, Note_off_c, 0, 76, 58
1, 316491, Note_off_c, 0, 62, 57
1, 316497, Note_off_c, 0, 74, 64
1, 316506, Note_on_c, 0, 73, 68
1, 316530, Note_on_c, 0, 61, 57
1, 316532, Note_on_c, 0, 64, 39
1, 316532, Note_off_c, 0, 59, 61
1, 316564, Control_c, 0, 64, 41
1, 316577, Note_off_c, 0, 73, 62
1, 316579, Control_c, 0, 64, 54
1, 316599, Note_off_c, 0, 61, 59
1, 316603, Note_on_c, 0, 74, 68
1, 316638, Control_c, 0, 64, 54
1, 316653, Control_c, 0, 64, 52
1, 316668, Control_c, 0, 64, 51
1, 316678, Note_off_c, 0, 64, 58
1, 316691, Control_c, 0, 64, 49
1, 316694, Note_off_c, 0, 74, 61
1, 316704, Note_on_c, 0, 76, 63
1, 316706, Control_c, 0, 64, 48
1, 316707, Note_on_c, 0, 62, 50
1, 316711, Note_on_c, 0, 66, 46
1, 316721, Control_c, 0, 64, 47
1, 316736, Control_c, 0, 64, 47
1, 316765, Control_c, 0, 64, 46
1, 316780, Control_c, 0, 64, 46
1, 316784, Note_off_c, 0, 76, 63
1, 316788, Note_on_c, 0, 78, 67
1, 316793, Note_off_c, 0, 66, 64
1, 316794, Control_c, 0, 64, 45
1, 316809, Control_c, 0, 64, 44
1, 316824, Control_c, 0, 64, 44
1, 316839, Control_c, 0, 64, 43
1, 316840, Note_off_c, 0, 78, 64
1, 316854, Control_c, 0, 64, 42
1, 316856, Note_off_c, 0, 62, 48
1, 316868, Control_c, 0, 64, 41
1, 316871, Note_on_c, 0, 79, 64
1, 316886, Note_on_c, 0, 67, 54
1, 316888, Note_off_c, 0, 57, 28
1, 316892, Note_on_c, 0, 64, 43
1, 316919, Note_off_c, 0, 79, 52
1, 316939, Note_off_c, 0, 64, 52
1, 316942, Control_c, 0, 64, 40
1, 316945, Note_off_c, 0, 67, 58
1, 316957, Control_c, 0, 64, 39
1, 316963, Note_on_c, 0, 81, 64
1, 316972, Control_c, 0, 64, 36
1, 316987, Control_c, 0, 64, 32
1, 317002, Control_c, 0, 64, 0
1, 317055, Note_off_c, 0, 81, 60
1, 317070, Note_on_c, 0, 57, 48
1, 317073, Note_on_c, 0, 78, 69
1, 317150, Control_c, 0, 64, 34
1, 317158, Note_on_c, 0, 86, 62
1, 317165, Control_c, 0, 64, 40
1, 317180, Control_c, 0, 64, 43
1, 317194, Control_c, 0, 64, 47
1, 317209, Control_c, 0, 64, 51
1, 317224, Control_c, 0, 64, 55
1, 317239, Control_c, 0, 64, 57
1, 317243, Note_off_c, 0, 86, 62
1, 317249, Note_on_c, 0, 85, 63
1, 317250, Note_off_c, 0, 78, 52
1, 317254, Control_c, 0, 64, 60
1, 317264, Note_on_c, 0, 66, 54
1, 317268, Note_on_c, 0, 62, 49
1, 317268, Control_c, 0, 64, 61
1, 317283, Control_c, 0, 64, 62
1, 317298, Control_c, 0, 64, 63
1, 317312, Control_c, 0, 64, 64
1, 317327, Control_c, 0, 64, 66
1, 317337, Note_on_c, 0, 86, 70
1, 317342, Control_c, 0, 64, 68
1, 317356, Note_off_c, 0, 85, 50
1, 317357, Control_c, 0, 64, 69
1, 317372, Control_c, 0, 64, 70
1, 317401, Control_c, 0, 64, 70
1, 317408, Note_off_c, 0, 86, 62
1, 317425, Note_on_c, 0, 78, 77
1, 317444, Note_off_c, 0, 57, 56
1, 317467, Note_off_c, 0, 62, 47
1, 317524, Note_on_c, 0, 86, 67
1, 317543, Note_off_c, 0, 78, 55
1, 317587, Note_off_c, 0, 66, 34
1, 317588, Control_c, 0, 64, 70
1, 317601, Note_on_c, 0, 57, 37
1, 317603, Control_c, 0, 64, 69
1, 317612, Note_off_c, 0, 86, 61
1, 317617, Control_c, 0, 64, 69
1, 317632, Control_c, 0, 64, 68
1, 317634, Note_on_c, 0, 79, 72
1, 317647, Control_c, 0, 64, 66
1, 317662, Control_c, 0, 64, 63
1, 317677, Control_c, 0, 64, 55
1, 317691, Control_c, 0, 64, 0
1, 317745, Note_on_c, 0, 86, 59
1, 317795, Control_c, 0, 64, 38
1, 317810, Control_c, 0, 64, 55
1, 317825, Control_c, 0, 64, 60
1, 317830, Note_off_c, 0, 86, 62
1, 317840, Control_c, 0, 64, 61
1, 317847, Note_off_c, 0, 79, 35
1, 317854, Note_on_c, 0, 85, 55
1, 317854, Control_c, 0, 64, 62
1, 317869, Note_on_c, 0, 67, 38
1, 317869, Control_c, 0, 64, 63
1, 317880, Note_on_c, 0, 64, 32
1, 317884, Control_c, 0, 64, 64
1, 317899, Control_c, 0, 64, 65
1, 317914, Control_c, 0, 64, 67
1, 317928, Control_c, 0, 64, 69
1, 317943, Control_c, 0, 64, 70
1, 317956, Note_on_c, 0, 86, 53
1, 317958, Control_c, 0, 64, 71
1, 317973, Control_c, 0, 64, 71
1, 317988, Control_c, 0, 64, 72
1, 317995, Note_off_c, 0, 86, 62
1, 318003, Control_c, 0, 64, 73
1, 318017, Control_c, 0, 64, 74
1, 318032, Control_c, 0, 64, 75
1, 318035, Note_on_c, 0, 79, 52
1, 318042, Note_off_c, 0, 57, 35
1, 318047, Control_c, 0, 64, 76
1, 318062, Control_c, 0, 64, 77
1, 318076, Control_c, 0, 64, 78
1, 318080, Note_off_c, 0, 85, 43
1, 318091, Control_c, 0, 64, 78
1, 318098, Note_off_c, 0, 79, 47
1, 318106, Control_c, 0, 64, 80
1, 318119, Note_on_c, 0, 86, 57
1, 318126, Note_off_c, 0, 67, 35
1, 318135, Control_c, 0, 64, 79
1, 318150, Control_c, 0, 64, 72
1, 318165, Control_c, 0, 64, 63
1, 318173, Note_off_c, 0, 64, 40
1, 318188, Control_c, 0, 64, 40
1, 318203, Control_c, 0, 64, 38
1, 318218, Control_c, 0, 64, 54
1, 318224, Note_off_c, 0, 86, 52
1, 318232, Note_on_c, 0, 81, 58
1, 318233, Note_on_c, 0, 57, 42
1, 318233, Control_c, 0, 64, 60
1, 318248, Control_c, 0, 64, 64
1, 318263, Control_c, 0, 64, 66
1, 318278, Control_c, 0, 64, 67
1, 318283, Note_off_c, 0, 57, 61
1, 318325, Note_on_c, 0, 83, 44
1, 318325, Note_off_c, 0, 81, 51
1, 318352, Control_c, 0, 64, 66
1, 318382, Control_c, 0, 64, 66
1, 318407, Note_on_c, 0, 85, 62
1, 318412, Control_c, 0, 64, 65
1, 318418, Note_on_c, 0, 69, 57
1, 318423, Note_on_c, 0, 66, 54
1, 318427, Control_c, 0, 64, 65
1, 318436, Note_off_c, 0, 83, 58
1, 318456, Control_c, 0, 64, 64
1, 318471, Control_c, 0, 64, 64
1, 318486, Control_c, 0, 64, 63
1, 318492, Note_on_c, 0, 86, 68
1, 318494, Note_off_c, 0, 85, 62
1, 318501, Control_c, 0, 64, 63
1, 318501, Control_c, 0, 67, 125
1, 318515, Control_c, 0, 64, 62
1, 318515, Control_c, 0, 67, 117
1, 318530, Control_c, 0, 67, 110
1, 318545, Control_c, 0, 64, 62
1, 318545, Control_c, 0, 67, 105
1, 318559, Control_c, 0, 67, 99
1, 318574, Control_c, 0, 64, 61
1, 318574, Control_c, 0, 67, 93
1, 318575, Note_off_c, 0, 86, 64
1, 318579, Note_on_c, 0, 85, 72
1, 318589, Control_c, 0, 64, 61
1, 318589, Control_c, 0, 67, 85
1, 318591, Note_on_c, 0, 65, 56
1, 318591, Note_on_c, 0, 68, 56
1, 318604, Control_c, 0, 64, 60
1, 318604, Control_c, 0, 67, 74
1, 318619, Control_c, 0, 64, 60
1, 318619, Control_c, 0, 67, 65
1, 318624, Note_off_c, 0, 69, 50
1, 318631, Note_off_c, 0, 66, 65
1, 318633, Control_c, 0, 67, 58
1, 318648, Control_c, 0, 64, 59
1, 318648, Control_c, 0, 67, 53
1, 318663, Note_off_c, 0, 85, 64
1, 318663, Control_c, 0, 64, 58
1, 318663, Control_c, 0, 67, 48
1, 318669, Note_on_c, 0, 86, 79
1, 318678, Control_c, 0, 67, 43
1, 318692, Control_c, 0, 67, 38
1, 318707, Control_c, 0, 64, 58
1, 318707, Control_c, 0, 67, 34
1, 318722, Control_c, 0, 64, 57
1, 318722, Control_c, 0, 67, 32
1, 318737, Control_c, 0, 64, 55
1, 318737, Control_c, 0, 67, 30
1, 318752, Control_c, 0, 64, 47
1, 318752, Control_c, 0, 67, 27
1, 318767, Control_c, 0, 64, 0
1, 318767, Control_c, 0, 67, 25
1, 318781, Control_c, 0, 67, 24
1, 318784, Note_on_c, 0, 90, 72
1, 318793, Note_off_c, 0, 86, 59
1, 318796, Control_c, 0, 67, 23
1, 318810, Note_off_c, 0, 68, 63
1, 318811, Note_on_c, 0, 66, 54
1, 318813, Note_on_c, 0, 69, 48
1, 318838, Note_off_c, 0, 65, 47
1, 318856, Control_c, 0, 67, 24
1, 318871, Note_on_c, 0, 88, 72
1, 318871, Control_c, 0, 67, 26
1, 318886, Control_c, 0, 64, 48
1, 318886, Control_c, 0, 67, 27
1, 318900, Control_c, 0, 64, 61
1, 318900, Control_c, 0, 67, 29
1, 318906, Note_off_c, 0, 90, 62
1, 318915, Control_c, 0, 64, 63
1, 318915, Control_c, 0, 67, 30
1, 318937, Control_c, 0, 67, 31
1, 318944, Note_off_c, 0, 88, 64
1, 318952, Control_c, 0, 64, 64
1, 318952, Control_c, 0, 67, 32
1, 318960, Note_on_c, 0, 86, 61
1, 318966, Control_c, 0, 67, 33
1, 318981, Control_c, 0, 67, 35
1, 318996, Control_c, 0, 67, 38
1, 318997, Note_off_c, 0, 86, 56
1, 319002, Note_on_c, 0, 88, 67
1, 319011, Control_c, 0, 67, 41
1, 319026, Control_c, 0, 67, 42
1, 319041, Control_c, 0, 67, 44
1, 319043, Note_on_c, 0, 71, 51
1, 319043, Note_off_c, 0, 66, 58
1, 319047, Note_on_c, 0, 86, 71
1, 319056, Control_c, 0, 64, 63
1, 319056, Control_c, 0, 67, 45
1, 319061, Note_on_c, 0, 67, 40
1, 319071, Control_c, 0, 67, 47
1, 319086, Control_c, 0, 67, 50
1, 319090, Note_off_c, 0, 69, 48
1, 319101, Control_c, 0, 67, 53
1, 319107, Note_off_c, 0, 88, 56
1, 319116, Control_c, 0, 67, 57
1, 319131, Control_c, 0, 67, 61
1, 319145, Control_c, 0, 67, 64
1, 319146, Note_on_c, 0, 85, 69
1, 319159, Note_off_c, 0, 86, 55
1, 319160, Control_c, 0, 67, 67
1, 319175, Control_c, 0, 67, 70
1, 319190, Control_c, 0, 67, 73
1, 319205, Control_c, 0, 64, 63
1, 319205, Control_c, 0, 67, 76
1, 319211, Note_off_c, 0, 71, 54
1, 319214, Note_on_c, 0, 66, 53
1, 319220, Note_off_c, 0, 85, 65
1, 319220, Control_c, 0, 67, 79
1, 319225, Note_off_c, 0, 67, 45
1, 319226, Note_on_c, 0, 69, 46
1, 319232, Note_on_c, 0, 86, 70
1, 319235, Control_c, 0, 67, 82
1, 319249, Control_c, 0, 67, 83
1, 319260, Note_off_c, 0, 66, 64
1, 319264, Control_c, 0, 67, 84
1, 319279, Control_c, 0, 67, 85
1, 319294, Control_c, 0, 67, 87
1, 319309, Control_c, 0, 67, 88
1, 319316, Note_off_c, 0, 86, 56
1, 319324, Control_c, 0, 67, 93
1, 319336, Note_on_c, 0, 88, 74
1, 319338, Control_c, 0, 67, 98
1, 319353, Control_c, 0, 67, 102
1, 319360, Note_off_c, 0, 69, 47
1, 319368, Control_c, 0, 67, 105
1, 319382, Control_c, 0, 67, 108
1, 319397, Control_c, 0, 67, 110
1, 319412, Control_c, 0, 67, 112
1, 319427, Control_c, 0, 64, 62
1, 319427, Control_c, 0, 67, 112
1, 319442, Control_c, 0, 64, 62
1, 319442, Control_c, 0, 67, 113
1, 319456, Note_on_c, 0, 57, 49
1, 319456, Control_c, 0, 64, 60
1, 319471, Control_c, 0, 64, 54
1, 319486, Control_c, 0, 64, 24
1, 319486, Control_c, 0, 67, 113
1, 319494, Note_off_c, 0, 88, 62
1, 319501, Control_c, 0, 64, 0
1, 319501, Control_c, 0, 67, 114
1, 319508, Note_on_c, 0, 85, 70
1, 319589, Control_c, 0, 64, 49
1, 319604, Control_c, 0, 64, 59
1, 319619, Control_c, 0, 64, 61
1, 319622, Note_on_c, 0, 93, 66
1, 319634, Control_c, 0, 64, 62
1, 319649, Control_c, 0, 64, 63
1, 319649, Control_c, 0, 67, 113
1, 319664, Control_c, 0, 64, 63
1, 319664, Control_c, 0, 67, 113
1, 319686, Control_c, 0, 64, 64
1, 319686, Control_c, 0, 67, 112
1, 319700, Control_c, 0, 64, 65
1, 319708, Note_on_c, 0, 92, 79
1, 319715, Control_c, 0, 64, 65
1, 319715, Control_c, 0, 67, 111
1, 319717, Note_off_c, 0, 93, 61
1, 319729, Note_on_c, 0, 64, 37
1, 319729, Note_off_c, 0, 85, 55
1, 319729, Control_c, 0, 64, 66
1, 319734, Note_on_c, 0, 67, 38
1, 319744, Control_c, 0, 64, 66
1, 319744, Control_c, 0, 67, 110
1, 319759, Control_c, 0, 64, 68
1, 319759, Control_c, 0, 67, 110
1, 319774, Control_c, 0, 64, 69
1, 319789, Control_c, 0, 64, 69
1, 319790, Note_off_c, 0, 57, 59
1, 319807, Note_on_c, 0, 93, 78
1, 319819, Control_c, 0, 64, 70
1, 319834, Control_c, 0, 64, 71
1, 319876, Note_off_c, 0, 67, 54
1, 319878, Note_off_c, 0, 92, 35
1, 319885, Note_off_c, 0, 93, 58
1, 319897, Note_on_c, 0, 85, 61
1, 319959, Poly_aftertouch_c, 0, 90, 127
1, 319966, Note_off_c, 0, 64, 35
1, 319974, Note_on_c, 0, 93, 68
1, 319984, Note_off_c, 0, 85, 63
1, 320011, Poly_aftertouch_c, 0, 90, 0
1, 320016, Note_on_c, 0, 57, 48
1, 320027, Control_c, 0, 64, 70
1, 320042, Control_c, 0, 64, 68
1, 320048, Note_off_c, 0, 93, 60
1, 320057, Control_c, 0, 64, 63
1, 320072, Control_c, 0, 64, 46
1, 320086, Note_on_c, 0, 83, 64
1, 320086, Control_c, 0, 64, 0
1, 320101, Control_c, 0, 67, 109
1, 320186, Note_on_c, 0, 93, 59
1, 320190, Control_c, 0, 64, 50
1, 320204, Control_c, 0, 64, 59
1, 320219, Control_c, 0, 64, 62
1, 320219, Control_c, 0, 67, 108
1, 320249, Control_c, 0, 64, 63
1, 320249, Control_c, 0, 67, 108
1, 320260, Note_off_c, 0, 83, 31
1, 320262, Note_off_c, 0, 93, 60
1, 320263, Note_on_c, 0, 66, 42
1, 320264, Control_c, 0, 64, 64
1, 320266, Note_on_c, 0, 62, 45
1, 320278, Control_c, 0, 64, 65
1, 320285, Note_on_c, 0, 92, 63
1, 320293, Control_c, 0, 64, 65
1, 320308, Control_c, 0, 64, 67
1, 320323, Control_c, 0, 64, 68
1, 320338, Control_c, 0, 64, 70
1, 320352, Control_c, 0, 64, 71
1, 320367, Control_c, 0, 64, 72
1, 320382, Control_c, 0, 64, 73
1, 320382, Control_c, 0, 67, 108
1, 320384, Note_on_c, 0, 93, 59
1, 320397, Control_c, 0, 64, 73
1, 320414, Note_off_c, 0, 92, 35
1, 320434, Note_off_c, 0, 93, 58
1, 320434, Control_c, 0, 67, 109
1, 320465, Note_on_c, 0, 83, 52
1, 320481, Note_off_c, 0, 62, 54
1, 320482, Note_off_c, 0, 57, 43
1, 320527, Note_off_c, 0, 83, 55
1, 320558, Note_on_c, 0, 93, 58
1, 320609, Note_off_c, 0, 93, 59
1, 320647, Note_on_c, 0, 57, 44
1, 320659, Note_on_c, 0, 81, 51
1, 320672, Control_c, 0, 64, 73
1, 320687, Control_c, 0, 64, 72
1, 320687, Control_c, 0, 67, 108
1, 320693, Note_off_c, 0, 66, 41
1, 320701, Control_c, 0, 64, 71
1, 320716, Control_c, 0, 64, 70
1, 320726, Note_off_c, 0, 81, 50
1, 320731, Control_c, 0, 64, 69
1, 320746, Control_c, 0, 64, 67
1, 320749, Note_on_c, 0, 83, 51
1, 320761, Control_c, 0, 64, 63
1, 320776, Control_c, 0, 64, 53
1, 320791, Control_c, 0, 64, 0
1, 320826, Note_on_c, 0, 85, 66
1, 320826, Note_off_c, 0, 83, 58
1, 320835, Control_c, 0, 67, 108
1, 320841, Note_on_c, 0, 64, 44
1, 320845, Note_on_c, 0, 61, 52
1, 320865, Control_c, 0, 67, 107
1, 320880, Control_c, 0, 67, 107
1, 320893, Note_off_c, 0, 85, 65
1, 320909, Control_c, 0, 67, 106
1, 320920, Note_on_c, 0, 86, 69
1, 320924, Control_c, 0, 67, 106
1, 320939, Control_c, 0, 64, 10
1, 320939, Control_c, 0, 67, 105
1, 320953, Control_c, 0, 64, 12
1, 320953, Control_c, 0, 67, 104
1, 320968, Control_c, 0, 64, 14
1, 320968, Control_c, 0, 67, 104
1, 320983, Control_c, 0, 64, 0
1, 320983, Control_c, 0, 67, 103
1, 320986, Note_off_c, 0, 64, 60
1, 320996, Note_on_c, 0, 62, 63
1, 320998, Control_c, 0, 67, 103
1, 321002, Note_off_c, 0, 61, 57
1, 321004, Note_on_c, 0, 88, 69
1, 321008, Note_off_c, 0, 86, 60
1, 321019, Note_on_c, 0, 59, 52
1, 321027, Control_c, 0, 67, 102
1, 321057, Control_c, 0, 67, 101
1, 321072, Control_c, 0, 67, 99
1, 321086, Control_c, 0, 67, 96
1, 321088, Note_on_c, 0, 86, 67
1, 321101, Control_c, 0, 67, 94
1, 321116, Control_c, 0, 67, 92
1, 321126, Note_off_c, 0, 88, 39
1, 321131, Control_c, 0, 67, 90
1, 321146, Control_c, 0, 67, 88
1, 321160, Control_c, 0, 67, 85
1, 321163, Note_off_c, 0, 62, 56
1, 321183, Note_off_c, 0, 86, 59
1, 321183, Control_c, 0, 64, 43
1, 321183, Control_c, 0, 67, 80
1, 321193, Note_on_c, 0, 85, 67
1, 321199, Control_c, 0, 64, 56
1, 321199, Control_c, 0, 67, 75
1, 321204, Note_on_c, 0, 61, 61
1, 321208, Note_on_c, 0, 64, 49
1, 321214, Control_c, 0, 64, 61
1, 321214, Control_c, 0, 67, 70
1, 321223, Note_off_c, 0, 59, 59
1, 321229, Control_c, 0, 64, 62
1, 321229, Control_c, 0, 67, 66
1, 321243, Control_c, 0, 67, 62
1, 321258, Control_c, 0, 67, 58
1, 321259, Note_off_c, 0, 85, 65
1, 321273, Control_c, 0, 64, 62
1, 321273, Control_c, 0, 67, 55
1, 321285, Note_off_c, 0, 61, 56
1, 321286, Note_on_c, 0, 86, 68
1, 321287, Control_c, 0, 67, 50
1, 321302, Control_c, 0, 67, 47
1, 321317, Control_c, 0, 67, 44
1, 321332, Control_c, 0, 67, 41
1, 321347, Control_c, 0, 67, 39
1, 321348, Note_off_c, 0, 64, 62
1, 321362, Control_c, 0, 67, 37
1, 321364, Note_off_c, 0, 86, 61
1, 321368, Note_on_c, 0, 88, 71
1, 321376, Note_on_c, 0, 62, 52
1, 321376, Note_on_c, 0, 66, 52
1, 321376, Control_c, 0, 67, 35
1, 321391, Control_c, 0, 67, 34
1, 321406, Control_c, 0, 64, 63
1, 321406, Control_c, 0, 67, 33
1, 321421, Control_c, 0, 67, 31
1, 321435, Control_c, 0, 64, 63
1, 321435, Control_c, 0, 67, 29
1, 321450, Control_c, 0, 67, 26
1, 321454, Note_on_c, 0, 90, 73
1, 321456, Note_off_c, 0, 88, 63
1, 321466, Control_c, 0, 67, 23
1, 321469, Note_off_c, 0, 66, 62
1, 321481, Control_c, 0, 64, 64
1, 321481, Control_c, 0, 67, 20
1, 321496, Control_c, 0, 67, 17
1, 321511, Control_c, 0, 67, 12
1, 321512, Note_off_c, 0, 90, 64
1, 321526, Control_c, 0, 67, 8
1, 321531, Note_off_c, 0, 62, 49
1, 321540, Control_c, 0, 67, 0
1, 321545, Note_off_c, 0, 57, 36
1, 321548, Note_on_c, 0, 91, 68
1, 321564, Note_on_c, 0, 67, 53
1, 321565, Note_on_c, 0, 64, 43
1, 321570, Control_c, 0, 64, 64
1, 321613, Note_off_c, 0, 91, 55
1, 321620, Note_off_c, 0, 64, 42
1, 321629, Note_on_c, 0, 93, 71
1, 321637, Note_off_c, 0, 67, 53
1, 321703, Control_c, 0, 64, 64
1, 321718, Control_c, 0, 64, 62
1, 321730, Note_off_c, 0, 93, 62
1, 321733, Control_c, 0, 64, 56
1, 321745, Note_on_c, 0, 57, 53
1, 321747, Note_on_c, 0, 90, 79
1, 321747, Control_c, 0, 64, 33
1, 321762, Control_c, 0, 64, 0
1, 321837, Control_c, 0, 64, 33
1, 321845, Note_on_c, 0, 98, 67
1, 321851, Control_c, 0, 64, 53
1, 321866, Control_c, 0, 64, 59
1, 321881, Control_c, 0, 64, 61
1, 321896, Control_c, 0, 64, 61
1, 321910, Control_c, 0, 64, 62
1, 321930, Note_on_c, 0, 97, 75
1, 321930, Note_off_c, 0, 98, 67
1, 321932, Control_c, 0, 64, 64
1, 321947, Control_c, 0, 64, 64
1, 321953, Note_on_c, 0, 66, 51
1, 321955, Note_on_c, 0, 62, 52
1, 321959, Note_off_c, 0, 90, 50
1, 321962, Control_c, 0, 64, 65
1, 321992, Control_c, 0, 64, 66
1, 322007, Control_c, 0, 64, 67
1, 322022, Control_c, 0, 64, 67
1, 322033, Note_on_c, 0, 98, 78
1, 322037, Control_c, 0, 64, 68
1, 322052, Control_c, 0, 64, 69
1, 322066, Control_c, 0, 64, 70
1, 322081, Control_c, 0, 64, 71
1, 322088, Note_off_c, 0, 97, 37
1, 322096, Control_c, 0, 64, 72
1, 322104, Note_off_c, 0, 98, 67
1, 322111, Note_on_c, 0, 90, 68
1, 322111, Control_c, 0, 64, 72
1, 322127, Note_off_c, 0, 57, 53
1, 322183, Note_off_c, 0, 62, 36
1, 322202, Note_on_c, 0, 98, 75
1, 322227, Note_off_c, 0, 90, 51
1, 322270, Note_off_c, 0, 66, 35
1, 322272, Note_on_c, 0, 57, 46
1, 322299, Note_off_c, 0, 98, 66
1, 322304, Control_c, 0, 64, 71
1, 322319, Control_c, 0, 64, 68
1, 322323, Note_on_c, 0, 91, 77
1, 322333, Control_c, 0, 64, 62
1, 322348, Control_c, 0, 64, 43
1, 322363, Control_c, 0, 64, 0
1, 322422, Note_on_c, 0, 98, 64
1, 322422, Control_c, 0, 64, 21
1, 322437, Control_c, 0, 64, 48
1, 322452, Control_c, 0, 64, 58
1, 322467, Control_c, 0, 64, 61
1, 322479, Note_off_c, 0, 91, 45
1, 322481, Control_c, 0, 64, 62
1, 322496, Control_c, 0, 64, 63
1, 322496, Control_c, 0, 67, 8
1, 322502, Note_off_c, 0, 98, 66
1, 322511, Control_c, 0, 64, 64
1, 322511, Control_c, 0, 67, 10
1, 322517, Note_on_c, 0, 97, 70
1, 322525, Note_on_c, 0, 67, 43
1, 322526, Control_c, 0, 64, 65
1, 322526, Control_c, 0, 67, 12
1, 322531, Note_on_c, 0, 64, 44
1, 322540, Control_c, 0, 64, 67
1, 322540, Control_c, 0, 67, 15
1, 322555, Control_c, 0, 64, 68
1, 322555, Control_c, 0, 67, 18
1, 322570, Control_c, 0, 64, 70
1, 322570, Control_c, 0, 67, 20
1, 322585, Control_c, 0, 64, 71
1, 322585, Control_c, 0, 67, 22
1, 322600, Control_c, 0, 64, 72
1, 322600, Control_c, 0, 67, 24
1, 322615, Note_on_c, 0, 98, 68
1, 322615, Control_c, 0, 64, 73
1, 322615, Control_c, 0, 67, 26
1, 322630, Control_c, 0, 64, 74
1, 322630, Control_c, 0, 67, 28
1, 322645, Control_c, 0, 64, 74
1, 322645, Control_c, 0, 67, 31
1, 322660, Control_c, 0, 64, 75
1, 322660, Control_c, 0, 67, 34
1, 322667, Note_off_c, 0, 97, 40
1, 322681, Control_c, 0, 64, 75
1, 322681, Control_c, 0, 67, 36
1, 322691, Note_off_c, 0, 98, 64
1, 322696, Control_c, 0, 67, 38
1, 322704, Note_on_c, 0, 91, 66
1, 322711, Control_c, 0, 67, 39
1, 322717, Note_off_c, 0, 57, 49
1, 322726, Control_c, 0, 64, 76
1, 322726, Control_c, 0, 67, 41
1, 322740, Control_c, 0, 67, 42
1, 322755, Control_c, 0, 64, 76
1, 322755, Control_c, 0, 67, 44
1, 322770, Control_c, 0, 64, 77
1, 322770, Control_c, 0, 67, 45
1, 322785, Control_c, 0, 64, 77
1, 322785, Control_c, 0, 67, 46
1, 322800, Control_c, 0, 64, 78
1, 322805, Note_off_c, 0, 67, 36
1, 322818, Note_on_c, 0, 98, 44
1, 322824, Note_off_c, 0, 91, 36
1, 322856, Note_off_c, 0, 64, 33
1, 322859, Control_c, 0, 64, 76
1, 322874, Control_c, 0, 64, 68
1, 322889, Control_c, 0, 64, 54
1, 322889, Control_c, 0, 67, 45
1, 322904, Control_c, 0, 64, 0
1, 322919, Note_on_c, 0, 93, 63
1, 322919, Control_c, 0, 67, 45
1, 322922, Note_on_c, 0, 57, 41
1, 322933, Control_c, 0, 64, 41
1, 322943, Note_off_c, 0, 98, 48
1, 322948, Control_c, 0, 64, 56
1, 322948, Control_c, 0, 67, 44
1, 322963, Control_c, 0, 64, 62
1, 322978, Control_c, 0, 64, 65
1, 322993, Control_c, 0, 64, 67
1, 323001, Note_off_c, 0, 57, 62
1, 323002, Note_off_c, 0, 93, 61
1, 323007, Control_c, 0, 64, 68
1, 323029, Note_on_c, 0, 91, 56
1, 323053, Control_c, 0, 67, 45
1, 323127, Control_c, 0, 64, 67
1, 323128, Note_on_c, 0, 90, 60
1, 323130, Note_off_c, 0, 91, 58
1, 323134, Note_on_c, 0, 66, 53
1, 323140, Note_on_c, 0, 69, 50
1, 323156, Control_c, 0, 67, 44
1, 323171, Control_c, 0, 64, 67
1, 323171, Control_c, 0, 67, 44
1, 323186, Control_c, 0, 67, 43
1, 323201, Control_c, 0, 64, 66
1, 323201, Control_c, 0, 67, 43
1, 323232, Note_on_c, 0, 88, 57
1, 323260, Note_off_c, 0, 90, 38
1, 323260, Control_c, 0, 67, 42
1, 323275, Control_c, 0, 67, 42
1, 323295, Note_off_c, 0, 88, 64
1, 323304, Control_c, 0, 64, 66
1, 323315, Note_on_c, 0, 86, 59
1, 323319, Note_on_c, 0, 65, 58
1, 323319, Control_c, 0, 67, 41
1, 323321, Note_on_c, 0, 68, 59
1, 323348, Control_c, 0, 64, 65
1, 323348, Control_c, 0, 67, 40
1, 323354, Note_off_c, 0, 66, 65
1, 323378, Control_c, 0, 64, 65
1, 323393, Control_c, 0, 64, 64
1, 323399, Note_off_c, 0, 69, 40
1, 323412, Note_off_c, 0, 86, 60
1, 323414, Note_on_c, 0, 85, 59
1, 323430, Control_c, 0, 64, 64
1, 323444, Control_c, 0, 64, 63
1, 323474, Control_c, 0, 64, 63
1, 323488, Control_c, 0, 64, 62
1, 323488, Control_c, 0, 67, 40
1, 323518, Control_c, 0, 64, 61
1, 323533, Control_c, 0, 64, 58
1, 323542, Note_on_c, 0, 83, 51
1, 323548, Control_c, 0, 64, 40
1, 323553, Note_on_c, 0, 66, 62
1, 323557, Note_on_c, 0, 69, 46
1, 323563, Control_c, 0, 64, 0
1, 323563, Control_c, 0, 67, 40
1, 323572, Note_off_c, 0, 68, 63
1, 323591, Note_off_c, 0, 65, 44
1, 323593, Control_c, 0, 67, 39
1, 323608, Control_c, 0, 67, 39
1, 323622, Control_c, 0, 67, 38
1, 323635, Note_off_c, 0, 85, 47
1, 323640, Note_off_c, 0, 83, 59
1, 323652, Control_c, 0, 67, 38
1, 323663, Note_on_c, 0, 81, 55
1, 323667, Control_c, 0, 64, 46
1, 323681, Control_c, 0, 64, 59
1, 323696, Control_c, 0, 64, 61
1, 323711, Control_c, 0, 67, 37
1, 323726, Control_c, 0, 64, 62
1, 323726, Control_c, 0, 67, 37
1, 323755, Control_c, 0, 64, 62
1, 323755, Control_c, 0, 67, 36
1, 323766, Note_off_c, 0, 81, 54
1, 323770, Control_c, 0, 64, 63
1, 323770, Control_c, 0, 67, 36
1, 323780, Note_on_c, 0, 83, 41
1, 323785, Control_c, 0, 64, 63
1, 323792, Note_on_c, 0, 71, 54
1, 323800, Control_c, 0, 67, 35
1, 323803, Note_off_c, 0, 66, 58
1, 323804, Note_on_c, 0, 67, 46
1, 323829, Control_c, 0, 64, 64
1, 323845, Note_off_c, 0, 69, 55
1, 323849, Note_off_c, 0, 83, 61
1, 323860, Control_c, 0, 64, 64
1, 323870, Note_on_c, 0, 81, 53
1, 323875, Control_c, 0, 67, 35
1, 323890, Control_c, 0, 67, 34
1, 323904, Control_c, 0, 67, 34
1, 323919, Control_c, 0, 64, 65
1, 323949, Control_c, 0, 64, 65
1, 323949, Control_c, 0, 67, 33
1, 323953, Note_off_c, 0, 81, 59
1, 323953, Note_off_c, 0, 71, 61
1, 323956, Note_on_c, 0, 66, 46
1, 323964, Control_c, 0, 64, 66
1, 323964, Control_c, 0, 67, 32
1, 323969, Note_off_c, 0, 67, 52
1, 323972, Note_on_c, 0, 69, 54
1, 323978, Control_c, 0, 64, 66
1, 323978, Control_c, 0, 67, 31
1, 323980, Note_on_c, 0, 83, 54
1, 323992, Note_off_c, 0, 66, 67
1, 323993, Control_c, 0, 64, 67
1, 323993, Control_c, 0, 67, 30
1, 324008, Control_c, 0, 67, 29
1, 324023, Control_c, 0, 67, 27
1, 324038, Control_c, 0, 67, 25
1, 324052, Control_c, 0, 67, 22
1, 324064, Note_off_c, 0, 83, 58
1, 324067, Control_c, 0, 67, 20
1, 324076, Note_on_c, 0, 81, 60
1, 324081, Note_off_c, 0, 69, 37
1, 324082, Control_c, 0, 67, 18
1, 324096, Control_c, 0, 67, 17
1, 324111, Control_c, 0, 67, 17
1, 324126, Control_c, 0, 67, 16
1, 324156, Control_c, 0, 64, 66
1, 324156, Control_c, 0, 67, 16
1, 324177, Note_on_c, 0, 57, 52
1, 324178, Control_c, 0, 64, 64
1, 324192, Control_c, 0, 64, 55
1, 324206, Note_off_c, 0, 81, 60
1, 324207, Control_c, 0, 64, 0
1, 324240, Note_on_c, 0, 83, 60
1, 324266, Control_c, 0, 67, 15
1, 324281, Control_c, 0, 64, 44
1, 324296, Control_c, 0, 64, 58
1, 324296, Control_c, 0, 67, 15
1, 324311, Control_c, 0, 64, 63
1, 324326, Control_c, 0, 64, 64
1, 324341, Control_c, 0, 64, 65
1, 324355, Note_on_c, 0, 85, 67
1, 324356, Control_c, 0, 64, 66
1, 324356, Control_c, 0, 67, 14
1, 324371, Control_c, 0, 64, 67
1, 324385, Control_c, 0, 64, 68
1, 324385, Control_c, 0, 67, 14
1, 324400, Control_c, 0, 64, 69
1, 324400, Control_c, 0, 67, 13
1, 324403, Note_off_c, 0, 83, 34
1, 324415, Control_c, 0, 64, 70
1, 324415, Control_c, 0, 67, 12
1, 324430, Control_c, 0, 64, 71
1, 324445, Control_c, 0, 64, 72
1, 324459, Control_c, 0, 64, 72
1, 324463, Note_on_c, 0, 87, 69
1, 324474, Note_on_c, 0, 66, 42
1, 324474, Note_on_c, 0, 69, 42
1, 324474, Control_c, 0, 64, 73
1, 324475, Note_on_c, 0, 71, 44
1, 324489, Control_c, 0, 64, 73
1, 324493, Note_off_c, 0, 85, 57
1, 324503, Control_c, 0, 64, 74
1, 324538, Note_off_c, 0, 87, 64
1, 324548, Control_c, 0, 64, 74
1, 324548, Control_c, 0, 67, 13
1, 324563, Control_c, 0, 67, 13
1, 324568, Note_on_c, 0, 88, 72
1, 324577, Control_c, 0, 67, 14
1, 324592, Control_c, 0, 67, 15
1, 324607, Control_c, 0, 67, 15
1, 324622, Control_c, 0, 67, 16
1, 324637, Control_c, 0, 64, 75
1, 324653, Control_c, 0, 67, 16
1, 324660, Note_on_c, 0, 90, 79
1, 324671, Note_off_c, 0, 88, 59
1, 324712, Note_off_c, 0, 71, 53
1, 324717, Note_off_c, 0, 57, 37
1, 324726, Control_c, 0, 67, 17
1, 324728, Note_off_c, 0, 66, 32
1, 324743, Note_off_c, 0, 69, 38
1, 324752, Note_on_c, 0, 91, 78
1, 324756, Control_c, 0, 67, 17
1, 324764, Note_off_c, 0, 90, 59
1, 324771, Control_c, 0, 67, 18
1, 324815, Note_off_c, 0, 91, 60
1, 324815, Control_c, 0, 67, 18
1, 324830, Control_c, 0, 67, 19
1, 324831, Note_on_c, 0, 57, 56
1, 324860, Note_on_c, 0, 93, 74
1, 324860, Control_c, 0, 67, 20
1, 324874, Control_c, 0, 64, 74
1, 324874, Control_c, 0, 67, 20
1, 324889, Control_c, 0, 64, 72
1, 324889, Control_c, 0, 67, 21
1, 324904, Control_c, 0, 64, 67
1, 324904, Control_c, 0, 67, 21
1, 324926, Control_c, 0, 64, 61
1, 324926, Control_c, 0, 67, 22
1, 324942, Control_c, 0, 64, 43
1, 324942, Control_c, 0, 67, 22
1, 324956, Note_on_c, 0, 94, 76
1, 324957, Control_c, 0, 64, 0
1, 324957, Control_c, 0, 67, 23
1, 324972, Control_c, 0, 67, 24
1, 324976, Note_off_c, 0, 93, 49
1, 325001, Control_c, 0, 67, 24
1, 325016, Control_c, 0, 64, 34
1, 325016, Control_c, 0, 67, 25
1, 325031, Control_c, 0, 64, 50
1, 325046, Control_c, 0, 64, 58
1, 325046, Control_c, 0, 67, 25
1, 325050, Note_off_c, 0, 94, 65
1, 325059, Note_on_c, 0, 95, 69
1, 325061, Control_c, 0, 64, 62
1, 325061, Control_c, 0, 67, 26
1, 325069, Note_on_c, 0, 63, 47
1, 325075, Control_c, 0, 64, 63
1, 325075, Control_c, 0, 67, 28
1, 325076, Note_on_c, 0, 66, 44
1, 325076, Note_on_c, 0, 69, 39
1, 325078, Note_on_c, 0, 71, 45
1, 325090, Control_c, 0, 64, 63
1, 325090, Control_c, 0, 67, 29
1, 325105, Control_c, 0, 64, 65
1, 325120, Control_c, 0, 64, 66
1, 325120, Control_c, 0, 67, 29
1, 325134, Control_c, 0, 64, 68
1, 325149, Control_c, 0, 64, 70
1, 325154, Note_off_c, 0, 95, 60
1, 325155, Note_on_c, 0, 93, 73
1, 325164, Control_c, 0, 64, 71
1, 325164, Control_c, 0, 67, 30
1, 325179, Control_c, 0, 64, 72
1, 325194, Control_c, 0, 64, 73
1, 325194, Control_c, 0, 67, 30
1, 325208, Control_c, 0, 64, 74
1, 325208, Control_c, 0, 67, 31
1, 325222, Note_off_c, 0, 93, 62
1, 325223, Control_c, 0, 64, 75
1, 325238, Control_c, 0, 64, 76
1, 325247, Note_on_c, 0, 91, 71
1, 325253, Control_c, 0, 64, 77
1, 325268, Note_off_c, 0, 63, 36
1, 325268, Control_c, 0, 64, 79
1, 325274, Note_off_c, 0, 66, 52
1, 325283, Note_off_c, 0, 71, 47
1, 325283, Control_c, 0, 64, 81
1, 325298, Control_c, 0, 64, 82
1, 325307, Note_off_c, 0, 57, 46
1, 325313, Control_c, 0, 64, 82
1, 325319, Note_off_c, 0, 69, 38
1, 325327, Control_c, 0, 64, 83
1, 325334, Note_on_c, 0, 90, 77
1, 325342, Control_c, 0, 67, 30
1, 325354, Note_off_c, 0, 91, 49
1, 325357, Control_c, 0, 64, 82
1, 325357, Control_c, 0, 67, 30
1, 325372, Control_c, 0, 64, 73
1, 325387, Control_c, 0, 64, 60
1, 325387, Control_c, 0, 67, 29
1, 325401, Control_c, 0, 64, 8
1, 325416, Control_c, 0, 64, 20
1, 325431, Note_on_c, 0, 93, 67
1, 325431, Control_c, 0, 64, 46
1, 325432, Note_on_c, 0, 57, 59
1, 325447, Control_c, 0, 64, 57
1, 325453, Note_off_c, 0, 90, 56
1, 325462, Control_c, 0, 64, 61
1, 325462, Control_c, 0, 67, 30
1, 325477, Control_c, 0, 64, 63
1, 325477, Control_c, 0, 67, 31
1, 325491, Note_off_c, 0, 57, 62
1, 325521, Note_on_c, 0, 91, 73
1, 325521, Note_off_c, 0, 93, 60
1, 325550, Control_c, 0, 64, 63
1, 325595, Control_c, 0, 64, 62
1, 325595, Control_c, 0, 67, 31
1, 325610, Control_c, 0, 67, 32
1, 325619, Note_on_c, 0, 67, 63
1, 325622, Note_off_c, 0, 91, 60
1, 325623, Note_on_c, 0, 95, 69
1, 325635, Note_on_c, 0, 64, 61
1, 325639, Control_c, 0, 67, 32
1, 325654, Control_c, 0, 67, 33
1, 325676, Control_c, 0, 67, 34
1, 325717, Note_on_c, 0, 93, 75
1, 325730, Note_off_c, 0, 95, 58
1, 325735, Control_c, 0, 67, 34
1, 325749, Control_c, 0, 67, 35
1, 325764, Control_c, 0, 67, 35
1, 325779, Control_c, 0, 67, 36
1, 325794, Control_c, 0, 67, 37
1, 325803, Note_on_c, 0, 66, 65
1, 325805, Note_on_c, 0, 69, 71
1, 325809, Control_c, 0, 67, 38
1, 325814, Note_on_c, 0, 91, 68
1, 325823, Control_c, 0, 67, 38
1, 325831, Note_off_c, 0, 64, 39
1, 325834, Note_off_c, 0, 67, 61
1, 325838, Control_c, 0, 67, 39
1, 325850, Note_off_c, 0, 93, 46
1, 325868, Control_c, 0, 67, 39
1, 325882, Control_c, 0, 67, 40
1, 325891, Note_off_c, 0, 91, 59
1, 325897, Control_c, 0, 67, 41
1, 325899, Note_on_c, 0, 90, 72
1, 325912, Control_c, 0, 67, 43
1, 325927, Control_c, 0, 67, 44
1, 325942, Control_c, 0, 67, 46
1, 325957, Control_c, 0, 67, 47
1, 325960, Note_off_c, 0, 90, 63
1, 325971, Control_c, 0, 67, 48
1, 325986, Control_c, 0, 64, 59
1, 325986, Control_c, 0, 67, 48
1, 326001, Control_c, 0, 64, 44
1, 326016, Control_c, 0, 64, 0
1, 326016, Control_c, 0, 67, 49
1, 326031, Control_c, 0, 67, 50
1, 326035, Note_on_c, 0, 90, 64
1, 326039, Note_on_c, 0, 71, 59
1, 326042, Note_off_c, 0, 69, 60
1, 326043, Note_on_c, 0, 67, 61
1, 326046, Control_c, 0, 67, 52
1, 326057, Note_off_c, 0, 66, 50
1, 326061, Control_c, 0, 67, 54
1, 326075, Control_c, 0, 67, 55
1, 326090, Control_c, 0, 64, 34
1, 326090, Control_c, 0, 67, 56
1, 326105, Control_c, 0, 64, 56
1, 326105, Control_c, 0, 67, 56
1, 326120, Control_c, 0, 64, 61
1, 326120, Control_c, 0, 67, 57
1, 326135, Control_c, 0, 64, 62
1, 326149, Control_c, 0, 67, 57
1, 326153, Note_on_c, 0, 88, 62
1, 326160, Note_off_c, 0, 90, 56
1, 326164, Control_c, 0, 67, 58
1, 326179, Control_c, 0, 67, 60
1, 326194, Control_c, 0, 67, 62
1, 326206, Note_off_c, 0, 88, 61
1, 326209, Control_c, 0, 67, 64
1, 326223, Control_c, 0, 67, 65
1, 326239, Control_c, 0, 67, 67
1, 326254, Control_c, 0, 67, 68
1, 326263, Note_on_c, 0, 88, 59
1, 326267, Note_on_c, 0, 66, 57
1, 326267, Note_off_c, 0, 67, 55
1, 326269, Note_on_c, 0, 69, 52
1, 326269, Control_c, 0, 67, 68
1, 326284, Control_c, 0, 67, 69
1, 326298, Control_c, 0, 67, 70
1, 326313, Control_c, 0, 64, 62
1, 326313, Control_c, 0, 67, 71
1, 326319, Note_off_c, 0, 71, 50
1, 326323, Note_off_c, 0, 88, 63
1, 326328, Control_c, 0, 67, 72
1, 326343, Control_c, 0, 67, 73
1, 326353, Note_on_c, 0, 87, 72
1, 326358, Control_c, 0, 67, 74
1, 326372, Control_c, 0, 67, 76
1, 326387, Control_c, 0, 67, 79
1, 326402, Control_c, 0, 67, 83
1, 326404, Note_off_c, 0, 87, 58
1, 326425, Control_c, 0, 67, 87
1, 326439, Control_c, 0, 67, 90
1, 326446, Note_off_c, 0, 69, 66
1, 326447, Note_on_c, 0, 67, 57
1, 326448, Note_on_c, 0, 87, 56
1, 326454, Control_c, 0, 67, 91
1, 326469, Control_c, 0, 67, 92
1, 326469, Note_on_c, 0, 64, 50
1, 326469, Note_off_c, 0, 66, 31
1, 326474, Note_off_c, 0, 67, 66
1, 326484, Control_c, 0, 67, 93
1, 326498, Control_c, 0, 67, 94
1, 326499, Note_off_c, 0, 64, 65
1, 326513, Control_c, 0, 67, 94
1, 326528, Control_c, 0, 64, 63
1, 326542, Note_on_c, 0, 88, 71
1, 326551, Note_off_c, 0, 87, 50
1, 326600, Note_off_c, 0, 88, 62
1, 326602, Control_c, 0, 64, 62
1, 326617, Control_c, 0, 64, 55
1, 326626, Note_on_c, 0, 57, 56
1, 326632, Control_c, 0, 64, 0
1, 326672, Note_on_c, 0, 81, 69
1, 326676, Control_c, 0, 67, 94
1, 326720, Control_c, 0, 64, 55
1, 326735, Control_c, 0, 64, 62
1, 326750, Control_c, 0, 64, 63
1, 326776, Note_off_c, 0, 81, 59
1, 326780, Note_on_c, 0, 83, 60
1, 326869, Control_c, 0, 64, 64
1, 326869, Note_on_c, 0, 85, 64
1, 326870, Note_off_c, 0, 83, 59
1, 326874, Note_on_c, 0, 64, 45
1, 326874, Note_on_c, 0, 69, 46
1, 326875, Note_on_c, 0, 67, 48
1, 326898, Control_c, 0, 64, 64
1, 326913, Control_c, 0, 64, 65
1, 326928, Note_off_c, 0, 85, 65
1, 326943, Control_c, 0, 64, 65
1, 326962, Note_on_c, 0, 86, 68
1, 326972, Control_c, 0, 64, 66
1, 327002, Control_c, 0, 64, 66
1, 327016, Control_c, 0, 67, 94
1, 327048, Control_c, 0, 67, 95
1, 327058, Note_off_c, 0, 86, 63
1, 327061, Note_on_c, 0, 88, 69
1, 327092, Control_c, 0, 67, 95
1, 327119, Note_off_c, 0, 69, 53
1, 327121, Control_c, 0, 67, 96
1, 327129, Note_off_c, 0, 64, 51
1, 327135, Note_off_c, 0, 57, 60
1, 327136, Control_c, 0, 67, 96
1, 327147, Note_off_c, 0, 67, 37
1, 327149, Note_on_c, 0, 90, 67
1, 327149, Note_off_c, 0, 88, 61
1, 327151, Control_c, 0, 67, 97
1, 327173, Control_c, 0, 67, 100
1, 327188, Control_c, 0, 67, 102
1, 327203, Control_c, 0, 67, 106
1, 327217, Control_c, 0, 64, 66
1, 327217, Control_c, 0, 67, 108
1, 327218, Note_off_c, 0, 90, 64
1, 327232, Control_c, 0, 64, 65
1, 327232, Control_c, 0, 67, 109
1, 327247, Control_c, 0, 64, 61
1, 327247, Control_c, 0, 67, 111
1, 327262, Control_c, 0, 64, 50
1, 327262, Control_c, 0, 67, 114
1, 327263, Note_on_c, 0, 91, 65
1, 327277, Control_c, 0, 64, 0
1, 327277, Control_c, 0, 67, 116
1, 327278, Note_on_c, 0, 57, 43
1, 327292, Control_c, 0, 67, 119
1, 327307, Control_c, 0, 67, 123
1, 327321, Control_c, 0, 67, 126
1, 327336, Control_c, 0, 64, 35
1, 327336, Control_c, 0, 67, 127
1, 327351, Control_c, 0, 64, 50
1, 327366, Control_c, 0, 64, 57
1, 327375, Note_on_c, 0, 92, 64
1, 327381, Control_c, 0, 64, 60
1, 327381, Note_off_c, 0, 91, 51
1, 327395, Control_c, 0, 64, 61
1, 327425, Control_c, 0, 64, 62
1, 327436, Note_off_c, 0, 92, 62
1, 327440, Control_c, 0, 64, 62
1, 327447, Note_on_c, 0, 93, 59
1, 327455, Control_c, 0, 64, 63
1, 327469, Control_c, 0, 64, 63
1, 327484, Control_c, 0, 64, 64
1, 327493, Note_on_c, 0, 64, 38
1, 327494, Note_on_c, 0, 69, 40
1, 327496, Note_on_c, 0, 67, 37
1, 327497, Note_on_c, 0, 61, 39
1, 327499, Control_c, 0, 64, 64
1, 327528, Control_c, 0, 64, 65
1, 327543, Control_c, 0, 64, 66
1, 327558, Control_c, 0, 64, 66
1, 327563, Note_off_c, 0, 93, 53
1, 327566, Note_on_c, 0, 91, 63
1, 327573, Control_c, 0, 64, 67
1, 327588, Control_c, 0, 64, 67
1, 327602, Control_c, 0, 64, 68
1, 327617, Control_c, 0, 64, 68
1, 327647, Control_c, 0, 64, 69
1, 327659, Note_off_c, 0, 61, 54
1, 327661, Note_on_c, 0, 90, 61
1, 327662, Control_c, 0, 64, 70
1, 327663, Note_off_c, 0, 91, 50
1, 327677, Control_c, 0, 64, 71
1, 327691, Control_c, 0, 64, 71
1, 327706, Note_off_c, 0, 64, 35
1, 327706, Control_c, 0, 64, 72
1, 327707, Note_off_c, 0, 57, 55
1, 327707, Note_off_c, 0, 69, 47
1, 327730, Note_off_c, 0, 90, 56
1, 327734, Note_off_c, 0, 67, 37
1, 327745, Note_on_c, 0, 88, 58
1, 327781, Control_c, 0, 64, 67
1, 327795, Control_c, 0, 64, 60
1, 327810, Control_c, 0, 64, 46
1, 327825, Control_c, 0, 64, 48
1, 327830, Note_on_c, 0, 57, 47
1, 327832, Note_on_c, 0, 91, 56
1, 327840, Control_c, 0, 64, 54
1, 327855, Control_c, 0, 64, 59
1, 327870, Control_c, 0, 64, 61
1, 327885, Note_off_c, 0, 88, 34
1, 327885, Control_c, 0, 64, 63
1, 327900, Note_off_c, 0, 57, 62
1, 327924, Note_off_c, 0, 91, 53
1, 327938, Note_on_c, 0, 90, 66
1, 327997, Control_c, 0, 64, 62
1, 328026, Control_c, 0, 64, 62
1, 328031, Note_on_c, 0, 93, 63
1, 328031, Note_off_c, 0, 90, 59
1, 328041, Note_on_c, 0, 66, 52
1, 328050, Note_on_c, 0, 62, 47
1, 328056, Control_c, 0, 64, 61
1, 328100, Control_c, 0, 64, 61
1, 328130, Note_on_c, 0, 91, 64
1, 328130, Control_c, 0, 64, 60
1, 328145, Control_c, 0, 64, 60
1, 328159, Control_c, 0, 64, 59
1, 328182, Note_off_c, 0, 93, 33
1, 328189, Control_c, 0, 64, 59
1, 328205, Note_off_c, 0, 91, 56
1, 328210, Note_off_c, 0, 62, 48
1, 328212, Note_off_c, 0, 66, 59
1, 328215, Note_on_c, 0, 90, 65
1, 328219, Control_c, 0, 64, 58
1, 328228, Note_on_c, 0, 64, 50
1, 328237, Note_on_c, 0, 67, 44
1, 328249, Control_c, 0, 64, 58
1, 328284, Note_off_c, 0, 90, 62
1, 328293, Control_c, 0, 64, 57
1, 328316, Note_on_c, 0, 88, 62
1, 328338, Control_c, 0, 64, 57
1, 328352, Control_c, 0, 64, 56
1, 328367, Control_c, 0, 64, 55
1, 328371, Note_off_c, 0, 88, 58
1, 328382, Control_c, 0, 64, 54
1, 328397, Control_c, 0, 64, 53
1, 328412, Control_c, 0, 64, 52
1, 328426, Control_c, 0, 64, 51
1, 328433, Note_off_c, 0, 64, 56
1, 328437, Note_on_c, 0, 88, 52
1, 328438, Note_off_c, 0, 67, 45
1, 328441, Control_c, 0, 64, 48
1, 328454, Note_on_c, 0, 66, 43
1, 328456, Note_on_c, 0, 69, 39
1, 328456, Control_c, 0, 64, 44
1, 328470, Control_c, 0, 64, 40
1, 328485, Control_c, 0, 64, 35
1, 328500, Control_c, 0, 64, 33
1, 328515, Control_c, 0, 64, 34
1, 328530, Control_c, 0, 64, 35
1, 328544, Note_off_c, 0, 88, 61
1, 328544, Control_c, 0, 64, 36
1, 328556, Note_on_c, 0, 86, 58
1, 328559, Control_c, 0, 64, 37
1, 328574, Control_c, 0, 64, 37
1, 328592, Note_off_c, 0, 86, 58
1, 328604, Control_c, 0, 64, 38
1, 328618, Control_c, 0, 64, 38
1, 328633, Control_c, 0, 64, 39
1, 328649, Control_c, 0, 64, 39
1, 328672, Control_c, 0, 64, 40
1, 328683, Note_on_c, 0, 86, 61
1, 328685, Note_on_c, 0, 64, 47
1, 328687, Control_c, 0, 64, 40
1, 328688, Note_on_c, 0, 67, 42
1, 328689, Note_off_c, 0, 66, 50
1, 328705, Note_off_c, 0, 69, 38
1, 328716, Control_c, 0, 64, 41
1, 328731, Control_c, 0, 64, 42
1, 328739, Note_off_c, 0, 86, 61
1, 328746, Control_c, 0, 64, 42
1, 328761, Control_c, 0, 64, 43
1, 328772, Note_on_c, 0, 85, 60
1, 328820, Control_c, 0, 64, 42
1, 328823, Note_off_c, 0, 85, 54
1, 328849, Control_c, 0, 64, 42
1, 328882, Note_on_c, 0, 66, 53
1, 328884, Note_off_c, 0, 67, 53
1, 328886, Note_on_c, 0, 85, 43
1, 328889, Note_off_c, 0, 64, 37
1, 328908, Note_on_c, 0, 62, 40
1, 328916, Note_off_c, 0, 66, 67
1, 328935, Note_off_c, 0, 62, 58
1, 328953, Control_c, 0, 64, 41
1, 328957, Note_off_c, 0, 85, 61
1, 328967, Control_c, 0, 64, 41
1, 328982, Control_c, 0, 64, 40
1, 328984, Note_on_c, 0, 86, 63
1, 329012, Control_c, 0, 64, 40
1, 329027, Control_c, 0, 64, 39
1, 329042, Control_c, 0, 64, 37
1, 329057, Control_c, 0, 64, 32
1, 329072, Control_c, 0, 64, 0
1, 329094, Note_on_c, 0, 57, 46
1, 329107, Note_off_c, 0, 86, 36
1, 329175, Control_c, 0, 64, 34
1, 329176, Note_on_c, 0, 78, 74
1, 329190, Control_c, 0, 64, 45
1, 329205, Control_c, 0, 64, 50
1, 329219, Control_c, 0, 64, 54
1, 329234, Control_c, 0, 64, 58
1, 329249, Control_c, 0, 64, 61
1, 329264, Control_c, 0, 64, 63
1, 329279, Control_c, 0, 64, 63
1, 329293, Control_c, 0, 64, 64
1, 329308, Control_c, 0, 64, 65
1, 329313, Note_on_c, 0, 86, 57
1, 329323, Control_c, 0, 64, 65
1, 329338, Control_c, 0, 64, 66
1, 329353, Control_c, 0, 64, 66
1, 329367, Control_c, 0, 64, 67
1, 329387, Note_off_c, 0, 86, 62
1, 329396, Note_off_c, 0, 78, 53
1, 329397, Control_c, 0, 64, 68
1, 329403, Note_on_c, 0, 85, 61
1, 329415, Note_on_c, 0, 66, 41
1, 329418, Note_on_c, 0, 62, 42
1, 329419, Control_c, 0, 64, 68
1, 329434, Control_c, 0, 64, 69
1, 329450, Control_c, 0, 64, 69
1, 329480, Control_c, 0, 64, 70
1, 329500, Note_on_c, 0, 86, 67
1, 329577, Note_off_c, 0, 86, 61
1, 329592, Note_off_c, 0, 57, 55
1, 329592, Note_off_c, 0, 85, 22
1, 329593, Note_on_c, 0, 78, 71
1, 329614, Note_off_c, 0, 62, 40
1, 329656, Note_off_c, 0, 66, 56
1, 329687, Control_c, 0, 64, 69
1, 329691, Note_on_c, 0, 86, 66
1, 329698, Note_off_c, 0, 78, 61
1, 329716, Control_c, 0, 64, 69
1, 329731, Control_c, 0, 64, 68
1, 329746, Control_c, 0, 64, 66
1, 329761, Control_c, 0, 64, 63
1, 329766, Note_off_c, 0, 86, 62
1, 329776, Control_c, 0, 64, 53
1, 329781, Note_on_c, 0, 57, 36
1, 329788, Note_on_c, 0, 79, 71
1, 329790, Control_c, 0, 64, 0
1, 329879, Control_c, 0, 64, 45
1, 329894, Control_c, 0, 64, 59
1, 329896, Note_on_c, 0, 86, 56
1, 329909, Control_c, 0, 64, 63
1, 329924, Control_c, 0, 64, 63
1, 329939, Control_c, 0, 64, 64
1, 329954, Control_c, 0, 64, 65
1, 329969, Control_c, 0, 64, 67
1, 329972, Note_off_c, 0, 86, 62
1, 329974, Note_off_c, 0, 79, 36
1, 329984, Control_c, 0, 64, 68
1, 329990, Note_on_c, 0, 85, 59
1, 329996, Note_on_c, 0, 67, 39
1, 329998, Control_c, 0, 64, 70
1, 330004, Note_on_c, 0, 64, 35
1, 330013, Control_c, 0, 64, 70
1, 330042, Control_c, 0, 64, 71
1, 330057, Control_c, 0, 64, 71
1, 330078, Note_on_c, 0, 86, 57
1, 330087, Control_c, 0, 64, 72
1, 330116, Control_c, 0, 64, 72
1, 330131, Control_c, 0, 64, 74
1, 330145, Note_off_c, 0, 86, 63
1, 330146, Control_c, 0, 64, 74
1, 330169, Control_c, 0, 64, 75
1, 330177, Note_on_c, 0, 79, 61
1, 330183, Control_c, 0, 64, 76
1, 330191, Note_off_c, 0, 85, 22
1, 330197, Control_c, 0, 64, 77
1, 330212, Control_c, 0, 64, 78
1, 330225, Note_off_c, 0, 57, 34
1, 330227, Control_c, 0, 64, 78
1, 330243, Note_off_c, 0, 79, 57
1, 330243, Control_c, 0, 64, 79
1, 330258, Control_c, 0, 64, 80
1, 330264, Note_off_c, 0, 64, 40
1, 330272, Control_c, 0, 64, 81
1, 330279, Note_on_c, 0, 86, 59
1, 330282, Note_off_c, 0, 67, 37
1, 330302, Control_c, 0, 64, 79
1, 330317, Control_c, 0, 64, 70
1, 330332, Control_c, 0, 64, 58
1, 330346, Control_c, 0, 64, 30
1, 330361, Control_c, 0, 64, 45
1, 330376, Control_c, 0, 64, 58
1, 330387, Note_on_c, 0, 57, 39
1, 330388, Note_on_c, 0, 80, 57
1, 330391, Control_c, 0, 64, 63
1, 330406, Control_c, 0, 64, 67
1, 330420, Control_c, 0, 64, 70
1, 330435, Control_c, 0, 64, 72
1, 330449, Note_off_c, 0, 57, 62
1, 330460, Note_off_c, 0, 80, 64
1, 330490, Note_off_c, 0, 86, 41
1, 330513, Note_on_c, 0, 81, 56
1, 330538, Control_c, 0, 64, 72
1, 330553, Control_c, 0, 64, 71
1, 330568, Control_c, 0, 64, 71
1, 330583, Control_c, 0, 64, 70
1, 330585, Note_off_c, 0, 81, 54
1, 330598, Control_c, 0, 64, 70
1, 330609, Note_on_c, 0, 83, 57
1, 330613, Control_c, 0, 64, 69
1, 330628, Control_c, 0, 64, 69
1, 330631, Note_on_c, 0, 65, 43
1, 330631, Note_on_c, 0, 68, 37
1, 330643, Control_c, 0, 64, 68
1, 330657, Control_c, 0, 64, 68
1, 330687, Control_c, 0, 64, 67
1, 330702, Note_off_c, 0, 83, 57
1, 330705, Note_on_c, 0, 81, 60
1, 330717, Control_c, 0, 64, 67
1, 330746, Control_c, 0, 64, 66
1, 330776, Control_c, 0, 64, 66
1, 330778, Note_off_c, 0, 65, 36
1, 330785, Note_off_c, 0, 81, 59
1, 330789, Note_on_c, 0, 86, 55
1, 330806, Control_c, 0, 64, 65
1, 330809, Note_on_c, 0, 66, 50
1, 330809, Note_on_c, 0, 69, 46
1, 330829, Note_off_c, 0, 68, 39
1, 330886, Note_on_c, 0, 81, 64
1, 330896, Note_off_c, 0, 66, 47
1, 330903, Note_off_c, 0, 69, 38
1, 330917, Control_c, 0, 64, 64
1, 330932, Control_c, 0, 64, 56
1, 330946, Control_c, 0, 64, 20
1, 330961, Control_c, 0, 64, 0
1, 330984, Note_off_c, 0, 86, 23
1, 330991, Control_c, 0, 64, 34
1, 330994, Note_on_c, 0, 90, 61
1, 331006, Control_c, 0, 64, 50
1, 331014, Note_on_c, 0, 69, 44
1, 331020, Control_c, 0, 64, 58
1, 331021, Note_on_c, 0, 66, 46
1, 331036, Control_c, 0, 64, 61
1, 331051, Control_c, 0, 64, 62
1, 331087, Note_on_c, 0, 88, 54
1, 331087, Note_off_c, 0, 69, 53
1, 331089, Note_off_c, 0, 66, 51
1, 331091, Note_off_c, 0, 81, 49
1, 331136, Note_off_c, 0, 90, 34
1, 331171, Note_on_c, 0, 86, 57
1, 331182, Note_on_c, 0, 69, 43
1, 331183, Note_on_c, 0, 66, 50
1, 331211, Note_off_c, 0, 88, 53
1, 331242, Note_off_c, 0, 86, 56
1, 331249, Note_off_c, 0, 69, 52
1, 331251, Note_on_c, 0, 85, 63
1, 331290, Note_off_c, 0, 66, 34
1, 331302, Control_c, 0, 64, 62
1, 331308, Note_off_c, 0, 85, 63
1, 331339, Note_on_c, 0, 66, 43
1, 331345, Note_on_c, 0, 83, 57
1, 331347, Control_c, 0, 64, 63
1, 331355, Note_on_c, 0, 69, 54
1, 331377, Note_off_c, 0, 66, 66
1, 331414, Note_off_c, 0, 83, 62
1, 331421, Control_c, 0, 64, 63
1, 331423, Note_off_c, 0, 69, 62
1, 331425, Note_on_c, 0, 81, 63
1, 331450, Control_c, 0, 64, 63
1, 331465, Control_c, 0, 64, 61
1, 331480, Control_c, 0, 64, 53
1, 331495, Control_c, 0, 64, 0
1, 331503, Note_off_c, 0, 81, 60
1, 331532, Note_on_c, 0, 83, 64
1, 331551, Note_on_c, 0, 57, 45
1, 331613, Control_c, 0, 64, 54
1, 331628, Note_on_c, 0, 86, 63
1, 331628, Control_c, 0, 64, 65
1, 331641, Note_off_c, 0, 83, 50
1, 331643, Control_c, 0, 64, 70
1, 331653, Note_off_c, 0, 57, 38
1, 331665, Control_c, 0, 64, 73
1, 331681, Control_c, 0, 64, 76
1, 331695, Control_c, 0, 64, 78
1, 331707, Note_off_c, 0, 86, 60
1, 331710, Control_c, 0, 64, 79
1, 331725, Note_on_c, 0, 67, 54
1, 331725, Control_c, 0, 64, 80
1, 331727, Note_on_c, 0, 71, 61
1, 331729, Note_on_c, 0, 85, 68
1, 331740, Control_c, 0, 64, 82
1, 331755, Control_c, 0, 64, 84
1, 331769, Control_c, 0, 64, 86
1, 331784, Control_c, 0, 64, 89
1, 331799, Control_c, 0, 64, 91
1, 331814, Control_c, 0, 64, 92
1, 331820, Note_off_c, 0, 85, 62
1, 331824, Note_on_c, 0, 86, 73
1, 331829, Control_c, 0, 64, 92
1, 331845, Control_c, 0, 64, 93
1, 331859, Control_c, 0, 64, 94
1, 331889, Control_c, 0, 64, 94
1, 331895, Note_off_c, 0, 86, 61
1, 331904, Control_c, 0, 64, 95
1, 331918, Control_c, 0, 64, 95
1, 331921, Note_off_c, 0, 67, 62
1, 331921, Note_off_c, 0, 71, 52
1, 331926, Note_on_c, 0, 83, 66
1, 331933, Control_c, 0, 64, 96
1, 331948, Control_c, 0, 64, 98
1, 331963, Control_c, 0, 64, 99
1, 331978, Control_c, 0, 64, 102
1, 331993, Control_c, 0, 64, 102
1, 331996, Note_off_c, 0, 83, 60
1, 332008, Control_c, 0, 64, 102
1, 332013, Note_on_c, 0, 86, 69
1, 332023, Control_c, 0, 64, 91
1, 332037, Control_c, 0, 64, 72
1, 332052, Control_c, 0, 64, 52
1, 332067, Control_c, 0, 64, 0
1, 332073, Note_off_c, 0, 86, 64
1, 332102, Note_on_c, 0, 57, 60
1, 332111, Control_c, 0, 64, 51
1, 332111, Control_c, 0, 67, 119
1, 332114, Note_on_c, 0, 85, 66
1, 332126, Control_c, 0, 64, 65
1, 332126, Control_c, 0, 67, 111
1, 332141, Control_c, 0, 64, 71
1, 332141, Control_c, 0, 67, 106
1, 332151, Note_off_c, 0, 57, 61
1, 332156, Control_c, 0, 64, 76
1, 332156, Control_c, 0, 67, 105
1, 332171, Control_c, 0, 64, 79
1, 332185, Control_c, 0, 64, 83
1, 332200, Control_c, 0, 64, 85
1, 332204, Note_on_c, 0, 93, 67
1, 332215, Control_c, 0, 64, 87
1, 332230, Control_c, 0, 64, 87
1, 332230, Control_c, 0, 67, 105
1, 332240, Note_off_c, 0, 85, 52
1, 332244, Control_c, 0, 64, 88
1, 332244, Control_c, 0, 67, 106
1, 332259, Control_c, 0, 67, 106
1, 332274, Control_c, 0, 64, 88
1, 332274, Control_c, 0, 67, 107
1, 332286, Note_off_c, 0, 93, 62
1, 332289, Control_c, 0, 67, 108
1, 332297, Note_on_c, 0, 92, 68
1, 332309, Note_on_c, 0, 73, 53
1, 332318, Note_on_c, 0, 64, 48
1, 332318, Control_c, 0, 67, 108
1, 332333, Control_c, 0, 67, 109
1, 332348, Note_off_c, 0, 73, 0
1, 332348, Note_on_c, 0, 73, 27
1, 332363, Control_c, 0, 67, 109
1, 332378, Control_c, 0, 67, 110
1, 332395, Note_on_c, 0, 93, 73
1, 332398, Note_off_c, 0, 92, 59
1, 332415, Control_c, 0, 67, 110
1, 332443, Note_off_c, 0, 73, 57
1, 332444, Control_c, 0, 67, 111
1, 332452, Note_off_c, 0, 64, 64
1, 332471, Note_off_c, 0, 93, 59
1, 332496, Note_on_c, 0, 85, 63
1, 332518, Control_c, 0, 67, 110
1, 332563, Control_c, 0, 67, 110
1, 332567, Note_off_c, 0, 85, 51
1, 332577, Note_on_c, 0, 93, 73
1, 332578, Control_c, 0, 64, 81
1, 332578, Control_c, 0, 67, 109
1, 332592, Control_c, 0, 64, 65
1, 332592, Control_c, 0, 67, 109
1, 332607, Control_c, 0, 64, 0
1, 332607, Control_c, 0, 67, 108
1, 332622, Control_c, 0, 67, 107
1, 332638, Control_c, 0, 67, 106
1, 332677, Note_on_c, 0, 85, 67
1, 332681, Note_on_c, 0, 57, 64
1, 332682, Control_c, 0, 64, 28
1, 332682, Control_c, 0, 67, 106
1, 332697, Control_c, 0, 64, 62
1, 332697, Control_c, 0, 67, 107
1, 332712, Control_c, 0, 64, 70
1, 332712, Control_c, 0, 67, 108
1, 332719, Note_off_c, 0, 57, 62
1, 332727, Control_c, 0, 64, 76
1, 332727, Control_c, 0, 67, 109
1, 332737, Note_off_c, 0, 85, 65
1, 332741, Control_c, 0, 64, 83
1, 332741, Control_c, 0, 67, 109
1, 332756, Control_c, 0, 64, 87
1, 332756, Control_c, 0, 67, 110
1, 332771, Control_c, 0, 64, 93
1, 332774, Note_off_c, 0, 93, 53
1, 332786, Control_c, 0, 64, 97
1, 332789, Note_on_c, 0, 86, 57
1, 332816, Control_c, 0, 64, 92
1, 332816, Control_c, 0, 67, 110
1, 332830, Control_c, 0, 64, 72
1, 332845, Control_c, 0, 64, 31
1, 332845, Control_c, 0, 67, 111
1, 332854, Note_off_c, 0, 86, 54
1, 332860, Control_c, 0, 64, 0
1, 332870, Note_on_c, 0, 88, 67
1, 332884, Note_on_c, 0, 73, 55
1, 332887, Note_on_c, 0, 64, 42
1, 332890, Control_c, 0, 64, 35
1, 332890, Control_c, 0, 67, 110
1, 332905, Control_c, 0, 64, 61
1, 332920, Control_c, 0, 64, 68
1, 332934, Control_c, 0, 64, 74
1, 332935, Note_off_c, 0, 88, 64
1, 332949, Control_c, 0, 64, 79
1, 332962, Note_on_c, 0, 86, 69
1, 332964, Control_c, 0, 64, 84
1, 332979, Control_c, 0, 64, 87
1, 332979, Control_c, 0, 67, 111
1, 332994, Control_c, 0, 64, 86
1, 332997, Note_off_c, 0, 64, 62
1, 333008, Control_c, 0, 64, 76
1, 333023, Note_off_c, 0, 73, 54
1, 333023, Control_c, 0, 64, 57
1, 333038, Control_c, 0, 64, 0
1, 333043, Note_off_c, 0, 86, 55
1, 333049, Note_on_c, 0, 90, 73
1, 333067, Control_c, 0, 64, 22
1, 333067, Control_c, 0, 67, 110
1, 333068, Note_on_c, 0, 74, 51
1, 333069, Note_on_c, 0, 66, 53
1, 333082, Control_c, 0, 64, 60
1, 333097, Control_c, 0, 64, 70
1, 333112, Control_c, 0, 64, 79
1, 333127, Control_c, 0, 64, 83
1, 333141, Control_c, 0, 64, 84
1, 333144, Note_off_c, 0, 90, 58
1, 333146, Note_on_c, 0, 86, 71
1, 333164, Control_c, 0, 67, 109
1, 333168, Note_off_c, 0, 66, 52
1, 333194, Control_c, 0, 67, 108
1, 333196, Note_off_c, 0, 74, 39
1, 333209, Control_c, 0, 67, 108
1, 333250, Note_on_c, 0, 98, 64
1, 333252, Note_on_c, 0, 74, 47
1, 333257, Note_on_c, 0, 66, 52
1, 333282, Control_c, 0, 67, 107
1, 333297, Control_c, 0, 67, 107
1, 333317, Note_off_c, 0, 86, 32
1, 333337, Note_on_c, 0, 97, 67
1, 333356, Note_off_c, 0, 66, 38
1, 333356, Control_c, 0, 67, 106
1, 333400, Note_off_c, 0, 98, 52
1, 333400, Control_c, 0, 67, 106
1, 333408, Note_off_c, 0, 74, 0
1, 333424, Note_on_c, 0, 74, 37
1, 333430, Control_c, 0, 67, 105
1, 333434, Note_on_c, 0, 66, 56
1, 333437, Note_on_c, 0, 95, 66
1, 333446, Control_c, 0, 67, 105
1, 333476, Control_c, 0, 67, 104
1, 333490, Control_c, 0, 67, 103
1, 333502, Note_off_c, 0, 66, 56
1, 333505, Control_c, 0, 67, 103
1, 333509, Note_off_c, 0, 97, 47
1, 333516, Note_on_c, 0, 93, 70
1, 333518, Note_off_c, 0, 95, 59
1, 333520, Control_c, 0, 67, 101
1, 333528, Note_off_c, 0, 74, 39
1, 333535, Control_c, 0, 67, 98
1, 333550, Control_c, 0, 67, 96
1, 333564, Control_c, 0, 67, 92
1, 333579, Control_c, 0, 67, 89
1, 333587, Note_off_c, 0, 93, 62
1, 333594, Control_c, 0, 67, 86
1, 333607, Note_on_c, 0, 91, 70
1, 333609, Control_c, 0, 67, 83
1, 333610, Note_on_c, 0, 74, 51
1, 333611, Note_on_c, 0, 66, 61
1, 333624, Control_c, 0, 67, 79
1, 333638, Control_c, 0, 67, 77
1, 333646, Note_off_c, 0, 66, 63
1, 333653, Control_c, 0, 67, 75
1, 333654, Note_off_c, 0, 91, 54
1, 333656, Note_off_c, 0, 74, 60
1, 333668, Control_c, 0, 67, 73
1, 333683, Control_c, 0, 67, 72
1, 333695, Note_on_c, 0, 90, 72
1, 333698, Control_c, 0, 67, 69
1, 333713, Control_c, 0, 64, 82
1, 333713, Control_c, 0, 67, 65
1, 333728, Control_c, 0, 64, 69
1, 333728, Control_c, 0, 67, 61
1, 333743, Control_c, 0, 64, 40
1, 333743, Control_c, 0, 67, 57
1, 333757, Control_c, 0, 64, 0
1, 333757, Control_c, 0, 67, 51
1, 333772, Control_c, 0, 67, 48
1, 333787, Control_c, 0, 67, 46
1, 333799, Note_on_c, 0, 57, 61
1, 333802, Control_c, 0, 64, 35
1, 333802, Control_c, 0, 67, 44
1, 333805, Note_on_c, 0, 83, 68
1, 333816, Control_c, 0, 64, 62
1, 333816, Control_c, 0, 67, 43
1, 333831, Control_c, 0, 64, 70
1, 333831, Control_c, 0, 67, 42
1, 333846, Control_c, 0, 64, 76
1, 333850, Note_off_c, 0, 57, 59
1, 333861, Note_off_c, 0, 90, 35
1, 333861, Control_c, 0, 64, 79
1, 333876, Control_c, 0, 64, 81
1, 333890, Control_c, 0, 64, 83
1, 333895, Note_on_c, 0, 91, 72
1, 333913, Control_c, 0, 64, 85
1, 333927, Control_c, 0, 64, 86
1, 333942, Control_c, 0, 64, 87
1, 333957, Control_c, 0, 64, 88
1, 333971, Control_c, 0, 64, 89
1, 333986, Control_c, 0, 64, 91
1, 333986, Control_c, 0, 67, 42
1, 334001, Control_c, 0, 64, 92
1, 334001, Control_c, 0, 67, 43
1, 334007, Note_on_c, 0, 90, 78
1, 334008, Note_off_c, 0, 91, 60
1, 334011, Note_on_c, 0, 76, 77
1, 334015, Control_c, 0, 64, 92
1, 334019, Note_on_c, 0, 67, 65
1, 334030, Control_c, 0, 64, 93
1, 334034, Note_off_c, 0, 83, 44
1, 334060, Control_c, 0, 64, 93
1, 334111, Note_on_c, 0, 91, 78
1, 334119, Control_c, 0, 67, 43
1, 334134, Control_c, 0, 67, 44
1, 334142, Note_off_c, 0, 76, 64
1, 334149, Control_c, 0, 67, 44
1, 334157, Note_off_c, 0, 67, 61
1, 334163, Control_c, 0, 67, 45
1, 334178, Control_c, 0, 67, 45
1, 334189, Note_off_c, 0, 91, 60
1, 334193, Control_c, 0, 67, 46
1, 334196, Note_on_c, 0, 88, 75
1, 334197, Note_off_c, 0, 90, 24
1, 334223, Control_c, 0, 67, 46
1, 334253, Control_c, 0, 64, 92
1, 334253, Control_c, 0, 67, 47
1, 334268, Control_c, 0, 64, 72
1, 334283, Control_c, 0, 64, 27
1, 334290, Note_on_c, 0, 91, 73
1, 334296, Note_off_c, 0, 88, 58
1, 334298, Control_c, 0, 64, 0
1, 334298, Control_c, 0, 67, 46
1, 334352, Note_off_c, 0, 91, 61
1, 334372, Note_on_c, 0, 57, 66
1, 334372, Control_c, 0, 64, 63
1, 334372, Control_c, 0, 67, 47
1, 334385, Note_on_c, 0, 85, 72
1, 334387, Control_c, 0, 64, 71
1, 334387, Control_c, 0, 67, 47
1, 334395, Note_off_c, 0, 57, 66
1, 334401, Control_c, 0, 64, 79
1, 334401, Control_c, 0, 67, 48
1, 334416, Control_c, 0, 64, 85
1, 334416, Control_c, 0, 67, 48
1, 334431, Control_c, 0, 64, 89
1, 334431, Control_c, 0, 67, 49
1, 334446, Control_c, 0, 64, 97
1, 334461, Control_c, 0, 64, 127
1, 334474, Note_on_c, 0, 93, 72
1, 334491, Control_c, 0, 67, 49
1, 334505, Control_c, 0, 67, 50
1, 334550, Control_c, 0, 64, 84
1, 334560, Note_off_c, 0, 85, 36
1, 334565, Control_c, 0, 64, 54
1, 334570, Note_off_c, 0, 93, 61
1, 334573, Note_on_c, 0, 92, 72
1, 334577, Note_on_c, 0, 78, 83
1, 334579, Control_c, 0, 64, 0
1, 334579, Control_c, 0, 67, 49
1, 334581, Note_on_c, 0, 69, 58
1, 334594, Control_c, 0, 67, 49
1, 334609, Control_c, 0, 64, 12
1, 334609, Control_c, 0, 67, 48
1, 334624, Control_c, 0, 64, 58
1, 334638, Control_c, 0, 64, 68
1, 334661, Control_c, 0, 64, 78
1, 334661, Control_c, 0, 67, 49
1, 334676, Control_c, 0, 64, 84
1, 334683, Note_on_c, 0, 93, 79
1, 334691, Note_off_c, 0, 78, 65
1, 334691, Control_c, 0, 64, 87
1, 334691, Control_c, 0, 67, 49
1, 334706, Control_c, 0, 64, 93
1, 334720, Control_c, 0, 64, 98
1, 334733, Note_off_c, 0, 69, 65
1, 334735, Control_c, 0, 64, 102
1, 334735, Control_c, 0, 67, 49
1, 334746, Note_off_c, 0, 92, 0
1, 334750, Control_c, 0, 64, 106
1, 334750, Control_c, 0, 67, 48
1, 334753, Note_off_c, 0, 93, 60
1, 334765, Control_c, 0, 64, 110
1, 334765, Control_c, 0, 67, 48
1, 334767, Note_on_c, 0, 85, 77
1, 334780, Control_c, 0, 64, 119
1, 334783, Poly_aftertouch_c, 0, 92, 127
1, 334795, Control_c, 0, 64, 127
1, 334821, Poly_aftertouch_c, 0, 92, 0
1, 334842, Note_off_c, 0, 85, 62
1, 334843, Note_on_c, 0, 93, 77
1, 334854, Control_c, 0, 64, 107
1, 334854, Control_c, 0, 67, 47
1, 334869, Control_c, 0, 64, 68
1, 334869, Control_c, 0, 67, 47
1, 334884, Control_c, 0, 64, 0
1, 334884, Control_c, 0, 67, 46
1, 334899, Control_c, 0, 67, 46
1, 334943, Control_c, 0, 64, 65
1, 334945, Note_on_c, 0, 57, 69
1, 334945, Note_on_c, 0, 85, 61
1, 334958, Control_c, 0, 64, 80
1, 334958, Control_c, 0, 67, 46
1, 334972, Control_c, 0, 64, 95
1, 334972, Control_c, 0, 67, 47
1, 334987, Control_c, 0, 64, 99
1, 334987, Control_c, 0, 67, 47
1, 334990, Note_off_c, 0, 57, 61
1, 334997, Note_off_c, 0, 85, 64
1, 335002, Control_c, 0, 64, 101
1, 335017, Control_c, 0, 64, 106
1, 335031, Note_off_c, 0, 93, 55
1, 335033, Control_c, 0, 64, 113
1, 335035, Note_on_c, 0, 86, 74
1, 335048, Control_c, 0, 64, 127
1, 335092, Control_c, 0, 67, 48
1, 335122, Control_c, 0, 64, 92
1, 335128, Note_off_c, 0, 86, 59
1, 335132, Note_on_c, 0, 88, 78
1, 335136, Control_c, 0, 64, 65
1, 335142, Note_on_c, 0, 64, 54
1, 335148, Note_on_c, 0, 73, 57
1, 335151, Control_c, 0, 64, 36
1, 335151, Control_c, 0, 67, 47
1, 335166, Control_c, 0, 64, 39
1, 335166, Control_c, 0, 67, 46
1, 335181, Control_c, 0, 64, 54
1, 335181, Control_c, 0, 67, 46
1, 335196, Control_c, 0, 64, 63
1, 335210, Control_c, 0, 64, 71
1, 335216, Note_off_c, 0, 88, 63
1, 335225, Control_c, 0, 64, 87
1, 335233, Note_on_c, 0, 86, 77
1, 335240, Control_c, 0, 64, 102
1, 335254, Control_c, 0, 64, 112
1, 335269, Control_c, 0, 64, 127
1, 335269, Control_c, 0, 67, 47
1, 335284, Control_c, 0, 64, 125
1, 335285, Note_off_c, 0, 64, 61
1, 335299, Control_c, 0, 64, 90
1, 335314, Control_c, 0, 64, 63
1, 335323, Note_on_c, 0, 93, 78
1, 335326, Note_on_c, 0, 66, 55
1, 335328, Note_on_c, 0, 74, 52
1, 335328, Control_c, 0, 64, 0
1, 335343, Control_c, 0, 67, 46
1, 335346, Note_off_c, 0, 73, 34
1, 335373, Control_c, 0, 64, 42
1, 335373, Control_c, 0, 67, 46
1, 335388, Control_c, 0, 64, 67
1, 335410, Control_c, 0, 64, 81
1, 335410, Control_c, 0, 67, 46
1, 335423, Note_on_c, 0, 90, 81
1, 335424, Note_off_c, 0, 93, 60
1, 335425, Control_c, 0, 64, 90
1, 335425, Control_c, 0, 67, 47
1, 335453, Note_off_c, 0, 74, 50
1, 335475, Note_off_c, 0, 66, 38
1, 335556, Note_on_c, 0, 74, 45
1, 335558, Note_on_c, 0, 98, 71
1, 335560, Note_off_c, 0, 86, 37
1, 335564, Note_off_c, 0, 90, 63
1, 335565, Note_on_c, 0, 66, 42
1, 335662, Control_c, 0, 64, 90
1, 335665, Note_off_c, 0, 74, 39
1, 335666, Note_on_c, 0, 97, 67
1, 335668, Note_off_c, 0, 66, 38
1, 335677, Control_c, 0, 67, 47
1, 335692, Control_c, 0, 67, 48
1, 335707, Control_c, 0, 67, 49
1, 335733, Note_on_c, 0, 74, 43
1, 335734, Note_off_c, 0, 98, 60
1, 335751, Note_on_c, 0, 66, 47
1, 335758, Note_on_c, 0, 95, 69
1, 335793, Note_off_c, 0, 66, 59
1, 335795, Control_c, 0, 67, 50
1, 335810, Control_c, 0, 67, 51
1, 335812, Note_off_c, 0, 74, 54
1, 335825, Control_c, 0, 67, 51
1, 335837, Note_off_c, 0, 97, 54
1, 335840, Note_on_c, 0, 93, 72
1, 335841, Control_c, 0, 67, 52
1, 335849, Note_off_c, 0, 95, 59
1, 335900, Control_c, 0, 67, 52
1, 335915, Control_c, 0, 67, 53
1, 335917, Note_off_c, 0, 93, 61
1, 335923, Note_on_c, 0, 66, 51
1, 335928, Note_on_c, 0, 74, 49
1, 335930, Control_c, 0, 67, 53
1, 335931, Note_on_c, 0, 91, 73
1, 335945, Control_c, 0, 67, 55
1, 335955, Note_off_c, 0, 66, 67
1, 335959, Control_c, 0, 67, 58
1, 335964, Note_off_c, 0, 74, 63
1, 335974, Control_c, 0, 67, 62
1, 335989, Control_c, 0, 67, 66
1, 336002, Note_off_c, 0, 91, 58
1, 336003, Control_c, 0, 67, 71
1, 336018, Control_c, 0, 67, 76
1, 336023, Note_on_c, 0, 90, 76
1, 336033, Control_c, 0, 67, 80
1, 336048, Control_c, 0, 64, 84
1, 336048, Control_c, 0, 67, 82
1, 336063, Control_c, 0, 64, 70
1, 336063, Control_c, 0, 67, 84
1, 336077, Control_c, 0, 64, 50
1, 336077, Control_c, 0, 67, 85
1, 336092, Control_c, 0, 64, 0
1, 336092, Control_c, 0, 67, 86
1, 336107, Control_c, 0, 67, 87
1, 336122, Control_c, 0, 67, 88
1, 336127, Note_off_c, 0, 90, 57
1, 336130, Note_on_c, 0, 57, 53
1, 336137, Control_c, 0, 64, 20
1, 336137, Control_c, 0, 67, 88
1, 336142, Note_on_c, 0, 83, 64
1, 336159, Control_c, 0, 64, 54
1, 336159, Control_c, 0, 67, 89
1, 336174, Control_c, 0, 64, 64
1, 336174, Control_c, 0, 67, 90
1, 336185, Note_off_c, 0, 57, 62
1, 336189, Control_c, 0, 64, 68
1, 336189, Control_c, 0, 67, 92
1, 336204, Control_c, 0, 64, 70
1, 336204, Control_c, 0, 67, 93
1, 336218, Control_c, 0, 64, 74
1, 336218, Control_c, 0, 67, 94
1, 336233, Control_c, 0, 64, 78
1, 336233, Control_c, 0, 67, 95
1, 336248, Control_c, 0, 64, 83
1, 336248, Control_c, 0, 67, 96
1, 336262, Note_on_c, 0, 95, 64
1, 336263, Control_c, 0, 64, 89
1, 336278, Control_c, 0, 64, 95
1, 336278, Control_c, 0, 67, 97
1, 336292, Control_c, 0, 64, 97
1, 336292, Control_c, 0, 67, 98
1, 336307, Control_c, 0, 64, 95
1, 336307, Control_c, 0, 67, 99
1, 336322, Control_c, 0, 64, 78
1, 336337, Control_c, 0, 64, 63
1, 336337, Control_c, 0, 67, 100
1, 336352, Control_c, 0, 64, 0
1, 336366, Note_off_c, 0, 95, 65
1, 336372, Note_on_c, 0, 76, 61
1, 336381, Control_c, 0, 64, 44
1, 336384, Note_on_c, 0, 94, 63
1, 336396, Note_on_c, 0, 67, 40
1, 336396, Control_c, 0, 64, 59
1, 336411, Control_c, 0, 64, 66
1, 336425, Control_c, 0, 64, 71
1, 336425, Control_c, 0, 67, 100
1, 336440, Control_c, 0, 64, 75
1, 336455, Control_c, 0, 64, 76
1, 336475, Note_off_c, 0, 83, 30
1, 336492, Note_on_c, 0, 95, 66
1, 336498, Note_off_c, 0, 76, 64
1, 336506, Note_off_c, 0, 94, 63
1, 336512, Note_off_c, 0, 67, 61
1, 336515, Control_c, 0, 64, 76
1, 336580, Note_off_c, 0, 95, 61
1, 336588, Note_on_c, 0, 91, 66
1, 336664, Control_c, 0, 64, 76
1, 336677, Note_on_c, 0, 88, 66
1, 336679, Control_c, 0, 64, 71
1, 336684, Note_off_c, 0, 91, 51
1, 336694, Control_c, 0, 64, 61
1, 336708, Control_c, 0, 64, 0
1, 336767, Note_on_c, 0, 57, 47
1, 336768, Control_c, 0, 64, 32
1, 336768, Control_c, 0, 67, 101
1, 336778, Note_on_c, 0, 85, 62
1, 336782, Control_c, 0, 64, 63
1, 336782, Control_c, 0, 67, 101
1, 336791, Note_off_c, 0, 57, 57
1, 336797, Control_c, 0, 64, 72
1, 336797, Control_c, 0, 67, 102
1, 336812, Control_c, 0, 64, 79
1, 336812, Control_c, 0, 67, 102
1, 336826, Control_c, 0, 64, 83
1, 336826, Control_c, 0, 67, 105
1, 336841, Control_c, 0, 64, 85
1, 336841, Control_c, 0, 67, 108
1, 336856, Control_c, 0, 64, 88
1, 336856, Control_c, 0, 67, 110
1, 336864, Note_off_c, 0, 88, 37
1, 336871, Control_c, 0, 64, 91
1, 336871, Control_c, 0, 67, 112
1, 336882, Note_on_c, 0, 93, 56
1, 336886, Control_c, 0, 64, 92
1, 336886, Control_c, 0, 67, 116
1, 336908, Control_c, 0, 64, 92
1, 336908, Control_c, 0, 67, 121
1, 336923, Control_c, 0, 67, 126
1, 336938, Control_c, 0, 67, 127
1, 336953, Control_c, 0, 64, 92
1, 336968, Control_c, 0, 64, 89
1, 336982, Control_c, 0, 64, 78
1, 336984, Note_off_c, 0, 93, 60
1, 336997, Control_c, 0, 64, 64
1, 337002, Note_on_c, 0, 92, 59
1, 337012, Note_on_c, 0, 78, 50
1, 337012, Control_c, 0, 64, 0
1, 337019, Note_on_c, 0, 69, 46
1, 337019, Note_off_c, 0, 85, 41
1, 337101, Control_c, 0, 64, 56
1, 337115, Control_c, 0, 64, 64
1, 337119, Note_off_c, 0, 78, 63
1, 337123, Note_on_c, 0, 93, 57
1, 337130, Control_c, 0, 64, 67
1, 337145, Control_c, 0, 64, 72
1, 337160, Control_c, 0, 64, 78
1, 337175, Control_c, 0, 64, 87
1, 337189, Control_c, 0, 64, 105
1, 337199, Note_off_c, 0, 69, 64
1, 337204, Control_c, 0, 64, 127
1, 337219, Note_off_c, 0, 92, 0
1, 337230, Note_off_c, 0, 93, 60
1, 337250, Note_on_c, 0, 85, 52
1, 337256, Poly_aftertouch_c, 0, 92, 127
1, 337308, Poly_aftertouch_c, 0, 92, 0
1, 337369, Note_on_c, 0, 93, 55
1, 337393, Note_off_c, 0, 85, 38
1, 337561, Control_c, 0, 64, 108
1, 337576, Control_c, 0, 64, 74
1, 337585, Note_on_c, 0, 85, 42
1, 337591, Control_c, 0, 64, 31
1, 337605, Control_c, 0, 64, 0
1, 337614, Note_on_c, 0, 50, 37
1, 337670, Control_c, 0, 64, 53
1, 337685, Control_c, 0, 64, 67
1, 337699, Note_off_c, 0, 50, 61
1, 337700, Control_c, 0, 64, 72
1, 337715, Control_c, 0, 64, 84
1, 337729, Control_c, 0, 64, 96
1, 337737, Note_off_c, 0, 85, 53
1, 337744, Control_c, 0, 64, 103
1, 337759, Control_c, 0, 64, 105
1, 337774, Control_c, 0, 64, 107
1, 337788, Control_c, 0, 64, 111
1, 337803, Control_c, 0, 64, 121
1, 337818, Control_c, 0, 64, 127
1, 337819, Note_on_c, 0, 86, 45
1, 337819, Note_off_c, 0, 93, 34
1, 337926, Note_off_c, 0, 86, 49
1, 337975, Note_on_c, 0, 88, 45
1, 337984, Note_on_c, 0, 64, 38
1, 337990, Note_on_c, 0, 73, 36
1, 338064, Note_off_c, 0, 88, 60
1, 338097, Note_on_c, 0, 86, 52
1, 338201, Note_off_c, 0, 64, 36
1, 338219, Note_off_c, 0, 73, 43
1, 338229, Note_on_c, 0, 98, 51
1, 338249, Note_on_c, 0, 74, 25
1, 338250, Note_on_c, 0, 66, 42
1, 338321, Note_off_c, 0, 86, 30
1, 338333, Note_on_c, 0, 97, 53
1, 338339, Note_off_c, 0, 66, 38
1, 338340, Note_off_c, 0, 74, 39
1, 338386, Note_off_c, 0, 98, 27
1, 338447, Note_on_c, 0, 95, 57
1, 338455, Note_on_c, 0, 74, 37
1, 338469, Note_on_c, 0, 66, 38
1, 338521, Note_off_c, 0, 66, 50
1, 338525, Note_off_c, 0, 74, 53
1, 338536, Note_off_c, 0, 95, 58
1, 338542, Note_off_c, 0, 97, 35
1, 338548, Note_on_c, 0, 93, 59
1, 338612, Note_off_c, 0, 93, 61
1, 338640, Note_on_c, 0, 91, 62
1, 338649, Note_on_c, 0, 74, 43
1, 338676, Note_on_c, 0, 66, 29
1, 338720, Note_off_c, 0, 74, 47
1, 338721, Note_off_c, 0, 66, 48
1, 338722, Note_on_c, 0, 90, 68
1, 338722, Note_off_c, 0, 91, 57
1, 338816, Note_on_c, 0, 74, 41
1, 338819, Note_on_c, 0, 88, 60
1, 338826, Note_off_c, 0, 90, 56
1, 338839, Note_on_c, 0, 66, 40
1, 338879, Note_off_c, 0, 88, 63
1, 338882, Note_off_c, 0, 74, 59
1, 338910, Note_on_c, 0, 86, 52
1, 338932, Note_off_c, 0, 66, 36
1, 338961, Note_off_c, 0, 86, 56
1, 338986, Note_on_c, 0, 85, 60
1, 339078, Note_on_c, 0, 83, 61
1, 339140, Note_off_c, 0, 85, 34
1, 339166, Note_off_c, 0, 83, 58
1, 339169, Note_on_c, 0, 81, 61
1, 339226, Note_off_c, 0, 81, 61
1, 339245, Note_on_c, 0, 79, 61
1, 339326, Note_off_c, 0, 79, 54
1, 339336, Note_on_c, 0, 78, 66
1, 339416, Note_on_c, 0, 76, 68
1, 339421, Note_off_c, 0, 78, 63
1, 339478, Note_off_c, 0, 76, 64
1, 339502, Note_on_c, 0, 74, 61
1, 339556, Note_off_c, 0, 74, 62
1, 339576, Note_on_c, 0, 73, 67
1, 339627, Control_c, 0, 67, 125
1, 339642, Control_c, 0, 67, 122
1, 339657, Control_c, 0, 67, 118
1, 339658, Note_on_c, 0, 71, 65
1, 339672, Control_c, 0, 67, 116
1, 339687, Control_c, 0, 67, 114
1, 339701, Control_c, 0, 67, 112
1, 339707, Note_off_c, 0, 73, 61
1, 339716, Control_c, 0, 67, 110
1, 339722, Note_off_c, 0, 71, 60
1, 339724, Note_on_c, 0, 69, 69
1, 339731, Control_c, 0, 67, 109
1, 339746, Control_c, 0, 67, 107
1, 339761, Control_c, 0, 67, 106
1, 339776, Control_c, 0, 67, 106
1, 339780, Note_off_c, 0, 69, 65
1, 339791, Control_c, 0, 67, 105
1, 339803, Note_on_c, 0, 67, 65
1, 339806, Control_c, 0, 67, 104
1, 339821, Control_c, 0, 67, 104
1, 339836, Control_c, 0, 67, 103
1, 339851, Control_c, 0, 67, 103
1, 339865, Control_c, 0, 67, 102
1, 339878, Note_on_c, 0, 66, 75
1, 339880, Control_c, 0, 67, 101
1, 339884, Note_off_c, 0, 67, 57
1, 339903, Control_c, 0, 67, 100
1, 339918, Control_c, 0, 67, 99
1, 339932, Control_c, 0, 67, 97
1, 339934, Note_off_c, 0, 66, 63
1, 339947, Control_c, 0, 67, 96
1, 339960, Note_on_c, 0, 76, 64
1, 339962, Control_c, 0, 67, 93
1, 339969, Note_on_c, 0, 64, 61
1, 339977, Control_c, 0, 67, 91
1, 339992, Control_c, 0, 67, 89
1, 340006, Control_c, 0, 67, 86
1, 340021, Control_c, 0, 67, 84
1, 340036, Control_c, 0, 67, 82
1, 340038, Note_off_c, 0, 64, 62
1, 340047, Note_on_c, 0, 74, 61
1, 340048, Note_on_c, 0, 62, 58
1, 340050, Control_c, 0, 67, 80
1, 340065, Control_c, 0, 67, 78
1, 340068, Note_off_c, 0, 76, 50
1, 340080, Control_c, 0, 67, 76
1, 340095, Control_c, 0, 67, 74
1, 340101, Note_off_c, 0, 62, 62
1, 340103, Note_on_c, 0, 61, 71
1, 340110, Control_c, 0, 67, 72
1, 340123, Note_off_c, 0, 74, 59
1, 340125, Note_on_c, 0, 73, 65
1, 340125, Control_c, 0, 67, 69
1, 340140, Control_c, 0, 67, 65
1, 340155, Control_c, 0, 67, 62
1, 340155, Note_off_c, 0, 61, 63
1, 340169, Control_c, 0, 67, 59
1, 340176, Note_off_c, 0, 73, 61
1, 340184, Control_c, 0, 67, 57
1, 340188, Note_on_c, 0, 71, 67
1, 340195, Note_on_c, 0, 59, 67
1, 340199, Control_c, 0, 67, 54
1, 340213, Note_off_c, 0, 71, 68
1, 340214, Control_c, 0, 67, 51
1, 340229, Control_c, 0, 67, 48
1, 340244, Control_c, 0, 67, 45
1, 340258, Note_on_c, 0, 69, 68
1, 340258, Control_c, 0, 67, 43
1, 340266, Note_off_c, 0, 59, 63
1, 340268, Note_on_c, 0, 57, 66
1, 340273, Control_c, 0, 67, 41
1, 340288, Control_c, 0, 67, 39
1, 340303, Control_c, 0, 67, 37
1, 340318, Control_c, 0, 67, 36
1, 340324, Note_on_c, 0, 67, 68
1, 340332, Control_c, 0, 67, 35
1, 340334, Note_off_c, 0, 57, 61
1, 340336, Note_on_c, 0, 55, 67
1, 340347, Control_c, 0, 64, 100
1, 340347, Control_c, 0, 67, 34
1, 340360, Note_off_c, 0, 69, 55
1, 340362, Control_c, 0, 64, 68
1, 340362, Control_c, 0, 67, 33
1, 340376, Control_c, 0, 64, 0
1, 340376, Control_c, 0, 67, 32
1, 340391, Control_c, 0, 67, 29
1, 340396, Note_on_c, 0, 66, 77
1, 340402, Note_on_c, 0, 54, 72
1, 340405, Note_off_c, 0, 67, 57
1, 340406, Control_c, 0, 67, 25
1, 340411, Note_off_c, 0, 55, 64
1, 340421, Control_c, 0, 64, 32
1, 340421, Control_c, 0, 67, 18
1, 340436, Control_c, 0, 64, 57
1, 340436, Control_c, 0, 67, 10
1, 340450, Control_c, 0, 64, 65
1, 340450, Control_c, 0, 67, 0
1, 340452, Note_off_c, 0, 66, 67
1, 340459, Note_off_c, 0, 54, 62
1, 340465, Note_on_c, 0, 64, 68
1, 340465, Control_c, 0, 64, 69
1, 340480, Control_c, 0, 64, 73
1, 340487, Note_on_c, 0, 52, 75
1, 340492, Note_off_c, 0, 64, 68
1, 340495, Control_c, 0, 64, 74
1, 340524, Note_on_c, 0, 62, 73
1, 340539, Control_c, 0, 64, 75
1, 340560, Note_on_c, 0, 50, 66
1, 340560, Note_off_c, 0, 52, 63
1, 340593, Note_on_c, 0, 61, 81
1, 340599, Control_c, 0, 64, 75
1, 340604, Note_on_c, 0, 49, 76
1, 340614, Note_off_c, 0, 50, 61
1, 340614, Control_c, 0, 64, 77
1, 340626, Note_off_c, 0, 62, 58
1, 340629, Control_c, 0, 64, 79
1, 340652, Control_c, 0, 64, 82
1, 340666, Control_c, 0, 64, 84
1, 340670, Note_on_c, 0, 59, 77
1, 340680, Control_c, 0, 64, 86
1, 340688, Note_off_c, 0, 49, 63
1, 340690, Note_on_c, 0, 47, 75
1, 340695, Control_c, 0, 64, 86
1, 340703, Note_off_c, 0, 61, 63
1, 340735, Note_on_c, 0, 45, 71
1, 340735, Note_off_c, 0, 59, 65
1, 340743, Note_on_c, 0, 57, 73
1, 340748, Note_off_c, 0, 47, 64
1, 340784, Control_c, 0, 64, 86
1, 340798, Control_c, 0, 64, 72
1, 340813, Note_on_c, 0, 56, 87
1, 340813, Control_c, 0, 64, 0
1, 340818, Note_off_c, 0, 45, 64
1, 340821, Note_on_c, 0, 44, 84
1, 340832, Note_off_c, 0, 57, 62
1, 340903, Control_c, 0, 64, 54
1, 340914, Note_off_c, 0, 56, 63
1, 340918, Control_c, 0, 64, 88
1, 340933, Control_c, 0, 64, 127
1, 340939, Note_off_c, 0, 44, 64
1, 341144, Note_on_c, 0, 64, 71
1, 341145, Note_on_c, 0, 56, 69
1, 341147, Note_on_c, 0, 59, 69
1, 341148, Note_on_c, 0, 47, 73
1, 341148, Note_on_c, 0, 52, 75
1, 341151, Note_on_c, 0, 62, 68
1, 341152, Note_on_c, 0, 44, 60
1, 341155, Note_on_c, 0, 50, 66
1, 341173, Note_off_c, 0, 56, 65
1, 341175, Note_off_c, 0, 52, 70
1, 341176, Note_off_c, 0, 64, 62
1, 341177, Note_off_c, 0, 59, 64
1, 341179, Note_off_c, 0, 62, 66
1, 341182, Note_off_c, 0, 50, 65
1, 341183, Note_off_c, 0, 44, 65
1, 341186, Note_off_c, 0, 47, 65
1, 341225, Note_on_c, 0, 56, 87
1, 341231, Note_on_c, 0, 59, 70
1, 341232, Note_on_c, 0, 64, 77
1, 341235, Note_on_c, 0, 62, 81
1, 341239, Note_on_c, 0, 47, 63
1, 341240, Note_on_c, 0, 52, 78
1, 341244, Note_on_c, 0, 50, 73
1, 341249, Note_on_c, 0, 44, 67
1, 342832, Note_off_c, 0, 56, 58
1, 342851, Note_off_c, 0, 62, 57
1, 342852, Note_off_c, 0, 59, 37
1, 342881, Note_off_c, 0, 64, 61
1, 342923, Note_off_c, 0, 50, 54
1, 342924, Note_off_c, 0, 52, 64
1, 342996, Note_off_c, 0, 47, 43
1, 343019, Note_off_c, 0, 44, 56
1, 343298, Control_c, 0, 64, 106
1, 343313, Control_c, 0, 64, 74
1, 343328, Control_c, 0, 64, 56
1, 343342, Control_c, 0, 64, 0
1, 343413, Note_on_c, 0, 76, 65
1, 343467, Note_on_c, 0, 44, 35
1, 343580, Control_c, 0, 64, 22
1, 343580, Control_c, 0, 67, 12
1, 343594, Control_c, 0, 64, 48
1, 343594, Control_c, 0, 67, 17
1, 343609, Control_c, 0, 64, 57
1, 343609, Control_c, 0, 67, 23
1, 343624, Control_c, 0, 64, 62
1, 343624, Control_c, 0, 67, 31
1, 343646, Control_c, 0, 64, 65
1, 343646, Control_c, 0, 67, 39
1, 343661, Control_c, 0, 64, 68
1, 343661, Control_c, 0, 67, 46
1, 343675, Control_c, 0, 64, 72
1, 343675, Control_c, 0, 67, 51
1, 343690, Control_c, 0, 64, 77
1, 343690, Control_c, 0, 67, 55
1, 343705, Control_c, 0, 64, 80
1, 343705, Control_c, 0, 67, 58
1, 343720, Control_c, 0, 64, 82
1, 343720, Control_c, 0, 67, 61
1, 343735, Control_c, 0, 64, 84
1, 343735, Control_c, 0, 67, 64
1, 343750, Control_c, 0, 64, 86
1, 343750, Control_c, 0, 67, 67
1, 343764, Control_c, 0, 64, 90
1, 343764, Control_c, 0, 67, 70
1, 343779, Control_c, 0, 64, 95
1, 343779, Control_c, 0, 67, 73
1, 343793, Note_on_c, 0, 64, 46
1, 343794, Control_c, 0, 64, 103
1, 343794, Control_c, 0, 67, 75
1, 343809, Control_c, 0, 64, 118
1, 343809, Control_c, 0, 67, 76
1, 343824, Control_c, 0, 64, 127
1, 343839, Control_c, 0, 67, 76
1, 343896, Note_on_c, 0, 71, 47
1, 343928, Control_c, 0, 67, 76
1, 343955, Note_off_c, 0, 64, 42
1, 343958, Control_c, 0, 67, 75
1, 343973, Control_c, 0, 67, 74
1, 343988, Control_c, 0, 67, 74
1, 344003, Control_c, 0, 67, 73
1, 344017, Control_c, 0, 67, 72
1, 344021, Note_on_c, 0, 74, 48
1, 344032, Control_c, 0, 67, 72
1, 344047, Control_c, 0, 67, 71
1, 344062, Control_c, 0, 67, 70
1, 344077, Control_c, 0, 67, 70
1, 344106, Control_c, 0, 67, 69
1, 344121, Control_c, 0, 67, 68
1, 344136, Control_c, 0, 67, 68
1, 344145, Note_off_c, 0, 71, 27
1, 344150, Control_c, 0, 67, 67
1, 344165, Control_c, 0, 67, 65
1, 344180, Control_c, 0, 67, 65
1, 344195, Control_c, 0, 64, 109
1, 344195, Control_c, 0, 67, 64
1, 344210, Control_c, 0, 64, 99
1, 344210, Control_c, 0, 67, 63
1, 344224, Control_c, 0, 64, 93
1, 344224, Control_c, 0, 67, 62
1, 344233, Note_on_c, 0, 77, 67
1, 344239, Control_c, 0, 64, 87
1, 344239, Control_c, 0, 67, 61
1, 344254, Control_c, 0, 64, 78
1, 344254, Control_c, 0, 67, 59
1, 344269, Control_c, 0, 64, 66
1, 344269, Control_c, 0, 67, 56
1, 344274, Note_on_c, 0, 40, 42
1, 344284, Control_c, 0, 64, 31
1, 344284, Control_c, 0, 67, 50
1, 344287, Note_off_c, 0, 74, 55
1, 344298, Control_c, 0, 64, 0
1, 344298, Control_c, 0, 67, 44
1, 344307, Note_off_c, 0, 44, 53
1, 344313, Note_off_c, 0, 76, 45
1, 344313, Control_c, 0, 67, 37
1, 344328, Control_c, 0, 67, 30
1, 344343, Control_c, 0, 67, 23
1, 344358, Control_c, 0, 64, 19
1, 344358, Control_c, 0, 67, 14
1, 344373, Control_c, 0, 64, 56
1, 344373, Control_c, 0, 67, 0
1, 344395, Control_c, 0, 64, 65
1, 344409, Control_c, 0, 64, 68
1, 344423, Control_c, 0, 64, 70
1, 344438, Control_c, 0, 64, 72
1, 344453, Control_c, 0, 64, 74
1, 344468, Control_c, 0, 64, 77
1, 344483, Control_c, 0, 64, 79
1, 344498, Control_c, 0, 64, 80
1, 344505, Note_on_c, 0, 68, 41
1, 344513, Control_c, 0, 64, 84
1, 344528, Control_c, 0, 64, 90
1, 344542, Control_c, 0, 64, 94
1, 344557, Control_c, 0, 64, 97
1, 344572, Control_c, 0, 64, 100
1, 344581, Note_on_c, 0, 71, 51
1, 344587, Control_c, 0, 64, 104
1, 344602, Control_c, 0, 64, 110
1, 344617, Control_c, 0, 64, 119
1, 344632, Control_c, 0, 64, 127
1, 344654, Note_on_c, 0, 74, 59
1, 344673, Note_off_c, 0, 68, 47
1, 344742, Note_off_c, 0, 77, 53
1, 344749, Note_off_c, 0, 71, 34
1, 344859, Note_on_c, 0, 76, 71
1, 344884, Note_on_c, 0, 45, 48
1, 344891, Note_off_c, 0, 74, 63
1, 344899, Control_c, 0, 64, 93
1, 344913, Control_c, 0, 64, 72
1, 344928, Control_c, 0, 64, 56
1, 344930, Note_off_c, 0, 40, 50
1, 344943, Control_c, 0, 64, 0
1, 344987, Control_c, 0, 64, 26
1, 345002, Control_c, 0, 64, 51
1, 345017, Control_c, 0, 64, 61
1, 345032, Control_c, 0, 64, 65
1, 345046, Control_c, 0, 64, 68
1, 345061, Control_c, 0, 64, 71
1, 345076, Control_c, 0, 64, 75
1, 345089, Note_on_c, 0, 67, 48
1, 345091, Control_c, 0, 64, 77
1, 345106, Control_c, 0, 64, 81
1, 345121, Control_c, 0, 64, 85
1, 345136, Control_c, 0, 64, 89
1, 345159, Control_c, 0, 64, 95
1, 345168, Note_on_c, 0, 69, 54
1, 345173, Control_c, 0, 64, 105
1, 345188, Control_c, 0, 64, 112
1, 345203, Control_c, 0, 64, 119
1, 345210, Note_off_c, 0, 67, 37
1, 345218, Control_c, 0, 64, 127
1, 345245, Note_on_c, 0, 74, 59
1, 345300, Note_off_c, 0, 69, 54
1, 345410, Control_c, 0, 64, 107
1, 345426, Control_c, 0, 64, 77
1, 345441, Control_c, 0, 64, 57
1, 345454, Note_on_c, 0, 81, 78
1, 345456, Control_c, 0, 64, 0
1, 345457, Note_off_c, 0, 74, 64
1, 345478, Note_off_c, 0, 76, 18
1, 345485, Control_c, 0, 64, 28
1, 345487, Note_on_c, 0, 33, 45
1, 345500, Control_c, 0, 64, 57
1, 345511, Note_off_c, 0, 45, 59
1, 345515, Control_c, 0, 64, 68
1, 345530, Control_c, 0, 64, 83
1, 345544, Control_c, 0, 64, 111
1, 345547, Note_off_c, 0, 81, 60
1, 345559, Control_c, 0, 64, 127
1, 345664, Note_on_c, 0, 67, 52
1, 345731, Note_off_c, 0, 67, 60
1, 345735, Note_on_c, 0, 69, 62
1, 345811, Note_off_c, 0, 33, 51
1, 345820, Note_off_c, 0, 69, 64
1, 345825, Note_on_c, 0, 73, 64
1, 345902, Note_off_c, 0, 73, 58
1, 346049, Note_on_c, 0, 78, 77
1, 346088, Note_on_c, 0, 34, 49
1, 346100, Control_c, 0, 64, 110
1, 346115, Control_c, 0, 64, 83
1, 346129, Control_c, 0, 64, 64
1, 346144, Control_c, 0, 64, 0
1, 346234, Control_c, 0, 64, 42
1, 346234, Control_c, 0, 67, 11
1, 346249, Control_c, 0, 64, 59
1, 346249, Control_c, 0, 67, 18
1, 346264, Control_c, 0, 64, 64
1, 346264, Control_c, 0, 67, 23
1, 346279, Control_c, 0, 64, 65
1, 346279, Control_c, 0, 67, 28
1, 346282, Note_on_c, 0, 76, 48
1, 346293, Control_c, 0, 64, 66
1, 346293, Control_c, 0, 67, 30
1, 346308, Control_c, 0, 64, 68
1, 346308, Control_c, 0, 67, 31
1, 346323, Control_c, 0, 64, 72
1, 346323, Control_c, 0, 67, 32
1, 346337, Control_c, 0, 64, 75
1, 346352, Control_c, 0, 64, 77
1, 346352, Control_c, 0, 67, 32
1, 346358, Note_on_c, 0, 73, 55
1, 346367, Control_c, 0, 64, 78
1, 346367, Control_c, 0, 67, 33
1, 346382, Control_c, 0, 64, 80
1, 346397, Control_c, 0, 64, 81
1, 346411, Note_off_c, 0, 76, 60
1, 346411, Control_c, 0, 64, 83
1, 346411, Control_c, 0, 67, 33
1, 346426, Control_c, 0, 64, 84
1, 346426, Control_c, 0, 67, 34
1, 346441, Control_c, 0, 64, 84
1, 346456, Control_c, 0, 67, 34
1, 346462, Note_on_c, 0, 66, 49
1, 346471, Control_c, 0, 67, 35
1, 346501, Control_c, 0, 67, 36
1, 346531, Control_c, 0, 67, 37
1, 346545, Control_c, 0, 67, 38
1, 346560, Control_c, 0, 67, 40
1, 346575, Control_c, 0, 67, 41
1, 346590, Control_c, 0, 67, 42
1, 346605, Control_c, 0, 67, 44
1, 346619, Control_c, 0, 64, 84
1, 346619, Control_c, 0, 67, 44
1, 346640, Note_on_c, 0, 75, 67
1, 346641, Control_c, 0, 64, 82
1, 346641, Control_c, 0, 67, 45
1, 346656, Control_c, 0, 64, 79
1, 346656, Control_c, 0, 67, 46
1, 346667, Note_off_c, 0, 73, 61
1, 346671, Control_c, 0, 64, 71
1, 346671, Control_c, 0, 67, 46
1, 346684, Note_off_c, 0, 78, 63
1, 346686, Control_c, 0, 64, 61
1, 346686, Control_c, 0, 67, 47
1, 346689, Note_on_c, 0, 35, 39
1, 346701, Control_c, 0, 64, 0
1, 346701, Control_c, 0, 67, 48
1, 346716, Control_c, 0, 67, 49
1, 346730, Control_c, 0, 67, 50
1, 346745, Control_c, 0, 67, 51
1, 346751, Note_off_c, 0, 66, 44
1, 346760, Control_c, 0, 67, 52
1, 346762, Note_off_c, 0, 34, 42
1, 346775, Control_c, 0, 67, 53
1, 346790, Control_c, 0, 64, 19
1, 346790, Control_c, 0, 67, 54
1, 346805, Control_c, 0, 64, 55
1, 346805, Control_c, 0, 67, 55
1, 346819, Control_c, 0, 64, 60
1, 346819, Control_c, 0, 67, 56
1, 346834, Control_c, 0, 64, 62
1, 346834, Control_c, 0, 67, 57
1, 346849, Control_c, 0, 64, 62
1, 346849, Control_c, 0, 67, 58
1, 346864, Control_c, 0, 64, 64
1, 346864, Control_c, 0, 67, 59
1, 346869, Note_on_c, 0, 72, 48
1, 346879, Control_c, 0, 64, 65
1, 346893, Control_c, 0, 64, 66
1, 346893, Control_c, 0, 67, 60
1, 346908, Control_c, 0, 64, 67
1, 346908, Control_c, 0, 67, 61
1, 346923, Control_c, 0, 64, 68
1, 346923, Control_c, 0, 67, 62
1, 346938, Control_c, 0, 64, 70
1, 346938, Control_c, 0, 67, 62
1, 346951, Note_on_c, 0, 69, 48
1, 346952, Control_c, 0, 64, 71
1, 346952, Control_c, 0, 67, 63
1, 346967, Control_c, 0, 64, 73
1, 346967, Control_c, 0, 67, 65
1, 346982, Control_c, 0, 64, 74
1, 346982, Control_c, 0, 67, 67
1, 346997, Control_c, 0, 64, 75
1, 346997, Control_c, 0, 67, 69
1, 347013, Control_c, 0, 64, 76
1, 347013, Control_c, 0, 67, 71
1, 347028, Control_c, 0, 64, 77
1, 347028, Control_c, 0, 67, 73
1, 347030, Note_on_c, 0, 66, 51
1, 347042, Control_c, 0, 64, 78
1, 347042, Control_c, 0, 67, 76
1, 347046, Note_off_c, 0, 69, 60
1, 347056, Note_off_c, 0, 72, 32
1, 347057, Control_c, 0, 64, 78
1, 347057, Control_c, 0, 67, 80
1, 347072, Control_c, 0, 64, 79
1, 347072, Control_c, 0, 67, 84
1, 347087, Control_c, 0, 67, 88
1, 347102, Control_c, 0, 67, 91
1, 347116, Control_c, 0, 67, 95
1, 347131, Control_c, 0, 67, 98
1, 347146, Control_c, 0, 67, 100
1, 347160, Note_off_c, 0, 66, 59
1, 347160, Control_c, 0, 67, 103
1, 347175, Control_c, 0, 67, 105
1, 347190, Control_c, 0, 67, 107
1, 347205, Control_c, 0, 67, 109
1, 347220, Control_c, 0, 67, 111
1, 347232, Note_on_c, 0, 76, 68
1, 347234, Control_c, 0, 64, 78
1, 347234, Control_c, 0, 67, 113
1, 347249, Control_c, 0, 64, 77
1, 347249, Control_c, 0, 67, 115
1, 347254, Note_on_c, 0, 32, 40
1, 347255, Note_off_c, 0, 75, 64
1, 347264, Control_c, 0, 64, 72
1, 347264, Control_c, 0, 67, 117
1, 347279, Control_c, 0, 64, 63
1, 347279, Control_c, 0, 67, 120
1, 347294, Control_c, 0, 64, 34
1, 347294, Control_c, 0, 67, 123
1, 347309, Control_c, 0, 64, 0
1, 347309, Control_c, 0, 67, 126
1, 347322, Note_off_c, 0, 35, 48
1, 347324, Control_c, 0, 67, 127
1, 347390, Control_c, 0, 64, 45
1, 347405, Control_c, 0, 64, 57
1, 347420, Control_c, 0, 64, 61
1, 347435, Control_c, 0, 64, 63
1, 347446, Note_on_c, 0, 74, 47
1, 347449, Control_c, 0, 64, 63
1, 347464, Control_c, 0, 64, 64
1, 347479, Control_c, 0, 64, 67
1, 347494, Control_c, 0, 64, 69
1, 347509, Control_c, 0, 64, 71
1, 347523, Control_c, 0, 64, 72
1, 347531, Note_on_c, 0, 71, 51
1, 347538, Control_c, 0, 64, 72
1, 347553, Control_c, 0, 64, 73
1, 347568, Note_off_c, 0, 74, 60
1, 347568, Control_c, 0, 64, 73
1, 347612, Note_off_c, 0, 71, 62
1, 347622, Note_on_c, 0, 64, 46
1, 347731, Control_c, 0, 64, 73
1, 347746, Control_c, 0, 64, 72
1, 347760, Control_c, 0, 64, 71
1, 347775, Control_c, 0, 64, 70
1, 347790, Control_c, 0, 64, 68
1, 347804, Note_on_c, 0, 73, 65
1, 347805, Control_c, 0, 64, 66
1, 347821, Control_c, 0, 64, 63
1, 347832, Note_on_c, 0, 33, 42
1, 347836, Control_c, 0, 64, 49
1, 347849, Note_off_c, 0, 76, 62
1, 347850, Note_off_c, 0, 64, 36
1, 347851, Control_c, 0, 64, 0
1, 347869, Note_off_c, 0, 32, 49
1, 347939, Control_c, 0, 64, 32
1, 347954, Control_c, 0, 64, 56
1, 347969, Control_c, 0, 64, 61
1, 347983, Control_c, 0, 64, 62
1, 347998, Control_c, 0, 64, 63
1, 348013, Control_c, 0, 64, 64
1, 348028, Control_c, 0, 64, 65
1, 348030, Note_on_c, 0, 70, 43
1, 348043, Control_c, 0, 64, 67
1, 348057, Control_c, 0, 64, 68
1, 348072, Control_c, 0, 64, 69
1, 348087, Control_c, 0, 64, 70
1, 348102, Control_c, 0, 64, 70
1, 348105, Note_on_c, 0, 67, 50
1, 348139, Control_c, 0, 64, 71
1, 348155, Control_c, 0, 64, 71
1, 348194, Note_off_c, 0, 67, 59
1, 348221, Note_on_c, 0, 64, 44
1, 348255, Note_off_c, 0, 70, 33
1, 348332, Control_c, 0, 64, 71
1, 348347, Control_c, 0, 64, 70
1, 348362, Control_c, 0, 64, 69
1, 348377, Control_c, 0, 64, 68
1, 348391, Control_c, 0, 64, 67
1, 348406, Control_c, 0, 64, 66
1, 348415, Note_on_c, 0, 74, 67
1, 348421, Control_c, 0, 64, 65
1, 348436, Control_c, 0, 64, 63
1, 348451, Control_c, 0, 64, 56
1, 348452, Note_on_c, 0, 30, 37
1, 348465, Control_c, 0, 64, 0
1, 348509, Note_off_c, 0, 64, 42
1, 348511, Note_off_c, 0, 73, 51
1, 348522, Note_off_c, 0, 33, 43
1, 348570, Control_c, 0, 64, 23
1, 348584, Control_c, 0, 64, 51
1, 348599, Control_c, 0, 64, 59
1, 348614, Control_c, 0, 64, 62
1, 348629, Control_c, 0, 64, 62
1, 348644, Control_c, 0, 64, 63
1, 348653, Note_on_c, 0, 72, 47
1, 348659, Control_c, 0, 64, 65
1, 348674, Control_c, 0, 64, 66
1, 348689, Control_c, 0, 64, 68
1, 348704, Control_c, 0, 64, 69
1, 348719, Control_c, 0, 64, 71
1, 348733, Note_on_c, 0, 69, 54
1, 348734, Control_c, 0, 64, 72
1, 348748, Control_c, 0, 64, 73
1, 348763, Control_c, 0, 64, 74
1, 348778, Control_c, 0, 64, 75
1, 348790, Note_off_c, 0, 72, 36
1, 348793, Control_c, 0, 64, 76
1, 348807, Control_c, 0, 64, 77
1, 348822, Control_c, 0, 64, 78
1, 348830, Note_off_c, 0, 69, 56
1, 348837, Control_c, 0, 64, 78
1, 348844, Note_on_c, 0, 62, 43
1, 348866, Note_off_c, 0, 74, 55
1, 349007, Control_c, 0, 64, 78
1, 349021, Control_c, 0, 64, 77
1, 349033, Note_on_c, 0, 74, 67
1, 349036, Control_c, 0, 64, 76
1, 349051, Control_c, 0, 64, 74
1, 349066, Control_c, 0, 64, 73
1, 349070, Note_off_c, 0, 30, 40
1, 349076, Note_on_c, 0, 31, 44
1, 349081, Control_c, 0, 64, 70
1, 349095, Control_c, 0, 64, 64
1, 349110, Control_c, 0, 64, 52
1, 349125, Control_c, 0, 64, 0
1, 349135, Note_off_c, 0, 62, 39
1, 349199, Control_c, 0, 64, 18
1, 349214, Control_c, 0, 64, 49
1, 349228, Control_c, 0, 64, 58
1, 349243, Control_c, 0, 64, 61
1, 349251, Note_on_c, 0, 71, 46
1, 349258, Control_c, 0, 64, 63
1, 349273, Control_c, 0, 64, 64
1, 349288, Control_c, 0, 64, 65
1, 349303, Control_c, 0, 64, 67
1, 349318, Control_c, 0, 64, 70
1, 349330, Note_off_c, 0, 71, 52
1, 349332, Control_c, 0, 64, 72
1, 349337, Note_on_c, 0, 67, 45
1, 349347, Control_c, 0, 64, 74
1, 349362, Control_c, 0, 64, 76
1, 349377, Control_c, 0, 64, 78
1, 349392, Control_c, 0, 64, 79
1, 349395, Note_off_c, 0, 67, 60
1, 349407, Control_c, 0, 64, 81
1, 349422, Control_c, 0, 64, 83
1, 349426, Note_off_c, 0, 74, 62
1, 349431, Note_on_c, 0, 62, 43
1, 349437, Control_c, 0, 64, 83
1, 349452, Control_c, 0, 64, 84
1, 349467, Control_c, 0, 64, 84
1, 349482, Control_c, 0, 64, 85
1, 349667, Control_c, 0, 64, 84
1, 349677, Note_off_c, 0, 62, 29
1, 349680, Note_on_c, 0, 74, 65
1, 349682, Control_c, 0, 64, 83
1, 349696, Control_c, 0, 64, 82
1, 349711, Control_c, 0, 64, 81
1, 349726, Control_c, 0, 64, 79
1, 349741, Control_c, 0, 64, 76
1, 349742, Note_on_c, 0, 33, 38
1, 349751, Note_off_c, 0, 31, 39
1, 349756, Control_c, 0, 64, 71
1, 349770, Control_c, 0, 64, 62
1, 349785, Control_c, 0, 64, 0
1, 349874, Control_c, 0, 64, 50
1, 349888, Control_c, 0, 64, 61
1, 349903, Control_c, 0, 64, 64
1, 349913, Note_on_c, 0, 66, 43
1, 349918, Control_c, 0, 64, 65
1, 349933, Control_c, 0, 64, 66
1, 349948, Control_c, 0, 64, 67
1, 349962, Control_c, 0, 64, 69
1, 349977, Control_c, 0, 64, 69
1, 350007, Note_on_c, 0, 69, 40
1, 350045, Note_off_c, 0, 69, 54
1, 350070, Note_on_c, 0, 71, 50
1, 350078, Note_off_c, 0, 33, 43
1, 350080, Note_off_c, 0, 66, 43
1, 350150, Note_off_c, 0, 71, 60
1, 350172, Note_on_c, 0, 69, 41
1, 350200, Control_c, 0, 64, 69
1, 350215, Control_c, 0, 64, 68
1, 350245, Control_c, 0, 64, 67
1, 350260, Control_c, 0, 64, 67
1, 350275, Control_c, 0, 64, 66
1, 350284, Note_on_c, 0, 73, 57
1, 350290, Control_c, 0, 64, 65
1, 350302, Note_off_c, 0, 74, 50
1, 350304, Note_off_c, 0, 69, 49
1, 350304, Control_c, 0, 64, 63
1, 350319, Control_c, 0, 64, 62
1, 350326, Note_on_c, 0, 33, 32
1, 350334, Control_c, 0, 64, 57
1, 350349, Control_c, 0, 64, 36
1, 350364, Control_c, 0, 64, 0
1, 350489, Control_c, 0, 64, 40
1, 350504, Control_c, 0, 64, 56
1, 350512, Note_on_c, 0, 71, 47
1, 350518, Control_c, 0, 64, 60
1, 350533, Control_c, 0, 64, 62
1, 350548, Control_c, 0, 64, 64
1, 350563, Control_c, 0, 64, 65
1, 350578, Control_c, 0, 64, 66
1, 350592, Control_c, 0, 64, 67
1, 350596, Note_off_c, 0, 71, 58
1, 350606, Note_on_c, 0, 67, 42
1, 350656, Note_off_c, 0, 67, 49
1, 350698, Note_on_c, 0, 66, 42
1, 350725, Note_off_c, 0, 33, 43
1, 350725, Control_c, 0, 64, 66
1, 350755, Note_off_c, 0, 66, 59
1, 350755, Control_c, 0, 64, 66
1, 350789, Note_on_c, 0, 67, 46
1, 350799, Control_c, 0, 64, 65
1, 350814, Control_c, 0, 64, 65
1, 350829, Control_c, 0, 64, 64
1, 350844, Control_c, 0, 64, 64
1, 350874, Control_c, 0, 64, 63
1, 350889, Control_c, 0, 64, 62
1, 350903, Control_c, 0, 64, 60
1, 350909, Note_off_c, 0, 67, 44
1, 350918, Control_c, 0, 64, 53
1, 350919, Note_on_c, 0, 74, 50
1, 350933, Control_c, 0, 64, 20
1, 350948, Note_off_c, 0, 73, 35
1, 350948, Control_c, 0, 64, 0
1, 350957, Note_on_c, 0, 33, 27
1, 351038, Control_c, 0, 64, 8
1, 351053, Control_c, 0, 64, 47
1, 351068, Control_c, 0, 64, 57
1, 351082, Control_c, 0, 64, 61
1, 351097, Control_c, 0, 64, 63
1, 351112, Control_c, 0, 64, 64
1, 351133, Control_c, 0, 64, 66
1, 351148, Control_c, 0, 64, 67
1, 351163, Control_c, 0, 64, 69
1, 351165, Note_on_c, 0, 66, 37
1, 351178, Control_c, 0, 64, 70
1, 351193, Control_c, 0, 64, 71
1, 351207, Control_c, 0, 64, 72
1, 351222, Control_c, 0, 64, 72
1, 351260, Note_on_c, 0, 69, 37
1, 351264, Note_off_c, 0, 33, 53
1, 351312, Note_off_c, 0, 69, 62
1, 351343, Note_off_c, 0, 66, 43
1, 351348, Note_on_c, 0, 71, 42
1, 351416, Note_off_c, 0, 71, 53
1, 351444, Note_on_c, 0, 69, 43
1, 351459, Control_c, 0, 64, 72
1, 351474, Control_c, 0, 64, 71
1, 351488, Control_c, 0, 64, 71
1, 351503, Control_c, 0, 64, 70
1, 351518, Control_c, 0, 64, 70
1, 351533, Control_c, 0, 64, 69
1, 351548, Control_c, 0, 64, 68
1, 351562, Control_c, 0, 64, 67
1, 351577, Control_c, 0, 64, 65
1, 351592, Control_c, 0, 64, 64
1, 351607, Control_c, 0, 64, 64
1, 351614, Note_on_c, 0, 73, 50
1, 351622, Control_c, 0, 64, 63
1, 351622, Note_on_c, 0, 33, 23
1, 351637, Control_c, 0, 64, 62
1, 351649, Note_off_c, 0, 69, 36
1, 351652, Control_c, 0, 64, 61
1, 351653, Note_off_c, 0, 74, 37
1, 351666, Control_c, 0, 64, 59
1, 351681, Control_c, 0, 64, 56
1, 351696, Control_c, 0, 64, 53
1, 351711, Control_c, 0, 64, 48
1, 351726, Control_c, 0, 64, 40
1, 351740, Control_c, 0, 64, 27
1, 351755, Control_c, 0, 64, 0
1, 351893, Note_on_c, 0, 71, 39
1, 351974, Note_off_c, 0, 71, 59
1, 351997, Note_on_c, 0, 67, 40
1, 352075, Note_off_c, 0, 67, 52
1, 352109, Note_on_c, 0, 66, 43
1, 352197, Note_off_c, 0, 66, 57
1, 352224, Note_on_c, 0, 67, 39
1, 352472, Note_off_c, 0, 67, 38
1, 352476, Note_on_c, 0, 74, 37
1, 352489, Note_off_c, 0, 73, 26
1, 352490, Note_on_c, 0, 66, 38
1, 352507, Note_on_c, 0, 38, 24
1, 352510, Note_off_c, 0, 33, 43
1, 352624, Control_c, 0, 64, 38
1, 352647, Control_c, 0, 64, 61
1, 352661, Control_c, 0, 64, 65
1, 352676, Control_c, 0, 64, 69
1, 352680, Note_off_c, 0, 66, 65
1, 352691, Control_c, 0, 64, 77
1, 352705, Control_c, 0, 64, 89
1, 352720, Control_c, 0, 64, 127
1, 352756, Note_off_c, 0, 74, 35
1, 352928, Control_c, 0, 67, 126
1, 352943, Control_c, 0, 67, 122
1, 352958, Control_c, 0, 67, 118
1, 352972, Control_c, 0, 67, 114
1, 352984, Note_off_c, 0, 38, 40
1, 352987, Control_c, 0, 67, 111
1, 353002, Control_c, 0, 67, 108
1, 353017, Control_c, 0, 67, 105
1, 353032, Control_c, 0, 67, 102
1, 353047, Control_c, 0, 67, 99
1, 353061, Control_c, 0, 67, 96
1, 353076, Control_c, 0, 67, 94
1, 353091, Control_c, 0, 67, 91
1, 353105, Control_c, 0, 67, 89
1, 353107, Note_on_c, 0, 85, 47
1, 353120, Control_c, 0, 67, 86
1, 353135, Control_c, 0, 67, 84
1, 353150, Control_c, 0, 67, 80
1, 353165, Control_c, 0, 67, 77
1, 353179, Control_c, 0, 67, 74
1, 353194, Control_c, 0, 67, 72
1, 353209, Control_c, 0, 67, 70
1, 353219, Note_off_c, 0, 85, 63
1, 353224, Control_c, 0, 67, 68
1, 353239, Control_c, 0, 67, 65
1, 353253, Control_c, 0, 67, 62
1, 353262, Note_on_c, 0, 86, 50
1, 353268, Control_c, 0, 67, 58
1, 353283, Control_c, 0, 67, 55
1, 353297, Control_c, 0, 67, 53
1, 353312, Control_c, 0, 67, 51
1, 353327, Control_c, 0, 67, 49
1, 353342, Control_c, 0, 67, 47
1, 353357, Control_c, 0, 67, 44
1, 353379, Control_c, 0, 67, 42
1, 353394, Control_c, 0, 67, 41
1, 353410, Control_c, 0, 67, 40
1, 353411, Note_on_c, 0, 98, 53
1, 353425, Control_c, 0, 67, 39
1, 353442, Note_off_c, 0, 86, 28
1, 353455, Control_c, 0, 67, 38
1, 353484, Control_c, 0, 67, 37
1, 353514, Note_on_c, 0, 97, 58
1, 353529, Control_c, 0, 67, 37
1, 353580, Note_off_c, 0, 98, 26
1, 353620, Note_on_c, 0, 95, 56
1, 353694, Note_off_c, 0, 95, 61
1, 353700, Note_off_c, 0, 97, 29
1, 353715, Note_on_c, 0, 93, 56
1, 353764, Note_off_c, 0, 93, 61
1, 353799, Note_on_c, 0, 91, 56
1, 353865, Note_off_c, 0, 91, 51
1, 353883, Note_on_c, 0, 90, 61
1, 353973, Note_on_c, 0, 88, 58
1, 353977, Note_off_c, 0, 90, 53
1, 353988, Control_c, 0, 67, 37
1, 354022, Note_off_c, 0, 88, 60
1, 354046, Control_c, 0, 67, 38
1, 354058, Note_on_c, 0, 86, 53
1, 354076, Control_c, 0, 67, 38
1, 354106, Control_c, 0, 67, 39
1, 354129, Note_off_c, 0, 86, 52
1, 354143, Control_c, 0, 67, 39
1, 354150, Note_on_c, 0, 85, 61
1, 354173, Control_c, 0, 67, 40
1, 354204, Control_c, 0, 67, 40
1, 354240, Note_on_c, 0, 83, 61
1, 354263, Control_c, 0, 67, 41
1, 354283, Note_off_c, 0, 85, 37
1, 354310, Note_off_c, 0, 83, 59
1, 354319, Note_on_c, 0, 81, 63
1, 354372, Note_off_c, 0, 81, 61
1, 354394, Note_on_c, 0, 79, 55
1, 354396, Control_c, 0, 67, 40
1, 354426, Control_c, 0, 67, 40
1, 354460, Note_off_c, 0, 79, 57
1, 354472, Note_on_c, 0, 78, 66
1, 354484, Control_c, 0, 67, 39
1, 354529, Control_c, 0, 67, 39
1, 354549, Note_on_c, 0, 76, 65
1, 354559, Note_off_c, 0, 78, 59
1, 354603, Control_c, 0, 67, 38
1, 354604, Note_off_c, 0, 76, 64
1, 354618, Control_c, 0, 67, 38
1, 354627, Note_on_c, 0, 74, 56
1, 354675, Note_off_c, 0, 74, 60
1, 354703, Note_on_c, 0, 73, 58
1, 354707, Control_c, 0, 67, 37
1, 354770, Note_on_c, 0, 71, 68
1, 354817, Note_off_c, 0, 73, 60
1, 354841, Note_off_c, 0, 71, 60
1, 354844, Note_on_c, 0, 69, 66
1, 354877, Control_c, 0, 67, 37
1, 354900, Note_off_c, 0, 69, 63
1, 354925, Note_on_c, 0, 67, 65
1, 354966, Control_c, 0, 67, 36
1, 355002, Note_off_c, 0, 67, 58
1, 355002, Note_on_c, 0, 66, 67
1, 355011, Control_c, 0, 67, 36
1, 355045, Note_off_c, 0, 66, 63
1, 355071, Note_on_c, 0, 76, 61
1, 355094, Note_on_c, 0, 64, 61
1, 355157, Note_on_c, 0, 74, 63
1, 355166, Note_off_c, 0, 64, 60
1, 355176, Note_on_c, 0, 62, 56
1, 355209, Note_off_c, 0, 76, 38
1, 355227, Note_off_c, 0, 62, 61
1, 355229, Note_on_c, 0, 61, 72
1, 355232, Note_on_c, 0, 73, 69
1, 355236, Note_off_c, 0, 74, 59
1, 355278, Control_c, 0, 67, 35
1, 355280, Note_off_c, 0, 61, 62
1, 355286, Note_off_c, 0, 73, 62
1, 355297, Note_on_c, 0, 71, 69
1, 355307, Control_c, 0, 67, 34
1, 355312, Note_on_c, 0, 59, 67
1, 355322, Note_off_c, 0, 71, 68
1, 355322, Control_c, 0, 67, 31
1, 355337, Control_c, 0, 67, 29
1, 355352, Control_c, 0, 67, 26
1, 355365, Note_on_c, 0, 69, 73
1, 355367, Control_c, 0, 67, 23
1, 355381, Control_c, 0, 67, 20
1, 355384, Note_on_c, 0, 57, 68
1, 355386, Note_off_c, 0, 59, 61
1, 355396, Control_c, 0, 67, 18
1, 355411, Control_c, 0, 67, 15
1, 355426, Control_c, 0, 67, 14
1, 355432, Note_on_c, 0, 67, 70
1, 355441, Control_c, 0, 67, 13
1, 355446, Note_on_c, 0, 55, 68
1, 355446, Note_off_c, 0, 57, 62
1, 355456, Control_c, 0, 67, 11
1, 355470, Control_c, 0, 67, 9
1, 355473, Note_off_c, 0, 69, 60
1, 355485, Control_c, 0, 67, 0
1, 355507, Note_on_c, 0, 66, 79
1, 355511, Note_on_c, 0, 54, 75
1, 355518, Note_off_c, 0, 67, 57
1, 355524, Note_off_c, 0, 55, 63
1, 355564, Note_off_c, 0, 66, 66
1, 355571, Note_off_c, 0, 54, 60
1, 355577, Note_on_c, 0, 64, 69
1, 355598, Note_on_c, 0, 52, 78
1, 355608, Note_off_c, 0, 64, 65
1, 355643, Note_on_c, 0, 62, 77
1, 355675, Note_on_c, 0, 50, 65
1, 355676, Note_off_c, 0, 52, 62
1, 355715, Note_on_c, 0, 61, 81
1, 355719, Note_on_c, 0, 49, 74
1, 355732, Note_off_c, 0, 50, 60
1, 355749, Note_off_c, 0, 62, 57
1, 355786, Note_on_c, 0, 59, 78
1, 355793, Note_off_c, 0, 49, 63
1, 355796, Note_on_c, 0, 47, 74
1, 355822, Note_off_c, 0, 61, 62
1, 355843, Note_on_c, 0, 45, 75
1, 355850, Note_off_c, 0, 47, 64
1, 355853, Note_off_c, 0, 59, 65
1, 355859, Note_on_c, 0, 57, 73
1, 355879, Control_c, 0, 64, 96
1, 355894, Control_c, 0, 64, 68
1, 355909, Control_c, 0, 64, 0
1, 355924, Note_off_c, 0, 45, 64
1, 355932, Note_on_c, 0, 44, 82
1, 355932, Note_on_c, 0, 56, 85
1, 355959, Note_off_c, 0, 57, 61
1, 356012, Control_c, 0, 64, 51
1, 356022, Note_off_c, 0, 56, 64
1, 356027, Control_c, 0, 64, 77
1, 356042, Control_c, 0, 64, 127
1, 356049, Note_off_c, 0, 44, 64
1, 356234, Note_on_c, 0, 64, 72
1, 356237, Note_on_c, 0, 52, 77
1, 356237, Note_on_c, 0, 56, 66
1, 356237, Note_on_c, 0, 59, 72
1, 356240, Note_on_c, 0, 44, 62
1, 356242, Note_on_c, 0, 62, 69
1, 356243, Note_on_c, 0, 47, 68
1, 356243, Note_on_c, 0, 50, 65
1, 356263, Note_off_c, 0, 56, 65
1, 356264, Note_off_c, 0, 64, 62
1, 356266, Note_off_c, 0, 52, 69
1, 356269, Note_off_c, 0, 62, 66
1, 356272, Note_off_c, 0, 44, 65
1, 356272, Note_off_c, 0, 50, 65
1, 356273, Note_off_c, 0, 59, 61
1, 356277, Note_off_c, 0, 47, 67
1, 356307, Poly_aftertouch_c, 0, 59, 0
1, 356311, Note_on_c, 0, 56, 87
1, 356315, Note_on_c, 0, 59, 69
1, 356320, Note_on_c, 0, 64, 82
1, 356320, Note_on_c, 0, 52, 81
1, 356321, Note_on_c, 0, 62, 83
1, 356328, Note_on_c, 0, 47, 69
1, 356332, Note_on_c, 0, 50, 75
1, 356336, Note_on_c, 0, 44, 72
1, 357644, Note_off_c, 0, 50, 48
1, 357651, Note_off_c, 0, 52, 59
1, 357703, Note_off_c, 0, 47, 61
1, 357727, Note_off_c, 0, 62, 57
1, 357747, Note_off_c, 0, 44, 62
1, 357761, Note_off_c, 0, 59, 39
1, 357766, Note_off_c, 0, 64, 60
1, 357837, Note_off_c, 0, 56, 58
1, 357976, Control_c, 0, 64, 85
1, 357991, Control_c, 0, 64, 50
1, 358006, Control_c, 0, 64, 0
1, 358039, Note_on_c, 0, 31, 79
1, 358041, Note_on_c, 0, 55, 91
1, 358044, Note_on_c, 0, 43, 86
1, 358080, Control_c, 0, 64, 50
1, 358081, Note_off_c, 0, 31, 64
1, 358095, Control_c, 0, 64, 80
1, 358097, Note_off_c, 0, 43, 64
1, 358108, Note_off_c, 0, 55, 63
1, 358109, Control_c, 0, 64, 127
1, 358351, Note_on_c, 0, 55, 72
1, 358353, Note_on_c, 0, 47, 70
1, 358354, Note_on_c, 0, 65, 64
1, 358355, Note_on_c, 0, 43, 61
1, 358356, Note_on_c, 0, 59, 67
1, 358357, Note_on_c, 0, 53, 69
1, 358359, Note_on_c, 0, 50, 66
1, 358362, Note_on_c, 0, 62, 68
1, 358380, Note_off_c, 0, 65, 61
1, 358382, Note_off_c, 0, 55, 66
1, 358386, Note_off_c, 0, 53, 68
1, 358387, Note_off_c, 0, 43, 62
1, 358388, Note_off_c, 0, 59, 65
1, 358389, Note_off_c, 0, 50, 64
1, 358389, Note_off_c, 0, 62, 64
1, 358393, Note_off_c, 0, 47, 63
1, 358431, Note_on_c, 0, 65, 91
1, 358434, Note_on_c, 0, 59, 62
1, 358437, Note_on_c, 0, 47, 61
1, 358438, Note_on_c, 0, 55, 84
1, 358441, Note_on_c, 0, 62, 85
1, 358442, Note_on_c, 0, 53, 77
1, 358448, Note_on_c, 0, 50, 72
1, 358451, Note_on_c, 0, 43, 72
1, 358910, Note_off_c, 0, 53, 56
1, 358953, Note_off_c, 0, 50, 39
1, 358961, Note_off_c, 0, 47, 62
1, 358994, Note_off_c, 0, 43, 62
1, 359016, Note_off_c, 0, 59, 62
1, 359025, Note_off_c, 0, 62, 59
1, 359051, Note_off_c, 0, 65, 56
1, 359068, Note_off_c, 0, 55, 60
1, 359156, Control_c, 0, 64, 74
1, 359171, Control_c, 0, 64, 0
1, 359251, Note_on_c, 0, 30, 91
1, 359251, Note_on_c, 0, 42, 94
1, 359251, Note_on_c, 0, 54, 91
1, 359260, Control_c, 0, 64, 61
1, 359274, Control_c, 0, 64, 127
1, 359284, Note_off_c, 0, 30, 65
1, 359293, Note_off_c, 0, 42, 62
1, 359317, Note_off_c, 0, 54, 61
1, 359546, Note_on_c, 0, 54, 82
1, 359550, Note_on_c, 0, 42, 75
1, 359551, Note_on_c, 0, 57, 78
1, 359552, Note_on_c, 0, 50, 77
1, 359553, Note_on_c, 0, 45, 74
1, 359553, Note_on_c, 0, 62, 77
1, 359557, Note_on_c, 0, 66, 70
1, 359580, Note_off_c, 0, 42, 64
1, 359580, Note_off_c, 0, 66, 69
1, 359584, Note_off_c, 0, 50, 62
1, 359584, Note_off_c, 0, 54, 60
1, 359590, Note_off_c, 0, 45, 65
1, 359590, Note_off_c, 0, 62, 58
1, 359591, Note_off_c, 0, 57, 62
1, 359632, Note_on_c, 0, 54, 85
1, 359634, Note_on_c, 0, 57, 74
1, 359634, Note_on_c, 0, 66, 96
1, 359635, Note_on_c, 0, 62, 73
1, 359638, Note_on_c, 0, 50, 75
1, 359639, Note_on_c, 0, 45, 69
1, 359650, Note_on_c, 0, 42, 74
1, 360034, Note_off_c, 0, 66, 62
1, 360067, Note_off_c, 0, 62, 55
1, 360083, Note_off_c, 0, 57, 59
1, 360132, Note_off_c, 0, 50, 59
1, 360164, Note_off_c, 0, 45, 41
1, 360177, Note_off_c, 0, 54, 60
1, 360196, Note_off_c, 0, 42, 62
1, 360386, Control_c, 0, 64, 79
1, 360401, Control_c, 0, 64, 29
1, 360415, Control_c, 0, 64, 0
1, 360527, Note_on_c, 0, 52, 95
1, 360529, Note_on_c, 0, 28, 85
1, 360530, Note_on_c, 0, 40, 102
1, 360549, Control_c, 0, 64, 66
1, 360563, Control_c, 0, 64, 99
1, 360568, Note_off_c, 0, 28, 65
1, 360574, Note_off_c, 0, 40, 67
1, 360578, Control_c, 0, 64, 127
1, 360606, Note_off_c, 0, 52, 67
1, 360961, Note_on_c, 0, 68, 78
1, 360963, Note_on_c, 0, 62, 83
1, 360964, Note_on_c, 0, 59, 79
1, 360967, Note_on_c, 0, 47, 78
1, 360970, Note_on_c, 0, 40, 69
1, 360972, Note_on_c, 0, 50, 65
1, 360973, Note_on_c, 0, 52, 68
1, 360990, Note_off_c, 0, 52, 71
1, 360993, Note_off_c, 0, 50, 63
1, 360993, Note_off_c, 0, 59, 64
1, 360995, Note_off_c, 0, 40, 66
1, 360995, Note_off_c, 0, 47, 65
1, 361001, Note_off_c, 0, 62, 64
1, 361002, Note_off_c, 0, 68, 63
1, 361044, Note_on_c, 0, 68, 82
1, 361051, Note_on_c, 0, 59, 85
1, 361051, Note_on_c, 0, 62, 86
1, 361054, Note_on_c, 0, 47, 73
1, 361056, Note_on_c, 0, 50, 77
1, 361059, Note_on_c, 0, 40, 76
1, 361061, Note_on_c, 0, 52, 61
1, 361089, Note_off_c, 0, 50, 0
1, 361089, Note_on_c, 0, 50, 41
1, 361259, Note_off_c, 0, 59, 56
1, 361266, Note_off_c, 0, 62, 58
1, 361301, Note_off_c, 0, 40, 58
1, 361307, Note_off_c, 0, 68, 60
1, 361321, Note_off_c, 0, 50, 53
1, 361330, Note_off_c, 0, 47, 62
1, 361334, Note_off_c, 0, 52, 59
1, 361534, Note_on_c, 0, 71, 69
1, 361538, Note_on_c, 0, 62, 59
1, 361548, Note_on_c, 0, 52, 70
1, 361555, Note_on_c, 0, 68, 59
1, 361578, Note_off_c, 0, 62, 55
1, 361580, Note_off_c, 0, 52, 64
1, 361591, Note_off_c, 0, 71, 61
1, 361593, Note_off_c, 0, 68, 58
1, 361733, Note_on_c, 0, 74, 68
1, 361741, Note_on_c, 0, 68, 50
1, 361742, Note_on_c, 0, 52, 65
1, 361758, Note_on_c, 0, 71, 22
1, 361766, Note_off_c, 0, 68, 64
1, 361777, Note_off_c, 0, 52, 62
1, 361780, Note_off_c, 0, 74, 66
1, 361795, Note_off_c, 0, 71, 51
1, 361912, Note_on_c, 0, 52, 74
1, 361912, Note_on_c, 0, 80, 76
1, 361918, Note_on_c, 0, 71, 65
1, 361940, Note_off_c, 0, 52, 69
1, 361952, Note_off_c, 0, 71, 61
1, 361962, Note_off_c, 0, 80, 64
1, 362082, Note_on_c, 0, 64, 79
1, 362083, Note_on_c, 0, 83, 77
1, 362085, Note_on_c, 0, 74, 73
1, 362130, Note_off_c, 0, 83, 60
1, 362131, Note_off_c, 0, 64, 64
1, 362143, Note_off_c, 0, 74, 57
1, 362240, Note_on_c, 0, 86, 83
1, 362246, Note_on_c, 0, 64, 86
1, 362247, Note_on_c, 0, 83, 66
1, 362252, Note_on_c, 0, 80, 65
1, 362271, Note_off_c, 0, 83, 66
1, 362278, Note_off_c, 0, 80, 67
1, 362283, Note_on_c, 0, 85, 29
1, 362297, Note_off_c, 0, 86, 64
1, 362306, Note_off_c, 0, 64, 63
1, 362319, Note_off_c, 0, 85, 55
1, 362418, Note_on_c, 0, 92, 95
1, 362420, Note_on_c, 0, 64, 85
1, 362424, Note_on_c, 0, 83, 83
1, 362449, Note_on_c, 0, 90, 39
1, 362455, Note_off_c, 0, 64, 67
1, 362470, Note_off_c, 0, 83, 59
1, 362475, Note_off_c, 0, 92, 66
1, 362482, Note_off_c, 0, 90, 54
1, 362597, Note_on_c, 0, 95, 95
1, 362598, Note_on_c, 0, 86, 83
1, 362601, Note_on_c, 0, 76, 84
1, 362641, Note_off_c, 0, 95, 66
1, 362651, Note_off_c, 0, 76, 64
1, 362652, Note_off_c, 0, 86, 56
1, 362821, Note_on_c, 0, 98, 88
1, 362829, Note_on_c, 0, 92, 76
1, 362835, Note_on_c, 0, 76, 89
1, 362840, Note_on_c, 0, 95, 63
1, 362850, Note_off_c, 0, 92, 71
1, 362851, Note_off_c, 0, 76, 75
1, 362858, Note_off_c, 0, 95, 62
1, 362858, Note_off_c, 0, 98, 69
1, 363277, Control_c, 0, 64, 72
1, 363292, Control_c, 0, 64, 20
1, 363307, Control_c, 0, 64, 0
1, 363415, Note_on_c, 0, 76, 71
1, 363516, Note_on_c, 0, 44, 39
1, 363677, Control_c, 0, 64, 45
1, 363692, Control_c, 0, 64, 59
1, 363707, Control_c, 0, 64, 65
1, 363721, Control_c, 0, 64, 69
1, 363736, Control_c, 0, 64, 73
1, 363751, Control_c, 0, 64, 77
1, 363765, Control_c, 0, 64, 81
1, 363780, Control_c, 0, 64, 84
1, 363796, Control_c, 0, 64, 88
1, 363811, Control_c, 0, 64, 92
1, 363826, Control_c, 0, 64, 98
1, 363841, Control_c, 0, 64, 107
1, 363862, Control_c, 0, 64, 127
1, 363865, Note_on_c, 0, 64, 33
1, 363936, Note_on_c, 0, 71, 50
1, 364008, Note_off_c, 0, 64, 42
1, 364015, Note_on_c, 0, 74, 55
1, 364174, Control_c, 0, 64, 104
1, 364188, Control_c, 0, 64, 92
1, 364203, Control_c, 0, 64, 84
1, 364218, Control_c, 0, 64, 79
1, 364228, Note_on_c, 0, 77, 71
1, 364233, Control_c, 0, 64, 75
1, 364248, Control_c, 0, 64, 70
1, 364262, Control_c, 0, 64, 64
1, 364277, Note_on_c, 0, 40, 43
1, 364277, Control_c, 0, 64, 51
1, 364289, Note_off_c, 0, 71, 43
1, 364292, Control_c, 0, 64, 0
1, 364294, Note_off_c, 0, 44, 59
1, 364312, Note_off_c, 0, 74, 51
1, 364364, Note_off_c, 0, 76, 34
1, 364395, Control_c, 0, 64, 23
1, 364410, Control_c, 0, 64, 54
1, 364425, Control_c, 0, 64, 61
1, 364440, Control_c, 0, 64, 63
1, 364455, Control_c, 0, 64, 64
1, 364470, Control_c, 0, 64, 66
1, 364485, Control_c, 0, 64, 71
1, 364498, Note_on_c, 0, 68, 44
1, 364500, Control_c, 0, 64, 77
1, 364515, Control_c, 0, 64, 84
1, 364529, Control_c, 0, 64, 87
1, 364544, Control_c, 0, 64, 90
1, 364559, Control_c, 0, 64, 92
1, 364563, Note_on_c, 0, 71, 55
1, 364574, Control_c, 0, 64, 95
1, 364589, Control_c, 0, 64, 99
1, 364611, Control_c, 0, 64, 104
1, 364626, Control_c, 0, 64, 110
1, 364638, Note_off_c, 0, 68, 59
1, 364641, Control_c, 0, 64, 127
1, 364655, Note_on_c, 0, 74, 64
1, 364718, Note_off_c, 0, 71, 52
1, 364723, Note_off_c, 0, 77, 55
1, 364844, Note_on_c, 0, 76, 75
1, 364871, Note_off_c, 0, 74, 51
1, 364878, Control_c, 0, 64, 82
1, 364881, Note_on_c, 0, 45, 53
1, 364893, Control_c, 0, 64, 64
1, 364897, Note_off_c, 0, 40, 48
1, 364908, Control_c, 0, 64, 0
1, 364967, Control_c, 0, 64, 45
1, 364982, Control_c, 0, 64, 59
1, 364997, Control_c, 0, 64, 64
1, 365011, Control_c, 0, 64, 68
1, 365026, Control_c, 0, 64, 73
1, 365041, Control_c, 0, 64, 79
1, 365052, Note_on_c, 0, 64, 49
1, 365056, Control_c, 0, 64, 83
1, 365071, Control_c, 0, 64, 86
1, 365085, Control_c, 0, 64, 89
1, 365100, Control_c, 0, 64, 93
1, 365115, Control_c, 0, 64, 101
1, 365123, Note_on_c, 0, 69, 55
1, 365130, Control_c, 0, 64, 118
1, 365145, Control_c, 0, 64, 127
1, 365148, Note_off_c, 0, 64, 51
1, 365212, Note_on_c, 0, 74, 62
1, 365262, Note_off_c, 0, 69, 60
1, 365374, Control_c, 0, 64, 87
1, 365390, Control_c, 0, 64, 65
1, 365405, Control_c, 0, 64, 37
1, 365420, Control_c, 0, 64, 31
1, 365422, Note_off_c, 0, 74, 65
1, 365424, Note_on_c, 0, 81, 80
1, 365434, Control_c, 0, 64, 49
1, 365437, Note_on_c, 0, 33, 49
1, 365439, Note_off_c, 0, 76, 26
1, 365449, Control_c, 0, 64, 63
1, 365450, Note_off_c, 0, 45, 62
1, 365464, Control_c, 0, 64, 72
1, 365479, Control_c, 0, 64, 88
1, 365494, Control_c, 0, 64, 127
1, 365505, Note_off_c, 0, 81, 61
1, 365643, Note_on_c, 0, 67, 51
1, 365714, Note_off_c, 0, 33, 51
1, 365719, Note_on_c, 0, 69, 49
1, 365728, Note_off_c, 0, 67, 38
1, 365796, Note_off_c, 0, 69, 65
1, 365810, Note_on_c, 0, 73, 58
1, 365853, Note_off_c, 0, 73, 54
1, 366077, Note_on_c, 0, 78, 70
1, 366108, Control_c, 0, 64, 116
1, 366123, Control_c, 0, 64, 98
1, 366138, Control_c, 0, 64, 90
1, 366151, Note_on_c, 0, 34, 41
1, 366153, Control_c, 0, 64, 84
1, 366167, Control_c, 0, 64, 79
1, 366184, Control_c, 0, 64, 73
1, 366199, Control_c, 0, 64, 64
1, 366213, Control_c, 0, 64, 12
1, 366228, Control_c, 0, 64, 0
1, 366317, Control_c, 0, 67, 11
1, 366331, Control_c, 0, 64, 54
1, 366331, Control_c, 0, 67, 15
1, 366346, Control_c, 0, 64, 62
1, 366346, Control_c, 0, 67, 20
1, 366353, Note_on_c, 0, 76, 37
1, 366361, Control_c, 0, 64, 64
1, 366361, Control_c, 0, 67, 24
1, 366376, Control_c, 0, 64, 65
1, 366376, Control_c, 0, 67, 27
1, 366390, Control_c, 0, 64, 67
1, 366390, Control_c, 0, 67, 28
1, 366405, Control_c, 0, 64, 71
1, 366405, Control_c, 0, 67, 28
1, 366420, Control_c, 0, 64, 75
1, 366420, Control_c, 0, 67, 29
1, 366429, Note_on_c, 0, 73, 51
1, 366435, Control_c, 0, 64, 77
1, 366450, Control_c, 0, 64, 79
1, 366464, Control_c, 0, 64, 81
1, 366479, Control_c, 0, 64, 83
1, 366491, Note_off_c, 0, 76, 35
1, 366494, Control_c, 0, 64, 85
1, 366509, Control_c, 0, 64, 87
1, 366521, Note_on_c, 0, 66, 52
1, 366524, Control_c, 0, 64, 88
1, 366672, Control_c, 0, 64, 88
1, 366687, Control_c, 0, 64, 86
1, 366701, Note_on_c, 0, 75, 71
1, 366702, Control_c, 0, 64, 83
1, 366717, Control_c, 0, 64, 79
1, 366728, Note_off_c, 0, 73, 62
1, 366731, Control_c, 0, 64, 73
1, 366744, Note_on_c, 0, 35, 38
1, 366746, Control_c, 0, 64, 67
1, 366750, Note_off_c, 0, 78, 63
1, 366761, Control_c, 0, 64, 59
1, 366775, Control_c, 0, 64, 0
1, 366804, Note_off_c, 0, 34, 48
1, 366826, Note_off_c, 0, 66, 38
1, 366902, Control_c, 0, 64, 44
1, 366902, Control_c, 0, 67, 29
1, 366917, Control_c, 0, 64, 55
1, 366929, Note_on_c, 0, 72, 50
1, 366931, Control_c, 0, 64, 58
1, 366946, Control_c, 0, 64, 61
1, 366946, Control_c, 0, 67, 30
1, 366961, Control_c, 0, 64, 63
1, 366976, Control_c, 0, 64, 66
1, 366992, Control_c, 0, 64, 68
1, 367006, Control_c, 0, 64, 72
1, 367013, Note_on_c, 0, 69, 50
1, 367021, Control_c, 0, 64, 77
1, 367021, Control_c, 0, 67, 29
1, 367036, Control_c, 0, 64, 80
1, 367051, Control_c, 0, 64, 83
1, 367066, Control_c, 0, 64, 86
1, 367080, Control_c, 0, 64, 89
1, 367080, Control_c, 0, 67, 30
1, 367082, Note_on_c, 0, 66, 60
1, 367095, Control_c, 0, 64, 90
1, 367096, Note_off_c, 0, 69, 62
1, 367108, Note_off_c, 0, 72, 36
1, 367125, Control_c, 0, 67, 30
1, 367154, Control_c, 0, 67, 31
1, 367184, Control_c, 0, 67, 33
1, 367199, Control_c, 0, 67, 36
1, 367212, Note_off_c, 0, 66, 55
1, 367213, Control_c, 0, 67, 38
1, 367228, Control_c, 0, 64, 90
1, 367228, Control_c, 0, 67, 40
1, 367243, Control_c, 0, 64, 89
1, 367243, Control_c, 0, 67, 42
1, 367258, Control_c, 0, 64, 86
1, 367258, Control_c, 0, 67, 44
1, 367273, Control_c, 0, 64, 83
1, 367273, Control_c, 0, 67, 46
1, 367276, Note_on_c, 0, 32, 40
1, 367279, Note_on_c, 0, 76, 71
1, 367287, Control_c, 0, 64, 80
1, 367287, Control_c, 0, 67, 49
1, 367302, Control_c, 0, 64, 75
1, 367302, Control_c, 0, 67, 51
1, 367317, Control_c, 0, 64, 69
1, 367317, Control_c, 0, 67, 54
1, 367323, Note_off_c, 0, 75, 64
1, 367332, Control_c, 0, 64, 58
1, 367332, Control_c, 0, 67, 56
1, 367340, Note_off_c, 0, 35, 49
1, 367347, Control_c, 0, 64, 0
1, 367347, Control_c, 0, 67, 59
1, 367361, Control_c, 0, 67, 62
1, 367376, Control_c, 0, 67, 66
1, 367391, Control_c, 0, 67, 70
1, 367406, Control_c, 0, 67, 75
1, 367421, Control_c, 0, 67, 80
1, 367436, Control_c, 0, 64, 12
1, 367436, Control_c, 0, 67, 84
1, 367451, Control_c, 0, 64, 56
1, 367451, Control_c, 0, 67, 86
1, 367466, Control_c, 0, 64, 62
1, 367466, Control_c, 0, 67, 88
1, 367480, Control_c, 0, 64, 63
1, 367480, Control_c, 0, 67, 92
1, 367486, Note_on_c, 0, 74, 48
1, 367495, Control_c, 0, 64, 63
1, 367495, Control_c, 0, 67, 98
1, 367510, Control_c, 0, 64, 64
1, 367510, Control_c, 0, 67, 104
1, 367525, Control_c, 0, 64, 66
1, 367525, Control_c, 0, 67, 109
1, 367540, Control_c, 0, 64, 68
1, 367540, Control_c, 0, 67, 115
1, 367554, Control_c, 0, 64, 71
1, 367554, Control_c, 0, 67, 120
1, 367569, Control_c, 0, 64, 73
1, 367569, Control_c, 0, 67, 124
1, 367584, Control_c, 0, 64, 74
1, 367584, Control_c, 0, 67, 127
1, 367586, Note_on_c, 0, 71, 32
1, 367594, Note_off_c, 0, 74, 57
1, 367599, Control_c, 0, 64, 74
1, 367636, Control_c, 0, 64, 75
1, 367646, Note_off_c, 0, 71, 54
1, 367657, Note_on_c, 0, 64, 48
1, 367739, Control_c, 0, 64, 74
1, 367769, Control_c, 0, 64, 73
1, 367785, Control_c, 0, 64, 72
1, 367799, Control_c, 0, 64, 71
1, 367814, Control_c, 0, 64, 69
1, 367829, Control_c, 0, 64, 67
1, 367844, Control_c, 0, 64, 65
1, 367859, Control_c, 0, 64, 63
1, 367867, Note_on_c, 0, 73, 61
1, 367874, Control_c, 0, 64, 57
1, 367889, Control_c, 0, 64, 23
1, 367899, Note_on_c, 0, 33, 39
1, 367903, Control_c, 0, 64, 0
1, 367907, Note_off_c, 0, 76, 62
1, 367918, Note_off_c, 0, 64, 36
1, 367943, Note_off_c, 0, 32, 43
1, 368022, Control_c, 0, 64, 50
1, 368036, Control_c, 0, 64, 57
1, 368051, Control_c, 0, 64, 60
1, 368066, Control_c, 0, 64, 62
1, 368081, Control_c, 0, 64, 63
1, 368083, Note_on_c, 0, 70, 44
1, 368096, Control_c, 0, 64, 65
1, 368110, Control_c, 0, 64, 66
1, 368125, Control_c, 0, 64, 67
1, 368140, Control_c, 0, 64, 67
1, 368154, Control_c, 0, 64, 68
1, 368162, Note_on_c, 0, 67, 48
1, 368169, Control_c, 0, 64, 69
1, 368184, Control_c, 0, 64, 69
1, 368199, Control_c, 0, 64, 70
1, 368214, Control_c, 0, 64, 71
1, 368241, Note_off_c, 0, 67, 61
1, 368259, Control_c, 0, 64, 71
1, 368260, Note_on_c, 0, 64, 46
1, 368287, Note_off_c, 0, 70, 35
1, 368348, Control_c, 0, 64, 71
1, 368384, Control_c, 0, 64, 70
1, 368399, Control_c, 0, 64, 70
1, 368414, Control_c, 0, 64, 69
1, 368429, Control_c, 0, 64, 68
1, 368443, Control_c, 0, 64, 67
1, 368458, Control_c, 0, 64, 66
1, 368473, Control_c, 0, 64, 65
1, 368488, Note_on_c, 0, 74, 58
1, 368488, Control_c, 0, 64, 64
1, 368503, Control_c, 0, 64, 63
1, 368518, Control_c, 0, 64, 62
1, 368530, Note_on_c, 0, 30, 36
1, 368533, Control_c, 0, 64, 57
1, 368548, Control_c, 0, 64, 39
1, 368562, Control_c, 0, 64, 0
1, 368580, Note_off_c, 0, 73, 37
1, 368593, Note_off_c, 0, 64, 37
1, 368598, Note_off_c, 0, 33, 39
1, 368682, Control_c, 0, 64, 40
1, 368697, Control_c, 0, 64, 54
1, 368712, Control_c, 0, 64, 58
1, 368726, Control_c, 0, 64, 61
1, 368741, Control_c, 0, 64, 63
1, 368745, Note_on_c, 0, 72, 39
1, 368756, Control_c, 0, 64, 64
1, 368771, Control_c, 0, 64, 65
1, 368785, Control_c, 0, 64, 67
1, 368800, Control_c, 0, 64, 69
1, 368815, Note_on_c, 0, 69, 52
1, 368815, Control_c, 0, 64, 70
1, 368830, Control_c, 0, 64, 72
1, 368845, Control_c, 0, 64, 74
1, 368859, Control_c, 0, 64, 76
1, 368860, Note_off_c, 0, 72, 40
1, 368874, Control_c, 0, 64, 77
1, 368889, Control_c, 0, 64, 79
1, 368900, Note_off_c, 0, 69, 57
1, 368904, Control_c, 0, 64, 80
1, 368914, Note_on_c, 0, 62, 46
1, 368919, Control_c, 0, 64, 80
1, 368930, Note_off_c, 0, 74, 58
1, 369081, Control_c, 0, 64, 79
1, 369090, Note_on_c, 0, 74, 65
1, 369104, Control_c, 0, 64, 78
1, 369120, Control_c, 0, 64, 75
1, 369127, Note_off_c, 0, 30, 40
1, 369134, Control_c, 0, 64, 71
1, 369141, Note_on_c, 0, 31, 42
1, 369149, Control_c, 0, 64, 66
1, 369164, Control_c, 0, 64, 59
1, 369179, Control_c, 0, 64, 0
1, 369216, Note_off_c, 0, 62, 38
1, 369267, Control_c, 0, 64, 38
1, 369282, Control_c, 0, 64, 55
1, 369297, Control_c, 0, 64, 60
1, 369312, Control_c, 0, 64, 62
1, 369317, Note_on_c, 0, 71, 47
1, 369327, Control_c, 0, 64, 64
1, 369341, Control_c, 0, 64, 65
1, 369356, Control_c, 0, 64, 66
1, 369371, Control_c, 0, 64, 69
1, 369387, Control_c, 0, 64, 72
1, 369394, Note_on_c, 0, 67, 50
1, 369402, Control_c, 0, 64, 74
1, 369416, Control_c, 0, 64, 75
1, 369430, Note_off_c, 0, 71, 35
1, 369431, Control_c, 0, 64, 77
1, 369446, Control_c, 0, 64, 78
1, 369461, Control_c, 0, 64, 79
1, 369462, Note_off_c, 0, 67, 60
1, 369473, Note_off_c, 0, 74, 60
1, 369475, Control_c, 0, 64, 81
1, 369488, Note_on_c, 0, 62, 51
1, 369490, Control_c, 0, 64, 82
1, 369505, Control_c, 0, 64, 83
1, 369520, Control_c, 0, 64, 83
1, 369639, Note_off_c, 0, 62, 47
1, 369713, Note_off_c, 0, 31, 33
1, 369713, Control_c, 0, 64, 83
1, 369728, Control_c, 0, 64, 81
1, 369743, Control_c, 0, 64, 80
1, 369747, Note_on_c, 0, 74, 64
1, 369757, Control_c, 0, 64, 78
1, 369772, Control_c, 0, 64, 77
1, 369787, Control_c, 0, 64, 75
1, 369801, Control_c, 0, 64, 73
1, 369813, Note_on_c, 0, 33, 35
1, 369816, Control_c, 0, 64, 69
1, 369831, Control_c, 0, 64, 64
1, 369853, Control_c, 0, 64, 48
1, 369868, Control_c, 0, 64, 0
1, 369942, Control_c, 0, 64, 8
1, 369956, Control_c, 0, 64, 52
1, 369971, Control_c, 0, 64, 61
1, 369986, Control_c, 0, 64, 64
1, 369999, Note_on_c, 0, 66, 44
1, 370000, Control_c, 0, 64, 65
1, 370015, Control_c, 0, 64, 66
1, 370030, Control_c, 0, 64, 68
1, 370045, Control_c, 0, 64, 69
1, 370060, Control_c, 0, 64, 70
1, 370098, Note_on_c, 0, 69, 42
1, 370141, Note_off_c, 0, 69, 62
1, 370169, Note_off_c, 0, 66, 42
1, 370171, Note_off_c, 0, 33, 44
1, 370172, Note_on_c, 0, 71, 45
1, 370194, Control_c, 0, 64, 70
1, 370209, Control_c, 0, 64, 69
1, 370224, Control_c, 0, 64, 68
1, 370232, Note_off_c, 0, 71, 57
1, 370238, Control_c, 0, 64, 68
1, 370253, Control_c, 0, 64, 67
1, 370256, Note_on_c, 0, 69, 51
1, 370268, Control_c, 0, 64, 66
1, 370283, Control_c, 0, 64, 65
1, 370298, Control_c, 0, 64, 64
1, 370312, Control_c, 0, 64, 63
1, 370327, Control_c, 0, 64, 63
1, 370342, Control_c, 0, 64, 62
1, 370357, Control_c, 0, 64, 61
1, 370372, Control_c, 0, 64, 60
1, 370387, Control_c, 0, 64, 58
1, 370394, Note_on_c, 0, 73, 51
1, 370402, Control_c, 0, 64, 55
1, 370414, Note_off_c, 0, 69, 36
1, 370417, Control_c, 0, 64, 52
1, 370420, Note_off_c, 0, 74, 46
1, 370422, Note_on_c, 0, 33, 27
1, 370431, Control_c, 0, 64, 47
1, 370446, Control_c, 0, 64, 38
1, 370461, Control_c, 0, 64, 0
1, 370644, Note_on_c, 0, 71, 48
1, 370661, Control_c, 0, 64, 44
1, 370676, Control_c, 0, 64, 56
1, 370691, Control_c, 0, 64, 60
1, 370705, Control_c, 0, 64, 62
1, 370720, Control_c, 0, 64, 63
1, 370727, Note_on_c, 0, 67, 43
1, 370735, Control_c, 0, 64, 64
1, 370743, Note_off_c, 0, 71, 60
1, 370749, Control_c, 0, 64, 65
1, 370764, Control_c, 0, 64, 66
1, 370779, Control_c, 0, 64, 67
1, 370794, Control_c, 0, 64, 68
1, 370795, Note_off_c, 0, 67, 56
1, 370809, Control_c, 0, 64, 69
1, 370822, Note_off_c, 0, 33, 54
1, 370826, Note_on_c, 0, 66, 44
1, 370889, Note_off_c, 0, 66, 59
1, 370912, Note_on_c, 0, 67, 55
1, 370942, Control_c, 0, 64, 68
1, 370973, Control_c, 0, 64, 68
1, 370988, Control_c, 0, 64, 67
1, 371002, Control_c, 0, 64, 67
1, 371017, Control_c, 0, 64, 66
1, 371032, Control_c, 0, 64, 66
1, 371046, Control_c, 0, 64, 65
1, 371061, Control_c, 0, 64, 64
1, 371064, Note_off_c, 0, 67, 36
1, 371066, Note_on_c, 0, 74, 56
1, 371076, Control_c, 0, 64, 63
1, 371091, Control_c, 0, 64, 62
1, 371092, Note_off_c, 0, 73, 57
1, 371106, Control_c, 0, 64, 59
1, 371121, Control_c, 0, 64, 52
1, 371123, Note_on_c, 0, 33, 27
1, 371135, Control_c, 0, 64, 12
1, 371150, Control_c, 0, 64, 0
1, 371239, Control_c, 0, 64, 12
1, 371254, Control_c, 0, 64, 50
1, 371269, Control_c, 0, 64, 58
1, 371284, Control_c, 0, 64, 61
1, 371299, Control_c, 0, 64, 63
1, 371314, Control_c, 0, 64, 64
1, 371328, Control_c, 0, 64, 66
1, 371342, Note_on_c, 0, 66, 35
1, 371343, Control_c, 0, 64, 68
1, 371365, Control_c, 0, 64, 70
1, 371380, Control_c, 0, 64, 71
1, 371394, Control_c, 0, 64, 72
1, 371409, Control_c, 0, 64, 72
1, 371439, Control_c, 0, 64, 73
1, 371441, Note_on_c, 0, 69, 37
1, 371497, Note_off_c, 0, 69, 59
1, 371508, Note_off_c, 0, 33, 41
1, 371532, Note_on_c, 0, 71, 42
1, 371540, Note_off_c, 0, 66, 43
1, 371618, Note_off_c, 0, 71, 50
1, 371646, Note_on_c, 0, 69, 43
1, 371647, Control_c, 0, 64, 72
1, 371661, Control_c, 0, 64, 71
1, 371676, Control_c, 0, 64, 70
1, 371691, Control_c, 0, 64, 69
1, 371705, Control_c, 0, 64, 67
1, 371720, Control_c, 0, 64, 66
1, 371735, Control_c, 0, 64, 64
1, 371750, Control_c, 0, 64, 63
1, 371765, Control_c, 0, 64, 62
1, 371781, Control_c, 0, 64, 60
1, 371785, Note_off_c, 0, 74, 39
1, 371795, Control_c, 0, 64, 57
1, 371807, Note_on_c, 0, 73, 48
1, 371810, Control_c, 0, 64, 53
1, 371825, Control_c, 0, 64, 47
1, 371833, Note_on_c, 0, 33, 27
1, 371840, Control_c, 0, 64, 40
1, 371855, Control_c, 0, 64, 28
1, 371859, Note_off_c, 0, 69, 37
1, 371869, Control_c, 0, 64, 0
1, 372117, Note_on_c, 0, 71, 42
1, 372212, Note_off_c, 0, 71, 57
1, 372220, Note_on_c, 0, 67, 43
1, 372327, Note_off_c, 0, 67, 55
1, 372354, Note_on_c, 0, 66, 44
1, 372446, Note_off_c, 0, 66, 48
1, 372471, Note_on_c, 0, 67, 42
1, 372777, Note_off_c, 0, 67, 39
1, 372781, Note_on_c, 0, 74, 25
1, 372789, Note_on_c, 0, 66, 35
1, 372818, Note_on_c, 0, 38, 22
1, 372832, Note_off_c, 0, 73, 29
1, 372834, Note_off_c, 0, 33, 44
1, 372923, Control_c, 0, 64, 17
1, 372938, Control_c, 0, 64, 51
1, 372952, Control_c, 0, 64, 59
1, 372967, Control_c, 0, 64, 63
1, 372982, Control_c, 0, 64, 65
1, 372997, Control_c, 0, 64, 70
1, 373005, Note_off_c, 0, 74, 53
1, 373012, Control_c, 0, 64, 75
1, 373026, Control_c, 0, 64, 80
1, 373041, Control_c, 0, 64, 83
1, 373056, Control_c, 0, 64, 88
1, 373071, Control_c, 0, 64, 94
1, 373086, Control_c, 0, 64, 101
1, 373091, Note_off_c, 0, 66, 44
1, 373100, Control_c, 0, 64, 110
1, 373115, Control_c, 0, 64, 121
1, 373130, Control_c, 0, 64, 127
1, 373166, Note_off_c, 0, 38, 35
1, 373278, Control_c, 0, 67, 126
1, 373293, Control_c, 0, 67, 121
1, 373308, Control_c, 0, 67, 117
1, 373323, Control_c, 0, 67, 112
1, 373338, Control_c, 0, 67, 106
1, 373352, Control_c, 0, 67, 99
1, 373368, Control_c, 0, 67, 95
1, 373383, Control_c, 0, 67, 91
1, 373398, Control_c, 0, 67, 88
1, 373413, Control_c, 0, 67, 84
1, 373427, Control_c, 0, 67, 80
1, 373442, Control_c, 0, 67, 76
1, 373457, Control_c, 0, 67, 73
1, 373472, Control_c, 0, 67, 71
1, 373487, Control_c, 0, 67, 68
1, 373502, Control_c, 0, 67, 64
1, 373516, Control_c, 0, 67, 60
1, 373531, Control_c, 0, 64, 121
1, 373531, Control_c, 0, 67, 56
1, 373546, Control_c, 0, 64, 114
1, 373546, Control_c, 0, 67, 53
1, 373561, Control_c, 0, 64, 109
1, 373561, Control_c, 0, 67, 50
1, 373575, Control_c, 0, 64, 105
1, 373575, Control_c, 0, 67, 47
1, 373597, Control_c, 0, 64, 102
1, 373597, Control_c, 0, 67, 44
1, 373609, Note_on_c, 0, 57, 45
1, 373612, Control_c, 0, 64, 99
1, 373612, Control_c, 0, 67, 41
1, 373627, Control_c, 0, 64, 96
1, 373627, Control_c, 0, 67, 39
1, 373642, Control_c, 0, 64, 91
1, 373642, Control_c, 0, 67, 37
1, 373656, Control_c, 0, 64, 83
1, 373656, Control_c, 0, 67, 35
1, 373671, Control_c, 0, 64, 70
1, 373671, Control_c, 0, 67, 34
1, 373686, Control_c, 0, 64, 57
1, 373686, Control_c, 0, 67, 32
1, 373701, Control_c, 0, 64, 0
1, 373701, Control_c, 0, 67, 31
1, 373716, Control_c, 0, 67, 29
1, 373730, Control_c, 0, 67, 27
1, 373745, Control_c, 0, 67, 24
1, 373760, Control_c, 0, 64, 22
1, 373760, Control_c, 0, 67, 20
1, 373774, Control_c, 0, 64, 51
1, 373774, Control_c, 0, 67, 17
1, 373789, Control_c, 0, 64, 59
1, 373789, Control_c, 0, 67, 14
1, 373804, Control_c, 0, 64, 63
1, 373804, Control_c, 0, 67, 12
1, 373819, Control_c, 0, 64, 64
1, 373819, Control_c, 0, 67, 9
1, 373834, Control_c, 0, 64, 65
1, 373834, Control_c, 0, 67, 0
1, 373863, Control_c, 0, 64, 63
1, 373878, Control_c, 0, 64, 53
1, 373893, Control_c, 0, 64, 0
1, 373937, Control_c, 0, 64, 24
1, 373940, Note_on_c, 0, 62, 62
1, 373952, Control_c, 0, 64, 50
1, 373967, Control_c, 0, 64, 60
1, 373982, Control_c, 0, 64, 64
1, 373997, Control_c, 0, 64, 65
1, 374012, Control_c, 0, 64, 67
1, 374027, Control_c, 0, 64, 68
1, 374041, Control_c, 0, 64, 70
1, 374074, Note_off_c, 0, 57, 37
1, 374115, Control_c, 0, 64, 68
1, 374130, Control_c, 0, 64, 61
1, 374145, Control_c, 0, 64, 0
1, 374166, Note_on_c, 0, 66, 69
1, 374220, Control_c, 0, 64, 52
1, 374235, Control_c, 0, 64, 64
1, 374250, Control_c, 0, 64, 66
1, 374259, Note_off_c, 0, 62, 55
1, 374264, Control_c, 0, 64, 67
1, 374294, Control_c, 0, 64, 66
1, 374309, Control_c, 0, 64, 63
1, 374324, Control_c, 0, 64, 42
1, 374346, Control_c, 0, 64, 0
1, 374366, Note_on_c, 0, 67, 75
1, 374398, Note_off_c, 0, 66, 65
1, 374435, Control_c, 0, 64, 39
1, 374450, Control_c, 0, 64, 49
1, 374465, Control_c, 0, 64, 51
1, 374479, Control_c, 0, 64, 54
1, 374494, Control_c, 0, 64, 56
1, 374509, Control_c, 0, 64, 58
1, 374523, Control_c, 0, 64, 60
1, 374538, Control_c, 0, 64, 62
1, 374553, Control_c, 0, 64, 62
1, 374559, Note_on_c, 0, 69, 75
1, 374568, Control_c, 0, 64, 63
1, 374583, Control_c, 0, 64, 64
1, 374585, Note_off_c, 0, 67, 57
1, 374597, Control_c, 0, 64, 66
1, 374612, Control_c, 0, 64, 69
1, 374627, Control_c, 0, 64, 75
1, 374642, Control_c, 0, 64, 78
1, 374657, Control_c, 0, 64, 81
1, 374671, Control_c, 0, 64, 85
1, 374686, Control_c, 0, 64, 89
1, 374701, Control_c, 0, 64, 93
1, 374715, Control_c, 0, 64, 98
1, 374730, Control_c, 0, 64, 102
1, 374745, Control_c, 0, 64, 105
1, 374760, Control_c, 0, 64, 107
1, 374771, Note_off_c, 0, 69, 34
1, 374903, Note_on_c, 0, 69, 63
1, 374909, Control_c, 0, 64, 106
1, 374922, Note_on_c, 0, 66, 58
1, 374923, Control_c, 0, 64, 104
1, 374938, Control_c, 0, 64, 101
1, 374950, Note_on_c, 0, 57, 39
1, 374953, Control_c, 0, 64, 96
1, 374956, Note_on_c, 0, 50, 33
1, 374965, Note_on_c, 0, 38, 32
1, 374969, Control_c, 0, 64, 92
1, 374983, Control_c, 0, 64, 88
1, 374998, Control_c, 0, 64, 83
1, 375013, Control_c, 0, 64, 78
1, 375028, Control_c, 0, 64, 74
1, 375043, Control_c, 0, 64, 70
1, 375058, Control_c, 0, 64, 66
1, 375073, Control_c, 0, 64, 61
1, 375094, Control_c, 0, 64, 46
1, 375109, Control_c, 0, 64, 0
1, 375361, Control_c, 0, 64, 15
1, 375376, Control_c, 0, 64, 33
1, 375391, Control_c, 0, 64, 44
1, 375406, Control_c, 0, 64, 50
1, 375420, Control_c, 0, 64, 53
1, 375435, Control_c, 0, 64, 56
1, 375450, Control_c, 0, 64, 58
1, 375465, Control_c, 0, 64, 60
1, 375480, Control_c, 0, 64, 62
1, 375494, Control_c, 0, 64, 63
1, 375509, Control_c, 0, 64, 64
1, 375524, Control_c, 0, 64, 65
1, 375538, Control_c, 0, 64, 67
1, 375553, Control_c, 0, 64, 69
1, 375568, Control_c, 0, 64, 70
1, 375583, Control_c, 0, 64, 73
1, 375598, Control_c, 0, 64, 76
1, 375612, Control_c, 0, 64, 78
1, 375627, Control_c, 0, 64, 81
1, 375642, Control_c, 0, 64, 86
1, 375657, Control_c, 0, 64, 93
1, 375672, Control_c, 0, 64, 106
1, 375687, Control_c, 0, 64, 127
1, 375855, Note_off_c, 0, 57, 36
1, 375883, Note_off_c, 0, 66, 37
1, 375924, Note_off_c, 0, 69, 38
1, 375951, Note_off_c, 0, 50, 36
1, 375991, Note_off_c, 0, 38, 38
1, 376200, Note_on_c, 0, 69, 67
1, 376215, Note_on_c, 0, 57, 50
1, 376215, Note_on_c, 0, 66, 54
1, 376223, Note_on_c, 0, 38, 49
1, 376240, Note_on_c, 0, 50, 41
1, 376253, Note_off_c, 0, 38, 56
1, 376270, Note_off_c, 0, 57, 56
1, 376285, Note_off_c, 0, 50, 60
1, 376349, Note_off_c, 0, 66, 38
1, 376378, Note_on_c, 0, 71, 76
1, 376391, Note_on_c, 0, 67, 60
1, 376414, Note_off_c, 0, 69, 39
1, 376427, Note_on_c, 0, 59, 33
1, 376429, Note_on_c, 0, 50, 41
1, 376436, Control_c, 0, 64, 109
1, 376441, Note_on_c, 0, 43, 45
1, 376451, Control_c, 0, 64, 93
1, 376466, Control_c, 0, 64, 85
1, 376481, Control_c, 0, 64, 80
1, 376495, Control_c, 0, 64, 75
1, 376510, Control_c, 0, 64, 70
1, 376525, Control_c, 0, 64, 64
1, 376540, Control_c, 0, 64, 55
1, 376555, Control_c, 0, 64, 43
1, 376571, Control_c, 0, 64, 27
1, 376593, Control_c, 0, 64, 0
1, 376894, Note_on_c, 0, 55, 66
1, 376899, Note_off_c, 0, 50, 58
1, 377021, Control_c, 0, 64, 53
1, 377036, Control_c, 0, 64, 63
1, 377051, Control_c, 0, 64, 66
1, 377065, Control_c, 0, 64, 69
1, 377080, Control_c, 0, 64, 74
1, 377095, Control_c, 0, 64, 80
1, 377110, Control_c, 0, 64, 86
1, 377124, Control_c, 0, 64, 91
1, 377139, Control_c, 0, 64, 97
1, 377154, Control_c, 0, 64, 104
1, 377167, Note_off_c, 0, 43, 50
1, 377169, Control_c, 0, 64, 114
1, 377183, Control_c, 0, 64, 127
1, 377288, Note_off_c, 0, 55, 57
1, 377410, Note_off_c, 0, 67, 54
1, 377411, Note_off_c, 0, 59, 36
1, 377446, Note_off_c, 0, 71, 32
1, 377681, Control_c, 0, 64, 92
1, 377693, Note_on_c, 0, 71, 54
1, 377696, Control_c, 0, 64, 70
1, 377711, Note_on_c, 0, 54, 46
1, 377711, Control_c, 0, 64, 56
1, 377712, Note_on_c, 0, 59, 40
1, 377713, Note_on_c, 0, 43, 47
1, 377713, Note_on_c, 0, 67, 29
1, 377726, Control_c, 0, 64, 37
1, 377740, Control_c, 0, 64, 49
1, 377747, Note_off_c, 0, 67, 48
1, 377755, Control_c, 0, 64, 59
1, 377770, Control_c, 0, 64, 64
1, 377785, Control_c, 0, 64, 69
1, 377791, Note_off_c, 0, 59, 63
1, 377800, Control_c, 0, 64, 74
1, 377814, Control_c, 0, 64, 79
1, 377822, Note_off_c, 0, 71, 61
1, 377829, Control_c, 0, 64, 83
1, 377842, Note_off_c, 0, 54, 58
1, 377844, Control_c, 0, 64, 86
1, 377859, Control_c, 0, 64, 89
1, 377874, Control_c, 0, 64, 93
1, 377888, Control_c, 0, 64, 96
1, 377903, Control_c, 0, 64, 97
1, 377908, Note_off_c, 0, 43, 35
1, 377918, Control_c, 0, 64, 98
1, 377977, Control_c, 0, 64, 84
1, 377984, Note_on_c, 0, 73, 65
1, 377992, Control_c, 0, 64, 68
1, 378007, Control_c, 0, 64, 44
1, 378015, Note_on_c, 0, 61, 41
1, 378016, Note_on_c, 0, 45, 43
1, 378018, Note_on_c, 0, 52, 45
1, 378021, Control_c, 0, 64, 0
1, 378036, Note_on_c, 0, 67, 34
1, 378051, Control_c, 0, 64, 26
1, 378066, Control_c, 0, 64, 58
1, 378081, Control_c, 0, 64, 66
1, 378103, Control_c, 0, 64, 72
1, 378118, Control_c, 0, 64, 78
1, 378125, Note_off_c, 0, 61, 57
1, 378133, Control_c, 0, 64, 81
1, 378137, Note_off_c, 0, 45, 53
1, 378140, Note_off_c, 0, 73, 58
1, 378147, Control_c, 0, 64, 82
1, 378157, Note_off_c, 0, 52, 37
1, 378163, Control_c, 0, 64, 83
1, 378182, Note_off_c, 0, 67, 35
1, 378233, Note_on_c, 0, 73, 73
1, 378247, Note_on_c, 0, 67, 57
1, 378250, Note_on_c, 0, 61, 48
1, 378253, Note_on_c, 0, 52, 46
1, 378256, Note_on_c, 0, 45, 48
1, 378267, Control_c, 0, 64, 84
1, 378310, Note_off_c, 0, 45, 61
1, 378316, Note_off_c, 0, 61, 51
1, 378319, Note_off_c, 0, 52, 56
1, 378329, Note_off_c, 0, 73, 58
1, 378370, Note_off_c, 0, 67, 37
1, 378423, Note_on_c, 0, 73, 71
1, 378432, Note_on_c, 0, 67, 59
1, 378437, Note_on_c, 0, 61, 59
1, 378438, Note_on_c, 0, 45, 49
1, 378441, Note_on_c, 0, 52, 61
1, 378459, Control_c, 0, 64, 84
1, 378474, Control_c, 0, 64, 85
1, 378489, Control_c, 0, 64, 89
1, 378497, Note_off_c, 0, 52, 58
1, 378504, Control_c, 0, 64, 95
1, 378505, Note_off_c, 0, 45, 57
1, 378519, Control_c, 0, 64, 105
1, 378524, Note_off_c, 0, 73, 57
1, 378534, Control_c, 0, 64, 121
1, 378536, Note_off_c, 0, 61, 37
1, 378549, Control_c, 0, 64, 127
1, 378559, Note_off_c, 0, 67, 37
1, 378578, Control_c, 0, 64, 110
1, 378593, Control_c, 0, 64, 79
1, 378608, Control_c, 0, 64, 61
1, 378617, Note_on_c, 0, 73, 78
1, 378623, Control_c, 0, 64, 17
1, 378623, Note_on_c, 0, 67, 62
1, 378629, Note_on_c, 0, 45, 60
1, 378630, Note_on_c, 0, 52, 51
1, 378632, Note_on_c, 0, 61, 63
1, 378637, Control_c, 0, 64, 41
1, 378652, Control_c, 0, 64, 58
1, 378667, Control_c, 0, 64, 65
1, 378682, Control_c, 0, 64, 74
1, 378685, Note_off_c, 0, 67, 59
1, 378696, Control_c, 0, 64, 93
1, 378698, Note_off_c, 0, 61, 63
1, 378701, Note_off_c, 0, 45, 60
1, 378704, Note_off_c, 0, 52, 58
1, 378711, Control_c, 0, 64, 127
1, 378767, Note_off_c, 0, 73, 54
1, 378770, Control_c, 0, 64, 96
1, 378785, Control_c, 0, 64, 69
1, 378800, Control_c, 0, 64, 57
1, 378807, Note_on_c, 0, 74, 81
1, 378815, Control_c, 0, 64, 59
1, 378821, Note_on_c, 0, 62, 67
1, 378821, Note_on_c, 0, 66, 71
1, 378823, Note_on_c, 0, 54, 54
1, 378825, Note_on_c, 0, 45, 58
1, 378830, Control_c, 0, 64, 66
1, 378853, Control_c, 0, 64, 75
1, 378868, Control_c, 0, 64, 97
1, 378882, Control_c, 0, 64, 127
1, 378887, Note_off_c, 0, 66, 65
1, 378890, Note_off_c, 0, 62, 58
1, 378912, Note_off_c, 0, 45, 59
1, 378918, Note_off_c, 0, 74, 62
1, 378918, Note_off_c, 0, 54, 51
1, 378987, Control_c, 0, 64, 110
1, 379002, Control_c, 0, 64, 67
1, 379017, Control_c, 0, 64, 0
1, 379020, Note_on_c, 0, 76, 85
1, 379035, Note_on_c, 0, 73, 73
1, 379037, Note_on_c, 0, 64, 69
1, 379042, Note_on_c, 0, 45, 51
1, 379043, Note_on_c, 0, 57, 45
1, 379044, Note_on_c, 0, 55, 44
1, 379061, Control_c, 0, 64, 26
1, 379076, Control_c, 0, 64, 59
1, 379091, Control_c, 0, 64, 67
1, 379106, Control_c, 0, 64, 74
1, 379120, Control_c, 0, 64, 86
1, 379124, Note_off_c, 0, 64, 55
1, 379135, Control_c, 0, 64, 100
1, 379136, Note_off_c, 0, 76, 60
1, 379142, Note_off_c, 0, 73, 59
1, 379150, Control_c, 0, 64, 127
1, 379155, Note_off_c, 0, 45, 58
1, 379195, Note_off_c, 0, 57, 35
1, 379204, Note_off_c, 0, 55, 33
1, 379358, Note_on_c, 0, 76, 82
1, 379381, Note_on_c, 0, 73, 59
1, 379386, Note_on_c, 0, 64, 50
1, 379398, Note_on_c, 0, 45, 45
1, 379408, Note_on_c, 0, 57, 36
1, 379411, Note_on_c, 0, 55, 36
1, 379416, Control_c, 0, 64, 109
1, 379431, Control_c, 0, 64, 98
1, 379446, Control_c, 0, 64, 87
1, 379461, Control_c, 0, 64, 77
1, 379476, Control_c, 0, 64, 67
1, 379491, Control_c, 0, 64, 53
1, 379505, Control_c, 0, 64, 0
1, 379646, Control_c, 0, 64, 40
1, 379661, Control_c, 0, 64, 54
1, 379675, Control_c, 0, 64, 63
1, 379690, Control_c, 0, 64, 70
1, 379705, Control_c, 0, 64, 78
1, 379720, Control_c, 0, 64, 87
1, 379735, Control_c, 0, 64, 96
1, 379750, Control_c, 0, 64, 112
1, 379765, Control_c, 0, 64, 127
1, 379771, Note_off_c, 0, 64, 57
1, 379877, Note_off_c, 0, 55, 39
1, 379942, Note_off_c, 0, 73, 32
1, 379950, Note_off_c, 0, 45, 36
1, 380165, Control_c, 0, 64, 116
1, 380179, Note_on_c, 0, 74, 47
1, 380180, Control_c, 0, 64, 96
1, 380194, Note_on_c, 0, 62, 43
1, 380195, Control_c, 0, 64, 85
1, 380209, Control_c, 0, 64, 77
1, 380212, Note_off_c, 0, 76, 59
1, 380215, Note_on_c, 0, 54, 32
1, 380224, Control_c, 0, 64, 70
1, 380236, Note_on_c, 0, 50, 26
1, 380239, Control_c, 0, 64, 63
1, 380254, Control_c, 0, 64, 38
1, 380269, Control_c, 0, 64, 0
1, 380394, Control_c, 0, 64, 43
1, 380409, Control_c, 0, 64, 60
1, 380424, Control_c, 0, 64, 65
1, 380438, Control_c, 0, 64, 68
1, 380451, Note_off_c, 0, 62, 46
1, 380452, Note_off_c, 0, 57, 49
1, 380453, Control_c, 0, 64, 75
1, 380468, Note_off_c, 0, 74, 64
1, 380468, Control_c, 0, 64, 82
1, 380483, Control_c, 0, 64, 86
1, 380498, Control_c, 0, 64, 90
1, 380504, Note_off_c, 0, 54, 40
1, 380513, Control_c, 0, 64, 94
1, 380528, Control_c, 0, 64, 98
1, 380532, Note_off_c, 0, 50, 40
1, 380542, Control_c, 0, 64, 103
1, 380557, Control_c, 0, 64, 111
1, 380573, Control_c, 0, 64, 118
1, 380588, Control_c, 0, 64, 121
1, 380602, Control_c, 0, 64, 127
1, 380677, Control_c, 0, 67, 11
1, 380691, Control_c, 0, 67, 16
1, 380706, Control_c, 0, 67, 22
1, 380721, Control_c, 0, 67, 28
1, 380736, Control_c, 0, 67, 34
1, 380751, Control_c, 0, 67, 39
1, 380765, Control_c, 0, 67, 43
1, 380780, Control_c, 0, 67, 48
1, 380795, Control_c, 0, 67, 52
1, 380810, Control_c, 0, 67, 57
1, 380825, Control_c, 0, 67, 61
1, 380839, Control_c, 0, 64, 125
1, 380839, Control_c, 0, 67, 63
1, 380854, Control_c, 0, 64, 114
1, 380854, Control_c, 0, 67, 66
1, 380869, Control_c, 0, 64, 101
1, 380869, Control_c, 0, 67, 68
1, 380883, Control_c, 0, 64, 87
1, 380883, Control_c, 0, 67, 71
1, 380898, Control_c, 0, 64, 74
1, 380898, Control_c, 0, 67, 74
1, 380913, Control_c, 0, 64, 62
1, 380913, Control_c, 0, 67, 78
1, 380928, Control_c, 0, 64, 0
1, 380928, Control_c, 0, 67, 83
1, 380943, Control_c, 0, 67, 85
1, 380957, Control_c, 0, 67, 88
1, 380972, Control_c, 0, 67, 92
1, 380987, Control_c, 0, 67, 97
1, 381002, Control_c, 0, 67, 102
1, 381017, Control_c, 0, 67, 109
1, 381032, Control_c, 0, 67, 116
1, 381047, Control_c, 0, 67, 123
1, 381062, Control_c, 0, 67, 127
1, 381197, Note_on_c, 0, 69, 46
1, 381208, Note_on_c, 0, 66, 43
1, 381215, Note_on_c, 0, 60, 29
1, 381243, Note_on_c, 0, 50, 27
1, 381252, Note_on_c, 0, 38, 25
1, 381848, Control_c, 0, 64, 29
1, 381862, Control_c, 0, 64, 40
1, 381877, Control_c, 0, 64, 47
1, 381892, Control_c, 0, 64, 52
1, 381906, Control_c, 0, 64, 55
1, 381921, Control_c, 0, 64, 58
1, 381936, Control_c, 0, 64, 60
1, 381951, Control_c, 0, 64, 62
1, 381966, Control_c, 0, 64, 63
1, 381980, Control_c, 0, 64, 64
1, 381995, Control_c, 0, 64, 66
1, 382010, Control_c, 0, 64, 68
1, 382025, Control_c, 0, 64, 71
1, 382040, Control_c, 0, 64, 75
1, 382054, Control_c, 0, 64, 78
1, 382069, Control_c, 0, 64, 83
1, 382084, Control_c, 0, 64, 90
1, 382099, Control_c, 0, 64, 100
1, 382114, Control_c, 0, 64, 116
1, 382129, Control_c, 0, 64, 127
1, 382352, Note_off_c, 0, 38, 37
1, 382354, Note_off_c, 0, 69, 42
1, 382373, Note_off_c, 0, 66, 35
1, 382387, Note_off_c, 0, 50, 26
1, 382388, Note_off_c, 0, 60, 33
1, 382700, Note_on_c, 0, 69, 43
1, 382731, Note_on_c, 0, 38, 30
1, 382739, Note_on_c, 0, 66, 25
1, 382747, Note_on_c, 0, 60, 16
1, 382752, Note_on_c, 0, 50, 21
1, 382781, Note_off_c, 0, 38, 46
1, 382793, Note_off_c, 0, 60, 48
1, 382814, Note_off_c, 0, 66, 38
1, 382846, Note_off_c, 0, 50, 36
1, 382897, Note_off_c, 0, 69, 41
1, 382945, Note_on_c, 0, 71, 46
1, 382962, Note_on_c, 0, 67, 39
1, 382983, Control_c, 0, 64, 116
1, 382995, Note_on_c, 0, 59, 33
1, 382998, Control_c, 0, 64, 103
1, 382999, Note_on_c, 0, 50, 27
1, 383005, Note_on_c, 0, 43, 31
1, 383013, Control_c, 0, 64, 95
1, 383027, Control_c, 0, 64, 87
1, 383042, Control_c, 0, 64, 79
1, 383057, Control_c, 0, 64, 72
1, 383072, Control_c, 0, 64, 66
1, 383086, Control_c, 0, 64, 59
1, 383101, Control_c, 0, 64, 37
1, 383116, Control_c, 0, 64, 0
1, 383629, Note_on_c, 0, 55, 32
1, 383663, Note_off_c, 0, 50, 38
1, 383850, Control_c, 0, 64, 10
1, 383865, Control_c, 0, 64, 48
1, 383880, Control_c, 0, 64, 58
1, 383895, Control_c, 0, 64, 64
1, 383909, Control_c, 0, 64, 66
1, 383924, Control_c, 0, 64, 69
1, 383939, Control_c, 0, 64, 74
1, 383954, Control_c, 0, 64, 80
1, 383969, Control_c, 0, 64, 87
1, 383983, Control_c, 0, 64, 94
1, 383998, Control_c, 0, 64, 106
1, 384002, Note_off_c, 0, 71, 48
1, 384013, Control_c, 0, 64, 127
1, 384068, Note_off_c, 0, 67, 44
1, 384134, Note_off_c, 0, 55, 38
1, 384203, Note_off_c, 0, 43, 37
1, 384224, Note_off_c, 0, 59, 42
1, 384508, Control_c, 0, 64, 109
1, 384523, Control_c, 0, 64, 90
1, 384533, Note_on_c, 0, 64, 43
1, 384538, Control_c, 0, 64, 74
1, 384554, Control_c, 0, 64, 63
1, 384561, Note_on_c, 0, 44, 32
1, 384564, Note_on_c, 0, 62, 32
1, 384569, Control_c, 0, 64, 33
1, 384576, Note_on_c, 0, 59, 16
1, 384577, Note_on_c, 0, 52, 24
1, 384584, Control_c, 0, 64, 0
1, 384598, Control_c, 0, 64, 38
1, 384613, Control_c, 0, 64, 55
1, 384628, Control_c, 0, 64, 62
1, 384643, Control_c, 0, 64, 66
1, 384658, Control_c, 0, 64, 71
1, 384672, Note_off_c, 0, 62, 42
1, 384672, Control_c, 0, 64, 78
1, 384678, Note_off_c, 0, 64, 62
1, 384685, Note_off_c, 0, 44, 58
1, 384687, Control_c, 0, 64, 82
1, 384702, Control_c, 0, 64, 85
1, 384717, Control_c, 0, 64, 86
1, 384731, Control_c, 0, 64, 87
1, 384752, Note_off_c, 0, 59, 25
1, 384755, Note_off_c, 0, 52, 32
1, 384857, Control_c, 0, 64, 86
1, 384872, Control_c, 0, 64, 80
1, 384887, Control_c, 0, 64, 69
1, 384895, Note_on_c, 0, 52, 32
1, 384895, Note_on_c, 0, 64, 47
1, 384902, Control_c, 0, 64, 58
1, 384907, Note_on_c, 0, 61, 41
1, 384913, Note_on_c, 0, 45, 39
1, 384917, Control_c, 0, 64, 0
1, 384946, Control_c, 0, 64, 39
1, 384961, Control_c, 0, 64, 57
1, 384976, Control_c, 0, 64, 63
1, 384991, Control_c, 0, 64, 68
1, 385005, Control_c, 0, 64, 73
1, 385020, Note_off_c, 0, 61, 50
1, 385020, Control_c, 0, 64, 78
1, 385023, Note_off_c, 0, 64, 54
1, 385035, Control_c, 0, 64, 82
1, 385036, Note_off_c, 0, 45, 38
1, 385046, Note_off_c, 0, 52, 46
1, 385050, Control_c, 0, 64, 84
1, 385065, Control_c, 0, 64, 85
1, 385095, Control_c, 0, 64, 82
1, 385110, Control_c, 0, 64, 72
1, 385123, Note_on_c, 0, 64, 47
1, 385124, Control_c, 0, 64, 62
1, 385134, Note_on_c, 0, 61, 45
1, 385136, Note_on_c, 0, 54, 50
1, 385139, Control_c, 0, 64, 38
1, 385149, Note_on_c, 0, 45, 39
1, 385154, Control_c, 0, 64, 46
1, 385169, Control_c, 0, 64, 59
1, 385184, Control_c, 0, 64, 64
1, 385199, Control_c, 0, 64, 68
1, 385213, Control_c, 0, 64, 75
1, 385222, Note_off_c, 0, 45, 55
1, 385228, Control_c, 0, 64, 80
1, 385236, Note_off_c, 0, 64, 51
1, 385243, Control_c, 0, 64, 83
1, 385252, Note_off_c, 0, 54, 54
1, 385262, Note_off_c, 0, 61, 35
1, 385287, Control_c, 0, 64, 81
1, 385302, Control_c, 0, 64, 72
1, 385317, Control_c, 0, 64, 62
1, 385319, Note_on_c, 0, 64, 45
1, 385331, Note_on_c, 0, 61, 42
1, 385331, Control_c, 0, 64, 34
1, 385347, Note_on_c, 0, 55, 47
1, 385347, Control_c, 0, 64, 38
1, 385359, Note_on_c, 0, 45, 38
1, 385362, Control_c, 0, 64, 55
1, 385377, Control_c, 0, 64, 63
1, 385392, Control_c, 0, 64, 69
1, 385407, Control_c, 0, 64, 77
1, 385422, Control_c, 0, 64, 83
1, 385429, Note_off_c, 0, 45, 39
1, 385429, Note_off_c, 0, 64, 55
1, 385436, Control_c, 0, 64, 85
1, 385443, Note_off_c, 0, 55, 37
1, 385451, Control_c, 0, 64, 86
1, 385459, Note_off_c, 0, 61, 34
1, 385510, Control_c, 0, 64, 86
1, 385525, Control_c, 0, 64, 75
1, 385540, Control_c, 0, 64, 64
1, 385554, Note_on_c, 0, 64, 45
1, 385554, Note_on_c, 0, 61, 38
1, 385554, Control_c, 0, 64, 48
1, 385563, Note_on_c, 0, 55, 37
1, 385577, Control_c, 0, 64, 42
1, 385580, Note_on_c, 0, 45, 41
1, 385592, Control_c, 0, 64, 56
1, 385607, Control_c, 0, 64, 64
1, 385619, Note_off_c, 0, 64, 56
1, 385622, Control_c, 0, 64, 70
1, 385631, Note_off_c, 0, 55, 59
1, 385637, Control_c, 0, 64, 77
1, 385641, Note_off_c, 0, 45, 43
1, 385652, Control_c, 0, 64, 83
1, 385667, Control_c, 0, 64, 85
1, 385681, Control_c, 0, 64, 86
1, 385770, Control_c, 0, 64, 85
1, 385779, Note_off_c, 0, 61, 0
1, 385785, Control_c, 0, 64, 75
1, 385800, Note_on_c, 0, 61, 18
1, 385800, Control_c, 0, 64, 64
1, 385803, Note_on_c, 0, 67, 50
1, 385815, Control_c, 0, 64, 38
1, 385825, Note_on_c, 0, 59, 40
1, 385829, Control_c, 0, 64, 31
1, 385834, Note_on_c, 0, 45, 35
1, 385844, Control_c, 0, 64, 53
1, 385859, Control_c, 0, 64, 62
1, 385873, Control_c, 0, 64, 66
1, 385888, Control_c, 0, 64, 72
1, 385903, Control_c, 0, 64, 81
1, 385911, Note_off_c, 0, 59, 52
1, 385918, Control_c, 0, 64, 85
1, 385932, Note_off_c, 0, 61, 36
1, 385933, Control_c, 0, 64, 86
1, 385938, Note_off_c, 0, 67, 38
1, 385948, Control_c, 0, 64, 87
1, 385963, Note_off_c, 0, 45, 41
1, 385992, Control_c, 0, 64, 86
1, 386007, Control_c, 0, 64, 75
1, 386022, Control_c, 0, 64, 63
1, 386037, Control_c, 0, 64, 30
1, 386043, Note_on_c, 0, 66, 47
1, 386047, Note_on_c, 0, 61, 45
1, 386052, Control_c, 0, 64, 0
1, 386055, Note_on_c, 0, 45, 38
1, 386055, Note_on_c, 0, 57, 42
1, 386066, Control_c, 0, 64, 43
1, 386081, Control_c, 0, 64, 59
1, 386096, Control_c, 0, 64, 67
1, 386111, Control_c, 0, 64, 74
1, 386126, Control_c, 0, 64, 83
1, 386141, Note_off_c, 0, 61, 58
1, 386141, Control_c, 0, 64, 86
1, 386154, Note_off_c, 0, 66, 44
1, 386156, Control_c, 0, 64, 87
1, 386171, Control_c, 0, 64, 88
1, 386198, Note_off_c, 0, 45, 37
1, 386204, Note_off_c, 0, 57, 32
1, 386356, Control_c, 0, 64, 87
1, 386371, Control_c, 0, 64, 87
1, 386385, Control_c, 0, 64, 86
1, 386400, Control_c, 0, 64, 85
1, 386415, Control_c, 0, 64, 83
1, 386430, Control_c, 0, 64, 81
1, 386432, Note_on_c, 0, 64, 43
1, 386445, Control_c, 0, 64, 78
1, 386449, Note_on_c, 0, 61, 35
1, 386460, Control_c, 0, 64, 75
1, 386469, Note_on_c, 0, 55, 31
1, 386470, Note_on_c, 0, 45, 31
1, 386475, Control_c, 0, 64, 72
1, 386490, Control_c, 0, 64, 68
1, 386504, Control_c, 0, 64, 64
1, 386519, Control_c, 0, 64, 58
1, 386534, Control_c, 0, 64, 28
1, 386549, Control_c, 0, 64, 0
1, 386696, Control_c, 0, 64, 20
1, 386711, Control_c, 0, 64, 46
1, 386726, Control_c, 0, 64, 54
1, 386741, Control_c, 0, 64, 57
1, 386756, Control_c, 0, 64, 59
1, 386771, Control_c, 0, 64, 62
1, 386785, Control_c, 0, 64, 63
1, 386800, Control_c, 0, 64, 64
1, 386815, Control_c, 0, 64, 64
1, 386830, Control_c, 0, 64, 65
1, 386844, Control_c, 0, 64, 66
1, 386859, Control_c, 0, 64, 69
1, 386874, Control_c, 0, 64, 72
1, 386889, Control_c, 0, 64, 75
1, 386904, Control_c, 0, 64, 78
1, 386919, Control_c, 0, 64, 80
1, 386934, Control_c, 0, 64, 83
1, 386949, Control_c, 0, 64, 85
1, 386960, Note_off_c, 0, 45, 29
1, 386964, Control_c, 0, 64, 88
1, 386979, Control_c, 0, 64, 91
1, 386994, Control_c, 0, 64, 94
1, 387008, Control_c, 0, 64, 96
1, 387023, Control_c, 0, 64, 98
1, 387038, Control_c, 0, 64, 99
1, 387050, Note_off_c, 0, 61, 32
1, 387053, Control_c, 0, 64, 100
1, 387068, Control_c, 0, 64, 100
1, 387090, Control_c, 0, 64, 101
1, 387105, Control_c, 0, 64, 101
1, 387175, Note_off_c, 0, 55, 39
1, 387298, Control_c, 0, 64, 101
1, 387357, Control_c, 0, 64, 100
1, 387387, Control_c, 0, 64, 100
1, 387401, Control_c, 0, 64, 99
1, 387416, Control_c, 0, 64, 98
1, 387431, Control_c, 0, 64, 96
1, 387445, Control_c, 0, 64, 94
1, 387460, Control_c, 0, 64, 92
1, 387475, Control_c, 0, 64, 89
1, 387490, Control_c, 0, 64, 86
1, 387496, Note_on_c, 0, 62, 31
1, 387505, Control_c, 0, 64, 83
1, 387519, Control_c, 0, 64, 80
1, 387534, Control_c, 0, 64, 76
1, 387549, Control_c, 0, 64, 72
1, 387553, Note_on_c, 0, 54, 14
1, 387564, Control_c, 0, 64, 68
1, 387572, Note_on_c, 0, 50, 17
1, 387579, Control_c, 0, 64, 64
1, 387593, Control_c, 0, 64, 57
1, 387608, Control_c, 0, 64, 30
1, 387615, Note_off_c, 0, 64, 40
1, 387623, Control_c, 0, 64, 0
1, 387742, Control_c, 0, 64, 20
1, 387757, Control_c, 0, 64, 55
1, 387772, Control_c, 0, 64, 63
1, 387787, Control_c, 0, 64, 64
1, 387802, Control_c, 0, 64, 66
1, 387817, Control_c, 0, 64, 69
1, 387839, Control_c, 0, 64, 74
1, 387854, Control_c, 0, 64, 79
1, 387869, Control_c, 0, 64, 83
1, 387883, Control_c, 0, 64, 87
1, 387898, Control_c, 0, 64, 91
1, 387913, Control_c, 0, 64, 93
1, 387928, Control_c, 0, 64, 95
1, 387955, Note_off_c, 0, 50, 38
1, 387957, Control_c, 0, 64, 95
1, 387963, Note_off_c, 0, 54, 35
1, 387973, Note_off_c, 0, 62, 41
1, 388135, Control_c, 0, 67, 122
1, 388150, Control_c, 0, 67, 115
1, 388165, Control_c, 0, 67, 106
1, 388180, Control_c, 0, 67, 97
1, 388195, Control_c, 0, 67, 88
1, 388210, Control_c, 0, 67, 79
1, 388224, Control_c, 0, 67, 71
1, 388239, Control_c, 0, 64, 95
1, 388239, Control_c, 0, 67, 62
1, 388254, Control_c, 0, 64, 93
1, 388254, Control_c, 0, 67, 52
1, 388269, Control_c, 0, 64, 91
1, 388269, Control_c, 0, 67, 43
1, 388283, Control_c, 0, 64, 88
1, 388283, Control_c, 0, 67, 36
1, 388298, Control_c, 0, 64, 85
1, 388298, Control_c, 0, 67, 31
1, 388313, Control_c, 0, 64, 81
1, 388313, Control_c, 0, 67, 26
1, 388328, Control_c, 0, 64, 77
1, 388328, Control_c, 0, 67, 22
1, 388343, Control_c, 0, 64, 73
1, 388343, Control_c, 0, 67, 16
1, 388357, Control_c, 0, 64, 69
1, 388357, Control_c, 0, 67, 12
1, 388372, Control_c, 0, 64, 65
1, 388372, Control_c, 0, 67, 0
1, 388387, Control_c, 0, 64, 59
1, 388401, Control_c, 0, 64, 34
1, 388416, Control_c, 0, 64, 0
1, 388854, Note_on_c, 0, 67, 75
1, 388854, Note_on_c, 0, 43, 89
1, 388856, Note_on_c, 0, 50, 86
1, 388858, Note_on_c, 0, 58, 89
1, 388858, Note_on_c, 0, 70, 92
1, 388928, Control_c, 0, 64, 41
1, 388943, Control_c, 0, 64, 65
1, 388958, Control_c, 0, 64, 127
1, 389790, Note_off_c, 0, 70, 57
1, 389790, Note_off_c, 0, 58, 62
1, 389821, Note_off_c, 0, 67, 58
1, 390242, Note_off_c, 0, 50, 59
1, 390264, Note_off_c, 0, 43, 61
1, 390275, Note_on_c, 0, 66, 92
1, 390281, Note_on_c, 0, 60, 83
1, 390281, Note_on_c, 0, 69, 82
1, 390314, Note_off_c, 0, 60, 60
1, 390360, Note_off_c, 0, 69, 62
1, 390364, Note_off_c, 0, 66, 63
1, 390410, Note_on_c, 0, 70, 93
1, 390412, Note_on_c, 0, 67, 78
1, 390413, Note_on_c, 0, 58, 96
1, 390416, Note_on_c, 0, 50, 85
1, 390419, Note_on_c, 0, 43, 81
1, 390455, Control_c, 0, 64, 99
1, 390469, Control_c, 0, 64, 62
1, 390484, Control_c, 0, 64, 0
1, 390722, Control_c, 0, 64, 19
1, 390737, Control_c, 0, 64, 27
1, 390751, Control_c, 0, 64, 33
1, 390766, Control_c, 0, 64, 36
1, 390781, Control_c, 0, 64, 38
1, 390795, Control_c, 0, 64, 39
1, 390810, Control_c, 0, 64, 39
1, 390832, Control_c, 0, 64, 40
1, 390847, Control_c, 0, 64, 40
1, 390862, Control_c, 0, 64, 41
1, 390876, Control_c, 0, 64, 43
1, 390891, Control_c, 0, 64, 43
1, 390921, Control_c, 0, 64, 43
1, 390936, Control_c, 0, 64, 42
1, 390952, Control_c, 0, 64, 41
1, 390981, Control_c, 0, 64, 41
1, 390996, Control_c, 0, 64, 40
1, 391011, Control_c, 0, 64, 39
1, 391025, Control_c, 0, 64, 36
1, 391040, Control_c, 0, 64, 33
1, 391055, Control_c, 0, 64, 26
1, 391070, Control_c, 0, 64, 14
1, 391085, Control_c, 0, 64, 8
1, 391099, Control_c, 0, 64, 22
1, 391114, Control_c, 0, 64, 43
1, 391129, Control_c, 0, 64, 62
1, 391144, Control_c, 0, 64, 81
1, 391159, Control_c, 0, 64, 127
1, 391281, Note_off_c, 0, 58, 63
1, 391349, Note_off_c, 0, 50, 57
1, 391372, Note_off_c, 0, 43, 56
1, 391378, Note_off_c, 0, 70, 46
1, 391596, Note_off_c, 0, 67, 31
1, 391657, Note_on_c, 0, 60, 77
1, 391657, Note_on_c, 0, 69, 79
1, 391658, Note_on_c, 0, 66, 81
1, 391694, Note_off_c, 0, 60, 58
1, 391739, Note_off_c, 0, 66, 61
1, 391754, Note_off_c, 0, 69, 64
1, 391783, Note_on_c, 0, 67, 75
1, 391786, Note_on_c, 0, 58, 86
1, 391787, Note_on_c, 0, 70, 86
1, 391819, Control_c, 0, 64, 66
1, 391826, Note_on_c, 0, 39, 90
1, 391826, Note_on_c, 0, 51, 93
1, 391834, Control_c, 0, 64, 0
1, 391888, Note_off_c, 0, 58, 64
1, 391908, Control_c, 0, 64, 33
1, 391922, Control_c, 0, 64, 69
1, 391929, Note_off_c, 0, 67, 59
1, 391937, Control_c, 0, 64, 127
1, 391973, Note_off_c, 0, 70, 61
1, 392120, Note_on_c, 0, 75, 69
1, 392135, Note_on_c, 0, 67, 46
1, 392143, Note_on_c, 0, 70, 45
1, 392175, Note_off_c, 0, 70, 55
1, 392195, Note_off_c, 0, 75, 63
1, 392209, Note_off_c, 0, 67, 49
1, 392305, Note_on_c, 0, 75, 66
1, 392315, Note_on_c, 0, 70, 55
1, 392323, Note_on_c, 0, 67, 57
1, 392383, Note_off_c, 0, 75, 61
1, 392390, Note_off_c, 0, 67, 49
1, 392392, Note_off_c, 0, 70, 59
1, 392483, Note_on_c, 0, 75, 77
1, 392493, Note_on_c, 0, 70, 74
1, 392496, Note_on_c, 0, 67, 69
1, 392561, Note_off_c, 0, 67, 58
1, 392561, Note_off_c, 0, 70, 61
1, 392572, Note_off_c, 0, 75, 62
1, 392637, Note_on_c, 0, 77, 83
1, 392649, Note_on_c, 0, 67, 78
1, 392651, Note_on_c, 0, 70, 84
1, 392711, Note_off_c, 0, 77, 62
1, 392725, Note_off_c, 0, 67, 56
1, 392729, Note_off_c, 0, 70, 57
1, 392787, Note_off_c, 0, 51, 59
1, 392792, Note_off_c, 0, 39, 54
1, 392798, Note_on_c, 0, 77, 84
1, 392806, Note_on_c, 0, 70, 77
1, 392812, Note_on_c, 0, 67, 83
1, 392863, Note_on_c, 0, 38, 81
1, 392867, Note_on_c, 0, 50, 83
1, 392878, Note_off_c, 0, 77, 61
1, 392896, Note_off_c, 0, 70, 52
1, 392900, Note_off_c, 0, 67, 53
1, 392908, Note_off_c, 0, 50, 59
1, 392912, Note_off_c, 0, 38, 64
1, 392983, Note_on_c, 0, 79, 86
1, 392988, Note_on_c, 0, 70, 91
1, 392988, Note_on_c, 0, 67, 89
1, 393003, Note_on_c, 0, 51, 90
1, 393007, Note_on_c, 0, 39, 82
1, 393027, Control_c, 0, 64, 84
1, 393042, Control_c, 0, 64, 46
1, 393055, Note_on_c, 0, 43, 31
1, 393064, Control_c, 0, 64, 0
1, 393103, Note_off_c, 0, 43, 30
1, 393183, Control_c, 0, 64, 36
1, 393197, Control_c, 0, 64, 44
1, 393212, Control_c, 0, 64, 53
1, 393227, Control_c, 0, 64, 61
1, 393242, Control_c, 0, 64, 64
1, 393257, Control_c, 0, 64, 66
1, 393271, Control_c, 0, 64, 67
1, 393406, Control_c, 0, 64, 68
1, 393599, Control_c, 0, 64, 68
1, 393613, Control_c, 0, 64, 73
1, 393628, Control_c, 0, 64, 89
1, 393643, Control_c, 0, 64, 127
1, 393717, Note_off_c, 0, 79, 58
1, 393728, Note_off_c, 0, 67, 55
1, 393761, Note_off_c, 0, 70, 60
1, 394127, Note_off_c, 0, 51, 57
1, 394183, Note_off_c, 0, 39, 45
1, 394228, Note_on_c, 0, 38, 76
1, 394231, Note_on_c, 0, 50, 74
1, 394258, Note_off_c, 0, 50, 66
1, 394332, Control_c, 0, 64, 72
1, 394339, Note_on_c, 0, 69, 88
1, 394347, Control_c, 0, 64, 0
1, 394353, Note_on_c, 0, 67, 72
1, 394356, Note_off_c, 0, 38, 64
1, 394357, Note_on_c, 0, 49, 65
1, 394361, Note_on_c, 0, 37, 61
1, 394371, Note_on_c, 0, 64, 57
1, 394451, Control_c, 0, 64, 60
1, 394466, Control_c, 0, 64, 74
1, 394481, Control_c, 0, 64, 98
1, 394496, Control_c, 0, 64, 127
1, 394506, Note_off_c, 0, 37, 64
1, 394508, Note_off_c, 0, 49, 60
1, 394609, Note_on_c, 0, 52, 72
1, 394610, Note_on_c, 0, 40, 68
1, 394678, Note_off_c, 0, 52, 64
1, 394683, Note_off_c, 0, 40, 64
1, 394772, Note_on_c, 0, 40, 73
1, 394774, Note_on_c, 0, 52, 79
1, 394840, Note_off_c, 0, 52, 64
1, 394845, Note_off_c, 0, 40, 61
1, 394931, Note_on_c, 0, 40, 81
1, 394936, Note_on_c, 0, 52, 86
1, 394979, Note_off_c, 0, 40, 64
1, 394982, Note_off_c, 0, 52, 67
1, 395081, Note_on_c, 0, 57, 87
1, 395083, Note_on_c, 0, 45, 85
1, 395146, Note_off_c, 0, 57, 61
1, 395153, Note_off_c, 0, 45, 63
1, 395211, Note_off_c, 0, 64, 57
1, 395221, Note_off_c, 0, 67, 54
1, 395239, Note_on_c, 0, 57, 87
1, 395242, Note_on_c, 0, 45, 88
1, 395255, Note_off_c, 0, 69, 63
1, 395296, Note_off_c, 0, 45, 64
1, 395299, Note_on_c, 0, 70, 89
1, 395301, Note_off_c, 0, 57, 59
1, 395314, Note_on_c, 0, 64, 82
1, 395321, Note_on_c, 0, 67, 75
1, 395345, Note_off_c, 0, 67, 65
1, 395360, Note_off_c, 0, 64, 62
1, 395372, Note_off_c, 0, 70, 61
1, 395414, Control_c, 0, 64, 103
1, 395416, Note_on_c, 0, 64, 84
1, 395416, Note_on_c, 0, 69, 89
1, 395419, Note_on_c, 0, 67, 87
1, 395422, Note_on_c, 0, 61, 94
1, 395423, Note_on_c, 0, 49, 92
1, 395429, Control_c, 0, 64, 68
1, 395444, Control_c, 0, 64, 0
1, 395533, Control_c, 0, 64, 50
1, 395547, Control_c, 0, 64, 75
1, 395562, Control_c, 0, 64, 127
1, 395676, Note_off_c, 0, 49, 57
1, 395719, Note_off_c, 0, 61, 61
1, 396163, Control_c, 0, 64, 78
1, 396178, Control_c, 0, 64, 0
1, 396237, Control_c, 0, 64, 51
1, 396252, Control_c, 0, 64, 90
1, 396267, Control_c, 0, 64, 127
1, 396415, Note_off_c, 0, 64, 54
1, 396437, Note_off_c, 0, 67, 55
1, 396530, Note_on_c, 0, 64, 76
1, 396532, Note_on_c, 0, 70, 80
1, 396538, Note_off_c, 0, 69, 62
1, 396540, Note_on_c, 0, 67, 71
1, 396565, Note_off_c, 0, 64, 61
1, 396583, Note_off_c, 0, 67, 52
1, 396611, Note_off_c, 0, 70, 52
1, 396634, Note_on_c, 0, 69, 78
1, 396639, Note_on_c, 0, 38, 83
1, 396639, Note_on_c, 0, 50, 91
1, 396643, Note_on_c, 0, 65, 78
1, 396668, Control_c, 0, 64, 72
1, 396683, Control_c, 0, 64, 0
1, 396757, Control_c, 0, 64, 49
1, 396760, Note_off_c, 0, 65, 47
1, 396772, Control_c, 0, 64, 72
1, 396784, Note_off_c, 0, 69, 62
1, 396786, Control_c, 0, 64, 121
1, 396809, Control_c, 0, 64, 127
1, 396914, Note_on_c, 0, 74, 77
1, 396915, Note_on_c, 0, 65, 68
1, 396929, Note_on_c, 0, 69, 59
1, 396995, Note_off_c, 0, 74, 59
1, 396996, Note_off_c, 0, 65, 53
1, 397006, Note_off_c, 0, 69, 64
1, 397095, Note_on_c, 0, 74, 75
1, 397102, Note_on_c, 0, 65, 70
1, 397107, Note_on_c, 0, 69, 67
1, 397174, Note_off_c, 0, 74, 62
1, 397176, Note_off_c, 0, 65, 56
1, 397185, Note_off_c, 0, 69, 65
1, 397259, Note_on_c, 0, 74, 85
1, 397264, Note_on_c, 0, 65, 72
1, 397268, Note_on_c, 0, 69, 68
1, 397320, Note_off_c, 0, 69, 57
1, 397330, Note_off_c, 0, 65, 56
1, 397340, Note_off_c, 0, 74, 61
1, 397410, Note_on_c, 0, 69, 82
1, 397412, Note_on_c, 0, 65, 80
1, 397413, Note_on_c, 0, 76, 73
1, 397474, Note_off_c, 0, 65, 60
1, 397482, Note_off_c, 0, 76, 67
1, 397492, Note_off_c, 0, 50, 54
1, 397495, Note_off_c, 0, 69, 65
1, 397564, Note_on_c, 0, 76, 85
1, 397567, Note_on_c, 0, 69, 75
1, 397569, Note_on_c, 0, 65, 81
1, 397610, Note_off_c, 0, 38, 55
1, 397626, Note_on_c, 0, 37, 83
1, 397627, Note_on_c, 0, 49, 87
1, 397639, Note_off_c, 0, 69, 65
1, 397642, Note_off_c, 0, 65, 59
1, 397662, Note_off_c, 0, 76, 62
1, 397728, Note_off_c, 0, 49, 61
1, 397743, Note_on_c, 0, 69, 81
1, 397743, Note_on_c, 0, 77, 89
1, 397746, Note_on_c, 0, 65, 80
1, 397754, Note_off_c, 0, 37, 64
1, 397776, Note_on_c, 0, 38, 74
1, 397778, Note_on_c, 0, 50, 79
1, 397780, Control_c, 0, 64, 99
1, 397794, Control_c, 0, 64, 71
1, 397809, Control_c, 0, 64, 12
1, 397824, Control_c, 0, 64, 0
1, 397928, Control_c, 0, 64, 24
1, 397942, Control_c, 0, 64, 54
1, 397957, Control_c, 0, 64, 63
1, 397972, Control_c, 0, 64, 68
1, 397987, Control_c, 0, 64, 74
1, 398002, Control_c, 0, 64, 87
1, 398017, Control_c, 0, 64, 111
1, 398032, Control_c, 0, 64, 127
1, 398108, Note_off_c, 0, 65, 56
1, 398146, Note_off_c, 0, 77, 59
1, 398170, Note_off_c, 0, 69, 62
1, 398543, Control_c, 0, 64, 105
1, 398558, Control_c, 0, 64, 59
1, 398573, Control_c, 0, 64, 0
1, 398632, Control_c, 0, 64, 57
1, 398647, Control_c, 0, 64, 75
1, 398662, Control_c, 0, 64, 127
1, 398876, Note_off_c, 0, 50, 51
1, 398960, Note_off_c, 0, 38, 56
1, 399003, Note_on_c, 0, 36, 61
1, 399005, Note_on_c, 0, 48, 62
1, 399041, Note_off_c, 0, 48, 62
1, 399112, Note_off_c, 0, 36, 53
1, 399135, Note_on_c, 0, 67, 70
1, 399144, Control_c, 0, 64, 114
1, 399156, Note_on_c, 0, 65, 55
1, 399159, Control_c, 0, 64, 67
1, 399168, Note_on_c, 0, 62, 48
1, 399172, Note_on_c, 0, 47, 54
1, 399173, Control_c, 0, 64, 0
1, 399180, Note_on_c, 0, 35, 49
1, 399248, Control_c, 0, 64, 58
1, 399263, Control_c, 0, 64, 69
1, 399278, Control_c, 0, 64, 80
1, 399284, Note_off_c, 0, 47, 63
1, 399290, Note_off_c, 0, 35, 58
1, 399293, Control_c, 0, 64, 90
1, 399307, Control_c, 0, 64, 94
1, 399322, Control_c, 0, 64, 100
1, 399337, Control_c, 0, 64, 111
1, 399352, Control_c, 0, 64, 127
1, 399409, Note_on_c, 0, 50, 60
1, 399413, Note_on_c, 0, 38, 55
1, 399454, Note_off_c, 0, 50, 58
1, 399460, Note_off_c, 0, 38, 61
1, 399570, Note_on_c, 0, 38, 63
1, 399571, Note_on_c, 0, 50, 59
1, 399614, Note_off_c, 0, 50, 59
1, 399624, Note_off_c, 0, 38, 60
1, 399737, Note_on_c, 0, 38, 57
1, 399744, Note_on_c, 0, 50, 50
1, 399765, Note_off_c, 0, 38, 54
1, 399766, Note_off_c, 0, 50, 58
1, 399892, Note_on_c, 0, 43, 68
1, 399893, Note_on_c, 0, 55, 60
1, 399931, Note_off_c, 0, 55, 64
1, 399934, Note_off_c, 0, 43, 57
1, 399990, Note_off_c, 0, 65, 36
1, 399997, Note_off_c, 0, 62, 35
1, 400036, Note_off_c, 0, 67, 53
1, 400038, Note_on_c, 0, 43, 68
1, 400045, Note_on_c, 0, 55, 64
1, 400085, Note_off_c, 0, 43, 61
1, 400090, Note_on_c, 0, 68, 73
1, 400095, Note_off_c, 0, 55, 63
1, 400104, Note_on_c, 0, 62, 58
1, 400113, Note_on_c, 0, 65, 51
1, 400138, Note_off_c, 0, 62, 60
1, 400144, Note_off_c, 0, 65, 53
1, 400161, Note_off_c, 0, 68, 59
1, 400175, Control_c, 0, 64, 119
1, 400189, Control_c, 0, 64, 73
1, 400204, Control_c, 0, 64, 28
1, 400219, Control_c, 0, 64, 0
1, 400225, Note_on_c, 0, 67, 70
1, 400235, Note_on_c, 0, 62, 47
1, 400237, Note_on_c, 0, 47, 74
1, 400241, Note_on_c, 0, 59, 68
1, 400263, Control_c, 0, 64, 47
1, 400278, Control_c, 0, 64, 65
1, 400293, Control_c, 0, 64, 77
1, 400298, Note_off_c, 0, 62, 51
1, 400308, Control_c, 0, 64, 99
1, 400323, Note_off_c, 0, 67, 63
1, 400323, Control_c, 0, 64, 127
1, 400430, Note_on_c, 0, 74, 68
1, 400440, Note_on_c, 0, 65, 56
1, 400443, Note_on_c, 0, 67, 56
1, 400480, Note_off_c, 0, 65, 58
1, 400485, Note_off_c, 0, 67, 59
1, 400488, Note_off_c, 0, 74, 63
1, 400593, Note_on_c, 0, 74, 73
1, 400597, Note_on_c, 0, 65, 65
1, 400599, Note_off_c, 0, 47, 63
1, 400600, Note_on_c, 0, 67, 59
1, 400614, Note_off_c, 0, 59, 63
1, 400660, Note_off_c, 0, 74, 61
1, 400661, Note_off_c, 0, 65, 57
1, 400668, Note_off_c, 0, 67, 57
1, 400731, Control_c, 0, 64, 76
1, 400746, Control_c, 0, 64, 0
1, 400755, Note_on_c, 0, 74, 77
1, 400766, Note_on_c, 0, 67, 66
1, 400768, Note_on_c, 0, 65, 68
1, 400790, Control_c, 0, 64, 58
1, 400801, Note_off_c, 0, 67, 63
1, 400804, Control_c, 0, 64, 127
1, 400824, Note_off_c, 0, 65, 58
1, 400833, Note_off_c, 0, 74, 62
1, 400924, Note_on_c, 0, 77, 82
1, 400929, Note_on_c, 0, 67, 68
1, 400935, Note_on_c, 0, 74, 67
1, 400989, Note_off_c, 0, 74, 63
1, 401013, Note_off_c, 0, 67, 53
1, 401020, Note_off_c, 0, 77, 60
1, 401096, Note_on_c, 0, 77, 83
1, 401105, Note_on_c, 0, 74, 63
1, 401117, Note_on_c, 0, 67, 67
1, 401215, Note_off_c, 0, 67, 53
1, 401223, Note_off_c, 0, 77, 57
1, 401257, Note_off_c, 0, 74, 50
1, 401350, Note_on_c, 0, 77, 82
1, 401372, Note_on_c, 0, 67, 52
1, 401376, Control_c, 0, 64, 85
1, 401380, Note_on_c, 0, 72, 53
1, 401391, Control_c, 0, 64, 57
1, 401391, Note_on_c, 0, 36, 53
1, 401400, Note_on_c, 0, 48, 48
1, 401406, Control_c, 0, 64, 0
1, 401435, Control_c, 0, 64, 18
1, 401450, Control_c, 0, 64, 59
1, 401465, Control_c, 0, 64, 71
1, 401467, Note_off_c, 0, 36, 61
1, 401479, Note_off_c, 0, 48, 61
1, 401480, Control_c, 0, 64, 93
1, 401495, Control_c, 0, 64, 127
1, 401600, Note_on_c, 0, 39, 61
1, 401603, Note_on_c, 0, 51, 64
1, 401655, Note_off_c, 0, 51, 55
1, 401664, Note_off_c, 0, 39, 58
1, 401746, Note_on_c, 0, 51, 67
1, 401747, Note_on_c, 0, 39, 61
1, 401802, Note_off_c, 0, 39, 60
1, 401806, Note_off_c, 0, 51, 60
1, 401880, Control_c, 0, 64, 72
1, 401895, Control_c, 0, 64, 52
1, 401907, Note_on_c, 0, 39, 61
1, 401909, Note_on_c, 0, 51, 67
1, 401909, Note_on_c, 0, 75, 74
1, 401909, Control_c, 0, 64, 37
1, 401924, Control_c, 0, 64, 55
1, 401939, Control_c, 0, 64, 64
1, 401944, Note_off_c, 0, 77, 60
1, 401953, Control_c, 0, 64, 78
1, 401958, Note_off_c, 0, 39, 62
1, 401967, Note_off_c, 0, 51, 61
1, 401968, Control_c, 0, 64, 127
1, 402065, Note_on_c, 0, 55, 74
1, 402067, Note_on_c, 0, 43, 74
1, 402102, Note_off_c, 0, 72, 64
1, 402125, Note_off_c, 0, 55, 62
1, 402126, Note_off_c, 0, 43, 62
1, 402137, Note_off_c, 0, 75, 63
1, 402202, Note_off_c, 0, 67, 54
1, 402211, Note_on_c, 0, 43, 74
1, 402214, Note_on_c, 0, 55, 78
1, 402262, Note_off_c, 0, 43, 61
1, 402272, Note_off_c, 0, 55, 62
1, 402384, Note_on_c, 0, 63, 69
1, 402397, Note_on_c, 0, 48, 84
1, 402399, Note_on_c, 0, 60, 80
1, 402435, Control_c, 0, 64, 65
1, 402449, Control_c, 0, 64, 0
1, 402500, Note_off_c, 0, 63, 60
1, 402509, Control_c, 0, 64, 52
1, 402523, Control_c, 0, 64, 74
1, 402538, Control_c, 0, 64, 127
1, 402577, Note_on_c, 0, 67, 72
1, 402578, Note_on_c, 0, 63, 66
1, 402642, Note_off_c, 0, 63, 62
1, 402659, Note_off_c, 0, 67, 60
1, 402724, Note_on_c, 0, 67, 71
1, 402728, Note_on_c, 0, 63, 79
1, 402740, Note_off_c, 0, 60, 58
1, 402756, Note_off_c, 0, 48, 58
1, 402819, Note_off_c, 0, 63, 60
1, 402831, Note_off_c, 0, 67, 59
1, 402896, Note_on_c, 0, 63, 84
1, 402897, Note_on_c, 0, 67, 80
1, 402901, Control_c, 0, 64, 68
1, 402916, Control_c, 0, 64, 0
1, 402959, Poly_aftertouch_c, 0, 71, 127
1, 402962, Control_c, 0, 64, 25
1, 402977, Control_c, 0, 64, 77
1, 402992, Control_c, 0, 64, 127
1, 402998, Note_off_c, 0, 63, 62
1, 403019, Note_off_c, 0, 67, 60
1, 403022, Poly_aftertouch_c, 0, 71, 0
1, 403055, Poly_aftertouch_c, 0, 67, 0
1, 403064, Note_on_c, 0, 63, 80
1, 403064, Note_on_c, 0, 67, 65
1, 403068, Note_on_c, 0, 72, 79
1, 403144, Note_off_c, 0, 63, 62
1, 403153, Note_off_c, 0, 72, 62
1, 403168, Note_off_c, 0, 67, 59
1, 403218, Note_on_c, 0, 63, 86
1, 403221, Note_on_c, 0, 72, 75
1, 403222, Note_on_c, 0, 67, 72
1, 403299, Note_off_c, 0, 63, 62
1, 403336, Note_off_c, 0, 67, 57
1, 403377, Note_off_c, 0, 72, 59
1, 403425, Note_on_c, 0, 75, 79
1, 403427, Note_on_c, 0, 70, 73
1, 403433, Note_on_c, 0, 66, 77
1, 403436, Control_c, 0, 64, 92
1, 403448, Note_on_c, 0, 34, 61
1, 403449, Note_on_c, 0, 46, 66
1, 403451, Control_c, 0, 64, 51
1, 403465, Control_c, 0, 64, 0
1, 403524, Control_c, 0, 64, 74
1, 403539, Control_c, 0, 64, 127
1, 403551, Note_off_c, 0, 34, 65
1, 403553, Note_off_c, 0, 46, 63
1, 403651, Note_on_c, 0, 39, 71
1, 403654, Note_on_c, 0, 51, 71
1, 403710, Note_off_c, 0, 51, 62
1, 403724, Note_off_c, 0, 39, 59
1, 403794, Note_on_c, 0, 51, 76
1, 403795, Note_on_c, 0, 39, 71
1, 403862, Note_off_c, 0, 51, 61
1, 403875, Note_off_c, 0, 39, 59
1, 403903, Control_c, 0, 64, 91
1, 403918, Control_c, 0, 64, 39
1, 403933, Control_c, 0, 64, 0
1, 403943, Note_on_c, 0, 39, 75
1, 403944, Note_on_c, 0, 51, 80
1, 403977, Control_c, 0, 64, 66
1, 403992, Control_c, 0, 64, 127
1, 404000, Note_off_c, 0, 51, 63
1, 404005, Note_off_c, 0, 39, 62
1, 404083, Note_on_c, 0, 42, 78
1, 404085, Note_on_c, 0, 54, 81
1, 404115, Note_off_c, 0, 70, 63
1, 404144, Note_off_c, 0, 54, 61
1, 404157, Note_off_c, 0, 42, 62
1, 404216, Note_off_c, 0, 66, 33
1, 404222, Note_on_c, 0, 42, 83
1, 404223, Note_off_c, 0, 75, 55
1, 404225, Note_on_c, 0, 54, 87
1, 404301, Note_off_c, 0, 42, 63
1, 404305, Note_off_c, 0, 54, 60
1, 404396, Note_on_c, 0, 66, 73
1, 404396, Note_on_c, 0, 70, 74
1, 404401, Note_on_c, 0, 46, 92
1, 404402, Note_on_c, 0, 58, 95
1, 404429, Control_c, 0, 64, 74
1, 404444, Control_c, 0, 64, 0
1, 404497, Note_off_c, 0, 66, 62
1, 404503, Control_c, 0, 64, 58
1, 404509, Note_off_c, 0, 70, 60
1, 404518, Control_c, 0, 64, 107
1, 404533, Control_c, 0, 64, 127
1, 404581, Note_on_c, 0, 75, 79
1, 404587, Note_on_c, 0, 66, 79
1, 404590, Note_on_c, 0, 70, 76
1, 404644, Note_off_c, 0, 66, 65
1, 404663, Note_off_c, 0, 70, 60
1, 404664, Note_off_c, 0, 75, 61
1, 404665, Note_off_c, 0, 46, 62
1, 404670, Note_off_c, 0, 58, 61
1, 404720, Note_on_c, 0, 75, 80
1, 404727, Note_on_c, 0, 66, 84
1, 404733, Note_on_c, 0, 70, 68
1, 404795, Note_off_c, 0, 66, 65
1, 404804, Note_off_c, 0, 75, 64
1, 404822, Note_off_c, 0, 70, 61
1, 404874, Control_c, 0, 64, 65
1, 404876, Note_on_c, 0, 75, 84
1, 404880, Note_on_c, 0, 66, 84
1, 404880, Note_on_c, 0, 70, 66
1, 404889, Control_c, 0, 64, 0
1, 404931, Note_off_c, 0, 66, 65
1, 404932, Note_off_c, 0, 70, 62
1, 404933, Control_c, 0, 64, 71
1, 404948, Control_c, 0, 64, 127
1, 404962, Note_off_c, 0, 75, 67
1, 405041, Note_on_c, 0, 78, 92
1, 405043, Note_on_c, 0, 70, 92
1, 405058, Note_on_c, 0, 75, 83
1, 405132, Note_off_c, 0, 70, 59
1, 405141, Note_off_c, 0, 78, 61
1, 405143, Note_off_c, 0, 75, 60
1, 405218, Note_on_c, 0, 78, 94
1, 405219, Note_on_c, 0, 70, 95
1, 405224, Note_on_c, 0, 75, 85
1, 405313, Note_off_c, 0, 70, 64
1, 405377, Note_off_c, 0, 78, 56
1, 405389, Note_off_c, 0, 75, 54
1, 405475, Note_on_c, 0, 78, 86
1, 405481, Note_on_c, 0, 75, 88
1, 405483, Note_on_c, 0, 72, 95
1, 405489, Note_on_c, 0, 45, 73
1, 405492, Note_on_c, 0, 33, 68
1, 405504, Control_c, 0, 64, 75
1, 405518, Control_c, 0, 64, 0
1, 405578, Control_c, 0, 64, 61
1, 405592, Control_c, 0, 64, 127
1, 405616, Note_off_c, 0, 33, 65
1, 405624, Note_off_c, 0, 45, 64
1, 405719, Note_on_c, 0, 48, 88
1, 405723, Note_on_c, 0, 36, 80
1, 405803, Note_off_c, 0, 36, 63
1, 405803, Note_off_c, 0, 48, 60
1, 405874, Note_on_c, 0, 48, 85
1, 405877, Note_on_c, 0, 36, 81
1, 405957, Note_off_c, 0, 48, 57
1, 405963, Note_off_c, 0, 36, 61
1, 405985, Control_c, 0, 64, 94
1, 406000, Control_c, 0, 64, 53
1, 406015, Control_c, 0, 64, 0
1, 406021, Note_on_c, 0, 77, 87
1, 406029, Note_on_c, 0, 36, 72
1, 406033, Note_on_c, 0, 48, 81
1, 406059, Control_c, 0, 64, 58
1, 406074, Control_c, 0, 64, 127
1, 406080, Note_off_c, 0, 36, 65
1, 406089, Note_off_c, 0, 48, 63
1, 406123, Note_off_c, 0, 78, 53
1, 406155, Note_off_c, 0, 77, 62
1, 406160, Note_off_c, 0, 75, 61
1, 406170, Note_on_c, 0, 53, 88
1, 406173, Note_on_c, 0, 41, 83
1, 406176, Note_off_c, 0, 72, 63
1, 406235, Note_off_c, 0, 53, 65
1, 406238, Note_off_c, 0, 41, 64
1, 406302, Note_on_c, 0, 53, 88
1, 406304, Note_on_c, 0, 41, 85
1, 406372, Note_off_c, 0, 41, 62
1, 406378, Note_off_c, 0, 53, 63
1, 406458, Note_on_c, 0, 65, 73
1, 406459, Note_on_c, 0, 60, 75
1, 406460, Control_c, 0, 64, 59
1, 406469, Note_on_c, 0, 63, 66
1, 406470, Note_on_c, 0, 57, 100
1, 406471, Note_on_c, 0, 45, 96
1, 406475, Control_c, 0, 64, 0
1, 406506, Note_off_c, 0, 65, 62
1, 406519, Control_c, 0, 64, 60
1, 406530, Note_off_c, 0, 63, 63
1, 406534, Control_c, 0, 64, 127
1, 406550, Note_off_c, 0, 60, 62
1, 406629, Note_on_c, 0, 72, 82
1, 406635, Note_on_c, 0, 65, 82
1, 406638, Note_on_c, 0, 63, 89
1, 406706, Note_off_c, 0, 57, 61
1, 406717, Note_off_c, 0, 63, 62
1, 406719, Note_off_c, 0, 72, 62
1, 406721, Note_off_c, 0, 45, 62
1, 406742, Note_off_c, 0, 65, 60
1, 406800, Note_on_c, 0, 72, 87
1, 406804, Note_on_c, 0, 65, 77
1, 406805, Note_on_c, 0, 63, 88
1, 406899, Note_off_c, 0, 63, 60
1, 406903, Note_off_c, 0, 72, 63
1, 406919, Note_off_c, 0, 65, 58
1, 406943, Control_c, 0, 64, 86
1, 406958, Control_c, 0, 64, 48
1, 406972, Control_c, 0, 64, 0
1, 406974, Note_on_c, 0, 72, 90
1, 406975, Note_on_c, 0, 65, 83
1, 406978, Note_on_c, 0, 63, 93
1, 407017, Control_c, 0, 64, 76
1, 407032, Control_c, 0, 64, 127
1, 407044, Note_off_c, 0, 65, 63
1, 407061, Note_off_c, 0, 72, 62
1, 407076, Note_off_c, 0, 63, 62
1, 407165, Note_on_c, 0, 65, 96
1, 407168, Note_on_c, 0, 75, 91
1, 407172, Note_on_c, 0, 72, 82
1, 407282, Note_off_c, 0, 75, 61
1, 407285, Note_off_c, 0, 65, 52
1, 407296, Note_off_c, 0, 72, 58
1, 407373, Note_on_c, 0, 72, 87
1, 407374, Note_on_c, 0, 65, 97
1, 407374, Note_on_c, 0, 75, 98
1, 407501, Note_off_c, 0, 75, 60
1, 407504, Note_off_c, 0, 72, 56
1, 407535, Note_off_c, 0, 65, 49
1, 407726, Note_on_c, 0, 73, 96
1, 407732, Note_on_c, 0, 65, 95
1, 407732, Note_on_c, 0, 70, 90
1, 407745, Note_on_c, 0, 46, 94
1, 407747, Note_on_c, 0, 34, 89
1, 407795, Control_c, 0, 64, 78
1, 407810, Control_c, 0, 64, 0
1, 407899, Control_c, 0, 64, 64
1, 407913, Control_c, 0, 64, 127
1, 408689, Note_off_c, 0, 73, 47
1, 408769, Note_off_c, 0, 65, 40
1, 408794, Note_off_c, 0, 34, 51
1, 408796, Note_off_c, 0, 46, 58
1, 408799, Note_off_c, 0, 70, 53
1, 409029, Note_on_c, 0, 72, 91
1, 409032, Note_on_c, 0, 69, 86
1, 409033, Note_on_c, 0, 65, 93
1, 409044, Note_on_c, 0, 46, 93
1, 409046, Note_on_c, 0, 34, 88
1, 409073, Note_off_c, 0, 46, 56
1, 409093, Note_off_c, 0, 34, 63
1, 409098, Note_off_c, 0, 69, 65
1, 409108, Note_off_c, 0, 65, 60
1, 409120, Note_off_c, 0, 72, 65
1, 409156, Note_on_c, 0, 65, 96
1, 409156, Note_on_c, 0, 73, 95
1, 409160, Note_on_c, 0, 70, 92
1, 409162, Note_on_c, 0, 46, 98
1, 409162, Note_on_c, 0, 34, 91
1, 409189, Control_c, 0, 64, 75
1, 409204, Control_c, 0, 64, 0
1, 409277, Control_c, 0, 64, 53
1, 409292, Control_c, 0, 64, 86
1, 409307, Control_c, 0, 64, 127
1, 410006, Note_off_c, 0, 70, 58
1, 410040, Note_off_c, 0, 73, 58
1, 410080, Note_off_c, 0, 65, 34
1, 410116, Note_off_c, 0, 34, 52
1, 410128, Note_off_c, 0, 46, 54
1, 410371, Note_on_c, 0, 75, 96
1, 410374, Note_on_c, 0, 65, 96
1, 410376, Note_on_c, 0, 72, 92
1, 410389, Note_on_c, 0, 34, 83
1, 410389, Note_on_c, 0, 46, 89
1, 410421, Note_off_c, 0, 46, 59
1, 410429, Note_off_c, 0, 34, 59
1, 410453, Note_off_c, 0, 72, 63
1, 410457, Note_off_c, 0, 65, 58
1, 410463, Note_off_c, 0, 75, 62
1, 410515, Note_on_c, 0, 73, 98
1, 410516, Note_on_c, 0, 65, 97
1, 410517, Note_on_c, 0, 77, 97
1, 410528, Note_on_c, 0, 46, 87
1, 410529, Note_on_c, 0, 34, 82
1, 410583, Control_c, 0, 64, 55
1, 410597, Control_c, 0, 64, 0
1, 410760, Control_c, 0, 64, 26
1, 410775, Control_c, 0, 64, 59
1, 410790, Control_c, 0, 64, 64
1, 410805, Control_c, 0, 64, 68
1, 410820, Control_c, 0, 64, 76
1, 410834, Control_c, 0, 64, 90
1, 410849, Control_c, 0, 64, 127
1, 411306, Note_off_c, 0, 73, 55
1, 411342, Note_off_c, 0, 77, 57
1, 411364, Note_off_c, 0, 65, 51
1, 411429, Note_off_c, 0, 46, 57
1, 411454, Note_off_c, 0, 34, 50
1, 411750, Note_on_c, 0, 65, 103
1, 411750, Note_on_c, 0, 78, 102
1, 411753, Note_on_c, 0, 75, 98
1, 411766, Note_on_c, 0, 45, 74
1, 411767, Note_on_c, 0, 33, 72
1, 411838, Note_off_c, 0, 45, 62
1, 411881, Note_off_c, 0, 65, 54
1, 411886, Note_off_c, 0, 75, 59
1, 411893, Note_off_c, 0, 78, 55
1, 411950, Note_on_c, 0, 77, 98
1, 411952, Note_on_c, 0, 46, 84
1, 411952, Note_on_c, 0, 65, 98
1, 411952, Note_on_c, 0, 73, 92
1, 411954, Note_on_c, 0, 34, 75
1, 411964, Note_off_c, 0, 33, 56
1, 411976, Control_c, 0, 64, 65
1, 411991, Control_c, 0, 64, 0
1, 412081, Control_c, 0, 64, 10
1, 412095, Control_c, 0, 64, 26
1, 412110, Control_c, 0, 64, 24
1, 412125, Control_c, 0, 64, 22
1, 412140, Control_c, 0, 64, 20
1, 412155, Control_c, 0, 64, 19
1, 412169, Control_c, 0, 64, 14
1, 412184, Control_c, 0, 64, 0
1, 412592, Control_c, 0, 64, 68
1, 412607, Control_c, 0, 64, 127
1, 412689, Note_off_c, 0, 77, 58
1, 412718, Note_off_c, 0, 65, 55
1, 412737, Note_off_c, 0, 73, 58
1, 412915, Note_off_c, 0, 46, 59
1, 412989, Note_off_c, 0, 34, 62
1, 413017, Note_on_c, 0, 75, 84
1, 413023, Note_on_c, 0, 33, 75
1, 413023, Note_on_c, 0, 72, 76
1, 413025, Note_on_c, 0, 66, 79
1, 413033, Note_on_c, 0, 45, 62
1, 413056, Note_off_c, 0, 45, 64
1, 413082, Note_off_c, 0, 66, 60
1, 413091, Note_off_c, 0, 72, 63
1, 413131, Note_on_c, 0, 73, 87
1, 413132, Note_on_c, 0, 65, 88
1, 413134, Note_on_c, 0, 34, 73
1, 413134, Note_on_c, 0, 70, 87
1, 413134, Note_off_c, 0, 33, 65
1, 413137, Note_on_c, 0, 46, 79
1, 413146, Note_off_c, 0, 75, 62
1, 413155, Control_c, 0, 64, 69
1, 413170, Control_c, 0, 64, 0
1, 413243, Control_c, 0, 64, 54
1, 413258, Control_c, 0, 64, 82
1, 413273, Control_c, 0, 64, 127
1, 413337, Note_off_c, 0, 70, 62
1, 413354, Note_off_c, 0, 73, 60
1, 413357, Note_off_c, 0, 34, 63
1, 413395, Note_off_c, 0, 46, 61
1, 413405, Note_off_c, 0, 65, 57
1, 413624, Note_on_c, 0, 72, 82
1, 413632, Note_on_c, 0, 63, 81
1, 413633, Note_on_c, 0, 69, 75
1, 413634, Note_on_c, 0, 41, 73
1, 413642, Note_on_c, 0, 53, 62
1, 413671, Note_off_c, 0, 53, 67
1, 413677, Note_off_c, 0, 63, 62
1, 413678, Note_off_c, 0, 41, 62
1, 413712, Note_off_c, 0, 69, 62
1, 413735, Note_on_c, 0, 70, 82
1, 413736, Note_off_c, 0, 72, 60
1, 413751, Note_on_c, 0, 61, 83
1, 413756, Note_on_c, 0, 42, 75
1, 413757, Note_on_c, 0, 54, 67
1, 413771, Control_c, 0, 64, 79
1, 413786, Control_c, 0, 64, 35
1, 413801, Control_c, 0, 64, 0
1, 413904, Control_c, 0, 64, 58
1, 413919, Control_c, 0, 64, 73
1, 413933, Control_c, 0, 64, 94
1, 413948, Control_c, 0, 64, 127
1, 414035, Note_off_c, 0, 54, 60
1, 414069, Note_off_c, 0, 61, 51
1, 414118, Note_off_c, 0, 42, 56
1, 414283, Note_on_c, 0, 72, 80
1, 414299, Note_on_c, 0, 63, 72
1, 414306, Note_on_c, 0, 39, 58
1, 414312, Note_on_c, 0, 51, 59
1, 414325, Note_off_c, 0, 70, 55
1, 414337, Note_off_c, 0, 39, 64
1, 414350, Note_off_c, 0, 51, 61
1, 414355, Note_off_c, 0, 63, 63
1, 414440, Note_on_c, 0, 70, 75
1, 414460, Note_on_c, 0, 61, 61
1, 414460, Control_c, 0, 64, 112
1, 414467, Note_off_c, 0, 72, 62
1, 414475, Control_c, 0, 64, 95
1, 414477, Note_on_c, 0, 41, 41
1, 414479, Note_on_c, 0, 53, 50
1, 414489, Control_c, 0, 64, 83
1, 414504, Control_c, 0, 64, 70
1, 414519, Control_c, 0, 64, 58
1, 414534, Control_c, 0, 64, 0
1, 414697, Control_c, 0, 64, 30
1, 414712, Control_c, 0, 64, 53
1, 414727, Control_c, 0, 64, 60
1, 414742, Control_c, 0, 64, 63
1, 414756, Control_c, 0, 64, 66
1, 414771, Control_c, 0, 64, 68
1, 414793, Control_c, 0, 64, 72
1, 414808, Control_c, 0, 64, 77
1, 414823, Control_c, 0, 64, 83
1, 414838, Control_c, 0, 64, 91
1, 414853, Control_c, 0, 64, 104
1, 414868, Control_c, 0, 64, 127
1, 415050, Note_off_c, 0, 61, 50
1, 415150, Control_c, 0, 64, 119
1, 415165, Control_c, 0, 64, 102
1, 415176, Note_on_c, 0, 69, 56
1, 415179, Control_c, 0, 64, 93
1, 415189, Note_off_c, 0, 70, 34
1, 415194, Control_c, 0, 64, 83
1, 415198, Note_on_c, 0, 60, 42
1, 415209, Control_c, 0, 64, 71
1, 415224, Control_c, 0, 64, 56
1, 415238, Control_c, 0, 64, 0
1, 415327, Control_c, 0, 64, 47
1, 415342, Control_c, 0, 64, 63
1, 415357, Control_c, 0, 64, 68
1, 415372, Control_c, 0, 64, 74
1, 415381, Note_off_c, 0, 60, 62
1, 415387, Control_c, 0, 64, 80
1, 415402, Control_c, 0, 64, 87
1, 415416, Control_c, 0, 64, 93
1, 415431, Control_c, 0, 64, 101
1, 415446, Control_c, 0, 64, 114
1, 415456, Note_off_c, 0, 69, 63
1, 415461, Control_c, 0, 64, 127
1, 415469, Note_off_c, 0, 41, 53
1, 415497, Note_off_c, 0, 53, 60
1, 415571, Control_c, 0, 67, 8
1, 415585, Control_c, 0, 67, 11
1, 415600, Control_c, 0, 67, 14
1, 415615, Control_c, 0, 67, 16
1, 415629, Control_c, 0, 67, 17
1, 415644, Control_c, 0, 67, 18
1, 415659, Control_c, 0, 67, 19
1, 415674, Control_c, 0, 67, 20
1, 415705, Control_c, 0, 67, 21
1, 415720, Control_c, 0, 67, 21
1, 415734, Control_c, 0, 67, 22
1, 415749, Control_c, 0, 64, 119
1, 415749, Control_c, 0, 67, 23
1, 415764, Control_c, 0, 64, 106
1, 415764, Control_c, 0, 67, 24
1, 415779, Control_c, 0, 64, 97
1, 415779, Control_c, 0, 67, 25
1, 415794, Control_c, 0, 64, 87
1, 415794, Control_c, 0, 67, 26
1, 415808, Control_c, 0, 64, 73
1, 415808, Control_c, 0, 67, 27
1, 415823, Control_c, 0, 64, 57
1, 415823, Control_c, 0, 67, 28
1, 415838, Control_c, 0, 64, 0
1, 415838, Control_c, 0, 67, 28
1, 415852, Control_c, 0, 67, 29
1, 415867, Control_c, 0, 67, 30
1, 415882, Control_c, 0, 67, 30
1, 415897, Control_c, 0, 67, 31
1, 415904, Note_on_c, 0, 65, 48
1, 415912, Control_c, 0, 67, 31
1, 415926, Control_c, 0, 64, 53
1, 415926, Control_c, 0, 67, 32
1, 415941, Control_c, 0, 64, 66
1, 415941, Control_c, 0, 67, 34
1, 415952, Note_off_c, 0, 65, 52
1, 415956, Control_c, 0, 64, 74
1, 415956, Control_c, 0, 67, 35
1, 415971, Control_c, 0, 64, 82
1, 415971, Control_c, 0, 67, 36
1, 415986, Control_c, 0, 64, 88
1, 416001, Control_c, 0, 64, 98
1, 416016, Control_c, 0, 64, 127
1, 416020, Note_on_c, 0, 65, 50
1, 416096, Note_off_c, 0, 65, 44
1, 416164, Control_c, 0, 67, 35
1, 416194, Control_c, 0, 67, 35
1, 416206, Note_on_c, 0, 65, 53
1, 416284, Note_off_c, 0, 65, 45
1, 416305, Control_c, 0, 67, 34
1, 416388, Note_on_c, 0, 65, 46
1, 416460, Note_off_c, 0, 65, 45
1, 416573, Note_on_c, 0, 65, 40
1, 416658, Note_off_c, 0, 65, 37
1, 416736, Control_c, 0, 67, 35
1, 416749, Note_on_c, 0, 65, 42
1, 416824, Control_c, 0, 67, 35
1, 416898, Note_off_c, 0, 65, 0
1, 416898, Control_c, 0, 67, 36
1, 416915, Note_on_c, 0, 65, 32
1, 416987, Control_c, 0, 67, 36
1, 417032, Note_off_c, 0, 65, 35
1, 417118, Note_on_c, 0, 65, 29
1, 417227, Note_off_c, 0, 65, 34
1, 417306, Note_on_c, 0, 65, 31
1, 417414, Note_off_c, 0, 65, 34
1, 417488, Note_on_c, 0, 65, 26
1, 417559, Control_c, 0, 67, 36
1, 417610, Note_off_c, 0, 65, 36
1, 417672, Note_on_c, 0, 65, 27
1, 417796, Note_off_c, 0, 65, 42
1, 417894, Note_on_c, 0, 65, 33
1, 417965, Note_off_c, 0, 65, 40
1, 418065, Note_on_c, 0, 65, 22
1, 418069, Control_c, 0, 67, 36
1, 418108, Note_off_c, 0, 65, 46
1, 418115, Control_c, 0, 64, 110
1, 418129, Control_c, 0, 64, 69
1, 418144, Control_c, 0, 64, 53
1, 418155, Note_on_c, 0, 70, 52
1, 418159, Control_c, 0, 64, 39
1, 418174, Control_c, 0, 64, 49
1, 418180, Note_on_c, 0, 65, 17
1, 418183, Note_on_c, 0, 62, 39
1, 418189, Control_c, 0, 64, 56
1, 418204, Control_c, 0, 64, 61
1, 418204, Control_c, 0, 67, 36
1, 418218, Control_c, 0, 64, 65
1, 418233, Control_c, 0, 64, 69
1, 418248, Control_c, 0, 64, 75
1, 418263, Control_c, 0, 64, 79
1, 418278, Control_c, 0, 64, 81
1, 418293, Control_c, 0, 64, 84
1, 418308, Control_c, 0, 64, 88
1, 418313, Note_off_c, 0, 62, 36
1, 418319, Note_off_c, 0, 65, 41
1, 418322, Control_c, 0, 64, 91
1, 418337, Control_c, 0, 64, 92
1, 418367, Control_c, 0, 67, 36
1, 418382, Control_c, 0, 67, 37
1, 418515, Control_c, 0, 67, 37
1, 418537, Control_c, 0, 64, 91
1, 418552, Control_c, 0, 64, 90
1, 418567, Control_c, 0, 64, 89
1, 418582, Control_c, 0, 64, 87
1, 418597, Control_c, 0, 64, 85
1, 418598, Note_on_c, 0, 69, 52
1, 418611, Control_c, 0, 64, 80
1, 418626, Control_c, 0, 64, 75
1, 418626, Control_c, 0, 67, 38
1, 418641, Control_c, 0, 64, 67
1, 418645, Note_on_c, 0, 53, 30
1, 418655, Control_c, 0, 64, 53
1, 418670, Control_c, 0, 64, 0
1, 418675, Note_off_c, 0, 70, 56
1, 418744, Control_c, 0, 64, 34
1, 418759, Control_c, 0, 64, 60
1, 418763, Note_off_c, 0, 53, 59
1, 418773, Control_c, 0, 64, 67
1, 418788, Control_c, 0, 64, 70
1, 418803, Control_c, 0, 64, 73
1, 418818, Control_c, 0, 64, 75
1, 418833, Control_c, 0, 64, 75
1, 418923, Control_c, 0, 67, 38
1, 419005, Note_on_c, 0, 60, 39
1, 419009, Note_on_c, 0, 63, 24
1, 419012, Control_c, 0, 64, 75
1, 419012, Control_c, 0, 67, 39
1, 419026, Control_c, 0, 64, 74
1, 419041, Control_c, 0, 64, 73
1, 419056, Control_c, 0, 64, 72
1, 419065, Note_off_c, 0, 63, 0
1, 419070, Note_off_c, 0, 60, 0
1, 419071, Control_c, 0, 64, 71
1, 419086, Note_on_c, 0, 63, 28
1, 419086, Control_c, 0, 64, 69
1, 419087, Note_on_c, 0, 60, 30
1, 419101, Control_c, 0, 64, 67
1, 419116, Control_c, 0, 64, 65
1, 419131, Control_c, 0, 64, 64
1, 419136, Note_off_c, 0, 60, 53
1, 419143, Note_off_c, 0, 63, 43
1, 419145, Control_c, 0, 64, 64
1, 419145, Control_c, 0, 67, 41
1, 419160, Control_c, 0, 64, 63
1, 419160, Control_c, 0, 67, 44
1, 419175, Control_c, 0, 64, 62
1, 419175, Control_c, 0, 67, 46
1, 419189, Control_c, 0, 64, 60
1, 419189, Control_c, 0, 67, 48
1, 419204, Control_c, 0, 64, 57
1, 419204, Control_c, 0, 67, 49
1, 419219, Control_c, 0, 64, 53
1, 419219, Control_c, 0, 67, 50
1, 419234, Control_c, 0, 64, 50
1, 419234, Control_c, 0, 67, 50
1, 419249, Control_c, 0, 64, 45
1, 419249, Control_c, 0, 67, 51
1, 419271, Control_c, 0, 64, 34
1, 419286, Control_c, 0, 64, 0
1, 419345, Control_c, 0, 67, 51
1, 419366, Note_on_c, 0, 67, 53
1, 419396, Note_on_c, 0, 53, 34
1, 419403, Note_off_c, 0, 69, 55
1, 419404, Control_c, 0, 67, 52
1, 419434, Control_c, 0, 64, 50
1, 419449, Control_c, 0, 64, 62
1, 419464, Control_c, 0, 64, 64
1, 419464, Control_c, 0, 67, 52
1, 419478, Control_c, 0, 64, 66
1, 419478, Control_c, 0, 67, 53
1, 419493, Control_c, 0, 64, 68
1, 419493, Control_c, 0, 67, 54
1, 419508, Control_c, 0, 64, 70
1, 419508, Control_c, 0, 67, 54
1, 419523, Control_c, 0, 64, 71
1, 419538, Control_c, 0, 67, 55
1, 419571, Note_off_c, 0, 53, 38
1, 419596, Control_c, 0, 67, 55
1, 419611, Control_c, 0, 67, 56
1, 419626, Control_c, 0, 67, 57
1, 419641, Control_c, 0, 67, 58
1, 419656, Control_c, 0, 67, 58
1, 419670, Control_c, 0, 64, 71
1, 419701, Control_c, 0, 64, 70
1, 419701, Control_c, 0, 67, 59
1, 419716, Control_c, 0, 64, 70
1, 419726, Note_on_c, 0, 58, 34
1, 419729, Note_on_c, 0, 62, 29
1, 419731, Control_c, 0, 64, 69
1, 419746, Control_c, 0, 64, 69
1, 419760, Note_off_c, 0, 58, 51
1, 419761, Control_c, 0, 64, 68
1, 419774, Note_off_c, 0, 62, 44
1, 419775, Control_c, 0, 64, 68
1, 419790, Control_c, 0, 64, 67
1, 419805, Control_c, 0, 64, 67
1, 419819, Control_c, 0, 64, 66
1, 419833, Note_on_c, 0, 62, 34
1, 419834, Control_c, 0, 64, 66
1, 419837, Note_on_c, 0, 79, 71
1, 419849, Control_c, 0, 64, 65
1, 419850, Note_on_c, 0, 58, 39
1, 419864, Control_c, 0, 64, 65
1, 419864, Control_c, 0, 67, 59
1, 419879, Control_c, 0, 64, 64
1, 419885, Note_off_c, 0, 58, 51
1, 419894, Control_c, 0, 64, 64
1, 419900, Note_off_c, 0, 62, 40
1, 419909, Control_c, 0, 64, 63
1, 419909, Control_c, 0, 67, 60
1, 419915, Note_off_c, 0, 67, 38
1, 419924, Control_c, 0, 64, 63
1, 419938, Control_c, 0, 64, 62
1, 419953, Control_c, 0, 64, 61
1, 419968, Control_c, 0, 64, 57
1, 419983, Control_c, 0, 64, 45
1, 419998, Control_c, 0, 64, 0
1, 420034, Control_c, 0, 67, 59
1, 420049, Control_c, 0, 67, 59
1, 420064, Control_c, 0, 67, 58
1, 420079, Control_c, 0, 67, 58
1, 420099, Note_on_c, 0, 77, 71
1, 420108, Note_off_c, 0, 79, 61
1, 420108, Control_c, 0, 64, 18
1, 420123, Control_c, 0, 64, 57
1, 420123, Control_c, 0, 67, 57
1, 420131, Note_on_c, 0, 53, 42
1, 420138, Note_on_c, 0, 65, 36
1, 420138, Control_c, 0, 64, 64
1, 420168, Note_off_c, 0, 65, 52
1, 420189, Note_off_c, 0, 53, 57
1, 420242, Control_c, 0, 64, 64
1, 420257, Control_c, 0, 67, 58
1, 420272, Control_c, 0, 64, 63
1, 420287, Control_c, 0, 64, 63
1, 420301, Control_c, 0, 64, 62
1, 420316, Control_c, 0, 64, 62
1, 420321, Note_on_c, 0, 69, 61
1, 420331, Control_c, 0, 64, 61
1, 420341, Note_on_c, 0, 60, 47
1, 420342, Note_on_c, 0, 57, 47
1, 420346, Control_c, 0, 64, 61
1, 420360, Control_c, 0, 64, 60
1, 420367, Note_off_c, 0, 69, 57
1, 420373, Note_off_c, 0, 60, 58
1, 420375, Control_c, 0, 64, 59
1, 420382, Note_off_c, 0, 57, 52
1, 420390, Control_c, 0, 64, 58
1, 420420, Control_c, 0, 64, 58
1, 420434, Control_c, 0, 64, 57
1, 420449, Control_c, 0, 64, 57
1, 420464, Control_c, 0, 64, 56
1, 420495, Control_c, 0, 64, 56
1, 420505, Note_on_c, 0, 70, 63
1, 420511, Note_on_c, 0, 57, 46
1, 420512, Note_on_c, 0, 60, 44
1, 420524, Control_c, 0, 64, 55
1, 420539, Control_c, 0, 64, 55
1, 420547, Note_off_c, 0, 60, 62
1, 420554, Control_c, 0, 64, 54
1, 420562, Note_off_c, 0, 57, 54
1, 420575, Note_off_c, 0, 70, 56
1, 420584, Control_c, 0, 67, 58
1, 420598, Control_c, 0, 64, 54
1, 420613, Control_c, 0, 64, 47
1, 420618, Note_off_c, 0, 77, 46
1, 420628, Control_c, 0, 64, 0
1, 420705, Note_on_c, 0, 72, 59
1, 420716, Note_on_c, 0, 51, 49
1, 420719, Note_on_c, 0, 65, 55
1, 420731, Control_c, 0, 64, 12
1, 420746, Control_c, 0, 64, 42
1, 420761, Control_c, 0, 64, 44
1, 420784, Control_c, 0, 64, 44
1, 420785, Note_off_c, 0, 72, 62
1, 420791, Note_off_c, 0, 51, 52
1, 420798, Control_c, 0, 64, 44
1, 420843, Control_c, 0, 64, 44
1, 420857, Control_c, 0, 64, 43
1, 420872, Control_c, 0, 64, 43
1, 420902, Control_c, 0, 64, 42
1, 420907, Note_on_c, 0, 74, 58
1, 420914, Note_on_c, 0, 60, 46
1, 420917, Note_on_c, 0, 57, 44
1, 420922, Note_on_c, 0, 53, 40
1, 420936, Note_off_c, 0, 74, 65
1, 420946, Control_c, 0, 67, 58
1, 420954, Note_off_c, 0, 57, 53
1, 420955, Note_off_c, 0, 60, 56
1, 420961, Control_c, 0, 64, 42
1, 420967, Note_off_c, 0, 53, 48
1, 420991, Control_c, 0, 64, 41
1, 421021, Control_c, 0, 67, 57
1, 421065, Control_c, 0, 67, 57
1, 421073, Note_on_c, 0, 75, 71
1, 421078, Note_on_c, 0, 57, 45
1, 421080, Control_c, 0, 64, 41
1, 421089, Note_on_c, 0, 60, 45
1, 421095, Note_on_c, 0, 53, 42
1, 421113, Note_off_c, 0, 75, 58
1, 421122, Note_off_c, 0, 60, 56
1, 421125, Note_off_c, 0, 57, 58
1, 421128, Note_off_c, 0, 53, 55
1, 421139, Control_c, 0, 67, 56
1, 421154, Control_c, 0, 67, 56
1, 421168, Control_c, 0, 64, 39
1, 421183, Control_c, 0, 64, 32
1, 421198, Control_c, 0, 64, 0
1, 421198, Control_c, 0, 67, 55
1, 421213, Control_c, 0, 67, 55
1, 421228, Control_c, 0, 67, 54
1, 421242, Control_c, 0, 67, 54
1, 421267, Note_on_c, 0, 77, 75
1, 421279, Note_on_c, 0, 50, 48
1, 421280, Note_on_c, 0, 70, 60
1, 421296, Note_off_c, 0, 65, 41
1, 421318, Control_c, 0, 64, 40
1, 421333, Control_c, 0, 64, 47
1, 421338, Note_off_c, 0, 70, 53
1, 421342, Note_off_c, 0, 50, 56
1, 421347, Control_c, 0, 64, 46
1, 421407, Control_c, 0, 64, 46
1, 421451, Note_on_c, 0, 74, 67
1, 421456, Note_on_c, 0, 62, 54
1, 421458, Note_on_c, 0, 53, 51
1, 421462, Note_on_c, 0, 58, 50
1, 421465, Control_c, 0, 64, 46
1, 421480, Control_c, 0, 67, 54
1, 421488, Note_off_c, 0, 62, 54
1, 421496, Note_off_c, 0, 58, 58
1, 421503, Note_off_c, 0, 53, 63
1, 421527, Note_off_c, 0, 74, 62
1, 421533, Control_c, 0, 67, 55
1, 421577, Control_c, 0, 64, 46
1, 421617, Note_off_c, 0, 77, 55
1, 421621, Control_c, 0, 67, 55
1, 421626, Note_on_c, 0, 75, 64
1, 421628, Note_on_c, 0, 58, 48
1, 421635, Note_on_c, 0, 62, 54
1, 421636, Control_c, 0, 64, 45
1, 421636, Control_c, 0, 67, 56
1, 421644, Note_on_c, 0, 53, 47
1, 421651, Control_c, 0, 64, 44
1, 421666, Control_c, 0, 64, 43
1, 421666, Control_c, 0, 67, 56
1, 421674, Note_off_c, 0, 75, 66
1, 421675, Note_off_c, 0, 58, 58
1, 421675, Note_off_c, 0, 62, 58
1, 421680, Control_c, 0, 64, 43
1, 421680, Control_c, 0, 67, 57
1, 421694, Note_off_c, 0, 53, 60
1, 421695, Control_c, 0, 64, 41
1, 421710, Control_c, 0, 64, 40
1, 421710, Control_c, 0, 67, 57
1, 421725, Control_c, 0, 64, 38
1, 421725, Control_c, 0, 67, 58
1, 421740, Control_c, 0, 64, 36
1, 421754, Control_c, 0, 64, 33
1, 421754, Control_c, 0, 67, 58
1, 421769, Control_c, 0, 64, 26
1, 421769, Control_c, 0, 67, 59
1, 421784, Control_c, 0, 64, 18
1, 421799, Control_c, 0, 64, 0
1, 421799, Control_c, 0, 67, 59
1, 421828, Note_on_c, 0, 75, 67
1, 421829, Note_on_c, 0, 48, 52
1, 421833, Note_on_c, 0, 77, 57
1, 421843, Control_c, 0, 67, 60
1, 421855, Note_off_c, 0, 48, 57
1, 421885, Note_off_c, 0, 77, 55
1, 421888, Control_c, 0, 67, 60
1, 421918, Control_c, 0, 67, 61
1, 421947, Control_c, 0, 67, 66
1, 421962, Control_c, 0, 67, 71
1, 421977, Control_c, 0, 67, 75
1, 421991, Control_c, 0, 67, 77
1, 422006, Control_c, 0, 67, 79
1, 422021, Control_c, 0, 67, 80
1, 422025, Note_on_c, 0, 63, 52
1, 422025, Note_on_c, 0, 79, 61
1, 422036, Control_c, 0, 67, 83
1, 422043, Note_on_c, 0, 53, 33
1, 422051, Control_c, 0, 67, 87
1, 422053, Note_on_c, 0, 57, 32
1, 422063, Note_off_c, 0, 63, 52
1, 422066, Control_c, 0, 67, 91
1, 422080, Control_c, 0, 67, 95
1, 422085, Note_off_c, 0, 57, 52
1, 422087, Note_off_c, 0, 53, 48
1, 422089, Note_off_c, 0, 79, 54
1, 422096, Control_c, 0, 67, 98
1, 422111, Control_c, 0, 67, 101
1, 422126, Control_c, 0, 67, 103
1, 422141, Control_c, 0, 67, 106
1, 422156, Control_c, 0, 67, 107
1, 422170, Control_c, 0, 67, 109
1, 422185, Control_c, 0, 67, 112
1, 422200, Control_c, 0, 67, 115
1, 422210, Note_on_c, 0, 81, 55
1, 422214, Control_c, 0, 67, 119
1, 422216, Note_on_c, 0, 53, 49
1, 422217, Note_on_c, 0, 63, 42
1, 422219, Note_on_c, 0, 57, 20
1, 422223, Note_off_c, 0, 75, 64
1, 422229, Control_c, 0, 67, 124
1, 422244, Control_c, 0, 67, 127
1, 422255, Note_off_c, 0, 57, 55
1, 422255, Note_off_c, 0, 63, 62
1, 422272, Note_off_c, 0, 81, 56
1, 422287, Note_off_c, 0, 53, 64
1, 422388, Note_on_c, 0, 81, 53
1, 422444, Note_off_c, 0, 81, 50
1, 422455, Note_on_c, 0, 46, 35
1, 422489, Control_c, 0, 64, 29
1, 422492, Note_on_c, 0, 84, 67
1, 422503, Control_c, 0, 64, 38
1, 422505, Note_off_c, 0, 46, 61
1, 422518, Control_c, 0, 64, 40
1, 422529, Note_on_c, 0, 74, 30
1, 422533, Control_c, 0, 64, 40
1, 422548, Control_c, 0, 64, 39
1, 422563, Control_c, 0, 64, 39
1, 422577, Control_c, 0, 64, 38
1, 422592, Control_c, 0, 64, 37
1, 422607, Control_c, 0, 64, 37
1, 422621, Control_c, 0, 64, 36
1, 422651, Control_c, 0, 64, 36
1, 422681, Control_c, 0, 64, 35
1, 422722, Note_on_c, 0, 62, 43
1, 422728, Note_on_c, 0, 58, 41
1, 422733, Note_on_c, 0, 53, 39
1, 422761, Note_off_c, 0, 58, 58
1, 422770, Note_off_c, 0, 62, 44
1, 422780, Note_off_c, 0, 53, 49
1, 422859, Control_c, 0, 64, 36
1, 422874, Control_c, 0, 64, 36
1, 422892, Note_on_c, 0, 58, 37
1, 422897, Note_on_c, 0, 53, 47
1, 422898, Note_on_c, 0, 62, 43
1, 422904, Control_c, 0, 64, 37
1, 422919, Control_c, 0, 64, 38
1, 422940, Note_off_c, 0, 58, 58
1, 422946, Note_off_c, 0, 62, 44
1, 422951, Note_off_c, 0, 53, 59
1, 422964, Control_c, 0, 64, 38
1, 423031, Control_c, 0, 64, 39
1, 423045, Control_c, 0, 64, 39
1, 423074, Note_on_c, 0, 82, 62
1, 423084, Note_on_c, 0, 58, 46
1, 423089, Note_on_c, 0, 53, 51
1, 423090, Control_c, 0, 64, 40
1, 423095, Note_off_c, 0, 84, 62
1, 423104, Note_on_c, 0, 62, 38
1, 423105, Control_c, 0, 64, 41
1, 423115, Note_off_c, 0, 53, 64
1, 423115, Note_off_c, 0, 58, 65
1, 423134, Control_c, 0, 64, 41
1, 423156, Note_off_c, 0, 82, 64
1, 423177, Note_off_c, 0, 62, 53
1, 423244, Note_off_c, 0, 74, 57
1, 423247, Note_on_c, 0, 65, 64
1, 423288, Note_off_c, 0, 65, 60
1, 423342, Control_c, 0, 64, 40
1, 423357, Control_c, 0, 64, 38
1, 423371, Control_c, 0, 64, 34
1, 423386, Control_c, 0, 64, 31
1, 423394, Note_on_c, 0, 82, 80
1, 423401, Control_c, 0, 64, 30
1, 423413, Note_on_c, 0, 74, 62
1, 423416, Control_c, 0, 64, 33
1, 423425, Note_on_c, 0, 65, 58
1, 423431, Control_c, 0, 64, 36
1, 423446, Control_c, 0, 64, 40
1, 423460, Control_c, 0, 64, 43
1, 423471, Note_off_c, 0, 65, 59
1, 423475, Control_c, 0, 64, 44
1, 423519, Control_c, 0, 64, 44
1, 423563, Control_c, 0, 64, 44
1, 423578, Control_c, 0, 64, 43
1, 423583, Note_off_c, 0, 82, 64
1, 423608, Control_c, 0, 64, 43
1, 423633, Note_on_c, 0, 81, 75
1, 423638, Control_c, 0, 64, 42
1, 423650, Note_on_c, 0, 72, 63
1, 423653, Control_c, 0, 64, 41
1, 423653, Note_on_c, 0, 65, 50
1, 423668, Control_c, 0, 64, 40
1, 423682, Control_c, 0, 64, 39
1, 423693, Note_off_c, 0, 74, 61
1, 423698, Control_c, 0, 64, 38
1, 423713, Control_c, 0, 64, 37
1, 423728, Control_c, 0, 64, 36
1, 423742, Control_c, 0, 64, 35
1, 423757, Control_c, 0, 64, 34
1, 423760, Note_off_c, 0, 65, 44
1, 423793, Control_c, 0, 64, 33
1, 423808, Control_c, 0, 64, 32
1, 423823, Control_c, 0, 64, 31
1, 423838, Control_c, 0, 64, 30
1, 423842, Note_on_c, 0, 53, 47
1, 423853, Control_c, 0, 64, 29
1, 423867, Control_c, 0, 64, 29
1, 423882, Control_c, 0, 64, 28
1, 423891, Note_off_c, 0, 53, 62
1, 423912, Control_c, 0, 64, 28
1, 424013, Note_on_c, 0, 53, 52
1, 424017, Note_off_c, 0, 72, 63
1, 424046, Control_c, 0, 64, 28
1, 424058, Note_off_c, 0, 53, 61
1, 424075, Control_c, 0, 64, 29
1, 424190, Note_on_c, 0, 79, 61
1, 424191, Note_on_c, 0, 53, 48
1, 424209, Note_off_c, 0, 81, 57
1, 424211, Note_on_c, 0, 69, 42
1, 424231, Note_off_c, 0, 53, 63
1, 424341, Control_c, 0, 64, 29
1, 424356, Control_c, 0, 64, 30
1, 424372, Note_on_c, 0, 53, 45
1, 424401, Control_c, 0, 64, 31
1, 424406, Note_off_c, 0, 53, 66
1, 424446, Control_c, 0, 64, 31
1, 424460, Control_c, 0, 64, 32
1, 424475, Control_c, 0, 64, 32
1, 424490, Control_c, 0, 64, 33
1, 424505, Control_c, 0, 64, 33
1, 424528, Control_c, 0, 64, 34
1, 424572, Control_c, 0, 64, 34
1, 424580, Note_off_c, 0, 69, 63
1, 424587, Control_c, 0, 64, 35
1, 424590, Note_on_c, 0, 63, 51
1, 424760, Note_off_c, 0, 79, 56
1, 424814, Note_on_c, 0, 62, 54
1, 424818, Note_on_c, 0, 77, 49
1, 424826, Note_on_c, 0, 70, 36
1, 424839, Control_c, 0, 64, 35
1, 424879, Note_off_c, 0, 70, 61
1, 424892, Note_off_c, 0, 63, 52
1, 424900, Note_off_c, 0, 77, 55
1, 425018, Note_on_c, 0, 81, 54
1, 425029, Note_on_c, 0, 65, 48
1, 425046, Control_c, 0, 64, 36
1, 425057, Note_off_c, 0, 81, 60
1, 425063, Note_off_c, 0, 65, 58
1, 425188, Note_on_c, 0, 82, 63
1, 425194, Control_c, 0, 64, 36
1, 425215, Note_on_c, 0, 65, 38
1, 425243, Note_off_c, 0, 65, 57
1, 425255, Note_off_c, 0, 82, 58
1, 425276, Control_c, 0, 67, 126
1, 425292, Control_c, 0, 67, 124
1, 425307, Control_c, 0, 67, 123
1, 425321, Control_c, 0, 67, 122
1, 425336, Control_c, 0, 67, 121
1, 425351, Control_c, 0, 67, 120
1, 425366, Control_c, 0, 67, 118
1, 425381, Control_c, 0, 67, 116
1, 425395, Control_c, 0, 67, 115
1, 425398, Note_off_c, 0, 62, 53
1, 425399, Note_on_c, 0, 84, 61
1, 425406, Note_on_c, 0, 65, 34
1, 425407, Note_on_c, 0, 81, 53
1, 425410, Control_c, 0, 67, 113
1, 425415, Note_on_c, 0, 60, 47
1, 425425, Control_c, 0, 67, 111
1, 425439, Control_c, 0, 67, 110
1, 425452, Note_off_c, 0, 65, 50
1, 425454, Control_c, 0, 67, 109
1, 425457, Note_off_c, 0, 84, 62
1, 425469, Control_c, 0, 67, 108
1, 425484, Control_c, 0, 67, 108
1, 425499, Control_c, 0, 67, 107
1, 425513, Control_c, 0, 67, 107
1, 425528, Control_c, 0, 67, 106
1, 425543, Control_c, 0, 67, 105
1, 425558, Control_c, 0, 67, 104
1, 425572, Control_c, 0, 67, 102
1, 425587, Control_c, 0, 67, 101
1, 425598, Note_on_c, 0, 86, 59
1, 425602, Control_c, 0, 64, 37
1, 425602, Control_c, 0, 67, 101
1, 425611, Note_on_c, 0, 65, 45
1, 425617, Control_c, 0, 64, 37
1, 425617, Control_c, 0, 67, 100
1, 425632, Control_c, 0, 67, 100
1, 425647, Control_c, 0, 67, 99
1, 425649, Note_off_c, 0, 65, 55
1, 425662, Control_c, 0, 67, 99
1, 425662, Note_off_c, 0, 86, 59
1, 425677, Control_c, 0, 67, 98
1, 425692, Control_c, 0, 67, 96
1, 425706, Control_c, 0, 67, 95
1, 425721, Control_c, 0, 67, 94
1, 425736, Control_c, 0, 67, 93
1, 425751, Control_c, 0, 67, 92
1, 425765, Control_c, 0, 67, 92
1, 425772, Note_on_c, 0, 87, 61
1, 425780, Control_c, 0, 67, 91
1, 425782, Note_on_c, 0, 65, 39
1, 425795, Control_c, 0, 64, 38
1, 425795, Control_c, 0, 67, 90
1, 425825, Control_c, 0, 67, 90
1, 425832, Note_off_c, 0, 65, 46
1, 425838, Note_off_c, 0, 81, 51
1, 425852, Note_off_c, 0, 87, 56
1, 425884, Control_c, 0, 64, 37
1, 425899, Control_c, 0, 64, 33
1, 425899, Control_c, 0, 67, 89
1, 425913, Control_c, 0, 64, 12
1, 425928, Control_c, 0, 64, 0
1, 425943, Control_c, 0, 67, 89
1, 425972, Note_on_c, 0, 86, 56
1, 425975, Note_off_c, 0, 60, 55
1, 425986, Note_on_c, 0, 65, 34
1, 425987, Note_on_c, 0, 58, 42
1, 425993, Note_on_c, 0, 82, 36
1, 426002, Control_c, 0, 67, 88
1, 426025, Control_c, 0, 67, 86
1, 426039, Control_c, 0, 64, 40
1, 426039, Control_c, 0, 67, 85
1, 426054, Control_c, 0, 64, 46
1, 426054, Control_c, 0, 67, 83
1, 426061, Note_off_c, 0, 82, 54
1, 426069, Control_c, 0, 64, 46
1, 426069, Control_c, 0, 67, 82
1, 426084, Control_c, 0, 64, 48
1, 426084, Control_c, 0, 67, 79
1, 426100, Control_c, 0, 64, 50
1, 426100, Control_c, 0, 67, 77
1, 426115, Control_c, 0, 64, 54
1, 426115, Control_c, 0, 67, 75
1, 426130, Control_c, 0, 64, 59
1, 426130, Control_c, 0, 67, 73
1, 426144, Control_c, 0, 64, 62
1, 426144, Control_c, 0, 67, 72
1, 426159, Control_c, 0, 67, 71
1, 426171, Note_on_c, 0, 82, 57
1, 426174, Control_c, 0, 64, 62
1, 426174, Control_c, 0, 67, 70
1, 426175, Note_on_c, 0, 62, 58
1, 426188, Control_c, 0, 64, 63
1, 426188, Control_c, 0, 67, 69
1, 426203, Control_c, 0, 64, 63
1, 426203, Control_c, 0, 67, 68
1, 426218, Control_c, 0, 67, 67
1, 426233, Note_off_c, 0, 82, 60
1, 426233, Control_c, 0, 67, 66
1, 426248, Control_c, 0, 67, 65
1, 426262, Control_c, 0, 67, 65
1, 426277, Control_c, 0, 67, 64
1, 426279, Note_off_c, 0, 58, 37
1, 426282, Note_off_c, 0, 65, 43
1, 426292, Control_c, 0, 67, 62
1, 426307, Control_c, 0, 67, 61
1, 426322, Control_c, 0, 67, 58
1, 426336, Control_c, 0, 67, 56
1, 426350, Note_off_c, 0, 86, 62
1, 426351, Control_c, 0, 67, 53
1, 426355, Note_on_c, 0, 82, 51
1, 426363, Note_on_c, 0, 63, 73
1, 426366, Control_c, 0, 67, 52
1, 426380, Note_off_c, 0, 82, 65
1, 426381, Control_c, 0, 67, 49
1, 426395, Control_c, 0, 67, 47
1, 426410, Control_c, 0, 67, 46
1, 426425, Control_c, 0, 67, 44
1, 426434, Note_off_c, 0, 62, 54
1, 426440, Control_c, 0, 67, 43
1, 426455, Control_c, 0, 67, 41
1, 426470, Control_c, 0, 67, 39
1, 426485, Control_c, 0, 67, 37
1, 426499, Control_c, 0, 67, 35
1, 426514, Control_c, 0, 64, 62
1, 426514, Control_c, 0, 67, 33
1, 426529, Control_c, 0, 64, 58
1, 426529, Control_c, 0, 67, 31
1, 426544, Control_c, 0, 64, 33
1, 426544, Control_c, 0, 67, 29
1, 426557, Note_on_c, 0, 94, 79
1, 426559, Control_c, 0, 64, 0
1, 426559, Control_c, 0, 67, 26
1, 426574, Control_c, 0, 67, 24
1, 426586, Note_on_c, 0, 86, 57
1, 426588, Note_on_c, 0, 65, 56
1, 426588, Control_c, 0, 67, 21
1, 426590, Note_on_c, 0, 82, 47
1, 426603, Control_c, 0, 67, 19
1, 426614, Note_off_c, 0, 63, 62
1, 426618, Control_c, 0, 64, 8
1, 426618, Control_c, 0, 67, 16
1, 426633, Control_c, 0, 64, 47
1, 426633, Control_c, 0, 67, 13
1, 426648, Control_c, 0, 64, 59
1, 426648, Control_c, 0, 67, 9
1, 426654, Note_off_c, 0, 82, 58
1, 426662, Control_c, 0, 64, 61
1, 426662, Control_c, 0, 67, 0
1, 426692, Control_c, 0, 64, 61
1, 426736, Control_c, 0, 64, 62
1, 426774, Control_c, 0, 64, 62
1, 426783, Note_on_c, 0, 82, 64
1, 426789, Control_c, 0, 64, 63
1, 426789, Note_on_c, 0, 67, 59
1, 426818, Control_c, 0, 64, 63
1, 426843, Note_off_c, 0, 65, 54
1, 426848, Control_c, 0, 64, 64
1, 426850, Note_off_c, 0, 82, 62
1, 426863, Control_c, 0, 64, 64
1, 426893, Control_c, 0, 64, 65
1, 426923, Control_c, 0, 64, 65
1, 426938, Control_c, 0, 64, 66
1, 426953, Control_c, 0, 64, 66
1, 426967, Control_c, 0, 64, 67
1, 426972, Note_on_c, 0, 82, 65
1, 426977, Note_on_c, 0, 68, 68
1, 426997, Control_c, 0, 64, 68
1, 427012, Note_off_c, 0, 67, 55
1, 427012, Control_c, 0, 64, 68
1, 427032, Note_off_c, 0, 86, 57
1, 427042, Control_c, 0, 64, 69
1, 427096, Note_off_c, 0, 94, 53
1, 427098, Note_off_c, 0, 82, 57
1, 427160, Control_c, 0, 64, 68
1, 427205, Control_c, 0, 64, 68
1, 427219, Control_c, 0, 64, 67
1, 427234, Control_c, 0, 64, 67
1, 427261, Note_on_c, 0, 94, 78
1, 427264, Control_c, 0, 64, 66
1, 427279, Control_c, 0, 64, 65
1, 427285, Note_on_c, 0, 87, 54
1, 427289, Note_on_c, 0, 67, 55
1, 427293, Control_c, 0, 64, 64
1, 427304, Note_on_c, 0, 82, 40
1, 427308, Control_c, 0, 64, 60
1, 427309, Note_off_c, 0, 68, 53
1, 427323, Control_c, 0, 64, 48
1, 427337, Control_c, 0, 64, 0
1, 427441, Control_c, 0, 64, 49
1, 427456, Control_c, 0, 64, 61
1, 427471, Control_c, 0, 64, 64
1, 427486, Control_c, 0, 64, 64
1, 427501, Control_c, 0, 64, 65
1, 427523, Note_on_c, 0, 91, 72
1, 427523, Control_c, 0, 64, 67
1, 427537, Control_c, 0, 64, 69
1, 427552, Control_c, 0, 64, 71
1, 427562, Note_on_c, 0, 75, 44
1, 427567, Control_c, 0, 64, 73
1, 427579, Note_off_c, 0, 87, 36
1, 427582, Control_c, 0, 64, 75
1, 427597, Control_c, 0, 64, 77
1, 427608, Note_off_c, 0, 75, 59
1, 427612, Control_c, 0, 64, 81
1, 427619, Note_off_c, 0, 94, 62
1, 427626, Control_c, 0, 64, 84
1, 427641, Control_c, 0, 64, 85
1, 427652, Note_off_c, 0, 82, 55
1, 427656, Control_c, 0, 64, 86
1, 427671, Control_c, 0, 64, 87
1, 427702, Control_c, 0, 64, 87
1, 427721, Note_off_c, 0, 67, 62
1, 427727, Note_on_c, 0, 87, 65
1, 427752, Note_on_c, 0, 75, 50
1, 427760, Note_off_c, 0, 91, 57
1, 427805, Control_c, 0, 67, 9
1, 427820, Control_c, 0, 67, 13
1, 427835, Control_c, 0, 67, 16
1, 427850, Control_c, 0, 67, 19
1, 427865, Control_c, 0, 67, 22
1, 427880, Control_c, 0, 67, 24
1, 427894, Control_c, 0, 67, 25
1, 427909, Control_c, 0, 67, 26
1, 427916, Note_off_c, 0, 87, 53
1, 427935, Note_on_c, 0, 86, 59
1, 427939, Control_c, 0, 67, 27
1, 427954, Control_c, 0, 67, 27
1, 427968, Control_c, 0, 64, 87
1, 427968, Control_c, 0, 67, 28
1, 427981, Note_on_c, 0, 72, 36
1, 427983, Control_c, 0, 67, 29
1, 427993, Note_on_c, 0, 68, 44
1, 427998, Control_c, 0, 67, 30
1, 428013, Control_c, 0, 67, 31
1, 428018, Note_off_c, 0, 75, 31
1, 428028, Control_c, 0, 67, 34
1, 428042, Control_c, 0, 64, 86
1, 428042, Control_c, 0, 67, 37
1, 428057, Control_c, 0, 67, 39
1, 428067, Note_on_c, 0, 87, 58
1, 428072, Control_c, 0, 64, 86
1, 428072, Control_c, 0, 67, 41
1, 428078, Note_off_c, 0, 86, 54
1, 428087, Control_c, 0, 64, 85
1, 428087, Control_c, 0, 67, 43
1, 428102, Control_c, 0, 64, 85
1, 428102, Control_c, 0, 67, 44
1, 428116, Control_c, 0, 64, 84
1, 428116, Control_c, 0, 67, 45
1, 428131, Control_c, 0, 64, 83
1, 428131, Control_c, 0, 67, 45
1, 428146, Control_c, 0, 64, 81
1, 428146, Control_c, 0, 67, 47
1, 428160, Control_c, 0, 64, 78
1, 428160, Control_c, 0, 67, 48
1, 428172, Note_off_c, 0, 87, 63
1, 428175, Control_c, 0, 64, 73
1, 428175, Control_c, 0, 67, 51
1, 428187, Note_on_c, 0, 89, 61
1, 428190, Control_c, 0, 64, 68
1, 428190, Control_c, 0, 67, 53
1, 428205, Control_c, 0, 64, 67
1, 428205, Control_c, 0, 67, 56
1, 428220, Control_c, 0, 67, 58
1, 428232, Note_on_c, 0, 75, 46
1, 428234, Control_c, 0, 67, 59
1, 428249, Control_c, 0, 67, 61
1, 428270, Control_c, 0, 64, 67
1, 428270, Control_c, 0, 67, 62
1, 428281, Note_off_c, 0, 89, 62
1, 428285, Control_c, 0, 64, 68
1, 428285, Control_c, 0, 67, 64
1, 428297, Note_on_c, 0, 87, 57
1, 428300, Control_c, 0, 67, 66
1, 428309, Note_off_c, 0, 75, 59
1, 428315, Control_c, 0, 67, 67
1, 428330, Control_c, 0, 67, 70
1, 428345, Control_c, 0, 67, 73
1, 428359, Control_c, 0, 64, 68
1, 428359, Control_c, 0, 67, 76
1, 428374, Note_off_c, 0, 87, 58
1, 428374, Control_c, 0, 67, 81
1, 428383, Note_on_c, 0, 86, 50
1, 428389, Control_c, 0, 67, 86
1, 428404, Control_c, 0, 64, 69
1, 428404, Control_c, 0, 67, 94
1, 428405, Note_off_c, 0, 86, 62
1, 428419, Control_c, 0, 67, 101
1, 428433, Control_c, 0, 64, 69
1, 428433, Control_c, 0, 67, 109
1, 428442, Note_on_c, 0, 84, 55
1, 428448, Control_c, 0, 67, 116
1, 428449, Note_on_c, 0, 75, 49
1, 428463, Control_c, 0, 64, 70
1, 428463, Control_c, 0, 67, 124
1, 428479, Control_c, 0, 67, 127
1, 428496, Note_off_c, 0, 75, 46
1, 428497, Note_off_c, 0, 84, 43
1, 428509, Control_c, 0, 64, 70
1, 428525, Note_on_c, 0, 82, 53
1, 428589, Note_off_c, 0, 72, 41
1, 428601, Note_on_c, 0, 80, 54
1, 428643, Note_off_c, 0, 68, 36
1, 428685, Note_off_c, 0, 82, 28
1, 428701, Control_c, 0, 64, 70
1, 428716, Control_c, 0, 64, 69
1, 428730, Control_c, 0, 64, 68
1, 428745, Control_c, 0, 64, 67
1, 428760, Control_c, 0, 64, 66
1, 428766, Note_on_c, 0, 79, 54
1, 428775, Control_c, 0, 64, 65
1, 428783, Note_off_c, 0, 80, 60
1, 428789, Note_on_c, 0, 70, 34
1, 428789, Control_c, 0, 64, 64
1, 428804, Control_c, 0, 64, 63
1, 428810, Note_on_c, 0, 75, 34
1, 428819, Control_c, 0, 64, 60
1, 428834, Control_c, 0, 64, 56
1, 428849, Control_c, 0, 64, 50
1, 428863, Control_c, 0, 64, 45
1, 428878, Control_c, 0, 64, 39
1, 428893, Control_c, 0, 64, 22
1, 428908, Control_c, 0, 64, 0
1, 429583, Note_on_c, 0, 74, 31
1, 429586, Note_on_c, 0, 77, 22
1, 429606, Note_off_c, 0, 79, 25
1, 429637, Note_off_c, 0, 75, 43
1, 429686, Control_c, 0, 64, 46
1, 429701, Control_c, 0, 64, 59
1, 429716, Control_c, 0, 64, 61
1, 429731, Control_c, 0, 64, 63
1, 429746, Control_c, 0, 64, 65
1, 429769, Control_c, 0, 64, 69
1, 429784, Control_c, 0, 64, 74
1, 429799, Control_c, 0, 64, 78
1, 429808, Note_off_c, 0, 77, 46
1, 429813, Control_c, 0, 64, 81
1, 429817, Note_off_c, 0, 74, 49
1, 429828, Control_c, 0, 64, 83
1, 429843, Control_c, 0, 64, 86
1, 429858, Control_c, 0, 64, 87
1, 429873, Control_c, 0, 64, 87
1, 429887, Control_c, 0, 64, 88
1, 429888, Note_off_c, 0, 70, 52
1, 430096, Control_c, 0, 64, 87
1, 430110, Control_c, 0, 64, 86
1, 430125, Control_c, 0, 64, 85
1, 430125, Control_c, 0, 67, 127
1, 430140, Control_c, 0, 64, 82
1, 430140, Control_c, 0, 67, 119
1, 430154, Control_c, 0, 64, 79
1, 430154, Control_c, 0, 67, 108
1, 430169, Control_c, 0, 64, 75
1, 430169, Control_c, 0, 67, 97
1, 430184, Control_c, 0, 64, 72
1, 430184, Control_c, 0, 67, 87
1, 430199, Control_c, 0, 64, 69
1, 430199, Control_c, 0, 67, 77
1, 430214, Control_c, 0, 64, 66
1, 430214, Control_c, 0, 67, 69
1, 430229, Control_c, 0, 64, 62
1, 430229, Control_c, 0, 67, 60
1, 430243, Control_c, 0, 64, 53
1, 430243, Control_c, 0, 67, 53
1, 430258, Control_c, 0, 64, 0
1, 430258, Control_c, 0, 67, 46
1, 430273, Control_c, 0, 67, 40
1, 430288, Control_c, 0, 67, 35
1, 430303, Control_c, 0, 67, 30
1, 430318, Control_c, 0, 67, 26
1, 430324, Note_on_c, 0, 70, 54
1, 430333, Control_c, 0, 67, 22
1, 430348, Control_c, 0, 67, 17
1, 430362, Control_c, 0, 67, 12
1, 430377, Control_c, 0, 64, 43
1, 430377, Control_c, 0, 67, 0
1, 430392, Control_c, 0, 64, 60
1, 430407, Control_c, 0, 64, 64
1, 430421, Control_c, 0, 64, 66
1, 430436, Control_c, 0, 64, 69
1, 430451, Control_c, 0, 64, 74
1, 430466, Control_c, 0, 64, 80
1, 430470, Note_off_c, 0, 70, 59
1, 430481, Control_c, 0, 64, 82
1, 430496, Control_c, 0, 64, 86
1, 430517, Control_c, 0, 64, 90
1, 430532, Control_c, 0, 64, 95
1, 430547, Control_c, 0, 64, 103
1, 430561, Control_c, 0, 64, 116
1, 430576, Control_c, 0, 64, 127
1, 430587, Note_on_c, 0, 70, 71
1, 430696, Note_off_c, 0, 70, 58
1, 430794, Note_on_c, 0, 70, 79
1, 430881, Note_off_c, 0, 70, 61
1, 430974, Note_on_c, 0, 70, 81
1, 431064, Note_off_c, 0, 70, 60
1, 431154, Note_on_c, 0, 70, 86
1, 431275, Note_off_c, 0, 70, 59
1, 431359, Note_on_c, 0, 70, 91
1, 431474, Note_off_c, 0, 70, 61
1, 431588, Note_on_c, 0, 72, 94
1, 431592, Note_on_c, 0, 70, 84
1, 431674, Note_off_c, 0, 72, 61
1, 431698, Note_off_c, 0, 70, 58
1, 431988, Note_on_c, 0, 73, 92
1, 431993, Note_on_c, 0, 70, 78
1, 431995, Note_on_c, 0, 61, 85
1, 431998, Note_on_c, 0, 46, 90
1, 432005, Note_on_c, 0, 53, 86
1, 432118, Control_c, 0, 64, 101
1, 432133, Control_c, 0, 64, 62
1, 432148, Control_c, 0, 64, 0
1, 432370, Control_c, 0, 64, 22
1, 432385, Control_c, 0, 64, 31
1, 432429, Control_c, 0, 64, 32
1, 432444, Control_c, 0, 64, 33
1, 432459, Control_c, 0, 64, 35
1, 432475, Control_c, 0, 64, 39
1, 432490, Control_c, 0, 64, 42
1, 432504, Control_c, 0, 64, 43
1, 432519, Control_c, 0, 64, 44
1, 432534, Control_c, 0, 64, 43
1, 432548, Control_c, 0, 64, 43
1, 432563, Control_c, 0, 64, 44
1, 432652, Control_c, 0, 64, 43
1, 432667, Control_c, 0, 64, 42
1, 432682, Control_c, 0, 64, 41
1, 432697, Control_c, 0, 64, 42
1, 432712, Control_c, 0, 64, 48
1, 432727, Control_c, 0, 64, 61
1, 432741, Control_c, 0, 64, 75
1, 432763, Control_c, 0, 64, 127
1, 433053, Note_off_c, 0, 61, 38
1, 433155, Note_off_c, 0, 73, 31
1, 433213, Note_off_c, 0, 53, 54
1, 433236, Note_off_c, 0, 46, 57
1, 433251, Note_off_c, 0, 70, 53
1, 433301, Note_on_c, 0, 63, 94
1, 433303, Note_on_c, 0, 72, 87
1, 433304, Note_on_c, 0, 69, 87
1, 433361, Note_off_c, 0, 63, 63
1, 433379, Note_off_c, 0, 69, 62
1, 433408, Note_off_c, 0, 72, 60
1, 433431, Note_on_c, 0, 61, 92
1, 433433, Note_on_c, 0, 46, 92
1, 433433, Note_on_c, 0, 53, 94
1, 433434, Note_on_c, 0, 70, 85
1, 433434, Note_on_c, 0, 73, 88
1, 433490, Control_c, 0, 64, 104
1, 433513, Control_c, 0, 64, 58
1, 433528, Control_c, 0, 64, 0
1, 433617, Control_c, 0, 64, 49
1, 433632, Control_c, 0, 64, 64
1, 433647, Control_c, 0, 64, 69
1, 433661, Control_c, 0, 64, 72
1, 433676, Control_c, 0, 64, 78
1, 433691, Control_c, 0, 64, 86
1, 433705, Control_c, 0, 64, 96
1, 433720, Control_c, 0, 64, 127
1, 434433, Note_off_c, 0, 53, 55
1, 434473, Note_off_c, 0, 61, 38
1, 434475, Note_off_c, 0, 46, 53
1, 434616, Note_off_c, 0, 73, 29
1, 434773, Note_on_c, 0, 69, 81
1, 434774, Note_on_c, 0, 63, 86
1, 434774, Note_on_c, 0, 72, 78
1, 434810, Note_off_c, 0, 70, 54
1, 434827, Note_off_c, 0, 63, 65
1, 434870, Note_off_c, 0, 69, 59
1, 434909, Note_on_c, 0, 73, 87
1, 434909, Note_off_c, 0, 72, 58
1, 434911, Note_on_c, 0, 61, 88
1, 434913, Note_on_c, 0, 70, 85
1, 434943, Control_c, 0, 64, 102
1, 434958, Control_c, 0, 64, 47
1, 434964, Note_on_c, 0, 42, 92
1, 434964, Note_on_c, 0, 54, 98
1, 434973, Control_c, 0, 64, 0
1, 435040, Note_off_c, 0, 61, 60
1, 435055, Control_c, 0, 64, 50
1, 435070, Control_c, 0, 64, 127
1, 435108, Note_off_c, 0, 70, 62
1, 435135, Note_off_c, 0, 73, 60
1, 435289, Note_on_c, 0, 78, 72
1, 435294, Note_on_c, 0, 70, 66
1, 435299, Note_on_c, 0, 73, 64
1, 435371, Note_off_c, 0, 70, 60
1, 435382, Note_off_c, 0, 73, 59
1, 435382, Note_off_c, 0, 78, 61
1, 435479, Note_on_c, 0, 70, 70
1, 435481, Note_on_c, 0, 78, 79
1, 435483, Note_on_c, 0, 73, 77
1, 435555, Note_off_c, 0, 70, 59
1, 435564, Note_off_c, 0, 78, 62
1, 435574, Note_off_c, 0, 73, 58
1, 435640, Note_on_c, 0, 73, 81
1, 435642, Note_on_c, 0, 78, 85
1, 435644, Note_on_c, 0, 70, 85
1, 435711, Note_off_c, 0, 70, 58
1, 435724, Note_off_c, 0, 78, 64
1, 435725, Note_off_c, 0, 73, 60
1, 435800, Note_on_c, 0, 80, 96
1, 435806, Note_on_c, 0, 70, 89
1, 435813, Note_on_c, 0, 73, 83
1, 435885, Note_off_c, 0, 70, 61
1, 435892, Note_off_c, 0, 73, 59
1, 435898, Note_off_c, 0, 80, 61
1, 435969, Note_on_c, 0, 80, 88
1, 435970, Note_on_c, 0, 70, 95
1, 435973, Note_on_c, 0, 73, 87
1, 435979, Note_off_c, 0, 54, 57
1, 435992, Note_off_c, 0, 42, 60
1, 436050, Note_on_c, 0, 41, 87
1, 436050, Note_on_c, 0, 53, 87
1, 436089, Note_off_c, 0, 70, 59
1, 436093, Note_off_c, 0, 53, 66
1, 436094, Note_off_c, 0, 41, 63
1, 436100, Note_off_c, 0, 73, 45
1, 436103, Note_off_c, 0, 80, 56
1, 436166, Note_on_c, 0, 82, 95
1, 436167, Note_on_c, 0, 73, 88
1, 436169, Note_on_c, 0, 70, 98
1, 436175, Note_on_c, 0, 54, 92
1, 436182, Note_on_c, 0, 42, 86
1, 436203, Control_c, 0, 64, 107
1, 436218, Control_c, 0, 64, 69
1, 436233, Control_c, 0, 64, 0
1, 436381, Control_c, 0, 64, 43
1, 436396, Control_c, 0, 64, 57
1, 436411, Control_c, 0, 64, 63
1, 436426, Control_c, 0, 64, 69
1, 436440, Control_c, 0, 64, 76
1, 436455, Control_c, 0, 64, 83
1, 436471, Control_c, 0, 64, 91
1, 436485, Control_c, 0, 64, 107
1, 436509, Control_c, 0, 64, 127
1, 436821, Note_off_c, 0, 82, 51
1, 436866, Note_off_c, 0, 70, 56
1, 436953, Note_off_c, 0, 73, 47
1, 437101, Control_c, 0, 64, 68
1, 437115, Control_c, 0, 64, 0
1, 437190, Control_c, 0, 64, 63
1, 437204, Control_c, 0, 64, 87
1, 437219, Control_c, 0, 64, 127
1, 437399, Note_off_c, 0, 42, 51
1, 437433, Note_off_c, 0, 54, 58
1, 437534, Note_on_c, 0, 53, 80
1, 437537, Note_on_c, 0, 41, 78
1, 437581, Note_off_c, 0, 53, 64
1, 437648, Note_off_c, 0, 41, 58
1, 437660, Note_on_c, 0, 72, 83
1, 437672, Control_c, 0, 64, 115
1, 437676, Note_on_c, 0, 70, 70
1, 437681, Note_on_c, 0, 67, 67
1, 437687, Note_on_c, 0, 52, 76
1, 437687, Control_c, 0, 64, 60
1, 437691, Note_on_c, 0, 40, 72
1, 437702, Control_c, 0, 64, 0
1, 437776, Control_c, 0, 64, 30
1, 437791, Control_c, 0, 64, 68
1, 437806, Control_c, 0, 64, 97
1, 437820, Control_c, 0, 64, 127
1, 437830, Note_off_c, 0, 40, 64
1, 437832, Note_off_c, 0, 52, 64
1, 437970, Note_on_c, 0, 55, 73
1, 437973, Note_on_c, 0, 43, 74
1, 438059, Note_off_c, 0, 55, 61
1, 438065, Note_off_c, 0, 43, 61
1, 438154, Note_on_c, 0, 43, 80
1, 438154, Note_on_c, 0, 55, 80
1, 438225, Note_off_c, 0, 43, 60
1, 438226, Note_off_c, 0, 55, 62
1, 438313, Note_on_c, 0, 43, 84
1, 438313, Note_on_c, 0, 55, 83
1, 438360, Note_off_c, 0, 43, 61
1, 438363, Note_off_c, 0, 55, 64
1, 438464, Note_on_c, 0, 60, 87
1, 438465, Note_on_c, 0, 48, 88
1, 438514, Note_off_c, 0, 60, 61
1, 438520, Note_off_c, 0, 48, 61
1, 438602, Note_on_c, 0, 48, 88
1, 438602, Note_on_c, 0, 60, 86
1, 438602, Note_off_c, 0, 67, 51
1, 438605, Note_off_c, 0, 70, 56
1, 438637, Note_off_c, 0, 72, 62
1, 438667, Note_off_c, 0, 48, 60
1, 438673, Note_off_c, 0, 60, 62
1, 438676, Note_on_c, 0, 73, 87
1, 438684, Note_on_c, 0, 67, 87
1, 438685, Note_on_c, 0, 70, 81
1, 438727, Note_off_c, 0, 67, 61
1, 438730, Note_off_c, 0, 70, 56
1, 438752, Note_off_c, 0, 73, 60
1, 438783, Control_c, 0, 64, 84
1, 438784, Note_on_c, 0, 70, 73
1, 438785, Note_on_c, 0, 67, 84
1, 438787, Note_on_c, 0, 72, 87
1, 438790, Note_on_c, 0, 64, 97
1, 438790, Note_on_c, 0, 52, 100
1, 438798, Control_c, 0, 64, 62
1, 438813, Control_c, 0, 64, 0
1, 438917, Control_c, 0, 64, 53
1, 438932, Control_c, 0, 64, 74
1, 438947, Control_c, 0, 64, 127
1, 439044, Note_off_c, 0, 52, 63
1, 439102, Note_off_c, 0, 64, 61
1, 439547, Control_c, 0, 64, 74
1, 439562, Control_c, 0, 64, 0
1, 439621, Control_c, 0, 64, 64
1, 439636, Control_c, 0, 64, 127
1, 439833, Note_off_c, 0, 67, 38
1, 439925, Note_off_c, 0, 70, 0
1, 439931, Note_on_c, 0, 67, 80
1, 439933, Note_on_c, 0, 73, 81
1, 439938, Note_on_c, 0, 70, 43
1, 439964, Note_off_c, 0, 72, 61
1, 439973, Note_off_c, 0, 70, 64
1, 439975, Note_off_c, 0, 67, 62
1, 439991, Note_off_c, 0, 73, 64
1, 440042, Note_on_c, 0, 53, 96
1, 440043, Note_on_c, 0, 72, 73
1, 440045, Note_on_c, 0, 41, 84
1, 440048, Note_on_c, 0, 68, 77
1, 440080, Control_c, 0, 64, 70
1, 440095, Control_c, 0, 64, 0
1, 440170, Control_c, 0, 64, 63
1, 440185, Control_c, 0, 64, 89
1, 440200, Control_c, 0, 64, 127
1, 440224, Note_off_c, 0, 68, 58
1, 440261, Note_off_c, 0, 72, 62
1, 440333, Note_on_c, 0, 77, 78
1, 440338, Note_on_c, 0, 68, 73
1, 440343, Note_on_c, 0, 72, 68
1, 440411, Note_off_c, 0, 68, 60
1, 440416, Note_off_c, 0, 77, 61
1, 440441, Note_off_c, 0, 72, 63
1, 440499, Note_on_c, 0, 72, 69
1, 440499, Note_on_c, 0, 77, 77
1, 440506, Note_on_c, 0, 68, 79
1, 440575, Note_off_c, 0, 68, 58
1, 440588, Note_off_c, 0, 77, 59
1, 440604, Note_off_c, 0, 72, 63
1, 440653, Note_on_c, 0, 72, 72
1, 440656, Note_on_c, 0, 77, 77
1, 440661, Note_on_c, 0, 68, 84
1, 440748, Note_off_c, 0, 68, 60
1, 440766, Note_off_c, 0, 72, 60
1, 440776, Note_off_c, 0, 77, 57
1, 440817, Note_on_c, 0, 79, 84
1, 440818, Note_on_c, 0, 72, 74
1, 440820, Note_on_c, 0, 68, 87
1, 440901, Note_off_c, 0, 68, 58
1, 440906, Note_off_c, 0, 79, 58
1, 440935, Note_off_c, 0, 72, 59
1, 440966, Note_off_c, 0, 53, 60
1, 440977, Note_on_c, 0, 72, 63
1, 440977, Note_on_c, 0, 79, 90
1, 440990, Note_on_c, 0, 68, 94
1, 441001, Note_off_c, 0, 41, 62
1, 441058, Note_off_c, 0, 79, 62
1, 441074, Note_on_c, 0, 52, 92
1, 441079, Note_on_c, 0, 40, 82
1, 441102, Note_off_c, 0, 68, 56
1, 441118, Note_off_c, 0, 40, 65
1, 441121, Note_off_c, 0, 52, 67
1, 441125, Note_off_c, 0, 72, 51
1, 441174, Note_on_c, 0, 72, 68
1, 441178, Note_on_c, 0, 80, 94
1, 441182, Note_on_c, 0, 68, 95
1, 441204, Note_on_c, 0, 53, 88
1, 441210, Note_on_c, 0, 41, 85
1, 441221, Control_c, 0, 64, 86
1, 441236, Control_c, 0, 64, 63
1, 441251, Control_c, 0, 64, 0
1, 441430, Control_c, 0, 64, 56
1, 441444, Control_c, 0, 64, 66
1, 441459, Control_c, 0, 64, 74
1, 441474, Control_c, 0, 64, 83
1, 441489, Control_c, 0, 64, 93
1, 441504, Control_c, 0, 64, 127
1, 441570, Note_off_c, 0, 68, 61
1, 441571, Note_off_c, 0, 80, 60
1, 441598, Note_off_c, 0, 72, 59
1, 442030, Control_c, 0, 64, 87
1, 442044, Control_c, 0, 64, 0
1, 442119, Control_c, 0, 64, 12
1, 442134, Control_c, 0, 64, 68
1, 442149, Control_c, 0, 64, 101
1, 442164, Control_c, 0, 64, 127
1, 442241, Note_off_c, 0, 41, 56
1, 442245, Note_off_c, 0, 53, 58
1, 442719, Control_c, 0, 67, 8
1, 442734, Control_c, 0, 67, 9
1, 442748, Note_on_c, 0, 51, 51
1, 442748, Control_c, 0, 67, 11
1, 442753, Note_on_c, 0, 39, 50
1, 442763, Control_c, 0, 67, 14
1, 442778, Control_c, 0, 67, 17
1, 442793, Control_c, 0, 67, 23
1, 442808, Control_c, 0, 67, 28
1, 442823, Control_c, 0, 67, 32
1, 442824, Note_off_c, 0, 39, 54
1, 442834, Note_off_c, 0, 51, 57
1, 442838, Control_c, 0, 67, 35
1, 442853, Control_c, 0, 67, 37
1, 442868, Control_c, 0, 64, 109
1, 442868, Control_c, 0, 67, 39
1, 442880, Note_on_c, 0, 70, 58
1, 442882, Control_c, 0, 64, 81
1, 442882, Control_c, 0, 67, 41
1, 442897, Control_c, 0, 64, 57
1, 442897, Control_c, 0, 67, 44
1, 442912, Control_c, 0, 64, 0
1, 442912, Control_c, 0, 67, 48
1, 442920, Note_on_c, 0, 65, 39
1, 442921, Note_on_c, 0, 68, 37
1, 442927, Control_c, 0, 67, 51
1, 442930, Note_on_c, 0, 50, 46
1, 442942, Control_c, 0, 67, 54
1, 442947, Note_on_c, 0, 38, 40
1, 442957, Control_c, 0, 67, 57
1, 442972, Control_c, 0, 67, 61
1, 442987, Control_c, 0, 64, 32
1, 442987, Control_c, 0, 67, 65
1, 443002, Control_c, 0, 64, 65
1, 443002, Control_c, 0, 67, 68
1, 443017, Control_c, 0, 64, 75
1, 443017, Control_c, 0, 67, 72
1, 443031, Control_c, 0, 64, 86
1, 443031, Control_c, 0, 67, 75
1, 443046, Control_c, 0, 64, 92
1, 443046, Control_c, 0, 67, 78
1, 443046, Note_off_c, 0, 38, 52
1, 443051, Note_off_c, 0, 50, 56
1, 443061, Control_c, 0, 64, 97
1, 443061, Control_c, 0, 67, 81
1, 443076, Control_c, 0, 64, 105
1, 443076, Control_c, 0, 67, 84
1, 443090, Control_c, 0, 64, 115
1, 443090, Control_c, 0, 67, 86
1, 443105, Control_c, 0, 64, 121
1, 443105, Control_c, 0, 67, 87
1, 443120, Control_c, 0, 64, 125
1, 443120, Control_c, 0, 67, 88
1, 443135, Control_c, 0, 64, 127
1, 443135, Control_c, 0, 67, 88
1, 443150, Control_c, 0, 67, 89
1, 443164, Control_c, 0, 67, 89
1, 443179, Control_c, 0, 67, 90
1, 443194, Note_on_c, 0, 53, 50
1, 443200, Note_on_c, 0, 41, 52
1, 443255, Note_off_c, 0, 41, 56
1, 443255, Note_off_c, 0, 53, 58
1, 443376, Note_on_c, 0, 41, 52
1, 443381, Note_on_c, 0, 53, 50
1, 443419, Note_off_c, 0, 53, 55
1, 443430, Note_off_c, 0, 41, 53
1, 443527, Control_c, 0, 67, 89
1, 443542, Note_on_c, 0, 41, 55
1, 443554, Note_on_c, 0, 53, 46
1, 443572, Note_off_c, 0, 41, 65
1, 443578, Note_off_c, 0, 53, 63
1, 443720, Note_on_c, 0, 46, 54
1, 443726, Note_on_c, 0, 58, 45
1, 443747, Note_off_c, 0, 46, 54
1, 443753, Note_off_c, 0, 58, 56
1, 443765, Control_c, 0, 67, 89
1, 443795, Control_c, 0, 67, 88
1, 443810, Control_c, 0, 67, 88
1, 443822, Note_off_c, 0, 68, 44
1, 443824, Note_off_c, 0, 65, 39
1, 443842, Note_on_c, 0, 46, 55
1, 443851, Note_on_c, 0, 58, 46
1, 443854, Control_c, 0, 67, 87
1, 443868, Note_off_c, 0, 70, 38
1, 443884, Control_c, 0, 67, 87
1, 443891, Note_off_c, 0, 46, 60
1, 443923, Note_off_c, 0, 58, 52
1, 443928, Control_c, 0, 67, 86
1, 443929, Note_on_c, 0, 71, 57
1, 443937, Note_on_c, 0, 65, 48
1, 443943, Note_on_c, 0, 68, 42
1, 443943, Control_c, 0, 67, 86
1, 443973, Control_c, 0, 67, 85
1, 443988, Note_off_c, 0, 65, 47
1, 443995, Control_c, 0, 64, 125
1, 443995, Control_c, 0, 67, 85
1, 444001, Note_off_c, 0, 68, 44
1, 444010, Control_c, 0, 64, 86
1, 444025, Control_c, 0, 64, 66
1, 444025, Control_c, 0, 67, 84
1, 444039, Control_c, 0, 64, 33
1, 444039, Control_c, 0, 67, 84
1, 444042, Note_off_c, 0, 71, 38
1, 444054, Control_c, 0, 64, 0
1, 444054, Control_c, 0, 67, 83
1, 444066, Note_on_c, 0, 70, 62
1, 444069, Control_c, 0, 64, 36
1, 444069, Control_c, 0, 67, 82
1, 444080, Note_on_c, 0, 65, 47
1, 444084, Control_c, 0, 64, 55
1, 444087, Note_on_c, 0, 62, 58
1, 444094, Note_on_c, 0, 50, 53
1, 444099, Control_c, 0, 64, 64
1, 444099, Control_c, 0, 67, 81
1, 444114, Control_c, 0, 64, 73
1, 444121, Note_off_c, 0, 65, 61
1, 444123, Note_off_c, 0, 70, 64
1, 444128, Control_c, 0, 64, 84
1, 444143, Control_c, 0, 64, 93
1, 444143, Control_c, 0, 67, 80
1, 444158, Control_c, 0, 64, 97
1, 444158, Control_c, 0, 67, 80
1, 444173, Control_c, 0, 64, 102
1, 444188, Control_c, 0, 64, 106
1, 444188, Control_c, 0, 67, 79
1, 444203, Control_c, 0, 64, 109
1, 444203, Control_c, 0, 67, 78
1, 444218, Control_c, 0, 64, 112
1, 444218, Control_c, 0, 67, 78
1, 444232, Control_c, 0, 64, 116
1, 444247, Control_c, 0, 64, 125
1, 444247, Control_c, 0, 67, 77
1, 444252, Note_on_c, 0, 70, 57
1, 444255, Note_on_c, 0, 77, 60
1, 444262, Control_c, 0, 64, 127
1, 444262, Control_c, 0, 67, 77
1, 444273, Note_on_c, 0, 68, 50
1, 444277, Control_c, 0, 67, 76
1, 444292, Control_c, 0, 67, 74
1, 444304, Note_off_c, 0, 68, 53
1, 444306, Control_c, 0, 67, 71
1, 444315, Note_off_c, 0, 77, 60
1, 444319, Note_off_c, 0, 70, 60
1, 444321, Control_c, 0, 67, 69
1, 444336, Control_c, 0, 67, 67
1, 444345, Note_off_c, 0, 62, 61
1, 444351, Control_c, 0, 67, 64
1, 444356, Note_off_c, 0, 50, 62
1, 444366, Control_c, 0, 67, 61
1, 444380, Control_c, 0, 67, 59
1, 444395, Control_c, 0, 67, 57
1, 444409, Note_on_c, 0, 77, 62
1, 444410, Control_c, 0, 67, 56
1, 444412, Note_on_c, 0, 68, 52
1, 444423, Note_on_c, 0, 70, 58
1, 444425, Control_c, 0, 67, 55
1, 444439, Control_c, 0, 67, 54
1, 444454, Control_c, 0, 67, 52
1, 444470, Control_c, 0, 67, 50
1, 444478, Note_off_c, 0, 68, 52
1, 444485, Note_off_c, 0, 77, 55
1, 444485, Control_c, 0, 67, 49
1, 444492, Note_off_c, 0, 70, 58
1, 444500, Control_c, 0, 67, 48
1, 444515, Control_c, 0, 64, 101
1, 444515, Control_c, 0, 67, 47
1, 444530, Control_c, 0, 64, 58
1, 444530, Control_c, 0, 67, 46
1, 444544, Control_c, 0, 64, 0
1, 444559, Control_c, 0, 64, 18
1, 444559, Control_c, 0, 67, 44
1, 444567, Note_on_c, 0, 77, 65
1, 444574, Note_on_c, 0, 70, 53
1, 444574, Control_c, 0, 64, 58
1, 444574, Control_c, 0, 67, 41
1, 444587, Note_on_c, 0, 68, 59
1, 444589, Control_c, 0, 64, 75
1, 444589, Control_c, 0, 67, 38
1, 444603, Control_c, 0, 64, 127
1, 444603, Control_c, 0, 67, 36
1, 444618, Control_c, 0, 67, 35
1, 444626, Note_off_c, 0, 68, 59
1, 444627, Note_off_c, 0, 70, 62
1, 444633, Control_c, 0, 67, 34
1, 444635, Note_off_c, 0, 77, 61
1, 444648, Control_c, 0, 67, 34
1, 444662, Control_c, 0, 67, 33
1, 444677, Control_c, 0, 67, 32
1, 444692, Control_c, 0, 67, 30
1, 444707, Control_c, 0, 67, 28
1, 444722, Control_c, 0, 67, 27
1, 444743, Note_on_c, 0, 80, 71
1, 444744, Control_c, 0, 67, 27
1, 444754, Note_on_c, 0, 70, 57
1, 444758, Control_c, 0, 67, 26
1, 444769, Note_on_c, 0, 77, 52
1, 444773, Control_c, 0, 67, 25
1, 444788, Control_c, 0, 67, 24
1, 444803, Control_c, 0, 67, 23
1, 444810, Note_off_c, 0, 77, 57
1, 444817, Control_c, 0, 67, 22
1, 444820, Note_off_c, 0, 80, 58
1, 444825, Note_off_c, 0, 70, 58
1, 444832, Control_c, 0, 67, 21
1, 444847, Control_c, 0, 67, 19
1, 444862, Control_c, 0, 67, 19
1, 444877, Control_c, 0, 67, 18
1, 444892, Control_c, 0, 67, 17
1, 444906, Control_c, 0, 67, 17
1, 444921, Note_on_c, 0, 80, 71
1, 444921, Control_c, 0, 67, 16
1, 444936, Control_c, 0, 67, 15
1, 444939, Note_on_c, 0, 77, 51
1, 444940, Note_on_c, 0, 70, 53
1, 444951, Control_c, 0, 67, 14
1, 444966, Control_c, 0, 67, 13
1, 444981, Control_c, 0, 67, 11
1, 444996, Control_c, 0, 67, 10
1, 445010, Control_c, 0, 67, 9
1, 445025, Control_c, 0, 67, 9
1, 445040, Control_c, 0, 67, 8
1, 445050, Note_off_c, 0, 70, 37
1, 445050, Note_off_c, 0, 80, 54
1, 445054, Control_c, 0, 67, 0
1, 445204, Note_on_c, 0, 80, 56
1, 445220, Note_off_c, 0, 77, 20
1, 445223, Note_on_c, 0, 70, 42
1, 445232, Control_c, 0, 64, 92
1, 445234, Note_on_c, 0, 75, 44
1, 445243, Note_on_c, 0, 39, 42
1, 445247, Control_c, 0, 64, 65
1, 445258, Note_on_c, 0, 51, 37
1, 445263, Control_c, 0, 64, 36
1, 445277, Control_c, 0, 64, 27
1, 445292, Control_c, 0, 64, 52
1, 445307, Control_c, 0, 64, 61
1, 445322, Control_c, 0, 64, 67
1, 445337, Control_c, 0, 64, 77
1, 445351, Control_c, 0, 64, 90
1, 445366, Control_c, 0, 64, 100
1, 445381, Control_c, 0, 64, 106
1, 445395, Note_off_c, 0, 39, 59
1, 445396, Control_c, 0, 64, 111
1, 445401, Note_off_c, 0, 51, 61
1, 445411, Control_c, 0, 64, 116
1, 445426, Control_c, 0, 64, 127
1, 445530, Note_on_c, 0, 54, 50
1, 445531, Note_on_c, 0, 42, 50
1, 445578, Note_off_c, 0, 54, 56
1, 445586, Note_off_c, 0, 42, 56
1, 445688, Note_on_c, 0, 54, 57
1, 445690, Note_on_c, 0, 42, 57
1, 445747, Note_off_c, 0, 54, 50
1, 445747, Note_off_c, 0, 42, 59
1, 445803, Control_c, 0, 64, 70
1, 445818, Control_c, 0, 64, 10
1, 445833, Control_c, 0, 64, 0
1, 445848, Control_c, 0, 64, 21
1, 445848, Note_on_c, 0, 42, 62
1, 445849, Note_on_c, 0, 54, 46
1, 445849, Note_on_c, 0, 78, 58
1, 445863, Control_c, 0, 64, 60
1, 445877, Control_c, 0, 64, 73
1, 445892, Control_c, 0, 64, 110
1, 445897, Note_off_c, 0, 42, 60
1, 445907, Control_c, 0, 64, 127
1, 445909, Note_off_c, 0, 54, 61
1, 445947, Note_off_c, 0, 80, 51
1, 445986, Note_off_c, 0, 75, 61
1, 446011, Note_on_c, 0, 58, 62
1, 446015, Note_on_c, 0, 46, 59
1, 446024, Note_off_c, 0, 78, 62
1, 446064, Note_off_c, 0, 46, 60
1, 446065, Note_off_c, 0, 70, 59
1, 446066, Note_off_c, 0, 58, 60
1, 446166, Note_on_c, 0, 46, 61
1, 446171, Note_on_c, 0, 58, 59
1, 446204, Note_off_c, 0, 46, 62
1, 446221, Note_off_c, 0, 58, 63
1, 446328, Note_on_c, 0, 70, 56
1, 446330, Control_c, 0, 64, 98
1, 446340, Note_on_c, 0, 66, 51
1, 446345, Control_c, 0, 64, 66
1, 446349, Note_on_c, 0, 63, 65
1, 446349, Note_on_c, 0, 51, 59
1, 446360, Control_c, 0, 64, 54
1, 446375, Control_c, 0, 64, 58
1, 446389, Control_c, 0, 64, 64
1, 446404, Control_c, 0, 64, 70
1, 446407, Note_off_c, 0, 66, 51
1, 446419, Control_c, 0, 64, 84
1, 446428, Note_off_c, 0, 70, 52
1, 446433, Control_c, 0, 64, 127
1, 446503, Note_on_c, 0, 75, 64
1, 446507, Note_on_c, 0, 70, 52
1, 446514, Note_on_c, 0, 66, 58
1, 446567, Note_off_c, 0, 66, 51
1, 446576, Note_off_c, 0, 75, 62
1, 446586, Note_off_c, 0, 70, 53
1, 446602, Note_off_c, 0, 51, 61
1, 446611, Note_off_c, 0, 63, 62
1, 446653, Note_on_c, 0, 75, 64
1, 446659, Note_on_c, 0, 70, 61
1, 446665, Note_on_c, 0, 66, 64
1, 446720, Note_off_c, 0, 66, 60
1, 446731, Note_off_c, 0, 75, 63
1, 446746, Note_off_c, 0, 70, 59
1, 446819, Control_c, 0, 64, 60
1, 446826, Note_on_c, 0, 75, 65
1, 446831, Note_on_c, 0, 70, 61
1, 446833, Note_on_c, 0, 66, 60
1, 446833, Control_c, 0, 64, 0
1, 446868, Note_off_c, 0, 66, 63
1, 446879, Control_c, 0, 64, 62
1, 446885, Note_off_c, 0, 70, 62
1, 446894, Control_c, 0, 64, 127
1, 446913, Note_off_c, 0, 75, 66
1, 447020, Note_on_c, 0, 78, 69
1, 447034, Note_on_c, 0, 70, 53
1, 447038, Note_on_c, 0, 75, 58
1, 447097, Note_off_c, 0, 75, 54
1, 447104, Note_off_c, 0, 70, 59
1, 447112, Note_off_c, 0, 78, 61
1, 447214, Note_on_c, 0, 78, 70
1, 447219, Note_on_c, 0, 70, 59
1, 447233, Note_on_c, 0, 75, 57
1, 447271, Note_off_c, 0, 70, 60
1, 447309, Note_off_c, 0, 78, 59
1, 447316, Note_off_c, 0, 75, 45
1, 447435, Control_c, 0, 64, 71
1, 447440, Note_on_c, 0, 83, 70
1, 447450, Control_c, 0, 64, 23
1, 447460, Note_on_c, 0, 78, 50
1, 447464, Control_c, 0, 64, 0
1, 447473, Note_on_c, 0, 71, 53
1, 447477, Note_on_c, 0, 75, 48
1, 447483, Note_on_c, 0, 47, 46
1, 447485, Note_on_c, 0, 35, 42
1, 447494, Control_c, 0, 64, 46
1, 447509, Control_c, 0, 64, 64
1, 447524, Control_c, 0, 64, 82
1, 447539, Control_c, 0, 64, 127
1, 447554, Note_off_c, 0, 35, 62
1, 447565, Note_off_c, 0, 47, 63
1, 447679, Note_on_c, 0, 39, 59
1, 447689, Note_on_c, 0, 51, 56
1, 447743, Note_off_c, 0, 51, 56
1, 447745, Note_off_c, 0, 39, 58
1, 447842, Note_on_c, 0, 39, 62
1, 447852, Note_on_c, 0, 51, 63
1, 447908, Note_off_c, 0, 51, 58
1, 447913, Note_off_c, 0, 39, 60
1, 447977, Control_c, 0, 64, 82
1, 447992, Control_c, 0, 64, 45
1, 448001, Note_on_c, 0, 39, 64
1, 448006, Control_c, 0, 64, 0
1, 448011, Note_on_c, 0, 51, 63
1, 448051, Control_c, 0, 64, 72
1, 448066, Control_c, 0, 64, 127
1, 448066, Note_off_c, 0, 39, 62
1, 448068, Note_off_c, 0, 51, 63
1, 448087, Note_off_c, 0, 83, 59
1, 448129, Note_off_c, 0, 75, 62
1, 448147, Note_off_c, 0, 78, 61
1, 448152, Note_on_c, 0, 42, 76
1, 448161, Note_on_c, 0, 54, 67
1, 448162, Note_off_c, 0, 71, 60
1, 448218, Note_off_c, 0, 54, 60
1, 448223, Note_off_c, 0, 42, 60
1, 448293, Note_on_c, 0, 42, 71
1, 448296, Note_on_c, 0, 54, 72
1, 448358, Note_off_c, 0, 42, 63
1, 448373, Note_off_c, 0, 54, 59
1, 448451, Control_c, 0, 64, 68
1, 448466, Control_c, 0, 64, 37
1, 448469, Note_on_c, 0, 75, 64
1, 448482, Note_on_c, 0, 66, 53
1, 448485, Note_on_c, 0, 71, 51
1, 448489, Note_on_c, 0, 47, 82
1, 448489, Control_c, 0, 64, 36
1, 448490, Note_on_c, 0, 59, 79
1, 448503, Control_c, 0, 64, 57
1, 448518, Control_c, 0, 64, 69
1, 448531, Note_off_c, 0, 71, 62
1, 448532, Note_off_c, 0, 66, 63
1, 448533, Control_c, 0, 64, 127
1, 448562, Note_off_c, 0, 75, 65
1, 448658, Note_on_c, 0, 78, 76
1, 448666, Note_on_c, 0, 71, 67
1, 448666, Note_on_c, 0, 75, 67
1, 448718, Note_off_c, 0, 75, 61
1, 448724, Note_off_c, 0, 71, 59
1, 448725, Note_off_c, 0, 78, 62
1, 448783, Note_off_c, 0, 47, 63
1, 448807, Note_off_c, 0, 59, 62
1, 448810, Note_on_c, 0, 78, 79
1, 448817, Note_on_c, 0, 71, 75
1, 448817, Note_on_c, 0, 75, 72
1, 448891, Note_off_c, 0, 75, 62
1, 448891, Note_off_c, 0, 71, 56
1, 448897, Note_off_c, 0, 78, 60
1, 448972, Note_on_c, 0, 78, 82
1, 448977, Note_on_c, 0, 71, 80
1, 448977, Control_c, 0, 64, 68
1, 448978, Note_on_c, 0, 75, 77
1, 448992, Control_c, 0, 64, 0
1, 449021, Control_c, 0, 64, 50
1, 449036, Control_c, 0, 64, 93
1, 449051, Control_c, 0, 64, 127
1, 449077, Note_off_c, 0, 71, 59
1, 449083, Note_off_c, 0, 78, 62
1, 449090, Note_off_c, 0, 75, 63
1, 449145, Note_on_c, 0, 83, 85
1, 449151, Note_on_c, 0, 78, 73
1, 449151, Note_on_c, 0, 75, 70
1, 449232, Note_off_c, 0, 83, 61
1, 449239, Note_off_c, 0, 78, 63
1, 449244, Note_off_c, 0, 75, 64
1, 449313, Note_on_c, 0, 83, 82
1, 449315, Note_on_c, 0, 75, 75
1, 449320, Note_on_c, 0, 78, 82
1, 449405, Note_off_c, 0, 83, 60
1, 449412, Note_off_c, 0, 75, 62
1, 449430, Note_off_c, 0, 78, 62
1, 449545, Note_on_c, 0, 81, 93
1, 449572, Note_on_c, 0, 35, 51
1, 449575, Note_on_c, 0, 47, 53
1, 449576, Note_on_c, 0, 71, 55
1, 449577, Control_c, 0, 64, 73
1, 449592, Control_c, 0, 64, 0
1, 449595, Note_on_c, 0, 76, 39
1, 449651, Control_c, 0, 64, 68
1, 449666, Control_c, 0, 64, 127
1, 449668, Note_off_c, 0, 35, 59
1, 449688, Note_off_c, 0, 47, 63
1, 449792, Note_on_c, 0, 52, 77
1, 449804, Note_on_c, 0, 40, 64
1, 449851, Note_off_c, 0, 40, 64
1, 449853, Note_off_c, 0, 52, 64
1, 449940, Note_on_c, 0, 52, 69
1, 449944, Note_on_c, 0, 40, 74
1, 450018, Note_off_c, 0, 52, 64
1, 450029, Note_off_c, 0, 40, 59
1, 450089, Control_c, 0, 64, 72
1, 450099, Note_on_c, 0, 79, 80
1, 450104, Control_c, 0, 64, 0
1, 450111, Note_on_c, 0, 40, 60
1, 450126, Note_on_c, 0, 52, 71
1, 450133, Note_off_c, 0, 81, 60
1, 450163, Control_c, 0, 64, 67
1, 450167, Note_off_c, 0, 52, 62
1, 450171, Note_off_c, 0, 40, 65
1, 450178, Control_c, 0, 64, 127
1, 450265, Note_on_c, 0, 55, 79
1, 450266, Note_on_c, 0, 43, 79
1, 450272, Note_off_c, 0, 76, 64
1, 450281, Note_off_c, 0, 79, 62
1, 450323, Note_off_c, 0, 55, 62
1, 450324, Note_off_c, 0, 43, 62
1, 450332, Note_off_c, 0, 71, 58
1, 450405, Note_on_c, 0, 55, 79
1, 450406, Note_on_c, 0, 43, 80
1, 450466, Note_off_c, 0, 43, 61
1, 450471, Note_off_c, 0, 55, 61
1, 450534, Control_c, 0, 64, 79
1, 450548, Control_c, 0, 64, 0
1, 450560, Note_on_c, 0, 76, 72
1, 450566, Note_on_c, 0, 67, 63
1, 450569, Note_on_c, 0, 71, 61
1, 450578, Note_on_c, 0, 59, 89
1, 450579, Note_on_c, 0, 47, 89
1, 450592, Control_c, 0, 64, 42
1, 450607, Control_c, 0, 64, 68
1, 450622, Control_c, 0, 64, 127
1, 450626, Note_off_c, 0, 71, 63
1, 450627, Note_off_c, 0, 67, 61
1, 450639, Note_off_c, 0, 76, 63
1, 450749, Note_on_c, 0, 79, 86
1, 450750, Note_on_c, 0, 71, 80
1, 450760, Note_on_c, 0, 76, 75
1, 450822, Note_off_c, 0, 79, 58
1, 450823, Note_off_c, 0, 76, 60
1, 450826, Note_off_c, 0, 71, 54
1, 450848, Note_off_c, 0, 47, 63
1, 450850, Note_off_c, 0, 59, 63
1, 450899, Note_on_c, 0, 79, 85
1, 450904, Note_on_c, 0, 71, 78
1, 450904, Note_on_c, 0, 76, 76
1, 450985, Note_off_c, 0, 71, 56
1, 450986, Note_off_c, 0, 79, 59
1, 450988, Note_off_c, 0, 76, 63
1, 451046, Control_c, 0, 64, 81
1, 451059, Note_on_c, 0, 79, 85
1, 451061, Control_c, 0, 64, 0
1, 451062, Note_on_c, 0, 76, 76
1, 451063, Note_on_c, 0, 71, 83
1, 451105, Control_c, 0, 64, 56
1, 451120, Control_c, 0, 64, 127
1, 451123, Note_off_c, 0, 76, 64
1, 451126, Note_off_c, 0, 71, 61
1, 451151, Note_off_c, 0, 79, 63
1, 451229, Note_on_c, 0, 83, 91
1, 451231, Note_on_c, 0, 76, 89
1, 451237, Note_on_c, 0, 79, 84
1, 451313, Note_off_c, 0, 79, 58
1, 451315, Note_off_c, 0, 76, 61
1, 451321, Note_off_c, 0, 83, 60
1, 451391, Note_on_c, 0, 83, 88
1, 451396, Note_on_c, 0, 76, 84
1, 451398, Note_on_c, 0, 79, 82
1, 451489, Note_off_c, 0, 76, 63
1, 451500, Note_off_c, 0, 83, 57
1, 451513, Note_off_c, 0, 79, 54
1, 451617, Note_on_c, 0, 79, 73
1, 451619, Note_on_c, 0, 84, 87
1, 451625, Note_on_c, 0, 75, 90
1, 451629, Note_on_c, 0, 36, 75
1, 451630, Note_on_c, 0, 48, 78
1, 451631, Control_c, 0, 64, 81
1, 451646, Control_c, 0, 64, 31
1, 451661, Control_c, 0, 64, 0
1, 451691, Control_c, 0, 64, 10
1, 451706, Control_c, 0, 64, 84
1, 451721, Control_c, 0, 64, 127
1, 451724, Note_off_c, 0, 36, 64
1, 451733, Note_off_c, 0, 48, 60
1, 451832, Note_on_c, 0, 39, 76
1, 451833, Note_on_c, 0, 51, 82
1, 451900, Note_off_c, 0, 51, 60
1, 451906, Note_off_c, 0, 39, 60
1, 451973, Note_on_c, 0, 39, 79
1, 451973, Note_on_c, 0, 51, 84
1, 452043, Note_off_c, 0, 51, 56
1, 452079, Note_off_c, 0, 39, 47
1, 452106, Control_c, 0, 64, 89
1, 452120, Control_c, 0, 64, 22
1, 452121, Note_on_c, 0, 39, 64
1, 452127, Note_on_c, 0, 51, 93
1, 452135, Control_c, 0, 64, 0
1, 452165, Control_c, 0, 64, 38
1, 452180, Note_off_c, 0, 39, 63
1, 452180, Control_c, 0, 64, 127
1, 452181, Note_off_c, 0, 51, 63
1, 452213, Note_off_c, 0, 79, 59
1, 452237, Note_off_c, 0, 84, 60
1, 452269, Note_off_c, 0, 75, 63
1, 452274, Note_on_c, 0, 55, 81
1, 452275, Note_on_c, 0, 43, 82
1, 452343, Note_off_c, 0, 55, 63
1, 452344, Note_off_c, 0, 43, 61
1, 452413, Note_on_c, 0, 55, 81
1, 452414, Note_on_c, 0, 43, 81
1, 452471, Note_off_c, 0, 43, 62
1, 452492, Note_off_c, 0, 55, 62
1, 452571, Note_on_c, 0, 75, 75
1, 452573, Control_c, 0, 64, 60
1, 452574, Note_on_c, 0, 72, 69
1, 452575, Note_on_c, 0, 67, 71
1, 452581, Note_on_c, 0, 60, 97
1, 452582, Note_on_c, 0, 48, 92
1, 452588, Control_c, 0, 64, 0
1, 452627, Note_off_c, 0, 67, 64
1, 452629, Note_off_c, 0, 72, 64
1, 452633, Control_c, 0, 64, 64
1, 452641, Note_off_c, 0, 75, 68
1, 452648, Control_c, 0, 64, 127
1, 452737, Note_on_c, 0, 79, 83
1, 452740, Note_on_c, 0, 72, 82
1, 452746, Note_on_c, 0, 75, 78
1, 452802, Note_off_c, 0, 75, 63
1, 452808, Note_off_c, 0, 72, 63
1, 452809, Note_off_c, 0, 79, 61
1, 452864, Note_off_c, 0, 60, 57
1, 452866, Note_off_c, 0, 48, 57
1, 452881, Note_on_c, 0, 79, 88
1, 452883, Note_on_c, 0, 72, 90
1, 452886, Note_on_c, 0, 75, 82
1, 452985, Note_off_c, 0, 72, 63
1, 452989, Note_off_c, 0, 75, 62
1, 452998, Note_off_c, 0, 79, 58
1, 453057, Note_on_c, 0, 79, 92
1, 453058, Note_on_c, 0, 72, 98
1, 453062, Note_on_c, 0, 75, 90
1, 453069, Control_c, 0, 64, 66
1, 453083, Control_c, 0, 64, 0
1, 453128, Control_c, 0, 64, 68
1, 453143, Control_c, 0, 64, 127
1, 453168, Note_off_c, 0, 79, 62
1, 453171, Note_off_c, 0, 72, 63
1, 453187, Note_off_c, 0, 75, 63
1, 453234, Note_on_c, 0, 75, 83
1, 453237, Note_on_c, 0, 79, 94
1, 453238, Note_on_c, 0, 84, 93
1, 453340, Note_off_c, 0, 79, 59
1, 453342, Note_off_c, 0, 84, 63
1, 453345, Note_off_c, 0, 75, 64
1, 453416, Note_on_c, 0, 75, 100
1, 453420, Note_on_c, 0, 84, 96
1, 453424, Note_on_c, 0, 79, 89
1, 453453, Note_on_c, 0, 82, 48
1, 453475, Note_off_c, 0, 79, 61
1, 453480, Note_off_c, 0, 82, 54
1, 453485, Note_off_c, 0, 75, 66
1, 453512, Note_off_c, 0, 84, 60
1, 453685, Note_on_c, 0, 78, 93
1, 453685, Note_on_c, 0, 84, 88
1, 453687, Note_on_c, 0, 74, 97
1, 453688, Note_on_c, 0, 86, 96
1, 453694, Note_on_c, 0, 32, 80
1, 453698, Note_on_c, 0, 44, 79
1, 453730, Control_c, 0, 64, 91
1, 453744, Control_c, 0, 64, 32
1, 453759, Control_c, 0, 64, 0
1, 453804, Control_c, 0, 64, 62
1, 453819, Control_c, 0, 64, 127
1, 453884, Note_off_c, 0, 44, 63
1, 453885, Note_off_c, 0, 32, 62
1, 453964, Note_off_c, 0, 86, 58
1, 453967, Note_on_c, 0, 48, 92
1, 453968, Note_on_c, 0, 36, 87
1, 454038, Note_off_c, 0, 36, 64
1, 454042, Note_off_c, 0, 48, 61
1, 454114, Note_on_c, 0, 48, 95
1, 454117, Note_on_c, 0, 36, 86
1, 454168, Note_off_c, 0, 74, 54
1, 454198, Note_off_c, 0, 48, 55
1, 454216, Note_off_c, 0, 36, 60
1, 454278, Control_c, 0, 64, 67
1, 454283, Note_on_c, 0, 75, 98
1, 454284, Note_on_c, 0, 87, 96
1, 454285, Note_on_c, 0, 36, 78
1, 454289, Note_on_c, 0, 48, 88
1, 454293, Control_c, 0, 64, 0
1, 454338, Control_c, 0, 64, 60
1, 454353, Control_c, 0, 64, 127
1, 454356, Note_off_c, 0, 36, 64
1, 454359, Note_off_c, 0, 48, 61
1, 454396, Note_off_c, 0, 87, 64
1, 454415, Note_off_c, 0, 84, 62
1, 454437, Note_off_c, 0, 78, 63
1, 454444, Note_on_c, 0, 51, 95
1, 454446, Note_on_c, 0, 39, 84
1, 454454, Note_off_c, 0, 75, 63
1, 454510, Note_off_c, 0, 51, 60
1, 454524, Note_off_c, 0, 39, 60
1, 454582, Note_on_c, 0, 39, 87
1, 454582, Note_on_c, 0, 51, 102
1, 454654, Note_off_c, 0, 39, 60
1, 454658, Note_off_c, 0, 51, 57
1, 454738, Note_on_c, 0, 72, 83
1, 454742, Note_on_c, 0, 63, 80
1, 454744, Note_on_c, 0, 66, 75
1, 454744, Control_c, 0, 64, 76
1, 454746, Note_on_c, 0, 44, 100
1, 454746, Note_on_c, 0, 56, 108
1, 454759, Control_c, 0, 64, 0
1, 454788, Control_c, 0, 64, 22
1, 454794, Note_on_c, 0, 46, 29
1, 454795, Note_off_c, 0, 46, 127
1, 454803, Note_off_c, 0, 66, 64
1, 454803, Control_c, 0, 64, 72
1, 454809, Note_off_c, 0, 63, 64
1, 454818, Control_c, 0, 64, 127
1, 454827, Note_off_c, 0, 72, 62
1, 454910, Note_on_c, 0, 66, 91
1, 454910, Note_on_c, 0, 75, 89
1, 454912, Note_off_c, 0, 56, 59
1, 454921, Note_on_c, 0, 72, 82
1, 454994, Note_off_c, 0, 66, 62
1, 455008, Note_off_c, 0, 75, 63
1, 455015, Note_off_c, 0, 72, 60
1, 455050, Note_off_c, 0, 44, 58
1, 455078, Note_on_c, 0, 66, 96
1, 455078, Note_on_c, 0, 72, 83
1, 455078, Note_on_c, 0, 75, 86
1, 455192, Note_off_c, 0, 66, 61
1, 455198, Note_off_c, 0, 75, 62
1, 455229, Note_off_c, 0, 72, 60
1, 455281, Note_on_c, 0, 72, 69
1, 455285, Control_c, 0, 64, 76
1, 455286, Note_on_c, 0, 44, 109
1, 455286, Note_on_c, 0, 75, 84
1, 455286, Note_on_c, 0, 66, 95
1, 455287, Note_on_c, 0, 32, 99
1, 455300, Control_c, 0, 64, 0
1, 455344, Control_c, 0, 64, 71
1, 455359, Control_c, 0, 64, 127
1, 455363, Note_off_c, 0, 66, 65
1, 455373, Note_off_c, 0, 72, 63
1, 455391, Note_off_c, 0, 75, 66
1, 455518, Note_on_c, 0, 78, 95
1, 455520, Note_on_c, 0, 72, 92
1, 455523, Note_on_c, 0, 75, 87
1, 455632, Note_off_c, 0, 32, 59
1, 455642, Note_off_c, 0, 44, 54
1, 455660, Note_off_c, 0, 72, 57
1, 455673, Note_off_c, 0, 75, 60
1, 455677, Note_off_c, 0, 78, 59
1, 455775, Note_on_c, 0, 78, 99
1, 455778, Note_on_c, 0, 72, 93
1, 455779, Note_on_c, 0, 75, 93
1, 455860, Note_on_c, 0, 44, 99
1, 455861, Note_on_c, 0, 32, 95
1, 455912, Note_off_c, 0, 72, 54
1, 455921, Note_off_c, 0, 75, 56
1, 455921, Note_off_c, 0, 78, 58
1, 455941, Note_off_c, 0, 44, 62
1, 455998, Note_off_c, 0, 32, 59
1, 456019, Note_on_c, 0, 72, 95
1, 456019, Note_on_c, 0, 79, 91
1, 456019, Note_on_c, 0, 75, 94
1, 456031, Note_on_c, 0, 43, 103
1, 456035, Note_on_c, 0, 31, 95
1, 456049, Control_c, 0, 64, 88
1, 456064, Control_c, 0, 64, 0
1, 456137, Control_c, 0, 64, 127
1, 456189, Note_off_c, 0, 31, 63
1, 456198, Note_off_c, 0, 43, 61
1, 456311, Note_on_c, 0, 48, 92
1, 456315, Note_on_c, 0, 36, 87
1, 456384, Note_off_c, 0, 36, 64
1, 456384, Note_off_c, 0, 48, 59
1, 456484, Note_on_c, 0, 48, 91
1, 456487, Note_on_c, 0, 36, 89
1, 456556, Note_off_c, 0, 48, 60
1, 456559, Note_off_c, 0, 36, 61
1, 456650, Note_on_c, 0, 36, 87
1, 456650, Note_on_c, 0, 48, 91
1, 456717, Note_off_c, 0, 48, 61
1, 456719, Note_off_c, 0, 36, 63
1, 456820, Note_on_c, 0, 39, 89
1, 456820, Note_on_c, 0, 51, 93
1, 456880, Note_off_c, 0, 51, 58
1, 456900, Note_off_c, 0, 39, 57
1, 456967, Note_on_c, 0, 51, 97
1, 456969, Note_on_c, 0, 39, 88
1, 457027, Note_off_c, 0, 79, 44
1, 457030, Note_off_c, 0, 72, 56
1, 457039, Note_off_c, 0, 39, 62
1, 457046, Note_off_c, 0, 51, 58
1, 457059, Note_off_c, 0, 75, 54
1, 457158, Note_on_c, 0, 55, 87
1, 457161, Note_on_c, 0, 43, 93
1, 457161, Note_on_c, 0, 74, 84
1, 457161, Note_on_c, 0, 71, 87
1, 457167, Control_c, 0, 64, 63
1, 457182, Control_c, 0, 64, 0
1, 457212, Control_c, 0, 64, 48
1, 457227, Control_c, 0, 64, 127
1, 457279, Note_off_c, 0, 43, 61
1, 457281, Note_off_c, 0, 55, 62
1, 457287, Note_off_c, 0, 71, 58
1, 457292, Note_off_c, 0, 74, 60
1, 457364, Note_on_c, 0, 79, 91
1, 457366, Note_on_c, 0, 71, 93
1, 457367, Note_on_c, 0, 50, 82
1, 457367, Note_on_c, 0, 77, 85
1, 457369, Note_on_c, 0, 53, 82
1, 457370, Note_on_c, 0, 55, 86
1, 457370, Note_on_c, 0, 43, 93
1, 457465, Note_off_c, 0, 43, 60
1, 457471, Note_off_c, 0, 53, 61
1, 457475, Note_off_c, 0, 55, 61
1, 457481, Note_off_c, 0, 71, 55
1, 457489, Note_off_c, 0, 79, 56
1, 457492, Note_off_c, 0, 50, 61
1, 457514, Note_off_c, 0, 77, 52
1, 457549, Note_on_c, 0, 77, 63
1, 457550, Note_on_c, 0, 50, 81
1, 457550, Note_on_c, 0, 79, 91
1, 457551, Note_on_c, 0, 43, 95
1, 457554, Note_on_c, 0, 71, 91
1, 457555, Note_on_c, 0, 53, 85
1, 457559, Note_on_c, 0, 55, 90
1, 457668, Note_off_c, 0, 71, 52
1, 457671, Note_off_c, 0, 77, 62
1, 457678, Note_off_c, 0, 43, 61
1, 457678, Note_off_c, 0, 53, 58
1, 457681, Note_off_c, 0, 55, 61
1, 457690, Note_off_c, 0, 79, 50
1, 457692, Note_off_c, 0, 50, 62
1, 457771, Note_on_c, 0, 71, 90
1, 457772, Note_on_c, 0, 77, 96
1, 457774, Note_on_c, 0, 79, 92
1, 457777, Note_on_c, 0, 50, 89
1, 457778, Note_on_c, 0, 53, 90
1, 457779, Note_on_c, 0, 43, 92
1, 457781, Note_on_c, 0, 55, 88
1, 457849, Note_off_c, 0, 55, 63
1, 457853, Note_off_c, 0, 53, 61
1, 457870, Note_off_c, 0, 50, 63
1, 457902, Note_off_c, 0, 43, 63
1, 457906, Note_off_c, 0, 79, 57
1, 457906, Note_off_c, 0, 77, 55
1, 457916, Note_off_c, 0, 71, 54
1, 458015, Note_on_c, 0, 71, 96
1, 458016, Note_on_c, 0, 79, 91
1, 458016, Note_on_c, 0, 83, 96
1, 458017, Note_on_c, 0, 77, 94
1, 458017, Note_on_c, 0, 43, 108
1, 458023, Note_on_c, 0, 31, 97
1, 458167, Note_off_c, 0, 43, 50
1, 458174, Note_off_c, 0, 31, 60
1, 458183, Note_off_c, 0, 71, 47
1, 458186, Note_off_c, 0, 83, 48
1, 458191, Note_off_c, 0, 79, 53
1, 458220, Note_off_c, 0, 77, 55
1, 458300, Note_on_c, 0, 83, 94
1, 458301, Note_on_c, 0, 43, 104
1, 458302, Note_on_c, 0, 71, 98
1, 458303, Note_on_c, 0, 79, 94
1, 458304, Note_on_c, 0, 31, 97
1, 458305, Note_on_c, 0, 77, 94
1, 458401, Note_off_c, 0, 31, 63
1, 458420, Note_off_c, 0, 43, 57
1, 458426, Note_off_c, 0, 77, 58
1, 458444, Note_off_c, 0, 83, 58
1, 458449, Note_off_c, 0, 71, 49
1, 458493, Note_off_c, 0, 79, 56
1, 458822, Note_on_c, 0, 75, 94
1, 458825, Note_on_c, 0, 72, 100
1, 458826, Note_on_c, 0, 79, 91
1, 458827, Note_on_c, 0, 48, 104
1, 458827, Note_on_c, 0, 84, 91
1, 458830, Note_on_c, 0, 36, 90
1, 458904, Control_c, 0, 64, 66
1, 458919, Control_c, 0, 64, 0
1, 459090, Control_c, 0, 64, 54
1, 459105, Control_c, 0, 64, 61
1, 459119, Control_c, 0, 64, 65
1, 459134, Control_c, 0, 64, 72
1, 459149, Control_c, 0, 64, 90
1, 459163, Control_c, 0, 64, 127
1, 459794, Note_off_c, 0, 79, 56
1, 459806, Note_off_c, 0, 75, 57
1, 459922, Note_off_c, 0, 84, 59
1, 459983, Note_off_c, 0, 48, 38
1, 459989, Note_off_c, 0, 36, 32
1, 460020, Note_off_c, 0, 72, 46
1, 460234, Note_on_c, 0, 74, 97
1, 460234, Note_on_c, 0, 79, 100
1, 460234, Note_on_c, 0, 86, 97
1, 460237, Note_on_c, 0, 83, 91
1, 460240, Note_on_c, 0, 48, 96
1, 460243, Note_on_c, 0, 36, 84
1, 460288, Note_off_c, 0, 86, 63
1, 460301, Note_off_c, 0, 36, 61
1, 460302, Note_off_c, 0, 48, 56
1, 460306, Note_off_c, 0, 74, 69
1, 460342, Note_off_c, 0, 83, 52
1, 460361, Note_off_c, 0, 79, 0
1, 460380, Note_on_c, 0, 75, 101
1, 460380, Note_on_c, 0, 84, 96
1, 460385, Note_on_c, 0, 48, 105
1, 460388, Note_on_c, 0, 87, 104
1, 460389, Note_on_c, 0, 36, 97
1, 460398, Poly_aftertouch_c, 0, 79, 127
1, 460403, Note_on_c, 0, 83, 51
1, 460415, Control_c, 0, 64, 65
1, 460426, Note_off_c, 0, 83, 57
1, 460431, Control_c, 0, 64, 0
1, 460498, Control_c, 0, 64, 20
1, 460513, Control_c, 0, 64, 79
1, 460528, Control_c, 0, 64, 127
1, 461104, Poly_aftertouch_c, 0, 79, 0
1, 461167, Note_off_c, 0, 84, 54
1, 461200, Note_off_c, 0, 75, 58
1, 461293, Note_off_c, 0, 87, 63
1, 461487, Note_off_c, 0, 48, 27
1, 461516, Note_off_c, 0, 36, 40
1, 461662, Note_on_c, 0, 77, 105
1, 461663, Note_on_c, 0, 89, 100
1, 461664, Note_on_c, 0, 86, 96
1, 461674, Note_on_c, 0, 48, 87
1, 461680, Note_on_c, 0, 36, 74
1, 461737, Note_off_c, 0, 48, 58
1, 461737, Note_off_c, 0, 36, 62
1, 461746, Note_off_c, 0, 77, 61
1, 461755, Note_off_c, 0, 86, 61
1, 461781, Note_off_c, 0, 89, 63
1, 461809, Note_on_c, 0, 79, 103
1, 461811, Note_on_c, 0, 87, 99
1, 461811, Note_on_c, 0, 91, 101
1, 461823, Note_on_c, 0, 48, 93
1, 461826, Note_on_c, 0, 36, 87
1, 461854, Control_c, 0, 64, 88
1, 461869, Control_c, 0, 64, 0
1, 461880, Poly_aftertouch_c, 0, 89, 0
1, 461995, Control_c, 0, 64, 62
1, 462010, Control_c, 0, 64, 72
1, 462025, Control_c, 0, 64, 102
1, 462041, Control_c, 0, 64, 127
1, 462654, Note_off_c, 0, 91, 54
1, 462828, Note_off_c, 0, 79, 54
1, 462834, Note_off_c, 0, 87, 55
1, 462834, Note_off_c, 0, 36, 61
1, 462953, Note_off_c, 0, 48, 50
1, 463080, Note_on_c, 0, 79, 100
1, 463081, Note_on_c, 0, 89, 92
1, 463081, Note_on_c, 0, 92, 101
1, 463087, Note_on_c, 0, 47, 103
1, 463091, Note_on_c, 0, 35, 85
1, 463229, Note_off_c, 0, 35, 60
1, 463251, Note_off_c, 0, 47, 60
1, 463275, Note_off_c, 0, 92, 55
1, 463278, Note_off_c, 0, 79, 53
1, 463296, Note_off_c, 0, 89, 57
1, 463343, Note_on_c, 0, 79, 98
1, 463343, Note_on_c, 0, 87, 93
1, 463343, Note_on_c, 0, 91, 98
1, 463355, Note_on_c, 0, 48, 89
1, 463359, Note_on_c, 0, 36, 81
1, 463382, Control_c, 0, 64, 66
1, 463396, Control_c, 0, 64, 0
1, 463522, Control_c, 0, 64, 29
1, 463536, Control_c, 0, 64, 45
1, 463551, Control_c, 0, 64, 46
1, 463566, Control_c, 0, 64, 46
1, 463581, Control_c, 0, 64, 45
1, 463596, Control_c, 0, 64, 44
1, 463610, Control_c, 0, 64, 43
1, 463656, Control_c, 0, 64, 44
1, 463671, Control_c, 0, 64, 44
1, 463700, Control_c, 0, 64, 45
1, 463715, Control_c, 0, 64, 45
1, 463745, Control_c, 0, 64, 46
1, 463759, Control_c, 0, 64, 46
1, 463819, Control_c, 0, 64, 45
1, 463833, Control_c, 0, 64, 45
1, 463863, Control_c, 0, 64, 44
1, 463877, Control_c, 0, 64, 44
1, 463892, Control_c, 0, 64, 43
1, 463907, Control_c, 0, 64, 41
1, 463922, Control_c, 0, 64, 39
1, 463937, Control_c, 0, 64, 34
1, 463951, Control_c, 0, 64, 8
1, 463966, Control_c, 0, 64, 0
1, 463996, Control_c, 0, 64, 28
1, 464011, Control_c, 0, 64, 63
1, 464026, Control_c, 0, 64, 127
1, 464148, Note_off_c, 0, 91, 56
1, 464225, Note_off_c, 0, 87, 63
1, 464240, Note_off_c, 0, 79, 51
1, 464327, Note_off_c, 0, 36, 59
1, 464420, Note_off_c, 0, 48, 54
1, 464503, Note_on_c, 0, 89, 91
1, 464509, Note_on_c, 0, 80, 89
1, 464509, Note_on_c, 0, 86, 84
1, 464515, Note_on_c, 0, 35, 74
1, 464516, Note_on_c, 0, 47, 78
1, 464558, Note_off_c, 0, 35, 66
1, 464563, Note_off_c, 0, 47, 62
1, 464589, Note_off_c, 0, 80, 62
1, 464592, Note_off_c, 0, 89, 62
1, 464594, Note_off_c, 0, 86, 62
1, 464630, Note_on_c, 0, 87, 89
1, 464634, Note_on_c, 0, 79, 92
1, 464635, Note_on_c, 0, 84, 89
1, 464647, Note_on_c, 0, 48, 81
1, 464661, Note_on_c, 0, 36, 68
1, 464672, Control_c, 0, 64, 97
1, 464687, Control_c, 0, 64, 53
1, 464701, Control_c, 0, 64, 0
1, 464761, Control_c, 0, 64, 61
1, 464775, Control_c, 0, 64, 83
1, 464790, Control_c, 0, 64, 127
1, 464856, Note_off_c, 0, 84, 59
1, 464896, Note_off_c, 0, 87, 62
1, 464984, Note_off_c, 0, 79, 47
1, 464998, Note_off_c, 0, 36, 30
1, 465071, Note_off_c, 0, 48, 54
1, 465198, Note_on_c, 0, 86, 90
1, 465198, Note_on_c, 0, 38, 73
1, 465201, Note_on_c, 0, 77, 91
1, 465203, Note_on_c, 0, 83, 80
1, 465209, Note_on_c, 0, 50, 59
1, 465233, Note_off_c, 0, 50, 62
1, 465243, Note_off_c, 0, 77, 62
1, 465263, Note_off_c, 0, 83, 61
1, 465280, Note_off_c, 0, 86, 57
1, 465317, Note_on_c, 0, 79, 97
1, 465318, Note_on_c, 0, 84, 89
1, 465327, Note_off_c, 0, 38, 62
1, 465333, Note_on_c, 0, 51, 66
1, 465334, Note_on_c, 0, 39, 64
1, 465347, Control_c, 0, 64, 89
1, 465361, Control_c, 0, 64, 61
1, 465376, Control_c, 0, 64, 0
1, 465466, Control_c, 0, 64, 59
1, 465480, Control_c, 0, 64, 71
1, 465495, Control_c, 0, 64, 87
1, 465510, Control_c, 0, 64, 127
1, 465629, Note_off_c, 0, 39, 60
1, 465656, Note_off_c, 0, 51, 56
1, 465859, Note_off_c, 0, 79, 49
1, 465961, Note_on_c, 0, 86, 93
1, 465971, Note_off_c, 0, 84, 60
1, 465986, Note_on_c, 0, 77, 76
1, 465991, Note_on_c, 0, 44, 55
1, 465994, Note_on_c, 0, 56, 55
1, 466032, Note_off_c, 0, 86, 64
1, 466083, Note_off_c, 0, 77, 55
1, 466102, Note_off_c, 0, 56, 60
1, 466157, Note_on_c, 0, 84, 82
1, 466178, Note_on_c, 0, 75, 58
1, 466181, Note_off_c, 0, 44, 29
1, 466208, Note_on_c, 0, 43, 55
1, 466214, Control_c, 0, 64, 97
1, 466217, Note_on_c, 0, 55, 46
1, 466229, Control_c, 0, 64, 64
1, 466244, Control_c, 0, 64, 0
1, 466347, Control_c, 0, 64, 44
1, 466362, Control_c, 0, 64, 56
1, 466377, Control_c, 0, 64, 62
1, 466392, Control_c, 0, 64, 65
1, 466407, Control_c, 0, 64, 68
1, 466421, Control_c, 0, 64, 74
1, 466436, Control_c, 0, 64, 80
1, 466458, Control_c, 0, 64, 87
1, 466473, Control_c, 0, 64, 95
1, 466488, Control_c, 0, 64, 106
1, 466503, Control_c, 0, 64, 127
1, 466697, Note_off_c, 0, 84, 32
1, 466933, Control_c, 0, 64, 107
1, 466948, Control_c, 0, 64, 92
1, 466952, Note_on_c, 0, 83, 62
1, 466963, Control_c, 0, 64, 80
1, 466964, Note_on_c, 0, 74, 40
1, 466969, Note_off_c, 0, 75, 62
1, 466977, Control_c, 0, 64, 68
1, 466992, Control_c, 0, 64, 31
1, 467007, Control_c, 0, 64, 0
1, 467081, Control_c, 0, 64, 38
1, 467096, Control_c, 0, 64, 65
1, 467111, Control_c, 0, 64, 74
1, 467126, Control_c, 0, 64, 86
1, 467141, Control_c, 0, 64, 98
1, 467156, Control_c, 0, 64, 125
1, 467170, Control_c, 0, 64, 127
1, 467183, Note_off_c, 0, 74, 58
1, 467183, Note_off_c, 0, 83, 60
1, 467250, Note_off_c, 0, 55, 63
1, 467257, Note_off_c, 0, 43, 61
1, 467576, Control_c, 0, 64, 105
1, 467591, Control_c, 0, 64, 88
1, 467606, Control_c, 0, 64, 76
1, 467606, Control_c, 0, 67, 9
1, 467622, Control_c, 0, 64, 65
1, 467622, Control_c, 0, 67, 10
1, 467637, Control_c, 0, 64, 36
1, 467637, Control_c, 0, 67, 11
1, 467652, Control_c, 0, 64, 0
1, 467652, Control_c, 0, 67, 12
1, 467667, Control_c, 0, 67, 13
1, 467711, Control_c, 0, 67, 14
1, 467740, Control_c, 0, 64, 33
1, 467740, Control_c, 0, 67, 14
1, 467754, Note_on_c, 0, 67, 58
1, 467755, Control_c, 0, 64, 64
1, 467755, Control_c, 0, 67, 15
1, 467770, Control_c, 0, 64, 74
1, 467770, Control_c, 0, 67, 17
1, 467785, Control_c, 0, 64, 86
1, 467785, Control_c, 0, 67, 18
1, 467800, Control_c, 0, 64, 98
1, 467800, Control_c, 0, 67, 19
1, 467814, Note_off_c, 0, 67, 47
1, 467815, Control_c, 0, 64, 109
1, 467815, Control_c, 0, 67, 20
1, 467830, Control_c, 0, 64, 127
1, 467830, Control_c, 0, 67, 22
1, 467845, Control_c, 0, 67, 25
1, 467859, Control_c, 0, 67, 28
1, 467874, Note_on_c, 0, 67, 52
1, 467874, Control_c, 0, 67, 32
1, 467889, Control_c, 0, 67, 35
1, 467904, Control_c, 0, 67, 38
1, 467918, Control_c, 0, 67, 39
1, 467933, Control_c, 0, 67, 42
1, 467955, Control_c, 0, 67, 45
1, 467970, Control_c, 0, 67, 48
1, 467975, Note_off_c, 0, 67, 37
1, 467985, Control_c, 0, 67, 51
1, 468000, Control_c, 0, 67, 55
1, 468014, Control_c, 0, 67, 58
1, 468029, Control_c, 0, 67, 62
1, 468044, Control_c, 0, 67, 65
1, 468059, Control_c, 0, 67, 68
1, 468074, Control_c, 0, 67, 72
1, 468078, Note_on_c, 0, 67, 55
1, 468089, Control_c, 0, 67, 78
1, 468104, Control_c, 0, 67, 86
1, 468119, Control_c, 0, 67, 94
1, 468133, Control_c, 0, 67, 104
1, 468148, Control_c, 0, 67, 115
1, 468163, Control_c, 0, 67, 127
1, 468172, Note_off_c, 0, 67, 37
1, 468254, Note_on_c, 0, 67, 52
1, 468350, Note_off_c, 0, 67, 38
1, 468426, Note_on_c, 0, 67, 46
1, 468503, Note_off_c, 0, 67, 45
1, 468615, Note_on_c, 0, 67, 41
1, 468703, Note_off_c, 0, 67, 39
1, 468812, Note_on_c, 0, 67, 32
1, 468873, Note_off_c, 0, 67, 42
1, 468997, Note_on_c, 0, 67, 40
1, 469079, Note_off_c, 0, 67, 40
1, 469171, Note_on_c, 0, 67, 40
1, 469268, Note_off_c, 0, 67, 38
1, 469344, Note_on_c, 0, 67, 36
1, 469456, Note_off_c, 0, 67, 37
1, 469527, Note_on_c, 0, 67, 29
1, 469649, Note_off_c, 0, 67, 37
1, 469746, Note_on_c, 0, 67, 43
1, 469809, Note_off_c, 0, 67, 43
1, 469990, Note_on_c, 0, 72, 58
1, 470001, Control_c, 0, 64, 95
1, 470017, Control_c, 0, 64, 78
1, 470031, Note_on_c, 0, 64, 36
1, 470032, Control_c, 0, 64, 64
1, 470047, Control_c, 0, 64, 39
1, 470048, Note_on_c, 0, 67, 20
1, 470061, Control_c, 0, 64, 0
1, 470091, Control_c, 0, 64, 38
1, 470106, Control_c, 0, 64, 53
1, 470120, Control_c, 0, 64, 63
1, 470135, Control_c, 0, 64, 68
1, 470150, Control_c, 0, 64, 76
1, 470165, Control_c, 0, 64, 82
1, 470167, Note_off_c, 0, 64, 46
1, 470180, Control_c, 0, 64, 85
1, 470202, Control_c, 0, 64, 88
1, 470216, Control_c, 0, 64, 88
1, 470280, Note_off_c, 0, 67, 40
1, 470319, Control_c, 0, 64, 87
1, 470334, Control_c, 0, 64, 84
1, 470349, Control_c, 0, 64, 80
1, 470364, Control_c, 0, 64, 77
1, 470379, Control_c, 0, 64, 73
1, 470393, Control_c, 0, 64, 70
1, 470408, Control_c, 0, 64, 67
1, 470423, Control_c, 0, 64, 64
1, 470425, Note_on_c, 0, 71, 56
1, 470438, Control_c, 0, 64, 57
1, 470453, Control_c, 0, 64, 0
1, 470484, Note_on_c, 0, 55, 25
1, 470531, Note_off_c, 0, 72, 50
1, 470557, Control_c, 0, 64, 47
1, 470572, Control_c, 0, 64, 62
1, 470587, Control_c, 0, 64, 66
1, 470601, Control_c, 0, 64, 67
1, 470616, Control_c, 0, 64, 69
1, 470631, Control_c, 0, 64, 72
1, 470645, Control_c, 0, 64, 72
1, 470653, Note_off_c, 0, 55, 40
1, 470764, Control_c, 0, 64, 72
1, 470779, Control_c, 0, 64, 71
1, 470793, Control_c, 0, 64, 71
1, 470808, Control_c, 0, 64, 70
1, 470824, Control_c, 0, 64, 69
1, 470827, Note_on_c, 0, 62, 36
1, 470828, Note_on_c, 0, 65, 31
1, 470839, Control_c, 0, 64, 68
1, 470854, Control_c, 0, 64, 67
1, 470863, Note_off_c, 0, 65, 50
1, 470868, Control_c, 0, 64, 66
1, 470875, Note_off_c, 0, 62, 42
1, 470883, Control_c, 0, 64, 65
1, 470898, Control_c, 0, 64, 65
1, 470913, Control_c, 0, 64, 64
1, 470924, Note_on_c, 0, 65, 42
1, 470928, Note_on_c, 0, 62, 30
1, 470928, Control_c, 0, 64, 63
1, 470950, Control_c, 0, 64, 62
1, 470966, Control_c, 0, 64, 62
1, 470980, Control_c, 0, 64, 61
1, 470995, Note_off_c, 0, 65, 42
1, 470995, Control_c, 0, 64, 61
1, 471007, Note_off_c, 0, 62, 36
1, 471010, Control_c, 0, 64, 59
1, 471025, Control_c, 0, 64, 57
1, 471040, Control_c, 0, 64, 54
1, 471055, Control_c, 0, 64, 52
1, 471069, Control_c, 0, 64, 46
1, 471084, Control_c, 0, 64, 30
1, 471099, Control_c, 0, 64, 0
1, 471180, Note_on_c, 0, 69, 50
1, 471210, Note_off_c, 0, 71, 52
1, 471226, Note_on_c, 0, 55, 30
1, 471232, Control_c, 0, 64, 49
1, 471247, Control_c, 0, 64, 60
1, 471261, Control_c, 0, 64, 63
1, 471276, Control_c, 0, 64, 63
1, 471291, Control_c, 0, 64, 64
1, 471306, Control_c, 0, 64, 64
1, 471321, Control_c, 0, 64, 65
1, 471365, Note_off_c, 0, 55, 34
1, 471395, Control_c, 0, 64, 64
1, 471440, Control_c, 0, 64, 64
1, 471469, Control_c, 0, 64, 63
1, 471484, Control_c, 0, 64, 63
1, 471514, Control_c, 0, 64, 62
1, 471529, Control_c, 0, 64, 62
1, 471549, Note_on_c, 0, 60, 45
1, 471554, Note_on_c, 0, 64, 37
1, 471558, Control_c, 0, 64, 61
1, 471573, Control_c, 0, 64, 61
1, 471579, Note_off_c, 0, 60, 57
1, 471586, Note_off_c, 0, 64, 53
1, 471587, Control_c, 0, 64, 60
1, 471602, Control_c, 0, 64, 59
1, 471618, Control_c, 0, 64, 59
1, 471648, Control_c, 0, 64, 58
1, 471654, Note_on_c, 0, 81, 74
1, 471663, Control_c, 0, 64, 58
1, 471692, Note_on_c, 0, 64, 40
1, 471699, Control_c, 0, 64, 57
1, 471708, Note_on_c, 0, 60, 32
1, 471711, Note_off_c, 0, 69, 58
1, 471729, Control_c, 0, 64, 57
1, 471731, Note_off_c, 0, 64, 49
1, 471743, Note_off_c, 0, 60, 46
1, 471744, Control_c, 0, 64, 56
1, 471773, Control_c, 0, 64, 56
1, 471803, Control_c, 0, 64, 55
1, 471878, Control_c, 0, 64, 55
1, 471907, Control_c, 0, 64, 54
1, 471911, Note_on_c, 0, 79, 70
1, 471918, Note_off_c, 0, 81, 60
1, 471937, Note_on_c, 0, 67, 54
1, 471951, Note_on_c, 0, 55, 40
1, 471968, Note_off_c, 0, 67, 61
1, 471981, Control_c, 0, 64, 55
1, 471986, Note_off_c, 0, 55, 60
1, 472099, Control_c, 0, 64, 55
1, 472134, Note_on_c, 0, 71, 61
1, 472150, Note_on_c, 0, 59, 45
1, 472152, Note_on_c, 0, 62, 46
1, 472173, Note_off_c, 0, 71, 58
1, 472184, Note_off_c, 0, 62, 53
1, 472185, Note_off_c, 0, 59, 55
1, 472319, Note_on_c, 0, 72, 59
1, 472327, Note_on_c, 0, 59, 38
1, 472328, Note_on_c, 0, 62, 44
1, 472352, Control_c, 0, 64, 56
1, 472356, Note_off_c, 0, 72, 59
1, 472364, Note_off_c, 0, 62, 52
1, 472373, Note_off_c, 0, 59, 48
1, 472414, Note_off_c, 0, 79, 47
1, 472507, Note_on_c, 0, 74, 66
1, 472522, Note_on_c, 0, 53, 53
1, 472523, Note_on_c, 0, 67, 62
1, 472581, Note_off_c, 0, 53, 59
1, 472593, Note_off_c, 0, 74, 63
1, 472697, Note_on_c, 0, 76, 68
1, 472700, Control_c, 0, 64, 56
1, 472709, Note_on_c, 0, 62, 47
1, 472710, Note_on_c, 0, 59, 47
1, 472715, Note_on_c, 0, 55, 41
1, 472745, Control_c, 0, 64, 57
1, 472750, Note_off_c, 0, 59, 60
1, 472752, Note_off_c, 0, 76, 62
1, 472753, Note_off_c, 0, 62, 49
1, 472766, Note_off_c, 0, 55, 52
1, 472860, Note_off_c, 0, 67, 49
1, 472867, Note_on_c, 0, 77, 70
1, 472876, Note_on_c, 0, 59, 43
1, 472879, Note_on_c, 0, 62, 47
1, 472882, Note_on_c, 0, 55, 49
1, 472917, Note_off_c, 0, 62, 49
1, 472922, Note_off_c, 0, 59, 57
1, 472928, Note_off_c, 0, 55, 60
1, 472935, Note_off_c, 0, 77, 61
1, 473011, Control_c, 0, 64, 56
1, 473026, Control_c, 0, 64, 55
1, 473040, Control_c, 0, 64, 50
1, 473049, Note_on_c, 0, 79, 79
1, 473053, Note_on_c, 0, 52, 59
1, 473055, Note_on_c, 0, 72, 67
1, 473055, Control_c, 0, 64, 34
1, 473070, Control_c, 0, 64, 0
1, 473116, Note_off_c, 0, 72, 61
1, 473119, Note_off_c, 0, 52, 59
1, 473240, Note_on_c, 0, 76, 73
1, 473244, Note_on_c, 0, 60, 55
1, 473245, Note_on_c, 0, 64, 55
1, 473253, Note_on_c, 0, 55, 47
1, 473278, Note_off_c, 0, 64, 61
1, 473283, Note_off_c, 0, 60, 59
1, 473295, Note_off_c, 0, 55, 59
1, 473310, Note_off_c, 0, 76, 62
1, 473407, Note_on_c, 0, 60, 56
1, 473408, Note_on_c, 0, 77, 73
1, 473419, Note_on_c, 0, 64, 44
1, 473430, Note_on_c, 0, 55, 26
1, 473433, Note_off_c, 0, 79, 43
1, 473449, Note_off_c, 0, 64, 56
1, 473471, Note_off_c, 0, 77, 62
1, 473472, Note_off_c, 0, 60, 57
1, 473481, Note_off_c, 0, 55, 44
1, 473611, Note_on_c, 0, 77, 64
1, 473613, Note_on_c, 0, 79, 63
1, 473618, Note_on_c, 0, 50, 42
1, 473657, Note_off_c, 0, 50, 51
1, 473680, Note_off_c, 0, 79, 58
1, 473832, Note_on_c, 0, 65, 42
1, 473833, Note_on_c, 0, 81, 60
1, 473838, Note_on_c, 0, 55, 43
1, 473843, Note_on_c, 0, 59, 40
1, 473876, Note_off_c, 0, 65, 46
1, 473878, Note_off_c, 0, 59, 55
1, 473879, Note_off_c, 0, 55, 61
1, 473887, Note_off_c, 0, 81, 56
1, 474034, Note_on_c, 0, 83, 50
1, 474037, Note_off_c, 0, 77, 56
1, 474039, Note_on_c, 0, 65, 37
1, 474040, Note_on_c, 0, 55, 33
1, 474052, Note_on_c, 0, 59, 12
1, 474087, Note_off_c, 0, 83, 57
1, 474093, Note_off_c, 0, 65, 48
1, 474093, Note_off_c, 0, 55, 62
1, 474096, Note_off_c, 0, 59, 45
1, 474207, Note_on_c, 0, 83, 52
1, 474265, Note_off_c, 0, 83, 46
1, 474301, Note_on_c, 0, 48, 44
1, 474366, Note_on_c, 0, 86, 58
1, 474369, Note_off_c, 0, 48, 61
1, 474388, Note_on_c, 0, 76, 42
1, 474622, Note_on_c, 0, 55, 40
1, 474631, Note_on_c, 0, 64, 28
1, 474633, Note_on_c, 0, 60, 31
1, 474664, Note_off_c, 0, 55, 57
1, 474668, Note_off_c, 0, 64, 51
1, 474669, Note_off_c, 0, 60, 51
1, 474806, Note_on_c, 0, 64, 40
1, 474811, Note_on_c, 0, 55, 42
1, 474811, Note_on_c, 0, 60, 34
1, 474850, Note_off_c, 0, 60, 50
1, 474855, Note_off_c, 0, 64, 44
1, 474859, Note_off_c, 0, 55, 57
1, 474997, Note_on_c, 0, 55, 42
1, 474999, Note_on_c, 0, 84, 58
1, 475003, Note_on_c, 0, 64, 40
1, 475005, Note_on_c, 0, 60, 26
1, 475025, Note_off_c, 0, 55, 60
1, 475029, Note_off_c, 0, 86, 59
1, 475040, Note_off_c, 0, 60, 41
1, 475069, Note_off_c, 0, 64, 58
1, 475170, Note_on_c, 0, 67, 58
1, 475180, Note_off_c, 0, 84, 63
1, 475187, Note_off_c, 0, 76, 54
1, 475202, Note_off_c, 0, 67, 61
1, 475335, Note_on_c, 0, 84, 74
1, 475351, Note_on_c, 0, 76, 51
1, 475359, Note_on_c, 0, 67, 57
1, 475397, Note_off_c, 0, 67, 60
1, 475574, Note_on_c, 0, 83, 70
1, 475579, Note_off_c, 0, 76, 65
1, 475580, Note_on_c, 0, 74, 59
1, 475583, Note_on_c, 0, 67, 46
1, 475647, Note_off_c, 0, 84, 62
1, 475714, Note_off_c, 0, 67, 46
1, 475772, Note_on_c, 0, 55, 43
1, 475816, Note_off_c, 0, 55, 60
1, 475928, Note_on_c, 0, 55, 56
1, 475928, Note_off_c, 0, 74, 60
1, 475973, Note_off_c, 0, 55, 61
1, 476105, Note_on_c, 0, 55, 47
1, 476108, Note_on_c, 0, 81, 63
1, 476139, Note_on_c, 0, 71, 48
1, 476142, Note_off_c, 0, 83, 58
1, 476143, Note_off_c, 0, 55, 63
1, 476294, Note_on_c, 0, 55, 51
1, 476322, Note_off_c, 0, 55, 65
1, 476469, Note_on_c, 0, 65, 65
1, 476469, Note_off_c, 0, 71, 36
1, 476657, Note_off_c, 0, 81, 50
1, 476675, Note_on_c, 0, 79, 61
1, 476680, Note_on_c, 0, 64, 70
1, 476690, Note_on_c, 0, 72, 46
1, 476725, Note_off_c, 0, 65, 59
1, 476734, Note_off_c, 0, 72, 49
1, 476752, Note_off_c, 0, 79, 57
1, 476867, Note_on_c, 0, 67, 61
1, 476867, Note_on_c, 0, 83, 63
1, 476922, Note_off_c, 0, 67, 58
1, 476945, Note_off_c, 0, 83, 57
1, 477044, Note_on_c, 0, 84, 65
1, 477046, Note_on_c, 0, 67, 60
1, 477085, Note_off_c, 0, 84, 62
1, 477091, Note_off_c, 0, 67, 53
1, 477231, Note_on_c, 0, 86, 70
1, 477254, Note_on_c, 0, 67, 40
1, 477254, Note_on_c, 0, 83, 50
1, 477257, Note_on_c, 0, 62, 51
1, 477268, Note_off_c, 0, 64, 57
1, 477297, Note_off_c, 0, 86, 61
1, 477301, Note_off_c, 0, 67, 57
1, 477416, Note_on_c, 0, 88, 60
1, 477423, Note_on_c, 0, 67, 52
1, 477467, Note_off_c, 0, 67, 59
1, 477470, Note_off_c, 0, 88, 59
1, 477585, Note_on_c, 0, 89, 61
1, 477586, Note_on_c, 0, 67, 53
1, 477622, Control_c, 0, 64, 10
1, 477623, Note_off_c, 0, 67, 59
1, 477631, Note_off_c, 0, 83, 59
1, 477637, Control_c, 0, 64, 14
1, 477652, Control_c, 0, 64, 15
1, 477668, Note_off_c, 0, 89, 59
1, 477690, Control_c, 0, 64, 17
1, 477779, Control_c, 0, 64, 18
1, 477799, Note_on_c, 0, 67, 27
1, 477801, Note_on_c, 0, 88, 59
1, 477809, Control_c, 0, 64, 20
1, 477813, Note_off_c, 0, 62, 55
1, 477822, Note_on_c, 0, 84, 44
1, 477824, Control_c, 0, 64, 23
1, 477828, Note_on_c, 0, 60, 47
1, 477838, Control_c, 0, 64, 24
1, 477853, Control_c, 0, 64, 26
1, 477868, Control_c, 0, 64, 26
1, 477869, Note_off_c, 0, 84, 60
1, 477883, Control_c, 0, 64, 28
1, 477898, Control_c, 0, 64, 29
1, 477912, Control_c, 0, 64, 29
1, 477927, Control_c, 0, 64, 30
1, 477971, Control_c, 0, 64, 31
1, 477986, Control_c, 0, 64, 32
1, 478000, Note_on_c, 0, 64, 57
1, 478000, Note_on_c, 0, 84, 49
1, 478001, Control_c, 0, 64, 32
1, 478017, Control_c, 0, 64, 34
1, 478032, Control_c, 0, 64, 35
1, 478045, Note_off_c, 0, 67, 51
1, 478047, Control_c, 0, 64, 36
1, 478051, Note_off_c, 0, 84, 60
1, 478061, Control_c, 0, 64, 38
1, 478076, Control_c, 0, 64, 39
1, 478091, Control_c, 0, 64, 39
1, 478100, Note_off_c, 0, 60, 49
1, 478106, Control_c, 0, 64, 40
1, 478121, Control_c, 0, 64, 41
1, 478135, Control_c, 0, 64, 42
1, 478150, Control_c, 0, 64, 43
1, 478165, Control_c, 0, 64, 44
1, 478170, Note_off_c, 0, 88, 64
1, 478179, Note_on_c, 0, 84, 60
1, 478180, Control_c, 0, 64, 45
1, 478181, Note_on_c, 0, 65, 72
1, 478195, Control_c, 0, 64, 45
1, 478221, Note_off_c, 0, 64, 65
1, 478255, Note_off_c, 0, 84, 58
1, 478269, Control_c, 0, 64, 45
1, 478284, Control_c, 0, 67, 123
1, 478299, Control_c, 0, 64, 44
1, 478299, Control_c, 0, 67, 117
1, 478313, Control_c, 0, 67, 112
1, 478328, Control_c, 0, 64, 44
1, 478328, Control_c, 0, 67, 107
1, 478343, Control_c, 0, 64, 43
1, 478343, Control_c, 0, 67, 102
1, 478358, Control_c, 0, 67, 98
1, 478373, Control_c, 0, 64, 43
1, 478373, Control_c, 0, 67, 94
1, 478384, Note_on_c, 0, 96, 79
1, 478387, Control_c, 0, 67, 89
1, 478402, Control_c, 0, 67, 84
1, 478406, Note_on_c, 0, 88, 54
1, 478407, Note_on_c, 0, 67, 61
1, 478407, Note_on_c, 0, 84, 57
1, 478417, Control_c, 0, 67, 81
1, 478419, Note_off_c, 0, 65, 62
1, 478439, Control_c, 0, 64, 42
1, 478439, Control_c, 0, 67, 78
1, 478453, Control_c, 0, 64, 42
1, 478453, Control_c, 0, 67, 75
1, 478468, Control_c, 0, 67, 73
1, 478483, Control_c, 0, 67, 70
1, 478494, Note_off_c, 0, 84, 58
1, 478498, Control_c, 0, 64, 41
1, 478498, Control_c, 0, 67, 65
1, 478513, Control_c, 0, 67, 61
1, 478527, Control_c, 0, 64, 41
1, 478527, Control_c, 0, 67, 57
1, 478542, Control_c, 0, 64, 40
1, 478542, Control_c, 0, 67, 55
1, 478557, Control_c, 0, 67, 53
1, 478572, Control_c, 0, 64, 40
1, 478572, Control_c, 0, 67, 51
1, 478586, Control_c, 0, 67, 48
1, 478601, Control_c, 0, 67, 45
1, 478602, Note_on_c, 0, 84, 67
1, 478609, Note_on_c, 0, 69, 68
1, 478616, Control_c, 0, 67, 43
1, 478631, Control_c, 0, 67, 42
1, 478646, Control_c, 0, 67, 40
1, 478660, Control_c, 0, 67, 37
1, 478666, Note_off_c, 0, 67, 44
1, 478674, Note_off_c, 0, 84, 62
1, 478675, Control_c, 0, 67, 35
1, 478690, Control_c, 0, 67, 31
1, 478705, Control_c, 0, 64, 39
1, 478705, Control_c, 0, 67, 27
1, 478720, Control_c, 0, 67, 23
1, 478734, Control_c, 0, 64, 39
1, 478734, Control_c, 0, 67, 19
1, 478749, Control_c, 0, 64, 38
1, 478749, Control_c, 0, 67, 15
1, 478764, Control_c, 0, 64, 37
1, 478764, Control_c, 0, 67, 12
1, 478779, Control_c, 0, 64, 36
1, 478779, Control_c, 0, 67, 8
1, 478790, Note_on_c, 0, 84, 63
1, 478793, Note_on_c, 0, 70, 73
1, 478793, Control_c, 0, 64, 36
1, 478793, Control_c, 0, 67, 0
1, 478809, Control_c, 0, 64, 35
1, 478824, Control_c, 0, 64, 34
1, 478833, Note_off_c, 0, 69, 64
1, 478839, Control_c, 0, 64, 34
1, 478854, Control_c, 0, 64, 33
1, 478860, Note_off_c, 0, 88, 63
1, 478869, Control_c, 0, 64, 32
1, 478883, Control_c, 0, 64, 31
1, 478898, Control_c, 0, 64, 28
1, 478907, Note_off_c, 0, 84, 55
1, 478913, Control_c, 0, 64, 25
1, 478928, Control_c, 0, 64, 23
1, 478943, Control_c, 0, 64, 21
1, 478947, Note_off_c, 0, 96, 62
1, 478957, Control_c, 0, 64, 12
1, 478972, Control_c, 0, 64, 0
1, 479042, Note_on_c, 0, 96, 77
1, 479065, Note_on_c, 0, 89, 56
1, 479077, Note_on_c, 0, 69, 52
1, 479080, Note_on_c, 0, 84, 40
1, 479092, Note_off_c, 0, 70, 56
1, 479261, Control_c, 0, 64, 32
1, 479276, Control_c, 0, 64, 47
1, 479291, Control_c, 0, 64, 55
1, 479306, Note_on_c, 0, 93, 75
1, 479306, Control_c, 0, 64, 60
1, 479321, Control_c, 0, 64, 62
1, 479336, Control_c, 0, 64, 64
1, 479347, Note_on_c, 0, 77, 43
1, 479351, Control_c, 0, 64, 66
1, 479365, Control_c, 0, 64, 69
1, 479376, Note_off_c, 0, 89, 62
1, 479380, Control_c, 0, 64, 73
1, 479393, Note_off_c, 0, 77, 48
1, 479395, Control_c, 0, 64, 76
1, 479409, Control_c, 0, 64, 78
1, 479424, Control_c, 0, 64, 81
1, 479439, Note_off_c, 0, 84, 42
1, 479439, Control_c, 0, 64, 83
1, 479454, Control_c, 0, 64, 84
1, 479469, Control_c, 0, 64, 85
1, 479498, Control_c, 0, 64, 86
1, 479500, Note_on_c, 0, 89, 75
1, 479508, Note_off_c, 0, 69, 66
1, 479529, Note_on_c, 0, 77, 51
1, 479532, Note_off_c, 0, 96, 37
1, 479564, Note_off_c, 0, 93, 56
1, 479692, Control_c, 0, 64, 85
1, 479703, Note_off_c, 0, 89, 62
1, 479717, Note_on_c, 0, 88, 63
1, 479762, Note_on_c, 0, 74, 43
1, 479771, Note_on_c, 0, 70, 44
1, 479795, Control_c, 0, 64, 85
1, 479810, Control_c, 0, 64, 84
1, 479825, Control_c, 0, 64, 83
1, 479838, Note_off_c, 0, 77, 37
1, 479840, Control_c, 0, 64, 81
1, 479855, Control_c, 0, 64, 77
1, 479870, Control_c, 0, 64, 71
1, 479872, Note_on_c, 0, 89, 61
1, 479884, Control_c, 0, 64, 66
1, 479887, Note_off_c, 0, 88, 54
1, 479899, Control_c, 0, 64, 59
1, 479899, Control_c, 0, 67, 8
1, 479914, Control_c, 0, 64, 50
1, 479914, Control_c, 0, 67, 13
1, 479936, Control_c, 0, 64, 48
1, 479936, Control_c, 0, 67, 16
1, 479950, Control_c, 0, 64, 51
1, 479950, Control_c, 0, 67, 19
1, 479965, Control_c, 0, 64, 55
1, 479965, Control_c, 0, 67, 22
1, 479971, Note_off_c, 0, 89, 64
1, 479980, Control_c, 0, 64, 59
1, 479980, Control_c, 0, 67, 25
1, 479989, Note_on_c, 0, 91, 60
1, 479995, Control_c, 0, 64, 62
1, 479995, Control_c, 0, 67, 28
1, 480010, Control_c, 0, 64, 63
1, 480010, Control_c, 0, 67, 31
1, 480016, Note_on_c, 0, 77, 42
1, 480025, Control_c, 0, 64, 64
1, 480025, Control_c, 0, 67, 35
1, 480039, Control_c, 0, 64, 65
1, 480039, Control_c, 0, 67, 39
1, 480054, Control_c, 0, 64, 65
1, 480054, Control_c, 0, 67, 42
1, 480054, Note_on_c, 0, 89, 57
1, 480057, Note_off_c, 0, 91, 56
1, 480069, Control_c, 0, 64, 66
1, 480069, Control_c, 0, 67, 45
1, 480078, Note_off_c, 0, 77, 43
1, 480084, Control_c, 0, 64, 66
1, 480084, Control_c, 0, 67, 47
1, 480099, Control_c, 0, 67, 49
1, 480113, Control_c, 0, 67, 51
1, 480120, Note_on_c, 0, 88, 60
1, 480128, Control_c, 0, 67, 52
1, 480143, Control_c, 0, 64, 67
1, 480143, Control_c, 0, 67, 53
1, 480151, Note_off_c, 0, 89, 56
1, 480157, Control_c, 0, 64, 67
1, 480157, Control_c, 0, 67, 55
1, 480172, Control_c, 0, 64, 68
1, 480172, Control_c, 0, 67, 57
1, 480182, Note_off_c, 0, 88, 63
1, 480187, Control_c, 0, 64, 68
1, 480187, Control_c, 0, 67, 59
1, 480194, Note_on_c, 0, 86, 58
1, 480201, Note_on_c, 0, 77, 47
1, 480202, Control_c, 0, 64, 69
1, 480202, Control_c, 0, 67, 62
1, 480217, Control_c, 0, 64, 71
1, 480217, Control_c, 0, 67, 66
1, 480221, Note_off_c, 0, 86, 59
1, 480231, Control_c, 0, 67, 69
1, 480246, Control_c, 0, 67, 73
1, 480259, Note_on_c, 0, 84, 55
1, 480261, Control_c, 0, 67, 77
1, 480262, Note_off_c, 0, 77, 44
1, 480276, Control_c, 0, 67, 81
1, 480291, Control_c, 0, 67, 85
1, 480305, Control_c, 0, 67, 89
1, 480320, Control_c, 0, 67, 93
1, 480325, Note_off_c, 0, 74, 37
1, 480333, Note_off_c, 0, 70, 36
1, 480335, Control_c, 0, 67, 96
1, 480343, Note_off_c, 0, 84, 55
1, 480347, Note_on_c, 0, 82, 54
1, 480349, Control_c, 0, 67, 99
1, 480364, Control_c, 0, 67, 102
1, 480379, Control_c, 0, 67, 104
1, 480395, Control_c, 0, 64, 70
1, 480395, Control_c, 0, 67, 107
1, 480410, Control_c, 0, 64, 70
1, 480410, Control_c, 0, 67, 110
1, 480425, Control_c, 0, 64, 69
1, 480425, Control_c, 0, 67, 113
1, 480440, Control_c, 0, 64, 69
1, 480440, Control_c, 0, 67, 116
1, 480454, Control_c, 0, 64, 68
1, 480454, Control_c, 0, 67, 119
1, 480469, Control_c, 0, 64, 68
1, 480469, Control_c, 0, 67, 121
1, 480484, Control_c, 0, 64, 67
1, 480484, Control_c, 0, 67, 123
1, 480499, Control_c, 0, 64, 67
1, 480499, Control_c, 0, 67, 124
1, 480514, Control_c, 0, 64, 66
1, 480514, Control_c, 0, 67, 125
1, 480528, Control_c, 0, 64, 65
1, 480528, Control_c, 0, 67, 126
1, 480543, Control_c, 0, 64, 65
1, 480543, Control_c, 0, 67, 127
1, 480558, Control_c, 0, 64, 64
1, 480569, Note_on_c, 0, 81, 52
1, 480573, Control_c, 0, 64, 64
1, 480588, Control_c, 0, 64, 63
1, 480598, Note_on_c, 0, 77, 34
1, 480601, Note_on_c, 0, 72, 33
1, 480603, Control_c, 0, 64, 63
1, 480618, Control_c, 0, 64, 62
1, 480633, Control_c, 0, 64, 61
1, 480647, Control_c, 0, 64, 60
1, 480659, Note_off_c, 0, 82, 37
1, 480662, Control_c, 0, 64, 56
1, 480684, Control_c, 0, 64, 51
1, 480699, Control_c, 0, 64, 44
1, 480714, Control_c, 0, 64, 28
1, 480728, Control_c, 0, 64, 0
1, 481233, Control_c, 0, 67, 127
1, 481351, Note_on_c, 0, 79, 28
1, 481362, Note_off_c, 0, 81, 35
1, 481363, Note_off_c, 0, 77, 38
1, 481370, Note_on_c, 0, 76, 19
1, 481411, Control_c, 0, 67, 126
1, 481433, Control_c, 0, 67, 126
1, 481463, Control_c, 0, 64, 15
1, 481463, Control_c, 0, 67, 125
1, 481477, Control_c, 0, 64, 52
1, 481477, Control_c, 0, 67, 125
1, 481492, Control_c, 0, 64, 62
1, 481507, Control_c, 0, 64, 65
1, 481522, Control_c, 0, 64, 67
1, 481522, Control_c, 0, 67, 124
1, 481537, Control_c, 0, 64, 72
1, 481537, Control_c, 0, 67, 124
1, 481549, Note_off_c, 0, 76, 42
1, 481551, Control_c, 0, 64, 77
1, 481554, Note_off_c, 0, 79, 40
1, 481566, Control_c, 0, 64, 82
1, 481581, Control_c, 0, 64, 88
1, 481585, Note_off_c, 0, 72, 43
1, 481596, Control_c, 0, 64, 97
1, 481596, Control_c, 0, 67, 123
1, 481610, Control_c, 0, 64, 106
1, 481625, Control_c, 0, 64, 127
1, 481640, Control_c, 0, 67, 123
1, 481700, Control_c, 0, 67, 122
1, 481730, Control_c, 0, 67, 122
1, 481745, Control_c, 0, 67, 121
1, 481759, Control_c, 0, 67, 121
1, 481774, Control_c, 0, 67, 120
1, 481789, Control_c, 0, 67, 120
1, 481803, Control_c, 0, 67, 119
1, 481818, Control_c, 0, 67, 119
1, 481833, Control_c, 0, 67, 118
1, 481848, Control_c, 0, 67, 117
1, 481863, Control_c, 0, 67, 116
1, 481877, Control_c, 0, 64, 116
1, 481877, Control_c, 0, 67, 114
1, 481892, Control_c, 0, 64, 105
1, 481892, Control_c, 0, 67, 111
1, 481907, Control_c, 0, 64, 95
1, 481907, Control_c, 0, 67, 108
1, 481921, Control_c, 0, 64, 85
1, 481921, Control_c, 0, 67, 102
1, 481936, Control_c, 0, 64, 75
1, 481936, Control_c, 0, 67, 93
1, 481951, Control_c, 0, 64, 68
1, 481951, Control_c, 0, 67, 84
1, 481966, Control_c, 0, 64, 60
1, 481966, Control_c, 0, 67, 75
1, 481981, Control_c, 0, 64, 28
1, 481981, Control_c, 0, 67, 65
1, 481996, Control_c, 0, 64, 0
1, 481996, Control_c, 0, 67, 55
1, 482012, Control_c, 0, 67, 45
1, 482026, Control_c, 0, 67, 36
1, 482041, Control_c, 0, 67, 26
1, 482056, Control_c, 0, 67, 17
1, 482071, Control_c, 0, 67, 0
1, 482173, Note_on_c, 0, 79, 81
1, 482177, Note_on_c, 0, 67, 79
1, 482212, Control_c, 0, 64, 61
1, 482226, Control_c, 0, 64, 67
1, 482241, Control_c, 0, 64, 72
1, 482256, Control_c, 0, 64, 81
1, 482271, Control_c, 0, 64, 100
1, 482286, Control_c, 0, 64, 127
1, 482320, Note_off_c, 0, 79, 54
1, 482336, Note_off_c, 0, 67, 53
1, 482411, Note_on_c, 0, 67, 85
1, 482411, Note_on_c, 0, 79, 88
1, 482520, Note_off_c, 0, 79, 55
1, 482533, Note_off_c, 0, 67, 51
1, 482618, Note_on_c, 0, 79, 81
1, 482621, Note_on_c, 0, 67, 81
1, 482705, Note_off_c, 0, 79, 58
1, 482719, Note_off_c, 0, 67, 55
1, 482791, Note_on_c, 0, 79, 83
1, 482791, Note_on_c, 0, 67, 78
1, 482877, Note_off_c, 0, 79, 59
1, 482892, Note_off_c, 0, 67, 54
1, 482971, Note_on_c, 0, 79, 83
1, 482974, Note_on_c, 0, 67, 82
1, 483058, Note_off_c, 0, 79, 59
1, 483068, Note_off_c, 0, 67, 56
1, 483142, Note_on_c, 0, 79, 86
1, 483145, Note_on_c, 0, 67, 84
1, 483197, Note_off_c, 0, 67, 60
1, 483216, Note_off_c, 0, 79, 62
1, 483341, Note_on_c, 0, 84, 94
1, 483345, Control_c, 0, 64, 79
1, 483349, Note_on_c, 0, 72, 90
1, 483359, Note_on_c, 0, 55, 58
1, 483360, Control_c, 0, 64, 56
1, 483366, Note_on_c, 0, 43, 51
1, 483375, Control_c, 0, 64, 0
1, 483390, Control_c, 0, 64, 31
1, 483405, Control_c, 0, 64, 56
1, 483420, Control_c, 0, 64, 65
1, 483435, Control_c, 0, 64, 82
1, 483449, Control_c, 0, 64, 127
1, 483507, Note_off_c, 0, 55, 58
1, 483515, Note_off_c, 0, 72, 62
1, 483536, Note_off_c, 0, 43, 42
1, 483599, Note_on_c, 0, 83, 89
1, 483600, Note_on_c, 0, 71, 89
1, 483616, Note_on_c, 0, 55, 53
1, 483619, Note_on_c, 0, 43, 63
1, 483624, Note_off_c, 0, 84, 62
1, 483628, Control_c, 0, 64, 85
1, 483643, Control_c, 0, 64, 36
1, 483658, Control_c, 0, 64, 0
1, 483724, Control_c, 0, 64, 37
1, 483727, Note_off_c, 0, 43, 59
1, 483731, Note_off_c, 0, 55, 56
1, 483739, Control_c, 0, 64, 75
1, 483754, Control_c, 0, 64, 94
1, 483769, Control_c, 0, 64, 127
1, 483802, Note_on_c, 0, 55, 56
1, 483807, Note_on_c, 0, 43, 63
1, 483877, Note_off_c, 0, 43, 60
1, 483880, Note_off_c, 0, 55, 59
1, 483952, Note_on_c, 0, 55, 57
1, 483954, Note_on_c, 0, 43, 63
1, 484022, Note_off_c, 0, 71, 56
1, 484031, Note_off_c, 0, 83, 56
1, 484034, Note_off_c, 0, 55, 60
1, 484044, Note_off_c, 0, 43, 58
1, 484125, Note_on_c, 0, 81, 85
1, 484126, Note_on_c, 0, 43, 65
1, 484128, Note_on_c, 0, 69, 81
1, 484129, Note_on_c, 0, 55, 65
1, 484203, Note_off_c, 0, 43, 58
1, 484203, Note_off_c, 0, 55, 58
1, 484295, Note_on_c, 0, 55, 63
1, 484299, Note_on_c, 0, 43, 74
1, 484365, Note_off_c, 0, 55, 61
1, 484422, Note_off_c, 0, 43, 61
1, 484443, Control_c, 0, 64, 73
1, 484458, Control_c, 0, 64, 0
1, 484476, Note_on_c, 0, 41, 87
1, 484477, Note_on_c, 0, 53, 80
1, 484502, Control_c, 0, 64, 57
1, 484517, Control_c, 0, 64, 72
1, 484532, Control_c, 0, 64, 98
1, 484547, Control_c, 0, 64, 127
1, 484588, Note_off_c, 0, 81, 59
1, 484609, Note_off_c, 0, 69, 60
1, 484629, Note_off_c, 0, 53, 59
1, 484695, Control_c, 0, 64, 80
1, 484710, Control_c, 0, 64, 28
1, 484711, Note_on_c, 0, 79, 72
1, 484717, Note_on_c, 0, 67, 67
1, 484725, Control_c, 0, 64, 0
1, 484728, Note_on_c, 0, 52, 87
1, 484733, Note_on_c, 0, 40, 83
1, 484738, Note_off_c, 0, 41, 57
1, 484799, Control_c, 0, 64, 46
1, 484800, Note_off_c, 0, 67, 59
1, 484814, Control_c, 0, 64, 64
1, 484821, Note_off_c, 0, 79, 58
1, 484828, Control_c, 0, 64, 71
1, 484843, Control_c, 0, 64, 75
1, 484858, Control_c, 0, 64, 80
1, 484873, Control_c, 0, 64, 85
1, 484888, Control_c, 0, 64, 88
1, 484902, Control_c, 0, 64, 90
1, 484917, Control_c, 0, 64, 92
1, 484932, Note_on_c, 0, 83, 79
1, 484932, Control_c, 0, 64, 92
1, 484933, Note_on_c, 0, 71, 77
1, 484946, Control_c, 0, 64, 93
1, 484961, Control_c, 0, 64, 94
1, 484976, Control_c, 0, 64, 94
1, 484991, Control_c, 0, 64, 95
1, 485003, Note_off_c, 0, 71, 59
1, 485012, Note_off_c, 0, 83, 60
1, 485035, Control_c, 0, 64, 95
1, 485080, Control_c, 0, 64, 96
1, 485092, Note_on_c, 0, 72, 88
1, 485093, Note_on_c, 0, 84, 89
1, 485110, Control_c, 0, 64, 96
1, 485125, Control_c, 0, 64, 97
1, 485139, Control_c, 0, 64, 97
1, 485143, Note_off_c, 0, 52, 55
1, 485154, Control_c, 0, 64, 98
1, 485176, Note_off_c, 0, 72, 63
1, 485176, Control_c, 0, 64, 99
1, 485190, Note_off_c, 0, 84, 60
1, 485191, Control_c, 0, 64, 100
1, 485222, Control_c, 0, 64, 99
1, 485237, Control_c, 0, 64, 77
1, 485251, Control_c, 0, 64, 34
1, 485256, Note_off_c, 0, 40, 61
1, 485266, Control_c, 0, 64, 0
1, 485274, Note_on_c, 0, 74, 84
1, 485276, Note_on_c, 0, 86, 90
1, 485277, Note_on_c, 0, 50, 88
1, 485277, Note_on_c, 0, 38, 82
1, 485325, Control_c, 0, 64, 52
1, 485340, Control_c, 0, 64, 69
1, 485355, Control_c, 0, 64, 84
1, 485369, Control_c, 0, 64, 97
1, 485370, Note_off_c, 0, 74, 62
1, 485376, Note_off_c, 0, 86, 57
1, 485384, Control_c, 0, 64, 104
1, 485399, Control_c, 0, 64, 110
1, 485414, Control_c, 0, 64, 116
1, 485429, Control_c, 0, 64, 118
1, 485443, Note_on_c, 0, 88, 87
1, 485444, Note_on_c, 0, 76, 92
1, 485444, Control_c, 0, 64, 119
1, 485459, Control_c, 0, 64, 121
1, 485474, Control_c, 0, 64, 125
1, 485524, Note_off_c, 0, 76, 62
1, 485536, Note_off_c, 0, 88, 62
1, 485603, Note_on_c, 0, 89, 86
1, 485606, Note_on_c, 0, 77, 92
1, 485707, Note_off_c, 0, 50, 56
1, 485714, Note_off_c, 0, 77, 58
1, 485718, Note_off_c, 0, 89, 64
1, 485725, Control_c, 0, 64, 106
1, 485740, Control_c, 0, 64, 74
1, 485755, Control_c, 0, 64, 27
1, 485769, Control_c, 0, 64, 0
1, 485785, Note_off_c, 0, 38, 60
1, 485810, Note_on_c, 0, 88, 89
1, 485813, Note_on_c, 0, 76, 89
1, 485829, Control_c, 0, 64, 22
1, 485831, Note_on_c, 0, 48, 70
1, 485832, Note_on_c, 0, 36, 63
1, 485843, Control_c, 0, 64, 63
1, 485858, Control_c, 0, 64, 71
1, 485873, Control_c, 0, 64, 79
1, 485888, Control_c, 0, 64, 83
1, 485902, Note_off_c, 0, 48, 62
1, 485903, Control_c, 0, 64, 83
1, 485905, Note_off_c, 0, 36, 64
1, 485969, Control_c, 0, 64, 84
1, 486005, Note_on_c, 0, 52, 82
1, 486010, Note_on_c, 0, 40, 76
1, 486060, Control_c, 0, 64, 84
1, 486061, Note_off_c, 0, 52, 66
1, 486067, Note_off_c, 0, 40, 64
1, 486075, Control_c, 0, 64, 85
1, 486090, Control_c, 0, 64, 86
1, 486105, Control_c, 0, 64, 87
1, 486120, Control_c, 0, 64, 90
1, 486135, Control_c, 0, 64, 97
1, 486149, Control_c, 0, 64, 114
1, 486156, Note_on_c, 0, 53, 83
1, 486159, Note_on_c, 0, 41, 88
1, 486164, Control_c, 0, 64, 127
1, 486224, Note_off_c, 0, 88, 61
1, 486234, Note_off_c, 0, 53, 64
1, 486238, Note_off_c, 0, 41, 63
1, 486243, Note_off_c, 0, 76, 61
1, 486312, Control_c, 0, 64, 112
1, 486326, Note_on_c, 0, 74, 95
1, 486326, Note_on_c, 0, 86, 88
1, 486326, Control_c, 0, 64, 63
1, 486333, Note_on_c, 0, 55, 83
1, 486335, Note_on_c, 0, 43, 84
1, 486341, Control_c, 0, 64, 0
1, 486401, Control_c, 0, 64, 30
1, 486412, Note_off_c, 0, 55, 62
1, 486413, Note_off_c, 0, 43, 62
1, 486416, Control_c, 0, 64, 70
1, 486430, Control_c, 0, 64, 91
1, 486445, Control_c, 0, 64, 127
1, 486491, Note_on_c, 0, 45, 87
1, 486491, Note_on_c, 0, 57, 89
1, 486544, Note_off_c, 0, 57, 62
1, 486547, Note_off_c, 0, 45, 64
1, 486639, Note_on_c, 0, 58, 94
1, 486640, Note_on_c, 0, 46, 91
1, 486699, Note_off_c, 0, 74, 61
1, 486717, Note_off_c, 0, 86, 60
1, 486766, Note_off_c, 0, 58, 58
1, 486784, Note_off_c, 0, 46, 49
1, 486785, Poly_aftertouch_c, 0, 81, 127
1, 486809, Control_c, 0, 64, 71
1, 486824, Control_c, 0, 64, 0
1, 486840, Note_on_c, 0, 57, 96
1, 486840, Note_on_c, 0, 85, 77
1, 486841, Note_on_c, 0, 73, 76
1, 486842, Note_on_c, 0, 45, 90
1, 486889, Poly_aftertouch_c, 0, 81, 0
1, 486898, Control_c, 0, 64, 45
1, 486909, Note_off_c, 0, 73, 63
1, 486913, Control_c, 0, 64, 70
1, 486928, Control_c, 0, 64, 97
1, 486939, Note_off_c, 0, 85, 61
1, 486942, Control_c, 0, 64, 127
1, 486993, Note_off_c, 0, 45, 63
1, 487023, Note_on_c, 0, 88, 84
1, 487024, Note_on_c, 0, 76, 88
1, 487024, Note_off_c, 0, 57, 57
1, 487090, Note_off_c, 0, 76, 64
1, 487099, Note_off_c, 0, 88, 62
1, 487179, Note_on_c, 0, 89, 88
1, 487181, Note_on_c, 0, 77, 89
1, 487250, Note_off_c, 0, 77, 62
1, 487309, Note_off_c, 0, 89, 63
1, 487313, Control_c, 0, 64, 74
1, 487328, Control_c, 0, 64, 0
1, 487347, Note_on_c, 0, 90, 95
1, 487349, Note_on_c, 0, 78, 88
1, 487353, Note_on_c, 0, 62, 81
1, 487357, Note_on_c, 0, 58, 77
1, 487387, Control_c, 0, 64, 48
1, 487402, Control_c, 0, 64, 73
1, 487423, Control_c, 0, 64, 127
1, 487459, Note_off_c, 0, 78, 65
1, 487476, Note_off_c, 0, 62, 61
1, 487480, Note_off_c, 0, 58, 61
1, 487483, Control_c, 0, 64, 94
1, 487498, Control_c, 0, 64, 69
1, 487513, Control_c, 0, 64, 64
1, 487527, Control_c, 0, 64, 67
1, 487529, Note_on_c, 0, 91, 96
1, 487535, Note_on_c, 0, 79, 90
1, 487536, Note_on_c, 0, 62, 82
1, 487539, Note_on_c, 0, 58, 74
1, 487541, Note_off_c, 0, 90, 0
1, 487542, Control_c, 0, 64, 78
1, 487556, Note_on_c, 0, 90, 39
1, 487557, Control_c, 0, 64, 127
1, 487585, Note_off_c, 0, 90, 55
1, 487610, Note_off_c, 0, 79, 62
1, 487641, Note_off_c, 0, 62, 60
1, 487646, Note_off_c, 0, 58, 61
1, 487665, Note_off_c, 0, 91, 59
1, 487695, Note_on_c, 0, 80, 93
1, 487695, Note_on_c, 0, 92, 98
1, 487703, Note_on_c, 0, 62, 85
1, 487706, Note_on_c, 0, 58, 71
1, 487788, Note_off_c, 0, 62, 57
1, 487800, Note_off_c, 0, 58, 57
1, 487821, Note_off_c, 0, 80, 62
1, 487889, Note_off_c, 0, 92, 54
1, 487960, Note_on_c, 0, 93, 100
1, 487963, Note_on_c, 0, 81, 96
1, 487972, Note_on_c, 0, 65, 67
1, 487974, Note_on_c, 0, 62, 63
1, 487976, Note_on_c, 0, 57, 70
1, 487987, Control_c, 0, 64, 81
1, 488002, Control_c, 0, 64, 43
1, 488017, Control_c, 0, 64, 0
1, 488076, Control_c, 0, 64, 50
1, 488091, Control_c, 0, 64, 78
1, 488106, Control_c, 0, 64, 127
1, 488143, Note_off_c, 0, 81, 57
1, 488144, Note_off_c, 0, 93, 60
1, 488220, Note_on_c, 0, 93, 94
1, 488221, Note_on_c, 0, 81, 92
1, 488317, Note_off_c, 0, 93, 60
1, 488323, Note_off_c, 0, 81, 57
1, 488396, Note_on_c, 0, 93, 95
1, 488397, Note_on_c, 0, 81, 88
1, 488452, Note_off_c, 0, 65, 53
1, 488504, Note_off_c, 0, 93, 59
1, 488505, Note_off_c, 0, 81, 58
1, 488544, Control_c, 0, 64, 100
1, 488559, Control_c, 0, 64, 65
1, 488574, Control_c, 0, 64, 0
1, 488592, Note_on_c, 0, 93, 92
1, 488594, Note_off_c, 0, 62, 49
1, 488597, Note_on_c, 0, 81, 80
1, 488601, Note_on_c, 0, 61, 64
1, 488604, Note_on_c, 0, 64, 62
1, 488633, Control_c, 0, 64, 63
1, 488648, Control_c, 0, 64, 99
1, 488663, Control_c, 0, 64, 127
1, 488721, Note_off_c, 0, 64, 63
1, 488742, Note_off_c, 0, 81, 62
1, 488753, Note_off_c, 0, 93, 61
1, 488756, Note_off_c, 0, 57, 64
1, 488756, Note_off_c, 0, 61, 63
1, 488885, Control_c, 0, 64, 102
1, 488900, Control_c, 0, 64, 21
1, 488922, Control_c, 0, 64, 0
1, 489011, Note_on_c, 0, 45, 89
1, 489012, Note_on_c, 0, 33, 79
1, 489025, Control_c, 0, 64, 8
1, 489040, Control_c, 0, 64, 63
1, 489055, Control_c, 0, 64, 74
1, 489069, Control_c, 0, 64, 127
1, 489129, Note_off_c, 0, 45, 63
1, 489135, Note_off_c, 0, 33, 65
1, 489200, Note_on_c, 0, 45, 85
1, 489203, Note_on_c, 0, 33, 74
1, 489304, Note_off_c, 0, 33, 64
1, 489325, Note_off_c, 0, 45, 58
1, 489397, Note_on_c, 0, 45, 71
1, 489403, Note_on_c, 0, 33, 75
1, 489474, Note_off_c, 0, 33, 63
1, 489480, Note_off_c, 0, 45, 62
1, 489559, Note_on_c, 0, 33, 74
1, 489563, Note_on_c, 0, 45, 76
1, 489647, Note_off_c, 0, 33, 61
1, 489663, Note_off_c, 0, 45, 59
1, 489736, Note_on_c, 0, 33, 68
1, 489741, Note_on_c, 0, 45, 69
1, 489812, Note_off_c, 0, 45, 61
1, 489817, Note_off_c, 0, 33, 61
1, 489909, Note_on_c, 0, 33, 74
1, 489915, Note_on_c, 0, 45, 76
1, 489943, Note_off_c, 0, 33, 66
1, 489957, Note_off_c, 0, 45, 61
1, 490057, Control_c, 0, 64, 75
1, 490072, Control_c, 0, 64, 0
1, 490079, Note_on_c, 0, 81, 71
1, 490085, Note_on_c, 0, 69, 69
1, 490094, Note_on_c, 0, 38, 89
1, 490094, Note_on_c, 0, 50, 88
1, 490160, Control_c, 0, 64, 54
1, 490175, Control_c, 0, 64, 78
1, 490190, Control_c, 0, 64, 127
1, 490228, Note_off_c, 0, 69, 59
1, 490237, Note_off_c, 0, 50, 61
1, 490240, Note_off_c, 0, 81, 53
1, 490333, Note_on_c, 0, 81, 69
1, 490338, Note_on_c, 0, 69, 69
1, 490344, Note_on_c, 0, 49, 91
1, 490353, Note_on_c, 0, 37, 85
1, 490358, Note_off_c, 0, 38, 66
1, 490368, Control_c, 0, 64, 67
1, 490383, Control_c, 0, 64, 0
1, 490464, Control_c, 0, 64, 10
1, 490475, Note_off_c, 0, 69, 58
1, 490475, Note_off_c, 0, 81, 55
1, 490479, Control_c, 0, 64, 63
1, 490493, Control_c, 0, 64, 72
1, 490508, Control_c, 0, 64, 83
1, 490523, Control_c, 0, 64, 93
1, 490538, Control_c, 0, 64, 102
1, 490553, Control_c, 0, 64, 116
1, 490566, Note_on_c, 0, 81, 69
1, 490567, Note_on_c, 0, 69, 75
1, 490568, Control_c, 0, 64, 127
1, 490633, Note_off_c, 0, 81, 57
1, 490637, Note_off_c, 0, 69, 60
1, 490713, Note_on_c, 0, 81, 71
1, 490714, Note_on_c, 0, 69, 70
1, 490783, Note_off_c, 0, 49, 59
1, 490790, Note_off_c, 0, 81, 59
1, 490800, Note_off_c, 0, 69, 58
1, 490874, Note_off_c, 0, 37, 62
1, 490880, Note_on_c, 0, 81, 74
1, 490887, Note_on_c, 0, 69, 70
1, 490891, Note_on_c, 0, 46, 85
1, 490895, Control_c, 0, 64, 73
1, 490896, Note_on_c, 0, 34, 76
1, 490909, Control_c, 0, 64, 0
1, 490969, Control_c, 0, 64, 40
1, 490970, Note_off_c, 0, 69, 61
1, 490983, Control_c, 0, 64, 71
1, 490988, Note_off_c, 0, 81, 56
1, 490998, Control_c, 0, 64, 114
1, 491013, Control_c, 0, 64, 127
1, 491035, Note_on_c, 0, 81, 60
1, 491050, Note_on_c, 0, 69, 84
1, 491120, Note_off_c, 0, 81, 61
1, 491129, Note_off_c, 0, 69, 59
1, 491236, Note_on_c, 0, 79, 88
1, 491238, Note_on_c, 0, 67, 90
1, 491391, Note_off_c, 0, 46, 60
1, 491393, Note_off_c, 0, 67, 56
1, 491406, Note_off_c, 0, 34, 63
1, 491518, Note_on_c, 0, 77, 87
1, 491519, Note_off_c, 0, 79, 55
1, 491525, Note_on_c, 0, 65, 79
1, 491533, Note_on_c, 0, 33, 63
1, 491540, Control_c, 0, 64, 91
1, 491540, Note_on_c, 0, 45, 66
1, 491555, Control_c, 0, 64, 49
1, 491570, Control_c, 0, 64, 0
1, 491629, Control_c, 0, 64, 32
1, 491644, Control_c, 0, 64, 68
1, 491657, Note_off_c, 0, 33, 64
1, 491659, Control_c, 0, 64, 89
1, 491666, Note_off_c, 0, 45, 64
1, 491674, Control_c, 0, 64, 127
1, 491771, Note_on_c, 0, 49, 76
1, 491773, Note_on_c, 0, 37, 76
1, 491836, Note_off_c, 0, 49, 59
1, 491842, Note_off_c, 0, 37, 64
1, 491931, Note_on_c, 0, 50, 79
1, 491935, Note_on_c, 0, 38, 77
1, 491998, Note_off_c, 0, 77, 59
1, 492008, Note_off_c, 0, 38, 64
1, 492011, Note_off_c, 0, 50, 60
1, 492017, Note_off_c, 0, 65, 57
1, 492096, Control_c, 0, 64, 62
1, 492107, Note_on_c, 0, 64, 86
1, 492107, Note_on_c, 0, 76, 80
1, 492109, Note_on_c, 0, 40, 78
1, 492109, Note_on_c, 0, 52, 78
1, 492111, Control_c, 0, 64, 0
1, 492155, Control_c, 0, 64, 19
1, 492170, Control_c, 0, 64, 66
1, 492185, Control_c, 0, 64, 89
1, 492191, Note_off_c, 0, 52, 64
1, 492193, Note_off_c, 0, 40, 64
1, 492200, Control_c, 0, 64, 127
1, 492270, Note_on_c, 0, 53, 81
1, 492274, Note_on_c, 0, 41, 80
1, 492330, Note_off_c, 0, 41, 64
1, 492331, Note_off_c, 0, 53, 66
1, 492420, Note_on_c, 0, 55, 80
1, 492425, Note_on_c, 0, 43, 81
1, 492489, Note_off_c, 0, 76, 63
1, 492517, Note_off_c, 0, 64, 56
1, 492528, Note_off_c, 0, 55, 59
1, 492537, Note_off_c, 0, 43, 61
1, 492586, Control_c, 0, 64, 70
1, 492601, Control_c, 0, 64, 0
1, 492617, Note_on_c, 0, 53, 88
1, 492619, Note_on_c, 0, 74, 69
1, 492619, Note_on_c, 0, 41, 89
1, 492621, Note_on_c, 0, 62, 71
1, 492681, Control_c, 0, 64, 44
1, 492690, Note_off_c, 0, 62, 62
1, 492696, Control_c, 0, 64, 67
1, 492711, Control_c, 0, 64, 82
1, 492711, Note_off_c, 0, 74, 63
1, 492726, Control_c, 0, 64, 118
1, 492741, Control_c, 0, 64, 127
1, 492822, Note_on_c, 0, 65, 78
1, 492823, Note_on_c, 0, 77, 82
1, 492880, Note_off_c, 0, 65, 59
1, 492889, Note_off_c, 0, 53, 57
1, 492889, Note_off_c, 0, 77, 59
1, 492929, Note_on_c, 0, 44, 35
1, 492965, Note_off_c, 0, 41, 36
1, 492975, Note_off_c, 0, 44, 58
1, 492976, Note_on_c, 0, 79, 81
1, 492980, Note_on_c, 0, 67, 81
1, 493054, Note_off_c, 0, 67, 59
1, 493067, Note_off_c, 0, 79, 58
1, 493098, Poly_aftertouch_c, 0, 78, 0
1, 493126, Control_c, 0, 64, 75
1, 493140, Control_c, 0, 64, 0
1, 493152, Note_on_c, 0, 81, 79
1, 493153, Note_on_c, 0, 69, 76
1, 493161, Note_on_c, 0, 51, 92
1, 493161, Note_on_c, 0, 39, 86
1, 493215, Control_c, 0, 64, 31
1, 493223, Note_off_c, 0, 69, 65
1, 493230, Control_c, 0, 64, 63
1, 493245, Control_c, 0, 64, 73
1, 493260, Control_c, 0, 64, 83
1, 493275, Note_off_c, 0, 81, 60
1, 493275, Control_c, 0, 64, 90
1, 493290, Control_c, 0, 64, 94
1, 493304, Control_c, 0, 64, 99
1, 493319, Control_c, 0, 64, 104
1, 493325, Note_on_c, 0, 82, 82
1, 493328, Note_on_c, 0, 70, 81
1, 493334, Control_c, 0, 64, 108
1, 493349, Control_c, 0, 64, 112
1, 493364, Control_c, 0, 64, 118
1, 493378, Control_c, 0, 64, 127
1, 493410, Note_off_c, 0, 70, 64
1, 493462, Note_off_c, 0, 39, 60
1, 493469, Note_off_c, 0, 82, 60
1, 493488, Note_off_c, 0, 51, 56
1, 493498, Note_on_c, 0, 84, 82
1, 493501, Note_on_c, 0, 72, 83
1, 493577, Note_off_c, 0, 72, 64
1, 493652, Control_c, 0, 64, 121
1, 493666, Control_c, 0, 64, 75
1, 493668, Note_off_c, 0, 84, 63
1, 493676, Note_on_c, 0, 82, 82
1, 493681, Control_c, 0, 64, 0
1, 493682, Note_on_c, 0, 49, 88
1, 493683, Note_on_c, 0, 37, 78
1, 493685, Note_on_c, 0, 70, 77
1, 493758, Note_off_c, 0, 70, 65
1, 493770, Control_c, 0, 64, 54
1, 493784, Control_c, 0, 64, 74
1, 493799, Control_c, 0, 64, 95
1, 493814, Control_c, 0, 64, 127
1, 493838, Note_off_c, 0, 37, 64
1, 493860, Note_on_c, 0, 84, 84
1, 493865, Note_on_c, 0, 72, 86
1, 493878, Note_off_c, 0, 82, 41
1, 493880, Note_off_c, 0, 49, 62
1, 493932, Note_off_c, 0, 72, 65
1, 494015, Note_off_c, 0, 84, 62
1, 494022, Note_on_c, 0, 85, 88
1, 494028, Note_on_c, 0, 73, 85
1, 494130, Note_off_c, 0, 73, 60
1, 494178, Control_c, 0, 64, 110
1, 494193, Control_c, 0, 64, 63
1, 494208, Control_c, 0, 64, 0
1, 494215, Note_on_c, 0, 86, 87
1, 494220, Note_on_c, 0, 58, 82
1, 494223, Note_on_c, 0, 54, 75
1, 494223, Note_on_c, 0, 74, 86
1, 494252, Control_c, 0, 64, 55
1, 494264, Note_off_c, 0, 85, 59
1, 494267, Control_c, 0, 64, 73
1, 494282, Control_c, 0, 64, 127
1, 494320, Note_off_c, 0, 74, 65
1, 494354, Note_off_c, 0, 54, 61
1, 494354, Note_off_c, 0, 58, 61
1, 494371, Control_c, 0, 64, 77
1, 494386, Control_c, 0, 64, 63
1, 494400, Control_c, 0, 64, 64
1, 494407, Note_on_c, 0, 87, 91
1, 494407, Note_off_c, 0, 86, 62
1, 494413, Note_on_c, 0, 58, 76
1, 494415, Control_c, 0, 64, 69
1, 494418, Note_on_c, 0, 75, 90
1, 494420, Note_on_c, 0, 54, 72
1, 494430, Control_c, 0, 64, 84
1, 494445, Control_c, 0, 64, 127
1, 494530, Note_off_c, 0, 75, 64
1, 494536, Note_off_c, 0, 54, 60
1, 494539, Note_off_c, 0, 58, 60
1, 494580, Note_off_c, 0, 87, 61
1, 494593, Control_c, 0, 64, 88
1, 494598, Note_on_c, 0, 58, 75
1, 494598, Note_on_c, 0, 88, 89
1, 494601, Note_on_c, 0, 76, 90
1, 494607, Control_c, 0, 64, 49
1, 494609, Note_on_c, 0, 54, 66
1, 494622, Control_c, 0, 64, 0
1, 494667, Control_c, 0, 64, 65
1, 494682, Control_c, 0, 64, 87
1, 494697, Control_c, 0, 64, 127
1, 494702, Note_on_c, 0, 87, 22
1, 494711, Note_off_c, 0, 54, 57
1, 494717, Note_off_c, 0, 76, 59
1, 494718, Note_off_c, 0, 58, 57
1, 494738, Note_off_c, 0, 88, 63
1, 494741, Note_off_c, 0, 87, 54
1, 494879, Note_on_c, 0, 89, 94
1, 494892, Note_on_c, 0, 77, 81
1, 494912, Control_c, 0, 64, 95
1, 494916, Note_on_c, 0, 58, 47
1, 494917, Note_on_c, 0, 53, 61
1, 494917, Note_on_c, 0, 61, 58
1, 494927, Control_c, 0, 64, 43
1, 494942, Control_c, 0, 64, 0
1, 495016, Control_c, 0, 64, 53
1, 495030, Control_c, 0, 64, 70
1, 495045, Control_c, 0, 64, 91
1, 495060, Control_c, 0, 64, 127
1, 495073, Note_off_c, 0, 77, 56
1, 495078, Note_off_c, 0, 89, 62
1, 495147, Note_on_c, 0, 89, 79
1, 495163, Note_on_c, 0, 77, 82
1, 495245, Note_off_c, 0, 77, 57
1, 495251, Note_off_c, 0, 89, 64
1, 495327, Note_on_c, 0, 89, 82
1, 495342, Note_on_c, 0, 77, 79
1, 495415, Note_off_c, 0, 61, 58
1, 495421, Note_off_c, 0, 77, 59
1, 495431, Note_off_c, 0, 89, 62
1, 495461, Note_off_c, 0, 58, 36
1, 495504, Control_c, 0, 64, 84
1, 495519, Control_c, 0, 64, 61
1, 495534, Control_c, 0, 64, 0
1, 495545, Note_on_c, 0, 89, 81
1, 495561, Note_on_c, 0, 77, 61
1, 495583, Note_on_c, 0, 60, 45
1, 495586, Note_on_c, 0, 57, 43
1, 495594, Control_c, 0, 64, 51
1, 495609, Control_c, 0, 64, 67
1, 495624, Control_c, 0, 64, 80
1, 495639, Control_c, 0, 64, 121
1, 495656, Note_off_c, 0, 60, 60
1, 495661, Control_c, 0, 64, 127
1, 495693, Note_off_c, 0, 53, 45
1, 495745, Note_off_c, 0, 57, 32
1, 495800, Note_on_c, 0, 65, 61
1, 495805, Note_on_c, 0, 53, 53
1, 495809, Control_c, 0, 64, 90
1, 495824, Control_c, 0, 64, 58
1, 495834, Note_off_c, 0, 77, 54
1, 495839, Control_c, 0, 64, 0
1, 495853, Note_off_c, 0, 89, 61
1, 495898, Control_c, 0, 64, 64
1, 495913, Control_c, 0, 64, 78
1, 495922, Note_off_c, 0, 65, 57
1, 495924, Note_off_c, 0, 53, 61
1, 495928, Control_c, 0, 64, 127
1, 496007, Note_on_c, 0, 65, 45
1, 496008, Note_on_c, 0, 53, 47
1, 496160, Note_off_c, 0, 65, 0
1, 496164, Note_off_c, 0, 53, 0
1, 496175, Note_on_c, 0, 65, 34
1, 496178, Note_on_c, 0, 53, 37
1, 496286, Note_off_c, 0, 53, 36
1, 496330, Note_off_c, 0, 65, 0
1, 496347, Note_on_c, 0, 65, 36
1, 496354, Note_on_c, 0, 53, 40
1, 496497, Note_off_c, 0, 53, 0
1, 496504, Note_off_c, 0, 65, 0
1, 496514, Note_on_c, 0, 53, 33
1, 496521, Note_on_c, 0, 65, 33
1, 496673, Note_off_c, 0, 53, 0
1, 496673, Note_off_c, 0, 65, 0
1, 496687, Note_on_c, 0, 53, 42
1, 496689, Note_on_c, 0, 65, 36
1, 496832, Note_off_c, 0, 53, 0
1, 496835, Note_off_c, 0, 65, 0
1, 496847, Note_on_c, 0, 53, 39
1, 496849, Note_on_c, 0, 65, 35
1, 496971, Note_off_c, 0, 65, 35
1, 497025, Note_off_c, 0, 53, 0
1, 497029, Note_on_c, 0, 89, 87
1, 497043, Note_on_c, 0, 53, 26
1, 497045, Note_on_c, 0, 61, 50
1, 497045, Note_on_c, 0, 65, 31
1, 497054, Note_on_c, 0, 77, 66
1, 497243, Note_off_c, 0, 53, 40
1, 497244, Note_off_c, 0, 77, 56
1, 497278, Note_off_c, 0, 65, 40
1, 497284, Note_off_c, 0, 61, 53
1, 497366, Control_c, 0, 64, 111
1, 497381, Control_c, 0, 64, 100
1, 497386, Note_on_c, 0, 90, 87
1, 497396, Control_c, 0, 64, 89
1, 497408, Note_on_c, 0, 78, 66
1, 497411, Control_c, 0, 64, 73
1, 497425, Control_c, 0, 64, 60
1, 497440, Control_c, 0, 64, 0
1, 497445, Note_on_c, 0, 53, 41
1, 497448, Note_off_c, 0, 89, 60
1, 497529, Control_c, 0, 64, 48
1, 497544, Control_c, 0, 64, 70
1, 497558, Control_c, 0, 64, 90
1, 497573, Control_c, 0, 64, 127
1, 497749, Note_on_c, 0, 66, 45
1, 497756, Note_on_c, 0, 63, 39
1, 497785, Note_off_c, 0, 66, 50
1, 497830, Note_off_c, 0, 63, 0
1, 497847, Note_on_c, 0, 63, 31
1, 497848, Note_on_c, 0, 66, 49
1, 497883, Note_off_c, 0, 53, 9
1, 497917, Note_off_c, 0, 66, 49
1, 497996, Note_off_c, 0, 63, 43
1, 498005, Note_off_c, 0, 78, 62
1, 498096, Note_on_c, 0, 89, 67
1, 498124, Note_on_c, 0, 77, 53
1, 498143, Note_on_c, 0, 53, 34
1, 498145, Control_c, 0, 64, 81
1, 498157, Note_off_c, 0, 90, 61
1, 498160, Control_c, 0, 64, 61
1, 498175, Control_c, 0, 64, 0
1, 498235, Control_c, 0, 64, 46
1, 498249, Control_c, 0, 64, 66
1, 498264, Control_c, 0, 64, 81
1, 498279, Control_c, 0, 64, 92
1, 498294, Control_c, 0, 64, 94
1, 498323, Control_c, 0, 64, 95
1, 498397, Control_c, 0, 64, 95
1, 498412, Control_c, 0, 64, 96
1, 498413, Note_on_c, 0, 61, 43
1, 498417, Note_on_c, 0, 65, 37
1, 498426, Control_c, 0, 64, 98
1, 498441, Control_c, 0, 64, 99
1, 498450, Note_off_c, 0, 61, 46
1, 498453, Note_off_c, 0, 65, 49
1, 498456, Control_c, 0, 64, 103
1, 498471, Control_c, 0, 64, 107
1, 498486, Control_c, 0, 64, 115
1, 498500, Control_c, 0, 64, 127
1, 498506, Note_on_c, 0, 65, 47
1, 498512, Note_on_c, 0, 61, 46
1, 498548, Note_off_c, 0, 65, 58
1, 498567, Note_off_c, 0, 61, 48
1, 498601, Note_off_c, 0, 77, 46
1, 498613, Note_off_c, 0, 53, 38
1, 498730, Control_c, 0, 64, 100
1, 498745, Control_c, 0, 64, 64
1, 498751, Note_on_c, 0, 87, 65
1, 498760, Control_c, 0, 64, 0
1, 498765, Note_on_c, 0, 53, 46
1, 498768, Note_on_c, 0, 75, 50
1, 498771, Note_on_c, 0, 60, 40
1, 498782, Note_on_c, 0, 63, 41
1, 498791, Control_c, 0, 64, 44
1, 498796, Note_off_c, 0, 89, 55
1, 498805, Control_c, 0, 64, 60
1, 498820, Control_c, 0, 64, 68
1, 498822, Note_off_c, 0, 60, 61
1, 498835, Control_c, 0, 64, 81
1, 498849, Note_off_c, 0, 75, 63
1, 498849, Control_c, 0, 64, 94
1, 498864, Control_c, 0, 64, 98
1, 498879, Control_c, 0, 64, 99
1, 498890, Note_off_c, 0, 53, 56
1, 498890, Note_off_c, 0, 63, 52
1, 498894, Control_c, 0, 64, 99
1, 498909, Control_c, 0, 64, 100
1, 498938, Control_c, 0, 64, 100
1, 498953, Control_c, 0, 64, 101
1, 498955, Note_on_c, 0, 85, 74
1, 498978, Note_on_c, 0, 73, 54
1, 498979, Note_on_c, 0, 58, 53
1, 498981, Note_on_c, 0, 61, 47
1, 498983, Control_c, 0, 64, 102
1, 498994, Note_off_c, 0, 87, 63
1, 498995, Note_on_c, 0, 53, 34
1, 498998, Control_c, 0, 64, 103
1, 499013, Control_c, 0, 64, 106
1, 499028, Control_c, 0, 64, 112
1, 499042, Control_c, 0, 64, 121
1, 499057, Control_c, 0, 64, 127
1, 499059, Note_off_c, 0, 58, 51
1, 499060, Note_off_c, 0, 73, 62
1, 499061, Note_off_c, 0, 61, 49
1, 499101, Note_off_c, 0, 85, 58
1, 499120, Note_off_c, 0, 53, 0
1, 499142, Note_on_c, 0, 84, 78
1, 499153, Note_on_c, 0, 57, 46
1, 499158, Poly_aftertouch_c, 0, 53, 127
1, 499160, Note_on_c, 0, 72, 65
1, 499165, Note_on_c, 0, 60, 36
1, 499207, Note_off_c, 0, 60, 48
1, 499214, Note_off_c, 0, 57, 53
1, 499222, Note_off_c, 0, 84, 61
1, 499227, Note_off_c, 0, 72, 59
1, 499245, Poly_aftertouch_c, 0, 53, 0
1, 499294, Control_c, 0, 64, 121
1, 499309, Control_c, 0, 64, 77
1, 499323, Control_c, 0, 64, 66
1, 499326, Note_on_c, 0, 84, 77
1, 499332, Note_on_c, 0, 60, 45
1, 499333, Note_on_c, 0, 72, 69
1, 499338, Note_on_c, 0, 53, 54
1, 499338, Control_c, 0, 64, 65
1, 499350, Note_on_c, 0, 57, 38
1, 499353, Control_c, 0, 64, 68
1, 499368, Control_c, 0, 64, 75
1, 499382, Note_off_c, 0, 57, 56
1, 499383, Control_c, 0, 64, 110
1, 499398, Note_off_c, 0, 72, 63
1, 499405, Control_c, 0, 64, 127
1, 499415, Note_off_c, 0, 60, 52
1, 499478, Control_c, 0, 64, 81
1, 499493, Control_c, 0, 64, 71
1, 499499, Note_on_c, 0, 85, 84
1, 499507, Note_off_c, 0, 84, 62
1, 499508, Control_c, 0, 64, 70
1, 499514, Note_on_c, 0, 73, 70
1, 499519, Note_on_c, 0, 58, 61
1, 499522, Note_on_c, 0, 61, 63
1, 499523, Control_c, 0, 64, 73
1, 499538, Control_c, 0, 64, 82
1, 499552, Control_c, 0, 64, 118
1, 499559, Note_off_c, 0, 53, 58
1, 499567, Control_c, 0, 64, 127
1, 499569, Note_off_c, 0, 61, 52
1, 499588, Note_off_c, 0, 73, 61
1, 499609, Note_off_c, 0, 58, 50
1, 499679, Note_on_c, 0, 87, 90
1, 499684, Note_on_c, 0, 53, 57
1, 499690, Note_on_c, 0, 75, 77
1, 499696, Note_on_c, 0, 60, 58
1, 499701, Note_on_c, 0, 63, 57
1, 499728, Note_off_c, 0, 85, 61
1, 499769, Note_off_c, 0, 60, 57
1, 499779, Note_off_c, 0, 75, 64
1, 499783, Note_off_c, 0, 53, 57
1, 499789, Note_off_c, 0, 63, 50
1, 499909, Control_c, 0, 64, 109
1, 499924, Control_c, 0, 64, 95
1, 499938, Control_c, 0, 64, 87
1, 499953, Control_c, 0, 64, 81
1, 499968, Control_c, 0, 64, 77
1, 499972, Note_on_c, 0, 89, 87
1, 499983, Control_c, 0, 64, 70
1, 499990, Note_on_c, 0, 77, 76
1, 499998, Control_c, 0, 64, 62
1, 500010, Note_on_c, 0, 53, 50
1, 500013, Control_c, 0, 64, 0
1, 500043, Note_off_c, 0, 87, 38
1, 500116, Control_c, 0, 64, 64
1, 500131, Control_c, 0, 64, 79
1, 500153, Control_c, 0, 64, 104
1, 500168, Control_c, 0, 64, 127
1, 500277, Note_on_c, 0, 61, 51
1, 500290, Note_on_c, 0, 65, 45
1, 500313, Note_off_c, 0, 61, 51
1, 500316, Note_off_c, 0, 65, 57
1, 500381, Note_on_c, 0, 65, 62
1, 500387, Note_on_c, 0, 61, 51
1, 500423, Note_off_c, 0, 77, 57
1, 500448, Note_off_c, 0, 65, 46
1, 500462, Note_off_c, 0, 53, 56
1, 500465, Note_off_c, 0, 61, 37
1, 500609, Note_on_c, 0, 87, 74
1, 500621, Note_off_c, 0, 89, 62
1, 500622, Note_on_c, 0, 75, 59
1, 500627, Note_on_c, 0, 53, 52
1, 500643, Control_c, 0, 64, 81
1, 500658, Control_c, 0, 64, 53
1, 500673, Control_c, 0, 64, 0
1, 500732, Control_c, 0, 64, 47
1, 500747, Control_c, 0, 64, 66
1, 500762, Control_c, 0, 64, 72
1, 500776, Control_c, 0, 64, 76
1, 500791, Control_c, 0, 64, 77
1, 500806, Control_c, 0, 64, 79
1, 500820, Control_c, 0, 64, 80
1, 500835, Control_c, 0, 64, 81
1, 500850, Control_c, 0, 64, 83
1, 500865, Control_c, 0, 64, 84
1, 500880, Control_c, 0, 64, 84
1, 500882, Note_on_c, 0, 60, 51
1, 500882, Note_on_c, 0, 63, 53
1, 500902, Control_c, 0, 64, 85
1, 500917, Control_c, 0, 64, 86
1, 500918, Note_off_c, 0, 60, 59
1, 500918, Note_off_c, 0, 63, 54
1, 500932, Control_c, 0, 64, 87
1, 500947, Control_c, 0, 64, 88
1, 500962, Control_c, 0, 64, 88
1, 500976, Control_c, 0, 64, 90
1, 500991, Control_c, 0, 64, 92
1, 500996, Note_on_c, 0, 63, 60
1, 501006, Control_c, 0, 64, 93
1, 501013, Note_on_c, 0, 60, 44
1, 501020, Control_c, 0, 64, 95
1, 501025, Note_off_c, 0, 63, 56
1, 501035, Control_c, 0, 64, 97
1, 501045, Note_off_c, 0, 60, 52
1, 501050, Control_c, 0, 64, 98
1, 501058, Note_off_c, 0, 53, 65
1, 501065, Control_c, 0, 64, 101
1, 501080, Control_c, 0, 64, 106
1, 501094, Control_c, 0, 64, 127
1, 501124, Note_off_c, 0, 75, 57
1, 501199, Control_c, 0, 64, 111
1, 501214, Control_c, 0, 64, 68
1, 501229, Control_c, 0, 64, 0
1, 501231, Note_on_c, 0, 85, 66
1, 501247, Note_on_c, 0, 73, 51
1, 501260, Note_on_c, 0, 61, 49
1, 501265, Note_on_c, 0, 53, 47
1, 501273, Control_c, 0, 64, 53
1, 501278, Note_off_c, 0, 87, 62
1, 501288, Control_c, 0, 64, 65
1, 501303, Control_c, 0, 64, 73
1, 501317, Control_c, 0, 64, 80
1, 501332, Control_c, 0, 64, 83
1, 501347, Control_c, 0, 64, 84
1, 501362, Control_c, 0, 64, 85
1, 501364, Note_off_c, 0, 61, 61
1, 501370, Note_off_c, 0, 73, 61
1, 501377, Control_c, 0, 64, 85
1, 501392, Control_c, 0, 64, 86
1, 501403, Note_off_c, 0, 85, 65
1, 501407, Control_c, 0, 64, 86
1, 501436, Control_c, 0, 64, 87
1, 501444, Note_on_c, 0, 84, 70
1, 501451, Control_c, 0, 64, 87
1, 501458, Note_on_c, 0, 51, 61
1, 501460, Note_on_c, 0, 60, 60
1, 501466, Control_c, 0, 64, 88
1, 501466, Note_on_c, 0, 72, 58
1, 501478, Note_off_c, 0, 53, 23
1, 501481, Control_c, 0, 64, 89
1, 501496, Control_c, 0, 64, 91
1, 501499, Note_off_c, 0, 72, 66
1, 501511, Control_c, 0, 64, 93
1, 501512, Note_off_c, 0, 51, 59
1, 501525, Control_c, 0, 64, 96
1, 501526, Note_off_c, 0, 60, 58
1, 501540, Control_c, 0, 64, 101
1, 501555, Control_c, 0, 64, 108
1, 501570, Control_c, 0, 64, 121
1, 501585, Control_c, 0, 64, 127
1, 501603, Note_on_c, 0, 82, 75
1, 501612, Note_on_c, 0, 53, 53
1, 501617, Note_on_c, 0, 58, 53
1, 501617, Note_on_c, 0, 70, 61
1, 501621, Note_off_c, 0, 84, 62
1, 501627, Note_on_c, 0, 49, 58
1, 501677, Note_off_c, 0, 58, 52
1, 501681, Note_off_c, 0, 53, 64
1, 501691, Note_off_c, 0, 70, 61
1, 501703, Note_off_c, 0, 49, 56
1, 501711, Note_off_c, 0, 82, 61
1, 501726, Control_c, 0, 64, 100
1, 501740, Control_c, 0, 64, 63
1, 501755, Control_c, 0, 64, 0
1, 501785, Note_on_c, 0, 82, 71
1, 501794, Note_on_c, 0, 49, 44
1, 501795, Note_on_c, 0, 70, 67
1, 501800, Control_c, 0, 64, 57
1, 501800, Note_on_c, 0, 53, 50
1, 501815, Note_on_c, 0, 58, 50
1, 501815, Control_c, 0, 64, 78
1, 501830, Control_c, 0, 64, 127
1, 501851, Note_off_c, 0, 53, 65
1, 501852, Note_off_c, 0, 49, 62
1, 501860, Note_off_c, 0, 70, 64
1, 501878, Note_off_c, 0, 58, 61
1, 501966, Note_on_c, 0, 84, 78
1, 501980, Note_on_c, 0, 72, 68
1, 501984, Note_on_c, 0, 57, 55
1, 501985, Note_off_c, 0, 82, 60
1, 501991, Note_on_c, 0, 60, 54
1, 502001, Note_on_c, 0, 53, 49
1, 502025, Note_off_c, 0, 57, 57
1, 502029, Note_off_c, 0, 72, 63
1, 502038, Note_off_c, 0, 60, 53
1, 502041, Note_off_c, 0, 53, 63
1, 502124, Note_off_c, 0, 84, 64
1, 502127, Note_on_c, 0, 85, 87
1, 502136, Note_on_c, 0, 73, 78
1, 502140, Note_on_c, 0, 53, 61
1, 502149, Note_on_c, 0, 58, 61
1, 502160, Note_on_c, 0, 61, 58
1, 502201, Note_off_c, 0, 53, 64
1, 502203, Note_off_c, 0, 61, 55
1, 502210, Note_off_c, 0, 58, 62
1, 502244, Note_off_c, 0, 73, 60
1, 502359, Note_on_c, 0, 87, 84
1, 502363, Control_c, 0, 64, 72
1, 502373, Note_on_c, 0, 75, 72
1, 502378, Control_c, 0, 64, 0
1, 502379, Note_on_c, 0, 63, 62
1, 502392, Note_off_c, 0, 85, 59
1, 502405, Note_on_c, 0, 58, 50
1, 502437, Note_on_c, 0, 54, 31
1, 502460, Control_c, 0, 64, 55
1, 502474, Control_c, 0, 64, 72
1, 502489, Control_c, 0, 64, 86
1, 502504, Control_c, 0, 64, 101
1, 502506, Note_off_c, 0, 58, 60
1, 502509, Note_off_c, 0, 54, 57
1, 502514, Note_off_c, 0, 63, 60
1, 502519, Control_c, 0, 64, 108
1, 502534, Control_c, 0, 64, 127
1, 502613, Note_on_c, 0, 63, 57
1, 502627, Note_off_c, 0, 75, 64
1, 502631, Note_on_c, 0, 58, 47
1, 502635, Note_off_c, 0, 87, 59
1, 502657, Note_on_c, 0, 54, 28
1, 502664, Note_off_c, 0, 58, 54
1, 502669, Note_off_c, 0, 63, 58
1, 502695, Note_off_c, 0, 54, 43
1, 502754, Note_on_c, 0, 82, 78
1, 502769, Note_on_c, 0, 70, 68
1, 502778, Note_on_c, 0, 58, 41
1, 502779, Note_on_c, 0, 63, 65
1, 502798, Note_on_c, 0, 54, 44
1, 502840, Note_off_c, 0, 58, 45
1, 502846, Note_off_c, 0, 54, 51
1, 502879, Note_off_c, 0, 63, 59
1, 502887, Note_off_c, 0, 70, 60
1, 502903, Note_off_c, 0, 82, 60
1, 502994, Control_c, 0, 64, 86
1, 503003, Note_on_c, 0, 82, 78
1, 503009, Control_c, 0, 64, 54
1, 503010, Note_on_c, 0, 70, 57
1, 503014, Note_on_c, 0, 64, 55
1, 503023, Control_c, 0, 64, 0
1, 503038, Note_on_c, 0, 58, 41
1, 503046, Note_on_c, 0, 54, 46
1, 503083, Control_c, 0, 64, 46
1, 503097, Control_c, 0, 64, 68
1, 503109, Note_off_c, 0, 70, 64
1, 503112, Control_c, 0, 64, 82
1, 503127, Control_c, 0, 64, 127
1, 503160, Note_off_c, 0, 54, 58
1, 503165, Note_off_c, 0, 64, 57
1, 503170, Note_off_c, 0, 58, 54
1, 503233, Note_on_c, 0, 84, 78
1, 503240, Note_on_c, 0, 64, 52
1, 503247, Note_on_c, 0, 58, 40
1, 503248, Note_on_c, 0, 72, 72
1, 503254, Note_on_c, 0, 54, 53
1, 503308, Note_off_c, 0, 72, 62
1, 503319, Note_off_c, 0, 64, 53
1, 503320, Note_off_c, 0, 54, 55
1, 503322, Note_off_c, 0, 82, 57
1, 503335, Note_off_c, 0, 58, 46
1, 503415, Note_on_c, 0, 58, 46
1, 503415, Note_on_c, 0, 82, 79
1, 503417, Note_off_c, 0, 84, 61
1, 503419, Note_on_c, 0, 70, 70
1, 503428, Note_on_c, 0, 54, 53
1, 503431, Note_on_c, 0, 64, 56
1, 503466, Note_off_c, 0, 54, 60
1, 503471, Note_off_c, 0, 58, 62
1, 503482, Note_off_c, 0, 70, 64
1, 503511, Note_off_c, 0, 64, 61
1, 503523, Note_off_c, 0, 82, 61
1, 503638, Control_c, 0, 64, 108
1, 503653, Control_c, 0, 64, 98
1, 503668, Control_c, 0, 64, 90
1, 503683, Control_c, 0, 64, 84
1, 503698, Control_c, 0, 64, 78
1, 503712, Control_c, 0, 64, 73
1, 503714, Note_on_c, 0, 85, 75
1, 503727, Control_c, 0, 64, 69
1, 503736, Note_on_c, 0, 73, 58
1, 503742, Control_c, 0, 64, 65
1, 503757, Control_c, 0, 64, 62
1, 503759, Note_on_c, 0, 65, 38
1, 503760, Note_on_c, 0, 58, 34
1, 503761, Note_on_c, 0, 61, 39
1, 503764, Note_on_c, 0, 53, 34
1, 503772, Control_c, 0, 64, 55
1, 503786, Control_c, 0, 64, 25
1, 503801, Control_c, 0, 64, 0
1, 503927, Control_c, 0, 64, 32
1, 503942, Control_c, 0, 64, 55
1, 503957, Control_c, 0, 64, 62
1, 503972, Control_c, 0, 64, 65
1, 503987, Control_c, 0, 64, 67
1, 504001, Control_c, 0, 64, 72
1, 504016, Control_c, 0, 64, 77
1, 504031, Control_c, 0, 64, 82
1, 504045, Control_c, 0, 64, 87
1, 504060, Control_c, 0, 64, 93
1, 504075, Control_c, 0, 64, 102
1, 504076, Note_off_c, 0, 61, 53
1, 504090, Control_c, 0, 64, 115
1, 504105, Control_c, 0, 64, 127
1, 504161, Note_off_c, 0, 58, 42
1, 504287, Note_off_c, 0, 73, 37
1, 504355, Note_off_c, 0, 85, 60
1, 504476, Control_c, 0, 64, 100
1, 504491, Control_c, 0, 64, 91
1, 504506, Control_c, 0, 64, 85
1, 504521, Control_c, 0, 64, 78
1, 504522, Note_on_c, 0, 84, 48
1, 504535, Note_on_c, 0, 72, 40
1, 504535, Control_c, 0, 64, 70
1, 504550, Control_c, 0, 64, 61
1, 504552, Note_on_c, 0, 57, 25
1, 504552, Note_on_c, 0, 60, 31
1, 504565, Control_c, 0, 64, 0
1, 504677, Control_c, 0, 64, 60
1, 504692, Control_c, 0, 64, 69
1, 504706, Control_c, 0, 64, 78
1, 504721, Control_c, 0, 64, 90
1, 504731, Note_off_c, 0, 65, 41
1, 504736, Control_c, 0, 64, 99
1, 504751, Control_c, 0, 64, 110
1, 504754, Note_off_c, 0, 84, 61
1, 504760, Note_off_c, 0, 60, 52
1, 504766, Control_c, 0, 64, 127
1, 504788, Note_off_c, 0, 53, 43
1, 504790, Note_off_c, 0, 72, 36
1, 504809, Note_off_c, 0, 57, 41
1, 505032, Control_c, 0, 64, 106
1, 505032, Control_c, 0, 67, 8
1, 505047, Control_c, 0, 64, 82
1, 505047, Control_c, 0, 67, 10
1, 505061, Control_c, 0, 64, 62
1, 505061, Control_c, 0, 67, 12
1, 505076, Control_c, 0, 64, 0
1, 505076, Control_c, 0, 67, 15
1, 505091, Control_c, 0, 67, 20
1, 505106, Control_c, 0, 67, 26
1, 505121, Control_c, 0, 67, 31
1, 505136, Control_c, 0, 67, 36
1, 505151, Control_c, 0, 67, 41
1, 505166, Control_c, 0, 67, 47
1, 505181, Control_c, 0, 67, 53
1, 505196, Control_c, 0, 67, 58
1, 505210, Control_c, 0, 67, 62
1, 505225, Control_c, 0, 67, 66
1, 505240, Control_c, 0, 67, 70
1, 505255, Control_c, 0, 67, 74
1, 505270, Control_c, 0, 67, 79
1, 505285, Control_c, 0, 67, 84
1, 505300, Control_c, 0, 67, 88
1, 505315, Control_c, 0, 67, 92
1, 505329, Control_c, 0, 67, 95
1, 505344, Control_c, 0, 67, 98
1, 505359, Control_c, 0, 64, 12
1, 505359, Control_c, 0, 67, 101
1, 505374, Control_c, 0, 64, 29
1, 505374, Control_c, 0, 67, 104
1, 505396, Control_c, 0, 64, 37
1, 505396, Control_c, 0, 67, 107
1, 505399, Note_on_c, 0, 72, 42
1, 505410, Control_c, 0, 64, 42
1, 505410, Control_c, 0, 67, 110
1, 505422, Note_on_c, 0, 69, 37
1, 505425, Control_c, 0, 64, 47
1, 505425, Control_c, 0, 67, 114
1, 505438, Note_on_c, 0, 57, 26
1, 505440, Control_c, 0, 64, 53
1, 505440, Control_c, 0, 67, 117
1, 505445, Note_on_c, 0, 60, 21
1, 505455, Control_c, 0, 64, 58
1, 505455, Control_c, 0, 67, 121
1, 505470, Control_c, 0, 64, 63
1, 505470, Control_c, 0, 67, 125
1, 505485, Control_c, 0, 64, 65
1, 505485, Control_c, 0, 67, 127
1, 505499, Control_c, 0, 64, 68
1, 505514, Control_c, 0, 64, 71
1, 505529, Control_c, 0, 64, 77
1, 505544, Control_c, 0, 64, 85
1, 505559, Control_c, 0, 64, 92
1, 505574, Control_c, 0, 64, 100
1, 505589, Control_c, 0, 64, 108
1, 505604, Control_c, 0, 64, 114
1, 505618, Control_c, 0, 64, 119
1, 505630, Note_off_c, 0, 60, 41
1, 505633, Control_c, 0, 64, 125
1, 505640, Note_off_c, 0, 69, 41
1, 505679, Note_off_c, 0, 72, 34
1, 505680, Note_off_c, 0, 57, 38
1, 505840, Control_c, 0, 64, 121
1, 505855, Control_c, 0, 64, 116
1, 505870, Control_c, 0, 64, 110
1, 505884, Control_c, 0, 64, 105
1, 505899, Note_on_c, 0, 75, 63
1, 505899, Control_c, 0, 64, 99
1, 505914, Control_c, 0, 64, 95
1, 505929, Control_c, 0, 64, 91
1, 505934, Note_on_c, 0, 72, 47
1, 505943, Control_c, 0, 64, 88
1, 505960, Control_c, 0, 64, 83
1, 505975, Control_c, 0, 64, 75
1, 505989, Control_c, 0, 64, 65
1, 505996, Note_on_c, 0, 50, 36
1, 506004, Control_c, 0, 64, 44
1, 506019, Control_c, 0, 64, 0
1, 506063, Control_c, 0, 64, 23
1, 506078, Control_c, 0, 64, 59
1, 506093, Control_c, 0, 64, 69
1, 506107, Control_c, 0, 64, 80
1, 506122, Control_c, 0, 64, 88
1, 506145, Control_c, 0, 64, 90
1, 506158, Control_c, 0, 64, 91
1, 506161, Note_off_c, 0, 50, 37
1, 506173, Control_c, 0, 64, 91
1, 506347, Note_on_c, 0, 60, 41
1, 506351, Control_c, 0, 64, 91
1, 506355, Note_on_c, 0, 63, 37
1, 506397, Note_off_c, 0, 63, 45
1, 506400, Note_off_c, 0, 72, 41
1, 506424, Note_off_c, 0, 60, 0
1, 506438, Note_on_c, 0, 60, 35
1, 506445, Note_on_c, 0, 63, 34
1, 506505, Note_off_c, 0, 60, 48
1, 506516, Note_off_c, 0, 63, 40
1, 506572, Control_c, 0, 64, 90
1, 506587, Control_c, 0, 64, 89
1, 506602, Control_c, 0, 64, 87
1, 506617, Control_c, 0, 64, 86
1, 506632, Control_c, 0, 64, 85
1, 506647, Control_c, 0, 64, 83
1, 506662, Control_c, 0, 64, 81
1, 506677, Control_c, 0, 64, 79
1, 506692, Control_c, 0, 64, 78
1, 506706, Control_c, 0, 64, 77
1, 506717, Note_on_c, 0, 72, 57
1, 506721, Control_c, 0, 64, 75
1, 506736, Control_c, 0, 64, 72
1, 506736, Note_on_c, 0, 69, 48
1, 506751, Control_c, 0, 64, 66
1, 506762, Note_on_c, 0, 50, 34
1, 506766, Control_c, 0, 64, 53
1, 506769, Note_off_c, 0, 75, 60
1, 506781, Control_c, 0, 64, 0
1, 506826, Control_c, 0, 64, 37
1, 506841, Control_c, 0, 64, 56
1, 506855, Control_c, 0, 64, 64
1, 506870, Control_c, 0, 64, 69
1, 506892, Control_c, 0, 64, 74
1, 506907, Control_c, 0, 64, 77
1, 506922, Control_c, 0, 64, 78
1, 506936, Control_c, 0, 64, 79
1, 506966, Control_c, 0, 64, 79
1, 507031, Note_on_c, 0, 57, 43
1, 507035, Note_on_c, 0, 60, 38
1, 507072, Note_off_c, 0, 60, 47
1, 507076, Note_off_c, 0, 57, 42
1, 507115, Control_c, 0, 64, 80
1, 507131, Note_on_c, 0, 57, 36
1, 507138, Note_on_c, 0, 60, 29
1, 507144, Control_c, 0, 64, 81
1, 507159, Control_c, 0, 64, 82
1, 507174, Note_off_c, 0, 60, 47
1, 507174, Control_c, 0, 64, 83
1, 507188, Control_c, 0, 64, 84
1, 507199, Note_off_c, 0, 69, 44
1, 507203, Control_c, 0, 64, 86
1, 507218, Control_c, 0, 64, 89
1, 507231, Note_off_c, 0, 50, 36
1, 507233, Control_c, 0, 64, 94
1, 507243, Note_off_c, 0, 57, 36
1, 507248, Control_c, 0, 64, 99
1, 507262, Control_c, 0, 64, 101
1, 507277, Control_c, 0, 64, 105
1, 507292, Control_c, 0, 64, 106
1, 507307, Control_c, 0, 64, 106
1, 507322, Control_c, 0, 64, 97
1, 507336, Control_c, 0, 64, 77
1, 507351, Control_c, 0, 64, 61
1, 507364, Note_on_c, 0, 69, 44
1, 507366, Control_c, 0, 64, 36
1, 507373, Note_on_c, 0, 66, 52
1, 507374, Note_on_c, 0, 57, 41
1, 507380, Control_c, 0, 64, 41
1, 507393, Note_on_c, 0, 50, 31
1, 507393, Note_on_c, 0, 54, 41
1, 507395, Control_c, 0, 64, 55
1, 507410, Control_c, 0, 64, 63
1, 507425, Control_c, 0, 64, 71
1, 507440, Control_c, 0, 64, 93
1, 507455, Control_c, 0, 64, 105
1, 507470, Control_c, 0, 64, 105
1, 507485, Control_c, 0, 64, 91
1, 507500, Control_c, 0, 64, 76
1, 507500, Note_off_c, 0, 66, 65
1, 507514, Control_c, 0, 64, 67
1, 507520, Note_off_c, 0, 57, 43
1, 507526, Note_off_c, 0, 54, 35
1, 507529, Control_c, 0, 64, 66
1, 507538, Note_off_c, 0, 50, 0
1, 507544, Control_c, 0, 64, 67
1, 507559, Control_c, 0, 64, 71
1, 507566, Note_off_c, 0, 72, 51
1, 507574, Note_on_c, 0, 70, 65
1, 507574, Control_c, 0, 64, 78
1, 507575, Note_on_c, 0, 67, 49
1, 507576, Poly_aftertouch_c, 0, 50, 127
1, 507580, Note_on_c, 0, 55, 51
1, 507583, Note_on_c, 0, 58, 46
1, 507589, Control_c, 0, 64, 89
1, 507604, Control_c, 0, 64, 96
1, 507613, Note_off_c, 0, 69, 38
1, 507619, Control_c, 0, 64, 100
1, 507641, Control_c, 0, 64, 102
1, 507669, Note_off_c, 0, 58, 54
1, 507689, Poly_aftertouch_c, 0, 50, 0
1, 507712, Note_off_c, 0, 55, 36
1, 507713, Note_off_c, 0, 67, 38
1, 507741, Note_on_c, 0, 72, 65
1, 507761, Note_on_c, 0, 69, 57
1, 507768, Note_on_c, 0, 57, 47
1, 507777, Note_on_c, 0, 60, 49
1, 507789, Note_on_c, 0, 50, 18
1, 507820, Note_off_c, 0, 60, 49
1, 507821, Note_off_c, 0, 57, 55
1, 507830, Note_off_c, 0, 70, 36
1, 507843, Note_off_c, 0, 50, 43
1, 507848, Note_off_c, 0, 72, 60
1, 507855, Note_off_c, 0, 69, 38
1, 507863, Control_c, 0, 64, 102
1, 507893, Control_c, 0, 64, 101
1, 507908, Control_c, 0, 64, 101
1, 507923, Control_c, 0, 64, 100
1, 507938, Control_c, 0, 64, 98
1, 507953, Control_c, 0, 64, 92
1, 507967, Control_c, 0, 64, 79
1, 507969, Note_on_c, 0, 72, 63
1, 507982, Control_c, 0, 64, 65
1, 507986, Note_on_c, 0, 57, 38
1, 507987, Note_on_c, 0, 69, 55
1, 507997, Control_c, 0, 64, 31
1, 508000, Note_on_c, 0, 50, 39
1, 508001, Note_on_c, 0, 60, 34
1, 508011, Control_c, 0, 64, 0
1, 508041, Control_c, 0, 64, 31
1, 508056, Control_c, 0, 64, 54
1, 508066, Note_off_c, 0, 57, 59
1, 508071, Control_c, 0, 64, 64
1, 508085, Control_c, 0, 64, 71
1, 508100, Control_c, 0, 64, 80
1, 508115, Control_c, 0, 64, 90
1, 508129, Control_c, 0, 64, 91
1, 508144, Control_c, 0, 64, 90
1, 508153, Note_off_c, 0, 60, 41
1, 508159, Control_c, 0, 64, 79
1, 508174, Control_c, 0, 64, 66
1, 508179, Note_off_c, 0, 69, 59
1, 508186, Note_off_c, 0, 50, 0
1, 508187, Note_on_c, 0, 70, 64
1, 508189, Control_c, 0, 64, 53
1, 508203, Note_on_c, 0, 55, 46
1, 508203, Control_c, 0, 64, 49
1, 508207, Note_on_c, 0, 67, 36
1, 508210, Note_on_c, 0, 58, 50
1, 508218, Control_c, 0, 64, 59
1, 508223, Poly_aftertouch_c, 0, 50, 127
1, 508226, Note_off_c, 0, 72, 59
1, 508233, Control_c, 0, 64, 65
1, 508236, Note_off_c, 0, 67, 58
1, 508248, Control_c, 0, 64, 71
1, 508263, Control_c, 0, 64, 81
1, 508278, Control_c, 0, 64, 86
1, 508307, Control_c, 0, 64, 85
1, 508310, Poly_aftertouch_c, 0, 50, 0
1, 508322, Control_c, 0, 64, 73
1, 508331, Note_off_c, 0, 55, 37
1, 508334, Note_off_c, 0, 58, 37
1, 508337, Control_c, 0, 64, 58
1, 508353, Control_c, 0, 64, 0
1, 508363, Note_on_c, 0, 69, 65
1, 508385, Note_on_c, 0, 66, 61
1, 508396, Note_on_c, 0, 54, 45
1, 508398, Note_off_c, 0, 70, 45
1, 508414, Note_on_c, 0, 50, 22
1, 508417, Note_on_c, 0, 57, 18
1, 508450, Control_c, 0, 64, 36
1, 508465, Control_c, 0, 64, 64
1, 508480, Control_c, 0, 64, 72
1, 508491, Note_off_c, 0, 57, 40
1, 508495, Control_c, 0, 64, 77
1, 508509, Control_c, 0, 64, 80
1, 508511, Note_off_c, 0, 54, 39
1, 508519, Note_off_c, 0, 66, 45
1, 508524, Control_c, 0, 64, 81
1, 508527, Note_off_c, 0, 50, 35
1, 508657, Control_c, 0, 64, 80
1, 508672, Control_c, 0, 64, 79
1, 508673, Note_off_c, 0, 69, 50
1, 508677, Note_on_c, 0, 70, 50
1, 508679, Note_on_c, 0, 74, 53
1, 508687, Control_c, 0, 64, 74
1, 508697, Note_on_c, 0, 50, 36
1, 508702, Control_c, 0, 64, 65
1, 508716, Control_c, 0, 64, 36
1, 508731, Control_c, 0, 64, 0
1, 508820, Control_c, 0, 64, 35
1, 508835, Control_c, 0, 64, 60
1, 508850, Control_c, 0, 64, 65
1, 508865, Control_c, 0, 64, 66
1, 508880, Control_c, 0, 64, 66
1, 508895, Control_c, 0, 64, 68
1, 508909, Control_c, 0, 64, 69
1, 508924, Control_c, 0, 64, 71
1, 508939, Control_c, 0, 64, 72
1, 508953, Control_c, 0, 64, 72
1, 508968, Control_c, 0, 64, 73
1, 508983, Control_c, 0, 64, 74
1, 508998, Control_c, 0, 64, 75
1, 508999, Note_on_c, 0, 58, 36
1, 509011, Note_on_c, 0, 62, 34
1, 509013, Control_c, 0, 64, 76
1, 509041, Note_off_c, 0, 58, 46
1, 509042, Control_c, 0, 64, 76
1, 509050, Note_off_c, 0, 62, 45
1, 509057, Control_c, 0, 64, 77
1, 509098, Note_on_c, 0, 62, 47
1, 509101, Control_c, 0, 64, 77
1, 509115, Note_on_c, 0, 58, 37
1, 509118, Note_off_c, 0, 70, 39
1, 509214, Note_off_c, 0, 62, 35
1, 509249, Note_off_c, 0, 50, 40
1, 509270, Note_off_c, 0, 58, 32
1, 509386, Note_on_c, 0, 70, 48
1, 509391, Control_c, 0, 64, 73
1, 509392, Note_on_c, 0, 67, 42
1, 509406, Control_c, 0, 64, 65
1, 509413, Note_on_c, 0, 50, 38
1, 509419, Note_off_c, 0, 74, 60
1, 509421, Control_c, 0, 64, 49
1, 509436, Control_c, 0, 64, 0
1, 509495, Control_c, 0, 64, 38
1, 509510, Control_c, 0, 64, 59
1, 509525, Control_c, 0, 64, 65
1, 509539, Control_c, 0, 64, 68
1, 509554, Control_c, 0, 64, 70
1, 509569, Control_c, 0, 64, 72
1, 509583, Control_c, 0, 64, 73
1, 509598, Control_c, 0, 64, 75
1, 509613, Control_c, 0, 64, 75
1, 509628, Control_c, 0, 64, 76
1, 509658, Control_c, 0, 64, 77
1, 509673, Control_c, 0, 64, 78
1, 509687, Note_on_c, 0, 55, 47
1, 509687, Control_c, 0, 64, 80
1, 509690, Note_on_c, 0, 58, 42
1, 509702, Control_c, 0, 64, 81
1, 509711, Note_off_c, 0, 67, 61
1, 509717, Control_c, 0, 64, 82
1, 509732, Control_c, 0, 64, 83
1, 509735, Note_off_c, 0, 58, 48
1, 509738, Note_off_c, 0, 55, 55
1, 509747, Control_c, 0, 64, 84
1, 509762, Control_c, 0, 64, 84
1, 509777, Control_c, 0, 64, 85
1, 509791, Control_c, 0, 64, 85
1, 509806, Control_c, 0, 64, 86
1, 509807, Note_on_c, 0, 58, 40
1, 509814, Note_on_c, 0, 55, 33
1, 509821, Control_c, 0, 64, 86
1, 509836, Control_c, 0, 64, 87
1, 509837, Note_off_c, 0, 50, 55
1, 509850, Control_c, 0, 64, 87
1, 509915, Note_off_c, 0, 55, 37
1, 509940, Note_off_c, 0, 58, 37
1, 510066, Control_c, 0, 64, 86
1, 510080, Control_c, 0, 64, 75
1, 510085, Note_on_c, 0, 67, 52
1, 510090, Note_off_c, 0, 70, 60
1, 510095, Control_c, 0, 64, 64
1, 510106, Note_on_c, 0, 62, 44
1, 510110, Control_c, 0, 64, 38
1, 510113, Note_on_c, 0, 46, 47
1, 510118, Note_on_c, 0, 55, 34
1, 510125, Control_c, 0, 64, 0
1, 510154, Control_c, 0, 64, 50
1, 510169, Control_c, 0, 64, 63
1, 510184, Control_c, 0, 64, 72
1, 510198, Control_c, 0, 64, 87
1, 510213, Control_c, 0, 64, 127
1, 510273, Control_c, 0, 64, 92
1, 510287, Control_c, 0, 64, 67
1, 510302, Note_off_c, 0, 46, 58
1, 510302, Control_c, 0, 64, 29
1, 510307, Note_off_c, 0, 62, 0
1, 510317, Control_c, 0, 64, 0
1, 510321, Note_on_c, 0, 69, 65
1, 510326, Note_on_c, 0, 62, 33
1, 510332, Control_c, 0, 64, 43
1, 510342, Note_on_c, 0, 66, 53
1, 510346, Note_off_c, 0, 55, 49
1, 510346, Control_c, 0, 64, 59
1, 510350, Note_on_c, 0, 57, 41
1, 510359, Note_on_c, 0, 50, 39
1, 510360, Note_off_c, 0, 67, 57
1, 510361, Control_c, 0, 64, 66
1, 510376, Control_c, 0, 64, 72
1, 510378, Note_off_c, 0, 57, 57
1, 510391, Control_c, 0, 64, 76
1, 510406, Control_c, 0, 64, 77
1, 510421, Control_c, 0, 64, 78
1, 510436, Control_c, 0, 64, 79
1, 510451, Control_c, 0, 64, 80
1, 510466, Control_c, 0, 64, 78
1, 510477, Note_off_c, 0, 62, 0
1, 510480, Control_c, 0, 64, 66
1, 510495, Note_on_c, 0, 62, 38
1, 510495, Control_c, 0, 64, 36
1, 510501, Note_on_c, 0, 70, 66
1, 510510, Control_c, 0, 64, 0
1, 510512, Note_on_c, 0, 67, 55
1, 510513, Note_on_c, 0, 58, 55
1, 510513, Note_off_c, 0, 66, 48
1, 510525, Note_on_c, 0, 55, 38
1, 510528, Note_off_c, 0, 69, 47
1, 510529, Note_off_c, 0, 50, 56
1, 510539, Control_c, 0, 64, 41
1, 510554, Control_c, 0, 64, 61
1, 510569, Control_c, 0, 64, 70
1, 510584, Control_c, 0, 64, 79
1, 510597, Note_off_c, 0, 58, 56
1, 510598, Control_c, 0, 64, 84
1, 510613, Control_c, 0, 64, 84
1, 510615, Note_off_c, 0, 70, 51
1, 510621, Note_off_c, 0, 67, 37
1, 510647, Note_off_c, 0, 55, 37
1, 510647, Note_off_c, 0, 62, 36
1, 510650, Control_c, 0, 64, 85
1, 510695, Control_c, 0, 64, 78
1, 510710, Control_c, 0, 64, 64
1, 510725, Control_c, 0, 64, 0
1, 510732, Note_on_c, 0, 70, 63
1, 510734, Note_on_c, 0, 67, 52
1, 510740, Note_on_c, 0, 58, 46
1, 510746, Note_on_c, 0, 62, 49
1, 510763, Note_on_c, 0, 55, 38
1, 510784, Control_c, 0, 64, 40
1, 510799, Control_c, 0, 64, 68
1, 510814, Control_c, 0, 64, 79
1, 510829, Control_c, 0, 64, 87
1, 510844, Control_c, 0, 64, 90
1, 510859, Control_c, 0, 64, 94
1, 510867, Note_off_c, 0, 62, 50
1, 510874, Control_c, 0, 64, 96
1, 510883, Note_off_c, 0, 58, 62
1, 510889, Control_c, 0, 64, 94
1, 510903, Control_c, 0, 64, 77
1, 510918, Control_c, 0, 64, 62
1, 510925, Note_off_c, 0, 55, 42
1, 510928, Note_off_c, 0, 70, 56
1, 510933, Control_c, 0, 64, 0
1, 510936, Note_off_c, 0, 67, 51
1, 510942, Note_on_c, 0, 69, 64
1, 510956, Note_on_c, 0, 57, 50
1, 510962, Control_c, 0, 64, 40
1, 510966, Note_on_c, 0, 66, 49
1, 510969, Note_on_c, 0, 62, 54
1, 510969, Note_on_c, 0, 50, 42
1, 510977, Control_c, 0, 64, 64
1, 510992, Control_c, 0, 64, 73
1, 511007, Control_c, 0, 64, 86
1, 511022, Control_c, 0, 64, 92
1, 511029, Note_off_c, 0, 57, 55
1, 511036, Control_c, 0, 64, 92
1, 511066, Control_c, 0, 64, 92
1, 511081, Control_c, 0, 64, 81
1, 511091, Note_off_c, 0, 62, 36
1, 511096, Control_c, 0, 64, 64
1, 511110, Control_c, 0, 64, 0
1, 511120, Note_off_c, 0, 66, 40
1, 511147, Note_on_c, 0, 67, 67
1, 511152, Note_off_c, 0, 50, 40
1, 511159, Note_on_c, 0, 46, 54
1, 511168, Note_on_c, 0, 62, 44
1, 511169, Note_off_c, 0, 69, 61
1, 511170, Note_on_c, 0, 55, 39
1, 511184, Control_c, 0, 64, 43
1, 511199, Control_c, 0, 64, 65
1, 511214, Control_c, 0, 64, 74
1, 511229, Control_c, 0, 64, 81
1, 511239, Note_off_c, 0, 55, 59
1, 511242, Note_off_c, 0, 46, 61
1, 511244, Control_c, 0, 64, 83
1, 511258, Control_c, 0, 64, 85
1, 511264, Note_off_c, 0, 62, 34
1, 511273, Control_c, 0, 64, 86
1, 511353, Note_off_c, 0, 67, 57
1, 511474, Note_on_c, 0, 72, 70
1, 511474, Control_c, 0, 64, 82
1, 511489, Control_c, 0, 64, 70
1, 511497, Note_on_c, 0, 67, 47
1, 511503, Control_c, 0, 64, 54
1, 511512, Note_on_c, 0, 60, 41
1, 511518, Control_c, 0, 64, 0
1, 511523, Note_on_c, 0, 55, 37
1, 511528, Note_on_c, 0, 51, 32
1, 511564, Control_c, 0, 64, 47
1, 511578, Control_c, 0, 64, 62
1, 511593, Control_c, 0, 64, 68
1, 511608, Control_c, 0, 64, 73
1, 511623, Control_c, 0, 64, 76
1, 511638, Control_c, 0, 64, 78
1, 511667, Control_c, 0, 64, 78
1, 511685, Note_off_c, 0, 60, 37
1, 511702, Note_off_c, 0, 51, 37
1, 511723, Note_off_c, 0, 55, 35
1, 511792, Note_on_c, 0, 55, 25
1, 511807, Note_on_c, 0, 60, 44
1, 511814, Note_on_c, 0, 51, 39
1, 511816, Note_off_c, 0, 67, 52
1, 511909, Note_off_c, 0, 51, 37
1, 511909, Note_off_c, 0, 60, 37
1, 511929, Note_off_c, 0, 55, 35
1, 511989, Note_on_c, 0, 67, 60
1, 512007, Note_on_c, 0, 55, 30
1, 512012, Note_on_c, 0, 60, 38
1, 512016, Note_on_c, 0, 51, 36
1, 512066, Note_off_c, 0, 60, 56
1, 512096, Note_off_c, 0, 51, 43
1, 512143, Note_off_c, 0, 55, 38
1, 512176, Note_off_c, 0, 67, 37
1, 512282, Control_c, 0, 64, 76
1, 512286, Note_off_c, 0, 72, 24
1, 512297, Control_c, 0, 64, 68
1, 512299, Note_on_c, 0, 67, 50
1, 512305, Note_on_c, 0, 61, 54
1, 512311, Control_c, 0, 64, 56
1, 512323, Note_on_c, 0, 55, 37
1, 512326, Control_c, 0, 64, 0
1, 512347, Note_on_c, 0, 51, 32
1, 512401, Control_c, 0, 64, 51
1, 512416, Control_c, 0, 64, 65
1, 512431, Control_c, 0, 64, 70
1, 512446, Control_c, 0, 64, 75
1, 512461, Control_c, 0, 64, 79
1, 512475, Control_c, 0, 64, 84
1, 512490, Control_c, 0, 64, 90
1, 512494, Note_off_c, 0, 55, 59
1, 512498, Note_off_c, 0, 61, 54
1, 512505, Control_c, 0, 64, 94
1, 512509, Note_off_c, 0, 51, 41
1, 512520, Control_c, 0, 64, 97
1, 512535, Control_c, 0, 64, 96
1, 512549, Control_c, 0, 64, 91
1, 512564, Control_c, 0, 64, 75
1, 512579, Control_c, 0, 64, 62
1, 512591, Note_on_c, 0, 69, 54
1, 512592, Note_on_c, 0, 61, 50
1, 512594, Control_c, 0, 64, 46
1, 512609, Control_c, 0, 64, 56
1, 512624, Control_c, 0, 64, 63
1, 512631, Note_off_c, 0, 67, 36
1, 512632, Note_on_c, 0, 51, 34
1, 512636, Note_on_c, 0, 55, 24
1, 512639, Control_c, 0, 64, 69
1, 512653, Control_c, 0, 64, 82
1, 512668, Control_c, 0, 64, 106
1, 512683, Note_off_c, 0, 61, 52
1, 512683, Control_c, 0, 64, 127
1, 512685, Note_off_c, 0, 51, 42
1, 512716, Note_off_c, 0, 55, 38
1, 512727, Control_c, 0, 64, 125
1, 512742, Control_c, 0, 64, 81
1, 512757, Control_c, 0, 64, 64
1, 512772, Control_c, 0, 64, 51
1, 512787, Control_c, 0, 64, 57
1, 512797, Note_on_c, 0, 67, 55
1, 512801, Control_c, 0, 64, 64
1, 512807, Note_on_c, 0, 55, 25
1, 512809, Note_on_c, 0, 61, 41
1, 512816, Control_c, 0, 64, 68
1, 512817, Note_on_c, 0, 51, 40
1, 512831, Control_c, 0, 64, 77
1, 512846, Control_c, 0, 64, 84
1, 512848, Note_off_c, 0, 69, 35
1, 512852, Note_off_c, 0, 55, 60
1, 512861, Control_c, 0, 64, 84
1, 512865, Note_off_c, 0, 51, 53
1, 512922, Note_off_c, 0, 67, 46
1, 512931, Note_off_c, 0, 61, 60
1, 513016, Control_c, 0, 64, 84
1, 513031, Control_c, 0, 64, 83
1, 513046, Control_c, 0, 64, 81
1, 513061, Control_c, 0, 64, 79
1, 513075, Control_c, 0, 64, 76
1, 513090, Control_c, 0, 64, 74
1, 513105, Control_c, 0, 64, 73
1, 513119, Control_c, 0, 64, 72
1, 513134, Control_c, 0, 64, 71
1, 513150, Control_c, 0, 64, 69
1, 513163, Note_on_c, 0, 70, 53
1, 513165, Control_c, 0, 64, 67
1, 513180, Control_c, 0, 64, 64
1, 513188, Note_on_c, 0, 67, 44
1, 513191, Note_on_c, 0, 62, 36
1, 513195, Control_c, 0, 64, 61
1, 513208, Note_on_c, 0, 55, 27
1, 513210, Control_c, 0, 64, 56
1, 513211, Note_on_c, 0, 58, 33
1, 513224, Control_c, 0, 64, 42
1, 513225, Note_on_c, 0, 50, 36
1, 513239, Control_c, 0, 64, 0
1, 513521, Control_c, 0, 64, 51
1, 513536, Control_c, 0, 64, 65
1, 513550, Control_c, 0, 64, 72
1, 513565, Control_c, 0, 64, 77
1, 513580, Control_c, 0, 64, 79
1, 513595, Control_c, 0, 64, 82
1, 513610, Control_c, 0, 64, 86
1, 513631, Control_c, 0, 64, 91
1, 513646, Control_c, 0, 64, 97
1, 513661, Control_c, 0, 64, 103
1, 513676, Control_c, 0, 64, 106
1, 513691, Control_c, 0, 64, 107
1, 513705, Control_c, 0, 64, 110
1, 513720, Control_c, 0, 64, 112
1, 513735, Control_c, 0, 64, 114
1, 513749, Control_c, 0, 64, 115
1, 513764, Control_c, 0, 64, 116
1, 513768, Note_off_c, 0, 58, 40
1, 513801, Note_off_c, 0, 55, 41
1, 513972, Control_c, 0, 64, 115
1, 514002, Control_c, 0, 64, 114
1, 514017, Control_c, 0, 64, 113
1, 514032, Control_c, 0, 64, 110
1, 514046, Control_c, 0, 64, 103
1, 514061, Control_c, 0, 64, 97
1, 514076, Control_c, 0, 64, 92
1, 514091, Control_c, 0, 64, 87
1, 514106, Control_c, 0, 64, 84
1, 514120, Control_c, 0, 64, 81
1, 514135, Control_c, 0, 64, 77
1, 514138, Note_on_c, 0, 69, 37
1, 514141, Note_on_c, 0, 66, 35
1, 514150, Note_on_c, 0, 57, 29
1, 514150, Control_c, 0, 64, 73
1, 514151, Note_off_c, 0, 70, 33
1, 514160, Note_on_c, 0, 54, 26
1, 514165, Control_c, 0, 64, 67
1, 514171, Note_off_c, 0, 67, 30
1, 514180, Control_c, 0, 64, 59
1, 514195, Control_c, 0, 64, 0
1, 514299, Control_c, 0, 64, 45
1, 514314, Control_c, 0, 64, 61
1, 514328, Control_c, 0, 64, 66
1, 514343, Control_c, 0, 64, 69
1, 514358, Control_c, 0, 64, 73
1, 514379, Control_c, 0, 64, 79
1, 514394, Control_c, 0, 64, 84
1, 514401, Note_off_c, 0, 69, 61
1, 514409, Control_c, 0, 64, 88
1, 514424, Control_c, 0, 64, 91
1, 514439, Control_c, 0, 64, 94
1, 514448, Note_off_c, 0, 62, 42
1, 514452, Note_off_c, 0, 66, 43
1, 514454, Control_c, 0, 64, 95
1, 514469, Note_off_c, 0, 57, 39
1, 514469, Control_c, 0, 64, 97
1, 514478, Note_off_c, 0, 50, 38
1, 514484, Control_c, 0, 64, 98
1, 514503, Note_off_c, 0, 54, 40
1, 514661, Control_c, 0, 64, 97
1, 514676, Control_c, 0, 64, 94
1, 514691, Control_c, 0, 64, 88
1, 514705, Control_c, 0, 64, 80
1, 514720, Control_c, 0, 64, 74
1, 514735, Control_c, 0, 64, 69
1, 514751, Control_c, 0, 64, 62
1, 514766, Control_c, 0, 64, 40
1, 514781, Control_c, 0, 64, 0
1, 514958, Control_c, 0, 64, 40
1, 514973, Control_c, 0, 64, 54
1, 514988, Control_c, 0, 64, 58
1, 515002, Control_c, 0, 64, 60
1, 515017, Control_c, 0, 64, 63
1, 515032, Control_c, 0, 64, 64
1, 515047, Control_c, 0, 64, 67
1, 515062, Control_c, 0, 64, 71
1, 515068, Note_on_c, 0, 57, 47
1, 515077, Control_c, 0, 64, 75
1, 515092, Control_c, 0, 64, 80
1, 515107, Control_c, 0, 64, 84
1, 515128, Control_c, 0, 64, 89
1, 515144, Control_c, 0, 64, 93
1, 515159, Control_c, 0, 64, 99
1, 515174, Control_c, 0, 64, 109
1, 515189, Control_c, 0, 64, 127
1, 515271, Note_off_c, 0, 57, 32
1, 515447, Note_on_c, 0, 69, 54
1, 515454, Note_on_c, 0, 67, 47
1, 515459, Note_on_c, 0, 61, 42
1, 515466, Note_on_c, 0, 51, 39
1, 515470, Control_c, 0, 64, 98
1, 515471, Note_on_c, 0, 57, 29
1, 515485, Control_c, 0, 64, 75
1, 515500, Control_c, 0, 64, 63
1, 515515, Control_c, 0, 64, 37
1, 515529, Control_c, 0, 64, 19
1, 515545, Control_c, 0, 64, 40
1, 515560, Control_c, 0, 64, 54
1, 515575, Control_c, 0, 64, 62
1, 515590, Control_c, 0, 64, 67
1, 515605, Control_c, 0, 64, 75
1, 515619, Control_c, 0, 64, 83
1, 515634, Control_c, 0, 64, 88
1, 515649, Control_c, 0, 64, 91
1, 515652, Note_off_c, 0, 57, 38
1, 515664, Control_c, 0, 64, 92
1, 515679, Control_c, 0, 64, 95
1, 515693, Control_c, 0, 64, 96
1, 515708, Control_c, 0, 64, 97
1, 515723, Control_c, 0, 64, 98
1, 515738, Control_c, 0, 64, 98
1, 515752, Control_c, 0, 64, 99
1, 515767, Control_c, 0, 64, 99
1, 515780, Note_on_c, 0, 57, 41
1, 515881, Note_off_c, 0, 57, 34
1, 515998, Note_on_c, 0, 57, 37
1, 516079, Note_off_c, 0, 57, 36
1, 516198, Note_on_c, 0, 57, 37
1, 516281, Note_off_c, 0, 57, 36
1, 516392, Note_on_c, 0, 57, 37
1, 516439, Note_off_c, 0, 69, 45
1, 516470, Note_off_c, 0, 57, 37
1, 516583, Note_on_c, 0, 57, 34
1, 516662, Note_on_c, 0, 69, 51
1, 516681, Note_off_c, 0, 57, 34
1, 516704, Note_off_c, 0, 61, 52
1, 516730, Note_off_c, 0, 67, 44
1, 516731, Control_c, 0, 64, 98
1, 516738, Note_off_c, 0, 51, 31
1, 516741, Note_off_c, 0, 69, 51
1, 516746, Control_c, 0, 64, 97
1, 516761, Control_c, 0, 64, 93
1, 516775, Control_c, 0, 64, 90
1, 516790, Control_c, 0, 64, 86
1, 516805, Control_c, 0, 64, 82
1, 516820, Control_c, 0, 64, 76
1, 516835, Control_c, 0, 64, 69
1, 516842, Note_on_c, 0, 69, 46
1, 516849, Control_c, 0, 64, 60
1, 516856, Note_on_c, 0, 66, 41
1, 516863, Note_on_c, 0, 62, 35
1, 516864, Control_c, 0, 64, 0
1, 516868, Note_on_c, 0, 57, 23
1, 516883, Note_on_c, 0, 50, 30
1, 516923, Control_c, 0, 64, 43
1, 516938, Control_c, 0, 64, 62
1, 516953, Control_c, 0, 64, 70
1, 516968, Control_c, 0, 64, 79
1, 516982, Control_c, 0, 64, 91
1, 516997, Control_c, 0, 64, 97
1, 517000, Note_off_c, 0, 57, 38
1, 517012, Control_c, 0, 64, 102
1, 517027, Control_c, 0, 64, 103
1, 517041, Control_c, 0, 64, 104
1, 517098, Note_on_c, 0, 57, 31
1, 517167, Note_off_c, 0, 57, 39
1, 517305, Note_on_c, 0, 57, 34
1, 517391, Note_off_c, 0, 57, 38
1, 517530, Note_on_c, 0, 57, 27
1, 517603, Note_off_c, 0, 57, 39
1, 517752, Note_on_c, 0, 57, 30
1, 517834, Note_off_c, 0, 57, 37
1, 517834, Note_off_c, 0, 69, 44
1, 517988, Note_on_c, 0, 57, 28
1, 518106, Note_on_c, 0, 69, 41
1, 518108, Note_off_c, 0, 62, 41
1, 518127, Note_off_c, 0, 50, 36
1, 518141, Note_off_c, 0, 57, 34
1, 518163, Note_off_c, 0, 66, 47
1, 518173, Note_off_c, 0, 69, 50
1, 518258, Control_c, 0, 64, 103
1, 518288, Control_c, 0, 64, 102
1, 518302, Control_c, 0, 64, 100
1, 518317, Control_c, 0, 64, 97
1, 518332, Control_c, 0, 64, 95
1, 518347, Control_c, 0, 64, 92
1, 518362, Control_c, 0, 64, 89
1, 518377, Control_c, 0, 64, 85
1, 518390, Note_on_c, 0, 69, 41
1, 518392, Control_c, 0, 64, 79
1, 518398, Note_on_c, 0, 61, 41
1, 518407, Control_c, 0, 64, 71
1, 518411, Note_on_c, 0, 67, 37
1, 518417, Note_on_c, 0, 57, 20
1, 518421, Control_c, 0, 64, 62
1, 518434, Note_on_c, 0, 51, 27
1, 518436, Control_c, 0, 64, 0
1, 518495, Control_c, 0, 64, 41
1, 518510, Control_c, 0, 64, 61
1, 518525, Control_c, 0, 64, 68
1, 518539, Control_c, 0, 64, 76
1, 518554, Control_c, 0, 64, 84
1, 518569, Control_c, 0, 64, 90
1, 518584, Control_c, 0, 64, 97
1, 518599, Control_c, 0, 64, 106
1, 518603, Note_off_c, 0, 57, 38
1, 518613, Control_c, 0, 64, 111
1, 518628, Control_c, 0, 64, 113
1, 518658, Control_c, 0, 64, 114
1, 518773, Note_on_c, 0, 57, 19
1, 518874, Note_off_c, 0, 57, 35
1, 519035, Note_on_c, 0, 57, 24
1, 519139, Note_off_c, 0, 57, 34
1, 519286, Note_on_c, 0, 57, 25
1, 519410, Note_off_c, 0, 57, 37
1, 519593, Note_on_c, 0, 57, 26
1, 519727, Note_off_c, 0, 57, 37
1, 519907, Note_off_c, 0, 69, 43
1, 519958, Note_on_c, 0, 57, 24
1, 520150, Note_on_c, 0, 69, 33
1, 520239, Note_off_c, 0, 57, 32
1, 520270, Note_off_c, 0, 67, 41
1, 520294, Note_off_c, 0, 61, 40
1, 520309, Note_off_c, 0, 51, 32
1, 520323, Note_off_c, 0, 69, 41
1, 520636, Control_c, 0, 64, 113
1, 520651, Control_c, 0, 64, 109
1, 520666, Control_c, 0, 64, 104
1, 520681, Control_c, 0, 64, 100
1, 520696, Control_c, 0, 64, 97
1, 520711, Control_c, 0, 64, 92
1, 520726, Control_c, 0, 64, 88
1, 520735, Note_on_c, 0, 69, 17
1, 520740, Control_c, 0, 64, 82
1, 520751, Note_on_c, 0, 62, 26
1, 520755, Note_on_c, 0, 57, 19
1, 520755, Control_c, 0, 64, 76
1, 520756, Note_on_c, 0, 66, 23
1, 520762, Note_on_c, 0, 50, 23
1, 520770, Control_c, 0, 64, 68
1, 520785, Control_c, 0, 64, 59
1, 520800, Control_c, 0, 64, 20
1, 520814, Control_c, 0, 64, 0
1, 520858, Control_c, 0, 64, 43
1, 520873, Control_c, 0, 64, 58
1, 520888, Control_c, 0, 64, 65
1, 520903, Control_c, 0, 64, 69
1, 520918, Control_c, 0, 64, 75
1, 520932, Control_c, 0, 64, 81
1, 520947, Control_c, 0, 64, 86
1, 520955, Note_off_c, 0, 57, 39
1, 520962, Control_c, 0, 64, 91
1, 520976, Note_off_c, 0, 66, 42
1, 520977, Control_c, 0, 64, 98
1, 520978, Note_off_c, 0, 69, 44
1, 520992, Control_c, 0, 64, 106
1, 521003, Note_off_c, 0, 62, 33
1, 521006, Note_off_c, 0, 50, 27
1, 521006, Control_c, 0, 64, 114
1, 521021, Control_c, 0, 64, 121
1, 521036, Control_c, 0, 64, 127
1, 521459, Control_c, 0, 64, 118
1, 521474, Control_c, 0, 64, 107
1, 521480, Note_on_c, 0, 62, 33
1, 521489, Control_c, 0, 64, 96
1, 521492, Note_on_c, 0, 50, 32
1, 521504, Control_c, 0, 64, 80
1, 521519, Control_c, 0, 64, 68
1, 521534, Control_c, 0, 64, 59
1, 521549, Control_c, 0, 64, 45
1, 521563, Control_c, 0, 64, 46
1, 521578, Control_c, 0, 64, 53
1, 521593, Control_c, 0, 64, 59
1, 521608, Control_c, 0, 64, 63
1, 521623, Control_c, 0, 64, 66
1, 521637, Control_c, 0, 64, 71
1, 521652, Control_c, 0, 64, 76
1, 521667, Control_c, 0, 64, 81
1, 521681, Control_c, 0, 64, 83
1, 521696, Control_c, 0, 64, 86
1, 521711, Control_c, 0, 64, 89
1, 521726, Control_c, 0, 64, 90
1, 521756, Note_off_c, 0, 50, 28
1, 521760, Note_off_c, 0, 62, 33
1, 521785, Control_c, 0, 64, 90
1, 521942, Note_on_c, 0, 62, 41
1, 521947, Note_on_c, 0, 48, 42
1, 521951, Note_on_c, 0, 50, 24
1, 521957, Control_c, 0, 64, 87
1, 521972, Control_c, 0, 64, 76
1, 521987, Control_c, 0, 64, 65
1, 522002, Control_c, 0, 64, 55
1, 522017, Control_c, 0, 64, 53
1, 522031, Control_c, 0, 64, 59
1, 522046, Control_c, 0, 64, 63
1, 522061, Control_c, 0, 64, 67
1, 522076, Control_c, 0, 64, 76
1, 522091, Control_c, 0, 64, 85
1, 522106, Control_c, 0, 64, 91
1, 522113, Note_off_c, 0, 62, 39
1, 522120, Control_c, 0, 64, 94
1, 522135, Control_c, 0, 64, 98
1, 522136, Note_off_c, 0, 50, 32
1, 522150, Control_c, 0, 64, 105
1, 522165, Control_c, 0, 64, 112
1, 522180, Control_c, 0, 64, 114
1, 522229, Note_off_c, 0, 48, 32
1, 522254, Control_c, 0, 64, 99
1, 522264, Note_on_c, 0, 50, 46
1, 522268, Control_c, 0, 64, 78
1, 522270, Note_on_c, 0, 47, 48
1, 522270, Note_on_c, 0, 62, 45
1, 522283, Control_c, 0, 64, 68
1, 522298, Control_c, 0, 64, 64
1, 522312, Control_c, 0, 64, 65
1, 522327, Control_c, 0, 64, 68
1, 522342, Control_c, 0, 64, 74
1, 522357, Control_c, 0, 64, 83
1, 522357, Control_c, 0, 67, 125
1, 522372, Control_c, 0, 64, 92
1, 522372, Control_c, 0, 67, 120
1, 522386, Control_c, 0, 64, 108
1, 522386, Control_c, 0, 67, 115
1, 522401, Control_c, 0, 64, 127
1, 522401, Control_c, 0, 67, 111
1, 522416, Control_c, 0, 67, 107
1, 522431, Control_c, 0, 67, 104
1, 522445, Note_off_c, 0, 62, 31
1, 522446, Control_c, 0, 67, 102
1, 522461, Control_c, 0, 67, 100
1, 522469, Note_off_c, 0, 50, 32
1, 522476, Control_c, 0, 67, 99
1, 522490, Control_c, 0, 64, 91
1, 522490, Control_c, 0, 67, 98
1, 522505, Control_c, 0, 64, 67
1, 522505, Control_c, 0, 67, 97
1, 522517, Note_off_c, 0, 47, 38
1, 522520, Control_c, 0, 64, 49
1, 522520, Control_c, 0, 67, 97
1, 522526, Note_on_c, 0, 50, 25
1, 522527, Note_on_c, 0, 62, 49
1, 522532, Note_on_c, 0, 45, 44
1, 522535, Control_c, 0, 64, 39
1, 522535, Control_c, 0, 67, 95
1, 522550, Control_c, 0, 64, 56
1, 522550, Control_c, 0, 67, 92
1, 522565, Control_c, 0, 64, 63
1, 522565, Control_c, 0, 67, 86
1, 522580, Control_c, 0, 64, 70
1, 522580, Control_c, 0, 67, 79
1, 522594, Control_c, 0, 64, 81
1, 522594, Control_c, 0, 67, 72
1, 522616, Control_c, 0, 64, 92
1, 522616, Control_c, 0, 67, 66
1, 522631, Control_c, 0, 64, 97
1, 522631, Control_c, 0, 67, 59
1, 522645, Control_c, 0, 64, 100
1, 522645, Control_c, 0, 67, 51
1, 522660, Control_c, 0, 64, 104
1, 522660, Control_c, 0, 67, 44
1, 522675, Control_c, 0, 64, 106
1, 522675, Control_c, 0, 67, 38
1, 522690, Control_c, 0, 64, 108
1, 522690, Control_c, 0, 67, 32
1, 522705, Control_c, 0, 64, 109
1, 522705, Control_c, 0, 67, 27
1, 522707, Note_off_c, 0, 50, 36
1, 522716, Note_off_c, 0, 62, 33
1, 522720, Control_c, 0, 67, 22
1, 522735, Control_c, 0, 67, 17
1, 522744, Note_off_c, 0, 45, 37
1, 522750, Control_c, 0, 67, 12
1, 522765, Control_c, 0, 67, 9
1, 522780, Control_c, 0, 67, 0
1, 522795, Control_c, 0, 64, 105
1, 522809, Control_c, 0, 64, 87
1, 522824, Control_c, 0, 64, 68
1, 522835, Note_on_c, 0, 62, 53
1, 522839, Control_c, 0, 64, 17
1, 522854, Note_on_c, 0, 50, 40
1, 522854, Note_on_c, 0, 43, 45
1, 522854, Control_c, 0, 64, 0
1, 522899, Control_c, 0, 64, 30
1, 522914, Control_c, 0, 64, 59
1, 522929, Control_c, 0, 64, 65
1, 522943, Control_c, 0, 64, 69
1, 522958, Control_c, 0, 64, 75
1, 522966, Note_off_c, 0, 62, 52
1, 522973, Control_c, 0, 64, 83
1, 522988, Control_c, 0, 64, 101
1, 523003, Control_c, 0, 64, 127
1, 523054, Note_off_c, 0, 50, 34
1, 523068, Note_off_c, 0, 43, 32
1, 523495, Note_on_c, 0, 71, 60
1, 523524, Note_on_c, 0, 67, 37
1, 523543, Note_on_c, 0, 59, 36
1, 523568, Note_on_c, 0, 50, 30
1, 523581, Note_on_c, 0, 43, 30
1, 523662, Control_c, 0, 64, 99
1, 523677, Control_c, 0, 64, 88
1, 523692, Control_c, 0, 64, 80
1, 523707, Control_c, 0, 64, 73
1, 523722, Control_c, 0, 64, 67
1, 523736, Control_c, 0, 64, 61
1, 523751, Control_c, 0, 64, 38
1, 523766, Control_c, 0, 64, 0
1, 523899, Control_c, 0, 64, 19
1, 523914, Control_c, 0, 64, 50
1, 523929, Control_c, 0, 64, 59
1, 523944, Control_c, 0, 64, 63
1, 523958, Control_c, 0, 64, 64
1, 523973, Control_c, 0, 64, 65
1, 523988, Control_c, 0, 64, 67
1, 524003, Control_c, 0, 64, 69
1, 524018, Control_c, 0, 64, 72
1, 524032, Control_c, 0, 64, 75
1, 524047, Control_c, 0, 64, 77
1, 524062, Control_c, 0, 64, 79
1, 524076, Control_c, 0, 64, 84
1, 524091, Control_c, 0, 64, 88
1, 524114, Control_c, 0, 64, 93
1, 524128, Control_c, 0, 64, 96
1, 524143, Control_c, 0, 64, 99
1, 524157, Control_c, 0, 64, 103
1, 524172, Control_c, 0, 64, 110
1, 524187, Control_c, 0, 64, 127
1, 524648, Control_c, 0, 67, 8
1, 524662, Control_c, 0, 67, 12
1, 524677, Control_c, 0, 67, 15
1, 524692, Control_c, 0, 67, 18
1, 524706, Control_c, 0, 67, 20
1, 524721, Control_c, 0, 67, 21
1, 524736, Control_c, 0, 67, 25
1, 524742, Note_off_c, 0, 59, 40
1, 524751, Control_c, 0, 67, 29
1, 524763, Note_off_c, 0, 50, 27
1, 524766, Control_c, 0, 67, 32
1, 524772, Note_off_c, 0, 43, 36
1, 524780, Control_c, 0, 67, 34
1, 524795, Control_c, 0, 67, 36
1, 524810, Control_c, 0, 67, 37
1, 524813, Note_off_c, 0, 71, 33
1, 524825, Control_c, 0, 67, 38
1, 524839, Control_c, 0, 67, 38
1, 524907, Control_c, 0, 67, 39
1, 524917, Note_off_c, 0, 67, 43
1, 524937, Control_c, 0, 67, 38
1, 524967, Control_c, 0, 67, 38
1, 525011, Control_c, 0, 67, 37
1, 525026, Control_c, 0, 67, 37
1, 525055, Control_c, 0, 67, 36
1, 525070, Control_c, 0, 67, 36
1, 525124, Note_on_c, 0, 69, 50
1, 525135, Note_on_c, 0, 66, 47
1, 525136, Note_on_c, 0, 60, 42
1, 525151, Note_on_c, 0, 43, 34
1, 525160, Note_on_c, 0, 50, 38
1, 525160, Control_c, 0, 67, 35
1, 525180, Note_off_c, 0, 60, 60
1, 525200, Note_off_c, 0, 50, 50
1, 525215, Note_off_c, 0, 43, 39
1, 525255, Note_off_c, 0, 66, 32
1, 525269, Note_off_c, 0, 69, 50
1, 525273, Note_on_c, 0, 71, 61
1, 525278, Control_c, 0, 67, 35
1, 525293, Note_on_c, 0, 67, 48
1, 525308, Control_c, 0, 64, 100
1, 525310, Note_on_c, 0, 59, 41
1, 525313, Note_on_c, 0, 43, 23
1, 525318, Note_on_c, 0, 50, 31
1, 525323, Control_c, 0, 64, 87
1, 525323, Control_c, 0, 67, 34
1, 525337, Control_c, 0, 64, 80
1, 525352, Control_c, 0, 64, 73
1, 525352, Control_c, 0, 67, 34
1, 525367, Control_c, 0, 64, 67
1, 525382, Control_c, 0, 64, 57
1, 525397, Control_c, 0, 64, 0
1, 525442, Control_c, 0, 67, 33
1, 525626, Control_c, 0, 67, 34
1, 525834, Control_c, 0, 67, 34
1, 525893, Control_c, 0, 67, 35
1, 526072, Control_c, 0, 67, 34
1, 526086, Control_c, 0, 67, 34
1, 526116, Control_c, 0, 64, 26
1, 526116, Control_c, 0, 67, 33
1, 526131, Control_c, 0, 64, 63
1, 526131, Control_c, 0, 67, 33
1, 526146, Control_c, 0, 64, 74
1, 526160, Control_c, 0, 64, 93
1, 526175, Control_c, 0, 64, 127
1, 526324, Control_c, 0, 67, 33
1, 526421, Note_off_c, 0, 59, 37
1, 526425, Note_off_c, 0, 50, 33
1, 526434, Note_off_c, 0, 43, 36
1, 526469, Note_off_c, 0, 71, 33
1, 526539, Control_c, 0, 67, 34
1, 526621, Note_off_c, 0, 67, 36
1, 526686, Control_c, 0, 67, 35
1, 526753, Note_on_c, 0, 69, 51
1, 526767, Note_on_c, 0, 66, 42
1, 526774, Note_on_c, 0, 60, 36
1, 526789, Note_on_c, 0, 43, 25
1, 526790, Note_on_c, 0, 50, 18
1, 526822, Note_off_c, 0, 60, 58
1, 526825, Note_off_c, 0, 66, 51
1, 526839, Note_off_c, 0, 43, 44
1, 526839, Note_off_c, 0, 50, 44
1, 526878, Note_off_c, 0, 69, 57
1, 526880, Control_c, 0, 67, 35
1, 526895, Control_c, 0, 67, 36
1, 526924, Control_c, 0, 64, 80
1, 526927, Note_on_c, 0, 67, 50
1, 526929, Note_on_c, 0, 71, 59
1, 526939, Control_c, 0, 64, 63
1, 526947, Note_on_c, 0, 50, 22
1, 526953, Note_on_c, 0, 43, 35
1, 526954, Control_c, 0, 64, 46
1, 526964, Note_on_c, 0, 59, 37
1, 526969, Control_c, 0, 64, 55
1, 526969, Control_c, 0, 67, 35
1, 526983, Control_c, 0, 64, 62
1, 526996, Note_off_c, 0, 67, 56
1, 526998, Control_c, 0, 64, 64
1, 526998, Control_c, 0, 67, 34
1, 527013, Control_c, 0, 64, 67
1, 527013, Control_c, 0, 67, 34
1, 527027, Control_c, 0, 64, 70
1, 527042, Control_c, 0, 64, 74
1, 527051, Note_off_c, 0, 59, 38
1, 527057, Control_c, 0, 64, 75
1, 527057, Control_c, 0, 67, 33
1, 527072, Control_c, 0, 67, 33
1, 527089, Note_off_c, 0, 50, 39
1, 527091, Note_off_c, 0, 43, 38
1, 527109, Control_c, 0, 67, 32
1, 527139, Control_c, 0, 64, 75
1, 527174, Note_off_c, 0, 71, 60
1, 527179, Note_on_c, 0, 72, 66
1, 527183, Control_c, 0, 64, 76
1, 527195, Note_on_c, 0, 69, 54
1, 527198, Control_c, 0, 64, 76
1, 527203, Note_on_c, 0, 50, 34
1, 527209, Note_on_c, 0, 43, 41
1, 527213, Control_c, 0, 64, 77
1, 527213, Control_c, 0, 67, 31
1, 527215, Note_on_c, 0, 60, 34
1, 527228, Control_c, 0, 64, 77
1, 527228, Control_c, 0, 67, 31
1, 527257, Note_off_c, 0, 60, 47
1, 527257, Control_c, 0, 64, 78
1, 527271, Note_off_c, 0, 43, 55
1, 527287, Control_c, 0, 64, 78
1, 527299, Note_off_c, 0, 50, 36
1, 527302, Control_c, 0, 64, 79
1, 527327, Note_off_c, 0, 69, 55
1, 527331, Control_c, 0, 64, 79
1, 527331, Control_c, 0, 67, 31
1, 527376, Control_c, 0, 67, 32
1, 527378, Note_on_c, 0, 74, 71
1, 527393, Note_on_c, 0, 71, 62
1, 527399, Note_on_c, 0, 62, 58
1, 527406, Control_c, 0, 64, 80
1, 527406, Control_c, 0, 67, 32
1, 527406, Note_off_c, 0, 72, 35
1, 527408, Note_on_c, 0, 43, 48
1, 527411, Note_on_c, 0, 50, 37
1, 527421, Control_c, 0, 67, 33
1, 527435, Control_c, 0, 67, 33
1, 527450, Control_c, 0, 67, 34
1, 527452, Note_off_c, 0, 71, 54
1, 527480, Control_c, 0, 67, 34
1, 527483, Note_off_c, 0, 43, 47
1, 527489, Note_off_c, 0, 50, 36
1, 527493, Note_off_c, 0, 62, 33
1, 527494, Note_off_c, 0, 74, 49
1, 527495, Control_c, 0, 67, 35
1, 527540, Control_c, 0, 67, 35
1, 527555, Control_c, 0, 67, 36
1, 527585, Control_c, 0, 67, 37
1, 527614, Control_c, 0, 64, 79
1, 527629, Control_c, 0, 64, 75
1, 527633, Note_on_c, 0, 74, 59
1, 527644, Control_c, 0, 64, 65
1, 527658, Note_on_c, 0, 62, 46
1, 527658, Control_c, 0, 64, 41
1, 527662, Note_on_c, 0, 66, 51
1, 527673, Control_c, 0, 64, 0
1, 527673, Control_c, 0, 67, 36
1, 527688, Control_c, 0, 67, 36
1, 527694, Note_on_c, 0, 50, 24
1, 527701, Note_on_c, 0, 38, 21
1, 527718, Control_c, 0, 64, 43
1, 527732, Control_c, 0, 64, 60
1, 527732, Control_c, 0, 67, 35
1, 527745, Note_off_c, 0, 62, 49
1, 527747, Control_c, 0, 64, 67
1, 527762, Control_c, 0, 64, 73
1, 527777, Control_c, 0, 64, 79
1, 527789, Note_off_c, 0, 38, 36
1, 527792, Control_c, 0, 64, 83
1, 527796, Note_off_c, 0, 66, 36
1, 527802, Note_off_c, 0, 50, 30
1, 527806, Control_c, 0, 64, 87
1, 527806, Control_c, 0, 67, 35
1, 527821, Control_c, 0, 64, 89
1, 527836, Control_c, 0, 64, 89
1, 527873, Control_c, 0, 67, 35
1, 527888, Control_c, 0, 64, 89
1, 527888, Control_c, 0, 67, 36
1, 527903, Control_c, 0, 64, 82
1, 527908, Note_off_c, 0, 74, 60
1, 527911, Note_on_c, 0, 66, 48
1, 527913, Note_on_c, 0, 72, 55
1, 527918, Control_c, 0, 64, 68
1, 527918, Control_c, 0, 67, 36
1, 527928, Note_on_c, 0, 50, 13
1, 527932, Note_on_c, 0, 60, 38
1, 527932, Control_c, 0, 64, 58
1, 527936, Note_on_c, 0, 38, 29
1, 527947, Control_c, 0, 64, 53
1, 527962, Control_c, 0, 64, 61
1, 527962, Control_c, 0, 67, 36
1, 527977, Control_c, 0, 64, 65
1, 527990, Note_off_c, 0, 60, 47
1, 527992, Control_c, 0, 64, 71
1, 528005, Note_off_c, 0, 38, 39
1, 528006, Control_c, 0, 64, 82
1, 528016, Note_off_c, 0, 72, 57
1, 528021, Control_c, 0, 64, 91
1, 528027, Note_off_c, 0, 50, 33
1, 528027, Note_off_c, 0, 66, 37
1, 528036, Control_c, 0, 64, 95
1, 528036, Control_c, 0, 67, 36
1, 528050, Control_c, 0, 64, 97
1, 528125, Control_c, 0, 64, 87
1, 528139, Control_c, 0, 64, 72
1, 528147, Note_on_c, 0, 72, 51
1, 528154, Control_c, 0, 64, 60
1, 528155, Note_on_c, 0, 66, 45
1, 528163, Note_on_c, 0, 50, 19
1, 528163, Note_on_c, 0, 60, 29
1, 528169, Control_c, 0, 64, 33
1, 528169, Control_c, 0, 67, 37
1, 528174, Note_on_c, 0, 38, 19
1, 528184, Control_c, 0, 64, 38
1, 528199, Control_c, 0, 64, 58
1, 528214, Control_c, 0, 64, 64
1, 528223, Note_off_c, 0, 60, 55
1, 528229, Control_c, 0, 64, 69
1, 528243, Note_off_c, 0, 38, 41
1, 528244, Control_c, 0, 64, 75
1, 528258, Control_c, 0, 64, 82
1, 528273, Note_off_c, 0, 50, 33
1, 528273, Control_c, 0, 64, 86
1, 528273, Control_c, 0, 67, 37
1, 528281, Note_off_c, 0, 66, 34
1, 528288, Control_c, 0, 64, 90
1, 528288, Control_c, 0, 67, 38
1, 528303, Control_c, 0, 64, 92
1, 528318, Control_c, 0, 64, 94
1, 528318, Control_c, 0, 67, 38
1, 528333, Control_c, 0, 64, 94
1, 528348, Control_c, 0, 67, 39
1, 528422, Control_c, 0, 67, 39
1, 528481, Control_c, 0, 64, 94
1, 528496, Control_c, 0, 64, 93
1, 528511, Control_c, 0, 64, 91
1, 528526, Control_c, 0, 64, 87
1, 528538, Note_on_c, 0, 71, 47
1, 528541, Control_c, 0, 64, 83
1, 528541, Control_c, 0, 67, 39
1, 528548, Note_on_c, 0, 67, 41
1, 528551, Note_off_c, 0, 72, 56
1, 528555, Control_c, 0, 64, 78
1, 528566, Note_on_c, 0, 59, 28
1, 528570, Control_c, 0, 64, 73
1, 528574, Note_on_c, 0, 43, 25
1, 528585, Control_c, 0, 64, 69
1, 528589, Note_on_c, 0, 50, 21
1, 528607, Control_c, 0, 64, 66
1, 528607, Control_c, 0, 67, 38
1, 528622, Control_c, 0, 64, 62
1, 528637, Control_c, 0, 64, 54
1, 528637, Control_c, 0, 67, 38
1, 528652, Control_c, 0, 64, 32
1, 528667, Control_c, 0, 64, 0
1, 528711, Control_c, 0, 67, 37
1, 528726, Control_c, 0, 67, 37
1, 528755, Control_c, 0, 67, 36
1, 528785, Control_c, 0, 67, 35
1, 528815, Control_c, 0, 67, 35
1, 528844, Control_c, 0, 64, 46
1, 528844, Control_c, 0, 67, 34
1, 528859, Control_c, 0, 64, 62
1, 528873, Control_c, 0, 64, 65
1, 528873, Control_c, 0, 67, 34
1, 528888, Control_c, 0, 64, 66
1, 528903, Control_c, 0, 64, 68
1, 528918, Control_c, 0, 64, 70
1, 528933, Control_c, 0, 64, 73
1, 528947, Control_c, 0, 64, 76
1, 528962, Control_c, 0, 64, 79
1, 528962, Control_c, 0, 67, 33
1, 528977, Control_c, 0, 64, 83
1, 528992, Control_c, 0, 64, 88
1, 529007, Control_c, 0, 64, 94
1, 529022, Control_c, 0, 64, 103
1, 529037, Control_c, 0, 64, 125
1, 529051, Control_c, 0, 64, 127
1, 529141, Control_c, 0, 67, 34
1, 529400, Note_off_c, 0, 50, 34
1, 529450, Note_off_c, 0, 59, 37
1, 529480, Note_off_c, 0, 43, 37
1, 529503, Note_off_c, 0, 71, 37
1, 529534, Control_c, 0, 67, 34
1, 529566, Note_off_c, 0, 67, 40
1, 529593, Control_c, 0, 67, 35
1, 529844, Control_c, 0, 67, 35
1, 529874, Control_c, 0, 64, 100
1, 529889, Control_c, 0, 64, 82
1, 529889, Control_c, 0, 67, 36
1, 529904, Control_c, 0, 64, 70
1, 529919, Control_c, 0, 64, 55
1, 529934, Control_c, 0, 64, 0
1, 530023, Control_c, 0, 67, 35
1, 530053, Control_c, 0, 67, 35
1, 530083, Control_c, 0, 67, 34
1, 530164, Control_c, 0, 64, 36
1, 530179, Control_c, 0, 64, 51
1, 530194, Control_c, 0, 64, 57
1, 530208, Control_c, 0, 64, 61
1, 530223, Control_c, 0, 64, 63
1, 530223, Control_c, 0, 67, 34
1, 530238, Control_c, 0, 64, 65
1, 530253, Control_c, 0, 64, 66
1, 530268, Control_c, 0, 64, 68
1, 530283, Control_c, 0, 64, 70
1, 530297, Control_c, 0, 64, 73
1, 530312, Control_c, 0, 64, 77
1, 530327, Control_c, 0, 64, 79
1, 530342, Control_c, 0, 64, 82
1, 530357, Control_c, 0, 64, 86
1, 530372, Control_c, 0, 64, 90
1, 530387, Control_c, 0, 64, 96
1, 530401, Control_c, 0, 64, 106
1, 530416, Control_c, 0, 64, 127
1, 530682, Control_c, 0, 67, 33
1, 530702, Note_on_c, 0, 76, 65
1, 530724, Note_on_c, 0, 72, 48
1, 530728, Control_c, 0, 67, 33
1, 530749, Note_on_c, 0, 64, 29
1, 530757, Note_on_c, 0, 48, 36
1, 530772, Control_c, 0, 67, 32
1, 530775, Note_on_c, 0, 36, 32
1, 530777, Note_off_c, 0, 72, 0
1, 530777, Note_on_c, 0, 72, 20
1, 530802, Control_c, 0, 67, 32
1, 530987, Control_c, 0, 67, 31
1, 531046, Control_c, 0, 67, 31
1, 531239, Control_c, 0, 67, 31
1, 531254, Control_c, 0, 67, 32
1, 531298, Control_c, 0, 67, 32
1, 531328, Control_c, 0, 67, 33
1, 531357, Control_c, 0, 67, 33
1, 531372, Control_c, 0, 67, 34
1, 531401, Control_c, 0, 67, 34
1, 531416, Control_c, 0, 67, 35
1, 531446, Control_c, 0, 67, 35
1, 531475, Control_c, 0, 67, 36
1, 531536, Control_c, 0, 67, 36
1, 531565, Control_c, 0, 67, 37
1, 531645, Control_c, 0, 67, 37
1, 531675, Control_c, 0, 67, 38
1, 531764, Control_c, 0, 67, 38
1, 531794, Control_c, 0, 67, 39
1, 531847, Note_off_c, 0, 76, 58
1, 531883, Control_c, 0, 67, 39
1, 531886, Note_off_c, 0, 64, 40
1, 531912, Control_c, 0, 67, 40
1, 532035, Note_off_c, 0, 72, 38
1, 532074, Note_off_c, 0, 36, 38
1, 532076, Note_off_c, 0, 48, 33
1, 532119, Control_c, 0, 67, 39
1, 532164, Control_c, 0, 67, 39
1, 532208, Control_c, 0, 67, 38
1, 532223, Control_c, 0, 67, 38
1, 532253, Control_c, 0, 67, 37
1, 532268, Control_c, 0, 67, 37
1, 532297, Control_c, 0, 67, 36
1, 532327, Control_c, 0, 67, 36
1, 532381, Control_c, 0, 67, 35
1, 532410, Control_c, 0, 67, 35
1, 532474, Note_on_c, 0, 71, 53
1, 532475, Note_on_c, 0, 75, 56
1, 532491, Note_on_c, 0, 48, 43
1, 532491, Note_on_c, 0, 63, 45
1, 532497, Note_on_c, 0, 36, 39
1, 532538, Note_off_c, 0, 63, 61
1, 532542, Note_off_c, 0, 36, 47
1, 532545, Note_off_c, 0, 48, 44
1, 532551, Note_off_c, 0, 71, 53
1, 532558, Control_c, 0, 67, 35
1, 532572, Note_off_c, 0, 75, 55
1, 532573, Control_c, 0, 67, 36
1, 532612, Note_on_c, 0, 72, 55
1, 532612, Note_on_c, 0, 76, 70
1, 532635, Note_on_c, 0, 64, 51
1, 532644, Note_on_c, 0, 48, 31
1, 532661, Control_c, 0, 64, 125
1, 532667, Note_on_c, 0, 36, 38
1, 532676, Control_c, 0, 64, 98
1, 532691, Control_c, 0, 64, 84
1, 532706, Control_c, 0, 64, 73
1, 532721, Control_c, 0, 64, 65
1, 532736, Control_c, 0, 64, 50
1, 532751, Control_c, 0, 64, 0
1, 533017, Control_c, 0, 67, 35
1, 533061, Control_c, 0, 67, 35
1, 533395, Control_c, 0, 67, 34
1, 533425, Control_c, 0, 64, 38
1, 533425, Control_c, 0, 67, 34
1, 533440, Control_c, 0, 64, 63
1, 533455, Control_c, 0, 64, 73
1, 533469, Control_c, 0, 64, 87
1, 533484, Control_c, 0, 64, 115
1, 533499, Control_c, 0, 64, 127
1, 533514, Control_c, 0, 67, 35
1, 533544, Control_c, 0, 67, 35
1, 533559, Control_c, 0, 67, 36
1, 533588, Control_c, 0, 67, 36
1, 533603, Control_c, 0, 67, 37
1, 533633, Control_c, 0, 67, 37
1, 533648, Control_c, 0, 67, 38
1, 533649, Note_off_c, 0, 76, 58
1, 533737, Control_c, 0, 67, 38
1, 533754, Note_off_c, 0, 64, 40
1, 533782, Note_off_c, 0, 36, 37
1, 533784, Note_off_c, 0, 48, 33
1, 533832, Note_off_c, 0, 72, 37
1, 534137, Note_on_c, 0, 75, 53
1, 534140, Note_on_c, 0, 71, 50
1, 534152, Note_on_c, 0, 63, 39
1, 534164, Note_on_c, 0, 48, 25
1, 534179, Note_on_c, 0, 36, 9
1, 534198, Note_off_c, 0, 63, 59
1, 534208, Note_off_c, 0, 48, 46
1, 534221, Note_off_c, 0, 75, 56
1, 534238, Note_off_c, 0, 36, 42
1, 534250, Note_off_c, 0, 71, 36
1, 534263, Control_c, 0, 64, 107
1, 534278, Control_c, 0, 64, 73
1, 534280, Note_on_c, 0, 72, 51
1, 534281, Note_on_c, 0, 76, 65
1, 534292, Control_c, 0, 64, 53
1, 534297, Note_on_c, 0, 64, 45
1, 534298, Note_on_c, 0, 48, 35
1, 534307, Control_c, 0, 64, 0
1, 534307, Control_c, 0, 67, 38
1, 534310, Note_on_c, 0, 36, 18
1, 534337, Control_c, 0, 64, 22
1, 534337, Control_c, 0, 67, 37
1, 534352, Control_c, 0, 64, 48
1, 534366, Control_c, 0, 64, 61
1, 534366, Control_c, 0, 67, 36
1, 534381, Control_c, 0, 64, 66
1, 534396, Control_c, 0, 64, 69
1, 534396, Control_c, 0, 67, 36
1, 534411, Control_c, 0, 64, 73
1, 534417, Note_off_c, 0, 76, 56
1, 534426, Control_c, 0, 64, 75
1, 534426, Control_c, 0, 67, 35
1, 534426, Note_off_c, 0, 64, 35
1, 534441, Control_c, 0, 64, 77
1, 534441, Control_c, 0, 67, 35
1, 534456, Control_c, 0, 64, 78
1, 534471, Control_c, 0, 64, 79
1, 534471, Control_c, 0, 67, 34
1, 534474, Note_off_c, 0, 48, 40
1, 534480, Note_off_c, 0, 36, 41
1, 534485, Control_c, 0, 64, 80
1, 534500, Control_c, 0, 64, 81
1, 534530, Control_c, 0, 64, 81
1, 534545, Control_c, 0, 64, 82
1, 534549, Note_off_c, 0, 72, 55
1, 534559, Control_c, 0, 67, 34
1, 534569, Note_on_c, 0, 77, 71
1, 534574, Control_c, 0, 64, 82
1, 534581, Note_on_c, 0, 71, 55
1, 534596, Control_c, 0, 64, 83
1, 534596, Control_c, 0, 67, 33
1, 534597, Note_on_c, 0, 65, 55
1, 534614, Note_on_c, 0, 48, 41
1, 534620, Note_on_c, 0, 36, 22
1, 534625, Control_c, 0, 64, 83
1, 534625, Control_c, 0, 67, 33
1, 534640, Control_c, 0, 64, 84
1, 534655, Control_c, 0, 64, 84
1, 534670, Control_c, 0, 64, 85
1, 534682, Note_off_c, 0, 36, 43
1, 534685, Control_c, 0, 64, 85
1, 534685, Note_off_c, 0, 77, 56
1, 534689, Note_off_c, 0, 48, 37
1, 534695, Note_off_c, 0, 65, 47
1, 534699, Control_c, 0, 64, 86
1, 534715, Control_c, 0, 67, 32
1, 534795, Note_off_c, 0, 71, 61
1, 534802, Note_on_c, 0, 76, 75
1, 534808, Note_on_c, 0, 72, 59
1, 534816, Note_on_c, 0, 64, 60
1, 534819, Control_c, 0, 64, 86
1, 534825, Note_on_c, 0, 36, 33
1, 534825, Note_on_c, 0, 48, 45
1, 534848, Control_c, 0, 64, 87
1, 534863, Control_c, 0, 64, 88
1, 534878, Control_c, 0, 64, 89
1, 534883, Note_off_c, 0, 36, 42
1, 534886, Note_off_c, 0, 48, 40
1, 534893, Control_c, 0, 64, 92
1, 534894, Note_off_c, 0, 64, 57
1, 534908, Control_c, 0, 64, 98
1, 534922, Control_c, 0, 64, 104
1, 534922, Control_c, 0, 67, 33
1, 534937, Control_c, 0, 64, 111
1, 534967, Control_c, 0, 64, 104
1, 534982, Control_c, 0, 64, 79
1, 534996, Control_c, 0, 64, 65
1, 535001, Note_off_c, 0, 72, 37
1, 535011, Control_c, 0, 64, 50
1, 535012, Note_on_c, 0, 74, 70
1, 535015, Note_on_c, 0, 71, 57
1, 535022, Note_on_c, 0, 62, 60
1, 535026, Note_on_c, 0, 48, 48
1, 535026, Control_c, 0, 64, 50
1, 535026, Control_c, 0, 67, 32
1, 535029, Note_off_c, 0, 76, 65
1, 535030, Note_on_c, 0, 36, 48
1, 535040, Control_c, 0, 64, 60
1, 535055, Control_c, 0, 64, 66
1, 535070, Control_c, 0, 64, 73
1, 535070, Control_c, 0, 67, 32
1, 535085, Control_c, 0, 64, 89
1, 535092, Note_off_c, 0, 71, 62
1, 535100, Control_c, 0, 64, 107
1, 535106, Note_off_c, 0, 74, 64
1, 535115, Control_c, 0, 64, 127
1, 535124, Note_off_c, 0, 62, 43
1, 535134, Note_off_c, 0, 48, 37
1, 535138, Note_off_c, 0, 36, 35
1, 535189, Control_c, 0, 64, 85
1, 535204, Control_c, 0, 64, 67
1, 535204, Control_c, 0, 67, 32
1, 535219, Control_c, 0, 64, 60
1, 535223, Note_on_c, 0, 72, 61
1, 535233, Control_c, 0, 64, 62
1, 535237, Note_on_c, 0, 60, 48
1, 535237, Note_on_c, 0, 69, 51
1, 535243, Note_on_c, 0, 36, 39
1, 535248, Control_c, 0, 64, 67
1, 535257, Note_on_c, 0, 48, 29
1, 535263, Control_c, 0, 64, 76
1, 535278, Control_c, 0, 64, 88
1, 535293, Control_c, 0, 64, 96
1, 535293, Note_off_c, 0, 48, 43
1, 535307, Control_c, 0, 64, 98
1, 535317, Note_off_c, 0, 60, 59
1, 535322, Control_c, 0, 67, 33
1, 535403, Note_off_c, 0, 69, 55
1, 535404, Control_c, 0, 64, 94
1, 535419, Control_c, 0, 64, 77
1, 535434, Note_off_c, 0, 36, 41
1, 535434, Control_c, 0, 64, 62
1, 535442, Note_on_c, 0, 71, 59
1, 535448, Control_c, 0, 64, 0
1, 535449, Note_on_c, 0, 37, 50
1, 535450, Note_off_c, 0, 72, 64
1, 535451, Note_on_c, 0, 67, 53
1, 535457, Note_on_c, 0, 49, 43
1, 535460, Note_on_c, 0, 59, 51
1, 535463, Control_c, 0, 67, 32
1, 535478, Control_c, 0, 67, 31
1, 535493, Control_c, 0, 64, 39
1, 535493, Control_c, 0, 67, 30
1, 535508, Control_c, 0, 64, 62
1, 535508, Control_c, 0, 67, 29
1, 535524, Control_c, 0, 64, 71
1, 535524, Control_c, 0, 67, 28
1, 535539, Control_c, 0, 64, 81
1, 535540, Note_off_c, 0, 67, 52
1, 535553, Control_c, 0, 64, 89
1, 535553, Control_c, 0, 67, 28
1, 535566, Note_off_c, 0, 71, 60
1, 535568, Control_c, 0, 64, 93
1, 535575, Note_off_c, 0, 59, 58
1, 535583, Control_c, 0, 64, 97
1, 535583, Control_c, 0, 67, 27
1, 535598, Control_c, 0, 64, 102
1, 535598, Control_c, 0, 67, 27
1, 535612, Control_c, 0, 64, 104
1, 535612, Control_c, 0, 67, 26
1, 535627, Control_c, 0, 64, 105
1, 535627, Control_c, 0, 67, 25
1, 535642, Control_c, 0, 67, 23
1, 535672, Control_c, 0, 67, 23
1, 535672, Note_off_c, 0, 49, 60
1, 535727, Note_off_c, 0, 37, 38
1, 535732, Control_c, 0, 64, 98
1, 535732, Control_c, 0, 67, 22
1, 535736, Note_on_c, 0, 69, 50
1, 535746, Control_c, 0, 64, 78
1, 535746, Control_c, 0, 67, 22
1, 535750, Note_on_c, 0, 66, 48
1, 535761, Control_c, 0, 64, 64
1, 535761, Control_c, 0, 67, 20
1, 535762, Note_on_c, 0, 57, 40
1, 535776, Control_c, 0, 64, 36
1, 535776, Control_c, 0, 67, 17
1, 535788, Note_on_c, 0, 50, 39
1, 535790, Control_c, 0, 64, 0
1, 535790, Control_c, 0, 67, 14
1, 535791, Note_on_c, 0, 38, 35
1, 535805, Control_c, 0, 64, 19
1, 535805, Control_c, 0, 67, 12
1, 535820, Control_c, 0, 64, 51
1, 535820, Control_c, 0, 67, 10
1, 535835, Control_c, 0, 64, 63
1, 535835, Control_c, 0, 67, 0
1, 535850, Control_c, 0, 64, 71
1, 535857, Note_off_c, 0, 57, 59
1, 535864, Control_c, 0, 64, 82
1, 535879, Control_c, 0, 64, 93
1, 535894, Control_c, 0, 64, 99
1, 535902, Note_off_c, 0, 69, 57
1, 535907, Note_off_c, 0, 50, 58
1, 535909, Control_c, 0, 64, 105
1, 535924, Control_c, 0, 64, 109
1, 535928, Note_off_c, 0, 66, 49
1, 535938, Control_c, 0, 64, 110
1, 535953, Control_c, 0, 64, 110
1, 535958, Note_off_c, 0, 38, 39
1, 535968, Control_c, 0, 64, 111
1, 535982, Control_c, 0, 64, 112
1, 535997, Control_c, 0, 64, 114
1, 536042, Control_c, 0, 64, 93
1, 536057, Control_c, 0, 64, 73
1, 536059, Note_on_c, 0, 62, 60
1, 536071, Control_c, 0, 64, 59
1, 536094, Control_c, 0, 64, 23
1, 536109, Control_c, 0, 64, 36
1, 536124, Control_c, 0, 64, 57
1, 536138, Control_c, 0, 64, 66
1, 536153, Control_c, 0, 64, 74
1, 536168, Control_c, 0, 64, 87
1, 536183, Control_c, 0, 64, 100
1, 536197, Control_c, 0, 64, 112
1, 536206, Note_off_c, 0, 62, 51
1, 536212, Control_c, 0, 64, 127
1, 536301, Control_c, 0, 64, 110
1, 536310, Note_on_c, 0, 64, 71
1, 536317, Control_c, 0, 64, 76
1, 536332, Control_c, 0, 64, 56
1, 536347, Control_c, 0, 64, 40
1, 536361, Control_c, 0, 64, 56
1, 536376, Control_c, 0, 64, 65
1, 536391, Control_c, 0, 64, 74
1, 536406, Control_c, 0, 64, 91
1, 536420, Control_c, 0, 64, 127
1, 536466, Note_off_c, 0, 64, 57
1, 536510, Control_c, 0, 64, 77
1, 536514, Note_on_c, 0, 66, 81
1, 536525, Control_c, 0, 64, 53
1, 536539, Control_c, 0, 64, 23
1, 536554, Control_c, 0, 64, 53
1, 536569, Control_c, 0, 64, 64
1, 536584, Control_c, 0, 64, 74
1, 536599, Control_c, 0, 64, 96
1, 536613, Control_c, 0, 64, 127
1, 536677, Note_off_c, 0, 66, 62
1, 536687, Control_c, 0, 64, 91
1, 536702, Control_c, 0, 64, 62
1, 536717, Control_c, 0, 64, 28
1, 536722, Note_on_c, 0, 67, 82
1, 536732, Control_c, 0, 64, 48
1, 536747, Control_c, 0, 64, 63
1, 536761, Control_c, 0, 64, 72
1, 536776, Control_c, 0, 64, 98
1, 536791, Control_c, 0, 64, 127
1, 536912, Note_off_c, 0, 67, 57
1, 536946, Control_c, 0, 64, 71
1, 536957, Note_on_c, 0, 69, 85
1, 536961, Control_c, 0, 64, 0
1, 537020, Control_c, 0, 64, 64
1, 537035, Control_c, 0, 64, 83
1, 537050, Control_c, 0, 64, 127
1, 537111, Note_off_c, 0, 69, 60
1, 537356, Note_on_c, 0, 71, 81
1, 537376, Note_on_c, 0, 67, 66
1, 537389, Note_on_c, 0, 59, 53
1, 537402, Note_on_c, 0, 50, 39
1, 537405, Note_on_c, 0, 43, 45
1, 537436, Control_c, 0, 64, 111
1, 537451, Control_c, 0, 64, 97
1, 537466, Control_c, 0, 64, 85
1, 537481, Control_c, 0, 64, 75
1, 537496, Control_c, 0, 64, 67
1, 537510, Control_c, 0, 64, 59
1, 537525, Control_c, 0, 64, 34
1, 537540, Control_c, 0, 64, 0
1, 538170, Control_c, 0, 64, 21
1, 538185, Control_c, 0, 64, 60
1, 538200, Control_c, 0, 64, 71
1, 538215, Control_c, 0, 64, 89
1, 538230, Control_c, 0, 64, 127
1, 538552, Note_off_c, 0, 59, 33
1, 538554, Note_off_c, 0, 71, 47
1, 538605, Note_off_c, 0, 50, 33
1, 538613, Note_off_c, 0, 43, 37
1, 538782, Note_off_c, 0, 67, 32
1, 538859, Note_on_c, 0, 69, 69
1, 538859, Note_on_c, 0, 60, 66
1, 538863, Note_on_c, 0, 66, 67
1, 538877, Note_on_c, 0, 50, 48
1, 538879, Note_on_c, 0, 43, 45
1, 538909, Note_off_c, 0, 60, 60
1, 538920, Note_off_c, 0, 50, 61
1, 538923, Note_off_c, 0, 43, 45
1, 538943, Note_off_c, 0, 66, 48
1, 538951, Note_off_c, 0, 69, 59
1, 538984, Note_on_c, 0, 71, 79
1, 538998, Note_on_c, 0, 67, 67
1, 539000, Note_on_c, 0, 59, 64
1, 539010, Note_on_c, 0, 50, 45
1, 539018, Note_on_c, 0, 43, 47
1, 539037, Control_c, 0, 64, 98
1, 539052, Control_c, 0, 64, 78
1, 539067, Control_c, 0, 64, 65
1, 539089, Control_c, 0, 64, 18
1, 539104, Control_c, 0, 64, 0
1, 539786, Control_c, 0, 64, 44
1, 539801, Control_c, 0, 64, 63
1, 539816, Control_c, 0, 64, 74
1, 539838, Control_c, 0, 64, 97
1, 539853, Control_c, 0, 64, 127
1, 540084, Note_off_c, 0, 59, 34
1, 540167, Note_off_c, 0, 50, 35
1, 540173, Note_off_c, 0, 71, 37
1, 540191, Note_off_c, 0, 43, 36
1, 540336, Note_off_c, 0, 67, 35
1, 540462, Note_on_c, 0, 69, 65
1, 540470, Note_on_c, 0, 60, 58
1, 540474, Note_on_c, 0, 66, 58
1, 540488, Note_on_c, 0, 43, 40
1, 540489, Note_on_c, 0, 50, 38
1, 540513, Note_off_c, 0, 66, 59
1, 540517, Note_off_c, 0, 60, 59
1, 540529, Note_off_c, 0, 50, 48
1, 540544, Note_off_c, 0, 43, 42
1, 540546, Note_off_c, 0, 69, 61
1, 540614, Note_on_c, 0, 71, 72
1, 540617, Control_c, 0, 64, 79
1, 540626, Note_on_c, 0, 67, 64
1, 540629, Note_on_c, 0, 50, 37
1, 540632, Control_c, 0, 64, 49
1, 540632, Note_on_c, 0, 59, 53
1, 540643, Note_on_c, 0, 43, 36
1, 540647, Control_c, 0, 64, 0
1, 540661, Control_c, 0, 64, 18
1, 540676, Control_c, 0, 64, 47
1, 540691, Control_c, 0, 64, 58
1, 540706, Control_c, 0, 64, 65
1, 540721, Control_c, 0, 64, 72
1, 540735, Control_c, 0, 64, 79
1, 540750, Control_c, 0, 64, 83
1, 540765, Note_off_c, 0, 59, 49
1, 540765, Control_c, 0, 64, 85
1, 540766, Note_off_c, 0, 71, 56
1, 540778, Note_off_c, 0, 67, 58
1, 540779, Control_c, 0, 64, 86
1, 540809, Note_off_c, 0, 50, 40
1, 540809, Control_c, 0, 64, 86
1, 540824, Note_off_c, 0, 43, 38
1, 540853, Control_c, 0, 64, 87
1, 540893, Note_on_c, 0, 72, 79
1, 540904, Note_on_c, 0, 69, 69
1, 540904, Note_on_c, 0, 60, 67
1, 540906, Note_on_c, 0, 43, 45
1, 540909, Note_on_c, 0, 50, 44
1, 540927, Control_c, 0, 64, 87
1, 540942, Control_c, 0, 64, 88
1, 540957, Control_c, 0, 64, 90
1, 540972, Control_c, 0, 64, 94
1, 540974, Note_off_c, 0, 43, 58
1, 540981, Note_off_c, 0, 50, 58
1, 540987, Control_c, 0, 64, 99
1, 540987, Note_off_c, 0, 60, 55
1, 541001, Note_off_c, 0, 72, 61
1, 541002, Control_c, 0, 64, 106
1, 541017, Control_c, 0, 64, 109
1, 541020, Note_off_c, 0, 69, 64
1, 541032, Control_c, 0, 64, 110
1, 541076, Control_c, 0, 64, 111
1, 541097, Note_on_c, 0, 74, 78
1, 541102, Note_on_c, 0, 62, 77
1, 541102, Note_on_c, 0, 71, 77
1, 541115, Note_on_c, 0, 43, 57
1, 541119, Note_on_c, 0, 50, 54
1, 541163, Note_off_c, 0, 62, 57
1, 541165, Note_off_c, 0, 71, 60
1, 541166, Note_off_c, 0, 50, 60
1, 541172, Note_off_c, 0, 74, 63
1, 541193, Note_off_c, 0, 43, 59
1, 541336, Control_c, 0, 64, 110
1, 541351, Control_c, 0, 64, 107
1, 541366, Control_c, 0, 64, 92
1, 541369, Note_on_c, 0, 71, 79
1, 541380, Control_c, 0, 64, 73
1, 541385, Note_on_c, 0, 66, 66
1, 541391, Note_on_c, 0, 59, 53
1, 541395, Control_c, 0, 64, 43
1, 541399, Note_on_c, 0, 51, 42
1, 541401, Note_on_c, 0, 39, 40
1, 541410, Control_c, 0, 64, 0
1, 541484, Control_c, 0, 64, 61
1, 541499, Control_c, 0, 64, 69
1, 541514, Control_c, 0, 64, 74
1, 541528, Control_c, 0, 64, 78
1, 541543, Control_c, 0, 64, 82
1, 541558, Control_c, 0, 64, 88
1, 541559, Note_off_c, 0, 59, 37
1, 541559, Note_off_c, 0, 66, 57
1, 541573, Control_c, 0, 64, 97
1, 541577, Note_off_c, 0, 51, 36
1, 541588, Control_c, 0, 64, 127
1, 541592, Note_off_c, 0, 39, 37
1, 541655, Note_off_c, 0, 71, 56
1, 541662, Control_c, 0, 64, 83
1, 541666, Note_on_c, 0, 69, 66
1, 541676, Control_c, 0, 64, 64
1, 541680, Note_on_c, 0, 66, 62
1, 541687, Note_on_c, 0, 60, 54
1, 541691, Control_c, 0, 64, 54
1, 541693, Note_on_c, 0, 39, 47
1, 541694, Note_on_c, 0, 51, 48
1, 541706, Control_c, 0, 64, 60
1, 541721, Control_c, 0, 64, 66
1, 541735, Control_c, 0, 64, 74
1, 541750, Control_c, 0, 64, 91
1, 541765, Control_c, 0, 64, 127
1, 541772, Note_off_c, 0, 60, 54
1, 541778, Note_off_c, 0, 66, 62
1, 541783, Note_off_c, 0, 39, 51
1, 541786, Note_off_c, 0, 69, 64
1, 541804, Note_off_c, 0, 51, 37
1, 541854, Control_c, 0, 64, 81
1, 541869, Control_c, 0, 64, 62
1, 541881, Note_on_c, 0, 69, 69
1, 541884, Control_c, 0, 64, 56
1, 541892, Note_on_c, 0, 60, 55
1, 541895, Note_on_c, 0, 66, 59
1, 541899, Control_c, 0, 64, 63
1, 541905, Note_on_c, 0, 39, 39
1, 541911, Note_on_c, 0, 51, 48
1, 541914, Control_c, 0, 64, 68
1, 541929, Control_c, 0, 64, 78
1, 541944, Control_c, 0, 64, 95
1, 541959, Control_c, 0, 64, 125
1, 541972, Note_off_c, 0, 60, 55
1, 541974, Control_c, 0, 64, 127
1, 542018, Note_off_c, 0, 39, 46
1, 542092, Note_off_c, 0, 51, 36
1, 542159, Control_c, 0, 64, 119
1, 542174, Control_c, 0, 64, 101
1, 542187, Note_off_c, 0, 69, 62
1, 542189, Control_c, 0, 64, 85
1, 542194, Note_off_c, 0, 66, 38
1, 542204, Control_c, 0, 64, 69
1, 542208, Note_on_c, 0, 67, 60
1, 542219, Control_c, 0, 64, 48
1, 542224, Note_on_c, 0, 64, 48
1, 542227, Note_on_c, 0, 59, 45
1, 542233, Control_c, 0, 64, 0
1, 542248, Note_on_c, 0, 52, 41
1, 542251, Note_on_c, 0, 40, 38
1, 542308, Control_c, 0, 64, 42
1, 542322, Control_c, 0, 64, 64
1, 542337, Control_c, 0, 64, 72
1, 542343, Note_off_c, 0, 59, 60
1, 542352, Control_c, 0, 64, 80
1, 542367, Control_c, 0, 64, 84
1, 542371, Note_off_c, 0, 64, 63
1, 542382, Control_c, 0, 64, 88
1, 542397, Control_c, 0, 64, 94
1, 542406, Note_off_c, 0, 67, 58
1, 542412, Control_c, 0, 64, 100
1, 542426, Control_c, 0, 64, 106
1, 542441, Control_c, 0, 64, 112
1, 542456, Control_c, 0, 64, 116
1, 542471, Control_c, 0, 64, 119
1, 542486, Control_c, 0, 64, 125
1, 542494, Note_off_c, 0, 40, 42
1, 542519, Note_off_c, 0, 52, 60
1, 542601, Note_on_c, 0, 67, 63
1, 542604, Control_c, 0, 64, 112
1, 542619, Control_c, 0, 64, 83
1, 542633, Control_c, 0, 64, 62
1, 542648, Control_c, 0, 64, 0
1, 542677, Control_c, 0, 64, 10
1, 542692, Control_c, 0, 64, 53
1, 542709, Control_c, 0, 64, 64
1, 542723, Control_c, 0, 64, 74
1, 542738, Control_c, 0, 64, 88
1, 542753, Control_c, 0, 64, 106
1, 542766, Note_off_c, 0, 67, 55
1, 542768, Control_c, 0, 64, 127
1, 542863, Control_c, 0, 64, 88
1, 542876, Note_on_c, 0, 69, 84
1, 542878, Control_c, 0, 64, 61
1, 542893, Control_c, 0, 64, 0
1, 542923, Control_c, 0, 64, 54
1, 542937, Control_c, 0, 64, 65
1, 542952, Control_c, 0, 64, 76
1, 542967, Control_c, 0, 64, 109
1, 542981, Control_c, 0, 64, 127
1, 543032, Note_off_c, 0, 69, 65
1, 543056, Control_c, 0, 64, 93
1, 543071, Control_c, 0, 64, 64
1, 543086, Note_on_c, 0, 71, 90
1, 543086, Control_c, 0, 64, 34
1, 543100, Control_c, 0, 64, 49
1, 543115, Control_c, 0, 64, 65
1, 543130, Control_c, 0, 64, 83
1, 543145, Control_c, 0, 64, 127
1, 543238, Note_off_c, 0, 71, 61
1, 543278, Control_c, 0, 64, 77
1, 543284, Note_on_c, 0, 72, 91
1, 543293, Control_c, 0, 64, 47
1, 543307, Control_c, 0, 64, 0
1, 543322, Control_c, 0, 64, 43
1, 543337, Control_c, 0, 64, 65
1, 543352, Control_c, 0, 64, 95
1, 543367, Control_c, 0, 64, 127
1, 543436, Note_off_c, 0, 72, 64
1, 543441, Control_c, 0, 64, 103
1, 543455, Control_c, 0, 64, 65
1, 543470, Control_c, 0, 64, 35
1, 543485, Note_on_c, 0, 74, 92
1, 543485, Control_c, 0, 64, 59
1, 543501, Control_c, 0, 64, 69
1, 543516, Control_c, 0, 64, 90
1, 543531, Control_c, 0, 64, 127
1, 543625, Note_off_c, 0, 74, 60
1, 543873, Note_on_c, 0, 76, 92
1, 543875, Note_on_c, 0, 72, 80
1, 543878, Note_on_c, 0, 64, 89
1, 543893, Note_on_c, 0, 36, 56
1, 543893, Note_on_c, 0, 48, 69
1, 543938, Control_c, 0, 64, 70
1, 543953, Control_c, 0, 64, 0
1, 544086, Control_c, 0, 64, 18
1, 544101, Control_c, 0, 64, 26
1, 544116, Control_c, 0, 64, 28
1, 544145, Control_c, 0, 64, 29
1, 544160, Control_c, 0, 64, 33
1, 544175, Control_c, 0, 64, 34
1, 544190, Control_c, 0, 64, 36
1, 544204, Control_c, 0, 64, 37
1, 544219, Control_c, 0, 64, 38
1, 544234, Control_c, 0, 64, 39
1, 544249, Control_c, 0, 64, 40
1, 544264, Control_c, 0, 64, 41
1, 544294, Control_c, 0, 64, 41
1, 544332, Control_c, 0, 64, 42
1, 544391, Control_c, 0, 64, 42
1, 544465, Control_c, 0, 64, 43
1, 544495, Control_c, 0, 64, 43
1, 544553, Control_c, 0, 64, 42
1, 544598, Control_c, 0, 64, 43
1, 544613, Control_c, 0, 64, 46
1, 544627, Control_c, 0, 64, 53
1, 544642, Control_c, 0, 64, 63
1, 544657, Control_c, 0, 64, 71
1, 544672, Control_c, 0, 64, 83
1, 544687, Control_c, 0, 64, 111
1, 544701, Control_c, 0, 64, 127
1, 544961, Note_off_c, 0, 64, 35
1, 545079, Note_off_c, 0, 76, 50
1, 545111, Note_off_c, 0, 36, 36
1, 545117, Note_off_c, 0, 48, 25
1, 545251, Note_off_c, 0, 72, 51
1, 545315, Note_on_c, 0, 65, 82
1, 545315, Note_on_c, 0, 71, 81
1, 545316, Note_on_c, 0, 74, 78
1, 545325, Note_on_c, 0, 48, 65
1, 545328, Note_on_c, 0, 36, 60
1, 545367, Note_off_c, 0, 36, 62
1, 545374, Note_off_c, 0, 65, 62
1, 545375, Note_off_c, 0, 48, 57
1, 545396, Note_off_c, 0, 71, 58
1, 545419, Note_off_c, 0, 74, 61
1, 545449, Note_on_c, 0, 72, 80
1, 545449, Note_on_c, 0, 76, 91
1, 545452, Note_on_c, 0, 64, 89
1, 545468, Note_on_c, 0, 36, 61
1, 545473, Note_on_c, 0, 48, 64
1, 545493, Control_c, 0, 64, 74
1, 545508, Control_c, 0, 64, 0
1, 545627, Control_c, 0, 64, 28
1, 545641, Control_c, 0, 64, 40
1, 545656, Control_c, 0, 64, 48
1, 545671, Control_c, 0, 64, 51
1, 545686, Control_c, 0, 64, 53
1, 545700, Control_c, 0, 64, 55
1, 545715, Control_c, 0, 64, 56
1, 545730, Control_c, 0, 64, 56
1, 545745, Control_c, 0, 64, 55
1, 545760, Control_c, 0, 64, 55
1, 545857, Control_c, 0, 64, 54
1, 546066, Control_c, 0, 64, 54
1, 546080, Control_c, 0, 64, 50
1, 546095, Control_c, 0, 64, 39
1, 546110, Control_c, 0, 64, 0
1, 546184, Control_c, 0, 64, 64
1, 546198, Control_c, 0, 64, 88
1, 546213, Control_c, 0, 64, 127
1, 546478, Note_off_c, 0, 64, 38
1, 546546, Note_off_c, 0, 76, 50
1, 546606, Note_off_c, 0, 36, 41
1, 546611, Note_off_c, 0, 48, 35
1, 546653, Note_off_c, 0, 72, 63
1, 546704, Note_on_c, 0, 65, 71
1, 546704, Note_on_c, 0, 71, 72
1, 546707, Note_on_c, 0, 74, 71
1, 546716, Note_on_c, 0, 36, 61
1, 546716, Note_on_c, 0, 48, 65
1, 546758, Note_off_c, 0, 65, 62
1, 546759, Note_off_c, 0, 71, 62
1, 546760, Note_off_c, 0, 48, 58
1, 546762, Note_off_c, 0, 36, 60
1, 546782, Note_off_c, 0, 74, 62
1, 546829, Control_c, 0, 64, 109
1, 546837, Note_on_c, 0, 76, 84
1, 546839, Note_on_c, 0, 64, 78
1, 546843, Note_on_c, 0, 72, 73
1, 546844, Control_c, 0, 64, 62
1, 546852, Note_on_c, 0, 48, 67
1, 546859, Control_c, 0, 64, 0
1, 546861, Note_on_c, 0, 36, 60
1, 546889, Control_c, 0, 64, 37
1, 546903, Control_c, 0, 64, 60
1, 546918, Control_c, 0, 64, 70
1, 546933, Control_c, 0, 64, 88
1, 546947, Control_c, 0, 64, 127
1, 546977, Note_off_c, 0, 76, 57
1, 546986, Note_off_c, 0, 64, 58
1, 546991, Note_off_c, 0, 72, 64
1, 546996, Note_off_c, 0, 36, 59
1, 546999, Note_off_c, 0, 48, 57
1, 547096, Note_on_c, 0, 65, 88
1, 547097, Note_on_c, 0, 77, 90
1, 547098, Note_on_c, 0, 74, 84
1, 547107, Note_on_c, 0, 36, 72
1, 547111, Note_on_c, 0, 48, 71
1, 547203, Note_off_c, 0, 65, 58
1, 547205, Note_off_c, 0, 48, 55
1, 547207, Note_off_c, 0, 77, 60
1, 547208, Note_off_c, 0, 36, 60
1, 547230, Note_off_c, 0, 74, 64
1, 547301, Note_on_c, 0, 79, 85
1, 547305, Note_on_c, 0, 67, 89
1, 547309, Note_on_c, 0, 76, 87
1, 547324, Note_on_c, 0, 36, 80
1, 547324, Note_on_c, 0, 48, 81
1, 547360, Note_off_c, 0, 48, 61
1, 547372, Note_off_c, 0, 36, 64
1, 547375, Note_off_c, 0, 76, 64
1, 547384, Note_off_c, 0, 79, 59
1, 547433, Note_off_c, 0, 67, 54
1, 547628, Note_on_c, 0, 76, 87
1, 547637, Note_on_c, 0, 64, 84
1, 547646, Note_on_c, 0, 71, 71
1, 547652, Control_c, 0, 64, 67
1, 547653, Note_on_c, 0, 32, 74
1, 547660, Note_on_c, 0, 44, 66
1, 547667, Control_c, 0, 64, 0
1, 547741, Control_c, 0, 64, 61
1, 547756, Control_c, 0, 64, 79
1, 547770, Control_c, 0, 64, 127
1, 547813, Note_off_c, 0, 64, 58
1, 547842, Note_off_c, 0, 44, 61
1, 547843, Note_off_c, 0, 71, 58
1, 547853, Note_off_c, 0, 32, 58
1, 547928, Note_off_c, 0, 76, 63
1, 547941, Note_on_c, 0, 74, 68
1, 547949, Note_on_c, 0, 44, 68
1, 547951, Note_on_c, 0, 32, 68
1, 547953, Note_on_c, 0, 65, 67
1, 547959, Note_on_c, 0, 71, 69
1, 548031, Note_off_c, 0, 71, 58
1, 548036, Note_off_c, 0, 44, 56
1, 548036, Note_off_c, 0, 65, 54
1, 548043, Note_off_c, 0, 74, 64
1, 548051, Note_off_c, 0, 32, 57
1, 548148, Note_on_c, 0, 74, 83
1, 548152, Note_on_c, 0, 32, 68
1, 548155, Note_on_c, 0, 44, 65
1, 548156, Note_on_c, 0, 65, 67
1, 548156, Note_on_c, 0, 71, 68
1, 548225, Note_off_c, 0, 32, 61
1, 548251, Note_off_c, 0, 65, 49
1, 548311, Note_off_c, 0, 44, 54
1, 548321, Note_off_c, 0, 71, 37
1, 548410, Note_on_c, 0, 72, 72
1, 548415, Control_c, 0, 64, 88
1, 548417, Note_off_c, 0, 74, 62
1, 548424, Note_on_c, 0, 69, 69
1, 548427, Note_on_c, 0, 64, 62
1, 548430, Control_c, 0, 64, 61
1, 548445, Control_c, 0, 64, 0
1, 548454, Note_on_c, 0, 33, 49
1, 548457, Note_on_c, 0, 45, 45
1, 548534, Control_c, 0, 64, 61
1, 548549, Control_c, 0, 64, 71
1, 548564, Control_c, 0, 64, 84
1, 548579, Control_c, 0, 64, 93
1, 548582, Note_off_c, 0, 64, 61
1, 548593, Control_c, 0, 64, 100
1, 548600, Note_off_c, 0, 69, 63
1, 548608, Control_c, 0, 64, 118
1, 548623, Control_c, 0, 64, 127
1, 548642, Note_off_c, 0, 33, 57
1, 548645, Note_off_c, 0, 72, 56
1, 548693, Note_off_c, 0, 45, 64
1, 548713, Note_on_c, 0, 69, 72
1, 548858, Note_off_c, 0, 69, 63
1, 548940, Note_on_c, 0, 71, 81
1, 548957, Control_c, 0, 64, 68
1, 548972, Control_c, 0, 64, 0
1, 549016, Control_c, 0, 64, 21
1, 549031, Control_c, 0, 64, 64
1, 549045, Control_c, 0, 64, 127
1, 549095, Note_off_c, 0, 71, 57
1, 549121, Control_c, 0, 64, 105
1, 549136, Control_c, 0, 64, 67
1, 549140, Note_on_c, 0, 72, 87
1, 549150, Control_c, 0, 64, 61
1, 549165, Control_c, 0, 64, 67
1, 549180, Control_c, 0, 64, 84
1, 549195, Control_c, 0, 64, 127
1, 549269, Control_c, 0, 64, 81
1, 549284, Control_c, 0, 64, 64
1, 549298, Control_c, 0, 64, 65
1, 549309, Note_off_c, 0, 72, 63
1, 549313, Control_c, 0, 64, 80
1, 549328, Control_c, 0, 64, 127
1, 549336, Note_on_c, 0, 74, 89
1, 549432, Control_c, 0, 64, 109
1, 549447, Control_c, 0, 64, 52
1, 549461, Control_c, 0, 64, 0
1, 549494, Note_off_c, 0, 74, 55
1, 549506, Control_c, 0, 64, 24
1, 549520, Note_on_c, 0, 76, 94
1, 549521, Control_c, 0, 64, 74
1, 549536, Control_c, 0, 64, 127
1, 549694, Note_off_c, 0, 76, 61
1, 549834, Note_on_c, 0, 76, 86
1, 549853, Note_on_c, 0, 69, 65
1, 549855, Note_on_c, 0, 72, 67
1, 549879, Note_on_c, 0, 38, 48
1, 549882, Note_on_c, 0, 50, 46
1, 549943, Control_c, 0, 64, 119
1, 549958, Control_c, 0, 64, 81
1, 549972, Control_c, 0, 64, 64
1, 549987, Control_c, 0, 64, 0
1, 550548, Note_on_c, 0, 78, 74
1, 550558, Control_c, 0, 64, 34
1, 550572, Control_c, 0, 64, 63
1, 550584, Note_off_c, 0, 76, 59
1, 550587, Control_c, 0, 64, 69
1, 550602, Control_c, 0, 64, 73
1, 550616, Control_c, 0, 64, 78
1, 550627, Note_off_c, 0, 72, 63
1, 550631, Control_c, 0, 64, 86
1, 550646, Control_c, 0, 64, 95
1, 550651, Note_off_c, 0, 69, 60
1, 550661, Control_c, 0, 64, 107
1, 550676, Control_c, 0, 64, 127
1, 550717, Note_off_c, 0, 50, 52
1, 550720, Note_off_c, 0, 78, 60
1, 550739, Note_off_c, 0, 38, 40
1, 550928, Control_c, 0, 64, 95
1, 550943, Control_c, 0, 64, 64
1, 550958, Control_c, 0, 64, 0
1, 551018, Control_c, 0, 64, 55
1, 551021, Note_on_c, 0, 78, 80
1, 551027, Note_on_c, 0, 73, 81
1, 551027, Note_on_c, 0, 70, 77
1, 551030, Note_on_c, 0, 50, 65
1, 551033, Note_on_c, 0, 38, 63
1, 551033, Control_c, 0, 64, 70
1, 551048, Control_c, 0, 64, 86
1, 551069, Control_c, 0, 64, 97
1, 551073, Note_off_c, 0, 50, 63
1, 551076, Note_off_c, 0, 38, 63
1, 551084, Control_c, 0, 64, 98
1, 551092, Note_off_c, 0, 78, 64
1, 551094, Note_off_c, 0, 70, 61
1, 551094, Note_off_c, 0, 73, 59
1, 551128, Control_c, 0, 64, 91
1, 551143, Note_on_c, 0, 78, 83
1, 551143, Control_c, 0, 64, 70
1, 551149, Note_on_c, 0, 74, 80
1, 551155, Note_on_c, 0, 71, 78
1, 551158, Control_c, 0, 64, 14
1, 551161, Note_on_c, 0, 50, 66
1, 551169, Note_on_c, 0, 38, 64
1, 551173, Control_c, 0, 64, 0
1, 551727, Note_off_c, 0, 78, 61
1, 551731, Note_on_c, 0, 79, 89
1, 551781, Control_c, 0, 64, 45
1, 551796, Control_c, 0, 64, 68
1, 551811, Control_c, 0, 64, 97
1, 551833, Control_c, 0, 64, 127
1, 551846, Note_off_c, 0, 71, 57
1, 551864, Note_off_c, 0, 74, 62
1, 551871, Note_off_c, 0, 79, 61
1, 551901, Note_off_c, 0, 50, 58
1, 551915, Note_off_c, 0, 38, 62
1, 552100, Control_c, 0, 64, 107
1, 552115, Control_c, 0, 64, 71
1, 552130, Control_c, 0, 64, 0
1, 552204, Note_on_c, 0, 79, 79
1, 552212, Note_on_c, 0, 74, 65
1, 552213, Note_on_c, 0, 71, 67
1, 552214, Note_on_c, 0, 50, 57
1, 552217, Note_on_c, 0, 38, 56
1, 552218, Control_c, 0, 64, 37
1, 552233, Control_c, 0, 64, 63
1, 552248, Control_c, 0, 64, 70
1, 552252, Note_off_c, 0, 71, 58
1, 552254, Note_off_c, 0, 50, 63
1, 552261, Note_off_c, 0, 38, 61
1, 552261, Note_off_c, 0, 74, 61
1, 552262, Control_c, 0, 64, 76
1, 552263, Note_off_c, 0, 79, 61
1, 552277, Control_c, 0, 64, 81
1, 552293, Control_c, 0, 64, 87
1, 552308, Control_c, 0, 64, 93
1, 552320, Note_on_c, 0, 79, 77
1, 552323, Note_on_c, 0, 74, 66
1, 552323, Control_c, 0, 64, 99
1, 552333, Note_on_c, 0, 71, 76
1, 552337, Note_on_c, 0, 38, 44
1, 552338, Control_c, 0, 64, 106
1, 552344, Note_on_c, 0, 50, 49
1, 552353, Control_c, 0, 64, 115
1, 552367, Control_c, 0, 64, 127
1, 552437, Note_off_c, 0, 71, 56
1, 552454, Note_off_c, 0, 74, 60
1, 552457, Note_off_c, 0, 50, 37
1, 552457, Note_off_c, 0, 79, 59
1, 552489, Note_off_c, 0, 38, 31
1, 552515, Control_c, 0, 64, 107
1, 552530, Control_c, 0, 64, 65
1, 552535, Note_on_c, 0, 79, 87
1, 552542, Note_on_c, 0, 72, 75
1, 552544, Note_on_c, 0, 76, 75
1, 552545, Control_c, 0, 64, 0
1, 552555, Note_on_c, 0, 38, 38
1, 552562, Note_on_c, 0, 50, 48
1, 552583, Control_c, 0, 64, 49
1, 552598, Control_c, 0, 64, 64
1, 552613, Control_c, 0, 64, 81
1, 552627, Control_c, 0, 64, 127
1, 552645, Note_off_c, 0, 50, 56
1, 552658, Note_off_c, 0, 72, 62
1, 552662, Note_off_c, 0, 79, 60
1, 552664, Note_off_c, 0, 76, 63
1, 552720, Note_off_c, 0, 38, 0
1, 552732, Note_on_c, 0, 79, 94
1, 552736, Note_on_c, 0, 38, 41
1, 552740, Note_on_c, 0, 72, 79
1, 552743, Note_on_c, 0, 76, 76
1, 552744, Note_on_c, 0, 50, 50
1, 552827, Note_off_c, 0, 50, 54
1, 552844, Note_off_c, 0, 76, 62
1, 552846, Note_off_c, 0, 72, 59
1, 552846, Note_off_c, 0, 79, 57
1, 552911, Note_off_c, 0, 38, 0
1, 552923, Note_on_c, 0, 38, 48
1, 552926, Note_on_c, 0, 79, 94
1, 552930, Note_on_c, 0, 72, 87
1, 552931, Note_on_c, 0, 50, 56
1, 552932, Note_on_c, 0, 76, 79
1, 552979, Note_off_c, 0, 76, 63
1, 553010, Note_off_c, 0, 72, 60
1, 553021, Note_off_c, 0, 79, 61
1, 553028, Note_off_c, 0, 50, 51
1, 553082, Note_off_c, 0, 38, 33
1, 553126, Note_on_c, 0, 81, 95
1, 553129, Note_on_c, 0, 38, 50
1, 553136, Note_on_c, 0, 72, 85
1, 553143, Note_on_c, 0, 50, 58
1, 553147, Note_on_c, 0, 78, 75
1, 553210, Note_off_c, 0, 50, 55
1, 553230, Note_off_c, 0, 72, 60
1, 553236, Note_off_c, 0, 78, 62
1, 553243, Note_off_c, 0, 81, 59
1, 553264, Note_off_c, 0, 38, 39
1, 553352, Note_on_c, 0, 81, 97
1, 553361, Note_on_c, 0, 38, 60
1, 553364, Note_on_c, 0, 72, 84
1, 553367, Note_on_c, 0, 50, 52
1, 553368, Note_on_c, 0, 78, 81
1, 553440, Note_off_c, 0, 38, 60
1, 553462, Note_off_c, 0, 72, 60
1, 553464, Note_off_c, 0, 78, 58
1, 553467, Note_off_c, 0, 50, 40
1, 553497, Note_off_c, 0, 81, 51
1, 553656, Control_c, 0, 64, 104
1, 553659, Note_on_c, 0, 83, 89
1, 553665, Note_on_c, 0, 50, 64
1, 553666, Note_on_c, 0, 71, 86
1, 553668, Note_on_c, 0, 79, 81
1, 553671, Note_on_c, 0, 43, 63
1, 553671, Control_c, 0, 64, 60
1, 553686, Control_c, 0, 64, 0
1, 553745, Control_c, 0, 64, 46
1, 553760, Control_c, 0, 64, 79
1, 553774, Note_off_c, 0, 71, 59
1, 553775, Control_c, 0, 64, 127
1, 553788, Note_off_c, 0, 79, 60
1, 553830, Note_off_c, 0, 83, 59
1, 553934, Note_off_c, 0, 43, 32
1, 553948, Note_on_c, 0, 86, 93
1, 553954, Note_off_c, 0, 50, 60
1, 554048, Note_off_c, 0, 86, 62
1, 554152, Note_on_c, 0, 86, 88
1, 554261, Note_off_c, 0, 86, 60
1, 554317, Control_c, 0, 64, 104
1, 554332, Control_c, 0, 64, 59
1, 554346, Control_c, 0, 64, 0
1, 554367, Note_on_c, 0, 86, 80
1, 554391, Control_c, 0, 64, 62
1, 554405, Control_c, 0, 64, 98
1, 554420, Control_c, 0, 64, 127
1, 554487, Note_off_c, 0, 86, 61
1, 554585, Note_on_c, 0, 86, 77
1, 554664, Note_off_c, 0, 86, 60
1, 554782, Note_on_c, 0, 86, 74
1, 554834, Note_off_c, 0, 86, 62
1, 554991, Control_c, 0, 64, 100
1, 554993, Note_on_c, 0, 79, 65
1, 555006, Control_c, 0, 64, 65
1, 555010, Note_on_c, 0, 74, 47
1, 555021, Control_c, 0, 64, 0
1, 555024, Note_on_c, 0, 71, 39
1, 555028, Note_on_c, 0, 38, 40
1, 555033, Note_on_c, 0, 50, 38
1, 555051, Control_c, 0, 64, 34
1, 555066, Control_c, 0, 64, 57
1, 555081, Control_c, 0, 64, 65
1, 555095, Control_c, 0, 64, 76
1, 555110, Control_c, 0, 64, 93
1, 555113, Note_off_c, 0, 71, 56
1, 555125, Control_c, 0, 64, 108
1, 555138, Note_off_c, 0, 79, 56
1, 555140, Control_c, 0, 64, 115
1, 555152, Note_off_c, 0, 74, 59
1, 555154, Note_off_c, 0, 50, 31
1, 555155, Control_c, 0, 64, 127
1, 555202, Note_off_c, 0, 38, 0
1, 555212, Note_on_c, 0, 50, 33
1, 555218, Note_on_c, 0, 79, 66
1, 555221, Note_on_c, 0, 38, 27
1, 555233, Note_on_c, 0, 76, 59
1, 555236, Note_on_c, 0, 72, 55
1, 555313, Note_off_c, 0, 76, 54
1, 555319, Note_off_c, 0, 79, 54
1, 555323, Note_off_c, 0, 72, 45
1, 555347, Note_off_c, 0, 38, 34
1, 555354, Note_off_c, 0, 50, 31
1, 555403, Note_on_c, 0, 79, 68
1, 555405, Note_on_c, 0, 50, 36
1, 555418, Note_on_c, 0, 38, 40
1, 555418, Note_on_c, 0, 76, 64
1, 555422, Note_on_c, 0, 72, 59
1, 555501, Note_off_c, 0, 76, 55
1, 555510, Note_off_c, 0, 79, 58
1, 555513, Note_off_c, 0, 38, 34
1, 555515, Note_off_c, 0, 50, 36
1, 555516, Note_off_c, 0, 72, 50
1, 555593, Control_c, 0, 64, 81
1, 555608, Control_c, 0, 64, 64
1, 555616, Note_on_c, 0, 79, 79
1, 555618, Note_on_c, 0, 50, 44
1, 555623, Control_c, 0, 64, 58
1, 555626, Note_on_c, 0, 76, 66
1, 555629, Note_on_c, 0, 72, 65
1, 555636, Note_on_c, 0, 38, 42
1, 555638, Control_c, 0, 64, 63
1, 555653, Control_c, 0, 64, 69
1, 555667, Note_off_c, 0, 76, 62
1, 555667, Control_c, 0, 64, 85
1, 555682, Control_c, 0, 64, 127
1, 555692, Note_off_c, 0, 72, 58
1, 555717, Note_off_c, 0, 79, 59
1, 555731, Note_off_c, 0, 50, 37
1, 555748, Note_off_c, 0, 38, 34
1, 555809, Note_on_c, 0, 81, 86
1, 555824, Note_on_c, 0, 50, 40
1, 555826, Note_on_c, 0, 72, 63
1, 555827, Note_on_c, 0, 78, 70
1, 555831, Note_on_c, 0, 38, 42
1, 555892, Note_off_c, 0, 72, 62
1, 555899, Note_off_c, 0, 78, 62
1, 555915, Note_off_c, 0, 81, 60
1, 555925, Note_off_c, 0, 50, 36
1, 555996, Note_off_c, 0, 38, 0
1, 556011, Note_on_c, 0, 81, 90
1, 556015, Note_on_c, 0, 38, 28
1, 556022, Note_on_c, 0, 78, 77
1, 556026, Note_on_c, 0, 72, 71
1, 556034, Note_on_c, 0, 50, 35
1, 556117, Note_off_c, 0, 72, 60
1, 556121, Note_off_c, 0, 50, 36
1, 556146, Note_off_c, 0, 78, 38
1, 556154, Note_off_c, 0, 38, 38
1, 556171, Note_off_c, 0, 81, 55
1, 556274, Note_on_c, 0, 83, 84
1, 556275, Control_c, 0, 64, 106
1, 556290, Note_on_c, 0, 79, 69
1, 556290, Control_c, 0, 64, 64
1, 556300, Note_on_c, 0, 71, 63
1, 556312, Control_c, 0, 64, 0
1, 556315, Note_on_c, 0, 50, 46
1, 556321, Note_on_c, 0, 43, 45
1, 556371, Control_c, 0, 64, 61
1, 556377, Note_off_c, 0, 71, 59
1, 556386, Control_c, 0, 64, 80
1, 556392, Note_off_c, 0, 79, 61
1, 556401, Control_c, 0, 64, 127
1, 556430, Note_off_c, 0, 83, 59
1, 556535, Note_on_c, 0, 86, 82
1, 556580, Note_off_c, 0, 50, 52
1, 556594, Note_off_c, 0, 43, 40
1, 556630, Note_off_c, 0, 86, 60
1, 556737, Note_on_c, 0, 86, 73
1, 556841, Note_off_c, 0, 86, 59
1, 556875, Control_c, 0, 64, 85
1, 556890, Control_c, 0, 64, 57
1, 556905, Control_c, 0, 64, 0
1, 556934, Control_c, 0, 64, 52
1, 556938, Note_on_c, 0, 86, 63
1, 556949, Control_c, 0, 64, 65
1, 556964, Control_c, 0, 64, 79
1, 556978, Control_c, 0, 64, 127
1, 557062, Note_off_c, 0, 86, 60
1, 557160, Note_on_c, 0, 86, 62
1, 557243, Note_off_c, 0, 86, 59
1, 557367, Note_on_c, 0, 86, 59
1, 557402, Note_off_c, 0, 86, 63
1, 557431, Control_c, 0, 67, 9
1, 557446, Control_c, 0, 67, 12
1, 557461, Control_c, 0, 67, 15
1, 557475, Control_c, 0, 67, 18
1, 557490, Control_c, 0, 67, 20
1, 557505, Control_c, 0, 67, 22
1, 557520, Control_c, 0, 67, 23
1, 557535, Control_c, 0, 67, 25
1, 557549, Control_c, 0, 67, 28
1, 557564, Control_c, 0, 67, 29
1, 557579, Control_c, 0, 67, 31
1, 557594, Control_c, 0, 67, 33
1, 557609, Control_c, 0, 67, 34
1, 557616, Note_on_c, 0, 79, 56
1, 557623, Control_c, 0, 64, 99
1, 557623, Control_c, 0, 67, 36
1, 557626, Note_on_c, 0, 74, 47
1, 557638, Control_c, 0, 64, 68
1, 557638, Control_c, 0, 67, 38
1, 557652, Note_on_c, 0, 71, 30
1, 557653, Note_on_c, 0, 38, 26
1, 557653, Control_c, 0, 64, 28
1, 557653, Control_c, 0, 67, 40
1, 557655, Note_on_c, 0, 50, 26
1, 557668, Control_c, 0, 64, 0
1, 557668, Control_c, 0, 67, 42
1, 557683, Control_c, 0, 64, 35
1, 557683, Control_c, 0, 67, 44
1, 557698, Control_c, 0, 64, 55
1, 557698, Control_c, 0, 67, 45
1, 557713, Control_c, 0, 64, 63
1, 557713, Control_c, 0, 67, 46
1, 557728, Control_c, 0, 64, 71
1, 557728, Control_c, 0, 67, 48
1, 557743, Control_c, 0, 64, 85
1, 557743, Control_c, 0, 67, 49
1, 557755, Note_off_c, 0, 71, 38
1, 557757, Control_c, 0, 64, 103
1, 557757, Control_c, 0, 67, 50
1, 557761, Note_off_c, 0, 79, 53
1, 557767, Note_off_c, 0, 38, 40
1, 557769, Note_off_c, 0, 50, 34
1, 557772, Control_c, 0, 64, 127
1, 557772, Control_c, 0, 67, 51
1, 557785, Note_off_c, 0, 74, 55
1, 557787, Control_c, 0, 67, 55
1, 557808, Control_c, 0, 67, 59
1, 557822, Control_c, 0, 64, 91
1, 557822, Control_c, 0, 67, 63
1, 557837, Control_c, 0, 64, 71
1, 557837, Control_c, 0, 67, 66
1, 557852, Control_c, 0, 64, 64
1, 557852, Control_c, 0, 67, 68
1, 557867, Control_c, 0, 67, 71
1, 557869, Note_on_c, 0, 79, 55
1, 557881, Note_on_c, 0, 50, 25
1, 557881, Note_on_c, 0, 76, 51
1, 557883, Control_c, 0, 64, 68
1, 557883, Control_c, 0, 67, 73
1, 557887, Note_on_c, 0, 72, 46
1, 557896, Note_on_c, 0, 38, 34
1, 557898, Control_c, 0, 64, 74
1, 557898, Control_c, 0, 67, 75
1, 557912, Control_c, 0, 64, 84
1, 557912, Control_c, 0, 67, 77
1, 557927, Control_c, 0, 64, 95
1, 557927, Control_c, 0, 67, 80
1, 557942, Control_c, 0, 64, 115
1, 557942, Control_c, 0, 67, 82
1, 557957, Control_c, 0, 64, 127
1, 557957, Control_c, 0, 67, 83
1, 557960, Note_off_c, 0, 38, 41
1, 557962, Note_off_c, 0, 76, 54
1, 557967, Note_off_c, 0, 79, 51
1, 557972, Control_c, 0, 67, 84
1, 557975, Note_off_c, 0, 72, 38
1, 557986, Control_c, 0, 67, 86
1, 557999, Note_off_c, 0, 50, 32
1, 558001, Control_c, 0, 67, 87
1, 558016, Control_c, 0, 67, 89
1, 558030, Control_c, 0, 64, 95
1, 558030, Control_c, 0, 67, 91
1, 558045, Control_c, 0, 64, 73
1, 558045, Control_c, 0, 67, 93
1, 558060, Control_c, 0, 64, 65
1, 558060, Control_c, 0, 67, 94
1, 558075, Control_c, 0, 67, 94
1, 558080, Note_on_c, 0, 50, 23
1, 558085, Note_on_c, 0, 79, 57
1, 558090, Control_c, 0, 64, 68
1, 558090, Control_c, 0, 67, 95
1, 558095, Note_on_c, 0, 76, 52
1, 558100, Note_on_c, 0, 72, 45
1, 558104, Control_c, 0, 64, 75
1, 558104, Control_c, 0, 67, 95
1, 558107, Note_on_c, 0, 38, 35
1, 558119, Control_c, 0, 64, 89
1, 558119, Control_c, 0, 67, 96
1, 558134, Control_c, 0, 64, 127
1, 558149, Control_c, 0, 67, 97
1, 558164, Control_c, 0, 67, 98
1, 558170, Note_off_c, 0, 38, 41
1, 558176, Note_off_c, 0, 76, 40
1, 558178, Note_off_c, 0, 79, 44
1, 558178, Control_c, 0, 67, 99
1, 558187, Note_off_c, 0, 72, 36
1, 558193, Control_c, 0, 67, 100
1, 558208, Control_c, 0, 67, 101
1, 558217, Note_off_c, 0, 50, 31
1, 558223, Control_c, 0, 67, 102
1, 558237, Control_c, 0, 67, 103
1, 558252, Control_c, 0, 67, 105
1, 558267, Control_c, 0, 67, 107
1, 558282, Control_c, 0, 64, 97
1, 558282, Control_c, 0, 67, 108
1, 558297, Control_c, 0, 64, 73
1, 558297, Control_c, 0, 67, 110
1, 558312, Control_c, 0, 64, 61
1, 558312, Control_c, 0, 67, 111
1, 558318, Note_on_c, 0, 79, 55
1, 558320, Note_on_c, 0, 50, 22
1, 558324, Note_on_c, 0, 72, 48
1, 558327, Note_on_c, 0, 76, 39
1, 558327, Control_c, 0, 64, 61
1, 558327, Control_c, 0, 67, 113
1, 558342, Control_c, 0, 64, 65
1, 558342, Control_c, 0, 67, 115
1, 558351, Note_on_c, 0, 38, 29
1, 558357, Control_c, 0, 64, 70
1, 558357, Control_c, 0, 67, 117
1, 558360, Note_off_c, 0, 76, 62
1, 558371, Control_c, 0, 64, 79
1, 558371, Control_c, 0, 67, 118
1, 558386, Control_c, 0, 64, 95
1, 558386, Control_c, 0, 67, 120
1, 558401, Control_c, 0, 64, 112
1, 558401, Control_c, 0, 67, 122
1, 558407, Note_off_c, 0, 72, 39
1, 558408, Note_off_c, 0, 79, 53
1, 558416, Control_c, 0, 64, 127
1, 558416, Control_c, 0, 67, 124
1, 558430, Control_c, 0, 67, 126
1, 558445, Control_c, 0, 67, 127
1, 558450, Note_off_c, 0, 50, 37
1, 558458, Note_off_c, 0, 38, 32
1, 558460, Control_c, 0, 67, 127
1, 558571, Control_c, 0, 64, 100
1, 558577, Note_on_c, 0, 81, 58
1, 558586, Control_c, 0, 64, 75
1, 558596, Note_on_c, 0, 50, 31
1, 558600, Note_on_c, 0, 78, 46
1, 558601, Control_c, 0, 64, 63
1, 558603, Note_on_c, 0, 38, 32
1, 558603, Note_on_c, 0, 72, 39
1, 558616, Control_c, 0, 64, 59
1, 558630, Control_c, 0, 64, 64
1, 558645, Control_c, 0, 64, 68
1, 558660, Control_c, 0, 64, 74
1, 558676, Control_c, 0, 64, 84
1, 558685, Note_off_c, 0, 78, 46
1, 558691, Control_c, 0, 64, 94
1, 558700, Note_off_c, 0, 72, 35
1, 558705, Control_c, 0, 64, 99
1, 558720, Note_off_c, 0, 81, 38
1, 558720, Note_off_c, 0, 50, 33
1, 558720, Control_c, 0, 64, 103
1, 558735, Control_c, 0, 64, 108
1, 558738, Note_off_c, 0, 38, 39
1, 558750, Control_c, 0, 64, 118
1, 558765, Control_c, 0, 64, 127
1, 558853, Control_c, 0, 64, 106
1, 558860, Note_on_c, 0, 81, 51
1, 558868, Control_c, 0, 64, 78
1, 558880, Note_on_c, 0, 78, 47
1, 558881, Note_on_c, 0, 38, 29
1, 558883, Control_c, 0, 64, 60
1, 558885, Note_on_c, 0, 72, 38
1, 558893, Note_on_c, 0, 50, 29
1, 558898, Control_c, 0, 64, 30
1, 558913, Control_c, 0, 64, 43
1, 558927, Control_c, 0, 64, 60
1, 558942, Control_c, 0, 64, 66
1, 558955, Note_off_c, 0, 72, 58
1, 558957, Control_c, 0, 64, 75
1, 558972, Control_c, 0, 64, 87
1, 558987, Control_c, 0, 64, 95
1, 559001, Control_c, 0, 64, 97
1, 559003, Note_off_c, 0, 50, 32
1, 559016, Note_off_c, 0, 81, 34
1, 559018, Note_off_c, 0, 38, 38
1, 559025, Note_off_c, 0, 78, 29
1, 559031, Control_c, 0, 64, 97
1, 559239, Control_c, 0, 64, 97
1, 559283, Control_c, 0, 64, 96
1, 559305, Control_c, 0, 64, 95
1, 559321, Control_c, 0, 64, 94
1, 559335, Control_c, 0, 64, 92
1, 559350, Control_c, 0, 64, 91
1, 559365, Control_c, 0, 64, 88
1, 559379, Control_c, 0, 64, 81
1, 559380, Note_on_c, 0, 83, 47
1, 559389, Note_on_c, 0, 79, 35
1, 559394, Note_on_c, 0, 71, 35
1, 559394, Control_c, 0, 64, 69
1, 559409, Control_c, 0, 64, 48
1, 559424, Control_c, 0, 64, 0
1, 559428, Note_on_c, 0, 50, 24
1, 559432, Note_on_c, 0, 43, 28
1, 559499, Control_c, 0, 64, 55
1, 559514, Control_c, 0, 64, 70
1, 559529, Control_c, 0, 64, 83
1, 559532, Note_off_c, 0, 83, 59
1, 559544, Control_c, 0, 64, 97
1, 559558, Control_c, 0, 64, 103
1, 559573, Note_off_c, 0, 79, 52
1, 559573, Control_c, 0, 64, 112
1, 559588, Control_c, 0, 64, 127
1, 559589, Note_off_c, 0, 71, 40
1, 559692, Note_off_c, 0, 50, 57
1, 559708, Note_off_c, 0, 43, 34
1, 560032, Control_c, 0, 64, 119
1, 560055, Control_c, 0, 64, 110
1, 560069, Control_c, 0, 64, 102
1, 560083, Control_c, 0, 64, 91
1, 560098, Control_c, 0, 64, 74
1, 560111, Note_on_c, 0, 79, 36
1, 560113, Control_c, 0, 64, 60
1, 560123, Note_on_c, 0, 67, 34
1, 560128, Control_c, 0, 64, 0
1, 560202, Control_c, 0, 64, 44
1, 560202, Control_c, 0, 67, 127
1, 560217, Control_c, 0, 64, 66
1, 560232, Control_c, 0, 64, 81
1, 560247, Control_c, 0, 64, 98
1, 560262, Control_c, 0, 64, 108
1, 560262, Control_c, 0, 67, 126
1, 560270, Note_off_c, 0, 67, 32
1, 560276, Note_off_c, 0, 79, 35
1, 560277, Control_c, 0, 64, 127
1, 560277, Control_c, 0, 67, 126
1, 560321, Control_c, 0, 67, 125
1, 560336, Control_c, 0, 67, 125
1, 560419, Note_on_c, 0, 79, 45
1, 560439, Note_on_c, 0, 67, 32
1, 560455, Control_c, 0, 67, 124
1, 560515, Note_off_c, 0, 67, 38
1, 560529, Control_c, 0, 67, 124
1, 560537, Note_off_c, 0, 79, 35
1, 560588, Control_c, 0, 67, 123
1, 560603, Control_c, 0, 67, 123
1, 560618, Control_c, 0, 67, 122
1, 560632, Control_c, 0, 67, 121
1, 560647, Control_c, 0, 67, 120
1, 560652, Note_on_c, 0, 79, 57
1, 560662, Control_c, 0, 67, 120
1, 560663, Note_on_c, 0, 67, 46
1, 560677, Control_c, 0, 67, 119
1, 560692, Control_c, 0, 67, 119
1, 560721, Control_c, 0, 67, 118
1, 560722, Note_off_c, 0, 67, 50
1, 560736, Control_c, 0, 67, 117
1, 560751, Control_c, 0, 67, 116
1, 560756, Note_off_c, 0, 79, 36
1, 560766, Control_c, 0, 67, 115
1, 560780, Control_c, 0, 67, 115
1, 560803, Control_c, 0, 67, 114
1, 560818, Control_c, 0, 67, 113
1, 560832, Control_c, 0, 67, 111
1, 560847, Control_c, 0, 67, 110
1, 560862, Control_c, 0, 67, 108
1, 560877, Control_c, 0, 67, 107
1, 560879, Note_on_c, 0, 79, 59
1, 560892, Control_c, 0, 67, 105
1, 560895, Note_on_c, 0, 67, 44
1, 560906, Control_c, 0, 67, 104
1, 560921, Control_c, 0, 67, 102
1, 560936, Control_c, 0, 67, 101
1, 560946, Note_off_c, 0, 67, 51
1, 560951, Control_c, 0, 67, 100
1, 560966, Control_c, 0, 67, 98
1, 560973, Note_off_c, 0, 79, 48
1, 560980, Control_c, 0, 67, 97
1, 560995, Control_c, 0, 67, 95
1, 561010, Control_c, 0, 67, 93
1, 561025, Control_c, 0, 67, 91
1, 561040, Control_c, 0, 67, 89
1, 561054, Control_c, 0, 67, 87
1, 561070, Control_c, 0, 67, 85
1, 561085, Control_c, 0, 67, 83
1, 561100, Control_c, 0, 67, 82
1, 561115, Control_c, 0, 67, 80
1, 561129, Control_c, 0, 67, 79
1, 561144, Control_c, 0, 67, 79
1, 561145, Note_on_c, 0, 79, 66
1, 561159, Control_c, 0, 64, 88
1, 561159, Control_c, 0, 67, 78
1, 561174, Control_c, 0, 64, 70
1, 561174, Control_c, 0, 67, 77
1, 561184, Note_on_c, 0, 67, 30
1, 561189, Note_on_c, 0, 62, 35
1, 561189, Control_c, 0, 64, 56
1, 561189, Control_c, 0, 67, 76
1, 561198, Note_on_c, 0, 59, 33
1, 561203, Control_c, 0, 64, 50
1, 561203, Control_c, 0, 67, 76
1, 561218, Control_c, 0, 64, 58
1, 561233, Control_c, 0, 64, 63
1, 561248, Control_c, 0, 64, 66
1, 561263, Control_c, 0, 64, 70
1, 561278, Control_c, 0, 64, 79
1, 561278, Control_c, 0, 67, 77
1, 561293, Control_c, 0, 64, 87
1, 561308, Control_c, 0, 64, 90
1, 561308, Control_c, 0, 67, 78
1, 561320, Note_off_c, 0, 59, 49
1, 561322, Control_c, 0, 64, 91
1, 561322, Control_c, 0, 67, 78
1, 561326, Note_off_c, 0, 67, 40
1, 561337, Control_c, 0, 64, 91
1, 561337, Control_c, 0, 67, 79
1, 561352, Control_c, 0, 64, 92
1, 561352, Control_c, 0, 67, 80
1, 561366, Control_c, 0, 67, 81
1, 561381, Control_c, 0, 67, 82
1, 561396, Control_c, 0, 67, 83
1, 561411, Control_c, 0, 67, 84
1, 561426, Control_c, 0, 67, 85
1, 561439, Note_off_c, 0, 62, 38
1, 561441, Control_c, 0, 67, 85
1, 561455, Control_c, 0, 67, 86
1, 561470, Control_c, 0, 67, 86
1, 561485, Control_c, 0, 67, 87
1, 561515, Control_c, 0, 64, 92
1, 561515, Control_c, 0, 67, 88
1, 561529, Control_c, 0, 64, 90
1, 561529, Control_c, 0, 67, 88
1, 561552, Control_c, 0, 64, 87
1, 561552, Control_c, 0, 67, 90
1, 561567, Control_c, 0, 64, 84
1, 561567, Control_c, 0, 67, 91
1, 561581, Control_c, 0, 64, 81
1, 561581, Control_c, 0, 67, 92
1, 561596, Control_c, 0, 64, 78
1, 561596, Control_c, 0, 67, 93
1, 561610, Note_on_c, 0, 78, 58
1, 561611, Control_c, 0, 64, 74
1, 561626, Control_c, 0, 64, 70
1, 561641, Control_c, 0, 64, 65
1, 561641, Control_c, 0, 67, 94
1, 561654, Note_on_c, 0, 66, 41
1, 561655, Control_c, 0, 64, 56
1, 561670, Note_off_c, 0, 79, 59
1, 561670, Control_c, 0, 64, 0
1, 561670, Control_c, 0, 67, 95
1, 561685, Control_c, 0, 67, 96
1, 561690, Note_on_c, 0, 50, 26
1, 561700, Control_c, 0, 67, 98
1, 561715, Control_c, 0, 67, 101
1, 561729, Control_c, 0, 67, 104
1, 561744, Control_c, 0, 67, 110
1, 561759, Control_c, 0, 64, 58
1, 561759, Control_c, 0, 67, 116
1, 561773, Control_c, 0, 64, 69
1, 561773, Control_c, 0, 67, 123
1, 561788, Control_c, 0, 64, 76
1, 561788, Control_c, 0, 67, 127
1, 561803, Control_c, 0, 64, 80
1, 561818, Control_c, 0, 64, 80
1, 561832, Note_off_c, 0, 50, 40
1, 561833, Control_c, 0, 64, 81
1, 561996, Control_c, 0, 64, 80
1, 562000, Note_on_c, 0, 60, 39
1, 562001, Note_on_c, 0, 57, 38
1, 562011, Control_c, 0, 64, 79
1, 562026, Control_c, 0, 64, 77
1, 562038, Note_off_c, 0, 60, 48
1, 562039, Note_off_c, 0, 57, 46
1, 562041, Control_c, 0, 64, 74
1, 562056, Control_c, 0, 64, 70
1, 562071, Control_c, 0, 64, 67
1, 562086, Control_c, 0, 64, 64
1, 562101, Control_c, 0, 64, 61
1, 562104, Note_on_c, 0, 60, 43
1, 562105, Note_on_c, 0, 57, 42
1, 562116, Control_c, 0, 64, 56
1, 562131, Control_c, 0, 64, 52
1, 562145, Control_c, 0, 64, 49
1, 562155, Note_off_c, 0, 66, 60
1, 562160, Control_c, 0, 64, 46
1, 562167, Note_off_c, 0, 60, 52
1, 562175, Control_c, 0, 64, 41
1, 562175, Note_off_c, 0, 57, 47
1, 562180, Note_off_c, 0, 78, 64
1, 562189, Control_c, 0, 64, 32
1, 562204, Control_c, 0, 64, 18
1, 562219, Control_c, 0, 64, 0
1, 562345, Note_on_c, 0, 76, 53
1, 562369, Note_on_c, 0, 64, 40
1, 562376, Note_on_c, 0, 50, 33
1, 562390, Control_c, 0, 64, 45
1, 562405, Control_c, 0, 64, 63
1, 562420, Control_c, 0, 64, 68
1, 562435, Control_c, 0, 64, 72
1, 562449, Control_c, 0, 64, 75
1, 562464, Control_c, 0, 64, 77
1, 562472, Note_off_c, 0, 50, 30
1, 562479, Control_c, 0, 64, 77
1, 562672, Note_on_c, 0, 55, 45
1, 562672, Note_on_c, 0, 59, 38
1, 562673, Control_c, 0, 64, 76
1, 562688, Control_c, 0, 64, 75
1, 562702, Control_c, 0, 64, 74
1, 562713, Note_off_c, 0, 55, 46
1, 562715, Note_off_c, 0, 59, 46
1, 562717, Control_c, 0, 64, 73
1, 562732, Control_c, 0, 64, 71
1, 562747, Control_c, 0, 64, 70
1, 562762, Control_c, 0, 64, 69
1, 562771, Note_on_c, 0, 59, 42
1, 562776, Control_c, 0, 64, 68
1, 562778, Note_on_c, 0, 55, 40
1, 562791, Control_c, 0, 64, 67
1, 562806, Control_c, 0, 64, 66
1, 562820, Control_c, 0, 64, 65
1, 562825, Note_off_c, 0, 55, 56
1, 562825, Note_off_c, 0, 76, 58
1, 562831, Note_off_c, 0, 59, 53
1, 562835, Control_c, 0, 64, 64
1, 562846, Note_off_c, 0, 64, 59
1, 562850, Control_c, 0, 64, 63
1, 562865, Control_c, 0, 64, 57
1, 562880, Control_c, 0, 64, 0
1, 562983, Control_c, 0, 64, 51
1, 562998, Note_on_c, 0, 74, 48
1, 562998, Control_c, 0, 64, 67
1, 563009, Note_on_c, 0, 62, 43
1, 563013, Control_c, 0, 64, 74
1, 563016, Note_on_c, 0, 50, 36
1, 563028, Control_c, 0, 64, 81
1, 563038, Note_off_c, 0, 74, 61
1, 563050, Control_c, 0, 64, 84
1, 563051, Note_off_c, 0, 62, 56
1, 563065, Control_c, 0, 64, 88
1, 563070, Note_off_c, 0, 50, 45
1, 563080, Control_c, 0, 64, 91
1, 563168, Control_c, 0, 64, 86
1, 563183, Control_c, 0, 64, 76
1, 563198, Control_c, 0, 64, 64
1, 563213, Control_c, 0, 64, 42
1, 563215, Note_on_c, 0, 78, 63
1, 563222, Note_on_c, 0, 57, 53
1, 563226, Note_on_c, 0, 66, 47
1, 563228, Control_c, 0, 64, 0
1, 563230, Note_on_c, 0, 50, 41
1, 563232, Note_on_c, 0, 54, 40
1, 563252, Note_off_c, 0, 78, 56
1, 563258, Note_off_c, 0, 66, 63
1, 563270, Note_off_c, 0, 57, 57
1, 563273, Note_off_c, 0, 54, 54
1, 563275, Note_off_c, 0, 50, 60
1, 563406, Note_on_c, 0, 79, 63
1, 563408, Note_on_c, 0, 67, 58
1, 563420, Note_on_c, 0, 50, 41
1, 563421, Note_on_c, 0, 52, 42
1, 563424, Note_on_c, 0, 55, 32
1, 563440, Note_off_c, 0, 67, 60
1, 563442, Note_off_c, 0, 79, 58
1, 563457, Note_off_c, 0, 50, 53
1, 563457, Note_off_c, 0, 52, 60
1, 563461, Note_off_c, 0, 55, 54
1, 563592, Note_on_c, 0, 54, 41
1, 563592, Note_on_c, 0, 81, 71
1, 563600, Note_on_c, 0, 69, 59
1, 563601, Note_on_c, 0, 57, 48
1, 563611, Note_on_c, 0, 50, 38
1, 563634, Note_off_c, 0, 54, 56
1, 563638, Note_off_c, 0, 69, 62
1, 563639, Note_off_c, 0, 57, 61
1, 563645, Note_off_c, 0, 50, 54
1, 563651, Note_off_c, 0, 81, 59
1, 563785, Note_on_c, 0, 83, 71
1, 563805, Note_on_c, 0, 50, 42
1, 563805, Note_on_c, 0, 59, 51
1, 563805, Note_on_c, 0, 71, 57
1, 563819, Note_on_c, 0, 55, 38
1, 563839, Note_off_c, 0, 71, 60
1, 563841, Note_off_c, 0, 59, 63
1, 563842, Note_off_c, 0, 50, 52
1, 563850, Note_off_c, 0, 83, 60
1, 563851, Note_off_c, 0, 55, 56
1, 563857, Control_c, 0, 67, 121
1, 563872, Control_c, 0, 67, 116
1, 563887, Control_c, 0, 67, 110
1, 563902, Control_c, 0, 67, 104
1, 563916, Control_c, 0, 67, 99
1, 563931, Control_c, 0, 67, 94
1, 563946, Control_c, 0, 67, 89
1, 563961, Control_c, 0, 67, 84
1, 563973, Note_on_c, 0, 84, 74
1, 563976, Control_c, 0, 67, 81
1, 563986, Note_on_c, 0, 60, 48
1, 563986, Note_on_c, 0, 72, 62
1, 563989, Note_on_c, 0, 57, 42
1, 563991, Control_c, 0, 67, 79
1, 563991, Note_on_c, 0, 50, 34
1, 564006, Control_c, 0, 67, 76
1, 564020, Control_c, 0, 67, 75
1, 564023, Note_off_c, 0, 72, 61
1, 564025, Note_off_c, 0, 57, 56
1, 564030, Note_off_c, 0, 60, 59
1, 564031, Note_off_c, 0, 50, 51
1, 564035, Note_off_c, 0, 84, 62
1, 564035, Control_c, 0, 67, 73
1, 564050, Control_c, 0, 67, 73
1, 564080, Control_c, 0, 67, 73
1, 564095, Control_c, 0, 67, 74
1, 564110, Control_c, 0, 67, 76
1, 564124, Control_c, 0, 67, 76
1, 564139, Control_c, 0, 67, 77
1, 564154, Control_c, 0, 67, 78
1, 564168, Control_c, 0, 67, 79
1, 564183, Control_c, 0, 67, 80
1, 564197, Note_on_c, 0, 83, 76
1, 564198, Control_c, 0, 67, 81
1, 564213, Control_c, 0, 67, 82
1, 564216, Note_on_c, 0, 71, 59
1, 564228, Control_c, 0, 67, 83
1, 564230, Note_on_c, 0, 50, 33
1, 564242, Control_c, 0, 64, 58
1, 564242, Control_c, 0, 67, 84
1, 564257, Control_c, 0, 64, 73
1, 564257, Control_c, 0, 67, 86
1, 564273, Control_c, 0, 64, 92
1, 564273, Control_c, 0, 67, 88
1, 564288, Control_c, 0, 64, 127
1, 564288, Control_c, 0, 67, 93
1, 564303, Control_c, 0, 67, 97
1, 564318, Control_c, 0, 67, 102
1, 564333, Control_c, 0, 64, 102
1, 564333, Control_c, 0, 67, 105
1, 564347, Control_c, 0, 64, 76
1, 564347, Control_c, 0, 67, 108
1, 564362, Control_c, 0, 64, 64
1, 564362, Control_c, 0, 67, 112
1, 564377, Control_c, 0, 64, 50
1, 564377, Control_c, 0, 67, 115
1, 564381, Note_off_c, 0, 50, 41
1, 564391, Control_c, 0, 64, 27
1, 564391, Control_c, 0, 67, 119
1, 564406, Control_c, 0, 64, 22
1, 564406, Control_c, 0, 67, 122
1, 564421, Control_c, 0, 67, 125
1, 564436, Control_c, 0, 67, 127
1, 564465, Control_c, 0, 64, 20
1, 564480, Control_c, 0, 64, 19
1, 564495, Control_c, 0, 64, 18
1, 564501, Note_on_c, 0, 55, 45
1, 564503, Note_on_c, 0, 59, 43
1, 564510, Control_c, 0, 64, 14
1, 564525, Control_c, 0, 64, 0
1, 564533, Note_off_c, 0, 59, 54
1, 564588, Note_off_c, 0, 55, 0
1, 564602, Note_on_c, 0, 55, 42
1, 564604, Note_on_c, 0, 59, 65
1, 564652, Note_off_c, 0, 55, 61
1, 564662, Note_off_c, 0, 59, 50
1, 564686, Note_off_c, 0, 71, 49
1, 564810, Note_on_c, 0, 84, 81
1, 564831, Note_on_c, 0, 72, 55
1, 564834, Note_off_c, 0, 83, 55
1, 564841, Note_on_c, 0, 50, 46
1, 564918, Control_c, 0, 64, 62
1, 564933, Control_c, 0, 64, 70
1, 564947, Control_c, 0, 64, 77
1, 564962, Control_c, 0, 64, 80
1, 564977, Control_c, 0, 64, 81
1, 565003, Note_off_c, 0, 50, 36
1, 565036, Control_c, 0, 64, 80
1, 565051, Control_c, 0, 64, 80
1, 565067, Control_c, 0, 64, 77
1, 565082, Control_c, 0, 64, 74
1, 565096, Control_c, 0, 64, 70
1, 565098, Note_on_c, 0, 60, 52
1, 565102, Note_on_c, 0, 57, 49
1, 565111, Control_c, 0, 64, 65
1, 565126, Control_c, 0, 64, 62
1, 565132, Note_off_c, 0, 60, 63
1, 565132, Note_off_c, 0, 57, 60
1, 565141, Control_c, 0, 64, 55
1, 565156, Control_c, 0, 64, 43
1, 565170, Control_c, 0, 64, 0
1, 565213, Note_on_c, 0, 60, 60
1, 565219, Note_on_c, 0, 57, 54
1, 565251, Note_off_c, 0, 60, 58
1, 565260, Note_off_c, 0, 72, 53
1, 565261, Note_off_c, 0, 57, 57
1, 565341, Control_c, 0, 67, 127
1, 565356, Control_c, 0, 67, 126
1, 565370, Control_c, 0, 67, 124
1, 565385, Control_c, 0, 67, 123
1, 565400, Control_c, 0, 67, 120
1, 565415, Control_c, 0, 67, 117
1, 565420, Note_on_c, 0, 86, 74
1, 565421, Note_off_c, 0, 84, 58
1, 565429, Control_c, 0, 64, 24
1, 565429, Control_c, 0, 67, 112
1, 565442, Note_on_c, 0, 50, 52
1, 565444, Control_c, 0, 64, 61
1, 565444, Control_c, 0, 67, 106
1, 565451, Note_on_c, 0, 74, 47
1, 565459, Control_c, 0, 64, 69
1, 565459, Control_c, 0, 67, 101
1, 565474, Control_c, 0, 64, 76
1, 565474, Control_c, 0, 67, 95
1, 565483, Note_off_c, 0, 50, 61
1, 565489, Control_c, 0, 64, 83
1, 565489, Control_c, 0, 67, 91
1, 565490, Note_off_c, 0, 74, 63
1, 565503, Control_c, 0, 64, 87
1, 565503, Control_c, 0, 67, 87
1, 565518, Control_c, 0, 64, 91
1, 565518, Control_c, 0, 67, 82
1, 565523, Note_off_c, 0, 86, 63
1, 565533, Control_c, 0, 64, 91
1, 565533, Control_c, 0, 67, 78
1, 565547, Control_c, 0, 67, 74
1, 565562, Control_c, 0, 67, 71
1, 565577, Control_c, 0, 67, 68
1, 565592, Control_c, 0, 67, 66
1, 565607, Control_c, 0, 67, 64
1, 565621, Control_c, 0, 64, 91
1, 565621, Control_c, 0, 67, 62
1, 565636, Control_c, 0, 64, 89
1, 565636, Control_c, 0, 67, 60
1, 565642, Note_on_c, 0, 91, 80
1, 565651, Control_c, 0, 64, 86
1, 565651, Control_c, 0, 67, 58
1, 565660, Note_on_c, 0, 79, 66
1, 565660, Note_on_c, 0, 59, 48
1, 565666, Control_c, 0, 64, 81
1, 565666, Control_c, 0, 67, 56
1, 565671, Note_on_c, 0, 62, 48
1, 565681, Control_c, 0, 64, 77
1, 565681, Control_c, 0, 67, 55
1, 565696, Control_c, 0, 64, 73
1, 565696, Control_c, 0, 67, 53
1, 565711, Control_c, 0, 64, 70
1, 565711, Control_c, 0, 67, 50
1, 565726, Control_c, 0, 64, 68
1, 565726, Control_c, 0, 67, 47
1, 565729, Note_off_c, 0, 79, 59
1, 565740, Control_c, 0, 64, 66
1, 565740, Control_c, 0, 67, 44
1, 565740, Note_off_c, 0, 91, 59
1, 565755, Control_c, 0, 64, 64
1, 565755, Control_c, 0, 67, 42
1, 565770, Control_c, 0, 64, 61
1, 565770, Control_c, 0, 67, 40
1, 565785, Control_c, 0, 64, 56
1, 565785, Control_c, 0, 67, 39
1, 565800, Control_c, 0, 64, 49
1, 565800, Control_c, 0, 67, 38
1, 565814, Control_c, 0, 64, 43
1, 565814, Control_c, 0, 67, 38
1, 565829, Control_c, 0, 64, 36
1, 565829, Control_c, 0, 67, 37
1, 565838, Note_on_c, 0, 91, 80
1, 565844, Control_c, 0, 64, 21
1, 565844, Control_c, 0, 67, 35
1, 565851, Note_on_c, 0, 79, 60
1, 565857, Note_on_c, 0, 58, 53
1, 565860, Control_c, 0, 64, 0
1, 565860, Control_c, 0, 67, 33
1, 565861, Note_off_c, 0, 59, 58
1, 565864, Note_on_c, 0, 61, 52
1, 565875, Control_c, 0, 67, 29
1, 565889, Control_c, 0, 67, 25
1, 565904, Control_c, 0, 67, 23
1, 565914, Note_off_c, 0, 62, 35
1, 565919, Control_c, 0, 67, 20
1, 565922, Note_off_c, 0, 79, 57
1, 565933, Note_off_c, 0, 91, 59
1, 565934, Control_c, 0, 67, 17
1, 565949, Control_c, 0, 67, 15
1, 565964, Control_c, 0, 67, 14
1, 565979, Control_c, 0, 67, 13
1, 565993, Control_c, 0, 67, 12
1, 566008, Control_c, 0, 67, 10
1, 566023, Control_c, 0, 67, 10
1, 566044, Control_c, 0, 67, 9
1, 566046, Note_off_c, 0, 61, 61
1, 566056, Note_on_c, 0, 91, 68
1, 566060, Control_c, 0, 67, 9
1, 566064, Note_on_c, 0, 79, 55
1, 566075, Note_on_c, 0, 62, 39
1, 566078, Note_on_c, 0, 59, 41
1, 566086, Note_off_c, 0, 58, 62
1, 566119, Control_c, 0, 67, 8
1, 566149, Note_off_c, 0, 79, 56
1, 566161, Note_off_c, 0, 91, 52
1, 566179, Control_c, 0, 67, 9
1, 566208, Control_c, 0, 67, 9
1, 566223, Control_c, 0, 67, 10
1, 566253, Control_c, 0, 67, 10
1, 566268, Control_c, 0, 67, 11
1, 566272, Note_on_c, 0, 91, 64
1, 566281, Note_on_c, 0, 79, 51
1, 566293, Note_on_c, 0, 64, 43
1, 566298, Control_c, 0, 67, 11
1, 566303, Note_on_c, 0, 60, 38
1, 566313, Control_c, 0, 67, 12
1, 566313, Note_off_c, 0, 62, 30
1, 566327, Control_c, 0, 67, 12
1, 566342, Control_c, 0, 67, 13
1, 566345, Note_off_c, 0, 79, 54
1, 566349, Note_off_c, 0, 59, 49
1, 566351, Note_off_c, 0, 91, 57
1, 566371, Control_c, 0, 67, 14
1, 566386, Control_c, 0, 67, 15
1, 566416, Control_c, 0, 67, 16
1, 566429, Note_off_c, 0, 64, 35
1, 566431, Control_c, 0, 67, 17
1, 566437, Note_off_c, 0, 60, 37
1, 566445, Control_c, 0, 67, 18
1, 566460, Control_c, 0, 67, 18
1, 566475, Control_c, 0, 67, 19
1, 566490, Control_c, 0, 67, 20
1, 566505, Control_c, 0, 67, 21
1, 566508, Note_on_c, 0, 91, 82
1, 566519, Control_c, 0, 67, 23
1, 566534, Control_c, 0, 67, 24
1, 566536, Note_on_c, 0, 59, 38
1, 566536, Note_on_c, 0, 62, 47
1, 566539, Note_on_c, 0, 79, 47
1, 566549, Control_c, 0, 67, 26
1, 566563, Control_c, 0, 67, 27
1, 566578, Control_c, 0, 67, 29
1, 566582, Note_off_c, 0, 59, 62
1, 566593, Control_c, 0, 67, 32
1, 566608, Control_c, 0, 67, 37
1, 566623, Control_c, 0, 67, 43
1, 566638, Control_c, 0, 67, 49
1, 566643, Note_off_c, 0, 79, 59
1, 566653, Control_c, 0, 67, 53
1, 566668, Control_c, 0, 67, 57
1, 566683, Control_c, 0, 67, 60
1, 566698, Control_c, 0, 67, 62
1, 566707, Note_off_c, 0, 62, 42
1, 566713, Control_c, 0, 67, 64
1, 566728, Control_c, 0, 67, 67
1, 566742, Control_c, 0, 67, 71
1, 566757, Control_c, 0, 67, 75
1, 566772, Control_c, 0, 67, 80
1, 566794, Control_c, 0, 67, 85
1, 566809, Control_c, 0, 67, 90
1, 566824, Control_c, 0, 67, 93
1, 566839, Control_c, 0, 67, 98
1, 566854, Control_c, 0, 67, 104
1, 566858, Note_on_c, 0, 90, 70
1, 566868, Control_c, 0, 67, 110
1, 566880, Note_on_c, 0, 78, 58
1, 566883, Control_c, 0, 67, 116
1, 566898, Control_c, 0, 67, 118
1, 566901, Note_on_c, 0, 50, 39
1, 566913, Note_off_c, 0, 91, 58
1, 566913, Control_c, 0, 67, 119
1, 566928, Control_c, 0, 67, 119
1, 566942, Control_c, 0, 64, 49
1, 566957, Control_c, 0, 64, 69
1, 566957, Control_c, 0, 67, 120
1, 566972, Control_c, 0, 64, 85
1, 566986, Control_c, 0, 64, 100
1, 567001, Control_c, 0, 64, 103
1, 567016, Control_c, 0, 64, 106
1, 567025, Note_off_c, 0, 50, 35
1, 567188, Note_on_c, 0, 60, 42
1, 567190, Note_on_c, 0, 57, 41
1, 567209, Control_c, 0, 64, 105
1, 567223, Note_off_c, 0, 60, 49
1, 567224, Control_c, 0, 64, 93
1, 567225, Note_off_c, 0, 57, 48
1, 567239, Control_c, 0, 64, 76
1, 567254, Control_c, 0, 64, 63
1, 567268, Control_c, 0, 64, 28
1, 567283, Control_c, 0, 64, 0
1, 567289, Note_on_c, 0, 57, 42
1, 567290, Note_on_c, 0, 60, 38
1, 567312, Control_c, 0, 67, 119
1, 567327, Control_c, 0, 67, 119
1, 567335, Note_off_c, 0, 57, 56
1, 567337, Note_off_c, 0, 60, 48
1, 567357, Control_c, 0, 67, 118
1, 567363, Note_off_c, 0, 78, 61
1, 567386, Control_c, 0, 67, 118
1, 567393, Note_off_c, 0, 90, 64
1, 567416, Control_c, 0, 67, 117
1, 567431, Control_c, 0, 67, 117
1, 567446, Control_c, 0, 67, 116
1, 567462, Control_c, 0, 67, 115
1, 567477, Control_c, 0, 67, 115
1, 567491, Control_c, 0, 67, 113
1, 567498, Note_on_c, 0, 88, 64
1, 567506, Control_c, 0, 67, 112
1, 567520, Note_on_c, 0, 76, 45
1, 567521, Control_c, 0, 67, 112
1, 567526, Note_on_c, 0, 50, 41
1, 567544, Control_c, 0, 64, 57
1, 567559, Control_c, 0, 64, 74
1, 567573, Control_c, 0, 64, 101
1, 567588, Control_c, 0, 64, 127
1, 567628, Note_off_c, 0, 50, 37
1, 567795, Note_on_c, 0, 59, 41
1, 567801, Note_on_c, 0, 55, 47
1, 567830, Note_off_c, 0, 55, 58
1, 567836, Note_off_c, 0, 59, 47
1, 567839, Control_c, 0, 64, 104
1, 567854, Control_c, 0, 64, 88
1, 567869, Control_c, 0, 64, 79
1, 567869, Control_c, 0, 67, 112
1, 567884, Control_c, 0, 64, 70
1, 567893, Note_on_c, 0, 59, 45
1, 567899, Control_c, 0, 64, 65
1, 567913, Note_on_c, 0, 55, 42
1, 567913, Control_c, 0, 64, 59
1, 567928, Control_c, 0, 64, 50
1, 567942, Note_off_c, 0, 59, 54
1, 567943, Control_c, 0, 64, 43
1, 567957, Note_off_c, 0, 55, 48
1, 567958, Control_c, 0, 64, 39
1, 567961, Note_off_c, 0, 88, 57
1, 567970, Note_off_c, 0, 76, 63
1, 567973, Control_c, 0, 64, 24
1, 567988, Control_c, 0, 64, 0
1, 568047, Control_c, 0, 67, 112
1, 568062, Control_c, 0, 67, 111
1, 568077, Control_c, 0, 67, 110
1, 568091, Control_c, 0, 67, 110
1, 568102, Note_on_c, 0, 86, 58
1, 568106, Control_c, 0, 64, 27
1, 568106, Control_c, 0, 67, 109
1, 568111, Note_on_c, 0, 74, 47
1, 568121, Control_c, 0, 64, 63
1, 568134, Note_on_c, 0, 50, 34
1, 568135, Control_c, 0, 64, 75
1, 568135, Control_c, 0, 67, 109
1, 568149, Note_off_c, 0, 74, 65
1, 568150, Control_c, 0, 64, 85
1, 568165, Control_c, 0, 64, 91
1, 568173, Note_off_c, 0, 86, 59
1, 568180, Control_c, 0, 64, 96
1, 568185, Note_off_c, 0, 50, 43
1, 568195, Control_c, 0, 64, 104
1, 568209, Control_c, 0, 64, 107
1, 568292, Control_c, 0, 64, 103
1, 568307, Control_c, 0, 64, 88
1, 568311, Note_on_c, 0, 90, 77
1, 568321, Control_c, 0, 64, 74
1, 568331, Note_on_c, 0, 78, 54
1, 568336, Control_c, 0, 64, 64
1, 568337, Note_on_c, 0, 57, 42
1, 568339, Note_on_c, 0, 54, 41
1, 568341, Note_on_c, 0, 50, 45
1, 568351, Control_c, 0, 64, 46
1, 568351, Control_c, 0, 67, 108
1, 568365, Control_c, 0, 64, 0
1, 568369, Note_off_c, 0, 78, 61
1, 568376, Note_off_c, 0, 57, 50
1, 568381, Note_off_c, 0, 90, 59
1, 568382, Note_off_c, 0, 50, 60
1, 568382, Note_off_c, 0, 54, 56
1, 568395, Control_c, 0, 67, 107
1, 568425, Control_c, 0, 67, 107
1, 568439, Control_c, 0, 67, 106
1, 568454, Control_c, 0, 67, 105
1, 568469, Control_c, 0, 67, 104
1, 568484, Control_c, 0, 67, 102
1, 568499, Control_c, 0, 67, 100
1, 568508, Note_on_c, 0, 91, 74
1, 568513, Note_on_c, 0, 79, 64
1, 568513, Control_c, 0, 67, 99
1, 568528, Control_c, 0, 67, 97
1, 568531, Note_on_c, 0, 50, 42
1, 568535, Note_on_c, 0, 52, 39
1, 568539, Note_on_c, 0, 55, 26
1, 568543, Control_c, 0, 67, 97
1, 568568, Note_off_c, 0, 91, 58
1, 568570, Note_off_c, 0, 50, 57
1, 568571, Note_off_c, 0, 52, 60
1, 568572, Note_off_c, 0, 79, 55
1, 568582, Note_off_c, 0, 55, 49
1, 568587, Control_c, 0, 67, 96
1, 568602, Control_c, 0, 67, 96
1, 568632, Control_c, 0, 67, 95
1, 568647, Control_c, 0, 67, 94
1, 568662, Control_c, 0, 67, 92
1, 568677, Control_c, 0, 67, 91
1, 568692, Control_c, 0, 67, 90
1, 568697, Note_on_c, 0, 93, 80
1, 568700, Note_on_c, 0, 81, 73
1, 568701, Note_on_c, 0, 54, 48
1, 568706, Control_c, 0, 67, 90
1, 568712, Note_on_c, 0, 57, 46
1, 568714, Note_on_c, 0, 50, 46
1, 568721, Control_c, 0, 67, 89
1, 568736, Control_c, 0, 67, 89
1, 568749, Note_off_c, 0, 54, 59
1, 568750, Note_off_c, 0, 57, 60
1, 568751, Control_c, 0, 67, 88
1, 568760, Note_off_c, 0, 50, 58
1, 568763, Note_off_c, 0, 81, 56
1, 568765, Control_c, 0, 67, 87
1, 568770, Note_off_c, 0, 93, 58
1, 568780, Control_c, 0, 67, 86
1, 568795, Control_c, 0, 67, 84
1, 568810, Control_c, 0, 67, 82
1, 568825, Control_c, 0, 67, 81
1, 568839, Control_c, 0, 67, 80
1, 568854, Control_c, 0, 67, 79
1, 568869, Control_c, 0, 67, 78
1, 568879, Note_on_c, 0, 95, 82
1, 568884, Note_on_c, 0, 83, 73
1, 568884, Control_c, 0, 67, 78
1, 568889, Note_on_c, 0, 59, 53
1, 568893, Note_on_c, 0, 50, 50
1, 568899, Control_c, 0, 67, 77
1, 568900, Note_on_c, 0, 55, 49
1, 568913, Control_c, 0, 67, 76
1, 568928, Control_c, 0, 67, 75
1, 568929, Note_off_c, 0, 59, 63
1, 568936, Note_off_c, 0, 50, 59
1, 568943, Note_off_c, 0, 55, 61
1, 568943, Note_off_c, 0, 83, 60
1, 568943, Control_c, 0, 67, 74
1, 568951, Note_off_c, 0, 95, 66
1, 568957, Control_c, 0, 67, 72
1, 568972, Control_c, 0, 67, 70
1, 568987, Control_c, 0, 67, 67
1, 569002, Control_c, 0, 67, 64
1, 569017, Control_c, 0, 67, 62
1, 569039, Control_c, 0, 67, 59
1, 569055, Control_c, 0, 67, 58
1, 569062, Note_on_c, 0, 96, 81
1, 569070, Control_c, 0, 67, 56
1, 569073, Note_on_c, 0, 84, 74
1, 569079, Note_on_c, 0, 57, 44
1, 569079, Note_on_c, 0, 60, 53
1, 569085, Control_c, 0, 67, 54
1, 569091, Note_on_c, 0, 50, 37
1, 569100, Control_c, 0, 67, 52
1, 569115, Control_c, 0, 67, 50
1, 569128, Note_off_c, 0, 60, 57
1, 569130, Note_off_c, 0, 50, 51
1, 569130, Note_off_c, 0, 57, 57
1, 569130, Control_c, 0, 67, 47
1, 569145, Control_c, 0, 67, 43
1, 569145, Note_off_c, 0, 84, 62
1, 569149, Note_off_c, 0, 96, 61
1, 569160, Control_c, 0, 67, 39
1, 569174, Control_c, 0, 67, 35
1, 569189, Control_c, 0, 67, 32
1, 569204, Control_c, 0, 67, 30
1, 569219, Control_c, 0, 67, 27
1, 569234, Control_c, 0, 67, 25
1, 569249, Control_c, 0, 67, 23
1, 569263, Control_c, 0, 67, 20
1, 569278, Control_c, 0, 67, 16
1, 569280, Note_on_c, 0, 95, 88
1, 569290, Note_on_c, 0, 83, 75
1, 569293, Control_c, 0, 67, 11
1, 569306, Note_on_c, 0, 50, 38
1, 569308, Control_c, 0, 67, 0
1, 569323, Control_c, 0, 64, 61
1, 569337, Control_c, 0, 64, 71
1, 569352, Control_c, 0, 64, 84
1, 569367, Control_c, 0, 64, 106
1, 569382, Control_c, 0, 64, 109
1, 569411, Control_c, 0, 64, 102
1, 569426, Control_c, 0, 64, 89
1, 569441, Control_c, 0, 64, 78
1, 569455, Control_c, 0, 64, 72
1, 569470, Control_c, 0, 64, 67
1, 569472, Note_off_c, 0, 50, 38
1, 569485, Control_c, 0, 64, 63
1, 569500, Control_c, 0, 64, 58
1, 569514, Control_c, 0, 64, 55
1, 569529, Control_c, 0, 64, 55
1, 569553, Note_on_c, 0, 59, 52
1, 569554, Note_on_c, 0, 55, 50
1, 569559, Control_c, 0, 64, 53
1, 569574, Control_c, 0, 64, 51
1, 569589, Control_c, 0, 64, 47
1, 569591, Note_off_c, 0, 59, 57
1, 569597, Note_off_c, 0, 55, 56
1, 569604, Control_c, 0, 64, 40
1, 569619, Control_c, 0, 64, 33
1, 569633, Control_c, 0, 64, 26
1, 569648, Control_c, 0, 64, 22
1, 569653, Note_on_c, 0, 59, 61
1, 569655, Note_on_c, 0, 55, 50
1, 569663, Control_c, 0, 64, 15
1, 569678, Control_c, 0, 64, 0
1, 569723, Note_off_c, 0, 59, 48
1, 569735, Note_off_c, 0, 83, 52
1, 569739, Note_off_c, 0, 55, 51
1, 569868, Note_on_c, 0, 96, 84
1, 569884, Note_on_c, 0, 84, 66
1, 569893, Note_off_c, 0, 95, 65
1, 569905, Note_on_c, 0, 50, 48
1, 569967, Control_c, 0, 64, 59
1, 569982, Control_c, 0, 64, 71
1, 569997, Control_c, 0, 64, 83
1, 569997, Control_c, 0, 67, 8
1, 570012, Control_c, 0, 64, 94
1, 570012, Control_c, 0, 67, 10
1, 570027, Control_c, 0, 64, 101
1, 570027, Control_c, 0, 67, 12
1, 570042, Control_c, 0, 64, 107
1, 570042, Control_c, 0, 67, 14
1, 570054, Note_off_c, 0, 50, 34
1, 570057, Control_c, 0, 64, 107
1, 570057, Control_c, 0, 67, 16
1, 570072, Control_c, 0, 67, 20
1, 570086, Control_c, 0, 67, 23
1, 570101, Control_c, 0, 64, 107
1, 570101, Control_c, 0, 67, 26
1, 570116, Control_c, 0, 64, 104
1, 570116, Control_c, 0, 67, 29
1, 570131, Control_c, 0, 64, 97
1, 570131, Control_c, 0, 67, 31
1, 570145, Control_c, 0, 64, 88
1, 570145, Control_c, 0, 67, 33
1, 570160, Control_c, 0, 64, 82
1, 570160, Control_c, 0, 67, 35
1, 570161, Note_on_c, 0, 57, 50
1, 570161, Note_on_c, 0, 60, 50
1, 570175, Control_c, 0, 64, 76
1, 570175, Control_c, 0, 67, 37
1, 570190, Control_c, 0, 64, 72
1, 570190, Control_c, 0, 67, 38
1, 570197, Note_off_c, 0, 57, 55
1, 570198, Note_off_c, 0, 60, 53
1, 570205, Control_c, 0, 64, 67
1, 570205, Control_c, 0, 67, 38
1, 570219, Control_c, 0, 64, 63
1, 570219, Control_c, 0, 67, 41
1, 570234, Control_c, 0, 64, 57
1, 570234, Control_c, 0, 67, 43
1, 570249, Control_c, 0, 64, 49
1, 570264, Control_c, 0, 64, 43
1, 570264, Control_c, 0, 67, 43
1, 570278, Note_on_c, 0, 60, 47
1, 570278, Control_c, 0, 64, 38
1, 570278, Control_c, 0, 67, 44
1, 570279, Note_on_c, 0, 57, 46
1, 570293, Control_c, 0, 64, 27
1, 570308, Control_c, 0, 64, 0
1, 570308, Control_c, 0, 67, 44
1, 570316, Note_off_c, 0, 84, 38
1, 570323, Control_c, 0, 67, 45
1, 570337, Control_c, 0, 67, 45
1, 570362, Note_off_c, 0, 60, 54
1, 570373, Note_off_c, 0, 57, 51
1, 570382, Control_c, 0, 67, 46
1, 570411, Control_c, 0, 67, 47
1, 570426, Control_c, 0, 67, 50
1, 570441, Control_c, 0, 67, 53
1, 570456, Control_c, 0, 67, 56
1, 570471, Control_c, 0, 67, 56
1, 570486, Control_c, 0, 67, 57
1, 570513, Note_on_c, 0, 98, 71
1, 570520, Note_on_c, 0, 86, 56
1, 570552, Note_on_c, 0, 50, 46
1, 570567, Control_c, 0, 64, 64
1, 570582, Control_c, 0, 64, 79
1, 570597, Control_c, 0, 64, 104
1, 570599, Note_off_c, 0, 98, 66
1, 570603, Note_off_c, 0, 96, 23
1, 570608, Note_off_c, 0, 50, 61
1, 570611, Control_c, 0, 64, 127
1, 570623, Note_off_c, 0, 86, 60
1, 570657, Control_c, 0, 67, 57
1, 570687, Control_c, 0, 67, 58
1, 570716, Control_c, 0, 67, 58
1, 570731, Control_c, 0, 67, 59
1, 570746, Control_c, 0, 67, 61
1, 570760, Control_c, 0, 67, 62
1, 570817, Note_on_c, 0, 86, 66
1, 570820, Control_c, 0, 67, 62
1, 570828, Note_on_c, 0, 74, 54
1, 570835, Control_c, 0, 64, 112
1, 570838, Note_on_c, 0, 59, 47
1, 570839, Note_on_c, 0, 62, 42
1, 570850, Control_c, 0, 64, 98
1, 570850, Control_c, 0, 67, 61
1, 570865, Control_c, 0, 64, 91
1, 570879, Control_c, 0, 64, 86
1, 570894, Control_c, 0, 64, 83
1, 570909, Control_c, 0, 64, 80
1, 570909, Control_c, 0, 67, 61
1, 570924, Control_c, 0, 64, 76
1, 570924, Control_c, 0, 67, 60
1, 570930, Note_off_c, 0, 86, 59
1, 570939, Control_c, 0, 64, 71
1, 570939, Control_c, 0, 67, 60
1, 570947, Note_off_c, 0, 74, 57
1, 570954, Control_c, 0, 64, 67
1, 570968, Control_c, 0, 64, 63
1, 570983, Control_c, 0, 64, 60
1, 570998, Control_c, 0, 64, 57
1, 571013, Control_c, 0, 64, 54
1, 571028, Note_on_c, 0, 86, 65
1, 571028, Control_c, 0, 64, 50
1, 571033, Note_on_c, 0, 58, 57
1, 571037, Note_on_c, 0, 74, 49
1, 571042, Control_c, 0, 64, 44
1, 571042, Control_c, 0, 67, 59
1, 571047, Note_on_c, 0, 61, 54
1, 571053, Note_off_c, 0, 59, 60
1, 571057, Control_c, 0, 64, 31
1, 571057, Control_c, 0, 67, 59
1, 571072, Control_c, 0, 64, 0
1, 571087, Control_c, 0, 67, 58
1, 571114, Note_off_c, 0, 62, 47
1, 571121, Note_off_c, 0, 86, 60
1, 571122, Note_off_c, 0, 74, 59
1, 571131, Control_c, 0, 67, 57
1, 571190, Control_c, 0, 67, 57
1, 571220, Control_c, 0, 67, 56
1, 571229, Note_on_c, 0, 86, 68
1, 571237, Note_on_c, 0, 59, 51
1, 571237, Note_on_c, 0, 74, 58
1, 571246, Note_on_c, 0, 62, 51
1, 571247, Note_off_c, 0, 61, 60
1, 571249, Control_c, 0, 67, 56
1, 571293, Note_off_c, 0, 58, 55
1, 571330, Note_off_c, 0, 74, 57
1, 571330, Note_off_c, 0, 86, 58
1, 571359, Control_c, 0, 67, 55
1, 571440, Note_on_c, 0, 86, 67
1, 571442, Note_on_c, 0, 64, 51
1, 571446, Note_on_c, 0, 74, 59
1, 571448, Note_on_c, 0, 60, 47
1, 571479, Control_c, 0, 67, 55
1, 571508, Control_c, 0, 67, 54
1, 571511, Note_off_c, 0, 62, 39
1, 571523, Note_off_c, 0, 86, 59
1, 571523, Control_c, 0, 67, 54
1, 571526, Note_off_c, 0, 74, 59
1, 571530, Note_off_c, 0, 59, 45
1, 571538, Control_c, 0, 67, 53
1, 571568, Control_c, 0, 67, 52
1, 571582, Control_c, 0, 67, 51
1, 571597, Control_c, 0, 67, 51
1, 571612, Control_c, 0, 67, 50
1, 571627, Control_c, 0, 67, 49
1, 571638, Note_on_c, 0, 74, 59
1, 571638, Note_on_c, 0, 86, 69
1, 571642, Control_c, 0, 67, 47
1, 571646, Note_off_c, 0, 64, 40
1, 571648, Note_on_c, 0, 59, 58
1, 571649, Note_on_c, 0, 62, 53
1, 571650, Note_off_c, 0, 60, 55
1, 571656, Control_c, 0, 67, 46
1, 571671, Control_c, 0, 67, 46
1, 571686, Control_c, 0, 67, 45
1, 571692, Note_off_c, 0, 59, 61
1, 571716, Control_c, 0, 67, 44
1, 571729, Note_off_c, 0, 74, 60
1, 571730, Control_c, 0, 67, 44
1, 571754, Note_off_c, 0, 86, 59
1, 571782, Note_off_c, 0, 62, 35
1, 571887, Note_on_c, 0, 88, 75
1, 571893, Control_c, 0, 67, 43
1, 571903, Note_on_c, 0, 76, 62
1, 571908, Control_c, 0, 67, 43
1, 571928, Note_on_c, 0, 50, 49
1, 571953, Control_c, 0, 67, 42
1, 571968, Control_c, 0, 67, 42
1, 571997, Control_c, 0, 64, 56
1, 571997, Control_c, 0, 67, 41
1, 572012, Control_c, 0, 64, 69
1, 572034, Control_c, 0, 64, 81
1, 572034, Control_c, 0, 67, 41
1, 572049, Control_c, 0, 64, 98
1, 572063, Control_c, 0, 64, 127
1, 572078, Control_c, 0, 67, 41
1, 572093, Control_c, 0, 67, 42
1, 572108, Control_c, 0, 67, 42
1, 572123, Control_c, 0, 67, 43
1, 572137, Control_c, 0, 67, 44
1, 572152, Control_c, 0, 67, 44
1, 572167, Control_c, 0, 67, 45
1, 572182, Control_c, 0, 67, 46
1, 572199, Note_off_c, 0, 76, 48
1, 572212, Control_c, 0, 67, 47
1, 572221, Note_on_c, 0, 59, 44
1, 572224, Note_on_c, 0, 64, 40
1, 572227, Note_on_c, 0, 62, 38
1, 572242, Control_c, 0, 67, 47
1, 572264, Note_off_c, 0, 64, 48
1, 572266, Note_off_c, 0, 62, 48
1, 572272, Control_c, 0, 67, 48
1, 572301, Note_off_c, 0, 59, 0
1, 572301, Control_c, 0, 67, 48
1, 572316, Control_c, 0, 67, 49
1, 572320, Note_on_c, 0, 59, 34
1, 572322, Note_on_c, 0, 64, 46
1, 572326, Note_on_c, 0, 62, 48
1, 572346, Control_c, 0, 67, 49
1, 572376, Note_off_c, 0, 88, 62
1, 572413, Note_off_c, 0, 50, 35
1, 572420, Control_c, 0, 67, 50
1, 572435, Control_c, 0, 67, 50
1, 572450, Control_c, 0, 67, 51
1, 572456, Note_off_c, 0, 64, 37
1, 572462, Note_off_c, 0, 59, 31
1, 572481, Note_off_c, 0, 62, 41
1, 572494, Control_c, 0, 67, 51
1, 572523, Control_c, 0, 67, 52
1, 572568, Control_c, 0, 67, 52
1, 572583, Control_c, 0, 67, 53
1, 572614, Note_on_c, 0, 100, 70
1, 572638, Note_on_c, 0, 88, 58
1, 572642, Control_c, 0, 67, 54
1, 572659, Note_on_c, 0, 50, 46
1, 572672, Control_c, 0, 67, 55
1, 572686, Control_c, 0, 67, 55
1, 572701, Control_c, 0, 67, 56
1, 572716, Control_c, 0, 67, 56
1, 572731, Control_c, 0, 67, 57
1, 572742, Note_off_c, 0, 88, 50
1, 572745, Note_off_c, 0, 100, 63
1, 572746, Control_c, 0, 67, 57
1, 572760, Control_c, 0, 67, 58
1, 572783, Control_c, 0, 67, 59
1, 572799, Control_c, 0, 67, 59
1, 572813, Control_c, 0, 67, 60
1, 572828, Control_c, 0, 67, 61
1, 572843, Control_c, 0, 67, 62
1, 572858, Control_c, 0, 67, 62
1, 572873, Control_c, 0, 67, 63
1, 572987, Note_on_c, 0, 56, 39
1, 572990, Note_on_c, 0, 64, 40
1, 572996, Note_on_c, 0, 59, 27
1, 572999, Note_on_c, 0, 62, 39
1, 573032, Note_off_c, 0, 62, 50
1, 573041, Note_off_c, 0, 64, 42
1, 573050, Control_c, 0, 67, 62
1, 573076, Note_off_c, 0, 56, 0
1, 573082, Note_off_c, 0, 59, 0
1, 573093, Note_on_c, 0, 64, 42
1, 573099, Note_on_c, 0, 56, 24
1, 573100, Note_on_c, 0, 62, 43
1, 573102, Note_on_c, 0, 59, 21
1, 573157, Note_off_c, 0, 59, 43
1, 573167, Note_off_c, 0, 64, 52
1, 573178, Note_off_c, 0, 50, 34
1, 573190, Note_off_c, 0, 56, 33
1, 573219, Note_off_c, 0, 62, 40
1, 573258, Control_c, 0, 64, 82
1, 573273, Control_c, 0, 64, 61
1, 573288, Control_c, 0, 64, 0
1, 573317, Note_on_c, 0, 98, 66
1, 573318, Control_c, 0, 64, 50
1, 573333, Control_c, 0, 64, 63
1, 573333, Note_on_c, 0, 86, 53
1, 573341, Note_on_c, 0, 50, 47
1, 573347, Control_c, 0, 64, 68
1, 573347, Control_c, 0, 67, 63
1, 573362, Control_c, 0, 64, 74
1, 573362, Control_c, 0, 67, 63
1, 573377, Control_c, 0, 64, 78
1, 573377, Control_c, 0, 67, 64
1, 573393, Note_off_c, 0, 50, 62
1, 573396, Note_off_c, 0, 86, 54
1, 573466, Control_c, 0, 64, 77
1, 573466, Control_c, 0, 67, 64
1, 573481, Control_c, 0, 64, 76
1, 573489, Note_off_c, 0, 98, 67
1, 573496, Control_c, 0, 64, 75
1, 573500, Note_on_c, 0, 96, 73
1, 573510, Control_c, 0, 64, 74
1, 573510, Control_c, 0, 67, 65
1, 573532, Control_c, 0, 64, 73
1, 573532, Control_c, 0, 67, 66
1, 573540, Note_on_c, 0, 84, 57
1, 573547, Note_on_c, 0, 60, 49
1, 573547, Control_c, 0, 64, 72
1, 573547, Control_c, 0, 67, 66
1, 573556, Note_on_c, 0, 57, 40
1, 573562, Control_c, 0, 64, 71
1, 573577, Control_c, 0, 64, 70
1, 573577, Note_off_c, 0, 84, 65
1, 573592, Control_c, 0, 64, 69
1, 573607, Control_c, 0, 64, 68
1, 573636, Control_c, 0, 64, 68
1, 573666, Control_c, 0, 64, 67
1, 573666, Control_c, 0, 67, 66
1, 573680, Control_c, 0, 64, 67
1, 573687, Note_on_c, 0, 95, 79
1, 573695, Control_c, 0, 64, 66
1, 573698, Note_off_c, 0, 60, 59
1, 573700, Note_off_c, 0, 96, 58
1, 573710, Control_c, 0, 64, 66
1, 573710, Control_c, 0, 67, 65
1, 573711, Note_off_c, 0, 57, 52
1, 573718, Note_on_c, 0, 83, 51
1, 573723, Note_on_c, 0, 59, 48
1, 573725, Control_c, 0, 64, 65
1, 573731, Note_on_c, 0, 62, 44
1, 573740, Control_c, 0, 64, 65
1, 573769, Control_c, 0, 64, 64
1, 573784, Control_c, 0, 64, 64
1, 573787, Note_off_c, 0, 83, 59
1, 573814, Control_c, 0, 64, 63
1, 573828, Control_c, 0, 64, 63
1, 573843, Control_c, 0, 64, 62
1, 573859, Control_c, 0, 64, 61
1, 573874, Control_c, 0, 64, 60
1, 573874, Control_c, 0, 67, 65
1, 573889, Control_c, 0, 64, 56
1, 573900, Note_on_c, 0, 93, 76
1, 573904, Control_c, 0, 64, 32
1, 573914, Note_on_c, 0, 81, 53
1, 573916, Note_off_c, 0, 59, 57
1, 573918, Note_on_c, 0, 64, 44
1, 573919, Control_c, 0, 64, 0
1, 573922, Note_off_c, 0, 62, 44
1, 573931, Note_on_c, 0, 60, 43
1, 573944, Note_off_c, 0, 95, 64
1, 573948, Control_c, 0, 67, 64
1, 573963, Control_c, 0, 67, 64
1, 574010, Note_off_c, 0, 81, 59
1, 574022, Control_c, 0, 64, 53
1, 574022, Control_c, 0, 67, 63
1, 574037, Control_c, 0, 64, 63
1, 574051, Control_c, 0, 64, 64
1, 574099, Note_off_c, 0, 60, 56
1, 574105, Note_on_c, 0, 95, 71
1, 574110, Note_off_c, 0, 64, 56
1, 574111, Control_c, 0, 67, 63
1, 574114, Note_on_c, 0, 83, 58
1, 574117, Note_on_c, 0, 62, 46
1, 574118, Note_on_c, 0, 59, 48
1, 574167, Note_off_c, 0, 93, 51
1, 574172, Note_off_c, 0, 83, 59
1, 574254, Note_off_c, 0, 59, 51
1, 574281, Control_c, 0, 67, 63
1, 574287, Note_off_c, 0, 62, 59
1, 574290, Note_on_c, 0, 96, 71
1, 574294, Note_on_c, 0, 57, 51
1, 574297, Note_on_c, 0, 60, 49
1, 574304, Note_on_c, 0, 84, 63
1, 574321, Note_off_c, 0, 60, 62
1, 574321, Note_off_c, 0, 95, 56
1, 574325, Control_c, 0, 67, 64
1, 574337, Note_off_c, 0, 57, 62
1, 574340, Note_off_c, 0, 96, 63
1, 574340, Control_c, 0, 67, 64
1, 574350, Note_off_c, 0, 84, 62
1, 574355, Control_c, 0, 64, 63
1, 574355, Control_c, 0, 67, 65
1, 574384, Control_c, 0, 67, 65
1, 574414, Control_c, 0, 64, 63
1, 574414, Control_c, 0, 67, 66
1, 574458, Control_c, 0, 64, 62
1, 574458, Control_c, 0, 67, 66
1, 574473, Control_c, 0, 64, 62
1, 574473, Control_c, 0, 67, 67
1, 574488, Control_c, 0, 64, 60
1, 574502, Control_c, 0, 64, 56
1, 574517, Control_c, 0, 64, 39
1, 574532, Control_c, 0, 64, 0
1, 574543, Note_on_c, 0, 86, 73
1, 574560, Note_on_c, 0, 74, 54
1, 574565, Note_on_c, 0, 50, 48
1, 574606, Control_c, 0, 67, 67
1, 574621, Control_c, 0, 67, 68
1, 574636, Control_c, 0, 64, 38
1, 574636, Control_c, 0, 67, 68
1, 574652, Control_c, 0, 64, 61
1, 574652, Control_c, 0, 67, 71
1, 574667, Control_c, 0, 64, 66
1, 574667, Control_c, 0, 67, 73
1, 574681, Control_c, 0, 64, 68
1, 574681, Control_c, 0, 67, 74
1, 574696, Control_c, 0, 64, 71
1, 574696, Control_c, 0, 67, 76
1, 574711, Control_c, 0, 64, 74
1, 574711, Control_c, 0, 67, 79
1, 574725, Control_c, 0, 64, 76
1, 574725, Control_c, 0, 67, 82
1, 574740, Control_c, 0, 64, 77
1, 574740, Control_c, 0, 67, 84
1, 574755, Control_c, 0, 67, 86
1, 574770, Control_c, 0, 67, 88
1, 574785, Control_c, 0, 67, 89
1, 574799, Control_c, 0, 67, 91
1, 574814, Note_on_c, 0, 57, 43
1, 574814, Control_c, 0, 67, 94
1, 574820, Note_on_c, 0, 60, 44
1, 574821, Note_on_c, 0, 62, 44
1, 574829, Control_c, 0, 67, 96
1, 574844, Control_c, 0, 67, 99
1, 574859, Control_c, 0, 67, 102
1, 574862, Note_off_c, 0, 60, 45
1, 574862, Note_off_c, 0, 62, 46
1, 574863, Note_off_c, 0, 74, 62
1, 574874, Control_c, 0, 64, 77
1, 574874, Control_c, 0, 67, 105
1, 574889, Control_c, 0, 67, 107
1, 574901, Note_off_c, 0, 57, 0
1, 574904, Control_c, 0, 64, 78
1, 574904, Control_c, 0, 67, 109
1, 574915, Note_on_c, 0, 57, 41
1, 574919, Control_c, 0, 64, 78
1, 574919, Control_c, 0, 67, 111
1, 574922, Note_on_c, 0, 60, 45
1, 574923, Note_on_c, 0, 62, 47
1, 574933, Control_c, 0, 64, 79
1, 574933, Control_c, 0, 67, 112
1, 574948, Control_c, 0, 67, 113
1, 574963, Control_c, 0, 67, 114
1, 574978, Control_c, 0, 64, 79
1, 574978, Control_c, 0, 67, 115
1, 574990, Note_off_c, 0, 57, 50
1, 575014, Note_off_c, 0, 86, 63
1, 575029, Control_c, 0, 67, 115
1, 575037, Note_off_c, 0, 50, 56
1, 575039, Note_off_c, 0, 62, 30
1, 575044, Control_c, 0, 67, 116
1, 575064, Note_off_c, 0, 60, 28
1, 575074, Control_c, 0, 67, 116
1, 575089, Control_c, 0, 67, 117
1, 575103, Control_c, 0, 67, 117
1, 575118, Control_c, 0, 67, 118
1, 575148, Control_c, 0, 67, 118
1, 575163, Control_c, 0, 67, 119
1, 575193, Control_c, 0, 67, 119
1, 575207, Control_c, 0, 67, 120
1, 575222, Control_c, 0, 64, 79
1, 575224, Note_on_c, 0, 98, 68
1, 575237, Control_c, 0, 64, 74
1, 575237, Control_c, 0, 67, 120
1, 575244, Note_on_c, 0, 86, 54
1, 575248, Note_on_c, 0, 50, 37
1, 575251, Control_c, 0, 64, 64
1, 575251, Control_c, 0, 67, 121
1, 575266, Control_c, 0, 64, 49
1, 575266, Control_c, 0, 67, 122
1, 575281, Control_c, 0, 64, 31
1, 575281, Control_c, 0, 67, 124
1, 575296, Control_c, 0, 64, 42
1, 575296, Control_c, 0, 67, 125
1, 575311, Control_c, 0, 64, 55
1, 575311, Control_c, 0, 67, 126
1, 575325, Control_c, 0, 64, 62
1, 575325, Control_c, 0, 67, 127
1, 575340, Control_c, 0, 64, 68
1, 575355, Control_c, 0, 64, 74
1, 575370, Control_c, 0, 64, 81
1, 575385, Control_c, 0, 64, 82
1, 575410, Note_off_c, 0, 86, 57
1, 575413, Note_off_c, 0, 98, 64
1, 575545, Note_on_c, 0, 57, 36
1, 575548, Note_on_c, 0, 60, 32
1, 575550, Note_on_c, 0, 62, 35
1, 575555, Note_on_c, 0, 54, 34
1, 575590, Note_off_c, 0, 60, 46
1, 575590, Note_off_c, 0, 62, 47
1, 575595, Note_off_c, 0, 54, 46
1, 575650, Note_off_c, 0, 57, 0
1, 575671, Note_on_c, 0, 57, 9
1, 575676, Note_on_c, 0, 60, 26
1, 575678, Note_on_c, 0, 62, 33
1, 575679, Note_on_c, 0, 54, 27
1, 575738, Note_off_c, 0, 62, 41
1, 575740, Note_off_c, 0, 57, 42
1, 575745, Note_off_c, 0, 54, 38
1, 575762, Note_off_c, 0, 50, 39
1, 575762, Note_off_c, 0, 60, 36
1, 575837, Control_c, 0, 64, 82
1, 575852, Control_c, 0, 64, 74
1, 575867, Control_c, 0, 64, 64
1, 575881, Control_c, 0, 64, 53
1, 575896, Control_c, 0, 64, 52
1, 575911, Control_c, 0, 64, 59
1, 575923, Note_on_c, 0, 96, 59
1, 575926, Control_c, 0, 64, 63
1, 575938, Note_on_c, 0, 50, 34
1, 575941, Note_on_c, 0, 84, 44
1, 575941, Control_c, 0, 64, 64
1, 575956, Control_c, 0, 64, 66
1, 575971, Control_c, 0, 64, 67
1, 575990, Note_off_c, 0, 84, 62
1, 575994, Note_off_c, 0, 50, 61
1, 576090, Note_off_c, 0, 96, 63
1, 576111, Note_on_c, 0, 95, 66
1, 576140, Note_on_c, 0, 83, 46
1, 576153, Note_on_c, 0, 55, 43
1, 576153, Note_on_c, 0, 59, 45
1, 576187, Note_off_c, 0, 83, 61
1, 576283, Control_c, 0, 64, 67
1, 576293, Note_off_c, 0, 95, 62
1, 576296, Note_off_c, 0, 59, 59
1, 576302, Note_on_c, 0, 93, 75
1, 576326, Note_on_c, 0, 57, 41
1, 576329, Note_on_c, 0, 81, 53
1, 576342, Note_off_c, 0, 55, 37
1, 576351, Note_on_c, 0, 60, 25
1, 576382, Note_off_c, 0, 81, 54
1, 576490, Control_c, 0, 64, 66
1, 576504, Control_c, 0, 64, 63
1, 576527, Control_c, 0, 64, 48
1, 576541, Note_off_c, 0, 57, 47
1, 576543, Control_c, 0, 64, 0
1, 576543, Note_off_c, 0, 60, 41
1, 576552, Note_on_c, 0, 91, 60
1, 576576, Note_on_c, 0, 62, 38
1, 576579, Note_off_c, 0, 93, 38
1, 576582, Note_on_c, 0, 59, 30
1, 576588, Note_on_c, 0, 79, 33
1, 576617, Control_c, 0, 64, 53
1, 576632, Control_c, 0, 64, 64
1, 576647, Control_c, 0, 64, 66
1, 576661, Control_c, 0, 64, 67
1, 576687, Note_off_c, 0, 79, 42
1, 576691, Control_c, 0, 64, 68
1, 576802, Note_on_c, 0, 93, 60
1, 576803, Note_off_c, 0, 59, 48
1, 576811, Note_on_c, 0, 57, 37
1, 576812, Note_off_c, 0, 62, 41
1, 576830, Note_on_c, 0, 60, 27
1, 576843, Note_on_c, 0, 81, 15
1, 576888, Note_off_c, 0, 81, 46
1, 576964, Note_off_c, 0, 57, 52
1, 576972, Control_c, 0, 64, 68
1, 576995, Note_off_c, 0, 91, 17
1, 577026, Note_on_c, 0, 95, 56
1, 577045, Note_on_c, 0, 59, 34
1, 577048, Note_on_c, 0, 83, 41
1, 577056, Note_off_c, 0, 60, 41
1, 577062, Note_on_c, 0, 55, 34
1, 577077, Note_off_c, 0, 95, 61
1, 577079, Note_off_c, 0, 93, 26
1, 577095, Note_off_c, 0, 59, 61
1, 577097, Note_off_c, 0, 83, 50
1, 577121, Note_off_c, 0, 55, 63
1, 577277, Control_c, 0, 64, 68
1, 577291, Control_c, 0, 64, 67
1, 577306, Control_c, 0, 64, 67
1, 577321, Control_c, 0, 64, 66
1, 577351, Control_c, 0, 64, 66
1, 577366, Control_c, 0, 64, 65
1, 577381, Control_c, 0, 64, 62
1, 577392, Note_on_c, 0, 83, 67
1, 577396, Control_c, 0, 64, 44
1, 577410, Control_c, 0, 64, 0
1, 577412, Note_on_c, 0, 50, 43
1, 577414, Note_on_c, 0, 71, 46
1, 577484, Control_c, 0, 64, 52
1, 577499, Control_c, 0, 64, 66
1, 577514, Control_c, 0, 64, 71
1, 577528, Control_c, 0, 64, 74
1, 577543, Control_c, 0, 64, 74
1, 577581, Note_off_c, 0, 50, 39
1, 577695, Note_on_c, 0, 55, 52
1, 577695, Note_on_c, 0, 59, 42
1, 577736, Note_off_c, 0, 55, 58
1, 577736, Control_c, 0, 64, 73
1, 577737, Note_off_c, 0, 59, 49
1, 577750, Control_c, 0, 64, 68
1, 577765, Control_c, 0, 64, 58
1, 577780, Control_c, 0, 64, 0
1, 577788, Note_on_c, 0, 59, 54
1, 577799, Note_on_c, 0, 55, 53
1, 577853, Note_off_c, 0, 55, 56
1, 577862, Note_off_c, 0, 59, 56
1, 577886, Note_off_c, 0, 71, 37
1, 578010, Note_on_c, 0, 84, 77
1, 578033, Note_on_c, 0, 72, 58
1, 578058, Note_on_c, 0, 50, 43
1, 578099, Control_c, 0, 64, 53
1, 578114, Control_c, 0, 64, 66
1, 578117, Note_off_c, 0, 50, 55
1, 578129, Control_c, 0, 64, 69
1, 578144, Control_c, 0, 64, 70
1, 578153, Note_off_c, 0, 83, 45
1, 578159, Control_c, 0, 64, 71
1, 578174, Control_c, 0, 64, 72
1, 578189, Control_c, 0, 64, 72
1, 578299, Note_on_c, 0, 60, 49
1, 578302, Note_on_c, 0, 57, 49
1, 578322, Control_c, 0, 64, 71
1, 578332, Note_off_c, 0, 60, 52
1, 578335, Note_off_c, 0, 57, 60
1, 578337, Control_c, 0, 64, 67
1, 578351, Control_c, 0, 64, 62
1, 578366, Control_c, 0, 64, 35
1, 578381, Control_c, 0, 64, 0
1, 578399, Note_on_c, 0, 60, 54
1, 578407, Note_on_c, 0, 57, 47
1, 578461, Note_off_c, 0, 57, 50
1, 578462, Note_off_c, 0, 60, 54
1, 578463, Note_off_c, 0, 72, 62
1, 578476, Note_off_c, 0, 84, 61
1, 578617, Note_on_c, 0, 85, 74
1, 578618, Control_c, 0, 64, 62
1, 578630, Note_on_c, 0, 73, 64
1, 578633, Control_c, 0, 64, 78
1, 578636, Note_on_c, 0, 50, 52
1, 578648, Control_c, 0, 64, 127
1, 578678, Note_off_c, 0, 50, 62
1, 578689, Note_off_c, 0, 73, 61
1, 578692, Control_c, 0, 67, 127
1, 578707, Control_c, 0, 67, 120
1, 578722, Control_c, 0, 67, 115
1, 578737, Control_c, 0, 67, 110
1, 578752, Control_c, 0, 67, 105
1, 578774, Control_c, 0, 67, 102
1, 578788, Control_c, 0, 67, 100
1, 578803, Control_c, 0, 67, 98
1, 578818, Control_c, 0, 67, 96
1, 578830, Note_on_c, 0, 88, 71
1, 578833, Control_c, 0, 67, 95
1, 578847, Note_on_c, 0, 76, 58
1, 578847, Control_c, 0, 67, 94
1, 578856, Note_on_c, 0, 58, 48
1, 578859, Note_on_c, 0, 61, 49
1, 578859, Note_off_c, 0, 85, 62
1, 578862, Control_c, 0, 67, 93
1, 578877, Control_c, 0, 67, 91
1, 578892, Control_c, 0, 67, 90
1, 578907, Control_c, 0, 67, 88
1, 578921, Note_off_c, 0, 76, 62
1, 578922, Control_c, 0, 64, 106
1, 578922, Control_c, 0, 67, 87
1, 578937, Control_c, 0, 64, 92
1, 578937, Control_c, 0, 67, 86
1, 578952, Control_c, 0, 64, 84
1, 578952, Control_c, 0, 67, 85
1, 578966, Control_c, 0, 64, 76
1, 578966, Control_c, 0, 67, 83
1, 578981, Control_c, 0, 64, 68
1, 578981, Control_c, 0, 67, 81
1, 578995, Note_off_c, 0, 58, 39
1, 578996, Control_c, 0, 64, 63
1, 578996, Control_c, 0, 67, 79
1, 579011, Control_c, 0, 64, 55
1, 579011, Control_c, 0, 67, 75
1, 579020, Note_off_c, 0, 88, 62
1, 579021, Note_off_c, 0, 61, 55
1, 579026, Control_c, 0, 64, 40
1, 579026, Control_c, 0, 67, 72
1, 579027, Note_on_c, 0, 86, 65
1, 579033, Note_on_c, 0, 74, 53
1, 579035, Note_on_c, 0, 59, 43
1, 579041, Control_c, 0, 64, 0
1, 579041, Control_c, 0, 67, 68
1, 579050, Note_on_c, 0, 62, 40
1, 579055, Control_c, 0, 67, 63
1, 579070, Control_c, 0, 67, 59
1, 579085, Control_c, 0, 67, 55
1, 579087, Note_off_c, 0, 74, 57
1, 579092, Note_off_c, 0, 62, 48
1, 579097, Note_off_c, 0, 86, 59
1, 579099, Control_c, 0, 67, 51
1, 579107, Note_off_c, 0, 59, 56
1, 579114, Control_c, 0, 67, 47
1, 579129, Control_c, 0, 67, 43
1, 579144, Control_c, 0, 67, 41
1, 579159, Control_c, 0, 67, 39
1, 579173, Control_c, 0, 67, 37
1, 579188, Control_c, 0, 67, 36
1, 579203, Control_c, 0, 67, 34
1, 579214, Note_on_c, 0, 86, 65
1, 579218, Note_on_c, 0, 62, 46
1, 579218, Control_c, 0, 67, 33
1, 579223, Note_on_c, 0, 74, 52
1, 579232, Note_on_c, 0, 59, 56
1, 579233, Control_c, 0, 67, 32
1, 579247, Control_c, 0, 67, 30
1, 579262, Control_c, 0, 67, 29
1, 579274, Note_off_c, 0, 74, 58
1, 579275, Note_off_c, 0, 59, 57
1, 579277, Control_c, 0, 67, 28
1, 579278, Note_off_c, 0, 86, 61
1, 579284, Note_off_c, 0, 62, 42
1, 579292, Control_c, 0, 67, 26
1, 579306, Control_c, 0, 67, 24
1, 579321, Control_c, 0, 67, 21
1, 579336, Control_c, 0, 67, 19
1, 579351, Control_c, 0, 67, 17
1, 579366, Control_c, 0, 67, 15
1, 579381, Control_c, 0, 67, 14
1, 579393, Note_on_c, 0, 62, 51
1, 579395, Note_on_c, 0, 74, 55
1, 579395, Note_on_c, 0, 86, 66
1, 579396, Control_c, 0, 67, 12
1, 579405, Note_on_c, 0, 59, 52
1, 579411, Control_c, 0, 67, 10
1, 579425, Control_c, 0, 67, 8
1, 579441, Control_c, 0, 67, 0
1, 579451, Note_off_c, 0, 62, 53
1, 579453, Note_off_c, 0, 59, 59
1, 579456, Note_off_c, 0, 74, 61
1, 579456, Note_off_c, 0, 86, 59
1, 579580, Note_on_c, 0, 74, 59
1, 579580, Note_on_c, 0, 86, 70
1, 579581, Note_on_c, 0, 62, 57
1, 579581, Note_on_c, 0, 59, 50
1, 579613, Note_off_c, 0, 59, 65
1, 579646, Note_off_c, 0, 74, 61
1, 579665, Note_off_c, 0, 62, 57
1, 579673, Note_off_c, 0, 86, 63
1, 579788, Note_on_c, 0, 88, 80
1, 579802, Note_on_c, 0, 76, 70
1, 579805, Note_on_c, 0, 50, 46
1, 579834, Control_c, 0, 64, 23
1, 579849, Control_c, 0, 64, 66
1, 579864, Control_c, 0, 64, 92
1, 579879, Control_c, 0, 64, 127
1, 579906, Note_off_c, 0, 50, 38
1, 580041, Control_c, 0, 64, 96
1, 580056, Control_c, 0, 64, 86
1, 580058, Note_on_c, 0, 64, 58
1, 580063, Note_on_c, 0, 60, 53
1, 580071, Control_c, 0, 64, 79
1, 580086, Control_c, 0, 64, 74
1, 580090, Note_off_c, 0, 64, 56
1, 580092, Note_off_c, 0, 60, 60
1, 580101, Control_c, 0, 64, 68
1, 580115, Control_c, 0, 64, 64
1, 580130, Control_c, 0, 64, 59
1, 580145, Control_c, 0, 64, 55
1, 580155, Note_on_c, 0, 64, 56
1, 580159, Note_on_c, 0, 60, 55
1, 580160, Control_c, 0, 64, 53
1, 580165, Note_off_c, 0, 76, 63
1, 580175, Control_c, 0, 64, 52
1, 580189, Control_c, 0, 64, 49
1, 580192, Note_off_c, 0, 88, 58
1, 580200, Note_off_c, 0, 60, 57
1, 580204, Control_c, 0, 64, 44
1, 580215, Note_off_c, 0, 64, 49
1, 580219, Control_c, 0, 64, 29
1, 580234, Control_c, 0, 64, 0
1, 580350, Note_on_c, 0, 90, 84
1, 580356, Note_on_c, 0, 78, 78
1, 580376, Note_on_c, 0, 50, 54
1, 580391, Control_c, 0, 64, 47
1, 580406, Control_c, 0, 64, 72
1, 580420, Control_c, 0, 64, 96
1, 580424, Note_off_c, 0, 50, 64
1, 580435, Control_c, 0, 64, 127
1, 580608, Note_on_c, 0, 66, 65
1, 580616, Note_on_c, 0, 57, 58
1, 580640, Note_off_c, 0, 66, 63
1, 580651, Note_off_c, 0, 57, 62
1, 580657, Control_c, 0, 64, 95
1, 580672, Control_c, 0, 64, 76
1, 580687, Control_c, 0, 64, 63
1, 580702, Control_c, 0, 64, 0
1, 580711, Note_on_c, 0, 66, 71
1, 580712, Note_on_c, 0, 57, 67
1, 580754, Note_off_c, 0, 66, 62
1, 580762, Note_off_c, 0, 57, 61
1, 580803, Note_off_c, 0, 78, 58
1, 580815, Note_off_c, 0, 90, 59
1, 580937, Note_on_c, 0, 90, 84
1, 580949, Note_on_c, 0, 78, 76
1, 580968, Control_c, 0, 64, 45
1, 580975, Note_on_c, 0, 50, 55
1, 580983, Control_c, 0, 64, 68
1, 580998, Control_c, 0, 64, 90
1, 581020, Control_c, 0, 64, 127
1, 581044, Note_off_c, 0, 78, 62
1, 581047, Note_off_c, 0, 50, 62
1, 581183, Note_on_c, 0, 93, 76
1, 581198, Note_on_c, 0, 81, 64
1, 581209, Note_on_c, 0, 57, 47
1, 581212, Note_on_c, 0, 66, 50
1, 581268, Note_off_c, 0, 90, 49
1, 581280, Note_off_c, 0, 81, 59
1, 581288, Control_c, 0, 64, 106
1, 581302, Control_c, 0, 64, 92
1, 581317, Control_c, 0, 64, 82
1, 581332, Control_c, 0, 64, 73
1, 581347, Control_c, 0, 64, 65
1, 581352, Note_off_c, 0, 57, 38
1, 581362, Control_c, 0, 64, 54
1, 581376, Control_c, 0, 64, 38
1, 581380, Note_on_c, 0, 91, 73
1, 581387, Note_on_c, 0, 79, 59
1, 581391, Control_c, 0, 64, 0
1, 581393, Note_on_c, 0, 67, 49
1, 581396, Note_off_c, 0, 93, 59
1, 581407, Note_on_c, 0, 59, 42
1, 581435, Note_off_c, 0, 66, 41
1, 581455, Note_off_c, 0, 79, 59
1, 581459, Note_off_c, 0, 91, 58
1, 581459, Note_off_c, 0, 59, 59
1, 581466, Note_off_c, 0, 67, 51
1, 581569, Note_on_c, 0, 91, 76
1, 581582, Note_on_c, 0, 79, 59
1, 581584, Note_on_c, 0, 67, 55
1, 581588, Note_on_c, 0, 59, 45
1, 581643, Note_off_c, 0, 59, 59
1, 581643, Note_off_c, 0, 79, 59
1, 581644, Note_off_c, 0, 91, 58
1, 581647, Note_off_c, 0, 67, 51
1, 581743, Note_on_c, 0, 91, 78
1, 581746, Note_on_c, 0, 67, 52
1, 581756, Note_on_c, 0, 59, 49
1, 581756, Note_on_c, 0, 79, 66
1, 581816, Note_off_c, 0, 59, 56
1, 581817, Note_off_c, 0, 67, 56
1, 581822, Note_off_c, 0, 79, 60
1, 581822, Note_off_c, 0, 91, 58
1, 581916, Note_on_c, 0, 91, 82
1, 581926, Note_on_c, 0, 79, 71
1, 581927, Note_on_c, 0, 67, 63
1, 581933, Note_on_c, 0, 59, 59
1, 581968, Note_off_c, 0, 59, 64
1, 581986, Note_off_c, 0, 67, 57
1, 581991, Note_off_c, 0, 79, 58
1, 582008, Poly_aftertouch_c, 0, 90, 0
1, 582025, Note_off_c, 0, 91, 56
1, 582112, Note_on_c, 0, 93, 91
1, 582119, Note_on_c, 0, 81, 81
1, 582140, Control_c, 0, 64, 65
1, 582146, Note_on_c, 0, 50, 54
1, 582155, Control_c, 0, 64, 110
1, 582170, Control_c, 0, 64, 127
1, 582195, Note_off_c, 0, 50, 63
1, 582273, Control_c, 0, 64, 95
1, 582288, Control_c, 0, 64, 82
1, 582303, Control_c, 0, 64, 73
1, 582317, Control_c, 0, 64, 66
1, 582332, Control_c, 0, 64, 62
1, 582347, Control_c, 0, 64, 59
1, 582362, Control_c, 0, 64, 59
1, 582377, Control_c, 0, 64, 58
1, 582388, Note_on_c, 0, 69, 62
1, 582389, Note_on_c, 0, 60, 61
1, 582392, Control_c, 0, 64, 56
1, 582407, Control_c, 0, 64, 53
1, 582422, Control_c, 0, 64, 45
1, 582423, Note_off_c, 0, 69, 63
1, 582425, Note_off_c, 0, 60, 60
1, 582436, Control_c, 0, 64, 36
1, 582451, Control_c, 0, 64, 32
1, 582466, Control_c, 0, 64, 32
1, 582481, Control_c, 0, 64, 28
1, 582483, Note_on_c, 0, 69, 68
1, 582492, Note_on_c, 0, 60, 63
1, 582496, Control_c, 0, 64, 10
1, 582517, Control_c, 0, 64, 0
1, 582523, Note_off_c, 0, 81, 34
1, 582544, Note_off_c, 0, 69, 65
1, 582552, Note_off_c, 0, 60, 63
1, 582717, Note_on_c, 0, 95, 82
1, 582730, Note_off_c, 0, 93, 60
1, 582735, Note_on_c, 0, 83, 65
1, 582771, Note_on_c, 0, 50, 49
1, 582785, Control_c, 0, 64, 42
1, 582800, Control_c, 0, 64, 69
1, 582814, Control_c, 0, 64, 85
1, 582826, Note_off_c, 0, 50, 63
1, 582829, Control_c, 0, 64, 102
1, 582844, Control_c, 0, 64, 106
1, 582858, Control_c, 0, 64, 109
1, 582962, Control_c, 0, 64, 108
1, 582977, Control_c, 0, 64, 107
1, 582992, Control_c, 0, 64, 106
1, 583001, Note_off_c, 0, 95, 62
1, 583007, Control_c, 0, 64, 103
1, 583021, Control_c, 0, 64, 98
1, 583026, Note_on_c, 0, 71, 54
1, 583036, Control_c, 0, 64, 94
1, 583045, Note_on_c, 0, 62, 38
1, 583051, Control_c, 0, 64, 90
1, 583053, Note_off_c, 0, 83, 59
1, 583054, Note_off_c, 0, 71, 56
1, 583065, Control_c, 0, 64, 87
1, 583079, Note_off_c, 0, 62, 49
1, 583080, Control_c, 0, 64, 83
1, 583095, Control_c, 0, 64, 81
1, 583110, Control_c, 0, 64, 79
1, 583125, Control_c, 0, 64, 78
1, 583128, Note_on_c, 0, 62, 51
1, 583130, Note_on_c, 0, 71, 61
1, 583140, Control_c, 0, 64, 77
1, 583155, Control_c, 0, 64, 76
1, 583157, Note_off_c, 0, 71, 67
1, 583161, Note_off_c, 0, 62, 63
1, 583170, Control_c, 0, 64, 74
1, 583185, Control_c, 0, 64, 72
1, 583200, Control_c, 0, 64, 70
1, 583214, Control_c, 0, 64, 68
1, 583229, Control_c, 0, 64, 66
1, 583244, Control_c, 0, 64, 63
1, 583265, Control_c, 0, 64, 58
1, 583281, Control_c, 0, 64, 0
1, 583354, Note_on_c, 0, 90, 75
1, 583366, Note_on_c, 0, 78, 55
1, 583385, Control_c, 0, 64, 55
1, 583391, Note_on_c, 0, 50, 52
1, 583399, Control_c, 0, 64, 70
1, 583414, Control_c, 0, 64, 83
1, 583429, Control_c, 0, 64, 94
1, 583432, Note_off_c, 0, 50, 63
1, 583445, Note_off_c, 0, 78, 63
1, 583445, Control_c, 0, 64, 98
1, 583460, Control_c, 0, 64, 106
1, 583475, Control_c, 0, 64, 113
1, 583489, Control_c, 0, 64, 114
1, 583534, Control_c, 0, 64, 113
1, 583563, Control_c, 0, 64, 111
1, 583578, Control_c, 0, 64, 106
1, 583581, Note_on_c, 0, 93, 75
1, 583593, Note_on_c, 0, 81, 61
1, 583593, Control_c, 0, 64, 100
1, 583605, Note_on_c, 0, 66, 51
1, 583608, Note_on_c, 0, 57, 51
1, 583608, Control_c, 0, 64, 93
1, 583623, Control_c, 0, 64, 87
1, 583638, Control_c, 0, 64, 81
1, 583653, Control_c, 0, 64, 76
1, 583668, Control_c, 0, 64, 73
1, 583682, Note_off_c, 0, 81, 60
1, 583682, Control_c, 0, 64, 69
1, 583683, Note_off_c, 0, 90, 31
1, 583697, Control_c, 0, 64, 65
1, 583712, Control_c, 0, 64, 62
1, 583727, Control_c, 0, 64, 57
1, 583729, Note_off_c, 0, 57, 50
1, 583742, Control_c, 0, 64, 52
1, 583757, Control_c, 0, 64, 45
1, 583771, Control_c, 0, 64, 36
1, 583778, Note_on_c, 0, 91, 71
1, 583786, Control_c, 0, 64, 20
1, 583788, Note_on_c, 0, 79, 59
1, 583793, Note_on_c, 0, 67, 48
1, 583793, Note_off_c, 0, 66, 37
1, 583799, Note_on_c, 0, 59, 47
1, 583801, Control_c, 0, 64, 0
1, 583802, Note_off_c, 0, 93, 59
1, 583848, Note_off_c, 0, 79, 57
1, 583857, Note_off_c, 0, 67, 51
1, 583859, Note_off_c, 0, 59, 53
1, 583859, Note_off_c, 0, 91, 57
1, 583973, Note_on_c, 0, 91, 71
1, 583982, Note_on_c, 0, 79, 55
1, 583983, Note_on_c, 0, 67, 47
1, 583993, Note_on_c, 0, 59, 45
1, 584043, Note_off_c, 0, 79, 57
1, 584048, Note_off_c, 0, 59, 59
1, 584049, Note_off_c, 0, 91, 58
1, 584053, Note_off_c, 0, 67, 51
1, 584174, Note_on_c, 0, 91, 63
1, 584181, Note_on_c, 0, 67, 48
1, 584183, Note_on_c, 0, 79, 52
1, 584184, Note_on_c, 0, 59, 36
1, 584225, Note_off_c, 0, 79, 55
1, 584241, Note_off_c, 0, 67, 54
1, 584241, Note_off_c, 0, 91, 59
1, 584242, Note_off_c, 0, 59, 58
1, 584366, Note_on_c, 0, 91, 66
1, 584380, Note_on_c, 0, 67, 48
1, 584389, Note_on_c, 0, 79, 31
1, 584390, Note_on_c, 0, 59, 26
1, 584425, Note_off_c, 0, 79, 45
1, 584426, Note_off_c, 0, 59, 52
1, 584429, Note_off_c, 0, 91, 60
1, 584464, Note_off_c, 0, 67, 37
1, 584623, Control_c, 0, 67, 11
1, 584637, Control_c, 0, 67, 19
1, 584652, Control_c, 0, 67, 25
1, 584660, Note_on_c, 0, 100, 72
1, 584667, Control_c, 0, 67, 31
1, 584682, Control_c, 0, 67, 36
1, 584697, Control_c, 0, 64, 26
1, 584697, Control_c, 0, 67, 40
1, 584702, Note_on_c, 0, 50, 36
1, 584711, Control_c, 0, 64, 62
1, 584711, Control_c, 0, 67, 44
1, 584726, Control_c, 0, 64, 70
1, 584726, Control_c, 0, 67, 48
1, 584741, Control_c, 0, 64, 78
1, 584741, Control_c, 0, 67, 54
1, 584764, Control_c, 0, 64, 83
1, 584764, Control_c, 0, 67, 61
1, 584773, Note_off_c, 0, 50, 61
1, 584778, Control_c, 0, 64, 84
1, 584778, Control_c, 0, 67, 66
1, 584792, Control_c, 0, 67, 70
1, 584807, Control_c, 0, 67, 73
1, 584822, Control_c, 0, 67, 75
1, 584836, Control_c, 0, 67, 77
1, 584851, Control_c, 0, 67, 79
1, 584866, Control_c, 0, 67, 80
1, 584881, Control_c, 0, 67, 82
1, 584896, Control_c, 0, 64, 83
1, 584896, Control_c, 0, 67, 83
1, 584911, Control_c, 0, 64, 82
1, 584911, Control_c, 0, 67, 84
1, 584926, Control_c, 0, 64, 81
1, 584926, Control_c, 0, 67, 85
1, 584940, Control_c, 0, 64, 79
1, 584940, Control_c, 0, 67, 86
1, 584955, Control_c, 0, 64, 78
1, 584955, Control_c, 0, 67, 87
1, 584970, Control_c, 0, 64, 76
1, 584970, Control_c, 0, 67, 88
1, 584985, Control_c, 0, 64, 74
1, 584985, Control_c, 0, 67, 89
1, 585000, Note_on_c, 0, 60, 51
1, 585000, Control_c, 0, 64, 72
1, 585000, Control_c, 0, 67, 90
1, 585002, Note_on_c, 0, 69, 44
1, 585015, Control_c, 0, 64, 70
1, 585015, Control_c, 0, 67, 91
1, 585030, Control_c, 0, 64, 69
1, 585030, Control_c, 0, 67, 92
1, 585032, Note_off_c, 0, 69, 55
1, 585040, Note_off_c, 0, 60, 60
1, 585045, Control_c, 0, 64, 68
1, 585045, Control_c, 0, 67, 93
1, 585060, Control_c, 0, 64, 68
1, 585060, Control_c, 0, 67, 94
1, 585075, Control_c, 0, 64, 66
1, 585075, Control_c, 0, 67, 95
1, 585089, Control_c, 0, 64, 65
1, 585089, Control_c, 0, 67, 95
1, 585094, Note_off_c, 0, 100, 63
1, 585104, Control_c, 0, 64, 63
1, 585104, Control_c, 0, 67, 96
1, 585119, Control_c, 0, 64, 61
1, 585119, Control_c, 0, 67, 98
1, 585123, Note_on_c, 0, 88, 71
1, 585126, Note_on_c, 0, 69, 55
1, 585134, Control_c, 0, 64, 59
1, 585134, Control_c, 0, 67, 99
1, 585137, Note_on_c, 0, 60, 50
1, 585149, Control_c, 0, 64, 57
1, 585149, Control_c, 0, 67, 101
1, 585153, Note_off_c, 0, 69, 68
1, 585161, Note_off_c, 0, 60, 61
1, 585164, Control_c, 0, 64, 54
1, 585164, Control_c, 0, 67, 103
1, 585179, Control_c, 0, 64, 51
1, 585179, Control_c, 0, 67, 105
1, 585194, Control_c, 0, 64, 49
1, 585194, Control_c, 0, 67, 107
1, 585208, Control_c, 0, 64, 47
1, 585208, Control_c, 0, 67, 110
1, 585223, Control_c, 0, 64, 43
1, 585223, Control_c, 0, 67, 114
1, 585238, Control_c, 0, 64, 34
1, 585238, Control_c, 0, 67, 117
1, 585253, Control_c, 0, 64, 0
1, 585253, Control_c, 0, 67, 121
1, 585267, Control_c, 0, 67, 126
1, 585282, Control_c, 0, 67, 127
1, 585361, Note_off_c, 0, 88, 56
1, 585379, Note_on_c, 0, 90, 67
1, 585386, Control_c, 0, 64, 59
1, 585400, Control_c, 0, 64, 67
1, 585403, Note_on_c, 0, 50, 43
1, 585415, Control_c, 0, 64, 70
1, 585430, Control_c, 0, 64, 73
1, 585433, Note_off_c, 0, 50, 59
1, 585445, Control_c, 0, 64, 74
1, 585459, Control_c, 0, 64, 74
1, 585474, Control_c, 0, 64, 75
1, 585475, Note_off_c, 0, 90, 62
1, 585529, Note_on_c, 0, 91, 49
1, 585554, Note_off_c, 0, 91, 52
1, 585584, Note_on_c, 0, 90, 55
1, 585605, Note_off_c, 0, 90, 59
1, 585628, Note_on_c, 0, 91, 57
1, 585665, Note_off_c, 0, 91, 47
1, 585665, Note_on_c, 0, 71, 55
1, 585670, Note_on_c, 0, 90, 66
1, 585675, Note_on_c, 0, 62, 52
1, 585686, Note_off_c, 0, 90, 66
1, 585691, Note_off_c, 0, 71, 59
1, 585709, Note_off_c, 0, 62, 49
1, 585751, Note_on_c, 0, 90, 78
1, 585764, Note_on_c, 0, 71, 63
1, 585768, Note_on_c, 0, 62, 45
1, 585792, Note_off_c, 0, 90, 55
1, 585794, Note_off_c, 0, 71, 62
1, 585799, Note_off_c, 0, 62, 61
1, 585802, Note_on_c, 0, 91, 43
1, 585853, Note_off_c, 0, 91, 59
1, 585873, Note_on_c, 0, 88, 65
1, 585882, Control_c, 0, 64, 74
1, 585897, Control_c, 0, 64, 74
1, 585912, Control_c, 0, 64, 73
1, 585913, Poly_aftertouch_c, 0, 90, 0
1, 585927, Control_c, 0, 64, 72
1, 585942, Control_c, 0, 64, 70
1, 585957, Control_c, 0, 64, 67
1, 585972, Control_c, 0, 64, 65
1, 585987, Control_c, 0, 64, 61
1, 586002, Control_c, 0, 64, 45
1, 586017, Control_c, 0, 64, 0
1, 586043, Note_on_c, 0, 90, 58
1, 586056, Note_on_c, 0, 55, 29
1, 586090, Control_c, 0, 64, 12
1, 586105, Control_c, 0, 64, 63
1, 586120, Control_c, 0, 64, 78
1, 586130, Note_off_c, 0, 55, 62
1, 586135, Control_c, 0, 64, 106
1, 586150, Control_c, 0, 64, 127
1, 586160, Note_off_c, 0, 88, 37
1, 586291, Control_c, 0, 64, 113
1, 586306, Control_c, 0, 64, 100
1, 586321, Note_on_c, 0, 93, 59
1, 586321, Control_c, 0, 64, 93
1, 586332, Note_on_c, 0, 69, 42
1, 586335, Control_c, 0, 64, 87
1, 586347, Note_on_c, 0, 60, 30
1, 586350, Control_c, 0, 64, 82
1, 586365, Control_c, 0, 64, 77
1, 586374, Note_off_c, 0, 90, 53
1, 586380, Control_c, 0, 64, 72
1, 586395, Control_c, 0, 64, 69
1, 586409, Control_c, 0, 64, 67
1, 586424, Control_c, 0, 64, 65
1, 586439, Control_c, 0, 64, 63
1, 586454, Control_c, 0, 64, 61
1, 586469, Control_c, 0, 64, 59
1, 586483, Control_c, 0, 64, 57
1, 586493, Note_off_c, 0, 60, 35
1, 586498, Control_c, 0, 64, 55
1, 586500, Note_off_c, 0, 69, 62
1, 586513, Control_c, 0, 64, 53
1, 586528, Control_c, 0, 64, 47
1, 586536, Note_on_c, 0, 91, 56
1, 586543, Control_c, 0, 64, 40
1, 586545, Note_on_c, 0, 67, 44
1, 586557, Note_on_c, 0, 59, 36
1, 586557, Control_c, 0, 64, 19
1, 586572, Control_c, 0, 64, 0
1, 586607, Note_off_c, 0, 93, 52
1, 586647, Note_off_c, 0, 91, 51
1, 586721, Control_c, 0, 64, 56
1, 586722, Note_off_c, 0, 67, 0
1, 586729, Note_off_c, 0, 59, 0
1, 586736, Note_on_c, 0, 91, 48
1, 586736, Control_c, 0, 64, 63
1, 586740, Note_on_c, 0, 67, 27
1, 586747, Note_on_c, 0, 59, 28
1, 586751, Control_c, 0, 64, 65
1, 586766, Control_c, 0, 64, 65
1, 586780, Control_c, 0, 64, 67
1, 586795, Control_c, 0, 64, 70
1, 586810, Control_c, 0, 64, 76
1, 586825, Control_c, 0, 64, 78
1, 586832, Note_off_c, 0, 91, 51
1, 586839, Control_c, 0, 64, 79
1, 586854, Control_c, 0, 64, 81
1, 586869, Control_c, 0, 64, 83
1, 586884, Control_c, 0, 64, 85
1, 586899, Control_c, 0, 64, 89
1, 586914, Control_c, 0, 64, 92
1, 586920, Note_off_c, 0, 67, 0
1, 586923, Note_off_c, 0, 59, 0
1, 586929, Control_c, 0, 64, 93
1, 586941, Note_on_c, 0, 67, 22
1, 586944, Control_c, 0, 64, 94
1, 586946, Note_on_c, 0, 59, 12
1, 586953, Note_on_c, 0, 91, 48
1, 586958, Control_c, 0, 64, 95
1, 586973, Control_c, 0, 64, 95
1, 586988, Control_c, 0, 64, 96
1, 587010, Control_c, 0, 64, 97
1, 587025, Control_c, 0, 64, 98
1, 587030, Note_off_c, 0, 91, 52
1, 587039, Control_c, 0, 64, 99
1, 587054, Control_c, 0, 64, 100
1, 587067, Note_off_c, 0, 67, 37
1, 587069, Note_off_c, 0, 59, 39
1, 587069, Control_c, 0, 64, 102
1, 587084, Control_c, 0, 64, 104
1, 587099, Control_c, 0, 64, 106
1, 587113, Control_c, 0, 64, 107
1, 587128, Control_c, 0, 64, 108
1, 587143, Control_c, 0, 64, 109
1, 587158, Control_c, 0, 64, 110
1, 587172, Note_on_c, 0, 91, 49
1, 587183, Note_on_c, 0, 67, 36
1, 587184, Note_on_c, 0, 59, 38
1, 587188, Control_c, 0, 64, 110
1, 587227, Note_off_c, 0, 67, 50
1, 587232, Control_c, 0, 64, 111
1, 587235, Note_off_c, 0, 91, 55
1, 587268, Note_off_c, 0, 59, 62
1, 587455, Control_c, 0, 64, 110
1, 587500, Control_c, 0, 64, 109
1, 587515, Control_c, 0, 64, 107
1, 587529, Control_c, 0, 64, 105
1, 587544, Control_c, 0, 64, 102
1, 587549, Note_on_c, 0, 50, 35
1, 587559, Control_c, 0, 64, 99
1, 587574, Control_c, 0, 64, 97
1, 587589, Control_c, 0, 64, 95
1, 587603, Control_c, 0, 64, 93
1, 587618, Control_c, 0, 64, 91
1, 587633, Control_c, 0, 64, 89
1, 587644, Note_on_c, 0, 66, 54
1, 587648, Control_c, 0, 64, 86
1, 587662, Control_c, 0, 64, 80
1, 587677, Control_c, 0, 64, 68
1, 587692, Control_c, 0, 64, 56
1, 587707, Control_c, 0, 64, 0
1, 587759, Control_c, 0, 64, 32
1, 587774, Control_c, 0, 64, 53
1, 587789, Control_c, 0, 64, 61
1, 587804, Control_c, 0, 64, 65
1, 587818, Control_c, 0, 64, 68
1, 587833, Control_c, 0, 64, 71
1, 587835, Note_on_c, 0, 74, 44
1, 587848, Control_c, 0, 64, 73
1, 587862, Control_c, 0, 64, 75
1, 587877, Control_c, 0, 64, 75
1, 587892, Control_c, 0, 64, 76
1, 587907, Note_off_c, 0, 74, 62
1, 587947, Note_on_c, 0, 73, 46
1, 587951, Note_on_c, 0, 60, 34
1, 587957, Note_on_c, 0, 57, 24
1, 587990, Note_off_c, 0, 66, 36
1, 588041, Note_on_c, 0, 74, 44
1, 588110, Note_off_c, 0, 74, 62
1, 588121, Note_on_c, 0, 66, 56
1, 588148, Note_off_c, 0, 57, 40
1, 588177, Note_off_c, 0, 73, 16
1, 588181, Note_off_c, 0, 50, 54
1, 588231, Note_on_c, 0, 74, 43
1, 588246, Note_off_c, 0, 60, 27
1, 588260, Note_off_c, 0, 66, 34
1, 588338, Control_c, 0, 64, 75
1, 588348, Note_off_c, 0, 74, 58
1, 588351, Note_on_c, 0, 50, 29
1, 588367, Control_c, 0, 64, 75
1, 588382, Control_c, 0, 64, 74
1, 588383, Note_on_c, 0, 64, 54
1, 588396, Control_c, 0, 64, 74
1, 588411, Control_c, 0, 64, 71
1, 588426, Control_c, 0, 64, 66
1, 588441, Control_c, 0, 64, 47
1, 588456, Control_c, 0, 64, 0
1, 588538, Control_c, 0, 64, 50
1, 588551, Note_on_c, 0, 74, 32
1, 588553, Control_c, 0, 64, 60
1, 588567, Control_c, 0, 64, 63
1, 588582, Control_c, 0, 64, 64
1, 588597, Control_c, 0, 64, 64
1, 588604, Note_off_c, 0, 74, 60
1, 588611, Control_c, 0, 64, 66
1, 588626, Control_c, 0, 64, 67
1, 588633, Note_on_c, 0, 59, 21
1, 588641, Note_on_c, 0, 55, 22
1, 588641, Note_on_c, 0, 73, 48
1, 588641, Control_c, 0, 64, 69
1, 588654, Note_off_c, 0, 64, 34
1, 588656, Control_c, 0, 64, 70
1, 588671, Control_c, 0, 64, 71
1, 588685, Control_c, 0, 64, 72
1, 588700, Control_c, 0, 64, 73
1, 588715, Control_c, 0, 64, 74
1, 588729, Note_on_c, 0, 74, 45
1, 588730, Control_c, 0, 64, 75
1, 588745, Control_c, 0, 64, 76
1, 588759, Control_c, 0, 64, 77
1, 588783, Note_off_c, 0, 73, 29
1, 588783, Note_off_c, 0, 74, 58
1, 588816, Note_on_c, 0, 64, 46
1, 588869, Note_off_c, 0, 50, 46
1, 588884, Note_off_c, 0, 64, 55
1, 588892, Note_off_c, 0, 59, 42
1, 588908, Note_on_c, 0, 74, 42
1, 588917, Note_off_c, 0, 55, 42
1, 588956, Note_off_c, 0, 74, 59
1, 589007, Note_on_c, 0, 62, 49
1, 589011, Note_on_c, 0, 50, 48
1, 589011, Control_c, 0, 64, 76
1, 589027, Control_c, 0, 64, 74
1, 589042, Control_c, 0, 64, 72
1, 589054, Note_off_c, 0, 50, 59
1, 589057, Control_c, 0, 64, 69
1, 589072, Control_c, 0, 64, 66
1, 589087, Control_c, 0, 64, 65
1, 589090, Note_off_c, 0, 62, 51
1, 589101, Control_c, 0, 64, 64
1, 589104, Note_on_c, 0, 64, 53
1, 589116, Control_c, 0, 64, 63
1, 589146, Control_c, 0, 64, 62
1, 589161, Control_c, 0, 64, 60
1, 589175, Control_c, 0, 64, 57
1, 589176, Note_off_c, 0, 64, 56
1, 589188, Note_on_c, 0, 66, 61
1, 589190, Control_c, 0, 64, 55
1, 589205, Control_c, 0, 64, 54
1, 589207, Note_on_c, 0, 54, 43
1, 589212, Note_on_c, 0, 57, 42
1, 589215, Note_on_c, 0, 50, 42
1, 589220, Control_c, 0, 64, 53
1, 589234, Control_c, 0, 64, 52
1, 589257, Control_c, 0, 64, 49
1, 589262, Note_off_c, 0, 54, 56
1, 589266, Note_off_c, 0, 57, 48
1, 589266, Note_off_c, 0, 66, 65
1, 589270, Note_off_c, 0, 50, 57
1, 589271, Control_c, 0, 64, 47
1, 589286, Control_c, 0, 64, 46
1, 589292, Note_on_c, 0, 67, 63
1, 589300, Control_c, 0, 64, 45
1, 589315, Control_c, 0, 64, 45
1, 589330, Control_c, 0, 64, 43
1, 589345, Control_c, 0, 64, 40
1, 589360, Control_c, 0, 64, 36
1, 589375, Control_c, 0, 64, 34
1, 589380, Note_on_c, 0, 69, 64
1, 589380, Note_off_c, 0, 67, 54
1, 589401, Note_on_c, 0, 52, 36
1, 589404, Control_c, 0, 64, 33
1, 589406, Note_on_c, 0, 50, 37
1, 589415, Note_on_c, 0, 55, 11
1, 589419, Control_c, 0, 64, 28
1, 589433, Control_c, 0, 64, 23
1, 589444, Note_off_c, 0, 50, 50
1, 589447, Note_off_c, 0, 52, 49
1, 589448, Control_c, 0, 64, 18
1, 589463, Note_off_c, 0, 55, 50
1, 589463, Control_c, 0, 64, 15
1, 589473, Note_off_c, 0, 69, 59
1, 589477, Note_on_c, 0, 67, 64
1, 589478, Control_c, 0, 64, 12
1, 589493, Control_c, 0, 64, 0
1, 589552, Note_off_c, 0, 67, 57
1, 589569, Note_on_c, 0, 66, 63
1, 589576, Note_on_c, 0, 54, 46
1, 589588, Note_on_c, 0, 50, 41
1, 589595, Note_on_c, 0, 57, 41
1, 589626, Note_off_c, 0, 54, 55
1, 589626, Note_off_c, 0, 57, 57
1, 589630, Note_off_c, 0, 66, 65
1, 589635, Note_off_c, 0, 50, 59
1, 589664, Note_on_c, 0, 67, 59
1, 589748, Note_off_c, 0, 67, 59
1, 589755, Note_on_c, 0, 69, 60
1, 589769, Note_on_c, 0, 55, 38
1, 589776, Note_on_c, 0, 50, 42
1, 589778, Note_on_c, 0, 59, 46
1, 589816, Note_off_c, 0, 59, 63
1, 589818, Note_off_c, 0, 50, 59
1, 589826, Note_off_c, 0, 55, 59
1, 589838, Note_off_c, 0, 69, 64
1, 589849, Note_on_c, 0, 71, 60
1, 589901, Note_off_c, 0, 71, 61
1, 589944, Note_on_c, 0, 72, 56
1, 589960, Note_on_c, 0, 57, 37
1, 589960, Note_on_c, 0, 60, 46
1, 589965, Note_on_c, 0, 50, 38
1, 590008, Note_off_c, 0, 72, 51
1, 590012, Note_off_c, 0, 50, 53
1, 590012, Note_off_c, 0, 60, 61
1, 590023, Note_off_c, 0, 57, 44
1, 590041, Note_on_c, 0, 74, 60
1, 590136, Note_off_c, 0, 74, 64
1, 590145, Note_on_c, 0, 71, 63
1, 590152, Note_on_c, 0, 50, 39
1, 590198, Control_c, 0, 64, 40
1, 590213, Control_c, 0, 64, 50
1, 590228, Control_c, 0, 64, 53
1, 590243, Control_c, 0, 64, 55
1, 590244, Note_on_c, 0, 79, 61
1, 590257, Control_c, 0, 64, 59
1, 590272, Control_c, 0, 64, 61
1, 590287, Control_c, 0, 64, 63
1, 590302, Control_c, 0, 64, 64
1, 590317, Control_c, 0, 64, 64
1, 590323, Note_off_c, 0, 79, 61
1, 590331, Control_c, 0, 64, 65
1, 590333, Note_on_c, 0, 78, 64
1, 590346, Control_c, 0, 64, 65
1, 590367, Note_on_c, 0, 55, 41
1, 590370, Note_on_c, 0, 59, 43
1, 590371, Note_off_c, 0, 71, 57
1, 590375, Control_c, 0, 64, 66
1, 590405, Control_c, 0, 64, 66
1, 590433, Note_on_c, 0, 79, 62
1, 590435, Control_c, 0, 64, 67
1, 590494, Note_off_c, 0, 79, 61
1, 590506, Note_on_c, 0, 71, 68
1, 590522, Note_off_c, 0, 78, 34
1, 590547, Note_off_c, 0, 50, 55
1, 590594, Note_off_c, 0, 59, 37
1, 590594, Note_off_c, 0, 71, 59
1, 590596, Note_on_c, 0, 79, 67
1, 590603, Note_off_c, 0, 55, 37
1, 590681, Note_off_c, 0, 79, 61
1, 590694, Note_on_c, 0, 50, 46
1, 590705, Note_on_c, 0, 72, 70
1, 590717, Control_c, 0, 64, 65
1, 590732, Control_c, 0, 64, 58
1, 590754, Control_c, 0, 64, 30
1, 590769, Control_c, 0, 64, 0
1, 590816, Note_on_c, 0, 79, 57
1, 590828, Control_c, 0, 64, 40
1, 590843, Control_c, 0, 64, 54
1, 590858, Control_c, 0, 64, 60
1, 590873, Control_c, 0, 64, 62
1, 590887, Control_c, 0, 64, 63
1, 590893, Note_off_c, 0, 79, 61
1, 590902, Control_c, 0, 64, 63
1, 590904, Note_on_c, 0, 60, 42
1, 590911, Note_on_c, 0, 78, 59
1, 590911, Note_on_c, 0, 57, 41
1, 590915, Note_off_c, 0, 72, 35
1, 590917, Control_c, 0, 64, 64
1, 590932, Control_c, 0, 64, 65
1, 590947, Control_c, 0, 64, 66
1, 590962, Control_c, 0, 64, 67
1, 590977, Control_c, 0, 64, 68
1, 590992, Control_c, 0, 64, 69
1, 591004, Note_on_c, 0, 79, 60
1, 591006, Control_c, 0, 64, 70
1, 591021, Control_c, 0, 64, 72
1, 591036, Control_c, 0, 64, 73
1, 591051, Control_c, 0, 64, 73
1, 591051, Note_off_c, 0, 79, 59
1, 591066, Control_c, 0, 64, 74
1, 591077, Note_on_c, 0, 72, 62
1, 591080, Control_c, 0, 64, 76
1, 591095, Control_c, 0, 64, 77
1, 591098, Note_off_c, 0, 50, 55
1, 591110, Control_c, 0, 64, 78
1, 591125, Control_c, 0, 64, 79
1, 591139, Note_off_c, 0, 72, 56
1, 591140, Control_c, 0, 64, 80
1, 591154, Control_c, 0, 64, 81
1, 591167, Note_on_c, 0, 79, 60
1, 591184, Control_c, 0, 64, 77
1, 591198, Note_off_c, 0, 78, 23
1, 591198, Control_c, 0, 64, 68
1, 591204, Note_off_c, 0, 60, 35
1, 591213, Control_c, 0, 64, 54
1, 591228, Control_c, 0, 64, 44
1, 591235, Note_off_c, 0, 79, 55
1, 591243, Control_c, 0, 64, 54
1, 591253, Note_off_c, 0, 57, 29
1, 591254, Note_on_c, 0, 74, 60
1, 591258, Control_c, 0, 64, 60
1, 591263, Note_on_c, 0, 50, 54
1, 591272, Control_c, 0, 64, 63
1, 591287, Control_c, 0, 64, 65
1, 591302, Control_c, 0, 64, 67
1, 591305, Note_off_c, 0, 50, 62
1, 591317, Control_c, 0, 64, 68
1, 591343, Note_on_c, 0, 76, 61
1, 591376, Control_c, 0, 64, 67
1, 591382, Note_off_c, 0, 74, 39
1, 591391, Control_c, 0, 64, 67
1, 591406, Control_c, 0, 64, 66
1, 591421, Control_c, 0, 64, 66
1, 591436, Control_c, 0, 64, 65
1, 591442, Note_on_c, 0, 78, 68
1, 591446, Note_on_c, 0, 59, 56
1, 591451, Control_c, 0, 64, 65
1, 591457, Note_on_c, 0, 62, 51
1, 591466, Control_c, 0, 64, 64
1, 591469, Note_off_c, 0, 76, 60
1, 591481, Control_c, 0, 64, 63
1, 591503, Control_c, 0, 64, 62
1, 591518, Control_c, 0, 64, 61
1, 591532, Note_on_c, 0, 79, 67
1, 591533, Control_c, 0, 64, 61
1, 591537, Note_off_c, 0, 78, 61
1, 591548, Control_c, 0, 64, 60
1, 591563, Control_c, 0, 64, 59
1, 591577, Control_c, 0, 64, 58
1, 591592, Control_c, 0, 64, 57
1, 591607, Control_c, 0, 64, 55
1, 591622, Control_c, 0, 64, 54
1, 591626, Note_off_c, 0, 79, 60
1, 591631, Note_on_c, 0, 78, 73
1, 591636, Control_c, 0, 64, 53
1, 591639, Note_on_c, 0, 58, 62
1, 591639, Note_on_c, 0, 61, 58
1, 591650, Note_off_c, 0, 59, 60
1, 591651, Control_c, 0, 64, 51
1, 591666, Control_c, 0, 64, 49
1, 591680, Note_off_c, 0, 62, 35
1, 591681, Control_c, 0, 64, 48
1, 591696, Control_c, 0, 64, 47
1, 591706, Note_off_c, 0, 78, 64
1, 591710, Control_c, 0, 64, 46
1, 591725, Control_c, 0, 64, 45
1, 591731, Note_on_c, 0, 79, 66
1, 591740, Control_c, 0, 64, 44
1, 591755, Control_c, 0, 64, 43
1, 591770, Control_c, 0, 64, 41
1, 591785, Control_c, 0, 64, 36
1, 591799, Control_c, 0, 64, 33
1, 591814, Control_c, 0, 64, 29
1, 591824, Note_off_c, 0, 79, 59
1, 591829, Control_c, 0, 64, 23
1, 591830, Note_off_c, 0, 61, 62
1, 591844, Control_c, 0, 64, 14
1, 591844, Note_on_c, 0, 81, 64
1, 591852, Note_on_c, 0, 62, 41
1, 591853, Note_on_c, 0, 59, 50
1, 591859, Control_c, 0, 64, 0
1, 591869, Note_off_c, 0, 58, 62
1, 591942, Note_off_c, 0, 81, 57
1, 591954, Note_on_c, 0, 79, 56
1, 592053, Note_on_c, 0, 83, 52
1, 592053, Note_off_c, 0, 79, 56
1, 592068, Note_on_c, 0, 64, 40
1, 592074, Note_on_c, 0, 60, 39
1, 592115, Note_off_c, 0, 62, 39
1, 592130, Note_off_c, 0, 59, 55
1, 592154, Note_on_c, 0, 81, 56
1, 592165, Note_off_c, 0, 83, 48
1, 592223, Note_off_c, 0, 64, 34
1, 592227, Note_off_c, 0, 60, 53
1, 592235, Note_off_c, 0, 81, 60
1, 592262, Note_on_c, 0, 59, 43
1, 592262, Note_on_c, 0, 79, 54
1, 592267, Note_on_c, 0, 62, 40
1, 592294, Note_off_c, 0, 59, 63
1, 592333, Note_off_c, 0, 62, 0
1, 592333, Note_on_c, 0, 62, 3
1, 592346, Note_off_c, 0, 79, 56
1, 592375, Note_on_c, 0, 81, 59
1, 592424, Note_off_c, 0, 62, 42
1, 592507, Note_on_c, 0, 50, 34
1, 592544, Note_off_c, 0, 81, 59
1, 592550, Note_on_c, 0, 78, 74
1, 592607, Control_c, 0, 64, 24
1, 592622, Control_c, 0, 64, 48
1, 592637, Control_c, 0, 64, 56
1, 592652, Control_c, 0, 64, 60
1, 592667, Note_on_c, 0, 86, 59
1, 592667, Control_c, 0, 64, 62
1, 592682, Control_c, 0, 64, 63
1, 592697, Control_c, 0, 64, 64
1, 592712, Control_c, 0, 64, 65
1, 592726, Control_c, 0, 64, 66
1, 592741, Control_c, 0, 64, 67
1, 592749, Note_off_c, 0, 78, 49
1, 592756, Control_c, 0, 64, 68
1, 592758, Note_off_c, 0, 86, 61
1, 592770, Control_c, 0, 64, 70
1, 592771, Note_on_c, 0, 60, 37
1, 592777, Note_on_c, 0, 85, 58
1, 592781, Note_on_c, 0, 57, 34
1, 592785, Control_c, 0, 64, 71
1, 592800, Control_c, 0, 64, 72
1, 592815, Control_c, 0, 64, 73
1, 592830, Control_c, 0, 64, 73
1, 592859, Control_c, 0, 64, 74
1, 592867, Note_on_c, 0, 86, 64
1, 592935, Note_off_c, 0, 57, 60
1, 592937, Note_off_c, 0, 86, 61
1, 592942, Note_off_c, 0, 85, 27
1, 592959, Note_on_c, 0, 78, 58
1, 592986, Note_off_c, 0, 50, 56
1, 593043, Note_off_c, 0, 60, 36
1, 593049, Note_on_c, 0, 86, 59
1, 593054, Note_off_c, 0, 78, 61
1, 593117, Note_off_c, 0, 86, 60
1, 593120, Control_c, 0, 64, 72
1, 593135, Control_c, 0, 64, 67
1, 593147, Note_on_c, 0, 50, 50
1, 593149, Control_c, 0, 64, 59
1, 593160, Note_on_c, 0, 76, 62
1, 593164, Control_c, 0, 64, 14
1, 593179, Control_c, 0, 64, 0
1, 593253, Control_c, 0, 64, 46
1, 593260, Note_on_c, 0, 86, 52
1, 593268, Control_c, 0, 64, 58
1, 593282, Control_c, 0, 64, 62
1, 593297, Control_c, 0, 64, 63
1, 593310, Note_off_c, 0, 76, 35
1, 593312, Control_c, 0, 64, 64
1, 593327, Note_off_c, 0, 86, 62
1, 593327, Control_c, 0, 64, 66
1, 593338, Note_on_c, 0, 59, 58
1, 593342, Control_c, 0, 64, 68
1, 593352, Note_on_c, 0, 55, 47
1, 593356, Control_c, 0, 64, 71
1, 593358, Note_on_c, 0, 85, 54
1, 593371, Control_c, 0, 64, 73
1, 593386, Control_c, 0, 64, 74
1, 593400, Control_c, 0, 64, 75
1, 593415, Control_c, 0, 64, 76
1, 593430, Control_c, 0, 64, 77
1, 593440, Note_on_c, 0, 86, 60
1, 593445, Control_c, 0, 64, 77
1, 593460, Control_c, 0, 64, 78
1, 593471, Note_off_c, 0, 85, 33
1, 593499, Note_off_c, 0, 86, 62
1, 593531, Note_on_c, 0, 76, 55
1, 593586, Note_off_c, 0, 50, 57
1, 593591, Note_off_c, 0, 76, 60
1, 593610, Note_off_c, 0, 55, 37
1, 593624, Note_on_c, 0, 86, 63
1, 593627, Note_off_c, 0, 59, 38
1, 593674, Note_off_c, 0, 86, 58
1, 593712, Control_c, 0, 64, 77
1, 593726, Control_c, 0, 64, 72
1, 593728, Note_on_c, 0, 74, 48
1, 593732, Note_on_c, 0, 50, 53
1, 593749, Control_c, 0, 64, 64
1, 593764, Control_c, 0, 64, 41
1, 593779, Control_c, 0, 64, 0
1, 593779, Note_off_c, 0, 50, 60
1, 593815, Note_off_c, 0, 74, 61
1, 593823, Note_on_c, 0, 76, 58
1, 593912, Note_off_c, 0, 76, 61
1, 593915, Note_on_c, 0, 78, 69
1, 593922, Note_on_c, 0, 57, 47
1, 593928, Note_on_c, 0, 50, 42
1, 593929, Note_on_c, 0, 54, 44
1, 593981, Note_off_c, 0, 50, 59
1, 593983, Note_off_c, 0, 57, 58
1, 593984, Note_off_c, 0, 54, 55
1, 593987, Note_off_c, 0, 78, 65
1, 594007, Note_on_c, 0, 79, 70
1, 594099, Note_on_c, 0, 81, 71
1, 594104, Note_off_c, 0, 79, 56
1, 594111, Note_on_c, 0, 50, 54
1, 594119, Note_on_c, 0, 52, 52
1, 594119, Note_on_c, 0, 55, 39
1, 594157, Note_off_c, 0, 52, 64
1, 594164, Note_off_c, 0, 50, 57
1, 594182, Note_off_c, 0, 55, 43
1, 594188, Note_on_c, 0, 79, 69
1, 594202, Note_off_c, 0, 81, 50
1, 594271, Note_off_c, 0, 79, 58
1, 594286, Note_on_c, 0, 78, 67
1, 594288, Note_on_c, 0, 54, 46
1, 594299, Note_on_c, 0, 57, 54
1, 594300, Note_on_c, 0, 50, 56
1, 594341, Note_off_c, 0, 54, 58
1, 594345, Note_off_c, 0, 57, 60
1, 594348, Note_off_c, 0, 78, 64
1, 594348, Note_off_c, 0, 50, 59
1, 594378, Note_on_c, 0, 79, 64
1, 594459, Note_off_c, 0, 79, 58
1, 594461, Note_on_c, 0, 81, 72
1, 594473, Note_on_c, 0, 59, 48
1, 594476, Note_on_c, 0, 55, 52
1, 594478, Note_on_c, 0, 50, 50
1, 594521, Note_off_c, 0, 59, 62
1, 594526, Note_off_c, 0, 50, 60
1, 594536, Note_off_c, 0, 55, 59
1, 594562, Note_off_c, 0, 81, 60
1, 594563, Note_on_c, 0, 83, 70
1, 594618, Note_off_c, 0, 83, 61
1, 594657, Note_on_c, 0, 50, 51
1, 594658, Note_on_c, 0, 84, 70
1, 594660, Note_on_c, 0, 60, 54
1, 594665, Note_on_c, 0, 57, 47
1, 594704, Note_off_c, 0, 57, 60
1, 594710, Note_off_c, 0, 60, 57
1, 594711, Note_off_c, 0, 50, 61
1, 594720, Note_off_c, 0, 84, 60
1, 594745, Note_on_c, 0, 86, 73
1, 594751, Control_c, 0, 67, 126
1, 594765, Control_c, 0, 67, 125
1, 594810, Control_c, 0, 67, 127
1, 594825, Control_c, 0, 67, 127
1, 594843, Note_off_c, 0, 86, 61
1, 594851, Note_on_c, 0, 50, 56
1, 594851, Note_on_c, 0, 83, 68
1, 594950, Note_on_c, 0, 91, 72
1, 595002, Control_c, 0, 64, 43
1, 595017, Control_c, 0, 64, 62
1, 595032, Control_c, 0, 64, 65
1, 595038, Note_off_c, 0, 91, 61
1, 595039, Note_on_c, 0, 90, 74
1, 595046, Control_c, 0, 64, 65
1, 595061, Control_c, 0, 64, 66
1, 595064, Note_off_c, 0, 83, 51
1, 595067, Note_on_c, 0, 59, 49
1, 595069, Note_on_c, 0, 55, 50
1, 595106, Control_c, 0, 64, 66
1, 595120, Control_c, 0, 64, 67
1, 595138, Note_on_c, 0, 91, 76
1, 595150, Control_c, 0, 64, 67
1, 595165, Control_c, 0, 64, 68
1, 595180, Control_c, 0, 64, 69
1, 595195, Control_c, 0, 64, 70
1, 595210, Control_c, 0, 64, 71
1, 595215, Note_off_c, 0, 91, 60
1, 595222, Note_on_c, 0, 83, 69
1, 595246, Control_c, 0, 64, 71
1, 595277, Note_off_c, 0, 90, 26
1, 595288, Note_off_c, 0, 50, 61
1, 595320, Note_off_c, 0, 83, 56
1, 595322, Note_on_c, 0, 91, 76
1, 595327, Note_off_c, 0, 55, 53
1, 595345, Note_off_c, 0, 59, 37
1, 595400, Note_off_c, 0, 91, 60
1, 595409, Control_c, 0, 64, 70
1, 595425, Control_c, 0, 64, 68
1, 595436, Note_on_c, 0, 84, 68
1, 595440, Control_c, 0, 64, 64
1, 595448, Note_on_c, 0, 50, 45
1, 595455, Control_c, 0, 64, 55
1, 595469, Control_c, 0, 64, 0
1, 595530, Note_on_c, 0, 91, 59
1, 595558, Control_c, 0, 64, 36
1, 595573, Control_c, 0, 64, 56
1, 595579, Note_off_c, 0, 84, 52
1, 595588, Control_c, 0, 64, 61
1, 595603, Control_c, 0, 64, 62
1, 595615, Note_off_c, 0, 91, 59
1, 595618, Control_c, 0, 64, 63
1, 595633, Note_on_c, 0, 90, 62
1, 595633, Control_c, 0, 64, 64
1, 595645, Note_on_c, 0, 60, 46
1, 595648, Control_c, 0, 64, 65
1, 595648, Note_on_c, 0, 57, 41
1, 595662, Control_c, 0, 64, 66
1, 595677, Control_c, 0, 64, 67
1, 595692, Control_c, 0, 64, 68
1, 595707, Control_c, 0, 64, 69
1, 595722, Control_c, 0, 64, 70
1, 595736, Control_c, 0, 64, 70
1, 595748, Note_on_c, 0, 91, 54
1, 595751, Control_c, 0, 64, 71
1, 595766, Control_c, 0, 64, 73
1, 595781, Control_c, 0, 64, 74
1, 595795, Control_c, 0, 64, 74
1, 595797, Note_off_c, 0, 90, 32
1, 595816, Note_off_c, 0, 91, 51
1, 595829, Note_on_c, 0, 84, 55
1, 595859, Note_off_c, 0, 50, 54
1, 595914, Note_off_c, 0, 60, 54
1, 595923, Note_off_c, 0, 57, 36
1, 595931, Note_on_c, 0, 91, 61
1, 595939, Note_off_c, 0, 84, 43
1, 596010, Control_c, 0, 64, 71
1, 596025, Control_c, 0, 64, 64
1, 596040, Control_c, 0, 64, 43
1, 596055, Control_c, 0, 64, 0
1, 596078, Note_on_c, 0, 86, 52
1, 596083, Note_off_c, 0, 91, 52
1, 596097, Note_on_c, 0, 50, 39
1, 596099, Control_c, 0, 64, 44
1, 596114, Control_c, 0, 64, 61
1, 596128, Control_c, 0, 64, 67
1, 596143, Control_c, 0, 64, 70
1, 596158, Control_c, 0, 64, 72
1, 596172, Note_off_c, 0, 50, 62
1, 596174, Note_off_c, 0, 86, 62
1, 596212, Note_on_c, 0, 84, 48
1, 596263, Control_c, 0, 64, 71
1, 596278, Control_c, 0, 64, 71
1, 596292, Control_c, 0, 64, 70
1, 596307, Control_c, 0, 64, 70
1, 596313, Note_off_c, 0, 84, 52
1, 596322, Control_c, 0, 64, 69
1, 596327, Note_on_c, 0, 83, 52
1, 596330, Note_on_c, 0, 62, 52
1, 596333, Note_on_c, 0, 59, 51
1, 596337, Control_c, 0, 64, 68
1, 596351, Control_c, 0, 64, 67
1, 596366, Control_c, 0, 64, 67
1, 596381, Control_c, 0, 64, 66
1, 596396, Control_c, 0, 64, 65
1, 596417, Note_off_c, 0, 83, 55
1, 596424, Note_on_c, 0, 81, 58
1, 596426, Control_c, 0, 64, 65
1, 596456, Control_c, 0, 64, 64
1, 596471, Control_c, 0, 64, 64
1, 596485, Note_off_c, 0, 81, 62
1, 596485, Control_c, 0, 64, 63
1, 596511, Note_off_c, 0, 59, 60
1, 596512, Note_on_c, 0, 79, 55
1, 596512, Note_on_c, 0, 61, 56
1, 596513, Note_on_c, 0, 58, 61
1, 596515, Control_c, 0, 64, 63
1, 596548, Note_off_c, 0, 62, 53
1, 596574, Control_c, 0, 64, 62
1, 596604, Control_c, 0, 64, 62
1, 596607, Note_on_c, 0, 78, 60
1, 596607, Note_off_c, 0, 79, 58
1, 596633, Control_c, 0, 64, 61
1, 596663, Control_c, 0, 64, 61
1, 596692, Control_c, 0, 64, 59
1, 596706, Note_on_c, 0, 62, 47
1, 596706, Note_off_c, 0, 61, 61
1, 596707, Control_c, 0, 64, 51
1, 596711, Note_on_c, 0, 76, 57
1, 596715, Note_on_c, 0, 59, 54
1, 596722, Control_c, 0, 64, 0
1, 596758, Note_off_c, 0, 58, 50
1, 596760, Note_off_c, 0, 78, 56
1, 596804, Note_off_c, 0, 76, 64
1, 596817, Note_on_c, 0, 74, 59
1, 596904, Note_on_c, 0, 64, 52
1, 596908, Note_on_c, 0, 60, 52
1, 596909, Note_on_c, 0, 76, 63
1, 596913, Note_off_c, 0, 74, 60
1, 596936, Control_c, 0, 64, 21
1, 596950, Control_c, 0, 64, 40
1, 596965, Control_c, 0, 64, 50
1, 596968, Note_off_c, 0, 62, 36
1, 596980, Control_c, 0, 64, 54
1, 596989, Note_off_c, 0, 76, 63
1, 596995, Control_c, 0, 64, 57
1, 597008, Note_on_c, 0, 74, 59
1, 597010, Control_c, 0, 64, 59
1, 597016, Note_off_c, 0, 59, 52
1, 597026, Control_c, 0, 64, 61
1, 597040, Control_c, 0, 64, 63
1, 597055, Note_off_c, 0, 64, 53
1, 597055, Control_c, 0, 64, 63
1, 597070, Control_c, 0, 64, 64
1, 597075, Note_on_c, 0, 59, 40
1, 597077, Note_on_c, 0, 62, 51
1, 597080, Note_off_c, 0, 60, 62
1, 597085, Control_c, 0, 64, 65
1, 597092, Note_off_c, 0, 74, 62
1, 597100, Control_c, 0, 64, 66
1, 597100, Control_c, 0, 67, 127
1, 597111, Note_on_c, 0, 76, 64
1, 597114, Note_off_c, 0, 59, 62
1, 597114, Control_c, 0, 64, 67
1, 597114, Control_c, 0, 67, 123
1, 597129, Control_c, 0, 64, 67
1, 597129, Control_c, 0, 67, 120
1, 597144, Control_c, 0, 64, 68
1, 597144, Control_c, 0, 67, 117
1, 597159, Control_c, 0, 67, 115
1, 597174, Control_c, 0, 67, 112
1, 597189, Control_c, 0, 67, 108
1, 597194, Note_off_c, 0, 76, 61
1, 597198, Note_on_c, 0, 74, 66
1, 597204, Control_c, 0, 67, 105
1, 597219, Control_c, 0, 67, 102
1, 597234, Control_c, 0, 67, 100
1, 597240, Note_off_c, 0, 62, 35
1, 597248, Control_c, 0, 67, 98
1, 597263, Control_c, 0, 67, 96
1, 597278, Control_c, 0, 64, 67
1, 597278, Control_c, 0, 67, 94
1, 597293, Control_c, 0, 64, 64
1, 597293, Control_c, 0, 67, 93
1, 597303, Note_on_c, 0, 50, 56
1, 597308, Note_off_c, 0, 74, 64
1, 597308, Control_c, 0, 64, 58
1, 597308, Control_c, 0, 67, 92
1, 597322, Control_c, 0, 64, 19
1, 597322, Control_c, 0, 67, 91
1, 597336, Note_on_c, 0, 76, 63
1, 597337, Control_c, 0, 64, 0
1, 597337, Control_c, 0, 67, 89
1, 597352, Control_c, 0, 67, 87
1, 597366, Control_c, 0, 67, 85
1, 597381, Control_c, 0, 67, 81
1, 597396, Control_c, 0, 64, 32
1, 597396, Control_c, 0, 67, 79
1, 597411, Control_c, 0, 64, 52
1, 597411, Control_c, 0, 67, 78
1, 597426, Control_c, 0, 64, 59
1, 597426, Control_c, 0, 67, 76
1, 597440, Control_c, 0, 64, 61
1, 597440, Control_c, 0, 67, 75
1, 597448, Note_on_c, 0, 78, 71
1, 597455, Control_c, 0, 64, 62
1, 597455, Control_c, 0, 67, 73
1, 597470, Control_c, 0, 64, 63
1, 597470, Control_c, 0, 67, 71
1, 597479, Note_off_c, 0, 76, 55
1, 597493, Control_c, 0, 64, 64
1, 597493, Control_c, 0, 67, 69
1, 597508, Control_c, 0, 64, 65
1, 597508, Control_c, 0, 67, 67
1, 597522, Control_c, 0, 64, 67
1, 597522, Control_c, 0, 67, 66
1, 597537, Control_c, 0, 64, 68
1, 597537, Control_c, 0, 67, 64
1, 597552, Control_c, 0, 64, 68
1, 597552, Control_c, 0, 67, 63
1, 597563, Note_on_c, 0, 80, 71
1, 597566, Control_c, 0, 64, 69
1, 597566, Control_c, 0, 67, 62
1, 597578, Note_off_c, 0, 78, 57
1, 597581, Control_c, 0, 64, 70
1, 597581, Control_c, 0, 67, 61
1, 597585, Note_on_c, 0, 64, 42
1, 597586, Note_on_c, 0, 62, 44
1, 597591, Note_on_c, 0, 59, 43
1, 597596, Control_c, 0, 64, 71
1, 597611, Control_c, 0, 64, 72
1, 597611, Control_c, 0, 67, 60
1, 597626, Control_c, 0, 64, 72
1, 597638, Note_off_c, 0, 80, 63
1, 597640, Control_c, 0, 64, 73
1, 597661, Note_on_c, 0, 81, 72
1, 597670, Control_c, 0, 64, 73
1, 597684, Control_c, 0, 67, 61
1, 597699, Control_c, 0, 67, 61
1, 597714, Control_c, 0, 67, 62
1, 597729, Control_c, 0, 64, 74
1, 597729, Control_c, 0, 67, 63
1, 597744, Control_c, 0, 67, 63
1, 597753, Note_on_c, 0, 83, 75
1, 597759, Note_off_c, 0, 81, 58
1, 597759, Control_c, 0, 67, 64
1, 597819, Control_c, 0, 67, 64
1, 597841, Note_off_c, 0, 50, 38
1, 597842, Note_on_c, 0, 84, 77
1, 597842, Note_off_c, 0, 64, 51
1, 597845, Note_off_c, 0, 59, 34
1, 597849, Control_c, 0, 67, 65
1, 597858, Note_off_c, 0, 83, 60
1, 597873, Note_off_c, 0, 62, 35
1, 597878, Control_c, 0, 67, 65
1, 597893, Control_c, 0, 67, 66
1, 597904, Note_off_c, 0, 84, 63
1, 597923, Control_c, 0, 64, 72
1, 597937, Control_c, 0, 64, 65
1, 597943, Note_on_c, 0, 86, 77
1, 597944, Note_on_c, 0, 50, 57
1, 597952, Control_c, 0, 64, 51
1, 597967, Control_c, 0, 64, 0
1, 598012, Control_c, 0, 64, 26
1, 598027, Control_c, 0, 64, 47
1, 598027, Control_c, 0, 67, 66
1, 598038, Note_on_c, 0, 87, 79
1, 598041, Control_c, 0, 64, 59
1, 598041, Control_c, 0, 67, 67
1, 598048, Note_off_c, 0, 86, 57
1, 598056, Control_c, 0, 64, 63
1, 598071, Control_c, 0, 64, 64
1, 598086, Control_c, 0, 64, 64
1, 598116, Control_c, 0, 64, 65
1, 598131, Control_c, 0, 64, 65
1, 598137, Note_off_c, 0, 87, 63
1, 598140, Note_on_c, 0, 88, 74
1, 598145, Control_c, 0, 64, 66
1, 598146, Note_on_c, 0, 56, 44
1, 598148, Note_on_c, 0, 64, 44
1, 598151, Note_on_c, 0, 59, 47
1, 598152, Note_on_c, 0, 62, 47
1, 598160, Control_c, 0, 64, 66
1, 598160, Control_c, 0, 67, 66
1, 598175, Control_c, 0, 64, 67
1, 598189, Control_c, 0, 64, 67
1, 598204, Control_c, 0, 64, 68
1, 598219, Control_c, 0, 64, 69
1, 598231, Note_on_c, 0, 86, 74
1, 598241, Control_c, 0, 64, 70
1, 598256, Control_c, 0, 64, 71
1, 598265, Note_off_c, 0, 88, 40
1, 598271, Control_c, 0, 64, 72
1, 598271, Control_c, 0, 67, 66
1, 598286, Control_c, 0, 64, 73
1, 598301, Control_c, 0, 64, 74
1, 598307, Note_off_c, 0, 86, 63
1, 598315, Control_c, 0, 64, 74
1, 598315, Control_c, 0, 67, 66
1, 598326, Note_off_c, 0, 56, 56
1, 598330, Control_c, 0, 64, 75
1, 598330, Control_c, 0, 67, 67
1, 598333, Note_on_c, 0, 84, 66
1, 598337, Note_off_c, 0, 59, 57
1, 598345, Control_c, 0, 64, 76
1, 598360, Control_c, 0, 64, 77
1, 598360, Control_c, 0, 67, 67
1, 598372, Note_off_c, 0, 64, 51
1, 598375, Control_c, 0, 64, 78
1, 598375, Control_c, 0, 67, 68
1, 598388, Note_off_c, 0, 50, 51
1, 598389, Control_c, 0, 64, 80
1, 598396, Note_off_c, 0, 62, 47
1, 598404, Control_c, 0, 64, 81
1, 598419, Control_c, 0, 67, 68
1, 598420, Note_on_c, 0, 83, 73
1, 598434, Control_c, 0, 64, 78
1, 598434, Control_c, 0, 67, 69
1, 598444, Note_off_c, 0, 84, 60
1, 598449, Control_c, 0, 64, 65
1, 598449, Control_c, 0, 67, 69
1, 598463, Control_c, 0, 64, 0
1, 598463, Control_c, 0, 67, 70
1, 598478, Control_c, 0, 67, 70
1, 598493, Control_c, 0, 67, 72
1, 598507, Control_c, 0, 67, 72
1, 598519, Note_on_c, 0, 86, 69
1, 598521, Note_on_c, 0, 50, 63
1, 598522, Control_c, 0, 64, 51
1, 598522, Control_c, 0, 67, 73
1, 598530, Note_off_c, 0, 83, 59
1, 598537, Control_c, 0, 64, 65
1, 598537, Control_c, 0, 67, 74
1, 598552, Control_c, 0, 64, 68
1, 598552, Control_c, 0, 67, 75
1, 598567, Control_c, 0, 64, 69
1, 598567, Control_c, 0, 67, 77
1, 598575, Note_off_c, 0, 50, 61
1, 598582, Control_c, 0, 67, 78
1, 598596, Control_c, 0, 64, 68
1, 598607, Note_on_c, 0, 84, 78
1, 598611, Note_off_c, 0, 86, 61
1, 598612, Control_c, 0, 64, 67
1, 598612, Control_c, 0, 67, 78
1, 598627, Control_c, 0, 64, 66
1, 598627, Control_c, 0, 67, 79
1, 598642, Control_c, 0, 64, 65
1, 598657, Control_c, 0, 64, 64
1, 598672, Control_c, 0, 64, 64
1, 598672, Control_c, 0, 67, 79
1, 598686, Control_c, 0, 64, 63
1, 598701, Control_c, 0, 64, 63
1, 598701, Control_c, 0, 67, 80
1, 598705, Note_on_c, 0, 88, 74
1, 598707, Note_on_c, 0, 60, 65
1, 598710, Note_off_c, 0, 84, 65
1, 598716, Control_c, 0, 64, 62
1, 598716, Control_c, 0, 67, 81
1, 598723, Note_on_c, 0, 57, 54
1, 598731, Control_c, 0, 67, 82
1, 598745, Control_c, 0, 64, 62
1, 598745, Control_c, 0, 67, 83
1, 598760, Control_c, 0, 64, 61
1, 598760, Control_c, 0, 67, 83
1, 598775, Control_c, 0, 64, 61
1, 598775, Control_c, 0, 67, 84
1, 598790, Control_c, 0, 64, 60
1, 598793, Note_on_c, 0, 86, 82
1, 598805, Control_c, 0, 67, 85
1, 598819, Control_c, 0, 64, 60
1, 598827, Note_off_c, 0, 88, 62
1, 598834, Control_c, 0, 64, 59
1, 598834, Control_c, 0, 67, 85
1, 598849, Control_c, 0, 64, 59
1, 598849, Control_c, 0, 67, 86
1, 598864, Control_c, 0, 64, 58
1, 598864, Control_c, 0, 67, 87
1, 598877, Note_off_c, 0, 60, 58
1, 598879, Control_c, 0, 67, 89
1, 598882, Note_off_c, 0, 57, 57
1, 598893, Note_on_c, 0, 84, 81
1, 598894, Control_c, 0, 67, 90
1, 598894, Note_on_c, 0, 59, 60
1, 598894, Note_on_c, 0, 62, 56
1, 598909, Control_c, 0, 67, 91
1, 598924, Control_c, 0, 67, 92
1, 598938, Control_c, 0, 67, 93
1, 598953, Control_c, 0, 67, 96
1, 598968, Control_c, 0, 67, 100
1, 598969, Note_off_c, 0, 86, 56
1, 598988, Note_on_c, 0, 83, 81
1, 598990, Control_c, 0, 67, 102
1, 599005, Control_c, 0, 67, 104
1, 599009, Note_off_c, 0, 84, 64
1, 599019, Control_c, 0, 67, 106
1, 599034, Control_c, 0, 67, 107
1, 599052, Note_off_c, 0, 83, 61
1, 599064, Control_c, 0, 67, 107
1, 599079, Control_c, 0, 64, 58
1, 599079, Control_c, 0, 67, 108
1, 599112, Note_off_c, 0, 62, 58
1, 599121, Note_off_c, 0, 59, 61
1, 599124, Control_c, 0, 67, 108
1, 599126, Note_on_c, 0, 83, 71
1, 599129, Note_on_c, 0, 64, 43
1, 599138, Control_c, 0, 64, 57
1, 599141, Note_on_c, 0, 60, 44
1, 599168, Control_c, 0, 64, 57
1, 599183, Control_c, 0, 67, 109
1, 599212, Control_c, 0, 64, 56
1, 599224, Note_on_c, 0, 81, 68
1, 599231, Note_off_c, 0, 83, 59
1, 599257, Control_c, 0, 64, 56
1, 599282, Note_off_c, 0, 81, 60
1, 599286, Control_c, 0, 67, 109
1, 599316, Control_c, 0, 67, 110
1, 599333, Note_on_c, 0, 81, 64
1, 599333, Note_off_c, 0, 60, 59
1, 599344, Note_on_c, 0, 59, 54
1, 599344, Note_on_c, 0, 62, 51
1, 599350, Note_off_c, 0, 64, 51
1, 599360, Control_c, 0, 67, 111
1, 599375, Control_c, 0, 67, 112
1, 599390, Control_c, 0, 67, 113
1, 599398, Note_off_c, 0, 81, 59
1, 599406, Control_c, 0, 67, 115
1, 599421, Note_on_c, 0, 80, 72
1, 599421, Control_c, 0, 67, 115
1, 599435, Control_c, 0, 67, 116
1, 599450, Control_c, 0, 67, 116
1, 599478, Note_off_c, 0, 80, 62
1, 599480, Control_c, 0, 67, 117
1, 599495, Control_c, 0, 64, 55
1, 599495, Control_c, 0, 67, 118
1, 599509, Control_c, 0, 67, 120
1, 599514, Note_off_c, 0, 62, 61
1, 599519, Note_on_c, 0, 60, 57
1, 599524, Control_c, 0, 67, 121
1, 599528, Note_on_c, 0, 80, 61
1, 599529, Note_on_c, 0, 57, 51
1, 599536, Note_off_c, 0, 59, 46
1, 599539, Control_c, 0, 67, 122
1, 599548, Note_off_c, 0, 60, 65
1, 599554, Control_c, 0, 67, 122
1, 599561, Note_off_c, 0, 57, 64
1, 599568, Control_c, 0, 67, 123
1, 599583, Control_c, 0, 64, 55
1, 599583, Control_c, 0, 67, 125
1, 599598, Control_c, 0, 67, 127
1, 599613, Control_c, 0, 67, 127
1, 599618, Note_on_c, 0, 81, 66
1, 599621, Note_off_c, 0, 80, 52
1, 599642, Control_c, 0, 64, 54
1, 599657, Control_c, 0, 64, 51
1, 599672, Control_c, 0, 64, 39
1, 599687, Control_c, 0, 64, 0
1, 599693, Note_off_c, 0, 81, 59
1, 599708, Note_on_c, 0, 50, 54
1, 599750, Note_on_c, 0, 74, 61
1, 599783, Control_c, 0, 64, 36
1, 599798, Control_c, 0, 64, 55
1, 599813, Control_c, 0, 64, 61
1, 599828, Control_c, 0, 64, 61
1, 599842, Control_c, 0, 64, 62
1, 599853, Note_on_c, 0, 76, 61
1, 599855, Note_off_c, 0, 74, 63
1, 599857, Control_c, 0, 64, 63
1, 599872, Control_c, 0, 64, 64
1, 599887, Control_c, 0, 64, 65
1, 599902, Control_c, 0, 64, 66
1, 599931, Control_c, 0, 64, 66
1, 599940, Note_on_c, 0, 57, 40
1, 599945, Note_on_c, 0, 78, 60
1, 599947, Note_off_c, 0, 76, 57
1, 599957, Note_on_c, 0, 60, 43
1, 599958, Note_on_c, 0, 62, 49
1, 599961, Control_c, 0, 64, 67
1, 599976, Control_c, 0, 64, 67
1, 599991, Control_c, 0, 64, 68
1, 600002, Note_off_c, 0, 78, 65
1, 600006, Control_c, 0, 64, 68
1, 600021, Control_c, 0, 64, 69
1, 600035, Control_c, 0, 64, 70
1, 600037, Note_on_c, 0, 79, 55
1, 600130, Note_off_c, 0, 79, 58
1, 600136, Note_on_c, 0, 81, 71
1, 600202, Note_off_c, 0, 57, 52
1, 600212, Note_off_c, 0, 50, 60
1, 600226, Note_on_c, 0, 83, 61
1, 600230, Note_off_c, 0, 81, 56
1, 600235, Note_off_c, 0, 62, 35
1, 600241, Note_off_c, 0, 60, 34
1, 600284, Note_off_c, 0, 83, 61
1, 600288, Control_c, 0, 64, 68
1, 600303, Control_c, 0, 64, 63
1, 600318, Control_c, 0, 64, 49
1, 600328, Note_on_c, 0, 84, 63
1, 600332, Control_c, 0, 64, 0
1, 600352, Note_on_c, 0, 50, 41
1, 600391, Control_c, 0, 64, 18
1, 600406, Control_c, 0, 64, 48
1, 600421, Control_c, 0, 64, 59
1, 600432, Note_on_c, 0, 85, 59
1, 600436, Control_c, 0, 64, 62
1, 600449, Note_off_c, 0, 84, 59
1, 600451, Control_c, 0, 64, 63
1, 600488, Control_c, 0, 64, 63
1, 600503, Control_c, 0, 64, 64
1, 600516, Note_off_c, 0, 85, 61
1, 600517, Control_c, 0, 64, 65
1, 600528, Note_on_c, 0, 86, 56
1, 600532, Control_c, 0, 64, 65
1, 600547, Control_c, 0, 64, 66
1, 600548, Note_on_c, 0, 57, 39
1, 600554, Note_on_c, 0, 62, 42
1, 600556, Note_on_c, 0, 60, 40
1, 600562, Control_c, 0, 64, 66
1, 600568, Note_on_c, 0, 54, 33
1, 600577, Control_c, 0, 64, 67
1, 600591, Control_c, 0, 64, 68
1, 600606, Control_c, 0, 64, 69
1, 600621, Control_c, 0, 64, 71
1, 600635, Note_off_c, 0, 86, 57
1, 600636, Control_c, 0, 64, 71
1, 600644, Note_on_c, 0, 84, 61
1, 600651, Control_c, 0, 64, 72
1, 600665, Control_c, 0, 64, 72
1, 600680, Control_c, 0, 64, 73
1, 600695, Control_c, 0, 64, 73
1, 600709, Control_c, 0, 64, 74
1, 600724, Control_c, 0, 64, 74
1, 600727, Note_on_c, 0, 83, 58
1, 600733, Note_off_c, 0, 84, 50
1, 600739, Control_c, 0, 64, 75
1, 600754, Control_c, 0, 64, 75
1, 600757, Note_off_c, 0, 54, 39
1, 600769, Control_c, 0, 64, 76
1, 600775, Note_off_c, 0, 57, 34
1, 600784, Note_off_c, 0, 50, 50
1, 600784, Control_c, 0, 64, 78
1, 600798, Note_off_c, 0, 83, 59
1, 600799, Control_c, 0, 64, 80
1, 600805, Note_off_c, 0, 62, 36
1, 600814, Control_c, 0, 64, 81
1, 600818, Note_off_c, 0, 60, 33
1, 600822, Note_on_c, 0, 81, 59
1, 600858, Control_c, 0, 64, 72
1, 600873, Control_c, 0, 64, 57
1, 600888, Control_c, 0, 64, 0
1, 600917, Control_c, 0, 64, 42
1, 600918, Note_on_c, 0, 50, 51
1, 600918, Note_on_c, 0, 84, 56
1, 600930, Note_off_c, 0, 81, 53
1, 600932, Control_c, 0, 64, 55
1, 600947, Control_c, 0, 64, 61
1, 600962, Control_c, 0, 64, 63
1, 600981, Note_off_c, 0, 50, 63
1, 601015, Note_on_c, 0, 83, 63
1, 601016, Note_off_c, 0, 84, 58
1, 601052, Control_c, 0, 64, 63
1, 601067, Control_c, 0, 64, 62
1, 601081, Control_c, 0, 64, 62
1, 601096, Control_c, 0, 64, 61
1, 601106, Note_off_c, 0, 83, 58
1, 601112, Note_on_c, 0, 59, 61
1, 601116, Note_on_c, 0, 86, 57
1, 601122, Note_on_c, 0, 55, 51
1, 601140, Control_c, 0, 64, 61
1, 601155, Control_c, 0, 64, 60
1, 601170, Control_c, 0, 64, 59
1, 601185, Control_c, 0, 64, 59
1, 601199, Control_c, 0, 64, 58
1, 601210, Note_on_c, 0, 84, 65
1, 601214, Control_c, 0, 64, 58
1, 601237, Control_c, 0, 64, 57
1, 601252, Control_c, 0, 64, 56
1, 601256, Note_off_c, 0, 86, 36
1, 601267, Control_c, 0, 64, 56
1, 601295, Note_off_c, 0, 55, 63
1, 601303, Note_on_c, 0, 60, 68
1, 601306, Note_off_c, 0, 59, 61
1, 601309, Note_on_c, 0, 57, 65
1, 601317, Note_off_c, 0, 84, 56
1, 601320, Note_on_c, 0, 83, 55
1, 601391, Note_off_c, 0, 83, 61
1, 601419, Note_on_c, 0, 81, 55
1, 601458, Note_off_c, 0, 81, 58
1, 601459, Control_c, 0, 64, 55
1, 601474, Control_c, 0, 64, 55
1, 601488, Control_c, 0, 64, 54
1, 601532, Note_on_c, 0, 62, 62
1, 601551, Note_on_c, 0, 81, 57
1, 601554, Note_off_c, 0, 57, 55
1, 601558, Note_on_c, 0, 59, 57
1, 601562, Note_off_c, 0, 60, 58
1, 601577, Control_c, 0, 64, 54
1, 601607, Control_c, 0, 64, 53
1, 601622, Control_c, 0, 64, 53
1, 601650, Note_off_c, 0, 81, 59
1, 601668, Note_on_c, 0, 79, 55
1, 601696, Control_c, 0, 64, 52
1, 601709, Note_off_c, 0, 79, 55
1, 601786, Note_on_c, 0, 79, 55
1, 601796, Note_on_c, 0, 57, 48
1, 601796, Note_on_c, 0, 60, 51
1, 601808, Note_off_c, 0, 59, 54
1, 601844, Note_off_c, 0, 62, 53
1, 601845, Note_off_c, 0, 79, 60
1, 601890, Note_on_c, 0, 78, 56
1, 601943, Note_off_c, 0, 78, 47
1, 601949, Control_c, 0, 64, 52
1, 601960, Note_off_c, 0, 57, 54
1, 601985, Control_c, 0, 64, 51
1, 602000, Note_on_c, 0, 59, 40
1, 602001, Note_on_c, 0, 78, 48
1, 602003, Note_on_c, 0, 55, 47
1, 602006, Note_off_c, 0, 60, 60
1, 602015, Control_c, 0, 64, 51
1, 602030, Control_c, 0, 64, 50
1, 602034, Note_off_c, 0, 59, 64
1, 602045, Control_c, 0, 64, 50
1, 602056, Note_off_c, 0, 55, 64
1, 602060, Control_c, 0, 64, 49
1, 602075, Control_c, 0, 64, 48
1, 602090, Control_c, 0, 64, 48
1, 602095, Note_off_c, 0, 78, 54
1, 602104, Control_c, 0, 64, 47
1, 602116, Note_on_c, 0, 79, 56
1, 602119, Control_c, 0, 64, 46
1, 602134, Control_c, 0, 64, 45
1, 602149, Control_c, 0, 64, 42
1, 602163, Control_c, 0, 64, 34
1, 602178, Control_c, 0, 64, 0
1, 602227, Note_on_c, 0, 50, 44
1, 602245, Note_off_c, 0, 79, 55
1, 602258, Note_on_c, 0, 71, 71
1, 602311, Control_c, 0, 64, 41
1, 602326, Control_c, 0, 64, 55
1, 602341, Control_c, 0, 64, 59
1, 602355, Control_c, 0, 64, 61
1, 602370, Control_c, 0, 64, 63
1, 602385, Control_c, 0, 64, 64
1, 602391, Note_on_c, 0, 79, 52
1, 602400, Control_c, 0, 64, 65
1, 602415, Control_c, 0, 64, 65
1, 602429, Control_c, 0, 64, 66
1, 602444, Control_c, 0, 64, 66
1, 602474, Control_c, 0, 64, 67
1, 602477, Note_off_c, 0, 71, 31
1, 602486, Note_on_c, 0, 59, 30
1, 602489, Control_c, 0, 64, 67
1, 602491, Note_off_c, 0, 79, 58
1, 602495, Note_on_c, 0, 55, 33
1, 602502, Note_on_c, 0, 78, 58
1, 602504, Control_c, 0, 64, 68
1, 602519, Control_c, 0, 64, 68
1, 602549, Control_c, 0, 64, 69
1, 602605, Note_on_c, 0, 79, 51
1, 602666, Note_off_c, 0, 79, 61
1, 602688, Note_on_c, 0, 71, 61
1, 602698, Control_c, 0, 64, 69
1, 602756, Note_off_c, 0, 78, 22
1, 602763, Note_off_c, 0, 50, 59
1, 602775, Note_off_c, 0, 71, 58
1, 602790, Note_on_c, 0, 79, 60
1, 602798, Note_off_c, 0, 55, 42
1, 602803, Note_off_c, 0, 59, 42
1, 602853, Control_c, 0, 64, 69
1, 602897, Control_c, 0, 64, 68
1, 602905, Note_off_c, 0, 79, 58
1, 602912, Control_c, 0, 64, 68
1, 602916, Note_on_c, 0, 50, 43
1, 602927, Control_c, 0, 64, 66
1, 602942, Control_c, 0, 64, 61
1, 602943, Note_on_c, 0, 72, 57
1, 602957, Control_c, 0, 64, 49
1, 602972, Control_c, 0, 64, 0
1, 603058, Note_on_c, 0, 79, 46
1, 603060, Control_c, 0, 64, 49
1, 603075, Control_c, 0, 64, 59
1, 603090, Control_c, 0, 64, 62
1, 603104, Control_c, 0, 64, 62
1, 603119, Control_c, 0, 64, 63
1, 603129, Note_off_c, 0, 72, 36
1, 603134, Control_c, 0, 64, 65
1, 603142, Note_off_c, 0, 79, 61
1, 603149, Control_c, 0, 64, 66
1, 603163, Note_on_c, 0, 78, 56
1, 603164, Control_c, 0, 64, 67
1, 603174, Note_on_c, 0, 57, 37
1, 603175, Note_on_c, 0, 60, 38
1, 603178, Control_c, 0, 64, 69
1, 603193, Control_c, 0, 64, 70
1, 603208, Control_c, 0, 64, 71
1, 603223, Control_c, 0, 64, 72
1, 603238, Control_c, 0, 64, 73
1, 603252, Control_c, 0, 64, 75
1, 603254, Note_on_c, 0, 79, 56
1, 603267, Control_c, 0, 64, 77
1, 603282, Control_c, 0, 64, 77
1, 603297, Control_c, 0, 64, 78
1, 603307, Note_off_c, 0, 79, 60
1, 603312, Control_c, 0, 64, 79
1, 603324, Note_off_c, 0, 78, 0
1, 603327, Control_c, 0, 64, 79
1, 603342, Control_c, 0, 64, 80
1, 603345, Note_on_c, 0, 72, 57
1, 603356, Control_c, 0, 64, 81
1, 603368, Note_off_c, 0, 50, 39
1, 603371, Control_c, 0, 64, 83
1, 603380, Poly_aftertouch_c, 0, 78, 0
1, 603386, Control_c, 0, 64, 85
1, 603401, Control_c, 0, 64, 87
1, 603416, Control_c, 0, 64, 91
1, 603418, Note_off_c, 0, 72, 64
1, 603431, Control_c, 0, 64, 94
1, 603438, Note_on_c, 0, 79, 58
1, 603442, Note_off_c, 0, 57, 30
1, 603446, Control_c, 0, 64, 97
1, 603461, Control_c, 0, 64, 100
1, 603483, Note_off_c, 0, 60, 37
1, 603483, Control_c, 0, 64, 102
1, 603513, Control_c, 0, 64, 97
1, 603528, Control_c, 0, 64, 77
1, 603542, Control_c, 0, 64, 62
1, 603557, Control_c, 0, 64, 26
1, 603572, Control_c, 0, 64, 45
1, 603574, Note_on_c, 0, 73, 56
1, 603587, Control_c, 0, 64, 59
1, 603602, Control_c, 0, 64, 64
1, 603607, Note_on_c, 0, 50, 43
1, 603616, Control_c, 0, 64, 68
1, 603631, Control_c, 0, 64, 73
1, 603645, Note_off_c, 0, 73, 62
1, 603646, Control_c, 0, 64, 76
1, 603660, Note_off_c, 0, 50, 62
1, 603683, Note_off_c, 0, 79, 41
1, 603702, Note_on_c, 0, 74, 48
1, 603750, Control_c, 0, 64, 76
1, 603765, Control_c, 0, 64, 75
1, 603777, Note_off_c, 0, 74, 58
1, 603780, Control_c, 0, 64, 74
1, 603795, Control_c, 0, 64, 72
1, 603804, Note_on_c, 0, 76, 56
1, 603809, Control_c, 0, 64, 70
1, 603816, Note_on_c, 0, 61, 42
1, 603824, Control_c, 0, 64, 68
1, 603836, Note_on_c, 0, 58, 35
1, 603839, Control_c, 0, 64, 66
1, 603854, Control_c, 0, 64, 65
1, 603869, Control_c, 0, 64, 64
1, 603883, Control_c, 0, 64, 64
1, 603899, Note_on_c, 0, 74, 54
1, 603901, Note_off_c, 0, 76, 58
1, 603913, Control_c, 0, 64, 63
1, 603927, Control_c, 0, 64, 62
1, 603939, Note_off_c, 0, 58, 57
1, 603942, Control_c, 0, 64, 62
1, 603957, Control_c, 0, 64, 61
1, 603963, Note_off_c, 0, 61, 59
1, 603972, Control_c, 0, 64, 61
1, 603978, Note_off_c, 0, 74, 61
1, 603987, Control_c, 0, 64, 60
1, 603993, Note_on_c, 0, 59, 41
1, 603994, Note_on_c, 0, 79, 59
1, 604001, Control_c, 0, 64, 59
1, 604009, Note_on_c, 0, 62, 45
1, 604016, Control_c, 0, 64, 58
1, 604031, Control_c, 0, 64, 57
1, 604046, Control_c, 0, 64, 56
1, 604060, Control_c, 0, 64, 56
1, 604064, Note_off_c, 0, 62, 48
1, 604075, Control_c, 0, 64, 55
1, 604079, Note_off_c, 0, 59, 56
1, 604090, Control_c, 0, 64, 55
1, 604092, Note_on_c, 0, 74, 56
1, 604105, Control_c, 0, 64, 54
1, 604120, Control_c, 0, 64, 53
1, 604134, Control_c, 0, 64, 51
1, 604149, Control_c, 0, 64, 51
1, 604191, Note_on_c, 0, 83, 59
1, 604197, Note_on_c, 0, 62, 46
1, 604203, Note_off_c, 0, 79, 47
1, 604205, Note_on_c, 0, 59, 39
1, 604232, Control_c, 0, 64, 50
1, 604262, Control_c, 0, 64, 50
1, 604277, Control_c, 0, 64, 49
1, 604278, Note_off_c, 0, 62, 38
1, 604284, Note_off_c, 0, 59, 40
1, 604294, Note_on_c, 0, 81, 62
1, 604307, Note_off_c, 0, 74, 37
1, 604345, Note_off_c, 0, 83, 53
1, 604376, Note_on_c, 0, 79, 61
1, 604380, Control_c, 0, 64, 50
1, 604381, Note_on_c, 0, 62, 46
1, 604383, Note_on_c, 0, 59, 49
1, 604425, Control_c, 0, 64, 50
1, 604432, Note_off_c, 0, 62, 56
1, 604442, Note_off_c, 0, 81, 51
1, 604447, Note_off_c, 0, 59, 57
1, 604461, Note_on_c, 0, 78, 67
1, 604465, Note_off_c, 0, 79, 52
1, 604531, Note_off_c, 0, 78, 63
1, 604548, Note_on_c, 0, 76, 60
1, 604551, Note_on_c, 0, 59, 43
1, 604555, Note_on_c, 0, 62, 54
1, 604579, Note_off_c, 0, 59, 60
1, 604615, Note_off_c, 0, 62, 46
1, 604621, Note_off_c, 0, 76, 64
1, 604629, Note_on_c, 0, 74, 65
1, 604662, Control_c, 0, 64, 48
1, 604677, Control_c, 0, 64, 18
1, 604692, Control_c, 0, 64, 0
1, 604716, Note_off_c, 0, 74, 64
1, 604735, Note_on_c, 0, 50, 45
1, 604746, Note_on_c, 0, 76, 63
1, 604811, Control_c, 0, 64, 61
1, 604825, Control_c, 0, 64, 70
1, 604839, Note_on_c, 0, 79, 59
1, 604840, Control_c, 0, 64, 77
1, 604855, Control_c, 0, 64, 81
1, 604862, Note_off_c, 0, 76, 39
1, 604870, Control_c, 0, 64, 84
1, 604883, Note_off_c, 0, 50, 31
1, 604884, Control_c, 0, 64, 91
1, 604899, Control_c, 0, 64, 97
1, 604910, Note_off_c, 0, 79, 60
1, 604929, Control_c, 0, 64, 85
1, 604932, Note_on_c, 0, 60, 54
1, 604933, Note_on_c, 0, 64, 57
1, 604939, Note_on_c, 0, 78, 65
1, 604944, Control_c, 0, 64, 66
1, 604958, Control_c, 0, 64, 0
1, 605011, Control_c, 0, 64, 17
1, 605026, Control_c, 0, 64, 58
1, 605041, Note_off_c, 0, 78, 60
1, 605041, Control_c, 0, 64, 66
1, 605042, Note_on_c, 0, 79, 65
1, 605056, Control_c, 0, 64, 70
1, 605070, Control_c, 0, 64, 73
1, 605085, Control_c, 0, 64, 75
1, 605100, Control_c, 0, 64, 77
1, 605115, Note_off_c, 0, 79, 59
1, 605115, Control_c, 0, 64, 78
1, 605130, Control_c, 0, 64, 78
1, 605140, Note_on_c, 0, 76, 65
1, 605163, Note_off_c, 0, 60, 59
1, 605175, Control_c, 0, 64, 79
1, 605189, Control_c, 0, 64, 80
1, 605204, Control_c, 0, 64, 82
1, 605219, Note_off_c, 0, 76, 58
1, 605219, Control_c, 0, 64, 85
1, 605223, Note_off_c, 0, 64, 37
1, 605234, Control_c, 0, 64, 87
1, 605243, Note_on_c, 0, 79, 57
1, 605249, Control_c, 0, 64, 89
1, 605263, Control_c, 0, 64, 89
1, 605278, Control_c, 0, 64, 78
1, 605293, Control_c, 0, 64, 59
1, 605304, Note_off_c, 0, 79, 61
1, 605307, Control_c, 0, 64, 0
1, 605349, Note_on_c, 0, 78, 71
1, 605352, Note_on_c, 0, 50, 53
1, 605367, Control_c, 0, 64, 47
1, 605381, Control_c, 0, 64, 67
1, 605396, Control_c, 0, 64, 74
1, 605411, Control_c, 0, 64, 79
1, 605413, Note_off_c, 0, 50, 63
1, 605426, Control_c, 0, 64, 79
1, 605441, Control_c, 0, 64, 81
1, 605450, Note_on_c, 0, 86, 64
1, 605455, Control_c, 0, 64, 82
1, 605470, Control_c, 0, 64, 83
1, 605485, Control_c, 0, 64, 84
1, 605497, Note_off_c, 0, 78, 40
1, 605500, Control_c, 0, 64, 85
1, 605515, Control_c, 0, 64, 86
1, 605527, Note_off_c, 0, 86, 62
1, 605530, Control_c, 0, 64, 87
1, 605538, Note_on_c, 0, 85, 63
1, 605544, Control_c, 0, 64, 87
1, 605559, Control_c, 0, 64, 88
1, 605562, Note_on_c, 0, 66, 68
1, 605583, Note_on_c, 0, 57, 52
1, 605589, Control_c, 0, 64, 88
1, 605646, Note_on_c, 0, 86, 71
1, 605650, Note_off_c, 0, 85, 56
1, 605655, Note_off_c, 0, 66, 54
1, 605685, Note_off_c, 0, 57, 60
1, 605686, Poly_aftertouch_c, 0, 65, 127
1, 605712, Note_off_c, 0, 86, 62
1, 605727, Poly_aftertouch_c, 0, 65, 0
1, 605744, Note_on_c, 0, 78, 73
1, 605804, Control_c, 0, 64, 89
1, 605811, Note_off_c, 0, 78, 53
1, 605819, Control_c, 0, 64, 88
1, 605827, Note_on_c, 0, 86, 71
1, 605834, Control_c, 0, 64, 82
1, 605849, Control_c, 0, 64, 60
1, 605864, Control_c, 0, 64, 0
1, 605923, Note_on_c, 0, 50, 65
1, 605924, Note_on_c, 0, 78, 71
1, 605938, Control_c, 0, 64, 58
1, 605946, Note_off_c, 0, 50, 66
1, 605953, Control_c, 0, 64, 68
1, 605968, Control_c, 0, 64, 72
1, 605983, Control_c, 0, 64, 75
1, 605988, Note_off_c, 0, 78, 64
1, 605999, Note_off_c, 0, 86, 59
1, 606027, Note_on_c, 0, 79, 65
1, 606101, Control_c, 0, 64, 67
1, 606114, Note_off_c, 0, 79, 59
1, 606116, Control_c, 0, 64, 18
1, 606120, Note_on_c, 0, 81, 70
1, 606122, Note_on_c, 0, 69, 61
1, 606128, Note_on_c, 0, 60, 55
1, 606130, Control_c, 0, 64, 0
1, 606160, Control_c, 0, 67, 122
1, 606175, Control_c, 0, 67, 114
1, 606190, Control_c, 0, 64, 45
1, 606190, Control_c, 0, 67, 110
1, 606197, Note_off_c, 0, 81, 62
1, 606204, Control_c, 0, 64, 62
1, 606204, Control_c, 0, 67, 108
1, 606219, Control_c, 0, 64, 66
1, 606219, Control_c, 0, 67, 106
1, 606224, Note_on_c, 0, 79, 67
1, 606232, Note_off_c, 0, 60, 55
1, 606234, Control_c, 0, 64, 66
1, 606248, Control_c, 0, 67, 105
1, 606256, Note_off_c, 0, 69, 61
1, 606263, Control_c, 0, 64, 67
1, 606263, Control_c, 0, 67, 105
1, 606293, Control_c, 0, 64, 65
1, 606293, Control_c, 0, 67, 104
1, 606305, Note_off_c, 0, 79, 59
1, 606308, Control_c, 0, 64, 59
1, 606308, Control_c, 0, 67, 104
1, 606312, Note_on_c, 0, 83, 70
1, 606316, Note_on_c, 0, 67, 52
1, 606319, Note_on_c, 0, 59, 60
1, 606322, Control_c, 0, 64, 51
1, 606322, Control_c, 0, 67, 102
1, 606337, Control_c, 0, 64, 54
1, 606337, Control_c, 0, 67, 101
1, 606352, Control_c, 0, 64, 58
1, 606367, Control_c, 0, 64, 61
1, 606382, Control_c, 0, 64, 64
1, 606397, Note_off_c, 0, 83, 60
1, 606397, Control_c, 0, 64, 66
1, 606408, Note_off_c, 0, 67, 52
1, 606409, Note_on_c, 0, 79, 72
1, 606412, Control_c, 0, 64, 66
1, 606412, Control_c, 0, 67, 102
1, 606416, Note_off_c, 0, 59, 56
1, 606427, Control_c, 0, 64, 64
1, 606442, Control_c, 0, 64, 54
1, 606456, Control_c, 0, 64, 0
1, 606507, Note_on_c, 0, 91, 75
1, 606514, Note_on_c, 0, 59, 48
1, 606520, Note_on_c, 0, 67, 52
1, 606538, Control_c, 0, 64, 58
1, 606553, Control_c, 0, 64, 67
1, 606553, Control_c, 0, 67, 102
1, 606568, Control_c, 0, 64, 69
1, 606568, Control_c, 0, 67, 103
1, 606582, Note_off_c, 0, 79, 38
1, 606594, Note_on_c, 0, 90, 70
1, 606595, Note_off_c, 0, 67, 52
1, 606597, Note_off_c, 0, 59, 54
1, 606614, Control_c, 0, 67, 102
1, 606628, Control_c, 0, 67, 102
1, 606655, Note_off_c, 0, 91, 48
1, 606685, Note_on_c, 0, 59, 42
1, 606686, Note_on_c, 0, 88, 71
1, 606687, Control_c, 0, 67, 103
1, 606689, Note_on_c, 0, 67, 59
1, 606741, Note_off_c, 0, 59, 54
1, 606746, Note_off_c, 0, 67, 53
1, 606765, Note_on_c, 0, 86, 72
1, 606784, Note_off_c, 0, 90, 34
1, 606799, Note_off_c, 0, 88, 56
1, 606841, Note_off_c, 0, 86, 64
1, 606850, Note_on_c, 0, 59, 63
1, 606856, Note_on_c, 0, 84, 66
1, 606889, Note_off_c, 0, 84, 62
1, 606895, Note_off_c, 0, 59, 63
1, 606925, Control_c, 0, 64, 69
1, 606927, Poly_aftertouch_c, 0, 67, 0
1, 606946, Note_on_c, 0, 83, 73
1, 606969, Control_c, 0, 64, 68
1, 606984, Control_c, 0, 64, 59
1, 606984, Control_c, 0, 67, 102
1, 606999, Control_c, 0, 64, 0
1, 607028, Control_c, 0, 67, 101
1, 607042, Note_off_c, 0, 83, 57
1, 607058, Note_on_c, 0, 50, 60
1, 607062, Note_on_c, 0, 76, 72
1, 607087, Control_c, 0, 64, 65
1, 607087, Control_c, 0, 67, 102
1, 607098, Note_off_c, 0, 50, 63
1, 607102, Control_c, 0, 64, 71
1, 607117, Control_c, 0, 64, 74
1, 607146, Control_c, 0, 64, 75
1, 607161, Control_c, 0, 64, 76
1, 607165, Note_on_c, 0, 84, 68
1, 607191, Control_c, 0, 64, 70
1, 607191, Control_c, 0, 67, 101
1, 607206, Control_c, 0, 64, 61
1, 607228, Control_c, 0, 64, 34
1, 607243, Control_c, 0, 64, 37
1, 607258, Control_c, 0, 64, 54
1, 607258, Note_off_c, 0, 84, 64
1, 607264, Note_on_c, 0, 69, 75
1, 607271, Note_on_c, 0, 60, 61
1, 607273, Control_c, 0, 64, 63
1, 607276, Note_on_c, 0, 83, 60
1, 607283, Note_off_c, 0, 76, 37
1, 607287, Control_c, 0, 64, 72
1, 607302, Control_c, 0, 64, 82
1, 607302, Control_c, 0, 67, 102
1, 607317, Control_c, 0, 64, 86
1, 607332, Control_c, 0, 64, 87
1, 607347, Control_c, 0, 64, 87
1, 607347, Control_c, 0, 67, 101
1, 607360, Note_on_c, 0, 84, 78
1, 607376, Control_c, 0, 67, 101
1, 607389, Note_off_c, 0, 83, 44
1, 607400, Note_off_c, 0, 69, 64
1, 607413, Note_off_c, 0, 60, 62
1, 607443, Note_on_c, 0, 81, 74
1, 607451, Control_c, 0, 67, 100
1, 607477, Note_off_c, 0, 84, 61
1, 607481, Control_c, 0, 67, 99
1, 607496, Control_c, 0, 67, 96
1, 607510, Control_c, 0, 64, 86
1, 607510, Control_c, 0, 67, 91
1, 607512, Note_off_c, 0, 81, 61
1, 607525, Control_c, 0, 64, 75
1, 607525, Control_c, 0, 67, 86
1, 607536, Note_on_c, 0, 79, 72
1, 607540, Control_c, 0, 64, 60
1, 607540, Control_c, 0, 67, 79
1, 607555, Control_c, 0, 64, 0
1, 607555, Control_c, 0, 67, 72
1, 607570, Control_c, 0, 67, 63
1, 607584, Control_c, 0, 67, 54
1, 607599, Control_c, 0, 67, 45
1, 607614, Control_c, 0, 67, 38
1, 607629, Control_c, 0, 64, 51
1, 607629, Control_c, 0, 67, 33
1, 607633, Note_on_c, 0, 50, 66
1, 607640, Note_on_c, 0, 78, 74
1, 607643, Control_c, 0, 64, 66
1, 607643, Control_c, 0, 67, 30
1, 607658, Control_c, 0, 64, 74
1, 607658, Control_c, 0, 67, 28
1, 607659, Note_off_c, 0, 50, 64
1, 607664, Note_off_c, 0, 79, 56
1, 607673, Control_c, 0, 64, 80
1, 607673, Control_c, 0, 67, 26
1, 607688, Control_c, 0, 64, 85
1, 607688, Control_c, 0, 67, 25
1, 607703, Control_c, 0, 64, 93
1, 607703, Control_c, 0, 67, 25
1, 607717, Control_c, 0, 64, 104
1, 607729, Note_off_c, 0, 78, 64
1, 607730, Note_on_c, 0, 86, 68
1, 607732, Control_c, 0, 64, 107
1, 607747, Control_c, 0, 64, 100
1, 607762, Control_c, 0, 64, 70
1, 607777, Control_c, 0, 64, 31
1, 607792, Control_c, 0, 64, 0
1, 607822, Control_c, 0, 64, 30
1, 607822, Control_c, 0, 67, 26
1, 607822, Note_on_c, 0, 71, 75
1, 607828, Note_off_c, 0, 86, 62
1, 607831, Note_on_c, 0, 62, 65
1, 607832, Note_on_c, 0, 85, 73
1, 607837, Control_c, 0, 64, 61
1, 607837, Control_c, 0, 67, 26
1, 607851, Control_c, 0, 64, 72
1, 607851, Control_c, 0, 67, 27
1, 607866, Control_c, 0, 64, 79
1, 607866, Control_c, 0, 67, 27
1, 607881, Control_c, 0, 64, 82
1, 607881, Control_c, 0, 67, 28
1, 607895, Control_c, 0, 64, 83
1, 607895, Control_c, 0, 67, 29
1, 607910, Control_c, 0, 64, 85
1, 607910, Control_c, 0, 67, 29
1, 607925, Control_c, 0, 64, 86
1, 607925, Control_c, 0, 67, 30
1, 607932, Note_on_c, 0, 86, 77
1, 607938, Note_off_c, 0, 71, 59
1, 607940, Control_c, 0, 64, 87
1, 607955, Control_c, 0, 64, 89
1, 607966, Note_off_c, 0, 62, 62
1, 607970, Control_c, 0, 64, 89
1, 607991, Control_c, 0, 64, 90
1, 607991, Control_c, 0, 67, 30
1, 607996, Note_off_c, 0, 85, 30
1, 608006, Control_c, 0, 64, 90
1, 608006, Control_c, 0, 67, 31
1, 608018, Note_off_c, 0, 86, 61
1, 608021, Control_c, 0, 64, 92
1, 608035, Control_c, 0, 64, 94
1, 608036, Note_on_c, 0, 78, 77
1, 608050, Control_c, 0, 64, 98
1, 608065, Control_c, 0, 64, 101
1, 608080, Control_c, 0, 64, 105
1, 608095, Control_c, 0, 64, 107
1, 608105, Note_off_c, 0, 78, 55
1, 608116, Note_on_c, 0, 86, 74
1, 608124, Control_c, 0, 64, 89
1, 608139, Control_c, 0, 64, 60
1, 608154, Control_c, 0, 64, 0
1, 608169, Control_c, 0, 67, 30
1, 608204, Note_on_c, 0, 50, 69
1, 608207, Note_on_c, 0, 78, 77
1, 608214, Control_c, 0, 64, 21
1, 608229, Control_c, 0, 64, 64
1, 608239, Note_off_c, 0, 50, 66
1, 608244, Control_c, 0, 64, 80
1, 608259, Control_c, 0, 64, 98
1, 608266, Note_off_c, 0, 78, 64
1, 608273, Control_c, 0, 64, 111
1, 608288, Control_c, 0, 64, 127
1, 608299, Note_off_c, 0, 86, 60
1, 608311, Note_on_c, 0, 79, 75
1, 608362, Control_c, 0, 64, 85
1, 608362, Control_c, 0, 67, 30
1, 608377, Control_c, 0, 64, 63
1, 608392, Control_c, 0, 64, 26
1, 608397, Note_off_c, 0, 79, 60
1, 608400, Note_on_c, 0, 69, 73
1, 608403, Note_on_c, 0, 81, 78
1, 608406, Control_c, 0, 64, 40
1, 608414, Note_on_c, 0, 60, 59
1, 608421, Control_c, 0, 64, 58
1, 608436, Control_c, 0, 64, 66
1, 608451, Control_c, 0, 64, 75
1, 608466, Control_c, 0, 64, 86
1, 608481, Control_c, 0, 64, 91
1, 608490, Note_off_c, 0, 81, 57
1, 608496, Control_c, 0, 64, 93
1, 608502, Note_on_c, 0, 79, 78
1, 608507, Note_off_c, 0, 60, 54
1, 608510, Control_c, 0, 64, 97
1, 608525, Control_c, 0, 64, 104
1, 608540, Control_c, 0, 64, 110
1, 608548, Note_off_c, 0, 69, 57
1, 608555, Control_c, 0, 64, 109
1, 608570, Control_c, 0, 64, 81
1, 608585, Control_c, 0, 64, 50
1, 608589, Note_on_c, 0, 86, 81
1, 608591, Note_on_c, 0, 67, 55
1, 608593, Note_on_c, 0, 59, 57
1, 608599, Control_c, 0, 64, 0
1, 608614, Control_c, 0, 67, 29
1, 608634, Note_off_c, 0, 79, 60
1, 608643, Control_c, 0, 64, 8
1, 608658, Control_c, 0, 64, 65
1, 608673, Control_c, 0, 64, 80
1, 608679, Note_on_c, 0, 83, 81
1, 608684, Note_off_c, 0, 86, 63
1, 608688, Control_c, 0, 64, 94
1, 608697, Note_off_c, 0, 67, 52
1, 608699, Note_off_c, 0, 59, 56
1, 608703, Control_c, 0, 64, 98
1, 608740, Control_c, 0, 67, 29
1, 608770, Control_c, 0, 67, 28
1, 608773, Note_off_c, 0, 83, 62
1, 608785, Note_on_c, 0, 59, 52
1, 608788, Note_on_c, 0, 67, 60
1, 608794, Note_on_c, 0, 91, 75
1, 608799, Control_c, 0, 67, 28
1, 608876, Note_on_c, 0, 90, 80
1, 608886, Note_off_c, 0, 59, 38
1, 608889, Note_off_c, 0, 67, 38
1, 608936, Note_off_c, 0, 91, 55
1, 608962, Control_c, 0, 67, 27
1, 608963, Note_on_c, 0, 88, 79
1, 608965, Note_on_c, 0, 59, 56
1, 608967, Note_on_c, 0, 67, 61
1, 609008, Control_c, 0, 67, 27
1, 609022, Control_c, 0, 67, 26
1, 609028, Note_off_c, 0, 67, 54
1, 609035, Note_off_c, 0, 59, 51
1, 609037, Control_c, 0, 67, 26
1, 609042, Note_on_c, 0, 86, 80
1, 609044, Note_off_c, 0, 90, 55
1, 609052, Control_c, 0, 67, 25
1, 609067, Control_c, 0, 67, 25
1, 609073, Note_off_c, 0, 88, 56
1, 609081, Control_c, 0, 67, 24
1, 609096, Control_c, 0, 67, 24
1, 609111, Control_c, 0, 67, 23
1, 609122, Note_off_c, 0, 86, 64
1, 609126, Control_c, 0, 67, 19
1, 609132, Note_on_c, 0, 59, 64
1, 609133, Note_on_c, 0, 84, 73
1, 609141, Control_c, 0, 67, 15
1, 609144, Note_on_c, 0, 67, 41
1, 609155, Control_c, 0, 67, 10
1, 609163, Note_off_c, 0, 84, 64
1, 609167, Note_off_c, 0, 67, 60
1, 609170, Control_c, 0, 67, 0
1, 609181, Note_off_c, 0, 59, 65
1, 609218, Note_on_c, 0, 83, 74
1, 609259, Control_c, 0, 64, 83
1, 609274, Control_c, 0, 64, 62
1, 609288, Control_c, 0, 64, 0
1, 609299, Note_off_c, 0, 83, 59
1, 609328, Note_on_c, 0, 76, 81
1, 609336, Note_on_c, 0, 50, 60
1, 609348, Control_c, 0, 64, 22
1, 609363, Control_c, 0, 64, 62
1, 609378, Control_c, 0, 64, 71
1, 609390, Note_off_c, 0, 50, 64
1, 609393, Control_c, 0, 64, 77
1, 609408, Control_c, 0, 64, 81
1, 609422, Control_c, 0, 64, 85
1, 609437, Control_c, 0, 64, 93
1, 609443, Note_on_c, 0, 88, 81
1, 609452, Control_c, 0, 64, 106
1, 609473, Control_c, 0, 64, 113
1, 609503, Control_c, 0, 64, 110
1, 609518, Control_c, 0, 64, 106
1, 609533, Control_c, 0, 64, 105
1, 609551, Note_on_c, 0, 87, 79
1, 609552, Note_on_c, 0, 69, 79
1, 609553, Note_off_c, 0, 88, 62
1, 609572, Note_on_c, 0, 60, 58
1, 609578, Control_c, 0, 64, 106
1, 609592, Control_c, 0, 64, 106
1, 609607, Control_c, 0, 64, 107
1, 609622, Control_c, 0, 64, 110
1, 609629, Note_off_c, 0, 76, 39
1, 609637, Control_c, 0, 64, 112
1, 609652, Control_c, 0, 64, 116
1, 609658, Note_on_c, 0, 88, 76
1, 609666, Control_c, 0, 64, 125
1, 609671, Note_off_c, 0, 87, 62
1, 609681, Control_c, 0, 64, 127
1, 609688, Note_off_c, 0, 69, 65
1, 609704, Note_off_c, 0, 60, 62
1, 609741, Note_on_c, 0, 84, 76
1, 609763, Note_off_c, 0, 88, 62
1, 609831, Control_c, 0, 64, 86
1, 609831, Note_on_c, 0, 81, 80
1, 609839, Note_off_c, 0, 84, 60
1, 609845, Control_c, 0, 64, 51
1, 609860, Control_c, 0, 64, 0
1, 609919, Note_on_c, 0, 50, 68
1, 609919, Control_c, 0, 64, 44
1, 609930, Note_on_c, 0, 78, 80
1, 609934, Control_c, 0, 64, 68
1, 609947, Note_off_c, 0, 50, 64
1, 609949, Control_c, 0, 64, 84
1, 609964, Control_c, 0, 64, 127
1, 609975, Note_off_c, 0, 81, 57
1, 610018, Note_on_c, 0, 86, 77
1, 610094, Note_off_c, 0, 78, 56
1, 610096, Control_c, 0, 64, 103
1, 610111, Control_c, 0, 64, 58
1, 610121, Note_on_c, 0, 71, 82
1, 610123, Note_on_c, 0, 85, 74
1, 610126, Control_c, 0, 64, 0
1, 610131, Note_off_c, 0, 86, 60
1, 610132, Note_on_c, 0, 62, 63
1, 610171, Control_c, 0, 64, 59
1, 610186, Control_c, 0, 64, 88
1, 610201, Control_c, 0, 64, 127
1, 610246, Note_on_c, 0, 86, 80
1, 610261, Note_off_c, 0, 71, 57
1, 610329, Note_off_c, 0, 62, 61
1, 610350, Note_on_c, 0, 78, 85
1, 610351, Note_off_c, 0, 85, 0
1, 610355, Note_off_c, 0, 86, 58
1, 610388, Poly_aftertouch_c, 0, 85, 127
1, 610441, Poly_aftertouch_c, 0, 85, 0
1, 610460, Note_on_c, 0, 86, 79
1, 610471, Note_off_c, 0, 78, 61
1, 610657, Note_on_c, 0, 78, 69
1, 610675, Note_on_c, 0, 43, 89
1, 610682, Control_c, 0, 64, 70
1, 610697, Control_c, 0, 64, 0
1, 610741, Control_c, 0, 64, 23
1, 610756, Control_c, 0, 64, 101
1, 610771, Control_c, 0, 64, 127
1, 610788, Note_off_c, 0, 43, 62
1, 610810, Note_off_c, 0, 78, 62
1, 610892, Note_on_c, 0, 79, 74
1, 610894, Note_off_c, 0, 86, 51
1, 611055, Note_on_c, 0, 81, 74
1, 611056, Note_on_c, 0, 69, 68
1, 611067, Note_off_c, 0, 79, 59
1, 611074, Note_on_c, 0, 60, 52
1, 611182, Note_off_c, 0, 81, 60
1, 611195, Note_on_c, 0, 79, 75
1, 611261, Note_off_c, 0, 60, 35
1, 611321, Note_on_c, 0, 91, 76
1, 611326, Note_off_c, 0, 69, 59
1, 611333, Note_on_c, 0, 59, 58
1, 611342, Note_on_c, 0, 67, 53
1, 611423, Note_off_c, 0, 79, 38
1, 611432, Note_on_c, 0, 90, 73
1, 611464, Note_off_c, 0, 59, 53
1, 611478, Note_off_c, 0, 67, 37
1, 611520, Note_off_c, 0, 91, 52
1, 611536, Note_on_c, 0, 88, 70
1, 611548, Note_on_c, 0, 59, 48
1, 611561, Note_on_c, 0, 67, 51
1, 611621, Note_off_c, 0, 90, 52
1, 611623, Note_on_c, 0, 86, 73
1, 611642, Note_off_c, 0, 88, 49
1, 611662, Note_off_c, 0, 67, 37
1, 611671, Note_off_c, 0, 59, 37
1, 611701, Note_off_c, 0, 86, 64
1, 611726, Note_on_c, 0, 84, 67
1, 611738, Note_on_c, 0, 59, 42
1, 611753, Note_on_c, 0, 67, 53
1, 611804, Note_off_c, 0, 84, 58
1, 611805, Note_off_c, 0, 59, 56
1, 611810, Note_off_c, 0, 67, 56
1, 611814, Note_on_c, 0, 83, 66
1, 611886, Note_off_c, 0, 83, 61
1, 611891, Note_on_c, 0, 81, 71
1, 611909, Note_on_c, 0, 67, 48
1, 611912, Note_on_c, 0, 59, 52
1, 611949, Note_off_c, 0, 81, 62
1, 611971, Note_off_c, 0, 67, 60
1, 611975, Note_on_c, 0, 79, 64
1, 612043, Note_off_c, 0, 79, 59
1, 612048, Note_off_c, 0, 59, 37
1, 612056, Note_on_c, 0, 78, 68
1, 612140, Note_on_c, 0, 76, 70
1, 612201, Note_off_c, 0, 78, 41
1, 612219, Note_on_c, 0, 74, 69
1, 612220, Note_off_c, 0, 76, 60
1, 612281, Note_off_c, 0, 74, 65
1, 612298, Note_on_c, 0, 72, 69
1, 612347, Note_off_c, 0, 72, 52
1, 612381, Note_on_c, 0, 71, 62
1, 612450, Note_on_c, 0, 69, 69
1, 612450, Note_off_c, 0, 71, 60
1, 612505, Note_off_c, 0, 69, 66
1, 612529, Note_on_c, 0, 67, 63
1, 612586, Note_off_c, 0, 67, 61
1, 612597, Note_on_c, 0, 66, 68
1, 612671, Note_on_c, 0, 64, 70
1, 612713, Note_off_c, 0, 66, 64
1, 612740, Note_off_c, 0, 64, 64
1, 612743, Note_on_c, 0, 62, 72
1, 612794, Note_off_c, 0, 62, 62
1, 612811, Note_on_c, 0, 60, 65
1, 612876, Note_off_c, 0, 60, 64
1, 612881, Note_on_c, 0, 59, 70
1, 612915, Note_off_c, 0, 59, 54
1, 612943, Control_c, 0, 64, 67
1, 612952, Note_on_c, 0, 57, 69
1, 612952, Note_on_c, 0, 69, 67
1, 612958, Control_c, 0, 64, 0
1, 613018, Control_c, 0, 64, 56
1, 613032, Control_c, 0, 64, 72
1, 613035, Note_on_c, 0, 55, 57
1, 613037, Note_off_c, 0, 57, 59
1, 613038, Note_on_c, 0, 67, 72
1, 613047, Control_c, 0, 64, 86
1, 613059, Note_off_c, 0, 69, 59
1, 613062, Control_c, 0, 64, 100
1, 613077, Control_c, 0, 64, 105
1, 613087, Note_on_c, 0, 54, 74
1, 613090, Note_off_c, 0, 55, 65
1, 613092, Control_c, 0, 64, 111
1, 613107, Control_c, 0, 64, 121
1, 613113, Note_on_c, 0, 66, 73
1, 613120, Note_off_c, 0, 67, 54
1, 613121, Control_c, 0, 64, 127
1, 613146, Note_off_c, 0, 54, 61
1, 613167, Note_off_c, 0, 66, 65
1, 613175, Note_on_c, 0, 52, 76
1, 613183, Note_on_c, 0, 64, 68
1, 613218, Note_off_c, 0, 64, 67
1, 613254, Note_on_c, 0, 50, 73
1, 613257, Note_on_c, 0, 62, 76
1, 613262, Note_off_c, 0, 52, 62
1, 613313, Note_on_c, 0, 48, 74
1, 613321, Note_on_c, 0, 60, 70
1, 613325, Note_off_c, 0, 50, 57
1, 613361, Note_off_c, 0, 62, 55
1, 613381, Note_on_c, 0, 47, 78
1, 613390, Note_on_c, 0, 59, 78
1, 613393, Note_off_c, 0, 48, 63
1, 613418, Note_off_c, 0, 60, 60
1, 613435, Note_off_c, 0, 47, 64
1, 613452, Note_off_c, 0, 59, 65
1, 613468, Note_on_c, 0, 45, 82
1, 613470, Note_on_c, 0, 57, 73
1, 613504, Note_off_c, 0, 57, 62
1, 613527, Note_on_c, 0, 55, 78
1, 613543, Note_on_c, 0, 43, 70
1, 613564, Note_off_c, 0, 45, 53
1, 613590, Note_on_c, 0, 42, 80
1, 613596, Note_on_c, 0, 54, 79
1, 613599, Note_off_c, 0, 43, 62
1, 613633, Note_off_c, 0, 55, 59
1, 613656, Note_on_c, 0, 52, 84
1, 613666, Note_on_c, 0, 40, 74
1, 613667, Note_off_c, 0, 42, 63
1, 613693, Note_off_c, 0, 54, 62
1, 613704, Note_on_c, 0, 38, 72
1, 613726, Note_off_c, 0, 52, 68
1, 613731, Note_off_c, 0, 40, 64
1, 613732, Note_on_c, 0, 50, 76
1, 613765, Control_c, 0, 64, 91
1, 613780, Control_c, 0, 64, 0
1, 613791, Note_off_c, 0, 38, 64
1, 613810, Note_on_c, 0, 49, 91
1, 613812, Note_on_c, 0, 37, 89
1, 613839, Note_off_c, 0, 50, 61
1, 613870, Note_off_c, 0, 49, 65
1, 613885, Control_c, 0, 64, 82
1, 613891, Note_off_c, 0, 37, 65
1, 613900, Control_c, 0, 64, 127
1, 614153, Note_on_c, 0, 57, 84
1, 614153, Note_on_c, 0, 61, 84
1, 614153, Note_on_c, 0, 69, 77
1, 614154, Note_on_c, 0, 64, 80
1, 614158, Note_on_c, 0, 55, 73
1, 614159, Note_on_c, 0, 49, 71
1, 614159, Note_on_c, 0, 52, 80
1, 614162, Note_on_c, 0, 67, 68
1, 614189, Note_off_c, 0, 61, 57
1, 614189, Note_off_c, 0, 57, 59
1, 614190, Note_off_c, 0, 55, 66
1, 614192, Note_off_c, 0, 67, 61
1, 614196, Note_off_c, 0, 69, 63
1, 614198, Note_off_c, 0, 49, 62
1, 614201, Note_off_c, 0, 52, 62
1, 614201, Note_off_c, 0, 64, 64
1, 614239, Note_on_c, 0, 64, 75
1, 614240, Note_on_c, 0, 61, 89
1, 614243, Note_on_c, 0, 69, 80
1, 614249, Note_on_c, 0, 57, 78
1, 614249, Note_on_c, 0, 67, 80
1, 614255, Note_on_c, 0, 55, 73
1, 614255, Note_on_c, 0, 52, 68
1, 614261, Note_on_c, 0, 49, 72
1, 615533, Note_off_c, 0, 61, 59
1, 615620, Note_off_c, 0, 64, 38
1, 615647, Note_off_c, 0, 67, 37
1, 615691, Note_off_c, 0, 57, 57
1, 615692, Note_off_c, 0, 69, 56
1, 615733, Note_off_c, 0, 55, 56
1, 615834, Note_off_c, 0, 52, 45
1, 615869, Note_off_c, 0, 49, 51
1, 616071, Control_c, 0, 64, 118
1, 616086, Control_c, 0, 64, 67
1, 616101, Control_c, 0, 64, 0
1, 616240, Note_on_c, 0, 81, 71
1, 616319, Note_on_c, 0, 49, 39
1, 616391, Control_c, 0, 64, 46
1, 616406, Control_c, 0, 64, 59
1, 616420, Control_c, 0, 64, 63
1, 616435, Control_c, 0, 64, 66
1, 616450, Control_c, 0, 64, 69
1, 616464, Control_c, 0, 64, 75
1, 616479, Control_c, 0, 64, 83
1, 616494, Control_c, 0, 64, 92
1, 616509, Control_c, 0, 64, 102
1, 616524, Control_c, 0, 64, 119
1, 616538, Control_c, 0, 64, 127
1, 616627, Note_on_c, 0, 69, 50
1, 616712, Note_on_c, 0, 76, 55
1, 616785, Note_off_c, 0, 69, 39
1, 616786, Note_on_c, 0, 79, 60
1, 617006, Note_on_c, 0, 82, 74
1, 617051, Note_on_c, 0, 45, 45
1, 617081, Control_c, 0, 64, 97
1, 617087, Note_off_c, 0, 49, 49
1, 617095, Control_c, 0, 64, 68
1, 617107, Note_off_c, 0, 81, 36
1, 617110, Note_off_c, 0, 79, 43
1, 617110, Control_c, 0, 64, 0
1, 617147, Note_off_c, 0, 76, 31
1, 617185, Control_c, 0, 64, 25
1, 617200, Control_c, 0, 64, 61
1, 617214, Control_c, 0, 64, 66
1, 617229, Control_c, 0, 64, 74
1, 617244, Control_c, 0, 64, 84
1, 617259, Control_c, 0, 64, 95
1, 617267, Note_on_c, 0, 73, 45
1, 617274, Control_c, 0, 64, 101
1, 617288, Control_c, 0, 64, 104
1, 617303, Control_c, 0, 64, 104
1, 617318, Control_c, 0, 64, 105
1, 617333, Control_c, 0, 64, 105
1, 617344, Note_on_c, 0, 76, 55
1, 617348, Control_c, 0, 64, 107
1, 617362, Control_c, 0, 64, 112
1, 617377, Control_c, 0, 64, 125
1, 617392, Control_c, 0, 64, 127
1, 617420, Note_on_c, 0, 79, 64
1, 617465, Note_off_c, 0, 82, 57
1, 617476, Note_off_c, 0, 73, 54
1, 617551, Note_off_c, 0, 76, 34
1, 617623, Note_on_c, 0, 81, 80
1, 617636, Note_on_c, 0, 50, 57
1, 617666, Note_off_c, 0, 79, 59
1, 617673, Note_off_c, 0, 45, 64
1, 617688, Control_c, 0, 64, 93
1, 617710, Control_c, 0, 64, 64
1, 617725, Control_c, 0, 64, 0
1, 617800, Control_c, 0, 64, 58
1, 617815, Control_c, 0, 64, 63
1, 617830, Control_c, 0, 64, 65
1, 617844, Control_c, 0, 64, 66
1, 617850, Note_on_c, 0, 72, 56
1, 617859, Control_c, 0, 64, 69
1, 617874, Control_c, 0, 64, 72
1, 617889, Control_c, 0, 64, 76
1, 617904, Control_c, 0, 64, 78
1, 617916, Note_off_c, 0, 72, 64
1, 617918, Control_c, 0, 64, 81
1, 617920, Note_on_c, 0, 74, 58
1, 617933, Control_c, 0, 64, 83
1, 617948, Control_c, 0, 64, 85
1, 617963, Control_c, 0, 64, 87
1, 617978, Control_c, 0, 64, 88
1, 617993, Control_c, 0, 64, 88
1, 618005, Note_on_c, 0, 79, 65
1, 618041, Note_off_c, 0, 74, 50
1, 618156, Control_c, 0, 64, 79
1, 618171, Control_c, 0, 64, 63
1, 618185, Control_c, 0, 64, 0
1, 618192, Note_on_c, 0, 86, 85
1, 618196, Note_off_c, 0, 79, 62
1, 618216, Note_on_c, 0, 38, 56
1, 618237, Note_off_c, 0, 81, 19
1, 618244, Control_c, 0, 64, 53
1, 618257, Note_off_c, 0, 50, 57
1, 618259, Control_c, 0, 64, 69
1, 618274, Control_c, 0, 64, 85
1, 618275, Note_off_c, 0, 86, 61
1, 618289, Control_c, 0, 64, 104
1, 618303, Control_c, 0, 64, 127
1, 618414, Note_on_c, 0, 72, 54
1, 618481, Note_off_c, 0, 72, 61
1, 618488, Note_on_c, 0, 74, 53
1, 618497, Note_off_c, 0, 38, 62
1, 618574, Note_on_c, 0, 78, 65
1, 618584, Note_off_c, 0, 74, 64
1, 618654, Note_off_c, 0, 78, 60
1, 618802, Note_on_c, 0, 83, 78
1, 618839, Note_on_c, 0, 39, 56
1, 618845, Control_c, 0, 64, 92
1, 618859, Control_c, 0, 64, 72
1, 618874, Control_c, 0, 64, 46
1, 618889, Control_c, 0, 64, 0
1, 618977, Control_c, 0, 64, 56
1, 618992, Control_c, 0, 64, 63
1, 619007, Control_c, 0, 64, 66
1, 619022, Control_c, 0, 64, 70
1, 619030, Note_on_c, 0, 81, 57
1, 619037, Control_c, 0, 64, 78
1, 619051, Control_c, 0, 64, 83
1, 619066, Control_c, 0, 64, 86
1, 619081, Control_c, 0, 64, 91
1, 619096, Control_c, 0, 64, 98
1, 619111, Control_c, 0, 64, 106
1, 619112, Note_on_c, 0, 78, 55
1, 619125, Control_c, 0, 64, 127
1, 619142, Note_off_c, 0, 81, 57
1, 619183, Note_on_c, 0, 71, 59
1, 619368, Note_on_c, 0, 80, 73
1, 619393, Note_off_c, 0, 78, 63
1, 619401, Control_c, 0, 64, 103
1, 619411, Note_on_c, 0, 40, 52
1, 619415, Control_c, 0, 64, 87
1, 619418, Note_off_c, 0, 83, 58
1, 619430, Control_c, 0, 64, 78
1, 619445, Control_c, 0, 64, 68
1, 619460, Control_c, 0, 64, 53
1, 619467, Note_off_c, 0, 39, 52
1, 619475, Note_off_c, 0, 71, 37
1, 619475, Control_c, 0, 64, 0
1, 619579, Control_c, 0, 64, 46
1, 619593, Note_on_c, 0, 77, 42
1, 619593, Control_c, 0, 64, 61
1, 619608, Control_c, 0, 64, 65
1, 619623, Control_c, 0, 64, 67
1, 619638, Control_c, 0, 64, 70
1, 619653, Control_c, 0, 64, 76
1, 619662, Note_on_c, 0, 74, 48
1, 619668, Control_c, 0, 64, 82
1, 619682, Control_c, 0, 64, 87
1, 619697, Control_c, 0, 64, 92
1, 619712, Control_c, 0, 64, 105
1, 619727, Control_c, 0, 64, 127
1, 619745, Note_off_c, 0, 77, 36
1, 619748, Note_on_c, 0, 71, 48
1, 619751, Note_off_c, 0, 74, 62
1, 619942, Note_on_c, 0, 81, 67
1, 619966, Note_on_c, 0, 37, 48
1, 619986, Control_c, 0, 64, 106
1, 620001, Control_c, 0, 64, 90
1, 620015, Control_c, 0, 64, 76
1, 620030, Control_c, 0, 64, 62
1, 620039, Note_off_c, 0, 40, 45
1, 620045, Control_c, 0, 64, 0
1, 620054, Note_off_c, 0, 71, 36
1, 620055, Note_off_c, 0, 80, 60
1, 620133, Control_c, 0, 64, 48
1, 620148, Control_c, 0, 64, 61
1, 620163, Control_c, 0, 64, 63
1, 620179, Control_c, 0, 64, 64
1, 620194, Control_c, 0, 64, 66
1, 620195, Note_on_c, 0, 79, 37
1, 620209, Control_c, 0, 64, 69
1, 620224, Control_c, 0, 64, 73
1, 620238, Control_c, 0, 64, 76
1, 620243, Note_on_c, 0, 76, 53
1, 620253, Control_c, 0, 64, 77
1, 620268, Control_c, 0, 64, 79
1, 620283, Control_c, 0, 64, 81
1, 620298, Control_c, 0, 64, 83
1, 620298, Control_c, 0, 67, 8
1, 620312, Control_c, 0, 64, 84
1, 620312, Control_c, 0, 67, 10
1, 620327, Control_c, 0, 64, 85
1, 620327, Control_c, 0, 67, 12
1, 620333, Note_off_c, 0, 79, 39
1, 620339, Note_off_c, 0, 76, 63
1, 620342, Control_c, 0, 64, 86
1, 620342, Control_c, 0, 67, 14
1, 620357, Control_c, 0, 67, 16
1, 620360, Note_on_c, 0, 69, 50
1, 620371, Control_c, 0, 67, 19
1, 620386, Control_c, 0, 67, 23
1, 620401, Control_c, 0, 67, 26
1, 620416, Control_c, 0, 67, 30
1, 620431, Control_c, 0, 67, 32
1, 620446, Control_c, 0, 67, 33
1, 620461, Control_c, 0, 67, 35
1, 620476, Control_c, 0, 67, 36
1, 620491, Control_c, 0, 64, 84
1, 620491, Control_c, 0, 67, 37
1, 620505, Control_c, 0, 64, 83
1, 620505, Control_c, 0, 67, 38
1, 620520, Control_c, 0, 64, 81
1, 620520, Control_c, 0, 67, 40
1, 620531, Note_on_c, 0, 78, 68
1, 620535, Control_c, 0, 64, 77
1, 620535, Control_c, 0, 67, 43
1, 620550, Control_c, 0, 64, 72
1, 620550, Control_c, 0, 67, 45
1, 620565, Note_on_c, 0, 38, 42
1, 620565, Control_c, 0, 64, 65
1, 620565, Control_c, 0, 67, 47
1, 620579, Control_c, 0, 64, 51
1, 620579, Control_c, 0, 67, 48
1, 620583, Note_off_c, 0, 81, 56
1, 620594, Control_c, 0, 64, 0
1, 620594, Control_c, 0, 67, 49
1, 620609, Note_off_c, 0, 69, 39
1, 620609, Control_c, 0, 67, 50
1, 620623, Control_c, 0, 67, 52
1, 620626, Note_off_c, 0, 37, 35
1, 620638, Control_c, 0, 67, 54
1, 620653, Control_c, 0, 67, 55
1, 620668, Control_c, 0, 64, 42
1, 620668, Control_c, 0, 67, 57
1, 620683, Control_c, 0, 64, 58
1, 620683, Control_c, 0, 67, 59
1, 620705, Control_c, 0, 64, 63
1, 620705, Control_c, 0, 67, 61
1, 620720, Control_c, 0, 64, 65
1, 620720, Control_c, 0, 67, 63
1, 620735, Control_c, 0, 64, 66
1, 620735, Control_c, 0, 67, 65
1, 620746, Note_on_c, 0, 75, 44
1, 620750, Control_c, 0, 64, 68
1, 620750, Control_c, 0, 67, 69
1, 620765, Control_c, 0, 64, 72
1, 620765, Control_c, 0, 67, 72
1, 620780, Control_c, 0, 64, 75
1, 620780, Control_c, 0, 67, 75
1, 620795, Control_c, 0, 64, 77
1, 620795, Control_c, 0, 67, 78
1, 620810, Control_c, 0, 64, 78
1, 620810, Control_c, 0, 67, 81
1, 620825, Note_on_c, 0, 72, 48
1, 620825, Control_c, 0, 64, 80
1, 620825, Control_c, 0, 67, 84
1, 620839, Control_c, 0, 64, 81
1, 620839, Control_c, 0, 67, 87
1, 620854, Control_c, 0, 64, 81
1, 620854, Control_c, 0, 67, 89
1, 620869, Control_c, 0, 64, 82
1, 620869, Control_c, 0, 67, 91
1, 620884, Control_c, 0, 67, 93
1, 620897, Note_off_c, 0, 72, 62
1, 620899, Control_c, 0, 67, 96
1, 620905, Note_on_c, 0, 69, 57
1, 620913, Control_c, 0, 67, 99
1, 620928, Control_c, 0, 67, 102
1, 620943, Control_c, 0, 67, 105
1, 620957, Control_c, 0, 67, 108
1, 620972, Control_c, 0, 67, 110
1, 620983, Note_off_c, 0, 75, 30
1, 620988, Control_c, 0, 67, 113
1, 621003, Control_c, 0, 67, 116
1, 621018, Control_c, 0, 67, 118
1, 621033, Control_c, 0, 67, 121
1, 621048, Control_c, 0, 64, 81
1, 621048, Control_c, 0, 67, 122
1, 621062, Control_c, 0, 64, 80
1, 621062, Control_c, 0, 67, 124
1, 621077, Control_c, 0, 64, 79
1, 621077, Control_c, 0, 67, 125
1, 621092, Control_c, 0, 64, 77
1, 621092, Control_c, 0, 67, 127
1, 621099, Note_on_c, 0, 79, 67
1, 621107, Control_c, 0, 64, 75
1, 621122, Control_c, 0, 64, 71
1, 621136, Control_c, 0, 64, 65
1, 621140, Note_on_c, 0, 35, 31
1, 621151, Control_c, 0, 64, 50
1, 621166, Control_c, 0, 64, 0
1, 621174, Note_off_c, 0, 78, 51
1, 621181, Note_off_c, 0, 38, 44
1, 621212, Note_off_c, 0, 69, 36
1, 621254, Control_c, 0, 64, 44
1, 621269, Control_c, 0, 64, 58
1, 621284, Control_c, 0, 64, 62
1, 621299, Control_c, 0, 64, 63
1, 621314, Control_c, 0, 64, 64
1, 621316, Note_on_c, 0, 77, 49
1, 621328, Control_c, 0, 64, 66
1, 621343, Control_c, 0, 64, 68
1, 621358, Control_c, 0, 64, 70
1, 621373, Control_c, 0, 64, 72
1, 621388, Control_c, 0, 64, 73
1, 621403, Control_c, 0, 64, 75
1, 621406, Note_on_c, 0, 74, 50
1, 621418, Control_c, 0, 64, 77
1, 621433, Control_c, 0, 64, 78
1, 621453, Note_off_c, 0, 77, 51
1, 621454, Control_c, 0, 64, 79
1, 621484, Control_c, 0, 64, 79
1, 621516, Note_on_c, 0, 67, 47
1, 621551, Note_off_c, 0, 79, 53
1, 621555, Note_off_c, 0, 74, 38
1, 621632, Control_c, 0, 64, 79
1, 621647, Control_c, 0, 64, 78
1, 621662, Control_c, 0, 64, 77
1, 621677, Control_c, 0, 64, 75
1, 621692, Control_c, 0, 64, 73
1, 621697, Note_on_c, 0, 79, 61
1, 621707, Control_c, 0, 64, 71
1, 621722, Control_c, 0, 64, 65
1, 621736, Control_c, 0, 64, 56
1, 621740, Note_on_c, 0, 36, 36
1, 621751, Control_c, 0, 64, 0
1, 621781, Note_off_c, 0, 35, 42
1, 621811, Note_off_c, 0, 67, 34
1, 621856, Control_c, 0, 64, 46
1, 621871, Control_c, 0, 64, 58
1, 621885, Control_c, 0, 64, 62
1, 621900, Control_c, 0, 64, 63
1, 621915, Control_c, 0, 64, 64
1, 621930, Control_c, 0, 64, 66
1, 621931, Note_on_c, 0, 76, 37
1, 621945, Control_c, 0, 64, 69
1, 621959, Control_c, 0, 64, 72
1, 621974, Control_c, 0, 64, 74
1, 621989, Control_c, 0, 64, 76
1, 622003, Control_c, 0, 64, 78
1, 622015, Note_on_c, 0, 72, 42
1, 622018, Control_c, 0, 64, 80
1, 622033, Control_c, 0, 64, 81
1, 622048, Control_c, 0, 64, 83
1, 622063, Control_c, 0, 64, 84
1, 622071, Note_off_c, 0, 76, 28
1, 622077, Control_c, 0, 64, 85
1, 622104, Note_off_c, 0, 72, 36
1, 622113, Note_on_c, 0, 67, 41
1, 622118, Note_off_c, 0, 79, 56
1, 622306, Control_c, 0, 64, 84
1, 622321, Control_c, 0, 64, 84
1, 622331, Note_off_c, 0, 67, 36
1, 622336, Control_c, 0, 64, 83
1, 622348, Note_on_c, 0, 79, 72
1, 622351, Control_c, 0, 64, 81
1, 622366, Control_c, 0, 64, 79
1, 622381, Control_c, 0, 64, 73
1, 622395, Control_c, 0, 64, 65
1, 622400, Note_on_c, 0, 38, 31
1, 622410, Control_c, 0, 64, 46
1, 622411, Note_off_c, 0, 36, 43
1, 622425, Control_c, 0, 64, 0
1, 622499, Control_c, 0, 64, 51
1, 622514, Control_c, 0, 64, 62
1, 622528, Control_c, 0, 64, 65
1, 622543, Control_c, 0, 64, 66
1, 622558, Control_c, 0, 64, 68
1, 622574, Control_c, 0, 64, 72
1, 622581, Note_on_c, 0, 71, 52
1, 622589, Control_c, 0, 64, 77
1, 622604, Control_c, 0, 64, 81
1, 622619, Control_c, 0, 64, 84
1, 622633, Control_c, 0, 64, 86
1, 622648, Control_c, 0, 64, 88
1, 622663, Control_c, 0, 64, 89
1, 622678, Control_c, 0, 64, 89
1, 622682, Note_on_c, 0, 74, 46
1, 622692, Control_c, 0, 64, 90
1, 622720, Note_off_c, 0, 74, 64
1, 622721, Note_off_c, 0, 38, 40
1, 622732, Note_off_c, 0, 71, 31
1, 622748, Note_on_c, 0, 76, 51
1, 622792, Note_off_c, 0, 76, 56
1, 622796, Control_c, 0, 64, 89
1, 622825, Control_c, 0, 64, 88
1, 622840, Control_c, 0, 64, 87
1, 622841, Note_on_c, 0, 74, 46
1, 622855, Control_c, 0, 64, 86
1, 622870, Control_c, 0, 64, 84
1, 622885, Control_c, 0, 64, 82
1, 622899, Control_c, 0, 64, 80
1, 622914, Control_c, 0, 64, 78
1, 622927, Note_off_c, 0, 79, 37
1, 622929, Control_c, 0, 64, 76
1, 622948, Note_on_c, 0, 78, 49
1, 622951, Control_c, 0, 64, 73
1, 622965, Control_c, 0, 64, 69
1, 622966, Note_on_c, 0, 38, 24
1, 622970, Note_off_c, 0, 74, 39
1, 622980, Control_c, 0, 64, 63
1, 622995, Control_c, 0, 64, 40
1, 623010, Control_c, 0, 64, 0
1, 623114, Control_c, 0, 64, 44
1, 623129, Control_c, 0, 64, 57
1, 623144, Control_c, 0, 64, 62
1, 623158, Control_c, 0, 64, 63
1, 623173, Control_c, 0, 64, 64
1, 623183, Note_on_c, 0, 76, 51
1, 623188, Control_c, 0, 64, 66
1, 623203, Control_c, 0, 64, 68
1, 623218, Control_c, 0, 64, 70
1, 623232, Control_c, 0, 64, 71
1, 623247, Note_off_c, 0, 76, 53
1, 623247, Control_c, 0, 64, 71
1, 623283, Note_on_c, 0, 72, 49
1, 623320, Note_off_c, 0, 72, 63
1, 623360, Note_off_c, 0, 38, 41
1, 623370, Note_on_c, 0, 71, 44
1, 623426, Control_c, 0, 64, 71
1, 623450, Note_on_c, 0, 72, 53
1, 623452, Note_off_c, 0, 71, 50
1, 623455, Control_c, 0, 64, 70
1, 623470, Control_c, 0, 64, 70
1, 623485, Control_c, 0, 64, 69
1, 623500, Control_c, 0, 64, 68
1, 623515, Control_c, 0, 64, 67
1, 623529, Control_c, 0, 64, 66
1, 623544, Control_c, 0, 64, 65
1, 623559, Control_c, 0, 64, 65
1, 623573, Control_c, 0, 64, 64
1, 623582, Note_on_c, 0, 79, 57
1, 623588, Control_c, 0, 64, 63
1, 623592, Note_off_c, 0, 72, 63
1, 623603, Control_c, 0, 64, 61
1, 623618, Control_c, 0, 64, 52
1, 623624, Note_off_c, 0, 78, 55
1, 623633, Control_c, 0, 64, 0
1, 623648, Note_on_c, 0, 38, 24
1, 623760, Control_c, 0, 64, 34
1, 623774, Control_c, 0, 64, 56
1, 623789, Control_c, 0, 64, 62
1, 623804, Control_c, 0, 64, 63
1, 623819, Control_c, 0, 64, 64
1, 623834, Control_c, 0, 64, 65
1, 623849, Control_c, 0, 64, 66
1, 623850, Note_on_c, 0, 71, 41
1, 623863, Control_c, 0, 64, 68
1, 623878, Control_c, 0, 64, 70
1, 623893, Control_c, 0, 64, 72
1, 623908, Control_c, 0, 64, 73
1, 623922, Control_c, 0, 64, 74
1, 623937, Control_c, 0, 64, 75
1, 623949, Note_on_c, 0, 74, 44
1, 623952, Control_c, 0, 64, 75
1, 623981, Control_c, 0, 64, 76
1, 624005, Note_off_c, 0, 74, 58
1, 624029, Note_off_c, 0, 71, 34
1, 624033, Note_off_c, 0, 38, 38
1, 624047, Note_on_c, 0, 76, 39
1, 624109, Note_off_c, 0, 76, 55
1, 624151, Note_on_c, 0, 74, 37
1, 624190, Control_c, 0, 64, 75
1, 624220, Control_c, 0, 64, 74
1, 624235, Control_c, 0, 64, 74
1, 624250, Control_c, 0, 64, 73
1, 624259, Note_off_c, 0, 79, 30
1, 624264, Control_c, 0, 64, 72
1, 624279, Control_c, 0, 64, 71
1, 624282, Note_on_c, 0, 78, 45
1, 624294, Control_c, 0, 64, 70
1, 624309, Control_c, 0, 64, 69
1, 624311, Note_off_c, 0, 74, 36
1, 624324, Control_c, 0, 64, 68
1, 624339, Control_c, 0, 64, 67
1, 624339, Note_on_c, 0, 38, 27
1, 624353, Control_c, 0, 64, 65
1, 624368, Control_c, 0, 64, 62
1, 624383, Control_c, 0, 64, 48
1, 624397, Control_c, 0, 64, 0
1, 624508, Control_c, 0, 64, 43
1, 624523, Control_c, 0, 64, 56
1, 624538, Control_c, 0, 64, 59
1, 624552, Control_c, 0, 64, 60
1, 624567, Control_c, 0, 64, 61
1, 624582, Control_c, 0, 64, 62
1, 624587, Note_on_c, 0, 76, 40
1, 624596, Control_c, 0, 64, 64
1, 624611, Control_c, 0, 64, 64
1, 624626, Control_c, 0, 64, 65
1, 624641, Control_c, 0, 64, 66
1, 624656, Control_c, 0, 64, 67
1, 624670, Control_c, 0, 64, 68
1, 624685, Note_off_c, 0, 76, 51
1, 624685, Control_c, 0, 64, 70
1, 624700, Control_c, 0, 64, 72
1, 624713, Note_on_c, 0, 72, 42
1, 624715, Control_c, 0, 64, 73
1, 624730, Control_c, 0, 64, 73
1, 624744, Control_c, 0, 64, 74
1, 624759, Control_c, 0, 64, 75
1, 624774, Control_c, 0, 64, 76
1, 624789, Control_c, 0, 64, 76
1, 624796, Note_off_c, 0, 72, 60
1, 624804, Control_c, 0, 64, 77
1, 624849, Control_c, 0, 64, 77
1, 624857, Note_on_c, 0, 71, 34
1, 624922, Control_c, 0, 64, 78
1, 624975, Note_off_c, 0, 71, 45
1, 624986, Note_on_c, 0, 72, 41
1, 625198, Control_c, 0, 64, 77
1, 625227, Control_c, 0, 64, 76
1, 625242, Control_c, 0, 64, 75
1, 625257, Control_c, 0, 64, 74
1, 625272, Control_c, 0, 64, 72
1, 625285, Note_off_c, 0, 72, 32
1, 625287, Control_c, 0, 64, 71
1, 625301, Note_on_c, 0, 79, 34
1, 625301, Control_c, 0, 64, 69
1, 625316, Control_c, 0, 64, 67
1, 625321, Note_on_c, 0, 71, 27
1, 625331, Control_c, 0, 64, 65
1, 625341, Note_off_c, 0, 78, 36
1, 625345, Note_on_c, 0, 31, 20
1, 625345, Control_c, 0, 64, 64
1, 625351, Note_off_c, 0, 38, 41
1, 625360, Control_c, 0, 64, 62
1, 625375, Control_c, 0, 64, 56
1, 625390, Control_c, 0, 64, 30
1, 625405, Control_c, 0, 64, 0
1, 625493, Control_c, 0, 64, 49
1, 625508, Control_c, 0, 64, 66
1, 625523, Control_c, 0, 64, 73
1, 625538, Control_c, 0, 64, 80
1, 625552, Control_c, 0, 64, 85
1, 625567, Control_c, 0, 64, 90
1, 625572, Note_off_c, 0, 71, 42
1, 625582, Control_c, 0, 64, 96
1, 625597, Control_c, 0, 64, 102
1, 625612, Control_c, 0, 64, 107
1, 625627, Control_c, 0, 64, 110
1, 625642, Control_c, 0, 64, 112
1, 625657, Control_c, 0, 64, 114
1, 625671, Control_c, 0, 64, 116
1, 625684, Note_off_c, 0, 79, 41
1, 625686, Control_c, 0, 64, 118
1, 625701, Control_c, 0, 64, 119
1, 625716, Control_c, 0, 64, 121
1, 625877, Note_on_c, 0, 78, 44
1, 626027, Note_off_c, 0, 78, 56
1, 626050, Control_c, 0, 64, 119
1, 626067, Note_on_c, 0, 79, 44
1, 626168, Control_c, 0, 64, 118
1, 626223, Note_off_c, 0, 31, 31
1, 626231, Note_on_c, 0, 91, 54
1, 626255, Note_off_c, 0, 79, 31
1, 626272, Control_c, 0, 64, 116
1, 626333, Note_on_c, 0, 90, 58
1, 626357, Note_off_c, 0, 91, 29
1, 626450, Note_on_c, 0, 88, 46
1, 626530, Note_off_c, 0, 90, 30
1, 626544, Note_on_c, 0, 86, 51
1, 626566, Note_off_c, 0, 88, 35
1, 626587, Note_off_c, 0, 86, 63
1, 626623, Note_on_c, 0, 84, 59
1, 626668, Note_off_c, 0, 84, 53
1, 626726, Note_on_c, 0, 83, 49
1, 626774, Note_off_c, 0, 83, 59
1, 626792, Note_on_c, 0, 81, 58
1, 626834, Note_off_c, 0, 81, 62
1, 626868, Note_on_c, 0, 79, 54
1, 626936, Note_off_c, 0, 79, 42
1, 626945, Note_on_c, 0, 78, 60
1, 627028, Note_on_c, 0, 76, 67
1, 627058, Note_off_c, 0, 78, 47
1, 627096, Note_off_c, 0, 76, 63
1, 627109, Note_on_c, 0, 74, 59
1, 627156, Note_off_c, 0, 74, 62
1, 627184, Note_on_c, 0, 72, 56
1, 627226, Note_off_c, 0, 72, 46
1, 627263, Note_on_c, 0, 71, 54
1, 627322, Note_off_c, 0, 71, 61
1, 627327, Note_on_c, 0, 69, 66
1, 627375, Note_off_c, 0, 69, 65
1, 627403, Note_on_c, 0, 67, 60
1, 627466, Note_off_c, 0, 67, 56
1, 627472, Note_on_c, 0, 66, 68
1, 627549, Note_on_c, 0, 64, 69
1, 627589, Note_off_c, 0, 66, 64
1, 627614, Note_on_c, 0, 62, 72
1, 627617, Note_off_c, 0, 64, 62
1, 627622, Control_c, 0, 67, 122
1, 627637, Control_c, 0, 67, 117
1, 627652, Control_c, 0, 64, 118
1, 627652, Control_c, 0, 67, 113
1, 627663, Note_off_c, 0, 62, 62
1, 627667, Control_c, 0, 67, 110
1, 627682, Control_c, 0, 67, 108
1, 627689, Note_on_c, 0, 60, 66
1, 627696, Control_c, 0, 67, 104
1, 627711, Control_c, 0, 64, 119
1, 627711, Control_c, 0, 67, 101
1, 627726, Control_c, 0, 67, 98
1, 627740, Control_c, 0, 64, 121
1, 627740, Control_c, 0, 67, 96
1, 627741, Note_off_c, 0, 60, 64
1, 627753, Note_on_c, 0, 59, 73
1, 627755, Control_c, 0, 67, 94
1, 627770, Control_c, 0, 64, 127
1, 627770, Control_c, 0, 67, 92
1, 627785, Control_c, 0, 67, 90
1, 627796, Note_off_c, 0, 59, 59
1, 627800, Control_c, 0, 67, 87
1, 627815, Control_c, 0, 67, 83
1, 627830, Note_on_c, 0, 69, 66
1, 627830, Control_c, 0, 64, 96
1, 627830, Control_c, 0, 67, 80
1, 627839, Note_on_c, 0, 57, 70
1, 627845, Control_c, 0, 64, 69
1, 627845, Control_c, 0, 67, 76
1, 627859, Control_c, 0, 64, 8
1, 627859, Control_c, 0, 67, 73
1, 627874, Control_c, 0, 64, 0
1, 627874, Control_c, 0, 67, 70
1, 627889, Control_c, 0, 67, 66
1, 627904, Control_c, 0, 64, 15
1, 627904, Control_c, 0, 67, 60
1, 627919, Note_on_c, 0, 67, 65
1, 627919, Control_c, 0, 64, 57
1, 627919, Control_c, 0, 67, 54
1, 627925, Note_on_c, 0, 55, 59
1, 627931, Note_off_c, 0, 57, 58
1, 627934, Control_c, 0, 64, 66
1, 627934, Control_c, 0, 67, 48
1, 627948, Control_c, 0, 64, 71
1, 627948, Control_c, 0, 67, 43
1, 627963, Control_c, 0, 64, 75
1, 627963, Control_c, 0, 67, 39
1, 627970, Note_off_c, 0, 69, 39
1, 627976, Note_on_c, 0, 54, 74
1, 627978, Control_c, 0, 64, 76
1, 627978, Control_c, 0, 67, 35
1, 627981, Note_off_c, 0, 55, 66
1, 627993, Note_on_c, 0, 66, 68
1, 627993, Control_c, 0, 64, 77
1, 627993, Control_c, 0, 67, 31
1, 628008, Control_c, 0, 67, 26
1, 628010, Note_off_c, 0, 67, 49
1, 628022, Control_c, 0, 67, 22
1, 628037, Control_c, 0, 67, 18
1, 628043, Note_off_c, 0, 54, 62
1, 628049, Note_off_c, 0, 66, 65
1, 628052, Control_c, 0, 67, 16
1, 628056, Note_on_c, 0, 64, 71
1, 628067, Control_c, 0, 67, 13
1, 628068, Note_on_c, 0, 52, 72
1, 628082, Control_c, 0, 67, 10
1, 628090, Note_off_c, 0, 64, 64
1, 628096, Control_c, 0, 67, 0
1, 628131, Note_on_c, 0, 62, 73
1, 628139, Note_on_c, 0, 50, 71
1, 628152, Note_off_c, 0, 52, 60
1, 628206, Note_on_c, 0, 60, 70
1, 628212, Note_on_c, 0, 48, 69
1, 628221, Note_off_c, 0, 50, 61
1, 628244, Note_off_c, 0, 62, 57
1, 628273, Note_on_c, 0, 59, 77
1, 628277, Note_on_c, 0, 47, 81
1, 628289, Note_off_c, 0, 48, 63
1, 628295, Note_off_c, 0, 60, 61
1, 628329, Note_off_c, 0, 59, 65
1, 628333, Note_off_c, 0, 47, 65
1, 628343, Note_on_c, 0, 57, 71
1, 628366, Note_on_c, 0, 45, 83
1, 628369, Note_off_c, 0, 57, 67
1, 628405, Note_on_c, 0, 55, 77
1, 628441, Note_on_c, 0, 43, 71
1, 628453, Note_off_c, 0, 45, 55
1, 628476, Note_on_c, 0, 54, 81
1, 628492, Note_on_c, 0, 42, 73
1, 628506, Note_off_c, 0, 43, 58
1, 628512, Note_off_c, 0, 55, 60
1, 628520, Control_c, 0, 64, 76
1, 628542, Note_on_c, 0, 52, 85
1, 628571, Note_off_c, 0, 42, 64
1, 628572, Note_on_c, 0, 40, 73
1, 628575, Note_off_c, 0, 54, 62
1, 628579, Control_c, 0, 64, 76
1, 628603, Note_on_c, 0, 38, 74
1, 628613, Note_off_c, 0, 40, 64
1, 628615, Note_off_c, 0, 52, 67
1, 628620, Note_on_c, 0, 50, 75
1, 628624, Control_c, 0, 64, 75
1, 628639, Control_c, 0, 64, 71
1, 628653, Control_c, 0, 64, 55
1, 628668, Control_c, 0, 64, 0
1, 628686, Note_off_c, 0, 38, 64
1, 628700, Note_on_c, 0, 49, 88
1, 628700, Note_on_c, 0, 37, 89
1, 628726, Note_off_c, 0, 50, 62
1, 628762, Note_off_c, 0, 49, 64
1, 628772, Control_c, 0, 64, 44
1, 628784, Note_off_c, 0, 37, 65
1, 628787, Control_c, 0, 64, 82
1, 628801, Control_c, 0, 64, 127
1, 629032, Note_on_c, 0, 57, 74
1, 629033, Note_on_c, 0, 69, 74
1, 629036, Note_on_c, 0, 61, 74
1, 629037, Note_on_c, 0, 64, 73
1, 629038, Note_on_c, 0, 49, 63
1, 629039, Note_on_c, 0, 55, 63
1, 629041, Note_on_c, 0, 52, 70
1, 629046, Note_on_c, 0, 67, 63
1, 629058, Note_off_c, 0, 57, 66
1, 629061, Note_off_c, 0, 61, 64
1, 629066, Note_off_c, 0, 55, 67
1, 629067, Note_off_c, 0, 64, 65
1, 629071, Note_off_c, 0, 67, 67
1, 629072, Note_off_c, 0, 49, 60
1, 629072, Note_off_c, 0, 69, 63
1, 629073, Note_off_c, 0, 52, 66
1, 629112, Note_on_c, 0, 64, 71
1, 629112, Note_on_c, 0, 61, 85
1, 629112, Note_on_c, 0, 69, 73
1, 629120, Note_on_c, 0, 57, 74
1, 629120, Note_on_c, 0, 67, 79
1, 629131, Note_on_c, 0, 52, 71
1, 629133, Note_on_c, 0, 55, 68
1, 629139, Note_on_c, 0, 49, 64
1, 630318, Note_off_c, 0, 57, 50
1, 630348, Note_off_c, 0, 55, 37
1, 630409, Note_off_c, 0, 52, 42
1, 630450, Note_off_c, 0, 67, 55
1, 630462, Note_off_c, 0, 49, 60
1, 630508, Note_off_c, 0, 69, 53
1, 630595, Note_off_c, 0, 61, 57
1, 630627, Note_off_c, 0, 64, 26
1, 630737, Control_c, 0, 64, 77
1, 630752, Control_c, 0, 64, 34
1, 630766, Control_c, 0, 64, 0
1, 630779, Note_on_c, 0, 60, 86
1, 630781, Note_on_c, 0, 36, 78
1, 630786, Note_on_c, 0, 48, 89
1, 630826, Control_c, 0, 64, 61
1, 630829, Note_off_c, 0, 36, 65
1, 630840, Note_off_c, 0, 48, 63
1, 630840, Control_c, 0, 64, 127
1, 630855, Note_off_c, 0, 60, 60
1, 631091, Note_on_c, 0, 60, 73
1, 631094, Note_on_c, 0, 58, 75
1, 631094, Note_on_c, 0, 64, 74
1, 631097, Note_on_c, 0, 70, 64
1, 631097, Note_on_c, 0, 52, 70
1, 631100, Note_on_c, 0, 67, 65
1, 631103, Note_on_c, 0, 55, 61
1, 631109, Note_on_c, 0, 48, 51
1, 631118, Note_off_c, 0, 60, 63
1, 631119, Note_off_c, 0, 58, 67
1, 631123, Note_off_c, 0, 70, 67
1, 631125, Note_off_c, 0, 64, 66
1, 631131, Note_off_c, 0, 52, 67
1, 631131, Note_off_c, 0, 55, 67
1, 631132, Note_off_c, 0, 48, 56
1, 631132, Note_off_c, 0, 67, 63
1, 631169, Note_on_c, 0, 70, 88
1, 631172, Note_on_c, 0, 60, 82
1, 631173, Note_on_c, 0, 64, 70
1, 631174, Note_on_c, 0, 67, 68
1, 631175, Note_on_c, 0, 58, 78
1, 631178, Note_on_c, 0, 52, 61
1, 631194, Note_on_c, 0, 55, 75
1, 631201, Note_on_c, 0, 48, 60
1, 631668, Note_off_c, 0, 58, 56
1, 631670, Note_off_c, 0, 55, 37
1, 631712, Note_off_c, 0, 52, 31
1, 631758, Note_off_c, 0, 48, 53
1, 631770, Note_off_c, 0, 64, 61
1, 631791, Note_off_c, 0, 67, 58
1, 631834, Note_off_c, 0, 60, 49
1, 631951, Note_off_c, 0, 70, 51
1, 631967, Control_c, 0, 64, 62
1, 631982, Control_c, 0, 64, 0
1, 632005, Note_on_c, 0, 35, 86
1, 632007, Note_on_c, 0, 47, 98
1, 632010, Note_on_c, 0, 59, 96
1, 632042, Control_c, 0, 64, 103
1, 632042, Note_off_c, 0, 35, 67
1, 632051, Note_off_c, 0, 47, 66
1, 632057, Control_c, 0, 64, 127
1, 632075, Note_off_c, 0, 59, 56
1, 632303, Note_on_c, 0, 55, 77
1, 632304, Note_on_c, 0, 59, 87
1, 632304, Note_on_c, 0, 47, 80
1, 632305, Note_on_c, 0, 62, 87
1, 632307, Note_on_c, 0, 67, 77
1, 632307, Note_on_c, 0, 50, 68
1, 632310, Note_on_c, 0, 71, 71
1, 632333, Note_off_c, 0, 55, 66
1, 632334, Note_off_c, 0, 71, 68
1, 632337, Note_off_c, 0, 47, 64
1, 632337, Note_off_c, 0, 59, 62
1, 632339, Note_off_c, 0, 50, 64
1, 632346, Note_off_c, 0, 62, 64
1, 632353, Note_off_c, 0, 67, 57
1, 632378, Note_on_c, 0, 67, 63
1, 632382, Note_on_c, 0, 71, 84
1, 632384, Note_on_c, 0, 62, 81
1, 632385, Note_on_c, 0, 59, 86
1, 632387, Note_on_c, 0, 55, 85
1, 632390, Note_on_c, 0, 47, 78
1, 632392, Note_on_c, 0, 50, 82
1, 632775, Note_off_c, 0, 50, 49
1, 632834, Note_off_c, 0, 55, 60
1, 632837, Note_off_c, 0, 71, 59
1, 632839, Note_off_c, 0, 59, 54
1, 632875, Note_off_c, 0, 67, 57
1, 632876, Note_off_c, 0, 62, 59
1, 632907, Note_off_c, 0, 47, 50
1, 633356, Note_on_c, 0, 45, 97
1, 633365, Note_on_c, 0, 33, 96
1, 633398, Control_c, 0, 64, 83
1, 633413, Control_c, 0, 64, 0
1, 633493, Control_c, 0, 64, 62
1, 633508, Control_c, 0, 64, 91
1, 633517, Note_off_c, 0, 45, 63
1, 633523, Control_c, 0, 64, 127
1, 633610, Note_off_c, 0, 33, 55
1, 633780, Note_on_c, 0, 55, 77
1, 633782, Note_on_c, 0, 61, 78
1, 633783, Note_on_c, 0, 52, 80
1, 633788, Note_on_c, 0, 45, 77
1, 633809, Note_off_c, 0, 61, 60
1, 633816, Note_off_c, 0, 52, 61
1, 633824, Note_off_c, 0, 55, 63
1, 633827, Note_off_c, 0, 45, 64
1, 633861, Note_on_c, 0, 61, 90
1, 633863, Note_on_c, 0, 55, 79
1, 633866, Note_on_c, 0, 52, 86
1, 633870, Note_on_c, 0, 45, 79
1, 634043, Note_off_c, 0, 55, 60
1, 634050, Note_off_c, 0, 52, 37
1, 634093, Note_off_c, 0, 61, 61
1, 634126, Note_off_c, 0, 45, 59
1, 634313, Note_on_c, 0, 64, 78
1, 634316, Note_on_c, 0, 55, 68
1, 634320, Note_on_c, 0, 45, 68
1, 634328, Note_on_c, 0, 61, 67
1, 634369, Note_off_c, 0, 55, 59
1, 634376, Note_off_c, 0, 45, 60
1, 634380, Note_off_c, 0, 64, 62
1, 634390, Note_off_c, 0, 61, 49
1, 634498, Note_on_c, 0, 45, 70
1, 634498, Note_on_c, 0, 67, 74
1, 634503, Note_on_c, 0, 61, 63
1, 634510, Note_on_c, 0, 64, 55
1, 634525, Note_off_c, 0, 61, 68
1, 634532, Note_off_c, 0, 64, 66
1, 634548, Note_off_c, 0, 45, 62
1, 634549, Note_off_c, 0, 67, 62
1, 634671, Note_on_c, 0, 45, 79
1, 634676, Note_on_c, 0, 73, 82
1, 634681, Note_on_c, 0, 64, 69
1, 634700, Note_off_c, 0, 45, 66
1, 634716, Note_off_c, 0, 64, 58
1, 634733, Note_off_c, 0, 73, 61
1, 634841, Note_on_c, 0, 76, 80
1, 634843, Note_on_c, 0, 57, 78
1, 634843, Note_on_c, 0, 67, 73
1, 634890, Note_off_c, 0, 57, 59
1, 634891, Note_off_c, 0, 76, 65
1, 634898, Note_off_c, 0, 67, 57
1, 635010, Note_on_c, 0, 79, 82
1, 635012, Note_on_c, 0, 57, 83
1, 635017, Note_on_c, 0, 76, 67
1, 635019, Note_on_c, 0, 73, 66
1, 635039, Note_off_c, 0, 76, 70
1, 635043, Note_off_c, 0, 73, 66
1, 635061, Note_off_c, 0, 79, 62
1, 635069, Note_off_c, 0, 57, 62
1, 635180, Note_on_c, 0, 57, 90
1, 635182, Note_on_c, 0, 85, 89
1, 635187, Note_on_c, 0, 76, 86
1, 635199, Note_on_c, 0, 79, 60
1, 635212, Note_off_c, 0, 57, 62
1, 635216, Note_off_c, 0, 79, 62
1, 635231, Note_off_c, 0, 76, 63
1, 635237, Note_off_c, 0, 85, 64
1, 635359, Note_on_c, 0, 88, 90
1, 635363, Note_on_c, 0, 79, 83
1, 635369, Note_on_c, 0, 69, 88
1, 635404, Note_off_c, 0, 88, 64
1, 635411, Note_off_c, 0, 79, 57
1, 635411, Note_off_c, 0, 69, 66
1, 635580, Note_on_c, 0, 91, 92
1, 635592, Note_on_c, 0, 85, 63
1, 635594, Note_on_c, 0, 69, 81
1, 635601, Note_on_c, 0, 88, 59
1, 635610, Note_off_c, 0, 85, 67
1, 635610, Note_off_c, 0, 69, 76
1, 635621, Note_off_c, 0, 88, 62
1, 635626, Note_off_c, 0, 91, 60
1, 635903, Control_c, 0, 64, 93
1, 635918, Control_c, 0, 64, 66
1, 635933, Control_c, 0, 64, 0
1, 636138, Note_on_c, 0, 81, 69
1, 636214, Note_on_c, 0, 49, 31
1, 636334, Control_c, 0, 64, 48
1, 636349, Control_c, 0, 64, 61
1, 636364, Control_c, 0, 64, 64
1, 636378, Control_c, 0, 64, 66
1, 636393, Control_c, 0, 64, 68
1, 636393, Control_c, 0, 67, 12
1, 636408, Control_c, 0, 64, 73
1, 636408, Control_c, 0, 67, 18
1, 636430, Control_c, 0, 64, 79
1, 636430, Control_c, 0, 67, 23
1, 636445, Control_c, 0, 64, 85
1, 636445, Control_c, 0, 67, 27
1, 636459, Control_c, 0, 64, 89
1, 636459, Control_c, 0, 67, 30
1, 636474, Control_c, 0, 64, 92
1, 636474, Control_c, 0, 67, 33
1, 636489, Control_c, 0, 64, 95
1, 636489, Control_c, 0, 67, 37
1, 636504, Control_c, 0, 64, 99
1, 636504, Control_c, 0, 67, 39
1, 636519, Control_c, 0, 64, 104
1, 636519, Control_c, 0, 67, 41
1, 636534, Control_c, 0, 64, 108
1, 636534, Control_c, 0, 67, 41
1, 636543, Note_on_c, 0, 69, 43
1, 636549, Control_c, 0, 64, 110
1, 636549, Control_c, 0, 67, 42
1, 636564, Control_c, 0, 64, 112
1, 636578, Control_c, 0, 64, 113
1, 636593, Control_c, 0, 64, 114
1, 636608, Control_c, 0, 67, 41
1, 636623, Control_c, 0, 67, 41
1, 636635, Note_on_c, 0, 76, 52
1, 636638, Control_c, 0, 64, 115
1, 636638, Control_c, 0, 67, 40
1, 636652, Control_c, 0, 67, 40
1, 636667, Control_c, 0, 67, 39
1, 636682, Control_c, 0, 67, 38
1, 636697, Control_c, 0, 67, 38
1, 636700, Note_off_c, 0, 69, 44
1, 636704, Note_on_c, 0, 79, 56
1, 636711, Control_c, 0, 67, 37
1, 636726, Control_c, 0, 67, 36
1, 636741, Control_c, 0, 67, 35
1, 636756, Control_c, 0, 67, 35
1, 636771, Control_c, 0, 64, 114
1, 636771, Control_c, 0, 67, 34
1, 636785, Control_c, 0, 67, 34
1, 636815, Control_c, 0, 64, 113
1, 636829, Control_c, 0, 64, 109
1, 636829, Control_c, 0, 67, 33
1, 636844, Control_c, 0, 64, 103
1, 636859, Control_c, 0, 64, 97
1, 636874, Control_c, 0, 64, 91
1, 636874, Control_c, 0, 67, 33
1, 636889, Control_c, 0, 64, 86
1, 636904, Control_c, 0, 64, 80
1, 636908, Note_on_c, 0, 82, 70
1, 636918, Control_c, 0, 64, 73
1, 636918, Control_c, 0, 67, 32
1, 636933, Control_c, 0, 64, 66
1, 636933, Control_c, 0, 67, 32
1, 636949, Control_c, 0, 64, 48
1, 636949, Control_c, 0, 67, 31
1, 636950, Note_off_c, 0, 76, 40
1, 636955, Note_on_c, 0, 45, 39
1, 636959, Note_off_c, 0, 81, 53
1, 636964, Control_c, 0, 64, 0
1, 636964, Control_c, 0, 67, 30
1, 636971, Note_off_c, 0, 79, 53
1, 636979, Control_c, 0, 67, 29
1, 636994, Control_c, 0, 67, 27
1, 637008, Control_c, 0, 67, 25
1, 637015, Note_off_c, 0, 49, 51
1, 637023, Control_c, 0, 67, 23
1, 637038, Control_c, 0, 64, 49
1, 637038, Control_c, 0, 67, 21
1, 637053, Control_c, 0, 64, 63
1, 637053, Control_c, 0, 67, 19
1, 637068, Control_c, 0, 64, 66
1, 637068, Control_c, 0, 67, 16
1, 637082, Control_c, 0, 64, 69
1, 637082, Control_c, 0, 67, 12
1, 637097, Control_c, 0, 64, 71
1, 637097, Control_c, 0, 67, 9
1, 637112, Control_c, 0, 64, 74
1, 637112, Control_c, 0, 67, 0
1, 637127, Control_c, 0, 64, 77
1, 637142, Control_c, 0, 64, 79
1, 637157, Control_c, 0, 64, 83
1, 637179, Control_c, 0, 64, 87
1, 637180, Note_on_c, 0, 73, 47
1, 637195, Control_c, 0, 64, 92
1, 637209, Control_c, 0, 64, 99
1, 637224, Control_c, 0, 64, 106
1, 637239, Control_c, 0, 64, 119
1, 637253, Control_c, 0, 64, 127
1, 637258, Note_on_c, 0, 76, 53
1, 637333, Note_on_c, 0, 79, 59
1, 637373, Note_off_c, 0, 73, 33
1, 637379, Note_off_c, 0, 82, 53
1, 637448, Note_off_c, 0, 76, 36
1, 637524, Note_on_c, 0, 81, 77
1, 637547, Note_on_c, 0, 50, 54
1, 637570, Note_off_c, 0, 79, 44
1, 637580, Control_c, 0, 64, 83
1, 637595, Control_c, 0, 64, 49
1, 637604, Note_off_c, 0, 45, 57
1, 637609, Control_c, 0, 64, 0
1, 637683, Control_c, 0, 64, 62
1, 637698, Control_c, 0, 64, 70
1, 637713, Control_c, 0, 64, 81
1, 637727, Control_c, 0, 64, 95
1, 637742, Control_c, 0, 64, 104
1, 637753, Note_on_c, 0, 72, 52
1, 637758, Control_c, 0, 64, 110
1, 637773, Control_c, 0, 64, 118
1, 637788, Control_c, 0, 64, 125
1, 637803, Control_c, 0, 64, 127
1, 637820, Note_on_c, 0, 74, 54
1, 637854, Note_off_c, 0, 72, 48
1, 637899, Note_on_c, 0, 79, 67
1, 637959, Note_off_c, 0, 74, 47
1, 638076, Control_c, 0, 64, 110
1, 638091, Control_c, 0, 64, 86
1, 638106, Control_c, 0, 64, 68
1, 638116, Note_off_c, 0, 79, 62
1, 638121, Control_c, 0, 64, 38
1, 638126, Note_on_c, 0, 86, 83
1, 638136, Control_c, 0, 64, 0
1, 638138, Note_off_c, 0, 81, 25
1, 638162, Note_on_c, 0, 38, 48
1, 638180, Control_c, 0, 64, 28
1, 638195, Control_c, 0, 64, 60
1, 638210, Control_c, 0, 64, 70
1, 638213, Note_off_c, 0, 50, 60
1, 638219, Note_off_c, 0, 86, 62
1, 638224, Control_c, 0, 64, 86
1, 638239, Control_c, 0, 64, 127
1, 638356, Note_on_c, 0, 72, 52
1, 638430, Note_off_c, 0, 72, 59
1, 638439, Note_on_c, 0, 74, 54
1, 638486, Note_off_c, 0, 38, 39
1, 638527, Note_on_c, 0, 78, 61
1, 638531, Note_off_c, 0, 74, 62
1, 638609, Note_off_c, 0, 78, 59
1, 638796, Control_c, 0, 64, 116
1, 638805, Note_on_c, 0, 83, 67
1, 638811, Control_c, 0, 64, 101
1, 638825, Control_c, 0, 64, 91
1, 638840, Control_c, 0, 64, 84
1, 638855, Control_c, 0, 64, 78
1, 638865, Note_on_c, 0, 39, 56
1, 638870, Control_c, 0, 64, 74
1, 638885, Control_c, 0, 64, 69
1, 638900, Control_c, 0, 64, 63
1, 638914, Control_c, 0, 64, 43
1, 638929, Control_c, 0, 64, 0
1, 639018, Control_c, 0, 64, 45
1, 639032, Control_c, 0, 64, 63
1, 639047, Control_c, 0, 64, 66
1, 639062, Control_c, 0, 64, 67
1, 639077, Control_c, 0, 64, 68
1, 639092, Control_c, 0, 64, 71
1, 639106, Control_c, 0, 64, 74
1, 639121, Control_c, 0, 64, 77
1, 639133, Note_on_c, 0, 81, 55
1, 639136, Control_c, 0, 64, 81
1, 639136, Control_c, 0, 67, 9
1, 639151, Control_c, 0, 64, 84
1, 639151, Control_c, 0, 67, 13
1, 639166, Control_c, 0, 64, 86
1, 639166, Control_c, 0, 67, 16
1, 639181, Control_c, 0, 64, 88
1, 639181, Control_c, 0, 67, 18
1, 639196, Control_c, 0, 64, 90
1, 639196, Control_c, 0, 67, 18
1, 639208, Note_on_c, 0, 78, 52
1, 639211, Control_c, 0, 64, 92
1, 639211, Control_c, 0, 67, 19
1, 639225, Control_c, 0, 64, 94
1, 639240, Control_c, 0, 64, 95
1, 639240, Control_c, 0, 67, 19
1, 639241, Note_off_c, 0, 81, 55
1, 639255, Control_c, 0, 64, 96
1, 639255, Control_c, 0, 67, 20
1, 639270, Control_c, 0, 64, 96
1, 639300, Note_on_c, 0, 71, 48
1, 639360, Control_c, 0, 67, 20
1, 639375, Control_c, 0, 67, 21
1, 639390, Control_c, 0, 64, 95
1, 639404, Control_c, 0, 64, 93
1, 639426, Control_c, 0, 64, 90
1, 639440, Control_c, 0, 64, 86
1, 639455, Control_c, 0, 64, 81
1, 639470, Control_c, 0, 64, 77
1, 639474, Note_on_c, 0, 80, 65
1, 639485, Control_c, 0, 64, 73
1, 639497, Note_off_c, 0, 78, 62
1, 639500, Control_c, 0, 64, 69
1, 639512, Note_on_c, 0, 40, 58
1, 639513, Note_off_c, 0, 83, 57
1, 639515, Control_c, 0, 64, 64
1, 639529, Control_c, 0, 64, 52
1, 639544, Control_c, 0, 64, 0
1, 639559, Note_off_c, 0, 71, 36
1, 639586, Note_off_c, 0, 39, 46
1, 639618, Control_c, 0, 67, 21
1, 639633, Control_c, 0, 67, 22
1, 639648, Control_c, 0, 64, 12
1, 639662, Control_c, 0, 64, 50
1, 639677, Control_c, 0, 64, 59
1, 639677, Control_c, 0, 67, 24
1, 639692, Control_c, 0, 64, 63
1, 639692, Control_c, 0, 67, 26
1, 639707, Control_c, 0, 64, 63
1, 639707, Control_c, 0, 67, 28
1, 639722, Control_c, 0, 64, 64
1, 639722, Control_c, 0, 67, 31
1, 639736, Control_c, 0, 64, 65
1, 639736, Control_c, 0, 67, 33
1, 639737, Note_on_c, 0, 77, 51
1, 639751, Control_c, 0, 64, 66
1, 639751, Control_c, 0, 67, 35
1, 639766, Control_c, 0, 64, 67
1, 639766, Control_c, 0, 67, 36
1, 639781, Control_c, 0, 64, 68
1, 639781, Control_c, 0, 67, 38
1, 639795, Control_c, 0, 64, 69
1, 639795, Control_c, 0, 67, 39
1, 639810, Note_on_c, 0, 74, 49
1, 639810, Control_c, 0, 64, 71
1, 639810, Control_c, 0, 67, 39
1, 639825, Control_c, 0, 64, 72
1, 639825, Control_c, 0, 67, 40
1, 639840, Control_c, 0, 64, 73
1, 639840, Control_c, 0, 67, 40
1, 639852, Note_off_c, 0, 77, 38
1, 639855, Control_c, 0, 64, 73
1, 639870, Control_c, 0, 64, 74
1, 639870, Control_c, 0, 67, 41
1, 639884, Control_c, 0, 64, 74
1, 639891, Note_off_c, 0, 74, 63
1, 639902, Note_on_c, 0, 71, 44
1, 639914, Control_c, 0, 67, 41
1, 639929, Control_c, 0, 67, 42
1, 639944, Control_c, 0, 67, 43
1, 639959, Control_c, 0, 67, 46
1, 639974, Control_c, 0, 67, 48
1, 639989, Control_c, 0, 67, 49
1, 640003, Control_c, 0, 67, 50
1, 640018, Control_c, 0, 67, 52
1, 640033, Control_c, 0, 64, 74
1, 640033, Control_c, 0, 67, 53
1, 640047, Control_c, 0, 64, 73
1, 640047, Control_c, 0, 67, 55
1, 640062, Control_c, 0, 64, 72
1, 640062, Control_c, 0, 67, 56
1, 640077, Control_c, 0, 64, 71
1, 640077, Control_c, 0, 67, 57
1, 640079, Note_on_c, 0, 81, 62
1, 640092, Control_c, 0, 64, 70
1, 640092, Control_c, 0, 67, 57
1, 640099, Note_on_c, 0, 37, 55
1, 640107, Control_c, 0, 64, 67
1, 640107, Control_c, 0, 67, 59
1, 640121, Control_c, 0, 64, 64
1, 640121, Control_c, 0, 67, 60
1, 640136, Control_c, 0, 64, 52
1, 640136, Control_c, 0, 67, 60
1, 640142, Note_off_c, 0, 40, 51
1, 640152, Control_c, 0, 64, 0
1, 640152, Control_c, 0, 67, 62
1, 640173, Note_off_c, 0, 80, 58
1, 640174, Control_c, 0, 67, 63
1, 640175, Note_off_c, 0, 71, 37
1, 640189, Control_c, 0, 67, 65
1, 640204, Control_c, 0, 67, 66
1, 640219, Control_c, 0, 67, 68
1, 640233, Control_c, 0, 67, 70
1, 640248, Control_c, 0, 67, 73
1, 640263, Control_c, 0, 64, 48
1, 640263, Control_c, 0, 67, 75
1, 640278, Control_c, 0, 64, 60
1, 640278, Control_c, 0, 67, 78
1, 640293, Control_c, 0, 64, 62
1, 640293, Control_c, 0, 67, 79
1, 640308, Control_c, 0, 64, 63
1, 640308, Control_c, 0, 67, 81
1, 640322, Note_on_c, 0, 79, 46
1, 640323, Control_c, 0, 64, 64
1, 640323, Control_c, 0, 67, 84
1, 640338, Control_c, 0, 64, 66
1, 640338, Control_c, 0, 67, 86
1, 640352, Control_c, 0, 64, 68
1, 640352, Control_c, 0, 67, 87
1, 640367, Control_c, 0, 64, 70
1, 640367, Control_c, 0, 67, 88
1, 640382, Control_c, 0, 64, 71
1, 640382, Control_c, 0, 67, 88
1, 640388, Note_on_c, 0, 76, 53
1, 640397, Control_c, 0, 64, 71
1, 640397, Control_c, 0, 67, 89
1, 640412, Note_off_c, 0, 79, 52
1, 640412, Control_c, 0, 67, 89
1, 640426, Control_c, 0, 64, 72
1, 640426, Control_c, 0, 67, 90
1, 640441, Control_c, 0, 67, 91
1, 640456, Control_c, 0, 64, 72
1, 640456, Control_c, 0, 67, 92
1, 640471, Note_off_c, 0, 76, 64
1, 640471, Control_c, 0, 67, 93
1, 640481, Note_on_c, 0, 69, 45
1, 640485, Control_c, 0, 67, 93
1, 640500, Control_c, 0, 67, 94
1, 640515, Control_c, 0, 67, 94
1, 640530, Control_c, 0, 67, 95
1, 640544, Control_c, 0, 67, 95
1, 640559, Control_c, 0, 67, 96
1, 640574, Control_c, 0, 64, 72
1, 640574, Control_c, 0, 67, 97
1, 640589, Control_c, 0, 64, 71
1, 640589, Control_c, 0, 67, 98
1, 640604, Control_c, 0, 64, 70
1, 640604, Control_c, 0, 67, 99
1, 640619, Control_c, 0, 64, 69
1, 640619, Control_c, 0, 67, 100
1, 640633, Control_c, 0, 64, 67
1, 640633, Control_c, 0, 67, 100
1, 640648, Control_c, 0, 64, 66
1, 640648, Control_c, 0, 67, 101
1, 640663, Control_c, 0, 64, 65
1, 640663, Control_c, 0, 67, 101
1, 640677, Control_c, 0, 64, 64
1, 640677, Control_c, 0, 67, 102
1, 640679, Note_on_c, 0, 78, 60
1, 640692, Note_on_c, 0, 38, 43
1, 640692, Control_c, 0, 64, 63
1, 640707, Control_c, 0, 64, 60
1, 640722, Control_c, 0, 64, 52
1, 640722, Control_c, 0, 67, 103
1, 640725, Note_off_c, 0, 81, 58
1, 640727, Note_off_c, 0, 69, 38
1, 640737, Control_c, 0, 64, 0
1, 640741, Note_off_c, 0, 37, 51
1, 640752, Control_c, 0, 67, 104
1, 640782, Control_c, 0, 67, 105
1, 640797, Control_c, 0, 67, 106
1, 640811, Control_c, 0, 67, 107
1, 640826, Control_c, 0, 67, 109
1, 640841, Control_c, 0, 67, 110
1, 640856, Control_c, 0, 64, 12
1, 640856, Control_c, 0, 67, 111
1, 640871, Control_c, 0, 64, 48
1, 640871, Control_c, 0, 67, 112
1, 640886, Control_c, 0, 64, 57
1, 640886, Control_c, 0, 67, 114
1, 640901, Control_c, 0, 64, 59
1, 640901, Control_c, 0, 67, 114
1, 640923, Control_c, 0, 64, 60
1, 640923, Control_c, 0, 67, 115
1, 640931, Note_on_c, 0, 75, 37
1, 640939, Control_c, 0, 64, 62
1, 640939, Control_c, 0, 67, 117
1, 640955, Control_c, 0, 64, 63
1, 640955, Control_c, 0, 67, 118
1, 640969, Control_c, 0, 64, 64
1, 640969, Control_c, 0, 67, 120
1, 640984, Control_c, 0, 64, 65
1, 640984, Control_c, 0, 67, 122
1, 640999, Control_c, 0, 64, 66
1, 640999, Control_c, 0, 67, 124
1, 641007, Note_on_c, 0, 72, 43
1, 641014, Control_c, 0, 64, 67
1, 641014, Control_c, 0, 67, 125
1, 641029, Control_c, 0, 64, 68
1, 641029, Control_c, 0, 67, 126
1, 641044, Control_c, 0, 64, 69
1, 641044, Control_c, 0, 67, 127
1, 641058, Control_c, 0, 64, 70
1, 641073, Note_off_c, 0, 72, 61
1, 641083, Note_on_c, 0, 69, 44
1, 641088, Control_c, 0, 64, 70
1, 641139, Note_off_c, 0, 75, 36
1, 641265, Control_c, 0, 64, 70
1, 641280, Control_c, 0, 64, 69
1, 641294, Control_c, 0, 64, 68
1, 641309, Control_c, 0, 64, 68
1, 641315, Note_on_c, 0, 79, 58
1, 641324, Control_c, 0, 64, 67
1, 641339, Control_c, 0, 64, 66
1, 641344, Note_on_c, 0, 35, 41
1, 641354, Control_c, 0, 64, 65
1, 641369, Control_c, 0, 64, 63
1, 641384, Control_c, 0, 64, 60
1, 641398, Note_off_c, 0, 38, 42
1, 641399, Control_c, 0, 64, 48
1, 641400, Note_off_c, 0, 69, 36
1, 641414, Control_c, 0, 64, 0
1, 641426, Note_off_c, 0, 78, 39
1, 641502, Control_c, 0, 64, 36
1, 641517, Control_c, 0, 64, 51
1, 641532, Control_c, 0, 64, 57
1, 641547, Control_c, 0, 64, 60
1, 641562, Control_c, 0, 64, 62
1, 641576, Control_c, 0, 64, 63
1, 641591, Control_c, 0, 64, 64
1, 641595, Note_on_c, 0, 77, 39
1, 641606, Control_c, 0, 64, 65
1, 641620, Control_c, 0, 64, 66
1, 641635, Control_c, 0, 64, 67
1, 641650, Control_c, 0, 64, 69
1, 641665, Control_c, 0, 64, 70
1, 641666, Note_on_c, 0, 74, 43
1, 641688, Control_c, 0, 64, 71
1, 641702, Control_c, 0, 64, 72
1, 641717, Control_c, 0, 64, 72
1, 641718, Note_off_c, 0, 77, 35
1, 641732, Control_c, 0, 64, 73
1, 641762, Control_c, 0, 64, 73
1, 641769, Note_on_c, 0, 67, 39
1, 641789, Note_off_c, 0, 79, 54
1, 641792, Note_off_c, 0, 74, 45
1, 641925, Control_c, 0, 64, 73
1, 641940, Control_c, 0, 64, 72
1, 641954, Note_on_c, 0, 79, 66
1, 641955, Control_c, 0, 64, 70
1, 641970, Control_c, 0, 64, 66
1, 641985, Control_c, 0, 64, 57
1, 641995, Note_on_c, 0, 36, 39
1, 641999, Control_c, 0, 64, 0
1, 642026, Note_off_c, 0, 35, 44
1, 642084, Note_off_c, 0, 67, 40
1, 642088, Control_c, 0, 64, 41
1, 642103, Control_c, 0, 64, 55
1, 642117, Control_c, 0, 64, 60
1, 642132, Control_c, 0, 64, 62
1, 642147, Control_c, 0, 64, 63
1, 642162, Control_c, 0, 64, 64
1, 642172, Note_on_c, 0, 76, 53
1, 642177, Control_c, 0, 64, 65
1, 642192, Control_c, 0, 64, 66
1, 642207, Control_c, 0, 64, 68
1, 642221, Control_c, 0, 64, 70
1, 642236, Control_c, 0, 64, 71
1, 642251, Control_c, 0, 64, 72
1, 642260, Note_on_c, 0, 72, 52
1, 642266, Control_c, 0, 64, 73
1, 642281, Control_c, 0, 64, 74
1, 642296, Control_c, 0, 64, 75
1, 642299, Note_off_c, 0, 76, 36
1, 642311, Control_c, 0, 64, 75
1, 642325, Control_c, 0, 64, 76
1, 642326, Note_off_c, 0, 72, 63
1, 642340, Control_c, 0, 64, 76
1, 642344, Note_on_c, 0, 67, 49
1, 642355, Note_off_c, 0, 79, 58
1, 642525, Control_c, 0, 64, 76
1, 642532, Note_off_c, 0, 67, 37
1, 642540, Control_c, 0, 64, 75
1, 642549, Note_on_c, 0, 79, 74
1, 642555, Control_c, 0, 64, 72
1, 642570, Control_c, 0, 64, 68
1, 642585, Control_c, 0, 64, 62
1, 642591, Note_on_c, 0, 38, 36
1, 642600, Control_c, 0, 64, 40
1, 642615, Note_off_c, 0, 36, 42
1, 642615, Control_c, 0, 64, 0
1, 642704, Control_c, 0, 64, 46
1, 642719, Control_c, 0, 64, 59
1, 642734, Control_c, 0, 64, 63
1, 642748, Control_c, 0, 64, 64
1, 642763, Control_c, 0, 64, 65
1, 642768, Note_on_c, 0, 71, 48
1, 642778, Control_c, 0, 64, 68
1, 642793, Control_c, 0, 64, 70
1, 642808, Control_c, 0, 64, 72
1, 642837, Control_c, 0, 64, 72
1, 642853, Note_on_c, 0, 74, 48
1, 642894, Note_off_c, 0, 71, 37
1, 642913, Note_off_c, 0, 74, 60
1, 642938, Note_on_c, 0, 76, 51
1, 642963, Note_off_c, 0, 38, 40
1, 642988, Note_off_c, 0, 76, 55
1, 643014, Control_c, 0, 64, 72
1, 643029, Control_c, 0, 64, 71
1, 643032, Note_on_c, 0, 74, 50
1, 643044, Control_c, 0, 64, 71
1, 643059, Control_c, 0, 64, 70
1, 643074, Control_c, 0, 64, 69
1, 643089, Control_c, 0, 64, 68
1, 643104, Control_c, 0, 64, 68
1, 643119, Control_c, 0, 64, 67
1, 643119, Note_off_c, 0, 79, 30
1, 643134, Control_c, 0, 64, 66
1, 643138, Note_off_c, 0, 74, 56
1, 643142, Note_on_c, 0, 78, 53
1, 643148, Control_c, 0, 64, 64
1, 643170, Control_c, 0, 64, 63
1, 643184, Control_c, 0, 64, 57
1, 643193, Note_on_c, 0, 38, 34
1, 643199, Control_c, 0, 64, 30
1, 643214, Control_c, 0, 64, 0
1, 643318, Control_c, 0, 64, 32
1, 643333, Control_c, 0, 64, 55
1, 643348, Control_c, 0, 64, 60
1, 643363, Control_c, 0, 64, 61
1, 643378, Control_c, 0, 64, 63
1, 643393, Control_c, 0, 64, 65
1, 643398, Note_on_c, 0, 76, 40
1, 643408, Control_c, 0, 64, 67
1, 643422, Control_c, 0, 64, 69
1, 643437, Control_c, 0, 64, 70
1, 643452, Control_c, 0, 64, 71
1, 643462, Note_off_c, 0, 76, 51
1, 643491, Note_on_c, 0, 72, 50
1, 643534, Note_off_c, 0, 72, 63
1, 643583, Note_on_c, 0, 71, 40
1, 643602, Note_off_c, 0, 38, 40
1, 643644, Control_c, 0, 64, 70
1, 643659, Control_c, 0, 64, 70
1, 643667, Note_off_c, 0, 71, 47
1, 643672, Note_on_c, 0, 72, 49
1, 643674, Control_c, 0, 64, 69
1, 643688, Control_c, 0, 64, 68
1, 643703, Control_c, 0, 64, 68
1, 643718, Control_c, 0, 64, 67
1, 643733, Control_c, 0, 64, 66
1, 643748, Control_c, 0, 64, 65
1, 643763, Control_c, 0, 64, 64
1, 643768, Note_off_c, 0, 72, 62
1, 643777, Control_c, 0, 64, 61
1, 643783, Note_on_c, 0, 79, 57
1, 643792, Control_c, 0, 64, 51
1, 643807, Control_c, 0, 64, 0
1, 643812, Note_on_c, 0, 38, 29
1, 643834, Note_off_c, 0, 78, 31
1, 643918, Control_c, 0, 64, 20
1, 643934, Control_c, 0, 64, 51
1, 643949, Control_c, 0, 64, 59
1, 643964, Control_c, 0, 64, 62
1, 643978, Control_c, 0, 64, 64
1, 643993, Control_c, 0, 64, 65
1, 644008, Control_c, 0, 64, 67
1, 644014, Note_on_c, 0, 71, 41
1, 644022, Control_c, 0, 64, 68
1, 644037, Control_c, 0, 64, 70
1, 644052, Control_c, 0, 64, 71
1, 644067, Control_c, 0, 64, 72
1, 644082, Control_c, 0, 64, 72
1, 644096, Control_c, 0, 64, 73
1, 644112, Note_on_c, 0, 74, 43
1, 644159, Note_off_c, 0, 74, 60
1, 644206, Note_on_c, 0, 76, 39
1, 644210, Note_off_c, 0, 71, 31
1, 644250, Note_off_c, 0, 38, 39
1, 644288, Note_off_c, 0, 76, 55
1, 644335, Control_c, 0, 64, 72
1, 644338, Note_on_c, 0, 74, 39
1, 644365, Control_c, 0, 64, 72
1, 644394, Control_c, 0, 64, 71
1, 644409, Control_c, 0, 64, 70
1, 644424, Control_c, 0, 64, 70
1, 644438, Control_c, 0, 64, 69
1, 644448, Note_off_c, 0, 79, 28
1, 644453, Control_c, 0, 64, 68
1, 644468, Control_c, 0, 64, 67
1, 644482, Note_on_c, 0, 78, 46
1, 644483, Control_c, 0, 64, 66
1, 644498, Control_c, 0, 64, 65
1, 644508, Note_off_c, 0, 74, 36
1, 644512, Control_c, 0, 64, 64
1, 644527, Control_c, 0, 64, 63
1, 644531, Note_on_c, 0, 38, 23
1, 644542, Control_c, 0, 64, 60
1, 644557, Control_c, 0, 64, 53
1, 644572, Control_c, 0, 64, 35
1, 644586, Control_c, 0, 64, 0
1, 644850, Note_on_c, 0, 76, 35
1, 644990, Note_off_c, 0, 76, 44
1, 644997, Note_on_c, 0, 72, 39
1, 645123, Note_off_c, 0, 72, 52
1, 645168, Note_on_c, 0, 71, 39
1, 645311, Note_off_c, 0, 71, 51
1, 645331, Note_on_c, 0, 72, 40
1, 645748, Note_on_c, 0, 79, 33
1, 645770, Note_on_c, 0, 71, 31
1, 645772, Note_off_c, 0, 72, 36
1, 645814, Note_on_c, 0, 31, 12
1, 645825, Note_off_c, 0, 38, 36
1, 645839, Note_off_c, 0, 78, 35
1, 645862, Control_c, 0, 64, 8
1, 645877, Control_c, 0, 64, 18
1, 645891, Control_c, 0, 64, 27
1, 645906, Control_c, 0, 64, 39
1, 645921, Control_c, 0, 64, 50
1, 645936, Control_c, 0, 64, 58
1, 645951, Control_c, 0, 64, 64
1, 645965, Control_c, 0, 64, 67
1, 645980, Control_c, 0, 64, 70
1, 645995, Control_c, 0, 64, 75
1, 646010, Control_c, 0, 64, 80
1, 646025, Control_c, 0, 64, 86
1, 646040, Control_c, 0, 64, 94
1, 646055, Control_c, 0, 64, 106
1, 646070, Control_c, 0, 64, 127
1, 646107, Note_off_c, 0, 71, 43
1, 646115, Note_off_c, 0, 79, 40
1, 646243, Note_off_c, 0, 31, 34
1, 646611, Control_c, 0, 67, 127
1, 646626, Control_c, 0, 67, 120
1, 646640, Control_c, 0, 67, 114
1, 646655, Control_c, 0, 67, 109
1, 646670, Control_c, 0, 67, 103
1, 646685, Control_c, 0, 67, 98
1, 646700, Control_c, 0, 67, 94
1, 646714, Control_c, 0, 67, 89
1, 646729, Control_c, 0, 67, 84
1, 646744, Control_c, 0, 67, 79
1, 646759, Control_c, 0, 64, 125
1, 646759, Control_c, 0, 67, 74
1, 646774, Control_c, 0, 64, 105
1, 646774, Control_c, 0, 67, 69
1, 646788, Control_c, 0, 64, 97
1, 646788, Control_c, 0, 67, 63
1, 646803, Control_c, 0, 64, 92
1, 646803, Control_c, 0, 67, 57
1, 646818, Control_c, 0, 64, 86
1, 646818, Control_c, 0, 67, 52
1, 646833, Control_c, 0, 64, 82
1, 646833, Control_c, 0, 67, 48
1, 646848, Control_c, 0, 64, 78
1, 646848, Control_c, 0, 67, 44
1, 646863, Control_c, 0, 64, 75
1, 646863, Control_c, 0, 67, 40
1, 646878, Control_c, 0, 64, 72
1, 646878, Control_c, 0, 67, 37
1, 646893, Control_c, 0, 64, 69
1, 646893, Control_c, 0, 67, 35
1, 646914, Note_on_c, 0, 62, 44
1, 646914, Control_c, 0, 64, 67
1, 646914, Control_c, 0, 67, 32
1, 646929, Control_c, 0, 64, 64
1, 646929, Control_c, 0, 67, 29
1, 646944, Control_c, 0, 64, 63
1, 646944, Control_c, 0, 67, 26
1, 646959, Control_c, 0, 64, 62
1, 646959, Control_c, 0, 67, 23
1, 646973, Control_c, 0, 64, 61
1, 646973, Control_c, 0, 67, 20
1, 646988, Control_c, 0, 64, 59
1, 646988, Control_c, 0, 67, 16
1, 647003, Control_c, 0, 64, 57
1, 647003, Control_c, 0, 67, 13
1, 647018, Control_c, 0, 64, 53
1, 647018, Control_c, 0, 67, 10
1, 647033, Control_c, 0, 64, 49
1, 647033, Control_c, 0, 67, 0
1, 647048, Control_c, 0, 64, 45
1, 647062, Control_c, 0, 64, 43
1, 647077, Control_c, 0, 64, 41
1, 647092, Control_c, 0, 64, 39
1, 647107, Control_c, 0, 64, 35
1, 647122, Control_c, 0, 64, 31
1, 647137, Control_c, 0, 64, 26
1, 647152, Control_c, 0, 64, 24
1, 647167, Control_c, 0, 64, 23
1, 647181, Control_c, 0, 64, 20
1, 647196, Control_c, 0, 64, 17
1, 647211, Control_c, 0, 64, 14
1, 647226, Control_c, 0, 64, 10
1, 647240, Control_c, 0, 64, 0
1, 647289, Note_on_c, 0, 67, 53
1, 647441, Note_off_c, 0, 62, 41
1, 647551, Note_on_c, 0, 71, 61
1, 647683, Note_off_c, 0, 67, 52
1, 647775, Note_on_c, 0, 72, 73
1, 647808, Note_off_c, 0, 71, 62
1, 647954, Note_on_c, 0, 74, 79
1, 647972, Note_off_c, 0, 72, 62
1, 648034, Control_c, 0, 64, 49
1, 648049, Control_c, 0, 64, 64
1, 648063, Control_c, 0, 64, 71
1, 648078, Control_c, 0, 64, 81
1, 648093, Control_c, 0, 64, 102
1, 648108, Control_c, 0, 64, 127
1, 648156, Note_off_c, 0, 74, 59
1, 648298, Note_on_c, 0, 74, 65
1, 648322, Note_on_c, 0, 71, 51
1, 648341, Note_on_c, 0, 62, 36
1, 648346, Note_on_c, 0, 55, 35
1, 648350, Note_on_c, 0, 43, 37
1, 648442, Control_c, 0, 64, 110
1, 648457, Control_c, 0, 64, 95
1, 648472, Control_c, 0, 64, 86
1, 648486, Control_c, 0, 64, 77
1, 648501, Control_c, 0, 64, 68
1, 648516, Control_c, 0, 64, 56
1, 648531, Control_c, 0, 64, 0
1, 648664, Control_c, 0, 64, 18
1, 648679, Control_c, 0, 64, 51
1, 648693, Control_c, 0, 64, 61
1, 648708, Control_c, 0, 64, 65
1, 648723, Control_c, 0, 64, 68
1, 648738, Control_c, 0, 64, 72
1, 648753, Control_c, 0, 64, 77
1, 648768, Control_c, 0, 64, 81
1, 648782, Control_c, 0, 64, 85
1, 648797, Control_c, 0, 64, 89
1, 648812, Control_c, 0, 64, 94
1, 648827, Control_c, 0, 64, 104
1, 648842, Control_c, 0, 64, 127
1, 649182, Note_off_c, 0, 71, 36
1, 649188, Note_off_c, 0, 55, 33
1, 649265, Note_off_c, 0, 62, 40
1, 649325, Note_off_c, 0, 74, 31
1, 649377, Note_off_c, 0, 43, 38
1, 649641, Note_on_c, 0, 74, 66
1, 649653, Note_on_c, 0, 43, 56
1, 649655, Note_on_c, 0, 71, 51
1, 649668, Note_on_c, 0, 62, 34
1, 649674, Note_on_c, 0, 55, 42
1, 649691, Note_off_c, 0, 43, 62
1, 649711, Note_off_c, 0, 62, 47
1, 649723, Note_off_c, 0, 55, 63
1, 649741, Note_off_c, 0, 71, 56
1, 649814, Note_on_c, 0, 76, 78
1, 649826, Note_on_c, 0, 72, 57
1, 649832, Note_off_c, 0, 74, 59
1, 649841, Note_on_c, 0, 64, 48
1, 649872, Control_c, 0, 64, 119
1, 649887, Control_c, 0, 64, 99
1, 649893, Note_on_c, 0, 48, 40
1, 649900, Note_on_c, 0, 55, 29
1, 649902, Control_c, 0, 64, 89
1, 649924, Control_c, 0, 64, 78
1, 649938, Control_c, 0, 64, 69
1, 649953, Control_c, 0, 64, 62
1, 649968, Control_c, 0, 64, 46
1, 649983, Control_c, 0, 64, 0
1, 650338, Note_on_c, 0, 60, 60
1, 650353, Control_c, 0, 64, 24
1, 650368, Control_c, 0, 64, 38
1, 650369, Note_off_c, 0, 55, 51
1, 650382, Control_c, 0, 64, 46
1, 650397, Control_c, 0, 64, 54
1, 650412, Control_c, 0, 64, 58
1, 650427, Control_c, 0, 64, 61
1, 650442, Control_c, 0, 64, 64
1, 650456, Control_c, 0, 64, 66
1, 650471, Control_c, 0, 64, 70
1, 650486, Control_c, 0, 64, 75
1, 650500, Control_c, 0, 64, 80
1, 650515, Control_c, 0, 64, 83
1, 650532, Control_c, 0, 64, 86
1, 650547, Control_c, 0, 64, 91
1, 650561, Control_c, 0, 64, 101
1, 650576, Control_c, 0, 64, 127
1, 650861, Note_off_c, 0, 60, 31
1, 650885, Note_off_c, 0, 72, 53
1, 650900, Note_off_c, 0, 64, 32
1, 650929, Note_off_c, 0, 76, 35
1, 651028, Control_c, 0, 64, 105
1, 651043, Control_c, 0, 64, 76
1, 651058, Control_c, 0, 64, 63
1, 651067, Note_on_c, 0, 76, 55
1, 651073, Control_c, 0, 64, 48
1, 651083, Note_on_c, 0, 72, 47
1, 651087, Control_c, 0, 64, 50
1, 651093, Note_on_c, 0, 59, 47
1, 651093, Note_on_c, 0, 64, 47
1, 651102, Control_c, 0, 64, 58
1, 651117, Control_c, 0, 64, 63
1, 651127, Note_off_c, 0, 72, 64
1, 651131, Control_c, 0, 64, 68
1, 651146, Control_c, 0, 64, 77
1, 651152, Note_off_c, 0, 48, 61
1, 651161, Control_c, 0, 64, 95
1, 651170, Note_off_c, 0, 64, 62
1, 651176, Control_c, 0, 64, 114
1, 651191, Control_c, 0, 64, 127
1, 651196, Note_off_c, 0, 76, 62
1, 651351, Note_on_c, 0, 78, 74
1, 651367, Note_off_c, 0, 59, 34
1, 651370, Control_c, 0, 64, 82
1, 651375, Note_on_c, 0, 72, 47
1, 651376, Note_on_c, 0, 57, 47
1, 651380, Note_on_c, 0, 66, 52
1, 651385, Control_c, 0, 64, 62
1, 651407, Control_c, 0, 64, 0
1, 651418, Note_on_c, 0, 50, 39
1, 651436, Control_c, 0, 64, 35
1, 651451, Control_c, 0, 64, 55
1, 651466, Control_c, 0, 64, 66
1, 651481, Control_c, 0, 64, 76
1, 651496, Control_c, 0, 64, 91
1, 651505, Note_off_c, 0, 66, 57
1, 651510, Control_c, 0, 64, 100
1, 651517, Note_off_c, 0, 78, 62
1, 651519, Note_off_c, 0, 57, 54
1, 651520, Note_off_c, 0, 72, 61
1, 651525, Control_c, 0, 64, 106
1, 651529, Note_off_c, 0, 50, 44
1, 651540, Control_c, 0, 64, 116
1, 651555, Control_c, 0, 64, 127
1, 651605, Note_on_c, 0, 78, 75
1, 651623, Note_on_c, 0, 57, 50
1, 651626, Note_on_c, 0, 72, 62
1, 651626, Note_on_c, 0, 66, 57
1, 651643, Note_on_c, 0, 50, 32
1, 651692, Note_off_c, 0, 66, 59
1, 651700, Note_off_c, 0, 50, 43
1, 651701, Note_off_c, 0, 57, 50
1, 651704, Note_off_c, 0, 78, 61
1, 651706, Note_off_c, 0, 72, 56
1, 651787, Note_on_c, 0, 78, 77
1, 651805, Note_on_c, 0, 72, 67
1, 651806, Note_on_c, 0, 57, 49
1, 651808, Note_on_c, 0, 66, 64
1, 651813, Note_on_c, 0, 50, 55
1, 651866, Note_off_c, 0, 50, 51
1, 651878, Note_off_c, 0, 57, 54
1, 651882, Note_off_c, 0, 66, 56
1, 651886, Note_off_c, 0, 78, 61
1, 651912, Note_off_c, 0, 72, 57
1, 651969, Control_c, 0, 64, 76
1, 651984, Control_c, 0, 64, 57
1, 651986, Note_on_c, 0, 78, 81
1, 651994, Note_on_c, 0, 66, 71
1, 651996, Note_on_c, 0, 72, 69
1, 651999, Note_on_c, 0, 57, 59
1, 651999, Control_c, 0, 64, 40
1, 652014, Note_on_c, 0, 50, 50
1, 652014, Control_c, 0, 64, 56
1, 652029, Control_c, 0, 64, 66
1, 652044, Control_c, 0, 64, 82
1, 652058, Control_c, 0, 64, 127
1, 652061, Note_off_c, 0, 72, 62
1, 652072, Note_off_c, 0, 50, 52
1, 652073, Note_off_c, 0, 57, 55
1, 652077, Note_off_c, 0, 66, 65
1, 652133, Control_c, 0, 64, 84
1, 652139, Note_off_c, 0, 78, 58
1, 652156, Control_c, 0, 64, 63
1, 652171, Control_c, 0, 64, 54
1, 652185, Control_c, 0, 64, 63
1, 652188, Note_on_c, 0, 79, 86
1, 652199, Note_on_c, 0, 50, 53
1, 652199, Note_on_c, 0, 67, 76
1, 652199, Note_on_c, 0, 59, 62
1, 652199, Note_on_c, 0, 71, 75
1, 652200, Control_c, 0, 64, 71
1, 652215, Control_c, 0, 64, 93
1, 652230, Control_c, 0, 64, 127
1, 652264, Note_off_c, 0, 71, 58
1, 652270, Note_off_c, 0, 59, 61
1, 652273, Note_off_c, 0, 50, 60
1, 652290, Note_off_c, 0, 67, 52
1, 652303, Note_off_c, 0, 79, 59
1, 652377, Control_c, 0, 64, 107
1, 652392, Note_on_c, 0, 81, 90
1, 652392, Control_c, 0, 64, 62
1, 652407, Control_c, 0, 64, 0
1, 652410, Note_on_c, 0, 78, 77
1, 652412, Note_on_c, 0, 69, 73
1, 652421, Note_on_c, 0, 50, 47
1, 652422, Note_on_c, 0, 62, 48
1, 652427, Note_on_c, 0, 60, 40
1, 652452, Control_c, 0, 64, 55
1, 652467, Control_c, 0, 64, 73
1, 652482, Control_c, 0, 64, 102
1, 652491, Note_off_c, 0, 69, 60
1, 652497, Control_c, 0, 64, 127
1, 652506, Note_off_c, 0, 81, 59
1, 652510, Note_off_c, 0, 78, 62
1, 652527, Note_off_c, 0, 50, 57
1, 652570, Note_off_c, 0, 60, 36
1, 652574, Note_off_c, 0, 62, 35
1, 652712, Note_on_c, 0, 81, 82
1, 652733, Note_on_c, 0, 78, 69
1, 652737, Note_on_c, 0, 69, 59
1, 652746, Note_on_c, 0, 50, 48
1, 652752, Note_on_c, 0, 60, 41
1, 652754, Note_on_c, 0, 62, 45
1, 652792, Control_c, 0, 64, 121
1, 652807, Control_c, 0, 64, 83
1, 652822, Control_c, 0, 64, 65
1, 652837, Control_c, 0, 64, 0
1, 652950, Control_c, 0, 64, 58
1, 652964, Control_c, 0, 64, 66
1, 652979, Control_c, 0, 64, 71
1, 652994, Control_c, 0, 64, 81
1, 653008, Control_c, 0, 64, 90
1, 653023, Control_c, 0, 64, 105
1, 653038, Control_c, 0, 64, 127
1, 653137, Note_off_c, 0, 69, 38
1, 653179, Note_off_c, 0, 50, 36
1, 653192, Note_off_c, 0, 60, 32
1, 653269, Note_off_c, 0, 78, 36
1, 653526, Control_c, 0, 64, 112
1, 653538, Note_on_c, 0, 79, 51
1, 653541, Control_c, 0, 64, 92
1, 653553, Note_on_c, 0, 67, 41
1, 653556, Control_c, 0, 64, 79
1, 653570, Note_on_c, 0, 59, 31
1, 653571, Control_c, 0, 64, 70
1, 653578, Note_on_c, 0, 55, 33
1, 653582, Note_off_c, 0, 81, 54
1, 653586, Control_c, 0, 64, 61
1, 653600, Control_c, 0, 64, 0
1, 653726, Control_c, 0, 64, 54
1, 653742, Control_c, 0, 64, 65
1, 653756, Control_c, 0, 64, 72
1, 653771, Control_c, 0, 64, 79
1, 653786, Control_c, 0, 64, 87
1, 653787, Note_off_c, 0, 62, 40
1, 653801, Control_c, 0, 64, 99
1, 653813, Note_off_c, 0, 59, 40
1, 653816, Control_c, 0, 64, 127
1, 653829, Note_off_c, 0, 79, 60
1, 653832, Note_off_c, 0, 67, 37
1, 653859, Note_off_c, 0, 55, 40
1, 653993, Control_c, 0, 67, 9
1, 654008, Control_c, 0, 67, 14
1, 654023, Control_c, 0, 67, 19
1, 654038, Control_c, 0, 67, 24
1, 654053, Control_c, 0, 67, 29
1, 654068, Control_c, 0, 67, 35
1, 654082, Control_c, 0, 67, 39
1, 654097, Control_c, 0, 67, 41
1, 654112, Control_c, 0, 67, 44
1, 654127, Control_c, 0, 67, 47
1, 654142, Control_c, 0, 67, 51
1, 654156, Control_c, 0, 67, 56
1, 654171, Control_c, 0, 67, 61
1, 654186, Control_c, 0, 67, 67
1, 654201, Control_c, 0, 67, 71
1, 654216, Control_c, 0, 67, 75
1, 654230, Control_c, 0, 67, 80
1, 654245, Control_c, 0, 67, 85
1, 654260, Control_c, 0, 64, 110
1, 654260, Control_c, 0, 67, 91
1, 654275, Control_c, 0, 64, 95
1, 654275, Control_c, 0, 67, 98
1, 654290, Control_c, 0, 64, 83
1, 654290, Control_c, 0, 67, 106
1, 654304, Control_c, 0, 64, 73
1, 654304, Control_c, 0, 67, 112
1, 654319, Control_c, 0, 64, 63
1, 654319, Control_c, 0, 67, 119
1, 654334, Control_c, 0, 64, 34
1, 654334, Control_c, 0, 67, 127
1, 654348, Control_c, 0, 64, 0
1, 654680, Note_on_c, 0, 74, 46
1, 654699, Note_on_c, 0, 71, 39
1, 654709, Note_on_c, 0, 65, 32
1, 654737, Note_on_c, 0, 55, 25
1, 654742, Note_on_c, 0, 43, 24
1, 654876, Control_c, 0, 64, 29
1, 654891, Control_c, 0, 64, 44
1, 654906, Control_c, 0, 64, 52
1, 654920, Control_c, 0, 64, 55
1, 654935, Control_c, 0, 64, 58
1, 654950, Control_c, 0, 64, 61
1, 654965, Control_c, 0, 64, 63
1, 654980, Control_c, 0, 64, 64
1, 654995, Control_c, 0, 64, 65
1, 655010, Control_c, 0, 64, 66
1, 655024, Control_c, 0, 64, 67
1, 655039, Control_c, 0, 64, 69
1, 655054, Control_c, 0, 64, 71
1, 655069, Control_c, 0, 64, 72
1, 655084, Control_c, 0, 64, 74
1, 655098, Control_c, 0, 64, 76
1, 655113, Control_c, 0, 64, 78
1, 655128, Control_c, 0, 64, 80
1, 655150, Control_c, 0, 64, 82
1, 655165, Control_c, 0, 64, 84
1, 655179, Control_c, 0, 64, 86
1, 655194, Control_c, 0, 64, 89
1, 655209, Control_c, 0, 64, 93
1, 655224, Control_c, 0, 64, 98
1, 655239, Control_c, 0, 64, 105
1, 655254, Control_c, 0, 64, 115
1, 655269, Control_c, 0, 64, 127
1, 655845, Note_off_c, 0, 55, 31
1, 655865, Note_off_c, 0, 43, 32
1, 655932, Note_off_c, 0, 65, 33
1, 655949, Note_off_c, 0, 74, 34
1, 655975, Note_off_c, 0, 71, 37
1, 656288, Note_on_c, 0, 74, 40
1, 656312, Note_on_c, 0, 43, 33
1, 656318, Note_on_c, 0, 71, 25
1, 656333, Note_on_c, 0, 65, 9
1, 656335, Note_on_c, 0, 55, 18
1, 656360, Note_off_c, 0, 43, 44
1, 656382, Note_off_c, 0, 65, 47
1, 656396, Note_off_c, 0, 71, 36
1, 656400, Note_off_c, 0, 55, 51
1, 656495, Note_off_c, 0, 74, 34
1, 656521, Note_on_c, 0, 76, 50
1, 656546, Note_on_c, 0, 72, 37
1, 656551, Control_c, 0, 64, 111
1, 656558, Note_on_c, 0, 64, 35
1, 656560, Note_on_c, 0, 55, 32
1, 656566, Control_c, 0, 64, 99
1, 656574, Note_on_c, 0, 48, 36
1, 656581, Control_c, 0, 64, 91
1, 656596, Control_c, 0, 64, 84
1, 656598, Note_off_c, 0, 72, 0
1, 656598, Note_on_c, 0, 72, 11
1, 656611, Control_c, 0, 64, 78
1, 656625, Control_c, 0, 64, 74
1, 656640, Control_c, 0, 64, 69
1, 656663, Control_c, 0, 64, 64
1, 656678, Control_c, 0, 64, 57
1, 656693, Control_c, 0, 64, 38
1, 656707, Control_c, 0, 64, 0
1, 657211, Note_on_c, 0, 60, 42
1, 657248, Note_off_c, 0, 55, 42
1, 657427, Control_c, 0, 64, 14
1, 657442, Control_c, 0, 64, 49
1, 657456, Control_c, 0, 64, 58
1, 657471, Control_c, 0, 64, 61
1, 657486, Control_c, 0, 64, 63
1, 657500, Control_c, 0, 64, 65
1, 657515, Control_c, 0, 64, 67
1, 657530, Control_c, 0, 64, 70
1, 657545, Control_c, 0, 64, 75
1, 657560, Control_c, 0, 64, 79
1, 657574, Control_c, 0, 64, 82
1, 657589, Control_c, 0, 64, 84
1, 657604, Control_c, 0, 64, 87
1, 657619, Control_c, 0, 64, 91
1, 657634, Control_c, 0, 64, 95
1, 657648, Control_c, 0, 64, 99
1, 657655, Note_off_c, 0, 76, 37
1, 657663, Control_c, 0, 64, 105
1, 657678, Control_c, 0, 64, 110
1, 657693, Control_c, 0, 64, 116
1, 657706, Note_off_c, 0, 72, 44
1, 657707, Control_c, 0, 64, 127
1, 657724, Note_off_c, 0, 60, 36
1, 657829, Note_off_c, 0, 64, 38
1, 657847, Note_off_c, 0, 48, 32
1, 658250, Control_c, 0, 64, 112
1, 658265, Control_c, 0, 64, 98
1, 658279, Control_c, 0, 64, 83
1, 658294, Control_c, 0, 64, 69
1, 658296, Note_on_c, 0, 69, 40
1, 658309, Control_c, 0, 64, 59
1, 658309, Note_on_c, 0, 49, 36
1, 658321, Note_on_c, 0, 67, 28
1, 658322, Note_on_c, 0, 57, 21
1, 658323, Control_c, 0, 64, 36
1, 658338, Control_c, 0, 64, 34
1, 658353, Control_c, 0, 64, 49
1, 658354, Note_on_c, 0, 64, 6
1, 658368, Control_c, 0, 64, 58
1, 658383, Control_c, 0, 64, 63
1, 658397, Control_c, 0, 64, 67
1, 658412, Control_c, 0, 64, 71
1, 658427, Control_c, 0, 64, 75
1, 658438, Note_off_c, 0, 67, 42
1, 658439, Note_off_c, 0, 69, 60
1, 658442, Control_c, 0, 64, 79
1, 658454, Note_off_c, 0, 49, 52
1, 658457, Control_c, 0, 64, 81
1, 658471, Control_c, 0, 64, 82
1, 658486, Control_c, 0, 64, 83
1, 658497, Note_off_c, 0, 57, 33
1, 658501, Control_c, 0, 64, 83
1, 658534, Note_off_c, 0, 64, 20
1, 658650, Control_c, 0, 64, 80
1, 658658, Note_on_c, 0, 69, 51
1, 658665, Control_c, 0, 64, 71
1, 658680, Control_c, 0, 64, 60
1, 658685, Note_on_c, 0, 50, 38
1, 658685, Note_on_c, 0, 57, 28
1, 658685, Note_on_c, 0, 66, 36
1, 658694, Control_c, 0, 64, 19
1, 658709, Control_c, 0, 64, 0
1, 658724, Control_c, 0, 64, 41
1, 658739, Control_c, 0, 64, 56
1, 658754, Control_c, 0, 64, 63
1, 658768, Control_c, 0, 64, 69
1, 658783, Control_c, 0, 64, 75
1, 658798, Control_c, 0, 64, 83
1, 658813, Control_c, 0, 64, 90
1, 658814, Note_off_c, 0, 69, 51
1, 658820, Note_off_c, 0, 50, 35
1, 658822, Note_off_c, 0, 66, 47
1, 658828, Control_c, 0, 64, 95
1, 658843, Note_off_c, 0, 57, 42
1, 658843, Control_c, 0, 64, 98
1, 658873, Control_c, 0, 64, 96
1, 658894, Control_c, 0, 64, 81
1, 658909, Control_c, 0, 64, 67
1, 658915, Note_on_c, 0, 69, 50
1, 658924, Control_c, 0, 64, 50
1, 658929, Note_on_c, 0, 66, 52
1, 658930, Note_on_c, 0, 59, 47
1, 658939, Control_c, 0, 64, 51
1, 658941, Note_on_c, 0, 50, 38
1, 658953, Control_c, 0, 64, 62
1, 658968, Control_c, 0, 64, 67
1, 658983, Control_c, 0, 64, 76
1, 658998, Control_c, 0, 64, 89
1, 659013, Control_c, 0, 64, 101
1, 659028, Control_c, 0, 64, 107
1, 659038, Note_off_c, 0, 66, 37
1, 659043, Control_c, 0, 64, 110
1, 659046, Note_off_c, 0, 69, 39
1, 659049, Note_off_c, 0, 50, 36
1, 659072, Note_off_c, 0, 59, 35
1, 659072, Control_c, 0, 64, 107
1, 659087, Control_c, 0, 64, 87
1, 659102, Control_c, 0, 64, 67
1, 659117, Control_c, 0, 64, 50
1, 659123, Note_on_c, 0, 69, 53
1, 659132, Control_c, 0, 64, 49
1, 659135, Note_on_c, 0, 66, 55
1, 659137, Note_on_c, 0, 60, 49
1, 659146, Note_on_c, 0, 50, 29
1, 659146, Control_c, 0, 64, 61
1, 659161, Control_c, 0, 64, 66
1, 659176, Control_c, 0, 64, 73
1, 659191, Control_c, 0, 64, 83
1, 659206, Control_c, 0, 64, 88
1, 659220, Control_c, 0, 64, 89
1, 659235, Control_c, 0, 64, 89
1, 659243, Note_off_c, 0, 66, 35
1, 659245, Note_off_c, 0, 50, 35
1, 659245, Note_off_c, 0, 60, 37
1, 659245, Note_off_c, 0, 69, 39
1, 659250, Control_c, 0, 64, 90
1, 659265, Control_c, 0, 64, 90
1, 659279, Control_c, 0, 64, 91
1, 659309, Control_c, 0, 64, 90
1, 659325, Control_c, 0, 64, 85
1, 659340, Control_c, 0, 64, 72
1, 659355, Control_c, 0, 64, 62
1, 659369, Control_c, 0, 64, 46
1, 659371, Note_on_c, 0, 69, 52
1, 659383, Note_on_c, 0, 66, 48
1, 659384, Control_c, 0, 64, 51
1, 659388, Note_on_c, 0, 60, 41
1, 659394, Note_on_c, 0, 50, 39
1, 659399, Control_c, 0, 64, 60
1, 659414, Control_c, 0, 64, 65
1, 659429, Control_c, 0, 64, 72
1, 659443, Control_c, 0, 64, 79
1, 659450, Note_off_c, 0, 60, 58
1, 659458, Control_c, 0, 64, 84
1, 659459, Note_off_c, 0, 50, 54
1, 659465, Note_off_c, 0, 69, 62
1, 659473, Control_c, 0, 64, 85
1, 659487, Control_c, 0, 64, 86
1, 659510, Note_off_c, 0, 66, 33
1, 659643, Control_c, 0, 64, 86
1, 659658, Control_c, 0, 64, 78
1, 659666, Note_on_c, 0, 72, 53
1, 659673, Control_c, 0, 64, 66
1, 659678, Note_on_c, 0, 66, 43
1, 659682, Note_on_c, 0, 64, 46
1, 659688, Control_c, 0, 64, 34
1, 659693, Note_on_c, 0, 50, 36
1, 659702, Control_c, 0, 64, 0
1, 659732, Control_c, 0, 64, 43
1, 659747, Control_c, 0, 64, 58
1, 659762, Control_c, 0, 64, 66
1, 659776, Control_c, 0, 64, 73
1, 659791, Note_off_c, 0, 72, 55
1, 659791, Control_c, 0, 64, 81
1, 659806, Control_c, 0, 64, 85
1, 659807, Note_off_c, 0, 66, 36
1, 659808, Note_off_c, 0, 64, 37
1, 659821, Note_off_c, 0, 50, 35
1, 659821, Control_c, 0, 64, 89
1, 659836, Control_c, 0, 64, 91
1, 659851, Control_c, 0, 64, 92
1, 659880, Control_c, 0, 64, 90
1, 659895, Control_c, 0, 64, 78
1, 659910, Control_c, 0, 64, 65
1, 659925, Control_c, 0, 64, 41
1, 659931, Note_on_c, 0, 66, 44
1, 659935, Note_on_c, 0, 62, 48
1, 659939, Note_on_c, 0, 50, 33
1, 659940, Control_c, 0, 64, 10
1, 659944, Note_on_c, 0, 71, 48
1, 659955, Control_c, 0, 64, 45
1, 659969, Control_c, 0, 64, 61
1, 659984, Control_c, 0, 64, 67
1, 659999, Control_c, 0, 64, 74
1, 660008, Note_off_c, 0, 71, 62
1, 660014, Control_c, 0, 64, 83
1, 660029, Control_c, 0, 64, 87
1, 660043, Control_c, 0, 64, 89
1, 660047, Note_off_c, 0, 66, 50
1, 660058, Control_c, 0, 64, 91
1, 660073, Control_c, 0, 64, 91
1, 660080, Note_off_c, 0, 50, 38
1, 660089, Note_off_c, 0, 62, 31
1, 660266, Control_c, 0, 64, 91
1, 660281, Control_c, 0, 64, 90
1, 660296, Control_c, 0, 64, 88
1, 660310, Control_c, 0, 64, 87
1, 660325, Control_c, 0, 64, 85
1, 660340, Control_c, 0, 64, 82
1, 660355, Control_c, 0, 64, 80
1, 660366, Note_on_c, 0, 69, 40
1, 660370, Control_c, 0, 64, 77
1, 660381, Note_on_c, 0, 66, 38
1, 660385, Control_c, 0, 64, 75
1, 660407, Control_c, 0, 64, 72
1, 660410, Note_on_c, 0, 60, 35
1, 660422, Control_c, 0, 64, 70
1, 660435, Note_on_c, 0, 50, 26
1, 660437, Control_c, 0, 64, 67
1, 660452, Control_c, 0, 64, 63
1, 660466, Control_c, 0, 64, 53
1, 660481, Control_c, 0, 64, 0
1, 660659, Control_c, 0, 64, 25
1, 660673, Control_c, 0, 64, 51
1, 660688, Control_c, 0, 64, 58
1, 660703, Control_c, 0, 64, 61
1, 660718, Control_c, 0, 64, 63
1, 660733, Control_c, 0, 64, 64
1, 660748, Control_c, 0, 64, 66
1, 660763, Control_c, 0, 64, 69
1, 660778, Control_c, 0, 64, 73
1, 660792, Control_c, 0, 64, 79
1, 660807, Control_c, 0, 64, 84
1, 660819, Note_off_c, 0, 50, 25
1, 660822, Control_c, 0, 64, 89
1, 660836, Control_c, 0, 64, 93
1, 660851, Control_c, 0, 64, 101
1, 660866, Control_c, 0, 64, 113
1, 660881, Control_c, 0, 64, 127
1, 660922, Note_off_c, 0, 60, 33
1, 661003, Note_off_c, 0, 66, 45
1, 661409, Control_c, 0, 64, 110
1, 661423, Control_c, 0, 64, 101
1, 661438, Control_c, 0, 64, 94
1, 661451, Note_on_c, 0, 67, 34
1, 661453, Control_c, 0, 64, 87
1, 661467, Control_c, 0, 64, 82
1, 661482, Control_c, 0, 64, 78
1, 661488, Note_on_c, 0, 55, 23
1, 661493, Note_on_c, 0, 59, 19
1, 661497, Control_c, 0, 64, 72
1, 661512, Control_c, 0, 64, 66
1, 661527, Control_c, 0, 64, 56
1, 661529, Note_off_c, 0, 69, 47
1, 661541, Control_c, 0, 64, 0
1, 661675, Control_c, 0, 64, 54
1, 661690, Control_c, 0, 64, 64
1, 661705, Control_c, 0, 64, 67
1, 661720, Control_c, 0, 64, 70
1, 661735, Control_c, 0, 64, 75
1, 661750, Control_c, 0, 64, 84
1, 661764, Control_c, 0, 64, 91
1, 661779, Control_c, 0, 64, 97
1, 661794, Control_c, 0, 64, 102
1, 661795, Note_off_c, 0, 67, 41
1, 661803, Note_off_c, 0, 59, 42
1, 661809, Control_c, 0, 64, 106
1, 661812, Note_off_c, 0, 55, 48
1, 661824, Control_c, 0, 64, 109
1, 661839, Control_c, 0, 64, 112
1, 661854, Control_c, 0, 64, 114
1, 661883, Control_c, 0, 64, 115
1, 662038, Control_c, 0, 64, 114
1, 662067, Control_c, 0, 64, 112
1, 662082, Control_c, 0, 64, 107
1, 662096, Control_c, 0, 64, 101
1, 662111, Control_c, 0, 64, 93
1, 662126, Control_c, 0, 64, 85
1, 662141, Control_c, 0, 64, 77
1, 662156, Control_c, 0, 64, 69
1, 662170, Control_c, 0, 64, 61
1, 662185, Control_c, 0, 64, 31
1, 662200, Control_c, 0, 64, 0
1, 662393, Control_c, 0, 64, 50
1, 662408, Control_c, 0, 64, 59
1, 662423, Control_c, 0, 64, 62
1, 662437, Control_c, 0, 64, 63
1, 662452, Control_c, 0, 64, 65
1, 662467, Control_c, 0, 64, 66
1, 662481, Control_c, 0, 64, 68
1, 662496, Control_c, 0, 64, 71
1, 662512, Control_c, 0, 64, 73
1, 662527, Control_c, 0, 64, 75
1, 662542, Control_c, 0, 64, 78
1, 662557, Control_c, 0, 64, 81
1, 662572, Control_c, 0, 64, 85
1, 662586, Control_c, 0, 64, 91
1, 662596, Note_on_c, 0, 31, 31
1, 662601, Control_c, 0, 64, 99
1, 662616, Control_c, 0, 64, 113
1, 662638, Control_c, 0, 64, 127
1, 662651, Note_off_c, 0, 31, 57
1, 662915, Note_on_c, 0, 71, 42
1, 662930, Note_on_c, 0, 67, 34
1, 662946, Note_on_c, 0, 59, 22
1, 662975, Note_on_c, 0, 43, 24
1, 662981, Note_on_c, 0, 50, 27
1, 664041, Note_off_c, 0, 59, 37
1, 664081, Note_off_c, 0, 71, 39
1, 664109, Note_off_c, 0, 43, 31
1, 664116, Note_off_c, 0, 50, 22
1, 664227, Note_off_c, 0, 67, 40
1, 664590, Note_on_c, 0, 69, 40
1, 664602, Note_on_c, 0, 66, 34
1, 664603, Note_on_c, 0, 60, 31
1, 664610, Note_on_c, 0, 43, 29
1, 664615, Note_on_c, 0, 50, 28
1, 664638, Note_off_c, 0, 60, 51
1, 664657, Note_off_c, 0, 66, 44
1, 664662, Note_off_c, 0, 43, 43
1, 664683, Note_off_c, 0, 50, 37
1, 664740, Note_off_c, 0, 69, 37
1, 664761, Note_on_c, 0, 71, 47
1, 664769, Note_on_c, 0, 67, 32
1, 664772, Control_c, 0, 64, 106
1, 664779, Note_on_c, 0, 59, 30
1, 664783, Poly_aftertouch_c, 0, 50, 127
1, 664787, Control_c, 0, 64, 97
1, 664791, Note_on_c, 0, 43, 34
1, 664802, Control_c, 0, 64, 87
1, 664815, Note_off_c, 0, 67, 0
1, 664815, Note_on_c, 0, 67, 5
1, 664816, Control_c, 0, 64, 78
1, 664831, Control_c, 0, 64, 70
1, 664846, Control_c, 0, 64, 61
1, 664861, Control_c, 0, 64, 10
1, 664876, Control_c, 0, 64, 0
1, 664944, Control_c, 0, 64, 53
1, 664959, Control_c, 0, 64, 64
1, 664974, Control_c, 0, 64, 70
1, 664988, Control_c, 0, 64, 76
1, 665003, Control_c, 0, 64, 79
1, 665018, Control_c, 0, 64, 83
1, 665033, Control_c, 0, 64, 89
1, 665048, Control_c, 0, 64, 97
1, 665062, Control_c, 0, 64, 107
1, 665077, Control_c, 0, 64, 127
1, 665785, Poly_aftertouch_c, 0, 50, 0
1, 665834, Note_off_c, 0, 43, 31
1, 665841, Note_off_c, 0, 59, 38
1, 665856, Note_off_c, 0, 71, 37
1, 666033, Note_off_c, 0, 67, 43
1, 666306, Note_on_c, 0, 69, 41
1, 666322, Note_on_c, 0, 60, 35
1, 666325, Note_on_c, 0, 43, 31
1, 666325, Note_on_c, 0, 66, 40
1, 666362, Note_off_c, 0, 60, 54
1, 666388, Poly_aftertouch_c, 0, 50, 127
1, 666395, Note_off_c, 0, 66, 45
1, 666463, Poly_aftertouch_c, 0, 50, 0
1, 666468, Note_off_c, 0, 43, 0
1, 666474, Note_off_c, 0, 69, 38
1, 666482, Note_on_c, 0, 71, 49
1, 666486, Note_on_c, 0, 67, 47
1, 666501, Poly_aftertouch_c, 0, 50, 127
1, 666507, Poly_aftertouch_c, 0, 43, 127
1, 666509, Note_on_c, 0, 59, 34
1, 666516, Control_c, 0, 64, 116
1, 666531, Control_c, 0, 64, 98
1, 666546, Control_c, 0, 64, 86
1, 666560, Control_c, 0, 64, 76
1, 666575, Control_c, 0, 64, 66
1, 666590, Control_c, 0, 64, 50
1, 666605, Control_c, 0, 64, 0
1, 666679, Control_c, 0, 64, 19
1, 666693, Control_c, 0, 64, 58
1, 666708, Control_c, 0, 64, 66
1, 666723, Control_c, 0, 64, 72
1, 666738, Control_c, 0, 64, 77
1, 666753, Control_c, 0, 64, 83
1, 666767, Control_c, 0, 64, 90
1, 666782, Control_c, 0, 64, 100
1, 666797, Control_c, 0, 64, 125
1, 666812, Control_c, 0, 64, 127
1, 667534, Poly_aftertouch_c, 0, 50, 0
1, 667553, Note_off_c, 0, 71, 32
1, 667572, Note_off_c, 0, 59, 37
1, 667640, Poly_aftertouch_c, 0, 43, 0
1, 667781, Note_off_c, 0, 67, 33
1, 668053, Note_on_c, 0, 69, 41
1, 668066, Note_on_c, 0, 60, 31
1, 668069, Note_on_c, 0, 43, 30
1, 668072, Note_on_c, 0, 66, 36
1, 668082, Note_on_c, 0, 50, 23
1, 668111, Note_off_c, 0, 60, 49
1, 668122, Note_off_c, 0, 66, 46
1, 668131, Note_off_c, 0, 50, 44
1, 668159, Note_off_c, 0, 43, 35
1, 668180, Note_off_c, 0, 69, 50
1, 668236, Note_on_c, 0, 71, 48
1, 668249, Note_on_c, 0, 67, 35
1, 668251, Control_c, 0, 64, 83
1, 668254, Note_on_c, 0, 50, 4
1, 668256, Note_on_c, 0, 43, 30
1, 668266, Control_c, 0, 64, 65
1, 668275, Note_on_c, 0, 59, 28
1, 668281, Control_c, 0, 64, 51
1, 668295, Note_off_c, 0, 67, 0
1, 668295, Note_on_c, 0, 67, 11
1, 668295, Control_c, 0, 64, 57
1, 668310, Control_c, 0, 64, 64
1, 668314, Note_off_c, 0, 50, 53
1, 668325, Control_c, 0, 64, 68
1, 668340, Control_c, 0, 64, 74
1, 668355, Control_c, 0, 64, 87
1, 668360, Note_off_c, 0, 43, 54
1, 668370, Control_c, 0, 64, 100
1, 668385, Control_c, 0, 64, 107
1, 668400, Control_c, 0, 64, 109
1, 668414, Control_c, 0, 64, 110
1, 668433, Note_off_c, 0, 59, 41
1, 668510, Note_off_c, 0, 71, 37
1, 668518, Control_c, 0, 64, 105
1, 668532, Control_c, 0, 64, 97
1, 668547, Control_c, 0, 64, 87
1, 668559, Note_on_c, 0, 38, 50
1, 668562, Control_c, 0, 64, 79
1, 668577, Control_c, 0, 64, 70
1, 668580, Note_off_c, 0, 67, 40
1, 668592, Control_c, 0, 64, 63
1, 668606, Control_c, 0, 64, 53
1, 668621, Control_c, 0, 64, 30
1, 668643, Control_c, 0, 64, 0
1, 668704, Note_off_c, 0, 38, 34
1, 668799, Note_on_c, 0, 36, 47
1, 668886, Note_off_c, 0, 36, 49
1, 669028, Note_on_c, 0, 35, 41
1, 669156, Note_off_c, 0, 35, 36
1, 669267, Note_on_c, 0, 33, 38
1, 669347, Note_off_c, 0, 33, 52
1, 669518, Note_on_c, 0, 31, 39
1, 669569, Control_c, 0, 64, 48
1, 669584, Control_c, 0, 64, 64
1, 669592, Note_off_c, 0, 31, 59
1, 669599, Control_c, 0, 64, 69
1, 669613, Control_c, 0, 64, 75
1, 669628, Control_c, 0, 64, 86
1, 669643, Control_c, 0, 64, 106
1, 669658, Control_c, 0, 64, 127
1, 669902, Note_on_c, 0, 79, 59
1, 669919, Note_on_c, 0, 71, 42
1, 669944, Note_on_c, 0, 67, 38
1, 669947, Note_on_c, 0, 43, 30
1, 669953, Note_on_c, 0, 50, 34
1, 670925, Note_off_c, 0, 71, 41
1, 671023, Note_off_c, 0, 67, 42
1, 671088, Note_off_c, 0, 43, 39
1, 671109, Note_off_c, 0, 50, 33
1, 671323, Note_off_c, 0, 79, 36
1, 671418, Note_on_c, 0, 69, 51
1, 671420, Note_on_c, 0, 78, 58
1, 671437, Note_on_c, 0, 72, 26
1, 671438, Note_on_c, 0, 50, 38
1, 671440, Note_on_c, 0, 43, 33
1, 671470, Note_off_c, 0, 72, 52
1, 671473, Note_off_c, 0, 69, 63
1, 671485, Note_off_c, 0, 50, 54
1, 671506, Note_off_c, 0, 43, 39
1, 671562, Note_off_c, 0, 78, 62
1, 671570, Note_on_c, 0, 79, 66
1, 671591, Note_on_c, 0, 71, 48
1, 671594, Note_on_c, 0, 67, 44
1, 671596, Note_on_c, 0, 50, 35
1, 671604, Note_on_c, 0, 43, 20
1, 671654, Control_c, 0, 64, 86
1, 671669, Control_c, 0, 64, 69
1, 671683, Control_c, 0, 64, 48
1, 671698, Control_c, 0, 64, 0
1, 671787, Control_c, 0, 64, 44
1, 671801, Control_c, 0, 64, 62
1, 671816, Control_c, 0, 64, 65
1, 671831, Control_c, 0, 64, 66
1, 671846, Control_c, 0, 64, 67
1, 671861, Control_c, 0, 64, 70
1, 671875, Control_c, 0, 64, 73
1, 671890, Control_c, 0, 64, 78
1, 671905, Control_c, 0, 64, 83
1, 671920, Control_c, 0, 64, 87
1, 671935, Control_c, 0, 64, 91
1, 671950, Control_c, 0, 64, 97
1, 671965, Control_c, 0, 64, 106
1, 671980, Control_c, 0, 64, 127
1, 672564, Note_off_c, 0, 71, 57
1, 672599, Note_off_c, 0, 67, 35
1, 672639, Control_c, 0, 67, 124
1, 672649, Note_off_c, 0, 50, 36
1, 672653, Control_c, 0, 67, 119
1, 672660, Note_off_c, 0, 43, 38
1, 672668, Control_c, 0, 67, 114
1, 672683, Control_c, 0, 67, 110
1, 672698, Control_c, 0, 67, 106
1, 672713, Control_c, 0, 67, 102
1, 672728, Control_c, 0, 67, 98
1, 672742, Control_c, 0, 67, 94
1, 672757, Control_c, 0, 67, 91
1, 672764, Note_off_c, 0, 79, 38
1, 672772, Control_c, 0, 67, 89
1, 672787, Control_c, 0, 67, 86
1, 672802, Control_c, 0, 67, 83
1, 672816, Control_c, 0, 67, 80
1, 672831, Control_c, 0, 67, 76
1, 672846, Control_c, 0, 67, 71
1, 672861, Control_c, 0, 67, 68
1, 672876, Control_c, 0, 67, 65
1, 672892, Control_c, 0, 67, 63
1, 672907, Control_c, 0, 67, 61
1, 672921, Control_c, 0, 67, 59
1, 672936, Control_c, 0, 67, 56
1, 672951, Control_c, 0, 67, 53
1, 672966, Control_c, 0, 67, 50
1, 672971, Note_on_c, 0, 78, 68
1, 672981, Control_c, 0, 67, 47
1, 672982, Note_on_c, 0, 69, 53
1, 672986, Note_on_c, 0, 72, 46
1, 672995, Control_c, 0, 67, 44
1, 672996, Note_on_c, 0, 43, 37
1, 672999, Note_on_c, 0, 50, 37
1, 673010, Control_c, 0, 67, 41
1, 673013, Note_off_c, 0, 72, 58
1, 673025, Control_c, 0, 67, 37
1, 673029, Note_off_c, 0, 69, 62
1, 673040, Control_c, 0, 67, 33
1, 673045, Note_off_c, 0, 50, 47
1, 673051, Note_off_c, 0, 43, 42
1, 673054, Control_c, 0, 67, 29
1, 673069, Control_c, 0, 67, 25
1, 673084, Control_c, 0, 67, 20
1, 673099, Control_c, 0, 67, 16
1, 673114, Control_c, 0, 67, 12
1, 673125, Note_on_c, 0, 79, 75
1, 673130, Note_off_c, 0, 78, 62
1, 673134, Note_on_c, 0, 71, 58
1, 673136, Control_c, 0, 67, 8
1, 673139, Note_on_c, 0, 67, 54
1, 673151, Control_c, 0, 67, 0
1, 673162, Note_on_c, 0, 43, 38
1, 673162, Note_on_c, 0, 50, 39
1, 673196, Control_c, 0, 64, 90
1, 673210, Control_c, 0, 64, 67
1, 673225, Control_c, 0, 64, 12
1, 673240, Control_c, 0, 64, 0
1, 673299, Control_c, 0, 64, 57
1, 673314, Control_c, 0, 64, 67
1, 673328, Control_c, 0, 64, 75
1, 673343, Control_c, 0, 64, 85
1, 673358, Control_c, 0, 64, 102
1, 673372, Control_c, 0, 64, 127
1, 674161, Note_off_c, 0, 71, 37
1, 674311, Note_off_c, 0, 67, 35
1, 674349, Note_off_c, 0, 43, 35
1, 674373, Note_off_c, 0, 50, 33
1, 674464, Note_off_c, 0, 79, 48
1, 674592, Note_on_c, 0, 78, 69
1, 674600, Note_on_c, 0, 69, 57
1, 674603, Note_on_c, 0, 72, 48
1, 674610, Note_on_c, 0, 50, 48
1, 674621, Note_on_c, 0, 43, 44
1, 674636, Note_off_c, 0, 72, 59
1, 674658, Note_off_c, 0, 69, 61
1, 674664, Note_off_c, 0, 50, 57
1, 674687, Note_off_c, 0, 43, 41
1, 674742, Note_off_c, 0, 78, 63
1, 674753, Note_on_c, 0, 79, 72
1, 674767, Control_c, 0, 64, 77
1, 674774, Note_on_c, 0, 67, 56
1, 674776, Note_on_c, 0, 71, 41
1, 674781, Control_c, 0, 64, 29
1, 674792, Note_on_c, 0, 50, 42
1, 674795, Note_on_c, 0, 43, 43
1, 674796, Control_c, 0, 64, 0
1, 674825, Control_c, 0, 64, 50
1, 674840, Control_c, 0, 64, 65
1, 674855, Control_c, 0, 64, 78
1, 674856, Note_off_c, 0, 50, 62
1, 674870, Control_c, 0, 64, 110
1, 674885, Control_c, 0, 64, 127
1, 674903, Note_off_c, 0, 43, 61
1, 675053, Note_off_c, 0, 67, 38
1, 675062, Note_off_c, 0, 71, 33
1, 675077, Note_on_c, 0, 38, 69
1, 675077, Control_c, 0, 64, 108
1, 675090, Note_off_c, 0, 79, 55
1, 675092, Control_c, 0, 64, 86
1, 675107, Control_c, 0, 64, 74
1, 675122, Control_c, 0, 64, 65
1, 675137, Control_c, 0, 64, 55
1, 675151, Control_c, 0, 64, 33
1, 675166, Control_c, 0, 64, 0
1, 675202, Note_off_c, 0, 38, 59
1, 675312, Note_on_c, 0, 36, 74
1, 675434, Note_off_c, 0, 36, 62
1, 675540, Note_on_c, 0, 35, 76
1, 675681, Note_off_c, 0, 35, 65
1, 675768, Note_on_c, 0, 33, 82
1, 675880, Note_off_c, 0, 33, 60
1, 676004, Note_on_c, 0, 31, 82
1, 676063, Control_c, 0, 64, 61
1, 676076, Note_off_c, 0, 31, 64
1, 676078, Control_c, 0, 64, 72
1, 676093, Control_c, 0, 64, 84
1, 676108, Control_c, 0, 64, 106
1, 676131, Control_c, 0, 64, 127
1, 676400, Note_on_c, 0, 83, 90
1, 676405, Note_on_c, 0, 79, 81
1, 676407, Note_on_c, 0, 71, 83
1, 676420, Note_on_c, 0, 50, 70
1, 676424, Note_on_c, 0, 43, 67
1, 676501, Control_c, 0, 64, 91
1, 676516, Control_c, 0, 64, 67
1, 676531, Control_c, 0, 64, 0
1, 676604, Control_c, 0, 64, 38
1, 676619, Control_c, 0, 64, 66
1, 676634, Control_c, 0, 64, 75
1, 676649, Control_c, 0, 64, 85
1, 676663, Control_c, 0, 64, 94
1, 676678, Control_c, 0, 64, 127
1, 677554, Note_off_c, 0, 83, 48
1, 677568, Note_off_c, 0, 71, 31
1, 677650, Note_off_c, 0, 43, 27
1, 677671, Note_off_c, 0, 50, 31
1, 677814, Note_off_c, 0, 79, 33
1, 677891, Note_on_c, 0, 78, 84
1, 677891, Note_on_c, 0, 81, 83
1, 677894, Note_on_c, 0, 72, 75
1, 677899, Note_on_c, 0, 50, 66
1, 677906, Note_on_c, 0, 43, 63
1, 677953, Note_off_c, 0, 43, 63
1, 677960, Note_off_c, 0, 72, 63
1, 677963, Note_off_c, 0, 50, 61
1, 677986, Note_off_c, 0, 78, 56
1, 678013, Note_off_c, 0, 81, 56
1, 678035, Note_on_c, 0, 79, 80
1, 678035, Note_on_c, 0, 83, 92
1, 678037, Note_on_c, 0, 71, 93
1, 678048, Note_on_c, 0, 50, 70
1, 678049, Note_on_c, 0, 43, 71
1, 678058, Control_c, 0, 64, 100
1, 678073, Control_c, 0, 64, 69
1, 678088, Control_c, 0, 64, 0
1, 678161, Control_c, 0, 64, 38
1, 678176, Control_c, 0, 64, 65
1, 678191, Control_c, 0, 64, 81
1, 678206, Control_c, 0, 64, 127
1, 679146, Note_off_c, 0, 71, 35
1, 679155, Note_off_c, 0, 83, 49
1, 679188, Note_off_c, 0, 43, 0
1, 679196, Note_off_c, 0, 50, 36
1, 679224, Poly_aftertouch_c, 0, 43, 0
1, 679322, Note_off_c, 0, 79, 35
1, 679409, Note_on_c, 0, 72, 88
1, 679410, Note_on_c, 0, 78, 85
1, 679411, Note_on_c, 0, 81, 86
1, 679412, Note_on_c, 0, 50, 80
1, 679414, Note_on_c, 0, 43, 70
1, 679480, Note_off_c, 0, 43, 61
1, 679486, Note_off_c, 0, 72, 62
1, 679494, Note_off_c, 0, 50, 58
1, 679509, Note_off_c, 0, 78, 59
1, 679524, Note_off_c, 0, 81, 54
1, 679554, Note_on_c, 0, 79, 87
1, 679555, Note_on_c, 0, 83, 98
1, 679556, Note_on_c, 0, 71, 95
1, 679557, Note_on_c, 0, 50, 81
1, 679558, Note_on_c, 0, 43, 83
1, 679600, Control_c, 0, 64, 89
1, 679614, Control_c, 0, 64, 60
1, 679629, Control_c, 0, 64, 0
1, 679635, Poly_aftertouch_c, 0, 81, 0
1, 679718, Control_c, 0, 64, 65
1, 679733, Control_c, 0, 64, 98
1, 679748, Control_c, 0, 64, 127
1, 680577, Note_off_c, 0, 71, 46
1, 680645, Note_off_c, 0, 83, 48
1, 680657, Note_off_c, 0, 50, 51
1, 680673, Note_off_c, 0, 79, 54
1, 680729, Note_off_c, 0, 43, 58
1, 681227, Note_on_c, 0, 84, 101
1, 681243, Note_on_c, 0, 72, 78
1, 681246, Note_on_c, 0, 50, 54
1, 681251, Note_on_c, 0, 78, 68
1, 681256, Note_on_c, 0, 43, 52
1, 681259, Note_on_c, 0, 57, 48
1, 681453, Note_off_c, 0, 57, 37
1, 681460, Note_off_c, 0, 72, 51
1, 681479, Note_off_c, 0, 78, 54
1, 681490, Note_off_c, 0, 50, 34
1, 681499, Note_off_c, 0, 84, 56
1, 681507, Note_off_c, 0, 43, 38
1, 681660, Note_on_c, 0, 84, 101
1, 681681, Note_on_c, 0, 72, 67
1, 681690, Note_on_c, 0, 78, 60
1, 681695, Note_on_c, 0, 43, 54
1, 681698, Note_on_c, 0, 50, 52
1, 681698, Note_on_c, 0, 57, 49
1, 681736, Note_off_c, 0, 78, 0
1, 681736, Note_on_c, 0, 78, 36
1, 681744, Control_c, 0, 64, 103
1, 681758, Control_c, 0, 64, 76
1, 681773, Control_c, 0, 64, 50
1, 681788, Control_c, 0, 64, 0
1, 681847, Control_c, 0, 64, 55
1, 681862, Control_c, 0, 64, 71
1, 681877, Control_c, 0, 64, 94
1, 681891, Control_c, 0, 64, 127
1, 682054, Note_off_c, 0, 50, 34
1, 682187, Note_on_c, 0, 50, 60
1, 682344, Note_off_c, 0, 50, 49
1, 682512, Note_on_c, 0, 50, 55
1, 682610, Note_off_c, 0, 50, 55
1, 682750, Note_on_c, 0, 50, 46
1, 682839, Note_off_c, 0, 50, 51
1, 682982, Note_on_c, 0, 50, 44
1, 683052, Note_off_c, 0, 50, 54
1, 683174, Note_on_c, 0, 50, 41
1, 683251, Note_off_c, 0, 50, 53
1, 683400, Note_on_c, 0, 50, 41
1, 683457, Note_off_c, 0, 50, 53
1, 683598, Note_on_c, 0, 50, 40
1, 683665, Note_off_c, 0, 50, 52
1, 683816, Note_on_c, 0, 50, 35
1, 683879, Note_off_c, 0, 50, 46
1, 684031, Note_on_c, 0, 50, 35
1, 684091, Note_off_c, 0, 50, 50
1, 684243, Note_on_c, 0, 50, 30
1, 684331, Note_off_c, 0, 50, 36
1, 684426, Control_c, 0, 67, 11
1, 684441, Control_c, 0, 67, 13
1, 684456, Control_c, 0, 67, 15
1, 684465, Note_on_c, 0, 50, 24
1, 684471, Control_c, 0, 67, 17
1, 684485, Control_c, 0, 67, 19
1, 684500, Control_c, 0, 67, 22
1, 684515, Control_c, 0, 67, 24
1, 684529, Control_c, 0, 67, 26
1, 684534, Note_off_c, 0, 50, 50
1, 684544, Control_c, 0, 67, 27
1, 684559, Control_c, 0, 67, 28
1, 684574, Control_c, 0, 67, 29
1, 684619, Control_c, 0, 67, 29
1, 684693, Note_on_c, 0, 50, 38
1, 684743, Note_off_c, 0, 50, 55
1, 684765, Note_off_c, 0, 84, 53
1, 684767, Control_c, 0, 67, 29
1, 684777, Note_off_c, 0, 43, 35
1, 684788, Note_off_c, 0, 78, 38
1, 684795, Note_off_c, 0, 57, 38
1, 684799, Note_off_c, 0, 72, 38
1, 684841, Control_c, 0, 67, 28
1, 684872, Control_c, 0, 67, 28
1, 684901, Control_c, 0, 67, 27
1, 684916, Control_c, 0, 67, 27
1, 684946, Control_c, 0, 67, 26
1, 684960, Control_c, 0, 67, 26
1, 684965, Note_on_c, 0, 84, 50
1, 684985, Note_on_c, 0, 78, 39
1, 684986, Note_on_c, 0, 72, 26
1, 684990, Control_c, 0, 67, 25
1, 684997, Note_on_c, 0, 57, 12
1, 685005, Control_c, 0, 67, 25
1, 685012, Note_on_c, 0, 50, 26
1, 685012, Note_on_c, 0, 43, 15
1, 685049, Control_c, 0, 67, 24
1, 685055, Note_off_c, 0, 72, 42
1, 685060, Note_off_c, 0, 50, 45
1, 685075, Note_off_c, 0, 57, 38
1, 685079, Control_c, 0, 67, 23
1, 685081, Note_off_c, 0, 78, 38
1, 685084, Note_off_c, 0, 84, 49
1, 685093, Note_off_c, 0, 43, 36
1, 685094, Control_c, 0, 67, 23
1, 685132, Control_c, 0, 67, 22
1, 685161, Control_c, 0, 67, 21
1, 685176, Control_c, 0, 67, 21
1, 685206, Control_c, 0, 67, 20
1, 685221, Control_c, 0, 67, 20
1, 685239, Note_on_c, 0, 84, 59
1, 685250, Control_c, 0, 67, 19
1, 685266, Note_on_c, 0, 78, 44
1, 685271, Note_on_c, 0, 43, 28
1, 685280, Control_c, 0, 67, 19
1, 685292, Note_on_c, 0, 50, 23
1, 685303, Poly_aftertouch_c, 0, 57, 127
1, 685307, Poly_aftertouch_c, 0, 72, 127
1, 685319, Note_off_c, 0, 78, 50
1, 685333, Note_off_c, 0, 50, 48
1, 685337, Note_off_c, 0, 84, 57
1, 685349, Poly_aftertouch_c, 0, 57, 0
1, 685350, Poly_aftertouch_c, 0, 72, 0
1, 685353, Control_c, 0, 67, 18
1, 685368, Control_c, 0, 67, 18
1, 685372, Note_off_c, 0, 43, 30
1, 685442, Control_c, 0, 67, 17
1, 685457, Control_c, 0, 67, 17
1, 685474, Note_on_c, 0, 84, 70
1, 685487, Control_c, 0, 67, 16
1, 685501, Control_c, 0, 67, 16
1, 685502, Note_on_c, 0, 57, 29
1, 685502, Note_on_c, 0, 78, 53
1, 685503, Note_on_c, 0, 43, 35
1, 685507, Note_on_c, 0, 72, 37
1, 685516, Control_c, 0, 67, 15
1, 685522, Note_on_c, 0, 50, 26
1, 685546, Control_c, 0, 67, 14
1, 685551, Note_off_c, 0, 78, 48
1, 685552, Note_off_c, 0, 72, 46
1, 685561, Control_c, 0, 67, 14
1, 685565, Note_off_c, 0, 50, 47
1, 685576, Control_c, 0, 67, 13
1, 685576, Note_off_c, 0, 57, 38
1, 685577, Note_off_c, 0, 84, 59
1, 685591, Control_c, 0, 67, 12
1, 685606, Note_off_c, 0, 43, 30
1, 685606, Control_c, 0, 67, 11
1, 685620, Control_c, 0, 67, 10
1, 685635, Control_c, 0, 67, 9
1, 685650, Control_c, 0, 67, 9
1, 685665, Control_c, 0, 67, 8
1, 685680, Control_c, 0, 67, 0
1, 685721, Note_on_c, 0, 84, 72
1, 685738, Note_on_c, 0, 43, 27
1, 685740, Note_on_c, 0, 78, 54
1, 685746, Note_on_c, 0, 57, 27
1, 685749, Note_on_c, 0, 72, 42
1, 685757, Note_on_c, 0, 50, 23
1, 685799, Note_off_c, 0, 72, 45
1, 685803, Note_off_c, 0, 50, 46
1, 685805, Note_off_c, 0, 78, 49
1, 685814, Note_off_c, 0, 57, 41
1, 685827, Note_off_c, 0, 84, 59
1, 685871, Note_off_c, 0, 43, 30
1, 685981, Note_on_c, 0, 84, 70
1, 686000, Note_on_c, 0, 43, 30
1, 686005, Note_on_c, 0, 78, 56
1, 686015, Note_on_c, 0, 72, 44
1, 686016, Note_on_c, 0, 57, 29
1, 686038, Note_on_c, 0, 50, 30
1, 686078, Note_off_c, 0, 84, 59
1, 686082, Note_off_c, 0, 50, 46
1, 686087, Note_off_c, 0, 57, 41
1, 686094, Note_off_c, 0, 78, 45
1, 686135, Note_off_c, 0, 72, 44
1, 686168, Note_off_c, 0, 43, 35
1, 686339, Control_c, 0, 64, 89
1, 686340, Note_on_c, 0, 83, 63
1, 686354, Control_c, 0, 64, 68
1, 686355, Note_on_c, 0, 79, 49
1, 686369, Control_c, 0, 64, 54
1, 686373, Note_on_c, 0, 71, 38
1, 686378, Note_on_c, 0, 43, 26
1, 686378, Note_on_c, 0, 55, 20
1, 686384, Control_c, 0, 64, 0
1, 686393, Note_on_c, 0, 50, 35
1, 686397, Note_off_c, 0, 79, 0
1, 686397, Note_on_c, 0, 79, 26
1, 686413, Control_c, 0, 64, 44
1, 686428, Control_c, 0, 64, 58
1, 686438, Note_off_c, 0, 55, 59
1, 686443, Control_c, 0, 64, 65
1, 686458, Control_c, 0, 64, 74
1, 686473, Control_c, 0, 64, 86
1, 686477, Note_off_c, 0, 50, 58
1, 686488, Control_c, 0, 64, 94
1, 686503, Control_c, 0, 64, 98
1, 686518, Control_c, 0, 64, 102
1, 686518, Control_c, 0, 67, 10
1, 686533, Control_c, 0, 64, 105
1, 686533, Control_c, 0, 67, 14
1, 686542, Note_off_c, 0, 43, 51
1, 686547, Control_c, 0, 64, 105
1, 686547, Control_c, 0, 67, 17
1, 686562, Control_c, 0, 67, 20
1, 686577, Control_c, 0, 67, 22
1, 686599, Control_c, 0, 67, 25
1, 686614, Control_c, 0, 67, 28
1, 686629, Control_c, 0, 67, 31
1, 686631, Note_off_c, 0, 83, 44
1, 686644, Control_c, 0, 67, 33
1, 686648, Note_off_c, 0, 71, 38
1, 686659, Control_c, 0, 64, 105
1, 686659, Control_c, 0, 67, 34
1, 686673, Control_c, 0, 64, 104
1, 686673, Control_c, 0, 67, 35
1, 686688, Control_c, 0, 64, 102
1, 686688, Control_c, 0, 67, 36
1, 686703, Control_c, 0, 64, 97
1, 686703, Control_c, 0, 67, 37
1, 686718, Control_c, 0, 64, 91
1, 686718, Control_c, 0, 67, 38
1, 686721, Note_on_c, 0, 38, 61
1, 686732, Control_c, 0, 64, 85
1, 686732, Control_c, 0, 67, 38
1, 686747, Control_c, 0, 64, 78
1, 686747, Control_c, 0, 67, 39
1, 686761, Note_off_c, 0, 79, 33
1, 686762, Control_c, 0, 64, 73
1, 686762, Control_c, 0, 67, 39
1, 686777, Control_c, 0, 64, 69
1, 686777, Control_c, 0, 67, 40
1, 686792, Control_c, 0, 64, 64
1, 686807, Control_c, 0, 64, 55
1, 686822, Control_c, 0, 64, 34
1, 686822, Control_c, 0, 67, 41
1, 686837, Control_c, 0, 64, 0
1, 686839, Note_off_c, 0, 38, 57
1, 686925, Control_c, 0, 67, 41
1, 686969, Note_on_c, 0, 36, 58
1, 687014, Control_c, 0, 67, 42
1, 687111, Note_off_c, 0, 36, 34
1, 687204, Note_on_c, 0, 35, 46
1, 687221, Control_c, 0, 67, 42
1, 687282, Control_c, 0, 67, 43
1, 687360, Note_off_c, 0, 35, 48
1, 687436, Control_c, 0, 67, 43
1, 687466, Control_c, 0, 67, 44
1, 687475, Note_on_c, 0, 33, 43
1, 687481, Control_c, 0, 67, 44
1, 687496, Control_c, 0, 67, 49
1, 687510, Control_c, 0, 67, 53
1, 687525, Control_c, 0, 67, 56
1, 687540, Control_c, 0, 67, 58
1, 687555, Control_c, 0, 67, 58
1, 687570, Control_c, 0, 67, 59
1, 687585, Control_c, 0, 67, 59
1, 687594, Note_off_c, 0, 33, 42
1, 687600, Control_c, 0, 67, 60
1, 687615, Control_c, 0, 67, 61
1, 687629, Control_c, 0, 67, 62
1, 687644, Control_c, 0, 67, 62
1, 687659, Control_c, 0, 67, 63
1, 687673, Control_c, 0, 67, 63
1, 687688, Control_c, 0, 67, 64
1, 687703, Control_c, 0, 67, 66
1, 687718, Control_c, 0, 67, 70
1, 687733, Control_c, 0, 67, 74
1, 687734, Note_on_c, 0, 31, 41
1, 687747, Control_c, 0, 67, 77
1, 687762, Control_c, 0, 67, 79
1, 687777, Control_c, 0, 64, 39
1, 687777, Control_c, 0, 67, 80
1, 687792, Control_c, 0, 64, 62
1, 687792, Control_c, 0, 67, 82
1, 687799, Note_off_c, 0, 31, 62
1, 687807, Control_c, 0, 64, 67
1, 687807, Control_c, 0, 67, 84
1, 687821, Control_c, 0, 64, 71
1, 687821, Control_c, 0, 67, 86
1, 687836, Control_c, 0, 64, 77
1, 687836, Control_c, 0, 67, 89
1, 687851, Control_c, 0, 64, 84
1, 687851, Control_c, 0, 67, 93
1, 687866, Control_c, 0, 64, 88
1, 687866, Control_c, 0, 67, 96
1, 687880, Control_c, 0, 64, 91
1, 687880, Control_c, 0, 67, 99
1, 687895, Control_c, 0, 64, 92
1, 687895, Control_c, 0, 67, 102
1, 687910, Control_c, 0, 64, 92
1, 687910, Control_c, 0, 67, 105
1, 687925, Control_c, 0, 67, 107
1, 687940, Control_c, 0, 67, 109
1, 687954, Control_c, 0, 67, 111
1, 687969, Control_c, 0, 67, 113
1, 687984, Control_c, 0, 67, 114
1, 687999, Control_c, 0, 64, 92
1, 687999, Control_c, 0, 67, 115
1, 688014, Control_c, 0, 67, 116
1, 688029, Control_c, 0, 64, 89
1, 688029, Control_c, 0, 67, 117
1, 688044, Control_c, 0, 64, 82
1, 688044, Control_c, 0, 67, 120
1, 688055, Note_on_c, 0, 83, 54
1, 688059, Control_c, 0, 64, 72
1, 688059, Control_c, 0, 67, 124
1, 688074, Control_c, 0, 64, 60
1, 688074, Control_c, 0, 67, 127
1, 688087, Note_on_c, 0, 43, 36
1, 688089, Note_on_c, 0, 71, 40
1, 688089, Control_c, 0, 64, 23
1, 688089, Control_c, 0, 67, 127
1, 688091, Note_on_c, 0, 79, 14
1, 688107, Note_on_c, 0, 50, 37
1, 688112, Control_c, 0, 64, 0
1, 688126, Control_c, 0, 64, 19
1, 688141, Control_c, 0, 64, 55
1, 688156, Control_c, 0, 64, 65
1, 688171, Control_c, 0, 64, 74
1, 688185, Control_c, 0, 64, 93
1, 688189, Note_off_c, 0, 50, 60
1, 688200, Control_c, 0, 64, 109
1, 688215, Control_c, 0, 64, 114
1, 688230, Control_c, 0, 64, 116
1, 688236, Note_off_c, 0, 43, 52
1, 688303, Control_c, 0, 64, 115
1, 688311, Note_off_c, 0, 71, 34
1, 688318, Control_c, 0, 64, 112
1, 688321, Note_off_c, 0, 83, 52
1, 688333, Control_c, 0, 64, 105
1, 688348, Control_c, 0, 64, 98
1, 688363, Control_c, 0, 64, 92
1, 688378, Control_c, 0, 64, 88
1, 688393, Control_c, 0, 64, 84
1, 688408, Control_c, 0, 64, 80
1, 688421, Note_on_c, 0, 38, 46
1, 688422, Control_c, 0, 64, 75
1, 688437, Control_c, 0, 64, 71
1, 688450, Note_off_c, 0, 79, 34
1, 688452, Control_c, 0, 64, 66
1, 688467, Control_c, 0, 64, 57
1, 688482, Control_c, 0, 64, 24
1, 688496, Control_c, 0, 64, 0
1, 688563, Note_off_c, 0, 38, 44
1, 688694, Note_on_c, 0, 36, 41
1, 688826, Note_off_c, 0, 36, 37
1, 688989, Note_on_c, 0, 35, 35
1, 689123, Note_off_c, 0, 35, 44
1, 689318, Note_on_c, 0, 33, 32
1, 689451, Note_off_c, 0, 33, 44
1, 689774, Note_on_c, 0, 31, 29
1, 689875, Control_c, 0, 64, 50
1, 689890, Control_c, 0, 64, 63
1, 689904, Control_c, 0, 64, 70
1, 689919, Control_c, 0, 64, 79
1, 689921, Note_off_c, 0, 31, 51
1, 689934, Control_c, 0, 64, 92
1, 689949, Control_c, 0, 64, 119
1, 689964, Control_c, 0, 64, 127
1, 691022, Note_on_c, 0, 83, 50
1, 691047, Note_on_c, 0, 79, 38
1, 691069, Note_on_c, 0, 71, 36
1, 691072, Note_on_c, 0, 43, 28
1, 691081, Note_on_c, 0, 50, 21
1, 695407, Note_off_c, 0, 83, 36
1, 695484, Note_off_c, 0, 50, 31
1, 695533, Note_off_c, 0, 43, 32
1, 695572, Note_off_c, 0, 71, 34
1, 695659, Note_off_c, 0, 79, 39
1, 696043, Control_c, 0, 64, 114
1, 696059, Control_c, 0, 64, 101
1, 696074, Control_c, 0, 64, 94
1, 696089, Control_c, 0, 64, 87
1, 696103, Control_c, 0, 64, 81
1, 696118, Control_c, 0, 64, 72
1, 696133, Control_c, 0, 64, 65
1, 696148, Control_c, 0, 64, 58
1, 696163, Control_c, 0, 64, 42
1, 696178, Control_c, 0, 64, 0
1, 698572, Control_c, 0, 67, 115
1, 698594, Control_c, 0, 67, 100
1, 698609, Control_c, 0, 67, 80
1, 698624, Control_c, 0, 67, 65
1, 698638, Control_c, 0, 67, 51
1, 698653, Control_c, 0, 67, 39
1, 698668, Control_c, 0, 67, 26
1, 698683, Control_c, 0, 67, 9
1, 698698, Control_c, 0, 67, 0
1, 699714, Control_c, 0, 64, 10
1, 699728, Control_c, 0, 64, 12
1, 699743, Control_c, 0, 64, 15
1, 699758, Control_c, 0, 64, 17
1, 699772, Control_c, 0, 64, 18
1, 699787, Control_c, 0, 64, 22
1, 699802, Control_c, 0, 64, 25
1, 699817, Control_c, 0, 64, 26
1, 699832, Control_c, 0, 64, 29
1, 699846, Control_c, 0, 64, 31
1, 699861, Control_c, 0, 64, 32
1, 699935, Control_c, 0, 64, 31
1, 699950, Control_c, 0, 64, 30
1, 700009, Control_c, 0, 64, 31
1, 700024, Control_c, 0, 64, 32
1, 700039, Control_c, 0, 64, 32
1, 700070, Control_c, 0, 64, 33
1, 700092, Control_c, 0, 64, 33
1, 700166, Control_c, 0, 64, 34
1, 700181, Control_c, 0, 64, 33
1, 700299, Control_c, 0, 64, 33
1, 700373, Control_c, 0, 64, 34
1, 700403, Control_c, 0, 64, 33
1, 700418, Control_c, 0, 64, 29
1, 700433, Control_c, 0, 64, 27
1, 700447, Control_c, 0, 64, 24
1, 700462, Control_c, 0, 64, 23
1, 700477, Control_c, 0, 64, 21
1, 700492, Control_c, 0, 64, 17
1, 700507, Control_c, 0, 64, 15
1, 700537, Control_c, 0, 64, 17
1, 700551, Control_c, 0, 64, 19
1, 700625, Control_c, 0, 64, 20
1, 700640, Control_c, 0, 64, 23
1, 700655, Control_c, 0, 64, 24
1, 700684, Control_c, 0, 64, 23
1, 700699, Control_c, 0, 64, 19
1, 700714, Control_c, 0, 64, 17
1, 700729, Control_c, 0, 64, 15
1, 700743, Control_c, 0, 64, 14
1, 700758, Control_c, 0, 64, 12
1, 700773, Control_c, 0, 64, 0
1, 713791, Control_c, 0, 64, 17
1, 713806, Control_c, 0, 64, 25
1, 713821, Control_c, 0, 64, 29
1, 713835, Control_c, 0, 64, 31
1, 713865, Control_c, 0, 64, 31
1, 713880, Control_c, 0, 64, 32
1, 713895, Control_c, 0, 64, 33
1, 713909, Control_c, 0, 64, 34
1, 713969, Control_c, 0, 64, 34
1, 713999, Control_c, 0, 64, 35
1, 714028, Control_c, 0, 64, 35
1, 714043, Control_c, 0, 64, 36
1, 714102, Control_c, 0, 64, 36
1, 714161, Control_c, 0, 64, 37
1, 714191, Control_c, 0, 64, 37
1, 714265, Control_c, 0, 64, 38
1, 714331, Control_c, 0, 64, 38
1, 714360, Control_c, 0, 64, 39
1, 714451, Control_c, 0, 64, 39
1, 714747, Control_c, 0, 64, 40
1, 715028, Control_c, 0, 64, 40
1, 715933, Control_c, 0, 64, 40
1, 715963, Control_c, 0, 64, 39
1, 716022, Control_c, 0, 64, 39
1, 716067, Control_c, 0, 64, 38
1, 716097, Control_c, 0, 64, 38
1, 716171, Control_c, 0, 64, 37
1, 716230, Control_c, 0, 64, 38
1, 716245, Control_c, 0, 64, 39
1, 716260, Control_c, 0, 64, 40
1, 716275, Control_c, 0, 64, 40
1, 716290, Control_c, 0, 64, 41
1, 716304, Control_c, 0, 64, 42
1, 716319, Control_c, 0, 64, 43
1, 716334, Control_c, 0, 64, 44
1, 716348, Control_c, 0, 64, 45
1, 716363, Control_c, 0, 64, 46
1, 716378, Control_c, 0, 64, 47
1, 716393, Control_c, 0, 64, 48
1, 716408, Control_c, 0, 64, 49
1, 716422, Control_c, 0, 64, 50
1, 716437, Control_c, 0, 64, 50
1, 716452, Control_c, 0, 64, 51
1, 716467, Control_c, 0, 64, 52
1, 716482, Control_c, 0, 64, 53
1, 716497, Control_c, 0, 64, 53
1, 716512, Control_c, 0, 64, 54
1, 716541, Control_c, 0, 64, 54
1, 716563, Control_c, 0, 64, 55
1, 716578, Control_c, 0, 64, 55
1, 716593, Control_c, 0, 64, 56
1, 716608, Control_c, 0, 64, 57
1, 716637, Control_c, 0, 64, 57
1, 716652, Control_c, 0, 64, 58
1, 716667, Control_c, 0, 64, 58
1, 716681, Control_c, 0, 64, 59
1, 716696, Control_c, 0, 64, 59
1, 716711, Control_c, 0, 64, 60
1, 716741, Control_c, 0, 64, 61
1, 716771, Control_c, 0, 64, 61
1, 716786, Control_c, 0, 64, 62
1, 716801, Control_c, 0, 64, 62
1, 716816, Control_c, 0, 64, 63
1, 716831, Control_c, 0, 64, 63
1, 716846, Control_c, 0, 64, 64
1, 716860, Control_c, 0, 64, 65
1, 716875, Control_c, 0, 64, 66
1, 716890, Control_c, 0, 64, 67
1, 716905, Control_c, 0, 64, 68
1, 716920, Control_c, 0, 64, 69
1, 716935, Control_c, 0, 64, 70
1, 716950, Control_c, 0, 64, 72
1, 716965, Control_c, 0, 64, 74
1, 716979, Control_c, 0, 64, 77
1, 716994, Control_c, 0, 64, 80
1, 717009, Control_c, 0, 64, 83
1, 717024, Control_c, 0, 64, 86
1, 717039, Control_c, 0, 64, 91
1, 717053, Control_c, 0, 64, 99
1, 717068, Control_c, 0, 64, 118
1, 717083, Control_c, 0, 64, 127
1, 718069, Note_on_c, 0, 69, 43
1, 718087, Note_on_c, 0, 57, 27
1, 718150, Control_c, 0, 64, 105
1, 718165, Control_c, 0, 64, 89
1, 718180, Control_c, 0, 64, 75
1, 718195, Control_c, 0, 64, 66
1, 718209, Control_c, 0, 64, 52
1, 718224, Control_c, 0, 64, 39
1, 718239, Control_c, 0, 64, 40
1, 718253, Control_c, 0, 64, 44
1, 718268, Control_c, 0, 64, 49
1, 718283, Control_c, 0, 64, 53
1, 718298, Control_c, 0, 64, 56
1, 718313, Control_c, 0, 64, 59
1, 718325, Note_on_c, 0, 71, 53
1, 718327, Control_c, 0, 64, 61
1, 718342, Control_c, 0, 64, 63
1, 718353, Note_on_c, 0, 59, 39
1, 718357, Control_c, 0, 64, 65
1, 718372, Control_c, 0, 64, 69
1, 718387, Control_c, 0, 64, 72
1, 718388, Note_off_c, 0, 57, 41
1, 718401, Control_c, 0, 64, 75
1, 718416, Control_c, 0, 64, 78
1, 718428, Note_off_c, 0, 69, 38
1, 718432, Control_c, 0, 64, 81
1, 718447, Control_c, 0, 64, 86
1, 718462, Control_c, 0, 64, 92
1, 718477, Control_c, 0, 64, 99
1, 718492, Control_c, 0, 64, 113
1, 718506, Control_c, 0, 64, 127
1, 718518, Note_on_c, 0, 73, 67
1, 718539, Note_off_c, 0, 59, 42
1, 718548, Note_on_c, 0, 61, 44
1, 718553, Note_off_c, 0, 71, 56
1, 718631, Note_off_c, 0, 61, 57
1, 718647, Note_off_c, 0, 73, 54
1, 718837, Note_on_c, 0, 74, 65
1, 718865, Note_on_c, 0, 62, 49
1, 718869, Control_c, 0, 64, 113
1, 718884, Control_c, 0, 64, 98
1, 718885, Note_on_c, 0, 54, 41
1, 718899, Control_c, 0, 64, 89
1, 718904, Note_on_c, 0, 50, 37
1, 718914, Control_c, 0, 64, 82
1, 718929, Control_c, 0, 64, 76
1, 718944, Control_c, 0, 64, 70
1, 718958, Control_c, 0, 64, 64
1, 718973, Control_c, 0, 64, 56
1, 718988, Control_c, 0, 64, 40
1, 719003, Control_c, 0, 64, 0
1, 719195, Control_c, 0, 64, 46
1, 719210, Control_c, 0, 64, 60
1, 719226, Control_c, 0, 64, 66
1, 719241, Control_c, 0, 64, 71
1, 719255, Control_c, 0, 64, 79
1, 719270, Control_c, 0, 64, 84
1, 719285, Control_c, 0, 64, 93
1, 719299, Control_c, 0, 64, 119
1, 719314, Control_c, 0, 64, 127
1, 719393, Note_off_c, 0, 50, 39
1, 719431, Note_off_c, 0, 54, 48
1, 720067, Note_on_c, 0, 73, 52
1, 720139, Note_off_c, 0, 74, 38
1, 720141, Note_off_c, 0, 62, 38
1, 720173, Note_on_c, 0, 71, 54
1, 720301, Note_off_c, 0, 73, 29
1, 720306, Note_on_c, 0, 69, 51
1, 720308, Control_c, 0, 64, 103
1, 720322, Note_on_c, 0, 57, 33
1, 720323, Control_c, 0, 64, 91
1, 720327, Note_on_c, 0, 49, 29
1, 720337, Control_c, 0, 64, 83
1, 720340, Note_on_c, 0, 52, 34
1, 720352, Control_c, 0, 64, 76
1, 720367, Control_c, 0, 64, 69
1, 720380, Note_off_c, 0, 71, 37
1, 720382, Control_c, 0, 64, 64
1, 720396, Control_c, 0, 64, 55
1, 720411, Control_c, 0, 64, 43
1, 720426, Control_c, 0, 64, 25
1, 720441, Control_c, 0, 64, 0
1, 720663, Control_c, 0, 64, 50
1, 720678, Control_c, 0, 64, 61
1, 720693, Control_c, 0, 64, 64
1, 720708, Control_c, 0, 64, 65
1, 720723, Control_c, 0, 64, 67
1, 720737, Control_c, 0, 64, 70
1, 720752, Control_c, 0, 64, 73
1, 720767, Control_c, 0, 64, 76
1, 720782, Control_c, 0, 64, 78
1, 720796, Control_c, 0, 64, 79
1, 720811, Control_c, 0, 64, 81
1, 720827, Control_c, 0, 64, 82
1, 720842, Control_c, 0, 64, 84
1, 720857, Control_c, 0, 64, 86
1, 720867, Note_off_c, 0, 69, 35
1, 720872, Control_c, 0, 64, 87
1, 720887, Control_c, 0, 64, 87
1, 720916, Control_c, 0, 64, 88
1, 720945, Control_c, 0, 64, 88
1, 720990, Control_c, 0, 64, 89
1, 721086, Control_c, 0, 64, 89
1, 721234, Control_c, 0, 64, 89
1, 721264, Control_c, 0, 64, 85
1, 721272, Note_on_c, 0, 69, 46
1, 721278, Control_c, 0, 64, 77
1, 721293, Control_c, 0, 64, 67
1, 721308, Control_c, 0, 64, 56
1, 721323, Control_c, 0, 64, 26
1, 721338, Control_c, 0, 64, 0
1, 721353, Control_c, 0, 64, 26
1, 721367, Control_c, 0, 64, 43
1, 721382, Control_c, 0, 64, 55
1, 721397, Control_c, 0, 64, 61
1, 721412, Control_c, 0, 64, 64
1, 721427, Control_c, 0, 64, 66
1, 721442, Control_c, 0, 64, 69
1, 721457, Control_c, 0, 64, 71
1, 721471, Control_c, 0, 64, 74
1, 721486, Control_c, 0, 64, 76
1, 721501, Control_c, 0, 64, 78
1, 721505, Note_on_c, 0, 71, 55
1, 721516, Control_c, 0, 64, 79
1, 721531, Control_c, 0, 64, 81
1, 721545, Control_c, 0, 64, 83
1, 721559, Note_off_c, 0, 52, 55
1, 721560, Control_c, 0, 64, 84
1, 721575, Control_c, 0, 64, 85
1, 721584, Note_off_c, 0, 69, 38
1, 721590, Control_c, 0, 64, 86
1, 721593, Note_off_c, 0, 49, 44
1, 721621, Control_c, 0, 64, 86
1, 721707, Note_on_c, 0, 67, 57
1, 721707, Note_off_c, 0, 71, 62
1, 721737, Note_off_c, 0, 57, 41
1, 721909, Control_c, 0, 64, 86
1, 721924, Control_c, 0, 64, 85
1, 721939, Control_c, 0, 64, 83
1, 721954, Control_c, 0, 64, 82
1, 721968, Control_c, 0, 64, 80
1, 721983, Control_c, 0, 64, 78
1, 721998, Control_c, 0, 64, 76
1, 722004, Note_on_c, 0, 66, 53
1, 722013, Control_c, 0, 64, 74
1, 722014, Note_on_c, 0, 54, 31
1, 722027, Control_c, 0, 64, 72
1, 722036, Note_on_c, 0, 50, 38
1, 722042, Control_c, 0, 64, 71
1, 722057, Control_c, 0, 64, 69
1, 722072, Control_c, 0, 64, 67
1, 722087, Control_c, 0, 64, 65
1, 722101, Control_c, 0, 64, 63
1, 722116, Control_c, 0, 64, 61
1, 722125, Note_off_c, 0, 67, 33
1, 722131, Control_c, 0, 64, 57
1, 722146, Control_c, 0, 64, 53
1, 722161, Control_c, 0, 64, 48
1, 722175, Control_c, 0, 64, 43
1, 722190, Control_c, 0, 64, 38
1, 722205, Control_c, 0, 64, 28
1, 722220, Control_c, 0, 64, 10
1, 722235, Control_c, 0, 64, 0
1, 722372, Note_off_c, 0, 50, 48
1, 722382, Note_off_c, 0, 54, 55
1, 722390, Note_on_c, 0, 67, 49
1, 722405, Note_on_c, 0, 55, 42
1, 722408, Note_on_c, 0, 52, 33
1, 722420, Note_off_c, 0, 66, 62
1, 722503, Note_off_c, 0, 55, 60
1, 722506, Note_on_c, 0, 69, 54
1, 722512, Note_on_c, 0, 54, 43
1, 722517, Note_on_c, 0, 57, 35
1, 722521, Note_off_c, 0, 52, 57
1, 722523, Note_off_c, 0, 67, 58
1, 722599, Control_c, 0, 64, 51
1, 722613, Control_c, 0, 64, 64
1, 722628, Control_c, 0, 64, 68
1, 722643, Control_c, 0, 64, 72
1, 722658, Control_c, 0, 64, 77
1, 722673, Control_c, 0, 64, 86
1, 722688, Control_c, 0, 64, 95
1, 722703, Control_c, 0, 64, 107
1, 722712, Note_off_c, 0, 54, 62
1, 722717, Control_c, 0, 64, 127
1, 722924, Control_c, 0, 64, 114
1, 722939, Control_c, 0, 64, 104
1, 722954, Control_c, 0, 64, 96
1, 722969, Control_c, 0, 64, 89
1, 722984, Control_c, 0, 64, 82
1, 722985, Note_on_c, 0, 71, 63
1, 722998, Control_c, 0, 64, 75
1, 723008, Note_on_c, 0, 55, 39
1, 723010, Note_on_c, 0, 59, 35
1, 723013, Control_c, 0, 64, 68
1, 723022, Note_on_c, 0, 52, 31
1, 723027, Note_off_c, 0, 57, 35
1, 723028, Control_c, 0, 64, 57
1, 723043, Control_c, 0, 64, 0
1, 723075, Note_off_c, 0, 69, 49
1, 723147, Control_c, 0, 64, 39
1, 723162, Control_c, 0, 64, 60
1, 723177, Control_c, 0, 64, 65
1, 723191, Control_c, 0, 64, 68
1, 723193, Note_on_c, 0, 73, 72
1, 723198, Note_off_c, 0, 59, 57
1, 723206, Control_c, 0, 64, 74
1, 723213, Note_off_c, 0, 55, 62
1, 723220, Note_on_c, 0, 61, 46
1, 723222, Control_c, 0, 64, 81
1, 723236, Control_c, 0, 64, 87
1, 723239, Note_off_c, 0, 71, 61
1, 723241, Note_off_c, 0, 52, 58
1, 723251, Control_c, 0, 64, 94
1, 723266, Control_c, 0, 64, 106
1, 723281, Control_c, 0, 64, 127
1, 723317, Note_off_c, 0, 61, 54
1, 723362, Note_off_c, 0, 73, 60
1, 723549, Note_on_c, 0, 73, 64
1, 723555, Control_c, 0, 64, 113
1, 723570, Control_c, 0, 64, 102
1, 723575, Note_on_c, 0, 61, 42
1, 723585, Control_c, 0, 64, 94
1, 723588, Note_on_c, 0, 55, 32
1, 723600, Control_c, 0, 64, 87
1, 723603, Note_on_c, 0, 50, 38
1, 723610, Note_on_c, 0, 52, 33
1, 723614, Control_c, 0, 64, 79
1, 723629, Control_c, 0, 64, 71
1, 723644, Control_c, 0, 64, 62
1, 723659, Control_c, 0, 64, 0
1, 723792, Control_c, 0, 64, 52
1, 723807, Control_c, 0, 64, 65
1, 723821, Control_c, 0, 64, 71
1, 723836, Control_c, 0, 64, 79
1, 723851, Control_c, 0, 64, 89
1, 723865, Control_c, 0, 64, 102
1, 723880, Control_c, 0, 64, 125
1, 723895, Control_c, 0, 64, 127
1, 724006, Note_off_c, 0, 61, 48
1, 724027, Note_off_c, 0, 52, 41
1, 724122, Note_off_c, 0, 55, 40
1, 724126, Control_c, 0, 64, 106
1, 724141, Control_c, 0, 64, 77
1, 724146, Note_on_c, 0, 74, 43
1, 724156, Control_c, 0, 64, 58
1, 724169, Note_on_c, 0, 62, 34
1, 724170, Control_c, 0, 64, 0
1, 724174, Note_on_c, 0, 54, 35
1, 724181, Note_off_c, 0, 73, 37
1, 724215, Control_c, 0, 64, 46
1, 724230, Control_c, 0, 64, 69
1, 724244, Control_c, 0, 64, 80
1, 724253, Note_off_c, 0, 50, 37
1, 724259, Control_c, 0, 64, 89
1, 724274, Control_c, 0, 64, 92
1, 724279, Note_off_c, 0, 54, 57
1, 724289, Control_c, 0, 64, 94
1, 724304, Control_c, 0, 64, 95
1, 724315, Note_off_c, 0, 74, 62
1, 724351, Note_off_c, 0, 62, 39
1, 724408, Control_c, 0, 64, 95
1, 724437, Control_c, 0, 64, 93
1, 724452, Control_c, 0, 64, 91
1, 724467, Control_c, 0, 64, 88
1, 724482, Note_on_c, 0, 74, 61
1, 724482, Control_c, 0, 64, 86
1, 724496, Control_c, 0, 64, 83
1, 724511, Control_c, 0, 64, 81
1, 724512, Note_on_c, 0, 62, 45
1, 724526, Control_c, 0, 64, 79
1, 724541, Control_c, 0, 64, 77
1, 724556, Control_c, 0, 64, 74
1, 724570, Control_c, 0, 64, 73
1, 724585, Control_c, 0, 64, 71
1, 724600, Control_c, 0, 64, 70
1, 724614, Control_c, 0, 64, 68
1, 724629, Control_c, 0, 64, 67
1, 724644, Control_c, 0, 64, 65
1, 724659, Control_c, 0, 64, 63
1, 724674, Control_c, 0, 64, 60
1, 724688, Control_c, 0, 64, 53
1, 724703, Control_c, 0, 64, 0
1, 724721, Note_on_c, 0, 78, 73
1, 724731, Note_off_c, 0, 62, 49
1, 724742, Note_on_c, 0, 66, 49
1, 724835, Note_off_c, 0, 74, 54
1, 724875, Control_c, 0, 64, 34
1, 724890, Control_c, 0, 64, 54
1, 724905, Control_c, 0, 64, 62
1, 724919, Control_c, 0, 64, 64
1, 724934, Control_c, 0, 64, 66
1, 724940, Note_on_c, 0, 81, 79
1, 724949, Control_c, 0, 64, 68
1, 724964, Note_on_c, 0, 69, 54
1, 724964, Control_c, 0, 64, 70
1, 724979, Control_c, 0, 64, 74
1, 724993, Control_c, 0, 64, 78
1, 725004, Note_off_c, 0, 78, 62
1, 725008, Control_c, 0, 64, 82
1, 725023, Control_c, 0, 64, 85
1, 725037, Note_off_c, 0, 66, 34
1, 725038, Control_c, 0, 64, 88
1, 725052, Control_c, 0, 64, 91
1, 725067, Control_c, 0, 64, 92
1, 725082, Control_c, 0, 64, 94
1, 725097, Control_c, 0, 64, 94
1, 725112, Control_c, 0, 64, 95
1, 725231, Control_c, 0, 64, 94
1, 725260, Control_c, 0, 64, 93
1, 725275, Control_c, 0, 64, 91
1, 725282, Note_on_c, 0, 78, 74
1, 725290, Control_c, 0, 64, 87
1, 725305, Control_c, 0, 64, 83
1, 725319, Control_c, 0, 64, 79
1, 725320, Note_on_c, 0, 66, 41
1, 725334, Control_c, 0, 64, 77
1, 725335, Note_on_c, 0, 57, 33
1, 725348, Note_on_c, 0, 55, 29
1, 725349, Control_c, 0, 64, 75
1, 725364, Control_c, 0, 64, 72
1, 725374, Note_off_c, 0, 81, 55
1, 725379, Control_c, 0, 64, 69
1, 725393, Control_c, 0, 64, 66
1, 725408, Control_c, 0, 64, 62
1, 725423, Control_c, 0, 64, 56
1, 725437, Control_c, 0, 64, 43
1, 725452, Control_c, 0, 64, 0
1, 725487, Note_off_c, 0, 69, 60
1, 725579, Control_c, 0, 64, 42
1, 725594, Control_c, 0, 64, 62
1, 725609, Control_c, 0, 64, 66
1, 725624, Control_c, 0, 64, 68
1, 725639, Control_c, 0, 64, 71
1, 725654, Control_c, 0, 64, 74
1, 725669, Control_c, 0, 64, 81
1, 725684, Control_c, 0, 64, 89
1, 725699, Control_c, 0, 64, 96
1, 725714, Control_c, 0, 64, 100
1, 725728, Control_c, 0, 64, 105
1, 725743, Control_c, 0, 64, 111
1, 725758, Control_c, 0, 64, 127
1, 725872, Note_off_c, 0, 78, 57
1, 725898, Note_off_c, 0, 66, 38
1, 726178, Note_on_c, 0, 76, 57
1, 726211, Note_on_c, 0, 64, 38
1, 726276, Control_c, 0, 64, 113
1, 726298, Control_c, 0, 64, 105
1, 726313, Control_c, 0, 64, 101
1, 726328, Control_c, 0, 64, 96
1, 726343, Control_c, 0, 64, 92
1, 726357, Control_c, 0, 64, 88
1, 726372, Control_c, 0, 64, 83
1, 726387, Control_c, 0, 64, 76
1, 726402, Control_c, 0, 64, 67
1, 726414, Note_on_c, 0, 71, 61
1, 726418, Control_c, 0, 64, 54
1, 726433, Control_c, 0, 64, 0
1, 726434, Note_on_c, 0, 59, 43
1, 726506, Control_c, 0, 64, 41
1, 726521, Control_c, 0, 64, 58
1, 726536, Control_c, 0, 64, 62
1, 726542, Note_off_c, 0, 76, 57
1, 726551, Control_c, 0, 64, 64
1, 726566, Control_c, 0, 64, 66
1, 726581, Control_c, 0, 64, 68
1, 726596, Control_c, 0, 64, 71
1, 726600, Note_on_c, 0, 73, 75
1, 726610, Control_c, 0, 64, 76
1, 726616, Note_on_c, 0, 61, 47
1, 726616, Note_off_c, 0, 64, 35
1, 726625, Control_c, 0, 64, 78
1, 726628, Note_off_c, 0, 57, 36
1, 726633, Note_off_c, 0, 55, 40
1, 726640, Control_c, 0, 64, 80
1, 726655, Control_c, 0, 64, 82
1, 726670, Control_c, 0, 64, 83
1, 726679, Note_off_c, 0, 59, 37
1, 726684, Control_c, 0, 64, 83
1, 726699, Control_c, 0, 64, 84
1, 726790, Note_off_c, 0, 71, 47
1, 726827, Note_off_c, 0, 61, 38
1, 726862, Control_c, 0, 64, 83
1, 726877, Control_c, 0, 64, 81
1, 726891, Control_c, 0, 64, 79
1, 726906, Note_on_c, 0, 76, 67
1, 726906, Control_c, 0, 64, 76
1, 726921, Control_c, 0, 64, 74
1, 726936, Control_c, 0, 64, 71
1, 726951, Control_c, 0, 64, 69
1, 726954, Note_on_c, 0, 57, 39
1, 726958, Note_on_c, 0, 64, 28
1, 726966, Control_c, 0, 64, 67
1, 726969, Note_on_c, 0, 54, 35
1, 726980, Control_c, 0, 64, 65
1, 726995, Control_c, 0, 64, 62
1, 727009, Note_off_c, 0, 73, 53
1, 727010, Control_c, 0, 64, 57
1, 727025, Control_c, 0, 64, 49
1, 727046, Control_c, 0, 64, 36
1, 727061, Control_c, 0, 64, 0
1, 727358, Control_c, 0, 64, 39
1, 727373, Control_c, 0, 64, 53
1, 727387, Control_c, 0, 64, 59
1, 727402, Control_c, 0, 64, 61
1, 727417, Control_c, 0, 64, 62
1, 727431, Control_c, 0, 64, 62
1, 727446, Control_c, 0, 64, 63
1, 727461, Control_c, 0, 64, 65
1, 727476, Control_c, 0, 64, 66
1, 727491, Control_c, 0, 64, 67
1, 727505, Control_c, 0, 64, 68
1, 727520, Control_c, 0, 64, 69
1, 727661, Note_off_c, 0, 76, 61
1, 727669, Control_c, 0, 67, 8
1, 727701, Note_on_c, 0, 74, 39
1, 727711, Note_off_c, 0, 57, 39
1, 727726, Note_on_c, 0, 62, 40
1, 727743, Control_c, 0, 64, 69
1, 727752, Note_off_c, 0, 54, 56
1, 727794, Control_c, 0, 64, 68
1, 727869, Control_c, 0, 64, 68
1, 727913, Control_c, 0, 64, 67
1, 727943, Control_c, 0, 64, 67
1, 727943, Control_c, 0, 67, 8
1, 727958, Control_c, 0, 64, 66
1, 727958, Control_c, 0, 67, 9
1, 727972, Control_c, 0, 64, 64
1, 727974, Note_on_c, 0, 66, 53
1, 727976, Note_off_c, 0, 74, 63
1, 727985, Note_off_c, 0, 64, 42
1, 727987, Control_c, 0, 64, 60
1, 727987, Control_c, 0, 67, 9
1, 727992, Note_on_c, 0, 50, 38
1, 727992, Note_on_c, 0, 54, 35
1, 728000, Note_off_c, 0, 62, 43
1, 728002, Control_c, 0, 64, 41
1, 728002, Control_c, 0, 67, 11
1, 728018, Control_c, 0, 64, 0
1, 728018, Control_c, 0, 67, 14
1, 728033, Control_c, 0, 67, 15
1, 728048, Control_c, 0, 67, 16
1, 728062, Control_c, 0, 67, 17
1, 728077, Control_c, 0, 67, 18
1, 728092, Control_c, 0, 67, 18
1, 728107, Control_c, 0, 64, 49
1, 728107, Control_c, 0, 67, 19
1, 728122, Control_c, 0, 64, 63
1, 728122, Control_c, 0, 67, 20
1, 728136, Control_c, 0, 64, 67
1, 728136, Control_c, 0, 67, 20
1, 728151, Control_c, 0, 64, 68
1, 728151, Control_c, 0, 67, 22
1, 728166, Control_c, 0, 64, 69
1, 728166, Control_c, 0, 67, 23
1, 728181, Control_c, 0, 64, 70
1, 728181, Control_c, 0, 67, 25
1, 728196, Control_c, 0, 64, 71
1, 728196, Control_c, 0, 67, 27
1, 728210, Control_c, 0, 67, 28
1, 728225, Control_c, 0, 67, 29
1, 728240, Control_c, 0, 67, 30
1, 728254, Control_c, 0, 67, 31
1, 728269, Control_c, 0, 67, 32
1, 728277, Note_off_c, 0, 50, 47
1, 728284, Control_c, 0, 67, 33
1, 728288, Note_off_c, 0, 54, 48
1, 728299, Control_c, 0, 67, 34
1, 728313, Note_on_c, 0, 67, 55
1, 728314, Control_c, 0, 67, 34
1, 728318, Note_on_c, 0, 52, 51
1, 728319, Note_on_c, 0, 55, 41
1, 728328, Control_c, 0, 67, 35
1, 728343, Control_c, 0, 64, 70
1, 728343, Control_c, 0, 67, 35
1, 728351, Note_off_c, 0, 55, 49
1, 728358, Control_c, 0, 67, 38
1, 728368, Note_off_c, 0, 52, 61
1, 728368, Note_off_c, 0, 66, 38
1, 728373, Control_c, 0, 64, 69
1, 728373, Control_c, 0, 67, 41
1, 728387, Control_c, 0, 64, 68
1, 728387, Control_c, 0, 67, 43
1, 728402, Control_c, 0, 64, 67
1, 728402, Control_c, 0, 67, 44
1, 728417, Control_c, 0, 64, 66
1, 728417, Control_c, 0, 67, 44
1, 728432, Control_c, 0, 64, 64
1, 728432, Control_c, 0, 67, 45
1, 728447, Control_c, 0, 64, 59
1, 728456, Note_on_c, 0, 69, 58
1, 728462, Control_c, 0, 64, 36
1, 728477, Note_on_c, 0, 54, 36
1, 728477, Control_c, 0, 64, 0
1, 728477, Note_on_c, 0, 57, 36
1, 728480, Note_on_c, 0, 45, 37
1, 728481, Note_off_c, 0, 67, 50
1, 728543, Control_c, 0, 67, 45
1, 728558, Control_c, 0, 67, 46
1, 728587, Control_c, 0, 64, 21
1, 728602, Control_c, 0, 64, 54
1, 728608, Note_off_c, 0, 69, 63
1, 728617, Control_c, 0, 64, 60
1, 728632, Control_c, 0, 64, 61
1, 728635, Note_off_c, 0, 57, 44
1, 728647, Note_off_c, 0, 54, 57
1, 728665, Note_off_c, 0, 45, 57
1, 728692, Control_c, 0, 64, 60
1, 728706, Control_c, 0, 64, 60
1, 728721, Control_c, 0, 64, 59
1, 728736, Control_c, 0, 64, 57
1, 728751, Control_c, 0, 64, 56
1, 728766, Control_c, 0, 64, 54
1, 728766, Control_c, 0, 67, 45
1, 728781, Control_c, 0, 64, 53
1, 728795, Control_c, 0, 64, 51
1, 728811, Control_c, 0, 64, 49
1, 728811, Control_c, 0, 67, 45
1, 728826, Control_c, 0, 64, 46
1, 728841, Control_c, 0, 64, 43
1, 728855, Control_c, 0, 64, 39
1, 728870, Control_c, 0, 64, 31
1, 728885, Control_c, 0, 64, 10
1, 728900, Control_c, 0, 64, 0
1, 728954, Note_on_c, 0, 67, 48
1, 728959, Control_c, 0, 67, 44
1, 728963, Note_on_c, 0, 45, 35
1, 728963, Note_on_c, 0, 55, 28
1, 728967, Note_on_c, 0, 52, 36
1, 728989, Control_c, 0, 67, 44
1, 729018, Control_c, 0, 64, 51
1, 729033, Control_c, 0, 64, 68
1, 729048, Control_c, 0, 64, 72
1, 729063, Control_c, 0, 64, 69
1, 729077, Control_c, 0, 64, 60
1, 729092, Control_c, 0, 64, 0
1, 729120, Note_off_c, 0, 55, 43
1, 729130, Note_off_c, 0, 45, 50
1, 729130, Note_off_c, 0, 67, 60
1, 729137, Control_c, 0, 67, 43
1, 729149, Note_off_c, 0, 52, 50
1, 729225, Control_c, 0, 67, 43
1, 729255, Control_c, 0, 67, 42
1, 729270, Control_c, 0, 67, 42
1, 729410, Control_c, 0, 67, 41
1, 729476, Note_on_c, 0, 64, 40
1, 729484, Control_c, 0, 67, 41
1, 729490, Note_on_c, 0, 45, 32
1, 729490, Note_on_c, 0, 52, 32
1, 729493, Note_on_c, 0, 49, 28
1, 729529, Control_c, 0, 64, 51
1, 729544, Control_c, 0, 64, 65
1, 729544, Control_c, 0, 67, 40
1, 729559, Control_c, 0, 64, 73
1, 729574, Control_c, 0, 64, 90
1, 729589, Control_c, 0, 64, 127
1, 729589, Control_c, 0, 67, 41
1, 729631, Note_off_c, 0, 64, 60
1, 729633, Control_c, 0, 67, 41
1, 729648, Control_c, 0, 67, 42
1, 729649, Note_off_c, 0, 52, 41
1, 729676, Note_off_c, 0, 49, 46
1, 729678, Control_c, 0, 67, 42
1, 729691, Note_off_c, 0, 45, 52
1, 729693, Control_c, 0, 67, 43
1, 729708, Control_c, 0, 64, 85
1, 729708, Control_c, 0, 67, 43
1, 729723, Control_c, 0, 64, 68
1, 729723, Control_c, 0, 67, 44
1, 729738, Control_c, 0, 64, 55
1, 729753, Control_c, 0, 64, 0
1, 729768, Control_c, 0, 67, 44
1, 729782, Control_c, 0, 67, 45
1, 729797, Control_c, 0, 67, 45
1, 729812, Control_c, 0, 67, 46
1, 729826, Control_c, 0, 67, 46
1, 729841, Control_c, 0, 67, 47
1, 729871, Control_c, 0, 67, 47
1, 729886, Control_c, 0, 67, 49
1, 729900, Control_c, 0, 67, 52
1, 729915, Control_c, 0, 67, 53
1, 729930, Control_c, 0, 67, 54
1, 729945, Control_c, 0, 67, 55
1, 729960, Control_c, 0, 67, 55
1, 729974, Control_c, 0, 67, 56
1, 729989, Control_c, 0, 67, 57
1, 730004, Control_c, 0, 67, 58
1, 730019, Control_c, 0, 67, 59
1, 730041, Control_c, 0, 67, 60
1, 730056, Control_c, 0, 67, 61
1, 730071, Control_c, 0, 67, 62
1, 730086, Control_c, 0, 67, 63
1, 730101, Control_c, 0, 67, 65
1, 730115, Control_c, 0, 67, 65
1, 730130, Control_c, 0, 67, 66
1, 730159, Control_c, 0, 67, 67
1, 730174, Control_c, 0, 67, 67
1, 730236, Note_on_c, 0, 62, 32
1, 730262, Note_on_c, 0, 54, 24
1, 730275, Note_on_c, 0, 38, 25
1, 730277, Note_on_c, 0, 50, 21
1, 730293, Control_c, 0, 67, 67
1, 730322, Control_c, 0, 67, 66
1, 730337, Control_c, 0, 67, 66
1, 730382, Control_c, 0, 67, 65
1, 730397, Control_c, 0, 67, 65
1, 730427, Control_c, 0, 67, 64
1, 730442, Control_c, 0, 64, 23
1, 730442, Control_c, 0, 67, 63
1, 730456, Control_c, 0, 64, 36
1, 730456, Control_c, 0, 67, 63
1, 730471, Control_c, 0, 64, 48
1, 730471, Control_c, 0, 67, 62
1, 730486, Control_c, 0, 64, 56
1, 730486, Control_c, 0, 67, 62
1, 730501, Control_c, 0, 64, 60
1, 730501, Control_c, 0, 67, 61
1, 730516, Control_c, 0, 64, 62
1, 730531, Control_c, 0, 64, 64
1, 730531, Control_c, 0, 67, 60
1, 730546, Control_c, 0, 64, 65
1, 730561, Control_c, 0, 64, 67
1, 730561, Control_c, 0, 67, 59
1, 730575, Control_c, 0, 64, 70
1, 730575, Control_c, 0, 67, 59
1, 730590, Control_c, 0, 64, 73
1, 730590, Control_c, 0, 67, 58
1, 730605, Control_c, 0, 64, 77
1, 730605, Control_c, 0, 67, 58
1, 730620, Control_c, 0, 64, 81
1, 730635, Control_c, 0, 64, 86
1, 730650, Control_c, 0, 64, 93
1, 730650, Control_c, 0, 67, 57
1, 730664, Control_c, 0, 64, 103
1, 730664, Control_c, 0, 67, 57
1, 730679, Control_c, 0, 64, 127
1, 730738, Control_c, 0, 67, 56
1, 730784, Note_off_c, 0, 54, 48
1, 730840, Note_off_c, 0, 50, 37
1, 730863, Note_off_c, 0, 38, 40
1, 730863, Note_off_c, 0, 62, 37
1, 730864, Control_c, 0, 67, 56
1, 731056, Control_c, 0, 67, 55
1, 731101, Control_c, 0, 67, 55
1, 731160, Control_c, 0, 67, 54
1, 731189, Control_c, 0, 67, 54
1, 731205, Control_c, 0, 67, 53
1, 731220, Control_c, 0, 64, 119
1, 731220, Control_c, 0, 67, 50
1, 731235, Control_c, 0, 64, 99
1, 731235, Control_c, 0, 67, 49
1, 731250, Control_c, 0, 64, 89
1, 731250, Control_c, 0, 67, 48
1, 731265, Control_c, 0, 64, 82
1, 731265, Control_c, 0, 67, 47
1, 731279, Control_c, 0, 64, 77
1, 731279, Control_c, 0, 67, 46
1, 731294, Control_c, 0, 64, 72
1, 731294, Control_c, 0, 67, 45
1, 731309, Control_c, 0, 64, 68
1, 731309, Control_c, 0, 67, 44
1, 731324, Control_c, 0, 64, 64
1, 731324, Control_c, 0, 67, 43
1, 731339, Control_c, 0, 64, 60
1, 731339, Control_c, 0, 67, 42
1, 731353, Control_c, 0, 64, 55
1, 731353, Control_c, 0, 67, 41
1, 731368, Control_c, 0, 64, 51
1, 731368, Control_c, 0, 67, 41
1, 731383, Control_c, 0, 64, 49
1, 731383, Control_c, 0, 67, 40
1, 731398, Control_c, 0, 64, 47
1, 731398, Control_c, 0, 67, 39
1, 731413, Control_c, 0, 64, 45
1, 731413, Control_c, 0, 67, 38
1, 731428, Control_c, 0, 64, 42
1, 731428, Control_c, 0, 67, 37
1, 731443, Control_c, 0, 64, 38
1, 731443, Control_c, 0, 67, 36
1, 731454, Note_on_c, 0, 66, 42
1, 731458, Control_c, 0, 64, 36
1, 731458, Control_c, 0, 67, 36
1, 731461, Note_on_c, 0, 54, 39
1, 731472, Control_c, 0, 64, 35
1, 731472, Control_c, 0, 67, 35
1, 731487, Control_c, 0, 64, 33
1, 731487, Control_c, 0, 67, 35
1, 731502, Control_c, 0, 64, 30
1, 731517, Control_c, 0, 64, 23
1, 731517, Control_c, 0, 67, 34
1, 731539, Control_c, 0, 64, 12
1, 731539, Control_c, 0, 67, 34
1, 731553, Control_c, 0, 64, 0
1, 731553, Control_c, 0, 67, 33
1, 731568, Control_c, 0, 67, 32
1, 731583, Control_c, 0, 67, 31
1, 731598, Control_c, 0, 67, 30
1, 731613, Control_c, 0, 67, 28
1, 731628, Control_c, 0, 67, 27
1, 731643, Control_c, 0, 67, 26
1, 731658, Control_c, 0, 67, 25
1, 731672, Control_c, 0, 67, 24
1, 731687, Control_c, 0, 67, 23
1, 731702, Control_c, 0, 67, 22
1, 731717, Note_on_c, 0, 67, 56
1, 731717, Control_c, 0, 67, 21
1, 731731, Note_on_c, 0, 55, 45
1, 731732, Control_c, 0, 67, 20
1, 731747, Control_c, 0, 67, 19
1, 731761, Control_c, 0, 67, 17
1, 731776, Control_c, 0, 67, 16
1, 731779, Note_off_c, 0, 54, 40
1, 731791, Control_c, 0, 67, 15
1, 731805, Control_c, 0, 67, 14
1, 731820, Control_c, 0, 67, 13
1, 731835, Control_c, 0, 67, 11
1, 731850, Control_c, 0, 67, 9
1, 731865, Control_c, 0, 67, 0
1, 731917, Note_off_c, 0, 66, 39
1, 731929, Note_on_c, 0, 69, 64
1, 731943, Note_off_c, 0, 55, 57
1, 731945, Note_on_c, 0, 57, 44
1, 731978, Note_off_c, 0, 67, 55
1, 731983, Control_c, 0, 64, 29
1, 731999, Control_c, 0, 64, 52
1, 732014, Control_c, 0, 64, 60
1, 732028, Control_c, 0, 64, 64
1, 732043, Control_c, 0, 64, 67
1, 732058, Control_c, 0, 64, 72
1, 732073, Control_c, 0, 64, 79
1, 732086, Note_off_c, 0, 57, 50
1, 732088, Control_c, 0, 64, 86
1, 732102, Control_c, 0, 64, 91
1, 732117, Control_c, 0, 64, 98
1, 732132, Control_c, 0, 64, 106
1, 732147, Control_c, 0, 64, 113
1, 732162, Control_c, 0, 64, 119
1, 732176, Control_c, 0, 64, 125
1, 732191, Control_c, 0, 64, 127
1, 732378, Control_c, 0, 64, 121
1, 732387, Note_on_c, 0, 71, 50
1, 732392, Control_c, 0, 64, 114
1, 732407, Control_c, 0, 64, 108
1, 732419, Note_on_c, 0, 59, 36
1, 732421, Note_on_c, 0, 43, 36
1, 732422, Control_c, 0, 64, 104
1, 732436, Control_c, 0, 64, 99
1, 732437, Note_on_c, 0, 52, 37
1, 732447, Note_on_c, 0, 50, 31
1, 732451, Control_c, 0, 64, 94
1, 732466, Control_c, 0, 64, 90
1, 732477, Note_off_c, 0, 69, 39
1, 732481, Control_c, 0, 64, 86
1, 732496, Control_c, 0, 64, 82
1, 732510, Control_c, 0, 64, 78
1, 732525, Control_c, 0, 64, 74
1, 732540, Control_c, 0, 64, 69
1, 732555, Control_c, 0, 64, 65
1, 732570, Control_c, 0, 64, 59
1, 732585, Control_c, 0, 64, 41
1, 732599, Control_c, 0, 64, 0
1, 732703, Control_c, 0, 64, 8
1, 732718, Control_c, 0, 64, 45
1, 732733, Control_c, 0, 64, 53
1, 732747, Control_c, 0, 64, 56
1, 732762, Control_c, 0, 64, 58
1, 732777, Control_c, 0, 64, 61
1, 732792, Control_c, 0, 64, 63
1, 732808, Control_c, 0, 64, 65
1, 732823, Control_c, 0, 64, 66
1, 732838, Control_c, 0, 64, 66
1, 732852, Control_c, 0, 64, 67
1, 732867, Control_c, 0, 64, 68
1, 732882, Control_c, 0, 64, 70
1, 732897, Control_c, 0, 64, 71
1, 732912, Control_c, 0, 64, 73
1, 732926, Control_c, 0, 64, 74
1, 732941, Control_c, 0, 64, 75
1, 732956, Control_c, 0, 64, 77
1, 732970, Control_c, 0, 64, 77
1, 732985, Control_c, 0, 64, 78
1, 732990, Note_off_c, 0, 52, 37
1, 733000, Control_c, 0, 64, 79
1, 733015, Control_c, 0, 64, 81
1, 733037, Control_c, 0, 64, 82
1, 733051, Control_c, 0, 64, 83
1, 733066, Control_c, 0, 64, 84
1, 733081, Control_c, 0, 64, 85
1, 733096, Control_c, 0, 64, 85
1, 733111, Control_c, 0, 64, 86
1, 733125, Control_c, 0, 64, 87
1, 733140, Control_c, 0, 64, 88
1, 733155, Control_c, 0, 64, 88
1, 733184, Control_c, 0, 64, 89
1, 733199, Control_c, 0, 64, 89
1, 733214, Control_c, 0, 64, 90
1, 733231, Note_on_c, 0, 64, 52
1, 733244, Control_c, 0, 64, 90
1, 733257, Note_on_c, 0, 52, 48
1, 733294, Note_off_c, 0, 59, 37
1, 733303, Control_c, 0, 64, 91
1, 733320, Note_off_c, 0, 52, 55
1, 733341, Note_off_c, 0, 64, 55
1, 733348, Control_c, 0, 64, 91
1, 733361, Note_off_c, 0, 71, 30
1, 733377, Control_c, 0, 64, 92
1, 733422, Control_c, 0, 64, 88
1, 733422, Note_on_c, 0, 64, 50
1, 733437, Control_c, 0, 64, 76
1, 733439, Note_on_c, 0, 52, 55
1, 733449, Note_off_c, 0, 50, 24
1, 733451, Control_c, 0, 64, 66
1, 733466, Control_c, 0, 64, 55
1, 733481, Control_c, 0, 64, 50
1, 733496, Control_c, 0, 64, 58
1, 733511, Control_c, 0, 64, 62
1, 733525, Control_c, 0, 64, 65
1, 733540, Control_c, 0, 64, 70
1, 733555, Control_c, 0, 64, 77
1, 733570, Control_c, 0, 64, 85
1, 733584, Control_c, 0, 64, 91
1, 733600, Control_c, 0, 64, 97
1, 733607, Note_off_c, 0, 64, 60
1, 733615, Control_c, 0, 64, 103
1, 733630, Control_c, 0, 64, 111
1, 733641, Note_off_c, 0, 43, 39
1, 733645, Control_c, 0, 64, 127
1, 733657, Note_off_c, 0, 52, 36
1, 733977, Note_on_c, 0, 74, 75
1, 734010, Note_on_c, 0, 62, 53
1, 734015, Note_on_c, 0, 44, 50
1, 734020, Note_on_c, 0, 52, 50
1, 734111, Control_c, 0, 64, 94
1, 734126, Control_c, 0, 64, 72
1, 734141, Control_c, 0, 64, 50
1, 734155, Control_c, 0, 64, 0
1, 734260, Control_c, 0, 64, 51
1, 734274, Control_c, 0, 64, 64
1, 734289, Control_c, 0, 64, 69
1, 734304, Control_c, 0, 64, 75
1, 734318, Control_c, 0, 64, 79
1, 734333, Control_c, 0, 64, 80
1, 734348, Control_c, 0, 64, 82
1, 734363, Control_c, 0, 64, 87
1, 734378, Control_c, 0, 64, 91
1, 734393, Control_c, 0, 64, 95
1, 734409, Control_c, 0, 64, 97
1, 734423, Control_c, 0, 64, 98
1, 734438, Control_c, 0, 64, 101
1, 734453, Control_c, 0, 64, 103
1, 734468, Control_c, 0, 64, 105
1, 734483, Control_c, 0, 64, 106
1, 734497, Control_c, 0, 64, 107
1, 734512, Control_c, 0, 64, 109
1, 734514, Note_off_c, 0, 52, 45
1, 734534, Control_c, 0, 64, 110
1, 734549, Control_c, 0, 64, 111
1, 734564, Control_c, 0, 64, 112
1, 734579, Control_c, 0, 64, 113
1, 734594, Note_off_c, 0, 62, 48
1, 734683, Note_on_c, 0, 64, 67
1, 734688, Note_on_c, 0, 52, 52
1, 734756, Note_off_c, 0, 52, 58
1, 734770, Note_off_c, 0, 64, 62
1, 734816, Control_c, 0, 64, 112
1, 734830, Control_c, 0, 64, 93
1, 734845, Control_c, 0, 64, 67
1, 734849, Note_on_c, 0, 64, 70
1, 734860, Control_c, 0, 64, 0
1, 734870, Note_on_c, 0, 52, 59
1, 734911, Note_off_c, 0, 74, 44
1, 734934, Control_c, 0, 64, 60
1, 734948, Control_c, 0, 64, 68
1, 734963, Control_c, 0, 64, 77
1, 734978, Control_c, 0, 64, 87
1, 734993, Control_c, 0, 64, 95
1, 734994, Note_off_c, 0, 44, 58
1, 734996, Note_off_c, 0, 64, 63
1, 735008, Control_c, 0, 64, 106
1, 735023, Control_c, 0, 64, 127
1, 735038, Note_off_c, 0, 52, 64
1, 735378, Note_on_c, 0, 74, 67
1, 735403, Note_on_c, 0, 64, 51
1, 735416, Control_c, 0, 64, 125
1, 735427, Note_on_c, 0, 55, 41
1, 735430, Note_on_c, 0, 45, 45
1, 735431, Control_c, 0, 64, 107
1, 735446, Control_c, 0, 64, 99
1, 735461, Control_c, 0, 64, 94
1, 735476, Control_c, 0, 64, 89
1, 735491, Control_c, 0, 64, 84
1, 735506, Control_c, 0, 64, 79
1, 735520, Control_c, 0, 64, 75
1, 735535, Control_c, 0, 64, 70
1, 735550, Control_c, 0, 64, 64
1, 735565, Control_c, 0, 64, 42
1, 735579, Control_c, 0, 64, 0
1, 735698, Control_c, 0, 64, 41
1, 735713, Control_c, 0, 64, 56
1, 735727, Control_c, 0, 64, 60
1, 735742, Control_c, 0, 64, 62
1, 735757, Control_c, 0, 64, 63
1, 735771, Control_c, 0, 64, 64
1, 735786, Control_c, 0, 64, 65
1, 735801, Control_c, 0, 64, 67
1, 735816, Control_c, 0, 64, 68
1, 735831, Control_c, 0, 64, 70
1, 735846, Control_c, 0, 64, 72
1, 735861, Control_c, 0, 64, 73
1, 735865, Note_on_c, 0, 73, 68
1, 735875, Control_c, 0, 64, 75
1, 735887, Note_off_c, 0, 74, 61
1, 735890, Control_c, 0, 64, 76
1, 735905, Control_c, 0, 64, 77
1, 735920, Control_c, 0, 64, 79
1, 735935, Control_c, 0, 64, 81
1, 735950, Control_c, 0, 64, 84
1, 735964, Control_c, 0, 64, 87
1, 735979, Control_c, 0, 64, 90
1, 735995, Control_c, 0, 64, 92
1, 736010, Control_c, 0, 64, 93
1, 736013, Note_off_c, 0, 64, 37
1, 736048, Control_c, 0, 64, 93
1, 736060, Note_off_c, 0, 73, 60
1, 736063, Control_c, 0, 64, 83
1, 736076, Note_on_c, 0, 74, 63
1, 736077, Control_c, 0, 64, 70
1, 736087, Note_on_c, 0, 66, 59
1, 736092, Control_c, 0, 64, 58
1, 736096, Note_on_c, 0, 54, 51
1, 736107, Control_c, 0, 64, 54
1, 736122, Control_c, 0, 64, 60
1, 736137, Control_c, 0, 64, 63
1, 736151, Control_c, 0, 64, 66
1, 736166, Control_c, 0, 64, 70
1, 736181, Control_c, 0, 64, 77
1, 736185, Note_off_c, 0, 66, 63
1, 736196, Note_off_c, 0, 55, 36
1, 736196, Control_c, 0, 64, 81
1, 736210, Control_c, 0, 64, 82
1, 736225, Control_c, 0, 64, 83
1, 736240, Control_c, 0, 64, 82
1, 736255, Control_c, 0, 64, 75
1, 736270, Control_c, 0, 64, 63
1, 736282, Note_on_c, 0, 76, 74
1, 736284, Control_c, 0, 64, 24
1, 736296, Note_on_c, 0, 67, 66
1, 736299, Control_c, 0, 64, 0
1, 736305, Note_off_c, 0, 54, 53
1, 736308, Note_on_c, 0, 52, 56
1, 736314, Control_c, 0, 64, 31
1, 736329, Control_c, 0, 64, 54
1, 736344, Control_c, 0, 64, 64
1, 736358, Control_c, 0, 64, 71
1, 736364, Note_off_c, 0, 74, 38
1, 736373, Control_c, 0, 64, 82
1, 736374, Note_off_c, 0, 67, 58
1, 736388, Control_c, 0, 64, 88
1, 736403, Control_c, 0, 64, 91
1, 736448, Control_c, 0, 64, 85
1, 736463, Control_c, 0, 64, 64
1, 736477, Control_c, 0, 64, 0
1, 736481, Note_on_c, 0, 73, 76
1, 736491, Note_on_c, 0, 57, 53
1, 736496, Note_off_c, 0, 76, 64
1, 736500, Note_on_c, 0, 64, 63
1, 736500, Note_off_c, 0, 52, 64
1, 736536, Control_c, 0, 64, 56
1, 736551, Control_c, 0, 64, 73
1, 736566, Control_c, 0, 64, 86
1, 736581, Control_c, 0, 64, 99
1, 736595, Control_c, 0, 64, 110
1, 736610, Control_c, 0, 64, 127
1, 736613, Note_off_c, 0, 57, 55
1, 736618, Note_off_c, 0, 64, 64
1, 736777, Note_on_c, 0, 74, 71
1, 736803, Note_on_c, 0, 66, 59
1, 736813, Note_off_c, 0, 73, 59
1, 736819, Note_on_c, 0, 57, 39
1, 736826, Note_on_c, 0, 50, 41
1, 736841, Control_c, 0, 64, 108
1, 736856, Control_c, 0, 64, 98
1, 736871, Control_c, 0, 64, 91
1, 736886, Control_c, 0, 64, 87
1, 736900, Control_c, 0, 64, 81
1, 736915, Control_c, 0, 64, 75
1, 736930, Control_c, 0, 64, 68
1, 736945, Control_c, 0, 64, 61
1, 736952, Note_off_c, 0, 45, 43
1, 736960, Control_c, 0, 64, 40
1, 736974, Control_c, 0, 64, 0
1, 737211, Control_c, 0, 64, 35
1, 737226, Control_c, 0, 64, 51
1, 737241, Control_c, 0, 64, 58
1, 737251, Note_on_c, 0, 78, 70
1, 737256, Control_c, 0, 64, 63
1, 737271, Control_c, 0, 64, 65
1, 737285, Control_c, 0, 64, 66
1, 737300, Control_c, 0, 64, 68
1, 737315, Control_c, 0, 64, 74
1, 737321, Note_off_c, 0, 74, 49
1, 737330, Control_c, 0, 64, 78
1, 737344, Control_c, 0, 64, 81
1, 737359, Control_c, 0, 64, 84
1, 737374, Control_c, 0, 64, 88
1, 737389, Control_c, 0, 64, 92
1, 737404, Control_c, 0, 64, 95
1, 737418, Control_c, 0, 64, 100
1, 737433, Control_c, 0, 64, 103
1, 737448, Control_c, 0, 64, 104
1, 737458, Note_off_c, 0, 66, 37
1, 737463, Control_c, 0, 64, 106
1, 737470, Note_off_c, 0, 57, 34
1, 737478, Control_c, 0, 64, 106
1, 737492, Control_c, 0, 64, 107
1, 737504, Note_off_c, 0, 50, 35
1, 737648, Control_c, 0, 64, 106
1, 737663, Control_c, 0, 64, 106
1, 737678, Control_c, 0, 64, 103
1, 737693, Control_c, 0, 64, 98
1, 737708, Control_c, 0, 64, 92
1, 737722, Control_c, 0, 64, 87
1, 737737, Control_c, 0, 64, 82
1, 737752, Control_c, 0, 64, 77
1, 737765, Note_on_c, 0, 69, 51
1, 737766, Control_c, 0, 64, 71
1, 737779, Note_on_c, 0, 66, 45
1, 737781, Control_c, 0, 64, 64
1, 737796, Control_c, 0, 64, 44
1, 737809, Note_on_c, 0, 57, 11
1, 737811, Control_c, 0, 64, 0
1, 737819, Note_on_c, 0, 50, 20
1, 737833, Note_off_c, 0, 78, 58
1, 737885, Control_c, 0, 64, 20
1, 737885, Control_c, 0, 67, 10
1, 737900, Control_c, 0, 64, 61
1, 737900, Control_c, 0, 67, 29
1, 737914, Control_c, 0, 64, 69
1, 737914, Control_c, 0, 67, 44
1, 737929, Control_c, 0, 64, 75
1, 737929, Control_c, 0, 67, 59
1, 737933, Note_off_c, 0, 69, 63
1, 737944, Control_c, 0, 64, 81
1, 737944, Control_c, 0, 67, 74
1, 737959, Control_c, 0, 64, 86
1, 737959, Control_c, 0, 67, 88
1, 737974, Control_c, 0, 64, 91
1, 737974, Control_c, 0, 67, 101
1, 737989, Control_c, 0, 64, 96
1, 737989, Control_c, 0, 67, 113
1, 738004, Control_c, 0, 64, 98
1, 738004, Control_c, 0, 67, 126
1, 738019, Control_c, 0, 64, 98
1, 738019, Control_c, 0, 67, 127
1, 738034, Control_c, 0, 64, 99
1, 738038, Note_off_c, 0, 50, 38
1, 738069, Note_off_c, 0, 66, 36
1, 738096, Note_off_c, 0, 57, 36
1, 738226, Control_c, 0, 64, 98
1, 738278, Control_c, 0, 64, 98
1, 738293, Control_c, 0, 64, 95
1, 738307, Control_c, 0, 64, 92
1, 738322, Control_c, 0, 64, 89
1, 738333, Note_on_c, 0, 69, 46
1, 738337, Control_c, 0, 64, 86
1, 738352, Control_c, 0, 64, 83
1, 738359, Note_on_c, 0, 66, 43
1, 738366, Control_c, 0, 64, 80
1, 738373, Note_on_c, 0, 57, 23
1, 738381, Note_on_c, 0, 49, 26
1, 738381, Control_c, 0, 64, 77
1, 738397, Control_c, 0, 64, 74
1, 738412, Control_c, 0, 64, 70
1, 738427, Control_c, 0, 64, 66
1, 738442, Control_c, 0, 64, 63
1, 738457, Control_c, 0, 64, 58
1, 738471, Control_c, 0, 64, 47
1, 738486, Control_c, 0, 64, 0
1, 738634, Control_c, 0, 64, 29
1, 738649, Control_c, 0, 64, 44
1, 738663, Control_c, 0, 64, 49
1, 738678, Control_c, 0, 64, 51
1, 738693, Control_c, 0, 64, 53
1, 738708, Control_c, 0, 64, 55
1, 738723, Control_c, 0, 64, 57
1, 738737, Control_c, 0, 64, 57
1, 738752, Control_c, 0, 64, 58
1, 738767, Control_c, 0, 64, 58
1, 738777, Note_off_c, 0, 69, 58
1, 738782, Control_c, 0, 64, 59
1, 738794, Note_off_c, 0, 66, 51
1, 738797, Control_c, 0, 64, 59
1, 738812, Control_c, 0, 64, 60
1, 738812, Note_on_c, 0, 67, 46
1, 738821, Note_on_c, 0, 64, 38
1, 738841, Control_c, 0, 64, 60
1, 738886, Control_c, 0, 64, 61
1, 738901, Control_c, 0, 64, 62
1, 738945, Control_c, 0, 64, 62
1, 738960, Control_c, 0, 64, 63
1, 738988, Note_off_c, 0, 64, 42
1, 738989, Control_c, 0, 64, 63
1, 738994, Note_off_c, 0, 67, 54
1, 738999, Note_on_c, 0, 69, 53
1, 739004, Control_c, 0, 64, 64
1, 739015, Note_on_c, 0, 66, 49
1, 739027, Control_c, 0, 64, 64
1, 739042, Control_c, 0, 64, 65
1, 739057, Control_c, 0, 64, 65
1, 739071, Control_c, 0, 64, 66
1, 739085, Note_off_c, 0, 57, 41
1, 739086, Control_c, 0, 64, 66
1, 739116, Control_c, 0, 64, 67
1, 739160, Control_c, 0, 64, 65
1, 739171, Note_off_c, 0, 66, 34
1, 739175, Control_c, 0, 64, 59
1, 739190, Control_c, 0, 64, 23
1, 739206, Control_c, 0, 64, 0
1, 739229, Note_on_c, 0, 67, 48
1, 739236, Note_on_c, 0, 71, 55
1, 739241, Note_on_c, 0, 45, 38
1, 739247, Note_on_c, 0, 57, 26
1, 739252, Note_off_c, 0, 69, 36
1, 739265, Note_off_c, 0, 49, 39
1, 739265, Control_c, 0, 64, 30
1, 739280, Control_c, 0, 64, 58
1, 739295, Control_c, 0, 64, 65
1, 739297, Note_off_c, 0, 67, 60
1, 739309, Control_c, 0, 64, 68
1, 739324, Control_c, 0, 64, 70
1, 739354, Control_c, 0, 64, 65
1, 739369, Control_c, 0, 64, 53
1, 739384, Control_c, 0, 64, 0
1, 739423, Note_on_c, 0, 67, 55
1, 739428, Control_c, 0, 64, 55
1, 739441, Note_on_c, 0, 64, 50
1, 739443, Control_c, 0, 64, 65
1, 739452, Note_off_c, 0, 57, 41
1, 739453, Note_off_c, 0, 71, 47
1, 739458, Control_c, 0, 64, 70
1, 739473, Control_c, 0, 64, 74
1, 739488, Control_c, 0, 64, 75
1, 739501, Note_off_c, 0, 64, 53
1, 739566, Note_off_c, 0, 67, 50
1, 739583, Note_off_c, 0, 45, 42
1, 739635, Control_c, 0, 64, 75
1, 739650, Control_c, 0, 64, 74
1, 739665, Control_c, 0, 64, 73
1, 739680, Control_c, 0, 64, 72
1, 739694, Control_c, 0, 64, 71
1, 739709, Control_c, 0, 64, 70
1, 739713, Note_on_c, 0, 67, 40
1, 739716, Note_on_c, 0, 69, 47
1, 739724, Control_c, 0, 64, 69
1, 739739, Control_c, 0, 64, 68
1, 739750, Note_on_c, 0, 57, 31
1, 739754, Control_c, 0, 64, 68
1, 739774, Note_on_c, 0, 50, 31
1, 739775, Control_c, 0, 64, 67
1, 739789, Control_c, 0, 64, 66
1, 739804, Control_c, 0, 64, 65
1, 739819, Control_c, 0, 64, 63
1, 739834, Control_c, 0, 64, 62
1, 739849, Control_c, 0, 64, 59
1, 739864, Control_c, 0, 64, 46
1, 739879, Control_c, 0, 64, 0
1, 740201, Note_off_c, 0, 67, 43
1, 740215, Note_on_c, 0, 66, 41
1, 740216, Note_on_c, 0, 74, 42
1, 740247, Note_off_c, 0, 69, 54
1, 740279, Control_c, 0, 64, 43
1, 740294, Control_c, 0, 64, 58
1, 740294, Control_c, 0, 67, 124
1, 740308, Control_c, 0, 64, 62
1, 740308, Control_c, 0, 67, 120
1, 740323, Control_c, 0, 64, 63
1, 740323, Control_c, 0, 67, 117
1, 740338, Control_c, 0, 64, 65
1, 740338, Control_c, 0, 67, 114
1, 740342, Note_off_c, 0, 66, 53
1, 740353, Control_c, 0, 64, 67
1, 740353, Control_c, 0, 67, 111
1, 740368, Control_c, 0, 64, 69
1, 740368, Control_c, 0, 67, 108
1, 740383, Control_c, 0, 64, 72
1, 740383, Control_c, 0, 67, 105
1, 740386, Note_off_c, 0, 74, 54
1, 740398, Control_c, 0, 64, 74
1, 740398, Control_c, 0, 67, 102
1, 740412, Control_c, 0, 64, 75
1, 740412, Control_c, 0, 67, 98
1, 740427, Control_c, 0, 64, 75
1, 740427, Control_c, 0, 67, 95
1, 740431, Note_off_c, 0, 57, 46
1, 740442, Control_c, 0, 64, 76
1, 740442, Control_c, 0, 67, 93
1, 740451, Note_off_c, 0, 50, 40
1, 740457, Control_c, 0, 67, 89
1, 740472, Control_c, 0, 64, 76
1, 740472, Control_c, 0, 67, 85
1, 740486, Control_c, 0, 67, 80
1, 740501, Control_c, 0, 67, 73
1, 740523, Control_c, 0, 67, 62
1, 740538, Control_c, 0, 67, 53
1, 740553, Control_c, 0, 67, 43
1, 740567, Control_c, 0, 67, 34
1, 740582, Control_c, 0, 67, 26
1, 740597, Control_c, 0, 64, 76
1, 740597, Control_c, 0, 67, 18
1, 740612, Control_c, 0, 64, 75
1, 740612, Control_c, 0, 67, 10
1, 740627, Control_c, 0, 64, 73
1, 740627, Control_c, 0, 67, 0
1, 740642, Control_c, 0, 64, 71
1, 740657, Control_c, 0, 64, 69
1, 740672, Control_c, 0, 64, 66
1, 740686, Control_c, 0, 64, 63
1, 740701, Control_c, 0, 64, 58
1, 740713, Note_on_c, 0, 69, 68
1, 740716, Control_c, 0, 64, 37
1, 740731, Control_c, 0, 64, 0
1, 740732, Note_on_c, 0, 54, 40
1, 740865, Control_c, 0, 64, 43
1, 740880, Control_c, 0, 64, 52
1, 740895, Control_c, 0, 64, 56
1, 740910, Control_c, 0, 64, 59
1, 740925, Control_c, 0, 64, 62
1, 740939, Control_c, 0, 64, 64
1, 740946, Note_on_c, 0, 71, 76
1, 740949, Note_off_c, 0, 54, 57
1, 740954, Control_c, 0, 64, 65
1, 740955, Note_on_c, 0, 55, 47
1, 740969, Control_c, 0, 64, 66
1, 740984, Control_c, 0, 64, 69
1, 740998, Control_c, 0, 64, 72
1, 741012, Note_off_c, 0, 69, 55
1, 741013, Control_c, 0, 64, 77
1, 741028, Control_c, 0, 64, 82
1, 741043, Control_c, 0, 64, 87
1, 741057, Control_c, 0, 64, 91
1, 741072, Control_c, 0, 64, 95
1, 741082, Note_off_c, 0, 55, 37
1, 741087, Control_c, 0, 64, 100
1, 741102, Control_c, 0, 64, 104
1, 741116, Control_c, 0, 64, 107
1, 741131, Control_c, 0, 64, 110
1, 741146, Control_c, 0, 64, 114
1, 741161, Control_c, 0, 64, 118
1, 741176, Control_c, 0, 64, 119
1, 741288, Note_on_c, 0, 74, 65
1, 741305, Note_on_c, 0, 64, 51
1, 741328, Note_on_c, 0, 55, 41
1, 741334, Note_on_c, 0, 45, 42
1, 741371, Note_off_c, 0, 71, 41
1, 741390, Control_c, 0, 64, 118
1, 741405, Control_c, 0, 64, 116
1, 741420, Control_c, 0, 64, 113
1, 741435, Control_c, 0, 64, 106
1, 741450, Control_c, 0, 64, 95
1, 741465, Control_c, 0, 64, 84
1, 741480, Control_c, 0, 64, 72
1, 741494, Control_c, 0, 64, 61
1, 741509, Control_c, 0, 64, 0
1, 741629, Control_c, 0, 64, 34
1, 741644, Control_c, 0, 64, 56
1, 741658, Control_c, 0, 64, 62
1, 741673, Control_c, 0, 64, 63
1, 741703, Control_c, 0, 64, 63
1, 741718, Control_c, 0, 64, 64
1, 741733, Control_c, 0, 64, 65
1, 741747, Control_c, 0, 64, 67
1, 741762, Note_on_c, 0, 73, 70
1, 741762, Control_c, 0, 64, 68
1, 741777, Control_c, 0, 64, 69
1, 741781, Note_off_c, 0, 74, 57
1, 741792, Control_c, 0, 64, 70
1, 741807, Control_c, 0, 64, 71
1, 741821, Control_c, 0, 64, 73
1, 741836, Control_c, 0, 64, 74
1, 741851, Control_c, 0, 64, 77
1, 741866, Control_c, 0, 64, 79
1, 741881, Control_c, 0, 64, 81
1, 741895, Control_c, 0, 64, 82
1, 741909, Note_off_c, 0, 64, 35
1, 741910, Control_c, 0, 64, 83
1, 741939, Control_c, 0, 64, 76
1, 741954, Control_c, 0, 64, 66
1, 741962, Note_on_c, 0, 74, 72
1, 741962, Note_off_c, 0, 73, 61
1, 741969, Control_c, 0, 64, 55
1, 741971, Note_on_c, 0, 66, 62
1, 741983, Note_on_c, 0, 54, 49
1, 741984, Control_c, 0, 64, 44
1, 741999, Control_c, 0, 64, 53
1, 742021, Control_c, 0, 64, 60
1, 742036, Control_c, 0, 64, 64
1, 742051, Control_c, 0, 64, 68
1, 742066, Control_c, 0, 64, 73
1, 742081, Control_c, 0, 64, 77
1, 742082, Note_off_c, 0, 55, 36
1, 742091, Note_off_c, 0, 66, 58
1, 742095, Control_c, 0, 64, 78
1, 742110, Control_c, 0, 64, 80
1, 742154, Control_c, 0, 64, 76
1, 742169, Control_c, 0, 64, 65
1, 742183, Note_on_c, 0, 76, 71
1, 742183, Note_on_c, 0, 67, 60
1, 742184, Control_c, 0, 64, 35
1, 742195, Note_on_c, 0, 52, 56
1, 742199, Control_c, 0, 64, 0
1, 742226, Note_off_c, 0, 54, 55
1, 742228, Control_c, 0, 64, 8
1, 742242, Note_off_c, 0, 74, 54
1, 742243, Control_c, 0, 64, 54
1, 742258, Control_c, 0, 64, 65
1, 742272, Control_c, 0, 64, 70
1, 742287, Control_c, 0, 64, 75
1, 742290, Note_off_c, 0, 67, 46
1, 742302, Control_c, 0, 64, 79
1, 742317, Control_c, 0, 64, 82
1, 742332, Control_c, 0, 64, 82
1, 742347, Control_c, 0, 64, 82
1, 742362, Control_c, 0, 64, 74
1, 742377, Control_c, 0, 64, 58
1, 742386, Note_on_c, 0, 73, 81
1, 742392, Control_c, 0, 64, 0
1, 742402, Note_on_c, 0, 57, 49
1, 742409, Note_on_c, 0, 64, 61
1, 742416, Note_off_c, 0, 76, 63
1, 742428, Note_off_c, 0, 52, 51
1, 742451, Control_c, 0, 64, 53
1, 742466, Control_c, 0, 64, 66
1, 742481, Control_c, 0, 64, 72
1, 742496, Control_c, 0, 64, 77
1, 742511, Control_c, 0, 64, 83
1, 742526, Control_c, 0, 64, 91
1, 742527, Note_off_c, 0, 57, 50
1, 742541, Control_c, 0, 64, 95
1, 742544, Note_off_c, 0, 64, 64
1, 742555, Control_c, 0, 64, 98
1, 742570, Control_c, 0, 64, 98
1, 742659, Control_c, 0, 64, 98
1, 742689, Control_c, 0, 64, 95
1, 742690, Note_on_c, 0, 74, 74
1, 742704, Control_c, 0, 64, 90
1, 742708, Note_on_c, 0, 66, 53
1, 742718, Control_c, 0, 64, 86
1, 742724, Note_on_c, 0, 50, 40
1, 742729, Note_on_c, 0, 57, 40
1, 742733, Control_c, 0, 64, 83
1, 742745, Note_off_c, 0, 73, 52
1, 742748, Control_c, 0, 64, 79
1, 742770, Control_c, 0, 64, 76
1, 742785, Control_c, 0, 64, 72
1, 742800, Control_c, 0, 64, 69
1, 742815, Control_c, 0, 64, 66
1, 742830, Control_c, 0, 64, 63
1, 742845, Control_c, 0, 64, 60
1, 742860, Control_c, 0, 64, 55
1, 742865, Note_off_c, 0, 45, 43
1, 742875, Control_c, 0, 64, 37
1, 742889, Control_c, 0, 64, 0
1, 743111, Control_c, 0, 64, 10
1, 743126, Control_c, 0, 64, 48
1, 743141, Control_c, 0, 64, 58
1, 743152, Note_on_c, 0, 78, 69
1, 743155, Control_c, 0, 64, 64
1, 743170, Control_c, 0, 64, 69
1, 743186, Control_c, 0, 64, 76
1, 743201, Control_c, 0, 64, 81
1, 743216, Control_c, 0, 64, 85
1, 743231, Control_c, 0, 64, 93
1, 743246, Control_c, 0, 64, 110
1, 743255, Note_off_c, 0, 74, 54
1, 743260, Control_c, 0, 64, 127
1, 743275, Note_off_c, 0, 50, 54
1, 743279, Note_off_c, 0, 78, 64
1, 743289, Note_off_c, 0, 57, 37
1, 743368, Note_off_c, 0, 66, 37
1, 743623, Control_c, 0, 64, 116
1, 743638, Control_c, 0, 64, 103
1, 743653, Control_c, 0, 64, 95
1, 743667, Control_c, 0, 64, 89
1, 743682, Control_c, 0, 64, 85
1, 743697, Control_c, 0, 64, 82
1, 743703, Note_on_c, 0, 69, 54
1, 743711, Control_c, 0, 64, 79
1, 743726, Control_c, 0, 64, 75
1, 743730, Note_on_c, 0, 64, 43
1, 743741, Note_on_c, 0, 57, 36
1, 743741, Control_c, 0, 64, 72
1, 743756, Control_c, 0, 64, 67
1, 743771, Control_c, 0, 64, 61
1, 743779, Note_on_c, 0, 49, 21
1, 743785, Control_c, 0, 64, 38
1, 743800, Control_c, 0, 64, 0
1, 743904, Control_c, 0, 64, 20
1, 743918, Control_c, 0, 64, 50
1, 743933, Control_c, 0, 64, 57
1, 743948, Control_c, 0, 64, 60
1, 743963, Control_c, 0, 64, 63
1, 743979, Control_c, 0, 64, 65
1, 743994, Control_c, 0, 64, 68
1, 744008, Control_c, 0, 64, 73
1, 744023, Control_c, 0, 64, 77
1, 744034, Note_on_c, 0, 52, 56
1, 744038, Control_c, 0, 64, 79
1, 744053, Control_c, 0, 64, 82
1, 744068, Control_c, 0, 64, 86
1, 744082, Control_c, 0, 64, 90
1, 744097, Control_c, 0, 64, 94
1, 744112, Control_c, 0, 64, 97
1, 744127, Control_c, 0, 64, 100
1, 744142, Control_c, 0, 64, 103
1, 744148, Note_off_c, 0, 64, 41
1, 744153, Note_off_c, 0, 57, 52
1, 744156, Control_c, 0, 64, 104
1, 744171, Control_c, 0, 64, 105
1, 744186, Control_c, 0, 64, 106
1, 744192, Note_off_c, 0, 69, 35
1, 744201, Control_c, 0, 64, 107
1, 744268, Control_c, 0, 67, 10
1, 744282, Control_c, 0, 67, 16
1, 744297, Control_c, 0, 67, 22
1, 744312, Control_c, 0, 67, 27
1, 744327, Control_c, 0, 67, 31
1, 744341, Control_c, 0, 67, 34
1, 744356, Control_c, 0, 67, 37
1, 744371, Control_c, 0, 67, 39
1, 744386, Control_c, 0, 67, 42
1, 744401, Control_c, 0, 67, 44
1, 744416, Control_c, 0, 64, 106
1, 744416, Control_c, 0, 67, 47
1, 744431, Control_c, 0, 64, 106
1, 744431, Control_c, 0, 67, 49
1, 744446, Control_c, 0, 64, 103
1, 744446, Control_c, 0, 67, 51
1, 744460, Control_c, 0, 64, 99
1, 744460, Control_c, 0, 67, 53
1, 744475, Control_c, 0, 64, 96
1, 744475, Control_c, 0, 67, 54
1, 744478, Note_on_c, 0, 69, 55
1, 744490, Control_c, 0, 64, 92
1, 744490, Control_c, 0, 67, 55
1, 744499, Note_on_c, 0, 62, 40
1, 744505, Control_c, 0, 64, 89
1, 744505, Control_c, 0, 67, 56
1, 744520, Control_c, 0, 64, 86
1, 744520, Control_c, 0, 67, 57
1, 744534, Control_c, 0, 64, 83
1, 744534, Control_c, 0, 67, 57
1, 744549, Control_c, 0, 64, 81
1, 744549, Control_c, 0, 67, 58
1, 744553, Note_on_c, 0, 54, 42
1, 744564, Control_c, 0, 64, 79
1, 744564, Control_c, 0, 67, 59
1, 744576, Note_on_c, 0, 47, 39
1, 744579, Control_c, 0, 64, 77
1, 744579, Control_c, 0, 67, 60
1, 744594, Control_c, 0, 64, 74
1, 744594, Control_c, 0, 67, 61
1, 744608, Control_c, 0, 64, 71
1, 744608, Control_c, 0, 67, 62
1, 744623, Control_c, 0, 64, 68
1, 744623, Control_c, 0, 67, 63
1, 744628, Note_off_c, 0, 52, 40
1, 744638, Control_c, 0, 64, 65
1, 744638, Control_c, 0, 67, 64
1, 744653, Control_c, 0, 64, 60
1, 744653, Control_c, 0, 67, 65
1, 744667, Control_c, 0, 64, 39
1, 744667, Control_c, 0, 67, 66
1, 744670, Note_off_c, 0, 49, 39
1, 744682, Control_c, 0, 64, 0
1, 744682, Control_c, 0, 67, 67
1, 744697, Control_c, 0, 67, 68
1, 744712, Control_c, 0, 67, 70
1, 744727, Control_c, 0, 67, 73
1, 744741, Control_c, 0, 67, 76
1, 744756, Control_c, 0, 67, 79
1, 744771, Control_c, 0, 67, 83
1, 744787, Control_c, 0, 67, 86
1, 744802, Control_c, 0, 64, 8
1, 744802, Control_c, 0, 67, 89
1, 744817, Control_c, 0, 64, 41
1, 744817, Control_c, 0, 67, 92
1, 744831, Control_c, 0, 64, 48
1, 744831, Control_c, 0, 67, 95
1, 744846, Control_c, 0, 64, 49
1, 744846, Control_c, 0, 67, 98
1, 744861, Control_c, 0, 64, 50
1, 744861, Control_c, 0, 67, 102
1, 744876, Control_c, 0, 64, 51
1, 744876, Control_c, 0, 67, 105
1, 744891, Control_c, 0, 67, 108
1, 744905, Control_c, 0, 67, 111
1, 744920, Control_c, 0, 67, 113
1, 744935, Control_c, 0, 67, 115
1, 744949, Control_c, 0, 67, 117
1, 744964, Control_c, 0, 67, 120
1, 744979, Control_c, 0, 67, 122
1, 744994, Control_c, 0, 67, 123
1, 745017, Control_c, 0, 67, 125
1, 745019, Note_off_c, 0, 69, 64
1, 745031, Control_c, 0, 67, 126
1, 745033, Note_on_c, 0, 68, 57
1, 745046, Control_c, 0, 67, 127
1, 745061, Control_c, 0, 67, 127
1, 745194, Control_c, 0, 64, 51
1, 745209, Control_c, 0, 64, 52
1, 745224, Control_c, 0, 64, 53
1, 745227, Note_on_c, 0, 69, 62
1, 745227, Note_off_c, 0, 68, 56
1, 745238, Control_c, 0, 64, 55
1, 745251, Note_on_c, 0, 63, 57
1, 745253, Control_c, 0, 64, 58
1, 745255, Note_off_c, 0, 62, 55
1, 745268, Control_c, 0, 64, 61
1, 745283, Control_c, 0, 64, 62
1, 745313, Control_c, 0, 64, 63
1, 745336, Note_off_c, 0, 54, 59
1, 745431, Control_c, 0, 64, 62
1, 745446, Control_c, 0, 64, 62
1, 745461, Control_c, 0, 64, 61
1, 745475, Control_c, 0, 64, 60
1, 745490, Control_c, 0, 64, 56
1, 745492, Note_off_c, 0, 69, 63
1, 745505, Control_c, 0, 64, 42
1, 745514, Note_on_c, 0, 73, 51
1, 745520, Control_c, 0, 64, 0
1, 745526, Note_off_c, 0, 63, 62
1, 745537, Note_off_c, 0, 47, 41
1, 745544, Note_on_c, 0, 64, 40
1, 745547, Note_on_c, 0, 52, 35
1, 745559, Note_on_c, 0, 40, 39
1, 745610, Control_c, 0, 64, 39
1, 745625, Control_c, 0, 64, 60
1, 745640, Control_c, 0, 64, 65
1, 745654, Control_c, 0, 64, 66
1, 745669, Control_c, 0, 64, 67
1, 745684, Control_c, 0, 64, 67
1, 745690, Note_off_c, 0, 52, 35
1, 745743, Control_c, 0, 64, 67
1, 745766, Control_c, 0, 64, 65
1, 745781, Control_c, 0, 64, 64
1, 745795, Control_c, 0, 64, 62
1, 745803, Note_on_c, 0, 71, 44
1, 745810, Control_c, 0, 64, 60
1, 745813, Note_on_c, 0, 68, 42
1, 745814, Note_off_c, 0, 73, 56
1, 745825, Note_on_c, 0, 50, 36
1, 745825, Control_c, 0, 64, 55
1, 745840, Control_c, 0, 64, 44
1, 745854, Control_c, 0, 64, 14
1, 745869, Control_c, 0, 64, 0
1, 745872, Note_off_c, 0, 64, 36
1, 746171, Note_on_c, 0, 69, 40
1, 746183, Note_on_c, 0, 45, 33
1, 746186, Note_on_c, 0, 49, 26
1, 746189, Note_off_c, 0, 71, 36
1, 746213, Note_off_c, 0, 40, 29
1, 746219, Note_off_c, 0, 68, 57
1, 746237, Note_off_c, 0, 50, 39
1, 746403, Control_c, 0, 64, 45
1, 746418, Control_c, 0, 64, 50
1, 746433, Control_c, 0, 64, 53
1, 746448, Control_c, 0, 64, 57
1, 746463, Control_c, 0, 64, 61
1, 746477, Control_c, 0, 64, 64
1, 746492, Control_c, 0, 64, 66
1, 746515, Control_c, 0, 64, 68
1, 746530, Control_c, 0, 64, 72
1, 746544, Control_c, 0, 64, 76
1, 746559, Control_c, 0, 64, 80
1, 746574, Control_c, 0, 64, 84
1, 746589, Control_c, 0, 64, 87
1, 746604, Control_c, 0, 64, 93
1, 746619, Note_off_c, 0, 49, 38
1, 746619, Control_c, 0, 64, 99
1, 746634, Control_c, 0, 64, 110
1, 746648, Control_c, 0, 64, 127
1, 746662, Note_off_c, 0, 45, 42
1, 746685, Note_off_c, 0, 69, 46
1, 746989, Control_c, 0, 64, 109
1, 747003, Control_c, 0, 64, 89
1, 747018, Control_c, 0, 64, 76
1, 747033, Control_c, 0, 64, 67
1, 747048, Control_c, 0, 64, 57
1, 747063, Control_c, 0, 64, 34
1, 747078, Control_c, 0, 64, 0
1, 747122, Control_c, 0, 67, 123
1, 747137, Control_c, 0, 67, 117
1, 747152, Control_c, 0, 67, 110
1, 747167, Control_c, 0, 67, 104
1, 747169, Note_on_c, 0, 69, 46
1, 747182, Control_c, 0, 67, 98
1, 747186, Note_on_c, 0, 57, 35
1, 747197, Control_c, 0, 67, 94
1, 747212, Control_c, 0, 67, 89
1, 747227, Control_c, 0, 67, 85
1, 747242, Control_c, 0, 67, 82
1, 747264, Control_c, 0, 67, 78
1, 747278, Control_c, 0, 67, 76
1, 747293, Control_c, 0, 67, 72
1, 747308, Control_c, 0, 67, 67
1, 747323, Control_c, 0, 67, 62
1, 747338, Control_c, 0, 67, 56
1, 747353, Control_c, 0, 67, 51
1, 747367, Control_c, 0, 67, 46
1, 747382, Control_c, 0, 67, 43
1, 747397, Control_c, 0, 67, 38
1, 747408, Note_on_c, 0, 71, 52
1, 747412, Control_c, 0, 67, 34
1, 747419, Note_on_c, 0, 59, 41
1, 747427, Control_c, 0, 67, 30
1, 747441, Control_c, 0, 67, 27
1, 747444, Note_off_c, 0, 57, 52
1, 747456, Control_c, 0, 67, 23
1, 747471, Control_c, 0, 67, 20
1, 747486, Control_c, 0, 67, 16
1, 747486, Note_off_c, 0, 69, 55
1, 747501, Control_c, 0, 67, 11
1, 747516, Control_c, 0, 67, 0
1, 747599, Note_on_c, 0, 73, 66
1, 747611, Note_off_c, 0, 59, 47
1, 747616, Note_on_c, 0, 61, 42
1, 747622, Note_off_c, 0, 71, 53
1, 747689, Note_off_c, 0, 73, 62
1, 747693, Control_c, 0, 64, 40
1, 747708, Control_c, 0, 64, 61
1, 747723, Control_c, 0, 64, 68
1, 747738, Control_c, 0, 64, 75
1, 747752, Control_c, 0, 64, 82
1, 747767, Control_c, 0, 64, 87
1, 747774, Note_off_c, 0, 61, 47
1, 747782, Control_c, 0, 64, 92
1, 747797, Control_c, 0, 64, 95
1, 747812, Control_c, 0, 64, 97
1, 747915, Control_c, 0, 64, 94
1, 747923, Note_on_c, 0, 74, 64
1, 747930, Control_c, 0, 64, 88
1, 747945, Control_c, 0, 64, 82
1, 747960, Control_c, 0, 64, 77
1, 747968, Note_on_c, 0, 62, 31
1, 747975, Control_c, 0, 64, 72
1, 747990, Control_c, 0, 64, 67
1, 748012, Control_c, 0, 64, 63
1, 748027, Control_c, 0, 64, 55
1, 748042, Control_c, 0, 64, 18
1, 748056, Control_c, 0, 64, 0
1, 748464, Note_on_c, 0, 54, 37
1, 748471, Note_on_c, 0, 50, 38
1, 748515, Control_c, 0, 67, 8
1, 748530, Control_c, 0, 67, 11
1, 748545, Control_c, 0, 67, 15
1, 748560, Control_c, 0, 67, 17
1, 748589, Control_c, 0, 67, 18
1, 748619, Control_c, 0, 67, 19
1, 748708, Control_c, 0, 67, 19
1, 748805, Control_c, 0, 67, 20
1, 748835, Control_c, 0, 64, 31
1, 748850, Control_c, 0, 64, 43
1, 748850, Control_c, 0, 67, 19
1, 748865, Control_c, 0, 64, 49
1, 748879, Control_c, 0, 64, 54
1, 748894, Control_c, 0, 64, 58
1, 748909, Control_c, 0, 64, 61
1, 748923, Control_c, 0, 64, 62
1, 748938, Control_c, 0, 64, 63
1, 748953, Control_c, 0, 64, 64
1, 748968, Control_c, 0, 64, 65
1, 748968, Control_c, 0, 67, 19
1, 748983, Control_c, 0, 64, 66
1, 748997, Control_c, 0, 64, 68
1, 749012, Control_c, 0, 64, 70
1, 749027, Control_c, 0, 64, 73
1, 749042, Control_c, 0, 64, 76
1, 749057, Control_c, 0, 64, 79
1, 749057, Control_c, 0, 67, 19
1, 749072, Control_c, 0, 64, 81
1, 749072, Control_c, 0, 67, 20
1, 749087, Control_c, 0, 64, 82
1, 749102, Control_c, 0, 64, 83
1, 749117, Control_c, 0, 64, 84
1, 749131, Control_c, 0, 64, 84
1, 749146, Control_c, 0, 64, 85
1, 749146, Control_c, 0, 67, 20
1, 749176, Control_c, 0, 67, 21
1, 749264, Control_c, 0, 67, 21
1, 749294, Control_c, 0, 67, 22
1, 749309, Control_c, 0, 67, 24
1, 749317, Note_on_c, 0, 73, 40
1, 749323, Control_c, 0, 67, 30
1, 749338, Control_c, 0, 67, 34
1, 749353, Control_c, 0, 67, 36
1, 749368, Control_c, 0, 64, 84
1, 749368, Control_c, 0, 67, 37
1, 749383, Control_c, 0, 64, 84
1, 749397, Control_c, 0, 64, 82
1, 749402, Note_off_c, 0, 74, 33
1, 749409, Note_on_c, 0, 71, 52
1, 749412, Control_c, 0, 64, 80
1, 749427, Control_c, 0, 64, 78
1, 749442, Control_c, 0, 64, 75
1, 749456, Control_c, 0, 64, 71
1, 749468, Note_off_c, 0, 62, 34
1, 749471, Control_c, 0, 64, 68
1, 749471, Control_c, 0, 67, 36
1, 749486, Control_c, 0, 64, 67
1, 749486, Control_c, 0, 67, 36
1, 749510, Control_c, 0, 64, 65
1, 749510, Control_c, 0, 67, 35
1, 749525, Control_c, 0, 64, 64
1, 749525, Control_c, 0, 67, 35
1, 749532, Note_off_c, 0, 73, 33
1, 749538, Note_off_c, 0, 54, 26
1, 749539, Control_c, 0, 64, 62
1, 749549, Note_on_c, 0, 69, 49
1, 749554, Control_c, 0, 64, 61
1, 749562, Note_on_c, 0, 57, 38
1, 749569, Control_c, 0, 64, 57
1, 749576, Note_off_c, 0, 71, 54
1, 749585, Control_c, 0, 64, 52
1, 749585, Control_c, 0, 67, 34
1, 749600, Control_c, 0, 64, 44
1, 749614, Control_c, 0, 64, 28
1, 749629, Control_c, 0, 64, 0
1, 749644, Control_c, 0, 67, 34
1, 749648, Note_off_c, 0, 50, 18
1, 749703, Control_c, 0, 67, 34
1, 749718, Control_c, 0, 67, 35
1, 749792, Control_c, 0, 67, 35
1, 749999, Control_c, 0, 67, 35
1, 750059, Control_c, 0, 67, 34
1, 750088, Control_c, 0, 67, 34
1, 750118, Control_c, 0, 67, 33
1, 750133, Control_c, 0, 67, 32
1, 750146, Note_on_c, 0, 52, 38
1, 750147, Control_c, 0, 67, 32
1, 750160, Note_on_c, 0, 49, 29
1, 750162, Control_c, 0, 67, 31
1, 750177, Control_c, 0, 67, 30
1, 750192, Control_c, 0, 67, 30
1, 750207, Control_c, 0, 64, 48
1, 750207, Control_c, 0, 67, 29
1, 750221, Control_c, 0, 64, 59
1, 750236, Control_c, 0, 64, 63
1, 750236, Control_c, 0, 67, 28
1, 750258, Control_c, 0, 64, 64
1, 750273, Control_c, 0, 64, 65
1, 750273, Control_c, 0, 67, 28
1, 750288, Control_c, 0, 64, 67
1, 750303, Control_c, 0, 64, 68
1, 750318, Control_c, 0, 64, 68
1, 750318, Control_c, 0, 67, 27
1, 750333, Control_c, 0, 64, 69
1, 750333, Control_c, 0, 67, 27
1, 750363, Note_off_c, 0, 69, 38
1, 750511, Control_c, 0, 67, 26
1, 750570, Control_c, 0, 67, 26
1, 750574, Note_on_c, 0, 69, 48
1, 750600, Control_c, 0, 67, 25
1, 750615, Control_c, 0, 67, 25
1, 750644, Control_c, 0, 64, 69
1, 750644, Control_c, 0, 67, 24
1, 750659, Control_c, 0, 67, 23
1, 750674, Control_c, 0, 64, 70
1, 750674, Control_c, 0, 67, 23
1, 750703, Control_c, 0, 64, 70
1, 750703, Control_c, 0, 67, 22
1, 750718, Control_c, 0, 67, 22
1, 750748, Control_c, 0, 64, 71
1, 750748, Control_c, 0, 67, 21
1, 750777, Control_c, 0, 67, 21
1, 750792, Control_c, 0, 67, 20
1, 750793, Note_on_c, 0, 71, 51
1, 750807, Control_c, 0, 67, 20
1, 750822, Control_c, 0, 67, 19
1, 750852, Control_c, 0, 67, 19
1, 750858, Note_off_c, 0, 69, 38
1, 750866, Note_off_c, 0, 52, 56
1, 750894, Note_off_c, 0, 49, 49
1, 750896, Control_c, 0, 67, 18
1, 751001, Note_on_c, 0, 67, 52
1, 751006, Note_off_c, 0, 71, 62
1, 751036, Control_c, 0, 67, 19
1, 751055, Note_off_c, 0, 57, 35
1, 751096, Control_c, 0, 67, 19
1, 751111, Control_c, 0, 64, 70
1, 751126, Control_c, 0, 67, 20
1, 751141, Control_c, 0, 64, 70
1, 751156, Control_c, 0, 64, 69
1, 751170, Control_c, 0, 64, 69
1, 751170, Control_c, 0, 67, 20
1, 751186, Control_c, 0, 64, 68
1, 751200, Control_c, 0, 64, 68
1, 751200, Control_c, 0, 67, 21
1, 751215, Control_c, 0, 64, 67
1, 751230, Control_c, 0, 64, 66
1, 751245, Control_c, 0, 64, 66
1, 751260, Control_c, 0, 64, 65
1, 751275, Control_c, 0, 64, 65
1, 751278, Note_on_c, 0, 66, 54
1, 751290, Control_c, 0, 64, 64
1, 751302, Note_on_c, 0, 54, 35
1, 751305, Control_c, 0, 64, 64
1, 751312, Note_on_c, 0, 50, 28
1, 751320, Control_c, 0, 64, 63
1, 751334, Control_c, 0, 64, 63
1, 751349, Control_c, 0, 64, 62
1, 751349, Control_c, 0, 67, 21
1, 751364, Control_c, 0, 64, 61
1, 751379, Control_c, 0, 64, 59
1, 751385, Note_off_c, 0, 67, 35
1, 751393, Control_c, 0, 64, 56
1, 751408, Control_c, 0, 64, 51
1, 751423, Control_c, 0, 64, 45
1, 751423, Control_c, 0, 67, 22
1, 751438, Control_c, 0, 64, 37
1, 751452, Control_c, 0, 64, 15
1, 751467, Control_c, 0, 64, 0
1, 751586, Control_c, 0, 67, 21
1, 751637, Note_off_c, 0, 50, 49
1, 751643, Note_off_c, 0, 54, 50
1, 751644, Control_c, 0, 67, 21
1, 751647, Note_on_c, 0, 67, 55
1, 751651, Note_on_c, 0, 55, 45
1, 751662, Note_on_c, 0, 52, 40
1, 751674, Note_off_c, 0, 66, 61
1, 751734, Control_c, 0, 67, 20
1, 751765, Note_on_c, 0, 69, 61
1, 751766, Note_off_c, 0, 55, 60
1, 751770, Control_c, 0, 67, 20
1, 751779, Note_on_c, 0, 54, 46
1, 751782, Note_off_c, 0, 52, 62
1, 751785, Note_on_c, 0, 57, 38
1, 751785, Note_off_c, 0, 67, 55
1, 751785, Control_c, 0, 67, 19
1, 751799, Control_c, 0, 67, 19
1, 751829, Control_c, 0, 67, 18
1, 751844, Control_c, 0, 67, 17
1, 751859, Control_c, 0, 64, 53
1, 751859, Control_c, 0, 67, 16
1, 751874, Control_c, 0, 64, 62
1, 751874, Control_c, 0, 67, 12
1, 751889, Control_c, 0, 64, 64
1, 751889, Control_c, 0, 67, 0
1, 751904, Control_c, 0, 64, 65
1, 751918, Control_c, 0, 64, 68
1, 751933, Control_c, 0, 64, 73
1, 751948, Control_c, 0, 64, 77
1, 751962, Note_off_c, 0, 54, 62
1, 751963, Control_c, 0, 64, 79
1, 751978, Control_c, 0, 64, 81
1, 751993, Control_c, 0, 64, 82
1, 752008, Control_c, 0, 64, 83
1, 752023, Control_c, 0, 64, 84
1, 752038, Control_c, 0, 64, 84
1, 752216, Control_c, 0, 64, 84
1, 752218, Note_on_c, 0, 71, 60
1, 752219, Note_off_c, 0, 57, 54
1, 752230, Control_c, 0, 64, 81
1, 752244, Note_on_c, 0, 59, 38
1, 752245, Control_c, 0, 64, 74
1, 752246, Note_on_c, 0, 55, 41
1, 752257, Note_on_c, 0, 52, 44
1, 752260, Control_c, 0, 64, 65
1, 752274, Control_c, 0, 64, 49
1, 752285, Note_off_c, 0, 69, 60
1, 752289, Control_c, 0, 64, 0
1, 752348, Control_c, 0, 64, 39
1, 752363, Control_c, 0, 64, 54
1, 752378, Control_c, 0, 64, 61
1, 752393, Control_c, 0, 64, 64
1, 752408, Control_c, 0, 64, 66
1, 752418, Note_on_c, 0, 73, 71
1, 752420, Note_off_c, 0, 59, 60
1, 752422, Control_c, 0, 64, 70
1, 752423, Note_off_c, 0, 55, 61
1, 752437, Control_c, 0, 64, 74
1, 752446, Note_off_c, 0, 52, 64
1, 752448, Note_on_c, 0, 61, 49
1, 752452, Control_c, 0, 64, 79
1, 752461, Note_off_c, 0, 71, 60
1, 752467, Control_c, 0, 64, 83
1, 752482, Control_c, 0, 64, 87
1, 752503, Control_c, 0, 64, 92
1, 752518, Control_c, 0, 64, 99
1, 752533, Control_c, 0, 64, 109
1, 752548, Control_c, 0, 64, 119
1, 752563, Control_c, 0, 64, 127
1, 752569, Note_off_c, 0, 61, 36
1, 752601, Note_off_c, 0, 73, 60
1, 752735, Note_on_c, 0, 73, 66
1, 752755, Control_c, 0, 64, 111
1, 752765, Note_on_c, 0, 55, 38
1, 752767, Note_on_c, 0, 61, 43
1, 752771, Control_c, 0, 64, 99
1, 752786, Control_c, 0, 64, 87
1, 752801, Control_c, 0, 64, 77
1, 752804, Note_on_c, 0, 50, 37
1, 752816, Control_c, 0, 64, 66
1, 752816, Note_on_c, 0, 52, 31
1, 752831, Control_c, 0, 64, 50
1, 752845, Control_c, 0, 64, 0
1, 752964, Control_c, 0, 64, 46
1, 752978, Control_c, 0, 64, 63
1, 752993, Control_c, 0, 64, 67
1, 753008, Control_c, 0, 64, 69
1, 753023, Control_c, 0, 64, 70
1, 753038, Control_c, 0, 64, 74
1, 753052, Control_c, 0, 64, 78
1, 753067, Control_c, 0, 64, 82
1, 753082, Control_c, 0, 64, 83
1, 753096, Control_c, 0, 64, 83
1, 753104, Note_off_c, 0, 61, 53
1, 753177, Note_off_c, 0, 52, 43
1, 753186, Control_c, 0, 64, 79
1, 753200, Control_c, 0, 64, 67
1, 753212, Note_off_c, 0, 55, 42
1, 753215, Control_c, 0, 64, 50
1, 753224, Note_on_c, 0, 74, 55
1, 753230, Control_c, 0, 64, 0
1, 753253, Control_c, 0, 64, 14
1, 753263, Note_on_c, 0, 62, 42
1, 753266, Note_off_c, 0, 73, 61
1, 753267, Note_on_c, 0, 54, 36
1, 753268, Control_c, 0, 64, 46
1, 753283, Control_c, 0, 64, 59
1, 753297, Control_c, 0, 64, 66
1, 753312, Control_c, 0, 64, 72
1, 753316, Note_off_c, 0, 50, 39
1, 753327, Control_c, 0, 64, 81
1, 753342, Control_c, 0, 64, 85
1, 753348, Note_off_c, 0, 54, 60
1, 753357, Control_c, 0, 64, 86
1, 753382, Note_off_c, 0, 74, 61
1, 753394, Note_off_c, 0, 62, 54
1, 753460, Control_c, 0, 64, 85
1, 753475, Control_c, 0, 64, 85
1, 753490, Control_c, 0, 64, 83
1, 753505, Control_c, 0, 64, 81
1, 753511, Note_on_c, 0, 74, 63
1, 753519, Control_c, 0, 64, 78
1, 753530, Note_on_c, 0, 62, 52
1, 753534, Control_c, 0, 64, 76
1, 753549, Control_c, 0, 64, 74
1, 753565, Control_c, 0, 64, 72
1, 753580, Control_c, 0, 64, 71
1, 753594, Control_c, 0, 64, 69
1, 753609, Control_c, 0, 64, 68
1, 753624, Control_c, 0, 64, 66
1, 753639, Control_c, 0, 64, 63
1, 753654, Control_c, 0, 64, 61
1, 753668, Control_c, 0, 64, 57
1, 753683, Control_c, 0, 64, 54
1, 753698, Control_c, 0, 64, 48
1, 753713, Control_c, 0, 64, 38
1, 753728, Control_c, 0, 64, 0
1, 753746, Note_on_c, 0, 78, 73
1, 753776, Note_off_c, 0, 62, 36
1, 753784, Note_on_c, 0, 66, 42
1, 753844, Note_off_c, 0, 74, 55
1, 753948, Note_on_c, 0, 81, 80
1, 753950, Control_c, 0, 64, 40
1, 753965, Control_c, 0, 64, 58
1, 753976, Note_on_c, 0, 69, 51
1, 753980, Control_c, 0, 64, 64
1, 754001, Control_c, 0, 64, 67
1, 754016, Control_c, 0, 64, 71
1, 754017, Note_off_c, 0, 78, 60
1, 754031, Control_c, 0, 64, 77
1, 754045, Control_c, 0, 64, 84
1, 754050, Note_off_c, 0, 66, 35
1, 754060, Control_c, 0, 64, 91
1, 754075, Control_c, 0, 64, 95
1, 754090, Control_c, 0, 64, 97
1, 754105, Control_c, 0, 64, 98
1, 754119, Control_c, 0, 64, 98
1, 754134, Control_c, 0, 64, 99
1, 754268, Control_c, 0, 64, 98
1, 754276, Note_on_c, 0, 78, 75
1, 754283, Control_c, 0, 64, 98
1, 754297, Control_c, 0, 64, 96
1, 754312, Control_c, 0, 64, 92
1, 754324, Note_on_c, 0, 66, 42
1, 754327, Control_c, 0, 64, 86
1, 754333, Note_on_c, 0, 57, 32
1, 754340, Note_on_c, 0, 55, 36
1, 754342, Control_c, 0, 64, 81
1, 754350, Note_off_c, 0, 81, 58
1, 754357, Control_c, 0, 64, 77
1, 754372, Control_c, 0, 64, 74
1, 754387, Control_c, 0, 64, 71
1, 754402, Control_c, 0, 64, 68
1, 754410, Note_off_c, 0, 69, 62
1, 754417, Control_c, 0, 64, 65
1, 754432, Control_c, 0, 64, 60
1, 754447, Control_c, 0, 64, 39
1, 754461, Control_c, 0, 64, 0
1, 754565, Control_c, 0, 64, 54
1, 754580, Control_c, 0, 64, 64
1, 754595, Control_c, 0, 64, 67
1, 754609, Control_c, 0, 64, 73
1, 754624, Control_c, 0, 64, 84
1, 754639, Control_c, 0, 64, 99
1, 754654, Control_c, 0, 64, 127
1, 754819, Note_off_c, 0, 66, 63
1, 754917, Note_off_c, 0, 78, 62
1, 755176, Note_on_c, 0, 76, 53
1, 755195, Note_on_c, 0, 64, 41
1, 755284, Control_c, 0, 64, 108
1, 755299, Control_c, 0, 64, 97
1, 755314, Control_c, 0, 64, 91
1, 755329, Control_c, 0, 64, 85
1, 755344, Control_c, 0, 64, 78
1, 755358, Control_c, 0, 64, 71
1, 755373, Control_c, 0, 64, 62
1, 755388, Control_c, 0, 64, 0
1, 755415, Note_on_c, 0, 71, 57
1, 755441, Note_on_c, 0, 59, 33
1, 755462, Control_c, 0, 64, 38
1, 755477, Control_c, 0, 64, 56
1, 755499, Control_c, 0, 64, 64
1, 755500, Note_off_c, 0, 76, 62
1, 755514, Control_c, 0, 64, 67
1, 755529, Control_c, 0, 64, 69
1, 755543, Control_c, 0, 64, 72
1, 755555, Note_off_c, 0, 64, 33
1, 755558, Control_c, 0, 64, 76
1, 755573, Control_c, 0, 64, 80
1, 755588, Control_c, 0, 64, 83
1, 755592, Note_off_c, 0, 57, 29
1, 755603, Control_c, 0, 64, 87
1, 755611, Note_on_c, 0, 73, 66
1, 755617, Control_c, 0, 64, 89
1, 755621, Note_on_c, 0, 61, 49
1, 755632, Control_c, 0, 64, 92
1, 755647, Control_c, 0, 64, 93
1, 755659, Note_off_c, 0, 55, 40
1, 755662, Control_c, 0, 64, 95
1, 755677, Control_c, 0, 64, 96
1, 755685, Note_off_c, 0, 59, 42
1, 755691, Control_c, 0, 64, 98
1, 755698, Note_off_c, 0, 71, 53
1, 755706, Control_c, 0, 64, 99
1, 755721, Control_c, 0, 64, 99
1, 755809, Note_off_c, 0, 61, 36
1, 755869, Control_c, 0, 64, 98
1, 755884, Control_c, 0, 64, 95
1, 755898, Control_c, 0, 64, 91
1, 755913, Control_c, 0, 64, 88
1, 755928, Control_c, 0, 64, 85
1, 755943, Control_c, 0, 64, 81
1, 755946, Note_on_c, 0, 76, 58
1, 755959, Control_c, 0, 64, 78
1, 755974, Control_c, 0, 64, 74
1, 755988, Control_c, 0, 64, 71
1, 755994, Note_on_c, 0, 64, 33
1, 756003, Note_on_c, 0, 57, 32
1, 756003, Control_c, 0, 64, 68
1, 756007, Note_on_c, 0, 54, 31
1, 756018, Control_c, 0, 64, 65
1, 756018, Control_c, 0, 67, 8
1, 756032, Control_c, 0, 64, 61
1, 756032, Control_c, 0, 67, 10
1, 756041, Note_off_c, 0, 73, 50
1, 756047, Control_c, 0, 64, 53
1, 756047, Control_c, 0, 67, 11
1, 756062, Control_c, 0, 64, 34
1, 756062, Control_c, 0, 67, 13
1, 756077, Control_c, 0, 64, 0
1, 756077, Control_c, 0, 67, 15
1, 756092, Control_c, 0, 67, 17
1, 756107, Control_c, 0, 67, 19
1, 756122, Control_c, 0, 67, 21
1, 756137, Control_c, 0, 67, 23
1, 756152, Control_c, 0, 67, 25
1, 756166, Control_c, 0, 67, 27
1, 756181, Control_c, 0, 67, 28
1, 756196, Control_c, 0, 67, 30
1, 756211, Control_c, 0, 67, 31
1, 756226, Control_c, 0, 67, 33
1, 756248, Control_c, 0, 67, 35
1, 756263, Control_c, 0, 67, 37
1, 756278, Control_c, 0, 67, 39
1, 756293, Control_c, 0, 67, 42
1, 756308, Control_c, 0, 67, 43
1, 756322, Control_c, 0, 67, 45
1, 756337, Control_c, 0, 64, 29
1, 756337, Control_c, 0, 67, 47
1, 756352, Control_c, 0, 64, 43
1, 756352, Control_c, 0, 67, 48
1, 756367, Control_c, 0, 64, 49
1, 756367, Control_c, 0, 67, 50
1, 756382, Control_c, 0, 64, 52
1, 756382, Control_c, 0, 67, 51
1, 756396, Control_c, 0, 64, 53
1, 756396, Control_c, 0, 67, 52
1, 756411, Control_c, 0, 64, 55
1, 756411, Control_c, 0, 67, 54
1, 756426, Control_c, 0, 64, 57
1, 756426, Control_c, 0, 67, 55
1, 756441, Control_c, 0, 64, 60
1, 756441, Control_c, 0, 67, 56
1, 756456, Control_c, 0, 64, 62
1, 756456, Control_c, 0, 67, 57
1, 756471, Control_c, 0, 64, 63
1, 756471, Control_c, 0, 67, 58
1, 756485, Control_c, 0, 64, 63
1, 756485, Control_c, 0, 67, 60
1, 756500, Control_c, 0, 64, 64
1, 756500, Control_c, 0, 67, 61
1, 756515, Control_c, 0, 64, 64
1, 756515, Control_c, 0, 67, 64
1, 756530, Control_c, 0, 67, 66
1, 756545, Control_c, 0, 64, 65
1, 756545, Control_c, 0, 67, 68
1, 756560, Control_c, 0, 67, 70
1, 756575, Control_c, 0, 64, 65
1, 756575, Control_c, 0, 67, 73
1, 756589, Control_c, 0, 64, 66
1, 756589, Control_c, 0, 67, 77
1, 756604, Control_c, 0, 67, 80
1, 756619, Control_c, 0, 67, 81
1, 756634, Control_c, 0, 67, 83
1, 756663, Control_c, 0, 67, 83
1, 756756, Note_off_c, 0, 76, 62
1, 756780, Note_off_c, 0, 57, 41
1, 756787, Note_on_c, 0, 74, 46
1, 756806, Note_on_c, 0, 62, 43
1, 756812, Control_c, 0, 67, 83
1, 756827, Control_c, 0, 64, 65
1, 756842, Note_off_c, 0, 54, 55
1, 756857, Control_c, 0, 67, 82
1, 756871, Control_c, 0, 67, 82
1, 756901, Control_c, 0, 64, 65
1, 756945, Control_c, 0, 64, 64
1, 757013, Control_c, 0, 64, 64
1, 757013, Control_c, 0, 67, 82
1, 757042, Control_c, 0, 64, 63
1, 757042, Control_c, 0, 67, 83
1, 757052, Note_on_c, 0, 66, 54
1, 757057, Control_c, 0, 64, 60
1, 757063, Note_off_c, 0, 64, 42
1, 757069, Note_off_c, 0, 74, 62
1, 757071, Control_c, 0, 64, 45
1, 757071, Control_c, 0, 67, 83
1, 757074, Note_on_c, 0, 54, 32
1, 757086, Control_c, 0, 64, 0
1, 757086, Control_c, 0, 67, 84
1, 757091, Note_on_c, 0, 50, 40
1, 757100, Note_off_c, 0, 62, 42
1, 757116, Control_c, 0, 67, 85
1, 757131, Control_c, 0, 67, 85
1, 757145, Control_c, 0, 67, 88
1, 757160, Control_c, 0, 67, 93
1, 757175, Control_c, 0, 64, 28
1, 757175, Control_c, 0, 67, 98
1, 757189, Control_c, 0, 64, 58
1, 757189, Control_c, 0, 67, 103
1, 757204, Control_c, 0, 64, 64
1, 757204, Control_c, 0, 67, 106
1, 757219, Control_c, 0, 64, 66
1, 757219, Control_c, 0, 67, 108
1, 757234, Control_c, 0, 64, 67
1, 757234, Control_c, 0, 67, 111
1, 757249, Control_c, 0, 64, 68
1, 757249, Control_c, 0, 67, 114
1, 757263, Control_c, 0, 64, 69
1, 757263, Control_c, 0, 67, 117
1, 757278, Control_c, 0, 64, 70
1, 757278, Control_c, 0, 67, 120
1, 757293, Control_c, 0, 67, 123
1, 757308, Control_c, 0, 67, 125
1, 757323, Control_c, 0, 64, 71
1, 757323, Control_c, 0, 67, 127
1, 757362, Note_off_c, 0, 50, 40
1, 757392, Note_off_c, 0, 54, 40
1, 757407, Note_on_c, 0, 67, 52
1, 757410, Note_on_c, 0, 52, 44
1, 757416, Note_on_c, 0, 55, 35
1, 757427, Control_c, 0, 64, 70
1, 757445, Note_off_c, 0, 66, 54
1, 757448, Note_off_c, 0, 55, 46
1, 757471, Control_c, 0, 64, 70
1, 757486, Control_c, 0, 64, 69
1, 757501, Control_c, 0, 64, 69
1, 757502, Note_off_c, 0, 52, 65
1, 757516, Control_c, 0, 64, 67
1, 757530, Control_c, 0, 64, 64
1, 757544, Note_on_c, 0, 69, 57
1, 757545, Control_c, 0, 64, 55
1, 757561, Control_c, 0, 64, 0
1, 757565, Note_on_c, 0, 45, 39
1, 757569, Note_off_c, 0, 67, 55
1, 757570, Note_on_c, 0, 54, 39
1, 757592, Note_on_c, 0, 57, 25
1, 757618, Note_off_c, 0, 45, 0
1, 757618, Note_on_c, 0, 45, 3
1, 757665, Control_c, 0, 64, 24
1, 757680, Control_c, 0, 64, 49
1, 757694, Control_c, 0, 64, 56
1, 757706, Note_off_c, 0, 69, 61
1, 757709, Control_c, 0, 64, 57
1, 757714, Note_off_c, 0, 54, 61
1, 757723, Note_off_c, 0, 57, 50
1, 757752, Note_off_c, 0, 45, 56
1, 757806, Control_c, 0, 64, 56
1, 757820, Control_c, 0, 64, 56
1, 757835, Control_c, 0, 64, 55
1, 757850, Control_c, 0, 64, 55
1, 757865, Control_c, 0, 64, 54
1, 757880, Control_c, 0, 64, 53
1, 757909, Control_c, 0, 64, 52
1, 757968, Control_c, 0, 64, 51
1, 757983, Control_c, 0, 64, 47
1, 757998, Control_c, 0, 64, 27
1, 758012, Control_c, 0, 64, 0
1, 758030, Note_on_c, 0, 67, 43
1, 758038, Note_on_c, 0, 55, 25
1, 758047, Note_on_c, 0, 45, 25
1, 758054, Note_on_c, 0, 52, 23
1, 758086, Control_c, 0, 64, 40
1, 758101, Control_c, 0, 64, 63
1, 758116, Control_c, 0, 64, 71
1, 758131, Control_c, 0, 64, 72
1, 758146, Control_c, 0, 64, 70
1, 758161, Control_c, 0, 64, 64
1, 758176, Control_c, 0, 64, 54
1, 758191, Control_c, 0, 64, 29
1, 758205, Control_c, 0, 64, 0
1, 758222, Note_off_c, 0, 55, 42
1, 758229, Note_off_c, 0, 67, 59
1, 758235, Control_c, 0, 64, 17
1, 758244, Note_off_c, 0, 45, 40
1, 758250, Control_c, 0, 64, 24
1, 758253, Note_off_c, 0, 52, 49
1, 758265, Control_c, 0, 64, 26
1, 758369, Control_c, 0, 64, 25
1, 758428, Control_c, 0, 64, 24
1, 758443, Control_c, 0, 64, 23
1, 758458, Control_c, 0, 64, 22
1, 758473, Control_c, 0, 64, 21
1, 758554, Control_c, 0, 64, 23
1, 758563, Note_on_c, 0, 49, 18
1, 758563, Note_on_c, 0, 64, 33
1, 758568, Note_on_c, 0, 52, 27
1, 758569, Control_c, 0, 64, 23
1, 758583, Note_on_c, 0, 45, 27
1, 758598, Control_c, 0, 64, 24
1, 758723, Note_off_c, 0, 45, 48
1, 758733, Note_off_c, 0, 52, 45
1, 758749, Note_off_c, 0, 49, 52
1, 758751, Note_off_c, 0, 64, 43
1, 758849, Control_c, 0, 64, 25
1, 758879, Control_c, 0, 67, 120
1, 758894, Control_c, 0, 67, 110
1, 758909, Control_c, 0, 67, 97
1, 758924, Control_c, 0, 67, 88
1, 758939, Control_c, 0, 67, 80
1, 758954, Control_c, 0, 67, 73
1, 758968, Control_c, 0, 67, 66
1, 758983, Control_c, 0, 67, 59
1, 758998, Control_c, 0, 67, 53
1, 759013, Control_c, 0, 67, 46
1, 759027, Control_c, 0, 67, 40
1, 759042, Control_c, 0, 67, 34
1, 759057, Control_c, 0, 67, 27
1, 759072, Control_c, 0, 64, 28
1, 759072, Control_c, 0, 67, 20
1, 759087, Control_c, 0, 64, 33
1, 759087, Control_c, 0, 67, 13
1, 759101, Control_c, 0, 64, 37
1, 759101, Control_c, 0, 67, 0
1, 759116, Control_c, 0, 64, 45
1, 759131, Control_c, 0, 64, 51
1, 759146, Control_c, 0, 64, 57
1, 759162, Control_c, 0, 64, 60
1, 759177, Control_c, 0, 64, 61
1, 759192, Control_c, 0, 64, 63
1, 759206, Control_c, 0, 64, 64
1, 759221, Control_c, 0, 64, 66
1, 759243, Control_c, 0, 64, 68
1, 759258, Control_c, 0, 64, 71
1, 759269, Note_on_c, 0, 74, 73
1, 759273, Control_c, 0, 64, 73
1, 759287, Control_c, 0, 64, 76
1, 759302, Control_c, 0, 64, 80
1, 759303, Note_on_c, 0, 62, 49
1, 759317, Control_c, 0, 64, 85
1, 759329, Note_on_c, 0, 54, 38
1, 759332, Control_c, 0, 64, 92
1, 759347, Control_c, 0, 64, 99
1, 759353, Note_on_c, 0, 50, 41
1, 759362, Control_c, 0, 64, 114
1, 759377, Control_c, 0, 64, 127
1, 760170, Control_c, 0, 67, 10
1, 760177, Note_off_c, 0, 54, 40
1, 760179, Note_on_c, 0, 73, 60
1, 760185, Control_c, 0, 67, 14
1, 760195, Note_on_c, 0, 61, 42
1, 760200, Control_c, 0, 67, 19
1, 760208, Note_on_c, 0, 52, 42
1, 760209, Note_off_c, 0, 74, 59
1, 760215, Control_c, 0, 67, 24
1, 760229, Control_c, 0, 67, 27
1, 760244, Control_c, 0, 67, 30
1, 760259, Note_off_c, 0, 62, 55
1, 760259, Control_c, 0, 67, 33
1, 760274, Control_c, 0, 67, 35
1, 760289, Control_c, 0, 67, 36
1, 760304, Control_c, 0, 67, 38
1, 760319, Control_c, 0, 67, 40
1, 760334, Control_c, 0, 67, 42
1, 760349, Control_c, 0, 67, 44
1, 760363, Control_c, 0, 67, 46
1, 760378, Control_c, 0, 67, 47
1, 760387, Note_off_c, 0, 61, 51
1, 760393, Control_c, 0, 67, 47
1, 760407, Control_c, 0, 67, 48
1, 760411, Note_on_c, 0, 74, 69
1, 760422, Control_c, 0, 67, 48
1, 760433, Note_on_c, 0, 62, 51
1, 760434, Note_on_c, 0, 54, 47
1, 760437, Control_c, 0, 67, 49
1, 760442, Note_off_c, 0, 73, 37
1, 760452, Control_c, 0, 64, 102
1, 760452, Control_c, 0, 67, 49
1, 760467, Control_c, 0, 64, 89
1, 760467, Control_c, 0, 67, 50
1, 760481, Control_c, 0, 64, 80
1, 760496, Control_c, 0, 64, 72
1, 760501, Note_off_c, 0, 52, 37
1, 760511, Control_c, 0, 64, 64
1, 760511, Control_c, 0, 67, 50
1, 760526, Control_c, 0, 64, 43
1, 760539, Note_off_c, 0, 50, 34
1, 760541, Control_c, 0, 64, 0
1, 760541, Control_c, 0, 67, 51
1, 760555, Control_c, 0, 67, 52
1, 760570, Control_c, 0, 67, 54
1, 760585, Control_c, 0, 67, 55
1, 760600, Control_c, 0, 67, 56
1, 760614, Control_c, 0, 67, 57
1, 760629, Note_on_c, 0, 71, 67
1, 760629, Control_c, 0, 67, 58
1, 760644, Control_c, 0, 64, 57
1, 760644, Control_c, 0, 67, 60
1, 760645, Note_on_c, 0, 55, 39
1, 760645, Note_on_c, 0, 59, 42
1, 760659, Note_off_c, 0, 54, 61
1, 760659, Control_c, 0, 64, 66
1, 760659, Control_c, 0, 67, 63
1, 760674, Control_c, 0, 64, 69
1, 760674, Control_c, 0, 67, 65
1, 760677, Note_off_c, 0, 55, 63
1, 760689, Control_c, 0, 64, 73
1, 760689, Control_c, 0, 67, 67
1, 760694, Note_off_c, 0, 74, 41
1, 760703, Control_c, 0, 64, 78
1, 760703, Control_c, 0, 67, 69
1, 760718, Control_c, 0, 64, 82
1, 760718, Control_c, 0, 67, 71
1, 760740, Control_c, 0, 64, 83
1, 760740, Control_c, 0, 67, 73
1, 760754, Note_off_c, 0, 59, 53
1, 760757, Control_c, 0, 67, 74
1, 760758, Note_off_c, 0, 62, 33
1, 760772, Control_c, 0, 67, 76
1, 760786, Control_c, 0, 67, 78
1, 760801, Control_c, 0, 67, 80
1, 760816, Control_c, 0, 67, 82
1, 760830, Control_c, 0, 64, 82
1, 760830, Control_c, 0, 67, 83
1, 760845, Control_c, 0, 64, 78
1, 760845, Control_c, 0, 67, 84
1, 760860, Control_c, 0, 64, 73
1, 760875, Control_c, 0, 64, 68
1, 760877, Note_on_c, 0, 69, 61
1, 760890, Control_c, 0, 64, 62
1, 760894, Note_on_c, 0, 54, 36
1, 760904, Control_c, 0, 64, 42
1, 760908, Note_on_c, 0, 57, 38
1, 760915, Note_on_c, 0, 45, 44
1, 760919, Control_c, 0, 64, 0
1, 760934, Control_c, 0, 67, 83
1, 760949, Control_c, 0, 67, 83
1, 760964, Control_c, 0, 67, 82
1, 760978, Control_c, 0, 67, 82
1, 761002, Note_off_c, 0, 71, 34
1, 761023, Control_c, 0, 67, 81
1, 761037, Control_c, 0, 67, 80
1, 761052, Note_off_c, 0, 54, 58
1, 761052, Control_c, 0, 67, 80
1, 761055, Note_off_c, 0, 57, 48
1, 761057, Note_off_c, 0, 69, 62
1, 761067, Control_c, 0, 67, 79
1, 761077, Note_off_c, 0, 45, 61
1, 761082, Control_c, 0, 67, 79
1, 761142, Control_c, 0, 67, 78
1, 761156, Control_c, 0, 67, 78
1, 761216, Control_c, 0, 67, 77
1, 761334, Control_c, 0, 67, 77
1, 761349, Control_c, 0, 67, 76
1, 761359, Note_on_c, 0, 67, 52
1, 761363, Control_c, 0, 67, 76
1, 761378, Control_c, 0, 67, 75
1, 761381, Note_on_c, 0, 52, 37
1, 761384, Note_on_c, 0, 55, 25
1, 761392, Note_on_c, 0, 45, 33
1, 761393, Control_c, 0, 67, 74
1, 761408, Control_c, 0, 64, 53
1, 761408, Control_c, 0, 67, 74
1, 761423, Control_c, 0, 64, 67
1, 761423, Control_c, 0, 67, 73
1, 761437, Control_c, 0, 64, 72
1, 761452, Control_c, 0, 64, 77
1, 761467, Control_c, 0, 64, 87
1, 761490, Control_c, 0, 64, 99
1, 761519, Control_c, 0, 64, 94
1, 761534, Control_c, 0, 64, 75
1, 761534, Control_c, 0, 67, 74
1, 761549, Control_c, 0, 64, 57
1, 761549, Control_c, 0, 67, 74
1, 761552, Note_off_c, 0, 55, 42
1, 761565, Note_off_c, 0, 45, 48
1, 761565, Control_c, 0, 64, 0
1, 761565, Control_c, 0, 67, 75
1, 761585, Note_off_c, 0, 52, 44
1, 761586, Note_off_c, 0, 67, 54
1, 761609, Control_c, 0, 67, 75
1, 761639, Control_c, 0, 67, 76
1, 761683, Control_c, 0, 67, 76
1, 761894, Note_on_c, 0, 64, 47
1, 761904, Note_on_c, 0, 49, 28
1, 761905, Note_on_c, 0, 52, 35
1, 761920, Note_on_c, 0, 45, 29
1, 761949, Control_c, 0, 67, 76
1, 761964, Control_c, 0, 67, 75
1, 761979, Control_c, 0, 67, 74
1, 761994, Control_c, 0, 67, 73
1, 762009, Control_c, 0, 64, 54
1, 762009, Control_c, 0, 67, 71
1, 762024, Control_c, 0, 64, 64
1, 762024, Control_c, 0, 67, 69
1, 762039, Control_c, 0, 64, 66
1, 762039, Control_c, 0, 67, 60
1, 762053, Control_c, 0, 64, 68
1, 762053, Control_c, 0, 67, 50
1, 762068, Control_c, 0, 64, 69
1, 762068, Control_c, 0, 67, 42
1, 762078, Note_off_c, 0, 64, 56
1, 762083, Control_c, 0, 64, 71
1, 762083, Control_c, 0, 67, 33
1, 762092, Note_off_c, 0, 52, 52
1, 762098, Control_c, 0, 64, 72
1, 762098, Control_c, 0, 67, 24
1, 762104, Note_off_c, 0, 45, 48
1, 762113, Control_c, 0, 64, 72
1, 762113, Control_c, 0, 67, 15
1, 762127, Control_c, 0, 67, 0
1, 762141, Note_off_c, 0, 49, 53
1, 762142, Control_c, 0, 64, 72
1, 762172, Control_c, 0, 64, 70
1, 762186, Control_c, 0, 64, 65
1, 762201, Control_c, 0, 64, 57
1, 762216, Control_c, 0, 64, 0
1, 762446, Control_c, 0, 64, 33
1, 762461, Control_c, 0, 64, 49
1, 762476, Control_c, 0, 64, 59
1, 762490, Control_c, 0, 64, 64
1, 762505, Control_c, 0, 64, 66
1, 762520, Control_c, 0, 64, 69
1, 762535, Control_c, 0, 64, 74
1, 762550, Control_c, 0, 64, 78
1, 762564, Control_c, 0, 64, 82
1, 762579, Control_c, 0, 64, 86
1, 762594, Control_c, 0, 64, 92
1, 762608, Control_c, 0, 64, 103
1, 762623, Control_c, 0, 64, 127
1, 762662, Note_on_c, 0, 78, 65
1, 762701, Note_on_c, 0, 66, 40
1, 762730, Note_on_c, 0, 57, 29
1, 762731, Note_on_c, 0, 62, 34
1, 762741, Note_on_c, 0, 50, 23
1, 763195, Note_off_c, 0, 50, 39
1, 763252, Note_off_c, 0, 62, 38
1, 763339, Note_off_c, 0, 57, 40
1, 763550, Control_c, 0, 67, 8
1, 763565, Control_c, 0, 67, 11
1, 763580, Control_c, 0, 67, 13
1, 763595, Control_c, 0, 67, 16
1, 763610, Control_c, 0, 67, 18
1, 763625, Control_c, 0, 67, 20
1, 763640, Control_c, 0, 67, 22
1, 763655, Control_c, 0, 67, 25
1, 763669, Control_c, 0, 67, 27
1, 763684, Control_c, 0, 67, 28
1, 763699, Control_c, 0, 67, 29
1, 763714, Control_c, 0, 64, 84
1, 763714, Control_c, 0, 67, 30
1, 763735, Note_on_c, 0, 76, 57
1, 763736, Control_c, 0, 64, 69
1, 763749, Note_on_c, 0, 58, 35
1, 763750, Note_on_c, 0, 64, 29
1, 763750, Control_c, 0, 64, 60
1, 763750, Control_c, 0, 67, 31
1, 763765, Control_c, 0, 64, 48
1, 763768, Note_on_c, 0, 54, 32
1, 763780, Control_c, 0, 64, 51
1, 763780, Control_c, 0, 67, 32
1, 763795, Control_c, 0, 64, 58
1, 763795, Control_c, 0, 67, 33
1, 763800, Note_off_c, 0, 78, 62
1, 763810, Control_c, 0, 64, 63
1, 763810, Control_c, 0, 67, 34
1, 763824, Control_c, 0, 64, 66
1, 763824, Control_c, 0, 67, 34
1, 763839, Control_c, 0, 64, 70
1, 763839, Control_c, 0, 67, 35
1, 763854, Control_c, 0, 64, 75
1, 763854, Control_c, 0, 67, 36
1, 763869, Control_c, 0, 64, 78
1, 763869, Control_c, 0, 67, 37
1, 763881, Note_off_c, 0, 64, 38
1, 763884, Control_c, 0, 64, 79
1, 763899, Control_c, 0, 64, 79
1, 763899, Control_c, 0, 67, 37
1, 763914, Control_c, 0, 67, 38
1, 763929, Control_c, 0, 67, 39
1, 763944, Control_c, 0, 67, 40
1, 763959, Control_c, 0, 67, 41
1, 763965, Note_off_c, 0, 54, 54
1, 763973, Note_off_c, 0, 66, 40
1, 763973, Control_c, 0, 64, 78
1, 763973, Control_c, 0, 67, 43
1, 763988, Control_c, 0, 64, 71
1, 763988, Control_c, 0, 67, 45
1, 763994, Note_off_c, 0, 58, 36
1, 763999, Note_on_c, 0, 74, 59
1, 764003, Control_c, 0, 64, 60
1, 764003, Control_c, 0, 67, 46
1, 764018, Control_c, 0, 64, 0
1, 764018, Control_c, 0, 67, 48
1, 764026, Note_on_c, 0, 59, 36
1, 764033, Note_on_c, 0, 55, 39
1, 764033, Control_c, 0, 67, 48
1, 764041, Note_on_c, 0, 62, 36
1, 764063, Control_c, 0, 64, 43
1, 764063, Control_c, 0, 67, 49
1, 764074, Note_off_c, 0, 76, 44
1, 764078, Control_c, 0, 64, 59
1, 764093, Control_c, 0, 64, 66
1, 764108, Control_c, 0, 64, 70
1, 764123, Control_c, 0, 64, 73
1, 764123, Control_c, 0, 67, 49
1, 764135, Note_off_c, 0, 62, 42
1, 764137, Control_c, 0, 64, 75
1, 764152, Control_c, 0, 64, 76
1, 764152, Control_c, 0, 67, 50
1, 764167, Control_c, 0, 67, 52
1, 764181, Control_c, 0, 64, 72
1, 764181, Control_c, 0, 67, 54
1, 764196, Control_c, 0, 64, 59
1, 764196, Control_c, 0, 67, 56
1, 764211, Control_c, 0, 64, 0
1, 764211, Control_c, 0, 67, 59
1, 764226, Control_c, 0, 67, 63
1, 764235, Note_on_c, 0, 71, 63
1, 764241, Control_c, 0, 67, 67
1, 764244, Note_off_c, 0, 59, 42
1, 764244, Note_off_c, 0, 55, 36
1, 764254, Note_on_c, 0, 65, 47
1, 764255, Note_on_c, 0, 62, 40
1, 764255, Control_c, 0, 67, 71
1, 764258, Note_on_c, 0, 56, 46
1, 764270, Control_c, 0, 64, 57
1, 764270, Control_c, 0, 67, 73
1, 764274, Note_off_c, 0, 74, 49
1, 764285, Control_c, 0, 64, 69
1, 764285, Control_c, 0, 67, 76
1, 764300, Control_c, 0, 64, 76
1, 764300, Control_c, 0, 67, 79
1, 764315, Control_c, 0, 64, 79
1, 764315, Control_c, 0, 67, 84
1, 764321, Note_off_c, 0, 71, 62
1, 764329, Control_c, 0, 64, 80
1, 764329, Control_c, 0, 67, 89
1, 764344, Control_c, 0, 67, 94
1, 764359, Control_c, 0, 67, 100
1, 764370, Note_off_c, 0, 62, 43
1, 764373, Control_c, 0, 67, 105
1, 764388, Control_c, 0, 67, 109
1, 764403, Control_c, 0, 67, 114
1, 764418, Control_c, 0, 64, 79
1, 764418, Control_c, 0, 67, 119
1, 764433, Control_c, 0, 64, 76
1, 764433, Control_c, 0, 67, 126
1, 764436, Note_off_c, 0, 56, 38
1, 764447, Control_c, 0, 64, 73
1, 764447, Control_c, 0, 67, 127
1, 764462, Control_c, 0, 64, 70
1, 764485, Control_c, 0, 64, 67
1, 764500, Control_c, 0, 64, 64
1, 764515, Control_c, 0, 64, 62
1, 764529, Control_c, 0, 64, 57
1, 764544, Control_c, 0, 64, 39
1, 764557, Note_off_c, 0, 65, 37
1, 764559, Control_c, 0, 64, 0
1, 764563, Note_on_c, 0, 69, 59
1, 764582, Note_on_c, 0, 66, 39
1, 764586, Note_on_c, 0, 62, 35
1, 764593, Note_on_c, 0, 57, 37
1, 764677, Control_c, 0, 64, 32
1, 764692, Control_c, 0, 64, 58
1, 764695, Note_off_c, 0, 62, 46
1, 764707, Control_c, 0, 64, 65
1, 764722, Control_c, 0, 64, 68
1, 764722, Note_off_c, 0, 57, 61
1, 764737, Control_c, 0, 64, 72
1, 764752, Control_c, 0, 64, 75
1, 764754, Note_off_c, 0, 69, 61
1, 764767, Control_c, 0, 64, 78
1, 764773, Note_off_c, 0, 66, 36
1, 764782, Control_c, 0, 64, 79
1, 764856, Control_c, 0, 64, 78
1, 764871, Control_c, 0, 64, 76
1, 764886, Control_c, 0, 64, 73
1, 764901, Control_c, 0, 64, 68
1, 764915, Control_c, 0, 64, 65
1, 764930, Control_c, 0, 64, 61
1, 764945, Control_c, 0, 64, 58
1, 764960, Control_c, 0, 64, 53
1, 764975, Control_c, 0, 64, 47
1, 764990, Control_c, 0, 64, 36
1, 765004, Control_c, 0, 64, 0
1, 765088, Note_on_c, 0, 57, 34
1, 765088, Note_on_c, 0, 67, 43
1, 765102, Note_on_c, 0, 45, 34
1, 765103, Note_on_c, 0, 64, 38
1, 765167, Control_c, 0, 64, 46
1, 765182, Control_c, 0, 64, 62
1, 765196, Control_c, 0, 64, 66
1, 765211, Control_c, 0, 64, 67
1, 765234, Control_c, 0, 64, 70
1, 765247, Control_c, 0, 64, 75
1, 765256, Note_off_c, 0, 67, 61
1, 765262, Control_c, 0, 64, 79
1, 765276, Control_c, 0, 64, 79
1, 765302, Note_off_c, 0, 64, 40
1, 765303, Note_off_c, 0, 57, 33
1, 765330, Note_off_c, 0, 45, 42
1, 765410, Control_c, 0, 64, 79
1, 765425, Control_c, 0, 64, 77
1, 765440, Control_c, 0, 64, 73
1, 765455, Control_c, 0, 64, 69
1, 765470, Control_c, 0, 64, 66
1, 765484, Control_c, 0, 64, 62
1, 765499, Control_c, 0, 64, 58
1, 765514, Control_c, 0, 64, 53
1, 765528, Control_c, 0, 64, 46
1, 765544, Control_c, 0, 64, 38
1, 765559, Control_c, 0, 64, 23
1, 765574, Control_c, 0, 64, 0
1, 765673, Note_on_c, 0, 64, 34
1, 765677, Note_on_c, 0, 61, 31
1, 765685, Note_on_c, 0, 55, 27
1, 765685, Note_on_c, 0, 45, 32
1, 765751, Control_c, 0, 64, 24
1, 765766, Control_c, 0, 64, 53
1, 765781, Control_c, 0, 64, 60
1, 765796, Control_c, 0, 64, 63
1, 765811, Control_c, 0, 64, 66
1, 765825, Control_c, 0, 64, 71
1, 765840, Control_c, 0, 64, 78
1, 765855, Control_c, 0, 64, 84
1, 765870, Control_c, 0, 64, 88
1, 765885, Control_c, 0, 64, 90
1, 765899, Control_c, 0, 64, 91
1, 765905, Note_off_c, 0, 45, 41
1, 765922, Note_off_c, 0, 61, 36
1, 765932, Note_off_c, 0, 64, 42
1, 765974, Note_off_c, 0, 55, 41
1, 766025, Control_c, 0, 64, 89
1, 766040, Control_c, 0, 64, 84
1, 766055, Control_c, 0, 64, 77
1, 766070, Control_c, 0, 64, 69
1, 766085, Control_c, 0, 64, 62
1, 766099, Control_c, 0, 64, 43
1, 766114, Control_c, 0, 64, 0
1, 766409, Note_on_c, 0, 62, 37
1, 766447, Note_on_c, 0, 54, 27
1, 766453, Note_on_c, 0, 50, 20
1, 766515, Control_c, 0, 64, 27
1, 766530, Control_c, 0, 64, 44
1, 766545, Control_c, 0, 64, 51
1, 766560, Control_c, 0, 64, 54
1, 766574, Control_c, 0, 64, 57
1, 766589, Control_c, 0, 64, 59
1, 766604, Control_c, 0, 64, 61
1, 766619, Control_c, 0, 64, 63
1, 766634, Control_c, 0, 64, 65
1, 766648, Control_c, 0, 64, 67
1, 766663, Control_c, 0, 64, 69
1, 766678, Control_c, 0, 64, 71
1, 766693, Control_c, 0, 64, 73
1, 766708, Control_c, 0, 64, 76
1, 766731, Control_c, 0, 64, 80
1, 766746, Control_c, 0, 64, 86
1, 766761, Control_c, 0, 64, 93
1, 766775, Control_c, 0, 64, 105
1, 766790, Control_c, 0, 64, 127
1, 767148, Note_off_c, 0, 62, 40
1, 767173, Note_off_c, 0, 50, 40
1, 767254, Note_off_c, 0, 54, 35
1, 767568, Control_c, 0, 64, 106
1, 767583, Control_c, 0, 64, 94
1, 767598, Control_c, 0, 64, 85
1, 767613, Control_c, 0, 64, 80
1, 767628, Control_c, 0, 64, 75
1, 767643, Control_c, 0, 64, 70
1, 767658, Control_c, 0, 64, 65
1, 767672, Control_c, 0, 64, 61
1, 767687, Control_c, 0, 64, 53
1, 767702, Control_c, 0, 64, 44
1, 767716, Control_c, 0, 64, 32
1, 767731, Control_c, 0, 64, 0
1, 767888, Note_on_c, 0, 66, 34
1, 767918, Note_on_c, 0, 54, 20
1, 768200, Note_on_c, 0, 67, 42
1, 768233, Note_on_c, 0, 55, 29
1, 768274, Note_off_c, 0, 54, 38
1, 768338, Note_off_c, 0, 66, 40
1, 768442, Note_on_c, 0, 69, 54
1, 768448, Note_off_c, 0, 55, 42
1, 768457, Note_on_c, 0, 57, 35
1, 768459, Note_off_c, 0, 67, 52
1, 768495, Control_c, 0, 64, 28
1, 768510, Control_c, 0, 64, 56
1, 768525, Control_c, 0, 64, 63
1, 768539, Control_c, 0, 64, 67
1, 768554, Control_c, 0, 64, 72
1, 768569, Control_c, 0, 64, 81
1, 768584, Control_c, 0, 64, 92
1, 768599, Control_c, 0, 64, 121
1, 768613, Control_c, 0, 64, 127
1, 768624, Note_off_c, 0, 57, 36
1, 768660, Note_off_c, 0, 69, 61
1, 768954, Note_on_c, 0, 71, 47
1, 768993, Note_on_c, 0, 59, 25
1, 769000, Note_on_c, 0, 43, 34
1, 769020, Note_on_c, 0, 52, 21
1, 769029, Note_on_c, 0, 50, 29
1, 769080, Control_c, 0, 64, 103
1, 769095, Control_c, 0, 64, 90
1, 769110, Control_c, 0, 64, 79
1, 769124, Control_c, 0, 64, 69
1, 769139, Control_c, 0, 64, 61
1, 769154, Control_c, 0, 64, 18
1, 769169, Control_c, 0, 64, 0
1, 769332, Control_c, 0, 64, 50
1, 769347, Control_c, 0, 64, 61
1, 769361, Control_c, 0, 64, 64
1, 769376, Control_c, 0, 64, 67
1, 769391, Control_c, 0, 64, 71
1, 769406, Control_c, 0, 64, 73
1, 769465, Control_c, 0, 64, 74
1, 769480, Control_c, 0, 64, 75
1, 769494, Control_c, 0, 64, 78
1, 769509, Control_c, 0, 64, 81
1, 769524, Control_c, 0, 64, 83
1, 769540, Control_c, 0, 64, 83
1, 769555, Control_c, 0, 64, 84
1, 769570, Control_c, 0, 64, 85
1, 769571, Note_off_c, 0, 52, 36
1, 769585, Control_c, 0, 64, 86
1, 769599, Control_c, 0, 64, 87
1, 769614, Control_c, 0, 64, 88
1, 769629, Control_c, 0, 64, 88
1, 769644, Control_c, 0, 64, 89
1, 769659, Control_c, 0, 64, 90
1, 769673, Control_c, 0, 64, 90
1, 769688, Control_c, 0, 64, 91
1, 769703, Control_c, 0, 64, 91
1, 769726, Control_c, 0, 64, 92
1, 769741, Control_c, 0, 64, 92
1, 769756, Control_c, 0, 64, 93
1, 769771, Control_c, 0, 64, 93
1, 769786, Note_off_c, 0, 50, 30
1, 769786, Control_c, 0, 64, 94
1, 769888, Note_on_c, 0, 64, 44
1, 769911, Note_on_c, 0, 52, 42
1, 769947, Note_off_c, 0, 59, 34
1, 769983, Note_off_c, 0, 64, 54
1, 769998, Note_off_c, 0, 52, 36
1, 770053, Note_off_c, 0, 71, 20
1, 770066, Control_c, 0, 64, 88
1, 770069, Note_on_c, 0, 64, 42
1, 770081, Note_on_c, 0, 52, 32
1, 770081, Control_c, 0, 64, 74
1, 770096, Control_c, 0, 64, 63
1, 770111, Control_c, 0, 64, 43
1, 770126, Control_c, 0, 64, 42
1, 770126, Control_c, 0, 67, 125
1, 770141, Control_c, 0, 64, 55
1, 770141, Control_c, 0, 67, 117
1, 770156, Control_c, 0, 64, 61
1, 770156, Control_c, 0, 67, 108
1, 770171, Control_c, 0, 64, 64
1, 770171, Control_c, 0, 67, 98
1, 770186, Control_c, 0, 64, 68
1, 770186, Control_c, 0, 67, 88
1, 770200, Control_c, 0, 64, 72
1, 770200, Control_c, 0, 67, 78
1, 770215, Control_c, 0, 64, 77
1, 770215, Control_c, 0, 67, 68
1, 770230, Control_c, 0, 64, 80
1, 770230, Control_c, 0, 67, 58
1, 770245, Control_c, 0, 64, 83
1, 770245, Control_c, 0, 67, 51
1, 770260, Control_c, 0, 64, 88
1, 770260, Control_c, 0, 67, 44
1, 770269, Note_off_c, 0, 64, 50
1, 770274, Control_c, 0, 64, 93
1, 770274, Control_c, 0, 67, 37
1, 770289, Control_c, 0, 64, 99
1, 770289, Control_c, 0, 67, 31
1, 770304, Control_c, 0, 64, 105
1, 770304, Control_c, 0, 67, 25
1, 770318, Control_c, 0, 64, 113
1, 770318, Control_c, 0, 67, 19
1, 770319, Note_off_c, 0, 43, 34
1, 770320, Note_off_c, 0, 52, 42
1, 770334, Control_c, 0, 64, 127
1, 770334, Control_c, 0, 67, 15
1, 770349, Control_c, 0, 67, 13
1, 770364, Control_c, 0, 67, 10
1, 770379, Control_c, 0, 67, 0
1, 770674, Note_on_c, 0, 74, 68
1, 770705, Note_on_c, 0, 62, 51
1, 770712, Control_c, 0, 64, 110
1, 770722, Note_on_c, 0, 52, 48
1, 770722, Note_on_c, 0, 44, 43
1, 770727, Control_c, 0, 64, 101
1, 770741, Control_c, 0, 64, 95
1, 770756, Control_c, 0, 64, 87
1, 770771, Control_c, 0, 64, 79
1, 770786, Control_c, 0, 64, 68
1, 770801, Control_c, 0, 64, 54
1, 770815, Control_c, 0, 64, 0
1, 770904, Control_c, 0, 64, 22
1, 770919, Control_c, 0, 64, 54
1, 770934, Control_c, 0, 64, 62
1, 770949, Control_c, 0, 64, 64
1, 770964, Control_c, 0, 64, 65
1, 770979, Control_c, 0, 64, 67
1, 770994, Control_c, 0, 64, 70
1, 771008, Control_c, 0, 64, 74
1, 771023, Control_c, 0, 64, 77
1, 771038, Control_c, 0, 64, 79
1, 771053, Control_c, 0, 64, 81
1, 771067, Control_c, 0, 64, 84
1, 771082, Control_c, 0, 64, 87
1, 771097, Control_c, 0, 64, 91
1, 771112, Control_c, 0, 64, 95
1, 771127, Control_c, 0, 64, 100
1, 771143, Control_c, 0, 64, 105
1, 771157, Control_c, 0, 64, 109
1, 771172, Control_c, 0, 64, 114
1, 771187, Control_c, 0, 64, 119
1, 771202, Control_c, 0, 64, 127
1, 771255, Note_off_c, 0, 62, 36
1, 771259, Note_off_c, 0, 52, 33
1, 771446, Note_on_c, 0, 64, 64
1, 771464, Note_on_c, 0, 52, 59
1, 771520, Control_c, 0, 64, 94
1, 771527, Note_off_c, 0, 52, 57
1, 771535, Control_c, 0, 64, 71
1, 771536, Note_off_c, 0, 64, 61
1, 771550, Control_c, 0, 64, 51
1, 771564, Control_c, 0, 64, 0
1, 771594, Control_c, 0, 64, 46
1, 771601, Note_on_c, 0, 64, 61
1, 771609, Control_c, 0, 64, 59
1, 771620, Note_on_c, 0, 52, 51
1, 771624, Control_c, 0, 64, 67
1, 771638, Control_c, 0, 64, 77
1, 771652, Note_off_c, 0, 74, 40
1, 771653, Control_c, 0, 64, 91
1, 771668, Control_c, 0, 64, 97
1, 771683, Control_c, 0, 64, 103
1, 771697, Control_c, 0, 64, 116
1, 771712, Control_c, 0, 64, 127
1, 771742, Note_off_c, 0, 44, 54
1, 771751, Note_off_c, 0, 64, 63
1, 771783, Note_off_c, 0, 52, 60
1, 772172, Note_on_c, 0, 74, 70
1, 772197, Note_on_c, 0, 64, 50
1, 772210, Control_c, 0, 64, 118
1, 772225, Control_c, 0, 64, 106
1, 772227, Note_on_c, 0, 55, 51
1, 772234, Note_on_c, 0, 45, 46
1, 772240, Control_c, 0, 64, 100
1, 772254, Control_c, 0, 64, 95
1, 772269, Control_c, 0, 64, 90
1, 772284, Control_c, 0, 64, 85
1, 772299, Control_c, 0, 64, 80
1, 772313, Control_c, 0, 64, 76
1, 772328, Control_c, 0, 64, 70
1, 772343, Control_c, 0, 64, 64
1, 772358, Control_c, 0, 64, 42
1, 772373, Control_c, 0, 64, 0
1, 772476, Control_c, 0, 64, 55
1, 772491, Control_c, 0, 64, 64
1, 772506, Control_c, 0, 64, 66
1, 772520, Control_c, 0, 64, 67
1, 772535, Control_c, 0, 64, 68
1, 772550, Control_c, 0, 64, 71
1, 772565, Control_c, 0, 64, 75
1, 772580, Control_c, 0, 64, 76
1, 772594, Control_c, 0, 64, 77
1, 772609, Control_c, 0, 64, 78
1, 772624, Control_c, 0, 64, 79
1, 772639, Control_c, 0, 64, 81
1, 772654, Control_c, 0, 64, 82
1, 772669, Control_c, 0, 64, 83
1, 772681, Note_on_c, 0, 73, 70
1, 772684, Control_c, 0, 64, 84
1, 772699, Control_c, 0, 64, 84
1, 772704, Note_off_c, 0, 74, 61
1, 772719, Control_c, 0, 64, 85
1, 772734, Control_c, 0, 64, 86
1, 772750, Control_c, 0, 64, 87
1, 772765, Control_c, 0, 64, 87
1, 772780, Control_c, 0, 64, 89
1, 772795, Control_c, 0, 64, 92
1, 772810, Control_c, 0, 64, 97
1, 772818, Note_off_c, 0, 64, 37
1, 772824, Control_c, 0, 64, 102
1, 772839, Control_c, 0, 64, 106
1, 772854, Control_c, 0, 64, 106
1, 772866, Note_off_c, 0, 73, 58
1, 772869, Control_c, 0, 64, 106
1, 772884, Control_c, 0, 64, 94
1, 772888, Note_on_c, 0, 74, 67
1, 772894, Note_on_c, 0, 66, 62
1, 772898, Control_c, 0, 64, 71
1, 772913, Note_on_c, 0, 54, 49
1, 772913, Control_c, 0, 64, 57
1, 772928, Control_c, 0, 64, 29
1, 772943, Control_c, 0, 64, 45
1, 772958, Control_c, 0, 64, 58
1, 772973, Control_c, 0, 64, 64
1, 772981, Note_off_c, 0, 66, 64
1, 772988, Control_c, 0, 64, 71
1, 772998, Note_off_c, 0, 55, 37
1, 773003, Control_c, 0, 64, 79
1, 773017, Control_c, 0, 64, 86
1, 773032, Control_c, 0, 64, 88
1, 773062, Control_c, 0, 64, 87
1, 773077, Control_c, 0, 64, 76
1, 773090, Note_on_c, 0, 76, 71
1, 773091, Control_c, 0, 64, 61
1, 773101, Note_on_c, 0, 67, 64
1, 773106, Control_c, 0, 64, 0
1, 773111, Note_on_c, 0, 52, 58
1, 773119, Note_off_c, 0, 54, 50
1, 773135, Control_c, 0, 64, 49
1, 773143, Note_off_c, 0, 74, 57
1, 773150, Control_c, 0, 64, 62
1, 773165, Control_c, 0, 64, 68
1, 773180, Control_c, 0, 64, 79
1, 773181, Note_off_c, 0, 67, 59
1, 773195, Control_c, 0, 64, 88
1, 773209, Control_c, 0, 64, 92
1, 773224, Control_c, 0, 64, 95
1, 773239, Control_c, 0, 64, 96
1, 773254, Control_c, 0, 64, 96
1, 773268, Control_c, 0, 64, 86
1, 773283, Control_c, 0, 64, 67
1, 773286, Note_on_c, 0, 73, 82
1, 773292, Note_on_c, 0, 57, 56
1, 773298, Control_c, 0, 64, 0
1, 773299, Note_off_c, 0, 52, 59
1, 773306, Note_off_c, 0, 76, 60
1, 773307, Note_on_c, 0, 64, 57
1, 773357, Control_c, 0, 64, 55
1, 773372, Control_c, 0, 64, 67
1, 773387, Control_c, 0, 64, 75
1, 773402, Control_c, 0, 64, 83
1, 773417, Control_c, 0, 64, 87
1, 773420, Note_off_c, 0, 57, 48
1, 773420, Note_off_c, 0, 64, 64
1, 773432, Control_c, 0, 64, 92
1, 773447, Control_c, 0, 64, 93
1, 773584, Note_on_c, 0, 74, 71
1, 773589, Control_c, 0, 64, 92
1, 773603, Note_on_c, 0, 66, 56
1, 773604, Control_c, 0, 64, 90
1, 773619, Control_c, 0, 64, 87
1, 773624, Note_off_c, 0, 73, 57
1, 773626, Note_on_c, 0, 57, 35
1, 773631, Note_on_c, 0, 50, 44
1, 773634, Control_c, 0, 64, 84
1, 773648, Control_c, 0, 64, 81
1, 773663, Control_c, 0, 64, 78
1, 773678, Control_c, 0, 64, 75
1, 773692, Control_c, 0, 64, 72
1, 773707, Control_c, 0, 64, 68
1, 773722, Control_c, 0, 64, 64
1, 773726, Note_off_c, 0, 45, 42
1, 773737, Control_c, 0, 64, 58
1, 773752, Control_c, 0, 64, 29
1, 773766, Control_c, 0, 64, 0
1, 773959, Control_c, 0, 64, 28
1, 773974, Control_c, 0, 64, 49
1, 773989, Control_c, 0, 64, 57
1, 774004, Control_c, 0, 64, 60
1, 774019, Control_c, 0, 64, 61
1, 774033, Control_c, 0, 64, 63
1, 774046, Note_on_c, 0, 78, 71
1, 774048, Control_c, 0, 64, 66
1, 774063, Control_c, 0, 64, 70
1, 774077, Control_c, 0, 64, 73
1, 774092, Control_c, 0, 64, 76
1, 774101, Note_off_c, 0, 74, 55
1, 774107, Control_c, 0, 64, 80
1, 774122, Control_c, 0, 64, 86
1, 774137, Control_c, 0, 64, 95
1, 774151, Control_c, 0, 64, 113
1, 774166, Control_c, 0, 64, 127
1, 774211, Note_off_c, 0, 57, 33
1, 774240, Note_off_c, 0, 66, 38
1, 774250, Note_off_c, 0, 50, 37
1, 774307, Control_c, 0, 67, 14
1, 774322, Control_c, 0, 67, 31
1, 774338, Control_c, 0, 67, 46
1, 774353, Control_c, 0, 67, 58
1, 774368, Control_c, 0, 67, 72
1, 774383, Control_c, 0, 67, 83
1, 774397, Control_c, 0, 67, 94
1, 774412, Control_c, 0, 67, 106
1, 774427, Control_c, 0, 67, 120
1, 774442, Control_c, 0, 67, 127
1, 774558, Note_on_c, 0, 69, 55
1, 774560, Control_c, 0, 64, 109
1, 774575, Note_on_c, 0, 66, 49
1, 774575, Control_c, 0, 64, 83
1, 774584, Note_on_c, 0, 57, 32
1, 774589, Control_c, 0, 64, 66
1, 774595, Note_on_c, 0, 50, 34
1, 774604, Control_c, 0, 64, 27
1, 774619, Control_c, 0, 64, 0
1, 774629, Note_off_c, 0, 78, 62
1, 774678, Control_c, 0, 64, 57
1, 774693, Control_c, 0, 64, 68
1, 774708, Control_c, 0, 64, 82
1, 774723, Control_c, 0, 64, 94
1, 774729, Note_off_c, 0, 69, 63
1, 774738, Control_c, 0, 64, 102
1, 774752, Control_c, 0, 64, 127
1, 774811, Note_off_c, 0, 66, 63
1, 774844, Note_off_c, 0, 50, 38
1, 774881, Note_off_c, 0, 57, 37
1, 775083, Note_on_c, 0, 69, 51
1, 775094, Note_on_c, 0, 66, 49
1, 775115, Control_c, 0, 64, 109
1, 775121, Note_on_c, 0, 57, 32
1, 775125, Note_on_c, 0, 49, 37
1, 775131, Control_c, 0, 64, 100
1, 775146, Control_c, 0, 64, 95
1, 775161, Control_c, 0, 64, 89
1, 775176, Control_c, 0, 64, 83
1, 775191, Control_c, 0, 64, 74
1, 775206, Control_c, 0, 64, 66
1, 775220, Control_c, 0, 64, 56
1, 775235, Control_c, 0, 64, 0
1, 775504, Note_off_c, 0, 69, 50
1, 775543, Note_on_c, 0, 67, 55
1, 775551, Note_off_c, 0, 66, 51
1, 775558, Note_on_c, 0, 64, 43
1, 775635, Control_c, 0, 64, 23
1, 775650, Control_c, 0, 64, 35
1, 775664, Control_c, 0, 64, 45
1, 775679, Control_c, 0, 64, 53
1, 775694, Control_c, 0, 64, 58
1, 775716, Control_c, 0, 64, 62
1, 775729, Note_off_c, 0, 64, 53
1, 775731, Note_on_c, 0, 69, 62
1, 775731, Control_c, 0, 64, 64
1, 775745, Control_c, 0, 64, 65
1, 775753, Note_on_c, 0, 66, 49
1, 775760, Control_c, 0, 64, 67
1, 775767, Note_off_c, 0, 67, 38
1, 775775, Control_c, 0, 64, 69
1, 775790, Control_c, 0, 64, 70
1, 775805, Control_c, 0, 64, 70
1, 775810, Note_off_c, 0, 57, 39
1, 775820, Control_c, 0, 64, 71
1, 775881, Note_off_c, 0, 66, 31
1, 775894, Control_c, 0, 64, 70
1, 775909, Control_c, 0, 64, 65
1, 775924, Control_c, 0, 64, 55
1, 775939, Control_c, 0, 64, 14
1, 775945, Note_off_c, 0, 69, 52
1, 775954, Control_c, 0, 64, 0
1, 775958, Note_on_c, 0, 71, 60
1, 775972, Note_on_c, 0, 67, 43
1, 775978, Note_on_c, 0, 57, 32
1, 775983, Note_on_c, 0, 45, 37
1, 775984, Control_c, 0, 64, 21
1, 775988, Note_off_c, 0, 49, 40
1, 775998, Control_c, 0, 64, 50
1, 776013, Control_c, 0, 64, 62
1, 776015, Note_off_c, 0, 67, 61
1, 776028, Control_c, 0, 64, 68
1, 776043, Control_c, 0, 64, 74
1, 776058, Control_c, 0, 64, 78
1, 776073, Control_c, 0, 64, 77
1, 776087, Control_c, 0, 64, 74
1, 776102, Control_c, 0, 64, 63
1, 776117, Control_c, 0, 64, 0
1, 776153, Note_on_c, 0, 67, 53
1, 776161, Control_c, 0, 64, 26
1, 776171, Note_on_c, 0, 64, 48
1, 776176, Control_c, 0, 64, 62
1, 776190, Note_off_c, 0, 71, 54
1, 776191, Control_c, 0, 64, 71
1, 776206, Control_c, 0, 64, 79
1, 776220, Note_off_c, 0, 57, 40
1, 776221, Control_c, 0, 64, 83
1, 776223, Note_off_c, 0, 64, 56
1, 776235, Control_c, 0, 64, 85
1, 776250, Control_c, 0, 64, 86
1, 776265, Control_c, 0, 64, 87
1, 776291, Note_off_c, 0, 45, 42
1, 776302, Note_off_c, 0, 67, 52
1, 776428, Control_c, 0, 64, 86
1, 776440, Note_on_c, 0, 69, 52
1, 776442, Note_on_c, 0, 67, 42
1, 776443, Control_c, 0, 64, 86
1, 776466, Control_c, 0, 64, 85
1, 776481, Control_c, 0, 64, 83
1, 776495, Control_c, 0, 64, 81
1, 776499, Note_on_c, 0, 57, 32
1, 776510, Control_c, 0, 64, 79
1, 776519, Note_on_c, 0, 50, 16
1, 776525, Control_c, 0, 64, 77
1, 776540, Control_c, 0, 64, 74
1, 776555, Control_c, 0, 64, 71
1, 776569, Control_c, 0, 64, 68
1, 776584, Control_c, 0, 64, 65
1, 776599, Control_c, 0, 64, 63
1, 776614, Control_c, 0, 64, 60
1, 776614, Control_c, 0, 67, 125
1, 776629, Control_c, 0, 64, 54
1, 776629, Control_c, 0, 67, 122
1, 776643, Control_c, 0, 64, 43
1, 776643, Control_c, 0, 67, 119
1, 776658, Control_c, 0, 64, 25
1, 776658, Control_c, 0, 67, 116
1, 776673, Control_c, 0, 64, 0
1, 776673, Control_c, 0, 67, 113
1, 776687, Control_c, 0, 67, 109
1, 776702, Control_c, 0, 67, 106
1, 776717, Control_c, 0, 67, 103
1, 776733, Control_c, 0, 67, 100
1, 776748, Control_c, 0, 67, 98
1, 776763, Control_c, 0, 67, 96
1, 776792, Control_c, 0, 67, 95
1, 776896, Control_c, 0, 67, 94
1, 776935, Note_off_c, 0, 67, 43
1, 776939, Note_on_c, 0, 66, 40
1, 776940, Note_on_c, 0, 74, 36
1, 776955, Control_c, 0, 67, 94
1, 776965, Note_off_c, 0, 69, 58
1, 776970, Control_c, 0, 67, 93
1, 776985, Control_c, 0, 67, 91
1, 777000, Control_c, 0, 67, 86
1, 777015, Control_c, 0, 64, 53
1, 777015, Control_c, 0, 67, 81
1, 777030, Control_c, 0, 64, 63
1, 777030, Control_c, 0, 67, 77
1, 777045, Control_c, 0, 64, 65
1, 777045, Control_c, 0, 67, 74
1, 777059, Control_c, 0, 64, 66
1, 777059, Control_c, 0, 67, 71
1, 777070, Note_off_c, 0, 66, 52
1, 777074, Control_c, 0, 64, 69
1, 777074, Control_c, 0, 67, 69
1, 777082, Note_off_c, 0, 74, 61
1, 777089, Control_c, 0, 64, 74
1, 777089, Control_c, 0, 67, 67
1, 777103, Control_c, 0, 64, 79
1, 777103, Control_c, 0, 67, 64
1, 777118, Control_c, 0, 64, 81
1, 777118, Control_c, 0, 67, 61
1, 777133, Control_c, 0, 64, 83
1, 777133, Control_c, 0, 67, 59
1, 777148, Control_c, 0, 67, 57
1, 777151, Note_off_c, 0, 57, 50
1, 777163, Control_c, 0, 67, 55
1, 777177, Control_c, 0, 64, 83
1, 777177, Control_c, 0, 67, 53
1, 777179, Note_off_c, 0, 50, 41
1, 777192, Control_c, 0, 67, 51
1, 777214, Control_c, 0, 67, 48
1, 777229, Control_c, 0, 67, 46
1, 777243, Control_c, 0, 67, 43
1, 777258, Control_c, 0, 67, 40
1, 777273, Control_c, 0, 67, 36
1, 777288, Control_c, 0, 64, 83
1, 777288, Control_c, 0, 67, 31
1, 777303, Control_c, 0, 64, 82
1, 777303, Control_c, 0, 67, 28
1, 777317, Control_c, 0, 64, 80
1, 777317, Control_c, 0, 67, 24
1, 777332, Control_c, 0, 64, 77
1, 777332, Control_c, 0, 67, 22
1, 777347, Control_c, 0, 64, 73
1, 777347, Control_c, 0, 67, 20
1, 777362, Control_c, 0, 64, 70
1, 777362, Control_c, 0, 67, 17
1, 777377, Control_c, 0, 64, 66
1, 777377, Control_c, 0, 67, 14
1, 777391, Control_c, 0, 64, 62
1, 777391, Control_c, 0, 67, 11
1, 777406, Control_c, 0, 64, 44
1, 777406, Control_c, 0, 67, 8
1, 777421, Control_c, 0, 64, 0
1, 777421, Control_c, 0, 67, 0
1, 777435, Note_on_c, 0, 69, 69
1, 777462, Note_on_c, 0, 54, 40
1, 777540, Control_c, 0, 64, 45
1, 777555, Control_c, 0, 64, 61
1, 777570, Control_c, 0, 64, 65
1, 777585, Control_c, 0, 64, 66
1, 777599, Control_c, 0, 64, 68
1, 777614, Control_c, 0, 64, 70
1, 777629, Control_c, 0, 64, 74
1, 777644, Control_c, 0, 64, 76
1, 777650, Note_on_c, 0, 71, 74
1, 777659, Control_c, 0, 64, 78
1, 777660, Note_off_c, 0, 54, 56
1, 777661, Note_on_c, 0, 55, 48
1, 777674, Control_c, 0, 64, 81
1, 777689, Control_c, 0, 64, 85
1, 777704, Control_c, 0, 64, 88
1, 777718, Control_c, 0, 64, 90
1, 777733, Control_c, 0, 64, 94
1, 777748, Control_c, 0, 64, 96
1, 777763, Control_c, 0, 64, 98
1, 777778, Control_c, 0, 64, 98
1, 777786, Note_off_c, 0, 55, 37
1, 777793, Control_c, 0, 64, 99
1, 777839, Note_off_c, 0, 69, 19
1, 777881, Control_c, 0, 64, 98
1, 777911, Control_c, 0, 64, 98
1, 777925, Control_c, 0, 64, 96
1, 777940, Control_c, 0, 64, 92
1, 777955, Note_on_c, 0, 74, 65
1, 777963, Control_c, 0, 64, 89
1, 777974, Note_on_c, 0, 64, 49
1, 777978, Control_c, 0, 64, 84
1, 777987, Note_on_c, 0, 55, 46
1, 777993, Control_c, 0, 64, 81
1, 778000, Note_on_c, 0, 45, 42
1, 778007, Control_c, 0, 64, 79
1, 778022, Control_c, 0, 64, 76
1, 778037, Control_c, 0, 64, 72
1, 778052, Control_c, 0, 64, 66
1, 778055, Note_off_c, 0, 71, 38
1, 778066, Control_c, 0, 64, 48
1, 778081, Control_c, 0, 64, 0
1, 778185, Control_c, 0, 64, 50
1, 778200, Control_c, 0, 64, 61
1, 778214, Control_c, 0, 64, 63
1, 778229, Control_c, 0, 64, 63
1, 778244, Control_c, 0, 64, 64
1, 778258, Control_c, 0, 64, 65
1, 778273, Control_c, 0, 64, 66
1, 778288, Control_c, 0, 64, 67
1, 778303, Control_c, 0, 64, 68
1, 778318, Control_c, 0, 64, 70
1, 778334, Control_c, 0, 64, 70
1, 778363, Control_c, 0, 64, 71
1, 778378, Control_c, 0, 64, 71
1, 778393, Control_c, 0, 64, 72
1, 778408, Control_c, 0, 64, 72
1, 778410, Note_on_c, 0, 73, 69
1, 778422, Note_off_c, 0, 74, 57
1, 778423, Control_c, 0, 64, 73
1, 778437, Control_c, 0, 64, 74
1, 778452, Control_c, 0, 64, 75
1, 778467, Control_c, 0, 64, 75
1, 778482, Control_c, 0, 64, 76
1, 778496, Control_c, 0, 64, 78
1, 778511, Control_c, 0, 64, 79
1, 778526, Control_c, 0, 64, 82
1, 778541, Control_c, 0, 64, 84
1, 778556, Control_c, 0, 64, 85
1, 778569, Note_off_c, 0, 64, 35
1, 778571, Control_c, 0, 64, 84
1, 778586, Control_c, 0, 64, 74
1, 778601, Note_off_c, 0, 73, 61
1, 778601, Control_c, 0, 64, 62
1, 778607, Note_on_c, 0, 74, 71
1, 778616, Control_c, 0, 64, 25
1, 778616, Note_on_c, 0, 66, 61
1, 778628, Note_on_c, 0, 54, 50
1, 778630, Control_c, 0, 64, 0
1, 778645, Control_c, 0, 64, 40
1, 778660, Control_c, 0, 64, 55
1, 778674, Control_c, 0, 64, 63
1, 778689, Control_c, 0, 64, 68
1, 778711, Control_c, 0, 64, 73
1, 778718, Note_off_c, 0, 55, 36
1, 778720, Note_off_c, 0, 66, 61
1, 778726, Control_c, 0, 64, 78
1, 778741, Control_c, 0, 64, 79
1, 778755, Control_c, 0, 64, 80
1, 778770, Control_c, 0, 64, 79
1, 778785, Control_c, 0, 64, 76
1, 778800, Control_c, 0, 64, 65
1, 778814, Note_on_c, 0, 76, 73
1, 778815, Control_c, 0, 64, 0
1, 778824, Note_on_c, 0, 67, 62
1, 778841, Note_on_c, 0, 52, 57
1, 778842, Note_off_c, 0, 54, 52
1, 778863, Note_off_c, 0, 74, 55
1, 778874, Control_c, 0, 64, 55
1, 778888, Control_c, 0, 64, 66
1, 778902, Note_off_c, 0, 67, 60
1, 778903, Control_c, 0, 64, 71
1, 778918, Control_c, 0, 64, 74
1, 778933, Control_c, 0, 64, 76
1, 778948, Control_c, 0, 64, 77
1, 778977, Control_c, 0, 64, 75
1, 778992, Control_c, 0, 64, 65
1, 779006, Control_c, 0, 64, 39
1, 779007, Note_on_c, 0, 73, 78
1, 779015, Note_off_c, 0, 52, 62
1, 779021, Control_c, 0, 64, 0
1, 779033, Note_on_c, 0, 57, 48
1, 779033, Note_on_c, 0, 64, 61
1, 779039, Note_off_c, 0, 76, 60
1, 779066, Control_c, 0, 64, 47
1, 779081, Control_c, 0, 64, 63
1, 779096, Control_c, 0, 64, 71
1, 779111, Control_c, 0, 64, 80
1, 779126, Control_c, 0, 64, 89
1, 779141, Control_c, 0, 64, 95
1, 779144, Note_off_c, 0, 64, 65
1, 779156, Control_c, 0, 64, 99
1, 779159, Note_off_c, 0, 57, 48
1, 779171, Control_c, 0, 64, 101
1, 779274, Control_c, 0, 64, 100
1, 779289, Control_c, 0, 64, 98
1, 779304, Control_c, 0, 64, 94
1, 779311, Note_on_c, 0, 74, 72
1, 779319, Control_c, 0, 64, 89
1, 779334, Control_c, 0, 64, 86
1, 779343, Note_on_c, 0, 66, 54
1, 779345, Note_off_c, 0, 73, 59
1, 779349, Control_c, 0, 64, 82
1, 779362, Note_on_c, 0, 57, 34
1, 779364, Control_c, 0, 64, 78
1, 779370, Note_on_c, 0, 50, 37
1, 779378, Control_c, 0, 64, 75
1, 779393, Control_c, 0, 64, 72
1, 779408, Control_c, 0, 64, 69
1, 779422, Control_c, 0, 64, 65
1, 779437, Control_c, 0, 64, 58
1, 779459, Control_c, 0, 64, 14
1, 779466, Note_off_c, 0, 45, 43
1, 779474, Control_c, 0, 64, 0
1, 779651, Control_c, 0, 64, 34
1, 779666, Control_c, 0, 64, 49
1, 779681, Control_c, 0, 64, 54
1, 779695, Control_c, 0, 64, 57
1, 779710, Control_c, 0, 64, 61
1, 779725, Control_c, 0, 64, 64
1, 779740, Control_c, 0, 64, 67
1, 779755, Control_c, 0, 64, 70
1, 779769, Control_c, 0, 64, 72
1, 779784, Control_c, 0, 64, 74
1, 779798, Note_on_c, 0, 78, 71
1, 779799, Control_c, 0, 64, 79
1, 779814, Control_c, 0, 64, 88
1, 779829, Control_c, 0, 64, 106
1, 779844, Control_c, 0, 64, 127
1, 779848, Note_off_c, 0, 74, 54
1, 779927, Note_off_c, 0, 57, 39
1, 779944, Note_off_c, 0, 78, 62
1, 779946, Note_off_c, 0, 50, 39
1, 779997, Note_off_c, 0, 66, 40
1, 780324, Note_on_c, 0, 69, 54
1, 780353, Note_on_c, 0, 64, 42
1, 780360, Note_on_c, 0, 57, 46
1, 780371, Control_c, 0, 64, 125
1, 780382, Note_on_c, 0, 49, 36
1, 780386, Control_c, 0, 64, 94
1, 780401, Control_c, 0, 64, 77
1, 780416, Control_c, 0, 64, 63
1, 780431, Control_c, 0, 64, 0
1, 780505, Control_c, 0, 64, 35
1, 780519, Control_c, 0, 64, 57
1, 780534, Control_c, 0, 64, 62
1, 780549, Control_c, 0, 64, 64
1, 780564, Control_c, 0, 64, 66
1, 780579, Control_c, 0, 64, 70
1, 780580, Note_on_c, 0, 52, 57
1, 780593, Control_c, 0, 64, 74
1, 780608, Control_c, 0, 64, 79
1, 780623, Control_c, 0, 64, 82
1, 780638, Control_c, 0, 64, 85
1, 780650, Note_off_c, 0, 57, 58
1, 780652, Control_c, 0, 64, 87
1, 780666, Note_off_c, 0, 64, 36
1, 780667, Control_c, 0, 64, 90
1, 780682, Control_c, 0, 64, 92
1, 780694, Note_off_c, 0, 69, 38
1, 780697, Control_c, 0, 64, 95
1, 780712, Control_c, 0, 64, 97
1, 780728, Control_c, 0, 64, 98
1, 780846, Control_c, 0, 64, 97
1, 780861, Control_c, 0, 64, 97
1, 780875, Control_c, 0, 64, 94
1, 780890, Control_c, 0, 64, 90
1, 780902, Note_on_c, 0, 69, 47
1, 780905, Control_c, 0, 64, 86
1, 780920, Control_c, 0, 64, 82
1, 780925, Note_on_c, 0, 62, 39
1, 780935, Control_c, 0, 64, 79
1, 780941, Note_on_c, 0, 54, 47
1, 780957, Control_c, 0, 64, 76
1, 780972, Control_c, 0, 64, 73
1, 780977, Note_on_c, 0, 47, 38
1, 780987, Control_c, 0, 64, 70
1, 781002, Control_c, 0, 64, 66
1, 781012, Note_off_c, 0, 52, 39
1, 781017, Control_c, 0, 64, 63
1, 781031, Control_c, 0, 64, 58
1, 781046, Control_c, 0, 64, 47
1, 781051, Note_off_c, 0, 49, 39
1, 781061, Control_c, 0, 64, 0
1, 781359, Note_off_c, 0, 69, 61
1, 781375, Note_on_c, 0, 68, 56
1, 781565, Control_c, 0, 64, 12
1, 781567, Note_on_c, 0, 69, 60
1, 781580, Control_c, 0, 64, 44
1, 781582, Note_on_c, 0, 63, 53
1, 781585, Note_off_c, 0, 62, 54
1, 781595, Note_off_c, 0, 68, 38
1, 781595, Control_c, 0, 64, 56
1, 781610, Control_c, 0, 64, 62
1, 781625, Control_c, 0, 64, 64
1, 781637, Note_off_c, 0, 54, 61
1, 781640, Control_c, 0, 64, 65
1, 781654, Control_c, 0, 64, 67
1, 781669, Control_c, 0, 64, 69
1, 781684, Control_c, 0, 64, 70
1, 781684, Control_c, 0, 67, 9
1, 781706, Control_c, 0, 67, 12
1, 781721, Control_c, 0, 67, 14
1, 781736, Control_c, 0, 67, 16
1, 781751, Control_c, 0, 67, 18
1, 781766, Control_c, 0, 64, 69
1, 781766, Control_c, 0, 67, 19
1, 781780, Control_c, 0, 64, 68
1, 781780, Control_c, 0, 67, 20
1, 781795, Control_c, 0, 64, 65
1, 781795, Control_c, 0, 67, 22
1, 781810, Control_c, 0, 64, 60
1, 781810, Control_c, 0, 67, 23
1, 781814, Note_off_c, 0, 69, 64
1, 781823, Note_off_c, 0, 47, 40
1, 781824, Control_c, 0, 64, 31
1, 781824, Control_c, 0, 67, 25
1, 781825, Note_on_c, 0, 73, 50
1, 781833, Note_off_c, 0, 63, 60
1, 781839, Control_c, 0, 64, 0
1, 781839, Control_c, 0, 67, 27
1, 781852, Note_on_c, 0, 52, 43
1, 781854, Control_c, 0, 67, 29
1, 781864, Note_on_c, 0, 64, 34
1, 781869, Note_on_c, 0, 40, 33
1, 781869, Control_c, 0, 67, 30
1, 781884, Control_c, 0, 67, 31
1, 781898, Control_c, 0, 64, 34
1, 781898, Control_c, 0, 67, 33
1, 781913, Control_c, 0, 64, 61
1, 781913, Control_c, 0, 67, 35
1, 781928, Control_c, 0, 64, 68
1, 781928, Control_c, 0, 67, 37
1, 781943, Control_c, 0, 64, 73
1, 781943, Control_c, 0, 67, 38
1, 781958, Control_c, 0, 64, 75
1, 781960, Note_off_c, 0, 52, 39
1, 782062, Control_c, 0, 64, 74
1, 782067, Note_on_c, 0, 68, 43
1, 782067, Note_on_c, 0, 71, 48
1, 782077, Control_c, 0, 64, 72
1, 782080, Note_on_c, 0, 50, 42
1, 782091, Control_c, 0, 64, 69
1, 782095, Note_off_c, 0, 73, 57
1, 782106, Control_c, 0, 64, 66
1, 782121, Control_c, 0, 64, 64
1, 782126, Note_off_c, 0, 64, 42
1, 782136, Control_c, 0, 64, 62
1, 782151, Control_c, 0, 64, 59
1, 782151, Control_c, 0, 67, 37
1, 782166, Control_c, 0, 64, 53
1, 782166, Control_c, 0, 67, 37
1, 782180, Control_c, 0, 64, 41
1, 782195, Control_c, 0, 64, 12
1, 782210, Control_c, 0, 64, 0
1, 782254, Control_c, 0, 67, 36
1, 782269, Control_c, 0, 67, 36
1, 782350, Note_on_c, 0, 69, 41
1, 782363, Note_off_c, 0, 71, 37
1, 782371, Note_on_c, 0, 49, 31
1, 782375, Note_on_c, 0, 45, 31
1, 782407, Note_off_c, 0, 68, 37
1, 782418, Control_c, 0, 67, 35
1, 782427, Note_off_c, 0, 50, 40
1, 782455, Control_c, 0, 67, 35
1, 782462, Note_off_c, 0, 40, 42
1, 782515, Control_c, 0, 67, 34
1, 782529, Control_c, 0, 67, 34
1, 782544, Control_c, 0, 67, 33
1, 782559, Control_c, 0, 67, 33
1, 782574, Control_c, 0, 67, 32
1, 782589, Control_c, 0, 67, 32
1, 782618, Control_c, 0, 67, 31
1, 782633, Control_c, 0, 67, 31
1, 782662, Control_c, 0, 67, 30
1, 782677, Control_c, 0, 64, 45
1, 782677, Control_c, 0, 67, 30
1, 782692, Control_c, 0, 64, 59
1, 782707, Control_c, 0, 64, 63
1, 782721, Control_c, 0, 64, 65
1, 782721, Control_c, 0, 67, 29
1, 782736, Control_c, 0, 64, 67
1, 782751, Control_c, 0, 64, 72
1, 782766, Control_c, 0, 64, 77
1, 782781, Control_c, 0, 64, 83
1, 782795, Control_c, 0, 64, 88
1, 782810, Control_c, 0, 64, 92
1, 782810, Control_c, 0, 67, 30
1, 782825, Note_off_c, 0, 69, 38
1, 782825, Control_c, 0, 64, 99
1, 782839, Note_off_c, 0, 49, 39
1, 782840, Control_c, 0, 64, 110
1, 782842, Note_off_c, 0, 45, 41
1, 782855, Control_c, 0, 64, 127
1, 782855, Control_c, 0, 67, 30
1, 782869, Control_c, 0, 67, 31
1, 782884, Control_c, 0, 67, 31
1, 782899, Control_c, 0, 67, 32
1, 782914, Control_c, 0, 67, 32
1, 782929, Control_c, 0, 67, 33
1, 782944, Control_c, 0, 67, 33
1, 782959, Control_c, 0, 67, 34
1, 782989, Control_c, 0, 67, 34
1, 783003, Control_c, 0, 67, 35
1, 783047, Control_c, 0, 67, 35
1, 783092, Control_c, 0, 64, 103
1, 783107, Control_c, 0, 64, 84
1, 783123, Control_c, 0, 64, 70
1, 783138, Control_c, 0, 64, 56
1, 783138, Control_c, 0, 67, 35
1, 783152, Control_c, 0, 64, 0
1, 783167, Control_c, 0, 67, 34
1, 783204, Control_c, 0, 67, 33
1, 783233, Control_c, 0, 67, 32
1, 783248, Control_c, 0, 67, 32
1, 783268, Note_on_c, 0, 69, 46
1, 783281, Note_on_c, 0, 57, 38
1, 783293, Control_c, 0, 67, 31
1, 783308, Control_c, 0, 67, 31
1, 783337, Control_c, 0, 67, 30
1, 783352, Control_c, 0, 67, 30
1, 783367, Control_c, 0, 67, 29
1, 783382, Control_c, 0, 67, 29
1, 783396, Control_c, 0, 67, 28
1, 783411, Control_c, 0, 67, 27
1, 783426, Control_c, 0, 67, 26
1, 783441, Control_c, 0, 67, 24
1, 783456, Control_c, 0, 67, 21
1, 783470, Control_c, 0, 67, 19
1, 783485, Control_c, 0, 67, 17
1, 783486, Note_on_c, 0, 71, 55
1, 783500, Control_c, 0, 67, 15
1, 783507, Note_on_c, 0, 59, 41
1, 783515, Control_c, 0, 67, 14
1, 783520, Note_off_c, 0, 57, 52
1, 783530, Control_c, 0, 67, 11
1, 783544, Control_c, 0, 67, 8
1, 783559, Control_c, 0, 67, 0
1, 783569, Note_off_c, 0, 69, 56
1, 783681, Note_off_c, 0, 59, 52
1, 783684, Note_on_c, 0, 73, 68
1, 783706, Note_on_c, 0, 61, 38
1, 783711, Note_off_c, 0, 71, 57
1, 783782, Control_c, 0, 64, 43
1, 783788, Note_off_c, 0, 73, 58
1, 783796, Control_c, 0, 64, 65
1, 783811, Control_c, 0, 64, 73
1, 783826, Control_c, 0, 64, 84
1, 783841, Control_c, 0, 64, 96
1, 783856, Control_c, 0, 64, 114
1, 783870, Control_c, 0, 64, 127
1, 783890, Note_off_c, 0, 61, 53
1, 784002, Note_on_c, 0, 74, 64
1, 784012, Control_c, 0, 64, 109
1, 784026, Control_c, 0, 64, 92
1, 784032, Note_on_c, 0, 62, 36
1, 784041, Control_c, 0, 64, 81
1, 784056, Control_c, 0, 64, 73
1, 784071, Control_c, 0, 64, 66
1, 784086, Control_c, 0, 64, 61
1, 784101, Control_c, 0, 64, 47
1, 784115, Control_c, 0, 64, 0
1, 784525, Note_on_c, 0, 54, 44
1, 784528, Note_on_c, 0, 50, 43
1, 784938, Control_c, 0, 64, 41
1, 784953, Control_c, 0, 64, 56
1, 784968, Control_c, 0, 64, 62
1, 784983, Control_c, 0, 64, 64
1, 784998, Control_c, 0, 64, 66
1, 785013, Control_c, 0, 64, 69
1, 785028, Control_c, 0, 64, 73
1, 785042, Control_c, 0, 64, 77
1, 785057, Control_c, 0, 64, 82
1, 785072, Control_c, 0, 64, 87
1, 785087, Control_c, 0, 64, 95
1, 785102, Control_c, 0, 64, 109
1, 785116, Control_c, 0, 64, 127
1, 785151, Note_off_c, 0, 50, 35
1, 785171, Note_off_c, 0, 54, 29
1, 785264, Control_c, 0, 67, 8
1, 785279, Control_c, 0, 67, 10
1, 785294, Control_c, 0, 67, 11
1, 785308, Control_c, 0, 67, 11
1, 785323, Control_c, 0, 67, 12
1, 785353, Control_c, 0, 67, 12
1, 785392, Note_on_c, 0, 73, 41
1, 785397, Control_c, 0, 67, 13
1, 785442, Note_off_c, 0, 74, 53
1, 785461, Note_on_c, 0, 71, 54
1, 785494, Control_c, 0, 64, 112
1, 785509, Control_c, 0, 64, 98
1, 785525, Control_c, 0, 64, 86
1, 785527, Note_off_c, 0, 62, 38
1, 785540, Control_c, 0, 64, 79
1, 785554, Control_c, 0, 64, 73
1, 785569, Control_c, 0, 64, 68
1, 785576, Note_off_c, 0, 73, 32
1, 785584, Control_c, 0, 64, 63
1, 785594, Note_on_c, 0, 69, 51
1, 785599, Control_c, 0, 64, 56
1, 785614, Control_c, 0, 64, 43
1, 785623, Note_on_c, 0, 57, 43
1, 785624, Note_off_c, 0, 71, 49
1, 785628, Control_c, 0, 64, 21
1, 785643, Control_c, 0, 64, 0
1, 785658, Control_c, 0, 67, 12
1, 785761, Control_c, 0, 67, 13
1, 785821, Control_c, 0, 67, 13
1, 785835, Control_c, 0, 67, 14
1, 785865, Control_c, 0, 67, 14
1, 785880, Control_c, 0, 67, 18
1, 785895, Control_c, 0, 67, 22
1, 785910, Control_c, 0, 67, 24
1, 785925, Control_c, 0, 67, 26
1, 785939, Control_c, 0, 67, 26
1, 785954, Control_c, 0, 67, 27
1, 785969, Control_c, 0, 67, 27
1, 785984, Control_c, 0, 67, 28
1, 786013, Control_c, 0, 67, 28
1, 786028, Control_c, 0, 67, 29
1, 786043, Control_c, 0, 67, 30
1, 786058, Control_c, 0, 67, 31
1, 786072, Control_c, 0, 67, 33
1, 786087, Control_c, 0, 67, 36
1, 786102, Control_c, 0, 67, 38
1, 786117, Control_c, 0, 67, 39
1, 786131, Control_c, 0, 67, 40
1, 786170, Note_on_c, 0, 52, 41
1, 786175, Note_on_c, 0, 49, 36
1, 786176, Control_c, 0, 67, 39
1, 786198, Control_c, 0, 67, 38
1, 786228, Control_c, 0, 67, 37
1, 786243, Control_c, 0, 67, 36
1, 786258, Control_c, 0, 67, 36
1, 786272, Control_c, 0, 64, 41
1, 786287, Control_c, 0, 64, 57
1, 786287, Control_c, 0, 67, 35
1, 786294, Note_off_c, 0, 69, 57
1, 786302, Control_c, 0, 64, 62
1, 786318, Control_c, 0, 64, 63
1, 786318, Control_c, 0, 67, 35
1, 786333, Control_c, 0, 64, 64
1, 786348, Control_c, 0, 64, 66
1, 786363, Control_c, 0, 64, 67
1, 786377, Control_c, 0, 64, 67
1, 786421, Control_c, 0, 64, 68
1, 786490, Note_on_c, 0, 69, 50
1, 786510, Control_c, 0, 64, 67
1, 786525, Control_c, 0, 64, 65
1, 786540, Control_c, 0, 64, 59
1, 786555, Control_c, 0, 64, 36
1, 786555, Control_c, 0, 67, 34
1, 786569, Control_c, 0, 64, 0
1, 786584, Control_c, 0, 67, 33
1, 786599, Control_c, 0, 67, 32
1, 786613, Control_c, 0, 67, 32
1, 786628, Control_c, 0, 67, 31
1, 786643, Control_c, 0, 64, 41
1, 786643, Control_c, 0, 67, 31
1, 786658, Control_c, 0, 64, 56
1, 786658, Control_c, 0, 67, 30
1, 786673, Control_c, 0, 64, 61
1, 786673, Control_c, 0, 67, 30
1, 786688, Control_c, 0, 64, 63
1, 786688, Control_c, 0, 67, 29
1, 786703, Control_c, 0, 64, 64
1, 786703, Control_c, 0, 67, 29
1, 786709, Note_on_c, 0, 71, 53
1, 786718, Control_c, 0, 64, 65
1, 786718, Control_c, 0, 67, 28
1, 786733, Control_c, 0, 64, 67
1, 786733, Control_c, 0, 67, 27
1, 786748, Control_c, 0, 64, 69
1, 786748, Control_c, 0, 67, 26
1, 786751, Note_off_c, 0, 69, 60
1, 786762, Control_c, 0, 64, 70
1, 786762, Control_c, 0, 67, 24
1, 786777, Control_c, 0, 64, 72
1, 786777, Control_c, 0, 67, 23
1, 786792, Control_c, 0, 64, 73
1, 786792, Control_c, 0, 67, 22
1, 786807, Control_c, 0, 64, 74
1, 786807, Control_c, 0, 67, 21
1, 786821, Control_c, 0, 64, 75
1, 786836, Control_c, 0, 64, 76
1, 786836, Control_c, 0, 67, 21
1, 786848, Note_off_c, 0, 52, 62
1, 786851, Control_c, 0, 64, 77
1, 786866, Control_c, 0, 67, 20
1, 786873, Note_off_c, 0, 49, 46
1, 786881, Control_c, 0, 64, 77
1, 786881, Control_c, 0, 67, 20
1, 786895, Control_c, 0, 67, 18
1, 786910, Control_c, 0, 67, 18
1, 786914, Note_off_c, 0, 71, 62
1, 786924, Note_on_c, 0, 67, 52
1, 786925, Control_c, 0, 67, 17
1, 786947, Control_c, 0, 67, 17
1, 787031, Note_off_c, 0, 57, 56
1, 787096, Control_c, 0, 64, 77
1, 787111, Control_c, 0, 64, 76
1, 787126, Control_c, 0, 64, 76
1, 787141, Control_c, 0, 64, 75
1, 787156, Control_c, 0, 64, 74
1, 787171, Control_c, 0, 64, 73
1, 787186, Control_c, 0, 64, 72
1, 787201, Control_c, 0, 64, 71
1, 787201, Control_c, 0, 67, 17
1, 787216, Control_c, 0, 64, 70
1, 787222, Note_on_c, 0, 66, 49
1, 787230, Control_c, 0, 64, 69
1, 787230, Control_c, 0, 67, 18
1, 787245, Control_c, 0, 64, 68
1, 787249, Note_on_c, 0, 54, 20
1, 787259, Note_on_c, 0, 50, 31
1, 787260, Control_c, 0, 64, 67
1, 787275, Control_c, 0, 64, 66
1, 787290, Control_c, 0, 64, 65
1, 787305, Control_c, 0, 64, 63
1, 787305, Control_c, 0, 67, 18
1, 787311, Note_off_c, 0, 67, 35
1, 787319, Control_c, 0, 64, 62
1, 787319, Control_c, 0, 67, 19
1, 787334, Control_c, 0, 64, 60
1, 787349, Control_c, 0, 64, 54
1, 787349, Control_c, 0, 67, 19
1, 787364, Control_c, 0, 64, 41
1, 787364, Control_c, 0, 67, 20
1, 787379, Control_c, 0, 64, 0
1, 787379, Control_c, 0, 67, 20
1, 787393, Control_c, 0, 67, 21
1, 787578, Note_off_c, 0, 50, 53
1, 787597, Note_off_c, 0, 54, 50
1, 787606, Note_on_c, 0, 67, 45
1, 787609, Note_on_c, 0, 55, 45
1, 787609, Note_on_c, 0, 52, 43
1, 787628, Note_off_c, 0, 66, 61
1, 787711, Control_c, 0, 67, 20
1, 787720, Note_off_c, 0, 55, 61
1, 787722, Note_on_c, 0, 69, 59
1, 787725, Control_c, 0, 67, 20
1, 787727, Note_off_c, 0, 52, 59
1, 787734, Note_on_c, 0, 54, 39
1, 787737, Note_off_c, 0, 67, 54
1, 787739, Note_on_c, 0, 57, 43
1, 787755, Control_c, 0, 67, 19
1, 787770, Control_c, 0, 67, 18
1, 787785, Control_c, 0, 67, 17
1, 787800, Control_c, 0, 67, 16
1, 787815, Control_c, 0, 67, 15
1, 787830, Control_c, 0, 67, 14
1, 787844, Control_c, 0, 64, 51
1, 787844, Control_c, 0, 67, 0
1, 787859, Control_c, 0, 64, 65
1, 787874, Control_c, 0, 64, 72
1, 787889, Control_c, 0, 64, 79
1, 787904, Control_c, 0, 64, 86
1, 787919, Control_c, 0, 64, 97
1, 787934, Control_c, 0, 64, 107
1, 787942, Note_off_c, 0, 54, 56
1, 787949, Control_c, 0, 64, 121
1, 787964, Control_c, 0, 64, 127
1, 788189, Note_on_c, 0, 71, 63
1, 788200, Control_c, 0, 64, 110
1, 788210, Note_on_c, 0, 59, 40
1, 788211, Note_on_c, 0, 55, 39
1, 788215, Control_c, 0, 64, 94
1, 788217, Note_off_c, 0, 57, 36
1, 788221, Note_on_c, 0, 52, 44
1, 788230, Control_c, 0, 64, 78
1, 788245, Control_c, 0, 64, 64
1, 788259, Control_c, 0, 64, 0
1, 788266, Note_off_c, 0, 69, 54
1, 788333, Control_c, 0, 64, 41
1, 788348, Control_c, 0, 64, 59
1, 788363, Control_c, 0, 64, 64
1, 788378, Control_c, 0, 64, 67
1, 788393, Control_c, 0, 64, 72
1, 788394, Note_on_c, 0, 73, 69
1, 788398, Note_off_c, 0, 59, 62
1, 788408, Control_c, 0, 64, 78
1, 788410, Note_off_c, 0, 55, 61
1, 788423, Control_c, 0, 64, 84
1, 788429, Note_on_c, 0, 61, 47
1, 788442, Note_off_c, 0, 52, 65
1, 788445, Control_c, 0, 64, 90
1, 788454, Note_off_c, 0, 71, 60
1, 788460, Control_c, 0, 64, 95
1, 788474, Control_c, 0, 64, 101
1, 788489, Control_c, 0, 64, 110
1, 788504, Control_c, 0, 64, 121
1, 788519, Control_c, 0, 64, 127
1, 788557, Note_off_c, 0, 61, 38
1, 788597, Note_off_c, 0, 73, 61
1, 788697, Control_c, 0, 64, 110
1, 788703, Note_on_c, 0, 73, 72
1, 788712, Control_c, 0, 64, 97
1, 788727, Control_c, 0, 64, 87
1, 788736, Note_on_c, 0, 55, 43
1, 788739, Note_on_c, 0, 61, 36
1, 788742, Control_c, 0, 64, 78
1, 788757, Control_c, 0, 64, 71
1, 788772, Control_c, 0, 64, 65
1, 788773, Note_on_c, 0, 50, 25
1, 788775, Note_on_c, 0, 52, 27
1, 788787, Control_c, 0, 64, 49
1, 788801, Control_c, 0, 64, 0
1, 788920, Control_c, 0, 64, 48
1, 788935, Control_c, 0, 64, 59
1, 788950, Control_c, 0, 64, 64
1, 788964, Control_c, 0, 64, 67
1, 788979, Control_c, 0, 64, 72
1, 788994, Control_c, 0, 64, 78
1, 789008, Control_c, 0, 64, 82
1, 789023, Control_c, 0, 64, 85
1, 789038, Control_c, 0, 64, 88
1, 789053, Control_c, 0, 64, 91
1, 789068, Control_c, 0, 64, 92
1, 789082, Control_c, 0, 64, 93
1, 789094, Note_off_c, 0, 61, 60
1, 789138, Note_off_c, 0, 52, 41
1, 789156, Control_c, 0, 64, 92
1, 789191, Note_off_c, 0, 55, 35
1, 789194, Control_c, 0, 64, 89
1, 789209, Control_c, 0, 64, 77
1, 789223, Control_c, 0, 64, 62
1, 789224, Note_on_c, 0, 74, 61
1, 789238, Control_c, 0, 64, 0
1, 789247, Note_on_c, 0, 62, 42
1, 789248, Note_on_c, 0, 54, 32
1, 789261, Note_off_c, 0, 73, 61
1, 789312, Control_c, 0, 64, 55
1, 789319, Note_off_c, 0, 50, 39
1, 789327, Control_c, 0, 64, 67
1, 789341, Control_c, 0, 64, 75
1, 789356, Control_c, 0, 64, 87
1, 789362, Note_off_c, 0, 54, 56
1, 789371, Control_c, 0, 64, 93
1, 789386, Control_c, 0, 64, 98
1, 789401, Control_c, 0, 64, 101
1, 789409, Note_off_c, 0, 74, 63
1, 789415, Control_c, 0, 64, 101
1, 789445, Note_off_c, 0, 62, 40
1, 789490, Control_c, 0, 64, 101
1, 789520, Control_c, 0, 64, 99
1, 789535, Control_c, 0, 64, 96
1, 789550, Control_c, 0, 64, 92
1, 789565, Control_c, 0, 64, 88
1, 789572, Note_on_c, 0, 74, 60
1, 789580, Control_c, 0, 64, 84
1, 789594, Control_c, 0, 64, 80
1, 789603, Note_on_c, 0, 62, 48
1, 789609, Control_c, 0, 64, 77
1, 789624, Control_c, 0, 64, 75
1, 789639, Control_c, 0, 64, 71
1, 789654, Control_c, 0, 64, 69
1, 789669, Control_c, 0, 64, 66
1, 789684, Control_c, 0, 64, 64
1, 789699, Control_c, 0, 64, 62
1, 789713, Control_c, 0, 64, 59
1, 789728, Control_c, 0, 64, 54
1, 789743, Control_c, 0, 64, 42
1, 789757, Control_c, 0, 64, 23
1, 789772, Control_c, 0, 64, 0
1, 789829, Note_on_c, 0, 78, 73
1, 789855, Note_off_c, 0, 62, 50
1, 789860, Note_on_c, 0, 66, 39
1, 789925, Note_off_c, 0, 74, 58
1, 790044, Note_on_c, 0, 81, 78
1, 790069, Note_on_c, 0, 69, 49
1, 790076, Control_c, 0, 64, 37
1, 790091, Control_c, 0, 64, 60
1, 790106, Control_c, 0, 64, 67
1, 790110, Note_off_c, 0, 78, 60
1, 790120, Control_c, 0, 64, 75
1, 790122, Note_off_c, 0, 66, 36
1, 790135, Control_c, 0, 64, 86
1, 790150, Control_c, 0, 64, 98
1, 790164, Control_c, 0, 64, 115
1, 790179, Control_c, 0, 64, 127
1, 790360, Note_on_c, 0, 78, 74
1, 790373, Control_c, 0, 64, 110
1, 790387, Control_c, 0, 64, 102
1, 790396, Note_on_c, 0, 66, 45
1, 790402, Control_c, 0, 64, 95
1, 790407, Note_on_c, 0, 57, 38
1, 790417, Control_c, 0, 64, 88
1, 790432, Note_on_c, 0, 55, 31
1, 790432, Control_c, 0, 64, 84
1, 790440, Note_off_c, 0, 81, 59
1, 790447, Control_c, 0, 64, 80
1, 790462, Control_c, 0, 64, 76
1, 790477, Control_c, 0, 64, 72
1, 790492, Control_c, 0, 64, 67
1, 790506, Control_c, 0, 64, 60
1, 790516, Note_off_c, 0, 69, 39
1, 790521, Control_c, 0, 64, 40
1, 790536, Control_c, 0, 64, 0
1, 790654, Control_c, 0, 64, 54
1, 790669, Control_c, 0, 64, 64
1, 790692, Control_c, 0, 64, 69
1, 790707, Control_c, 0, 64, 73
1, 790722, Control_c, 0, 64, 78
1, 790736, Control_c, 0, 64, 86
1, 790751, Control_c, 0, 64, 99
1, 790766, Control_c, 0, 64, 127
1, 790988, Note_off_c, 0, 66, 56
1, 790994, Note_off_c, 0, 78, 60
1, 791239, Note_on_c, 0, 76, 52
1, 791258, Note_on_c, 0, 64, 38
1, 791389, Control_c, 0, 64, 115
1, 791404, Control_c, 0, 64, 102
1, 791419, Control_c, 0, 64, 91
1, 791441, Control_c, 0, 64, 79
1, 791454, Control_c, 0, 64, 67
1, 791469, Control_c, 0, 64, 56
1, 791484, Control_c, 0, 64, 28
1, 791484, Note_on_c, 0, 71, 62
1, 791493, Note_on_c, 0, 59, 37
1, 791499, Control_c, 0, 64, 12
1, 791514, Control_c, 0, 64, 33
1, 791529, Control_c, 0, 64, 47
1, 791543, Control_c, 0, 64, 56
1, 791558, Control_c, 0, 64, 62
1, 791573, Control_c, 0, 64, 64
1, 791574, Note_off_c, 0, 76, 62
1, 791588, Control_c, 0, 64, 66
1, 791603, Control_c, 0, 64, 67
1, 791612, Note_off_c, 0, 64, 38
1, 791617, Control_c, 0, 64, 70
1, 791632, Control_c, 0, 64, 74
1, 791647, Control_c, 0, 64, 77
1, 791660, Note_on_c, 0, 73, 69
1, 791662, Control_c, 0, 64, 81
1, 791676, Control_c, 0, 64, 84
1, 791678, Note_on_c, 0, 61, 50
1, 791682, Note_off_c, 0, 57, 32
1, 791687, Note_off_c, 0, 55, 43
1, 791691, Control_c, 0, 64, 86
1, 791706, Control_c, 0, 64, 88
1, 791721, Control_c, 0, 64, 89
1, 791735, Control_c, 0, 64, 90
1, 791741, Note_off_c, 0, 59, 41
1, 791750, Control_c, 0, 64, 90
1, 791853, Note_off_c, 0, 71, 36
1, 791884, Note_off_c, 0, 61, 37
1, 791914, Control_c, 0, 64, 89
1, 791929, Control_c, 0, 64, 86
1, 791944, Control_c, 0, 64, 82
1, 791959, Control_c, 0, 64, 79
1, 791969, Note_on_c, 0, 76, 65
1, 791974, Control_c, 0, 64, 77
1, 791988, Control_c, 0, 64, 75
1, 792003, Control_c, 0, 64, 73
1, 792015, Note_on_c, 0, 64, 35
1, 792018, Control_c, 0, 64, 70
1, 792027, Note_on_c, 0, 54, 30
1, 792032, Note_on_c, 0, 57, 25
1, 792033, Control_c, 0, 64, 67
1, 792048, Control_c, 0, 64, 64
1, 792055, Note_off_c, 0, 73, 48
1, 792063, Control_c, 0, 64, 62
1, 792077, Control_c, 0, 64, 56
1, 792092, Control_c, 0, 64, 42
1, 792107, Control_c, 0, 64, 0
1, 792247, Control_c, 0, 67, 10
1, 792262, Control_c, 0, 67, 13
1, 792277, Control_c, 0, 67, 16
1, 792292, Control_c, 0, 67, 18
1, 792307, Control_c, 0, 67, 19
1, 792322, Control_c, 0, 67, 20
1, 792337, Control_c, 0, 67, 21
1, 792352, Control_c, 0, 67, 22
1, 792366, Control_c, 0, 67, 24
1, 792381, Control_c, 0, 67, 26
1, 792396, Control_c, 0, 67, 27
1, 792411, Control_c, 0, 67, 28
1, 792426, Control_c, 0, 67, 29
1, 792440, Control_c, 0, 67, 30
1, 792455, Control_c, 0, 67, 31
1, 792470, Control_c, 0, 64, 29
1, 792470, Control_c, 0, 67, 32
1, 792485, Control_c, 0, 64, 49
1, 792485, Control_c, 0, 67, 34
1, 792500, Control_c, 0, 64, 57
1, 792500, Control_c, 0, 67, 35
1, 792514, Control_c, 0, 64, 61
1, 792514, Control_c, 0, 67, 38
1, 792529, Control_c, 0, 64, 63
1, 792529, Control_c, 0, 67, 41
1, 792544, Control_c, 0, 64, 65
1, 792544, Control_c, 0, 67, 45
1, 792558, Control_c, 0, 64, 67
1, 792558, Control_c, 0, 67, 48
1, 792573, Control_c, 0, 64, 68
1, 792573, Control_c, 0, 67, 51
1, 792588, Control_c, 0, 64, 70
1, 792588, Control_c, 0, 67, 54
1, 792603, Control_c, 0, 67, 57
1, 792618, Control_c, 0, 67, 61
1, 792632, Control_c, 0, 67, 64
1, 792647, Control_c, 0, 67, 67
1, 792662, Control_c, 0, 67, 69
1, 792677, Control_c, 0, 67, 72
1, 792692, Control_c, 0, 67, 74
1, 792708, Control_c, 0, 67, 75
1, 792722, Control_c, 0, 67, 76
1, 792727, Note_off_c, 0, 76, 61
1, 792736, Note_off_c, 0, 57, 44
1, 792753, Note_on_c, 0, 74, 48
1, 792762, Note_on_c, 0, 62, 43
1, 792796, Control_c, 0, 64, 69
1, 792798, Note_off_c, 0, 54, 54
1, 792820, Note_off_c, 0, 64, 42
1, 792841, Control_c, 0, 64, 69
1, 792870, Control_c, 0, 64, 68
1, 792885, Control_c, 0, 67, 76
1, 792900, Control_c, 0, 64, 68
1, 792915, Control_c, 0, 64, 67
1, 792937, Control_c, 0, 67, 77
1, 792952, Control_c, 0, 64, 67
1, 792967, Control_c, 0, 64, 66
1, 792996, Control_c, 0, 64, 66
1, 792996, Control_c, 0, 67, 77
1, 793011, Control_c, 0, 64, 64
1, 793011, Control_c, 0, 67, 78
1, 793021, Note_on_c, 0, 66, 56
1, 793026, Control_c, 0, 64, 61
1, 793032, Note_off_c, 0, 74, 62
1, 793041, Control_c, 0, 64, 45
1, 793041, Control_c, 0, 67, 78
1, 793046, Note_on_c, 0, 50, 42
1, 793048, Note_on_c, 0, 54, 37
1, 793055, Control_c, 0, 64, 0
1, 793055, Control_c, 0, 67, 82
1, 793067, Note_off_c, 0, 62, 42
1, 793070, Control_c, 0, 67, 85
1, 793085, Control_c, 0, 67, 89
1, 793100, Control_c, 0, 67, 92
1, 793115, Control_c, 0, 67, 95
1, 793130, Control_c, 0, 64, 44
1, 793130, Control_c, 0, 67, 97
1, 793145, Control_c, 0, 64, 62
1, 793145, Control_c, 0, 67, 99
1, 793160, Control_c, 0, 64, 68
1, 793160, Control_c, 0, 67, 101
1, 793174, Control_c, 0, 64, 72
1, 793174, Control_c, 0, 67, 102
1, 793189, Control_c, 0, 64, 75
1, 793189, Control_c, 0, 67, 104
1, 793204, Control_c, 0, 64, 76
1, 793204, Control_c, 0, 67, 106
1, 793219, Control_c, 0, 64, 77
1, 793219, Control_c, 0, 67, 108
1, 793234, Control_c, 0, 67, 110
1, 793249, Control_c, 0, 67, 113
1, 793263, Control_c, 0, 67, 115
1, 793278, Control_c, 0, 67, 117
1, 793293, Control_c, 0, 67, 119
1, 793307, Control_c, 0, 67, 122
1, 793322, Control_c, 0, 67, 125
1, 793337, Control_c, 0, 67, 127
1, 793352, Control_c, 0, 67, 127
1, 793360, Note_off_c, 0, 54, 40
1, 793368, Note_off_c, 0, 50, 39
1, 793385, Note_on_c, 0, 52, 53
1, 793386, Note_on_c, 0, 67, 53
1, 793395, Note_on_c, 0, 55, 29
1, 793419, Note_off_c, 0, 66, 51
1, 793426, Control_c, 0, 64, 76
1, 793432, Note_off_c, 0, 55, 55
1, 793441, Control_c, 0, 64, 76
1, 793455, Control_c, 0, 64, 75
1, 793462, Note_off_c, 0, 52, 65
1, 793470, Control_c, 0, 64, 73
1, 793485, Control_c, 0, 64, 67
1, 793501, Control_c, 0, 64, 58
1, 793516, Control_c, 0, 64, 0
1, 793522, Note_on_c, 0, 54, 46
1, 793526, Note_on_c, 0, 69, 56
1, 793541, Note_on_c, 0, 45, 41
1, 793541, Note_on_c, 0, 57, 29
1, 793551, Note_off_c, 0, 67, 53
1, 793663, Note_off_c, 0, 69, 61
1, 793682, Note_off_c, 0, 57, 48
1, 793688, Note_off_c, 0, 54, 61
1, 793701, Note_off_c, 0, 45, 62
1, 793994, Note_on_c, 0, 67, 46
1, 794012, Control_c, 0, 64, 8
1, 794015, Note_on_c, 0, 55, 25
1, 794019, Note_on_c, 0, 52, 24
1, 794023, Note_on_c, 0, 45, 29
1, 794027, Control_c, 0, 64, 54
1, 794042, Control_c, 0, 64, 64
1, 794057, Control_c, 0, 64, 65
1, 794072, Control_c, 0, 64, 58
1, 794086, Control_c, 0, 64, 0
1, 794153, Note_off_c, 0, 55, 39
1, 794160, Note_off_c, 0, 67, 60
1, 794167, Note_off_c, 0, 45, 45
1, 794183, Note_off_c, 0, 52, 49
1, 794521, Note_on_c, 0, 64, 40
1, 794529, Note_on_c, 0, 52, 33
1, 794531, Note_on_c, 0, 49, 20
1, 794539, Note_on_c, 0, 45, 29
1, 794642, Control_c, 0, 67, 125
1, 794657, Control_c, 0, 67, 120
1, 794672, Control_c, 0, 67, 113
1, 794687, Control_c, 0, 67, 106
1, 794701, Control_c, 0, 67, 98
1, 794705, Note_off_c, 0, 52, 62
1, 794705, Note_off_c, 0, 45, 58
1, 794707, Note_off_c, 0, 64, 63
1, 794716, Control_c, 0, 67, 89
1, 794731, Control_c, 0, 67, 80
1, 794736, Note_off_c, 0, 49, 56
1, 794746, Control_c, 0, 67, 71
1, 794760, Control_c, 0, 67, 62
1, 794775, Control_c, 0, 67, 50
1, 794790, Control_c, 0, 67, 42
1, 794805, Control_c, 0, 67, 35
1, 794820, Control_c, 0, 67, 30
1, 794835, Control_c, 0, 67, 25
1, 794850, Control_c, 0, 67, 21
1, 794865, Control_c, 0, 67, 16
1, 794879, Control_c, 0, 67, 12
1, 794894, Control_c, 0, 67, 8
1, 794909, Control_c, 0, 67, 0
1, 795086, Control_c, 0, 64, 27
1, 795103, Control_c, 0, 64, 43
1, 795118, Control_c, 0, 64, 51
1, 795132, Control_c, 0, 64, 54
1, 795147, Control_c, 0, 64, 58
1, 795162, Control_c, 0, 64, 60
1, 795174, Note_on_c, 0, 74, 70
1, 795184, Control_c, 0, 64, 61
1, 795198, Control_c, 0, 64, 62
1, 795212, Note_on_c, 0, 62, 40
1, 795213, Control_c, 0, 64, 63
1, 795228, Control_c, 0, 64, 64
1, 795243, Control_c, 0, 64, 64
1, 795246, Note_on_c, 0, 54, 25
1, 795258, Control_c, 0, 64, 65
1, 795267, Note_off_c, 0, 62, 0
1, 795267, Note_on_c, 0, 62, 6
1, 795271, Note_on_c, 0, 50, 32
1, 795273, Control_c, 0, 64, 65
1, 795288, Control_c, 0, 64, 66
1, 795303, Control_c, 0, 64, 68
1, 795318, Control_c, 0, 64, 71
1, 795332, Control_c, 0, 64, 73
1, 795347, Control_c, 0, 64, 77
1, 795362, Control_c, 0, 64, 80
1, 795376, Control_c, 0, 64, 85
1, 795391, Control_c, 0, 64, 91
1, 795406, Control_c, 0, 64, 99
1, 795421, Control_c, 0, 64, 119
1, 795436, Control_c, 0, 64, 127
1, 795965, Note_on_c, 0, 73, 63
1, 795982, Note_off_c, 0, 54, 41
1, 795986, Note_on_c, 0, 61, 44
1, 795990, Note_on_c, 0, 52, 43
1, 795999, Note_off_c, 0, 74, 61
1, 796077, Note_off_c, 0, 62, 42
1, 796140, Control_c, 0, 67, 9
1, 796155, Control_c, 0, 67, 13
1, 796170, Control_c, 0, 67, 15
1, 796182, Note_off_c, 0, 61, 56
1, 796185, Control_c, 0, 64, 121
1, 796185, Control_c, 0, 67, 17
1, 796185, Note_on_c, 0, 74, 68
1, 796197, Note_on_c, 0, 62, 47
1, 796199, Control_c, 0, 64, 110
1, 796199, Control_c, 0, 67, 19
1, 796208, Note_on_c, 0, 54, 52
1, 796214, Control_c, 0, 64, 102
1, 796214, Control_c, 0, 67, 20
1, 796221, Note_off_c, 0, 73, 61
1, 796229, Control_c, 0, 64, 97
1, 796229, Control_c, 0, 67, 21
1, 796244, Control_c, 0, 64, 91
1, 796244, Control_c, 0, 67, 22
1, 796259, Control_c, 0, 64, 87
1, 796259, Control_c, 0, 67, 22
1, 796273, Control_c, 0, 64, 84
1, 796273, Control_c, 0, 67, 23
1, 796274, Note_off_c, 0, 52, 30
1, 796288, Control_c, 0, 64, 82
1, 796303, Control_c, 0, 64, 80
1, 796303, Control_c, 0, 67, 24
1, 796305, Note_off_c, 0, 50, 30
1, 796318, Control_c, 0, 64, 78
1, 796318, Control_c, 0, 67, 26
1, 796332, Control_c, 0, 64, 76
1, 796332, Control_c, 0, 67, 27
1, 796347, Control_c, 0, 64, 74
1, 796347, Control_c, 0, 67, 28
1, 796362, Control_c, 0, 64, 72
1, 796362, Control_c, 0, 67, 29
1, 796377, Control_c, 0, 64, 70
1, 796377, Control_c, 0, 67, 31
1, 796388, Note_on_c, 0, 71, 72
1, 796392, Control_c, 0, 64, 68
1, 796392, Control_c, 0, 67, 33
1, 796403, Note_on_c, 0, 59, 46
1, 796406, Control_c, 0, 64, 67
1, 796406, Control_c, 0, 67, 34
1, 796409, Note_on_c, 0, 55, 41
1, 796421, Control_c, 0, 64, 65
1, 796421, Control_c, 0, 67, 34
1, 796428, Note_off_c, 0, 54, 59
1, 796436, Control_c, 0, 64, 65
1, 796444, Note_off_c, 0, 55, 65
1, 796451, Control_c, 0, 64, 64
1, 796451, Control_c, 0, 67, 35
1, 796466, Control_c, 0, 64, 64
1, 796480, Control_c, 0, 64, 63
1, 796482, Note_off_c, 0, 74, 37
1, 796487, Note_off_c, 0, 62, 38
1, 796495, Control_c, 0, 64, 63
1, 796510, Control_c, 0, 64, 62
1, 796516, Note_off_c, 0, 59, 54
1, 796525, Control_c, 0, 64, 61
1, 796540, Control_c, 0, 64, 61
1, 796555, Control_c, 0, 64, 60
1, 796570, Control_c, 0, 64, 59
1, 796570, Control_c, 0, 67, 34
1, 796585, Control_c, 0, 64, 57
1, 796585, Control_c, 0, 67, 34
1, 796599, Control_c, 0, 64, 55
1, 796614, Control_c, 0, 64, 51
1, 796614, Control_c, 0, 67, 33
1, 796629, Note_on_c, 0, 69, 63
1, 796629, Control_c, 0, 64, 49
1, 796629, Control_c, 0, 67, 33
1, 796644, Control_c, 0, 64, 48
1, 796653, Note_on_c, 0, 54, 44
1, 796658, Note_on_c, 0, 57, 45
1, 796659, Control_c, 0, 64, 45
1, 796659, Control_c, 0, 67, 32
1, 796680, Control_c, 0, 64, 42
1, 796680, Control_c, 0, 67, 32
1, 796683, Note_on_c, 0, 45, 41
1, 796695, Control_c, 0, 64, 36
1, 796711, Control_c, 0, 64, 26
1, 796726, Control_c, 0, 64, 0
1, 796746, Note_off_c, 0, 71, 35
1, 796796, Note_off_c, 0, 57, 53
1, 796802, Note_off_c, 0, 54, 62
1, 796806, Note_off_c, 0, 69, 65
1, 796838, Note_off_c, 0, 45, 61
1, 796844, Control_c, 0, 67, 31
1, 796874, Control_c, 0, 67, 31
1, 796889, Control_c, 0, 67, 30
1, 796904, Control_c, 0, 67, 30
1, 796918, Control_c, 0, 67, 29
1, 796933, Control_c, 0, 67, 29
1, 796948, Control_c, 0, 67, 28
1, 796963, Control_c, 0, 67, 28
1, 796978, Control_c, 0, 67, 27
1, 796993, Control_c, 0, 67, 26
1, 797008, Control_c, 0, 67, 25
1, 797022, Control_c, 0, 67, 25
1, 797037, Control_c, 0, 67, 24
1, 797052, Control_c, 0, 67, 23
1, 797067, Control_c, 0, 67, 22
1, 797082, Control_c, 0, 67, 22
1, 797096, Control_c, 0, 67, 18
1, 797103, Note_on_c, 0, 67, 57
1, 797111, Control_c, 0, 67, 14
1, 797124, Note_on_c, 0, 52, 39
1, 797126, Control_c, 0, 67, 11
1, 797127, Note_on_c, 0, 55, 28
1, 797132, Note_on_c, 0, 45, 37
1, 797141, Control_c, 0, 67, 0
1, 797170, Control_c, 0, 64, 10
1, 797185, Control_c, 0, 64, 61
1, 797200, Control_c, 0, 64, 68
1, 797229, Control_c, 0, 64, 64
1, 797244, Control_c, 0, 64, 49
1, 797259, Control_c, 0, 64, 0
1, 797266, Note_off_c, 0, 55, 51
1, 797288, Note_off_c, 0, 52, 59
1, 797296, Note_off_c, 0, 67, 61
1, 797308, Note_off_c, 0, 45, 47
1, 797607, Note_on_c, 0, 64, 47
1, 797620, Note_on_c, 0, 49, 31
1, 797623, Note_on_c, 0, 52, 29
1, 797625, Note_on_c, 0, 45, 32
1, 797713, Control_c, 0, 64, 57
1, 797727, Control_c, 0, 64, 68
1, 797742, Control_c, 0, 64, 77
1, 797757, Control_c, 0, 64, 90
1, 797768, Note_off_c, 0, 64, 59
1, 797771, Control_c, 0, 64, 102
1, 797784, Note_off_c, 0, 52, 58
1, 797786, Control_c, 0, 64, 121
1, 797798, Note_off_c, 0, 45, 55
1, 797801, Control_c, 0, 64, 127
1, 797833, Note_off_c, 0, 49, 51
1, 797875, Control_c, 0, 64, 95
1, 797890, Control_c, 0, 64, 72
1, 797905, Control_c, 0, 64, 48
1, 797920, Control_c, 0, 64, 0
1, 798157, Control_c, 0, 64, 42
1, 798179, Control_c, 0, 64, 55
1, 798193, Control_c, 0, 64, 62
1, 798208, Control_c, 0, 64, 65
1, 798223, Control_c, 0, 64, 68
1, 798238, Control_c, 0, 64, 72
1, 798252, Control_c, 0, 64, 77
1, 798267, Control_c, 0, 64, 79
1, 798282, Control_c, 0, 64, 80
1, 798298, Control_c, 0, 64, 81
1, 798309, Note_on_c, 0, 78, 78
1, 798313, Control_c, 0, 64, 84
1, 798327, Control_c, 0, 64, 86
1, 798342, Control_c, 0, 64, 89
1, 798351, Note_on_c, 0, 66, 34
1, 798357, Control_c, 0, 64, 93
1, 798372, Control_c, 0, 64, 98
1, 798385, Note_on_c, 0, 57, 34
1, 798387, Control_c, 0, 64, 107
1, 798395, Note_on_c, 0, 62, 36
1, 798400, Note_off_c, 0, 66, 0
1, 798400, Note_on_c, 0, 66, 8
1, 798401, Control_c, 0, 64, 127
1, 798403, Note_on_c, 0, 50, 32
1, 798813, Note_off_c, 0, 50, 40
1, 798857, Note_off_c, 0, 62, 40
1, 798932, Note_off_c, 0, 57, 40
1, 799180, Control_c, 0, 67, 9
1, 799195, Control_c, 0, 67, 12
1, 799210, Control_c, 0, 67, 16
1, 799224, Control_c, 0, 67, 18
1, 799239, Control_c, 0, 67, 20
1, 799254, Control_c, 0, 67, 22
1, 799269, Control_c, 0, 67, 23
1, 799284, Control_c, 0, 67, 25
1, 799298, Control_c, 0, 67, 26
1, 799306, Note_on_c, 0, 76, 63
1, 799313, Control_c, 0, 64, 82
1, 799313, Control_c, 0, 67, 30
1, 799328, Control_c, 0, 64, 66
1, 799328, Control_c, 0, 67, 32
1, 799338, Note_on_c, 0, 64, 35
1, 799339, Note_on_c, 0, 58, 34
1, 799342, Control_c, 0, 64, 53
1, 799342, Control_c, 0, 67, 34
1, 799351, Note_on_c, 0, 54, 36
1, 799357, Control_c, 0, 64, 42
1, 799357, Control_c, 0, 67, 36
1, 799372, Control_c, 0, 64, 51
1, 799372, Control_c, 0, 67, 38
1, 799387, Control_c, 0, 64, 59
1, 799387, Control_c, 0, 67, 39
1, 799402, Control_c, 0, 64, 63
1, 799402, Control_c, 0, 67, 40
1, 799406, Note_off_c, 0, 78, 63
1, 799416, Control_c, 0, 64, 67
1, 799416, Control_c, 0, 67, 41
1, 799431, Control_c, 0, 64, 71
1, 799431, Control_c, 0, 67, 43
1, 799446, Control_c, 0, 64, 76
1, 799446, Control_c, 0, 67, 45
1, 799461, Control_c, 0, 64, 79
1, 799461, Control_c, 0, 67, 47
1, 799474, Note_off_c, 0, 64, 39
1, 799476, Control_c, 0, 64, 81
1, 799476, Control_c, 0, 67, 49
1, 799491, Control_c, 0, 67, 52
1, 799495, Note_off_c, 0, 66, 42
1, 799506, Control_c, 0, 67, 55
1, 799521, Control_c, 0, 67, 58
1, 799536, Control_c, 0, 67, 60
1, 799550, Control_c, 0, 67, 62
1, 799565, Control_c, 0, 67, 63
1, 799580, Control_c, 0, 67, 65
1, 799590, Note_off_c, 0, 54, 41
1, 799595, Control_c, 0, 67, 67
1, 799607, Note_off_c, 0, 58, 40
1, 799610, Control_c, 0, 64, 75
1, 799610, Control_c, 0, 67, 69
1, 799624, Control_c, 0, 64, 65
1, 799624, Control_c, 0, 67, 71
1, 799635, Note_on_c, 0, 74, 63
1, 799639, Control_c, 0, 64, 47
1, 799639, Control_c, 0, 67, 74
1, 799654, Control_c, 0, 64, 0
1, 799654, Control_c, 0, 67, 77
1, 799676, Note_on_c, 0, 55, 18
1, 799676, Control_c, 0, 67, 79
1, 799677, Note_on_c, 0, 62, 28
1, 799679, Note_on_c, 0, 59, 24
1, 799691, Control_c, 0, 64, 47
1, 799691, Control_c, 0, 67, 81
1, 799706, Control_c, 0, 64, 62
1, 799706, Control_c, 0, 67, 82
1, 799720, Control_c, 0, 64, 68
1, 799720, Control_c, 0, 67, 83
1, 799721, Note_off_c, 0, 76, 50
1, 799735, Control_c, 0, 64, 75
1, 799735, Control_c, 0, 67, 85
1, 799750, Control_c, 0, 64, 81
1, 799750, Control_c, 0, 67, 86
1, 799765, Control_c, 0, 64, 84
1, 799765, Control_c, 0, 67, 87
1, 799772, Note_off_c, 0, 62, 41
1, 799780, Control_c, 0, 64, 86
1, 799780, Control_c, 0, 67, 88
1, 799795, Control_c, 0, 64, 87
1, 799824, Control_c, 0, 67, 88
1, 799839, Control_c, 0, 64, 83
1, 799854, Control_c, 0, 64, 71
1, 799854, Control_c, 0, 67, 89
1, 799864, Note_off_c, 0, 59, 38
1, 799868, Control_c, 0, 64, 48
1, 799876, Note_on_c, 0, 71, 62
1, 799881, Note_off_c, 0, 55, 44
1, 799883, Control_c, 0, 64, 0
1, 799883, Control_c, 0, 67, 90
1, 799899, Control_c, 0, 67, 91
1, 799905, Note_on_c, 0, 65, 44
1, 799914, Control_c, 0, 67, 92
1, 799917, Note_on_c, 0, 56, 37
1, 799918, Note_off_c, 0, 74, 58
1, 799919, Note_on_c, 0, 62, 24
1, 799929, Control_c, 0, 64, 43
1, 799929, Control_c, 0, 67, 93
1, 799944, Control_c, 0, 64, 62
1, 799944, Control_c, 0, 67, 94
1, 799959, Control_c, 0, 64, 70
1, 799959, Control_c, 0, 67, 95
1, 799973, Control_c, 0, 64, 80
1, 799973, Control_c, 0, 67, 97
1, 799988, Control_c, 0, 64, 87
1, 799988, Control_c, 0, 67, 100
1, 799989, Note_off_c, 0, 71, 61
1, 800003, Control_c, 0, 64, 91
1, 800003, Control_c, 0, 67, 103
1, 800018, Control_c, 0, 64, 93
1, 800018, Control_c, 0, 67, 108
1, 800033, Control_c, 0, 67, 113
1, 800045, Note_off_c, 0, 62, 40
1, 800047, Control_c, 0, 67, 120
1, 800062, Control_c, 0, 67, 127
1, 800105, Note_off_c, 0, 56, 34
1, 800121, Control_c, 0, 64, 93
1, 800136, Control_c, 0, 64, 90
1, 800151, Control_c, 0, 64, 87
1, 800165, Control_c, 0, 64, 81
1, 800180, Control_c, 0, 64, 77
1, 800195, Control_c, 0, 64, 73
1, 800210, Control_c, 0, 64, 69
1, 800225, Control_c, 0, 64, 64
1, 800234, Note_on_c, 0, 69, 54
1, 800239, Control_c, 0, 64, 51
1, 800240, Note_off_c, 0, 65, 44
1, 800254, Control_c, 0, 64, 0
1, 800260, Note_on_c, 0, 66, 36
1, 800260, Note_on_c, 0, 62, 28
1, 800278, Note_on_c, 0, 57, 27
1, 800373, Control_c, 0, 64, 56
1, 800388, Control_c, 0, 64, 65
1, 800397, Note_off_c, 0, 62, 42
1, 800403, Control_c, 0, 64, 69
1, 800421, Note_off_c, 0, 57, 56
1, 800425, Control_c, 0, 64, 72
1, 800441, Note_off_c, 0, 69, 58
1, 800441, Control_c, 0, 64, 76
1, 800450, Note_off_c, 0, 66, 53
1, 800455, Control_c, 0, 64, 79
1, 800470, Control_c, 0, 64, 81
1, 800573, Control_c, 0, 64, 80
1, 800588, Control_c, 0, 64, 78
1, 800603, Control_c, 0, 64, 76
1, 800618, Control_c, 0, 64, 73
1, 800633, Control_c, 0, 64, 70
1, 800648, Control_c, 0, 64, 68
1, 800662, Control_c, 0, 64, 65
1, 800677, Control_c, 0, 64, 63
1, 800693, Control_c, 0, 64, 59
1, 800708, Control_c, 0, 64, 49
1, 800722, Control_c, 0, 64, 0
1, 800758, Note_on_c, 0, 67, 41
1, 800773, Note_on_c, 0, 57, 29
1, 800785, Note_on_c, 0, 45, 34
1, 800788, Note_on_c, 0, 64, 30
1, 800841, Control_c, 0, 64, 22
1, 800856, Control_c, 0, 64, 56
1, 800871, Control_c, 0, 64, 63
1, 800886, Control_c, 0, 64, 66
1, 800901, Control_c, 0, 64, 68
1, 800915, Control_c, 0, 64, 71
1, 800930, Control_c, 0, 64, 75
1, 800938, Note_off_c, 0, 67, 61
1, 800940, Note_off_c, 0, 64, 41
1, 800945, Control_c, 0, 64, 76
1, 800958, Note_off_c, 0, 57, 39
1, 800960, Control_c, 0, 64, 77
1, 801003, Note_off_c, 0, 45, 42
1, 801137, Control_c, 0, 64, 76
1, 801152, Control_c, 0, 64, 75
1, 801175, Control_c, 0, 64, 74
1, 801190, Control_c, 0, 64, 72
1, 801204, Control_c, 0, 64, 70
1, 801219, Control_c, 0, 64, 68
1, 801234, Control_c, 0, 64, 65
1, 801249, Control_c, 0, 64, 64
1, 801264, Control_c, 0, 64, 62
1, 801278, Control_c, 0, 64, 60
1, 801293, Control_c, 0, 64, 53
1, 801308, Control_c, 0, 64, 12
1, 801322, Control_c, 0, 64, 0
1, 801330, Note_on_c, 0, 64, 35
1, 801341, Note_on_c, 0, 61, 32
1, 801351, Note_on_c, 0, 55, 23
1, 801353, Note_on_c, 0, 45, 28
1, 801440, Control_c, 0, 64, 21
1, 801455, Control_c, 0, 64, 56
1, 801470, Control_c, 0, 64, 63
1, 801485, Control_c, 0, 64, 65
1, 801501, Control_c, 0, 64, 67
1, 801515, Note_off_c, 0, 61, 52
1, 801516, Control_c, 0, 64, 71
1, 801531, Control_c, 0, 64, 75
1, 801537, Note_off_c, 0, 45, 41
1, 801545, Control_c, 0, 64, 78
1, 801548, Note_off_c, 0, 64, 46
1, 801560, Control_c, 0, 64, 79
1, 801575, Control_c, 0, 64, 79
1, 801587, Note_off_c, 0, 55, 42
1, 801590, Control_c, 0, 64, 80
1, 801634, Control_c, 0, 64, 80
1, 801768, Control_c, 0, 64, 80
1, 801798, Control_c, 0, 64, 79
1, 801812, Control_c, 0, 64, 78
1, 801827, Control_c, 0, 64, 77
1, 801842, Control_c, 0, 64, 75
1, 801857, Control_c, 0, 64, 72
1, 801871, Control_c, 0, 64, 70
1, 801886, Control_c, 0, 64, 67
1, 801901, Control_c, 0, 64, 64
1, 801923, Control_c, 0, 64, 61
1, 801938, Control_c, 0, 64, 56
1, 801952, Control_c, 0, 64, 48
1, 801967, Control_c, 0, 64, 37
1, 801982, Control_c, 0, 64, 12
1, 801997, Control_c, 0, 64, 0
1, 802103, Note_on_c, 0, 62, 33
1, 802147, Note_on_c, 0, 50, 27
1, 802147, Note_on_c, 0, 54, 17
1, 802263, Control_c, 0, 64, 10
1, 802278, Control_c, 0, 64, 44
1, 802293, Control_c, 0, 64, 53
1, 802308, Control_c, 0, 64, 58
1, 802323, Control_c, 0, 64, 61
1, 802338, Control_c, 0, 64, 63
1, 802353, Control_c, 0, 64, 65
1, 802368, Control_c, 0, 64, 67
1, 802382, Control_c, 0, 64, 70
1, 802397, Control_c, 0, 64, 72
1, 802412, Control_c, 0, 64, 74
1, 802427, Control_c, 0, 64, 75
1, 802442, Control_c, 0, 64, 77
1, 802457, Control_c, 0, 64, 78
1, 802472, Control_c, 0, 64, 79
1, 802486, Control_c, 0, 64, 81
1, 802501, Control_c, 0, 64, 82
1, 802516, Control_c, 0, 64, 83
1, 802531, Control_c, 0, 64, 84
1, 802546, Control_c, 0, 64, 85
1, 802560, Control_c, 0, 64, 86
1, 802575, Control_c, 0, 64, 86
1, 802584, Note_off_c, 0, 54, 32
1, 802587, Note_off_c, 0, 62, 40
1, 802590, Control_c, 0, 64, 87
1, 802605, Control_c, 0, 64, 88
1, 802612, Note_off_c, 0, 50, 29
1, 802620, Control_c, 0, 64, 88
1, 802672, Control_c, 0, 64, 89
1, 802982, Control_c, 0, 64, 88
1, 802997, Control_c, 0, 64, 83
1, 803012, Control_c, 0, 64, 74
1, 803027, Control_c, 0, 64, 64
1, 803041, Control_c, 0, 64, 45
1, 803056, Control_c, 0, 64, 0
1, 803628, Control_c, 0, 67, 126
1, 803642, Control_c, 0, 67, 109
1, 803657, Control_c, 0, 67, 86
1, 803672, Control_c, 0, 67, 67
1, 803687, Control_c, 0, 67, 51
1, 803702, Control_c, 0, 67, 36
1, 803716, Control_c, 0, 67, 19
1, 803731, Control_c, 0, 67, 0
1, 803753, Note_on_c, 0, 78, 89
1, 803758, Note_on_c, 0, 54, 83
1, 803759, Note_on_c, 0, 42, 79
1, 803810, Note_off_c, 0, 54, 63
1, 803820, Control_c, 0, 64, 61
1, 803834, Control_c, 0, 64, 75
1, 803840, Note_off_c, 0, 42, 64
1, 803849, Control_c, 0, 64, 127
1, 803893, Note_off_c, 0, 78, 62
1, 804013, Control_c, 0, 64, 80
1, 804028, Control_c, 0, 64, 31
1, 804043, Control_c, 0, 64, 0
1, 804084, Note_on_c, 0, 83, 85
1, 804085, Note_on_c, 0, 71, 85
1, 804085, Note_on_c, 0, 74, 72
1, 804085, Note_on_c, 0, 78, 80
1, 804087, Control_c, 0, 64, 25
1, 804090, Note_on_c, 0, 47, 88
1, 804093, Note_on_c, 0, 35, 75
1, 804102, Control_c, 0, 64, 65
1, 804117, Control_c, 0, 64, 94
1, 804132, Control_c, 0, 64, 127
1, 804152, Note_off_c, 0, 35, 66
1, 804174, Note_off_c, 0, 83, 66
1, 804178, Note_off_c, 0, 47, 64
1, 804184, Note_off_c, 0, 71, 64
1, 804205, Note_off_c, 0, 74, 67
1, 804216, Note_off_c, 0, 78, 64
1, 804583, Control_c, 0, 64, 73
1, 804585, Note_on_c, 0, 66, 78
1, 804591, Note_on_c, 0, 62, 79
1, 804594, Note_on_c, 0, 71, 76
1, 804596, Note_on_c, 0, 59, 78
1, 804597, Note_on_c, 0, 47, 74
1, 804598, Control_c, 0, 64, 0
1, 804603, Note_on_c, 0, 54, 60
1, 804605, Note_on_c, 0, 50, 68
1, 804654, Note_off_c, 0, 47, 64
1, 804657, Control_c, 0, 64, 31
1, 804670, Note_off_c, 0, 50, 64
1, 804671, Note_off_c, 0, 59, 66
1, 804672, Control_c, 0, 64, 66
1, 804677, Note_off_c, 0, 62, 61
1, 804677, Note_off_c, 0, 54, 63
1, 804687, Control_c, 0, 64, 93
1, 804702, Control_c, 0, 64, 127
1, 804711, Note_off_c, 0, 66, 64
1, 804740, Note_off_c, 0, 71, 57
1, 804991, Control_c, 0, 64, 92
1, 805006, Control_c, 0, 64, 67
1, 805021, Control_c, 0, 64, 0
1, 805125, Control_c, 0, 64, 50
1, 805140, Control_c, 0, 64, 55
1, 805155, Control_c, 0, 64, 54
1, 805199, Control_c, 0, 64, 53
1, 805214, Control_c, 0, 64, 53
1, 805229, Control_c, 0, 64, 49
1, 805243, Control_c, 0, 64, 43
1, 805258, Control_c, 0, 64, 20
1, 805273, Control_c, 0, 64, 0
1, 805351, Note_on_c, 0, 78, 91
1, 805351, Note_on_c, 0, 47, 88
1, 805352, Note_on_c, 0, 35, 79
1, 805352, Note_on_c, 0, 74, 85
1, 805354, Note_on_c, 0, 83, 87
1, 805376, Control_c, 0, 64, 64
1, 805391, Control_c, 0, 64, 90
1, 805402, Note_off_c, 0, 35, 66
1, 805405, Control_c, 0, 64, 127
1, 805420, Note_off_c, 0, 47, 64
1, 805431, Note_off_c, 0, 78, 65
1, 805433, Note_off_c, 0, 74, 62
1, 805480, Note_off_c, 0, 83, 57
1, 805555, Control_c, 0, 64, 95
1, 805570, Control_c, 0, 64, 64
1, 805584, Control_c, 0, 64, 0
1, 805640, Note_on_c, 0, 79, 73
1, 805642, Note_on_c, 0, 85, 89
1, 805643, Note_on_c, 0, 73, 91
1, 805644, Note_on_c, 0, 40, 85
1, 805646, Note_on_c, 0, 52, 94
1, 805650, Note_on_c, 0, 83, 79
1, 805666, Control_c, 0, 64, 49
1, 805681, Control_c, 0, 64, 84
1, 805696, Control_c, 0, 64, 127
1, 805699, Note_off_c, 0, 40, 67
1, 805706, Note_off_c, 0, 52, 66
1, 805773, Note_off_c, 0, 85, 64
1, 805796, Note_off_c, 0, 83, 57
1, 805806, Note_off_c, 0, 79, 58
1, 805849, Note_off_c, 0, 73, 54
1, 806149, Note_on_c, 0, 61, 86
1, 806150, Note_on_c, 0, 73, 89
1, 806153, Note_on_c, 0, 52, 81
1, 806153, Note_on_c, 0, 67, 84
1, 806156, Note_on_c, 0, 71, 84
1, 806159, Note_on_c, 0, 59, 72
1, 806160, Note_on_c, 0, 55, 70
1, 806170, Control_c, 0, 64, 76
1, 806184, Control_c, 0, 64, 0
1, 806241, Note_off_c, 0, 52, 66
1, 806258, Control_c, 0, 64, 63
1, 806261, Note_off_c, 0, 67, 56
1, 806266, Note_off_c, 0, 55, 64
1, 806273, Control_c, 0, 64, 80
1, 806275, Note_off_c, 0, 59, 60
1, 806277, Note_off_c, 0, 61, 63
1, 806289, Control_c, 0, 64, 101
1, 806290, Note_off_c, 0, 71, 58
1, 806304, Control_c, 0, 64, 118
1, 806319, Control_c, 0, 64, 127
1, 806347, Note_off_c, 0, 73, 57
1, 806533, Control_c, 0, 64, 102
1, 806548, Control_c, 0, 64, 70
1, 806563, Control_c, 0, 64, 0
1, 806913, Note_on_c, 0, 73, 91
1, 806917, Note_on_c, 0, 71, 86
1, 806919, Note_on_c, 0, 28, 86
1, 806924, Note_on_c, 0, 40, 86
1, 806933, Control_c, 0, 64, 53
1, 806948, Control_c, 0, 64, 67
1, 806963, Control_c, 0, 64, 77
1, 806976, Note_off_c, 0, 28, 64
1, 806976, Note_off_c, 0, 40, 65
1, 806978, Control_c, 0, 64, 97
1, 806993, Control_c, 0, 64, 127
1, 807055, Note_off_c, 0, 71, 58
1, 807133, Note_off_c, 0, 73, 54
1, 807268, Control_c, 0, 64, 107
1, 807274, Note_on_c, 0, 79, 94
1, 807274, Note_on_c, 0, 70, 95
1, 807276, Note_on_c, 0, 76, 87
1, 807283, Note_on_c, 0, 30, 88
1, 807283, Control_c, 0, 64, 68
1, 807284, Note_on_c, 0, 42, 84
1, 807298, Control_c, 0, 64, 0
1, 807357, Control_c, 0, 64, 58
1, 807372, Control_c, 0, 64, 71
1, 807387, Control_c, 0, 64, 97
1, 807402, Control_c, 0, 64, 127
1, 807479, Note_off_c, 0, 70, 56
1, 807483, Note_off_c, 0, 42, 60
1, 807494, Note_off_c, 0, 79, 52
1, 807495, Note_off_c, 0, 76, 58
1, 807496, Note_off_c, 0, 30, 62
1, 807567, Note_on_c, 0, 30, 69
1, 807570, Note_on_c, 0, 42, 71
1, 807573, Note_on_c, 0, 70, 78
1, 807579, Note_on_c, 0, 79, 70
1, 807584, Note_on_c, 0, 76, 71
1, 807617, Note_off_c, 0, 42, 58
1, 807623, Note_off_c, 0, 70, 62
1, 807623, Note_off_c, 0, 79, 58
1, 807625, Note_off_c, 0, 30, 62
1, 807644, Note_off_c, 0, 76, 62
1, 807679, Note_on_c, 0, 76, 58
1, 807683, Note_on_c, 0, 79, 72
1, 807685, Note_on_c, 0, 70, 76
1, 807687, Note_on_c, 0, 30, 73
1, 807691, Note_on_c, 0, 42, 77
1, 807744, Note_off_c, 0, 30, 65
1, 807744, Note_off_c, 0, 42, 61
1, 807754, Note_off_c, 0, 76, 62
1, 807757, Note_off_c, 0, 70, 61
1, 807758, Note_off_c, 0, 79, 59
1, 807787, Control_c, 0, 64, 71
1, 807802, Control_c, 0, 64, 0
1, 807807, Note_on_c, 0, 78, 87
1, 807809, Note_on_c, 0, 71, 87
1, 807813, Note_on_c, 0, 74, 88
1, 807815, Note_on_c, 0, 44, 86
1, 807817, Note_on_c, 0, 32, 81
1, 807861, Control_c, 0, 64, 32
1, 807876, Control_c, 0, 64, 63
1, 807891, Control_c, 0, 64, 76
1, 807913, Control_c, 0, 64, 99
1, 807928, Control_c, 0, 64, 110
1, 807943, Control_c, 0, 64, 112
1, 807953, Note_off_c, 0, 71, 55
1, 807958, Control_c, 0, 64, 113
1, 807964, Note_off_c, 0, 44, 61
1, 807967, Note_off_c, 0, 74, 61
1, 807969, Note_off_c, 0, 78, 61
1, 807971, Note_off_c, 0, 32, 62
1, 808026, Note_on_c, 0, 32, 70
1, 808028, Note_on_c, 0, 44, 73
1, 808033, Note_on_c, 0, 74, 69
1, 808034, Note_on_c, 0, 71, 75
1, 808039, Note_on_c, 0, 78, 64
1, 808065, Note_off_c, 0, 71, 56
1, 808070, Note_off_c, 0, 74, 62
1, 808071, Note_off_c, 0, 78, 63
1, 808073, Note_off_c, 0, 44, 61
1, 808076, Note_off_c, 0, 32, 63
1, 808121, Note_on_c, 0, 78, 68
1, 808125, Note_on_c, 0, 44, 75
1, 808126, Note_on_c, 0, 32, 75
1, 808131, Note_on_c, 0, 71, 41
1, 808133, Note_on_c, 0, 74, 42
1, 808136, Control_c, 0, 64, 114
1, 808147, Note_off_c, 0, 78, 65
1, 808154, Note_off_c, 0, 74, 62
1, 808158, Note_off_c, 0, 71, 56
1, 808169, Note_off_c, 0, 32, 64
1, 808169, Note_off_c, 0, 44, 64
1, 808180, Control_c, 0, 64, 113
1, 808195, Control_c, 0, 64, 86
1, 808210, Control_c, 0, 64, 58
1, 808225, Note_on_c, 0, 76, 90
1, 808225, Control_c, 0, 64, 0
1, 808232, Note_on_c, 0, 46, 92
1, 808234, Note_on_c, 0, 66, 82
1, 808234, Note_on_c, 0, 73, 80
1, 808237, Note_on_c, 0, 34, 81
1, 808284, Control_c, 0, 64, 26
1, 808299, Control_c, 0, 64, 63
1, 808313, Control_c, 0, 64, 73
1, 808328, Control_c, 0, 64, 82
1, 808343, Control_c, 0, 64, 84
1, 808358, Control_c, 0, 64, 85
1, 808359, Note_off_c, 0, 46, 59
1, 808361, Note_off_c, 0, 76, 59
1, 808368, Note_off_c, 0, 34, 65
1, 808373, Note_off_c, 0, 73, 60
1, 808374, Note_off_c, 0, 66, 59
1, 808428, Note_on_c, 0, 34, 71
1, 808432, Note_on_c, 0, 46, 83
1, 808440, Note_on_c, 0, 73, 69
1, 808442, Note_on_c, 0, 66, 79
1, 808449, Note_on_c, 0, 76, 77
1, 808480, Note_off_c, 0, 46, 57
1, 808486, Note_off_c, 0, 34, 64
1, 808488, Note_off_c, 0, 73, 62
1, 808490, Note_off_c, 0, 76, 60
1, 808492, Note_off_c, 0, 66, 65
1, 808545, Note_on_c, 0, 46, 74
1, 808546, Note_on_c, 0, 34, 65
1, 808547, Note_on_c, 0, 66, 81
1, 808547, Note_on_c, 0, 76, 79
1, 808550, Note_on_c, 0, 73, 73
1, 808600, Note_off_c, 0, 46, 55
1, 808613, Note_off_c, 0, 34, 65
1, 808618, Note_off_c, 0, 73, 61
1, 808626, Note_off_c, 0, 76, 59
1, 808630, Note_off_c, 0, 66, 61
1, 808661, Control_c, 0, 64, 73
1, 808675, Control_c, 0, 64, 0
1, 808706, Note_on_c, 0, 47, 85
1, 808709, Note_on_c, 0, 66, 91
1, 808710, Note_on_c, 0, 35, 79
1, 808714, Note_on_c, 0, 76, 84
1, 808715, Note_on_c, 0, 73, 82
1, 808765, Control_c, 0, 64, 60
1, 808780, Control_c, 0, 64, 74
1, 808795, Control_c, 0, 64, 92
1, 808809, Control_c, 0, 64, 119
1, 808824, Control_c, 0, 64, 127
1, 808829, Note_off_c, 0, 76, 64
1, 808839, Note_on_c, 0, 74, 75
1, 808842, Note_on_c, 0, 71, 68
1, 808887, Note_off_c, 0, 71, 62
1, 808896, Note_off_c, 0, 73, 40
1, 808917, Note_off_c, 0, 35, 63
1, 808923, Note_off_c, 0, 47, 62
1, 808945, Note_on_c, 0, 73, 77
1, 808948, Note_on_c, 0, 70, 83
1, 808954, Note_off_c, 0, 74, 62
1, 809003, Note_off_c, 0, 70, 61
1, 809020, Note_on_c, 0, 38, 76
1, 809036, Note_on_c, 0, 50, 60
1, 809042, Note_on_c, 0, 74, 81
1, 809043, Note_on_c, 0, 71, 76
1, 809048, Note_off_c, 0, 38, 65
1, 809057, Note_off_c, 0, 50, 63
1, 809061, Note_off_c, 0, 66, 64
1, 809065, Note_off_c, 0, 73, 61
1, 809087, Note_off_c, 0, 71, 60
1, 809110, Note_off_c, 0, 74, 65
1, 809119, Poly_aftertouch_c, 0, 48, 0
1, 809150, Note_on_c, 0, 66, 92
1, 809150, Control_c, 0, 64, 92
1, 809152, Note_on_c, 0, 73, 90
1, 809155, Note_on_c, 0, 54, 83
1, 809155, Note_on_c, 0, 70, 85
1, 809155, Note_on_c, 0, 42, 76
1, 809165, Control_c, 0, 64, 61
1, 809180, Control_c, 0, 64, 0
1, 809268, Control_c, 0, 64, 65
1, 809283, Control_c, 0, 64, 85
1, 809289, Note_off_c, 0, 42, 64
1, 809291, Note_off_c, 0, 54, 63
1, 809298, Control_c, 0, 64, 127
1, 809304, Note_off_c, 0, 66, 62
1, 809312, Note_off_c, 0, 70, 61
1, 809326, Note_off_c, 0, 73, 58
1, 809514, Control_c, 0, 64, 70
1, 809529, Control_c, 0, 64, 0
1, 809632, Control_c, 0, 64, 20
1, 809647, Control_c, 0, 64, 22
1, 809677, Control_c, 0, 64, 25
1, 809692, Control_c, 0, 64, 26
1, 809706, Control_c, 0, 64, 24
1, 809721, Control_c, 0, 64, 19
1, 809736, Control_c, 0, 64, 0
1, 809826, Note_on_c, 0, 85, 87
1, 810002, Note_off_c, 0, 85, 56
1, 810067, Note_on_c, 0, 86, 91
1, 810072, Note_on_c, 0, 47, 77
1, 810077, Note_on_c, 0, 35, 65
1, 810106, Control_c, 0, 64, 45
1, 810121, Control_c, 0, 64, 64
1, 810136, Control_c, 0, 64, 83
1, 810158, Control_c, 0, 64, 127
1, 810191, Note_off_c, 0, 35, 65
1, 810258, Note_off_c, 0, 47, 63
1, 810280, Note_on_c, 0, 80, 76
1, 810315, Note_off_c, 0, 86, 55
1, 810356, Note_off_c, 0, 80, 60
1, 810387, Note_on_c, 0, 83, 85
1, 810499, Note_on_c, 0, 77, 76
1, 810553, Note_off_c, 0, 77, 61
1, 810559, Control_c, 0, 64, 71
1, 810574, Control_c, 0, 64, 0
1, 810589, Note_on_c, 0, 62, 93
1, 810599, Note_on_c, 0, 80, 79
1, 810602, Note_on_c, 0, 56, 68
1, 810607, Note_on_c, 0, 53, 67
1, 810607, Note_on_c, 0, 59, 62
1, 810619, Control_c, 0, 64, 36
1, 810633, Note_off_c, 0, 83, 43
1, 810633, Control_c, 0, 64, 64
1, 810648, Control_c, 0, 64, 79
1, 810663, Control_c, 0, 64, 127
1, 810694, Note_off_c, 0, 80, 64
1, 810713, Note_on_c, 0, 74, 71
1, 810760, Note_off_c, 0, 74, 61
1, 810815, Note_on_c, 0, 77, 83
1, 810836, Note_off_c, 0, 59, 37
1, 810843, Note_off_c, 0, 62, 63
1, 810849, Note_off_c, 0, 53, 64
1, 810872, Note_off_c, 0, 56, 33
1, 810891, Note_off_c, 0, 77, 63
1, 810932, Note_on_c, 0, 71, 68
1, 810974, Note_off_c, 0, 71, 55
1, 810982, Control_c, 0, 64, 86
1, 810997, Control_c, 0, 64, 19
1, 811012, Control_c, 0, 64, 0
1, 811027, Note_on_c, 0, 74, 81
1, 811056, Control_c, 0, 64, 36
1, 811071, Control_c, 0, 64, 67
1, 811087, Control_c, 0, 64, 88
1, 811102, Control_c, 0, 64, 127
1, 811125, Note_on_c, 0, 68, 76
1, 811147, Note_off_c, 0, 74, 61
1, 811181, Note_off_c, 0, 68, 63
1, 811214, Note_on_c, 0, 71, 85
1, 811317, Note_on_c, 0, 65, 78
1, 811321, Note_off_c, 0, 71, 58
1, 811355, Note_off_c, 0, 65, 61
1, 811466, Note_on_c, 0, 45, 92
1, 811468, Note_on_c, 0, 33, 82
1, 811472, Note_on_c, 0, 85, 83
1, 811486, Control_c, 0, 64, 71
1, 811501, Control_c, 0, 64, 0
1, 811576, Control_c, 0, 64, 48
1, 811576, Note_off_c, 0, 33, 66
1, 811590, Control_c, 0, 64, 69
1, 811602, Note_on_c, 0, 78, 79
1, 811605, Control_c, 0, 64, 84
1, 811617, Note_off_c, 0, 45, 64
1, 811620, Control_c, 0, 64, 107
1, 811626, Note_off_c, 0, 85, 62
1, 811635, Control_c, 0, 64, 127
1, 811674, Note_off_c, 0, 78, 62
1, 811710, Note_on_c, 0, 81, 89
1, 811804, Note_off_c, 0, 81, 59
1, 811820, Note_on_c, 0, 73, 73
1, 811846, Note_off_c, 0, 73, 64
1, 811894, Control_c, 0, 64, 71
1, 811909, Control_c, 0, 64, 0
1, 811911, Note_on_c, 0, 61, 89
1, 811922, Note_on_c, 0, 78, 82
1, 811923, Note_on_c, 0, 54, 71
1, 811926, Note_on_c, 0, 57, 68
1, 811969, Control_c, 0, 64, 56
1, 811984, Control_c, 0, 64, 70
1, 811999, Control_c, 0, 64, 91
1, 812014, Control_c, 0, 64, 127
1, 812022, Note_on_c, 0, 69, 78
1, 812037, Note_off_c, 0, 78, 64
1, 812076, Note_off_c, 0, 57, 60
1, 812082, Note_off_c, 0, 61, 62
1, 812091, Note_off_c, 0, 69, 62
1, 812104, Note_off_c, 0, 54, 60
1, 812121, Note_on_c, 0, 73, 87
1, 812204, Note_off_c, 0, 73, 63
1, 812219, Note_on_c, 0, 66, 72
1, 812243, Note_off_c, 0, 66, 71
1, 812279, Control_c, 0, 64, 68
1, 812294, Control_c, 0, 64, 0
1, 812323, Note_on_c, 0, 69, 74
1, 812328, Note_on_c, 0, 67, 70
1, 812339, Control_c, 0, 64, 38
1, 812354, Control_c, 0, 64, 67
1, 812368, Control_c, 0, 64, 89
1, 812383, Control_c, 0, 64, 127
1, 812416, Note_on_c, 0, 61, 85
1, 812428, Note_off_c, 0, 67, 59
1, 812429, Note_off_c, 0, 69, 67
1, 812449, Control_c, 0, 64, 98
1, 812464, Control_c, 0, 64, 64
1, 812479, Control_c, 0, 64, 0
1, 812479, Note_off_c, 0, 61, 62
1, 812494, Control_c, 0, 64, 40
1, 812509, Control_c, 0, 64, 63
1, 812515, Note_on_c, 0, 66, 86
1, 812523, Control_c, 0, 64, 79
1, 812538, Control_c, 0, 64, 127
1, 812604, Note_off_c, 0, 66, 62
1, 812614, Note_on_c, 0, 57, 76
1, 812637, Note_off_c, 0, 57, 67
1, 812732, Control_c, 0, 64, 80
1, 812747, Control_c, 0, 64, 49
1, 812762, Control_c, 0, 64, 0
1, 812765, Note_on_c, 0, 78, 80
1, 812766, Note_on_c, 0, 66, 80
1, 812791, Control_c, 0, 64, 45
1, 812806, Control_c, 0, 64, 65
1, 812820, Control_c, 0, 64, 84
1, 812835, Control_c, 0, 64, 127
1, 812879, Note_on_c, 0, 71, 71
1, 812885, Note_on_c, 0, 59, 70
1, 812902, Note_off_c, 0, 78, 61
1, 812908, Note_off_c, 0, 66, 63
1, 812909, Control_c, 0, 64, 76
1, 812924, Control_c, 0, 64, 63
1, 812935, Note_off_c, 0, 71, 61
1, 812939, Control_c, 0, 64, 61
1, 812954, Control_c, 0, 64, 66
1, 812968, Control_c, 0, 64, 85
1, 812978, Note_off_c, 0, 59, 38
1, 812980, Note_on_c, 0, 74, 88
1, 812983, Note_on_c, 0, 62, 81
1, 812983, Control_c, 0, 64, 127
1, 813062, Note_off_c, 0, 74, 62
1, 813069, Note_off_c, 0, 62, 61
1, 813084, Note_on_c, 0, 68, 74
1, 813102, Control_c, 0, 64, 80
1, 813105, Note_off_c, 0, 68, 71
1, 813117, Control_c, 0, 64, 59
1, 813132, Control_c, 0, 64, 49
1, 813154, Control_c, 0, 64, 63
1, 813169, Control_c, 0, 64, 77
1, 813183, Control_c, 0, 64, 127
1, 813184, Note_on_c, 0, 71, 79
1, 813190, Note_on_c, 0, 59, 76
1, 813273, Note_on_c, 0, 66, 78
1, 813275, Note_on_c, 0, 54, 62
1, 813293, Note_off_c, 0, 71, 58
1, 813296, Note_off_c, 0, 59, 58
1, 813301, Control_c, 0, 64, 74
1, 813316, Control_c, 0, 64, 54
1, 813331, Control_c, 0, 64, 40
1, 813346, Note_off_c, 0, 54, 60
1, 813346, Control_c, 0, 64, 60
1, 813361, Control_c, 0, 64, 73
1, 813366, Note_on_c, 0, 68, 87
1, 813367, Note_on_c, 0, 56, 82
1, 813376, Control_c, 0, 64, 127
1, 813399, Note_off_c, 0, 66, 53
1, 813448, Note_off_c, 0, 68, 66
1, 813462, Note_on_c, 0, 50, 76
1, 813464, Note_off_c, 0, 56, 61
1, 813468, Note_on_c, 0, 62, 76
1, 813480, Control_c, 0, 64, 103
1, 813495, Control_c, 0, 64, 68
1, 813498, Note_off_c, 0, 50, 62
1, 813510, Control_c, 0, 64, 55
1, 813518, Note_off_c, 0, 62, 60
1, 813525, Control_c, 0, 64, 61
1, 813540, Control_c, 0, 64, 72
1, 813555, Control_c, 0, 64, 118
1, 813561, Note_on_c, 0, 66, 77
1, 813564, Note_on_c, 0, 54, 88
1, 813570, Control_c, 0, 64, 127
1, 813643, Control_c, 0, 64, 104
1, 813646, Note_on_c, 0, 47, 75
1, 813647, Note_on_c, 0, 59, 73
1, 813650, Note_off_c, 0, 66, 65
1, 813658, Control_c, 0, 64, 65
1, 813669, Note_off_c, 0, 54, 61
1, 813673, Control_c, 0, 64, 31
1, 813688, Control_c, 0, 64, 54
1, 813703, Control_c, 0, 64, 68
1, 813717, Control_c, 0, 64, 93
1, 813732, Control_c, 0, 64, 127
1, 813739, Note_on_c, 0, 50, 82
1, 813739, Note_on_c, 0, 62, 84
1, 813740, Note_off_c, 0, 47, 65
1, 813746, Note_off_c, 0, 59, 61
1, 813796, Note_on_c, 0, 63, 16
1, 813816, Note_off_c, 0, 62, 64
1, 813829, Note_on_c, 0, 44, 76
1, 813829, Note_off_c, 0, 50, 63
1, 813831, Note_on_c, 0, 56, 82
1, 813842, Note_off_c, 0, 63, 52
1, 813865, Control_c, 0, 64, 73
1, 813875, Note_off_c, 0, 56, 64
1, 813877, Note_off_c, 0, 44, 64
1, 813880, Control_c, 0, 64, 0
1, 813963, Control_c, 0, 64, 65
1, 813969, Note_on_c, 0, 45, 83
1, 813972, Note_on_c, 0, 57, 83
1, 813977, Control_c, 0, 64, 92
1, 813992, Control_c, 0, 64, 127
1, 814014, Note_off_c, 0, 57, 65
1, 814014, Note_on_c, 0, 59, 75
1, 814020, Note_off_c, 0, 45, 65
1, 814040, Note_on_c, 0, 47, 76
1, 814064, Note_off_c, 0, 59, 61
1, 814070, Note_on_c, 0, 57, 64
1, 814076, Note_off_c, 0, 47, 62
1, 814087, Note_on_c, 0, 45, 70
1, 814097, Note_off_c, 0, 57, 63
1, 814108, Note_on_c, 0, 59, 61
1, 814139, Note_off_c, 0, 45, 64
1, 814143, Note_on_c, 0, 47, 75
1, 814165, Note_off_c, 0, 59, 63
1, 814170, Note_on_c, 0, 57, 80
1, 814194, Note_on_c, 0, 45, 71
1, 814203, Note_off_c, 0, 47, 65
1, 814256, Note_on_c, 0, 59, 90
1, 814270, Note_off_c, 0, 57, 59
1, 814276, Note_on_c, 0, 47, 92
1, 814282, Note_off_c, 0, 45, 64
1, 814289, Control_c, 0, 64, 93
1, 814304, Control_c, 0, 64, 43
1, 814319, Control_c, 0, 64, 0
1, 814354, Note_on_c, 0, 61, 96
1, 814368, Note_on_c, 0, 49, 95
1, 814373, Note_off_c, 0, 59, 66
1, 814376, Note_off_c, 0, 47, 64
1, 814378, Control_c, 0, 64, 63
1, 814393, Control_c, 0, 64, 127
1, 814403, Note_off_c, 0, 49, 66
1, 814408, Note_off_c, 0, 61, 68
1, 814527, Control_c, 0, 64, 77
1, 814541, Control_c, 0, 64, 0
1, 814795, Note_on_c, 0, 68, 89
1, 814796, Note_on_c, 0, 73, 82
1, 814796, Note_on_c, 0, 77, 89
1, 814797, Note_on_c, 0, 65, 90
1, 814800, Note_on_c, 0, 49, 102
1, 814804, Note_on_c, 0, 37, 98
1, 814818, Note_off_c, 0, 49, 72
1, 814827, Note_off_c, 0, 37, 70
1, 814830, Control_c, 0, 64, 60
1, 814845, Control_c, 0, 64, 81
1, 814860, Control_c, 0, 64, 127
1, 814890, Note_on_c, 0, 37, 32
1, 814929, Note_off_c, 0, 37, 46
1, 814933, Note_off_c, 0, 77, 58
1, 814964, Note_off_c, 0, 65, 60
1, 814965, Note_off_c, 0, 68, 60
1, 815027, Note_off_c, 0, 73, 36
1, 815083, Control_c, 0, 64, 116
1, 815097, Control_c, 0, 64, 56
1, 815112, Control_c, 0, 64, 0
1, 815245, Control_c, 0, 64, 45
1, 815251, Note_on_c, 0, 78, 91
1, 815253, Note_on_c, 0, 30, 86
1, 815253, Note_on_c, 0, 42, 99
1, 815253, Note_on_c, 0, 66, 89
1, 815254, Note_on_c, 0, 73, 81
1, 815254, Note_on_c, 0, 69, 82
1, 815260, Control_c, 0, 64, 65
1, 815275, Control_c, 0, 64, 88
1, 815290, Control_c, 0, 64, 127
1, 815295, Note_off_c, 0, 30, 65
1, 815299, Note_off_c, 0, 42, 65
1, 815403, Note_off_c, 0, 78, 61
1, 815407, Note_off_c, 0, 66, 63
1, 815430, Note_off_c, 0, 69, 64
1, 815456, Note_off_c, 0, 73, 60
1, 815781, Note_on_c, 0, 54, 87
1, 815784, Note_on_c, 0, 66, 76
1, 815785, Note_on_c, 0, 42, 78
1, 815801, Control_c, 0, 64, 86
1, 815815, Control_c, 0, 64, 60
1, 815830, Control_c, 0, 64, 0
1, 815920, Control_c, 0, 64, 63
1, 815935, Control_c, 0, 64, 93
1, 815950, Control_c, 0, 64, 127
1, 815951, Note_off_c, 0, 42, 64
1, 815975, Note_off_c, 0, 54, 62
1, 815992, Note_off_c, 0, 66, 64
1, 816342, Control_c, 0, 64, 100
1, 816357, Control_c, 0, 64, 80
1, 816372, Control_c, 0, 64, 67
1, 816387, Control_c, 0, 64, 51
1, 816402, Control_c, 0, 64, 0
1, 816669, Control_c, 0, 64, 36
1, 816684, Control_c, 0, 64, 50
1, 816699, Control_c, 0, 64, 60
1, 816714, Control_c, 0, 64, 64
1, 816729, Control_c, 0, 64, 66
1, 816743, Control_c, 0, 64, 69
1, 816758, Control_c, 0, 64, 74
1, 816773, Control_c, 0, 64, 78
1, 816787, Control_c, 0, 64, 82
1, 816802, Control_c, 0, 64, 89
1, 816817, Control_c, 0, 64, 95
1, 816832, Control_c, 0, 64, 99
1, 816847, Control_c, 0, 64, 104
1, 816861, Control_c, 0, 64, 110
1, 816861, Control_c, 0, 67, 10
1, 816876, Note_on_c, 0, 85, 61
1, 816876, Control_c, 0, 64, 114
1, 816876, Control_c, 0, 67, 15
1, 816899, Control_c, 0, 64, 118
1, 816899, Control_c, 0, 67, 19
1, 816913, Control_c, 0, 64, 121
1, 816913, Control_c, 0, 67, 23
1, 816928, Control_c, 0, 64, 127
1, 816928, Control_c, 0, 67, 26
1, 816934, Note_on_c, 0, 73, 32
1, 816942, Control_c, 0, 67, 28
1, 816957, Control_c, 0, 67, 30
1, 816972, Control_c, 0, 67, 31
1, 816987, Control_c, 0, 67, 33
1, 817001, Control_c, 0, 67, 36
1, 817016, Control_c, 0, 67, 39
1, 817031, Control_c, 0, 67, 40
1, 817046, Control_c, 0, 67, 44
1, 817061, Control_c, 0, 67, 47
1, 817075, Control_c, 0, 67, 51
1, 817090, Control_c, 0, 67, 57
1, 817105, Control_c, 0, 67, 62
1, 817120, Control_c, 0, 67, 68
1, 817135, Control_c, 0, 67, 73
1, 817150, Control_c, 0, 67, 78
1, 817165, Control_c, 0, 67, 84
1, 817180, Control_c, 0, 67, 90
1, 817194, Control_c, 0, 67, 98
1, 817209, Control_c, 0, 67, 106
1, 817224, Control_c, 0, 67, 112
1, 817239, Control_c, 0, 67, 118
1, 817254, Control_c, 0, 67, 121
1, 817268, Control_c, 0, 67, 124
1, 817283, Control_c, 0, 67, 127
1, 817309, Note_off_c, 0, 73, 42
1, 817313, Note_on_c, 0, 47, 40
1, 817357, Control_c, 0, 64, 115
1, 817372, Control_c, 0, 64, 107
1, 817386, Control_c, 0, 64, 102
1, 817401, Control_c, 0, 64, 97
1, 817416, Control_c, 0, 64, 89
1, 817429, Note_on_c, 0, 86, 66
1, 817431, Control_c, 0, 64, 78
1, 817446, Control_c, 0, 64, 67
1, 817462, Control_c, 0, 64, 45
1, 817466, Note_on_c, 0, 74, 37
1, 817477, Control_c, 0, 64, 0
1, 817491, Control_c, 0, 64, 27
1, 817506, Control_c, 0, 64, 49
1, 817521, Control_c, 0, 64, 58
1, 817531, Note_off_c, 0, 85, 36
1, 817536, Control_c, 0, 64, 64
1, 817551, Control_c, 0, 64, 71
1, 817565, Control_c, 0, 64, 81
1, 817580, Control_c, 0, 64, 91
1, 817595, Control_c, 0, 64, 97
1, 817609, Control_c, 0, 64, 103
1, 817624, Control_c, 0, 64, 109
1, 817647, Control_c, 0, 64, 113
1, 817651, Note_on_c, 0, 50, 30
1, 817662, Control_c, 0, 64, 114
1, 817677, Control_c, 0, 64, 115
1, 817691, Control_c, 0, 64, 116
1, 817701, Note_off_c, 0, 86, 60
1, 817714, Note_off_c, 0, 47, 38
1, 817782, Note_off_c, 0, 50, 38
1, 817810, Note_off_c, 0, 74, 60
1, 817818, Note_on_c, 0, 55, 24
1, 817930, Note_on_c, 0, 50, 34
1, 818008, Note_off_c, 0, 55, 35
1, 818009, Note_off_c, 0, 50, 35
1, 818042, Note_on_c, 0, 47, 40
1, 818045, Note_on_c, 0, 79, 52
1, 818062, Note_on_c, 0, 67, 41
1, 818127, Note_off_c, 0, 67, 46
1, 818190, Note_on_c, 0, 50, 32
1, 818192, Note_off_c, 0, 79, 59
1, 818210, Control_c, 0, 64, 115
1, 818218, Note_off_c, 0, 47, 40
1, 818254, Control_c, 0, 64, 114
1, 818259, Note_off_c, 0, 50, 39
1, 818285, Control_c, 0, 64, 113
1, 818298, Note_on_c, 0, 55, 34
1, 818300, Control_c, 0, 64, 112
1, 818314, Control_c, 0, 64, 111
1, 818329, Control_c, 0, 64, 110
1, 818344, Control_c, 0, 64, 109
1, 818359, Control_c, 0, 64, 107
1, 818374, Control_c, 0, 64, 107
1, 818396, Control_c, 0, 64, 106
1, 818411, Control_c, 0, 64, 105
1, 818420, Note_on_c, 0, 50, 30
1, 818426, Control_c, 0, 64, 105
1, 818440, Control_c, 0, 64, 104
1, 818455, Control_c, 0, 64, 104
1, 818470, Control_c, 0, 64, 103
1, 818478, Note_off_c, 0, 50, 43
1, 818485, Control_c, 0, 64, 103
1, 818489, Note_off_c, 0, 55, 39
1, 818505, Note_on_c, 0, 47, 47
1, 818514, Control_c, 0, 64, 102
1, 818559, Control_c, 0, 64, 102
1, 818603, Control_c, 0, 64, 101
1, 818628, Note_on_c, 0, 50, 44
1, 818662, Control_c, 0, 64, 101
1, 818696, Note_off_c, 0, 47, 32
1, 818707, Control_c, 0, 64, 100
1, 818736, Control_c, 0, 64, 100
1, 818751, Control_c, 0, 64, 99
1, 818766, Note_on_c, 0, 86, 61
1, 818768, Note_off_c, 0, 50, 34
1, 818789, Note_on_c, 0, 55, 36
1, 818795, Control_c, 0, 64, 99
1, 818801, Note_on_c, 0, 74, 25
1, 818825, Control_c, 0, 64, 98
1, 818855, Control_c, 0, 64, 98
1, 818868, Note_off_c, 0, 74, 47
1, 818900, Control_c, 0, 64, 97
1, 818920, Note_on_c, 0, 50, 33
1, 818929, Control_c, 0, 64, 97
1, 818973, Control_c, 0, 64, 96
1, 818988, Control_c, 0, 64, 95
1, 819003, Control_c, 0, 64, 95
1, 819018, Control_c, 0, 64, 93
1, 819033, Control_c, 0, 64, 91
1, 819047, Control_c, 0, 64, 88
1, 819063, Control_c, 0, 64, 86
1, 819067, Note_off_c, 0, 55, 33
1, 819078, Control_c, 0, 64, 83
1, 819093, Control_c, 0, 64, 79
1, 819095, Note_on_c, 0, 45, 39
1, 819108, Note_off_c, 0, 50, 37
1, 819108, Control_c, 0, 64, 77
1, 819123, Control_c, 0, 64, 75
1, 819126, Note_on_c, 0, 85, 49
1, 819144, Control_c, 0, 64, 72
1, 819157, Note_off_c, 0, 86, 60
1, 819159, Control_c, 0, 64, 67
1, 819164, Note_on_c, 0, 73, 38
1, 819174, Control_c, 0, 64, 54
1, 819188, Control_c, 0, 64, 0
1, 819277, Control_c, 0, 64, 54
1, 819292, Control_c, 0, 64, 67
1, 819307, Control_c, 0, 64, 73
1, 819322, Control_c, 0, 64, 79
1, 819336, Control_c, 0, 64, 83
1, 819338, Note_on_c, 0, 49, 36
1, 819351, Control_c, 0, 64, 87
1, 819366, Control_c, 0, 64, 92
1, 819381, Control_c, 0, 64, 94
1, 819395, Control_c, 0, 64, 95
1, 819409, Note_off_c, 0, 85, 50
1, 819413, Note_off_c, 0, 49, 52
1, 819428, Note_off_c, 0, 45, 35
1, 819471, Note_on_c, 0, 54, 29
1, 819489, Note_off_c, 0, 73, 42
1, 819571, Note_on_c, 0, 49, 36
1, 819636, Note_off_c, 0, 54, 36
1, 819660, Note_off_c, 0, 49, 34
1, 819695, Note_on_c, 0, 78, 47
1, 819710, Note_on_c, 0, 66, 34
1, 819713, Note_on_c, 0, 45, 27
1, 819806, Note_on_c, 0, 49, 43
1, 819832, Note_off_c, 0, 45, 32
1, 819877, Note_off_c, 0, 49, 56
1, 819901, Note_off_c, 0, 66, 39
1, 819936, Note_on_c, 0, 54, 34
1, 819976, Note_off_c, 0, 78, 23
1, 820020, Note_on_c, 0, 49, 47
1, 820071, Note_off_c, 0, 49, 53
1, 820074, Note_off_c, 0, 54, 29
1, 820119, Note_on_c, 0, 45, 45
1, 820189, Control_c, 0, 64, 94
1, 820231, Note_on_c, 0, 49, 40
1, 820242, Note_off_c, 0, 45, 36
1, 820248, Control_c, 0, 64, 94
1, 820305, Note_off_c, 0, 49, 56
1, 820307, Control_c, 0, 64, 93
1, 820322, Control_c, 0, 64, 93
1, 820332, Note_on_c, 0, 78, 63
1, 820336, Control_c, 0, 64, 92
1, 820351, Control_c, 0, 64, 92
1, 820357, Note_on_c, 0, 66, 40
1, 820358, Note_on_c, 0, 54, 29
1, 820366, Control_c, 0, 64, 91
1, 820381, Control_c, 0, 64, 90
1, 820396, Control_c, 0, 64, 89
1, 820411, Control_c, 0, 64, 88
1, 820426, Control_c, 0, 64, 86
1, 820441, Control_c, 0, 64, 85
1, 820443, Note_on_c, 0, 49, 43
1, 820456, Control_c, 0, 64, 83
1, 820471, Control_c, 0, 64, 81
1, 820485, Control_c, 0, 64, 80
1, 820500, Control_c, 0, 64, 79
1, 820515, Control_c, 0, 64, 78
1, 820529, Control_c, 0, 64, 77
1, 820530, Note_off_c, 0, 66, 50
1, 820544, Control_c, 0, 64, 75
1, 820548, Note_off_c, 0, 78, 52
1, 820553, Note_off_c, 0, 54, 36
1, 820559, Control_c, 0, 64, 67
1, 820574, Control_c, 0, 64, 52
1, 820589, Note_off_c, 0, 49, 47
1, 820589, Control_c, 0, 64, 0
1, 820600, Note_on_c, 0, 77, 60
1, 820607, Note_on_c, 0, 44, 38
1, 820613, Note_on_c, 0, 65, 41
1, 820672, Control_c, 0, 64, 10
1, 820687, Control_c, 0, 64, 59
1, 820691, Note_off_c, 0, 65, 59
1, 820702, Control_c, 0, 64, 67
1, 820716, Control_c, 0, 64, 73
1, 820731, Control_c, 0, 64, 79
1, 820746, Control_c, 0, 64, 86
1, 820760, Note_off_c, 0, 77, 62
1, 820761, Control_c, 0, 64, 96
1, 820762, Note_on_c, 0, 47, 48
1, 820775, Control_c, 0, 64, 113
1, 820790, Control_c, 0, 64, 127
1, 820848, Note_off_c, 0, 47, 56
1, 820888, Note_off_c, 0, 44, 34
1, 820894, Note_on_c, 0, 85, 67
1, 820912, Note_on_c, 0, 73, 51
1, 820928, Note_on_c, 0, 53, 35
1, 820989, Note_off_c, 0, 73, 53
1, 821001, Note_off_c, 0, 85, 62
1, 821008, Note_on_c, 0, 47, 44
1, 821109, Note_off_c, 0, 47, 52
1, 821120, Note_on_c, 0, 85, 77
1, 821132, Note_on_c, 0, 44, 46
1, 821133, Note_off_c, 0, 53, 38
1, 821138, Note_on_c, 0, 73, 55
1, 821187, Note_off_c, 0, 73, 55
1, 821219, Note_off_c, 0, 85, 62
1, 821248, Note_on_c, 0, 47, 49
1, 821248, Note_off_c, 0, 44, 50
1, 821326, Note_off_c, 0, 47, 56
1, 821344, Note_on_c, 0, 85, 73
1, 821361, Note_on_c, 0, 73, 61
1, 821429, Note_on_c, 0, 53, 11
1, 821442, Note_off_c, 0, 73, 55
1, 821472, Note_off_c, 0, 85, 59
1, 821481, Note_on_c, 0, 47, 50
1, 821588, Note_off_c, 0, 47, 57
1, 821594, Note_off_c, 0, 53, 30
1, 821602, Note_on_c, 0, 85, 60
1, 821626, Note_on_c, 0, 44, 40
1, 821631, Note_on_c, 0, 73, 40
1, 821720, Note_off_c, 0, 73, 35
1, 821731, Note_on_c, 0, 47, 50
1, 821740, Note_off_c, 0, 85, 55
1, 821836, Note_off_c, 0, 47, 58
1, 821866, Note_on_c, 0, 85, 54
1, 821889, Note_on_c, 0, 53, 37
1, 821899, Note_on_c, 0, 73, 25
1, 821952, Note_off_c, 0, 44, 14
1, 821960, Note_off_c, 0, 73, 42
1, 821994, Note_off_c, 0, 85, 47
1, 822003, Note_on_c, 0, 47, 46
1, 822156, Note_off_c, 0, 47, 49
1, 822169, Control_c, 0, 64, 109
1, 822179, Note_on_c, 0, 45, 40
1, 822183, Control_c, 0, 64, 101
1, 822198, Control_c, 0, 64, 94
1, 822213, Control_c, 0, 64, 88
1, 822228, Control_c, 0, 64, 81
1, 822236, Note_on_c, 0, 85, 50
1, 822243, Control_c, 0, 64, 68
1, 822255, Note_on_c, 0, 73, 39
1, 822259, Control_c, 0, 64, 49
1, 822259, Note_off_c, 0, 53, 42
1, 822274, Control_c, 0, 64, 0
1, 822348, Control_c, 0, 64, 46
1, 822362, Control_c, 0, 64, 63
1, 822377, Control_c, 0, 64, 68
1, 822392, Control_c, 0, 64, 73
1, 822405, Note_on_c, 0, 49, 38
1, 822406, Control_c, 0, 64, 76
1, 822421, Control_c, 0, 64, 79
1, 822436, Control_c, 0, 64, 83
1, 822451, Control_c, 0, 64, 85
1, 822466, Control_c, 0, 64, 85
1, 822476, Note_off_c, 0, 49, 58
1, 822481, Control_c, 0, 64, 86
1, 822510, Control_c, 0, 64, 86
1, 822518, Note_on_c, 0, 54, 37
1, 822525, Control_c, 0, 64, 87
1, 822539, Control_c, 0, 64, 87
1, 822576, Note_off_c, 0, 45, 22
1, 822611, Note_on_c, 0, 49, 44
1, 822690, Note_off_c, 0, 49, 50
1, 822702, Note_off_c, 0, 54, 31
1, 822726, Note_on_c, 0, 45, 47
1, 822779, Note_off_c, 0, 85, 63
1, 822793, Note_off_c, 0, 73, 40
1, 822840, Note_on_c, 0, 49, 45
1, 822915, Note_off_c, 0, 49, 59
1, 822942, Note_on_c, 0, 83, 67
1, 822954, Note_on_c, 0, 71, 50
1, 822964, Note_on_c, 0, 54, 43
1, 822977, Note_off_c, 0, 71, 59
1, 822996, Note_off_c, 0, 83, 60
1, 823057, Note_on_c, 0, 85, 76
1, 823062, Note_off_c, 0, 45, 41
1, 823064, Note_on_c, 0, 49, 48
1, 823082, Note_on_c, 0, 73, 41
1, 823095, Note_off_c, 0, 54, 32
1, 823126, Note_off_c, 0, 73, 50
1, 823169, Control_c, 0, 64, 86
1, 823170, Note_off_c, 0, 49, 48
1, 823184, Control_c, 0, 64, 80
1, 823199, Control_c, 0, 64, 67
1, 823203, Note_on_c, 0, 86, 75
1, 823209, Note_off_c, 0, 85, 58
1, 823214, Control_c, 0, 64, 45
1, 823216, Note_on_c, 0, 47, 46
1, 823228, Control_c, 0, 64, 0
1, 823231, Note_on_c, 0, 74, 51
1, 823273, Control_c, 0, 64, 39
1, 823288, Control_c, 0, 64, 59
1, 823298, Note_off_c, 0, 74, 65
1, 823302, Control_c, 0, 64, 68
1, 823317, Control_c, 0, 64, 74
1, 823332, Control_c, 0, 64, 78
1, 823347, Control_c, 0, 64, 79
1, 823363, Note_on_c, 0, 50, 48
1, 823407, Note_off_c, 0, 86, 60
1, 823414, Note_off_c, 0, 47, 30
1, 823416, Note_off_c, 0, 50, 59
1, 823440, Note_on_c, 0, 85, 61
1, 823455, Note_on_c, 0, 73, 52
1, 823463, Note_off_c, 0, 85, 68
1, 823476, Note_on_c, 0, 55, 47
1, 823478, Note_off_c, 0, 73, 60
1, 823540, Note_on_c, 0, 83, 71
1, 823556, Note_on_c, 0, 71, 58
1, 823571, Note_on_c, 0, 50, 52
1, 823573, Note_off_c, 0, 55, 48
1, 823588, Note_off_c, 0, 71, 63
1, 823636, Control_c, 0, 64, 78
1, 823651, Control_c, 0, 64, 78
1, 823666, Control_c, 0, 64, 77
1, 823681, Control_c, 0, 64, 76
1, 823695, Control_c, 0, 64, 74
1, 823701, Note_off_c, 0, 50, 57
1, 823710, Control_c, 0, 64, 72
1, 823718, Note_on_c, 0, 81, 71
1, 823725, Control_c, 0, 64, 69
1, 823736, Note_on_c, 0, 49, 45
1, 823739, Note_off_c, 0, 83, 62
1, 823740, Control_c, 0, 64, 63
1, 823741, Note_on_c, 0, 69, 56
1, 823754, Control_c, 0, 64, 36
1, 823769, Control_c, 0, 64, 0
1, 823859, Control_c, 0, 64, 55
1, 823874, Control_c, 0, 64, 65
1, 823889, Control_c, 0, 64, 67
1, 823901, Note_on_c, 0, 54, 41
1, 823904, Control_c, 0, 64, 69
1, 823919, Control_c, 0, 64, 70
1, 823933, Control_c, 0, 64, 72
1, 823948, Control_c, 0, 64, 74
1, 823952, Note_off_c, 0, 54, 60
1, 823963, Control_c, 0, 64, 75
1, 823977, Control_c, 0, 64, 76
1, 823990, Note_on_c, 0, 57, 38
1, 823992, Control_c, 0, 64, 76
1, 824007, Control_c, 0, 64, 77
1, 824022, Control_c, 0, 64, 77
1, 824037, Control_c, 0, 64, 78
1, 824075, Note_off_c, 0, 49, 18
1, 824095, Note_on_c, 0, 54, 43
1, 824150, Note_off_c, 0, 57, 28
1, 824155, Note_off_c, 0, 54, 58
1, 824201, Note_on_c, 0, 49, 45
1, 824303, Note_on_c, 0, 54, 45
1, 824379, Note_off_c, 0, 54, 56
1, 824382, Note_off_c, 0, 49, 35
1, 824390, Note_off_c, 0, 69, 56
1, 824420, Note_on_c, 0, 57, 42
1, 824532, Note_on_c, 0, 54, 30
1, 824556, Note_off_c, 0, 57, 32
1, 824593, Control_c, 0, 64, 77
1, 824602, Note_off_c, 0, 54, 40
1, 824608, Control_c, 0, 64, 74
1, 824623, Control_c, 0, 64, 67
1, 824633, Note_on_c, 0, 80, 49
1, 824637, Note_off_c, 0, 81, 57
1, 824638, Control_c, 0, 64, 53
1, 824653, Note_on_c, 0, 49, 34
1, 824653, Control_c, 0, 64, 0
1, 824658, Note_on_c, 0, 68, 35
1, 824683, Control_c, 0, 64, 26
1, 824697, Control_c, 0, 64, 46
1, 824712, Control_c, 0, 64, 56
1, 824727, Control_c, 0, 64, 62
1, 824742, Control_c, 0, 64, 65
1, 824757, Control_c, 0, 64, 68
1, 824772, Control_c, 0, 64, 71
1, 824775, Note_on_c, 0, 53, 38
1, 824787, Control_c, 0, 64, 75
1, 824790, Note_off_c, 0, 68, 46
1, 824801, Control_c, 0, 64, 78
1, 824802, Note_off_c, 0, 49, 36
1, 824816, Control_c, 0, 64, 79
1, 824831, Control_c, 0, 64, 81
1, 824831, Control_c, 0, 67, 122
1, 824846, Control_c, 0, 64, 83
1, 824846, Control_c, 0, 67, 116
1, 824855, Note_off_c, 0, 53, 61
1, 824861, Control_c, 0, 64, 85
1, 824861, Control_c, 0, 67, 111
1, 824867, Note_off_c, 0, 80, 61
1, 824875, Control_c, 0, 64, 86
1, 824875, Control_c, 0, 67, 107
1, 824888, Note_on_c, 0, 56, 41
1, 824890, Control_c, 0, 64, 88
1, 824890, Control_c, 0, 67, 105
1, 824905, Control_c, 0, 64, 90
1, 824905, Control_c, 0, 67, 102
1, 824920, Control_c, 0, 64, 91
1, 824920, Control_c, 0, 67, 100
1, 824934, Control_c, 0, 64, 92
1, 824934, Control_c, 0, 67, 97
1, 824949, Control_c, 0, 64, 93
1, 824949, Control_c, 0, 67, 94
1, 824964, Control_c, 0, 64, 94
1, 824964, Control_c, 0, 67, 90
1, 824979, Control_c, 0, 64, 95
1, 824979, Control_c, 0, 67, 87
1, 824994, Control_c, 0, 64, 97
1, 824994, Control_c, 0, 67, 83
1, 825008, Control_c, 0, 64, 99
1, 825008, Control_c, 0, 67, 79
1, 825013, Note_on_c, 0, 53, 43
1, 825023, Control_c, 0, 64, 103
1, 825023, Control_c, 0, 67, 77
1, 825038, Control_c, 0, 64, 107
1, 825038, Control_c, 0, 67, 73
1, 825053, Control_c, 0, 64, 110
1, 825053, Control_c, 0, 67, 69
1, 825068, Control_c, 0, 64, 114
1, 825068, Control_c, 0, 67, 64
1, 825082, Control_c, 0, 64, 115
1, 825082, Control_c, 0, 67, 61
1, 825091, Note_off_c, 0, 56, 30
1, 825097, Control_c, 0, 64, 116
1, 825097, Control_c, 0, 67, 59
1, 825112, Control_c, 0, 67, 58
1, 825134, Control_c, 0, 67, 58
1, 825164, Control_c, 0, 64, 115
1, 825164, Control_c, 0, 67, 58
1, 825179, Control_c, 0, 67, 60
1, 825193, Note_on_c, 0, 46, 48
1, 825194, Control_c, 0, 67, 60
1, 825208, Control_c, 0, 64, 113
1, 825208, Control_c, 0, 67, 61
1, 825223, Control_c, 0, 64, 111
1, 825223, Control_c, 0, 67, 62
1, 825238, Control_c, 0, 64, 110
1, 825238, Control_c, 0, 67, 63
1, 825253, Control_c, 0, 64, 107
1, 825253, Control_c, 0, 67, 64
1, 825268, Control_c, 0, 64, 101
1, 825268, Control_c, 0, 67, 64
1, 825270, Note_off_c, 0, 53, 42
1, 825282, Control_c, 0, 64, 91
1, 825282, Control_c, 0, 67, 65
1, 825297, Note_on_c, 0, 85, 69
1, 825297, Control_c, 0, 64, 79
1, 825297, Control_c, 0, 67, 66
1, 825312, Control_c, 0, 64, 66
1, 825319, Note_on_c, 0, 73, 50
1, 825326, Control_c, 0, 64, 41
1, 825326, Control_c, 0, 67, 66
1, 825341, Control_c, 0, 64, 0
1, 825341, Control_c, 0, 67, 67
1, 825356, Control_c, 0, 67, 67
1, 825371, Control_c, 0, 67, 68
1, 825431, Control_c, 0, 64, 35
1, 825431, Control_c, 0, 67, 68
1, 825446, Control_c, 0, 64, 63
1, 825446, Control_c, 0, 67, 69
1, 825461, Control_c, 0, 64, 68
1, 825476, Control_c, 0, 64, 74
1, 825491, Control_c, 0, 64, 81
1, 825503, Note_on_c, 0, 49, 40
1, 825505, Control_c, 0, 64, 87
1, 825520, Control_c, 0, 64, 88
1, 825520, Control_c, 0, 67, 68
1, 825535, Control_c, 0, 67, 68
1, 825565, Control_c, 0, 64, 89
1, 825565, Control_c, 0, 67, 67
1, 825580, Control_c, 0, 64, 92
1, 825580, Control_c, 0, 67, 67
1, 825587, Note_off_c, 0, 49, 56
1, 825595, Control_c, 0, 64, 95
1, 825610, Control_c, 0, 64, 95
1, 825610, Control_c, 0, 67, 66
1, 825624, Control_c, 0, 64, 96
1, 825624, Control_c, 0, 67, 66
1, 825636, Note_on_c, 0, 54, 43
1, 825639, Control_c, 0, 64, 97
1, 825654, Control_c, 0, 64, 98
1, 825654, Control_c, 0, 67, 65
1, 825684, Control_c, 0, 64, 98
1, 825684, Control_c, 0, 67, 64
1, 825698, Control_c, 0, 64, 99
1, 825698, Control_c, 0, 67, 64
1, 825713, Control_c, 0, 64, 99
1, 825728, Control_c, 0, 64, 100
1, 825728, Control_c, 0, 67, 63
1, 825741, Note_off_c, 0, 46, 38
1, 825743, Control_c, 0, 64, 100
1, 825743, Control_c, 0, 67, 63
1, 825751, Note_on_c, 0, 49, 44
1, 825757, Control_c, 0, 64, 101
1, 825772, Control_c, 0, 64, 101
1, 825772, Control_c, 0, 67, 62
1, 825787, Control_c, 0, 67, 61
1, 825802, Control_c, 0, 67, 61
1, 825819, Note_off_c, 0, 54, 35
1, 825831, Control_c, 0, 67, 60
1, 825848, Note_off_c, 0, 49, 55
1, 825860, Note_on_c, 0, 46, 49
1, 825861, Control_c, 0, 67, 60
1, 825884, Control_c, 0, 67, 59
1, 825909, Note_off_c, 0, 73, 36
1, 825913, Control_c, 0, 67, 59
1, 825943, Control_c, 0, 67, 58
1, 825957, Control_c, 0, 67, 58
1, 825984, Note_off_c, 0, 85, 37
1, 825987, Control_c, 0, 67, 57
1, 825990, Note_on_c, 0, 49, 49
1, 826017, Control_c, 0, 67, 54
1, 826031, Control_c, 0, 67, 50
1, 826046, Control_c, 0, 67, 47
1, 826061, Control_c, 0, 67, 45
1, 826068, Note_off_c, 0, 49, 57
1, 826075, Control_c, 0, 67, 43
1, 826088, Note_on_c, 0, 84, 64
1, 826090, Control_c, 0, 67, 40
1, 826100, Note_on_c, 0, 54, 52
1, 826104, Note_on_c, 0, 72, 45
1, 826105, Control_c, 0, 67, 38
1, 826120, Control_c, 0, 67, 36
1, 826129, Note_off_c, 0, 72, 57
1, 826135, Control_c, 0, 67, 33
1, 826149, Control_c, 0, 67, 31
1, 826164, Control_c, 0, 67, 30
1, 826179, Control_c, 0, 67, 28
1, 826193, Note_off_c, 0, 84, 61
1, 826194, Control_c, 0, 67, 26
1, 826209, Control_c, 0, 67, 24
1, 826216, Note_on_c, 0, 85, 69
1, 826222, Note_off_c, 0, 46, 40
1, 826224, Control_c, 0, 67, 21
1, 826227, Note_on_c, 0, 49, 47
1, 826230, Note_on_c, 0, 73, 55
1, 826239, Control_c, 0, 67, 19
1, 826254, Control_c, 0, 67, 16
1, 826267, Note_off_c, 0, 73, 51
1, 826269, Control_c, 0, 64, 101
1, 826269, Control_c, 0, 67, 13
1, 826284, Control_c, 0, 64, 100
1, 826284, Control_c, 0, 67, 10
1, 826299, Control_c, 0, 64, 99
1, 826299, Control_c, 0, 67, 0
1, 826314, Control_c, 0, 64, 97
1, 826328, Note_off_c, 0, 54, 34
1, 826328, Control_c, 0, 64, 94
1, 826343, Control_c, 0, 64, 91
1, 826358, Control_c, 0, 64, 86
1, 826371, Note_off_c, 0, 49, 50
1, 826373, Control_c, 0, 64, 79
1, 826383, Note_off_c, 0, 85, 62
1, 826385, Note_on_c, 0, 47, 53
1, 826388, Control_c, 0, 64, 72
1, 826391, Note_on_c, 0, 87, 76
1, 826403, Control_c, 0, 64, 62
1, 826405, Note_on_c, 0, 75, 57
1, 826417, Control_c, 0, 64, 0
1, 826506, Control_c, 0, 64, 51
1, 826521, Control_c, 0, 64, 64
1, 826522, Note_off_c, 0, 75, 64
1, 826536, Control_c, 0, 64, 69
1, 826541, Note_on_c, 0, 51, 45
1, 826551, Control_c, 0, 64, 74
1, 826566, Control_c, 0, 64, 76
1, 826580, Control_c, 0, 64, 78
1, 826595, Control_c, 0, 64, 80
1, 826610, Control_c, 0, 64, 81
1, 826632, Control_c, 0, 64, 82
1, 826643, Note_off_c, 0, 51, 57
1, 826647, Control_c, 0, 64, 83
1, 826661, Note_on_c, 0, 89, 69
1, 826662, Control_c, 0, 64, 84
1, 826673, Note_off_c, 0, 87, 62
1, 826677, Control_c, 0, 64, 86
1, 826689, Note_on_c, 0, 54, 44
1, 826692, Note_on_c, 0, 77, 37
1, 826692, Note_off_c, 0, 47, 38
1, 826692, Control_c, 0, 64, 88
1, 826706, Control_c, 0, 64, 91
1, 826721, Control_c, 0, 64, 94
1, 826725, Note_off_c, 0, 77, 42
1, 826736, Control_c, 0, 64, 96
1, 826751, Control_c, 0, 64, 98
1, 826766, Control_c, 0, 64, 101
1, 826780, Control_c, 0, 64, 103
1, 826787, Note_off_c, 0, 89, 61
1, 826794, Note_on_c, 0, 90, 73
1, 826795, Control_c, 0, 64, 105
1, 826799, Note_on_c, 0, 51, 50
1, 826805, Note_off_c, 0, 54, 46
1, 826810, Note_on_c, 0, 78, 60
1, 826810, Control_c, 0, 64, 107
1, 826825, Control_c, 0, 64, 109
1, 826840, Control_c, 0, 64, 110
1, 826844, Note_off_c, 0, 78, 65
1, 826847, Note_off_c, 0, 90, 61
1, 826958, Control_c, 0, 64, 109
1, 826972, Control_c, 0, 64, 106
1, 826987, Control_c, 0, 64, 101
1, 827002, Control_c, 0, 64, 96
1, 827017, Control_c, 0, 64, 90
1, 827032, Control_c, 0, 64, 83
1, 827040, Note_on_c, 0, 82, 67
1, 827048, Control_c, 0, 64, 79
1, 827052, Note_off_c, 0, 51, 37
1, 827055, Note_on_c, 0, 49, 37
1, 827063, Control_c, 0, 64, 76
1, 827067, Note_on_c, 0, 70, 40
1, 827077, Control_c, 0, 64, 72
1, 827092, Control_c, 0, 64, 66
1, 827107, Control_c, 0, 64, 53
1, 827121, Control_c, 0, 64, 0
1, 827151, Control_c, 0, 67, 11
1, 827166, Control_c, 0, 67, 19
1, 827181, Control_c, 0, 67, 26
1, 827195, Control_c, 0, 67, 34
1, 827210, Control_c, 0, 64, 41
1, 827210, Control_c, 0, 67, 40
1, 827225, Control_c, 0, 64, 64
1, 827225, Control_c, 0, 67, 46
1, 827240, Control_c, 0, 64, 69
1, 827240, Control_c, 0, 67, 52
1, 827255, Control_c, 0, 64, 71
1, 827255, Control_c, 0, 67, 58
1, 827260, Note_on_c, 0, 54, 29
1, 827270, Control_c, 0, 64, 72
1, 827270, Control_c, 0, 67, 65
1, 827285, Control_c, 0, 64, 74
1, 827285, Control_c, 0, 67, 73
1, 827300, Control_c, 0, 64, 74
1, 827300, Control_c, 0, 67, 77
1, 827315, Control_c, 0, 64, 75
1, 827315, Control_c, 0, 67, 79
1, 827329, Control_c, 0, 67, 83
1, 827332, Note_off_c, 0, 54, 56
1, 827344, Control_c, 0, 67, 88
1, 827359, Control_c, 0, 67, 95
1, 827375, Note_on_c, 0, 58, 39
1, 827381, Control_c, 0, 67, 101
1, 827396, Control_c, 0, 67, 105
1, 827410, Control_c, 0, 67, 105
1, 827425, Control_c, 0, 67, 106
1, 827459, Note_off_c, 0, 49, 38
1, 827482, Note_on_c, 0, 54, 43
1, 827559, Note_off_c, 0, 58, 26
1, 827578, Note_off_c, 0, 54, 59
1, 827607, Note_on_c, 0, 49, 34
1, 827634, Note_off_c, 0, 70, 31
1, 827692, Control_c, 0, 67, 105
1, 827707, Control_c, 0, 67, 105
1, 827717, Note_on_c, 0, 54, 48
1, 827736, Control_c, 0, 67, 104
1, 827781, Control_c, 0, 67, 104
1, 827785, Note_off_c, 0, 54, 50
1, 827818, Note_off_c, 0, 82, 36
1, 827842, Note_on_c, 0, 58, 45
1, 827842, Note_on_c, 0, 83, 55
1, 827886, Control_c, 0, 67, 104
1, 827900, Control_c, 0, 67, 105
1, 827907, Note_off_c, 0, 83, 62
1, 827922, Poly_aftertouch_c, 0, 71, 0
1, 827930, Control_c, 0, 67, 105
1, 827935, Note_off_c, 0, 49, 37
1, 827944, Control_c, 0, 67, 106
1, 827958, Note_on_c, 0, 85, 61
1, 827959, Control_c, 0, 67, 106
1, 827962, Note_on_c, 0, 54, 42
1, 827973, Note_on_c, 0, 73, 44
1, 827974, Control_c, 0, 67, 107
1, 828004, Control_c, 0, 64, 74
1, 828004, Control_c, 0, 67, 107
1, 828015, Note_off_c, 0, 73, 47
1, 828018, Control_c, 0, 64, 74
1, 828018, Control_c, 0, 67, 108
1, 828026, Note_off_c, 0, 85, 61
1, 828033, Control_c, 0, 64, 73
1, 828033, Control_c, 0, 67, 110
1, 828046, Note_off_c, 0, 58, 36
1, 828048, Control_c, 0, 64, 73
1, 828048, Control_c, 0, 67, 113
1, 828063, Control_c, 0, 64, 72
1, 828063, Control_c, 0, 67, 115
1, 828078, Control_c, 0, 64, 70
1, 828078, Control_c, 0, 67, 119
1, 828093, Control_c, 0, 64, 66
1, 828093, Control_c, 0, 67, 125
1, 828108, Control_c, 0, 64, 61
1, 828108, Control_c, 0, 67, 127
1, 828123, Note_on_c, 0, 49, 29
1, 828130, Control_c, 0, 64, 38
1, 828134, Note_on_c, 0, 83, 55
1, 828145, Control_c, 0, 64, 0
1, 828156, Note_off_c, 0, 54, 38
1, 828162, Note_on_c, 0, 71, 44
1, 828204, Control_c, 0, 64, 22
1, 828219, Control_c, 0, 64, 51
1, 828233, Control_c, 0, 64, 61
1, 828248, Control_c, 0, 64, 65
1, 828263, Control_c, 0, 64, 66
1, 828265, Note_off_c, 0, 71, 62
1, 828278, Control_c, 0, 64, 66
1, 828292, Control_c, 0, 64, 67
1, 828295, Note_on_c, 0, 53, 38
1, 828307, Control_c, 0, 64, 68
1, 828322, Control_c, 0, 64, 68
1, 828352, Control_c, 0, 64, 69
1, 828356, Note_off_c, 0, 53, 51
1, 828382, Control_c, 0, 64, 69
1, 828386, Note_off_c, 0, 83, 57
1, 828397, Control_c, 0, 64, 70
1, 828407, Note_on_c, 0, 82, 55
1, 828412, Control_c, 0, 64, 70
1, 828420, Note_on_c, 0, 70, 40
1, 828421, Note_on_c, 0, 59, 37
1, 828426, Control_c, 0, 64, 71
1, 828441, Control_c, 0, 64, 71
1, 828447, Note_off_c, 0, 70, 56
1, 828456, Control_c, 0, 64, 72
1, 828470, Control_c, 0, 64, 73
1, 828485, Control_c, 0, 64, 73
1, 828501, Note_off_c, 0, 82, 62
1, 828505, Note_off_c, 0, 59, 56
1, 828515, Note_on_c, 0, 80, 62
1, 828515, Control_c, 0, 64, 74
1, 828544, Note_off_c, 0, 49, 35
1, 828549, Note_on_c, 0, 68, 32
1, 828552, Note_on_c, 0, 53, 32
1, 828555, Note_off_c, 0, 80, 60
1, 828583, Note_off_c, 0, 68, 53
1, 828679, Control_c, 0, 64, 73
1, 828693, Control_c, 0, 64, 72
1, 828708, Control_c, 0, 64, 71
1, 828723, Control_c, 0, 64, 68
1, 828737, Note_off_c, 0, 53, 40
1, 828738, Control_c, 0, 64, 65
1, 828743, Note_on_c, 0, 78, 51
1, 828753, Control_c, 0, 64, 60
1, 828766, Note_on_c, 0, 66, 33
1, 828767, Control_c, 0, 64, 38
1, 828776, Note_on_c, 0, 58, 37
1, 828782, Control_c, 0, 64, 0
1, 828802, Note_on_c, 0, 54, 27
1, 828879, Control_c, 0, 64, 53
1, 828894, Control_c, 0, 64, 65
1, 828908, Control_c, 0, 64, 69
1, 828922, Note_off_c, 0, 54, 56
1, 828923, Control_c, 0, 64, 73
1, 828938, Control_c, 0, 64, 78
1, 828953, Control_c, 0, 64, 85
1, 828968, Control_c, 0, 64, 89
1, 828982, Control_c, 0, 64, 90
1, 828989, Note_off_c, 0, 78, 55
1, 829003, Note_off_c, 0, 58, 48
1, 829011, Note_off_c, 0, 66, 36
1, 829130, Control_c, 0, 64, 90
1, 829145, Control_c, 0, 64, 87
1, 829160, Control_c, 0, 64, 83
1, 829175, Control_c, 0, 64, 78
1, 829190, Control_c, 0, 64, 72
1, 829205, Control_c, 0, 64, 65
1, 829219, Control_c, 0, 64, 55
1, 829226, Note_on_c, 0, 73, 41
1, 829234, Control_c, 0, 64, 0
1, 829242, Note_on_c, 0, 66, 31
1, 829253, Note_on_c, 0, 49, 26
1, 829257, Note_on_c, 0, 58, 32
1, 829279, Control_c, 0, 64, 39
1, 829294, Control_c, 0, 64, 54
1, 829308, Control_c, 0, 64, 62
1, 829323, Control_c, 0, 64, 67
1, 829338, Control_c, 0, 64, 72
1, 829353, Control_c, 0, 64, 77
1, 829367, Control_c, 0, 64, 81
1, 829382, Control_c, 0, 64, 84
1, 829397, Control_c, 0, 64, 87
1, 829400, Note_off_c, 0, 66, 44
1, 829412, Control_c, 0, 64, 88
1, 829419, Note_off_c, 0, 49, 36
1, 829427, Control_c, 0, 64, 89
1, 829437, Note_off_c, 0, 58, 43
1, 829551, Note_off_c, 0, 73, 31
1, 829590, Control_c, 0, 64, 88
1, 829605, Control_c, 0, 64, 83
1, 829608, Note_on_c, 0, 75, 41
1, 829628, Control_c, 0, 64, 74
1, 829643, Control_c, 0, 64, 64
1, 829653, Note_on_c, 0, 59, 31
1, 829653, Note_on_c, 0, 66, 32
1, 829658, Control_c, 0, 64, 43
1, 829672, Control_c, 0, 64, 0
1, 829679, Note_on_c, 0, 49, 20
1, 829702, Control_c, 0, 64, 29
1, 829717, Control_c, 0, 64, 48
1, 829731, Control_c, 0, 64, 59
1, 829746, Control_c, 0, 64, 64
1, 829761, Control_c, 0, 64, 68
1, 829776, Control_c, 0, 64, 72
1, 829791, Control_c, 0, 64, 77
1, 829801, Note_off_c, 0, 66, 47
1, 829805, Control_c, 0, 64, 81
1, 829810, Note_off_c, 0, 49, 38
1, 829820, Control_c, 0, 64, 84
1, 829821, Note_off_c, 0, 59, 41
1, 829835, Control_c, 0, 64, 85
1, 829865, Control_c, 0, 64, 83
1, 829879, Control_c, 0, 64, 75
1, 829894, Control_c, 0, 64, 66
1, 829909, Control_c, 0, 64, 63
1, 829923, Control_c, 0, 64, 63
1, 829928, Note_on_c, 0, 66, 37
1, 829929, Note_off_c, 0, 75, 36
1, 829931, Note_on_c, 0, 73, 47
1, 829938, Control_c, 0, 64, 65
1, 829940, Note_on_c, 0, 58, 39
1, 829953, Control_c, 0, 64, 68
1, 829955, Note_on_c, 0, 49, 34
1, 829968, Control_c, 0, 64, 72
1, 829983, Control_c, 0, 64, 76
1, 829991, Note_off_c, 0, 73, 61
1, 829998, Control_c, 0, 64, 78
1, 830012, Control_c, 0, 64, 79
1, 830027, Control_c, 0, 64, 80
1, 830042, Control_c, 0, 64, 80
1, 830044, Note_off_c, 0, 49, 34
1, 830061, Note_off_c, 0, 66, 41
1, 830067, Note_off_c, 0, 58, 36
1, 830117, Control_c, 0, 64, 76
1, 830131, Control_c, 0, 64, 68
1, 830146, Control_c, 0, 64, 61
1, 830161, Control_c, 0, 64, 51
1, 830166, Note_on_c, 0, 73, 47
1, 830176, Control_c, 0, 64, 54
1, 830180, Note_on_c, 0, 56, 36
1, 830181, Note_on_c, 0, 66, 49
1, 830187, Note_on_c, 0, 49, 35
1, 830191, Control_c, 0, 64, 61
1, 830205, Control_c, 0, 64, 64
1, 830220, Control_c, 0, 64, 68
1, 830235, Control_c, 0, 64, 75
1, 830251, Control_c, 0, 64, 82
1, 830264, Note_off_c, 0, 56, 47
1, 830266, Control_c, 0, 64, 86
1, 830267, Note_off_c, 0, 49, 51
1, 830277, Note_off_c, 0, 73, 53
1, 830281, Control_c, 0, 64, 86
1, 830356, Note_off_c, 0, 66, 41
1, 830376, Control_c, 0, 64, 81
1, 830390, Control_c, 0, 64, 71
1, 830405, Control_c, 0, 64, 63
1, 830409, Note_on_c, 0, 73, 56
1, 830417, Note_on_c, 0, 65, 38
1, 830418, Note_on_c, 0, 59, 42
1, 830419, Control_c, 0, 64, 53
1, 830424, Note_on_c, 0, 49, 37
1, 830434, Control_c, 0, 64, 53
1, 830449, Control_c, 0, 64, 59
1, 830464, Control_c, 0, 64, 64
1, 830479, Control_c, 0, 64, 70
1, 830493, Control_c, 0, 64, 79
1, 830508, Control_c, 0, 64, 86
1, 830515, Note_off_c, 0, 73, 36
1, 830523, Control_c, 0, 64, 89
1, 830538, Control_c, 0, 64, 89
1, 830548, Note_off_c, 0, 59, 36
1, 830555, Note_off_c, 0, 49, 33
1, 830558, Note_off_c, 0, 65, 41
1, 830597, Control_c, 0, 64, 87
1, 830612, Control_c, 0, 64, 77
1, 830626, Control_c, 0, 64, 67
1, 830641, Control_c, 0, 64, 57
1, 830647, Note_on_c, 0, 66, 49
1, 830647, Note_on_c, 0, 73, 48
1, 830656, Control_c, 0, 64, 53
1, 830662, Note_on_c, 0, 54, 38
1, 830666, Note_on_c, 0, 58, 32
1, 830671, Control_c, 0, 64, 61
1, 830686, Control_c, 0, 64, 66
1, 830700, Note_off_c, 0, 66, 61
1, 830701, Control_c, 0, 64, 72
1, 830716, Control_c, 0, 64, 83
1, 830731, Control_c, 0, 64, 95
1, 830733, Note_off_c, 0, 58, 41
1, 830743, Note_off_c, 0, 54, 50
1, 830745, Control_c, 0, 64, 98
1, 830746, Note_off_c, 0, 73, 55
1, 830760, Control_c, 0, 64, 99
1, 830863, Control_c, 0, 64, 99
1, 830878, Control_c, 0, 64, 92
1, 830893, Control_c, 0, 64, 78
1, 830895, Note_on_c, 0, 73, 50
1, 830908, Control_c, 0, 64, 66
1, 830922, Note_on_c, 0, 66, 41
1, 830923, Control_c, 0, 64, 53
1, 830932, Note_on_c, 0, 49, 32
1, 830934, Note_on_c, 0, 58, 26
1, 830938, Control_c, 0, 64, 39
1, 830952, Control_c, 0, 64, 51
1, 830967, Control_c, 0, 64, 60
1, 830982, Control_c, 0, 64, 64
1, 830997, Control_c, 0, 64, 70
1, 831012, Control_c, 0, 64, 79
1, 831026, Control_c, 0, 64, 90
1, 831033, Note_off_c, 0, 49, 35
1, 831042, Control_c, 0, 64, 98
1, 831047, Note_off_c, 0, 58, 34
1, 831057, Control_c, 0, 64, 104
1, 831060, Note_off_c, 0, 66, 39
1, 831072, Control_c, 0, 64, 110
1, 831086, Control_c, 0, 64, 113
1, 831119, Note_off_c, 0, 73, 34
1, 831243, Control_c, 0, 64, 110
1, 831258, Control_c, 0, 64, 105
1, 831267, Note_on_c, 0, 78, 47
1, 831273, Control_c, 0, 64, 95
1, 831288, Control_c, 0, 64, 81
1, 831301, Note_on_c, 0, 59, 31
1, 831302, Control_c, 0, 64, 68
1, 831303, Note_on_c, 0, 66, 38
1, 831314, Note_on_c, 0, 75, 33
1, 831317, Control_c, 0, 64, 54
1, 831318, Note_on_c, 0, 49, 23
1, 831332, Control_c, 0, 64, 0
1, 831362, Control_c, 0, 64, 34
1, 831376, Control_c, 0, 64, 51
1, 831391, Control_c, 0, 64, 60
1, 831406, Control_c, 0, 64, 66
1, 831421, Control_c, 0, 64, 71
1, 831436, Control_c, 0, 64, 77
1, 831450, Control_c, 0, 64, 82
1, 831465, Control_c, 0, 64, 85
1, 831473, Note_off_c, 0, 49, 37
1, 831479, Note_off_c, 0, 66, 36
1, 831486, Note_off_c, 0, 59, 42
1, 831509, Control_c, 0, 64, 83
1, 831524, Control_c, 0, 64, 75
1, 831539, Control_c, 0, 64, 69
1, 831554, Control_c, 0, 64, 66
1, 831566, Note_off_c, 0, 78, 55
1, 831583, Control_c, 0, 64, 68
1, 831598, Note_on_c, 0, 66, 45
1, 831598, Note_on_c, 0, 73, 49
1, 831598, Control_c, 0, 64, 73
1, 831601, Note_on_c, 0, 58, 37
1, 831604, Note_off_c, 0, 75, 40
1, 831613, Control_c, 0, 64, 80
1, 831617, Note_on_c, 0, 49, 34
1, 831628, Control_c, 0, 64, 83
1, 831643, Control_c, 0, 64, 83
1, 831652, Note_off_c, 0, 73, 61
1, 831695, Note_off_c, 0, 49, 34
1, 831715, Note_off_c, 0, 66, 32
1, 831726, Note_off_c, 0, 58, 44
1, 831791, Control_c, 0, 64, 81
1, 831806, Control_c, 0, 64, 72
1, 831820, Control_c, 0, 64, 64
1, 831831, Note_on_c, 0, 66, 48
1, 831835, Control_c, 0, 64, 55
1, 831838, Note_on_c, 0, 73, 46
1, 831852, Control_c, 0, 64, 55
1, 831854, Note_on_c, 0, 56, 32
1, 831872, Note_on_c, 0, 49, 26
1, 831873, Control_c, 0, 64, 59
1, 831888, Control_c, 0, 64, 63
1, 831903, Control_c, 0, 64, 66
1, 831918, Control_c, 0, 64, 71
1, 831921, Note_off_c, 0, 73, 57
1, 831932, Control_c, 0, 64, 76
1, 831944, Note_off_c, 0, 66, 59
1, 831947, Control_c, 0, 64, 79
1, 831960, Note_off_c, 0, 56, 37
1, 831962, Control_c, 0, 64, 79
1, 831967, Note_on_c, 0, 65, 46
1, 831983, Note_off_c, 0, 49, 32
1, 832022, Control_c, 0, 64, 79
1, 832036, Control_c, 0, 64, 73
1, 832051, Control_c, 0, 64, 64
1, 832059, Note_on_c, 0, 73, 47
1, 832066, Note_on_c, 0, 59, 42
1, 832066, Control_c, 0, 64, 51
1, 832070, Note_off_c, 0, 65, 37
1, 832074, Note_on_c, 0, 66, 45
1, 832076, Note_on_c, 0, 49, 11
1, 832081, Control_c, 0, 64, 42
1, 832096, Control_c, 0, 64, 55
1, 832111, Control_c, 0, 64, 62
1, 832126, Control_c, 0, 64, 66
1, 832132, Note_off_c, 0, 59, 51
1, 832141, Control_c, 0, 64, 72
1, 832150, Note_off_c, 0, 49, 37
1, 832156, Control_c, 0, 64, 79
1, 832168, Note_off_c, 0, 66, 52
1, 832171, Control_c, 0, 64, 83
1, 832174, Note_on_c, 0, 68, 52
1, 832179, Note_off_c, 0, 73, 36
1, 832259, Control_c, 0, 64, 80
1, 832274, Control_c, 0, 64, 70
1, 832282, Note_off_c, 0, 68, 35
1, 832289, Control_c, 0, 64, 60
1, 832302, Note_on_c, 0, 66, 45
1, 832304, Control_c, 0, 64, 41
1, 832311, Note_on_c, 0, 54, 44
1, 832314, Note_on_c, 0, 73, 44
1, 832318, Control_c, 0, 64, 40
1, 832325, Note_on_c, 0, 58, 32
1, 832333, Control_c, 0, 64, 53
1, 832348, Control_c, 0, 64, 61
1, 832363, Control_c, 0, 64, 65
1, 832378, Control_c, 0, 64, 72
1, 832379, Note_off_c, 0, 58, 44
1, 832392, Control_c, 0, 64, 79
1, 832394, Note_off_c, 0, 73, 54
1, 832407, Control_c, 0, 64, 83
1, 832408, Note_off_c, 0, 54, 53
1, 832414, Note_off_c, 0, 66, 37
1, 832422, Control_c, 0, 64, 84
1, 832496, Control_c, 0, 64, 82
1, 832510, Control_c, 0, 64, 73
1, 832525, Control_c, 0, 64, 64
1, 832540, Control_c, 0, 64, 49
1, 832555, Control_c, 0, 64, 43
1, 832561, Note_on_c, 0, 73, 48
1, 832570, Note_on_c, 0, 56, 34
1, 832570, Control_c, 0, 64, 56
1, 832580, Note_on_c, 0, 65, 33
1, 832585, Control_c, 0, 64, 62
1, 832587, Note_on_c, 0, 49, 37
1, 832600, Control_c, 0, 64, 66
1, 832622, Control_c, 0, 64, 72
1, 832637, Control_c, 0, 64, 80
1, 832653, Control_c, 0, 64, 84
1, 832668, Control_c, 0, 64, 86
1, 832673, Note_off_c, 0, 73, 49
1, 832683, Control_c, 0, 64, 87
1, 832690, Note_off_c, 0, 65, 36
1, 832692, Note_off_c, 0, 49, 36
1, 832697, Control_c, 0, 64, 88
1, 832701, Note_off_c, 0, 56, 37
1, 832712, Control_c, 0, 64, 89
1, 832771, Control_c, 0, 64, 87
1, 832786, Control_c, 0, 64, 77
1, 832801, Control_c, 0, 64, 67
1, 832810, Note_on_c, 0, 73, 48
1, 832815, Control_c, 0, 64, 59
1, 832830, Control_c, 0, 64, 58
1, 832831, Note_on_c, 0, 66, 37
1, 832838, Note_on_c, 0, 58, 41
1, 832841, Note_on_c, 0, 54, 35
1, 832845, Control_c, 0, 64, 62
1, 832860, Control_c, 0, 64, 66
1, 832874, Control_c, 0, 64, 70
1, 832889, Control_c, 0, 64, 76
1, 832890, Note_off_c, 0, 58, 53
1, 832898, Note_off_c, 0, 73, 55
1, 832904, Control_c, 0, 64, 81
1, 832906, Note_off_c, 0, 66, 40
1, 832918, Note_off_c, 0, 54, 47
1, 832919, Control_c, 0, 64, 82
1, 833024, Note_on_c, 0, 70, 48
1, 833038, Control_c, 0, 64, 78
1, 833053, Control_c, 0, 64, 67
1, 833067, Control_c, 0, 64, 50
1, 833077, Note_off_c, 0, 70, 55
1, 833082, Control_c, 0, 64, 0
1, 833089, Note_on_c, 0, 73, 41
1, 833106, Note_on_c, 0, 59, 35
1, 833108, Note_on_c, 0, 68, 46
1, 833112, Control_c, 0, 64, 30
1, 833113, Note_on_c, 0, 49, 16
1, 833127, Control_c, 0, 64, 55
1, 833130, Note_on_c, 0, 65, 4
1, 833141, Control_c, 0, 64, 65
1, 833153, Note_off_c, 0, 68, 46
1, 833156, Control_c, 0, 64, 73
1, 833171, Control_c, 0, 64, 81
1, 833186, Control_c, 0, 64, 84
1, 833188, Note_off_c, 0, 65, 47
1, 833199, Note_off_c, 0, 59, 35
1, 833201, Control_c, 0, 64, 87
1, 833215, Control_c, 0, 64, 88
1, 833226, Note_off_c, 0, 73, 39
1, 833259, Note_off_c, 0, 49, 37
1, 833460, Control_c, 0, 64, 84
1, 833475, Control_c, 0, 64, 73
1, 833489, Control_c, 0, 64, 63
1, 833504, Control_c, 0, 64, 42
1, 833511, Note_on_c, 0, 73, 39
1, 833518, Note_on_c, 0, 66, 34
1, 833519, Control_c, 0, 64, 34
1, 833524, Note_on_c, 0, 58, 30
1, 833534, Control_c, 0, 64, 51
1, 833541, Note_on_c, 0, 54, 25
1, 833549, Control_c, 0, 64, 60
1, 833563, Control_c, 0, 64, 65
1, 833578, Control_c, 0, 64, 70
1, 833593, Control_c, 0, 64, 75
1, 833608, Control_c, 0, 64, 79
1, 833623, Control_c, 0, 64, 80
1, 833649, Note_off_c, 0, 58, 36
1, 833673, Note_off_c, 0, 66, 44
1, 833727, Note_off_c, 0, 54, 40
1, 833768, Note_off_c, 0, 73, 35
1, 833889, Control_c, 0, 64, 78
1, 833904, Control_c, 0, 64, 63
1, 833919, Control_c, 0, 64, 0
1, 833929, Note_on_c, 0, 42, 95
1, 833930, Note_on_c, 0, 54, 96
1, 833978, Control_c, 0, 64, 61
1, 833993, Control_c, 0, 64, 87
1, 834007, Control_c, 0, 64, 127
1, 834035, Note_off_c, 0, 54, 60
1, 834043, Note_off_c, 0, 42, 61
1, 834082, Control_c, 0, 67, 101
1, 834096, Control_c, 0, 67, 72
1, 834119, Control_c, 0, 67, 48
1, 834135, Control_c, 0, 64, 73
1, 834135, Control_c, 0, 67, 31
1, 834150, Control_c, 0, 64, 0
1, 834150, Control_c, 0, 67, 18
1, 834164, Control_c, 0, 67, 0
1, 834226, Note_on_c, 0, 52, 101
1, 834227, Note_on_c, 0, 40, 89
1, 834254, Control_c, 0, 64, 33
1, 834269, Control_c, 0, 64, 58
1, 834284, Control_c, 0, 64, 66
1, 834299, Control_c, 0, 64, 74
1, 834313, Control_c, 0, 64, 84
1, 834318, Note_off_c, 0, 40, 66
1, 834328, Control_c, 0, 64, 93
1, 834338, Note_off_c, 0, 52, 66
1, 834343, Control_c, 0, 64, 99
1, 834358, Control_c, 0, 64, 106
1, 834373, Control_c, 0, 64, 113
1, 834387, Control_c, 0, 64, 125
1, 834402, Control_c, 0, 64, 127
1, 834460, Note_on_c, 0, 66, 89
1, 834460, Note_on_c, 0, 78, 87
1, 834465, Note_on_c, 0, 70, 82
1, 834467, Note_on_c, 0, 73, 78
1, 834535, Note_off_c, 0, 66, 64
1, 834548, Note_off_c, 0, 70, 58
1, 834561, Note_off_c, 0, 78, 55
1, 834564, Note_off_c, 0, 73, 57
1, 834698, Control_c, 0, 64, 81
1, 834713, Control_c, 0, 64, 42
1, 834728, Control_c, 0, 64, 0
1, 834732, Note_on_c, 0, 79, 78
1, 834738, Note_on_c, 0, 67, 86
1, 834738, Note_on_c, 0, 70, 79
1, 834740, Note_on_c, 0, 73, 78
1, 834741, Note_on_c, 0, 64, 82
1, 834745, Note_on_c, 0, 52, 78
1, 834787, Control_c, 0, 64, 53
1, 834802, Control_c, 0, 64, 74
1, 834803, Note_off_c, 0, 79, 64
1, 834817, Control_c, 0, 64, 127
1, 834823, Note_off_c, 0, 64, 65
1, 834831, Note_off_c, 0, 52, 66
1, 834844, Note_off_c, 0, 67, 57
1, 834864, Note_off_c, 0, 73, 61
1, 834869, Note_off_c, 0, 70, 65
1, 835181, Control_c, 0, 64, 73
1, 835196, Control_c, 0, 64, 0
1, 835225, Note_on_c, 0, 61, 73
1, 835225, Note_on_c, 0, 67, 81
1, 835226, Note_on_c, 0, 58, 78
1, 835269, Control_c, 0, 64, 62
1, 835284, Control_c, 0, 64, 78
1, 835299, Control_c, 0, 64, 127
1, 835333, Note_off_c, 0, 58, 62
1, 835375, Note_off_c, 0, 61, 60
1, 835393, Note_off_c, 0, 67, 38
1, 835400, Note_on_c, 0, 52, 99
1, 835401, Note_on_c, 0, 40, 86
1, 835403, Control_c, 0, 64, 112
1, 835417, Control_c, 0, 64, 58
1, 835432, Control_c, 0, 64, 0
1, 835476, Control_c, 0, 64, 64
1, 835491, Control_c, 0, 64, 119
1, 835506, Control_c, 0, 64, 127
1, 835516, Note_off_c, 0, 40, 63
1, 835559, Note_off_c, 0, 52, 57
1, 835617, Control_c, 0, 64, 70
1, 835632, Control_c, 0, 64, 0
1, 835661, Note_on_c, 0, 50, 95
1, 835663, Note_on_c, 0, 38, 88
1, 835706, Control_c, 0, 64, 56
1, 835721, Control_c, 0, 64, 75
1, 835736, Control_c, 0, 64, 127
1, 835747, Note_off_c, 0, 38, 64
1, 835770, Note_off_c, 0, 50, 63
1, 835864, Note_on_c, 0, 82, 90
1, 835866, Note_on_c, 0, 70, 94
1, 835868, Note_on_c, 0, 74, 86
1, 835872, Note_on_c, 0, 79, 81
1, 835966, Note_off_c, 0, 74, 55
1, 835993, Note_off_c, 0, 79, 54
1, 836001, Note_off_c, 0, 70, 60
1, 836001, Note_off_c, 0, 82, 58
1, 836092, Control_c, 0, 64, 67
1, 836107, Control_c, 0, 64, 0
1, 836118, Note_on_c, 0, 83, 92
1, 836120, Note_on_c, 0, 71, 94
1, 836122, Note_on_c, 0, 79, 82
1, 836123, Note_on_c, 0, 74, 82
1, 836124, Note_on_c, 0, 62, 88
1, 836127, Note_on_c, 0, 50, 76
1, 836156, Note_on_c, 0, 78, 37
1, 836166, Control_c, 0, 64, 57
1, 836181, Control_c, 0, 64, 79
1, 836193, Note_off_c, 0, 78, 31
1, 836196, Control_c, 0, 64, 127
1, 836198, Note_off_c, 0, 83, 64
1, 836210, Note_off_c, 0, 50, 63
1, 836213, Note_off_c, 0, 62, 64
1, 836216, Note_off_c, 0, 79, 63
1, 836227, Note_off_c, 0, 74, 66
1, 836239, Note_off_c, 0, 71, 58
1, 836544, Control_c, 0, 64, 62
1, 836559, Control_c, 0, 64, 0
1, 836574, Note_on_c, 0, 71, 86
1, 836579, Note_on_c, 0, 59, 83
1, 836580, Note_on_c, 0, 62, 83
1, 836581, Note_on_c, 0, 67, 80
1, 836603, Control_c, 0, 64, 37
1, 836618, Control_c, 0, 64, 66
1, 836633, Control_c, 0, 64, 94
1, 836648, Control_c, 0, 64, 127
1, 836669, Note_off_c, 0, 59, 62
1, 836697, Note_off_c, 0, 62, 59
1, 836722, Control_c, 0, 64, 125
1, 836737, Control_c, 0, 64, 60
1, 836741, Note_off_c, 0, 67, 57
1, 836747, Note_off_c, 0, 71, 59
1, 836752, Control_c, 0, 64, 0
1, 836760, Note_on_c, 0, 37, 85
1, 836760, Note_on_c, 0, 49, 98
1, 836812, Control_c, 0, 64, 60
1, 836827, Control_c, 0, 64, 96
1, 836841, Control_c, 0, 64, 127
1, 836877, Note_off_c, 0, 37, 64
1, 836916, Note_off_c, 0, 49, 57
1, 836930, Control_c, 0, 64, 78
1, 836945, Control_c, 0, 64, 0
1, 836988, Note_on_c, 0, 38, 89
1, 836988, Note_on_c, 0, 50, 105
1, 837033, Control_c, 0, 64, 69
1, 837038, Note_off_c, 0, 38, 65
1, 837044, Note_off_c, 0, 50, 66
1, 837048, Control_c, 0, 64, 127
1, 837187, Note_on_c, 0, 85, 98
1, 837189, Note_on_c, 0, 73, 99
1, 837305, Note_off_c, 0, 73, 57
1, 837313, Note_off_c, 0, 85, 59
1, 837471, Control_c, 0, 64, 66
1, 837486, Control_c, 0, 64, 0
1, 837501, Note_on_c, 0, 86, 97
1, 837503, Note_on_c, 0, 78, 94
1, 837503, Note_on_c, 0, 81, 87
1, 837505, Note_on_c, 0, 74, 95
1, 837506, Note_on_c, 0, 72, 97
1, 837507, Note_on_c, 0, 50, 92
1, 837508, Note_on_c, 0, 62, 96
1, 837531, Control_c, 0, 64, 48
1, 837545, Control_c, 0, 64, 78
1, 837560, Control_c, 0, 64, 127
1, 837584, Note_off_c, 0, 86, 65
1, 837617, Note_off_c, 0, 50, 62
1, 837620, Note_off_c, 0, 81, 63
1, 837620, Note_off_c, 0, 74, 64
1, 837621, Note_off_c, 0, 72, 65
1, 837629, Note_off_c, 0, 62, 63
1, 837632, Note_off_c, 0, 78, 63
1, 837938, Control_c, 0, 64, 78
1, 837953, Control_c, 0, 64, 0
1, 837980, Note_on_c, 0, 74, 91
1, 837983, Note_on_c, 0, 66, 90
1, 837984, Note_on_c, 0, 62, 91
1, 837984, Note_on_c, 0, 69, 84
1, 837986, Note_on_c, 0, 60, 89
1, 838012, Control_c, 0, 64, 33
1, 838027, Control_c, 0, 64, 70
1, 838042, Control_c, 0, 64, 127
1, 838086, Note_off_c, 0, 60, 60
1, 838094, Note_off_c, 0, 62, 58
1, 838145, Control_c, 0, 64, 105
1, 838148, Note_off_c, 0, 66, 61
1, 838153, Note_off_c, 0, 69, 60
1, 838160, Control_c, 0, 64, 51
1, 838168, Note_off_c, 0, 74, 61
1, 838175, Control_c, 0, 64, 0
1, 838177, Note_on_c, 0, 50, 101
1, 838178, Note_on_c, 0, 38, 90
1, 838235, Control_c, 0, 64, 71
1, 838250, Control_c, 0, 64, 127
1, 838308, Note_off_c, 0, 50, 56
1, 838347, Note_off_c, 0, 38, 62
1, 838518, Note_on_c, 0, 43, 100
1, 838523, Note_on_c, 0, 31, 100
1, 838532, Control_c, 0, 64, 64
1, 838547, Control_c, 0, 64, 0
1, 838642, Control_c, 0, 64, 57
1, 838657, Control_c, 0, 64, 74
1, 838669, Note_off_c, 0, 31, 63
1, 838672, Control_c, 0, 64, 127
1, 838716, Note_off_c, 0, 43, 60
1, 838787, Note_on_c, 0, 79, 93
1, 838788, Note_on_c, 0, 71, 94
1, 838789, Note_on_c, 0, 74, 90
1, 838919, Note_off_c, 0, 71, 59
1, 838931, Note_off_c, 0, 79, 55
1, 838948, Note_off_c, 0, 74, 59
1, 839043, Control_c, 0, 64, 71
1, 839049, Note_on_c, 0, 74, 85
1, 839049, Note_on_c, 0, 83, 93
1, 839051, Note_on_c, 0, 71, 95
1, 839051, Note_on_c, 0, 79, 86
1, 839058, Note_on_c, 0, 43, 81
1, 839058, Note_on_c, 0, 55, 81
1, 839058, Control_c, 0, 64, 0
1, 839117, Control_c, 0, 64, 50
1, 839132, Control_c, 0, 64, 71
1, 839143, Note_off_c, 0, 83, 65
1, 839147, Control_c, 0, 64, 127
1, 839164, Note_off_c, 0, 79, 63
1, 839167, Note_off_c, 0, 71, 61
1, 839177, Note_off_c, 0, 74, 66
1, 839191, Note_off_c, 0, 43, 59
1, 839214, Note_off_c, 0, 55, 63
1, 839465, Control_c, 0, 64, 64
1, 839480, Control_c, 0, 64, 0
1, 839517, Note_on_c, 0, 67, 84
1, 839521, Note_on_c, 0, 59, 86
1, 839521, Note_on_c, 0, 62, 79
1, 839554, Control_c, 0, 64, 74
1, 839560, Note_off_c, 0, 59, 66
1, 839565, Note_off_c, 0, 62, 61
1, 839569, Control_c, 0, 64, 127
1, 839584, Note_off_c, 0, 67, 66
1, 839747, Control_c, 0, 64, 62
1, 839762, Control_c, 0, 64, 0
1, 839790, Note_on_c, 0, 86, 94
1, 839806, Control_c, 0, 64, 54
1, 839821, Control_c, 0, 64, 74
1, 839837, Control_c, 0, 64, 127
1, 839970, Control_c, 0, 64, 109
1, 839985, Control_c, 0, 64, 65
1, 839999, Control_c, 0, 64, 0
1, 840015, Note_on_c, 0, 40, 76
1, 840018, Note_on_c, 0, 52, 87
1, 840019, Note_on_c, 0, 91, 100
1, 840029, Control_c, 0, 64, 61
1, 840041, Note_off_c, 0, 40, 68
1, 840044, Control_c, 0, 64, 77
1, 840047, Note_off_c, 0, 86, 62
1, 840058, Control_c, 0, 64, 127
1, 840059, Note_off_c, 0, 52, 68
1, 840160, Note_on_c, 0, 85, 84
1, 840168, Note_off_c, 0, 91, 59
1, 840238, Note_off_c, 0, 85, 65
1, 840252, Note_on_c, 0, 55, 68
1, 840257, Note_on_c, 0, 88, 88
1, 840258, Note_on_c, 0, 61, 84
1, 840264, Note_on_c, 0, 52, 72
1, 840284, Note_on_c, 0, 58, 58
1, 840310, Note_off_c, 0, 58, 59
1, 840326, Note_off_c, 0, 61, 60
1, 840330, Note_off_c, 0, 55, 60
1, 840335, Note_off_c, 0, 52, 60
1, 840365, Note_off_c, 0, 88, 59
1, 840376, Note_on_c, 0, 82, 79
1, 840430, Note_off_c, 0, 82, 61
1, 840460, Note_on_c, 0, 64, 99
1, 840466, Note_on_c, 0, 58, 78
1, 840468, Note_on_c, 0, 55, 76
1, 840468, Note_on_c, 0, 61, 88
1, 840468, Note_on_c, 0, 85, 77
1, 840515, Note_on_c, 0, 87, 14
1, 840538, Note_off_c, 0, 55, 62
1, 840538, Note_off_c, 0, 64, 58
1, 840561, Note_off_c, 0, 87, 37
1, 840562, Note_off_c, 0, 58, 61
1, 840563, Note_off_c, 0, 61, 60
1, 840579, Note_on_c, 0, 79, 67
1, 840594, Note_off_c, 0, 85, 57
1, 840632, Note_off_c, 0, 79, 59
1, 840683, Note_on_c, 0, 82, 76
1, 840762, Note_off_c, 0, 82, 62
1, 840786, Note_on_c, 0, 76, 71
1, 840824, Note_off_c, 0, 76, 58
1, 840860, Control_c, 0, 64, 62
1, 840875, Control_c, 0, 64, 0
1, 840887, Note_on_c, 0, 79, 84
1, 840887, Note_on_c, 0, 67, 90
1, 840888, Note_on_c, 0, 58, 85
1, 840889, Note_on_c, 0, 61, 80
1, 840896, Note_on_c, 0, 64, 82
1, 840934, Control_c, 0, 64, 59
1, 840946, Note_off_c, 0, 67, 62
1, 840949, Control_c, 0, 64, 75
1, 840963, Control_c, 0, 64, 127
1, 840968, Note_off_c, 0, 64, 61
1, 840995, Note_on_c, 0, 73, 78
1, 840998, Note_off_c, 0, 79, 61
1, 841005, Note_off_c, 0, 58, 62
1, 841011, Note_off_c, 0, 61, 62
1, 841075, Note_off_c, 0, 73, 59
1, 841090, Note_on_c, 0, 76, 82
1, 841162, Note_off_c, 0, 76, 66
1, 841188, Note_on_c, 0, 70, 78
1, 841218, Note_off_c, 0, 70, 64
1, 841230, Control_c, 0, 64, 73
1, 841244, Control_c, 0, 64, 0
1, 841283, Note_on_c, 0, 38, 76
1, 841289, Note_on_c, 0, 50, 89
1, 841298, Note_on_c, 0, 90, 92
1, 841304, Control_c, 0, 64, 62
1, 841312, Note_off_c, 0, 38, 69
1, 841319, Control_c, 0, 64, 80
1, 841331, Note_off_c, 0, 50, 64
1, 841334, Control_c, 0, 64, 127
1, 841409, Note_off_c, 0, 90, 65
1, 841423, Note_on_c, 0, 83, 81
1, 841453, Control_c, 0, 64, 83
1, 841459, Note_off_c, 0, 83, 61
1, 841468, Control_c, 0, 64, 77
1, 841483, Control_c, 0, 64, 80
1, 841497, Control_c, 0, 64, 100
1, 841507, Note_on_c, 0, 54, 71
1, 841512, Control_c, 0, 64, 127
1, 841514, Note_on_c, 0, 50, 70
1, 841515, Note_on_c, 0, 86, 98
1, 841516, Note_on_c, 0, 59, 68
1, 841582, Note_off_c, 0, 50, 47
1, 841590, Note_off_c, 0, 54, 56
1, 841617, Note_off_c, 0, 59, 39
1, 841629, Note_on_c, 0, 78, 83
1, 841631, Note_off_c, 0, 86, 64
1, 841683, Control_c, 0, 64, 95
1, 841683, Note_off_c, 0, 78, 62
1, 841698, Control_c, 0, 64, 56
1, 841712, Control_c, 0, 64, 0
1, 841721, Note_on_c, 0, 83, 92
1, 841726, Note_on_c, 0, 54, 82
1, 841728, Note_on_c, 0, 59, 71
1, 841730, Note_on_c, 0, 62, 87
1, 841742, Control_c, 0, 64, 54
1, 841757, Control_c, 0, 64, 84
1, 841772, Control_c, 0, 64, 127
1, 841772, Note_off_c, 0, 59, 62
1, 841775, Note_off_c, 0, 62, 62
1, 841787, Note_off_c, 0, 54, 62
1, 841815, Note_off_c, 0, 83, 59
1, 841833, Note_on_c, 0, 74, 75
1, 841882, Note_off_c, 0, 74, 64
1, 841930, Note_on_c, 0, 78, 91
1, 842013, Note_off_c, 0, 78, 65
1, 842032, Note_on_c, 0, 71, 73
1, 842061, Note_off_c, 0, 71, 63
1, 842082, Control_c, 0, 64, 85
1, 842097, Control_c, 0, 64, 44
1, 842112, Control_c, 0, 64, 0
1, 842118, Note_on_c, 0, 74, 84
1, 842119, Note_on_c, 0, 66, 90
1, 842124, Note_on_c, 0, 59, 74
1, 842125, Note_on_c, 0, 62, 71
1, 842142, Control_c, 0, 64, 51
1, 842156, Control_c, 0, 64, 69
1, 842170, Note_off_c, 0, 66, 67
1, 842171, Control_c, 0, 64, 104
1, 842186, Control_c, 0, 64, 127
1, 842186, Note_off_c, 0, 62, 60
1, 842207, Note_off_c, 0, 59, 63
1, 842221, Note_on_c, 0, 66, 72
1, 842235, Note_off_c, 0, 74, 62
1, 842322, Note_on_c, 0, 71, 81
1, 842327, Note_off_c, 0, 66, 57
1, 842394, Note_off_c, 0, 71, 62
1, 842425, Note_on_c, 0, 62, 73
1, 842477, Note_off_c, 0, 62, 56
1, 842490, Control_c, 0, 64, 73
1, 842505, Control_c, 0, 64, 0
1, 842520, Note_on_c, 0, 59, 75
1, 842531, Note_on_c, 0, 71, 82
1, 842565, Control_c, 0, 64, 54
1, 842579, Control_c, 0, 64, 71
1, 842594, Control_c, 0, 64, 110
1, 842609, Control_c, 0, 64, 127
1, 842643, Note_on_c, 0, 52, 65
1, 842643, Note_on_c, 0, 64, 67
1, 842647, Note_off_c, 0, 71, 60
1, 842668, Control_c, 0, 64, 99
1, 842683, Control_c, 0, 64, 68
1, 842684, Note_off_c, 0, 59, 58
1, 842698, Control_c, 0, 64, 59
1, 842707, Note_off_c, 0, 64, 55
1, 842713, Control_c, 0, 64, 65
1, 842727, Control_c, 0, 64, 79
1, 842733, Note_on_c, 0, 67, 77
1, 842737, Note_on_c, 0, 55, 75
1, 842738, Note_off_c, 0, 52, 58
1, 842742, Control_c, 0, 64, 127
1, 842810, Note_off_c, 0, 67, 65
1, 842830, Note_on_c, 0, 49, 75
1, 842832, Note_off_c, 0, 55, 64
1, 842840, Note_on_c, 0, 61, 71
1, 842861, Note_off_c, 0, 61, 68
1, 842864, Note_off_c, 0, 49, 62
1, 842890, Control_c, 0, 64, 75
1, 842905, Control_c, 0, 64, 60
1, 842920, Control_c, 0, 64, 63
1, 842928, Note_on_c, 0, 64, 81
1, 842932, Note_on_c, 0, 52, 83
1, 842935, Control_c, 0, 64, 78
1, 842950, Control_c, 0, 64, 127
1, 843024, Note_on_c, 0, 59, 78
1, 843029, Note_off_c, 0, 64, 64
1, 843032, Note_on_c, 0, 47, 78
1, 843045, Note_off_c, 0, 52, 65
1, 843054, Control_c, 0, 64, 79
1, 843069, Control_c, 0, 64, 48
1, 843084, Control_c, 0, 64, 0
1, 843106, Control_c, 0, 64, 46
1, 843120, Control_c, 0, 64, 70
1, 843125, Note_on_c, 0, 49, 87
1, 843125, Note_on_c, 0, 61, 85
1, 843126, Note_off_c, 0, 47, 62
1, 843131, Note_off_c, 0, 59, 62
1, 843135, Control_c, 0, 64, 127
1, 843206, Note_off_c, 0, 61, 63
1, 843212, Note_on_c, 0, 43, 80
1, 843225, Note_on_c, 0, 55, 77
1, 843227, Note_off_c, 0, 49, 61
1, 843252, Note_off_c, 0, 43, 63
1, 843254, Control_c, 0, 64, 98
1, 843264, Note_off_c, 0, 55, 63
1, 843268, Control_c, 0, 64, 50
1, 843283, Control_c, 0, 64, 0
1, 843316, Note_on_c, 0, 59, 86
1, 843322, Note_on_c, 0, 47, 81
1, 843328, Control_c, 0, 64, 62
1, 843343, Control_c, 0, 64, 127
1, 843398, Note_on_c, 0, 52, 88
1, 843404, Note_off_c, 0, 59, 64
1, 843408, Note_on_c, 0, 40, 76
1, 843431, Control_c, 0, 64, 92
1, 843434, Note_off_c, 0, 47, 62
1, 843446, Control_c, 0, 64, 60
1, 843461, Control_c, 0, 64, 0
1, 843475, Control_c, 0, 64, 58
1, 843481, Note_off_c, 0, 52, 57
1, 843490, Control_c, 0, 64, 69
1, 843498, Note_on_c, 0, 55, 83
1, 843500, Note_on_c, 0, 43, 88
1, 843501, Note_off_c, 0, 40, 64
1, 843505, Control_c, 0, 64, 94
1, 843520, Control_c, 0, 64, 127
1, 843579, Note_off_c, 0, 55, 65
1, 843591, Note_on_c, 0, 49, 80
1, 843591, Note_off_c, 0, 43, 61
1, 843593, Note_on_c, 0, 37, 85
1, 843635, Note_off_c, 0, 37, 66
1, 843636, Note_off_c, 0, 49, 62
1, 843653, Control_c, 0, 64, 66
1, 843668, Control_c, 0, 64, 0
1, 843716, Note_on_c, 0, 38, 88
1, 843725, Note_on_c, 0, 50, 76
1, 843742, Control_c, 0, 64, 63
1, 843757, Control_c, 0, 64, 86
1, 843759, Note_off_c, 0, 50, 66
1, 843763, Note_on_c, 0, 52, 77
1, 843766, Note_off_c, 0, 38, 65
1, 843772, Control_c, 0, 64, 127
1, 843790, Note_on_c, 0, 40, 76
1, 843800, Note_off_c, 0, 52, 66
1, 843812, Note_on_c, 0, 50, 66
1, 843830, Note_off_c, 0, 40, 65
1, 843834, Note_on_c, 0, 38, 74
1, 843862, Note_off_c, 0, 50, 54
1, 843880, Note_on_c, 0, 52, 67
1, 843898, Note_off_c, 0, 38, 62
1, 843903, Note_on_c, 0, 40, 81
1, 843914, Note_off_c, 0, 52, 66
1, 843927, Note_on_c, 0, 50, 76
1, 843949, Note_on_c, 0, 38, 67
1, 843960, Note_off_c, 0, 40, 64
1, 844008, Note_on_c, 0, 52, 89
1, 844017, Control_c, 0, 64, 88
1, 844019, Note_off_c, 0, 50, 61
1, 844019, Note_on_c, 0, 40, 85
1, 844024, Note_off_c, 0, 38, 64
1, 844031, Control_c, 0, 64, 46
1, 844046, Control_c, 0, 64, 0
1, 844091, Control_c, 0, 64, 35
1, 844093, Note_on_c, 0, 54, 92
1, 844094, Note_on_c, 0, 42, 96
1, 844104, Note_off_c, 0, 40, 64
1, 844105, Control_c, 0, 64, 70
1, 844109, Note_off_c, 0, 52, 69
1, 844118, Note_off_c, 0, 42, 71
1, 844120, Control_c, 0, 64, 127
1, 844128, Note_off_c, 0, 54, 68
1, 844268, Control_c, 0, 64, 92
1, 844283, Control_c, 0, 64, 48
1, 844297, Control_c, 0, 64, 0
1, 844549, Control_c, 0, 64, 38
1, 844551, Note_on_c, 0, 78, 86
1, 844552, Note_on_c, 0, 82, 91
1, 844553, Note_on_c, 0, 54, 103
1, 844553, Note_on_c, 0, 42, 102
1, 844555, Note_on_c, 0, 70, 92
1, 844556, Note_on_c, 0, 73, 89
1, 844564, Control_c, 0, 64, 68
1, 844572, Note_off_c, 0, 54, 70
1, 844579, Control_c, 0, 64, 115
1, 844590, Note_off_c, 0, 42, 62
1, 844601, Control_c, 0, 64, 127
1, 844693, Note_off_c, 0, 73, 53
1, 844733, Note_off_c, 0, 82, 57
1, 844735, Note_off_c, 0, 70, 58
1, 844771, Note_off_c, 0, 78, 55
1, 844884, Control_c, 0, 64, 60
1, 844899, Control_c, 0, 64, 0
1, 845064, Note_on_c, 0, 35, 84
1, 845066, Note_on_c, 0, 83, 88
1, 845066, Note_on_c, 0, 71, 90
1, 845066, Note_on_c, 0, 78, 85
1, 845067, Note_on_c, 0, 47, 99
1, 845069, Note_on_c, 0, 74, 84
1, 845077, Control_c, 0, 64, 51
1, 845092, Control_c, 0, 64, 77
1, 845102, Note_off_c, 0, 35, 66
1, 845107, Control_c, 0, 64, 127
1, 845109, Note_off_c, 0, 47, 67
1, 845221, Note_off_c, 0, 83, 58
1, 845260, Note_off_c, 0, 71, 47
1, 845296, Note_off_c, 0, 78, 61
1, 845309, Note_off_c, 0, 74, 51
1, 845603, Control_c, 0, 64, 74
1, 845606, Note_on_c, 0, 71, 77
1, 845614, Note_on_c, 0, 47, 80
1, 845614, Note_on_c, 0, 59, 89
1, 845618, Control_c, 0, 64, 43
1, 845633, Control_c, 0, 64, 0
1, 845707, Control_c, 0, 64, 23
1, 845722, Control_c, 0, 64, 64
1, 845733, Note_off_c, 0, 47, 66
1, 845737, Control_c, 0, 64, 75
1, 845752, Control_c, 0, 64, 92
1, 845752, Note_off_c, 0, 59, 67
1, 845766, Control_c, 0, 64, 107
1, 845781, Note_off_c, 0, 71, 61
1, 845781, Control_c, 0, 64, 127
1, 846033, Control_c, 0, 64, 101
1, 846048, Control_c, 0, 64, 71
1, 846063, Control_c, 0, 64, 0
1, 846353, Control_c, 0, 64, 29
1, 846367, Control_c, 0, 64, 44
1, 846382, Control_c, 0, 64, 52
1, 846397, Control_c, 0, 64, 58
1, 846412, Control_c, 0, 64, 62
1, 846426, Control_c, 0, 64, 65
1, 846441, Control_c, 0, 64, 68
1, 846456, Control_c, 0, 64, 70
1, 846471, Control_c, 0, 64, 74
1, 846486, Control_c, 0, 64, 78
1, 846500, Control_c, 0, 64, 82
1, 846515, Control_c, 0, 64, 86
1, 846525, Note_on_c, 0, 90, 76
1, 846530, Control_c, 0, 64, 89
1, 846545, Control_c, 0, 64, 90
1, 846555, Note_on_c, 0, 78, 47
1, 846560, Control_c, 0, 64, 92
1, 846574, Control_c, 0, 64, 96
1, 846589, Control_c, 0, 64, 102
1, 846598, Note_off_c, 0, 78, 0
1, 846598, Note_on_c, 0, 78, 26
1, 846604, Control_c, 0, 64, 115
1, 846604, Control_c, 0, 67, 13
1, 846619, Control_c, 0, 64, 127
1, 846619, Control_c, 0, 67, 19
1, 846634, Control_c, 0, 67, 26
1, 846649, Control_c, 0, 67, 31
1, 846664, Control_c, 0, 67, 35
1, 846679, Control_c, 0, 67, 39
1, 846693, Control_c, 0, 67, 46
1, 846708, Control_c, 0, 67, 52
1, 846723, Control_c, 0, 67, 56
1, 846738, Control_c, 0, 67, 58
1, 846752, Control_c, 0, 67, 61
1, 846767, Control_c, 0, 67, 63
1, 846782, Control_c, 0, 67, 66
1, 846797, Control_c, 0, 67, 70
1, 846812, Control_c, 0, 67, 74
1, 846825, Note_off_c, 0, 78, 43
1, 846826, Control_c, 0, 67, 76
1, 846849, Control_c, 0, 67, 77
1, 846863, Control_c, 0, 67, 79
1, 846878, Control_c, 0, 67, 80
1, 846893, Control_c, 0, 64, 110
1, 846893, Control_c, 0, 67, 82
1, 846908, Control_c, 0, 64, 92
1, 846908, Control_c, 0, 67, 83
1, 846918, Note_on_c, 0, 91, 64
1, 846923, Control_c, 0, 64, 72
1, 846923, Control_c, 0, 67, 88
1, 846938, Control_c, 0, 64, 53
1, 846938, Control_c, 0, 67, 94
1, 846940, Note_on_c, 0, 52, 40
1, 846947, Note_on_c, 0, 79, 45
1, 846952, Control_c, 0, 64, 0
1, 846952, Control_c, 0, 67, 99
1, 846967, Control_c, 0, 67, 101
1, 846982, Control_c, 0, 67, 102
1, 847012, Control_c, 0, 64, 46
1, 847027, Control_c, 0, 64, 63
1, 847042, Control_c, 0, 64, 70
1, 847042, Control_c, 0, 67, 103
1, 847057, Control_c, 0, 64, 80
1, 847072, Control_c, 0, 64, 91
1, 847077, Note_off_c, 0, 91, 61
1, 847078, Note_off_c, 0, 90, 59
1, 847087, Control_c, 0, 64, 97
1, 847102, Control_c, 0, 64, 105
1, 847112, Note_off_c, 0, 79, 61
1, 847116, Control_c, 0, 64, 116
1, 847131, Control_c, 0, 64, 127
1, 847161, Control_c, 0, 67, 102
1, 847175, Control_c, 0, 67, 102
1, 847194, Note_on_c, 0, 55, 36
1, 847205, Control_c, 0, 67, 101
1, 847220, Control_c, 0, 67, 100
1, 847235, Control_c, 0, 67, 100
1, 847236, Note_off_c, 0, 52, 34
1, 847249, Control_c, 0, 67, 99
1, 847264, Control_c, 0, 67, 98
1, 847279, Control_c, 0, 67, 97
1, 847294, Control_c, 0, 67, 96
1, 847305, Note_on_c, 0, 78, 67
1, 847309, Control_c, 0, 67, 95
1, 847323, Control_c, 0, 67, 95
1, 847326, Note_on_c, 0, 66, 61
1, 847332, Note_off_c, 0, 55, 35
1, 847338, Control_c, 0, 67, 94
1, 847349, Note_on_c, 0, 60, 40
1, 847367, Control_c, 0, 67, 93
1, 847427, Control_c, 0, 67, 94
1, 847442, Note_on_c, 0, 55, 51
1, 847442, Control_c, 0, 67, 94
1, 847457, Control_c, 0, 67, 95
1, 847472, Control_c, 0, 67, 96
1, 847483, Note_off_c, 0, 66, 63
1, 847486, Control_c, 0, 67, 97
1, 847495, Note_off_c, 0, 60, 32
1, 847501, Control_c, 0, 67, 97
1, 847516, Control_c, 0, 64, 121
1, 847531, Control_c, 0, 64, 98
1, 847546, Control_c, 0, 64, 85
1, 847552, Note_off_c, 0, 55, 60
1, 847560, Control_c, 0, 64, 73
1, 847560, Control_c, 0, 67, 98
1, 847573, Note_on_c, 0, 79, 65
1, 847574, Note_on_c, 0, 67, 63
1, 847575, Control_c, 0, 64, 58
1, 847593, Note_on_c, 0, 52, 46
1, 847597, Control_c, 0, 64, 0
1, 847597, Control_c, 0, 67, 99
1, 847626, Note_off_c, 0, 78, 62
1, 847671, Control_c, 0, 64, 43
1, 847686, Control_c, 0, 64, 67
1, 847686, Control_c, 0, 67, 98
1, 847701, Control_c, 0, 64, 82
1, 847701, Control_c, 0, 67, 98
1, 847716, Control_c, 0, 64, 106
1, 847716, Control_c, 0, 67, 97
1, 847731, Control_c, 0, 64, 127
1, 847731, Control_c, 0, 67, 97
1, 847749, Note_off_c, 0, 79, 61
1, 847755, Note_on_c, 0, 55, 42
1, 847760, Note_off_c, 0, 52, 55
1, 847761, Control_c, 0, 67, 96
1, 847775, Control_c, 0, 67, 96
1, 847838, Note_off_c, 0, 55, 60
1, 847867, Note_on_c, 0, 60, 44
1, 847873, Note_off_c, 0, 67, 59
1, 847925, Control_c, 0, 67, 95
1, 847946, Note_off_c, 0, 60, 50
1, 847996, Note_on_c, 0, 55, 26
1, 848041, Note_off_c, 0, 55, 50
1, 848060, Note_on_c, 0, 72, 61
1, 848072, Note_on_c, 0, 52, 52
1, 848112, Note_off_c, 0, 72, 64
1, 848146, Control_c, 0, 64, 119
1, 848161, Control_c, 0, 64, 115
1, 848167, Note_on_c, 0, 55, 41
1, 848167, Note_off_c, 0, 52, 56
1, 848176, Control_c, 0, 64, 113
1, 848190, Control_c, 0, 64, 112
1, 848205, Control_c, 0, 67, 96
1, 848220, Control_c, 0, 64, 111
1, 848238, Note_off_c, 0, 55, 60
1, 848250, Control_c, 0, 64, 110
1, 848250, Control_c, 0, 67, 96
1, 848259, Note_on_c, 0, 91, 89
1, 848264, Control_c, 0, 67, 97
1, 848279, Note_on_c, 0, 60, 47
1, 848282, Note_on_c, 0, 79, 53
1, 848309, Control_c, 0, 64, 110
1, 848324, Control_c, 0, 67, 97
1, 848326, Note_off_c, 0, 79, 0
1, 848326, Note_on_c, 0, 79, 31
1, 848346, Control_c, 0, 67, 98
1, 848361, Control_c, 0, 64, 107
1, 848372, Note_off_c, 0, 79, 61
1, 848376, Control_c, 0, 64, 97
1, 848381, Note_on_c, 0, 55, 52
1, 848390, Control_c, 0, 64, 79
1, 848390, Control_c, 0, 67, 98
1, 848405, Control_c, 0, 64, 61
1, 848405, Control_c, 0, 67, 99
1, 848420, Control_c, 0, 64, 0
1, 848420, Control_c, 0, 67, 99
1, 848435, Control_c, 0, 67, 100
1, 848450, Note_off_c, 0, 60, 48
1, 848450, Control_c, 0, 67, 100
1, 848464, Control_c, 0, 67, 101
1, 848475, Note_on_c, 0, 90, 75
1, 848479, Note_off_c, 0, 55, 59
1, 848479, Control_c, 0, 67, 102
1, 848494, Control_c, 0, 64, 54
1, 848494, Control_c, 0, 67, 103
1, 848496, Note_on_c, 0, 50, 44
1, 848500, Note_on_c, 0, 78, 65
1, 848509, Control_c, 0, 64, 67
1, 848509, Control_c, 0, 67, 104
1, 848515, Note_off_c, 0, 91, 60
1, 848524, Control_c, 0, 64, 76
1, 848524, Control_c, 0, 67, 105
1, 848539, Control_c, 0, 64, 83
1, 848539, Control_c, 0, 67, 109
1, 848547, Note_off_c, 0, 90, 65
1, 848554, Control_c, 0, 67, 111
1, 848560, Note_off_c, 0, 78, 63
1, 848569, Control_c, 0, 67, 113
1, 848583, Control_c, 0, 67, 114
1, 848598, Control_c, 0, 67, 115
1, 848599, Note_on_c, 0, 54, 49
1, 848613, Control_c, 0, 64, 83
1, 848613, Control_c, 0, 67, 117
1, 848628, Control_c, 0, 67, 118
1, 848643, Control_c, 0, 64, 82
1, 848643, Control_c, 0, 67, 120
1, 848655, Note_off_c, 0, 50, 36
1, 848658, Control_c, 0, 64, 82
1, 848658, Control_c, 0, 67, 121
1, 848661, Note_off_c, 0, 54, 56
1, 848673, Control_c, 0, 64, 81
1, 848673, Control_c, 0, 67, 122
1, 848688, Control_c, 0, 67, 123
1, 848691, Note_on_c, 0, 77, 86
1, 848703, Control_c, 0, 64, 81
1, 848703, Control_c, 0, 67, 125
1, 848715, Note_on_c, 0, 65, 54
1, 848718, Control_c, 0, 67, 127
1, 848719, Note_on_c, 0, 59, 48
1, 848732, Control_c, 0, 67, 127
1, 848747, Control_c, 0, 64, 80
1, 848777, Control_c, 0, 64, 80
1, 848792, Control_c, 0, 64, 79
1, 848807, Control_c, 0, 64, 78
1, 848813, Note_off_c, 0, 65, 58
1, 848816, Note_on_c, 0, 54, 44
1, 848821, Control_c, 0, 64, 76
1, 848836, Control_c, 0, 64, 73
1, 848851, Control_c, 0, 64, 71
1, 848866, Control_c, 0, 64, 70
1, 848881, Control_c, 0, 64, 68
1, 848895, Control_c, 0, 64, 67
1, 848896, Note_off_c, 0, 59, 43
1, 848910, Control_c, 0, 64, 65
1, 848925, Control_c, 0, 64, 63
1, 848939, Control_c, 0, 64, 58
1, 848946, Note_off_c, 0, 54, 56
1, 848954, Control_c, 0, 64, 38
1, 848962, Note_on_c, 0, 78, 70
1, 848969, Control_c, 0, 64, 0
1, 848983, Note_on_c, 0, 66, 60
1, 848989, Note_on_c, 0, 50, 39
1, 849004, Note_off_c, 0, 77, 61
1, 849058, Control_c, 0, 64, 28
1, 849073, Control_c, 0, 64, 61
1, 849095, Control_c, 0, 64, 68
1, 849110, Control_c, 0, 64, 72
1, 849125, Control_c, 0, 64, 75
1, 849137, Note_on_c, 0, 54, 40
1, 849139, Control_c, 0, 64, 76
1, 849154, Control_c, 0, 64, 77
1, 849169, Control_c, 0, 64, 78
1, 849177, Note_off_c, 0, 50, 36
1, 849184, Control_c, 0, 64, 78
1, 849199, Control_c, 0, 64, 79
1, 849202, Note_off_c, 0, 54, 54
1, 849242, Note_on_c, 0, 59, 44
1, 849249, Note_off_c, 0, 78, 64
1, 849290, Note_off_c, 0, 66, 37
1, 849337, Note_on_c, 0, 54, 50
1, 849383, Note_off_c, 0, 59, 34
1, 849443, Note_off_c, 0, 54, 55
1, 849462, Note_on_c, 0, 71, 59
1, 849475, Note_on_c, 0, 50, 39
1, 849499, Note_on_c, 0, 59, 28
1, 849532, Note_off_c, 0, 59, 52
1, 849536, Note_off_c, 0, 71, 57
1, 849540, Note_off_c, 0, 50, 56
1, 849581, Note_on_c, 0, 54, 47
1, 849627, Note_off_c, 0, 54, 56
1, 849651, Note_on_c, 0, 71, 69
1, 849663, Note_on_c, 0, 59, 49
1, 849748, Control_c, 0, 64, 78
1, 849762, Control_c, 0, 64, 78
1, 849773, Note_on_c, 0, 54, 49
1, 849776, Note_off_c, 0, 59, 56
1, 849777, Control_c, 0, 64, 77
1, 849792, Control_c, 0, 64, 76
1, 849807, Control_c, 0, 64, 75
1, 849822, Control_c, 0, 64, 74
1, 849837, Control_c, 0, 64, 72
1, 849859, Control_c, 0, 64, 71
1, 849874, Control_c, 0, 64, 70
1, 849889, Control_c, 0, 64, 68
1, 849904, Control_c, 0, 64, 67
1, 849918, Control_c, 0, 64, 66
1, 849933, Control_c, 0, 64, 63
1, 849948, Control_c, 0, 64, 45
1, 849951, Note_on_c, 0, 70, 71
1, 849956, Note_off_c, 0, 54, 49
1, 849959, Note_off_c, 0, 71, 59
1, 849962, Control_c, 0, 64, 0
1, 849970, Note_on_c, 0, 49, 40
1, 849987, Note_on_c, 0, 58, 49
1, 850038, Note_off_c, 0, 58, 63
1, 850051, Control_c, 0, 64, 49
1, 850066, Control_c, 0, 64, 66
1, 850081, Control_c, 0, 64, 77
1, 850081, Control_c, 0, 67, 127
1, 850096, Control_c, 0, 64, 83
1, 850096, Control_c, 0, 67, 126
1, 850110, Control_c, 0, 64, 85
1, 850125, Control_c, 0, 64, 85
1, 850125, Control_c, 0, 67, 125
1, 850140, Note_off_c, 0, 70, 64
1, 850152, Note_on_c, 0, 52, 49
1, 850155, Control_c, 0, 67, 124
1, 850169, Control_c, 0, 67, 124
1, 850184, Control_c, 0, 67, 123
1, 850215, Control_c, 0, 67, 123
1, 850232, Note_off_c, 0, 49, 36
1, 850256, Note_off_c, 0, 52, 59
1, 850294, Note_on_c, 0, 83, 60
1, 850305, Note_on_c, 0, 71, 44
1, 850309, Note_on_c, 0, 58, 41
1, 850390, Note_off_c, 0, 71, 61
1, 850402, Note_on_c, 0, 52, 51
1, 850408, Control_c, 0, 64, 86
1, 850423, Control_c, 0, 64, 87
1, 850438, Control_c, 0, 64, 88
1, 850452, Control_c, 0, 64, 87
1, 850452, Control_c, 0, 67, 123
1, 850467, Control_c, 0, 64, 77
1, 850467, Control_c, 0, 67, 124
1, 850475, Note_off_c, 0, 58, 27
1, 850482, Control_c, 0, 64, 63
1, 850489, Note_off_c, 0, 52, 60
1, 850497, Control_c, 0, 64, 0
1, 850507, Note_on_c, 0, 49, 43
1, 850512, Note_on_c, 0, 82, 74
1, 850527, Note_on_c, 0, 70, 58
1, 850527, Control_c, 0, 64, 28
1, 850541, Control_c, 0, 64, 54
1, 850545, Note_off_c, 0, 83, 61
1, 850556, Control_c, 0, 64, 64
1, 850571, Control_c, 0, 64, 72
1, 850592, Note_off_c, 0, 70, 66
1, 850593, Control_c, 0, 64, 83
1, 850607, Control_c, 0, 64, 91
1, 850622, Control_c, 0, 64, 93
1, 850625, Note_on_c, 0, 52, 63
1, 850637, Control_c, 0, 64, 94
1, 850643, Note_off_c, 0, 82, 64
1, 850652, Control_c, 0, 64, 95
1, 850667, Control_c, 0, 64, 96
1, 850667, Control_c, 0, 67, 123
1, 850675, Note_off_c, 0, 49, 34
1, 850682, Control_c, 0, 64, 96
1, 850682, Control_c, 0, 67, 123
1, 850697, Control_c, 0, 67, 122
1, 850702, Note_off_c, 0, 52, 62
1, 850726, Control_c, 0, 64, 97
1, 850726, Control_c, 0, 67, 122
1, 850736, Note_on_c, 0, 90, 85
1, 850740, Note_on_c, 0, 58, 51
1, 850752, Note_on_c, 0, 78, 64
1, 850756, Control_c, 0, 67, 121
1, 850771, Control_c, 0, 67, 121
1, 850786, Control_c, 0, 67, 120
1, 850800, Control_c, 0, 67, 119
1, 850815, Control_c, 0, 67, 117
1, 850830, Note_on_c, 0, 52, 58
1, 850830, Note_off_c, 0, 78, 62
1, 850830, Control_c, 0, 67, 116
1, 850845, Control_c, 0, 67, 114
1, 850855, Note_off_c, 0, 90, 62
1, 850860, Control_c, 0, 67, 112
1, 850861, Note_off_c, 0, 58, 34
1, 850874, Control_c, 0, 67, 110
1, 850889, Control_c, 0, 67, 109
1, 850904, Control_c, 0, 67, 108
1, 850909, Note_off_c, 0, 52, 58
1, 850918, Control_c, 0, 67, 107
1, 850920, Note_on_c, 0, 49, 57
1, 850933, Control_c, 0, 67, 106
1, 850937, Note_on_c, 0, 90, 90
1, 850947, Note_on_c, 0, 78, 73
1, 850948, Control_c, 0, 67, 105
1, 850963, Control_c, 0, 67, 104
1, 850978, Control_c, 0, 67, 104
1, 850992, Control_c, 0, 67, 103
1, 851027, Note_off_c, 0, 78, 61
1, 851038, Note_on_c, 0, 52, 64
1, 851038, Control_c, 0, 67, 104
1, 851052, Note_off_c, 0, 90, 60
1, 851097, Control_c, 0, 67, 104
1, 851104, Note_off_c, 0, 49, 30
1, 851117, Note_off_c, 0, 52, 61
1, 851127, Control_c, 0, 67, 105
1, 851135, Note_on_c, 0, 90, 85
1, 851147, Note_on_c, 0, 58, 54
1, 851148, Note_on_c, 0, 78, 70
1, 851156, Control_c, 0, 67, 105
1, 851171, Control_c, 0, 67, 106
1, 851201, Control_c, 0, 67, 106
1, 851216, Control_c, 0, 64, 96
1, 851216, Control_c, 0, 67, 107
1, 851245, Note_off_c, 0, 78, 57
1, 851245, Control_c, 0, 64, 96
1, 851245, Control_c, 0, 67, 108
1, 851247, Note_on_c, 0, 52, 58
1, 851260, Control_c, 0, 64, 95
1, 851260, Control_c, 0, 67, 108
1, 851269, Note_off_c, 0, 90, 61
1, 851275, Control_c, 0, 64, 92
1, 851275, Control_c, 0, 67, 109
1, 851290, Control_c, 0, 64, 90
1, 851290, Control_c, 0, 67, 109
1, 851305, Control_c, 0, 64, 87
1, 851316, Note_off_c, 0, 58, 33
1, 851320, Control_c, 0, 64, 84
1, 851320, Control_c, 0, 67, 110
1, 851341, Control_c, 0, 64, 81
1, 851357, Control_c, 0, 64, 79
1, 851372, Control_c, 0, 64, 77
1, 851384, Note_off_c, 0, 52, 54
1, 851387, Control_c, 0, 64, 73
1, 851397, Note_on_c, 0, 90, 80
1, 851402, Control_c, 0, 64, 68
1, 851412, Note_on_c, 0, 78, 63
1, 851416, Control_c, 0, 64, 60
1, 851422, Note_on_c, 0, 50, 37
1, 851431, Control_c, 0, 64, 0
1, 851431, Control_c, 0, 67, 110
1, 851476, Control_c, 0, 67, 111
1, 851520, Control_c, 0, 64, 37
1, 851535, Control_c, 0, 64, 63
1, 851535, Control_c, 0, 67, 111
1, 851549, Control_c, 0, 64, 71
1, 851564, Control_c, 0, 64, 77
1, 851570, Note_on_c, 0, 54, 45
1, 851579, Control_c, 0, 64, 80
1, 851594, Control_c, 0, 64, 81
1, 851609, Control_c, 0, 64, 83
1, 851624, Control_c, 0, 64, 84
1, 851644, Note_off_c, 0, 54, 60
1, 851668, Note_on_c, 0, 59, 49
1, 851713, Control_c, 0, 67, 111
1, 851731, Note_off_c, 0, 50, 21
1, 851742, Control_c, 0, 67, 110
1, 851757, Control_c, 0, 67, 110
1, 851786, Note_on_c, 0, 54, 48
1, 851848, Note_off_c, 0, 54, 55
1, 851866, Note_off_c, 0, 59, 40
1, 851891, Note_on_c, 0, 50, 49
1, 851906, Control_c, 0, 67, 110
1, 851936, Control_c, 0, 67, 111
1, 851955, Note_off_c, 0, 78, 61
1, 851965, Control_c, 0, 67, 111
1, 851976, Note_off_c, 0, 90, 60
1, 851978, Note_on_c, 0, 54, 59
1, 852010, Control_c, 0, 67, 112
1, 852056, Note_off_c, 0, 54, 61
1, 852089, Note_on_c, 0, 88, 71
1, 852101, Note_on_c, 0, 76, 52
1, 852111, Note_on_c, 0, 59, 49
1, 852122, Note_off_c, 0, 76, 60
1, 852135, Control_c, 0, 67, 111
1, 852146, Note_off_c, 0, 88, 63
1, 852150, Control_c, 0, 67, 111
1, 852179, Control_c, 0, 67, 110
1, 852187, Note_off_c, 0, 50, 54
1, 852193, Note_on_c, 0, 90, 81
1, 852194, Control_c, 0, 67, 109
1, 852199, Note_on_c, 0, 54, 56
1, 852208, Note_on_c, 0, 78, 60
1, 852209, Control_c, 0, 67, 108
1, 852213, Note_off_c, 0, 59, 0
1, 852224, Control_c, 0, 67, 107
1, 852238, Control_c, 0, 67, 107
1, 852253, Control_c, 0, 67, 106
1, 852268, Note_off_c, 0, 78, 55
1, 852268, Control_c, 0, 64, 80
1, 852275, Poly_aftertouch_c, 0, 59, 0
1, 852283, Control_c, 0, 64, 67
1, 852283, Control_c, 0, 67, 105
1, 852298, Control_c, 0, 64, 37
1, 852298, Control_c, 0, 67, 104
1, 852301, Note_off_c, 0, 54, 50
1, 852313, Control_c, 0, 64, 0
1, 852313, Control_c, 0, 67, 104
1, 852327, Control_c, 0, 67, 102
1, 852329, Note_on_c, 0, 91, 78
1, 852342, Control_c, 0, 67, 99
1, 852343, Note_on_c, 0, 52, 42
1, 852354, Note_off_c, 0, 90, 50
1, 852354, Note_on_c, 0, 79, 63
1, 852357, Control_c, 0, 67, 92
1, 852372, Control_c, 0, 67, 84
1, 852387, Control_c, 0, 64, 55
1, 852387, Control_c, 0, 67, 78
1, 852402, Control_c, 0, 64, 66
1, 852402, Control_c, 0, 67, 75
1, 852417, Control_c, 0, 64, 73
1, 852419, Note_off_c, 0, 79, 62
1, 852432, Control_c, 0, 64, 80
1, 852446, Control_c, 0, 64, 83
1, 852446, Control_c, 0, 67, 74
1, 852457, Note_off_c, 0, 52, 55
1, 852461, Control_c, 0, 64, 88
1, 852461, Control_c, 0, 67, 74
1, 852469, Note_on_c, 0, 55, 46
1, 852476, Control_c, 0, 64, 92
1, 852476, Control_c, 0, 67, 73
1, 852490, Control_c, 0, 64, 95
1, 852490, Control_c, 0, 67, 72
1, 852505, Control_c, 0, 64, 98
1, 852505, Control_c, 0, 67, 72
1, 852520, Control_c, 0, 64, 101
1, 852520, Control_c, 0, 67, 71
1, 852523, Note_off_c, 0, 55, 60
1, 852524, Note_off_c, 0, 91, 59
1, 852535, Control_c, 0, 64, 104
1, 852544, Note_on_c, 0, 90, 66
1, 852550, Control_c, 0, 64, 106
1, 852550, Control_c, 0, 67, 72
1, 852558, Note_on_c, 0, 78, 59
1, 852564, Control_c, 0, 64, 107
1, 852573, Note_on_c, 0, 60, 46
1, 852577, Note_off_c, 0, 90, 66
1, 852578, Note_off_c, 0, 78, 66
1, 852579, Control_c, 0, 64, 108
1, 852579, Control_c, 0, 67, 71
1, 852594, Control_c, 0, 64, 109
1, 852594, Control_c, 0, 67, 71
1, 852655, Note_on_c, 0, 88, 75
1, 852666, Note_on_c, 0, 76, 63
1, 852669, Control_c, 0, 67, 71
1, 852670, Note_on_c, 0, 55, 45
1, 852684, Control_c, 0, 67, 72
1, 852695, Note_off_c, 0, 60, 32
1, 852699, Control_c, 0, 64, 108
1, 852699, Control_c, 0, 67, 72
1, 852700, Note_off_c, 0, 76, 65
1, 852714, Control_c, 0, 67, 73
1, 852728, Control_c, 0, 64, 107
1, 852728, Control_c, 0, 67, 73
1, 852743, Control_c, 0, 64, 105
1, 852743, Control_c, 0, 67, 74
1, 852758, Control_c, 0, 64, 101
1, 852758, Control_c, 0, 67, 74
1, 852773, Control_c, 0, 64, 97
1, 852787, Control_c, 0, 64, 93
1, 852787, Control_c, 0, 67, 75
1, 852802, Control_c, 0, 64, 90
1, 852815, Note_off_c, 0, 55, 37
1, 852816, Note_on_c, 0, 86, 72
1, 852817, Control_c, 0, 64, 87
1, 852817, Control_c, 0, 67, 75
1, 852828, Note_on_c, 0, 54, 38
1, 852832, Control_c, 0, 64, 83
1, 852849, Note_off_c, 0, 88, 62
1, 852852, Note_on_c, 0, 74, 40
1, 852855, Control_c, 0, 64, 74
1, 852855, Control_c, 0, 67, 76
1, 852869, Control_c, 0, 64, 65
1, 852884, Control_c, 0, 64, 37
1, 852884, Control_c, 0, 67, 75
1, 852899, Control_c, 0, 64, 0
1, 852913, Control_c, 0, 67, 75
1, 852958, Control_c, 0, 64, 44
1, 852958, Control_c, 0, 67, 76
1, 852973, Control_c, 0, 64, 63
1, 852973, Control_c, 0, 67, 76
1, 852976, Note_on_c, 0, 59, 44
1, 852987, Control_c, 0, 64, 70
1, 852987, Control_c, 0, 67, 77
1, 853002, Control_c, 0, 64, 77
1, 853002, Control_c, 0, 67, 78
1, 853017, Control_c, 0, 64, 81
1, 853032, Control_c, 0, 64, 83
1, 853035, Note_off_c, 0, 59, 59
1, 853047, Control_c, 0, 64, 85
1, 853061, Control_c, 0, 64, 85
1, 853076, Control_c, 0, 67, 78
1, 853082, Note_on_c, 0, 62, 39
1, 853091, Control_c, 0, 67, 79
1, 853120, Control_c, 0, 67, 79
1, 853135, Control_c, 0, 67, 80
1, 853174, Note_off_c, 0, 54, 48
1, 853178, Note_on_c, 0, 59, 44
1, 853210, Note_off_c, 0, 62, 41
1, 853225, Control_c, 0, 67, 80
1, 853240, Control_c, 0, 67, 81
1, 853246, Note_off_c, 0, 59, 57
1, 853269, Control_c, 0, 67, 81
1, 853282, Note_on_c, 0, 54, 56
1, 853299, Control_c, 0, 67, 82
1, 853377, Note_on_c, 0, 59, 47
1, 853387, Control_c, 0, 67, 82
1, 853402, Control_c, 0, 67, 83
1, 853439, Note_off_c, 0, 59, 60
1, 853478, Note_on_c, 0, 62, 46
1, 853522, Control_c, 0, 67, 83
1, 853536, Note_off_c, 0, 54, 19
1, 853542, Note_off_c, 0, 74, 59
1, 853551, Control_c, 0, 67, 84
1, 853566, Control_c, 0, 67, 84
1, 853570, Note_on_c, 0, 59, 49
1, 853618, Note_off_c, 0, 62, 41
1, 853663, Control_c, 0, 67, 85
1, 853678, Control_c, 0, 64, 85
1, 853707, Control_c, 0, 64, 84
1, 853718, Note_off_c, 0, 59, 33
1, 853722, Control_c, 0, 64, 83
1, 853736, Control_c, 0, 64, 82
1, 853740, Note_on_c, 0, 54, 35
1, 853751, Control_c, 0, 64, 80
1, 853751, Control_c, 0, 67, 85
1, 853756, Note_on_c, 0, 85, 55
1, 853766, Control_c, 0, 64, 75
1, 853773, Note_off_c, 0, 86, 57
1, 853781, Control_c, 0, 64, 67
1, 853781, Control_c, 0, 67, 86
1, 853782, Note_on_c, 0, 73, 27
1, 853796, Control_c, 0, 64, 55
1, 853810, Control_c, 0, 64, 0
1, 853825, Control_c, 0, 67, 86
1, 853840, Control_c, 0, 67, 87
1, 853855, Control_c, 0, 67, 88
1, 853884, Control_c, 0, 64, 48
1, 853895, Note_on_c, 0, 58, 44
1, 853899, Control_c, 0, 64, 63
1, 853899, Control_c, 0, 67, 88
1, 853903, Note_off_c, 0, 54, 52
1, 853914, Control_c, 0, 64, 68
1, 853928, Control_c, 0, 64, 71
1, 853928, Control_c, 0, 67, 89
1, 853943, Control_c, 0, 64, 75
1, 853958, Control_c, 0, 64, 78
1, 853973, Control_c, 0, 64, 83
1, 853977, Note_off_c, 0, 58, 59
1, 853988, Control_c, 0, 64, 89
1, 854003, Control_c, 0, 64, 95
1, 854018, Control_c, 0, 64, 100
1, 854033, Control_c, 0, 64, 106
1, 854043, Note_on_c, 0, 61, 35
1, 854047, Control_c, 0, 64, 111
1, 854062, Control_c, 0, 64, 116
1, 854077, Control_c, 0, 64, 119
1, 854092, Control_c, 0, 64, 125
1, 854099, Note_off_c, 0, 85, 61
1, 854122, Control_c, 0, 64, 127
1, 854136, Control_c, 0, 67, 89
1, 854154, Note_off_c, 0, 73, 45
1, 854166, Control_c, 0, 67, 90
1, 854196, Control_c, 0, 67, 91
1, 854204, Note_on_c, 0, 58, 31
1, 854211, Control_c, 0, 67, 94
1, 854226, Control_c, 0, 67, 96
1, 854241, Control_c, 0, 67, 97
1, 854256, Control_c, 0, 67, 100
1, 854271, Control_c, 0, 67, 104
1, 854286, Control_c, 0, 67, 108
1, 854301, Control_c, 0, 67, 111
1, 854304, Note_off_c, 0, 61, 36
1, 854315, Control_c, 0, 67, 114
1, 854337, Control_c, 0, 67, 117
1, 854352, Control_c, 0, 67, 120
1, 854366, Control_c, 0, 67, 126
1, 854381, Control_c, 0, 64, 125
1, 854381, Control_c, 0, 67, 127
1, 854396, Control_c, 0, 64, 119
1, 854411, Control_c, 0, 64, 114
1, 854426, Control_c, 0, 64, 109
1, 854441, Control_c, 0, 64, 105
1, 854456, Control_c, 0, 64, 102
1, 854471, Control_c, 0, 64, 98
1, 854486, Control_c, 0, 64, 94
1, 854501, Control_c, 0, 64, 90
1, 854515, Control_c, 0, 64, 87
1, 854530, Control_c, 0, 64, 84
1, 854545, Control_c, 0, 64, 82
1, 854545, Note_on_c, 0, 51, 26
1, 854559, Control_c, 0, 64, 80
1, 854574, Control_c, 0, 64, 78
1, 854589, Control_c, 0, 64, 75
1, 854604, Control_c, 0, 64, 73
1, 854605, Note_off_c, 0, 58, 36
1, 854619, Control_c, 0, 64, 69
1, 854633, Control_c, 0, 64, 66
1, 854641, Note_on_c, 0, 78, 53
1, 854648, Control_c, 0, 64, 62
1, 854663, Control_c, 0, 64, 51
1, 854677, Control_c, 0, 64, 0
1, 854687, Note_on_c, 0, 71, 25
1, 854781, Control_c, 0, 64, 48
1, 854796, Control_c, 0, 64, 64
1, 854811, Control_c, 0, 64, 68
1, 854825, Control_c, 0, 64, 71
1, 854840, Control_c, 0, 64, 74
1, 854855, Control_c, 0, 64, 76
1, 854870, Control_c, 0, 64, 77
1, 854885, Control_c, 0, 64, 78
1, 854889, Note_on_c, 0, 54, 33
1, 854900, Control_c, 0, 64, 78
1, 854915, Control_c, 0, 64, 79
1, 854945, Control_c, 0, 64, 79
1, 855004, Note_off_c, 0, 54, 49
1, 855034, Control_c, 0, 64, 80
1, 855046, Note_on_c, 0, 59, 29
1, 855164, Note_off_c, 0, 51, 39
1, 855175, Note_on_c, 0, 54, 35
1, 855280, Note_off_c, 0, 54, 51
1, 855293, Note_off_c, 0, 59, 31
1, 855312, Note_on_c, 0, 51, 22
1, 855427, Note_on_c, 0, 54, 41
1, 855497, Note_off_c, 0, 54, 53
1, 855547, Note_off_c, 0, 78, 56
1, 855551, Note_on_c, 0, 77, 54
1, 855568, Note_on_c, 0, 59, 36
1, 855595, Note_off_c, 0, 71, 41
1, 855628, Note_off_c, 0, 51, 39
1, 855657, Note_on_c, 0, 78, 65
1, 855661, Note_on_c, 0, 54, 43
1, 855664, Control_c, 0, 64, 79
1, 855694, Control_c, 0, 64, 78
1, 855696, Note_off_c, 0, 77, 58
1, 855708, Control_c, 0, 64, 77
1, 855723, Control_c, 0, 64, 77
1, 855738, Control_c, 0, 64, 75
1, 855749, Note_off_c, 0, 59, 35
1, 855753, Control_c, 0, 64, 74
1, 855768, Control_c, 0, 64, 72
1, 855782, Control_c, 0, 64, 66
1, 855784, Note_off_c, 0, 54, 54
1, 855786, Note_on_c, 0, 80, 65
1, 855794, Note_off_c, 0, 78, 63
1, 855798, Control_c, 0, 64, 54
1, 855813, Control_c, 0, 64, 0
1, 855820, Note_on_c, 0, 52, 40
1, 855830, Note_on_c, 0, 71, 42
1, 855895, Control_c, 0, 64, 48
1, 855910, Control_c, 0, 64, 63
1, 855925, Control_c, 0, 64, 67
1, 855936, Note_on_c, 0, 56, 40
1, 855939, Control_c, 0, 64, 69
1, 855954, Control_c, 0, 64, 72
1, 855969, Control_c, 0, 64, 73
1, 855984, Control_c, 0, 64, 75
1, 855999, Control_c, 0, 64, 76
1, 856000, Note_off_c, 0, 56, 58
1, 856006, Note_off_c, 0, 52, 29
1, 856013, Control_c, 0, 64, 77
1, 856028, Note_on_c, 0, 82, 65
1, 856028, Control_c, 0, 64, 78
1, 856043, Control_c, 0, 64, 80
1, 856057, Note_on_c, 0, 59, 37
1, 856058, Control_c, 0, 64, 81
1, 856073, Control_c, 0, 64, 83
1, 856087, Control_c, 0, 64, 84
1, 856102, Control_c, 0, 64, 86
1, 856117, Control_c, 0, 64, 89
1, 856131, Control_c, 0, 64, 92
1, 856142, Note_off_c, 0, 80, 53
1, 856146, Control_c, 0, 64, 93
1, 856149, Note_on_c, 0, 83, 61
1, 856161, Control_c, 0, 64, 94
1, 856169, Note_on_c, 0, 56, 34
1, 856171, Note_off_c, 0, 82, 61
1, 856176, Control_c, 0, 64, 95
1, 856178, Note_off_c, 0, 59, 0
1, 856179, Note_off_c, 0, 71, 61
1, 856187, Note_off_c, 0, 83, 58
1, 856200, Poly_aftertouch_c, 0, 59, 0
1, 856206, Control_c, 0, 64, 95
1, 856295, Control_c, 0, 64, 95
1, 856325, Control_c, 0, 64, 94
1, 856336, Note_off_c, 0, 56, 44
1, 856339, Control_c, 0, 64, 92
1, 856354, Control_c, 0, 64, 88
1, 856365, Note_on_c, 0, 75, 50
1, 856369, Control_c, 0, 64, 85
1, 856372, Note_on_c, 0, 54, 36
1, 856381, Note_on_c, 0, 71, 37
1, 856384, Control_c, 0, 64, 80
1, 856386, Note_on_c, 0, 66, 32
1, 856399, Control_c, 0, 64, 72
1, 856413, Control_c, 0, 64, 63
1, 856428, Control_c, 0, 64, 38
1, 856443, Control_c, 0, 64, 0
1, 856502, Control_c, 0, 64, 39
1, 856517, Control_c, 0, 64, 58
1, 856531, Note_on_c, 0, 59, 24
1, 856531, Control_c, 0, 64, 64
1, 856546, Control_c, 0, 64, 68
1, 856561, Control_c, 0, 64, 70
1, 856584, Control_c, 0, 64, 73
1, 856597, Control_c, 0, 64, 75
1, 856613, Control_c, 0, 64, 76
1, 856619, Note_off_c, 0, 59, 47
1, 856627, Control_c, 0, 64, 76
1, 856638, Note_on_c, 0, 63, 32
1, 856642, Control_c, 0, 64, 77
1, 856717, Note_off_c, 0, 54, 46
1, 856751, Note_on_c, 0, 59, 39
1, 856849, Control_c, 0, 64, 77
1, 856857, Note_off_c, 0, 59, 45
1, 856864, Note_off_c, 0, 63, 37
1, 856870, Note_on_c, 0, 54, 32
1, 856998, Note_on_c, 0, 59, 41
1, 857080, Note_off_c, 0, 59, 59
1, 857105, Note_on_c, 0, 76, 50
1, 857112, Note_on_c, 0, 63, 42
1, 857146, Control_c, 0, 64, 77
1, 857183, Note_off_c, 0, 71, 36
1, 857198, Note_off_c, 0, 75, 62
1, 857201, Note_off_c, 0, 76, 59
1, 857218, Note_on_c, 0, 78, 55
1, 857220, Control_c, 0, 64, 76
1, 857224, Note_off_c, 0, 54, 40
1, 857225, Note_off_c, 0, 66, 43
1, 857225, Note_on_c, 0, 59, 40
1, 857234, Control_c, 0, 64, 76
1, 857249, Control_c, 0, 64, 75
1, 857264, Control_c, 0, 64, 74
1, 857279, Control_c, 0, 64, 74
1, 857294, Control_c, 0, 64, 73
1, 857309, Control_c, 0, 64, 72
1, 857315, Note_off_c, 0, 63, 40
1, 857331, Control_c, 0, 64, 71
1, 857346, Control_c, 0, 64, 70
1, 857350, Note_off_c, 0, 78, 59
1, 857360, Control_c, 0, 64, 69
1, 857369, Note_on_c, 0, 76, 44
1, 857375, Control_c, 0, 64, 66
1, 857377, Note_off_c, 0, 59, 33
1, 857390, Control_c, 0, 64, 61
1, 857402, Note_on_c, 0, 66, 34
1, 857404, Note_on_c, 0, 70, 40
1, 857406, Control_c, 0, 64, 26
1, 857420, Note_on_c, 0, 54, 22
1, 857421, Control_c, 0, 64, 0
1, 857495, Control_c, 0, 64, 52
1, 857509, Control_c, 0, 64, 62
1, 857524, Control_c, 0, 64, 65
1, 857539, Control_c, 0, 64, 66
1, 857554, Control_c, 0, 64, 67
1, 857569, Control_c, 0, 64, 67
1, 857574, Note_on_c, 0, 61, 43
1, 857583, Control_c, 0, 64, 68
1, 857598, Control_c, 0, 64, 69
1, 857628, Control_c, 0, 64, 69
1, 857643, Control_c, 0, 64, 70
1, 857657, Control_c, 0, 64, 70
1, 857684, Note_off_c, 0, 70, 36
1, 857687, Control_c, 0, 64, 71
1, 857702, Note_off_c, 0, 76, 51
1, 857713, Note_on_c, 0, 63, 33
1, 857720, Note_on_c, 0, 75, 31
1, 857732, Control_c, 0, 64, 71
1, 857732, Note_off_c, 0, 61, 33
1, 857740, Note_off_c, 0, 54, 24
1, 857747, Control_c, 0, 64, 72
1, 857774, Note_off_c, 0, 63, 44
1, 857774, Note_off_c, 0, 66, 39
1, 857776, Control_c, 0, 64, 72
1, 857809, Note_on_c, 0, 73, 42
1, 857821, Control_c, 0, 64, 73
1, 857824, Note_on_c, 0, 64, 32
1, 857848, Note_off_c, 0, 75, 32
1, 857924, Control_c, 0, 64, 72
1, 857939, Control_c, 0, 64, 72
1, 857954, Control_c, 0, 64, 71
1, 857969, Control_c, 0, 64, 70
1, 857973, Note_off_c, 0, 64, 42
1, 857983, Control_c, 0, 64, 66
1, 857998, Control_c, 0, 64, 58
1, 858013, Control_c, 0, 64, 0
1, 858015, Note_off_c, 0, 73, 36
1, 858022, Note_on_c, 0, 66, 24
1, 858031, Note_on_c, 0, 59, 33
1, 858032, Note_on_c, 0, 71, 8
1, 858036, Note_on_c, 0, 63, 26
1, 858110, Control_c, 0, 64, 56
1, 858122, Note_off_c, 0, 66, 60
1, 858125, Control_c, 0, 64, 66
1, 858140, Control_c, 0, 64, 70
1, 858155, Control_c, 0, 64, 76
1, 858170, Control_c, 0, 64, 82
1, 858184, Control_c, 0, 64, 88
1, 858188, Note_off_c, 0, 71, 40
1, 858200, Control_c, 0, 64, 94
1, 858215, Control_c, 0, 64, 97
1, 858230, Control_c, 0, 64, 97
1, 858232, Note_off_c, 0, 63, 38
1, 858277, Note_off_c, 0, 59, 41
1, 858393, Control_c, 0, 64, 97
1, 858407, Control_c, 0, 64, 96
1, 858422, Control_c, 0, 64, 91
1, 858437, Control_c, 0, 64, 82
1, 858452, Control_c, 0, 64, 71
1, 858456, Note_on_c, 0, 78, 47
1, 858467, Control_c, 0, 64, 62
1, 858481, Control_c, 0, 64, 41
1, 858485, Note_on_c, 0, 71, 25
1, 858486, Note_on_c, 0, 63, 23
1, 858496, Control_c, 0, 64, 0
1, 858505, Note_on_c, 0, 54, 7
1, 858511, Control_c, 0, 64, 20
1, 858525, Control_c, 0, 64, 40
1, 858540, Control_c, 0, 64, 53
1, 858555, Control_c, 0, 64, 61
1, 858570, Control_c, 0, 64, 64
1, 858585, Control_c, 0, 64, 70
1, 858599, Control_c, 0, 64, 78
1, 858614, Control_c, 0, 64, 91
1, 858629, Control_c, 0, 64, 101
1, 858644, Control_c, 0, 64, 112
1, 858648, Note_off_c, 0, 54, 39
1, 858656, Note_off_c, 0, 71, 35
1, 858659, Control_c, 0, 64, 127
1, 858684, Note_off_c, 0, 63, 42
1, 858777, Note_off_c, 0, 78, 28
1, 858888, Control_c, 0, 64, 112
1, 858894, Note_on_c, 0, 80, 49
1, 858903, Control_c, 0, 64, 94
1, 858918, Control_c, 0, 64, 78
1, 858932, Control_c, 0, 64, 66
1, 858934, Note_on_c, 0, 64, 32
1, 858943, Note_on_c, 0, 71, 28
1, 858947, Control_c, 0, 64, 53
1, 858962, Control_c, 0, 64, 34
1, 858963, Note_on_c, 0, 54, 13
1, 858977, Control_c, 0, 64, 44
1, 858992, Control_c, 0, 64, 54
1, 859008, Control_c, 0, 64, 59
1, 859023, Control_c, 0, 64, 63
1, 859037, Control_c, 0, 64, 67
1, 859052, Control_c, 0, 64, 72
1, 859067, Control_c, 0, 64, 79
1, 859082, Control_c, 0, 64, 84
1, 859083, Note_off_c, 0, 71, 42
1, 859092, Note_off_c, 0, 54, 31
1, 859097, Control_c, 0, 64, 88
1, 859111, Control_c, 0, 64, 91
1, 859112, Note_off_c, 0, 64, 42
1, 859126, Control_c, 0, 64, 94
1, 859141, Control_c, 0, 64, 95
1, 859170, Control_c, 0, 64, 93
1, 859185, Control_c, 0, 64, 82
1, 859200, Control_c, 0, 64, 70
1, 859205, Note_off_c, 0, 80, 41
1, 859215, Control_c, 0, 64, 64
1, 859219, Note_on_c, 0, 78, 52
1, 859225, Note_on_c, 0, 71, 37
1, 859228, Note_on_c, 0, 63, 43
1, 859229, Control_c, 0, 64, 63
1, 859244, Control_c, 0, 64, 65
1, 859250, Note_on_c, 0, 54, 28
1, 859259, Control_c, 0, 64, 70
1, 859273, Control_c, 0, 64, 76
1, 859288, Control_c, 0, 64, 84
1, 859303, Note_off_c, 0, 78, 57
1, 859303, Control_c, 0, 64, 88
1, 859318, Control_c, 0, 64, 90
1, 859321, Note_off_c, 0, 54, 35
1, 859333, Control_c, 0, 64, 92
1, 859334, Note_off_c, 0, 71, 37
1, 859347, Control_c, 0, 64, 93
1, 859362, Control_c, 0, 64, 93
1, 859365, Note_off_c, 0, 63, 45
1, 859422, Control_c, 0, 64, 89
1, 859437, Control_c, 0, 64, 77
1, 859444, Note_on_c, 0, 78, 51
1, 859452, Control_c, 0, 64, 67
1, 859456, Note_on_c, 0, 71, 43
1, 859466, Control_c, 0, 64, 63
1, 859476, Note_on_c, 0, 61, 45
1, 859484, Note_on_c, 0, 54, 35
1, 859496, Control_c, 0, 64, 65
1, 859511, Control_c, 0, 64, 67
1, 859526, Control_c, 0, 64, 72
1, 859540, Control_c, 0, 64, 78
1, 859549, Note_off_c, 0, 54, 48
1, 859555, Control_c, 0, 64, 80
1, 859556, Note_off_c, 0, 61, 52
1, 859558, Note_off_c, 0, 71, 37
1, 859558, Note_off_c, 0, 78, 56
1, 859577, Control_c, 0, 64, 81
1, 859592, Control_c, 0, 64, 83
1, 859607, Control_c, 0, 64, 84
1, 859622, Control_c, 0, 64, 84
1, 859652, Control_c, 0, 64, 80
1, 859666, Control_c, 0, 64, 70
1, 859681, Control_c, 0, 64, 62
1, 859683, Note_on_c, 0, 78, 56
1, 859691, Note_on_c, 0, 70, 46
1, 859695, Note_on_c, 0, 64, 44
1, 859696, Control_c, 0, 64, 54
1, 859711, Control_c, 0, 64, 58
1, 859717, Note_on_c, 0, 54, 22
1, 859726, Control_c, 0, 64, 64
1, 859741, Control_c, 0, 64, 68
1, 859755, Control_c, 0, 64, 74
1, 859770, Control_c, 0, 64, 84
1, 859785, Control_c, 0, 64, 91
1, 859795, Note_off_c, 0, 54, 35
1, 859801, Control_c, 0, 64, 93
1, 859806, Note_off_c, 0, 64, 36
1, 859815, Control_c, 0, 64, 95
1, 859819, Note_off_c, 0, 78, 32
1, 859830, Control_c, 0, 64, 96
1, 859875, Control_c, 0, 64, 90
1, 859890, Control_c, 0, 64, 75
1, 859892, Note_off_c, 0, 70, 40
1, 859904, Control_c, 0, 64, 62
1, 859919, Control_c, 0, 64, 42
1, 859922, Note_on_c, 0, 78, 63
1, 859934, Note_on_c, 0, 59, 42
1, 859934, Control_c, 0, 64, 50
1, 859936, Note_on_c, 0, 63, 42
1, 859942, Note_on_c, 0, 71, 45
1, 859949, Control_c, 0, 64, 60
1, 859964, Control_c, 0, 64, 65
1, 859978, Control_c, 0, 64, 71
1, 859993, Control_c, 0, 64, 82
1, 860008, Control_c, 0, 64, 94
1, 860009, Note_off_c, 0, 71, 46
1, 860023, Control_c, 0, 64, 100
1, 860038, Control_c, 0, 64, 103
1, 860039, Note_off_c, 0, 78, 52
1, 860045, Note_off_c, 0, 63, 37
1, 860052, Control_c, 0, 64, 104
1, 860067, Control_c, 0, 64, 104
1, 860097, Note_off_c, 0, 59, 33
1, 860170, Control_c, 0, 64, 99
1, 860171, Note_on_c, 0, 78, 58
1, 860185, Control_c, 0, 64, 82
1, 860189, Note_on_c, 0, 63, 40
1, 860197, Note_on_c, 0, 71, 45
1, 860200, Control_c, 0, 64, 65
1, 860214, Note_on_c, 0, 54, 34
1, 860215, Control_c, 0, 64, 49
1, 860230, Control_c, 0, 64, 42
1, 860245, Control_c, 0, 64, 51
1, 860260, Control_c, 0, 64, 58
1, 860275, Control_c, 0, 64, 64
1, 860289, Control_c, 0, 64, 70
1, 860304, Control_c, 0, 64, 81
1, 860326, Control_c, 0, 64, 91
1, 860341, Control_c, 0, 64, 95
1, 860349, Note_off_c, 0, 63, 41
1, 860356, Control_c, 0, 64, 98
1, 860360, Note_off_c, 0, 54, 32
1, 860366, Note_off_c, 0, 71, 29
1, 860370, Control_c, 0, 64, 104
1, 860385, Control_c, 0, 64, 108
1, 860400, Control_c, 0, 64, 109
1, 860403, Note_off_c, 0, 78, 35
1, 860504, Control_c, 0, 64, 108
1, 860534, Control_c, 0, 64, 107
1, 860549, Control_c, 0, 64, 105
1, 860564, Control_c, 0, 64, 99
1, 860566, Note_on_c, 0, 83, 51
1, 860578, Control_c, 0, 64, 90
1, 860593, Control_c, 0, 64, 75
1, 860599, Note_on_c, 0, 80, 43
1, 860608, Control_c, 0, 64, 63
1, 860621, Note_on_c, 0, 64, 30
1, 860623, Control_c, 0, 64, 36
1, 860633, Note_on_c, 0, 71, 25
1, 860638, Control_c, 0, 64, 0
1, 860643, Note_on_c, 0, 54, 28
1, 860668, Control_c, 0, 64, 10
1, 860683, Control_c, 0, 64, 46
1, 860698, Control_c, 0, 64, 59
1, 860713, Control_c, 0, 64, 65
1, 860727, Control_c, 0, 64, 68
1, 860742, Control_c, 0, 64, 73
1, 860757, Control_c, 0, 64, 79
1, 860772, Control_c, 0, 64, 84
1, 860778, Note_off_c, 0, 71, 41
1, 860781, Note_off_c, 0, 54, 36
1, 860787, Control_c, 0, 64, 87
1, 860801, Control_c, 0, 64, 90
1, 860810, Note_off_c, 0, 83, 31
1, 860811, Note_off_c, 0, 64, 43
1, 860816, Control_c, 0, 64, 92
1, 860831, Control_c, 0, 64, 93
1, 860875, Control_c, 0, 64, 84
1, 860890, Control_c, 0, 64, 73
1, 860905, Control_c, 0, 64, 65
1, 860911, Note_off_c, 0, 80, 41
1, 860918, Note_on_c, 0, 78, 53
1, 860919, Control_c, 0, 64, 64
1, 860927, Note_on_c, 0, 71, 37
1, 860934, Control_c, 0, 64, 65
1, 860935, Note_on_c, 0, 63, 37
1, 860943, Note_on_c, 0, 54, 28
1, 860949, Control_c, 0, 64, 68
1, 860964, Control_c, 0, 64, 72
1, 860979, Control_c, 0, 64, 79
1, 860993, Control_c, 0, 64, 82
1, 860996, Note_off_c, 0, 78, 62
1, 861008, Control_c, 0, 64, 83
1, 861023, Note_off_c, 0, 71, 50
1, 861023, Control_c, 0, 64, 84
1, 861038, Control_c, 0, 64, 85
1, 861041, Note_off_c, 0, 54, 37
1, 861053, Control_c, 0, 64, 85
1, 861077, Note_off_c, 0, 63, 46
1, 861134, Control_c, 0, 64, 81
1, 861149, Control_c, 0, 64, 71
1, 861157, Note_on_c, 0, 78, 45
1, 861164, Control_c, 0, 64, 61
1, 861170, Note_on_c, 0, 71, 35
1, 861179, Control_c, 0, 64, 49
1, 861185, Note_on_c, 0, 61, 40
1, 861190, Note_on_c, 0, 54, 34
1, 861193, Control_c, 0, 64, 52
1, 861208, Control_c, 0, 64, 59
1, 861223, Control_c, 0, 64, 63
1, 861238, Control_c, 0, 64, 65
1, 861242, Note_off_c, 0, 71, 43
1, 861252, Control_c, 0, 64, 70
1, 861255, Note_off_c, 0, 78, 58
1, 861257, Note_on_c, 0, 70, 53
1, 861267, Control_c, 0, 64, 77
1, 861276, Note_off_c, 0, 54, 38
1, 861281, Note_off_c, 0, 61, 39
1, 861282, Control_c, 0, 64, 81
1, 861297, Control_c, 0, 64, 82
1, 861312, Control_c, 0, 64, 82
1, 861357, Control_c, 0, 64, 75
1, 861367, Note_off_c, 0, 70, 54
1, 861372, Control_c, 0, 64, 66
1, 861377, Note_on_c, 0, 78, 55
1, 861386, Note_on_c, 0, 71, 46
1, 861386, Control_c, 0, 64, 56
1, 861395, Note_on_c, 0, 64, 41
1, 861402, Control_c, 0, 64, 51
1, 861416, Control_c, 0, 64, 58
1, 861417, Note_on_c, 0, 54, 20
1, 861431, Control_c, 0, 64, 63
1, 861446, Control_c, 0, 64, 66
1, 861457, Note_off_c, 0, 71, 46
1, 861460, Note_off_c, 0, 54, 47
1, 861460, Note_off_c, 0, 64, 41
1, 861461, Control_c, 0, 64, 71
1, 861472, Note_off_c, 0, 78, 54
1, 861476, Control_c, 0, 64, 76
1, 861491, Control_c, 0, 64, 80
1, 861494, Note_on_c, 0, 73, 46
1, 861506, Control_c, 0, 64, 81
1, 861550, Control_c, 0, 64, 79
1, 861565, Control_c, 0, 64, 71
1, 861580, Control_c, 0, 64, 62
1, 861586, Note_off_c, 0, 73, 50
1, 861595, Control_c, 0, 64, 39
1, 861610, Note_on_c, 0, 78, 51
1, 861610, Control_c, 0, 64, 30
1, 861617, Note_on_c, 0, 71, 45
1, 861621, Note_on_c, 0, 59, 40
1, 861624, Control_c, 0, 64, 47
1, 861635, Note_on_c, 0, 63, 25
1, 861639, Control_c, 0, 64, 59
1, 861654, Control_c, 0, 64, 63
1, 861668, Control_c, 0, 64, 68
1, 861674, Note_off_c, 0, 71, 53
1, 861683, Control_c, 0, 64, 73
1, 861687, Note_off_c, 0, 78, 57
1, 861690, Note_off_c, 0, 63, 43
1, 861698, Control_c, 0, 64, 78
1, 861713, Control_c, 0, 64, 81
1, 861728, Control_c, 0, 64, 84
1, 861742, Control_c, 0, 64, 86
1, 861745, Note_off_c, 0, 59, 44
1, 861757, Control_c, 0, 64, 86
1, 861787, Control_c, 0, 64, 84
1, 861802, Control_c, 0, 64, 74
1, 861824, Control_c, 0, 64, 65
1, 861840, Control_c, 0, 64, 56
1, 861854, Control_c, 0, 64, 59
1, 861857, Note_on_c, 0, 78, 46
1, 861863, Note_on_c, 0, 70, 45
1, 861867, Note_on_c, 0, 61, 37
1, 861869, Control_c, 0, 64, 63
1, 861881, Note_on_c, 0, 54, 37
1, 861884, Control_c, 0, 64, 66
1, 861899, Control_c, 0, 64, 70
1, 861914, Control_c, 0, 64, 77
1, 861929, Control_c, 0, 64, 84
1, 861931, Note_off_c, 0, 78, 58
1, 861944, Control_c, 0, 64, 85
1, 861958, Note_off_c, 0, 61, 36
1, 861958, Control_c, 0, 64, 86
1, 861973, Control_c, 0, 64, 87
1, 861978, Note_off_c, 0, 54, 38
1, 861982, Note_off_c, 0, 70, 37
1, 861988, Control_c, 0, 64, 88
1, 862032, Control_c, 0, 64, 88
1, 862062, Control_c, 0, 64, 86
1, 862076, Control_c, 0, 64, 75
1, 862091, Control_c, 0, 64, 65
1, 862094, Note_on_c, 0, 78, 53
1, 862106, Control_c, 0, 64, 58
1, 862114, Note_on_c, 0, 59, 43
1, 862117, Note_on_c, 0, 71, 28
1, 862120, Note_on_c, 0, 63, 38
1, 862121, Control_c, 0, 64, 60
1, 862136, Control_c, 0, 64, 64
1, 862150, Control_c, 0, 64, 66
1, 862153, Note_off_c, 0, 71, 52
1, 862165, Control_c, 0, 64, 70
1, 862170, Note_off_c, 0, 78, 60
1, 862170, Note_off_c, 0, 63, 44
1, 862176, Note_off_c, 0, 59, 53
1, 862180, Control_c, 0, 64, 76
1, 862196, Control_c, 0, 64, 81
1, 862211, Control_c, 0, 64, 82
1, 862299, Note_on_c, 0, 75, 24
1, 862299, Control_c, 0, 64, 80
1, 862314, Control_c, 0, 64, 69
1, 862329, Control_c, 0, 64, 55
1, 862343, Note_off_c, 0, 75, 54
1, 862344, Control_c, 0, 64, 0
1, 862361, Note_on_c, 0, 73, 47
1, 862365, Note_on_c, 0, 78, 56
1, 862370, Note_on_c, 0, 70, 52
1, 862382, Note_on_c, 0, 64, 34
1, 862392, Note_on_c, 0, 54, 18
1, 862403, Control_c, 0, 64, 43
1, 862413, Note_off_c, 0, 73, 53
1, 862418, Control_c, 0, 64, 62
1, 862422, Note_off_c, 0, 70, 50
1, 862433, Control_c, 0, 64, 68
1, 862448, Control_c, 0, 64, 72
1, 862455, Note_off_c, 0, 78, 55
1, 862460, Note_off_c, 0, 64, 37
1, 862463, Control_c, 0, 64, 77
1, 862477, Control_c, 0, 64, 81
1, 862492, Control_c, 0, 64, 85
1, 862507, Control_c, 0, 64, 88
1, 862522, Control_c, 0, 64, 89
1, 862534, Note_off_c, 0, 54, 36
1, 862552, Control_c, 0, 64, 89
1, 862706, Control_c, 0, 64, 89
1, 862721, Control_c, 0, 64, 87
1, 862736, Control_c, 0, 64, 84
1, 862751, Control_c, 0, 64, 80
1, 862766, Control_c, 0, 64, 72
1, 862776, Note_on_c, 0, 78, 47
1, 862780, Control_c, 0, 64, 63
1, 862795, Control_c, 0, 64, 0
1, 862802, Note_on_c, 0, 59, 33
1, 862802, Note_on_c, 0, 71, 29
1, 862811, Note_on_c, 0, 63, 31
1, 862884, Control_c, 0, 64, 54
1, 862886, Note_off_c, 0, 78, 62
1, 862898, Control_c, 0, 64, 67
1, 862913, Control_c, 0, 64, 75
1, 862928, Control_c, 0, 64, 85
1, 862943, Control_c, 0, 64, 94
1, 862958, Control_c, 0, 64, 114
1, 862964, Note_off_c, 0, 63, 41
1, 862972, Control_c, 0, 64, 127
1, 863011, Note_off_c, 0, 71, 43
1, 863039, Note_off_c, 0, 59, 40
1, 863336, Control_c, 0, 67, 121
1, 863351, Control_c, 0, 67, 110
1, 863366, Control_c, 0, 67, 103
1, 863381, Control_c, 0, 67, 97
1, 863396, Control_c, 0, 67, 90
1, 863410, Control_c, 0, 67, 81
1, 863425, Control_c, 0, 67, 73
1, 863440, Control_c, 0, 67, 66
1, 863455, Control_c, 0, 67, 59
1, 863470, Control_c, 0, 67, 54
1, 863485, Control_c, 0, 67, 50
1, 863500, Control_c, 0, 67, 46
1, 863515, Control_c, 0, 67, 43
1, 863529, Control_c, 0, 67, 41
1, 863544, Control_c, 0, 67, 40
1, 863559, Control_c, 0, 64, 110
1, 863559, Control_c, 0, 67, 39
1, 863574, Control_c, 0, 64, 105
1, 863589, Control_c, 0, 64, 100
1, 863603, Control_c, 0, 64, 96
1, 863618, Control_c, 0, 64, 92
1, 863633, Control_c, 0, 64, 88
1, 863641, Note_on_c, 0, 71, 57
1, 863647, Control_c, 0, 64, 83
1, 863647, Control_c, 0, 67, 40
1, 863662, Control_c, 0, 64, 78
1, 863662, Control_c, 0, 67, 40
1, 863677, Control_c, 0, 64, 70
1, 863677, Control_c, 0, 67, 41
1, 863692, Control_c, 0, 64, 59
1, 863692, Control_c, 0, 67, 43
1, 863707, Control_c, 0, 64, 0
1, 863707, Control_c, 0, 67, 45
1, 863721, Control_c, 0, 67, 46
1, 863736, Control_c, 0, 67, 47
1, 863751, Control_c, 0, 67, 50
1, 863766, Control_c, 0, 67, 52
1, 863781, Control_c, 0, 64, 50
1, 863781, Control_c, 0, 67, 57
1, 863797, Control_c, 0, 64, 62
1, 863797, Control_c, 0, 67, 62
1, 863811, Control_c, 0, 64, 66
1, 863811, Control_c, 0, 67, 67
1, 863826, Control_c, 0, 64, 70
1, 863826, Control_c, 0, 67, 71
1, 863841, Control_c, 0, 64, 74
1, 863841, Control_c, 0, 67, 74
1, 863856, Control_c, 0, 64, 78
1, 863856, Control_c, 0, 67, 77
1, 863870, Control_c, 0, 64, 81
1, 863870, Control_c, 0, 67, 79
1, 863885, Control_c, 0, 64, 83
1, 863885, Control_c, 0, 67, 80
1, 863900, Control_c, 0, 64, 84
1, 863900, Control_c, 0, 67, 83
1, 863915, Control_c, 0, 64, 85
1, 863915, Control_c, 0, 67, 86
1, 863930, Control_c, 0, 64, 85
1, 863930, Control_c, 0, 67, 90
1, 863944, Control_c, 0, 64, 86
1, 863944, Control_c, 0, 67, 93
1, 863959, Control_c, 0, 67, 95
1, 863974, Control_c, 0, 67, 95
1, 863989, Control_c, 0, 67, 96
1, 864004, Control_c, 0, 67, 97
1, 864019, Control_c, 0, 67, 100
1, 864033, Control_c, 0, 67, 104
1, 864048, Control_c, 0, 67, 107
1, 864070, Control_c, 0, 67, 110
1, 864085, Control_c, 0, 67, 112
1, 864100, Control_c, 0, 67, 114
1, 864115, Control_c, 0, 67, 116
1, 864130, Control_c, 0, 67, 119
1, 864144, Control_c, 0, 67, 122
1, 864159, Control_c, 0, 64, 85
1, 864159, Control_c, 0, 67, 125
1, 864174, Control_c, 0, 64, 85
1, 864174, Control_c, 0, 67, 127
1, 864189, Control_c, 0, 64, 84
1, 864200, Note_on_c, 0, 74, 61
1, 864204, Control_c, 0, 64, 83
1, 864218, Control_c, 0, 64, 82
1, 864233, Control_c, 0, 64, 81
1, 864248, Control_c, 0, 64, 80
1, 864263, Control_c, 0, 64, 78
1, 864275, Note_on_c, 0, 47, 36
1, 864278, Control_c, 0, 64, 75
1, 864293, Control_c, 0, 64, 71
1, 864308, Control_c, 0, 64, 66
1, 864323, Control_c, 0, 64, 57
1, 864338, Control_c, 0, 64, 26
1, 864352, Control_c, 0, 64, 0
1, 864363, Note_off_c, 0, 71, 47
1, 864397, Control_c, 0, 64, 29
1, 864412, Control_c, 0, 64, 53
1, 864426, Control_c, 0, 64, 62
1, 864441, Control_c, 0, 64, 65
1, 864456, Control_c, 0, 64, 67
1, 864470, Control_c, 0, 64, 69
1, 864485, Control_c, 0, 64, 72
1, 864500, Control_c, 0, 64, 74
1, 864515, Control_c, 0, 64, 76
1, 864530, Control_c, 0, 64, 76
1, 864544, Control_c, 0, 64, 77
1, 864559, Note_on_c, 0, 50, 25
1, 864559, Control_c, 0, 64, 78
1, 864590, Control_c, 0, 64, 78
1, 864605, Control_c, 0, 64, 79
1, 864620, Control_c, 0, 64, 79
1, 864635, Control_c, 0, 64, 80
1, 864649, Control_c, 0, 64, 81
1, 864679, Control_c, 0, 64, 82
1, 864693, Control_c, 0, 64, 82
1, 864698, Note_off_c, 0, 50, 38
1, 864708, Control_c, 0, 64, 83
1, 864712, Note_on_c, 0, 53, 38
1, 864723, Control_c, 0, 64, 83
1, 864738, Control_c, 0, 64, 84
1, 864753, Control_c, 0, 64, 84
1, 864782, Control_c, 0, 64, 85
1, 864817, Note_off_c, 0, 47, 37
1, 864859, Note_on_c, 0, 50, 34
1, 864981, Note_off_c, 0, 53, 31
1, 864998, Control_c, 0, 64, 84
1, 865008, Note_on_c, 0, 47, 32
1, 865012, Control_c, 0, 64, 83
1, 865023, Note_on_c, 0, 68, 63
1, 865027, Control_c, 0, 64, 81
1, 865035, Note_off_c, 0, 50, 39
1, 865042, Control_c, 0, 64, 77
1, 865057, Control_c, 0, 64, 68
1, 865072, Control_c, 0, 64, 57
1, 865086, Control_c, 0, 64, 14
1, 865087, Note_off_c, 0, 74, 64
1, 865101, Control_c, 0, 64, 23
1, 865116, Control_c, 0, 64, 44
1, 865131, Control_c, 0, 64, 56
1, 865146, Control_c, 0, 64, 62
1, 865160, Control_c, 0, 64, 66
1, 865175, Control_c, 0, 64, 72
1, 865190, Control_c, 0, 64, 81
1, 865196, Note_on_c, 0, 50, 30
1, 865205, Control_c, 0, 64, 85
1, 865220, Control_c, 0, 64, 86
1, 865223, Note_off_c, 0, 47, 42
1, 865268, Note_off_c, 0, 50, 55
1, 865312, Note_on_c, 0, 53, 35
1, 865409, Note_off_c, 0, 68, 37
1, 865430, Note_on_c, 0, 50, 40
1, 865446, Note_off_c, 0, 53, 37
1, 865501, Note_off_c, 0, 50, 39
1, 865503, Control_c, 0, 64, 85
1, 865517, Control_c, 0, 64, 85
1, 865524, Note_on_c, 0, 47, 44
1, 865547, Control_c, 0, 64, 84
1, 865569, Control_c, 0, 64, 83
1, 865584, Control_c, 0, 64, 83
1, 865598, Control_c, 0, 64, 82
1, 865613, Control_c, 0, 64, 82
1, 865628, Control_c, 0, 64, 81
1, 865640, Note_on_c, 0, 50, 48
1, 865643, Control_c, 0, 64, 80
1, 865658, Control_c, 0, 64, 80
1, 865673, Control_c, 0, 64, 78
1, 865688, Control_c, 0, 64, 77
1, 865703, Control_c, 0, 64, 76
1, 865707, Note_off_c, 0, 47, 40
1, 865717, Control_c, 0, 64, 75
1, 865722, Note_off_c, 0, 50, 61
1, 865732, Control_c, 0, 64, 74
1, 865747, Control_c, 0, 64, 73
1, 865753, Note_on_c, 0, 74, 62
1, 865762, Control_c, 0, 64, 72
1, 865769, Note_on_c, 0, 53, 39
1, 865777, Control_c, 0, 64, 71
1, 865791, Control_c, 0, 64, 70
1, 865806, Control_c, 0, 64, 69
1, 865821, Control_c, 0, 64, 68
1, 865836, Control_c, 0, 64, 68
1, 865850, Control_c, 0, 64, 67
1, 865865, Control_c, 0, 64, 66
1, 865880, Control_c, 0, 64, 66
1, 865895, Control_c, 0, 64, 65
1, 865897, Note_on_c, 0, 50, 40
1, 865909, Control_c, 0, 64, 65
1, 865924, Control_c, 0, 64, 63
1, 865939, Control_c, 0, 64, 62
1, 865954, Control_c, 0, 64, 59
1, 865969, Control_c, 0, 64, 56
1, 865980, Note_off_c, 0, 53, 38
1, 865984, Control_c, 0, 64, 52
1, 865998, Control_c, 0, 64, 47
1, 866013, Control_c, 0, 64, 38
1, 866028, Control_c, 0, 64, 14
1, 866043, Control_c, 0, 64, 0
1, 866051, Note_on_c, 0, 45, 42
1, 866094, Note_off_c, 0, 50, 41
1, 866168, Note_on_c, 0, 73, 57
1, 866251, Control_c, 0, 64, 34
1, 866258, Note_off_c, 0, 74, 57
1, 866266, Control_c, 0, 64, 54
1, 866281, Control_c, 0, 64, 60
1, 866296, Control_c, 0, 64, 62
1, 866318, Control_c, 0, 64, 63
1, 866333, Control_c, 0, 64, 64
1, 866347, Control_c, 0, 64, 65
1, 866351, Note_on_c, 0, 49, 37
1, 866362, Control_c, 0, 64, 67
1, 866377, Control_c, 0, 64, 68
1, 866392, Control_c, 0, 64, 70
1, 866394, Note_off_c, 0, 45, 37
1, 866407, Control_c, 0, 64, 72
1, 866421, Control_c, 0, 64, 74
1, 866436, Control_c, 0, 64, 76
1, 866449, Note_off_c, 0, 49, 55
1, 866451, Control_c, 0, 64, 77
1, 866466, Control_c, 0, 64, 77
1, 866492, Note_on_c, 0, 54, 34
1, 866511, Control_c, 0, 64, 78
1, 866600, Note_on_c, 0, 49, 40
1, 866673, Control_c, 0, 64, 77
1, 866697, Note_off_c, 0, 54, 25
1, 866718, Control_c, 0, 64, 75
1, 866732, Note_on_c, 0, 66, 50
1, 866732, Control_c, 0, 64, 69
1, 866736, Note_off_c, 0, 49, 36
1, 866740, Note_on_c, 0, 45, 38
1, 866747, Control_c, 0, 64, 62
1, 866762, Control_c, 0, 64, 46
1, 866777, Control_c, 0, 64, 23
1, 866779, Note_off_c, 0, 73, 56
1, 866791, Control_c, 0, 64, 29
1, 866806, Control_c, 0, 64, 46
1, 866821, Control_c, 0, 64, 55
1, 866836, Control_c, 0, 64, 61
1, 866851, Control_c, 0, 64, 63
1, 866865, Control_c, 0, 64, 65
1, 866880, Control_c, 0, 64, 66
1, 866895, Control_c, 0, 64, 68
1, 866897, Note_on_c, 0, 49, 32
1, 866910, Control_c, 0, 64, 69
1, 866925, Note_off_c, 0, 45, 41
1, 866925, Control_c, 0, 64, 70
1, 866940, Control_c, 0, 64, 71
1, 866970, Control_c, 0, 64, 71
1, 866975, Note_off_c, 0, 49, 57
1, 866985, Control_c, 0, 64, 72
1, 867011, Note_on_c, 0, 54, 31
1, 867015, Control_c, 0, 64, 72
1, 867029, Control_c, 0, 64, 73
1, 867126, Note_on_c, 0, 49, 43
1, 867167, Note_off_c, 0, 66, 46
1, 867169, Note_off_c, 0, 54, 23
1, 867184, Control_c, 0, 64, 73
1, 867191, Note_off_c, 0, 49, 56
1, 867244, Note_on_c, 0, 45, 31
1, 867348, Note_on_c, 0, 49, 38
1, 867407, Control_c, 0, 64, 73
1, 867457, Note_off_c, 0, 49, 52
1, 867481, Control_c, 0, 64, 70
1, 867492, Note_on_c, 0, 73, 46
1, 867495, Control_c, 0, 64, 65
1, 867508, Note_on_c, 0, 54, 29
1, 867510, Control_c, 0, 64, 56
1, 867525, Control_c, 0, 64, 8
1, 867539, Note_off_c, 0, 45, 24
1, 867540, Control_c, 0, 64, 0
1, 867584, Control_c, 0, 64, 32
1, 867599, Control_c, 0, 64, 53
1, 867614, Control_c, 0, 64, 62
1, 867619, Note_on_c, 0, 49, 40
1, 867628, Control_c, 0, 64, 65
1, 867643, Control_c, 0, 64, 68
1, 867658, Control_c, 0, 64, 72
1, 867673, Control_c, 0, 64, 76
1, 867688, Control_c, 0, 64, 78
1, 867703, Control_c, 0, 64, 79
1, 867705, Note_off_c, 0, 73, 57
1, 867718, Control_c, 0, 64, 80
1, 867733, Control_c, 0, 64, 80
1, 867770, Note_off_c, 0, 54, 25
1, 867862, Note_on_c, 0, 73, 38
1, 867869, Note_on_c, 0, 44, 37
1, 867874, Control_c, 0, 64, 80
1, 867889, Control_c, 0, 64, 76
1, 867903, Note_off_c, 0, 49, 37
1, 867904, Control_c, 0, 64, 68
1, 867918, Control_c, 0, 64, 56
1, 867933, Control_c, 0, 64, 0
1, 867978, Control_c, 0, 64, 34
1, 867992, Control_c, 0, 64, 53
1, 868007, Control_c, 0, 64, 62
1, 868022, Control_c, 0, 64, 66
1, 868037, Control_c, 0, 64, 68
1, 868052, Control_c, 0, 64, 71
1, 868055, Note_on_c, 0, 47, 36
1, 868067, Control_c, 0, 64, 72
1, 868082, Control_c, 0, 64, 73
1, 868084, Note_off_c, 0, 73, 52
1, 868096, Control_c, 0, 64, 74
1, 868111, Control_c, 0, 64, 74
1, 868141, Control_c, 0, 64, 75
1, 868156, Control_c, 0, 64, 75
1, 868185, Control_c, 0, 64, 76
1, 868194, Note_on_c, 0, 73, 60
1, 868200, Control_c, 0, 64, 76
1, 868203, Note_off_c, 0, 47, 34
1, 868230, Control_c, 0, 64, 77
1, 868231, Note_on_c, 0, 53, 19
1, 868253, Note_off_c, 0, 44, 19
1, 868314, Note_on_c, 0, 47, 48
1, 868318, Control_c, 0, 64, 77
1, 868324, Note_off_c, 0, 73, 57
1, 868377, Note_off_c, 0, 53, 23
1, 868411, Note_off_c, 0, 47, 58
1, 868426, Note_on_c, 0, 44, 36
1, 868434, Note_on_c, 0, 73, 67
1, 868543, Note_off_c, 0, 73, 57
1, 868546, Note_on_c, 0, 47, 50
1, 868638, Note_off_c, 0, 47, 58
1, 868666, Note_on_c, 0, 73, 66
1, 868698, Note_on_c, 0, 53, 36
1, 868717, Note_off_c, 0, 44, 21
1, 868785, Note_off_c, 0, 73, 56
1, 868789, Note_on_c, 0, 47, 43
1, 868856, Note_off_c, 0, 53, 28
1, 868894, Note_off_c, 0, 47, 51
1, 868899, Note_on_c, 0, 72, 58
1, 868905, Note_on_c, 0, 44, 36
1, 869022, Note_on_c, 0, 73, 63
1, 869034, Note_on_c, 0, 47, 51
1, 869053, Control_c, 0, 64, 77
1, 869080, Note_off_c, 0, 72, 56
1, 869105, Note_off_c, 0, 47, 59
1, 869131, Note_on_c, 0, 74, 62
1, 869139, Note_on_c, 0, 53, 42
1, 869154, Note_off_c, 0, 73, 56
1, 869172, Control_c, 0, 64, 76
1, 869238, Note_off_c, 0, 44, 27
1, 869249, Note_on_c, 0, 73, 66
1, 869263, Note_on_c, 0, 47, 46
1, 869271, Note_off_c, 0, 74, 59
1, 869275, Control_c, 0, 64, 76
1, 869313, Control_c, 0, 64, 75
1, 869326, Control_c, 0, 64, 75
1, 869340, Control_c, 0, 64, 74
1, 869341, Note_off_c, 0, 73, 58
1, 869355, Control_c, 0, 64, 73
1, 869370, Control_c, 0, 64, 72
1, 869378, Note_off_c, 0, 47, 56
1, 869386, Control_c, 0, 64, 71
1, 869401, Control_c, 0, 64, 69
1, 869415, Control_c, 0, 64, 67
1, 869423, Note_on_c, 0, 45, 44
1, 869426, Note_on_c, 0, 73, 60
1, 869430, Control_c, 0, 64, 64
1, 869445, Control_c, 0, 64, 58
1, 869447, Note_off_c, 0, 53, 22
1, 869460, Control_c, 0, 64, 0
1, 869563, Control_c, 0, 64, 28
1, 869578, Control_c, 0, 64, 60
1, 869593, Control_c, 0, 64, 65
1, 869605, Note_on_c, 0, 49, 40
1, 869608, Control_c, 0, 64, 67
1, 869623, Control_c, 0, 64, 69
1, 869638, Control_c, 0, 64, 72
1, 869644, Note_off_c, 0, 45, 55
1, 869652, Control_c, 0, 64, 74
1, 869667, Control_c, 0, 64, 75
1, 869678, Note_off_c, 0, 49, 59
1, 869682, Control_c, 0, 64, 76
1, 869697, Note_on_c, 0, 54, 43
1, 869697, Control_c, 0, 64, 76
1, 869712, Control_c, 0, 64, 77
1, 869727, Control_c, 0, 64, 77
1, 869756, Control_c, 0, 64, 78
1, 869812, Note_on_c, 0, 49, 43
1, 869905, Note_off_c, 0, 49, 54
1, 869933, Note_on_c, 0, 45, 40
1, 869934, Control_c, 0, 64, 75
1, 869941, Note_off_c, 0, 54, 31
1, 869949, Control_c, 0, 64, 67
1, 869951, Note_on_c, 0, 66, 54
1, 869963, Control_c, 0, 64, 55
1, 869978, Control_c, 0, 64, 17
1, 869993, Control_c, 0, 64, 0
1, 870001, Note_off_c, 0, 73, 54
1, 870007, Control_c, 0, 64, 33
1, 870022, Control_c, 0, 64, 50
1, 870037, Control_c, 0, 64, 59
1, 870060, Control_c, 0, 64, 65
1, 870075, Control_c, 0, 64, 68
1, 870079, Note_on_c, 0, 49, 35
1, 870089, Control_c, 0, 64, 70
1, 870104, Control_c, 0, 64, 72
1, 870119, Control_c, 0, 64, 72
1, 870124, Note_off_c, 0, 45, 43
1, 870134, Control_c, 0, 64, 73
1, 870151, Note_off_c, 0, 49, 59
1, 870178, Note_on_c, 0, 54, 41
1, 870284, Note_on_c, 0, 49, 48
1, 870337, Note_off_c, 0, 66, 37
1, 870359, Note_off_c, 0, 49, 59
1, 870368, Note_off_c, 0, 54, 31
1, 870385, Note_on_c, 0, 45, 42
1, 870445, Control_c, 0, 64, 72
1, 870490, Control_c, 0, 64, 72
1, 870493, Note_on_c, 0, 49, 44
1, 870535, Control_c, 0, 64, 71
1, 870550, Control_c, 0, 64, 71
1, 870550, Control_c, 0, 67, 126
1, 870563, Note_off_c, 0, 45, 39
1, 870565, Control_c, 0, 64, 70
1, 870565, Control_c, 0, 67, 121
1, 870576, Note_on_c, 0, 73, 73
1, 870579, Control_c, 0, 64, 70
1, 870579, Control_c, 0, 67, 117
1, 870589, Note_off_c, 0, 49, 59
1, 870594, Control_c, 0, 64, 69
1, 870594, Control_c, 0, 67, 112
1, 870609, Control_c, 0, 64, 68
1, 870609, Control_c, 0, 67, 109
1, 870615, Note_on_c, 0, 54, 38
1, 870623, Control_c, 0, 64, 68
1, 870623, Control_c, 0, 67, 106
1, 870638, Control_c, 0, 64, 67
1, 870638, Control_c, 0, 67, 104
1, 870653, Control_c, 0, 64, 67
1, 870653, Control_c, 0, 67, 102
1, 870668, Control_c, 0, 64, 66
1, 870668, Control_c, 0, 67, 100
1, 870683, Control_c, 0, 64, 66
1, 870683, Control_c, 0, 67, 98
1, 870697, Control_c, 0, 64, 65
1, 870697, Control_c, 0, 67, 97
1, 870712, Control_c, 0, 64, 65
1, 870712, Control_c, 0, 67, 96
1, 870726, Note_on_c, 0, 49, 47
1, 870727, Control_c, 0, 67, 96
1, 870742, Control_c, 0, 64, 64
1, 870742, Control_c, 0, 67, 96
1, 870757, Control_c, 0, 64, 64
1, 870757, Control_c, 0, 67, 97
1, 870771, Control_c, 0, 67, 98
1, 870786, Control_c, 0, 64, 63
1, 870786, Control_c, 0, 67, 100
1, 870809, Control_c, 0, 64, 63
1, 870809, Control_c, 0, 67, 100
1, 870816, Note_off_c, 0, 54, 32
1, 870824, Control_c, 0, 64, 62
1, 870824, Control_c, 0, 67, 101
1, 870838, Control_c, 0, 64, 61
1, 870838, Control_c, 0, 67, 102
1, 870852, Note_off_c, 0, 49, 55
1, 870853, Note_on_c, 0, 47, 47
1, 870853, Control_c, 0, 64, 59
1, 870853, Control_c, 0, 67, 102
1, 870868, Control_c, 0, 64, 57
1, 870868, Control_c, 0, 67, 103
1, 870883, Control_c, 0, 64, 54
1, 870883, Control_c, 0, 67, 104
1, 870898, Control_c, 0, 64, 46
1, 870898, Control_c, 0, 67, 104
1, 870912, Control_c, 0, 64, 19
1, 870912, Control_c, 0, 67, 105
1, 870927, Control_c, 0, 64, 0
1, 870927, Control_c, 0, 67, 106
1, 870933, Note_on_c, 0, 74, 67
1, 870942, Control_c, 0, 67, 106
1, 870956, Control_c, 0, 67, 107
1, 870971, Control_c, 0, 67, 108
1, 870974, Note_off_c, 0, 73, 59
1, 870988, Control_c, 0, 67, 110
1, 871003, Control_c, 0, 67, 113
1, 871017, Control_c, 0, 67, 115
1, 871032, Control_c, 0, 67, 118
1, 871047, Control_c, 0, 64, 50
1, 871047, Control_c, 0, 67, 121
1, 871061, Control_c, 0, 64, 63
1, 871061, Control_c, 0, 67, 123
1, 871076, Control_c, 0, 64, 66
1, 871076, Control_c, 0, 67, 126
1, 871091, Control_c, 0, 64, 67
1, 871091, Control_c, 0, 67, 127
1, 871106, Control_c, 0, 64, 70
1, 871119, Note_on_c, 0, 50, 39
1, 871121, Control_c, 0, 64, 74
1, 871135, Control_c, 0, 64, 77
1, 871150, Control_c, 0, 64, 79
1, 871154, Note_off_c, 0, 47, 35
1, 871165, Control_c, 0, 64, 81
1, 871179, Control_c, 0, 64, 82
1, 871194, Control_c, 0, 64, 83
1, 871200, Note_off_c, 0, 50, 60
1, 871233, Note_on_c, 0, 56, 41
1, 871239, Control_c, 0, 64, 83
1, 871363, Note_on_c, 0, 50, 36
1, 871423, Note_off_c, 0, 56, 29
1, 871447, Control_c, 0, 64, 83
1, 871476, Control_c, 0, 64, 82
1, 871480, Note_on_c, 0, 47, 45
1, 871491, Control_c, 0, 64, 79
1, 871506, Control_c, 0, 64, 74
1, 871510, Note_off_c, 0, 50, 33
1, 871520, Control_c, 0, 64, 67
1, 871527, Note_on_c, 0, 65, 59
1, 871535, Control_c, 0, 64, 60
1, 871557, Control_c, 0, 64, 44
1, 871573, Control_c, 0, 64, 36
1, 871587, Control_c, 0, 64, 45
1, 871591, Note_off_c, 0, 74, 60
1, 871602, Control_c, 0, 64, 53
1, 871617, Control_c, 0, 64, 59
1, 871632, Control_c, 0, 64, 64
1, 871647, Control_c, 0, 64, 67
1, 871662, Control_c, 0, 64, 70
1, 871677, Control_c, 0, 64, 73
1, 871687, Note_off_c, 0, 47, 47
1, 871691, Control_c, 0, 64, 76
1, 871694, Note_on_c, 0, 50, 30
1, 871706, Control_c, 0, 64, 77
1, 871761, Note_off_c, 0, 50, 57
1, 871801, Note_on_c, 0, 56, 34
1, 871923, Note_on_c, 0, 50, 34
1, 871946, Note_off_c, 0, 56, 38
1, 871974, Control_c, 0, 64, 76
1, 871994, Note_off_c, 0, 50, 49
1, 872003, Control_c, 0, 64, 76
1, 872018, Control_c, 0, 64, 75
1, 872034, Note_on_c, 0, 47, 43
1, 872063, Control_c, 0, 64, 75
1, 872095, Note_off_c, 0, 65, 35
1, 872107, Control_c, 0, 64, 74
1, 872151, Control_c, 0, 64, 74
1, 872159, Note_on_c, 0, 50, 38
1, 872166, Control_c, 0, 64, 73
1, 872181, Control_c, 0, 64, 73
1, 872210, Control_c, 0, 64, 72
1, 872225, Control_c, 0, 64, 72
1, 872240, Note_off_c, 0, 50, 56
1, 872240, Control_c, 0, 64, 71
1, 872255, Control_c, 0, 64, 71
1, 872270, Control_c, 0, 64, 70
1, 872285, Control_c, 0, 64, 70
1, 872287, Note_on_c, 0, 56, 34
1, 872288, Note_on_c, 0, 74, 54
1, 872290, Note_off_c, 0, 47, 20
1, 872307, Control_c, 0, 64, 69
1, 872322, Control_c, 0, 64, 68
1, 872337, Control_c, 0, 64, 68
1, 872352, Control_c, 0, 64, 67
1, 872366, Control_c, 0, 64, 67
1, 872381, Control_c, 0, 64, 66
1, 872396, Control_c, 0, 64, 65
1, 872410, Control_c, 0, 64, 64
1, 872415, Note_on_c, 0, 50, 39
1, 872425, Control_c, 0, 64, 64
1, 872440, Control_c, 0, 64, 63
1, 872455, Control_c, 0, 64, 62
1, 872470, Control_c, 0, 64, 61
1, 872484, Control_c, 0, 64, 60
1, 872499, Control_c, 0, 64, 58
1, 872507, Note_off_c, 0, 56, 37
1, 872514, Control_c, 0, 64, 57
1, 872529, Control_c, 0, 64, 56
1, 872544, Control_c, 0, 64, 55
1, 872559, Control_c, 0, 64, 53
1, 872574, Control_c, 0, 64, 52
1, 872589, Control_c, 0, 64, 50
1, 872590, Note_on_c, 0, 46, 34
1, 872604, Control_c, 0, 64, 48
1, 872619, Note_off_c, 0, 50, 39
1, 872619, Control_c, 0, 64, 46
1, 872633, Control_c, 0, 64, 42
1, 872648, Control_c, 0, 64, 31
1, 872663, Control_c, 0, 64, 0
1, 872705, Note_on_c, 0, 73, 45
1, 872753, Note_off_c, 0, 74, 51
1, 872826, Control_c, 0, 64, 50
1, 872841, Control_c, 0, 64, 59
1, 872856, Control_c, 0, 64, 61
1, 872871, Control_c, 0, 64, 62
1, 872886, Control_c, 0, 64, 63
1, 872893, Note_on_c, 0, 49, 30
1, 872900, Control_c, 0, 64, 65
1, 872915, Control_c, 0, 64, 66
1, 872930, Control_c, 0, 64, 67
1, 872945, Control_c, 0, 64, 68
1, 872960, Control_c, 0, 64, 70
1, 872974, Note_off_c, 0, 49, 56
1, 872974, Control_c, 0, 64, 71
1, 872989, Control_c, 0, 64, 72
1, 873004, Control_c, 0, 64, 72
1, 873019, Control_c, 0, 64, 73
1, 873033, Control_c, 0, 64, 73
1, 873039, Note_on_c, 0, 54, 21
1, 873055, Note_off_c, 0, 46, 21
1, 873085, Control_c, 0, 64, 74
1, 873133, Note_on_c, 0, 49, 33
1, 873216, Note_off_c, 0, 49, 49
1, 873219, Note_off_c, 0, 54, 21
1, 873236, Note_on_c, 0, 46, 31
1, 873261, Note_on_c, 0, 66, 45
1, 873262, Control_c, 0, 64, 72
1, 873277, Control_c, 0, 64, 66
1, 873292, Control_c, 0, 64, 61
1, 873307, Note_off_c, 0, 73, 53
1, 873307, Control_c, 0, 64, 57
1, 873322, Control_c, 0, 64, 59
1, 873337, Control_c, 0, 64, 61
1, 873351, Control_c, 0, 64, 64
1, 873366, Control_c, 0, 64, 66
1, 873382, Control_c, 0, 64, 69
1, 873391, Note_on_c, 0, 49, 32
1, 873396, Control_c, 0, 64, 72
1, 873411, Control_c, 0, 64, 73
1, 873420, Note_off_c, 0, 46, 39
1, 873441, Control_c, 0, 64, 73
1, 873450, Note_off_c, 0, 49, 60
1, 873471, Control_c, 0, 64, 74
1, 873498, Note_on_c, 0, 54, 31
1, 873560, Control_c, 0, 64, 74
1, 873582, Note_on_c, 0, 49, 40
1, 873659, Note_off_c, 0, 49, 52
1, 873664, Note_off_c, 0, 54, 34
1, 873710, Note_on_c, 0, 46, 39
1, 873763, Note_off_c, 0, 66, 36
1, 873843, Note_on_c, 0, 49, 28
1, 873909, Note_off_c, 0, 49, 54
1, 873940, Note_on_c, 0, 73, 54
1, 873962, Note_on_c, 0, 54, 36
1, 874055, Note_off_c, 0, 46, 16
1, 874078, Note_on_c, 0, 49, 37
1, 874107, Note_off_c, 0, 73, 59
1, 874180, Note_off_c, 0, 54, 35
1, 874204, Control_c, 0, 64, 74
1, 874219, Control_c, 0, 64, 71
1, 874228, Note_on_c, 0, 73, 60
1, 874234, Control_c, 0, 64, 65
1, 874243, Note_off_c, 0, 49, 54
1, 874249, Control_c, 0, 64, 50
1, 874261, Note_on_c, 0, 44, 36
1, 874264, Control_c, 0, 64, 0
1, 874309, Control_c, 0, 64, 40
1, 874324, Control_c, 0, 64, 58
1, 874338, Control_c, 0, 64, 65
1, 874353, Control_c, 0, 64, 69
1, 874368, Control_c, 0, 64, 73
1, 874383, Control_c, 0, 64, 74
1, 874389, Note_on_c, 0, 47, 49
1, 874397, Control_c, 0, 64, 75
1, 874408, Note_off_c, 0, 73, 59
1, 874479, Note_off_c, 0, 44, 37
1, 874482, Note_off_c, 0, 47, 59
1, 874511, Note_on_c, 0, 73, 63
1, 874516, Control_c, 0, 64, 75
1, 874535, Note_on_c, 0, 53, 45
1, 874637, Note_on_c, 0, 47, 47
1, 874640, Note_off_c, 0, 73, 58
1, 874726, Note_off_c, 0, 47, 61
1, 874736, Note_off_c, 0, 53, 35
1, 874741, Note_on_c, 0, 44, 44
1, 874749, Note_on_c, 0, 73, 67
1, 874846, Note_off_c, 0, 73, 58
1, 874864, Note_on_c, 0, 47, 51
1, 874923, Note_off_c, 0, 44, 35
1, 874967, Note_on_c, 0, 73, 61
1, 874971, Note_off_c, 0, 47, 53
1, 875006, Note_on_c, 0, 53, 45
1, 875073, Note_off_c, 0, 73, 58
1, 875116, Note_on_c, 0, 47, 42
1, 875166, Note_off_c, 0, 47, 61
1, 875167, Note_off_c, 0, 53, 40
1, 875180, Note_on_c, 0, 72, 66
1, 875193, Note_on_c, 0, 44, 46
1, 875310, Note_on_c, 0, 47, 48
1, 875316, Note_on_c, 0, 73, 60
1, 875351, Note_off_c, 0, 72, 56
1, 875394, Note_off_c, 0, 47, 60
1, 875413, Note_on_c, 0, 75, 65
1, 875425, Note_off_c, 0, 73, 56
1, 875427, Note_on_c, 0, 53, 50
1, 875501, Note_off_c, 0, 44, 20
1, 875531, Note_on_c, 0, 73, 73
1, 875534, Note_on_c, 0, 47, 51
1, 875561, Note_off_c, 0, 75, 62
1, 875599, Control_c, 0, 64, 75
1, 875603, Note_off_c, 0, 73, 61
1, 875613, Note_off_c, 0, 53, 35
1, 875614, Control_c, 0, 64, 74
1, 875628, Control_c, 0, 64, 74
1, 875643, Control_c, 0, 64, 73
1, 875658, Control_c, 0, 64, 73
1, 875673, Control_c, 0, 64, 71
1, 875677, Note_off_c, 0, 47, 53
1, 875688, Control_c, 0, 64, 68
1, 875699, Note_on_c, 0, 73, 61
1, 875702, Control_c, 0, 64, 63
1, 875716, Note_on_c, 0, 42, 38
1, 875717, Control_c, 0, 64, 47
1, 875732, Control_c, 0, 64, 0
1, 875837, Control_c, 0, 64, 59
1, 875851, Control_c, 0, 64, 66
1, 875860, Note_on_c, 0, 46, 47
1, 875866, Control_c, 0, 64, 70
1, 875881, Control_c, 0, 64, 73
1, 875896, Control_c, 0, 64, 77
1, 875911, Control_c, 0, 64, 80
1, 875925, Control_c, 0, 64, 83
1, 875940, Control_c, 0, 64, 84
1, 875955, Control_c, 0, 64, 85
1, 875966, Note_off_c, 0, 46, 57
1, 875984, Control_c, 0, 64, 85
1, 875999, Control_c, 0, 64, 86
1, 876000, Note_on_c, 0, 54, 41
1, 876014, Control_c, 0, 64, 86
1, 876051, Control_c, 0, 64, 87
1, 876094, Note_off_c, 0, 42, 22
1, 876096, Control_c, 0, 64, 87
1, 876116, Note_on_c, 0, 46, 48
1, 876214, Control_c, 0, 64, 83
1, 876229, Note_on_c, 0, 66, 55
1, 876229, Control_c, 0, 64, 71
1, 876243, Note_off_c, 0, 54, 35
1, 876244, Note_off_c, 0, 46, 53
1, 876244, Control_c, 0, 64, 60
1, 876249, Note_on_c, 0, 42, 30
1, 876258, Control_c, 0, 64, 34
1, 876273, Control_c, 0, 64, 28
1, 876288, Control_c, 0, 64, 46
1, 876303, Control_c, 0, 64, 58
1, 876318, Control_c, 0, 64, 63
1, 876333, Control_c, 0, 64, 67
1, 876348, Control_c, 0, 64, 70
1, 876362, Control_c, 0, 64, 73
1, 876371, Note_on_c, 0, 46, 45
1, 876377, Control_c, 0, 64, 76
1, 876392, Control_c, 0, 64, 77
1, 876400, Note_off_c, 0, 73, 35
1, 876407, Control_c, 0, 64, 79
1, 876422, Control_c, 0, 64, 81
1, 876437, Control_c, 0, 64, 81
1, 876443, Note_off_c, 0, 46, 58
1, 876451, Control_c, 0, 64, 82
1, 876466, Control_c, 0, 64, 83
1, 876481, Control_c, 0, 64, 84
1, 876495, Control_c, 0, 64, 85
1, 876496, Note_on_c, 0, 54, 40
1, 876510, Control_c, 0, 64, 85
1, 876525, Control_c, 0, 64, 86
1, 876540, Control_c, 0, 64, 87
1, 876547, Note_off_c, 0, 42, 22
1, 876555, Control_c, 0, 64, 89
1, 876571, Control_c, 0, 64, 90
1, 876586, Control_c, 0, 64, 91
1, 876589, Note_on_c, 0, 46, 48
1, 876600, Control_c, 0, 64, 92
1, 876615, Control_c, 0, 64, 93
1, 876630, Control_c, 0, 64, 94
1, 876645, Control_c, 0, 64, 95
1, 876660, Control_c, 0, 64, 95
1, 876661, Note_off_c, 0, 54, 33
1, 876674, Control_c, 0, 64, 96
1, 876679, Note_off_c, 0, 46, 55
1, 876689, Control_c, 0, 64, 97
1, 876701, Note_on_c, 0, 42, 45
1, 876704, Control_c, 0, 64, 98
1, 876719, Control_c, 0, 64, 99
1, 876734, Control_c, 0, 64, 101
1, 876748, Control_c, 0, 64, 104
1, 876763, Control_c, 0, 64, 106
1, 876769, Note_off_c, 0, 66, 48
1, 876778, Control_c, 0, 64, 110
1, 876800, Control_c, 0, 64, 116
1, 876815, Control_c, 0, 64, 127
1, 876822, Note_on_c, 0, 46, 56
1, 876830, Control_c, 0, 67, 126
1, 876845, Control_c, 0, 67, 124
1, 876860, Control_c, 0, 67, 122
1, 876874, Control_c, 0, 67, 120
1, 876889, Control_c, 0, 67, 118
1, 876904, Control_c, 0, 67, 115
1, 876919, Control_c, 0, 67, 112
1, 876934, Control_c, 0, 67, 109
1, 876942, Note_off_c, 0, 46, 55
1, 876948, Control_c, 0, 67, 106
1, 876956, Note_on_c, 0, 73, 74
1, 876963, Control_c, 0, 67, 102
1, 876978, Control_c, 0, 67, 99
1, 876990, Note_on_c, 0, 54, 49
1, 876992, Control_c, 0, 67, 95
1, 877007, Control_c, 0, 67, 92
1, 877022, Control_c, 0, 67, 89
1, 877037, Control_c, 0, 67, 87
1, 877052, Control_c, 0, 67, 85
1, 877053, Note_off_c, 0, 42, 32
1, 877067, Control_c, 0, 67, 82
1, 877081, Control_c, 0, 67, 80
1, 877096, Control_c, 0, 67, 75
1, 877111, Control_c, 0, 67, 71
1, 877126, Control_c, 0, 67, 67
1, 877127, Note_on_c, 0, 46, 48
1, 877140, Control_c, 0, 67, 63
1, 877141, Note_off_c, 0, 54, 52
1, 877155, Control_c, 0, 67, 59
1, 877170, Control_c, 0, 67, 55
1, 877185, Control_c, 0, 67, 51
1, 877200, Control_c, 0, 67, 46
1, 877215, Control_c, 0, 67, 43
1, 877230, Control_c, 0, 67, 41
1, 877231, Note_off_c, 0, 73, 58
1, 877245, Control_c, 0, 67, 39
1, 877260, Control_c, 0, 67, 37
1, 877274, Control_c, 0, 67, 35
1, 877289, Control_c, 0, 67, 32
1, 877304, Control_c, 0, 67, 31
1, 877333, Control_c, 0, 67, 30
1, 877358, Note_on_c, 0, 73, 69
1, 877361, Note_off_c, 0, 46, 59
1, 877409, Control_c, 0, 67, 31
1, 877438, Control_c, 0, 67, 31
1, 877446, Note_on_c, 0, 40, 47
1, 877453, Control_c, 0, 64, 105
1, 877453, Control_c, 0, 67, 32
1, 877468, Control_c, 0, 64, 73
1, 877483, Control_c, 0, 64, 44
1, 877497, Control_c, 0, 64, 0
1, 877497, Control_c, 0, 67, 32
1, 877512, Control_c, 0, 67, 33
1, 877563, Control_c, 0, 64, 58
1, 877578, Control_c, 0, 64, 68
1, 877593, Control_c, 0, 64, 76
1, 877608, Control_c, 0, 64, 89
1, 877622, Control_c, 0, 64, 127
1, 877651, Note_off_c, 0, 73, 59
1, 877670, Note_on_c, 0, 45, 46
1, 877726, Control_c, 0, 67, 33
1, 877741, Control_c, 0, 67, 34
1, 877785, Control_c, 0, 67, 35
1, 877815, Control_c, 0, 67, 35
1, 877817, Note_on_c, 0, 73, 74
1, 877829, Control_c, 0, 67, 36
1, 877853, Note_off_c, 0, 45, 59
1, 877867, Note_on_c, 0, 55, 41
1, 877874, Control_c, 0, 67, 36
1, 877889, Control_c, 0, 67, 37
1, 877904, Control_c, 0, 67, 37
1, 877933, Control_c, 0, 67, 38
1, 877989, Note_off_c, 0, 40, 40
1, 877993, Control_c, 0, 67, 38
1, 877998, Note_on_c, 0, 45, 42
1, 878004, Note_off_c, 0, 73, 58
1, 878008, Control_c, 0, 67, 39
1, 878037, Control_c, 0, 67, 39
1, 878052, Control_c, 0, 67, 40
1, 878067, Control_c, 0, 67, 40
1, 878082, Control_c, 0, 67, 41
1, 878111, Control_c, 0, 67, 41
1, 878126, Control_c, 0, 67, 42
1, 878133, Note_on_c, 0, 73, 68
1, 878139, Note_off_c, 0, 45, 55
1, 878142, Note_on_c, 0, 40, 40
1, 878155, Control_c, 0, 67, 43
1, 878171, Control_c, 0, 67, 44
1, 878182, Note_off_c, 0, 55, 31
1, 878186, Control_c, 0, 67, 45
1, 878201, Control_c, 0, 67, 47
1, 878216, Control_c, 0, 67, 48
1, 878231, Control_c, 0, 67, 49
1, 878245, Control_c, 0, 67, 50
1, 878260, Control_c, 0, 67, 51
1, 878275, Control_c, 0, 67, 52
1, 878276, Note_off_c, 0, 73, 59
1, 878293, Note_on_c, 0, 45, 48
1, 878297, Control_c, 0, 67, 54
1, 878312, Control_c, 0, 67, 56
1, 878327, Control_c, 0, 67, 59
1, 878342, Control_c, 0, 67, 62
1, 878357, Control_c, 0, 67, 66
1, 878371, Control_c, 0, 67, 69
1, 878386, Control_c, 0, 67, 72
1, 878401, Control_c, 0, 67, 76
1, 878410, Note_off_c, 0, 45, 59
1, 878416, Control_c, 0, 67, 78
1, 878425, Note_on_c, 0, 73, 59
1, 878431, Control_c, 0, 67, 80
1, 878445, Control_c, 0, 67, 81
1, 878454, Note_on_c, 0, 55, 32
1, 878460, Control_c, 0, 67, 82
1, 878475, Control_c, 0, 67, 83
1, 878490, Control_c, 0, 67, 85
1, 878505, Control_c, 0, 67, 89
1, 878519, Control_c, 0, 67, 91
1, 878534, Control_c, 0, 67, 92
1, 878538, Note_off_c, 0, 73, 57
1, 878549, Control_c, 0, 67, 93
1, 878552, Note_off_c, 0, 40, 41
1, 878553, Note_on_c, 0, 45, 41
1, 878564, Control_c, 0, 67, 95
1, 878578, Control_c, 0, 67, 96
1, 878593, Control_c, 0, 67, 97
1, 878608, Control_c, 0, 67, 99
1, 878623, Control_c, 0, 67, 100
1, 878638, Control_c, 0, 67, 102
1, 878652, Control_c, 0, 67, 102
1, 878667, Control_c, 0, 67, 103
1, 878682, Control_c, 0, 67, 104
1, 878683, Note_off_c, 0, 45, 49
1, 878693, Note_on_c, 0, 40, 41
1, 878697, Note_on_c, 0, 73, 53
1, 878697, Control_c, 0, 67, 104
1, 878712, Control_c, 0, 67, 105
1, 878726, Control_c, 0, 67, 106
1, 878730, Note_off_c, 0, 55, 34
1, 878741, Control_c, 0, 67, 107
1, 878801, Note_off_c, 0, 73, 56
1, 878828, Note_on_c, 0, 45, 43
1, 878940, Note_off_c, 0, 45, 58
1, 878958, Note_on_c, 0, 73, 54
1, 878983, Note_on_c, 0, 55, 23
1, 879031, Note_off_c, 0, 73, 61
1, 879062, Control_c, 0, 67, 107
1, 879077, Note_off_c, 0, 40, 39
1, 879094, Note_on_c, 0, 45, 37
1, 879106, Control_c, 0, 67, 108
1, 879153, Note_off_c, 0, 55, 34
1, 879154, Note_off_c, 0, 45, 58
1, 879180, Control_c, 0, 67, 108
1, 879209, Control_c, 0, 67, 109
1, 879215, Note_on_c, 0, 40, 38
1, 879224, Control_c, 0, 67, 109
1, 879239, Control_c, 0, 67, 111
1, 879254, Control_c, 0, 67, 115
1, 879269, Control_c, 0, 67, 118
1, 879284, Control_c, 0, 67, 120
1, 879299, Control_c, 0, 67, 122
1, 879307, Note_on_c, 0, 45, 26
1, 879314, Control_c, 0, 67, 125
1, 879328, Control_c, 0, 67, 127
1, 879352, Note_on_c, 0, 73, 58
1, 879412, Note_on_c, 0, 55, 39
1, 879417, Control_c, 0, 64, 97
1, 879432, Control_c, 0, 64, 75
1, 879447, Control_c, 0, 64, 61
1, 879462, Control_c, 0, 64, 0
1, 879520, Control_c, 0, 64, 20
1, 879535, Control_c, 0, 64, 56
1, 879550, Control_c, 0, 64, 65
1, 879565, Control_c, 0, 64, 68
1, 879580, Control_c, 0, 64, 69
1, 879594, Control_c, 0, 64, 69
1, 879609, Control_c, 0, 64, 70
1, 879683, Control_c, 0, 64, 69
1, 879698, Control_c, 0, 64, 66
1, 879701, Note_on_c, 0, 79, 56
1, 879713, Control_c, 0, 64, 51
1, 879728, Control_c, 0, 64, 0
1, 879796, Control_c, 0, 64, 41
1, 879811, Control_c, 0, 64, 63
1, 879825, Control_c, 0, 64, 70
1, 879840, Control_c, 0, 64, 71
1, 879855, Control_c, 0, 64, 72
1, 879926, Note_off_c, 0, 73, 28
1, 879958, Control_c, 0, 64, 71
1, 879973, Control_c, 0, 64, 70
1, 879988, Control_c, 0, 64, 68
1, 880003, Control_c, 0, 64, 65
1, 880017, Control_c, 0, 64, 60
1, 880032, Control_c, 0, 64, 34
1, 880047, Control_c, 0, 64, 0
1, 880068, Note_on_c, 0, 78, 57
1, 880118, Note_off_c, 0, 79, 57
1, 880151, Control_c, 0, 64, 15
1, 880166, Control_c, 0, 64, 54
1, 880181, Control_c, 0, 64, 62
1, 880196, Control_c, 0, 64, 65
1, 880211, Control_c, 0, 64, 67
1, 880225, Control_c, 0, 64, 70
1, 880240, Control_c, 0, 64, 72
1, 880255, Control_c, 0, 64, 73
1, 880373, Control_c, 0, 64, 71
1, 880388, Control_c, 0, 64, 69
1, 880403, Control_c, 0, 64, 65
1, 880417, Control_c, 0, 64, 60
1, 880432, Control_c, 0, 64, 42
1, 880440, Note_on_c, 0, 76, 48
1, 880447, Control_c, 0, 64, 0
1, 880488, Note_off_c, 0, 78, 54
1, 880558, Control_c, 0, 64, 40
1, 880574, Control_c, 0, 64, 58
1, 880589, Control_c, 0, 64, 62
1, 880604, Control_c, 0, 64, 63
1, 880619, Control_c, 0, 64, 64
1, 880634, Control_c, 0, 64, 66
1, 880648, Control_c, 0, 64, 68
1, 880663, Control_c, 0, 64, 71
1, 880678, Control_c, 0, 64, 73
1, 880693, Control_c, 0, 64, 75
1, 880708, Control_c, 0, 64, 76
1, 880722, Control_c, 0, 64, 78
1, 880737, Control_c, 0, 64, 80
1, 880752, Control_c, 0, 64, 81
1, 880766, Control_c, 0, 64, 83
1, 880781, Control_c, 0, 64, 83
1, 880796, Control_c, 0, 64, 84
1, 880944, Control_c, 0, 64, 83
1, 880959, Control_c, 0, 64, 82
1, 880974, Control_c, 0, 64, 81
1, 880989, Control_c, 0, 64, 78
1, 881004, Control_c, 0, 64, 76
1, 881019, Control_c, 0, 64, 73
1, 881019, Note_on_c, 0, 74, 45
1, 881033, Control_c, 0, 64, 71
1, 881048, Control_c, 0, 64, 68
1, 881063, Control_c, 0, 64, 64
1, 881078, Note_off_c, 0, 76, 54
1, 881078, Control_c, 0, 64, 56
1, 881092, Control_c, 0, 64, 15
1, 881107, Control_c, 0, 64, 0
1, 881211, Control_c, 0, 64, 56
1, 881226, Control_c, 0, 64, 64
1, 881240, Control_c, 0, 64, 68
1, 881255, Control_c, 0, 64, 72
1, 881270, Control_c, 0, 64, 76
1, 881292, Control_c, 0, 64, 83
1, 881306, Control_c, 0, 64, 93
1, 881321, Control_c, 0, 64, 112
1, 881336, Control_c, 0, 64, 127
1, 881442, Note_off_c, 0, 55, 42
1, 881465, Note_off_c, 0, 40, 42
1, 881518, Note_off_c, 0, 45, 41
1, 882115, Control_c, 0, 64, 105
1, 882129, Control_c, 0, 64, 95
1, 882138, Note_on_c, 0, 73, 40
1, 882144, Control_c, 0, 64, 88
1, 882159, Control_c, 0, 64, 83
1, 882175, Control_c, 0, 64, 77
1, 882190, Control_c, 0, 64, 72
1, 882205, Control_c, 0, 64, 67
1, 882219, Control_c, 0, 64, 63
1, 882233, Note_off_c, 0, 74, 37
1, 882234, Control_c, 0, 64, 58
1, 882249, Control_c, 0, 64, 48
1, 882264, Control_c, 0, 64, 28
1, 882279, Control_c, 0, 64, 0
1, 882441, Control_c, 0, 64, 23
1, 882456, Control_c, 0, 64, 54
1, 882471, Control_c, 0, 64, 62
1, 882485, Control_c, 0, 64, 65
1, 882500, Control_c, 0, 64, 66
1, 882515, Control_c, 0, 64, 68
1, 882530, Control_c, 0, 64, 72
1, 882545, Control_c, 0, 64, 77
1, 882560, Control_c, 0, 64, 83
1, 882575, Control_c, 0, 64, 88
1, 882590, Control_c, 0, 64, 94
1, 882604, Control_c, 0, 64, 103
1, 882619, Control_c, 0, 64, 127
1, 882755, Note_off_c, 0, 73, 39
1, 883338, Control_c, 0, 64, 121
1, 883353, Control_c, 0, 64, 101
1, 883368, Control_c, 0, 64, 94
1, 883383, Control_c, 0, 64, 90
1, 883397, Control_c, 0, 64, 86
1, 883412, Control_c, 0, 64, 81
1, 883427, Control_c, 0, 64, 75
1, 883442, Control_c, 0, 64, 68
1, 883457, Control_c, 0, 64, 63
1, 883472, Control_c, 0, 64, 57
1, 883486, Control_c, 0, 64, 45
1, 883501, Control_c, 0, 64, 8
1, 883516, Control_c, 0, 64, 0
1, 884643, Control_c, 0, 67, 123
1, 884658, Control_c, 0, 67, 119
1, 884673, Control_c, 0, 67, 115
1, 884687, Control_c, 0, 67, 112
1, 884702, Control_c, 0, 67, 109
1, 884717, Control_c, 0, 67, 106
1, 884731, Control_c, 0, 67, 104
1, 884746, Control_c, 0, 67, 101
1, 884761, Control_c, 0, 67, 99
1, 884776, Control_c, 0, 67, 97
1, 884791, Control_c, 0, 67, 95
1, 884805, Control_c, 0, 67, 93
1, 884820, Control_c, 0, 67, 92
1, 884835, Control_c, 0, 67, 90
1, 884850, Control_c, 0, 67, 88
1, 884865, Control_c, 0, 67, 85
1, 884879, Control_c, 0, 67, 83
1, 884894, Control_c, 0, 67, 81
1, 884909, Control_c, 0, 67, 80
1, 884924, Control_c, 0, 67, 78
1, 884939, Control_c, 0, 67, 77
1, 884953, Control_c, 0, 67, 75
1, 884954, Note_on_c, 0, 69, 38
1, 884966, Note_on_c, 0, 57, 33
1, 884968, Control_c, 0, 67, 73
1, 884983, Control_c, 0, 67, 72
1, 884998, Control_c, 0, 67, 71
1, 885013, Control_c, 0, 67, 70
1, 885035, Control_c, 0, 67, 68
1, 885050, Control_c, 0, 67, 66
1, 885064, Control_c, 0, 67, 64
1, 885079, Control_c, 0, 67, 62
1, 885094, Control_c, 0, 67, 59
1, 885109, Control_c, 0, 67, 57
1, 885124, Control_c, 0, 67, 54
1, 885138, Control_c, 0, 67, 50
1, 885153, Control_c, 0, 67, 47
1, 885168, Control_c, 0, 64, 19
1, 885168, Control_c, 0, 67, 44
1, 885183, Control_c, 0, 64, 24
1, 885183, Control_c, 0, 67, 40
1, 885198, Control_c, 0, 64, 27
1, 885198, Control_c, 0, 67, 38
1, 885213, Control_c, 0, 64, 32
1, 885213, Control_c, 0, 67, 35
1, 885215, Note_on_c, 0, 71, 55
1, 885228, Control_c, 0, 64, 38
1, 885228, Control_c, 0, 67, 32
1, 885234, Note_on_c, 0, 59, 34
1, 885243, Control_c, 0, 64, 42
1, 885243, Control_c, 0, 67, 30
1, 885257, Control_c, 0, 64, 47
1, 885257, Control_c, 0, 67, 27
1, 885272, Control_c, 0, 64, 51
1, 885272, Control_c, 0, 67, 23
1, 885287, Control_c, 0, 64, 54
1, 885287, Control_c, 0, 67, 20
1, 885290, Note_off_c, 0, 57, 42
1, 885302, Control_c, 0, 64, 57
1, 885302, Control_c, 0, 67, 16
1, 885317, Control_c, 0, 64, 60
1, 885317, Control_c, 0, 67, 13
1, 885326, Note_off_c, 0, 69, 50
1, 885331, Control_c, 0, 64, 61
1, 885331, Control_c, 0, 67, 9
1, 885346, Control_c, 0, 64, 63
1, 885346, Control_c, 0, 67, 0
1, 885362, Control_c, 0, 64, 64
1, 885377, Control_c, 0, 64, 65
1, 885392, Control_c, 0, 64, 66
1, 885402, Note_on_c, 0, 73, 66
1, 885407, Control_c, 0, 64, 68
1, 885413, Note_off_c, 0, 59, 54
1, 885421, Control_c, 0, 64, 72
1, 885423, Note_on_c, 0, 61, 46
1, 885436, Control_c, 0, 64, 75
1, 885451, Control_c, 0, 64, 79
1, 885462, Note_off_c, 0, 71, 57
1, 885466, Control_c, 0, 64, 82
1, 885481, Control_c, 0, 64, 86
1, 885496, Control_c, 0, 64, 93
1, 885510, Control_c, 0, 64, 110
1, 885525, Control_c, 0, 64, 127
1, 885527, Note_off_c, 0, 61, 55
1, 885616, Note_off_c, 0, 73, 36
1, 885738, Note_on_c, 0, 74, 62
1, 885809, Note_on_c, 0, 62, 40
1, 885830, Note_on_c, 0, 50, 35
1, 885831, Note_on_c, 0, 54, 32
1, 885844, Control_c, 0, 64, 110
1, 885853, Note_off_c, 0, 62, 0
1, 885853, Note_on_c, 0, 62, 8
1, 885859, Control_c, 0, 64, 97
1, 885874, Control_c, 0, 64, 88
1, 885888, Control_c, 0, 64, 82
1, 885903, Control_c, 0, 64, 76
1, 885918, Control_c, 0, 64, 70
1, 885933, Control_c, 0, 64, 63
1, 885948, Control_c, 0, 64, 54
1, 885962, Control_c, 0, 64, 37
1, 885977, Control_c, 0, 64, 0
1, 886095, Control_c, 0, 64, 51
1, 886110, Control_c, 0, 64, 63
1, 886125, Control_c, 0, 64, 67
1, 886140, Control_c, 0, 64, 69
1, 886156, Control_c, 0, 64, 72
1, 886171, Control_c, 0, 64, 78
1, 886185, Control_c, 0, 64, 84
1, 886200, Control_c, 0, 64, 88
1, 886215, Control_c, 0, 64, 90
1, 886230, Control_c, 0, 64, 92
1, 886245, Control_c, 0, 64, 92
1, 886259, Control_c, 0, 64, 93
1, 886274, Control_c, 0, 64, 94
1, 886274, Control_c, 0, 67, 11
1, 886289, Control_c, 0, 64, 95
1, 886289, Control_c, 0, 67, 18
1, 886304, Control_c, 0, 64, 97
1, 886304, Control_c, 0, 67, 27
1, 886319, Control_c, 0, 64, 99
1, 886319, Control_c, 0, 67, 35
1, 886334, Control_c, 0, 64, 99
1, 886334, Control_c, 0, 67, 41
1, 886337, Note_off_c, 0, 50, 37
1, 886349, Control_c, 0, 67, 45
1, 886363, Control_c, 0, 67, 48
1, 886378, Control_c, 0, 67, 52
1, 886393, Control_c, 0, 67, 57
1, 886408, Control_c, 0, 67, 62
1, 886423, Control_c, 0, 67, 67
1, 886438, Control_c, 0, 67, 72
1, 886452, Control_c, 0, 67, 77
1, 886467, Control_c, 0, 67, 82
1, 886482, Control_c, 0, 67, 88
1, 886496, Control_c, 0, 67, 93
1, 886511, Control_c, 0, 67, 98
1, 886533, Control_c, 0, 67, 102
1, 886548, Control_c, 0, 67, 107
1, 886563, Control_c, 0, 67, 112
1, 886578, Control_c, 0, 67, 116
1, 886593, Control_c, 0, 67, 121
1, 886608, Control_c, 0, 67, 124
1, 886614, Note_off_c, 0, 74, 60
1, 886623, Control_c, 0, 67, 127
1, 886638, Control_c, 0, 67, 127
1, 886653, Note_on_c, 0, 73, 48
1, 886657, Note_off_c, 0, 62, 40
1, 886665, Note_on_c, 0, 61, 41
1, 886741, Note_off_c, 0, 73, 56
1, 886752, Note_on_c, 0, 74, 49
1, 886763, Note_off_c, 0, 61, 36
1, 886776, Note_on_c, 0, 62, 46
1, 886815, Note_off_c, 0, 74, 61
1, 886816, Note_off_c, 0, 62, 49
1, 886829, Note_on_c, 0, 78, 69
1, 886847, Note_on_c, 0, 66, 50
1, 886889, Control_c, 0, 67, 127
1, 886894, Note_off_c, 0, 66, 61
1, 886903, Control_c, 0, 67, 126
1, 886918, Control_c, 0, 67, 125
1, 886924, Note_on_c, 0, 62, 54
1, 886925, Note_on_c, 0, 74, 60
1, 886933, Note_off_c, 0, 78, 52
1, 886933, Control_c, 0, 67, 125
1, 886948, Control_c, 0, 67, 124
1, 886964, Control_c, 0, 64, 99
1, 886964, Control_c, 0, 67, 123
1, 886975, Note_off_c, 0, 62, 54
1, 886979, Control_c, 0, 67, 123
1, 886994, Control_c, 0, 64, 98
1, 886994, Control_c, 0, 67, 121
1, 886998, Note_on_c, 0, 73, 68
1, 887008, Control_c, 0, 64, 98
1, 887008, Control_c, 0, 67, 120
1, 887023, Control_c, 0, 64, 97
1, 887023, Control_c, 0, 67, 119
1, 887028, Note_on_c, 0, 61, 49
1, 887038, Control_c, 0, 64, 96
1, 887038, Control_c, 0, 67, 118
1, 887050, Note_off_c, 0, 74, 34
1, 887053, Control_c, 0, 64, 95
1, 887053, Control_c, 0, 67, 117
1, 887054, Note_off_c, 0, 61, 59
1, 887068, Control_c, 0, 64, 95
1, 887068, Control_c, 0, 67, 117
1, 887082, Control_c, 0, 64, 94
1, 887082, Control_c, 0, 67, 115
1, 887088, Note_off_c, 0, 54, 48
1, 887088, Note_off_c, 0, 73, 58
1, 887097, Note_on_c, 0, 71, 65
1, 887097, Control_c, 0, 64, 93
1, 887097, Control_c, 0, 67, 113
1, 887112, Control_c, 0, 64, 92
1, 887112, Control_c, 0, 67, 112
1, 887114, Note_on_c, 0, 59, 56
1, 887127, Control_c, 0, 64, 90
1, 887127, Control_c, 0, 67, 110
1, 887141, Control_c, 0, 64, 89
1, 887141, Control_c, 0, 67, 109
1, 887156, Control_c, 0, 64, 87
1, 887156, Control_c, 0, 67, 106
1, 887171, Control_c, 0, 64, 84
1, 887171, Control_c, 0, 67, 103
1, 887186, Control_c, 0, 64, 81
1, 887186, Control_c, 0, 67, 99
1, 887201, Control_c, 0, 64, 78
1, 887201, Control_c, 0, 67, 96
1, 887216, Control_c, 0, 64, 75
1, 887216, Control_c, 0, 67, 95
1, 887231, Control_c, 0, 64, 72
1, 887231, Control_c, 0, 67, 94
1, 887246, Control_c, 0, 64, 70
1, 887246, Control_c, 0, 67, 94
1, 887260, Control_c, 0, 64, 67
1, 887260, Control_c, 0, 67, 93
1, 887270, Note_on_c, 0, 69, 60
1, 887282, Control_c, 0, 64, 65
1, 887282, Control_c, 0, 67, 93
1, 887297, Control_c, 0, 64, 63
1, 887297, Control_c, 0, 67, 91
1, 887302, Note_off_c, 0, 71, 59
1, 887312, Control_c, 0, 64, 60
1, 887312, Control_c, 0, 67, 89
1, 887326, Control_c, 0, 64, 58
1, 887326, Control_c, 0, 67, 88
1, 887330, Note_on_c, 0, 49, 35
1, 887330, Note_on_c, 0, 57, 38
1, 887333, Note_on_c, 0, 52, 33
1, 887341, Control_c, 0, 64, 54
1, 887341, Control_c, 0, 67, 87
1, 887356, Control_c, 0, 64, 49
1, 887356, Control_c, 0, 67, 87
1, 887371, Control_c, 0, 64, 37
1, 887386, Control_c, 0, 64, 0
1, 887398, Note_off_c, 0, 59, 57
1, 887416, Control_c, 0, 67, 87
1, 887445, Control_c, 0, 67, 88
1, 887490, Control_c, 0, 67, 88
1, 887505, Control_c, 0, 67, 89
1, 887549, Control_c, 0, 67, 89
1, 887564, Control_c, 0, 67, 90
1, 887579, Control_c, 0, 67, 90
1, 887594, Control_c, 0, 67, 91
1, 887608, Control_c, 0, 67, 91
1, 887623, Control_c, 0, 67, 92
1, 887652, Control_c, 0, 67, 92
1, 887667, Control_c, 0, 67, 93
1, 887712, Control_c, 0, 67, 93
1, 887726, Control_c, 0, 67, 94
1, 887741, Control_c, 0, 67, 94
1, 887757, Control_c, 0, 64, 25
1, 887757, Control_c, 0, 67, 95
1, 887772, Control_c, 0, 64, 35
1, 887772, Control_c, 0, 67, 95
1, 887787, Control_c, 0, 64, 42
1, 887787, Control_c, 0, 67, 96
1, 887802, Control_c, 0, 64, 48
1, 887817, Control_c, 0, 64, 53
1, 887817, Control_c, 0, 67, 96
1, 887831, Control_c, 0, 64, 57
1, 887846, Control_c, 0, 64, 60
1, 887846, Control_c, 0, 67, 97
1, 887861, Control_c, 0, 64, 62
1, 887875, Control_c, 0, 64, 63
1, 887875, Control_c, 0, 67, 97
1, 887890, Control_c, 0, 67, 98
1, 887905, Control_c, 0, 67, 98
1, 887920, Control_c, 0, 67, 99
1, 887935, Control_c, 0, 67, 100
1, 887949, Control_c, 0, 64, 63
1, 887949, Control_c, 0, 67, 101
1, 887964, Control_c, 0, 67, 103
1, 887979, Control_c, 0, 67, 105
1, 887994, Control_c, 0, 67, 108
1, 888009, Control_c, 0, 67, 111
1, 888031, Control_c, 0, 64, 62
1, 888031, Control_c, 0, 67, 113
1, 888036, Note_off_c, 0, 69, 63
1, 888045, Control_c, 0, 67, 115
1, 888060, Control_c, 0, 67, 118
1, 888062, Note_on_c, 0, 68, 53
1, 888063, Note_off_c, 0, 57, 56
1, 888075, Control_c, 0, 67, 120
1, 888079, Note_on_c, 0, 56, 42
1, 888089, Control_c, 0, 67, 122
1, 888104, Control_c, 0, 67, 123
1, 888119, Control_c, 0, 67, 124
1, 888134, Note_off_c, 0, 56, 61
1, 888134, Control_c, 0, 67, 124
1, 888147, Note_off_c, 0, 68, 61
1, 888149, Control_c, 0, 67, 125
1, 888157, Note_on_c, 0, 69, 55
1, 888164, Control_c, 0, 67, 125
1, 888179, Control_c, 0, 64, 62
1, 888179, Control_c, 0, 67, 126
1, 888185, Note_on_c, 0, 57, 45
1, 888194, Control_c, 0, 67, 127
1, 888209, Control_c, 0, 67, 127
1, 888240, Note_on_c, 0, 70, 59
1, 888240, Note_off_c, 0, 57, 57
1, 888270, Note_on_c, 0, 58, 49
1, 888282, Control_c, 0, 64, 61
1, 888318, Note_off_c, 0, 69, 24
1, 888318, Note_off_c, 0, 70, 63
1, 888325, Note_off_c, 0, 58, 52
1, 888340, Note_on_c, 0, 73, 60
1, 888353, Note_on_c, 0, 61, 44
1, 888378, Note_off_c, 0, 61, 56
1, 888386, Control_c, 0, 64, 61
1, 888401, Control_c, 0, 64, 60
1, 888416, Control_c, 0, 64, 60
1, 888417, Note_on_c, 0, 71, 59
1, 888430, Control_c, 0, 64, 59
1, 888435, Note_on_c, 0, 59, 47
1, 888436, Note_off_c, 0, 49, 52
1, 888445, Control_c, 0, 64, 59
1, 888446, Note_off_c, 0, 73, 59
1, 888460, Control_c, 0, 64, 58
1, 888474, Control_c, 0, 64, 56
1, 888484, Note_off_c, 0, 71, 60
1, 888489, Control_c, 0, 64, 54
1, 888498, Note_off_c, 0, 52, 38
1, 888504, Control_c, 0, 64, 52
1, 888506, Note_on_c, 0, 67, 60
1, 888519, Control_c, 0, 64, 50
1, 888534, Control_c, 0, 64, 48
1, 888547, Note_on_c, 0, 55, 40
1, 888550, Control_c, 0, 64, 45
1, 888563, Note_off_c, 0, 59, 37
1, 888565, Control_c, 0, 64, 40
1, 888579, Control_c, 0, 64, 33
1, 888594, Control_c, 0, 64, 24
1, 888609, Control_c, 0, 64, 0
1, 888658, Note_on_c, 0, 66, 58
1, 888659, Note_off_c, 0, 67, 54
1, 888667, Note_on_c, 0, 50, 20
1, 888680, Note_off_c, 0, 55, 47
1, 888692, Note_on_c, 0, 54, 33
1, 888778, Note_off_c, 0, 66, 61
1, 888803, Note_on_c, 0, 67, 52
1, 888869, Note_off_c, 0, 67, 60
1, 888885, Note_on_c, 0, 66, 54
1, 888914, Note_off_c, 0, 66, 60
1, 888933, Note_on_c, 0, 64, 62
1, 888981, Note_off_c, 0, 64, 52
1, 888994, Note_on_c, 0, 66, 62
1, 889058, Note_on_c, 0, 67, 63
1, 889059, Note_off_c, 0, 50, 51
1, 889062, Note_off_c, 0, 54, 54
1, 889079, Note_on_c, 0, 52, 44
1, 889080, Note_on_c, 0, 55, 42
1, 889080, Note_off_c, 0, 66, 60
1, 889207, Note_off_c, 0, 55, 61
1, 889217, Note_on_c, 0, 69, 65
1, 889232, Note_on_c, 0, 57, 42
1, 889235, Note_on_c, 0, 54, 40
1, 889235, Note_off_c, 0, 52, 64
1, 889249, Note_off_c, 0, 67, 61
1, 889313, Control_c, 0, 64, 44
1, 889328, Control_c, 0, 64, 61
1, 889344, Control_c, 0, 64, 66
1, 889359, Control_c, 0, 64, 69
1, 889374, Control_c, 0, 64, 77
1, 889389, Control_c, 0, 64, 88
1, 889403, Control_c, 0, 64, 103
1, 889418, Control_c, 0, 64, 127
1, 889447, Note_off_c, 0, 54, 62
1, 889662, Control_c, 0, 64, 116
1, 889677, Control_c, 0, 64, 104
1, 889692, Control_c, 0, 64, 96
1, 889699, Note_on_c, 0, 71, 59
1, 889707, Control_c, 0, 64, 87
1, 889715, Note_off_c, 0, 57, 45
1, 889722, Control_c, 0, 64, 77
1, 889723, Note_on_c, 0, 55, 39
1, 889724, Note_on_c, 0, 59, 43
1, 889734, Note_on_c, 0, 52, 43
1, 889736, Control_c, 0, 64, 65
1, 889751, Control_c, 0, 64, 8
1, 889766, Control_c, 0, 64, 0
1, 889777, Note_off_c, 0, 69, 59
1, 889854, Control_c, 0, 64, 40
1, 889869, Control_c, 0, 64, 59
1, 889884, Control_c, 0, 64, 63
1, 889884, Control_c, 0, 67, 126
1, 889893, Note_on_c, 0, 73, 70
1, 889896, Note_off_c, 0, 59, 62
1, 889899, Control_c, 0, 64, 65
1, 889899, Control_c, 0, 67, 117
1, 889907, Note_off_c, 0, 55, 64
1, 889914, Control_c, 0, 64, 66
1, 889914, Control_c, 0, 67, 109
1, 889918, Note_on_c, 0, 61, 47
1, 889929, Control_c, 0, 64, 69
1, 889929, Control_c, 0, 67, 105
1, 889934, Note_off_c, 0, 71, 61
1, 889941, Note_off_c, 0, 52, 65
1, 889943, Control_c, 0, 64, 74
1, 889943, Control_c, 0, 67, 101
1, 889958, Control_c, 0, 64, 77
1, 889958, Control_c, 0, 67, 99
1, 889973, Control_c, 0, 64, 81
1, 889973, Control_c, 0, 67, 96
1, 889988, Control_c, 0, 64, 85
1, 889988, Control_c, 0, 67, 92
1, 890003, Control_c, 0, 64, 89
1, 890003, Control_c, 0, 67, 89
1, 890009, Note_off_c, 0, 61, 50
1, 890018, Control_c, 0, 64, 91
1, 890018, Control_c, 0, 67, 85
1, 890033, Control_c, 0, 64, 92
1, 890033, Control_c, 0, 67, 83
1, 890044, Note_off_c, 0, 73, 56
1, 890047, Control_c, 0, 67, 81
1, 890062, Control_c, 0, 67, 80
1, 890092, Control_c, 0, 67, 79
1, 890121, Control_c, 0, 67, 79
1, 890136, Control_c, 0, 67, 78
1, 890152, Control_c, 0, 67, 77
1, 890167, Control_c, 0, 64, 92
1, 890167, Control_c, 0, 67, 76
1, 890182, Control_c, 0, 67, 74
1, 890197, Control_c, 0, 64, 91
1, 890197, Control_c, 0, 67, 73
1, 890212, Control_c, 0, 64, 90
1, 890212, Control_c, 0, 67, 72
1, 890226, Control_c, 0, 64, 87
1, 890226, Control_c, 0, 67, 71
1, 890230, Note_on_c, 0, 73, 54
1, 890241, Control_c, 0, 64, 84
1, 890241, Control_c, 0, 67, 70
1, 890256, Control_c, 0, 64, 79
1, 890256, Control_c, 0, 67, 69
1, 890257, Note_on_c, 0, 61, 36
1, 890277, Control_c, 0, 64, 75
1, 890277, Control_c, 0, 67, 69
1, 890283, Note_on_c, 0, 55, 27
1, 890292, Control_c, 0, 64, 69
1, 890298, Note_on_c, 0, 50, 29
1, 890307, Control_c, 0, 64, 63
1, 890321, Note_on_c, 0, 52, 29
1, 890322, Control_c, 0, 64, 45
1, 890337, Control_c, 0, 64, 0
1, 890337, Control_c, 0, 67, 68
1, 890352, Control_c, 0, 67, 68
1, 890411, Control_c, 0, 67, 67
1, 890426, Control_c, 0, 67, 67
1, 890441, Control_c, 0, 64, 53
1, 890456, Control_c, 0, 64, 63
1, 890456, Control_c, 0, 67, 66
1, 890471, Control_c, 0, 64, 65
1, 890471, Control_c, 0, 67, 62
1, 890485, Control_c, 0, 64, 66
1, 890485, Control_c, 0, 67, 59
1, 890500, Control_c, 0, 64, 69
1, 890500, Control_c, 0, 67, 56
1, 890515, Control_c, 0, 64, 73
1, 890515, Control_c, 0, 67, 55
1, 890530, Control_c, 0, 64, 79
1, 890530, Control_c, 0, 67, 53
1, 890545, Control_c, 0, 64, 83
1, 890559, Control_c, 0, 64, 86
1, 890559, Control_c, 0, 67, 53
1, 890574, Control_c, 0, 64, 91
1, 890589, Control_c, 0, 64, 95
1, 890599, Note_off_c, 0, 61, 46
1, 890604, Control_c, 0, 64, 101
1, 890619, Control_c, 0, 64, 109
1, 890633, Control_c, 0, 64, 118
1, 890633, Control_c, 0, 67, 53
1, 890640, Note_off_c, 0, 52, 39
1, 890648, Control_c, 0, 64, 127
1, 890648, Control_c, 0, 67, 54
1, 890677, Control_c, 0, 67, 54
1, 890692, Control_c, 0, 64, 114
1, 890692, Control_c, 0, 67, 55
1, 890707, Control_c, 0, 64, 85
1, 890715, Note_off_c, 0, 55, 40
1, 890722, Control_c, 0, 64, 70
1, 890737, Control_c, 0, 64, 62
1, 890751, Control_c, 0, 64, 58
1, 890766, Control_c, 0, 64, 61
1, 890768, Note_on_c, 0, 74, 45
1, 890769, Note_off_c, 0, 73, 57
1, 890772, Note_on_c, 0, 62, 37
1, 890773, Note_on_c, 0, 54, 39
1, 890781, Control_c, 0, 64, 64
1, 890796, Control_c, 0, 64, 66
1, 890811, Control_c, 0, 64, 70
1, 890811, Control_c, 0, 67, 55
1, 890826, Control_c, 0, 64, 72
1, 890826, Control_c, 0, 67, 56
1, 890841, Control_c, 0, 67, 56
1, 890856, Control_c, 0, 67, 57
1, 890859, Note_off_c, 0, 50, 37
1, 890863, Note_off_c, 0, 54, 60
1, 890870, Control_c, 0, 67, 58
1, 890885, Control_c, 0, 67, 59
1, 890900, Control_c, 0, 67, 60
1, 890902, Note_off_c, 0, 74, 61
1, 890915, Control_c, 0, 67, 61
1, 890930, Control_c, 0, 64, 69
1, 890930, Control_c, 0, 67, 62
1, 890945, Control_c, 0, 64, 63
1, 890945, Control_c, 0, 67, 63
1, 890948, Note_off_c, 0, 62, 49
1, 890960, Control_c, 0, 64, 48
1, 890960, Control_c, 0, 67, 63
1, 890975, Control_c, 0, 64, 0
1, 890975, Control_c, 0, 67, 64
1, 890990, Control_c, 0, 67, 65
1, 891013, Note_on_c, 0, 74, 56
1, 891027, Control_c, 0, 64, 28
1, 891027, Control_c, 0, 67, 65
1, 891042, Control_c, 0, 64, 39
1, 891042, Control_c, 0, 67, 66
1, 891050, Note_on_c, 0, 62, 51
1, 891056, Control_c, 0, 64, 41
1, 891071, Control_c, 0, 64, 40
1, 891071, Control_c, 0, 67, 67
1, 891086, Control_c, 0, 64, 41
1, 891086, Control_c, 0, 67, 69
1, 891100, Control_c, 0, 64, 42
1, 891100, Control_c, 0, 67, 70
1, 891115, Control_c, 0, 64, 42
1, 891115, Control_c, 0, 67, 71
1, 891117, Note_off_c, 0, 62, 62
1, 891120, Note_on_c, 0, 78, 64
1, 891127, Note_on_c, 0, 66, 58
1, 891133, Note_off_c, 0, 74, 54
1, 891145, Control_c, 0, 64, 42
1, 891152, Note_off_c, 0, 66, 68
1, 891160, Control_c, 0, 64, 40
1, 891166, Note_off_c, 0, 78, 59
1, 891175, Control_c, 0, 64, 39
1, 891189, Control_c, 0, 64, 38
1, 891204, Control_c, 0, 64, 36
1, 891219, Control_c, 0, 64, 35
1, 891225, Note_on_c, 0, 66, 63
1, 891228, Note_on_c, 0, 78, 53
1, 891234, Control_c, 0, 64, 31
1, 891249, Control_c, 0, 64, 19
1, 891264, Control_c, 0, 64, 0
1, 891280, Note_off_c, 0, 66, 59
1, 891306, Note_on_c, 0, 81, 64
1, 891308, Control_c, 0, 67, 70
1, 891323, Control_c, 0, 67, 70
1, 891324, Note_off_c, 0, 78, 58
1, 891324, Note_on_c, 0, 69, 53
1, 891397, Control_c, 0, 64, 34
1, 891400, Note_off_c, 0, 69, 60
1, 891405, Note_on_c, 0, 79, 67
1, 891412, Control_c, 0, 64, 57
1, 891415, Note_on_c, 0, 67, 40
1, 891415, Note_off_c, 0, 81, 53
1, 891426, Control_c, 0, 64, 63
1, 891426, Control_c, 0, 67, 71
1, 891441, Control_c, 0, 64, 66
1, 891441, Control_c, 0, 67, 71
1, 891456, Control_c, 0, 64, 70
1, 891456, Control_c, 0, 67, 72
1, 891471, Control_c, 0, 64, 76
1, 891471, Control_c, 0, 67, 73
1, 891479, Note_off_c, 0, 79, 61
1, 891486, Control_c, 0, 64, 82
1, 891486, Control_c, 0, 67, 74
1, 891491, Note_off_c, 0, 67, 58
1, 891495, Note_on_c, 0, 66, 64
1, 891495, Note_on_c, 0, 78, 63
1, 891500, Control_c, 0, 64, 87
1, 891500, Control_c, 0, 67, 76
1, 891515, Control_c, 0, 64, 92
1, 891515, Control_c, 0, 67, 79
1, 891522, Note_off_c, 0, 78, 62
1, 891530, Control_c, 0, 64, 97
1, 891530, Control_c, 0, 67, 81
1, 891542, Note_off_c, 0, 66, 64
1, 891545, Control_c, 0, 64, 99
1, 891545, Control_c, 0, 67, 83
1, 891560, Control_c, 0, 67, 85
1, 891574, Control_c, 0, 67, 87
1, 891589, Control_c, 0, 67, 89
1, 891604, Control_c, 0, 67, 92
1, 891619, Control_c, 0, 67, 93
1, 891634, Control_c, 0, 67, 95
1, 891649, Control_c, 0, 67, 96
1, 891663, Control_c, 0, 67, 98
1, 891678, Control_c, 0, 67, 99
1, 891693, Control_c, 0, 67, 102
1, 891708, Control_c, 0, 64, 98
1, 891708, Control_c, 0, 67, 104
1, 891723, Control_c, 0, 64, 96
1, 891723, Control_c, 0, 67, 106
1, 891735, Note_on_c, 0, 78, 73
1, 891738, Control_c, 0, 64, 93
1, 891738, Control_c, 0, 67, 107
1, 891753, Control_c, 0, 64, 90
1, 891753, Control_c, 0, 67, 108
1, 891759, Note_on_c, 0, 66, 54
1, 891776, Control_c, 0, 64, 87
1, 891790, Control_c, 0, 64, 83
1, 891790, Control_c, 0, 67, 108
1, 891804, Control_c, 0, 64, 80
1, 891804, Control_c, 0, 67, 109
1, 891805, Note_on_c, 0, 57, 37
1, 891817, Note_on_c, 0, 55, 37
1, 891819, Control_c, 0, 64, 77
1, 891834, Control_c, 0, 64, 74
1, 891848, Control_c, 0, 64, 71
1, 891863, Control_c, 0, 64, 68
1, 891878, Control_c, 0, 64, 65
1, 891878, Control_c, 0, 67, 109
1, 891893, Control_c, 0, 64, 60
1, 891893, Control_c, 0, 67, 110
1, 891908, Control_c, 0, 64, 45
1, 891923, Control_c, 0, 64, 0
1, 891968, Control_c, 0, 67, 110
1, 891982, Control_c, 0, 67, 111
1, 891997, Control_c, 0, 67, 112
1, 892012, Control_c, 0, 67, 113
1, 892027, Control_c, 0, 67, 114
1, 892041, Control_c, 0, 67, 115
1, 892175, Control_c, 0, 67, 114
1, 892204, Control_c, 0, 67, 113
1, 892219, Control_c, 0, 67, 113
1, 892234, Control_c, 0, 67, 112
1, 892248, Control_c, 0, 67, 112
1, 892278, Control_c, 0, 67, 111
1, 892293, Control_c, 0, 67, 111
1, 892308, Control_c, 0, 67, 110
1, 892322, Control_c, 0, 67, 110
1, 892337, Control_c, 0, 67, 109
1, 892352, Control_c, 0, 64, 32
1, 892352, Control_c, 0, 67, 108
1, 892362, Note_on_c, 0, 76, 47
1, 892367, Control_c, 0, 64, 57
1, 892367, Control_c, 0, 67, 108
1, 892376, Note_off_c, 0, 78, 58
1, 892380, Note_on_c, 0, 64, 40
1, 892382, Control_c, 0, 64, 64
1, 892388, Note_off_c, 0, 57, 59
1, 892397, Control_c, 0, 64, 68
1, 892411, Note_off_c, 0, 66, 44
1, 892412, Control_c, 0, 64, 74
1, 892412, Control_c, 0, 67, 107
1, 892427, Control_c, 0, 64, 81
1, 892436, Note_off_c, 0, 64, 56
1, 892440, Note_off_c, 0, 55, 42
1, 892441, Control_c, 0, 64, 86
1, 892441, Control_c, 0, 67, 107
1, 892454, Note_off_c, 0, 76, 56
1, 892456, Control_c, 0, 64, 89
1, 892471, Control_c, 0, 64, 90
1, 892471, Control_c, 0, 67, 107
1, 892486, Control_c, 0, 67, 108
1, 892501, Control_c, 0, 67, 108
1, 892522, Control_c, 0, 67, 109
1, 892538, Control_c, 0, 64, 88
1, 892538, Control_c, 0, 67, 110
1, 892554, Control_c, 0, 64, 82
1, 892554, Control_c, 0, 67, 111
1, 892569, Control_c, 0, 64, 74
1, 892569, Control_c, 0, 67, 111
1, 892584, Control_c, 0, 64, 68
1, 892599, Control_c, 0, 64, 62
1, 892599, Control_c, 0, 67, 112
1, 892614, Control_c, 0, 64, 53
1, 892619, Note_on_c, 0, 71, 48
1, 892623, Note_on_c, 0, 59, 42
1, 892628, Control_c, 0, 64, 36
1, 892643, Control_c, 0, 64, 24
1, 892658, Control_c, 0, 64, 18
1, 892672, Control_c, 0, 64, 14
1, 892672, Control_c, 0, 67, 112
1, 892687, Control_c, 0, 64, 10
1, 892702, Control_c, 0, 64, 0
1, 892702, Control_c, 0, 67, 113
1, 892706, Note_on_c, 0, 73, 58
1, 892710, Note_off_c, 0, 59, 59
1, 892716, Note_off_c, 0, 71, 59
1, 892720, Note_on_c, 0, 61, 53
1, 892757, Note_off_c, 0, 61, 63
1, 892788, Note_off_c, 0, 73, 62
1, 892799, Note_on_c, 0, 74, 61
1, 892812, Note_on_c, 0, 62, 44
1, 892835, Control_c, 0, 67, 113
1, 892880, Control_c, 0, 67, 114
1, 892881, Note_on_c, 0, 61, 52
1, 892892, Note_on_c, 0, 73, 58
1, 892919, Note_off_c, 0, 62, 36
1, 892922, Note_off_c, 0, 74, 41
1, 892969, Note_on_c, 0, 71, 61
1, 892984, Note_on_c, 0, 59, 47
1, 892995, Note_off_c, 0, 61, 49
1, 893020, Note_off_c, 0, 73, 54
1, 893046, Note_off_c, 0, 71, 61
1, 893055, Note_on_c, 0, 69, 65
1, 893060, Note_off_c, 0, 59, 61
1, 893062, Note_on_c, 0, 57, 59
1, 893108, Note_off_c, 0, 57, 58
1, 893110, Note_off_c, 0, 69, 60
1, 893117, Control_c, 0, 67, 113
1, 893132, Control_c, 0, 67, 113
1, 893146, Control_c, 0, 67, 112
1, 893161, Control_c, 0, 67, 110
1, 893176, Control_c, 0, 67, 110
1, 893190, Control_c, 0, 67, 109
1, 893250, Control_c, 0, 67, 108
1, 893269, Note_on_c, 0, 76, 64
1, 893287, Control_c, 0, 67, 108
1, 893291, Note_on_c, 0, 64, 34
1, 893298, Note_on_c, 0, 57, 6
1, 893302, Control_c, 0, 67, 107
1, 893315, Note_on_c, 0, 54, 32
1, 893317, Control_c, 0, 67, 106
1, 893332, Control_c, 0, 67, 105
1, 893348, Control_c, 0, 67, 104
1, 893363, Control_c, 0, 67, 104
1, 893377, Control_c, 0, 67, 103
1, 893407, Control_c, 0, 64, 29
1, 893407, Control_c, 0, 67, 102
1, 893422, Control_c, 0, 64, 58
1, 893422, Control_c, 0, 67, 101
1, 893437, Control_c, 0, 64, 64
1, 893437, Control_c, 0, 67, 100
1, 893451, Control_c, 0, 64, 65
1, 893451, Control_c, 0, 67, 98
1, 893466, Control_c, 0, 64, 66
1, 893466, Control_c, 0, 67, 96
1, 893481, Control_c, 0, 64, 68
1, 893481, Control_c, 0, 67, 95
1, 893495, Control_c, 0, 64, 70
1, 893495, Control_c, 0, 67, 93
1, 893510, Control_c, 0, 64, 71
1, 893510, Control_c, 0, 67, 91
1, 893525, Control_c, 0, 64, 72
1, 893525, Control_c, 0, 67, 89
1, 893540, Control_c, 0, 64, 72
1, 893540, Control_c, 0, 67, 88
1, 893555, Control_c, 0, 67, 86
1, 893569, Control_c, 0, 67, 85
1, 893584, Control_c, 0, 67, 84
1, 893599, Control_c, 0, 67, 83
1, 893614, Control_c, 0, 67, 81
1, 893628, Control_c, 0, 67, 80
1, 893643, Control_c, 0, 67, 78
1, 893658, Control_c, 0, 67, 77
1, 893673, Control_c, 0, 67, 77
1, 893688, Control_c, 0, 64, 72
1, 893717, Control_c, 0, 64, 71
1, 893732, Control_c, 0, 67, 77
1, 893747, Control_c, 0, 64, 71
1, 893747, Control_c, 0, 67, 78
1, 893777, Control_c, 0, 64, 70
1, 893783, Note_on_c, 0, 74, 44
1, 893790, Note_off_c, 0, 64, 42
1, 893792, Control_c, 0, 64, 69
1, 893792, Control_c, 0, 67, 78
1, 893795, Note_on_c, 0, 62, 43
1, 893807, Control_c, 0, 64, 69
1, 893813, Note_off_c, 0, 76, 55
1, 893821, Control_c, 0, 64, 68
1, 893821, Control_c, 0, 67, 79
1, 893830, Note_off_c, 0, 62, 62
1, 893836, Control_c, 0, 64, 67
1, 893836, Control_c, 0, 67, 79
1, 893843, Note_off_c, 0, 57, 49
1, 893850, Note_off_c, 0, 74, 59
1, 893851, Control_c, 0, 64, 66
1, 893851, Control_c, 0, 67, 80
1, 893866, Control_c, 0, 64, 65
1, 893866, Control_c, 0, 67, 81
1, 893878, Note_off_c, 0, 54, 57
1, 893881, Control_c, 0, 64, 65
1, 893881, Control_c, 0, 67, 81
1, 893895, Control_c, 0, 64, 64
1, 893895, Control_c, 0, 67, 82
1, 893910, Control_c, 0, 64, 63
1, 893910, Control_c, 0, 67, 82
1, 893925, Control_c, 0, 64, 62
1, 893925, Control_c, 0, 67, 83
1, 893940, Control_c, 0, 64, 62
1, 893940, Control_c, 0, 67, 83
1, 893955, Control_c, 0, 64, 61
1, 893955, Control_c, 0, 67, 84
1, 893969, Control_c, 0, 64, 59
1, 893969, Control_c, 0, 67, 84
1, 893984, Control_c, 0, 64, 56
1, 893984, Control_c, 0, 67, 85
1, 893999, Note_on_c, 0, 54, 52
1, 893999, Control_c, 0, 64, 51
1, 893999, Control_c, 0, 67, 85
1, 894003, Note_on_c, 0, 69, 55
1, 894008, Note_on_c, 0, 57, 52
1, 894021, Control_c, 0, 64, 45
1, 894021, Control_c, 0, 67, 86
1, 894036, Control_c, 0, 64, 41
1, 894051, Control_c, 0, 64, 39
1, 894051, Control_c, 0, 67, 86
1, 894066, Control_c, 0, 64, 38
1, 894069, Note_off_c, 0, 69, 60
1, 894075, Note_off_c, 0, 54, 62
1, 894081, Control_c, 0, 64, 38
1, 894081, Control_c, 0, 67, 87
1, 894086, Note_off_c, 0, 57, 59
1, 894095, Control_c, 0, 64, 36
1, 894105, Note_on_c, 0, 74, 54
1, 894110, Control_c, 0, 64, 34
1, 894125, Control_c, 0, 64, 34
1, 894125, Control_c, 0, 67, 87
1, 894143, Note_off_c, 0, 74, 63
1, 894170, Control_c, 0, 67, 88
1, 894206, Note_on_c, 0, 57, 57
1, 894208, Note_on_c, 0, 62, 63
1, 894215, Control_c, 0, 64, 34
1, 894217, Note_on_c, 0, 74, 55
1, 894230, Control_c, 0, 64, 36
1, 894230, Control_c, 0, 67, 88
1, 894244, Control_c, 0, 64, 36
1, 894244, Control_c, 0, 67, 89
1, 894253, Note_off_c, 0, 62, 59
1, 894257, Note_off_c, 0, 57, 58
1, 894274, Control_c, 0, 67, 89
1, 894284, Note_off_c, 0, 74, 47
1, 894304, Control_c, 0, 64, 35
1, 894304, Control_c, 0, 67, 90
1, 894306, Note_on_c, 0, 78, 64
1, 894318, Control_c, 0, 64, 34
1, 894333, Control_c, 0, 64, 34
1, 894333, Control_c, 0, 67, 90
1, 894339, Note_off_c, 0, 78, 62
1, 894363, Control_c, 0, 64, 33
1, 894389, Note_on_c, 0, 62, 58
1, 894390, Note_on_c, 0, 66, 59
1, 894392, Control_c, 0, 67, 91
1, 894395, Note_on_c, 0, 78, 56
1, 894425, Note_off_c, 0, 62, 61
1, 894426, Note_off_c, 0, 66, 61
1, 894437, Control_c, 0, 67, 90
1, 894451, Control_c, 0, 64, 32
1, 894466, Control_c, 0, 64, 29
1, 894466, Control_c, 0, 67, 90
1, 894471, Note_on_c, 0, 81, 75
1, 894477, Note_off_c, 0, 78, 62
1, 894481, Control_c, 0, 64, 22
1, 894496, Control_c, 0, 64, 0
1, 894519, Note_off_c, 0, 81, 59
1, 894570, Control_c, 0, 67, 89
1, 894600, Control_c, 0, 67, 89
1, 894607, Note_on_c, 0, 81, 69
1, 894618, Note_on_c, 0, 57, 45
1, 894629, Control_c, 0, 67, 88
1, 894644, Control_c, 0, 67, 88
1, 894665, Note_off_c, 0, 57, 60
1, 894674, Control_c, 0, 67, 87
1, 894689, Control_c, 0, 67, 87
1, 894718, Control_c, 0, 67, 86
1, 894733, Control_c, 0, 67, 86
1, 894748, Control_c, 0, 67, 85
1, 894770, Control_c, 0, 67, 85
1, 894799, Control_c, 0, 67, 84
1, 894861, Note_off_c, 0, 81, 62
1, 894864, Note_on_c, 0, 69, 53
1, 894866, Note_on_c, 0, 66, 53
1, 894874, Control_c, 0, 67, 85
1, 894889, Control_c, 0, 67, 86
1, 894904, Control_c, 0, 67, 87
1, 894911, Note_off_c, 0, 66, 58
1, 894918, Control_c, 0, 67, 87
1, 894931, Note_off_c, 0, 69, 57
1, 894933, Control_c, 0, 67, 88
1, 894963, Control_c, 0, 67, 88
1, 895038, Control_c, 0, 67, 88
1, 895053, Control_c, 0, 67, 87
1, 895067, Control_c, 0, 67, 87
1, 895076, Note_on_c, 0, 83, 80
1, 895082, Control_c, 0, 67, 86
1, 895095, Note_on_c, 0, 57, 53
1, 895097, Control_c, 0, 64, 63
1, 895110, Note_on_c, 0, 71, 56
1, 895112, Control_c, 0, 64, 127
1, 895127, Note_off_c, 0, 57, 63
1, 895127, Control_c, 0, 67, 87
1, 895141, Control_c, 0, 67, 88
1, 895156, Control_c, 0, 67, 89
1, 895171, Control_c, 0, 64, 83
1, 895171, Control_c, 0, 67, 90
1, 895186, Control_c, 0, 64, 55
1, 895201, Control_c, 0, 64, 0
1, 895201, Control_c, 0, 67, 91
1, 895245, Control_c, 0, 67, 91
1, 895260, Control_c, 0, 67, 92
1, 895274, Control_c, 0, 67, 93
1, 895289, Control_c, 0, 67, 95
1, 895292, Note_off_c, 0, 71, 59
1, 895303, Note_off_c, 0, 83, 59
1, 895304, Control_c, 0, 67, 97
1, 895305, Note_on_c, 0, 67, 55
1, 895307, Note_on_c, 0, 64, 56
1, 895334, Control_c, 0, 67, 98
1, 895338, Note_off_c, 0, 67, 65
1, 895339, Note_off_c, 0, 64, 67
1, 895363, Control_c, 0, 67, 99
1, 895378, Control_c, 0, 67, 100
1, 895393, Control_c, 0, 67, 102
1, 895407, Control_c, 0, 67, 104
1, 895422, Control_c, 0, 67, 105
1, 895497, Control_c, 0, 67, 104
1, 895519, Control_c, 0, 67, 104
1, 895534, Note_on_c, 0, 85, 85
1, 895548, Control_c, 0, 64, 25
1, 895548, Control_c, 0, 67, 103
1, 895559, Note_on_c, 0, 73, 64
1, 895560, Note_on_c, 0, 45, 55
1, 895562, Control_c, 0, 64, 65
1, 895577, Control_c, 0, 64, 113
1, 895592, Control_c, 0, 64, 127
1, 895592, Control_c, 0, 67, 104
1, 895593, Note_off_c, 0, 45, 63
1, 895607, Control_c, 0, 67, 104
1, 895652, Control_c, 0, 64, 77
1, 895666, Control_c, 0, 64, 46
1, 895681, Control_c, 0, 64, 0
1, 895786, Note_on_c, 0, 64, 71
1, 895786, Control_c, 0, 67, 104
1, 895797, Note_on_c, 0, 57, 63
1, 895801, Control_c, 0, 67, 103
1, 895814, Note_off_c, 0, 85, 61
1, 895815, Control_c, 0, 67, 103
1, 895818, Note_off_c, 0, 64, 64
1, 895819, Note_off_c, 0, 73, 60
1, 895825, Note_off_c, 0, 57, 65
1, 895889, Control_c, 0, 67, 103
1, 896067, Control_c, 0, 67, 103
1, 896069, Note_on_c, 0, 86, 81
1, 896082, Control_c, 0, 67, 102
1, 896096, Control_c, 0, 67, 102
1, 896103, Note_on_c, 0, 74, 46
1, 896111, Control_c, 0, 67, 101
1, 896126, Control_c, 0, 67, 100
1, 896133, Note_on_c, 0, 38, 37
1, 896141, Control_c, 0, 67, 100
1, 896156, Control_c, 0, 67, 99
1, 896171, Control_c, 0, 64, 60
1, 896171, Control_c, 0, 67, 99
1, 896185, Control_c, 0, 64, 69
1, 896185, Control_c, 0, 67, 98
1, 896200, Control_c, 0, 64, 78
1, 896200, Control_c, 0, 67, 98
1, 896203, Note_off_c, 0, 38, 60
1, 896215, Control_c, 0, 64, 89
1, 896230, Control_c, 0, 64, 104
1, 896230, Control_c, 0, 67, 97
1, 896245, Control_c, 0, 64, 127
1, 896245, Control_c, 0, 67, 97
1, 896267, Control_c, 0, 67, 96
1, 896296, Control_c, 0, 67, 96
1, 896311, Control_c, 0, 67, 95
1, 896326, Control_c, 0, 67, 95
1, 896356, Control_c, 0, 67, 94
1, 896415, Control_c, 0, 67, 94
1, 896460, Control_c, 0, 67, 93
1, 896475, Note_on_c, 0, 62, 56
1, 896475, Control_c, 0, 67, 93
1, 896504, Control_c, 0, 67, 92
1, 896516, Note_on_c, 0, 54, 20
1, 896519, Control_c, 0, 67, 90
1, 896534, Control_c, 0, 67, 90
1, 896549, Control_c, 0, 67, 89
1, 896579, Control_c, 0, 67, 88
1, 896594, Control_c, 0, 67, 88
1, 896609, Control_c, 0, 67, 87
1, 896624, Control_c, 0, 67, 86
1, 896638, Control_c, 0, 67, 85
1, 896653, Control_c, 0, 67, 84
1, 896668, Control_c, 0, 67, 83
1, 896683, Control_c, 0, 67, 82
1, 896697, Note_off_c, 0, 86, 60
1, 896698, Control_c, 0, 67, 82
1, 896712, Control_c, 0, 67, 81
1, 896727, Control_c, 0, 67, 80
1, 896757, Control_c, 0, 67, 79
1, 896764, Note_off_c, 0, 74, 50
1, 896767, Note_off_c, 0, 62, 60
1, 896801, Control_c, 0, 67, 78
1, 896816, Control_c, 0, 67, 78
1, 896905, Control_c, 0, 67, 78
1, 896919, Control_c, 0, 67, 79
1, 896949, Control_c, 0, 67, 79
1, 896964, Control_c, 0, 67, 80
1, 896979, Control_c, 0, 67, 80
1, 896993, Control_c, 0, 67, 81
1, 897016, Control_c, 0, 67, 81
1, 897031, Control_c, 0, 67, 82
1, 897045, Control_c, 0, 67, 83
1, 897051, Note_off_c, 0, 54, 34
1, 897060, Control_c, 0, 67, 83
1, 897075, Control_c, 0, 67, 85
1, 897090, Control_c, 0, 67, 86
1, 897105, Control_c, 0, 67, 86
1, 897119, Control_c, 0, 67, 87
1, 897134, Control_c, 0, 67, 88
1, 897163, Control_c, 0, 67, 89
1, 897178, Control_c, 0, 67, 89
1, 897193, Control_c, 0, 67, 90
1, 897238, Control_c, 0, 67, 90
1, 897268, Control_c, 0, 64, 121
1, 897282, Control_c, 0, 64, 99
1, 897282, Control_c, 0, 67, 91
1, 897297, Control_c, 0, 64, 89
1, 897312, Control_c, 0, 64, 82
1, 897327, Control_c, 0, 64, 76
1, 897342, Control_c, 0, 64, 70
1, 897342, Control_c, 0, 67, 91
1, 897357, Control_c, 0, 64, 66
1, 897357, Control_c, 0, 67, 92
1, 897365, Note_on_c, 0, 66, 45
1, 897372, Control_c, 0, 64, 62
1, 897387, Control_c, 0, 64, 58
1, 897387, Control_c, 0, 67, 94
1, 897402, Control_c, 0, 64, 55
1, 897402, Control_c, 0, 67, 95
1, 897405, Note_on_c, 0, 54, 29
1, 897417, Control_c, 0, 64, 50
1, 897417, Control_c, 0, 67, 95
1, 897432, Control_c, 0, 64, 44
1, 897432, Control_c, 0, 67, 96
1, 897446, Control_c, 0, 64, 32
1, 897446, Control_c, 0, 67, 97
1, 897461, Control_c, 0, 64, 0
1, 897476, Control_c, 0, 67, 97
1, 897491, Control_c, 0, 67, 98
1, 897624, Control_c, 0, 67, 97
1, 897639, Control_c, 0, 67, 97
1, 897643, Note_on_c, 0, 67, 67
1, 897653, Control_c, 0, 67, 96
1, 897668, Control_c, 0, 67, 96
1, 897681, Note_on_c, 0, 55, 37
1, 897683, Control_c, 0, 67, 95
1, 897698, Control_c, 0, 67, 95
1, 897713, Control_c, 0, 67, 94
1, 897724, Note_off_c, 0, 54, 41
1, 897728, Control_c, 0, 67, 94
1, 897742, Control_c, 0, 67, 93
1, 897765, Control_c, 0, 67, 93
1, 897780, Control_c, 0, 67, 92
1, 897794, Control_c, 0, 67, 92
1, 897809, Control_c, 0, 67, 91
1, 897824, Control_c, 0, 67, 90
1, 897839, Control_c, 0, 67, 89
1, 897854, Control_c, 0, 67, 89
1, 897858, Note_on_c, 0, 69, 74
1, 897862, Note_off_c, 0, 66, 40
1, 897868, Control_c, 0, 67, 88
1, 897876, Note_off_c, 0, 55, 62
1, 897883, Control_c, 0, 67, 87
1, 897887, Note_on_c, 0, 57, 44
1, 897898, Control_c, 0, 67, 86
1, 897912, Note_off_c, 0, 67, 57
1, 897913, Control_c, 0, 67, 86
1, 897928, Control_c, 0, 67, 84
1, 897942, Control_c, 0, 67, 83
1, 897957, Control_c, 0, 64, 45
1, 897957, Control_c, 0, 67, 82
1, 897972, Control_c, 0, 64, 57
1, 897972, Control_c, 0, 67, 80
1, 897986, Control_c, 0, 64, 62
1, 897986, Control_c, 0, 67, 78
1, 898001, Control_c, 0, 64, 64
1, 898001, Control_c, 0, 67, 75
1, 898016, Control_c, 0, 64, 67
1, 898016, Control_c, 0, 67, 71
1, 898031, Control_c, 0, 64, 71
1, 898031, Control_c, 0, 67, 66
1, 898046, Control_c, 0, 64, 79
1, 898046, Control_c, 0, 67, 61
1, 898060, Control_c, 0, 64, 89
1, 898060, Control_c, 0, 67, 56
1, 898075, Control_c, 0, 64, 107
1, 898075, Control_c, 0, 67, 51
1, 898090, Control_c, 0, 64, 127
1, 898090, Control_c, 0, 67, 47
1, 898105, Control_c, 0, 67, 44
1, 898120, Control_c, 0, 67, 43
1, 898150, Note_off_c, 0, 57, 36
1, 898165, Control_c, 0, 67, 44
1, 898180, Control_c, 0, 67, 45
1, 898195, Control_c, 0, 67, 46
1, 898210, Control_c, 0, 67, 46
1, 898224, Control_c, 0, 67, 47
1, 898254, Control_c, 0, 67, 47
1, 898269, Control_c, 0, 67, 48
1, 898294, Note_on_c, 0, 71, 63
1, 898299, Control_c, 0, 67, 49
1, 898318, Note_on_c, 0, 59, 39
1, 898329, Control_c, 0, 67, 49
1, 898344, Control_c, 0, 67, 50
1, 898359, Note_on_c, 0, 43, 17
1, 898368, Note_on_c, 0, 50, 38
1, 898369, Note_on_c, 0, 52, 41
1, 898373, Control_c, 0, 67, 50
1, 898376, Note_off_c, 0, 69, 56
1, 898388, Control_c, 0, 67, 51
1, 898403, Control_c, 0, 67, 52
1, 898417, Control_c, 0, 67, 53
1, 898432, Control_c, 0, 67, 54
1, 898447, Control_c, 0, 67, 55
1, 898462, Control_c, 0, 64, 99
1, 898462, Control_c, 0, 67, 56
1, 898477, Control_c, 0, 64, 80
1, 898477, Control_c, 0, 67, 59
1, 898491, Control_c, 0, 64, 66
1, 898491, Control_c, 0, 67, 61
1, 898514, Control_c, 0, 64, 0
1, 898514, Control_c, 0, 67, 63
1, 898528, Control_c, 0, 67, 64
1, 898543, Control_c, 0, 67, 66
1, 898558, Control_c, 0, 67, 68
1, 898572, Control_c, 0, 67, 71
1, 898587, Control_c, 0, 67, 74
1, 898602, Control_c, 0, 67, 79
1, 898616, Control_c, 0, 67, 86
1, 898631, Control_c, 0, 64, 28
1, 898631, Control_c, 0, 67, 93
1, 898646, Control_c, 0, 64, 62
1, 898646, Control_c, 0, 67, 97
1, 898661, Control_c, 0, 64, 68
1, 898661, Control_c, 0, 67, 98
1, 898676, Control_c, 0, 64, 75
1, 898676, Control_c, 0, 67, 99
1, 898690, Control_c, 0, 64, 85
1, 898690, Control_c, 0, 67, 99
1, 898705, Control_c, 0, 64, 97
1, 898705, Control_c, 0, 67, 100
1, 898720, Control_c, 0, 64, 105
1, 898720, Control_c, 0, 67, 102
1, 898735, Control_c, 0, 64, 106
1, 898735, Control_c, 0, 67, 105
1, 898750, Control_c, 0, 64, 106
1, 898750, Control_c, 0, 67, 111
1, 898764, Control_c, 0, 64, 108
1, 898764, Control_c, 0, 67, 116
1, 898775, Note_off_c, 0, 43, 37
1, 898779, Control_c, 0, 64, 111
1, 898779, Control_c, 0, 67, 120
1, 898794, Control_c, 0, 64, 116
1, 898794, Control_c, 0, 67, 123
1, 898809, Control_c, 0, 64, 125
1, 898809, Control_c, 0, 67, 126
1, 898824, Control_c, 0, 64, 127
1, 898824, Control_c, 0, 67, 127
1, 898844, Note_off_c, 0, 50, 40
1, 898882, Note_off_c, 0, 52, 41
1, 898906, Note_off_c, 0, 59, 40
1, 899178, Note_on_c, 0, 69, 49
1, 899188, Note_on_c, 0, 57, 39
1, 899240, Note_off_c, 0, 57, 44
1, 899242, Note_off_c, 0, 71, 33
1, 899289, Note_on_c, 0, 67, 53
1, 899319, Note_on_c, 0, 55, 7
1, 899320, Note_off_c, 0, 69, 38
1, 899321, Control_c, 0, 64, 114
1, 899336, Control_c, 0, 64, 105
1, 899337, Note_off_c, 0, 67, 54
1, 899351, Control_c, 0, 64, 99
1, 899366, Control_c, 0, 64, 93
1, 899367, Note_on_c, 0, 54, 50
1, 899367, Note_off_c, 0, 55, 48
1, 899375, Note_on_c, 0, 66, 45
1, 899381, Control_c, 0, 64, 87
1, 899396, Control_c, 0, 64, 78
1, 899411, Control_c, 0, 64, 68
1, 899426, Control_c, 0, 64, 44
1, 899435, Note_off_c, 0, 66, 58
1, 899440, Control_c, 0, 64, 0
1, 899443, Note_off_c, 0, 54, 52
1, 899461, Note_on_c, 0, 64, 41
1, 899488, Note_on_c, 0, 52, 41
1, 899544, Control_c, 0, 64, 40
1, 899544, Control_c, 0, 67, 126
1, 899558, Control_c, 0, 64, 58
1, 899558, Control_c, 0, 67, 124
1, 899573, Control_c, 0, 64, 62
1, 899573, Control_c, 0, 67, 122
1, 899588, Control_c, 0, 64, 63
1, 899588, Control_c, 0, 67, 119
1, 899603, Control_c, 0, 64, 65
1, 899603, Control_c, 0, 67, 115
1, 899618, Control_c, 0, 64, 67
1, 899618, Control_c, 0, 67, 111
1, 899632, Control_c, 0, 64, 70
1, 899632, Control_c, 0, 67, 107
1, 899634, Note_off_c, 0, 52, 64
1, 899647, Control_c, 0, 64, 74
1, 899647, Control_c, 0, 67, 100
1, 899662, Control_c, 0, 64, 77
1, 899662, Control_c, 0, 67, 92
1, 899677, Control_c, 0, 64, 79
1, 899677, Control_c, 0, 67, 85
1, 899680, Note_off_c, 0, 64, 50
1, 899692, Control_c, 0, 64, 81
1, 899692, Control_c, 0, 67, 78
1, 899706, Control_c, 0, 64, 84
1, 899706, Control_c, 0, 67, 71
1, 899721, Control_c, 0, 64, 87
1, 899721, Control_c, 0, 67, 62
1, 899737, Control_c, 0, 64, 90
1, 899737, Control_c, 0, 67, 54
1, 899752, Control_c, 0, 64, 93
1, 899752, Control_c, 0, 67, 47
1, 899767, Control_c, 0, 64, 97
1, 899767, Control_c, 0, 67, 38
1, 899782, Control_c, 0, 64, 102
1, 899782, Control_c, 0, 67, 31
1, 899797, Control_c, 0, 64, 108
1, 899797, Control_c, 0, 67, 24
1, 899811, Control_c, 0, 64, 118
1, 899811, Control_c, 0, 67, 18
1, 899826, Control_c, 0, 64, 127
1, 899826, Control_c, 0, 67, 11
1, 899841, Control_c, 0, 67, 0
1, 899989, Note_on_c, 0, 74, 73
1, 900026, Control_c, 0, 64, 112
1, 900029, Note_on_c, 0, 62, 50
1, 900040, Note_on_c, 0, 52, 53
1, 900040, Note_on_c, 0, 44, 48
1, 900041, Control_c, 0, 64, 101
1, 900056, Control_c, 0, 64, 88
1, 900070, Control_c, 0, 64, 73
1, 900085, Control_c, 0, 64, 55
1, 900100, Control_c, 0, 64, 0
1, 900174, Control_c, 0, 64, 34
1, 900189, Control_c, 0, 64, 63
1, 900204, Control_c, 0, 64, 73
1, 900219, Control_c, 0, 64, 84
1, 900229, Note_off_c, 0, 44, 63
1, 900234, Control_c, 0, 64, 97
1, 900248, Control_c, 0, 64, 127
1, 900266, Note_off_c, 0, 52, 61
1, 900342, Note_off_c, 0, 62, 33
1, 900605, Note_on_c, 0, 73, 57
1, 900609, Note_on_c, 0, 61, 49
1, 900648, Note_off_c, 0, 61, 61
1, 900672, Note_off_c, 0, 74, 39
1, 900711, Note_on_c, 0, 59, 55
1, 900716, Note_on_c, 0, 71, 58
1, 900748, Note_off_c, 0, 73, 56
1, 900780, Note_off_c, 0, 71, 61
1, 900785, Note_off_c, 0, 59, 55
1, 900800, Note_on_c, 0, 57, 54
1, 900800, Note_on_c, 0, 69, 62
1, 900860, Note_off_c, 0, 57, 60
1, 900868, Note_on_c, 0, 56, 60
1, 900871, Note_off_c, 0, 69, 56
1, 900873, Note_on_c, 0, 68, 68
1, 900921, Note_off_c, 0, 56, 57
1, 900937, Note_on_c, 0, 54, 57
1, 900954, Note_on_c, 0, 66, 63
1, 900997, Note_off_c, 0, 68, 32
1, 901007, Note_off_c, 0, 54, 60
1, 901012, Control_c, 0, 64, 101
1, 901015, Note_off_c, 0, 66, 62
1, 901026, Control_c, 0, 64, 84
1, 901028, Note_on_c, 0, 64, 70
1, 901035, Note_on_c, 0, 52, 69
1, 901041, Control_c, 0, 64, 69
1, 901056, Control_c, 0, 64, 46
1, 901071, Control_c, 0, 64, 0
1, 901160, Control_c, 0, 64, 44
1, 901175, Control_c, 0, 64, 65
1, 901190, Control_c, 0, 64, 74
1, 901204, Control_c, 0, 64, 85
1, 901219, Control_c, 0, 64, 99
1, 901232, Note_off_c, 0, 52, 66
1, 901234, Control_c, 0, 64, 127
1, 901272, Note_off_c, 0, 64, 56
1, 901571, Note_on_c, 0, 74, 67
1, 901583, Control_c, 0, 64, 109
1, 901593, Note_on_c, 0, 64, 53
1, 901598, Control_c, 0, 64, 101
1, 901611, Note_on_c, 0, 55, 48
1, 901613, Control_c, 0, 64, 95
1, 901614, Note_on_c, 0, 45, 47
1, 901628, Control_c, 0, 64, 91
1, 901642, Control_c, 0, 64, 85
1, 901657, Control_c, 0, 64, 80
1, 901672, Control_c, 0, 64, 76
1, 901687, Control_c, 0, 64, 72
1, 901702, Control_c, 0, 64, 69
1, 901716, Control_c, 0, 64, 65
1, 901731, Control_c, 0, 64, 58
1, 901746, Control_c, 0, 64, 0
1, 901864, Control_c, 0, 64, 53
1, 901879, Control_c, 0, 64, 63
1, 901894, Control_c, 0, 64, 65
1, 901909, Control_c, 0, 64, 66
1, 901924, Control_c, 0, 64, 67
1, 901939, Control_c, 0, 64, 69
1, 901953, Control_c, 0, 64, 71
1, 901968, Control_c, 0, 64, 72
1, 901998, Control_c, 0, 64, 72
1, 902013, Control_c, 0, 64, 74
1, 902027, Control_c, 0, 64, 76
1, 902032, Note_on_c, 0, 73, 71
1, 902042, Control_c, 0, 64, 78
1, 902044, Note_off_c, 0, 74, 54
1, 902057, Control_c, 0, 64, 80
1, 902072, Control_c, 0, 64, 81
1, 902087, Control_c, 0, 64, 83
1, 902101, Control_c, 0, 64, 85
1, 902116, Control_c, 0, 64, 87
1, 902132, Control_c, 0, 64, 89
1, 902147, Control_c, 0, 64, 91
1, 902162, Control_c, 0, 64, 93
1, 902171, Note_off_c, 0, 64, 38
1, 902176, Control_c, 0, 64, 95
1, 902191, Control_c, 0, 64, 97
1, 902204, Note_off_c, 0, 73, 54
1, 902221, Control_c, 0, 64, 93
1, 902231, Note_on_c, 0, 74, 72
1, 902236, Control_c, 0, 64, 76
1, 902237, Note_on_c, 0, 66, 63
1, 902258, Control_c, 0, 64, 62
1, 902260, Note_on_c, 0, 54, 51
1, 902272, Control_c, 0, 64, 0
1, 902302, Control_c, 0, 64, 49
1, 902317, Control_c, 0, 64, 62
1, 902332, Control_c, 0, 64, 70
1, 902347, Control_c, 0, 64, 81
1, 902351, Note_off_c, 0, 66, 60
1, 902362, Control_c, 0, 64, 96
1, 902374, Note_off_c, 0, 55, 32
1, 902377, Control_c, 0, 64, 104
1, 902406, Control_c, 0, 64, 102
1, 902421, Control_c, 0, 64, 81
1, 902436, Control_c, 0, 64, 64
1, 902439, Note_on_c, 0, 76, 75
1, 902446, Note_on_c, 0, 67, 68
1, 902451, Control_c, 0, 64, 0
1, 902457, Note_off_c, 0, 54, 57
1, 902460, Note_on_c, 0, 52, 57
1, 902480, Control_c, 0, 64, 17
1, 902484, Note_off_c, 0, 74, 50
1, 902495, Control_c, 0, 64, 58
1, 902510, Control_c, 0, 64, 67
1, 902525, Control_c, 0, 64, 75
1, 902530, Note_off_c, 0, 67, 54
1, 902539, Control_c, 0, 64, 84
1, 902554, Control_c, 0, 64, 91
1, 902569, Control_c, 0, 64, 94
1, 902598, Control_c, 0, 64, 93
1, 902613, Control_c, 0, 64, 82
1, 902628, Control_c, 0, 64, 65
1, 902638, Note_on_c, 0, 73, 82
1, 902643, Control_c, 0, 64, 0
1, 902647, Note_on_c, 0, 57, 59
1, 902660, Note_on_c, 0, 64, 62
1, 902663, Note_off_c, 0, 76, 64
1, 902689, Note_off_c, 0, 52, 53
1, 902717, Control_c, 0, 64, 18
1, 902732, Control_c, 0, 64, 62
1, 902746, Control_c, 0, 64, 69
1, 902756, Note_off_c, 0, 64, 65
1, 902761, Control_c, 0, 64, 76
1, 902776, Control_c, 0, 64, 78
1, 902783, Note_off_c, 0, 57, 57
1, 902791, Control_c, 0, 64, 79
1, 902880, Control_c, 0, 64, 78
1, 902895, Control_c, 0, 64, 77
1, 902910, Control_c, 0, 64, 74
1, 902910, Note_on_c, 0, 74, 74
1, 902925, Control_c, 0, 64, 71
1, 902934, Note_on_c, 0, 66, 62
1, 902940, Control_c, 0, 64, 68
1, 902945, Note_off_c, 0, 73, 58
1, 902952, Note_on_c, 0, 57, 35
1, 902955, Control_c, 0, 64, 65
1, 902961, Note_on_c, 0, 50, 42
1, 902970, Control_c, 0, 64, 61
1, 902985, Control_c, 0, 64, 50
1, 902987, Note_off_c, 0, 45, 47
1, 903006, Control_c, 0, 64, 0
1, 903170, Control_c, 0, 64, 39
1, 903185, Control_c, 0, 64, 58
1, 903200, Control_c, 0, 64, 65
1, 903214, Control_c, 0, 64, 72
1, 903229, Control_c, 0, 64, 80
1, 903244, Control_c, 0, 64, 89
1, 903259, Control_c, 0, 64, 98
1, 903273, Control_c, 0, 64, 116
1, 903288, Control_c, 0, 64, 127
1, 903304, Note_off_c, 0, 50, 52
1, 903365, Note_on_c, 0, 78, 73
1, 903375, Note_off_c, 0, 66, 63
1, 903377, Note_off_c, 0, 57, 42
1, 903416, Note_off_c, 0, 74, 61
1, 903508, Note_off_c, 0, 78, 63
1, 903815, Control_c, 0, 64, 102
1, 903829, Control_c, 0, 64, 90
1, 903829, Control_c, 0, 67, 9
1, 903844, Control_c, 0, 64, 82
1, 903844, Control_c, 0, 67, 11
1, 903859, Control_c, 0, 64, 76
1, 903859, Control_c, 0, 67, 12
1, 903874, Control_c, 0, 64, 69
1, 903874, Control_c, 0, 67, 13
1, 903886, Note_on_c, 0, 81, 58
1, 903889, Control_c, 0, 64, 63
1, 903889, Control_c, 0, 67, 15
1, 903903, Control_c, 0, 64, 30
1, 903903, Control_c, 0, 67, 17
1, 903908, Note_on_c, 0, 78, 44
1, 903918, Control_c, 0, 64, 0
1, 903918, Control_c, 0, 67, 20
1, 903933, Control_c, 0, 67, 23
1, 903939, Note_on_c, 0, 69, 31
1, 903942, Note_on_c, 0, 62, 32
1, 903948, Control_c, 0, 67, 24
1, 903963, Control_c, 0, 67, 24
1, 903978, Control_c, 0, 67, 25
1, 903992, Control_c, 0, 67, 26
1, 904007, Control_c, 0, 67, 28
1, 904022, Control_c, 0, 67, 34
1, 904037, Control_c, 0, 64, 49
1, 904037, Control_c, 0, 67, 41
1, 904052, Control_c, 0, 64, 63
1, 904052, Control_c, 0, 67, 46
1, 904067, Control_c, 0, 64, 67
1, 904067, Control_c, 0, 67, 50
1, 904082, Control_c, 0, 64, 70
1, 904082, Control_c, 0, 67, 52
1, 904097, Control_c, 0, 64, 76
1, 904097, Control_c, 0, 67, 55
1, 904111, Control_c, 0, 64, 81
1, 904111, Control_c, 0, 67, 58
1, 904126, Control_c, 0, 64, 86
1, 904126, Control_c, 0, 67, 62
1, 904141, Control_c, 0, 64, 92
1, 904141, Control_c, 0, 67, 65
1, 904155, Control_c, 0, 64, 97
1, 904155, Control_c, 0, 67, 70
1, 904170, Control_c, 0, 64, 103
1, 904170, Control_c, 0, 67, 74
1, 904185, Control_c, 0, 64, 108
1, 904185, Control_c, 0, 67, 77
1, 904191, Note_off_c, 0, 78, 32
1, 904200, Control_c, 0, 64, 112
1, 904200, Control_c, 0, 67, 81
1, 904202, Note_off_c, 0, 81, 33
1, 904215, Control_c, 0, 64, 115
1, 904215, Control_c, 0, 67, 84
1, 904229, Control_c, 0, 64, 116
1, 904229, Control_c, 0, 67, 88
1, 904232, Note_off_c, 0, 69, 38
1, 904244, Control_c, 0, 64, 118
1, 904244, Control_c, 0, 67, 93
1, 904255, Note_off_c, 0, 62, 40
1, 904259, Control_c, 0, 67, 98
1, 904274, Control_c, 0, 64, 119
1, 904274, Control_c, 0, 67, 104
1, 904289, Control_c, 0, 67, 110
1, 904303, Control_c, 0, 67, 116
1, 904318, Control_c, 0, 67, 121
1, 904333, Control_c, 0, 67, 126
1, 904347, Control_c, 0, 67, 127
1, 904407, Control_c, 0, 64, 118
1, 904466, Control_c, 0, 64, 116
1, 904481, Control_c, 0, 64, 114
1, 904503, Control_c, 0, 64, 110
1, 904518, Control_c, 0, 64, 107
1, 904534, Control_c, 0, 64, 104
1, 904537, Note_on_c, 0, 81, 48
1, 904549, Control_c, 0, 64, 100
1, 904556, Note_on_c, 0, 78, 41
1, 904564, Control_c, 0, 64, 97
1, 904573, Note_on_c, 0, 61, 36
1, 904578, Control_c, 0, 64, 93
1, 904582, Note_on_c, 0, 69, 27
1, 904593, Control_c, 0, 64, 90
1, 904605, Note_off_c, 0, 78, 0
1, 904605, Note_on_c, 0, 78, 9
1, 904608, Control_c, 0, 64, 85
1, 904623, Control_c, 0, 64, 78
1, 904638, Control_c, 0, 64, 68
1, 904652, Control_c, 0, 64, 53
1, 904667, Control_c, 0, 64, 0
1, 904741, Control_c, 0, 64, 50
1, 904756, Control_c, 0, 64, 62
1, 904771, Control_c, 0, 64, 65
1, 904785, Control_c, 0, 64, 66
1, 904800, Control_c, 0, 64, 66
1, 904815, Control_c, 0, 64, 67
1, 904845, Control_c, 0, 64, 67
1, 904950, Note_off_c, 0, 81, 54
1, 904959, Note_off_c, 0, 78, 52
1, 904982, Note_on_c, 0, 79, 55
1, 905008, Note_on_c, 0, 76, 34
1, 905038, Control_c, 0, 64, 68
1, 905052, Control_c, 0, 64, 68
1, 905060, Note_off_c, 0, 76, 45
1, 905063, Note_off_c, 0, 79, 58
1, 905082, Control_c, 0, 64, 69
1, 905083, Note_on_c, 0, 81, 52
1, 905090, Note_on_c, 0, 78, 45
1, 905097, Control_c, 0, 64, 69
1, 905112, Control_c, 0, 64, 70
1, 905126, Control_c, 0, 64, 70
1, 905141, Control_c, 0, 64, 71
1, 905143, Note_off_c, 0, 81, 58
1, 905153, Note_off_c, 0, 78, 56
1, 905156, Control_c, 0, 64, 72
1, 905179, Note_on_c, 0, 79, 58
1, 905197, Note_on_c, 0, 76, 9
1, 905215, Control_c, 0, 64, 72
1, 905229, Note_off_c, 0, 76, 45
1, 905244, Note_off_c, 0, 79, 55
1, 905264, Note_off_c, 0, 69, 45
1, 905267, Note_on_c, 0, 81, 61
1, 905295, Note_on_c, 0, 78, 23
1, 905344, Note_off_c, 0, 78, 47
1, 905416, Control_c, 0, 64, 71
1, 905431, Note_off_c, 0, 81, 55
1, 905431, Control_c, 0, 64, 67
1, 905437, Note_on_c, 0, 83, 55
1, 905446, Control_c, 0, 64, 59
1, 905452, Note_off_c, 0, 61, 37
1, 905453, Note_on_c, 0, 79, 38
1, 905461, Control_c, 0, 64, 18
1, 905473, Note_on_c, 0, 69, 30
1, 905475, Control_c, 0, 64, 0
1, 905489, Note_on_c, 0, 57, 18
1, 905535, Control_c, 0, 64, 45
1, 905549, Control_c, 0, 64, 60
1, 905552, Note_off_c, 0, 79, 50
1, 905564, Control_c, 0, 64, 65
1, 905579, Control_c, 0, 64, 67
1, 905594, Control_c, 0, 64, 69
1, 905608, Control_c, 0, 64, 70
1, 905623, Control_c, 0, 64, 71
1, 905638, Control_c, 0, 64, 72
1, 905653, Control_c, 0, 64, 73
1, 905668, Control_c, 0, 64, 74
1, 905683, Note_on_c, 0, 79, 54
1, 905683, Control_c, 0, 64, 74
1, 905697, Note_on_c, 0, 76, 26
1, 905698, Control_c, 0, 64, 75
1, 905704, Note_off_c, 0, 83, 53
1, 905723, Note_off_c, 0, 76, 53
1, 905727, Control_c, 0, 64, 75
1, 905760, Note_off_c, 0, 69, 33
1, 905760, Note_off_c, 0, 79, 58
1, 905805, Note_off_c, 0, 57, 39
1, 905934, Control_c, 0, 64, 75
1, 905949, Control_c, 0, 64, 74
1, 905964, Control_c, 0, 64, 73
1, 905979, Note_on_c, 0, 81, 52
1, 905979, Control_c, 0, 64, 72
1, 906001, Control_c, 0, 64, 71
1, 906009, Note_on_c, 0, 79, 40
1, 906017, Control_c, 0, 64, 70
1, 906031, Control_c, 0, 64, 68
1, 906038, Note_on_c, 0, 69, 27
1, 906046, Note_on_c, 0, 62, 33
1, 906046, Control_c, 0, 64, 67
1, 906061, Control_c, 0, 64, 65
1, 906076, Control_c, 0, 64, 64
1, 906091, Control_c, 0, 64, 63
1, 906106, Control_c, 0, 64, 62
1, 906121, Control_c, 0, 64, 59
1, 906136, Control_c, 0, 64, 50
1, 906151, Control_c, 0, 64, 12
1, 906166, Control_c, 0, 64, 0
1, 906468, Note_off_c, 0, 79, 44
1, 906491, Note_on_c, 0, 86, 40
1, 906492, Control_c, 0, 64, 54
1, 906500, Note_off_c, 0, 81, 50
1, 906506, Note_on_c, 0, 78, 33
1, 906506, Control_c, 0, 64, 61
1, 906521, Control_c, 0, 64, 63
1, 906536, Control_c, 0, 64, 65
1, 906536, Control_c, 0, 67, 126
1, 906550, Control_c, 0, 64, 69
1, 906550, Control_c, 0, 67, 120
1, 906565, Control_c, 0, 64, 74
1, 906565, Control_c, 0, 67, 115
1, 906567, Note_off_c, 0, 86, 41
1, 906580, Note_off_c, 0, 69, 54
1, 906580, Control_c, 0, 64, 80
1, 906580, Control_c, 0, 67, 109
1, 906586, Note_off_c, 0, 78, 52
1, 906595, Control_c, 0, 64, 84
1, 906595, Control_c, 0, 67, 103
1, 906610, Control_c, 0, 64, 88
1, 906610, Control_c, 0, 67, 98
1, 906625, Control_c, 0, 64, 90
1, 906625, Control_c, 0, 67, 93
1, 906640, Control_c, 0, 64, 91
1, 906640, Control_c, 0, 67, 89
1, 906652, Note_off_c, 0, 62, 53
1, 906654, Control_c, 0, 64, 92
1, 906654, Control_c, 0, 67, 84
1, 906669, Control_c, 0, 67, 80
1, 906684, Control_c, 0, 64, 93
1, 906684, Control_c, 0, 67, 77
1, 906699, Control_c, 0, 64, 93
1, 906699, Control_c, 0, 67, 74
1, 906714, Control_c, 0, 67, 71
1, 906729, Control_c, 0, 67, 68
1, 906750, Control_c, 0, 67, 64
1, 906765, Control_c, 0, 67, 59
1, 906780, Control_c, 0, 67, 54
1, 906795, Control_c, 0, 67, 48
1, 906809, Control_c, 0, 67, 45
1, 906824, Control_c, 0, 67, 43
1, 906839, Control_c, 0, 67, 41
1, 906854, Control_c, 0, 67, 38
1, 906869, Control_c, 0, 64, 93
1, 906869, Control_c, 0, 67, 35
1, 906884, Control_c, 0, 64, 92
1, 906884, Control_c, 0, 67, 33
1, 906898, Control_c, 0, 64, 89
1, 906898, Control_c, 0, 67, 30
1, 906913, Control_c, 0, 64, 87
1, 906913, Control_c, 0, 67, 27
1, 906929, Control_c, 0, 64, 84
1, 906929, Control_c, 0, 67, 25
1, 906944, Control_c, 0, 64, 82
1, 906944, Control_c, 0, 67, 24
1, 906958, Control_c, 0, 64, 77
1, 906958, Control_c, 0, 67, 23
1, 906973, Control_c, 0, 64, 68
1, 906973, Control_c, 0, 67, 22
1, 906973, Note_on_c, 0, 69, 67
1, 906988, Control_c, 0, 64, 56
1, 906988, Control_c, 0, 67, 20
1, 906994, Note_on_c, 0, 54, 44
1, 907003, Control_c, 0, 64, 0
1, 907003, Control_c, 0, 67, 18
1, 907018, Control_c, 0, 67, 16
1, 907033, Control_c, 0, 67, 13
1, 907047, Control_c, 0, 67, 10
1, 907062, Control_c, 0, 67, 0
1, 907077, Control_c, 0, 64, 47
1, 907092, Control_c, 0, 64, 61
1, 907107, Control_c, 0, 64, 65
1, 907121, Control_c, 0, 64, 67
1, 907136, Control_c, 0, 64, 69
1, 907151, Control_c, 0, 64, 72
1, 907166, Control_c, 0, 64, 74
1, 907180, Control_c, 0, 64, 77
1, 907195, Note_on_c, 0, 71, 76
1, 907195, Control_c, 0, 64, 78
1, 907197, Note_off_c, 0, 54, 58
1, 907204, Note_on_c, 0, 55, 54
1, 907210, Control_c, 0, 64, 80
1, 907225, Control_c, 0, 64, 83
1, 907240, Control_c, 0, 64, 87
1, 907254, Control_c, 0, 64, 94
1, 907269, Control_c, 0, 64, 98
1, 907284, Control_c, 0, 64, 102
1, 907299, Control_c, 0, 64, 105
1, 907313, Note_off_c, 0, 55, 53
1, 907314, Control_c, 0, 64, 106
1, 907328, Control_c, 0, 64, 107
1, 907355, Note_off_c, 0, 69, 22
1, 907477, Control_c, 0, 64, 106
1, 907498, Control_c, 0, 64, 105
1, 907513, Control_c, 0, 64, 102
1, 907514, Note_on_c, 0, 74, 66
1, 907525, Note_on_c, 0, 64, 52
1, 907528, Control_c, 0, 64, 99
1, 907541, Note_on_c, 0, 45, 44
1, 907543, Control_c, 0, 64, 96
1, 907546, Note_on_c, 0, 55, 43
1, 907558, Control_c, 0, 64, 93
1, 907570, Note_off_c, 0, 71, 55
1, 907573, Control_c, 0, 64, 90
1, 907587, Control_c, 0, 64, 86
1, 907602, Control_c, 0, 64, 83
1, 907617, Control_c, 0, 64, 79
1, 907632, Control_c, 0, 64, 74
1, 907647, Control_c, 0, 64, 67
1, 907662, Control_c, 0, 64, 56
1, 907677, Control_c, 0, 64, 0
1, 907781, Control_c, 0, 64, 15
1, 907796, Control_c, 0, 64, 54
1, 907811, Control_c, 0, 64, 62
1, 907826, Control_c, 0, 64, 63
1, 907841, Control_c, 0, 64, 64
1, 907856, Control_c, 0, 64, 65
1, 907870, Control_c, 0, 64, 66
1, 907885, Control_c, 0, 64, 68
1, 907900, Control_c, 0, 64, 69
1, 907914, Control_c, 0, 64, 70
1, 907929, Control_c, 0, 64, 70
1, 907944, Control_c, 0, 64, 71
1, 907959, Control_c, 0, 64, 71
1, 907974, Control_c, 0, 64, 72
1, 907989, Control_c, 0, 64, 73
1, 907993, Note_on_c, 0, 73, 73
1, 908003, Control_c, 0, 64, 74
1, 908018, Control_c, 0, 64, 75
1, 908019, Note_off_c, 0, 74, 60
1, 908033, Control_c, 0, 64, 75
1, 908048, Control_c, 0, 64, 76
1, 908063, Control_c, 0, 64, 78
1, 908077, Control_c, 0, 64, 79
1, 908092, Control_c, 0, 64, 79
1, 908107, Control_c, 0, 64, 80
1, 908121, Control_c, 0, 64, 81
1, 908133, Note_off_c, 0, 64, 36
1, 908136, Control_c, 0, 64, 82
1, 908151, Control_c, 0, 64, 82
1, 908196, Control_c, 0, 64, 77
1, 908200, Note_on_c, 0, 74, 76
1, 908203, Note_off_c, 0, 73, 61
1, 908209, Note_on_c, 0, 66, 64
1, 908210, Control_c, 0, 64, 64
1, 908221, Note_on_c, 0, 54, 47
1, 908225, Control_c, 0, 64, 34
1, 908248, Control_c, 0, 64, 0
1, 908262, Control_c, 0, 64, 37
1, 908276, Control_c, 0, 64, 54
1, 908291, Control_c, 0, 64, 63
1, 908293, Note_off_c, 0, 55, 35
1, 908306, Control_c, 0, 64, 70
1, 908320, Note_off_c, 0, 66, 62
1, 908321, Control_c, 0, 64, 78
1, 908336, Control_c, 0, 64, 83
1, 908351, Control_c, 0, 64, 83
1, 908380, Control_c, 0, 64, 81
1, 908395, Control_c, 0, 64, 68
1, 908410, Note_on_c, 0, 76, 74
1, 908410, Control_c, 0, 64, 0
1, 908419, Note_off_c, 0, 54, 58
1, 908424, Note_on_c, 0, 67, 67
1, 908432, Note_on_c, 0, 52, 53
1, 908469, Control_c, 0, 64, 29
1, 908471, Note_off_c, 0, 74, 56
1, 908484, Control_c, 0, 64, 61
1, 908499, Control_c, 0, 64, 68
1, 908514, Control_c, 0, 64, 73
1, 908515, Note_off_c, 0, 67, 48
1, 908529, Control_c, 0, 64, 77
1, 908544, Control_c, 0, 64, 80
1, 908559, Control_c, 0, 64, 81
1, 908589, Control_c, 0, 64, 71
1, 908604, Control_c, 0, 64, 54
1, 908616, Note_on_c, 0, 73, 80
1, 908618, Control_c, 0, 64, 0
1, 908621, Note_off_c, 0, 52, 63
1, 908631, Note_on_c, 0, 57, 48
1, 908636, Note_on_c, 0, 64, 60
1, 908645, Note_off_c, 0, 76, 61
1, 908663, Control_c, 0, 64, 31
1, 908678, Control_c, 0, 64, 62
1, 908692, Control_c, 0, 64, 72
1, 908707, Control_c, 0, 64, 79
1, 908722, Control_c, 0, 64, 83
1, 908724, Note_off_c, 0, 64, 64
1, 908737, Control_c, 0, 64, 83
1, 908769, Note_off_c, 0, 57, 37
1, 908840, Control_c, 0, 64, 83
1, 908855, Control_c, 0, 64, 81
1, 908870, Control_c, 0, 64, 77
1, 908885, Control_c, 0, 64, 73
1, 908899, Control_c, 0, 64, 69
1, 908908, Note_on_c, 0, 74, 66
1, 908914, Control_c, 0, 64, 67
1, 908929, Control_c, 0, 64, 65
1, 908934, Note_on_c, 0, 66, 59
1, 908935, Note_off_c, 0, 73, 56
1, 908944, Control_c, 0, 64, 63
1, 908957, Note_on_c, 0, 57, 32
1, 908959, Control_c, 0, 64, 61
1, 908961, Note_on_c, 0, 50, 38
1, 908974, Control_c, 0, 64, 56
1, 908996, Control_c, 0, 64, 46
1, 909011, Control_c, 0, 64, 0
1, 909050, Note_off_c, 0, 45, 43
1, 909410, Note_on_c, 0, 78, 66
1, 909427, Control_c, 0, 64, 53
1, 909441, Control_c, 0, 64, 63
1, 909447, Note_off_c, 0, 66, 61
1, 909449, Note_off_c, 0, 50, 55
1, 909456, Control_c, 0, 64, 66
1, 909459, Note_off_c, 0, 74, 61
1, 909471, Control_c, 0, 64, 70
1, 909486, Control_c, 0, 64, 76
1, 909494, Note_off_c, 0, 57, 58
1, 909501, Control_c, 0, 64, 84
1, 909515, Control_c, 0, 64, 90
1, 909530, Control_c, 0, 64, 94
1, 909545, Control_c, 0, 64, 98
1, 909558, Note_off_c, 0, 78, 62
1, 909560, Control_c, 0, 64, 100
1, 909574, Control_c, 0, 64, 101
1, 909589, Control_c, 0, 64, 102
1, 909848, Control_c, 0, 64, 101
1, 909863, Control_c, 0, 64, 100
1, 909878, Control_c, 0, 64, 98
1, 909892, Control_c, 0, 64, 96
1, 909907, Control_c, 0, 64, 92
1, 909922, Control_c, 0, 64, 89
1, 909937, Control_c, 0, 64, 85
1, 909952, Control_c, 0, 64, 81
1, 909963, Note_on_c, 0, 81, 61
1, 909967, Control_c, 0, 64, 79
1, 909981, Control_c, 0, 64, 76
1, 909986, Note_on_c, 0, 76, 43
1, 909996, Control_c, 0, 64, 74
1, 910011, Control_c, 0, 64, 71
1, 910026, Control_c, 0, 64, 67
1, 910041, Note_on_c, 0, 69, 43
1, 910041, Control_c, 0, 64, 64
1, 910056, Control_c, 0, 64, 60
1, 910065, Note_on_c, 0, 61, 33
1, 910071, Control_c, 0, 64, 52
1, 910085, Control_c, 0, 64, 31
1, 910100, Control_c, 0, 64, 0
1, 910220, Control_c, 0, 67, 8
1, 910234, Control_c, 0, 64, 42
1, 910249, Control_c, 0, 64, 58
1, 910249, Control_c, 0, 67, 8
1, 910264, Control_c, 0, 64, 62
1, 910279, Control_c, 0, 64, 63
1, 910294, Control_c, 0, 64, 65
1, 910309, Control_c, 0, 64, 66
1, 910323, Control_c, 0, 64, 69
1, 910338, Control_c, 0, 64, 73
1, 910353, Control_c, 0, 64, 76
1, 910363, Note_on_c, 0, 64, 48
1, 910368, Control_c, 0, 64, 78
1, 910383, Control_c, 0, 64, 80
1, 910392, Note_off_c, 0, 76, 60
1, 910397, Control_c, 0, 64, 83
1, 910412, Control_c, 0, 64, 85
1, 910427, Control_c, 0, 64, 86
1, 910442, Control_c, 0, 64, 87
1, 910457, Control_c, 0, 64, 89
1, 910457, Control_c, 0, 67, 9
1, 910467, Note_off_c, 0, 81, 49
1, 910471, Control_c, 0, 64, 90
1, 910493, Note_off_c, 0, 69, 55
1, 910494, Control_c, 0, 64, 90
1, 910509, Control_c, 0, 64, 91
1, 910538, Control_c, 0, 67, 9
1, 910553, Control_c, 0, 67, 10
1, 910583, Control_c, 0, 67, 10
1, 910597, Control_c, 0, 67, 13
1, 910612, Control_c, 0, 67, 15
1, 910627, Control_c, 0, 67, 17
1, 910642, Control_c, 0, 64, 90
1, 910642, Control_c, 0, 67, 18
1, 910657, Control_c, 0, 67, 20
1, 910671, Control_c, 0, 64, 90
1, 910671, Control_c, 0, 67, 21
1, 910686, Control_c, 0, 64, 88
1, 910686, Control_c, 0, 67, 23
1, 910701, Control_c, 0, 64, 87
1, 910701, Control_c, 0, 67, 25
1, 910715, Control_c, 0, 64, 86
1, 910715, Control_c, 0, 67, 26
1, 910730, Note_on_c, 0, 81, 48
1, 910730, Control_c, 0, 64, 84
1, 910730, Control_c, 0, 67, 27
1, 910745, Control_c, 0, 64, 83
1, 910745, Control_c, 0, 67, 28
1, 910748, Note_on_c, 0, 74, 40
1, 910760, Control_c, 0, 64, 81
1, 910760, Control_c, 0, 67, 29
1, 910775, Control_c, 0, 64, 78
1, 910775, Control_c, 0, 67, 29
1, 910789, Control_c, 0, 64, 76
1, 910789, Control_c, 0, 67, 30
1, 910804, Control_c, 0, 64, 75
1, 910804, Control_c, 0, 67, 31
1, 910819, Note_on_c, 0, 66, 43
1, 910819, Control_c, 0, 64, 73
1, 910819, Control_c, 0, 67, 32
1, 910834, Control_c, 0, 64, 71
1, 910834, Control_c, 0, 67, 33
1, 910839, Note_on_c, 0, 59, 32
1, 910849, Control_c, 0, 64, 69
1, 910849, Control_c, 0, 67, 34
1, 910863, Control_c, 0, 64, 66
1, 910863, Control_c, 0, 67, 35
1, 910878, Control_c, 0, 64, 62
1, 910878, Control_c, 0, 67, 36
1, 910885, Note_off_c, 0, 64, 34
1, 910893, Control_c, 0, 64, 36
1, 910893, Control_c, 0, 67, 37
1, 910908, Control_c, 0, 64, 0
1, 910908, Control_c, 0, 67, 38
1, 910924, Control_c, 0, 67, 39
1, 910938, Control_c, 0, 67, 40
1, 910944, Note_off_c, 0, 61, 41
1, 910953, Control_c, 0, 67, 41
1, 910968, Control_c, 0, 67, 42
1, 910983, Control_c, 0, 67, 43
1, 910998, Control_c, 0, 67, 43
1, 911013, Control_c, 0, 67, 44
1, 911027, Control_c, 0, 64, 48
1, 911027, Control_c, 0, 67, 46
1, 911042, Control_c, 0, 64, 58
1, 911042, Control_c, 0, 67, 49
1, 911057, Control_c, 0, 64, 59
1, 911057, Control_c, 0, 67, 52
1, 911072, Control_c, 0, 67, 53
1, 911087, Control_c, 0, 64, 60
1, 911087, Control_c, 0, 67, 54
1, 911102, Control_c, 0, 67, 56
1, 911117, Control_c, 0, 67, 58
1, 911132, Control_c, 0, 67, 59
1, 911146, Control_c, 0, 67, 60
1, 911161, Control_c, 0, 67, 62
1, 911176, Control_c, 0, 67, 64
1, 911191, Control_c, 0, 67, 66
1, 911206, Control_c, 0, 67, 69
1, 911220, Control_c, 0, 64, 60
1, 911220, Control_c, 0, 67, 72
1, 911242, Control_c, 0, 67, 76
1, 911257, Control_c, 0, 67, 79
1, 911260, Note_off_c, 0, 81, 55
1, 911272, Control_c, 0, 64, 61
1, 911272, Control_c, 0, 67, 83
1, 911287, Control_c, 0, 67, 86
1, 911294, Note_on_c, 0, 80, 48
1, 911302, Control_c, 0, 64, 61
1, 911302, Control_c, 0, 67, 88
1, 911317, Control_c, 0, 67, 89
1, 911331, Control_c, 0, 64, 62
1, 911331, Control_c, 0, 67, 91
1, 911346, Control_c, 0, 64, 63
1, 911346, Control_c, 0, 67, 93
1, 911361, Control_c, 0, 64, 64
1, 911361, Control_c, 0, 67, 94
1, 911376, Control_c, 0, 64, 64
1, 911376, Control_c, 0, 67, 96
1, 911384, Note_off_c, 0, 80, 62
1, 911385, Note_on_c, 0, 81, 64
1, 911391, Control_c, 0, 64, 65
1, 911391, Control_c, 0, 67, 97
1, 911406, Control_c, 0, 67, 98
1, 911420, Control_c, 0, 64, 65
1, 911420, Control_c, 0, 67, 99
1, 911450, Control_c, 0, 67, 99
1, 911454, Note_off_c, 0, 74, 57
1, 911471, Note_off_c, 0, 81, 57
1, 911479, Control_c, 0, 64, 66
1, 911496, Note_on_c, 0, 80, 57
1, 911518, Note_on_c, 0, 75, 55
1, 911555, Note_off_c, 0, 66, 64
1, 911579, Note_off_c, 0, 75, 0
1, 911579, Note_on_c, 0, 75, 32
1, 911579, Note_off_c, 0, 80, 58
1, 911582, Note_on_c, 0, 81, 69
1, 911612, Control_c, 0, 67, 100
1, 911642, Control_c, 0, 64, 65
1, 911671, Control_c, 0, 64, 65
1, 911671, Control_c, 0, 67, 100
1, 911701, Control_c, 0, 64, 64
1, 911717, Control_c, 0, 64, 64
1, 911732, Control_c, 0, 64, 61
1, 911733, Note_off_c, 0, 75, 52
1, 911746, Note_off_c, 0, 59, 43
1, 911746, Note_off_c, 0, 81, 59
1, 911747, Control_c, 0, 64, 50
1, 911747, Control_c, 0, 67, 101
1, 911750, Note_on_c, 0, 85, 57
1, 911761, Control_c, 0, 64, 0
1, 911773, Note_on_c, 0, 64, 46
1, 911790, Note_on_c, 0, 76, 31
1, 911792, Note_on_c, 0, 52, 36
1, 911836, Control_c, 0, 67, 100
1, 911850, Control_c, 0, 64, 35
1, 911865, Control_c, 0, 64, 62
1, 911880, Control_c, 0, 64, 68
1, 911895, Control_c, 0, 64, 73
1, 911910, Control_c, 0, 64, 77
1, 911925, Control_c, 0, 64, 80
1, 911934, Note_off_c, 0, 64, 37
1, 911940, Control_c, 0, 64, 82
1, 911954, Control_c, 0, 64, 82
1, 912021, Control_c, 0, 67, 101
1, 912024, Note_on_c, 0, 83, 52
1, 912033, Note_off_c, 0, 85, 55
1, 912035, Note_on_c, 0, 80, 49
1, 912036, Note_on_c, 0, 62, 50
1, 912036, Control_c, 0, 64, 81
1, 912050, Control_c, 0, 64, 77
1, 912065, Control_c, 0, 64, 73
1, 912065, Control_c, 0, 67, 101
1, 912080, Control_c, 0, 64, 68
1, 912089, Note_off_c, 0, 76, 42
1, 912095, Control_c, 0, 64, 64
1, 912095, Control_c, 0, 67, 102
1, 912109, Control_c, 0, 64, 61
1, 912124, Control_c, 0, 64, 52
1, 912124, Control_c, 0, 67, 103
1, 912139, Control_c, 0, 64, 8
1, 912139, Control_c, 0, 67, 105
1, 912154, Control_c, 0, 64, 0
1, 912154, Control_c, 0, 67, 106
1, 912169, Control_c, 0, 67, 107
1, 912184, Control_c, 0, 67, 108
1, 912199, Control_c, 0, 67, 109
1, 912214, Control_c, 0, 67, 110
1, 912229, Control_c, 0, 67, 112
1, 912243, Control_c, 0, 67, 114
1, 912258, Control_c, 0, 67, 115
1, 912273, Control_c, 0, 67, 117
1, 912287, Control_c, 0, 67, 119
1, 912302, Control_c, 0, 67, 121
1, 912317, Control_c, 0, 67, 124
1, 912332, Control_c, 0, 67, 126
1, 912347, Control_c, 0, 67, 127
1, 912417, Note_on_c, 0, 61, 40
1, 912422, Note_on_c, 0, 81, 42
1, 912425, Note_on_c, 0, 57, 34
1, 912442, Note_off_c, 0, 83, 35
1, 912461, Note_off_c, 0, 80, 52
1, 912485, Note_off_c, 0, 62, 39
1, 912486, Note_off_c, 0, 52, 42
1, 912718, Control_c, 0, 64, 36
1, 912732, Control_c, 0, 64, 56
1, 912755, Control_c, 0, 64, 63
1, 912770, Control_c, 0, 64, 64
1, 912785, Control_c, 0, 64, 66
1, 912799, Control_c, 0, 64, 69
1, 912814, Control_c, 0, 64, 73
1, 912829, Control_c, 0, 64, 79
1, 912844, Control_c, 0, 64, 85
1, 912859, Control_c, 0, 64, 89
1, 912873, Control_c, 0, 64, 94
1, 912888, Control_c, 0, 64, 99
1, 912893, Note_off_c, 0, 61, 44
1, 912903, Control_c, 0, 64, 105
1, 912908, Note_off_c, 0, 57, 40
1, 912917, Control_c, 0, 64, 111
1, 912932, Control_c, 0, 64, 121
1, 912947, Control_c, 0, 64, 127
1, 913025, Note_off_c, 0, 81, 32
1, 913155, Control_c, 0, 67, 127
1, 913170, Control_c, 0, 67, 126
1, 913184, Control_c, 0, 67, 125
1, 913199, Control_c, 0, 67, 124
1, 913214, Control_c, 0, 67, 123
1, 913229, Control_c, 0, 67, 122
1, 913243, Control_c, 0, 67, 121
1, 913258, Control_c, 0, 67, 121
1, 913273, Control_c, 0, 67, 120
1, 913319, Control_c, 0, 67, 119
1, 913333, Control_c, 0, 67, 118
1, 913348, Control_c, 0, 64, 109
1, 913348, Control_c, 0, 67, 116
1, 913363, Control_c, 0, 64, 97
1, 913363, Control_c, 0, 67, 114
1, 913378, Control_c, 0, 64, 88
1, 913378, Control_c, 0, 67, 113
1, 913393, Control_c, 0, 64, 80
1, 913393, Control_c, 0, 67, 112
1, 913407, Control_c, 0, 64, 73
1, 913407, Control_c, 0, 67, 111
1, 913422, Control_c, 0, 64, 66
1, 913437, Control_c, 0, 64, 61
1, 913437, Control_c, 0, 67, 110
1, 913452, Control_c, 0, 64, 51
1, 913452, Control_c, 0, 67, 110
1, 913467, Control_c, 0, 64, 34
1, 913489, Control_c, 0, 64, 17
1, 913504, Control_c, 0, 64, 0
1, 913519, Control_c, 0, 67, 109
1, 913534, Control_c, 0, 67, 109
1, 913548, Control_c, 0, 67, 108
1, 913563, Control_c, 0, 67, 105
1, 913578, Control_c, 0, 67, 102
1, 913582, Note_on_c, 0, 81, 43
1, 913593, Control_c, 0, 67, 100
1, 913608, Control_c, 0, 67, 99
1, 913609, Note_on_c, 0, 69, 22
1, 913622, Control_c, 0, 67, 98
1, 913637, Control_c, 0, 67, 98
1, 913652, Control_c, 0, 67, 97
1, 913667, Control_c, 0, 67, 95
1, 913682, Control_c, 0, 67, 94
1, 913696, Control_c, 0, 67, 92
1, 913711, Control_c, 0, 67, 90
1, 913726, Control_c, 0, 67, 88
1, 913740, Control_c, 0, 67, 85
1, 913755, Control_c, 0, 67, 82
1, 913770, Control_c, 0, 67, 81
1, 913785, Control_c, 0, 67, 80
1, 913800, Control_c, 0, 67, 79
1, 913815, Control_c, 0, 67, 78
1, 913829, Control_c, 0, 67, 77
1, 913835, Note_on_c, 0, 83, 62
1, 913844, Control_c, 0, 67, 76
1, 913859, Note_on_c, 0, 71, 34
1, 913859, Control_c, 0, 67, 75
1, 913874, Control_c, 0, 67, 74
1, 913883, Note_off_c, 0, 69, 46
1, 913889, Control_c, 0, 67, 73
1, 913904, Control_c, 0, 67, 73
1, 913904, Note_off_c, 0, 81, 54
1, 913919, Control_c, 0, 67, 72
1, 913948, Control_c, 0, 67, 71
1, 913978, Control_c, 0, 64, 40
1, 913978, Control_c, 0, 67, 71
1, 913993, Control_c, 0, 64, 54
1, 914007, Control_c, 0, 64, 61
1, 914022, Control_c, 0, 64, 64
1, 914022, Control_c, 0, 67, 70
1, 914037, Control_c, 0, 64, 66
1, 914050, Note_off_c, 0, 71, 43
1, 914052, Control_c, 0, 64, 69
1, 914052, Control_c, 0, 67, 69
1, 914053, Note_on_c, 0, 85, 67
1, 914066, Note_on_c, 0, 73, 41
1, 914066, Control_c, 0, 64, 75
1, 914066, Control_c, 0, 67, 68
1, 914081, Control_c, 0, 64, 82
1, 914081, Control_c, 0, 67, 67
1, 914083, Note_off_c, 0, 83, 61
1, 914096, Control_c, 0, 64, 89
1, 914096, Control_c, 0, 67, 67
1, 914112, Control_c, 0, 64, 97
1, 914112, Control_c, 0, 67, 66
1, 914127, Control_c, 0, 64, 109
1, 914142, Control_c, 0, 64, 127
1, 914156, Control_c, 0, 67, 65
1, 914165, Note_off_c, 0, 73, 52
1, 914171, Control_c, 0, 67, 65
1, 914201, Control_c, 0, 67, 65
1, 914213, Note_off_c, 0, 85, 46
1, 914216, Control_c, 0, 67, 66
1, 914253, Control_c, 0, 67, 67
1, 914268, Control_c, 0, 67, 68
1, 914283, Control_c, 0, 67, 69
1, 914297, Control_c, 0, 67, 70
1, 914312, Control_c, 0, 67, 70
1, 914327, Control_c, 0, 67, 71
1, 914342, Control_c, 0, 67, 72
1, 914357, Control_c, 0, 67, 73
1, 914371, Control_c, 0, 67, 74
1, 914386, Control_c, 0, 67, 74
1, 914401, Control_c, 0, 67, 75
1, 914416, Control_c, 0, 67, 76
1, 914431, Control_c, 0, 67, 77
1, 914460, Control_c, 0, 67, 77
1, 914464, Note_on_c, 0, 86, 64
1, 914475, Control_c, 0, 67, 78
1, 914504, Control_c, 0, 67, 78
1, 914519, Control_c, 0, 64, 107
1, 914519, Control_c, 0, 67, 79
1, 914521, Note_on_c, 0, 74, 36
1, 914534, Control_c, 0, 64, 100
1, 914544, Note_on_c, 0, 62, 34
1, 914545, Note_on_c, 0, 66, 33
1, 914549, Control_c, 0, 64, 94
1, 914563, Control_c, 0, 64, 89
1, 914563, Control_c, 0, 67, 79
1, 914578, Control_c, 0, 64, 84
1, 914578, Control_c, 0, 67, 80
1, 914593, Control_c, 0, 64, 80
1, 914608, Control_c, 0, 64, 75
1, 914623, Control_c, 0, 64, 68
1, 914637, Control_c, 0, 64, 63
1, 914652, Control_c, 0, 64, 49
1, 914667, Control_c, 0, 64, 0
1, 914757, Control_c, 0, 64, 8
1, 914757, Control_c, 0, 67, 80
1, 914771, Control_c, 0, 64, 54
1, 914786, Control_c, 0, 64, 63
1, 914786, Control_c, 0, 67, 81
1, 914801, Control_c, 0, 64, 66
1, 914801, Control_c, 0, 67, 81
1, 914816, Control_c, 0, 64, 69
1, 914816, Control_c, 0, 67, 83
1, 914830, Control_c, 0, 64, 73
1, 914830, Control_c, 0, 67, 85
1, 914845, Control_c, 0, 64, 79
1, 914845, Control_c, 0, 67, 86
1, 914860, Control_c, 0, 64, 84
1, 914860, Control_c, 0, 67, 87
1, 914875, Control_c, 0, 64, 87
1, 914875, Control_c, 0, 67, 87
1, 914889, Control_c, 0, 64, 88
1, 914889, Control_c, 0, 67, 88
1, 914905, Control_c, 0, 64, 89
1, 914905, Control_c, 0, 67, 89
1, 914920, Control_c, 0, 64, 89
1, 914920, Control_c, 0, 67, 91
1, 914935, Control_c, 0, 64, 90
1, 914935, Control_c, 0, 67, 94
1, 914950, Control_c, 0, 64, 90
1, 914950, Control_c, 0, 67, 96
1, 914957, Note_off_c, 0, 62, 41
1, 914965, Control_c, 0, 67, 99
1, 914986, Control_c, 0, 67, 101
1, 915001, Control_c, 0, 67, 103
1, 915016, Control_c, 0, 67, 105
1, 915031, Control_c, 0, 67, 107
1, 915046, Control_c, 0, 67, 109
1, 915061, Control_c, 0, 67, 111
1, 915075, Control_c, 0, 67, 114
1, 915090, Control_c, 0, 67, 116
1, 915105, Control_c, 0, 67, 119
1, 915120, Control_c, 0, 67, 123
1, 915135, Control_c, 0, 67, 126
1, 915150, Control_c, 0, 67, 127
1, 915268, Note_off_c, 0, 86, 58
1, 915275, Note_off_c, 0, 74, 51
1, 915299, Note_on_c, 0, 85, 52
1, 915305, Note_on_c, 0, 73, 44
1, 915366, Note_off_c, 0, 85, 57
1, 915378, Note_off_c, 0, 73, 39
1, 915397, Note_on_c, 0, 86, 55
1, 915409, Note_on_c, 0, 74, 50
1, 915462, Note_off_c, 0, 86, 60
1, 915463, Note_off_c, 0, 74, 61
1, 915480, Note_on_c, 0, 90, 70
1, 915504, Note_on_c, 0, 78, 44
1, 915557, Note_off_c, 0, 78, 44
1, 915579, Note_on_c, 0, 74, 53
1, 915582, Note_on_c, 0, 86, 64
1, 915608, Note_off_c, 0, 74, 61
1, 915637, Note_off_c, 0, 90, 33
1, 915658, Note_on_c, 0, 85, 64
1, 915668, Control_c, 0, 67, 126
1, 915672, Note_on_c, 0, 73, 50
1, 915683, Control_c, 0, 67, 123
1, 915694, Note_off_c, 0, 73, 61
1, 915698, Control_c, 0, 67, 120
1, 915711, Note_off_c, 0, 86, 32
1, 915713, Control_c, 0, 67, 117
1, 915731, Note_off_c, 0, 66, 50
1, 915735, Control_c, 0, 67, 114
1, 915745, Note_off_c, 0, 85, 58
1, 915750, Control_c, 0, 67, 109
1, 915764, Note_on_c, 0, 83, 64
1, 915765, Control_c, 0, 67, 104
1, 915779, Note_on_c, 0, 71, 43
1, 915780, Control_c, 0, 67, 99
1, 915795, Control_c, 0, 67, 95
1, 915809, Control_c, 0, 67, 92
1, 915824, Control_c, 0, 67, 88
1, 915839, Control_c, 0, 67, 83
1, 915854, Control_c, 0, 67, 78
1, 915869, Control_c, 0, 64, 89
1, 915869, Control_c, 0, 67, 72
1, 915883, Control_c, 0, 64, 87
1, 915883, Control_c, 0, 67, 68
1, 915898, Control_c, 0, 64, 85
1, 915898, Control_c, 0, 67, 65
1, 915913, Control_c, 0, 64, 83
1, 915913, Control_c, 0, 67, 62
1, 915928, Control_c, 0, 64, 80
1, 915928, Control_c, 0, 67, 61
1, 915943, Control_c, 0, 64, 77
1, 915943, Control_c, 0, 67, 60
1, 915951, Note_on_c, 0, 81, 61
1, 915958, Control_c, 0, 64, 74
1, 915958, Control_c, 0, 67, 59
1, 915964, Note_off_c, 0, 83, 56
1, 915973, Control_c, 0, 64, 71
1, 915973, Control_c, 0, 67, 59
1, 915988, Control_c, 0, 64, 68
1, 915988, Control_c, 0, 67, 58
1, 915993, Note_on_c, 0, 69, 36
1, 915994, Note_on_c, 0, 64, 30
1, 916003, Control_c, 0, 64, 66
1, 916003, Control_c, 0, 67, 57
1, 916008, Note_on_c, 0, 61, 31
1, 916017, Control_c, 0, 64, 63
1, 916032, Control_c, 0, 64, 60
1, 916047, Control_c, 0, 64, 52
1, 916061, Control_c, 0, 64, 42
1, 916072, Note_off_c, 0, 71, 42
1, 916076, Control_c, 0, 64, 0
1, 916106, Control_c, 0, 67, 58
1, 916150, Control_c, 0, 67, 58
1, 916165, Control_c, 0, 67, 59
1, 916180, Control_c, 0, 67, 59
1, 916195, Control_c, 0, 67, 60
1, 916209, Control_c, 0, 67, 61
1, 916224, Control_c, 0, 67, 62
1, 916253, Control_c, 0, 67, 62
1, 916283, Control_c, 0, 67, 63
1, 916298, Control_c, 0, 67, 63
1, 916313, Control_c, 0, 67, 64
1, 916327, Control_c, 0, 64, 15
1, 916342, Control_c, 0, 64, 28
1, 916357, Control_c, 0, 64, 35
1, 916357, Control_c, 0, 67, 64
1, 916372, Control_c, 0, 64, 42
1, 916372, Control_c, 0, 67, 65
1, 916387, Control_c, 0, 64, 47
1, 916402, Control_c, 0, 64, 52
1, 916402, Control_c, 0, 67, 66
1, 916417, Control_c, 0, 64, 55
1, 916417, Control_c, 0, 67, 66
1, 916432, Control_c, 0, 64, 60
1, 916432, Control_c, 0, 67, 67
1, 916447, Control_c, 0, 64, 64
1, 916447, Control_c, 0, 67, 68
1, 916461, Control_c, 0, 64, 66
1, 916461, Control_c, 0, 67, 69
1, 916483, Control_c, 0, 64, 67
1, 916483, Control_c, 0, 67, 71
1, 916499, Control_c, 0, 64, 68
1, 916499, Control_c, 0, 67, 73
1, 916515, Control_c, 0, 64, 69
1, 916515, Control_c, 0, 67, 75
1, 916530, Control_c, 0, 67, 77
1, 916545, Control_c, 0, 67, 78
1, 916559, Control_c, 0, 67, 79
1, 916574, Control_c, 0, 67, 80
1, 916589, Control_c, 0, 67, 81
1, 916604, Control_c, 0, 67, 81
1, 916619, Control_c, 0, 67, 82
1, 916652, Note_off_c, 0, 81, 59
1, 916664, Note_off_c, 0, 69, 61
1, 916678, Note_on_c, 0, 80, 55
1, 916685, Note_on_c, 0, 68, 42
1, 916742, Note_off_c, 0, 68, 58
1, 916770, Note_off_c, 0, 80, 61
1, 916786, Note_on_c, 0, 69, 47
1, 916787, Note_on_c, 0, 81, 55
1, 916796, Control_c, 0, 67, 81
1, 916840, Control_c, 0, 67, 81
1, 916843, Note_off_c, 0, 69, 60
1, 916859, Note_off_c, 0, 81, 53
1, 916874, Note_on_c, 0, 70, 52
1, 916876, Note_on_c, 0, 82, 59
1, 916945, Note_off_c, 0, 82, 62
1, 916961, Note_off_c, 0, 70, 38
1, 916968, Note_on_c, 0, 85, 56
1, 916989, Control_c, 0, 67, 81
1, 916992, Note_on_c, 0, 73, 32
1, 917004, Control_c, 0, 67, 82
1, 917028, Note_off_c, 0, 73, 49
1, 917033, Control_c, 0, 67, 82
1, 917043, Note_on_c, 0, 83, 63
1, 917048, Control_c, 0, 67, 83
1, 917055, Note_on_c, 0, 71, 47
1, 917056, Note_off_c, 0, 61, 52
1, 917076, Note_off_c, 0, 85, 56
1, 917092, Control_c, 0, 67, 84
1, 917117, Note_off_c, 0, 83, 59
1, 917122, Control_c, 0, 67, 86
1, 917137, Control_c, 0, 67, 89
1, 917138, Note_on_c, 0, 79, 61
1, 917148, Note_off_c, 0, 71, 51
1, 917151, Control_c, 0, 67, 90
1, 917153, Note_on_c, 0, 67, 45
1, 917153, Note_off_c, 0, 64, 42
1, 917166, Control_c, 0, 64, 68
1, 917166, Control_c, 0, 67, 91
1, 917181, Control_c, 0, 67, 92
1, 917196, Control_c, 0, 64, 68
1, 917196, Control_c, 0, 67, 94
1, 917211, Control_c, 0, 64, 67
1, 917211, Control_c, 0, 67, 95
1, 917233, Control_c, 0, 64, 67
1, 917233, Control_c, 0, 67, 96
1, 917247, Control_c, 0, 64, 66
1, 917247, Control_c, 0, 67, 97
1, 917262, Control_c, 0, 64, 65
1, 917262, Control_c, 0, 67, 98
1, 917277, Control_c, 0, 64, 65
1, 917277, Control_c, 0, 67, 99
1, 917291, Control_c, 0, 64, 64
1, 917300, Note_off_c, 0, 79, 57
1, 917307, Control_c, 0, 64, 64
1, 917307, Control_c, 0, 67, 99
1, 917311, Note_off_c, 0, 67, 56
1, 917316, Note_on_c, 0, 78, 53
1, 917322, Control_c, 0, 64, 63
1, 917322, Control_c, 0, 67, 100
1, 917325, Note_on_c, 0, 66, 49
1, 917337, Control_c, 0, 64, 63
1, 917337, Control_c, 0, 67, 101
1, 917349, Note_on_c, 0, 62, 26
1, 917352, Control_c, 0, 64, 62
1, 917352, Control_c, 0, 67, 102
1, 917367, Control_c, 0, 64, 62
1, 917367, Control_c, 0, 67, 103
1, 917381, Control_c, 0, 64, 61
1, 917381, Control_c, 0, 67, 104
1, 917396, Control_c, 0, 64, 59
1, 917396, Control_c, 0, 67, 104
1, 917411, Control_c, 0, 64, 57
1, 917412, Note_off_c, 0, 78, 62
1, 917426, Control_c, 0, 64, 54
1, 917426, Control_c, 0, 67, 105
1, 917428, Note_on_c, 0, 79, 58
1, 917441, Control_c, 0, 64, 51
1, 917455, Control_c, 0, 64, 50
1, 917470, Control_c, 0, 64, 50
1, 917485, Control_c, 0, 64, 49
1, 917500, Control_c, 0, 64, 48
1, 917505, Note_off_c, 0, 79, 57
1, 917514, Control_c, 0, 64, 48
1, 917517, Note_on_c, 0, 78, 62
1, 917529, Control_c, 0, 64, 45
1, 917544, Control_c, 0, 64, 43
1, 917546, Note_off_c, 0, 78, 62
1, 917559, Control_c, 0, 64, 39
1, 917573, Note_on_c, 0, 76, 62
1, 917574, Control_c, 0, 64, 34
1, 917574, Control_c, 0, 67, 104
1, 917588, Control_c, 0, 64, 29
1, 917603, Control_c, 0, 64, 25
1, 917603, Control_c, 0, 67, 104
1, 917618, Control_c, 0, 64, 17
1, 917624, Note_on_c, 0, 78, 61
1, 917631, Note_off_c, 0, 76, 50
1, 917633, Control_c, 0, 64, 0
1, 917689, Note_off_c, 0, 66, 58
1, 917696, Note_off_c, 0, 62, 49
1, 917705, Note_on_c, 0, 79, 64
1, 917712, Note_on_c, 0, 67, 48
1, 917718, Note_on_c, 0, 64, 33
1, 917726, Note_off_c, 0, 78, 57
1, 917781, Control_c, 0, 67, 103
1, 917796, Control_c, 0, 67, 103
1, 917825, Control_c, 0, 67, 102
1, 917831, Note_off_c, 0, 67, 59
1, 917840, Control_c, 0, 67, 101
1, 917841, Note_on_c, 0, 81, 65
1, 917855, Control_c, 0, 67, 100
1, 917856, Note_off_c, 0, 64, 50
1, 917857, Note_on_c, 0, 69, 39
1, 917862, Note_on_c, 0, 66, 48
1, 917869, Note_off_c, 0, 79, 57
1, 917870, Control_c, 0, 67, 99
1, 917885, Control_c, 0, 67, 98
1, 917899, Control_c, 0, 67, 97
1, 917914, Control_c, 0, 64, 34
1, 917914, Control_c, 0, 67, 97
1, 917929, Control_c, 0, 64, 59
1, 917929, Control_c, 0, 67, 96
1, 917944, Control_c, 0, 64, 65
1, 917944, Control_c, 0, 67, 95
1, 917959, Control_c, 0, 64, 69
1, 917959, Control_c, 0, 67, 95
1, 917981, Control_c, 0, 64, 73
1, 917981, Control_c, 0, 67, 94
1, 917996, Control_c, 0, 64, 79
1, 917996, Control_c, 0, 67, 93
1, 918011, Control_c, 0, 64, 86
1, 918011, Control_c, 0, 67, 92
1, 918026, Control_c, 0, 64, 91
1, 918026, Control_c, 0, 67, 89
1, 918040, Control_c, 0, 64, 95
1, 918040, Control_c, 0, 67, 87
1, 918044, Note_off_c, 0, 66, 65
1, 918055, Control_c, 0, 64, 98
1, 918055, Control_c, 0, 67, 84
1, 918070, Control_c, 0, 64, 99
1, 918070, Control_c, 0, 67, 82
1, 918085, Control_c, 0, 67, 80
1, 918100, Control_c, 0, 67, 78
1, 918116, Control_c, 0, 67, 77
1, 918130, Control_c, 0, 67, 76
1, 918145, Control_c, 0, 67, 75
1, 918160, Control_c, 0, 67, 74
1, 918175, Control_c, 0, 67, 72
1, 918190, Control_c, 0, 67, 71
1, 918204, Control_c, 0, 64, 98
1, 918204, Control_c, 0, 67, 71
1, 918219, Control_c, 0, 64, 97
1, 918234, Control_c, 0, 64, 94
1, 918234, Control_c, 0, 67, 70
1, 918249, Control_c, 0, 64, 89
1, 918263, Control_c, 0, 64, 85
1, 918278, Control_c, 0, 64, 81
1, 918278, Control_c, 0, 67, 69
1, 918293, Control_c, 0, 64, 77
1, 918293, Control_c, 0, 67, 68
1, 918308, Control_c, 0, 64, 73
1, 918308, Control_c, 0, 67, 66
1, 918318, Note_on_c, 0, 83, 69
1, 918323, Control_c, 0, 64, 68
1, 918323, Control_c, 0, 67, 64
1, 918325, Note_on_c, 0, 67, 48
1, 918334, Note_off_c, 0, 69, 51
1, 918337, Control_c, 0, 64, 60
1, 918337, Control_c, 0, 67, 63
1, 918341, Note_on_c, 0, 64, 42
1, 918352, Note_on_c, 0, 71, 39
1, 918352, Control_c, 0, 64, 0
1, 918352, Control_c, 0, 67, 62
1, 918367, Control_c, 0, 67, 61
1, 918382, Control_c, 0, 67, 59
1, 918392, Note_off_c, 0, 81, 55
1, 918397, Control_c, 0, 67, 57
1, 918411, Control_c, 0, 67, 55
1, 918426, Control_c, 0, 67, 53
1, 918441, Control_c, 0, 64, 38
1, 918441, Control_c, 0, 67, 50
1, 918456, Control_c, 0, 64, 59
1, 918456, Control_c, 0, 67, 48
1, 918471, Control_c, 0, 64, 64
1, 918471, Control_c, 0, 67, 44
1, 918486, Control_c, 0, 64, 65
1, 918486, Control_c, 0, 67, 41
1, 918501, Control_c, 0, 64, 66
1, 918501, Control_c, 0, 67, 36
1, 918512, Note_off_c, 0, 71, 63
1, 918515, Control_c, 0, 64, 68
1, 918515, Control_c, 0, 67, 32
1, 918521, Note_on_c, 0, 85, 77
1, 918524, Note_off_c, 0, 67, 59
1, 918530, Control_c, 0, 64, 72
1, 918530, Control_c, 0, 67, 28
1, 918539, Note_on_c, 0, 73, 44
1, 918545, Control_c, 0, 64, 77
1, 918545, Control_c, 0, 67, 25
1, 918554, Note_off_c, 0, 83, 62
1, 918559, Note_off_c, 0, 64, 64
1, 918560, Control_c, 0, 64, 79
1, 918560, Control_c, 0, 67, 21
1, 918575, Control_c, 0, 64, 82
1, 918575, Control_c, 0, 67, 17
1, 918590, Control_c, 0, 64, 86
1, 918590, Control_c, 0, 67, 12
1, 918604, Control_c, 0, 64, 91
1, 918604, Control_c, 0, 67, 0
1, 918619, Control_c, 0, 64, 95
1, 918634, Control_c, 0, 64, 102
1, 918648, Control_c, 0, 64, 106
1, 918662, Note_off_c, 0, 73, 40
1, 918663, Control_c, 0, 64, 107
1, 918671, Note_off_c, 0, 85, 62
1, 918678, Control_c, 0, 64, 108
1, 918775, Control_c, 0, 64, 107
1, 918819, Control_c, 0, 64, 106
1, 918834, Control_c, 0, 64, 102
1, 918849, Control_c, 0, 64, 97
1, 918861, Note_on_c, 0, 85, 73
1, 918864, Control_c, 0, 64, 91
1, 918879, Control_c, 0, 64, 86
1, 918891, Note_on_c, 0, 73, 35
1, 918894, Control_c, 0, 64, 80
1, 918899, Note_on_c, 0, 67, 36
1, 918909, Control_c, 0, 64, 75
1, 918918, Note_on_c, 0, 62, 34
1, 918924, Control_c, 0, 64, 69
1, 918932, Note_on_c, 0, 64, 26
1, 918939, Control_c, 0, 64, 62
1, 918954, Control_c, 0, 64, 34
1, 918969, Control_c, 0, 64, 0
1, 919058, Control_c, 0, 64, 50
1, 919073, Control_c, 0, 64, 63
1, 919087, Control_c, 0, 64, 67
1, 919102, Control_c, 0, 64, 71
1, 919117, Control_c, 0, 64, 76
1, 919117, Control_c, 0, 67, 9
1, 919132, Control_c, 0, 64, 83
1, 919132, Control_c, 0, 67, 11
1, 919147, Control_c, 0, 64, 88
1, 919147, Control_c, 0, 67, 14
1, 919161, Control_c, 0, 64, 92
1, 919161, Control_c, 0, 67, 17
1, 919176, Control_c, 0, 64, 95
1, 919176, Control_c, 0, 67, 22
1, 919191, Control_c, 0, 64, 96
1, 919191, Control_c, 0, 67, 26
1, 919206, Control_c, 0, 64, 97
1, 919206, Control_c, 0, 67, 29
1, 919221, Control_c, 0, 67, 31
1, 919235, Control_c, 0, 64, 97
1, 919235, Control_c, 0, 67, 35
1, 919240, Note_off_c, 0, 73, 49
1, 919250, Control_c, 0, 67, 38
1, 919265, Control_c, 0, 67, 41
1, 919279, Control_c, 0, 67, 44
1, 919287, Note_off_c, 0, 64, 39
1, 919294, Control_c, 0, 67, 47
1, 919309, Control_c, 0, 67, 49
1, 919324, Control_c, 0, 67, 51
1, 919339, Control_c, 0, 64, 90
1, 919339, Control_c, 0, 67, 53
1, 919353, Control_c, 0, 64, 75
1, 919353, Control_c, 0, 67, 54
1, 919368, Control_c, 0, 64, 63
1, 919368, Control_c, 0, 67, 55
1, 919377, Note_off_c, 0, 67, 42
1, 919383, Control_c, 0, 64, 27
1, 919383, Control_c, 0, 67, 56
1, 919398, Note_on_c, 0, 86, 52
1, 919398, Control_c, 0, 64, 0
1, 919398, Control_c, 0, 67, 57
1, 919405, Note_on_c, 0, 74, 32
1, 919413, Control_c, 0, 64, 28
1, 919413, Control_c, 0, 67, 57
1, 919422, Note_on_c, 0, 66, 37
1, 919427, Note_off_c, 0, 85, 62
1, 919428, Control_c, 0, 64, 50
1, 919428, Control_c, 0, 67, 58
1, 919443, Control_c, 0, 64, 60
1, 919457, Control_c, 0, 64, 65
1, 919457, Control_c, 0, 67, 58
1, 919479, Control_c, 0, 64, 68
1, 919487, Note_off_c, 0, 66, 62
1, 919495, Control_c, 0, 64, 69
1, 919496, Note_off_c, 0, 62, 41
1, 919519, Note_off_c, 0, 86, 61
1, 919540, Control_c, 0, 67, 58
1, 919554, Control_c, 0, 67, 57
1, 919560, Note_off_c, 0, 74, 60
1, 919569, Control_c, 0, 64, 68
1, 919569, Control_c, 0, 67, 57
1, 919584, Control_c, 0, 64, 65
1, 919599, Control_c, 0, 64, 53
1, 919613, Control_c, 0, 64, 0
1, 919613, Control_c, 0, 67, 56
1, 919641, Note_on_c, 0, 86, 63
1, 919643, Control_c, 0, 67, 56
1, 919670, Note_on_c, 0, 74, 50
1, 919673, Control_c, 0, 64, 25
1, 919673, Control_c, 0, 67, 55
1, 919687, Control_c, 0, 64, 55
1, 919703, Control_c, 0, 64, 61
1, 919718, Control_c, 0, 64, 61
1, 919723, Note_off_c, 0, 74, 57
1, 919740, Note_on_c, 0, 90, 65
1, 919748, Control_c, 0, 64, 60
1, 919750, Note_off_c, 0, 86, 58
1, 919763, Control_c, 0, 64, 54
1, 919763, Control_c, 0, 67, 55
1, 919764, Note_on_c, 0, 78, 43
1, 919777, Control_c, 0, 64, 8
1, 919788, Note_off_c, 0, 78, 53
1, 919788, Note_off_c, 0, 90, 63
1, 919792, Control_c, 0, 64, 0
1, 919822, Control_c, 0, 67, 54
1, 919836, Note_on_c, 0, 90, 59
1, 919866, Note_on_c, 0, 78, 50
1, 919881, Control_c, 0, 64, 42
1, 919890, Note_off_c, 0, 78, 60
1, 919896, Control_c, 0, 64, 59
1, 919896, Control_c, 0, 67, 53
1, 919911, Control_c, 0, 64, 62
1, 919911, Control_c, 0, 67, 53
1, 919922, Note_on_c, 0, 93, 78
1, 919925, Control_c, 0, 64, 63
1, 919925, Control_c, 0, 67, 52
1, 919940, Control_c, 0, 64, 64
1, 919940, Control_c, 0, 67, 51
1, 919949, Note_on_c, 0, 81, 48
1, 919955, Control_c, 0, 64, 67
1, 919957, Note_off_c, 0, 90, 60
1, 919970, Control_c, 0, 64, 71
1, 919970, Control_c, 0, 67, 49
1, 919985, Control_c, 0, 64, 73
1, 919985, Control_c, 0, 67, 48
1, 920000, Control_c, 0, 64, 76
1, 920000, Control_c, 0, 67, 47
1, 920012, Note_off_c, 0, 81, 57
1, 920015, Control_c, 0, 64, 79
1, 920015, Control_c, 0, 67, 45
1, 920027, Note_on_c, 0, 91, 74
1, 920030, Control_c, 0, 64, 83
1, 920030, Control_c, 0, 67, 42
1, 920032, Note_off_c, 0, 93, 57
1, 920038, Note_on_c, 0, 79, 43
1, 920044, Control_c, 0, 64, 87
1, 920044, Control_c, 0, 67, 40
1, 920059, Control_c, 0, 64, 92
1, 920059, Control_c, 0, 67, 38
1, 920074, Control_c, 0, 64, 100
1, 920074, Control_c, 0, 67, 36
1, 920089, Control_c, 0, 64, 110
1, 920089, Control_c, 0, 67, 34
1, 920103, Control_c, 0, 64, 127
1, 920103, Control_c, 0, 67, 32
1, 920105, Note_off_c, 0, 91, 60
1, 920114, Note_on_c, 0, 90, 75
1, 920115, Note_on_c, 0, 78, 62
1, 920118, Control_c, 0, 67, 28
1, 920133, Control_c, 0, 67, 25
1, 920134, Note_off_c, 0, 78, 66
1, 920137, Note_off_c, 0, 79, 39
1, 920148, Control_c, 0, 67, 23
1, 920161, Note_off_c, 0, 90, 62
1, 920163, Control_c, 0, 67, 23
1, 920222, Control_c, 0, 67, 22
1, 920352, Note_on_c, 0, 90, 75
1, 920363, Control_c, 0, 67, 23
1, 920373, Note_on_c, 0, 78, 46
1, 920403, Note_on_c, 0, 69, 35
1, 920407, Control_c, 0, 64, 112
1, 920410, Note_on_c, 0, 67, 40
1, 920414, Note_off_c, 0, 78, 0
1, 920414, Note_on_c, 0, 78, 17
1, 920422, Control_c, 0, 64, 104
1, 920422, Control_c, 0, 67, 23
1, 920436, Control_c, 0, 64, 98
1, 920436, Control_c, 0, 67, 24
1, 920451, Control_c, 0, 64, 91
1, 920451, Control_c, 0, 67, 24
1, 920466, Control_c, 0, 64, 85
1, 920466, Control_c, 0, 67, 25
1, 920481, Control_c, 0, 64, 77
1, 920496, Control_c, 0, 64, 66
1, 920512, Control_c, 0, 64, 49
1, 920526, Control_c, 0, 64, 0
1, 920541, Control_c, 0, 67, 25
1, 920556, Control_c, 0, 67, 26
1, 920571, Control_c, 0, 67, 27
1, 920586, Control_c, 0, 67, 29
1, 920600, Control_c, 0, 64, 31
1, 920600, Control_c, 0, 67, 30
1, 920615, Control_c, 0, 64, 57
1, 920615, Control_c, 0, 67, 31
1, 920630, Control_c, 0, 64, 63
1, 920630, Control_c, 0, 67, 32
1, 920645, Control_c, 0, 64, 66
1, 920645, Control_c, 0, 67, 33
1, 920659, Control_c, 0, 64, 68
1, 920659, Control_c, 0, 67, 34
1, 920674, Control_c, 0, 64, 71
1, 920674, Control_c, 0, 67, 34
1, 920689, Control_c, 0, 64, 75
1, 920689, Control_c, 0, 67, 35
1, 920704, Control_c, 0, 64, 78
1, 920719, Control_c, 0, 64, 80
1, 920719, Control_c, 0, 67, 36
1, 920733, Control_c, 0, 64, 82
1, 920733, Control_c, 0, 67, 37
1, 920748, Control_c, 0, 64, 85
1, 920748, Control_c, 0, 67, 38
1, 920763, Control_c, 0, 64, 87
1, 920763, Control_c, 0, 67, 40
1, 920778, Control_c, 0, 64, 90
1, 920778, Control_c, 0, 67, 43
1, 920793, Control_c, 0, 64, 91
1, 920793, Control_c, 0, 67, 46
1, 920808, Control_c, 0, 67, 49
1, 920823, Control_c, 0, 64, 89
1, 920823, Control_c, 0, 67, 53
1, 920838, Control_c, 0, 64, 76
1, 920838, Control_c, 0, 67, 56
1, 920852, Control_c, 0, 64, 65
1, 920852, Control_c, 0, 67, 57
1, 920867, Control_c, 0, 64, 56
1, 920867, Control_c, 0, 67, 58
1, 920882, Control_c, 0, 64, 54
1, 920897, Control_c, 0, 64, 60
1, 920897, Control_c, 0, 67, 58
1, 920912, Control_c, 0, 64, 63
1, 920914, Note_on_c, 0, 88, 53
1, 920924, Note_on_c, 0, 76, 38
1, 920926, Control_c, 0, 64, 66
1, 920926, Control_c, 0, 67, 59
1, 920934, Note_off_c, 0, 78, 56
1, 920938, Note_off_c, 0, 90, 52
1, 920940, Note_off_c, 0, 69, 60
1, 920941, Control_c, 0, 64, 68
1, 920941, Control_c, 0, 67, 59
1, 920956, Control_c, 0, 64, 69
1, 920956, Control_c, 0, 67, 60
1, 920978, Control_c, 0, 67, 61
1, 920987, Note_off_c, 0, 67, 55
1, 920992, Control_c, 0, 67, 62
1, 920995, Note_off_c, 0, 76, 50
1, 921006, Control_c, 0, 67, 63
1, 921036, Control_c, 0, 67, 63
1, 921042, Note_off_c, 0, 88, 34
1, 921051, Control_c, 0, 64, 68
1, 921051, Control_c, 0, 67, 64
1, 921065, Control_c, 0, 64, 67
1, 921065, Control_c, 0, 67, 64
1, 921080, Control_c, 0, 64, 67
1, 921080, Control_c, 0, 67, 65
1, 921095, Control_c, 0, 64, 66
1, 921095, Control_c, 0, 67, 66
1, 921110, Control_c, 0, 64, 65
1, 921110, Control_c, 0, 67, 67
1, 921124, Control_c, 0, 64, 65
1, 921124, Control_c, 0, 67, 67
1, 921138, Note_on_c, 0, 71, 44
1, 921139, Control_c, 0, 64, 64
1, 921150, Note_on_c, 0, 83, 46
1, 921154, Control_c, 0, 64, 63
1, 921184, Control_c, 0, 64, 63
1, 921199, Control_c, 0, 64, 62
1, 921213, Control_c, 0, 64, 62
1, 921242, Note_on_c, 0, 85, 57
1, 921243, Control_c, 0, 64, 61
1, 921245, Note_off_c, 0, 71, 54
1, 921252, Note_off_c, 0, 83, 59
1, 921255, Note_on_c, 0, 73, 51
1, 921258, Control_c, 0, 64, 61
1, 921288, Control_c, 0, 64, 60
1, 921291, Note_off_c, 0, 73, 64
1, 921303, Control_c, 0, 64, 59
1, 921318, Control_c, 0, 64, 58
1, 921327, Note_off_c, 0, 85, 64
1, 921333, Control_c, 0, 64, 58
1, 921336, Note_on_c, 0, 86, 63
1, 921347, Control_c, 0, 64, 57
1, 921348, Note_on_c, 0, 74, 41
1, 921362, Control_c, 0, 64, 54
1, 921377, Control_c, 0, 64, 48
1, 921392, Control_c, 0, 64, 39
1, 921407, Control_c, 0, 64, 31
1, 921410, Note_off_c, 0, 74, 53
1, 921422, Control_c, 0, 64, 34
1, 921425, Note_on_c, 0, 73, 49
1, 921426, Note_on_c, 0, 85, 63
1, 921432, Note_off_c, 0, 86, 55
1, 921437, Control_c, 0, 64, 36
1, 921452, Control_c, 0, 64, 38
1, 921467, Control_c, 0, 64, 38
1, 921481, Control_c, 0, 64, 39
1, 921505, Note_on_c, 0, 83, 66
1, 921517, Note_off_c, 0, 73, 52
1, 921531, Note_on_c, 0, 71, 44
1, 921541, Control_c, 0, 64, 38
1, 921568, Note_off_c, 0, 85, 48
1, 921570, Control_c, 0, 64, 37
1, 921587, Note_off_c, 0, 83, 57
1, 921597, Note_on_c, 0, 81, 68
1, 921607, Note_off_c, 0, 71, 61
1, 921619, Note_on_c, 0, 69, 48
1, 921629, Control_c, 0, 64, 37
1, 921644, Control_c, 0, 64, 36
1, 921658, Note_off_c, 0, 69, 61
1, 921659, Control_c, 0, 64, 34
1, 921673, Control_c, 0, 64, 33
1, 921688, Control_c, 0, 64, 31
1, 921688, Control_c, 0, 67, 67
1, 921690, Note_off_c, 0, 81, 55
1, 921703, Control_c, 0, 64, 26
1, 921726, Control_c, 0, 64, 19
1, 921726, Control_c, 0, 67, 66
1, 921741, Control_c, 0, 64, 0
1, 921741, Control_c, 0, 67, 65
1, 921770, Control_c, 0, 67, 65
1, 921799, Control_c, 0, 67, 64
1, 921814, Control_c, 0, 67, 64
1, 921818, Note_on_c, 0, 88, 63
1, 921829, Control_c, 0, 67, 63
1, 921835, Note_on_c, 0, 76, 42
1, 921844, Control_c, 0, 67, 62
1, 921859, Control_c, 0, 67, 62
1, 921861, Note_on_c, 0, 66, 35
1, 921865, Note_on_c, 0, 69, 17
1, 921933, Control_c, 0, 67, 61
1, 921962, Control_c, 0, 67, 61
1, 921992, Control_c, 0, 64, 51
1, 921992, Control_c, 0, 67, 60
1, 922006, Control_c, 0, 64, 61
1, 922021, Control_c, 0, 64, 64
1, 922036, Control_c, 0, 64, 66
1, 922036, Control_c, 0, 67, 61
1, 922051, Control_c, 0, 64, 68
1, 922066, Control_c, 0, 64, 72
1, 922066, Control_c, 0, 67, 61
1, 922081, Control_c, 0, 64, 77
1, 922081, Control_c, 0, 67, 62
1, 922096, Control_c, 0, 64, 80
1, 922111, Control_c, 0, 64, 81
1, 922126, Control_c, 0, 64, 82
1, 922126, Control_c, 0, 67, 62
1, 922141, Control_c, 0, 64, 83
1, 922141, Control_c, 0, 67, 63
1, 922156, Control_c, 0, 64, 83
1, 922156, Control_c, 0, 67, 63
1, 922170, Control_c, 0, 64, 84
1, 922170, Control_c, 0, 67, 64
1, 922185, Control_c, 0, 64, 85
1, 922185, Control_c, 0, 67, 64
1, 922200, Control_c, 0, 64, 85
1, 922200, Control_c, 0, 67, 65
1, 922245, Control_c, 0, 64, 81
1, 922245, Control_c, 0, 67, 65
1, 922259, Control_c, 0, 64, 71
1, 922274, Control_c, 0, 64, 62
1, 922274, Control_c, 0, 67, 66
1, 922289, Control_c, 0, 64, 55
1, 922304, Control_c, 0, 64, 55
1, 922319, Control_c, 0, 64, 59
1, 922334, Control_c, 0, 64, 62
1, 922349, Control_c, 0, 64, 64
1, 922362, Note_off_c, 0, 76, 49
1, 922364, Control_c, 0, 64, 66
1, 922372, Note_on_c, 0, 86, 42
1, 922378, Note_on_c, 0, 74, 45
1, 922378, Control_c, 0, 64, 68
1, 922391, Note_off_c, 0, 88, 60
1, 922393, Control_c, 0, 64, 69
1, 922402, Note_off_c, 0, 86, 59
1, 922408, Control_c, 0, 64, 69
1, 922408, Control_c, 0, 67, 65
1, 922422, Control_c, 0, 67, 65
1, 922436, Note_off_c, 0, 74, 63
1, 922453, Note_off_c, 0, 69, 44
1, 922489, Note_off_c, 0, 66, 59
1, 922519, Control_c, 0, 67, 65
1, 922534, Control_c, 0, 67, 66
1, 922578, Control_c, 0, 64, 69
1, 922593, Control_c, 0, 64, 68
1, 922622, Control_c, 0, 64, 68
1, 922637, Control_c, 0, 64, 67
1, 922652, Control_c, 0, 64, 66
1, 922659, Note_on_c, 0, 69, 55
1, 922667, Control_c, 0, 64, 64
1, 922678, Note_on_c, 0, 57, 34
1, 922682, Control_c, 0, 64, 63
1, 922689, Note_on_c, 0, 54, 31
1, 922696, Control_c, 0, 64, 62
1, 922711, Control_c, 0, 64, 61
1, 922726, Control_c, 0, 64, 60
1, 922726, Control_c, 0, 67, 65
1, 922729, Note_off_c, 0, 69, 61
1, 922732, Note_off_c, 0, 54, 61
1, 922739, Note_off_c, 0, 57, 61
1, 922741, Control_c, 0, 64, 58
1, 922741, Control_c, 0, 67, 65
1, 922748, Note_on_c, 0, 74, 60
1, 922756, Control_c, 0, 64, 55
1, 922770, Control_c, 0, 64, 53
1, 922785, Control_c, 0, 64, 52
1, 922785, Control_c, 0, 67, 64
1, 922793, Note_off_c, 0, 74, 57
1, 922800, Control_c, 0, 64, 50
1, 922800, Control_c, 0, 67, 64
1, 922815, Control_c, 0, 64, 48
1, 922829, Control_c, 0, 64, 48
1, 922862, Note_on_c, 0, 62, 61
1, 922863, Note_on_c, 0, 57, 51
1, 922867, Note_on_c, 0, 74, 59
1, 922896, Note_off_c, 0, 62, 60
1, 922909, Note_off_c, 0, 57, 59
1, 922934, Control_c, 0, 67, 64
1, 922939, Note_off_c, 0, 74, 57
1, 922946, Note_on_c, 0, 78, 71
1, 922949, Control_c, 0, 64, 47
1, 922964, Control_c, 0, 64, 47
1, 922979, Control_c, 0, 64, 46
1, 922979, Control_c, 0, 67, 65
1, 922987, Note_off_c, 0, 78, 62
1, 922994, Control_c, 0, 64, 45
1, 923008, Control_c, 0, 64, 44
1, 923049, Note_on_c, 0, 78, 56
1, 923063, Note_on_c, 0, 62, 48
1, 923064, Note_on_c, 0, 66, 47
1, 923082, Control_c, 0, 64, 43
1, 923093, Note_off_c, 0, 62, 56
1, 923097, Control_c, 0, 64, 41
1, 923097, Control_c, 0, 67, 64
1, 923100, Note_off_c, 0, 66, 62
1, 923112, Control_c, 0, 64, 35
1, 923112, Control_c, 0, 67, 63
1, 923123, Note_on_c, 0, 81, 74
1, 923127, Control_c, 0, 64, 0
1, 923127, Control_c, 0, 67, 63
1, 923142, Control_c, 0, 67, 62
1, 923151, Note_off_c, 0, 78, 60
1, 923183, Note_off_c, 0, 81, 60
1, 923268, Note_on_c, 0, 81, 71
1, 923278, Note_on_c, 0, 57, 51
1, 923282, Control_c, 0, 67, 61
1, 923312, Control_c, 0, 67, 60
1, 923319, Note_off_c, 0, 57, 60
1, 923342, Control_c, 0, 67, 59
1, 923356, Control_c, 0, 67, 59
1, 923371, Control_c, 0, 67, 58
1, 923386, Control_c, 0, 67, 58
1, 923445, Control_c, 0, 67, 57
1, 923479, Note_off_c, 0, 81, 61
1, 923490, Control_c, 0, 67, 58
1, 923509, Note_on_c, 0, 69, 56
1, 923515, Note_on_c, 0, 66, 56
1, 923519, Control_c, 0, 67, 58
1, 923534, Control_c, 0, 67, 59
1, 923550, Note_off_c, 0, 66, 63
1, 923564, Control_c, 0, 67, 59
1, 923565, Note_off_c, 0, 69, 60
1, 923578, Control_c, 0, 67, 60
1, 923593, Control_c, 0, 67, 60
1, 923623, Control_c, 0, 67, 61
1, 923698, Control_c, 0, 67, 60
1, 923726, Note_on_c, 0, 83, 83
1, 923742, Note_on_c, 0, 57, 53
1, 923756, Note_on_c, 0, 71, 54
1, 923776, Note_off_c, 0, 57, 64
1, 923787, Control_c, 0, 67, 61
1, 923831, Control_c, 0, 67, 61
1, 923861, Control_c, 0, 67, 62
1, 923900, Note_off_c, 0, 71, 58
1, 923914, Note_off_c, 0, 83, 59
1, 923947, Note_on_c, 0, 67, 56
1, 923950, Note_on_c, 0, 64, 61
1, 923985, Note_off_c, 0, 67, 66
1, 923986, Note_off_c, 0, 64, 67
1, 924017, Control_c, 0, 67, 62
1, 924046, Control_c, 0, 67, 63
1, 924105, Control_c, 0, 67, 62
1, 924171, Note_on_c, 0, 85, 86
1, 924175, Note_on_c, 0, 45, 55
1, 924191, Note_on_c, 0, 73, 71
1, 924217, Note_off_c, 0, 45, 65
1, 924342, Control_c, 0, 67, 62
1, 924387, Note_off_c, 0, 85, 62
1, 924391, Note_off_c, 0, 73, 55
1, 924400, Note_on_c, 0, 64, 66
1, 924406, Note_on_c, 0, 57, 66
1, 924427, Note_off_c, 0, 64, 68
1, 924433, Note_off_c, 0, 57, 66
1, 924610, Control_c, 0, 67, 61
1, 924624, Control_c, 0, 67, 60
1, 924639, Control_c, 0, 67, 59
1, 924654, Control_c, 0, 67, 58
1, 924659, Note_on_c, 0, 86, 85
1, 924669, Control_c, 0, 67, 57
1, 924684, Control_c, 0, 67, 56
1, 924695, Note_on_c, 0, 74, 49
1, 924698, Control_c, 0, 64, 47
1, 924698, Control_c, 0, 67, 54
1, 924702, Note_on_c, 0, 38, 54
1, 924721, Control_c, 0, 64, 62
1, 924721, Control_c, 0, 67, 51
1, 924736, Control_c, 0, 64, 67
1, 924736, Control_c, 0, 67, 50
1, 924751, Control_c, 0, 64, 71
1, 924751, Control_c, 0, 67, 49
1, 924757, Note_off_c, 0, 38, 63
1, 924766, Control_c, 0, 64, 78
1, 924780, Control_c, 0, 64, 83
1, 924780, Control_c, 0, 67, 48
1, 924795, Control_c, 0, 64, 86
1, 924795, Control_c, 0, 67, 47
1, 924810, Control_c, 0, 64, 86
1, 924810, Control_c, 0, 67, 45
1, 924824, Control_c, 0, 64, 87
1, 924824, Control_c, 0, 67, 42
1, 924839, Control_c, 0, 64, 88
1, 924839, Control_c, 0, 67, 40
1, 924854, Control_c, 0, 64, 89
1, 924854, Control_c, 0, 67, 38
1, 924869, Control_c, 0, 64, 90
1, 924869, Control_c, 0, 67, 37
1, 924884, Control_c, 0, 64, 91
1, 924884, Control_c, 0, 67, 37
1, 924898, Control_c, 0, 64, 92
1, 924898, Control_c, 0, 67, 36
1, 924913, Control_c, 0, 64, 92
1, 924913, Control_c, 0, 67, 34
1, 924928, Control_c, 0, 64, 93
1, 924928, Control_c, 0, 67, 32
1, 924943, Control_c, 0, 64, 95
1, 924943, Control_c, 0, 67, 30
1, 924958, Control_c, 0, 64, 96
1, 924958, Control_c, 0, 67, 28
1, 924972, Control_c, 0, 64, 97
1, 924972, Control_c, 0, 67, 26
1, 924987, Control_c, 0, 64, 97
1, 924987, Control_c, 0, 67, 26
1, 924996, Note_on_c, 0, 62, 68
1, 925002, Control_c, 0, 64, 98
1, 925002, Control_c, 0, 67, 25
1, 925006, Note_on_c, 0, 54, 59
1, 925017, Control_c, 0, 64, 99
1, 925017, Control_c, 0, 67, 25
1, 925032, Control_c, 0, 64, 99
1, 925032, Control_c, 0, 67, 24
1, 925047, Control_c, 0, 64, 100
1, 925047, Control_c, 0, 67, 24
1, 925062, Control_c, 0, 64, 101
1, 925062, Control_c, 0, 67, 23
1, 925076, Control_c, 0, 64, 103
1, 925076, Control_c, 0, 67, 22
1, 925091, Control_c, 0, 64, 104
1, 925091, Control_c, 0, 67, 21
1, 925106, Control_c, 0, 64, 105
1, 925106, Control_c, 0, 67, 19
1, 925121, Control_c, 0, 64, 106
1, 925121, Control_c, 0, 67, 18
1, 925136, Control_c, 0, 64, 107
1, 925136, Control_c, 0, 67, 16
1, 925151, Control_c, 0, 64, 107
1, 925151, Control_c, 0, 67, 14
1, 925165, Control_c, 0, 64, 108
1, 925165, Control_c, 0, 67, 11
1, 925180, Control_c, 0, 64, 109
1, 925180, Control_c, 0, 67, 10
1, 925195, Control_c, 0, 64, 110
1, 925195, Control_c, 0, 67, 8
1, 925210, Control_c, 0, 64, 111
1, 925210, Control_c, 0, 67, 0
1, 925239, Control_c, 0, 64, 112
1, 925306, Note_off_c, 0, 74, 62
1, 925529, Control_c, 0, 64, 111
1, 925544, Control_c, 0, 64, 110
1, 925552, Note_on_c, 0, 85, 61
1, 925559, Control_c, 0, 64, 107
1, 925570, Note_off_c, 0, 62, 0
1, 925574, Control_c, 0, 64, 100
1, 925582, Note_on_c, 0, 73, 48
1, 925588, Note_off_c, 0, 86, 58
1, 925589, Note_on_c, 0, 61, 40
1, 925589, Control_c, 0, 64, 91
1, 925589, Note_on_c, 0, 52, 45
1, 925603, Control_c, 0, 64, 80
1, 925607, Poly_aftertouch_c, 0, 62, 127
1, 925618, Control_c, 0, 64, 66
1, 925633, Control_c, 0, 64, 48
1, 925638, Note_off_c, 0, 54, 28
1, 925647, Control_c, 0, 64, 0
1, 925678, Poly_aftertouch_c, 0, 62, 0
1, 925707, Control_c, 0, 64, 40
1, 925721, Control_c, 0, 64, 58
1, 925736, Control_c, 0, 64, 63
1, 925751, Control_c, 0, 64, 65
1, 925752, Note_off_c, 0, 73, 56
1, 925766, Control_c, 0, 64, 66
1, 925873, Note_off_c, 0, 61, 57
1, 925886, Note_on_c, 0, 86, 64
1, 925890, Note_off_c, 0, 85, 57
1, 925897, Note_on_c, 0, 54, 43
1, 925906, Note_on_c, 0, 62, 39
1, 925906, Note_on_c, 0, 74, 50
1, 925914, Control_c, 0, 64, 65
1, 925940, Note_off_c, 0, 52, 34
1, 925975, Note_off_c, 0, 74, 64
1, 926040, Note_off_c, 0, 62, 41
1, 926072, Note_off_c, 0, 54, 54
1, 926077, Control_c, 0, 64, 65
1, 926092, Note_off_c, 0, 86, 56
1, 926101, Note_on_c, 0, 83, 74
1, 926118, Note_on_c, 0, 71, 58
1, 926125, Note_on_c, 0, 59, 34
1, 926135, Note_on_c, 0, 55, 55
1, 926156, Note_off_c, 0, 59, 48
1, 926167, Control_c, 0, 64, 64
1, 926190, Note_off_c, 0, 55, 65
1, 926218, Control_c, 0, 64, 64
1, 926224, Note_off_c, 0, 71, 61
1, 926264, Control_c, 0, 64, 63
1, 926293, Control_c, 0, 64, 63
1, 926308, Control_c, 0, 64, 62
1, 926323, Control_c, 0, 64, 60
1, 926325, Note_on_c, 0, 81, 75
1, 926338, Control_c, 0, 64, 55
1, 926340, Note_on_c, 0, 45, 56
1, 926345, Note_on_c, 0, 69, 55
1, 926352, Control_c, 0, 64, 42
1, 926367, Control_c, 0, 64, 0
1, 926373, Note_off_c, 0, 83, 53
1, 926397, Control_c, 0, 67, 10
1, 926407, Note_off_c, 0, 45, 59
1, 926412, Control_c, 0, 67, 13
1, 926427, Control_c, 0, 67, 15
1, 926430, Note_off_c, 0, 69, 63
1, 926440, Note_off_c, 0, 81, 62
1, 926442, Control_c, 0, 67, 17
1, 926457, Control_c, 0, 67, 18
1, 926471, Control_c, 0, 67, 20
1, 926486, Control_c, 0, 67, 21
1, 926501, Control_c, 0, 67, 22
1, 926543, Note_on_c, 0, 57, 53
1, 926544, Note_on_c, 0, 54, 52
1, 926612, Note_off_c, 0, 57, 53
1, 926626, Note_off_c, 0, 54, 59
1, 926752, Control_c, 0, 67, 21
1, 926764, Note_on_c, 0, 79, 60
1, 926767, Control_c, 0, 67, 21
1, 926784, Note_on_c, 0, 45, 45
1, 926786, Note_on_c, 0, 67, 47
1, 926849, Note_off_c, 0, 45, 59
1, 926892, Note_off_c, 0, 79, 60
1, 926897, Note_off_c, 0, 67, 58
1, 927014, Note_on_c, 0, 55, 41
1, 927017, Note_on_c, 0, 52, 46
1, 927042, Control_c, 0, 67, 20
1, 927063, Note_off_c, 0, 52, 61
1, 927064, Note_off_c, 0, 55, 59
1, 927087, Control_c, 0, 67, 20
1, 927205, Control_c, 0, 67, 19
1, 927264, Note_on_c, 0, 76, 46
1, 927273, Note_on_c, 0, 45, 32
1, 927282, Note_on_c, 0, 64, 37
1, 927341, Note_off_c, 0, 45, 43
1, 927368, Control_c, 0, 67, 19
1, 927391, Note_off_c, 0, 64, 44
1, 927416, Note_off_c, 0, 76, 60
1, 927457, Control_c, 0, 67, 18
1, 927472, Control_c, 0, 67, 18
1, 927516, Control_c, 0, 67, 17
1, 927545, Control_c, 0, 67, 17
1, 927546, Note_on_c, 0, 49, 33
1, 927549, Note_on_c, 0, 52, 41
1, 927590, Control_c, 0, 67, 16
1, 927605, Control_c, 0, 67, 16
1, 927609, Note_off_c, 0, 49, 59
1, 927619, Control_c, 0, 67, 15
1, 927622, Note_off_c, 0, 52, 60
1, 927634, Control_c, 0, 67, 14
1, 927649, Control_c, 0, 67, 14
1, 927664, Control_c, 0, 67, 13
1, 927679, Control_c, 0, 67, 12
1, 927695, Control_c, 0, 67, 11
1, 927717, Control_c, 0, 67, 10
1, 927731, Control_c, 0, 67, 10
1, 927746, Control_c, 0, 67, 9
1, 927761, Control_c, 0, 67, 8
1, 927776, Control_c, 0, 67, 0
1, 927864, Control_c, 0, 64, 43
1, 927879, Control_c, 0, 64, 56
1, 927894, Control_c, 0, 64, 62
1, 927909, Control_c, 0, 64, 66
1, 927923, Control_c, 0, 64, 70
1, 927932, Note_on_c, 0, 90, 88
1, 927938, Control_c, 0, 64, 78
1, 927953, Control_c, 0, 64, 88
1, 927963, Note_on_c, 0, 78, 64
1, 927968, Control_c, 0, 64, 103
1, 927983, Control_c, 0, 64, 127
1, 928040, Note_on_c, 0, 50, 54
1, 928050, Note_on_c, 0, 38, 42
1, 928110, Note_off_c, 0, 38, 62
1, 928137, Note_off_c, 0, 50, 62
1, 928430, Note_on_c, 0, 66, 66
1, 928436, Note_on_c, 0, 57, 58
1, 928719, Note_off_c, 0, 90, 63
1, 928725, Note_off_c, 0, 78, 58
1, 928738, Note_off_c, 0, 66, 63
1, 928823, Note_off_c, 0, 57, 37
1, 928984, Note_on_c, 0, 88, 76
1, 928998, Control_c, 0, 64, 75
1, 929005, Note_on_c, 0, 64, 46
1, 929005, Note_on_c, 0, 76, 58
1, 929011, Note_on_c, 0, 58, 41
1, 929013, Control_c, 0, 64, 55
1, 929028, Control_c, 0, 64, 0
1, 929029, Note_on_c, 0, 54, 36
1, 929057, Control_c, 0, 64, 40
1, 929072, Control_c, 0, 64, 56
1, 929087, Control_c, 0, 64, 63
1, 929102, Control_c, 0, 64, 68
1, 929117, Control_c, 0, 64, 73
1, 929131, Control_c, 0, 64, 77
1, 929145, Note_off_c, 0, 76, 63
1, 929146, Control_c, 0, 64, 81
1, 929161, Note_off_c, 0, 54, 55
1, 929161, Control_c, 0, 64, 83
1, 929176, Control_c, 0, 64, 85
1, 929182, Note_off_c, 0, 64, 48
1, 929190, Control_c, 0, 64, 86
1, 929194, Note_off_c, 0, 58, 52
1, 929213, Control_c, 0, 64, 87
1, 929243, Control_c, 0, 64, 83
1, 929258, Control_c, 0, 64, 67
1, 929265, Note_on_c, 0, 86, 78
1, 929272, Control_c, 0, 64, 42
1, 929274, Note_off_c, 0, 88, 63
1, 929284, Note_on_c, 0, 74, 56
1, 929287, Control_c, 0, 64, 0
1, 929297, Note_on_c, 0, 59, 42
1, 929298, Note_on_c, 0, 62, 47
1, 929309, Note_on_c, 0, 55, 40
1, 929318, Control_c, 0, 64, 46
1, 929333, Control_c, 0, 64, 62
1, 929348, Control_c, 0, 64, 69
1, 929362, Control_c, 0, 64, 76
1, 929377, Control_c, 0, 64, 80
1, 929382, Note_off_c, 0, 74, 62
1, 929392, Control_c, 0, 64, 82
1, 929407, Control_c, 0, 64, 84
1, 929409, Note_off_c, 0, 62, 36
1, 929436, Control_c, 0, 64, 84
1, 929440, Note_off_c, 0, 59, 49
1, 929495, Control_c, 0, 64, 83
1, 929503, Note_off_c, 0, 55, 60
1, 929510, Control_c, 0, 64, 75
1, 929515, Note_off_c, 0, 86, 55
1, 929525, Control_c, 0, 64, 61
1, 929527, Note_on_c, 0, 83, 69
1, 929540, Control_c, 0, 64, 0
1, 929544, Note_on_c, 0, 71, 57
1, 929565, Note_on_c, 0, 65, 45
1, 929566, Note_on_c, 0, 56, 39
1, 929570, Note_on_c, 0, 62, 39
1, 929613, Control_c, 0, 64, 62
1, 929627, Note_off_c, 0, 62, 59
1, 929628, Note_off_c, 0, 71, 60
1, 929628, Control_c, 0, 64, 77
1, 929640, Note_off_c, 0, 56, 62
1, 929643, Control_c, 0, 64, 96
1, 929658, Control_c, 0, 64, 127
1, 929713, Note_off_c, 0, 65, 36
1, 929736, Note_off_c, 0, 83, 60
1, 929836, Control_c, 0, 67, 12
1, 929851, Control_c, 0, 67, 17
1, 929866, Control_c, 0, 67, 23
1, 929880, Control_c, 0, 67, 28
1, 929895, Control_c, 0, 67, 33
1, 929910, Control_c, 0, 67, 39
1, 929925, Control_c, 0, 67, 44
1, 929939, Control_c, 0, 64, 115
1, 929939, Control_c, 0, 67, 48
1, 929941, Note_on_c, 0, 83, 57
1, 929962, Control_c, 0, 64, 96
1, 929962, Control_c, 0, 67, 52
1, 929969, Note_on_c, 0, 57, 45
1, 929977, Control_c, 0, 64, 85
1, 929977, Control_c, 0, 67, 56
1, 929992, Control_c, 0, 64, 74
1, 929992, Control_c, 0, 67, 59
1, 930007, Control_c, 0, 64, 66
1, 930007, Control_c, 0, 67, 62
1, 930022, Control_c, 0, 64, 55
1, 930022, Control_c, 0, 67, 66
1, 930037, Control_c, 0, 64, 15
1, 930037, Control_c, 0, 67, 69
1, 930052, Control_c, 0, 64, 0
1, 930052, Control_c, 0, 67, 70
1, 930063, Note_off_c, 0, 57, 55
1, 930066, Control_c, 0, 67, 71
1, 930081, Control_c, 0, 67, 72
1, 930186, Control_c, 0, 67, 71
1, 930215, Control_c, 0, 67, 71
1, 930259, Note_on_c, 0, 66, 52
1, 930259, Note_on_c, 0, 81, 61
1, 930263, Note_off_c, 0, 83, 59
1, 930268, Note_on_c, 0, 69, 51
1, 930275, Control_c, 0, 67, 70
1, 930290, Control_c, 0, 67, 70
1, 930293, Note_off_c, 0, 81, 59
1, 930303, Note_off_c, 0, 66, 56
1, 930308, Note_off_c, 0, 69, 62
1, 930435, Note_on_c, 0, 81, 53
1, 930467, Control_c, 0, 67, 70
1, 930468, Note_on_c, 0, 57, 46
1, 930475, Note_off_c, 0, 81, 57
1, 930481, Note_on_c, 0, 93, 82
1, 930482, Control_c, 0, 67, 71
1, 930496, Note_off_c, 0, 57, 53
1, 930497, Control_c, 0, 67, 72
1, 930511, Control_c, 0, 67, 72
1, 930526, Control_c, 0, 67, 73
1, 930541, Control_c, 0, 67, 73
1, 930556, Control_c, 0, 67, 74
1, 930570, Control_c, 0, 67, 76
1, 930585, Control_c, 0, 67, 77
1, 930600, Control_c, 0, 67, 78
1, 930615, Control_c, 0, 67, 79
1, 930630, Control_c, 0, 67, 80
1, 930645, Control_c, 0, 67, 82
1, 930660, Control_c, 0, 67, 84
1, 930663, Note_on_c, 0, 91, 80
1, 930667, Note_off_c, 0, 93, 61
1, 930675, Control_c, 0, 67, 87
1, 930679, Note_on_c, 0, 67, 51
1, 930682, Note_on_c, 0, 71, 48
1, 930689, Control_c, 0, 67, 89
1, 930709, Note_off_c, 0, 91, 60
1, 930711, Control_c, 0, 67, 93
1, 930713, Note_off_c, 0, 67, 61
1, 930720, Note_off_c, 0, 71, 62
1, 930726, Control_c, 0, 67, 99
1, 930741, Control_c, 0, 67, 105
1, 930756, Control_c, 0, 67, 109
1, 930770, Control_c, 0, 67, 113
1, 930785, Control_c, 0, 67, 116
1, 930800, Control_c, 0, 67, 119
1, 930811, Note_on_c, 0, 91, 70
1, 930815, Control_c, 0, 67, 123
1, 930830, Control_c, 0, 67, 127
1, 930843, Note_off_c, 0, 91, 58
1, 930852, Note_on_c, 0, 93, 59
1, 930882, Note_on_c, 0, 57, 47
1, 930895, Note_on_c, 0, 91, 65
1, 930900, Note_off_c, 0, 93, 56
1, 930907, Note_off_c, 0, 57, 57
1, 930997, Note_off_c, 0, 91, 56
1, 931006, Note_on_c, 0, 90, 65
1, 931119, Note_on_c, 0, 91, 60
1, 931134, Note_off_c, 0, 90, 49
1, 931134, Note_on_c, 0, 64, 48
1, 931135, Note_on_c, 0, 73, 50
1, 931163, Note_off_c, 0, 73, 65
1, 931167, Note_off_c, 0, 64, 66
1, 931192, Note_off_c, 0, 91, 59
1, 931226, Note_on_c, 0, 88, 48
1, 931405, Note_on_c, 0, 86, 58
1, 931426, Note_on_c, 0, 50, 46
1, 931439, Note_off_c, 0, 88, 60
1, 931472, Note_off_c, 0, 50, 64
1, 931822, Note_on_c, 0, 74, 35
1, 931852, Note_on_c, 0, 66, 20
1, 931935, Control_c, 0, 64, 31
1, 931950, Control_c, 0, 64, 50
1, 931964, Control_c, 0, 64, 58
1, 931979, Control_c, 0, 64, 63
1, 931994, Control_c, 0, 64, 67
1, 932008, Control_c, 0, 64, 72
1, 932023, Control_c, 0, 64, 83
1, 932038, Control_c, 0, 64, 95
1, 932053, Control_c, 0, 64, 127
1, 932229, Note_off_c, 0, 74, 55
1, 932284, Note_off_c, 0, 86, 48
1, 932293, Note_off_c, 0, 66, 46
1, 932505, Control_c, 0, 67, 125
1, 932520, Control_c, 0, 67, 113
1, 932535, Control_c, 0, 67, 97
1, 932550, Control_c, 0, 67, 83
1, 932564, Control_c, 0, 67, 72
1, 932579, Control_c, 0, 64, 92
1, 932579, Control_c, 0, 67, 60
1, 932594, Control_c, 0, 64, 66
1, 932594, Control_c, 0, 67, 48
1, 932609, Control_c, 0, 64, 28
1, 932609, Control_c, 0, 67, 35
1, 932624, Control_c, 0, 64, 0
1, 932624, Control_c, 0, 67, 24
1, 932639, Control_c, 0, 67, 15
1, 932654, Control_c, 0, 67, 0
1, 933156, Note_on_c, 0, 45, 81
1, 933157, Note_on_c, 0, 81, 91
1, 933158, Note_on_c, 0, 57, 93
1, 933160, Note_on_c, 0, 69, 88
1, 933205, Note_off_c, 0, 57, 64
1, 933225, Control_c, 0, 64, 67
1, 933229, Note_off_c, 0, 69, 67
1, 933239, Control_c, 0, 64, 90
1, 933251, Note_off_c, 0, 45, 64
1, 933254, Control_c, 0, 64, 127
1, 933257, Note_off_c, 0, 81, 59
1, 933492, Control_c, 0, 64, 81
1, 933507, Control_c, 0, 64, 0
1, 933509, Note_on_c, 0, 86, 87
1, 933513, Note_on_c, 0, 74, 90
1, 933516, Note_on_c, 0, 77, 85
1, 933519, Note_on_c, 0, 81, 75
1, 933522, Note_on_c, 0, 38, 80
1, 933522, Note_on_c, 0, 50, 88
1, 933560, Note_off_c, 0, 86, 65
1, 933566, Control_c, 0, 64, 21
1, 933581, Control_c, 0, 64, 66
1, 933595, Note_off_c, 0, 81, 62
1, 933596, Control_c, 0, 64, 127
1, 933617, Note_off_c, 0, 77, 63
1, 933638, Note_off_c, 0, 38, 62
1, 933645, Note_off_c, 0, 74, 67
1, 933678, Note_off_c, 0, 50, 60
1, 933729, Poly_aftertouch_c, 0, 41, 0
1, 933852, Note_on_c, 0, 69, 88
1, 933852, Note_on_c, 0, 74, 91
1, 933855, Note_on_c, 0, 65, 96
1, 934056, Note_on_c, 0, 62, 98
1, 934061, Note_on_c, 0, 50, 83
1, 934062, Note_on_c, 0, 57, 78
1, 934064, Note_on_c, 0, 53, 85
1, 934109, Note_off_c, 0, 50, 63
1, 934115, Note_off_c, 0, 62, 65
1, 934123, Note_off_c, 0, 53, 67
1, 934125, Note_off_c, 0, 57, 64
1, 934184, Note_off_c, 0, 65, 57
1, 934199, Note_off_c, 0, 69, 65
1, 934237, Note_off_c, 0, 74, 60
1, 934419, Control_c, 0, 64, 115
1, 934433, Control_c, 0, 64, 60
1, 934456, Control_c, 0, 64, 0
1, 934573, Control_c, 0, 64, 26
1, 934588, Control_c, 0, 64, 47
1, 934602, Control_c, 0, 64, 45
1, 934617, Control_c, 0, 64, 37
1, 934632, Control_c, 0, 64, 0
1, 934756, Note_on_c, 0, 77, 98
1, 934758, Note_on_c, 0, 86, 89
1, 934758, Note_on_c, 0, 38, 87
1, 934758, Note_on_c, 0, 81, 88
1, 934759, Note_on_c, 0, 50, 92
1, 934795, Control_c, 0, 64, 67
1, 934799, Note_off_c, 0, 50, 62
1, 934809, Control_c, 0, 64, 100
1, 934822, Note_off_c, 0, 81, 62
1, 934824, Control_c, 0, 64, 127
1, 934827, Note_off_c, 0, 38, 63
1, 934857, Note_off_c, 0, 77, 61
1, 934887, Note_off_c, 0, 86, 57
1, 935003, Control_c, 0, 64, 82
1, 935018, Control_c, 0, 64, 0
1, 935043, Note_on_c, 0, 88, 90
1, 935045, Note_on_c, 0, 76, 97
1, 935048, Note_on_c, 0, 82, 87
1, 935050, Note_on_c, 0, 86, 76
1, 935053, Note_on_c, 0, 31, 83
1, 935054, Note_on_c, 0, 43, 98
1, 935092, Control_c, 0, 64, 66
1, 935097, Note_off_c, 0, 31, 64
1, 935103, Note_off_c, 0, 88, 63
1, 935107, Control_c, 0, 64, 127
1, 935107, Note_off_c, 0, 86, 64
1, 935110, Note_off_c, 0, 43, 64
1, 935115, Note_off_c, 0, 82, 67
1, 935155, Note_off_c, 0, 76, 66
1, 935358, Note_on_c, 0, 74, 89
1, 935361, Note_on_c, 0, 76, 85
1, 935362, Note_on_c, 0, 70, 90
1, 935575, Note_on_c, 0, 64, 91
1, 935577, Note_on_c, 0, 55, 77
1, 935577, Note_on_c, 0, 58, 80
1, 935577, Note_on_c, 0, 62, 78
1, 935674, Note_off_c, 0, 55, 62
1, 935682, Note_off_c, 0, 64, 66
1, 935687, Note_off_c, 0, 62, 62
1, 935688, Note_off_c, 0, 58, 64
1, 935772, Note_off_c, 0, 70, 57
1, 935774, Note_off_c, 0, 74, 61
1, 935799, Note_off_c, 0, 76, 61
1, 936070, Control_c, 0, 64, 81
1, 936085, Control_c, 0, 64, 26
1, 936100, Control_c, 0, 64, 0
1, 936287, Note_on_c, 0, 76, 87
1, 936290, Note_on_c, 0, 74, 87
1, 936295, Note_on_c, 0, 43, 81
1, 936297, Note_on_c, 0, 31, 78
1, 936307, Control_c, 0, 64, 37
1, 936322, Control_c, 0, 64, 64
1, 936337, Control_c, 0, 64, 70
1, 936352, Control_c, 0, 64, 79
1, 936367, Control_c, 0, 64, 93
1, 936381, Control_c, 0, 64, 127
1, 936395, Note_off_c, 0, 31, 63
1, 936410, Note_off_c, 0, 43, 58
1, 936460, Note_off_c, 0, 74, 60
1, 936517, Note_off_c, 0, 76, 59
1, 936670, Note_on_c, 0, 82, 90
1, 936672, Note_on_c, 0, 73, 94
1, 936673, Note_on_c, 0, 45, 85
1, 936674, Note_on_c, 0, 79, 83
1, 936675, Note_on_c, 0, 33, 83
1, 936701, Control_c, 0, 64, 88
1, 936717, Control_c, 0, 64, 46
1, 936731, Control_c, 0, 64, 0
1, 936791, Control_c, 0, 64, 48
1, 936805, Control_c, 0, 64, 71
1, 936820, Control_c, 0, 64, 92
1, 936835, Control_c, 0, 64, 127
1, 936907, Note_off_c, 0, 45, 61
1, 936912, Note_off_c, 0, 33, 62
1, 936914, Note_off_c, 0, 82, 61
1, 936921, Note_off_c, 0, 73, 59
1, 936952, Note_off_c, 0, 79, 55
1, 937012, Note_on_c, 0, 45, 79
1, 937015, Note_on_c, 0, 82, 81
1, 937018, Note_on_c, 0, 79, 71
1, 937018, Note_on_c, 0, 73, 81
1, 937022, Note_on_c, 0, 33, 74
1, 937069, Note_off_c, 0, 73, 62
1, 937070, Note_off_c, 0, 33, 57
1, 937072, Note_off_c, 0, 45, 60
1, 937076, Note_off_c, 0, 82, 60
1, 937107, Note_off_c, 0, 79, 0
1, 937126, Note_on_c, 0, 79, 51
1, 937131, Note_on_c, 0, 82, 81
1, 937132, Note_on_c, 0, 73, 79
1, 937140, Note_on_c, 0, 33, 74
1, 937142, Note_on_c, 0, 45, 80
1, 937190, Note_off_c, 0, 45, 63
1, 937194, Note_off_c, 0, 33, 63
1, 937214, Note_off_c, 0, 73, 62
1, 937214, Note_off_c, 0, 82, 62
1, 937221, Note_off_c, 0, 79, 52
1, 937250, Control_c, 0, 64, 93
1, 937265, Control_c, 0, 64, 59
1, 937272, Note_on_c, 0, 81, 82
1, 937273, Note_on_c, 0, 74, 82
1, 937279, Note_on_c, 0, 47, 94
1, 937280, Control_c, 0, 64, 0
1, 937283, Note_on_c, 0, 35, 85
1, 937285, Note_on_c, 0, 77, 76
1, 937325, Control_c, 0, 64, 44
1, 937340, Control_c, 0, 64, 66
1, 937354, Control_c, 0, 64, 85
1, 937369, Control_c, 0, 64, 127
1, 937416, Note_off_c, 0, 77, 58
1, 937417, Note_off_c, 0, 74, 59
1, 937420, Note_off_c, 0, 35, 65
1, 937425, Note_off_c, 0, 47, 61
1, 937428, Note_off_c, 0, 81, 57
1, 937492, Note_on_c, 0, 74, 73
1, 937496, Note_on_c, 0, 77, 72
1, 937497, Note_on_c, 0, 81, 66
1, 937498, Note_on_c, 0, 47, 84
1, 937500, Note_on_c, 0, 35, 68
1, 937532, Note_off_c, 0, 77, 55
1, 937534, Note_off_c, 0, 47, 60
1, 937542, Note_off_c, 0, 74, 62
1, 937546, Note_off_c, 0, 35, 64
1, 937549, Note_off_c, 0, 81, 59
1, 937581, Note_on_c, 0, 74, 63
1, 937592, Note_on_c, 0, 77, 58
1, 937595, Note_on_c, 0, 47, 83
1, 937601, Note_on_c, 0, 35, 70
1, 937613, Note_off_c, 0, 77, 65
1, 937626, Note_off_c, 0, 47, 62
1, 937629, Note_off_c, 0, 74, 64
1, 937641, Note_off_c, 0, 35, 48
1, 937660, Poly_aftertouch_c, 0, 81, 0
1, 937673, Control_c, 0, 64, 98
1, 937688, Control_c, 0, 64, 60
1, 937698, Note_on_c, 0, 79, 85
1, 937698, Note_on_c, 0, 69, 90
1, 937702, Control_c, 0, 64, 0
1, 937706, Note_on_c, 0, 76, 78
1, 937713, Note_on_c, 0, 49, 96
1, 937717, Note_on_c, 0, 37, 86
1, 937761, Control_c, 0, 64, 63
1, 937776, Control_c, 0, 64, 77
1, 937791, Control_c, 0, 64, 101
1, 937806, Control_c, 0, 64, 127
1, 937823, Note_off_c, 0, 79, 57
1, 937827, Note_off_c, 0, 76, 63
1, 937833, Note_off_c, 0, 49, 56
1, 937833, Note_off_c, 0, 69, 63
1, 937842, Note_off_c, 0, 37, 63
1, 937906, Note_on_c, 0, 69, 86
1, 937906, Note_on_c, 0, 79, 86
1, 937911, Note_on_c, 0, 49, 82
1, 937912, Note_on_c, 0, 37, 80
1, 937913, Note_on_c, 0, 76, 77
1, 937953, Note_off_c, 0, 49, 56
1, 937954, Note_off_c, 0, 69, 66
1, 937957, Note_off_c, 0, 79, 59
1, 937960, Note_off_c, 0, 37, 64
1, 937960, Note_off_c, 0, 76, 62
1, 938019, Note_on_c, 0, 79, 85
1, 938021, Note_on_c, 0, 69, 88
1, 938022, Note_on_c, 0, 37, 75
1, 938022, Note_on_c, 0, 49, 79
1, 938025, Note_on_c, 0, 76, 75
1, 938088, Note_off_c, 0, 49, 56
1, 938089, Note_off_c, 0, 76, 62
1, 938094, Note_off_c, 0, 37, 64
1, 938094, Note_off_c, 0, 69, 60
1, 938100, Note_off_c, 0, 79, 56
1, 938177, Control_c, 0, 64, 121
1, 938199, Control_c, 0, 64, 66
1, 938211, Note_on_c, 0, 69, 83
1, 938211, Note_on_c, 0, 79, 87
1, 938213, Control_c, 0, 64, 0
1, 938215, Note_on_c, 0, 76, 78
1, 938219, Note_on_c, 0, 50, 83
1, 938223, Note_on_c, 0, 38, 76
1, 938273, Control_c, 0, 64, 14
1, 938288, Control_c, 0, 64, 63
1, 938303, Control_c, 0, 64, 80
1, 938318, Control_c, 0, 64, 127
1, 938347, Note_on_c, 0, 74, 73
1, 938353, Note_on_c, 0, 77, 76
1, 938360, Note_off_c, 0, 79, 53
1, 938378, Note_off_c, 0, 76, 65
1, 938392, Note_off_c, 0, 74, 63
1, 938437, Note_off_c, 0, 50, 59
1, 938446, Note_off_c, 0, 38, 62
1, 938453, Note_on_c, 0, 73, 87
1, 938457, Note_on_c, 0, 76, 78
1, 938459, Note_off_c, 0, 77, 63
1, 938517, Note_off_c, 0, 76, 59
1, 938520, Note_off_c, 0, 73, 59
1, 938544, Note_on_c, 0, 77, 88
1, 938556, Note_on_c, 0, 53, 79
1, 938556, Note_on_c, 0, 74, 80
1, 938558, Note_on_c, 0, 41, 79
1, 938585, Note_off_c, 0, 69, 64
1, 938587, Note_off_c, 0, 41, 66
1, 938589, Poly_aftertouch_c, 0, 76, 127
1, 938595, Note_off_c, 0, 53, 63
1, 938601, Note_off_c, 0, 74, 66
1, 938628, Note_off_c, 0, 77, 59
1, 938634, Poly_aftertouch_c, 0, 76, 0
1, 938684, Note_on_c, 0, 73, 88
1, 938685, Note_on_c, 0, 69, 82
1, 938687, Note_on_c, 0, 76, 83
1, 938687, Control_c, 0, 64, 86
1, 938692, Note_on_c, 0, 57, 84
1, 938693, Note_on_c, 0, 45, 87
1, 938702, Control_c, 0, 64, 49
1, 938717, Control_c, 0, 64, 0
1, 938806, Control_c, 0, 64, 67
1, 938821, Control_c, 0, 64, 93
1, 938836, Control_c, 0, 64, 127
1, 938856, Note_off_c, 0, 45, 65
1, 938857, Note_off_c, 0, 69, 61
1, 938878, Note_off_c, 0, 57, 63
1, 938882, Note_off_c, 0, 73, 56
1, 938896, Note_off_c, 0, 76, 61
1, 939125, Control_c, 0, 64, 77
1, 939140, Control_c, 0, 64, 0
1, 939358, Note_on_c, 0, 88, 91
1, 939552, Note_off_c, 0, 88, 64
1, 939614, Control_c, 0, 64, 17
1, 939616, Note_on_c, 0, 89, 88
1, 939622, Note_on_c, 0, 50, 76
1, 939629, Control_c, 0, 64, 62
1, 939632, Note_on_c, 0, 38, 66
1, 939644, Control_c, 0, 64, 72
1, 939659, Control_c, 0, 64, 89
1, 939674, Control_c, 0, 64, 127
1, 939707, Note_off_c, 0, 38, 64
1, 939742, Note_off_c, 0, 50, 62
1, 939823, Note_off_c, 0, 89, 64
1, 939835, Note_on_c, 0, 83, 73
1, 939898, Note_off_c, 0, 83, 59
1, 939946, Note_on_c, 0, 59, 88
1, 939950, Note_on_c, 0, 86, 82
1, 939969, Note_on_c, 0, 50, 70
1, 939969, Note_on_c, 0, 53, 65
1, 939969, Note_on_c, 0, 56, 61
1, 940064, Note_on_c, 0, 80, 75
1, 940079, Note_off_c, 0, 50, 58
1, 940084, Note_off_c, 0, 53, 65
1, 940095, Note_off_c, 0, 86, 56
1, 940105, Note_off_c, 0, 56, 61
1, 940124, Note_off_c, 0, 80, 60
1, 940130, Note_off_c, 0, 59, 64
1, 940164, Note_on_c, 0, 83, 80
1, 940265, Note_on_c, 0, 77, 70
1, 940304, Control_c, 0, 64, 91
1, 940316, Note_off_c, 0, 77, 60
1, 940319, Note_off_c, 0, 83, 54
1, 940319, Control_c, 0, 64, 37
1, 940334, Control_c, 0, 64, 0
1, 940350, Note_on_c, 0, 62, 91
1, 940351, Note_on_c, 0, 80, 79
1, 940361, Note_on_c, 0, 59, 70
1, 940367, Note_on_c, 0, 56, 66
1, 940371, Note_on_c, 0, 53, 65
1, 940378, Control_c, 0, 64, 55
1, 940393, Control_c, 0, 64, 76
1, 940408, Control_c, 0, 64, 127
1, 940447, Note_off_c, 0, 53, 65
1, 940456, Note_off_c, 0, 80, 62
1, 940465, Note_off_c, 0, 56, 61
1, 940467, Note_on_c, 0, 74, 66
1, 940491, Note_off_c, 0, 59, 58
1, 940512, Note_off_c, 0, 62, 59
1, 940516, Note_off_c, 0, 74, 59
1, 940520, Control_c, 0, 64, 92
1, 940535, Control_c, 0, 64, 49
1, 940550, Control_c, 0, 64, 0
1, 940569, Note_on_c, 0, 77, 82
1, 940571, Note_on_c, 0, 65, 93
1, 940579, Control_c, 0, 64, 49
1, 940583, Note_on_c, 0, 56, 68
1, 940583, Note_on_c, 0, 62, 77
1, 940594, Control_c, 0, 64, 67
1, 940595, Note_on_c, 0, 59, 63
1, 940609, Control_c, 0, 64, 92
1, 940624, Control_c, 0, 64, 127
1, 940629, Note_off_c, 0, 59, 58
1, 940634, Note_off_c, 0, 65, 63
1, 940648, Note_off_c, 0, 62, 59
1, 940668, Note_on_c, 0, 71, 72
1, 940670, Note_off_c, 0, 77, 60
1, 940676, Note_off_c, 0, 56, 62
1, 940773, Note_off_c, 0, 71, 60
1, 940774, Note_on_c, 0, 74, 75
1, 940847, Note_off_c, 0, 74, 64
1, 940870, Note_on_c, 0, 68, 80
1, 940892, Note_off_c, 0, 68, 71
1, 940965, Control_c, 0, 64, 84
1, 940979, Control_c, 0, 64, 37
1, 940994, Control_c, 0, 64, 0
1, 941003, Note_on_c, 0, 48, 93
1, 941003, Note_on_c, 0, 36, 79
1, 941013, Note_on_c, 0, 88, 91
1, 941035, Note_off_c, 0, 36, 67
1, 941050, Note_off_c, 0, 48, 65
1, 941053, Control_c, 0, 64, 65
1, 941068, Control_c, 0, 64, 98
1, 941083, Control_c, 0, 64, 127
1, 941132, Note_on_c, 0, 81, 80
1, 941152, Note_off_c, 0, 88, 59
1, 941171, Control_c, 0, 64, 85
1, 941194, Control_c, 0, 64, 58
1, 941209, Control_c, 0, 64, 0
1, 941224, Control_c, 0, 64, 42
1, 941230, Note_off_c, 0, 81, 53
1, 941236, Note_on_c, 0, 84, 83
1, 941239, Control_c, 0, 64, 64
1, 941239, Note_on_c, 0, 57, 92
1, 941247, Note_on_c, 0, 48, 83
1, 941252, Note_on_c, 0, 52, 75
1, 941253, Control_c, 0, 64, 79
1, 941269, Control_c, 0, 64, 127
1, 941307, Note_off_c, 0, 84, 64
1, 941343, Note_on_c, 0, 76, 63
1, 941377, Note_off_c, 0, 76, 62
1, 941397, Note_off_c, 0, 52, 59
1, 941404, Note_off_c, 0, 48, 60
1, 941434, Note_on_c, 0, 81, 78
1, 941437, Note_off_c, 0, 57, 61
1, 941519, Note_off_c, 0, 81, 55
1, 941528, Note_on_c, 0, 72, 76
1, 941580, Control_c, 0, 64, 71
1, 941591, Note_off_c, 0, 72, 61
1, 941594, Control_c, 0, 64, 0
1, 941617, Note_on_c, 0, 76, 81
1, 941620, Note_on_c, 0, 60, 89
1, 941622, Note_on_c, 0, 52, 85
1, 941624, Control_c, 0, 64, 26
1, 941629, Note_on_c, 0, 57, 79
1, 941639, Control_c, 0, 64, 61
1, 941654, Control_c, 0, 64, 76
1, 941668, Control_c, 0, 64, 127
1, 941674, Note_off_c, 0, 76, 65
1, 941711, Note_on_c, 0, 69, 71
1, 941716, Note_off_c, 0, 57, 60
1, 941731, Note_off_c, 0, 52, 64
1, 941746, Note_off_c, 0, 60, 57
1, 941746, Note_off_c, 0, 69, 60
1, 941787, Control_c, 0, 64, 85
1, 941802, Control_c, 0, 64, 38
1, 941817, Control_c, 0, 64, 0
1, 941817, Note_on_c, 0, 72, 78
1, 941823, Note_on_c, 0, 64, 93
1, 941823, Note_on_c, 0, 57, 87
1, 941832, Note_on_c, 0, 60, 87
1, 941862, Control_c, 0, 64, 38
1, 941862, Note_off_c, 0, 64, 67
1, 941876, Control_c, 0, 64, 75
1, 941877, Note_off_c, 0, 60, 61
1, 941889, Note_off_c, 0, 57, 63
1, 941891, Control_c, 0, 64, 127
1, 941914, Note_off_c, 0, 72, 62
1, 941918, Note_on_c, 0, 64, 77
1, 941998, Note_off_c, 0, 64, 60
1, 942032, Note_on_c, 0, 69, 79
1, 942082, Note_off_c, 0, 69, 65
1, 942129, Note_on_c, 0, 60, 74
1, 942192, Note_off_c, 0, 60, 56
1, 942195, Control_c, 0, 64, 76
1, 942210, Control_c, 0, 64, 0
1, 942250, Note_on_c, 0, 69, 76
1, 942251, Note_on_c, 0, 57, 72
1, 942284, Control_c, 0, 64, 53
1, 942298, Control_c, 0, 64, 71
1, 942313, Control_c, 0, 64, 102
1, 942328, Control_c, 0, 64, 127
1, 942368, Note_on_c, 0, 50, 57
1, 942370, Note_on_c, 0, 62, 65
1, 942387, Control_c, 0, 64, 86
1, 942397, Note_off_c, 0, 69, 63
1, 942402, Control_c, 0, 64, 66
1, 942406, Note_off_c, 0, 57, 53
1, 942416, Control_c, 0, 64, 61
1, 942431, Control_c, 0, 64, 64
1, 942446, Control_c, 0, 64, 74
1, 942449, Note_off_c, 0, 50, 60
1, 942452, Note_on_c, 0, 53, 74
1, 942460, Note_on_c, 0, 65, 77
1, 942461, Control_c, 0, 64, 127
1, 942464, Note_off_c, 0, 62, 59
1, 942541, Note_off_c, 0, 65, 62
1, 942550, Note_off_c, 0, 53, 65
1, 942554, Note_on_c, 0, 47, 77
1, 942560, Note_on_c, 0, 59, 73
1, 942587, Note_off_c, 0, 47, 66
1, 942595, Note_off_c, 0, 59, 58
1, 942595, Control_c, 0, 64, 76
1, 942610, Control_c, 0, 64, 55
1, 942624, Control_c, 0, 64, 41
1, 942639, Control_c, 0, 64, 64
1, 942647, Note_on_c, 0, 50, 87
1, 942652, Note_on_c, 0, 62, 84
1, 942654, Control_c, 0, 64, 79
1, 942668, Control_c, 0, 64, 127
1, 942753, Note_on_c, 0, 45, 77
1, 942753, Note_on_c, 0, 57, 74
1, 942765, Control_c, 0, 64, 121
1, 942769, Note_off_c, 0, 50, 62
1, 942771, Note_off_c, 0, 62, 58
1, 942780, Control_c, 0, 64, 62
1, 942795, Control_c, 0, 64, 0
1, 942839, Control_c, 0, 64, 64
1, 942840, Note_on_c, 0, 47, 89
1, 942846, Note_on_c, 0, 59, 84
1, 942851, Note_off_c, 0, 45, 64
1, 942854, Control_c, 0, 64, 127
1, 942858, Note_off_c, 0, 57, 55
1, 942912, Note_off_c, 0, 59, 65
1, 942932, Note_on_c, 0, 41, 78
1, 942940, Note_off_c, 0, 47, 64
1, 942944, Note_on_c, 0, 53, 72
1, 942968, Note_off_c, 0, 41, 65
1, 942973, Control_c, 0, 64, 96
1, 942988, Note_off_c, 0, 53, 62
1, 942988, Control_c, 0, 64, 52
1, 943003, Control_c, 0, 64, 0
1, 943030, Note_on_c, 0, 45, 88
1, 943037, Note_on_c, 0, 57, 78
1, 943047, Control_c, 0, 64, 41
1, 943062, Control_c, 0, 64, 85
1, 943077, Control_c, 0, 64, 127
1, 943119, Note_on_c, 0, 50, 71
1, 943121, Note_on_c, 0, 38, 78
1, 943132, Note_off_c, 0, 57, 62
1, 943135, Note_off_c, 0, 45, 62
1, 943165, Control_c, 0, 64, 78
1, 943180, Control_c, 0, 64, 21
1, 943195, Control_c, 0, 64, 0
1, 943211, Note_on_c, 0, 41, 88
1, 943215, Note_on_c, 0, 53, 78
1, 943219, Note_off_c, 0, 38, 62
1, 943219, Note_off_c, 0, 50, 63
1, 943239, Control_c, 0, 64, 68
1, 943254, Control_c, 0, 64, 127
1, 943290, Note_off_c, 0, 53, 65
1, 943296, Note_off_c, 0, 41, 65
1, 943299, Note_on_c, 0, 47, 82
1, 943301, Note_on_c, 0, 35, 82
1, 943340, Note_off_c, 0, 35, 65
1, 943351, Note_off_c, 0, 47, 64
1, 943358, Control_c, 0, 64, 72
1, 943373, Control_c, 0, 64, 0
1, 943427, Note_on_c, 0, 48, 85
1, 943430, Note_on_c, 0, 36, 81
1, 943455, Control_c, 0, 64, 65
1, 943470, Control_c, 0, 64, 127
1, 943483, Note_on_c, 0, 50, 75
1, 943485, Note_off_c, 0, 48, 64
1, 943489, Note_off_c, 0, 36, 64
1, 943512, Note_on_c, 0, 38, 70
1, 943549, Note_on_c, 0, 36, 77
1, 943552, Note_off_c, 0, 38, 64
1, 943552, Note_off_c, 0, 50, 0
1, 943558, Note_on_c, 0, 48, 55
1, 943575, Note_off_c, 0, 48, 63
1, 943588, Poly_aftertouch_c, 0, 50, 127
1, 943599, Note_on_c, 0, 50, 6
1, 943603, Note_off_c, 0, 36, 64
1, 943619, Note_on_c, 0, 38, 77
1, 943631, Note_off_c, 0, 50, 57
1, 943636, Note_on_c, 0, 48, 83
1, 943658, Note_off_c, 0, 38, 64
1, 943660, Note_on_c, 0, 36, 73
1, 943708, Note_off_c, 0, 48, 60
1, 943710, Note_on_c, 0, 50, 81
1, 943730, Note_on_c, 0, 38, 78
1, 943737, Control_c, 0, 64, 69
1, 943740, Note_off_c, 0, 36, 63
1, 943752, Control_c, 0, 64, 0
1, 943787, Note_on_c, 0, 52, 95
1, 943791, Note_on_c, 0, 40, 99
1, 943796, Control_c, 0, 64, 40
1, 943806, Note_off_c, 0, 50, 64
1, 943808, Note_off_c, 0, 38, 62
1, 943811, Control_c, 0, 64, 76
1, 943823, Note_off_c, 0, 40, 71
1, 943826, Control_c, 0, 64, 127
1, 943834, Note_off_c, 0, 52, 69
1, 943960, Control_c, 0, 64, 78
1, 943975, Control_c, 0, 64, 0
1, 944217, Note_on_c, 0, 71, 80
1, 944219, Note_on_c, 0, 68, 94
1, 944220, Note_on_c, 0, 76, 79
1, 944220, Note_on_c, 0, 80, 88
1, 944220, Note_on_c, 0, 40, 86
1, 944221, Note_on_c, 0, 52, 98
1, 944246, Note_off_c, 0, 52, 69
1, 944258, Note_off_c, 0, 40, 67
1, 944263, Control_c, 0, 64, 61
1, 944278, Control_c, 0, 64, 98
1, 944293, Control_c, 0, 64, 127
1, 944359, Note_off_c, 0, 71, 61
1, 944383, Note_off_c, 0, 76, 58
1, 944393, Note_off_c, 0, 68, 59
1, 944414, Note_off_c, 0, 80, 59
1, 944501, Control_c, 0, 64, 83
1, 944516, Control_c, 0, 64, 0
1, 944685, Note_on_c, 0, 33, 79
1, 944685, Note_on_c, 0, 81, 89
1, 944687, Note_on_c, 0, 45, 92
1, 944688, Note_on_c, 0, 69, 94
1, 944688, Note_on_c, 0, 76, 81
1, 944690, Note_on_c, 0, 72, 85
1, 944718, Note_off_c, 0, 33, 69
1, 944721, Note_off_c, 0, 45, 65
1, 944724, Control_c, 0, 64, 18
1, 944738, Control_c, 0, 64, 66
1, 944753, Control_c, 0, 64, 85
1, 944768, Control_c, 0, 64, 127
1, 944898, Note_off_c, 0, 69, 57
1, 944921, Note_off_c, 0, 72, 53
1, 945111, Note_on_c, 0, 69, 95
1, 945116, Note_off_c, 0, 81, 46
1, 945244, Note_off_c, 0, 76, 54
1, 945388, Note_on_c, 0, 57, 85
1, 945391, Note_on_c, 0, 45, 81
1, 945457, Control_c, 0, 64, 116
1, 945472, Control_c, 0, 64, 63
1, 945487, Control_c, 0, 64, 0
1, 945546, Control_c, 0, 64, 53
1, 945561, Control_c, 0, 64, 75
1, 945576, Control_c, 0, 64, 127
1, 945689, Note_off_c, 0, 69, 65
1, 945734, Note_off_c, 0, 45, 64
1, 945781, Note_off_c, 0, 57, 62
1, 947199, Control_c, 0, 64, 109
1, 947213, Control_c, 0, 64, 100
1, 947228, Control_c, 0, 64, 93
1, 947243, Control_c, 0, 64, 88
1, 947250, Note_on_c, 0, 88, 57
1, 947258, Control_c, 0, 64, 81
1, 947272, Control_c, 0, 64, 74
1, 947287, Control_c, 0, 64, 66
1, 947293, Note_on_c, 0, 76, 36
1, 947302, Control_c, 0, 64, 60
1, 947317, Control_c, 0, 64, 51
1, 947332, Control_c, 0, 64, 0
1, 947435, Note_off_c, 0, 76, 39
1, 947554, Control_c, 0, 67, 10
1, 947569, Control_c, 0, 67, 12
1, 947584, Control_c, 0, 67, 14
1, 947591, Note_on_c, 0, 50, 32
1, 947599, Control_c, 0, 67, 14
1, 947613, Control_c, 0, 67, 15
1, 947628, Control_c, 0, 64, 8
1, 947628, Control_c, 0, 67, 16
1, 947643, Control_c, 0, 64, 41
1, 947643, Control_c, 0, 67, 18
1, 947658, Note_on_c, 0, 89, 52
1, 947659, Control_c, 0, 64, 51
1, 947659, Control_c, 0, 67, 19
1, 947661, Note_on_c, 0, 77, 43
1, 947674, Control_c, 0, 64, 56
1, 947674, Control_c, 0, 67, 23
1, 947688, Control_c, 0, 64, 60
1, 947688, Control_c, 0, 67, 28
1, 947703, Control_c, 0, 64, 65
1, 947703, Control_c, 0, 67, 32
1, 947718, Control_c, 0, 64, 69
1, 947718, Control_c, 0, 67, 34
1, 947725, Note_off_c, 0, 88, 37
1, 947733, Control_c, 0, 64, 74
1, 947733, Control_c, 0, 67, 36
1, 947748, Control_c, 0, 64, 80
1, 947748, Control_c, 0, 67, 37
1, 947762, Control_c, 0, 64, 87
1, 947762, Control_c, 0, 67, 39
1, 947777, Control_c, 0, 64, 100
1, 947777, Control_c, 0, 67, 40
1, 947792, Control_c, 0, 64, 127
1, 947792, Control_c, 0, 67, 43
1, 947807, Control_c, 0, 67, 45
1, 947822, Note_off_c, 0, 89, 64
1, 947822, Control_c, 0, 67, 47
1, 947836, Control_c, 0, 67, 49
1, 947851, Control_c, 0, 67, 51
1, 947866, Control_c, 0, 67, 53
1, 947871, Note_off_c, 0, 77, 61
1, 947880, Control_c, 0, 67, 56
1, 947895, Control_c, 0, 67, 60
1, 947910, Control_c, 0, 67, 63
1, 947911, Note_on_c, 0, 53, 28
1, 947925, Control_c, 0, 67, 65
1, 947948, Control_c, 0, 67, 68
1, 947952, Note_off_c, 0, 50, 34
1, 947962, Control_c, 0, 67, 71
1, 947977, Control_c, 0, 67, 74
1, 947992, Control_c, 0, 67, 77
1, 948007, Control_c, 0, 67, 81
1, 948022, Control_c, 0, 67, 85
1, 948036, Control_c, 0, 67, 88
1, 948051, Control_c, 0, 67, 91
1, 948066, Control_c, 0, 67, 94
1, 948081, Note_off_c, 0, 53, 41
1, 948081, Control_c, 0, 67, 97
1, 948095, Control_c, 0, 67, 100
1, 948106, Note_on_c, 0, 58, 35
1, 948110, Control_c, 0, 67, 103
1, 948125, Control_c, 0, 67, 105
1, 948137, Note_on_c, 0, 82, 54
1, 948140, Control_c, 0, 67, 108
1, 948146, Note_on_c, 0, 70, 41
1, 948155, Control_c, 0, 67, 111
1, 948169, Control_c, 0, 67, 114
1, 948184, Control_c, 0, 67, 117
1, 948199, Control_c, 0, 67, 121
1, 948214, Control_c, 0, 67, 124
1, 948229, Control_c, 0, 67, 126
1, 948244, Control_c, 0, 67, 127
1, 948319, Note_off_c, 0, 82, 59
1, 948329, Note_on_c, 0, 53, 25
1, 948363, Note_off_c, 0, 58, 39
1, 948381, Note_off_c, 0, 70, 63
1, 948441, Note_off_c, 0, 53, 37
1, 948461, Note_on_c, 0, 50, 34
1, 948585, Note_on_c, 0, 53, 34
1, 948691, Note_off_c, 0, 50, 32
1, 948719, Note_on_c, 0, 77, 51
1, 948728, Note_off_c, 0, 53, 36
1, 948741, Note_on_c, 0, 58, 38
1, 948747, Note_on_c, 0, 65, 32
1, 948747, Note_off_c, 0, 77, 57
1, 948778, Note_off_c, 0, 65, 54
1, 948849, Note_off_c, 0, 58, 37
1, 948878, Note_on_c, 0, 53, 20
1, 948921, Note_off_c, 0, 53, 44
1, 948952, Note_on_c, 0, 50, 43
1, 949000, Note_on_c, 0, 70, 54
1, 949037, Note_off_c, 0, 70, 64
1, 949055, Note_off_c, 0, 50, 48
1, 949064, Note_on_c, 0, 53, 43
1, 949173, Note_off_c, 0, 53, 61
1, 949209, Note_on_c, 0, 58, 44
1, 949244, Note_on_c, 0, 89, 66
1, 949288, Note_on_c, 0, 77, 28
1, 949369, Note_on_c, 0, 53, 26
1, 949416, Note_off_c, 0, 77, 48
1, 949418, Note_off_c, 0, 58, 41
1, 949430, Control_c, 0, 64, 109
1, 949445, Control_c, 0, 64, 98
1, 949459, Control_c, 0, 64, 91
1, 949474, Control_c, 0, 64, 85
1, 949489, Control_c, 0, 64, 81
1, 949504, Control_c, 0, 64, 76
1, 949519, Control_c, 0, 64, 71
1, 949533, Control_c, 0, 64, 68
1, 949548, Control_c, 0, 64, 65
1, 949559, Note_off_c, 0, 53, 42
1, 949563, Control_c, 0, 64, 61
1, 949568, Note_on_c, 0, 48, 37
1, 949578, Control_c, 0, 64, 50
1, 949593, Note_off_c, 0, 89, 62
1, 949593, Control_c, 0, 64, 0
1, 949594, Note_on_c, 0, 88, 58
1, 949624, Note_on_c, 0, 76, 40
1, 949696, Control_c, 0, 64, 47
1, 949711, Control_c, 0, 64, 67
1, 949726, Control_c, 0, 64, 76
1, 949740, Control_c, 0, 64, 86
1, 949755, Control_c, 0, 64, 94
1, 949758, Note_off_c, 0, 88, 62
1, 949770, Control_c, 0, 64, 110
1, 949785, Control_c, 0, 64, 127
1, 949796, Note_off_c, 0, 76, 57
1, 949860, Note_on_c, 0, 52, 28
1, 949881, Note_off_c, 0, 48, 36
1, 949970, Note_off_c, 0, 52, 37
1, 949986, Note_on_c, 0, 81, 55
1, 949997, Note_on_c, 0, 57, 38
1, 950010, Note_on_c, 0, 69, 40
1, 950080, Note_off_c, 0, 81, 59
1, 950104, Note_on_c, 0, 52, 48
1, 950119, Note_off_c, 0, 69, 59
1, 950190, Note_off_c, 0, 52, 61
1, 950191, Note_off_c, 0, 57, 36
1, 950238, Note_on_c, 0, 48, 47
1, 950334, Note_off_c, 0, 48, 54
1, 950339, Note_on_c, 0, 52, 48
1, 950420, Note_off_c, 0, 52, 61
1, 950430, Note_on_c, 0, 76, 57
1, 950450, Note_on_c, 0, 64, 43
1, 950456, Note_off_c, 0, 76, 58
1, 950464, Note_on_c, 0, 57, 45
1, 950491, Note_off_c, 0, 64, 58
1, 950560, Note_off_c, 0, 57, 45
1, 950569, Note_on_c, 0, 52, 46
1, 950611, Note_off_c, 0, 52, 62
1, 950656, Note_on_c, 0, 69, 63
1, 950671, Note_on_c, 0, 48, 45
1, 950692, Note_on_c, 0, 57, 39
1, 950724, Note_off_c, 0, 57, 52
1, 950737, Note_off_c, 0, 69, 62
1, 950778, Note_on_c, 0, 52, 46
1, 950779, Note_off_c, 0, 48, 52
1, 950836, Note_off_c, 0, 52, 62
1, 950858, Note_on_c, 0, 69, 65
1, 950872, Note_on_c, 0, 57, 51
1, 950951, Note_off_c, 0, 57, 54
1, 950958, Control_c, 0, 64, 118
1, 950973, Control_c, 0, 64, 104
1, 950986, Note_on_c, 0, 52, 45
1, 950987, Control_c, 0, 64, 96
1, 951002, Control_c, 0, 64, 91
1, 951017, Control_c, 0, 64, 87
1, 951031, Control_c, 0, 64, 85
1, 951046, Control_c, 0, 64, 82
1, 951061, Control_c, 0, 64, 77
1, 951076, Control_c, 0, 64, 69
1, 951091, Control_c, 0, 64, 60
1, 951096, Note_off_c, 0, 52, 51
1, 951106, Control_c, 0, 64, 0
1, 951106, Note_on_c, 0, 47, 48
1, 951118, Note_off_c, 0, 69, 61
1, 951129, Note_on_c, 0, 68, 67
1, 951156, Note_on_c, 0, 56, 41
1, 951193, Note_off_c, 0, 56, 62
1, 951195, Control_c, 0, 64, 34
1, 951210, Control_c, 0, 64, 64
1, 951225, Control_c, 0, 64, 75
1, 951239, Control_c, 0, 64, 90
1, 951254, Control_c, 0, 64, 103
1, 951269, Control_c, 0, 64, 116
1, 951270, Note_off_c, 0, 68, 65
1, 951284, Control_c, 0, 64, 127
1, 951303, Note_on_c, 0, 50, 46
1, 951397, Note_off_c, 0, 50, 54
1, 951416, Note_on_c, 0, 76, 69
1, 951430, Note_on_c, 0, 64, 49
1, 951440, Note_on_c, 0, 56, 41
1, 951468, Note_off_c, 0, 47, 42
1, 951553, Note_on_c, 0, 50, 47
1, 951560, Note_off_c, 0, 56, 36
1, 951624, Note_off_c, 0, 50, 54
1, 951648, Note_off_c, 0, 64, 43
1, 951662, Note_on_c, 0, 47, 33
1, 951663, Note_off_c, 0, 76, 57
1, 951794, Note_on_c, 0, 50, 43
1, 951883, Note_off_c, 0, 50, 50
1, 951885, Note_on_c, 0, 80, 76
1, 951892, Note_off_c, 0, 47, 41
1, 951905, Note_on_c, 0, 68, 55
1, 951928, Note_on_c, 0, 56, 36
1, 951939, Note_off_c, 0, 68, 64
1, 952034, Note_off_c, 0, 80, 62
1, 952042, Note_on_c, 0, 50, 47
1, 952107, Note_off_c, 0, 56, 35
1, 952178, Note_on_c, 0, 47, 44
1, 952186, Note_off_c, 0, 50, 49
1, 952234, Note_on_c, 0, 88, 73
1, 952254, Note_on_c, 0, 76, 57
1, 952315, Note_off_c, 0, 76, 55
1, 952342, Note_off_c, 0, 88, 59
1, 952434, Note_on_c, 0, 50, 36
1, 952578, Note_off_c, 0, 50, 33
1, 952587, Note_on_c, 0, 88, 63
1, 952592, Note_on_c, 0, 56, 35
1, 952608, Note_on_c, 0, 76, 46
1, 952653, Note_off_c, 0, 76, 55
1, 952677, Note_off_c, 0, 88, 57
1, 952677, Note_off_c, 0, 47, 11
1, 952719, Note_on_c, 0, 50, 42
1, 952808, Note_off_c, 0, 56, 41
1, 952870, Control_c, 0, 64, 102
1, 952884, Control_c, 0, 64, 87
1, 952891, Note_on_c, 0, 88, 63
1, 952899, Control_c, 0, 64, 72
1, 952903, Note_off_c, 0, 50, 38
1, 952908, Note_on_c, 0, 48, 40
1, 952914, Control_c, 0, 64, 56
1, 952917, Note_on_c, 0, 76, 39
1, 952929, Control_c, 0, 64, 0
1, 953002, Control_c, 0, 64, 54
1, 953017, Control_c, 0, 64, 65
1, 953032, Control_c, 0, 64, 69
1, 953047, Control_c, 0, 64, 73
1, 953055, Note_on_c, 0, 52, 45
1, 953062, Control_c, 0, 64, 75
1, 953076, Control_c, 0, 64, 77
1, 953091, Control_c, 0, 64, 78
1, 953106, Note_off_c, 0, 48, 32
1, 953106, Control_c, 0, 64, 79
1, 953136, Note_off_c, 0, 52, 61
1, 953136, Control_c, 0, 64, 79
1, 953151, Control_c, 0, 64, 81
1, 953165, Control_c, 0, 64, 82
1, 953183, Note_on_c, 0, 57, 36
1, 953189, Control_c, 0, 64, 83
1, 953203, Control_c, 0, 64, 83
1, 953233, Control_c, 0, 64, 84
1, 953292, Note_on_c, 0, 52, 41
1, 953308, Control_c, 0, 64, 84
1, 953341, Note_off_c, 0, 52, 49
1, 953367, Note_off_c, 0, 57, 30
1, 953392, Note_on_c, 0, 48, 45
1, 953438, Note_off_c, 0, 76, 37
1, 953505, Note_on_c, 0, 52, 46
1, 953564, Note_off_c, 0, 52, 63
1, 953604, Note_on_c, 0, 86, 73
1, 953608, Note_off_c, 0, 88, 59
1, 953622, Note_on_c, 0, 57, 38
1, 953664, Poly_aftertouch_c, 0, 74, 127
1, 953699, Poly_aftertouch_c, 0, 74, 0
1, 953710, Note_on_c, 0, 52, 55
1, 953710, Note_off_c, 0, 86, 55
1, 953714, Note_on_c, 0, 88, 80
1, 953717, Note_off_c, 0, 48, 36
1, 953768, Note_off_c, 0, 57, 28
1, 953806, Poly_aftertouch_c, 0, 76, 0
1, 953823, Note_off_c, 0, 52, 57
1, 953841, Control_c, 0, 64, 81
1, 953856, Control_c, 0, 64, 71
1, 953864, Note_on_c, 0, 89, 76
1, 953871, Control_c, 0, 64, 59
1, 953875, Note_off_c, 0, 88, 60
1, 953875, Note_on_c, 0, 50, 31
1, 953886, Control_c, 0, 64, 0
1, 953888, Note_on_c, 0, 77, 58
1, 953952, Control_c, 0, 64, 41
1, 953967, Control_c, 0, 64, 63
1, 953982, Control_c, 0, 64, 70
1, 953997, Control_c, 0, 64, 76
1, 954012, Control_c, 0, 64, 79
1, 954020, Note_off_c, 0, 50, 56
1, 954020, Note_off_c, 0, 77, 59
1, 954026, Control_c, 0, 64, 79
1, 954053, Note_on_c, 0, 53, 47
1, 954057, Control_c, 0, 64, 80
1, 954156, Note_off_c, 0, 89, 65
1, 954168, Note_off_c, 0, 53, 37
1, 954172, Note_on_c, 0, 88, 74
1, 954183, Note_on_c, 0, 58, 51
1, 954189, Note_on_c, 0, 76, 54
1, 954212, Note_off_c, 0, 76, 60
1, 954245, Note_off_c, 0, 88, 54
1, 954278, Note_on_c, 0, 86, 75
1, 954284, Note_off_c, 0, 58, 58
1, 954285, Note_on_c, 0, 53, 51
1, 954297, Note_on_c, 0, 74, 58
1, 954310, Note_off_c, 0, 86, 59
1, 954331, Note_off_c, 0, 74, 64
1, 954368, Control_c, 0, 64, 79
1, 954383, Control_c, 0, 64, 79
1, 954397, Control_c, 0, 64, 76
1, 954412, Control_c, 0, 64, 71
1, 954420, Note_off_c, 0, 53, 35
1, 954427, Control_c, 0, 64, 64
1, 954432, Note_on_c, 0, 84, 72
1, 954438, Note_on_c, 0, 52, 45
1, 954442, Control_c, 0, 64, 33
1, 954444, Note_on_c, 0, 72, 62
1, 954456, Control_c, 0, 64, 0
1, 954546, Control_c, 0, 64, 56
1, 954561, Control_c, 0, 64, 65
1, 954566, Note_on_c, 0, 57, 45
1, 954575, Control_c, 0, 64, 67
1, 954590, Control_c, 0, 64, 68
1, 954605, Control_c, 0, 64, 69
1, 954620, Control_c, 0, 64, 70
1, 954629, Note_off_c, 0, 52, 33
1, 954632, Note_off_c, 0, 57, 60
1, 954635, Control_c, 0, 64, 71
1, 954649, Control_c, 0, 64, 71
1, 954664, Control_c, 0, 64, 72
1, 954678, Note_on_c, 0, 60, 36
1, 954686, Control_c, 0, 64, 72
1, 954701, Control_c, 0, 64, 73
1, 954774, Note_on_c, 0, 57, 40
1, 954850, Note_off_c, 0, 57, 56
1, 954852, Note_off_c, 0, 60, 33
1, 954891, Note_on_c, 0, 52, 40
1, 954988, Note_on_c, 0, 57, 42
1, 955056, Note_off_c, 0, 52, 43
1, 955066, Note_off_c, 0, 57, 61
1, 955100, Note_off_c, 0, 72, 55
1, 955113, Note_on_c, 0, 60, 36
1, 955213, Note_on_c, 0, 57, 34
1, 955250, Control_c, 0, 64, 71
1, 955264, Control_c, 0, 64, 64
1, 955275, Note_off_c, 0, 60, 31
1, 955279, Control_c, 0, 64, 53
1, 955288, Note_off_c, 0, 57, 55
1, 955294, Control_c, 0, 64, 23
1, 955309, Control_c, 0, 64, 0
1, 955320, Note_off_c, 0, 84, 58
1, 955324, Note_on_c, 0, 83, 49
1, 955324, Control_c, 0, 64, 17
1, 955339, Control_c, 0, 64, 36
1, 955340, Note_on_c, 0, 52, 33
1, 955342, Note_on_c, 0, 71, 40
1, 955353, Control_c, 0, 64, 51
1, 955368, Control_c, 0, 64, 59
1, 955383, Control_c, 0, 64, 63
1, 955398, Control_c, 0, 64, 65
1, 955413, Control_c, 0, 64, 67
1, 955435, Control_c, 0, 64, 68
1, 955450, Control_c, 0, 64, 70
1, 955463, Note_on_c, 0, 56, 37
1, 955465, Control_c, 0, 64, 73
1, 955476, Note_off_c, 0, 71, 37
1, 955479, Control_c, 0, 64, 75
1, 955494, Control_c, 0, 64, 77
1, 955509, Control_c, 0, 64, 78
1, 955524, Control_c, 0, 64, 79
1, 955528, Note_off_c, 0, 56, 60
1, 955537, Note_off_c, 0, 52, 39
1, 955539, Control_c, 0, 64, 81
1, 955553, Control_c, 0, 64, 83
1, 955559, Note_off_c, 0, 83, 61
1, 955568, Control_c, 0, 64, 85
1, 955582, Note_on_c, 0, 59, 43
1, 955583, Control_c, 0, 64, 87
1, 955598, Control_c, 0, 64, 89
1, 955598, Control_c, 0, 67, 124
1, 955613, Control_c, 0, 64, 91
1, 955613, Control_c, 0, 67, 119
1, 955628, Control_c, 0, 64, 92
1, 955628, Control_c, 0, 67, 116
1, 955643, Control_c, 0, 64, 92
1, 955643, Control_c, 0, 67, 112
1, 955658, Control_c, 0, 64, 93
1, 955658, Control_c, 0, 67, 108
1, 955673, Control_c, 0, 64, 94
1, 955673, Control_c, 0, 67, 104
1, 955688, Control_c, 0, 64, 95
1, 955688, Control_c, 0, 67, 100
1, 955702, Control_c, 0, 67, 93
1, 955705, Note_on_c, 0, 56, 43
1, 955717, Control_c, 0, 67, 86
1, 955732, Control_c, 0, 67, 81
1, 955747, Control_c, 0, 67, 78
1, 955762, Control_c, 0, 67, 76
1, 955765, Note_off_c, 0, 59, 39
1, 955777, Control_c, 0, 67, 75
1, 955836, Control_c, 0, 67, 76
1, 955851, Control_c, 0, 64, 94
1, 955851, Control_c, 0, 67, 76
1, 955866, Control_c, 0, 64, 92
1, 955866, Control_c, 0, 67, 77
1, 955881, Control_c, 0, 64, 90
1, 955881, Control_c, 0, 67, 77
1, 955886, Note_on_c, 0, 49, 45
1, 955895, Control_c, 0, 64, 86
1, 955895, Control_c, 0, 67, 78
1, 955910, Control_c, 0, 64, 79
1, 955925, Control_c, 0, 64, 69
1, 955925, Control_c, 0, 67, 78
1, 955930, Note_off_c, 0, 56, 36
1, 955940, Control_c, 0, 64, 61
1, 955940, Control_c, 0, 67, 79
1, 955955, Control_c, 0, 64, 10
1, 955956, Note_on_c, 0, 88, 71
1, 955969, Control_c, 0, 64, 0
1, 955981, Note_on_c, 0, 76, 50
1, 955984, Control_c, 0, 67, 79
1, 955999, Control_c, 0, 67, 80
1, 956013, Control_c, 0, 67, 80
1, 956028, Control_c, 0, 64, 45
1, 956028, Control_c, 0, 67, 81
1, 956043, Control_c, 0, 64, 63
1, 956043, Control_c, 0, 67, 83
1, 956058, Control_c, 0, 64, 68
1, 956058, Control_c, 0, 67, 84
1, 956073, Control_c, 0, 64, 73
1, 956073, Control_c, 0, 67, 86
1, 956087, Control_c, 0, 64, 77
1, 956087, Control_c, 0, 67, 88
1, 956095, Note_on_c, 0, 52, 52
1, 956102, Control_c, 0, 64, 81
1, 956102, Control_c, 0, 67, 90
1, 956117, Control_c, 0, 64, 84
1, 956117, Control_c, 0, 67, 92
1, 956132, Control_c, 0, 64, 85
1, 956132, Control_c, 0, 67, 93
1, 956147, Control_c, 0, 67, 94
1, 956169, Control_c, 0, 67, 96
1, 956184, Control_c, 0, 67, 97
1, 956199, Control_c, 0, 67, 98
1, 956203, Note_off_c, 0, 52, 63
1, 956214, Control_c, 0, 64, 85
1, 956214, Control_c, 0, 67, 99
1, 956218, Note_off_c, 0, 49, 28
1, 956225, Note_on_c, 0, 57, 45
1, 956228, Control_c, 0, 67, 100
1, 956243, Control_c, 0, 67, 101
1, 956346, Control_c, 0, 67, 100
1, 956350, Note_on_c, 0, 52, 46
1, 956361, Control_c, 0, 67, 100
1, 956391, Control_c, 0, 67, 99
1, 956406, Control_c, 0, 67, 99
1, 956421, Control_c, 0, 67, 98
1, 956436, Control_c, 0, 67, 98
1, 956442, Note_off_c, 0, 52, 57
1, 956443, Note_off_c, 0, 57, 28
1, 956459, Note_off_c, 0, 76, 61
1, 956466, Control_c, 0, 67, 97
1, 956471, Note_on_c, 0, 49, 40
1, 956481, Control_c, 0, 67, 97
1, 956511, Control_c, 0, 67, 96
1, 956525, Control_c, 0, 67, 96
1, 956540, Control_c, 0, 67, 95
1, 956555, Control_c, 0, 67, 95
1, 956582, Note_on_c, 0, 52, 58
1, 956614, Control_c, 0, 67, 94
1, 956644, Control_c, 0, 67, 94
1, 956657, Note_off_c, 0, 88, 63
1, 956662, Note_off_c, 0, 52, 62
1, 956670, Note_on_c, 0, 87, 73
1, 956689, Control_c, 0, 67, 93
1, 956697, Note_on_c, 0, 57, 50
1, 956703, Note_on_c, 0, 75, 48
1, 956728, Note_off_c, 0, 75, 66
1, 956733, Control_c, 0, 67, 93
1, 956800, Note_on_c, 0, 52, 54
1, 956800, Note_off_c, 0, 49, 38
1, 956802, Note_on_c, 0, 88, 75
1, 956823, Note_on_c, 0, 76, 60
1, 956824, Note_off_c, 0, 87, 60
1, 956842, Note_off_c, 0, 76, 67
1, 956851, Control_c, 0, 64, 85
1, 956881, Control_c, 0, 64, 84
1, 956890, Note_off_c, 0, 57, 33
1, 956896, Control_c, 0, 64, 84
1, 956933, Control_c, 0, 64, 83
1, 956963, Control_c, 0, 64, 81
1, 956963, Control_c, 0, 67, 93
1, 956975, Note_on_c, 0, 50, 46
1, 956977, Control_c, 0, 64, 77
1, 956984, Note_off_c, 0, 88, 60
1, 956986, Note_off_c, 0, 52, 41
1, 956987, Note_on_c, 0, 90, 77
1, 956992, Control_c, 0, 64, 66
1, 957007, Note_on_c, 0, 78, 53
1, 957007, Control_c, 0, 64, 33
1, 957022, Control_c, 0, 64, 0
1, 957037, Control_c, 0, 67, 93
1, 957096, Control_c, 0, 64, 10
1, 957111, Control_c, 0, 64, 60
1, 957125, Control_c, 0, 64, 67
1, 957140, Control_c, 0, 64, 71
1, 957140, Control_c, 0, 67, 93
1, 957146, Note_off_c, 0, 78, 60
1, 957155, Control_c, 0, 64, 73
1, 957168, Note_on_c, 0, 54, 37
1, 957169, Control_c, 0, 64, 75
1, 957184, Control_c, 0, 64, 76
1, 957199, Control_c, 0, 64, 77
1, 957199, Control_c, 0, 67, 93
1, 957252, Note_off_c, 0, 50, 31
1, 957280, Note_off_c, 0, 54, 50
1, 957290, Note_on_c, 0, 92, 77
1, 957300, Note_on_c, 0, 80, 58
1, 957321, Note_on_c, 0, 57, 39
1, 957339, Note_off_c, 0, 90, 59
1, 957354, Note_off_c, 0, 80, 61
1, 957363, Control_c, 0, 67, 92
1, 957378, Control_c, 0, 67, 92
1, 957425, Note_on_c, 0, 93, 73
1, 957427, Note_on_c, 0, 54, 44
1, 957449, Note_on_c, 0, 81, 60
1, 957452, Control_c, 0, 67, 91
1, 957457, Note_off_c, 0, 92, 60
1, 957467, Control_c, 0, 67, 92
1, 957479, Note_off_c, 0, 81, 64
1, 957480, Note_off_c, 0, 93, 61
1, 957486, Note_off_c, 0, 57, 35
1, 957497, Control_c, 0, 67, 93
1, 957512, Control_c, 0, 67, 94
1, 957527, Control_c, 0, 67, 95
1, 957541, Control_c, 0, 67, 96
1, 957556, Control_c, 0, 67, 97
1, 957571, Control_c, 0, 67, 98
1, 957586, Control_c, 0, 67, 99
1, 957615, Control_c, 0, 64, 76
1, 957615, Control_c, 0, 67, 100
1, 957630, Control_c, 0, 64, 75
1, 957630, Control_c, 0, 67, 100
1, 957645, Note_off_c, 0, 54, 56
1, 957645, Control_c, 0, 64, 74
1, 957645, Control_c, 0, 67, 101
1, 957660, Control_c, 0, 64, 73
1, 957660, Control_c, 0, 67, 102
1, 957661, Note_on_c, 0, 52, 47
1, 957682, Control_c, 0, 64, 72
1, 957696, Control_c, 0, 64, 68
1, 957711, Control_c, 0, 64, 61
1, 957711, Control_c, 0, 67, 102
1, 957713, Note_on_c, 0, 85, 69
1, 957726, Control_c, 0, 64, 0
1, 957727, Note_on_c, 0, 73, 55
1, 957741, Control_c, 0, 67, 103
1, 957756, Control_c, 0, 67, 105
1, 957771, Control_c, 0, 67, 109
1, 957786, Control_c, 0, 67, 112
1, 957800, Control_c, 0, 67, 115
1, 957815, Control_c, 0, 64, 53
1, 957815, Control_c, 0, 67, 119
1, 957830, Control_c, 0, 64, 65
1, 957830, Control_c, 0, 67, 122
1, 957845, Control_c, 0, 64, 70
1, 957845, Control_c, 0, 67, 126
1, 957860, Control_c, 0, 64, 71
1, 957860, Control_c, 0, 67, 127
1, 957874, Control_c, 0, 64, 72
1, 957889, Control_c, 0, 64, 74
1, 957904, Control_c, 0, 64, 74
1, 957908, Note_on_c, 0, 57, 40
1, 957934, Control_c, 0, 64, 75
1, 957975, Note_off_c, 0, 52, 34
1, 957997, Note_off_c, 0, 57, 61
1, 958038, Note_on_c, 0, 61, 44
1, 958143, Note_on_c, 0, 57, 39
1, 958214, Note_off_c, 0, 61, 35
1, 958233, Note_off_c, 0, 57, 56
1, 958275, Note_on_c, 0, 52, 42
1, 958337, Note_off_c, 0, 73, 31
1, 958370, Note_on_c, 0, 57, 44
1, 958445, Note_off_c, 0, 85, 61
1, 958452, Note_off_c, 0, 52, 42
1, 958466, Note_off_c, 0, 57, 60
1, 958490, Note_on_c, 0, 86, 64
1, 958498, Note_on_c, 0, 74, 37
1, 958507, Note_on_c, 0, 61, 48
1, 958525, Note_off_c, 0, 74, 53
1, 958564, Control_c, 0, 64, 74
1, 958579, Control_c, 0, 64, 74
1, 958594, Control_c, 0, 64, 73
1, 958606, Note_off_c, 0, 86, 58
1, 958607, Note_on_c, 0, 57, 46
1, 958608, Note_on_c, 0, 88, 66
1, 958609, Control_c, 0, 64, 72
1, 958623, Note_on_c, 0, 76, 49
1, 958623, Control_c, 0, 64, 71
1, 958638, Control_c, 0, 64, 70
1, 958647, Note_off_c, 0, 76, 60
1, 958653, Control_c, 0, 64, 69
1, 958668, Control_c, 0, 64, 69
1, 958668, Note_off_c, 0, 61, 50
1, 958683, Control_c, 0, 64, 68
1, 958697, Control_c, 0, 64, 67
1, 958712, Control_c, 0, 64, 66
1, 958727, Control_c, 0, 64, 65
1, 958741, Control_c, 0, 64, 64
1, 958756, Control_c, 0, 64, 61
1, 958771, Control_c, 0, 64, 49
1, 958784, Note_off_c, 0, 57, 33
1, 958786, Control_c, 0, 64, 0
1, 958798, Note_on_c, 0, 52, 25
1, 958799, Note_on_c, 0, 86, 62
1, 958807, Note_off_c, 0, 88, 58
1, 958815, Note_on_c, 0, 74, 38
1, 958891, Control_c, 0, 64, 52
1, 958906, Control_c, 0, 64, 65
1, 958920, Control_c, 0, 64, 69
1, 958935, Control_c, 0, 64, 71
1, 958950, Control_c, 0, 64, 72
1, 958964, Control_c, 0, 64, 74
1, 958967, Note_off_c, 0, 74, 64
1, 958979, Control_c, 0, 64, 75
1, 958984, Note_on_c, 0, 56, 44
1, 958994, Control_c, 0, 64, 76
1, 959068, Note_off_c, 0, 56, 46
1, 959094, Note_off_c, 0, 86, 58
1, 959133, Note_on_c, 0, 85, 59
1, 959175, Note_on_c, 0, 73, 21
1, 959180, Note_on_c, 0, 62, 30
1, 959180, Note_off_c, 0, 85, 61
1, 959217, Note_off_c, 0, 73, 40
1, 959259, Note_off_c, 0, 62, 39
1, 959268, Control_c, 0, 64, 75
1, 959278, Note_off_c, 0, 52, 37
1, 959280, Note_on_c, 0, 83, 43
1, 959283, Note_on_c, 0, 71, 34
1, 959283, Control_c, 0, 64, 75
1, 959284, Note_on_c, 0, 56, 42
1, 959298, Control_c, 0, 64, 74
1, 959313, Control_c, 0, 64, 73
1, 959314, Note_off_c, 0, 71, 55
1, 959327, Control_c, 0, 64, 72
1, 959342, Control_c, 0, 64, 71
1, 959357, Control_c, 0, 64, 70
1, 959372, Control_c, 0, 64, 69
1, 959387, Control_c, 0, 64, 67
1, 959402, Control_c, 0, 64, 66
1, 959416, Control_c, 0, 64, 64
1, 959430, Note_off_c, 0, 56, 54
1, 959431, Control_c, 0, 64, 60
1, 959446, Control_c, 0, 64, 43
1, 959461, Control_c, 0, 64, 0
1, 959492, Note_off_c, 0, 83, 57
1, 959500, Note_on_c, 0, 57, 35
1, 959501, Note_on_c, 0, 81, 50
1, 959502, Note_on_c, 0, 69, 33
1, 959512, Note_on_c, 0, 61, 30
1, 959579, Control_c, 0, 64, 57
1, 959594, Control_c, 0, 64, 67
1, 959609, Control_c, 0, 64, 71
1, 959612, Note_off_c, 0, 81, 60
1, 959624, Control_c, 0, 64, 76
1, 959628, Note_off_c, 0, 57, 52
1, 959640, Control_c, 0, 64, 79
1, 959655, Control_c, 0, 64, 83
1, 959669, Control_c, 0, 64, 86
1, 959674, Note_off_c, 0, 69, 61
1, 959684, Control_c, 0, 64, 87
1, 959685, Note_off_c, 0, 61, 61
1, 959699, Control_c, 0, 64, 88
1, 959729, Control_c, 0, 64, 88
1, 959914, Control_c, 0, 64, 85
1, 959928, Control_c, 0, 64, 74
1, 959941, Note_on_c, 0, 76, 47
1, 959942, Control_c, 0, 64, 61
1, 959957, Control_c, 0, 64, 28
1, 959962, Note_on_c, 0, 52, 39
1, 959965, Note_on_c, 0, 69, 37
1, 959967, Note_on_c, 0, 61, 37
1, 959972, Control_c, 0, 64, 25
1, 959986, Control_c, 0, 64, 49
1, 960001, Control_c, 0, 64, 60
1, 960016, Control_c, 0, 64, 66
1, 960031, Control_c, 0, 64, 74
1, 960046, Control_c, 0, 64, 90
1, 960061, Control_c, 0, 64, 101
1, 960062, Note_off_c, 0, 69, 39
1, 960075, Control_c, 0, 64, 107
1, 960090, Control_c, 0, 64, 116
1, 960105, Control_c, 0, 64, 127
1, 960127, Note_off_c, 0, 52, 35
1, 960141, Note_off_c, 0, 61, 38
1, 960245, Note_off_c, 0, 76, 54
1, 960254, Control_c, 0, 64, 100
1, 960258, Note_on_c, 0, 78, 55
1, 960268, Control_c, 0, 64, 79
1, 960283, Control_c, 0, 64, 65
1, 960287, Note_on_c, 0, 62, 42
1, 960289, Note_on_c, 0, 52, 42
1, 960289, Note_on_c, 0, 69, 36
1, 960298, Control_c, 0, 64, 48
1, 960312, Control_c, 0, 64, 44
1, 960327, Control_c, 0, 64, 58
1, 960342, Control_c, 0, 64, 63
1, 960357, Control_c, 0, 64, 68
1, 960372, Control_c, 0, 64, 76
1, 960386, Control_c, 0, 64, 88
1, 960401, Control_c, 0, 64, 99
1, 960416, Control_c, 0, 64, 114
1, 960417, Note_off_c, 0, 69, 37
1, 960431, Control_c, 0, 64, 127
1, 960440, Note_off_c, 0, 52, 41
1, 960451, Note_off_c, 0, 62, 34
1, 960477, Control_c, 0, 64, 101
1, 960491, Control_c, 0, 64, 77
1, 960506, Control_c, 0, 64, 65
1, 960519, Note_on_c, 0, 76, 57
1, 960521, Control_c, 0, 64, 63
1, 960531, Note_on_c, 0, 61, 53
1, 960536, Control_c, 0, 64, 67
1, 960539, Note_off_c, 0, 78, 39
1, 960541, Note_on_c, 0, 69, 38
1, 960546, Note_on_c, 0, 52, 45
1, 960551, Control_c, 0, 64, 73
1, 960565, Control_c, 0, 64, 82
1, 960580, Control_c, 0, 64, 91
1, 960592, Note_off_c, 0, 76, 60
1, 960595, Control_c, 0, 64, 95
1, 960600, Note_off_c, 0, 61, 59
1, 960609, Control_c, 0, 64, 97
1, 960611, Note_off_c, 0, 69, 51
1, 960612, Note_off_c, 0, 52, 55
1, 960639, Control_c, 0, 64, 97
1, 960706, Control_c, 0, 64, 89
1, 960721, Control_c, 0, 64, 71
1, 960735, Control_c, 0, 64, 55
1, 960750, Control_c, 0, 64, 8
1, 960760, Note_on_c, 0, 76, 61
1, 960763, Note_on_c, 0, 69, 46
1, 960765, Control_c, 0, 64, 37
1, 960775, Note_on_c, 0, 59, 42
1, 960779, Note_on_c, 0, 52, 48
1, 960780, Control_c, 0, 64, 55
1, 960795, Control_c, 0, 64, 63
1, 960809, Control_c, 0, 64, 70
1, 960824, Control_c, 0, 64, 79
1, 960839, Control_c, 0, 64, 89
1, 960854, Control_c, 0, 64, 95
1, 960869, Control_c, 0, 64, 101
1, 960870, Note_off_c, 0, 76, 59
1, 960880, Note_off_c, 0, 69, 39
1, 960884, Control_c, 0, 64, 104
1, 960888, Note_off_c, 0, 52, 37
1, 960898, Control_c, 0, 64, 105
1, 960907, Note_off_c, 0, 59, 37
1, 960928, Control_c, 0, 64, 103
1, 960943, Control_c, 0, 64, 87
1, 960958, Control_c, 0, 64, 71
1, 960972, Control_c, 0, 64, 61
1, 960987, Control_c, 0, 64, 58
1, 960988, Note_on_c, 0, 76, 62
1, 960990, Note_on_c, 0, 68, 49
1, 960993, Note_on_c, 0, 52, 47
1, 960995, Note_on_c, 0, 62, 50
1, 961002, Control_c, 0, 64, 64
1, 961017, Control_c, 0, 64, 67
1, 961032, Control_c, 0, 64, 74
1, 961047, Control_c, 0, 64, 89
1, 961062, Control_c, 0, 64, 112
1, 961068, Note_off_c, 0, 76, 59
1, 961077, Control_c, 0, 64, 127
1, 961080, Note_off_c, 0, 52, 38
1, 961108, Note_off_c, 0, 62, 34
1, 961165, Control_c, 0, 64, 99
1, 961171, Note_off_c, 0, 68, 41
1, 961180, Control_c, 0, 64, 73
1, 961195, Control_c, 0, 64, 61
1, 961208, Note_on_c, 0, 76, 59
1, 961209, Control_c, 0, 64, 52
1, 961217, Note_on_c, 0, 69, 55
1, 961224, Control_c, 0, 64, 60
1, 961233, Note_on_c, 0, 57, 42
1, 961234, Note_on_c, 0, 61, 42
1, 961240, Control_c, 0, 64, 65
1, 961255, Control_c, 0, 64, 69
1, 961270, Control_c, 0, 64, 79
1, 961285, Control_c, 0, 64, 101
1, 961294, Note_off_c, 0, 76, 58
1, 961300, Control_c, 0, 64, 110
1, 961303, Note_off_c, 0, 61, 44
1, 961307, Note_off_c, 0, 57, 48
1, 961314, Control_c, 0, 64, 110
1, 961326, Note_off_c, 0, 69, 38
1, 961426, Control_c, 0, 64, 110
1, 961440, Control_c, 0, 64, 99
1, 961455, Control_c, 0, 64, 81
1, 961458, Note_on_c, 0, 76, 59
1, 961470, Control_c, 0, 64, 67
1, 961472, Note_on_c, 0, 69, 41
1, 961485, Control_c, 0, 64, 50
1, 961488, Note_on_c, 0, 61, 37
1, 961497, Note_on_c, 0, 52, 36
1, 961500, Control_c, 0, 64, 39
1, 961514, Control_c, 0, 64, 51
1, 961529, Control_c, 0, 64, 59
1, 961544, Control_c, 0, 64, 64
1, 961558, Control_c, 0, 64, 69
1, 961573, Control_c, 0, 64, 78
1, 961588, Control_c, 0, 64, 87
1, 961603, Control_c, 0, 64, 92
1, 961618, Control_c, 0, 64, 96
1, 961629, Note_off_c, 0, 61, 33
1, 961632, Note_off_c, 0, 69, 36
1, 961632, Control_c, 0, 64, 98
1, 961633, Note_off_c, 0, 52, 33
1, 961635, Note_off_c, 0, 76, 38
1, 961647, Control_c, 0, 64, 99
1, 961792, Note_on_c, 0, 81, 55
1, 961795, Control_c, 0, 64, 94
1, 961810, Control_c, 0, 64, 80
1, 961814, Note_on_c, 0, 78, 48
1, 961820, Note_on_c, 0, 69, 33
1, 961825, Control_c, 0, 64, 66
1, 961826, Note_on_c, 0, 62, 36
1, 961832, Note_on_c, 0, 52, 31
1, 961840, Control_c, 0, 64, 45
1, 961855, Control_c, 0, 64, 0
1, 961870, Control_c, 0, 64, 28
1, 961885, Control_c, 0, 64, 51
1, 961900, Control_c, 0, 64, 60
1, 961914, Control_c, 0, 64, 65
1, 961929, Control_c, 0, 64, 70
1, 961944, Control_c, 0, 64, 77
1, 961958, Control_c, 0, 64, 83
1, 961973, Control_c, 0, 64, 87
1, 961986, Note_off_c, 0, 69, 37
1, 961988, Note_off_c, 0, 52, 44
1, 961988, Control_c, 0, 64, 91
1, 961992, Note_off_c, 0, 62, 40
1, 962003, Control_c, 0, 64, 96
1, 962018, Control_c, 0, 64, 98
1, 962049, Control_c, 0, 64, 94
1, 962063, Control_c, 0, 64, 81
1, 962069, Note_off_c, 0, 81, 50
1, 962078, Control_c, 0, 64, 70
1, 962093, Control_c, 0, 64, 64
1, 962108, Control_c, 0, 64, 64
1, 962108, Note_on_c, 0, 76, 49
1, 962112, Note_on_c, 0, 61, 45
1, 962113, Note_on_c, 0, 69, 37
1, 962118, Note_off_c, 0, 78, 35
1, 962123, Control_c, 0, 64, 66
1, 962127, Note_on_c, 0, 52, 41
1, 962137, Control_c, 0, 64, 71
1, 962152, Control_c, 0, 64, 75
1, 962174, Control_c, 0, 64, 79
1, 962176, Note_off_c, 0, 61, 57
1, 962180, Note_off_c, 0, 76, 63
1, 962181, Note_off_c, 0, 69, 56
1, 962189, Control_c, 0, 64, 81
1, 962195, Note_off_c, 0, 52, 52
1, 962204, Control_c, 0, 64, 82
1, 962218, Control_c, 0, 64, 83
1, 962248, Control_c, 0, 64, 83
1, 962293, Control_c, 0, 64, 82
1, 962308, Control_c, 0, 64, 75
1, 962323, Control_c, 0, 64, 66
1, 962332, Note_on_c, 0, 69, 47
1, 962333, Note_on_c, 0, 76, 50
1, 962337, Control_c, 0, 64, 58
1, 962350, Note_on_c, 0, 52, 43
1, 962351, Note_on_c, 0, 59, 39
1, 962352, Control_c, 0, 64, 58
1, 962367, Control_c, 0, 64, 62
1, 962382, Control_c, 0, 64, 65
1, 962396, Control_c, 0, 64, 68
1, 962399, Note_off_c, 0, 69, 56
1, 962411, Control_c, 0, 64, 75
1, 962420, Note_off_c, 0, 76, 63
1, 962425, Note_on_c, 0, 68, 59
1, 962426, Control_c, 0, 64, 83
1, 962441, Control_c, 0, 64, 85
1, 962456, Control_c, 0, 64, 86
1, 962460, Note_off_c, 0, 59, 0
1, 962460, Note_off_c, 0, 52, 36
1, 962470, Control_c, 0, 64, 87
1, 962500, Control_c, 0, 64, 86
1, 962509, Poly_aftertouch_c, 0, 59, 0
1, 962515, Control_c, 0, 64, 77
1, 962522, Note_off_c, 0, 68, 53
1, 962529, Control_c, 0, 64, 64
1, 962543, Note_on_c, 0, 69, 40
1, 962544, Control_c, 0, 64, 41
1, 962548, Note_on_c, 0, 76, 53
1, 962549, Note_on_c, 0, 52, 44
1, 962558, Note_on_c, 0, 62, 49
1, 962559, Control_c, 0, 64, 30
1, 962574, Control_c, 0, 64, 50
1, 962588, Control_c, 0, 64, 60
1, 962603, Control_c, 0, 64, 65
1, 962616, Note_off_c, 0, 52, 54
1, 962618, Control_c, 0, 64, 71
1, 962622, Note_off_c, 0, 69, 50
1, 962624, Note_off_c, 0, 76, 58
1, 962633, Control_c, 0, 64, 76
1, 962641, Note_on_c, 0, 71, 52
1, 962646, Note_off_c, 0, 62, 37
1, 962648, Control_c, 0, 64, 78
1, 962692, Control_c, 0, 64, 78
1, 962707, Control_c, 0, 64, 71
1, 962722, Control_c, 0, 64, 57
1, 962731, Note_off_c, 0, 71, 51
1, 962737, Control_c, 0, 64, 0
1, 962764, Note_on_c, 0, 69, 37
1, 962768, Note_on_c, 0, 57, 42
1, 962768, Note_on_c, 0, 76, 48
1, 962775, Note_on_c, 0, 61, 45
1, 962781, Control_c, 0, 64, 51
1, 962796, Control_c, 0, 64, 63
1, 962811, Control_c, 0, 64, 70
1, 962826, Control_c, 0, 64, 74
1, 962827, Note_off_c, 0, 57, 52
1, 962838, Note_off_c, 0, 69, 43
1, 962841, Control_c, 0, 64, 76
1, 962856, Note_off_c, 0, 76, 51
1, 962889, Note_off_c, 0, 61, 35
1, 962952, Control_c, 0, 64, 71
1, 962967, Control_c, 0, 64, 63
1, 962982, Control_c, 0, 64, 39
1, 962996, Control_c, 0, 64, 8
1, 963011, Control_c, 0, 64, 41
1, 963011, Note_on_c, 0, 76, 44
1, 963018, Note_on_c, 0, 59, 40
1, 963023, Note_on_c, 0, 68, 44
1, 963026, Control_c, 0, 64, 56
1, 963036, Note_on_c, 0, 52, 42
1, 963041, Control_c, 0, 64, 63
1, 963056, Control_c, 0, 64, 67
1, 963071, Control_c, 0, 64, 72
1, 963085, Control_c, 0, 64, 77
1, 963092, Note_off_c, 0, 59, 49
1, 963100, Control_c, 0, 64, 80
1, 963104, Note_off_c, 0, 52, 48
1, 963108, Note_off_c, 0, 76, 51
1, 963115, Control_c, 0, 64, 81
1, 963130, Control_c, 0, 64, 81
1, 963137, Note_off_c, 0, 68, 40
1, 963144, Control_c, 0, 64, 82
1, 963218, Control_c, 0, 64, 77
1, 963233, Control_c, 0, 64, 68
1, 963248, Control_c, 0, 64, 60
1, 963263, Control_c, 0, 64, 55
1, 963268, Note_on_c, 0, 76, 48
1, 963273, Note_on_c, 0, 69, 43
1, 963278, Control_c, 0, 64, 60
1, 963281, Note_on_c, 0, 61, 40
1, 963283, Note_on_c, 0, 57, 37
1, 963292, Control_c, 0, 64, 64
1, 963307, Control_c, 0, 64, 66
1, 963313, Note_off_c, 0, 69, 52
1, 963322, Control_c, 0, 64, 69
1, 963323, Note_off_c, 0, 61, 47
1, 963327, Note_off_c, 0, 76, 55
1, 963334, Note_off_c, 0, 57, 54
1, 963336, Control_c, 0, 64, 72
1, 963351, Control_c, 0, 64, 74
1, 963366, Control_c, 0, 64, 75
1, 963381, Control_c, 0, 64, 75
1, 963411, Control_c, 0, 64, 76
1, 963449, Note_on_c, 0, 73, 47
1, 963470, Control_c, 0, 64, 74
1, 963485, Control_c, 0, 64, 64
1, 963500, Control_c, 0, 64, 23
1, 963515, Control_c, 0, 64, 0
1, 963528, Note_off_c, 0, 73, 46
1, 963531, Note_on_c, 0, 71, 35
1, 963537, Note_on_c, 0, 52, 41
1, 963540, Note_on_c, 0, 76, 45
1, 963545, Note_on_c, 0, 62, 28
1, 963554, Note_on_c, 0, 68, 33
1, 963559, Control_c, 0, 64, 51
1, 963570, Note_off_c, 0, 71, 49
1, 963574, Control_c, 0, 64, 65
1, 963589, Note_off_c, 0, 62, 47
1, 963589, Control_c, 0, 64, 71
1, 963590, Note_off_c, 0, 52, 42
1, 963602, Note_off_c, 0, 68, 45
1, 963603, Control_c, 0, 64, 75
1, 963618, Control_c, 0, 64, 78
1, 963634, Control_c, 0, 64, 80
1, 963656, Note_off_c, 0, 76, 36
1, 963656, Control_c, 0, 64, 81
1, 963879, Control_c, 0, 64, 78
1, 963894, Control_c, 0, 64, 70
1, 963909, Control_c, 0, 64, 61
1, 963924, Control_c, 0, 64, 44
1, 963934, Note_on_c, 0, 76, 39
1, 963938, Note_on_c, 0, 69, 37
1, 963938, Control_c, 0, 64, 48
1, 963947, Note_on_c, 0, 57, 38
1, 963953, Note_on_c, 0, 61, 31
1, 963953, Control_c, 0, 64, 59
1, 963968, Control_c, 0, 64, 63
1, 963983, Control_c, 0, 64, 66
1, 963998, Control_c, 0, 64, 72
1, 964013, Control_c, 0, 64, 78
1, 964013, Note_off_c, 0, 61, 52
1, 964028, Control_c, 0, 64, 81
1, 964042, Control_c, 0, 64, 81
1, 964076, Note_off_c, 0, 57, 59
1, 964087, Control_c, 0, 64, 82
1, 964090, Note_off_c, 0, 69, 38
1, 964120, Note_off_c, 0, 76, 44
1, 964338, Control_c, 0, 64, 76
1, 964350, Note_on_c, 0, 45, 103
1, 964353, Control_c, 0, 64, 56
1, 964355, Note_on_c, 0, 33, 94
1, 964368, Control_c, 0, 64, 0
1, 964436, Control_c, 0, 67, 112
1, 964451, Control_c, 0, 67, 63
1, 964465, Control_c, 0, 64, 64
1, 964465, Control_c, 0, 67, 17
1, 964480, Control_c, 0, 64, 73
1, 964480, Control_c, 0, 67, 0
1, 964481, Note_off_c, 0, 33, 66
1, 964495, Control_c, 0, 64, 82
1, 964510, Control_c, 0, 64, 88
1, 964525, Control_c, 0, 64, 93
1, 964539, Control_c, 0, 64, 95
1, 964550, Note_off_c, 0, 45, 55
1, 964598, Control_c, 0, 64, 94
1, 964613, Control_c, 0, 64, 83
1, 964628, Control_c, 0, 64, 59
1, 964643, Control_c, 0, 64, 0
1, 964667, Note_on_c, 0, 43, 100
1, 964670, Note_on_c, 0, 31, 94
1, 964717, Control_c, 0, 64, 18
1, 964731, Control_c, 0, 64, 83
1, 964746, Control_c, 0, 64, 127
1, 964792, Note_off_c, 0, 31, 63
1, 964845, Note_off_c, 0, 43, 61
1, 964911, Note_on_c, 0, 81, 90
1, 964913, Note_on_c, 0, 69, 92
1, 965027, Note_off_c, 0, 81, 55
1, 965065, Note_off_c, 0, 69, 63
1, 965249, Note_on_c, 0, 73, 67
1, 965251, Note_on_c, 0, 82, 88
1, 965253, Note_on_c, 0, 70, 90
1, 965256, Note_on_c, 0, 43, 84
1, 965257, Note_on_c, 0, 76, 82
1, 965259, Note_on_c, 0, 55, 84
1, 965288, Control_c, 0, 64, 66
1, 965303, Control_c, 0, 64, 0
1, 965324, Note_off_c, 0, 82, 64
1, 965351, Note_off_c, 0, 76, 64
1, 965362, Control_c, 0, 64, 80
1, 965369, Note_off_c, 0, 73, 63
1, 965377, Control_c, 0, 64, 127
1, 965383, Note_off_c, 0, 70, 65
1, 965475, Note_off_c, 0, 43, 62
1, 965501, Note_off_c, 0, 55, 53
1, 965601, Note_on_c, 0, 64, 76
1, 965602, Note_on_c, 0, 70, 84
1, 965603, Note_on_c, 0, 61, 86
1, 965688, Control_c, 0, 64, 112
1, 965703, Control_c, 0, 64, 62
1, 965718, Control_c, 0, 64, 0
1, 965725, Note_off_c, 0, 61, 60
1, 965743, Note_off_c, 0, 64, 62
1, 965777, Control_c, 0, 64, 71
1, 965786, Note_on_c, 0, 46, 93
1, 965787, Note_on_c, 0, 58, 100
1, 965790, Note_off_c, 0, 70, 60
1, 965792, Control_c, 0, 64, 127
1, 965835, Note_off_c, 0, 58, 66
1, 965877, Note_off_c, 0, 46, 64
1, 965947, Control_c, 0, 64, 72
1, 965962, Control_c, 0, 64, 30
1, 965977, Control_c, 0, 64, 0
1, 965992, Control_c, 0, 64, 55
1, 966003, Note_on_c, 0, 43, 98
1, 966005, Note_on_c, 0, 31, 92
1, 966006, Control_c, 0, 64, 69
1, 966021, Control_c, 0, 64, 127
1, 966112, Note_off_c, 0, 31, 63
1, 966141, Control_c, 0, 64, 110
1, 966145, Note_off_c, 0, 43, 57
1, 966155, Control_c, 0, 64, 51
1, 966170, Control_c, 0, 64, 0
1, 966227, Note_on_c, 0, 29, 85
1, 966228, Note_on_c, 0, 41, 108
1, 966244, Control_c, 0, 64, 55
1, 966259, Control_c, 0, 64, 91
1, 966274, Control_c, 0, 64, 127
1, 966295, Note_off_c, 0, 29, 62
1, 966312, Note_off_c, 0, 41, 66
1, 966429, Note_on_c, 0, 82, 87
1, 966430, Note_on_c, 0, 76, 90
1, 966433, Note_on_c, 0, 73, 99
1, 966433, Note_on_c, 0, 85, 87
1, 966511, Note_off_c, 0, 76, 63
1, 966550, Note_off_c, 0, 82, 64
1, 966558, Note_off_c, 0, 73, 57
1, 966563, Note_off_c, 0, 85, 54
1, 966693, Note_on_c, 0, 86, 92
1, 966697, Note_on_c, 0, 74, 90
1, 966697, Note_on_c, 0, 82, 87
1, 966699, Note_on_c, 0, 77, 90
1, 966699, Note_on_c, 0, 41, 87
1, 966699, Note_on_c, 0, 53, 90
1, 966711, Control_c, 0, 64, 62
1, 966714, Note_on_c, 0, 78, 57
1, 966726, Control_c, 0, 64, 0
1, 966737, Note_off_c, 0, 78, 37
1, 966741, Note_off_c, 0, 86, 66
1, 966771, Note_off_c, 0, 82, 64
1, 966776, Note_off_c, 0, 77, 62
1, 966785, Control_c, 0, 64, 74
1, 966800, Control_c, 0, 64, 127
1, 966806, Note_off_c, 0, 74, 66
1, 966856, Note_off_c, 0, 41, 61
1, 966866, Note_off_c, 0, 53, 61
1, 966982, Note_on_c, 0, 70, 81
1, 966986, Note_on_c, 0, 74, 79
1, 966988, Note_on_c, 0, 65, 85
1, 967101, Note_off_c, 0, 65, 58
1, 967116, Note_off_c, 0, 74, 58
1, 967140, Note_off_c, 0, 70, 54
1, 967141, Control_c, 0, 64, 77
1, 967156, Control_c, 0, 64, 0
1, 967169, Note_on_c, 0, 58, 92
1, 967170, Note_on_c, 0, 46, 88
1, 967215, Control_c, 0, 64, 53
1, 967230, Control_c, 0, 64, 127
1, 967240, Note_off_c, 0, 58, 63
1, 967277, Note_off_c, 0, 46, 63
1, 967334, Control_c, 0, 64, 90
1, 967349, Control_c, 0, 64, 44
1, 967364, Control_c, 0, 64, 0
1, 967369, Note_on_c, 0, 52, 93
1, 967372, Note_on_c, 0, 40, 90
1, 967415, Control_c, 0, 64, 65
1, 967430, Control_c, 0, 64, 127
1, 967492, Note_off_c, 0, 40, 63
1, 967501, Note_off_c, 0, 52, 63
1, 967533, Control_c, 0, 64, 84
1, 967548, Control_c, 0, 64, 0
1, 967593, Note_on_c, 0, 53, 99
1, 967596, Note_on_c, 0, 41, 91
1, 967623, Control_c, 0, 64, 52
1, 967638, Control_c, 0, 64, 92
1, 967653, Control_c, 0, 64, 127
1, 967689, Note_off_c, 0, 41, 63
1, 967714, Note_off_c, 0, 53, 65
1, 967812, Note_on_c, 0, 76, 101
1, 967812, Note_on_c, 0, 88, 102
1, 967918, Note_off_c, 0, 88, 61
1, 967936, Note_off_c, 0, 76, 52
1, 968112, Control_c, 0, 64, 96
1, 968115, Note_on_c, 0, 53, 87
1, 968115, Note_on_c, 0, 87, 90
1, 968116, Note_on_c, 0, 77, 104
1, 968116, Note_on_c, 0, 81, 88
1, 968118, Note_on_c, 0, 89, 91
1, 968119, Note_on_c, 0, 65, 96
1, 968127, Control_c, 0, 64, 52
1, 968128, Note_on_c, 0, 84, 78
1, 968149, Control_c, 0, 64, 0
1, 968186, Note_off_c, 0, 89, 66
1, 968194, Control_c, 0, 64, 66
1, 968208, Control_c, 0, 64, 127
1, 968213, Note_off_c, 0, 81, 64
1, 968219, Note_off_c, 0, 87, 64
1, 968224, Note_off_c, 0, 84, 64
1, 968258, Note_off_c, 0, 77, 65
1, 968282, Note_off_c, 0, 53, 62
1, 968303, Note_off_c, 0, 65, 61
1, 968436, Note_on_c, 0, 77, 94
1, 968440, Note_on_c, 0, 75, 86
1, 968441, Note_on_c, 0, 69, 89
1, 968441, Note_on_c, 0, 72, 84
1, 968540, Note_off_c, 0, 69, 62
1, 968559, Note_off_c, 0, 72, 59
1, 968604, Note_off_c, 0, 77, 57
1, 968610, Control_c, 0, 64, 64
1, 968615, Note_off_c, 0, 75, 59
1, 968624, Control_c, 0, 64, 0
1, 968633, Note_on_c, 0, 57, 86
1, 968633, Note_on_c, 0, 69, 98
1, 968684, Control_c, 0, 64, 70
1, 968693, Note_off_c, 0, 69, 67
1, 968698, Control_c, 0, 64, 127
1, 968729, Note_off_c, 0, 57, 65
1, 968831, Control_c, 0, 64, 54
1, 968846, Control_c, 0, 64, 0
1, 968866, Note_on_c, 0, 53, 91
1, 968869, Note_on_c, 0, 41, 95
1, 968890, Control_c, 0, 64, 62
1, 968913, Control_c, 0, 64, 104
1, 968928, Control_c, 0, 64, 127
1, 968953, Note_off_c, 0, 53, 63
1, 969001, Note_off_c, 0, 41, 63
1, 969120, Control_c, 0, 64, 72
1, 969135, Control_c, 0, 64, 0
1, 969158, Note_on_c, 0, 46, 104
1, 969162, Note_on_c, 0, 34, 94
1, 969209, Control_c, 0, 64, 60
1, 969225, Note_on_c, 0, 33, 6
1, 969225, Control_c, 0, 64, 127
1, 969268, Note_off_c, 0, 34, 65
1, 969272, Note_off_c, 0, 46, 62
1, 969275, Note_off_c, 0, 33, 52
1, 969373, Note_on_c, 0, 82, 92
1, 969375, Note_on_c, 0, 74, 88
1, 969377, Note_on_c, 0, 77, 88
1, 969501, Note_off_c, 0, 82, 63
1, 969530, Note_off_c, 0, 74, 56
1, 969543, Note_off_c, 0, 77, 53
1, 969669, Note_on_c, 0, 82, 87
1, 969671, Note_on_c, 0, 74, 91
1, 969671, Note_on_c, 0, 86, 90
1, 969672, Note_on_c, 0, 77, 85
1, 969677, Note_on_c, 0, 46, 88
1, 969680, Note_on_c, 0, 58, 92
1, 969692, Control_c, 0, 64, 85
1, 969706, Control_c, 0, 64, 0
1, 969736, Note_off_c, 0, 86, 64
1, 969766, Control_c, 0, 64, 74
1, 969768, Note_off_c, 0, 82, 63
1, 969769, Note_off_c, 0, 77, 63
1, 969780, Control_c, 0, 64, 127
1, 969790, Note_off_c, 0, 74, 68
1, 969841, Note_off_c, 0, 46, 62
1, 969841, Note_off_c, 0, 58, 62
1, 969999, Note_on_c, 0, 70, 83
1, 970005, Note_on_c, 0, 65, 79
1, 970005, Note_on_c, 0, 62, 86
1, 970076, Note_off_c, 0, 62, 57
1, 970080, Note_off_c, 0, 65, 62
1, 970130, Note_off_c, 0, 70, 63
1, 970181, Control_c, 0, 64, 90
1, 970195, Control_c, 0, 64, 42
1, 970210, Control_c, 0, 64, 0
1, 970212, Note_on_c, 0, 50, 88
1, 970214, Note_on_c, 0, 62, 98
1, 970270, Control_c, 0, 64, 65
1, 970285, Control_c, 0, 64, 108
1, 970300, Control_c, 0, 64, 127
1, 970327, Note_off_c, 0, 62, 56
1, 970350, Note_off_c, 0, 50, 61
1, 970441, Control_c, 0, 64, 60
1, 970456, Control_c, 0, 64, 0
1, 970480, Note_on_c, 0, 89, 106
1, 970490, Note_on_c, 0, 58, 95
1, 970490, Note_on_c, 0, 46, 89
1, 970515, Control_c, 0, 64, 61
1, 970529, Control_c, 0, 64, 99
1, 970544, Control_c, 0, 64, 127
1, 970568, Note_off_c, 0, 58, 59
1, 970581, Note_off_c, 0, 46, 59
1, 970653, Note_off_c, 0, 89, 61
1, 970782, Control_c, 0, 64, 60
1, 970796, Control_c, 0, 64, 0
1, 970812, Note_on_c, 0, 94, 103
1, 970825, Note_on_c, 0, 43, 84
1, 970826, Note_on_c, 0, 55, 91
1, 970842, Control_c, 0, 64, 37
1, 970857, Control_c, 0, 64, 80
1, 970872, Control_c, 0, 64, 127
1, 970876, Note_off_c, 0, 43, 64
1, 970899, Note_off_c, 0, 55, 62
1, 970998, Note_on_c, 0, 88, 91
1, 971009, Note_off_c, 0, 94, 60
1, 971069, Poly_aftertouch_c, 0, 89, 127
1, 971110, Poly_aftertouch_c, 0, 89, 0
1, 971120, Note_off_c, 0, 88, 62
1, 971122, Note_on_c, 0, 91, 89
1, 971122, Note_on_c, 0, 64, 94
1, 971128, Note_on_c, 0, 55, 80
1, 971128, Note_on_c, 0, 58, 79
1, 971133, Note_on_c, 0, 61, 78
1, 971235, Note_off_c, 0, 55, 63
1, 971236, Note_off_c, 0, 91, 59
1, 971245, Note_on_c, 0, 85, 83
1, 971260, Note_off_c, 0, 58, 63
1, 971260, Note_off_c, 0, 61, 60
1, 971262, Note_off_c, 0, 64, 59
1, 971282, Note_off_c, 0, 85, 65
1, 971344, Note_on_c, 0, 88, 88
1, 971435, Note_on_c, 0, 82, 83
1, 971455, Note_off_c, 0, 88, 63
1, 971528, Note_on_c, 0, 67, 90
1, 971532, Note_on_c, 0, 61, 80
1, 971535, Note_on_c, 0, 64, 77
1, 971537, Note_on_c, 0, 58, 76
1, 971540, Note_on_c, 0, 85, 87
1, 971561, Note_off_c, 0, 82, 60
1, 971601, Note_off_c, 0, 58, 61
1, 971608, Note_off_c, 0, 64, 56
1, 971617, Note_off_c, 0, 61, 60
1, 971625, Note_off_c, 0, 85, 65
1, 971649, Note_on_c, 0, 79, 66
1, 971650, Note_off_c, 0, 67, 49
1, 971697, Note_off_c, 0, 79, 59
1, 971742, Note_on_c, 0, 70, 101
1, 971745, Note_on_c, 0, 82, 78
1, 971747, Note_on_c, 0, 67, 91
1, 971750, Note_on_c, 0, 61, 81
1, 971757, Note_on_c, 0, 64, 69
1, 971787, Note_off_c, 0, 70, 69
1, 971808, Note_off_c, 0, 67, 58
1, 971823, Note_off_c, 0, 64, 59
1, 971839, Note_off_c, 0, 82, 62
1, 971841, Note_on_c, 0, 76, 73
1, 971844, Note_off_c, 0, 61, 61
1, 971942, Note_on_c, 0, 79, 78
1, 971954, Note_off_c, 0, 76, 61
1, 972016, Note_off_c, 0, 79, 58
1, 972035, Note_on_c, 0, 73, 85
1, 972057, Note_off_c, 0, 73, 65
1, 972145, Control_c, 0, 64, 65
1, 972160, Control_c, 0, 64, 0
1, 972182, Note_on_c, 0, 41, 82
1, 972185, Note_on_c, 0, 53, 92
1, 972194, Note_on_c, 0, 93, 96
1, 972219, Note_off_c, 0, 41, 66
1, 972219, Control_c, 0, 64, 62
1, 972234, Control_c, 0, 64, 127
1, 972237, Note_off_c, 0, 53, 67
1, 972312, Note_on_c, 0, 86, 85
1, 972322, Poly_aftertouch_c, 0, 89, 0
1, 972333, Note_off_c, 0, 93, 56
1, 972395, Note_off_c, 0, 86, 61
1, 972413, Note_on_c, 0, 89, 89
1, 972422, Note_on_c, 0, 62, 98
1, 972433, Note_on_c, 0, 53, 81
1, 972440, Note_on_c, 0, 57, 61
1, 972488, Note_off_c, 0, 89, 64
1, 972498, Note_off_c, 0, 57, 0
1, 972512, Note_on_c, 0, 81, 80
1, 972535, Poly_aftertouch_c, 0, 57, 127
1, 972564, Poly_aftertouch_c, 0, 57, 0
1, 972567, Note_off_c, 0, 81, 59
1, 972571, Note_off_c, 0, 53, 64
1, 972604, Note_off_c, 0, 62, 63
1, 972607, Note_on_c, 0, 86, 86
1, 972702, Note_on_c, 0, 77, 85
1, 972704, Note_off_c, 0, 86, 60
1, 972793, Note_off_c, 0, 77, 58
1, 972794, Note_on_c, 0, 57, 79
1, 972794, Note_on_c, 0, 65, 84
1, 972794, Note_on_c, 0, 81, 86
1, 972796, Note_on_c, 0, 62, 81
1, 972856, Note_off_c, 0, 81, 62
1, 972866, Note_off_c, 0, 57, 60
1, 972882, Note_off_c, 0, 62, 61
1, 972898, Note_on_c, 0, 74, 65
1, 972916, Note_off_c, 0, 65, 52
1, 972923, Note_off_c, 0, 74, 66
1, 972986, Note_on_c, 0, 69, 93
1, 972990, Note_on_c, 0, 62, 81
1, 972991, Note_on_c, 0, 65, 71
1, 972994, Note_on_c, 0, 77, 64
1, 973005, Note_on_c, 0, 79, 56
1, 973005, Note_off_c, 0, 69, 71
1, 973014, Note_off_c, 0, 65, 69
1, 973026, Note_off_c, 0, 79, 60
1, 973029, Note_off_c, 0, 62, 64
1, 973076, Note_off_c, 0, 77, 60
1, 973081, Note_on_c, 0, 69, 81
1, 973169, Note_off_c, 0, 69, 41
1, 973176, Note_on_c, 0, 74, 79
1, 973230, Note_off_c, 0, 74, 62
1, 973264, Note_on_c, 0, 65, 73
1, 973309, Control_c, 0, 64, 95
1, 973318, Note_off_c, 0, 65, 59
1, 973324, Control_c, 0, 64, 0
1, 973361, Note_on_c, 0, 62, 83
1, 973361, Note_on_c, 0, 74, 79
1, 973405, Control_c, 0, 64, 65
1, 973419, Control_c, 0, 64, 103
1, 973434, Control_c, 0, 64, 127
1, 973473, Note_on_c, 0, 67, 72
1, 973487, Note_on_c, 0, 55, 58
1, 973501, Note_off_c, 0, 74, 60
1, 973501, Note_off_c, 0, 62, 58
1, 973508, Control_c, 0, 64, 83
1, 973523, Control_c, 0, 64, 76
1, 973538, Control_c, 0, 64, 85
1, 973552, Control_c, 0, 64, 127
1, 973566, Note_on_c, 0, 70, 86
1, 973569, Note_on_c, 0, 58, 86
1, 973570, Note_off_c, 0, 55, 39
1, 973590, Note_off_c, 0, 67, 58
1, 973654, Note_off_c, 0, 70, 63
1, 973663, Note_off_c, 0, 58, 62
1, 973669, Note_on_c, 0, 52, 69
1, 973674, Note_on_c, 0, 64, 70
1, 973697, Note_off_c, 0, 52, 69
1, 973701, Control_c, 0, 64, 99
1, 973704, Note_off_c, 0, 64, 64
1, 973716, Control_c, 0, 64, 91
1, 973731, Control_c, 0, 64, 100
1, 973745, Control_c, 0, 64, 127
1, 973753, Note_on_c, 0, 67, 88
1, 973755, Note_on_c, 0, 55, 86
1, 973850, Note_on_c, 0, 50, 79
1, 973851, Note_on_c, 0, 62, 81
1, 973863, Control_c, 0, 64, 70
1, 973864, Note_off_c, 0, 67, 57
1, 973866, Note_off_c, 0, 55, 64
1, 973878, Control_c, 0, 64, 0
1, 973923, Control_c, 0, 64, 68
1, 973927, Note_off_c, 0, 62, 52
1, 973938, Control_c, 0, 64, 127
1, 973940, Note_on_c, 0, 52, 85
1, 973942, Note_on_c, 0, 64, 92
1, 973946, Note_off_c, 0, 50, 61
1, 974031, Note_off_c, 0, 64, 67
1, 974040, Note_on_c, 0, 46, 82
1, 974040, Note_off_c, 0, 52, 64
1, 974052, Note_on_c, 0, 58, 75
1, 974074, Note_off_c, 0, 58, 70
1, 974076, Note_off_c, 0, 46, 62
1, 974101, Control_c, 0, 64, 70
1, 974116, Control_c, 0, 64, 0
1, 974149, Note_on_c, 0, 50, 85
1, 974149, Note_on_c, 0, 62, 88
1, 974169, Control_c, 0, 64, 60
1, 974184, Control_c, 0, 64, 127
1, 974235, Note_on_c, 0, 55, 81
1, 974242, Note_off_c, 0, 62, 62
1, 974243, Note_on_c, 0, 43, 72
1, 974251, Note_off_c, 0, 50, 61
1, 974283, Note_on_c, 0, 42, 33
1, 974288, Control_c, 0, 64, 67
1, 974302, Control_c, 0, 64, 0
1, 974315, Note_off_c, 0, 55, 59
1, 974318, Note_off_c, 0, 42, 44
1, 974326, Note_on_c, 0, 58, 82
1, 974330, Note_on_c, 0, 46, 91
1, 974331, Note_off_c, 0, 43, 61
1, 974332, Control_c, 0, 64, 48
1, 974347, Control_c, 0, 64, 72
1, 974362, Control_c, 0, 64, 127
1, 974410, Note_off_c, 0, 46, 62
1, 974413, Note_off_c, 0, 58, 58
1, 974418, Note_on_c, 0, 52, 81
1, 974422, Note_on_c, 0, 40, 75
1, 974455, Note_off_c, 0, 40, 64
1, 974464, Note_off_c, 0, 52, 65
1, 974465, Control_c, 0, 64, 73
1, 974480, Control_c, 0, 64, 0
1, 974519, Note_on_c, 0, 41, 86
1, 974524, Note_on_c, 0, 53, 75
1, 974539, Control_c, 0, 64, 53
1, 974554, Control_c, 0, 64, 85
1, 974568, Control_c, 0, 64, 127
1, 974571, Note_on_c, 0, 55, 78
1, 974574, Note_off_c, 0, 53, 67
1, 974583, Note_off_c, 0, 41, 63
1, 974593, Note_on_c, 0, 43, 77
1, 974623, Poly_aftertouch_c, 0, 41, 0
1, 974626, Note_on_c, 0, 53, 67
1, 974626, Note_off_c, 0, 55, 62
1, 974628, Note_on_c, 0, 41, 71
1, 974635, Note_off_c, 0, 43, 62
1, 974655, Note_off_c, 0, 53, 65
1, 974682, Note_on_c, 0, 55, 60
1, 974693, Note_off_c, 0, 41, 65
1, 974695, Note_on_c, 0, 43, 75
1, 974716, Note_off_c, 0, 55, 63
1, 974724, Note_on_c, 0, 53, 76
1, 974747, Note_on_c, 0, 41, 73
1, 974760, Note_off_c, 0, 43, 60
1, 974780, Note_off_c, 0, 53, 66
1, 974795, Note_on_c, 0, 55, 76
1, 974807, Control_c, 0, 64, 90
1, 974816, Note_on_c, 0, 43, 83
1, 974822, Control_c, 0, 64, 38
1, 974829, Note_off_c, 0, 41, 65
1, 974837, Control_c, 0, 64, 0
1, 974870, Note_on_c, 0, 57, 93
1, 974874, Note_on_c, 0, 45, 99
1, 974898, Note_off_c, 0, 43, 61
1, 974901, Note_off_c, 0, 55, 65
1, 974903, Control_c, 0, 64, 68
1, 974913, Note_off_c, 0, 45, 69
1, 974917, Control_c, 0, 64, 127
1, 974919, Note_on_c, 0, 58, 41
1, 974921, Note_off_c, 0, 57, 68
1, 974948, Note_off_c, 0, 58, 59
1, 975096, Control_c, 0, 64, 87
1, 975111, Control_c, 0, 64, 29
1, 975125, Control_c, 0, 64, 0
1, 975283, Note_on_c, 0, 45, 88
1, 975284, Note_on_c, 0, 57, 98
1, 975285, Note_on_c, 0, 76, 88
1, 975285, Note_on_c, 0, 85, 94
1, 975286, Note_on_c, 0, 81, 84
1, 975287, Note_on_c, 0, 73, 91
1, 975314, Note_off_c, 0, 57, 67
1, 975318, Note_off_c, 0, 45, 66
1, 975332, Control_c, 0, 64, 66
1, 975347, Control_c, 0, 64, 127
1, 975429, Note_off_c, 0, 76, 60
1, 975436, Note_off_c, 0, 81, 57
1, 975478, Note_off_c, 0, 73, 60
1, 975496, Note_off_c, 0, 85, 59
1, 975696, Control_c, 0, 64, 66
1, 975711, Control_c, 0, 64, 0
1, 975760, Note_on_c, 0, 81, 82
1, 975761, Note_on_c, 0, 74, 93
1, 975761, Note_on_c, 0, 86, 96
1, 975762, Note_on_c, 0, 77, 87
1, 975764, Note_on_c, 0, 38, 86
1, 975765, Note_on_c, 0, 50, 93
1, 975800, Control_c, 0, 64, 56
1, 975808, Note_off_c, 0, 38, 66
1, 975814, Note_off_c, 0, 50, 64
1, 975814, Control_c, 0, 64, 116
1, 975829, Control_c, 0, 64, 127
1, 975939, Note_off_c, 0, 74, 57
1, 975960, Note_off_c, 0, 77, 56
1, 976104, Note_off_c, 0, 86, 33
1, 976113, Note_on_c, 0, 74, 96
1, 976222, Note_off_c, 0, 81, 27
1, 976318, Control_c, 0, 64, 87
1, 976333, Control_c, 0, 64, 52
1, 976336, Note_on_c, 0, 62, 92
1, 976338, Note_on_c, 0, 50, 81
1, 976348, Control_c, 0, 64, 0
1, 976399, Control_c, 0, 64, 50
1, 976416, Control_c, 0, 64, 70
1, 976431, Control_c, 0, 64, 110
1, 976445, Control_c, 0, 64, 127
1, 976459, Note_off_c, 0, 74, 59
1, 976480, Note_off_c, 0, 50, 63
1, 976506, Note_off_c, 0, 62, 66
1, 976845, Control_c, 0, 64, 67
1, 976860, Control_c, 0, 64, 0
1, 977052, Control_c, 0, 64, 44
1, 977067, Control_c, 0, 64, 55
1, 977081, Control_c, 0, 64, 61
1, 977096, Control_c, 0, 64, 64
1, 977111, Control_c, 0, 64, 69
1, 977126, Control_c, 0, 64, 76
1, 977150, Control_c, 0, 64, 88
1, 977164, Control_c, 0, 64, 115
1, 977179, Control_c, 0, 64, 127
1, 977259, Note_on_c, 0, 93, 78
1, 977269, Control_c, 0, 67, 8
1, 977284, Control_c, 0, 67, 12
1, 977290, Note_on_c, 0, 81, 47
1, 977299, Control_c, 0, 67, 20
1, 977313, Control_c, 0, 67, 28
1, 977328, Control_c, 0, 67, 34
1, 977343, Control_c, 0, 67, 39
1, 977347, Note_off_c, 0, 81, 0
1, 977347, Note_on_c, 0, 81, 11
1, 977358, Control_c, 0, 67, 44
1, 977373, Control_c, 0, 67, 47
1, 977387, Control_c, 0, 67, 49
1, 977402, Control_c, 0, 67, 53
1, 977417, Control_c, 0, 67, 61
1, 977431, Control_c, 0, 67, 67
1, 977446, Control_c, 0, 67, 71
1, 977461, Control_c, 0, 67, 75
1, 977476, Control_c, 0, 67, 79
1, 977491, Control_c, 0, 67, 83
1, 977505, Control_c, 0, 67, 85
1, 977520, Control_c, 0, 67, 88
1, 977535, Control_c, 0, 67, 90
1, 977543, Note_on_c, 0, 55, 42
1, 977550, Control_c, 0, 67, 92
1, 977561, Note_off_c, 0, 81, 41
1, 977565, Control_c, 0, 67, 95
1, 977579, Control_c, 0, 67, 98
1, 977594, Control_c, 0, 67, 101
1, 977609, Control_c, 0, 67, 103
1, 977624, Control_c, 0, 67, 105
1, 977639, Control_c, 0, 67, 107
1, 977654, Control_c, 0, 67, 108
1, 977668, Control_c, 0, 67, 109
1, 977683, Control_c, 0, 67, 109
1, 977698, Control_c, 0, 64, 106
1, 977698, Control_c, 0, 67, 111
1, 977710, Note_on_c, 0, 94, 77
1, 977713, Control_c, 0, 64, 90
1, 977728, Control_c, 0, 64, 73
1, 977728, Control_c, 0, 67, 111
1, 977736, Note_on_c, 0, 82, 50
1, 977743, Control_c, 0, 64, 59
1, 977758, Control_c, 0, 64, 0
1, 977773, Control_c, 0, 67, 112
1, 977780, Note_off_c, 0, 93, 61
1, 977831, Control_c, 0, 64, 24
1, 977846, Control_c, 0, 64, 64
1, 977861, Control_c, 0, 64, 76
1, 977876, Control_c, 0, 64, 106
1, 977898, Control_c, 0, 64, 127
1, 978001, Control_c, 0, 67, 113
1, 978017, Control_c, 0, 67, 114
1, 978027, Note_on_c, 0, 58, 43
1, 978032, Note_off_c, 0, 94, 66
1, 978032, Control_c, 0, 67, 117
1, 978044, Note_off_c, 0, 55, 51
1, 978047, Control_c, 0, 67, 118
1, 978060, Note_off_c, 0, 82, 61
1, 978061, Control_c, 0, 67, 119
1, 978076, Control_c, 0, 67, 121
1, 978091, Control_c, 0, 67, 124
1, 978106, Control_c, 0, 67, 125
1, 978121, Control_c, 0, 67, 126
1, 978135, Control_c, 0, 67, 127
1, 978148, Note_off_c, 0, 58, 54
1, 978150, Control_c, 0, 67, 127
1, 978184, Note_on_c, 0, 63, 35
1, 978246, Note_on_c, 0, 87, 72
1, 978288, Note_on_c, 0, 75, 52
1, 978395, Note_on_c, 0, 58, 42
1, 978416, Note_off_c, 0, 63, 40
1, 978476, Note_off_c, 0, 58, 58
1, 978530, Note_off_c, 0, 87, 63
1, 978531, Note_on_c, 0, 55, 30
1, 978563, Note_off_c, 0, 75, 61
1, 978616, Note_on_c, 0, 58, 45
1, 978671, Note_off_c, 0, 55, 35
1, 978700, Note_off_c, 0, 58, 57
1, 978748, Note_on_c, 0, 63, 37
1, 978751, Note_on_c, 0, 82, 69
1, 978780, Note_on_c, 0, 70, 47
1, 978823, Note_off_c, 0, 70, 62
1, 978824, Note_off_c, 0, 82, 63
1, 978843, Note_on_c, 0, 58, 41
1, 978849, Note_off_c, 0, 63, 38
1, 978915, Note_off_c, 0, 58, 52
1, 978971, Note_on_c, 0, 55, 35
1, 978976, Note_on_c, 0, 75, 65
1, 979037, Poly_aftertouch_c, 0, 63, 127
1, 979043, Note_off_c, 0, 75, 62
1, 979065, Poly_aftertouch_c, 0, 63, 0
1, 979084, Note_on_c, 0, 58, 50
1, 979105, Note_off_c, 0, 55, 34
1, 979144, Note_off_c, 0, 58, 56
1, 979173, Note_on_c, 0, 94, 80
1, 979180, Note_on_c, 0, 63, 46
1, 979189, Note_on_c, 0, 82, 57
1, 979274, Note_on_c, 0, 58, 49
1, 979335, Note_off_c, 0, 63, 40
1, 979395, Note_off_c, 0, 82, 59
1, 979395, Control_c, 0, 64, 108
1, 979409, Control_c, 0, 64, 87
1, 979424, Control_c, 0, 64, 74
1, 979430, Note_off_c, 0, 58, 50
1, 979439, Control_c, 0, 64, 65
1, 979454, Control_c, 0, 64, 28
1, 979469, Control_c, 0, 64, 0
1, 979471, Note_on_c, 0, 93, 76
1, 979481, Note_on_c, 0, 81, 62
1, 979487, Note_off_c, 0, 94, 58
1, 979499, Note_on_c, 0, 53, 31
1, 979558, Control_c, 0, 64, 40
1, 979573, Control_c, 0, 64, 66
1, 979588, Control_c, 0, 64, 83
1, 979588, Note_on_c, 0, 92, 34
1, 979603, Control_c, 0, 64, 127
1, 979641, Note_off_c, 0, 93, 62
1, 979644, Note_off_c, 0, 92, 59
1, 979668, Note_off_c, 0, 81, 59
1, 979678, Note_on_c, 0, 57, 50
1, 979696, Note_off_c, 0, 53, 41
1, 979772, Note_off_c, 0, 57, 58
1, 979809, Note_on_c, 0, 86, 67
1, 979821, Note_on_c, 0, 62, 45
1, 979835, Note_on_c, 0, 74, 44
1, 979902, Note_on_c, 0, 57, 41
1, 979963, Note_off_c, 0, 62, 30
1, 979980, Note_off_c, 0, 57, 60
1, 980006, Note_off_c, 0, 86, 60
1, 980020, Note_on_c, 0, 53, 43
1, 980048, Note_off_c, 0, 74, 59
1, 980108, Note_on_c, 0, 57, 49
1, 980118, Note_off_c, 0, 53, 59
1, 980203, Note_off_c, 0, 57, 59
1, 980227, Note_on_c, 0, 81, 67
1, 980244, Note_on_c, 0, 69, 51
1, 980254, Note_on_c, 0, 62, 43
1, 980278, Note_off_c, 0, 81, 58
1, 980286, Note_off_c, 0, 69, 59
1, 980333, Note_on_c, 0, 57, 46
1, 980350, Note_off_c, 0, 62, 36
1, 980406, Note_off_c, 0, 57, 59
1, 980441, Note_on_c, 0, 74, 65
1, 980455, Note_on_c, 0, 53, 41
1, 980491, Note_on_c, 0, 62, 33
1, 980525, Note_off_c, 0, 74, 62
1, 980529, Note_off_c, 0, 62, 50
1, 980548, Note_on_c, 0, 57, 41
1, 980578, Note_off_c, 0, 53, 51
1, 980646, Note_on_c, 0, 74, 63
1, 980661, Note_on_c, 0, 62, 47
1, 980670, Note_off_c, 0, 57, 35
1, 980791, Note_on_c, 0, 57, 40
1, 980809, Note_off_c, 0, 62, 42
1, 980811, Control_c, 0, 64, 108
1, 980826, Control_c, 0, 64, 95
1, 980841, Control_c, 0, 64, 84
1, 980855, Control_c, 0, 64, 75
1, 980870, Control_c, 0, 64, 68
1, 980894, Control_c, 0, 64, 59
1, 980903, Note_off_c, 0, 57, 29
1, 980909, Control_c, 0, 64, 24
1, 980921, Note_on_c, 0, 52, 42
1, 980924, Control_c, 0, 64, 0
1, 980949, Note_off_c, 0, 74, 61
1, 980950, Note_on_c, 0, 73, 64
1, 980982, Note_on_c, 0, 61, 44
1, 981026, Note_off_c, 0, 61, 62
1, 981027, Control_c, 0, 64, 59
1, 981042, Control_c, 0, 64, 71
1, 981056, Control_c, 0, 64, 87
1, 981071, Control_c, 0, 64, 127
1, 981112, Note_off_c, 0, 73, 61
1, 981148, Note_on_c, 0, 55, 37
1, 981223, Note_off_c, 0, 55, 56
1, 981245, Note_off_c, 0, 52, 29
1, 981259, Note_on_c, 0, 81, 63
1, 981278, Note_on_c, 0, 61, 41
1, 981281, Note_on_c, 0, 69, 45
1, 981371, Note_on_c, 0, 55, 43
1, 981403, Note_off_c, 0, 61, 35
1, 981457, Note_off_c, 0, 55, 61
1, 981477, Note_on_c, 0, 52, 52
1, 981492, Note_off_c, 0, 69, 38
1, 981516, Note_off_c, 0, 81, 58
1, 981597, Note_on_c, 0, 55, 43
1, 981645, Note_off_c, 0, 52, 43
1, 981669, Note_off_c, 0, 55, 59
1, 981681, Note_on_c, 0, 85, 74
1, 981696, Note_on_c, 0, 73, 60
1, 981711, Note_on_c, 0, 61, 50
1, 981720, Note_off_c, 0, 73, 67
1, 981794, Note_off_c, 0, 85, 63
1, 981808, Note_on_c, 0, 55, 49
1, 981882, Note_off_c, 0, 61, 38
1, 981930, Note_on_c, 0, 52, 55
1, 981933, Note_off_c, 0, 55, 58
1, 981939, Note_on_c, 0, 93, 83
1, 981960, Note_on_c, 0, 81, 65
1, 982046, Note_off_c, 0, 81, 56
1, 982061, Note_off_c, 0, 93, 60
1, 982069, Note_on_c, 0, 55, 53
1, 982107, Note_off_c, 0, 52, 36
1, 982135, Note_off_c, 0, 55, 61
1, 982161, Note_on_c, 0, 93, 79
1, 982167, Note_on_c, 0, 81, 67
1, 982174, Note_on_c, 0, 61, 50
1, 982268, Note_off_c, 0, 61, 47
1, 982268, Note_off_c, 0, 81, 53
1, 982270, Note_off_c, 0, 93, 58
1, 982276, Note_on_c, 0, 55, 47
1, 982295, Control_c, 0, 64, 106
1, 982309, Control_c, 0, 64, 98
1, 982324, Control_c, 0, 64, 91
1, 982339, Control_c, 0, 64, 86
1, 982354, Control_c, 0, 64, 81
1, 982369, Control_c, 0, 64, 75
1, 982390, Control_c, 0, 64, 68
1, 982397, Note_off_c, 0, 55, 37
1, 982398, Note_on_c, 0, 93, 75
1, 982405, Control_c, 0, 64, 60
1, 982416, Note_on_c, 0, 81, 52
1, 982420, Note_on_c, 0, 53, 39
1, 982420, Control_c, 0, 64, 0
1, 982524, Control_c, 0, 64, 57
1, 982539, Control_c, 0, 64, 69
1, 982543, Note_on_c, 0, 57, 48
1, 982554, Control_c, 0, 64, 76
1, 982569, Control_c, 0, 64, 82
1, 982583, Control_c, 0, 64, 85
1, 982587, Note_off_c, 0, 53, 42
1, 982598, Control_c, 0, 64, 90
1, 982613, Control_c, 0, 64, 98
1, 982617, Note_off_c, 0, 57, 60
1, 982627, Control_c, 0, 64, 107
1, 982642, Control_c, 0, 64, 127
1, 982644, Note_on_c, 0, 62, 46
1, 982747, Note_on_c, 0, 57, 45
1, 982807, Note_off_c, 0, 57, 54
1, 982811, Note_off_c, 0, 62, 40
1, 982853, Note_on_c, 0, 53, 41
1, 982874, Note_off_c, 0, 81, 59
1, 982946, Note_on_c, 0, 57, 50
1, 983018, Note_off_c, 0, 57, 60
1, 983031, Note_off_c, 0, 93, 60
1, 983043, Note_on_c, 0, 91, 79
1, 983066, Note_on_c, 0, 79, 44
1, 983067, Note_on_c, 0, 62, 46
1, 983092, Note_off_c, 0, 79, 55
1, 983141, Note_off_c, 0, 91, 55
1, 983153, Note_on_c, 0, 93, 78
1, 983153, Note_off_c, 0, 53, 41
1, 983156, Note_on_c, 0, 57, 50
1, 983177, Note_on_c, 0, 81, 57
1, 983197, Note_off_c, 0, 81, 62
1, 983221, Note_off_c, 0, 62, 40
1, 983265, Note_off_c, 0, 57, 53
1, 983287, Control_c, 0, 64, 99
1, 983294, Note_on_c, 0, 55, 44
1, 983302, Control_c, 0, 64, 79
1, 983317, Control_c, 0, 64, 63
1, 983332, Control_c, 0, 64, 0
1, 983350, Note_on_c, 0, 94, 80
1, 983356, Note_off_c, 0, 93, 59
1, 983361, Note_on_c, 0, 82, 66
1, 983391, Control_c, 0, 64, 19
1, 983406, Control_c, 0, 64, 60
1, 983421, Control_c, 0, 64, 71
1, 983436, Control_c, 0, 64, 87
1, 983444, Note_off_c, 0, 55, 62
1, 983450, Control_c, 0, 64, 118
1, 983465, Control_c, 0, 64, 127
1, 983487, Note_on_c, 0, 58, 48
1, 983504, Note_off_c, 0, 82, 60
1, 983532, Note_off_c, 0, 94, 65
1, 983542, Note_off_c, 0, 58, 55
1, 983582, Note_on_c, 0, 93, 77
1, 983596, Note_on_c, 0, 81, 65
1, 983609, Note_on_c, 0, 63, 50
1, 983624, Note_off_c, 0, 81, 63
1, 983692, Note_on_c, 0, 91, 78
1, 983693, Note_on_c, 0, 58, 54
1, 983708, Note_off_c, 0, 93, 59
1, 983724, Note_off_c, 0, 63, 37
1, 983737, Note_on_c, 0, 79, 12
1, 983782, Note_off_c, 0, 79, 38
1, 983799, Note_off_c, 0, 58, 52
1, 983839, Note_on_c, 0, 57, 45
1, 983839, Note_on_c, 0, 89, 73
1, 983848, Note_off_c, 0, 91, 58
1, 983851, Control_c, 0, 64, 92
1, 983873, Control_c, 0, 64, 74
1, 983875, Note_on_c, 0, 77, 53
1, 983889, Control_c, 0, 64, 57
1, 983904, Control_c, 0, 64, 0
1, 983978, Control_c, 0, 64, 51
1, 983982, Note_on_c, 0, 62, 47
1, 983993, Control_c, 0, 64, 66
1, 984007, Control_c, 0, 64, 74
1, 984022, Control_c, 0, 64, 83
1, 984037, Control_c, 0, 64, 88
1, 984042, Note_off_c, 0, 62, 60
1, 984052, Control_c, 0, 64, 91
1, 984067, Control_c, 0, 64, 94
1, 984074, Note_on_c, 0, 65, 42
1, 984081, Control_c, 0, 64, 95
1, 984096, Control_c, 0, 64, 97
1, 984105, Note_off_c, 0, 57, 21
1, 984126, Control_c, 0, 64, 97
1, 984141, Control_c, 0, 64, 98
1, 984170, Control_c, 0, 64, 98
1, 984194, Note_on_c, 0, 62, 30
1, 984242, Note_off_c, 0, 62, 44
1, 984256, Note_off_c, 0, 65, 36
1, 984264, Note_on_c, 0, 57, 42
1, 984274, Control_c, 0, 64, 99
1, 984394, Note_on_c, 0, 62, 46
1, 984449, Note_off_c, 0, 57, 37
1, 984459, Note_off_c, 0, 62, 60
1, 984482, Note_off_c, 0, 77, 37
1, 984496, Note_on_c, 0, 65, 43
1, 984586, Control_c, 0, 64, 98
1, 984601, Control_c, 0, 64, 98
1, 984605, Note_on_c, 0, 62, 40
1, 984616, Control_c, 0, 64, 97
1, 984638, Control_c, 0, 64, 95
1, 984653, Control_c, 0, 64, 90
1, 984668, Control_c, 0, 64, 79
1, 984683, Control_c, 0, 64, 67
1, 984686, Note_off_c, 0, 62, 38
1, 984686, Note_off_c, 0, 65, 38
1, 984697, Control_c, 0, 64, 52
1, 984698, Note_on_c, 0, 88, 58
1, 984709, Note_off_c, 0, 89, 57
1, 984712, Control_c, 0, 64, 0
1, 984713, Note_on_c, 0, 76, 47
1, 984722, Note_on_c, 0, 57, 40
1, 984757, Control_c, 0, 64, 40
1, 984772, Control_c, 0, 64, 57
1, 984786, Control_c, 0, 64, 64
1, 984801, Control_c, 0, 64, 70
1, 984816, Control_c, 0, 64, 77
1, 984830, Control_c, 0, 64, 83
1, 984845, Control_c, 0, 64, 89
1, 984847, Note_on_c, 0, 61, 45
1, 984860, Control_c, 0, 64, 98
1, 984875, Control_c, 0, 64, 109
1, 984890, Control_c, 0, 64, 127
1, 984891, Note_off_c, 0, 88, 61
1, 984901, Note_off_c, 0, 57, 33
1, 984918, Note_off_c, 0, 61, 59
1, 984966, Note_on_c, 0, 64, 40
1, 985054, Note_off_c, 0, 76, 36
1, 985067, Control_c, 0, 67, 122
1, 985082, Control_c, 0, 67, 117
1, 985097, Control_c, 0, 67, 111
1, 985099, Note_on_c, 0, 61, 35
1, 985112, Control_c, 0, 67, 106
1, 985127, Control_c, 0, 67, 100
1, 985141, Control_c, 0, 67, 96
1, 985156, Control_c, 0, 67, 92
1, 985171, Control_c, 0, 67, 88
1, 985171, Note_off_c, 0, 64, 36
1, 985186, Control_c, 0, 67, 85
1, 985201, Control_c, 0, 67, 81
1, 985216, Control_c, 0, 67, 75
1, 985231, Control_c, 0, 67, 70
1, 985246, Control_c, 0, 67, 65
1, 985261, Control_c, 0, 67, 62
1, 985276, Control_c, 0, 67, 61
1, 985280, Note_on_c, 0, 54, 39
1, 985291, Control_c, 0, 67, 60
1, 985306, Control_c, 0, 67, 60
1, 985350, Control_c, 0, 67, 60
1, 985357, Note_off_c, 0, 61, 50
1, 985365, Control_c, 0, 67, 61
1, 985387, Control_c, 0, 64, 110
1, 985393, Note_on_c, 0, 81, 70
1, 985401, Control_c, 0, 64, 99
1, 985416, Note_on_c, 0, 74, 49
1, 985416, Control_c, 0, 64, 91
1, 985416, Control_c, 0, 67, 61
1, 985431, Control_c, 0, 64, 85
1, 985431, Control_c, 0, 67, 62
1, 985446, Control_c, 0, 64, 77
1, 985461, Control_c, 0, 64, 68
1, 985461, Control_c, 0, 67, 62
1, 985475, Control_c, 0, 64, 49
1, 985475, Control_c, 0, 67, 63
1, 985490, Control_c, 0, 64, 0
1, 985490, Control_c, 0, 67, 64
1, 985505, Control_c, 0, 67, 64
1, 985520, Control_c, 0, 67, 66
1, 985535, Control_c, 0, 67, 67
1, 985550, Control_c, 0, 64, 39
1, 985550, Control_c, 0, 67, 69
1, 985565, Control_c, 0, 64, 61
1, 985565, Control_c, 0, 67, 71
1, 985579, Control_c, 0, 64, 71
1, 985579, Control_c, 0, 67, 73
1, 985594, Control_c, 0, 64, 81
1, 985594, Control_c, 0, 67, 76
1, 985609, Control_c, 0, 64, 88
1, 985609, Control_c, 0, 67, 78
1, 985624, Control_c, 0, 64, 89
1, 985624, Control_c, 0, 67, 81
1, 985632, Note_on_c, 0, 57, 40
1, 985639, Control_c, 0, 64, 90
1, 985639, Control_c, 0, 67, 83
1, 985653, Control_c, 0, 64, 91
1, 985653, Control_c, 0, 67, 85
1, 985668, Control_c, 0, 64, 92
1, 985668, Control_c, 0, 67, 89
1, 985683, Control_c, 0, 64, 93
1, 985683, Control_c, 0, 67, 95
1, 985698, Control_c, 0, 64, 94
1, 985698, Control_c, 0, 67, 99
1, 985713, Control_c, 0, 64, 94
1, 985713, Control_c, 0, 67, 102
1, 985727, Control_c, 0, 64, 95
1, 985727, Control_c, 0, 67, 105
1, 985742, Control_c, 0, 64, 95
1, 985742, Control_c, 0, 67, 107
1, 985745, Note_off_c, 0, 57, 56
1, 985757, Control_c, 0, 67, 108
1, 985771, Control_c, 0, 67, 110
1, 985780, Note_on_c, 0, 62, 44
1, 985780, Note_off_c, 0, 54, 26
1, 985786, Control_c, 0, 67, 112
1, 985801, Control_c, 0, 67, 114
1, 985816, Control_c, 0, 67, 115
1, 985831, Control_c, 0, 67, 116
1, 985845, Control_c, 0, 67, 117
1, 985860, Control_c, 0, 67, 118
1, 985875, Control_c, 0, 67, 119
1, 985890, Control_c, 0, 67, 120
1, 985905, Note_on_c, 0, 57, 43
1, 985905, Control_c, 0, 67, 121
1, 985935, Control_c, 0, 67, 122
1, 985949, Control_c, 0, 67, 123
1, 985964, Control_c, 0, 67, 124
1, 985979, Control_c, 0, 67, 125
1, 985994, Control_c, 0, 67, 125
1, 986009, Control_c, 0, 67, 126
1, 986030, Note_off_c, 0, 62, 36
1, 986032, Note_on_c, 0, 54, 52
1, 986052, Note_off_c, 0, 57, 34
1, 986054, Control_c, 0, 67, 126
1, 986149, Note_on_c, 0, 57, 55
1, 986237, Note_off_c, 0, 57, 57
1, 986251, Note_off_c, 0, 81, 59
1, 986253, Control_c, 0, 67, 126
1, 986259, Note_on_c, 0, 80, 70
1, 986268, Note_on_c, 0, 62, 54
1, 986312, Control_c, 0, 67, 125
1, 986327, Control_c, 0, 67, 125
1, 986356, Control_c, 0, 67, 124
1, 986364, Note_off_c, 0, 74, 37
1, 986371, Control_c, 0, 67, 124
1, 986378, Note_on_c, 0, 81, 76
1, 986393, Note_off_c, 0, 54, 39
1, 986396, Note_on_c, 0, 57, 46
1, 986400, Control_c, 0, 64, 95
1, 986415, Control_c, 0, 64, 94
1, 986415, Control_c, 0, 67, 123
1, 986426, Note_off_c, 0, 80, 59
1, 986430, Control_c, 0, 64, 92
1, 986430, Control_c, 0, 67, 123
1, 986445, Control_c, 0, 64, 89
1, 986460, Control_c, 0, 64, 86
1, 986474, Control_c, 0, 64, 84
1, 986474, Control_c, 0, 67, 122
1, 986489, Control_c, 0, 64, 81
1, 986504, Control_c, 0, 64, 79
1, 986504, Control_c, 0, 67, 122
1, 986519, Control_c, 0, 64, 75
1, 986534, Control_c, 0, 64, 70
1, 986538, Note_off_c, 0, 62, 29
1, 986542, Note_on_c, 0, 83, 77
1, 986548, Note_off_c, 0, 57, 58
1, 986549, Control_c, 0, 64, 64
1, 986552, Note_off_c, 0, 81, 59
1, 986564, Control_c, 0, 64, 43
1, 986569, Note_on_c, 0, 74, 51
1, 986574, Note_on_c, 0, 55, 44
1, 986578, Control_c, 0, 64, 0
1, 986608, Control_c, 0, 67, 121
1, 986623, Control_c, 0, 67, 121
1, 986653, Control_c, 0, 67, 120
1, 986667, Control_c, 0, 64, 40
1, 986667, Control_c, 0, 67, 120
1, 986682, Control_c, 0, 64, 63
1, 986697, Control_c, 0, 64, 68
1, 986697, Control_c, 0, 67, 119
1, 986708, Note_on_c, 0, 59, 38
1, 986712, Control_c, 0, 64, 72
1, 986726, Control_c, 0, 64, 75
1, 986726, Control_c, 0, 67, 118
1, 986741, Control_c, 0, 64, 78
1, 986741, Control_c, 0, 67, 117
1, 986756, Control_c, 0, 64, 82
1, 986756, Control_c, 0, 67, 116
1, 986771, Control_c, 0, 64, 87
1, 986771, Control_c, 0, 67, 116
1, 986783, Note_off_c, 0, 55, 34
1, 986786, Control_c, 0, 64, 90
1, 986802, Control_c, 0, 64, 92
1, 986802, Control_c, 0, 67, 115
1, 986805, Note_on_c, 0, 85, 76
1, 986814, Note_off_c, 0, 59, 41
1, 986816, Control_c, 0, 64, 97
1, 986816, Control_c, 0, 67, 115
1, 986831, Control_c, 0, 64, 103
1, 986837, Note_on_c, 0, 62, 51
1, 986846, Control_c, 0, 64, 116
1, 986846, Control_c, 0, 67, 114
1, 986868, Control_c, 0, 64, 127
1, 986868, Control_c, 0, 67, 114
1, 986926, Note_off_c, 0, 62, 0
1, 986926, Note_on_c, 0, 62, 4
1, 986942, Control_c, 0, 67, 115
1, 986953, Note_off_c, 0, 83, 59
1, 986954, Note_on_c, 0, 86, 74
1, 986957, Note_on_c, 0, 59, 45
1, 986957, Control_c, 0, 67, 115
1, 986972, Control_c, 0, 67, 116
1, 986987, Control_c, 0, 67, 117
1, 986992, Note_off_c, 0, 85, 64
1, 986997, Note_off_c, 0, 74, 65
1, 987002, Control_c, 0, 67, 118
1, 987015, Note_off_c, 0, 86, 63
1, 987017, Control_c, 0, 67, 119
1, 987029, Note_off_c, 0, 62, 40
1, 987031, Control_c, 0, 67, 120
1, 987046, Control_c, 0, 67, 121
1, 987061, Control_c, 0, 67, 122
1, 987091, Control_c, 0, 67, 123
1, 987120, Control_c, 0, 67, 124
1, 987150, Control_c, 0, 67, 124
1, 987165, Control_c, 0, 67, 125
1, 987194, Control_c, 0, 67, 125
1, 987204, Note_on_c, 0, 78, 67
1, 987209, Control_c, 0, 64, 116
1, 987209, Control_c, 0, 67, 126
1, 987220, Note_on_c, 0, 74, 51
1, 987223, Control_c, 0, 64, 103
1, 987225, Note_off_c, 0, 59, 49
1, 987234, Note_on_c, 0, 57, 46
1, 987238, Control_c, 0, 64, 93
1, 987253, Control_c, 0, 64, 84
1, 987258, Note_on_c, 0, 69, 45
1, 987268, Control_c, 0, 64, 74
1, 987283, Control_c, 0, 64, 64
1, 987297, Control_c, 0, 64, 8
1, 987312, Control_c, 0, 64, 0
1, 987312, Control_c, 0, 67, 126
1, 987342, Control_c, 0, 67, 127
1, 987371, Control_c, 0, 64, 31
1, 987371, Control_c, 0, 67, 127
1, 987386, Control_c, 0, 64, 62
1, 987401, Control_c, 0, 64, 69
1, 987416, Control_c, 0, 64, 75
1, 987431, Control_c, 0, 64, 79
1, 987441, Note_on_c, 0, 62, 45
1, 987446, Control_c, 0, 64, 80
1, 987461, Control_c, 0, 64, 82
1, 987476, Control_c, 0, 64, 83
1, 987490, Control_c, 0, 64, 83
1, 987541, Note_off_c, 0, 62, 58
1, 987574, Note_on_c, 0, 66, 43
1, 987605, Note_off_c, 0, 57, 23
1, 987690, Note_on_c, 0, 62, 48
1, 987773, Note_off_c, 0, 62, 53
1, 987780, Note_off_c, 0, 66, 42
1, 987801, Note_on_c, 0, 57, 43
1, 987911, Note_on_c, 0, 62, 50
1, 987985, Note_off_c, 0, 62, 54
1, 988014, Note_on_c, 0, 79, 49
1, 988018, Note_on_c, 0, 66, 51
1, 988087, Note_off_c, 0, 74, 38
1, 988098, Note_off_c, 0, 57, 40
1, 988111, Note_off_c, 0, 78, 51
1, 988125, Note_off_c, 0, 79, 59
1, 988126, Note_on_c, 0, 81, 59
1, 988134, Note_on_c, 0, 62, 38
1, 988137, Note_off_c, 0, 69, 43
1, 988170, Note_off_c, 0, 66, 39
1, 988229, Note_off_c, 0, 81, 59
1, 988239, Control_c, 0, 64, 80
1, 988254, Control_c, 0, 64, 71
1, 988258, Note_on_c, 0, 79, 54
1, 988266, Note_on_c, 0, 57, 32
1, 988269, Control_c, 0, 64, 58
1, 988281, Note_on_c, 0, 69, 36
1, 988284, Control_c, 0, 64, 0
1, 988298, Note_on_c, 0, 73, 43
1, 988313, Note_off_c, 0, 62, 41
1, 988343, Control_c, 0, 64, 45
1, 988358, Control_c, 0, 64, 62
1, 988379, Control_c, 0, 64, 67
1, 988395, Control_c, 0, 64, 71
1, 988396, Note_on_c, 0, 64, 39
1, 988410, Control_c, 0, 64, 75
1, 988425, Control_c, 0, 64, 76
1, 988440, Control_c, 0, 64, 76
1, 988480, Note_off_c, 0, 57, 31
1, 988510, Note_off_c, 0, 64, 61
1, 988517, Note_on_c, 0, 78, 58
1, 988543, Note_on_c, 0, 66, 44
1, 988543, Control_c, 0, 64, 77
1, 988544, Note_off_c, 0, 73, 37
1, 988548, Note_off_c, 0, 79, 35
1, 988570, Note_off_c, 0, 69, 47
1, 988620, Note_off_c, 0, 66, 53
1, 988631, Note_on_c, 0, 76, 52
1, 988644, Note_off_c, 0, 78, 38
1, 988664, Note_on_c, 0, 67, 43
1, 988722, Control_c, 0, 64, 76
1, 988737, Control_c, 0, 64, 75
1, 988751, Control_c, 0, 64, 74
1, 988766, Control_c, 0, 64, 72
1, 988781, Control_c, 0, 64, 69
1, 988795, Control_c, 0, 64, 63
1, 988810, Control_c, 0, 64, 37
1, 988811, Note_off_c, 0, 76, 54
1, 988812, Note_off_c, 0, 67, 45
1, 988825, Control_c, 0, 64, 0
1, 988829, Note_on_c, 0, 74, 46
1, 988855, Note_on_c, 0, 66, 33
1, 988864, Note_on_c, 0, 62, 31
1, 988889, Poly_aftertouch_c, 0, 69, 127
1, 988899, Control_c, 0, 64, 54
1, 988913, Control_c, 0, 64, 70
1, 988928, Control_c, 0, 64, 80
1, 988934, Poly_aftertouch_c, 0, 69, 0
1, 988943, Control_c, 0, 64, 88
1, 988944, Note_off_c, 0, 74, 64
1, 988958, Control_c, 0, 64, 92
1, 988973, Control_c, 0, 64, 99
1, 988987, Control_c, 0, 64, 106
1, 989002, Control_c, 0, 64, 113
1, 989013, Note_off_c, 0, 66, 45
1, 989017, Control_c, 0, 64, 115
1, 989023, Note_off_c, 0, 62, 38
1, 989128, Control_c, 0, 64, 114
1, 989143, Control_c, 0, 64, 112
1, 989158, Control_c, 0, 64, 99
1, 989173, Control_c, 0, 64, 81
1, 989188, Control_c, 0, 64, 65
1, 989199, Note_on_c, 0, 81, 57
1, 989204, Control_c, 0, 64, 0
1, 989227, Note_on_c, 0, 66, 35
1, 989228, Note_on_c, 0, 74, 36
1, 989248, Control_c, 0, 64, 34
1, 989251, Note_on_c, 0, 57, 23
1, 989263, Control_c, 0, 64, 53
1, 989278, Control_c, 0, 64, 63
1, 989279, Note_off_c, 0, 66, 0
1, 989279, Note_on_c, 0, 66, 5
1, 989292, Control_c, 0, 64, 68
1, 989307, Control_c, 0, 64, 79
1, 989322, Control_c, 0, 64, 90
1, 989337, Control_c, 0, 64, 104
1, 989352, Control_c, 0, 64, 127
1, 989380, Note_off_c, 0, 74, 38
1, 989411, Note_off_c, 0, 57, 40
1, 989417, Note_off_c, 0, 66, 44
1, 989487, Note_off_c, 0, 81, 36
1, 989632, Note_on_c, 0, 83, 54
1, 989633, Control_c, 0, 64, 103
1, 989648, Control_c, 0, 64, 76
1, 989658, Note_on_c, 0, 67, 33
1, 989663, Control_c, 0, 64, 57
1, 989665, Note_on_c, 0, 57, 28
1, 989667, Note_on_c, 0, 74, 36
1, 989678, Control_c, 0, 64, 0
1, 989766, Control_c, 0, 64, 53
1, 989781, Control_c, 0, 64, 66
1, 989796, Control_c, 0, 64, 70
1, 989811, Control_c, 0, 64, 77
1, 989825, Control_c, 0, 64, 87
1, 989832, Note_off_c, 0, 74, 39
1, 989840, Control_c, 0, 64, 104
1, 989844, Note_off_c, 0, 57, 38
1, 989855, Control_c, 0, 64, 127
1, 989880, Note_off_c, 0, 67, 37
1, 989905, Note_off_c, 0, 83, 55
1, 989937, Control_c, 0, 64, 105
1, 989951, Control_c, 0, 64, 80
1, 989963, Note_on_c, 0, 81, 53
1, 989966, Control_c, 0, 64, 67
1, 989971, Note_on_c, 0, 74, 42
1, 989975, Note_on_c, 0, 66, 54
1, 989981, Control_c, 0, 64, 65
1, 989992, Note_on_c, 0, 57, 34
1, 989997, Control_c, 0, 64, 66
1, 990012, Control_c, 0, 64, 68
1, 990027, Control_c, 0, 64, 75
1, 990041, Control_c, 0, 64, 85
1, 990055, Note_off_c, 0, 66, 62
1, 990056, Control_c, 0, 64, 94
1, 990057, Note_off_c, 0, 81, 58
1, 990061, Note_off_c, 0, 74, 52
1, 990071, Control_c, 0, 64, 98
1, 990084, Note_off_c, 0, 57, 35
1, 990086, Control_c, 0, 64, 100
1, 990101, Control_c, 0, 64, 101
1, 990145, Control_c, 0, 64, 95
1, 990160, Control_c, 0, 64, 77
1, 990174, Control_c, 0, 64, 66
1, 990187, Note_on_c, 0, 81, 63
1, 990189, Control_c, 0, 64, 59
1, 990197, Note_on_c, 0, 74, 49
1, 990204, Control_c, 0, 64, 60
1, 990212, Note_on_c, 0, 57, 44
1, 990215, Note_on_c, 0, 64, 48
1, 990219, Control_c, 0, 64, 63
1, 990234, Control_c, 0, 64, 66
1, 990248, Control_c, 0, 64, 74
1, 990263, Control_c, 0, 64, 87
1, 990278, Control_c, 0, 64, 96
1, 990293, Control_c, 0, 64, 97
1, 990300, Note_off_c, 0, 81, 59
1, 990302, Note_off_c, 0, 74, 39
1, 990308, Note_off_c, 0, 57, 38
1, 990308, Control_c, 0, 64, 98
1, 990344, Note_off_c, 0, 64, 34
1, 990367, Control_c, 0, 64, 89
1, 990382, Control_c, 0, 64, 72
1, 990397, Control_c, 0, 64, 58
1, 990412, Control_c, 0, 64, 28
1, 990418, Note_on_c, 0, 81, 58
1, 990427, Control_c, 0, 64, 38
1, 990427, Note_on_c, 0, 57, 45
1, 990428, Note_on_c, 0, 67, 49
1, 990429, Note_on_c, 0, 73, 58
1, 990441, Control_c, 0, 64, 55
1, 990456, Control_c, 0, 64, 64
1, 990471, Control_c, 0, 64, 72
1, 990486, Control_c, 0, 64, 83
1, 990496, Note_off_c, 0, 57, 41
1, 990501, Control_c, 0, 64, 92
1, 990507, Note_off_c, 0, 81, 59
1, 990515, Control_c, 0, 64, 95
1, 990530, Control_c, 0, 64, 100
1, 990539, Note_off_c, 0, 67, 45
1, 990545, Control_c, 0, 64, 103
1, 990589, Control_c, 0, 64, 95
1, 990612, Control_c, 0, 64, 76
1, 990619, Note_off_c, 0, 73, 31
1, 990627, Control_c, 0, 64, 62
1, 990641, Control_c, 0, 64, 41
1, 990650, Note_on_c, 0, 81, 65
1, 990656, Control_c, 0, 64, 47
1, 990664, Note_on_c, 0, 74, 57
1, 990671, Control_c, 0, 64, 56
1, 990680, Note_on_c, 0, 62, 47
1, 990680, Note_on_c, 0, 66, 45
1, 990686, Control_c, 0, 64, 63
1, 990701, Control_c, 0, 64, 69
1, 990716, Control_c, 0, 64, 77
1, 990731, Control_c, 0, 64, 83
1, 990731, Note_off_c, 0, 66, 52
1, 990741, Note_off_c, 0, 74, 58
1, 990746, Control_c, 0, 64, 86
1, 990761, Control_c, 0, 64, 87
1, 990769, Note_off_c, 0, 62, 36
1, 990771, Note_off_c, 0, 81, 60
1, 990805, Control_c, 0, 67, 124
1, 990820, Control_c, 0, 64, 87
1, 990820, Control_c, 0, 67, 120
1, 990835, Control_c, 0, 64, 88
1, 990835, Control_c, 0, 67, 116
1, 990850, Control_c, 0, 64, 89
1, 990850, Control_c, 0, 67, 111
1, 990865, Control_c, 0, 67, 105
1, 990880, Control_c, 0, 64, 86
1, 990880, Control_c, 0, 67, 100
1, 990895, Control_c, 0, 64, 74
1, 990895, Control_c, 0, 67, 96
1, 990910, Control_c, 0, 64, 63
1, 990910, Control_c, 0, 67, 94
1, 990913, Note_on_c, 0, 81, 63
1, 990925, Control_c, 0, 64, 42
1, 990925, Control_c, 0, 67, 92
1, 990939, Control_c, 0, 64, 28
1, 990939, Control_c, 0, 67, 90
1, 990939, Note_on_c, 0, 66, 41
1, 990941, Note_on_c, 0, 74, 41
1, 990950, Note_on_c, 0, 57, 33
1, 990954, Control_c, 0, 64, 41
1, 990954, Control_c, 0, 67, 88
1, 990969, Control_c, 0, 64, 55
1, 990969, Control_c, 0, 67, 87
1, 990984, Control_c, 0, 64, 64
1, 990984, Control_c, 0, 67, 86
1, 990998, Control_c, 0, 64, 71
1, 991013, Control_c, 0, 64, 80
1, 991013, Control_c, 0, 67, 87
1, 991028, Control_c, 0, 64, 92
1, 991043, Control_c, 0, 64, 106
1, 991043, Control_c, 0, 67, 88
1, 991058, Control_c, 0, 64, 127
1, 991058, Control_c, 0, 67, 90
1, 991072, Control_c, 0, 67, 92
1, 991087, Control_c, 0, 67, 94
1, 991091, Note_off_c, 0, 57, 34
1, 991101, Note_off_c, 0, 66, 41
1, 991102, Control_c, 0, 67, 96
1, 991109, Note_off_c, 0, 74, 39
1, 991116, Note_off_c, 0, 81, 38
1, 991117, Control_c, 0, 67, 98
1, 991132, Control_c, 0, 67, 103
1, 991146, Control_c, 0, 67, 108
1, 991161, Control_c, 0, 67, 113
1, 991176, Control_c, 0, 67, 117
1, 991190, Control_c, 0, 67, 123
1, 991205, Control_c, 0, 67, 127
1, 991376, Control_c, 0, 64, 106
1, 991388, Note_on_c, 0, 86, 53
1, 991390, Control_c, 0, 64, 92
1, 991405, Control_c, 0, 64, 84
1, 991420, Control_c, 0, 64, 78
1, 991423, Note_on_c, 0, 83, 40
1, 991431, Note_on_c, 0, 74, 27
1, 991435, Note_on_c, 0, 67, 30
1, 991435, Control_c, 0, 64, 71
1, 991446, Note_on_c, 0, 57, 29
1, 991450, Control_c, 0, 64, 63
1, 991464, Control_c, 0, 64, 33
1, 991479, Control_c, 0, 64, 0
1, 991568, Control_c, 0, 64, 50
1, 991584, Control_c, 0, 64, 65
1, 991599, Control_c, 0, 64, 71
1, 991613, Control_c, 0, 64, 79
1, 991628, Control_c, 0, 64, 86
1, 991635, Note_off_c, 0, 74, 46
1, 991637, Note_off_c, 0, 57, 38
1, 991643, Control_c, 0, 64, 90
1, 991658, Control_c, 0, 64, 91
1, 991667, Note_off_c, 0, 67, 44
1, 991673, Control_c, 0, 64, 91
1, 991688, Control_c, 0, 64, 92
1, 991703, Control_c, 0, 64, 94
1, 991717, Control_c, 0, 64, 97
1, 991732, Control_c, 0, 64, 98
1, 991761, Note_off_c, 0, 83, 34
1, 991762, Control_c, 0, 64, 95
1, 991774, Note_off_c, 0, 86, 29
1, 991777, Control_c, 0, 64, 86
1, 991792, Control_c, 0, 64, 77
1, 991807, Control_c, 0, 64, 74
1, 991817, Note_on_c, 0, 81, 45
1, 991825, Note_on_c, 0, 66, 40
1, 991834, Note_on_c, 0, 74, 30
1, 991836, Control_c, 0, 64, 75
1, 991851, Control_c, 0, 64, 77
1, 991858, Note_on_c, 0, 57, 28
1, 991866, Control_c, 0, 64, 82
1, 991881, Control_c, 0, 64, 86
1, 991895, Control_c, 0, 64, 87
1, 991899, Note_off_c, 0, 66, 64
1, 991910, Control_c, 0, 64, 88
1, 991918, Note_off_c, 0, 81, 41
1, 991933, Note_off_c, 0, 74, 46
1, 991935, Note_off_c, 0, 57, 38
1, 992073, Control_c, 0, 64, 85
1, 992078, Note_on_c, 0, 81, 48
1, 992087, Control_c, 0, 64, 77
1, 992096, Note_on_c, 0, 74, 22
1, 992102, Control_c, 0, 64, 68
1, 992105, Note_on_c, 0, 64, 34
1, 992115, Note_on_c, 0, 57, 30
1, 992124, Control_c, 0, 64, 62
1, 992138, Control_c, 0, 64, 57
1, 992153, Control_c, 0, 64, 60
1, 992168, Control_c, 0, 64, 64
1, 992183, Control_c, 0, 64, 66
1, 992197, Note_off_c, 0, 74, 50
1, 992198, Control_c, 0, 64, 69
1, 992212, Control_c, 0, 64, 73
1, 992217, Note_off_c, 0, 81, 54
1, 992223, Note_on_c, 0, 73, 51
1, 992227, Control_c, 0, 64, 76
1, 992237, Note_off_c, 0, 57, 35
1, 992242, Control_c, 0, 64, 79
1, 992257, Control_c, 0, 64, 82
1, 992272, Control_c, 0, 64, 84
1, 992273, Note_off_c, 0, 64, 35
1, 992287, Control_c, 0, 64, 85
1, 992317, Control_c, 0, 64, 83
1, 992331, Note_off_c, 0, 73, 48
1, 992332, Control_c, 0, 64, 73
1, 992335, Note_on_c, 0, 81, 52
1, 992343, Note_on_c, 0, 74, 43
1, 992346, Control_c, 0, 64, 63
1, 992358, Note_on_c, 0, 57, 38
1, 992359, Note_on_c, 0, 67, 35
1, 992361, Control_c, 0, 64, 38
1, 992376, Control_c, 0, 64, 36
1, 992391, Control_c, 0, 64, 50
1, 992397, Note_off_c, 0, 57, 47
1, 992406, Control_c, 0, 64, 60
1, 992421, Control_c, 0, 64, 65
1, 992426, Note_off_c, 0, 74, 51
1, 992427, Note_off_c, 0, 81, 58
1, 992436, Control_c, 0, 64, 71
1, 992445, Note_on_c, 0, 76, 59
1, 992451, Control_c, 0, 64, 77
1, 992466, Control_c, 0, 64, 81
1, 992467, Note_off_c, 0, 67, 44
1, 992481, Control_c, 0, 64, 81
1, 992510, Control_c, 0, 64, 79
1, 992525, Control_c, 0, 64, 70
1, 992540, Control_c, 0, 64, 60
1, 992543, Note_off_c, 0, 76, 57
1, 992555, Control_c, 0, 64, 22
1, 992562, Note_on_c, 0, 74, 46
1, 992569, Control_c, 0, 64, 24
1, 992572, Note_on_c, 0, 81, 46
1, 992579, Note_on_c, 0, 62, 43
1, 992582, Note_on_c, 0, 66, 49
1, 992584, Control_c, 0, 64, 47
1, 992599, Control_c, 0, 64, 60
1, 992614, Control_c, 0, 64, 67
1, 992629, Control_c, 0, 64, 74
1, 992630, Note_off_c, 0, 74, 55
1, 992643, Control_c, 0, 64, 82
1, 992658, Control_c, 0, 64, 84
1, 992668, Note_off_c, 0, 62, 34
1, 992673, Control_c, 0, 64, 86
1, 992681, Note_off_c, 0, 81, 36
1, 992688, Control_c, 0, 64, 86
1, 992703, Control_c, 0, 64, 87
1, 992707, Note_off_c, 0, 66, 35
1, 992747, Control_c, 0, 64, 82
1, 992761, Control_c, 0, 64, 72
1, 992776, Control_c, 0, 64, 61
1, 992791, Control_c, 0, 64, 35
1, 992800, Note_on_c, 0, 81, 49
1, 992806, Control_c, 0, 64, 23
1, 992813, Note_on_c, 0, 64, 43
1, 992821, Control_c, 0, 64, 43
1, 992822, Note_on_c, 0, 73, 41
1, 992831, Note_on_c, 0, 57, 32
1, 992835, Control_c, 0, 64, 60
1, 992850, Control_c, 0, 64, 67
1, 992873, Control_c, 0, 64, 74
1, 992888, Control_c, 0, 64, 80
1, 992903, Control_c, 0, 64, 84
1, 992910, Note_off_c, 0, 57, 39
1, 992917, Control_c, 0, 64, 86
1, 992919, Note_off_c, 0, 81, 55
1, 992932, Control_c, 0, 64, 88
1, 992947, Control_c, 0, 64, 90
1, 992948, Note_off_c, 0, 73, 38
1, 992956, Note_off_c, 0, 64, 36
1, 992961, Control_c, 0, 64, 92
1, 992976, Control_c, 0, 64, 94
1, 992991, Control_c, 0, 64, 95
1, 993035, Control_c, 0, 64, 89
1, 993050, Control_c, 0, 64, 75
1, 993065, Control_c, 0, 64, 64
1, 993070, Note_on_c, 0, 81, 47
1, 993080, Control_c, 0, 64, 51
1, 993083, Note_on_c, 0, 74, 36
1, 993094, Note_on_c, 0, 62, 43
1, 993095, Note_on_c, 0, 66, 37
1, 993110, Control_c, 0, 64, 59
1, 993124, Control_c, 0, 64, 65
1, 993135, Note_off_c, 0, 74, 58
1, 993139, Control_c, 0, 64, 71
1, 993142, Note_off_c, 0, 66, 46
1, 993154, Control_c, 0, 64, 79
1, 993159, Note_off_c, 0, 81, 54
1, 993168, Note_off_c, 0, 62, 39
1, 993169, Control_c, 0, 64, 86
1, 993184, Control_c, 0, 64, 88
1, 993199, Control_c, 0, 64, 89
1, 993271, Note_on_c, 0, 78, 47
1, 993303, Control_c, 0, 64, 88
1, 993318, Control_c, 0, 64, 77
1, 993333, Control_c, 0, 64, 63
1, 993348, Control_c, 0, 64, 0
1, 993353, Note_on_c, 0, 76, 49
1, 993360, Note_on_c, 0, 57, 39
1, 993360, Note_on_c, 0, 81, 48
1, 993371, Note_on_c, 0, 67, 34
1, 993381, Note_off_c, 0, 78, 37
1, 993388, Note_on_c, 0, 73, 33
1, 993400, Note_off_c, 0, 76, 56
1, 993407, Control_c, 0, 64, 31
1, 993422, Control_c, 0, 64, 61
1, 993426, Note_off_c, 0, 81, 49
1, 993432, Note_off_c, 0, 73, 46
1, 993433, Note_off_c, 0, 67, 43
1, 993437, Control_c, 0, 64, 68
1, 993452, Control_c, 0, 64, 74
1, 993461, Note_off_c, 0, 57, 33
1, 993466, Control_c, 0, 64, 77
1, 993481, Control_c, 0, 64, 79
1, 993496, Control_c, 0, 64, 81
1, 993511, Control_c, 0, 64, 83
1, 993526, Control_c, 0, 64, 83
1, 993540, Control_c, 0, 64, 84
1, 993740, Control_c, 0, 64, 83
1, 993755, Control_c, 0, 64, 83
1, 993770, Control_c, 0, 64, 82
1, 993784, Control_c, 0, 64, 81
1, 993799, Control_c, 0, 64, 78
1, 993814, Control_c, 0, 64, 76
1, 993828, Note_on_c, 0, 81, 36
1, 993829, Control_c, 0, 64, 71
1, 993844, Control_c, 0, 64, 64
1, 993847, Note_on_c, 0, 74, 30
1, 993858, Control_c, 0, 64, 35
1, 993873, Note_on_c, 0, 66, 27
1, 993873, Control_c, 0, 64, 0
1, 993875, Note_on_c, 0, 62, 21
1, 993932, Control_c, 0, 64, 44
1, 993947, Control_c, 0, 64, 64
1, 993962, Control_c, 0, 64, 73
1, 993977, Control_c, 0, 64, 87
1, 993993, Control_c, 0, 64, 107
1, 994007, Control_c, 0, 64, 127
1, 994030, Note_off_c, 0, 66, 45
1, 994038, Note_off_c, 0, 81, 38
1, 994078, Note_off_c, 0, 74, 33
1, 994104, Note_off_c, 0, 62, 38
1, 994549, Control_c, 0, 64, 121
1, 994564, Control_c, 0, 64, 106
1, 994579, Control_c, 0, 64, 99
1, 994594, Control_c, 0, 64, 95
1, 994608, Control_c, 0, 64, 90
1, 994623, Control_c, 0, 64, 84
1, 994638, Control_c, 0, 64, 79
1, 994653, Control_c, 0, 64, 72
1, 994668, Control_c, 0, 64, 66
1, 994682, Control_c, 0, 64, 61
1, 994697, Control_c, 0, 64, 51
1, 994712, Control_c, 0, 64, 18
1, 994727, Control_c, 0, 64, 0
1, 994935, Control_c, 0, 64, 20
1, 994950, Control_c, 0, 64, 33
1, 994964, Control_c, 0, 64, 38
1, 994979, Control_c, 0, 64, 43
1, 994994, Control_c, 0, 64, 48
1, 994997, Note_on_c, 0, 74, 46
1, 995009, Control_c, 0, 64, 51
1, 995024, Control_c, 0, 64, 54
1, 995038, Control_c, 0, 64, 57
1, 995053, Control_c, 0, 64, 60
1, 995068, Control_c, 0, 64, 62
1, 995083, Control_c, 0, 64, 64
1, 995098, Control_c, 0, 64, 65
1, 995120, Control_c, 0, 64, 66
1, 995135, Control_c, 0, 64, 67
1, 995150, Control_c, 0, 64, 69
1, 995164, Control_c, 0, 64, 71
1, 995179, Control_c, 0, 64, 74
1, 995194, Control_c, 0, 64, 78
1, 995209, Control_c, 0, 64, 83
1, 995224, Control_c, 0, 64, 88
1, 995238, Control_c, 0, 64, 93
1, 995253, Control_c, 0, 64, 97
1, 995268, Control_c, 0, 64, 102
1, 995283, Control_c, 0, 64, 108
1, 995298, Control_c, 0, 64, 118
1, 995312, Control_c, 0, 64, 127
1, 995533, Note_on_c, 0, 77, 47
1, 995580, Control_c, 0, 64, 114
1, 995595, Control_c, 0, 64, 107
1, 995607, Note_on_c, 0, 50, 30
1, 995610, Control_c, 0, 64, 101
1, 995625, Control_c, 0, 64, 97
1, 995640, Control_c, 0, 64, 93
1, 995654, Control_c, 0, 64, 87
1, 995669, Control_c, 0, 64, 78
1, 995684, Control_c, 0, 64, 67
1, 995696, Note_off_c, 0, 74, 50
1, 995699, Control_c, 0, 64, 57
1, 995713, Control_c, 0, 64, 32
1, 995728, Control_c, 0, 64, 31
1, 995743, Control_c, 0, 64, 41
1, 995758, Control_c, 0, 64, 51
1, 995773, Control_c, 0, 64, 59
1, 995787, Control_c, 0, 64, 64
1, 995802, Control_c, 0, 64, 69
1, 995817, Control_c, 0, 64, 74
1, 995832, Control_c, 0, 64, 80
1, 995847, Control_c, 0, 64, 85
1, 995869, Control_c, 0, 64, 90
1, 995884, Control_c, 0, 64, 96
1, 995889, Note_on_c, 0, 53, 27
1, 995899, Control_c, 0, 64, 106
1, 995913, Control_c, 0, 64, 121
1, 995928, Control_c, 0, 64, 127
1, 996029, Note_off_c, 0, 50, 32
1, 996048, Note_on_c, 0, 56, 30
1, 996049, Note_off_c, 0, 53, 42
1, 996207, Note_on_c, 0, 53, 15
1, 996279, Note_off_c, 0, 56, 36
1, 996329, Note_on_c, 0, 71, 44
1, 996341, Note_off_c, 0, 53, 42
1, 996353, Note_on_c, 0, 50, 32
1, 996496, Note_off_c, 0, 77, 30
1, 996506, Note_on_c, 0, 53, 20
1, 996553, Note_off_c, 0, 50, 34
1, 996582, Note_off_c, 0, 53, 40
1, 996611, Note_on_c, 0, 56, 35
1, 996636, Note_off_c, 0, 71, 52
1, 996745, Note_off_c, 0, 56, 28
1, 996746, Note_on_c, 0, 53, 19
1, 996765, Control_c, 0, 64, 118
1, 996780, Control_c, 0, 64, 113
1, 996787, Note_off_c, 0, 53, 53
1, 996795, Control_c, 0, 64, 110
1, 996809, Control_c, 0, 64, 107
1, 996822, Note_on_c, 0, 50, 37
1, 996824, Control_c, 0, 64, 104
1, 996839, Control_c, 0, 64, 102
1, 996854, Control_c, 0, 64, 98
1, 996869, Control_c, 0, 64, 97
1, 996883, Control_c, 0, 64, 95
1, 996898, Control_c, 0, 64, 94
1, 996913, Control_c, 0, 64, 93
1, 996926, Note_on_c, 0, 53, 32
1, 996928, Control_c, 0, 64, 92
1, 996943, Control_c, 0, 64, 90
1, 996958, Control_c, 0, 64, 88
1, 996972, Note_off_c, 0, 50, 28
1, 996973, Control_c, 0, 64, 87
1, 996988, Control_c, 0, 64, 86
1, 997002, Control_c, 0, 64, 84
1, 997017, Control_c, 0, 64, 82
1, 997032, Control_c, 0, 64, 80
1, 997047, Control_c, 0, 64, 77
1, 997052, Note_off_c, 0, 53, 40
1, 997061, Control_c, 0, 64, 75
1, 997074, Note_on_c, 0, 77, 49
1, 997076, Control_c, 0, 64, 74
1, 997082, Note_on_c, 0, 56, 25
1, 997091, Control_c, 0, 64, 72
1, 997106, Control_c, 0, 64, 70
1, 997121, Control_c, 0, 64, 67
1, 997135, Control_c, 0, 64, 64
1, 997150, Control_c, 0, 64, 62
1, 997165, Control_c, 0, 64, 59
1, 997181, Control_c, 0, 64, 56
1, 997196, Control_c, 0, 64, 53
1, 997199, Note_on_c, 0, 53, 28
1, 997211, Control_c, 0, 64, 49
1, 997225, Control_c, 0, 64, 42
1, 997240, Control_c, 0, 64, 26
1, 997255, Control_c, 0, 64, 0
1, 997268, Note_off_c, 0, 56, 41
1, 997402, Note_on_c, 0, 48, 34
1, 997425, Note_off_c, 0, 53, 41
1, 997502, Note_on_c, 0, 76, 39
1, 997527, Note_off_c, 0, 77, 54
1, 997589, Control_c, 0, 64, 8
1, 997604, Control_c, 0, 64, 55
1, 997619, Control_c, 0, 64, 64
1, 997633, Control_c, 0, 64, 66
1, 997648, Control_c, 0, 64, 67
1, 997663, Control_c, 0, 64, 70
1, 997677, Control_c, 0, 64, 73
1, 997691, Note_off_c, 0, 48, 35
1, 997692, Control_c, 0, 64, 77
1, 997702, Note_on_c, 0, 52, 35
1, 997707, Control_c, 0, 64, 80
1, 997722, Control_c, 0, 64, 83
1, 997737, Control_c, 0, 64, 84
1, 997751, Control_c, 0, 64, 85
1, 997766, Control_c, 0, 64, 85
1, 997781, Control_c, 0, 64, 86
1, 997811, Control_c, 0, 64, 86
1, 997849, Note_off_c, 0, 52, 35
1, 997851, Note_on_c, 0, 57, 28
1, 997885, Control_c, 0, 64, 87
1, 997991, Note_on_c, 0, 52, 30
1, 998058, Note_off_c, 0, 57, 28
1, 998069, Note_off_c, 0, 52, 38
1, 998105, Note_on_c, 0, 48, 33
1, 998112, Note_on_c, 0, 69, 43
1, 998115, Control_c, 0, 64, 86
1, 998130, Control_c, 0, 64, 81
1, 998145, Control_c, 0, 64, 75
1, 998155, Note_off_c, 0, 76, 38
1, 998160, Control_c, 0, 64, 70
1, 998175, Control_c, 0, 64, 70
1, 998204, Control_c, 0, 64, 71
1, 998219, Control_c, 0, 64, 73
1, 998234, Control_c, 0, 64, 76
1, 998240, Note_on_c, 0, 52, 41
1, 998249, Note_off_c, 0, 48, 38
1, 998249, Control_c, 0, 64, 78
1, 998264, Control_c, 0, 64, 78
1, 998293, Control_c, 0, 64, 79
1, 998323, Note_off_c, 0, 52, 59
1, 998359, Note_on_c, 0, 57, 26
1, 998477, Note_on_c, 0, 52, 39
1, 998527, Note_off_c, 0, 52, 50
1, 998537, Note_off_c, 0, 69, 39
1, 998538, Note_off_c, 0, 57, 20
1, 998571, Note_on_c, 0, 48, 36
1, 998678, Note_on_c, 0, 52, 40
1, 998739, Note_off_c, 0, 48, 30
1, 998767, Control_c, 0, 64, 74
1, 998776, Note_off_c, 0, 52, 61
1, 998783, Control_c, 0, 64, 66
1, 998797, Control_c, 0, 64, 55
1, 998804, Note_on_c, 0, 76, 57
1, 998812, Control_c, 0, 64, 28
1, 998813, Note_on_c, 0, 57, 41
1, 998842, Control_c, 0, 64, 44
1, 998863, Control_c, 0, 64, 56
1, 998878, Control_c, 0, 64, 64
1, 998893, Control_c, 0, 64, 70
1, 998907, Control_c, 0, 64, 78
1, 998922, Control_c, 0, 64, 83
1, 998930, Note_on_c, 0, 52, 47
1, 998937, Control_c, 0, 64, 84
1, 998952, Control_c, 0, 64, 85
1, 998967, Control_c, 0, 64, 85
1, 998969, Note_off_c, 0, 76, 57
1, 998973, Note_off_c, 0, 57, 30
1, 999056, Control_c, 0, 64, 83
1, 999071, Control_c, 0, 64, 73
1, 999077, Note_on_c, 0, 47, 41
1, 999083, Note_on_c, 0, 76, 62
1, 999085, Control_c, 0, 64, 63
1, 999099, Note_off_c, 0, 52, 43
1, 999100, Control_c, 0, 64, 49
1, 999115, Control_c, 0, 64, 48
1, 999129, Control_c, 0, 64, 55
1, 999144, Control_c, 0, 64, 61
1, 999159, Control_c, 0, 64, 67
1, 999174, Control_c, 0, 64, 74
1, 999189, Control_c, 0, 64, 86
1, 999203, Control_c, 0, 64, 93
1, 999218, Control_c, 0, 64, 95
1, 999229, Note_off_c, 0, 76, 60
1, 999247, Note_on_c, 0, 50, 40
1, 999322, Note_off_c, 0, 50, 38
1, 999343, Note_on_c, 0, 76, 67
1, 999348, Note_on_c, 0, 56, 42
1, 999419, Note_off_c, 0, 47, 39
1, 999468, Note_on_c, 0, 50, 42
1, 999468, Note_off_c, 0, 76, 59
1, 999537, Note_off_c, 0, 56, 38
1, 999541, Note_off_c, 0, 50, 51
1, 999554, Note_on_c, 0, 76, 67
1, 999558, Note_on_c, 0, 47, 46
1, 999656, Control_c, 0, 64, 94
1, 999671, Control_c, 0, 64, 94
1, 999691, Note_off_c, 0, 76, 61
1, 999700, Control_c, 0, 64, 93
1, 999715, Note_on_c, 0, 50, 44
1, 999715, Control_c, 0, 64, 92
1, 999730, Control_c, 0, 64, 92
1, 999760, Control_c, 0, 64, 91
1, 999775, Control_c, 0, 64, 91
1, 999781, Note_off_c, 0, 50, 60
1, 999787, Note_on_c, 0, 76, 73
1, 999805, Control_c, 0, 64, 90
1, 999818, Note_on_c, 0, 56, 41
1, 999820, Control_c, 0, 64, 90
1, 999849, Control_c, 0, 64, 89
1, 999878, Control_c, 0, 64, 89
1, 999882, Note_off_c, 0, 47, 36
1, 999902, Note_off_c, 0, 76, 60
1, 999908, Control_c, 0, 64, 88
1, 999923, Control_c, 0, 64, 88
1, 999934, Note_on_c, 0, 50, 40
1, 999938, Control_c, 0, 64, 87
1, 999952, Control_c, 0, 64, 87
1, 999967, Control_c, 0, 64, 86
1, 999978, Note_off_c, 0, 56, 34
1, 999982, Control_c, 0, 64, 85
1, 999997, Control_c, 0, 64, 85
1, 999998, Note_on_c, 0, 75, 64
1, 1000009, Note_off_c, 0, 50, 47
1, 1000012, Control_c, 0, 64, 84
1, 1000016, Note_on_c, 0, 47, 50
1, 1000026, Control_c, 0, 64, 82
1, 1000041, Control_c, 0, 64, 76
1, 1000056, Control_c, 0, 64, 66
1, 1000070, Control_c, 0, 64, 46
1, 1000085, Control_c, 0, 64, 0
1, 1000115, Control_c, 0, 64, 30
1, 1000130, Control_c, 0, 64, 48
1, 1000137, Note_on_c, 0, 76, 68
1, 1000145, Control_c, 0, 64, 59
1, 1000159, Control_c, 0, 64, 64
1, 1000163, Note_on_c, 0, 50, 47
1, 1000174, Control_c, 0, 64, 67
1, 1000188, Note_off_c, 0, 75, 63
1, 1000189, Control_c, 0, 64, 69
1, 1000204, Control_c, 0, 64, 72
1, 1000219, Control_c, 0, 64, 74
1, 1000234, Control_c, 0, 64, 75
1, 1000234, Note_off_c, 0, 50, 60
1, 1000249, Control_c, 0, 64, 76
1, 1000266, Note_on_c, 0, 77, 67
1, 1000278, Control_c, 0, 64, 76
1, 1000281, Note_on_c, 0, 56, 39
1, 1000292, Note_off_c, 0, 76, 64
1, 1000293, Control_c, 0, 64, 77
1, 1000308, Control_c, 0, 64, 78
1, 1000323, Control_c, 0, 64, 79
1, 1000338, Control_c, 0, 64, 80
1, 1000359, Control_c, 0, 64, 81
1, 1000375, Control_c, 0, 64, 81
1, 1000395, Note_on_c, 0, 76, 70
1, 1000396, Note_off_c, 0, 56, 56
1, 1000415, Note_off_c, 0, 47, 39
1, 1000420, Control_c, 0, 64, 82
1, 1000422, Note_on_c, 0, 50, 36
1, 1000443, Note_off_c, 0, 77, 39
1, 1000492, Note_off_c, 0, 76, 64
1, 1000538, Control_c, 0, 64, 81
1, 1000553, Control_c, 0, 64, 80
1, 1000568, Control_c, 0, 64, 78
1, 1000583, Control_c, 0, 64, 74
1, 1000597, Note_off_c, 0, 50, 36
1, 1000598, Control_c, 0, 64, 72
1, 1000613, Control_c, 0, 64, 70
1, 1000615, Note_on_c, 0, 76, 62
1, 1000627, Control_c, 0, 64, 67
1, 1000630, Note_on_c, 0, 48, 36
1, 1000642, Control_c, 0, 64, 63
1, 1000657, Control_c, 0, 64, 50
1, 1000672, Control_c, 0, 64, 0
1, 1000775, Control_c, 0, 64, 46
1, 1000785, Note_on_c, 0, 52, 48
1, 1000790, Control_c, 0, 64, 60
1, 1000805, Control_c, 0, 64, 63
1, 1000820, Control_c, 0, 64, 64
1, 1000827, Note_off_c, 0, 48, 37
1, 1000835, Control_c, 0, 64, 66
1, 1000849, Control_c, 0, 64, 68
1, 1000864, Control_c, 0, 64, 72
1, 1000871, Note_off_c, 0, 52, 60
1, 1000879, Control_c, 0, 64, 75
1, 1000893, Control_c, 0, 64, 76
1, 1000908, Control_c, 0, 64, 77
1, 1000916, Note_on_c, 0, 57, 33
1, 1000923, Control_c, 0, 64, 77
1, 1000953, Control_c, 0, 64, 78
1, 1001026, Note_on_c, 0, 52, 39
1, 1001085, Note_off_c, 0, 52, 47
1, 1001105, Note_off_c, 0, 57, 21
1, 1001124, Control_c, 0, 64, 75
1, 1001139, Control_c, 0, 64, 69
1, 1001140, Note_on_c, 0, 69, 50
1, 1001146, Note_on_c, 0, 48, 36
1, 1001154, Control_c, 0, 64, 63
1, 1001168, Note_off_c, 0, 76, 64
1, 1001169, Control_c, 0, 64, 56
1, 1001185, Control_c, 0, 64, 53
1, 1001199, Control_c, 0, 64, 57
1, 1001214, Control_c, 0, 64, 61
1, 1001229, Control_c, 0, 64, 64
1, 1001244, Control_c, 0, 64, 66
1, 1001259, Control_c, 0, 64, 68
1, 1001263, Note_on_c, 0, 52, 38
1, 1001273, Control_c, 0, 64, 71
1, 1001278, Note_off_c, 0, 48, 48
1, 1001288, Control_c, 0, 64, 72
1, 1001303, Control_c, 0, 64, 73
1, 1001322, Note_off_c, 0, 52, 63
1, 1001361, Note_on_c, 0, 57, 37
1, 1001454, Note_on_c, 0, 52, 48
1, 1001518, Note_off_c, 0, 52, 53
1, 1001534, Note_off_c, 0, 57, 24
1, 1001560, Note_on_c, 0, 48, 43
1, 1001619, Note_off_c, 0, 69, 38
1, 1001629, Control_c, 0, 67, 125
1, 1001643, Control_c, 0, 67, 121
1, 1001658, Control_c, 0, 67, 116
1, 1001659, Note_on_c, 0, 52, 52
1, 1001664, Note_off_c, 0, 48, 54
1, 1001673, Control_c, 0, 67, 112
1, 1001688, Control_c, 0, 67, 109
1, 1001703, Control_c, 0, 67, 105
1, 1001717, Control_c, 0, 67, 102
1, 1001732, Control_c, 0, 64, 72
1, 1001732, Control_c, 0, 67, 99
1, 1001739, Note_off_c, 0, 52, 61
1, 1001747, Control_c, 0, 67, 97
1, 1001762, Control_c, 0, 64, 72
1, 1001762, Control_c, 0, 67, 94
1, 1001766, Note_on_c, 0, 76, 69
1, 1001777, Control_c, 0, 64, 71
1, 1001777, Control_c, 0, 67, 90
1, 1001787, Note_on_c, 0, 57, 34
1, 1001792, Control_c, 0, 67, 85
1, 1001806, Control_c, 0, 64, 71
1, 1001806, Control_c, 0, 67, 80
1, 1001821, Control_c, 0, 64, 70
1, 1001821, Control_c, 0, 67, 74
1, 1001836, Control_c, 0, 67, 66
1, 1001858, Control_c, 0, 67, 59
1, 1001873, Control_c, 0, 64, 70
1, 1001873, Control_c, 0, 67, 52
1, 1001888, Control_c, 0, 64, 69
1, 1001888, Control_c, 0, 67, 44
1, 1001895, Note_on_c, 0, 52, 45
1, 1001903, Control_c, 0, 64, 68
1, 1001903, Control_c, 0, 67, 38
1, 1001918, Control_c, 0, 64, 66
1, 1001918, Control_c, 0, 67, 34
1, 1001932, Control_c, 0, 64, 64
1, 1001932, Control_c, 0, 67, 32
1, 1001947, Control_c, 0, 64, 61
1, 1001947, Control_c, 0, 67, 31
1, 1001962, Control_c, 0, 64, 56
1, 1001962, Control_c, 0, 67, 31
1, 1001978, Control_c, 0, 64, 47
1, 1001988, Note_off_c, 0, 57, 27
1, 1001993, Control_c, 0, 64, 33
1, 1002008, Control_c, 0, 64, 0
1, 1002008, Control_c, 0, 67, 32
1, 1002022, Control_c, 0, 67, 33
1, 1002037, Control_c, 0, 67, 35
1, 1002043, Note_on_c, 0, 50, 35
1, 1002052, Control_c, 0, 67, 37
1, 1002067, Control_c, 0, 67, 39
1, 1002080, Note_off_c, 0, 52, 34
1, 1002081, Control_c, 0, 67, 41
1, 1002096, Control_c, 0, 67, 43
1, 1002111, Control_c, 0, 67, 47
1, 1002124, Note_on_c, 0, 77, 70
1, 1002126, Control_c, 0, 67, 52
1, 1002141, Control_c, 0, 67, 61
1, 1002155, Control_c, 0, 67, 69
1, 1002170, Control_c, 0, 67, 80
1, 1002185, Control_c, 0, 67, 90
1, 1002198, Note_off_c, 0, 76, 64
1, 1002200, Control_c, 0, 67, 98
1, 1002215, Control_c, 0, 64, 55
1, 1002215, Control_c, 0, 67, 104
1, 1002229, Control_c, 0, 64, 65
1, 1002229, Control_c, 0, 67, 109
1, 1002244, Control_c, 0, 64, 68
1, 1002244, Control_c, 0, 67, 112
1, 1002259, Control_c, 0, 64, 71
1, 1002259, Control_c, 0, 67, 115
1, 1002273, Control_c, 0, 64, 76
1, 1002273, Control_c, 0, 67, 119
1, 1002288, Control_c, 0, 64, 82
1, 1002288, Control_c, 0, 67, 122
1, 1002303, Control_c, 0, 64, 86
1, 1002303, Control_c, 0, 67, 125
1, 1002309, Note_on_c, 0, 53, 43
1, 1002318, Control_c, 0, 64, 89
1, 1002318, Control_c, 0, 67, 127
1, 1002325, Note_off_c, 0, 50, 39
1, 1002333, Control_c, 0, 64, 92
1, 1002333, Control_c, 0, 67, 127
1, 1002347, Control_c, 0, 64, 94
1, 1002362, Control_c, 0, 64, 95
1, 1002377, Control_c, 0, 64, 95
1, 1002414, Note_off_c, 0, 53, 37
1, 1002417, Note_on_c, 0, 59, 41
1, 1002536, Note_on_c, 0, 53, 41
1, 1002585, Control_c, 0, 64, 95
1, 1002603, Note_off_c, 0, 59, 34
1, 1002607, Control_c, 0, 64, 93
1, 1002621, Control_c, 0, 64, 88
1, 1002636, Control_c, 0, 64, 80
1, 1002651, Control_c, 0, 64, 71
1, 1002666, Control_c, 0, 64, 63
1, 1002669, Note_off_c, 0, 53, 45
1, 1002670, Note_on_c, 0, 68, 57
1, 1002672, Note_on_c, 0, 50, 36
1, 1002680, Control_c, 0, 64, 47
1, 1002695, Control_c, 0, 64, 29
1, 1002710, Control_c, 0, 64, 42
1, 1002725, Control_c, 0, 64, 54
1, 1002729, Note_off_c, 0, 77, 63
1, 1002740, Control_c, 0, 64, 61
1, 1002754, Control_c, 0, 64, 66
1, 1002770, Control_c, 0, 64, 72
1, 1002785, Control_c, 0, 64, 81
1, 1002800, Control_c, 0, 64, 86
1, 1002806, Note_off_c, 0, 50, 44
1, 1002812, Note_on_c, 0, 53, 37
1, 1002815, Control_c, 0, 64, 88
1, 1002830, Control_c, 0, 64, 90
1, 1002899, Note_off_c, 0, 53, 59
1, 1002920, Note_off_c, 0, 68, 38
1, 1002940, Note_on_c, 0, 59, 34
1, 1003022, Control_c, 0, 64, 90
1, 1003037, Control_c, 0, 64, 89
1, 1003051, Control_c, 0, 64, 88
1, 1003060, Note_on_c, 0, 53, 34
1, 1003066, Control_c, 0, 64, 88
1, 1003081, Control_c, 0, 64, 87
1, 1003096, Control_c, 0, 64, 86
1, 1003111, Control_c, 0, 64, 86
1, 1003125, Control_c, 0, 64, 85
1, 1003135, Note_off_c, 0, 59, 29
1, 1003140, Control_c, 0, 64, 84
1, 1003146, Note_off_c, 0, 53, 38
1, 1003155, Control_c, 0, 64, 83
1, 1003162, Note_on_c, 0, 50, 37
1, 1003170, Control_c, 0, 64, 82
1, 1003185, Control_c, 0, 64, 81
1, 1003200, Control_c, 0, 64, 81
1, 1003229, Control_c, 0, 64, 80
1, 1003244, Control_c, 0, 64, 80
1, 1003259, Control_c, 0, 64, 79
1, 1003274, Control_c, 0, 64, 78
1, 1003283, Note_on_c, 0, 53, 40
1, 1003288, Control_c, 0, 64, 77
1, 1003303, Control_c, 0, 64, 76
1, 1003318, Control_c, 0, 64, 75
1, 1003333, Control_c, 0, 64, 75
1, 1003355, Control_c, 0, 64, 74
1, 1003370, Control_c, 0, 64, 73
1, 1003385, Control_c, 0, 64, 73
1, 1003400, Control_c, 0, 64, 72
1, 1003408, Note_off_c, 0, 53, 52
1, 1003415, Control_c, 0, 64, 71
1, 1003429, Control_c, 0, 64, 70
1, 1003435, Note_on_c, 0, 77, 54
1, 1003444, Control_c, 0, 64, 69
1, 1003447, Note_on_c, 0, 59, 30
1, 1003459, Control_c, 0, 64, 68
1, 1003474, Control_c, 0, 64, 68
1, 1003489, Control_c, 0, 64, 67
1, 1003503, Control_c, 0, 64, 66
1, 1003518, Control_c, 0, 64, 65
1, 1003533, Control_c, 0, 64, 63
1, 1003548, Control_c, 0, 64, 62
1, 1003557, Note_off_c, 0, 50, 39
1, 1003561, Note_on_c, 0, 53, 36
1, 1003563, Control_c, 0, 64, 59
1, 1003579, Control_c, 0, 64, 55
1, 1003593, Control_c, 0, 64, 49
1, 1003608, Control_c, 0, 64, 38
1, 1003623, Control_c, 0, 64, 18
1, 1003638, Control_c, 0, 64, 0
1, 1003744, Note_on_c, 0, 49, 38
1, 1003750, Note_off_c, 0, 53, 57
1, 1003756, Note_off_c, 0, 59, 28
1, 1003801, Note_on_c, 0, 76, 49
1, 1003838, Note_off_c, 0, 77, 56
1, 1003918, Control_c, 0, 64, 38
1, 1003933, Control_c, 0, 64, 59
1, 1003948, Control_c, 0, 64, 64
1, 1003963, Control_c, 0, 64, 66
1, 1003978, Control_c, 0, 64, 69
1, 1003987, Note_on_c, 0, 52, 34
1, 1003993, Control_c, 0, 64, 72
1, 1004008, Control_c, 0, 64, 76
1, 1004023, Control_c, 0, 64, 79
1, 1004037, Control_c, 0, 64, 81
1, 1004041, Note_off_c, 0, 49, 35
1, 1004052, Control_c, 0, 64, 82
1, 1004062, Note_off_c, 0, 52, 58
1, 1004067, Control_c, 0, 64, 84
1, 1004082, Control_c, 0, 64, 85
1, 1004105, Control_c, 0, 64, 86
1, 1004107, Note_on_c, 0, 57, 40
1, 1004119, Control_c, 0, 64, 86
1, 1004134, Control_c, 0, 64, 87
1, 1004224, Note_on_c, 0, 52, 41
1, 1004298, Note_off_c, 0, 52, 60
1, 1004321, Note_on_c, 0, 49, 46
1, 1004330, Note_off_c, 0, 57, 23
1, 1004357, Control_c, 0, 64, 86
1, 1004359, Note_on_c, 0, 69, 47
1, 1004372, Control_c, 0, 64, 82
1, 1004387, Control_c, 0, 64, 72
1, 1004402, Control_c, 0, 64, 61
1, 1004407, Note_off_c, 0, 76, 38
1, 1004416, Control_c, 0, 64, 42
1, 1004431, Control_c, 0, 64, 42
1, 1004446, Control_c, 0, 64, 52
1, 1004449, Note_on_c, 0, 52, 43
1, 1004461, Control_c, 0, 64, 57
1, 1004476, Control_c, 0, 64, 61
1, 1004491, Control_c, 0, 64, 65
1, 1004506, Control_c, 0, 64, 68
1, 1004509, Note_off_c, 0, 49, 37
1, 1004520, Control_c, 0, 64, 72
1, 1004529, Note_off_c, 0, 52, 60
1, 1004535, Control_c, 0, 64, 73
1, 1004559, Note_on_c, 0, 57, 42
1, 1004580, Control_c, 0, 64, 74
1, 1004681, Note_on_c, 0, 52, 39
1, 1004721, Note_off_c, 0, 52, 57
1, 1004735, Note_off_c, 0, 57, 28
1, 1004760, Note_on_c, 0, 49, 44
1, 1004816, Control_c, 0, 64, 74
1, 1004866, Note_on_c, 0, 52, 39
1, 1004928, Control_c, 0, 64, 75
1, 1004942, Control_c, 0, 64, 74
1, 1004957, Control_c, 0, 64, 68
1, 1004961, Note_off_c, 0, 52, 64
1, 1004972, Control_c, 0, 64, 61
1, 1004987, Control_c, 0, 64, 49
1, 1004997, Note_on_c, 0, 76, 62
1, 1004998, Note_on_c, 0, 57, 45
1, 1005001, Control_c, 0, 64, 53
1, 1005016, Note_off_c, 0, 69, 38
1, 1005016, Control_c, 0, 64, 60
1, 1005031, Control_c, 0, 64, 63
1, 1005046, Control_c, 0, 64, 66
1, 1005061, Control_c, 0, 64, 71
1, 1005064, Note_off_c, 0, 49, 28
1, 1005075, Control_c, 0, 64, 77
1, 1005090, Control_c, 0, 64, 79
1, 1005120, Note_on_c, 0, 52, 46
1, 1005135, Control_c, 0, 64, 79
1, 1005172, Note_off_c, 0, 76, 59
1, 1005254, Control_c, 0, 64, 79
1, 1005264, Note_on_c, 0, 47, 50
1, 1005269, Control_c, 0, 64, 72
1, 1005284, Note_off_c, 0, 57, 24
1, 1005284, Control_c, 0, 64, 63
1, 1005287, Note_on_c, 0, 76, 63
1, 1005298, Control_c, 0, 64, 34
1, 1005313, Control_c, 0, 64, 0
1, 1005314, Note_off_c, 0, 52, 36
1, 1005358, Control_c, 0, 64, 43
1, 1005373, Control_c, 0, 64, 61
1, 1005388, Control_c, 0, 64, 67
1, 1005403, Control_c, 0, 64, 73
1, 1005418, Control_c, 0, 64, 80
1, 1005433, Control_c, 0, 64, 86
1, 1005447, Control_c, 0, 64, 89
1, 1005456, Note_on_c, 0, 50, 43
1, 1005462, Control_c, 0, 64, 92
1, 1005466, Note_off_c, 0, 76, 62
1, 1005477, Control_c, 0, 64, 94
1, 1005491, Control_c, 0, 64, 95
1, 1005506, Control_c, 0, 64, 97
1, 1005521, Control_c, 0, 64, 99
1, 1005536, Control_c, 0, 64, 102
1, 1005551, Control_c, 0, 64, 106
1, 1005558, Note_off_c, 0, 50, 55
1, 1005565, Control_c, 0, 64, 108
1, 1005573, Note_on_c, 0, 76, 73
1, 1005580, Control_c, 0, 64, 110
1, 1005596, Note_on_c, 0, 56, 42
1, 1005603, Control_c, 0, 64, 113
1, 1005617, Control_c, 0, 64, 115
1, 1005632, Control_c, 0, 64, 119
1, 1005647, Control_c, 0, 64, 127
1, 1005677, Note_off_c, 0, 47, 41
1, 1005711, Note_off_c, 0, 76, 62
1, 1005719, Note_on_c, 0, 50, 46
1, 1005805, Note_on_c, 0, 76, 72
1, 1005808, Note_off_c, 0, 56, 38
1, 1005811, Note_on_c, 0, 47, 51
1, 1005811, Note_off_c, 0, 50, 57
1, 1005930, Note_off_c, 0, 76, 60
1, 1005954, Note_on_c, 0, 50, 50
1, 1006031, Note_off_c, 0, 50, 59
1, 1006047, Note_on_c, 0, 76, 72
1, 1006063, Note_on_c, 0, 56, 49
1, 1006077, Control_c, 0, 67, 126
1, 1006092, Control_c, 0, 67, 123
1, 1006107, Control_c, 0, 67, 120
1, 1006121, Control_c, 0, 67, 118
1, 1006136, Control_c, 0, 67, 117
1, 1006148, Note_off_c, 0, 47, 39
1, 1006151, Control_c, 0, 67, 115
1, 1006166, Control_c, 0, 67, 113
1, 1006178, Note_on_c, 0, 50, 52
1, 1006181, Control_c, 0, 67, 110
1, 1006191, Note_off_c, 0, 76, 60
1, 1006196, Control_c, 0, 67, 108
1, 1006211, Control_c, 0, 67, 106
1, 1006226, Control_c, 0, 67, 104
1, 1006240, Control_c, 0, 67, 102
1, 1006255, Control_c, 0, 67, 100
1, 1006270, Control_c, 0, 67, 97
1, 1006282, Note_off_c, 0, 56, 34
1, 1006285, Control_c, 0, 67, 94
1, 1006290, Note_on_c, 0, 75, 73
1, 1006294, Note_on_c, 0, 47, 51
1, 1006300, Control_c, 0, 67, 91
1, 1006314, Control_c, 0, 67, 88
1, 1006327, Note_off_c, 0, 50, 41
1, 1006329, Control_c, 0, 67, 85
1, 1006351, Control_c, 0, 67, 82
1, 1006366, Control_c, 0, 67, 78
1, 1006381, Control_c, 0, 67, 75
1, 1006395, Control_c, 0, 67, 71
1, 1006410, Control_c, 0, 67, 68
1, 1006425, Control_c, 0, 67, 64
1, 1006440, Control_c, 0, 67, 61
1, 1006449, Note_on_c, 0, 76, 77
1, 1006455, Control_c, 0, 67, 58
1, 1006459, Note_on_c, 0, 50, 50
1, 1006470, Control_c, 0, 67, 55
1, 1006485, Control_c, 0, 67, 52
1, 1006497, Note_off_c, 0, 75, 60
1, 1006500, Control_c, 0, 67, 50
1, 1006514, Control_c, 0, 67, 47
1, 1006529, Control_c, 0, 67, 44
1, 1006544, Control_c, 0, 67, 41
1, 1006559, Control_c, 0, 67, 38
1, 1006574, Control_c, 0, 67, 35
1, 1006589, Control_c, 0, 67, 32
1, 1006603, Note_on_c, 0, 78, 77
1, 1006603, Control_c, 0, 67, 29
1, 1006618, Control_c, 0, 67, 26
1, 1006624, Note_off_c, 0, 50, 59
1, 1006632, Note_on_c, 0, 56, 48
1, 1006633, Control_c, 0, 67, 23
1, 1006634, Note_off_c, 0, 76, 64
1, 1006647, Control_c, 0, 67, 20
1, 1006655, Note_off_c, 0, 47, 39
1, 1006662, Control_c, 0, 67, 16
1, 1006677, Control_c, 0, 67, 11
1, 1006692, Control_c, 0, 67, 0
1, 1006764, Note_on_c, 0, 76, 74
1, 1006772, Note_on_c, 0, 50, 60
1, 1006799, Note_off_c, 0, 78, 62
1, 1006881, Note_off_c, 0, 56, 37
1, 1006944, Note_off_c, 0, 76, 61
1, 1007054, Note_on_c, 0, 46, 49
1, 1007056, Note_on_c, 0, 76, 74
1, 1007063, Control_c, 0, 64, 118
1, 1007078, Control_c, 0, 64, 89
1, 1007092, Note_off_c, 0, 50, 48
1, 1007099, Control_c, 0, 64, 74
1, 1007114, Control_c, 0, 64, 63
1, 1007129, Control_c, 0, 64, 0
1, 1007233, Control_c, 0, 64, 58
1, 1007248, Control_c, 0, 64, 69
1, 1007262, Control_c, 0, 64, 77
1, 1007277, Control_c, 0, 64, 90
1, 1007292, Control_c, 0, 64, 116
1, 1007307, Control_c, 0, 64, 127
1, 1007323, Note_on_c, 0, 50, 46
1, 1007392, Note_off_c, 0, 76, 63
1, 1007531, Note_on_c, 0, 76, 69
1, 1007552, Note_on_c, 0, 55, 48
1, 1007570, Note_off_c, 0, 50, 40
1, 1007677, Note_off_c, 0, 46, 40
1, 1007716, Note_on_c, 0, 50, 43
1, 1007737, Note_off_c, 0, 76, 61
1, 1007883, Note_on_c, 0, 76, 67
1, 1007899, Note_on_c, 0, 46, 43
1, 1007910, Note_off_c, 0, 55, 32
1, 1007913, Note_off_c, 0, 50, 40
1, 1007997, Control_c, 0, 67, 8
1, 1008011, Control_c, 0, 67, 12
1, 1008026, Control_c, 0, 67, 15
1, 1008035, Note_off_c, 0, 76, 62
1, 1008038, Note_on_c, 0, 50, 51
1, 1008041, Control_c, 0, 67, 18
1, 1008056, Control_c, 0, 67, 22
1, 1008071, Control_c, 0, 67, 26
1, 1008086, Control_c, 0, 67, 32
1, 1008101, Control_c, 0, 67, 38
1, 1008115, Control_c, 0, 67, 42
1, 1008130, Control_c, 0, 67, 47
1, 1008133, Note_off_c, 0, 50, 54
1, 1008145, Control_c, 0, 67, 52
1, 1008160, Control_c, 0, 67, 56
1, 1008167, Note_on_c, 0, 55, 45
1, 1008169, Note_on_c, 0, 76, 61
1, 1008175, Control_c, 0, 67, 59
1, 1008190, Control_c, 0, 67, 60
1, 1008205, Control_c, 0, 67, 63
1, 1008219, Control_c, 0, 67, 65
1, 1008234, Control_c, 0, 67, 69
1, 1008249, Control_c, 0, 67, 71
1, 1008260, Note_off_c, 0, 46, 39
1, 1008264, Control_c, 0, 67, 73
1, 1008279, Control_c, 0, 67, 76
1, 1008288, Note_off_c, 0, 76, 61
1, 1008293, Control_c, 0, 67, 78
1, 1008308, Control_c, 0, 67, 80
1, 1008309, Note_on_c, 0, 50, 38
1, 1008323, Control_c, 0, 67, 84
1, 1008338, Control_c, 0, 67, 87
1, 1008353, Control_c, 0, 67, 90
1, 1008363, Note_off_c, 0, 55, 34
1, 1008369, Control_c, 0, 67, 92
1, 1008384, Control_c, 0, 67, 95
1, 1008398, Control_c, 0, 67, 98
1, 1008413, Control_c, 0, 67, 100
1, 1008428, Control_c, 0, 67, 103
1, 1008431, Note_on_c, 0, 76, 57
1, 1008442, Control_c, 0, 67, 106
1, 1008451, Note_on_c, 0, 46, 41
1, 1008457, Control_c, 0, 67, 107
1, 1008464, Note_off_c, 0, 50, 35
1, 1008472, Control_c, 0, 67, 108
1, 1008487, Control_c, 0, 67, 109
1, 1008502, Control_c, 0, 67, 110
1, 1008516, Control_c, 0, 67, 111
1, 1008531, Control_c, 0, 67, 113
1, 1008546, Control_c, 0, 67, 114
1, 1008551, Note_off_c, 0, 76, 60
1, 1008561, Control_c, 0, 67, 115
1, 1008576, Control_c, 0, 67, 117
1, 1008598, Control_c, 0, 67, 119
1, 1008602, Note_on_c, 0, 50, 46
1, 1008613, Control_c, 0, 67, 120
1, 1008628, Control_c, 0, 67, 121
1, 1008642, Control_c, 0, 67, 122
1, 1008657, Control_c, 0, 67, 124
1, 1008672, Control_c, 0, 67, 126
1, 1008677, Note_off_c, 0, 50, 53
1, 1008687, Control_c, 0, 67, 127
1, 1008702, Control_c, 0, 67, 127
1, 1008721, Note_on_c, 0, 76, 56
1, 1008722, Note_on_c, 0, 55, 49
1, 1008799, Note_off_c, 0, 76, 63
1, 1008819, Note_off_c, 0, 46, 13
1, 1008877, Note_on_c, 0, 50, 37
1, 1008938, Note_off_c, 0, 55, 36
1, 1009128, Note_on_c, 0, 76, 61
1, 1009154, Note_off_c, 0, 50, 37
1, 1009185, Note_on_c, 0, 49, 39
1, 1009186, Note_on_c, 0, 55, 34
1, 1009192, Note_on_c, 0, 45, 35
1, 1009221, Control_c, 0, 64, 119
1, 1009236, Control_c, 0, 64, 110
1, 1009251, Control_c, 0, 64, 103
1, 1009265, Control_c, 0, 64, 98
1, 1009280, Control_c, 0, 64, 91
1, 1009295, Control_c, 0, 64, 86
1, 1009310, Control_c, 0, 64, 82
1, 1009325, Control_c, 0, 64, 78
1, 1009347, Control_c, 0, 64, 74
1, 1009361, Control_c, 0, 64, 71
1, 1009376, Control_c, 0, 64, 68
1, 1009391, Control_c, 0, 64, 66
1, 1009406, Control_c, 0, 64, 65
1, 1009421, Control_c, 0, 64, 63
1, 1009430, Note_on_c, 0, 78, 66
1, 1009436, Control_c, 0, 64, 62
1, 1009451, Control_c, 0, 64, 59
1, 1009465, Control_c, 0, 64, 56
1, 1009480, Control_c, 0, 64, 53
1, 1009495, Control_c, 0, 64, 50
1, 1009510, Control_c, 0, 64, 46
1, 1009525, Control_c, 0, 64, 39
1, 1009539, Control_c, 0, 64, 31
1, 1009554, Control_c, 0, 64, 21
1, 1009558, Note_off_c, 0, 76, 52
1, 1009569, Control_c, 0, 64, 0
1, 1009839, Note_on_c, 0, 79, 59
1, 1009950, Note_off_c, 0, 78, 61
1, 1010292, Note_on_c, 0, 78, 51
1, 1010341, Note_off_c, 0, 79, 51
1, 1010602, Note_on_c, 0, 76, 52
1, 1010667, Note_off_c, 0, 78, 54
1, 1010941, Note_on_c, 0, 74, 46
1, 1010959, Note_off_c, 0, 76, 60
1, 1010962, Control_c, 0, 64, 46
1, 1010968, Note_on_c, 0, 50, 37
1, 1010977, Control_c, 0, 64, 62
1, 1010992, Control_c, 0, 64, 66
1, 1011007, Control_c, 0, 64, 71
1, 1011022, Control_c, 0, 64, 78
1, 1011036, Control_c, 0, 64, 88
1, 1011051, Control_c, 0, 64, 101
1, 1011066, Control_c, 0, 64, 127
1, 1011121, Note_off_c, 0, 45, 39
1, 1011147, Note_off_c, 0, 49, 32
1, 1011161, Note_off_c, 0, 55, 41
1, 1011163, Note_off_c, 0, 74, 57
1, 1011503, Note_off_c, 0, 50, 32
1, 1011523, Note_on_c, 0, 74, 40
1, 1011567, Note_on_c, 0, 52, 34
1, 1011588, Note_on_c, 0, 55, 31
1, 1011590, Note_on_c, 0, 45, 31
1, 1011607, Control_c, 0, 64, 99
1, 1011622, Control_c, 0, 64, 85
1, 1011637, Control_c, 0, 64, 74
1, 1011652, Control_c, 0, 64, 65
1, 1011666, Control_c, 0, 64, 57
1, 1011681, Control_c, 0, 64, 41
1, 1011696, Control_c, 0, 64, 25
1, 1011711, Control_c, 0, 64, 10
1, 1011726, Control_c, 0, 64, 0
1, 1011806, Note_on_c, 0, 73, 48
1, 1011826, Note_off_c, 0, 74, 38
1, 1012044, Note_on_c, 0, 76, 38
1, 1012092, Note_off_c, 0, 73, 35
1, 1012321, Note_on_c, 0, 74, 34
1, 1012339, Note_off_c, 0, 76, 34
1, 1013120, Note_on_c, 0, 73, 23
1, 1013171, Note_off_c, 0, 74, 51
1, 1013297, Control_c, 0, 64, 24
1, 1013311, Control_c, 0, 64, 50
1, 1013326, Control_c, 0, 64, 60
1, 1013341, Control_c, 0, 64, 64
1, 1013356, Control_c, 0, 64, 66
1, 1013371, Control_c, 0, 64, 69
1, 1013386, Control_c, 0, 64, 73
1, 1013401, Control_c, 0, 64, 80
1, 1013415, Control_c, 0, 64, 88
1, 1013430, Control_c, 0, 64, 98
1, 1013445, Control_c, 0, 64, 116
1, 1013460, Control_c, 0, 64, 127
1, 1013574, Note_off_c, 0, 55, 40
1, 1013629, Note_off_c, 0, 52, 43
1, 1013661, Note_off_c, 0, 45, 42
1, 1013717, Note_off_c, 0, 73, 34
1, 1014751, Control_c, 0, 64, 112
1, 1014766, Control_c, 0, 64, 100
1, 1014781, Control_c, 0, 64, 91
1, 1014796, Control_c, 0, 64, 83
1, 1014810, Control_c, 0, 64, 74
1, 1014825, Control_c, 0, 64, 66
1, 1014840, Control_c, 0, 64, 59
1, 1014855, Control_c, 0, 64, 41
1, 1014870, Control_c, 0, 64, 0
1, 1015767, Control_c, 0, 64, 18
1, 1015781, Control_c, 0, 64, 35
1, 1015796, Control_c, 0, 64, 43
1, 1015811, Control_c, 0, 64, 47
1, 1015825, Control_c, 0, 64, 50
1, 1015840, Control_c, 0, 64, 53
1, 1015855, Control_c, 0, 64, 56
1, 1015870, Control_c, 0, 64, 59
1, 1015885, Control_c, 0, 64, 62
1, 1015899, Control_c, 0, 64, 63
1, 1015914, Control_c, 0, 64, 63
1, 1015929, Control_c, 0, 64, 64
1, 1015944, Control_c, 0, 64, 66
1, 1015958, Control_c, 0, 64, 68
1, 1015973, Control_c, 0, 64, 70
1, 1015988, Control_c, 0, 64, 74
1, 1016003, Control_c, 0, 64, 77
1, 1016018, Control_c, 0, 64, 80
1, 1016033, Control_c, 0, 64, 83
1, 1016048, Control_c, 0, 64, 87
1, 1016063, Control_c, 0, 64, 93
1, 1016085, Control_c, 0, 64, 102
1, 1016100, Control_c, 0, 64, 116
1, 1016114, Control_c, 0, 64, 127
1, 1016603, Note_on_c, 0, 69, 40
1, 1016610, Note_on_c, 0, 57, 32
1, 1016737, Control_c, 0, 64, 106
1, 1016752, Control_c, 0, 64, 97
1, 1016767, Control_c, 0, 64, 90
1, 1016781, Control_c, 0, 64, 85
1, 1016796, Control_c, 0, 64, 80
1, 1016811, Control_c, 0, 64, 75
1, 1016834, Control_c, 0, 64, 71
1, 1016848, Note_on_c, 0, 71, 50
1, 1016849, Control_c, 0, 64, 66
1, 1016862, Note_on_c, 0, 59, 38
1, 1016863, Control_c, 0, 64, 63
1, 1016878, Control_c, 0, 64, 57
1, 1016885, Note_off_c, 0, 57, 41
1, 1016893, Control_c, 0, 64, 45
1, 1016908, Control_c, 0, 64, 0
1, 1016932, Note_off_c, 0, 69, 42
1, 1017026, Control_c, 0, 64, 22
1, 1017037, Note_off_c, 0, 59, 56
1, 1017041, Control_c, 0, 64, 53
1, 1017045, Note_on_c, 0, 73, 64
1, 1017055, Control_c, 0, 64, 62
1, 1017060, Note_on_c, 0, 61, 44
1, 1017070, Control_c, 0, 64, 67
1, 1017073, Note_off_c, 0, 71, 58
1, 1017085, Control_c, 0, 64, 72
1, 1017100, Control_c, 0, 64, 80
1, 1017115, Control_c, 0, 64, 91
1, 1017130, Control_c, 0, 64, 112
1, 1017145, Control_c, 0, 64, 127
1, 1017163, Note_off_c, 0, 61, 54
1, 1017226, Note_off_c, 0, 73, 28
1, 1017399, Note_on_c, 0, 74, 53
1, 1017413, Note_on_c, 0, 62, 45
1, 1017437, Note_on_c, 0, 50, 37
1, 1017442, Control_c, 0, 64, 111
1, 1017445, Note_on_c, 0, 54, 33
1, 1017457, Control_c, 0, 64, 97
1, 1017471, Control_c, 0, 64, 89
1, 1017472, Note_off_c, 0, 62, 0
1, 1017472, Note_on_c, 0, 62, 16
1, 1017486, Control_c, 0, 64, 83
1, 1017501, Control_c, 0, 64, 76
1, 1017516, Control_c, 0, 64, 70
1, 1017531, Control_c, 0, 64, 64
1, 1017545, Control_c, 0, 64, 56
1, 1017560, Control_c, 0, 64, 38
1, 1017582, Control_c, 0, 64, 0
1, 1017803, Control_c, 0, 64, 35
1, 1017818, Control_c, 0, 64, 52
1, 1017833, Control_c, 0, 64, 60
1, 1017848, Control_c, 0, 64, 64
1, 1017863, Control_c, 0, 64, 67
1, 1017878, Control_c, 0, 64, 70
1, 1017893, Control_c, 0, 64, 74
1, 1017908, Control_c, 0, 64, 78
1, 1017922, Control_c, 0, 64, 84
1, 1017937, Control_c, 0, 64, 95
1, 1017953, Control_c, 0, 64, 127
1, 1017997, Note_off_c, 0, 50, 38
1, 1018059, Note_off_c, 0, 54, 38
1, 1018835, Note_on_c, 0, 73, 44
1, 1018918, Note_off_c, 0, 74, 38
1, 1018933, Note_on_c, 0, 71, 47
1, 1018981, Note_off_c, 0, 62, 35
1, 1019056, Note_on_c, 0, 69, 47
1, 1019058, Control_c, 0, 64, 105
1, 1019058, Note_off_c, 0, 73, 27
1, 1019080, Control_c, 0, 64, 94
1, 1019095, Note_on_c, 0, 57, 32
1, 1019095, Control_c, 0, 64, 86
1, 1019100, Note_on_c, 0, 49, 29
1, 1019104, Note_on_c, 0, 52, 39
1, 1019110, Control_c, 0, 64, 81
1, 1019124, Control_c, 0, 64, 77
1, 1019139, Control_c, 0, 64, 73
1, 1019142, Note_off_c, 0, 71, 34
1, 1019154, Control_c, 0, 64, 69
1, 1019169, Control_c, 0, 64, 65
1, 1019184, Control_c, 0, 64, 61
1, 1019198, Control_c, 0, 64, 56
1, 1019213, Control_c, 0, 64, 50
1, 1019228, Control_c, 0, 64, 40
1, 1019243, Control_c, 0, 64, 0
1, 1019465, Control_c, 0, 64, 43
1, 1019480, Control_c, 0, 64, 58
1, 1019494, Control_c, 0, 64, 63
1, 1019509, Control_c, 0, 64, 65
1, 1019524, Control_c, 0, 64, 68
1, 1019539, Control_c, 0, 64, 71
1, 1019555, Control_c, 0, 64, 75
1, 1019570, Control_c, 0, 64, 79
1, 1019585, Control_c, 0, 64, 84
1, 1019599, Control_c, 0, 64, 89
1, 1019614, Control_c, 0, 64, 95
1, 1019629, Control_c, 0, 64, 102
1, 1019644, Control_c, 0, 64, 108
1, 1019659, Control_c, 0, 64, 113
1, 1019673, Control_c, 0, 64, 116
1, 1019688, Control_c, 0, 64, 118
1, 1019703, Control_c, 0, 64, 121
1, 1019718, Control_c, 0, 64, 125
1, 1019726, Note_off_c, 0, 69, 39
1, 1019733, Control_c, 0, 64, 127
1, 1020036, Control_c, 0, 64, 121
1, 1020051, Control_c, 0, 64, 116
1, 1020066, Control_c, 0, 64, 112
1, 1020081, Control_c, 0, 64, 108
1, 1020082, Note_on_c, 0, 69, 46
1, 1020096, Control_c, 0, 64, 104
1, 1020111, Control_c, 0, 64, 100
1, 1020125, Control_c, 0, 64, 95
1, 1020140, Control_c, 0, 64, 89
1, 1020155, Control_c, 0, 64, 82
1, 1020170, Control_c, 0, 64, 74
1, 1020185, Control_c, 0, 64, 65
1, 1020199, Control_c, 0, 64, 50
1, 1020214, Control_c, 0, 64, 0
1, 1020288, Control_c, 0, 64, 45
1, 1020303, Control_c, 0, 64, 58
1, 1020317, Control_c, 0, 64, 63
1, 1020327, Note_on_c, 0, 71, 56
1, 1020332, Control_c, 0, 64, 66
1, 1020348, Control_c, 0, 64, 69
1, 1020363, Control_c, 0, 64, 73
1, 1020378, Control_c, 0, 64, 80
1, 1020393, Control_c, 0, 64, 89
1, 1020408, Control_c, 0, 64, 99
1, 1020422, Control_c, 0, 64, 110
1, 1020434, Note_off_c, 0, 52, 59
1, 1020437, Control_c, 0, 64, 127
1, 1020446, Note_off_c, 0, 69, 38
1, 1020466, Note_off_c, 0, 49, 39
1, 1020531, Note_on_c, 0, 67, 55
1, 1020531, Note_off_c, 0, 71, 62
1, 1020623, Note_off_c, 0, 57, 41
1, 1020829, Control_c, 0, 64, 119
1, 1020844, Control_c, 0, 64, 107
1, 1020845, Note_on_c, 0, 66, 51
1, 1020859, Control_c, 0, 64, 99
1, 1020874, Note_on_c, 0, 50, 35
1, 1020874, Control_c, 0, 64, 95
1, 1020877, Note_on_c, 0, 54, 37
1, 1020889, Control_c, 0, 64, 92
1, 1020904, Control_c, 0, 64, 88
1, 1020918, Control_c, 0, 64, 84
1, 1020933, Control_c, 0, 64, 80
1, 1020948, Control_c, 0, 64, 77
1, 1020963, Control_c, 0, 64, 74
1, 1020971, Note_off_c, 0, 67, 36
1, 1020978, Control_c, 0, 64, 71
1, 1020993, Control_c, 0, 64, 67
1, 1021008, Control_c, 0, 64, 64
1, 1021022, Control_c, 0, 64, 61
1, 1021037, Control_c, 0, 64, 56
1, 1021052, Control_c, 0, 64, 48
1, 1021067, Control_c, 0, 64, 36
1, 1021082, Control_c, 0, 64, 12
1, 1021096, Control_c, 0, 64, 0
1, 1021243, Note_off_c, 0, 50, 41
1, 1021260, Note_off_c, 0, 54, 52
1, 1021267, Note_on_c, 0, 67, 52
1, 1021276, Note_on_c, 0, 55, 45
1, 1021279, Note_on_c, 0, 52, 38
1, 1021293, Note_off_c, 0, 66, 62
1, 1021390, Note_on_c, 0, 69, 55
1, 1021396, Note_off_c, 0, 55, 59
1, 1021401, Note_off_c, 0, 67, 54
1, 1021403, Note_off_c, 0, 52, 57
1, 1021405, Note_on_c, 0, 57, 34
1, 1021415, Note_on_c, 0, 54, 40
1, 1021475, Control_c, 0, 64, 37
1, 1021490, Control_c, 0, 64, 62
1, 1021505, Control_c, 0, 64, 70
1, 1021519, Control_c, 0, 64, 77
1, 1021534, Control_c, 0, 64, 89
1, 1021549, Control_c, 0, 64, 99
1, 1021564, Control_c, 0, 64, 112
1, 1021578, Control_c, 0, 64, 127
1, 1021619, Note_off_c, 0, 54, 62
1, 1021845, Control_c, 0, 64, 112
1, 1021860, Control_c, 0, 64, 98
1, 1021872, Note_on_c, 0, 71, 62
1, 1021875, Control_c, 0, 64, 89
1, 1021889, Control_c, 0, 64, 80
1, 1021900, Note_on_c, 0, 55, 39
1, 1021904, Control_c, 0, 64, 73
1, 1021914, Note_on_c, 0, 52, 41
1, 1021915, Note_off_c, 0, 57, 35
1, 1021916, Note_on_c, 0, 59, 40
1, 1021919, Control_c, 0, 64, 66
1, 1021935, Control_c, 0, 64, 57
1, 1021941, Note_off_c, 0, 69, 56
1, 1021950, Control_c, 0, 64, 0
1, 1022075, Control_c, 0, 64, 54
1, 1022090, Control_c, 0, 64, 64
1, 1022093, Note_off_c, 0, 59, 62
1, 1022100, Note_on_c, 0, 73, 65
1, 1022105, Control_c, 0, 64, 67
1, 1022111, Note_off_c, 0, 55, 61
1, 1022113, Note_on_c, 0, 61, 43
1, 1022120, Control_c, 0, 64, 70
1, 1022135, Control_c, 0, 64, 75
1, 1022142, Note_off_c, 0, 71, 60
1, 1022150, Note_off_c, 0, 52, 64
1, 1022150, Control_c, 0, 64, 82
1, 1022164, Control_c, 0, 64, 90
1, 1022179, Control_c, 0, 64, 104
1, 1022194, Control_c, 0, 64, 127
1, 1022255, Note_off_c, 0, 61, 35
1, 1022281, Note_off_c, 0, 73, 55
1, 1022451, Note_on_c, 0, 73, 55
1, 1022480, Note_on_c, 0, 61, 40
1, 1022490, Control_c, 0, 64, 105
1, 1022492, Note_on_c, 0, 55, 30
1, 1022505, Control_c, 0, 64, 94
1, 1022513, Note_on_c, 0, 50, 36
1, 1022519, Note_on_c, 0, 52, 34
1, 1022519, Control_c, 0, 64, 86
1, 1022534, Control_c, 0, 64, 77
1, 1022549, Control_c, 0, 64, 69
1, 1022564, Control_c, 0, 64, 59
1, 1022579, Control_c, 0, 64, 0
1, 1022683, Control_c, 0, 64, 40
1, 1022698, Control_c, 0, 64, 61
1, 1022712, Control_c, 0, 64, 67
1, 1022727, Control_c, 0, 64, 71
1, 1022743, Control_c, 0, 64, 75
1, 1022758, Control_c, 0, 64, 81
1, 1022773, Control_c, 0, 64, 91
1, 1022787, Control_c, 0, 64, 103
1, 1022802, Control_c, 0, 64, 127
1, 1022876, Note_off_c, 0, 61, 52
1, 1022909, Note_off_c, 0, 52, 40
1, 1023071, Note_off_c, 0, 55, 36
1, 1023091, Control_c, 0, 64, 87
1, 1023093, Note_on_c, 0, 74, 43
1, 1023097, Note_on_c, 0, 62, 38
1, 1023106, Control_c, 0, 64, 69
1, 1023118, Note_off_c, 0, 73, 58
1, 1023121, Control_c, 0, 64, 54
1, 1023129, Note_on_c, 0, 54, 31
1, 1023135, Control_c, 0, 64, 0
1, 1023150, Control_c, 0, 64, 15
1, 1023165, Control_c, 0, 64, 42
1, 1023180, Control_c, 0, 64, 59
1, 1023195, Control_c, 0, 64, 68
1, 1023209, Control_c, 0, 64, 78
1, 1023224, Control_c, 0, 64, 95
1, 1023238, Note_off_c, 0, 50, 39
1, 1023239, Control_c, 0, 64, 106
1, 1023254, Control_c, 0, 64, 127
1, 1023258, Note_off_c, 0, 54, 53
1, 1023306, Note_off_c, 0, 74, 54
1, 1023345, Note_off_c, 0, 62, 41
1, 1023536, Control_c, 0, 64, 115
1, 1023551, Control_c, 0, 64, 105
1, 1023573, Control_c, 0, 64, 98
1, 1023581, Note_on_c, 0, 74, 56
1, 1023588, Control_c, 0, 64, 94
1, 1023603, Control_c, 0, 64, 90
1, 1023611, Note_on_c, 0, 62, 38
1, 1023618, Control_c, 0, 64, 86
1, 1023633, Control_c, 0, 64, 83
1, 1023647, Control_c, 0, 64, 80
1, 1023662, Control_c, 0, 64, 78
1, 1023677, Control_c, 0, 64, 76
1, 1023692, Control_c, 0, 64, 74
1, 1023707, Control_c, 0, 64, 72
1, 1023721, Control_c, 0, 64, 69
1, 1023736, Control_c, 0, 64, 66
1, 1023736, Control_c, 0, 67, 126
1, 1023751, Control_c, 0, 64, 64
1, 1023751, Control_c, 0, 67, 122
1, 1023765, Control_c, 0, 64, 62
1, 1023765, Control_c, 0, 67, 117
1, 1023780, Control_c, 0, 64, 59
1, 1023780, Control_c, 0, 67, 113
1, 1023795, Control_c, 0, 64, 56
1, 1023795, Control_c, 0, 67, 110
1, 1023810, Control_c, 0, 64, 53
1, 1023810, Control_c, 0, 67, 108
1, 1023825, Control_c, 0, 64, 48
1, 1023825, Control_c, 0, 67, 104
1, 1023840, Control_c, 0, 64, 44
1, 1023840, Control_c, 0, 67, 101
1, 1023855, Control_c, 0, 64, 39
1, 1023855, Control_c, 0, 67, 98
1, 1023870, Control_c, 0, 64, 31
1, 1023870, Control_c, 0, 67, 95
1, 1023884, Control_c, 0, 64, 10
1, 1023884, Control_c, 0, 67, 93
1, 1023893, Note_on_c, 0, 78, 66
1, 1023899, Control_c, 0, 64, 0
1, 1023899, Control_c, 0, 67, 92
1, 1023911, Note_on_c, 0, 66, 40
1, 1023914, Control_c, 0, 67, 90
1, 1023929, Control_c, 0, 67, 88
1, 1023944, Control_c, 0, 67, 86
1, 1023958, Control_c, 0, 67, 84
1, 1023973, Control_c, 0, 67, 82
1, 1023988, Control_c, 0, 67, 79
1, 1023996, Note_off_c, 0, 74, 60
1, 1024003, Control_c, 0, 67, 76
1, 1024016, Note_off_c, 0, 62, 42
1, 1024018, Control_c, 0, 67, 73
1, 1024032, Control_c, 0, 67, 71
1, 1024047, Control_c, 0, 67, 68
1, 1024062, Control_c, 0, 67, 63
1, 1024077, Control_c, 0, 67, 59
1, 1024091, Control_c, 0, 67, 55
1, 1024106, Control_c, 0, 67, 52
1, 1024121, Control_c, 0, 67, 49
1, 1024126, Note_on_c, 0, 81, 74
1, 1024136, Control_c, 0, 67, 46
1, 1024151, Control_c, 0, 67, 41
1, 1024156, Note_on_c, 0, 69, 36
1, 1024165, Control_c, 0, 64, 44
1, 1024165, Control_c, 0, 67, 37
1, 1024180, Control_c, 0, 64, 58
1, 1024180, Control_c, 0, 67, 32
1, 1024190, Note_off_c, 0, 78, 62
1, 1024195, Control_c, 0, 64, 63
1, 1024195, Control_c, 0, 67, 29
1, 1024197, Note_off_c, 0, 66, 36
1, 1024210, Control_c, 0, 64, 66
1, 1024210, Control_c, 0, 67, 26
1, 1024225, Control_c, 0, 64, 71
1, 1024225, Control_c, 0, 67, 24
1, 1024239, Control_c, 0, 64, 80
1, 1024239, Control_c, 0, 67, 22
1, 1024254, Control_c, 0, 64, 95
1, 1024254, Control_c, 0, 67, 19
1, 1024269, Control_c, 0, 64, 127
1, 1024269, Control_c, 0, 67, 16
1, 1024284, Control_c, 0, 67, 13
1, 1024299, Control_c, 0, 67, 9
1, 1024320, Control_c, 0, 67, 0
1, 1024380, Note_off_c, 0, 69, 37
1, 1024627, Note_on_c, 0, 83, 65
1, 1024674, Note_on_c, 0, 71, 42
1, 1024690, Note_on_c, 0, 62, 31
1, 1024696, Note_on_c, 0, 60, 25
1, 1024726, Note_off_c, 0, 81, 60
1, 1024794, Control_c, 0, 64, 110
1, 1024809, Control_c, 0, 64, 97
1, 1024824, Control_c, 0, 64, 86
1, 1024839, Control_c, 0, 64, 76
1, 1024853, Control_c, 0, 64, 67
1, 1024868, Control_c, 0, 64, 50
1, 1024883, Control_c, 0, 64, 0
1, 1025017, Control_c, 0, 64, 18
1, 1025032, Control_c, 0, 64, 53
1, 1025047, Control_c, 0, 64, 61
1, 1025069, Control_c, 0, 64, 64
1, 1025084, Control_c, 0, 64, 66
1, 1025099, Control_c, 0, 64, 68
1, 1025113, Control_c, 0, 64, 71
1, 1025128, Control_c, 0, 64, 74
1, 1025144, Control_c, 0, 64, 75
1, 1025159, Control_c, 0, 64, 75
1, 1025174, Control_c, 0, 64, 76
1, 1025189, Control_c, 0, 64, 77
1, 1025204, Control_c, 0, 64, 78
1, 1025204, Control_c, 0, 67, 9
1, 1025218, Control_c, 0, 64, 80
1, 1025218, Control_c, 0, 67, 13
1, 1025233, Control_c, 0, 64, 81
1, 1025233, Control_c, 0, 67, 16
1, 1025248, Control_c, 0, 64, 83
1, 1025248, Control_c, 0, 67, 20
1, 1025263, Control_c, 0, 64, 85
1, 1025263, Control_c, 0, 67, 26
1, 1025278, Control_c, 0, 64, 87
1, 1025278, Control_c, 0, 67, 32
1, 1025292, Control_c, 0, 64, 90
1, 1025292, Control_c, 0, 67, 38
1, 1025307, Control_c, 0, 64, 92
1, 1025307, Control_c, 0, 67, 44
1, 1025322, Control_c, 0, 64, 95
1, 1025322, Control_c, 0, 67, 48
1, 1025336, Control_c, 0, 64, 98
1, 1025336, Control_c, 0, 67, 50
1, 1025351, Control_c, 0, 64, 101
1, 1025351, Control_c, 0, 67, 52
1, 1025366, Control_c, 0, 64, 103
1, 1025366, Control_c, 0, 67, 54
1, 1025381, Control_c, 0, 64, 105
1, 1025381, Control_c, 0, 67, 56
1, 1025396, Control_c, 0, 64, 106
1, 1025396, Control_c, 0, 67, 58
1, 1025411, Control_c, 0, 64, 107
1, 1025411, Control_c, 0, 67, 61
1, 1025426, Control_c, 0, 64, 107
1, 1025426, Control_c, 0, 67, 67
1, 1025440, Control_c, 0, 67, 72
1, 1025455, Control_c, 0, 67, 76
1, 1025470, Control_c, 0, 67, 81
1, 1025485, Control_c, 0, 67, 84
1, 1025500, Control_c, 0, 67, 87
1, 1025515, Control_c, 0, 67, 91
1, 1025529, Control_c, 0, 67, 95
1, 1025544, Control_c, 0, 67, 97
1, 1025559, Control_c, 0, 67, 99
1, 1025574, Control_c, 0, 67, 101
1, 1025589, Control_c, 0, 67, 102
1, 1025603, Control_c, 0, 67, 105
1, 1025618, Control_c, 0, 67, 107
1, 1025627, Note_on_c, 0, 81, 57
1, 1025633, Control_c, 0, 67, 110
1, 1025648, Control_c, 0, 67, 113
1, 1025649, Note_on_c, 0, 69, 38
1, 1025663, Control_c, 0, 67, 115
1, 1025677, Control_c, 0, 67, 118
1, 1025692, Control_c, 0, 67, 121
1, 1025707, Control_c, 0, 67, 124
1, 1025711, Note_off_c, 0, 83, 53
1, 1025722, Control_c, 0, 67, 127
1, 1025736, Control_c, 0, 67, 127
1, 1025905, Note_on_c, 0, 76, 61
1, 1025921, Note_on_c, 0, 64, 47
1, 1025947, Note_off_c, 0, 81, 57
1, 1025973, Note_off_c, 0, 71, 36
1, 1026029, Note_off_c, 0, 62, 37
1, 1026054, Note_off_c, 0, 69, 42
1, 1026101, Note_on_c, 0, 78, 70
1, 1026105, Note_off_c, 0, 60, 38
1, 1026115, Control_c, 0, 64, 107
1, 1026121, Note_on_c, 0, 66, 53
1, 1026141, Note_off_c, 0, 64, 59
1, 1026192, Note_off_c, 0, 76, 39
1, 1026293, Control_c, 0, 64, 106
1, 1026308, Control_c, 0, 64, 106
1, 1026323, Control_c, 0, 64, 105
1, 1026329, Note_off_c, 0, 66, 37
1, 1026338, Control_c, 0, 64, 104
1, 1026352, Control_c, 0, 64, 102
1, 1026367, Control_c, 0, 64, 99
1, 1026382, Control_c, 0, 64, 96
1, 1026397, Control_c, 0, 64, 93
1, 1026412, Control_c, 0, 64, 90
1, 1026426, Control_c, 0, 64, 87
1, 1026441, Control_c, 0, 64, 83
1, 1026444, Note_on_c, 0, 81, 62
1, 1026456, Control_c, 0, 64, 80
1, 1026471, Control_c, 0, 64, 77
1, 1026475, Note_on_c, 0, 62, 33
1, 1026482, Note_on_c, 0, 59, 29
1, 1026485, Control_c, 0, 64, 73
1, 1026488, Note_on_c, 0, 69, 33
1, 1026500, Control_c, 0, 64, 68
1, 1026515, Control_c, 0, 64, 64
1, 1026522, Note_off_c, 0, 78, 56
1, 1026530, Control_c, 0, 64, 54
1, 1026545, Control_c, 0, 64, 0
1, 1026715, Control_c, 0, 64, 29
1, 1026731, Control_c, 0, 64, 59
1, 1026746, Control_c, 0, 64, 65
1, 1026761, Control_c, 0, 64, 67
1, 1026776, Control_c, 0, 64, 70
1, 1026790, Control_c, 0, 64, 75
1, 1026805, Control_c, 0, 64, 80
1, 1026820, Control_c, 0, 64, 84
1, 1026835, Control_c, 0, 64, 87
1, 1026850, Control_c, 0, 64, 88
1, 1026864, Control_c, 0, 64, 89
1, 1026879, Control_c, 0, 64, 90
1, 1027042, Control_c, 0, 64, 89
1, 1027056, Control_c, 0, 64, 87
1, 1027071, Control_c, 0, 64, 84
1, 1027086, Control_c, 0, 64, 79
1, 1027101, Control_c, 0, 64, 72
1, 1027113, Note_on_c, 0, 79, 41
1, 1027116, Control_c, 0, 64, 65
1, 1027126, Note_off_c, 0, 69, 45
1, 1027131, Control_c, 0, 64, 52
1, 1027146, Control_c, 0, 64, 0
1, 1027146, Note_on_c, 0, 67, 24
1, 1027147, Note_off_c, 0, 81, 45
1, 1027235, Control_c, 0, 64, 35
1, 1027249, Control_c, 0, 64, 62
1, 1027264, Control_c, 0, 64, 71
1, 1027279, Control_c, 0, 64, 80
1, 1027294, Control_c, 0, 64, 88
1, 1027315, Control_c, 0, 64, 96
1, 1027320, Note_off_c, 0, 79, 55
1, 1027330, Note_off_c, 0, 67, 42
1, 1027330, Control_c, 0, 64, 106
1, 1027345, Control_c, 0, 64, 127
1, 1027385, Note_off_c, 0, 62, 41
1, 1027425, Note_off_c, 0, 59, 40
1, 1027569, Control_c, 0, 64, 100
1, 1027584, Control_c, 0, 64, 78
1, 1027599, Control_c, 0, 64, 64
1, 1027613, Control_c, 0, 64, 26
1, 1027628, Control_c, 0, 64, 0
1, 1027866, Note_on_c, 0, 67, 47
1, 1027891, Note_on_c, 0, 55, 26
1, 1027968, Note_off_c, 0, 67, 61
1, 1027995, Note_on_c, 0, 69, 50
1, 1028082, Note_off_c, 0, 69, 59
1, 1028101, Note_on_c, 0, 67, 47
1, 1028126, Note_off_c, 0, 67, 59
1, 1028147, Note_on_c, 0, 66, 58
1, 1028210, Note_off_c, 0, 66, 62
1, 1028225, Note_on_c, 0, 67, 50
1, 1028290, Note_on_c, 0, 54, 50
1, 1028310, Note_on_c, 0, 57, 31
1, 1028311, Note_on_c, 0, 69, 61
1, 1028314, Note_off_c, 0, 55, 40
1, 1028326, Note_off_c, 0, 67, 59
1, 1028343, Note_off_c, 0, 57, 56
1, 1028451, Note_off_c, 0, 54, 62
1, 1028482, Note_on_c, 0, 71, 59
1, 1028485, Note_on_c, 0, 59, 38
1, 1028493, Note_on_c, 0, 47, 50
1, 1028505, Note_on_c, 0, 55, 42
1, 1028506, Note_off_c, 0, 69, 56
1, 1028540, Control_c, 0, 64, 26
1, 1028554, Control_c, 0, 64, 64
1, 1028569, Control_c, 0, 64, 79
1, 1028584, Control_c, 0, 64, 94
1, 1028599, Control_c, 0, 64, 97
1, 1028643, Control_c, 0, 64, 96
1, 1028651, Note_off_c, 0, 71, 55
1, 1028658, Control_c, 0, 64, 89
1, 1028659, Note_off_c, 0, 55, 64
1, 1028668, Note_off_c, 0, 59, 41
1, 1028673, Control_c, 0, 64, 78
1, 1028678, Note_off_c, 0, 47, 58
1, 1028687, Control_c, 0, 64, 65
1, 1028702, Control_c, 0, 64, 51
1, 1028717, Control_c, 0, 64, 0
1, 1029012, Note_on_c, 0, 69, 57
1, 1029020, Note_on_c, 0, 54, 35
1, 1029025, Note_on_c, 0, 57, 28
1, 1029036, Note_on_c, 0, 47, 31
1, 1029065, Control_c, 0, 64, 58
1, 1029080, Control_c, 0, 64, 74
1, 1029095, Control_c, 0, 64, 94
1, 1029110, Control_c, 0, 64, 127
1, 1029184, Control_c, 0, 64, 89
1, 1029199, Control_c, 0, 64, 72
1, 1029204, Note_off_c, 0, 69, 62
1, 1029208, Note_off_c, 0, 54, 48
1, 1029213, Note_off_c, 0, 57, 41
1, 1029214, Control_c, 0, 64, 62
1, 1029223, Note_off_c, 0, 47, 42
1, 1029229, Control_c, 0, 64, 42
1, 1029244, Control_c, 0, 64, 0
1, 1029533, Note_on_c, 0, 66, 51
1, 1029559, Note_on_c, 0, 54, 35
1, 1029568, Note_on_c, 0, 51, 30
1, 1029570, Note_on_c, 0, 47, 34
1, 1029607, Control_c, 0, 64, 51
1, 1029622, Control_c, 0, 64, 64
1, 1029637, Control_c, 0, 64, 70
1, 1029651, Control_c, 0, 64, 79
1, 1029666, Control_c, 0, 64, 90
1, 1029681, Control_c, 0, 64, 112
1, 1029696, Control_c, 0, 64, 127
1, 1029766, Note_off_c, 0, 66, 56
1, 1029770, Control_c, 0, 64, 95
1, 1029775, Note_off_c, 0, 51, 40
1, 1029778, Note_off_c, 0, 47, 43
1, 1029784, Note_off_c, 0, 54, 49
1, 1029784, Control_c, 0, 64, 74
1, 1029799, Control_c, 0, 64, 61
1, 1029814, Control_c, 0, 64, 0
1, 1030232, Note_on_c, 0, 67, 37
1, 1030264, Note_on_c, 0, 52, 35
1, 1030272, Note_on_c, 0, 55, 20
1, 1030489, Control_c, 0, 64, 51
1, 1030504, Control_c, 0, 64, 59
1, 1030519, Control_c, 0, 64, 63
1, 1030533, Control_c, 0, 64, 65
1, 1030548, Control_c, 0, 64, 67
1, 1030563, Control_c, 0, 64, 73
1, 1030578, Control_c, 0, 64, 81
1, 1030593, Control_c, 0, 64, 89
1, 1030607, Control_c, 0, 64, 98
1, 1030622, Control_c, 0, 64, 107
1, 1030637, Control_c, 0, 64, 125
1, 1030651, Control_c, 0, 64, 127
1, 1030745, Note_off_c, 0, 67, 37
1, 1030916, Note_off_c, 0, 52, 42
1, 1030934, Note_off_c, 0, 55, 42
1, 1031074, Control_c, 0, 64, 113
1, 1031089, Control_c, 0, 64, 105
1, 1031104, Control_c, 0, 64, 97
1, 1031119, Control_c, 0, 64, 90
1, 1031134, Control_c, 0, 64, 85
1, 1031149, Control_c, 0, 64, 80
1, 1031164, Control_c, 0, 64, 76
1, 1031179, Control_c, 0, 64, 72
1, 1031194, Control_c, 0, 64, 66
1, 1031209, Control_c, 0, 64, 61
1, 1031223, Control_c, 0, 64, 45
1, 1031238, Control_c, 0, 64, 0
1, 1031290, Note_on_c, 0, 83, 50
1, 1031319, Note_on_c, 0, 71, 37
1, 1031322, Note_on_c, 0, 59, 28
1, 1031327, Control_c, 0, 64, 43
1, 1031342, Control_c, 0, 64, 58
1, 1031350, Note_on_c, 0, 55, 19
1, 1031356, Control_c, 0, 64, 64
1, 1031371, Control_c, 0, 64, 68
1, 1031386, Control_c, 0, 64, 72
1, 1031401, Control_c, 0, 64, 77
1, 1031416, Control_c, 0, 64, 83
1, 1031424, Note_off_c, 0, 83, 59
1, 1031430, Control_c, 0, 64, 89
1, 1031445, Control_c, 0, 64, 94
1, 1031447, Note_off_c, 0, 71, 62
1, 1031460, Control_c, 0, 64, 98
1, 1031474, Control_c, 0, 64, 99
1, 1031489, Control_c, 0, 64, 101
1, 1031504, Control_c, 0, 64, 101
1, 1031520, Control_c, 0, 64, 102
1, 1031550, Control_c, 0, 64, 103
1, 1031609, Control_c, 0, 64, 102
1, 1031624, Control_c, 0, 64, 94
1, 1031631, Note_on_c, 0, 78, 69
1, 1031639, Control_c, 0, 64, 78
1, 1031641, Note_off_c, 0, 55, 43
1, 1031653, Note_on_c, 0, 66, 52
1, 1031653, Control_c, 0, 64, 65
1, 1031656, Note_on_c, 0, 54, 41
1, 1031668, Control_c, 0, 64, 47
1, 1031680, Note_on_c, 0, 50, 38
1, 1031697, Control_c, 0, 64, 58
1, 1031712, Control_c, 0, 64, 64
1, 1031713, Note_off_c, 0, 59, 33
1, 1031727, Control_c, 0, 64, 71
1, 1031742, Control_c, 0, 64, 82
1, 1031757, Control_c, 0, 64, 101
1, 1031772, Control_c, 0, 64, 112
1, 1031784, Note_off_c, 0, 66, 59
1, 1031787, Control_c, 0, 64, 116
1, 1031824, Control_c, 0, 64, 99
1, 1031839, Control_c, 0, 64, 74
1, 1031853, Control_c, 0, 64, 47
1, 1031867, Note_on_c, 0, 79, 70
1, 1031868, Control_c, 0, 64, 0
1, 1031882, Note_off_c, 0, 54, 55
1, 1031885, Note_on_c, 0, 55, 44
1, 1031891, Note_off_c, 0, 50, 41
1, 1031892, Note_on_c, 0, 67, 60
1, 1031896, Note_on_c, 0, 52, 48
1, 1031897, Control_c, 0, 64, 53
1, 1031912, Control_c, 0, 64, 66
1, 1031927, Control_c, 0, 64, 78
1, 1031942, Control_c, 0, 64, 95
1, 1031949, Note_off_c, 0, 55, 63
1, 1031952, Note_off_c, 0, 67, 60
1, 1031953, Note_off_c, 0, 78, 34
1, 1031957, Control_c, 0, 64, 104
1, 1031972, Control_c, 0, 64, 105
1, 1031987, Control_c, 0, 64, 106
1, 1031990, Note_off_c, 0, 52, 64
1, 1032076, Control_c, 0, 64, 105
1, 1032091, Control_c, 0, 64, 103
1, 1032105, Control_c, 0, 64, 94
1, 1032120, Control_c, 0, 64, 81
1, 1032135, Control_c, 0, 64, 66
1, 1032145, Note_on_c, 0, 81, 68
1, 1032150, Control_c, 0, 64, 38
1, 1032150, Note_off_c, 0, 79, 58
1, 1032159, Note_on_c, 0, 69, 46
1, 1032165, Control_c, 0, 64, 0
1, 1032186, Note_on_c, 0, 45, 44
1, 1032192, Note_on_c, 0, 54, 43
1, 1032195, Note_on_c, 0, 57, 36
1, 1032283, Control_c, 0, 64, 29
1, 1032297, Control_c, 0, 64, 58
1, 1032312, Control_c, 0, 64, 63
1, 1032320, Note_off_c, 0, 57, 54
1, 1032328, Control_c, 0, 64, 66
1, 1032331, Note_off_c, 0, 69, 60
1, 1032332, Note_off_c, 0, 81, 61
1, 1032343, Note_off_c, 0, 54, 62
1, 1032343, Control_c, 0, 64, 69
1, 1032358, Control_c, 0, 64, 72
1, 1032373, Control_c, 0, 64, 73
1, 1032380, Note_off_c, 0, 45, 47
1, 1032432, Control_c, 0, 64, 71
1, 1032446, Control_c, 0, 64, 67
1, 1032461, Control_c, 0, 64, 63
1, 1032476, Control_c, 0, 64, 53
1, 1032491, Control_c, 0, 64, 25
1, 1032506, Control_c, 0, 64, 0
1, 1032672, Note_on_c, 0, 79, 56
1, 1032687, Note_on_c, 0, 67, 41
1, 1032695, Note_on_c, 0, 52, 42
1, 1032702, Note_on_c, 0, 55, 27
1, 1032714, Note_on_c, 0, 45, 32
1, 1032721, Control_c, 0, 64, 43
1, 1032735, Control_c, 0, 64, 65
1, 1032750, Control_c, 0, 64, 74
1, 1032765, Control_c, 0, 64, 86
1, 1032780, Control_c, 0, 64, 101
1, 1032795, Control_c, 0, 64, 127
1, 1032836, Note_off_c, 0, 79, 60
1, 1032853, Note_off_c, 0, 55, 49
1, 1032853, Note_off_c, 0, 67, 57
1, 1032878, Note_off_c, 0, 52, 62
1, 1032889, Note_off_c, 0, 45, 48
1, 1032899, Control_c, 0, 64, 110
1, 1032914, Control_c, 0, 64, 73
1, 1032928, Control_c, 0, 64, 57
1, 1032943, Control_c, 0, 64, 0
1, 1033238, Note_on_c, 0, 76, 47
1, 1033262, Note_on_c, 0, 52, 33
1, 1033264, Note_on_c, 0, 49, 31
1, 1033265, Note_on_c, 0, 64, 37
1, 1033274, Note_on_c, 0, 45, 28
1, 1033337, Control_c, 0, 64, 36
1, 1033351, Control_c, 0, 64, 62
1, 1033366, Control_c, 0, 64, 68
1, 1033381, Control_c, 0, 64, 78
1, 1033396, Control_c, 0, 64, 86
1, 1033409, Note_off_c, 0, 64, 56
1, 1033411, Control_c, 0, 64, 95
1, 1033422, Note_off_c, 0, 45, 51
1, 1033425, Control_c, 0, 64, 105
1, 1033426, Note_off_c, 0, 52, 57
1, 1033440, Control_c, 0, 64, 118
1, 1033455, Control_c, 0, 64, 127
1, 1033467, Note_off_c, 0, 49, 51
1, 1033500, Note_off_c, 0, 76, 56
1, 1033529, Control_c, 0, 67, 119
1, 1033544, Control_c, 0, 67, 108
1, 1033558, Control_c, 0, 67, 97
1, 1033573, Control_c, 0, 67, 89
1, 1033588, Control_c, 0, 67, 80
1, 1033603, Control_c, 0, 67, 70
1, 1033618, Control_c, 0, 67, 61
1, 1033632, Control_c, 0, 64, 119
1, 1033632, Control_c, 0, 67, 52
1, 1033647, Control_c, 0, 64, 112
1, 1033647, Control_c, 0, 67, 43
1, 1033662, Control_c, 0, 64, 105
1, 1033662, Control_c, 0, 67, 36
1, 1033677, Control_c, 0, 64, 97
1, 1033677, Control_c, 0, 67, 30
1, 1033692, Control_c, 0, 64, 90
1, 1033692, Control_c, 0, 67, 26
1, 1033706, Control_c, 0, 64, 83
1, 1033706, Control_c, 0, 67, 22
1, 1033721, Control_c, 0, 64, 78
1, 1033721, Control_c, 0, 67, 16
1, 1033736, Control_c, 0, 64, 74
1, 1033736, Control_c, 0, 67, 10
1, 1033751, Control_c, 0, 64, 69
1, 1033751, Control_c, 0, 67, 0
1, 1033766, Control_c, 0, 64, 62
1, 1033781, Control_c, 0, 64, 49
1, 1033795, Control_c, 0, 64, 0
1, 1034004, Control_c, 0, 64, 15
1, 1034019, Control_c, 0, 64, 20
1, 1034034, Control_c, 0, 64, 23
1, 1034055, Control_c, 0, 64, 23
1, 1034058, Note_on_c, 0, 86, 73
1, 1034070, Control_c, 0, 64, 24
1, 1034085, Control_c, 0, 64, 28
1, 1034091, Note_on_c, 0, 74, 43
1, 1034100, Control_c, 0, 64, 30
1, 1034115, Control_c, 0, 64, 33
1, 1034130, Control_c, 0, 64, 37
1, 1034134, Note_on_c, 0, 54, 33
1, 1034137, Note_on_c, 0, 62, 38
1, 1034140, Note_on_c, 0, 50, 33
1, 1034145, Control_c, 0, 64, 41
1, 1034160, Control_c, 0, 64, 49
1, 1034174, Control_c, 0, 64, 54
1, 1034189, Control_c, 0, 64, 57
1, 1034204, Control_c, 0, 64, 59
1, 1034218, Control_c, 0, 64, 61
1, 1034233, Control_c, 0, 64, 62
1, 1034248, Control_c, 0, 64, 64
1, 1034263, Control_c, 0, 64, 67
1, 1034278, Control_c, 0, 64, 70
1, 1034292, Control_c, 0, 64, 74
1, 1034307, Control_c, 0, 64, 76
1, 1034322, Control_c, 0, 64, 81
1, 1034337, Control_c, 0, 64, 88
1, 1034352, Control_c, 0, 64, 97
1, 1034367, Control_c, 0, 64, 106
1, 1034381, Control_c, 0, 64, 118
1, 1034396, Control_c, 0, 64, 127
1, 1034714, Note_off_c, 0, 62, 41
1, 1034717, Note_off_c, 0, 74, 57
1, 1035012, Control_c, 0, 64, 99
1, 1035015, Note_off_c, 0, 54, 40
1, 1035015, Note_off_c, 0, 86, 59
1, 1035024, Note_on_c, 0, 85, 59
1, 1035027, Control_c, 0, 64, 75
1, 1035042, Control_c, 0, 64, 64
1, 1035045, Note_on_c, 0, 73, 43
1, 1035051, Note_on_c, 0, 52, 40
1, 1035054, Note_on_c, 0, 61, 39
1, 1035057, Control_c, 0, 64, 55
1, 1035072, Control_c, 0, 64, 57
1, 1035087, Control_c, 0, 64, 61
1, 1035102, Control_c, 0, 64, 65
1, 1035116, Control_c, 0, 64, 69
1, 1035131, Control_c, 0, 64, 76
1, 1035137, Note_off_c, 0, 73, 56
1, 1035146, Control_c, 0, 64, 84
1, 1035161, Control_c, 0, 64, 90
1, 1035176, Control_c, 0, 64, 91
1, 1035184, Note_off_c, 0, 61, 60
1, 1035205, Control_c, 0, 64, 84
1, 1035220, Control_c, 0, 64, 72
1, 1035235, Control_c, 0, 64, 63
1, 1035249, Control_c, 0, 64, 54
1, 1035260, Note_off_c, 0, 52, 41
1, 1035264, Control_c, 0, 64, 56
1, 1035268, Note_off_c, 0, 85, 54
1, 1035275, Note_on_c, 0, 86, 69
1, 1035279, Control_c, 0, 64, 61
1, 1035292, Note_on_c, 0, 74, 56
1, 1035294, Control_c, 0, 64, 64
1, 1035299, Note_on_c, 0, 62, 45
1, 1035309, Note_on_c, 0, 54, 39
1, 1035309, Control_c, 0, 64, 67
1, 1035323, Control_c, 0, 64, 70
1, 1035338, Control_c, 0, 64, 75
1, 1035345, Note_off_c, 0, 62, 58
1, 1035353, Control_c, 0, 64, 78
1, 1035359, Note_off_c, 0, 50, 19
1, 1035367, Note_off_c, 0, 74, 62
1, 1035368, Control_c, 0, 64, 79
1, 1035383, Control_c, 0, 64, 80
1, 1035469, Note_off_c, 0, 86, 53
1, 1035471, Control_c, 0, 64, 78
1, 1035486, Control_c, 0, 64, 67
1, 1035488, Note_on_c, 0, 83, 69
1, 1035501, Control_c, 0, 64, 41
1, 1035504, Note_off_c, 0, 54, 33
1, 1035510, Note_on_c, 0, 71, 56
1, 1035517, Control_c, 0, 64, 0
1, 1035519, Note_on_c, 0, 55, 43
1, 1035520, Note_on_c, 0, 59, 42
1, 1035570, Note_off_c, 0, 55, 63
1, 1035584, Control_c, 0, 64, 61
1, 1035599, Control_c, 0, 64, 70
1, 1035614, Control_c, 0, 64, 78
1, 1035628, Control_c, 0, 64, 82
1, 1035631, Note_off_c, 0, 71, 61
1, 1035643, Control_c, 0, 64, 82
1, 1035649, Note_off_c, 0, 59, 47
1, 1035702, Control_c, 0, 64, 82
1, 1035717, Control_c, 0, 64, 78
1, 1035732, Control_c, 0, 64, 72
1, 1035746, Control_c, 0, 64, 64
1, 1035761, Control_c, 0, 64, 41
1, 1035775, Note_on_c, 0, 81, 66
1, 1035776, Control_c, 0, 64, 0
1, 1035796, Note_off_c, 0, 83, 57
1, 1035805, Note_on_c, 0, 57, 44
1, 1035805, Note_on_c, 0, 69, 48
1, 1035807, Note_on_c, 0, 54, 41
1, 1035819, Note_on_c, 0, 45, 28
1, 1035894, Control_c, 0, 64, 56
1, 1035906, Note_off_c, 0, 69, 61
1, 1035909, Control_c, 0, 64, 65
1, 1035924, Control_c, 0, 64, 68
1, 1035933, Note_off_c, 0, 81, 62
1, 1035934, Note_off_c, 0, 57, 52
1, 1035939, Control_c, 0, 64, 71
1, 1035954, Control_c, 0, 64, 75
1, 1035956, Note_off_c, 0, 54, 62
1, 1035969, Control_c, 0, 64, 79
1, 1035984, Control_c, 0, 64, 80
1, 1036011, Note_off_c, 0, 45, 41
1, 1036043, Control_c, 0, 64, 78
1, 1036058, Control_c, 0, 64, 72
1, 1036072, Control_c, 0, 64, 65
1, 1036087, Control_c, 0, 64, 56
1, 1036102, Control_c, 0, 64, 0
1, 1036268, Note_on_c, 0, 79, 74
1, 1036298, Note_on_c, 0, 67, 56
1, 1036301, Note_on_c, 0, 55, 35
1, 1036303, Note_on_c, 0, 52, 46
1, 1036312, Note_on_c, 0, 45, 39
1, 1036347, Control_c, 0, 64, 46
1, 1036362, Control_c, 0, 64, 65
1, 1036376, Control_c, 0, 64, 75
1, 1036391, Control_c, 0, 64, 92
1, 1036406, Control_c, 0, 64, 127
1, 1036457, Note_off_c, 0, 55, 38
1, 1036466, Note_off_c, 0, 79, 59
1, 1036487, Note_off_c, 0, 52, 61
1, 1036506, Note_off_c, 0, 67, 37
1, 1036512, Note_off_c, 0, 45, 40
1, 1036598, Control_c, 0, 64, 97
1, 1036613, Control_c, 0, 64, 69
1, 1036628, Control_c, 0, 64, 0
1, 1036830, Note_on_c, 0, 76, 80
1, 1036851, Note_on_c, 0, 64, 67
1, 1036862, Note_on_c, 0, 49, 42
1, 1036863, Note_on_c, 0, 52, 46
1, 1036869, Note_on_c, 0, 45, 45
1, 1036924, Control_c, 0, 64, 59
1, 1036939, Control_c, 0, 64, 70
1, 1036954, Control_c, 0, 64, 85
1, 1036968, Control_c, 0, 64, 127
1, 1036969, Note_off_c, 0, 64, 62
1, 1036996, Note_off_c, 0, 52, 65
1, 1037004, Note_off_c, 0, 45, 63
1, 1037051, Note_off_c, 0, 49, 60
1, 1037077, Note_off_c, 0, 76, 62
1, 1037391, Control_c, 0, 64, 98
1, 1037406, Control_c, 0, 64, 80
1, 1037421, Control_c, 0, 64, 69
1, 1037436, Control_c, 0, 64, 59
1, 1037451, Control_c, 0, 64, 0
1, 1037673, Note_on_c, 0, 90, 90
1, 1037673, Control_c, 0, 64, 8
1, 1037688, Control_c, 0, 64, 18
1, 1037693, Note_on_c, 0, 78, 72
1, 1037703, Control_c, 0, 64, 22
1, 1037717, Control_c, 0, 64, 23
1, 1037719, Note_on_c, 0, 66, 58
1, 1037723, Note_on_c, 0, 57, 51
1, 1037731, Note_on_c, 0, 50, 52
1, 1037732, Control_c, 0, 64, 25
1, 1037747, Control_c, 0, 64, 31
1, 1037761, Control_c, 0, 64, 38
1, 1037776, Control_c, 0, 64, 44
1, 1037798, Control_c, 0, 64, 49
1, 1037813, Control_c, 0, 64, 56
1, 1037828, Control_c, 0, 64, 63
1, 1037842, Control_c, 0, 64, 70
1, 1037857, Control_c, 0, 64, 81
1, 1037872, Control_c, 0, 64, 100
1, 1037887, Control_c, 0, 64, 127
1, 1038127, Note_off_c, 0, 50, 32
1, 1038357, Note_off_c, 0, 57, 41
1, 1038378, Note_off_c, 0, 78, 62
1, 1038378, Note_off_c, 0, 90, 53
1, 1038504, Note_off_c, 0, 66, 38
1, 1038753, Note_on_c, 0, 88, 75
1, 1038770, Control_c, 0, 64, 96
1, 1038774, Note_on_c, 0, 76, 62
1, 1038785, Control_c, 0, 64, 72
1, 1038790, Note_on_c, 0, 58, 41
1, 1038792, Note_on_c, 0, 64, 40
1, 1038798, Note_on_c, 0, 54, 37
1, 1038800, Control_c, 0, 64, 57
1, 1038814, Control_c, 0, 64, 0
1, 1038859, Control_c, 0, 64, 39
1, 1038874, Control_c, 0, 64, 57
1, 1038888, Control_c, 0, 64, 65
1, 1038903, Control_c, 0, 64, 71
1, 1038918, Control_c, 0, 64, 76
1, 1038933, Control_c, 0, 64, 80
1, 1038948, Control_c, 0, 64, 81
1, 1038951, Note_off_c, 0, 76, 63
1, 1038962, Control_c, 0, 64, 84
1, 1038977, Control_c, 0, 64, 87
1, 1038991, Note_off_c, 0, 54, 53
1, 1038992, Control_c, 0, 64, 89
1, 1038995, Note_off_c, 0, 64, 35
1, 1039007, Control_c, 0, 64, 91
1, 1039021, Control_c, 0, 64, 95
1, 1039034, Note_off_c, 0, 58, 34
1, 1039036, Control_c, 0, 64, 95
1, 1039051, Control_c, 0, 64, 94
1, 1039066, Control_c, 0, 64, 80
1, 1039081, Control_c, 0, 64, 66
1, 1039086, Note_off_c, 0, 88, 63
1, 1039094, Note_on_c, 0, 86, 68
1, 1039096, Control_c, 0, 64, 49
1, 1039111, Control_c, 0, 64, 47
1, 1039118, Note_on_c, 0, 62, 45
1, 1039120, Note_on_c, 0, 74, 51
1, 1039126, Control_c, 0, 64, 59
1, 1039129, Note_on_c, 0, 55, 45
1, 1039141, Control_c, 0, 64, 64
1, 1039147, Note_on_c, 0, 59, 25
1, 1039156, Control_c, 0, 64, 69
1, 1039170, Control_c, 0, 64, 76
1, 1039185, Control_c, 0, 64, 83
1, 1039200, Control_c, 0, 64, 86
1, 1039219, Note_off_c, 0, 74, 54
1, 1039229, Control_c, 0, 64, 86
1, 1039256, Note_off_c, 0, 62, 35
1, 1039326, Control_c, 0, 64, 81
1, 1039329, Note_off_c, 0, 59, 42
1, 1039340, Control_c, 0, 64, 69
1, 1039350, Note_off_c, 0, 55, 63
1, 1039355, Control_c, 0, 64, 51
1, 1039360, Note_off_c, 0, 86, 59
1, 1039370, Note_on_c, 0, 83, 67
1, 1039370, Control_c, 0, 64, 0
1, 1039396, Note_on_c, 0, 56, 39
1, 1039396, Note_on_c, 0, 71, 48
1, 1039405, Note_on_c, 0, 62, 42
1, 1039409, Note_on_c, 0, 65, 40
1, 1039414, Control_c, 0, 64, 47
1, 1039429, Control_c, 0, 64, 64
1, 1039444, Control_c, 0, 64, 71
1, 1039459, Control_c, 0, 64, 77
1, 1039474, Control_c, 0, 64, 81
1, 1039488, Control_c, 0, 64, 85
1, 1039493, Note_off_c, 0, 65, 57
1, 1039503, Control_c, 0, 64, 89
1, 1039504, Note_off_c, 0, 56, 61
1, 1039519, Control_c, 0, 64, 90
1, 1039524, Note_off_c, 0, 71, 61
1, 1039534, Control_c, 0, 64, 90
1, 1039540, Note_off_c, 0, 83, 57
1, 1039573, Note_off_c, 0, 62, 43
1, 1039623, Control_c, 0, 67, 10
1, 1039637, Control_c, 0, 67, 15
1, 1039652, Control_c, 0, 67, 17
1, 1039667, Control_c, 0, 67, 20
1, 1039682, Control_c, 0, 67, 22
1, 1039697, Control_c, 0, 67, 25
1, 1039711, Control_c, 0, 67, 30
1, 1039726, Control_c, 0, 64, 90
1, 1039726, Control_c, 0, 67, 33
1, 1039741, Control_c, 0, 67, 36
1, 1039756, Control_c, 0, 64, 89
1, 1039756, Control_c, 0, 67, 39
1, 1039771, Control_c, 0, 64, 87
1, 1039771, Control_c, 0, 67, 41
1, 1039785, Control_c, 0, 64, 83
1, 1039785, Control_c, 0, 67, 43
1, 1039792, Note_on_c, 0, 81, 60
1, 1039800, Control_c, 0, 64, 78
1, 1039800, Control_c, 0, 67, 44
1, 1039814, Note_on_c, 0, 69, 46
1, 1039815, Control_c, 0, 64, 71
1, 1039815, Control_c, 0, 67, 45
1, 1039828, Note_on_c, 0, 66, 27
1, 1039830, Control_c, 0, 64, 63
1, 1039830, Control_c, 0, 67, 47
1, 1039832, Note_on_c, 0, 62, 33
1, 1039844, Control_c, 0, 64, 20
1, 1039844, Control_c, 0, 67, 48
1, 1039847, Note_on_c, 0, 57, 31
1, 1039859, Control_c, 0, 64, 0
1, 1039859, Control_c, 0, 67, 49
1, 1039874, Control_c, 0, 67, 50
1, 1039949, Control_c, 0, 67, 50
1, 1039963, Control_c, 0, 64, 49
1, 1039978, Control_c, 0, 64, 64
1, 1039978, Control_c, 0, 67, 51
1, 1039993, Control_c, 0, 64, 66
1, 1039993, Control_c, 0, 67, 51
1, 1040008, Control_c, 0, 64, 68
1, 1040008, Control_c, 0, 67, 53
1, 1040023, Control_c, 0, 64, 72
1, 1040023, Control_c, 0, 67, 56
1, 1040044, Note_off_c, 0, 62, 41
1, 1040044, Control_c, 0, 64, 78
1, 1040044, Control_c, 0, 67, 59
1, 1040059, Control_c, 0, 64, 82
1, 1040059, Control_c, 0, 67, 62
1, 1040066, Note_off_c, 0, 81, 58
1, 1040074, Control_c, 0, 64, 85
1, 1040074, Control_c, 0, 67, 65
1, 1040089, Control_c, 0, 64, 86
1, 1040089, Control_c, 0, 67, 67
1, 1040095, Note_off_c, 0, 66, 53
1, 1040101, Note_off_c, 0, 57, 40
1, 1040104, Control_c, 0, 67, 70
1, 1040118, Control_c, 0, 67, 74
1, 1040133, Control_c, 0, 67, 76
1, 1040134, Note_off_c, 0, 69, 37
1, 1040148, Control_c, 0, 67, 79
1, 1040163, Control_c, 0, 67, 82
1, 1040178, Control_c, 0, 67, 86
1, 1040193, Control_c, 0, 67, 90
1, 1040208, Control_c, 0, 67, 95
1, 1040223, Control_c, 0, 64, 85
1, 1040223, Control_c, 0, 67, 99
1, 1040237, Control_c, 0, 64, 83
1, 1040237, Control_c, 0, 67, 102
1, 1040252, Control_c, 0, 64, 80
1, 1040252, Control_c, 0, 67, 104
1, 1040267, Control_c, 0, 64, 76
1, 1040267, Control_c, 0, 67, 106
1, 1040282, Control_c, 0, 64, 72
1, 1040282, Control_c, 0, 67, 107
1, 1040297, Control_c, 0, 64, 70
1, 1040297, Control_c, 0, 67, 108
1, 1040312, Control_c, 0, 64, 67
1, 1040312, Control_c, 0, 67, 108
1, 1040327, Control_c, 0, 64, 63
1, 1040327, Control_c, 0, 67, 109
1, 1040342, Control_c, 0, 64, 56
1, 1040357, Control_c, 0, 64, 0
1, 1040357, Control_c, 0, 67, 109
1, 1040369, Note_on_c, 0, 79, 57
1, 1040373, Note_on_c, 0, 76, 50
1, 1040384, Note_on_c, 0, 57, 39
1, 1040386, Note_on_c, 0, 67, 35
1, 1040387, Note_on_c, 0, 69, 30
1, 1040394, Note_on_c, 0, 64, 29
1, 1040431, Control_c, 0, 67, 110
1, 1040475, Control_c, 0, 64, 58
1, 1040475, Control_c, 0, 67, 110
1, 1040490, Control_c, 0, 64, 66
1, 1040490, Control_c, 0, 67, 111
1, 1040505, Control_c, 0, 64, 69
1, 1040505, Control_c, 0, 67, 112
1, 1040520, Control_c, 0, 64, 72
1, 1040520, Control_c, 0, 67, 114
1, 1040525, Note_off_c, 0, 67, 37
1, 1040533, Note_off_c, 0, 79, 60
1, 1040534, Control_c, 0, 64, 77
1, 1040534, Control_c, 0, 67, 116
1, 1040542, Note_off_c, 0, 69, 54
1, 1040549, Control_c, 0, 64, 81
1, 1040549, Control_c, 0, 67, 119
1, 1040552, Note_off_c, 0, 76, 64
1, 1040564, Control_c, 0, 64, 83
1, 1040564, Control_c, 0, 67, 121
1, 1040575, Note_off_c, 0, 57, 35
1, 1040578, Control_c, 0, 64, 84
1, 1040578, Control_c, 0, 67, 124
1, 1040593, Control_c, 0, 64, 84
1, 1040593, Control_c, 0, 67, 126
1, 1040598, Note_off_c, 0, 64, 42
1, 1040608, Control_c, 0, 67, 127
1, 1040727, Control_c, 0, 64, 84
1, 1040741, Control_c, 0, 64, 83
1, 1040756, Control_c, 0, 64, 81
1, 1040771, Control_c, 0, 64, 79
1, 1040793, Control_c, 0, 64, 77
1, 1040808, Control_c, 0, 64, 74
1, 1040823, Control_c, 0, 64, 70
1, 1040838, Control_c, 0, 64, 66
1, 1040853, Control_c, 0, 64, 62
1, 1040867, Control_c, 0, 64, 44
1, 1040882, Control_c, 0, 64, 0
1, 1040899, Note_on_c, 0, 76, 44
1, 1040917, Note_on_c, 0, 61, 35
1, 1040919, Note_on_c, 0, 64, 29
1, 1040923, Note_on_c, 0, 57, 33
1, 1040926, Note_on_c, 0, 67, 34
1, 1040934, Note_on_c, 0, 73, 38
1, 1040986, Control_c, 0, 64, 35
1, 1041001, Control_c, 0, 64, 62
1, 1041016, Control_c, 0, 64, 68
1, 1041031, Control_c, 0, 64, 71
1, 1041045, Control_c, 0, 64, 74
1, 1041054, Note_off_c, 0, 67, 49
1, 1041057, Note_off_c, 0, 64, 44
1, 1041060, Control_c, 0, 64, 78
1, 1041063, Note_off_c, 0, 76, 62
1, 1041075, Control_c, 0, 64, 80
1, 1041075, Note_off_c, 0, 73, 54
1, 1041090, Control_c, 0, 64, 81
1, 1041093, Note_off_c, 0, 61, 57
1, 1041099, Note_off_c, 0, 57, 50
1, 1041105, Control_c, 0, 64, 82
1, 1041120, Control_c, 0, 64, 82
1, 1041401, Control_c, 0, 64, 82
1, 1041416, Control_c, 0, 64, 81
1, 1041446, Control_c, 0, 64, 81
1, 1041461, Control_c, 0, 64, 80
1, 1041475, Control_c, 0, 64, 79
1, 1041490, Control_c, 0, 64, 79
1, 1041505, Control_c, 0, 64, 78
1, 1041520, Control_c, 0, 64, 78
1, 1041543, Control_c, 0, 64, 77
1, 1041558, Control_c, 0, 64, 76
1, 1041573, Control_c, 0, 64, 75
1, 1041588, Control_c, 0, 64, 74
1, 1041603, Control_c, 0, 64, 74
1, 1041617, Control_c, 0, 64, 73
1, 1041632, Control_c, 0, 64, 72
1, 1041647, Control_c, 0, 64, 71
1, 1041662, Control_c, 0, 64, 70
1, 1041677, Control_c, 0, 64, 68
1, 1041686, Note_on_c, 0, 74, 38
1, 1041691, Control_c, 0, 64, 67
1, 1041704, Note_on_c, 0, 66, 34
1, 1041706, Control_c, 0, 64, 66
1, 1041719, Note_on_c, 0, 62, 29
1, 1041721, Control_c, 0, 64, 65
1, 1041736, Control_c, 0, 64, 64
1, 1041744, Note_on_c, 0, 50, 27
1, 1041751, Control_c, 0, 64, 61
1, 1041765, Control_c, 0, 64, 54
1, 1041768, Note_on_c, 0, 54, 21
1, 1041780, Control_c, 0, 64, 19
1, 1041795, Control_c, 0, 64, 0
1, 1041974, Control_c, 0, 64, 37
1, 1041988, Control_c, 0, 64, 58
1, 1042003, Control_c, 0, 64, 62
1, 1042018, Control_c, 0, 64, 64
1, 1042032, Control_c, 0, 64, 65
1, 1042047, Control_c, 0, 64, 67
1, 1042062, Control_c, 0, 64, 70
1, 1042077, Control_c, 0, 64, 74
1, 1042092, Control_c, 0, 64, 78
1, 1042107, Control_c, 0, 64, 81
1, 1042122, Control_c, 0, 64, 82
1, 1042136, Control_c, 0, 64, 84
1, 1042151, Control_c, 0, 64, 87
1, 1042166, Control_c, 0, 64, 92
1, 1042181, Control_c, 0, 64, 105
1, 1042196, Control_c, 0, 64, 127
1, 1042439, Note_off_c, 0, 62, 40
1, 1042474, Note_off_c, 0, 66, 45
1, 1042527, Note_off_c, 0, 50, 36
1, 1042572, Note_off_c, 0, 74, 36
1, 1042611, Note_off_c, 0, 54, 39
1, 1042840, Control_c, 0, 64, 106
1, 1042855, Control_c, 0, 64, 95
1, 1042870, Control_c, 0, 64, 86
1, 1042885, Control_c, 0, 64, 77
1, 1042900, Control_c, 0, 64, 69
1, 1042915, Control_c, 0, 64, 61
1, 1042929, Control_c, 0, 64, 19
1, 1042944, Control_c, 0, 64, 0
1, 1043093, Note_on_c, 0, 74, 35
1, 1043428, Note_on_c, 0, 76, 56
1, 1043573, Note_off_c, 0, 74, 47
1, 1043648, Control_c, 0, 67, 125
1, 1043663, Control_c, 0, 67, 123
1, 1043678, Control_c, 0, 67, 122
1, 1043693, Control_c, 0, 67, 120
1, 1043695, Note_on_c, 0, 78, 63
1, 1043707, Control_c, 0, 67, 119
1, 1043722, Control_c, 0, 67, 116
1, 1043737, Control_c, 0, 67, 114
1, 1043752, Control_c, 0, 67, 110
1, 1043767, Control_c, 0, 67, 108
1, 1043789, Note_off_c, 0, 76, 54
1, 1043789, Control_c, 0, 67, 105
1, 1043804, Control_c, 0, 67, 103
1, 1043818, Control_c, 0, 67, 101
1, 1043833, Control_c, 0, 67, 99
1, 1043848, Control_c, 0, 67, 98
1, 1043863, Control_c, 0, 67, 96
1, 1043878, Control_c, 0, 67, 94
1, 1043892, Control_c, 0, 67, 93
1, 1043907, Control_c, 0, 67, 91
1, 1043922, Control_c, 0, 67, 89
1, 1043937, Control_c, 0, 67, 87
1, 1043952, Control_c, 0, 67, 84
1, 1043967, Control_c, 0, 67, 82
1, 1043982, Control_c, 0, 67, 80
1, 1043997, Control_c, 0, 67, 78
1, 1044011, Control_c, 0, 67, 77
1, 1044023, Note_on_c, 0, 73, 52
1, 1044026, Control_c, 0, 67, 75
1, 1044041, Control_c, 0, 67, 74
1, 1044056, Control_c, 0, 67, 72
1, 1044064, Note_on_c, 0, 58, 34
1, 1044065, Note_on_c, 0, 67, 36
1, 1044070, Note_on_c, 0, 64, 29
1, 1044071, Control_c, 0, 67, 70
1, 1044085, Control_c, 0, 67, 69
1, 1044100, Control_c, 0, 67, 67
1, 1044115, Control_c, 0, 67, 65
1, 1044129, Control_c, 0, 67, 63
1, 1044143, Note_off_c, 0, 78, 52
1, 1044144, Control_c, 0, 67, 61
1, 1044159, Control_c, 0, 67, 59
1, 1044174, Control_c, 0, 67, 58
1, 1044189, Control_c, 0, 67, 56
1, 1044203, Control_c, 0, 64, 23
1, 1044203, Control_c, 0, 67, 55
1, 1044218, Control_c, 0, 64, 35
1, 1044218, Control_c, 0, 67, 54
1, 1044233, Control_c, 0, 64, 44
1, 1044233, Control_c, 0, 67, 52
1, 1044248, Control_c, 0, 64, 51
1, 1044248, Control_c, 0, 67, 50
1, 1044263, Control_c, 0, 64, 56
1, 1044263, Control_c, 0, 67, 49
1, 1044277, Control_c, 0, 64, 60
1, 1044277, Control_c, 0, 67, 48
1, 1044292, Control_c, 0, 64, 64
1, 1044292, Control_c, 0, 67, 46
1, 1044308, Control_c, 0, 64, 67
1, 1044308, Control_c, 0, 67, 45
1, 1044323, Control_c, 0, 64, 70
1, 1044323, Control_c, 0, 67, 43
1, 1044338, Control_c, 0, 64, 74
1, 1044338, Control_c, 0, 67, 41
1, 1044353, Control_c, 0, 64, 80
1, 1044353, Control_c, 0, 67, 38
1, 1044368, Control_c, 0, 64, 86
1, 1044368, Control_c, 0, 67, 36
1, 1044382, Control_c, 0, 64, 98
1, 1044382, Control_c, 0, 67, 34
1, 1044397, Control_c, 0, 64, 125
1, 1044397, Control_c, 0, 67, 32
1, 1044412, Control_c, 0, 64, 127
1, 1044412, Control_c, 0, 67, 30
1, 1044426, Control_c, 0, 67, 27
1, 1044441, Control_c, 0, 67, 25
1, 1044456, Control_c, 0, 67, 22
1, 1044471, Control_c, 0, 67, 20
1, 1044486, Control_c, 0, 67, 18
1, 1044500, Control_c, 0, 67, 16
1, 1044515, Control_c, 0, 67, 13
1, 1044538, Control_c, 0, 67, 11
1, 1044552, Control_c, 0, 67, 8
1, 1044567, Control_c, 0, 67, 0
1, 1044587, Note_on_c, 0, 79, 62
1, 1044822, Note_off_c, 0, 73, 45
1, 1044833, Note_off_c, 0, 67, 41
1, 1044968, Note_off_c, 0, 64, 42
1, 1044986, Note_off_c, 0, 58, 42
1, 1045056, Note_on_c, 0, 73, 64
1, 1045231, Note_off_c, 0, 79, 50
1, 1045554, Control_c, 0, 64, 110
1, 1045569, Control_c, 0, 64, 96
1, 1045579, Note_on_c, 0, 78, 70
1, 1045583, Control_c, 0, 64, 87
1, 1045598, Control_c, 0, 64, 79
1, 1045599, Note_on_c, 0, 64, 34
1, 1045612, Note_on_c, 0, 58, 31
1, 1045613, Control_c, 0, 64, 70
1, 1045615, Note_on_c, 0, 66, 30
1, 1045628, Control_c, 0, 64, 59
1, 1045643, Control_c, 0, 64, 23
1, 1045657, Control_c, 0, 64, 0
1, 1045702, Control_c, 0, 64, 35
1, 1045717, Control_c, 0, 64, 53
1, 1045731, Control_c, 0, 64, 61
1, 1045746, Control_c, 0, 64, 65
1, 1045761, Control_c, 0, 64, 69
1, 1045776, Control_c, 0, 64, 73
1, 1045791, Control_c, 0, 64, 77
1, 1045806, Control_c, 0, 64, 82
1, 1045820, Note_off_c, 0, 73, 36
1, 1045821, Control_c, 0, 64, 90
1, 1045836, Control_c, 0, 64, 96
1, 1045850, Control_c, 0, 64, 100
1, 1045865, Control_c, 0, 64, 104
1, 1045880, Control_c, 0, 64, 106
1, 1045895, Control_c, 0, 64, 107
1, 1045908, Note_off_c, 0, 66, 40
1, 1045910, Control_c, 0, 64, 108
1, 1045940, Control_c, 0, 67, 10
1, 1045955, Control_c, 0, 67, 12
1, 1045970, Control_c, 0, 67, 15
1, 1045985, Control_c, 0, 67, 17
1, 1045999, Control_c, 0, 67, 19
1, 1046014, Control_c, 0, 67, 21
1, 1046027, Note_off_c, 0, 64, 43
1, 1046036, Control_c, 0, 67, 24
1, 1046051, Control_c, 0, 67, 26
1, 1046066, Control_c, 0, 67, 29
1, 1046080, Control_c, 0, 64, 107
1, 1046080, Control_c, 0, 67, 34
1, 1046092, Note_off_c, 0, 58, 38
1, 1046095, Control_c, 0, 64, 102
1, 1046095, Control_c, 0, 67, 36
1, 1046110, Control_c, 0, 64, 90
1, 1046110, Control_c, 0, 67, 37
1, 1046117, Note_on_c, 0, 76, 66
1, 1046125, Control_c, 0, 64, 77
1, 1046125, Control_c, 0, 67, 37
1, 1046140, Control_c, 0, 64, 66
1, 1046140, Control_c, 0, 67, 38
1, 1046152, Note_on_c, 0, 62, 41
1, 1046155, Control_c, 0, 64, 52
1, 1046155, Control_c, 0, 67, 38
1, 1046157, Note_on_c, 0, 66, 29
1, 1046170, Control_c, 0, 64, 26
1, 1046170, Control_c, 0, 67, 39
1, 1046173, Note_on_c, 0, 59, 23
1, 1046185, Control_c, 0, 64, 27
1, 1046199, Control_c, 0, 64, 42
1, 1046199, Control_c, 0, 67, 40
1, 1046214, Control_c, 0, 64, 53
1, 1046214, Control_c, 0, 67, 41
1, 1046229, Control_c, 0, 64, 60
1, 1046229, Control_c, 0, 67, 43
1, 1046244, Control_c, 0, 64, 64
1, 1046244, Control_c, 0, 67, 45
1, 1046259, Control_c, 0, 64, 67
1, 1046259, Control_c, 0, 67, 47
1, 1046273, Control_c, 0, 64, 70
1, 1046273, Control_c, 0, 67, 50
1, 1046288, Control_c, 0, 64, 74
1, 1046288, Control_c, 0, 67, 52
1, 1046289, Note_off_c, 0, 78, 36
1, 1046293, Note_off_c, 0, 62, 56
1, 1046303, Control_c, 0, 64, 77
1, 1046303, Control_c, 0, 67, 54
1, 1046318, Control_c, 0, 64, 79
1, 1046318, Control_c, 0, 67, 56
1, 1046332, Control_c, 0, 64, 81
1, 1046332, Control_c, 0, 67, 59
1, 1046347, Control_c, 0, 64, 84
1, 1046347, Control_c, 0, 67, 63
1, 1046362, Control_c, 0, 64, 85
1, 1046362, Control_c, 0, 67, 65
1, 1046377, Control_c, 0, 64, 86
1, 1046377, Control_c, 0, 67, 68
1, 1046392, Control_c, 0, 64, 87
1, 1046392, Control_c, 0, 67, 71
1, 1046393, Note_off_c, 0, 59, 40
1, 1046406, Control_c, 0, 64, 88
1, 1046406, Control_c, 0, 67, 73
1, 1046421, Control_c, 0, 64, 89
1, 1046421, Control_c, 0, 67, 76
1, 1046426, Note_on_c, 0, 74, 56
1, 1046426, Note_off_c, 0, 76, 62
1, 1046436, Control_c, 0, 64, 89
1, 1046436, Control_c, 0, 67, 79
1, 1046451, Control_c, 0, 67, 83
1, 1046466, Control_c, 0, 67, 85
1, 1046480, Control_c, 0, 67, 87
1, 1046495, Control_c, 0, 67, 89
1, 1046510, Control_c, 0, 67, 91
1, 1046521, Note_off_c, 0, 66, 49
1, 1046524, Control_c, 0, 67, 93
1, 1046539, Control_c, 0, 67, 95
1, 1046554, Control_c, 0, 67, 97
1, 1046569, Control_c, 0, 67, 100
1, 1046584, Control_c, 0, 67, 105
1, 1046599, Control_c, 0, 67, 109
1, 1046614, Control_c, 0, 67, 112
1, 1046629, Control_c, 0, 67, 115
1, 1046644, Control_c, 0, 64, 89
1, 1046644, Control_c, 0, 67, 118
1, 1046648, Note_on_c, 0, 73, 63
1, 1046659, Control_c, 0, 64, 81
1, 1046659, Control_c, 0, 67, 120
1, 1046666, Note_on_c, 0, 67, 44
1, 1046670, Note_off_c, 0, 74, 49
1, 1046673, Control_c, 0, 64, 68
1, 1046673, Control_c, 0, 67, 122
1, 1046687, Note_on_c, 0, 62, 38
1, 1046688, Control_c, 0, 64, 58
1, 1046688, Control_c, 0, 67, 124
1, 1046694, Note_on_c, 0, 55, 36
1, 1046703, Control_c, 0, 64, 35
1, 1046703, Control_c, 0, 67, 124
1, 1046718, Control_c, 0, 64, 28
1, 1046733, Control_c, 0, 64, 39
1, 1046748, Control_c, 0, 64, 50
1, 1046763, Control_c, 0, 64, 59
1, 1046784, Control_c, 0, 64, 64
1, 1046799, Control_c, 0, 64, 67
1, 1046814, Control_c, 0, 64, 71
1, 1046814, Control_c, 0, 67, 124
1, 1046819, Note_on_c, 0, 74, 53
1, 1046828, Control_c, 0, 64, 76
1, 1046828, Control_c, 0, 67, 123
1, 1046840, Note_off_c, 0, 55, 35
1, 1046843, Note_off_c, 0, 73, 55
1, 1046843, Control_c, 0, 64, 80
1, 1046843, Control_c, 0, 67, 123
1, 1046858, Control_c, 0, 64, 82
1, 1046858, Control_c, 0, 67, 122
1, 1046873, Control_c, 0, 64, 84
1, 1046888, Control_c, 0, 64, 85
1, 1046888, Control_c, 0, 67, 121
1, 1046903, Control_c, 0, 64, 86
1, 1046909, Note_off_c, 0, 67, 37
1, 1046925, Note_off_c, 0, 74, 63
1, 1046951, Note_on_c, 0, 71, 59
1, 1046959, Note_off_c, 0, 62, 40
1, 1047036, Control_c, 0, 64, 85
1, 1047036, Control_c, 0, 67, 121
1, 1047051, Control_c, 0, 64, 82
1, 1047066, Control_c, 0, 64, 78
1, 1047066, Control_c, 0, 67, 122
1, 1047081, Control_c, 0, 64, 74
1, 1047095, Control_c, 0, 64, 70
1, 1047095, Control_c, 0, 67, 122
1, 1047110, Control_c, 0, 64, 66
1, 1047125, Control_c, 0, 64, 62
1, 1047125, Control_c, 0, 67, 123
1, 1047135, Note_on_c, 0, 69, 63
1, 1047140, Control_c, 0, 64, 42
1, 1047141, Note_off_c, 0, 71, 61
1, 1047154, Control_c, 0, 64, 0
1, 1047158, Note_on_c, 0, 66, 44
1, 1047173, Note_on_c, 0, 57, 38
1, 1047258, Control_c, 0, 64, 52
1, 1047273, Control_c, 0, 64, 63
1, 1047288, Control_c, 0, 64, 66
1, 1047302, Control_c, 0, 64, 69
1, 1047317, Control_c, 0, 64, 73
1, 1047332, Control_c, 0, 64, 77
1, 1047344, Note_off_c, 0, 57, 36
1, 1047347, Control_c, 0, 64, 81
1, 1047362, Control_c, 0, 64, 82
1, 1047371, Note_off_c, 0, 66, 57
1, 1047377, Control_c, 0, 64, 83
1, 1047389, Note_off_c, 0, 69, 49
1, 1047392, Control_c, 0, 67, 123
1, 1047407, Control_c, 0, 67, 124
1, 1047421, Control_c, 0, 67, 124
1, 1047436, Control_c, 0, 67, 125
1, 1047451, Control_c, 0, 67, 125
1, 1047466, Control_c, 0, 67, 126
1, 1047496, Control_c, 0, 67, 126
1, 1047511, Control_c, 0, 64, 82
1, 1047511, Control_c, 0, 67, 127
1, 1047533, Control_c, 0, 64, 80
1, 1047533, Control_c, 0, 67, 127
1, 1047548, Control_c, 0, 64, 77
1, 1047563, Control_c, 0, 64, 74
1, 1047577, Control_c, 0, 64, 72
1, 1047592, Control_c, 0, 64, 69
1, 1047607, Control_c, 0, 64, 67
1, 1047622, Control_c, 0, 64, 64
1, 1047636, Note_on_c, 0, 71, 60
1, 1047637, Control_c, 0, 64, 59
1, 1047651, Control_c, 0, 64, 40
1, 1047656, Note_on_c, 0, 57, 32
1, 1047657, Note_on_c, 0, 67, 23
1, 1047661, Note_on_c, 0, 64, 36
1, 1047666, Control_c, 0, 64, 0
1, 1047770, Control_c, 0, 64, 38
1, 1047785, Control_c, 0, 64, 58
1, 1047800, Control_c, 0, 64, 64
1, 1047800, Note_off_c, 0, 67, 45
1, 1047815, Control_c, 0, 64, 66
1, 1047830, Control_c, 0, 64, 69
1, 1047845, Control_c, 0, 64, 73
1, 1047845, Note_off_c, 0, 71, 58
1, 1047854, Note_off_c, 0, 57, 37
1, 1047859, Control_c, 0, 64, 77
1, 1047874, Control_c, 0, 64, 78
1, 1047882, Note_off_c, 0, 64, 41
1, 1047889, Control_c, 0, 64, 78
1, 1048066, Control_c, 0, 64, 77
1, 1048081, Control_c, 0, 64, 76
1, 1048095, Control_c, 0, 64, 74
1, 1048110, Control_c, 0, 64, 72
1, 1048125, Control_c, 0, 64, 69
1, 1048140, Control_c, 0, 64, 64
1, 1048149, Note_on_c, 0, 73, 53
1, 1048155, Control_c, 0, 64, 51
1, 1048170, Control_c, 0, 64, 0
1, 1048185, Note_on_c, 0, 64, 27
1, 1048187, Note_on_c, 0, 57, 30
1, 1048244, Control_c, 0, 64, 33
1, 1048259, Control_c, 0, 64, 59
1, 1048281, Control_c, 0, 64, 65
1, 1048297, Control_c, 0, 64, 68
1, 1048312, Control_c, 0, 64, 73
1, 1048325, Note_off_c, 0, 57, 55
1, 1048327, Control_c, 0, 64, 79
1, 1048340, Note_off_c, 0, 64, 41
1, 1048342, Control_c, 0, 64, 87
1, 1048344, Note_off_c, 0, 73, 56
1, 1048356, Control_c, 0, 64, 96
1, 1048371, Control_c, 0, 64, 105
1, 1048386, Control_c, 0, 64, 111
1, 1048400, Control_c, 0, 64, 116
1, 1048415, Control_c, 0, 64, 119
1, 1048430, Control_c, 0, 64, 125
1, 1048445, Control_c, 0, 64, 127
1, 1048771, Control_c, 0, 64, 125
1, 1048786, Control_c, 0, 64, 116
1, 1048800, Control_c, 0, 64, 110
1, 1048815, Control_c, 0, 64, 104
1, 1048830, Control_c, 0, 64, 98
1, 1048845, Control_c, 0, 64, 93
1, 1048849, Note_on_c, 0, 74, 43
1, 1048860, Control_c, 0, 64, 89
1, 1048874, Control_c, 0, 64, 83
1, 1048882, Note_on_c, 0, 62, 27
1, 1048889, Control_c, 0, 64, 78
1, 1048893, Note_on_c, 0, 50, 26
1, 1048893, Note_on_c, 0, 54, 19
1, 1048904, Control_c, 0, 64, 72
1, 1048918, Control_c, 0, 64, 67
1, 1048933, Control_c, 0, 64, 62
1, 1048948, Control_c, 0, 64, 47
1, 1048963, Control_c, 0, 64, 0
1, 1049150, Control_c, 0, 64, 51
1, 1049165, Control_c, 0, 64, 61
1, 1049180, Control_c, 0, 64, 62
1, 1049195, Control_c, 0, 64, 64
1, 1049210, Control_c, 0, 64, 66
1, 1049224, Control_c, 0, 64, 68
1, 1049239, Control_c, 0, 64, 72
1, 1049254, Control_c, 0, 64, 78
1, 1049269, Control_c, 0, 64, 83
1, 1049284, Control_c, 0, 64, 90
1, 1049298, Control_c, 0, 64, 100
1, 1049313, Control_c, 0, 64, 119
1, 1049328, Control_c, 0, 64, 127
1, 1049353, Note_off_c, 0, 74, 38
1, 1049464, Note_off_c, 0, 62, 42
1, 1049638, Note_off_c, 0, 54, 48
1, 1049706, Note_off_c, 0, 50, 36
1, 1049973, Control_c, 0, 64, 110
1, 1049988, Control_c, 0, 64, 89
1, 1050003, Control_c, 0, 64, 76
1, 1050018, Control_c, 0, 64, 66
1, 1050033, Control_c, 0, 64, 52
1, 1050047, Control_c, 0, 64, 0
1, 1050323, Note_on_c, 0, 62, 26
1, 1050658, Note_on_c, 0, 64, 37
1, 1050782, Note_off_c, 0, 62, 38
1, 1050928, Note_on_c, 0, 66, 47
1, 1051031, Note_off_c, 0, 64, 39
1, 1051362, Note_on_c, 0, 61, 40
1, 1051406, Note_on_c, 0, 46, 34
1, 1051407, Note_on_c, 0, 52, 30
1, 1051434, Note_on_c, 0, 55, 6
1, 1051443, Note_off_c, 0, 66, 44
1, 1051647, Control_c, 0, 64, 12
1, 1051662, Control_c, 0, 64, 36
1, 1051677, Control_c, 0, 64, 49
1, 1051691, Control_c, 0, 64, 58
1, 1051706, Control_c, 0, 64, 63
1, 1051721, Control_c, 0, 64, 65
1, 1051735, Control_c, 0, 64, 68
1, 1051750, Control_c, 0, 64, 72
1, 1051765, Control_c, 0, 64, 77
1, 1051780, Control_c, 0, 64, 83
1, 1051795, Control_c, 0, 64, 90
1, 1051810, Control_c, 0, 64, 99
1, 1051824, Control_c, 0, 64, 119
1, 1051839, Control_c, 0, 64, 127
1, 1052055, Note_on_c, 0, 67, 47
1, 1052267, Note_off_c, 0, 61, 40
1, 1052591, Note_on_c, 0, 61, 54
1, 1052686, Note_off_c, 0, 46, 38
1, 1052749, Note_off_c, 0, 67, 31
1, 1052868, Note_off_c, 0, 55, 36
1, 1052948, Note_off_c, 0, 52, 42
1, 1053145, Control_c, 0, 64, 118
1, 1053160, Control_c, 0, 64, 110
1, 1053175, Control_c, 0, 64, 105
1, 1053189, Control_c, 0, 64, 101
1, 1053204, Control_c, 0, 64, 98
1, 1053219, Control_c, 0, 64, 95
1, 1053234, Control_c, 0, 64, 94
1, 1053242, Note_on_c, 0, 62, 54
1, 1053249, Control_c, 0, 64, 91
1, 1053263, Control_c, 0, 64, 89
1, 1053278, Control_c, 0, 64, 87
1, 1053293, Control_c, 0, 64, 85
1, 1053297, Note_off_c, 0, 61, 50
1, 1053308, Control_c, 0, 64, 83
1, 1053314, Note_on_c, 0, 55, 43
1, 1053322, Control_c, 0, 64, 81
1, 1053337, Control_c, 0, 64, 79
1, 1053347, Note_on_c, 0, 50, 36
1, 1053352, Control_c, 0, 64, 77
1, 1053361, Note_on_c, 0, 47, 30
1, 1053367, Control_c, 0, 64, 74
1, 1053382, Control_c, 0, 64, 72
1, 1053396, Control_c, 0, 64, 70
1, 1053411, Control_c, 0, 64, 66
1, 1053426, Control_c, 0, 64, 63
1, 1053441, Control_c, 0, 64, 55
1, 1053456, Control_c, 0, 64, 0
1, 1053567, Control_c, 0, 64, 45
1, 1053582, Control_c, 0, 64, 54
1, 1053596, Control_c, 0, 64, 58
1, 1053611, Control_c, 0, 64, 60
1, 1053626, Control_c, 0, 64, 62
1, 1053641, Control_c, 0, 64, 64
1, 1053656, Control_c, 0, 64, 65
1, 1053670, Control_c, 0, 64, 65
1, 1053700, Control_c, 0, 64, 66
1, 1053714, Control_c, 0, 64, 66
1, 1053744, Control_c, 0, 64, 67
1, 1053755, Note_on_c, 0, 71, 57
1, 1053759, Control_c, 0, 64, 68
1, 1053774, Control_c, 0, 64, 69
1, 1053789, Control_c, 0, 64, 70
1, 1053804, Control_c, 0, 64, 71
1, 1053819, Control_c, 0, 64, 71
1, 1053848, Control_c, 0, 64, 72
1, 1053863, Control_c, 0, 64, 72
1, 1054145, Control_c, 0, 64, 72
1, 1054160, Control_c, 0, 64, 71
1, 1054173, Note_on_c, 0, 69, 59
1, 1054175, Control_c, 0, 64, 69
1, 1054190, Control_c, 0, 64, 65
1, 1054194, Note_on_c, 0, 52, 38
1, 1054203, Note_on_c, 0, 49, 42
1, 1054204, Note_off_c, 0, 47, 40
1, 1054205, Control_c, 0, 64, 58
1, 1054212, Note_off_c, 0, 50, 38
1, 1054219, Control_c, 0, 64, 19
1, 1054234, Control_c, 0, 64, 0
1, 1054316, Control_c, 0, 64, 43
1, 1054331, Control_c, 0, 64, 59
1, 1054345, Control_c, 0, 64, 62
1, 1054360, Control_c, 0, 64, 63
1, 1054375, Control_c, 0, 64, 65
1, 1054390, Control_c, 0, 64, 66
1, 1054397, Note_off_c, 0, 71, 31
1, 1054405, Control_c, 0, 64, 68
1, 1054419, Control_c, 0, 64, 71
1, 1054434, Control_c, 0, 64, 73
1, 1054449, Control_c, 0, 64, 74
1, 1054463, Control_c, 0, 64, 74
1, 1054478, Control_c, 0, 64, 75
1, 1054484, Note_off_c, 0, 52, 64
1, 1054508, Control_c, 0, 64, 76
1, 1054516, Note_on_c, 0, 67, 55
1, 1054552, Control_c, 0, 64, 76
1, 1054648, Note_off_c, 0, 62, 29
1, 1054674, Note_off_c, 0, 69, 30
1, 1054702, Control_c, 0, 64, 76
1, 1054716, Control_c, 0, 64, 75
1, 1054731, Control_c, 0, 64, 75
1, 1054746, Control_c, 0, 64, 74
1, 1054761, Control_c, 0, 64, 73
1, 1054776, Control_c, 0, 64, 72
1, 1054790, Control_c, 0, 64, 71
1, 1054805, Control_c, 0, 64, 69
1, 1054817, Note_on_c, 0, 66, 52
1, 1054820, Control_c, 0, 64, 68
1, 1054835, Control_c, 0, 64, 67
1, 1054842, Note_off_c, 0, 55, 37
1, 1054844, Note_on_c, 0, 57, 29
1, 1054844, Note_on_c, 0, 54, 39
1, 1054850, Control_c, 0, 64, 65
1, 1054865, Control_c, 0, 64, 64
1, 1054879, Note_off_c, 0, 67, 38
1, 1054880, Control_c, 0, 64, 63
1, 1054894, Control_c, 0, 64, 59
1, 1054909, Control_c, 0, 64, 53
1, 1054924, Control_c, 0, 64, 41
1, 1054939, Control_c, 0, 64, 12
1, 1054954, Control_c, 0, 64, 0
1, 1055258, Note_off_c, 0, 54, 36
1, 1055259, Note_on_c, 0, 58, 35
1, 1055259, Note_off_c, 0, 57, 46
1, 1055261, Note_on_c, 0, 64, 43
1, 1055276, Note_off_c, 0, 66, 53
1, 1055286, Note_on_c, 0, 55, 29
1, 1055390, Control_c, 0, 64, 50
1, 1055405, Control_c, 0, 64, 58
1, 1055420, Control_c, 0, 64, 62
1, 1055434, Control_c, 0, 64, 64
1, 1055449, Control_c, 0, 64, 66
1, 1055464, Control_c, 0, 64, 69
1, 1055472, Note_off_c, 0, 49, 51
1, 1055480, Control_c, 0, 64, 73
1, 1055495, Control_c, 0, 64, 75
1, 1055509, Control_c, 0, 64, 77
1, 1055524, Control_c, 0, 64, 78
1, 1055539, Control_c, 0, 64, 79
1, 1055554, Control_c, 0, 64, 81
1, 1055562, Note_off_c, 0, 58, 36
1, 1055569, Control_c, 0, 64, 82
1, 1055570, Note_off_c, 0, 55, 39
1, 1055598, Control_c, 0, 64, 82
1, 1055799, Control_c, 0, 64, 82
1, 1055814, Control_c, 0, 64, 81
1, 1055829, Control_c, 0, 64, 81
1, 1055844, Control_c, 0, 64, 80
1, 1055859, Control_c, 0, 64, 78
1, 1055861, Note_on_c, 0, 66, 36
1, 1055873, Control_c, 0, 64, 76
1, 1055888, Control_c, 0, 64, 74
1, 1055890, Note_on_c, 0, 57, 25
1, 1055896, Note_on_c, 0, 54, 23
1, 1055903, Control_c, 0, 64, 72
1, 1055917, Control_c, 0, 64, 70
1, 1055919, Note_on_c, 0, 50, 18
1, 1055931, Note_off_c, 0, 64, 40
1, 1055932, Control_c, 0, 64, 67
1, 1055947, Control_c, 0, 64, 63
1, 1055962, Control_c, 0, 64, 57
1, 1055977, Control_c, 0, 64, 29
1, 1055992, Control_c, 0, 64, 0
1, 1056096, Control_c, 0, 64, 47
1, 1056110, Control_c, 0, 64, 59
1, 1056125, Control_c, 0, 64, 63
1, 1056140, Control_c, 0, 64, 64
1, 1056155, Control_c, 0, 64, 66
1, 1056170, Control_c, 0, 64, 69
1, 1056184, Control_c, 0, 64, 72
1, 1056199, Control_c, 0, 64, 75
1, 1056214, Control_c, 0, 64, 77
1, 1056229, Control_c, 0, 64, 78
1, 1056243, Control_c, 0, 64, 79
1, 1056258, Control_c, 0, 64, 79
1, 1056273, Control_c, 0, 64, 80
1, 1056289, Control_c, 0, 64, 80
1, 1056308, Note_off_c, 0, 57, 36
1, 1056332, Note_off_c, 0, 50, 31
1, 1056388, Note_off_c, 0, 54, 25
1, 1056403, Note_off_c, 0, 66, 43
1, 1056563, Control_c, 0, 64, 79
1, 1056578, Control_c, 0, 64, 78
1, 1056593, Control_c, 0, 64, 77
1, 1056607, Control_c, 0, 64, 74
1, 1056622, Control_c, 0, 64, 71
1, 1056637, Control_c, 0, 64, 68
1, 1056652, Control_c, 0, 64, 65
1, 1056666, Control_c, 0, 64, 62
1, 1056681, Control_c, 0, 64, 57
1, 1056696, Control_c, 0, 64, 46
1, 1056711, Control_c, 0, 64, 15
1, 1056726, Control_c, 0, 64, 0
1, 1056986, Note_on_c, 0, 69, 48
1, 1057016, Note_on_c, 0, 64, 35
1, 1057020, Note_on_c, 0, 59, 34
1, 1057029, Note_on_c, 0, 43, 26
1, 1057127, Control_c, 0, 64, 24
1, 1057142, Control_c, 0, 64, 59
1, 1057156, Control_c, 0, 64, 66
1, 1057171, Control_c, 0, 64, 71
1, 1057186, Control_c, 0, 64, 79
1, 1057201, Control_c, 0, 64, 85
1, 1057216, Control_c, 0, 64, 88
1, 1057230, Control_c, 0, 64, 89
1, 1057315, Note_on_c, 0, 67, 51
1, 1057321, Note_off_c, 0, 69, 61
1, 1057326, Control_c, 0, 64, 89
1, 1057341, Control_c, 0, 64, 87
1, 1057355, Control_c, 0, 64, 83
1, 1057370, Control_c, 0, 64, 77
1, 1057385, Control_c, 0, 64, 72
1, 1057387, Note_off_c, 0, 64, 56
1, 1057395, Note_off_c, 0, 59, 39
1, 1057400, Control_c, 0, 64, 68
1, 1057407, Note_off_c, 0, 43, 36
1, 1057415, Control_c, 0, 64, 65
1, 1057428, Note_off_c, 0, 67, 36
1, 1057429, Control_c, 0, 64, 63
1, 1057444, Control_c, 0, 64, 58
1, 1057459, Control_c, 0, 64, 45
1, 1057474, Control_c, 0, 64, 0
1, 1057615, Note_on_c, 0, 66, 51
1, 1057649, Note_on_c, 0, 61, 36
1, 1057658, Note_on_c, 0, 45, 35
1, 1057676, Note_on_c, 0, 55, 25
1, 1057770, Control_c, 0, 64, 46
1, 1057785, Control_c, 0, 64, 59
1, 1057800, Control_c, 0, 64, 63
1, 1057815, Control_c, 0, 64, 65
1, 1057829, Control_c, 0, 64, 67
1, 1057844, Control_c, 0, 64, 71
1, 1057859, Control_c, 0, 64, 77
1, 1057874, Control_c, 0, 64, 81
1, 1057890, Control_c, 0, 64, 82
1, 1057904, Control_c, 0, 64, 85
1, 1057919, Control_c, 0, 64, 87
1, 1057934, Control_c, 0, 64, 87
1, 1057949, Control_c, 0, 64, 88
1, 1058060, Control_c, 0, 64, 87
1, 1058075, Control_c, 0, 64, 86
1, 1058090, Control_c, 0, 64, 83
1, 1058105, Control_c, 0, 64, 80
1, 1058119, Control_c, 0, 64, 77
1, 1058123, Note_on_c, 0, 64, 31
1, 1058134, Control_c, 0, 64, 74
1, 1058136, Note_off_c, 0, 66, 37
1, 1058149, Control_c, 0, 64, 70
1, 1058164, Control_c, 0, 64, 67
1, 1058178, Control_c, 0, 64, 64
1, 1058193, Control_c, 0, 64, 60
1, 1058208, Control_c, 0, 64, 52
1, 1058210, Note_off_c, 0, 45, 43
1, 1058223, Control_c, 0, 64, 36
1, 1058230, Note_off_c, 0, 55, 43
1, 1058238, Control_c, 0, 64, 0
1, 1058241, Note_off_c, 0, 61, 59
1, 1058251, Note_off_c, 0, 64, 52
1, 1058504, Control_c, 0, 64, 51
1, 1058519, Control_c, 0, 64, 61
1, 1058534, Control_c, 0, 64, 64
1, 1058549, Control_c, 0, 64, 66
1, 1058564, Control_c, 0, 64, 68
1, 1058578, Control_c, 0, 64, 72
1, 1058593, Control_c, 0, 64, 76
1, 1058608, Control_c, 0, 64, 82
1, 1058623, Control_c, 0, 64, 91
1, 1058637, Control_c, 0, 64, 101
1, 1058652, Control_c, 0, 64, 127
1, 1058919, Note_on_c, 0, 62, 32
1, 1058946, Note_on_c, 0, 54, 27
1, 1058973, Note_on_c, 0, 38, 20
1, 1058976, Note_on_c, 0, 50, 20
1, 1058984, Note_off_c, 0, 62, 0
1, 1058984, Note_on_c, 0, 62, 3
1, 1061218, Note_off_c, 0, 50, 37
1, 1061218, Note_off_c, 0, 62, 42
1, 1061247, Control_c, 0, 64, 101
1, 1061252, Note_off_c, 0, 38, 40
1, 1061256, Note_off_c, 0, 54, 39
1, 1061262, Control_c, 0, 64, 83
1, 1061277, Control_c, 0, 64, 71
1, 1061292, Control_c, 0, 64, 63
1, 1061307, Control_c, 0, 64, 28
1, 1061322, Control_c, 0, 64, 0
1, 1063286, Control_c, 0, 67, 123
1, 1063300, Control_c, 0, 67, 111
1, 1063315, Control_c, 0, 67, 98
1, 1063330, Control_c, 0, 67, 87
1, 1063345, Control_c, 0, 67, 75
1, 1063360, Control_c, 0, 67, 66
1, 1063374, Control_c, 0, 67, 57
1, 1063389, Control_c, 0, 67, 48
1, 1063404, Control_c, 0, 67, 39
1, 1063419, Control_c, 0, 67, 31
1, 1063433, Control_c, 0, 67, 23
1, 1063448, Control_c, 0, 67, 14
1, 1063463, Control_c, 0, 67, 0
1, 1064583, Control_c, 0, 64, 8
1, 1064598, Control_c, 0, 64, 15
1, 1064613, Control_c, 0, 64, 19
1, 1064627, Control_c, 0, 64, 22
1, 1064642, Control_c, 0, 64, 23
1, 1064687, Control_c, 0, 64, 23
1, 1064753, Control_c, 0, 64, 23
1, 1064812, Control_c, 0, 64, 23
1, 1064931, Control_c, 0, 64, 23
1, 1064946, Control_c, 0, 64, 20
1, 1064961, Control_c, 0, 64, 17
1, 1064976, Control_c, 0, 64, 14
1, 1064991, Control_c, 0, 64, 8
1, 1065005, Control_c, 0, 64, 0
1, 1069514, Control_c, 0, 64, 8
1, 1069529, Control_c, 0, 64, 12
1, 1069543, Control_c, 0, 64, 15
1, 1069558, Control_c, 0, 64, 21
1, 1069573, Control_c, 0, 64, 25
1, 1069588, Control_c, 0, 64, 28
1, 1069603, Control_c, 0, 64, 29
1, 1069617, Control_c, 0, 64, 30
1, 1069632, Control_c, 0, 64, 31
1, 1069647, Control_c, 0, 64, 31
1, 1069722, Control_c, 0, 64, 30
1, 1069736, Control_c, 0, 64, 28
1, 1069751, Control_c, 0, 64, 26
1, 1069766, Control_c, 0, 64, 23
1, 1069781, Control_c, 0, 64, 22
1, 1069795, Control_c, 0, 64, 19
1, 1069810, Control_c, 0, 64, 17
1, 1069825, Control_c, 0, 64, 15
1, 1069840, Control_c, 0, 64, 12
1, 1069855, Control_c, 0, 64, 10
1, 1069930, Control_c, 0, 64, 15
1, 1069945, Control_c, 0, 64, 18
1, 1069959, Control_c, 0, 64, 20
1, 1069974, Control_c, 0, 64, 21
1, 1069996, Control_c, 0, 64, 22
1, 1070011, Control_c, 0, 64, 23
1, 1070026, Control_c, 0, 64, 23
1, 1070041, Control_c, 0, 64, 26
1, 1070056, Control_c, 0, 64, 29
1, 1070071, Control_c, 0, 64, 32
1, 1070085, Control_c, 0, 64, 33
1, 1070100, Control_c, 0, 64, 34
1, 1070160, Control_c, 0, 64, 33
1, 1070189, Control_c, 0, 64, 32
1, 1070204, Control_c, 0, 64, 31
1, 1070218, Control_c, 0, 64, 31
1, 1070233, Control_c, 0, 64, 29
1, 1070248, Control_c, 0, 64, 28
1, 1070263, Control_c, 0, 64, 27
1, 1070278, Control_c, 0, 64, 26
1, 1070292, Control_c, 0, 64, 26
1, 1070381, Control_c, 0, 64, 25
1, 1070396, Control_c, 0, 64, 24
1, 1070410, Control_c, 0, 64, 23
1, 1070425, Control_c, 0, 64, 23
1, 1070440, Control_c, 0, 64, 21
1, 1070455, Control_c, 0, 64, 17
1, 1070470, Control_c, 0, 64, 12
1, 1070485, Control_c, 0, 64, 0
1, 1071367, Control_c, 0, 64, 15
1, 1071382, Control_c, 0, 64, 23
1, 1071397, Control_c, 0, 64, 24
1, 1071457, Control_c, 0, 64, 25
1, 1071582, Control_c, 0, 64, 26
1, 1071641, Control_c, 0, 64, 25
1, 1071656, Control_c, 0, 64, 23
1, 1071701, Control_c, 0, 64, 23
1, 1071716, Control_c, 0, 64, 20
1, 1071731, Control_c, 0, 64, 18
1, 1071775, Control_c, 0, 64, 19
1, 1071789, Control_c, 0, 64, 22
1, 1071804, Control_c, 0, 64, 23
1, 1071819, Control_c, 0, 64, 26
1, 1071834, Control_c, 0, 64, 27
1, 1071849, Control_c, 0, 64, 29
1, 1071863, Control_c, 0, 64, 31
1, 1071878, Control_c, 0, 64, 32
1, 1071893, Control_c, 0, 64, 33
1, 1071908, Control_c, 0, 64, 33
1, 1071967, Control_c, 0, 64, 34
1, 1071981, Control_c, 0, 64, 34
1, 1071996, Control_c, 0, 64, 35
1, 1072041, Control_c, 0, 64, 35
1, 1072115, Control_c, 0, 64, 35
1, 1072160, Control_c, 0, 64, 36
1, 1072175, Control_c, 0, 64, 37
1, 1072189, Control_c, 0, 64, 38
1, 1072204, Control_c, 0, 64, 38
1, 1072219, Control_c, 0, 64, 39
1, 1072317, Control_c, 0, 64, 38
1, 1072347, Control_c, 0, 64, 39
1, 1072361, Control_c, 0, 64, 39
1, 1072391, Control_c, 0, 64, 40
1, 1072406, Control_c, 0, 64, 41
1, 1072420, Control_c, 0, 64, 42
1, 1072479, Control_c, 0, 64, 41
1, 1072494, Control_c, 0, 64, 41
1, 1072509, Control_c, 0, 64, 40
1, 1072524, Control_c, 0, 64, 39
1, 1072554, Control_c, 0, 64, 38
1, 1072569, Control_c, 0, 64, 37
1, 1072583, Control_c, 0, 64, 37
1, 1072598, Control_c, 0, 64, 36
1, 1072658, Control_c, 0, 64, 36
1, 1072673, Control_c, 0, 64, 34
1, 1072687, Control_c, 0, 64, 32
1, 1072702, Control_c, 0, 64, 29
1, 1072717, Control_c, 0, 64, 28
1, 1072731, Control_c, 0, 64, 28
1, 1072746, Control_c, 0, 64, 27
1, 1072761, Control_c, 0, 64, 26
1, 1072776, Control_c, 0, 64, 22
1, 1072791, Control_c, 0, 64, 20
1, 1072850, Control_c, 0, 64, 21
1, 1072865, Control_c, 0, 64, 23
1, 1072879, Control_c, 0, 64, 23
1, 1072953, Control_c, 0, 64, 25
1, 1072968, Control_c, 0, 64, 26
1, 1073006, Control_c, 0, 64, 27
1, 1073020, Control_c, 0, 64, 29
1, 1073035, Control_c, 0, 64, 32
1, 1073050, Control_c, 0, 64, 33
1, 1073066, Control_c, 0, 64, 33
1, 1073081, Control_c, 0, 64, 34
1, 1073096, Control_c, 0, 64, 36
1, 1073110, Control_c, 0, 64, 39
1, 1073125, Control_c, 0, 64, 40
1, 1073140, Control_c, 0, 64, 41
1, 1073155, Control_c, 0, 64, 42
1, 1073170, Control_c, 0, 64, 43
1, 1073184, Control_c, 0, 64, 43
1, 1073199, Control_c, 0, 64, 44
1, 1073214, Control_c, 0, 64, 44
1, 1073228, Control_c, 0, 64, 45
1, 1073243, Control_c, 0, 64, 46
1, 1073273, Control_c, 0, 64, 45
1, 1073288, Control_c, 0, 64, 45
1, 1073302, Control_c, 0, 64, 44
1, 1073317, Control_c, 0, 64, 43
1, 1073332, Control_c, 0, 64, 41
1, 1073347, Control_c, 0, 64, 38
1, 1073361, Control_c, 0, 64, 33
1, 1073376, Control_c, 0, 64, 26
1, 1073391, Control_c, 0, 64, 19
1, 1073406, Control_c, 0, 64, 14
1, 1073421, Control_c, 0, 64, 12
1, 1073481, Control_c, 0, 64, 10
1, 1073496, Control_c, 0, 64, 8
1, 1073510, Control_c, 0, 64, 0
1, 1073673, Control_c, 0, 64, 23
1, 1073688, Control_c, 0, 64, 31
1, 1073702, Control_c, 0, 64, 34
1, 1073717, Control_c, 0, 64, 40
1, 1073740, Control_c, 0, 64, 52
1, 1073755, Control_c, 0, 64, 59
1, 1073769, Control_c, 0, 64, 61
1, 1073843, Control_c, 0, 64, 61
1, 1073874, Control_c, 0, 64, 60
1, 1073889, Control_c, 0, 64, 59
1, 1073919, Control_c, 0, 64, 58
1, 1073948, Control_c, 0, 64, 58
1, 1073963, Control_c, 0, 64, 56
1, 1073978, Control_c, 0, 64, 52
1, 1073992, Control_c, 0, 64, 49
1, 1074007, Control_c, 0, 64, 48
1, 1074022, Control_c, 0, 64, 47
1, 1074066, Control_c, 0, 64, 44
1, 1074081, Control_c, 0, 64, 35
1, 1074096, Control_c, 0, 64, 18
1, 1074111, Control_c, 0, 64, 0
1, 1076357, Control_c, 0, 64, 42
1, 1076365, Note_on_c, 0, 66, 89
1, 1076371, Note_on_c, 0, 54, 75
1, 1076372, Control_c, 0, 64, 64
1, 1076387, Control_c, 0, 64, 74
1, 1076402, Control_c, 0, 64, 96
1, 1076417, Control_c, 0, 64, 127
1, 1076424, Note_off_c, 0, 66, 69
1, 1076462, Note_off_c, 0, 54, 60
1, 1076683, Control_c, 0, 64, 95
1, 1076698, Control_c, 0, 64, 47
1, 1076712, Note_on_c, 0, 74, 79
1, 1076713, Control_c, 0, 64, 0
1, 1076717, Note_on_c, 0, 62, 80
1, 1076717, Note_on_c, 0, 66, 82
1, 1076727, Note_on_c, 0, 47, 69
1, 1076730, Note_on_c, 0, 54, 65
1, 1076730, Note_on_c, 0, 59, 70
1, 1076764, Control_c, 0, 64, 61
1, 1076778, Control_c, 0, 64, 82
1, 1076793, Control_c, 0, 64, 127
1, 1076810, Note_off_c, 0, 62, 59
1, 1076824, Note_off_c, 0, 66, 64
1, 1076834, Note_off_c, 0, 74, 63
1, 1076835, Note_off_c, 0, 59, 59
1, 1076839, Note_off_c, 0, 47, 61
1, 1076846, Note_off_c, 0, 54, 61
1, 1077012, Note_on_c, 0, 74, 79
1, 1077013, Note_on_c, 0, 62, 80
1, 1077016, Note_on_c, 0, 66, 75
1, 1077018, Note_on_c, 0, 47, 70
1, 1077019, Note_on_c, 0, 54, 68
1, 1077021, Note_on_c, 0, 59, 65
1, 1077031, Control_c, 0, 64, 97
1, 1077046, Note_off_c, 0, 47, 66
1, 1077046, Control_c, 0, 64, 68
1, 1077049, Note_off_c, 0, 59, 63
1, 1077049, Note_off_c, 0, 62, 59
1, 1077049, Note_off_c, 0, 66, 60
1, 1077052, Note_off_c, 0, 54, 66
1, 1077054, Note_off_c, 0, 74, 61
1, 1077061, Control_c, 0, 64, 44
1, 1077076, Control_c, 0, 64, 0
1, 1077116, Note_on_c, 0, 74, 77
1, 1077117, Note_on_c, 0, 62, 83
1, 1077118, Note_on_c, 0, 66, 83
1, 1077120, Note_on_c, 0, 59, 67
1, 1077120, Note_on_c, 0, 54, 75
1, 1077131, Note_on_c, 0, 47, 61
1, 1077145, Note_off_c, 0, 59, 68
1, 1077150, Note_off_c, 0, 54, 64
1, 1077153, Note_off_c, 0, 47, 63
1, 1077158, Note_off_c, 0, 66, 65
1, 1077158, Note_off_c, 0, 74, 64
1, 1077163, Note_off_c, 0, 62, 60
1, 1077205, Note_on_c, 0, 74, 72
1, 1077206, Note_on_c, 0, 62, 74
1, 1077207, Note_on_c, 0, 66, 76
1, 1077216, Note_on_c, 0, 59, 71
1, 1077219, Note_on_c, 0, 54, 69
1, 1077221, Note_on_c, 0, 47, 72
1, 1077240, Note_off_c, 0, 59, 69
1, 1077247, Note_off_c, 0, 66, 66
1, 1077249, Note_off_c, 0, 54, 64
1, 1077249, Note_off_c, 0, 62, 62
1, 1077254, Note_off_c, 0, 47, 66
1, 1077254, Note_off_c, 0, 74, 61
1, 1077293, Note_on_c, 0, 74, 71
1, 1077298, Note_on_c, 0, 62, 76
1, 1077300, Note_on_c, 0, 66, 72
1, 1077306, Note_on_c, 0, 54, 77
1, 1077306, Note_on_c, 0, 59, 74
1, 1077314, Note_on_c, 0, 47, 57
1, 1077340, Note_off_c, 0, 59, 56
1, 1077344, Note_off_c, 0, 66, 63
1, 1077346, Note_off_c, 0, 62, 62
1, 1077348, Note_off_c, 0, 47, 66
1, 1077350, Note_off_c, 0, 54, 59
1, 1077357, Note_off_c, 0, 74, 62
1, 1077423, Note_on_c, 0, 71, 79
1, 1077430, Note_on_c, 0, 62, 66
1, 1077435, Note_on_c, 0, 66, 68
1, 1077446, Note_on_c, 0, 59, 47
1, 1077448, Note_on_c, 0, 54, 38
1, 1077448, Note_on_c, 0, 50, 48
1, 1077585, Note_off_c, 0, 59, 55
1, 1077587, Note_off_c, 0, 62, 51
1, 1077597, Note_off_c, 0, 66, 56
1, 1077599, Note_off_c, 0, 54, 55
1, 1077603, Note_off_c, 0, 50, 60
1, 1077608, Note_off_c, 0, 71, 58
1, 1077677, Note_on_c, 0, 71, 81
1, 1077681, Note_on_c, 0, 62, 86
1, 1077684, Note_on_c, 0, 50, 57
1, 1077685, Note_on_c, 0, 66, 77
1, 1077687, Note_on_c, 0, 59, 59
1, 1077689, Note_on_c, 0, 54, 55
1, 1077804, Note_off_c, 0, 71, 59
1, 1077808, Note_off_c, 0, 54, 52
1, 1077809, Note_off_c, 0, 62, 56
1, 1077815, Note_off_c, 0, 59, 51
1, 1077815, Note_off_c, 0, 50, 58
1, 1077819, Note_off_c, 0, 66, 62
1, 1077893, Note_on_c, 0, 71, 85
1, 1077897, Note_on_c, 0, 62, 86
1, 1077900, Note_on_c, 0, 66, 76
1, 1077908, Note_on_c, 0, 50, 71
1, 1077911, Note_on_c, 0, 59, 68
1, 1077913, Note_on_c, 0, 54, 66
1, 1077944, Note_off_c, 0, 66, 66
1, 1077946, Note_off_c, 0, 71, 64
1, 1077978, Note_off_c, 0, 59, 63
1, 1077985, Note_off_c, 0, 62, 60
1, 1078002, Note_off_c, 0, 54, 62
1, 1078011, Note_off_c, 0, 50, 63
1, 1078115, Note_on_c, 0, 66, 78
1, 1078116, Note_on_c, 0, 54, 93
1, 1078116, Note_on_c, 0, 58, 85
1, 1078117, Note_on_c, 0, 73, 83
1, 1078121, Control_c, 0, 64, 34
1, 1078123, Note_on_c, 0, 42, 84
1, 1078130, Note_on_c, 0, 64, 56
1, 1078136, Control_c, 0, 64, 110
1, 1078150, Control_c, 0, 64, 127
1, 1078152, Note_off_c, 0, 64, 62
1, 1078154, Note_off_c, 0, 42, 67
1, 1078158, Note_off_c, 0, 54, 60
1, 1078167, Note_off_c, 0, 58, 63
1, 1078191, Note_off_c, 0, 66, 64
1, 1078208, Note_off_c, 0, 73, 62
1, 1078360, Note_on_c, 0, 73, 80
1, 1078360, Note_on_c, 0, 64, 79
1, 1078362, Note_on_c, 0, 66, 76
1, 1078366, Note_on_c, 0, 54, 80
1, 1078369, Note_on_c, 0, 58, 78
1, 1078392, Note_off_c, 0, 58, 67
1, 1078394, Control_c, 0, 64, 90
1, 1078396, Note_off_c, 0, 66, 63
1, 1078398, Note_off_c, 0, 54, 63
1, 1078405, Note_off_c, 0, 73, 62
1, 1078408, Note_off_c, 0, 64, 63
1, 1078409, Control_c, 0, 64, 48
1, 1078423, Control_c, 0, 64, 0
1, 1078459, Note_on_c, 0, 73, 82
1, 1078462, Note_on_c, 0, 64, 78
1, 1078467, Note_on_c, 0, 54, 79
1, 1078467, Note_on_c, 0, 58, 84
1, 1078473, Note_on_c, 0, 66, 73
1, 1078492, Note_off_c, 0, 58, 66
1, 1078495, Note_off_c, 0, 66, 68
1, 1078502, Note_off_c, 0, 54, 64
1, 1078506, Note_off_c, 0, 73, 63
1, 1078509, Note_off_c, 0, 64, 64
1, 1078560, Note_on_c, 0, 64, 75
1, 1078563, Note_on_c, 0, 54, 76
1, 1078565, Note_on_c, 0, 66, 76
1, 1078568, Note_on_c, 0, 58, 76
1, 1078570, Note_on_c, 0, 73, 58
1, 1078589, Note_off_c, 0, 58, 70
1, 1078589, Note_off_c, 0, 66, 64
1, 1078595, Note_off_c, 0, 54, 64
1, 1078595, Note_off_c, 0, 73, 58
1, 1078602, Note_off_c, 0, 64, 60
1, 1078659, Note_on_c, 0, 73, 87
1, 1078661, Note_on_c, 0, 64, 80
1, 1078662, Note_on_c, 0, 58, 76
1, 1078663, Note_on_c, 0, 54, 79
1, 1078670, Note_on_c, 0, 66, 74
1, 1078691, Note_off_c, 0, 58, 63
1, 1078691, Note_off_c, 0, 66, 72
1, 1078714, Note_off_c, 0, 64, 64
1, 1078718, Note_off_c, 0, 54, 61
1, 1078720, Note_off_c, 0, 73, 57
1, 1078845, Note_on_c, 0, 64, 89
1, 1078846, Note_on_c, 0, 66, 96
1, 1078855, Note_on_c, 0, 58, 83
1, 1078856, Note_on_c, 0, 54, 73
1, 1078857, Note_on_c, 0, 49, 72
1, 1078913, Control_c, 0, 64, 30
1, 1078928, Control_c, 0, 64, 53
1, 1078943, Control_c, 0, 64, 65
1, 1078958, Control_c, 0, 64, 77
1, 1078980, Control_c, 0, 64, 127
1, 1079326, Note_off_c, 0, 64, 54
1, 1079351, Note_off_c, 0, 66, 58
1, 1079358, Note_off_c, 0, 58, 60
1, 1079377, Note_off_c, 0, 54, 59
1, 1079399, Note_off_c, 0, 49, 61
1, 1079500, Control_c, 0, 64, 78
1, 1079515, Control_c, 0, 64, 37
1, 1079529, Control_c, 0, 64, 0
1, 1079618, Control_c, 0, 64, 61
1, 1079633, Control_c, 0, 64, 79
1, 1079645, Note_on_c, 0, 59, 78
1, 1079646, Note_on_c, 0, 66, 81
1, 1079647, Note_on_c, 0, 62, 77
1, 1079647, Note_on_c, 0, 71, 74
1, 1079648, Control_c, 0, 64, 127
1, 1079650, Note_on_c, 0, 54, 76
1, 1079651, Note_on_c, 0, 47, 75
1, 1079654, Note_on_c, 0, 50, 69
1, 1079678, Note_off_c, 0, 71, 62
1, 1079685, Note_off_c, 0, 54, 61
1, 1079691, Note_off_c, 0, 50, 62
1, 1079691, Note_off_c, 0, 59, 64
1, 1079694, Note_off_c, 0, 62, 61
1, 1079708, Note_off_c, 0, 47, 63
1, 1079730, Note_off_c, 0, 66, 65
1, 1079884, Note_on_c, 0, 58, 79
1, 1079884, Note_on_c, 0, 70, 79
1, 1079893, Control_c, 0, 64, 69
1, 1079895, Note_on_c, 0, 54, 68
1, 1079897, Note_on_c, 0, 47, 69
1, 1079898, Note_on_c, 0, 50, 65
1, 1079908, Control_c, 0, 64, 0
1, 1079913, Note_off_c, 0, 58, 64
1, 1079919, Note_off_c, 0, 47, 64
1, 1079923, Note_off_c, 0, 54, 65
1, 1079928, Note_off_c, 0, 50, 64
1, 1079930, Note_off_c, 0, 70, 58
1, 1079985, Note_on_c, 0, 54, 74
1, 1079989, Note_on_c, 0, 47, 79
1, 1079989, Note_on_c, 0, 59, 83
1, 1079993, Note_on_c, 0, 71, 74
1, 1079994, Note_on_c, 0, 50, 70
1, 1080012, Note_off_c, 0, 54, 66
1, 1080019, Note_off_c, 0, 50, 66
1, 1080019, Note_off_c, 0, 59, 61
1, 1080021, Note_off_c, 0, 47, 66
1, 1080022, Note_off_c, 0, 71, 65
1, 1080079, Note_on_c, 0, 50, 76
1, 1080080, Note_on_c, 0, 71, 73
1, 1080082, Note_on_c, 0, 54, 78
1, 1080083, Note_on_c, 0, 59, 82
1, 1080084, Note_on_c, 0, 47, 68
1, 1080103, Note_off_c, 0, 59, 71
1, 1080107, Note_off_c, 0, 54, 65
1, 1080107, Note_off_c, 0, 50, 65
1, 1080109, Note_off_c, 0, 71, 66
1, 1080116, Note_off_c, 0, 47, 64
1, 1080175, Note_on_c, 0, 54, 64
1, 1080175, Note_on_c, 0, 73, 87
1, 1080176, Note_on_c, 0, 61, 83
1, 1080182, Note_on_c, 0, 47, 73
1, 1080188, Note_on_c, 0, 50, 62
1, 1080200, Note_off_c, 0, 61, 67
1, 1080200, Note_off_c, 0, 54, 65
1, 1080212, Note_off_c, 0, 47, 65
1, 1080214, Note_off_c, 0, 50, 64
1, 1080221, Note_off_c, 0, 73, 62
1, 1080268, Note_on_c, 0, 62, 89
1, 1080268, Note_on_c, 0, 74, 90
1, 1080270, Note_on_c, 0, 55, 83
1, 1080274, Note_on_c, 0, 47, 72
1, 1080280, Note_on_c, 0, 43, 69
1, 1080293, Note_on_c, 0, 50, 55
1, 1080306, Note_off_c, 0, 74, 70
1, 1080307, Note_off_c, 0, 47, 66
1, 1080309, Note_off_c, 0, 62, 62
1, 1080310, Note_off_c, 0, 55, 50
1, 1080321, Note_off_c, 0, 50, 36
1, 1080327, Note_off_c, 0, 43, 54
1, 1080504, Note_on_c, 0, 74, 86
1, 1080506, Note_on_c, 0, 47, 71
1, 1080507, Note_on_c, 0, 62, 82
1, 1080508, Note_on_c, 0, 55, 68
1, 1080515, Note_on_c, 0, 50, 61
1, 1080516, Note_on_c, 0, 43, 58
1, 1080539, Note_off_c, 0, 55, 62
1, 1080548, Note_off_c, 0, 50, 62
1, 1080551, Note_off_c, 0, 74, 67
1, 1080552, Note_off_c, 0, 43, 59
1, 1080554, Note_off_c, 0, 62, 62
1, 1080566, Note_off_c, 0, 47, 63
1, 1080711, Note_on_c, 0, 74, 81
1, 1080713, Note_on_c, 0, 62, 80
1, 1080718, Note_on_c, 0, 55, 69
1, 1080719, Note_on_c, 0, 47, 63
1, 1080728, Note_on_c, 0, 50, 47
1, 1080730, Note_on_c, 0, 43, 55
1, 1080754, Note_off_c, 0, 50, 61
1, 1080757, Note_off_c, 0, 55, 61
1, 1080760, Note_off_c, 0, 62, 54
1, 1080764, Note_off_c, 0, 74, 64
1, 1080777, Note_off_c, 0, 47, 64
1, 1080789, Note_off_c, 0, 43, 61
1, 1080924, Note_on_c, 0, 76, 82
1, 1080924, Note_on_c, 0, 49, 83
1, 1080926, Note_on_c, 0, 52, 85
1, 1080926, Note_on_c, 0, 64, 81
1, 1080929, Note_on_c, 0, 70, 73
1, 1080930, Note_on_c, 0, 46, 80
1, 1080932, Note_on_c, 0, 67, 72
1, 1080934, Note_on_c, 0, 40, 72
1, 1080955, Note_off_c, 0, 52, 59
1, 1080960, Note_off_c, 0, 67, 60
1, 1080969, Note_off_c, 0, 46, 59
1, 1080973, Note_off_c, 0, 49, 60
1, 1080974, Note_off_c, 0, 64, 63
1, 1080975, Note_off_c, 0, 40, 62
1, 1080980, Note_off_c, 0, 70, 62
1, 1080998, Note_off_c, 0, 76, 65
1, 1081142, Note_on_c, 0, 64, 94
1, 1081143, Note_on_c, 0, 76, 89
1, 1081145, Note_on_c, 0, 52, 93
1, 1081145, Note_on_c, 0, 49, 82
1, 1081148, Note_on_c, 0, 67, 82
1, 1081149, Note_on_c, 0, 46, 77
1, 1081149, Note_on_c, 0, 70, 77
1, 1081153, Note_on_c, 0, 40, 75
1, 1081188, Note_off_c, 0, 40, 65
1, 1081194, Note_off_c, 0, 52, 61
1, 1081198, Note_off_c, 0, 49, 60
1, 1081201, Note_off_c, 0, 46, 61
1, 1081203, Note_off_c, 0, 64, 49
1, 1081204, Note_off_c, 0, 67, 43
1, 1081221, Note_off_c, 0, 70, 55
1, 1081221, Note_off_c, 0, 76, 63
1, 1081389, Note_on_c, 0, 64, 95
1, 1081389, Note_on_c, 0, 76, 94
1, 1081390, Note_on_c, 0, 49, 87
1, 1081390, Note_on_c, 0, 70, 87
1, 1081392, Note_on_c, 0, 46, 88
1, 1081392, Note_on_c, 0, 52, 95
1, 1081392, Note_on_c, 0, 67, 86
1, 1081396, Note_on_c, 0, 40, 83
1, 1081418, Note_off_c, 0, 52, 62
1, 1081434, Note_off_c, 0, 49, 61
1, 1081436, Note_off_c, 0, 40, 59
1, 1081440, Note_off_c, 0, 67, 61
1, 1081449, Note_off_c, 0, 64, 56
1, 1081458, Note_off_c, 0, 46, 60
1, 1081460, Note_off_c, 0, 70, 62
1, 1081481, Note_off_c, 0, 76, 65
1, 1081777, Note_on_c, 0, 79, 94
1, 1081780, Note_on_c, 0, 76, 82
1, 1081784, Note_on_c, 0, 67, 86
1, 1081785, Note_on_c, 0, 69, 93
1, 1081789, Note_on_c, 0, 49, 80
1, 1081790, Control_c, 0, 64, 18
1, 1081791, Note_on_c, 0, 37, 77
1, 1081797, Note_on_c, 0, 45, 69
1, 1081805, Control_c, 0, 64, 65
1, 1081820, Note_off_c, 0, 37, 70
1, 1081820, Control_c, 0, 64, 100
1, 1081835, Control_c, 0, 64, 127
1, 1081841, Note_off_c, 0, 45, 62
1, 1081844, Note_off_c, 0, 49, 63
1, 1082021, Note_off_c, 0, 67, 60
1, 1082077, Note_off_c, 0, 69, 60
1, 1082150, Note_off_c, 0, 79, 49
1, 1082244, Note_off_c, 0, 76, 61
1, 1082844, Control_c, 0, 64, 98
1, 1082859, Control_c, 0, 64, 83
1, 1082874, Control_c, 0, 64, 72
1, 1082888, Control_c, 0, 64, 63
1, 1082903, Control_c, 0, 64, 50
1, 1082918, Control_c, 0, 64, 0
1, 1083030, Note_on_c, 0, 90, 65
1, 1083052, Note_on_c, 0, 78, 44
1, 1083082, Note_on_c, 0, 50, 29
1, 1083125, Control_c, 0, 64, 45
1, 1083139, Control_c, 0, 64, 62
1, 1083142, Note_off_c, 0, 78, 56
1, 1083154, Control_c, 0, 64, 66
1, 1083169, Control_c, 0, 64, 70
1, 1083184, Control_c, 0, 64, 75
1, 1083199, Control_c, 0, 64, 79
1, 1083204, Note_off_c, 0, 90, 55
1, 1083213, Control_c, 0, 64, 81
1, 1083228, Control_c, 0, 64, 83
1, 1083243, Control_c, 0, 64, 84
1, 1083402, Note_on_c, 0, 90, 74
1, 1083422, Note_on_c, 0, 57, 46
1, 1083423, Note_on_c, 0, 78, 57
1, 1083479, Note_off_c, 0, 78, 54
1, 1083503, Note_off_c, 0, 90, 61
1, 1083607, Control_c, 0, 64, 83
1, 1083622, Control_c, 0, 64, 83
1, 1083637, Control_c, 0, 64, 82
1, 1083643, Note_on_c, 0, 58, 52
1, 1083643, Note_on_c, 0, 90, 73
1, 1083652, Control_c, 0, 64, 80
1, 1083663, Note_on_c, 0, 78, 56
1, 1083666, Note_off_c, 0, 50, 37
1, 1083666, Control_c, 0, 64, 78
1, 1083681, Control_c, 0, 64, 76
1, 1083690, Note_off_c, 0, 57, 55
1, 1083696, Control_c, 0, 64, 75
1, 1083711, Control_c, 0, 64, 73
1, 1083726, Control_c, 0, 64, 72
1, 1083741, Control_c, 0, 64, 70
1, 1083756, Control_c, 0, 64, 68
1, 1083770, Control_c, 0, 64, 63
1, 1083785, Control_c, 0, 64, 0
1, 1083861, Note_off_c, 0, 58, 59
1, 1083887, Note_on_c, 0, 59, 53
1, 1083888, Control_c, 0, 64, 53
1, 1083902, Note_on_c, 0, 55, 44
1, 1083903, Control_c, 0, 64, 64
1, 1083918, Control_c, 0, 64, 66
1, 1083919, Note_off_c, 0, 78, 60
1, 1083933, Control_c, 0, 64, 67
1, 1083951, Note_off_c, 0, 90, 62
1, 1084051, Control_c, 0, 64, 66
1, 1084086, Note_off_c, 0, 59, 63
1, 1084096, Control_c, 0, 64, 66
1, 1084112, Note_on_c, 0, 88, 64
1, 1084117, Note_on_c, 0, 76, 59
1, 1084127, Note_on_c, 0, 64, 47
1, 1084140, Note_off_c, 0, 88, 66
1, 1084140, Control_c, 0, 64, 65
1, 1084145, Note_off_c, 0, 76, 65
1, 1084200, Control_c, 0, 64, 65
1, 1084227, Note_on_c, 0, 86, 65
1, 1084233, Note_on_c, 0, 74, 58
1, 1084253, Control_c, 0, 67, 8
1, 1084254, Note_off_c, 0, 86, 65
1, 1084261, Note_off_c, 0, 74, 68
1, 1084267, Control_c, 0, 67, 9
1, 1084282, Control_c, 0, 67, 10
1, 1084297, Control_c, 0, 67, 11
1, 1084299, Note_off_c, 0, 64, 62
1, 1084323, Note_on_c, 0, 67, 56
1, 1084326, Control_c, 0, 67, 12
1, 1084328, Note_on_c, 0, 86, 65
1, 1084340, Note_on_c, 0, 74, 64
1, 1084353, Note_off_c, 0, 86, 65
1, 1084356, Control_c, 0, 67, 12
1, 1084357, Note_off_c, 0, 74, 68
1, 1084371, Control_c, 0, 67, 13
1, 1084400, Control_c, 0, 67, 13
1, 1084415, Control_c, 0, 67, 14
1, 1084430, Control_c, 0, 67, 15
1, 1084438, Note_on_c, 0, 71, 65
1, 1084438, Note_on_c, 0, 83, 65
1, 1084445, Control_c, 0, 67, 17
1, 1084459, Control_c, 0, 67, 20
1, 1084462, Note_off_c, 0, 83, 64
1, 1084463, Note_off_c, 0, 71, 65
1, 1084474, Control_c, 0, 64, 64
1, 1084474, Control_c, 0, 67, 21
1, 1084489, Control_c, 0, 64, 64
1, 1084489, Control_c, 0, 67, 22
1, 1084502, Note_off_c, 0, 67, 37
1, 1084504, Control_c, 0, 64, 60
1, 1084504, Control_c, 0, 67, 23
1, 1084519, Control_c, 0, 64, 48
1, 1084519, Control_c, 0, 67, 24
1, 1084531, Note_off_c, 0, 55, 32
1, 1084534, Control_c, 0, 64, 0
1, 1084534, Control_c, 0, 67, 24
1, 1084538, Note_on_c, 0, 57, 56
1, 1084543, Note_on_c, 0, 81, 78
1, 1084548, Note_on_c, 0, 69, 73
1, 1084549, Control_c, 0, 67, 25
1, 1084564, Control_c, 0, 67, 26
1, 1084576, Note_off_c, 0, 69, 66
1, 1084579, Control_c, 0, 67, 27
1, 1084585, Note_off_c, 0, 81, 57
1, 1084750, Note_on_c, 0, 81, 76
1, 1084757, Note_on_c, 0, 69, 59
1, 1084766, Note_on_c, 0, 61, 50
1, 1084772, Note_off_c, 0, 81, 68
1, 1084776, Note_off_c, 0, 69, 67
1, 1084850, Note_on_c, 0, 83, 76
1, 1084860, Note_on_c, 0, 71, 70
1, 1084883, Note_off_c, 0, 83, 61
1, 1084887, Note_off_c, 0, 71, 66
1, 1084958, Note_off_c, 0, 61, 59
1, 1084988, Note_on_c, 0, 64, 47
1, 1084996, Note_on_c, 0, 79, 75
1, 1085014, Note_on_c, 0, 67, 58
1, 1085041, Note_off_c, 0, 64, 59
1, 1085046, Control_c, 0, 67, 28
1, 1085047, Note_off_c, 0, 67, 63
1, 1085050, Note_off_c, 0, 79, 61
1, 1085061, Control_c, 0, 67, 28
1, 1085076, Control_c, 0, 67, 30
1, 1085090, Control_c, 0, 67, 37
1, 1085105, Control_c, 0, 67, 44
1, 1085120, Control_c, 0, 67, 50
1, 1085135, Control_c, 0, 67, 55
1, 1085149, Control_c, 0, 67, 58
1, 1085164, Control_c, 0, 67, 63
1, 1085179, Control_c, 0, 67, 66
1, 1085194, Control_c, 0, 67, 69
1, 1085209, Control_c, 0, 67, 71
1, 1085223, Control_c, 0, 67, 72
1, 1085238, Control_c, 0, 67, 73
1, 1085253, Control_c, 0, 67, 74
1, 1085264, Note_off_c, 0, 57, 35
1, 1085265, Note_on_c, 0, 78, 66
1, 1085282, Note_on_c, 0, 62, 43
1, 1085284, Note_on_c, 0, 66, 44
1, 1085297, Note_on_c, 0, 50, 44
1, 1085357, Control_c, 0, 67, 73
1, 1085372, Control_c, 0, 67, 72
1, 1085386, Control_c, 0, 67, 72
1, 1085401, Control_c, 0, 64, 44
1, 1085416, Control_c, 0, 64, 60
1, 1085416, Control_c, 0, 67, 71
1, 1085431, Control_c, 0, 64, 64
1, 1085431, Control_c, 0, 67, 71
1, 1085446, Control_c, 0, 64, 65
1, 1085460, Control_c, 0, 64, 67
1, 1085475, Control_c, 0, 64, 69
1, 1085475, Control_c, 0, 67, 70
1, 1085490, Control_c, 0, 64, 71
1, 1085505, Control_c, 0, 64, 73
1, 1085505, Control_c, 0, 67, 70
1, 1085520, Control_c, 0, 64, 73
1, 1085543, Note_off_c, 0, 62, 40
1, 1085564, Note_on_c, 0, 54, 43
1, 1085594, Note_off_c, 0, 66, 63
1, 1085596, Note_off_c, 0, 50, 47
1, 1085613, Note_off_c, 0, 78, 63
1, 1085682, Control_c, 0, 67, 70
1, 1085697, Control_c, 0, 67, 71
1, 1085720, Control_c, 0, 64, 72
1, 1085735, Control_c, 0, 64, 68
1, 1085735, Control_c, 0, 67, 71
1, 1085749, Note_off_c, 0, 54, 62
1, 1085749, Control_c, 0, 64, 63
1, 1085764, Control_c, 0, 64, 42
1, 1085764, Control_c, 0, 67, 72
1, 1085765, Note_on_c, 0, 66, 60
1, 1085778, Note_on_c, 0, 57, 42
1, 1085779, Control_c, 0, 64, 0
1, 1085794, Control_c, 0, 67, 73
1, 1085809, Control_c, 0, 67, 74
1, 1085839, Control_c, 0, 67, 74
1, 1085854, Control_c, 0, 67, 75
1, 1085869, Control_c, 0, 67, 75
1, 1085884, Control_c, 0, 67, 76
1, 1085898, Control_c, 0, 67, 78
1, 1085913, Control_c, 0, 67, 81
1, 1085928, Control_c, 0, 67, 84
1, 1085943, Control_c, 0, 67, 87
1, 1085958, Control_c, 0, 67, 90
1, 1085972, Control_c, 0, 67, 93
1, 1085987, Control_c, 0, 67, 96
1, 1085994, Note_off_c, 0, 57, 59
1, 1085995, Note_on_c, 0, 73, 65
1, 1085998, Note_on_c, 0, 45, 54
1, 1086002, Control_c, 0, 67, 100
1, 1086009, Note_off_c, 0, 66, 63
1, 1086017, Control_c, 0, 67, 103
1, 1086032, Control_c, 0, 67, 106
1, 1086046, Control_c, 0, 67, 109
1, 1086061, Control_c, 0, 67, 112
1, 1086076, Control_c, 0, 67, 114
1, 1086090, Control_c, 0, 67, 116
1, 1086105, Control_c, 0, 67, 117
1, 1086120, Control_c, 0, 67, 118
1, 1086150, Control_c, 0, 67, 118
1, 1086186, Note_on_c, 0, 66, 60
1, 1086187, Note_on_c, 0, 57, 62
1, 1086194, Control_c, 0, 67, 119
1, 1086217, Note_off_c, 0, 66, 65
1, 1086218, Note_off_c, 0, 57, 66
1, 1086281, Note_on_c, 0, 67, 63
1, 1086287, Note_on_c, 0, 59, 68
1, 1086313, Note_off_c, 0, 59, 67
1, 1086328, Note_off_c, 0, 67, 57
1, 1086389, Note_on_c, 0, 64, 57
1, 1086408, Note_on_c, 0, 55, 59
1, 1086435, Note_off_c, 0, 64, 56
1, 1086442, Note_off_c, 0, 55, 63
1, 1086572, Control_c, 0, 67, 118
1, 1086587, Control_c, 0, 67, 117
1, 1086598, Note_off_c, 0, 45, 44
1, 1086602, Control_c, 0, 67, 115
1, 1086613, Note_on_c, 0, 74, 53
1, 1086616, Control_c, 0, 67, 114
1, 1086631, Control_c, 0, 64, 33
1, 1086631, Control_c, 0, 67, 113
1, 1086632, Note_off_c, 0, 73, 28
1, 1086637, Note_on_c, 0, 54, 50
1, 1086642, Note_on_c, 0, 62, 40
1, 1086644, Note_on_c, 0, 50, 53
1, 1086647, Control_c, 0, 64, 63
1, 1086647, Control_c, 0, 67, 112
1, 1086662, Control_c, 0, 64, 69
1, 1086662, Control_c, 0, 67, 111
1, 1086677, Control_c, 0, 64, 72
1, 1086677, Control_c, 0, 67, 110
1, 1086680, Note_off_c, 0, 50, 65
1, 1086688, Note_off_c, 0, 54, 62
1, 1086692, Note_off_c, 0, 62, 51
1, 1086692, Control_c, 0, 64, 75
1, 1086707, Control_c, 0, 64, 78
1, 1086707, Control_c, 0, 67, 109
1, 1086721, Control_c, 0, 64, 80
1, 1086736, Control_c, 0, 64, 81
1, 1086736, Control_c, 0, 67, 108
1, 1086751, Control_c, 0, 67, 107
1, 1086766, Control_c, 0, 67, 107
1, 1086781, Control_c, 0, 67, 106
1, 1086795, Control_c, 0, 67, 105
1, 1086806, Note_off_c, 0, 74, 63
1, 1086810, Control_c, 0, 64, 79
1, 1086810, Control_c, 0, 67, 104
1, 1086825, Control_c, 0, 64, 75
1, 1086825, Control_c, 0, 67, 102
1, 1086840, Control_c, 0, 64, 68
1, 1086840, Control_c, 0, 67, 101
1, 1086844, Note_on_c, 0, 62, 53
1, 1086855, Control_c, 0, 64, 62
1, 1086855, Control_c, 0, 67, 100
1, 1086869, Control_c, 0, 64, 47
1, 1086869, Control_c, 0, 67, 98
1, 1086884, Control_c, 0, 64, 0
1, 1086884, Control_c, 0, 67, 95
1, 1086899, Control_c, 0, 67, 91
1, 1086913, Control_c, 0, 67, 86
1, 1086928, Control_c, 0, 67, 81
1, 1086943, Control_c, 0, 67, 75
1, 1086958, Control_c, 0, 67, 69
1, 1086973, Control_c, 0, 67, 65
1, 1086987, Control_c, 0, 67, 62
1, 1087002, Control_c, 0, 67, 59
1, 1087017, Control_c, 0, 67, 55
1, 1087029, Note_on_c, 0, 81, 84
1, 1087032, Control_c, 0, 67, 50
1, 1087047, Control_c, 0, 67, 45
1, 1087057, Note_on_c, 0, 69, 53
1, 1087057, Note_off_c, 0, 62, 61
1, 1087062, Control_c, 0, 67, 41
1, 1087069, Note_on_c, 0, 66, 48
1, 1087077, Control_c, 0, 67, 35
1, 1087092, Control_c, 0, 67, 31
1, 1087106, Control_c, 0, 67, 27
1, 1087121, Control_c, 0, 67, 23
1, 1087136, Control_c, 0, 67, 20
1, 1087151, Control_c, 0, 67, 18
1, 1087166, Control_c, 0, 67, 17
1, 1087180, Control_c, 0, 67, 17
1, 1087279, Note_on_c, 0, 57, 55
1, 1087306, Control_c, 0, 67, 17
1, 1087307, Note_off_c, 0, 66, 58
1, 1087330, Note_off_c, 0, 69, 62
1, 1087336, Control_c, 0, 67, 18
1, 1087350, Note_off_c, 0, 81, 60
1, 1087381, Control_c, 0, 67, 18
1, 1087395, Control_c, 0, 67, 19
1, 1087425, Control_c, 0, 67, 19
1, 1087455, Control_c, 0, 67, 20
1, 1087473, Note_on_c, 0, 81, 77
1, 1087484, Note_on_c, 0, 69, 52
1, 1087485, Control_c, 0, 67, 21
1, 1087500, Control_c, 0, 67, 21
1, 1087501, Note_off_c, 0, 81, 59
1, 1087502, Note_on_c, 0, 61, 51
1, 1087507, Note_off_c, 0, 69, 62
1, 1087515, Control_c, 0, 67, 22
1, 1087530, Control_c, 0, 67, 22
1, 1087544, Control_c, 0, 67, 23
1, 1087559, Control_c, 0, 67, 23
1, 1087568, Note_on_c, 0, 83, 74
1, 1087574, Control_c, 0, 67, 24
1, 1087578, Note_on_c, 0, 71, 68
1, 1087589, Control_c, 0, 67, 24
1, 1087595, Note_off_c, 0, 83, 64
1, 1087604, Note_off_c, 0, 71, 68
1, 1087604, Control_c, 0, 67, 25
1, 1087633, Control_c, 0, 67, 25
1, 1087648, Control_c, 0, 67, 26
1, 1087657, Note_off_c, 0, 61, 55
1, 1087677, Note_on_c, 0, 79, 80
1, 1087677, Control_c, 0, 67, 26
1, 1087687, Note_on_c, 0, 67, 70
1, 1087692, Control_c, 0, 67, 27
1, 1087703, Note_on_c, 0, 64, 40
1, 1087707, Control_c, 0, 67, 27
1, 1087722, Control_c, 0, 67, 28
1, 1087736, Control_c, 0, 67, 29
1, 1087744, Note_off_c, 0, 79, 60
1, 1087746, Note_off_c, 0, 64, 47
1, 1087749, Note_off_c, 0, 67, 60
1, 1087751, Control_c, 0, 67, 30
1, 1087766, Control_c, 0, 67, 34
1, 1087781, Control_c, 0, 67, 39
1, 1087796, Control_c, 0, 67, 44
1, 1087810, Control_c, 0, 67, 47
1, 1087825, Control_c, 0, 67, 50
1, 1087840, Control_c, 0, 67, 53
1, 1087855, Control_c, 0, 67, 55
1, 1087870, Control_c, 0, 67, 57
1, 1087884, Control_c, 0, 67, 58
1, 1087894, Note_off_c, 0, 57, 58
1, 1087896, Note_on_c, 0, 78, 79
1, 1087899, Control_c, 0, 67, 59
1, 1087914, Note_on_c, 0, 66, 54
1, 1087914, Control_c, 0, 67, 61
1, 1087923, Note_on_c, 0, 62, 49
1, 1087929, Control_c, 0, 67, 63
1, 1087944, Control_c, 0, 67, 65
1, 1087958, Note_on_c, 0, 50, 37
1, 1087966, Control_c, 0, 67, 66
1, 1087981, Control_c, 0, 67, 68
1, 1087996, Control_c, 0, 67, 69
1, 1088008, Note_off_c, 0, 50, 0
1, 1088008, Note_on_c, 0, 50, 4
1, 1088010, Control_c, 0, 67, 70
1, 1088025, Control_c, 0, 67, 70
1, 1088040, Control_c, 0, 67, 71
1, 1088055, Control_c, 0, 67, 72
1, 1088069, Control_c, 0, 67, 74
1, 1088084, Control_c, 0, 67, 75
1, 1088099, Control_c, 0, 67, 77
1, 1088114, Control_c, 0, 67, 79
1, 1088125, Note_off_c, 0, 62, 55
1, 1088129, Control_c, 0, 67, 81
1, 1088144, Control_c, 0, 67, 83
1, 1088150, Note_on_c, 0, 54, 50
1, 1088159, Control_c, 0, 67, 84
1, 1088174, Control_c, 0, 67, 86
1, 1088188, Control_c, 0, 67, 87
1, 1088193, Note_off_c, 0, 50, 55
1, 1088203, Control_c, 0, 67, 88
1, 1088204, Note_off_c, 0, 66, 62
1, 1088218, Control_c, 0, 67, 90
1, 1088223, Note_off_c, 0, 78, 61
1, 1088233, Control_c, 0, 67, 91
1, 1088248, Control_c, 0, 67, 92
1, 1088263, Control_c, 0, 67, 93
1, 1088278, Control_c, 0, 67, 93
1, 1088293, Control_c, 0, 67, 94
1, 1088308, Control_c, 0, 67, 95
1, 1088323, Control_c, 0, 67, 96
1, 1088338, Control_c, 0, 67, 97
1, 1088352, Control_c, 0, 67, 98
1, 1088367, Control_c, 0, 67, 99
1, 1088368, Note_off_c, 0, 54, 62
1, 1088371, Note_on_c, 0, 66, 53
1, 1088382, Note_on_c, 0, 57, 41
1, 1088382, Control_c, 0, 67, 100
1, 1088397, Control_c, 0, 67, 102
1, 1088412, Control_c, 0, 67, 104
1, 1088427, Control_c, 0, 67, 106
1, 1088441, Control_c, 0, 67, 108
1, 1088456, Control_c, 0, 67, 110
1, 1088471, Control_c, 0, 67, 113
1, 1088485, Control_c, 0, 67, 115
1, 1088500, Control_c, 0, 67, 118
1, 1088515, Control_c, 0, 67, 122
1, 1088530, Control_c, 0, 67, 125
1, 1088545, Control_c, 0, 67, 127
1, 1088633, Note_on_c, 0, 73, 55
1, 1088635, Note_on_c, 0, 45, 45
1, 1088663, Note_off_c, 0, 66, 55
1, 1088667, Note_off_c, 0, 57, 41
1, 1088860, Note_on_c, 0, 66, 46
1, 1088865, Note_on_c, 0, 57, 53
1, 1088889, Note_off_c, 0, 57, 59
1, 1088889, Note_off_c, 0, 66, 59
1, 1088959, Note_on_c, 0, 67, 57
1, 1088977, Note_on_c, 0, 59, 56
1, 1089000, Note_off_c, 0, 59, 59
1, 1089011, Note_off_c, 0, 67, 53
1, 1089096, Note_on_c, 0, 64, 50
1, 1089121, Note_on_c, 0, 55, 40
1, 1089153, Note_off_c, 0, 55, 53
1, 1089160, Note_off_c, 0, 64, 59
1, 1089342, Note_off_c, 0, 45, 41
1, 1089396, Note_on_c, 0, 74, 40
1, 1089408, Note_on_c, 0, 50, 26
1, 1089412, Note_off_c, 0, 73, 36
1, 1089419, Note_on_c, 0, 62, 29
1, 1089433, Note_on_c, 0, 54, 23
1, 1089522, Control_c, 0, 64, 45
1, 1089537, Control_c, 0, 64, 57
1, 1089552, Control_c, 0, 64, 62
1, 1089567, Control_c, 0, 64, 65
1, 1089581, Control_c, 0, 64, 68
1, 1089596, Control_c, 0, 64, 71
1, 1089611, Control_c, 0, 64, 74
1, 1089626, Control_c, 0, 64, 78
1, 1089640, Control_c, 0, 64, 79
1, 1089655, Control_c, 0, 64, 79
1, 1089670, Control_c, 0, 64, 80
1, 1089685, Control_c, 0, 64, 80
1, 1089695, Note_off_c, 0, 54, 40
1, 1089696, Note_off_c, 0, 50, 45
1, 1089700, Control_c, 0, 67, 124
1, 1089715, Control_c, 0, 67, 119
1, 1089730, Control_c, 0, 67, 112
1, 1089730, Note_off_c, 0, 74, 58
1, 1089735, Note_off_c, 0, 62, 42
1, 1089745, Control_c, 0, 67, 103
1, 1089759, Control_c, 0, 67, 93
1, 1089774, Control_c, 0, 67, 82
1, 1089789, Control_c, 0, 67, 73
1, 1089804, Control_c, 0, 64, 78
1, 1089804, Control_c, 0, 67, 62
1, 1089819, Control_c, 0, 64, 75
1, 1089819, Control_c, 0, 67, 52
1, 1089834, Control_c, 0, 64, 70
1, 1089834, Control_c, 0, 67, 42
1, 1089849, Control_c, 0, 64, 64
1, 1089849, Control_c, 0, 67, 33
1, 1089864, Control_c, 0, 64, 53
1, 1089864, Control_c, 0, 67, 24
1, 1089879, Control_c, 0, 64, 0
1, 1089879, Control_c, 0, 67, 17
1, 1089894, Control_c, 0, 67, 10
1, 1089908, Control_c, 0, 67, 0
1, 1090112, Note_on_c, 0, 66, 95
1, 1090114, Note_on_c, 0, 54, 66
1, 1090145, Control_c, 0, 64, 54
1, 1090160, Control_c, 0, 64, 69
1, 1090175, Control_c, 0, 64, 89
1, 1090190, Control_c, 0, 64, 127
1, 1090194, Note_off_c, 0, 66, 68
1, 1090217, Note_off_c, 0, 54, 59
1, 1090463, Control_c, 0, 64, 78
1, 1090464, Note_on_c, 0, 74, 91
1, 1090471, Note_on_c, 0, 62, 85
1, 1090471, Note_on_c, 0, 66, 82
1, 1090472, Note_on_c, 0, 47, 59
1, 1090472, Note_on_c, 0, 59, 61
1, 1090474, Note_on_c, 0, 54, 59
1, 1090478, Control_c, 0, 64, 0
1, 1090552, Control_c, 0, 64, 62
1, 1090567, Control_c, 0, 64, 70
1, 1090582, Control_c, 0, 64, 81
1, 1090597, Control_c, 0, 64, 97
1, 1090604, Note_off_c, 0, 62, 58
1, 1090612, Control_c, 0, 64, 127
1, 1090612, Note_off_c, 0, 66, 63
1, 1090621, Note_off_c, 0, 74, 59
1, 1090622, Note_off_c, 0, 59, 59
1, 1090630, Note_off_c, 0, 47, 63
1, 1090636, Note_off_c, 0, 54, 61
1, 1090761, Control_c, 0, 64, 118
1, 1090776, Control_c, 0, 64, 94
1, 1090781, Note_on_c, 0, 74, 78
1, 1090784, Note_on_c, 0, 62, 80
1, 1090786, Note_on_c, 0, 66, 74
1, 1090788, Note_on_c, 0, 54, 69
1, 1090791, Control_c, 0, 64, 76
1, 1090793, Note_on_c, 0, 47, 68
1, 1090794, Note_on_c, 0, 59, 66
1, 1090806, Control_c, 0, 64, 65
1, 1090812, Note_off_c, 0, 66, 62
1, 1090814, Note_off_c, 0, 47, 62
1, 1090815, Note_off_c, 0, 62, 61
1, 1090817, Note_off_c, 0, 59, 60
1, 1090819, Note_off_c, 0, 54, 63
1, 1090821, Control_c, 0, 64, 48
1, 1090827, Note_off_c, 0, 74, 61
1, 1090835, Control_c, 0, 64, 0
1, 1090878, Note_on_c, 0, 54, 84
1, 1090880, Note_on_c, 0, 74, 72
1, 1090881, Note_on_c, 0, 59, 72
1, 1090884, Note_on_c, 0, 47, 67
1, 1090886, Note_on_c, 0, 62, 79
1, 1090888, Note_on_c, 0, 66, 81
1, 1090913, Note_off_c, 0, 59, 61
1, 1090917, Note_off_c, 0, 47, 66
1, 1090918, Note_off_c, 0, 62, 61
1, 1090919, Note_off_c, 0, 66, 64
1, 1090920, Note_off_c, 0, 54, 61
1, 1090925, Note_off_c, 0, 74, 64
1, 1090981, Note_on_c, 0, 74, 79
1, 1090982, Note_on_c, 0, 54, 68
1, 1090984, Note_on_c, 0, 62, 80
1, 1090984, Note_on_c, 0, 66, 82
1, 1090985, Note_on_c, 0, 47, 76
1, 1090987, Note_on_c, 0, 59, 70
1, 1091013, Note_off_c, 0, 59, 66
1, 1091015, Note_off_c, 0, 62, 61
1, 1091017, Note_off_c, 0, 47, 62
1, 1091017, Note_off_c, 0, 54, 65
1, 1091018, Note_off_c, 0, 66, 65
1, 1091023, Note_off_c, 0, 74, 63
1, 1091068, Note_on_c, 0, 74, 73
1, 1091070, Note_on_c, 0, 66, 77
1, 1091074, Note_on_c, 0, 54, 67
1, 1091074, Note_on_c, 0, 47, 68
1, 1091075, Note_on_c, 0, 59, 73
1, 1091075, Note_on_c, 0, 62, 78
1, 1091107, Note_off_c, 0, 59, 58
1, 1091117, Note_off_c, 0, 47, 62
1, 1091119, Note_off_c, 0, 62, 58
1, 1091120, Note_off_c, 0, 74, 64
1, 1091122, Note_off_c, 0, 54, 60
1, 1091125, Note_off_c, 0, 66, 64
1, 1091197, Note_on_c, 0, 71, 81
1, 1091208, Note_on_c, 0, 59, 57
1, 1091216, Note_on_c, 0, 62, 60
1, 1091216, Note_on_c, 0, 66, 63
1, 1091220, Note_on_c, 0, 50, 51
1, 1091220, Note_on_c, 0, 54, 32
1, 1091382, Note_off_c, 0, 62, 57
1, 1091388, Note_off_c, 0, 59, 61
1, 1091392, Note_off_c, 0, 66, 63
1, 1091396, Note_off_c, 0, 50, 63
1, 1091397, Note_off_c, 0, 71, 60
1, 1091399, Note_off_c, 0, 54, 57
1, 1091456, Note_on_c, 0, 71, 78
1, 1091462, Note_on_c, 0, 54, 62
1, 1091462, Note_on_c, 0, 59, 64
1, 1091462, Note_on_c, 0, 66, 74
1, 1091464, Note_on_c, 0, 62, 79
1, 1091469, Note_on_c, 0, 50, 54
1, 1091592, Note_off_c, 0, 62, 57
1, 1091597, Note_off_c, 0, 59, 60
1, 1091598, Note_off_c, 0, 54, 61
1, 1091604, Note_off_c, 0, 50, 62
1, 1091604, Note_off_c, 0, 71, 58
1, 1091605, Note_off_c, 0, 66, 63
1, 1091661, Note_on_c, 0, 71, 81
1, 1091662, Note_on_c, 0, 66, 75
1, 1091665, Note_on_c, 0, 54, 73
1, 1091667, Note_on_c, 0, 62, 87
1, 1091670, Note_on_c, 0, 59, 72
1, 1091671, Note_on_c, 0, 50, 64
1, 1091735, Note_off_c, 0, 71, 64
1, 1091752, Note_off_c, 0, 66, 61
1, 1091763, Note_off_c, 0, 59, 63
1, 1091766, Note_off_c, 0, 62, 59
1, 1091786, Note_off_c, 0, 54, 63
1, 1091790, Note_off_c, 0, 50, 64
1, 1091868, Note_on_c, 0, 66, 80
1, 1091873, Note_on_c, 0, 73, 82
1, 1091882, Note_on_c, 0, 54, 88
1, 1091883, Note_on_c, 0, 58, 80
1, 1091885, Note_on_c, 0, 42, 87
1, 1091888, Control_c, 0, 64, 58
1, 1091895, Note_on_c, 0, 64, 51
1, 1091902, Control_c, 0, 64, 127
1, 1091918, Note_off_c, 0, 54, 60
1, 1091919, Note_off_c, 0, 64, 58
1, 1091927, Note_off_c, 0, 42, 63
1, 1091927, Note_off_c, 0, 58, 60
1, 1091953, Note_off_c, 0, 66, 64
1, 1091979, Note_off_c, 0, 73, 60
1, 1092116, Note_on_c, 0, 64, 80
1, 1092117, Note_on_c, 0, 66, 77
1, 1092119, Note_on_c, 0, 73, 77
1, 1092120, Note_on_c, 0, 58, 81
1, 1092122, Note_on_c, 0, 54, 75
1, 1092139, Control_c, 0, 64, 76
1, 1092147, Note_off_c, 0, 58, 61
1, 1092148, Note_off_c, 0, 73, 56
1, 1092151, Note_off_c, 0, 64, 59
1, 1092151, Note_off_c, 0, 66, 60
1, 1092154, Note_off_c, 0, 54, 64
1, 1092154, Control_c, 0, 64, 0
1, 1092210, Note_on_c, 0, 58, 78
1, 1092214, Note_on_c, 0, 54, 82
1, 1092217, Note_on_c, 0, 64, 81
1, 1092217, Note_on_c, 0, 73, 84
1, 1092219, Note_on_c, 0, 66, 81
1, 1092249, Note_off_c, 0, 58, 62
1, 1092249, Note_off_c, 0, 66, 65
1, 1092252, Note_off_c, 0, 54, 60
1, 1092254, Note_off_c, 0, 64, 60
1, 1092263, Note_off_c, 0, 73, 59
1, 1092308, Note_on_c, 0, 58, 74
1, 1092314, Note_on_c, 0, 54, 75
1, 1092315, Note_on_c, 0, 73, 74
1, 1092316, Note_on_c, 0, 66, 79
1, 1092318, Note_on_c, 0, 64, 76
1, 1092341, Note_off_c, 0, 58, 63
1, 1092342, Note_off_c, 0, 54, 65
1, 1092344, Note_off_c, 0, 64, 64
1, 1092346, Note_off_c, 0, 73, 60
1, 1092354, Note_off_c, 0, 66, 65
1, 1092411, Note_on_c, 0, 73, 83
1, 1092415, Note_on_c, 0, 58, 84
1, 1092416, Note_on_c, 0, 54, 80
1, 1092416, Note_on_c, 0, 64, 78
1, 1092418, Note_on_c, 0, 66, 68
1, 1092451, Note_off_c, 0, 66, 68
1, 1092461, Note_off_c, 0, 58, 58
1, 1092467, Note_off_c, 0, 64, 60
1, 1092476, Note_off_c, 0, 54, 59
1, 1092476, Note_off_c, 0, 73, 58
1, 1092618, Note_on_c, 0, 66, 94
1, 1092621, Note_on_c, 0, 64, 87
1, 1092628, Note_on_c, 0, 49, 73
1, 1092631, Note_on_c, 0, 58, 77
1, 1092636, Note_on_c, 0, 54, 67
1, 1092711, Control_c, 0, 64, 26
1, 1092725, Control_c, 0, 64, 58
1, 1092740, Control_c, 0, 64, 65
1, 1092755, Control_c, 0, 64, 72
1, 1092770, Control_c, 0, 64, 86
1, 1092785, Control_c, 0, 64, 116
1, 1092799, Control_c, 0, 64, 127
1, 1093161, Note_off_c, 0, 64, 58
1, 1093166, Note_off_c, 0, 58, 60
1, 1093180, Note_off_c, 0, 66, 60
1, 1093184, Note_off_c, 0, 54, 58
1, 1093219, Note_off_c, 0, 49, 61
1, 1093326, Control_c, 0, 64, 95
1, 1093341, Control_c, 0, 64, 59
1, 1093355, Control_c, 0, 64, 0
1, 1093444, Control_c, 0, 64, 61
1, 1093459, Note_on_c, 0, 62, 84
1, 1093459, Note_on_c, 0, 71, 76
1, 1093459, Control_c, 0, 64, 80
1, 1093460, Note_on_c, 0, 59, 83
1, 1093460, Note_on_c, 0, 66, 81
1, 1093464, Note_on_c, 0, 47, 81
1, 1093464, Note_on_c, 0, 54, 75
1, 1093467, Note_on_c, 0, 50, 73
1, 1093474, Control_c, 0, 64, 127
1, 1093503, Note_off_c, 0, 54, 59
1, 1093503, Note_off_c, 0, 71, 60
1, 1093510, Note_off_c, 0, 59, 62
1, 1093511, Note_off_c, 0, 50, 59
1, 1093516, Note_off_c, 0, 62, 61
1, 1093527, Note_off_c, 0, 47, 62
1, 1093548, Note_off_c, 0, 66, 65
1, 1093697, Note_on_c, 0, 58, 82
1, 1093700, Note_on_c, 0, 70, 80
1, 1093710, Note_on_c, 0, 54, 75
1, 1093711, Control_c, 0, 64, 93
1, 1093712, Note_on_c, 0, 50, 75
1, 1093712, Note_on_c, 0, 47, 74
1, 1093726, Control_c, 0, 64, 57
1, 1093733, Note_off_c, 0, 54, 68
1, 1093739, Note_off_c, 0, 50, 66
1, 1093739, Note_off_c, 0, 58, 63
1, 1093741, Control_c, 0, 64, 0
1, 1093742, Note_off_c, 0, 47, 67
1, 1093750, Note_off_c, 0, 70, 61
1, 1093804, Note_on_c, 0, 50, 76
1, 1093804, Note_on_c, 0, 54, 74
1, 1093807, Note_on_c, 0, 59, 78
1, 1093809, Note_on_c, 0, 47, 78
1, 1093813, Note_on_c, 0, 71, 70
1, 1093832, Note_off_c, 0, 54, 63
1, 1093833, Note_off_c, 0, 59, 66
1, 1093835, Note_off_c, 0, 50, 65
1, 1093838, Note_off_c, 0, 47, 66
1, 1093840, Note_off_c, 0, 71, 67
1, 1093891, Note_on_c, 0, 71, 73
1, 1093892, Note_on_c, 0, 54, 77
1, 1093894, Note_on_c, 0, 59, 77
1, 1093895, Note_on_c, 0, 50, 70
1, 1093906, Note_on_c, 0, 47, 73
1, 1093915, Note_off_c, 0, 59, 71
1, 1093918, Note_off_c, 0, 54, 65
1, 1093923, Note_off_c, 0, 71, 63
1, 1093927, Note_off_c, 0, 50, 66
1, 1093932, Note_off_c, 0, 47, 67
1, 1093998, Note_on_c, 0, 47, 81
1, 1094001, Note_on_c, 0, 73, 90
1, 1094002, Note_on_c, 0, 54, 74
1, 1094003, Note_on_c, 0, 50, 79
1, 1094003, Note_on_c, 0, 61, 82
1, 1094025, Note_off_c, 0, 54, 65
1, 1094028, Note_off_c, 0, 61, 65
1, 1094029, Note_off_c, 0, 50, 66
1, 1094035, Note_off_c, 0, 47, 62
1, 1094047, Note_off_c, 0, 73, 62
1, 1094089, Note_on_c, 0, 62, 91
1, 1094091, Note_on_c, 0, 74, 86
1, 1094094, Note_on_c, 0, 55, 86
1, 1094100, Note_on_c, 0, 43, 79
1, 1094100, Note_on_c, 0, 47, 70
1, 1094100, Note_on_c, 0, 50, 74
1, 1094125, Note_off_c, 0, 50, 65
1, 1094132, Note_off_c, 0, 74, 64
1, 1094133, Note_off_c, 0, 62, 63
1, 1094134, Note_off_c, 0, 55, 57
1, 1094137, Note_off_c, 0, 47, 66
1, 1094151, Note_off_c, 0, 43, 56
1, 1094314, Note_on_c, 0, 74, 86
1, 1094317, Note_on_c, 0, 62, 83
1, 1094321, Note_on_c, 0, 55, 76
1, 1094323, Note_on_c, 0, 47, 70
1, 1094329, Note_on_c, 0, 50, 68
1, 1094333, Note_on_c, 0, 43, 60
1, 1094357, Note_off_c, 0, 55, 60
1, 1094366, Note_off_c, 0, 50, 62
1, 1094369, Note_off_c, 0, 74, 65
1, 1094370, Note_off_c, 0, 43, 60
1, 1094370, Note_off_c, 0, 62, 61
1, 1094386, Note_off_c, 0, 47, 61
1, 1094524, Note_on_c, 0, 47, 68
1, 1094525, Note_on_c, 0, 74, 85
1, 1094526, Note_on_c, 0, 55, 73
1, 1094527, Note_on_c, 0, 62, 84
1, 1094530, Note_on_c, 0, 43, 69
1, 1094532, Note_on_c, 0, 50, 63
1, 1094560, Note_off_c, 0, 50, 64
1, 1094562, Note_off_c, 0, 55, 62
1, 1094575, Note_off_c, 0, 62, 60
1, 1094579, Note_off_c, 0, 74, 64
1, 1094583, Note_off_c, 0, 47, 64
1, 1094594, Note_off_c, 0, 43, 62
1, 1094734, Note_on_c, 0, 76, 84
1, 1094736, Note_on_c, 0, 64, 85
1, 1094737, Note_on_c, 0, 52, 98
1, 1094738, Note_on_c, 0, 49, 85
1, 1094740, Note_on_c, 0, 46, 81
1, 1094742, Note_on_c, 0, 67, 76
1, 1094743, Note_on_c, 0, 70, 74
1, 1094746, Note_on_c, 0, 40, 75
1, 1094771, Note_off_c, 0, 52, 57
1, 1094777, Note_off_c, 0, 46, 59
1, 1094784, Note_off_c, 0, 49, 60
1, 1094784, Note_off_c, 0, 64, 65
1, 1094787, Note_off_c, 0, 40, 59
1, 1094787, Note_off_c, 0, 67, 59
1, 1094796, Note_off_c, 0, 70, 62
1, 1094809, Note_off_c, 0, 76, 64
1, 1094951, Note_on_c, 0, 52, 100
1, 1094951, Note_on_c, 0, 64, 91
1, 1094951, Note_on_c, 0, 76, 92
1, 1094952, Note_on_c, 0, 49, 88
1, 1094953, Note_on_c, 0, 46, 87
1, 1094955, Note_on_c, 0, 67, 82
1, 1094955, Note_on_c, 0, 70, 77
1, 1094958, Note_on_c, 0, 40, 79
1, 1095006, Note_off_c, 0, 40, 56
1, 1095018, Note_off_c, 0, 52, 55
1, 1095020, Note_off_c, 0, 46, 59
1, 1095021, Note_off_c, 0, 67, 52
1, 1095023, Note_off_c, 0, 49, 54
1, 1095030, Note_off_c, 0, 76, 60
1, 1095032, Note_off_c, 0, 70, 57
1, 1095036, Note_off_c, 0, 64, 61
1, 1095195, Note_on_c, 0, 49, 89
1, 1095196, Note_on_c, 0, 64, 94
1, 1095196, Note_on_c, 0, 67, 82
1, 1095197, Note_on_c, 0, 46, 91
1, 1095197, Note_on_c, 0, 52, 94
1, 1095197, Note_on_c, 0, 70, 84
1, 1095197, Note_on_c, 0, 76, 91
1, 1095202, Note_on_c, 0, 40, 87
1, 1095258, Note_off_c, 0, 52, 60
1, 1095267, Note_off_c, 0, 67, 62
1, 1095276, Note_off_c, 0, 49, 61
1, 1095278, Note_off_c, 0, 64, 61
1, 1095290, Note_off_c, 0, 70, 64
1, 1095294, Note_off_c, 0, 40, 64
1, 1095301, Note_off_c, 0, 46, 63
1, 1095308, Note_off_c, 0, 76, 64
1, 1095569, Note_on_c, 0, 79, 93
1, 1095571, Note_on_c, 0, 67, 91
1, 1095571, Note_on_c, 0, 76, 82
1, 1095574, Note_on_c, 0, 69, 101
1, 1095575, Note_on_c, 0, 49, 98
1, 1095577, Note_on_c, 0, 37, 89
1, 1095584, Note_on_c, 0, 45, 79
1, 1095587, Control_c, 0, 64, 47
1, 1095602, Control_c, 0, 64, 74
1, 1095617, Control_c, 0, 64, 127
1, 1095625, Note_off_c, 0, 37, 67
1, 1095638, Note_off_c, 0, 49, 65
1, 1095659, Note_off_c, 0, 45, 64
1, 1095872, Note_off_c, 0, 67, 60
1, 1095920, Note_off_c, 0, 69, 61
1, 1095947, Note_off_c, 0, 79, 39
1, 1096073, Note_off_c, 0, 76, 59
1, 1096648, Control_c, 0, 64, 119
1, 1096663, Control_c, 0, 64, 85
1, 1096678, Control_c, 0, 64, 70
1, 1096693, Control_c, 0, 64, 35
1, 1096707, Control_c, 0, 64, 0
1, 1096838, Note_on_c, 0, 90, 66
1, 1096865, Note_on_c, 0, 78, 48
1, 1096869, Note_on_c, 0, 50, 35
1, 1096929, Control_c, 0, 64, 46
1, 1096950, Control_c, 0, 64, 61
1, 1096965, Control_c, 0, 64, 66
1, 1096980, Control_c, 0, 64, 71
1, 1096987, Note_off_c, 0, 78, 54
1, 1096995, Control_c, 0, 64, 78
1, 1097010, Control_c, 0, 64, 87
1, 1097026, Control_c, 0, 64, 98
1, 1097041, Control_c, 0, 64, 106
1, 1097045, Note_off_c, 0, 90, 61
1, 1097055, Control_c, 0, 64, 111
1, 1097070, Control_c, 0, 64, 113
1, 1097176, Note_on_c, 0, 90, 74
1, 1097187, Note_on_c, 0, 57, 47
1, 1097200, Note_on_c, 0, 78, 61
1, 1097270, Note_off_c, 0, 78, 53
1, 1097292, Control_c, 0, 64, 112
1, 1097295, Note_off_c, 0, 90, 61
1, 1097322, Control_c, 0, 64, 111
1, 1097337, Control_c, 0, 64, 110
1, 1097352, Control_c, 0, 64, 109
1, 1097366, Control_c, 0, 64, 107
1, 1097381, Control_c, 0, 64, 106
1, 1097396, Control_c, 0, 64, 104
1, 1097408, Note_on_c, 0, 90, 82
1, 1097411, Control_c, 0, 64, 102
1, 1097417, Note_on_c, 0, 58, 50
1, 1097426, Control_c, 0, 64, 99
1, 1097440, Control_c, 0, 64, 97
1, 1097441, Note_on_c, 0, 78, 51
1, 1097455, Control_c, 0, 64, 93
1, 1097470, Control_c, 0, 64, 89
1, 1097485, Control_c, 0, 64, 86
1, 1097494, Note_off_c, 0, 50, 37
1, 1097500, Control_c, 0, 64, 83
1, 1097514, Control_c, 0, 64, 80
1, 1097520, Note_off_c, 0, 57, 33
1, 1097529, Control_c, 0, 64, 77
1, 1097544, Control_c, 0, 64, 72
1, 1097559, Control_c, 0, 64, 67
1, 1097573, Control_c, 0, 64, 60
1, 1097588, Control_c, 0, 64, 31
1, 1097603, Control_c, 0, 64, 0
1, 1097701, Note_off_c, 0, 58, 58
1, 1097710, Note_on_c, 0, 59, 45
1, 1097724, Note_on_c, 0, 55, 43
1, 1097744, Control_c, 0, 64, 45
1, 1097759, Control_c, 0, 64, 62
1, 1097773, Control_c, 0, 64, 66
1, 1097773, Control_c, 0, 67, 9
1, 1097788, Control_c, 0, 64, 68
1, 1097788, Control_c, 0, 67, 14
1, 1097803, Control_c, 0, 64, 70
1, 1097803, Control_c, 0, 67, 18
1, 1097819, Control_c, 0, 64, 71
1, 1097819, Control_c, 0, 67, 21
1, 1097827, Note_off_c, 0, 78, 62
1, 1097833, Note_off_c, 0, 90, 63
1, 1097834, Control_c, 0, 67, 25
1, 1097849, Control_c, 0, 67, 27
1, 1097864, Control_c, 0, 67, 30
1, 1097878, Control_c, 0, 67, 32
1, 1097893, Control_c, 0, 67, 35
1, 1097908, Control_c, 0, 67, 37
1, 1097923, Control_c, 0, 67, 39
1, 1097938, Control_c, 0, 64, 71
1, 1097938, Control_c, 0, 67, 42
1, 1097952, Control_c, 0, 67, 44
1, 1097967, Note_off_c, 0, 59, 62
1, 1097967, Control_c, 0, 67, 47
1, 1097982, Control_c, 0, 64, 70
1, 1097982, Control_c, 0, 67, 49
1, 1097984, Note_on_c, 0, 88, 65
1, 1097988, Note_on_c, 0, 76, 59
1, 1097993, Note_on_c, 0, 64, 56
1, 1097996, Control_c, 0, 64, 70
1, 1097996, Control_c, 0, 67, 51
1, 1098011, Note_off_c, 0, 88, 66
1, 1098011, Control_c, 0, 64, 69
1, 1098011, Control_c, 0, 67, 53
1, 1098016, Note_off_c, 0, 76, 65
1, 1098026, Control_c, 0, 64, 69
1, 1098026, Control_c, 0, 67, 56
1, 1098041, Control_c, 0, 64, 68
1, 1098041, Control_c, 0, 67, 59
1, 1098056, Control_c, 0, 64, 67
1, 1098056, Control_c, 0, 67, 62
1, 1098070, Control_c, 0, 64, 67
1, 1098070, Control_c, 0, 67, 66
1, 1098085, Control_c, 0, 67, 69
1, 1098094, Note_on_c, 0, 86, 65
1, 1098100, Note_on_c, 0, 74, 61
1, 1098100, Control_c, 0, 64, 66
1, 1098100, Control_c, 0, 67, 73
1, 1098115, Control_c, 0, 67, 77
1, 1098122, Note_off_c, 0, 86, 66
1, 1098128, Note_off_c, 0, 74, 68
1, 1098130, Control_c, 0, 64, 66
1, 1098130, Control_c, 0, 67, 80
1, 1098145, Control_c, 0, 67, 83
1, 1098160, Control_c, 0, 64, 65
1, 1098160, Control_c, 0, 67, 86
1, 1098175, Control_c, 0, 67, 90
1, 1098180, Note_off_c, 0, 64, 59
1, 1098189, Control_c, 0, 67, 94
1, 1098198, Note_on_c, 0, 86, 66
1, 1098199, Note_on_c, 0, 67, 50
1, 1098204, Control_c, 0, 64, 65
1, 1098204, Control_c, 0, 67, 99
1, 1098213, Note_on_c, 0, 74, 53
1, 1098219, Control_c, 0, 67, 103
1, 1098223, Note_off_c, 0, 86, 65
1, 1098234, Note_off_c, 0, 74, 63
1, 1098234, Control_c, 0, 67, 108
1, 1098249, Control_c, 0, 64, 64
1, 1098249, Control_c, 0, 67, 112
1, 1098263, Control_c, 0, 67, 116
1, 1098278, Control_c, 0, 67, 120
1, 1098293, Control_c, 0, 67, 124
1, 1098303, Note_on_c, 0, 83, 70
1, 1098305, Note_on_c, 0, 71, 69
1, 1098308, Control_c, 0, 64, 64
1, 1098308, Control_c, 0, 67, 127
1, 1098332, Note_off_c, 0, 83, 59
1, 1098334, Note_off_c, 0, 71, 63
1, 1098337, Control_c, 0, 64, 63
1, 1098352, Control_c, 0, 64, 63
1, 1098367, Control_c, 0, 64, 62
1, 1098375, Note_off_c, 0, 55, 0
1, 1098382, Control_c, 0, 64, 60
1, 1098396, Control_c, 0, 64, 54
1, 1098411, Control_c, 0, 64, 30
1, 1098420, Poly_aftertouch_c, 0, 55, 0
1, 1098421, Note_on_c, 0, 81, 74
1, 1098424, Note_on_c, 0, 57, 48
1, 1098425, Note_off_c, 0, 67, 38
1, 1098426, Control_c, 0, 64, 0
1, 1098433, Note_on_c, 0, 69, 68
1, 1098498, Note_off_c, 0, 81, 58
1, 1098499, Note_off_c, 0, 69, 63
1, 1098654, Note_on_c, 0, 81, 69
1, 1098656, Note_on_c, 0, 69, 66
1, 1098671, Note_on_c, 0, 61, 47
1, 1098681, Note_off_c, 0, 81, 65
1, 1098684, Note_off_c, 0, 69, 67
1, 1098758, Note_on_c, 0, 83, 70
1, 1098768, Note_on_c, 0, 71, 63
1, 1098783, Note_off_c, 0, 83, 64
1, 1098798, Note_off_c, 0, 71, 64
1, 1098851, Note_off_c, 0, 61, 60
1, 1098887, Note_on_c, 0, 79, 68
1, 1098896, Note_on_c, 0, 64, 35
1, 1098904, Note_on_c, 0, 67, 55
1, 1098952, Note_off_c, 0, 64, 52
1, 1098953, Note_off_c, 0, 79, 60
1, 1098961, Note_off_c, 0, 67, 50
1, 1099161, Note_on_c, 0, 78, 62
1, 1099165, Note_off_c, 0, 57, 46
1, 1099173, Note_on_c, 0, 66, 43
1, 1099203, Note_on_c, 0, 62, 38
1, 1099212, Note_on_c, 0, 50, 39
1, 1099271, Control_c, 0, 64, 26
1, 1099286, Control_c, 0, 64, 58
1, 1099301, Control_c, 0, 64, 64
1, 1099316, Control_c, 0, 64, 64
1, 1099331, Control_c, 0, 64, 65
1, 1099345, Control_c, 0, 64, 65
1, 1099360, Control_c, 0, 64, 66
1, 1099417, Note_off_c, 0, 62, 48
1, 1099438, Note_on_c, 0, 54, 44
1, 1099474, Note_off_c, 0, 66, 62
1, 1099476, Note_off_c, 0, 50, 53
1, 1099480, Control_c, 0, 64, 65
1, 1099491, Note_off_c, 0, 78, 61
1, 1099495, Control_c, 0, 64, 64
1, 1099510, Control_c, 0, 64, 60
1, 1099524, Control_c, 0, 64, 49
1, 1099539, Control_c, 0, 64, 0
1, 1099651, Note_off_c, 0, 54, 62
1, 1099661, Note_on_c, 0, 66, 56
1, 1099667, Note_on_c, 0, 57, 49
1, 1099894, Note_on_c, 0, 45, 54
1, 1099899, Note_on_c, 0, 73, 66
1, 1099903, Note_off_c, 0, 57, 55
1, 1099909, Note_off_c, 0, 66, 64
1, 1100106, Note_on_c, 0, 66, 50
1, 1100107, Note_on_c, 0, 57, 61
1, 1100136, Note_off_c, 0, 57, 65
1, 1100137, Note_off_c, 0, 66, 61
1, 1100200, Note_on_c, 0, 67, 57
1, 1100210, Note_on_c, 0, 59, 61
1, 1100231, Note_off_c, 0, 59, 62
1, 1100243, Note_off_c, 0, 67, 56
1, 1100315, Note_on_c, 0, 64, 61
1, 1100329, Note_on_c, 0, 55, 61
1, 1100354, Note_off_c, 0, 55, 66
1, 1100364, Note_off_c, 0, 64, 56
1, 1100543, Note_on_c, 0, 74, 53
1, 1100553, Note_off_c, 0, 73, 34
1, 1100553, Note_off_c, 0, 45, 40
1, 1100556, Note_on_c, 0, 54, 49
1, 1100559, Note_on_c, 0, 62, 42
1, 1100561, Note_on_c, 0, 50, 47
1, 1100570, Control_c, 0, 64, 49
1, 1100584, Control_c, 0, 64, 65
1, 1100595, Note_off_c, 0, 50, 64
1, 1100599, Control_c, 0, 64, 73
1, 1100603, Note_off_c, 0, 54, 61
1, 1100610, Note_off_c, 0, 62, 43
1, 1100614, Control_c, 0, 64, 78
1, 1100629, Control_c, 0, 64, 83
1, 1100644, Control_c, 0, 64, 87
1, 1100658, Control_c, 0, 64, 89
1, 1100725, Control_c, 0, 64, 89
1, 1100725, Control_c, 0, 67, 120
1, 1100739, Control_c, 0, 64, 85
1, 1100739, Control_c, 0, 67, 107
1, 1100740, Note_off_c, 0, 74, 62
1, 1100754, Control_c, 0, 64, 79
1, 1100754, Control_c, 0, 67, 94
1, 1100769, Control_c, 0, 64, 72
1, 1100769, Control_c, 0, 67, 82
1, 1100774, Note_on_c, 0, 62, 57
1, 1100784, Control_c, 0, 64, 66
1, 1100784, Control_c, 0, 67, 71
1, 1100798, Control_c, 0, 64, 60
1, 1100798, Control_c, 0, 67, 59
1, 1100813, Control_c, 0, 64, 51
1, 1100813, Control_c, 0, 67, 46
1, 1100828, Control_c, 0, 64, 37
1, 1100828, Control_c, 0, 67, 36
1, 1100843, Control_c, 0, 64, 21
1, 1100843, Control_c, 0, 67, 29
1, 1100858, Control_c, 0, 64, 0
1, 1100858, Control_c, 0, 67, 22
1, 1100872, Control_c, 0, 67, 15
1, 1100887, Control_c, 0, 67, 8
1, 1100902, Control_c, 0, 67, 0
1, 1100983, Note_on_c, 0, 81, 80
1, 1101008, Note_on_c, 0, 69, 55
1, 1101026, Note_on_c, 0, 66, 44
1, 1101028, Note_off_c, 0, 62, 58
1, 1101253, Note_on_c, 0, 57, 49
1, 1101292, Note_off_c, 0, 66, 54
1, 1101314, Note_off_c, 0, 69, 63
1, 1101333, Note_off_c, 0, 81, 61
1, 1101461, Note_on_c, 0, 81, 74
1, 1101473, Note_on_c, 0, 69, 53
1, 1101489, Note_on_c, 0, 61, 46
1, 1101493, Note_off_c, 0, 81, 58
1, 1101494, Note_off_c, 0, 69, 62
1, 1101564, Note_on_c, 0, 83, 69
1, 1101573, Note_on_c, 0, 71, 61
1, 1101589, Note_off_c, 0, 83, 65
1, 1101604, Note_off_c, 0, 71, 65
1, 1101658, Note_off_c, 0, 61, 60
1, 1101686, Note_on_c, 0, 79, 75
1, 1101692, Note_on_c, 0, 64, 50
1, 1101704, Note_on_c, 0, 67, 57
1, 1101750, Note_off_c, 0, 64, 56
1, 1101766, Note_off_c, 0, 79, 60
1, 1101772, Note_off_c, 0, 67, 59
1, 1101859, Control_c, 0, 67, 8
1, 1101874, Control_c, 0, 67, 15
1, 1101889, Control_c, 0, 67, 22
1, 1101904, Control_c, 0, 67, 27
1, 1101919, Control_c, 0, 67, 33
1, 1101930, Note_off_c, 0, 57, 36
1, 1101933, Control_c, 0, 67, 38
1, 1101948, Control_c, 0, 67, 41
1, 1101950, Note_on_c, 0, 78, 71
1, 1101963, Control_c, 0, 67, 43
1, 1101972, Note_on_c, 0, 66, 43
1, 1101975, Note_on_c, 0, 62, 35
1, 1101978, Control_c, 0, 67, 46
1, 1101993, Note_on_c, 0, 50, 35
1, 1101993, Control_c, 0, 67, 48
1, 1102008, Control_c, 0, 67, 50
1, 1102023, Control_c, 0, 67, 52
1, 1102037, Control_c, 0, 67, 55
1, 1102052, Control_c, 0, 67, 56
1, 1102067, Control_c, 0, 67, 58
1, 1102082, Control_c, 0, 67, 61
1, 1102097, Control_c, 0, 67, 65
1, 1102111, Control_c, 0, 67, 68
1, 1102126, Control_c, 0, 67, 73
1, 1102141, Control_c, 0, 67, 77
1, 1102155, Control_c, 0, 67, 81
1, 1102170, Control_c, 0, 67, 85
1, 1102193, Control_c, 0, 67, 88
1, 1102208, Control_c, 0, 67, 92
1, 1102223, Control_c, 0, 67, 95
1, 1102237, Control_c, 0, 67, 100
1, 1102239, Note_off_c, 0, 62, 55
1, 1102244, Note_on_c, 0, 54, 42
1, 1102252, Control_c, 0, 67, 104
1, 1102267, Control_c, 0, 67, 108
1, 1102279, Note_off_c, 0, 66, 63
1, 1102282, Control_c, 0, 67, 112
1, 1102291, Note_off_c, 0, 50, 53
1, 1102294, Note_off_c, 0, 78, 63
1, 1102297, Control_c, 0, 67, 116
1, 1102312, Control_c, 0, 67, 119
1, 1102326, Control_c, 0, 67, 123
1, 1102341, Control_c, 0, 67, 126
1, 1102356, Control_c, 0, 67, 127
1, 1102421, Note_off_c, 0, 54, 62
1, 1102435, Note_on_c, 0, 66, 58
1, 1102447, Note_on_c, 0, 57, 52
1, 1102655, Note_off_c, 0, 57, 58
1, 1102660, Note_on_c, 0, 45, 55
1, 1102664, Note_on_c, 0, 73, 59
1, 1102668, Note_off_c, 0, 66, 62
1, 1102867, Note_on_c, 0, 57, 57
1, 1102869, Note_on_c, 0, 66, 46
1, 1102895, Note_off_c, 0, 57, 63
1, 1102899, Note_off_c, 0, 66, 58
1, 1102968, Note_on_c, 0, 67, 59
1, 1102976, Note_on_c, 0, 59, 64
1, 1103002, Note_off_c, 0, 59, 65
1, 1103014, Note_off_c, 0, 67, 54
1, 1103090, Note_on_c, 0, 64, 53
1, 1103106, Note_on_c, 0, 55, 52
1, 1103141, Note_off_c, 0, 55, 64
1, 1103168, Note_off_c, 0, 64, 60
1, 1103347, Note_off_c, 0, 73, 32
1, 1103358, Note_off_c, 0, 45, 42
1, 1103382, Note_on_c, 0, 74, 36
1, 1103383, Note_on_c, 0, 50, 38
1, 1103391, Note_on_c, 0, 62, 37
1, 1103393, Note_on_c, 0, 54, 29
1, 1103475, Control_c, 0, 64, 10
1, 1103489, Control_c, 0, 64, 51
1, 1103504, Control_c, 0, 64, 61
1, 1103519, Control_c, 0, 64, 64
1, 1103534, Control_c, 0, 64, 66
1, 1103549, Control_c, 0, 64, 69
1, 1103564, Control_c, 0, 64, 73
1, 1103579, Control_c, 0, 64, 75
1, 1103594, Control_c, 0, 64, 77
1, 1103607, Note_off_c, 0, 54, 48
1, 1103608, Control_c, 0, 64, 78
1, 1103613, Note_off_c, 0, 50, 54
1, 1103623, Control_c, 0, 64, 78
1, 1103628, Note_off_c, 0, 62, 50
1, 1103636, Note_off_c, 0, 74, 62
1, 1103638, Control_c, 0, 64, 79
1, 1103764, Control_c, 0, 64, 78
1, 1103779, Control_c, 0, 64, 75
1, 1103779, Control_c, 0, 67, 123
1, 1103794, Control_c, 0, 64, 68
1, 1103794, Control_c, 0, 67, 100
1, 1103808, Control_c, 0, 64, 61
1, 1103808, Control_c, 0, 67, 74
1, 1103823, Control_c, 0, 64, 26
1, 1103823, Control_c, 0, 67, 49
1, 1103838, Control_c, 0, 64, 0
1, 1103838, Control_c, 0, 67, 28
1, 1103853, Control_c, 0, 67, 10
1, 1103868, Control_c, 0, 67, 0
1, 1104020, Note_on_c, 0, 74, 92
1, 1104022, Note_on_c, 0, 62, 93
1, 1104023, Note_on_c, 0, 50, 77
1, 1104025, Note_on_c, 0, 38, 71
1, 1104060, Control_c, 0, 64, 22
1, 1104075, Control_c, 0, 64, 59
1, 1104089, Control_c, 0, 64, 67
1, 1104104, Control_c, 0, 64, 73
1, 1104119, Control_c, 0, 64, 79
1, 1104133, Control_c, 0, 64, 84
1, 1104148, Control_c, 0, 64, 89
1, 1104163, Control_c, 0, 64, 94
1, 1104173, Note_off_c, 0, 50, 50
1, 1104178, Control_c, 0, 64, 99
1, 1104186, Note_off_c, 0, 38, 64
1, 1104193, Control_c, 0, 64, 107
1, 1104197, Note_off_c, 0, 74, 59
1, 1104199, Note_off_c, 0, 62, 54
1, 1104209, Control_c, 0, 64, 127
1, 1104337, Note_on_c, 0, 50, 84
1, 1104337, Note_on_c, 0, 74, 89
1, 1104339, Note_on_c, 0, 62, 89
1, 1104342, Control_c, 0, 64, 78
1, 1104345, Note_on_c, 0, 38, 77
1, 1104357, Control_c, 0, 64, 34
1, 1104372, Control_c, 0, 64, 0
1, 1104438, Control_c, 0, 64, 64
1, 1104453, Control_c, 0, 64, 71
1, 1104468, Control_c, 0, 64, 75
1, 1104483, Control_c, 0, 64, 76
1, 1104490, Note_off_c, 0, 38, 63
1, 1104491, Note_off_c, 0, 50, 57
1, 1104497, Note_off_c, 0, 62, 56
1, 1104498, Control_c, 0, 64, 76
1, 1104499, Note_off_c, 0, 74, 60
1, 1104601, Control_c, 0, 64, 76
1, 1104619, Note_on_c, 0, 50, 77
1, 1104619, Note_on_c, 0, 62, 77
1, 1104619, Note_on_c, 0, 74, 72
1, 1104628, Note_on_c, 0, 38, 69
1, 1104646, Note_off_c, 0, 50, 65
1, 1104654, Note_off_c, 0, 38, 66
1, 1104658, Note_off_c, 0, 62, 58
1, 1104663, Note_off_c, 0, 74, 60
1, 1104676, Control_c, 0, 64, 75
1, 1104705, Control_c, 0, 64, 75
1, 1104720, Note_on_c, 0, 74, 70
1, 1104720, Control_c, 0, 64, 74
1, 1104726, Note_on_c, 0, 62, 77
1, 1104729, Note_on_c, 0, 50, 73
1, 1104731, Note_on_c, 0, 38, 74
1, 1104753, Note_off_c, 0, 50, 67
1, 1104756, Note_off_c, 0, 38, 67
1, 1104756, Note_off_c, 0, 62, 60
1, 1104764, Control_c, 0, 64, 74
1, 1104768, Note_off_c, 0, 74, 61
1, 1104779, Control_c, 0, 64, 73
1, 1104794, Control_c, 0, 64, 73
1, 1104819, Note_on_c, 0, 74, 73
1, 1104824, Control_c, 0, 64, 72
1, 1104825, Note_on_c, 0, 50, 73
1, 1104825, Note_on_c, 0, 62, 84
1, 1104826, Note_on_c, 0, 38, 71
1, 1104855, Note_off_c, 0, 38, 64
1, 1104856, Note_off_c, 0, 50, 65
1, 1104862, Note_off_c, 0, 62, 59
1, 1104864, Note_off_c, 0, 74, 67
1, 1104882, Control_c, 0, 64, 72
1, 1104897, Control_c, 0, 64, 71
1, 1104912, Control_c, 0, 64, 71
1, 1104920, Note_on_c, 0, 74, 75
1, 1104923, Note_on_c, 0, 62, 80
1, 1104926, Note_on_c, 0, 50, 72
1, 1104927, Control_c, 0, 64, 70
1, 1104929, Note_on_c, 0, 38, 70
1, 1104942, Control_c, 0, 64, 70
1, 1104956, Control_c, 0, 64, 69
1, 1104968, Note_off_c, 0, 74, 67
1, 1104968, Note_off_c, 0, 50, 58
1, 1104968, Note_off_c, 0, 62, 62
1, 1104969, Note_off_c, 0, 38, 62
1, 1104986, Control_c, 0, 64, 69
1, 1105017, Control_c, 0, 64, 68
1, 1105032, Control_c, 0, 64, 68
1, 1105047, Control_c, 0, 64, 65
1, 1105061, Control_c, 0, 64, 52
1, 1105076, Control_c, 0, 64, 0
1, 1105096, Note_on_c, 0, 74, 85
1, 1105109, Note_on_c, 0, 62, 81
1, 1105115, Note_on_c, 0, 48, 76
1, 1105117, Note_on_c, 0, 38, 73
1, 1105118, Note_on_c, 0, 50, 71
1, 1105138, Note_on_c, 0, 72, 93
1, 1105187, Control_c, 0, 64, 49
1, 1105202, Control_c, 0, 64, 63
1, 1105217, Control_c, 0, 64, 66
1, 1105232, Control_c, 0, 64, 67
1, 1105247, Control_c, 0, 64, 68
1, 1105261, Control_c, 0, 64, 68
1, 1105269, Note_off_c, 0, 48, 59
1, 1105270, Note_off_c, 0, 50, 60
1, 1105272, Note_off_c, 0, 74, 61
1, 1105274, Note_off_c, 0, 62, 57
1, 1105276, Control_c, 0, 64, 69
1, 1105280, Note_off_c, 0, 38, 63
1, 1105293, Note_off_c, 0, 72, 62
1, 1105400, Note_on_c, 0, 72, 76
1, 1105404, Note_on_c, 0, 62, 70
1, 1105406, Note_on_c, 0, 74, 62
1, 1105412, Note_on_c, 0, 48, 62
1, 1105415, Note_on_c, 0, 50, 57
1, 1105417, Note_on_c, 0, 38, 60
1, 1105458, Note_off_c, 0, 50, 58
1, 1105459, Note_off_c, 0, 48, 56
1, 1105467, Note_off_c, 0, 38, 60
1, 1105472, Note_off_c, 0, 62, 57
1, 1105474, Note_off_c, 0, 72, 63
1, 1105478, Note_off_c, 0, 74, 60
1, 1105610, Note_on_c, 0, 72, 69
1, 1105615, Note_on_c, 0, 62, 65
1, 1105616, Note_on_c, 0, 74, 58
1, 1105621, Note_on_c, 0, 48, 57
1, 1105624, Note_on_c, 0, 38, 57
1, 1105625, Note_on_c, 0, 50, 55
1, 1105647, Control_c, 0, 64, 69
1, 1105659, Note_off_c, 0, 50, 57
1, 1105659, Note_off_c, 0, 62, 57
1, 1105661, Note_off_c, 0, 48, 52
1, 1105663, Note_off_c, 0, 72, 65
1, 1105671, Note_off_c, 0, 74, 60
1, 1105672, Note_off_c, 0, 38, 61
1, 1105676, Control_c, 0, 64, 70
1, 1105705, Control_c, 0, 64, 70
1, 1105765, Control_c, 0, 64, 64
1, 1105779, Control_c, 0, 64, 31
1, 1105794, Control_c, 0, 64, 0
1, 1105821, Note_on_c, 0, 74, 72
1, 1105823, Note_on_c, 0, 72, 69
1, 1105835, Note_on_c, 0, 62, 68
1, 1105839, Note_on_c, 0, 46, 67
1, 1105847, Note_on_c, 0, 50, 63
1, 1105847, Note_on_c, 0, 70, 83
1, 1105855, Control_c, 0, 64, 49
1, 1105862, Note_on_c, 0, 38, 50
1, 1105870, Control_c, 0, 64, 66
1, 1105876, Note_off_c, 0, 72, 64
1, 1105884, Control_c, 0, 64, 73
1, 1105899, Control_c, 0, 64, 80
1, 1105911, Note_off_c, 0, 74, 60
1, 1105914, Control_c, 0, 64, 86
1, 1105936, Control_c, 0, 64, 93
1, 1105940, Note_off_c, 0, 62, 52
1, 1105940, Note_off_c, 0, 70, 64
1, 1105951, Control_c, 0, 64, 105
1, 1105952, Note_off_c, 0, 50, 55
1, 1105959, Note_off_c, 0, 46, 61
1, 1105966, Control_c, 0, 64, 127
1, 1105976, Note_off_c, 0, 38, 52
1, 1106040, Control_c, 0, 64, 110
1, 1106055, Control_c, 0, 64, 71
1, 1106070, Control_c, 0, 64, 57
1, 1106071, Note_on_c, 0, 70, 77
1, 1106084, Note_on_c, 0, 62, 73
1, 1106084, Control_c, 0, 64, 53
1, 1106088, Note_on_c, 0, 74, 73
1, 1106099, Control_c, 0, 64, 63
1, 1106101, Note_on_c, 0, 45, 68
1, 1106101, Note_on_c, 0, 69, 79
1, 1106103, Note_on_c, 0, 50, 66
1, 1106107, Note_on_c, 0, 38, 69
1, 1106114, Control_c, 0, 64, 69
1, 1106128, Control_c, 0, 64, 80
1, 1106135, Note_off_c, 0, 70, 60
1, 1106143, Control_c, 0, 64, 102
1, 1106158, Control_c, 0, 64, 127
1, 1106179, Note_off_c, 0, 69, 65
1, 1106195, Note_off_c, 0, 62, 55
1, 1106197, Note_off_c, 0, 45, 62
1, 1106199, Note_off_c, 0, 74, 61
1, 1106201, Note_off_c, 0, 50, 57
1, 1106211, Note_off_c, 0, 38, 60
1, 1106262, Control_c, 0, 64, 106
1, 1106277, Note_on_c, 0, 69, 87
1, 1106277, Control_c, 0, 64, 64
1, 1106291, Note_on_c, 0, 62, 84
1, 1106292, Control_c, 0, 64, 0
1, 1106292, Note_on_c, 0, 74, 79
1, 1106304, Note_on_c, 0, 43, 75
1, 1106305, Note_on_c, 0, 67, 84
1, 1106308, Note_on_c, 0, 50, 74
1, 1106312, Note_on_c, 0, 38, 65
1, 1106336, Control_c, 0, 64, 58
1, 1106351, Control_c, 0, 64, 79
1, 1106366, Control_c, 0, 64, 127
1, 1106370, Note_off_c, 0, 62, 59
1, 1106392, Note_off_c, 0, 69, 32
1, 1106394, Note_off_c, 0, 67, 62
1, 1106403, Note_off_c, 0, 74, 62
1, 1106407, Note_off_c, 0, 38, 62
1, 1106408, Note_off_c, 0, 50, 59
1, 1106416, Note_off_c, 0, 43, 60
1, 1106470, Control_c, 0, 64, 63
1, 1106479, Note_on_c, 0, 67, 91
1, 1106484, Control_c, 0, 64, 0
1, 1106486, Note_on_c, 0, 74, 84
1, 1106501, Note_on_c, 0, 65, 93
1, 1106502, Note_on_c, 0, 41, 76
1, 1106506, Note_on_c, 0, 50, 71
1, 1106516, Note_on_c, 0, 38, 63
1, 1106528, Control_c, 0, 64, 21
1, 1106543, Control_c, 0, 64, 73
1, 1106558, Control_c, 0, 64, 127
1, 1106569, Note_off_c, 0, 67, 59
1, 1106596, Note_off_c, 0, 65, 61
1, 1106596, Note_off_c, 0, 74, 63
1, 1106616, Note_off_c, 0, 50, 58
1, 1106619, Note_off_c, 0, 38, 59
1, 1106621, Note_off_c, 0, 41, 62
1, 1106686, Control_c, 0, 64, 74
1, 1106693, Note_on_c, 0, 65, 98
1, 1106700, Note_on_c, 0, 74, 83
1, 1106700, Control_c, 0, 64, 10
1, 1106715, Control_c, 0, 64, 0
1, 1106721, Note_on_c, 0, 50, 83
1, 1106722, Note_on_c, 0, 40, 80
1, 1106723, Note_on_c, 0, 64, 91
1, 1106736, Note_on_c, 0, 38, 63
1, 1106745, Control_c, 0, 64, 58
1, 1106755, Note_off_c, 0, 65, 62
1, 1106760, Control_c, 0, 64, 78
1, 1106774, Control_c, 0, 64, 127
1, 1106800, Note_off_c, 0, 74, 63
1, 1106803, Note_off_c, 0, 64, 65
1, 1106813, Note_off_c, 0, 38, 61
1, 1106829, Note_off_c, 0, 50, 57
1, 1106840, Note_off_c, 0, 40, 64
1, 1106879, Control_c, 0, 64, 69
1, 1106894, Note_on_c, 0, 64, 87
1, 1106894, Control_c, 0, 64, 0
1, 1106901, Note_on_c, 0, 74, 69
1, 1106916, Note_on_c, 0, 50, 91
1, 1106917, Note_on_c, 0, 62, 95
1, 1106917, Note_on_c, 0, 38, 90
1, 1106935, Note_off_c, 0, 64, 67
1, 1106938, Control_c, 0, 64, 23
1, 1106949, Note_on_c, 0, 70, 30
1, 1106953, Control_c, 0, 64, 69
1, 1106957, Note_off_c, 0, 50, 62
1, 1106967, Control_c, 0, 64, 127
1, 1106969, Note_off_c, 0, 38, 64
1, 1106974, Note_off_c, 0, 74, 62
1, 1106984, Note_off_c, 0, 70, 54
1, 1107026, Note_off_c, 0, 62, 55
1, 1107115, Control_c, 0, 64, 68
1, 1107130, Control_c, 0, 64, 0
1, 1107138, Note_on_c, 0, 74, 84
1, 1107138, Note_on_c, 0, 46, 98
1, 1107138, Note_on_c, 0, 62, 87
1, 1107140, Note_on_c, 0, 68, 92
1, 1107142, Note_on_c, 0, 34, 95
1, 1107170, Note_off_c, 0, 46, 60
1, 1107171, Note_off_c, 0, 34, 68
1, 1107189, Control_c, 0, 64, 64
1, 1107195, Note_off_c, 0, 62, 60
1, 1107204, Control_c, 0, 64, 127
1, 1107208, Note_off_c, 0, 74, 62
1, 1107212, Note_off_c, 0, 68, 62
1, 1107377, Note_on_c, 0, 46, 91
1, 1107378, Note_on_c, 0, 62, 79
1, 1107380, Note_on_c, 0, 34, 81
1, 1107380, Note_on_c, 0, 68, 76
1, 1107380, Note_on_c, 0, 74, 72
1, 1107398, Note_off_c, 0, 46, 69
1, 1107404, Note_off_c, 0, 34, 66
1, 1107409, Note_off_c, 0, 62, 60
1, 1107411, Note_off_c, 0, 74, 59
1, 1107429, Note_off_c, 0, 68, 58
1, 1107449, Control_c, 0, 64, 86
1, 1107463, Control_c, 0, 64, 68
1, 1107469, Note_on_c, 0, 34, 80
1, 1107472, Note_on_c, 0, 46, 87
1, 1107478, Note_on_c, 0, 68, 78
1, 1107478, Control_c, 0, 64, 52
1, 1107481, Note_on_c, 0, 74, 76
1, 1107484, Note_on_c, 0, 62, 78
1, 1107493, Control_c, 0, 64, 0
1, 1107502, Note_off_c, 0, 34, 62
1, 1107507, Note_off_c, 0, 46, 62
1, 1107511, Note_off_c, 0, 62, 64
1, 1107511, Note_off_c, 0, 74, 66
1, 1107523, Note_off_c, 0, 68, 66
1, 1107558, Note_on_c, 0, 34, 83
1, 1107571, Note_on_c, 0, 68, 77
1, 1107573, Note_on_c, 0, 46, 73
1, 1107573, Note_on_c, 0, 74, 81
1, 1107576, Note_on_c, 0, 62, 87
1, 1107591, Note_off_c, 0, 46, 64
1, 1107602, Note_off_c, 0, 34, 58
1, 1107604, Note_off_c, 0, 62, 62
1, 1107614, Note_off_c, 0, 68, 65
1, 1107633, Note_off_c, 0, 74, 0
1, 1107648, Note_on_c, 0, 46, 84
1, 1107648, Note_on_c, 0, 74, 56
1, 1107649, Note_on_c, 0, 34, 68
1, 1107653, Note_on_c, 0, 68, 65
1, 1107655, Note_on_c, 0, 62, 75
1, 1107690, Note_off_c, 0, 68, 62
1, 1107702, Note_off_c, 0, 62, 63
1, 1107704, Note_off_c, 0, 74, 66
1, 1107704, Note_off_c, 0, 46, 62
1, 1107716, Note_off_c, 0, 34, 54
1, 1107782, Note_on_c, 0, 73, 76
1, 1107788, Note_on_c, 0, 69, 80
1, 1107788, Note_on_c, 0, 64, 89
1, 1107789, Note_on_c, 0, 76, 95
1, 1107792, Note_on_c, 0, 45, 80
1, 1107797, Note_on_c, 0, 33, 73
1, 1107967, Control_c, 0, 64, 35
1, 1107982, Control_c, 0, 64, 62
1, 1107997, Control_c, 0, 64, 69
1, 1108011, Control_c, 0, 64, 79
1, 1108026, Control_c, 0, 64, 105
1, 1108041, Control_c, 0, 64, 127
1, 1108092, Note_off_c, 0, 76, 62
1, 1108107, Note_off_c, 0, 69, 66
1, 1108125, Note_off_c, 0, 73, 60
1, 1108143, Note_off_c, 0, 64, 64
1, 1108168, Note_off_c, 0, 33, 64
1, 1108205, Note_off_c, 0, 45, 63
1, 1108316, Control_c, 0, 64, 86
1, 1108330, Control_c, 0, 64, 62
1, 1108345, Control_c, 0, 64, 0
1, 1108405, Control_c, 0, 67, 14
1, 1108420, Control_c, 0, 67, 26
1, 1108435, Control_c, 0, 67, 36
1, 1108450, Control_c, 0, 67, 45
1, 1108465, Control_c, 0, 67, 54
1, 1108479, Control_c, 0, 67, 62
1, 1108483, Note_on_c, 0, 65, 50
1, 1108494, Control_c, 0, 67, 71
1, 1108499, Note_on_c, 0, 50, 38
1, 1108500, Note_on_c, 0, 56, 32
1, 1108509, Control_c, 0, 67, 78
1, 1108514, Note_on_c, 0, 46, 31
1, 1108523, Control_c, 0, 67, 86
1, 1108538, Control_c, 0, 64, 59
1, 1108538, Control_c, 0, 67, 95
1, 1108553, Control_c, 0, 64, 67
1, 1108553, Control_c, 0, 67, 105
1, 1108568, Control_c, 0, 64, 72
1, 1108568, Control_c, 0, 67, 115
1, 1108583, Control_c, 0, 64, 77
1, 1108583, Control_c, 0, 67, 125
1, 1108597, Control_c, 0, 64, 81
1, 1108597, Control_c, 0, 67, 127
1, 1108612, Control_c, 0, 64, 82
1, 1108614, Note_off_c, 0, 65, 59
1, 1108620, Note_off_c, 0, 50, 45
1, 1108627, Control_c, 0, 64, 83
1, 1108649, Note_off_c, 0, 56, 35
1, 1108655, Note_off_c, 0, 46, 34
1, 1108686, Control_c, 0, 64, 82
1, 1108701, Control_c, 0, 64, 78
1, 1108708, Note_on_c, 0, 46, 48
1, 1108716, Control_c, 0, 64, 70
1, 1108717, Note_on_c, 0, 52, 62
1, 1108718, Note_on_c, 0, 56, 50
1, 1108718, Note_on_c, 0, 64, 59
1, 1108730, Control_c, 0, 64, 53
1, 1108745, Control_c, 0, 64, 0
1, 1108749, Note_off_c, 0, 64, 65
1, 1108754, Note_off_c, 0, 46, 61
1, 1108757, Note_off_c, 0, 56, 58
1, 1108758, Note_off_c, 0, 52, 61
1, 1108813, Note_on_c, 0, 52, 48
1, 1108813, Note_on_c, 0, 64, 64
1, 1108816, Note_on_c, 0, 56, 52
1, 1108822, Note_on_c, 0, 46, 48
1, 1108846, Note_off_c, 0, 52, 66
1, 1108846, Note_off_c, 0, 56, 59
1, 1108848, Note_off_c, 0, 64, 62
1, 1108852, Note_off_c, 0, 46, 55
1, 1108906, Note_on_c, 0, 62, 69
1, 1108909, Note_on_c, 0, 46, 58
1, 1108910, Note_on_c, 0, 56, 58
1, 1108911, Note_on_c, 0, 53, 62
1, 1108945, Note_off_c, 0, 46, 55
1, 1108947, Note_off_c, 0, 53, 67
1, 1108947, Note_off_c, 0, 56, 57
1, 1108953, Note_off_c, 0, 62, 52
1, 1108992, Note_on_c, 0, 62, 54
1, 1109007, Note_on_c, 0, 56, 50
1, 1109012, Note_on_c, 0, 46, 54
1, 1109016, Note_on_c, 0, 53, 54
1, 1109037, Note_off_c, 0, 46, 58
1, 1109040, Note_off_c, 0, 53, 60
1, 1109052, Note_off_c, 0, 56, 57
1, 1109059, Note_off_c, 0, 62, 58
1, 1109154, Note_on_c, 0, 64, 49
1, 1109183, Note_on_c, 0, 45, 43
1, 1109184, Note_on_c, 0, 57, 19
1, 1109189, Note_on_c, 0, 49, 40
1, 1109361, Control_c, 0, 64, 41
1, 1109376, Control_c, 0, 64, 55
1, 1109391, Control_c, 0, 64, 61
1, 1109406, Control_c, 0, 64, 65
1, 1109420, Control_c, 0, 64, 69
1, 1109435, Control_c, 0, 64, 75
1, 1109450, Control_c, 0, 64, 82
1, 1109465, Control_c, 0, 64, 87
1, 1109479, Control_c, 0, 64, 92
1, 1109494, Control_c, 0, 64, 100
1, 1109509, Control_c, 0, 64, 107
1, 1109524, Control_c, 0, 64, 113
1, 1109539, Control_c, 0, 64, 116
1, 1109551, Note_off_c, 0, 57, 48
1, 1109553, Control_c, 0, 64, 119
1, 1109559, Note_off_c, 0, 45, 63
1, 1109582, Note_off_c, 0, 49, 60
1, 1109588, Note_off_c, 0, 64, 61
1, 1109740, Control_c, 0, 64, 116
1, 1109754, Control_c, 0, 64, 106
1, 1109769, Control_c, 0, 64, 95
1, 1109784, Control_c, 0, 64, 84
1, 1109800, Control_c, 0, 64, 78
1, 1109815, Control_c, 0, 64, 73
1, 1109830, Control_c, 0, 64, 68
1, 1109845, Control_c, 0, 64, 63
1, 1109859, Control_c, 0, 64, 49
1, 1109874, Control_c, 0, 64, 0
1, 1109939, Note_on_c, 0, 76, 57
1, 1109960, Note_on_c, 0, 70, 37
1, 1109962, Note_on_c, 0, 67, 36
1, 1109968, Note_on_c, 0, 64, 33
1, 1109973, Note_on_c, 0, 49, 30
1, 1109977, Note_on_c, 0, 55, 20
1, 1109988, Note_on_c, 0, 58, 29
1, 1109992, Control_c, 0, 64, 46
1, 1110007, Control_c, 0, 64, 62
1, 1110022, Control_c, 0, 64, 65
1, 1110037, Control_c, 0, 64, 67
1, 1110051, Control_c, 0, 64, 70
1, 1110066, Control_c, 0, 64, 73
1, 1110081, Control_c, 0, 64, 75
1, 1110096, Note_off_c, 0, 64, 54
1, 1110097, Note_off_c, 0, 70, 58
1, 1110100, Note_off_c, 0, 76, 60
1, 1110108, Note_off_c, 0, 58, 55
1, 1110109, Note_off_c, 0, 67, 37
1, 1110112, Note_off_c, 0, 55, 54
1, 1110130, Note_off_c, 0, 49, 36
1, 1110243, Note_on_c, 0, 76, 69
1, 1110250, Note_on_c, 0, 58, 48
1, 1110255, Note_on_c, 0, 55, 44
1, 1110255, Note_on_c, 0, 70, 51
1, 1110256, Note_on_c, 0, 67, 51
1, 1110256, Note_on_c, 0, 64, 45
1, 1110259, Control_c, 0, 64, 74
1, 1110274, Control_c, 0, 64, 74
1, 1110276, Note_off_c, 0, 76, 58
1, 1110280, Note_off_c, 0, 58, 64
1, 1110280, Note_off_c, 0, 70, 61
1, 1110283, Note_off_c, 0, 64, 57
1, 1110284, Note_off_c, 0, 67, 55
1, 1110286, Note_off_c, 0, 55, 57
1, 1110304, Control_c, 0, 64, 73
1, 1110319, Control_c, 0, 64, 73
1, 1110334, Control_c, 0, 64, 72
1, 1110346, Note_on_c, 0, 76, 75
1, 1110350, Note_on_c, 0, 70, 67
1, 1110354, Note_on_c, 0, 67, 68
1, 1110360, Note_on_c, 0, 64, 55
1, 1110363, Control_c, 0, 64, 72
1, 1110363, Control_c, 0, 67, 126
1, 1110368, Note_on_c, 0, 58, 48
1, 1110372, Note_on_c, 0, 55, 45
1, 1110378, Control_c, 0, 64, 71
1, 1110378, Control_c, 0, 67, 125
1, 1110382, Note_off_c, 0, 64, 61
1, 1110384, Note_off_c, 0, 67, 61
1, 1110384, Note_off_c, 0, 70, 61
1, 1110389, Note_off_c, 0, 76, 65
1, 1110393, Control_c, 0, 64, 71
1, 1110393, Control_c, 0, 67, 123
1, 1110397, Note_off_c, 0, 58, 54
1, 1110407, Note_off_c, 0, 55, 47
1, 1110408, Control_c, 0, 64, 70
1, 1110408, Control_c, 0, 67, 122
1, 1110430, Control_c, 0, 67, 121
1, 1110445, Control_c, 0, 64, 70
1, 1110445, Control_c, 0, 67, 120
1, 1110451, Note_on_c, 0, 76, 75
1, 1110458, Note_on_c, 0, 64, 61
1, 1110459, Control_c, 0, 67, 119
1, 1110463, Note_on_c, 0, 58, 55
1, 1110463, Note_on_c, 0, 67, 64
1, 1110464, Note_on_c, 0, 55, 44
1, 1110466, Note_on_c, 0, 70, 63
1, 1110474, Control_c, 0, 67, 116
1, 1110477, Note_off_c, 0, 64, 63
1, 1110484, Note_off_c, 0, 70, 67
1, 1110487, Note_off_c, 0, 67, 60
1, 1110489, Note_off_c, 0, 55, 59
1, 1110489, Control_c, 0, 67, 114
1, 1110491, Note_off_c, 0, 58, 59
1, 1110494, Note_off_c, 0, 76, 61
1, 1110504, Control_c, 0, 64, 69
1, 1110504, Control_c, 0, 67, 111
1, 1110518, Control_c, 0, 67, 109
1, 1110533, Control_c, 0, 64, 69
1, 1110533, Control_c, 0, 67, 107
1, 1110541, Note_on_c, 0, 76, 70
1, 1110542, Note_on_c, 0, 70, 73
1, 1110547, Note_on_c, 0, 64, 64
1, 1110548, Note_on_c, 0, 67, 78
1, 1110548, Control_c, 0, 64, 68
1, 1110548, Control_c, 0, 67, 106
1, 1110563, Control_c, 0, 67, 104
1, 1110565, Note_on_c, 0, 58, 52
1, 1110572, Note_off_c, 0, 64, 59
1, 1110575, Note_on_c, 0, 55, 47
1, 1110578, Control_c, 0, 64, 68
1, 1110578, Control_c, 0, 67, 102
1, 1110593, Control_c, 0, 64, 67
1, 1110593, Control_c, 0, 67, 100
1, 1110596, Note_off_c, 0, 70, 58
1, 1110599, Note_off_c, 0, 55, 59
1, 1110601, Note_off_c, 0, 58, 50
1, 1110602, Note_off_c, 0, 76, 61
1, 1110605, Note_off_c, 0, 67, 43
1, 1110608, Control_c, 0, 67, 98
1, 1110623, Control_c, 0, 64, 67
1, 1110623, Control_c, 0, 67, 95
1, 1110638, Control_c, 0, 64, 66
1, 1110638, Control_c, 0, 67, 93
1, 1110653, Control_c, 0, 64, 65
1, 1110653, Control_c, 0, 67, 90
1, 1110668, Control_c, 0, 64, 65
1, 1110668, Control_c, 0, 67, 88
1, 1110682, Control_c, 0, 64, 64
1, 1110682, Control_c, 0, 67, 85
1, 1110697, Control_c, 0, 64, 63
1, 1110697, Control_c, 0, 67, 82
1, 1110712, Control_c, 0, 64, 57
1, 1110712, Control_c, 0, 67, 80
1, 1110719, Note_on_c, 0, 76, 79
1, 1110727, Control_c, 0, 64, 18
1, 1110727, Control_c, 0, 67, 77
1, 1110741, Note_on_c, 0, 67, 50
1, 1110742, Control_c, 0, 64, 0
1, 1110742, Control_c, 0, 67, 75
1, 1110757, Control_c, 0, 67, 72
1, 1110760, Note_on_c, 0, 69, 49
1, 1110767, Note_on_c, 0, 55, 21
1, 1110767, Note_on_c, 0, 57, 41
1, 1110769, Note_on_c, 0, 50, 51
1, 1110772, Control_c, 0, 67, 69
1, 1110775, Note_on_c, 0, 64, 29
1, 1110787, Control_c, 0, 67, 65
1, 1110801, Control_c, 0, 67, 60
1, 1110816, Control_c, 0, 67, 53
1, 1110831, Control_c, 0, 67, 46
1, 1110846, Control_c, 0, 64, 59
1, 1110846, Control_c, 0, 67, 40
1, 1110851, Note_off_c, 0, 67, 59
1, 1110860, Note_off_c, 0, 64, 59
1, 1110861, Control_c, 0, 64, 65
1, 1110861, Control_c, 0, 67, 34
1, 1110875, Control_c, 0, 64, 67
1, 1110875, Control_c, 0, 67, 29
1, 1110890, Control_c, 0, 64, 67
1, 1110890, Control_c, 0, 67, 25
1, 1110905, Control_c, 0, 67, 21
1, 1110919, Control_c, 0, 67, 17
1, 1110934, Control_c, 0, 64, 67
1, 1110934, Control_c, 0, 67, 13
1, 1110949, Control_c, 0, 67, 9
1, 1110964, Control_c, 0, 64, 66
1, 1110964, Control_c, 0, 67, 0
1, 1110965, Note_on_c, 0, 74, 61
1, 1110979, Note_off_c, 0, 76, 61
1, 1110979, Control_c, 0, 64, 66
1, 1110988, Note_on_c, 0, 62, 46
1, 1110989, Note_on_c, 0, 66, 54
1, 1110991, Note_on_c, 0, 54, 50
1, 1110993, Control_c, 0, 64, 65
1, 1111000, Note_off_c, 0, 69, 62
1, 1111011, Note_off_c, 0, 74, 60
1, 1111017, Note_off_c, 0, 62, 61
1, 1111021, Note_off_c, 0, 57, 61
1, 1111023, Control_c, 0, 64, 65
1, 1111025, Note_off_c, 0, 55, 53
1, 1111038, Control_c, 0, 64, 64
1, 1111057, Note_off_c, 0, 54, 62
1, 1111066, Note_off_c, 0, 66, 63
1, 1111067, Control_c, 0, 64, 64
1, 1111073, Note_off_c, 0, 50, 63
1, 1111082, Control_c, 0, 64, 63
1, 1111097, Control_c, 0, 64, 61
1, 1111112, Control_c, 0, 64, 55
1, 1111127, Control_c, 0, 64, 17
1, 1111141, Control_c, 0, 64, 0
1, 1111199, Note_on_c, 0, 69, 67
1, 1111209, Note_on_c, 0, 57, 51
1, 1111209, Note_on_c, 0, 66, 59
1, 1111213, Note_on_c, 0, 54, 47
1, 1111436, Note_off_c, 0, 57, 62
1, 1111437, Note_off_c, 0, 69, 65
1, 1111438, Note_off_c, 0, 66, 65
1, 1111441, Note_off_c, 0, 54, 62
1, 1111448, Note_on_c, 0, 61, 72
1, 1111458, Note_on_c, 0, 45, 62
1, 1111656, Note_on_c, 0, 66, 62
1, 1111661, Note_on_c, 0, 69, 58
1, 1111663, Note_on_c, 0, 54, 49
1, 1111664, Note_on_c, 0, 57, 55
1, 1111687, Note_off_c, 0, 54, 58
1, 1111688, Note_off_c, 0, 57, 57
1, 1111697, Note_off_c, 0, 69, 63
1, 1111736, Note_off_c, 0, 66, 55
1, 1111750, Note_on_c, 0, 71, 60
1, 1111775, Note_on_c, 0, 55, 41
1, 1111788, Note_off_c, 0, 71, 50
1, 1111809, Note_off_c, 0, 55, 33
1, 1111846, Note_on_c, 0, 67, 55
1, 1111864, Note_on_c, 0, 64, 48
1, 1111903, Note_on_c, 0, 52, 17
1, 1111905, Note_on_c, 0, 55, 26
1, 1111909, Note_off_c, 0, 64, 59
1, 1111949, Note_off_c, 0, 55, 44
1, 1111954, Note_off_c, 0, 52, 51
1, 1111955, Note_off_c, 0, 67, 48
1, 1112053, Note_off_c, 0, 61, 61
1, 1112121, Note_on_c, 0, 66, 45
1, 1112155, Note_on_c, 0, 54, 40
1, 1112172, Note_on_c, 0, 50, 41
1, 1112174, Note_on_c, 0, 62, 36
1, 1112205, Note_off_c, 0, 45, 58
1, 1112268, Control_c, 0, 64, 35
1, 1112283, Control_c, 0, 64, 58
1, 1112298, Control_c, 0, 64, 64
1, 1112313, Control_c, 0, 64, 66
1, 1112325, Note_off_c, 0, 62, 48
1, 1112328, Control_c, 0, 64, 71
1, 1112343, Control_c, 0, 64, 76
1, 1112343, Note_off_c, 0, 50, 57
1, 1112352, Note_off_c, 0, 66, 64
1, 1112356, Note_off_c, 0, 54, 62
1, 1112358, Control_c, 0, 64, 81
1, 1112372, Control_c, 0, 64, 83
1, 1112387, Control_c, 0, 64, 85
1, 1112402, Control_c, 0, 64, 86
1, 1112417, Control_c, 0, 64, 87
1, 1112446, Control_c, 0, 64, 88
1, 1112505, Control_c, 0, 64, 87
1, 1112520, Control_c, 0, 64, 83
1, 1112535, Control_c, 0, 64, 71
1, 1112550, Control_c, 0, 64, 54
1, 1112565, Control_c, 0, 64, 0
1, 1112576, Note_on_c, 0, 69, 77
1, 1112586, Note_on_c, 0, 57, 46
1, 1112587, Note_on_c, 0, 66, 73
1, 1112587, Note_on_c, 0, 54, 45
1, 1112653, Control_c, 0, 64, 45
1, 1112676, Control_c, 0, 64, 63
1, 1112691, Control_c, 0, 64, 69
1, 1112705, Control_c, 0, 64, 77
1, 1112720, Control_c, 0, 64, 88
1, 1112722, Note_off_c, 0, 69, 63
1, 1112734, Note_off_c, 0, 57, 59
1, 1112735, Control_c, 0, 64, 109
1, 1112736, Note_off_c, 0, 66, 60
1, 1112750, Control_c, 0, 64, 127
1, 1112751, Note_off_c, 0, 54, 58
1, 1112933, Note_on_c, 0, 79, 85
1, 1112957, Control_c, 0, 64, 97
1, 1112961, Note_on_c, 0, 70, 62
1, 1112962, Note_on_c, 0, 67, 57
1, 1112972, Control_c, 0, 64, 68
1, 1112984, Note_on_c, 0, 64, 30
1, 1112987, Control_c, 0, 64, 10
1, 1112989, Note_on_c, 0, 55, 27
1, 1112997, Note_on_c, 0, 58, 35
1, 1113002, Control_c, 0, 64, 0
1, 1113004, Note_on_c, 0, 49, 31
1, 1113047, Control_c, 0, 64, 15
1, 1113062, Control_c, 0, 64, 59
1, 1113076, Control_c, 0, 64, 68
1, 1113091, Control_c, 0, 64, 75
1, 1113106, Control_c, 0, 64, 80
1, 1113109, Note_off_c, 0, 67, 60
1, 1113112, Note_off_c, 0, 70, 61
1, 1113121, Control_c, 0, 64, 81
1, 1113124, Note_off_c, 0, 79, 58
1, 1113127, Note_off_c, 0, 64, 52
1, 1113133, Note_off_c, 0, 49, 51
1, 1113139, Note_off_c, 0, 58, 55
1, 1113141, Note_off_c, 0, 55, 55
1, 1113269, Control_c, 0, 64, 80
1, 1113270, Note_on_c, 0, 79, 77
1, 1113278, Note_on_c, 0, 67, 71
1, 1113279, Note_on_c, 0, 70, 71
1, 1113284, Control_c, 0, 64, 79
1, 1113292, Note_on_c, 0, 55, 49
1, 1113295, Note_on_c, 0, 58, 45
1, 1113297, Note_on_c, 0, 64, 52
1, 1113299, Control_c, 0, 64, 79
1, 1113301, Note_off_c, 0, 79, 57
1, 1113304, Note_off_c, 0, 70, 68
1, 1113306, Note_off_c, 0, 67, 62
1, 1113313, Control_c, 0, 64, 78
1, 1113317, Note_off_c, 0, 55, 57
1, 1113320, Note_off_c, 0, 58, 56
1, 1113320, Note_off_c, 0, 64, 58
1, 1113328, Control_c, 0, 64, 77
1, 1113343, Control_c, 0, 64, 76
1, 1113358, Control_c, 0, 64, 76
1, 1113373, Control_c, 0, 64, 75
1, 1113380, Note_on_c, 0, 67, 78
1, 1113380, Note_on_c, 0, 79, 86
1, 1113383, Note_on_c, 0, 70, 81
1, 1113387, Note_on_c, 0, 58, 62
1, 1113388, Note_on_c, 0, 55, 66
1, 1113389, Note_on_c, 0, 64, 64
1, 1113402, Control_c, 0, 64, 74
1, 1113407, Note_off_c, 0, 64, 65
1, 1113411, Note_off_c, 0, 67, 59
1, 1113420, Note_off_c, 0, 58, 64
1, 1113420, Note_off_c, 0, 70, 62
1, 1113425, Note_off_c, 0, 55, 66
1, 1113425, Control_c, 0, 64, 74
1, 1113431, Note_off_c, 0, 79, 60
1, 1113440, Control_c, 0, 64, 73
1, 1113455, Control_c, 0, 64, 72
1, 1113470, Control_c, 0, 64, 72
1, 1113483, Note_on_c, 0, 64, 62
1, 1113484, Note_on_c, 0, 79, 78
1, 1113484, Control_c, 0, 64, 71
1, 1113493, Note_on_c, 0, 70, 76
1, 1113494, Note_on_c, 0, 67, 75
1, 1113498, Note_on_c, 0, 55, 51
1, 1113503, Note_off_c, 0, 64, 64
1, 1113508, Note_on_c, 0, 58, 45
1, 1113513, Note_off_c, 0, 70, 68
1, 1113514, Note_off_c, 0, 67, 62
1, 1113520, Note_off_c, 0, 55, 61
1, 1113529, Control_c, 0, 64, 71
1, 1113529, Note_off_c, 0, 79, 56
1, 1113532, Note_off_c, 0, 58, 60
1, 1113559, Control_c, 0, 64, 70
1, 1113571, Note_on_c, 0, 79, 71
1, 1113574, Control_c, 0, 64, 70
1, 1113577, Note_on_c, 0, 64, 61
1, 1113579, Note_on_c, 0, 67, 74
1, 1113583, Note_on_c, 0, 70, 77
1, 1113589, Control_c, 0, 64, 69
1, 1113601, Note_on_c, 0, 55, 48
1, 1113603, Control_c, 0, 64, 68
1, 1113605, Note_off_c, 0, 64, 55
1, 1113613, Note_off_c, 0, 70, 61
1, 1113618, Control_c, 0, 64, 66
1, 1113620, Note_on_c, 0, 58, 26
1, 1113626, Note_off_c, 0, 79, 60
1, 1113628, Note_off_c, 0, 55, 56
1, 1113633, Control_c, 0, 64, 65
1, 1113647, Control_c, 0, 64, 64
1, 1113648, Note_off_c, 0, 58, 58
1, 1113662, Control_c, 0, 64, 62
1, 1113663, Note_off_c, 0, 67, 53
1, 1113677, Control_c, 0, 64, 61
1, 1113692, Control_c, 0, 64, 59
1, 1113707, Control_c, 0, 64, 57
1, 1113721, Control_c, 0, 64, 56
1, 1113736, Control_c, 0, 64, 47
1, 1113751, Control_c, 0, 64, 0
1, 1113768, Note_on_c, 0, 79, 85
1, 1113777, Note_on_c, 0, 69, 67
1, 1113780, Note_on_c, 0, 67, 64
1, 1113791, Note_on_c, 0, 57, 33
1, 1113794, Note_on_c, 0, 55, 19
1, 1113799, Note_on_c, 0, 70, 46
1, 1113806, Note_on_c, 0, 50, 50
1, 1113814, Note_on_c, 0, 64, 34
1, 1113856, Control_c, 0, 64, 52
1, 1113871, Control_c, 0, 64, 68
1, 1113886, Control_c, 0, 64, 78
1, 1113900, Control_c, 0, 64, 87
1, 1113915, Control_c, 0, 64, 90
1, 1113925, Note_off_c, 0, 79, 63
1, 1113930, Control_c, 0, 64, 92
1, 1113944, Control_c, 0, 64, 92
1, 1113946, Note_off_c, 0, 67, 61
1, 1113955, Note_off_c, 0, 64, 39
1, 1114004, Control_c, 0, 64, 92
1, 1114018, Control_c, 0, 64, 91
1, 1114033, Control_c, 0, 64, 87
1, 1114048, Control_c, 0, 64, 82
1, 1114063, Control_c, 0, 64, 77
1, 1114066, Note_on_c, 0, 78, 72
1, 1114066, Note_off_c, 0, 70, 28
1, 1114072, Note_on_c, 0, 66, 66
1, 1114078, Control_c, 0, 64, 73
1, 1114079, Note_on_c, 0, 62, 53
1, 1114082, Note_on_c, 0, 54, 54
1, 1114093, Control_c, 0, 64, 68
1, 1114107, Control_c, 0, 64, 65
1, 1114122, Control_c, 0, 64, 63
1, 1114128, Note_off_c, 0, 57, 57
1, 1114134, Note_off_c, 0, 62, 61
1, 1114136, Note_off_c, 0, 55, 40
1, 1114137, Control_c, 0, 64, 60
1, 1114145, Note_off_c, 0, 69, 63
1, 1114152, Control_c, 0, 64, 55
1, 1114152, Note_off_c, 0, 66, 58
1, 1114155, Note_off_c, 0, 54, 62
1, 1114172, Note_off_c, 0, 78, 62
1, 1114174, Control_c, 0, 64, 49
1, 1114185, Note_off_c, 0, 50, 58
1, 1114189, Control_c, 0, 64, 41
1, 1114204, Control_c, 0, 64, 32
1, 1114218, Control_c, 0, 64, 0
1, 1114304, Note_on_c, 0, 78, 75
1, 1114311, Note_on_c, 0, 69, 62
1, 1114320, Note_on_c, 0, 66, 53
1, 1114324, Note_on_c, 0, 57, 45
1, 1114333, Note_on_c, 0, 54, 43
1, 1114540, Note_on_c, 0, 45, 64
1, 1114568, Note_off_c, 0, 69, 65
1, 1114584, Note_off_c, 0, 78, 59
1, 1114590, Note_off_c, 0, 66, 38
1, 1114744, Note_on_c, 0, 78, 71
1, 1114746, Note_on_c, 0, 69, 49
1, 1114754, Note_on_c, 0, 66, 58
1, 1114769, Note_off_c, 0, 69, 61
1, 1114778, Note_off_c, 0, 66, 68
1, 1114784, Note_off_c, 0, 78, 58
1, 1114835, Note_off_c, 0, 54, 57
1, 1114850, Note_on_c, 0, 79, 71
1, 1114850, Note_off_c, 0, 57, 62
1, 1114865, Note_on_c, 0, 67, 55
1, 1114877, Note_on_c, 0, 71, 43
1, 1114878, Note_off_c, 0, 79, 62
1, 1114884, Note_off_c, 0, 45, 60
1, 1114887, Note_off_c, 0, 67, 60
1, 1114905, Note_off_c, 0, 71, 56
1, 1114992, Note_on_c, 0, 76, 75
1, 1114995, Note_on_c, 0, 55, 43
1, 1114999, Note_on_c, 0, 64, 65
1, 1115002, Note_on_c, 0, 67, 48
1, 1115011, Note_on_c, 0, 45, 38
1, 1115012, Note_on_c, 0, 57, 36
1, 1115035, Note_off_c, 0, 67, 63
1, 1115055, Note_off_c, 0, 57, 48
1, 1115056, Note_off_c, 0, 76, 63
1, 1115058, Note_off_c, 0, 55, 63
1, 1115062, Note_off_c, 0, 64, 63
1, 1115078, Note_off_c, 0, 45, 57
1, 1115246, Note_on_c, 0, 74, 63
1, 1115278, Note_on_c, 0, 66, 39
1, 1115285, Note_on_c, 0, 62, 31
1, 1115289, Note_on_c, 0, 57, 31
1, 1115294, Note_on_c, 0, 54, 29
1, 1115306, Note_on_c, 0, 50, 28
1, 1115398, Control_c, 0, 64, 48
1, 1115413, Control_c, 0, 64, 63
1, 1115428, Control_c, 0, 64, 68
1, 1115443, Control_c, 0, 64, 73
1, 1115458, Control_c, 0, 64, 79
1, 1115472, Control_c, 0, 64, 85
1, 1115487, Control_c, 0, 64, 90
1, 1115502, Control_c, 0, 64, 93
1, 1115516, Control_c, 0, 64, 95
1, 1115531, Control_c, 0, 64, 95
1, 1115546, Control_c, 0, 64, 96
1, 1115561, Control_c, 0, 64, 96
1, 1115581, Note_off_c, 0, 74, 64
1, 1115595, Note_off_c, 0, 62, 43
1, 1115607, Note_off_c, 0, 57, 45
1, 1115612, Note_off_c, 0, 50, 57
1, 1115614, Note_off_c, 0, 54, 53
1, 1115618, Note_off_c, 0, 66, 54
1, 1115635, Control_c, 0, 67, 10
1, 1115650, Control_c, 0, 67, 14
1, 1115672, Control_c, 0, 67, 19
1, 1115685, Control_c, 0, 64, 93
1, 1115685, Control_c, 0, 67, 22
1, 1115700, Control_c, 0, 64, 80
1, 1115700, Control_c, 0, 67, 24
1, 1115714, Control_c, 0, 64, 63
1, 1115714, Control_c, 0, 67, 27
1, 1115729, Control_c, 0, 64, 0
1, 1115729, Control_c, 0, 67, 32
1, 1115744, Control_c, 0, 67, 40
1, 1115759, Control_c, 0, 67, 48
1, 1115774, Control_c, 0, 67, 57
1, 1115789, Control_c, 0, 67, 67
1, 1115804, Control_c, 0, 67, 77
1, 1115818, Control_c, 0, 67, 87
1, 1115833, Control_c, 0, 67, 96
1, 1115848, Control_c, 0, 67, 104
1, 1115863, Control_c, 0, 67, 111
1, 1115878, Control_c, 0, 67, 121
1, 1115893, Control_c, 0, 67, 127
1, 1115970, Note_on_c, 0, 66, 43
1, 1115979, Note_on_c, 0, 54, 34
1, 1116011, Control_c, 0, 64, 31
1, 1116026, Control_c, 0, 64, 50
1, 1116040, Control_c, 0, 64, 58
1, 1116055, Control_c, 0, 64, 62
1, 1116070, Control_c, 0, 64, 64
1, 1116085, Control_c, 0, 64, 66
1, 1116100, Control_c, 0, 64, 69
1, 1116114, Control_c, 0, 64, 71
1, 1116129, Control_c, 0, 64, 73
1, 1116134, Note_off_c, 0, 54, 35
1, 1116141, Note_off_c, 0, 66, 38
1, 1116144, Control_c, 0, 64, 75
1, 1116159, Control_c, 0, 64, 76
1, 1116174, Control_c, 0, 64, 76
1, 1116337, Control_c, 0, 64, 76
1, 1116352, Control_c, 0, 64, 75
1, 1116367, Control_c, 0, 64, 74
1, 1116382, Control_c, 0, 64, 73
1, 1116397, Control_c, 0, 64, 72
1, 1116419, Control_c, 0, 64, 71
1, 1116435, Control_c, 0, 64, 70
1, 1116450, Control_c, 0, 64, 68
1, 1116460, Note_on_c, 0, 74, 38
1, 1116464, Control_c, 0, 64, 64
1, 1116471, Note_on_c, 0, 47, 31
1, 1116473, Note_on_c, 0, 59, 24
1, 1116476, Note_on_c, 0, 66, 36
1, 1116479, Control_c, 0, 64, 51
1, 1116484, Note_on_c, 0, 54, 26
1, 1116491, Note_on_c, 0, 62, 30
1, 1116494, Control_c, 0, 64, 0
1, 1116538, Control_c, 0, 64, 33
1, 1116553, Control_c, 0, 64, 57
1, 1116568, Control_c, 0, 64, 65
1, 1116576, Note_off_c, 0, 66, 48
1, 1116583, Control_c, 0, 64, 69
1, 1116584, Note_off_c, 0, 74, 55
1, 1116591, Note_off_c, 0, 54, 49
1, 1116598, Control_c, 0, 64, 72
1, 1116607, Note_off_c, 0, 62, 39
1, 1116611, Note_off_c, 0, 59, 39
1, 1116623, Note_off_c, 0, 47, 36
1, 1116716, Control_c, 0, 64, 72
1, 1116731, Control_c, 0, 64, 71
1, 1116746, Control_c, 0, 64, 71
1, 1116760, Control_c, 0, 64, 70
1, 1116775, Control_c, 0, 64, 70
1, 1116790, Control_c, 0, 64, 69
1, 1116805, Control_c, 0, 64, 69
1, 1116817, Note_on_c, 0, 74, 38
1, 1116820, Control_c, 0, 64, 68
1, 1116826, Note_on_c, 0, 66, 35
1, 1116829, Note_on_c, 0, 54, 34
1, 1116830, Note_on_c, 0, 59, 31
1, 1116835, Control_c, 0, 64, 68
1, 1116838, Note_on_c, 0, 47, 22
1, 1116849, Note_off_c, 0, 74, 55
1, 1116850, Control_c, 0, 64, 67
1, 1116856, Note_off_c, 0, 66, 54
1, 1116864, Control_c, 0, 64, 67
1, 1116866, Note_off_c, 0, 54, 48
1, 1116868, Poly_aftertouch_c, 0, 62, 127
1, 1116870, Note_off_c, 0, 59, 48
1, 1116879, Control_c, 0, 64, 66
1, 1116894, Control_c, 0, 64, 66
1, 1116909, Control_c, 0, 64, 65
1, 1116916, Note_off_c, 0, 47, 0
1, 1116924, Control_c, 0, 64, 64
1, 1116924, Note_on_c, 0, 62, 8
1, 1116927, Note_on_c, 0, 74, 51
1, 1116933, Note_on_c, 0, 54, 35
1, 1116933, Note_on_c, 0, 66, 47
1, 1116936, Note_on_c, 0, 59, 36
1, 1116940, Note_on_c, 0, 47, 14
1, 1116960, Note_off_c, 0, 74, 64
1, 1116963, Note_off_c, 0, 66, 59
1, 1116968, Control_c, 0, 64, 64
1, 1116970, Note_off_c, 0, 59, 51
1, 1116972, Note_off_c, 0, 54, 48
1, 1117011, Note_off_c, 0, 62, 0
1, 1117014, Note_off_c, 0, 47, 0
1, 1117014, Note_on_c, 0, 47, 19
1, 1117014, Control_c, 0, 64, 63
1, 1117027, Note_on_c, 0, 54, 46
1, 1117028, Note_on_c, 0, 62, 34
1, 1117028, Note_on_c, 0, 74, 51
1, 1117035, Note_on_c, 0, 59, 36
1, 1117038, Note_on_c, 0, 66, 51
1, 1117064, Note_off_c, 0, 54, 59
1, 1117064, Note_off_c, 0, 66, 61
1, 1117069, Note_off_c, 0, 59, 52
1, 1117070, Note_off_c, 0, 74, 56
1, 1117073, Control_c, 0, 64, 63
1, 1117087, Control_c, 0, 64, 62
1, 1117103, Note_off_c, 0, 62, 0
1, 1117106, Note_on_c, 0, 74, 48
1, 1117117, Control_c, 0, 64, 62
1, 1117118, Note_on_c, 0, 62, 45
1, 1117122, Note_on_c, 0, 54, 52
1, 1117126, Note_on_c, 0, 66, 59
1, 1117134, Note_on_c, 0, 59, 48
1, 1117145, Note_off_c, 0, 74, 62
1, 1117149, Note_off_c, 0, 66, 67
1, 1117151, Note_off_c, 0, 47, 59
1, 1117166, Note_off_c, 0, 54, 58
1, 1117169, Control_c, 0, 64, 61
1, 1117169, Note_off_c, 0, 59, 59
1, 1117170, Note_off_c, 0, 62, 57
1, 1117184, Control_c, 0, 64, 60
1, 1117199, Control_c, 0, 64, 59
1, 1117214, Control_c, 0, 64, 58
1, 1117228, Control_c, 0, 64, 57
1, 1117243, Control_c, 0, 64, 53
1, 1117258, Control_c, 0, 64, 40
1, 1117262, Note_on_c, 0, 59, 37
1, 1117262, Note_on_c, 0, 71, 60
1, 1117270, Note_on_c, 0, 67, 57
1, 1117272, Note_on_c, 0, 62, 47
1, 1117273, Control_c, 0, 64, 0
1, 1117275, Note_on_c, 0, 55, 42
1, 1117321, Note_on_c, 0, 50, 21
1, 1117338, Note_off_c, 0, 55, 60
1, 1117341, Note_off_c, 0, 67, 54
1, 1117349, Note_on_c, 0, 54, 55
1, 1117354, Note_on_c, 0, 66, 55
1, 1117407, Note_off_c, 0, 71, 61
1, 1117412, Note_off_c, 0, 66, 65
1, 1117415, Note_off_c, 0, 59, 57
1, 1117417, Note_off_c, 0, 50, 51
1, 1117419, Note_off_c, 0, 54, 62
1, 1117423, Note_off_c, 0, 62, 48
1, 1117484, Note_on_c, 0, 54, 46
1, 1117485, Note_on_c, 0, 71, 63
1, 1117494, Note_on_c, 0, 66, 48
1, 1117495, Note_on_c, 0, 59, 36
1, 1117503, Note_on_c, 0, 62, 50
1, 1117503, Note_on_c, 0, 50, 42
1, 1117596, Note_off_c, 0, 71, 61
1, 1117603, Note_off_c, 0, 50, 55
1, 1117606, Note_off_c, 0, 62, 57
1, 1117607, Note_off_c, 0, 54, 56
1, 1117608, Note_off_c, 0, 66, 64
1, 1117622, Note_off_c, 0, 59, 43
1, 1117682, Note_on_c, 0, 71, 67
1, 1117690, Note_on_c, 0, 66, 51
1, 1117696, Note_on_c, 0, 59, 41
1, 1117697, Note_on_c, 0, 62, 53
1, 1117712, Note_on_c, 0, 54, 34
1, 1117717, Note_on_c, 0, 50, 31
1, 1117736, Note_off_c, 0, 71, 62
1, 1117750, Note_off_c, 0, 59, 62
1, 1117751, Note_off_c, 0, 62, 57
1, 1117756, Note_off_c, 0, 66, 65
1, 1117768, Note_off_c, 0, 54, 61
1, 1117771, Note_off_c, 0, 50, 62
1, 1117930, Note_on_c, 0, 42, 57
1, 1117931, Note_on_c, 0, 73, 58
1, 1117932, Control_c, 0, 64, 60
1, 1117935, Note_on_c, 0, 54, 38
1, 1117941, Note_on_c, 0, 66, 50
1, 1117947, Control_c, 0, 64, 71
1, 1117953, Note_on_c, 0, 58, 33
1, 1117962, Control_c, 0, 64, 78
1, 1117977, Control_c, 0, 64, 82
1, 1117983, Note_off_c, 0, 42, 62
1, 1117985, Note_off_c, 0, 66, 64
1, 1117986, Poly_aftertouch_c, 0, 64, 127
1, 1117986, Note_off_c, 0, 58, 46
1, 1117991, Control_c, 0, 64, 83
1, 1117992, Note_off_c, 0, 54, 62
1, 1117995, Note_off_c, 0, 73, 61
1, 1118024, Poly_aftertouch_c, 0, 64, 0
1, 1118095, Control_c, 0, 64, 82
1, 1118110, Control_c, 0, 64, 81
1, 1118124, Control_c, 0, 64, 80
1, 1118139, Control_c, 0, 64, 77
1, 1118154, Control_c, 0, 64, 72
1, 1118166, Note_on_c, 0, 73, 59
1, 1118168, Note_on_c, 0, 54, 53
1, 1118169, Control_c, 0, 64, 65
1, 1118173, Note_on_c, 0, 58, 51
1, 1118181, Note_on_c, 0, 66, 39
1, 1118184, Control_c, 0, 64, 45
1, 1118191, Note_off_c, 0, 73, 57
1, 1118198, Control_c, 0, 64, 0
1, 1118200, Note_off_c, 0, 58, 60
1, 1118200, Note_on_c, 0, 64, 9
1, 1118203, Note_off_c, 0, 54, 63
1, 1118210, Note_off_c, 0, 66, 56
1, 1118236, Note_off_c, 0, 64, 0
1, 1118261, Note_on_c, 0, 73, 72
1, 1118274, Note_on_c, 0, 64, 19
1, 1118275, Note_on_c, 0, 54, 48
1, 1118279, Note_on_c, 0, 58, 51
1, 1118289, Note_on_c, 0, 66, 47
1, 1118298, Note_off_c, 0, 73, 54
1, 1118302, Note_off_c, 0, 54, 59
1, 1118303, Note_off_c, 0, 58, 60
1, 1118309, Note_off_c, 0, 64, 56
1, 1118313, Note_off_c, 0, 66, 59
1, 1118360, Note_on_c, 0, 73, 66
1, 1118366, Note_on_c, 0, 54, 56
1, 1118367, Note_on_c, 0, 58, 62
1, 1118373, Note_on_c, 0, 64, 52
1, 1118384, Note_on_c, 0, 66, 51
1, 1118385, Note_off_c, 0, 73, 63
1, 1118394, Note_off_c, 0, 58, 65
1, 1118396, Note_off_c, 0, 64, 59
1, 1118397, Note_off_c, 0, 54, 64
1, 1118408, Note_off_c, 0, 66, 61
1, 1118451, Note_on_c, 0, 73, 72
1, 1118462, Note_on_c, 0, 58, 62
1, 1118462, Note_on_c, 0, 64, 62
1, 1118468, Note_on_c, 0, 54, 62
1, 1118483, Note_off_c, 0, 64, 62
1, 1118487, Note_off_c, 0, 58, 65
1, 1118504, Note_off_c, 0, 54, 60
1, 1118507, Note_off_c, 0, 73, 59
1, 1118634, Note_on_c, 0, 67, 61
1, 1118641, Note_on_c, 0, 58, 36
1, 1118647, Note_on_c, 0, 55, 49
1, 1118659, Note_on_c, 0, 64, 43
1, 1118665, Note_on_c, 0, 49, 45
1, 1118721, Note_off_c, 0, 67, 56
1, 1118734, Note_on_c, 0, 66, 57
1, 1118758, Note_off_c, 0, 55, 62
1, 1118793, Note_on_c, 0, 54, 23
1, 1118858, Control_c, 0, 64, 37
1, 1118873, Control_c, 0, 64, 45
1, 1118888, Control_c, 0, 64, 48
1, 1118903, Control_c, 0, 64, 51
1, 1118918, Control_c, 0, 64, 56
1, 1118933, Control_c, 0, 64, 60
1, 1118947, Control_c, 0, 64, 63
1, 1118962, Control_c, 0, 64, 65
1, 1118977, Control_c, 0, 64, 67
1, 1118992, Control_c, 0, 64, 71
1, 1119007, Control_c, 0, 64, 74
1, 1119021, Control_c, 0, 64, 78
1, 1119036, Control_c, 0, 64, 82
1, 1119051, Control_c, 0, 64, 84
1, 1119065, Control_c, 0, 64, 86
1, 1119080, Control_c, 0, 64, 87
1, 1119095, Control_c, 0, 64, 87
1, 1119110, Control_c, 0, 67, 126
1, 1119125, Control_c, 0, 67, 118
1, 1119128, Note_off_c, 0, 66, 55
1, 1119133, Note_off_c, 0, 58, 55
1, 1119139, Control_c, 0, 67, 108
1, 1119154, Control_c, 0, 67, 97
1, 1119159, Note_off_c, 0, 64, 42
1, 1119169, Control_c, 0, 67, 85
1, 1119176, Note_off_c, 0, 54, 54
1, 1119184, Control_c, 0, 67, 73
1, 1119199, Note_off_c, 0, 49, 60
1, 1119199, Control_c, 0, 67, 60
1, 1119214, Control_c, 0, 67, 48
1, 1119229, Control_c, 0, 67, 37
1, 1119244, Control_c, 0, 67, 27
1, 1119258, Control_c, 0, 67, 17
1, 1119273, Control_c, 0, 67, 0
1, 1119318, Control_c, 0, 64, 85
1, 1119333, Control_c, 0, 64, 76
1, 1119347, Control_c, 0, 64, 58
1, 1119362, Control_c, 0, 64, 0
1, 1119435, Note_on_c, 0, 59, 91
1, 1119435, Note_on_c, 0, 71, 84
1, 1119437, Note_on_c, 0, 62, 88
1, 1119437, Note_on_c, 0, 66, 84
1, 1119440, Note_on_c, 0, 54, 80
1, 1119441, Note_on_c, 0, 47, 79
1, 1119443, Note_on_c, 0, 50, 72
1, 1119444, Control_c, 0, 64, 49
1, 1119459, Control_c, 0, 64, 70
1, 1119474, Control_c, 0, 64, 95
1, 1119485, Note_off_c, 0, 71, 62
1, 1119488, Note_off_c, 0, 54, 62
1, 1119488, Control_c, 0, 64, 127
1, 1119500, Note_off_c, 0, 50, 62
1, 1119505, Note_off_c, 0, 59, 62
1, 1119514, Note_off_c, 0, 62, 62
1, 1119515, Note_off_c, 0, 47, 64
1, 1119549, Note_off_c, 0, 66, 64
1, 1119676, Note_on_c, 0, 70, 84
1, 1119679, Note_on_c, 0, 58, 81
1, 1119688, Note_on_c, 0, 54, 79
1, 1119689, Note_on_c, 0, 50, 79
1, 1119692, Note_on_c, 0, 47, 78
1, 1119696, Control_c, 0, 64, 86
1, 1119711, Control_c, 0, 64, 58
1, 1119718, Note_off_c, 0, 47, 68
1, 1119718, Note_off_c, 0, 54, 64
1, 1119720, Note_off_c, 0, 50, 66
1, 1119721, Note_off_c, 0, 58, 62
1, 1119726, Control_c, 0, 64, 0
1, 1119728, Note_off_c, 0, 70, 64
1, 1119779, Note_on_c, 0, 54, 81
1, 1119786, Note_on_c, 0, 50, 78
1, 1119786, Note_on_c, 0, 59, 81
1, 1119788, Note_on_c, 0, 71, 73
1, 1119790, Note_on_c, 0, 47, 77
1, 1119804, Note_off_c, 0, 54, 67
1, 1119810, Note_off_c, 0, 50, 68
1, 1119812, Note_off_c, 0, 59, 63
1, 1119819, Note_off_c, 0, 47, 66
1, 1119819, Note_off_c, 0, 71, 64
1, 1119870, Note_on_c, 0, 71, 72
1, 1119875, Note_on_c, 0, 59, 78
1, 1119878, Note_on_c, 0, 54, 78
1, 1119880, Note_on_c, 0, 50, 78
1, 1119886, Note_on_c, 0, 47, 74
1, 1119896, Note_off_c, 0, 59, 71
1, 1119896, Note_off_c, 0, 71, 66
1, 1119903, Note_off_c, 0, 54, 65
1, 1119907, Note_off_c, 0, 50, 64
1, 1119914, Note_off_c, 0, 47, 67
1, 1119965, Note_on_c, 0, 73, 91
1, 1119966, Note_on_c, 0, 54, 74
1, 1119969, Note_on_c, 0, 61, 83
1, 1119970, Note_on_c, 0, 50, 79
1, 1119972, Note_on_c, 0, 47, 76
1, 1119993, Note_off_c, 0, 54, 66
1, 1119994, Note_off_c, 0, 61, 65
1, 1119998, Note_off_c, 0, 50, 66
1, 1120001, Note_off_c, 0, 47, 68
1, 1120013, Note_off_c, 0, 73, 60
1, 1120054, Note_on_c, 0, 62, 90
1, 1120054, Note_on_c, 0, 55, 95
1, 1120055, Note_on_c, 0, 74, 87
1, 1120062, Note_on_c, 0, 47, 73
1, 1120063, Note_on_c, 0, 43, 76
1, 1120066, Note_on_c, 0, 50, 77
1, 1120088, Note_off_c, 0, 50, 65
1, 1120095, Note_off_c, 0, 74, 67
1, 1120096, Note_off_c, 0, 62, 61
1, 1120101, Note_off_c, 0, 47, 63
1, 1120110, Note_off_c, 0, 55, 55
1, 1120127, Note_off_c, 0, 43, 58
1, 1120284, Note_on_c, 0, 74, 84
1, 1120286, Note_on_c, 0, 55, 80
1, 1120286, Note_on_c, 0, 62, 88
1, 1120287, Note_on_c, 0, 47, 76
1, 1120292, Note_on_c, 0, 50, 69
1, 1120298, Note_on_c, 0, 43, 59
1, 1120320, Note_off_c, 0, 55, 59
1, 1120323, Note_off_c, 0, 50, 61
1, 1120332, Note_off_c, 0, 74, 67
1, 1120332, Note_off_c, 0, 62, 63
1, 1120337, Note_off_c, 0, 43, 59
1, 1120346, Note_off_c, 0, 47, 63
1, 1120489, Note_on_c, 0, 74, 86
1, 1120490, Note_on_c, 0, 62, 89
1, 1120490, Note_on_c, 0, 47, 72
1, 1120491, Note_on_c, 0, 55, 78
1, 1120498, Note_on_c, 0, 50, 64
1, 1120503, Note_on_c, 0, 43, 68
1, 1120525, Note_off_c, 0, 50, 66
1, 1120534, Note_off_c, 0, 55, 61
1, 1120541, Note_off_c, 0, 62, 59
1, 1120544, Note_off_c, 0, 74, 63
1, 1120548, Note_off_c, 0, 47, 64
1, 1120565, Note_off_c, 0, 43, 62
1, 1120698, Note_on_c, 0, 76, 87
1, 1120699, Note_on_c, 0, 64, 90
1, 1120701, Note_on_c, 0, 49, 89
1, 1120701, Note_on_c, 0, 52, 95
1, 1120704, Note_on_c, 0, 67, 80
1, 1120705, Note_on_c, 0, 46, 86
1, 1120705, Note_on_c, 0, 70, 82
1, 1120706, Note_on_c, 0, 40, 83
1, 1120747, Note_off_c, 0, 52, 62
1, 1120749, Note_off_c, 0, 67, 60
1, 1120752, Note_off_c, 0, 46, 60
1, 1120752, Note_off_c, 0, 49, 60
1, 1120755, Note_off_c, 0, 40, 56
1, 1120759, Note_off_c, 0, 64, 60
1, 1120773, Note_off_c, 0, 70, 56
1, 1120788, Note_off_c, 0, 76, 61
1, 1120934, Note_on_c, 0, 76, 88
1, 1120934, Note_on_c, 0, 64, 89
1, 1120936, Note_on_c, 0, 49, 90
1, 1120937, Note_on_c, 0, 52, 99
1, 1120937, Note_on_c, 0, 46, 94
1, 1120937, Note_on_c, 0, 70, 81
1, 1120941, Note_on_c, 0, 67, 82
1, 1120945, Note_on_c, 0, 40, 79
1, 1120969, Note_off_c, 0, 52, 55
1, 1120981, Note_off_c, 0, 40, 60
1, 1120983, Note_off_c, 0, 49, 61
1, 1120986, Note_off_c, 0, 67, 60
1, 1120987, Note_off_c, 0, 46, 62
1, 1120992, Note_off_c, 0, 70, 64
1, 1120993, Note_off_c, 0, 64, 61
1, 1121011, Note_off_c, 0, 76, 62
1, 1121192, Note_on_c, 0, 69, 85
1, 1121194, Note_on_c, 0, 64, 93
1, 1121194, Note_on_c, 0, 76, 89
1, 1121195, Note_on_c, 0, 45, 90
1, 1121195, Note_on_c, 0, 52, 102
1, 1121196, Note_on_c, 0, 49, 91
1, 1121198, Note_on_c, 0, 40, 92
1, 1121198, Note_on_c, 0, 67, 87
1, 1121235, Note_off_c, 0, 52, 67
1, 1121248, Note_off_c, 0, 67, 61
1, 1121250, Note_off_c, 0, 76, 66
1, 1121252, Note_off_c, 0, 40, 65
1, 1121259, Note_off_c, 0, 49, 63
1, 1121259, Note_off_c, 0, 64, 62
1, 1121265, Note_off_c, 0, 45, 65
1, 1121280, Note_off_c, 0, 69, 65
1, 1121572, Note_on_c, 0, 69, 69
1, 1121578, Note_on_c, 0, 38, 86
1, 1121578, Note_on_c, 0, 78, 90
1, 1121580, Note_on_c, 0, 50, 95
1, 1121580, Note_on_c, 0, 66, 93
1, 1121583, Note_on_c, 0, 45, 81
1, 1121609, Control_c, 0, 64, 66
1, 1121624, Control_c, 0, 64, 127
1, 1121697, Note_off_c, 0, 38, 63
1, 1121705, Note_off_c, 0, 50, 61
1, 1121741, Note_off_c, 0, 45, 65
1, 1122000, Note_off_c, 0, 66, 62
1, 1122035, Note_off_c, 0, 69, 39
1, 1122122, Note_off_c, 0, 78, 57
1, 1122424, Control_c, 0, 64, 81
1, 1122439, Control_c, 0, 64, 34
1, 1122454, Control_c, 0, 64, 0
1, 1122641, Note_on_c, 0, 90, 72
1, 1122673, Note_on_c, 0, 78, 35
1, 1122678, Note_on_c, 0, 51, 36
1, 1122736, Control_c, 0, 64, 47
1, 1122751, Control_c, 0, 64, 60
1, 1122766, Control_c, 0, 64, 65
1, 1122780, Control_c, 0, 64, 71
1, 1122795, Control_c, 0, 64, 85
1, 1122810, Control_c, 0, 64, 111
1, 1122825, Control_c, 0, 64, 127
1, 1122875, Note_off_c, 0, 78, 56
1, 1122891, Note_off_c, 0, 90, 63
1, 1122957, Note_on_c, 0, 90, 79
1, 1122964, Note_on_c, 0, 59, 42
1, 1122975, Note_on_c, 0, 78, 58
1, 1123032, Note_off_c, 0, 78, 63
1, 1123271, Note_off_c, 0, 90, 0
1, 1123301, Note_on_c, 0, 90, 10
1, 1123304, Note_on_c, 0, 93, 79
1, 1123330, Note_off_c, 0, 59, 27
1, 1123344, Note_on_c, 0, 81, 44
1, 1123366, Control_c, 0, 64, 104
1, 1123370, Note_on_c, 0, 66, 43
1, 1123370, Note_off_c, 0, 90, 44
1, 1123382, Control_c, 0, 64, 92
1, 1123397, Control_c, 0, 64, 82
1, 1123411, Control_c, 0, 64, 74
1, 1123426, Control_c, 0, 64, 67
1, 1123441, Control_c, 0, 64, 60
1, 1123456, Control_c, 0, 64, 33
1, 1123462, Note_off_c, 0, 51, 56
1, 1123470, Control_c, 0, 64, 0
1, 1123619, Control_c, 0, 64, 48
1, 1123634, Control_c, 0, 64, 64
1, 1123649, Control_c, 0, 64, 72
1, 1123649, Note_on_c, 0, 52, 45
1, 1123663, Control_c, 0, 64, 83
1, 1123678, Control_c, 0, 64, 89
1, 1123683, Note_off_c, 0, 66, 38
1, 1123693, Control_c, 0, 64, 91
1, 1123708, Control_c, 0, 64, 93
1, 1123723, Control_c, 0, 64, 94
1, 1123736, Note_off_c, 0, 93, 53
1, 1123737, Note_off_c, 0, 81, 55
1, 1123796, Control_c, 0, 67, 8
1, 1123811, Control_c, 0, 67, 9
1, 1123826, Control_c, 0, 67, 9
1, 1123855, Control_c, 0, 67, 10
1, 1123870, Control_c, 0, 67, 11
1, 1123883, Note_on_c, 0, 91, 62
1, 1123885, Control_c, 0, 67, 11
1, 1123890, Note_on_c, 0, 79, 49
1, 1123895, Note_on_c, 0, 59, 44
1, 1123908, Control_c, 0, 67, 12
1, 1123919, Note_off_c, 0, 91, 63
1, 1123922, Note_off_c, 0, 79, 55
1, 1123937, Control_c, 0, 67, 12
1, 1123952, Control_c, 0, 67, 13
1, 1123967, Control_c, 0, 67, 14
1, 1123981, Control_c, 0, 67, 14
1, 1123986, Note_on_c, 0, 90, 78
1, 1124004, Note_on_c, 0, 78, 59
1, 1124011, Control_c, 0, 64, 93
1, 1124017, Note_off_c, 0, 90, 62
1, 1124026, Note_off_c, 0, 78, 60
1, 1124026, Control_c, 0, 64, 93
1, 1124039, Note_off_c, 0, 52, 35
1, 1124041, Control_c, 0, 64, 92
1, 1124070, Control_c, 0, 64, 92
1, 1124087, Note_off_c, 0, 59, 61
1, 1124093, Note_on_c, 0, 78, 68
1, 1124099, Note_on_c, 0, 90, 64
1, 1124111, Note_off_c, 0, 78, 66
1, 1124114, Note_on_c, 0, 67, 50
1, 1124115, Control_c, 0, 64, 91
1, 1124117, Note_off_c, 0, 90, 64
1, 1124129, Control_c, 0, 64, 91
1, 1124144, Control_c, 0, 64, 90
1, 1124159, Control_c, 0, 64, 89
1, 1124175, Control_c, 0, 64, 88
1, 1124189, Note_on_c, 0, 88, 62
1, 1124190, Control_c, 0, 64, 87
1, 1124191, Note_on_c, 0, 76, 60
1, 1124205, Control_c, 0, 64, 86
1, 1124211, Note_off_c, 0, 88, 62
1, 1124215, Note_off_c, 0, 76, 64
1, 1124220, Control_c, 0, 64, 85
1, 1124234, Control_c, 0, 64, 84
1, 1124249, Control_c, 0, 64, 83
1, 1124264, Control_c, 0, 64, 80
1, 1124278, Control_c, 0, 64, 75
1, 1124293, Control_c, 0, 64, 67
1, 1124293, Control_c, 0, 67, 15
1, 1124299, Note_on_c, 0, 86, 72
1, 1124305, Note_on_c, 0, 74, 62
1, 1124305, Note_off_c, 0, 67, 61
1, 1124308, Control_c, 0, 64, 54
1, 1124320, Note_on_c, 0, 54, 50
1, 1124323, Control_c, 0, 64, 0
1, 1124323, Control_c, 0, 67, 16
1, 1124338, Note_off_c, 0, 86, 59
1, 1124338, Note_off_c, 0, 74, 66
1, 1124338, Control_c, 0, 67, 19
1, 1124353, Control_c, 0, 67, 23
1, 1124368, Control_c, 0, 67, 26
1, 1124383, Control_c, 0, 67, 27
1, 1124397, Control_c, 0, 67, 28
1, 1124412, Control_c, 0, 67, 28
1, 1124427, Control_c, 0, 67, 29
1, 1124501, Note_on_c, 0, 74, 66
1, 1124512, Note_on_c, 0, 66, 52
1, 1124517, Note_on_c, 0, 86, 37
1, 1124528, Note_off_c, 0, 74, 66
1, 1124550, Note_off_c, 0, 86, 33
1, 1124551, Note_off_c, 0, 66, 63
1, 1124569, Note_off_c, 0, 54, 60
1, 1124592, Note_on_c, 0, 88, 70
1, 1124603, Note_on_c, 0, 76, 61
1, 1124621, Note_off_c, 0, 88, 62
1, 1124622, Note_off_c, 0, 76, 65
1, 1124703, Note_on_c, 0, 58, 39
1, 1124703, Note_on_c, 0, 64, 52
1, 1124715, Note_on_c, 0, 85, 74
1, 1124728, Note_on_c, 0, 73, 59
1, 1124737, Note_on_c, 0, 54, 35
1, 1124764, Note_off_c, 0, 73, 51
1, 1124778, Note_off_c, 0, 85, 64
1, 1124819, Control_c, 0, 67, 28
1, 1124834, Control_c, 0, 67, 28
1, 1124849, Control_c, 0, 67, 27
1, 1124864, Control_c, 0, 67, 26
1, 1124878, Control_c, 0, 67, 26
1, 1124893, Control_c, 0, 67, 25
1, 1124901, Note_off_c, 0, 58, 52
1, 1124908, Control_c, 0, 67, 24
1, 1124923, Control_c, 0, 67, 24
1, 1124938, Control_c, 0, 67, 23
1, 1124943, Note_on_c, 0, 59, 49
1, 1124946, Note_on_c, 0, 83, 69
1, 1124952, Control_c, 0, 67, 23
1, 1124964, Note_on_c, 0, 71, 50
1, 1124965, Note_off_c, 0, 54, 43
1, 1124967, Control_c, 0, 67, 22
1, 1124975, Note_off_c, 0, 64, 37
1, 1125013, Control_c, 0, 67, 21
1, 1125027, Control_c, 0, 67, 21
1, 1125072, Control_c, 0, 67, 20
1, 1125101, Control_c, 0, 67, 20
1, 1125161, Control_c, 0, 67, 19
1, 1125167, Note_on_c, 0, 62, 58
1, 1125183, Note_off_c, 0, 71, 57
1, 1125220, Control_c, 0, 67, 20
1, 1125250, Control_c, 0, 67, 20
1, 1125253, Note_off_c, 0, 83, 58
1, 1125265, Control_c, 0, 67, 21
1, 1125280, Control_c, 0, 67, 22
1, 1125294, Control_c, 0, 67, 23
1, 1125309, Control_c, 0, 67, 23
1, 1125324, Control_c, 0, 67, 24
1, 1125339, Control_c, 0, 67, 25
1, 1125354, Control_c, 0, 67, 25
1, 1125368, Control_c, 0, 67, 26
1, 1125380, Note_on_c, 0, 74, 62
1, 1125402, Note_off_c, 0, 59, 47
1, 1125405, Control_c, 0, 67, 27
1, 1125408, Note_on_c, 0, 66, 44
1, 1125420, Control_c, 0, 67, 27
1, 1125435, Control_c, 0, 67, 28
1, 1125447, Note_off_c, 0, 62, 36
1, 1125450, Control_c, 0, 67, 29
1, 1125465, Control_c, 0, 67, 30
1, 1125480, Control_c, 0, 67, 30
1, 1125494, Control_c, 0, 67, 31
1, 1125509, Control_c, 0, 67, 36
1, 1125524, Control_c, 0, 67, 45
1, 1125539, Control_c, 0, 67, 54
1, 1125553, Control_c, 0, 67, 61
1, 1125568, Control_c, 0, 67, 67
1, 1125583, Control_c, 0, 67, 72
1, 1125598, Control_c, 0, 67, 78
1, 1125613, Control_c, 0, 67, 85
1, 1125627, Control_c, 0, 67, 92
1, 1125642, Control_c, 0, 67, 99
1, 1125657, Control_c, 0, 67, 104
1, 1125658, Note_on_c, 0, 82, 62
1, 1125672, Control_c, 0, 67, 110
1, 1125679, Note_on_c, 0, 54, 44
1, 1125687, Control_c, 0, 67, 114
1, 1125698, Note_off_c, 0, 66, 56
1, 1125700, Note_off_c, 0, 74, 61
1, 1125701, Control_c, 0, 67, 118
1, 1125716, Control_c, 0, 67, 121
1, 1125731, Control_c, 0, 67, 124
1, 1125746, Control_c, 0, 67, 125
1, 1125760, Control_c, 0, 67, 126
1, 1125867, Note_on_c, 0, 74, 56
1, 1125872, Note_on_c, 0, 66, 54
1, 1125897, Note_off_c, 0, 66, 66
1, 1125899, Note_off_c, 0, 74, 66
1, 1125965, Note_on_c, 0, 67, 57
1, 1125975, Note_on_c, 0, 76, 55
1, 1125986, Note_off_c, 0, 67, 64
1, 1126012, Note_off_c, 0, 76, 61
1, 1126072, Note_on_c, 0, 73, 59
1, 1126085, Note_on_c, 0, 64, 52
1, 1126117, Control_c, 0, 67, 126
1, 1126123, Note_off_c, 0, 64, 59
1, 1126133, Note_off_c, 0, 73, 61
1, 1126168, Control_c, 0, 67, 127
1, 1126272, Control_c, 0, 67, 126
1, 1126287, Control_c, 0, 67, 125
1, 1126302, Control_c, 0, 67, 125
1, 1126317, Control_c, 0, 67, 124
1, 1126317, Note_on_c, 0, 83, 56
1, 1126325, Note_off_c, 0, 54, 53
1, 1126331, Control_c, 0, 67, 123
1, 1126334, Note_on_c, 0, 71, 39
1, 1126338, Note_on_c, 0, 59, 40
1, 1126344, Note_on_c, 0, 62, 44
1, 1126346, Control_c, 0, 67, 122
1, 1126349, Note_off_c, 0, 82, 35
1, 1126361, Control_c, 0, 64, 56
1, 1126361, Control_c, 0, 67, 121
1, 1126375, Control_c, 0, 64, 65
1, 1126375, Control_c, 0, 67, 119
1, 1126390, Control_c, 0, 64, 68
1, 1126390, Control_c, 0, 67, 118
1, 1126398, Note_off_c, 0, 62, 61
1, 1126405, Control_c, 0, 64, 70
1, 1126405, Control_c, 0, 67, 117
1, 1126406, Note_off_c, 0, 59, 63
1, 1126420, Control_c, 0, 64, 73
1, 1126420, Control_c, 0, 67, 116
1, 1126423, Note_off_c, 0, 71, 64
1, 1126435, Control_c, 0, 64, 77
1, 1126435, Control_c, 0, 67, 115
1, 1126449, Control_c, 0, 64, 78
1, 1126449, Control_c, 0, 67, 114
1, 1126464, Control_c, 0, 64, 79
1, 1126464, Control_c, 0, 67, 113
1, 1126479, Control_c, 0, 67, 111
1, 1126494, Control_c, 0, 67, 108
1, 1126506, Note_off_c, 0, 83, 61
1, 1126509, Control_c, 0, 67, 105
1, 1126523, Control_c, 0, 67, 100
1, 1126538, Control_c, 0, 64, 78
1, 1126538, Control_c, 0, 67, 94
1, 1126552, Note_on_c, 0, 71, 62
1, 1126553, Control_c, 0, 64, 75
1, 1126553, Control_c, 0, 67, 85
1, 1126569, Control_c, 0, 64, 69
1, 1126569, Control_c, 0, 67, 77
1, 1126584, Control_c, 0, 64, 65
1, 1126584, Control_c, 0, 67, 67
1, 1126598, Control_c, 0, 64, 60
1, 1126598, Control_c, 0, 67, 60
1, 1126613, Control_c, 0, 64, 49
1, 1126613, Control_c, 0, 67, 54
1, 1126628, Control_c, 0, 64, 33
1, 1126628, Control_c, 0, 67, 48
1, 1126643, Control_c, 0, 64, 0
1, 1126643, Control_c, 0, 67, 42
1, 1126658, Control_c, 0, 67, 37
1, 1126672, Control_c, 0, 67, 33
1, 1126687, Control_c, 0, 67, 28
1, 1126702, Control_c, 0, 67, 24
1, 1126717, Control_c, 0, 67, 20
1, 1126732, Control_c, 0, 67, 15
1, 1126746, Note_on_c, 0, 90, 83
1, 1126746, Control_c, 0, 67, 12
1, 1126760, Note_off_c, 0, 71, 61
1, 1126761, Control_c, 0, 67, 8
1, 1126764, Note_on_c, 0, 78, 66
1, 1126776, Note_on_c, 0, 74, 47
1, 1126776, Control_c, 0, 67, 0
1, 1126988, Note_on_c, 0, 66, 56
1, 1127053, Note_off_c, 0, 78, 61
1, 1127056, Note_off_c, 0, 74, 57
1, 1127072, Note_off_c, 0, 90, 60
1, 1127193, Note_on_c, 0, 90, 80
1, 1127202, Note_on_c, 0, 78, 62
1, 1127206, Note_on_c, 0, 70, 60
1, 1127222, Note_off_c, 0, 78, 68
1, 1127256, Note_off_c, 0, 90, 51
1, 1127286, Note_on_c, 0, 91, 71
1, 1127292, Note_on_c, 0, 79, 67
1, 1127312, Note_off_c, 0, 91, 65
1, 1127319, Note_off_c, 0, 79, 65
1, 1127349, Note_off_c, 0, 70, 60
1, 1127395, Note_on_c, 0, 73, 48
1, 1127402, Note_on_c, 0, 88, 78
1, 1127411, Note_on_c, 0, 76, 72
1, 1127449, Note_off_c, 0, 73, 58
1, 1127492, Note_off_c, 0, 76, 57
1, 1127500, Note_off_c, 0, 88, 61
1, 1127629, Control_c, 0, 67, 12
1, 1127635, Note_off_c, 0, 66, 50
1, 1127648, Note_on_c, 0, 86, 72
1, 1127652, Control_c, 0, 67, 17
1, 1127667, Control_c, 0, 67, 20
1, 1127676, Note_on_c, 0, 59, 45
1, 1127677, Note_on_c, 0, 71, 38
1, 1127678, Note_on_c, 0, 74, 49
1, 1127682, Control_c, 0, 67, 23
1, 1127696, Control_c, 0, 67, 25
1, 1127711, Control_c, 0, 67, 26
1, 1127726, Control_c, 0, 67, 28
1, 1127741, Control_c, 0, 67, 29
1, 1127755, Control_c, 0, 67, 31
1, 1127770, Control_c, 0, 67, 34
1, 1127785, Control_c, 0, 67, 36
1, 1127800, Control_c, 0, 67, 38
1, 1127815, Control_c, 0, 67, 39
1, 1127829, Control_c, 0, 67, 39
1, 1127844, Control_c, 0, 67, 40
1, 1127859, Control_c, 0, 67, 41
1, 1127873, Note_off_c, 0, 71, 48
1, 1127889, Control_c, 0, 67, 41
1, 1127918, Note_on_c, 0, 62, 47
1, 1127918, Control_c, 0, 67, 42
1, 1127975, Note_off_c, 0, 74, 60
1, 1127992, Note_off_c, 0, 86, 56
1, 1127992, Control_c, 0, 67, 43
1, 1128022, Control_c, 0, 67, 43
1, 1128037, Control_c, 0, 67, 45
1, 1128052, Control_c, 0, 67, 47
1, 1128067, Control_c, 0, 67, 50
1, 1128082, Control_c, 0, 67, 52
1, 1128096, Control_c, 0, 67, 53
1, 1128111, Control_c, 0, 67, 54
1, 1128126, Control_c, 0, 67, 54
1, 1128141, Control_c, 0, 67, 55
1, 1128143, Note_off_c, 0, 62, 57
1, 1128145, Note_off_c, 0, 59, 54
1, 1128146, Note_on_c, 0, 74, 51
1, 1128156, Control_c, 0, 67, 55
1, 1128157, Note_on_c, 0, 66, 41
1, 1128172, Control_c, 0, 67, 56
1, 1128187, Control_c, 0, 67, 57
1, 1128201, Control_c, 0, 67, 58
1, 1128216, Control_c, 0, 67, 60
1, 1128231, Control_c, 0, 67, 63
1, 1128246, Control_c, 0, 67, 67
1, 1128261, Control_c, 0, 67, 71
1, 1128276, Control_c, 0, 67, 75
1, 1128291, Control_c, 0, 67, 80
1, 1128305, Control_c, 0, 67, 85
1, 1128320, Control_c, 0, 67, 89
1, 1128335, Control_c, 0, 67, 95
1, 1128350, Control_c, 0, 67, 100
1, 1128365, Control_c, 0, 67, 106
1, 1128379, Control_c, 0, 67, 112
1, 1128401, Control_c, 0, 67, 119
1, 1128415, Control_c, 0, 67, 125
1, 1128430, Control_c, 0, 67, 127
1, 1128446, Note_on_c, 0, 82, 59
1, 1128455, Note_on_c, 0, 54, 38
1, 1128487, Note_off_c, 0, 66, 59
1, 1128499, Note_off_c, 0, 74, 59
1, 1128678, Note_on_c, 0, 66, 48
1, 1128693, Note_on_c, 0, 74, 35
1, 1128706, Note_off_c, 0, 66, 62
1, 1128720, Note_off_c, 0, 74, 55
1, 1128770, Note_on_c, 0, 67, 62
1, 1128785, Note_on_c, 0, 76, 49
1, 1128796, Note_off_c, 0, 67, 67
1, 1128817, Note_off_c, 0, 76, 58
1, 1128905, Note_on_c, 0, 73, 58
1, 1128912, Note_on_c, 0, 64, 54
1, 1128967, Note_off_c, 0, 64, 53
1, 1128989, Note_off_c, 0, 73, 61
1, 1129280, Note_on_c, 0, 83, 46
1, 1129303, Note_on_c, 0, 59, 31
1, 1129307, Note_on_c, 0, 62, 32
1, 1129307, Note_off_c, 0, 54, 35
1, 1129310, Note_on_c, 0, 71, 35
1, 1129312, Note_off_c, 0, 82, 36
1, 1129460, Control_c, 0, 64, 31
1, 1129474, Control_c, 0, 64, 51
1, 1129489, Control_c, 0, 64, 60
1, 1129504, Control_c, 0, 64, 62
1, 1129519, Control_c, 0, 64, 64
1, 1129534, Control_c, 0, 64, 66
1, 1129549, Control_c, 0, 64, 68
1, 1129563, Control_c, 0, 64, 70
1, 1129578, Control_c, 0, 64, 72
1, 1129593, Control_c, 0, 64, 73
1, 1129608, Control_c, 0, 64, 73
1, 1129623, Control_c, 0, 64, 74
1, 1129660, Note_off_c, 0, 83, 57
1, 1129664, Note_off_c, 0, 62, 42
1, 1129674, Note_off_c, 0, 71, 41
1, 1129713, Note_off_c, 0, 59, 48
1, 1129802, Control_c, 0, 64, 73
1, 1129802, Control_c, 0, 67, 119
1, 1129816, Control_c, 0, 64, 69
1, 1129816, Control_c, 0, 67, 90
1, 1129831, Control_c, 0, 64, 62
1, 1129831, Control_c, 0, 67, 56
1, 1129846, Control_c, 0, 64, 0
1, 1129846, Control_c, 0, 67, 18
1, 1129861, Control_c, 0, 67, 0
1, 1130014, Note_on_c, 0, 62, 97
1, 1130016, Note_on_c, 0, 74, 90
1, 1130018, Note_on_c, 0, 50, 92
1, 1130019, Note_on_c, 0, 38, 80
1, 1130076, Control_c, 0, 64, 21
1, 1130091, Control_c, 0, 64, 66
1, 1130106, Control_c, 0, 64, 84
1, 1130121, Control_c, 0, 64, 127
1, 1130198, Note_off_c, 0, 38, 61
1, 1130207, Note_off_c, 0, 50, 57
1, 1130230, Note_off_c, 0, 62, 53
1, 1130233, Note_off_c, 0, 74, 63
1, 1130383, Note_on_c, 0, 74, 89
1, 1130384, Note_on_c, 0, 62, 95
1, 1130387, Control_c, 0, 64, 69
1, 1130389, Note_on_c, 0, 50, 92
1, 1130392, Note_on_c, 0, 38, 89
1, 1130402, Control_c, 0, 64, 0
1, 1130461, Control_c, 0, 64, 60
1, 1130476, Control_c, 0, 64, 71
1, 1130490, Control_c, 0, 64, 84
1, 1130505, Control_c, 0, 64, 99
1, 1130520, Control_c, 0, 64, 103
1, 1130535, Control_c, 0, 64, 104
1, 1130541, Note_off_c, 0, 50, 56
1, 1130544, Note_off_c, 0, 38, 62
1, 1130551, Note_off_c, 0, 62, 57
1, 1130556, Note_off_c, 0, 74, 59
1, 1130692, Control_c, 0, 64, 103
1, 1130699, Note_on_c, 0, 62, 79
1, 1130699, Note_on_c, 0, 74, 77
1, 1130701, Note_on_c, 0, 50, 81
1, 1130708, Note_on_c, 0, 38, 79
1, 1130727, Note_off_c, 0, 50, 63
1, 1130735, Note_off_c, 0, 38, 65
1, 1130736, Control_c, 0, 64, 101
1, 1130744, Note_off_c, 0, 62, 57
1, 1130746, Note_off_c, 0, 74, 61
1, 1130751, Control_c, 0, 64, 98
1, 1130765, Control_c, 0, 64, 94
1, 1130780, Control_c, 0, 64, 90
1, 1130795, Control_c, 0, 64, 87
1, 1130810, Control_c, 0, 64, 85
1, 1130811, Note_on_c, 0, 62, 82
1, 1130812, Note_on_c, 0, 74, 75
1, 1130815, Note_on_c, 0, 38, 74
1, 1130817, Note_on_c, 0, 50, 79
1, 1130825, Control_c, 0, 64, 82
1, 1130839, Control_c, 0, 64, 79
1, 1130843, Note_off_c, 0, 50, 66
1, 1130845, Note_off_c, 0, 38, 67
1, 1130854, Control_c, 0, 64, 77
1, 1130856, Note_off_c, 0, 62, 61
1, 1130856, Note_off_c, 0, 74, 62
1, 1130869, Control_c, 0, 64, 75
1, 1130884, Control_c, 0, 64, 74
1, 1130899, Control_c, 0, 64, 73
1, 1130913, Note_on_c, 0, 74, 75
1, 1130914, Control_c, 0, 64, 72
1, 1130914, Note_on_c, 0, 50, 72
1, 1130914, Note_on_c, 0, 62, 81
1, 1130923, Note_on_c, 0, 38, 74
1, 1130929, Control_c, 0, 64, 72
1, 1130943, Note_off_c, 0, 50, 66
1, 1130944, Control_c, 0, 64, 71
1, 1130951, Note_off_c, 0, 38, 67
1, 1130953, Note_off_c, 0, 74, 68
1, 1130958, Note_off_c, 0, 62, 61
1, 1130958, Control_c, 0, 64, 70
1, 1130973, Control_c, 0, 64, 69
1, 1130988, Control_c, 0, 64, 68
1, 1131003, Note_on_c, 0, 74, 75
1, 1131003, Control_c, 0, 64, 67
1, 1131006, Note_on_c, 0, 62, 78
1, 1131007, Note_on_c, 0, 50, 72
1, 1131008, Note_on_c, 0, 38, 73
1, 1131018, Control_c, 0, 64, 67
1, 1131033, Control_c, 0, 64, 66
1, 1131047, Control_c, 0, 64, 66
1, 1131051, Note_off_c, 0, 62, 63
1, 1131052, Note_off_c, 0, 74, 66
1, 1131054, Note_off_c, 0, 38, 63
1, 1131062, Note_off_c, 0, 50, 59
1, 1131151, Control_c, 0, 64, 63
1, 1131165, Control_c, 0, 64, 19
1, 1131180, Control_c, 0, 64, 0
1, 1131184, Note_on_c, 0, 74, 90
1, 1131194, Note_on_c, 0, 62, 87
1, 1131205, Note_on_c, 0, 48, 85
1, 1131209, Note_on_c, 0, 50, 77
1, 1131209, Note_on_c, 0, 72, 95
1, 1131209, Note_on_c, 0, 38, 80
1, 1131254, Control_c, 0, 64, 58
1, 1131269, Control_c, 0, 64, 73
1, 1131284, Control_c, 0, 64, 91
1, 1131298, Control_c, 0, 64, 111
1, 1131313, Control_c, 0, 64, 121
1, 1131328, Control_c, 0, 64, 127
1, 1131358, Note_off_c, 0, 48, 56
1, 1131359, Note_off_c, 0, 50, 58
1, 1131364, Note_off_c, 0, 38, 62
1, 1131370, Note_off_c, 0, 62, 57
1, 1131376, Note_off_c, 0, 74, 58
1, 1131392, Note_off_c, 0, 72, 62
1, 1131492, Note_on_c, 0, 72, 82
1, 1131496, Note_on_c, 0, 62, 74
1, 1131498, Note_on_c, 0, 74, 64
1, 1131507, Note_on_c, 0, 48, 68
1, 1131507, Note_on_c, 0, 50, 63
1, 1131509, Note_on_c, 0, 38, 65
1, 1131546, Note_off_c, 0, 50, 58
1, 1131549, Note_off_c, 0, 38, 60
1, 1131549, Note_off_c, 0, 48, 57
1, 1131557, Note_off_c, 0, 62, 60
1, 1131561, Note_off_c, 0, 74, 60
1, 1131567, Note_off_c, 0, 72, 63
1, 1131701, Note_on_c, 0, 72, 77
1, 1131705, Note_on_c, 0, 62, 75
1, 1131709, Note_on_c, 0, 48, 64
1, 1131712, Note_on_c, 0, 38, 64
1, 1131713, Note_on_c, 0, 74, 61
1, 1131714, Note_on_c, 0, 50, 61
1, 1131739, Note_off_c, 0, 48, 61
1, 1131739, Note_off_c, 0, 50, 60
1, 1131748, Note_off_c, 0, 38, 63
1, 1131748, Note_off_c, 0, 62, 54
1, 1131750, Note_off_c, 0, 74, 59
1, 1131753, Note_off_c, 0, 72, 65
1, 1131841, Control_c, 0, 64, 116
1, 1131856, Control_c, 0, 64, 78
1, 1131870, Control_c, 0, 64, 21
1, 1131885, Control_c, 0, 64, 0
1, 1131906, Note_on_c, 0, 72, 78
1, 1131908, Note_on_c, 0, 74, 77
1, 1131918, Note_on_c, 0, 62, 76
1, 1131918, Note_on_c, 0, 46, 74
1, 1131933, Note_on_c, 0, 50, 59
1, 1131934, Note_on_c, 0, 70, 89
1, 1131944, Control_c, 0, 64, 54
1, 1131945, Note_on_c, 0, 38, 48
1, 1131959, Control_c, 0, 64, 68
1, 1131966, Note_off_c, 0, 72, 66
1, 1131974, Control_c, 0, 64, 80
1, 1131988, Control_c, 0, 64, 90
1, 1131996, Note_off_c, 0, 74, 59
1, 1132003, Control_c, 0, 64, 95
1, 1132018, Note_off_c, 0, 62, 55
1, 1132018, Note_off_c, 0, 70, 63
1, 1132018, Control_c, 0, 64, 108
1, 1132025, Note_off_c, 0, 46, 59
1, 1132033, Control_c, 0, 64, 127
1, 1132038, Note_off_c, 0, 38, 54
1, 1132043, Note_off_c, 0, 50, 34
1, 1132121, Control_c, 0, 64, 71
1, 1132144, Control_c, 0, 64, 0
1, 1132145, Note_on_c, 0, 70, 82
1, 1132165, Note_on_c, 0, 62, 79
1, 1132169, Note_on_c, 0, 74, 77
1, 1132174, Control_c, 0, 64, 50
1, 1132179, Note_on_c, 0, 69, 88
1, 1132182, Note_on_c, 0, 45, 77
1, 1132182, Note_on_c, 0, 50, 75
1, 1132188, Note_on_c, 0, 38, 71
1, 1132189, Control_c, 0, 64, 67
1, 1132204, Control_c, 0, 64, 86
1, 1132209, Note_off_c, 0, 70, 61
1, 1132218, Control_c, 0, 64, 127
1, 1132258, Note_off_c, 0, 69, 64
1, 1132267, Poly_aftertouch_c, 0, 71, 0
1, 1132270, Note_off_c, 0, 45, 61
1, 1132270, Note_off_c, 0, 50, 57
1, 1132270, Note_off_c, 0, 62, 59
1, 1132273, Note_off_c, 0, 38, 61
1, 1132285, Note_off_c, 0, 74, 62
1, 1132288, Poly_aftertouch_c, 0, 71, 0
1, 1132351, Control_c, 0, 64, 69
1, 1132354, Note_on_c, 0, 69, 84
1, 1132366, Control_c, 0, 64, 0
1, 1132368, Note_on_c, 0, 62, 90
1, 1132372, Note_on_c, 0, 74, 85
1, 1132374, Note_on_c, 0, 67, 90
1, 1132389, Note_on_c, 0, 50, 76
1, 1132390, Note_on_c, 0, 43, 80
1, 1132394, Note_on_c, 0, 38, 71
1, 1132405, Note_off_c, 0, 69, 66
1, 1132410, Control_c, 0, 64, 61
1, 1132425, Control_c, 0, 64, 97
1, 1132440, Control_c, 0, 64, 127
1, 1132447, Note_off_c, 0, 62, 57
1, 1132473, Note_off_c, 0, 67, 62
1, 1132479, Note_off_c, 0, 74, 62
1, 1132481, Note_off_c, 0, 50, 58
1, 1132483, Note_off_c, 0, 38, 62
1, 1132493, Note_off_c, 0, 43, 61
1, 1132544, Control_c, 0, 64, 77
1, 1132556, Note_on_c, 0, 67, 91
1, 1132559, Control_c, 0, 64, 12
1, 1132565, Note_on_c, 0, 74, 81
1, 1132574, Control_c, 0, 64, 0
1, 1132576, Note_on_c, 0, 65, 95
1, 1132579, Note_on_c, 0, 41, 84
1, 1132583, Note_on_c, 0, 50, 83
1, 1132593, Note_on_c, 0, 38, 69
1, 1132604, Control_c, 0, 64, 64
1, 1132618, Control_c, 0, 64, 127
1, 1132630, Note_off_c, 0, 67, 59
1, 1132665, Note_off_c, 0, 74, 63
1, 1132669, Note_off_c, 0, 65, 63
1, 1132683, Note_off_c, 0, 50, 57
1, 1132685, Note_off_c, 0, 38, 60
1, 1132687, Note_off_c, 0, 41, 63
1, 1132736, Control_c, 0, 64, 94
1, 1132747, Note_on_c, 0, 65, 92
1, 1132751, Control_c, 0, 64, 58
1, 1132756, Note_on_c, 0, 74, 80
1, 1132766, Control_c, 0, 64, 0
1, 1132773, Note_on_c, 0, 64, 100
1, 1132774, Note_on_c, 0, 50, 84
1, 1132776, Note_on_c, 0, 40, 84
1, 1132794, Note_on_c, 0, 38, 61
1, 1132796, Control_c, 0, 64, 52
1, 1132804, Note_off_c, 0, 65, 63
1, 1132810, Control_c, 0, 64, 81
1, 1132825, Control_c, 0, 64, 127
1, 1132859, Note_off_c, 0, 74, 64
1, 1132862, Note_off_c, 0, 64, 62
1, 1132888, Note_off_c, 0, 38, 59
1, 1132899, Note_off_c, 0, 50, 58
1, 1132925, Note_off_c, 0, 40, 63
1, 1132937, Control_c, 0, 64, 78
1, 1132950, Note_on_c, 0, 64, 83
1, 1132951, Control_c, 0, 64, 8
1, 1132965, Note_on_c, 0, 74, 77
1, 1132967, Control_c, 0, 64, 0
1, 1132971, Note_on_c, 0, 68, 54
1, 1132973, Note_on_c, 0, 38, 82
1, 1132974, Note_on_c, 0, 50, 95
1, 1132986, Note_on_c, 0, 62, 95
1, 1132995, Note_off_c, 0, 68, 61
1, 1132997, Control_c, 0, 64, 61
1, 1133012, Control_c, 0, 64, 101
1, 1133026, Note_off_c, 0, 50, 63
1, 1133027, Control_c, 0, 64, 127
1, 1133045, Note_off_c, 0, 38, 63
1, 1133053, Note_off_c, 0, 74, 57
1, 1133096, Note_off_c, 0, 62, 59
1, 1133099, Note_off_c, 0, 64, 23
1, 1133126, Note_on_c, 0, 70, 23
1, 1133164, Note_off_c, 0, 70, 52
1, 1133174, Control_c, 0, 64, 64
1, 1133189, Control_c, 0, 64, 0
1, 1133202, Note_on_c, 0, 68, 89
1, 1133203, Note_on_c, 0, 46, 97
1, 1133203, Note_on_c, 0, 62, 91
1, 1133205, Note_on_c, 0, 74, 85
1, 1133208, Note_on_c, 0, 34, 94
1, 1133239, Note_off_c, 0, 34, 64
1, 1133245, Note_off_c, 0, 46, 60
1, 1133248, Control_c, 0, 64, 61
1, 1133263, Control_c, 0, 64, 108
1, 1133277, Note_off_c, 0, 62, 57
1, 1133278, Control_c, 0, 64, 127
1, 1133284, Note_off_c, 0, 74, 62
1, 1133290, Note_off_c, 0, 68, 63
1, 1133449, Note_on_c, 0, 62, 83
1, 1133450, Note_on_c, 0, 46, 87
1, 1133450, Note_on_c, 0, 74, 77
1, 1133451, Note_on_c, 0, 34, 84
1, 1133451, Note_on_c, 0, 68, 80
1, 1133472, Note_off_c, 0, 46, 69
1, 1133480, Note_off_c, 0, 34, 67
1, 1133482, Note_off_c, 0, 62, 59
1, 1133486, Control_c, 0, 64, 68
1, 1133492, Note_off_c, 0, 68, 61
1, 1133492, Note_off_c, 0, 74, 63
1, 1133501, Control_c, 0, 64, 0
1, 1133537, Note_on_c, 0, 34, 85
1, 1133539, Note_on_c, 0, 46, 92
1, 1133541, Note_on_c, 0, 74, 75
1, 1133544, Note_on_c, 0, 62, 89
1, 1133549, Note_on_c, 0, 68, 62
1, 1133575, Note_on_c, 0, 69, 51
1, 1133577, Note_off_c, 0, 46, 63
1, 1133579, Note_off_c, 0, 34, 65
1, 1133583, Note_off_c, 0, 68, 53
1, 1133586, Note_off_c, 0, 74, 67
1, 1133588, Note_off_c, 0, 62, 61
1, 1133600, Note_off_c, 0, 69, 61
1, 1133635, Note_on_c, 0, 34, 80
1, 1133639, Note_on_c, 0, 46, 87
1, 1133650, Note_on_c, 0, 74, 78
1, 1133651, Note_on_c, 0, 68, 86
1, 1133654, Note_on_c, 0, 62, 79
1, 1133665, Note_off_c, 0, 46, 65
1, 1133681, Note_off_c, 0, 34, 65
1, 1133685, Note_off_c, 0, 62, 59
1, 1133688, Note_off_c, 0, 74, 62
1, 1133690, Note_off_c, 0, 68, 63
1, 1133725, Note_on_c, 0, 34, 77
1, 1133728, Note_on_c, 0, 46, 87
1, 1133731, Poly_aftertouch_c, 0, 68, 0
1, 1133734, Note_on_c, 0, 74, 69
1, 1133739, Note_on_c, 0, 62, 81
1, 1133739, Note_on_c, 0, 68, 77
1, 1133777, Note_off_c, 0, 46, 56
1, 1133784, Note_off_c, 0, 62, 62
1, 1133785, Note_off_c, 0, 68, 61
1, 1133789, Note_off_c, 0, 34, 63
1, 1133793, Note_off_c, 0, 74, 64
1, 1133860, Note_on_c, 0, 73, 81
1, 1133862, Note_on_c, 0, 64, 94
1, 1133865, Note_on_c, 0, 76, 98
1, 1133868, Note_on_c, 0, 69, 81
1, 1133877, Note_on_c, 0, 33, 77
1, 1133877, Note_on_c, 0, 45, 76
1, 1134028, Control_c, 0, 64, 43
1, 1134043, Control_c, 0, 64, 60
1, 1134058, Control_c, 0, 64, 66
1, 1134072, Control_c, 0, 64, 79
1, 1134087, Control_c, 0, 64, 113
1, 1134102, Control_c, 0, 64, 127
1, 1134161, Note_off_c, 0, 76, 61
1, 1134191, Note_off_c, 0, 69, 63
1, 1134201, Note_off_c, 0, 73, 59
1, 1134216, Note_off_c, 0, 33, 63
1, 1134222, Note_off_c, 0, 64, 63
1, 1134261, Note_off_c, 0, 45, 63
1, 1134369, Control_c, 0, 64, 90
1, 1134390, Control_c, 0, 64, 57
1, 1134405, Control_c, 0, 64, 0
1, 1134435, Control_c, 0, 67, 9
1, 1134450, Control_c, 0, 67, 20
1, 1134464, Control_c, 0, 67, 30
1, 1134479, Control_c, 0, 67, 37
1, 1134494, Control_c, 0, 67, 45
1, 1134509, Control_c, 0, 67, 56
1, 1134524, Control_c, 0, 67, 69
1, 1134539, Control_c, 0, 67, 84
1, 1134553, Control_c, 0, 67, 100
1, 1134569, Control_c, 0, 67, 111
1, 1134579, Note_on_c, 0, 65, 45
1, 1134584, Control_c, 0, 67, 118
1, 1134588, Note_on_c, 0, 46, 37
1, 1134593, Note_on_c, 0, 50, 36
1, 1134596, Note_on_c, 0, 56, 29
1, 1134599, Control_c, 0, 67, 126
1, 1134613, Control_c, 0, 64, 39
1, 1134613, Control_c, 0, 67, 127
1, 1134628, Control_c, 0, 64, 61
1, 1134643, Control_c, 0, 64, 69
1, 1134658, Control_c, 0, 64, 83
1, 1134673, Control_c, 0, 64, 96
1, 1134688, Control_c, 0, 64, 101
1, 1134696, Note_off_c, 0, 50, 51
1, 1134698, Note_off_c, 0, 65, 54
1, 1134702, Control_c, 0, 64, 102
1, 1134733, Note_off_c, 0, 56, 35
1, 1134735, Note_off_c, 0, 46, 33
1, 1134747, Control_c, 0, 64, 101
1, 1134762, Control_c, 0, 64, 94
1, 1134777, Control_c, 0, 64, 82
1, 1134792, Control_c, 0, 64, 69
1, 1134802, Note_on_c, 0, 46, 49
1, 1134807, Control_c, 0, 64, 56
1, 1134808, Note_on_c, 0, 64, 60
1, 1134809, Note_on_c, 0, 52, 56
1, 1134811, Note_on_c, 0, 56, 48
1, 1134821, Control_c, 0, 64, 0
1, 1134838, Note_off_c, 0, 64, 66
1, 1134844, Note_off_c, 0, 46, 60
1, 1134844, Note_off_c, 0, 52, 61
1, 1134846, Note_off_c, 0, 56, 56
1, 1134899, Note_on_c, 0, 52, 56
1, 1134903, Note_on_c, 0, 56, 54
1, 1134903, Note_on_c, 0, 64, 66
1, 1134914, Note_on_c, 0, 46, 47
1, 1134930, Note_off_c, 0, 52, 66
1, 1134932, Note_off_c, 0, 64, 64
1, 1134933, Note_off_c, 0, 56, 60
1, 1134960, Note_off_c, 0, 46, 0
1, 1134980, Note_on_c, 0, 46, 48
1, 1134991, Note_on_c, 0, 62, 71
1, 1134992, Note_on_c, 0, 53, 68
1, 1135001, Note_on_c, 0, 56, 57
1, 1135020, Note_off_c, 0, 53, 65
1, 1135025, Note_off_c, 0, 56, 56
1, 1135042, Note_off_c, 0, 46, 0
1, 1135052, Note_off_c, 0, 62, 0
1, 1135065, Note_on_c, 0, 62, 55
1, 1135075, Note_on_c, 0, 53, 58
1, 1135078, Note_on_c, 0, 56, 53
1, 1135079, Poly_aftertouch_c, 0, 46, 127
1, 1135099, Note_off_c, 0, 53, 65
1, 1135105, Poly_aftertouch_c, 0, 46, 0
1, 1135116, Note_off_c, 0, 56, 55
1, 1135140, Note_off_c, 0, 62, 56
1, 1135232, Note_on_c, 0, 64, 51
1, 1135246, Note_on_c, 0, 49, 36
1, 1135258, Note_on_c, 0, 45, 50
1, 1135260, Note_on_c, 0, 57, 31
1, 1135422, Control_c, 0, 64, 44
1, 1135436, Control_c, 0, 64, 58
1, 1135451, Control_c, 0, 64, 63
1, 1135466, Control_c, 0, 64, 67
1, 1135481, Control_c, 0, 64, 72
1, 1135496, Control_c, 0, 64, 80
1, 1135510, Control_c, 0, 64, 90
1, 1135525, Control_c, 0, 64, 95
1, 1135540, Control_c, 0, 64, 100
1, 1135555, Control_c, 0, 64, 106
1, 1135570, Control_c, 0, 64, 111
1, 1135585, Control_c, 0, 64, 114
1, 1135600, Control_c, 0, 64, 116
1, 1135615, Control_c, 0, 64, 118
1, 1135628, Note_off_c, 0, 45, 64
1, 1135649, Note_off_c, 0, 57, 41
1, 1135654, Note_off_c, 0, 49, 52
1, 1135659, Control_c, 0, 64, 119
1, 1135667, Note_off_c, 0, 64, 61
1, 1135762, Control_c, 0, 64, 118
1, 1135792, Control_c, 0, 64, 111
1, 1135807, Control_c, 0, 64, 97
1, 1135822, Control_c, 0, 64, 82
1, 1135836, Control_c, 0, 64, 70
1, 1135851, Control_c, 0, 64, 60
1, 1135866, Control_c, 0, 64, 10
1, 1135888, Control_c, 0, 64, 0
1, 1135903, Control_c, 0, 67, 126
1, 1135918, Control_c, 0, 67, 121
1, 1135933, Control_c, 0, 67, 116
1, 1135948, Control_c, 0, 67, 110
1, 1135962, Control_c, 0, 67, 103
1, 1135977, Control_c, 0, 67, 95
1, 1135992, Control_c, 0, 67, 89
1, 1135997, Note_on_c, 0, 76, 67
1, 1136007, Control_c, 0, 67, 84
1, 1136018, Note_on_c, 0, 70, 45
1, 1136022, Control_c, 0, 67, 81
1, 1136024, Note_on_c, 0, 64, 40
1, 1136029, Note_on_c, 0, 67, 39
1, 1136035, Note_on_c, 0, 49, 33
1, 1136036, Control_c, 0, 64, 23
1, 1136036, Control_c, 0, 67, 77
1, 1136038, Note_on_c, 0, 58, 36
1, 1136044, Note_on_c, 0, 55, 31
1, 1136051, Control_c, 0, 64, 56
1, 1136051, Control_c, 0, 67, 73
1, 1136066, Control_c, 0, 64, 65
1, 1136066, Control_c, 0, 67, 69
1, 1136081, Control_c, 0, 64, 72
1, 1136081, Control_c, 0, 67, 64
1, 1136095, Control_c, 0, 64, 82
1, 1136095, Control_c, 0, 67, 59
1, 1136110, Control_c, 0, 64, 93
1, 1136110, Control_c, 0, 67, 54
1, 1136125, Control_c, 0, 64, 103
1, 1136125, Control_c, 0, 67, 50
1, 1136140, Control_c, 0, 64, 115
1, 1136140, Control_c, 0, 67, 46
1, 1136154, Note_off_c, 0, 67, 50
1, 1136156, Control_c, 0, 64, 127
1, 1136156, Control_c, 0, 67, 43
1, 1136164, Note_off_c, 0, 70, 58
1, 1136165, Note_off_c, 0, 76, 60
1, 1136171, Control_c, 0, 67, 41
1, 1136178, Note_off_c, 0, 64, 47
1, 1136185, Control_c, 0, 67, 39
1, 1136189, Note_off_c, 0, 58, 58
1, 1136190, Note_off_c, 0, 55, 50
1, 1136200, Control_c, 0, 67, 36
1, 1136205, Note_off_c, 0, 49, 36
1, 1136215, Control_c, 0, 67, 34
1, 1136230, Control_c, 0, 67, 32
1, 1136245, Control_c, 0, 67, 30
1, 1136259, Control_c, 0, 67, 28
1, 1136274, Control_c, 0, 67, 25
1, 1136289, Control_c, 0, 67, 23
1, 1136304, Control_c, 0, 64, 116
1, 1136304, Control_c, 0, 67, 21
1, 1136319, Control_c, 0, 64, 108
1, 1136319, Control_c, 0, 67, 19
1, 1136333, Control_c, 0, 64, 102
1, 1136333, Control_c, 0, 67, 17
1, 1136348, Control_c, 0, 64, 97
1, 1136348, Control_c, 0, 67, 16
1, 1136353, Note_on_c, 0, 76, 69
1, 1136363, Control_c, 0, 64, 93
1, 1136363, Control_c, 0, 67, 14
1, 1136364, Note_on_c, 0, 55, 47
1, 1136369, Note_on_c, 0, 58, 44
1, 1136371, Note_on_c, 0, 64, 41
1, 1136374, Note_on_c, 0, 70, 44
1, 1136378, Control_c, 0, 64, 89
1, 1136378, Control_c, 0, 67, 12
1, 1136384, Note_on_c, 0, 67, 25
1, 1136391, Note_off_c, 0, 55, 59
1, 1136392, Note_off_c, 0, 76, 52
1, 1136393, Control_c, 0, 64, 85
1, 1136393, Control_c, 0, 67, 10
1, 1136394, Note_off_c, 0, 58, 55
1, 1136399, Note_off_c, 0, 64, 54
1, 1136399, Note_off_c, 0, 70, 57
1, 1136408, Control_c, 0, 64, 82
1, 1136408, Control_c, 0, 67, 8
1, 1136422, Note_off_c, 0, 67, 52
1, 1136422, Control_c, 0, 64, 79
1, 1136422, Control_c, 0, 67, 0
1, 1136437, Control_c, 0, 64, 76
1, 1136443, Note_on_c, 0, 76, 69
1, 1136452, Control_c, 0, 64, 73
1, 1136462, Note_on_c, 0, 70, 67
1, 1136464, Note_on_c, 0, 67, 40
1, 1136467, Control_c, 0, 64, 70
1, 1136468, Note_on_c, 0, 64, 45
1, 1136473, Note_on_c, 0, 58, 48
1, 1136482, Control_c, 0, 64, 69
1, 1136485, Note_off_c, 0, 70, 63
1, 1136488, Note_on_c, 0, 55, 25
1, 1136494, Note_off_c, 0, 67, 57
1, 1136494, Note_off_c, 0, 76, 64
1, 1136497, Control_c, 0, 64, 67
1, 1136497, Note_off_c, 0, 64, 55
1, 1136500, Note_off_c, 0, 58, 57
1, 1136511, Control_c, 0, 64, 65
1, 1136515, Note_off_c, 0, 55, 0
1, 1136526, Control_c, 0, 64, 64
1, 1136541, Control_c, 0, 64, 63
1, 1136543, Note_on_c, 0, 76, 73
1, 1136546, Note_on_c, 0, 55, 33
1, 1136550, Note_on_c, 0, 70, 67
1, 1136552, Note_on_c, 0, 64, 55
1, 1136554, Note_on_c, 0, 58, 56
1, 1136556, Control_c, 0, 64, 61
1, 1136562, Note_on_c, 0, 67, 65
1, 1136571, Control_c, 0, 64, 58
1, 1136577, Note_off_c, 0, 58, 61
1, 1136578, Note_off_c, 0, 64, 55
1, 1136579, Note_off_c, 0, 70, 62
1, 1136585, Control_c, 0, 64, 55
1, 1136586, Note_off_c, 0, 55, 58
1, 1136586, Note_off_c, 0, 67, 66
1, 1136590, Note_off_c, 0, 76, 65
1, 1136600, Control_c, 0, 64, 51
1, 1136615, Control_c, 0, 64, 47
1, 1136637, Control_c, 0, 64, 43
1, 1136639, Note_on_c, 0, 76, 70
1, 1136650, Note_on_c, 0, 70, 66
1, 1136652, Control_c, 0, 64, 36
1, 1136656, Note_on_c, 0, 67, 65
1, 1136657, Note_on_c, 0, 64, 51
1, 1136663, Note_on_c, 0, 58, 50
1, 1136666, Control_c, 0, 64, 18
1, 1136668, Note_on_c, 0, 55, 26
1, 1136678, Note_off_c, 0, 70, 55
1, 1136681, Control_c, 0, 64, 0
1, 1136685, Note_off_c, 0, 64, 55
1, 1136688, Note_off_c, 0, 67, 58
1, 1136697, Note_off_c, 0, 58, 50
1, 1136706, Note_off_c, 0, 55, 52
1, 1136709, Note_off_c, 0, 76, 64
1, 1136793, Note_on_c, 0, 76, 70
1, 1136825, Note_on_c, 0, 55, 30
1, 1136825, Note_on_c, 0, 67, 47
1, 1136830, Note_on_c, 0, 69, 47
1, 1136840, Note_on_c, 0, 57, 37
1, 1136842, Note_on_c, 0, 50, 42
1, 1136844, Note_on_c, 0, 64, 4
1, 1136903, Control_c, 0, 64, 48
1, 1136917, Control_c, 0, 64, 65
1, 1136921, Note_off_c, 0, 67, 56
1, 1136932, Control_c, 0, 64, 73
1, 1136935, Note_off_c, 0, 64, 55
1, 1136947, Control_c, 0, 64, 82
1, 1136963, Control_c, 0, 64, 87
1, 1136978, Control_c, 0, 64, 92
1, 1136993, Control_c, 0, 64, 94
1, 1137024, Note_off_c, 0, 76, 63
1, 1137052, Control_c, 0, 64, 91
1, 1137054, Note_on_c, 0, 74, 61
1, 1137067, Note_on_c, 0, 66, 59
1, 1137067, Control_c, 0, 64, 83
1, 1137077, Note_on_c, 0, 62, 53
1, 1137081, Note_off_c, 0, 69, 57
1, 1137081, Control_c, 0, 64, 74
1, 1137086, Note_off_c, 0, 74, 65
1, 1137087, Note_on_c, 0, 54, 48
1, 1137096, Control_c, 0, 64, 65
1, 1137109, Note_off_c, 0, 62, 54
1, 1137111, Control_c, 0, 64, 56
1, 1137114, Note_off_c, 0, 57, 60
1, 1137123, Note_off_c, 0, 55, 52
1, 1137126, Control_c, 0, 64, 29
1, 1137141, Control_c, 0, 64, 0
1, 1137145, Note_off_c, 0, 54, 62
1, 1137153, Note_off_c, 0, 66, 63
1, 1137172, Note_off_c, 0, 50, 59
1, 1137278, Note_on_c, 0, 69, 61
1, 1137289, Note_on_c, 0, 66, 57
1, 1137291, Note_on_c, 0, 57, 49
1, 1137301, Note_on_c, 0, 54, 44
1, 1137460, Control_c, 0, 67, 16
1, 1137475, Control_c, 0, 67, 24
1, 1137490, Control_c, 0, 67, 34
1, 1137501, Note_off_c, 0, 54, 62
1, 1137504, Note_off_c, 0, 66, 64
1, 1137504, Note_off_c, 0, 69, 66
1, 1137505, Note_off_c, 0, 57, 60
1, 1137505, Control_c, 0, 67, 42
1, 1137511, Note_on_c, 0, 61, 66
1, 1137516, Note_on_c, 0, 45, 56
1, 1137519, Control_c, 0, 67, 51
1, 1137534, Control_c, 0, 67, 60
1, 1137549, Control_c, 0, 67, 70
1, 1137564, Control_c, 0, 67, 82
1, 1137579, Control_c, 0, 67, 95
1, 1137594, Control_c, 0, 67, 110
1, 1137608, Control_c, 0, 67, 120
1, 1137623, Control_c, 0, 67, 127
1, 1137722, Note_on_c, 0, 69, 57
1, 1137722, Note_on_c, 0, 57, 62
1, 1137722, Note_on_c, 0, 66, 62
1, 1137728, Note_on_c, 0, 54, 48
1, 1137752, Note_off_c, 0, 57, 65
1, 1137756, Note_off_c, 0, 54, 56
1, 1137756, Note_off_c, 0, 69, 65
1, 1137768, Note_off_c, 0, 66, 57
1, 1137820, Note_on_c, 0, 71, 61
1, 1137822, Note_on_c, 0, 67, 63
1, 1137823, Note_on_c, 0, 55, 70
1, 1137825, Note_on_c, 0, 59, 63
1, 1137844, Note_off_c, 0, 59, 64
1, 1137850, Note_off_c, 0, 67, 66
1, 1137851, Note_off_c, 0, 55, 64
1, 1137852, Note_off_c, 0, 71, 63
1, 1137933, Note_on_c, 0, 55, 56
1, 1137935, Note_on_c, 0, 67, 65
1, 1137940, Note_on_c, 0, 64, 56
1, 1137946, Note_on_c, 0, 52, 45
1, 1138038, Note_off_c, 0, 55, 59
1, 1138044, Note_off_c, 0, 64, 63
1, 1138058, Note_off_c, 0, 52, 66
1, 1138092, Note_off_c, 0, 67, 58
1, 1138098, Note_off_c, 0, 61, 61
1, 1138201, Note_off_c, 0, 45, 55
1, 1138205, Note_on_c, 0, 66, 51
1, 1138229, Note_on_c, 0, 62, 39
1, 1138231, Note_on_c, 0, 54, 36
1, 1138247, Note_on_c, 0, 50, 33
1, 1138342, Control_c, 0, 64, 47
1, 1138357, Control_c, 0, 64, 60
1, 1138372, Control_c, 0, 64, 64
1, 1138372, Control_c, 0, 67, 118
1, 1138387, Control_c, 0, 64, 67
1, 1138387, Control_c, 0, 67, 107
1, 1138402, Control_c, 0, 64, 70
1, 1138402, Control_c, 0, 67, 93
1, 1138417, Control_c, 0, 64, 75
1, 1138417, Control_c, 0, 67, 81
1, 1138426, Note_off_c, 0, 50, 57
1, 1138429, Note_off_c, 0, 62, 36
1, 1138431, Control_c, 0, 64, 81
1, 1138431, Control_c, 0, 67, 71
1, 1138438, Note_off_c, 0, 66, 63
1, 1138445, Note_off_c, 0, 54, 61
1, 1138446, Control_c, 0, 64, 86
1, 1138446, Control_c, 0, 67, 60
1, 1138461, Control_c, 0, 64, 90
1, 1138461, Control_c, 0, 67, 50
1, 1138476, Control_c, 0, 64, 97
1, 1138476, Control_c, 0, 67, 42
1, 1138490, Control_c, 0, 64, 107
1, 1138490, Control_c, 0, 67, 35
1, 1138505, Control_c, 0, 64, 127
1, 1138505, Control_c, 0, 67, 28
1, 1138520, Control_c, 0, 67, 23
1, 1138535, Control_c, 0, 67, 18
1, 1138550, Control_c, 0, 67, 12
1, 1138566, Control_c, 0, 67, 0
1, 1138669, Control_c, 0, 64, 95
1, 1138684, Control_c, 0, 64, 72
1, 1138688, Note_on_c, 0, 69, 77
1, 1138699, Note_on_c, 0, 57, 47
1, 1138699, Control_c, 0, 64, 49
1, 1138702, Note_on_c, 0, 66, 66
1, 1138713, Control_c, 0, 64, 0
1, 1138718, Note_on_c, 0, 54, 36
1, 1138787, Control_c, 0, 64, 44
1, 1138802, Control_c, 0, 64, 66
1, 1138817, Control_c, 0, 64, 79
1, 1138832, Control_c, 0, 64, 115
1, 1138847, Control_c, 0, 64, 127
1, 1138856, Note_off_c, 0, 69, 65
1, 1138866, Note_off_c, 0, 57, 58
1, 1138897, Note_off_c, 0, 66, 59
1, 1138932, Note_off_c, 0, 54, 38
1, 1139063, Note_on_c, 0, 79, 85
1, 1139087, Note_on_c, 0, 67, 63
1, 1139090, Note_on_c, 0, 70, 61
1, 1139091, Control_c, 0, 64, 97
1, 1139104, Note_on_c, 0, 55, 38
1, 1139105, Control_c, 0, 64, 65
1, 1139110, Note_on_c, 0, 64, 30
1, 1139113, Note_on_c, 0, 58, 39
1, 1139120, Control_c, 0, 64, 0
1, 1139132, Note_on_c, 0, 49, 25
1, 1139180, Control_c, 0, 64, 40
1, 1139195, Control_c, 0, 64, 63
1, 1139210, Control_c, 0, 64, 73
1, 1139225, Control_c, 0, 64, 86
1, 1139239, Control_c, 0, 64, 96
1, 1139250, Note_off_c, 0, 67, 58
1, 1139252, Note_off_c, 0, 70, 61
1, 1139254, Control_c, 0, 64, 97
1, 1139261, Note_off_c, 0, 79, 57
1, 1139267, Note_off_c, 0, 64, 46
1, 1139269, Control_c, 0, 64, 97
1, 1139272, Note_off_c, 0, 58, 57
1, 1139282, Note_off_c, 0, 49, 39
1, 1139297, Note_off_c, 0, 55, 41
1, 1139374, Control_c, 0, 64, 97
1, 1139403, Control_c, 0, 64, 95
1, 1139415, Note_on_c, 0, 79, 80
1, 1139418, Control_c, 0, 64, 93
1, 1139424, Note_on_c, 0, 67, 72
1, 1139427, Note_on_c, 0, 70, 70
1, 1139433, Control_c, 0, 64, 91
1, 1139442, Note_on_c, 0, 64, 47
1, 1139444, Note_on_c, 0, 58, 41
1, 1139446, Note_on_c, 0, 55, 34
1, 1139448, Control_c, 0, 64, 88
1, 1139454, Note_off_c, 0, 70, 66
1, 1139457, Note_off_c, 0, 67, 60
1, 1139463, Control_c, 0, 64, 86
1, 1139466, Note_off_c, 0, 79, 57
1, 1139471, Note_off_c, 0, 64, 56
1, 1139474, Note_off_c, 0, 58, 52
1, 1139477, Control_c, 0, 64, 84
1, 1139480, Note_off_c, 0, 55, 53
1, 1139492, Control_c, 0, 64, 83
1, 1139507, Control_c, 0, 64, 81
1, 1139518, Note_on_c, 0, 79, 73
1, 1139522, Control_c, 0, 64, 80
1, 1139529, Note_on_c, 0, 70, 78
1, 1139530, Note_on_c, 0, 67, 70
1, 1139536, Control_c, 0, 64, 79
1, 1139538, Note_on_c, 0, 55, 47
1, 1139547, Note_on_c, 0, 64, 40
1, 1139551, Control_c, 0, 64, 78
1, 1139555, Note_off_c, 0, 70, 62
1, 1139557, Note_off_c, 0, 67, 67
1, 1139564, Note_off_c, 0, 55, 57
1, 1139566, Control_c, 0, 64, 77
1, 1139567, Note_off_c, 0, 79, 58
1, 1139577, Note_off_c, 0, 64, 54
1, 1139581, Control_c, 0, 64, 75
1, 1139596, Control_c, 0, 64, 74
1, 1139610, Control_c, 0, 64, 73
1, 1139613, Note_on_c, 0, 79, 73
1, 1139630, Note_on_c, 0, 64, 52
1, 1139633, Control_c, 0, 64, 72
1, 1139633, Note_on_c, 0, 58, 27
1, 1139633, Note_on_c, 0, 67, 73
1, 1139635, Note_on_c, 0, 70, 74
1, 1139641, Note_on_c, 0, 55, 53
1, 1139648, Control_c, 0, 64, 72
1, 1139652, Note_off_c, 0, 64, 61
1, 1139655, Note_off_c, 0, 70, 67
1, 1139657, Note_off_c, 0, 67, 59
1, 1139663, Note_off_c, 0, 55, 61
1, 1139663, Control_c, 0, 64, 71
1, 1139666, Note_off_c, 0, 58, 44
1, 1139675, Note_off_c, 0, 79, 60
1, 1139678, Control_c, 0, 64, 71
1, 1139692, Control_c, 0, 64, 70
1, 1139707, Control_c, 0, 64, 69
1, 1139712, Note_on_c, 0, 79, 60
1, 1139718, Note_on_c, 0, 64, 70
1, 1139722, Control_c, 0, 64, 69
1, 1139725, Note_on_c, 0, 67, 68
1, 1139732, Note_on_c, 0, 70, 65
1, 1139736, Note_on_c, 0, 55, 49
1, 1139736, Control_c, 0, 64, 68
1, 1139749, Note_off_c, 0, 64, 60
1, 1139751, Control_c, 0, 64, 67
1, 1139755, Note_on_c, 0, 58, 35
1, 1139764, Note_off_c, 0, 55, 55
1, 1139766, Control_c, 0, 64, 67
1, 1139773, Note_off_c, 0, 70, 54
1, 1139777, Note_off_c, 0, 67, 60
1, 1139779, Note_off_c, 0, 79, 58
1, 1139791, Note_off_c, 0, 58, 48
1, 1139796, Control_c, 0, 64, 66
1, 1139810, Control_c, 0, 64, 66
1, 1139825, Control_c, 0, 64, 65
1, 1139840, Control_c, 0, 64, 64
1, 1139854, Control_c, 0, 64, 63
1, 1139869, Control_c, 0, 64, 54
1, 1139884, Control_c, 0, 64, 0
1, 1139886, Note_on_c, 0, 79, 76
1, 1139904, Note_on_c, 0, 69, 63
1, 1139914, Note_on_c, 0, 67, 58
1, 1139920, Note_on_c, 0, 57, 39
1, 1139921, Note_on_c, 0, 55, 26
1, 1139931, Note_on_c, 0, 50, 52
1, 1139934, Note_on_c, 0, 64, 28
1, 1139942, Note_on_c, 0, 70, 26
1, 1139973, Control_c, 0, 64, 25
1, 1139988, Note_off_c, 0, 70, 30
1, 1139988, Control_c, 0, 64, 62
1, 1140003, Control_c, 0, 64, 73
1, 1140017, Control_c, 0, 64, 81
1, 1140032, Control_c, 0, 64, 86
1, 1140036, Note_off_c, 0, 79, 59
1, 1140047, Control_c, 0, 64, 88
1, 1140053, Note_off_c, 0, 67, 59
1, 1140061, Note_off_c, 0, 64, 36
1, 1140062, Control_c, 0, 64, 89
1, 1140159, Note_on_c, 0, 78, 79
1, 1140164, Note_on_c, 0, 66, 68
1, 1140166, Control_c, 0, 64, 89
1, 1140178, Note_on_c, 0, 54, 52
1, 1140179, Note_on_c, 0, 62, 54
1, 1140181, Control_c, 0, 64, 88
1, 1140196, Control_c, 0, 64, 87
1, 1140211, Control_c, 0, 64, 85
1, 1140219, Note_off_c, 0, 62, 60
1, 1140221, Note_off_c, 0, 57, 58
1, 1140226, Control_c, 0, 64, 83
1, 1140232, Note_off_c, 0, 55, 47
1, 1140241, Control_c, 0, 64, 82
1, 1140250, Note_off_c, 0, 66, 60
1, 1140251, Note_off_c, 0, 69, 63
1, 1140254, Note_off_c, 0, 54, 62
1, 1140256, Control_c, 0, 64, 80
1, 1140263, Note_off_c, 0, 78, 62
1, 1140269, Note_off_c, 0, 50, 63
1, 1140271, Control_c, 0, 64, 78
1, 1140286, Control_c, 0, 64, 75
1, 1140300, Control_c, 0, 64, 72
1, 1140315, Control_c, 0, 64, 68
1, 1140330, Control_c, 0, 64, 64
1, 1140345, Control_c, 0, 64, 58
1, 1140359, Control_c, 0, 64, 43
1, 1140381, Control_c, 0, 64, 0
1, 1140391, Note_on_c, 0, 78, 80
1, 1140398, Note_on_c, 0, 69, 69
1, 1140408, Note_on_c, 0, 57, 53
1, 1140410, Note_on_c, 0, 66, 64
1, 1140411, Note_on_c, 0, 54, 43
1, 1140628, Note_on_c, 0, 45, 61
1, 1140648, Note_off_c, 0, 66, 61
1, 1140649, Note_off_c, 0, 69, 65
1, 1140658, Note_off_c, 0, 78, 62
1, 1140830, Note_on_c, 0, 78, 74
1, 1140838, Note_on_c, 0, 69, 47
1, 1140840, Note_on_c, 0, 66, 60
1, 1140864, Note_off_c, 0, 69, 60
1, 1140869, Note_off_c, 0, 66, 69
1, 1140873, Note_off_c, 0, 78, 58
1, 1140893, Note_off_c, 0, 54, 61
1, 1140932, Note_off_c, 0, 57, 60
1, 1140933, Note_on_c, 0, 79, 80
1, 1140945, Note_on_c, 0, 67, 67
1, 1140945, Note_on_c, 0, 71, 71
1, 1140967, Note_off_c, 0, 45, 58
1, 1140970, Note_off_c, 0, 71, 67
1, 1140977, Note_off_c, 0, 67, 64
1, 1140981, Note_off_c, 0, 79, 59
1, 1141079, Note_on_c, 0, 76, 77
1, 1141090, Note_on_c, 0, 64, 64
1, 1141094, Note_on_c, 0, 67, 57
1, 1141096, Note_on_c, 0, 57, 44
1, 1141099, Note_on_c, 0, 55, 38
1, 1141102, Note_on_c, 0, 45, 46
1, 1141132, Note_off_c, 0, 67, 62
1, 1141152, Note_off_c, 0, 55, 63
1, 1141155, Note_off_c, 0, 76, 63
1, 1141161, Note_off_c, 0, 57, 56
1, 1141164, Note_off_c, 0, 64, 62
1, 1141200, Note_off_c, 0, 45, 57
1, 1141410, Note_on_c, 0, 74, 62
1, 1141450, Note_on_c, 0, 66, 26
1, 1141451, Note_on_c, 0, 62, 26
1, 1141458, Note_on_c, 0, 57, 34
1, 1141459, Note_on_c, 0, 54, 30
1, 1141470, Note_on_c, 0, 50, 26
1, 1141603, Control_c, 0, 64, 28
1, 1141618, Control_c, 0, 64, 51
1, 1141633, Control_c, 0, 64, 60
1, 1141648, Control_c, 0, 64, 63
1, 1141663, Control_c, 0, 64, 66
1, 1141678, Control_c, 0, 64, 69
1, 1141693, Control_c, 0, 64, 72
1, 1141707, Control_c, 0, 64, 75
1, 1141722, Control_c, 0, 64, 76
1, 1141737, Control_c, 0, 64, 76
1, 1141752, Control_c, 0, 64, 77
1, 1141906, Note_off_c, 0, 74, 59
1, 1141907, Note_off_c, 0, 57, 39
1, 1141926, Note_off_c, 0, 50, 56
1, 1141946, Note_off_c, 0, 54, 48
1, 1141951, Note_off_c, 0, 62, 41
1, 1141966, Note_off_c, 0, 66, 52
1, 1141967, Control_c, 0, 64, 76
1, 1141982, Control_c, 0, 64, 75
1, 1141997, Control_c, 0, 64, 74
1, 1142012, Control_c, 0, 64, 72
1, 1142027, Control_c, 0, 64, 69
1, 1142041, Control_c, 0, 64, 66
1, 1142056, Control_c, 0, 64, 61
1, 1142056, Control_c, 0, 67, 8
1, 1142071, Control_c, 0, 64, 35
1, 1142071, Control_c, 0, 67, 9
1, 1142086, Control_c, 0, 64, 0
1, 1142086, Control_c, 0, 67, 10
1, 1142101, Control_c, 0, 67, 11
1, 1142116, Control_c, 0, 67, 12
1, 1142130, Control_c, 0, 67, 15
1, 1142145, Control_c, 0, 67, 18
1, 1142160, Control_c, 0, 67, 23
1, 1142175, Control_c, 0, 67, 27
1, 1142190, Control_c, 0, 67, 32
1, 1142204, Control_c, 0, 67, 37
1, 1142219, Control_c, 0, 67, 41
1, 1142234, Control_c, 0, 67, 47
1, 1142248, Control_c, 0, 67, 52
1, 1142263, Control_c, 0, 67, 56
1, 1142278, Control_c, 0, 67, 61
1, 1142293, Control_c, 0, 67, 64
1, 1142308, Control_c, 0, 67, 68
1, 1142322, Control_c, 0, 67, 72
1, 1142337, Control_c, 0, 67, 77
1, 1142352, Control_c, 0, 67, 82
1, 1142367, Control_c, 0, 67, 86
1, 1142382, Control_c, 0, 67, 90
1, 1142387, Note_on_c, 0, 66, 39
1, 1142396, Control_c, 0, 67, 95
1, 1142401, Note_on_c, 0, 54, 32
1, 1142411, Control_c, 0, 64, 28
1, 1142411, Control_c, 0, 67, 99
1, 1142426, Control_c, 0, 64, 48
1, 1142426, Control_c, 0, 67, 104
1, 1142441, Control_c, 0, 64, 58
1, 1142441, Control_c, 0, 67, 109
1, 1142456, Control_c, 0, 64, 62
1, 1142456, Control_c, 0, 67, 113
1, 1142471, Control_c, 0, 64, 64
1, 1142471, Control_c, 0, 67, 117
1, 1142486, Control_c, 0, 64, 67
1, 1142486, Control_c, 0, 67, 121
1, 1142501, Control_c, 0, 64, 70
1, 1142501, Control_c, 0, 67, 124
1, 1142511, Note_off_c, 0, 66, 57
1, 1142512, Note_off_c, 0, 54, 54
1, 1142515, Control_c, 0, 64, 73
1, 1142515, Control_c, 0, 67, 127
1, 1142530, Control_c, 0, 64, 75
1, 1142530, Control_c, 0, 67, 127
1, 1142545, Control_c, 0, 64, 76
1, 1142560, Control_c, 0, 64, 76
1, 1142790, Control_c, 0, 64, 75
1, 1142805, Control_c, 0, 64, 71
1, 1142819, Control_c, 0, 64, 63
1, 1142834, Control_c, 0, 64, 0
1, 1142840, Note_on_c, 0, 74, 37
1, 1142855, Note_on_c, 0, 66, 34
1, 1142856, Note_on_c, 0, 54, 32
1, 1142859, Note_on_c, 0, 59, 22
1, 1142864, Note_on_c, 0, 47, 30
1, 1142870, Note_on_c, 0, 62, 28
1, 1142878, Control_c, 0, 64, 23
1, 1142893, Control_c, 0, 64, 60
1, 1142908, Control_c, 0, 64, 69
1, 1142923, Control_c, 0, 64, 80
1, 1142924, Note_off_c, 0, 66, 58
1, 1142933, Note_off_c, 0, 54, 55
1, 1142936, Note_off_c, 0, 74, 60
1, 1142938, Control_c, 0, 64, 90
1, 1142943, Note_off_c, 0, 62, 39
1, 1142952, Control_c, 0, 64, 91
1, 1142954, Note_off_c, 0, 47, 38
1, 1142957, Note_off_c, 0, 59, 37
1, 1143070, Control_c, 0, 64, 91
1, 1143085, Control_c, 0, 64, 88
1, 1143100, Control_c, 0, 64, 81
1, 1143114, Note_on_c, 0, 74, 47
1, 1143115, Control_c, 0, 64, 73
1, 1143120, Note_on_c, 0, 59, 40
1, 1143126, Note_on_c, 0, 66, 45
1, 1143127, Note_on_c, 0, 54, 43
1, 1143129, Note_on_c, 0, 47, 38
1, 1143130, Control_c, 0, 64, 66
1, 1143135, Note_on_c, 0, 62, 31
1, 1143144, Control_c, 0, 64, 57
1, 1143147, Note_off_c, 0, 74, 60
1, 1143153, Note_off_c, 0, 66, 59
1, 1143156, Note_off_c, 0, 54, 56
1, 1143159, Control_c, 0, 64, 18
1, 1143168, Note_off_c, 0, 59, 47
1, 1143170, Note_off_c, 0, 62, 50
1, 1143174, Control_c, 0, 64, 0
1, 1143200, Note_off_c, 0, 47, 0
1, 1143215, Note_on_c, 0, 47, 40
1, 1143216, Note_on_c, 0, 74, 63
1, 1143219, Note_on_c, 0, 59, 46
1, 1143221, Note_on_c, 0, 54, 54
1, 1143225, Note_on_c, 0, 62, 45
1, 1143228, Note_on_c, 0, 66, 56
1, 1143255, Note_off_c, 0, 66, 62
1, 1143257, Note_off_c, 0, 74, 57
1, 1143258, Note_off_c, 0, 54, 61
1, 1143259, Note_off_c, 0, 59, 54
1, 1143266, Note_off_c, 0, 62, 49
1, 1143308, Note_on_c, 0, 74, 55
1, 1143314, Note_on_c, 0, 59, 52
1, 1143315, Note_on_c, 0, 54, 57
1, 1143318, Note_on_c, 0, 66, 63
1, 1143320, Note_on_c, 0, 62, 51
1, 1143347, Note_off_c, 0, 66, 68
1, 1143350, Note_off_c, 0, 54, 61
1, 1143352, Note_off_c, 0, 59, 60
1, 1143352, Note_off_c, 0, 74, 59
1, 1143353, Note_off_c, 0, 62, 58
1, 1143410, Note_on_c, 0, 74, 53
1, 1143421, Note_on_c, 0, 54, 54
1, 1143424, Note_on_c, 0, 62, 55
1, 1143428, Note_on_c, 0, 66, 53
1, 1143428, Note_on_c, 0, 59, 50
1, 1143429, Note_off_c, 0, 47, 55
1, 1143440, Note_off_c, 0, 74, 67
1, 1143444, Note_off_c, 0, 54, 60
1, 1143449, Note_off_c, 0, 66, 63
1, 1143453, Note_off_c, 0, 59, 58
1, 1143453, Note_off_c, 0, 62, 56
1, 1143543, Note_on_c, 0, 59, 40
1, 1143544, Note_on_c, 0, 62, 53
1, 1143551, Note_on_c, 0, 71, 55
1, 1143554, Note_on_c, 0, 67, 49
1, 1143558, Note_on_c, 0, 55, 32
1, 1143600, Note_off_c, 0, 55, 49
1, 1143605, Note_on_c, 0, 54, 45
1, 1143607, Note_off_c, 0, 67, 51
1, 1143622, Poly_aftertouch_c, 0, 50, 127
1, 1143632, Note_on_c, 0, 66, 47
1, 1143690, Note_off_c, 0, 59, 57
1, 1143691, Note_off_c, 0, 54, 62
1, 1143692, Note_off_c, 0, 71, 63
1, 1143693, Note_off_c, 0, 66, 64
1, 1143699, Poly_aftertouch_c, 0, 50, 0
1, 1143701, Note_off_c, 0, 62, 52
1, 1143756, Note_on_c, 0, 71, 65
1, 1143758, Note_on_c, 0, 54, 44
1, 1143763, Note_on_c, 0, 66, 49
1, 1143764, Note_on_c, 0, 59, 48
1, 1143773, Note_on_c, 0, 50, 44
1, 1143775, Note_on_c, 0, 62, 53
1, 1143891, Note_off_c, 0, 54, 62
1, 1143891, Note_off_c, 0, 59, 61
1, 1143893, Note_off_c, 0, 62, 58
1, 1143894, Note_off_c, 0, 71, 61
1, 1143896, Note_off_c, 0, 50, 58
1, 1143896, Note_off_c, 0, 66, 63
1, 1143968, Note_on_c, 0, 71, 68
1, 1143979, Note_on_c, 0, 66, 55
1, 1143985, Note_on_c, 0, 62, 56
1, 1143987, Note_on_c, 0, 59, 45
1, 1143990, Note_on_c, 0, 54, 37
1, 1143996, Note_on_c, 0, 50, 41
1, 1144026, Note_off_c, 0, 71, 61
1, 1144032, Note_off_c, 0, 59, 62
1, 1144037, Note_off_c, 0, 62, 54
1, 1144042, Note_off_c, 0, 66, 63
1, 1144055, Note_off_c, 0, 54, 61
1, 1144063, Note_off_c, 0, 50, 63
1, 1144214, Control_c, 0, 64, 27
1, 1144216, Note_on_c, 0, 66, 53
1, 1144218, Note_on_c, 0, 42, 56
1, 1144218, Note_on_c, 0, 73, 61
1, 1144223, Note_on_c, 0, 58, 54
1, 1144229, Control_c, 0, 64, 63
1, 1144240, Note_on_c, 0, 54, 42
1, 1144244, Control_c, 0, 64, 73
1, 1144259, Control_c, 0, 64, 83
1, 1144259, Note_off_c, 0, 58, 62
1, 1144273, Control_c, 0, 64, 87
1, 1144278, Poly_aftertouch_c, 0, 64, 127
1, 1144283, Note_off_c, 0, 54, 62
1, 1144283, Note_off_c, 0, 66, 64
1, 1144284, Note_off_c, 0, 42, 62
1, 1144288, Control_c, 0, 64, 89
1, 1144290, Note_off_c, 0, 73, 56
1, 1144303, Control_c, 0, 64, 89
1, 1144317, Poly_aftertouch_c, 0, 64, 0
1, 1144421, Control_c, 0, 64, 89
1, 1144436, Control_c, 0, 64, 87
1, 1144450, Control_c, 0, 64, 81
1, 1144461, Note_on_c, 0, 54, 58
1, 1144461, Note_on_c, 0, 73, 57
1, 1144465, Control_c, 0, 64, 71
1, 1144468, Note_on_c, 0, 58, 56
1, 1144475, Note_on_c, 0, 64, 38
1, 1144480, Control_c, 0, 64, 61
1, 1144481, Note_off_c, 0, 73, 62
1, 1144486, Note_on_c, 0, 66, 23
1, 1144495, Note_off_c, 0, 54, 64
1, 1144495, Control_c, 0, 64, 0
1, 1144497, Note_off_c, 0, 58, 65
1, 1144504, Note_off_c, 0, 64, 52
1, 1144521, Note_off_c, 0, 66, 47
1, 1144542, Note_on_c, 0, 73, 76
1, 1144556, Note_on_c, 0, 64, 58
1, 1144566, Note_on_c, 0, 66, 39
1, 1144568, Note_on_c, 0, 54, 55
1, 1144569, Note_on_c, 0, 58, 55
1, 1144589, Note_off_c, 0, 73, 57
1, 1144590, Note_off_c, 0, 64, 64
1, 1144593, Note_off_c, 0, 54, 61
1, 1144593, Note_off_c, 0, 66, 57
1, 1144594, Note_off_c, 0, 58, 58
1, 1144657, Note_on_c, 0, 58, 58
1, 1144657, Note_on_c, 0, 73, 68
1, 1144659, Note_on_c, 0, 66, 69
1, 1144662, Note_on_c, 0, 54, 53
1, 1144663, Note_on_c, 0, 64, 69
1, 1144683, Note_off_c, 0, 73, 62
1, 1144685, Note_off_c, 0, 58, 64
1, 1144687, Note_off_c, 0, 66, 64
1, 1144690, Note_off_c, 0, 64, 66
1, 1144691, Note_off_c, 0, 54, 63
1, 1144742, Note_on_c, 0, 73, 74
1, 1144754, Note_on_c, 0, 54, 65
1, 1144754, Note_on_c, 0, 58, 67
1, 1144766, Note_on_c, 0, 64, 48
1, 1144782, Note_off_c, 0, 58, 65
1, 1144790, Note_off_c, 0, 64, 59
1, 1144793, Note_off_c, 0, 54, 57
1, 1144801, Note_off_c, 0, 73, 60
1, 1144928, Note_on_c, 0, 67, 62
1, 1144935, Note_on_c, 0, 55, 52
1, 1144939, Note_on_c, 0, 58, 45
1, 1144946, Note_on_c, 0, 64, 39
1, 1144955, Note_on_c, 0, 49, 40
1, 1145002, Note_off_c, 0, 67, 54
1, 1145010, Note_on_c, 0, 66, 50
1, 1145032, Note_on_c, 0, 54, 48
1, 1145043, Note_off_c, 0, 55, 51
1, 1145052, Control_c, 0, 64, 33
1, 1145067, Control_c, 0, 64, 55
1, 1145081, Control_c, 0, 64, 61
1, 1145096, Control_c, 0, 64, 63
1, 1145111, Control_c, 0, 64, 63
1, 1145126, Control_c, 0, 64, 64
1, 1145141, Control_c, 0, 64, 65
1, 1145155, Control_c, 0, 64, 65
1, 1145185, Control_c, 0, 64, 66
1, 1145200, Control_c, 0, 64, 67
1, 1145215, Control_c, 0, 64, 67
1, 1145229, Control_c, 0, 64, 68
1, 1145244, Control_c, 0, 64, 68
1, 1145259, Control_c, 0, 64, 70
1, 1145273, Control_c, 0, 64, 72
1, 1145288, Control_c, 0, 64, 73
1, 1145303, Control_c, 0, 64, 76
1, 1145318, Control_c, 0, 64, 80
1, 1145333, Control_c, 0, 64, 82
1, 1145347, Control_c, 0, 64, 84
1, 1145362, Control_c, 0, 64, 85
1, 1145377, Control_c, 0, 64, 86
1, 1145392, Control_c, 0, 64, 86
1, 1145392, Control_c, 0, 67, 118
1, 1145407, Control_c, 0, 64, 87
1, 1145407, Control_c, 0, 67, 108
1, 1145422, Control_c, 0, 64, 87
1, 1145422, Control_c, 0, 67, 97
1, 1145437, Note_off_c, 0, 66, 64
1, 1145437, Control_c, 0, 67, 87
1, 1145448, Note_off_c, 0, 58, 61
1, 1145452, Control_c, 0, 67, 77
1, 1145462, Note_off_c, 0, 54, 61
1, 1145465, Note_off_c, 0, 64, 49
1, 1145466, Control_c, 0, 67, 64
1, 1145481, Control_c, 0, 67, 53
1, 1145490, Note_off_c, 0, 49, 62
1, 1145496, Control_c, 0, 67, 41
1, 1145511, Control_c, 0, 67, 29
1, 1145526, Control_c, 0, 67, 19
1, 1145540, Control_c, 0, 67, 10
1, 1145555, Control_c, 0, 64, 86
1, 1145555, Control_c, 0, 67, 0
1, 1145570, Control_c, 0, 64, 79
1, 1145585, Control_c, 0, 64, 66
1, 1145600, Control_c, 0, 64, 0
1, 1145681, Control_c, 0, 64, 34
1, 1145686, Note_on_c, 0, 62, 90
1, 1145686, Note_on_c, 0, 66, 84
1, 1145686, Note_on_c, 0, 71, 83
1, 1145687, Note_on_c, 0, 47, 78
1, 1145687, Note_on_c, 0, 59, 87
1, 1145687, Note_on_c, 0, 54, 83
1, 1145690, Note_on_c, 0, 50, 77
1, 1145696, Control_c, 0, 64, 68
1, 1145711, Control_c, 0, 64, 118
1, 1145726, Control_c, 0, 64, 127
1, 1145744, Note_off_c, 0, 71, 62
1, 1145747, Note_off_c, 0, 54, 61
1, 1145759, Note_off_c, 0, 50, 60
1, 1145766, Note_off_c, 0, 59, 59
1, 1145770, Note_off_c, 0, 62, 61
1, 1145779, Note_off_c, 0, 47, 63
1, 1145801, Note_off_c, 0, 66, 64
1, 1145926, Note_on_c, 0, 58, 85
1, 1145927, Note_on_c, 0, 70, 78
1, 1145937, Note_on_c, 0, 50, 79
1, 1145938, Note_on_c, 0, 54, 78
1, 1145940, Note_on_c, 0, 47, 75
1, 1145949, Control_c, 0, 64, 79
1, 1145964, Note_off_c, 0, 50, 67
1, 1145964, Control_c, 0, 64, 56
1, 1145964, Note_off_c, 0, 54, 66
1, 1145970, Note_off_c, 0, 47, 68
1, 1145970, Note_off_c, 0, 58, 63
1, 1145978, Control_c, 0, 64, 0
1, 1145979, Note_off_c, 0, 70, 62
1, 1146030, Note_on_c, 0, 54, 82
1, 1146033, Note_on_c, 0, 59, 81
1, 1146034, Note_on_c, 0, 50, 73
1, 1146036, Note_on_c, 0, 71, 73
1, 1146039, Note_on_c, 0, 47, 80
1, 1146054, Note_off_c, 0, 54, 68
1, 1146057, Note_off_c, 0, 59, 65
1, 1146062, Note_off_c, 0, 50, 66
1, 1146062, Note_off_c, 0, 71, 65
1, 1146065, Note_off_c, 0, 47, 67
1, 1146116, Note_on_c, 0, 71, 77
1, 1146122, Note_on_c, 0, 54, 82
1, 1146122, Note_on_c, 0, 59, 74
1, 1146126, Note_on_c, 0, 50, 74
1, 1146129, Note_on_c, 0, 47, 73
1, 1146143, Note_off_c, 0, 59, 69
1, 1146143, Note_off_c, 0, 71, 64
1, 1146145, Note_off_c, 0, 54, 65
1, 1146151, Note_off_c, 0, 50, 65
1, 1146157, Note_off_c, 0, 47, 67
1, 1146212, Note_on_c, 0, 73, 87
1, 1146212, Note_on_c, 0, 54, 63
1, 1146213, Note_on_c, 0, 61, 80
1, 1146214, Note_on_c, 0, 50, 74
1, 1146215, Note_on_c, 0, 47, 73
1, 1146236, Note_off_c, 0, 54, 65
1, 1146238, Note_off_c, 0, 61, 66
1, 1146242, Note_off_c, 0, 50, 66
1, 1146246, Note_off_c, 0, 47, 66
1, 1146258, Note_off_c, 0, 73, 62
1, 1146298, Note_on_c, 0, 62, 92
1, 1146300, Note_on_c, 0, 74, 87
1, 1146302, Note_on_c, 0, 55, 90
1, 1146306, Note_on_c, 0, 50, 75
1, 1146309, Note_on_c, 0, 47, 76
1, 1146310, Note_on_c, 0, 43, 75
1, 1146334, Note_off_c, 0, 50, 65
1, 1146343, Note_off_c, 0, 62, 63
1, 1146343, Note_off_c, 0, 74, 66
1, 1146346, Note_off_c, 0, 47, 63
1, 1146358, Note_off_c, 0, 55, 59
1, 1146383, Note_off_c, 0, 43, 56
1, 1146525, Note_on_c, 0, 74, 88
1, 1146525, Note_on_c, 0, 62, 90
1, 1146529, Note_on_c, 0, 55, 80
1, 1146530, Note_on_c, 0, 47, 75
1, 1146535, Note_on_c, 0, 50, 68
1, 1146538, Note_on_c, 0, 43, 58
1, 1146563, Note_off_c, 0, 55, 60
1, 1146564, Note_off_c, 0, 50, 64
1, 1146571, Note_off_c, 0, 74, 67
1, 1146572, Note_off_c, 0, 62, 64
1, 1146584, Note_off_c, 0, 43, 57
1, 1146587, Note_off_c, 0, 47, 63
1, 1146735, Note_on_c, 0, 62, 84
1, 1146736, Note_on_c, 0, 74, 82
1, 1146739, Note_on_c, 0, 47, 69
1, 1146741, Note_on_c, 0, 55, 83
1, 1146745, Note_on_c, 0, 50, 67
1, 1146751, Note_on_c, 0, 43, 69
1, 1146776, Note_off_c, 0, 50, 63
1, 1146780, Note_off_c, 0, 55, 60
1, 1146783, Note_off_c, 0, 62, 61
1, 1146789, Note_off_c, 0, 74, 63
1, 1146802, Note_off_c, 0, 47, 64
1, 1146811, Note_off_c, 0, 43, 61
1, 1146942, Note_on_c, 0, 76, 82
1, 1146945, Note_on_c, 0, 64, 87
1, 1146947, Note_on_c, 0, 49, 90
1, 1146948, Note_on_c, 0, 46, 88
1, 1146948, Note_on_c, 0, 52, 98
1, 1146948, Note_on_c, 0, 67, 78
1, 1146950, Note_on_c, 0, 70, 78
1, 1146957, Note_on_c, 0, 40, 74
1, 1146975, Note_off_c, 0, 52, 65
1, 1146985, Note_off_c, 0, 40, 68
1, 1146986, Note_on_c, 0, 73, 33
1, 1146986, Note_off_c, 0, 49, 60
1, 1146987, Note_off_c, 0, 46, 60
1, 1146997, Note_off_c, 0, 67, 60
1, 1147001, Note_off_c, 0, 64, 62
1, 1147021, Note_off_c, 0, 76, 63
1, 1147022, Note_off_c, 0, 73, 31
1, 1147023, Note_off_c, 0, 70, 58
1, 1147179, Note_on_c, 0, 70, 80
1, 1147181, Note_on_c, 0, 64, 87
1, 1147182, Note_on_c, 0, 76, 85
1, 1147183, Note_on_c, 0, 52, 96
1, 1147183, Note_on_c, 0, 67, 82
1, 1147184, Note_on_c, 0, 49, 85
1, 1147184, Note_on_c, 0, 46, 90
1, 1147189, Note_on_c, 0, 40, 82
1, 1147225, Note_off_c, 0, 52, 58
1, 1147230, Note_off_c, 0, 40, 57
1, 1147231, Note_off_c, 0, 67, 62
1, 1147231, Note_off_c, 0, 49, 59
1, 1147234, Note_off_c, 0, 46, 63
1, 1147235, Note_on_c, 0, 73, 7
1, 1147236, Note_off_c, 0, 64, 64
1, 1147243, Note_off_c, 0, 70, 65
1, 1147259, Note_off_c, 0, 76, 63
1, 1147294, Note_off_c, 0, 73, 25
1, 1147440, Note_on_c, 0, 69, 85
1, 1147443, Note_on_c, 0, 76, 92
1, 1147443, Note_on_c, 0, 52, 104
1, 1147443, Note_on_c, 0, 64, 94
1, 1147445, Note_on_c, 0, 40, 89
1, 1147445, Note_on_c, 0, 49, 89
1, 1147446, Note_on_c, 0, 67, 84
1, 1147447, Note_on_c, 0, 45, 83
1, 1147502, Note_off_c, 0, 52, 66
1, 1147514, Note_off_c, 0, 76, 66
1, 1147516, Note_off_c, 0, 40, 65
1, 1147523, Note_off_c, 0, 64, 62
1, 1147526, Note_off_c, 0, 67, 60
1, 1147538, Note_off_c, 0, 49, 62
1, 1147541, Note_off_c, 0, 45, 65
1, 1147547, Note_off_c, 0, 69, 66
1, 1147843, Note_on_c, 0, 38, 86
1, 1147845, Note_on_c, 0, 78, 94
1, 1147845, Note_on_c, 0, 50, 88
1, 1147845, Note_on_c, 0, 69, 86
1, 1147847, Note_on_c, 0, 66, 94
1, 1147848, Note_on_c, 0, 45, 82
1, 1147883, Control_c, 0, 64, 17
1, 1147898, Control_c, 0, 64, 61
1, 1147913, Control_c, 0, 64, 75
1, 1147928, Control_c, 0, 64, 127
1, 1148084, Note_off_c, 0, 38, 62
1, 1148119, Note_off_c, 0, 50, 58
1, 1148161, Note_off_c, 0, 45, 60
1, 1148162, Poly_aftertouch_c, 0, 72, 127
1, 1148288, Note_off_c, 0, 66, 61
1, 1148375, Note_off_c, 0, 69, 61
1, 1148400, Poly_aftertouch_c, 0, 72, 0
1, 1148444, Note_off_c, 0, 78, 53
1, 1148647, Control_c, 0, 64, 92
1, 1148662, Control_c, 0, 64, 64
1, 1148677, Control_c, 0, 64, 0
1, 1148819, Note_on_c, 0, 90, 74
1, 1148844, Note_on_c, 0, 78, 56
1, 1148856, Note_on_c, 0, 51, 48
1, 1148913, Control_c, 0, 64, 24
1, 1148928, Control_c, 0, 64, 52
1, 1148944, Control_c, 0, 64, 61
1, 1148959, Control_c, 0, 64, 68
1, 1148974, Control_c, 0, 64, 78
1, 1148988, Control_c, 0, 64, 99
1, 1149003, Control_c, 0, 64, 127
1, 1149026, Note_off_c, 0, 78, 60
1, 1149052, Note_off_c, 0, 90, 63
1, 1149115, Note_on_c, 0, 90, 82
1, 1149135, Note_on_c, 0, 78, 68
1, 1149145, Note_on_c, 0, 59, 45
1, 1149212, Note_off_c, 0, 78, 59
1, 1149475, Note_off_c, 0, 90, 56
1, 1149524, Note_on_c, 0, 66, 44
1, 1149559, Control_c, 0, 64, 108
1, 1149574, Control_c, 0, 64, 95
1, 1149588, Control_c, 0, 64, 86
1, 1149592, Note_on_c, 0, 93, 74
1, 1149603, Control_c, 0, 64, 78
1, 1149618, Control_c, 0, 64, 71
1, 1149633, Control_c, 0, 64, 66
1, 1149637, Note_off_c, 0, 59, 36
1, 1149647, Control_c, 0, 64, 60
1, 1149652, Note_on_c, 0, 81, 38
1, 1149662, Control_c, 0, 64, 38
1, 1149677, Control_c, 0, 64, 0
1, 1149732, Note_off_c, 0, 51, 62
1, 1149885, Control_c, 0, 67, 9
1, 1149900, Control_c, 0, 67, 12
1, 1149915, Control_c, 0, 67, 14
1, 1149917, Note_on_c, 0, 52, 41
1, 1149930, Control_c, 0, 67, 15
1, 1149938, Note_off_c, 0, 66, 54
1, 1149944, Control_c, 0, 67, 17
1, 1149959, Control_c, 0, 67, 20
1, 1149974, Control_c, 0, 64, 56
1, 1149974, Control_c, 0, 67, 25
1, 1149989, Control_c, 0, 64, 68
1, 1149989, Control_c, 0, 67, 33
1, 1150004, Control_c, 0, 64, 77
1, 1150004, Control_c, 0, 67, 40
1, 1150018, Control_c, 0, 64, 85
1, 1150018, Control_c, 0, 67, 47
1, 1150033, Control_c, 0, 64, 86
1, 1150033, Control_c, 0, 67, 51
1, 1150037, Note_off_c, 0, 93, 58
1, 1150045, Note_off_c, 0, 81, 50
1, 1150048, Control_c, 0, 64, 87
1, 1150048, Control_c, 0, 67, 55
1, 1150063, Control_c, 0, 67, 58
1, 1150078, Control_c, 0, 67, 62
1, 1150093, Control_c, 0, 67, 65
1, 1150115, Control_c, 0, 67, 68
1, 1150130, Control_c, 0, 67, 70
1, 1150144, Control_c, 0, 67, 72
1, 1150159, Control_c, 0, 67, 73
1, 1150174, Control_c, 0, 67, 73
1, 1150188, Control_c, 0, 67, 74
1, 1150192, Note_on_c, 0, 91, 66
1, 1150203, Control_c, 0, 64, 86
1, 1150204, Note_on_c, 0, 79, 50
1, 1150213, Note_on_c, 0, 59, 40
1, 1150218, Control_c, 0, 64, 86
1, 1150227, Note_off_c, 0, 91, 60
1, 1150227, Note_off_c, 0, 79, 58
1, 1150233, Control_c, 0, 67, 74
1, 1150248, Control_c, 0, 64, 85
1, 1150263, Control_c, 0, 67, 75
1, 1150293, Control_c, 0, 64, 84
1, 1150293, Control_c, 0, 67, 76
1, 1150308, Control_c, 0, 64, 84
1, 1150308, Control_c, 0, 67, 77
1, 1150315, Note_on_c, 0, 90, 64
1, 1150322, Control_c, 0, 64, 83
1, 1150322, Control_c, 0, 67, 78
1, 1150328, Note_on_c, 0, 78, 53
1, 1150337, Control_c, 0, 64, 83
1, 1150337, Control_c, 0, 67, 78
1, 1150343, Note_off_c, 0, 90, 66
1, 1150347, Note_off_c, 0, 52, 44
1, 1150352, Note_off_c, 0, 78, 58
1, 1150352, Control_c, 0, 64, 82
1, 1150352, Control_c, 0, 67, 79
1, 1150367, Control_c, 0, 64, 81
1, 1150381, Control_c, 0, 64, 81
1, 1150404, Note_off_c, 0, 59, 61
1, 1150409, Note_on_c, 0, 90, 75
1, 1150411, Control_c, 0, 64, 80
1, 1150422, Note_on_c, 0, 78, 62
1, 1150426, Control_c, 0, 64, 80
1, 1150433, Note_on_c, 0, 67, 55
1, 1150433, Note_off_c, 0, 90, 67
1, 1150439, Note_off_c, 0, 78, 65
1, 1150441, Control_c, 0, 64, 79
1, 1150455, Control_c, 0, 64, 79
1, 1150470, Control_c, 0, 64, 78
1, 1150485, Control_c, 0, 64, 78
1, 1150513, Note_on_c, 0, 76, 64
1, 1150515, Note_on_c, 0, 88, 61
1, 1150515, Control_c, 0, 64, 77
1, 1150530, Control_c, 0, 64, 76
1, 1150537, Note_off_c, 0, 88, 63
1, 1150540, Note_off_c, 0, 76, 66
1, 1150546, Control_c, 0, 64, 75
1, 1150560, Control_c, 0, 64, 71
1, 1150575, Control_c, 0, 64, 65
1, 1150590, Control_c, 0, 64, 50
1, 1150605, Control_c, 0, 64, 0
1, 1150612, Note_off_c, 0, 67, 58
1, 1150629, Note_on_c, 0, 86, 71
1, 1150632, Note_on_c, 0, 54, 50
1, 1150632, Note_on_c, 0, 74, 63
1, 1150659, Note_off_c, 0, 86, 61
1, 1150663, Note_off_c, 0, 74, 65
1, 1150723, Control_c, 0, 67, 78
1, 1150738, Control_c, 0, 67, 78
1, 1150811, Note_on_c, 0, 74, 65
1, 1150820, Note_on_c, 0, 66, 55
1, 1150823, Note_on_c, 0, 86, 45
1, 1150838, Note_off_c, 0, 74, 69
1, 1150853, Note_off_c, 0, 86, 34
1, 1150866, Note_off_c, 0, 66, 61
1, 1150898, Note_off_c, 0, 54, 58
1, 1150904, Note_on_c, 0, 88, 73
1, 1150915, Note_on_c, 0, 76, 68
1, 1150940, Note_off_c, 0, 76, 68
1, 1150944, Note_off_c, 0, 88, 63
1, 1150967, Control_c, 0, 67, 78
1, 1150982, Control_c, 0, 67, 79
1, 1151008, Note_on_c, 0, 58, 43
1, 1151011, Control_c, 0, 67, 79
1, 1151017, Note_on_c, 0, 85, 57
1, 1151021, Note_on_c, 0, 64, 43
1, 1151026, Control_c, 0, 67, 80
1, 1151032, Note_on_c, 0, 73, 64
1, 1151038, Note_on_c, 0, 54, 27
1, 1151041, Control_c, 0, 67, 80
1, 1151056, Control_c, 0, 67, 81
1, 1151071, Control_c, 0, 67, 83
1, 1151072, Note_off_c, 0, 73, 57
1, 1151075, Note_off_c, 0, 85, 64
1, 1151086, Control_c, 0, 67, 86
1, 1151100, Control_c, 0, 67, 87
1, 1151115, Control_c, 0, 67, 88
1, 1151130, Control_c, 0, 67, 89
1, 1151214, Note_off_c, 0, 58, 59
1, 1151259, Note_on_c, 0, 83, 63
1, 1151271, Note_on_c, 0, 59, 45
1, 1151272, Note_off_c, 0, 54, 52
1, 1151282, Note_on_c, 0, 71, 47
1, 1151294, Note_off_c, 0, 64, 36
1, 1151339, Control_c, 0, 67, 88
1, 1151413, Control_c, 0, 67, 88
1, 1151442, Control_c, 0, 67, 87
1, 1151457, Control_c, 0, 67, 87
1, 1151472, Control_c, 0, 67, 86
1, 1151487, Control_c, 0, 67, 85
1, 1151495, Note_on_c, 0, 62, 52
1, 1151502, Control_c, 0, 67, 83
1, 1151516, Note_off_c, 0, 71, 55
1, 1151516, Control_c, 0, 67, 82
1, 1151531, Control_c, 0, 67, 80
1, 1151546, Control_c, 0, 67, 79
1, 1151561, Control_c, 0, 67, 78
1, 1151576, Control_c, 0, 67, 78
1, 1151580, Note_off_c, 0, 83, 57
1, 1151590, Control_c, 0, 67, 77
1, 1151642, Control_c, 0, 67, 78
1, 1151657, Control_c, 0, 67, 78
1, 1151672, Control_c, 0, 67, 79
1, 1151687, Control_c, 0, 67, 80
1, 1151705, Note_on_c, 0, 74, 68
1, 1151707, Note_off_c, 0, 59, 52
1, 1151716, Control_c, 0, 67, 80
1, 1151720, Note_off_c, 0, 62, 52
1, 1151724, Note_on_c, 0, 66, 41
1, 1151731, Control_c, 0, 67, 81
1, 1151761, Control_c, 0, 67, 82
1, 1151776, Control_c, 0, 67, 82
1, 1151790, Control_c, 0, 67, 83
1, 1151805, Control_c, 0, 67, 84
1, 1151820, Control_c, 0, 67, 85
1, 1151834, Control_c, 0, 67, 85
1, 1151849, Control_c, 0, 67, 86
1, 1151879, Control_c, 0, 67, 86
1, 1151894, Control_c, 0, 67, 87
1, 1151923, Control_c, 0, 67, 87
1, 1151938, Note_on_c, 0, 82, 79
1, 1151959, Note_on_c, 0, 54, 54
1, 1151965, Note_off_c, 0, 66, 61
1, 1151977, Note_off_c, 0, 74, 63
1, 1152147, Note_on_c, 0, 74, 64
1, 1152147, Note_on_c, 0, 66, 56
1, 1152171, Note_off_c, 0, 66, 67
1, 1152175, Note_off_c, 0, 74, 67
1, 1152240, Note_on_c, 0, 67, 60
1, 1152242, Note_on_c, 0, 76, 57
1, 1152261, Note_off_c, 0, 67, 65
1, 1152287, Note_off_c, 0, 76, 53
1, 1152339, Control_c, 0, 67, 88
1, 1152346, Note_on_c, 0, 73, 57
1, 1152361, Note_on_c, 0, 64, 65
1, 1152406, Control_c, 0, 67, 88
1, 1152424, Note_off_c, 0, 64, 62
1, 1152424, Note_off_c, 0, 73, 61
1, 1152539, Control_c, 0, 67, 88
1, 1152554, Control_c, 0, 67, 87
1, 1152569, Control_c, 0, 67, 85
1, 1152575, Note_on_c, 0, 83, 65
1, 1152583, Control_c, 0, 67, 84
1, 1152596, Note_off_c, 0, 54, 55
1, 1152597, Note_off_c, 0, 82, 38
1, 1152598, Note_on_c, 0, 59, 49
1, 1152598, Control_c, 0, 67, 83
1, 1152599, Note_on_c, 0, 62, 50
1, 1152601, Note_on_c, 0, 71, 47
1, 1152613, Control_c, 0, 64, 39
1, 1152613, Control_c, 0, 67, 82
1, 1152628, Control_c, 0, 64, 65
1, 1152628, Control_c, 0, 67, 81
1, 1152642, Note_off_c, 0, 62, 62
1, 1152643, Control_c, 0, 64, 72
1, 1152643, Control_c, 0, 67, 81
1, 1152652, Note_off_c, 0, 59, 62
1, 1152657, Control_c, 0, 64, 77
1, 1152657, Control_c, 0, 67, 80
1, 1152672, Control_c, 0, 64, 80
1, 1152672, Control_c, 0, 67, 80
1, 1152680, Note_off_c, 0, 71, 61
1, 1152687, Control_c, 0, 64, 83
1, 1152687, Control_c, 0, 67, 79
1, 1152702, Control_c, 0, 64, 84
1, 1152702, Control_c, 0, 67, 78
1, 1152717, Control_c, 0, 64, 85
1, 1152717, Control_c, 0, 67, 78
1, 1152723, Note_on_c, 0, 82, 11
1, 1152731, Control_c, 0, 67, 77
1, 1152746, Control_c, 0, 67, 76
1, 1152749, Note_off_c, 0, 83, 61
1, 1152761, Control_c, 0, 67, 75
1, 1152767, Note_off_c, 0, 82, 49
1, 1152776, Control_c, 0, 67, 73
1, 1152791, Control_c, 0, 67, 72
1, 1152800, Note_on_c, 0, 71, 67
1, 1152806, Control_c, 0, 64, 83
1, 1152806, Control_c, 0, 67, 71
1, 1152820, Control_c, 0, 64, 77
1, 1152835, Control_c, 0, 64, 71
1, 1152835, Control_c, 0, 67, 70
1, 1152850, Control_c, 0, 64, 66
1, 1152850, Control_c, 0, 67, 69
1, 1152865, Control_c, 0, 64, 61
1, 1152865, Control_c, 0, 67, 67
1, 1152880, Control_c, 0, 64, 53
1, 1152880, Control_c, 0, 67, 66
1, 1152895, Control_c, 0, 64, 45
1, 1152895, Control_c, 0, 67, 65
1, 1152910, Control_c, 0, 64, 41
1, 1152925, Control_c, 0, 64, 39
1, 1152940, Control_c, 0, 64, 34
1, 1152955, Control_c, 0, 64, 20
1, 1152969, Control_c, 0, 64, 0
1, 1153008, Note_on_c, 0, 90, 86
1, 1153024, Note_on_c, 0, 78, 68
1, 1153038, Note_on_c, 0, 74, 47
1, 1153042, Note_off_c, 0, 71, 58
1, 1153059, Control_c, 0, 67, 66
1, 1153073, Control_c, 0, 67, 66
1, 1153088, Control_c, 0, 67, 67
1, 1153110, Control_c, 0, 67, 68
1, 1153125, Control_c, 0, 67, 68
1, 1153140, Control_c, 0, 67, 69
1, 1153154, Control_c, 0, 67, 70
1, 1153169, Control_c, 0, 67, 71
1, 1153184, Control_c, 0, 67, 72
1, 1153199, Control_c, 0, 67, 73
1, 1153214, Control_c, 0, 67, 73
1, 1153229, Control_c, 0, 67, 74
1, 1153244, Control_c, 0, 67, 75
1, 1153259, Control_c, 0, 67, 76
1, 1153274, Control_c, 0, 67, 76
1, 1153288, Control_c, 0, 67, 77
1, 1153300, Note_on_c, 0, 66, 56
1, 1153303, Control_c, 0, 67, 78
1, 1153333, Control_c, 0, 67, 78
1, 1153348, Control_c, 0, 67, 79
1, 1153367, Note_off_c, 0, 78, 60
1, 1153377, Control_c, 0, 67, 79
1, 1153396, Note_off_c, 0, 90, 59
1, 1153406, Control_c, 0, 67, 80
1, 1153436, Control_c, 0, 67, 80
1, 1153447, Note_off_c, 0, 74, 57
1, 1153451, Control_c, 0, 67, 81
1, 1153495, Control_c, 0, 67, 81
1, 1153510, Control_c, 0, 67, 82
1, 1153525, Note_on_c, 0, 90, 64
1, 1153525, Control_c, 0, 67, 82
1, 1153530, Note_on_c, 0, 78, 63
1, 1153540, Control_c, 0, 67, 83
1, 1153542, Note_on_c, 0, 70, 53
1, 1153548, Note_off_c, 0, 78, 67
1, 1153554, Control_c, 0, 67, 84
1, 1153563, Note_off_c, 0, 90, 60
1, 1153584, Control_c, 0, 67, 85
1, 1153599, Control_c, 0, 67, 85
1, 1153613, Note_on_c, 0, 91, 72
1, 1153613, Control_c, 0, 67, 86
1, 1153619, Note_on_c, 0, 79, 65
1, 1153628, Control_c, 0, 67, 87
1, 1153638, Note_off_c, 0, 91, 64
1, 1153643, Control_c, 0, 67, 87
1, 1153647, Note_off_c, 0, 79, 64
1, 1153658, Control_c, 0, 67, 88
1, 1153688, Control_c, 0, 67, 89
1, 1153689, Note_off_c, 0, 70, 62
1, 1153703, Control_c, 0, 67, 89
1, 1153718, Control_c, 0, 67, 90
1, 1153732, Note_on_c, 0, 88, 75
1, 1153733, Control_c, 0, 67, 91
1, 1153736, Note_on_c, 0, 73, 54
1, 1153742, Note_on_c, 0, 76, 69
1, 1153748, Control_c, 0, 67, 91
1, 1153763, Control_c, 0, 67, 92
1, 1153777, Control_c, 0, 67, 93
1, 1153786, Note_off_c, 0, 73, 57
1, 1153792, Control_c, 0, 67, 94
1, 1153807, Control_c, 0, 67, 96
1, 1153822, Control_c, 0, 67, 100
1, 1153837, Control_c, 0, 67, 104
1, 1153858, Note_off_c, 0, 76, 57
1, 1153859, Control_c, 0, 67, 107
1, 1153865, Note_off_c, 0, 88, 60
1, 1153873, Control_c, 0, 67, 109
1, 1153888, Control_c, 0, 67, 111
1, 1153902, Control_c, 0, 67, 114
1, 1153917, Control_c, 0, 67, 116
1, 1153932, Control_c, 0, 67, 118
1, 1153947, Control_c, 0, 67, 120
1, 1153962, Control_c, 0, 67, 122
1, 1153977, Control_c, 0, 67, 123
1, 1153989, Note_off_c, 0, 66, 53
1, 1153992, Control_c, 0, 67, 125
1, 1154007, Control_c, 0, 67, 127
1, 1154017, Note_on_c, 0, 86, 70
1, 1154022, Control_c, 0, 67, 127
1, 1154036, Note_on_c, 0, 74, 53
1, 1154037, Note_on_c, 0, 59, 44
1, 1154039, Note_on_c, 0, 71, 39
1, 1154308, Note_off_c, 0, 71, 53
1, 1154335, Note_on_c, 0, 62, 36
1, 1154374, Note_off_c, 0, 74, 63
1, 1154388, Note_off_c, 0, 86, 59
1, 1154508, Note_off_c, 0, 62, 56
1, 1154509, Note_off_c, 0, 59, 60
1, 1154512, Note_on_c, 0, 74, 55
1, 1154527, Note_on_c, 0, 66, 44
1, 1154751, Note_on_c, 0, 82, 66
1, 1154757, Note_on_c, 0, 54, 54
1, 1154761, Note_off_c, 0, 66, 54
1, 1154763, Note_off_c, 0, 74, 58
1, 1154958, Note_on_c, 0, 66, 55
1, 1154966, Note_on_c, 0, 74, 51
1, 1154988, Note_off_c, 0, 66, 68
1, 1154995, Note_off_c, 0, 74, 67
1, 1155050, Note_on_c, 0, 67, 66
1, 1155071, Note_on_c, 0, 76, 57
1, 1155074, Note_off_c, 0, 67, 69
1, 1155109, Note_off_c, 0, 76, 61
1, 1155174, Note_on_c, 0, 64, 63
1, 1155174, Note_on_c, 0, 73, 63
1, 1155240, Note_off_c, 0, 64, 61
1, 1155259, Note_off_c, 0, 73, 61
1, 1155437, Note_on_c, 0, 83, 52
1, 1155446, Note_off_c, 0, 54, 55
1, 1155458, Note_on_c, 0, 59, 38
1, 1155465, Note_on_c, 0, 62, 38
1, 1155467, Note_on_c, 0, 71, 37
1, 1155477, Note_off_c, 0, 82, 46
1, 1155578, Control_c, 0, 64, 29
1, 1155593, Control_c, 0, 64, 59
1, 1155608, Control_c, 0, 64, 65
1, 1155622, Control_c, 0, 64, 70
1, 1155637, Control_c, 0, 64, 78
1, 1155652, Note_off_c, 0, 62, 43
1, 1155652, Control_c, 0, 64, 87
1, 1155661, Note_off_c, 0, 83, 59
1, 1155667, Control_c, 0, 64, 94
1, 1155670, Note_off_c, 0, 71, 37
1, 1155682, Control_c, 0, 64, 102
1, 1155697, Control_c, 0, 64, 110
1, 1155706, Note_off_c, 0, 59, 36
1, 1155712, Control_c, 0, 64, 116
1, 1155727, Control_c, 0, 64, 119
1, 1155742, Control_c, 0, 64, 121
1, 1155756, Control_c, 0, 64, 125
1, 1155786, Control_c, 0, 64, 127
1, 1155904, Control_c, 0, 64, 125
1, 1155919, Control_c, 0, 64, 121
1, 1155934, Control_c, 0, 64, 108
1, 1155948, Control_c, 0, 64, 96
1, 1155963, Control_c, 0, 64, 83
1, 1155978, Control_c, 0, 64, 70
1, 1155992, Control_c, 0, 64, 61
1, 1156007, Control_c, 0, 64, 36
1, 1156022, Control_c, 0, 64, 0
1, 1156160, Note_on_c, 0, 66, 47
1, 1156302, Note_on_c, 0, 71, 50
1, 1156409, Note_on_c, 0, 73, 62
1, 1156448, Note_off_c, 0, 66, 43
1, 1156545, Note_on_c, 0, 74, 55
1, 1156570, Note_off_c, 0, 71, 58
1, 1156613, Note_off_c, 0, 73, 57
1, 1157041, Note_on_c, 0, 66, 40
1, 1157122, Note_off_c, 0, 74, 34
1, 1157218, Note_on_c, 0, 71, 38
1, 1157361, Note_off_c, 0, 66, 41
1, 1157382, Note_on_c, 0, 73, 40
1, 1157575, Note_off_c, 0, 71, 35
1, 1157584, Note_on_c, 0, 74, 31
1, 1157694, Note_off_c, 0, 73, 41
1, 1158002, Control_c, 0, 64, 21
1, 1158017, Control_c, 0, 64, 30
1, 1158032, Control_c, 0, 64, 40
1, 1158047, Control_c, 0, 64, 46
1, 1158062, Control_c, 0, 64, 48
1, 1158076, Control_c, 0, 64, 50
1, 1158091, Control_c, 0, 64, 51
1, 1158106, Control_c, 0, 64, 52
1, 1158121, Control_c, 0, 64, 54
1, 1158136, Control_c, 0, 64, 57
1, 1158150, Control_c, 0, 64, 60
1, 1158165, Control_c, 0, 64, 61
1, 1158180, Control_c, 0, 64, 62
1, 1158195, Control_c, 0, 64, 63
1, 1158210, Control_c, 0, 64, 64
1, 1158225, Control_c, 0, 64, 65
1, 1158240, Control_c, 0, 64, 67
1, 1158255, Control_c, 0, 64, 70
1, 1158269, Control_c, 0, 64, 74
1, 1158284, Control_c, 0, 64, 77
1, 1158299, Control_c, 0, 64, 80
1, 1158314, Control_c, 0, 64, 84
1, 1158328, Control_c, 0, 64, 89
1, 1158350, Control_c, 0, 64, 95
1, 1158365, Control_c, 0, 64, 101
1, 1158380, Control_c, 0, 64, 107
1, 1158395, Control_c, 0, 64, 111
1, 1158410, Control_c, 0, 64, 116
1, 1158425, Control_c, 0, 64, 125
1, 1158439, Control_c, 0, 64, 127
1, 1158681, Note_on_c, 0, 66, 36
1, 1158899, Note_off_c, 0, 74, 37
1, 1158918, Note_on_c, 0, 71, 34
1, 1159056, Note_off_c, 0, 66, 39
1, 1159128, Note_on_c, 0, 73, 38
1, 1159167, Note_off_c, 0, 71, 41
1, 1159292, Control_c, 0, 64, 121
1, 1159307, Control_c, 0, 64, 116
1, 1159322, Control_c, 0, 64, 111
1, 1159337, Control_c, 0, 64, 107
1, 1159352, Control_c, 0, 64, 105
1, 1159367, Control_c, 0, 64, 102
1, 1159381, Control_c, 0, 64, 99
1, 1159396, Control_c, 0, 64, 97
1, 1159411, Control_c, 0, 64, 95
1, 1159426, Control_c, 0, 64, 94
1, 1159441, Control_c, 0, 64, 89
1, 1159456, Control_c, 0, 64, 76
1, 1159471, Control_c, 0, 64, 64
1, 1159474, Note_on_c, 0, 78, 48
1, 1159486, Control_c, 0, 64, 40
1, 1159486, Note_on_c, 0, 75, 39
1, 1159492, Note_off_c, 0, 73, 43
1, 1159501, Control_c, 0, 64, 0
1, 1159510, Note_on_c, 0, 66, 28
1, 1159515, Control_c, 0, 64, 32
1, 1159516, Note_on_c, 0, 59, 20
1, 1159530, Control_c, 0, 64, 55
1, 1159545, Control_c, 0, 64, 63
1, 1159560, Control_c, 0, 64, 66
1, 1159574, Control_c, 0, 64, 71
1, 1159578, Note_off_c, 0, 75, 63
1, 1159589, Control_c, 0, 64, 74
1, 1159604, Control_c, 0, 64, 76
1, 1159619, Control_c, 0, 64, 76
1, 1159776, Note_on_c, 0, 75, 33
1, 1159805, Note_off_c, 0, 75, 57
1, 1159829, Note_on_c, 0, 76, 46
1, 1159870, Note_off_c, 0, 76, 56
1, 1159888, Note_on_c, 0, 54, 28
1, 1159906, Note_on_c, 0, 75, 40
1, 1159951, Note_off_c, 0, 59, 39
1, 1160012, Note_off_c, 0, 75, 58
1, 1160047, Note_on_c, 0, 73, 36
1, 1160192, Note_on_c, 0, 75, 41
1, 1160201, Note_off_c, 0, 73, 43
1, 1160229, Note_off_c, 0, 78, 49
1, 1160234, Note_off_c, 0, 66, 46
1, 1160338, Control_c, 0, 64, 76
1, 1160368, Control_c, 0, 64, 75
1, 1160457, Control_c, 0, 64, 73
1, 1160471, Control_c, 0, 64, 67
1, 1160481, Note_off_c, 0, 75, 55
1, 1160486, Control_c, 0, 64, 60
1, 1160493, Note_on_c, 0, 76, 44
1, 1160497, Note_on_c, 0, 78, 48
1, 1160501, Control_c, 0, 64, 43
1, 1160502, Note_off_c, 0, 54, 37
1, 1160504, Note_on_c, 0, 61, 36
1, 1160505, Note_on_c, 0, 66, 41
1, 1160515, Control_c, 0, 64, 33
1, 1160530, Control_c, 0, 64, 46
1, 1160545, Control_c, 0, 64, 57
1, 1160560, Control_c, 0, 64, 63
1, 1160575, Control_c, 0, 64, 68
1, 1160597, Control_c, 0, 64, 74
1, 1160613, Control_c, 0, 64, 80
1, 1160627, Control_c, 0, 64, 82
1, 1160642, Control_c, 0, 64, 82
1, 1160812, Note_off_c, 0, 78, 45
1, 1160830, Note_on_c, 0, 54, 38
1, 1160850, Note_off_c, 0, 76, 40
1, 1160942, Note_on_c, 0, 78, 46
1, 1160971, Note_off_c, 0, 61, 19
1, 1161086, Note_on_c, 0, 76, 48
1, 1161142, Note_off_c, 0, 66, 40
1, 1161187, Note_on_c, 0, 75, 50
1, 1161204, Note_off_c, 0, 78, 25
1, 1161224, Note_off_c, 0, 76, 38
1, 1161224, Note_off_c, 0, 75, 56
1, 1161310, Control_c, 0, 64, 79
1, 1161322, Note_on_c, 0, 75, 42
1, 1161325, Control_c, 0, 64, 69
1, 1161325, Note_on_c, 0, 78, 46
1, 1161346, Control_c, 0, 64, 60
1, 1161361, Control_c, 0, 64, 51
1, 1161362, Note_on_c, 0, 58, 43
1, 1161370, Note_on_c, 0, 66, 38
1, 1161373, Note_off_c, 0, 75, 64
1, 1161376, Note_on_c, 0, 73, 61
1, 1161376, Control_c, 0, 64, 56
1, 1161391, Control_c, 0, 64, 61
1, 1161397, Note_off_c, 0, 54, 41
1, 1161405, Control_c, 0, 64, 63
1, 1161420, Control_c, 0, 64, 65
1, 1161426, Note_off_c, 0, 73, 54
1, 1161435, Control_c, 0, 64, 67
1, 1161450, Control_c, 0, 64, 68
1, 1161559, Note_on_c, 0, 73, 47
1, 1161587, Note_off_c, 0, 73, 59
1, 1161602, Note_on_c, 0, 75, 52
1, 1161654, Note_off_c, 0, 75, 55
1, 1161680, Note_on_c, 0, 73, 53
1, 1161683, Note_on_c, 0, 54, 37
1, 1161766, Note_off_c, 0, 58, 28
1, 1161776, Note_off_c, 0, 73, 56
1, 1161811, Note_on_c, 0, 71, 44
1, 1161836, Control_c, 0, 64, 68
1, 1161932, Note_off_c, 0, 66, 35
1, 1161957, Note_on_c, 0, 73, 47
1, 1161975, Note_off_c, 0, 78, 44
1, 1161978, Note_off_c, 0, 71, 37
1, 1162073, Control_c, 0, 64, 67
1, 1162095, Control_c, 0, 64, 67
1, 1162139, Control_c, 0, 64, 66
1, 1162183, Control_c, 0, 64, 66
1, 1162198, Control_c, 0, 64, 64
1, 1162213, Control_c, 0, 64, 60
1, 1162228, Control_c, 0, 64, 44
1, 1162238, Note_on_c, 0, 78, 50
1, 1162243, Control_c, 0, 64, 0
1, 1162246, Note_on_c, 0, 75, 46
1, 1162252, Note_off_c, 0, 73, 59
1, 1162255, Note_on_c, 0, 66, 36
1, 1162270, Note_on_c, 0, 59, 28
1, 1162270, Note_off_c, 0, 54, 37
1, 1162288, Control_c, 0, 64, 39
1, 1162302, Control_c, 0, 64, 54
1, 1162317, Control_c, 0, 64, 61
1, 1162332, Control_c, 0, 64, 65
1, 1162347, Control_c, 0, 64, 67
1, 1162361, Control_c, 0, 64, 69
1, 1162376, Control_c, 0, 64, 72
1, 1162391, Control_c, 0, 64, 73
1, 1162406, Control_c, 0, 64, 74
1, 1162421, Control_c, 0, 64, 74
1, 1162435, Control_c, 0, 64, 75
1, 1162443, Note_off_c, 0, 75, 61
1, 1162508, Note_off_c, 0, 66, 45
1, 1162550, Note_on_c, 0, 54, 33
1, 1162575, Note_off_c, 0, 59, 43
1, 1162653, Note_on_c, 0, 66, 39
1, 1162798, Note_on_c, 0, 71, 41
1, 1162863, Note_off_c, 0, 66, 35
1, 1162912, Note_on_c, 0, 73, 48
1, 1162930, Note_off_c, 0, 78, 39
1, 1162932, Control_c, 0, 64, 74
1, 1162947, Control_c, 0, 64, 74
1, 1162977, Control_c, 0, 64, 73
1, 1163006, Control_c, 0, 64, 73
1, 1163021, Control_c, 0, 64, 72
1, 1163036, Control_c, 0, 64, 70
1, 1163051, Control_c, 0, 64, 63
1, 1163066, Control_c, 0, 64, 39
1, 1163076, Note_on_c, 0, 78, 44
1, 1163081, Control_c, 0, 64, 0
1, 1163082, Note_on_c, 0, 75, 48
1, 1163091, Note_on_c, 0, 63, 30
1, 1163096, Note_off_c, 0, 71, 41
1, 1163099, Note_on_c, 0, 59, 33
1, 1163103, Note_off_c, 0, 73, 50
1, 1163111, Control_c, 0, 64, 37
1, 1163114, Note_off_c, 0, 54, 39
1, 1163125, Control_c, 0, 64, 56
1, 1163140, Control_c, 0, 64, 63
1, 1163155, Control_c, 0, 64, 67
1, 1163170, Control_c, 0, 64, 69
1, 1163185, Control_c, 0, 64, 72
1, 1163199, Control_c, 0, 64, 73
1, 1163376, Note_on_c, 0, 51, 40
1, 1163450, Note_off_c, 0, 59, 40
1, 1163501, Note_on_c, 0, 66, 34
1, 1163506, Note_off_c, 0, 63, 43
1, 1163634, Note_off_c, 0, 75, 38
1, 1163641, Note_on_c, 0, 71, 36
1, 1163711, Note_off_c, 0, 66, 33
1, 1163731, Note_off_c, 0, 78, 37
1, 1163752, Note_on_c, 0, 73, 42
1, 1163874, Control_c, 0, 64, 72
1, 1163889, Control_c, 0, 64, 68
1, 1163903, Control_c, 0, 64, 61
1, 1163909, Note_off_c, 0, 51, 39
1, 1163918, Control_c, 0, 64, 44
1, 1163921, Note_on_c, 0, 78, 46
1, 1163925, Note_on_c, 0, 59, 35
1, 1163933, Control_c, 0, 64, 23
1, 1163936, Note_on_c, 0, 75, 37
1, 1163938, Note_off_c, 0, 71, 39
1, 1163941, Note_on_c, 0, 54, 25
1, 1163948, Control_c, 0, 64, 35
1, 1163963, Control_c, 0, 64, 51
1, 1163978, Control_c, 0, 64, 59
1, 1163984, Note_off_c, 0, 73, 39
1, 1163993, Control_c, 0, 64, 64
1, 1164008, Control_c, 0, 64, 67
1, 1164022, Control_c, 0, 64, 70
1, 1164037, Control_c, 0, 64, 72
1, 1164052, Control_c, 0, 64, 72
1, 1164209, Note_on_c, 0, 47, 38
1, 1164276, Note_off_c, 0, 59, 34
1, 1164307, Note_off_c, 0, 54, 39
1, 1164341, Note_on_c, 0, 66, 42
1, 1164479, Note_off_c, 0, 75, 35
1, 1164482, Note_on_c, 0, 71, 36
1, 1164564, Note_off_c, 0, 78, 37
1, 1164589, Note_on_c, 0, 73, 42
1, 1164635, Note_off_c, 0, 71, 41
1, 1164683, Control_c, 0, 64, 72
1, 1164699, Note_off_c, 0, 66, 23
1, 1164712, Control_c, 0, 64, 71
1, 1164726, Note_off_c, 0, 47, 39
1, 1164727, Control_c, 0, 64, 70
1, 1164742, Control_c, 0, 64, 66
1, 1164757, Control_c, 0, 64, 57
1, 1164771, Note_on_c, 0, 78, 46
1, 1164771, Control_c, 0, 64, 0
1, 1164779, Note_on_c, 0, 71, 33
1, 1164786, Note_on_c, 0, 54, 30
1, 1164786, Note_off_c, 0, 73, 35
1, 1164795, Note_on_c, 0, 75, 32
1, 1164816, Control_c, 0, 64, 42
1, 1164831, Control_c, 0, 64, 57
1, 1164845, Control_c, 0, 64, 63
1, 1164860, Control_c, 0, 64, 67
1, 1164875, Control_c, 0, 64, 70
1, 1164890, Control_c, 0, 64, 72
1, 1164905, Control_c, 0, 64, 72
1, 1165066, Note_off_c, 0, 71, 41
1, 1165111, Note_off_c, 0, 75, 36
1, 1165112, Note_on_c, 0, 73, 42
1, 1165120, Note_on_c, 0, 70, 36
1, 1165123, Note_on_c, 0, 42, 29
1, 1165173, Note_off_c, 0, 73, 54
1, 1165191, Note_off_c, 0, 70, 40
1, 1165204, Note_off_c, 0, 78, 40
1, 1165217, Note_off_c, 0, 54, 41
1, 1165459, Note_on_c, 0, 73, 32
1, 1165460, Note_on_c, 0, 78, 35
1, 1165465, Note_on_c, 0, 70, 26
1, 1165528, Note_off_c, 0, 78, 40
1, 1165597, Note_off_c, 0, 73, 37
1, 1165601, Note_off_c, 0, 70, 40
1, 1165683, Control_c, 0, 64, 72
1, 1165729, Control_c, 0, 64, 71
1, 1165773, Control_c, 0, 64, 71
1, 1165788, Control_c, 0, 64, 70
1, 1165803, Control_c, 0, 64, 70
1, 1165817, Control_c, 0, 64, 68
1, 1165840, Control_c, 0, 64, 64
1, 1165851, Note_on_c, 0, 78, 27
1, 1165853, Note_off_c, 0, 42, 40
1, 1165854, Control_c, 0, 64, 56
1, 1165864, Note_on_c, 0, 71, 22
1, 1165868, Note_on_c, 0, 47, 34
1, 1165868, Note_on_c, 0, 75, 28
1, 1165869, Control_c, 0, 64, 14
1, 1165884, Control_c, 0, 64, 0
1, 1165928, Control_c, 0, 64, 46
1, 1165942, Control_c, 0, 64, 60
1, 1165957, Control_c, 0, 64, 65
1, 1165972, Control_c, 0, 64, 69
1, 1165987, Control_c, 0, 64, 72
1, 1166002, Control_c, 0, 64, 75
1, 1166017, Control_c, 0, 64, 79
1, 1166032, Control_c, 0, 64, 80
1, 1166047, Control_c, 0, 64, 81
1, 1166062, Control_c, 0, 64, 82
1, 1166091, Control_c, 0, 64, 82
1, 1166106, Control_c, 0, 64, 83
1, 1166121, Control_c, 0, 64, 84
1, 1166135, Control_c, 0, 64, 85
1, 1166150, Control_c, 0, 64, 85
1, 1166165, Control_c, 0, 64, 86
1, 1166195, Control_c, 0, 64, 86
1, 1166209, Control_c, 0, 64, 87
1, 1166224, Control_c, 0, 64, 88
1, 1166239, Control_c, 0, 64, 90
1, 1166253, Control_c, 0, 64, 90
1, 1166268, Control_c, 0, 64, 91
1, 1166283, Control_c, 0, 64, 91
1, 1166316, Note_off_c, 0, 75, 50
1, 1166335, Note_off_c, 0, 71, 42
1, 1166369, Note_on_c, 0, 35, 20
1, 1166453, Note_off_c, 0, 47, 41
1, 1166537, Note_off_c, 0, 35, 39
1, 1166788, Note_on_c, 0, 66, 36
1, 1166956, Note_on_c, 0, 71, 41
1, 1167043, Note_off_c, 0, 66, 43
1, 1167108, Note_off_c, 0, 78, 42
1, 1167117, Note_on_c, 0, 73, 49
1, 1167136, Control_c, 0, 64, 91
1, 1167143, Note_off_c, 0, 71, 35
1, 1167165, Control_c, 0, 64, 90
1, 1167180, Control_c, 0, 64, 90
1, 1167195, Control_c, 0, 64, 89
1, 1167210, Control_c, 0, 64, 89
1, 1167225, Control_c, 0, 64, 88
1, 1167239, Control_c, 0, 64, 87
1, 1167254, Control_c, 0, 64, 85
1, 1167269, Control_c, 0, 64, 84
1, 1167284, Control_c, 0, 64, 83
1, 1167299, Control_c, 0, 64, 82
1, 1167314, Control_c, 0, 64, 80
1, 1167337, Control_c, 0, 64, 77
1, 1167339, Note_off_c, 0, 73, 30
1, 1167351, Control_c, 0, 64, 69
1, 1167366, Control_c, 0, 64, 62
1, 1167367, Note_on_c, 0, 78, 62
1, 1167381, Control_c, 0, 64, 40
1, 1167395, Control_c, 0, 64, 0
1, 1167397, Note_on_c, 0, 75, 39
1, 1167409, Note_on_c, 0, 66, 28
1, 1167416, Note_on_c, 0, 59, 25
1, 1167425, Control_c, 0, 64, 43
1, 1167440, Control_c, 0, 64, 58
1, 1167455, Control_c, 0, 64, 64
1, 1167469, Control_c, 0, 64, 68
1, 1167484, Control_c, 0, 64, 71
1, 1167498, Note_off_c, 0, 75, 56
1, 1167499, Control_c, 0, 64, 74
1, 1167630, Note_on_c, 0, 75, 39
1, 1167659, Note_off_c, 0, 75, 60
1, 1167688, Note_on_c, 0, 76, 45
1, 1167723, Note_off_c, 0, 76, 61
1, 1167743, Note_on_c, 0, 75, 47
1, 1167754, Note_on_c, 0, 54, 25
1, 1167765, Note_off_c, 0, 59, 42
1, 1167859, Note_off_c, 0, 75, 62
1, 1167900, Note_on_c, 0, 73, 42
1, 1167913, Control_c, 0, 64, 74
1, 1168032, Note_on_c, 0, 75, 44
1, 1168033, Note_off_c, 0, 73, 40
1, 1168051, Note_off_c, 0, 66, 45
1, 1168060, Note_off_c, 0, 78, 57
1, 1168218, Control_c, 0, 64, 74
1, 1168248, Control_c, 0, 64, 73
1, 1168278, Control_c, 0, 64, 73
1, 1168307, Control_c, 0, 64, 72
1, 1168322, Control_c, 0, 64, 71
1, 1168336, Note_on_c, 0, 78, 62
1, 1168336, Control_c, 0, 64, 67
1, 1168340, Note_off_c, 0, 75, 57
1, 1168351, Control_c, 0, 64, 61
1, 1168354, Note_on_c, 0, 76, 44
1, 1168354, Note_on_c, 0, 66, 46
1, 1168366, Control_c, 0, 64, 45
1, 1168369, Note_off_c, 0, 54, 40
1, 1168371, Note_on_c, 0, 61, 37
1, 1168381, Control_c, 0, 64, 17
1, 1168396, Control_c, 0, 64, 26
1, 1168411, Control_c, 0, 64, 47
1, 1168425, Control_c, 0, 64, 58
1, 1168440, Control_c, 0, 64, 64
1, 1168455, Control_c, 0, 64, 68
1, 1168470, Control_c, 0, 64, 72
1, 1168485, Control_c, 0, 64, 77
1, 1168500, Control_c, 0, 64, 80
1, 1168515, Control_c, 0, 64, 80
1, 1168658, Note_off_c, 0, 78, 53
1, 1168679, Note_off_c, 0, 76, 37
1, 1168694, Note_on_c, 0, 54, 31
1, 1168789, Note_on_c, 0, 78, 52
1, 1168791, Note_off_c, 0, 61, 23
1, 1168931, Note_on_c, 0, 76, 48
1, 1168989, Note_off_c, 0, 78, 33
1, 1169030, Note_off_c, 0, 66, 41
1, 1169034, Note_off_c, 0, 76, 49
1, 1169041, Note_on_c, 0, 75, 46
1, 1169085, Note_off_c, 0, 75, 54
1, 1169159, Control_c, 0, 64, 74
1, 1169172, Note_on_c, 0, 78, 62
1, 1169174, Control_c, 0, 64, 64
1, 1169183, Note_on_c, 0, 75, 46
1, 1169189, Control_c, 0, 64, 55
1, 1169204, Control_c, 0, 64, 52
1, 1169211, Note_on_c, 0, 58, 38
1, 1169211, Note_on_c, 0, 66, 44
1, 1169219, Control_c, 0, 64, 58
1, 1169227, Note_off_c, 0, 75, 63
1, 1169233, Control_c, 0, 64, 63
1, 1169240, Note_on_c, 0, 73, 49
1, 1169243, Note_off_c, 0, 54, 35
1, 1169248, Control_c, 0, 64, 65
1, 1169263, Control_c, 0, 64, 67
1, 1169278, Control_c, 0, 64, 70
1, 1169292, Note_off_c, 0, 73, 53
1, 1169293, Control_c, 0, 64, 72
1, 1169400, Note_on_c, 0, 73, 31
1, 1169436, Note_off_c, 0, 73, 48
1, 1169442, Note_on_c, 0, 75, 44
1, 1169488, Note_off_c, 0, 75, 56
1, 1169513, Note_on_c, 0, 73, 47
1, 1169520, Note_on_c, 0, 54, 35
1, 1169570, Note_off_c, 0, 58, 32
1, 1169626, Note_off_c, 0, 73, 53
1, 1169658, Note_on_c, 0, 71, 47
1, 1169774, Note_off_c, 0, 66, 34
1, 1169788, Note_on_c, 0, 73, 43
1, 1169799, Note_off_c, 0, 71, 36
1, 1169806, Note_off_c, 0, 78, 37
1, 1169908, Control_c, 0, 64, 71
1, 1169923, Control_c, 0, 64, 71
1, 1169953, Control_c, 0, 64, 70
1, 1170027, Control_c, 0, 64, 68
1, 1170042, Control_c, 0, 64, 63
1, 1170050, Note_on_c, 0, 78, 61
1, 1170056, Control_c, 0, 64, 49
1, 1170063, Note_on_c, 0, 66, 43
1, 1170071, Control_c, 0, 64, 26
1, 1170073, Note_on_c, 0, 75, 49
1, 1170081, Note_off_c, 0, 73, 56
1, 1170086, Control_c, 0, 64, 34
1, 1170096, Note_on_c, 0, 59, 26
1, 1170098, Note_off_c, 0, 54, 37
1, 1170101, Control_c, 0, 64, 49
1, 1170116, Control_c, 0, 64, 59
1, 1170131, Control_c, 0, 64, 64
1, 1170145, Control_c, 0, 64, 68
1, 1170160, Control_c, 0, 64, 73
1, 1170175, Control_c, 0, 64, 76
1, 1170190, Control_c, 0, 64, 77
1, 1170246, Note_off_c, 0, 75, 63
1, 1170364, Note_off_c, 0, 66, 41
1, 1170381, Note_on_c, 0, 54, 38
1, 1170402, Note_off_c, 0, 59, 43
1, 1170485, Note_on_c, 0, 66, 38
1, 1170621, Note_on_c, 0, 71, 38
1, 1170684, Note_off_c, 0, 66, 39
1, 1170735, Note_on_c, 0, 73, 44
1, 1170738, Note_off_c, 0, 78, 53
1, 1170776, Control_c, 0, 64, 76
1, 1170791, Control_c, 0, 64, 76
1, 1170820, Control_c, 0, 64, 75
1, 1170849, Control_c, 0, 64, 74
1, 1170864, Control_c, 0, 64, 69
1, 1170876, Note_on_c, 0, 78, 57
1, 1170879, Control_c, 0, 64, 63
1, 1170883, Note_on_c, 0, 63, 35
1, 1170893, Note_off_c, 0, 71, 32
1, 1170894, Control_c, 0, 64, 45
1, 1170900, Note_on_c, 0, 75, 47
1, 1170907, Note_on_c, 0, 59, 34
1, 1170909, Control_c, 0, 64, 29
1, 1170913, Note_off_c, 0, 54, 38
1, 1170923, Control_c, 0, 64, 40
1, 1170938, Control_c, 0, 64, 53
1, 1170939, Note_off_c, 0, 73, 36
1, 1170953, Control_c, 0, 64, 60
1, 1170968, Control_c, 0, 64, 64
1, 1170983, Control_c, 0, 64, 68
1, 1170998, Control_c, 0, 64, 72
1, 1171013, Control_c, 0, 64, 74
1, 1171028, Control_c, 0, 64, 75
1, 1171201, Note_on_c, 0, 51, 34
1, 1171242, Note_off_c, 0, 59, 40
1, 1171290, Note_off_c, 0, 63, 41
1, 1171293, Note_on_c, 0, 66, 34
1, 1171406, Note_off_c, 0, 75, 34
1, 1171428, Note_on_c, 0, 71, 34
1, 1171523, Note_off_c, 0, 66, 30
1, 1171526, Note_off_c, 0, 78, 39
1, 1171555, Note_on_c, 0, 73, 31
1, 1171600, Control_c, 0, 64, 74
1, 1171659, Control_c, 0, 64, 74
1, 1171673, Control_c, 0, 64, 71
1, 1171688, Control_c, 0, 64, 64
1, 1171698, Note_off_c, 0, 51, 36
1, 1171701, Note_on_c, 0, 78, 46
1, 1171703, Control_c, 0, 64, 51
1, 1171705, Note_on_c, 0, 59, 36
1, 1171709, Note_off_c, 0, 71, 24
1, 1171718, Control_c, 0, 64, 10
1, 1171719, Note_on_c, 0, 54, 29
1, 1171728, Note_on_c, 0, 75, 37
1, 1171733, Control_c, 0, 64, 22
1, 1171746, Note_off_c, 0, 73, 40
1, 1171747, Control_c, 0, 64, 48
1, 1171762, Control_c, 0, 64, 58
1, 1171777, Control_c, 0, 64, 64
1, 1171792, Control_c, 0, 64, 67
1, 1171807, Control_c, 0, 64, 70
1, 1171829, Control_c, 0, 64, 72
1, 1171843, Control_c, 0, 64, 73
1, 1172011, Note_on_c, 0, 47, 36
1, 1172095, Note_off_c, 0, 59, 40
1, 1172116, Note_off_c, 0, 54, 37
1, 1172138, Note_on_c, 0, 66, 25
1, 1172279, Note_off_c, 0, 75, 34
1, 1172286, Note_on_c, 0, 71, 23
1, 1172380, Note_off_c, 0, 78, 38
1, 1172383, Note_on_c, 0, 73, 32
1, 1172402, Note_off_c, 0, 71, 32
1, 1172407, Control_c, 0, 64, 73
1, 1172451, Control_c, 0, 64, 72
1, 1172481, Note_off_c, 0, 66, 26
1, 1172481, Control_c, 0, 64, 72
1, 1172540, Control_c, 0, 64, 71
1, 1172555, Control_c, 0, 64, 68
1, 1172576, Note_off_c, 0, 47, 42
1, 1172577, Control_c, 0, 64, 62
1, 1172578, Note_off_c, 0, 73, 38
1, 1172590, Note_on_c, 0, 78, 46
1, 1172592, Control_c, 0, 64, 46
1, 1172605, Note_on_c, 0, 54, 32
1, 1172607, Control_c, 0, 64, 18
1, 1172619, Note_on_c, 0, 71, 27
1, 1172620, Note_on_c, 0, 75, 35
1, 1172622, Control_c, 0, 64, 32
1, 1172636, Control_c, 0, 64, 49
1, 1172651, Control_c, 0, 64, 58
1, 1172666, Control_c, 0, 64, 63
1, 1172681, Control_c, 0, 64, 66
1, 1172695, Control_c, 0, 64, 68
1, 1172710, Control_c, 0, 64, 70
1, 1172873, Note_off_c, 0, 71, 42
1, 1172904, Note_off_c, 0, 75, 39
1, 1172918, Note_on_c, 0, 73, 36
1, 1172943, Note_on_c, 0, 42, 25
1, 1172945, Note_on_c, 0, 70, 18
1, 1172995, Note_off_c, 0, 73, 38
1, 1173013, Note_off_c, 0, 70, 42
1, 1173040, Note_off_c, 0, 78, 36
1, 1173090, Note_off_c, 0, 54, 40
1, 1173237, Note_on_c, 0, 78, 39
1, 1173241, Note_on_c, 0, 70, 31
1, 1173243, Note_on_c, 0, 73, 31
1, 1173303, Note_off_c, 0, 78, 48
1, 1173366, Note_off_c, 0, 73, 40
1, 1173415, Note_off_c, 0, 70, 41
1, 1173474, Control_c, 0, 64, 70
1, 1173489, Control_c, 0, 64, 69
1, 1173504, Control_c, 0, 64, 69
1, 1173548, Control_c, 0, 64, 68
1, 1173578, Control_c, 0, 64, 67
1, 1173592, Control_c, 0, 64, 67
1, 1173607, Control_c, 0, 64, 66
1, 1173622, Control_c, 0, 64, 66
1, 1173624, Note_off_c, 0, 42, 36
1, 1173636, Note_on_c, 0, 78, 32
1, 1173637, Control_c, 0, 64, 65
1, 1173651, Note_on_c, 0, 71, 24
1, 1173651, Note_on_c, 0, 47, 36
1, 1173651, Control_c, 0, 64, 61
1, 1173655, Note_on_c, 0, 75, 28
1, 1173666, Control_c, 0, 64, 46
1, 1173681, Control_c, 0, 64, 0
1, 1173771, Control_c, 0, 64, 51
1, 1173786, Control_c, 0, 64, 64
1, 1173801, Control_c, 0, 64, 66
1, 1173816, Control_c, 0, 64, 68
1, 1173830, Control_c, 0, 64, 69
1, 1173845, Control_c, 0, 64, 72
1, 1173860, Control_c, 0, 64, 76
1, 1173875, Control_c, 0, 64, 79
1, 1173889, Control_c, 0, 64, 80
1, 1173904, Control_c, 0, 64, 81
1, 1173919, Control_c, 0, 64, 82
1, 1173934, Control_c, 0, 64, 83
1, 1173949, Control_c, 0, 64, 85
1, 1173964, Control_c, 0, 64, 86
1, 1173979, Control_c, 0, 64, 86
1, 1173994, Control_c, 0, 64, 87
1, 1174119, Control_c, 0, 64, 88
1, 1174147, Note_off_c, 0, 71, 41
1, 1174190, Note_on_c, 0, 35, 26
1, 1174228, Note_off_c, 0, 78, 40
1, 1174264, Note_off_c, 0, 75, 41
1, 1174319, Note_off_c, 0, 47, 42
1, 1174438, Note_off_c, 0, 35, 41
1, 1174609, Control_c, 0, 64, 87
1, 1174683, Control_c, 0, 64, 87
1, 1174697, Control_c, 0, 64, 86
1, 1174712, Control_c, 0, 64, 86
1, 1174727, Control_c, 0, 64, 85
1, 1174742, Control_c, 0, 64, 84
1, 1174757, Control_c, 0, 64, 83
1, 1174772, Control_c, 0, 64, 83
1, 1174787, Control_c, 0, 64, 82
1, 1174802, Control_c, 0, 64, 81
1, 1174824, Control_c, 0, 64, 79
1, 1174840, Control_c, 0, 64, 77
1, 1174854, Control_c, 0, 64, 76
1, 1174869, Control_c, 0, 64, 74
1, 1174884, Control_c, 0, 64, 72
1, 1174894, Note_on_c, 0, 78, 39
1, 1174898, Control_c, 0, 64, 71
1, 1174913, Control_c, 0, 64, 68
1, 1174928, Control_c, 0, 64, 66
1, 1174943, Control_c, 0, 64, 64
1, 1174958, Control_c, 0, 64, 62
1, 1174972, Control_c, 0, 64, 57
1, 1174987, Control_c, 0, 64, 50
1, 1175002, Control_c, 0, 64, 36
1, 1175017, Control_c, 0, 64, 0
1, 1175076, Note_on_c, 0, 80, 46
1, 1175153, Note_off_c, 0, 78, 39
1, 1175223, Note_on_c, 0, 82, 50
1, 1175231, Note_off_c, 0, 80, 54
1, 1175472, Note_on_c, 0, 83, 50
1, 1175479, Note_on_c, 0, 56, 34
1, 1175501, Note_off_c, 0, 82, 45
1, 1175557, Note_off_c, 0, 56, 58
1, 1175928, Control_c, 0, 64, 23
1, 1175943, Control_c, 0, 64, 48
1, 1175958, Control_c, 0, 64, 57
1, 1175973, Control_c, 0, 64, 62
1, 1175988, Control_c, 0, 64, 64
1, 1176002, Note_on_c, 0, 64, 32
1, 1176002, Note_on_c, 0, 68, 32
1, 1176003, Control_c, 0, 64, 65
1, 1176014, Note_on_c, 0, 59, 31
1, 1176018, Control_c, 0, 64, 65
1, 1176021, Note_off_c, 0, 83, 52
1, 1176033, Control_c, 0, 64, 66
1, 1176047, Control_c, 0, 64, 68
1, 1176062, Control_c, 0, 64, 68
1, 1176187, Note_on_c, 0, 83, 40
1, 1176235, Note_off_c, 0, 68, 51
1, 1176237, Note_off_c, 0, 64, 51
1, 1176256, Control_c, 0, 64, 68
1, 1176285, Control_c, 0, 64, 67
1, 1176295, Note_off_c, 0, 59, 58
1, 1176300, Control_c, 0, 64, 67
1, 1176322, Control_c, 0, 64, 66
1, 1176336, Note_on_c, 0, 82, 47
1, 1176337, Control_c, 0, 64, 65
1, 1176351, Control_c, 0, 64, 65
1, 1176366, Control_c, 0, 64, 64
1, 1176381, Control_c, 0, 64, 63
1, 1176396, Control_c, 0, 64, 62
1, 1176411, Control_c, 0, 64, 61
1, 1176423, Note_off_c, 0, 83, 23
1, 1176425, Control_c, 0, 64, 60
1, 1176440, Control_c, 0, 64, 57
1, 1176455, Control_c, 0, 64, 54
1, 1176456, Note_on_c, 0, 80, 50
1, 1176469, Control_c, 0, 64, 50
1, 1176484, Control_c, 0, 64, 46
1, 1176499, Control_c, 0, 64, 40
1, 1176514, Control_c, 0, 64, 28
1, 1176529, Control_c, 0, 64, 0
1, 1176531, Note_off_c, 0, 82, 35
1, 1176648, Note_on_c, 0, 78, 57
1, 1176650, Note_on_c, 0, 47, 37
1, 1176706, Control_c, 0, 64, 34
1, 1176708, Note_off_c, 0, 47, 62
1, 1176721, Control_c, 0, 64, 60
1, 1176736, Control_c, 0, 64, 64
1, 1176751, Control_c, 0, 64, 64
1, 1176752, Note_off_c, 0, 80, 38
1, 1176930, Control_c, 0, 64, 64
1, 1176986, Note_off_c, 0, 78, 64
1, 1176991, Note_on_c, 0, 66, 40
1, 1177000, Note_on_c, 0, 63, 36
1, 1177013, Note_on_c, 0, 59, 28
1, 1177115, Control_c, 0, 64, 63
1, 1177118, Note_on_c, 0, 78, 57
1, 1177169, Note_off_c, 0, 66, 63
1, 1177204, Note_off_c, 0, 63, 56
1, 1177218, Control_c, 0, 64, 63
1, 1177232, Note_on_c, 0, 76, 56
1, 1177240, Note_off_c, 0, 59, 58
1, 1177263, Control_c, 0, 64, 62
1, 1177278, Control_c, 0, 64, 62
1, 1177307, Control_c, 0, 64, 61
1, 1177317, Note_off_c, 0, 78, 31
1, 1177322, Control_c, 0, 64, 60
1, 1177337, Control_c, 0, 64, 60
1, 1177339, Note_on_c, 0, 75, 65
1, 1177344, Note_off_c, 0, 76, 58
1, 1177352, Control_c, 0, 64, 59
1, 1177366, Control_c, 0, 64, 58
1, 1177381, Control_c, 0, 64, 57
1, 1177396, Control_c, 0, 64, 56
1, 1177410, Control_c, 0, 64, 52
1, 1177425, Control_c, 0, 64, 41
1, 1177440, Control_c, 0, 64, 0
1, 1177490, Note_on_c, 0, 80, 62
1, 1177498, Note_on_c, 0, 46, 47
1, 1177506, Note_on_c, 0, 73, 56
1, 1177527, Note_off_c, 0, 75, 60
1, 1177541, Note_off_c, 0, 46, 61
1, 1177544, Control_c, 0, 64, 55
1, 1177559, Control_c, 0, 64, 64
1, 1177574, Control_c, 0, 64, 65
1, 1177589, Control_c, 0, 64, 66
1, 1177604, Control_c, 0, 64, 68
1, 1177618, Control_c, 0, 64, 70
1, 1177693, Control_c, 0, 64, 69
1, 1177708, Control_c, 0, 64, 69
1, 1177723, Control_c, 0, 64, 68
1, 1177738, Control_c, 0, 64, 66
1, 1177753, Control_c, 0, 64, 64
1, 1177768, Control_c, 0, 64, 63
1, 1177783, Control_c, 0, 64, 61
1, 1177789, Note_on_c, 0, 61, 48
1, 1177797, Note_on_c, 0, 64, 45
1, 1177797, Control_c, 0, 64, 59
1, 1177800, Note_off_c, 0, 73, 60
1, 1177819, Control_c, 0, 64, 55
1, 1177824, Note_on_c, 0, 54, 35
1, 1177835, Control_c, 0, 64, 47
1, 1177849, Control_c, 0, 64, 29
1, 1177864, Control_c, 0, 64, 0
1, 1177928, Note_on_c, 0, 74, 50
1, 1178022, Note_off_c, 0, 61, 61
1, 1178046, Note_off_c, 0, 64, 60
1, 1178052, Note_off_c, 0, 74, 58
1, 1178057, Note_off_c, 0, 54, 56
1, 1178069, Note_on_c, 0, 75, 49
1, 1178160, Note_off_c, 0, 75, 62
1, 1178193, Note_on_c, 0, 76, 43
1, 1178367, Note_on_c, 0, 78, 47
1, 1178367, Note_on_c, 0, 47, 39
1, 1178371, Note_on_c, 0, 75, 42
1, 1178391, Note_off_c, 0, 76, 36
1, 1178403, Note_off_c, 0, 80, 61
1, 1178454, Note_off_c, 0, 47, 63
1, 1178774, Note_on_c, 0, 59, 24
1, 1178774, Note_on_c, 0, 63, 40
1, 1178780, Note_off_c, 0, 75, 62
1, 1178791, Control_c, 0, 64, 21
1, 1178794, Note_on_c, 0, 54, 26
1, 1178806, Control_c, 0, 64, 40
1, 1178820, Control_c, 0, 64, 46
1, 1178835, Control_c, 0, 64, 50
1, 1178850, Control_c, 0, 64, 53
1, 1178865, Control_c, 0, 64, 57
1, 1178879, Control_c, 0, 64, 61
1, 1178894, Control_c, 0, 64, 63
1, 1178900, Note_on_c, 0, 75, 57
1, 1178909, Control_c, 0, 64, 64
1, 1178924, Control_c, 0, 64, 66
1, 1178939, Control_c, 0, 64, 68
1, 1178954, Control_c, 0, 64, 69
1, 1178969, Control_c, 0, 64, 70
1, 1178984, Note_off_c, 0, 63, 57
1, 1178984, Control_c, 0, 64, 71
1, 1178998, Control_c, 0, 64, 73
1, 1179013, Control_c, 0, 64, 74
1, 1179019, Note_off_c, 0, 59, 51
1, 1179020, Note_on_c, 0, 73, 63
1, 1179028, Control_c, 0, 64, 77
1, 1179043, Control_c, 0, 64, 79
1, 1179058, Control_c, 0, 64, 81
1, 1179072, Control_c, 0, 64, 81
1, 1179087, Control_c, 0, 64, 82
1, 1179102, Control_c, 0, 64, 82
1, 1179115, Note_off_c, 0, 54, 41
1, 1179139, Note_on_c, 0, 71, 63
1, 1179169, Note_off_c, 0, 73, 61
1, 1179175, Note_off_c, 0, 78, 54
1, 1179211, Note_off_c, 0, 75, 30
1, 1179295, Control_c, 0, 64, 81
1, 1179318, Control_c, 0, 64, 80
1, 1179333, Control_c, 0, 64, 79
1, 1179347, Control_c, 0, 64, 77
1, 1179362, Control_c, 0, 64, 75
1, 1179377, Control_c, 0, 64, 72
1, 1179392, Note_on_c, 0, 78, 65
1, 1179392, Control_c, 0, 64, 70
1, 1179398, Note_on_c, 0, 70, 58
1, 1179407, Control_c, 0, 64, 69
1, 1179414, Note_off_c, 0, 71, 52
1, 1179421, Control_c, 0, 64, 68
1, 1179436, Control_c, 0, 64, 66
1, 1179451, Control_c, 0, 64, 64
1, 1179462, Note_on_c, 0, 37, 33
1, 1179466, Control_c, 0, 64, 58
1, 1179481, Control_c, 0, 64, 20
1, 1179495, Control_c, 0, 64, 0
1, 1179584, Control_c, 0, 64, 38
1, 1179599, Control_c, 0, 64, 58
1, 1179613, Control_c, 0, 64, 62
1, 1179628, Control_c, 0, 64, 63
1, 1179658, Control_c, 0, 64, 64
1, 1179673, Control_c, 0, 64, 64
1, 1179687, Control_c, 0, 64, 65
1, 1179702, Control_c, 0, 64, 66
1, 1179712, Note_on_c, 0, 76, 69
1, 1179713, Note_off_c, 0, 78, 62
1, 1179717, Note_off_c, 0, 70, 60
1, 1179717, Control_c, 0, 64, 66
1, 1179719, Note_on_c, 0, 68, 60
1, 1179732, Control_c, 0, 64, 67
1, 1179747, Control_c, 0, 64, 69
1, 1179758, Note_on_c, 0, 49, 34
1, 1179762, Control_c, 0, 64, 71
1, 1179777, Control_c, 0, 64, 73
1, 1179792, Control_c, 0, 64, 75
1, 1179807, Control_c, 0, 64, 77
1, 1179807, Note_off_c, 0, 76, 58
1, 1179821, Control_c, 0, 64, 78
1, 1179836, Control_c, 0, 64, 79
1, 1179846, Note_off_c, 0, 68, 56
1, 1179851, Control_c, 0, 64, 79
1, 1179881, Control_c, 0, 64, 80
1, 1179935, Note_off_c, 0, 37, 41
1, 1179966, Note_on_c, 0, 76, 54
1, 1179970, Note_on_c, 0, 68, 58
1, 1180021, Note_off_c, 0, 49, 40
1, 1180043, Control_c, 0, 64, 79
1, 1180079, Control_c, 0, 64, 79
1, 1180095, Control_c, 0, 64, 78
1, 1180109, Control_c, 0, 64, 77
1, 1180124, Control_c, 0, 64, 76
1, 1180139, Control_c, 0, 64, 75
1, 1180154, Control_c, 0, 64, 74
1, 1180169, Control_c, 0, 64, 72
1, 1180184, Control_c, 0, 64, 71
1, 1180198, Control_c, 0, 64, 70
1, 1180213, Control_c, 0, 64, 68
1, 1180223, Note_off_c, 0, 68, 56
1, 1180228, Note_off_c, 0, 76, 49
1, 1180228, Control_c, 0, 64, 64
1, 1180242, Control_c, 0, 64, 54
1, 1180251, Note_on_c, 0, 75, 51
1, 1180254, Note_on_c, 0, 39, 36
1, 1180257, Control_c, 0, 64, 0
1, 1180260, Note_on_c, 0, 67, 45
1, 1180331, Control_c, 0, 64, 27
1, 1180346, Control_c, 0, 64, 59
1, 1180361, Control_c, 0, 64, 65
1, 1180376, Control_c, 0, 64, 67
1, 1180391, Control_c, 0, 64, 68
1, 1180406, Control_c, 0, 64, 68
1, 1180421, Control_c, 0, 64, 69
1, 1180455, Note_off_c, 0, 75, 63
1, 1180532, Note_on_c, 0, 51, 32
1, 1180605, Note_on_c, 0, 75, 35
1, 1180635, Note_off_c, 0, 75, 52
1, 1180677, Note_on_c, 0, 76, 45
1, 1180719, Note_off_c, 0, 76, 56
1, 1180725, Note_on_c, 0, 75, 57
1, 1180817, Note_off_c, 0, 75, 56
1, 1180867, Note_on_c, 0, 74, 49
1, 1180883, Note_off_c, 0, 39, 56
1, 1180935, Note_off_c, 0, 67, 49
1, 1180977, Control_c, 0, 64, 68
1, 1180978, Note_off_c, 0, 51, 40
1, 1180981, Note_off_c, 0, 74, 58
1, 1180985, Note_on_c, 0, 75, 48
1, 1181006, Control_c, 0, 64, 68
1, 1181031, Note_off_c, 0, 75, 58
1, 1181036, Control_c, 0, 64, 67
1, 1181051, Control_c, 0, 64, 67
1, 1181065, Control_c, 0, 64, 66
1, 1181080, Control_c, 0, 64, 66
1, 1181095, Control_c, 0, 64, 65
1, 1181110, Control_c, 0, 64, 65
1, 1181125, Control_c, 0, 64, 63
1, 1181139, Control_c, 0, 64, 58
1, 1181154, Control_c, 0, 64, 38
1, 1181155, Note_on_c, 0, 78, 55
1, 1181157, Note_on_c, 0, 68, 46
1, 1181164, Note_on_c, 0, 37, 35
1, 1181169, Control_c, 0, 64, 0
1, 1181243, Control_c, 0, 64, 42
1, 1181258, Control_c, 0, 64, 59
1, 1181273, Control_c, 0, 64, 64
1, 1181288, Control_c, 0, 64, 65
1, 1181291, Note_on_c, 0, 76, 53
1, 1181294, Note_off_c, 0, 78, 58
1, 1181318, Control_c, 0, 64, 64
1, 1181330, Note_off_c, 0, 68, 52
1, 1181332, Control_c, 0, 64, 60
1, 1181343, Note_off_c, 0, 76, 54
1, 1181347, Control_c, 0, 64, 51
1, 1181362, Control_c, 0, 64, 44
1, 1181377, Control_c, 0, 64, 46
1, 1181391, Control_c, 0, 64, 51
1, 1181406, Control_c, 0, 64, 57
1, 1181411, Note_on_c, 0, 49, 35
1, 1181416, Note_on_c, 0, 75, 58
1, 1181417, Note_on_c, 0, 68, 47
1, 1181421, Control_c, 0, 64, 61
1, 1181436, Control_c, 0, 64, 63
1, 1181451, Control_c, 0, 64, 64
1, 1181465, Control_c, 0, 64, 63
1, 1181480, Control_c, 0, 64, 62
1, 1181495, Control_c, 0, 64, 55
1, 1181510, Control_c, 0, 64, 41
1, 1181525, Control_c, 0, 64, 25
1, 1181539, Control_c, 0, 64, 26
1, 1181545, Note_on_c, 0, 76, 57
1, 1181559, Note_off_c, 0, 75, 60
1, 1181562, Control_c, 0, 64, 40
1, 1181574, Note_off_c, 0, 68, 53
1, 1181577, Control_c, 0, 64, 53
1, 1181592, Control_c, 0, 64, 61
1, 1181607, Control_c, 0, 64, 63
1, 1181622, Control_c, 0, 64, 64
1, 1181660, Note_off_c, 0, 76, 36
1, 1181697, Note_on_c, 0, 78, 53
1, 1181707, Note_on_c, 0, 68, 49
1, 1181726, Control_c, 0, 64, 63
1, 1181757, Note_off_c, 0, 37, 51
1, 1181807, Note_off_c, 0, 78, 55
1, 1181815, Control_c, 0, 64, 63
1, 1181831, Note_off_c, 0, 49, 39
1, 1181840, Note_on_c, 0, 76, 45
1, 1181860, Control_c, 0, 64, 62
1, 1181889, Control_c, 0, 64, 62
1, 1181934, Control_c, 0, 64, 61
1, 1181942, Note_off_c, 0, 68, 51
1, 1181949, Control_c, 0, 64, 61
1, 1181963, Control_c, 0, 64, 60
1, 1181978, Control_c, 0, 64, 60
1, 1181993, Control_c, 0, 64, 59
1, 1182007, Control_c, 0, 64, 58
1, 1182022, Control_c, 0, 64, 58
1, 1182032, Note_off_c, 0, 76, 47
1, 1182037, Control_c, 0, 64, 56
1, 1182051, Note_on_c, 0, 75, 43
1, 1182052, Control_c, 0, 64, 52
1, 1182066, Note_on_c, 0, 39, 27
1, 1182067, Control_c, 0, 64, 34
1, 1182068, Note_on_c, 0, 67, 33
1, 1182081, Control_c, 0, 64, 0
1, 1182200, Control_c, 0, 64, 44
1, 1182215, Control_c, 0, 64, 57
1, 1182230, Control_c, 0, 64, 60
1, 1182245, Control_c, 0, 64, 61
1, 1182260, Control_c, 0, 64, 62
1, 1182275, Control_c, 0, 64, 63
1, 1182289, Control_c, 0, 64, 64
1, 1182311, Control_c, 0, 64, 66
1, 1182325, Control_c, 0, 64, 67
1, 1182340, Control_c, 0, 64, 68
1, 1182355, Control_c, 0, 64, 70
1, 1182360, Note_on_c, 0, 51, 35
1, 1182370, Control_c, 0, 64, 72
1, 1182385, Control_c, 0, 64, 74
1, 1182397, Note_off_c, 0, 75, 62
1, 1182400, Control_c, 0, 64, 75
1, 1182414, Control_c, 0, 64, 77
1, 1182429, Control_c, 0, 64, 78
1, 1182444, Control_c, 0, 64, 79
1, 1182459, Control_c, 0, 64, 80
1, 1182504, Control_c, 0, 64, 80
1, 1182591, Note_off_c, 0, 39, 52
1, 1182625, Note_on_c, 0, 75, 59
1, 1182672, Note_off_c, 0, 51, 35
1, 1182682, Control_c, 0, 64, 81
1, 1182689, Note_off_c, 0, 67, 41
1, 1182777, Note_off_c, 0, 75, 57
1, 1182948, Note_on_c, 0, 75, 63
1, 1182948, Control_c, 0, 64, 80
1, 1182963, Control_c, 0, 64, 76
1, 1182978, Control_c, 0, 64, 67
1, 1182993, Control_c, 0, 64, 57
1, 1183008, Control_c, 0, 64, 18
1, 1183023, Control_c, 0, 64, 0
1, 1183037, Control_c, 0, 64, 15
1, 1183052, Control_c, 0, 64, 42
1, 1183074, Control_c, 0, 64, 56
1, 1183089, Control_c, 0, 64, 63
1, 1183104, Control_c, 0, 64, 66
1, 1183118, Control_c, 0, 64, 70
1, 1183133, Control_c, 0, 64, 75
1, 1183148, Control_c, 0, 64, 81
1, 1183163, Control_c, 0, 64, 89
1, 1183178, Control_c, 0, 64, 97
1, 1183193, Control_c, 0, 64, 106
1, 1183208, Control_c, 0, 64, 116
1, 1183223, Control_c, 0, 64, 127
1, 1183321, Note_off_c, 0, 75, 38
1, 1183608, Control_c, 0, 64, 113
1, 1183614, Note_on_c, 0, 75, 63
1, 1183623, Control_c, 0, 64, 89
1, 1183638, Control_c, 0, 64, 73
1, 1183652, Control_c, 0, 64, 63
1, 1183667, Control_c, 0, 64, 54
1, 1183682, Control_c, 0, 64, 53
1, 1183697, Control_c, 0, 64, 59
1, 1183712, Control_c, 0, 64, 64
1, 1183726, Control_c, 0, 64, 67
1, 1183741, Control_c, 0, 64, 71
1, 1183756, Control_c, 0, 64, 78
1, 1183771, Control_c, 0, 64, 85
1, 1183786, Control_c, 0, 64, 90
1, 1183808, Control_c, 0, 64, 94
1, 1183823, Control_c, 0, 64, 97
1, 1183838, Control_c, 0, 64, 99
1, 1183841, Note_off_c, 0, 75, 52
1, 1183852, Control_c, 0, 64, 99
1, 1184090, Control_c, 0, 64, 99
1, 1184105, Control_c, 0, 64, 98
1, 1184120, Control_c, 0, 64, 97
1, 1184135, Control_c, 0, 64, 97
1, 1184150, Control_c, 0, 64, 95
1, 1184165, Control_c, 0, 64, 94
1, 1184180, Control_c, 0, 64, 93
1, 1184194, Control_c, 0, 64, 92
1, 1184209, Control_c, 0, 64, 90
1, 1184224, Control_c, 0, 64, 89
1, 1184239, Control_c, 0, 64, 87
1, 1184254, Control_c, 0, 64, 85
1, 1184266, Note_on_c, 0, 75, 34
1, 1184269, Control_c, 0, 64, 83
1, 1184283, Control_c, 0, 64, 79
1, 1184298, Control_c, 0, 64, 77
1, 1184313, Control_c, 0, 64, 73
1, 1184328, Control_c, 0, 64, 69
1, 1184343, Control_c, 0, 64, 65
1, 1184357, Control_c, 0, 64, 54
1, 1184372, Control_c, 0, 64, 0
1, 1184431, Control_c, 0, 64, 12
1, 1184446, Control_c, 0, 64, 44
1, 1184461, Control_c, 0, 64, 58
1, 1184475, Control_c, 0, 64, 63
1, 1184490, Control_c, 0, 64, 64
1, 1184505, Control_c, 0, 64, 65
1, 1184520, Control_c, 0, 64, 68
1, 1184535, Control_c, 0, 64, 71
1, 1184557, Control_c, 0, 64, 75
1, 1184573, Control_c, 0, 64, 78
1, 1184588, Control_c, 0, 64, 79
1, 1184603, Control_c, 0, 64, 80
1, 1184617, Control_c, 0, 64, 81
1, 1184632, Control_c, 0, 64, 82
1, 1184662, Control_c, 0, 64, 82
1, 1185139, Note_on_c, 0, 63, 29
1, 1185369, Note_on_c, 0, 68, 38
1, 1185414, Note_off_c, 0, 63, 41
1, 1185544, Control_c, 0, 64, 82
1, 1185546, Note_off_c, 0, 75, 40
1, 1185550, Note_on_c, 0, 70, 50
1, 1185603, Note_off_c, 0, 68, 43
1, 1185647, Control_c, 0, 64, 81
1, 1185678, Control_c, 0, 64, 81
1, 1185723, Control_c, 0, 64, 80
1, 1185737, Control_c, 0, 64, 80
1, 1185752, Control_c, 0, 64, 79
1, 1185767, Control_c, 0, 64, 79
1, 1185781, Control_c, 0, 64, 78
1, 1185796, Control_c, 0, 64, 78
1, 1185811, Control_c, 0, 64, 77
1, 1185826, Control_c, 0, 64, 76
1, 1185841, Control_c, 0, 64, 75
1, 1185855, Note_off_c, 0, 70, 38
1, 1185855, Control_c, 0, 64, 74
1, 1185870, Control_c, 0, 64, 72
1, 1185874, Note_on_c, 0, 72, 45
1, 1185876, Note_on_c, 0, 75, 45
1, 1185885, Control_c, 0, 64, 70
1, 1185892, Note_on_c, 0, 56, 28
1, 1185897, Note_on_c, 0, 63, 31
1, 1185900, Control_c, 0, 64, 67
1, 1185915, Control_c, 0, 64, 63
1, 1185929, Control_c, 0, 64, 57
1, 1185944, Control_c, 0, 64, 45
1, 1185950, Note_off_c, 0, 72, 59
1, 1185959, Control_c, 0, 64, 32
1, 1185974, Control_c, 0, 64, 25
1, 1186151, Note_on_c, 0, 72, 46
1, 1186175, Note_off_c, 0, 72, 60
1, 1186192, Note_on_c, 0, 73, 55
1, 1186218, Control_c, 0, 64, 24
1, 1186233, Control_c, 0, 64, 23
1, 1186236, Note_off_c, 0, 73, 56
1, 1186248, Control_c, 0, 64, 21
1, 1186254, Note_on_c, 0, 51, 26
1, 1186257, Note_on_c, 0, 72, 55
1, 1186263, Control_c, 0, 64, 17
1, 1186278, Control_c, 0, 64, 8
1, 1186293, Control_c, 0, 64, 0
1, 1186328, Note_off_c, 0, 56, 40
1, 1186352, Note_off_c, 0, 72, 62
1, 1186378, Note_on_c, 0, 70, 46
1, 1186455, Control_c, 0, 64, 34
1, 1186470, Control_c, 0, 64, 55
1, 1186486, Control_c, 0, 64, 60
1, 1186493, Note_off_c, 0, 70, 54
1, 1186499, Note_on_c, 0, 72, 53
1, 1186501, Control_c, 0, 64, 62
1, 1186516, Control_c, 0, 64, 64
1, 1186531, Control_c, 0, 64, 66
1, 1186545, Control_c, 0, 64, 69
1, 1186552, Note_off_c, 0, 63, 42
1, 1186560, Control_c, 0, 64, 72
1, 1186566, Note_off_c, 0, 75, 57
1, 1186575, Control_c, 0, 64, 74
1, 1186708, Control_c, 0, 64, 74
1, 1186723, Control_c, 0, 64, 73
1, 1186738, Control_c, 0, 64, 71
1, 1186752, Control_c, 0, 64, 70
1, 1186767, Control_c, 0, 64, 67
1, 1186782, Control_c, 0, 64, 63
1, 1186790, Note_off_c, 0, 72, 56
1, 1186804, Control_c, 0, 64, 50
1, 1186809, Note_on_c, 0, 73, 42
1, 1186810, Note_on_c, 0, 75, 41
1, 1186818, Control_c, 0, 64, 0
1, 1186820, Note_on_c, 0, 58, 35
1, 1186824, Note_on_c, 0, 63, 32
1, 1186845, Note_off_c, 0, 51, 41
1, 1186907, Control_c, 0, 64, 52
1, 1186922, Control_c, 0, 64, 63
1, 1186937, Control_c, 0, 64, 65
1, 1186952, Control_c, 0, 64, 66
1, 1186967, Control_c, 0, 64, 66
1, 1186982, Control_c, 0, 64, 67
1, 1187041, Control_c, 0, 64, 67
1, 1187071, Control_c, 0, 64, 68
1, 1187107, Note_off_c, 0, 75, 56
1, 1187115, Control_c, 0, 64, 68
1, 1187151, Note_on_c, 0, 51, 30
1, 1187173, Note_off_c, 0, 73, 42
1, 1187248, Note_on_c, 0, 75, 51
1, 1187360, Note_on_c, 0, 73, 50
1, 1187404, Note_off_c, 0, 75, 52
1, 1187413, Note_off_c, 0, 63, 43
1, 1187417, Note_off_c, 0, 58, 41
1, 1187456, Note_on_c, 0, 72, 57
1, 1187490, Note_off_c, 0, 72, 64
1, 1187498, Note_off_c, 0, 73, 36
1, 1187530, Control_c, 0, 64, 68
1, 1187552, Control_c, 0, 64, 67
1, 1187567, Control_c, 0, 64, 66
1, 1187582, Control_c, 0, 64, 65
1, 1187592, Note_on_c, 0, 75, 44
1, 1187597, Note_on_c, 0, 72, 47
1, 1187597, Control_c, 0, 64, 64
1, 1187612, Control_c, 0, 64, 63
1, 1187619, Note_on_c, 0, 63, 33
1, 1187626, Control_c, 0, 64, 63
1, 1187632, Note_on_c, 0, 55, 35
1, 1187632, Note_off_c, 0, 72, 63
1, 1187641, Control_c, 0, 64, 62
1, 1187645, Note_off_c, 0, 51, 38
1, 1187649, Note_on_c, 0, 70, 53
1, 1187656, Control_c, 0, 64, 61
1, 1187671, Control_c, 0, 64, 60
1, 1187686, Control_c, 0, 64, 59
1, 1187694, Note_off_c, 0, 70, 56
1, 1187700, Control_c, 0, 64, 58
1, 1187715, Control_c, 0, 64, 57
1, 1187730, Control_c, 0, 64, 56
1, 1187745, Control_c, 0, 64, 55
1, 1187760, Control_c, 0, 64, 55
1, 1187775, Control_c, 0, 64, 54
1, 1187804, Control_c, 0, 64, 54
1, 1187808, Note_on_c, 0, 70, 54
1, 1187819, Control_c, 0, 64, 53
1, 1187834, Control_c, 0, 64, 53
1, 1187840, Note_off_c, 0, 70, 62
1, 1187849, Control_c, 0, 64, 52
1, 1187852, Note_on_c, 0, 72, 55
1, 1187864, Control_c, 0, 64, 51
1, 1187879, Control_c, 0, 64, 51
1, 1187894, Control_c, 0, 64, 50
1, 1187907, Note_on_c, 0, 70, 54
1, 1187908, Note_on_c, 0, 51, 39
1, 1187908, Control_c, 0, 64, 49
1, 1187917, Note_off_c, 0, 72, 49
1, 1187923, Control_c, 0, 64, 49
1, 1187938, Control_c, 0, 64, 47
1, 1187952, Control_c, 0, 64, 44
1, 1187967, Control_c, 0, 64, 34
1, 1187982, Control_c, 0, 64, 0
1, 1187995, Note_off_c, 0, 70, 59
1, 1187999, Note_off_c, 0, 55, 40
1, 1188020, Note_on_c, 0, 68, 47
1, 1188102, Control_c, 0, 64, 47
1, 1188117, Control_c, 0, 64, 58
1, 1188131, Control_c, 0, 64, 61
1, 1188137, Note_off_c, 0, 63, 42
1, 1188146, Control_c, 0, 64, 62
1, 1188149, Note_on_c, 0, 70, 52
1, 1188161, Control_c, 0, 64, 63
1, 1188175, Control_c, 0, 64, 64
1, 1188190, Control_c, 0, 64, 66
1, 1188204, Note_off_c, 0, 75, 54
1, 1188240, Note_off_c, 0, 68, 41
1, 1188317, Control_c, 0, 64, 65
1, 1188332, Control_c, 0, 64, 65
1, 1188347, Control_c, 0, 64, 64
1, 1188362, Control_c, 0, 64, 64
1, 1188376, Control_c, 0, 64, 63
1, 1188391, Control_c, 0, 64, 62
1, 1188406, Control_c, 0, 64, 55
1, 1188421, Control_c, 0, 64, 27
1, 1188428, Note_on_c, 0, 72, 47
1, 1188431, Note_on_c, 0, 75, 44
1, 1188436, Control_c, 0, 64, 0
1, 1188441, Note_on_c, 0, 56, 34
1, 1188443, Note_on_c, 0, 63, 37
1, 1188461, Note_off_c, 0, 70, 39
1, 1188466, Note_off_c, 0, 51, 35
1, 1188510, Control_c, 0, 64, 42
1, 1188524, Control_c, 0, 64, 59
1, 1188539, Control_c, 0, 64, 63
1, 1188554, Control_c, 0, 64, 64
1, 1188569, Control_c, 0, 64, 65
1, 1188583, Control_c, 0, 64, 66
1, 1188598, Control_c, 0, 64, 67
1, 1188603, Note_off_c, 0, 72, 62
1, 1188613, Control_c, 0, 64, 69
1, 1188628, Control_c, 0, 64, 71
1, 1188643, Control_c, 0, 64, 72
1, 1188659, Note_off_c, 0, 63, 44
1, 1188687, Control_c, 0, 64, 72
1, 1188716, Control_c, 0, 64, 73
1, 1188723, Note_on_c, 0, 51, 33
1, 1188796, Note_off_c, 0, 56, 40
1, 1188839, Note_on_c, 0, 63, 43
1, 1188958, Note_on_c, 0, 68, 51
1, 1189006, Note_off_c, 0, 75, 36
1, 1189015, Note_off_c, 0, 63, 43
1, 1189029, Control_c, 0, 64, 72
1, 1189051, Control_c, 0, 64, 72
1, 1189066, Control_c, 0, 64, 71
1, 1189086, Note_on_c, 0, 70, 47
1, 1189095, Control_c, 0, 64, 71
1, 1189110, Control_c, 0, 64, 70
1, 1189125, Control_c, 0, 64, 70
1, 1189140, Control_c, 0, 64, 69
1, 1189155, Control_c, 0, 64, 69
1, 1189170, Control_c, 0, 64, 67
1, 1189174, Note_off_c, 0, 68, 32
1, 1189184, Control_c, 0, 64, 63
1, 1189199, Control_c, 0, 64, 55
1, 1189214, Control_c, 0, 64, 29
1, 1189220, Note_on_c, 0, 72, 49
1, 1189221, Note_on_c, 0, 75, 52
1, 1189223, Note_on_c, 0, 63, 36
1, 1189229, Control_c, 0, 64, 0
1, 1189241, Note_on_c, 0, 56, 30
1, 1189253, Note_off_c, 0, 70, 46
1, 1189259, Control_c, 0, 64, 23
1, 1189259, Note_off_c, 0, 51, 41
1, 1189273, Control_c, 0, 64, 44
1, 1189288, Control_c, 0, 64, 55
1, 1189303, Control_c, 0, 64, 61
1, 1189318, Control_c, 0, 64, 63
1, 1189332, Control_c, 0, 64, 65
1, 1189347, Control_c, 0, 64, 67
1, 1189362, Control_c, 0, 64, 68
1, 1189377, Control_c, 0, 64, 70
1, 1189392, Control_c, 0, 64, 71
1, 1189406, Control_c, 0, 64, 72
1, 1189414, Note_off_c, 0, 63, 43
1, 1189436, Control_c, 0, 64, 72
1, 1189451, Control_c, 0, 64, 73
1, 1189480, Control_c, 0, 64, 73
1, 1189501, Note_on_c, 0, 51, 36
1, 1189539, Control_c, 0, 64, 74
1, 1189607, Note_off_c, 0, 72, 37
1, 1189618, Note_off_c, 0, 56, 37
1, 1189623, Note_on_c, 0, 63, 50
1, 1189762, Note_on_c, 0, 68, 58
1, 1189852, Note_off_c, 0, 63, 35
1, 1189884, Note_off_c, 0, 75, 57
1, 1189890, Note_on_c, 0, 70, 62
1, 1189962, Control_c, 0, 64, 73
1, 1189977, Control_c, 0, 64, 73
1, 1189989, Note_off_c, 0, 68, 34
1, 1189992, Control_c, 0, 64, 72
1, 1190007, Control_c, 0, 64, 72
1, 1190022, Control_c, 0, 64, 71
1, 1190037, Control_c, 0, 64, 70
1, 1190052, Control_c, 0, 64, 69
1, 1190067, Control_c, 0, 64, 68
1, 1190082, Control_c, 0, 64, 67
1, 1190096, Control_c, 0, 64, 66
1, 1190111, Control_c, 0, 64, 64
1, 1190120, Note_on_c, 0, 71, 57
1, 1190120, Note_on_c, 0, 75, 54
1, 1190126, Control_c, 0, 64, 63
1, 1190140, Note_off_c, 0, 70, 22
1, 1190141, Control_c, 0, 64, 61
1, 1190148, Note_on_c, 0, 56, 31
1, 1190151, Note_on_c, 0, 63, 24
1, 1190155, Control_c, 0, 64, 57
1, 1190170, Control_c, 0, 64, 38
1, 1190185, Control_c, 0, 64, 0
1, 1190193, Note_off_c, 0, 51, 32
1, 1190274, Control_c, 0, 64, 51
1, 1190289, Control_c, 0, 64, 63
1, 1190303, Control_c, 0, 64, 66
1, 1190318, Control_c, 0, 64, 68
1, 1190333, Control_c, 0, 64, 71
1, 1190347, Control_c, 0, 64, 75
1, 1190348, Note_off_c, 0, 71, 61
1, 1190362, Control_c, 0, 64, 78
1, 1190377, Control_c, 0, 64, 80
1, 1190392, Control_c, 0, 64, 81
1, 1190407, Control_c, 0, 64, 82
1, 1190422, Control_c, 0, 64, 83
1, 1190436, Control_c, 0, 64, 83
1, 1190467, Control_c, 0, 64, 84
1, 1190472, Note_on_c, 0, 51, 38
1, 1190594, Note_off_c, 0, 63, 29
1, 1190601, Note_on_c, 0, 66, 51
1, 1190684, Note_off_c, 0, 56, 34
1, 1190737, Note_on_c, 0, 71, 59
1, 1190794, Note_off_c, 0, 75, 55
1, 1190867, Note_on_c, 0, 73, 68
1, 1190933, Control_c, 0, 67, 126
1, 1190943, Note_off_c, 0, 66, 38
1, 1190948, Control_c, 0, 67, 119
1, 1190963, Control_c, 0, 67, 115
1, 1190977, Control_c, 0, 64, 83
1, 1190977, Control_c, 0, 67, 113
1, 1190992, Control_c, 0, 64, 83
1, 1191007, Control_c, 0, 64, 81
1, 1191007, Control_c, 0, 67, 114
1, 1191022, Control_c, 0, 64, 79
1, 1191037, Control_c, 0, 64, 76
1, 1191037, Control_c, 0, 67, 115
1, 1191051, Control_c, 0, 64, 74
1, 1191066, Control_c, 0, 64, 70
1, 1191072, Note_on_c, 0, 78, 61
1, 1191077, Note_on_c, 0, 75, 54
1, 1191081, Control_c, 0, 64, 67
1, 1191081, Control_c, 0, 67, 115
1, 1191085, Note_off_c, 0, 71, 53
1, 1191095, Control_c, 0, 64, 63
1, 1191100, Note_on_c, 0, 63, 33
1, 1191110, Control_c, 0, 64, 53
1, 1191110, Control_c, 0, 67, 116
1, 1191113, Note_on_c, 0, 59, 34
1, 1191125, Control_c, 0, 64, 0
1, 1191125, Control_c, 0, 67, 116
1, 1191140, Control_c, 0, 67, 117
1, 1191153, Note_off_c, 0, 73, 52
1, 1191155, Control_c, 0, 67, 118
1, 1191170, Control_c, 0, 67, 119
1, 1191170, Note_off_c, 0, 51, 30
1, 1191185, Control_c, 0, 67, 120
1, 1191200, Control_c, 0, 64, 56
1, 1191200, Control_c, 0, 67, 121
1, 1191214, Control_c, 0, 64, 67
1, 1191214, Control_c, 0, 67, 123
1, 1191229, Control_c, 0, 64, 73
1, 1191229, Control_c, 0, 67, 124
1, 1191244, Control_c, 0, 64, 80
1, 1191244, Control_c, 0, 67, 126
1, 1191259, Control_c, 0, 64, 84
1, 1191259, Control_c, 0, 67, 127
1, 1191274, Control_c, 0, 64, 88
1, 1191297, Control_c, 0, 64, 92
1, 1191313, Control_c, 0, 64, 95
1, 1191328, Control_c, 0, 64, 97
1, 1191357, Control_c, 0, 64, 97
1, 1191431, Note_on_c, 0, 51, 35
1, 1191504, Note_off_c, 0, 59, 41
1, 1191538, Note_off_c, 0, 63, 42
1, 1191539, Note_on_c, 0, 66, 39
1, 1191671, Note_on_c, 0, 71, 40
1, 1191727, Control_c, 0, 64, 97
1, 1191744, Note_off_c, 0, 75, 35
1, 1191748, Note_off_c, 0, 78, 54
1, 1191772, Note_on_c, 0, 73, 46
1, 1191787, Control_c, 0, 64, 96
1, 1191801, Control_c, 0, 64, 95
1, 1191816, Control_c, 0, 64, 94
1, 1191831, Control_c, 0, 64, 92
1, 1191846, Control_c, 0, 64, 90
1, 1191861, Control_c, 0, 64, 88
1, 1191875, Control_c, 0, 64, 86
1, 1191890, Control_c, 0, 64, 83
1, 1191905, Control_c, 0, 64, 75
1, 1191918, Note_on_c, 0, 78, 43
1, 1191918, Note_off_c, 0, 66, 40
1, 1191919, Control_c, 0, 64, 65
1, 1191934, Control_c, 0, 64, 49
1, 1191935, Note_on_c, 0, 59, 32
1, 1191935, Note_on_c, 0, 75, 39
1, 1191946, Note_off_c, 0, 51, 40
1, 1191948, Note_on_c, 0, 54, 28
1, 1191949, Control_c, 0, 64, 0
1, 1191969, Note_off_c, 0, 71, 41
1, 1191979, Control_c, 0, 64, 38
1, 1191989, Note_off_c, 0, 73, 48
1, 1191993, Control_c, 0, 64, 53
1, 1192008, Control_c, 0, 64, 61
1, 1192023, Control_c, 0, 64, 65
1, 1192046, Control_c, 0, 64, 67
1, 1192061, Control_c, 0, 64, 69
1, 1192076, Control_c, 0, 64, 70
1, 1192091, Control_c, 0, 64, 71
1, 1192106, Control_c, 0, 64, 72
1, 1192121, Control_c, 0, 64, 73
1, 1192136, Control_c, 0, 64, 74
1, 1192210, Control_c, 0, 64, 74
1, 1192228, Note_on_c, 0, 47, 36
1, 1192289, Note_off_c, 0, 59, 38
1, 1192303, Note_off_c, 0, 54, 39
1, 1192338, Note_on_c, 0, 66, 35
1, 1192466, Note_on_c, 0, 71, 39
1, 1192563, Note_off_c, 0, 75, 36
1, 1192592, Note_off_c, 0, 78, 35
1, 1192592, Note_on_c, 0, 73, 36
1, 1192607, Note_off_c, 0, 71, 36
1, 1192610, Control_c, 0, 64, 74
1, 1192639, Control_c, 0, 64, 73
1, 1192641, Note_off_c, 0, 66, 39
1, 1192654, Control_c, 0, 64, 73
1, 1192669, Control_c, 0, 64, 72
1, 1192684, Control_c, 0, 64, 72
1, 1192698, Control_c, 0, 64, 71
1, 1192713, Control_c, 0, 64, 70
1, 1192728, Control_c, 0, 64, 70
1, 1192742, Control_c, 0, 64, 68
1, 1192756, Note_off_c, 0, 47, 43
1, 1192757, Control_c, 0, 64, 65
1, 1192763, Note_off_c, 0, 73, 30
1, 1192768, Note_on_c, 0, 78, 42
1, 1192772, Note_on_c, 0, 71, 39
1, 1192772, Control_c, 0, 64, 57
1, 1192794, Control_c, 0, 64, 0
1, 1192798, Note_on_c, 0, 54, 29
1, 1192806, Note_on_c, 0, 75, 33
1, 1192869, Control_c, 0, 64, 48
1, 1192884, Control_c, 0, 64, 61
1, 1192899, Control_c, 0, 64, 64
1, 1192914, Control_c, 0, 64, 65
1, 1192928, Control_c, 0, 64, 66
1, 1192943, Control_c, 0, 64, 66
1, 1192958, Control_c, 0, 64, 67
1, 1193071, Note_off_c, 0, 71, 37
1, 1193077, Control_c, 0, 64, 65
1, 1193092, Control_c, 0, 64, 58
1, 1193107, Control_c, 0, 64, 43
1, 1193117, Note_on_c, 0, 73, 41
1, 1193121, Control_c, 0, 64, 33
1, 1193126, Note_on_c, 0, 70, 37
1, 1193127, Note_off_c, 0, 75, 37
1, 1193136, Control_c, 0, 64, 40
1, 1193141, Note_on_c, 0, 42, 25
1, 1193151, Control_c, 0, 64, 51
1, 1193165, Control_c, 0, 64, 59
1, 1193180, Control_c, 0, 64, 64
1, 1193195, Control_c, 0, 64, 66
1, 1193200, Note_off_c, 0, 73, 58
1, 1193210, Control_c, 0, 64, 67
1, 1193225, Control_c, 0, 64, 68
1, 1193239, Control_c, 0, 64, 69
1, 1193254, Control_c, 0, 64, 70
1, 1193259, Note_off_c, 0, 70, 39
1, 1193264, Note_off_c, 0, 78, 51
1, 1193284, Control_c, 0, 64, 70
1, 1193301, Note_off_c, 0, 54, 41
1, 1193343, Control_c, 0, 64, 71
1, 1193358, Control_c, 0, 64, 71
1, 1193373, Control_c, 0, 64, 72
1, 1193432, Control_c, 0, 64, 69
1, 1193447, Control_c, 0, 64, 65
1, 1193462, Control_c, 0, 64, 61
1, 1193468, Note_on_c, 0, 78, 35
1, 1193477, Note_on_c, 0, 70, 33
1, 1193477, Control_c, 0, 64, 62
1, 1193483, Note_on_c, 0, 73, 35
1, 1193491, Control_c, 0, 64, 63
1, 1193506, Control_c, 0, 64, 65
1, 1193521, Control_c, 0, 64, 68
1, 1193543, Control_c, 0, 64, 71
1, 1193557, Control_c, 0, 64, 73
1, 1193571, Control_c, 0, 64, 74
1, 1193586, Control_c, 0, 64, 75
1, 1193603, Note_off_c, 0, 78, 32
1, 1193647, Note_off_c, 0, 73, 37
1, 1193668, Note_off_c, 0, 70, 43
1, 1193718, Note_off_c, 0, 42, 37
1, 1193868, Control_c, 0, 64, 74
1, 1193883, Control_c, 0, 64, 74
1, 1193898, Control_c, 0, 64, 73
1, 1193912, Control_c, 0, 64, 72
1, 1193927, Control_c, 0, 64, 71
1, 1193942, Control_c, 0, 64, 71
1, 1193952, Note_on_c, 0, 78, 28
1, 1193957, Control_c, 0, 64, 70
1, 1193964, Note_on_c, 0, 75, 27
1, 1193972, Control_c, 0, 64, 69
1, 1193978, Note_on_c, 0, 71, 30
1, 1193985, Note_on_c, 0, 47, 31
1, 1193987, Control_c, 0, 64, 68
1, 1194002, Control_c, 0, 64, 66
1, 1194017, Control_c, 0, 64, 63
1, 1194031, Control_c, 0, 64, 50
1, 1194046, Control_c, 0, 64, 0
1, 1194150, Control_c, 0, 64, 43
1, 1194165, Control_c, 0, 64, 61
1, 1194180, Control_c, 0, 64, 65
1, 1194194, Control_c, 0, 64, 65
1, 1194209, Control_c, 0, 64, 66
1, 1194224, Control_c, 0, 64, 69
1, 1194239, Control_c, 0, 64, 71
1, 1194254, Control_c, 0, 64, 75
1, 1194268, Control_c, 0, 64, 78
1, 1194283, Control_c, 0, 64, 81
1, 1194306, Control_c, 0, 64, 83
1, 1194320, Control_c, 0, 64, 87
1, 1194335, Control_c, 0, 64, 89
1, 1194350, Control_c, 0, 64, 90
1, 1194365, Control_c, 0, 64, 91
1, 1194380, Control_c, 0, 64, 92
1, 1194394, Control_c, 0, 64, 93
1, 1194409, Control_c, 0, 64, 95
1, 1194424, Control_c, 0, 64, 96
1, 1194439, Control_c, 0, 64, 97
1, 1194454, Control_c, 0, 64, 97
1, 1194470, Control_c, 0, 64, 98
1, 1194637, Note_on_c, 0, 35, 20
1, 1194799, Note_off_c, 0, 71, 42
1, 1194842, Note_off_c, 0, 78, 35
1, 1194852, Note_off_c, 0, 47, 38
1, 1194882, Note_off_c, 0, 35, 38
1, 1194932, Note_off_c, 0, 75, 35
1, 1195263, Control_c, 0, 64, 97
1, 1195278, Control_c, 0, 64, 97
1, 1195293, Control_c, 0, 64, 96
1, 1195308, Control_c, 0, 64, 95
1, 1195322, Control_c, 0, 64, 95
1, 1195337, Control_c, 0, 64, 94
1, 1195352, Control_c, 0, 64, 93
1, 1195367, Control_c, 0, 64, 91
1, 1195382, Control_c, 0, 64, 89
1, 1195397, Control_c, 0, 64, 86
1, 1195412, Control_c, 0, 64, 83
1, 1195426, Control_c, 0, 64, 79
1, 1195441, Control_c, 0, 64, 77
1, 1195456, Control_c, 0, 64, 74
1, 1195471, Control_c, 0, 64, 71
1, 1195486, Control_c, 0, 64, 68
1, 1195501, Control_c, 0, 64, 65
1, 1195506, Note_on_c, 0, 78, 42
1, 1195515, Control_c, 0, 64, 61
1, 1195530, Control_c, 0, 64, 55
1, 1195545, Control_c, 0, 64, 44
1, 1195554, Note_off_c, 0, 78, 56
1, 1195559, Control_c, 0, 64, 18
1, 1195574, Control_c, 0, 64, 0
1, 1195719, Note_on_c, 0, 80, 49
1, 1195765, Note_off_c, 0, 80, 57
1, 1195890, Note_on_c, 0, 82, 59
1, 1195949, Note_off_c, 0, 82, 49
1, 1196155, Note_on_c, 0, 83, 55
1, 1196184, Note_on_c, 0, 56, 28
1, 1196257, Note_off_c, 0, 56, 55
1, 1196655, Note_on_c, 0, 68, 27
1, 1196658, Note_on_c, 0, 64, 32
1, 1196672, Note_on_c, 0, 59, 29
1, 1196718, Note_off_c, 0, 83, 59
1, 1196851, Note_on_c, 0, 83, 43
1, 1196879, Note_off_c, 0, 83, 54
1, 1196901, Note_off_c, 0, 64, 54
1, 1196907, Note_off_c, 0, 68, 54
1, 1196951, Note_off_c, 0, 59, 57
1, 1196977, Note_on_c, 0, 82, 53
1, 1197019, Note_off_c, 0, 82, 60
1, 1197113, Note_on_c, 0, 80, 57
1, 1197154, Note_off_c, 0, 80, 58
1, 1197316, Note_on_c, 0, 78, 52
1, 1197334, Note_on_c, 0, 47, 41
1, 1197412, Note_off_c, 0, 47, 64
1, 1197676, Note_on_c, 0, 66, 48
1, 1197682, Note_on_c, 0, 63, 37
1, 1197686, Note_on_c, 0, 59, 37
1, 1197697, Note_off_c, 0, 78, 64
1, 1197803, Note_on_c, 0, 78, 66
1, 1197841, Note_off_c, 0, 66, 64
1, 1197866, Note_off_c, 0, 78, 61
1, 1197870, Note_off_c, 0, 63, 57
1, 1197900, Note_off_c, 0, 59, 61
1, 1197931, Note_on_c, 0, 76, 62
1, 1197976, Note_off_c, 0, 76, 56
1, 1198040, Note_on_c, 0, 75, 70
1, 1198103, Note_off_c, 0, 75, 60
1, 1198202, Note_on_c, 0, 80, 63
1, 1198208, Note_on_c, 0, 73, 63
1, 1198216, Note_on_c, 0, 46, 48
1, 1198278, Note_off_c, 0, 46, 61
1, 1198515, Note_on_c, 0, 64, 41
1, 1198516, Note_on_c, 0, 61, 41
1, 1198518, Note_on_c, 0, 54, 43
1, 1198542, Note_off_c, 0, 73, 56
1, 1198621, Note_on_c, 0, 74, 55
1, 1198688, Note_off_c, 0, 74, 56
1, 1198714, Note_off_c, 0, 61, 58
1, 1198735, Note_off_c, 0, 64, 57
1, 1198747, Note_on_c, 0, 75, 53
1, 1198759, Note_off_c, 0, 54, 62
1, 1198797, Note_off_c, 0, 75, 63
1, 1198872, Note_on_c, 0, 76, 55
1, 1198925, Note_off_c, 0, 76, 60
1, 1199032, Note_on_c, 0, 75, 49
1, 1199036, Note_on_c, 0, 78, 56
1, 1199061, Note_on_c, 0, 47, 37
1, 1199086, Note_off_c, 0, 80, 62
1, 1199140, Control_c, 0, 64, 17
1, 1199149, Note_off_c, 0, 47, 63
1, 1199155, Control_c, 0, 64, 60
1, 1199170, Control_c, 0, 64, 67
1, 1199184, Control_c, 0, 64, 71
1, 1199199, Control_c, 0, 64, 75
1, 1199214, Control_c, 0, 64, 77
1, 1199228, Control_c, 0, 64, 78
1, 1199243, Control_c, 0, 64, 79
1, 1199348, Control_c, 0, 64, 78
1, 1199378, Control_c, 0, 64, 77
1, 1199393, Control_c, 0, 64, 76
1, 1199394, Note_off_c, 0, 75, 62
1, 1199400, Note_on_c, 0, 59, 38
1, 1199403, Note_on_c, 0, 63, 42
1, 1199407, Control_c, 0, 64, 75
1, 1199409, Note_on_c, 0, 54, 43
1, 1199422, Control_c, 0, 64, 73
1, 1199437, Control_c, 0, 64, 71
1, 1199452, Control_c, 0, 64, 69
1, 1199467, Control_c, 0, 64, 67
1, 1199481, Control_c, 0, 64, 65
1, 1199496, Control_c, 0, 64, 60
1, 1199511, Control_c, 0, 64, 32
1, 1199522, Note_on_c, 0, 75, 66
1, 1199533, Control_c, 0, 64, 0
1, 1199593, Control_c, 0, 64, 17
1, 1199607, Control_c, 0, 64, 51
1, 1199622, Control_c, 0, 64, 60
1, 1199637, Control_c, 0, 64, 63
1, 1199650, Note_off_c, 0, 63, 61
1, 1199652, Control_c, 0, 64, 64
1, 1199657, Note_on_c, 0, 73, 68
1, 1199666, Control_c, 0, 64, 64
1, 1199681, Control_c, 0, 64, 66
1, 1199686, Note_off_c, 0, 59, 54
1, 1199696, Control_c, 0, 64, 68
1, 1199711, Control_c, 0, 64, 71
1, 1199726, Control_c, 0, 64, 73
1, 1199740, Control_c, 0, 64, 75
1, 1199755, Control_c, 0, 64, 77
1, 1199763, Note_off_c, 0, 54, 59
1, 1199770, Control_c, 0, 64, 79
1, 1199780, Note_on_c, 0, 71, 72
1, 1199785, Control_c, 0, 64, 80
1, 1199798, Note_off_c, 0, 78, 58
1, 1199800, Control_c, 0, 64, 81
1, 1199814, Control_c, 0, 64, 81
1, 1199828, Note_off_c, 0, 73, 61
1, 1199829, Note_off_c, 0, 75, 61
1, 1199948, Control_c, 0, 64, 81
1, 1199963, Control_c, 0, 64, 80
1, 1199978, Control_c, 0, 64, 78
1, 1199993, Control_c, 0, 64, 75
1, 1200007, Control_c, 0, 64, 73
1, 1200022, Control_c, 0, 64, 70
1, 1200026, Note_on_c, 0, 78, 66
1, 1200034, Note_on_c, 0, 70, 63
1, 1200037, Control_c, 0, 64, 69
1, 1200053, Control_c, 0, 64, 67
1, 1200068, Control_c, 0, 64, 66
1, 1200070, Note_off_c, 0, 71, 58
1, 1200082, Control_c, 0, 64, 64
1, 1200087, Note_on_c, 0, 37, 30
1, 1200097, Control_c, 0, 64, 62
1, 1200112, Control_c, 0, 64, 53
1, 1200127, Control_c, 0, 64, 0
1, 1200245, Control_c, 0, 64, 54
1, 1200260, Control_c, 0, 64, 64
1, 1200282, Control_c, 0, 64, 66
1, 1200297, Control_c, 0, 64, 67
1, 1200312, Control_c, 0, 64, 69
1, 1200327, Control_c, 0, 64, 71
1, 1200342, Control_c, 0, 64, 73
1, 1200356, Control_c, 0, 64, 74
1, 1200371, Control_c, 0, 64, 75
1, 1200378, Note_off_c, 0, 78, 63
1, 1200381, Note_on_c, 0, 76, 70
1, 1200385, Note_off_c, 0, 70, 58
1, 1200389, Note_on_c, 0, 68, 62
1, 1200401, Control_c, 0, 64, 75
1, 1200430, Control_c, 0, 64, 76
1, 1200437, Note_on_c, 0, 49, 37
1, 1200445, Control_c, 0, 64, 76
1, 1200460, Control_c, 0, 64, 77
1, 1200480, Note_off_c, 0, 76, 57
1, 1200489, Control_c, 0, 64, 77
1, 1200519, Note_off_c, 0, 68, 61
1, 1200622, Note_off_c, 0, 37, 45
1, 1200629, Note_on_c, 0, 76, 61
1, 1200630, Note_on_c, 0, 68, 64
1, 1200701, Note_off_c, 0, 49, 38
1, 1200741, Control_c, 0, 64, 77
1, 1200756, Control_c, 0, 64, 76
1, 1200771, Control_c, 0, 64, 75
1, 1200786, Control_c, 0, 64, 74
1, 1200801, Control_c, 0, 64, 72
1, 1200815, Control_c, 0, 64, 71
1, 1200830, Control_c, 0, 64, 69
1, 1200845, Control_c, 0, 64, 68
1, 1200861, Control_c, 0, 64, 67
1, 1200876, Control_c, 0, 64, 65
1, 1200881, Note_off_c, 0, 76, 58
1, 1200885, Note_off_c, 0, 68, 61
1, 1200890, Control_c, 0, 64, 62
1, 1200895, Note_on_c, 0, 75, 59
1, 1200902, Note_on_c, 0, 67, 50
1, 1200905, Control_c, 0, 64, 47
1, 1200920, Note_on_c, 0, 39, 32
1, 1200920, Control_c, 0, 64, 0
1, 1201009, Control_c, 0, 64, 54
1, 1201031, Control_c, 0, 64, 63
1, 1201045, Control_c, 0, 64, 65
1, 1201060, Control_c, 0, 64, 65
1, 1201075, Control_c, 0, 64, 66
1, 1201104, Control_c, 0, 64, 66
1, 1201121, Note_off_c, 0, 75, 63
1, 1201186, Note_on_c, 0, 51, 33
1, 1201265, Note_on_c, 0, 75, 34
1, 1201298, Note_off_c, 0, 75, 48
1, 1201320, Note_on_c, 0, 76, 49
1, 1201364, Note_off_c, 0, 76, 58
1, 1201371, Note_on_c, 0, 75, 59
1, 1201385, Control_c, 0, 64, 66
1, 1201430, Control_c, 0, 64, 65
1, 1201435, Note_off_c, 0, 75, 62
1, 1201475, Control_c, 0, 64, 65
1, 1201479, Note_on_c, 0, 74, 61
1, 1201511, Note_off_c, 0, 39, 56
1, 1201519, Control_c, 0, 64, 64
1, 1201531, Note_off_c, 0, 67, 61
1, 1201561, Note_off_c, 0, 51, 42
1, 1201578, Control_c, 0, 64, 64
1, 1201579, Note_off_c, 0, 74, 36
1, 1201606, Note_on_c, 0, 75, 51
1, 1201623, Control_c, 0, 64, 63
1, 1201637, Control_c, 0, 64, 63
1, 1201654, Control_c, 0, 64, 62
1, 1201668, Control_c, 0, 64, 60
1, 1201674, Note_off_c, 0, 75, 52
1, 1201683, Control_c, 0, 64, 58
1, 1201698, Control_c, 0, 64, 58
1, 1201713, Control_c, 0, 64, 57
1, 1201727, Control_c, 0, 64, 56
1, 1201742, Control_c, 0, 64, 55
1, 1201757, Control_c, 0, 64, 52
1, 1201779, Control_c, 0, 64, 42
1, 1201787, Note_on_c, 0, 78, 54
1, 1201795, Control_c, 0, 64, 0
1, 1201796, Note_on_c, 0, 68, 41
1, 1201817, Note_on_c, 0, 37, 35
1, 1201898, Control_c, 0, 64, 8
1, 1201913, Control_c, 0, 64, 48
1, 1201928, Control_c, 0, 64, 57
1, 1201943, Control_c, 0, 64, 60
1, 1201958, Control_c, 0, 64, 60
1, 1201973, Control_c, 0, 64, 62
1, 1201979, Note_on_c, 0, 76, 51
1, 1201987, Control_c, 0, 64, 63
1, 1201989, Note_off_c, 0, 78, 55
1, 1202002, Control_c, 0, 64, 65
1, 1202016, Note_off_c, 0, 68, 56
1, 1202017, Control_c, 0, 64, 66
1, 1202047, Control_c, 0, 64, 64
1, 1202059, Note_off_c, 0, 76, 53
1, 1202061, Control_c, 0, 64, 59
1, 1202076, Control_c, 0, 64, 49
1, 1202091, Control_c, 0, 64, 35
1, 1202106, Note_on_c, 0, 49, 39
1, 1202106, Note_on_c, 0, 75, 57
1, 1202106, Control_c, 0, 64, 35
1, 1202113, Note_on_c, 0, 68, 49
1, 1202121, Control_c, 0, 64, 44
1, 1202135, Control_c, 0, 64, 52
1, 1202150, Control_c, 0, 64, 58
1, 1202165, Control_c, 0, 64, 62
1, 1202180, Control_c, 0, 64, 63
1, 1202195, Control_c, 0, 64, 63
1, 1202209, Control_c, 0, 64, 58
1, 1202224, Control_c, 0, 64, 44
1, 1202239, Control_c, 0, 64, 12
1, 1202241, Note_on_c, 0, 76, 55
1, 1202249, Note_off_c, 0, 75, 56
1, 1202253, Control_c, 0, 64, 0
1, 1202268, Control_c, 0, 64, 32
1, 1202282, Note_off_c, 0, 68, 36
1, 1202283, Control_c, 0, 64, 49
1, 1202298, Control_c, 0, 64, 59
1, 1202313, Control_c, 0, 64, 63
1, 1202327, Control_c, 0, 64, 65
1, 1202339, Note_off_c, 0, 76, 51
1, 1202342, Control_c, 0, 64, 65
1, 1202357, Control_c, 0, 64, 66
1, 1202366, Note_on_c, 0, 78, 53
1, 1202378, Note_on_c, 0, 68, 45
1, 1202419, Note_off_c, 0, 37, 51
1, 1202476, Note_off_c, 0, 78, 53
1, 1202497, Note_on_c, 0, 76, 47
1, 1202508, Note_off_c, 0, 49, 36
1, 1202544, Control_c, 0, 64, 65
1, 1202558, Control_c, 0, 64, 65
1, 1202588, Control_c, 0, 64, 64
1, 1202603, Control_c, 0, 64, 64
1, 1202618, Control_c, 0, 64, 63
1, 1202619, Note_off_c, 0, 68, 45
1, 1202647, Control_c, 0, 64, 62
1, 1202662, Control_c, 0, 64, 62
1, 1202676, Control_c, 0, 64, 60
1, 1202691, Control_c, 0, 64, 59
1, 1202706, Control_c, 0, 64, 57
1, 1202721, Control_c, 0, 64, 55
1, 1202724, Note_off_c, 0, 76, 34
1, 1202736, Control_c, 0, 64, 53
1, 1202739, Note_on_c, 0, 75, 40
1, 1202747, Note_on_c, 0, 39, 26
1, 1202748, Note_on_c, 0, 67, 34
1, 1202751, Control_c, 0, 64, 50
1, 1202765, Control_c, 0, 64, 39
1, 1202780, Control_c, 0, 64, 0
1, 1202914, Control_c, 0, 64, 29
1, 1202929, Control_c, 0, 64, 55
1, 1202944, Control_c, 0, 64, 59
1, 1202958, Control_c, 0, 64, 61
1, 1202973, Control_c, 0, 64, 62
1, 1202988, Control_c, 0, 64, 63
1, 1203002, Control_c, 0, 64, 65
1, 1203017, Control_c, 0, 64, 67
1, 1203032, Control_c, 0, 64, 70
1, 1203047, Control_c, 0, 64, 72
1, 1203061, Note_on_c, 0, 51, 28
1, 1203062, Control_c, 0, 64, 74
1, 1203076, Control_c, 0, 64, 76
1, 1203091, Control_c, 0, 64, 77
1, 1203106, Control_c, 0, 64, 79
1, 1203121, Control_c, 0, 64, 81
1, 1203122, Note_off_c, 0, 75, 48
1, 1203136, Control_c, 0, 64, 83
1, 1203146, Note_off_c, 0, 67, 40
1, 1203150, Control_c, 0, 64, 85
1, 1203165, Control_c, 0, 64, 85
1, 1203180, Control_c, 0, 64, 86
1, 1203195, Control_c, 0, 64, 86
1, 1203198, Note_off_c, 0, 39, 53
1, 1203225, Control_c, 0, 64, 87
1, 1203292, Note_off_c, 0, 51, 41
1, 1203308, Note_on_c, 0, 75, 61
1, 1203460, Note_off_c, 0, 75, 60
1, 1203574, Control_c, 0, 64, 86
1, 1203588, Control_c, 0, 64, 85
1, 1203601, Note_on_c, 0, 75, 69
1, 1203603, Control_c, 0, 64, 78
1, 1203618, Control_c, 0, 64, 69
1, 1203633, Control_c, 0, 64, 60
1, 1203648, Control_c, 0, 64, 18
1, 1203663, Control_c, 0, 64, 0
1, 1203707, Control_c, 0, 64, 41
1, 1203722, Control_c, 0, 64, 57
1, 1203737, Control_c, 0, 64, 63
1, 1203752, Control_c, 0, 64, 66
1, 1203767, Control_c, 0, 64, 69
1, 1203781, Control_c, 0, 64, 73
1, 1203796, Control_c, 0, 64, 77
1, 1203811, Control_c, 0, 64, 81
1, 1203825, Control_c, 0, 64, 84
1, 1203840, Control_c, 0, 64, 86
1, 1203855, Control_c, 0, 64, 87
1, 1203870, Control_c, 0, 64, 88
1, 1203885, Control_c, 0, 64, 90
1, 1203899, Control_c, 0, 64, 91
1, 1203914, Control_c, 0, 64, 92
1, 1203929, Control_c, 0, 64, 92
1, 1203994, Note_off_c, 0, 75, 54
1, 1204204, Control_c, 0, 64, 91
1, 1204219, Control_c, 0, 64, 89
1, 1204234, Control_c, 0, 64, 81
1, 1204235, Note_on_c, 0, 75, 70
1, 1204248, Control_c, 0, 64, 71
1, 1204263, Control_c, 0, 64, 61
1, 1204278, Control_c, 0, 64, 43
1, 1204293, Control_c, 0, 64, 31
1, 1204308, Control_c, 0, 64, 44
1, 1204322, Control_c, 0, 64, 54
1, 1204337, Control_c, 0, 64, 60
1, 1204352, Control_c, 0, 64, 65
1, 1204367, Control_c, 0, 64, 68
1, 1204382, Control_c, 0, 64, 73
1, 1204396, Control_c, 0, 64, 77
1, 1204411, Control_c, 0, 64, 81
1, 1204426, Control_c, 0, 64, 83
1, 1204441, Control_c, 0, 64, 86
1, 1204456, Control_c, 0, 64, 88
1, 1204471, Control_c, 0, 64, 89
1, 1204485, Control_c, 0, 64, 90
1, 1204500, Note_off_c, 0, 75, 55
1, 1204515, Control_c, 0, 64, 90
1, 1204804, Control_c, 0, 64, 90
1, 1204819, Control_c, 0, 64, 89
1, 1204834, Control_c, 0, 64, 89
1, 1204850, Control_c, 0, 64, 88
1, 1204865, Control_c, 0, 64, 87
1, 1204879, Control_c, 0, 64, 86
1, 1204894, Control_c, 0, 64, 85
1, 1204909, Control_c, 0, 64, 84
1, 1204924, Control_c, 0, 64, 83
1, 1204939, Control_c, 0, 64, 82
1, 1204953, Control_c, 0, 64, 80
1, 1204967, Note_on_c, 0, 75, 35
1, 1204968, Control_c, 0, 64, 79
1, 1204983, Control_c, 0, 64, 78
1, 1204998, Control_c, 0, 64, 76
1, 1205013, Control_c, 0, 64, 74
1, 1205028, Control_c, 0, 64, 71
1, 1205043, Control_c, 0, 64, 69
1, 1205058, Control_c, 0, 64, 65
1, 1205072, Control_c, 0, 64, 58
1, 1205087, Control_c, 0, 64, 23
1, 1205102, Control_c, 0, 64, 0
1, 1205161, Control_c, 0, 64, 40
1, 1205176, Control_c, 0, 64, 55
1, 1205191, Control_c, 0, 64, 61
1, 1205206, Control_c, 0, 64, 64
1, 1205220, Control_c, 0, 64, 65
1, 1205235, Control_c, 0, 64, 68
1, 1205250, Control_c, 0, 64, 70
1, 1205265, Control_c, 0, 64, 73
1, 1205279, Control_c, 0, 64, 75
1, 1205294, Control_c, 0, 64, 77
1, 1205309, Control_c, 0, 64, 78
1, 1205324, Control_c, 0, 64, 79
1, 1205339, Control_c, 0, 64, 81
1, 1205353, Control_c, 0, 64, 82
1, 1205368, Control_c, 0, 64, 83
1, 1205383, Control_c, 0, 64, 84
1, 1205398, Control_c, 0, 64, 85
1, 1205413, Control_c, 0, 64, 86
1, 1205427, Control_c, 0, 64, 87
1, 1205457, Control_c, 0, 64, 87
1, 1205487, Control_c, 0, 64, 88
1, 1206121, Note_on_c, 0, 63, 19
1, 1206372, Note_on_c, 0, 68, 35
1, 1206426, Note_off_c, 0, 63, 41
1, 1206566, Note_on_c, 0, 70, 45
1, 1206589, Note_off_c, 0, 75, 39
1, 1206661, Note_off_c, 0, 68, 39
1, 1206761, Control_c, 0, 64, 87
1, 1206835, Control_c, 0, 64, 87
1, 1206894, Control_c, 0, 64, 86
1, 1206912, Note_off_c, 0, 70, 36
1, 1206924, Control_c, 0, 64, 86
1, 1206927, Note_on_c, 0, 75, 39
1, 1206942, Note_on_c, 0, 72, 36
1, 1206955, Note_on_c, 0, 56, 24
1, 1206959, Note_on_c, 0, 63, 26
1, 1206983, Control_c, 0, 64, 85
1, 1207032, Note_off_c, 0, 72, 37
1, 1207035, Control_c, 0, 64, 85
1, 1207079, Control_c, 0, 64, 84
1, 1207124, Control_c, 0, 64, 84
1, 1207258, Control_c, 0, 64, 83
1, 1207259, Note_on_c, 0, 72, 17
1, 1207292, Note_on_c, 0, 73, 45
1, 1207328, Note_on_c, 0, 51, 31
1, 1207330, Note_off_c, 0, 72, 0
1, 1207335, Note_off_c, 0, 73, 46
1, 1207350, Note_on_c, 0, 72, 25
1, 1207447, Note_off_c, 0, 56, 27
1, 1207463, Note_off_c, 0, 72, 55
1, 1207486, Note_on_c, 0, 70, 40
1, 1207554, Control_c, 0, 64, 83
1, 1207606, Note_off_c, 0, 63, 40
1, 1207619, Note_off_c, 0, 70, 43
1, 1207621, Note_on_c, 0, 72, 45
1, 1207690, Note_off_c, 0, 75, 41
1, 1207702, Control_c, 0, 64, 82
1, 1207747, Control_c, 0, 64, 82
1, 1207812, Control_c, 0, 64, 81
1, 1207827, Control_c, 0, 64, 81
1, 1207842, Control_c, 0, 64, 80
1, 1207857, Control_c, 0, 64, 80
1, 1207872, Control_c, 0, 64, 79
1, 1207887, Control_c, 0, 64, 78
1, 1207902, Control_c, 0, 64, 77
1, 1207916, Control_c, 0, 64, 74
1, 1207931, Control_c, 0, 64, 69
1, 1207946, Control_c, 0, 64, 62
1, 1207948, Note_off_c, 0, 72, 52
1, 1207953, Note_on_c, 0, 75, 41
1, 1207961, Note_on_c, 0, 73, 37
1, 1207961, Control_c, 0, 64, 44
1, 1207966, Note_on_c, 0, 63, 29
1, 1207976, Control_c, 0, 64, 31
1, 1207979, Note_on_c, 0, 58, 29
1, 1207990, Control_c, 0, 64, 49
1, 1207997, Note_off_c, 0, 51, 36
1, 1208005, Control_c, 0, 64, 58
1, 1208020, Control_c, 0, 64, 63
1, 1208035, Control_c, 0, 64, 67
1, 1208051, Control_c, 0, 64, 72
1, 1208066, Control_c, 0, 64, 79
1, 1208080, Control_c, 0, 64, 85
1, 1208095, Control_c, 0, 64, 86
1, 1208110, Control_c, 0, 64, 87
1, 1208140, Control_c, 0, 64, 88
1, 1208155, Control_c, 0, 64, 88
1, 1208199, Control_c, 0, 64, 89
1, 1208238, Note_off_c, 0, 75, 51
1, 1208298, Note_on_c, 0, 51, 20
1, 1208310, Note_off_c, 0, 73, 41
1, 1208379, Note_on_c, 0, 75, 46
1, 1208500, Note_on_c, 0, 73, 46
1, 1208531, Note_off_c, 0, 58, 41
1, 1208534, Note_off_c, 0, 63, 42
1, 1208566, Note_off_c, 0, 75, 29
1, 1208609, Note_on_c, 0, 72, 37
1, 1208638, Note_off_c, 0, 72, 53
1, 1208652, Note_off_c, 0, 73, 36
1, 1208695, Control_c, 0, 64, 88
1, 1208710, Control_c, 0, 64, 79
1, 1208725, Control_c, 0, 64, 68
1, 1208726, Note_on_c, 0, 72, 49
1, 1208736, Note_on_c, 0, 75, 40
1, 1208740, Control_c, 0, 64, 58
1, 1208755, Control_c, 0, 64, 49
1, 1208769, Control_c, 0, 64, 56
1, 1208773, Note_on_c, 0, 63, 26
1, 1208778, Note_off_c, 0, 72, 60
1, 1208784, Control_c, 0, 64, 62
1, 1208794, Note_off_c, 0, 51, 38
1, 1208799, Note_on_c, 0, 55, 28
1, 1208799, Control_c, 0, 64, 64
1, 1208806, Note_on_c, 0, 70, 46
1, 1208814, Control_c, 0, 64, 66
1, 1208829, Control_c, 0, 64, 70
1, 1208844, Control_c, 0, 64, 72
1, 1208857, Note_off_c, 0, 70, 55
1, 1208859, Control_c, 0, 64, 73
1, 1208972, Note_on_c, 0, 70, 47
1, 1209011, Note_off_c, 0, 70, 47
1, 1209018, Note_on_c, 0, 72, 49
1, 1209076, Note_on_c, 0, 70, 43
1, 1209094, Note_on_c, 0, 51, 25
1, 1209109, Note_off_c, 0, 72, 34
1, 1209189, Note_off_c, 0, 70, 52
1, 1209204, Note_off_c, 0, 55, 34
1, 1209208, Note_on_c, 0, 68, 38
1, 1209320, Note_off_c, 0, 63, 41
1, 1209345, Note_on_c, 0, 70, 43
1, 1209385, Control_c, 0, 64, 72
1, 1209386, Note_off_c, 0, 68, 39
1, 1209401, Note_off_c, 0, 75, 36
1, 1209444, Control_c, 0, 64, 72
1, 1209474, Control_c, 0, 64, 71
1, 1209489, Control_c, 0, 64, 71
1, 1209504, Control_c, 0, 64, 70
1, 1209518, Control_c, 0, 64, 70
1, 1209533, Control_c, 0, 64, 69
1, 1209548, Control_c, 0, 64, 69
1, 1209562, Control_c, 0, 64, 68
1, 1209577, Control_c, 0, 64, 67
1, 1209592, Control_c, 0, 64, 64
1, 1209607, Control_c, 0, 64, 56
1, 1209619, Note_on_c, 0, 75, 47
1, 1209622, Control_c, 0, 64, 25
1, 1209627, Note_on_c, 0, 72, 44
1, 1209638, Control_c, 0, 64, 0
1, 1209648, Note_off_c, 0, 70, 37
1, 1209649, Note_on_c, 0, 63, 28
1, 1209651, Note_on_c, 0, 56, 28
1, 1209653, Control_c, 0, 64, 20
1, 1209667, Control_c, 0, 64, 44
1, 1209670, Note_off_c, 0, 51, 37
1, 1209682, Control_c, 0, 64, 56
1, 1209697, Control_c, 0, 64, 63
1, 1209712, Control_c, 0, 64, 67
1, 1209727, Control_c, 0, 64, 71
1, 1209741, Control_c, 0, 64, 74
1, 1209756, Control_c, 0, 64, 77
1, 1209771, Control_c, 0, 64, 79
1, 1209773, Note_off_c, 0, 72, 64
1, 1209815, Control_c, 0, 64, 79
1, 1209825, Note_off_c, 0, 63, 43
1, 1209922, Note_on_c, 0, 51, 31
1, 1210001, Note_off_c, 0, 56, 38
1, 1210050, Note_on_c, 0, 63, 32
1, 1210187, Note_on_c, 0, 68, 42
1, 1210230, Note_off_c, 0, 63, 40
1, 1210267, Note_off_c, 0, 75, 35
1, 1210288, Note_on_c, 0, 70, 46
1, 1210356, Control_c, 0, 64, 79
1, 1210359, Note_off_c, 0, 68, 33
1, 1210385, Control_c, 0, 64, 78
1, 1210400, Control_c, 0, 64, 78
1, 1210415, Control_c, 0, 64, 76
1, 1210417, Note_off_c, 0, 70, 31
1, 1210430, Control_c, 0, 64, 71
1, 1210446, Control_c, 0, 64, 64
1, 1210461, Control_c, 0, 64, 52
1, 1210462, Note_on_c, 0, 75, 37
1, 1210462, Note_on_c, 0, 72, 37
1, 1210476, Control_c, 0, 64, 38
1, 1210477, Note_on_c, 0, 63, 27
1, 1210490, Control_c, 0, 64, 45
1, 1210492, Note_on_c, 0, 56, 28
1, 1210505, Control_c, 0, 64, 54
1, 1210520, Control_c, 0, 64, 60
1, 1210522, Note_off_c, 0, 51, 39
1, 1210535, Control_c, 0, 64, 64
1, 1210550, Control_c, 0, 64, 67
1, 1210564, Control_c, 0, 64, 72
1, 1210579, Control_c, 0, 64, 78
1, 1210594, Control_c, 0, 64, 79
1, 1210608, Control_c, 0, 64, 80
1, 1210638, Control_c, 0, 64, 80
1, 1210650, Note_off_c, 0, 63, 43
1, 1210766, Note_on_c, 0, 51, 29
1, 1210838, Note_off_c, 0, 56, 36
1, 1210889, Note_off_c, 0, 72, 36
1, 1210906, Note_on_c, 0, 63, 31
1, 1211038, Note_on_c, 0, 68, 38
1, 1211113, Note_off_c, 0, 63, 31
1, 1211134, Note_off_c, 0, 75, 34
1, 1211156, Note_on_c, 0, 70, 44
1, 1211209, Control_c, 0, 64, 80
1, 1211239, Control_c, 0, 64, 79
1, 1211254, Control_c, 0, 64, 79
1, 1211263, Note_off_c, 0, 68, 40
1, 1211284, Control_c, 0, 64, 78
1, 1211299, Control_c, 0, 64, 77
1, 1211313, Control_c, 0, 64, 77
1, 1211328, Control_c, 0, 64, 76
1, 1211343, Control_c, 0, 64, 73
1, 1211358, Control_c, 0, 64, 69
1, 1211365, Note_on_c, 0, 71, 43
1, 1211373, Control_c, 0, 64, 63
1, 1211380, Note_on_c, 0, 75, 38
1, 1211387, Control_c, 0, 64, 51
1, 1211398, Note_off_c, 0, 70, 31
1, 1211399, Note_on_c, 0, 63, 26
1, 1211402, Control_c, 0, 64, 23
1, 1211407, Note_on_c, 0, 56, 19
1, 1211417, Control_c, 0, 64, 18
1, 1211431, Control_c, 0, 64, 33
1, 1211446, Control_c, 0, 64, 47
1, 1211459, Note_off_c, 0, 51, 41
1, 1211461, Control_c, 0, 64, 56
1, 1211476, Control_c, 0, 64, 62
1, 1211491, Control_c, 0, 64, 65
1, 1211513, Control_c, 0, 64, 67
1, 1211528, Control_c, 0, 64, 70
1, 1211543, Control_c, 0, 64, 73
1, 1211558, Control_c, 0, 64, 75
1, 1211572, Control_c, 0, 64, 76
1, 1211574, Note_off_c, 0, 71, 61
1, 1211587, Control_c, 0, 64, 78
1, 1211602, Control_c, 0, 64, 80
1, 1211617, Control_c, 0, 64, 82
1, 1211632, Control_c, 0, 64, 84
1, 1211646, Control_c, 0, 64, 86
1, 1211661, Control_c, 0, 64, 87
1, 1211676, Control_c, 0, 64, 88
1, 1211691, Control_c, 0, 64, 89
1, 1211706, Control_c, 0, 64, 90
1, 1211714, Note_on_c, 0, 51, 32
1, 1211720, Control_c, 0, 64, 93
1, 1211735, Control_c, 0, 64, 95
1, 1211750, Control_c, 0, 64, 96
1, 1211765, Control_c, 0, 64, 97
1, 1211780, Control_c, 0, 64, 97
1, 1211795, Control_c, 0, 64, 98
1, 1211810, Control_c, 0, 64, 99
1, 1211824, Control_c, 0, 64, 99
1, 1211830, Note_on_c, 0, 66, 47
1, 1211869, Control_c, 0, 64, 100
1, 1211955, Note_off_c, 0, 63, 33
1, 1211970, Note_on_c, 0, 71, 52
1, 1212006, Note_off_c, 0, 56, 37
1, 1212018, Note_off_c, 0, 75, 39
1, 1212101, Note_on_c, 0, 73, 60
1, 1212176, Note_off_c, 0, 66, 43
1, 1212240, Control_c, 0, 64, 99
1, 1212262, Control_c, 0, 64, 99
1, 1212277, Control_c, 0, 64, 96
1, 1212292, Control_c, 0, 64, 94
1, 1212307, Control_c, 0, 64, 91
1, 1212322, Control_c, 0, 64, 89
1, 1212331, Note_on_c, 0, 78, 56
1, 1212336, Control_c, 0, 64, 86
1, 1212343, Note_on_c, 0, 75, 47
1, 1212348, Note_off_c, 0, 71, 34
1, 1212351, Control_c, 0, 64, 82
1, 1212359, Note_on_c, 0, 63, 36
1, 1212366, Control_c, 0, 64, 75
1, 1212381, Control_c, 0, 64, 66
1, 1212385, Note_on_c, 0, 59, 34
1, 1212395, Control_c, 0, 64, 48
1, 1212410, Control_c, 0, 64, 0
1, 1212421, Note_off_c, 0, 73, 38
1, 1212440, Control_c, 0, 64, 39
1, 1212455, Control_c, 0, 64, 55
1, 1212468, Note_off_c, 0, 51, 42
1, 1212469, Control_c, 0, 64, 63
1, 1212484, Control_c, 0, 64, 69
1, 1212499, Control_c, 0, 64, 77
1, 1212514, Control_c, 0, 64, 86
1, 1212529, Control_c, 0, 64, 91
1, 1212543, Control_c, 0, 64, 95
1, 1212558, Control_c, 0, 64, 100
1, 1212573, Control_c, 0, 64, 102
1, 1212617, Control_c, 0, 64, 103
1, 1212699, Note_on_c, 0, 51, 25
1, 1212767, Note_off_c, 0, 59, 39
1, 1212783, Note_off_c, 0, 63, 43
1, 1212790, Note_on_c, 0, 66, 36
1, 1212930, Note_on_c, 0, 71, 38
1, 1212953, Note_off_c, 0, 75, 33
1, 1212989, Note_off_c, 0, 78, 50
1, 1213041, Control_c, 0, 64, 102
1, 1213062, Note_on_c, 0, 73, 37
1, 1213100, Control_c, 0, 64, 102
1, 1213115, Control_c, 0, 64, 101
1, 1213130, Control_c, 0, 64, 100
1, 1213145, Control_c, 0, 64, 99
1, 1213159, Control_c, 0, 64, 97
1, 1213164, Note_off_c, 0, 66, 35
1, 1213174, Control_c, 0, 64, 94
1, 1213187, Note_on_c, 0, 78, 41
1, 1213189, Control_c, 0, 64, 86
1, 1213204, Control_c, 0, 64, 75
1, 1213208, Note_on_c, 0, 59, 30
1, 1213208, Note_on_c, 0, 75, 36
1, 1213218, Control_c, 0, 64, 65
1, 1213219, Note_off_c, 0, 71, 32
1, 1213223, Note_off_c, 0, 51, 41
1, 1213233, Control_c, 0, 64, 53
1, 1213239, Note_on_c, 0, 54, 15
1, 1213248, Control_c, 0, 64, 46
1, 1213263, Control_c, 0, 64, 54
1, 1213276, Note_off_c, 0, 73, 40
1, 1213278, Control_c, 0, 64, 60
1, 1213292, Control_c, 0, 64, 64
1, 1213307, Control_c, 0, 64, 67
1, 1213322, Control_c, 0, 64, 71
1, 1213336, Control_c, 0, 64, 75
1, 1213351, Control_c, 0, 64, 78
1, 1213366, Control_c, 0, 64, 79
1, 1213381, Control_c, 0, 64, 79
1, 1213410, Control_c, 0, 64, 80
1, 1213493, Note_on_c, 0, 47, 31
1, 1213579, Note_off_c, 0, 59, 35
1, 1213608, Note_off_c, 0, 54, 37
1, 1213610, Note_on_c, 0, 66, 30
1, 1213649, Control_c, 0, 64, 80
1, 1213739, Note_on_c, 0, 71, 33
1, 1213788, Note_off_c, 0, 75, 28
1, 1213860, Note_on_c, 0, 73, 39
1, 1213864, Note_off_c, 0, 78, 34
1, 1213893, Note_off_c, 0, 71, 41
1, 1213967, Control_c, 0, 64, 80
1, 1213979, Note_off_c, 0, 66, 35
1, 1213997, Control_c, 0, 64, 79
1, 1214012, Control_c, 0, 64, 78
1, 1214027, Control_c, 0, 64, 78
1, 1214041, Control_c, 0, 64, 77
1, 1214054, Note_off_c, 0, 47, 41
1, 1214056, Control_c, 0, 64, 73
1, 1214057, Note_on_c, 0, 78, 37
1, 1214060, Note_on_c, 0, 71, 32
1, 1214069, Note_off_c, 0, 73, 36
1, 1214071, Control_c, 0, 64, 66
1, 1214075, Note_on_c, 0, 75, 33
1, 1214086, Control_c, 0, 64, 56
1, 1214093, Note_on_c, 0, 54, 35
1, 1214101, Control_c, 0, 64, 0
1, 1214145, Control_c, 0, 64, 43
1, 1214159, Control_c, 0, 64, 57
1, 1214174, Control_c, 0, 64, 64
1, 1214189, Control_c, 0, 64, 67
1, 1214204, Control_c, 0, 64, 69
1, 1214219, Control_c, 0, 64, 71
1, 1214233, Control_c, 0, 64, 72
1, 1214248, Control_c, 0, 64, 72
1, 1214263, Control_c, 0, 64, 73
1, 1214358, Note_off_c, 0, 71, 42
1, 1214421, Note_off_c, 0, 75, 35
1, 1214425, Note_on_c, 0, 73, 35
1, 1214449, Note_on_c, 0, 70, 30
1, 1214470, Note_on_c, 0, 42, 19
1, 1214486, Control_c, 0, 64, 73
1, 1214515, Note_off_c, 0, 73, 51
1, 1214524, Control_c, 0, 64, 74
1, 1214553, Control_c, 0, 64, 74
1, 1214582, Note_off_c, 0, 70, 40
1, 1214593, Note_off_c, 0, 78, 38
1, 1214598, Note_off_c, 0, 54, 40
1, 1214656, Control_c, 0, 64, 75
1, 1214789, Note_on_c, 0, 78, 37
1, 1214814, Note_on_c, 0, 70, 24
1, 1214815, Note_on_c, 0, 73, 21
1, 1214894, Control_c, 0, 64, 75
1, 1214917, Note_off_c, 0, 78, 40
1, 1214954, Note_off_c, 0, 73, 38
1, 1214976, Note_off_c, 0, 70, 40
1, 1215019, Note_off_c, 0, 42, 32
1, 1215273, Control_c, 0, 64, 75
1, 1215288, Control_c, 0, 64, 74
1, 1215302, Note_on_c, 0, 78, 22
1, 1215303, Control_c, 0, 64, 74
1, 1215318, Control_c, 0, 64, 73
1, 1215324, Note_on_c, 0, 71, 24
1, 1215327, Note_on_c, 0, 75, 19
1, 1215333, Note_on_c, 0, 47, 20
1, 1215333, Control_c, 0, 64, 72
1, 1215348, Control_c, 0, 64, 71
1, 1215362, Control_c, 0, 64, 66
1, 1215377, Control_c, 0, 64, 60
1, 1215392, Control_c, 0, 64, 33
1, 1215406, Control_c, 0, 64, 0
1, 1215480, Control_c, 0, 64, 46
1, 1215495, Control_c, 0, 64, 61
1, 1215510, Control_c, 0, 64, 66
1, 1215525, Control_c, 0, 64, 68
1, 1215540, Control_c, 0, 64, 70
1, 1215554, Control_c, 0, 64, 76
1, 1215569, Control_c, 0, 64, 82
1, 1215584, Control_c, 0, 64, 88
1, 1215599, Control_c, 0, 64, 93
1, 1215613, Control_c, 0, 64, 99
1, 1215628, Control_c, 0, 64, 105
1, 1215643, Control_c, 0, 64, 109
1, 1215658, Control_c, 0, 64, 111
1, 1215673, Control_c, 0, 64, 113
1, 1215688, Control_c, 0, 64, 114
1, 1215703, Control_c, 0, 64, 116
1, 1215717, Control_c, 0, 64, 118
1, 1215732, Control_c, 0, 64, 119
1, 1215747, Control_c, 0, 64, 121
1, 1215762, Control_c, 0, 64, 125
1, 1215777, Control_c, 0, 64, 127
1, 1215978, Note_on_c, 0, 35, 16
1, 1216330, Note_off_c, 0, 47, 36
1, 1216542, Note_off_c, 0, 35, 35
1, 1216577, Note_off_c, 0, 71, 33
1, 1216581, Note_off_c, 0, 78, 40
1, 1216621, Note_off_c, 0, 75, 42
1, 1216799, Control_c, 0, 64, 121
1, 1216814, Control_c, 0, 64, 114
1, 1216829, Control_c, 0, 64, 107
1, 1216844, Control_c, 0, 64, 102
1, 1216859, Control_c, 0, 64, 95
1, 1216874, Control_c, 0, 64, 88
1, 1216889, Control_c, 0, 64, 78
1, 1216904, Control_c, 0, 64, 69
1, 1216919, Control_c, 0, 64, 59
1, 1216919, Control_c, 0, 67, 107
1, 1216933, Control_c, 0, 64, 0
1, 1216933, Control_c, 0, 67, 76
1, 1216948, Control_c, 0, 67, 45
1, 1216963, Control_c, 0, 67, 17
1, 1216977, Control_c, 0, 67, 0
1, 1216987, Note_on_c, 0, 66, 89
1, 1217002, Note_on_c, 0, 54, 78
1, 1217066, Control_c, 0, 64, 45
1, 1217073, Note_off_c, 0, 66, 68
1, 1217081, Control_c, 0, 64, 66
1, 1217096, Control_c, 0, 64, 72
1, 1217111, Control_c, 0, 64, 78
1, 1217125, Note_off_c, 0, 54, 57
1, 1217125, Control_c, 0, 64, 83
1, 1217140, Control_c, 0, 64, 88
1, 1217155, Control_c, 0, 64, 93
1, 1217170, Control_c, 0, 64, 98
1, 1217184, Control_c, 0, 64, 102
1, 1217199, Control_c, 0, 64, 105
1, 1217214, Control_c, 0, 64, 108
1, 1217229, Control_c, 0, 64, 113
1, 1217244, Control_c, 0, 64, 121
1, 1217259, Control_c, 0, 64, 127
1, 1217318, Control_c, 0, 64, 89
1, 1217333, Control_c, 0, 64, 62
1, 1217339, Note_on_c, 0, 74, 91
1, 1217345, Note_on_c, 0, 47, 73
1, 1217345, Note_on_c, 0, 62, 87
1, 1217346, Note_on_c, 0, 66, 88
1, 1217348, Note_on_c, 0, 54, 67
1, 1217348, Control_c, 0, 64, 0
1, 1217351, Note_on_c, 0, 59, 75
1, 1217392, Control_c, 0, 64, 51
1, 1217407, Control_c, 0, 64, 70
1, 1217422, Control_c, 0, 64, 109
1, 1217437, Control_c, 0, 64, 127
1, 1217441, Note_off_c, 0, 62, 61
1, 1217451, Note_off_c, 0, 66, 64
1, 1217453, Note_off_c, 0, 59, 61
1, 1217463, Note_off_c, 0, 74, 63
1, 1217464, Note_off_c, 0, 47, 63
1, 1217468, Note_off_c, 0, 54, 61
1, 1217637, Note_on_c, 0, 74, 84
1, 1217640, Note_on_c, 0, 62, 80
1, 1217643, Note_on_c, 0, 54, 77
1, 1217647, Note_on_c, 0, 66, 73
1, 1217649, Note_on_c, 0, 47, 72
1, 1217649, Note_on_c, 0, 59, 69
1, 1217652, Control_c, 0, 64, 75
1, 1217667, Control_c, 0, 64, 47
1, 1217668, Note_off_c, 0, 47, 66
1, 1217668, Note_off_c, 0, 66, 71
1, 1217670, Note_off_c, 0, 59, 62
1, 1217675, Note_off_c, 0, 54, 63
1, 1217675, Note_off_c, 0, 62, 57
1, 1217682, Control_c, 0, 64, 0
1, 1217683, Note_off_c, 0, 74, 66
1, 1217741, Note_on_c, 0, 54, 85
1, 1217745, Note_on_c, 0, 74, 81
1, 1217745, Note_on_c, 0, 59, 72
1, 1217750, Note_on_c, 0, 47, 68
1, 1217750, Note_on_c, 0, 62, 86
1, 1217751, Note_on_c, 0, 66, 80
1, 1217774, Note_off_c, 0, 59, 63
1, 1217778, Note_off_c, 0, 62, 62
1, 1217779, Note_off_c, 0, 66, 65
1, 1217780, Note_off_c, 0, 47, 66
1, 1217785, Note_off_c, 0, 54, 60
1, 1217791, Note_off_c, 0, 74, 63
1, 1217837, Note_on_c, 0, 74, 76
1, 1217842, Note_on_c, 0, 54, 71
1, 1217843, Note_on_c, 0, 62, 79
1, 1217843, Note_on_c, 0, 66, 77
1, 1217846, Note_on_c, 0, 47, 75
1, 1217847, Note_on_c, 0, 59, 70
1, 1217871, Note_off_c, 0, 59, 66
1, 1217872, Note_off_c, 0, 62, 62
1, 1217873, Note_off_c, 0, 66, 66
1, 1217873, Note_off_c, 0, 54, 65
1, 1217878, Note_off_c, 0, 47, 64
1, 1217879, Note_off_c, 0, 74, 61
1, 1217924, Note_on_c, 0, 74, 72
1, 1217929, Note_on_c, 0, 66, 75
1, 1217932, Note_on_c, 0, 62, 76
1, 1217936, Note_on_c, 0, 59, 71
1, 1217940, Note_on_c, 0, 54, 64
1, 1217941, Note_on_c, 0, 47, 66
1, 1217965, Note_off_c, 0, 62, 59
1, 1217970, Note_off_c, 0, 59, 54
1, 1217976, Note_off_c, 0, 47, 66
1, 1217977, Note_off_c, 0, 54, 63
1, 1217977, Note_off_c, 0, 66, 66
1, 1217977, Note_off_c, 0, 74, 65
1, 1218055, Note_on_c, 0, 71, 82
1, 1218068, Note_on_c, 0, 66, 72
1, 1218074, Note_on_c, 0, 62, 54
1, 1218077, Note_on_c, 0, 59, 41
1, 1218081, Note_on_c, 0, 50, 52
1, 1218085, Note_on_c, 0, 54, 40
1, 1218200, Note_off_c, 0, 62, 53
1, 1218218, Note_off_c, 0, 66, 60
1, 1218224, Note_off_c, 0, 54, 61
1, 1218224, Note_off_c, 0, 59, 56
1, 1218229, Note_off_c, 0, 71, 57
1, 1218235, Note_off_c, 0, 50, 63
1, 1218299, Note_on_c, 0, 71, 82
1, 1218308, Note_on_c, 0, 50, 61
1, 1218311, Note_on_c, 0, 62, 77
1, 1218313, Note_on_c, 0, 66, 80
1, 1218314, Note_on_c, 0, 54, 54
1, 1218315, Note_on_c, 0, 59, 67
1, 1218437, Note_off_c, 0, 62, 56
1, 1218445, Note_off_c, 0, 71, 57
1, 1218450, Note_off_c, 0, 66, 62
1, 1218452, Note_off_c, 0, 59, 60
1, 1218459, Note_off_c, 0, 54, 62
1, 1218463, Note_off_c, 0, 50, 63
1, 1218518, Note_on_c, 0, 66, 82
1, 1218518, Note_on_c, 0, 71, 87
1, 1218525, Note_on_c, 0, 62, 85
1, 1218530, Note_on_c, 0, 59, 78
1, 1218531, Note_on_c, 0, 54, 70
1, 1218534, Note_on_c, 0, 50, 69
1, 1218582, Note_off_c, 0, 71, 64
1, 1218584, Note_off_c, 0, 66, 65
1, 1218616, Note_off_c, 0, 62, 60
1, 1218621, Note_off_c, 0, 59, 60
1, 1218648, Note_off_c, 0, 54, 63
1, 1218654, Note_off_c, 0, 50, 63
1, 1218736, Note_on_c, 0, 73, 90
1, 1218738, Note_on_c, 0, 66, 75
1, 1218745, Note_on_c, 0, 54, 88
1, 1218746, Note_on_c, 0, 58, 79
1, 1218749, Note_on_c, 0, 42, 83
1, 1218756, Control_c, 0, 64, 63
1, 1218757, Note_on_c, 0, 64, 51
1, 1218771, Control_c, 0, 64, 127
1, 1218773, Note_off_c, 0, 54, 63
1, 1218779, Note_off_c, 0, 42, 67
1, 1218782, Note_off_c, 0, 64, 59
1, 1218787, Note_off_c, 0, 58, 60
1, 1218800, Note_off_c, 0, 66, 65
1, 1218841, Note_off_c, 0, 73, 60
1, 1218981, Note_on_c, 0, 73, 81
1, 1218984, Note_on_c, 0, 64, 72
1, 1218985, Note_on_c, 0, 66, 71
1, 1218991, Note_on_c, 0, 54, 71
1, 1218991, Note_on_c, 0, 58, 77
1, 1219001, Control_c, 0, 64, 110
1, 1219015, Control_c, 0, 64, 60
1, 1219019, Note_off_c, 0, 66, 63
1, 1219020, Note_off_c, 0, 58, 68
1, 1219022, Note_off_c, 0, 64, 64
1, 1219025, Note_off_c, 0, 54, 65
1, 1219029, Control_c, 0, 64, 0
1, 1219030, Note_off_c, 0, 73, 58
1, 1219085, Note_on_c, 0, 73, 75
1, 1219086, Note_on_c, 0, 54, 82
1, 1219088, Note_on_c, 0, 58, 85
1, 1219089, Note_on_c, 0, 64, 78
1, 1219097, Note_on_c, 0, 66, 74
1, 1219113, Note_off_c, 0, 58, 63
1, 1219119, Note_off_c, 0, 66, 69
1, 1219124, Note_off_c, 0, 54, 60
1, 1219128, Note_off_c, 0, 64, 59
1, 1219131, Note_off_c, 0, 73, 63
1, 1219184, Note_on_c, 0, 54, 72
1, 1219184, Note_on_c, 0, 64, 76
1, 1219184, Note_on_c, 0, 73, 73
1, 1219187, Note_on_c, 0, 66, 86
1, 1219187, Note_on_c, 0, 58, 76
1, 1219208, Note_off_c, 0, 58, 70
1, 1219215, Note_off_c, 0, 64, 62
1, 1219216, Note_off_c, 0, 54, 63
1, 1219216, Note_off_c, 0, 73, 62
1, 1219218, Note_off_c, 0, 66, 63
1, 1219277, Note_on_c, 0, 54, 81
1, 1219277, Note_on_c, 0, 58, 73
1, 1219280, Note_on_c, 0, 73, 79
1, 1219282, Note_on_c, 0, 64, 78
1, 1219288, Note_on_c, 0, 66, 65
1, 1219312, Note_off_c, 0, 66, 68
1, 1219314, Note_off_c, 0, 58, 60
1, 1219330, Note_off_c, 0, 54, 60
1, 1219333, Note_off_c, 0, 64, 62
1, 1219334, Note_off_c, 0, 73, 60
1, 1219432, Note_on_c, 0, 66, 90
1, 1219435, Note_on_c, 0, 64, 90
1, 1219438, Note_on_c, 0, 49, 79
1, 1219438, Note_on_c, 0, 58, 85
1, 1219446, Note_on_c, 0, 54, 75
1, 1219534, Control_c, 0, 64, 55
1, 1219549, Control_c, 0, 64, 64
1, 1219564, Control_c, 0, 64, 69
1, 1219578, Control_c, 0, 64, 74
1, 1219593, Control_c, 0, 64, 80
1, 1219608, Control_c, 0, 64, 90
1, 1219623, Control_c, 0, 64, 101
1, 1219638, Control_c, 0, 64, 125
1, 1219652, Control_c, 0, 64, 127
1, 1220038, Note_off_c, 0, 58, 62
1, 1220038, Note_off_c, 0, 64, 61
1, 1220043, Note_off_c, 0, 54, 60
1, 1220057, Note_off_c, 0, 66, 61
1, 1220067, Note_off_c, 0, 49, 61
1, 1220150, Control_c, 0, 64, 71
1, 1220165, Control_c, 0, 64, 0
1, 1220239, Control_c, 0, 64, 31
1, 1220254, Control_c, 0, 64, 70
1, 1220260, Note_on_c, 0, 62, 88
1, 1220260, Note_on_c, 0, 71, 83
1, 1220261, Note_on_c, 0, 66, 82
1, 1220264, Note_on_c, 0, 59, 87
1, 1220266, Note_on_c, 0, 54, 81
1, 1220266, Note_on_c, 0, 47, 77
1, 1220266, Note_on_c, 0, 50, 77
1, 1220269, Control_c, 0, 64, 127
1, 1220311, Note_off_c, 0, 71, 61
1, 1220313, Note_off_c, 0, 59, 62
1, 1220314, Note_off_c, 0, 54, 61
1, 1220318, Note_off_c, 0, 62, 62
1, 1220326, Note_off_c, 0, 50, 61
1, 1220342, Note_off_c, 0, 47, 63
1, 1220355, Note_off_c, 0, 66, 65
1, 1220515, Note_on_c, 0, 58, 79
1, 1220517, Note_on_c, 0, 70, 77
1, 1220524, Note_on_c, 0, 50, 75
1, 1220526, Note_on_c, 0, 54, 74
1, 1220527, Note_on_c, 0, 47, 73
1, 1220527, Control_c, 0, 64, 75
1, 1220542, Control_c, 0, 64, 25
1, 1220549, Note_off_c, 0, 58, 62
1, 1220550, Note_off_c, 0, 54, 68
1, 1220555, Note_off_c, 0, 50, 66
1, 1220556, Note_off_c, 0, 47, 66
1, 1220557, Control_c, 0, 64, 0
1, 1220561, Note_off_c, 0, 70, 58
1, 1220617, Note_on_c, 0, 59, 83
1, 1220618, Note_on_c, 0, 47, 79
1, 1220619, Note_on_c, 0, 54, 77
1, 1220620, Note_on_c, 0, 71, 75
1, 1220621, Note_on_c, 0, 50, 82
1, 1220643, Note_off_c, 0, 59, 64
1, 1220645, Note_off_c, 0, 54, 67
1, 1220647, Note_off_c, 0, 50, 67
1, 1220648, Note_off_c, 0, 71, 65
1, 1220653, Note_off_c, 0, 47, 63
1, 1220712, Note_on_c, 0, 54, 77
1, 1220713, Note_on_c, 0, 71, 73
1, 1220713, Note_on_c, 0, 59, 81
1, 1220718, Note_on_c, 0, 50, 75
1, 1220719, Note_on_c, 0, 47, 68
1, 1220732, Note_off_c, 0, 59, 72
1, 1220735, Note_off_c, 0, 71, 69
1, 1220736, Note_off_c, 0, 54, 65
1, 1220741, Note_off_c, 0, 50, 66
1, 1220747, Note_off_c, 0, 47, 65
1, 1220800, Note_on_c, 0, 73, 92
1, 1220803, Note_on_c, 0, 54, 66
1, 1220803, Note_on_c, 0, 61, 80
1, 1220806, Note_on_c, 0, 50, 74
1, 1220812, Note_on_c, 0, 47, 74
1, 1220829, Note_off_c, 0, 54, 64
1, 1220829, Note_off_c, 0, 61, 64
1, 1220834, Note_off_c, 0, 50, 65
1, 1220838, Note_off_c, 0, 47, 67
1, 1220846, Note_off_c, 0, 73, 64
1, 1220892, Note_on_c, 0, 62, 90
1, 1220895, Note_on_c, 0, 55, 88
1, 1220896, Note_on_c, 0, 47, 79
1, 1220896, Note_on_c, 0, 74, 88
1, 1220900, Note_on_c, 0, 50, 72
1, 1220901, Note_on_c, 0, 43, 78
1, 1220924, Note_off_c, 0, 50, 66
1, 1220931, Note_off_c, 0, 47, 66
1, 1220932, Note_off_c, 0, 55, 56
1, 1220932, Note_off_c, 0, 62, 64
1, 1220934, Note_off_c, 0, 74, 64
1, 1220951, Note_off_c, 0, 43, 56
1, 1221117, Note_on_c, 0, 74, 89
1, 1221119, Note_on_c, 0, 55, 79
1, 1221120, Note_on_c, 0, 62, 89
1, 1221121, Note_on_c, 0, 47, 72
1, 1221128, Note_on_c, 0, 50, 63
1, 1221132, Note_on_c, 0, 43, 59
1, 1221153, Note_off_c, 0, 55, 60
1, 1221159, Note_off_c, 0, 50, 62
1, 1221163, Note_off_c, 0, 62, 63
1, 1221163, Note_off_c, 0, 74, 67
1, 1221165, Note_off_c, 0, 43, 60
1, 1221181, Note_off_c, 0, 47, 63
1, 1221336, Note_on_c, 0, 74, 84
1, 1221336, Note_on_c, 0, 55, 82
1, 1221337, Note_on_c, 0, 47, 69
1, 1221337, Note_on_c, 0, 62, 86
1, 1221343, Note_on_c, 0, 50, 64
1, 1221346, Note_on_c, 0, 43, 72
1, 1221369, Note_off_c, 0, 50, 66
1, 1221378, Note_off_c, 0, 55, 60
1, 1221383, Note_off_c, 0, 62, 58
1, 1221385, Note_off_c, 0, 74, 65
1, 1221394, Note_off_c, 0, 43, 60
1, 1221396, Note_off_c, 0, 47, 64
1, 1221539, Note_on_c, 0, 76, 87
1, 1221543, Note_on_c, 0, 64, 85
1, 1221545, Note_on_c, 0, 49, 87
1, 1221547, Note_on_c, 0, 52, 94
1, 1221548, Note_on_c, 0, 67, 75
1, 1221549, Note_on_c, 0, 70, 75
1, 1221550, Note_on_c, 0, 46, 80
1, 1221554, Note_on_c, 0, 40, 74
1, 1221572, Note_off_c, 0, 52, 66
1, 1221581, Note_off_c, 0, 46, 64
1, 1221582, Note_off_c, 0, 67, 59
1, 1221587, Note_off_c, 0, 64, 66
1, 1221590, Note_off_c, 0, 40, 65
1, 1221590, Note_off_c, 0, 49, 60
1, 1221599, Note_off_c, 0, 70, 59
1, 1221611, Note_off_c, 0, 76, 66
1, 1221769, Note_on_c, 0, 49, 93
1, 1221769, Note_on_c, 0, 76, 94
1, 1221769, Note_on_c, 0, 64, 97
1, 1221770, Note_on_c, 0, 52, 95
1, 1221771, Note_on_c, 0, 70, 86
1, 1221772, Note_on_c, 0, 67, 80
1, 1221775, Note_on_c, 0, 46, 84
1, 1221775, Note_on_c, 0, 40, 84
1, 1221805, Note_off_c, 0, 52, 53
1, 1221806, Note_off_c, 0, 46, 62
1, 1221811, Note_off_c, 0, 64, 62
1, 1221813, Note_off_c, 0, 67, 55
1, 1221816, Note_off_c, 0, 49, 61
1, 1221822, Note_off_c, 0, 40, 59
1, 1221833, Note_off_c, 0, 76, 62
1, 1221835, Note_off_c, 0, 70, 58
1, 1222019, Note_on_c, 0, 70, 84
1, 1222019, Note_on_c, 0, 49, 95
1, 1222019, Note_on_c, 0, 64, 94
1, 1222021, Note_on_c, 0, 76, 91
1, 1222022, Note_on_c, 0, 67, 82
1, 1222022, Note_on_c, 0, 52, 99
1, 1222024, Note_on_c, 0, 46, 88
1, 1222028, Note_on_c, 0, 40, 85
1, 1222043, Note_off_c, 0, 52, 70
1, 1222061, Note_off_c, 0, 67, 57
1, 1222062, Note_off_c, 0, 49, 63
1, 1222076, Note_off_c, 0, 70, 62
1, 1222081, Note_off_c, 0, 64, 57
1, 1222091, Note_off_c, 0, 46, 58
1, 1222106, Note_off_c, 0, 40, 62
1, 1222116, Note_off_c, 0, 76, 62
1, 1222351, Control_c, 0, 64, 34
1, 1222366, Control_c, 0, 64, 50
1, 1222380, Control_c, 0, 64, 63
1, 1222395, Control_c, 0, 64, 80
1, 1222402, Note_on_c, 0, 79, 99
1, 1222405, Note_on_c, 0, 76, 80
1, 1222407, Note_on_c, 0, 67, 91
1, 1222410, Note_on_c, 0, 69, 93
1, 1222410, Control_c, 0, 64, 127
1, 1222412, Note_on_c, 0, 49, 99
1, 1222413, Note_on_c, 0, 37, 85
1, 1222421, Note_on_c, 0, 45, 81
1, 1222445, Note_off_c, 0, 37, 68
1, 1222457, Note_off_c, 0, 49, 65
1, 1222471, Note_off_c, 0, 45, 63
1, 1222747, Note_off_c, 0, 67, 57
1, 1222794, Note_off_c, 0, 69, 61
1, 1222840, Note_off_c, 0, 79, 44
1, 1222945, Note_off_c, 0, 76, 58
1, 1223382, Control_c, 0, 64, 78
1, 1223397, Control_c, 0, 64, 37
1, 1223411, Control_c, 0, 64, 0
1, 1223525, Note_on_c, 0, 90, 70
1, 1223548, Note_on_c, 0, 78, 50
1, 1223562, Note_on_c, 0, 50, 40
1, 1223612, Control_c, 0, 64, 34
1, 1223626, Control_c, 0, 64, 59
1, 1223641, Note_off_c, 0, 78, 56
1, 1223641, Control_c, 0, 64, 65
1, 1223656, Control_c, 0, 64, 70
1, 1223671, Control_c, 0, 64, 77
1, 1223685, Control_c, 0, 64, 82
1, 1223688, Note_off_c, 0, 90, 62
1, 1223700, Control_c, 0, 64, 83
1, 1223802, Note_on_c, 0, 90, 82
1, 1223814, Note_on_c, 0, 57, 50
1, 1223823, Note_on_c, 0, 78, 59
1, 1223882, Note_off_c, 0, 78, 47
1, 1223909, Note_off_c, 0, 90, 62
1, 1223967, Control_c, 0, 64, 83
1, 1223982, Control_c, 0, 64, 82
1, 1223997, Control_c, 0, 64, 81
1, 1224012, Control_c, 0, 64, 80
1, 1224022, Note_on_c, 0, 90, 74
1, 1224028, Control_c, 0, 64, 78
1, 1224037, Note_on_c, 0, 58, 48
1, 1224042, Control_c, 0, 64, 77
1, 1224046, Note_on_c, 0, 78, 51
1, 1224057, Control_c, 0, 64, 74
1, 1224072, Control_c, 0, 64, 72
1, 1224085, Note_off_c, 0, 50, 38
1, 1224087, Control_c, 0, 64, 71
1, 1224101, Control_c, 0, 64, 69
1, 1224108, Note_off_c, 0, 57, 58
1, 1224116, Control_c, 0, 64, 68
1, 1224131, Control_c, 0, 64, 67
1, 1224146, Control_c, 0, 64, 65
1, 1224160, Control_c, 0, 64, 58
1, 1224175, Control_c, 0, 64, 0
1, 1224257, Control_c, 0, 67, 8
1, 1224272, Control_c, 0, 64, 34
1, 1224272, Control_c, 0, 67, 20
1, 1224287, Note_off_c, 0, 58, 55
1, 1224287, Control_c, 0, 64, 62
1, 1224287, Control_c, 0, 67, 29
1, 1224301, Control_c, 0, 64, 68
1, 1224301, Control_c, 0, 67, 34
1, 1224305, Note_on_c, 0, 59, 50
1, 1224316, Control_c, 0, 64, 69
1, 1224316, Control_c, 0, 67, 38
1, 1224326, Note_on_c, 0, 55, 47
1, 1224331, Control_c, 0, 67, 43
1, 1224346, Control_c, 0, 67, 47
1, 1224361, Control_c, 0, 67, 54
1, 1224364, Note_off_c, 0, 78, 63
1, 1224366, Note_off_c, 0, 90, 63
1, 1224375, Control_c, 0, 67, 59
1, 1224390, Control_c, 0, 67, 64
1, 1224405, Control_c, 0, 64, 68
1, 1224405, Control_c, 0, 67, 69
1, 1224420, Control_c, 0, 64, 68
1, 1224420, Control_c, 0, 67, 74
1, 1224435, Control_c, 0, 64, 67
1, 1224435, Control_c, 0, 67, 77
1, 1224449, Control_c, 0, 64, 67
1, 1224449, Control_c, 0, 67, 80
1, 1224464, Control_c, 0, 64, 66
1, 1224464, Control_c, 0, 67, 82
1, 1224479, Control_c, 0, 64, 66
1, 1224479, Control_c, 0, 67, 83
1, 1224493, Control_c, 0, 64, 65
1, 1224493, Control_c, 0, 67, 85
1, 1224505, Note_off_c, 0, 59, 62
1, 1224508, Control_c, 0, 64, 65
1, 1224508, Control_c, 0, 67, 87
1, 1224520, Note_on_c, 0, 88, 68
1, 1224523, Control_c, 0, 64, 64
1, 1224523, Control_c, 0, 67, 90
1, 1224527, Note_on_c, 0, 76, 64
1, 1224538, Control_c, 0, 64, 64
1, 1224538, Control_c, 0, 67, 93
1, 1224541, Note_on_c, 0, 64, 56
1, 1224550, Note_off_c, 0, 88, 64
1, 1224553, Control_c, 0, 64, 63
1, 1224553, Control_c, 0, 67, 96
1, 1224556, Note_off_c, 0, 76, 67
1, 1224568, Control_c, 0, 64, 63
1, 1224568, Control_c, 0, 67, 99
1, 1224583, Control_c, 0, 67, 102
1, 1224598, Control_c, 0, 67, 105
1, 1224613, Control_c, 0, 64, 62
1, 1224613, Control_c, 0, 67, 108
1, 1224627, Control_c, 0, 64, 62
1, 1224627, Control_c, 0, 67, 112
1, 1224632, Note_on_c, 0, 86, 66
1, 1224634, Note_on_c, 0, 74, 65
1, 1224642, Control_c, 0, 64, 61
1, 1224642, Control_c, 0, 67, 115
1, 1224657, Note_off_c, 0, 86, 66
1, 1224657, Control_c, 0, 64, 61
1, 1224657, Control_c, 0, 67, 119
1, 1224658, Note_off_c, 0, 74, 69
1, 1224672, Control_c, 0, 67, 121
1, 1224686, Control_c, 0, 67, 124
1, 1224701, Control_c, 0, 64, 60
1, 1224701, Control_c, 0, 67, 127
1, 1224709, Note_off_c, 0, 64, 63
1, 1224716, Control_c, 0, 67, 127
1, 1224724, Note_on_c, 0, 86, 68
1, 1224731, Control_c, 0, 64, 60
1, 1224732, Note_on_c, 0, 67, 53
1, 1224737, Note_on_c, 0, 74, 61
1, 1224746, Control_c, 0, 64, 59
1, 1224747, Note_off_c, 0, 86, 66
1, 1224760, Control_c, 0, 64, 58
1, 1224762, Note_off_c, 0, 74, 69
1, 1224790, Control_c, 0, 64, 58
1, 1224805, Control_c, 0, 64, 57
1, 1224821, Control_c, 0, 64, 56
1, 1224836, Control_c, 0, 64, 54
1, 1224849, Note_on_c, 0, 71, 44
1, 1224850, Note_on_c, 0, 83, 37
1, 1224851, Control_c, 0, 64, 51
1, 1224865, Control_c, 0, 64, 46
1, 1224873, Note_off_c, 0, 71, 58
1, 1224878, Note_off_c, 0, 83, 34
1, 1224880, Control_c, 0, 64, 42
1, 1224895, Control_c, 0, 64, 36
1, 1224909, Control_c, 0, 64, 28
1, 1224924, Control_c, 0, 64, 22
1, 1224939, Control_c, 0, 64, 18
1, 1224941, Note_off_c, 0, 67, 38
1, 1224943, Note_on_c, 0, 81, 66
1, 1224952, Note_on_c, 0, 57, 47
1, 1224952, Note_on_c, 0, 69, 64
1, 1224954, Control_c, 0, 64, 12
1, 1224967, Note_off_c, 0, 55, 37
1, 1224969, Control_c, 0, 64, 0
1, 1224979, Note_off_c, 0, 69, 67
1, 1224993, Note_off_c, 0, 81, 56
1, 1225150, Note_on_c, 0, 81, 74
1, 1225156, Note_on_c, 0, 69, 68
1, 1225166, Note_on_c, 0, 61, 51
1, 1225176, Note_off_c, 0, 81, 63
1, 1225182, Note_off_c, 0, 69, 71
1, 1225245, Note_on_c, 0, 83, 77
1, 1225254, Note_on_c, 0, 71, 69
1, 1225272, Note_off_c, 0, 83, 63
1, 1225275, Note_off_c, 0, 71, 69
1, 1225335, Note_off_c, 0, 61, 61
1, 1225358, Note_on_c, 0, 79, 76
1, 1225363, Note_on_c, 0, 64, 47
1, 1225370, Note_on_c, 0, 67, 68
1, 1225399, Note_off_c, 0, 67, 62
1, 1225402, Note_off_c, 0, 64, 58
1, 1225412, Note_off_c, 0, 79, 58
1, 1225572, Note_off_c, 0, 57, 61
1, 1225585, Note_on_c, 0, 78, 76
1, 1225606, Note_on_c, 0, 62, 42
1, 1225607, Note_on_c, 0, 66, 52
1, 1225614, Note_on_c, 0, 50, 47
1, 1225659, Note_off_c, 0, 62, 0
1, 1225659, Note_on_c, 0, 62, 6
1, 1225826, Note_off_c, 0, 62, 52
1, 1225852, Note_on_c, 0, 54, 47
1, 1225882, Note_off_c, 0, 50, 57
1, 1225897, Note_off_c, 0, 66, 62
1, 1225910, Note_off_c, 0, 78, 62
1, 1226028, Note_off_c, 0, 54, 62
1, 1226053, Note_on_c, 0, 66, 54
1, 1226063, Note_on_c, 0, 57, 40
1, 1226289, Note_on_c, 0, 73, 63
1, 1226293, Note_on_c, 0, 45, 52
1, 1226296, Note_off_c, 0, 57, 58
1, 1226298, Note_off_c, 0, 66, 61
1, 1226491, Note_on_c, 0, 66, 53
1, 1226494, Note_on_c, 0, 57, 53
1, 1226518, Note_off_c, 0, 57, 60
1, 1226518, Note_off_c, 0, 66, 65
1, 1226574, Note_on_c, 0, 67, 67
1, 1226580, Note_on_c, 0, 59, 59
1, 1226601, Note_off_c, 0, 59, 61
1, 1226636, Note_off_c, 0, 67, 58
1, 1226687, Note_on_c, 0, 64, 59
1, 1226700, Note_on_c, 0, 55, 61
1, 1226732, Note_off_c, 0, 55, 65
1, 1226757, Note_off_c, 0, 64, 61
1, 1226893, Note_off_c, 0, 73, 37
1, 1226917, Note_on_c, 0, 74, 53
1, 1226935, Note_on_c, 0, 54, 47
1, 1226943, Note_on_c, 0, 62, 36
1, 1226948, Note_off_c, 0, 45, 39
1, 1226948, Control_c, 0, 64, 56
1, 1226953, Note_on_c, 0, 50, 38
1, 1226962, Control_c, 0, 64, 65
1, 1226977, Control_c, 0, 64, 69
1, 1226985, Note_off_c, 0, 50, 60
1, 1226988, Note_off_c, 0, 62, 51
1, 1226992, Control_c, 0, 64, 72
1, 1227003, Note_off_c, 0, 54, 61
1, 1227007, Control_c, 0, 64, 76
1, 1227022, Control_c, 0, 64, 81
1, 1227036, Control_c, 0, 64, 83
1, 1227051, Control_c, 0, 64, 84
1, 1227066, Control_c, 0, 64, 85
1, 1227111, Control_c, 0, 67, 118
1, 1227125, Note_off_c, 0, 74, 62
1, 1227125, Control_c, 0, 64, 84
1, 1227125, Control_c, 0, 67, 107
1, 1227140, Control_c, 0, 64, 82
1, 1227140, Control_c, 0, 67, 96
1, 1227145, Note_on_c, 0, 62, 60
1, 1227155, Control_c, 0, 64, 77
1, 1227155, Control_c, 0, 67, 87
1, 1227170, Control_c, 0, 64, 71
1, 1227170, Control_c, 0, 67, 79
1, 1227185, Control_c, 0, 64, 65
1, 1227185, Control_c, 0, 67, 70
1, 1227200, Control_c, 0, 64, 60
1, 1227200, Control_c, 0, 67, 62
1, 1227215, Control_c, 0, 64, 47
1, 1227215, Control_c, 0, 67, 54
1, 1227238, Control_c, 0, 64, 33
1, 1227238, Control_c, 0, 67, 46
1, 1227253, Control_c, 0, 64, 14
1, 1227253, Control_c, 0, 67, 40
1, 1227267, Control_c, 0, 64, 0
1, 1227267, Control_c, 0, 67, 34
1, 1227282, Control_c, 0, 67, 28
1, 1227297, Control_c, 0, 67, 21
1, 1227311, Control_c, 0, 67, 15
1, 1227326, Control_c, 0, 67, 10
1, 1227341, Control_c, 0, 67, 0
1, 1227358, Note_on_c, 0, 81, 84
1, 1227389, Note_on_c, 0, 69, 53
1, 1227396, Note_on_c, 0, 66, 44
1, 1227408, Note_off_c, 0, 62, 56
1, 1227668, Note_on_c, 0, 57, 44
1, 1227726, Note_off_c, 0, 69, 62
1, 1227728, Note_off_c, 0, 66, 52
1, 1227739, Note_off_c, 0, 81, 59
1, 1227852, Note_on_c, 0, 81, 73
1, 1227859, Note_on_c, 0, 69, 59
1, 1227879, Note_off_c, 0, 69, 64
1, 1227881, Note_off_c, 0, 81, 59
1, 1227884, Note_on_c, 0, 61, 47
1, 1227949, Note_on_c, 0, 83, 71
1, 1227955, Note_on_c, 0, 71, 69
1, 1227976, Note_off_c, 0, 83, 63
1, 1227990, Note_off_c, 0, 71, 64
1, 1228067, Note_on_c, 0, 79, 79
1, 1228070, Note_off_c, 0, 61, 60
1, 1228081, Note_on_c, 0, 67, 69
1, 1228091, Note_on_c, 0, 64, 46
1, 1228146, Note_off_c, 0, 79, 61
1, 1228153, Note_off_c, 0, 67, 58
1, 1228155, Note_off_c, 0, 64, 56
1, 1228238, Control_c, 0, 67, 8
1, 1228253, Control_c, 0, 67, 14
1, 1228267, Control_c, 0, 67, 19
1, 1228282, Control_c, 0, 67, 24
1, 1228297, Control_c, 0, 67, 29
1, 1228312, Control_c, 0, 67, 32
1, 1228327, Control_c, 0, 67, 35
1, 1228331, Note_on_c, 0, 78, 70
1, 1228342, Note_off_c, 0, 57, 53
1, 1228342, Control_c, 0, 67, 38
1, 1228357, Control_c, 0, 67, 42
1, 1228362, Note_on_c, 0, 66, 47
1, 1228371, Note_on_c, 0, 62, 35
1, 1228371, Control_c, 0, 67, 46
1, 1228386, Control_c, 0, 67, 49
1, 1228391, Note_on_c, 0, 50, 38
1, 1228401, Control_c, 0, 67, 53
1, 1228416, Control_c, 0, 67, 56
1, 1228431, Control_c, 0, 67, 58
1, 1228446, Control_c, 0, 67, 61
1, 1228460, Control_c, 0, 67, 64
1, 1228475, Control_c, 0, 67, 68
1, 1228490, Control_c, 0, 67, 73
1, 1228505, Control_c, 0, 67, 78
1, 1228520, Control_c, 0, 67, 81
1, 1228534, Control_c, 0, 67, 85
1, 1228549, Control_c, 0, 67, 88
1, 1228564, Control_c, 0, 67, 90
1, 1228579, Control_c, 0, 67, 93
1, 1228594, Control_c, 0, 67, 96
1, 1228608, Control_c, 0, 67, 99
1, 1228613, Note_off_c, 0, 62, 52
1, 1228623, Control_c, 0, 67, 102
1, 1228625, Note_on_c, 0, 54, 42
1, 1228638, Control_c, 0, 67, 104
1, 1228653, Control_c, 0, 67, 107
1, 1228658, Note_off_c, 0, 66, 63
1, 1228664, Note_off_c, 0, 50, 50
1, 1228667, Control_c, 0, 67, 110
1, 1228672, Note_off_c, 0, 78, 63
1, 1228682, Control_c, 0, 67, 113
1, 1228697, Control_c, 0, 67, 117
1, 1228712, Control_c, 0, 67, 121
1, 1228727, Control_c, 0, 67, 125
1, 1228750, Control_c, 0, 67, 127
1, 1228816, Note_off_c, 0, 54, 62
1, 1228835, Note_on_c, 0, 66, 51
1, 1228847, Note_on_c, 0, 57, 42
1, 1229088, Note_on_c, 0, 45, 50
1, 1229092, Note_on_c, 0, 73, 55
1, 1229102, Note_off_c, 0, 66, 60
1, 1229116, Note_off_c, 0, 57, 52
1, 1229290, Note_on_c, 0, 66, 49
1, 1229319, Note_off_c, 0, 66, 61
1, 1229390, Note_on_c, 0, 59, 60
1, 1229397, Note_on_c, 0, 67, 56
1, 1229413, Note_off_c, 0, 59, 65
1, 1229435, Note_off_c, 0, 67, 59
1, 1229510, Note_on_c, 0, 64, 58
1, 1229533, Note_on_c, 0, 55, 49
1, 1229558, Note_off_c, 0, 55, 59
1, 1229570, Note_off_c, 0, 64, 56
1, 1229740, Note_off_c, 0, 73, 32
1, 1229787, Note_off_c, 0, 45, 43
1, 1229794, Note_on_c, 0, 74, 37
1, 1229805, Note_on_c, 0, 62, 29
1, 1229817, Note_on_c, 0, 50, 21
1, 1229820, Note_on_c, 0, 54, 23
1, 1229870, Control_c, 0, 64, 50
1, 1229885, Control_c, 0, 64, 62
1, 1229900, Control_c, 0, 64, 64
1, 1229914, Control_c, 0, 64, 66
1, 1229929, Control_c, 0, 64, 69
1, 1229944, Control_c, 0, 64, 73
1, 1229959, Control_c, 0, 64, 77
1, 1229974, Control_c, 0, 64, 78
1, 1229988, Control_c, 0, 67, 122
1, 1230003, Control_c, 0, 64, 79
1, 1230003, Control_c, 0, 67, 106
1, 1230018, Control_c, 0, 67, 92
1, 1230032, Control_c, 0, 67, 80
1, 1230047, Control_c, 0, 67, 69
1, 1230062, Control_c, 0, 67, 59
1, 1230074, Note_off_c, 0, 62, 52
1, 1230075, Note_off_c, 0, 74, 63
1, 1230077, Control_c, 0, 67, 50
1, 1230088, Note_off_c, 0, 54, 52
1, 1230092, Control_c, 0, 67, 41
1, 1230106, Control_c, 0, 64, 78
1, 1230106, Control_c, 0, 67, 31
1, 1230109, Note_off_c, 0, 50, 48
1, 1230121, Control_c, 0, 64, 75
1, 1230121, Control_c, 0, 67, 23
1, 1230136, Control_c, 0, 64, 67
1, 1230136, Control_c, 0, 67, 14
1, 1230151, Control_c, 0, 64, 51
1, 1230151, Control_c, 0, 67, 0
1, 1230166, Control_c, 0, 64, 0
1, 1230452, Note_on_c, 0, 74, 95
1, 1230452, Note_on_c, 0, 62, 96
1, 1230454, Note_on_c, 0, 50, 93
1, 1230457, Note_on_c, 0, 38, 90
1, 1230500, Control_c, 0, 64, 48
1, 1230515, Control_c, 0, 64, 64
1, 1230530, Control_c, 0, 64, 73
1, 1230545, Control_c, 0, 64, 85
1, 1230559, Control_c, 0, 64, 127
1, 1230657, Note_off_c, 0, 38, 62
1, 1230658, Note_off_c, 0, 50, 57
1, 1230666, Note_off_c, 0, 62, 58
1, 1230667, Note_off_c, 0, 74, 59
1, 1230804, Note_on_c, 0, 50, 92
1, 1230806, Note_on_c, 0, 38, 93
1, 1230806, Note_on_c, 0, 74, 89
1, 1230808, Note_on_c, 0, 62, 89
1, 1230826, Control_c, 0, 64, 104
1, 1230841, Control_c, 0, 64, 52
1, 1230855, Control_c, 0, 64, 0
1, 1230915, Control_c, 0, 64, 66
1, 1230929, Control_c, 0, 64, 87
1, 1230944, Control_c, 0, 64, 107
1, 1230959, Control_c, 0, 64, 108
1, 1230970, Note_off_c, 0, 50, 57
1, 1230982, Control_c, 0, 64, 111
1, 1230983, Note_off_c, 0, 62, 56
1, 1230984, Note_off_c, 0, 38, 63
1, 1230991, Note_off_c, 0, 74, 59
1, 1230997, Control_c, 0, 64, 113
1, 1231102, Note_on_c, 0, 74, 79
1, 1231104, Note_on_c, 0, 62, 83
1, 1231105, Note_on_c, 0, 50, 82
1, 1231109, Note_on_c, 0, 38, 82
1, 1231129, Control_c, 0, 64, 112
1, 1231131, Note_off_c, 0, 50, 63
1, 1231137, Note_off_c, 0, 38, 63
1, 1231144, Control_c, 0, 64, 111
1, 1231145, Note_off_c, 0, 74, 68
1, 1231146, Note_off_c, 0, 62, 61
1, 1231159, Control_c, 0, 64, 110
1, 1231174, Control_c, 0, 64, 107
1, 1231189, Control_c, 0, 64, 105
1, 1231205, Control_c, 0, 64, 103
1, 1231218, Note_on_c, 0, 62, 82
1, 1231218, Note_on_c, 0, 74, 80
1, 1231220, Control_c, 0, 64, 101
1, 1231221, Note_on_c, 0, 50, 82
1, 1231223, Note_on_c, 0, 38, 77
1, 1231234, Control_c, 0, 64, 99
1, 1231245, Note_off_c, 0, 50, 65
1, 1231247, Note_off_c, 0, 38, 67
1, 1231249, Control_c, 0, 64, 98
1, 1231260, Note_off_c, 0, 62, 58
1, 1231264, Note_off_c, 0, 74, 62
1, 1231264, Control_c, 0, 64, 97
1, 1231278, Control_c, 0, 64, 96
1, 1231293, Control_c, 0, 64, 95
1, 1231308, Control_c, 0, 64, 93
1, 1231318, Note_on_c, 0, 38, 71
1, 1231319, Note_on_c, 0, 74, 76
1, 1231321, Note_on_c, 0, 50, 74
1, 1231321, Note_on_c, 0, 62, 83
1, 1231323, Control_c, 0, 64, 92
1, 1231338, Control_c, 0, 64, 91
1, 1231346, Note_off_c, 0, 38, 63
1, 1231352, Note_off_c, 0, 50, 64
1, 1231353, Control_c, 0, 64, 90
1, 1231357, Note_off_c, 0, 62, 59
1, 1231360, Note_off_c, 0, 74, 62
1, 1231367, Control_c, 0, 64, 89
1, 1231382, Control_c, 0, 64, 87
1, 1231397, Control_c, 0, 64, 86
1, 1231412, Control_c, 0, 64, 85
1, 1231414, Note_on_c, 0, 74, 77
1, 1231418, Note_on_c, 0, 62, 85
1, 1231418, Note_on_c, 0, 50, 80
1, 1231419, Note_on_c, 0, 38, 79
1, 1231427, Control_c, 0, 64, 84
1, 1231442, Control_c, 0, 64, 84
1, 1231457, Control_c, 0, 64, 83
1, 1231462, Note_off_c, 0, 62, 63
1, 1231463, Note_off_c, 0, 38, 61
1, 1231463, Note_off_c, 0, 74, 65
1, 1231466, Note_off_c, 0, 50, 58
1, 1231486, Control_c, 0, 64, 83
1, 1231516, Control_c, 0, 64, 82
1, 1231531, Control_c, 0, 64, 77
1, 1231546, Control_c, 0, 64, 66
1, 1231560, Control_c, 0, 64, 0
1, 1231590, Note_on_c, 0, 74, 89
1, 1231600, Note_on_c, 0, 62, 87
1, 1231609, Note_on_c, 0, 48, 82
1, 1231609, Note_on_c, 0, 38, 83
1, 1231611, Note_on_c, 0, 72, 98
1, 1231612, Note_on_c, 0, 50, 77
1, 1231664, Control_c, 0, 64, 53
1, 1231678, Control_c, 0, 64, 65
1, 1231693, Control_c, 0, 64, 69
1, 1231708, Control_c, 0, 64, 72
1, 1231731, Control_c, 0, 64, 73
1, 1231745, Control_c, 0, 64, 74
1, 1231759, Control_c, 0, 64, 76
1, 1231761, Note_off_c, 0, 74, 53
1, 1231769, Note_off_c, 0, 48, 57
1, 1231769, Note_off_c, 0, 50, 59
1, 1231774, Control_c, 0, 64, 77
1, 1231779, Note_off_c, 0, 38, 63
1, 1231779, Note_off_c, 0, 62, 56
1, 1231786, Note_off_c, 0, 72, 61
1, 1231789, Control_c, 0, 64, 77
1, 1231886, Note_on_c, 0, 72, 83
1, 1231891, Note_on_c, 0, 62, 73
1, 1231892, Note_on_c, 0, 74, 67
1, 1231899, Note_on_c, 0, 48, 62
1, 1231901, Note_on_c, 0, 38, 68
1, 1231902, Note_on_c, 0, 50, 64
1, 1231938, Note_off_c, 0, 50, 60
1, 1231939, Note_off_c, 0, 48, 60
1, 1231949, Note_off_c, 0, 38, 60
1, 1231951, Note_off_c, 0, 62, 58
1, 1231952, Note_off_c, 0, 74, 61
1, 1231957, Note_off_c, 0, 72, 63
1, 1232095, Note_on_c, 0, 72, 74
1, 1232097, Note_on_c, 0, 62, 73
1, 1232101, Note_on_c, 0, 74, 66
1, 1232101, Note_on_c, 0, 48, 62
1, 1232104, Note_on_c, 0, 38, 61
1, 1232105, Note_on_c, 0, 50, 60
1, 1232134, Note_off_c, 0, 50, 54
1, 1232136, Note_off_c, 0, 48, 51
1, 1232145, Note_off_c, 0, 62, 60
1, 1232148, Note_off_c, 0, 38, 62
1, 1232148, Note_off_c, 0, 72, 65
1, 1232151, Note_off_c, 0, 74, 59
1, 1232234, Control_c, 0, 64, 76
1, 1232249, Control_c, 0, 64, 66
1, 1232264, Control_c, 0, 64, 22
1, 1232279, Control_c, 0, 64, 0
1, 1232291, Note_on_c, 0, 72, 77
1, 1232294, Note_on_c, 0, 74, 70
1, 1232307, Note_on_c, 0, 46, 77
1, 1232308, Note_on_c, 0, 62, 67
1, 1232327, Note_on_c, 0, 50, 50
1, 1232329, Note_on_c, 0, 70, 81
1, 1232333, Note_on_c, 0, 38, 48
1, 1232338, Control_c, 0, 64, 55
1, 1232353, Control_c, 0, 64, 69
1, 1232356, Note_off_c, 0, 72, 65
1, 1232368, Control_c, 0, 64, 85
1, 1232369, Note_off_c, 0, 74, 60
1, 1232382, Control_c, 0, 64, 107
1, 1232393, Note_off_c, 0, 46, 62
1, 1232397, Note_off_c, 0, 62, 57
1, 1232397, Control_c, 0, 64, 127
1, 1232400, Note_off_c, 0, 70, 63
1, 1232404, Note_off_c, 0, 38, 55
1, 1232416, Note_off_c, 0, 50, 36
1, 1232494, Control_c, 0, 64, 118
1, 1232508, Control_c, 0, 64, 74
1, 1232523, Control_c, 0, 64, 59
1, 1232527, Note_on_c, 0, 70, 80
1, 1232538, Control_c, 0, 64, 49
1, 1232546, Note_on_c, 0, 62, 71
1, 1232548, Note_on_c, 0, 74, 75
1, 1232553, Control_c, 0, 64, 61
1, 1232560, Note_on_c, 0, 45, 70
1, 1232562, Note_on_c, 0, 50, 65
1, 1232563, Note_on_c, 0, 38, 66
1, 1232567, Note_on_c, 0, 69, 84
1, 1232568, Control_c, 0, 64, 71
1, 1232577, Note_off_c, 0, 70, 59
1, 1232582, Control_c, 0, 64, 90
1, 1232597, Control_c, 0, 64, 127
1, 1232628, Note_off_c, 0, 69, 64
1, 1232631, Note_off_c, 0, 45, 63
1, 1232633, Note_off_c, 0, 50, 56
1, 1232639, Note_off_c, 0, 62, 55
1, 1232643, Note_off_c, 0, 38, 60
1, 1232646, Note_off_c, 0, 74, 61
1, 1232715, Control_c, 0, 64, 77
1, 1232730, Control_c, 0, 64, 57
1, 1232733, Note_on_c, 0, 69, 80
1, 1232741, Note_on_c, 0, 74, 83
1, 1232744, Note_on_c, 0, 62, 88
1, 1232745, Control_c, 0, 64, 38
1, 1232757, Note_on_c, 0, 67, 88
1, 1232760, Note_on_c, 0, 50, 73
1, 1232760, Control_c, 0, 64, 60
1, 1232762, Note_on_c, 0, 43, 71
1, 1232769, Note_on_c, 0, 38, 67
1, 1232774, Control_c, 0, 64, 68
1, 1232783, Note_off_c, 0, 69, 66
1, 1232789, Control_c, 0, 64, 81
1, 1232805, Control_c, 0, 64, 127
1, 1232820, Note_off_c, 0, 62, 60
1, 1232845, Note_off_c, 0, 67, 62
1, 1232849, Note_off_c, 0, 74, 63
1, 1232850, Note_off_c, 0, 50, 59
1, 1232852, Note_off_c, 0, 38, 62
1, 1232858, Note_off_c, 0, 43, 59
1, 1232923, Control_c, 0, 64, 79
1, 1232937, Note_on_c, 0, 67, 88
1, 1232938, Control_c, 0, 64, 55
1, 1232942, Note_on_c, 0, 74, 80
1, 1232953, Control_c, 0, 64, 0
1, 1232960, Note_on_c, 0, 41, 80
1, 1232960, Note_on_c, 0, 65, 97
1, 1232964, Note_on_c, 0, 50, 78
1, 1232968, Control_c, 0, 64, 54
1, 1232974, Note_on_c, 0, 38, 65
1, 1232983, Control_c, 0, 64, 68
1, 1232998, Control_c, 0, 64, 88
1, 1233002, Note_off_c, 0, 67, 63
1, 1233013, Control_c, 0, 64, 127
1, 1233045, Note_off_c, 0, 65, 61
1, 1233051, Note_off_c, 0, 74, 63
1, 1233063, Note_off_c, 0, 50, 59
1, 1233069, Note_off_c, 0, 41, 63
1, 1233069, Note_off_c, 0, 38, 61
1, 1233117, Control_c, 0, 64, 116
1, 1233131, Control_c, 0, 64, 64
1, 1233144, Note_on_c, 0, 65, 91
1, 1233146, Control_c, 0, 64, 0
1, 1233150, Note_on_c, 0, 74, 81
1, 1233165, Note_on_c, 0, 50, 84
1, 1233168, Note_on_c, 0, 40, 78
1, 1233168, Note_on_c, 0, 64, 94
1, 1233176, Control_c, 0, 64, 58
1, 1233180, Note_on_c, 0, 38, 66
1, 1233191, Control_c, 0, 64, 75
1, 1233195, Note_off_c, 0, 65, 65
1, 1233205, Control_c, 0, 64, 127
1, 1233261, Note_off_c, 0, 64, 62
1, 1233263, Note_off_c, 0, 74, 63
1, 1233279, Note_off_c, 0, 38, 60
1, 1233295, Note_off_c, 0, 50, 57
1, 1233309, Note_off_c, 0, 40, 61
1, 1233346, Control_c, 0, 64, 64
1, 1233357, Note_on_c, 0, 64, 81
1, 1233361, Control_c, 0, 64, 0
1, 1233367, Note_on_c, 0, 74, 73
1, 1233374, Note_on_c, 0, 50, 91
1, 1233376, Note_on_c, 0, 62, 96
1, 1233379, Note_on_c, 0, 38, 85
1, 1233385, Note_on_c, 0, 68, 54
1, 1233397, Note_off_c, 0, 64, 65
1, 1233406, Note_off_c, 0, 68, 60
1, 1233420, Control_c, 0, 64, 66
1, 1233435, Control_c, 0, 64, 127
1, 1233440, Note_off_c, 0, 50, 61
1, 1233445, Note_off_c, 0, 74, 64
1, 1233470, Note_off_c, 0, 38, 62
1, 1233478, Note_off_c, 0, 62, 59
1, 1233597, Control_c, 0, 64, 78
1, 1233614, Control_c, 0, 64, 0
1, 1233633, Note_on_c, 0, 68, 95
1, 1233635, Note_on_c, 0, 74, 87
1, 1233636, Note_on_c, 0, 46, 97
1, 1233636, Note_on_c, 0, 62, 88
1, 1233638, Note_on_c, 0, 34, 91
1, 1233672, Control_c, 0, 64, 45
1, 1233682, Note_off_c, 0, 46, 59
1, 1233687, Control_c, 0, 64, 70
1, 1233689, Note_off_c, 0, 34, 61
1, 1233702, Control_c, 0, 64, 94
1, 1233706, Note_off_c, 0, 62, 58
1, 1233712, Note_off_c, 0, 74, 62
1, 1233717, Control_c, 0, 64, 127
1, 1233722, Note_off_c, 0, 68, 62
1, 1233871, Note_on_c, 0, 46, 88
1, 1233871, Note_on_c, 0, 74, 84
1, 1233872, Note_on_c, 0, 62, 85
1, 1233874, Note_on_c, 0, 34, 81
1, 1233874, Note_on_c, 0, 68, 79
1, 1233894, Note_off_c, 0, 46, 66
1, 1233903, Note_off_c, 0, 34, 65
1, 1233907, Note_off_c, 0, 62, 60
1, 1233910, Control_c, 0, 64, 88
1, 1233910, Note_off_c, 0, 68, 56
1, 1233917, Note_off_c, 0, 74, 63
1, 1233925, Control_c, 0, 64, 71
1, 1233940, Control_c, 0, 64, 58
1, 1233954, Control_c, 0, 64, 0
1, 1233960, Note_on_c, 0, 34, 83
1, 1233964, Note_on_c, 0, 68, 85
1, 1233966, Note_on_c, 0, 46, 87
1, 1233966, Note_on_c, 0, 74, 73
1, 1233967, Note_on_c, 0, 62, 80
1, 1234002, Note_off_c, 0, 46, 64
1, 1234003, Note_off_c, 0, 34, 62
1, 1234005, Note_off_c, 0, 74, 64
1, 1234010, Note_off_c, 0, 62, 61
1, 1234015, Note_off_c, 0, 68, 67
1, 1234061, Note_on_c, 0, 34, 79
1, 1234063, Note_on_c, 0, 46, 79
1, 1234065, Note_on_c, 0, 68, 84
1, 1234069, Note_on_c, 0, 74, 79
1, 1234071, Note_on_c, 0, 62, 77
1, 1234090, Note_off_c, 0, 46, 64
1, 1234091, Note_off_c, 0, 34, 66
1, 1234101, Note_off_c, 0, 62, 61
1, 1234104, Note_off_c, 0, 74, 62
1, 1234110, Note_off_c, 0, 68, 66
1, 1234141, Note_on_c, 0, 46, 88
1, 1234148, Note_on_c, 0, 34, 76
1, 1234157, Note_on_c, 0, 74, 70
1, 1234157, Note_on_c, 0, 62, 78
1, 1234159, Note_on_c, 0, 68, 68
1, 1234197, Note_off_c, 0, 46, 59
1, 1234199, Note_off_c, 0, 68, 57
1, 1234208, Note_off_c, 0, 62, 60
1, 1234208, Note_off_c, 0, 34, 62
1, 1234208, Note_off_c, 0, 74, 64
1, 1234282, Note_on_c, 0, 73, 84
1, 1234286, Note_on_c, 0, 64, 91
1, 1234287, Note_on_c, 0, 76, 93
1, 1234289, Note_on_c, 0, 69, 80
1, 1234294, Note_on_c, 0, 45, 68
1, 1234300, Note_on_c, 0, 33, 70
1, 1234496, Control_c, 0, 64, 49
1, 1234510, Control_c, 0, 64, 65
1, 1234525, Control_c, 0, 64, 76
1, 1234540, Control_c, 0, 64, 107
1, 1234555, Control_c, 0, 64, 127
1, 1234591, Note_off_c, 0, 76, 62
1, 1234600, Note_off_c, 0, 69, 65
1, 1234616, Note_off_c, 0, 73, 58
1, 1234632, Note_off_c, 0, 64, 62
1, 1234659, Note_off_c, 0, 33, 63
1, 1234689, Note_off_c, 0, 45, 64
1, 1234784, Control_c, 0, 64, 106
1, 1234799, Control_c, 0, 64, 63
1, 1234814, Control_c, 0, 64, 0
1, 1234858, Control_c, 0, 67, 10
1, 1234873, Control_c, 0, 67, 20
1, 1234888, Control_c, 0, 67, 31
1, 1234903, Control_c, 0, 67, 40
1, 1234917, Control_c, 0, 67, 48
1, 1234932, Control_c, 0, 67, 56
1, 1234947, Control_c, 0, 67, 64
1, 1234962, Control_c, 0, 67, 72
1, 1234977, Control_c, 0, 67, 81
1, 1234977, Note_on_c, 0, 65, 51
1, 1234983, Note_on_c, 0, 56, 42
1, 1234989, Note_on_c, 0, 46, 34
1, 1234992, Control_c, 0, 67, 89
1, 1234997, Note_on_c, 0, 50, 32
1, 1235007, Control_c, 0, 67, 98
1, 1235022, Control_c, 0, 67, 107
1, 1235036, Control_c, 0, 64, 40
1, 1235036, Control_c, 0, 67, 115
1, 1235051, Control_c, 0, 64, 62
1, 1235051, Control_c, 0, 67, 123
1, 1235066, Control_c, 0, 64, 68
1, 1235066, Control_c, 0, 67, 127
1, 1235081, Control_c, 0, 64, 72
1, 1235096, Control_c, 0, 64, 73
1, 1235096, Note_off_c, 0, 50, 58
1, 1235099, Note_off_c, 0, 46, 55
1, 1235106, Note_off_c, 0, 56, 57
1, 1235109, Note_off_c, 0, 65, 62
1, 1235125, Control_c, 0, 64, 73
1, 1235140, Control_c, 0, 64, 69
1, 1235155, Control_c, 0, 64, 60
1, 1235170, Control_c, 0, 64, 0
1, 1235192, Note_on_c, 0, 64, 63
1, 1235193, Note_on_c, 0, 46, 54
1, 1235199, Note_on_c, 0, 56, 53
1, 1235200, Note_on_c, 0, 52, 56
1, 1235222, Note_off_c, 0, 64, 66
1, 1235227, Note_off_c, 0, 56, 59
1, 1235230, Note_off_c, 0, 46, 62
1, 1235235, Note_off_c, 0, 52, 63
1, 1235286, Note_on_c, 0, 64, 64
1, 1235295, Note_on_c, 0, 56, 58
1, 1235296, Note_on_c, 0, 52, 57
1, 1235305, Note_on_c, 0, 46, 47
1, 1235323, Note_off_c, 0, 56, 62
1, 1235326, Note_off_c, 0, 52, 67
1, 1235326, Note_off_c, 0, 64, 58
1, 1235334, Note_off_c, 0, 46, 53
1, 1235380, Note_on_c, 0, 62, 72
1, 1235383, Note_on_c, 0, 46, 62
1, 1235387, Note_on_c, 0, 56, 58
1, 1235406, Note_off_c, 0, 56, 62
1, 1235417, Note_off_c, 0, 46, 64
1, 1235443, Note_off_c, 0, 62, 0
1, 1235460, Note_on_c, 0, 62, 43
1, 1235482, Note_on_c, 0, 56, 61
1, 1235525, Note_off_c, 0, 56, 61
1, 1235530, Note_off_c, 0, 62, 59
1, 1235630, Note_on_c, 0, 64, 56
1, 1235653, Note_on_c, 0, 49, 42
1, 1235654, Note_on_c, 0, 57, 40
1, 1235654, Note_on_c, 0, 45, 42
1, 1235859, Control_c, 0, 64, 43
1, 1235874, Control_c, 0, 64, 53
1, 1235889, Control_c, 0, 64, 59
1, 1235904, Control_c, 0, 64, 63
1, 1235919, Control_c, 0, 64, 65
1, 1235934, Control_c, 0, 64, 67
1, 1235949, Control_c, 0, 64, 70
1, 1235964, Control_c, 0, 64, 74
1, 1235978, Control_c, 0, 64, 78
1, 1235993, Control_c, 0, 64, 82
1, 1236009, Control_c, 0, 64, 87
1, 1236023, Control_c, 0, 64, 92
1, 1236038, Control_c, 0, 64, 95
1, 1236053, Control_c, 0, 64, 98
1, 1236068, Control_c, 0, 64, 99
1, 1236083, Control_c, 0, 64, 100
1, 1236084, Note_off_c, 0, 57, 61
1, 1236098, Control_c, 0, 64, 101
1, 1236102, Note_off_c, 0, 45, 64
1, 1236113, Note_off_c, 0, 64, 62
1, 1236113, Control_c, 0, 64, 101
1, 1236113, Note_off_c, 0, 49, 61
1, 1236216, Control_c, 0, 67, 127
1, 1236238, Control_c, 0, 64, 101
1, 1236238, Control_c, 0, 67, 120
1, 1236253, Control_c, 0, 64, 95
1, 1236253, Control_c, 0, 67, 110
1, 1236268, Control_c, 0, 64, 85
1, 1236268, Control_c, 0, 67, 100
1, 1236283, Control_c, 0, 64, 75
1, 1236283, Control_c, 0, 67, 91
1, 1236298, Control_c, 0, 64, 65
1, 1236298, Control_c, 0, 67, 85
1, 1236313, Control_c, 0, 64, 54
1, 1236313, Control_c, 0, 67, 81
1, 1236327, Control_c, 0, 64, 0
1, 1236327, Control_c, 0, 67, 77
1, 1236342, Control_c, 0, 67, 73
1, 1236357, Control_c, 0, 67, 68
1, 1236372, Control_c, 0, 67, 62
1, 1236387, Control_c, 0, 67, 55
1, 1236401, Note_on_c, 0, 76, 63
1, 1236401, Control_c, 0, 67, 49
1, 1236416, Control_c, 0, 67, 44
1, 1236431, Control_c, 0, 67, 40
1, 1236437, Note_on_c, 0, 64, 28
1, 1236439, Note_on_c, 0, 58, 31
1, 1236439, Note_on_c, 0, 70, 38
1, 1236446, Control_c, 0, 67, 36
1, 1236448, Note_on_c, 0, 55, 26
1, 1236450, Note_on_c, 0, 49, 30
1, 1236453, Note_on_c, 0, 67, 22
1, 1236461, Control_c, 0, 67, 33
1, 1236475, Control_c, 0, 64, 35
1, 1236475, Control_c, 0, 67, 29
1, 1236490, Control_c, 0, 64, 60
1, 1236490, Control_c, 0, 67, 26
1, 1236505, Control_c, 0, 64, 66
1, 1236505, Control_c, 0, 67, 24
1, 1236520, Control_c, 0, 64, 73
1, 1236520, Control_c, 0, 67, 22
1, 1236535, Control_c, 0, 64, 83
1, 1236535, Control_c, 0, 67, 20
1, 1236549, Control_c, 0, 64, 91
1, 1236549, Control_c, 0, 67, 19
1, 1236564, Control_c, 0, 64, 98
1, 1236564, Control_c, 0, 67, 17
1, 1236579, Control_c, 0, 64, 101
1, 1236579, Control_c, 0, 67, 14
1, 1236593, Control_c, 0, 64, 102
1, 1236593, Control_c, 0, 67, 11
1, 1236608, Control_c, 0, 64, 102
1, 1236608, Control_c, 0, 67, 8
1, 1236618, Note_off_c, 0, 76, 60
1, 1236623, Note_off_c, 0, 64, 50
1, 1236623, Control_c, 0, 67, 0
1, 1236629, Note_off_c, 0, 70, 60
1, 1236636, Note_off_c, 0, 55, 48
1, 1236637, Note_off_c, 0, 49, 40
1, 1236639, Note_off_c, 0, 58, 50
1, 1236640, Note_off_c, 0, 67, 44
1, 1236653, Control_c, 0, 64, 102
1, 1236697, Control_c, 0, 64, 101
1, 1236712, Control_c, 0, 64, 98
1, 1236727, Control_c, 0, 64, 94
1, 1236742, Control_c, 0, 64, 88
1, 1236757, Control_c, 0, 64, 83
1, 1236768, Note_on_c, 0, 76, 73
1, 1236772, Control_c, 0, 64, 78
1, 1236775, Note_on_c, 0, 58, 53
1, 1236784, Note_on_c, 0, 64, 51
1, 1236787, Control_c, 0, 64, 74
1, 1236788, Note_on_c, 0, 67, 37
1, 1236793, Note_on_c, 0, 70, 36
1, 1236797, Note_on_c, 0, 55, 28
1, 1236802, Note_off_c, 0, 76, 60
1, 1236802, Control_c, 0, 64, 72
1, 1236805, Note_off_c, 0, 58, 65
1, 1236808, Note_off_c, 0, 64, 59
1, 1236816, Control_c, 0, 64, 69
1, 1236820, Note_off_c, 0, 67, 53
1, 1236827, Note_off_c, 0, 70, 51
1, 1236831, Control_c, 0, 64, 67
1, 1236837, Note_off_c, 0, 55, 43
1, 1236846, Control_c, 0, 64, 64
1, 1236861, Control_c, 0, 64, 60
1, 1236871, Note_on_c, 0, 76, 74
1, 1236876, Note_on_c, 0, 58, 66
1, 1236876, Control_c, 0, 64, 54
1, 1236880, Note_on_c, 0, 64, 58
1, 1236891, Note_on_c, 0, 67, 58
1, 1236891, Control_c, 0, 64, 47
1, 1236892, Note_on_c, 0, 70, 57
1, 1236894, Note_on_c, 0, 55, 35
1, 1236903, Note_off_c, 0, 64, 64
1, 1236906, Note_off_c, 0, 58, 63
1, 1236906, Control_c, 0, 64, 38
1, 1236911, Note_off_c, 0, 76, 60
1, 1236913, Note_off_c, 0, 67, 61
1, 1236915, Note_off_c, 0, 70, 63
1, 1236921, Control_c, 0, 64, 22
1, 1236927, Note_off_c, 0, 55, 47
1, 1236936, Control_c, 0, 64, 0
1, 1236966, Note_on_c, 0, 76, 73
1, 1236978, Note_on_c, 0, 58, 67
1, 1236981, Note_on_c, 0, 64, 64
1, 1236982, Note_on_c, 0, 70, 76
1, 1236984, Note_on_c, 0, 67, 67
1, 1236995, Note_on_c, 0, 55, 43
1, 1237003, Note_off_c, 0, 64, 62
1, 1237008, Note_off_c, 0, 58, 63
1, 1237009, Note_off_c, 0, 70, 63
1, 1237011, Note_off_c, 0, 67, 65
1, 1237017, Note_off_c, 0, 76, 65
1, 1237022, Note_off_c, 0, 55, 56
1, 1237061, Note_on_c, 0, 76, 77
1, 1237076, Note_on_c, 0, 64, 58
1, 1237077, Note_on_c, 0, 70, 69
1, 1237078, Note_on_c, 0, 67, 67
1, 1237085, Note_on_c, 0, 58, 54
1, 1237101, Note_off_c, 0, 64, 57
1, 1237109, Note_off_c, 0, 70, 58
1, 1237117, Note_off_c, 0, 58, 51
1, 1237129, Note_off_c, 0, 67, 47
1, 1237131, Note_off_c, 0, 76, 62
1, 1237234, Note_on_c, 0, 76, 76
1, 1237255, Note_on_c, 0, 67, 49
1, 1237266, Note_on_c, 0, 69, 48
1, 1237287, Note_on_c, 0, 57, 30
1, 1237288, Note_on_c, 0, 50, 45
1, 1237291, Note_on_c, 0, 55, 20
1, 1237317, Note_on_c, 0, 64, 8
1, 1237342, Control_c, 0, 64, 46
1, 1237356, Note_off_c, 0, 67, 61
1, 1237357, Control_c, 0, 64, 64
1, 1237369, Note_off_c, 0, 64, 51
1, 1237371, Control_c, 0, 64, 68
1, 1237386, Control_c, 0, 64, 70
1, 1237401, Control_c, 0, 64, 72
1, 1237416, Control_c, 0, 64, 72
1, 1237460, Control_c, 0, 64, 72
1, 1237468, Note_off_c, 0, 76, 66
1, 1237475, Control_c, 0, 64, 71
1, 1237477, Note_on_c, 0, 74, 64
1, 1237490, Control_c, 0, 64, 70
1, 1237492, Note_on_c, 0, 66, 64
1, 1237499, Note_on_c, 0, 62, 42
1, 1237505, Control_c, 0, 64, 69
1, 1237509, Note_on_c, 0, 54, 48
1, 1237510, Note_off_c, 0, 74, 64
1, 1237511, Note_off_c, 0, 69, 64
1, 1237520, Control_c, 0, 64, 68
1, 1237530, Note_off_c, 0, 62, 56
1, 1237535, Control_c, 0, 64, 66
1, 1237541, Note_off_c, 0, 57, 56
1, 1237549, Note_off_c, 0, 55, 57
1, 1237549, Control_c, 0, 64, 65
1, 1237564, Control_c, 0, 64, 64
1, 1237568, Note_off_c, 0, 54, 62
1, 1237579, Control_c, 0, 64, 63
1, 1237579, Note_off_c, 0, 66, 64
1, 1237594, Note_off_c, 0, 50, 59
1, 1237594, Control_c, 0, 64, 62
1, 1237609, Control_c, 0, 64, 57
1, 1237624, Control_c, 0, 64, 40
1, 1237639, Control_c, 0, 64, 0
1, 1237690, Note_on_c, 0, 69, 71
1, 1237702, Note_on_c, 0, 66, 67
1, 1237707, Note_on_c, 0, 57, 47
1, 1237720, Note_on_c, 0, 54, 40
1, 1237854, Control_c, 0, 67, 8
1, 1237869, Control_c, 0, 67, 8
1, 1237883, Control_c, 0, 67, 9
1, 1237898, Control_c, 0, 67, 13
1, 1237910, Note_off_c, 0, 57, 62
1, 1237913, Control_c, 0, 67, 18
1, 1237915, Note_off_c, 0, 69, 66
1, 1237916, Note_off_c, 0, 66, 64
1, 1237918, Note_off_c, 0, 54, 57
1, 1237928, Note_on_c, 0, 61, 70
1, 1237928, Control_c, 0, 67, 24
1, 1237934, Note_on_c, 0, 45, 56
1, 1237943, Control_c, 0, 67, 27
1, 1237958, Control_c, 0, 67, 28
1, 1237973, Control_c, 0, 67, 29
1, 1238017, Control_c, 0, 67, 28
1, 1238032, Control_c, 0, 67, 28
1, 1238046, Control_c, 0, 67, 27
1, 1238061, Control_c, 0, 67, 27
1, 1238126, Note_on_c, 0, 66, 70
1, 1238128, Note_on_c, 0, 57, 60
1, 1238131, Note_on_c, 0, 69, 63
1, 1238148, Note_on_c, 0, 54, 34
1, 1238155, Note_off_c, 0, 57, 63
1, 1238179, Note_off_c, 0, 54, 47
1, 1238191, Note_off_c, 0, 66, 57
1, 1238222, Note_on_c, 0, 71, 63
1, 1238223, Note_off_c, 0, 69, 32
1, 1238224, Control_c, 0, 67, 27
1, 1238231, Note_on_c, 0, 55, 55
1, 1238236, Note_on_c, 0, 59, 46
1, 1238253, Control_c, 0, 67, 28
1, 1238255, Note_off_c, 0, 55, 59
1, 1238259, Note_off_c, 0, 71, 53
1, 1238264, Note_off_c, 0, 59, 57
1, 1238322, Note_on_c, 0, 64, 61
1, 1238322, Poly_aftertouch_c, 0, 67, 127
1, 1238332, Note_on_c, 0, 55, 58
1, 1238340, Note_on_c, 0, 52, 54
1, 1238343, Control_c, 0, 67, 27
1, 1238399, Note_off_c, 0, 64, 61
1, 1238403, Note_off_c, 0, 55, 49
1, 1238406, Note_off_c, 0, 52, 57
1, 1238483, Note_off_c, 0, 61, 57
1, 1238484, Control_c, 0, 67, 27
1, 1238498, Poly_aftertouch_c, 0, 67, 0
1, 1238558, Control_c, 0, 67, 26
1, 1238573, Control_c, 0, 67, 26
1, 1238578, Note_on_c, 0, 66, 44
1, 1238588, Control_c, 0, 67, 25
1, 1238590, Note_on_c, 0, 54, 43
1, 1238602, Control_c, 0, 67, 24
1, 1238612, Note_on_c, 0, 62, 34
1, 1238617, Control_c, 0, 67, 24
1, 1238627, Note_on_c, 0, 50, 32
1, 1238630, Note_off_c, 0, 45, 43
1, 1238632, Control_c, 0, 67, 23
1, 1238647, Control_c, 0, 67, 23
1, 1238662, Control_c, 0, 67, 22
1, 1238676, Control_c, 0, 64, 19
1, 1238676, Control_c, 0, 67, 21
1, 1238691, Control_c, 0, 64, 53
1, 1238691, Control_c, 0, 67, 21
1, 1238706, Control_c, 0, 64, 61
1, 1238706, Control_c, 0, 67, 20
1, 1238721, Control_c, 0, 64, 63
1, 1238721, Control_c, 0, 67, 20
1, 1238736, Control_c, 0, 64, 64
1, 1238736, Control_c, 0, 67, 19
1, 1238751, Control_c, 0, 64, 66
1, 1238751, Control_c, 0, 67, 19
1, 1238762, Note_off_c, 0, 62, 43
1, 1238766, Control_c, 0, 64, 69
1, 1238766, Control_c, 0, 67, 18
1, 1238781, Control_c, 0, 64, 72
1, 1238781, Control_c, 0, 67, 18
1, 1238795, Control_c, 0, 64, 75
1, 1238795, Control_c, 0, 67, 17
1, 1238797, Note_off_c, 0, 50, 57
1, 1238800, Note_off_c, 0, 66, 63
1, 1238810, Control_c, 0, 64, 78
1, 1238810, Control_c, 0, 67, 15
1, 1238811, Note_off_c, 0, 54, 62
1, 1238825, Control_c, 0, 64, 81
1, 1238825, Control_c, 0, 67, 12
1, 1238840, Control_c, 0, 64, 85
1, 1238840, Control_c, 0, 67, 9
1, 1238855, Control_c, 0, 64, 88
1, 1238855, Control_c, 0, 67, 0
1, 1238869, Control_c, 0, 64, 91
1, 1238884, Control_c, 0, 64, 94
1, 1238899, Control_c, 0, 64, 96
1, 1238914, Control_c, 0, 64, 99
1, 1238929, Control_c, 0, 64, 102
1, 1238943, Control_c, 0, 64, 104
1, 1238958, Control_c, 0, 64, 105
1, 1238973, Control_c, 0, 64, 106
1, 1239076, Control_c, 0, 64, 106
1, 1239090, Note_on_c, 0, 69, 70
1, 1239091, Control_c, 0, 64, 102
1, 1239106, Control_c, 0, 64, 93
1, 1239109, Note_on_c, 0, 57, 42
1, 1239109, Note_on_c, 0, 66, 58
1, 1239117, Note_on_c, 0, 54, 41
1, 1239121, Control_c, 0, 64, 78
1, 1239136, Control_c, 0, 64, 64
1, 1239150, Control_c, 0, 64, 0
1, 1239249, Control_c, 0, 64, 60
1, 1239264, Control_c, 0, 64, 70
1, 1239279, Control_c, 0, 64, 83
1, 1239285, Note_off_c, 0, 69, 65
1, 1239291, Note_off_c, 0, 57, 57
1, 1239293, Control_c, 0, 64, 103
1, 1239308, Control_c, 0, 64, 127
1, 1239321, Note_off_c, 0, 66, 51
1, 1239323, Note_off_c, 0, 54, 57
1, 1239509, Note_on_c, 0, 79, 85
1, 1239530, Control_c, 0, 64, 94
1, 1239534, Note_on_c, 0, 67, 61
1, 1239542, Note_on_c, 0, 70, 53
1, 1239545, Control_c, 0, 64, 69
1, 1239559, Note_on_c, 0, 64, 27
1, 1239560, Control_c, 0, 64, 45
1, 1239563, Note_on_c, 0, 55, 24
1, 1239570, Note_on_c, 0, 58, 33
1, 1239574, Control_c, 0, 64, 0
1, 1239587, Note_on_c, 0, 49, 26
1, 1239618, Control_c, 0, 64, 39
1, 1239633, Control_c, 0, 64, 62
1, 1239648, Control_c, 0, 64, 73
1, 1239663, Control_c, 0, 64, 85
1, 1239678, Control_c, 0, 64, 90
1, 1239693, Control_c, 0, 64, 91
1, 1239693, Note_off_c, 0, 67, 56
1, 1239696, Note_off_c, 0, 70, 61
1, 1239704, Note_off_c, 0, 79, 58
1, 1239725, Note_off_c, 0, 58, 54
1, 1239726, Note_off_c, 0, 55, 50
1, 1239729, Note_off_c, 0, 64, 43
1, 1239741, Note_off_c, 0, 49, 38
1, 1239782, Control_c, 0, 64, 90
1, 1239797, Control_c, 0, 64, 90
1, 1239812, Control_c, 0, 64, 87
1, 1239826, Control_c, 0, 64, 82
1, 1239841, Control_c, 0, 64, 79
1, 1239856, Control_c, 0, 64, 76
1, 1239865, Note_on_c, 0, 79, 78
1, 1239871, Note_on_c, 0, 67, 69
1, 1239871, Control_c, 0, 64, 75
1, 1239877, Note_on_c, 0, 70, 65
1, 1239884, Note_on_c, 0, 58, 44
1, 1239886, Control_c, 0, 64, 73
1, 1239891, Note_on_c, 0, 64, 39
1, 1239896, Note_off_c, 0, 67, 60
1, 1239896, Note_off_c, 0, 70, 65
1, 1239898, Note_on_c, 0, 55, 24
1, 1239898, Note_off_c, 0, 79, 54
1, 1239900, Control_c, 0, 64, 72
1, 1239910, Note_off_c, 0, 58, 55
1, 1239915, Control_c, 0, 64, 71
1, 1239922, Note_off_c, 0, 64, 52
1, 1239930, Control_c, 0, 64, 70
1, 1239937, Note_off_c, 0, 55, 53
1, 1239944, Control_c, 0, 64, 68
1, 1239959, Control_c, 0, 64, 67
1, 1239972, Note_on_c, 0, 79, 79
1, 1239976, Note_on_c, 0, 70, 73
1, 1239977, Note_on_c, 0, 67, 72
1, 1239982, Note_on_c, 0, 58, 66
1, 1239982, Control_c, 0, 64, 66
1, 1239985, Note_on_c, 0, 55, 37
1, 1239997, Control_c, 0, 64, 65
1, 1240002, Note_on_c, 0, 64, 35
1, 1240009, Note_off_c, 0, 58, 66
1, 1240010, Note_off_c, 0, 67, 62
1, 1240010, Note_off_c, 0, 70, 63
1, 1240012, Control_c, 0, 64, 65
1, 1240015, Note_off_c, 0, 55, 61
1, 1240019, Note_off_c, 0, 79, 61
1, 1240027, Control_c, 0, 64, 64
1, 1240039, Note_off_c, 0, 64, 52
1, 1240042, Control_c, 0, 64, 63
1, 1240057, Control_c, 0, 64, 63
1, 1240071, Note_on_c, 0, 58, 65
1, 1240071, Control_c, 0, 64, 62
1, 1240073, Note_on_c, 0, 79, 81
1, 1240080, Note_on_c, 0, 67, 76
1, 1240083, Note_on_c, 0, 70, 76
1, 1240085, Note_on_c, 0, 64, 41
1, 1240086, Control_c, 0, 64, 62
1, 1240092, Note_on_c, 0, 55, 53
1, 1240101, Control_c, 0, 64, 61
1, 1240104, Note_off_c, 0, 58, 59
1, 1240110, Note_off_c, 0, 70, 67
1, 1240110, Note_off_c, 0, 67, 60
1, 1240111, Note_off_c, 0, 64, 57
1, 1240116, Control_c, 0, 64, 60
1, 1240119, Note_off_c, 0, 55, 57
1, 1240121, Note_off_c, 0, 79, 63
1, 1240131, Control_c, 0, 64, 58
1, 1240146, Control_c, 0, 64, 56
1, 1240161, Control_c, 0, 64, 55
1, 1240167, Note_on_c, 0, 79, 74
1, 1240176, Control_c, 0, 64, 55
1, 1240181, Note_on_c, 0, 67, 77
1, 1240182, Note_on_c, 0, 70, 80
1, 1240191, Control_c, 0, 64, 54
1, 1240191, Note_on_c, 0, 64, 51
1, 1240194, Note_on_c, 0, 58, 40
1, 1240205, Control_c, 0, 64, 54
1, 1240212, Note_on_c, 0, 55, 43
1, 1240220, Control_c, 0, 64, 53
1, 1240221, Note_off_c, 0, 64, 54
1, 1240235, Control_c, 0, 64, 52
1, 1240235, Note_off_c, 0, 58, 49
1, 1240239, Note_off_c, 0, 55, 56
1, 1240241, Note_off_c, 0, 67, 51
1, 1240243, Note_off_c, 0, 70, 50
1, 1240249, Control_c, 0, 64, 51
1, 1240253, Note_off_c, 0, 79, 58
1, 1240264, Control_c, 0, 64, 50
1, 1240279, Control_c, 0, 64, 49
1, 1240294, Control_c, 0, 64, 47
1, 1240309, Control_c, 0, 64, 44
1, 1240323, Control_c, 0, 64, 34
1, 1240338, Control_c, 0, 64, 0
1, 1240375, Note_on_c, 0, 79, 77
1, 1240384, Note_on_c, 0, 69, 65
1, 1240391, Note_on_c, 0, 57, 32
1, 1240397, Note_on_c, 0, 67, 65
1, 1240407, Note_on_c, 0, 70, 39
1, 1240420, Note_on_c, 0, 50, 44
1, 1240423, Note_on_c, 0, 55, 17
1, 1240425, Note_on_c, 0, 64, 19
1, 1240471, Control_c, 0, 64, 56
1, 1240486, Control_c, 0, 64, 68
1, 1240501, Control_c, 0, 64, 78
1, 1240516, Control_c, 0, 64, 85
1, 1240528, Note_off_c, 0, 79, 61
1, 1240529, Note_off_c, 0, 64, 51
1, 1240531, Control_c, 0, 64, 89
1, 1240545, Control_c, 0, 64, 94
1, 1240558, Note_off_c, 0, 67, 54
1, 1240560, Control_c, 0, 64, 95
1, 1240614, Poly_aftertouch_c, 0, 74, 127
1, 1240649, Control_c, 0, 64, 93
1, 1240658, Note_off_c, 0, 70, 12
1, 1240664, Control_c, 0, 64, 89
1, 1240679, Control_c, 0, 64, 84
1, 1240680, Poly_aftertouch_c, 0, 74, 0
1, 1240689, Note_on_c, 0, 78, 74
1, 1240694, Note_on_c, 0, 66, 61
1, 1240694, Control_c, 0, 64, 77
1, 1240709, Control_c, 0, 64, 72
1, 1240720, Note_on_c, 0, 62, 51
1, 1240723, Note_on_c, 0, 54, 47
1, 1240730, Control_c, 0, 64, 66
1, 1240745, Control_c, 0, 64, 57
1, 1240757, Note_off_c, 0, 62, 62
1, 1240758, Note_off_c, 0, 57, 56
1, 1240760, Control_c, 0, 64, 0
1, 1240762, Note_off_c, 0, 55, 55
1, 1240778, Note_off_c, 0, 66, 62
1, 1240779, Note_off_c, 0, 69, 63
1, 1240782, Note_off_c, 0, 54, 62
1, 1240799, Note_off_c, 0, 78, 58
1, 1240808, Note_off_c, 0, 50, 59
1, 1240919, Note_on_c, 0, 78, 77
1, 1240931, Note_on_c, 0, 57, 52
1, 1240931, Note_on_c, 0, 69, 63
1, 1240936, Note_on_c, 0, 54, 50
1, 1240936, Note_on_c, 0, 66, 59
1, 1241151, Note_on_c, 0, 45, 63
1, 1241176, Note_off_c, 0, 69, 65
1, 1241184, Note_off_c, 0, 78, 60
1, 1241203, Note_off_c, 0, 66, 38
1, 1241351, Note_on_c, 0, 78, 75
1, 1241362, Note_on_c, 0, 69, 48
1, 1241363, Note_on_c, 0, 66, 61
1, 1241385, Note_off_c, 0, 66, 69
1, 1241386, Note_off_c, 0, 69, 60
1, 1241401, Note_off_c, 0, 78, 61
1, 1241410, Note_off_c, 0, 54, 62
1, 1241446, Note_off_c, 0, 57, 61
1, 1241454, Note_on_c, 0, 79, 76
1, 1241468, Note_on_c, 0, 71, 72
1, 1241471, Note_on_c, 0, 67, 64
1, 1241487, Note_off_c, 0, 45, 58
1, 1241488, Note_off_c, 0, 79, 60
1, 1241489, Note_off_c, 0, 71, 67
1, 1241495, Note_off_c, 0, 67, 66
1, 1241582, Note_on_c, 0, 76, 78
1, 1241592, Note_on_c, 0, 55, 47
1, 1241595, Note_on_c, 0, 67, 50
1, 1241598, Note_on_c, 0, 64, 58
1, 1241601, Note_on_c, 0, 45, 46
1, 1241608, Note_on_c, 0, 57, 42
1, 1241619, Note_off_c, 0, 67, 58
1, 1241636, Note_off_c, 0, 64, 54
1, 1241639, Note_off_c, 0, 76, 67
1, 1241647, Note_off_c, 0, 57, 54
1, 1241648, Note_off_c, 0, 55, 64
1, 1241674, Note_off_c, 0, 45, 57
1, 1241840, Note_on_c, 0, 74, 71
1, 1241879, Note_on_c, 0, 66, 46
1, 1241880, Note_on_c, 0, 57, 46
1, 1241883, Note_on_c, 0, 54, 41
1, 1241887, Note_on_c, 0, 62, 40
1, 1241898, Note_on_c, 0, 50, 34
1, 1241954, Control_c, 0, 64, 51
1, 1241968, Control_c, 0, 64, 63
1, 1241983, Control_c, 0, 64, 67
1, 1241998, Control_c, 0, 64, 72
1, 1242012, Control_c, 0, 64, 78
1, 1242027, Control_c, 0, 64, 85
1, 1242042, Control_c, 0, 64, 92
1, 1242057, Control_c, 0, 64, 97
1, 1242072, Control_c, 0, 64, 104
1, 1242087, Control_c, 0, 64, 113
1, 1242101, Control_c, 0, 64, 127
1, 1242161, Note_off_c, 0, 57, 52
1, 1242180, Note_off_c, 0, 74, 62
1, 1242181, Note_off_c, 0, 50, 54
1, 1242185, Note_off_c, 0, 62, 41
1, 1242187, Note_off_c, 0, 54, 58
1, 1242195, Note_off_c, 0, 66, 62
1, 1242273, Control_c, 0, 64, 78
1, 1242287, Control_c, 0, 64, 51
1, 1242302, Control_c, 0, 64, 0
1, 1242346, Control_c, 0, 67, 15
1, 1242361, Control_c, 0, 67, 23
1, 1242376, Control_c, 0, 67, 33
1, 1242392, Control_c, 0, 67, 42
1, 1242407, Control_c, 0, 67, 51
1, 1242422, Control_c, 0, 67, 60
1, 1242437, Control_c, 0, 67, 69
1, 1242451, Control_c, 0, 67, 77
1, 1242466, Control_c, 0, 67, 85
1, 1242481, Control_c, 0, 67, 94
1, 1242496, Control_c, 0, 67, 103
1, 1242510, Control_c, 0, 67, 113
1, 1242525, Control_c, 0, 67, 121
1, 1242537, Note_on_c, 0, 54, 35
1, 1242540, Control_c, 0, 67, 127
1, 1242552, Note_on_c, 0, 66, 43
1, 1242629, Control_c, 0, 64, 43
1, 1242644, Control_c, 0, 64, 57
1, 1242659, Control_c, 0, 64, 64
1, 1242674, Control_c, 0, 64, 68
1, 1242689, Control_c, 0, 64, 75
1, 1242691, Note_off_c, 0, 66, 55
1, 1242698, Note_off_c, 0, 54, 49
1, 1242704, Control_c, 0, 64, 85
1, 1242718, Control_c, 0, 64, 92
1, 1242733, Control_c, 0, 64, 96
1, 1242748, Control_c, 0, 64, 99
1, 1242762, Control_c, 0, 64, 101
1, 1242777, Control_c, 0, 64, 102
1, 1242866, Control_c, 0, 64, 101
1, 1242896, Control_c, 0, 64, 100
1, 1242910, Control_c, 0, 64, 97
1, 1242925, Control_c, 0, 64, 92
1, 1242940, Control_c, 0, 64, 86
1, 1242955, Control_c, 0, 64, 77
1, 1242957, Note_on_c, 0, 74, 44
1, 1242976, Note_on_c, 0, 59, 34
1, 1242977, Control_c, 0, 64, 66
1, 1242989, Note_on_c, 0, 66, 38
1, 1242990, Note_on_c, 0, 54, 31
1, 1242991, Note_on_c, 0, 47, 32
1, 1242992, Note_on_c, 0, 62, 28
1, 1242992, Control_c, 0, 64, 17
1, 1243007, Control_c, 0, 64, 0
1, 1243066, Control_c, 0, 64, 56
1, 1243081, Control_c, 0, 64, 67
1, 1243096, Control_c, 0, 64, 76
1, 1243110, Control_c, 0, 64, 83
1, 1243113, Note_off_c, 0, 74, 54
1, 1243119, Note_off_c, 0, 54, 48
1, 1243121, Note_off_c, 0, 62, 40
1, 1243125, Control_c, 0, 64, 86
1, 1243135, Note_off_c, 0, 66, 37
1, 1243137, Note_off_c, 0, 59, 38
1, 1243140, Control_c, 0, 64, 90
1, 1243145, Note_off_c, 0, 47, 37
1, 1243155, Control_c, 0, 64, 92
1, 1243169, Control_c, 0, 64, 92
1, 1243289, Control_c, 0, 64, 91
1, 1243304, Control_c, 0, 64, 87
1, 1243319, Control_c, 0, 64, 79
1, 1243327, Note_on_c, 0, 74, 54
1, 1243333, Note_on_c, 0, 66, 51
1, 1243334, Control_c, 0, 64, 69
1, 1243340, Note_on_c, 0, 59, 38
1, 1243342, Note_on_c, 0, 54, 45
1, 1243345, Note_on_c, 0, 47, 42
1, 1243348, Control_c, 0, 64, 60
1, 1243350, Note_on_c, 0, 62, 29
1, 1243362, Note_off_c, 0, 74, 63
1, 1243363, Control_c, 0, 64, 0
1, 1243368, Note_off_c, 0, 66, 62
1, 1243373, Note_off_c, 0, 54, 57
1, 1243383, Note_off_c, 0, 59, 47
1, 1243389, Note_off_c, 0, 62, 49
1, 1243398, Note_off_c, 0, 47, 40
1, 1243435, Note_on_c, 0, 74, 53
1, 1243444, Note_on_c, 0, 66, 54
1, 1243446, Note_on_c, 0, 59, 41
1, 1243446, Note_on_c, 0, 54, 45
1, 1243449, Note_on_c, 0, 47, 32
1, 1243450, Note_on_c, 0, 62, 38
1, 1243467, Note_off_c, 0, 74, 64
1, 1243472, Note_off_c, 0, 66, 61
1, 1243473, Note_off_c, 0, 54, 55
1, 1243478, Note_off_c, 0, 59, 51
1, 1243485, Note_off_c, 0, 62, 51
1, 1243520, Note_off_c, 0, 47, 0
1, 1243520, Note_on_c, 0, 47, 30
1, 1243529, Note_on_c, 0, 74, 59
1, 1243531, Note_on_c, 0, 54, 56
1, 1243538, Note_on_c, 0, 59, 49
1, 1243541, Note_on_c, 0, 66, 59
1, 1243541, Note_on_c, 0, 62, 48
1, 1243568, Note_off_c, 0, 59, 57
1, 1243568, Note_off_c, 0, 66, 67
1, 1243569, Note_off_c, 0, 54, 60
1, 1243571, Note_off_c, 0, 74, 56
1, 1243574, Note_off_c, 0, 62, 56
1, 1243620, Note_on_c, 0, 74, 54
1, 1243629, Note_on_c, 0, 54, 55
1, 1243644, Note_on_c, 0, 66, 49
1, 1243649, Note_on_c, 0, 62, 43
1, 1243649, Note_off_c, 0, 47, 59
1, 1243650, Note_off_c, 0, 74, 67
1, 1243653, Note_on_c, 0, 59, 47
1, 1243658, Note_off_c, 0, 54, 57
1, 1243668, Note_off_c, 0, 66, 61
1, 1243678, Note_off_c, 0, 59, 57
1, 1243678, Note_off_c, 0, 62, 54
1, 1243773, Note_on_c, 0, 59, 36
1, 1243777, Note_on_c, 0, 71, 58
1, 1243779, Note_on_c, 0, 62, 39
1, 1243784, Note_on_c, 0, 55, 47
1, 1243788, Note_on_c, 0, 67, 55
1, 1243829, Note_on_c, 0, 50, 33
1, 1243857, Note_on_c, 0, 54, 53
1, 1243866, Note_off_c, 0, 67, 54
1, 1243878, Note_on_c, 0, 66, 55
1, 1243906, Note_off_c, 0, 55, 51
1, 1243926, Note_off_c, 0, 71, 63
1, 1243929, Note_off_c, 0, 66, 64
1, 1243931, Note_off_c, 0, 50, 58
1, 1243931, Note_off_c, 0, 59, 57
1, 1243932, Note_off_c, 0, 54, 62
1, 1243946, Note_off_c, 0, 62, 44
1, 1243997, Note_on_c, 0, 54, 47
1, 1243999, Note_on_c, 0, 71, 68
1, 1244012, Note_on_c, 0, 66, 45
1, 1244024, Note_on_c, 0, 59, 36
1, 1244024, Note_on_c, 0, 50, 40
1, 1244029, Note_on_c, 0, 62, 49
1, 1244123, Note_off_c, 0, 71, 62
1, 1244126, Note_off_c, 0, 54, 59
1, 1244126, Note_off_c, 0, 59, 54
1, 1244126, Note_off_c, 0, 62, 59
1, 1244129, Note_off_c, 0, 66, 64
1, 1244131, Note_off_c, 0, 50, 51
1, 1244201, Note_on_c, 0, 71, 66
1, 1244215, Note_on_c, 0, 66, 50
1, 1244215, Note_on_c, 0, 50, 27
1, 1244220, Note_on_c, 0, 54, 29
1, 1244230, Note_on_c, 0, 59, 18
1, 1244236, Note_on_c, 0, 62, 47
1, 1244272, Note_off_c, 0, 71, 62
1, 1244293, Note_off_c, 0, 59, 59
1, 1244301, Note_off_c, 0, 66, 64
1, 1244302, Note_off_c, 0, 62, 61
1, 1244314, Note_off_c, 0, 54, 59
1, 1244322, Note_off_c, 0, 50, 60
1, 1244468, Note_on_c, 0, 73, 59
1, 1244477, Note_on_c, 0, 42, 48
1, 1244477, Note_on_c, 0, 66, 38
1, 1244489, Control_c, 0, 64, 28
1, 1244501, Note_on_c, 0, 58, 24
1, 1244504, Control_c, 0, 64, 62
1, 1244516, Note_on_c, 0, 64, 19
1, 1244519, Control_c, 0, 64, 71
1, 1244525, Note_on_c, 0, 54, 27
1, 1244534, Control_c, 0, 64, 78
1, 1244537, Note_off_c, 0, 58, 49
1, 1244549, Control_c, 0, 64, 83
1, 1244552, Note_off_c, 0, 42, 63
1, 1244555, Note_off_c, 0, 66, 62
1, 1244558, Note_off_c, 0, 64, 39
1, 1244560, Note_off_c, 0, 54, 59
1, 1244564, Control_c, 0, 64, 85
1, 1244570, Note_off_c, 0, 73, 58
1, 1244668, Control_c, 0, 64, 84
1, 1244683, Control_c, 0, 64, 82
1, 1244697, Control_c, 0, 64, 78
1, 1244712, Control_c, 0, 64, 72
1, 1244723, Note_on_c, 0, 73, 63
1, 1244727, Control_c, 0, 64, 66
1, 1244734, Note_on_c, 0, 54, 53
1, 1244737, Note_on_c, 0, 58, 53
1, 1244741, Control_c, 0, 64, 58
1, 1244742, Note_on_c, 0, 64, 43
1, 1244742, Note_on_c, 0, 66, 42
1, 1244753, Note_off_c, 0, 73, 63
1, 1244756, Control_c, 0, 64, 0
1, 1244763, Note_off_c, 0, 58, 61
1, 1244766, Note_off_c, 0, 54, 63
1, 1244769, Note_off_c, 0, 64, 57
1, 1244770, Note_off_c, 0, 66, 57
1, 1244823, Note_on_c, 0, 73, 72
1, 1244844, Note_on_c, 0, 64, 45
1, 1244850, Note_off_c, 0, 73, 59
1, 1244854, Note_on_c, 0, 54, 32
1, 1244860, Note_on_c, 0, 58, 24
1, 1244864, Note_on_c, 0, 66, 27
1, 1244869, Note_off_c, 0, 64, 58
1, 1244890, Note_off_c, 0, 58, 0
1, 1244915, Note_off_c, 0, 54, 0
1, 1244915, Note_on_c, 0, 54, 48
1, 1244920, Note_on_c, 0, 58, 40
1, 1244923, Note_on_c, 0, 73, 71
1, 1244936, Note_on_c, 0, 64, 60
1, 1244945, Note_off_c, 0, 73, 67
1, 1244952, Note_off_c, 0, 58, 64
1, 1244955, Note_off_c, 0, 54, 63
1, 1244957, Note_off_c, 0, 64, 61
1, 1245017, Note_on_c, 0, 73, 77
1, 1245020, Note_on_c, 0, 64, 72
1, 1245029, Note_on_c, 0, 54, 56
1, 1245031, Note_on_c, 0, 58, 58
1, 1245036, Note_off_c, 0, 66, 0
1, 1245036, Note_on_c, 0, 66, 31
1, 1245051, Note_off_c, 0, 64, 62
1, 1245053, Note_off_c, 0, 58, 63
1, 1245064, Note_off_c, 0, 54, 61
1, 1245066, Note_off_c, 0, 66, 52
1, 1245070, Note_off_c, 0, 73, 59
1, 1245231, Note_on_c, 0, 67, 58
1, 1245232, Note_on_c, 0, 55, 46
1, 1245238, Note_on_c, 0, 64, 51
1, 1245239, Note_on_c, 0, 58, 20
1, 1245242, Note_on_c, 0, 49, 40
1, 1245297, Note_off_c, 0, 67, 57
1, 1245311, Note_on_c, 0, 66, 55
1, 1245329, Note_off_c, 0, 55, 58
1, 1245330, Note_on_c, 0, 54, 42
1, 1245623, Control_c, 0, 67, 127
1, 1245638, Control_c, 0, 67, 111
1, 1245652, Control_c, 0, 67, 94
1, 1245667, Control_c, 0, 67, 75
1, 1245682, Control_c, 0, 67, 58
1, 1245697, Control_c, 0, 67, 42
1, 1245712, Control_c, 0, 67, 29
1, 1245727, Control_c, 0, 67, 17
1, 1245741, Control_c, 0, 67, 0
1, 1245813, Note_off_c, 0, 66, 65
1, 1245825, Note_off_c, 0, 58, 59
1, 1245826, Note_off_c, 0, 64, 62
1, 1245836, Note_off_c, 0, 54, 57
1, 1245862, Note_off_c, 0, 49, 57
1, 1246050, Note_on_c, 0, 62, 88
1, 1246051, Note_on_c, 0, 59, 93
1, 1246051, Note_on_c, 0, 66, 83
1, 1246051, Note_on_c, 0, 71, 86
1, 1246053, Note_on_c, 0, 54, 86
1, 1246054, Note_on_c, 0, 47, 79
1, 1246057, Note_on_c, 0, 50, 76
1, 1246060, Control_c, 0, 64, 62
1, 1246075, Control_c, 0, 64, 127
1, 1246099, Note_off_c, 0, 71, 63
1, 1246104, Note_off_c, 0, 54, 63
1, 1246114, Note_off_c, 0, 50, 62
1, 1246117, Note_off_c, 0, 59, 63
1, 1246120, Note_off_c, 0, 62, 63
1, 1246130, Note_off_c, 0, 47, 64
1, 1246153, Note_off_c, 0, 66, 64
1, 1246285, Note_on_c, 0, 58, 83
1, 1246286, Note_on_c, 0, 70, 82
1, 1246293, Note_on_c, 0, 50, 78
1, 1246293, Note_on_c, 0, 54, 80
1, 1246294, Note_on_c, 0, 47, 81
1, 1246312, Control_c, 0, 64, 79
1, 1246316, Note_off_c, 0, 54, 68
1, 1246319, Note_off_c, 0, 50, 67
1, 1246322, Note_off_c, 0, 47, 68
1, 1246326, Note_off_c, 0, 58, 62
1, 1246327, Control_c, 0, 64, 35
1, 1246337, Note_off_c, 0, 70, 63
1, 1246342, Control_c, 0, 64, 0
1, 1246387, Note_on_c, 0, 59, 85
1, 1246388, Note_on_c, 0, 71, 75
1, 1246391, Note_on_c, 0, 54, 82
1, 1246391, Note_on_c, 0, 50, 76
1, 1246395, Note_on_c, 0, 47, 79
1, 1246415, Note_off_c, 0, 54, 66
1, 1246418, Note_off_c, 0, 50, 67
1, 1246422, Note_off_c, 0, 59, 62
1, 1246425, Note_off_c, 0, 47, 67
1, 1246429, Note_off_c, 0, 71, 62
1, 1246475, Note_on_c, 0, 71, 70
1, 1246476, Note_on_c, 0, 59, 81
1, 1246480, Note_on_c, 0, 54, 78
1, 1246484, Note_on_c, 0, 50, 77
1, 1246490, Note_on_c, 0, 47, 76
1, 1246498, Note_off_c, 0, 59, 71
1, 1246506, Note_off_c, 0, 54, 67
1, 1246507, Note_off_c, 0, 71, 64
1, 1246513, Note_off_c, 0, 50, 65
1, 1246518, Note_off_c, 0, 47, 66
1, 1246568, Note_on_c, 0, 73, 91
1, 1246570, Note_on_c, 0, 61, 87
1, 1246573, Note_on_c, 0, 47, 80
1, 1246575, Note_on_c, 0, 54, 78
1, 1246581, Note_on_c, 0, 50, 77
1, 1246594, Note_off_c, 0, 61, 65
1, 1246598, Note_off_c, 0, 54, 66
1, 1246603, Note_off_c, 0, 47, 67
1, 1246605, Note_off_c, 0, 50, 67
1, 1246607, Note_off_c, 0, 73, 63
1, 1246656, Note_on_c, 0, 62, 96
1, 1246659, Note_on_c, 0, 74, 95
1, 1246660, Note_on_c, 0, 55, 97
1, 1246662, Note_on_c, 0, 50, 80
1, 1246665, Note_on_c, 0, 43, 85
1, 1246665, Note_on_c, 0, 47, 79
1, 1246695, Note_off_c, 0, 50, 62
1, 1246698, Note_off_c, 0, 74, 69
1, 1246700, Note_off_c, 0, 62, 64
1, 1246722, Note_off_c, 0, 47, 61
1, 1246737, Note_off_c, 0, 55, 58
1, 1246740, Note_off_c, 0, 43, 55
1, 1246877, Note_on_c, 0, 74, 91
1, 1246880, Note_on_c, 0, 55, 88
1, 1246880, Note_on_c, 0, 62, 96
1, 1246883, Note_on_c, 0, 47, 81
1, 1246886, Note_on_c, 0, 50, 74
1, 1246889, Note_on_c, 0, 43, 70
1, 1246925, Note_off_c, 0, 55, 62
1, 1246925, Note_off_c, 0, 62, 63
1, 1246927, Note_off_c, 0, 74, 68
1, 1246928, Note_off_c, 0, 50, 51
1, 1246960, Note_off_c, 0, 47, 60
1, 1246964, Note_off_c, 0, 43, 49
1, 1247086, Note_on_c, 0, 62, 93
1, 1247086, Note_on_c, 0, 74, 90
1, 1247087, Note_on_c, 0, 55, 90
1, 1247088, Note_on_c, 0, 47, 77
1, 1247088, Note_on_c, 0, 50, 74
1, 1247090, Note_on_c, 0, 43, 77
1, 1247134, Note_off_c, 0, 55, 63
1, 1247137, Note_off_c, 0, 50, 60
1, 1247142, Note_off_c, 0, 62, 58
1, 1247151, Note_off_c, 0, 74, 60
1, 1247166, Note_off_c, 0, 47, 64
1, 1247180, Note_off_c, 0, 43, 62
1, 1247303, Note_on_c, 0, 49, 93
1, 1247303, Note_on_c, 0, 76, 91
1, 1247304, Note_on_c, 0, 52, 99
1, 1247304, Note_on_c, 0, 64, 93
1, 1247306, Note_on_c, 0, 46, 91
1, 1247306, Note_on_c, 0, 67, 86
1, 1247308, Note_on_c, 0, 70, 88
1, 1247310, Note_on_c, 0, 40, 83
1, 1247329, Note_off_c, 0, 52, 67
1, 1247345, Note_off_c, 0, 40, 62
1, 1247354, Note_off_c, 0, 46, 58
1, 1247363, Note_off_c, 0, 49, 52
1, 1247376, Note_off_c, 0, 64, 51
1, 1247378, Note_off_c, 0, 67, 43
1, 1247390, Note_off_c, 0, 76, 61
1, 1247404, Note_off_c, 0, 70, 60
1, 1247535, Note_on_c, 0, 70, 81
1, 1247536, Note_on_c, 0, 64, 98
1, 1247536, Note_on_c, 0, 76, 94
1, 1247539, Note_on_c, 0, 49, 92
1, 1247539, Note_on_c, 0, 52, 100
1, 1247540, Note_on_c, 0, 46, 94
1, 1247540, Note_on_c, 0, 67, 85
1, 1247544, Note_on_c, 0, 40, 85
1, 1247565, Note_on_c, 0, 73, 52
1, 1247588, Note_off_c, 0, 73, 61
1, 1247595, Note_off_c, 0, 52, 52
1, 1247595, Note_off_c, 0, 67, 62
1, 1247602, Note_off_c, 0, 46, 52
1, 1247602, Note_off_c, 0, 49, 60
1, 1247621, Note_off_c, 0, 40, 54
1, 1247628, Note_off_c, 0, 64, 55
1, 1247651, Note_off_c, 0, 76, 49
1, 1247756, Note_off_c, 0, 70, 29
1, 1247808, Note_on_c, 0, 69, 89
1, 1247810, Note_on_c, 0, 64, 96
1, 1247810, Note_on_c, 0, 67, 91
1, 1247811, Note_on_c, 0, 52, 100
1, 1247812, Note_on_c, 0, 40, 92
1, 1247812, Note_on_c, 0, 49, 94
1, 1247812, Note_on_c, 0, 76, 90
1, 1247813, Note_on_c, 0, 45, 85
1, 1247873, Note_off_c, 0, 52, 65
1, 1247879, Note_off_c, 0, 76, 67
1, 1247886, Note_off_c, 0, 40, 66
1, 1247908, Note_off_c, 0, 64, 62
1, 1247913, Note_off_c, 0, 67, 61
1, 1247915, Note_off_c, 0, 49, 62
1, 1247927, Note_off_c, 0, 45, 65
1, 1247941, Note_off_c, 0, 69, 67
1, 1248265, Note_on_c, 0, 69, 84
1, 1248265, Note_on_c, 0, 78, 92
1, 1248266, Note_on_c, 0, 66, 95
1, 1248268, Note_on_c, 0, 38, 89
1, 1248269, Note_on_c, 0, 50, 97
1, 1248273, Note_on_c, 0, 45, 87
1, 1248307, Control_c, 0, 64, 60
1, 1248322, Control_c, 0, 64, 81
1, 1248336, Control_c, 0, 64, 127
1, 1248418, Note_off_c, 0, 38, 64
1, 1248446, Note_off_c, 0, 50, 61
1, 1248467, Note_off_c, 0, 45, 63
1, 1248695, Note_off_c, 0, 66, 64
1, 1248710, Note_off_c, 0, 69, 59
1, 1248806, Note_off_c, 0, 78, 59
1, 1249026, Control_c, 0, 64, 65
1, 1249041, Control_c, 0, 64, 0
1, 1249178, Note_on_c, 0, 90, 76
1, 1249232, Note_on_c, 0, 78, 27
1, 1249234, Note_on_c, 0, 51, 49
1, 1249308, Control_c, 0, 64, 46
1, 1249323, Control_c, 0, 64, 61
1, 1249337, Control_c, 0, 64, 66
1, 1249352, Control_c, 0, 64, 73
1, 1249367, Control_c, 0, 64, 84
1, 1249382, Control_c, 0, 64, 101
1, 1249397, Control_c, 0, 64, 127
1, 1249464, Note_off_c, 0, 78, 43
1, 1249479, Note_off_c, 0, 90, 62
1, 1249577, Note_on_c, 0, 90, 82
1, 1249606, Note_on_c, 0, 78, 47
1, 1249617, Note_on_c, 0, 59, 41
1, 1249656, Note_off_c, 0, 78, 62
1, 1249955, Note_on_c, 0, 93, 77
1, 1250013, Control_c, 0, 64, 115
1, 1250013, Note_on_c, 0, 81, 42
1, 1250027, Control_c, 0, 64, 103
1, 1250036, Note_off_c, 0, 90, 42
1, 1250042, Control_c, 0, 64, 95
1, 1250057, Control_c, 0, 64, 87
1, 1250058, Note_on_c, 0, 66, 40
1, 1250072, Control_c, 0, 64, 79
1, 1250081, Note_off_c, 0, 59, 34
1, 1250087, Control_c, 0, 64, 72
1, 1250101, Control_c, 0, 64, 67
1, 1250116, Control_c, 0, 64, 62
1, 1250131, Control_c, 0, 64, 52
1, 1250146, Control_c, 0, 64, 0
1, 1250153, Note_off_c, 0, 51, 62
1, 1250293, Control_c, 0, 64, 58
1, 1250308, Control_c, 0, 64, 67
1, 1250308, Control_c, 0, 67, 8
1, 1250323, Control_c, 0, 64, 71
1, 1250323, Control_c, 0, 67, 13
1, 1250338, Control_c, 0, 64, 75
1, 1250338, Control_c, 0, 67, 18
1, 1250346, Note_on_c, 0, 52, 47
1, 1250353, Control_c, 0, 64, 79
1, 1250353, Control_c, 0, 67, 24
1, 1250368, Control_c, 0, 64, 81
1, 1250368, Control_c, 0, 67, 29
1, 1250383, Control_c, 0, 67, 35
1, 1250390, Note_off_c, 0, 93, 58
1, 1250392, Note_off_c, 0, 81, 58
1, 1250398, Control_c, 0, 67, 39
1, 1250413, Control_c, 0, 67, 44
1, 1250427, Note_off_c, 0, 66, 37
1, 1250428, Control_c, 0, 67, 49
1, 1250450, Control_c, 0, 67, 54
1, 1250465, Control_c, 0, 67, 59
1, 1250480, Control_c, 0, 67, 63
1, 1250495, Control_c, 0, 67, 66
1, 1250509, Control_c, 0, 67, 69
1, 1250524, Control_c, 0, 67, 70
1, 1250539, Control_c, 0, 67, 72
1, 1250551, Note_on_c, 0, 91, 62
1, 1250554, Control_c, 0, 67, 74
1, 1250562, Note_on_c, 0, 79, 53
1, 1250569, Control_c, 0, 67, 77
1, 1250583, Note_off_c, 0, 79, 58
1, 1250583, Control_c, 0, 67, 81
1, 1250584, Note_on_c, 0, 59, 47
1, 1250584, Note_off_c, 0, 91, 60
1, 1250598, Control_c, 0, 67, 84
1, 1250613, Control_c, 0, 67, 87
1, 1250628, Control_c, 0, 67, 90
1, 1250643, Control_c, 0, 67, 93
1, 1250656, Note_on_c, 0, 90, 77
1, 1250657, Control_c, 0, 67, 95
1, 1250667, Note_on_c, 0, 78, 61
1, 1250672, Control_c, 0, 67, 97
1, 1250681, Note_off_c, 0, 90, 65
1, 1250687, Control_c, 0, 67, 99
1, 1250690, Note_off_c, 0, 78, 58
1, 1250701, Control_c, 0, 67, 102
1, 1250714, Note_off_c, 0, 52, 35
1, 1250716, Control_c, 0, 67, 105
1, 1250731, Control_c, 0, 67, 107
1, 1250746, Control_c, 0, 67, 109
1, 1250758, Note_on_c, 0, 78, 67
1, 1250760, Note_off_c, 0, 59, 61
1, 1250761, Control_c, 0, 64, 80
1, 1250761, Control_c, 0, 67, 110
1, 1250763, Note_on_c, 0, 90, 62
1, 1250774, Note_off_c, 0, 78, 66
1, 1250776, Control_c, 0, 67, 111
1, 1250781, Note_off_c, 0, 90, 63
1, 1250784, Note_on_c, 0, 67, 55
1, 1250791, Control_c, 0, 64, 80
1, 1250806, Control_c, 0, 67, 111
1, 1250821, Control_c, 0, 64, 79
1, 1250821, Control_c, 0, 67, 112
1, 1250836, Control_c, 0, 64, 79
1, 1250836, Control_c, 0, 67, 113
1, 1250838, Note_on_c, 0, 88, 67
1, 1250840, Note_on_c, 0, 76, 74
1, 1250850, Control_c, 0, 64, 78
1, 1250850, Control_c, 0, 67, 114
1, 1250865, Control_c, 0, 64, 77
1, 1250865, Control_c, 0, 67, 115
1, 1250866, Note_off_c, 0, 76, 66
1, 1250868, Note_off_c, 0, 88, 63
1, 1250880, Control_c, 0, 64, 75
1, 1250895, Control_c, 0, 64, 72
1, 1250895, Control_c, 0, 67, 116
1, 1250909, Control_c, 0, 64, 68
1, 1250909, Control_c, 0, 67, 117
1, 1250924, Control_c, 0, 64, 60
1, 1250924, Control_c, 0, 67, 119
1, 1250939, Control_c, 0, 64, 33
1, 1250939, Control_c, 0, 67, 122
1, 1250952, Note_off_c, 0, 67, 61
1, 1250954, Control_c, 0, 64, 0
1, 1250954, Control_c, 0, 67, 127
1, 1250957, Note_on_c, 0, 86, 70
1, 1250960, Note_on_c, 0, 74, 68
1, 1250970, Note_on_c, 0, 54, 42
1, 1250990, Note_off_c, 0, 74, 66
1, 1250994, Note_off_c, 0, 86, 62
1, 1251145, Note_on_c, 0, 74, 62
1, 1251147, Note_on_c, 0, 86, 57
1, 1251151, Note_on_c, 0, 66, 59
1, 1251168, Note_off_c, 0, 74, 66
1, 1251168, Note_off_c, 0, 86, 60
1, 1251208, Note_off_c, 0, 66, 62
1, 1251232, Note_on_c, 0, 88, 77
1, 1251235, Note_off_c, 0, 54, 57
1, 1251244, Note_on_c, 0, 76, 64
1, 1251263, Note_off_c, 0, 76, 66
1, 1251271, Note_off_c, 0, 88, 61
1, 1251342, Note_on_c, 0, 58, 42
1, 1251345, Note_on_c, 0, 64, 42
1, 1251347, Note_on_c, 0, 85, 79
1, 1251352, Note_on_c, 0, 54, 26
1, 1251362, Note_on_c, 0, 73, 61
1, 1251399, Note_off_c, 0, 73, 57
1, 1251408, Note_off_c, 0, 85, 64
1, 1251569, Note_off_c, 0, 58, 50
1, 1251579, Note_on_c, 0, 83, 65
1, 1251603, Note_on_c, 0, 59, 46
1, 1251605, Note_on_c, 0, 71, 46
1, 1251610, Note_off_c, 0, 54, 45
1, 1251612, Note_off_c, 0, 64, 43
1, 1251807, Note_on_c, 0, 62, 62
1, 1251855, Note_off_c, 0, 71, 56
1, 1251949, Note_off_c, 0, 83, 52
1, 1252025, Note_on_c, 0, 74, 69
1, 1252034, Note_on_c, 0, 66, 48
1, 1252082, Note_off_c, 0, 59, 59
1, 1252104, Note_off_c, 0, 62, 36
1, 1252278, Note_on_c, 0, 82, 73
1, 1252296, Note_on_c, 0, 54, 50
1, 1252305, Note_off_c, 0, 66, 61
1, 1252310, Note_off_c, 0, 74, 61
1, 1252486, Note_on_c, 0, 66, 56
1, 1252488, Note_on_c, 0, 74, 58
1, 1252513, Note_off_c, 0, 66, 68
1, 1252518, Note_off_c, 0, 74, 67
1, 1252576, Note_on_c, 0, 76, 68
1, 1252595, Note_on_c, 0, 67, 48
1, 1252620, Note_off_c, 0, 67, 58
1, 1252629, Note_off_c, 0, 76, 55
1, 1252699, Note_on_c, 0, 73, 66
1, 1252705, Note_on_c, 0, 64, 65
1, 1252761, Note_off_c, 0, 64, 62
1, 1252766, Note_off_c, 0, 73, 60
1, 1252918, Note_on_c, 0, 83, 64
1, 1252945, Note_off_c, 0, 54, 50
1, 1252946, Note_on_c, 0, 71, 47
1, 1252951, Note_on_c, 0, 59, 46
1, 1252954, Note_off_c, 0, 82, 35
1, 1252956, Note_on_c, 0, 62, 43
1, 1252964, Control_c, 0, 64, 54
1, 1252978, Control_c, 0, 64, 69
1, 1252993, Control_c, 0, 64, 78
1, 1252997, Note_off_c, 0, 62, 62
1, 1253008, Control_c, 0, 64, 85
1, 1253009, Note_off_c, 0, 59, 62
1, 1253023, Control_c, 0, 64, 87
1, 1253038, Control_c, 0, 64, 91
1, 1253038, Note_off_c, 0, 71, 62
1, 1253052, Control_c, 0, 64, 92
1, 1253067, Control_c, 0, 64, 93
1, 1253082, Control_c, 0, 64, 94
1, 1253121, Note_off_c, 0, 83, 60
1, 1253126, Control_c, 0, 64, 93
1, 1253141, Control_c, 0, 64, 87
1, 1253156, Control_c, 0, 64, 74
1, 1253158, Note_on_c, 0, 71, 62
1, 1253170, Control_c, 0, 64, 61
1, 1253185, Control_c, 0, 64, 0
1, 1253375, Note_on_c, 0, 90, 84
1, 1253389, Note_off_c, 0, 71, 58
1, 1253399, Note_on_c, 0, 74, 38
1, 1253405, Note_on_c, 0, 78, 57
1, 1253632, Note_on_c, 0, 66, 49
1, 1253682, Note_off_c, 0, 78, 61
1, 1253692, Note_off_c, 0, 74, 55
1, 1253702, Note_off_c, 0, 90, 60
1, 1253834, Note_on_c, 0, 90, 68
1, 1253841, Note_on_c, 0, 78, 63
1, 1253849, Note_on_c, 0, 70, 54
1, 1253861, Note_off_c, 0, 78, 67
1, 1253871, Note_off_c, 0, 90, 58
1, 1253929, Note_on_c, 0, 91, 64
1, 1253933, Note_on_c, 0, 79, 61
1, 1253948, Note_off_c, 0, 91, 60
1, 1253956, Note_off_c, 0, 79, 64
1, 1253978, Note_off_c, 0, 70, 59
1, 1254036, Note_on_c, 0, 73, 49
1, 1254037, Note_on_c, 0, 88, 71
1, 1254047, Note_on_c, 0, 76, 62
1, 1254087, Note_off_c, 0, 73, 61
1, 1254091, Note_off_c, 0, 76, 55
1, 1254106, Note_off_c, 0, 88, 60
1, 1254252, Note_off_c, 0, 66, 61
1, 1254278, Note_on_c, 0, 86, 53
1, 1254284, Note_on_c, 0, 71, 46
1, 1254294, Note_on_c, 0, 59, 44
1, 1254299, Note_on_c, 0, 74, 39
1, 1254492, Note_off_c, 0, 71, 57
1, 1254533, Note_on_c, 0, 62, 44
1, 1254580, Note_off_c, 0, 74, 58
1, 1254615, Note_off_c, 0, 86, 47
1, 1254728, Note_on_c, 0, 74, 48
1, 1254733, Note_on_c, 0, 66, 58
1, 1254741, Note_off_c, 0, 62, 60
1, 1254743, Note_off_c, 0, 59, 62
1, 1255004, Note_on_c, 0, 82, 52
1, 1255008, Note_on_c, 0, 54, 40
1, 1255011, Note_off_c, 0, 74, 62
1, 1255015, Note_off_c, 0, 66, 63
1, 1255233, Note_on_c, 0, 74, 48
1, 1255237, Note_on_c, 0, 66, 53
1, 1255263, Note_off_c, 0, 74, 61
1, 1255270, Note_off_c, 0, 66, 67
1, 1255342, Note_on_c, 0, 67, 46
1, 1255348, Note_on_c, 0, 76, 48
1, 1255367, Note_off_c, 0, 67, 57
1, 1255374, Note_off_c, 0, 76, 59
1, 1255479, Note_on_c, 0, 73, 52
1, 1255490, Note_on_c, 0, 64, 46
1, 1255542, Note_off_c, 0, 64, 58
1, 1255563, Note_off_c, 0, 73, 60
1, 1255902, Note_on_c, 0, 83, 38
1, 1255911, Note_off_c, 0, 54, 37
1, 1255935, Note_on_c, 0, 59, 28
1, 1255940, Note_on_c, 0, 62, 37
1, 1255948, Note_on_c, 0, 71, 32
1, 1255948, Note_off_c, 0, 82, 39
1, 1256107, Control_c, 0, 64, 39
1, 1256121, Control_c, 0, 64, 58
1, 1256136, Control_c, 0, 64, 63
1, 1256151, Control_c, 0, 64, 66
1, 1256166, Control_c, 0, 64, 71
1, 1256181, Control_c, 0, 64, 80
1, 1256184, Note_off_c, 0, 62, 42
1, 1256195, Control_c, 0, 64, 95
1, 1256210, Control_c, 0, 64, 119
1, 1256225, Control_c, 0, 64, 127
1, 1256235, Note_off_c, 0, 59, 43
1, 1256317, Note_off_c, 0, 71, 51
1, 1256431, Note_off_c, 0, 83, 27
1, 1256870, Control_c, 0, 64, 115
1, 1256885, Control_c, 0, 64, 97
1, 1256900, Control_c, 0, 64, 86
1, 1256915, Control_c, 0, 64, 78
1, 1256930, Control_c, 0, 64, 71
1, 1256944, Control_c, 0, 64, 63
1, 1256959, Control_c, 0, 64, 26
1, 1256974, Control_c, 0, 64, 0
1, 1258306, Control_c, 0, 67, 125
1, 1258321, Control_c, 0, 67, 118
1, 1258336, Control_c, 0, 67, 110
1, 1258351, Control_c, 0, 67, 102
1, 1258367, Control_c, 0, 67, 94
1, 1258382, Control_c, 0, 67, 88
1, 1258396, Control_c, 0, 67, 80
1, 1258411, Control_c, 0, 67, 75
1, 1258426, Control_c, 0, 67, 70
1, 1258441, Control_c, 0, 67, 64
1, 1258456, Control_c, 0, 67, 59
1, 1258470, Control_c, 0, 67, 53
1, 1258485, Control_c, 0, 67, 46
1, 1258500, Control_c, 0, 67, 39
1, 1258514, Control_c, 0, 67, 33
1, 1258529, Control_c, 0, 67, 29
1, 1258544, Control_c, 0, 67, 24
1, 1258559, Control_c, 0, 67, 19
1, 1258574, Control_c, 0, 67, 15
1, 1258589, Control_c, 0, 67, 9
1, 1258604, Control_c, 0, 67, 0
1, 1259040, Control_c, 0, 64, 8
1, 1259055, Control_c, 0, 64, 12
1, 1259070, Control_c, 0, 64, 17
1, 1259085, Control_c, 0, 64, 19
1, 1259160, Control_c, 0, 64, 20
1, 1259175, Control_c, 0, 64, 21
1, 1259190, Control_c, 0, 64, 23
1, 1259219, Control_c, 0, 64, 23
1, 1259249, Control_c, 0, 64, 21
1, 1259263, Control_c, 0, 64, 19
1, 1259278, Control_c, 0, 64, 17
1, 1259293, Control_c, 0, 64, 15
1, 1259323, Control_c, 0, 64, 14
1, 1259337, Control_c, 0, 64, 10
1, 1259352, Control_c, 0, 64, 8
1, 1259367, Control_c, 0, 64, 0
1, 1260628, Control_c, 0, 64, 21
1, 1260643, Control_c, 0, 64, 28
1, 1260658, Control_c, 0, 64, 34
1, 1260672, Control_c, 0, 64, 39
1, 1260687, Control_c, 0, 64, 45
1, 1260702, Control_c, 0, 64, 49
1, 1260717, Control_c, 0, 64, 52
1, 1260732, Control_c, 0, 64, 55
1, 1260747, Control_c, 0, 64, 57
1, 1260762, Control_c, 0, 64, 59
1, 1260777, Control_c, 0, 64, 61
1, 1260792, Control_c, 0, 64, 62
1, 1260807, Control_c, 0, 64, 63
1, 1260822, Control_c, 0, 64, 64
1, 1260836, Control_c, 0, 64, 64
1, 1260851, Control_c, 0, 64, 66
1, 1260866, Control_c, 0, 64, 69
1, 1260881, Control_c, 0, 64, 74
1, 1260896, Control_c, 0, 64, 81
1, 1260910, Control_c, 0, 64, 87
1, 1260932, Control_c, 0, 64, 95
1, 1260947, Control_c, 0, 64, 104
1, 1260962, Control_c, 0, 64, 127
1, 1261050, Note_on_c, 0, 73, 60
1, 1261161, Note_on_c, 0, 76, 62
1, 1261165, Note_on_c, 0, 43, 44
1, 1261214, Note_off_c, 0, 73, 52
1, 1261230, Note_off_c, 0, 76, 64
1, 1261243, Note_on_c, 0, 50, 46
1, 1261288, Control_c, 0, 67, 8
1, 1261303, Control_c, 0, 67, 10
1, 1261317, Control_c, 0, 67, 12
1, 1261332, Control_c, 0, 67, 14
1, 1261347, Control_c, 0, 67, 14
1, 1261362, Control_c, 0, 67, 15
1, 1261420, Note_on_c, 0, 74, 65
1, 1261421, Control_c, 0, 67, 15
1, 1261436, Control_c, 0, 67, 16
1, 1261451, Control_c, 0, 64, 106
1, 1261451, Control_c, 0, 67, 18
1, 1261451, Note_on_c, 0, 62, 47
1, 1261465, Control_c, 0, 64, 97
1, 1261465, Control_c, 0, 67, 21
1, 1261480, Control_c, 0, 64, 91
1, 1261480, Control_c, 0, 67, 23
1, 1261495, Control_c, 0, 64, 86
1, 1261495, Control_c, 0, 67, 24
1, 1261498, Note_on_c, 0, 59, 47
1, 1261510, Control_c, 0, 64, 82
1, 1261510, Control_c, 0, 67, 25
1, 1261525, Control_c, 0, 64, 78
1, 1261540, Control_c, 0, 64, 72
1, 1261555, Control_c, 0, 64, 68
1, 1261555, Control_c, 0, 67, 25
1, 1261570, Control_c, 0, 64, 64
1, 1261585, Control_c, 0, 64, 56
1, 1261600, Control_c, 0, 64, 26
1, 1261614, Control_c, 0, 64, 0
1, 1261710, Control_c, 0, 67, 26
1, 1261755, Control_c, 0, 64, 17
1, 1261769, Control_c, 0, 64, 42
1, 1261784, Control_c, 0, 64, 49
1, 1261799, Control_c, 0, 64, 52
1, 1261799, Control_c, 0, 67, 26
1, 1261814, Control_c, 0, 64, 55
1, 1261829, Control_c, 0, 64, 58
1, 1261829, Control_c, 0, 67, 27
1, 1261844, Control_c, 0, 64, 60
1, 1261858, Control_c, 0, 64, 61
1, 1261873, Control_c, 0, 64, 62
1, 1261873, Control_c, 0, 67, 28
1, 1261888, Control_c, 0, 64, 62
1, 1261888, Control_c, 0, 67, 31
1, 1261903, Control_c, 0, 64, 63
1, 1261903, Control_c, 0, 67, 34
1, 1261918, Control_c, 0, 64, 64
1, 1261918, Control_c, 0, 67, 36
1, 1261932, Control_c, 0, 64, 66
1, 1261932, Control_c, 0, 67, 37
1, 1261947, Control_c, 0, 64, 69
1, 1261947, Control_c, 0, 67, 38
1, 1261962, Control_c, 0, 64, 73
1, 1261962, Control_c, 0, 67, 38
1, 1261977, Control_c, 0, 64, 78
1, 1261977, Control_c, 0, 67, 39
1, 1261992, Control_c, 0, 64, 81
1, 1262006, Control_c, 0, 64, 84
1, 1262006, Control_c, 0, 67, 40
1, 1262021, Control_c, 0, 64, 86
1, 1262021, Control_c, 0, 67, 42
1, 1262036, Control_c, 0, 64, 89
1, 1262036, Control_c, 0, 67, 45
1, 1262051, Control_c, 0, 64, 90
1, 1262051, Control_c, 0, 67, 48
1, 1262065, Control_c, 0, 64, 91
1, 1262065, Control_c, 0, 67, 49
1, 1262080, Control_c, 0, 64, 91
1, 1262080, Control_c, 0, 67, 51
1, 1262095, Control_c, 0, 67, 52
1, 1262110, Control_c, 0, 67, 53
1, 1262125, Control_c, 0, 67, 54
1, 1262139, Control_c, 0, 67, 55
1, 1262169, Control_c, 0, 67, 55
1, 1262184, Control_c, 0, 67, 56
1, 1262193, Note_on_c, 0, 72, 57
1, 1262209, Note_off_c, 0, 74, 39
1, 1262214, Control_c, 0, 67, 56
1, 1262229, Control_c, 0, 67, 57
1, 1262243, Control_c, 0, 67, 58
1, 1262244, Note_off_c, 0, 59, 45
1, 1262258, Control_c, 0, 67, 58
1, 1262271, Note_off_c, 0, 62, 39
1, 1262273, Control_c, 0, 67, 59
1, 1262287, Note_on_c, 0, 71, 61
1, 1262288, Control_c, 0, 64, 91
1, 1262288, Control_c, 0, 67, 59
1, 1262293, Note_off_c, 0, 72, 54
1, 1262303, Control_c, 0, 67, 60
1, 1262332, Control_c, 0, 64, 90
1, 1262347, Control_c, 0, 64, 90
1, 1262347, Control_c, 0, 67, 60
1, 1262363, Control_c, 0, 64, 89
1, 1262372, Note_off_c, 0, 71, 60
1, 1262378, Control_c, 0, 64, 82
1, 1262386, Note_on_c, 0, 69, 61
1, 1262392, Note_on_c, 0, 62, 50
1, 1262392, Control_c, 0, 64, 68
1, 1262407, Note_on_c, 0, 60, 50
1, 1262407, Control_c, 0, 64, 47
1, 1262422, Control_c, 0, 64, 0
1, 1262422, Control_c, 0, 67, 61
1, 1262489, Control_c, 0, 64, 49
1, 1262489, Control_c, 0, 67, 61
1, 1262494, Note_on_c, 0, 71, 62
1, 1262496, Note_off_c, 0, 69, 58
1, 1262504, Control_c, 0, 64, 64
1, 1262519, Control_c, 0, 64, 68
1, 1262519, Control_c, 0, 67, 62
1, 1262534, Control_c, 0, 64, 70
1, 1262534, Control_c, 0, 67, 63
1, 1262549, Control_c, 0, 64, 72
1, 1262549, Control_c, 0, 67, 64
1, 1262578, Control_c, 0, 64, 72
1, 1262578, Control_c, 0, 67, 64
1, 1262582, Note_off_c, 0, 71, 56
1, 1262585, Note_off_c, 0, 60, 59
1, 1262593, Note_on_c, 0, 72, 63
1, 1262623, Control_c, 0, 67, 65
1, 1262652, Control_c, 0, 64, 72
1, 1262677, Note_off_c, 0, 72, 64
1, 1262687, Note_on_c, 0, 74, 57
1, 1262697, Control_c, 0, 64, 71
1, 1262711, Control_c, 0, 64, 70
1, 1262726, Control_c, 0, 64, 69
1, 1262741, Control_c, 0, 64, 65
1, 1262756, Control_c, 0, 64, 60
1, 1262771, Control_c, 0, 64, 37
1, 1262776, Note_off_c, 0, 74, 61
1, 1262780, Note_on_c, 0, 57, 56
1, 1262784, Note_on_c, 0, 72, 67
1, 1262786, Control_c, 0, 64, 0
1, 1262815, Control_c, 0, 67, 65
1, 1262830, Control_c, 0, 67, 66
1, 1262840, Note_off_c, 0, 72, 61
1, 1262860, Control_c, 0, 67, 67
1, 1262875, Control_c, 0, 67, 69
1, 1262889, Control_c, 0, 67, 70
1, 1262904, Control_c, 0, 67, 70
1, 1262919, Control_c, 0, 67, 71
1, 1262934, Control_c, 0, 67, 72
1, 1262949, Control_c, 0, 67, 73
1, 1262963, Control_c, 0, 67, 74
1, 1262978, Control_c, 0, 67, 75
1, 1262986, Note_on_c, 0, 69, 65
1, 1262993, Control_c, 0, 67, 76
1, 1262995, Note_on_c, 0, 54, 51
1, 1263007, Control_c, 0, 67, 76
1, 1263015, Note_off_c, 0, 57, 42
1, 1263022, Control_c, 0, 67, 77
1, 1263026, Note_off_c, 0, 54, 63
1, 1263037, Control_c, 0, 67, 77
1, 1263041, Note_off_c, 0, 50, 58
1, 1263042, Note_off_c, 0, 69, 65
1, 1263048, Note_off_c, 0, 62, 43
1, 1263052, Control_c, 0, 67, 78
1, 1263073, Note_off_c, 0, 43, 40
1, 1263081, Control_c, 0, 67, 78
1, 1263096, Control_c, 0, 67, 79
1, 1263126, Control_c, 0, 67, 79
1, 1263215, Note_on_c, 0, 71, 53
1, 1263232, Note_on_c, 0, 50, 27
1, 1263238, Note_on_c, 0, 62, 45
1, 1263238, Control_c, 0, 67, 79
1, 1263245, Note_on_c, 0, 43, 31
1, 1263249, Note_on_c, 0, 55, 37
1, 1263268, Control_c, 0, 67, 78
1, 1263283, Control_c, 0, 67, 77
1, 1263298, Control_c, 0, 67, 77
1, 1263312, Control_c, 0, 67, 76
1, 1263327, Control_c, 0, 64, 23
1, 1263327, Control_c, 0, 67, 75
1, 1263342, Control_c, 0, 64, 43
1, 1263342, Control_c, 0, 67, 74
1, 1263357, Control_c, 0, 64, 54
1, 1263357, Control_c, 0, 67, 73
1, 1263372, Control_c, 0, 64, 58
1, 1263372, Control_c, 0, 67, 73
1, 1263386, Control_c, 0, 64, 61
1, 1263386, Control_c, 0, 67, 72
1, 1263401, Control_c, 0, 64, 62
1, 1263416, Control_c, 0, 64, 63
1, 1263416, Control_c, 0, 67, 71
1, 1263430, Control_c, 0, 64, 63
1, 1263443, Note_on_c, 0, 67, 50
1, 1263445, Control_c, 0, 64, 64
1, 1263453, Note_on_c, 0, 47, 43
1, 1263460, Control_c, 0, 64, 63
1, 1263466, Note_off_c, 0, 71, 62
1, 1263475, Control_c, 0, 64, 61
1, 1263475, Control_c, 0, 67, 72
1, 1263490, Control_c, 0, 64, 42
1, 1263490, Control_c, 0, 67, 73
1, 1263491, Note_off_c, 0, 67, 61
1, 1263498, Note_off_c, 0, 62, 56
1, 1263501, Note_off_c, 0, 43, 53
1, 1263504, Control_c, 0, 64, 0
1, 1263504, Control_c, 0, 67, 74
1, 1263507, Note_off_c, 0, 47, 65
1, 1263507, Note_off_c, 0, 55, 56
1, 1263508, Note_off_c, 0, 50, 58
1, 1263519, Control_c, 0, 67, 75
1, 1263534, Control_c, 0, 67, 76
1, 1263549, Control_c, 0, 67, 76
1, 1263564, Control_c, 0, 67, 77
1, 1263594, Control_c, 0, 67, 77
1, 1263609, Control_c, 0, 64, 43
1, 1263609, Control_c, 0, 67, 78
1, 1263623, Control_c, 0, 64, 54
1, 1263638, Control_c, 0, 64, 56
1, 1263638, Control_c, 0, 67, 78
1, 1263653, Control_c, 0, 67, 79
1, 1263668, Control_c, 0, 64, 56
1, 1263719, Note_on_c, 0, 55, 49
1, 1263722, Note_on_c, 0, 59, 58
1, 1263722, Note_on_c, 0, 50, 48
1, 1263722, Note_on_c, 0, 62, 62
1, 1263753, Note_off_c, 0, 62, 64
1, 1263756, Note_off_c, 0, 50, 57
1, 1263767, Note_off_c, 0, 59, 53
1, 1263796, Note_off_c, 0, 55, 0
1, 1263801, Control_c, 0, 64, 56
1, 1263813, Note_on_c, 0, 50, 44
1, 1263815, Note_on_c, 0, 55, 43
1, 1263820, Note_on_c, 0, 59, 42
1, 1263823, Note_on_c, 0, 62, 57
1, 1263830, Control_c, 0, 64, 55
1, 1263841, Note_off_c, 0, 50, 60
1, 1263845, Control_c, 0, 64, 55
1, 1263845, Control_c, 0, 67, 78
1, 1263851, Note_off_c, 0, 55, 57
1, 1263852, Note_off_c, 0, 62, 54
1, 1263870, Note_off_c, 0, 59, 41
1, 1263898, Note_on_c, 0, 62, 63
1, 1263903, Note_on_c, 0, 55, 45
1, 1263904, Control_c, 0, 64, 54
1, 1263904, Control_c, 0, 67, 77
1, 1263906, Note_on_c, 0, 59, 43
1, 1263907, Note_on_c, 0, 50, 48
1, 1263941, Note_off_c, 0, 50, 59
1, 1263941, Note_off_c, 0, 55, 59
1, 1263941, Note_off_c, 0, 62, 59
1, 1263942, Control_c, 0, 64, 54
1, 1263942, Control_c, 0, 67, 77
1, 1263949, Note_off_c, 0, 59, 52
1, 1263957, Control_c, 0, 64, 53
1, 1263972, Control_c, 0, 64, 53
1, 1263972, Control_c, 0, 67, 76
1, 1263987, Control_c, 0, 67, 76
1, 1263990, Note_on_c, 0, 62, 56
1, 1263999, Note_on_c, 0, 59, 53
1, 1264004, Note_on_c, 0, 55, 50
1, 1264008, Note_on_c, 0, 50, 48
1, 1264017, Control_c, 0, 64, 52
1, 1264031, Note_off_c, 0, 55, 58
1, 1264033, Note_off_c, 0, 50, 58
1, 1264037, Note_off_c, 0, 59, 51
1, 1264037, Note_off_c, 0, 62, 55
1, 1264047, Control_c, 0, 64, 52
1, 1264047, Control_c, 0, 67, 75
1, 1264089, Note_on_c, 0, 62, 46
1, 1264091, Control_c, 0, 64, 51
1, 1264100, Note_on_c, 0, 59, 47
1, 1264106, Control_c, 0, 64, 50
1, 1264106, Control_c, 0, 67, 75
1, 1264118, Note_on_c, 0, 55, 48
1, 1264135, Note_on_c, 0, 50, 32
1, 1264135, Control_c, 0, 64, 50
1, 1264150, Control_c, 0, 64, 49
1, 1264150, Control_c, 0, 67, 74
1, 1264165, Control_c, 0, 64, 49
1, 1264180, Control_c, 0, 64, 48
1, 1264195, Control_c, 0, 64, 47
1, 1264195, Control_c, 0, 67, 74
1, 1264209, Control_c, 0, 64, 45
1, 1264224, Control_c, 0, 64, 43
1, 1264239, Control_c, 0, 64, 41
1, 1264239, Control_c, 0, 67, 73
1, 1264253, Control_c, 0, 64, 38
1, 1264253, Control_c, 0, 67, 73
1, 1264268, Control_c, 0, 64, 34
1, 1264268, Control_c, 0, 67, 72
1, 1264283, Control_c, 0, 64, 30
1, 1264283, Control_c, 0, 67, 72
1, 1264298, Control_c, 0, 64, 26
1, 1264313, Control_c, 0, 64, 24
1, 1264313, Control_c, 0, 67, 71
1, 1264326, Note_off_c, 0, 59, 54
1, 1264327, Control_c, 0, 64, 23
1, 1264327, Control_c, 0, 67, 71
1, 1264341, Note_on_c, 0, 64, 45
1, 1264342, Control_c, 0, 64, 20
1, 1264342, Control_c, 0, 67, 70
1, 1264357, Control_c, 0, 64, 18
1, 1264357, Control_c, 0, 67, 70
1, 1264358, Note_off_c, 0, 62, 51
1, 1264372, Control_c, 0, 64, 14
1, 1264372, Control_c, 0, 67, 69
1, 1264373, Note_on_c, 0, 60, 32
1, 1264387, Control_c, 0, 64, 0
1, 1264402, Control_c, 0, 67, 68
1, 1264417, Control_c, 0, 67, 67
1, 1264431, Control_c, 0, 67, 67
1, 1264446, Control_c, 0, 67, 66
1, 1264461, Control_c, 0, 67, 64
1, 1264476, Control_c, 0, 67, 63
1, 1264491, Control_c, 0, 67, 62
1, 1264506, Control_c, 0, 67, 60
1, 1264521, Control_c, 0, 67, 58
1, 1264535, Control_c, 0, 67, 56
1, 1264540, Note_off_c, 0, 50, 51
1, 1264548, Note_on_c, 0, 62, 57
1, 1264550, Control_c, 0, 67, 53
1, 1264558, Note_off_c, 0, 64, 35
1, 1264565, Control_c, 0, 67, 51
1, 1264571, Note_on_c, 0, 59, 43
1, 1264573, Note_off_c, 0, 60, 43
1, 1264578, Note_off_c, 0, 55, 56
1, 1264579, Control_c, 0, 67, 49
1, 1264594, Control_c, 0, 67, 46
1, 1264605, Note_off_c, 0, 59, 63
1, 1264607, Note_off_c, 0, 62, 61
1, 1264609, Control_c, 0, 67, 44
1, 1264624, Control_c, 0, 67, 41
1, 1264639, Control_c, 0, 67, 38
1, 1264653, Control_c, 0, 67, 35
1, 1264668, Control_c, 0, 67, 34
1, 1264691, Control_c, 0, 67, 33
1, 1264735, Control_c, 0, 67, 34
1, 1264750, Control_c, 0, 67, 34
1, 1264765, Control_c, 0, 67, 35
1, 1264780, Control_c, 0, 67, 36
1, 1264795, Control_c, 0, 67, 37
1, 1264798, Note_on_c, 0, 79, 68
1, 1264810, Control_c, 0, 67, 37
1, 1264825, Control_c, 0, 67, 38
1, 1264840, Control_c, 0, 67, 39
1, 1264855, Control_c, 0, 67, 39
1, 1264870, Control_c, 0, 64, 8
1, 1264870, Control_c, 0, 67, 40
1, 1264884, Control_c, 0, 64, 46
1, 1264884, Control_c, 0, 67, 41
1, 1264899, Note_on_c, 0, 73, 71
1, 1264899, Control_c, 0, 64, 58
1, 1264899, Control_c, 0, 67, 41
1, 1264914, Note_on_c, 0, 43, 33
1, 1264914, Control_c, 0, 64, 63
1, 1264914, Control_c, 0, 67, 42
1, 1264929, Control_c, 0, 64, 66
1, 1264944, Control_c, 0, 64, 69
1, 1264944, Control_c, 0, 67, 42
1, 1264949, Note_off_c, 0, 79, 62
1, 1264958, Control_c, 0, 64, 74
1, 1264958, Control_c, 0, 67, 43
1, 1264973, Control_c, 0, 64, 78
1, 1264983, Note_off_c, 0, 73, 63
1, 1264983, Note_on_c, 0, 50, 48
1, 1264988, Control_c, 0, 64, 80
1, 1265106, Control_c, 0, 67, 42
1, 1265121, Control_c, 0, 64, 79
1, 1265136, Control_c, 0, 64, 78
1, 1265150, Control_c, 0, 64, 77
1, 1265156, Note_on_c, 0, 74, 64
1, 1265165, Control_c, 0, 64, 76
1, 1265165, Control_c, 0, 67, 42
1, 1265167, Note_on_c, 0, 59, 49
1, 1265180, Control_c, 0, 64, 74
1, 1265183, Note_on_c, 0, 62, 44
1, 1265195, Control_c, 0, 64, 72
1, 1265209, Control_c, 0, 64, 70
1, 1265209, Control_c, 0, 67, 42
1, 1265224, Control_c, 0, 64, 68
1, 1265239, Control_c, 0, 64, 66
1, 1265254, Control_c, 0, 64, 64
1, 1265254, Control_c, 0, 67, 42
1, 1265269, Control_c, 0, 64, 59
1, 1265284, Control_c, 0, 64, 40
1, 1265299, Control_c, 0, 64, 0
1, 1265373, Control_c, 0, 67, 41
1, 1265388, Control_c, 0, 67, 41
1, 1265417, Control_c, 0, 67, 40
1, 1265439, Control_c, 0, 64, 31
1, 1265454, Control_c, 0, 64, 43
1, 1265454, Control_c, 0, 67, 40
1, 1265469, Control_c, 0, 64, 45
1, 1265484, Control_c, 0, 64, 46
1, 1265499, Control_c, 0, 64, 48
1, 1265513, Control_c, 0, 64, 49
1, 1265528, Control_c, 0, 64, 50
1, 1265543, Control_c, 0, 64, 51
1, 1265559, Control_c, 0, 64, 53
1, 1265573, Control_c, 0, 64, 55
1, 1265588, Control_c, 0, 64, 56
1, 1265603, Control_c, 0, 64, 58
1, 1265618, Control_c, 0, 64, 60
1, 1265633, Control_c, 0, 64, 61
1, 1265648, Control_c, 0, 64, 62
1, 1265663, Control_c, 0, 64, 63
1, 1265677, Control_c, 0, 64, 64
1, 1265692, Control_c, 0, 64, 66
1, 1265707, Control_c, 0, 64, 69
1, 1265722, Control_c, 0, 64, 71
1, 1265737, Control_c, 0, 64, 72
1, 1265752, Control_c, 0, 64, 72
1, 1265781, Control_c, 0, 67, 40
1, 1265796, Control_c, 0, 67, 41
1, 1265840, Control_c, 0, 67, 41
1, 1265870, Control_c, 0, 67, 42
1, 1265872, Note_off_c, 0, 74, 58
1, 1265873, Note_on_c, 0, 72, 61
1, 1265885, Control_c, 0, 67, 42
1, 1265899, Control_c, 0, 67, 43
1, 1265925, Note_off_c, 0, 59, 36
1, 1265934, Note_off_c, 0, 62, 41
1, 1265944, Control_c, 0, 67, 43
1, 1265959, Control_c, 0, 67, 44
1, 1265969, Note_on_c, 0, 71, 61
1, 1265971, Note_off_c, 0, 72, 56
1, 1265988, Control_c, 0, 67, 44
1, 1266003, Control_c, 0, 67, 45
1, 1266018, Control_c, 0, 67, 45
1, 1266032, Control_c, 0, 64, 69
1, 1266032, Control_c, 0, 67, 47
1, 1266045, Note_off_c, 0, 71, 61
1, 1266047, Control_c, 0, 64, 62
1, 1266047, Control_c, 0, 67, 49
1, 1266062, Control_c, 0, 64, 8
1, 1266062, Control_c, 0, 67, 51
1, 1266063, Note_on_c, 0, 69, 58
1, 1266077, Note_on_c, 0, 62, 41
1, 1266077, Control_c, 0, 64, 0
1, 1266077, Control_c, 0, 67, 52
1, 1266082, Note_on_c, 0, 60, 55
1, 1266092, Control_c, 0, 67, 53
1, 1266107, Control_c, 0, 67, 53
1, 1266122, Control_c, 0, 67, 54
1, 1266136, Control_c, 0, 64, 41
1, 1266136, Control_c, 0, 67, 54
1, 1266151, Control_c, 0, 64, 62
1, 1266151, Control_c, 0, 67, 55
1, 1266163, Note_off_c, 0, 69, 61
1, 1266166, Control_c, 0, 64, 67
1, 1266166, Control_c, 0, 67, 56
1, 1266170, Note_on_c, 0, 71, 63
1, 1266188, Control_c, 0, 64, 69
1, 1266188, Control_c, 0, 67, 56
1, 1266203, Control_c, 0, 64, 69
1, 1266203, Control_c, 0, 67, 57
1, 1266247, Control_c, 0, 67, 57
1, 1266256, Note_off_c, 0, 71, 56
1, 1266262, Control_c, 0, 67, 58
1, 1266268, Note_on_c, 0, 72, 61
1, 1266289, Note_off_c, 0, 60, 58
1, 1266292, Control_c, 0, 67, 58
1, 1266306, Control_c, 0, 67, 59
1, 1266321, Control_c, 0, 67, 59
1, 1266336, Control_c, 0, 67, 60
1, 1266351, Note_off_c, 0, 72, 63
1, 1266352, Control_c, 0, 64, 69
1, 1266352, Control_c, 0, 67, 61
1, 1266361, Note_on_c, 0, 74, 56
1, 1266367, Control_c, 0, 64, 68
1, 1266367, Control_c, 0, 67, 61
1, 1266396, Control_c, 0, 64, 67
1, 1266411, Control_c, 0, 64, 66
1, 1266411, Control_c, 0, 67, 62
1, 1266426, Control_c, 0, 64, 60
1, 1266441, Control_c, 0, 64, 35
1, 1266447, Note_off_c, 0, 74, 61
1, 1266455, Note_on_c, 0, 57, 61
1, 1266455, Control_c, 0, 64, 0
1, 1266455, Control_c, 0, 67, 63
1, 1266458, Note_on_c, 0, 72, 66
1, 1266470, Control_c, 0, 67, 64
1, 1266485, Control_c, 0, 67, 66
1, 1266500, Control_c, 0, 67, 68
1, 1266507, Note_off_c, 0, 72, 56
1, 1266515, Control_c, 0, 67, 69
1, 1266530, Control_c, 0, 67, 71
1, 1266545, Control_c, 0, 67, 71
1, 1266560, Control_c, 0, 67, 72
1, 1266575, Control_c, 0, 67, 72
1, 1266590, Control_c, 0, 67, 73
1, 1266619, Control_c, 0, 67, 73
1, 1266634, Control_c, 0, 67, 74
1, 1266657, Note_on_c, 0, 69, 62
1, 1266663, Control_c, 0, 67, 75
1, 1266672, Note_on_c, 0, 54, 50
1, 1266673, Note_off_c, 0, 57, 35
1, 1266678, Control_c, 0, 67, 76
1, 1266693, Note_off_c, 0, 69, 66
1, 1266693, Control_c, 0, 67, 77
1, 1266703, Note_off_c, 0, 54, 63
1, 1266708, Control_c, 0, 67, 78
1, 1266713, Note_off_c, 0, 62, 42
1, 1266721, Note_off_c, 0, 50, 58
1, 1266722, Control_c, 0, 67, 79
1, 1266737, Control_c, 0, 67, 80
1, 1266745, Note_off_c, 0, 43, 40
1, 1266752, Control_c, 0, 67, 80
1, 1266767, Control_c, 0, 67, 81
1, 1266781, Control_c, 0, 67, 81
1, 1266796, Control_c, 0, 67, 82
1, 1266873, Note_on_c, 0, 67, 55
1, 1266890, Note_on_c, 0, 50, 41
1, 1266901, Note_on_c, 0, 59, 32
1, 1266903, Note_on_c, 0, 43, 42
1, 1266937, Control_c, 0, 67, 81
1, 1266967, Control_c, 0, 67, 80
1, 1266981, Control_c, 0, 67, 80
1, 1266996, Control_c, 0, 67, 79
1, 1267011, Control_c, 0, 67, 78
1, 1267026, Control_c, 0, 67, 78
1, 1267055, Control_c, 0, 67, 77
1, 1267085, Control_c, 0, 67, 77
1, 1267099, Note_on_c, 0, 62, 52
1, 1267101, Note_off_c, 0, 59, 56
1, 1267105, Note_off_c, 0, 50, 58
1, 1267114, Note_on_c, 0, 55, 48
1, 1267118, Note_off_c, 0, 43, 56
1, 1267124, Note_off_c, 0, 67, 54
1, 1267132, Note_off_c, 0, 62, 64
1, 1267144, Note_off_c, 0, 55, 65
1, 1267175, Control_c, 0, 67, 77
1, 1267190, Control_c, 0, 67, 78
1, 1267204, Control_c, 0, 67, 78
1, 1267234, Control_c, 0, 67, 79
1, 1267338, Control_c, 0, 64, 23
1, 1267353, Control_c, 0, 64, 50
1, 1267365, Note_on_c, 0, 79, 73
1, 1267368, Control_c, 0, 64, 56
1, 1267368, Control_c, 0, 67, 79
1, 1267373, Note_on_c, 0, 71, 62
1, 1267374, Note_on_c, 0, 67, 55
1, 1267374, Note_on_c, 0, 62, 57
1, 1267383, Control_c, 0, 64, 58
1, 1267391, Note_off_c, 0, 79, 62
1, 1267397, Control_c, 0, 64, 59
1, 1267397, Control_c, 0, 67, 80
1, 1267400, Note_off_c, 0, 71, 66
1, 1267402, Note_off_c, 0, 62, 59
1, 1267406, Note_off_c, 0, 67, 62
1, 1267412, Control_c, 0, 64, 61
1, 1267427, Control_c, 0, 64, 63
1, 1267464, Note_on_c, 0, 79, 69
1, 1267466, Note_on_c, 0, 71, 66
1, 1267471, Note_on_c, 0, 67, 51
1, 1267471, Control_c, 0, 64, 63
1, 1267472, Note_on_c, 0, 62, 45
1, 1267486, Control_c, 0, 67, 80
1, 1267492, Note_off_c, 0, 79, 60
1, 1267496, Note_off_c, 0, 71, 61
1, 1267499, Note_off_c, 0, 62, 57
1, 1267501, Note_off_c, 0, 67, 54
1, 1267516, Control_c, 0, 67, 81
1, 1267546, Control_c, 0, 67, 81
1, 1267551, Note_on_c, 0, 67, 55
1, 1267556, Note_on_c, 0, 62, 60
1, 1267558, Note_on_c, 0, 79, 76
1, 1267561, Note_on_c, 0, 71, 66
1, 1267575, Control_c, 0, 67, 82
1, 1267580, Note_off_c, 0, 79, 63
1, 1267582, Note_off_c, 0, 62, 63
1, 1267587, Note_off_c, 0, 67, 59
1, 1267590, Note_off_c, 0, 71, 64
1, 1267590, Control_c, 0, 64, 63
1, 1267645, Note_on_c, 0, 67, 57
1, 1267645, Note_on_c, 0, 79, 73
1, 1267649, Control_c, 0, 64, 62
1, 1267649, Control_c, 0, 67, 82
1, 1267651, Note_on_c, 0, 71, 68
1, 1267656, Note_on_c, 0, 62, 60
1, 1267664, Control_c, 0, 67, 83
1, 1267678, Note_off_c, 0, 79, 61
1, 1267683, Note_off_c, 0, 67, 61
1, 1267685, Note_off_c, 0, 62, 62
1, 1267686, Control_c, 0, 64, 62
1, 1267688, Note_off_c, 0, 71, 63
1, 1267701, Control_c, 0, 64, 61
1, 1267716, Control_c, 0, 64, 61
1, 1267731, Control_c, 0, 64, 60
1, 1267746, Control_c, 0, 64, 60
1, 1267746, Control_c, 0, 67, 84
1, 1267760, Control_c, 0, 64, 59
1, 1267760, Control_c, 0, 67, 85
1, 1267766, Note_on_c, 0, 79, 68
1, 1267775, Control_c, 0, 64, 57
1, 1267775, Control_c, 0, 67, 86
1, 1267781, Note_on_c, 0, 67, 42
1, 1267781, Note_on_c, 0, 71, 52
1, 1267782, Note_on_c, 0, 62, 42
1, 1267790, Control_c, 0, 64, 52
1, 1267790, Control_c, 0, 67, 88
1, 1267804, Control_c, 0, 64, 39
1, 1267804, Control_c, 0, 67, 89
1, 1267819, Control_c, 0, 64, 0
1, 1267819, Control_c, 0, 67, 90
1, 1267834, Control_c, 0, 67, 92
1, 1267849, Control_c, 0, 67, 94
1, 1267864, Control_c, 0, 67, 96
1, 1267878, Control_c, 0, 67, 98
1, 1267893, Control_c, 0, 67, 101
1, 1267908, Control_c, 0, 67, 103
1, 1267922, Control_c, 0, 67, 105
1, 1267937, Control_c, 0, 67, 107
1, 1267954, Control_c, 0, 67, 108
1, 1267969, Control_c, 0, 67, 110
1, 1267983, Control_c, 0, 67, 112
1, 1267998, Control_c, 0, 67, 113
1, 1267999, Note_off_c, 0, 71, 60
1, 1268000, Note_on_c, 0, 76, 59
1, 1268001, Note_off_c, 0, 79, 59
1, 1268008, Note_on_c, 0, 72, 54
1, 1268013, Control_c, 0, 67, 114
1, 1268027, Control_c, 0, 67, 115
1, 1268042, Control_c, 0, 67, 116
1, 1268057, Control_c, 0, 67, 117
1, 1268072, Control_c, 0, 67, 118
1, 1268087, Control_c, 0, 67, 119
1, 1268101, Control_c, 0, 67, 120
1, 1268116, Control_c, 0, 67, 122
1, 1268131, Control_c, 0, 67, 124
1, 1268146, Control_c, 0, 67, 127
1, 1268161, Control_c, 0, 67, 127
1, 1268202, Note_off_c, 0, 72, 59
1, 1268216, Note_on_c, 0, 74, 56
1, 1268221, Note_off_c, 0, 76, 57
1, 1268223, Note_off_c, 0, 67, 62
1, 1268226, Note_on_c, 0, 71, 46
1, 1268247, Note_off_c, 0, 74, 67
1, 1268250, Note_off_c, 0, 62, 57
1, 1268262, Note_off_c, 0, 71, 63
1, 1268446, Note_on_c, 0, 62, 70
1, 1268462, Note_on_c, 0, 59, 48
1, 1268465, Note_on_c, 0, 50, 46
1, 1268479, Note_off_c, 0, 62, 61
1, 1268488, Note_off_c, 0, 59, 58
1, 1268491, Note_off_c, 0, 50, 57
1, 1268696, Note_on_c, 0, 64, 63
1, 1268697, Note_on_c, 0, 60, 56
1, 1268700, Note_on_c, 0, 50, 52
1, 1268727, Note_off_c, 0, 50, 58
1, 1268727, Note_off_c, 0, 60, 58
1, 1268798, Note_on_c, 0, 60, 54
1, 1268804, Note_on_c, 0, 50, 50
1, 1268834, Note_off_c, 0, 50, 57
1, 1268834, Note_off_c, 0, 60, 60
1, 1268906, Note_on_c, 0, 60, 59
1, 1268907, Note_on_c, 0, 50, 47
1, 1268933, Note_off_c, 0, 50, 57
1, 1268936, Note_off_c, 0, 60, 60
1, 1269000, Note_on_c, 0, 50, 54
1, 1269001, Note_on_c, 0, 60, 58
1, 1269031, Note_off_c, 0, 50, 59
1, 1269034, Note_off_c, 0, 60, 60
1, 1269112, Note_on_c, 0, 60, 59
1, 1269128, Note_on_c, 0, 50, 52
1, 1269287, Note_off_c, 0, 60, 59
1, 1269319, Note_off_c, 0, 50, 62
1, 1269341, Note_off_c, 0, 64, 39
1, 1269353, Note_on_c, 0, 66, 57
1, 1269418, Note_off_c, 0, 66, 62
1, 1269438, Note_on_c, 0, 67, 52
1, 1269494, Note_off_c, 0, 67, 55
1, 1269523, Note_on_c, 0, 57, 57
1, 1269527, Note_on_c, 0, 50, 57
1, 1269535, Note_on_c, 0, 66, 59
1, 1269555, Note_off_c, 0, 50, 64
1, 1269559, Note_off_c, 0, 57, 60
1, 1269605, Note_off_c, 0, 66, 39
1, 1269629, Note_on_c, 0, 67, 60
1, 1269637, Note_on_c, 0, 57, 53
1, 1269643, Note_on_c, 0, 50, 54
1, 1269663, Note_off_c, 0, 57, 56
1, 1269667, Note_off_c, 0, 50, 57
1, 1269679, Note_off_c, 0, 67, 60
1, 1269722, Note_on_c, 0, 57, 64
1, 1269734, Note_on_c, 0, 50, 47
1, 1269734, Note_on_c, 0, 69, 59
1, 1269753, Note_off_c, 0, 57, 60
1, 1269758, Note_off_c, 0, 50, 56
1, 1269770, Note_off_c, 0, 69, 62
1, 1269820, Note_on_c, 0, 71, 61
1, 1269829, Note_on_c, 0, 57, 52
1, 1269852, Note_on_c, 0, 50, 33
1, 1269852, Note_off_c, 0, 57, 58
1, 1269860, Note_off_c, 0, 71, 57
1, 1269861, Note_off_c, 0, 50, 45
1, 1269936, Note_on_c, 0, 72, 71
1, 1269948, Note_on_c, 0, 50, 39
1, 1269967, Note_on_c, 0, 54, 28
1, 1269967, Note_off_c, 0, 72, 63
1, 1270113, Note_off_c, 0, 54, 55
1, 1270130, Note_off_c, 0, 50, 57
1, 1270157, Note_on_c, 0, 74, 68
1, 1270204, Note_off_c, 0, 74, 60
1, 1270363, Note_on_c, 0, 71, 61
1, 1270374, Note_on_c, 0, 50, 51
1, 1270380, Note_on_c, 0, 55, 45
1, 1270386, Note_on_c, 0, 67, 41
1, 1270408, Note_off_c, 0, 50, 63
1, 1270410, Note_off_c, 0, 55, 59
1, 1270480, Note_on_c, 0, 55, 40
1, 1270483, Note_on_c, 0, 50, 39
1, 1270512, Note_off_c, 0, 50, 47
1, 1270542, Note_off_c, 0, 55, 0
1, 1270554, Note_on_c, 0, 55, 51
1, 1270565, Note_on_c, 0, 50, 48
1, 1270587, Note_off_c, 0, 55, 63
1, 1270593, Note_off_c, 0, 50, 57
1, 1270674, Note_on_c, 0, 50, 40
1, 1270699, Note_on_c, 0, 55, 19
1, 1270711, Note_off_c, 0, 50, 47
1, 1270763, Note_on_c, 0, 47, 68
1, 1270767, Note_off_c, 0, 55, 0
1, 1270767, Note_on_c, 0, 55, 27
1, 1270800, Note_off_c, 0, 67, 44
1, 1270802, Note_off_c, 0, 55, 56
1, 1270837, Note_off_c, 0, 47, 57
1, 1270943, Note_off_c, 0, 71, 62
1, 1270947, Control_c, 0, 64, 19
1, 1270962, Control_c, 0, 64, 26
1, 1270969, Note_on_c, 0, 72, 63
1, 1270975, Note_on_c, 0, 43, 57
1, 1270977, Control_c, 0, 64, 28
1, 1270981, Note_on_c, 0, 69, 44
1, 1270992, Control_c, 0, 64, 29
1, 1271000, Note_off_c, 0, 43, 56
1, 1271007, Control_c, 0, 64, 30
1, 1271019, Note_off_c, 0, 69, 58
1, 1271021, Control_c, 0, 64, 31
1, 1271051, Control_c, 0, 64, 31
1, 1271058, Note_off_c, 0, 72, 64
1, 1271079, Note_on_c, 0, 74, 59
1, 1271079, Note_on_c, 0, 71, 50
1, 1271158, Note_off_c, 0, 71, 47
1, 1271171, Control_c, 0, 64, 32
1, 1271173, Note_on_c, 0, 76, 65
1, 1271177, Note_off_c, 0, 74, 61
1, 1271182, Note_on_c, 0, 60, 59
1, 1271183, Note_on_c, 0, 55, 57
1, 1271207, Note_off_c, 0, 76, 66
1, 1271209, Note_off_c, 0, 60, 63
1, 1271211, Note_off_c, 0, 55, 66
1, 1271276, Note_on_c, 0, 78, 77
1, 1271285, Note_on_c, 0, 55, 56
1, 1271285, Note_on_c, 0, 60, 56
1, 1271289, Control_c, 0, 64, 31
1, 1271304, Control_c, 0, 64, 31
1, 1271305, Note_off_c, 0, 60, 60
1, 1271307, Note_off_c, 0, 55, 61
1, 1271311, Note_on_c, 0, 74, 20
1, 1271318, Control_c, 0, 64, 29
1, 1271333, Control_c, 0, 64, 29
1, 1271347, Note_off_c, 0, 78, 44
1, 1271347, Note_off_c, 0, 74, 47
1, 1271365, Note_on_c, 0, 79, 65
1, 1271368, Note_on_c, 0, 76, 62
1, 1271377, Note_on_c, 0, 60, 56
1, 1271386, Note_on_c, 0, 55, 50
1, 1271392, Control_c, 0, 64, 28
1, 1271397, Note_off_c, 0, 60, 62
1, 1271404, Note_off_c, 0, 76, 57
1, 1271420, Note_off_c, 0, 55, 57
1, 1271430, Control_c, 0, 64, 28
1, 1271439, Note_off_c, 0, 79, 52
1, 1271444, Control_c, 0, 64, 27
1, 1271456, Note_on_c, 0, 81, 69
1, 1271467, Note_on_c, 0, 78, 61
1, 1271469, Note_on_c, 0, 60, 68
1, 1271474, Control_c, 0, 64, 26
1, 1271489, Note_on_c, 0, 55, 28
1, 1271489, Control_c, 0, 64, 26
1, 1271494, Note_off_c, 0, 81, 61
1, 1271500, Note_off_c, 0, 60, 59
1, 1271504, Control_c, 0, 64, 24
1, 1271518, Control_c, 0, 64, 23
1, 1271520, Note_off_c, 0, 78, 62
1, 1271524, Note_off_c, 0, 55, 45
1, 1271533, Control_c, 0, 64, 23
1, 1271565, Note_on_c, 0, 52, 69
1, 1271565, Note_on_c, 0, 75, 67
1, 1271566, Note_on_c, 0, 71, 62
1, 1271591, Note_off_c, 0, 75, 69
1, 1271592, Note_off_c, 0, 71, 65
1, 1271598, Note_off_c, 0, 52, 67
1, 1271607, Control_c, 0, 64, 22
1, 1271637, Control_c, 0, 64, 21
1, 1271651, Control_c, 0, 64, 19
1, 1271666, Control_c, 0, 64, 17
1, 1271681, Control_c, 0, 64, 14
1, 1271696, Control_c, 0, 64, 8
1, 1271711, Control_c, 0, 64, 0
1, 1271726, Note_on_c, 0, 78, 62
1, 1271761, Note_on_c, 0, 48, 58
1, 1271766, Note_on_c, 0, 76, 72
1, 1271773, Note_on_c, 0, 72, 59
1, 1271784, Note_off_c, 0, 78, 61
1, 1271790, Note_off_c, 0, 72, 65
1, 1271799, Note_off_c, 0, 48, 63
1, 1271803, Note_off_c, 0, 76, 63
1, 1271975, Note_on_c, 0, 74, 60
1, 1271979, Control_c, 0, 64, 14
1, 1271984, Note_on_c, 0, 55, 57
1, 1271988, Note_on_c, 0, 71, 50
1, 1271993, Control_c, 0, 64, 24
1, 1272008, Control_c, 0, 64, 34
1, 1272017, Note_off_c, 0, 55, 64
1, 1272023, Control_c, 0, 64, 40
1, 1272038, Control_c, 0, 64, 44
1, 1272053, Control_c, 0, 64, 46
1, 1272067, Control_c, 0, 64, 47
1, 1272076, Note_on_c, 0, 55, 59
1, 1272082, Control_c, 0, 64, 48
1, 1272104, Note_off_c, 0, 55, 66
1, 1272164, Control_c, 0, 64, 47
1, 1272183, Note_on_c, 0, 55, 61
1, 1272207, Control_c, 0, 64, 47
1, 1272218, Note_off_c, 0, 55, 65
1, 1272222, Control_c, 0, 64, 46
1, 1272237, Control_c, 0, 64, 46
1, 1272261, Note_on_c, 0, 55, 57
1, 1272266, Control_c, 0, 64, 45
1, 1272295, Note_off_c, 0, 55, 62
1, 1272296, Control_c, 0, 64, 45
1, 1272311, Control_c, 0, 64, 44
1, 1272325, Note_off_c, 0, 74, 62
1, 1272326, Control_c, 0, 64, 44
1, 1272352, Note_off_c, 0, 71, 56
1, 1272355, Control_c, 0, 64, 43
1, 1272372, Note_on_c, 0, 55, 65
1, 1272405, Note_off_c, 0, 55, 65
1, 1272414, Control_c, 0, 64, 43
1, 1272429, Control_c, 0, 64, 42
1, 1272444, Control_c, 0, 64, 40
1, 1272459, Control_c, 0, 64, 39
1, 1272474, Control_c, 0, 64, 37
1, 1272489, Control_c, 0, 64, 35
1, 1272489, Note_on_c, 0, 67, 64
1, 1272504, Control_c, 0, 64, 33
1, 1272518, Control_c, 0, 64, 29
1, 1272533, Control_c, 0, 64, 22
1, 1272548, Control_c, 0, 64, 14
1, 1272563, Control_c, 0, 64, 0
1, 1272586, Note_off_c, 0, 67, 57
1, 1272594, Note_on_c, 0, 62, 63
1, 1272605, Note_on_c, 0, 59, 43
1, 1272617, Note_on_c, 0, 50, 34
1, 1272641, Note_off_c, 0, 59, 64
1, 1272650, Note_off_c, 0, 50, 54
1, 1272700, Note_on_c, 0, 67, 68
1, 1272700, Note_off_c, 0, 62, 55
1, 1272811, Note_off_c, 0, 67, 49
1, 1272830, Control_c, 0, 64, 26
1, 1272845, Control_c, 0, 64, 37
1, 1272852, Note_on_c, 0, 64, 63
1, 1272860, Control_c, 0, 64, 42
1, 1272874, Note_on_c, 0, 60, 45
1, 1272875, Control_c, 0, 64, 46
1, 1272880, Note_on_c, 0, 50, 38
1, 1272889, Control_c, 0, 64, 50
1, 1272912, Control_c, 0, 64, 52
1, 1272927, Control_c, 0, 64, 54
1, 1272928, Note_off_c, 0, 60, 52
1, 1272942, Control_c, 0, 64, 55
1, 1272968, Note_off_c, 0, 50, 0
1, 1272984, Note_on_c, 0, 50, 31
1, 1272987, Note_on_c, 0, 60, 48
1, 1273016, Control_c, 0, 64, 54
1, 1273030, Note_off_c, 0, 60, 56
1, 1273061, Control_c, 0, 64, 54
1, 1273073, Note_off_c, 0, 50, 0
1, 1273073, Note_on_c, 0, 50, 17
1, 1273076, Control_c, 0, 64, 53
1, 1273090, Control_c, 0, 64, 53
1, 1273101, Note_on_c, 0, 60, 37
1, 1273120, Control_c, 0, 64, 52
1, 1273134, Note_off_c, 0, 60, 52
1, 1273135, Control_c, 0, 64, 52
1, 1273149, Control_c, 0, 64, 51
1, 1273154, Note_off_c, 0, 50, 0
1, 1273164, Control_c, 0, 64, 51
1, 1273178, Note_on_c, 0, 50, 17
1, 1273191, Note_on_c, 0, 60, 46
1, 1273209, Control_c, 0, 64, 50
1, 1273217, Note_off_c, 0, 60, 56
1, 1273228, Note_off_c, 0, 50, 51
1, 1273238, Control_c, 0, 64, 50
1, 1273296, Note_on_c, 0, 60, 54
1, 1273304, Note_on_c, 0, 50, 40
1, 1273312, Control_c, 0, 64, 49
1, 1273371, Control_c, 0, 64, 49
1, 1273464, Note_off_c, 0, 60, 60
1, 1273475, Control_c, 0, 64, 48
1, 1273490, Control_c, 0, 64, 46
1, 1273501, Note_off_c, 0, 50, 57
1, 1273505, Control_c, 0, 64, 42
1, 1273517, Note_on_c, 0, 66, 63
1, 1273520, Control_c, 0, 64, 34
1, 1273526, Note_off_c, 0, 64, 39
1, 1273535, Control_c, 0, 64, 29
1, 1273550, Control_c, 0, 64, 26
1, 1273565, Control_c, 0, 64, 24
1, 1273580, Control_c, 0, 64, 23
1, 1273585, Note_off_c, 0, 66, 64
1, 1273595, Control_c, 0, 64, 23
1, 1273598, Note_on_c, 0, 67, 61
1, 1273639, Control_c, 0, 64, 22
1, 1273669, Note_off_c, 0, 67, 60
1, 1273710, Note_on_c, 0, 66, 61
1, 1273712, Note_on_c, 0, 57, 54
1, 1273717, Note_on_c, 0, 50, 51
1, 1273720, Control_c, 0, 64, 23
1, 1273741, Note_off_c, 0, 50, 59
1, 1273743, Note_off_c, 0, 57, 62
1, 1273786, Note_off_c, 0, 66, 55
1, 1273800, Note_on_c, 0, 67, 60
1, 1273809, Control_c, 0, 64, 23
1, 1273830, Note_on_c, 0, 50, 44
1, 1273830, Note_on_c, 0, 57, 41
1, 1273857, Note_off_c, 0, 67, 61
1, 1273860, Note_off_c, 0, 57, 34
1, 1273860, Note_off_c, 0, 50, 35
1, 1273902, Note_on_c, 0, 69, 65
1, 1273911, Note_on_c, 0, 50, 53
1, 1273911, Note_on_c, 0, 57, 58
1, 1273937, Note_off_c, 0, 50, 61
1, 1273938, Note_off_c, 0, 57, 61
1, 1273972, Control_c, 0, 64, 23
1, 1273988, Note_off_c, 0, 69, 40
1, 1273992, Note_on_c, 0, 71, 68
1, 1274006, Note_on_c, 0, 57, 61
1, 1274016, Note_on_c, 0, 50, 46
1, 1274027, Note_off_c, 0, 57, 63
1, 1274044, Note_off_c, 0, 50, 52
1, 1274046, Note_off_c, 0, 71, 60
1, 1274091, Control_c, 0, 64, 23
1, 1274102, Note_on_c, 0, 72, 74
1, 1274135, Control_c, 0, 64, 24
1, 1274136, Note_off_c, 0, 72, 61
1, 1274139, Note_on_c, 0, 54, 29
1, 1274144, Note_on_c, 0, 50, 42
1, 1274150, Control_c, 0, 64, 25
1, 1274164, Control_c, 0, 64, 26
1, 1274179, Control_c, 0, 64, 26
1, 1274272, Note_off_c, 0, 54, 56
1, 1274295, Note_off_c, 0, 50, 58
1, 1274325, Note_on_c, 0, 74, 71
1, 1274343, Control_c, 0, 64, 27
1, 1274358, Control_c, 0, 64, 28
1, 1274373, Control_c, 0, 64, 28
1, 1274374, Note_off_c, 0, 74, 62
1, 1274403, Control_c, 0, 64, 29
1, 1274469, Control_c, 0, 64, 29
1, 1274499, Control_c, 0, 64, 30
1, 1274529, Control_c, 0, 64, 31
1, 1274542, Note_on_c, 0, 71, 64
1, 1274543, Control_c, 0, 64, 31
1, 1274545, Note_on_c, 0, 50, 50
1, 1274548, Note_on_c, 0, 55, 49
1, 1274555, Note_on_c, 0, 67, 48
1, 1274573, Control_c, 0, 64, 32
1, 1274574, Note_off_c, 0, 50, 60
1, 1274578, Note_off_c, 0, 55, 60
1, 1274587, Control_c, 0, 64, 33
1, 1274602, Control_c, 0, 64, 34
1, 1274617, Control_c, 0, 64, 36
1, 1274632, Control_c, 0, 64, 38
1, 1274638, Note_on_c, 0, 55, 52
1, 1274647, Control_c, 0, 64, 39
1, 1274650, Note_on_c, 0, 50, 42
1, 1274662, Control_c, 0, 64, 40
1, 1274675, Note_off_c, 0, 55, 60
1, 1274677, Control_c, 0, 64, 40
1, 1274678, Note_off_c, 0, 50, 49
1, 1274726, Note_on_c, 0, 55, 57
1, 1274748, Note_on_c, 0, 50, 44
1, 1274751, Control_c, 0, 64, 41
1, 1274764, Note_off_c, 0, 55, 61
1, 1274778, Note_off_c, 0, 50, 49
1, 1274781, Control_c, 0, 64, 40
1, 1274832, Note_on_c, 0, 55, 53
1, 1274836, Note_on_c, 0, 50, 42
1, 1274855, Note_off_c, 0, 55, 62
1, 1274868, Note_off_c, 0, 50, 54
1, 1274913, Control_c, 0, 64, 41
1, 1274928, Control_c, 0, 64, 41
1, 1274936, Note_on_c, 0, 55, 60
1, 1274939, Note_on_c, 0, 47, 69
1, 1274943, Control_c, 0, 64, 42
1, 1274958, Control_c, 0, 64, 43
1, 1274968, Note_off_c, 0, 55, 65
1, 1274973, Control_c, 0, 64, 44
1, 1274981, Note_off_c, 0, 67, 44
1, 1274987, Control_c, 0, 64, 45
1, 1275002, Note_off_c, 0, 47, 61
1, 1275002, Control_c, 0, 64, 46
1, 1275017, Control_c, 0, 64, 47
1, 1275032, Control_c, 0, 64, 47
1, 1275106, Control_c, 0, 64, 48
1, 1275123, Note_off_c, 0, 71, 60
1, 1275137, Control_c, 0, 64, 49
1, 1275148, Note_on_c, 0, 72, 63
1, 1275151, Note_on_c, 0, 43, 54
1, 1275152, Control_c, 0, 64, 50
1, 1275166, Note_on_c, 0, 69, 46
1, 1275174, Control_c, 0, 64, 52
1, 1275183, Note_off_c, 0, 43, 56
1, 1275189, Control_c, 0, 64, 53
1, 1275203, Note_off_c, 0, 69, 60
1, 1275204, Control_c, 0, 64, 55
1, 1275218, Control_c, 0, 64, 56
1, 1275233, Control_c, 0, 64, 56
1, 1275240, Note_off_c, 0, 72, 64
1, 1275248, Control_c, 0, 64, 57
1, 1275256, Note_on_c, 0, 74, 61
1, 1275259, Note_on_c, 0, 71, 56
1, 1275332, Note_off_c, 0, 71, 58
1, 1275343, Note_off_c, 0, 74, 62
1, 1275349, Note_on_c, 0, 76, 63
1, 1275364, Note_on_c, 0, 60, 57
1, 1275368, Note_on_c, 0, 55, 53
1, 1275379, Note_off_c, 0, 76, 66
1, 1275394, Note_off_c, 0, 60, 62
1, 1275396, Note_off_c, 0, 55, 66
1, 1275397, Note_on_c, 0, 72, 20
1, 1275434, Note_off_c, 0, 72, 33
1, 1275449, Note_on_c, 0, 78, 80
1, 1275464, Note_on_c, 0, 60, 58
1, 1275472, Note_on_c, 0, 55, 51
1, 1275485, Control_c, 0, 64, 56
1, 1275488, Note_off_c, 0, 60, 63
1, 1275495, Note_off_c, 0, 55, 60
1, 1275501, Note_off_c, 0, 78, 63
1, 1275544, Note_on_c, 0, 79, 65
1, 1275546, Note_on_c, 0, 76, 67
1, 1275559, Note_on_c, 0, 60, 61
1, 1275564, Note_on_c, 0, 55, 58
1, 1275582, Note_off_c, 0, 76, 58
1, 1275584, Note_off_c, 0, 60, 64
1, 1275589, Control_c, 0, 64, 56
1, 1275593, Note_off_c, 0, 55, 56
1, 1275618, Control_c, 0, 64, 55
1, 1275625, Note_on_c, 0, 81, 63
1, 1275631, Note_off_c, 0, 79, 59
1, 1275633, Note_on_c, 0, 78, 67
1, 1275651, Note_on_c, 0, 60, 66
1, 1275655, Note_off_c, 0, 81, 63
1, 1275656, Note_on_c, 0, 55, 50
1, 1275656, Note_off_c, 0, 78, 69
1, 1275678, Note_off_c, 0, 60, 67
1, 1275682, Note_off_c, 0, 55, 61
1, 1275692, Control_c, 0, 64, 55
1, 1275734, Note_on_c, 0, 83, 79
1, 1275740, Note_on_c, 0, 79, 61
1, 1275749, Note_on_c, 0, 52, 63
1, 1275749, Note_on_c, 0, 60, 63
1, 1275759, Note_off_c, 0, 79, 62
1, 1275770, Note_off_c, 0, 60, 63
1, 1275781, Control_c, 0, 64, 54
1, 1275801, Note_off_c, 0, 52, 57
1, 1275818, Note_off_c, 0, 83, 63
1, 1275822, Note_on_c, 0, 84, 75
1, 1275824, Note_on_c, 0, 81, 65
1, 1275825, Control_c, 0, 64, 54
1, 1275840, Control_c, 0, 64, 53
1, 1275850, Note_off_c, 0, 81, 65
1, 1275855, Control_c, 0, 64, 53
1, 1275867, Note_off_c, 0, 84, 64
1, 1275884, Control_c, 0, 64, 52
1, 1275899, Control_c, 0, 64, 51
1, 1275923, Note_on_c, 0, 83, 77
1, 1275930, Note_on_c, 0, 86, 80
1, 1275931, Note_on_c, 0, 48, 48
1, 1275953, Control_c, 0, 64, 50
1, 1275960, Note_off_c, 0, 48, 57
1, 1275967, Control_c, 0, 64, 49
1, 1275982, Control_c, 0, 64, 48
1, 1275997, Control_c, 0, 64, 46
1, 1275998, Note_off_c, 0, 83, 51
1, 1276006, Note_on_c, 0, 88, 86
1, 1276012, Control_c, 0, 64, 44
1, 1276018, Note_on_c, 0, 84, 77
1, 1276027, Control_c, 0, 64, 39
1, 1276028, Note_off_c, 0, 86, 58
1, 1276041, Control_c, 0, 64, 26
1, 1276056, Control_c, 0, 64, 0
1, 1276134, Note_on_c, 0, 86, 88
1, 1276136, Note_on_c, 0, 55, 59
1, 1276140, Note_on_c, 0, 83, 77
1, 1276149, Note_off_c, 0, 84, 63
1, 1276170, Note_off_c, 0, 55, 65
1, 1276171, Note_off_c, 0, 88, 61
1, 1276204, Control_c, 0, 64, 37
1, 1276219, Control_c, 0, 64, 54
1, 1276233, Control_c, 0, 64, 58
1, 1276241, Note_on_c, 0, 55, 56
1, 1276248, Control_c, 0, 64, 59
1, 1276263, Note_off_c, 0, 55, 63
1, 1276263, Control_c, 0, 64, 60
1, 1276293, Control_c, 0, 64, 60
1, 1276337, Note_on_c, 0, 55, 63
1, 1276367, Note_off_c, 0, 55, 65
1, 1276441, Note_on_c, 0, 55, 54
1, 1276467, Note_off_c, 0, 55, 59
1, 1276545, Control_c, 0, 64, 61
1, 1276550, Note_off_c, 0, 86, 61
1, 1276552, Note_off_c, 0, 83, 59
1, 1276553, Note_on_c, 0, 55, 54
1, 1276751, Note_off_c, 0, 55, 64
1, 1276775, Control_c, 0, 64, 59
1, 1276781, Note_on_c, 0, 69, 59
1, 1276790, Control_c, 0, 64, 55
1, 1276805, Control_c, 0, 64, 47
1, 1276820, Control_c, 0, 64, 38
1, 1276835, Control_c, 0, 64, 34
1, 1276852, Note_off_c, 0, 69, 59
1, 1276864, Control_c, 0, 64, 34
1, 1276872, Note_on_c, 0, 71, 56
1, 1276879, Control_c, 0, 64, 36
1, 1276894, Control_c, 0, 64, 38
1, 1276909, Control_c, 0, 64, 39
1, 1276924, Control_c, 0, 64, 40
1, 1276951, Note_off_c, 0, 71, 59
1, 1276953, Control_c, 0, 64, 41
1, 1276972, Note_on_c, 0, 54, 57
1, 1276972, Note_on_c, 0, 72, 67
1, 1276982, Control_c, 0, 64, 42
1, 1276984, Note_on_c, 0, 69, 42
1, 1276987, Note_on_c, 0, 50, 44
1, 1277002, Note_off_c, 0, 54, 62
1, 1277012, Control_c, 0, 64, 43
1, 1277016, Note_off_c, 0, 50, 57
1, 1277020, Note_off_c, 0, 69, 59
1, 1277042, Control_c, 0, 64, 44
1, 1277054, Note_off_c, 0, 72, 63
1, 1277056, Control_c, 0, 64, 44
1, 1277071, Control_c, 0, 64, 45
1, 1277073, Note_on_c, 0, 74, 64
1, 1277075, Note_on_c, 0, 71, 57
1, 1277079, Note_on_c, 0, 54, 59
1, 1277086, Control_c, 0, 64, 45
1, 1277101, Note_off_c, 0, 54, 62
1, 1277103, Note_on_c, 0, 50, 6
1, 1277119, Note_off_c, 0, 50, 0
1, 1277133, Note_off_c, 0, 71, 53
1, 1277153, Note_on_c, 0, 76, 65
1, 1277153, Note_off_c, 0, 74, 62
1, 1277157, Poly_aftertouch_c, 0, 50, 127
1, 1277158, Note_on_c, 0, 54, 71
1, 1277160, Control_c, 0, 64, 46
1, 1277175, Control_c, 0, 64, 47
1, 1277184, Note_off_c, 0, 76, 67
1, 1277189, Note_off_c, 0, 54, 63
1, 1277190, Control_c, 0, 64, 47
1, 1277201, Note_on_c, 0, 72, 44
1, 1277203, Poly_aftertouch_c, 0, 50, 0
1, 1277205, Control_c, 0, 64, 48
1, 1277234, Control_c, 0, 64, 48
1, 1277250, Note_on_c, 0, 54, 73
1, 1277251, Note_on_c, 0, 50, 41
1, 1277252, Note_on_c, 0, 78, 76
1, 1277255, Note_off_c, 0, 72, 51
1, 1277268, Note_on_c, 0, 74, 49
1, 1277282, Note_off_c, 0, 54, 60
1, 1277296, Note_off_c, 0, 50, 58
1, 1277333, Note_off_c, 0, 74, 39
1, 1277343, Note_off_c, 0, 78, 53
1, 1277353, Note_on_c, 0, 76, 68
1, 1277359, Note_on_c, 0, 54, 59
1, 1277366, Note_on_c, 0, 72, 57
1, 1277368, Note_on_c, 0, 50, 43
1, 1277386, Note_off_c, 0, 54, 63
1, 1277393, Note_off_c, 0, 72, 58
1, 1277401, Note_off_c, 0, 50, 63
1, 1277419, Control_c, 0, 64, 48
1, 1277443, Note_off_c, 0, 76, 63
1, 1277449, Control_c, 0, 64, 47
1, 1277457, Note_on_c, 0, 81, 69
1, 1277479, Control_c, 0, 64, 47
1, 1277550, Note_off_c, 0, 81, 57
1, 1277559, Note_on_c, 0, 79, 60
1, 1277560, Note_on_c, 0, 38, 52
1, 1277576, Note_on_c, 0, 76, 51
1, 1277589, Note_off_c, 0, 38, 59
1, 1277614, Note_off_c, 0, 76, 64
1, 1277617, Note_off_c, 0, 79, 60
1, 1277628, Control_c, 0, 64, 46
1, 1277647, Note_on_c, 0, 72, 67
1, 1277658, Control_c, 0, 64, 46
1, 1277673, Control_c, 0, 64, 45
1, 1277687, Control_c, 0, 64, 45
1, 1277758, Note_off_c, 0, 72, 60
1, 1277761, Note_on_c, 0, 74, 57
1, 1277761, Control_c, 0, 64, 45
1, 1277769, Note_on_c, 0, 71, 56
1, 1277772, Note_on_c, 0, 55, 53
1, 1277780, Note_on_c, 0, 50, 47
1, 1277805, Note_off_c, 0, 50, 59
1, 1277807, Note_off_c, 0, 55, 62
1, 1277875, Note_on_c, 0, 55, 45
1, 1277876, Note_on_c, 0, 50, 44
1, 1277905, Note_off_c, 0, 50, 55
1, 1277909, Control_c, 0, 64, 45
1, 1277947, Note_off_c, 0, 55, 0
1, 1277957, Note_on_c, 0, 50, 54
1, 1277960, Note_on_c, 0, 55, 43
1, 1277997, Note_off_c, 0, 50, 63
1, 1277999, Note_off_c, 0, 55, 60
1, 1278057, Note_on_c, 0, 50, 49
1, 1278067, Note_on_c, 0, 55, 43
1, 1278072, Note_off_c, 0, 71, 60
1, 1278094, Note_off_c, 0, 50, 58
1, 1278095, Note_off_c, 0, 74, 64
1, 1278117, Control_c, 0, 64, 44
1, 1278137, Note_off_c, 0, 55, 0
1, 1278157, Note_on_c, 0, 50, 57
1, 1278158, Note_on_c, 0, 55, 46
1, 1278183, Control_c, 0, 64, 45
1, 1278195, Note_off_c, 0, 55, 64
1, 1278199, Note_off_c, 0, 50, 64
1, 1278242, Control_c, 0, 64, 45
1, 1278302, Control_c, 0, 64, 45
1, 1278361, Control_c, 0, 64, 45
1, 1278373, Note_on_c, 0, 84, 83
1, 1278376, Control_c, 0, 64, 46
1, 1278378, Note_on_c, 0, 81, 81
1, 1278380, Note_on_c, 0, 38, 58
1, 1278391, Control_c, 0, 64, 47
1, 1278406, Control_c, 0, 64, 48
1, 1278409, Note_off_c, 0, 38, 65
1, 1278421, Control_c, 0, 64, 48
1, 1278436, Control_c, 0, 64, 49
1, 1278451, Control_c, 0, 64, 49
1, 1278465, Note_off_c, 0, 81, 61
1, 1278466, Note_on_c, 0, 79, 71
1, 1278468, Note_on_c, 0, 83, 72
1, 1278474, Note_off_c, 0, 84, 61
1, 1278495, Control_c, 0, 64, 50
1, 1278519, Note_off_c, 0, 79, 59
1, 1278554, Control_c, 0, 64, 50
1, 1278566, Note_on_c, 0, 78, 77
1, 1278570, Note_on_c, 0, 81, 71
1, 1278577, Note_on_c, 0, 50, 63
1, 1278577, Note_on_c, 0, 60, 59
1, 1278584, Control_c, 0, 64, 50
1, 1278589, Note_off_c, 0, 83, 60
1, 1278594, Note_off_c, 0, 81, 66
1, 1278604, Note_off_c, 0, 60, 64
1, 1278612, Note_off_c, 0, 50, 65
1, 1278614, Control_c, 0, 64, 49
1, 1278618, Note_off_c, 0, 78, 64
1, 1278628, Control_c, 0, 64, 49
1, 1278643, Control_c, 0, 64, 48
1, 1278673, Control_c, 0, 64, 48
1, 1278702, Control_c, 0, 64, 47
1, 1278717, Control_c, 0, 64, 47
1, 1278732, Control_c, 0, 64, 46
1, 1278761, Control_c, 0, 64, 45
1, 1278773, Note_on_c, 0, 76, 72
1, 1278776, Control_c, 0, 64, 45
1, 1278779, Note_on_c, 0, 38, 58
1, 1278781, Note_on_c, 0, 72, 69
1, 1278791, Control_c, 0, 64, 44
1, 1278806, Note_off_c, 0, 38, 58
1, 1278806, Control_c, 0, 64, 43
1, 1278821, Control_c, 0, 64, 39
1, 1278821, Control_c, 0, 67, 127
1, 1278829, Note_off_c, 0, 72, 62
1, 1278835, Control_c, 0, 64, 29
1, 1278835, Control_c, 0, 67, 126
1, 1278845, Note_off_c, 0, 76, 61
1, 1278850, Control_c, 0, 64, 0
1, 1278865, Control_c, 0, 67, 127
1, 1278870, Note_on_c, 0, 71, 50
1, 1278870, Note_on_c, 0, 74, 56
1, 1278880, Control_c, 0, 67, 127
1, 1278922, Note_off_c, 0, 71, 50
1, 1278946, Note_off_c, 0, 74, 55
1, 1278963, Note_on_c, 0, 72, 70
1, 1278975, Note_on_c, 0, 54, 56
1, 1278977, Note_on_c, 0, 69, 60
1, 1278979, Note_on_c, 0, 50, 62
1, 1279005, Note_off_c, 0, 72, 61
1, 1279006, Note_off_c, 0, 54, 63
1, 1279007, Note_off_c, 0, 50, 65
1, 1279008, Note_off_c, 0, 69, 66
1, 1279165, Note_on_c, 0, 79, 78
1, 1279172, Note_on_c, 0, 71, 61
1, 1279175, Note_on_c, 0, 38, 58
1, 1279200, Note_off_c, 0, 71, 66
1, 1279205, Note_off_c, 0, 38, 63
1, 1279214, Control_c, 0, 64, 19
1, 1279229, Control_c, 0, 64, 29
1, 1279244, Control_c, 0, 64, 28
1, 1279251, Note_on_c, 0, 81, 76
1, 1279255, Note_off_c, 0, 79, 60
1, 1279258, Control_c, 0, 64, 27
1, 1279273, Control_c, 0, 64, 23
1, 1279288, Control_c, 0, 64, 0
1, 1279353, Note_on_c, 0, 83, 63
1, 1279355, Note_on_c, 0, 79, 67
1, 1279360, Note_off_c, 0, 81, 59
1, 1279369, Note_on_c, 0, 50, 53
1, 1279373, Note_on_c, 0, 55, 53
1, 1279378, Note_off_c, 0, 79, 66
1, 1279381, Note_off_c, 0, 83, 63
1, 1279398, Note_off_c, 0, 50, 64
1, 1279403, Note_off_c, 0, 55, 66
1, 1279548, Note_on_c, 0, 74, 61
1, 1279552, Note_on_c, 0, 71, 60
1, 1279555, Note_on_c, 0, 38, 51
1, 1279584, Note_off_c, 0, 71, 63
1, 1279587, Note_off_c, 0, 38, 51
1, 1279619, Note_off_c, 0, 74, 62
1, 1279642, Note_on_c, 0, 69, 50
1, 1279644, Note_on_c, 0, 72, 61
1, 1279719, Note_off_c, 0, 69, 61
1, 1279739, Note_on_c, 0, 71, 61
1, 1279750, Note_on_c, 0, 67, 56
1, 1279753, Note_off_c, 0, 72, 54
1, 1279779, Note_off_c, 0, 71, 59
1, 1279783, Note_off_c, 0, 67, 64
1, 1279845, Control_c, 0, 64, 17
1, 1279859, Control_c, 0, 64, 30
1, 1279874, Control_c, 0, 64, 35
1, 1279889, Control_c, 0, 64, 39
1, 1279903, Control_c, 0, 64, 41
1, 1279918, Control_c, 0, 64, 43
1, 1279934, Control_c, 0, 64, 44
1, 1279949, Control_c, 0, 64, 45
1, 1279962, Note_on_c, 0, 62, 62
1, 1279964, Control_c, 0, 64, 46
1, 1279979, Control_c, 0, 64, 47
1, 1279981, Note_on_c, 0, 59, 39
1, 1279994, Control_c, 0, 64, 48
1, 1279999, Note_on_c, 0, 50, 30
1, 1280008, Control_c, 0, 64, 49
1, 1280023, Control_c, 0, 64, 50
1, 1280038, Control_c, 0, 64, 52
1, 1280053, Control_c, 0, 64, 55
1, 1280068, Control_c, 0, 64, 56
1, 1280078, Note_off_c, 0, 50, 43
1, 1280082, Note_on_c, 0, 67, 69
1, 1280082, Control_c, 0, 64, 56
1, 1280087, Note_off_c, 0, 62, 58
1, 1280097, Control_c, 0, 64, 57
1, 1280109, Note_off_c, 0, 59, 41
1, 1280112, Control_c, 0, 64, 58
1, 1280194, Note_on_c, 0, 64, 68
1, 1280201, Note_on_c, 0, 50, 48
1, 1280202, Note_on_c, 0, 60, 44
1, 1280215, Note_off_c, 0, 67, 59
1, 1280230, Control_c, 0, 64, 57
1, 1280252, Note_off_c, 0, 60, 49
1, 1280261, Note_off_c, 0, 50, 55
1, 1280299, Note_on_c, 0, 69, 65
1, 1280306, Note_off_c, 0, 64, 64
1, 1280320, Control_c, 0, 64, 57
1, 1280349, Control_c, 0, 64, 56
1, 1280407, Note_on_c, 0, 62, 67
1, 1280411, Note_on_c, 0, 50, 43
1, 1280413, Note_on_c, 0, 59, 43
1, 1280444, Note_off_c, 0, 69, 60
1, 1280466, Note_off_c, 0, 50, 56
1, 1280470, Note_off_c, 0, 59, 48
1, 1280493, Note_off_c, 0, 62, 58
1, 1280498, Note_on_c, 0, 67, 63
1, 1280604, Note_off_c, 0, 67, 59
1, 1280609, Note_on_c, 0, 50, 49
1, 1280612, Note_on_c, 0, 64, 59
1, 1280613, Note_on_c, 0, 60, 49
1, 1280653, Note_off_c, 0, 50, 59
1, 1280656, Note_off_c, 0, 60, 62
1, 1280697, Note_on_c, 0, 69, 54
1, 1280746, Note_off_c, 0, 64, 37
1, 1280795, Note_on_c, 0, 66, 57
1, 1280802, Note_on_c, 0, 50, 37
1, 1280806, Note_on_c, 0, 62, 45
1, 1280839, Note_off_c, 0, 50, 48
1, 1280842, Note_off_c, 0, 62, 53
1, 1280872, Note_off_c, 0, 69, 26
1, 1280890, Control_c, 0, 64, 55
1, 1280898, Note_off_c, 0, 66, 61
1, 1280904, Note_on_c, 0, 72, 52
1, 1280904, Control_c, 0, 64, 49
1, 1280919, Control_c, 0, 64, 26
1, 1280934, Control_c, 0, 64, 0
1, 1280984, Note_off_c, 0, 72, 59
1, 1281002, Note_on_c, 0, 71, 57
1, 1281011, Note_on_c, 0, 55, 49
1, 1281014, Note_on_c, 0, 67, 49
1, 1281015, Note_on_c, 0, 62, 45
1, 1281038, Control_c, 0, 64, 43
1, 1281049, Note_off_c, 0, 55, 61
1, 1281053, Control_c, 0, 64, 54
1, 1281053, Note_off_c, 0, 62, 49
1, 1281068, Control_c, 0, 64, 56
1, 1281082, Control_c, 0, 64, 57
1, 1281114, Note_on_c, 0, 62, 45
1, 1281123, Note_on_c, 0, 55, 35
1, 1281127, Control_c, 0, 64, 57
1, 1281158, Note_off_c, 0, 62, 49
1, 1281184, Note_off_c, 0, 55, 0
1, 1281193, Control_c, 0, 64, 58
1, 1281199, Note_on_c, 0, 55, 42
1, 1281212, Note_on_c, 0, 62, 45
1, 1281223, Control_c, 0, 64, 58
1, 1281247, Note_off_c, 0, 55, 57
1, 1281264, Note_off_c, 0, 62, 40
1, 1281282, Control_c, 0, 64, 59
1, 1281288, Note_on_c, 0, 55, 51
1, 1281297, Control_c, 0, 64, 59
1, 1281298, Note_on_c, 0, 62, 49
1, 1281327, Control_c, 0, 64, 60
1, 1281332, Note_off_c, 0, 62, 55
1, 1281338, Note_off_c, 0, 55, 60
1, 1281356, Control_c, 0, 64, 60
1, 1281396, Note_on_c, 0, 55, 48
1, 1281402, Note_on_c, 0, 62, 67
1, 1281443, Note_off_c, 0, 67, 56
1, 1281447, Note_off_c, 0, 62, 58
1, 1281461, Note_off_c, 0, 55, 65
1, 1281473, Note_off_c, 0, 71, 62
1, 1281535, Control_c, 0, 64, 60
1, 1281550, Control_c, 0, 64, 59
1, 1281565, Control_c, 0, 64, 58
1, 1281579, Control_c, 0, 64, 54
1, 1281594, Control_c, 0, 64, 46
1, 1281602, Note_on_c, 0, 72, 66
1, 1281609, Control_c, 0, 64, 39
1, 1281615, Note_on_c, 0, 69, 47
1, 1281619, Note_on_c, 0, 43, 63
1, 1281624, Control_c, 0, 64, 37
1, 1281648, Note_off_c, 0, 43, 63
1, 1281648, Note_off_c, 0, 69, 58
1, 1281653, Control_c, 0, 64, 38
1, 1281668, Control_c, 0, 64, 40
1, 1281683, Control_c, 0, 64, 41
1, 1281687, Note_off_c, 0, 72, 64
1, 1281696, Note_on_c, 0, 71, 64
1, 1281697, Control_c, 0, 64, 43
1, 1281709, Note_on_c, 0, 74, 56
1, 1281712, Control_c, 0, 64, 43
1, 1281727, Control_c, 0, 64, 44
1, 1281742, Control_c, 0, 64, 44
1, 1281757, Control_c, 0, 64, 45
1, 1281785, Note_off_c, 0, 71, 56
1, 1281786, Control_c, 0, 64, 45
1, 1281801, Control_c, 0, 64, 46
1, 1281802, Note_on_c, 0, 76, 62
1, 1281808, Note_off_c, 0, 74, 63
1, 1281809, Note_on_c, 0, 60, 57
1, 1281816, Control_c, 0, 64, 46
1, 1281817, Note_on_c, 0, 55, 51
1, 1281831, Control_c, 0, 64, 47
1, 1281834, Note_on_c, 0, 72, 42
1, 1281840, Note_off_c, 0, 76, 64
1, 1281843, Note_off_c, 0, 60, 63
1, 1281848, Note_off_c, 0, 55, 65
1, 1281860, Note_off_c, 0, 72, 57
1, 1281861, Control_c, 0, 64, 47
1, 1281891, Control_c, 0, 64, 48
1, 1281912, Note_on_c, 0, 78, 75
1, 1281914, Note_on_c, 0, 60, 64
1, 1281918, Note_on_c, 0, 55, 62
1, 1281946, Note_off_c, 0, 60, 62
1, 1281947, Note_off_c, 0, 55, 65
1, 1281957, Control_c, 0, 64, 47
1, 1281999, Note_off_c, 0, 78, 62
1, 1282004, Note_on_c, 0, 60, 62
1, 1282004, Note_on_c, 0, 76, 67
1, 1282009, Note_on_c, 0, 79, 59
1, 1282013, Note_on_c, 0, 55, 71
1, 1282016, Control_c, 0, 64, 47
1, 1282037, Note_off_c, 0, 60, 63
1, 1282046, Note_off_c, 0, 55, 62
1, 1282046, Control_c, 0, 64, 46
1, 1282075, Control_c, 0, 64, 46
1, 1282082, Note_on_c, 0, 81, 68
1, 1282084, Note_off_c, 0, 76, 52
1, 1282093, Note_off_c, 0, 79, 59
1, 1282099, Note_on_c, 0, 78, 63
1, 1282102, Note_on_c, 0, 60, 70
1, 1282105, Note_on_c, 0, 55, 63
1, 1282117, Note_off_c, 0, 78, 67
1, 1282123, Note_off_c, 0, 81, 60
1, 1282130, Note_off_c, 0, 60, 65
1, 1282142, Note_off_c, 0, 55, 62
1, 1282165, Control_c, 0, 64, 46
1, 1282189, Note_on_c, 0, 83, 77
1, 1282193, Note_on_c, 0, 79, 69
1, 1282198, Note_on_c, 0, 60, 73
1, 1282207, Note_on_c, 0, 52, 70
1, 1282218, Note_off_c, 0, 79, 64
1, 1282227, Note_off_c, 0, 60, 63
1, 1282259, Note_off_c, 0, 52, 61
1, 1282276, Note_on_c, 0, 81, 75
1, 1282281, Note_on_c, 0, 84, 80
1, 1282288, Note_off_c, 0, 83, 57
1, 1282304, Note_off_c, 0, 81, 63
1, 1282312, Control_c, 0, 64, 46
1, 1282327, Note_off_c, 0, 84, 67
1, 1282328, Control_c, 0, 64, 45
1, 1282358, Control_c, 0, 64, 44
1, 1282372, Note_on_c, 0, 48, 63
1, 1282373, Control_c, 0, 64, 43
1, 1282381, Note_on_c, 0, 86, 88
1, 1282384, Note_on_c, 0, 83, 80
1, 1282388, Control_c, 0, 64, 42
1, 1282402, Control_c, 0, 64, 40
1, 1282409, Note_off_c, 0, 48, 62
1, 1282417, Control_c, 0, 64, 36
1, 1282432, Control_c, 0, 64, 34
1, 1282447, Control_c, 0, 64, 32
1, 1282460, Note_off_c, 0, 83, 41
1, 1282462, Control_c, 0, 64, 30
1, 1282466, Note_on_c, 0, 88, 81
1, 1282470, Note_on_c, 0, 84, 80
1, 1282476, Control_c, 0, 64, 23
1, 1282481, Note_off_c, 0, 86, 58
1, 1282491, Control_c, 0, 64, 0
1, 1282581, Note_on_c, 0, 83, 83
1, 1282582, Note_on_c, 0, 86, 91
1, 1282586, Note_on_c, 0, 55, 56
1, 1282600, Note_off_c, 0, 84, 63
1, 1282619, Note_off_c, 0, 55, 65
1, 1282619, Note_off_c, 0, 88, 64
1, 1282662, Control_c, 0, 64, 40
1, 1282676, Control_c, 0, 64, 51
1, 1282686, Note_on_c, 0, 55, 58
1, 1282691, Control_c, 0, 64, 53
1, 1282706, Control_c, 0, 64, 54
1, 1282715, Note_off_c, 0, 55, 67
1, 1282721, Control_c, 0, 64, 54
1, 1282735, Control_c, 0, 64, 55
1, 1282765, Control_c, 0, 64, 54
1, 1282785, Note_on_c, 0, 55, 57
1, 1282810, Note_off_c, 0, 55, 60
1, 1282885, Note_on_c, 0, 55, 58
1, 1282907, Note_off_c, 0, 55, 63
1, 1282981, Note_off_c, 0, 83, 59
1, 1282981, Note_off_c, 0, 86, 60
1, 1282991, Note_on_c, 0, 55, 58
1, 1283179, Note_off_c, 0, 55, 63
1, 1283181, Control_c, 0, 64, 53
1, 1283196, Control_c, 0, 64, 46
1, 1283210, Note_on_c, 0, 69, 57
1, 1283211, Control_c, 0, 64, 29
1, 1283225, Control_c, 0, 64, 0
1, 1283272, Note_off_c, 0, 69, 55
1, 1283298, Note_on_c, 0, 71, 62
1, 1283364, Note_off_c, 0, 71, 53
1, 1283411, Note_on_c, 0, 54, 59
1, 1283414, Note_on_c, 0, 72, 66
1, 1283418, Note_on_c, 0, 69, 48
1, 1283426, Note_on_c, 0, 50, 47
1, 1283446, Note_off_c, 0, 54, 62
1, 1283456, Note_off_c, 0, 50, 59
1, 1283456, Note_off_c, 0, 69, 61
1, 1283501, Note_off_c, 0, 72, 63
1, 1283510, Note_on_c, 0, 54, 66
1, 1283511, Note_on_c, 0, 74, 66
1, 1283512, Note_on_c, 0, 71, 59
1, 1283522, Note_on_c, 0, 50, 36
1, 1283540, Note_off_c, 0, 54, 62
1, 1283550, Note_off_c, 0, 50, 57
1, 1283576, Note_off_c, 0, 71, 58
1, 1283594, Note_on_c, 0, 76, 62
1, 1283595, Note_off_c, 0, 74, 63
1, 1283600, Note_on_c, 0, 54, 70
1, 1283602, Note_on_c, 0, 50, 56
1, 1283621, Note_off_c, 0, 76, 69
1, 1283627, Note_off_c, 0, 54, 63
1, 1283633, Note_on_c, 0, 72, 54
1, 1283633, Control_c, 0, 64, 8
1, 1283638, Note_off_c, 0, 50, 64
1, 1283648, Control_c, 0, 64, 10
1, 1283663, Control_c, 0, 64, 12
1, 1283677, Control_c, 0, 64, 14
1, 1283684, Note_on_c, 0, 54, 72
1, 1283689, Note_on_c, 0, 78, 72
1, 1283692, Note_on_c, 0, 50, 57
1, 1283692, Control_c, 0, 64, 17
1, 1283696, Note_off_c, 0, 72, 56
1, 1283707, Control_c, 0, 64, 19
1, 1283715, Note_on_c, 0, 74, 43
1, 1283717, Note_off_c, 0, 54, 60
1, 1283722, Control_c, 0, 64, 20
1, 1283728, Note_off_c, 0, 50, 61
1, 1283751, Control_c, 0, 64, 21
1, 1283758, Note_off_c, 0, 74, 44
1, 1283776, Note_off_c, 0, 78, 54
1, 1283785, Note_on_c, 0, 76, 70
1, 1283795, Note_on_c, 0, 72, 43
1, 1283796, Control_c, 0, 64, 22
1, 1283801, Note_on_c, 0, 50, 56
1, 1283802, Note_on_c, 0, 54, 50
1, 1283822, Note_off_c, 0, 72, 56
1, 1283825, Control_c, 0, 64, 23
1, 1283828, Note_off_c, 0, 54, 54
1, 1283832, Note_off_c, 0, 50, 65
1, 1283840, Control_c, 0, 64, 23
1, 1283861, Note_off_c, 0, 76, 62
1, 1283879, Note_on_c, 0, 81, 71
1, 1283966, Note_off_c, 0, 81, 57
1, 1283974, Control_c, 0, 64, 24
1, 1283977, Note_on_c, 0, 38, 56
1, 1283983, Note_on_c, 0, 79, 57
1, 1283989, Control_c, 0, 64, 26
1, 1284001, Note_on_c, 0, 76, 49
1, 1284004, Control_c, 0, 64, 27
1, 1284010, Note_off_c, 0, 38, 63
1, 1284019, Control_c, 0, 64, 28
1, 1284031, Note_off_c, 0, 76, 65
1, 1284034, Note_off_c, 0, 79, 57
1, 1284068, Note_on_c, 0, 72, 58
1, 1284145, Control_c, 0, 64, 28
1, 1284159, Control_c, 0, 64, 29
1, 1284173, Control_c, 0, 64, 29
1, 1284184, Note_off_c, 0, 72, 61
1, 1284186, Note_on_c, 0, 74, 54
1, 1284188, Control_c, 0, 64, 31
1, 1284202, Note_on_c, 0, 50, 46
1, 1284203, Control_c, 0, 64, 31
1, 1284205, Note_on_c, 0, 55, 43
1, 1284210, Note_on_c, 0, 71, 25
1, 1284218, Control_c, 0, 64, 32
1, 1284229, Note_off_c, 0, 50, 57
1, 1284233, Control_c, 0, 64, 34
1, 1284247, Control_c, 0, 64, 38
1, 1284262, Control_c, 0, 64, 40
1, 1284277, Control_c, 0, 64, 41
1, 1284281, Note_off_c, 0, 55, 0
1, 1284292, Control_c, 0, 64, 43
1, 1284295, Note_on_c, 0, 55, 36
1, 1284296, Note_on_c, 0, 50, 42
1, 1284306, Control_c, 0, 64, 43
1, 1284326, Note_off_c, 0, 50, 55
1, 1284342, Note_off_c, 0, 55, 44
1, 1284382, Note_on_c, 0, 50, 50
1, 1284389, Note_on_c, 0, 55, 37
1, 1284410, Control_c, 0, 64, 44
1, 1284418, Note_off_c, 0, 50, 60
1, 1284429, Note_off_c, 0, 55, 48
1, 1284466, Note_on_c, 0, 50, 52
1, 1284469, Control_c, 0, 64, 44
1, 1284507, Note_off_c, 0, 71, 47
1, 1284508, Note_off_c, 0, 50, 60
1, 1284515, Note_off_c, 0, 74, 62
1, 1284537, Poly_aftertouch_c, 0, 55, 0
1, 1284558, Control_c, 0, 64, 44
1, 1284567, Note_on_c, 0, 55, 27
1, 1284573, Control_c, 0, 64, 41
1, 1284577, Note_on_c, 0, 50, 51
1, 1284588, Control_c, 0, 64, 38
1, 1284603, Control_c, 0, 64, 34
1, 1284611, Note_off_c, 0, 50, 63
1, 1284613, Note_off_c, 0, 55, 63
1, 1284617, Control_c, 0, 64, 28
1, 1284632, Control_c, 0, 64, 12
1, 1284647, Control_c, 0, 64, 0
1, 1284662, Control_c, 0, 67, 117
1, 1284677, Control_c, 0, 67, 89
1, 1284691, Control_c, 0, 67, 58
1, 1284706, Control_c, 0, 67, 33
1, 1284722, Control_c, 0, 67, 19
1, 1284737, Control_c, 0, 67, 14
1, 1284752, Control_c, 0, 67, 13
1, 1284767, Control_c, 0, 67, 15
1, 1284779, Note_on_c, 0, 84, 84
1, 1284782, Control_c, 0, 67, 18
1, 1284785, Note_on_c, 0, 38, 60
1, 1284786, Note_on_c, 0, 81, 80
1, 1284796, Control_c, 0, 64, 10
1, 1284796, Control_c, 0, 67, 21
1, 1284811, Control_c, 0, 64, 14
1, 1284811, Control_c, 0, 67, 24
1, 1284814, Note_off_c, 0, 38, 65
1, 1284826, Control_c, 0, 64, 15
1, 1284826, Control_c, 0, 67, 26
1, 1284841, Control_c, 0, 67, 30
1, 1284856, Control_c, 0, 67, 34
1, 1284870, Control_c, 0, 64, 17
1, 1284870, Control_c, 0, 67, 39
1, 1284873, Note_off_c, 0, 81, 60
1, 1284877, Note_on_c, 0, 79, 71
1, 1284877, Note_on_c, 0, 83, 72
1, 1284885, Control_c, 0, 67, 44
1, 1284886, Note_off_c, 0, 84, 60
1, 1284907, Control_c, 0, 64, 18
1, 1284907, Control_c, 0, 67, 50
1, 1284922, Control_c, 0, 67, 58
1, 1284931, Note_off_c, 0, 79, 60
1, 1284937, Control_c, 0, 67, 65
1, 1284952, Control_c, 0, 67, 73
1, 1284967, Control_c, 0, 67, 81
1, 1284982, Control_c, 0, 67, 86
1, 1284989, Note_on_c, 0, 78, 74
1, 1284991, Note_on_c, 0, 81, 67
1, 1284995, Note_on_c, 0, 60, 63
1, 1284996, Control_c, 0, 64, 17
1, 1284996, Control_c, 0, 67, 89
1, 1284997, Note_on_c, 0, 50, 62
1, 1285004, Note_off_c, 0, 83, 58
1, 1285011, Control_c, 0, 67, 92
1, 1285015, Note_off_c, 0, 81, 67
1, 1285023, Note_off_c, 0, 60, 65
1, 1285026, Control_c, 0, 64, 15
1, 1285026, Control_c, 0, 67, 94
1, 1285031, Note_off_c, 0, 50, 63
1, 1285041, Control_c, 0, 64, 14
1, 1285041, Control_c, 0, 67, 96
1, 1285041, Note_off_c, 0, 78, 63
1, 1285056, Control_c, 0, 67, 98
1, 1285070, Control_c, 0, 67, 102
1, 1285085, Control_c, 0, 67, 105
1, 1285100, Control_c, 0, 67, 109
1, 1285115, Control_c, 0, 67, 113
1, 1285129, Control_c, 0, 67, 117
1, 1285144, Control_c, 0, 67, 122
1, 1285159, Control_c, 0, 64, 12
1, 1285159, Control_c, 0, 67, 127
1, 1285174, Control_c, 0, 64, 10
1, 1285174, Control_c, 0, 67, 127
1, 1285189, Control_c, 0, 64, 8
1, 1285193, Note_on_c, 0, 38, 63
1, 1285194, Note_on_c, 0, 72, 72
1, 1285194, Note_on_c, 0, 76, 67
1, 1285218, Control_c, 0, 64, 0
1, 1285219, Note_off_c, 0, 38, 62
1, 1285248, Note_off_c, 0, 72, 61
1, 1285265, Note_off_c, 0, 76, 61
1, 1285285, Note_on_c, 0, 71, 59
1, 1285285, Note_on_c, 0, 74, 62
1, 1285319, Note_off_c, 0, 71, 60
1, 1285368, Note_off_c, 0, 74, 47
1, 1285375, Note_on_c, 0, 72, 66
1, 1285381, Control_c, 0, 64, 10
1, 1285384, Note_on_c, 0, 54, 61
1, 1285387, Note_on_c, 0, 69, 64
1, 1285392, Note_on_c, 0, 50, 58
1, 1285396, Control_c, 0, 64, 14
1, 1285407, Note_off_c, 0, 72, 64
1, 1285411, Control_c, 0, 64, 17
1, 1285414, Note_off_c, 0, 69, 66
1, 1285415, Note_off_c, 0, 54, 63
1, 1285421, Note_off_c, 0, 50, 64
1, 1285441, Control_c, 0, 64, 18
1, 1285455, Control_c, 0, 64, 19
1, 1285500, Control_c, 0, 64, 18
1, 1285560, Control_c, 0, 64, 19
1, 1285572, Note_on_c, 0, 79, 78
1, 1285575, Control_c, 0, 64, 22
1, 1285579, Note_on_c, 0, 38, 59
1, 1285581, Note_on_c, 0, 71, 61
1, 1285590, Control_c, 0, 64, 23
1, 1285605, Control_c, 0, 64, 26
1, 1285610, Note_off_c, 0, 38, 64
1, 1285611, Note_off_c, 0, 71, 66
1, 1285619, Control_c, 0, 64, 28
1, 1285634, Control_c, 0, 64, 29
1, 1285656, Control_c, 0, 64, 30
1, 1285662, Note_on_c, 0, 81, 81
1, 1285665, Note_off_c, 0, 79, 56
1, 1285715, Control_c, 0, 64, 31
1, 1285773, Note_on_c, 0, 83, 68
1, 1285778, Note_on_c, 0, 55, 56
1, 1285778, Note_on_c, 0, 79, 64
1, 1285779, Note_off_c, 0, 81, 57
1, 1285781, Note_on_c, 0, 50, 55
1, 1285802, Note_off_c, 0, 79, 65
1, 1285805, Note_off_c, 0, 83, 61
1, 1285813, Note_off_c, 0, 50, 65
1, 1285813, Note_off_c, 0, 55, 64
1, 1285849, Control_c, 0, 64, 30
1, 1285864, Control_c, 0, 64, 29
1, 1285878, Control_c, 0, 64, 29
1, 1285893, Control_c, 0, 64, 28
1, 1285961, Note_on_c, 0, 38, 59
1, 1285968, Note_on_c, 0, 74, 53
1, 1285974, Note_on_c, 0, 71, 57
1, 1285982, Control_c, 0, 64, 28
1, 1285989, Note_off_c, 0, 38, 56
1, 1285997, Control_c, 0, 64, 26
1, 1286009, Note_off_c, 0, 71, 62
1, 1286012, Control_c, 0, 64, 23
1, 1286026, Control_c, 0, 64, 21
1, 1286035, Note_off_c, 0, 74, 63
1, 1286041, Control_c, 0, 64, 19
1, 1286056, Control_c, 0, 64, 18
1, 1286059, Note_on_c, 0, 69, 48
1, 1286066, Note_on_c, 0, 72, 56
1, 1286132, Note_off_c, 0, 69, 61
1, 1286144, Control_c, 0, 64, 19
1, 1286155, Note_on_c, 0, 71, 58
1, 1286159, Control_c, 0, 64, 20
1, 1286165, Note_on_c, 0, 67, 47
1, 1286165, Note_off_c, 0, 72, 60
1, 1286188, Note_off_c, 0, 71, 63
1, 1286189, Control_c, 0, 64, 22
1, 1286198, Note_off_c, 0, 67, 61
1, 1286204, Control_c, 0, 64, 26
1, 1286219, Control_c, 0, 64, 33
1, 1286234, Control_c, 0, 64, 37
1, 1286249, Control_c, 0, 64, 41
1, 1286264, Control_c, 0, 64, 45
1, 1286278, Control_c, 0, 64, 48
1, 1286293, Control_c, 0, 64, 50
1, 1286308, Control_c, 0, 64, 52
1, 1286323, Control_c, 0, 64, 54
1, 1286338, Control_c, 0, 64, 56
1, 1286353, Control_c, 0, 64, 57
1, 1286368, Control_c, 0, 64, 58
1, 1286368, Note_on_c, 0, 59, 53
1, 1286377, Note_on_c, 0, 62, 48
1, 1286383, Control_c, 0, 64, 59
1, 1286406, Control_c, 0, 64, 59
1, 1286407, Note_on_c, 0, 50, 41
1, 1286421, Control_c, 0, 64, 60
1, 1286480, Control_c, 0, 64, 59
1, 1286487, Note_off_c, 0, 62, 38
1, 1286505, Note_on_c, 0, 67, 54
1, 1286522, Note_off_c, 0, 50, 57
1, 1286613, Note_on_c, 0, 60, 63
1, 1286617, Note_off_c, 0, 59, 62
1, 1286619, Note_on_c, 0, 64, 56
1, 1286620, Note_off_c, 0, 67, 53
1, 1286626, Note_on_c, 0, 50, 56
1, 1286657, Control_c, 0, 64, 60
1, 1286709, Note_off_c, 0, 64, 62
1, 1286710, Note_off_c, 0, 50, 62
1, 1286720, Note_on_c, 0, 69, 56
1, 1286812, Note_on_c, 0, 59, 65
1, 1286812, Note_on_c, 0, 62, 61
1, 1286812, Note_off_c, 0, 60, 60
1, 1286822, Note_on_c, 0, 50, 62
1, 1286847, Note_off_c, 0, 69, 53
1, 1286893, Note_off_c, 0, 62, 55
1, 1286899, Note_off_c, 0, 50, 60
1, 1286905, Note_on_c, 0, 67, 61
1, 1286977, Note_off_c, 0, 59, 64
1, 1287003, Note_on_c, 0, 60, 69
1, 1287006, Note_off_c, 0, 67, 58
1, 1287009, Note_on_c, 0, 50, 68
1, 1287016, Note_on_c, 0, 64, 56
1, 1287084, Note_off_c, 0, 50, 54
1, 1287091, Note_on_c, 0, 69, 60
1, 1287117, Note_off_c, 0, 64, 56
1, 1287167, Note_off_c, 0, 60, 61
1, 1287196, Note_on_c, 0, 66, 66
1, 1287197, Note_on_c, 0, 62, 72
1, 1287198, Control_c, 0, 64, 59
1, 1287203, Note_off_c, 0, 69, 52
1, 1287214, Note_on_c, 0, 50, 64
1, 1287243, Control_c, 0, 64, 59
1, 1287290, Note_off_c, 0, 66, 60
1, 1287301, Note_on_c, 0, 72, 54
1, 1287316, Control_c, 0, 64, 58
1, 1287361, Control_c, 0, 64, 58
1, 1287376, Control_c, 0, 64, 57
1, 1287379, Note_off_c, 0, 72, 59
1, 1287384, Note_on_c, 0, 67, 58
1, 1287390, Control_c, 0, 64, 57
1, 1287405, Control_c, 0, 64, 56
1, 1287420, Control_c, 0, 64, 56
1, 1287435, Control_c, 0, 64, 55
1, 1287450, Control_c, 0, 64, 55
1, 1287465, Control_c, 0, 64, 54
1, 1287480, Control_c, 0, 64, 53
1, 1287483, Note_off_c, 0, 62, 56
1, 1287485, Note_on_c, 0, 71, 58
1, 1287495, Control_c, 0, 64, 53
1, 1287510, Control_c, 0, 64, 52
1, 1287513, Note_off_c, 0, 67, 47
1, 1287524, Control_c, 0, 64, 52
1, 1287539, Control_c, 0, 64, 51
1, 1287554, Control_c, 0, 64, 48
1, 1287566, Note_off_c, 0, 71, 51
1, 1287569, Control_c, 0, 64, 41
1, 1287575, Note_on_c, 0, 54, 54
1, 1287584, Control_c, 0, 64, 0
1, 1287584, Note_on_c, 0, 69, 61
1, 1287590, Note_on_c, 0, 62, 58
1, 1287647, Note_off_c, 0, 62, 54
1, 1287661, Note_off_c, 0, 50, 50
1, 1287675, Note_on_c, 0, 74, 54
1, 1287687, Note_off_c, 0, 69, 58
1, 1287702, Control_c, 0, 64, 27
1, 1287716, Control_c, 0, 64, 47
1, 1287731, Control_c, 0, 64, 52
1, 1287742, Note_off_c, 0, 74, 63
1, 1287746, Control_c, 0, 64, 53
1, 1287761, Note_on_c, 0, 55, 62
1, 1287761, Control_c, 0, 64, 53
1, 1287771, Note_on_c, 0, 62, 60
1, 1287775, Note_off_c, 0, 54, 61
1, 1287776, Control_c, 0, 64, 54
1, 1287778, Note_on_c, 0, 71, 47
1, 1287793, Note_off_c, 0, 55, 65
1, 1287826, Note_off_c, 0, 62, 63
1, 1287849, Note_off_c, 0, 71, 62
1, 1287849, Control_c, 0, 64, 53
1, 1287861, Note_on_c, 0, 74, 61
1, 1287894, Note_off_c, 0, 74, 70
1, 1287960, Note_on_c, 0, 71, 65
1, 1287963, Note_on_c, 0, 62, 58
1, 1287975, Note_on_c, 0, 74, 64
1, 1288049, Note_off_c, 0, 62, 60
1, 1288055, Note_off_c, 0, 74, 57
1, 1288066, Note_on_c, 0, 79, 66
1, 1288150, Note_off_c, 0, 79, 57
1, 1288157, Note_on_c, 0, 72, 64
1, 1288159, Note_off_c, 0, 71, 62
1, 1288165, Note_on_c, 0, 62, 68
1, 1288166, Note_on_c, 0, 76, 65
1, 1288248, Note_off_c, 0, 76, 62
1, 1288258, Note_on_c, 0, 81, 65
1, 1288261, Note_off_c, 0, 62, 61
1, 1288340, Note_on_c, 0, 71, 72
1, 1288347, Note_off_c, 0, 81, 56
1, 1288348, Note_on_c, 0, 74, 63
1, 1288353, Note_off_c, 0, 72, 62
1, 1288360, Note_on_c, 0, 62, 61
1, 1288424, Note_off_c, 0, 74, 62
1, 1288426, Note_off_c, 0, 62, 59
1, 1288428, Note_on_c, 0, 79, 69
1, 1288497, Note_off_c, 0, 71, 62
1, 1288525, Control_c, 0, 67, 124
1, 1288526, Note_on_c, 0, 72, 71
1, 1288528, Note_on_c, 0, 62, 72
1, 1288529, Note_off_c, 0, 79, 58
1, 1288532, Note_on_c, 0, 76, 67
1, 1288539, Control_c, 0, 67, 121
1, 1288554, Control_c, 0, 67, 118
1, 1288569, Control_c, 0, 64, 54
1, 1288569, Control_c, 0, 67, 116
1, 1288583, Control_c, 0, 67, 114
1, 1288598, Control_c, 0, 67, 111
1, 1288613, Note_on_c, 0, 81, 64
1, 1288613, Control_c, 0, 67, 109
1, 1288619, Note_off_c, 0, 62, 46
1, 1288628, Control_c, 0, 67, 106
1, 1288642, Note_off_c, 0, 76, 57
1, 1288651, Control_c, 0, 64, 54
1, 1288651, Control_c, 0, 67, 103
1, 1288665, Control_c, 0, 67, 101
1, 1288680, Control_c, 0, 64, 55
1, 1288680, Control_c, 0, 67, 98
1, 1288684, Note_off_c, 0, 72, 64
1, 1288695, Control_c, 0, 67, 97
1, 1288710, Control_c, 0, 64, 55
1, 1288710, Control_c, 0, 67, 96
1, 1288714, Note_on_c, 0, 78, 68
1, 1288723, Note_off_c, 0, 81, 53
1, 1288726, Control_c, 0, 67, 95
1, 1288729, Note_on_c, 0, 74, 72
1, 1288735, Note_on_c, 0, 62, 69
1, 1288756, Control_c, 0, 67, 94
1, 1288770, Control_c, 0, 67, 93
1, 1288785, Control_c, 0, 64, 54
1, 1288785, Control_c, 0, 67, 92
1, 1288800, Control_c, 0, 64, 51
1, 1288800, Control_c, 0, 67, 91
1, 1288801, Note_off_c, 0, 78, 59
1, 1288811, Note_on_c, 0, 84, 63
1, 1288815, Control_c, 0, 64, 37
1, 1288815, Control_c, 0, 67, 90
1, 1288830, Control_c, 0, 64, 0
1, 1288830, Control_c, 0, 67, 89
1, 1288844, Control_c, 0, 67, 88
1, 1288859, Control_c, 0, 67, 87
1, 1288874, Control_c, 0, 67, 86
1, 1288888, Control_c, 0, 67, 84
1, 1288896, Note_off_c, 0, 84, 59
1, 1288903, Control_c, 0, 67, 82
1, 1288908, Note_on_c, 0, 79, 67
1, 1288918, Control_c, 0, 67, 80
1, 1288933, Control_c, 0, 64, 41
1, 1288933, Control_c, 0, 67, 78
1, 1288948, Control_c, 0, 64, 49
1, 1288948, Control_c, 0, 67, 77
1, 1288963, Control_c, 0, 64, 50
1, 1288963, Control_c, 0, 67, 75
1, 1288977, Control_c, 0, 64, 51
1, 1288977, Control_c, 0, 67, 74
1, 1288980, Note_off_c, 0, 74, 61
1, 1288992, Control_c, 0, 67, 73
1, 1289002, Note_on_c, 0, 83, 56
1, 1289007, Control_c, 0, 67, 72
1, 1289012, Note_off_c, 0, 79, 54
1, 1289022, Control_c, 0, 64, 50
1, 1289022, Control_c, 0, 67, 71
1, 1289051, Control_c, 0, 67, 70
1, 1289075, Note_off_c, 0, 83, 56
1, 1289081, Control_c, 0, 67, 70
1, 1289089, Note_on_c, 0, 81, 64
1, 1289095, Note_on_c, 0, 74, 55
1, 1289103, Note_on_c, 0, 66, 52
1, 1289160, Note_off_c, 0, 74, 61
1, 1289188, Note_on_c, 0, 86, 62
1, 1289191, Note_off_c, 0, 81, 55
1, 1289259, Note_off_c, 0, 86, 62
1, 1289259, Control_c, 0, 67, 70
1, 1289284, Note_on_c, 0, 67, 61
1, 1289284, Note_on_c, 0, 74, 53
1, 1289285, Note_on_c, 0, 83, 55
1, 1289320, Note_off_c, 0, 66, 39
1, 1289328, Note_off_c, 0, 62, 40
1, 1289340, Note_off_c, 0, 74, 59
1, 1289348, Control_c, 0, 64, 47
1, 1289348, Control_c, 0, 67, 71
1, 1289349, Note_off_c, 0, 67, 59
1, 1289362, Control_c, 0, 64, 31
1, 1289370, Note_off_c, 0, 83, 62
1, 1289377, Note_on_c, 0, 86, 67
1, 1289377, Control_c, 0, 64, 0
1, 1289411, Note_off_c, 0, 86, 66
1, 1289414, Control_c, 0, 67, 71
1, 1289429, Control_c, 0, 67, 72
1, 1289459, Control_c, 0, 67, 72
1, 1289474, Control_c, 0, 67, 73
1, 1289488, Control_c, 0, 67, 74
1, 1289491, Note_on_c, 0, 86, 89
1, 1289497, Note_on_c, 0, 62, 53
1, 1289503, Control_c, 0, 67, 74
1, 1289504, Note_on_c, 0, 71, 49
1, 1289519, Control_c, 0, 67, 75
1, 1289549, Control_c, 0, 67, 75
1, 1289550, Note_off_c, 0, 71, 60
1, 1289555, Note_off_c, 0, 62, 56
1, 1289563, Control_c, 0, 67, 76
1, 1289587, Note_on_c, 0, 91, 80
1, 1289593, Control_c, 0, 67, 76
1, 1289595, Note_off_c, 0, 86, 65
1, 1289608, Control_c, 0, 64, 26
1, 1289608, Control_c, 0, 67, 77
1, 1289623, Control_c, 0, 64, 44
1, 1289623, Control_c, 0, 67, 77
1, 1289637, Control_c, 0, 64, 55
1, 1289637, Control_c, 0, 67, 79
1, 1289652, Control_c, 0, 64, 53
1, 1289652, Control_c, 0, 67, 80
1, 1289667, Control_c, 0, 64, 40
1, 1289667, Control_c, 0, 67, 81
1, 1289671, Note_off_c, 0, 91, 54
1, 1289682, Note_on_c, 0, 88, 82
1, 1289682, Control_c, 0, 64, 0
1, 1289691, Note_on_c, 0, 62, 54
1, 1289695, Note_on_c, 0, 72, 53
1, 1289711, Control_c, 0, 67, 81
1, 1289731, Note_off_c, 0, 72, 64
1, 1289744, Note_off_c, 0, 62, 52
1, 1289752, Note_off_c, 0, 88, 64
1, 1289756, Control_c, 0, 64, 21
1, 1289771, Control_c, 0, 64, 24
1, 1289780, Note_on_c, 0, 84, 68
1, 1289804, Note_off_c, 0, 84, 67
1, 1289815, Control_c, 0, 64, 23
1, 1289830, Control_c, 0, 64, 21
1, 1289830, Control_c, 0, 67, 81
1, 1289844, Control_c, 0, 64, 18
1, 1289859, Control_c, 0, 64, 14
1, 1289869, Note_on_c, 0, 84, 73
1, 1289874, Control_c, 0, 64, 12
1, 1289874, Control_c, 0, 67, 80
1, 1289879, Note_on_c, 0, 62, 52
1, 1289886, Note_on_c, 0, 69, 55
1, 1289918, Control_c, 0, 64, 17
1, 1289918, Control_c, 0, 67, 81
1, 1289919, Note_off_c, 0, 62, 60
1, 1289923, Note_off_c, 0, 69, 63
1, 1289933, Note_off_c, 0, 84, 62
1, 1289933, Control_c, 0, 64, 19
1, 1289948, Control_c, 0, 64, 20
1, 1289963, Control_c, 0, 64, 21
1, 1289969, Note_on_c, 0, 81, 63
1, 1289993, Control_c, 0, 64, 20
1, 1290008, Control_c, 0, 64, 19
1, 1290046, Note_off_c, 0, 81, 50
1, 1290052, Note_on_c, 0, 82, 66
1, 1290053, Note_on_c, 0, 62, 55
1, 1290054, Note_on_c, 0, 73, 61
1, 1290067, Control_c, 0, 64, 20
1, 1290067, Control_c, 0, 67, 81
1, 1290097, Control_c, 0, 64, 21
1, 1290103, Note_off_c, 0, 73, 57
1, 1290106, Note_off_c, 0, 62, 58
1, 1290111, Control_c, 0, 64, 20
1, 1290126, Control_c, 0, 64, 0
1, 1290126, Control_c, 0, 67, 81
1, 1290128, Note_on_c, 0, 85, 64
1, 1290149, Note_off_c, 0, 82, 61
1, 1290178, Note_off_c, 0, 85, 59
1, 1290237, Control_c, 0, 64, 55
1, 1290240, Note_on_c, 0, 83, 87
1, 1290245, Note_on_c, 0, 74, 68
1, 1290250, Note_on_c, 0, 62, 59
1, 1290252, Control_c, 0, 64, 63
1, 1290252, Control_c, 0, 67, 81
1, 1290267, Control_c, 0, 64, 62
1, 1290282, Control_c, 0, 64, 54
1, 1290295, Note_off_c, 0, 62, 55
1, 1290296, Note_off_c, 0, 74, 50
1, 1290297, Control_c, 0, 64, 43
1, 1290297, Control_c, 0, 67, 82
1, 1290313, Control_c, 0, 64, 33
1, 1290328, Control_c, 0, 64, 28
1, 1290330, Note_on_c, 0, 86, 76
1, 1290332, Note_off_c, 0, 83, 61
1, 1290342, Control_c, 0, 64, 31
1, 1290357, Control_c, 0, 64, 39
1, 1290372, Control_c, 0, 64, 45
1, 1290387, Control_c, 0, 64, 46
1, 1290398, Note_off_c, 0, 86, 58
1, 1290402, Control_c, 0, 67, 82
1, 1290429, Note_on_c, 0, 67, 62
1, 1290433, Note_on_c, 0, 83, 78
1, 1290440, Note_on_c, 0, 62, 58
1, 1290446, Control_c, 0, 64, 46
1, 1290446, Control_c, 0, 67, 83
1, 1290461, Control_c, 0, 64, 45
1, 1290476, Control_c, 0, 64, 45
1, 1290488, Note_off_c, 0, 62, 50
1, 1290490, Control_c, 0, 64, 44
1, 1290497, Note_off_c, 0, 67, 58
1, 1290505, Control_c, 0, 64, 44
1, 1290508, Note_off_c, 0, 83, 62
1, 1290520, Control_c, 0, 64, 43
1, 1290520, Control_c, 0, 67, 83
1, 1290522, Note_on_c, 0, 79, 65
1, 1290535, Control_c, 0, 64, 43
1, 1290550, Control_c, 0, 64, 42
1, 1290550, Control_c, 0, 67, 84
1, 1290550, Note_off_c, 0, 79, 62
1, 1290580, Control_c, 0, 64, 42
1, 1290616, Note_on_c, 0, 79, 72
1, 1290619, Note_on_c, 0, 62, 54
1, 1290624, Control_c, 0, 67, 84
1, 1290627, Note_on_c, 0, 71, 50
1, 1290639, Control_c, 0, 67, 85
1, 1290657, Note_off_c, 0, 79, 59
1, 1290668, Control_c, 0, 64, 41
1, 1290668, Control_c, 0, 67, 85
1, 1290669, Note_off_c, 0, 71, 60
1, 1290676, Note_off_c, 0, 62, 52
1, 1290683, Control_c, 0, 67, 86
1, 1290714, Note_on_c, 0, 74, 57
1, 1290742, Control_c, 0, 64, 41
1, 1290757, Control_c, 0, 67, 86
1, 1290787, Control_c, 0, 67, 87
1, 1290795, Note_off_c, 0, 74, 58
1, 1290800, Note_on_c, 0, 70, 55
1, 1290802, Control_c, 0, 64, 41
1, 1290803, Note_on_c, 0, 73, 61
1, 1290804, Note_on_c, 0, 62, 52
1, 1290816, Control_c, 0, 67, 87
1, 1290831, Control_c, 0, 67, 89
1, 1290839, Note_off_c, 0, 62, 58
1, 1290845, Note_off_c, 0, 70, 59
1, 1290846, Control_c, 0, 64, 41
1, 1290846, Control_c, 0, 67, 89
1, 1290860, Control_c, 0, 64, 37
1, 1290869, Note_off_c, 0, 73, 49
1, 1290875, Control_c, 0, 64, 25
1, 1290875, Control_c, 0, 67, 90
1, 1290891, Note_on_c, 0, 76, 64
1, 1290897, Control_c, 0, 64, 0
1, 1290934, Note_off_c, 0, 76, 60
1, 1290941, Control_c, 0, 64, 15
1, 1290956, Control_c, 0, 64, 36
1, 1290956, Control_c, 0, 67, 91
1, 1290971, Control_c, 0, 64, 46
1, 1290971, Control_c, 0, 67, 92
1, 1290981, Note_on_c, 0, 74, 83
1, 1290984, Note_on_c, 0, 62, 67
1, 1290985, Control_c, 0, 64, 48
1, 1290985, Control_c, 0, 67, 95
1, 1290986, Note_on_c, 0, 71, 62
1, 1291000, Control_c, 0, 64, 48
1, 1291000, Control_c, 0, 67, 99
1, 1291009, Note_off_c, 0, 71, 66
1, 1291015, Control_c, 0, 64, 47
1, 1291015, Control_c, 0, 67, 103
1, 1291019, Note_off_c, 0, 62, 62
1, 1291030, Control_c, 0, 64, 47
1, 1291030, Control_c, 0, 67, 106
1, 1291045, Control_c, 0, 64, 46
1, 1291045, Control_c, 0, 67, 108
1, 1291060, Control_c, 0, 64, 45
1, 1291060, Control_c, 0, 67, 109
1, 1291065, Note_off_c, 0, 74, 64
1, 1291075, Control_c, 0, 64, 45
1, 1291075, Control_c, 0, 67, 110
1, 1291075, Note_on_c, 0, 79, 67
1, 1291090, Control_c, 0, 64, 44
1, 1291090, Control_c, 0, 67, 112
1, 1291105, Control_c, 0, 64, 43
1, 1291105, Control_c, 0, 67, 113
1, 1291120, Control_c, 0, 64, 43
1, 1291120, Control_c, 0, 67, 115
1, 1291135, Control_c, 0, 64, 42
1, 1291135, Control_c, 0, 67, 118
1, 1291140, Note_off_c, 0, 79, 58
1, 1291150, Control_c, 0, 64, 42
1, 1291150, Control_c, 0, 67, 123
1, 1291164, Control_c, 0, 64, 41
1, 1291164, Control_c, 0, 67, 127
1, 1291171, Note_on_c, 0, 76, 70
1, 1291176, Note_on_c, 0, 60, 70
1, 1291179, Control_c, 0, 64, 41
1, 1291182, Note_on_c, 0, 50, 65
1, 1291194, Control_c, 0, 64, 40
1, 1291207, Note_off_c, 0, 60, 61
1, 1291209, Control_c, 0, 64, 40
1, 1291218, Note_off_c, 0, 50, 62
1, 1291224, Control_c, 0, 64, 39
1, 1291239, Control_c, 0, 64, 39
1, 1291250, Note_off_c, 0, 76, 65
1, 1291254, Control_c, 0, 64, 38
1, 1291266, Note_on_c, 0, 72, 62
1, 1291268, Control_c, 0, 64, 38
1, 1291283, Control_c, 0, 64, 36
1, 1291292, Note_off_c, 0, 72, 63
1, 1291313, Control_c, 0, 64, 35
1, 1291358, Note_on_c, 0, 57, 63
1, 1291361, Note_on_c, 0, 50, 59
1, 1291362, Note_on_c, 0, 72, 67
1, 1291400, Note_off_c, 0, 57, 61
1, 1291409, Note_off_c, 0, 50, 50
1, 1291409, Note_off_c, 0, 72, 54
1, 1291416, Control_c, 0, 64, 36
1, 1291450, Note_on_c, 0, 69, 56
1, 1291527, Note_off_c, 0, 69, 38
1, 1291535, Control_c, 0, 64, 36
1, 1291537, Note_on_c, 0, 61, 64
1, 1291543, Note_on_c, 0, 50, 53
1, 1291547, Note_on_c, 0, 70, 64
1, 1291550, Control_c, 0, 64, 37
1, 1291564, Control_c, 0, 64, 37
1, 1291579, Control_c, 0, 64, 38
1, 1291584, Note_off_c, 0, 61, 57
1, 1291594, Note_off_c, 0, 50, 62
1, 1291621, Note_on_c, 0, 73, 68
1, 1291623, Control_c, 0, 64, 37
1, 1291640, Note_off_c, 0, 70, 60
1, 1291646, Control_c, 0, 64, 37
1, 1291661, Control_c, 0, 64, 36
1, 1291679, Note_off_c, 0, 73, 59
1, 1291726, Note_on_c, 0, 71, 88
1, 1291728, Note_on_c, 0, 62, 66
1, 1291734, Note_on_c, 0, 50, 59
1, 1291750, Control_c, 0, 64, 37
1, 1291762, Note_off_c, 0, 62, 59
1, 1291764, Control_c, 0, 64, 38
1, 1291776, Note_off_c, 0, 50, 59
1, 1291779, Control_c, 0, 64, 38
1, 1291806, Note_off_c, 0, 71, 63
1, 1291813, Note_on_c, 0, 74, 74
1, 1291838, Control_c, 0, 64, 38
1, 1291883, Control_c, 0, 64, 37
1, 1291886, Note_off_c, 0, 74, 60
1, 1291912, Note_on_c, 0, 71, 72
1, 1291917, Note_on_c, 0, 55, 53
1, 1291921, Note_on_c, 0, 50, 49
1, 1291958, Note_off_c, 0, 55, 64
1, 1291958, Control_c, 0, 64, 36
1, 1291960, Note_off_c, 0, 50, 62
1, 1291973, Control_c, 0, 64, 36
1, 1291987, Control_c, 0, 64, 35
1, 1291988, Note_off_c, 0, 71, 62
1, 1291999, Note_on_c, 0, 67, 67
1, 1292002, Control_c, 0, 64, 34
1, 1292017, Control_c, 0, 64, 33
1, 1292029, Note_off_c, 0, 67, 61
1, 1292032, Control_c, 0, 64, 32
1, 1292061, Control_c, 0, 64, 32
1, 1292091, Control_c, 0, 64, 32
1, 1292092, Note_on_c, 0, 59, 62
1, 1292098, Note_on_c, 0, 67, 66
1, 1292100, Note_on_c, 0, 50, 54
1, 1292106, Control_c, 0, 64, 33
1, 1292132, Note_off_c, 0, 59, 58
1, 1292140, Note_off_c, 0, 50, 61
1, 1292145, Note_off_c, 0, 67, 59
1, 1292151, Control_c, 0, 64, 32
1, 1292166, Control_c, 0, 64, 31
1, 1292180, Control_c, 0, 64, 31
1, 1292190, Note_on_c, 0, 62, 65
1, 1292210, Control_c, 0, 64, 30
1, 1292239, Control_c, 0, 64, 31
1, 1292254, Control_c, 0, 64, 31
1, 1292261, Note_on_c, 0, 54, 70
1, 1292269, Control_c, 0, 64, 32
1, 1292270, Note_on_c, 0, 50, 55
1, 1292270, Note_on_c, 0, 69, 80
1, 1292275, Note_off_c, 0, 62, 37
1, 1292284, Control_c, 0, 64, 33
1, 1292299, Control_c, 0, 64, 32
1, 1292305, Note_off_c, 0, 50, 62
1, 1292313, Control_c, 0, 64, 31
1, 1292321, Note_off_c, 0, 54, 61
1, 1292328, Control_c, 0, 64, 29
1, 1292343, Control_c, 0, 64, 28
1, 1292346, Note_off_c, 0, 69, 61
1, 1292374, Note_on_c, 0, 66, 66
1, 1292425, Control_c, 0, 64, 29
1, 1292438, Note_off_c, 0, 66, 0
1, 1292439, Control_c, 0, 64, 30
1, 1292454, Control_c, 0, 64, 31
1, 1292456, Note_on_c, 0, 66, 55
1, 1292463, Note_on_c, 0, 60, 59
1, 1292469, Control_c, 0, 64, 32
1, 1292471, Note_on_c, 0, 50, 55
1, 1292484, Control_c, 0, 64, 34
1, 1292496, Note_off_c, 0, 60, 62
1, 1292499, Control_c, 0, 64, 35
1, 1292513, Note_off_c, 0, 66, 64
1, 1292513, Control_c, 0, 64, 35
1, 1292515, Note_off_c, 0, 50, 59
1, 1292528, Control_c, 0, 64, 36
1, 1292555, Note_on_c, 0, 62, 64
1, 1292573, Control_c, 0, 64, 35
1, 1292587, Control_c, 0, 64, 34
1, 1292613, Note_off_c, 0, 62, 54
1, 1292617, Control_c, 0, 64, 34
1, 1292647, Note_on_c, 0, 50, 53
1, 1292650, Note_on_c, 0, 55, 55
1, 1292654, Note_on_c, 0, 71, 55
1, 1292688, Note_off_c, 0, 55, 65
1, 1292690, Note_off_c, 0, 50, 61
1, 1292691, Control_c, 0, 64, 34
1, 1292729, Note_off_c, 0, 71, 60
1, 1292734, Note_on_c, 0, 67, 58
1, 1292736, Control_c, 0, 64, 34
1, 1292766, Control_c, 0, 64, 33
1, 1292768, Note_off_c, 0, 67, 62
1, 1292822, Note_on_c, 0, 59, 54
1, 1292825, Control_c, 0, 64, 34
1, 1292833, Note_on_c, 0, 50, 45
1, 1292837, Note_on_c, 0, 67, 48
1, 1292854, Control_c, 0, 64, 35
1, 1292866, Note_off_c, 0, 59, 58
1, 1292869, Control_c, 0, 64, 35
1, 1292873, Note_off_c, 0, 67, 63
1, 1292875, Note_off_c, 0, 50, 60
1, 1292884, Control_c, 0, 64, 36
1, 1292918, Note_on_c, 0, 62, 52
1, 1292973, Note_off_c, 0, 62, 49
1, 1293003, Note_on_c, 0, 69, 60
1, 1293005, Note_on_c, 0, 54, 56
1, 1293015, Note_on_c, 0, 50, 44
1, 1293048, Control_c, 0, 64, 36
1, 1293050, Note_off_c, 0, 50, 60
1, 1293050, Note_off_c, 0, 54, 59
1, 1293068, Note_off_c, 0, 69, 48
1, 1293099, Note_on_c, 0, 66, 56
1, 1293138, Note_off_c, 0, 66, 65
1, 1293188, Note_on_c, 0, 60, 52
1, 1293188, Control_c, 0, 64, 37
1, 1293197, Note_on_c, 0, 50, 43
1, 1293200, Note_on_c, 0, 66, 56
1, 1293203, Control_c, 0, 64, 38
1, 1293218, Control_c, 0, 64, 38
1, 1293227, Note_off_c, 0, 60, 61
1, 1293233, Control_c, 0, 64, 39
1, 1293236, Note_off_c, 0, 66, 62
1, 1293244, Note_off_c, 0, 50, 60
1, 1293280, Note_on_c, 0, 62, 64
1, 1293293, Control_c, 0, 64, 38
1, 1293307, Control_c, 0, 64, 38
1, 1293341, Note_off_c, 0, 62, 51
1, 1293380, Note_on_c, 0, 50, 52
1, 1293381, Control_c, 0, 64, 38
1, 1293385, Note_on_c, 0, 55, 49
1, 1293386, Note_on_c, 0, 71, 53
1, 1293396, Control_c, 0, 64, 39
1, 1293411, Control_c, 0, 64, 40
1, 1293424, Note_off_c, 0, 55, 64
1, 1293426, Control_c, 0, 64, 40
1, 1293427, Note_off_c, 0, 50, 59
1, 1293459, Note_off_c, 0, 71, 62
1, 1293465, Note_on_c, 0, 67, 62
1, 1293507, Note_off_c, 0, 67, 54
1, 1293571, Note_on_c, 0, 67, 49
1, 1293572, Note_on_c, 0, 59, 51
1, 1293575, Note_on_c, 0, 50, 47
1, 1293575, Control_c, 0, 64, 41
1, 1293590, Control_c, 0, 64, 42
1, 1293605, Control_c, 0, 64, 43
1, 1293606, Note_off_c, 0, 67, 64
1, 1293609, Note_off_c, 0, 59, 61
1, 1293617, Note_off_c, 0, 50, 60
1, 1293634, Control_c, 0, 64, 43
1, 1293644, Note_on_c, 0, 62, 64
1, 1293649, Control_c, 0, 64, 44
1, 1293664, Control_c, 0, 64, 44
1, 1293678, Control_c, 0, 64, 46
1, 1293693, Control_c, 0, 64, 47
1, 1293708, Control_c, 0, 64, 49
1, 1293719, Note_off_c, 0, 62, 47
1, 1293723, Control_c, 0, 64, 51
1, 1293737, Note_on_c, 0, 71, 64
1, 1293738, Control_c, 0, 64, 52
1, 1293739, Note_on_c, 0, 50, 58
1, 1293743, Note_on_c, 0, 56, 58
1, 1293767, Control_c, 0, 64, 52
1, 1293797, Control_c, 0, 64, 52
1, 1293803, Note_off_c, 0, 50, 60
1, 1293805, Note_off_c, 0, 71, 62
1, 1293805, Note_off_c, 0, 56, 59
1, 1293811, Control_c, 0, 64, 51
1, 1293814, Note_on_c, 0, 68, 72
1, 1293841, Control_c, 0, 64, 51
1, 1293856, Control_c, 0, 64, 50
1, 1293868, Note_off_c, 0, 68, 61
1, 1293871, Control_c, 0, 64, 49
1, 1293893, Control_c, 0, 64, 49
1, 1293915, Note_on_c, 0, 68, 62
1, 1293923, Control_c, 0, 64, 48
1, 1293930, Note_on_c, 0, 59, 61
1, 1293938, Note_on_c, 0, 50, 55
1, 1293974, Note_off_c, 0, 59, 58
1, 1293978, Note_off_c, 0, 68, 64
1, 1293981, Note_off_c, 0, 50, 59
1, 1293982, Control_c, 0, 67, 127
1, 1293997, Control_c, 0, 64, 47
1, 1293997, Control_c, 0, 67, 124
1, 1294000, Note_on_c, 0, 62, 76
1, 1294011, Control_c, 0, 64, 39
1, 1294011, Control_c, 0, 67, 121
1, 1294026, Control_c, 0, 64, 18
1, 1294026, Control_c, 0, 67, 116
1, 1294041, Control_c, 0, 64, 0
1, 1294041, Control_c, 0, 67, 111
1, 1294056, Control_c, 0, 67, 104
1, 1294059, Note_off_c, 0, 62, 60
1, 1294071, Control_c, 0, 67, 99
1, 1294085, Control_c, 0, 67, 95
1, 1294094, Note_on_c, 0, 72, 80
1, 1294100, Control_c, 0, 67, 91
1, 1294101, Note_on_c, 0, 50, 63
1, 1294104, Note_on_c, 0, 57, 64
1, 1294115, Control_c, 0, 64, 12
1, 1294115, Control_c, 0, 67, 88
1, 1294130, Control_c, 0, 64, 23
1, 1294130, Control_c, 0, 67, 85
1, 1294145, Control_c, 0, 64, 27
1, 1294145, Control_c, 0, 67, 83
1, 1294160, Control_c, 0, 64, 30
1, 1294160, Control_c, 0, 67, 80
1, 1294171, Note_off_c, 0, 50, 62
1, 1294175, Control_c, 0, 64, 31
1, 1294175, Control_c, 0, 67, 77
1, 1294178, Note_off_c, 0, 57, 57
1, 1294184, Note_off_c, 0, 72, 64
1, 1294188, Note_on_c, 0, 69, 79
1, 1294190, Control_c, 0, 64, 32
1, 1294190, Control_c, 0, 67, 75
1, 1294204, Control_c, 0, 64, 33
1, 1294204, Control_c, 0, 67, 71
1, 1294219, Control_c, 0, 64, 34
1, 1294219, Control_c, 0, 67, 68
1, 1294234, Control_c, 0, 64, 38
1, 1294234, Control_c, 0, 67, 64
1, 1294234, Note_off_c, 0, 69, 67
1, 1294249, Control_c, 0, 64, 43
1, 1294249, Control_c, 0, 67, 59
1, 1294264, Control_c, 0, 64, 47
1, 1294264, Control_c, 0, 67, 54
1, 1294278, Control_c, 0, 64, 50
1, 1294278, Control_c, 0, 67, 51
1, 1294281, Note_on_c, 0, 60, 71
1, 1294281, Note_on_c, 0, 69, 72
1, 1294282, Note_on_c, 0, 50, 65
1, 1294293, Control_c, 0, 64, 53
1, 1294293, Control_c, 0, 67, 48
1, 1294309, Control_c, 0, 64, 55
1, 1294309, Control_c, 0, 67, 46
1, 1294324, Control_c, 0, 64, 57
1, 1294324, Control_c, 0, 67, 45
1, 1294339, Control_c, 0, 64, 58
1, 1294339, Control_c, 0, 67, 43
1, 1294339, Note_off_c, 0, 60, 58
1, 1294341, Note_off_c, 0, 69, 66
1, 1294353, Note_off_c, 0, 50, 57
1, 1294354, Control_c, 0, 64, 59
1, 1294354, Control_c, 0, 67, 41
1, 1294369, Control_c, 0, 64, 59
1, 1294369, Control_c, 0, 67, 39
1, 1294373, Note_on_c, 0, 62, 76
1, 1294383, Control_c, 0, 64, 59
1, 1294383, Control_c, 0, 67, 39
1, 1294398, Control_c, 0, 64, 50
1, 1294413, Control_c, 0, 64, 0
1, 1294413, Control_c, 0, 67, 38
1, 1294427, Control_c, 0, 67, 38
1, 1294442, Control_c, 0, 67, 36
1, 1294457, Control_c, 0, 67, 32
1, 1294464, Note_on_c, 0, 50, 61
1, 1294467, Note_on_c, 0, 73, 85
1, 1294469, Note_on_c, 0, 58, 73
1, 1294472, Control_c, 0, 67, 26
1, 1294487, Control_c, 0, 64, 20
1, 1294487, Control_c, 0, 67, 16
1, 1294490, Note_off_c, 0, 62, 45
1, 1294501, Control_c, 0, 64, 57
1, 1294501, Control_c, 0, 67, 0
1, 1294516, Control_c, 0, 64, 65
1, 1294531, Control_c, 0, 64, 71
1, 1294546, Control_c, 0, 64, 76
1, 1294561, Control_c, 0, 64, 81
1, 1294568, Note_on_c, 0, 70, 82
1, 1294569, Note_off_c, 0, 50, 61
1, 1294576, Control_c, 0, 64, 85
1, 1294586, Note_off_c, 0, 73, 60
1, 1294590, Control_c, 0, 64, 91
1, 1294605, Control_c, 0, 64, 95
1, 1294620, Control_c, 0, 64, 97
1, 1294634, Note_off_c, 0, 58, 38
1, 1294638, Note_off_c, 0, 70, 61
1, 1294657, Control_c, 0, 64, 93
1, 1294672, Control_c, 0, 64, 72
1, 1294676, Poly_aftertouch_c, 0, 70, 0
1, 1294683, Note_on_c, 0, 70, 68
1, 1294687, Control_c, 0, 64, 39
1, 1294688, Note_on_c, 0, 61, 72
1, 1294702, Control_c, 0, 64, 0
1, 1294704, Note_on_c, 0, 50, 60
1, 1294776, Control_c, 0, 64, 53
1, 1294785, Note_on_c, 0, 62, 72
1, 1294786, Note_off_c, 0, 50, 61
1, 1294790, Control_c, 0, 64, 66
1, 1294805, Control_c, 0, 64, 75
1, 1294817, Note_off_c, 0, 70, 52
1, 1294820, Control_c, 0, 64, 88
1, 1294834, Control_c, 0, 64, 99
1, 1294840, Note_off_c, 0, 61, 63
1, 1294844, Note_off_c, 0, 62, 63
1, 1294849, Control_c, 0, 64, 118
1, 1294864, Control_c, 0, 64, 127
1, 1294938, Control_c, 0, 64, 112
1, 1294953, Control_c, 0, 64, 81
1, 1294968, Control_c, 0, 64, 63
1, 1294983, Control_c, 0, 64, 0
1, 1295435, Control_c, 0, 64, 44
1, 1295450, Control_c, 0, 64, 56
1, 1295464, Control_c, 0, 64, 61
1, 1295479, Control_c, 0, 64, 64
1, 1295494, Control_c, 0, 64, 68
1, 1295509, Control_c, 0, 64, 74
1, 1295524, Control_c, 0, 64, 86
1, 1295538, Control_c, 0, 64, 107
1, 1295553, Control_c, 0, 64, 127
1, 1295660, Note_on_c, 0, 73, 87
1, 1295779, Note_on_c, 0, 76, 90
1, 1295812, Note_off_c, 0, 73, 64
1, 1295841, Note_off_c, 0, 76, 67
1, 1295994, Note_on_c, 0, 74, 87
1, 1296016, Note_on_c, 0, 62, 70
1, 1296029, Note_on_c, 0, 50, 46
1, 1296029, Note_on_c, 0, 59, 58
1, 1296039, Note_on_c, 0, 43, 47
1, 1296117, Control_c, 0, 64, 107
1, 1296139, Control_c, 0, 64, 85
1, 1296154, Control_c, 0, 64, 71
1, 1296169, Control_c, 0, 64, 52
1, 1296184, Control_c, 0, 64, 0
1, 1296361, Control_c, 0, 64, 44
1, 1296376, Control_c, 0, 64, 58
1, 1296391, Control_c, 0, 64, 61
1, 1296405, Control_c, 0, 64, 62
1, 1296420, Control_c, 0, 64, 63
1, 1296435, Control_c, 0, 64, 64
1, 1296450, Control_c, 0, 64, 65
1, 1296465, Control_c, 0, 64, 67
1, 1296479, Control_c, 0, 64, 68
1, 1296494, Control_c, 0, 64, 69
1, 1296509, Control_c, 0, 64, 70
1, 1296524, Control_c, 0, 64, 71
1, 1296539, Control_c, 0, 64, 73
1, 1296554, Control_c, 0, 64, 74
1, 1296569, Control_c, 0, 64, 76
1, 1296583, Control_c, 0, 64, 78
1, 1296598, Control_c, 0, 64, 80
1, 1296613, Control_c, 0, 64, 82
1, 1296628, Control_c, 0, 64, 83
1, 1296643, Control_c, 0, 64, 85
1, 1296658, Control_c, 0, 64, 86
1, 1296672, Control_c, 0, 64, 87
1, 1296687, Control_c, 0, 64, 88
1, 1296703, Control_c, 0, 64, 88
1, 1296757, Note_on_c, 0, 72, 76
1, 1296778, Note_off_c, 0, 74, 59
1, 1296837, Note_off_c, 0, 59, 35
1, 1296853, Note_on_c, 0, 71, 74
1, 1296855, Note_off_c, 0, 62, 43
1, 1296905, Note_off_c, 0, 72, 58
1, 1296917, Control_c, 0, 64, 86
1, 1296932, Control_c, 0, 64, 74
1, 1296947, Control_c, 0, 64, 62
1, 1296956, Note_on_c, 0, 69, 74
1, 1296962, Control_c, 0, 64, 0
1, 1296965, Note_off_c, 0, 71, 59
1, 1296968, Note_on_c, 0, 62, 53
1, 1296969, Note_on_c, 0, 60, 65
1, 1297022, Control_c, 0, 64, 47
1, 1297036, Control_c, 0, 64, 64
1, 1297051, Control_c, 0, 64, 71
1, 1297066, Control_c, 0, 64, 77
1, 1297067, Note_on_c, 0, 71, 74
1, 1297074, Note_off_c, 0, 69, 57
1, 1297081, Control_c, 0, 64, 80
1, 1297096, Control_c, 0, 64, 81
1, 1297153, Note_on_c, 0, 72, 71
1, 1297176, Note_off_c, 0, 60, 57
1, 1297210, Note_off_c, 0, 71, 47
1, 1297240, Note_on_c, 0, 74, 68
1, 1297245, Note_off_c, 0, 72, 64
1, 1297302, Control_c, 0, 64, 79
1, 1297317, Control_c, 0, 64, 73
1, 1297332, Control_c, 0, 64, 64
1, 1297337, Note_on_c, 0, 72, 74
1, 1297338, Note_off_c, 0, 74, 62
1, 1297341, Note_on_c, 0, 57, 63
1, 1297347, Control_c, 0, 64, 33
1, 1297361, Control_c, 0, 64, 0
1, 1297414, Note_off_c, 0, 72, 63
1, 1297536, Note_on_c, 0, 69, 71
1, 1297544, Note_on_c, 0, 54, 57
1, 1297562, Note_off_c, 0, 57, 57
1, 1297583, Note_off_c, 0, 54, 63
1, 1297597, Note_off_c, 0, 69, 65
1, 1297599, Note_off_c, 0, 62, 46
1, 1297600, Note_off_c, 0, 50, 58
1, 1297612, Note_off_c, 0, 43, 55
1, 1297749, Note_on_c, 0, 71, 64
1, 1297768, Note_on_c, 0, 43, 45
1, 1297769, Note_on_c, 0, 50, 39
1, 1297770, Note_on_c, 0, 55, 49
1, 1297773, Note_on_c, 0, 62, 39
1, 1297829, Control_c, 0, 64, 43
1, 1297844, Control_c, 0, 64, 60
1, 1297858, Control_c, 0, 64, 63
1, 1297873, Control_c, 0, 64, 65
1, 1297888, Control_c, 0, 64, 67
1, 1297903, Control_c, 0, 64, 70
1, 1297918, Control_c, 0, 64, 72
1, 1297932, Control_c, 0, 64, 72
1, 1297960, Note_on_c, 0, 47, 56
1, 1297963, Note_on_c, 0, 67, 58
1, 1297964, Note_off_c, 0, 62, 60
1, 1297977, Note_off_c, 0, 43, 55
1, 1297987, Note_off_c, 0, 50, 58
1, 1297987, Note_off_c, 0, 71, 58
1, 1297990, Note_off_c, 0, 47, 65
1, 1298002, Note_off_c, 0, 55, 59
1, 1298006, Control_c, 0, 64, 69
1, 1298010, Note_off_c, 0, 67, 61
1, 1298021, Control_c, 0, 64, 63
1, 1298036, Control_c, 0, 64, 39
1, 1298050, Control_c, 0, 64, 0
1, 1298163, Note_on_c, 0, 79, 92
1, 1298169, Note_on_c, 0, 71, 79
1, 1298171, Note_on_c, 0, 62, 60
1, 1298174, Note_on_c, 0, 67, 57
1, 1298184, Control_c, 0, 64, 54
1, 1298195, Note_off_c, 0, 71, 65
1, 1298199, Control_c, 0, 64, 64
1, 1298203, Note_off_c, 0, 62, 64
1, 1298203, Note_off_c, 0, 79, 62
1, 1298207, Note_off_c, 0, 67, 61
1, 1298214, Control_c, 0, 64, 68
1, 1298229, Control_c, 0, 64, 73
1, 1298244, Control_c, 0, 64, 77
1, 1298251, Note_on_c, 0, 62, 63
1, 1298251, Note_on_c, 0, 79, 81
1, 1298253, Note_on_c, 0, 67, 59
1, 1298256, Note_on_c, 0, 71, 77
1, 1298258, Control_c, 0, 64, 82
1, 1298273, Control_c, 0, 64, 85
1, 1298280, Note_off_c, 0, 62, 64
1, 1298281, Note_off_c, 0, 71, 64
1, 1298284, Note_off_c, 0, 67, 64
1, 1298288, Control_c, 0, 64, 86
1, 1298289, Note_off_c, 0, 79, 60
1, 1298343, Note_on_c, 0, 79, 82
1, 1298352, Note_on_c, 0, 62, 60
1, 1298352, Note_on_c, 0, 71, 79
1, 1298355, Note_on_c, 0, 67, 57
1, 1298379, Note_off_c, 0, 62, 63
1, 1298379, Note_off_c, 0, 67, 67
1, 1298380, Note_off_c, 0, 71, 68
1, 1298382, Note_off_c, 0, 79, 58
1, 1298438, Note_on_c, 0, 67, 67
1, 1298438, Note_on_c, 0, 79, 85
1, 1298441, Note_on_c, 0, 62, 73
1, 1298447, Note_on_c, 0, 71, 77
1, 1298470, Note_off_c, 0, 67, 55
1, 1298473, Note_off_c, 0, 71, 64
1, 1298479, Note_off_c, 0, 62, 48
1, 1298488, Note_off_c, 0, 79, 60
1, 1298563, Control_c, 0, 64, 83
1, 1298565, Note_on_c, 0, 79, 88
1, 1298578, Control_c, 0, 64, 74
1, 1298579, Note_on_c, 0, 71, 68
1, 1298593, Note_on_c, 0, 67, 44
1, 1298593, Control_c, 0, 64, 63
1, 1298599, Note_on_c, 0, 62, 56
1, 1298607, Control_c, 0, 64, 0
1, 1298788, Note_on_c, 0, 72, 63
1, 1298789, Note_on_c, 0, 76, 67
1, 1298799, Note_off_c, 0, 71, 57
1, 1298814, Note_off_c, 0, 79, 59
1, 1298974, Note_off_c, 0, 72, 56
1, 1298989, Note_on_c, 0, 74, 59
1, 1299004, Note_on_c, 0, 71, 54
1, 1299014, Note_off_c, 0, 76, 54
1, 1299016, Note_off_c, 0, 67, 62
1, 1299030, Note_off_c, 0, 62, 63
1, 1299037, Note_off_c, 0, 74, 61
1, 1299085, Note_off_c, 0, 71, 60
1, 1299195, Note_on_c, 0, 79, 82
1, 1299223, Control_c, 0, 64, 52
1, 1299237, Control_c, 0, 64, 70
1, 1299252, Control_c, 0, 64, 96
1, 1299267, Control_c, 0, 64, 127
1, 1299281, Note_on_c, 0, 73, 87
1, 1299303, Note_off_c, 0, 79, 61
1, 1299328, Note_off_c, 0, 73, 65
1, 1299461, Note_on_c, 0, 74, 81
1, 1299486, Note_on_c, 0, 43, 50
1, 1299487, Note_on_c, 0, 50, 44
1, 1299487, Note_on_c, 0, 59, 59
1, 1299487, Note_on_c, 0, 62, 60
1, 1299534, Control_c, 0, 64, 92
1, 1299548, Control_c, 0, 64, 70
1, 1299563, Control_c, 0, 64, 50
1, 1299578, Control_c, 0, 64, 0
1, 1299913, Control_c, 0, 64, 46
1, 1299928, Control_c, 0, 64, 61
1, 1299943, Control_c, 0, 64, 64
1, 1299958, Control_c, 0, 64, 65
1, 1299972, Control_c, 0, 64, 67
1, 1299987, Control_c, 0, 64, 70
1, 1300002, Control_c, 0, 64, 74
1, 1300017, Control_c, 0, 64, 77
1, 1300032, Control_c, 0, 64, 79
1, 1300046, Control_c, 0, 64, 80
1, 1300061, Control_c, 0, 64, 82
1, 1300076, Control_c, 0, 64, 83
1, 1300091, Control_c, 0, 64, 83
1, 1300105, Note_on_c, 0, 72, 68
1, 1300106, Control_c, 0, 64, 84
1, 1300113, Note_off_c, 0, 74, 55
1, 1300166, Note_off_c, 0, 62, 36
1, 1300172, Note_off_c, 0, 59, 53
1, 1300199, Note_on_c, 0, 71, 64
1, 1300270, Note_off_c, 0, 72, 36
1, 1300283, Control_c, 0, 64, 83
1, 1300291, Note_off_c, 0, 71, 62
1, 1300294, Note_on_c, 0, 69, 66
1, 1300298, Control_c, 0, 64, 77
1, 1300307, Note_on_c, 0, 62, 52
1, 1300309, Note_on_c, 0, 60, 63
1, 1300313, Control_c, 0, 64, 64
1, 1300327, Control_c, 0, 64, 0
1, 1300396, Note_off_c, 0, 69, 59
1, 1300399, Note_on_c, 0, 71, 64
1, 1300402, Control_c, 0, 64, 59
1, 1300417, Control_c, 0, 64, 69
1, 1300432, Control_c, 0, 64, 76
1, 1300446, Control_c, 0, 64, 79
1, 1300461, Control_c, 0, 64, 79
1, 1300481, Note_on_c, 0, 72, 68
1, 1300536, Note_off_c, 0, 60, 58
1, 1300555, Note_off_c, 0, 71, 25
1, 1300572, Note_off_c, 0, 72, 64
1, 1300575, Note_on_c, 0, 74, 65
1, 1300646, Control_c, 0, 64, 79
1, 1300661, Control_c, 0, 64, 70
1, 1300669, Note_off_c, 0, 74, 62
1, 1300676, Control_c, 0, 64, 59
1, 1300677, Note_on_c, 0, 72, 70
1, 1300688, Note_on_c, 0, 57, 65
1, 1300691, Control_c, 0, 64, 0
1, 1300743, Note_off_c, 0, 72, 63
1, 1300878, Note_on_c, 0, 69, 68
1, 1300885, Note_on_c, 0, 54, 57
1, 1300903, Note_off_c, 0, 57, 53
1, 1300922, Note_off_c, 0, 69, 65
1, 1300926, Note_off_c, 0, 54, 64
1, 1300927, Note_off_c, 0, 62, 56
1, 1300950, Note_off_c, 0, 50, 58
1, 1300958, Note_off_c, 0, 43, 54
1, 1301094, Note_on_c, 0, 67, 62
1, 1301100, Note_on_c, 0, 50, 48
1, 1301107, Note_on_c, 0, 43, 44
1, 1301114, Note_on_c, 0, 59, 38
1, 1301275, Note_off_c, 0, 50, 58
1, 1301298, Note_on_c, 0, 62, 61
1, 1301299, Note_on_c, 0, 55, 53
1, 1301311, Note_off_c, 0, 67, 58
1, 1301313, Note_off_c, 0, 59, 58
1, 1301332, Note_off_c, 0, 62, 63
1, 1301335, Note_off_c, 0, 55, 65
1, 1301361, Note_off_c, 0, 43, 52
1, 1301512, Note_on_c, 0, 69, 79
1, 1301514, Note_on_c, 0, 64, 72
1, 1301514, Control_c, 0, 64, 55
1, 1301514, Note_on_c, 0, 60, 70
1, 1301522, Note_on_c, 0, 50, 59
1, 1301529, Control_c, 0, 64, 61
1, 1301539, Note_off_c, 0, 64, 69
1, 1301541, Note_off_c, 0, 60, 67
1, 1301543, Control_c, 0, 64, 61
1, 1301547, Note_off_c, 0, 69, 60
1, 1301550, Note_off_c, 0, 50, 64
1, 1301558, Control_c, 0, 64, 61
1, 1301588, Control_c, 0, 64, 60
1, 1301600, Note_on_c, 0, 69, 70
1, 1301602, Note_on_c, 0, 64, 77
1, 1301603, Control_c, 0, 64, 60
1, 1301606, Note_on_c, 0, 60, 70
1, 1301612, Note_on_c, 0, 50, 57
1, 1301627, Note_off_c, 0, 64, 66
1, 1301629, Note_off_c, 0, 69, 67
1, 1301632, Note_off_c, 0, 60, 64
1, 1301632, Control_c, 0, 64, 59
1, 1301637, Note_off_c, 0, 50, 60
1, 1301647, Control_c, 0, 64, 59
1, 1301662, Control_c, 0, 64, 58
1, 1301687, Note_on_c, 0, 64, 74
1, 1301688, Note_on_c, 0, 69, 76
1, 1301690, Note_on_c, 0, 50, 65
1, 1301701, Note_on_c, 0, 60, 63
1, 1301709, Note_off_c, 0, 69, 72
1, 1301717, Note_off_c, 0, 64, 65
1, 1301721, Control_c, 0, 64, 58
1, 1301723, Note_off_c, 0, 50, 63
1, 1301723, Note_off_c, 0, 60, 63
1, 1301736, Control_c, 0, 64, 57
1, 1301750, Control_c, 0, 64, 57
1, 1301765, Control_c, 0, 64, 56
1, 1301779, Note_on_c, 0, 64, 53
1, 1301779, Note_on_c, 0, 69, 59
1, 1301780, Control_c, 0, 64, 48
1, 1301787, Note_on_c, 0, 60, 55
1, 1301791, Note_on_c, 0, 50, 62
1, 1301795, Control_c, 0, 64, 0
1, 1301796, Note_off_c, 0, 69, 69
1, 1301802, Note_off_c, 0, 64, 60
1, 1301806, Note_off_c, 0, 60, 63
1, 1301820, Note_off_c, 0, 50, 61
1, 1301895, Note_on_c, 0, 67, 72
1, 1301898, Control_c, 0, 64, 50
1, 1301903, Note_on_c, 0, 59, 62
1, 1301913, Control_c, 0, 64, 64
1, 1301928, Note_on_c, 0, 50, 46
1, 1301928, Control_c, 0, 64, 68
1, 1301943, Control_c, 0, 64, 71
1, 1301958, Control_c, 0, 64, 73
1, 1301973, Control_c, 0, 64, 76
1, 1301988, Control_c, 0, 64, 78
1, 1302003, Control_c, 0, 64, 80
1, 1302010, Note_off_c, 0, 50, 62
1, 1302017, Control_c, 0, 64, 80
1, 1302032, Control_c, 0, 64, 81
1, 1302047, Control_c, 0, 64, 81
1, 1302062, Control_c, 0, 64, 82
1, 1302091, Control_c, 0, 64, 78
1, 1302093, Note_on_c, 0, 62, 68
1, 1302097, Note_off_c, 0, 67, 56
1, 1302100, Note_off_c, 0, 59, 38
1, 1302106, Control_c, 0, 64, 68
1, 1302128, Control_c, 0, 64, 51
1, 1302131, Note_off_c, 0, 62, 64
1, 1302143, Control_c, 0, 64, 0
1, 1302307, Note_on_c, 0, 66, 74
1, 1302309, Note_on_c, 0, 74, 75
1, 1302315, Note_on_c, 0, 57, 70
1, 1302315, Note_on_c, 0, 60, 72
1, 1302322, Control_c, 0, 64, 8
1, 1302323, Note_on_c, 0, 50, 61
1, 1302337, Note_off_c, 0, 74, 64
1, 1302340, Note_off_c, 0, 60, 68
1, 1302340, Note_off_c, 0, 57, 67
1, 1302343, Note_off_c, 0, 66, 61
1, 1302348, Note_off_c, 0, 50, 59
1, 1302366, Control_c, 0, 64, 10
1, 1302381, Control_c, 0, 64, 12
1, 1302396, Note_on_c, 0, 66, 65
1, 1302396, Note_on_c, 0, 74, 77
1, 1302396, Control_c, 0, 64, 14
1, 1302398, Note_on_c, 0, 57, 78
1, 1302406, Note_on_c, 0, 60, 70
1, 1302411, Control_c, 0, 64, 12
1, 1302414, Note_on_c, 0, 50, 55
1, 1302426, Control_c, 0, 64, 8
1, 1302429, Note_off_c, 0, 57, 61
1, 1302431, Note_off_c, 0, 60, 67
1, 1302438, Note_off_c, 0, 50, 60
1, 1302438, Note_off_c, 0, 66, 62
1, 1302440, Note_off_c, 0, 74, 64
1, 1302440, Control_c, 0, 64, 0
1, 1302489, Note_on_c, 0, 74, 72
1, 1302490, Note_on_c, 0, 66, 69
1, 1302492, Note_on_c, 0, 57, 71
1, 1302492, Note_on_c, 0, 60, 75
1, 1302510, Note_on_c, 0, 50, 46
1, 1302518, Note_off_c, 0, 60, 62
1, 1302520, Note_off_c, 0, 57, 66
1, 1302528, Note_off_c, 0, 66, 60
1, 1302532, Note_off_c, 0, 74, 63
1, 1302540, Note_off_c, 0, 50, 35
1, 1302572, Note_on_c, 0, 66, 65
1, 1302573, Note_on_c, 0, 74, 67
1, 1302577, Note_on_c, 0, 57, 66
1, 1302579, Note_on_c, 0, 50, 53
1, 1302589, Note_on_c, 0, 60, 42
1, 1302606, Note_off_c, 0, 57, 65
1, 1302614, Note_off_c, 0, 50, 55
1, 1302616, Note_off_c, 0, 66, 64
1, 1302618, Note_off_c, 0, 60, 53
1, 1302618, Note_off_c, 0, 74, 62
1, 1302691, Note_on_c, 0, 74, 73
1, 1302697, Note_on_c, 0, 59, 62
1, 1302706, Note_on_c, 0, 67, 72
1, 1302720, Note_on_c, 0, 55, 45
1, 1302766, Control_c, 0, 64, 45
1, 1302781, Control_c, 0, 64, 63
1, 1302796, Control_c, 0, 64, 68
1, 1302811, Control_c, 0, 64, 72
1, 1302825, Control_c, 0, 64, 76
1, 1302840, Control_c, 0, 64, 82
1, 1302855, Control_c, 0, 64, 88
1, 1302877, Control_c, 0, 64, 95
1, 1302881, Note_off_c, 0, 59, 61
1, 1302890, Note_off_c, 0, 55, 63
1, 1302892, Control_c, 0, 64, 101
1, 1302892, Control_c, 0, 67, 13
1, 1302901, Note_on_c, 0, 79, 69
1, 1302907, Control_c, 0, 64, 104
1, 1302907, Control_c, 0, 67, 22
1, 1302920, Note_off_c, 0, 74, 63
1, 1302921, Control_c, 0, 64, 105
1, 1302921, Control_c, 0, 67, 32
1, 1302936, Note_off_c, 0, 79, 62
1, 1302936, Control_c, 0, 64, 104
1, 1302936, Control_c, 0, 67, 43
1, 1302948, Note_off_c, 0, 67, 59
1, 1302951, Control_c, 0, 64, 89
1, 1302951, Control_c, 0, 67, 52
1, 1302966, Control_c, 0, 64, 71
1, 1302966, Control_c, 0, 67, 59
1, 1302980, Control_c, 0, 64, 56
1, 1302980, Control_c, 0, 67, 64
1, 1302995, Control_c, 0, 64, 0
1, 1302995, Control_c, 0, 67, 69
1, 1303010, Control_c, 0, 67, 74
1, 1303025, Control_c, 0, 67, 79
1, 1303040, Control_c, 0, 67, 86
1, 1303055, Control_c, 0, 67, 93
1, 1303070, Control_c, 0, 67, 100
1, 1303085, Control_c, 0, 67, 109
1, 1303100, Control_c, 0, 67, 121
1, 1303112, Note_on_c, 0, 64, 63
1, 1303115, Control_c, 0, 67, 127
1, 1303116, Note_on_c, 0, 69, 58
1, 1303121, Note_on_c, 0, 50, 60
1, 1303121, Note_on_c, 0, 60, 55
1, 1303145, Note_off_c, 0, 69, 60
1, 1303152, Note_off_c, 0, 64, 61
1, 1303153, Note_off_c, 0, 50, 63
1, 1303157, Note_off_c, 0, 60, 61
1, 1303211, Note_on_c, 0, 64, 47
1, 1303213, Note_on_c, 0, 69, 59
1, 1303213, Note_on_c, 0, 50, 53
1, 1303233, Note_on_c, 0, 60, 43
1, 1303237, Note_off_c, 0, 69, 62
1, 1303248, Note_off_c, 0, 64, 62
1, 1303249, Note_off_c, 0, 50, 59
1, 1303260, Note_off_c, 0, 60, 55
1, 1303306, Note_on_c, 0, 64, 55
1, 1303313, Note_on_c, 0, 69, 55
1, 1303315, Note_on_c, 0, 50, 42
1, 1303333, Note_on_c, 0, 60, 19
1, 1303333, Note_off_c, 0, 69, 64
1, 1303337, Note_off_c, 0, 64, 65
1, 1303345, Note_off_c, 0, 50, 57
1, 1303401, Note_on_c, 0, 50, 46
1, 1303404, Note_on_c, 0, 64, 56
1, 1303407, Note_on_c, 0, 69, 42
1, 1303426, Note_off_c, 0, 64, 61
1, 1303431, Note_off_c, 0, 50, 57
1, 1303434, Note_off_c, 0, 69, 60
1, 1303444, Note_off_c, 0, 60, 23
1, 1303538, Note_on_c, 0, 67, 51
1, 1303547, Note_on_c, 0, 59, 37
1, 1303553, Note_on_c, 0, 50, 24
1, 1303674, Note_off_c, 0, 50, 58
1, 1303747, Note_off_c, 0, 59, 52
1, 1303751, Note_off_c, 0, 67, 56
1, 1303753, Note_on_c, 0, 62, 51
1, 1303777, Note_off_c, 0, 62, 59
1, 1303959, Note_on_c, 0, 66, 55
1, 1303961, Note_on_c, 0, 74, 54
1, 1303963, Note_on_c, 0, 60, 53
1, 1303967, Note_on_c, 0, 57, 51
1, 1303973, Note_on_c, 0, 50, 42
1, 1303988, Note_off_c, 0, 74, 65
1, 1303990, Note_off_c, 0, 57, 61
1, 1303991, Note_off_c, 0, 66, 60
1, 1303993, Note_off_c, 0, 60, 61
1, 1304018, Note_off_c, 0, 50, 43
1, 1304053, Note_on_c, 0, 74, 69
1, 1304060, Note_on_c, 0, 66, 55
1, 1304068, Note_on_c, 0, 57, 55
1, 1304071, Note_on_c, 0, 60, 49
1, 1304080, Note_off_c, 0, 74, 63
1, 1304090, Note_off_c, 0, 57, 58
1, 1304093, Note_off_c, 0, 66, 60
1, 1304094, Note_off_c, 0, 60, 58
1, 1304095, Poly_aftertouch_c, 0, 50, 127
1, 1304135, Note_on_c, 0, 50, 11
1, 1304138, Note_on_c, 0, 74, 69
1, 1304147, Note_on_c, 0, 66, 55
1, 1304152, Note_on_c, 0, 60, 57
1, 1304157, Note_on_c, 0, 57, 56
1, 1304178, Note_off_c, 0, 57, 60
1, 1304181, Note_off_c, 0, 74, 58
1, 1304185, Note_off_c, 0, 66, 58
1, 1304189, Note_off_c, 0, 60, 58
1, 1304218, Note_off_c, 0, 50, 0
1, 1304218, Note_on_c, 0, 50, 22
1, 1304227, Note_on_c, 0, 74, 57
1, 1304233, Note_on_c, 0, 66, 61
1, 1304247, Note_on_c, 0, 57, 60
1, 1304248, Poly_aftertouch_c, 0, 60, 0
1, 1304268, Note_off_c, 0, 57, 59
1, 1304278, Note_off_c, 0, 66, 61
1, 1304283, Note_off_c, 0, 50, 57
1, 1304283, Note_off_c, 0, 74, 64
1, 1304392, Note_on_c, 0, 74, 50
1, 1304404, Note_on_c, 0, 55, 36
1, 1304416, Note_on_c, 0, 59, 32
1, 1304418, Note_on_c, 0, 67, 38
1, 1304836, Control_c, 0, 67, 125
1, 1304850, Control_c, 0, 67, 119
1, 1304865, Control_c, 0, 64, 29
1, 1304865, Control_c, 0, 67, 113
1, 1304880, Control_c, 0, 64, 44
1, 1304880, Control_c, 0, 67, 107
1, 1304895, Control_c, 0, 64, 52
1, 1304895, Control_c, 0, 67, 102
1, 1304909, Control_c, 0, 64, 55
1, 1304909, Control_c, 0, 67, 97
1, 1304924, Control_c, 0, 64, 58
1, 1304924, Control_c, 0, 67, 93
1, 1304939, Control_c, 0, 64, 60
1, 1304939, Control_c, 0, 67, 90
1, 1304954, Control_c, 0, 64, 61
1, 1304954, Control_c, 0, 67, 86
1, 1304969, Control_c, 0, 64, 62
1, 1304969, Control_c, 0, 67, 82
1, 1304970, Note_on_c, 0, 76, 55
1, 1304984, Control_c, 0, 64, 63
1, 1304984, Control_c, 0, 67, 79
1, 1304999, Control_c, 0, 64, 63
1, 1304999, Control_c, 0, 67, 75
1, 1305013, Control_c, 0, 64, 64
1, 1305013, Control_c, 0, 67, 73
1, 1305028, Control_c, 0, 64, 65
1, 1305028, Control_c, 0, 67, 70
1, 1305043, Control_c, 0, 64, 66
1, 1305043, Control_c, 0, 67, 68
1, 1305047, Note_off_c, 0, 74, 37
1, 1305058, Control_c, 0, 64, 67
1, 1305058, Control_c, 0, 67, 66
1, 1305073, Control_c, 0, 64, 68
1, 1305073, Control_c, 0, 67, 64
1, 1305083, Note_on_c, 0, 78, 62
1, 1305088, Note_off_c, 0, 76, 54
1, 1305088, Control_c, 0, 64, 69
1, 1305088, Control_c, 0, 67, 62
1, 1305103, Control_c, 0, 64, 70
1, 1305103, Control_c, 0, 67, 60
1, 1305124, Control_c, 0, 64, 72
1, 1305124, Control_c, 0, 67, 58
1, 1305139, Control_c, 0, 64, 72
1, 1305139, Control_c, 0, 67, 57
1, 1305154, Control_c, 0, 64, 73
1, 1305154, Control_c, 0, 67, 55
1, 1305168, Control_c, 0, 64, 74
1, 1305168, Control_c, 0, 67, 53
1, 1305183, Control_c, 0, 67, 51
1, 1305198, Control_c, 0, 67, 49
1, 1305204, Note_on_c, 0, 79, 66
1, 1305213, Control_c, 0, 67, 46
1, 1305228, Control_c, 0, 67, 44
1, 1305238, Note_off_c, 0, 78, 60
1, 1305243, Control_c, 0, 67, 41
1, 1305258, Control_c, 0, 67, 37
1, 1305273, Control_c, 0, 67, 34
1, 1305287, Control_c, 0, 67, 31
1, 1305292, Note_off_c, 0, 79, 56
1, 1305302, Control_c, 0, 67, 29
1, 1305317, Control_c, 0, 67, 26
1, 1305332, Control_c, 0, 67, 24
1, 1305347, Control_c, 0, 64, 73
1, 1305347, Control_c, 0, 67, 22
1, 1305361, Control_c, 0, 64, 71
1, 1305361, Control_c, 0, 67, 19
1, 1305374, Note_on_c, 0, 79, 61
1, 1305376, Control_c, 0, 64, 67
1, 1305376, Control_c, 0, 67, 17
1, 1305391, Control_c, 0, 64, 60
1, 1305391, Control_c, 0, 67, 15
1, 1305406, Control_c, 0, 64, 0
1, 1305406, Control_c, 0, 67, 14
1, 1305421, Control_c, 0, 67, 12
1, 1305435, Control_c, 0, 67, 10
1, 1305450, Control_c, 0, 67, 9
1, 1305465, Control_c, 0, 67, 0
1, 1305496, Control_c, 0, 64, 28
1, 1305511, Control_c, 0, 64, 60
1, 1305526, Control_c, 0, 64, 66
1, 1305540, Control_c, 0, 64, 70
1, 1305555, Control_c, 0, 64, 74
1, 1305570, Control_c, 0, 64, 78
1, 1305584, Control_c, 0, 64, 87
1, 1305599, Control_c, 0, 64, 97
1, 1305614, Control_c, 0, 64, 109
1, 1305629, Control_c, 0, 64, 127
1, 1305684, Note_off_c, 0, 59, 43
1, 1305712, Note_off_c, 0, 55, 41
1, 1305851, Note_off_c, 0, 67, 37
1, 1306106, Note_on_c, 0, 77, 70
1, 1306183, Control_c, 0, 64, 112
1, 1306198, Control_c, 0, 64, 105
1, 1306213, Control_c, 0, 64, 99
1, 1306222, Note_off_c, 0, 79, 58
1, 1306228, Control_c, 0, 64, 96
1, 1306243, Control_c, 0, 64, 94
1, 1306257, Control_c, 0, 64, 91
1, 1306272, Control_c, 0, 64, 88
1, 1306288, Control_c, 0, 64, 86
1, 1306303, Control_c, 0, 64, 83
1, 1306318, Control_c, 0, 64, 81
1, 1306332, Control_c, 0, 64, 79
1, 1306347, Note_on_c, 0, 74, 73
1, 1306347, Control_c, 0, 64, 77
1, 1306362, Control_c, 0, 64, 74
1, 1306377, Control_c, 0, 64, 71
1, 1306392, Control_c, 0, 64, 67
1, 1306406, Control_c, 0, 64, 65
1, 1306421, Control_c, 0, 64, 63
1, 1306436, Control_c, 0, 64, 62
1, 1306451, Control_c, 0, 64, 61
1, 1306466, Control_c, 0, 64, 59
1, 1306470, Note_off_c, 0, 77, 54
1, 1306480, Control_c, 0, 64, 58
1, 1306495, Control_c, 0, 64, 55
1, 1306510, Control_c, 0, 64, 52
1, 1306525, Control_c, 0, 64, 48
1, 1306540, Control_c, 0, 64, 46
1, 1306555, Control_c, 0, 64, 44
1, 1306569, Control_c, 0, 64, 42
1, 1306577, Note_on_c, 0, 71, 74
1, 1306580, Note_off_c, 0, 74, 63
1, 1306584, Control_c, 0, 64, 37
1, 1306599, Control_c, 0, 64, 31
1, 1306621, Control_c, 0, 64, 26
1, 1306636, Control_c, 0, 64, 25
1, 1306651, Control_c, 0, 64, 23
1, 1306666, Control_c, 0, 64, 22
1, 1306681, Control_c, 0, 64, 19
1, 1306695, Control_c, 0, 64, 18
1, 1306710, Control_c, 0, 64, 17
1, 1306725, Control_c, 0, 64, 15
1, 1306739, Control_c, 0, 64, 14
1, 1306754, Control_c, 0, 64, 12
1, 1306799, Control_c, 0, 64, 10
1, 1306829, Control_c, 0, 64, 8
1, 1306844, Control_c, 0, 64, 0
1, 1306868, Note_on_c, 0, 43, 65
1, 1306868, Note_on_c, 0, 67, 52
1, 1306875, Note_off_c, 0, 71, 47
1, 1306918, Control_c, 0, 67, 10
1, 1306932, Control_c, 0, 67, 13
1, 1306947, Control_c, 0, 67, 16
1, 1306962, Control_c, 0, 67, 18
1, 1306977, Control_c, 0, 67, 20
1, 1306992, Control_c, 0, 67, 21
1, 1307007, Control_c, 0, 67, 22
1, 1307021, Control_c, 0, 67, 22
1, 1307036, Control_c, 0, 67, 23
1, 1307051, Control_c, 0, 67, 24
1, 1307061, Note_off_c, 0, 67, 54
1, 1307064, Note_on_c, 0, 69, 52
1, 1307065, Control_c, 0, 67, 25
1, 1307082, Control_c, 0, 67, 25
1, 1307097, Control_c, 0, 67, 27
1, 1307111, Control_c, 0, 67, 30
1, 1307126, Control_c, 0, 67, 33
1, 1307141, Control_c, 0, 67, 36
1, 1307155, Control_c, 0, 67, 38
1, 1307170, Control_c, 0, 67, 41
1, 1307174, Note_off_c, 0, 69, 61
1, 1307185, Control_c, 0, 67, 43
1, 1307199, Note_on_c, 0, 65, 49
1, 1307200, Control_c, 0, 67, 44
1, 1307201, Note_on_c, 0, 45, 67
1, 1307210, Note_off_c, 0, 43, 59
1, 1307215, Control_c, 0, 67, 46
1, 1307229, Control_c, 0, 67, 47
1, 1307244, Control_c, 0, 67, 47
1, 1307259, Control_c, 0, 67, 48
1, 1307274, Control_c, 0, 67, 48
1, 1307289, Control_c, 0, 67, 49
1, 1307305, Note_off_c, 0, 65, 55
1, 1307313, Note_on_c, 0, 67, 50
1, 1307315, Note_off_c, 0, 45, 64
1, 1307318, Note_on_c, 0, 47, 75
1, 1307318, Control_c, 0, 67, 49
1, 1307348, Control_c, 0, 67, 50
1, 1307386, Control_c, 0, 67, 50
1, 1307401, Control_c, 0, 67, 51
1, 1307416, Control_c, 0, 67, 55
1, 1307431, Control_c, 0, 67, 60
1, 1307445, Control_c, 0, 67, 66
1, 1307448, Note_off_c, 0, 67, 60
1, 1307460, Control_c, 0, 67, 71
1, 1307461, Note_off_c, 0, 47, 65
1, 1307467, Note_on_c, 0, 48, 76
1, 1307473, Note_on_c, 0, 64, 54
1, 1307475, Control_c, 0, 67, 75
1, 1307489, Control_c, 0, 67, 79
1, 1307491, Note_off_c, 0, 48, 65
1, 1307504, Control_c, 0, 67, 82
1, 1307519, Control_c, 0, 67, 85
1, 1307534, Control_c, 0, 67, 87
1, 1307549, Control_c, 0, 67, 89
1, 1307563, Control_c, 0, 67, 90
1, 1307578, Control_c, 0, 67, 92
1, 1307593, Control_c, 0, 67, 92
1, 1307597, Note_off_c, 0, 64, 50
1, 1307603, Note_on_c, 0, 67, 53
1, 1307608, Control_c, 0, 67, 93
1, 1307623, Control_c, 0, 67, 94
1, 1307637, Control_c, 0, 67, 95
1, 1307652, Control_c, 0, 67, 98
1, 1307667, Control_c, 0, 67, 101
1, 1307682, Control_c, 0, 67, 105
1, 1307696, Control_c, 0, 67, 110
1, 1307711, Control_c, 0, 67, 116
1, 1307713, Note_on_c, 0, 60, 51
1, 1307714, Note_on_c, 0, 65, 52
1, 1307723, Note_on_c, 0, 55, 51
1, 1307726, Control_c, 0, 67, 123
1, 1307738, Note_off_c, 0, 67, 36
1, 1307741, Control_c, 0, 67, 127
1, 1307743, Note_off_c, 0, 60, 63
1, 1307750, Note_off_c, 0, 55, 60
1, 1307793, Note_off_c, 0, 65, 58
1, 1307818, Note_on_c, 0, 64, 52
1, 1307923, Note_off_c, 0, 64, 63
1, 1307941, Note_on_c, 0, 65, 58
1, 1307945, Note_on_c, 0, 60, 65
1, 1307946, Note_on_c, 0, 57, 62
1, 1307982, Note_off_c, 0, 60, 60
1, 1307993, Note_off_c, 0, 57, 60
1, 1308054, Note_off_c, 0, 65, 50
1, 1308056, Note_on_c, 0, 69, 35
1, 1308164, Note_on_c, 0, 48, 66
1, 1308168, Note_off_c, 0, 69, 47
1, 1308178, Note_on_c, 0, 67, 43
1, 1308193, Note_off_c, 0, 48, 65
1, 1308259, Note_off_c, 0, 67, 48
1, 1308265, Note_on_c, 0, 48, 69
1, 1308269, Note_on_c, 0, 65, 61
1, 1308294, Note_off_c, 0, 48, 64
1, 1308339, Note_off_c, 0, 65, 62
1, 1308371, Note_on_c, 0, 64, 63
1, 1308376, Note_on_c, 0, 48, 75
1, 1308405, Note_off_c, 0, 48, 65
1, 1308468, Note_off_c, 0, 64, 62
1, 1308479, Note_on_c, 0, 67, 55
1, 1308573, Note_off_c, 0, 67, 57
1, 1308583, Note_on_c, 0, 72, 65
1, 1308590, Note_on_c, 0, 55, 55
1, 1308596, Note_on_c, 0, 60, 53
1, 1308617, Note_off_c, 0, 60, 59
1, 1308627, Note_off_c, 0, 55, 59
1, 1308632, Note_off_c, 0, 72, 60
1, 1308693, Note_on_c, 0, 76, 72
1, 1308802, Note_on_c, 0, 79, 71
1, 1308805, Note_on_c, 0, 60, 64
1, 1308805, Note_off_c, 0, 76, 36
1, 1308806, Note_on_c, 0, 64, 60
1, 1308835, Note_off_c, 0, 64, 67
1, 1308844, Note_off_c, 0, 60, 60
1, 1308898, Note_off_c, 0, 79, 57
1, 1308915, Note_on_c, 0, 81, 70
1, 1309008, Note_on_c, 0, 48, 72
1, 1309018, Note_on_c, 0, 79, 68
1, 1309020, Note_off_c, 0, 81, 52
1, 1309038, Note_off_c, 0, 48, 64
1, 1309088, Note_off_c, 0, 79, 61
1, 1309117, Note_on_c, 0, 48, 73
1, 1309119, Note_on_c, 0, 76, 66
1, 1309146, Note_off_c, 0, 48, 64
1, 1309179, Note_off_c, 0, 76, 56
1, 1309246, Note_on_c, 0, 77, 67
1, 1309252, Note_on_c, 0, 47, 73
1, 1309294, Note_off_c, 0, 47, 62
1, 1309351, Note_off_c, 0, 77, 60
1, 1309354, Note_on_c, 0, 79, 68
1, 1309414, Note_off_c, 0, 79, 60
1, 1309464, Note_on_c, 0, 77, 66
1, 1309465, Note_on_c, 0, 65, 62
1, 1309467, Note_on_c, 0, 62, 59
1, 1309469, Note_on_c, 0, 55, 61
1, 1309491, Note_off_c, 0, 62, 60
1, 1309491, Note_off_c, 0, 65, 64
1, 1309504, Note_off_c, 0, 55, 66
1, 1309528, Note_off_c, 0, 77, 59
1, 1309562, Note_on_c, 0, 86, 67
1, 1309633, Note_off_c, 0, 86, 62
1, 1309664, Note_on_c, 0, 76, 67
1, 1309668, Note_on_c, 0, 48, 74
1, 1309700, Note_off_c, 0, 48, 63
1, 1309731, Note_off_c, 0, 76, 59
1, 1309763, Note_on_c, 0, 77, 69
1, 1309825, Note_off_c, 0, 77, 60
1, 1309854, Note_on_c, 0, 76, 67
1, 1309863, Note_on_c, 0, 64, 62
1, 1309866, Note_on_c, 0, 55, 66
1, 1309877, Note_on_c, 0, 60, 36
1, 1309887, Note_off_c, 0, 64, 67
1, 1309896, Note_off_c, 0, 55, 65
1, 1309910, Note_off_c, 0, 60, 34
1, 1309929, Note_off_c, 0, 76, 61
1, 1309952, Note_on_c, 0, 84, 67
1, 1310046, Note_off_c, 0, 84, 59
1, 1310054, Note_on_c, 0, 83, 68
1, 1310057, Note_on_c, 0, 43, 73
1, 1310087, Note_off_c, 0, 43, 61
1, 1310145, Note_on_c, 0, 79, 70
1, 1310156, Note_off_c, 0, 83, 55
1, 1310225, Note_off_c, 0, 79, 62
1, 1310257, Note_on_c, 0, 74, 60
1, 1310259, Note_on_c, 0, 62, 63
1, 1310260, Note_on_c, 0, 59, 60
1, 1310264, Note_on_c, 0, 55, 58
1, 1310286, Note_off_c, 0, 74, 67
1, 1310289, Note_off_c, 0, 62, 65
1, 1310289, Note_off_c, 0, 59, 65
1, 1310292, Note_off_c, 0, 55, 66
1, 1310358, Note_on_c, 0, 71, 63
1, 1310362, Note_on_c, 0, 59, 65
1, 1310379, Note_on_c, 0, 55, 54
1, 1310389, Note_off_c, 0, 59, 66
1, 1310396, Note_on_c, 0, 62, 22
1, 1310400, Note_off_c, 0, 62, 41
1, 1310402, Note_off_c, 0, 55, 60
1, 1310442, Note_off_c, 0, 71, 58
1, 1310462, Note_on_c, 0, 67, 75
1, 1310474, Note_on_c, 0, 55, 70
1, 1310476, Note_on_c, 0, 59, 53
1, 1310480, Note_on_c, 0, 62, 54
1, 1310500, Note_off_c, 0, 59, 58
1, 1310503, Note_off_c, 0, 62, 60
1, 1310508, Note_off_c, 0, 55, 65
1, 1310573, Note_off_c, 0, 67, 60
1, 1310577, Note_on_c, 0, 69, 67
1, 1310654, Note_off_c, 0, 69, 64
1, 1310665, Note_on_c, 0, 43, 70
1, 1310670, Note_on_c, 0, 65, 62
1, 1310746, Note_off_c, 0, 65, 58
1, 1310760, Note_on_c, 0, 47, 75
1, 1310760, Note_on_c, 0, 67, 65
1, 1310775, Note_off_c, 0, 43, 57
1, 1310847, Note_off_c, 0, 67, 61
1, 1310859, Note_off_c, 0, 47, 64
1, 1310860, Note_on_c, 0, 48, 85
1, 1310870, Note_on_c, 0, 64, 60
1, 1310892, Note_off_c, 0, 48, 64
1, 1310948, Note_off_c, 0, 64, 55
1, 1310959, Note_on_c, 0, 67, 64
1, 1311059, Note_on_c, 0, 65, 60
1, 1311062, Note_off_c, 0, 67, 52
1, 1311070, Note_on_c, 0, 60, 61
1, 1311085, Note_on_c, 0, 55, 48
1, 1311110, Note_off_c, 0, 60, 64
1, 1311130, Note_off_c, 0, 55, 63
1, 1311147, Note_off_c, 0, 65, 57
1, 1311163, Note_on_c, 0, 64, 63
1, 1311243, Note_off_c, 0, 64, 63
1, 1311262, Note_on_c, 0, 65, 65
1, 1311270, Note_on_c, 0, 57, 64
1, 1311278, Note_on_c, 0, 60, 58
1, 1311304, Note_off_c, 0, 57, 61
1, 1311307, Note_off_c, 0, 60, 65
1, 1311353, Note_off_c, 0, 65, 47
1, 1311354, Note_on_c, 0, 69, 57
1, 1311458, Note_on_c, 0, 48, 68
1, 1311460, Note_off_c, 0, 69, 55
1, 1311461, Note_on_c, 0, 67, 60
1, 1311488, Note_off_c, 0, 48, 64
1, 1311542, Note_on_c, 0, 65, 61
1, 1311546, Note_off_c, 0, 67, 50
1, 1311553, Note_on_c, 0, 48, 57
1, 1311576, Note_off_c, 0, 48, 57
1, 1311614, Note_off_c, 0, 65, 62
1, 1311643, Note_on_c, 0, 64, 58
1, 1311646, Note_on_c, 0, 48, 74
1, 1311672, Note_off_c, 0, 48, 66
1, 1311730, Note_off_c, 0, 64, 62
1, 1311739, Note_on_c, 0, 67, 59
1, 1311810, Note_off_c, 0, 67, 53
1, 1311837, Note_on_c, 0, 72, 71
1, 1311842, Note_on_c, 0, 60, 65
1, 1311843, Note_on_c, 0, 55, 55
1, 1311878, Note_off_c, 0, 60, 65
1, 1311894, Note_off_c, 0, 55, 62
1, 1311896, Note_off_c, 0, 72, 63
1, 1311947, Note_on_c, 0, 76, 77
1, 1312033, Note_off_c, 0, 76, 49
1, 1312041, Note_on_c, 0, 79, 76
1, 1312043, Note_on_c, 0, 64, 67
1, 1312047, Note_on_c, 0, 60, 68
1, 1312076, Note_off_c, 0, 64, 65
1, 1312084, Note_off_c, 0, 60, 60
1, 1312137, Note_off_c, 0, 79, 60
1, 1312138, Note_on_c, 0, 81, 76
1, 1312232, Note_on_c, 0, 48, 73
1, 1312234, Note_off_c, 0, 81, 58
1, 1312245, Note_on_c, 0, 79, 69
1, 1312260, Note_off_c, 0, 48, 65
1, 1312327, Note_off_c, 0, 79, 60
1, 1312330, Note_on_c, 0, 76, 73
1, 1312342, Note_on_c, 0, 48, 58
1, 1312364, Note_off_c, 0, 48, 58
1, 1312372, Note_off_c, 0, 76, 64
1, 1312466, Note_on_c, 0, 67, 65
1, 1312468, Note_on_c, 0, 53, 61
1, 1312505, Note_off_c, 0, 53, 67
1, 1312555, Note_off_c, 0, 67, 45
1, 1312574, Note_on_c, 0, 71, 61
1, 1312664, Note_off_c, 0, 71, 44
1, 1312685, Note_on_c, 0, 62, 60
1, 1312686, Note_on_c, 0, 74, 64
1, 1312692, Note_on_c, 0, 59, 52
1, 1312717, Note_off_c, 0, 62, 53
1, 1312719, Note_off_c, 0, 74, 62
1, 1312728, Note_off_c, 0, 59, 61
1, 1312802, Note_on_c, 0, 79, 69
1, 1312886, Note_off_c, 0, 79, 44
1, 1312895, Note_on_c, 0, 67, 64
1, 1312899, Note_on_c, 0, 62, 64
1, 1312906, Note_on_c, 0, 83, 66
1, 1312925, Note_off_c, 0, 67, 63
1, 1312936, Note_off_c, 0, 62, 61
1, 1312985, Note_off_c, 0, 83, 59
1, 1313001, Note_on_c, 0, 84, 62
1, 1313088, Note_on_c, 0, 53, 69
1, 1313091, Note_off_c, 0, 84, 63
1, 1313095, Note_on_c, 0, 83, 69
1, 1313112, Note_off_c, 0, 53, 68
1, 1313148, Note_off_c, 0, 83, 62
1, 1313169, Note_on_c, 0, 53, 76
1, 1313178, Note_on_c, 0, 79, 67
1, 1313194, Note_off_c, 0, 53, 69
1, 1313227, Note_off_c, 0, 79, 53
1, 1313263, Control_c, 0, 64, 51
1, 1313278, Control_c, 0, 64, 63
1, 1313288, Note_on_c, 0, 52, 82
1, 1313288, Note_on_c, 0, 79, 70
1, 1313293, Control_c, 0, 64, 60
1, 1313307, Control_c, 0, 64, 47
1, 1313322, Control_c, 0, 64, 0
1, 1313347, Note_off_c, 0, 52, 62
1, 1313390, Note_off_c, 0, 79, 59
1, 1313395, Note_on_c, 0, 81, 69
1, 1313446, Note_off_c, 0, 81, 61
1, 1313485, Note_on_c, 0, 64, 71
1, 1313491, Note_on_c, 0, 79, 69
1, 1313497, Note_on_c, 0, 67, 48
1, 1313508, Note_off_c, 0, 64, 70
1, 1313522, Note_off_c, 0, 67, 57
1, 1313545, Note_off_c, 0, 79, 58
1, 1313572, Note_on_c, 0, 88, 78
1, 1313578, Note_on_c, 0, 64, 70
1, 1313583, Control_c, 0, 64, 31
1, 1313587, Note_on_c, 0, 67, 66
1, 1313597, Control_c, 0, 64, 64
1, 1313601, Note_off_c, 0, 64, 70
1, 1313611, Note_off_c, 0, 67, 69
1, 1313612, Control_c, 0, 64, 69
1, 1313627, Control_c, 0, 64, 66
1, 1313642, Control_c, 0, 64, 50
1, 1313651, Note_off_c, 0, 88, 62
1, 1313656, Control_c, 0, 64, 0
1, 1313670, Note_on_c, 0, 77, 79
1, 1313685, Note_on_c, 0, 53, 76
1, 1313727, Note_off_c, 0, 53, 64
1, 1313729, Note_off_c, 0, 77, 57
1, 1313762, Note_on_c, 0, 79, 76
1, 1313824, Note_off_c, 0, 79, 61
1, 1313857, Note_on_c, 0, 77, 77
1, 1313860, Note_on_c, 0, 62, 65
1, 1313861, Note_on_c, 0, 65, 57
1, 1313883, Note_off_c, 0, 62, 65
1, 1313883, Note_off_c, 0, 65, 63
1, 1313923, Note_off_c, 0, 77, 61
1, 1313944, Note_on_c, 0, 86, 80
1, 1313947, Note_on_c, 0, 62, 73
1, 1313950, Note_on_c, 0, 65, 69
1, 1313971, Note_off_c, 0, 62, 68
1, 1313975, Note_off_c, 0, 65, 67
1, 1314015, Note_off_c, 0, 86, 62
1, 1314038, Note_on_c, 0, 76, 77
1, 1314053, Note_on_c, 0, 55, 74
1, 1314091, Note_off_c, 0, 55, 60
1, 1314106, Note_off_c, 0, 76, 59
1, 1314137, Note_on_c, 0, 77, 76
1, 1314198, Note_off_c, 0, 77, 61
1, 1314221, Note_on_c, 0, 60, 61
1, 1314223, Note_on_c, 0, 64, 58
1, 1314223, Note_on_c, 0, 76, 72
1, 1314248, Note_off_c, 0, 60, 65
1, 1314251, Note_off_c, 0, 64, 66
1, 1314306, Note_off_c, 0, 76, 59
1, 1314323, Note_on_c, 0, 84, 70
1, 1314332, Note_on_c, 0, 60, 54
1, 1314332, Note_on_c, 0, 64, 54
1, 1314363, Note_off_c, 0, 64, 63
1, 1314365, Note_off_c, 0, 60, 64
1, 1314466, Note_on_c, 0, 83, 64
1, 1314470, Note_on_c, 0, 53, 50
1, 1314495, Control_c, 0, 64, 45
1, 1314510, Control_c, 0, 64, 55
1, 1314517, Note_off_c, 0, 84, 54
1, 1314525, Control_c, 0, 64, 58
1, 1314540, Control_c, 0, 64, 60
1, 1314553, Note_off_c, 0, 53, 54
1, 1314554, Control_c, 0, 64, 61
1, 1314569, Control_c, 0, 64, 62
1, 1314577, Note_on_c, 0, 81, 62
1, 1314584, Control_c, 0, 64, 63
1, 1314599, Control_c, 0, 64, 63
1, 1314619, Note_off_c, 0, 83, 49
1, 1314669, Note_off_c, 0, 81, 56
1, 1314670, Note_on_c, 0, 62, 55
1, 1314671, Note_on_c, 0, 57, 49
1, 1314678, Note_on_c, 0, 77, 67
1, 1314678, Note_on_c, 0, 60, 47
1, 1314710, Note_off_c, 0, 62, 59
1, 1314713, Note_off_c, 0, 60, 62
1, 1314734, Note_off_c, 0, 57, 58
1, 1314740, Note_off_c, 0, 77, 62
1, 1314761, Control_c, 0, 64, 62
1, 1314771, Note_on_c, 0, 74, 62
1, 1314776, Control_c, 0, 64, 57
1, 1314791, Control_c, 0, 64, 19
1, 1314806, Control_c, 0, 64, 0
1, 1314868, Note_off_c, 0, 74, 59
1, 1314880, Note_on_c, 0, 52, 62
1, 1314883, Note_on_c, 0, 72, 62
1, 1314932, Control_c, 0, 64, 51
1, 1314947, Control_c, 0, 64, 63
1, 1314954, Note_off_c, 0, 72, 64
1, 1314961, Control_c, 0, 64, 65
1, 1314973, Note_off_c, 0, 52, 60
1, 1314976, Control_c, 0, 64, 65
1, 1314981, Note_on_c, 0, 74, 62
1, 1314991, Control_c, 0, 64, 66
1, 1315005, Control_c, 0, 64, 68
1, 1315020, Control_c, 0, 64, 70
1, 1315035, Control_c, 0, 64, 71
1, 1315065, Control_c, 0, 64, 71
1, 1315083, Note_on_c, 0, 76, 62
1, 1315085, Note_on_c, 0, 64, 53
1, 1315089, Note_off_c, 0, 74, 54
1, 1315092, Note_on_c, 0, 57, 47
1, 1315092, Note_on_c, 0, 60, 48
1, 1315110, Control_c, 0, 64, 72
1, 1315140, Control_c, 0, 64, 72
1, 1315151, Note_off_c, 0, 76, 60
1, 1315155, Control_c, 0, 64, 73
1, 1315192, Note_on_c, 0, 75, 65
1, 1315199, Control_c, 0, 64, 73
1, 1315301, Note_off_c, 0, 75, 61
1, 1315304, Note_on_c, 0, 76, 64
1, 1315327, Note_off_c, 0, 60, 62
1, 1315360, Note_off_c, 0, 64, 58
1, 1315387, Note_off_c, 0, 76, 61
1, 1315392, Note_off_c, 0, 57, 54
1, 1315396, Note_on_c, 0, 77, 61
1, 1315485, Note_on_c, 0, 56, 49
1, 1315491, Note_on_c, 0, 59, 45
1, 1315493, Note_on_c, 0, 64, 50
1, 1315502, Note_on_c, 0, 76, 58
1, 1315502, Note_off_c, 0, 77, 53
1, 1315527, Note_off_c, 0, 59, 63
1, 1315538, Note_off_c, 0, 64, 63
1, 1315547, Note_off_c, 0, 56, 61
1, 1315564, Note_off_c, 0, 76, 62
1, 1315584, Note_on_c, 0, 75, 64
1, 1315621, Control_c, 0, 64, 72
1, 1315636, Control_c, 0, 64, 63
1, 1315651, Control_c, 0, 64, 0
1, 1315664, Note_off_c, 0, 75, 64
1, 1315692, Note_on_c, 0, 76, 68
1, 1315697, Note_on_c, 0, 48, 62
1, 1315730, Note_off_c, 0, 48, 63
1, 1315760, Note_off_c, 0, 76, 55
1, 1315786, Note_on_c, 0, 77, 70
1, 1315852, Note_off_c, 0, 77, 60
1, 1315885, Note_on_c, 0, 60, 63
1, 1315885, Note_on_c, 0, 76, 72
1, 1315897, Note_on_c, 0, 55, 44
1, 1315904, Note_off_c, 0, 60, 64
1, 1315923, Note_off_c, 0, 55, 56
1, 1315967, Note_off_c, 0, 76, 57
1, 1315973, Note_on_c, 0, 64, 37
1, 1315977, Note_on_c, 0, 60, 67
1, 1315980, Note_on_c, 0, 84, 72
1, 1315993, Note_on_c, 0, 55, 59
1, 1316002, Note_off_c, 0, 60, 67
1, 1316008, Note_off_c, 0, 64, 65
1, 1316015, Note_off_c, 0, 55, 62
1, 1316078, Note_off_c, 0, 84, 61
1, 1316082, Note_on_c, 0, 83, 77
1, 1316090, Note_on_c, 0, 53, 63
1, 1316135, Note_off_c, 0, 53, 60
1, 1316180, Note_on_c, 0, 81, 73
1, 1316208, Note_off_c, 0, 83, 47
1, 1316244, Control_c, 0, 67, 125
1, 1316259, Control_c, 0, 67, 120
1, 1316268, Note_off_c, 0, 81, 59
1, 1316270, Note_on_c, 0, 62, 59
1, 1316271, Note_on_c, 0, 57, 60
1, 1316271, Note_on_c, 0, 77, 75
1, 1316274, Control_c, 0, 67, 115
1, 1316278, Note_on_c, 0, 60, 48
1, 1316289, Control_c, 0, 67, 112
1, 1316302, Note_off_c, 0, 60, 59
1, 1316304, Control_c, 0, 67, 109
1, 1316305, Note_off_c, 0, 62, 61
1, 1316315, Note_off_c, 0, 57, 59
1, 1316318, Control_c, 0, 67, 107
1, 1316326, Note_off_c, 0, 77, 62
1, 1316333, Control_c, 0, 67, 105
1, 1316355, Control_c, 0, 67, 102
1, 1316365, Note_on_c, 0, 74, 70
1, 1316370, Control_c, 0, 67, 97
1, 1316385, Control_c, 0, 67, 92
1, 1316399, Control_c, 0, 67, 87
1, 1316414, Control_c, 0, 67, 82
1, 1316429, Control_c, 0, 67, 77
1, 1316443, Note_off_c, 0, 74, 55
1, 1316443, Control_c, 0, 67, 71
1, 1316458, Control_c, 0, 67, 65
1, 1316460, Note_on_c, 0, 52, 69
1, 1316467, Note_on_c, 0, 72, 75
1, 1316473, Control_c, 0, 67, 59
1, 1316488, Control_c, 0, 67, 53
1, 1316493, Note_off_c, 0, 52, 67
1, 1316503, Control_c, 0, 67, 48
1, 1316517, Control_c, 0, 67, 45
1, 1316532, Control_c, 0, 67, 43
1, 1316547, Control_c, 0, 67, 41
1, 1316554, Note_off_c, 0, 72, 63
1, 1316556, Note_on_c, 0, 74, 68
1, 1316562, Control_c, 0, 67, 40
1, 1316577, Control_c, 0, 67, 38
1, 1316591, Control_c, 0, 67, 37
1, 1316606, Note_off_c, 0, 74, 64
1, 1316606, Control_c, 0, 67, 37
1, 1316621, Control_c, 0, 67, 36
1, 1316636, Control_c, 0, 67, 35
1, 1316645, Note_on_c, 0, 67, 64
1, 1316648, Note_on_c, 0, 64, 62
1, 1316651, Control_c, 0, 67, 34
1, 1316657, Note_on_c, 0, 60, 55
1, 1316659, Note_on_c, 0, 72, 65
1, 1316666, Control_c, 0, 67, 33
1, 1316671, Note_off_c, 0, 67, 67
1, 1316678, Note_off_c, 0, 64, 67
1, 1316681, Control_c, 0, 67, 31
1, 1316687, Note_off_c, 0, 60, 63
1, 1316690, Note_off_c, 0, 72, 63
1, 1316696, Control_c, 0, 67, 30
1, 1316711, Control_c, 0, 67, 27
1, 1316726, Control_c, 0, 67, 25
1, 1316741, Control_c, 0, 67, 22
1, 1316744, Note_on_c, 0, 88, 83
1, 1316752, Note_on_c, 0, 67, 72
1, 1316755, Control_c, 0, 67, 19
1, 1316761, Note_on_c, 0, 60, 59
1, 1316770, Control_c, 0, 67, 15
1, 1316776, Note_off_c, 0, 67, 66
1, 1316779, Note_on_c, 0, 64, 27
1, 1316780, Note_off_c, 0, 64, 127
1, 1316781, Note_off_c, 0, 60, 62
1, 1316785, Control_c, 0, 67, 11
1, 1316800, Control_c, 0, 67, 0
1, 1316827, Note_off_c, 0, 88, 58
1, 1316845, Note_on_c, 0, 86, 92
1, 1316860, Note_on_c, 0, 57, 74
1, 1316907, Note_off_c, 0, 57, 63
1, 1316941, Note_on_c, 0, 84, 86
1, 1316980, Note_off_c, 0, 86, 57
1, 1317011, Note_off_c, 0, 84, 65
1, 1317036, Note_on_c, 0, 81, 82
1, 1317037, Note_on_c, 0, 62, 69
1, 1317038, Note_on_c, 0, 66, 75
1, 1317045, Note_on_c, 0, 60, 64
1, 1317071, Note_off_c, 0, 66, 62
1, 1317074, Note_off_c, 0, 62, 60
1, 1317099, Note_off_c, 0, 60, 59
1, 1317136, Note_on_c, 0, 78, 81
1, 1317136, Note_off_c, 0, 81, 62
1, 1317202, Note_off_c, 0, 78, 64
1, 1317233, Note_on_c, 0, 79, 77
1, 1317238, Note_on_c, 0, 55, 79
1, 1317289, Note_off_c, 0, 55, 60
1, 1317313, Note_off_c, 0, 79, 55
1, 1317328, Note_on_c, 0, 81, 78
1, 1317393, Note_off_c, 0, 81, 61
1, 1317422, Note_on_c, 0, 64, 64
1, 1317422, Note_on_c, 0, 67, 62
1, 1317423, Note_on_c, 0, 79, 78
1, 1317430, Note_on_c, 0, 60, 59
1, 1317451, Note_off_c, 0, 67, 64
1, 1317455, Note_off_c, 0, 64, 65
1, 1317462, Note_off_c, 0, 60, 64
1, 1317506, Note_off_c, 0, 79, 59
1, 1317516, Note_on_c, 0, 91, 88
1, 1317529, Note_on_c, 0, 67, 70
1, 1317530, Note_on_c, 0, 60, 66
1, 1317533, Note_on_c, 0, 64, 55
1, 1317554, Note_off_c, 0, 64, 62
1, 1317563, Note_off_c, 0, 67, 58
1, 1317572, Note_off_c, 0, 60, 59
1, 1317617, Note_on_c, 0, 89, 92
1, 1317622, Note_off_c, 0, 91, 61
1, 1317632, Note_on_c, 0, 55, 71
1, 1317701, Note_off_c, 0, 55, 61
1, 1317708, Note_on_c, 0, 88, 88
1, 1317756, Note_off_c, 0, 89, 61
1, 1317797, Note_on_c, 0, 86, 91
1, 1317805, Note_off_c, 0, 88, 64
1, 1317810, Note_on_c, 0, 65, 62
1, 1317810, Note_on_c, 0, 59, 69
1, 1317810, Note_on_c, 0, 67, 60
1, 1317845, Note_off_c, 0, 67, 66
1, 1317849, Note_off_c, 0, 65, 64
1, 1317867, Note_off_c, 0, 59, 63
1, 1317896, Note_on_c, 0, 88, 87
1, 1317913, Note_off_c, 0, 86, 62
1, 1317989, Note_off_c, 0, 88, 62
1, 1317992, Note_on_c, 0, 84, 84
1, 1317996, Note_on_c, 0, 48, 84
1, 1318034, Note_off_c, 0, 84, 66
1, 1318089, Note_on_c, 0, 50, 83
1, 1318091, Note_off_c, 0, 48, 62
1, 1318189, Note_off_c, 0, 50, 60
1, 1318192, Note_on_c, 0, 79, 82
1, 1318194, Note_on_c, 0, 48, 84
1, 1318198, Note_on_c, 0, 72, 76
1, 1318204, Note_on_c, 0, 76, 67
1, 1318236, Note_off_c, 0, 76, 65
1, 1318247, Note_off_c, 0, 72, 63
1, 1318254, Note_off_c, 0, 79, 57
1, 1318272, Note_off_c, 0, 48, 61
1, 1318298, Note_on_c, 0, 60, 79
1, 1318343, Control_c, 0, 64, 51
1, 1318358, Control_c, 0, 64, 67
1, 1318373, Control_c, 0, 64, 65
1, 1318387, Control_c, 0, 64, 47
1, 1318389, Note_off_c, 0, 60, 41
1, 1318394, Note_on_c, 0, 77, 82
1, 1318396, Note_on_c, 0, 62, 79
1, 1318398, Note_on_c, 0, 69, 78
1, 1318399, Note_on_c, 0, 72, 69
1, 1318402, Control_c, 0, 64, 0
1, 1318423, Note_off_c, 0, 72, 70
1, 1318451, Note_off_c, 0, 69, 64
1, 1318456, Note_off_c, 0, 62, 63
1, 1318462, Note_off_c, 0, 77, 61
1, 1318491, Control_c, 0, 64, 23
1, 1318494, Note_on_c, 0, 60, 75
1, 1318506, Control_c, 0, 64, 0
1, 1318575, Note_off_c, 0, 60, 53
1, 1318600, Note_on_c, 0, 81, 83
1, 1318601, Note_on_c, 0, 72, 79
1, 1318607, Note_on_c, 0, 57, 78
1, 1318608, Note_on_c, 0, 77, 72
1, 1318628, Note_off_c, 0, 72, 63
1, 1318631, Note_off_c, 0, 77, 67
1, 1318634, Note_off_c, 0, 81, 57
1, 1318663, Note_off_c, 0, 57, 58
1, 1318687, Note_on_c, 0, 81, 77
1, 1318695, Note_on_c, 0, 72, 77
1, 1318695, Note_on_c, 0, 77, 79
1, 1318707, Note_on_c, 0, 53, 74
1, 1318718, Note_off_c, 0, 72, 66
1, 1318725, Note_off_c, 0, 77, 61
1, 1318728, Note_off_c, 0, 81, 60
1, 1318775, Note_off_c, 0, 53, 65
1, 1318796, Note_on_c, 0, 79, 83
1, 1318798, Note_on_c, 0, 48, 73
1, 1318801, Note_on_c, 0, 72, 83
1, 1318803, Note_on_c, 0, 76, 77
1, 1318830, Note_off_c, 0, 72, 62
1, 1318830, Note_off_c, 0, 76, 63
1, 1318862, Note_off_c, 0, 79, 61
1, 1318884, Note_off_c, 0, 48, 62
1, 1318887, Note_on_c, 0, 50, 80
1, 1318992, Note_off_c, 0, 50, 60
1, 1318995, Note_on_c, 0, 48, 77
1, 1318996, Note_on_c, 0, 84, 86
1, 1318999, Note_on_c, 0, 76, 78
1, 1319009, Note_on_c, 0, 79, 62
1, 1319039, Note_off_c, 0, 79, 56
1, 1319048, Note_off_c, 0, 76, 63
1, 1319054, Note_off_c, 0, 84, 61
1, 1319065, Note_off_c, 0, 48, 61
1, 1319082, Note_on_c, 0, 55, 72
1, 1319136, Control_c, 0, 64, 43
1, 1319151, Control_c, 0, 64, 72
1, 1319166, Control_c, 0, 64, 127
1, 1319186, Note_on_c, 0, 57, 79
1, 1319186, Note_on_c, 0, 79, 86
1, 1319186, Note_on_c, 0, 83, 84
1, 1319188, Note_off_c, 0, 55, 56
1, 1319189, Note_on_c, 0, 74, 81
1, 1319196, Control_c, 0, 64, 96
1, 1319210, Control_c, 0, 64, 70
1, 1319225, Control_c, 0, 64, 47
1, 1319240, Control_c, 0, 64, 0
1, 1319244, Note_off_c, 0, 57, 64
1, 1319247, Note_off_c, 0, 74, 64
1, 1319256, Note_off_c, 0, 79, 58
1, 1319268, Note_off_c, 0, 83, 60
1, 1319290, Note_on_c, 0, 55, 73
1, 1319299, Control_c, 0, 64, 29
1, 1319314, Control_c, 0, 64, 21
1, 1319329, Control_c, 0, 64, 10
1, 1319351, Control_c, 0, 64, 0
1, 1319358, Note_off_c, 0, 55, 62
1, 1319390, Note_on_c, 0, 43, 76
1, 1319392, Note_on_c, 0, 86, 85
1, 1319393, Note_on_c, 0, 77, 80
1, 1319397, Note_on_c, 0, 79, 74
1, 1319418, Note_off_c, 0, 79, 68
1, 1319424, Note_off_c, 0, 77, 61
1, 1319432, Note_off_c, 0, 86, 62
1, 1319477, Note_on_c, 0, 86, 69
1, 1319480, Note_on_c, 0, 79, 76
1, 1319486, Note_on_c, 0, 47, 77
1, 1319486, Note_on_c, 0, 77, 63
1, 1319492, Note_off_c, 0, 43, 63
1, 1319506, Note_off_c, 0, 79, 62
1, 1319507, Note_off_c, 0, 77, 63
1, 1319537, Note_off_c, 0, 86, 58
1, 1319570, Note_off_c, 0, 47, 63
1, 1319579, Note_on_c, 0, 84, 79
1, 1319580, Note_on_c, 0, 48, 70
1, 1319596, Note_on_c, 0, 76, 65
1, 1319599, Note_on_c, 0, 79, 51
1, 1319623, Note_off_c, 0, 79, 57
1, 1319623, Note_off_c, 0, 84, 63
1, 1319641, Note_off_c, 0, 48, 62
1, 1319659, Note_off_c, 0, 76, 65
1, 1319671, Note_on_c, 0, 50, 63
1, 1319706, Note_off_c, 0, 50, 63
1, 1319778, Note_on_c, 0, 48, 62
1, 1319781, Note_on_c, 0, 79, 62
1, 1319785, Note_on_c, 0, 76, 59
1, 1319793, Note_on_c, 0, 72, 55
1, 1319816, Note_off_c, 0, 76, 67
1, 1319842, Note_off_c, 0, 72, 60
1, 1319847, Note_off_c, 0, 48, 61
1, 1319849, Note_off_c, 0, 79, 59
1, 1319894, Note_on_c, 0, 60, 59
1, 1319994, Note_off_c, 0, 60, 61
1, 1320012, Note_on_c, 0, 62, 55
1, 1320027, Note_on_c, 0, 77, 57
1, 1320031, Note_on_c, 0, 68, 47
1, 1320042, Note_on_c, 0, 72, 40
1, 1320060, Note_off_c, 0, 68, 63
1, 1320064, Note_off_c, 0, 62, 60
1, 1320072, Note_off_c, 0, 72, 58
1, 1320106, Note_off_c, 0, 77, 62
1, 1320127, Note_on_c, 0, 60, 57
1, 1320176, Note_off_c, 0, 60, 48
1, 1320222, Note_on_c, 0, 80, 65
1, 1320227, Note_on_c, 0, 72, 60
1, 1320236, Note_on_c, 0, 56, 58
1, 1320245, Note_off_c, 0, 80, 63
1, 1320258, Note_off_c, 0, 72, 64
1, 1320308, Note_off_c, 0, 56, 51
1, 1320311, Note_on_c, 0, 80, 72
1, 1320338, Note_on_c, 0, 72, 49
1, 1320339, Note_on_c, 0, 53, 56
1, 1320350, Poly_aftertouch_c, 0, 77, 0
1, 1320354, Note_off_c, 0, 80, 54
1, 1320359, Note_off_c, 0, 72, 59
1, 1320375, Note_off_c, 0, 53, 66
1, 1320431, Note_on_c, 0, 48, 53
1, 1320432, Note_on_c, 0, 79, 56
1, 1320437, Note_on_c, 0, 72, 51
1, 1320461, Note_off_c, 0, 72, 59
1, 1320484, Note_off_c, 0, 79, 61
1, 1320491, Note_off_c, 0, 48, 59
1, 1320511, Note_on_c, 0, 50, 64
1, 1320616, Note_off_c, 0, 50, 53
1, 1320625, Note_on_c, 0, 84, 64
1, 1320626, Note_on_c, 0, 48, 57
1, 1320629, Note_on_c, 0, 76, 45
1, 1320645, Note_on_c, 0, 79, 32
1, 1320666, Note_off_c, 0, 76, 59
1, 1320677, Note_off_c, 0, 48, 61
1, 1320677, Note_off_c, 0, 84, 58
1, 1320679, Note_off_c, 0, 79, 52
1, 1320720, Note_on_c, 0, 55, 49
1, 1320812, Note_off_c, 0, 55, 40
1, 1320825, Note_on_c, 0, 83, 60
1, 1320839, Note_on_c, 0, 57, 55
1, 1320846, Note_on_c, 0, 79, 50
1, 1320848, Note_on_c, 0, 74, 43
1, 1320881, Note_off_c, 0, 74, 58
1, 1320885, Note_off_c, 0, 57, 62
1, 1320895, Note_off_c, 0, 79, 56
1, 1320896, Note_off_c, 0, 83, 60
1, 1320939, Note_on_c, 0, 55, 53
1, 1320979, Note_off_c, 0, 55, 63
1, 1321036, Note_on_c, 0, 43, 59
1, 1321036, Note_on_c, 0, 86, 63
1, 1321040, Note_on_c, 0, 77, 56
1, 1321042, Note_on_c, 0, 79, 50
1, 1321063, Note_off_c, 0, 77, 61
1, 1321063, Note_off_c, 0, 86, 64
1, 1321066, Note_off_c, 0, 79, 56
1, 1321117, Note_off_c, 0, 43, 57
1, 1321125, Note_on_c, 0, 86, 65
1, 1321127, Note_on_c, 0, 47, 63
1, 1321142, Note_on_c, 0, 79, 39
1, 1321158, Note_off_c, 0, 86, 61
1, 1321174, Note_off_c, 0, 79, 35
1, 1321215, Note_off_c, 0, 47, 61
1, 1321216, Note_on_c, 0, 84, 73
1, 1321229, Note_on_c, 0, 48, 64
1, 1321233, Note_on_c, 0, 79, 52
1, 1321237, Note_on_c, 0, 76, 55
1, 1321247, Note_off_c, 0, 84, 64
1, 1321256, Note_off_c, 0, 79, 58
1, 1321280, Note_off_c, 0, 76, 65
1, 1321288, Note_off_c, 0, 48, 62
1, 1321313, Note_on_c, 0, 50, 63
1, 1321350, Note_off_c, 0, 50, 62
1, 1321411, Note_on_c, 0, 72, 77
1, 1321417, Note_on_c, 0, 64, 67
1, 1321421, Note_on_c, 0, 48, 72
1, 1321426, Note_on_c, 0, 67, 57
1, 1321465, Note_off_c, 0, 67, 60
1, 1321470, Note_off_c, 0, 64, 58
1, 1321480, Note_off_c, 0, 48, 61
1, 1321481, Note_off_c, 0, 72, 59
1, 1321511, Note_on_c, 0, 60, 71
1, 1321606, Note_on_c, 0, 58, 82
1, 1321608, Note_on_c, 0, 68, 71
1, 1321610, Note_on_c, 0, 72, 70
1, 1321618, Note_off_c, 0, 60, 60
1, 1321620, Note_on_c, 0, 63, 50
1, 1321645, Note_off_c, 0, 63, 58
1, 1321658, Note_off_c, 0, 68, 63
1, 1321660, Note_off_c, 0, 72, 63
1, 1321701, Note_on_c, 0, 56, 81
1, 1321715, Note_off_c, 0, 58, 63
1, 1321789, Note_off_c, 0, 56, 63
1, 1321809, Note_on_c, 0, 74, 81
1, 1321809, Note_on_c, 0, 80, 81
1, 1321810, Note_on_c, 0, 55, 82
1, 1321811, Note_on_c, 0, 82, 79
1, 1321837, Note_off_c, 0, 82, 66
1, 1321845, Note_off_c, 0, 74, 62
1, 1321855, Note_off_c, 0, 80, 61
1, 1321897, Note_on_c, 0, 80, 74
1, 1321904, Note_on_c, 0, 74, 75
1, 1321905, Note_on_c, 0, 53, 78
1, 1321906, Note_on_c, 0, 82, 89
1, 1321914, Note_off_c, 0, 55, 62
1, 1321932, Note_off_c, 0, 74, 67
1, 1321940, Note_off_c, 0, 80, 64
1, 1321952, Note_off_c, 0, 82, 61
1, 1321997, Control_c, 0, 64, 8
1, 1322002, Note_on_c, 0, 51, 81
1, 1322004, Note_off_c, 0, 53, 66
1, 1322005, Note_on_c, 0, 79, 84
1, 1322012, Control_c, 0, 64, 51
1, 1322014, Note_on_c, 0, 75, 85
1, 1322022, Note_on_c, 0, 82, 56
1, 1322027, Control_c, 0, 64, 55
1, 1322042, Control_c, 0, 64, 53
1, 1322044, Note_off_c, 0, 82, 60
1, 1322047, Note_off_c, 0, 79, 61
1, 1322056, Control_c, 0, 64, 53
1, 1322071, Control_c, 0, 64, 51
1, 1322075, Note_off_c, 0, 75, 67
1, 1322086, Control_c, 0, 64, 49
1, 1322104, Note_off_c, 0, 51, 63
1, 1322115, Note_on_c, 0, 53, 80
1, 1322213, Note_on_c, 0, 63, 71
1, 1322219, Note_on_c, 0, 67, 68
1, 1322220, Note_on_c, 0, 51, 82
1, 1322272, Note_off_c, 0, 53, 61
1, 1322279, Control_c, 0, 64, 49
1, 1322288, Note_off_c, 0, 63, 62
1, 1322294, Note_off_c, 0, 67, 61
1, 1322309, Control_c, 0, 64, 49
1, 1322313, Note_on_c, 0, 75, 73
1, 1322386, Note_off_c, 0, 75, 62
1, 1322415, Note_on_c, 0, 68, 80
1, 1322418, Note_off_c, 0, 51, 61
1, 1322421, Note_on_c, 0, 50, 81
1, 1322422, Note_on_c, 0, 65, 73
1, 1322465, Control_c, 0, 64, 50
1, 1322490, Note_off_c, 0, 65, 55
1, 1322504, Note_on_c, 0, 75, 79
1, 1322509, Note_off_c, 0, 68, 63
1, 1322509, Control_c, 0, 64, 50
1, 1322571, Note_off_c, 0, 75, 62
1, 1322597, Note_off_c, 0, 50, 63
1, 1322598, Note_on_c, 0, 49, 79
1, 1322598, Control_c, 0, 64, 51
1, 1322600, Note_on_c, 0, 70, 77
1, 1322604, Note_on_c, 0, 67, 66
1, 1322628, Control_c, 0, 64, 50
1, 1322643, Control_c, 0, 64, 50
1, 1322657, Control_c, 0, 64, 47
1, 1322670, Note_off_c, 0, 67, 61
1, 1322672, Control_c, 0, 64, 38
1, 1322684, Note_on_c, 0, 75, 73
1, 1322687, Control_c, 0, 64, 0
1, 1322702, Note_off_c, 0, 70, 61
1, 1322738, Note_off_c, 0, 75, 65
1, 1322761, Control_c, 0, 64, 53
1, 1322773, Note_off_c, 0, 49, 62
1, 1322776, Control_c, 0, 64, 75
1, 1322783, Note_on_c, 0, 75, 73
1, 1322783, Note_on_c, 0, 48, 71
1, 1322786, Note_on_c, 0, 68, 89
1, 1322791, Note_on_c, 0, 72, 85
1, 1322791, Control_c, 0, 64, 127
1, 1322847, Note_off_c, 0, 72, 61
1, 1322850, Control_c, 0, 64, 75
1, 1322860, Note_off_c, 0, 75, 63
1, 1322865, Control_c, 0, 64, 58
1, 1322869, Note_off_c, 0, 68, 63
1, 1322879, Control_c, 0, 64, 0
1, 1322884, Note_off_c, 0, 48, 63
1, 1322892, Note_on_c, 0, 49, 68
1, 1322939, Control_c, 0, 64, 33
1, 1322953, Control_c, 0, 64, 28
1, 1322968, Control_c, 0, 64, 24
1, 1322982, Note_off_c, 0, 49, 61
1, 1322983, Control_c, 0, 64, 22
1, 1322993, Note_on_c, 0, 72, 69
1, 1322996, Note_on_c, 0, 48, 70
1, 1322997, Note_on_c, 0, 64, 65
1, 1322998, Control_c, 0, 64, 20
1, 1323003, Note_on_c, 0, 67, 61
1, 1323012, Control_c, 0, 64, 19
1, 1323048, Note_off_c, 0, 64, 61
1, 1323052, Note_off_c, 0, 72, 60
1, 1323058, Control_c, 0, 64, 20
1, 1323063, Note_off_c, 0, 48, 61
1, 1323071, Note_off_c, 0, 67, 59
1, 1323073, Control_c, 0, 64, 21
1, 1323090, Note_on_c, 0, 60, 66
1, 1323094, Control_c, 0, 64, 23
1, 1323138, Control_c, 0, 64, 23
1, 1323153, Control_c, 0, 64, 23
1, 1323168, Control_c, 0, 64, 21
1, 1323183, Control_c, 0, 64, 20
1, 1323183, Note_on_c, 0, 58, 73
1, 1323188, Note_on_c, 0, 68, 71
1, 1323190, Note_on_c, 0, 72, 67
1, 1323194, Note_off_c, 0, 60, 60
1, 1323194, Note_on_c, 0, 63, 56
1, 1323217, Note_off_c, 0, 63, 62
1, 1323231, Note_off_c, 0, 68, 62
1, 1323239, Note_off_c, 0, 72, 63
1, 1323271, Control_c, 0, 64, 19
1, 1323278, Note_on_c, 0, 56, 73
1, 1323281, Note_off_c, 0, 58, 64
1, 1323286, Control_c, 0, 64, 17
1, 1323301, Control_c, 0, 64, 14
1, 1323316, Control_c, 0, 64, 8
1, 1323331, Control_c, 0, 64, 0
1, 1323351, Note_off_c, 0, 56, 62
1, 1323376, Control_c, 0, 64, 8
1, 1323383, Note_on_c, 0, 55, 76
1, 1323388, Note_on_c, 0, 74, 75
1, 1323388, Note_on_c, 0, 80, 79
1, 1323388, Note_on_c, 0, 82, 76
1, 1323390, Control_c, 0, 64, 12
1, 1323405, Control_c, 0, 64, 14
1, 1323415, Note_off_c, 0, 82, 65
1, 1323427, Note_off_c, 0, 74, 58
1, 1323433, Note_off_c, 0, 80, 62
1, 1323434, Control_c, 0, 64, 0
1, 1323475, Note_on_c, 0, 80, 71
1, 1323478, Note_on_c, 0, 53, 77
1, 1323480, Note_on_c, 0, 74, 71
1, 1323489, Note_on_c, 0, 82, 81
1, 1323495, Note_off_c, 0, 55, 61
1, 1323517, Note_off_c, 0, 74, 64
1, 1323525, Note_off_c, 0, 82, 60
1, 1323525, Note_off_c, 0, 80, 64
1, 1323553, Control_c, 0, 64, 60
1, 1323567, Control_c, 0, 64, 80
1, 1323576, Note_on_c, 0, 51, 84
1, 1323579, Note_off_c, 0, 53, 66
1, 1323581, Note_on_c, 0, 79, 86
1, 1323582, Control_c, 0, 64, 127
1, 1323583, Note_on_c, 0, 75, 89
1, 1323586, Note_on_c, 0, 82, 78
1, 1323622, Note_off_c, 0, 82, 62
1, 1323624, Note_off_c, 0, 79, 60
1, 1323641, Control_c, 0, 64, 99
1, 1323650, Note_off_c, 0, 75, 66
1, 1323656, Control_c, 0, 64, 81
1, 1323665, Note_off_c, 0, 51, 62
1, 1323671, Control_c, 0, 64, 72
1, 1323682, Note_on_c, 0, 53, 82
1, 1323686, Control_c, 0, 64, 68
1, 1323701, Control_c, 0, 64, 66
1, 1323716, Control_c, 0, 64, 65
1, 1323731, Control_c, 0, 64, 64
1, 1323745, Control_c, 0, 64, 63
1, 1323760, Control_c, 0, 64, 62
1, 1323775, Control_c, 0, 64, 61
1, 1323781, Note_on_c, 0, 63, 74
1, 1323784, Note_on_c, 0, 67, 72
1, 1323786, Note_on_c, 0, 51, 78
1, 1323790, Control_c, 0, 64, 59
1, 1323805, Control_c, 0, 64, 57
1, 1323818, Note_off_c, 0, 53, 61
1, 1323820, Control_c, 0, 64, 54
1, 1323842, Control_c, 0, 64, 51
1, 1323854, Note_off_c, 0, 63, 62
1, 1323858, Control_c, 0, 64, 48
1, 1323862, Note_off_c, 0, 67, 60
1, 1323873, Control_c, 0, 64, 44
1, 1323883, Note_on_c, 0, 75, 74
1, 1323888, Control_c, 0, 64, 40
1, 1323903, Control_c, 0, 64, 36
1, 1323918, Control_c, 0, 64, 33
1, 1323932, Control_c, 0, 64, 29
1, 1323947, Control_c, 0, 64, 28
1, 1323948, Note_off_c, 0, 75, 63
1, 1323962, Control_c, 0, 64, 27
1, 1323972, Note_off_c, 0, 51, 59
1, 1323977, Control_c, 0, 64, 26
1, 1323978, Note_on_c, 0, 50, 80
1, 1323978, Note_on_c, 0, 68, 79
1, 1323985, Note_on_c, 0, 65, 67
1, 1324006, Control_c, 0, 64, 26
1, 1324045, Note_off_c, 0, 65, 60
1, 1324065, Note_off_c, 0, 68, 63
1, 1324065, Control_c, 0, 64, 25
1, 1324069, Note_on_c, 0, 75, 74
1, 1324080, Control_c, 0, 64, 23
1, 1324110, Control_c, 0, 64, 23
1, 1324127, Note_off_c, 0, 75, 63
1, 1324154, Note_off_c, 0, 50, 62
1, 1324159, Note_on_c, 0, 49, 76
1, 1324160, Note_on_c, 0, 70, 71
1, 1324160, Note_on_c, 0, 67, 62
1, 1324184, Control_c, 0, 64, 24
1, 1324199, Control_c, 0, 64, 25
1, 1324224, Note_off_c, 0, 67, 61
1, 1324228, Control_c, 0, 64, 0
1, 1324240, Note_on_c, 0, 75, 69
1, 1324247, Note_off_c, 0, 70, 63
1, 1324291, Note_off_c, 0, 75, 65
1, 1324328, Note_off_c, 0, 49, 62
1, 1324338, Note_on_c, 0, 48, 67
1, 1324347, Note_on_c, 0, 75, 65
1, 1324347, Control_c, 0, 64, 55
1, 1324350, Note_on_c, 0, 68, 72
1, 1324360, Note_on_c, 0, 72, 65
1, 1324362, Control_c, 0, 64, 65
1, 1324377, Control_c, 0, 64, 68
1, 1324389, Note_off_c, 0, 72, 66
1, 1324391, Control_c, 0, 64, 69
1, 1324401, Note_off_c, 0, 68, 64
1, 1324406, Control_c, 0, 64, 71
1, 1324416, Note_off_c, 0, 75, 66
1, 1324421, Control_c, 0, 64, 72
1, 1324436, Control_c, 0, 64, 72
1, 1324445, Note_off_c, 0, 48, 60
1, 1324453, Note_on_c, 0, 49, 73
1, 1324465, Control_c, 0, 64, 71
1, 1324480, Control_c, 0, 64, 66
1, 1324495, Control_c, 0, 64, 58
1, 1324510, Control_c, 0, 64, 38
1, 1324525, Control_c, 0, 64, 36
1, 1324539, Control_c, 0, 64, 47
1, 1324554, Control_c, 0, 64, 55
1, 1324569, Control_c, 0, 64, 61
1, 1324572, Note_on_c, 0, 84, 79
1, 1324580, Note_off_c, 0, 49, 54
1, 1324582, Note_on_c, 0, 48, 64
1, 1324589, Note_on_c, 0, 72, 68
1, 1324591, Control_c, 0, 64, 64
1, 1324594, Note_on_c, 0, 76, 64
1, 1324606, Control_c, 0, 64, 68
1, 1324621, Control_c, 0, 64, 71
1, 1324636, Control_c, 0, 64, 74
1, 1324651, Control_c, 0, 64, 75
1, 1324672, Note_off_c, 0, 48, 61
1, 1324681, Control_c, 0, 64, 73
1, 1324691, Note_on_c, 0, 60, 67
1, 1324696, Control_c, 0, 64, 68
1, 1324702, Note_off_c, 0, 72, 62
1, 1324705, Note_off_c, 0, 84, 62
1, 1324706, Note_off_c, 0, 76, 64
1, 1324711, Control_c, 0, 64, 63
1, 1324726, Control_c, 0, 64, 63
1, 1324741, Control_c, 0, 64, 64
1, 1324755, Control_c, 0, 64, 65
1, 1324766, Note_off_c, 0, 60, 60
1, 1324770, Control_c, 0, 64, 67
1, 1324785, Control_c, 0, 64, 69
1, 1324792, Note_on_c, 0, 84, 90
1, 1324793, Note_on_c, 0, 47, 75
1, 1324793, Note_on_c, 0, 77, 84
1, 1324794, Note_on_c, 0, 74, 85
1, 1324800, Control_c, 0, 64, 71
1, 1324814, Control_c, 0, 64, 72
1, 1324829, Control_c, 0, 64, 72
1, 1324844, Control_c, 0, 64, 73
1, 1324859, Control_c, 0, 64, 74
1, 1324880, Note_on_c, 0, 59, 76
1, 1324888, Control_c, 0, 64, 75
1, 1324890, Note_off_c, 0, 74, 63
1, 1324892, Note_off_c, 0, 77, 62
1, 1324896, Note_off_c, 0, 47, 63
1, 1324903, Control_c, 0, 64, 75
1, 1324904, Note_off_c, 0, 84, 61
1, 1324918, Control_c, 0, 64, 76
1, 1324933, Control_c, 0, 64, 77
1, 1324948, Control_c, 0, 64, 77
1, 1324962, Control_c, 0, 64, 78
1, 1324963, Note_off_c, 0, 59, 63
1, 1324977, Control_c, 0, 64, 78
1, 1324978, Note_on_c, 0, 76, 95
1, 1324978, Note_on_c, 0, 79, 91
1, 1324980, Note_on_c, 0, 84, 94
1, 1324992, Control_c, 0, 64, 80
1, 1324995, Note_on_c, 0, 46, 82
1, 1325006, Control_c, 0, 64, 81
1, 1325021, Control_c, 0, 64, 83
1, 1325036, Control_c, 0, 64, 85
1, 1325051, Control_c, 0, 64, 88
1, 1325066, Control_c, 0, 64, 92
1, 1325081, Control_c, 0, 64, 95
1, 1325085, Note_on_c, 0, 58, 78
1, 1325096, Control_c, 0, 64, 97
1, 1325096, Note_off_c, 0, 46, 60
1, 1325105, Note_off_c, 0, 76, 60
1, 1325111, Control_c, 0, 64, 99
1, 1325126, Control_c, 0, 64, 100
1, 1325129, Note_off_c, 0, 84, 60
1, 1325134, Note_off_c, 0, 79, 58
1, 1325170, Control_c, 0, 64, 99
1, 1325185, Control_c, 0, 64, 80
1, 1325185, Note_off_c, 0, 58, 58
1, 1325199, Control_c, 0, 64, 58
1, 1325211, Note_on_c, 0, 84, 91
1, 1325212, Note_on_c, 0, 77, 94
1, 1325214, Control_c, 0, 64, 0
1, 1325216, Note_on_c, 0, 80, 88
1, 1325224, Note_on_c, 0, 44, 73
1, 1325288, Control_c, 0, 64, 61
1, 1325289, Note_off_c, 0, 84, 63
1, 1325303, Control_c, 0, 64, 72
1, 1325309, Note_off_c, 0, 77, 61
1, 1325318, Control_c, 0, 64, 85
1, 1325325, Note_off_c, 0, 80, 64
1, 1325340, Control_c, 0, 64, 100
1, 1325349, Note_on_c, 0, 46, 76
1, 1325355, Control_c, 0, 64, 107
1, 1325356, Note_off_c, 0, 44, 64
1, 1325370, Control_c, 0, 64, 125
1, 1325385, Control_c, 0, 64, 127
1, 1325453, Note_on_c, 0, 68, 86
1, 1325456, Note_on_c, 0, 80, 83
1, 1325457, Note_on_c, 0, 72, 79
1, 1325459, Control_c, 0, 64, 106
1, 1325465, Note_off_c, 0, 46, 61
1, 1325466, Note_on_c, 0, 44, 78
1, 1325474, Control_c, 0, 64, 97
1, 1325519, Control_c, 0, 64, 100
1, 1325534, Control_c, 0, 64, 127
1, 1325564, Note_off_c, 0, 68, 59
1, 1325564, Note_off_c, 0, 72, 62
1, 1325565, Note_on_c, 0, 56, 76
1, 1325575, Note_off_c, 0, 44, 62
1, 1325585, Note_off_c, 0, 80, 61
1, 1325637, Control_c, 0, 64, 76
1, 1325651, Note_off_c, 0, 56, 60
1, 1325652, Control_c, 0, 64, 61
1, 1325659, Note_on_c, 0, 70, 94
1, 1325661, Note_on_c, 0, 73, 89
1, 1325665, Note_on_c, 0, 43, 83
1, 1325665, Note_on_c, 0, 80, 89
1, 1325667, Control_c, 0, 64, 56
1, 1325682, Control_c, 0, 64, 64
1, 1325697, Control_c, 0, 64, 74
1, 1325711, Control_c, 0, 64, 127
1, 1325758, Note_on_c, 0, 55, 79
1, 1325771, Note_off_c, 0, 70, 63
1, 1325796, Note_off_c, 0, 43, 61
1, 1325797, Note_off_c, 0, 80, 59
1, 1325828, Note_off_c, 0, 73, 54
1, 1325844, Control_c, 0, 64, 111
1, 1325859, Note_off_c, 0, 55, 62
1, 1325859, Control_c, 0, 64, 62
1, 1325863, Note_on_c, 0, 72, 94
1, 1325867, Note_on_c, 0, 75, 85
1, 1325867, Note_on_c, 0, 80, 92
1, 1325874, Control_c, 0, 64, 0
1, 1325877, Note_on_c, 0, 42, 81
1, 1325933, Control_c, 0, 64, 64
1, 1325948, Control_c, 0, 64, 90
1, 1325963, Control_c, 0, 64, 127
1, 1325978, Note_on_c, 0, 54, 83
1, 1325997, Note_off_c, 0, 75, 63
1, 1325999, Note_off_c, 0, 42, 64
1, 1326023, Note_off_c, 0, 80, 51
1, 1326046, Note_off_c, 0, 72, 58
1, 1326133, Control_c, 0, 64, 91
1, 1326148, Control_c, 0, 64, 50
1, 1326154, Note_off_c, 0, 54, 60
1, 1326159, Note_on_c, 0, 80, 93
1, 1326161, Note_on_c, 0, 73, 94
1, 1326163, Control_c, 0, 64, 0
1, 1326166, Note_on_c, 0, 41, 75
1, 1326167, Note_on_c, 0, 77, 86
1, 1326193, Control_c, 0, 64, 51
1, 1326208, Control_c, 0, 64, 77
1, 1326223, Control_c, 0, 64, 127
1, 1326261, Note_off_c, 0, 80, 64
1, 1326278, Note_off_c, 0, 77, 61
1, 1326288, Note_off_c, 0, 73, 63
1, 1326296, Note_on_c, 0, 42, 75
1, 1326297, Note_off_c, 0, 41, 64
1, 1326400, Note_off_c, 0, 42, 61
1, 1326407, Note_on_c, 0, 41, 75
1, 1326490, Note_off_c, 0, 41, 57
1, 1326494, Note_on_c, 0, 65, 76
1, 1326502, Note_on_c, 0, 53, 65
1, 1326578, Control_c, 0, 64, 105
1, 1326592, Note_on_c, 0, 61, 81
1, 1326593, Control_c, 0, 64, 64
1, 1326594, Note_off_c, 0, 65, 60
1, 1326598, Note_on_c, 0, 49, 74
1, 1326598, Note_off_c, 0, 53, 62
1, 1326608, Control_c, 0, 64, 0
1, 1326652, Control_c, 0, 64, 56
1, 1326667, Control_c, 0, 64, 66
1, 1326682, Control_c, 0, 64, 78
1, 1326689, Note_off_c, 0, 49, 61
1, 1326694, Note_on_c, 0, 44, 66
1, 1326697, Control_c, 0, 64, 90
1, 1326702, Note_on_c, 0, 56, 75
1, 1326702, Note_off_c, 0, 61, 62
1, 1326712, Control_c, 0, 64, 95
1, 1326726, Control_c, 0, 64, 95
1, 1326763, Note_off_c, 0, 44, 63
1, 1326767, Note_off_c, 0, 56, 62
1, 1326793, Note_on_c, 0, 41, 67
1, 1326797, Note_on_c, 0, 53, 64
1, 1326864, Note_off_c, 0, 53, 63
1, 1326874, Note_off_c, 0, 41, 64
1, 1326881, Note_on_c, 0, 44, 77
1, 1326895, Note_on_c, 0, 56, 65
1, 1326920, Note_off_c, 0, 44, 62
1, 1326944, Note_off_c, 0, 56, 58
1, 1326996, Note_on_c, 0, 56, 55
1, 1327004, Note_on_c, 0, 44, 70
1, 1327075, Note_off_c, 0, 56, 57
1, 1327080, Note_on_c, 0, 46, 76
1, 1327080, Note_off_c, 0, 44, 63
1, 1327087, Note_on_c, 0, 58, 72
1, 1327147, Note_off_c, 0, 58, 63
1, 1327165, Note_off_c, 0, 46, 62
1, 1327173, Note_on_c, 0, 56, 72
1, 1327176, Note_on_c, 0, 44, 72
1, 1327232, Note_off_c, 0, 56, 62
1, 1327258, Note_on_c, 0, 56, 59
1, 1327260, Note_on_c, 0, 68, 72
1, 1327278, Note_off_c, 0, 44, 59
1, 1327297, Control_c, 0, 64, 79
1, 1327312, Control_c, 0, 64, 53
1, 1327313, Note_off_c, 0, 56, 62
1, 1327317, Note_off_c, 0, 68, 63
1, 1327327, Control_c, 0, 64, 0
1, 1327357, Note_on_c, 0, 65, 88
1, 1327367, Note_on_c, 0, 53, 80
1, 1327386, Control_c, 0, 64, 52
1, 1327400, Control_c, 0, 64, 74
1, 1327415, Control_c, 0, 64, 127
1, 1327448, Note_off_c, 0, 53, 62
1, 1327469, Note_on_c, 0, 49, 72
1, 1327472, Note_off_c, 0, 65, 59
1, 1327473, Note_on_c, 0, 61, 72
1, 1327539, Note_off_c, 0, 61, 61
1, 1327552, Note_off_c, 0, 49, 60
1, 1327563, Note_on_c, 0, 44, 70
1, 1327567, Note_on_c, 0, 56, 63
1, 1327621, Note_off_c, 0, 56, 58
1, 1327659, Note_on_c, 0, 49, 76
1, 1327659, Note_off_c, 0, 44, 64
1, 1327666, Note_on_c, 0, 61, 63
1, 1327690, Note_off_c, 0, 49, 60
1, 1327703, Note_off_c, 0, 61, 58
1, 1327764, Note_on_c, 0, 61, 54
1, 1327779, Note_on_c, 0, 49, 75
1, 1327815, Note_off_c, 0, 61, 57
1, 1327850, Note_off_c, 0, 49, 60
1, 1327852, Note_on_c, 0, 63, 68
1, 1327855, Note_on_c, 0, 51, 74
1, 1327911, Note_off_c, 0, 63, 62
1, 1327940, Note_on_c, 0, 61, 72
1, 1327947, Note_off_c, 0, 51, 61
1, 1327952, Note_on_c, 0, 49, 73
1, 1328000, Note_off_c, 0, 61, 60
1, 1328026, Note_on_c, 0, 61, 52
1, 1328032, Note_on_c, 0, 73, 77
1, 1328046, Note_off_c, 0, 49, 59
1, 1328047, Control_c, 0, 64, 78
1, 1328062, Control_c, 0, 64, 29
1, 1328077, Control_c, 0, 64, 0
1, 1328082, Note_off_c, 0, 61, 60
1, 1328114, Note_on_c, 0, 68, 81
1, 1328114, Note_off_c, 0, 73, 61
1, 1328118, Note_on_c, 0, 56, 81
1, 1328150, Control_c, 0, 64, 64
1, 1328165, Control_c, 0, 64, 84
1, 1328180, Control_c, 0, 64, 127
1, 1328211, Note_on_c, 0, 65, 72
1, 1328212, Note_off_c, 0, 56, 62
1, 1328218, Note_on_c, 0, 53, 75
1, 1328279, Note_off_c, 0, 68, 53
1, 1328285, Note_off_c, 0, 65, 55
1, 1328294, Note_off_c, 0, 53, 65
1, 1328297, Note_on_c, 0, 61, 75
1, 1328302, Note_on_c, 0, 49, 75
1, 1328362, Note_off_c, 0, 61, 61
1, 1328386, Note_off_c, 0, 49, 61
1, 1328394, Note_on_c, 0, 73, 66
1, 1328402, Note_on_c, 0, 61, 59
1, 1328425, Control_c, 0, 64, 114
1, 1328427, Note_off_c, 0, 73, 59
1, 1328438, Note_off_c, 0, 61, 59
1, 1328439, Control_c, 0, 64, 67
1, 1328454, Control_c, 0, 64, 0
1, 1328478, Note_on_c, 0, 73, 78
1, 1328484, Control_c, 0, 64, 18
1, 1328490, Note_on_c, 0, 61, 71
1, 1328498, Control_c, 0, 64, 64
1, 1328513, Control_c, 0, 64, 77
1, 1328528, Control_c, 0, 64, 127
1, 1328571, Note_off_c, 0, 61, 61
1, 1328576, Note_on_c, 0, 68, 81
1, 1328580, Note_on_c, 0, 56, 73
1, 1328583, Note_off_c, 0, 73, 56
1, 1328647, Note_off_c, 0, 56, 61
1, 1328663, Note_on_c, 0, 65, 77
1, 1328669, Note_off_c, 0, 68, 62
1, 1328686, Note_on_c, 0, 53, 57
1, 1328700, Note_on_c, 0, 52, 51
1, 1328717, Note_off_c, 0, 65, 59
1, 1328729, Note_off_c, 0, 52, 58
1, 1328731, Note_off_c, 0, 53, 65
1, 1328765, Note_on_c, 0, 77, 68
1, 1328765, Note_on_c, 0, 65, 57
1, 1328766, Control_c, 0, 64, 68
1, 1328780, Control_c, 0, 64, 0
1, 1328793, Note_off_c, 0, 77, 64
1, 1328810, Control_c, 0, 64, 38
1, 1328825, Note_off_c, 0, 65, 0
1, 1328825, Control_c, 0, 64, 62
1, 1328838, Note_on_c, 0, 65, 59
1, 1328838, Note_on_c, 0, 77, 82
1, 1328840, Control_c, 0, 64, 72
1, 1328855, Control_c, 0, 64, 91
1, 1328870, Control_c, 0, 64, 127
1, 1328911, Note_off_c, 0, 65, 59
1, 1328922, Note_off_c, 0, 77, 56
1, 1328934, Note_on_c, 0, 61, 72
1, 1328939, Note_on_c, 0, 73, 72
1, 1328985, Note_off_c, 0, 73, 54
1, 1329003, Note_off_c, 0, 61, 61
1, 1329010, Note_on_c, 0, 68, 71
1, 1329013, Note_on_c, 0, 56, 70
1, 1329037, Note_off_c, 0, 68, 65
1, 1329084, Note_off_c, 0, 56, 61
1, 1329099, Note_on_c, 0, 68, 69
1, 1329102, Note_on_c, 0, 80, 70
1, 1329136, Note_off_c, 0, 80, 58
1, 1329165, Note_off_c, 0, 68, 0
1, 1329177, Note_on_c, 0, 68, 66
1, 1329181, Note_on_c, 0, 80, 78
1, 1329227, Note_off_c, 0, 68, 65
1, 1329261, Note_off_c, 0, 80, 59
1, 1329424, Note_on_c, 0, 73, 92
1, 1329424, Note_on_c, 0, 49, 83
1, 1329424, Note_on_c, 0, 80, 86
1, 1329427, Note_on_c, 0, 77, 85
1, 1329440, Control_c, 0, 64, 97
1, 1329456, Control_c, 0, 64, 68
1, 1329470, Control_c, 0, 64, 47
1, 1329485, Control_c, 0, 64, 0
1, 1329508, Note_off_c, 0, 73, 57
1, 1329519, Note_off_c, 0, 80, 57
1, 1329519, Note_off_c, 0, 77, 50
1, 1329540, Note_on_c, 0, 44, 66
1, 1329571, Note_off_c, 0, 49, 55
1, 1329648, Note_on_c, 0, 80, 87
1, 1329648, Control_c, 0, 64, 64
1, 1329650, Note_on_c, 0, 85, 90
1, 1329652, Note_on_c, 0, 41, 80
1, 1329654, Note_off_c, 0, 44, 61
1, 1329656, Note_on_c, 0, 77, 88
1, 1329663, Control_c, 0, 64, 127
1, 1329707, Control_c, 0, 64, 89
1, 1329722, Note_off_c, 0, 77, 57
1, 1329722, Control_c, 0, 64, 70
1, 1329737, Control_c, 0, 64, 36
1, 1329744, Note_off_c, 0, 85, 64
1, 1329747, Note_off_c, 0, 80, 61
1, 1329752, Control_c, 0, 64, 0
1, 1329766, Note_on_c, 0, 53, 70
1, 1329775, Note_off_c, 0, 41, 63
1, 1329863, Control_c, 0, 64, 38
1, 1329870, Note_off_c, 0, 53, 66
1, 1329877, Note_on_c, 0, 84, 90
1, 1329877, Control_c, 0, 64, 86
1, 1329883, Note_on_c, 0, 81, 80
1, 1329883, Note_on_c, 0, 75, 93
1, 1329886, Note_on_c, 0, 42, 76
1, 1329892, Control_c, 0, 64, 127
1, 1329937, Control_c, 0, 64, 101
1, 1329952, Control_c, 0, 64, 66
1, 1329965, Note_off_c, 0, 81, 54
1, 1329967, Note_off_c, 0, 42, 63
1, 1329967, Control_c, 0, 64, 0
1, 1329977, Note_off_c, 0, 84, 59
1, 1329979, Note_on_c, 0, 54, 75
1, 1329984, Note_off_c, 0, 75, 57
1, 1330072, Note_off_c, 0, 54, 62
1, 1330100, Control_c, 0, 64, 78
1, 1330101, Note_on_c, 0, 74, 90
1, 1330101, Note_on_c, 0, 83, 89
1, 1330106, Note_on_c, 0, 43, 73
1, 1330106, Note_on_c, 0, 79, 79
1, 1330115, Control_c, 0, 64, 127
1, 1330136, Note_off_c, 0, 79, 59
1, 1330143, Note_off_c, 0, 83, 64
1, 1330182, Note_off_c, 0, 74, 66
1, 1330189, Control_c, 0, 64, 77
1, 1330203, Control_c, 0, 64, 0
1, 1330211, Note_off_c, 0, 43, 62
1, 1330215, Note_on_c, 0, 44, 71
1, 1330309, Note_off_c, 0, 44, 61
1, 1330315, Note_on_c, 0, 74, 76
1, 1330315, Note_on_c, 0, 67, 75
1, 1330321, Note_on_c, 0, 43, 73
1, 1330333, Note_on_c, 0, 71, 45
1, 1330359, Note_off_c, 0, 71, 57
1, 1330371, Note_off_c, 0, 74, 65
1, 1330372, Note_off_c, 0, 67, 60
1, 1330380, Note_off_c, 0, 43, 61
1, 1330405, Note_on_c, 0, 55, 71
1, 1330471, Control_c, 0, 64, 57
1, 1330486, Control_c, 0, 64, 66
1, 1330500, Control_c, 0, 64, 63
1, 1330503, Note_on_c, 0, 56, 79
1, 1330503, Note_on_c, 0, 63, 73
1, 1330503, Note_on_c, 0, 72, 74
1, 1330509, Note_off_c, 0, 55, 65
1, 1330510, Note_on_c, 0, 67, 60
1, 1330515, Control_c, 0, 64, 37
1, 1330530, Control_c, 0, 64, 0
1, 1330539, Note_off_c, 0, 67, 66
1, 1330551, Note_off_c, 0, 63, 64
1, 1330553, Note_off_c, 0, 56, 64
1, 1330575, Note_off_c, 0, 72, 64
1, 1330613, Note_on_c, 0, 55, 63
1, 1330676, Note_off_c, 0, 55, 48
1, 1330703, Note_on_c, 0, 67, 74
1, 1330706, Note_on_c, 0, 75, 71
1, 1330715, Note_on_c, 0, 51, 65
1, 1330731, Note_off_c, 0, 75, 69
1, 1330738, Note_off_c, 0, 67, 56
1, 1330745, Note_on_c, 0, 72, 24
1, 1330773, Note_off_c, 0, 72, 0
1, 1330782, Note_off_c, 0, 51, 61
1, 1330791, Note_on_c, 0, 75, 84
1, 1330793, Note_on_c, 0, 67, 69
1, 1330810, Poly_aftertouch_c, 0, 72, 127
1, 1330813, Note_on_c, 0, 48, 62
1, 1330826, Note_on_c, 0, 72, 3
1, 1330834, Note_off_c, 0, 67, 55
1, 1330838, Note_off_c, 0, 72, 48
1, 1330839, Note_off_c, 0, 75, 61
1, 1330845, Note_on_c, 0, 47, 10
1, 1330849, Control_c, 0, 64, 44
1, 1330862, Note_off_c, 0, 48, 62
1, 1330864, Control_c, 0, 64, 65
1, 1330879, Control_c, 0, 64, 75
1, 1330888, Note_on_c, 0, 67, 79
1, 1330893, Note_on_c, 0, 43, 75
1, 1330894, Control_c, 0, 64, 73
1, 1330894, Note_on_c, 0, 74, 84
1, 1330897, Note_off_c, 0, 47, 26
1, 1330908, Control_c, 0, 64, 62
1, 1330923, Control_c, 0, 64, 0
1, 1330928, Note_on_c, 0, 71, 31
1, 1330932, Note_off_c, 0, 67, 62
1, 1330948, Note_off_c, 0, 74, 64
1, 1330963, Note_off_c, 0, 71, 31
1, 1330982, Note_off_c, 0, 43, 61
1, 1330990, Note_on_c, 0, 44, 77
1, 1331090, Note_on_c, 0, 71, 72
1, 1331090, Note_on_c, 0, 79, 77
1, 1331092, Note_off_c, 0, 44, 62
1, 1331101, Note_on_c, 0, 43, 71
1, 1331105, Note_on_c, 0, 74, 50
1, 1331127, Note_off_c, 0, 74, 61
1, 1331142, Note_off_c, 0, 79, 61
1, 1331147, Note_off_c, 0, 71, 61
1, 1331149, Note_off_c, 0, 43, 60
1, 1331182, Note_on_c, 0, 55, 71
1, 1331220, Control_c, 0, 64, 49
1, 1331235, Control_c, 0, 64, 66
1, 1331249, Control_c, 0, 64, 65
1, 1331264, Control_c, 0, 64, 46
1, 1331279, Control_c, 0, 64, 0
1, 1331280, Note_off_c, 0, 55, 59
1, 1331281, Note_on_c, 0, 75, 79
1, 1331284, Note_on_c, 0, 56, 74
1, 1331286, Note_on_c, 0, 67, 70
1, 1331286, Note_on_c, 0, 72, 61
1, 1331314, Note_off_c, 0, 72, 68
1, 1331323, Note_off_c, 0, 67, 63
1, 1331340, Note_off_c, 0, 56, 61
1, 1331342, Note_off_c, 0, 75, 66
1, 1331385, Note_on_c, 0, 55, 65
1, 1331475, Note_off_c, 0, 55, 40
1, 1331478, Note_on_c, 0, 84, 86
1, 1331480, Note_on_c, 0, 51, 71
1, 1331482, Note_on_c, 0, 75, 81
1, 1331499, Note_on_c, 0, 79, 48
1, 1331501, Note_off_c, 0, 84, 62
1, 1331506, Note_off_c, 0, 75, 66
1, 1331523, Note_off_c, 0, 79, 57
1, 1331563, Note_on_c, 0, 75, 76
1, 1331566, Note_on_c, 0, 84, 81
1, 1331567, Note_on_c, 0, 48, 77
1, 1331567, Note_off_c, 0, 51, 57
1, 1331578, Note_on_c, 0, 79, 63
1, 1331591, Note_off_c, 0, 84, 63
1, 1331592, Note_off_c, 0, 75, 64
1, 1331597, Note_off_c, 0, 79, 65
1, 1331627, Control_c, 0, 64, 59
1, 1331638, Note_off_c, 0, 48, 61
1, 1331642, Control_c, 0, 64, 88
1, 1331657, Note_on_c, 0, 43, 78
1, 1331657, Control_c, 0, 64, 97
1, 1331658, Note_on_c, 0, 83, 93
1, 1331664, Note_on_c, 0, 74, 85
1, 1331668, Note_on_c, 0, 79, 65
1, 1331672, Control_c, 0, 64, 87
1, 1331686, Note_off_c, 0, 79, 64
1, 1331687, Control_c, 0, 64, 64
1, 1331701, Note_off_c, 0, 74, 58
1, 1331701, Control_c, 0, 64, 21
1, 1331712, Note_off_c, 0, 83, 62
1, 1331716, Control_c, 0, 64, 0
1, 1331748, Note_off_c, 0, 43, 59
1, 1331755, Note_on_c, 0, 44, 78
1, 1331851, Note_on_c, 0, 86, 84
1, 1331856, Note_on_c, 0, 79, 86
1, 1331862, Note_off_c, 0, 44, 62
1, 1331865, Note_on_c, 0, 43, 73
1, 1331875, Note_on_c, 0, 83, 40
1, 1331905, Note_off_c, 0, 79, 61
1, 1331905, Note_off_c, 0, 83, 36
1, 1331907, Note_off_c, 0, 86, 59
1, 1331925, Note_off_c, 0, 43, 62
1, 1331952, Note_on_c, 0, 55, 71
1, 1331998, Control_c, 0, 64, 44
1, 1332013, Control_c, 0, 64, 72
1, 1332028, Control_c, 0, 64, 82
1, 1332041, Note_on_c, 0, 56, 80
1, 1332043, Control_c, 0, 64, 78
1, 1332044, Note_on_c, 0, 75, 83
1, 1332044, Note_on_c, 0, 84, 81
1, 1332047, Note_off_c, 0, 55, 64
1, 1332050, Note_on_c, 0, 79, 71
1, 1332058, Control_c, 0, 64, 64
1, 1332080, Control_c, 0, 64, 46
1, 1332085, Note_off_c, 0, 79, 63
1, 1332095, Control_c, 0, 64, 0
1, 1332098, Note_off_c, 0, 75, 63
1, 1332098, Note_off_c, 0, 56, 63
1, 1332113, Note_off_c, 0, 84, 64
1, 1332142, Note_on_c, 0, 55, 68
1, 1332234, Note_off_c, 0, 55, 44
1, 1332235, Note_on_c, 0, 51, 77
1, 1332236, Note_on_c, 0, 87, 87
1, 1332241, Note_on_c, 0, 79, 77
1, 1332256, Note_on_c, 0, 84, 59
1, 1332265, Note_off_c, 0, 79, 64
1, 1332268, Note_off_c, 0, 87, 52
1, 1332274, Note_off_c, 0, 84, 66
1, 1332300, Note_off_c, 0, 51, 53
1, 1332321, Note_on_c, 0, 87, 86
1, 1332323, Note_on_c, 0, 48, 80
1, 1332329, Note_on_c, 0, 79, 73
1, 1332333, Note_on_c, 0, 84, 73
1, 1332350, Note_off_c, 0, 84, 70
1, 1332351, Note_off_c, 0, 79, 66
1, 1332365, Note_off_c, 0, 87, 61
1, 1332390, Note_off_c, 0, 48, 61
1, 1332422, Note_on_c, 0, 43, 76
1, 1332424, Note_on_c, 0, 79, 80
1, 1332424, Note_on_c, 0, 86, 93
1, 1332432, Note_on_c, 0, 83, 82
1, 1332454, Note_off_c, 0, 83, 64
1, 1332465, Note_off_c, 0, 79, 60
1, 1332478, Note_off_c, 0, 86, 63
1, 1332515, Note_off_c, 0, 43, 61
1, 1332519, Note_on_c, 0, 44, 77
1, 1332613, Note_on_c, 0, 91, 93
1, 1332615, Note_on_c, 0, 83, 85
1, 1332622, Note_off_c, 0, 44, 64
1, 1332624, Note_on_c, 0, 86, 72
1, 1332626, Note_on_c, 0, 43, 74
1, 1332649, Note_off_c, 0, 86, 67
1, 1332667, Note_off_c, 0, 83, 61
1, 1332681, Note_off_c, 0, 91, 59
1, 1332682, Note_off_c, 0, 43, 62
1, 1332707, Note_on_c, 0, 55, 71
1, 1332802, Note_on_c, 0, 87, 87
1, 1332804, Note_on_c, 0, 56, 78
1, 1332807, Note_off_c, 0, 55, 59
1, 1332809, Note_on_c, 0, 79, 78
1, 1332820, Note_on_c, 0, 84, 71
1, 1332843, Note_off_c, 0, 84, 68
1, 1332861, Note_off_c, 0, 79, 61
1, 1332867, Note_off_c, 0, 56, 63
1, 1332873, Note_off_c, 0, 87, 65
1, 1332909, Note_on_c, 0, 55, 74
1, 1333015, Note_off_c, 0, 55, 55
1, 1333020, Note_on_c, 0, 51, 73
1, 1333026, Note_on_c, 0, 96, 98
1, 1333027, Note_on_c, 0, 87, 94
1, 1333034, Note_on_c, 0, 91, 83
1, 1333036, Control_c, 0, 64, 8
1, 1333051, Control_c, 0, 64, 14
1, 1333055, Note_off_c, 0, 91, 65
1, 1333066, Note_off_c, 0, 87, 63
1, 1333066, Control_c, 0, 64, 15
1, 1333074, Note_off_c, 0, 96, 64
1, 1333126, Note_on_c, 0, 96, 87
1, 1333127, Note_off_c, 0, 51, 61
1, 1333132, Note_on_c, 0, 87, 81
1, 1333132, Note_on_c, 0, 48, 67
1, 1333134, Note_on_c, 0, 91, 87
1, 1333154, Control_c, 0, 64, 18
1, 1333165, Note_off_c, 0, 91, 60
1, 1333169, Control_c, 0, 64, 20
1, 1333180, Note_off_c, 0, 96, 63
1, 1333184, Note_off_c, 0, 87, 62
1, 1333184, Control_c, 0, 64, 21
1, 1333213, Control_c, 0, 64, 19
1, 1333228, Control_c, 0, 64, 18
1, 1333234, Note_off_c, 0, 48, 62
1, 1333243, Control_c, 0, 64, 15
1, 1333249, Note_on_c, 0, 95, 95
1, 1333251, Note_on_c, 0, 43, 78
1, 1333257, Note_on_c, 0, 86, 87
1, 1333258, Control_c, 0, 64, 14
1, 1333260, Note_on_c, 0, 91, 84
1, 1333273, Control_c, 0, 64, 10
1, 1333285, Note_off_c, 0, 43, 65
1, 1333295, Note_off_c, 0, 91, 60
1, 1333317, Control_c, 0, 64, 8
1, 1333322, Note_off_c, 0, 95, 67
1, 1333335, Note_off_c, 0, 86, 58
1, 1333362, Control_c, 0, 64, 0
1, 1333449, Note_on_c, 0, 91, 86
1, 1333579, Note_on_c, 0, 90, 87
1, 1333581, Note_off_c, 0, 91, 59
1, 1333588, Note_on_c, 0, 76, 67
1, 1333633, Note_off_c, 0, 76, 60
1, 1333677, Note_on_c, 0, 93, 80
1, 1333692, Note_off_c, 0, 90, 61
1, 1333779, Note_on_c, 0, 91, 79
1, 1333785, Note_on_c, 0, 73, 71
1, 1333797, Note_off_c, 0, 93, 49
1, 1333816, Note_off_c, 0, 73, 63
1, 1333877, Note_on_c, 0, 89, 74
1, 1333881, Note_off_c, 0, 91, 55
1, 1333960, Note_on_c, 0, 82, 82
1, 1333960, Note_off_c, 0, 89, 63
1, 1333967, Note_on_c, 0, 88, 73
1, 1333987, Note_off_c, 0, 82, 65
1, 1334050, Note_off_c, 0, 88, 55
1, 1334051, Note_on_c, 0, 91, 75
1, 1334067, Note_on_c, 0, 82, 79
1, 1334089, Note_off_c, 0, 82, 66
1, 1334151, Note_on_c, 0, 89, 72
1, 1334154, Note_on_c, 0, 81, 79
1, 1334192, Note_off_c, 0, 91, 37
1, 1334196, Note_off_c, 0, 81, 58
1, 1334244, Note_on_c, 0, 88, 72
1, 1334259, Note_off_c, 0, 89, 52
1, 1334310, Note_off_c, 0, 88, 65
1, 1334328, Control_c, 0, 67, 8
1, 1334343, Note_on_c, 0, 77, 75
1, 1334343, Control_c, 0, 67, 12
1, 1334344, Note_on_c, 0, 86, 69
1, 1334357, Control_c, 0, 64, 8
1, 1334357, Control_c, 0, 67, 15
1, 1334372, Control_c, 0, 67, 16
1, 1334387, Control_c, 0, 67, 19
1, 1334390, Note_off_c, 0, 77, 59
1, 1334402, Control_c, 0, 64, 10
1, 1334402, Control_c, 0, 67, 21
1, 1334417, Control_c, 0, 67, 22
1, 1334430, Note_off_c, 0, 86, 56
1, 1334432, Control_c, 0, 67, 22
1, 1334438, Note_on_c, 0, 87, 71
1, 1334447, Control_c, 0, 67, 23
1, 1334476, Control_c, 0, 64, 8
1, 1334520, Control_c, 0, 64, 0
1, 1334520, Control_c, 0, 67, 23
1, 1334524, Note_off_c, 0, 87, 62
1, 1334532, Note_on_c, 0, 88, 68
1, 1334535, Control_c, 0, 67, 24
1, 1334536, Note_on_c, 0, 76, 75
1, 1334550, Control_c, 0, 67, 26
1, 1334565, Control_c, 0, 67, 28
1, 1334566, Note_off_c, 0, 76, 67
1, 1334580, Control_c, 0, 67, 31
1, 1334594, Control_c, 0, 67, 34
1, 1334596, Note_off_c, 0, 88, 63
1, 1334609, Control_c, 0, 67, 37
1, 1334624, Control_c, 0, 67, 39
1, 1334626, Note_on_c, 0, 86, 60
1, 1334639, Control_c, 0, 67, 41
1, 1334654, Control_c, 0, 67, 43
1, 1334668, Control_c, 0, 67, 45
1, 1334683, Control_c, 0, 67, 47
1, 1334698, Control_c, 0, 67, 49
1, 1334713, Control_c, 0, 67, 52
1, 1334720, Note_on_c, 0, 70, 72
1, 1334724, Note_on_c, 0, 85, 75
1, 1334726, Note_on_c, 0, 67, 67
1, 1334727, Control_c, 0, 67, 55
1, 1334738, Note_off_c, 0, 86, 58
1, 1334742, Note_off_c, 0, 70, 70
1, 1334742, Control_c, 0, 67, 58
1, 1334748, Note_off_c, 0, 67, 69
1, 1334757, Control_c, 0, 67, 61
1, 1334772, Control_c, 0, 67, 63
1, 1334787, Control_c, 0, 67, 64
1, 1334802, Control_c, 0, 67, 65
1, 1334806, Note_on_c, 0, 88, 71
1, 1334813, Note_on_c, 0, 70, 71
1, 1334815, Note_off_c, 0, 85, 59
1, 1334817, Control_c, 0, 67, 66
1, 1334820, Note_on_c, 0, 67, 67
1, 1334831, Control_c, 0, 67, 67
1, 1334837, Note_off_c, 0, 70, 68
1, 1334844, Note_off_c, 0, 67, 68
1, 1334846, Control_c, 0, 67, 69
1, 1334861, Control_c, 0, 67, 72
1, 1334876, Control_c, 0, 67, 74
1, 1334903, Note_on_c, 0, 86, 70
1, 1334907, Note_off_c, 0, 88, 57
1, 1334910, Note_on_c, 0, 66, 71
1, 1334914, Note_on_c, 0, 69, 64
1, 1334920, Control_c, 0, 67, 74
1, 1334939, Note_off_c, 0, 66, 63
1, 1334939, Note_off_c, 0, 69, 71
1, 1334994, Control_c, 0, 67, 75
1, 1334995, Note_off_c, 0, 86, 59
1, 1335006, Note_on_c, 0, 84, 68
1, 1335091, Note_off_c, 0, 84, 62
1, 1335099, Note_on_c, 0, 68, 61
1, 1335109, Note_on_c, 0, 65, 59
1, 1335109, Note_on_c, 0, 83, 63
1, 1335121, Control_c, 0, 67, 75
1, 1335130, Note_off_c, 0, 68, 64
1, 1335141, Note_off_c, 0, 65, 62
1, 1335150, Control_c, 0, 67, 76
1, 1335189, Note_on_c, 0, 86, 62
1, 1335192, Note_off_c, 0, 83, 54
1, 1335287, Note_on_c, 0, 84, 66
1, 1335288, Note_off_c, 0, 86, 59
1, 1335291, Note_on_c, 0, 67, 60
1, 1335293, Note_on_c, 0, 64, 56
1, 1335298, Control_c, 0, 67, 76
1, 1335325, Note_off_c, 0, 64, 64
1, 1335328, Control_c, 0, 67, 77
1, 1335329, Note_off_c, 0, 67, 60
1, 1335357, Control_c, 0, 67, 78
1, 1335365, Note_off_c, 0, 84, 62
1, 1335372, Note_on_c, 0, 83, 67
1, 1335372, Control_c, 0, 67, 79
1, 1335387, Control_c, 0, 67, 80
1, 1335402, Control_c, 0, 67, 82
1, 1335416, Control_c, 0, 67, 84
1, 1335431, Control_c, 0, 67, 87
1, 1335446, Control_c, 0, 67, 91
1, 1335455, Note_off_c, 0, 83, 60
1, 1335461, Control_c, 0, 67, 94
1, 1335472, Note_on_c, 0, 72, 76
1, 1335476, Control_c, 0, 67, 97
1, 1335479, Note_on_c, 0, 81, 66
1, 1335490, Control_c, 0, 67, 101
1, 1335497, Note_off_c, 0, 72, 64
1, 1335505, Control_c, 0, 67, 105
1, 1335520, Control_c, 0, 67, 111
1, 1335535, Control_c, 0, 67, 118
1, 1335550, Control_c, 0, 67, 126
1, 1335550, Note_on_c, 0, 84, 62
1, 1335556, Note_off_c, 0, 81, 53
1, 1335565, Control_c, 0, 67, 127
1, 1335574, Note_on_c, 0, 72, 62
1, 1335599, Note_off_c, 0, 72, 55
1, 1335645, Note_on_c, 0, 83, 70
1, 1335663, Note_on_c, 0, 74, 73
1, 1335663, Note_off_c, 0, 84, 53
1, 1335687, Note_off_c, 0, 74, 67
1, 1335738, Note_on_c, 0, 81, 73
1, 1335740, Note_off_c, 0, 83, 56
1, 1335804, Note_off_c, 0, 81, 62
1, 1335840, Note_on_c, 0, 79, 73
1, 1335841, Note_on_c, 0, 76, 72
1, 1335866, Note_off_c, 0, 76, 67
1, 1335928, Note_on_c, 0, 76, 73
1, 1335928, Note_on_c, 0, 80, 76
1, 1335929, Note_off_c, 0, 79, 59
1, 1335968, Note_off_c, 0, 76, 57
1, 1336019, Note_off_c, 0, 80, 62
1, 1336023, Note_on_c, 0, 81, 71
1, 1336032, Note_on_c, 0, 73, 80
1, 1336078, Note_off_c, 0, 73, 59
1, 1336082, Note_off_c, 0, 81, 61
1, 1336117, Note_on_c, 0, 79, 63
1, 1336212, Note_on_c, 0, 74, 68
1, 1336215, Note_on_c, 0, 78, 67
1, 1336236, Note_off_c, 0, 79, 55
1, 1336241, Note_off_c, 0, 74, 66
1, 1336290, Note_on_c, 0, 81, 66
1, 1336304, Note_off_c, 0, 78, 58
1, 1336397, Note_on_c, 0, 71, 72
1, 1336399, Note_on_c, 0, 79, 62
1, 1336402, Note_off_c, 0, 81, 52
1, 1336424, Note_off_c, 0, 71, 64
1, 1336477, Note_off_c, 0, 79, 59
1, 1336485, Note_on_c, 0, 77, 65
1, 1336557, Note_off_c, 0, 77, 61
1, 1336573, Note_on_c, 0, 72, 64
1, 1336587, Note_on_c, 0, 76, 65
1, 1336599, Note_off_c, 0, 72, 69
1, 1336662, Note_on_c, 0, 72, 72
1, 1336668, Note_on_c, 0, 79, 58
1, 1336671, Note_off_c, 0, 76, 55
1, 1336692, Note_off_c, 0, 72, 61
1, 1336763, Note_on_c, 0, 77, 67
1, 1336764, Note_on_c, 0, 69, 70
1, 1336787, Note_off_c, 0, 79, 44
1, 1336791, Note_off_c, 0, 69, 64
1, 1336836, Note_off_c, 0, 77, 59
1, 1336849, Note_on_c, 0, 76, 67
1, 1336909, Note_off_c, 0, 76, 66
1, 1336942, Note_on_c, 0, 71, 69
1, 1336942, Note_on_c, 0, 74, 66
1, 1336972, Note_off_c, 0, 71, 63
1, 1337020, Note_off_c, 0, 74, 53
1, 1337031, Note_on_c, 0, 77, 62
1, 1337104, Note_off_c, 0, 77, 60
1, 1337117, Note_on_c, 0, 76, 66
1, 1337123, Note_on_c, 0, 68, 74
1, 1337148, Note_off_c, 0, 68, 66
1, 1337192, Note_on_c, 0, 74, 64
1, 1337192, Note_off_c, 0, 76, 62
1, 1337264, Note_off_c, 0, 74, 61
1, 1337289, Note_on_c, 0, 69, 68
1, 1337294, Note_on_c, 0, 73, 67
1, 1337321, Note_off_c, 0, 69, 68
1, 1337383, Note_off_c, 0, 73, 59
1, 1337384, Note_on_c, 0, 76, 68
1, 1337395, Note_on_c, 0, 69, 59
1, 1337430, Note_off_c, 0, 69, 60
1, 1337476, Note_on_c, 0, 74, 61
1, 1337488, Note_on_c, 0, 66, 71
1, 1337512, Note_off_c, 0, 76, 41
1, 1337517, Note_off_c, 0, 66, 65
1, 1337565, Note_off_c, 0, 74, 62
1, 1337577, Note_on_c, 0, 72, 60
1, 1337647, Note_off_c, 0, 72, 63
1, 1337656, Note_on_c, 0, 67, 71
1, 1337665, Note_on_c, 0, 71, 61
1, 1337741, Note_on_c, 0, 74, 61
1, 1337741, Note_on_c, 0, 66, 77
1, 1337748, Note_off_c, 0, 71, 58
1, 1337762, Note_off_c, 0, 67, 56
1, 1337833, Note_on_c, 0, 64, 73
1, 1337841, Note_off_c, 0, 66, 64
1, 1337844, Note_on_c, 0, 72, 60
1, 1337887, Note_off_c, 0, 74, 57
1, 1337923, Note_off_c, 0, 64, 63
1, 1337929, Note_off_c, 0, 72, 61
1, 1337932, Note_on_c, 0, 71, 65
1, 1337935, Note_on_c, 0, 67, 67
1, 1338008, Note_off_c, 0, 71, 62
1, 1338017, Note_on_c, 0, 66, 72
1, 1338021, Note_on_c, 0, 69, 66
1, 1338080, Note_off_c, 0, 67, 39
1, 1338109, Note_on_c, 0, 64, 66
1, 1338112, Note_on_c, 0, 72, 62
1, 1338119, Note_off_c, 0, 66, 65
1, 1338119, Note_off_c, 0, 69, 56
1, 1338201, Note_off_c, 0, 64, 65
1, 1338210, Note_on_c, 0, 63, 67
1, 1338212, Note_on_c, 0, 71, 57
1, 1338267, Note_off_c, 0, 72, 38
1, 1338285, Note_off_c, 0, 63, 63
1, 1338293, Note_off_c, 0, 71, 60
1, 1338309, Note_on_c, 0, 69, 63
1, 1338321, Note_on_c, 0, 66, 60
1, 1338376, Note_off_c, 0, 69, 65
1, 1338402, Note_on_c, 0, 67, 59
1, 1338408, Note_on_c, 0, 64, 53
1, 1338427, Note_off_c, 0, 66, 51
1, 1338504, Note_off_c, 0, 64, 60
1, 1338507, Note_on_c, 0, 71, 50
1, 1338510, Note_off_c, 0, 67, 46
1, 1338510, Note_on_c, 0, 62, 58
1, 1338593, Note_off_c, 0, 71, 61
1, 1338609, Note_on_c, 0, 69, 59
1, 1338612, Note_off_c, 0, 62, 58
1, 1338621, Note_on_c, 0, 61, 61
1, 1338688, Note_off_c, 0, 61, 60
1, 1338707, Note_off_c, 0, 69, 62
1, 1338719, Note_on_c, 0, 67, 55
1, 1338738, Note_on_c, 0, 64, 40
1, 1338796, Note_off_c, 0, 67, 59
1, 1338840, Note_off_c, 0, 64, 60
1, 1338841, Note_on_c, 0, 66, 54
1, 1338861, Note_on_c, 0, 62, 42
1, 1338955, Note_off_c, 0, 62, 58
1, 1338956, Note_on_c, 0, 69, 48
1, 1338970, Note_on_c, 0, 60, 40
1, 1338987, Note_off_c, 0, 66, 37
1, 1339084, Note_off_c, 0, 60, 57
1, 1339096, Note_off_c, 0, 69, 58
1, 1339126, Note_on_c, 0, 67, 40
1, 1339138, Note_on_c, 0, 59, 44
1, 1339222, Note_off_c, 0, 59, 58
1, 1339366, Note_on_c, 0, 43, 64
1, 1339375, Note_off_c, 0, 67, 52
1, 1339384, Note_on_c, 0, 69, 42
1, 1339541, Note_on_c, 0, 45, 66
1, 1339562, Note_off_c, 0, 69, 47
1, 1339580, Note_on_c, 0, 65, 34
1, 1339639, Note_off_c, 0, 43, 55
1, 1339714, Note_on_c, 0, 47, 60
1, 1339724, Note_on_c, 0, 67, 47
1, 1339744, Note_off_c, 0, 45, 64
1, 1339764, Note_off_c, 0, 65, 43
1, 1339916, Note_off_c, 0, 67, 58
1, 1339925, Note_off_c, 0, 47, 65
1, 1339929, Note_on_c, 0, 48, 63
1, 1339931, Note_on_c, 0, 64, 43
1, 1339974, Note_off_c, 0, 48, 60
1, 1340080, Note_on_c, 0, 67, 42
1, 1340081, Note_off_c, 0, 64, 36
1, 1340214, Note_on_c, 0, 55, 54
1, 1340215, Note_on_c, 0, 65, 42
1, 1340216, Note_on_c, 0, 60, 50
1, 1340225, Note_off_c, 0, 67, 37
1, 1340251, Note_off_c, 0, 60, 64
1, 1340252, Note_off_c, 0, 55, 64
1, 1340314, Note_off_c, 0, 65, 58
1, 1340345, Note_on_c, 0, 64, 46
1, 1340453, Note_off_c, 0, 64, 59
1, 1340465, Note_on_c, 0, 60, 57
1, 1340471, Note_on_c, 0, 57, 58
1, 1340472, Note_on_c, 0, 65, 45
1, 1340499, Note_off_c, 0, 60, 64
1, 1340503, Note_off_c, 0, 57, 64
1, 1340586, Note_on_c, 0, 69, 50
1, 1340605, Note_off_c, 0, 65, 36
1, 1340677, Note_on_c, 0, 48, 69
1, 1340701, Note_on_c, 0, 67, 58
1, 1340703, Note_off_c, 0, 69, 52
1, 1340707, Note_off_c, 0, 48, 64
1, 1340784, Note_on_c, 0, 48, 77
1, 1340786, Note_off_c, 0, 67, 54
1, 1340794, Note_on_c, 0, 65, 58
1, 1340811, Note_off_c, 0, 48, 66
1, 1340873, Note_off_c, 0, 65, 61
1, 1340901, Note_on_c, 0, 48, 79
1, 1340903, Note_on_c, 0, 64, 59
1, 1340933, Note_off_c, 0, 48, 64
1, 1341002, Note_off_c, 0, 64, 54
1, 1341020, Note_on_c, 0, 67, 59
1, 1341107, Note_off_c, 0, 67, 49
1, 1341130, Note_on_c, 0, 60, 64
1, 1341131, Note_on_c, 0, 72, 63
1, 1341136, Note_on_c, 0, 55, 54
1, 1341159, Note_off_c, 0, 60, 63
1, 1341172, Note_off_c, 0, 55, 51
1, 1341181, Note_off_c, 0, 72, 61
1, 1341243, Note_on_c, 0, 76, 70
1, 1341315, Note_off_c, 0, 76, 54
1, 1341337, Note_on_c, 0, 64, 65
1, 1341339, Note_on_c, 0, 60, 67
1, 1341349, Note_on_c, 0, 79, 69
1, 1341364, Note_off_c, 0, 64, 68
1, 1341371, Note_off_c, 0, 60, 63
1, 1341427, Note_off_c, 0, 79, 57
1, 1341446, Note_on_c, 0, 81, 66
1, 1341535, Note_on_c, 0, 48, 78
1, 1341543, Note_on_c, 0, 79, 67
1, 1341557, Note_off_c, 0, 81, 51
1, 1341566, Note_off_c, 0, 48, 64
1, 1341607, Note_off_c, 0, 79, 61
1, 1341628, Note_on_c, 0, 76, 70
1, 1341633, Note_on_c, 0, 48, 83
1, 1341664, Note_off_c, 0, 48, 63
1, 1341699, Note_off_c, 0, 76, 57
1, 1341760, Note_on_c, 0, 47, 84
1, 1341761, Note_on_c, 0, 77, 64
1, 1341810, Note_off_c, 0, 47, 61
1, 1341869, Note_off_c, 0, 77, 60
1, 1341878, Note_on_c, 0, 79, 59
1, 1341935, Note_off_c, 0, 79, 59
1, 1341990, Note_on_c, 0, 55, 65
1, 1341990, Note_on_c, 0, 77, 55
1, 1341992, Note_on_c, 0, 65, 55
1, 1341997, Note_on_c, 0, 62, 46
1, 1342013, Note_off_c, 0, 65, 61
1, 1342022, Note_off_c, 0, 55, 65
1, 1342027, Note_off_c, 0, 62, 35
1, 1342033, Note_off_c, 0, 77, 59
1, 1342074, Note_on_c, 0, 86, 65
1, 1342149, Note_off_c, 0, 86, 62
1, 1342176, Note_on_c, 0, 48, 80
1, 1342178, Note_on_c, 0, 76, 65
1, 1342210, Note_off_c, 0, 48, 59
1, 1342247, Note_off_c, 0, 76, 60
1, 1342277, Note_on_c, 0, 77, 69
1, 1342341, Note_off_c, 0, 77, 60
1, 1342373, Note_on_c, 0, 64, 62
1, 1342373, Note_on_c, 0, 76, 62
1, 1342378, Note_on_c, 0, 55, 61
1, 1342397, Note_off_c, 0, 64, 66
1, 1342406, Note_off_c, 0, 55, 66
1, 1342452, Note_off_c, 0, 76, 60
1, 1342468, Note_on_c, 0, 84, 64
1, 1342566, Note_off_c, 0, 84, 59
1, 1342570, Note_on_c, 0, 83, 70
1, 1342574, Note_on_c, 0, 43, 73
1, 1342600, Note_off_c, 0, 43, 64
1, 1342668, Note_on_c, 0, 79, 69
1, 1342674, Note_off_c, 0, 83, 56
1, 1342738, Note_off_c, 0, 79, 62
1, 1342765, Note_on_c, 0, 62, 64
1, 1342767, Note_on_c, 0, 74, 67
1, 1342770, Note_on_c, 0, 59, 52
1, 1342776, Note_on_c, 0, 55, 47
1, 1342793, Note_off_c, 0, 59, 60
1, 1342793, Note_off_c, 0, 62, 66
1, 1342799, Note_off_c, 0, 74, 65
1, 1342804, Note_off_c, 0, 55, 55
1, 1342858, Note_on_c, 0, 71, 65
1, 1342861, Note_on_c, 0, 59, 59
1, 1342880, Note_on_c, 0, 62, 46
1, 1342881, Note_off_c, 0, 59, 62
1, 1342894, Note_on_c, 0, 55, 31
1, 1342909, Note_off_c, 0, 62, 55
1, 1342936, Note_off_c, 0, 55, 30
1, 1342972, Note_off_c, 0, 71, 60
1, 1342972, Note_on_c, 0, 67, 72
1, 1342978, Note_on_c, 0, 62, 65
1, 1342990, Note_on_c, 0, 59, 20
1, 1342996, Note_on_c, 0, 55, 54
1, 1343001, Note_off_c, 0, 62, 65
1, 1343024, Note_off_c, 0, 55, 65
1, 1343029, Note_off_c, 0, 59, 52
1, 1343086, Note_off_c, 0, 67, 58
1, 1343089, Note_on_c, 0, 69, 62
1, 1343162, Note_off_c, 0, 69, 63
1, 1343181, Note_on_c, 0, 43, 71
1, 1343184, Note_on_c, 0, 65, 59
1, 1343270, Note_off_c, 0, 65, 56
1, 1343277, Note_on_c, 0, 47, 75
1, 1343282, Note_on_c, 0, 67, 63
1, 1343312, Note_off_c, 0, 43, 58
1, 1343378, Note_off_c, 0, 67, 60
1, 1343396, Note_on_c, 0, 48, 83
1, 1343401, Note_off_c, 0, 47, 65
1, 1343408, Note_on_c, 0, 64, 61
1, 1343432, Note_off_c, 0, 48, 60
1, 1343488, Note_off_c, 0, 64, 54
1, 1343494, Note_on_c, 0, 67, 63
1, 1343604, Note_on_c, 0, 60, 68
1, 1343604, Note_on_c, 0, 65, 61
1, 1343621, Note_on_c, 0, 55, 51
1, 1343634, Note_off_c, 0, 60, 63
1, 1343634, Note_off_c, 0, 67, 37
1, 1343648, Note_off_c, 0, 55, 60
1, 1343682, Note_off_c, 0, 65, 59
1, 1343692, Note_on_c, 0, 64, 66
1, 1343773, Note_off_c, 0, 64, 62
1, 1343795, Note_on_c, 0, 65, 65
1, 1343802, Note_on_c, 0, 57, 66
1, 1343813, Note_on_c, 0, 60, 57
1, 1343843, Note_off_c, 0, 57, 60
1, 1343843, Note_off_c, 0, 60, 64
1, 1343890, Note_on_c, 0, 69, 64
1, 1343895, Note_off_c, 0, 65, 45
1, 1343989, Note_on_c, 0, 48, 72
1, 1343995, Note_on_c, 0, 67, 67
1, 1344017, Note_off_c, 0, 48, 64
1, 1344021, Note_off_c, 0, 69, 39
1, 1344087, Note_off_c, 0, 67, 50
1, 1344090, Note_on_c, 0, 65, 66
1, 1344093, Note_on_c, 0, 48, 74
1, 1344119, Note_off_c, 0, 48, 65
1, 1344156, Note_off_c, 0, 65, 62
1, 1344186, Note_on_c, 0, 48, 80
1, 1344188, Note_on_c, 0, 64, 63
1, 1344226, Note_off_c, 0, 48, 57
1, 1344268, Note_off_c, 0, 64, 61
1, 1344289, Note_on_c, 0, 67, 67
1, 1344363, Note_off_c, 0, 67, 46
1, 1344382, Note_on_c, 0, 72, 74
1, 1344382, Note_on_c, 0, 55, 63
1, 1344385, Note_on_c, 0, 60, 63
1, 1344415, Note_off_c, 0, 60, 64
1, 1344425, Note_off_c, 0, 55, 57
1, 1344426, Note_off_c, 0, 72, 64
1, 1344481, Note_on_c, 0, 76, 79
1, 1344555, Note_off_c, 0, 76, 55
1, 1344579, Note_on_c, 0, 79, 80
1, 1344580, Note_on_c, 0, 60, 69
1, 1344581, Note_on_c, 0, 64, 65
1, 1344607, Note_off_c, 0, 64, 68
1, 1344615, Note_off_c, 0, 60, 61
1, 1344671, Note_off_c, 0, 79, 62
1, 1344675, Note_on_c, 0, 81, 76
1, 1344758, Note_on_c, 0, 48, 72
1, 1344764, Note_off_c, 0, 81, 59
1, 1344770, Note_on_c, 0, 79, 77
1, 1344785, Note_off_c, 0, 48, 65
1, 1344857, Note_on_c, 0, 48, 78
1, 1344862, Note_off_c, 0, 79, 61
1, 1344862, Note_on_c, 0, 76, 76
1, 1344893, Note_off_c, 0, 76, 67
1, 1344894, Note_off_c, 0, 48, 61
1, 1344969, Note_on_c, 0, 67, 73
1, 1344971, Note_on_c, 0, 53, 75
1, 1345001, Note_off_c, 0, 53, 68
1, 1345056, Note_off_c, 0, 67, 57
1, 1345061, Note_on_c, 0, 71, 78
1, 1345139, Note_off_c, 0, 71, 54
1, 1345158, Note_on_c, 0, 62, 71
1, 1345161, Note_on_c, 0, 74, 74
1, 1345175, Note_on_c, 0, 59, 50
1, 1345190, Note_off_c, 0, 62, 62
1, 1345196, Control_c, 0, 67, 124
1, 1345203, Note_off_c, 0, 74, 62
1, 1345210, Control_c, 0, 67, 116
1, 1345211, Note_off_c, 0, 59, 63
1, 1345225, Control_c, 0, 67, 109
1, 1345240, Control_c, 0, 67, 103
1, 1345254, Control_c, 0, 67, 99
1, 1345259, Note_on_c, 0, 79, 81
1, 1345269, Control_c, 0, 67, 95
1, 1345284, Control_c, 0, 67, 92
1, 1345299, Control_c, 0, 67, 89
1, 1345314, Control_c, 0, 67, 87
1, 1345328, Control_c, 0, 67, 83
1, 1345343, Control_c, 0, 67, 79
1, 1345346, Note_on_c, 0, 67, 72
1, 1345349, Note_on_c, 0, 62, 71
1, 1345357, Note_on_c, 0, 83, 79
1, 1345358, Control_c, 0, 67, 74
1, 1345360, Note_off_c, 0, 79, 39
1, 1345372, Control_c, 0, 67, 69
1, 1345387, Note_off_c, 0, 67, 59
1, 1345387, Control_c, 0, 67, 64
1, 1345394, Note_off_c, 0, 62, 62
1, 1345402, Control_c, 0, 67, 59
1, 1345418, Control_c, 0, 67, 55
1, 1345433, Control_c, 0, 67, 50
1, 1345443, Note_on_c, 0, 84, 73
1, 1345443, Note_off_c, 0, 83, 61
1, 1345448, Control_c, 0, 67, 45
1, 1345463, Control_c, 0, 67, 39
1, 1345477, Control_c, 0, 67, 36
1, 1345492, Control_c, 0, 67, 35
1, 1345507, Control_c, 0, 67, 34
1, 1345535, Note_on_c, 0, 53, 76
1, 1345537, Control_c, 0, 67, 35
1, 1345544, Note_on_c, 0, 83, 74
1, 1345552, Note_off_c, 0, 84, 61
1, 1345558, Control_c, 0, 67, 36
1, 1345567, Note_off_c, 0, 53, 68
1, 1345573, Control_c, 0, 67, 38
1, 1345588, Control_c, 0, 67, 39
1, 1345603, Control_c, 0, 67, 40
1, 1345606, Note_off_c, 0, 83, 62
1, 1345618, Control_c, 0, 67, 40
1, 1345630, Note_on_c, 0, 53, 74
1, 1345632, Control_c, 0, 67, 41
1, 1345634, Note_on_c, 0, 79, 73
1, 1345657, Note_off_c, 0, 53, 67
1, 1345688, Note_off_c, 0, 79, 58
1, 1345739, Note_on_c, 0, 79, 72
1, 1345747, Note_on_c, 0, 52, 70
1, 1345750, Control_c, 0, 67, 41
1, 1345789, Note_off_c, 0, 52, 63
1, 1345828, Note_off_c, 0, 79, 60
1, 1345833, Note_on_c, 0, 81, 71
1, 1345879, Note_off_c, 0, 81, 60
1, 1345899, Control_c, 0, 67, 42
1, 1345915, Note_on_c, 0, 64, 63
1, 1345917, Note_on_c, 0, 67, 62
1, 1345923, Note_on_c, 0, 79, 74
1, 1345934, Note_off_c, 0, 64, 66
1, 1345939, Note_off_c, 0, 67, 64
1, 1345958, Control_c, 0, 67, 42
1, 1345973, Control_c, 0, 67, 43
1, 1345979, Note_off_c, 0, 79, 59
1, 1346008, Note_on_c, 0, 67, 77
1, 1346010, Note_on_c, 0, 64, 72
1, 1346010, Note_on_c, 0, 91, 85
1, 1346010, Note_on_c, 0, 88, 79
1, 1346032, Control_c, 0, 67, 43
1, 1346034, Note_off_c, 0, 64, 70
1, 1346049, Note_off_c, 0, 67, 58
1, 1346083, Note_off_c, 0, 88, 65
1, 1346084, Note_off_c, 0, 91, 58
1, 1346091, Control_c, 0, 67, 44
1, 1346112, Note_on_c, 0, 77, 75
1, 1346130, Note_on_c, 0, 53, 69
1, 1346162, Note_off_c, 0, 53, 67
1, 1346164, Note_off_c, 0, 77, 58
1, 1346165, Control_c, 0, 67, 44
1, 1346200, Note_on_c, 0, 79, 75
1, 1346240, Control_c, 0, 67, 45
1, 1346256, Note_off_c, 0, 79, 62
1, 1346270, Control_c, 0, 67, 45
1, 1346285, Control_c, 0, 67, 46
1, 1346286, Note_on_c, 0, 62, 64
1, 1346287, Note_on_c, 0, 77, 77
1, 1346291, Note_on_c, 0, 65, 56
1, 1346307, Control_c, 0, 67, 46
1, 1346318, Note_off_c, 0, 62, 65
1, 1346321, Note_off_c, 0, 65, 63
1, 1346322, Control_c, 0, 67, 47
1, 1346337, Control_c, 0, 67, 47
1, 1346352, Control_c, 0, 67, 48
1, 1346356, Note_off_c, 0, 77, 60
1, 1346367, Control_c, 0, 67, 48
1, 1346378, Note_on_c, 0, 89, 77
1, 1346381, Control_c, 0, 67, 49
1, 1346382, Note_on_c, 0, 62, 68
1, 1346385, Note_on_c, 0, 86, 79
1, 1346392, Note_on_c, 0, 65, 67
1, 1346409, Note_off_c, 0, 62, 63
1, 1346418, Note_off_c, 0, 65, 67
1, 1346425, Control_c, 0, 67, 49
1, 1346452, Note_off_c, 0, 89, 64
1, 1346455, Note_off_c, 0, 86, 62
1, 1346484, Note_on_c, 0, 76, 73
1, 1346503, Note_on_c, 0, 55, 60
1, 1346537, Note_off_c, 0, 55, 63
1, 1346552, Note_off_c, 0, 76, 60
1, 1346572, Note_on_c, 0, 77, 69
1, 1346630, Note_off_c, 0, 77, 61
1, 1346633, Control_c, 0, 67, 50
1, 1346656, Note_on_c, 0, 64, 54
1, 1346657, Note_on_c, 0, 60, 53
1, 1346660, Note_on_c, 0, 76, 71
1, 1346678, Control_c, 0, 67, 50
1, 1346680, Note_off_c, 0, 64, 61
1, 1346681, Note_off_c, 0, 60, 61
1, 1346692, Control_c, 0, 67, 51
1, 1346743, Note_off_c, 0, 76, 57
1, 1346762, Note_on_c, 0, 64, 57
1, 1346763, Note_on_c, 0, 88, 71
1, 1346767, Note_on_c, 0, 84, 70
1, 1346768, Note_on_c, 0, 60, 49
1, 1346781, Control_c, 0, 67, 50
1, 1346795, Note_off_c, 0, 60, 58
1, 1346795, Note_off_c, 0, 64, 63
1, 1346796, Control_c, 0, 67, 50
1, 1346825, Control_c, 0, 67, 49
1, 1346840, Control_c, 0, 67, 49
1, 1346870, Control_c, 0, 67, 48
1, 1346885, Control_c, 0, 67, 48
1, 1346929, Control_c, 0, 64, 28
1, 1346936, Note_on_c, 0, 83, 66
1, 1346940, Note_on_c, 0, 53, 33
1, 1346944, Control_c, 0, 64, 46
1, 1346959, Control_c, 0, 64, 53
1, 1346973, Control_c, 0, 64, 58
1, 1346988, Control_c, 0, 64, 62
1, 1346996, Note_off_c, 0, 88, 51
1, 1346997, Note_off_c, 0, 84, 51
1, 1347003, Control_c, 0, 64, 65
1, 1347019, Control_c, 0, 64, 67
1, 1347019, Control_c, 0, 67, 48
1, 1347034, Control_c, 0, 64, 69
1, 1347034, Control_c, 0, 67, 49
1, 1347056, Control_c, 0, 64, 71
1, 1347071, Control_c, 0, 64, 72
1, 1347071, Control_c, 0, 67, 49
1, 1347075, Note_on_c, 0, 81, 66
1, 1347101, Control_c, 0, 67, 50
1, 1347101, Note_off_c, 0, 53, 44
1, 1347109, Note_off_c, 0, 83, 51
1, 1347145, Control_c, 0, 67, 50
1, 1347163, Note_on_c, 0, 57, 44
1, 1347163, Note_on_c, 0, 62, 50
1, 1347163, Note_off_c, 0, 81, 62
1, 1347172, Note_on_c, 0, 60, 38
1, 1347175, Control_c, 0, 67, 51
1, 1347187, Note_on_c, 0, 77, 64
1, 1347208, Note_off_c, 0, 60, 62
1, 1347223, Note_off_c, 0, 57, 57
1, 1347223, Note_off_c, 0, 62, 51
1, 1347224, Note_off_c, 0, 77, 59
1, 1347281, Note_on_c, 0, 74, 62
1, 1347308, Control_c, 0, 64, 71
1, 1347322, Control_c, 0, 64, 69
1, 1347322, Control_c, 0, 67, 50
1, 1347337, Control_c, 0, 64, 60
1, 1347348, Note_off_c, 0, 74, 64
1, 1347352, Control_c, 0, 64, 0
1, 1347352, Control_c, 0, 67, 49
1, 1347367, Control_c, 0, 67, 48
1, 1347379, Note_on_c, 0, 52, 56
1, 1347382, Control_c, 0, 67, 47
1, 1347384, Note_on_c, 0, 72, 64
1, 1347396, Control_c, 0, 67, 47
1, 1347426, Control_c, 0, 64, 39
1, 1347441, Control_c, 0, 64, 63
1, 1347441, Control_c, 0, 67, 48
1, 1347456, Control_c, 0, 64, 69
1, 1347456, Control_c, 0, 67, 48
1, 1347470, Control_c, 0, 64, 73
1, 1347470, Control_c, 0, 67, 49
1, 1347485, Control_c, 0, 64, 74
1, 1347485, Control_c, 0, 67, 49
1, 1347491, Note_on_c, 0, 74, 61
1, 1347500, Control_c, 0, 64, 75
1, 1347510, Note_off_c, 0, 72, 56
1, 1347520, Note_off_c, 0, 52, 36
1, 1347575, Control_c, 0, 67, 50
1, 1347592, Note_on_c, 0, 64, 48
1, 1347600, Note_on_c, 0, 57, 36
1, 1347605, Note_on_c, 0, 76, 69
1, 1347608, Note_off_c, 0, 74, 63
1, 1347611, Note_on_c, 0, 60, 39
1, 1347619, Control_c, 0, 67, 50
1, 1347695, Note_off_c, 0, 76, 61
1, 1347713, Note_on_c, 0, 77, 61
1, 1347781, Control_c, 0, 67, 50
1, 1347805, Note_off_c, 0, 77, 61
1, 1347821, Note_on_c, 0, 76, 68
1, 1347850, Note_off_c, 0, 60, 61
1, 1347894, Note_off_c, 0, 76, 62
1, 1347894, Note_off_c, 0, 64, 57
1, 1347920, Note_on_c, 0, 77, 59
1, 1347924, Control_c, 0, 64, 74
1, 1347930, Note_off_c, 0, 57, 47
1, 1347983, Control_c, 0, 64, 74
1, 1348013, Control_c, 0, 67, 50
1, 1348018, Note_off_c, 0, 77, 54
1, 1348019, Note_on_c, 0, 76, 58
1, 1348022, Note_on_c, 0, 64, 58
1, 1348026, Note_on_c, 0, 56, 46
1, 1348028, Control_c, 0, 64, 73
1, 1348031, Note_on_c, 0, 59, 36
1, 1348043, Control_c, 0, 67, 51
1, 1348060, Note_off_c, 0, 64, 64
1, 1348064, Note_off_c, 0, 56, 62
1, 1348064, Note_off_c, 0, 59, 51
1, 1348071, Note_off_c, 0, 76, 61
1, 1348087, Control_c, 0, 64, 73
1, 1348102, Control_c, 0, 64, 71
1, 1348102, Control_c, 0, 67, 50
1, 1348108, Note_on_c, 0, 75, 59
1, 1348117, Control_c, 0, 64, 63
1, 1348117, Control_c, 0, 67, 49
1, 1348132, Control_c, 0, 64, 0
1, 1348132, Control_c, 0, 67, 48
1, 1348146, Control_c, 0, 67, 48
1, 1348161, Control_c, 0, 67, 47
1, 1348176, Control_c, 0, 67, 47
1, 1348177, Note_off_c, 0, 75, 65
1, 1348190, Control_c, 0, 64, 43
1, 1348205, Control_c, 0, 64, 69
1, 1348212, Note_on_c, 0, 76, 55
1, 1348217, Note_on_c, 0, 48, 64
1, 1348220, Control_c, 0, 64, 72
1, 1348220, Control_c, 0, 67, 47
1, 1348235, Control_c, 0, 64, 70
1, 1348235, Control_c, 0, 67, 48
1, 1348247, Note_off_c, 0, 48, 64
1, 1348250, Control_c, 0, 64, 65
1, 1348250, Control_c, 0, 67, 48
1, 1348264, Control_c, 0, 64, 60
1, 1348274, Note_off_c, 0, 76, 51
1, 1348279, Control_c, 0, 64, 48
1, 1348294, Control_c, 0, 64, 0
1, 1348316, Note_on_c, 0, 77, 44
1, 1348368, Control_c, 0, 64, 10
1, 1348368, Control_c, 0, 67, 49
1, 1348374, Note_off_c, 0, 77, 48
1, 1348383, Control_c, 0, 64, 15
1, 1348398, Control_c, 0, 64, 17
1, 1348398, Note_on_c, 0, 60, 60
1, 1348399, Note_on_c, 0, 76, 67
1, 1348408, Note_on_c, 0, 55, 48
1, 1348418, Note_on_c, 0, 64, 37
1, 1348424, Note_off_c, 0, 60, 64
1, 1348434, Note_off_c, 0, 55, 59
1, 1348449, Note_off_c, 0, 64, 53
1, 1348457, Control_c, 0, 67, 48
1, 1348487, Control_c, 0, 64, 18
1, 1348490, Note_off_c, 0, 76, 54
1, 1348496, Note_on_c, 0, 60, 61
1, 1348498, Note_on_c, 0, 84, 66
1, 1348502, Control_c, 0, 64, 19
1, 1348506, Note_on_c, 0, 64, 57
1, 1348509, Note_on_c, 0, 55, 61
1, 1348517, Control_c, 0, 64, 20
1, 1348517, Control_c, 0, 67, 48
1, 1348526, Note_off_c, 0, 60, 65
1, 1348527, Note_off_c, 0, 64, 64
1, 1348532, Note_off_c, 0, 55, 65
1, 1348532, Control_c, 0, 64, 21
1, 1348567, Control_c, 0, 64, 20
1, 1348582, Control_c, 0, 64, 18
1, 1348582, Control_c, 0, 67, 47
1, 1348597, Note_off_c, 0, 84, 63
1, 1348600, Note_on_c, 0, 83, 78
1, 1348613, Note_on_c, 0, 53, 64
1, 1348657, Control_c, 0, 64, 19
1, 1348666, Note_off_c, 0, 53, 61
1, 1348672, Control_c, 0, 64, 20
1, 1348700, Note_on_c, 0, 81, 76
1, 1348726, Note_off_c, 0, 83, 53
1, 1348731, Control_c, 0, 67, 47
1, 1348746, Control_c, 0, 64, 19
1, 1348790, Control_c, 0, 64, 20
1, 1348794, Note_off_c, 0, 81, 61
1, 1348796, Note_on_c, 0, 77, 77
1, 1348797, Note_on_c, 0, 62, 57
1, 1348797, Note_on_c, 0, 57, 59
1, 1348803, Note_on_c, 0, 60, 45
1, 1348829, Note_off_c, 0, 60, 58
1, 1348834, Note_off_c, 0, 62, 59
1, 1348841, Note_off_c, 0, 57, 60
1, 1348849, Control_c, 0, 64, 22
1, 1348858, Note_off_c, 0, 77, 62
1, 1348864, Control_c, 0, 64, 24
1, 1348864, Control_c, 0, 67, 46
1, 1348879, Control_c, 0, 64, 28
1, 1348890, Note_on_c, 0, 74, 68
1, 1348893, Control_c, 0, 64, 29
1, 1348893, Control_c, 0, 67, 46
1, 1348908, Control_c, 0, 64, 31
1, 1348908, Control_c, 0, 67, 45
1, 1348923, Control_c, 0, 64, 31
1, 1348923, Control_c, 0, 67, 45
1, 1348938, Control_c, 0, 67, 44
1, 1348953, Control_c, 0, 64, 31
1, 1348953, Control_c, 0, 67, 44
1, 1348967, Control_c, 0, 64, 29
1, 1348967, Control_c, 0, 67, 43
1, 1348969, Note_off_c, 0, 74, 58
1, 1348982, Control_c, 0, 64, 28
1, 1348982, Control_c, 0, 67, 43
1, 1348986, Note_on_c, 0, 72, 73
1, 1348996, Note_on_c, 0, 52, 64
1, 1348997, Control_c, 0, 64, 26
1, 1348997, Control_c, 0, 67, 42
1, 1349012, Control_c, 0, 64, 25
1, 1349012, Control_c, 0, 67, 42
1, 1349026, Note_off_c, 0, 52, 66
1, 1349041, Control_c, 0, 64, 24
1, 1349056, Control_c, 0, 64, 26
1, 1349056, Control_c, 0, 67, 41
1, 1349071, Control_c, 0, 64, 27
1, 1349072, Note_on_c, 0, 74, 73
1, 1349076, Note_off_c, 0, 72, 64
1, 1349086, Control_c, 0, 64, 28
1, 1349101, Control_c, 0, 64, 29
1, 1349116, Control_c, 0, 64, 30
1, 1349125, Note_off_c, 0, 74, 64
1, 1349131, Control_c, 0, 64, 31
1, 1349146, Control_c, 0, 64, 31
1, 1349160, Control_c, 0, 64, 33
1, 1349168, Note_on_c, 0, 67, 64
1, 1349173, Note_on_c, 0, 72, 72
1, 1349175, Control_c, 0, 64, 34
1, 1349176, Note_on_c, 0, 60, 60
1, 1349180, Note_on_c, 0, 64, 47
1, 1349190, Control_c, 0, 64, 35
1, 1349194, Note_off_c, 0, 67, 68
1, 1349205, Control_c, 0, 64, 36
1, 1349205, Note_off_c, 0, 64, 60
1, 1349208, Note_off_c, 0, 72, 60
1, 1349209, Note_off_c, 0, 60, 62
1, 1349219, Control_c, 0, 64, 36
1, 1349234, Control_c, 0, 67, 41
1, 1349259, Note_on_c, 0, 88, 86
1, 1349266, Note_on_c, 0, 60, 63
1, 1349270, Note_on_c, 0, 67, 70
1, 1349279, Control_c, 0, 67, 40
1, 1349301, Control_c, 0, 67, 39
1, 1349303, Note_off_c, 0, 60, 64
1, 1349303, Note_off_c, 0, 67, 62
1, 1349316, Control_c, 0, 67, 38
1, 1349331, Control_c, 0, 67, 37
1, 1349345, Control_c, 0, 64, 36
1, 1349345, Control_c, 0, 67, 36
1, 1349354, Note_off_c, 0, 88, 53
1, 1349360, Control_c, 0, 67, 35
1, 1349371, Note_on_c, 0, 86, 94
1, 1349375, Control_c, 0, 67, 33
1, 1349387, Note_on_c, 0, 57, 73
1, 1349390, Control_c, 0, 64, 35
1, 1349390, Control_c, 0, 67, 30
1, 1349405, Control_c, 0, 64, 36
1, 1349405, Control_c, 0, 67, 28
1, 1349420, Control_c, 0, 64, 36
1, 1349420, Control_c, 0, 67, 26
1, 1349435, Control_c, 0, 67, 24
1, 1349438, Note_off_c, 0, 57, 63
1, 1349450, Control_c, 0, 64, 38
1, 1349450, Control_c, 0, 67, 22
1, 1349465, Control_c, 0, 64, 39
1, 1349465, Control_c, 0, 67, 21
1, 1349468, Note_on_c, 0, 84, 88
1, 1349480, Control_c, 0, 64, 41
1, 1349480, Control_c, 0, 67, 21
1, 1349494, Control_c, 0, 64, 41
1, 1349494, Control_c, 0, 67, 20
1, 1349508, Note_off_c, 0, 86, 54
1, 1349509, Control_c, 0, 64, 42
1, 1349509, Control_c, 0, 67, 19
1, 1349524, Control_c, 0, 64, 43
1, 1349524, Control_c, 0, 67, 19
1, 1349539, Control_c, 0, 64, 44
1, 1349544, Note_off_c, 0, 84, 64
1, 1349554, Control_c, 0, 64, 45
1, 1349561, Note_on_c, 0, 62, 63
1, 1349565, Note_on_c, 0, 66, 71
1, 1349566, Note_on_c, 0, 81, 81
1, 1349569, Control_c, 0, 64, 46
1, 1349574, Note_on_c, 0, 60, 63
1, 1349598, Note_off_c, 0, 62, 61
1, 1349598, Control_c, 0, 67, 18
1, 1349602, Note_off_c, 0, 66, 60
1, 1349628, Note_off_c, 0, 60, 60
1, 1349628, Control_c, 0, 67, 17
1, 1349642, Control_c, 0, 67, 17
1, 1349656, Note_on_c, 0, 78, 79
1, 1349657, Control_c, 0, 64, 45
1, 1349657, Control_c, 0, 67, 15
1, 1349661, Note_off_c, 0, 81, 60
1, 1349672, Control_c, 0, 64, 44
1, 1349672, Control_c, 0, 67, 13
1, 1349687, Control_c, 0, 64, 42
1, 1349687, Control_c, 0, 67, 10
1, 1349702, Control_c, 0, 64, 40
1, 1349702, Control_c, 0, 67, 0
1, 1349716, Control_c, 0, 64, 36
1, 1349720, Note_off_c, 0, 78, 64
1, 1349731, Control_c, 0, 64, 33
1, 1349746, Control_c, 0, 64, 31
1, 1349751, Note_on_c, 0, 79, 71
1, 1349759, Note_on_c, 0, 55, 74
1, 1349761, Control_c, 0, 64, 29
1, 1349776, Control_c, 0, 64, 28
1, 1349805, Control_c, 0, 64, 27
1, 1349812, Note_off_c, 0, 55, 59
1, 1349820, Note_off_c, 0, 79, 58
1, 1349820, Control_c, 0, 64, 25
1, 1349835, Control_c, 0, 64, 23
1, 1349844, Note_on_c, 0, 81, 76
1, 1349849, Control_c, 0, 64, 22
1, 1349864, Control_c, 0, 64, 21
1, 1349894, Control_c, 0, 64, 20
1, 1349907, Note_off_c, 0, 81, 61
1, 1349924, Control_c, 0, 64, 22
1, 1349927, Note_on_c, 0, 67, 64
1, 1349927, Note_on_c, 0, 64, 63
1, 1349935, Note_on_c, 0, 79, 78
1, 1349939, Control_c, 0, 64, 24
1, 1349945, Note_on_c, 0, 60, 52
1, 1349954, Control_c, 0, 64, 26
1, 1349957, Note_off_c, 0, 67, 64
1, 1349960, Note_off_c, 0, 64, 63
1, 1349968, Note_off_c, 0, 60, 59
1, 1349968, Control_c, 0, 64, 28
1, 1349983, Control_c, 0, 64, 29
1, 1349998, Control_c, 0, 64, 29
1, 1350013, Control_c, 0, 64, 30
1, 1350016, Note_off_c, 0, 79, 59
1, 1350029, Note_on_c, 0, 91, 88
1, 1350033, Note_on_c, 0, 67, 70
1, 1350034, Note_on_c, 0, 64, 63
1, 1350049, Note_on_c, 0, 60, 61
1, 1350068, Note_off_c, 0, 64, 66
1, 1350071, Note_off_c, 0, 67, 61
1, 1350082, Note_off_c, 0, 60, 64
1, 1350126, Note_off_c, 0, 91, 56
1, 1350139, Note_on_c, 0, 89, 93
1, 1350150, Note_on_c, 0, 55, 70
1, 1350168, Control_c, 0, 64, 31
1, 1350216, Note_off_c, 0, 55, 62
1, 1350235, Note_on_c, 0, 88, 87
1, 1350243, Control_c, 0, 64, 31
1, 1350281, Note_off_c, 0, 89, 60
1, 1350287, Control_c, 0, 64, 32
1, 1350302, Control_c, 0, 64, 32
1, 1350317, Control_c, 0, 64, 33
1, 1350328, Note_on_c, 0, 86, 92
1, 1350332, Control_c, 0, 64, 34
1, 1350335, Note_off_c, 0, 88, 61
1, 1350337, Note_on_c, 0, 59, 69
1, 1350337, Note_on_c, 0, 65, 63
1, 1350338, Note_on_c, 0, 67, 59
1, 1350347, Control_c, 0, 64, 35
1, 1350362, Control_c, 0, 64, 35
1, 1350367, Note_off_c, 0, 67, 65
1, 1350371, Note_off_c, 0, 65, 63
1, 1350386, Note_off_c, 0, 59, 63
1, 1350419, Note_on_c, 0, 88, 84
1, 1350421, Control_c, 0, 64, 35
1, 1350435, Note_off_c, 0, 86, 62
1, 1350436, Control_c, 0, 64, 34
1, 1350451, Control_c, 0, 64, 34
1, 1350465, Control_c, 0, 64, 33
1, 1350480, Control_c, 0, 64, 33
1, 1350510, Control_c, 0, 64, 32
1, 1350516, Note_off_c, 0, 88, 63
1, 1350518, Note_on_c, 0, 84, 84
1, 1350519, Note_on_c, 0, 48, 78
1, 1350525, Control_c, 0, 64, 32
1, 1350539, Control_c, 0, 64, 31
1, 1350554, Control_c, 0, 64, 29
1, 1350556, Note_off_c, 0, 84, 66
1, 1350569, Control_c, 0, 64, 28
1, 1350584, Control_c, 0, 64, 26
1, 1350598, Control_c, 0, 64, 26
1, 1350604, Note_on_c, 0, 50, 85
1, 1350612, Note_off_c, 0, 48, 62
1, 1350613, Control_c, 0, 64, 25
1, 1350628, Control_c, 0, 64, 24
1, 1350643, Control_c, 0, 64, 23
1, 1350672, Control_c, 0, 64, 23
1, 1350687, Control_c, 0, 64, 22
1, 1350696, Note_off_c, 0, 50, 59
1, 1350714, Note_on_c, 0, 48, 83
1, 1350717, Note_on_c, 0, 72, 81
1, 1350718, Note_on_c, 0, 79, 81
1, 1350723, Note_on_c, 0, 76, 75
1, 1350746, Control_c, 0, 64, 21
1, 1350761, Control_c, 0, 64, 20
1, 1350762, Note_off_c, 0, 76, 60
1, 1350764, Note_off_c, 0, 72, 65
1, 1350776, Note_off_c, 0, 79, 57
1, 1350776, Control_c, 0, 64, 15
1, 1350797, Note_off_c, 0, 48, 61
1, 1350798, Control_c, 0, 64, 10
1, 1350813, Control_c, 0, 64, 8
1, 1350821, Note_on_c, 0, 60, 82
1, 1350872, Control_c, 0, 64, 12
1, 1350887, Control_c, 0, 64, 17
1, 1350902, Control_c, 0, 64, 19
1, 1350917, Control_c, 0, 64, 21
1, 1350922, Note_on_c, 0, 77, 89
1, 1350924, Note_on_c, 0, 62, 79
1, 1350924, Note_off_c, 0, 60, 58
1, 1350928, Note_on_c, 0, 69, 83
1, 1350928, Note_on_c, 0, 72, 75
1, 1350932, Control_c, 0, 64, 22
1, 1350952, Note_off_c, 0, 72, 69
1, 1350982, Note_off_c, 0, 62, 62
1, 1350982, Note_off_c, 0, 69, 64
1, 1350991, Control_c, 0, 64, 23
1, 1351000, Note_off_c, 0, 77, 61
1, 1351027, Note_on_c, 0, 60, 72
1, 1351081, Control_c, 0, 64, 22
1, 1351104, Note_off_c, 0, 60, 55
1, 1351122, Note_on_c, 0, 81, 84
1, 1351125, Note_on_c, 0, 72, 79
1, 1351128, Note_on_c, 0, 57, 76
1, 1351131, Note_on_c, 0, 77, 76
1, 1351152, Note_off_c, 0, 72, 65
1, 1351156, Note_off_c, 0, 77, 64
1, 1351162, Note_off_c, 0, 81, 56
1, 1351186, Note_off_c, 0, 57, 60
1, 1351208, Note_on_c, 0, 81, 77
1, 1351209, Note_on_c, 0, 77, 80
1, 1351217, Note_on_c, 0, 72, 74
1, 1351223, Note_on_c, 0, 53, 76
1, 1351238, Note_off_c, 0, 72, 72
1, 1351247, Note_off_c, 0, 81, 57
1, 1351253, Note_off_c, 0, 77, 62
1, 1351259, Control_c, 0, 64, 23
1, 1351288, Control_c, 0, 64, 23
1, 1351296, Note_off_c, 0, 53, 65
1, 1351303, Control_c, 0, 64, 24
1, 1351318, Note_on_c, 0, 72, 85
1, 1351319, Note_on_c, 0, 79, 88
1, 1351327, Note_on_c, 0, 48, 66
1, 1351328, Note_on_c, 0, 76, 75
1, 1351333, Control_c, 0, 64, 25
1, 1351352, Note_off_c, 0, 76, 66
1, 1351365, Note_off_c, 0, 72, 63
1, 1351387, Note_off_c, 0, 79, 61
1, 1351411, Note_off_c, 0, 48, 61
1, 1351411, Note_on_c, 0, 50, 77
1, 1351421, Control_c, 0, 64, 24
1, 1351451, Control_c, 0, 64, 23
1, 1351466, Control_c, 0, 64, 23
1, 1351519, Note_on_c, 0, 84, 86
1, 1351521, Note_on_c, 0, 76, 80
1, 1351524, Note_on_c, 0, 48, 80
1, 1351524, Note_off_c, 0, 50, 58
1, 1351525, Control_c, 0, 64, 23
1, 1351527, Note_on_c, 0, 79, 70
1, 1351548, Control_c, 0, 64, 26
1, 1351561, Note_off_c, 0, 79, 63
1, 1351563, Control_c, 0, 64, 26
1, 1351577, Note_off_c, 0, 76, 64
1, 1351577, Control_c, 0, 64, 28
1, 1351582, Note_off_c, 0, 84, 61
1, 1351592, Control_c, 0, 64, 28
1, 1351596, Note_off_c, 0, 48, 61
1, 1351617, Note_on_c, 0, 55, 72
1, 1351651, Control_c, 0, 64, 27
1, 1351666, Control_c, 0, 64, 26
1, 1351695, Control_c, 0, 64, 26
1, 1351708, Note_off_c, 0, 55, 57
1, 1351718, Note_on_c, 0, 83, 84
1, 1351720, Note_on_c, 0, 79, 85
1, 1351721, Note_on_c, 0, 57, 75
1, 1351721, Note_on_c, 0, 74, 77
1, 1351725, Control_c, 0, 64, 25
1, 1351739, Control_c, 0, 64, 24
1, 1351769, Control_c, 0, 64, 23
1, 1351778, Note_off_c, 0, 57, 63
1, 1351784, Note_off_c, 0, 74, 61
1, 1351791, Note_off_c, 0, 79, 58
1, 1351799, Control_c, 0, 64, 24
1, 1351804, Note_off_c, 0, 83, 59
1, 1351815, Note_on_c, 0, 55, 76
1, 1351844, Control_c, 0, 64, 23
1, 1351859, Control_c, 0, 64, 23
1, 1351874, Control_c, 0, 64, 22
1, 1351885, Note_off_c, 0, 55, 60
1, 1351889, Control_c, 0, 64, 21
1, 1351912, Note_on_c, 0, 43, 78
1, 1351916, Note_on_c, 0, 77, 89
1, 1351919, Note_on_c, 0, 86, 84
1, 1351923, Note_on_c, 0, 79, 77
1, 1351933, Control_c, 0, 64, 22
1, 1351943, Note_off_c, 0, 79, 69
1, 1351948, Control_c, 0, 64, 23
1, 1351958, Note_off_c, 0, 77, 60
1, 1351959, Note_off_c, 0, 86, 60
1, 1351963, Control_c, 0, 64, 24
1, 1351978, Control_c, 0, 64, 26
1, 1351992, Control_c, 0, 64, 26
1, 1352002, Note_on_c, 0, 86, 66
1, 1352007, Control_c, 0, 64, 27
1, 1352010, Note_on_c, 0, 47, 79
1, 1352014, Note_on_c, 0, 77, 54
1, 1352015, Note_on_c, 0, 79, 66
1, 1352019, Note_off_c, 0, 43, 62
1, 1352033, Note_off_c, 0, 79, 64
1, 1352036, Note_off_c, 0, 77, 59
1, 1352070, Note_off_c, 0, 86, 52
1, 1352102, Note_on_c, 0, 79, 70
1, 1352103, Note_off_c, 0, 47, 63
1, 1352109, Note_on_c, 0, 84, 71
1, 1352111, Control_c, 0, 64, 26
1, 1352117, Note_on_c, 0, 48, 71
1, 1352121, Note_on_c, 0, 76, 61
1, 1352126, Control_c, 0, 64, 25
1, 1352131, Note_off_c, 0, 79, 61
1, 1352141, Control_c, 0, 64, 22
1, 1352146, Note_off_c, 0, 84, 60
1, 1352156, Control_c, 0, 64, 18
1, 1352171, Control_c, 0, 64, 14
1, 1352179, Note_off_c, 0, 76, 61
1, 1352185, Control_c, 0, 64, 8
1, 1352189, Note_off_c, 0, 48, 62
1, 1352200, Control_c, 0, 64, 0
1, 1352213, Note_on_c, 0, 50, 62
1, 1352246, Note_off_c, 0, 50, 64
1, 1352320, Note_on_c, 0, 79, 62
1, 1352320, Note_on_c, 0, 76, 58
1, 1352326, Note_on_c, 0, 72, 59
1, 1352331, Note_on_c, 0, 48, 58
1, 1352347, Note_off_c, 0, 76, 65
1, 1352372, Note_off_c, 0, 79, 53
1, 1352374, Note_off_c, 0, 72, 63
1, 1352383, Note_off_c, 0, 48, 59
1, 1352385, Control_c, 0, 67, 11
1, 1352400, Control_c, 0, 67, 14
1, 1352415, Control_c, 0, 67, 15
1, 1352430, Control_c, 0, 67, 16
1, 1352434, Note_on_c, 0, 60, 62
1, 1352444, Control_c, 0, 67, 17
1, 1352459, Control_c, 0, 67, 18
1, 1352474, Control_c, 0, 67, 21
1, 1352489, Control_c, 0, 67, 23
1, 1352504, Control_c, 0, 67, 24
1, 1352518, Control_c, 0, 64, 39
1, 1352533, Control_c, 0, 64, 61
1, 1352533, Control_c, 0, 67, 24
1, 1352547, Note_off_c, 0, 60, 62
1, 1352548, Control_c, 0, 64, 61
1, 1352556, Note_on_c, 0, 77, 59
1, 1352557, Note_on_c, 0, 68, 54
1, 1352560, Note_on_c, 0, 62, 56
1, 1352562, Control_c, 0, 64, 51
1, 1352562, Control_c, 0, 67, 25
1, 1352566, Note_on_c, 0, 72, 52
1, 1352577, Control_c, 0, 64, 12
1, 1352577, Control_c, 0, 67, 25
1, 1352592, Control_c, 0, 64, 0
1, 1352592, Control_c, 0, 67, 27
1, 1352607, Control_c, 0, 67, 29
1, 1352610, Note_off_c, 0, 72, 60
1, 1352616, Note_off_c, 0, 68, 61
1, 1352620, Note_off_c, 0, 62, 60
1, 1352623, Control_c, 0, 67, 31
1, 1352638, Control_c, 0, 67, 33
1, 1352639, Note_off_c, 0, 77, 61
1, 1352653, Control_c, 0, 67, 34
1, 1352667, Control_c, 0, 67, 35
1, 1352672, Note_on_c, 0, 60, 52
1, 1352682, Control_c, 0, 67, 37
1, 1352697, Control_c, 0, 67, 39
1, 1352712, Control_c, 0, 67, 40
1, 1352725, Note_off_c, 0, 60, 48
1, 1352727, Control_c, 0, 67, 42
1, 1352741, Control_c, 0, 67, 47
1, 1352755, Note_on_c, 0, 80, 70
1, 1352756, Control_c, 0, 67, 51
1, 1352759, Note_on_c, 0, 72, 69
1, 1352768, Note_on_c, 0, 56, 61
1, 1352771, Control_c, 0, 67, 54
1, 1352783, Note_off_c, 0, 80, 60
1, 1352786, Note_on_c, 0, 77, 47
1, 1352786, Control_c, 0, 67, 58
1, 1352789, Note_off_c, 0, 72, 62
1, 1352800, Control_c, 0, 67, 61
1, 1352811, Note_off_c, 0, 77, 51
1, 1352815, Control_c, 0, 67, 65
1, 1352830, Control_c, 0, 67, 69
1, 1352845, Control_c, 0, 67, 72
1, 1352848, Note_off_c, 0, 56, 51
1, 1352853, Note_on_c, 0, 80, 75
1, 1352860, Control_c, 0, 67, 75
1, 1352861, Note_on_c, 0, 72, 52
1, 1352868, Note_on_c, 0, 53, 64
1, 1352875, Control_c, 0, 67, 79
1, 1352884, Note_off_c, 0, 72, 59
1, 1352887, Note_off_c, 0, 80, 53
1, 1352890, Control_c, 0, 67, 81
1, 1352905, Control_c, 0, 67, 83
1, 1352914, Note_off_c, 0, 53, 60
1, 1352920, Control_c, 0, 67, 84
1, 1352934, Control_c, 0, 67, 85
1, 1352949, Control_c, 0, 67, 86
1, 1352960, Note_on_c, 0, 72, 63
1, 1352964, Note_on_c, 0, 79, 70
1, 1352964, Control_c, 0, 67, 86
1, 1352974, Note_on_c, 0, 48, 54
1, 1352979, Control_c, 0, 67, 87
1, 1352985, Note_on_c, 0, 76, 41
1, 1352990, Note_off_c, 0, 72, 63
1, 1352993, Control_c, 0, 67, 88
1, 1353008, Control_c, 0, 67, 89
1, 1353014, Note_off_c, 0, 76, 51
1, 1353021, Note_off_c, 0, 79, 62
1, 1353023, Control_c, 0, 67, 89
1, 1353045, Note_off_c, 0, 48, 60
1, 1353045, Control_c, 0, 67, 90
1, 1353060, Control_c, 0, 67, 91
1, 1353061, Note_on_c, 0, 50, 66
1, 1353075, Control_c, 0, 67, 92
1, 1353089, Control_c, 0, 67, 94
1, 1353104, Control_c, 0, 67, 96
1, 1353119, Control_c, 0, 67, 98
1, 1353134, Control_c, 0, 67, 102
1, 1353149, Control_c, 0, 67, 107
1, 1353161, Note_off_c, 0, 50, 58
1, 1353164, Control_c, 0, 67, 113
1, 1353167, Note_on_c, 0, 84, 72
1, 1353173, Note_on_c, 0, 48, 62
1, 1353178, Note_on_c, 0, 79, 49
1, 1353179, Control_c, 0, 67, 118
1, 1353179, Note_on_c, 0, 76, 52
1, 1353193, Control_c, 0, 67, 122
1, 1353208, Control_c, 0, 67, 125
1, 1353213, Note_off_c, 0, 79, 52
1, 1353218, Note_off_c, 0, 76, 63
1, 1353223, Control_c, 0, 67, 126
1, 1353229, Note_off_c, 0, 84, 62
1, 1353236, Note_off_c, 0, 48, 61
1, 1353238, Control_c, 0, 67, 127
1, 1353267, Note_on_c, 0, 55, 55
1, 1353356, Control_c, 0, 67, 126
1, 1353363, Note_off_c, 0, 55, 47
1, 1353371, Control_c, 0, 67, 126
1, 1353375, Note_on_c, 0, 83, 62
1, 1353387, Note_on_c, 0, 57, 55
1, 1353394, Note_on_c, 0, 74, 37
1, 1353408, Note_on_c, 0, 79, 44
1, 1353416, Control_c, 0, 67, 125
1, 1353431, Control_c, 0, 67, 125
1, 1353434, Note_off_c, 0, 74, 53
1, 1353440, Note_off_c, 0, 57, 60
1, 1353444, Note_off_c, 0, 83, 61
1, 1353446, Control_c, 0, 67, 124
1, 1353461, Control_c, 0, 67, 124
1, 1353473, Note_off_c, 0, 79, 52
1, 1353476, Control_c, 0, 67, 123
1, 1353486, Note_on_c, 0, 55, 59
1, 1353490, Control_c, 0, 67, 123
1, 1353525, Note_off_c, 0, 55, 63
1, 1353550, Control_c, 0, 67, 122
1, 1353579, Note_on_c, 0, 77, 67
1, 1353582, Note_on_c, 0, 86, 63
1, 1353585, Note_on_c, 0, 79, 53
1, 1353587, Note_on_c, 0, 43, 62
1, 1353594, Control_c, 0, 67, 122
1, 1353605, Note_off_c, 0, 79, 60
1, 1353606, Note_off_c, 0, 86, 62
1, 1353607, Note_off_c, 0, 77, 63
1, 1353623, Control_c, 0, 67, 121
1, 1353653, Control_c, 0, 67, 121
1, 1353667, Note_on_c, 0, 47, 71
1, 1353671, Note_off_c, 0, 43, 59
1, 1353675, Note_on_c, 0, 86, 63
1, 1353677, Note_on_c, 0, 79, 50
1, 1353701, Note_off_c, 0, 79, 39
1, 1353712, Control_c, 0, 67, 120
1, 1353715, Note_off_c, 0, 86, 56
1, 1353727, Control_c, 0, 67, 120
1, 1353757, Note_on_c, 0, 84, 72
1, 1353759, Note_off_c, 0, 47, 65
1, 1353768, Note_on_c, 0, 48, 69
1, 1353768, Note_on_c, 0, 79, 61
1, 1353777, Note_on_c, 0, 76, 57
1, 1353793, Note_off_c, 0, 84, 65
1, 1353794, Control_c, 0, 67, 119
1, 1353796, Note_off_c, 0, 79, 64
1, 1353808, Control_c, 0, 67, 119
1, 1353823, Control_c, 0, 67, 118
1, 1353829, Note_off_c, 0, 76, 64
1, 1353838, Note_off_c, 0, 48, 62
1, 1353838, Control_c, 0, 67, 118
1, 1353853, Control_c, 0, 67, 117
1, 1353859, Note_on_c, 0, 50, 68
1, 1353868, Control_c, 0, 67, 117
1, 1353891, Note_off_c, 0, 50, 65
1, 1353964, Note_on_c, 0, 72, 70
1, 1353968, Note_on_c, 0, 48, 68
1, 1353971, Note_on_c, 0, 64, 61
1, 1353987, Control_c, 0, 67, 117
1, 1353987, Note_on_c, 0, 67, 44
1, 1354002, Control_c, 0, 67, 118
1, 1354025, Note_off_c, 0, 64, 56
1, 1354029, Note_off_c, 0, 48, 60
1, 1354032, Note_off_c, 0, 67, 58
1, 1354035, Note_off_c, 0, 72, 61
1, 1354069, Note_on_c, 0, 60, 65
1, 1354134, Control_c, 0, 64, 8
1, 1354145, Note_on_c, 0, 58, 77
1, 1354149, Control_c, 0, 64, 10
1, 1354150, Note_on_c, 0, 68, 66
1, 1354154, Note_off_c, 0, 60, 61
1, 1354156, Note_on_c, 0, 72, 63
1, 1354164, Control_c, 0, 64, 12
1, 1354169, Note_on_c, 0, 63, 33
1, 1354197, Note_off_c, 0, 68, 60
1, 1354199, Note_off_c, 0, 72, 62
1, 1354201, Note_off_c, 0, 63, 50
1, 1354225, Control_c, 0, 67, 117
1, 1354239, Control_c, 0, 67, 117
1, 1354246, Note_on_c, 0, 56, 80
1, 1354249, Note_off_c, 0, 58, 65
1, 1354254, Control_c, 0, 67, 116
1, 1354269, Control_c, 0, 67, 115
1, 1354284, Control_c, 0, 64, 10
1, 1354284, Control_c, 0, 67, 113
1, 1354299, Control_c, 0, 67, 112
1, 1354313, Control_c, 0, 67, 110
1, 1354321, Note_off_c, 0, 56, 63
1, 1354328, Control_c, 0, 67, 107
1, 1354343, Control_c, 0, 67, 105
1, 1354350, Note_on_c, 0, 55, 75
1, 1354353, Note_on_c, 0, 74, 71
1, 1354354, Note_on_c, 0, 80, 71
1, 1354358, Control_c, 0, 64, 12
1, 1354358, Control_c, 0, 67, 102
1, 1354359, Note_on_c, 0, 82, 64
1, 1354373, Control_c, 0, 67, 99
1, 1354383, Note_off_c, 0, 74, 64
1, 1354384, Note_off_c, 0, 82, 66
1, 1354387, Control_c, 0, 67, 96
1, 1354391, Note_off_c, 0, 80, 59
1, 1354402, Control_c, 0, 67, 92
1, 1354417, Control_c, 0, 67, 87
1, 1354431, Control_c, 0, 67, 83
1, 1354437, Note_on_c, 0, 80, 66
1, 1354439, Note_on_c, 0, 82, 82
1, 1354443, Note_on_c, 0, 53, 74
1, 1354446, Control_c, 0, 67, 79
1, 1354447, Note_on_c, 0, 74, 62
1, 1354450, Note_off_c, 0, 55, 63
1, 1354461, Control_c, 0, 67, 76
1, 1354472, Note_off_c, 0, 74, 70
1, 1354476, Control_c, 0, 64, 14
1, 1354476, Control_c, 0, 67, 73
1, 1354483, Note_off_c, 0, 80, 60
1, 1354491, Control_c, 0, 67, 70
1, 1354493, Note_off_c, 0, 82, 63
1, 1354505, Control_c, 0, 64, 15
1, 1354505, Control_c, 0, 67, 68
1, 1354520, Control_c, 0, 67, 65
1, 1354537, Note_off_c, 0, 53, 65
1, 1354542, Note_on_c, 0, 51, 76
1, 1354544, Control_c, 0, 64, 17
1, 1354544, Control_c, 0, 67, 63
1, 1354556, Note_on_c, 0, 79, 74
1, 1354557, Note_on_c, 0, 82, 67
1, 1354558, Control_c, 0, 64, 18
1, 1354558, Control_c, 0, 67, 61
1, 1354564, Note_on_c, 0, 75, 69
1, 1354573, Control_c, 0, 67, 59
1, 1354588, Control_c, 0, 67, 56
1, 1354603, Control_c, 0, 67, 53
1, 1354609, Note_off_c, 0, 79, 60
1, 1354611, Note_off_c, 0, 75, 59
1, 1354616, Note_off_c, 0, 51, 62
1, 1354618, Control_c, 0, 67, 49
1, 1354625, Note_off_c, 0, 82, 63
1, 1354632, Control_c, 0, 64, 17
1, 1354632, Control_c, 0, 67, 44
1, 1354646, Note_on_c, 0, 53, 70
1, 1354647, Control_c, 0, 64, 14
1, 1354647, Control_c, 0, 67, 40
1, 1354662, Control_c, 0, 64, 12
1, 1354662, Control_c, 0, 67, 35
1, 1354677, Control_c, 0, 64, 8
1, 1354677, Control_c, 0, 67, 31
1, 1354692, Control_c, 0, 64, 0
1, 1354692, Control_c, 0, 67, 27
1, 1354706, Control_c, 0, 67, 22
1, 1354721, Control_c, 0, 67, 16
1, 1354727, Note_on_c, 0, 51, 78
1, 1354731, Note_on_c, 0, 77, 90
1, 1354732, Note_on_c, 0, 79, 83
1, 1354733, Note_on_c, 0, 83, 85
1, 1354734, Note_off_c, 0, 53, 65
1, 1354736, Control_c, 0, 67, 9
1, 1354751, Control_c, 0, 67, 0
1, 1354765, Note_off_c, 0, 79, 59
1, 1354774, Note_off_c, 0, 77, 62
1, 1354776, Note_off_c, 0, 83, 62
1, 1354813, Note_on_c, 0, 49, 82
1, 1354819, Note_off_c, 0, 51, 62
1, 1354826, Note_on_c, 0, 79, 87
1, 1354827, Note_on_c, 0, 83, 80
1, 1354833, Note_on_c, 0, 77, 72
1, 1354854, Note_off_c, 0, 77, 68
1, 1354863, Note_off_c, 0, 79, 65
1, 1354874, Note_off_c, 0, 83, 63
1, 1354887, Note_off_c, 0, 49, 60
1, 1354905, Note_on_c, 0, 48, 84
1, 1354924, Note_on_c, 0, 84, 94
1, 1354925, Note_on_c, 0, 76, 93
1, 1354940, Note_on_c, 0, 79, 51
1, 1354962, Note_off_c, 0, 79, 58
1, 1354975, Note_off_c, 0, 84, 66
1, 1354983, Note_off_c, 0, 48, 56
1, 1354997, Note_off_c, 0, 76, 49
1, 1355007, Note_on_c, 0, 43, 73
1, 1355093, Control_c, 0, 64, 55
1, 1355108, Control_c, 0, 64, 78
1, 1355116, Note_off_c, 0, 43, 60
1, 1355122, Control_c, 0, 64, 114
1, 1355123, Note_on_c, 0, 86, 85
1, 1355124, Note_on_c, 0, 47, 80
1, 1355125, Note_on_c, 0, 91, 103
1, 1355128, Note_on_c, 0, 79, 98
1, 1355129, Note_on_c, 0, 77, 95
1, 1355137, Control_c, 0, 64, 113
1, 1355152, Control_c, 0, 64, 80
1, 1355167, Control_c, 0, 64, 62
1, 1355174, Note_on_c, 0, 87, 7
1, 1355175, Note_off_c, 0, 87, 127
1, 1355181, Control_c, 0, 64, 0
1, 1355223, Note_off_c, 0, 79, 55
1, 1355226, Note_off_c, 0, 77, 54
1, 1355226, Note_off_c, 0, 91, 55
1, 1355227, Note_off_c, 0, 47, 61
1, 1355236, Note_on_c, 0, 43, 67
1, 1355258, Note_off_c, 0, 86, 47
1, 1355337, Control_c, 0, 64, 51
1, 1355352, Control_c, 0, 64, 78
1, 1355353, Note_on_c, 0, 84, 81
1, 1355357, Note_on_c, 0, 76, 91
1, 1355358, Note_on_c, 0, 48, 69
1, 1355362, Note_off_c, 0, 43, 59
1, 1355367, Control_c, 0, 64, 127
1, 1355385, Note_off_c, 0, 84, 62
1, 1355423, Note_off_c, 0, 76, 66
1, 1355441, Control_c, 0, 64, 75
1, 1355449, Note_off_c, 0, 48, 63
1, 1355456, Control_c, 0, 64, 0
1, 1355468, Note_on_c, 0, 50, 67
1, 1355501, Note_off_c, 0, 50, 67
1, 1355563, Note_on_c, 0, 72, 76
1, 1355570, Note_on_c, 0, 64, 65
1, 1355576, Note_on_c, 0, 48, 66
1, 1355580, Note_on_c, 0, 67, 54
1, 1355624, Note_off_c, 0, 72, 63
1, 1355630, Note_off_c, 0, 64, 60
1, 1355634, Note_off_c, 0, 48, 61
1, 1355647, Note_off_c, 0, 67, 54
1, 1355673, Note_on_c, 0, 60, 64
1, 1355754, Note_on_c, 0, 68, 70
1, 1355761, Note_on_c, 0, 58, 72
1, 1355762, Note_on_c, 0, 72, 60
1, 1355763, Note_on_c, 0, 63, 53
1, 1355769, Note_off_c, 0, 60, 60
1, 1355784, Note_off_c, 0, 63, 59
1, 1355797, Note_off_c, 0, 68, 61
1, 1355798, Note_off_c, 0, 72, 65
1, 1355862, Note_on_c, 0, 56, 77
1, 1355865, Note_off_c, 0, 58, 64
1, 1355932, Note_off_c, 0, 56, 62
1, 1355957, Note_on_c, 0, 80, 68
1, 1355957, Note_on_c, 0, 74, 59
1, 1355957, Note_on_c, 0, 82, 65
1, 1355964, Note_on_c, 0, 55, 75
1, 1355984, Note_off_c, 0, 82, 65
1, 1355986, Note_off_c, 0, 80, 63
1, 1355987, Note_off_c, 0, 74, 66
1, 1356047, Note_on_c, 0, 80, 75
1, 1356047, Note_on_c, 0, 82, 79
1, 1356053, Note_on_c, 0, 74, 64
1, 1356064, Note_on_c, 0, 53, 70
1, 1356067, Note_off_c, 0, 55, 63
1, 1356079, Note_off_c, 0, 74, 70
1, 1356096, Note_off_c, 0, 80, 61
1, 1356096, Note_off_c, 0, 82, 61
1, 1356154, Note_off_c, 0, 53, 65
1, 1356156, Note_on_c, 0, 79, 82
1, 1356157, Note_on_c, 0, 82, 74
1, 1356158, Note_on_c, 0, 75, 76
1, 1356159, Note_on_c, 0, 51, 74
1, 1356213, Note_off_c, 0, 79, 59
1, 1356222, Note_off_c, 0, 75, 63
1, 1356232, Note_off_c, 0, 51, 62
1, 1356232, Note_off_c, 0, 82, 63
1, 1356261, Note_on_c, 0, 53, 73
1, 1356339, Note_on_c, 0, 77, 80
1, 1356342, Note_on_c, 0, 79, 71
1, 1356345, Note_on_c, 0, 51, 77
1, 1356345, Note_on_c, 0, 83, 72
1, 1356347, Note_off_c, 0, 53, 64
1, 1356369, Note_off_c, 0, 79, 63
1, 1356377, Note_off_c, 0, 83, 61
1, 1356380, Note_off_c, 0, 77, 55
1, 1356429, Note_on_c, 0, 49, 76
1, 1356429, Note_off_c, 0, 51, 61
1, 1356434, Note_on_c, 0, 77, 67
1, 1356437, Note_on_c, 0, 79, 76
1, 1356439, Note_on_c, 0, 83, 67
1, 1356461, Note_off_c, 0, 77, 64
1, 1356467, Note_off_c, 0, 79, 60
1, 1356471, Note_off_c, 0, 83, 61
1, 1356495, Note_off_c, 0, 49, 62
1, 1356515, Note_on_c, 0, 48, 80
1, 1356527, Note_on_c, 0, 84, 87
1, 1356529, Note_on_c, 0, 76, 88
1, 1356565, Note_off_c, 0, 84, 66
1, 1356586, Note_off_c, 0, 48, 57
1, 1356602, Note_off_c, 0, 76, 62
1, 1356628, Note_on_c, 0, 43, 67
1, 1356718, Note_on_c, 0, 91, 102
1, 1356719, Note_on_c, 0, 86, 88
1, 1356723, Note_on_c, 0, 79, 93
1, 1356725, Note_on_c, 0, 77, 91
1, 1356726, Note_off_c, 0, 43, 62
1, 1356732, Note_on_c, 0, 47, 73
1, 1356763, Note_on_c, 0, 87, 17
1, 1356764, Note_off_c, 0, 87, 127
1, 1356819, Note_off_c, 0, 77, 56
1, 1356822, Note_off_c, 0, 79, 54
1, 1356828, Note_off_c, 0, 91, 56
1, 1356834, Note_off_c, 0, 47, 62
1, 1356842, Note_on_c, 0, 43, 66
1, 1356844, Note_off_c, 0, 86, 57
1, 1356940, Note_on_c, 0, 48, 68
1, 1356944, Note_off_c, 0, 43, 61
1, 1356946, Note_on_c, 0, 76, 77
1, 1356956, Note_on_c, 0, 84, 45
1, 1356981, Note_off_c, 0, 84, 56
1, 1356994, Note_off_c, 0, 76, 65
1, 1356996, Note_off_c, 0, 48, 62
1, 1357046, Note_on_c, 0, 55, 62
1, 1357133, Note_on_c, 0, 79, 82
1, 1357137, Note_on_c, 0, 74, 79
1, 1357143, Note_on_c, 0, 65, 70
1, 1357143, Note_on_c, 0, 67, 71
1, 1357146, Note_off_c, 0, 55, 65
1, 1357150, Note_on_c, 0, 59, 62
1, 1357194, Note_off_c, 0, 65, 46
1, 1357203, Note_off_c, 0, 59, 59
1, 1357203, Note_off_c, 0, 67, 43
1, 1357208, Note_off_c, 0, 79, 59
1, 1357211, Note_off_c, 0, 74, 56
1, 1357230, Note_on_c, 0, 55, 62
1, 1357289, Note_off_c, 0, 55, 63
1, 1357338, Note_on_c, 0, 64, 71
1, 1357340, Note_on_c, 0, 72, 72
1, 1357348, Note_on_c, 0, 60, 55
1, 1357397, Note_off_c, 0, 64, 63
1, 1357412, Note_off_c, 0, 72, 63
1, 1357416, Note_off_c, 0, 60, 58
1, 1357427, Note_on_c, 0, 55, 66
1, 1357483, Note_off_c, 0, 55, 59
1, 1357522, Note_on_c, 0, 47, 66
1, 1357534, Note_on_c, 0, 67, 67
1, 1357534, Note_on_c, 0, 79, 72
1, 1357536, Note_on_c, 0, 74, 66
1, 1357552, Note_on_c, 0, 65, 49
1, 1357552, Note_off_c, 0, 67, 65
1, 1357559, Note_off_c, 0, 79, 65
1, 1357561, Note_off_c, 0, 74, 71
1, 1357578, Note_off_c, 0, 65, 58
1, 1357594, Note_off_c, 0, 47, 63
1, 1357609, Note_on_c, 0, 55, 67
1, 1357613, Note_on_c, 0, 67, 72
1, 1357615, Note_on_c, 0, 79, 79
1, 1357619, Note_on_c, 0, 74, 73
1, 1357635, Note_off_c, 0, 67, 55
1, 1357647, Note_off_c, 0, 74, 61
1, 1357664, Note_off_c, 0, 79, 58
1, 1357679, Note_off_c, 0, 55, 55
1, 1357715, Note_on_c, 0, 48, 63
1, 1357725, Note_on_c, 0, 72, 75
1, 1357733, Note_on_c, 0, 64, 65
1, 1357764, Note_off_c, 0, 64, 52
1, 1357802, Note_off_c, 0, 72, 60
1, 1357805, Note_on_c, 0, 55, 62
1, 1357829, Note_off_c, 0, 48, 56
1, 1357870, Note_off_c, 0, 55, 64
1, 1357902, Note_on_c, 0, 79, 81
1, 1357905, Note_on_c, 0, 74, 70
1, 1357908, Note_on_c, 0, 59, 62
1, 1357912, Note_on_c, 0, 67, 63
1, 1357924, Note_on_c, 0, 65, 57
1, 1357957, Note_off_c, 0, 65, 47
1, 1357963, Note_off_c, 0, 59, 60
1, 1357985, Note_off_c, 0, 79, 56
1, 1357992, Note_on_c, 0, 55, 64
1, 1357996, Note_off_c, 0, 67, 38
1, 1358008, Note_off_c, 0, 74, 51
1, 1358057, Note_off_c, 0, 55, 63
1, 1358103, Note_on_c, 0, 72, 70
1, 1358105, Note_on_c, 0, 64, 63
1, 1358106, Note_on_c, 0, 60, 59
1, 1358146, Note_off_c, 0, 64, 58
1, 1358163, Note_off_c, 0, 72, 64
1, 1358164, Note_off_c, 0, 60, 48
1, 1358192, Note_on_c, 0, 55, 61
1, 1358243, Note_off_c, 0, 55, 62
1, 1358288, Note_on_c, 0, 74, 78
1, 1358291, Note_on_c, 0, 79, 72
1, 1358297, Note_on_c, 0, 67, 61
1, 1358297, Note_on_c, 0, 47, 64
1, 1358303, Note_on_c, 0, 65, 55
1, 1358313, Note_off_c, 0, 74, 67
1, 1358316, Note_off_c, 0, 79, 66
1, 1358317, Note_off_c, 0, 67, 63
1, 1358326, Note_off_c, 0, 65, 60
1, 1358359, Note_off_c, 0, 47, 63
1, 1358375, Note_on_c, 0, 79, 66
1, 1358376, Note_on_c, 0, 74, 62
1, 1358381, Note_on_c, 0, 55, 66
1, 1358381, Note_on_c, 0, 67, 52
1, 1358404, Note_on_c, 0, 65, 39
1, 1358406, Note_off_c, 0, 74, 61
1, 1358407, Note_off_c, 0, 67, 38
1, 1358410, Note_off_c, 0, 79, 57
1, 1358417, Note_off_c, 0, 65, 44
1, 1358433, Note_off_c, 0, 55, 55
1, 1358476, Note_on_c, 0, 48, 67
1, 1358478, Note_on_c, 0, 72, 72
1, 1358488, Note_on_c, 0, 64, 55
1, 1358520, Note_off_c, 0, 64, 51
1, 1358525, Note_off_c, 0, 48, 60
1, 1358544, Note_off_c, 0, 72, 55
1, 1358559, Note_on_c, 0, 43, 61
1, 1358639, Note_off_c, 0, 43, 61
1, 1358653, Note_on_c, 0, 79, 81
1, 1358654, Note_on_c, 0, 47, 72
1, 1358655, Note_on_c, 0, 74, 76
1, 1358663, Note_on_c, 0, 67, 68
1, 1358669, Note_on_c, 0, 65, 69
1, 1358723, Note_off_c, 0, 47, 63
1, 1358726, Note_off_c, 0, 79, 53
1, 1358727, Note_off_c, 0, 65, 59
1, 1358729, Note_off_c, 0, 67, 59
1, 1358737, Note_off_c, 0, 74, 56
1, 1358769, Note_on_c, 0, 43, 53
1, 1358822, Note_off_c, 0, 43, 61
1, 1358852, Note_on_c, 0, 48, 67
1, 1358852, Note_on_c, 0, 64, 69
1, 1358852, Note_on_c, 0, 72, 71
1, 1358907, Note_off_c, 0, 64, 62
1, 1358908, Note_off_c, 0, 48, 60
1, 1358923, Note_off_c, 0, 72, 61
1, 1358942, Note_on_c, 0, 43, 62
1, 1359017, Note_off_c, 0, 43, 61
1, 1359043, Note_on_c, 0, 47, 69
1, 1359044, Note_on_c, 0, 74, 73
1, 1359045, Note_on_c, 0, 79, 72
1, 1359066, Note_on_c, 0, 65, 46
1, 1359070, Note_on_c, 0, 67, 46
1, 1359102, Note_off_c, 0, 67, 53
1, 1359102, Note_off_c, 0, 65, 54
1, 1359109, Note_off_c, 0, 79, 58
1, 1359120, Note_off_c, 0, 47, 60
1, 1359134, Note_off_c, 0, 74, 58
1, 1359150, Note_on_c, 0, 43, 59
1, 1359247, Note_on_c, 0, 72, 61
1, 1359254, Note_off_c, 0, 43, 55
1, 1359255, Note_on_c, 0, 48, 48
1, 1359255, Note_on_c, 0, 64, 54
1, 1359287, Note_off_c, 0, 64, 56
1, 1359312, Note_off_c, 0, 48, 62
1, 1359316, Note_off_c, 0, 72, 62
1, 1359360, Note_on_c, 0, 50, 55
1, 1359465, Note_on_c, 0, 76, 74
1, 1359471, Note_on_c, 0, 68, 66
1, 1359477, Note_on_c, 0, 48, 55
1, 1359477, Note_off_c, 0, 50, 58
1, 1359478, Note_on_c, 0, 72, 64
1, 1359497, Note_off_c, 0, 68, 68
1, 1359507, Note_off_c, 0, 72, 64
1, 1359514, Note_off_c, 0, 76, 63
1, 1359564, Note_on_c, 0, 76, 68
1, 1359570, Note_on_c, 0, 68, 74
1, 1359570, Note_on_c, 0, 72, 65
1, 1359576, Note_on_c, 0, 47, 66
1, 1359578, Note_off_c, 0, 48, 58
1, 1359602, Note_off_c, 0, 72, 64
1, 1359615, Note_off_c, 0, 68, 55
1, 1359619, Note_off_c, 0, 76, 64
1, 1359665, Note_off_c, 0, 47, 64
1, 1359693, Note_on_c, 0, 76, 77
1, 1359694, Note_on_c, 0, 45, 60
1, 1359704, Note_on_c, 0, 69, 67
1, 1359704, Note_on_c, 0, 72, 71
1, 1359739, Note_off_c, 0, 69, 64
1, 1359742, Note_off_c, 0, 72, 59
1, 1359764, Note_off_c, 0, 45, 64
1, 1359764, Note_off_c, 0, 76, 64
1, 1359811, Note_on_c, 0, 47, 60
1, 1359947, Note_on_c, 0, 76, 77
1, 1359952, Note_on_c, 0, 45, 54
1, 1359960, Note_on_c, 0, 72, 62
1, 1359965, Note_on_c, 0, 69, 55
1, 1359999, Note_off_c, 0, 47, 38
1, 1360001, Note_off_c, 0, 72, 53
1, 1360008, Note_off_c, 0, 69, 61
1, 1360032, Note_off_c, 0, 76, 62
1, 1360089, Note_on_c, 0, 43, 49
1, 1360098, Note_off_c, 0, 45, 59
1, 1360277, Note_on_c, 0, 76, 72
1, 1360315, Note_on_c, 0, 69, 37
1, 1360315, Note_on_c, 0, 72, 46
1, 1360322, Note_off_c, 0, 43, 41
1, 1360334, Note_on_c, 0, 42, 40
1, 1360363, Control_c, 0, 67, 15
1, 1360377, Control_c, 0, 67, 26
1, 1360392, Control_c, 0, 67, 37
1, 1360407, Control_c, 0, 64, 15
1, 1360407, Control_c, 0, 67, 49
1, 1360422, Control_c, 0, 64, 50
1, 1360422, Control_c, 0, 67, 58
1, 1360437, Control_c, 0, 64, 61
1, 1360437, Control_c, 0, 67, 66
1, 1360451, Control_c, 0, 64, 63
1, 1360451, Control_c, 0, 67, 75
1, 1360466, Control_c, 0, 64, 64
1, 1360466, Control_c, 0, 67, 84
1, 1360469, Note_off_c, 0, 42, 62
1, 1360481, Control_c, 0, 64, 65
1, 1360481, Control_c, 0, 67, 95
1, 1360493, Note_on_c, 0, 43, 45
1, 1360495, Control_c, 0, 64, 65
1, 1360495, Control_c, 0, 67, 105
1, 1360510, Control_c, 0, 64, 66
1, 1360510, Control_c, 0, 67, 116
1, 1360533, Control_c, 0, 67, 124
1, 1360548, Control_c, 0, 67, 127
1, 1360617, Note_on_c, 0, 42, 52
1, 1360652, Control_c, 0, 64, 65
1, 1360682, Control_c, 0, 64, 65
1, 1360689, Note_off_c, 0, 43, 39
1, 1360708, Note_on_c, 0, 40, 48
1, 1360712, Control_c, 0, 64, 64
1, 1360718, Note_off_c, 0, 42, 51
1, 1360756, Control_c, 0, 64, 64
1, 1360768, Note_off_c, 0, 40, 63
1, 1360800, Note_on_c, 0, 38, 51
1, 1360800, Control_c, 0, 64, 63
1, 1360845, Control_c, 0, 64, 63
1, 1360882, Note_off_c, 0, 38, 60
1, 1360889, Note_on_c, 0, 37, 62
1, 1360889, Control_c, 0, 64, 62
1, 1360904, Control_c, 0, 64, 62
1, 1360933, Control_c, 0, 64, 61
1, 1360963, Control_c, 0, 64, 61
1, 1360973, Note_off_c, 0, 37, 60
1, 1360974, Note_on_c, 0, 38, 51
1, 1360993, Control_c, 0, 64, 60
1, 1361007, Control_c, 0, 64, 60
1, 1361022, Control_c, 0, 64, 59
1, 1361052, Control_c, 0, 64, 59
1, 1361067, Control_c, 0, 64, 58
1, 1361068, Note_off_c, 0, 38, 60
1, 1361075, Note_on_c, 0, 40, 61
1, 1361081, Control_c, 0, 64, 58
1, 1361096, Control_c, 0, 64, 57
1, 1361111, Control_c, 0, 64, 57
1, 1361126, Control_c, 0, 64, 56
1, 1361141, Control_c, 0, 64, 55
1, 1361156, Control_c, 0, 64, 55
1, 1361161, Note_off_c, 0, 40, 65
1, 1361171, Control_c, 0, 64, 54
1, 1361172, Note_on_c, 0, 42, 62
1, 1361183, Note_on_c, 0, 74, 51
1, 1361186, Control_c, 0, 64, 53
1, 1361200, Control_c, 0, 64, 52
1, 1361215, Control_c, 0, 64, 51
1, 1361230, Control_c, 0, 64, 50
1, 1361239, Note_off_c, 0, 42, 60
1, 1361239, Note_off_c, 0, 76, 56
1, 1361245, Control_c, 0, 64, 50
1, 1361260, Control_c, 0, 64, 49
1, 1361264, Note_on_c, 0, 43, 61
1, 1361282, Control_c, 0, 64, 48
1, 1361297, Control_c, 0, 64, 48
1, 1361312, Control_c, 0, 64, 47
1, 1361326, Control_c, 0, 64, 47
1, 1361356, Control_c, 0, 64, 46
1, 1361362, Note_off_c, 0, 43, 62
1, 1361364, Note_on_c, 0, 45, 64
1, 1361371, Control_c, 0, 64, 46
1, 1361386, Control_c, 0, 64, 45
1, 1361402, Control_c, 0, 64, 45
1, 1361445, Note_off_c, 0, 45, 65
1, 1361458, Note_on_c, 0, 47, 67
1, 1361491, Control_c, 0, 64, 44
1, 1361513, Note_off_c, 0, 47, 63
1, 1361546, Note_on_c, 0, 48, 59
1, 1361549, Control_c, 0, 64, 44
1, 1361623, Note_on_c, 0, 49, 57
1, 1361630, Note_off_c, 0, 48, 62
1, 1361650, Note_off_c, 0, 69, 44
1, 1361685, Note_off_c, 0, 72, 35
1, 1361701, Note_off_c, 0, 74, 38
1, 1361713, Control_c, 0, 64, 43
1, 1361716, Note_on_c, 0, 50, 62
1, 1361716, Note_off_c, 0, 49, 60
1, 1361776, Note_off_c, 0, 50, 63
1, 1361787, Control_c, 0, 64, 43
1, 1361802, Control_c, 0, 64, 42
1, 1361812, Note_on_c, 0, 52, 58
1, 1361817, Control_c, 0, 64, 40
1, 1361831, Control_c, 0, 64, 39
1, 1361846, Control_c, 0, 64, 38
1, 1361861, Control_c, 0, 64, 35
1, 1361876, Control_c, 0, 64, 32
1, 1361891, Control_c, 0, 64, 26
1, 1361900, Note_on_c, 0, 54, 56
1, 1361903, Note_off_c, 0, 52, 64
1, 1361905, Control_c, 0, 64, 10
1, 1361920, Control_c, 0, 64, 0
1, 1361999, Note_on_c, 0, 55, 51
1, 1361999, Note_off_c, 0, 54, 61
1, 1362060, Note_off_c, 0, 55, 65
1, 1362101, Note_on_c, 0, 57, 45
1, 1362187, Note_on_c, 0, 58, 47
1, 1362190, Note_off_c, 0, 57, 58
1, 1362294, Note_off_c, 0, 58, 58
1, 1362303, Note_on_c, 0, 59, 47
1, 1362408, Note_off_c, 0, 59, 59
1, 1362437, Note_on_c, 0, 60, 42
1, 1362497, Note_off_c, 0, 60, 57
1, 1362682, Control_c, 0, 67, 127
1, 1362697, Control_c, 0, 67, 124
1, 1362712, Control_c, 0, 67, 120
1, 1362727, Control_c, 0, 67, 114
1, 1362742, Control_c, 0, 67, 109
1, 1362757, Control_c, 0, 67, 104
1, 1362778, Control_c, 0, 67, 100
1, 1362788, Note_on_c, 0, 61, 59
1, 1362793, Control_c, 0, 67, 96
1, 1362808, Control_c, 0, 67, 92
1, 1362823, Control_c, 0, 67, 88
1, 1362838, Control_c, 0, 67, 82
1, 1362852, Control_c, 0, 67, 77
1, 1362867, Control_c, 0, 67, 71
1, 1362882, Control_c, 0, 67, 65
1, 1362889, Note_on_c, 0, 64, 70
1, 1362897, Note_off_c, 0, 61, 59
1, 1362897, Control_c, 0, 67, 59
1, 1362912, Control_c, 0, 67, 53
1, 1362926, Control_c, 0, 67, 45
1, 1362941, Control_c, 0, 67, 37
1, 1362956, Control_c, 0, 67, 31
1, 1362968, Note_off_c, 0, 64, 57
1, 1362971, Control_c, 0, 67, 26
1, 1362986, Control_c, 0, 67, 22
1, 1363001, Control_c, 0, 67, 18
1, 1363016, Control_c, 0, 67, 14
1, 1363031, Control_c, 0, 67, 11
1, 1363040, Note_on_c, 0, 83, 62
1, 1363046, Control_c, 0, 67, 0
1, 1363071, Note_on_c, 0, 79, 48
1, 1363075, Note_on_c, 0, 62, 54
1, 1363091, Note_on_c, 0, 74, 29
1, 1363096, Note_on_c, 0, 55, 38
1, 1363122, Note_off_c, 0, 79, 0
1, 1363122, Note_on_c, 0, 79, 13
1, 1363387, Control_c, 0, 64, 14
1, 1363401, Control_c, 0, 64, 24
1, 1363416, Control_c, 0, 64, 34
1, 1363431, Control_c, 0, 64, 41
1, 1363446, Control_c, 0, 64, 46
1, 1363461, Control_c, 0, 64, 50
1, 1363475, Control_c, 0, 64, 53
1, 1363490, Control_c, 0, 64, 56
1, 1363505, Control_c, 0, 64, 59
1, 1363527, Control_c, 0, 64, 62
1, 1363542, Control_c, 0, 64, 63
1, 1363557, Control_c, 0, 64, 64
1, 1363572, Control_c, 0, 64, 65
1, 1363587, Control_c, 0, 64, 67
1, 1363601, Control_c, 0, 64, 69
1, 1363616, Control_c, 0, 64, 72
1, 1363631, Control_c, 0, 64, 75
1, 1363646, Control_c, 0, 64, 78
1, 1363661, Control_c, 0, 64, 81
1, 1363675, Control_c, 0, 64, 83
1, 1363690, Control_c, 0, 64, 84
1, 1363705, Control_c, 0, 64, 85
1, 1363719, Control_c, 0, 64, 85
1, 1363749, Control_c, 0, 64, 86
1, 1363795, Control_c, 0, 67, 11
1, 1363810, Control_c, 0, 67, 15
1, 1363824, Control_c, 0, 67, 20
1, 1363839, Control_c, 0, 67, 24
1, 1363854, Control_c, 0, 67, 28
1, 1363869, Control_c, 0, 67, 32
1, 1363884, Control_c, 0, 67, 36
1, 1363892, Note_on_c, 0, 60, 56
1, 1363892, Note_off_c, 0, 79, 37
1, 1363898, Control_c, 0, 67, 39
1, 1363913, Control_c, 0, 67, 42
1, 1363924, Note_off_c, 0, 62, 36
1, 1363928, Control_c, 0, 67, 44
1, 1363943, Note_off_c, 0, 74, 40
1, 1363943, Control_c, 0, 64, 85
1, 1363943, Control_c, 0, 67, 49
1, 1363958, Control_c, 0, 67, 52
1, 1363973, Control_c, 0, 64, 85
1, 1363973, Control_c, 0, 67, 55
1, 1363981, Note_off_c, 0, 60, 62
1, 1363983, Note_off_c, 0, 83, 33
1, 1363988, Control_c, 0, 64, 83
1, 1363988, Control_c, 0, 67, 59
1, 1363994, Note_on_c, 0, 59, 64
1, 1364003, Control_c, 0, 64, 82
1, 1364003, Control_c, 0, 67, 63
1, 1364017, Control_c, 0, 64, 81
1, 1364017, Control_c, 0, 67, 66
1, 1364032, Control_c, 0, 64, 80
1, 1364032, Control_c, 0, 67, 69
1, 1364047, Control_c, 0, 64, 79
1, 1364047, Control_c, 0, 67, 71
1, 1364062, Control_c, 0, 64, 77
1, 1364062, Control_c, 0, 67, 73
1, 1364077, Control_c, 0, 64, 75
1, 1364077, Control_c, 0, 67, 74
1, 1364091, Control_c, 0, 64, 73
1, 1364091, Control_c, 0, 67, 75
1, 1364092, Note_off_c, 0, 59, 61
1, 1364099, Note_on_c, 0, 84, 69
1, 1364106, Control_c, 0, 64, 68
1, 1364106, Control_c, 0, 67, 76
1, 1364113, Note_on_c, 0, 57, 60
1, 1364121, Control_c, 0, 64, 59
1, 1364121, Control_c, 0, 67, 77
1, 1364136, Note_on_c, 0, 74, 41
1, 1364136, Note_on_c, 0, 78, 46
1, 1364136, Control_c, 0, 64, 0
1, 1364136, Control_c, 0, 67, 79
1, 1364150, Control_c, 0, 67, 80
1, 1364165, Control_c, 0, 67, 81
1, 1364180, Control_c, 0, 67, 82
1, 1364195, Control_c, 0, 67, 84
1, 1364210, Control_c, 0, 64, 43
1, 1364210, Control_c, 0, 67, 85
1, 1364224, Control_c, 0, 64, 59
1, 1364224, Control_c, 0, 67, 87
1, 1364225, Note_on_c, 0, 59, 62
1, 1364226, Note_off_c, 0, 57, 59
1, 1364239, Control_c, 0, 64, 63
1, 1364239, Control_c, 0, 67, 91
1, 1364254, Control_c, 0, 64, 64
1, 1364254, Control_c, 0, 67, 93
1, 1364276, Control_c, 0, 67, 96
1, 1364291, Control_c, 0, 67, 98
1, 1364306, Control_c, 0, 67, 100
1, 1364308, Note_off_c, 0, 59, 62
1, 1364321, Control_c, 0, 67, 102
1, 1364323, Note_on_c, 0, 60, 62
1, 1364336, Control_c, 0, 64, 64
1, 1364336, Control_c, 0, 67, 103
1, 1364350, Control_c, 0, 64, 63
1, 1364350, Control_c, 0, 67, 105
1, 1364365, Control_c, 0, 67, 107
1, 1364378, Note_off_c, 0, 60, 63
1, 1364380, Control_c, 0, 67, 108
1, 1364395, Control_c, 0, 64, 63
1, 1364395, Control_c, 0, 67, 110
1, 1364406, Note_on_c, 0, 62, 71
1, 1364410, Control_c, 0, 67, 111
1, 1364424, Control_c, 0, 64, 62
1, 1364424, Control_c, 0, 67, 112
1, 1364439, Control_c, 0, 64, 61
1, 1364439, Control_c, 0, 67, 113
1, 1364454, Control_c, 0, 64, 57
1, 1364454, Control_c, 0, 67, 115
1, 1364468, Control_c, 0, 64, 44
1, 1364468, Control_c, 0, 67, 117
1, 1364483, Control_c, 0, 64, 0
1, 1364483, Control_c, 0, 67, 119
1, 1364494, Note_off_c, 0, 62, 49
1, 1364498, Control_c, 0, 67, 121
1, 1364499, Note_off_c, 0, 84, 61
1, 1364500, Note_on_c, 0, 81, 67
1, 1364506, Note_on_c, 0, 60, 77
1, 1364513, Control_c, 0, 67, 124
1, 1364528, Note_off_c, 0, 74, 63
1, 1364528, Control_c, 0, 67, 126
1, 1364542, Control_c, 0, 67, 127
1, 1364544, Note_off_c, 0, 78, 63
1, 1364568, Note_off_c, 0, 60, 62
1, 1364701, Note_on_c, 0, 78, 71
1, 1364705, Note_on_c, 0, 57, 77
1, 1364705, Note_off_c, 0, 81, 59
1, 1364711, Note_on_c, 0, 72, 42
1, 1364739, Note_off_c, 0, 72, 57
1, 1364757, Note_off_c, 0, 55, 59
1, 1364768, Note_off_c, 0, 57, 63
1, 1364804, Note_on_c, 0, 76, 58
1, 1364843, Note_off_c, 0, 76, 59
1, 1364899, Note_off_c, 0, 78, 60
1, 1364929, Note_on_c, 0, 79, 50
1, 1364936, Note_on_c, 0, 74, 46
1, 1364951, Note_on_c, 0, 59, 58
1, 1365196, Note_on_c, 0, 83, 54
1, 1365216, Note_on_c, 0, 71, 42
1, 1365219, Control_c, 0, 64, 58
1, 1365225, Note_off_c, 0, 59, 59
1, 1365233, Note_off_c, 0, 83, 48
1, 1365234, Control_c, 0, 64, 66
1, 1365238, Note_on_c, 0, 55, 33
1, 1365240, Note_off_c, 0, 79, 60
1, 1365248, Control_c, 0, 64, 69
1, 1365249, Note_off_c, 0, 74, 65
1, 1365263, Control_c, 0, 64, 74
1, 1365268, Note_off_c, 0, 71, 61
1, 1365270, Note_off_c, 0, 55, 58
1, 1365278, Control_c, 0, 64, 76
1, 1365307, Control_c, 0, 64, 70
1, 1365322, Control_c, 0, 64, 60
1, 1365337, Control_c, 0, 64, 0
1, 1365493, Note_on_c, 0, 62, 74
1, 1365504, Note_on_c, 0, 55, 46
1, 1365506, Note_on_c, 0, 59, 52
1, 1365508, Note_on_c, 0, 50, 50
1, 1365520, Note_off_c, 0, 62, 61
1, 1365532, Note_off_c, 0, 50, 60
1, 1365532, Note_off_c, 0, 59, 55
1, 1365534, Note_off_c, 0, 55, 59
1, 1365573, Note_on_c, 0, 62, 67
1, 1365581, Note_on_c, 0, 59, 57
1, 1365585, Note_on_c, 0, 55, 49
1, 1365588, Note_on_c, 0, 50, 54
1, 1365609, Note_off_c, 0, 62, 58
1, 1365612, Note_off_c, 0, 59, 62
1, 1365615, Note_off_c, 0, 50, 63
1, 1365618, Note_off_c, 0, 55, 64
1, 1365661, Note_on_c, 0, 62, 65
1, 1365685, Note_on_c, 0, 50, 57
1, 1365685, Note_on_c, 0, 55, 50
1, 1365685, Note_on_c, 0, 59, 40
1, 1365696, Note_off_c, 0, 62, 59
1, 1365708, Note_off_c, 0, 50, 62
1, 1365714, Note_off_c, 0, 55, 51
1, 1365738, Note_on_c, 0, 62, 66
1, 1365742, Note_off_c, 0, 59, 0
1, 1365755, Note_on_c, 0, 59, 42
1, 1365767, Note_on_c, 0, 55, 51
1, 1365771, Note_on_c, 0, 50, 60
1, 1365791, Note_off_c, 0, 59, 55
1, 1365796, Note_off_c, 0, 62, 55
1, 1365800, Note_off_c, 0, 55, 60
1, 1365808, Note_off_c, 0, 50, 63
1, 1365886, Note_on_c, 0, 59, 32
1, 1365891, Note_on_c, 0, 62, 55
1, 1365934, Note_on_c, 0, 55, 19
1, 1365943, Note_on_c, 0, 50, 28
1, 1366110, Note_off_c, 0, 59, 42
1, 1366126, Note_off_c, 0, 62, 48
1, 1366133, Note_on_c, 0, 64, 43
1, 1366136, Note_on_c, 0, 60, 33
1, 1366280, Control_c, 0, 67, 126
1, 1366294, Control_c, 0, 67, 119
1, 1366309, Control_c, 0, 67, 112
1, 1366324, Control_c, 0, 67, 104
1, 1366328, Note_off_c, 0, 64, 55
1, 1366331, Note_on_c, 0, 59, 38
1, 1366337, Note_on_c, 0, 62, 52
1, 1366337, Note_off_c, 0, 50, 58
1, 1366338, Control_c, 0, 67, 96
1, 1366350, Note_off_c, 0, 55, 58
1, 1366353, Control_c, 0, 67, 88
1, 1366361, Note_off_c, 0, 60, 41
1, 1366364, Note_off_c, 0, 59, 63
1, 1366368, Control_c, 0, 67, 79
1, 1366383, Control_c, 0, 67, 71
1, 1366388, Note_off_c, 0, 62, 55
1, 1366398, Control_c, 0, 67, 63
1, 1366412, Control_c, 0, 67, 56
1, 1366427, Control_c, 0, 67, 48
1, 1366442, Control_c, 0, 67, 42
1, 1366457, Control_c, 0, 67, 38
1, 1366472, Control_c, 0, 67, 33
1, 1366486, Control_c, 0, 67, 29
1, 1366501, Control_c, 0, 67, 26
1, 1366523, Control_c, 0, 67, 20
1, 1366538, Control_c, 0, 67, 14
1, 1366542, Note_on_c, 0, 67, 69
1, 1366552, Control_c, 0, 67, 0
1, 1366630, Note_off_c, 0, 67, 59
1, 1366634, Note_on_c, 0, 61, 71
1, 1366687, Note_off_c, 0, 61, 62
1, 1366772, Note_on_c, 0, 83, 65
1, 1366794, Note_on_c, 0, 62, 61
1, 1366819, Note_on_c, 0, 74, 34
1, 1366820, Note_on_c, 0, 79, 35
1, 1366828, Note_on_c, 0, 55, 34
1, 1366893, Control_c, 0, 67, 8
1, 1366908, Control_c, 0, 67, 11
1, 1366923, Control_c, 0, 67, 13
1, 1366937, Control_c, 0, 67, 16
1, 1366952, Control_c, 0, 67, 19
1, 1366967, Control_c, 0, 67, 23
1, 1366982, Control_c, 0, 67, 27
1, 1366998, Control_c, 0, 67, 30
1, 1367013, Control_c, 0, 67, 32
1, 1367028, Control_c, 0, 67, 35
1, 1367042, Control_c, 0, 67, 36
1, 1367057, Control_c, 0, 67, 37
1, 1367072, Control_c, 0, 67, 38
1, 1367086, Control_c, 0, 67, 38
1, 1367116, Control_c, 0, 67, 39
1, 1367146, Control_c, 0, 67, 40
1, 1367160, Control_c, 0, 67, 41
1, 1367175, Control_c, 0, 67, 44
1, 1367190, Control_c, 0, 67, 47
1, 1367205, Control_c, 0, 67, 49
1, 1367220, Control_c, 0, 67, 49
1, 1367234, Control_c, 0, 67, 50
1, 1367287, Control_c, 0, 67, 49
1, 1367316, Control_c, 0, 67, 49
1, 1367361, Control_c, 0, 67, 48
1, 1367431, Note_off_c, 0, 62, 60
1, 1367444, Note_on_c, 0, 60, 50
1, 1367464, Control_c, 0, 67, 48
1, 1367490, Note_off_c, 0, 79, 45
1, 1367517, Note_off_c, 0, 60, 62
1, 1367517, Note_off_c, 0, 74, 53
1, 1367531, Note_on_c, 0, 59, 63
1, 1367538, Control_c, 0, 67, 47
1, 1367553, Note_off_c, 0, 83, 52
1, 1367568, Control_c, 0, 67, 47
1, 1367612, Control_c, 0, 67, 46
1, 1367621, Note_off_c, 0, 59, 61
1, 1367627, Control_c, 0, 67, 46
1, 1367636, Note_on_c, 0, 84, 69
1, 1367647, Note_on_c, 0, 57, 55
1, 1367657, Control_c, 0, 67, 45
1, 1367659, Note_on_c, 0, 74, 21
1, 1367677, Note_on_c, 0, 78, 48
1, 1367686, Control_c, 0, 67, 45
1, 1367749, Note_on_c, 0, 59, 61
1, 1367757, Note_off_c, 0, 57, 56
1, 1367760, Control_c, 0, 67, 44
1, 1367816, Note_off_c, 0, 59, 63
1, 1367829, Note_on_c, 0, 60, 61
1, 1367865, Control_c, 0, 67, 44
1, 1367888, Note_off_c, 0, 60, 63
1, 1367917, Note_on_c, 0, 62, 61
1, 1367939, Control_c, 0, 67, 43
1, 1367983, Control_c, 0, 67, 44
1, 1367986, Note_off_c, 0, 62, 40
1, 1368021, Note_on_c, 0, 60, 67
1, 1368021, Note_on_c, 0, 81, 67
1, 1368036, Control_c, 0, 67, 44
1, 1368039, Note_off_c, 0, 84, 63
1, 1368051, Control_c, 0, 67, 45
1, 1368059, Note_off_c, 0, 74, 63
1, 1368063, Note_off_c, 0, 78, 63
1, 1368072, Note_off_c, 0, 60, 62
1, 1368095, Control_c, 0, 67, 45
1, 1368110, Control_c, 0, 67, 46
1, 1368199, Control_c, 0, 67, 47
1, 1368217, Note_on_c, 0, 78, 67
1, 1368220, Note_off_c, 0, 81, 59
1, 1368224, Note_on_c, 0, 57, 69
1, 1368229, Control_c, 0, 67, 47
1, 1368231, Note_on_c, 0, 72, 39
1, 1368256, Note_off_c, 0, 57, 61
1, 1368258, Control_c, 0, 67, 48
1, 1368264, Note_off_c, 0, 55, 59
1, 1368268, Note_off_c, 0, 72, 49
1, 1368314, Note_on_c, 0, 74, 58
1, 1368317, Control_c, 0, 67, 48
1, 1368361, Note_off_c, 0, 74, 57
1, 1368379, Note_off_c, 0, 78, 50
1, 1368467, Note_on_c, 0, 79, 60
1, 1368480, Note_on_c, 0, 55, 40
1, 1368486, Note_on_c, 0, 71, 50
1, 1368654, Note_off_c, 0, 71, 56
1, 1368697, Note_on_c, 0, 83, 54
1, 1368707, Note_off_c, 0, 55, 60
1, 1368709, Note_on_c, 0, 74, 41
1, 1368710, Note_on_c, 0, 50, 45
1, 1368738, Note_off_c, 0, 50, 59
1, 1368744, Note_off_c, 0, 79, 60
1, 1368764, Note_off_c, 0, 83, 59
1, 1368778, Note_off_c, 0, 74, 64
1, 1368814, Control_c, 0, 67, 49
1, 1368888, Control_c, 0, 67, 49
1, 1368903, Control_c, 0, 67, 50
1, 1368918, Control_c, 0, 64, 50
1, 1368933, Control_c, 0, 64, 59
1, 1368933, Control_c, 0, 67, 51
1, 1368948, Control_c, 0, 64, 61
1, 1368948, Control_c, 0, 67, 51
1, 1368963, Control_c, 0, 64, 62
1, 1368963, Control_c, 0, 67, 53
1, 1368978, Control_c, 0, 64, 63
1, 1368978, Control_c, 0, 67, 58
1, 1368986, Note_on_c, 0, 79, 77
1, 1368991, Note_on_c, 0, 71, 67
1, 1368993, Control_c, 0, 67, 65
1, 1368993, Note_on_c, 0, 67, 50
1, 1368999, Note_on_c, 0, 62, 51
1, 1369007, Control_c, 0, 64, 63
1, 1369007, Control_c, 0, 67, 70
1, 1369020, Note_off_c, 0, 71, 64
1, 1369021, Note_off_c, 0, 79, 56
1, 1369022, Control_c, 0, 67, 74
1, 1369025, Note_off_c, 0, 62, 58
1, 1369025, Note_off_c, 0, 67, 60
1, 1369037, Control_c, 0, 67, 76
1, 1369052, Control_c, 0, 67, 77
1, 1369066, Control_c, 0, 67, 78
1, 1369081, Control_c, 0, 67, 79
1, 1369088, Note_on_c, 0, 79, 62
1, 1369089, Note_on_c, 0, 67, 54
1, 1369090, Note_on_c, 0, 71, 60
1, 1369095, Note_on_c, 0, 62, 50
1, 1369096, Control_c, 0, 64, 63
1, 1369096, Control_c, 0, 67, 81
1, 1369110, Note_off_c, 0, 79, 61
1, 1369111, Control_c, 0, 67, 82
1, 1369118, Note_off_c, 0, 67, 60
1, 1369119, Note_off_c, 0, 62, 59
1, 1369121, Note_off_c, 0, 71, 61
1, 1369126, Control_c, 0, 64, 62
1, 1369126, Control_c, 0, 67, 82
1, 1369140, Control_c, 0, 64, 62
1, 1369140, Control_c, 0, 67, 83
1, 1369155, Control_c, 0, 64, 61
1, 1369155, Control_c, 0, 67, 85
1, 1369170, Control_c, 0, 64, 61
1, 1369170, Control_c, 0, 67, 86
1, 1369173, Note_on_c, 0, 79, 69
1, 1369185, Control_c, 0, 64, 60
1, 1369185, Control_c, 0, 67, 88
1, 1369186, Note_on_c, 0, 71, 62
1, 1369191, Note_on_c, 0, 67, 46
1, 1369198, Note_on_c, 0, 62, 48
1, 1369200, Control_c, 0, 64, 60
1, 1369200, Control_c, 0, 67, 90
1, 1369202, Note_off_c, 0, 79, 60
1, 1369214, Control_c, 0, 64, 59
1, 1369214, Control_c, 0, 67, 91
1, 1369215, Note_off_c, 0, 71, 64
1, 1369216, Note_off_c, 0, 67, 57
1, 1369224, Note_off_c, 0, 62, 56
1, 1369229, Control_c, 0, 64, 57
1, 1369229, Control_c, 0, 67, 92
1, 1369244, Control_c, 0, 64, 56
1, 1369244, Control_c, 0, 67, 93
1, 1369258, Control_c, 0, 64, 55
1, 1369258, Control_c, 0, 67, 94
1, 1369266, Note_on_c, 0, 79, 63
1, 1369273, Note_on_c, 0, 71, 65
1, 1369273, Control_c, 0, 64, 54
1, 1369276, Note_on_c, 0, 67, 52
1, 1369276, Note_on_c, 0, 62, 53
1, 1369288, Control_c, 0, 64, 53
1, 1369288, Control_c, 0, 67, 95
1, 1369297, Note_off_c, 0, 79, 54
1, 1369303, Control_c, 0, 64, 51
1, 1369303, Control_c, 0, 67, 95
1, 1369307, Note_off_c, 0, 62, 57
1, 1369307, Note_off_c, 0, 67, 54
1, 1369307, Note_off_c, 0, 71, 62
1, 1369318, Control_c, 0, 64, 48
1, 1369318, Control_c, 0, 67, 96
1, 1369332, Control_c, 0, 64, 45
1, 1369332, Control_c, 0, 67, 97
1, 1369347, Control_c, 0, 64, 41
1, 1369347, Control_c, 0, 67, 98
1, 1369362, Control_c, 0, 64, 36
1, 1369362, Control_c, 0, 67, 100
1, 1369377, Control_c, 0, 64, 22
1, 1369377, Control_c, 0, 67, 101
1, 1369380, Note_on_c, 0, 79, 65
1, 1369393, Control_c, 0, 64, 0
1, 1369393, Control_c, 0, 67, 102
1, 1369407, Note_on_c, 0, 71, 44
1, 1369408, Control_c, 0, 67, 104
1, 1369423, Control_c, 0, 67, 105
1, 1369425, Note_on_c, 0, 67, 32
1, 1369430, Note_on_c, 0, 62, 32
1, 1369437, Control_c, 0, 67, 107
1, 1369452, Control_c, 0, 67, 109
1, 1369467, Control_c, 0, 67, 111
1, 1369481, Control_c, 0, 67, 112
1, 1369496, Control_c, 0, 67, 114
1, 1369519, Control_c, 0, 67, 115
1, 1369534, Control_c, 0, 67, 117
1, 1369549, Control_c, 0, 67, 118
1, 1369563, Control_c, 0, 67, 120
1, 1369578, Control_c, 0, 67, 122
1, 1369593, Control_c, 0, 67, 124
1, 1369608, Control_c, 0, 67, 127
1, 1369617, Note_on_c, 0, 76, 55
1, 1369617, Note_off_c, 0, 79, 56
1, 1369619, Note_off_c, 0, 71, 57
1, 1369623, Control_c, 0, 67, 127
1, 1369636, Note_on_c, 0, 72, 42
1, 1369844, Note_on_c, 0, 74, 46
1, 1369848, Note_off_c, 0, 72, 43
1, 1369851, Note_on_c, 0, 71, 40
1, 1369859, Note_off_c, 0, 76, 36
1, 1369883, Note_off_c, 0, 67, 60
1, 1369895, Note_off_c, 0, 74, 61
1, 1369912, Note_off_c, 0, 71, 60
1, 1369920, Note_off_c, 0, 62, 56
1, 1370113, Note_on_c, 0, 62, 63
1, 1370118, Note_on_c, 0, 50, 46
1, 1370119, Note_on_c, 0, 59, 47
1, 1370154, Note_off_c, 0, 59, 61
1, 1370158, Note_off_c, 0, 50, 53
1, 1370162, Note_off_c, 0, 62, 57
1, 1370390, Note_on_c, 0, 60, 43
1, 1370390, Note_on_c, 0, 64, 60
1, 1370401, Note_on_c, 0, 50, 33
1, 1370440, Note_off_c, 0, 50, 46
1, 1370440, Note_off_c, 0, 60, 42
1, 1370492, Note_on_c, 0, 60, 39
1, 1370504, Note_on_c, 0, 50, 27
1, 1370564, Note_off_c, 0, 50, 0
1, 1370572, Note_off_c, 0, 60, 0
1, 1370578, Note_on_c, 0, 50, 36
1, 1370585, Note_on_c, 0, 60, 40
1, 1370626, Note_off_c, 0, 60, 57
1, 1370634, Note_off_c, 0, 50, 49
1, 1370677, Note_on_c, 0, 50, 41
1, 1370686, Note_on_c, 0, 60, 48
1, 1370724, Note_off_c, 0, 60, 58
1, 1370726, Note_off_c, 0, 50, 54
1, 1370804, Note_on_c, 0, 60, 47
1, 1370805, Note_on_c, 0, 50, 26
1, 1370993, Note_off_c, 0, 60, 59
1, 1371033, Note_off_c, 0, 50, 58
1, 1371033, Note_off_c, 0, 64, 51
1, 1371041, Note_on_c, 0, 66, 58
1, 1371109, Note_off_c, 0, 66, 63
1, 1371123, Note_on_c, 0, 67, 63
1, 1371189, Note_off_c, 0, 67, 59
1, 1371219, Note_on_c, 0, 57, 56
1, 1371225, Note_on_c, 0, 66, 64
1, 1371226, Note_on_c, 0, 50, 50
1, 1371253, Note_off_c, 0, 50, 60
1, 1371257, Note_off_c, 0, 57, 59
1, 1371289, Note_off_c, 0, 66, 41
1, 1371311, Note_on_c, 0, 67, 65
1, 1371319, Note_on_c, 0, 57, 58
1, 1371325, Note_on_c, 0, 50, 50
1, 1371353, Note_off_c, 0, 57, 61
1, 1371356, Note_off_c, 0, 50, 59
1, 1371369, Note_off_c, 0, 67, 60
1, 1371411, Note_on_c, 0, 69, 65
1, 1371416, Note_on_c, 0, 57, 61
1, 1371417, Note_on_c, 0, 50, 49
1, 1371446, Note_off_c, 0, 50, 61
1, 1371452, Note_off_c, 0, 57, 57
1, 1371458, Note_off_c, 0, 69, 55
1, 1371502, Note_on_c, 0, 71, 62
1, 1371511, Note_on_c, 0, 57, 45
1, 1371522, Note_on_c, 0, 50, 44
1, 1371535, Note_off_c, 0, 57, 57
1, 1371538, Note_off_c, 0, 71, 59
1, 1371552, Note_off_c, 0, 50, 51
1, 1371613, Note_on_c, 0, 72, 65
1, 1371625, Note_on_c, 0, 54, 37
1, 1371628, Note_on_c, 0, 50, 35
1, 1371649, Note_off_c, 0, 72, 61
1, 1371773, Note_off_c, 0, 54, 52
1, 1371791, Note_off_c, 0, 50, 59
1, 1371842, Note_on_c, 0, 74, 56
1, 1371884, Note_off_c, 0, 74, 58
1, 1372032, Control_c, 0, 64, 32
1, 1372047, Control_c, 0, 64, 57
1, 1372050, Note_on_c, 0, 43, 46
1, 1372056, Note_on_c, 0, 71, 40
1, 1372062, Control_c, 0, 64, 63
1, 1372077, Control_c, 0, 64, 64
1, 1372091, Control_c, 0, 64, 65
1, 1372092, Note_on_c, 0, 67, 18
1, 1372106, Control_c, 0, 64, 68
1, 1372121, Control_c, 0, 64, 71
1, 1372136, Note_on_c, 0, 50, 51
1, 1372136, Control_c, 0, 64, 72
1, 1372140, Note_off_c, 0, 43, 57
1, 1372151, Control_c, 0, 64, 73
1, 1372182, Note_off_c, 0, 50, 62
1, 1372221, Note_on_c, 0, 47, 46
1, 1372242, Note_on_c, 0, 55, 42
1, 1372251, Note_off_c, 0, 47, 52
1, 1372271, Note_off_c, 0, 55, 60
1, 1372324, Note_on_c, 0, 57, 62
1, 1372361, Note_off_c, 0, 57, 46
1, 1372388, Control_c, 0, 64, 72
1, 1372402, Control_c, 0, 64, 66
1, 1372417, Control_c, 0, 64, 53
1, 1372432, Note_on_c, 0, 55, 53
1, 1372432, Control_c, 0, 64, 0
1, 1372436, Note_on_c, 0, 59, 49
1, 1372454, Note_off_c, 0, 55, 64
1, 1372460, Note_off_c, 0, 67, 42
1, 1372462, Note_off_c, 0, 59, 57
1, 1372621, Note_off_c, 0, 71, 63
1, 1372644, Note_on_c, 0, 72, 60
1, 1372650, Note_on_c, 0, 69, 53
1, 1372662, Note_on_c, 0, 43, 50
1, 1372689, Note_off_c, 0, 43, 55
1, 1372691, Note_off_c, 0, 69, 61
1, 1372731, Note_off_c, 0, 72, 64
1, 1372745, Note_on_c, 0, 71, 63
1, 1372749, Note_on_c, 0, 74, 61
1, 1372819, Note_off_c, 0, 71, 57
1, 1372838, Note_on_c, 0, 60, 63
1, 1372838, Note_on_c, 0, 76, 64
1, 1372843, Note_on_c, 0, 55, 55
1, 1372844, Note_off_c, 0, 74, 64
1, 1372866, Note_off_c, 0, 60, 65
1, 1372869, Note_off_c, 0, 76, 66
1, 1372871, Note_off_c, 0, 55, 65
1, 1372934, Note_on_c, 0, 78, 80
1, 1372936, Note_on_c, 0, 60, 63
1, 1372940, Note_on_c, 0, 55, 59
1, 1372961, Note_off_c, 0, 55, 64
1, 1372965, Note_off_c, 0, 60, 64
1, 1372995, Note_off_c, 0, 78, 55
1, 1373018, Note_on_c, 0, 79, 70
1, 1373026, Note_on_c, 0, 60, 65
1, 1373040, Note_on_c, 0, 55, 53
1, 1373044, Note_on_c, 0, 76, 46
1, 1373054, Note_off_c, 0, 60, 66
1, 1373064, Note_off_c, 0, 55, 59
1, 1373076, Note_off_c, 0, 76, 51
1, 1373086, Note_off_c, 0, 79, 56
1, 1373100, Note_on_c, 0, 81, 69
1, 1373109, Note_on_c, 0, 78, 68
1, 1373121, Note_on_c, 0, 60, 68
1, 1373127, Note_on_c, 0, 55, 49
1, 1373142, Note_off_c, 0, 81, 61
1, 1373146, Note_off_c, 0, 60, 67
1, 1373157, Note_off_c, 0, 55, 57
1, 1373165, Note_off_c, 0, 78, 63
1, 1373209, Note_on_c, 0, 71, 64
1, 1373209, Note_on_c, 0, 75, 71
1, 1373220, Note_on_c, 0, 52, 64
1, 1373220, Note_on_c, 0, 60, 59
1, 1373237, Note_off_c, 0, 71, 63
1, 1373240, Note_off_c, 0, 60, 64
1, 1373243, Note_off_c, 0, 75, 59
1, 1373266, Note_off_c, 0, 52, 64
1, 1373369, Note_on_c, 0, 78, 61
1, 1373407, Note_on_c, 0, 48, 50
1, 1373423, Note_on_c, 0, 76, 69
1, 1373431, Note_on_c, 0, 72, 56
1, 1373432, Note_off_c, 0, 48, 56
1, 1373443, Note_off_c, 0, 78, 50
1, 1373459, Note_off_c, 0, 72, 61
1, 1373476, Note_off_c, 0, 76, 64
1, 1373609, Note_on_c, 0, 74, 59
1, 1373616, Note_on_c, 0, 71, 53
1, 1373623, Note_on_c, 0, 55, 47
1, 1373663, Control_c, 0, 64, 38
1, 1373678, Note_off_c, 0, 55, 64
1, 1373678, Control_c, 0, 64, 57
1, 1373693, Control_c, 0, 64, 61
1, 1373702, Note_on_c, 0, 57, 67
1, 1373708, Control_c, 0, 64, 61
1, 1373723, Control_c, 0, 64, 62
1, 1373735, Note_on_c, 0, 50, 31
1, 1373737, Control_c, 0, 64, 63
1, 1373752, Control_c, 0, 64, 63
1, 1373762, Note_off_c, 0, 57, 61
1, 1373776, Note_off_c, 0, 50, 54
1, 1373794, Note_on_c, 0, 59, 58
1, 1373822, Note_off_c, 0, 59, 64
1, 1373872, Note_on_c, 0, 60, 61
1, 1373881, Note_on_c, 0, 57, 49
1, 1373884, Note_off_c, 0, 74, 61
1, 1373902, Note_off_c, 0, 60, 54
1, 1373939, Note_off_c, 0, 71, 62
1, 1373943, Note_off_c, 0, 57, 56
1, 1373944, Control_c, 0, 64, 64
1, 1373974, Control_c, 0, 64, 63
1, 1373977, Note_on_c, 0, 59, 63
1, 1373989, Note_on_c, 0, 62, 51
1, 1373989, Control_c, 0, 64, 58
1, 1374010, Note_off_c, 0, 59, 66
1, 1374011, Control_c, 0, 64, 0
1, 1374019, Note_off_c, 0, 62, 58
1, 1374182, Note_on_c, 0, 62, 68
1, 1374206, Note_on_c, 0, 59, 49
1, 1374213, Note_on_c, 0, 50, 46
1, 1374234, Note_off_c, 0, 59, 60
1, 1374242, Note_off_c, 0, 50, 58
1, 1374269, Note_off_c, 0, 62, 61
1, 1374284, Note_on_c, 0, 67, 75
1, 1374348, Note_off_c, 0, 67, 59
1, 1374448, Note_on_c, 0, 64, 67
1, 1374476, Note_on_c, 0, 60, 43
1, 1374487, Note_on_c, 0, 50, 31
1, 1374501, Control_c, 0, 64, 10
1, 1374516, Control_c, 0, 64, 36
1, 1374519, Note_off_c, 0, 60, 46
1, 1374531, Control_c, 0, 64, 44
1, 1374546, Control_c, 0, 64, 48
1, 1374555, Note_off_c, 0, 50, 0
1, 1374560, Control_c, 0, 64, 48
1, 1374574, Note_on_c, 0, 50, 26
1, 1374583, Note_on_c, 0, 60, 42
1, 1374619, Control_c, 0, 64, 48
1, 1374626, Note_off_c, 0, 60, 50
1, 1374649, Control_c, 0, 64, 47
1, 1374672, Note_off_c, 0, 50, 0
1, 1374672, Note_on_c, 0, 50, 6
1, 1374679, Note_on_c, 0, 60, 42
1, 1374708, Control_c, 0, 64, 47
1, 1374713, Note_off_c, 0, 60, 53
1, 1374723, Control_c, 0, 64, 46
1, 1374738, Note_off_c, 0, 50, 0
1, 1374738, Control_c, 0, 64, 46
1, 1374767, Note_on_c, 0, 50, 22
1, 1374774, Control_c, 0, 64, 45
1, 1374779, Note_on_c, 0, 60, 48
1, 1374805, Note_off_c, 0, 60, 56
1, 1374816, Note_off_c, 0, 50, 51
1, 1374818, Control_c, 0, 64, 45
1, 1374878, Note_on_c, 0, 60, 54
1, 1374881, Note_on_c, 0, 50, 30
1, 1374955, Note_off_c, 0, 64, 48
1, 1374981, Note_on_c, 0, 76, 63
1, 1374996, Note_off_c, 0, 60, 61
1, 1375038, Note_off_c, 0, 50, 58
1, 1375077, Note_on_c, 0, 72, 66
1, 1375080, Note_off_c, 0, 76, 60
1, 1375136, Note_off_c, 0, 72, 64
1, 1375166, Note_on_c, 0, 69, 64
1, 1375241, Note_off_c, 0, 69, 45
1, 1375254, Note_on_c, 0, 57, 53
1, 1375258, Note_on_c, 0, 66, 67
1, 1375261, Note_on_c, 0, 50, 51
1, 1375293, Note_off_c, 0, 50, 58
1, 1375294, Note_off_c, 0, 57, 57
1, 1375323, Control_c, 0, 64, 44
1, 1375333, Note_off_c, 0, 66, 54
1, 1375351, Note_on_c, 0, 57, 54
1, 1375351, Note_on_c, 0, 67, 64
1, 1375353, Note_on_c, 0, 50, 45
1, 1375368, Control_c, 0, 64, 44
1, 1375381, Note_off_c, 0, 50, 60
1, 1375381, Note_off_c, 0, 57, 59
1, 1375382, Control_c, 0, 64, 43
1, 1375397, Control_c, 0, 64, 43
1, 1375405, Note_off_c, 0, 67, 61
1, 1375412, Control_c, 0, 64, 42
1, 1375445, Note_on_c, 0, 57, 63
1, 1375446, Note_on_c, 0, 69, 68
1, 1375449, Note_on_c, 0, 50, 54
1, 1375471, Control_c, 0, 64, 41
1, 1375483, Note_off_c, 0, 50, 63
1, 1375486, Control_c, 0, 64, 40
1, 1375488, Note_off_c, 0, 57, 51
1, 1375508, Control_c, 0, 64, 39
1, 1375523, Control_c, 0, 64, 39
1, 1375538, Control_c, 0, 64, 38
1, 1375540, Note_on_c, 0, 57, 51
1, 1375544, Note_on_c, 0, 71, 67
1, 1375552, Note_off_c, 0, 69, 42
1, 1375557, Note_on_c, 0, 50, 54
1, 1375568, Control_c, 0, 64, 38
1, 1375574, Note_off_c, 0, 57, 62
1, 1375580, Note_off_c, 0, 50, 61
1, 1375582, Control_c, 0, 64, 36
1, 1375589, Note_off_c, 0, 71, 57
1, 1375597, Control_c, 0, 64, 34
1, 1375612, Control_c, 0, 64, 33
1, 1375626, Control_c, 0, 64, 31
1, 1375641, Control_c, 0, 64, 27
1, 1375647, Note_on_c, 0, 72, 76
1, 1375649, Note_on_c, 0, 54, 55
1, 1375656, Control_c, 0, 64, 23
1, 1375667, Note_on_c, 0, 50, 57
1, 1375671, Control_c, 0, 64, 18
1, 1375686, Control_c, 0, 64, 8
1, 1375696, Note_off_c, 0, 72, 62
1, 1375700, Control_c, 0, 64, 0
1, 1375786, Note_off_c, 0, 54, 59
1, 1375801, Note_off_c, 0, 50, 63
1, 1375855, Note_on_c, 0, 74, 72
1, 1375903, Note_off_c, 0, 74, 61
1, 1376057, Control_c, 0, 64, 50
1, 1376062, Note_on_c, 0, 43, 48
1, 1376062, Note_on_c, 0, 71, 55
1, 1376066, Note_on_c, 0, 67, 41
1, 1376072, Control_c, 0, 64, 59
1, 1376087, Control_c, 0, 64, 60
1, 1376102, Control_c, 0, 64, 61
1, 1376116, Control_c, 0, 64, 61
1, 1376131, Control_c, 0, 64, 62
1, 1376141, Note_off_c, 0, 43, 61
1, 1376152, Note_on_c, 0, 50, 49
1, 1376191, Note_off_c, 0, 50, 64
1, 1376225, Note_on_c, 0, 47, 32
1, 1376237, Note_on_c, 0, 55, 49
1, 1376257, Control_c, 0, 64, 61
1, 1376269, Note_off_c, 0, 55, 63
1, 1376275, Note_off_c, 0, 47, 30
1, 1376302, Control_c, 0, 64, 61
1, 1376326, Note_on_c, 0, 57, 64
1, 1376348, Note_on_c, 0, 50, 22
1, 1376352, Note_off_c, 0, 57, 57
1, 1376389, Note_off_c, 0, 50, 51
1, 1376390, Control_c, 0, 64, 60
1, 1376405, Control_c, 0, 64, 48
1, 1376420, Control_c, 0, 64, 0
1, 1376421, Note_on_c, 0, 55, 60
1, 1376422, Note_on_c, 0, 59, 58
1, 1376450, Note_off_c, 0, 59, 65
1, 1376451, Note_off_c, 0, 55, 66
1, 1376519, Note_off_c, 0, 67, 44
1, 1376617, Note_off_c, 0, 71, 62
1, 1376633, Note_on_c, 0, 72, 64
1, 1376641, Note_on_c, 0, 69, 60
1, 1376646, Note_on_c, 0, 43, 61
1, 1376675, Note_off_c, 0, 43, 64
1, 1376697, Note_off_c, 0, 69, 63
1, 1376725, Note_off_c, 0, 72, 65
1, 1376742, Note_on_c, 0, 74, 54
1, 1376748, Note_on_c, 0, 71, 46
1, 1376821, Note_on_c, 0, 60, 64
1, 1376825, Note_on_c, 0, 76, 68
1, 1376829, Note_off_c, 0, 71, 48
1, 1376832, Note_off_c, 0, 74, 63
1, 1376835, Note_on_c, 0, 55, 52
1, 1376854, Note_off_c, 0, 60, 61
1, 1376861, Note_off_c, 0, 55, 65
1, 1376865, Note_off_c, 0, 76, 63
1, 1376866, Note_on_c, 0, 72, 28
1, 1376900, Note_off_c, 0, 72, 54
1, 1376928, Note_on_c, 0, 60, 55
1, 1376930, Note_on_c, 0, 55, 60
1, 1376932, Note_on_c, 0, 78, 77
1, 1376955, Note_off_c, 0, 55, 65
1, 1376956, Note_on_c, 0, 74, 34
1, 1376958, Note_off_c, 0, 60, 61
1, 1376982, Note_off_c, 0, 78, 62
1, 1376985, Note_off_c, 0, 74, 56
1, 1377017, Note_on_c, 0, 60, 64
1, 1377024, Note_on_c, 0, 79, 68
1, 1377026, Note_on_c, 0, 55, 65
1, 1377032, Note_on_c, 0, 76, 62
1, 1377048, Note_off_c, 0, 60, 62
1, 1377056, Note_off_c, 0, 76, 62
1, 1377061, Note_off_c, 0, 55, 59
1, 1377098, Note_off_c, 0, 79, 47
1, 1377101, Note_on_c, 0, 81, 69
1, 1377114, Note_on_c, 0, 55, 55
1, 1377115, Note_on_c, 0, 78, 66
1, 1377116, Note_on_c, 0, 60, 67
1, 1377136, Note_off_c, 0, 78, 68
1, 1377136, Note_off_c, 0, 81, 60
1, 1377142, Note_off_c, 0, 60, 65
1, 1377145, Note_off_c, 0, 55, 64
1, 1377207, Note_on_c, 0, 83, 79
1, 1377208, Note_on_c, 0, 79, 69
1, 1377211, Note_on_c, 0, 52, 70
1, 1377212, Note_on_c, 0, 60, 67
1, 1377232, Note_off_c, 0, 79, 65
1, 1377240, Note_off_c, 0, 60, 65
1, 1377272, Note_off_c, 0, 52, 54
1, 1377288, Note_off_c, 0, 83, 63
1, 1377296, Note_on_c, 0, 81, 65
1, 1377297, Note_on_c, 0, 84, 80
1, 1377313, Note_off_c, 0, 81, 65
1, 1377339, Note_off_c, 0, 84, 65
1, 1377375, Note_on_c, 0, 48, 53
1, 1377395, Note_on_c, 0, 86, 87
1, 1377396, Note_on_c, 0, 83, 73
1, 1377398, Note_off_c, 0, 48, 58
1, 1377433, Note_off_c, 0, 83, 53
1, 1377472, Note_on_c, 0, 88, 81
1, 1377474, Note_off_c, 0, 86, 64
1, 1377480, Note_on_c, 0, 84, 77
1, 1377582, Note_on_c, 0, 86, 82
1, 1377587, Note_on_c, 0, 83, 72
1, 1377598, Note_off_c, 0, 84, 61
1, 1377599, Note_on_c, 0, 55, 45
1, 1377604, Note_off_c, 0, 88, 58
1, 1377643, Control_c, 0, 64, 50
1, 1377650, Note_off_c, 0, 55, 64
1, 1377658, Control_c, 0, 64, 57
1, 1377672, Note_on_c, 0, 57, 66
1, 1377673, Control_c, 0, 64, 58
1, 1377688, Control_c, 0, 64, 59
1, 1377702, Control_c, 0, 64, 60
1, 1377704, Note_on_c, 0, 50, 34
1, 1377717, Control_c, 0, 64, 60
1, 1377732, Control_c, 0, 64, 61
1, 1377736, Note_off_c, 0, 57, 61
1, 1377753, Note_off_c, 0, 50, 63
1, 1377754, Control_c, 0, 64, 61
1, 1377772, Note_on_c, 0, 59, 60
1, 1377798, Note_off_c, 0, 59, 65
1, 1377798, Control_c, 0, 64, 62
1, 1377846, Note_on_c, 0, 60, 64
1, 1377860, Note_on_c, 0, 57, 54
1, 1377876, Note_off_c, 0, 60, 62
1, 1377896, Note_off_c, 0, 86, 63
1, 1377902, Control_c, 0, 64, 62
1, 1377912, Note_off_c, 0, 83, 61
1, 1377917, Control_c, 0, 64, 63
1, 1377918, Note_off_c, 0, 57, 54
1, 1377932, Control_c, 0, 64, 63
1, 1377947, Control_c, 0, 64, 64
1, 1377956, Note_on_c, 0, 59, 67
1, 1377957, Note_on_c, 0, 62, 61
1, 1377962, Control_c, 0, 64, 64
1, 1377976, Note_off_c, 0, 62, 64
1, 1377976, Control_c, 0, 64, 54
1, 1377980, Note_off_c, 0, 59, 68
1, 1377991, Control_c, 0, 64, 0
1, 1378160, Note_on_c, 0, 69, 68
1, 1378174, Note_on_c, 0, 38, 63
1, 1378204, Note_off_c, 0, 38, 65
1, 1378239, Note_off_c, 0, 69, 63
1, 1378250, Note_on_c, 0, 71, 62
1, 1378341, Note_off_c, 0, 71, 62
1, 1378356, Note_on_c, 0, 72, 66
1, 1378359, Note_on_c, 0, 54, 60
1, 1378361, Note_on_c, 0, 50, 56
1, 1378368, Note_on_c, 0, 69, 50
1, 1378381, Note_off_c, 0, 54, 62
1, 1378389, Note_off_c, 0, 50, 59
1, 1378399, Note_off_c, 0, 69, 64
1, 1378437, Note_off_c, 0, 72, 63
1, 1378446, Note_on_c, 0, 50, 49
1, 1378446, Note_on_c, 0, 54, 70
1, 1378450, Note_on_c, 0, 74, 62
1, 1378451, Note_on_c, 0, 71, 59
1, 1378472, Note_off_c, 0, 54, 65
1, 1378473, Note_off_c, 0, 50, 62
1, 1378523, Note_off_c, 0, 74, 62
1, 1378531, Note_on_c, 0, 54, 81
1, 1378531, Note_on_c, 0, 76, 62
1, 1378531, Note_off_c, 0, 71, 60
1, 1378539, Note_on_c, 0, 50, 71
1, 1378558, Note_off_c, 0, 76, 67
1, 1378569, Note_off_c, 0, 50, 67
1, 1378570, Note_off_c, 0, 54, 59
1, 1378597, Note_on_c, 0, 72, 41
1, 1378621, Note_on_c, 0, 54, 73
1, 1378625, Note_on_c, 0, 50, 68
1, 1378627, Note_on_c, 0, 78, 75
1, 1378642, Note_off_c, 0, 72, 51
1, 1378660, Note_off_c, 0, 50, 64
1, 1378664, Note_off_c, 0, 54, 60
1, 1378713, Note_off_c, 0, 78, 51
1, 1378714, Note_on_c, 0, 54, 70
1, 1378717, Note_on_c, 0, 76, 78
1, 1378718, Poly_aftertouch_c, 0, 74, 0
1, 1378721, Note_on_c, 0, 50, 67
1, 1378742, Note_off_c, 0, 54, 63
1, 1378755, Note_off_c, 0, 50, 67
1, 1378787, Note_off_c, 0, 76, 64
1, 1378810, Note_on_c, 0, 81, 70
1, 1378882, Note_on_c, 0, 38, 68
1, 1378890, Note_off_c, 0, 81, 59
1, 1378895, Note_on_c, 0, 79, 69
1, 1378910, Note_on_c, 0, 76, 65
1, 1378910, Note_off_c, 0, 38, 65
1, 1378950, Note_off_c, 0, 79, 63
1, 1378959, Note_off_c, 0, 76, 65
1, 1378982, Note_on_c, 0, 72, 71
1, 1379030, Note_off_c, 0, 72, 60
1, 1379075, Note_on_c, 0, 50, 55
1, 1379078, Note_on_c, 0, 74, 56
1, 1379082, Note_on_c, 0, 71, 64
1, 1379125, Note_off_c, 0, 50, 63
1, 1379174, Note_on_c, 0, 55, 49
1, 1379203, Note_off_c, 0, 55, 66
1, 1379260, Note_off_c, 0, 71, 38
1, 1379270, Note_on_c, 0, 59, 59
1, 1379273, Note_on_c, 0, 67, 56
1, 1379313, Note_off_c, 0, 67, 57
1, 1379339, Note_off_c, 0, 59, 56
1, 1379352, Note_on_c, 0, 69, 55
1, 1379411, Poly_aftertouch_c, 0, 62, 127
1, 1379437, Poly_aftertouch_c, 0, 62, 0
1, 1379438, Note_off_c, 0, 69, 58
1, 1379445, Note_off_c, 0, 74, 36
1, 1379456, Note_on_c, 0, 71, 58
1, 1379459, Note_on_c, 0, 67, 56
1, 1379479, Note_off_c, 0, 71, 66
1, 1379487, Note_off_c, 0, 67, 66
1, 1379637, Control_c, 0, 64, 63
1, 1379652, Control_c, 0, 64, 72
1, 1379667, Control_c, 0, 64, 66
1, 1379667, Control_c, 0, 67, 125
1, 1379673, Note_on_c, 0, 84, 92
1, 1379677, Note_on_c, 0, 81, 86
1, 1379682, Control_c, 0, 64, 0
1, 1379682, Control_c, 0, 67, 119
1, 1379684, Note_on_c, 0, 38, 69
1, 1379697, Control_c, 0, 67, 109
1, 1379712, Control_c, 0, 67, 95
1, 1379715, Note_off_c, 0, 38, 65
1, 1379727, Control_c, 0, 67, 81
1, 1379741, Control_c, 0, 67, 71
1, 1379756, Control_c, 0, 67, 66
1, 1379759, Note_off_c, 0, 81, 63
1, 1379772, Control_c, 0, 67, 63
1, 1379772, Note_on_c, 0, 79, 68
1, 1379774, Note_off_c, 0, 84, 61
1, 1379783, Note_on_c, 0, 83, 62
1, 1379786, Control_c, 0, 67, 63
1, 1379801, Control_c, 0, 67, 62
1, 1379814, Note_off_c, 0, 79, 55
1, 1379877, Note_on_c, 0, 60, 56
1, 1379879, Note_on_c, 0, 78, 62
1, 1379881, Note_off_c, 0, 83, 61
1, 1379882, Note_on_c, 0, 50, 57
1, 1379883, Note_on_c, 0, 81, 46
1, 1379906, Note_off_c, 0, 60, 64
1, 1379906, Note_off_c, 0, 81, 56
1, 1379908, Note_off_c, 0, 78, 65
1, 1379910, Note_off_c, 0, 50, 67
1, 1379964, Control_c, 0, 67, 62
1, 1379979, Control_c, 0, 67, 63
1, 1380001, Control_c, 0, 67, 64
1, 1380016, Control_c, 0, 67, 66
1, 1380031, Control_c, 0, 67, 68
1, 1380046, Control_c, 0, 67, 70
1, 1380061, Control_c, 0, 67, 72
1, 1380076, Control_c, 0, 67, 74
1, 1380078, Note_on_c, 0, 76, 79
1, 1380082, Note_on_c, 0, 72, 78
1, 1380082, Note_on_c, 0, 38, 67
1, 1380090, Control_c, 0, 67, 75
1, 1380105, Control_c, 0, 67, 77
1, 1380109, Note_off_c, 0, 38, 66
1, 1380135, Control_c, 0, 67, 77
1, 1380141, Note_off_c, 0, 72, 59
1, 1380156, Note_off_c, 0, 76, 60
1, 1380165, Control_c, 0, 67, 76
1, 1380171, Note_on_c, 0, 74, 61
1, 1380179, Note_on_c, 0, 71, 51
1, 1380210, Note_off_c, 0, 71, 56
1, 1380237, Note_off_c, 0, 74, 60
1, 1380263, Note_on_c, 0, 72, 58
1, 1380272, Note_on_c, 0, 54, 60
1, 1380280, Note_on_c, 0, 69, 48
1, 1380281, Note_off_c, 0, 72, 66
1, 1380283, Control_c, 0, 67, 75
1, 1380302, Note_off_c, 0, 54, 62
1, 1380312, Control_c, 0, 67, 74
1, 1380320, Note_off_c, 0, 69, 61
1, 1380356, Control_c, 0, 67, 75
1, 1380386, Control_c, 0, 67, 76
1, 1380401, Control_c, 0, 67, 76
1, 1380415, Control_c, 0, 67, 77
1, 1380430, Control_c, 0, 67, 78
1, 1380445, Control_c, 0, 67, 79
1, 1380460, Control_c, 0, 67, 79
1, 1380464, Note_on_c, 0, 79, 85
1, 1380469, Note_on_c, 0, 38, 61
1, 1380475, Control_c, 0, 67, 81
1, 1380486, Note_on_c, 0, 71, 55
1, 1380490, Control_c, 0, 67, 84
1, 1380490, Note_on_c, 0, 69, 41
1, 1380499, Note_off_c, 0, 38, 65
1, 1380505, Control_c, 0, 67, 86
1, 1380516, Note_off_c, 0, 71, 64
1, 1380517, Note_off_c, 0, 69, 56
1, 1380520, Control_c, 0, 67, 88
1, 1380535, Control_c, 0, 67, 89
1, 1380553, Note_on_c, 0, 81, 74
1, 1380565, Note_off_c, 0, 79, 59
1, 1380609, Control_c, 0, 67, 88
1, 1380639, Control_c, 0, 67, 87
1, 1380653, Note_on_c, 0, 83, 67
1, 1380662, Note_off_c, 0, 81, 60
1, 1380671, Note_on_c, 0, 55, 53
1, 1380672, Note_on_c, 0, 79, 50
1, 1380684, Note_off_c, 0, 83, 61
1, 1380694, Note_off_c, 0, 79, 57
1, 1380699, Note_off_c, 0, 55, 63
1, 1380713, Control_c, 0, 67, 88
1, 1380794, Control_c, 0, 67, 88
1, 1380809, Control_c, 0, 67, 89
1, 1380824, Control_c, 0, 67, 90
1, 1380839, Control_c, 0, 67, 90
1, 1380853, Control_c, 0, 67, 91
1, 1380854, Note_on_c, 0, 74, 64
1, 1380856, Note_on_c, 0, 38, 51
1, 1380868, Control_c, 0, 67, 93
1, 1380871, Note_on_c, 0, 71, 57
1, 1380883, Control_c, 0, 67, 95
1, 1380889, Note_off_c, 0, 38, 52
1, 1380898, Control_c, 0, 67, 96
1, 1380903, Note_off_c, 0, 71, 64
1, 1380913, Control_c, 0, 67, 97
1, 1380931, Note_off_c, 0, 74, 61
1, 1380962, Note_on_c, 0, 72, 58
1, 1380965, Note_on_c, 0, 69, 45
1, 1380986, Control_c, 0, 67, 97
1, 1381001, Control_c, 0, 67, 98
1, 1381026, Note_off_c, 0, 69, 61
1, 1381031, Control_c, 0, 67, 99
1, 1381045, Control_c, 0, 67, 100
1, 1381059, Note_on_c, 0, 71, 57
1, 1381060, Control_c, 0, 67, 102
1, 1381061, Note_off_c, 0, 72, 59
1, 1381074, Note_on_c, 0, 67, 38
1, 1381075, Control_c, 0, 67, 103
1, 1381089, Note_off_c, 0, 71, 64
1, 1381090, Control_c, 0, 67, 104
1, 1381104, Note_off_c, 0, 67, 58
1, 1381105, Control_c, 0, 67, 104
1, 1381119, Control_c, 0, 67, 105
1, 1381260, Note_on_c, 0, 59, 51
1, 1381266, Note_on_c, 0, 62, 62
1, 1381268, Control_c, 0, 64, 8
1, 1381283, Control_c, 0, 64, 34
1, 1381289, Note_on_c, 0, 50, 43
1, 1381298, Control_c, 0, 64, 45
1, 1381313, Control_c, 0, 64, 52
1, 1381327, Control_c, 0, 64, 56
1, 1381342, Control_c, 0, 64, 59
1, 1381342, Control_c, 0, 67, 104
1, 1381357, Control_c, 0, 64, 60
1, 1381357, Control_c, 0, 67, 104
1, 1381372, Control_c, 0, 64, 61
1, 1381387, Control_c, 0, 67, 103
1, 1381398, Note_on_c, 0, 67, 61
1, 1381405, Note_off_c, 0, 62, 57
1, 1381529, Control_c, 0, 64, 60
1, 1381534, Note_on_c, 0, 60, 52
1, 1381536, Note_on_c, 0, 64, 62
1, 1381543, Control_c, 0, 64, 59
1, 1381552, Note_off_c, 0, 67, 52
1, 1381558, Control_c, 0, 64, 59
1, 1381573, Control_c, 0, 64, 58
1, 1381575, Note_off_c, 0, 59, 59
1, 1381588, Control_c, 0, 64, 58
1, 1381602, Control_c, 0, 64, 57
1, 1381617, Control_c, 0, 64, 57
1, 1381632, Control_c, 0, 64, 56
1, 1381638, Note_off_c, 0, 50, 55
1, 1381648, Note_off_c, 0, 64, 63
1, 1381652, Note_on_c, 0, 69, 63
1, 1381655, Note_off_c, 0, 60, 55
1, 1381661, Control_c, 0, 64, 55
1, 1381676, Control_c, 0, 64, 55
1, 1381691, Control_c, 0, 64, 54
1, 1381706, Control_c, 0, 64, 54
1, 1381721, Control_c, 0, 64, 53
1, 1381745, Note_on_c, 0, 62, 65
1, 1381750, Note_on_c, 0, 59, 42
1, 1381753, Note_on_c, 0, 50, 57
1, 1381810, Control_c, 0, 64, 52
1, 1381814, Note_off_c, 0, 50, 56
1, 1381823, Note_off_c, 0, 62, 55
1, 1381824, Note_off_c, 0, 69, 39
1, 1381837, Note_on_c, 0, 67, 65
1, 1381842, Note_off_c, 0, 59, 39
1, 1381869, Control_c, 0, 64, 52
1, 1381884, Control_c, 0, 64, 51
1, 1381929, Control_c, 0, 67, 104
1, 1381939, Note_off_c, 0, 67, 58
1, 1381940, Note_on_c, 0, 50, 47
1, 1381941, Note_on_c, 0, 64, 63
1, 1381943, Note_on_c, 0, 60, 57
1, 1381958, Control_c, 0, 64, 51
1, 1381973, Control_c, 0, 67, 104
1, 1381976, Note_off_c, 0, 50, 62
1, 1381980, Note_off_c, 0, 60, 60
1, 1382002, Control_c, 0, 67, 105
1, 1382017, Control_c, 0, 64, 50
1, 1382022, Note_on_c, 0, 69, 66
1, 1382032, Control_c, 0, 64, 50
1, 1382047, Control_c, 0, 64, 49
1, 1382058, Note_off_c, 0, 64, 50
1, 1382106, Control_c, 0, 67, 105
1, 1382121, Control_c, 0, 64, 49
1, 1382125, Note_on_c, 0, 66, 67
1, 1382126, Note_on_c, 0, 62, 44
1, 1382132, Note_on_c, 0, 50, 46
1, 1382135, Control_c, 0, 64, 48
1, 1382135, Control_c, 0, 67, 106
1, 1382154, Note_off_c, 0, 62, 54
1, 1382163, Note_off_c, 0, 50, 63
1, 1382165, Control_c, 0, 64, 48
1, 1382196, Control_c, 0, 64, 47
1, 1382204, Note_off_c, 0, 69, 51
1, 1382210, Control_c, 0, 64, 44
1, 1382216, Note_off_c, 0, 66, 62
1, 1382225, Control_c, 0, 64, 22
1, 1382228, Note_on_c, 0, 72, 60
1, 1382248, Control_c, 0, 64, 0
1, 1382292, Control_c, 0, 67, 105
1, 1382322, Control_c, 0, 67, 105
1, 1382324, Note_off_c, 0, 72, 63
1, 1382336, Note_on_c, 0, 71, 65
1, 1382342, Note_on_c, 0, 67, 55
1, 1382352, Control_c, 0, 64, 37
1, 1382355, Note_on_c, 0, 43, 53
1, 1382366, Control_c, 0, 64, 57
1, 1382366, Control_c, 0, 67, 104
1, 1382381, Control_c, 0, 64, 60
1, 1382411, Control_c, 0, 67, 104
1, 1382436, Note_on_c, 0, 50, 52
1, 1382436, Note_off_c, 0, 43, 56
1, 1382476, Note_off_c, 0, 50, 63
1, 1382506, Note_on_c, 0, 47, 47
1, 1382536, Note_off_c, 0, 47, 53
1, 1382544, Note_on_c, 0, 55, 28
1, 1382584, Note_off_c, 0, 55, 42
1, 1382607, Note_on_c, 0, 57, 68
1, 1382633, Note_on_c, 0, 50, 33
1, 1382636, Note_off_c, 0, 57, 55
1, 1382663, Control_c, 0, 64, 61
1, 1382669, Note_off_c, 0, 50, 56
1, 1382678, Control_c, 0, 64, 61
1, 1382692, Control_c, 0, 64, 62
1, 1382707, Note_on_c, 0, 55, 57
1, 1382707, Control_c, 0, 64, 58
1, 1382707, Control_c, 0, 67, 104
1, 1382712, Note_on_c, 0, 59, 56
1, 1382722, Control_c, 0, 64, 42
1, 1382734, Note_off_c, 0, 59, 62
1, 1382736, Note_off_c, 0, 55, 66
1, 1382737, Control_c, 0, 64, 0
1, 1382737, Control_c, 0, 67, 105
1, 1382740, Note_off_c, 0, 67, 45
1, 1382774, Note_off_c, 0, 71, 62
1, 1382909, Note_on_c, 0, 69, 66
1, 1382910, Note_on_c, 0, 72, 69
1, 1382924, Note_on_c, 0, 43, 59
1, 1382944, Note_off_c, 0, 69, 63
1, 1382952, Note_off_c, 0, 43, 62
1, 1382997, Note_off_c, 0, 72, 58
1, 1383008, Note_on_c, 0, 71, 70
1, 1383021, Note_on_c, 0, 74, 62
1, 1383089, Note_off_c, 0, 71, 56
1, 1383105, Note_off_c, 0, 74, 62
1, 1383107, Note_on_c, 0, 76, 65
1, 1383108, Note_on_c, 0, 60, 67
1, 1383113, Note_on_c, 0, 55, 62
1, 1383130, Control_c, 0, 64, 10
1, 1383134, Note_off_c, 0, 76, 66
1, 1383137, Note_off_c, 0, 60, 64
1, 1383137, Note_on_c, 0, 72, 35
1, 1383141, Note_off_c, 0, 55, 66
1, 1383145, Control_c, 0, 64, 14
1, 1383160, Control_c, 0, 64, 15
1, 1383166, Note_off_c, 0, 72, 55
1, 1383199, Note_on_c, 0, 78, 78
1, 1383204, Note_on_c, 0, 60, 62
1, 1383206, Note_on_c, 0, 55, 68
1, 1383233, Note_off_c, 0, 55, 66
1, 1383235, Note_off_c, 0, 60, 65
1, 1383248, Control_c, 0, 64, 14
1, 1383263, Control_c, 0, 64, 12
1, 1383271, Note_off_c, 0, 78, 46
1, 1383296, Note_on_c, 0, 55, 66
1, 1383297, Note_on_c, 0, 79, 55
1, 1383298, Note_on_c, 0, 60, 64
1, 1383298, Note_on_c, 0, 76, 64
1, 1383322, Control_c, 0, 64, 10
1, 1383323, Note_off_c, 0, 60, 67
1, 1383331, Note_off_c, 0, 55, 61
1, 1383337, Note_off_c, 0, 76, 58
1, 1383337, Control_c, 0, 64, 0
1, 1383372, Note_on_c, 0, 81, 65
1, 1383376, Note_on_c, 0, 78, 76
1, 1383387, Note_on_c, 0, 60, 74
1, 1383389, Note_off_c, 0, 79, 55
1, 1383391, Note_on_c, 0, 55, 55
1, 1383399, Note_off_c, 0, 78, 69
1, 1383408, Note_off_c, 0, 81, 61
1, 1383414, Note_off_c, 0, 60, 63
1, 1383420, Note_off_c, 0, 55, 67
1, 1383482, Note_on_c, 0, 83, 83
1, 1383483, Note_on_c, 0, 79, 76
1, 1383489, Note_on_c, 0, 52, 69
1, 1383495, Note_on_c, 0, 60, 56
1, 1383504, Note_off_c, 0, 79, 68
1, 1383515, Note_off_c, 0, 60, 62
1, 1383536, Note_off_c, 0, 52, 59
1, 1383565, Note_off_c, 0, 83, 63
1, 1383571, Note_on_c, 0, 81, 68
1, 1383571, Note_on_c, 0, 84, 77
1, 1383589, Control_c, 0, 67, 104
1, 1383597, Note_off_c, 0, 81, 65
1, 1383614, Note_off_c, 0, 84, 65
1, 1383641, Note_on_c, 0, 48, 63
1, 1383667, Note_on_c, 0, 86, 86
1, 1383668, Note_on_c, 0, 83, 76
1, 1383671, Note_off_c, 0, 48, 63
1, 1383678, Control_c, 0, 67, 105
1, 1383706, Note_off_c, 0, 83, 57
1, 1383745, Control_c, 0, 67, 105
1, 1383757, Note_off_c, 0, 86, 64
1, 1383757, Note_on_c, 0, 88, 80
1, 1383765, Note_on_c, 0, 84, 78
1, 1383860, Note_on_c, 0, 86, 86
1, 1383863, Note_on_c, 0, 83, 78
1, 1383867, Note_on_c, 0, 55, 58
1, 1383873, Note_off_c, 0, 84, 62
1, 1383877, Note_off_c, 0, 88, 59
1, 1383909, Control_c, 0, 64, 44
1, 1383924, Control_c, 0, 64, 58
1, 1383928, Note_off_c, 0, 55, 63
1, 1383938, Control_c, 0, 64, 62
1, 1383948, Note_on_c, 0, 57, 65
1, 1383953, Control_c, 0, 64, 62
1, 1383968, Control_c, 0, 64, 63
1, 1383976, Note_on_c, 0, 50, 39
1, 1383983, Control_c, 0, 64, 63
1, 1384008, Note_off_c, 0, 57, 63
1, 1384011, Note_off_c, 0, 50, 63
1, 1384027, Control_c, 0, 64, 64
1, 1384042, Note_on_c, 0, 59, 57
1, 1384063, Note_off_c, 0, 59, 63
1, 1384071, Control_c, 0, 64, 64
1, 1384116, Control_c, 0, 64, 65
1, 1384123, Note_on_c, 0, 57, 55
1, 1384123, Note_off_c, 0, 86, 62
1, 1384124, Note_on_c, 0, 60, 53
1, 1384131, Control_c, 0, 64, 65
1, 1384139, Note_off_c, 0, 83, 59
1, 1384145, Control_c, 0, 64, 67
1, 1384147, Note_off_c, 0, 60, 57
1, 1384160, Control_c, 0, 64, 69
1, 1384175, Control_c, 0, 64, 70
1, 1384204, Control_c, 0, 64, 66
1, 1384219, Control_c, 0, 64, 53
1, 1384221, Note_on_c, 0, 59, 69
1, 1384223, Note_on_c, 0, 62, 64
1, 1384231, Note_off_c, 0, 57, 47
1, 1384234, Control_c, 0, 64, 0
1, 1384243, Note_off_c, 0, 62, 64
1, 1384244, Note_off_c, 0, 59, 67
1, 1384279, Control_c, 0, 67, 106
1, 1384323, Control_c, 0, 67, 106
1, 1384338, Control_c, 0, 67, 107
1, 1384397, Control_c, 0, 67, 107
1, 1384412, Control_c, 0, 67, 108
1, 1384422, Note_on_c, 0, 69, 63
1, 1384427, Control_c, 0, 67, 113
1, 1384432, Note_on_c, 0, 38, 65
1, 1384442, Control_c, 0, 67, 117
1, 1384456, Control_c, 0, 67, 120
1, 1384457, Note_off_c, 0, 38, 66
1, 1384471, Control_c, 0, 67, 121
1, 1384493, Control_c, 0, 67, 122
1, 1384498, Note_off_c, 0, 69, 65
1, 1384508, Control_c, 0, 67, 123
1, 1384511, Note_on_c, 0, 71, 60
1, 1384523, Control_c, 0, 67, 124
1, 1384553, Control_c, 0, 67, 124
1, 1384598, Control_c, 0, 67, 125
1, 1384605, Note_off_c, 0, 71, 62
1, 1384616, Note_on_c, 0, 72, 65
1, 1384623, Note_on_c, 0, 54, 63
1, 1384627, Control_c, 0, 67, 125
1, 1384628, Note_on_c, 0, 50, 50
1, 1384629, Note_on_c, 0, 69, 52
1, 1384642, Control_c, 0, 67, 127
1, 1384652, Note_off_c, 0, 54, 64
1, 1384655, Note_off_c, 0, 50, 55
1, 1384657, Control_c, 0, 67, 127
1, 1384661, Note_off_c, 0, 69, 67
1, 1384695, Note_off_c, 0, 72, 60
1, 1384712, Note_on_c, 0, 54, 69
1, 1384712, Note_on_c, 0, 71, 60
1, 1384714, Note_on_c, 0, 74, 60
1, 1384724, Note_on_c, 0, 50, 43
1, 1384741, Note_off_c, 0, 54, 64
1, 1384753, Note_off_c, 0, 50, 48
1, 1384776, Note_off_c, 0, 71, 61
1, 1384780, Note_off_c, 0, 74, 63
1, 1384785, Note_on_c, 0, 76, 57
1, 1384796, Note_on_c, 0, 54, 78
1, 1384799, Note_on_c, 0, 50, 62
1, 1384807, Note_off_c, 0, 76, 66
1, 1384824, Note_off_c, 0, 54, 64
1, 1384832, Note_off_c, 0, 50, 65
1, 1384848, Note_on_c, 0, 72, 47
1, 1384878, Note_on_c, 0, 78, 78
1, 1384881, Note_on_c, 0, 54, 72
1, 1384883, Note_off_c, 0, 72, 53
1, 1384884, Note_on_c, 0, 50, 63
1, 1384911, Note_off_c, 0, 54, 62
1, 1384917, Note_off_c, 0, 50, 62
1, 1384958, Note_off_c, 0, 78, 57
1, 1384967, Note_on_c, 0, 76, 75
1, 1384975, Note_on_c, 0, 54, 68
1, 1384978, Note_on_c, 0, 72, 34
1, 1384988, Note_on_c, 0, 50, 68
1, 1385006, Note_off_c, 0, 54, 65
1, 1385006, Note_off_c, 0, 72, 54
1, 1385020, Note_off_c, 0, 50, 66
1, 1385035, Note_off_c, 0, 76, 62
1, 1385060, Note_on_c, 0, 81, 68
1, 1385134, Note_off_c, 0, 81, 58
1, 1385148, Note_on_c, 0, 79, 65
1, 1385152, Note_on_c, 0, 38, 56
1, 1385172, Note_on_c, 0, 76, 61
1, 1385182, Note_off_c, 0, 38, 62
1, 1385206, Note_off_c, 0, 79, 61
1, 1385209, Note_off_c, 0, 76, 65
1, 1385256, Note_on_c, 0, 72, 59
1, 1385287, Note_off_c, 0, 72, 65
1, 1385341, Note_on_c, 0, 74, 53
1, 1385346, Note_on_c, 0, 50, 52
1, 1385355, Note_on_c, 0, 71, 57
1, 1385386, Note_off_c, 0, 50, 64
1, 1385443, Note_on_c, 0, 55, 55
1, 1385473, Note_off_c, 0, 55, 66
1, 1385502, Note_off_c, 0, 71, 37
1, 1385528, Note_on_c, 0, 67, 53
1, 1385549, Note_on_c, 0, 59, 45
1, 1385564, Note_off_c, 0, 67, 60
1, 1385613, Note_off_c, 0, 59, 61
1, 1385621, Note_on_c, 0, 69, 44
1, 1385623, Note_on_c, 0, 62, 50
1, 1385657, Note_off_c, 0, 62, 53
1, 1385687, Note_off_c, 0, 69, 59
1, 1385704, Note_on_c, 0, 71, 62
1, 1385713, Note_on_c, 0, 67, 56
1, 1385716, Note_off_c, 0, 74, 46
1, 1385731, Note_off_c, 0, 71, 66
1, 1385736, Note_off_c, 0, 67, 65
1, 1385865, Control_c, 0, 64, 24
1, 1385880, Control_c, 0, 64, 62
1, 1385895, Control_c, 0, 64, 63
1, 1385909, Control_c, 0, 64, 49
1, 1385922, Note_on_c, 0, 81, 88
1, 1385923, Note_on_c, 0, 84, 89
1, 1385924, Control_c, 0, 64, 0
1, 1385937, Note_on_c, 0, 38, 61
1, 1385967, Note_off_c, 0, 38, 65
1, 1386018, Note_off_c, 0, 81, 63
1, 1386025, Note_off_c, 0, 84, 59
1, 1386031, Note_on_c, 0, 79, 71
1, 1386031, Note_on_c, 0, 83, 66
1, 1386076, Note_off_c, 0, 79, 54
1, 1386095, Control_c, 0, 67, 127
1, 1386109, Control_c, 0, 67, 115
1, 1386124, Control_c, 0, 67, 101
1, 1386129, Note_on_c, 0, 78, 70
1, 1386130, Note_on_c, 0, 60, 58
1, 1386131, Note_on_c, 0, 81, 57
1, 1386134, Note_on_c, 0, 50, 59
1, 1386134, Note_off_c, 0, 83, 61
1, 1386139, Control_c, 0, 67, 86
1, 1386151, Note_off_c, 0, 81, 63
1, 1386154, Note_off_c, 0, 60, 63
1, 1386154, Control_c, 0, 67, 73
1, 1386163, Note_off_c, 0, 78, 62
1, 1386163, Note_off_c, 0, 50, 65
1, 1386170, Control_c, 0, 67, 62
1, 1386184, Control_c, 0, 67, 57
1, 1386199, Control_c, 0, 67, 55
1, 1386214, Control_c, 0, 67, 54
1, 1386244, Control_c, 0, 67, 55
1, 1386258, Control_c, 0, 67, 57
1, 1386273, Control_c, 0, 67, 60
1, 1386288, Control_c, 0, 67, 63
1, 1386303, Control_c, 0, 67, 65
1, 1386315, Note_on_c, 0, 76, 80
1, 1386317, Note_on_c, 0, 72, 78
1, 1386318, Control_c, 0, 67, 67
1, 1386319, Note_on_c, 0, 38, 72
1, 1386332, Control_c, 0, 67, 69
1, 1386341, Note_off_c, 0, 38, 67
1, 1386347, Control_c, 0, 67, 70
1, 1386362, Control_c, 0, 67, 71
1, 1386374, Note_off_c, 0, 72, 57
1, 1386392, Control_c, 0, 67, 72
1, 1386392, Note_off_c, 0, 76, 63
1, 1386407, Control_c, 0, 67, 71
1, 1386411, Note_on_c, 0, 71, 56
1, 1386411, Note_on_c, 0, 74, 59
1, 1386458, Note_off_c, 0, 71, 53
1, 1386466, Control_c, 0, 67, 72
1, 1386477, Note_off_c, 0, 74, 61
1, 1386496, Control_c, 0, 67, 71
1, 1386500, Note_on_c, 0, 72, 63
1, 1386511, Control_c, 0, 67, 71
1, 1386511, Note_on_c, 0, 54, 61
1, 1386521, Note_on_c, 0, 69, 51
1, 1386526, Control_c, 0, 67, 70
1, 1386529, Note_on_c, 0, 50, 34
1, 1386533, Note_off_c, 0, 72, 64
1, 1386540, Control_c, 0, 67, 69
1, 1386543, Note_off_c, 0, 54, 62
1, 1386544, Note_off_c, 0, 69, 63
1, 1386555, Control_c, 0, 67, 69
1, 1386564, Note_off_c, 0, 50, 32
1, 1386570, Control_c, 0, 67, 68
1, 1386629, Control_c, 0, 67, 69
1, 1386644, Control_c, 0, 67, 69
1, 1386658, Control_c, 0, 67, 70
1, 1386673, Control_c, 0, 67, 71
1, 1386688, Control_c, 0, 67, 72
1, 1386691, Note_on_c, 0, 79, 88
1, 1386697, Note_on_c, 0, 38, 60
1, 1386698, Note_on_c, 0, 71, 72
1, 1386702, Control_c, 0, 67, 73
1, 1386717, Control_c, 0, 67, 73
1, 1386725, Note_off_c, 0, 38, 65
1, 1386736, Note_off_c, 0, 71, 63
1, 1386740, Control_c, 0, 67, 74
1, 1386755, Control_c, 0, 67, 76
1, 1386770, Control_c, 0, 67, 77
1, 1386783, Note_off_c, 0, 79, 54
1, 1386789, Note_on_c, 0, 81, 74
1, 1386873, Control_c, 0, 67, 76
1, 1386890, Note_on_c, 0, 83, 61
1, 1386898, Note_on_c, 0, 79, 53
1, 1386898, Note_off_c, 0, 81, 58
1, 1386899, Note_on_c, 0, 55, 52
1, 1386911, Note_off_c, 0, 83, 64
1, 1386918, Note_off_c, 0, 79, 61
1, 1386934, Note_off_c, 0, 55, 64
1, 1386993, Control_c, 0, 67, 77
1, 1387007, Control_c, 0, 67, 77
1, 1387022, Control_c, 0, 67, 78
1, 1387052, Control_c, 0, 67, 79
1, 1387078, Note_on_c, 0, 74, 61
1, 1387079, Note_on_c, 0, 38, 57
1, 1387081, Note_on_c, 0, 71, 64
1, 1387081, Control_c, 0, 67, 82
1, 1387096, Control_c, 0, 67, 84
1, 1387106, Note_off_c, 0, 38, 57
1, 1387111, Control_c, 0, 67, 85
1, 1387124, Note_off_c, 0, 71, 59
1, 1387149, Note_off_c, 0, 74, 60
1, 1387180, Note_on_c, 0, 69, 49
1, 1387181, Note_on_c, 0, 72, 54
1, 1387230, Control_c, 0, 67, 85
1, 1387242, Note_off_c, 0, 69, 51
1, 1387260, Control_c, 0, 67, 86
1, 1387274, Note_on_c, 0, 71, 59
1, 1387285, Note_off_c, 0, 72, 58
1, 1387290, Note_on_c, 0, 67, 45
1, 1387308, Note_off_c, 0, 71, 62
1, 1387321, Note_off_c, 0, 67, 58
1, 1387333, Control_c, 0, 67, 85
1, 1387407, Control_c, 0, 67, 86
1, 1387532, Control_c, 0, 67, 85
1, 1387540, Note_on_c, 0, 62, 60
1, 1387546, Control_c, 0, 64, 19
1, 1387546, Control_c, 0, 67, 85
1, 1387551, Note_on_c, 0, 59, 40
1, 1387561, Control_c, 0, 64, 31
1, 1387576, Control_c, 0, 64, 38
1, 1387576, Control_c, 0, 67, 84
1, 1387591, Control_c, 0, 64, 45
1, 1387591, Control_c, 0, 67, 84
1, 1387592, Note_on_c, 0, 50, 23
1, 1387605, Control_c, 0, 64, 49
1, 1387620, Control_c, 0, 64, 51
1, 1387620, Control_c, 0, 67, 83
1, 1387635, Control_c, 0, 64, 54
1, 1387635, Control_c, 0, 67, 83
1, 1387650, Control_c, 0, 64, 55
1, 1387665, Control_c, 0, 64, 57
1, 1387680, Control_c, 0, 64, 58
1, 1387695, Control_c, 0, 64, 58
1, 1387704, Note_off_c, 0, 62, 56
1, 1387708, Note_on_c, 0, 67, 57
1, 1387725, Control_c, 0, 64, 59
1, 1387739, Control_c, 0, 67, 82
1, 1387833, Note_on_c, 0, 60, 46
1, 1387844, Note_on_c, 0, 64, 63
1, 1387871, Note_off_c, 0, 67, 39
1, 1387874, Control_c, 0, 64, 58
1, 1387875, Note_off_c, 0, 59, 54
1, 1387889, Control_c, 0, 67, 82
1, 1387966, Note_on_c, 0, 69, 63
1, 1387969, Note_off_c, 0, 64, 64
1, 1387974, Note_off_c, 0, 50, 41
1, 1387977, Control_c, 0, 64, 58
1, 1387996, Note_off_c, 0, 60, 55
1, 1388064, Note_on_c, 0, 62, 69
1, 1388066, Note_on_c, 0, 59, 43
1, 1388070, Note_on_c, 0, 50, 54
1, 1388112, Note_off_c, 0, 69, 58
1, 1388151, Note_off_c, 0, 50, 58
1, 1388154, Note_on_c, 0, 67, 72
1, 1388154, Note_off_c, 0, 62, 60
1, 1388231, Note_off_c, 0, 59, 31
1, 1388256, Note_on_c, 0, 64, 73
1, 1388265, Note_on_c, 0, 60, 59
1, 1388266, Note_on_c, 0, 50, 50
1, 1388279, Note_off_c, 0, 67, 56
1, 1388305, Note_off_c, 0, 50, 62
1, 1388312, Note_off_c, 0, 60, 57
1, 1388325, Control_c, 0, 64, 58
1, 1388345, Note_on_c, 0, 69, 73
1, 1388369, Control_c, 0, 64, 59
1, 1388386, Note_off_c, 0, 64, 59
1, 1388399, Control_c, 0, 64, 58
1, 1388414, Control_c, 0, 64, 57
1, 1388429, Control_c, 0, 64, 55
1, 1388437, Note_on_c, 0, 66, 76
1, 1388443, Control_c, 0, 64, 54
1, 1388449, Note_on_c, 0, 62, 64
1, 1388451, Note_on_c, 0, 50, 52
1, 1388458, Control_c, 0, 64, 54
1, 1388458, Control_c, 0, 67, 81
1, 1388462, Note_off_c, 0, 69, 57
1, 1388473, Control_c, 0, 64, 52
1, 1388488, Control_c, 0, 64, 51
1, 1388488, Control_c, 0, 67, 81
1, 1388503, Control_c, 0, 64, 50
1, 1388517, Control_c, 0, 64, 49
1, 1388532, Control_c, 0, 64, 48
1, 1388532, Control_c, 0, 67, 80
1, 1388539, Note_on_c, 0, 72, 72
1, 1388547, Control_c, 0, 64, 46
1, 1388547, Control_c, 0, 67, 80
1, 1388552, Note_off_c, 0, 66, 62
1, 1388563, Control_c, 0, 64, 43
1, 1388577, Control_c, 0, 64, 42
1, 1388577, Control_c, 0, 67, 79
1, 1388592, Control_c, 0, 67, 79
1, 1388607, Control_c, 0, 67, 78
1, 1388622, Control_c, 0, 67, 78
1, 1388624, Note_on_c, 0, 67, 73
1, 1388637, Control_c, 0, 64, 42
1, 1388640, Note_off_c, 0, 72, 63
1, 1388652, Control_c, 0, 67, 77
1, 1388681, Control_c, 0, 67, 77
1, 1388705, Note_off_c, 0, 62, 58
1, 1388717, Note_on_c, 0, 71, 69
1, 1388726, Control_c, 0, 67, 76
1, 1388741, Control_c, 0, 64, 43
1, 1388756, Control_c, 0, 67, 76
1, 1388761, Note_off_c, 0, 67, 47
1, 1388785, Control_c, 0, 64, 42
1, 1388785, Control_c, 0, 67, 75
1, 1388804, Note_off_c, 0, 71, 57
1, 1388806, Note_on_c, 0, 69, 65
1, 1388808, Note_on_c, 0, 54, 40
1, 1388810, Note_on_c, 0, 62, 63
1, 1388815, Control_c, 0, 67, 75
1, 1388845, Control_c, 0, 67, 74
1, 1388856, Note_off_c, 0, 50, 51
1, 1388859, Control_c, 0, 67, 74
1, 1388871, Note_off_c, 0, 62, 52
1, 1388874, Control_c, 0, 64, 42
1, 1388874, Control_c, 0, 67, 73
1, 1388889, Control_c, 0, 67, 71
1, 1388902, Note_on_c, 0, 74, 59
1, 1388903, Control_c, 0, 64, 41
1, 1388903, Control_c, 0, 67, 69
1, 1388906, Note_off_c, 0, 69, 59
1, 1388918, Control_c, 0, 67, 68
1, 1388933, Control_c, 0, 64, 41
1, 1388933, Control_c, 0, 67, 66
1, 1388948, Control_c, 0, 64, 40
1, 1388948, Control_c, 0, 67, 65
1, 1388963, Control_c, 0, 67, 63
1, 1388966, Note_off_c, 0, 74, 63
1, 1388985, Control_c, 0, 67, 61
1, 1388988, Note_on_c, 0, 55, 58
1, 1388993, Note_off_c, 0, 54, 35
1, 1388994, Note_on_c, 0, 62, 60
1, 1389000, Note_on_c, 0, 71, 58
1, 1389000, Control_c, 0, 67, 58
1, 1389015, Control_c, 0, 67, 54
1, 1389030, Note_off_c, 0, 55, 64
1, 1389030, Control_c, 0, 64, 38
1, 1389030, Control_c, 0, 67, 49
1, 1389045, Control_c, 0, 64, 0
1, 1389045, Control_c, 0, 67, 45
1, 1389056, Note_off_c, 0, 62, 61
1, 1389060, Control_c, 0, 67, 40
1, 1389075, Control_c, 0, 67, 36
1, 1389087, Note_on_c, 0, 74, 68
1, 1389090, Control_c, 0, 67, 33
1, 1389091, Note_off_c, 0, 71, 63
1, 1389104, Control_c, 0, 67, 30
1, 1389119, Control_c, 0, 67, 26
1, 1389120, Note_off_c, 0, 74, 66
1, 1389134, Control_c, 0, 67, 23
1, 1389149, Control_c, 0, 67, 21
1, 1389164, Control_c, 0, 67, 19
1, 1389178, Control_c, 0, 64, 44
1, 1389178, Control_c, 0, 67, 16
1, 1389193, Control_c, 0, 64, 54
1, 1389193, Control_c, 0, 67, 13
1, 1389195, Note_on_c, 0, 70, 82
1, 1389208, Note_on_c, 0, 67, 67
1, 1389208, Control_c, 0, 64, 57
1, 1389208, Control_c, 0, 67, 10
1, 1389223, Note_on_c, 0, 58, 51
1, 1389223, Control_c, 0, 64, 58
1, 1389223, Control_c, 0, 67, 0
1, 1389238, Control_c, 0, 64, 59
1, 1389252, Control_c, 0, 64, 60
1, 1389267, Control_c, 0, 64, 62
1, 1389282, Control_c, 0, 64, 62
1, 1389297, Control_c, 0, 64, 63
1, 1389301, Note_on_c, 0, 75, 72
1, 1389311, Control_c, 0, 64, 63
1, 1389326, Control_c, 0, 64, 64
1, 1389328, Note_off_c, 0, 70, 60
1, 1389372, Control_c, 0, 64, 64
1, 1389415, Note_on_c, 0, 72, 77
1, 1389425, Note_on_c, 0, 68, 60
1, 1389440, Note_off_c, 0, 75, 58
1, 1389490, Control_c, 0, 64, 65
1, 1389495, Note_off_c, 0, 67, 60
1, 1389506, Note_off_c, 0, 72, 64
1, 1389511, Note_on_c, 0, 77, 72
1, 1389514, Note_off_c, 0, 58, 62
1, 1389520, Control_c, 0, 64, 64
1, 1389534, Control_c, 0, 64, 62
1, 1389549, Control_c, 0, 64, 55
1, 1389561, Note_off_c, 0, 68, 58
1, 1389564, Control_c, 0, 64, 47
1, 1389579, Control_c, 0, 64, 48
1, 1389594, Control_c, 0, 64, 51
1, 1389603, Note_on_c, 0, 67, 73
1, 1389603, Note_on_c, 0, 70, 80
1, 1389609, Note_on_c, 0, 58, 73
1, 1389609, Control_c, 0, 64, 54
1, 1389623, Control_c, 0, 64, 58
1, 1389638, Control_c, 0, 64, 60
1, 1389648, Note_off_c, 0, 77, 53
1, 1389653, Control_c, 0, 64, 61
1, 1389668, Control_c, 0, 64, 62
1, 1389691, Note_on_c, 0, 75, 76
1, 1389698, Note_off_c, 0, 70, 63
1, 1389707, Note_off_c, 0, 67, 58
1, 1389717, Note_off_c, 0, 58, 60
1, 1389796, Note_on_c, 0, 72, 76
1, 1389799, Note_on_c, 0, 68, 73
1, 1389800, Note_on_c, 0, 58, 62
1, 1389808, Control_c, 0, 64, 62
1, 1389823, Control_c, 0, 64, 63
1, 1389828, Note_off_c, 0, 75, 61
1, 1389853, Note_off_c, 0, 68, 64
1, 1389867, Note_off_c, 0, 58, 62
1, 1389881, Note_on_c, 0, 77, 73
1, 1389883, Control_c, 0, 64, 63
1, 1389884, Note_off_c, 0, 72, 62
1, 1389942, Control_c, 0, 64, 57
1, 1389953, Note_off_c, 0, 77, 62
1, 1389957, Control_c, 0, 64, 22
1, 1389972, Control_c, 0, 64, 0
1, 1389974, Note_on_c, 0, 74, 79
1, 1389975, Note_on_c, 0, 70, 81
1, 1389978, Note_on_c, 0, 58, 75
1, 1390042, Note_off_c, 0, 74, 62
1, 1390046, Control_c, 0, 64, 49
1, 1390061, Note_on_c, 0, 80, 72
1, 1390061, Control_c, 0, 64, 59
1, 1390075, Control_c, 0, 64, 61
1, 1390090, Control_c, 0, 64, 61
1, 1390120, Control_c, 0, 64, 62
1, 1390132, Note_off_c, 0, 80, 64
1, 1390148, Note_on_c, 0, 75, 80
1, 1390233, Note_on_c, 0, 79, 72
1, 1390234, Note_off_c, 0, 70, 61
1, 1390269, Note_off_c, 0, 75, 59
1, 1390317, Note_on_c, 0, 70, 79
1, 1390321, Note_on_c, 0, 77, 81
1, 1390336, Note_on_c, 0, 62, 65
1, 1390348, Note_off_c, 0, 58, 60
1, 1390373, Note_off_c, 0, 79, 37
1, 1390407, Note_off_c, 0, 70, 57
1, 1390409, Note_on_c, 0, 82, 76
1, 1390443, Note_off_c, 0, 77, 59
1, 1390501, Note_off_c, 0, 82, 62
1, 1390506, Note_on_c, 0, 79, 69
1, 1390518, Note_off_c, 0, 62, 60
1, 1390518, Note_on_c, 0, 63, 68
1, 1390521, Note_on_c, 0, 70, 68
1, 1390543, Control_c, 0, 64, 60
1, 1390545, Note_off_c, 0, 63, 69
1, 1390557, Control_c, 0, 64, 58
1, 1390572, Control_c, 0, 64, 53
1, 1390575, Note_off_c, 0, 70, 60
1, 1390587, Control_c, 0, 64, 43
1, 1390592, Note_off_c, 0, 79, 60
1, 1390601, Note_on_c, 0, 82, 70
1, 1390602, Control_c, 0, 64, 28
1, 1390617, Control_c, 0, 64, 0
1, 1390639, Note_off_c, 0, 82, 59
1, 1390720, Control_c, 0, 67, 12
1, 1390732, Note_on_c, 0, 78, 59
1, 1390735, Control_c, 0, 67, 15
1, 1390738, Note_on_c, 0, 75, 38
1, 1390750, Control_c, 0, 67, 19
1, 1390754, Note_on_c, 0, 66, 38
1, 1390765, Control_c, 0, 67, 21
1, 1390780, Control_c, 0, 67, 23
1, 1390795, Control_c, 0, 67, 25
1, 1390799, Note_off_c, 0, 78, 62
1, 1390810, Control_c, 0, 67, 28
1, 1390819, Note_on_c, 0, 83, 58
1, 1390824, Control_c, 0, 67, 31
1, 1390839, Control_c, 0, 67, 35
1, 1390854, Control_c, 0, 67, 38
1, 1390869, Control_c, 0, 67, 41
1, 1390883, Control_c, 0, 67, 44
1, 1390898, Control_c, 0, 67, 46
1, 1390902, Note_off_c, 0, 83, 57
1, 1390913, Control_c, 0, 67, 48
1, 1390928, Control_c, 0, 67, 50
1, 1390932, Note_on_c, 0, 80, 61
1, 1390936, Note_on_c, 0, 76, 49
1, 1390944, Control_c, 0, 67, 50
1, 1390945, Note_off_c, 0, 75, 54
1, 1390959, Control_c, 0, 67, 51
1, 1390981, Note_off_c, 0, 76, 60
1, 1390987, Note_off_c, 0, 66, 62
1, 1390988, Control_c, 0, 67, 51
1, 1390989, Note_off_c, 0, 80, 57
1, 1391022, Note_on_c, 0, 85, 57
1, 1391116, Note_on_c, 0, 75, 51
1, 1391117, Note_on_c, 0, 66, 59
1, 1391117, Note_on_c, 0, 78, 55
1, 1391122, Control_c, 0, 67, 52
1, 1391153, Note_off_c, 0, 66, 63
1, 1391153, Note_off_c, 0, 85, 44
1, 1391165, Note_off_c, 0, 75, 59
1, 1391169, Note_off_c, 0, 78, 50
1, 1391197, Note_on_c, 0, 83, 57
1, 1391247, Control_c, 0, 67, 51
1, 1391284, Note_off_c, 0, 83, 54
1, 1391296, Note_on_c, 0, 66, 56
1, 1391302, Note_on_c, 0, 76, 63
1, 1391313, Note_on_c, 0, 80, 51
1, 1391337, Note_off_c, 0, 76, 64
1, 1391340, Note_off_c, 0, 66, 57
1, 1391349, Note_off_c, 0, 80, 59
1, 1391350, Control_c, 0, 67, 52
1, 1391398, Note_on_c, 0, 85, 49
1, 1391443, Note_off_c, 0, 85, 64
1, 1391483, Note_on_c, 0, 78, 69
1, 1391490, Note_on_c, 0, 82, 56
1, 1391504, Note_on_c, 0, 66, 46
1, 1391513, Control_c, 0, 64, 24
1, 1391528, Control_c, 0, 64, 29
1, 1391532, Note_off_c, 0, 82, 58
1, 1391543, Control_c, 0, 64, 31
1, 1391558, Control_c, 0, 64, 32
1, 1391583, Note_on_c, 0, 88, 45
1, 1391632, Control_c, 0, 67, 51
1, 1391649, Note_off_c, 0, 88, 61
1, 1391682, Note_on_c, 0, 83, 58
1, 1391720, Control_c, 0, 67, 51
1, 1391724, Note_off_c, 0, 78, 62
1, 1391735, Control_c, 0, 64, 31
1, 1391743, Note_off_c, 0, 83, 45
1, 1391751, Control_c, 0, 64, 31
1, 1391766, Control_c, 0, 64, 30
1, 1391770, Note_on_c, 0, 87, 58
1, 1391795, Control_c, 0, 64, 29
1, 1391795, Control_c, 0, 67, 50
1, 1391814, Note_off_c, 0, 87, 57
1, 1391845, Note_on_c, 0, 78, 55
1, 1391861, Note_on_c, 0, 85, 58
1, 1391861, Note_off_c, 0, 66, 52
1, 1391865, Note_on_c, 0, 70, 46
1, 1391882, Note_off_c, 0, 78, 62
1, 1391918, Note_off_c, 0, 70, 53
1, 1391934, Note_off_c, 0, 85, 55
1, 1391937, Note_on_c, 0, 90, 61
1, 1391943, Control_c, 0, 67, 50
1, 1392005, Note_off_c, 0, 90, 60
1, 1392039, Note_on_c, 0, 71, 58
1, 1392042, Note_on_c, 0, 78, 51
1, 1392050, Note_on_c, 0, 87, 56
1, 1392063, Note_off_c, 0, 78, 63
1, 1392071, Note_off_c, 0, 71, 64
1, 1392100, Control_c, 0, 64, 29
1, 1392115, Control_c, 0, 64, 27
1, 1392129, Control_c, 0, 64, 21
1, 1392129, Control_c, 0, 67, 49
1, 1392132, Note_off_c, 0, 87, 60
1, 1392136, Note_on_c, 0, 90, 57
1, 1392144, Control_c, 0, 64, 0
1, 1392144, Control_c, 0, 67, 49
1, 1392169, Note_off_c, 0, 90, 64
1, 1392174, Control_c, 0, 67, 48
1, 1392203, Control_c, 0, 67, 47
1, 1392218, Control_c, 0, 67, 47
1, 1392248, Control_c, 0, 67, 46
1, 1392277, Control_c, 0, 67, 45
1, 1392292, Control_c, 0, 67, 45
1, 1392307, Control_c, 0, 64, 39
1, 1392321, Control_c, 0, 64, 53
1, 1392327, Note_on_c, 0, 86, 92
1, 1392336, Control_c, 0, 64, 59
1, 1392348, Note_on_c, 0, 62, 45
1, 1392351, Control_c, 0, 64, 62
1, 1392351, Control_c, 0, 67, 44
1, 1392354, Note_on_c, 0, 71, 41
1, 1392366, Control_c, 0, 64, 65
1, 1392381, Control_c, 0, 64, 66
1, 1392396, Control_c, 0, 64, 68
1, 1392411, Control_c, 0, 64, 70
1, 1392425, Control_c, 0, 64, 71
1, 1392455, Control_c, 0, 67, 44
1, 1392463, Note_on_c, 0, 91, 75
1, 1392485, Note_off_c, 0, 86, 63
1, 1392529, Control_c, 0, 64, 72
1, 1392529, Control_c, 0, 67, 44
1, 1392545, Control_c, 0, 64, 73
1, 1392545, Control_c, 0, 67, 45
1, 1392555, Note_off_c, 0, 71, 53
1, 1392560, Control_c, 0, 64, 72
1, 1392560, Control_c, 0, 67, 46
1, 1392570, Note_on_c, 0, 88, 81
1, 1392575, Note_off_c, 0, 91, 59
1, 1392575, Control_c, 0, 64, 65
1, 1392577, Note_on_c, 0, 72, 57
1, 1392589, Control_c, 0, 64, 38
1, 1392604, Control_c, 0, 64, 0
1, 1392604, Control_c, 0, 67, 46
1, 1392608, Note_off_c, 0, 72, 66
1, 1392610, Note_off_c, 0, 62, 56
1, 1392639, Note_off_c, 0, 88, 64
1, 1392666, Note_on_c, 0, 84, 67
1, 1392692, Note_off_c, 0, 84, 67
1, 1392745, Control_c, 0, 67, 47
1, 1392765, Note_on_c, 0, 84, 71
1, 1392776, Note_on_c, 0, 69, 60
1, 1392777, Note_on_c, 0, 62, 55
1, 1392811, Note_off_c, 0, 62, 63
1, 1392818, Note_off_c, 0, 69, 60
1, 1392831, Note_off_c, 0, 84, 62
1, 1392864, Note_on_c, 0, 81, 51
1, 1392879, Control_c, 0, 67, 47
1, 1392905, Note_off_c, 0, 81, 58
1, 1392908, Control_c, 0, 67, 48
1, 1392938, Control_c, 0, 67, 48
1, 1392942, Note_on_c, 0, 82, 70
1, 1392944, Note_on_c, 0, 73, 65
1, 1392950, Note_on_c, 0, 62, 55
1, 1392967, Control_c, 0, 67, 49
1, 1392980, Note_off_c, 0, 73, 57
1, 1392986, Note_off_c, 0, 62, 61
1, 1393028, Note_off_c, 0, 82, 62
1, 1393031, Note_on_c, 0, 85, 62
1, 1393056, Control_c, 0, 67, 48
1, 1393064, Note_off_c, 0, 85, 62
1, 1393071, Control_c, 0, 67, 47
1, 1393085, Control_c, 0, 67, 46
1, 1393100, Control_c, 0, 67, 45
1, 1393129, Note_on_c, 0, 83, 87
1, 1393130, Control_c, 0, 64, 64
1, 1393130, Control_c, 0, 67, 45
1, 1393132, Note_on_c, 0, 74, 72
1, 1393144, Note_on_c, 0, 62, 66
1, 1393145, Control_c, 0, 64, 78
1, 1393159, Control_c, 0, 64, 93
1, 1393174, Control_c, 0, 64, 101
1, 1393189, Control_c, 0, 64, 107
1, 1393204, Control_c, 0, 64, 127
1, 1393221, Note_on_c, 0, 86, 78
1, 1393222, Note_off_c, 0, 83, 62
1, 1393263, Control_c, 0, 67, 45
1, 1393278, Control_c, 0, 67, 46
1, 1393308, Control_c, 0, 67, 46
1, 1393309, Note_off_c, 0, 86, 60
1, 1393318, Note_on_c, 0, 67, 71
1, 1393321, Note_on_c, 0, 83, 80
1, 1393323, Control_c, 0, 64, 77
1, 1393324, Note_off_c, 0, 74, 62
1, 1393338, Control_c, 0, 64, 56
1, 1393353, Control_c, 0, 64, 0
1, 1393362, Note_off_c, 0, 62, 61
1, 1393367, Control_c, 0, 67, 46
1, 1393377, Note_off_c, 0, 67, 60
1, 1393403, Note_off_c, 0, 83, 61
1, 1393418, Note_on_c, 0, 79, 68
1, 1393451, Note_off_c, 0, 79, 55
1, 1393513, Note_on_c, 0, 79, 67
1, 1393518, Note_on_c, 0, 62, 59
1, 1393518, Note_on_c, 0, 71, 60
1, 1393554, Note_off_c, 0, 79, 59
1, 1393563, Note_off_c, 0, 71, 56
1, 1393569, Note_off_c, 0, 62, 52
1, 1393582, Control_c, 0, 67, 46
1, 1393600, Note_on_c, 0, 74, 61
1, 1393612, Control_c, 0, 67, 47
1, 1393642, Control_c, 0, 67, 47
1, 1393657, Control_c, 0, 67, 48
1, 1393671, Control_c, 0, 67, 48
1, 1393686, Note_on_c, 0, 70, 58
1, 1393686, Control_c, 0, 67, 49
1, 1393689, Note_on_c, 0, 73, 71
1, 1393689, Note_off_c, 0, 74, 53
1, 1393693, Note_on_c, 0, 62, 50
1, 1393701, Control_c, 0, 67, 49
1, 1393716, Control_c, 0, 67, 50
1, 1393728, Note_off_c, 0, 62, 52
1, 1393730, Note_off_c, 0, 70, 60
1, 1393760, Note_off_c, 0, 73, 58
1, 1393779, Note_on_c, 0, 76, 61
1, 1393790, Control_c, 0, 67, 49
1, 1393805, Control_c, 0, 67, 49
1, 1393820, Note_off_c, 0, 76, 62
1, 1393820, Control_c, 0, 67, 48
1, 1393835, Control_c, 0, 67, 48
1, 1393863, Note_on_c, 0, 74, 88
1, 1393864, Control_c, 0, 64, 49
1, 1393865, Note_on_c, 0, 62, 64
1, 1393868, Note_on_c, 0, 71, 64
1, 1393879, Control_c, 0, 64, 65
1, 1393879, Control_c, 0, 67, 47
1, 1393894, Note_off_c, 0, 71, 66
1, 1393894, Control_c, 0, 64, 70
1, 1393898, Note_off_c, 0, 62, 62
1, 1393908, Control_c, 0, 64, 73
1, 1393908, Control_c, 0, 67, 47
1, 1393923, Control_c, 0, 64, 74
1, 1393938, Control_c, 0, 64, 76
1, 1393938, Control_c, 0, 67, 46
1, 1393951, Note_off_c, 0, 74, 65
1, 1393953, Control_c, 0, 64, 79
1, 1393957, Note_on_c, 0, 79, 71
1, 1393967, Control_c, 0, 64, 83
1, 1393982, Control_c, 0, 64, 88
1, 1393997, Control_c, 0, 64, 93
1, 1393997, Control_c, 0, 67, 46
1, 1394012, Control_c, 0, 64, 94
1, 1394012, Control_c, 0, 67, 47
1, 1394027, Control_c, 0, 64, 92
1, 1394027, Control_c, 0, 67, 47
1, 1394037, Note_off_c, 0, 79, 58
1, 1394042, Control_c, 0, 64, 74
1, 1394046, Note_on_c, 0, 76, 80
1, 1394053, Note_on_c, 0, 60, 68
1, 1394055, Note_on_c, 0, 50, 70
1, 1394056, Control_c, 0, 64, 58
1, 1394071, Control_c, 0, 64, 0
1, 1394083, Note_off_c, 0, 60, 63
1, 1394100, Note_off_c, 0, 50, 54
1, 1394101, Control_c, 0, 67, 47
1, 1394124, Note_off_c, 0, 76, 65
1, 1394131, Control_c, 0, 67, 46
1, 1394142, Note_on_c, 0, 72, 73
1, 1394146, Control_c, 0, 67, 46
1, 1394174, Note_off_c, 0, 72, 62
1, 1394176, Control_c, 0, 67, 45
1, 1394241, Note_on_c, 0, 57, 60
1, 1394250, Note_on_c, 0, 50, 56
1, 1394252, Note_on_c, 0, 72, 58
1, 1394272, Note_off_c, 0, 57, 64
1, 1394272, Control_c, 0, 67, 46
1, 1394280, Note_off_c, 0, 50, 57
1, 1394287, Control_c, 0, 67, 46
1, 1394302, Control_c, 0, 67, 47
1, 1394306, Note_off_c, 0, 72, 61
1, 1394315, Note_on_c, 0, 69, 62
1, 1394346, Control_c, 0, 67, 47
1, 1394390, Note_off_c, 0, 69, 55
1, 1394405, Control_c, 0, 67, 48
1, 1394417, Note_on_c, 0, 61, 69
1, 1394420, Control_c, 0, 67, 48
1, 1394421, Note_on_c, 0, 70, 66
1, 1394424, Note_on_c, 0, 50, 53
1, 1394435, Control_c, 0, 67, 49
1, 1394459, Note_off_c, 0, 50, 57
1, 1394470, Note_off_c, 0, 61, 62
1, 1394489, Note_on_c, 0, 73, 68
1, 1394504, Note_off_c, 0, 70, 58
1, 1394509, Control_c, 0, 67, 48
1, 1394548, Note_off_c, 0, 73, 61
1, 1394569, Control_c, 0, 67, 49
1, 1394584, Control_c, 0, 67, 50
1, 1394593, Note_on_c, 0, 50, 54
1, 1394593, Note_on_c, 0, 62, 65
1, 1394598, Control_c, 0, 67, 51
1, 1394602, Note_on_c, 0, 71, 78
1, 1394628, Control_c, 0, 67, 52
1, 1394633, Note_off_c, 0, 62, 57
1, 1394636, Note_off_c, 0, 50, 60
1, 1394657, Control_c, 0, 67, 52
1, 1394672, Control_c, 0, 67, 53
1, 1394673, Note_off_c, 0, 71, 63
1, 1394682, Note_on_c, 0, 74, 65
1, 1394702, Control_c, 0, 67, 54
1, 1394716, Control_c, 0, 67, 54
1, 1394731, Control_c, 0, 67, 59
1, 1394746, Control_c, 0, 67, 64
1, 1394748, Note_off_c, 0, 74, 57
1, 1394761, Control_c, 0, 67, 66
1, 1394778, Note_on_c, 0, 71, 65
1, 1394780, Note_on_c, 0, 55, 53
1, 1394783, Note_on_c, 0, 50, 45
1, 1394828, Note_off_c, 0, 50, 59
1, 1394831, Note_off_c, 0, 55, 60
1, 1394835, Control_c, 0, 67, 65
1, 1394849, Note_off_c, 0, 71, 63
1, 1394849, Control_c, 0, 67, 65
1, 1394850, Note_on_c, 0, 67, 67
1, 1394888, Note_off_c, 0, 67, 59
1, 1394909, Control_c, 0, 67, 65
1, 1394923, Control_c, 0, 67, 67
1, 1394939, Control_c, 0, 67, 67
1, 1394954, Control_c, 0, 67, 70
1, 1394962, Note_on_c, 0, 59, 54
1, 1394963, Note_on_c, 0, 50, 46
1, 1394971, Note_on_c, 0, 67, 63
1, 1394977, Control_c, 0, 67, 74
1, 1394992, Control_c, 0, 67, 77
1, 1395007, Note_off_c, 0, 59, 62
1, 1395007, Control_c, 0, 67, 80
1, 1395019, Note_off_c, 0, 67, 59
1, 1395020, Note_off_c, 0, 50, 57
1, 1395021, Control_c, 0, 67, 83
1, 1395036, Control_c, 0, 67, 85
1, 1395051, Control_c, 0, 67, 87
1, 1395055, Note_on_c, 0, 62, 60
1, 1395066, Control_c, 0, 67, 89
1, 1395081, Control_c, 0, 67, 90
1, 1395095, Control_c, 0, 67, 92
1, 1395110, Control_c, 0, 67, 94
1, 1395125, Control_c, 0, 67, 96
1, 1395140, Control_c, 0, 67, 98
1, 1395144, Note_off_c, 0, 62, 39
1, 1395154, Control_c, 0, 67, 101
1, 1395155, Note_on_c, 0, 69, 64
1, 1395158, Note_on_c, 0, 54, 54
1, 1395169, Control_c, 0, 67, 104
1, 1395174, Note_on_c, 0, 50, 38
1, 1395184, Control_c, 0, 67, 108
1, 1395199, Control_c, 0, 67, 111
1, 1395210, Note_off_c, 0, 50, 57
1, 1395211, Note_off_c, 0, 54, 58
1, 1395214, Control_c, 0, 67, 114
1, 1395227, Note_off_c, 0, 69, 64
1, 1395228, Control_c, 0, 67, 117
1, 1395243, Control_c, 0, 67, 119
1, 1395248, Note_on_c, 0, 66, 49
1, 1395258, Control_c, 0, 67, 121
1, 1395272, Control_c, 0, 67, 122
1, 1395279, Note_off_c, 0, 66, 61
1, 1395287, Control_c, 0, 67, 124
1, 1395302, Control_c, 0, 67, 125
1, 1395317, Control_c, 0, 67, 127
1, 1395323, Note_on_c, 0, 66, 55
1, 1395332, Control_c, 0, 67, 127
1, 1395333, Note_on_c, 0, 60, 55
1, 1395343, Note_on_c, 0, 50, 48
1, 1395371, Note_off_c, 0, 60, 59
1, 1395382, Note_off_c, 0, 66, 63
1, 1395391, Note_off_c, 0, 50, 59
1, 1395412, Note_on_c, 0, 62, 62
1, 1395476, Note_off_c, 0, 62, 58
1, 1395508, Note_on_c, 0, 71, 56
1, 1395517, Note_on_c, 0, 50, 51
1, 1395517, Note_on_c, 0, 55, 51
1, 1395559, Note_off_c, 0, 55, 64
1, 1395560, Note_off_c, 0, 50, 60
1, 1395587, Note_off_c, 0, 71, 61
1, 1395588, Note_on_c, 0, 67, 58
1, 1395621, Note_off_c, 0, 67, 60
1, 1395680, Note_on_c, 0, 50, 55
1, 1395681, Note_on_c, 0, 59, 54
1, 1395685, Note_on_c, 0, 67, 61
1, 1395729, Note_off_c, 0, 59, 61
1, 1395737, Note_off_c, 0, 50, 57
1, 1395745, Note_off_c, 0, 67, 61
1, 1395781, Note_on_c, 0, 62, 56
1, 1395850, Note_off_c, 0, 62, 50
1, 1395869, Note_on_c, 0, 69, 64
1, 1395874, Note_on_c, 0, 54, 53
1, 1395888, Note_on_c, 0, 50, 35
1, 1395921, Note_off_c, 0, 50, 57
1, 1395931, Note_off_c, 0, 54, 57
1, 1395943, Note_off_c, 0, 69, 64
1, 1395956, Note_on_c, 0, 66, 50
1, 1395986, Note_off_c, 0, 66, 58
1, 1396036, Note_on_c, 0, 60, 60
1, 1396038, Note_on_c, 0, 66, 68
1, 1396050, Note_on_c, 0, 50, 42
1, 1396069, Note_off_c, 0, 60, 61
1, 1396092, Note_off_c, 0, 50, 54
1, 1396093, Note_off_c, 0, 66, 65
1, 1396123, Note_on_c, 0, 62, 71
1, 1396140, Control_c, 0, 67, 124
1, 1396155, Control_c, 0, 67, 121
1, 1396169, Control_c, 0, 67, 119
1, 1396184, Control_c, 0, 67, 118
1, 1396192, Note_off_c, 0, 62, 60
1, 1396223, Note_on_c, 0, 50, 55
1, 1396223, Note_on_c, 0, 71, 58
1, 1396229, Note_on_c, 0, 55, 47
1, 1396273, Note_off_c, 0, 50, 59
1, 1396277, Note_off_c, 0, 55, 64
1, 1396295, Note_on_c, 0, 67, 73
1, 1396303, Control_c, 0, 67, 117
1, 1396306, Note_off_c, 0, 71, 61
1, 1396333, Control_c, 0, 67, 117
1, 1396345, Note_off_c, 0, 67, 58
1, 1396377, Control_c, 0, 67, 117
1, 1396390, Note_on_c, 0, 67, 64
1, 1396392, Note_on_c, 0, 59, 60
1, 1396392, Control_c, 0, 67, 118
1, 1396399, Note_on_c, 0, 50, 57
1, 1396440, Note_off_c, 0, 59, 58
1, 1396448, Note_off_c, 0, 67, 62
1, 1396449, Note_off_c, 0, 50, 56
1, 1396451, Control_c, 0, 67, 118
1, 1396480, Note_on_c, 0, 62, 73
1, 1396557, Note_off_c, 0, 62, 56
1, 1396574, Note_on_c, 0, 71, 72
1, 1396578, Control_c, 0, 67, 118
1, 1396585, Note_on_c, 0, 50, 54
1, 1396585, Note_on_c, 0, 56, 57
1, 1396608, Control_c, 0, 67, 117
1, 1396623, Control_c, 0, 67, 116
1, 1396637, Control_c, 0, 67, 115
1, 1396651, Note_off_c, 0, 50, 60
1, 1396652, Control_c, 0, 67, 110
1, 1396658, Note_off_c, 0, 71, 63
1, 1396660, Note_on_c, 0, 68, 73
1, 1396664, Note_off_c, 0, 56, 57
1, 1396667, Control_c, 0, 67, 103
1, 1396682, Control_c, 0, 67, 96
1, 1396697, Control_c, 0, 67, 89
1, 1396704, Note_off_c, 0, 68, 58
1, 1396712, Control_c, 0, 67, 81
1, 1396726, Control_c, 0, 67, 73
1, 1396741, Control_c, 0, 67, 64
1, 1396748, Note_on_c, 0, 68, 74
1, 1396756, Control_c, 0, 67, 54
1, 1396760, Note_on_c, 0, 59, 59
1, 1396763, Note_on_c, 0, 50, 58
1, 1396771, Control_c, 0, 67, 43
1, 1396786, Control_c, 0, 67, 31
1, 1396800, Control_c, 0, 67, 24
1, 1396811, Note_off_c, 0, 50, 58
1, 1396813, Note_off_c, 0, 68, 62
1, 1396813, Note_off_c, 0, 59, 61
1, 1396815, Control_c, 0, 67, 19
1, 1396828, Note_on_c, 0, 62, 75
1, 1396830, Control_c, 0, 67, 15
1, 1396845, Control_c, 0, 67, 13
1, 1396860, Control_c, 0, 67, 10
1, 1396874, Control_c, 0, 67, 0
1, 1396884, Note_off_c, 0, 62, 62
1, 1396912, Note_on_c, 0, 72, 83
1, 1396924, Note_on_c, 0, 50, 65
1, 1396924, Note_on_c, 0, 57, 64
1, 1396996, Note_off_c, 0, 50, 61
1, 1396998, Note_on_c, 0, 69, 81
1, 1397000, Note_off_c, 0, 57, 56
1, 1397009, Note_off_c, 0, 72, 64
1, 1397049, Note_off_c, 0, 69, 67
1, 1397083, Poly_aftertouch_c, 0, 69, 0
1, 1397091, Note_on_c, 0, 69, 77
1, 1397094, Note_on_c, 0, 60, 78
1, 1397097, Note_on_c, 0, 50, 70
1, 1397152, Note_off_c, 0, 60, 61
1, 1397153, Note_off_c, 0, 69, 67
1, 1397163, Note_off_c, 0, 50, 58
1, 1397181, Note_on_c, 0, 62, 79
1, 1397290, Note_on_c, 0, 73, 86
1, 1397290, Note_on_c, 0, 58, 72
1, 1397293, Note_on_c, 0, 50, 69
1, 1397311, Note_off_c, 0, 62, 37
1, 1397371, Control_c, 0, 64, 46
1, 1397386, Control_c, 0, 64, 67
1, 1397391, Note_on_c, 0, 70, 83
1, 1397401, Control_c, 0, 64, 97
1, 1397415, Control_c, 0, 64, 127
1, 1397418, Note_off_c, 0, 73, 60
1, 1397429, Note_off_c, 0, 58, 56
1, 1397452, Note_off_c, 0, 70, 62
1, 1397487, Note_off_c, 0, 50, 0
1, 1397497, Note_on_c, 0, 70, 75
1, 1397499, Note_on_c, 0, 50, 48
1, 1397502, Note_on_c, 0, 61, 84
1, 1397559, Note_off_c, 0, 50, 62
1, 1397587, Note_off_c, 0, 61, 65
1, 1397588, Note_on_c, 0, 62, 83
1, 1397612, Note_off_c, 0, 70, 53
1, 1397643, Note_off_c, 0, 62, 63
1, 1397741, Control_c, 0, 64, 74
1, 1397756, Control_c, 0, 64, 45
1, 1397771, Control_c, 0, 64, 0
1, 1398150, Control_c, 0, 64, 12
1, 1398164, Control_c, 0, 64, 41
1, 1398179, Control_c, 0, 64, 51
1, 1398194, Control_c, 0, 64, 57
1, 1398209, Control_c, 0, 64, 61
1, 1398224, Control_c, 0, 64, 63
1, 1398238, Control_c, 0, 64, 64
1, 1398253, Control_c, 0, 64, 66
1, 1398268, Control_c, 0, 64, 67
1, 1398283, Control_c, 0, 64, 69
1, 1398298, Control_c, 0, 64, 72
1, 1398313, Control_c, 0, 64, 75
1, 1398328, Control_c, 0, 64, 77
1, 1398343, Control_c, 0, 64, 79
1, 1398357, Control_c, 0, 64, 83
1, 1398372, Control_c, 0, 64, 87
1, 1398387, Control_c, 0, 64, 92
1, 1398402, Control_c, 0, 64, 99
1, 1398417, Control_c, 0, 64, 113
1, 1398432, Control_c, 0, 64, 127
1, 1398444, Note_on_c, 0, 73, 87
1, 1398557, Note_on_c, 0, 76, 92
1, 1398590, Note_off_c, 0, 73, 63
1, 1398608, Note_off_c, 0, 76, 67
1, 1398723, Note_on_c, 0, 74, 89
1, 1398742, Note_on_c, 0, 59, 69
1, 1398743, Note_on_c, 0, 62, 77
1, 1398745, Note_on_c, 0, 50, 53
1, 1398748, Note_on_c, 0, 43, 66
1, 1398795, Control_c, 0, 64, 83
1, 1398810, Control_c, 0, 64, 62
1, 1398824, Control_c, 0, 64, 0
1, 1399077, Control_c, 0, 64, 38
1, 1399092, Control_c, 0, 64, 53
1, 1399107, Control_c, 0, 64, 58
1, 1399121, Control_c, 0, 64, 59
1, 1399136, Control_c, 0, 64, 61
1, 1399151, Control_c, 0, 64, 62
1, 1399166, Control_c, 0, 64, 64
1, 1399181, Control_c, 0, 64, 66
1, 1399195, Control_c, 0, 64, 69
1, 1399210, Control_c, 0, 64, 72
1, 1399225, Control_c, 0, 64, 76
1, 1399240, Control_c, 0, 64, 80
1, 1399255, Control_c, 0, 64, 85
1, 1399270, Control_c, 0, 64, 88
1, 1399285, Control_c, 0, 64, 92
1, 1399299, Control_c, 0, 64, 96
1, 1399314, Control_c, 0, 64, 100
1, 1399329, Control_c, 0, 64, 104
1, 1399344, Control_c, 0, 64, 108
1, 1399359, Control_c, 0, 64, 110
1, 1399374, Control_c, 0, 64, 112
1, 1399388, Control_c, 0, 64, 113
1, 1399473, Note_on_c, 0, 72, 76
1, 1399477, Note_off_c, 0, 74, 59
1, 1399506, Note_off_c, 0, 59, 38
1, 1399553, Note_off_c, 0, 62, 40
1, 1399559, Note_on_c, 0, 71, 74
1, 1399608, Note_off_c, 0, 72, 56
1, 1399617, Control_c, 0, 64, 112
1, 1399632, Control_c, 0, 64, 111
1, 1399646, Control_c, 0, 64, 93
1, 1399650, Note_on_c, 0, 69, 74
1, 1399655, Note_on_c, 0, 62, 65
1, 1399656, Note_off_c, 0, 71, 61
1, 1399661, Note_on_c, 0, 60, 75
1, 1399661, Control_c, 0, 64, 71
1, 1399676, Control_c, 0, 64, 37
1, 1399691, Control_c, 0, 64, 0
1, 1399751, Control_c, 0, 64, 61
1, 1399759, Note_on_c, 0, 71, 70
1, 1399766, Note_off_c, 0, 69, 53
1, 1399766, Control_c, 0, 64, 71
1, 1399781, Control_c, 0, 64, 81
1, 1399796, Control_c, 0, 64, 86
1, 1399810, Control_c, 0, 64, 87
1, 1399842, Note_on_c, 0, 72, 73
1, 1399868, Note_off_c, 0, 60, 57
1, 1399884, Control_c, 0, 64, 86
1, 1399929, Note_on_c, 0, 74, 70
1, 1399933, Note_off_c, 0, 71, 29
1, 1399936, Note_off_c, 0, 72, 64
1, 1399988, Control_c, 0, 64, 84
1, 1400003, Control_c, 0, 64, 76
1, 1400018, Control_c, 0, 64, 63
1, 1400021, Note_on_c, 0, 57, 70
1, 1400021, Note_on_c, 0, 72, 75
1, 1400025, Note_off_c, 0, 74, 62
1, 1400033, Control_c, 0, 64, 0
1, 1400099, Note_off_c, 0, 72, 64
1, 1400226, Note_on_c, 0, 69, 76
1, 1400229, Note_on_c, 0, 54, 60
1, 1400250, Note_off_c, 0, 57, 58
1, 1400265, Note_off_c, 0, 54, 64
1, 1400280, Note_off_c, 0, 50, 59
1, 1400295, Note_off_c, 0, 69, 65
1, 1400295, Note_off_c, 0, 62, 39
1, 1400313, Note_off_c, 0, 43, 55
1, 1400420, Note_on_c, 0, 71, 74
1, 1400443, Note_on_c, 0, 43, 49
1, 1400443, Note_on_c, 0, 62, 47
1, 1400447, Note_on_c, 0, 50, 43
1, 1400448, Note_on_c, 0, 55, 42
1, 1400635, Note_on_c, 0, 47, 62
1, 1400638, Note_on_c, 0, 67, 66
1, 1400650, Note_off_c, 0, 62, 60
1, 1400665, Note_off_c, 0, 43, 57
1, 1400665, Note_off_c, 0, 71, 57
1, 1400671, Note_off_c, 0, 50, 59
1, 1400677, Note_off_c, 0, 47, 65
1, 1400683, Note_off_c, 0, 55, 63
1, 1400693, Note_off_c, 0, 67, 63
1, 1400840, Control_c, 0, 64, 31
1, 1400855, Control_c, 0, 64, 59
1, 1400870, Control_c, 0, 64, 65
1, 1400883, Note_on_c, 0, 81, 89
1, 1400884, Control_c, 0, 64, 73
1, 1400887, Note_on_c, 0, 76, 80
1, 1400889, Note_on_c, 0, 72, 77
1, 1400899, Control_c, 0, 64, 87
1, 1400901, Note_on_c, 0, 62, 54
1, 1400907, Note_off_c, 0, 76, 73
1, 1400913, Note_off_c, 0, 72, 69
1, 1400914, Control_c, 0, 64, 127
1, 1400924, Note_off_c, 0, 62, 58
1, 1400928, Note_off_c, 0, 81, 58
1, 1400984, Note_on_c, 0, 81, 76
1, 1400987, Note_on_c, 0, 76, 82
1, 1400994, Note_on_c, 0, 72, 72
1, 1400997, Note_on_c, 0, 62, 70
1, 1401011, Note_off_c, 0, 76, 65
1, 1401019, Note_off_c, 0, 72, 67
1, 1401023, Note_off_c, 0, 62, 64
1, 1401025, Note_off_c, 0, 81, 56
1, 1401070, Note_on_c, 0, 81, 69
1, 1401078, Note_on_c, 0, 76, 80
1, 1401079, Note_on_c, 0, 62, 65
1, 1401085, Note_on_c, 0, 72, 71
1, 1401095, Note_off_c, 0, 81, 62
1, 1401102, Note_off_c, 0, 76, 69
1, 1401103, Note_off_c, 0, 62, 61
1, 1401112, Note_off_c, 0, 72, 67
1, 1401157, Note_on_c, 0, 81, 72
1, 1401162, Note_on_c, 0, 76, 59
1, 1401165, Note_on_c, 0, 62, 56
1, 1401168, Note_on_c, 0, 72, 65
1, 1401171, Note_off_c, 0, 81, 66
1, 1401182, Note_off_c, 0, 76, 65
1, 1401185, Note_off_c, 0, 72, 66
1, 1401194, Note_off_c, 0, 62, 53
1, 1401275, Note_on_c, 0, 79, 94
1, 1401285, Note_on_c, 0, 71, 73
1, 1401286, Note_on_c, 0, 62, 51
1, 1401352, Control_c, 0, 64, 83
1, 1401367, Control_c, 0, 64, 62
1, 1401381, Control_c, 0, 64, 0
1, 1401490, Note_on_c, 0, 76, 72
1, 1401496, Note_on_c, 0, 72, 65
1, 1401514, Note_off_c, 0, 79, 59
1, 1401526, Note_off_c, 0, 71, 55
1, 1401693, Note_on_c, 0, 74, 69
1, 1401695, Note_off_c, 0, 72, 60
1, 1401711, Note_on_c, 0, 71, 58
1, 1401717, Note_off_c, 0, 62, 62
1, 1401729, Note_off_c, 0, 76, 63
1, 1401750, Note_off_c, 0, 74, 62
1, 1401783, Note_off_c, 0, 71, 59
1, 1401899, Note_on_c, 0, 79, 88
1, 1401921, Control_c, 0, 64, 36
1, 1401936, Control_c, 0, 64, 67
1, 1401951, Control_c, 0, 64, 85
1, 1401966, Control_c, 0, 64, 127
1, 1401982, Note_on_c, 0, 73, 92
1, 1402006, Note_off_c, 0, 79, 62
1, 1402030, Note_off_c, 0, 73, 67
1, 1402149, Note_on_c, 0, 74, 87
1, 1402169, Note_on_c, 0, 59, 71
1, 1402173, Note_on_c, 0, 43, 63
1, 1402175, Note_on_c, 0, 62, 68
1, 1402185, Note_on_c, 0, 50, 55
1, 1402233, Control_c, 0, 64, 82
1, 1402248, Control_c, 0, 64, 61
1, 1402262, Control_c, 0, 64, 0
1, 1402582, Control_c, 0, 64, 54
1, 1402597, Control_c, 0, 64, 65
1, 1402611, Control_c, 0, 64, 68
1, 1402626, Control_c, 0, 64, 70
1, 1402641, Control_c, 0, 64, 72
1, 1402656, Control_c, 0, 64, 75
1, 1402671, Control_c, 0, 64, 78
1, 1402686, Control_c, 0, 64, 79
1, 1402701, Control_c, 0, 64, 80
1, 1402716, Control_c, 0, 64, 81
1, 1402730, Control_c, 0, 64, 82
1, 1402745, Control_c, 0, 64, 83
1, 1402760, Control_c, 0, 64, 84
1, 1402775, Control_c, 0, 64, 85
1, 1402779, Note_off_c, 0, 74, 60
1, 1402780, Note_on_c, 0, 72, 74
1, 1402789, Control_c, 0, 64, 86
1, 1402804, Control_c, 0, 64, 86
1, 1402858, Note_off_c, 0, 59, 54
1, 1402859, Note_off_c, 0, 62, 38
1, 1402877, Note_on_c, 0, 71, 72
1, 1402904, Note_off_c, 0, 72, 55
1, 1402963, Note_off_c, 0, 71, 60
1, 1402968, Control_c, 0, 64, 85
1, 1402972, Note_on_c, 0, 69, 69
1, 1402983, Note_on_c, 0, 60, 70
1, 1402983, Control_c, 0, 64, 68
1, 1402987, Note_on_c, 0, 62, 54
1, 1402998, Control_c, 0, 64, 0
1, 1403069, Note_off_c, 0, 69, 60
1, 1403070, Note_on_c, 0, 71, 69
1, 1403072, Control_c, 0, 64, 51
1, 1403086, Control_c, 0, 64, 66
1, 1403101, Control_c, 0, 64, 72
1, 1403116, Control_c, 0, 64, 77
1, 1403131, Control_c, 0, 64, 79
1, 1403160, Note_off_c, 0, 71, 57
1, 1403160, Note_on_c, 0, 72, 74
1, 1403207, Note_off_c, 0, 60, 60
1, 1403256, Note_on_c, 0, 74, 67
1, 1403258, Note_off_c, 0, 72, 64
1, 1403301, Control_c, 0, 64, 78
1, 1403316, Control_c, 0, 64, 72
1, 1403331, Control_c, 0, 64, 62
1, 1403345, Note_off_c, 0, 74, 63
1, 1403346, Control_c, 0, 64, 0
1, 1403353, Note_on_c, 0, 57, 70
1, 1403356, Note_on_c, 0, 72, 68
1, 1403409, Note_off_c, 0, 72, 52
1, 1403545, Note_on_c, 0, 69, 68
1, 1403556, Note_on_c, 0, 54, 56
1, 1403567, Note_off_c, 0, 57, 57
1, 1403584, Note_off_c, 0, 69, 63
1, 1403591, Note_off_c, 0, 62, 60
1, 1403592, Note_off_c, 0, 54, 64
1, 1403604, Note_off_c, 0, 50, 63
1, 1403629, Note_off_c, 0, 43, 51
1, 1403748, Note_on_c, 0, 67, 64
1, 1403768, Note_on_c, 0, 59, 44
1, 1403774, Note_on_c, 0, 43, 39
1, 1403779, Note_on_c, 0, 50, 44
1, 1403927, Note_off_c, 0, 50, 57
1, 1403959, Note_on_c, 0, 62, 62
1, 1403963, Note_on_c, 0, 55, 57
1, 1403979, Note_off_c, 0, 67, 57
1, 1403984, Note_off_c, 0, 59, 56
1, 1403999, Note_off_c, 0, 55, 65
1, 1404002, Note_off_c, 0, 62, 61
1, 1404025, Note_off_c, 0, 43, 49
1, 1404164, Note_on_c, 0, 50, 63
1, 1404166, Note_on_c, 0, 64, 74
1, 1404167, Note_on_c, 0, 69, 79
1, 1404169, Note_on_c, 0, 60, 71
1, 1404192, Note_off_c, 0, 64, 65
1, 1404194, Note_off_c, 0, 50, 65
1, 1404194, Note_off_c, 0, 60, 66
1, 1404197, Note_off_c, 0, 69, 60
1, 1404249, Note_on_c, 0, 50, 66
1, 1404254, Note_on_c, 0, 69, 71
1, 1404254, Note_on_c, 0, 64, 75
1, 1404263, Note_on_c, 0, 60, 68
1, 1404277, Note_off_c, 0, 69, 68
1, 1404278, Note_off_c, 0, 50, 64
1, 1404280, Note_off_c, 0, 64, 67
1, 1404291, Note_off_c, 0, 60, 67
1, 1404335, Note_on_c, 0, 50, 75
1, 1404340, Note_on_c, 0, 64, 77
1, 1404341, Note_on_c, 0, 69, 73
1, 1404353, Note_on_c, 0, 60, 64
1, 1404363, Note_off_c, 0, 50, 61
1, 1404366, Note_off_c, 0, 69, 68
1, 1404366, Note_off_c, 0, 64, 66
1, 1404378, Note_off_c, 0, 60, 64
1, 1404422, Note_on_c, 0, 50, 77
1, 1404423, Note_on_c, 0, 69, 68
1, 1404429, Note_on_c, 0, 60, 71
1, 1404442, Note_off_c, 0, 69, 69
1, 1404450, Control_c, 0, 67, 9
1, 1404452, Note_off_c, 0, 50, 63
1, 1404453, Note_off_c, 0, 60, 67
1, 1404465, Control_c, 0, 67, 12
1, 1404480, Control_c, 0, 67, 14
1, 1404495, Control_c, 0, 67, 16
1, 1404540, Control_c, 0, 67, 15
1, 1404544, Note_on_c, 0, 67, 71
1, 1404547, Note_on_c, 0, 59, 64
1, 1404555, Control_c, 0, 67, 15
1, 1404570, Control_c, 0, 67, 14
1, 1404577, Note_on_c, 0, 50, 39
1, 1404585, Control_c, 0, 64, 61
1, 1404600, Control_c, 0, 64, 80
1, 1404600, Control_c, 0, 67, 13
1, 1404614, Control_c, 0, 64, 127
1, 1404614, Control_c, 0, 67, 13
1, 1404659, Control_c, 0, 67, 12
1, 1404677, Note_off_c, 0, 50, 59
1, 1404689, Control_c, 0, 64, 73
1, 1404711, Control_c, 0, 64, 0
1, 1404711, Control_c, 0, 67, 13
1, 1404736, Note_off_c, 0, 59, 49
1, 1404740, Control_c, 0, 67, 14
1, 1404746, Note_on_c, 0, 62, 71
1, 1404757, Note_off_c, 0, 67, 57
1, 1404770, Control_c, 0, 67, 15
1, 1404787, Note_off_c, 0, 62, 60
1, 1404814, Control_c, 0, 67, 15
1, 1404889, Control_c, 0, 67, 16
1, 1404904, Control_c, 0, 67, 16
1, 1404918, Control_c, 0, 67, 17
1, 1404933, Control_c, 0, 67, 17
1, 1404947, Note_on_c, 0, 74, 78
1, 1404948, Control_c, 0, 67, 19
1, 1404949, Note_on_c, 0, 66, 76
1, 1404954, Note_on_c, 0, 57, 73
1, 1404955, Note_on_c, 0, 60, 72
1, 1404962, Note_on_c, 0, 50, 66
1, 1404963, Control_c, 0, 67, 22
1, 1404975, Note_off_c, 0, 74, 66
1, 1404976, Note_off_c, 0, 66, 67
1, 1404978, Control_c, 0, 67, 24
1, 1404979, Note_off_c, 0, 57, 68
1, 1404980, Note_off_c, 0, 60, 68
1, 1404983, Note_off_c, 0, 50, 65
1, 1404993, Control_c, 0, 67, 25
1, 1405007, Control_c, 0, 67, 27
1, 1405022, Control_c, 0, 67, 29
1, 1405035, Note_on_c, 0, 74, 77
1, 1405039, Note_on_c, 0, 66, 74
1, 1405044, Note_on_c, 0, 57, 70
1, 1405044, Note_on_c, 0, 60, 72
1, 1405058, Note_on_c, 0, 50, 62
1, 1405065, Note_off_c, 0, 66, 66
1, 1405066, Control_c, 0, 67, 29
1, 1405067, Note_off_c, 0, 57, 68
1, 1405068, Note_off_c, 0, 60, 66
1, 1405076, Note_off_c, 0, 74, 61
1, 1405080, Note_off_c, 0, 50, 61
1, 1405081, Control_c, 0, 67, 30
1, 1405111, Control_c, 0, 67, 30
1, 1405113, Poly_aftertouch_c, 0, 74, 0
1, 1405120, Note_on_c, 0, 74, 72
1, 1405127, Note_on_c, 0, 66, 72
1, 1405127, Note_on_c, 0, 57, 74
1, 1405132, Note_on_c, 0, 60, 73
1, 1405140, Note_on_c, 0, 50, 54
1, 1405140, Control_c, 0, 67, 31
1, 1405154, Note_off_c, 0, 57, 64
1, 1405155, Note_off_c, 0, 66, 65
1, 1405157, Note_off_c, 0, 60, 67
1, 1405160, Note_off_c, 0, 74, 62
1, 1405166, Note_off_c, 0, 50, 56
1, 1405199, Control_c, 0, 67, 32
1, 1405208, Note_on_c, 0, 66, 69
1, 1405210, Note_on_c, 0, 74, 70
1, 1405215, Note_on_c, 0, 57, 65
1, 1405220, Note_on_c, 0, 50, 51
1, 1405226, Note_on_c, 0, 60, 53
1, 1405237, Note_off_c, 0, 57, 62
1, 1405246, Note_off_c, 0, 74, 62
1, 1405247, Note_off_c, 0, 50, 57
1, 1405249, Note_off_c, 0, 60, 59
1, 1405253, Note_off_c, 0, 66, 62
1, 1405326, Note_on_c, 0, 74, 80
1, 1405339, Note_on_c, 0, 67, 71
1, 1405341, Note_on_c, 0, 59, 52
1, 1405348, Note_on_c, 0, 55, 42
1, 1405378, Control_c, 0, 67, 32
1, 1405408, Control_c, 0, 67, 33
1, 1405422, Control_c, 0, 64, 45
1, 1405437, Control_c, 0, 64, 64
1, 1405461, Control_c, 0, 64, 72
1, 1405461, Control_c, 0, 67, 34
1, 1405476, Control_c, 0, 64, 94
1, 1405476, Control_c, 0, 67, 34
1, 1405490, Control_c, 0, 64, 127
1, 1405490, Control_c, 0, 67, 37
1, 1405505, Control_c, 0, 67, 41
1, 1405520, Control_c, 0, 67, 46
1, 1405524, Note_off_c, 0, 59, 59
1, 1405526, Note_off_c, 0, 55, 63
1, 1405535, Control_c, 0, 67, 52
1, 1405540, Note_on_c, 0, 79, 61
1, 1405550, Control_c, 0, 64, 74
1, 1405550, Control_c, 0, 67, 57
1, 1405555, Note_off_c, 0, 74, 64
1, 1405564, Control_c, 0, 64, 49
1, 1405564, Control_c, 0, 67, 63
1, 1405571, Note_off_c, 0, 79, 62
1, 1405579, Control_c, 0, 64, 0
1, 1405579, Control_c, 0, 67, 68
1, 1405580, Note_off_c, 0, 67, 60
1, 1405594, Control_c, 0, 67, 74
1, 1405608, Control_c, 0, 67, 80
1, 1405623, Control_c, 0, 67, 86
1, 1405638, Control_c, 0, 67, 90
1, 1405653, Control_c, 0, 67, 94
1, 1405668, Control_c, 0, 67, 98
1, 1405682, Control_c, 0, 67, 100
1, 1405697, Control_c, 0, 67, 104
1, 1405712, Control_c, 0, 67, 114
1, 1405727, Control_c, 0, 67, 127
1, 1405738, Note_on_c, 0, 64, 60
1, 1405740, Note_on_c, 0, 69, 63
1, 1405745, Note_on_c, 0, 50, 55
1, 1405745, Note_on_c, 0, 60, 55
1, 1405761, Note_off_c, 0, 64, 59
1, 1405761, Note_off_c, 0, 69, 62
1, 1405768, Note_off_c, 0, 60, 61
1, 1405771, Note_off_c, 0, 50, 63
1, 1405825, Note_on_c, 0, 69, 71
1, 1405825, Note_on_c, 0, 50, 61
1, 1405826, Note_on_c, 0, 64, 70
1, 1405845, Note_on_c, 0, 60, 53
1, 1405854, Note_off_c, 0, 64, 67
1, 1405855, Note_off_c, 0, 69, 60
1, 1405858, Note_off_c, 0, 50, 63
1, 1405869, Note_off_c, 0, 60, 61
1, 1405915, Note_on_c, 0, 50, 70
1, 1405918, Note_on_c, 0, 69, 57
1, 1405921, Note_on_c, 0, 64, 61
1, 1405938, Note_on_c, 0, 60, 42
1, 1405938, Note_off_c, 0, 69, 64
1, 1405944, Note_off_c, 0, 50, 64
1, 1405945, Note_off_c, 0, 64, 59
1, 1405997, Note_on_c, 0, 64, 56
1, 1405998, Note_off_c, 0, 60, 0
1, 1406004, Note_on_c, 0, 69, 50
1, 1406010, Note_on_c, 0, 60, 40
1, 1406011, Note_on_c, 0, 50, 68
1, 1406017, Note_off_c, 0, 64, 62
1, 1406027, Note_off_c, 0, 69, 63
1, 1406036, Note_off_c, 0, 60, 58
1, 1406039, Note_off_c, 0, 50, 65
1, 1406120, Note_on_c, 0, 67, 53
1, 1406128, Note_on_c, 0, 59, 50
1, 1406144, Note_on_c, 0, 50, 43
1, 1406235, Note_off_c, 0, 50, 64
1, 1406310, Note_off_c, 0, 59, 54
1, 1406325, Note_on_c, 0, 62, 56
1, 1406337, Note_off_c, 0, 67, 57
1, 1406351, Note_off_c, 0, 62, 64
1, 1406537, Note_on_c, 0, 57, 59
1, 1406537, Note_on_c, 0, 66, 63
1, 1406539, Note_on_c, 0, 74, 58
1, 1406540, Note_on_c, 0, 60, 57
1, 1406552, Note_on_c, 0, 50, 39
1, 1406558, Note_off_c, 0, 57, 63
1, 1406565, Note_off_c, 0, 74, 70
1, 1406567, Note_off_c, 0, 60, 63
1, 1406567, Note_off_c, 0, 66, 63
1, 1406586, Note_off_c, 0, 50, 47
1, 1406618, Note_on_c, 0, 74, 70
1, 1406623, Note_on_c, 0, 57, 70
1, 1406632, Note_on_c, 0, 66, 61
1, 1406641, Note_on_c, 0, 50, 27
1, 1406644, Note_on_c, 0, 60, 49
1, 1406648, Note_off_c, 0, 57, 66
1, 1406660, Note_off_c, 0, 66, 62
1, 1406662, Note_off_c, 0, 74, 59
1, 1406666, Note_off_c, 0, 60, 58
1, 1406699, Note_off_c, 0, 50, 0
1, 1406706, Note_on_c, 0, 74, 62
1, 1406710, Note_on_c, 0, 57, 69
1, 1406713, Note_on_c, 0, 50, 41
1, 1406727, Note_on_c, 0, 60, 61
1, 1406727, Note_on_c, 0, 66, 57
1, 1406737, Note_off_c, 0, 57, 65
1, 1406744, Note_off_c, 0, 74, 63
1, 1406748, Note_off_c, 0, 50, 55
1, 1406755, Note_off_c, 0, 60, 60
1, 1406756, Note_off_c, 0, 66, 55
1, 1406793, Note_on_c, 0, 74, 65
1, 1406799, Note_on_c, 0, 50, 50
1, 1406804, Note_on_c, 0, 66, 57
1, 1406813, Note_on_c, 0, 57, 51
1, 1406826, Note_on_c, 0, 60, 17
1, 1406835, Note_off_c, 0, 66, 67
1, 1406838, Note_off_c, 0, 57, 56
1, 1406842, Note_off_c, 0, 50, 53
1, 1406842, Note_off_c, 0, 74, 62
1, 1406866, Note_off_c, 0, 60, 29
1, 1406936, Note_on_c, 0, 74, 62
1, 1406958, Note_on_c, 0, 67, 50
1, 1406984, Note_on_c, 0, 55, 11
1, 1406984, Note_on_c, 0, 59, 15
1, 1407357, Control_c, 0, 67, 121
1, 1407372, Control_c, 0, 67, 115
1, 1407387, Control_c, 0, 67, 107
1, 1407402, Control_c, 0, 67, 100
1, 1407416, Control_c, 0, 67, 94
1, 1407431, Control_c, 0, 67, 87
1, 1407446, Control_c, 0, 67, 82
1, 1407461, Control_c, 0, 67, 77
1, 1407476, Control_c, 0, 67, 72
1, 1407491, Control_c, 0, 67, 66
1, 1407503, Note_on_c, 0, 76, 52
1, 1407506, Control_c, 0, 64, 12
1, 1407506, Control_c, 0, 67, 62
1, 1407520, Control_c, 0, 64, 35
1, 1407520, Control_c, 0, 67, 58
1, 1407535, Control_c, 0, 64, 47
1, 1407535, Control_c, 0, 67, 54
1, 1407550, Control_c, 0, 64, 55
1, 1407550, Control_c, 0, 67, 51
1, 1407565, Control_c, 0, 64, 61
1, 1407565, Control_c, 0, 67, 48
1, 1407579, Control_c, 0, 64, 63
1, 1407579, Control_c, 0, 67, 46
1, 1407582, Note_off_c, 0, 74, 56
1, 1407594, Control_c, 0, 64, 64
1, 1407594, Control_c, 0, 67, 43
1, 1407603, Note_on_c, 0, 78, 64
1, 1407609, Control_c, 0, 64, 65
1, 1407609, Control_c, 0, 67, 40
1, 1407611, Note_off_c, 0, 76, 56
1, 1407624, Control_c, 0, 64, 67
1, 1407624, Control_c, 0, 67, 38
1, 1407639, Control_c, 0, 64, 69
1, 1407639, Control_c, 0, 67, 35
1, 1407653, Control_c, 0, 64, 71
1, 1407653, Control_c, 0, 67, 32
1, 1407668, Control_c, 0, 64, 74
1, 1407668, Control_c, 0, 67, 29
1, 1407683, Control_c, 0, 64, 75
1, 1407683, Control_c, 0, 67, 26
1, 1407706, Control_c, 0, 64, 76
1, 1407706, Control_c, 0, 67, 22
1, 1407720, Control_c, 0, 64, 76
1, 1407720, Control_c, 0, 67, 19
1, 1407723, Note_on_c, 0, 79, 63
1, 1407736, Control_c, 0, 64, 77
1, 1407736, Control_c, 0, 67, 17
1, 1407750, Control_c, 0, 67, 14
1, 1407757, Note_off_c, 0, 78, 63
1, 1407765, Control_c, 0, 64, 77
1, 1407765, Control_c, 0, 67, 10
1, 1407780, Control_c, 0, 67, 0
1, 1407813, Note_off_c, 0, 79, 59
1, 1407870, Control_c, 0, 64, 76
1, 1407884, Control_c, 0, 64, 74
1, 1407899, Control_c, 0, 64, 70
1, 1407910, Note_on_c, 0, 79, 62
1, 1407914, Control_c, 0, 64, 65
1, 1407929, Control_c, 0, 64, 57
1, 1407944, Control_c, 0, 64, 0
1, 1408047, Control_c, 0, 64, 42
1, 1408062, Control_c, 0, 64, 65
1, 1408076, Control_c, 0, 64, 71
1, 1408091, Control_c, 0, 64, 76
1, 1408093, Note_off_c, 0, 59, 44
1, 1408106, Control_c, 0, 64, 81
1, 1408121, Control_c, 0, 64, 88
1, 1408134, Note_off_c, 0, 55, 41
1, 1408136, Control_c, 0, 64, 99
1, 1408150, Note_off_c, 0, 67, 36
1, 1408150, Control_c, 0, 64, 127
1, 1408417, Control_c, 0, 64, 121
1, 1408432, Control_c, 0, 64, 107
1, 1408454, Control_c, 0, 64, 100
1, 1408469, Control_c, 0, 64, 94
1, 1408484, Control_c, 0, 64, 89
1, 1408498, Control_c, 0, 64, 85
1, 1408513, Control_c, 0, 64, 81
1, 1408529, Control_c, 0, 64, 77
1, 1408544, Control_c, 0, 64, 72
1, 1408559, Control_c, 0, 64, 66
1, 1408573, Control_c, 0, 64, 61
1, 1408588, Control_c, 0, 64, 52
1, 1408603, Control_c, 0, 64, 38
1, 1408618, Control_c, 0, 64, 0
1, 1408978, Note_on_c, 0, 80, 61
1, 1409104, Note_off_c, 0, 79, 50
1, 1409328, Note_on_c, 0, 81, 65
1, 1409370, Note_off_c, 0, 80, 61
1, 1409756, Note_on_c, 0, 82, 51
1, 1409787, Note_off_c, 0, 81, 61
1, 1409842, Control_c, 0, 64, 32
1, 1409856, Control_c, 0, 64, 57
1, 1409871, Control_c, 0, 64, 65
1, 1409886, Control_c, 0, 64, 68
1, 1409901, Control_c, 0, 64, 73
1, 1409916, Control_c, 0, 64, 79
1, 1409920, Note_off_c, 0, 82, 60
1, 1409930, Control_c, 0, 64, 85
1, 1409952, Control_c, 0, 64, 89
1, 1409967, Control_c, 0, 64, 92
1, 1409981, Control_c, 0, 64, 95
1, 1409996, Control_c, 0, 64, 96
1, 1410011, Control_c, 0, 64, 97
1, 1410026, Control_c, 0, 64, 98
1, 1410085, Control_c, 0, 67, 9
1, 1410100, Control_c, 0, 67, 19
1, 1410115, Control_c, 0, 67, 28
1, 1410131, Control_c, 0, 67, 35
1, 1410145, Control_c, 0, 67, 41
1, 1410160, Control_c, 0, 67, 47
1, 1410175, Control_c, 0, 67, 55
1, 1410190, Control_c, 0, 67, 65
1, 1410204, Control_c, 0, 64, 96
1, 1410204, Control_c, 0, 67, 79
1, 1410219, Control_c, 0, 64, 86
1, 1410219, Control_c, 0, 67, 91
1, 1410221, Note_on_c, 0, 82, 56
1, 1410230, Note_on_c, 0, 51, 42
1, 1410234, Control_c, 0, 64, 74
1, 1410234, Control_c, 0, 67, 105
1, 1410249, Control_c, 0, 64, 63
1, 1410249, Control_c, 0, 67, 119
1, 1410258, Note_off_c, 0, 51, 55
1, 1410264, Control_c, 0, 64, 0
1, 1410264, Control_c, 0, 67, 127
1, 1410350, Note_on_c, 0, 79, 43
1, 1410375, Note_off_c, 0, 82, 38
1, 1410429, Note_off_c, 0, 79, 52
1, 1410432, Note_on_c, 0, 67, 61
1, 1410435, Note_on_c, 0, 58, 63
1, 1410437, Note_on_c, 0, 75, 61
1, 1410460, Note_off_c, 0, 67, 65
1, 1410462, Note_off_c, 0, 58, 66
1, 1410493, Note_off_c, 0, 75, 63
1, 1410522, Note_on_c, 0, 70, 59
1, 1410525, Note_on_c, 0, 58, 70
1, 1410534, Note_on_c, 0, 67, 56
1, 1410548, Note_off_c, 0, 58, 69
1, 1410556, Note_off_c, 0, 67, 63
1, 1410563, Note_off_c, 0, 70, 57
1, 1410615, Note_on_c, 0, 70, 54
1, 1410618, Note_on_c, 0, 67, 76
1, 1410621, Note_on_c, 0, 58, 68
1, 1410642, Note_off_c, 0, 67, 66
1, 1410647, Note_off_c, 0, 58, 67
1, 1410682, Note_off_c, 0, 70, 58
1, 1410725, Note_on_c, 0, 72, 57
1, 1410784, Note_off_c, 0, 72, 63
1, 1410815, Note_on_c, 0, 66, 67
1, 1410818, Note_on_c, 0, 69, 62
1, 1410821, Note_on_c, 0, 58, 59
1, 1410895, Note_off_c, 0, 69, 59
1, 1410917, Note_on_c, 0, 72, 55
1, 1410985, Note_off_c, 0, 72, 63
1, 1410994, Note_off_c, 0, 66, 64
1, 1410999, Note_on_c, 0, 67, 61
1, 1411009, Note_on_c, 0, 70, 60
1, 1411026, Note_off_c, 0, 58, 63
1, 1411027, Note_off_c, 0, 67, 65
1, 1411068, Note_off_c, 0, 70, 64
1, 1411108, Note_on_c, 0, 67, 51
1, 1411188, Note_on_c, 0, 55, 53
1, 1411195, Note_on_c, 0, 70, 62
1, 1411205, Note_off_c, 0, 67, 33
1, 1411267, Note_off_c, 0, 70, 52
1, 1411273, Note_off_c, 0, 55, 63
1, 1411281, Note_on_c, 0, 58, 50
1, 1411295, Note_on_c, 0, 75, 59
1, 1411350, Note_off_c, 0, 58, 59
1, 1411376, Note_off_c, 0, 75, 64
1, 1411383, Control_c, 0, 64, 59
1, 1411384, Note_on_c, 0, 63, 57
1, 1411387, Note_on_c, 0, 79, 57
1, 1411398, Control_c, 0, 64, 67
1, 1411411, Note_off_c, 0, 63, 66
1, 1411413, Control_c, 0, 64, 69
1, 1411427, Control_c, 0, 64, 71
1, 1411432, Note_off_c, 0, 79, 51
1, 1411450, Control_c, 0, 64, 71
1, 1411477, Note_on_c, 0, 75, 55
1, 1411572, Note_on_c, 0, 70, 58
1, 1411607, Note_off_c, 0, 75, 58
1, 1411641, Note_off_c, 0, 70, 62
1, 1411666, Note_on_c, 0, 67, 43
1, 1411694, Note_off_c, 0, 67, 55
1, 1411701, Control_c, 0, 64, 71
1, 1411716, Control_c, 0, 64, 66
1, 1411732, Control_c, 0, 64, 52
1, 1411746, Note_on_c, 0, 70, 74
1, 1411747, Control_c, 0, 64, 0
1, 1411757, Note_on_c, 0, 46, 61
1, 1411772, Note_off_c, 0, 70, 61
1, 1411777, Note_on_c, 0, 68, 29
1, 1411778, Note_on_c, 0, 65, 38
1, 1411809, Note_off_c, 0, 65, 53
1, 1411813, Note_off_c, 0, 68, 32
1, 1411834, Note_off_c, 0, 46, 61
1, 1411849, Note_on_c, 0, 50, 58
1, 1411925, Note_on_c, 0, 70, 74
1, 1411929, Note_on_c, 0, 65, 52
1, 1411931, Note_off_c, 0, 50, 63
1, 1411937, Note_on_c, 0, 53, 67
1, 1411938, Note_on_c, 0, 68, 41
1, 1411949, Note_off_c, 0, 70, 66
1, 1411955, Note_off_c, 0, 65, 62
1, 1411965, Note_off_c, 0, 68, 56
1, 1411967, Note_off_c, 0, 53, 68
1, 1412013, Note_on_c, 0, 70, 74
1, 1412014, Note_on_c, 0, 58, 64
1, 1412024, Note_on_c, 0, 65, 57
1, 1412034, Note_off_c, 0, 70, 70
1, 1412044, Note_off_c, 0, 65, 61
1, 1412049, Note_off_c, 0, 58, 62
1, 1412098, Note_on_c, 0, 72, 74
1, 1412104, Note_on_c, 0, 62, 68
1, 1412105, Note_on_c, 0, 65, 69
1, 1412121, Note_off_c, 0, 65, 68
1, 1412123, Note_on_c, 0, 68, 35
1, 1412124, Note_off_c, 0, 68, 127
1, 1412137, Note_off_c, 0, 72, 63
1, 1412154, Note_off_c, 0, 62, 54
1, 1412207, Note_on_c, 0, 58, 60
1, 1412271, Note_off_c, 0, 58, 63
1, 1412282, Note_on_c, 0, 70, 65
1, 1412290, Note_on_c, 0, 62, 62
1, 1412292, Note_on_c, 0, 68, 50
1, 1412317, Note_on_c, 0, 65, 22
1, 1412318, Note_off_c, 0, 68, 64
1, 1412327, Note_off_c, 0, 70, 56
1, 1412356, Note_off_c, 0, 62, 61
1, 1412356, Note_off_c, 0, 65, 46
1, 1412384, Note_on_c, 0, 58, 58
1, 1412434, Note_off_c, 0, 58, 59
1, 1412473, Note_on_c, 0, 70, 61
1, 1412482, Note_on_c, 0, 63, 59
1, 1412486, Note_on_c, 0, 67, 43
1, 1412506, Note_off_c, 0, 63, 60
1, 1412515, Note_off_c, 0, 67, 58
1, 1412565, Note_off_c, 0, 70, 56
1, 1412587, Note_on_c, 0, 75, 49
1, 1412644, Note_off_c, 0, 75, 59
1, 1412651, Note_on_c, 0, 56, 50
1, 1412658, Note_on_c, 0, 68, 43
1, 1412659, Note_on_c, 0, 51, 48
1, 1412660, Control_c, 0, 64, 58
1, 1412660, Note_on_c, 0, 74, 48
1, 1412674, Control_c, 0, 64, 70
1, 1412689, Control_c, 0, 64, 74
1, 1412704, Control_c, 0, 64, 73
1, 1412719, Control_c, 0, 64, 73
1, 1412734, Control_c, 0, 64, 72
1, 1412737, Note_on_c, 0, 72, 57
1, 1412743, Note_on_c, 0, 60, 54
1, 1412748, Control_c, 0, 64, 68
1, 1412752, Note_off_c, 0, 68, 32
1, 1412763, Control_c, 0, 64, 63
1, 1412773, Note_off_c, 0, 74, 41
1, 1412778, Control_c, 0, 64, 47
1, 1412792, Control_c, 0, 64, 0
1, 1412793, Note_off_c, 0, 56, 34
1, 1412819, Note_off_c, 0, 72, 60
1, 1412820, Note_off_c, 0, 60, 61
1, 1412833, Note_on_c, 0, 63, 62
1, 1412833, Note_on_c, 0, 70, 62
1, 1412838, Note_on_c, 0, 67, 47
1, 1412860, Note_off_c, 0, 70, 67
1, 1412862, Note_off_c, 0, 51, 60
1, 1412862, Note_off_c, 0, 63, 66
1, 1412863, Note_off_c, 0, 67, 58
1, 1412946, Note_on_c, 0, 70, 65
1, 1413036, Note_on_c, 0, 75, 72
1, 1413063, Note_off_c, 0, 70, 60
1, 1413119, Note_on_c, 0, 79, 70
1, 1413156, Note_off_c, 0, 75, 50
1, 1413202, Note_on_c, 0, 51, 57
1, 1413208, Note_on_c, 0, 82, 72
1, 1413215, Note_off_c, 0, 79, 60
1, 1413232, Note_off_c, 0, 51, 64
1, 1413316, Note_off_c, 0, 82, 55
1, 1413321, Note_on_c, 0, 79, 64
1, 1413381, Note_on_c, 0, 67, 65
1, 1413382, Note_on_c, 0, 58, 62
1, 1413401, Note_off_c, 0, 79, 59
1, 1413402, Note_on_c, 0, 75, 66
1, 1413405, Note_off_c, 0, 58, 66
1, 1413407, Note_off_c, 0, 67, 68
1, 1413453, Note_off_c, 0, 75, 63
1, 1413471, Note_on_c, 0, 58, 76
1, 1413476, Note_on_c, 0, 70, 67
1, 1413478, Note_on_c, 0, 67, 72
1, 1413494, Note_off_c, 0, 58, 67
1, 1413500, Note_off_c, 0, 67, 67
1, 1413521, Note_off_c, 0, 70, 57
1, 1413563, Note_on_c, 0, 70, 60
1, 1413569, Note_on_c, 0, 67, 75
1, 1413572, Note_on_c, 0, 58, 73
1, 1413596, Note_off_c, 0, 58, 68
1, 1413598, Note_off_c, 0, 67, 58
1, 1413635, Note_off_c, 0, 70, 61
1, 1413644, Note_on_c, 0, 72, 67
1, 1413711, Note_off_c, 0, 72, 63
1, 1413743, Note_on_c, 0, 69, 66
1, 1413744, Note_on_c, 0, 66, 73
1, 1413752, Note_on_c, 0, 58, 68
1, 1413816, Note_off_c, 0, 69, 60
1, 1413834, Note_on_c, 0, 72, 63
1, 1413897, Note_off_c, 0, 66, 63
1, 1413901, Note_off_c, 0, 72, 61
1, 1413916, Note_on_c, 0, 67, 65
1, 1413928, Note_on_c, 0, 70, 61
1, 1413933, Note_off_c, 0, 58, 62
1, 1413939, Note_off_c, 0, 67, 68
1, 1413982, Note_off_c, 0, 70, 61
1, 1414018, Note_on_c, 0, 67, 62
1, 1414109, Note_on_c, 0, 55, 55
1, 1414115, Note_on_c, 0, 70, 60
1, 1414138, Note_off_c, 0, 67, 34
1, 1414179, Note_off_c, 0, 70, 51
1, 1414192, Note_on_c, 0, 58, 57
1, 1414193, Note_off_c, 0, 55, 63
1, 1414204, Note_on_c, 0, 75, 56
1, 1414289, Control_c, 0, 64, 49
1, 1414290, Note_off_c, 0, 75, 65
1, 1414299, Note_on_c, 0, 79, 58
1, 1414299, Note_on_c, 0, 63, 57
1, 1414304, Control_c, 0, 64, 62
1, 1414309, Note_off_c, 0, 58, 57
1, 1414318, Control_c, 0, 64, 63
1, 1414351, Note_off_c, 0, 79, 53
1, 1414356, Note_off_c, 0, 63, 62
1, 1414377, Note_on_c, 0, 75, 58
1, 1414478, Note_on_c, 0, 70, 65
1, 1414495, Note_off_c, 0, 75, 55
1, 1414549, Note_off_c, 0, 70, 63
1, 1414566, Note_on_c, 0, 67, 53
1, 1414590, Note_off_c, 0, 67, 61
1, 1414592, Control_c, 0, 64, 62
1, 1414607, Control_c, 0, 64, 61
1, 1414622, Control_c, 0, 64, 54
1, 1414637, Control_c, 0, 64, 24
1, 1414651, Control_c, 0, 64, 0
1, 1414692, Note_on_c, 0, 53, 56
1, 1414708, Note_on_c, 0, 77, 66
1, 1414717, Note_on_c, 0, 72, 50
1, 1414735, Note_off_c, 0, 77, 65
1, 1414740, Note_off_c, 0, 72, 59
1, 1414774, Note_off_c, 0, 53, 64
1, 1414785, Note_on_c, 0, 57, 60
1, 1414874, Note_off_c, 0, 57, 57
1, 1414893, Note_on_c, 0, 60, 58
1, 1414895, Note_on_c, 0, 77, 69
1, 1414910, Note_on_c, 0, 72, 40
1, 1414915, Note_on_c, 0, 75, 34
1, 1414924, Note_off_c, 0, 77, 63
1, 1414927, Note_off_c, 0, 60, 65
1, 1414935, Note_off_c, 0, 72, 56
1, 1414949, Note_off_c, 0, 75, 47
1, 1414986, Note_on_c, 0, 77, 66
1, 1414991, Note_on_c, 0, 65, 60
1, 1415011, Note_off_c, 0, 77, 63
1, 1415013, Note_on_c, 0, 72, 45
1, 1415037, Note_off_c, 0, 72, 59
1, 1415076, Note_off_c, 0, 65, 34
1, 1415081, Note_on_c, 0, 69, 65
1, 1415089, Note_on_c, 0, 79, 74
1, 1415117, Note_off_c, 0, 69, 64
1, 1415122, Note_on_c, 0, 72, 36
1, 1415137, Note_off_c, 0, 79, 59
1, 1415152, Note_off_c, 0, 72, 55
1, 1415208, Note_on_c, 0, 65, 43
1, 1415278, Note_off_c, 0, 65, 41
1, 1415284, Note_on_c, 0, 69, 52
1, 1415284, Note_on_c, 0, 77, 69
1, 1415299, Note_on_c, 0, 72, 40
1, 1415307, Note_off_c, 0, 69, 65
1, 1415323, Note_off_c, 0, 72, 59
1, 1415330, Note_off_c, 0, 77, 58
1, 1415382, Note_on_c, 0, 65, 53
1, 1415417, Note_off_c, 0, 65, 58
1, 1415468, Note_on_c, 0, 77, 74
1, 1415471, Note_on_c, 0, 53, 59
1, 1415479, Note_on_c, 0, 74, 55
1, 1415501, Note_off_c, 0, 77, 60
1, 1415507, Note_off_c, 0, 74, 69
1, 1415530, Note_off_c, 0, 53, 59
1, 1415563, Note_on_c, 0, 58, 50
1, 1415647, Note_off_c, 0, 58, 60
1, 1415653, Note_on_c, 0, 77, 74
1, 1415656, Note_on_c, 0, 62, 62
1, 1415664, Note_on_c, 0, 74, 52
1, 1415675, Note_off_c, 0, 77, 67
1, 1415685, Note_off_c, 0, 62, 65
1, 1415686, Note_off_c, 0, 74, 65
1, 1415739, Note_on_c, 0, 65, 58
1, 1415746, Note_on_c, 0, 77, 73
1, 1415760, Note_on_c, 0, 74, 54
1, 1415768, Note_off_c, 0, 77, 68
1, 1415779, Note_off_c, 0, 74, 65
1, 1415781, Note_off_c, 0, 65, 55
1, 1415827, Note_on_c, 0, 86, 81
1, 1415828, Note_on_c, 0, 70, 66
1, 1415842, Note_on_c, 0, 74, 66
1, 1415843, Note_on_c, 0, 77, 63
1, 1415862, Note_off_c, 0, 77, 62
1, 1415864, Note_off_c, 0, 70, 60
1, 1415868, Note_off_c, 0, 74, 62
1, 1415892, Note_off_c, 0, 86, 60
1, 1415921, Note_on_c, 0, 65, 51
1, 1416011, Note_off_c, 0, 65, 57
1, 1416022, Note_on_c, 0, 70, 61
1, 1416022, Note_on_c, 0, 77, 79
1, 1416039, Note_on_c, 0, 74, 56
1, 1416052, Note_off_c, 0, 70, 67
1, 1416071, Note_off_c, 0, 74, 64
1, 1416075, Note_off_c, 0, 77, 61
1, 1416136, Note_on_c, 0, 65, 45
1, 1416168, Note_off_c, 0, 65, 55
1, 1416180, Control_c, 0, 67, 124
1, 1416195, Control_c, 0, 67, 110
1, 1416199, Note_on_c, 0, 53, 66
1, 1416201, Note_on_c, 0, 79, 79
1, 1416210, Control_c, 0, 67, 98
1, 1416211, Note_on_c, 0, 74, 64
1, 1416221, Note_on_c, 0, 77, 56
1, 1416224, Control_c, 0, 67, 87
1, 1416238, Note_off_c, 0, 74, 69
1, 1416239, Control_c, 0, 67, 77
1, 1416243, Note_off_c, 0, 77, 59
1, 1416249, Note_off_c, 0, 79, 59
1, 1416254, Control_c, 0, 67, 70
1, 1416269, Control_c, 0, 67, 61
1, 1416272, Note_off_c, 0, 53, 63
1, 1416284, Control_c, 0, 67, 55
1, 1416294, Note_on_c, 0, 59, 59
1, 1416298, Control_c, 0, 67, 52
1, 1416313, Control_c, 0, 67, 50
1, 1416328, Control_c, 0, 67, 49
1, 1416342, Control_c, 0, 67, 49
1, 1416377, Note_on_c, 0, 79, 73
1, 1416380, Note_off_c, 0, 59, 63
1, 1416390, Note_on_c, 0, 62, 75
1, 1416391, Note_on_c, 0, 74, 51
1, 1416401, Note_off_c, 0, 79, 65
1, 1416402, Control_c, 0, 67, 49
1, 1416412, Note_off_c, 0, 74, 64
1, 1416416, Control_c, 0, 67, 50
1, 1416429, Note_off_c, 0, 62, 61
1, 1416431, Control_c, 0, 67, 50
1, 1416469, Note_on_c, 0, 79, 77
1, 1416471, Note_on_c, 0, 74, 76
1, 1416473, Note_on_c, 0, 77, 33
1, 1416475, Note_on_c, 0, 67, 66
1, 1416493, Note_off_c, 0, 79, 63
1, 1416496, Note_off_c, 0, 74, 64
1, 1416503, Note_off_c, 0, 77, 60
1, 1416547, Note_off_c, 0, 67, 38
1, 1416551, Control_c, 0, 67, 51
1, 1416560, Note_on_c, 0, 71, 74
1, 1416563, Note_on_c, 0, 80, 88
1, 1416586, Note_on_c, 0, 77, 60
1, 1416592, Note_on_c, 0, 74, 51
1, 1416605, Note_off_c, 0, 71, 60
1, 1416607, Note_off_c, 0, 77, 60
1, 1416613, Note_off_c, 0, 74, 61
1, 1416621, Note_off_c, 0, 80, 63
1, 1416653, Note_on_c, 0, 67, 66
1, 1416750, Note_off_c, 0, 67, 60
1, 1416751, Note_on_c, 0, 71, 62
1, 1416756, Note_on_c, 0, 79, 79
1, 1416762, Note_on_c, 0, 74, 58
1, 1416779, Note_off_c, 0, 71, 66
1, 1416788, Note_off_c, 0, 79, 61
1, 1416797, Note_off_c, 0, 74, 63
1, 1416838, Note_on_c, 0, 67, 64
1, 1416854, Control_c, 0, 67, 50
1, 1416869, Control_c, 0, 67, 50
1, 1416873, Note_off_c, 0, 67, 58
1, 1416935, Note_on_c, 0, 79, 72
1, 1416937, Note_on_c, 0, 75, 66
1, 1416943, Control_c, 0, 67, 49
1, 1416945, Note_on_c, 0, 53, 67
1, 1416968, Note_off_c, 0, 75, 65
1, 1416976, Note_off_c, 0, 79, 59
1, 1417002, Note_off_c, 0, 53, 65
1, 1417046, Control_c, 0, 67, 49
1, 1417047, Note_on_c, 0, 60, 46
1, 1417113, Note_on_c, 0, 79, 72
1, 1417116, Note_off_c, 0, 60, 61
1, 1417118, Note_on_c, 0, 75, 62
1, 1417122, Note_on_c, 0, 63, 72
1, 1417141, Note_off_c, 0, 75, 68
1, 1417144, Note_off_c, 0, 79, 60
1, 1417155, Note_off_c, 0, 63, 62
1, 1417204, Note_on_c, 0, 67, 65
1, 1417205, Note_on_c, 0, 75, 77
1, 1417209, Note_on_c, 0, 79, 65
1, 1417209, Control_c, 0, 67, 48
1, 1417224, Control_c, 0, 67, 48
1, 1417230, Note_off_c, 0, 75, 67
1, 1417236, Note_off_c, 0, 79, 64
1, 1417244, Note_off_c, 0, 67, 53
1, 1417285, Note_on_c, 0, 87, 86
1, 1417289, Note_on_c, 0, 72, 73
1, 1417308, Note_on_c, 0, 79, 62
1, 1417309, Note_on_c, 0, 75, 45
1, 1417324, Note_off_c, 0, 72, 61
1, 1417328, Note_off_c, 0, 79, 62
1, 1417337, Note_off_c, 0, 75, 53
1, 1417367, Note_off_c, 0, 87, 61
1, 1417373, Control_c, 0, 67, 47
1, 1417386, Note_on_c, 0, 67, 52
1, 1417388, Control_c, 0, 67, 47
1, 1417469, Control_c, 0, 67, 46
1, 1417473, Note_on_c, 0, 75, 65
1, 1417474, Note_on_c, 0, 79, 60
1, 1417474, Note_on_c, 0, 72, 63
1, 1417479, Note_off_c, 0, 67, 56
1, 1417484, Control_c, 0, 67, 45
1, 1417498, Note_off_c, 0, 79, 65
1, 1417499, Control_c, 0, 67, 43
1, 1417500, Note_off_c, 0, 75, 68
1, 1417505, Note_off_c, 0, 72, 66
1, 1417513, Control_c, 0, 67, 40
1, 1417528, Control_c, 0, 67, 37
1, 1417543, Control_c, 0, 67, 35
1, 1417558, Control_c, 0, 67, 33
1, 1417572, Note_on_c, 0, 67, 52
1, 1417573, Control_c, 0, 67, 30
1, 1417587, Control_c, 0, 67, 26
1, 1417595, Note_off_c, 0, 67, 60
1, 1417602, Control_c, 0, 67, 23
1, 1417617, Control_c, 0, 67, 19
1, 1417632, Control_c, 0, 67, 14
1, 1417647, Control_c, 0, 67, 9
1, 1417662, Control_c, 0, 67, 0
1, 1417666, Note_on_c, 0, 81, 71
1, 1417701, Note_on_c, 0, 84, 66
1, 1417733, Note_on_c, 0, 87, 77
1, 1417780, Control_c, 0, 64, 58
1, 1417781, Note_on_c, 0, 91, 92
1, 1417784, Note_off_c, 0, 84, 58
1, 1417795, Control_c, 0, 64, 68
1, 1417797, Note_on_c, 0, 53, 69
1, 1417805, Note_off_c, 0, 81, 35
1, 1417810, Control_c, 0, 64, 84
1, 1417825, Control_c, 0, 64, 127
1, 1417829, Note_off_c, 0, 53, 67
1, 1417836, Note_off_c, 0, 87, 61
1, 1417928, Note_on_c, 0, 89, 78
1, 1417986, Note_off_c, 0, 91, 54
1, 1418061, Note_on_c, 0, 87, 78
1, 1418063, Note_on_c, 0, 75, 80
1, 1418080, Note_on_c, 0, 69, 61
1, 1418080, Note_on_c, 0, 72, 59
1, 1418097, Note_off_c, 0, 89, 58
1, 1418115, Note_on_c, 0, 65, 25
1, 1418164, Note_on_c, 0, 86, 77
1, 1418221, Note_off_c, 0, 87, 37
1, 1418246, Note_off_c, 0, 86, 63
1, 1418264, Note_on_c, 0, 84, 71
1, 1418354, Note_on_c, 0, 82, 71
1, 1418354, Note_off_c, 0, 84, 62
1, 1418449, Note_on_c, 0, 81, 70
1, 1418485, Note_off_c, 0, 82, 38
1, 1418512, Note_off_c, 0, 81, 62
1, 1418530, Note_on_c, 0, 79, 65
1, 1418563, Note_off_c, 0, 75, 61
1, 1418595, Note_off_c, 0, 72, 58
1, 1418604, Note_off_c, 0, 69, 59
1, 1418624, Note_on_c, 0, 77, 70
1, 1418630, Note_off_c, 0, 79, 58
1, 1418653, Note_off_c, 0, 65, 38
1, 1418698, Note_off_c, 0, 77, 60
1, 1418714, Note_on_c, 0, 76, 72
1, 1418779, Note_off_c, 0, 76, 61
1, 1418799, Note_on_c, 0, 77, 65
1, 1418864, Note_off_c, 0, 77, 60
1, 1418883, Note_on_c, 0, 76, 74
1, 1418938, Control_c, 0, 64, 121
1, 1418953, Control_c, 0, 64, 110
1, 1418967, Control_c, 0, 64, 104
1, 1418980, Note_off_c, 0, 76, 62
1, 1418981, Note_on_c, 0, 77, 76
1, 1418982, Control_c, 0, 64, 98
1, 1418997, Control_c, 0, 64, 92
1, 1419012, Control_c, 0, 64, 87
1, 1419027, Control_c, 0, 64, 83
1, 1419042, Control_c, 0, 64, 78
1, 1419053, Note_off_c, 0, 77, 61
1, 1419057, Control_c, 0, 64, 72
1, 1419057, Note_on_c, 0, 76, 72
1, 1419072, Control_c, 0, 64, 68
1, 1419087, Control_c, 0, 64, 64
1, 1419102, Control_c, 0, 64, 60
1, 1419116, Control_c, 0, 64, 53
1, 1419131, Control_c, 0, 64, 45
1, 1419146, Control_c, 0, 64, 34
1, 1419152, Note_on_c, 0, 77, 82
1, 1419160, Control_c, 0, 64, 0
1, 1419162, Note_off_c, 0, 76, 62
1, 1419212, Note_on_c, 0, 79, 74
1, 1419235, Note_off_c, 0, 77, 61
1, 1419267, Note_off_c, 0, 79, 62
1, 1419288, Note_on_c, 0, 74, 72
1, 1419336, Note_on_c, 0, 77, 67
1, 1419382, Note_on_c, 0, 80, 79
1, 1419386, Note_off_c, 0, 74, 60
1, 1419412, Control_c, 0, 64, 29
1, 1419427, Control_c, 0, 64, 61
1, 1419428, Note_on_c, 0, 46, 64
1, 1419436, Note_off_c, 0, 77, 61
1, 1419441, Control_c, 0, 64, 68
1, 1419448, Note_on_c, 0, 84, 83
1, 1419456, Control_c, 0, 64, 76
1, 1419471, Control_c, 0, 64, 94
1, 1419486, Control_c, 0, 64, 127
1, 1419490, Note_off_c, 0, 80, 63
1, 1419498, Note_off_c, 0, 46, 64
1, 1419623, Note_on_c, 0, 82, 74
1, 1419702, Note_off_c, 0, 84, 45
1, 1419764, Note_on_c, 0, 80, 67
1, 1419772, Note_on_c, 0, 68, 49
1, 1419785, Note_on_c, 0, 62, 44
1, 1419799, Note_on_c, 0, 65, 41
1, 1419802, Note_on_c, 0, 58, 43
1, 1419836, Note_off_c, 0, 82, 48
1, 1419858, Note_on_c, 0, 79, 63
1, 1419897, Note_off_c, 0, 80, 59
1, 1419928, Note_off_c, 0, 79, 61
1, 1419950, Note_on_c, 0, 77, 63
1, 1420036, Note_off_c, 0, 77, 59
1, 1420040, Note_on_c, 0, 75, 63
1, 1420127, Note_on_c, 0, 74, 60
1, 1420132, Note_off_c, 0, 75, 55
1, 1420193, Note_off_c, 0, 74, 63
1, 1420215, Note_on_c, 0, 72, 64
1, 1420282, Note_off_c, 0, 72, 59
1, 1420310, Note_on_c, 0, 70, 64
1, 1420358, Note_off_c, 0, 68, 62
1, 1420367, Note_off_c, 0, 65, 53
1, 1420368, Note_off_c, 0, 70, 63
1, 1420396, Note_on_c, 0, 72, 64
1, 1420401, Note_off_c, 0, 58, 55
1, 1420403, Note_off_c, 0, 62, 41
1, 1420481, Note_off_c, 0, 72, 58
1, 1420493, Note_on_c, 0, 74, 61
1, 1420509, Control_c, 0, 64, 112
1, 1420524, Control_c, 0, 64, 101
1, 1420538, Control_c, 0, 64, 95
1, 1420553, Control_c, 0, 64, 91
1, 1420568, Control_c, 0, 64, 85
1, 1420576, Note_on_c, 0, 75, 66
1, 1420576, Note_off_c, 0, 74, 59
1, 1420583, Control_c, 0, 64, 76
1, 1420598, Control_c, 0, 64, 67
1, 1420613, Control_c, 0, 64, 56
1, 1420613, Control_c, 0, 67, 8
1, 1420628, Control_c, 0, 64, 0
1, 1420628, Control_c, 0, 67, 12
1, 1420636, Note_off_c, 0, 75, 65
1, 1420643, Control_c, 0, 67, 14
1, 1420658, Control_c, 0, 67, 17
1, 1420667, Note_on_c, 0, 77, 70
1, 1420672, Control_c, 0, 67, 18
1, 1420687, Control_c, 0, 67, 19
1, 1420702, Control_c, 0, 67, 20
1, 1420717, Control_c, 0, 67, 21
1, 1420731, Control_c, 0, 67, 22
1, 1420746, Control_c, 0, 67, 22
1, 1420758, Note_off_c, 0, 77, 53
1, 1420761, Control_c, 0, 67, 25
1, 1420763, Note_on_c, 0, 79, 61
1, 1420776, Control_c, 0, 67, 27
1, 1420791, Control_c, 0, 67, 29
1, 1420805, Control_c, 0, 67, 31
1, 1420820, Control_c, 0, 67, 32
1, 1420835, Control_c, 0, 67, 33
1, 1420838, Note_off_c, 0, 79, 60
1, 1420851, Note_on_c, 0, 80, 68
1, 1420865, Control_c, 0, 67, 34
1, 1420894, Control_c, 0, 67, 35
1, 1420909, Control_c, 0, 67, 37
1, 1420914, Note_off_c, 0, 80, 62
1, 1420924, Control_c, 0, 67, 39
1, 1420935, Note_on_c, 0, 81, 60
1, 1420938, Control_c, 0, 67, 40
1, 1420953, Control_c, 0, 67, 42
1, 1420968, Control_c, 0, 67, 43
1, 1420983, Control_c, 0, 67, 45
1, 1420998, Control_c, 0, 67, 48
1, 1421012, Control_c, 0, 67, 53
1, 1421022, Note_on_c, 0, 51, 56
1, 1421027, Control_c, 0, 67, 58
1, 1421030, Note_on_c, 0, 82, 63
1, 1421032, Note_off_c, 0, 81, 52
1, 1421042, Control_c, 0, 67, 64
1, 1421057, Control_c, 0, 67, 69
1, 1421058, Note_off_c, 0, 51, 64
1, 1421072, Control_c, 0, 67, 74
1, 1421087, Control_c, 0, 67, 77
1, 1421102, Control_c, 0, 67, 80
1, 1421117, Control_c, 0, 67, 84
1, 1421131, Control_c, 0, 67, 87
1, 1421139, Note_off_c, 0, 82, 57
1, 1421141, Note_on_c, 0, 79, 60
1, 1421146, Control_c, 0, 67, 90
1, 1421161, Control_c, 0, 67, 93
1, 1421183, Control_c, 0, 67, 96
1, 1421198, Control_c, 0, 67, 100
1, 1421212, Control_c, 0, 67, 106
1, 1421213, Note_on_c, 0, 67, 67
1, 1421218, Note_on_c, 0, 58, 60
1, 1421218, Note_off_c, 0, 79, 58
1, 1421227, Control_c, 0, 67, 113
1, 1421238, Note_off_c, 0, 58, 64
1, 1421238, Note_off_c, 0, 67, 67
1, 1421239, Note_on_c, 0, 75, 61
1, 1421242, Control_c, 0, 67, 120
1, 1421257, Control_c, 0, 67, 127
1, 1421271, Note_off_c, 0, 75, 66
1, 1421301, Note_on_c, 0, 58, 78
1, 1421305, Note_on_c, 0, 67, 69
1, 1421308, Note_on_c, 0, 70, 66
1, 1421322, Note_off_c, 0, 58, 70
1, 1421328, Note_off_c, 0, 67, 69
1, 1421370, Note_off_c, 0, 70, 0
1, 1421390, Note_on_c, 0, 70, 51
1, 1421402, Note_on_c, 0, 58, 70
1, 1421404, Note_on_c, 0, 67, 74
1, 1421422, Note_off_c, 0, 58, 67
1, 1421424, Note_off_c, 0, 67, 70
1, 1421465, Note_off_c, 0, 70, 63
1, 1421478, Note_on_c, 0, 72, 66
1, 1421543, Note_off_c, 0, 72, 63
1, 1421571, Note_on_c, 0, 66, 75
1, 1421576, Note_on_c, 0, 69, 63
1, 1421586, Note_on_c, 0, 58, 59
1, 1421644, Note_off_c, 0, 69, 57
1, 1421671, Note_on_c, 0, 72, 57
1, 1421730, Note_off_c, 0, 72, 59
1, 1421746, Note_off_c, 0, 66, 64
1, 1421754, Note_on_c, 0, 67, 64
1, 1421758, Note_on_c, 0, 70, 61
1, 1421780, Note_off_c, 0, 58, 62
1, 1421780, Note_off_c, 0, 67, 69
1, 1421807, Note_off_c, 0, 70, 61
1, 1421848, Note_on_c, 0, 67, 47
1, 1421895, Note_off_c, 0, 67, 55
1, 1421947, Note_on_c, 0, 70, 58
1, 1421959, Note_on_c, 0, 55, 55
1, 1422010, Note_off_c, 0, 70, 49
1, 1422022, Note_on_c, 0, 58, 60
1, 1422035, Control_c, 0, 64, 45
1, 1422041, Note_off_c, 0, 55, 56
1, 1422044, Note_on_c, 0, 75, 56
1, 1422050, Control_c, 0, 64, 60
1, 1422065, Control_c, 0, 64, 63
1, 1422079, Control_c, 0, 64, 64
1, 1422094, Control_c, 0, 64, 64
1, 1422111, Control_c, 0, 64, 66
1, 1422125, Control_c, 0, 64, 68
1, 1422126, Note_on_c, 0, 63, 78
1, 1422127, Note_off_c, 0, 75, 64
1, 1422130, Note_off_c, 0, 58, 62
1, 1422135, Note_on_c, 0, 79, 59
1, 1422140, Control_c, 0, 64, 71
1, 1422155, Control_c, 0, 64, 73
1, 1422170, Control_c, 0, 64, 74
1, 1422183, Note_off_c, 0, 63, 65
1, 1422184, Control_c, 0, 64, 73
1, 1422199, Control_c, 0, 64, 69
1, 1422205, Note_off_c, 0, 79, 59
1, 1422214, Control_c, 0, 64, 61
1, 1422219, Note_on_c, 0, 75, 59
1, 1422229, Control_c, 0, 64, 45
1, 1422244, Control_c, 0, 64, 26
1, 1422258, Control_c, 0, 64, 28
1, 1422273, Control_c, 0, 64, 29
1, 1422303, Control_c, 0, 64, 29
1, 1422309, Note_on_c, 0, 70, 64
1, 1422318, Control_c, 0, 64, 30
1, 1422336, Note_off_c, 0, 75, 58
1, 1422348, Control_c, 0, 64, 29
1, 1422363, Control_c, 0, 64, 28
1, 1422377, Control_c, 0, 64, 25
1, 1422381, Note_off_c, 0, 70, 61
1, 1422392, Control_c, 0, 64, 19
1, 1422392, Note_on_c, 0, 67, 58
1, 1422407, Control_c, 0, 64, 12
1, 1422422, Control_c, 0, 64, 0
1, 1422423, Note_off_c, 0, 67, 64
1, 1422491, Note_on_c, 0, 46, 66
1, 1422491, Note_on_c, 0, 70, 69
1, 1422511, Note_on_c, 0, 68, 46
1, 1422516, Note_on_c, 0, 65, 45
1, 1422516, Note_off_c, 0, 70, 67
1, 1422536, Note_off_c, 0, 68, 59
1, 1422542, Note_off_c, 0, 65, 57
1, 1422568, Note_off_c, 0, 46, 61
1, 1422580, Note_on_c, 0, 50, 62
1, 1422659, Note_off_c, 0, 50, 62
1, 1422662, Note_on_c, 0, 65, 60
1, 1422665, Note_on_c, 0, 53, 69
1, 1422679, Note_on_c, 0, 70, 62
1, 1422684, Note_on_c, 0, 68, 46
1, 1422703, Note_off_c, 0, 70, 67
1, 1422704, Note_off_c, 0, 65, 61
1, 1422708, Note_off_c, 0, 53, 67
1, 1422708, Note_off_c, 0, 68, 59
1, 1422758, Note_on_c, 0, 58, 65
1, 1422761, Note_on_c, 0, 70, 72
1, 1422766, Note_on_c, 0, 65, 55
1, 1422784, Note_off_c, 0, 70, 67
1, 1422790, Note_off_c, 0, 65, 65
1, 1422795, Note_off_c, 0, 58, 60
1, 1422841, Note_on_c, 0, 72, 76
1, 1422846, Note_on_c, 0, 62, 72
1, 1422852, Note_on_c, 0, 65, 67
1, 1422872, Note_off_c, 0, 65, 67
1, 1422875, Poly_aftertouch_c, 0, 68, 0
1, 1422882, Note_on_c, 0, 73, 14
1, 1422883, Note_off_c, 0, 73, 127
1, 1422887, Note_off_c, 0, 72, 63
1, 1422890, Note_off_c, 0, 62, 59
1, 1422939, Note_on_c, 0, 58, 60
1, 1423004, Note_off_c, 0, 58, 62
1, 1423021, Note_on_c, 0, 70, 71
1, 1423027, Note_on_c, 0, 62, 64
1, 1423037, Note_on_c, 0, 65, 52
1, 1423038, Note_on_c, 0, 68, 49
1, 1423061, Note_off_c, 0, 65, 60
1, 1423063, Note_off_c, 0, 68, 59
1, 1423071, Note_off_c, 0, 70, 55
1, 1423085, Note_off_c, 0, 62, 57
1, 1423113, Note_on_c, 0, 58, 63
1, 1423170, Note_off_c, 0, 58, 60
1, 1423214, Note_on_c, 0, 70, 58
1, 1423218, Note_on_c, 0, 63, 61
1, 1423222, Note_on_c, 0, 67, 46
1, 1423246, Note_off_c, 0, 63, 58
1, 1423254, Note_off_c, 0, 67, 64
1, 1423308, Note_on_c, 0, 75, 53
1, 1423316, Note_off_c, 0, 70, 56
1, 1423382, Note_on_c, 0, 56, 57
1, 1423391, Note_off_c, 0, 75, 57
1, 1423394, Note_on_c, 0, 74, 49
1, 1423397, Note_on_c, 0, 51, 45
1, 1423432, Note_on_c, 0, 68, 12
1, 1423479, Note_off_c, 0, 68, 52
1, 1423483, Note_on_c, 0, 72, 57
1, 1423488, Note_on_c, 0, 60, 55
1, 1423496, Note_off_c, 0, 74, 48
1, 1423542, Note_off_c, 0, 56, 36
1, 1423554, Note_off_c, 0, 72, 62
1, 1423569, Note_off_c, 0, 60, 61
1, 1423575, Note_on_c, 0, 70, 56
1, 1423580, Note_on_c, 0, 63, 61
1, 1423591, Note_on_c, 0, 67, 26
1, 1423604, Note_off_c, 0, 70, 66
1, 1423617, Note_off_c, 0, 51, 59
1, 1423621, Note_off_c, 0, 63, 60
1, 1423630, Note_off_c, 0, 67, 52
1, 1423674, Note_on_c, 0, 70, 62
1, 1423771, Note_on_c, 0, 75, 59
1, 1423782, Note_off_c, 0, 70, 61
1, 1423844, Note_on_c, 0, 79, 63
1, 1423856, Note_off_c, 0, 75, 55
1, 1423938, Note_on_c, 0, 82, 65
1, 1423942, Note_off_c, 0, 79, 57
1, 1423952, Note_on_c, 0, 51, 57
1, 1423982, Note_off_c, 0, 51, 64
1, 1424043, Note_off_c, 0, 82, 56
1, 1424046, Note_on_c, 0, 79, 57
1, 1424115, Note_off_c, 0, 79, 60
1, 1424124, Note_on_c, 0, 75, 58
1, 1424129, Note_on_c, 0, 67, 63
1, 1424133, Note_on_c, 0, 58, 57
1, 1424154, Note_off_c, 0, 58, 62
1, 1424155, Note_off_c, 0, 67, 68
1, 1424163, Note_off_c, 0, 75, 64
1, 1424202, Note_on_c, 0, 70, 65
1, 1424223, Note_on_c, 0, 67, 64
1, 1424225, Note_on_c, 0, 58, 67
1, 1424242, Note_off_c, 0, 70, 56
1, 1424245, Note_off_c, 0, 58, 67
1, 1424249, Note_off_c, 0, 67, 67
1, 1424291, Note_on_c, 0, 70, 55
1, 1424307, Note_on_c, 0, 58, 70
1, 1424312, Note_on_c, 0, 67, 80
1, 1424336, Note_off_c, 0, 58, 63
1, 1424348, Note_off_c, 0, 67, 56
1, 1424366, Note_off_c, 0, 70, 62
1, 1424372, Note_on_c, 0, 72, 66
1, 1424439, Note_off_c, 0, 72, 63
1, 1424470, Note_on_c, 0, 69, 65
1, 1424479, Note_on_c, 0, 66, 72
1, 1424485, Note_on_c, 0, 58, 62
1, 1424547, Note_off_c, 0, 69, 59
1, 1424567, Note_on_c, 0, 72, 59
1, 1424635, Note_off_c, 0, 72, 59
1, 1424646, Note_off_c, 0, 66, 65
1, 1424655, Note_on_c, 0, 70, 60
1, 1424657, Note_on_c, 0, 67, 61
1, 1424673, Note_off_c, 0, 58, 62
1, 1424682, Note_off_c, 0, 67, 66
1, 1424698, Note_off_c, 0, 70, 61
1, 1424747, Note_on_c, 0, 67, 48
1, 1424789, Note_off_c, 0, 67, 47
1, 1424833, Note_on_c, 0, 70, 64
1, 1424838, Note_on_c, 0, 55, 58
1, 1424886, Note_off_c, 0, 70, 51
1, 1424926, Note_off_c, 0, 55, 63
1, 1424927, Note_on_c, 0, 58, 56
1, 1424928, Note_on_c, 0, 75, 63
1, 1424957, Control_c, 0, 64, 37
1, 1424971, Control_c, 0, 64, 49
1, 1424986, Control_c, 0, 64, 58
1, 1425001, Control_c, 0, 64, 62
1, 1425011, Note_off_c, 0, 58, 62
1, 1425013, Note_off_c, 0, 75, 63
1, 1425016, Control_c, 0, 64, 63
1, 1425026, Note_on_c, 0, 63, 58
1, 1425028, Note_on_c, 0, 79, 54
1, 1425031, Control_c, 0, 64, 63
1, 1425046, Control_c, 0, 64, 64
1, 1425060, Control_c, 0, 64, 64
1, 1425074, Note_off_c, 0, 63, 63
1, 1425077, Note_off_c, 0, 79, 44
1, 1425090, Control_c, 0, 64, 65
1, 1425102, Note_on_c, 0, 75, 56
1, 1425193, Note_on_c, 0, 70, 64
1, 1425223, Note_off_c, 0, 75, 41
1, 1425223, Control_c, 0, 64, 64
1, 1425238, Control_c, 0, 64, 62
1, 1425252, Note_off_c, 0, 70, 64
1, 1425253, Control_c, 0, 64, 54
1, 1425268, Control_c, 0, 64, 0
1, 1425281, Note_on_c, 0, 67, 56
1, 1425317, Note_off_c, 0, 67, 62
1, 1425343, Control_c, 0, 67, 121
1, 1425358, Control_c, 0, 67, 111
1, 1425369, Note_on_c, 0, 67, 57
1, 1425373, Control_c, 0, 64, 35
1, 1425373, Control_c, 0, 67, 103
1, 1425384, Note_on_c, 0, 36, 61
1, 1425388, Control_c, 0, 64, 51
1, 1425388, Control_c, 0, 67, 96
1, 1425388, Note_on_c, 0, 48, 61
1, 1425402, Control_c, 0, 64, 56
1, 1425402, Control_c, 0, 67, 91
1, 1425411, Note_off_c, 0, 36, 65
1, 1425417, Control_c, 0, 64, 57
1, 1425417, Control_c, 0, 67, 87
1, 1425432, Control_c, 0, 64, 58
1, 1425432, Control_c, 0, 67, 84
1, 1425444, Note_off_c, 0, 67, 61
1, 1425447, Control_c, 0, 64, 59
1, 1425447, Control_c, 0, 67, 81
1, 1425454, Note_off_c, 0, 48, 57
1, 1425462, Control_c, 0, 64, 60
1, 1425462, Control_c, 0, 67, 78
1, 1425476, Control_c, 0, 64, 62
1, 1425476, Control_c, 0, 67, 75
1, 1425477, Note_on_c, 0, 63, 66
1, 1425491, Control_c, 0, 64, 62
1, 1425491, Control_c, 0, 67, 73
1, 1425506, Control_c, 0, 67, 71
1, 1425520, Control_c, 0, 64, 63
1, 1425520, Control_c, 0, 67, 69
1, 1425535, Control_c, 0, 67, 68
1, 1425550, Control_c, 0, 64, 63
1, 1425550, Control_c, 0, 67, 67
1, 1425565, Control_c, 0, 67, 66
1, 1425566, Note_on_c, 0, 67, 67
1, 1425566, Note_off_c, 0, 63, 49
1, 1425574, Note_on_c, 0, 51, 58
1, 1425580, Control_c, 0, 64, 64
1, 1425580, Control_c, 0, 67, 65
1, 1425594, Control_c, 0, 67, 65
1, 1425609, Control_c, 0, 67, 64
1, 1425624, Control_c, 0, 67, 63
1, 1425639, Control_c, 0, 67, 62
1, 1425651, Note_on_c, 0, 72, 67
1, 1425654, Control_c, 0, 67, 61
1, 1425658, Note_on_c, 0, 55, 70
1, 1425662, Note_off_c, 0, 51, 62
1, 1425676, Control_c, 0, 64, 63
1, 1425676, Control_c, 0, 67, 60
1, 1425691, Control_c, 0, 64, 56
1, 1425691, Control_c, 0, 67, 59
1, 1425706, Control_c, 0, 64, 0
1, 1425706, Control_c, 0, 67, 58
1, 1425721, Control_c, 0, 67, 57
1, 1425734, Note_off_c, 0, 55, 63
1, 1425735, Control_c, 0, 67, 56
1, 1425749, Note_off_c, 0, 72, 63
1, 1425750, Control_c, 0, 67, 55
1, 1425755, Note_on_c, 0, 60, 86
1, 1425758, Note_on_c, 0, 75, 69
1, 1425765, Control_c, 0, 67, 54
1, 1425773, Note_off_c, 0, 67, 39
1, 1425780, Control_c, 0, 64, 28
1, 1425780, Control_c, 0, 67, 53
1, 1425795, Control_c, 0, 64, 58
1, 1425795, Control_c, 0, 67, 51
1, 1425809, Control_c, 0, 64, 64
1, 1425809, Control_c, 0, 67, 50
1, 1425824, Control_c, 0, 64, 66
1, 1425824, Control_c, 0, 67, 47
1, 1425839, Control_c, 0, 64, 68
1, 1425839, Control_c, 0, 67, 44
1, 1425853, Note_on_c, 0, 72, 69
1, 1425853, Control_c, 0, 64, 70
1, 1425853, Control_c, 0, 67, 41
1, 1425856, Note_off_c, 0, 75, 62
1, 1425868, Control_c, 0, 64, 72
1, 1425868, Control_c, 0, 67, 36
1, 1425883, Control_c, 0, 64, 73
1, 1425883, Control_c, 0, 67, 33
1, 1425898, Note_off_c, 0, 60, 60
1, 1425898, Control_c, 0, 67, 30
1, 1425913, Control_c, 0, 64, 74
1, 1425913, Control_c, 0, 67, 26
1, 1425921, Note_off_c, 0, 72, 62
1, 1425922, Note_on_c, 0, 67, 70
1, 1425928, Control_c, 0, 67, 22
1, 1425943, Control_c, 0, 67, 17
1, 1425958, Control_c, 0, 67, 11
1, 1425973, Control_c, 0, 67, 0
1, 1425984, Note_off_c, 0, 67, 62
1, 1426014, Note_on_c, 0, 63, 67
1, 1426017, Control_c, 0, 64, 72
1, 1426032, Control_c, 0, 64, 62
1, 1426046, Control_c, 0, 64, 0
1, 1426053, Note_off_c, 0, 63, 59
1, 1426112, Note_on_c, 0, 32, 82
1, 1426112, Note_on_c, 0, 44, 79
1, 1426113, Note_on_c, 0, 63, 57
1, 1426136, Control_c, 0, 64, 36
1, 1426140, Note_off_c, 0, 32, 66
1, 1426151, Control_c, 0, 64, 62
1, 1426166, Control_c, 0, 64, 67
1, 1426169, Note_off_c, 0, 44, 63
1, 1426173, Note_off_c, 0, 63, 63
1, 1426181, Control_c, 0, 64, 69
1, 1426196, Control_c, 0, 64, 71
1, 1426202, Note_on_c, 0, 60, 62
1, 1426211, Control_c, 0, 64, 73
1, 1426225, Control_c, 0, 64, 73
1, 1426293, Note_on_c, 0, 63, 74
1, 1426303, Note_on_c, 0, 48, 66
1, 1426323, Note_off_c, 0, 60, 31
1, 1426375, Note_on_c, 0, 51, 75
1, 1426378, Note_on_c, 0, 68, 75
1, 1426381, Note_off_c, 0, 48, 62
1, 1426394, Note_off_c, 0, 63, 58
1, 1426425, Control_c, 0, 64, 69
1, 1426440, Control_c, 0, 64, 56
1, 1426455, Control_c, 0, 64, 0
1, 1426465, Note_off_c, 0, 51, 62
1, 1426477, Note_on_c, 0, 56, 89
1, 1426482, Note_on_c, 0, 72, 75
1, 1426488, Note_off_c, 0, 68, 63
1, 1426529, Control_c, 0, 64, 32
1, 1426544, Control_c, 0, 64, 61
1, 1426558, Control_c, 0, 64, 66
1, 1426566, Note_off_c, 0, 72, 63
1, 1426567, Note_on_c, 0, 68, 74
1, 1426573, Control_c, 0, 64, 69
1, 1426588, Control_c, 0, 64, 71
1, 1426603, Control_c, 0, 64, 75
1, 1426618, Control_c, 0, 64, 80
1, 1426632, Control_c, 0, 64, 86
1, 1426647, Control_c, 0, 64, 91
1, 1426662, Control_c, 0, 64, 94
1, 1426663, Note_on_c, 0, 63, 75
1, 1426676, Control_c, 0, 64, 98
1, 1426678, Note_off_c, 0, 56, 53
1, 1426691, Control_c, 0, 64, 104
1, 1426706, Control_c, 0, 64, 114
1, 1426709, Note_off_c, 0, 68, 58
1, 1426721, Control_c, 0, 64, 127
1, 1426733, Note_off_c, 0, 63, 62
1, 1426750, Note_on_c, 0, 60, 76
1, 1426794, Note_off_c, 0, 60, 59
1, 1426855, Control_c, 0, 64, 82
1, 1426869, Control_c, 0, 64, 57
1, 1426884, Control_c, 0, 64, 0
1, 1426912, Note_on_c, 0, 63, 80
1, 1426929, Note_on_c, 0, 44, 62
1, 1426959, Control_c, 0, 64, 61
1, 1426974, Control_c, 0, 64, 72
1, 1426989, Control_c, 0, 64, 103
1, 1427004, Control_c, 0, 64, 127
1, 1427030, Poly_aftertouch_c, 0, 62, 0
1, 1427052, Note_off_c, 0, 44, 63
1, 1427052, Note_on_c, 0, 66, 70
1, 1427053, Note_on_c, 0, 75, 64
1, 1427070, Note_off_c, 0, 63, 58
1, 1427072, Note_on_c, 0, 72, 49
1, 1427087, Note_off_c, 0, 75, 63
1, 1427093, Note_off_c, 0, 66, 61
1, 1427093, Note_off_c, 0, 72, 63
1, 1427158, Note_on_c, 0, 66, 65
1, 1427179, Note_on_c, 0, 75, 63
1, 1427180, Note_on_c, 0, 56, 55
1, 1427182, Note_on_c, 0, 60, 58
1, 1427182, Note_on_c, 0, 72, 67
1, 1427183, Note_on_c, 0, 51, 57
1, 1427221, Note_off_c, 0, 60, 60
1, 1427228, Note_off_c, 0, 56, 57
1, 1427233, Note_off_c, 0, 66, 61
1, 1427252, Note_off_c, 0, 75, 60
1, 1427256, Note_on_c, 0, 63, 82
1, 1427272, Note_off_c, 0, 51, 60
1, 1427291, Note_off_c, 0, 63, 62
1, 1427294, Note_off_c, 0, 72, 62
1, 1427355, Note_on_c, 0, 66, 82
1, 1427371, Note_on_c, 0, 44, 72
1, 1427429, Note_off_c, 0, 44, 60
1, 1427437, Note_on_c, 0, 75, 72
1, 1427442, Note_on_c, 0, 78, 68
1, 1427444, Note_on_c, 0, 72, 65
1, 1427447, Note_off_c, 0, 66, 64
1, 1427465, Note_off_c, 0, 78, 69
1, 1427466, Note_off_c, 0, 75, 66
1, 1427472, Note_off_c, 0, 72, 68
1, 1427533, Note_on_c, 0, 75, 71
1, 1427535, Note_on_c, 0, 72, 67
1, 1427535, Note_on_c, 0, 78, 81
1, 1427539, Note_on_c, 0, 56, 67
1, 1427540, Note_on_c, 0, 60, 67
1, 1427543, Note_on_c, 0, 51, 67
1, 1427568, Note_off_c, 0, 60, 63
1, 1427574, Note_off_c, 0, 56, 61
1, 1427606, Note_on_c, 0, 66, 84
1, 1427616, Note_off_c, 0, 51, 59
1, 1427624, Note_off_c, 0, 72, 58
1, 1427631, Note_off_c, 0, 78, 60
1, 1427632, Note_off_c, 0, 66, 66
1, 1427636, Note_off_c, 0, 75, 64
1, 1427713, Note_on_c, 0, 72, 87
1, 1427719, Note_on_c, 0, 44, 76
1, 1427758, Note_off_c, 0, 44, 57
1, 1427790, Note_on_c, 0, 75, 91
1, 1427792, Note_on_c, 0, 78, 86
1, 1427797, Note_on_c, 0, 84, 77
1, 1427805, Note_off_c, 0, 72, 61
1, 1427821, Note_off_c, 0, 78, 61
1, 1427824, Note_off_c, 0, 84, 67
1, 1427830, Note_off_c, 0, 75, 63
1, 1427882, Note_on_c, 0, 75, 73
1, 1427883, Note_on_c, 0, 78, 82
1, 1427884, Note_on_c, 0, 84, 76
1, 1427885, Note_on_c, 0, 60, 70
1, 1427886, Note_on_c, 0, 56, 69
1, 1427889, Note_on_c, 0, 51, 75
1, 1427923, Note_off_c, 0, 56, 61
1, 1427923, Note_off_c, 0, 60, 61
1, 1427951, Note_off_c, 0, 84, 62
1, 1427965, Note_off_c, 0, 51, 61
1, 1427967, Note_on_c, 0, 72, 86
1, 1427974, Note_off_c, 0, 75, 59
1, 1427978, Note_off_c, 0, 78, 64
1, 1427994, Note_off_c, 0, 72, 66
1, 1428068, Note_on_c, 0, 75, 93
1, 1428069, Note_on_c, 0, 44, 75
1, 1428108, Note_off_c, 0, 44, 56
1, 1428146, Note_on_c, 0, 78, 86
1, 1428149, Note_on_c, 0, 84, 78
1, 1428149, Note_on_c, 0, 87, 73
1, 1428164, Note_off_c, 0, 75, 66
1, 1428184, Note_off_c, 0, 87, 62
1, 1428185, Note_off_c, 0, 78, 66
1, 1428190, Note_off_c, 0, 84, 64
1, 1428241, Note_on_c, 0, 87, 80
1, 1428243, Note_on_c, 0, 78, 86
1, 1428244, Note_on_c, 0, 84, 77
1, 1428248, Note_on_c, 0, 60, 73
1, 1428253, Note_on_c, 0, 51, 69
1, 1428273, Note_off_c, 0, 60, 68
1, 1428277, Note_on_c, 0, 56, 9
1, 1428278, Note_off_c, 0, 56, 127
1, 1428298, Note_off_c, 0, 51, 63
1, 1428326, Note_off_c, 0, 78, 65
1, 1428327, Note_on_c, 0, 75, 75
1, 1428345, Note_off_c, 0, 84, 63
1, 1428348, Note_off_c, 0, 87, 62
1, 1428378, Note_off_c, 0, 75, 63
1, 1428426, Control_c, 0, 64, 76
1, 1428440, Control_c, 0, 64, 54
1, 1428455, Control_c, 0, 64, 0
1, 1428497, Note_on_c, 0, 43, 70
1, 1428553, Note_off_c, 0, 43, 63
1, 1428594, Note_on_c, 0, 82, 75
1, 1428688, Note_on_c, 0, 58, 71
1, 1428698, Note_on_c, 0, 87, 76
1, 1428709, Note_on_c, 0, 51, 59
1, 1428711, Note_on_c, 0, 55, 39
1, 1428741, Note_off_c, 0, 55, 48
1, 1428745, Note_off_c, 0, 58, 62
1, 1428759, Note_off_c, 0, 51, 60
1, 1428777, Note_on_c, 0, 91, 79
1, 1428819, Note_off_c, 0, 82, 39
1, 1428863, Note_off_c, 0, 87, 58
1, 1428873, Note_on_c, 0, 94, 79
1, 1428879, Note_on_c, 0, 44, 61
1, 1428897, Note_off_c, 0, 91, 59
1, 1428918, Note_off_c, 0, 44, 65
1, 1428962, Note_on_c, 0, 92, 71
1, 1429004, Note_off_c, 0, 94, 63
1, 1429049, Note_on_c, 0, 87, 66
1, 1429054, Note_on_c, 0, 56, 51
1, 1429057, Note_on_c, 0, 60, 53
1, 1429067, Note_on_c, 0, 51, 52
1, 1429094, Note_off_c, 0, 56, 63
1, 1429096, Note_off_c, 0, 60, 60
1, 1429104, Note_off_c, 0, 92, 63
1, 1429117, Note_off_c, 0, 51, 61
1, 1429132, Note_off_c, 0, 87, 64
1, 1429137, Note_on_c, 0, 84, 56
1, 1429159, Note_off_c, 0, 84, 65
1, 1429234, Note_on_c, 0, 46, 67
1, 1429262, Note_off_c, 0, 46, 65
1, 1429308, Note_on_c, 0, 67, 58
1, 1429422, Note_on_c, 0, 63, 48
1, 1429427, Note_on_c, 0, 58, 49
1, 1429428, Note_on_c, 0, 70, 54
1, 1429442, Note_on_c, 0, 55, 40
1, 1429451, Note_off_c, 0, 63, 58
1, 1429455, Note_off_c, 0, 67, 35
1, 1429460, Note_off_c, 0, 58, 64
1, 1429470, Note_off_c, 0, 55, 60
1, 1429506, Note_on_c, 0, 75, 60
1, 1429511, Note_off_c, 0, 70, 57
1, 1429602, Note_off_c, 0, 75, 63
1, 1429603, Note_on_c, 0, 79, 60
1, 1429605, Note_on_c, 0, 46, 56
1, 1429638, Note_off_c, 0, 46, 63
1, 1429675, Note_off_c, 0, 79, 58
1, 1429690, Note_on_c, 0, 77, 61
1, 1429773, Note_off_c, 0, 77, 55
1, 1429775, Note_on_c, 0, 74, 57
1, 1429780, Note_on_c, 0, 56, 48
1, 1429791, Note_on_c, 0, 58, 35
1, 1429791, Note_on_c, 0, 62, 38
1, 1429819, Note_off_c, 0, 56, 63
1, 1429819, Note_off_c, 0, 58, 58
1, 1429821, Note_off_c, 0, 62, 52
1, 1429836, Note_off_c, 0, 74, 64
1, 1429860, Note_on_c, 0, 70, 70
1, 1429882, Note_off_c, 0, 70, 70
1, 1430012, Control_c, 0, 64, 46
1, 1430017, Note_on_c, 0, 63, 78
1, 1430021, Note_on_c, 0, 44, 62
1, 1430027, Control_c, 0, 64, 67
1, 1430042, Control_c, 0, 64, 83
1, 1430057, Control_c, 0, 64, 104
1, 1430072, Control_c, 0, 64, 125
1, 1430088, Control_c, 0, 64, 127
1, 1430092, Note_off_c, 0, 44, 61
1, 1430105, Note_off_c, 0, 63, 58
1, 1430110, Note_on_c, 0, 66, 65
1, 1430110, Note_on_c, 0, 72, 55
1, 1430113, Note_on_c, 0, 75, 59
1, 1430134, Note_off_c, 0, 72, 63
1, 1430140, Note_off_c, 0, 66, 63
1, 1430142, Note_off_c, 0, 75, 65
1, 1430197, Note_on_c, 0, 66, 63
1, 1430216, Note_on_c, 0, 56, 59
1, 1430220, Note_on_c, 0, 75, 61
1, 1430220, Note_on_c, 0, 60, 57
1, 1430223, Note_on_c, 0, 51, 56
1, 1430226, Note_on_c, 0, 72, 62
1, 1430257, Note_off_c, 0, 60, 61
1, 1430258, Note_off_c, 0, 56, 57
1, 1430287, Note_on_c, 0, 63, 79
1, 1430289, Note_off_c, 0, 75, 58
1, 1430299, Note_off_c, 0, 51, 61
1, 1430306, Note_off_c, 0, 66, 59
1, 1430323, Note_off_c, 0, 63, 63
1, 1430340, Note_off_c, 0, 72, 61
1, 1430402, Note_on_c, 0, 44, 67
1, 1430403, Note_on_c, 0, 66, 80
1, 1430450, Note_off_c, 0, 44, 59
1, 1430476, Note_on_c, 0, 75, 64
1, 1430479, Note_on_c, 0, 72, 60
1, 1430483, Note_off_c, 0, 66, 65
1, 1430491, Note_on_c, 0, 78, 45
1, 1430503, Note_off_c, 0, 75, 68
1, 1430509, Note_off_c, 0, 72, 67
1, 1430515, Note_off_c, 0, 78, 56
1, 1430568, Note_on_c, 0, 56, 61
1, 1430569, Note_on_c, 0, 60, 65
1, 1430575, Note_on_c, 0, 51, 61
1, 1430578, Note_on_c, 0, 78, 77
1, 1430579, Note_on_c, 0, 75, 67
1, 1430583, Note_on_c, 0, 72, 64
1, 1430599, Note_off_c, 0, 60, 64
1, 1430600, Note_off_c, 0, 56, 61
1, 1430620, Note_off_c, 0, 72, 52
1, 1430635, Note_on_c, 0, 66, 76
1, 1430642, Note_off_c, 0, 51, 60
1, 1430658, Note_off_c, 0, 78, 61
1, 1430659, Note_off_c, 0, 66, 71
1, 1430663, Note_off_c, 0, 75, 64
1, 1430748, Note_on_c, 0, 44, 74
1, 1430752, Note_on_c, 0, 72, 84
1, 1430795, Note_off_c, 0, 44, 60
1, 1430825, Note_on_c, 0, 84, 74
1, 1430827, Note_on_c, 0, 75, 79
1, 1430831, Note_off_c, 0, 72, 64
1, 1430837, Note_on_c, 0, 78, 66
1, 1430855, Note_off_c, 0, 75, 60
1, 1430857, Note_off_c, 0, 78, 67
1, 1430858, Note_off_c, 0, 84, 64
1, 1430927, Note_on_c, 0, 78, 82
1, 1430933, Note_on_c, 0, 60, 65
1, 1430935, Note_on_c, 0, 51, 69
1, 1430936, Note_on_c, 0, 56, 58
1, 1430936, Note_on_c, 0, 75, 77
1, 1430945, Note_on_c, 0, 84, 68
1, 1430958, Note_off_c, 0, 60, 66
1, 1430963, Note_off_c, 0, 56, 63
1, 1430983, Note_off_c, 0, 84, 59
1, 1430997, Note_off_c, 0, 51, 60
1, 1431001, Note_off_c, 0, 75, 61
1, 1431007, Note_on_c, 0, 72, 74
1, 1431009, Note_off_c, 0, 78, 62
1, 1431026, Note_off_c, 0, 72, 72
1, 1431094, Note_on_c, 0, 75, 92
1, 1431101, Note_on_c, 0, 44, 77
1, 1431141, Note_off_c, 0, 44, 59
1, 1431166, Note_on_c, 0, 84, 75
1, 1431171, Note_on_c, 0, 78, 80
1, 1431176, Note_on_c, 0, 87, 59
1, 1431179, Note_off_c, 0, 75, 65
1, 1431198, Note_off_c, 0, 87, 65
1, 1431207, Note_off_c, 0, 84, 63
1, 1431213, Note_off_c, 0, 78, 61
1, 1431258, Note_on_c, 0, 78, 70
1, 1431261, Note_on_c, 0, 56, 64
1, 1431263, Note_on_c, 0, 87, 78
1, 1431264, Note_on_c, 0, 60, 69
1, 1431265, Note_on_c, 0, 51, 71
1, 1431266, Note_on_c, 0, 84, 69
1, 1431287, Note_off_c, 0, 56, 66
1, 1431292, Note_off_c, 0, 60, 65
1, 1431316, Note_off_c, 0, 51, 61
1, 1431336, Note_off_c, 0, 78, 63
1, 1431339, Note_on_c, 0, 75, 78
1, 1431347, Note_off_c, 0, 84, 64
1, 1431356, Note_off_c, 0, 87, 61
1, 1431389, Note_off_c, 0, 75, 66
1, 1431465, Control_c, 0, 64, 106
1, 1431480, Control_c, 0, 64, 57
1, 1431495, Control_c, 0, 64, 0
1, 1431511, Note_on_c, 0, 43, 88
1, 1431525, Note_on_c, 0, 79, 93
1, 1431554, Control_c, 0, 64, 45
1, 1431569, Control_c, 0, 64, 75
1, 1431583, Control_c, 0, 64, 127
1, 1431625, Note_off_c, 0, 43, 61
1, 1431642, Note_on_c, 0, 87, 78
1, 1431648, Note_on_c, 0, 91, 71
1, 1431654, Note_on_c, 0, 84, 60
1, 1431667, Note_off_c, 0, 79, 58
1, 1431682, Note_off_c, 0, 91, 63
1, 1431690, Note_off_c, 0, 84, 66
1, 1431698, Note_off_c, 0, 87, 62
1, 1431755, Note_on_c, 0, 84, 74
1, 1431755, Note_on_c, 0, 87, 67
1, 1431764, Note_on_c, 0, 91, 75
1, 1431765, Note_on_c, 0, 60, 67
1, 1431770, Note_on_c, 0, 51, 71
1, 1431772, Note_on_c, 0, 55, 57
1, 1431794, Note_off_c, 0, 55, 65
1, 1431794, Note_off_c, 0, 60, 66
1, 1431824, Note_off_c, 0, 91, 59
1, 1431826, Note_off_c, 0, 84, 58
1, 1431827, Note_off_c, 0, 51, 62
1, 1431840, Note_on_c, 0, 79, 81
1, 1431843, Note_off_c, 0, 87, 58
1, 1431874, Note_off_c, 0, 79, 59
1, 1431930, Note_on_c, 0, 79, 88
1, 1431936, Note_on_c, 0, 43, 78
1, 1431985, Note_off_c, 0, 43, 62
1, 1432010, Note_on_c, 0, 87, 81
1, 1432015, Note_on_c, 0, 91, 69
1, 1432018, Note_on_c, 0, 84, 74
1, 1432026, Note_off_c, 0, 79, 61
1, 1432040, Note_off_c, 0, 91, 66
1, 1432048, Note_off_c, 0, 84, 64
1, 1432054, Note_off_c, 0, 87, 61
1, 1432103, Note_on_c, 0, 51, 70
1, 1432104, Note_on_c, 0, 60, 65
1, 1432107, Note_on_c, 0, 91, 79
1, 1432107, Note_on_c, 0, 87, 71
1, 1432112, Note_on_c, 0, 55, 55
1, 1432113, Note_on_c, 0, 84, 74
1, 1432141, Note_off_c, 0, 55, 60
1, 1432142, Note_off_c, 0, 60, 58
1, 1432172, Note_off_c, 0, 91, 61
1, 1432178, Note_off_c, 0, 84, 61
1, 1432181, Note_off_c, 0, 51, 59
1, 1432183, Note_on_c, 0, 79, 83
1, 1432194, Note_off_c, 0, 87, 64
1, 1432218, Note_off_c, 0, 79, 59
1, 1432288, Control_c, 0, 64, 65
1, 1432303, Control_c, 0, 64, 0
1, 1432310, Note_on_c, 0, 43, 78
1, 1432310, Note_on_c, 0, 71, 90
1, 1432348, Control_c, 0, 64, 32
1, 1432362, Control_c, 0, 64, 64
1, 1432377, Control_c, 0, 64, 86
1, 1432392, Note_off_c, 0, 43, 62
1, 1432392, Control_c, 0, 64, 127
1, 1432420, Note_on_c, 0, 79, 73
1, 1432423, Note_on_c, 0, 83, 63
1, 1432427, Note_on_c, 0, 77, 68
1, 1432438, Note_off_c, 0, 71, 57
1, 1432448, Note_off_c, 0, 79, 63
1, 1432454, Note_off_c, 0, 77, 65
1, 1432456, Note_off_c, 0, 83, 61
1, 1432519, Note_on_c, 0, 83, 72
1, 1432524, Note_on_c, 0, 77, 74
1, 1432525, Note_on_c, 0, 55, 66
1, 1432526, Note_on_c, 0, 79, 73
1, 1432533, Note_on_c, 0, 59, 64
1, 1432539, Note_on_c, 0, 50, 60
1, 1432554, Note_off_c, 0, 55, 66
1, 1432563, Note_off_c, 0, 59, 64
1, 1432582, Note_off_c, 0, 50, 63
1, 1432582, Note_off_c, 0, 77, 57
1, 1432584, Note_off_c, 0, 83, 61
1, 1432600, Note_on_c, 0, 71, 82
1, 1432613, Note_off_c, 0, 79, 39
1, 1432632, Note_off_c, 0, 71, 58
1, 1432692, Note_on_c, 0, 71, 81
1, 1432696, Note_on_c, 0, 43, 75
1, 1432743, Note_off_c, 0, 43, 62
1, 1432773, Note_on_c, 0, 79, 72
1, 1432778, Note_on_c, 0, 77, 72
1, 1432786, Note_on_c, 0, 83, 57
1, 1432786, Note_off_c, 0, 71, 61
1, 1432808, Note_off_c, 0, 77, 62
1, 1432808, Note_off_c, 0, 79, 57
1, 1432810, Note_off_c, 0, 83, 59
1, 1432853, Note_on_c, 0, 50, 68
1, 1432855, Note_on_c, 0, 83, 68
1, 1432855, Note_on_c, 0, 77, 60
1, 1432858, Note_on_c, 0, 59, 63
1, 1432858, Note_on_c, 0, 79, 52
1, 1432862, Note_on_c, 0, 55, 50
1, 1432886, Note_off_c, 0, 55, 60
1, 1432888, Note_off_c, 0, 59, 63
1, 1432892, Note_off_c, 0, 50, 62
1, 1432936, Note_on_c, 0, 71, 74
1, 1432947, Note_off_c, 0, 77, 62
1, 1432954, Note_off_c, 0, 83, 60
1, 1432963, Note_off_c, 0, 79, 61
1, 1432997, Note_off_c, 0, 71, 61
1, 1433067, Control_c, 0, 64, 95
1, 1433082, Control_c, 0, 64, 73
1, 1433097, Control_c, 0, 64, 59
1, 1433105, Note_on_c, 0, 84, 86
1, 1433109, Note_on_c, 0, 79, 60
1, 1433111, Control_c, 0, 64, 0
1, 1433115, Note_on_c, 0, 75, 64
1, 1433117, Note_on_c, 0, 72, 67
1, 1433130, Note_on_c, 0, 48, 56
1, 1433208, Control_c, 0, 64, 61
1, 1433223, Control_c, 0, 64, 76
1, 1433237, Control_c, 0, 64, 99
1, 1433252, Control_c, 0, 64, 127
1, 1433300, Note_off_c, 0, 72, 63
1, 1433306, Note_on_c, 0, 55, 53
1, 1433306, Note_off_c, 0, 48, 60
1, 1433358, Note_off_c, 0, 84, 62
1, 1433375, Note_off_c, 0, 75, 63
1, 1433379, Note_off_c, 0, 55, 62
1, 1433389, Note_off_c, 0, 79, 57
1, 1433404, Note_on_c, 0, 51, 53
1, 1433486, Note_off_c, 0, 51, 59
1, 1433507, Note_on_c, 0, 55, 46
1, 1433544, Note_off_c, 0, 55, 64
1, 1433583, Note_on_c, 0, 60, 57
1, 1433683, Note_on_c, 0, 55, 48
1, 1433684, Note_off_c, 0, 60, 53
1, 1433734, Note_off_c, 0, 55, 60
1, 1433742, Control_c, 0, 64, 116
1, 1433756, Note_on_c, 0, 51, 55
1, 1433757, Control_c, 0, 64, 110
1, 1433772, Control_c, 0, 64, 103
1, 1433786, Control_c, 0, 64, 94
1, 1433801, Control_c, 0, 64, 83
1, 1433816, Control_c, 0, 64, 70
1, 1433831, Control_c, 0, 64, 58
1, 1433842, Note_off_c, 0, 51, 60
1, 1433846, Control_c, 0, 64, 0
1, 1433855, Note_on_c, 0, 55, 56
1, 1433890, Control_c, 0, 67, 10
1, 1433913, Control_c, 0, 67, 16
1, 1433928, Control_c, 0, 67, 22
1, 1433931, Note_off_c, 0, 55, 63
1, 1433942, Control_c, 0, 67, 31
1, 1433949, Note_on_c, 0, 48, 62
1, 1433957, Control_c, 0, 67, 39
1, 1433972, Control_c, 0, 64, 51
1, 1433972, Control_c, 0, 67, 49
1, 1433986, Control_c, 0, 64, 64
1, 1433986, Control_c, 0, 67, 59
1, 1434001, Control_c, 0, 64, 67
1, 1434001, Control_c, 0, 67, 67
1, 1434016, Control_c, 0, 64, 69
1, 1434016, Control_c, 0, 67, 75
1, 1434031, Control_c, 0, 64, 69
1, 1434031, Control_c, 0, 67, 82
1, 1434044, Note_off_c, 0, 48, 60
1, 1434046, Control_c, 0, 64, 70
1, 1434046, Control_c, 0, 67, 88
1, 1434055, Note_on_c, 0, 55, 51
1, 1434060, Control_c, 0, 67, 92
1, 1434075, Control_c, 0, 67, 96
1, 1434091, Control_c, 0, 67, 100
1, 1434100, Note_off_c, 0, 55, 64
1, 1434106, Control_c, 0, 67, 105
1, 1434121, Control_c, 0, 67, 109
1, 1434136, Control_c, 0, 67, 115
1, 1434145, Note_on_c, 0, 51, 53
1, 1434151, Control_c, 0, 67, 121
1, 1434165, Control_c, 0, 67, 126
1, 1434180, Control_c, 0, 67, 127
1, 1434221, Note_off_c, 0, 51, 60
1, 1434233, Note_on_c, 0, 55, 53
1, 1434285, Note_off_c, 0, 55, 62
1, 1434330, Note_on_c, 0, 60, 51
1, 1434358, Control_c, 0, 64, 69
1, 1434412, Note_on_c, 0, 55, 59
1, 1434414, Note_off_c, 0, 60, 54
1, 1434467, Note_off_c, 0, 55, 58
1, 1434504, Note_on_c, 0, 51, 51
1, 1434536, Control_c, 0, 64, 69
1, 1434565, Control_c, 0, 64, 68
1, 1434570, Note_off_c, 0, 51, 61
1, 1434580, Control_c, 0, 64, 67
1, 1434593, Note_on_c, 0, 55, 49
1, 1434595, Control_c, 0, 64, 66
1, 1434609, Control_c, 0, 64, 64
1, 1434624, Control_c, 0, 64, 63
1, 1434639, Control_c, 0, 64, 62
1, 1434656, Note_off_c, 0, 55, 48
1, 1434662, Control_c, 0, 64, 61
1, 1434677, Control_c, 0, 64, 55
1, 1434691, Control_c, 0, 64, 37
1, 1434706, Control_c, 0, 64, 0
1, 1434732, Note_on_c, 0, 75, 68
1, 1434755, Note_on_c, 0, 48, 44
1, 1434809, Control_c, 0, 64, 42
1, 1434824, Control_c, 0, 64, 63
1, 1434839, Control_c, 0, 64, 67
1, 1434854, Control_c, 0, 64, 68
1, 1434856, Note_off_c, 0, 48, 57
1, 1434869, Control_c, 0, 64, 69
1, 1434878, Note_on_c, 0, 55, 41
1, 1434885, Control_c, 0, 64, 70
1, 1434900, Control_c, 0, 64, 71
1, 1434914, Control_c, 0, 64, 73
1, 1434929, Control_c, 0, 64, 74
1, 1434933, Note_off_c, 0, 55, 60
1, 1434944, Control_c, 0, 64, 75
1, 1434959, Control_c, 0, 64, 75
1, 1434972, Note_on_c, 0, 51, 48
1, 1434974, Control_c, 0, 64, 76
1, 1435061, Note_off_c, 0, 51, 57
1, 1435070, Note_off_c, 0, 75, 36
1, 1435076, Note_on_c, 0, 55, 40
1, 1435092, Control_c, 0, 67, 126
1, 1435106, Control_c, 0, 67, 123
1, 1435111, Note_off_c, 0, 55, 58
1, 1435121, Control_c, 0, 67, 119
1, 1435136, Control_c, 0, 67, 115
1, 1435151, Note_on_c, 0, 60, 52
1, 1435151, Control_c, 0, 67, 111
1, 1435166, Control_c, 0, 67, 107
1, 1435181, Control_c, 0, 67, 102
1, 1435195, Control_c, 0, 67, 97
1, 1435196, Note_off_c, 0, 60, 56
1, 1435210, Control_c, 0, 67, 92
1, 1435225, Control_c, 0, 67, 86
1, 1435229, Note_on_c, 0, 55, 54
1, 1435240, Control_c, 0, 67, 81
1, 1435255, Control_c, 0, 67, 74
1, 1435270, Control_c, 0, 67, 69
1, 1435285, Control_c, 0, 67, 63
1, 1435297, Note_off_c, 0, 55, 55
1, 1435300, Control_c, 0, 67, 59
1, 1435309, Note_on_c, 0, 75, 75
1, 1435311, Note_on_c, 0, 51, 52
1, 1435314, Control_c, 0, 67, 54
1, 1435329, Control_c, 0, 67, 49
1, 1435344, Control_c, 0, 64, 76
1, 1435344, Control_c, 0, 67, 43
1, 1435359, Control_c, 0, 67, 35
1, 1435374, Control_c, 0, 67, 29
1, 1435379, Note_off_c, 0, 51, 61
1, 1435388, Control_c, 0, 67, 22
1, 1435410, Control_c, 0, 67, 13
1, 1435425, Control_c, 0, 67, 0
1, 1435427, Note_on_c, 0, 55, 47
1, 1435449, Note_off_c, 0, 75, 64
1, 1435499, Control_c, 0, 64, 76
1, 1435513, Control_c, 0, 64, 75
1, 1435528, Control_c, 0, 64, 72
1, 1435543, Control_c, 0, 64, 70
1, 1435557, Control_c, 0, 64, 67
1, 1435572, Control_c, 0, 64, 63
1, 1435587, Control_c, 0, 64, 53
1, 1435595, Note_off_c, 0, 55, 32
1, 1435602, Control_c, 0, 64, 0
1, 1435603, Note_on_c, 0, 75, 75
1, 1435617, Control_c, 0, 67, 8
1, 1435631, Control_c, 0, 67, 10
1, 1435642, Note_on_c, 0, 47, 46
1, 1435646, Control_c, 0, 67, 14
1, 1435661, Control_c, 0, 67, 20
1, 1435676, Control_c, 0, 67, 30
1, 1435692, Control_c, 0, 67, 43
1, 1435707, Control_c, 0, 64, 30
1, 1435707, Control_c, 0, 67, 58
1, 1435722, Control_c, 0, 64, 61
1, 1435722, Control_c, 0, 67, 67
1, 1435736, Control_c, 0, 64, 68
1, 1435736, Control_c, 0, 67, 72
1, 1435751, Control_c, 0, 64, 73
1, 1435751, Control_c, 0, 67, 76
1, 1435766, Control_c, 0, 64, 77
1, 1435766, Control_c, 0, 67, 83
1, 1435781, Control_c, 0, 64, 79
1, 1435781, Control_c, 0, 67, 90
1, 1435782, Note_off_c, 0, 47, 60
1, 1435796, Control_c, 0, 64, 80
1, 1435796, Control_c, 0, 67, 98
1, 1435803, Note_on_c, 0, 55, 52
1, 1435810, Control_c, 0, 64, 81
1, 1435810, Control_c, 0, 67, 104
1, 1435825, Control_c, 0, 67, 107
1, 1435840, Control_c, 0, 67, 110
1, 1435854, Control_c, 0, 67, 111
1, 1435869, Control_c, 0, 67, 112
1, 1435880, Note_off_c, 0, 55, 59
1, 1435884, Control_c, 0, 67, 114
1, 1435899, Control_c, 0, 67, 116
1, 1435910, Note_on_c, 0, 53, 57
1, 1435914, Control_c, 0, 67, 118
1, 1435929, Control_c, 0, 67, 119
1, 1435944, Control_c, 0, 67, 120
1, 1435959, Control_c, 0, 67, 121
1, 1435973, Control_c, 0, 67, 122
1, 1435977, Note_off_c, 0, 53, 64
1, 1435988, Control_c, 0, 67, 122
1, 1436003, Control_c, 0, 67, 123
1, 1436010, Note_on_c, 0, 55, 53
1, 1436018, Control_c, 0, 67, 125
1, 1436033, Control_c, 0, 67, 126
1, 1436046, Note_off_c, 0, 55, 51
1, 1436048, Control_c, 0, 67, 127
1, 1436099, Note_on_c, 0, 62, 59
1, 1436106, Note_on_c, 0, 74, 72
1, 1436155, Note_off_c, 0, 62, 55
1, 1436162, Note_off_c, 0, 75, 62
1, 1436206, Note_off_c, 0, 74, 63
1, 1436208, Note_on_c, 0, 55, 44
1, 1436257, Note_off_c, 0, 55, 63
1, 1436265, Note_on_c, 0, 74, 74
1, 1436274, Note_on_c, 0, 53, 53
1, 1436321, Note_off_c, 0, 53, 64
1, 1436362, Note_off_c, 0, 74, 64
1, 1436373, Note_on_c, 0, 55, 50
1, 1436455, Control_c, 0, 64, 79
1, 1436462, Note_off_c, 0, 55, 51
1, 1436470, Control_c, 0, 64, 70
1, 1436476, Note_on_c, 0, 74, 70
1, 1436486, Control_c, 0, 64, 53
1, 1436501, Note_on_c, 0, 48, 45
1, 1436501, Control_c, 0, 64, 0
1, 1436560, Control_c, 0, 64, 40
1, 1436570, Note_off_c, 0, 48, 57
1, 1436575, Control_c, 0, 64, 62
1, 1436590, Control_c, 0, 64, 67
1, 1436598, Note_on_c, 0, 55, 49
1, 1436604, Control_c, 0, 64, 71
1, 1436619, Control_c, 0, 64, 73
1, 1436634, Control_c, 0, 64, 74
1, 1436638, Note_off_c, 0, 55, 64
1, 1436677, Note_on_c, 0, 51, 51
1, 1436762, Note_on_c, 0, 55, 51
1, 1436766, Note_off_c, 0, 51, 57
1, 1436818, Note_off_c, 0, 55, 62
1, 1436824, Note_on_c, 0, 72, 73
1, 1436859, Note_on_c, 0, 60, 51
1, 1436866, Note_off_c, 0, 74, 62
1, 1436921, Note_off_c, 0, 60, 54
1, 1436922, Note_off_c, 0, 72, 64
1, 1436952, Note_on_c, 0, 55, 49
1, 1437000, Note_on_c, 0, 72, 64
1, 1437001, Note_off_c, 0, 55, 52
1, 1437016, Note_on_c, 0, 51, 53
1, 1437061, Note_off_c, 0, 51, 58
1, 1437115, Control_c, 0, 64, 73
1, 1437118, Note_on_c, 0, 55, 43
1, 1437130, Control_c, 0, 64, 72
1, 1437145, Control_c, 0, 64, 71
1, 1437160, Control_c, 0, 64, 69
1, 1437175, Control_c, 0, 64, 67
1, 1437190, Control_c, 0, 64, 64
1, 1437196, Note_off_c, 0, 55, 41
1, 1437204, Control_c, 0, 64, 61
1, 1437219, Control_c, 0, 64, 34
1, 1437234, Control_c, 0, 64, 0
1, 1437234, Control_c, 0, 67, 127
1, 1437240, Note_on_c, 0, 67, 60
1, 1437249, Control_c, 0, 67, 126
1, 1437264, Control_c, 0, 67, 126
1, 1437270, Note_on_c, 0, 50, 28
1, 1437277, Note_off_c, 0, 72, 60
1, 1437279, Control_c, 0, 67, 125
1, 1437294, Control_c, 0, 67, 124
1, 1437309, Control_c, 0, 67, 124
1, 1437324, Control_c, 0, 67, 123
1, 1437339, Control_c, 0, 64, 26
1, 1437339, Control_c, 0, 67, 122
1, 1437354, Control_c, 0, 64, 59
1, 1437354, Control_c, 0, 67, 122
1, 1437369, Control_c, 0, 64, 65
1, 1437369, Control_c, 0, 67, 121
1, 1437383, Control_c, 0, 64, 67
1, 1437383, Control_c, 0, 67, 121
1, 1437387, Note_on_c, 0, 55, 43
1, 1437398, Control_c, 0, 64, 69
1, 1437398, Control_c, 0, 67, 120
1, 1437408, Note_off_c, 0, 50, 34
1, 1437413, Control_c, 0, 64, 71
1, 1437413, Control_c, 0, 67, 120
1, 1437427, Control_c, 0, 64, 73
1, 1437427, Control_c, 0, 67, 119
1, 1437442, Control_c, 0, 64, 74
1, 1437442, Control_c, 0, 67, 119
1, 1437447, Note_off_c, 0, 55, 63
1, 1437457, Control_c, 0, 64, 74
1, 1437457, Control_c, 0, 67, 118
1, 1437472, Control_c, 0, 67, 117
1, 1437487, Control_c, 0, 67, 116
1, 1437489, Note_on_c, 0, 53, 47
1, 1437501, Control_c, 0, 67, 114
1, 1437516, Control_c, 0, 67, 114
1, 1437531, Control_c, 0, 67, 113
1, 1437546, Control_c, 0, 67, 112
1, 1437553, Note_off_c, 0, 53, 65
1, 1437561, Control_c, 0, 67, 112
1, 1437575, Control_c, 0, 67, 111
1, 1437580, Note_on_c, 0, 55, 50
1, 1437605, Control_c, 0, 67, 110
1, 1437613, Note_off_c, 0, 55, 64
1, 1437634, Control_c, 0, 67, 109
1, 1437662, Note_on_c, 0, 59, 52
1, 1437672, Control_c, 0, 67, 109
1, 1437682, Note_off_c, 0, 67, 55
1, 1437720, Note_off_c, 0, 59, 51
1, 1437742, Note_on_c, 0, 55, 47
1, 1437746, Control_c, 0, 67, 108
1, 1437760, Control_c, 0, 67, 108
1, 1437790, Control_c, 0, 67, 107
1, 1437800, Note_off_c, 0, 55, 62
1, 1437805, Control_c, 0, 67, 105
1, 1437817, Note_on_c, 0, 67, 73
1, 1437819, Note_on_c, 0, 53, 49
1, 1437820, Control_c, 0, 67, 104
1, 1437834, Control_c, 0, 67, 103
1, 1437849, Control_c, 0, 67, 102
1, 1437864, Control_c, 0, 67, 101
1, 1437866, Note_off_c, 0, 53, 65
1, 1437879, Control_c, 0, 67, 100
1, 1437894, Control_c, 0, 64, 74
1, 1437894, Control_c, 0, 67, 98
1, 1437908, Control_c, 0, 67, 97
1, 1437914, Note_on_c, 0, 55, 55
1, 1437923, Control_c, 0, 67, 95
1, 1437938, Control_c, 0, 64, 73
1, 1437938, Control_c, 0, 67, 93
1, 1437953, Control_c, 0, 67, 90
1, 1437968, Control_c, 0, 64, 72
1, 1437968, Control_c, 0, 67, 88
1, 1437983, Control_c, 0, 64, 67
1, 1437983, Control_c, 0, 67, 85
1, 1437998, Control_c, 0, 64, 57
1, 1437998, Control_c, 0, 67, 83
1, 1438012, Control_c, 0, 64, 0
1, 1438012, Control_c, 0, 67, 80
1, 1438021, Note_off_c, 0, 55, 50
1, 1438025, Note_on_c, 0, 72, 74
1, 1438027, Control_c, 0, 67, 77
1, 1438042, Control_c, 0, 67, 74
1, 1438051, Note_on_c, 0, 48, 47
1, 1438057, Control_c, 0, 67, 72
1, 1438065, Note_off_c, 0, 67, 62
1, 1438072, Control_c, 0, 67, 69
1, 1438087, Control_c, 0, 67, 66
1, 1438102, Control_c, 0, 64, 32
1, 1438102, Control_c, 0, 67, 62
1, 1438117, Control_c, 0, 64, 60
1, 1438117, Control_c, 0, 67, 58
1, 1438132, Control_c, 0, 64, 66
1, 1438132, Control_c, 0, 67, 53
1, 1438134, Note_off_c, 0, 48, 59
1, 1438147, Control_c, 0, 64, 68
1, 1438147, Control_c, 0, 67, 49
1, 1438153, Note_on_c, 0, 55, 54
1, 1438161, Control_c, 0, 64, 70
1, 1438161, Control_c, 0, 67, 46
1, 1438176, Control_c, 0, 64, 73
1, 1438176, Control_c, 0, 67, 43
1, 1438191, Control_c, 0, 64, 76
1, 1438191, Control_c, 0, 67, 42
1, 1438195, Note_off_c, 0, 55, 64
1, 1438206, Control_c, 0, 64, 78
1, 1438206, Control_c, 0, 67, 40
1, 1438221, Control_c, 0, 64, 79
1, 1438221, Control_c, 0, 67, 38
1, 1438234, Note_on_c, 0, 51, 55
1, 1438236, Control_c, 0, 64, 81
1, 1438236, Control_c, 0, 67, 35
1, 1438250, Control_c, 0, 64, 83
1, 1438250, Control_c, 0, 67, 31
1, 1438265, Control_c, 0, 64, 85
1, 1438265, Control_c, 0, 67, 28
1, 1438280, Control_c, 0, 64, 89
1, 1438280, Control_c, 0, 67, 25
1, 1438295, Control_c, 0, 64, 94
1, 1438295, Control_c, 0, 67, 23
1, 1438310, Control_c, 0, 64, 102
1, 1438310, Control_c, 0, 67, 22
1, 1438317, Note_off_c, 0, 51, 58
1, 1438324, Control_c, 0, 64, 114
1, 1438324, Control_c, 0, 67, 21
1, 1438325, Note_on_c, 0, 55, 51
1, 1438339, Control_c, 0, 64, 127
1, 1438339, Control_c, 0, 67, 19
1, 1438354, Control_c, 0, 67, 17
1, 1438365, Note_off_c, 0, 55, 64
1, 1438369, Control_c, 0, 67, 14
1, 1438383, Control_c, 0, 67, 11
1, 1438406, Control_c, 0, 67, 8
1, 1438418, Note_on_c, 0, 60, 55
1, 1438421, Control_c, 0, 67, 0
1, 1438430, Note_off_c, 0, 72, 61
1, 1438491, Note_off_c, 0, 60, 58
1, 1438496, Note_on_c, 0, 55, 58
1, 1438567, Note_on_c, 0, 72, 78
1, 1438573, Note_off_c, 0, 55, 61
1, 1438588, Note_on_c, 0, 51, 53
1, 1438667, Note_off_c, 0, 51, 61
1, 1438704, Note_on_c, 0, 55, 52
1, 1438865, Control_c, 0, 64, 106
1, 1438880, Control_c, 0, 64, 88
1, 1438884, Note_off_c, 0, 55, 42
1, 1438895, Control_c, 0, 64, 77
1, 1438909, Note_on_c, 0, 73, 76
1, 1438910, Control_c, 0, 64, 67
1, 1438925, Control_c, 0, 64, 55
1, 1438940, Control_c, 0, 64, 0
1, 1438971, Note_on_c, 0, 41, 47
1, 1439001, Note_off_c, 0, 72, 59
1, 1439073, Control_c, 0, 64, 56
1, 1439088, Control_c, 0, 64, 65
1, 1439092, Note_off_c, 0, 41, 60
1, 1439103, Control_c, 0, 64, 71
1, 1439118, Control_c, 0, 64, 81
1, 1439133, Control_c, 0, 64, 102
1, 1439142, Note_on_c, 0, 56, 54
1, 1439154, Control_c, 0, 64, 127
1, 1439197, Control_c, 0, 67, 16
1, 1439212, Control_c, 0, 67, 21
1, 1439227, Control_c, 0, 67, 24
1, 1439242, Control_c, 0, 67, 26
1, 1439257, Control_c, 0, 67, 27
1, 1439272, Control_c, 0, 67, 30
1, 1439273, Note_off_c, 0, 56, 60
1, 1439279, Note_on_c, 0, 53, 51
1, 1439286, Control_c, 0, 67, 34
1, 1439301, Control_c, 0, 67, 36
1, 1439316, Control_c, 0, 67, 37
1, 1439331, Control_c, 0, 67, 38
1, 1439346, Control_c, 0, 67, 39
1, 1439360, Control_c, 0, 67, 40
1, 1439369, Note_off_c, 0, 53, 64
1, 1439375, Control_c, 0, 67, 42
1, 1439383, Note_on_c, 0, 56, 42
1, 1439390, Control_c, 0, 67, 44
1, 1439404, Control_c, 0, 67, 46
1, 1439419, Control_c, 0, 67, 47
1, 1439422, Note_off_c, 0, 56, 61
1, 1439434, Control_c, 0, 67, 48
1, 1439445, Note_off_c, 0, 73, 60
1, 1439449, Control_c, 0, 67, 48
1, 1439461, Note_on_c, 0, 75, 60
1, 1439464, Note_on_c, 0, 61, 50
1, 1439507, Note_off_c, 0, 75, 62
1, 1439509, Control_c, 0, 67, 49
1, 1439541, Note_off_c, 0, 61, 59
1, 1439548, Note_on_c, 0, 77, 64
1, 1439556, Note_on_c, 0, 56, 47
1, 1439610, Note_off_c, 0, 77, 58
1, 1439617, Note_on_c, 0, 79, 66
1, 1439633, Note_off_c, 0, 56, 54
1, 1439642, Control_c, 0, 67, 50
1, 1439652, Note_on_c, 0, 53, 54
1, 1439657, Control_c, 0, 67, 50
1, 1439661, Note_off_c, 0, 79, 58
1, 1439673, Control_c, 0, 67, 52
1, 1439676, Note_on_c, 0, 80, 71
1, 1439688, Control_c, 0, 67, 55
1, 1439702, Control_c, 0, 67, 58
1, 1439717, Control_c, 0, 67, 62
1, 1439720, Note_off_c, 0, 53, 65
1, 1439732, Control_c, 0, 67, 64
1, 1439747, Control_c, 0, 67, 67
1, 1439752, Note_on_c, 0, 79, 69
1, 1439753, Note_off_c, 0, 80, 63
1, 1439762, Control_c, 0, 67, 70
1, 1439765, Note_on_c, 0, 56, 58
1, 1439776, Control_c, 0, 67, 75
1, 1439780, Note_off_c, 0, 79, 64
1, 1439791, Control_c, 0, 67, 81
1, 1439806, Control_c, 0, 67, 86
1, 1439807, Note_on_c, 0, 77, 63
1, 1439820, Control_c, 0, 67, 91
1, 1439834, Note_off_c, 0, 56, 58
1, 1439835, Control_c, 0, 67, 94
1, 1439841, Note_off_c, 0, 77, 57
1, 1439850, Control_c, 0, 67, 97
1, 1439865, Control_c, 0, 67, 99
1, 1439873, Note_on_c, 0, 75, 67
1, 1439880, Control_c, 0, 67, 102
1, 1439902, Control_c, 0, 67, 105
1, 1439917, Control_c, 0, 64, 99
1, 1439917, Control_c, 0, 67, 108
1, 1439932, Control_c, 0, 64, 74
1, 1439932, Control_c, 0, 67, 111
1, 1439947, Note_on_c, 0, 73, 65
1, 1439947, Control_c, 0, 64, 56
1, 1439947, Control_c, 0, 67, 113
1, 1439962, Control_c, 0, 64, 0
1, 1439962, Control_c, 0, 67, 116
1, 1439977, Control_c, 0, 67, 120
1, 1439982, Note_off_c, 0, 75, 54
1, 1439992, Control_c, 0, 67, 125
1, 1439999, Note_on_c, 0, 43, 56
1, 1440007, Control_c, 0, 67, 127
1, 1440010, Note_on_c, 0, 72, 76
1, 1440011, Note_off_c, 0, 73, 62
1, 1440021, Control_c, 0, 64, 25
1, 1440036, Control_c, 0, 64, 61
1, 1440036, Note_off_c, 0, 43, 63
1, 1440051, Control_c, 0, 64, 67
1, 1440066, Control_c, 0, 64, 71
1, 1440081, Control_c, 0, 64, 72
1, 1440138, Note_on_c, 0, 51, 50
1, 1440221, Note_off_c, 0, 51, 49
1, 1440223, Note_on_c, 0, 55, 59
1, 1440272, Note_off_c, 0, 55, 61
1, 1440302, Note_on_c, 0, 60, 51
1, 1440317, Control_c, 0, 64, 72
1, 1440332, Control_c, 0, 64, 71
1, 1440336, Note_off_c, 0, 60, 51
1, 1440346, Control_c, 0, 64, 71
1, 1440361, Control_c, 0, 64, 69
1, 1440376, Control_c, 0, 64, 64
1, 1440391, Control_c, 0, 64, 42
1, 1440406, Control_c, 0, 64, 0
1, 1440430, Note_on_c, 0, 75, 61
1, 1440437, Note_on_c, 0, 71, 54
1, 1440441, Note_off_c, 0, 72, 55
1, 1440442, Note_on_c, 0, 43, 49
1, 1440481, Control_c, 0, 64, 21
1, 1440496, Control_c, 0, 64, 60
1, 1440502, Note_off_c, 0, 43, 62
1, 1440511, Control_c, 0, 64, 66
1, 1440525, Control_c, 0, 64, 69
1, 1440540, Control_c, 0, 64, 70
1, 1440622, Note_on_c, 0, 53, 49
1, 1440703, Note_off_c, 0, 53, 65
1, 1440752, Note_on_c, 0, 55, 34
1, 1440784, Note_off_c, 0, 55, 54
1, 1440840, Note_on_c, 0, 62, 49
1, 1440844, Control_c, 0, 64, 69
1, 1440859, Control_c, 0, 64, 69
1, 1440861, Note_on_c, 0, 74, 47
1, 1440874, Control_c, 0, 64, 68
1, 1440889, Control_c, 0, 64, 67
1, 1440895, Note_off_c, 0, 62, 51
1, 1440904, Control_c, 0, 64, 65
1, 1440915, Note_off_c, 0, 75, 47
1, 1440919, Control_c, 0, 64, 59
1, 1440933, Control_c, 0, 64, 0
1, 1440951, Note_off_c, 0, 71, 34
1, 1440972, Note_on_c, 0, 48, 43
1, 1440981, Note_on_c, 0, 72, 47
1, 1441032, Note_off_c, 0, 74, 37
1, 1441034, Note_off_c, 0, 48, 59
1, 1441037, Control_c, 0, 64, 30
1, 1441051, Control_c, 0, 64, 61
1, 1441061, Note_on_c, 0, 51, 49
1, 1441066, Control_c, 0, 64, 65
1, 1441081, Control_c, 0, 64, 65
1, 1441096, Control_c, 0, 64, 67
1, 1441111, Control_c, 0, 64, 68
1, 1441125, Control_c, 0, 64, 69
1, 1441140, Control_c, 0, 64, 71
1, 1441144, Note_off_c, 0, 51, 58
1, 1441151, Note_on_c, 0, 55, 45
1, 1441155, Control_c, 0, 64, 72
1, 1441169, Control_c, 0, 64, 73
1, 1441176, Note_off_c, 0, 55, 61
1, 1441184, Control_c, 0, 64, 74
1, 1441199, Control_c, 0, 64, 74
1, 1441214, Control_c, 0, 64, 75
1, 1441237, Note_on_c, 0, 60, 51
1, 1441237, Note_off_c, 0, 72, 63
1, 1441244, Control_c, 0, 64, 75
1, 1441285, Note_off_c, 0, 60, 52
1, 1441314, Note_on_c, 0, 63, 52
1, 1441340, Note_off_c, 0, 63, 63
1, 1441403, Note_on_c, 0, 60, 52
1, 1441464, Note_off_c, 0, 60, 47
1, 1441496, Note_on_c, 0, 55, 54
1, 1441503, Note_on_c, 0, 67, 68
1, 1441578, Note_off_c, 0, 55, 56
1, 1441596, Note_on_c, 0, 51, 41
1, 1441643, Note_off_c, 0, 67, 55
1, 1441681, Control_c, 0, 64, 75
1, 1441696, Control_c, 0, 64, 74
1, 1441711, Control_c, 0, 64, 73
1, 1441726, Control_c, 0, 64, 71
1, 1441727, Note_off_c, 0, 51, 52
1, 1441741, Control_c, 0, 64, 68
1, 1441755, Control_c, 0, 64, 63
1, 1441765, Note_on_c, 0, 48, 42
1, 1441770, Control_c, 0, 64, 40
1, 1441785, Control_c, 0, 64, 0
1, 1441798, Note_on_c, 0, 75, 59
1, 1441816, Note_on_c, 0, 67, 39
1, 1441817, Note_on_c, 0, 63, 45
1, 1441873, Control_c, 0, 64, 50
1, 1441888, Control_c, 0, 64, 67
1, 1441903, Control_c, 0, 64, 75
1, 1441917, Control_c, 0, 64, 82
1, 1441921, Note_off_c, 0, 48, 58
1, 1441932, Control_c, 0, 64, 86
1, 1441935, Note_on_c, 0, 55, 43
1, 1441947, Control_c, 0, 64, 92
1, 1441962, Control_c, 0, 64, 100
1, 1441962, Control_c, 0, 67, 126
1, 1441977, Control_c, 0, 64, 118
1, 1441977, Control_c, 0, 67, 125
1, 1441980, Note_off_c, 0, 55, 59
1, 1441992, Control_c, 0, 64, 127
1, 1441992, Control_c, 0, 67, 123
1, 1442007, Control_c, 0, 67, 122
1, 1442022, Control_c, 0, 67, 120
1, 1442023, Note_on_c, 0, 51, 48
1, 1442037, Control_c, 0, 67, 119
1, 1442052, Control_c, 0, 67, 118
1, 1442067, Control_c, 0, 67, 117
1, 1442082, Control_c, 0, 67, 115
1, 1442096, Note_off_c, 0, 51, 57
1, 1442096, Control_c, 0, 67, 113
1, 1442101, Note_on_c, 0, 55, 54
1, 1442111, Control_c, 0, 67, 111
1, 1442126, Control_c, 0, 67, 109
1, 1442149, Control_c, 0, 67, 107
1, 1442158, Note_off_c, 0, 55, 62
1, 1442164, Control_c, 0, 67, 105
1, 1442178, Control_c, 0, 67, 103
1, 1442193, Control_c, 0, 67, 100
1, 1442205, Note_on_c, 0, 60, 57
1, 1442208, Control_c, 0, 67, 96
1, 1442222, Control_c, 0, 67, 92
1, 1442237, Control_c, 0, 67, 89
1, 1442243, Note_off_c, 0, 75, 63
1, 1442252, Control_c, 0, 67, 86
1, 1442267, Control_c, 0, 67, 83
1, 1442277, Note_off_c, 0, 60, 60
1, 1442282, Control_c, 0, 67, 80
1, 1442286, Note_on_c, 0, 55, 57
1, 1442296, Control_c, 0, 67, 76
1, 1442311, Control_c, 0, 67, 72
1, 1442326, Control_c, 0, 67, 67
1, 1442341, Control_c, 0, 67, 63
1, 1442355, Note_off_c, 0, 55, 62
1, 1442356, Note_on_c, 0, 75, 85
1, 1442356, Control_c, 0, 67, 60
1, 1442367, Note_on_c, 0, 51, 56
1, 1442370, Control_c, 0, 67, 57
1, 1442385, Control_c, 0, 67, 54
1, 1442400, Control_c, 0, 67, 51
1, 1442406, Note_off_c, 0, 67, 54
1, 1442415, Control_c, 0, 67, 48
1, 1442419, Note_off_c, 0, 63, 63
1, 1442423, Note_off_c, 0, 51, 59
1, 1442430, Control_c, 0, 67, 45
1, 1442445, Control_c, 0, 67, 42
1, 1442460, Control_c, 0, 67, 38
1, 1442463, Note_on_c, 0, 55, 56
1, 1442475, Control_c, 0, 67, 35
1, 1442490, Control_c, 0, 67, 31
1, 1442490, Note_off_c, 0, 75, 60
1, 1442504, Control_c, 0, 67, 28
1, 1442519, Control_c, 0, 67, 26
1, 1442534, Control_c, 0, 67, 23
1, 1442548, Control_c, 0, 67, 21
1, 1442563, Note_on_c, 0, 45, 61
1, 1442563, Control_c, 0, 67, 19
1, 1442578, Control_c, 0, 67, 16
1, 1442593, Control_c, 0, 67, 13
1, 1442608, Control_c, 0, 64, 104
1, 1442608, Control_c, 0, 67, 10
1, 1442611, Note_off_c, 0, 55, 32
1, 1442619, Note_on_c, 0, 75, 78
1, 1442622, Control_c, 0, 64, 68
1, 1442622, Control_c, 0, 67, 0
1, 1442626, Note_on_c, 0, 66, 74
1, 1442627, Note_on_c, 0, 72, 61
1, 1442637, Control_c, 0, 64, 0
1, 1442696, Control_c, 0, 64, 57
1, 1442711, Control_c, 0, 64, 70
1, 1442726, Control_c, 0, 64, 88
1, 1442738, Note_off_c, 0, 45, 57
1, 1442740, Control_c, 0, 64, 127
1, 1442746, Note_on_c, 0, 54, 60
1, 1442812, Note_off_c, 0, 54, 61
1, 1442853, Note_on_c, 0, 50, 53
1, 1442922, Note_off_c, 0, 50, 62
1, 1442937, Note_on_c, 0, 54, 67
1, 1442966, Note_off_c, 0, 75, 62
1, 1442988, Note_off_c, 0, 54, 59
1, 1443011, Note_on_c, 0, 74, 81
1, 1443026, Note_on_c, 0, 60, 63
1, 1443081, Note_off_c, 0, 60, 45
1, 1443108, Note_on_c, 0, 54, 62
1, 1443115, Note_off_c, 0, 74, 57
1, 1443131, Note_off_c, 0, 66, 65
1, 1443151, Note_off_c, 0, 72, 31
1, 1443169, Note_off_c, 0, 54, 59
1, 1443185, Note_on_c, 0, 50, 58
1, 1443185, Note_on_c, 0, 74, 82
1, 1443243, Note_off_c, 0, 50, 63
1, 1443290, Note_on_c, 0, 54, 60
1, 1443296, Note_off_c, 0, 74, 55
1, 1443402, Control_c, 0, 64, 95
1, 1443411, Note_off_c, 0, 54, 58
1, 1443417, Control_c, 0, 64, 61
1, 1443420, Note_on_c, 0, 74, 76
1, 1443422, Note_on_c, 0, 42, 47
1, 1443432, Control_c, 0, 64, 0
1, 1443446, Note_on_c, 0, 69, 59
1, 1443459, Note_on_c, 0, 62, 60
1, 1443491, Control_c, 0, 64, 20
1, 1443502, Note_off_c, 0, 42, 63
1, 1443506, Control_c, 0, 64, 65
1, 1443520, Control_c, 0, 64, 75
1, 1443535, Control_c, 0, 64, 92
1, 1443550, Control_c, 0, 64, 119
1, 1443559, Note_on_c, 0, 57, 56
1, 1443564, Control_c, 0, 64, 127
1, 1443630, Note_off_c, 0, 57, 53
1, 1443677, Note_on_c, 0, 50, 48
1, 1443739, Note_off_c, 0, 50, 55
1, 1443748, Note_on_c, 0, 57, 61
1, 1443795, Note_off_c, 0, 57, 58
1, 1443843, Note_on_c, 0, 72, 80
1, 1443849, Note_off_c, 0, 74, 64
1, 1443854, Note_on_c, 0, 60, 51
1, 1443914, Note_off_c, 0, 60, 57
1, 1443922, Note_on_c, 0, 57, 53
1, 1443978, Note_off_c, 0, 57, 55
1, 1443979, Note_off_c, 0, 72, 60
1, 1443991, Note_off_c, 0, 69, 39
1, 1444012, Note_on_c, 0, 72, 60
1, 1444020, Note_on_c, 0, 50, 44
1, 1444065, Note_off_c, 0, 50, 63
1, 1444099, Note_on_c, 0, 57, 55
1, 1444129, Note_off_c, 0, 62, 60
1, 1444210, Control_c, 0, 64, 118
1, 1444215, Note_off_c, 0, 57, 55
1, 1444225, Control_c, 0, 64, 94
1, 1444240, Control_c, 0, 64, 75
1, 1444254, Control_c, 0, 64, 58
1, 1444263, Note_on_c, 0, 67, 64
1, 1444269, Control_c, 0, 64, 0
1, 1444284, Note_on_c, 0, 43, 52
1, 1444291, Note_on_c, 0, 65, 43
1, 1444293, Note_off_c, 0, 72, 64
1, 1444303, Note_on_c, 0, 59, 43
1, 1444343, Control_c, 0, 64, 21
1, 1444358, Control_c, 0, 64, 63
1, 1444362, Note_off_c, 0, 43, 60
1, 1444373, Control_c, 0, 64, 71
1, 1444388, Control_c, 0, 64, 77
1, 1444388, Control_c, 0, 67, 8
1, 1444406, Note_on_c, 0, 55, 46
1, 1444409, Control_c, 0, 64, 79
1, 1444409, Control_c, 0, 67, 13
1, 1444424, Control_c, 0, 64, 80
1, 1444424, Control_c, 0, 67, 16
1, 1444439, Control_c, 0, 67, 20
1, 1444454, Control_c, 0, 67, 24
1, 1444461, Note_off_c, 0, 55, 54
1, 1444470, Control_c, 0, 67, 27
1, 1444485, Control_c, 0, 67, 31
1, 1444487, Note_on_c, 0, 50, 57
1, 1444487, Note_off_c, 0, 59, 53
1, 1444499, Control_c, 0, 67, 35
1, 1444514, Control_c, 0, 67, 38
1, 1444529, Control_c, 0, 67, 41
1, 1444544, Control_c, 0, 67, 45
1, 1444558, Note_off_c, 0, 50, 62
1, 1444558, Control_c, 0, 67, 48
1, 1444573, Control_c, 0, 67, 53
1, 1444588, Control_c, 0, 67, 57
1, 1444591, Note_on_c, 0, 55, 62
1, 1444603, Control_c, 0, 67, 61
1, 1444618, Control_c, 0, 67, 64
1, 1444633, Control_c, 0, 67, 68
1, 1444636, Note_off_c, 0, 55, 62
1, 1444648, Control_c, 0, 67, 72
1, 1444663, Control_c, 0, 67, 74
1, 1444677, Note_off_c, 0, 67, 57
1, 1444678, Control_c, 0, 67, 77
1, 1444692, Control_c, 0, 67, 80
1, 1444693, Note_on_c, 0, 59, 51
1, 1444707, Control_c, 0, 67, 82
1, 1444722, Control_c, 0, 67, 85
1, 1444736, Control_c, 0, 67, 88
1, 1444751, Control_c, 0, 67, 93
1, 1444766, Control_c, 0, 64, 79
1, 1444766, Control_c, 0, 67, 97
1, 1444773, Note_off_c, 0, 59, 51
1, 1444779, Note_on_c, 0, 55, 53
1, 1444781, Control_c, 0, 64, 79
1, 1444781, Control_c, 0, 67, 100
1, 1444796, Control_c, 0, 67, 103
1, 1444810, Control_c, 0, 64, 78
1, 1444810, Control_c, 0, 67, 107
1, 1444825, Control_c, 0, 64, 78
1, 1444825, Control_c, 0, 67, 111
1, 1444840, Control_c, 0, 64, 77
1, 1444840, Control_c, 0, 67, 113
1, 1444855, Control_c, 0, 64, 76
1, 1444855, Control_c, 0, 67, 116
1, 1444870, Control_c, 0, 64, 74
1, 1444870, Control_c, 0, 67, 119
1, 1444874, Note_off_c, 0, 55, 52
1, 1444880, Note_on_c, 0, 67, 58
1, 1444885, Control_c, 0, 64, 73
1, 1444885, Control_c, 0, 67, 121
1, 1444899, Control_c, 0, 64, 71
1, 1444899, Control_c, 0, 67, 123
1, 1444914, Control_c, 0, 64, 70
1, 1444914, Control_c, 0, 67, 125
1, 1444917, Note_on_c, 0, 50, 44
1, 1444929, Control_c, 0, 64, 68
1, 1444929, Control_c, 0, 67, 127
1, 1444935, Note_off_c, 0, 65, 51
1, 1444943, Control_c, 0, 64, 65
1, 1444958, Control_c, 0, 64, 62
1, 1444973, Control_c, 0, 64, 56
1, 1444988, Control_c, 0, 64, 44
1, 1445003, Control_c, 0, 64, 0
1, 1445009, Note_off_c, 0, 50, 61
1, 1445043, Note_on_c, 0, 55, 37
1, 1445221, Note_on_c, 0, 44, 35
1, 1445245, Note_off_c, 0, 55, 36
1, 1445376, Note_on_c, 0, 72, 52
1, 1445416, Note_on_c, 0, 63, 37
1, 1445420, Note_on_c, 0, 60, 36
1, 1445420, Note_off_c, 0, 67, 52
1, 1445486, Control_c, 0, 64, 30
1, 1445500, Control_c, 0, 64, 59
1, 1445515, Control_c, 0, 64, 64
1, 1445530, Control_c, 0, 64, 69
1, 1445545, Control_c, 0, 64, 76
1, 1445560, Control_c, 0, 64, 86
1, 1445574, Control_c, 0, 64, 94
1, 1445589, Control_c, 0, 64, 98
1, 1445604, Control_c, 0, 64, 100
1, 1445619, Control_c, 0, 64, 101
1, 1445633, Control_c, 0, 64, 102
1, 1445644, Note_off_c, 0, 44, 47
1, 1445663, Note_on_c, 0, 51, 41
1, 1445663, Control_c, 0, 64, 103
1, 1445682, Note_off_c, 0, 60, 33
1, 1445727, Note_off_c, 0, 51, 45
1, 1445742, Note_off_c, 0, 63, 41
1, 1445772, Note_on_c, 0, 48, 44
1, 1445860, Note_on_c, 0, 51, 46
1, 1445894, Note_off_c, 0, 48, 36
1, 1445916, Note_off_c, 0, 51, 61
1, 1445932, Note_off_c, 0, 72, 51
1, 1445971, Note_on_c, 0, 56, 47
1, 1446043, Note_off_c, 0, 56, 49
1, 1446051, Note_on_c, 0, 51, 52
1, 1446132, Note_on_c, 0, 72, 55
1, 1446138, Note_off_c, 0, 51, 51
1, 1446159, Control_c, 0, 64, 102
1, 1446167, Note_on_c, 0, 48, 43
1, 1446204, Control_c, 0, 64, 101
1, 1446205, Note_off_c, 0, 48, 61
1, 1446219, Control_c, 0, 64, 100
1, 1446234, Control_c, 0, 64, 98
1, 1446249, Control_c, 0, 64, 95
1, 1446263, Control_c, 0, 64, 92
1, 1446271, Note_on_c, 0, 51, 47
1, 1446278, Control_c, 0, 64, 90
1, 1446293, Control_c, 0, 64, 88
1, 1446308, Control_c, 0, 64, 85
1, 1446322, Control_c, 0, 64, 83
1, 1446337, Control_c, 0, 64, 78
1, 1446352, Control_c, 0, 64, 71
1, 1446367, Control_c, 0, 64, 59
1, 1446368, Note_off_c, 0, 51, 54
1, 1446382, Control_c, 0, 64, 0
1, 1446395, Note_on_c, 0, 73, 63
1, 1446433, Note_on_c, 0, 41, 47
1, 1446451, Note_off_c, 0, 72, 57
1, 1446470, Control_c, 0, 64, 59
1, 1446485, Control_c, 0, 64, 68
1, 1446496, Note_off_c, 0, 41, 54
1, 1446500, Control_c, 0, 64, 72
1, 1446514, Control_c, 0, 64, 73
1, 1446583, Note_on_c, 0, 56, 46
1, 1446676, Note_off_c, 0, 56, 60
1, 1446701, Note_on_c, 0, 53, 36
1, 1446792, Note_off_c, 0, 53, 46
1, 1446793, Note_off_c, 0, 73, 60
1, 1446797, Note_on_c, 0, 56, 43
1, 1446808, Note_on_c, 0, 75, 52
1, 1446839, Note_off_c, 0, 56, 62
1, 1446846, Note_off_c, 0, 75, 66
1, 1446886, Note_on_c, 0, 61, 50
1, 1446898, Note_on_c, 0, 77, 60
1, 1446940, Note_off_c, 0, 77, 56
1, 1446964, Note_on_c, 0, 79, 57
1, 1446999, Note_on_c, 0, 56, 41
1, 1447000, Note_off_c, 0, 61, 48
1, 1447011, Note_on_c, 0, 80, 72
1, 1447015, Note_off_c, 0, 79, 53
1, 1447059, Note_off_c, 0, 80, 62
1, 1447074, Note_on_c, 0, 82, 65
1, 1447092, Note_off_c, 0, 56, 48
1, 1447143, Note_on_c, 0, 53, 45
1, 1447148, Note_on_c, 0, 80, 70
1, 1447170, Note_off_c, 0, 82, 56
1, 1447211, Note_off_c, 0, 80, 61
1, 1447214, Note_on_c, 0, 79, 62
1, 1447225, Note_off_c, 0, 53, 60
1, 1447246, Note_off_c, 0, 79, 63
1, 1447278, Note_on_c, 0, 77, 57
1, 1447292, Note_on_c, 0, 56, 39
1, 1447308, Note_off_c, 0, 77, 57
1, 1447353, Note_off_c, 0, 56, 54
1, 1447355, Note_on_c, 0, 75, 55
1, 1447426, Note_on_c, 0, 73, 54
1, 1447435, Control_c, 0, 64, 71
1, 1447450, Control_c, 0, 64, 63
1, 1447454, Note_off_c, 0, 75, 35
1, 1447465, Control_c, 0, 64, 37
1, 1447480, Control_c, 0, 64, 0
1, 1447483, Note_off_c, 0, 73, 61
1, 1447498, Note_on_c, 0, 72, 65
1, 1447516, Note_on_c, 0, 43, 55
1, 1447524, Control_c, 0, 64, 40
1, 1447538, Control_c, 0, 64, 60
1, 1447544, Note_off_c, 0, 43, 62
1, 1447553, Control_c, 0, 64, 68
1, 1447568, Control_c, 0, 64, 74
1, 1447583, Control_c, 0, 64, 76
1, 1447598, Control_c, 0, 64, 76
1, 1447641, Note_on_c, 0, 51, 52
1, 1447734, Note_on_c, 0, 55, 57
1, 1447737, Note_off_c, 0, 51, 33
1, 1447761, Control_c, 0, 64, 76
1, 1447787, Note_off_c, 0, 55, 60
1, 1447821, Control_c, 0, 64, 75
1, 1447835, Control_c, 0, 64, 75
1, 1447838, Note_on_c, 0, 60, 36
1, 1447850, Control_c, 0, 64, 74
1, 1447865, Control_c, 0, 64, 73
1, 1447880, Control_c, 0, 64, 71
1, 1447881, Note_off_c, 0, 60, 58
1, 1447895, Control_c, 0, 64, 66
1, 1447909, Control_c, 0, 64, 54
1, 1447924, Control_c, 0, 64, 0
1, 1447937, Note_off_c, 0, 72, 59
1, 1447951, Note_on_c, 0, 75, 53
1, 1447955, Note_on_c, 0, 71, 45
1, 1447989, Note_on_c, 0, 43, 49
1, 1447998, Control_c, 0, 64, 48
1, 1448013, Control_c, 0, 64, 65
1, 1448028, Control_c, 0, 64, 70
1, 1448039, Note_off_c, 0, 43, 62
1, 1448043, Control_c, 0, 64, 72
1, 1448058, Control_c, 0, 64, 72
1, 1448117, Control_c, 0, 64, 73
1, 1448178, Note_on_c, 0, 53, 45
1, 1448260, Note_off_c, 0, 53, 65
1, 1448299, Note_on_c, 0, 55, 46
1, 1448338, Note_off_c, 0, 55, 52
1, 1448376, Control_c, 0, 64, 72
1, 1448411, Note_on_c, 0, 62, 40
1, 1448420, Note_on_c, 0, 74, 49
1, 1448421, Control_c, 0, 64, 72
1, 1448435, Control_c, 0, 64, 70
1, 1448450, Control_c, 0, 64, 65
1, 1448460, Note_off_c, 0, 71, 48
1, 1448466, Control_c, 0, 64, 51
1, 1448467, Note_off_c, 0, 62, 42
1, 1448471, Note_off_c, 0, 75, 34
1, 1448481, Control_c, 0, 64, 0
1, 1448519, Note_on_c, 0, 72, 51
1, 1448536, Note_on_c, 0, 48, 46
1, 1448553, Note_off_c, 0, 74, 38
1, 1448570, Control_c, 0, 64, 49
1, 1448584, Control_c, 0, 64, 64
1, 1448593, Note_off_c, 0, 48, 60
1, 1448599, Control_c, 0, 64, 70
1, 1448614, Control_c, 0, 64, 73
1, 1448629, Note_on_c, 0, 51, 51
1, 1448629, Control_c, 0, 64, 75
1, 1448644, Control_c, 0, 64, 75
1, 1448658, Control_c, 0, 64, 76
1, 1448678, Note_off_c, 0, 51, 55
1, 1448698, Note_on_c, 0, 55, 44
1, 1448703, Control_c, 0, 64, 76
1, 1448732, Note_off_c, 0, 55, 53
1, 1448792, Note_on_c, 0, 63, 53
1, 1448859, Note_off_c, 0, 63, 58
1, 1448903, Control_c, 0, 64, 76
1, 1448905, Note_off_c, 0, 72, 30
1, 1448918, Note_on_c, 0, 60, 45
1, 1448932, Control_c, 0, 64, 75
1, 1448947, Control_c, 0, 64, 74
1, 1448962, Control_c, 0, 64, 72
1, 1448977, Control_c, 0, 64, 69
1, 1448977, Control_c, 0, 67, 123
1, 1448991, Control_c, 0, 64, 67
1, 1448991, Control_c, 0, 67, 100
1, 1449006, Control_c, 0, 64, 65
1, 1449006, Control_c, 0, 67, 80
1, 1449021, Control_c, 0, 64, 64
1, 1449021, Control_c, 0, 67, 62
1, 1449036, Control_c, 0, 64, 63
1, 1449036, Control_c, 0, 67, 43
1, 1449051, Control_c, 0, 64, 60
1, 1449051, Control_c, 0, 67, 26
1, 1449054, Note_off_c, 0, 60, 61
1, 1449066, Control_c, 0, 64, 56
1, 1449066, Control_c, 0, 67, 9
1, 1449081, Control_c, 0, 64, 36
1, 1449081, Control_c, 0, 67, 0
1, 1449095, Control_c, 0, 64, 0
1, 1449231, Note_on_c, 0, 55, 96
1, 1449235, Note_on_c, 0, 43, 96
1, 1449289, Control_c, 0, 64, 59
1, 1449304, Control_c, 0, 64, 78
1, 1449319, Control_c, 0, 64, 127
1, 1449362, Note_off_c, 0, 43, 63
1, 1449378, Note_off_c, 0, 55, 61
1, 1449563, Note_on_c, 0, 63, 97
1, 1449566, Note_on_c, 0, 51, 91
1, 1449629, Control_c, 0, 64, 80
1, 1449652, Control_c, 0, 64, 0
1, 1449691, Note_on_c, 0, 67, 77
1, 1449740, Control_c, 0, 64, 34
1, 1449755, Control_c, 0, 64, 67
1, 1449770, Control_c, 0, 64, 79
1, 1449784, Note_off_c, 0, 67, 53
1, 1449785, Control_c, 0, 64, 94
1, 1449789, Note_on_c, 0, 72, 83
1, 1449800, Control_c, 0, 64, 103
1, 1449814, Control_c, 0, 64, 112
1, 1449829, Control_c, 0, 64, 127
1, 1449873, Control_c, 0, 64, 106
1, 1449877, Note_off_c, 0, 72, 64
1, 1449881, Note_on_c, 0, 75, 81
1, 1449888, Control_c, 0, 64, 71
1, 1449903, Control_c, 0, 64, 0
1, 1449921, Note_off_c, 0, 75, 66
1, 1449954, Note_on_c, 0, 76, 22
1, 1449955, Note_off_c, 0, 76, 127
1, 1449963, Control_c, 0, 64, 66
1, 1449978, Control_c, 0, 64, 127
1, 1449991, Note_on_c, 0, 79, 97
1, 1450089, Note_on_c, 0, 91, 78
1, 1450091, Note_on_c, 0, 87, 80
1, 1450100, Note_off_c, 0, 79, 58
1, 1450101, Note_off_c, 0, 63, 62
1, 1450115, Note_off_c, 0, 51, 59
1, 1450154, Note_off_c, 0, 91, 59
1, 1450170, Note_on_c, 0, 51, 79
1, 1450170, Note_on_c, 0, 63, 89
1, 1450172, Note_on_c, 0, 79, 84
1, 1450176, Note_off_c, 0, 87, 59
1, 1450262, Note_on_c, 0, 87, 88
1, 1450263, Note_on_c, 0, 91, 74
1, 1450282, Note_off_c, 0, 51, 60
1, 1450288, Note_off_c, 0, 63, 61
1, 1450308, Note_off_c, 0, 91, 56
1, 1450322, Note_off_c, 0, 79, 53
1, 1450328, Note_off_c, 0, 87, 63
1, 1450348, Control_c, 0, 64, 66
1, 1450363, Control_c, 0, 64, 0
1, 1450371, Note_on_c, 0, 62, 100
1, 1450373, Note_on_c, 0, 50, 87
1, 1450445, Control_c, 0, 64, 48
1, 1450460, Control_c, 0, 64, 65
1, 1450473, Note_on_c, 0, 69, 86
1, 1450475, Control_c, 0, 64, 71
1, 1450489, Control_c, 0, 64, 76
1, 1450504, Control_c, 0, 64, 80
1, 1450519, Control_c, 0, 64, 85
1, 1450534, Control_c, 0, 64, 92
1, 1450549, Control_c, 0, 64, 99
1, 1450562, Note_on_c, 0, 74, 86
1, 1450563, Note_off_c, 0, 69, 61
1, 1450563, Control_c, 0, 64, 106
1, 1450578, Control_c, 0, 64, 115
1, 1450593, Control_c, 0, 64, 127
1, 1450651, Note_on_c, 0, 78, 85
1, 1450652, Control_c, 0, 64, 85
1, 1450654, Note_off_c, 0, 74, 66
1, 1450667, Control_c, 0, 64, 62
1, 1450681, Control_c, 0, 64, 0
1, 1450696, Control_c, 0, 64, 31
1, 1450699, Note_off_c, 0, 78, 68
1, 1450711, Control_c, 0, 64, 62
1, 1450726, Control_c, 0, 64, 74
1, 1450741, Control_c, 0, 64, 127
1, 1450756, Note_on_c, 0, 81, 99
1, 1450833, Note_off_c, 0, 50, 61
1, 1450841, Note_off_c, 0, 62, 58
1, 1450849, Note_on_c, 0, 90, 89
1, 1450851, Note_on_c, 0, 93, 83
1, 1450871, Note_off_c, 0, 81, 37
1, 1450899, Note_on_c, 0, 92, 18
1, 1450916, Note_off_c, 0, 93, 61
1, 1450920, Note_on_c, 0, 62, 94
1, 1450924, Note_on_c, 0, 50, 82
1, 1450926, Note_off_c, 0, 90, 63
1, 1450938, Note_on_c, 0, 81, 78
1, 1450946, Note_off_c, 0, 92, 43
1, 1451017, Note_on_c, 0, 90, 81
1, 1451018, Note_on_c, 0, 93, 78
1, 1451021, Note_off_c, 0, 62, 53
1, 1451027, Note_off_c, 0, 50, 61
1, 1451052, Note_off_c, 0, 93, 55
1, 1451069, Note_off_c, 0, 90, 63
1, 1451073, Note_off_c, 0, 81, 59
1, 1451112, Control_c, 0, 64, 88
1, 1451122, Note_on_c, 0, 60, 95
1, 1451125, Note_on_c, 0, 48, 89
1, 1451134, Control_c, 0, 64, 63
1, 1451149, Control_c, 0, 64, 0
1, 1451214, Note_on_c, 0, 72, 85
1, 1451239, Control_c, 0, 64, 14
1, 1451253, Control_c, 0, 64, 63
1, 1451268, Control_c, 0, 64, 72
1, 1451283, Control_c, 0, 64, 79
1, 1451299, Note_on_c, 0, 75, 88
1, 1451308, Note_off_c, 0, 72, 60
1, 1451367, Note_off_c, 0, 75, 63
1, 1451385, Note_on_c, 0, 79, 85
1, 1451401, Control_c, 0, 64, 79
1, 1451416, Control_c, 0, 64, 81
1, 1451430, Control_c, 0, 64, 84
1, 1451434, Note_off_c, 0, 79, 65
1, 1451445, Control_c, 0, 64, 90
1, 1451460, Control_c, 0, 64, 98
1, 1451475, Control_c, 0, 64, 112
1, 1451489, Note_on_c, 0, 84, 98
1, 1451490, Control_c, 0, 64, 127
1, 1451550, Note_off_c, 0, 60, 60
1, 1451556, Note_off_c, 0, 48, 58
1, 1451561, Note_on_c, 0, 91, 89
1, 1451567, Note_on_c, 0, 96, 76
1, 1451573, Note_on_c, 0, 87, 82
1, 1451584, Note_off_c, 0, 84, 57
1, 1451614, Note_on_c, 0, 93, 37
1, 1451619, Note_off_c, 0, 87, 63
1, 1451641, Note_off_c, 0, 96, 64
1, 1451647, Note_on_c, 0, 60, 95
1, 1451647, Note_off_c, 0, 93, 44
1, 1451650, Note_off_c, 0, 91, 56
1, 1451653, Note_on_c, 0, 48, 95
1, 1451656, Note_on_c, 0, 84, 92
1, 1451711, Note_off_c, 0, 60, 57
1, 1451732, Note_off_c, 0, 84, 56
1, 1451736, Note_on_c, 0, 91, 69
1, 1451741, Note_on_c, 0, 96, 73
1, 1451747, Note_on_c, 0, 87, 49
1, 1451750, Note_off_c, 0, 48, 61
1, 1451766, Note_off_c, 0, 91, 64
1, 1451772, Note_off_c, 0, 87, 56
1, 1451781, Note_off_c, 0, 96, 62
1, 1451811, Note_on_c, 0, 86, 83
1, 1451832, Control_c, 0, 64, 106
1, 1451847, Control_c, 0, 64, 85
1, 1451862, Control_c, 0, 64, 67
1, 1451867, Note_on_c, 0, 91, 83
1, 1451883, Control_c, 0, 64, 0
1, 1451895, Note_on_c, 0, 95, 72
1, 1451924, Note_on_c, 0, 55, 101
1, 1451927, Note_on_c, 0, 43, 92
1, 1451928, Note_on_c, 0, 98, 89
1, 1451942, Note_off_c, 0, 91, 61
1, 1451954, Note_off_c, 0, 95, 66
1, 1451987, Control_c, 0, 64, 65
1, 1451990, Poly_aftertouch_c, 0, 93, 0
1, 1452002, Control_c, 0, 64, 102
1, 1452017, Control_c, 0, 64, 127
1, 1452032, Note_on_c, 0, 95, 85
1, 1452047, Note_off_c, 0, 86, 61
1, 1452085, Note_off_c, 0, 98, 65
1, 1452111, Note_on_c, 0, 91, 86
1, 1452126, Note_off_c, 0, 95, 61
1, 1452196, Note_off_c, 0, 91, 60
1, 1452203, Note_on_c, 0, 86, 79
1, 1452225, Note_off_c, 0, 86, 70
1, 1452292, Note_on_c, 0, 86, 85
1, 1452368, Note_off_c, 0, 43, 61
1, 1452371, Note_off_c, 0, 55, 57
1, 1452376, Note_on_c, 0, 83, 82
1, 1452387, Control_c, 0, 64, 77
1, 1452397, Note_off_c, 0, 86, 57
1, 1452402, Control_c, 0, 64, 0
1, 1452455, Note_on_c, 0, 43, 78
1, 1452459, Note_on_c, 0, 55, 94
1, 1452461, Note_on_c, 0, 79, 80
1, 1452462, Control_c, 0, 64, 23
1, 1452477, Control_c, 0, 64, 71
1, 1452491, Note_off_c, 0, 83, 53
1, 1452492, Control_c, 0, 64, 127
1, 1452500, Note_off_c, 0, 43, 62
1, 1452500, Note_off_c, 0, 55, 65
1, 1452544, Note_on_c, 0, 74, 87
1, 1452546, Note_off_c, 0, 79, 63
1, 1452600, Note_off_c, 0, 74, 64
1, 1452610, Control_c, 0, 64, 112
1, 1452632, Control_c, 0, 64, 66
1, 1452646, Control_c, 0, 64, 0
1, 1452699, Note_on_c, 0, 49, 90
1, 1452701, Note_on_c, 0, 61, 94
1, 1452720, Control_c, 0, 64, 31
1, 1452735, Control_c, 0, 64, 58
1, 1452750, Control_c, 0, 64, 62
1, 1452764, Control_c, 0, 64, 58
1, 1452779, Control_c, 0, 64, 0
1, 1452807, Note_on_c, 0, 65, 79
1, 1452868, Control_c, 0, 64, 47
1, 1452882, Control_c, 0, 64, 58
1, 1452890, Note_on_c, 0, 70, 85
1, 1452897, Control_c, 0, 64, 49
1, 1452899, Note_off_c, 0, 65, 59
1, 1452912, Control_c, 0, 64, 0
1, 1452967, Note_off_c, 0, 70, 65
1, 1452980, Note_on_c, 0, 73, 82
1, 1453018, Note_off_c, 0, 73, 66
1, 1453045, Control_c, 0, 64, 80
1, 1453060, Control_c, 0, 64, 127
1, 1453075, Note_on_c, 0, 77, 94
1, 1453155, Note_on_c, 0, 85, 84
1, 1453162, Note_on_c, 0, 89, 71
1, 1453170, Note_off_c, 0, 77, 58
1, 1453174, Note_off_c, 0, 61, 62
1, 1453188, Note_off_c, 0, 49, 57
1, 1453190, Note_on_c, 0, 87, 45
1, 1453215, Note_off_c, 0, 87, 57
1, 1453218, Note_off_c, 0, 89, 65
1, 1453225, Note_off_c, 0, 85, 64
1, 1453248, Note_on_c, 0, 49, 78
1, 1453251, Note_on_c, 0, 61, 87
1, 1453251, Note_on_c, 0, 77, 83
1, 1453330, Note_on_c, 0, 85, 84
1, 1453335, Note_on_c, 0, 89, 73
1, 1453352, Note_off_c, 0, 49, 60
1, 1453360, Note_off_c, 0, 61, 58
1, 1453360, Note_off_c, 0, 77, 57
1, 1453362, Note_off_c, 0, 89, 67
1, 1453379, Control_c, 0, 64, 93
1, 1453395, Note_off_c, 0, 85, 64
1, 1453395, Control_c, 0, 64, 62
1, 1453410, Control_c, 0, 64, 0
1, 1453447, Note_on_c, 0, 48, 89
1, 1453449, Note_on_c, 0, 60, 95
1, 1453524, Note_on_c, 0, 67, 86
1, 1453610, Note_off_c, 0, 67, 56
1, 1453617, Note_on_c, 0, 72, 86
1, 1453699, Note_on_c, 0, 76, 83
1, 1453699, Note_off_c, 0, 72, 59
1, 1453744, Note_off_c, 0, 76, 67
1, 1453780, Control_c, 0, 64, 82
1, 1453795, Control_c, 0, 64, 127
1, 1453799, Note_on_c, 0, 79, 96
1, 1453885, Note_off_c, 0, 79, 53
1, 1453886, Note_on_c, 0, 88, 88
1, 1453890, Note_on_c, 0, 91, 83
1, 1453901, Note_off_c, 0, 48, 60
1, 1453903, Note_off_c, 0, 60, 57
1, 1453952, Note_off_c, 0, 91, 59
1, 1453954, Note_off_c, 0, 88, 62
1, 1453971, Note_on_c, 0, 79, 87
1, 1453974, Note_on_c, 0, 48, 84
1, 1453977, Note_on_c, 0, 60, 93
1, 1454035, Note_off_c, 0, 60, 61
1, 1454046, Note_off_c, 0, 48, 61
1, 1454055, Note_on_c, 0, 88, 87
1, 1454057, Note_on_c, 0, 91, 78
1, 1454088, Note_off_c, 0, 79, 49
1, 1454103, Note_off_c, 0, 88, 64
1, 1454106, Note_off_c, 0, 91, 58
1, 1454144, Control_c, 0, 64, 83
1, 1454159, Control_c, 0, 64, 0
1, 1454178, Note_on_c, 0, 46, 98
1, 1454178, Note_on_c, 0, 58, 97
1, 1454258, Note_on_c, 0, 70, 88
1, 1454341, Note_on_c, 0, 73, 85
1, 1454349, Note_off_c, 0, 70, 62
1, 1454425, Note_on_c, 0, 77, 78
1, 1454428, Note_off_c, 0, 73, 60
1, 1454479, Note_off_c, 0, 77, 62
1, 1454485, Control_c, 0, 64, 43
1, 1454500, Control_c, 0, 64, 86
1, 1454515, Control_c, 0, 64, 127
1, 1454536, Note_on_c, 0, 82, 89
1, 1454610, Note_on_c, 0, 89, 73
1, 1454612, Note_on_c, 0, 94, 74
1, 1454614, Note_off_c, 0, 82, 65
1, 1454616, Note_on_c, 0, 85, 69
1, 1454617, Note_off_c, 0, 58, 61
1, 1454626, Note_off_c, 0, 46, 58
1, 1454648, Note_off_c, 0, 85, 55
1, 1454660, Note_off_c, 0, 94, 66
1, 1454673, Note_off_c, 0, 89, 65
1, 1454682, Note_on_c, 0, 82, 84
1, 1454690, Note_on_c, 0, 46, 91
1, 1454692, Note_on_c, 0, 58, 96
1, 1454747, Note_on_c, 0, 85, 37
1, 1454749, Note_on_c, 0, 89, 67
1, 1454755, Note_off_c, 0, 58, 61
1, 1454756, Note_on_c, 0, 94, 81
1, 1454760, Note_off_c, 0, 82, 63
1, 1454761, Note_off_c, 0, 46, 62
1, 1454774, Note_off_c, 0, 85, 60
1, 1454782, Note_off_c, 0, 89, 64
1, 1454816, Note_off_c, 0, 94, 66
1, 1454859, Note_on_c, 0, 84, 78
1, 1454931, Note_on_c, 0, 89, 84
1, 1454938, Control_c, 0, 64, 73
1, 1454952, Control_c, 0, 64, 0
1, 1454954, Note_on_c, 0, 93, 67
1, 1454959, Note_on_c, 0, 41, 88
1, 1454960, Note_on_c, 0, 53, 104
1, 1454979, Note_on_c, 0, 96, 93
1, 1454989, Note_off_c, 0, 89, 64
1, 1455003, Note_off_c, 0, 93, 59
1, 1455041, Control_c, 0, 64, 54
1, 1455045, Note_off_c, 0, 84, 60
1, 1455056, Control_c, 0, 64, 76
1, 1455066, Note_on_c, 0, 93, 74
1, 1455070, Control_c, 0, 64, 127
1, 1455099, Note_off_c, 0, 96, 60
1, 1455137, Note_on_c, 0, 89, 80
1, 1455173, Note_off_c, 0, 93, 59
1, 1455211, Note_off_c, 0, 89, 66
1, 1455220, Note_on_c, 0, 84, 75
1, 1455241, Note_off_c, 0, 84, 70
1, 1455304, Note_on_c, 0, 84, 87
1, 1455363, Note_off_c, 0, 53, 61
1, 1455370, Note_off_c, 0, 41, 52
1, 1455389, Note_on_c, 0, 81, 85
1, 1455424, Note_off_c, 0, 84, 58
1, 1455463, Note_on_c, 0, 77, 79
1, 1455465, Note_on_c, 0, 41, 77
1, 1455467, Note_on_c, 0, 53, 87
1, 1455489, Note_off_c, 0, 41, 66
1, 1455504, Note_off_c, 0, 81, 55
1, 1455507, Note_off_c, 0, 53, 68
1, 1455541, Note_off_c, 0, 77, 63
1, 1455549, Note_on_c, 0, 72, 78
1, 1455584, Note_off_c, 0, 72, 62
1, 1455604, Control_c, 0, 64, 88
1, 1455626, Control_c, 0, 64, 39
1, 1455641, Control_c, 0, 64, 0
1, 1455669, Note_on_c, 0, 53, 74
1, 1455671, Note_on_c, 0, 56, 74
1, 1455671, Note_on_c, 0, 59, 81
1, 1455671, Note_on_c, 0, 47, 73
1, 1455731, Control_c, 0, 64, 29
1, 1455746, Control_c, 0, 64, 18
1, 1455752, Note_on_c, 0, 62, 83
1, 1455761, Control_c, 0, 64, 0
1, 1455835, Note_off_c, 0, 62, 54
1, 1455841, Note_on_c, 0, 65, 83
1, 1455915, Note_off_c, 0, 65, 62
1, 1455919, Note_on_c, 0, 68, 81
1, 1455961, Note_off_c, 0, 68, 68
1, 1456012, Control_c, 0, 64, 65
1, 1456027, Control_c, 0, 64, 127
1, 1456032, Note_on_c, 0, 74, 89
1, 1456106, Note_off_c, 0, 74, 60
1, 1456119, Note_on_c, 0, 77, 81
1, 1456122, Note_on_c, 0, 86, 78
1, 1456123, Note_off_c, 0, 59, 60
1, 1456124, Note_on_c, 0, 80, 75
1, 1456125, Note_off_c, 0, 47, 58
1, 1456130, Note_off_c, 0, 56, 58
1, 1456136, Note_off_c, 0, 53, 58
1, 1456178, Note_off_c, 0, 86, 63
1, 1456202, Note_off_c, 0, 80, 56
1, 1456204, Note_off_c, 0, 77, 41
1, 1456205, Note_on_c, 0, 74, 80
1, 1456208, Note_on_c, 0, 59, 81
1, 1456209, Note_on_c, 0, 56, 70
1, 1456217, Note_on_c, 0, 47, 68
1, 1456222, Note_on_c, 0, 53, 57
1, 1456261, Note_off_c, 0, 53, 61
1, 1456280, Note_off_c, 0, 59, 55
1, 1456289, Note_on_c, 0, 80, 83
1, 1456289, Note_off_c, 0, 56, 58
1, 1456296, Note_off_c, 0, 47, 58
1, 1456300, Note_on_c, 0, 77, 77
1, 1456302, Note_on_c, 0, 86, 66
1, 1456309, Note_off_c, 0, 74, 56
1, 1456323, Note_off_c, 0, 86, 65
1, 1456331, Note_off_c, 0, 77, 60
1, 1456340, Note_off_c, 0, 80, 64
1, 1456353, Control_c, 0, 64, 86
1, 1456375, Control_c, 0, 64, 0
1, 1456401, Note_on_c, 0, 59, 85
1, 1456403, Note_on_c, 0, 53, 75
1, 1456407, Note_on_c, 0, 47, 81
1, 1456408, Note_on_c, 0, 55, 79
1, 1456487, Note_on_c, 0, 62, 89
1, 1456568, Note_off_c, 0, 62, 60
1, 1456571, Note_on_c, 0, 65, 87
1, 1456652, Note_on_c, 0, 67, 84
1, 1456655, Note_off_c, 0, 65, 63
1, 1456695, Note_off_c, 0, 67, 64
1, 1456717, Control_c, 0, 64, 73
1, 1456731, Control_c, 0, 64, 127
1, 1456762, Note_on_c, 0, 74, 91
1, 1456839, Note_off_c, 0, 74, 60
1, 1456841, Note_off_c, 0, 47, 58
1, 1456841, Note_off_c, 0, 53, 53
1, 1456848, Note_on_c, 0, 77, 74
1, 1456848, Note_on_c, 0, 79, 79
1, 1456848, Note_off_c, 0, 59, 58
1, 1456849, Note_off_c, 0, 55, 55
1, 1456870, Note_on_c, 0, 86, 51
1, 1456896, Note_off_c, 0, 86, 61
1, 1456906, Note_off_c, 0, 79, 59
1, 1456907, Note_off_c, 0, 77, 60
1, 1456925, Note_on_c, 0, 74, 81
1, 1456928, Note_on_c, 0, 53, 62
1, 1456928, Note_on_c, 0, 59, 76
1, 1456929, Note_on_c, 0, 47, 75
1, 1456938, Note_on_c, 0, 55, 53
1, 1456995, Note_on_c, 0, 86, 69
1, 1457001, Note_on_c, 0, 79, 75
1, 1457005, Note_on_c, 0, 77, 74
1, 1457005, Note_off_c, 0, 74, 63
1, 1457017, Note_off_c, 0, 59, 55
1, 1457021, Note_off_c, 0, 47, 61
1, 1457023, Note_off_c, 0, 86, 55
1, 1457030, Note_off_c, 0, 77, 66
1, 1457031, Note_off_c, 0, 79, 63
1, 1457034, Note_off_c, 0, 53, 56
1, 1457042, Control_c, 0, 64, 105
1, 1457046, Note_off_c, 0, 55, 37
1, 1457057, Control_c, 0, 64, 68
1, 1457072, Control_c, 0, 64, 26
1, 1457087, Control_c, 0, 64, 0
1, 1457117, Note_on_c, 0, 48, 86
1, 1457125, Note_on_c, 0, 75, 86
1, 1457195, Note_on_c, 0, 78, 48
1, 1457213, Note_off_c, 0, 75, 67
1, 1457221, Note_on_c, 0, 87, 55
1, 1457221, Note_off_c, 0, 48, 59
1, 1457223, Note_on_c, 0, 79, 62
1, 1457223, Note_on_c, 0, 84, 51
1, 1457223, Note_off_c, 0, 78, 56
1, 1457241, Note_off_c, 0, 87, 62
1, 1457242, Note_on_c, 0, 83, 36
1, 1457247, Note_off_c, 0, 84, 62
1, 1457250, Note_off_c, 0, 79, 63
1, 1457272, Note_off_c, 0, 83, 45
1, 1457285, Note_on_c, 0, 51, 79
1, 1457287, Note_on_c, 0, 60, 83
1, 1457287, Control_c, 0, 64, 57
1, 1457300, Note_on_c, 0, 55, 55
1, 1457302, Control_c, 0, 64, 75
1, 1457305, Note_on_c, 0, 87, 81
1, 1457311, Note_on_c, 0, 79, 66
1, 1457317, Control_c, 0, 64, 87
1, 1457318, Note_on_c, 0, 84, 78
1, 1457329, Note_off_c, 0, 55, 66
1, 1457332, Control_c, 0, 64, 88
1, 1457335, Note_off_c, 0, 60, 64
1, 1457347, Control_c, 0, 64, 84
1, 1457361, Control_c, 0, 64, 77
1, 1457367, Note_off_c, 0, 51, 63
1, 1457371, Note_on_c, 0, 75, 81
1, 1457376, Note_off_c, 0, 79, 61
1, 1457376, Control_c, 0, 64, 66
1, 1457383, Note_off_c, 0, 87, 61
1, 1457390, Note_off_c, 0, 84, 61
1, 1457391, Control_c, 0, 64, 48
1, 1457406, Control_c, 0, 64, 0
1, 1457418, Note_off_c, 0, 75, 67
1, 1457451, Control_c, 0, 64, 22
1, 1457466, Control_c, 0, 64, 37
1, 1457472, Note_on_c, 0, 41, 78
1, 1457480, Control_c, 0, 64, 36
1, 1457482, Note_on_c, 0, 74, 85
1, 1457495, Control_c, 0, 64, 36
1, 1457511, Note_off_c, 0, 41, 66
1, 1457525, Control_c, 0, 64, 32
1, 1457540, Control_c, 0, 64, 26
1, 1457552, Note_on_c, 0, 80, 75
1, 1457554, Control_c, 0, 64, 21
1, 1457558, Note_on_c, 0, 77, 78
1, 1457563, Note_on_c, 0, 86, 66
1, 1457564, Note_off_c, 0, 74, 64
1, 1457569, Control_c, 0, 64, 19
1, 1457585, Note_off_c, 0, 77, 62
1, 1457590, Note_off_c, 0, 86, 66
1, 1457597, Note_off_c, 0, 80, 62
1, 1457599, Control_c, 0, 64, 23
1, 1457614, Control_c, 0, 64, 30
1, 1457628, Control_c, 0, 64, 34
1, 1457643, Control_c, 0, 64, 37
1, 1457648, Note_on_c, 0, 80, 70
1, 1457651, Note_on_c, 0, 77, 73
1, 1457651, Note_on_c, 0, 86, 79
1, 1457653, Note_on_c, 0, 56, 65
1, 1457654, Note_on_c, 0, 53, 72
1, 1457655, Note_on_c, 0, 62, 68
1, 1457658, Control_c, 0, 64, 38
1, 1457672, Control_c, 0, 64, 37
1, 1457681, Note_off_c, 0, 62, 66
1, 1457687, Note_off_c, 0, 56, 61
1, 1457687, Control_c, 0, 64, 35
1, 1457702, Control_c, 0, 64, 34
1, 1457707, Note_off_c, 0, 77, 62
1, 1457709, Note_off_c, 0, 53, 65
1, 1457710, Note_off_c, 0, 86, 60
1, 1457719, Note_on_c, 0, 74, 76
1, 1457732, Control_c, 0, 64, 33
1, 1457733, Note_off_c, 0, 80, 63
1, 1457746, Control_c, 0, 64, 34
1, 1457760, Note_off_c, 0, 74, 59
1, 1457776, Control_c, 0, 64, 34
1, 1457817, Note_on_c, 0, 72, 78
1, 1457823, Note_on_c, 0, 43, 80
1, 1457835, Control_c, 0, 64, 34
1, 1457872, Control_c, 0, 64, 35
1, 1457880, Note_off_c, 0, 43, 62
1, 1457887, Control_c, 0, 64, 36
1, 1457900, Note_on_c, 0, 75, 73
1, 1457903, Note_on_c, 0, 79, 66
1, 1457907, Note_on_c, 0, 84, 72
1, 1457911, Note_off_c, 0, 72, 62
1, 1457917, Control_c, 0, 64, 37
1, 1457936, Note_off_c, 0, 84, 65
1, 1457937, Note_off_c, 0, 75, 62
1, 1457940, Note_off_c, 0, 79, 62
1, 1457946, Control_c, 0, 64, 37
1, 1457961, Control_c, 0, 64, 36
1, 1457976, Control_c, 0, 64, 35
1, 1457991, Control_c, 0, 64, 34
1, 1457994, Note_on_c, 0, 55, 76
1, 1457994, Note_on_c, 0, 60, 75
1, 1457995, Note_on_c, 0, 75, 62
1, 1457996, Note_on_c, 0, 84, 71
1, 1458006, Note_on_c, 0, 79, 63
1, 1458021, Note_on_c, 0, 50, 59
1, 1458026, Note_off_c, 0, 55, 66
1, 1458031, Note_off_c, 0, 60, 57
1, 1458035, Control_c, 0, 64, 35
1, 1458051, Control_c, 0, 64, 36
1, 1458059, Note_off_c, 0, 50, 64
1, 1458059, Note_off_c, 0, 84, 64
1, 1458072, Note_off_c, 0, 75, 65
1, 1458073, Note_off_c, 0, 79, 63
1, 1458076, Note_on_c, 0, 72, 62
1, 1458081, Control_c, 0, 64, 36
1, 1458094, Note_off_c, 0, 72, 64
1, 1458110, Control_c, 0, 64, 34
1, 1458125, Control_c, 0, 64, 31
1, 1458140, Control_c, 0, 64, 27
1, 1458155, Control_c, 0, 64, 26
1, 1458157, Note_on_c, 0, 43, 80
1, 1458160, Note_on_c, 0, 71, 86
1, 1458184, Control_c, 0, 64, 28
1, 1458199, Control_c, 0, 64, 29
1, 1458211, Note_off_c, 0, 43, 63
1, 1458214, Control_c, 0, 64, 30
1, 1458229, Control_c, 0, 64, 29
1, 1458236, Note_on_c, 0, 74, 72
1, 1458238, Note_on_c, 0, 79, 71
1, 1458243, Note_on_c, 0, 83, 66
1, 1458244, Control_c, 0, 64, 28
1, 1458244, Note_off_c, 0, 71, 60
1, 1458259, Control_c, 0, 64, 20
1, 1458267, Note_off_c, 0, 74, 63
1, 1458271, Note_off_c, 0, 79, 60
1, 1458272, Note_off_c, 0, 83, 62
1, 1458274, Control_c, 0, 64, 0
1, 1458326, Note_on_c, 0, 50, 71
1, 1458328, Note_on_c, 0, 55, 61
1, 1458332, Note_on_c, 0, 59, 68
1, 1458334, Note_on_c, 0, 74, 69
1, 1458336, Note_on_c, 0, 83, 62
1, 1458342, Note_on_c, 0, 79, 62
1, 1458349, Note_off_c, 0, 55, 63
1, 1458369, Note_off_c, 0, 50, 61
1, 1458370, Note_off_c, 0, 59, 57
1, 1458381, Note_off_c, 0, 83, 59
1, 1458388, Note_off_c, 0, 74, 66
1, 1458399, Note_off_c, 0, 79, 62
1, 1458402, Note_on_c, 0, 71, 78
1, 1458448, Note_off_c, 0, 71, 61
1, 1458501, Note_on_c, 0, 59, 87
1, 1458503, Note_on_c, 0, 47, 81
1, 1458503, Note_on_c, 0, 56, 81
1, 1458506, Note_on_c, 0, 53, 81
1, 1458583, Note_on_c, 0, 62, 79
1, 1458671, Note_on_c, 0, 65, 83
1, 1458674, Note_off_c, 0, 62, 61
1, 1458753, Note_off_c, 0, 65, 62
1, 1458756, Note_on_c, 0, 68, 81
1, 1458795, Note_off_c, 0, 68, 68
1, 1458828, Control_c, 0, 64, 127
1, 1458869, Note_on_c, 0, 74, 90
1, 1458951, Note_off_c, 0, 47, 60
1, 1458953, Note_off_c, 0, 53, 59
1, 1458953, Note_off_c, 0, 56, 58
1, 1458956, Note_off_c, 0, 59, 59
1, 1458966, Note_on_c, 0, 80, 72
1, 1458967, Note_off_c, 0, 74, 59
1, 1458968, Note_on_c, 0, 86, 64
1, 1458974, Note_on_c, 0, 77, 63
1, 1459003, Note_on_c, 0, 82, 38
1, 1459022, Note_off_c, 0, 86, 64
1, 1459023, Note_off_c, 0, 77, 56
1, 1459033, Note_off_c, 0, 82, 57
1, 1459043, Note_off_c, 0, 80, 63
1, 1459043, Note_on_c, 0, 59, 70
1, 1459045, Note_on_c, 0, 56, 65
1, 1459054, Note_on_c, 0, 47, 63
1, 1459055, Note_on_c, 0, 74, 78
1, 1459058, Note_on_c, 0, 53, 59
1, 1459100, Note_off_c, 0, 53, 60
1, 1459111, Note_off_c, 0, 47, 47
1, 1459111, Note_off_c, 0, 59, 57
1, 1459111, Note_off_c, 0, 56, 57
1, 1459132, Note_on_c, 0, 77, 70
1, 1459134, Note_on_c, 0, 80, 69
1, 1459141, Note_on_c, 0, 86, 59
1, 1459162, Note_off_c, 0, 77, 64
1, 1459162, Note_off_c, 0, 86, 62
1, 1459167, Note_off_c, 0, 80, 61
1, 1459177, Note_off_c, 0, 74, 61
1, 1459200, Control_c, 0, 64, 94
1, 1459215, Control_c, 0, 64, 47
1, 1459228, Note_on_c, 0, 59, 88
1, 1459230, Control_c, 0, 64, 0
1, 1459233, Note_on_c, 0, 53, 74
1, 1459233, Note_on_c, 0, 47, 79
1, 1459236, Note_on_c, 0, 55, 73
1, 1459311, Note_on_c, 0, 62, 86
1, 1459399, Note_off_c, 0, 62, 57
1, 1459400, Note_on_c, 0, 65, 87
1, 1459483, Note_on_c, 0, 67, 83
1, 1459486, Note_off_c, 0, 65, 61
1, 1459528, Note_off_c, 0, 67, 64
1, 1459548, Control_c, 0, 64, 63
1, 1459563, Control_c, 0, 64, 127
1, 1459593, Note_on_c, 0, 74, 91
1, 1459661, Note_off_c, 0, 53, 60
1, 1459663, Note_off_c, 0, 47, 61
1, 1459664, Note_off_c, 0, 55, 53
1, 1459666, Note_off_c, 0, 59, 58
1, 1459666, Note_off_c, 0, 74, 59
1, 1459676, Note_on_c, 0, 77, 76
1, 1459676, Note_on_c, 0, 79, 78
1, 1459695, Note_on_c, 0, 86, 53
1, 1459731, Note_off_c, 0, 86, 64
1, 1459734, Note_off_c, 0, 77, 58
1, 1459735, Note_off_c, 0, 79, 59
1, 1459752, Note_on_c, 0, 53, 60
1, 1459755, Note_on_c, 0, 74, 80
1, 1459757, Note_on_c, 0, 47, 75
1, 1459758, Note_on_c, 0, 59, 68
1, 1459771, Note_on_c, 0, 55, 51
1, 1459821, Note_on_c, 0, 86, 58
1, 1459824, Note_off_c, 0, 55, 45
1, 1459833, Note_off_c, 0, 74, 63
1, 1459837, Note_on_c, 0, 79, 59
1, 1459837, Note_off_c, 0, 53, 55
1, 1459841, Note_off_c, 0, 47, 61
1, 1459841, Note_off_c, 0, 86, 62
1, 1459848, Note_off_c, 0, 59, 56
1, 1459849, Note_on_c, 0, 77, 34
1, 1459856, Note_off_c, 0, 79, 63
1, 1459883, Note_off_c, 0, 77, 45
1, 1459889, Control_c, 0, 64, 111
1, 1459904, Control_c, 0, 64, 72
1, 1459919, Control_c, 0, 64, 54
1, 1459934, Control_c, 0, 64, 0
1, 1459938, Note_on_c, 0, 48, 83
1, 1459938, Note_on_c, 0, 75, 85
1, 1459979, Control_c, 0, 64, 23
1, 1459994, Control_c, 0, 64, 29
1, 1460009, Control_c, 0, 64, 33
1, 1460016, Note_on_c, 0, 84, 73
1, 1460023, Note_on_c, 0, 87, 63
1, 1460023, Control_c, 0, 64, 35
1, 1460026, Note_on_c, 0, 79, 62
1, 1460028, Note_off_c, 0, 75, 62
1, 1460038, Control_c, 0, 64, 36
1, 1460043, Note_off_c, 0, 48, 59
1, 1460050, Note_off_c, 0, 87, 66
1, 1460061, Note_off_c, 0, 79, 62
1, 1460062, Note_off_c, 0, 84, 64
1, 1460067, Control_c, 0, 64, 35
1, 1460082, Control_c, 0, 64, 34
1, 1460097, Control_c, 0, 64, 33
1, 1460100, Note_on_c, 0, 60, 76
1, 1460105, Note_on_c, 0, 51, 74
1, 1460119, Control_c, 0, 64, 31
1, 1460121, Note_on_c, 0, 87, 70
1, 1460124, Note_on_c, 0, 55, 58
1, 1460131, Note_on_c, 0, 84, 60
1, 1460134, Control_c, 0, 64, 29
1, 1460151, Note_off_c, 0, 55, 66
1, 1460152, Note_on_c, 0, 79, 19
1, 1460157, Note_off_c, 0, 60, 63
1, 1460164, Control_c, 0, 64, 30
1, 1460178, Control_c, 0, 64, 29
1, 1460182, Note_off_c, 0, 51, 63
1, 1460191, Note_off_c, 0, 79, 53
1, 1460193, Control_c, 0, 64, 28
1, 1460195, Note_off_c, 0, 87, 60
1, 1460208, Control_c, 0, 64, 20
1, 1460208, Note_on_c, 0, 75, 53
1, 1460212, Note_off_c, 0, 84, 61
1, 1460223, Control_c, 0, 64, 0
1, 1460232, Note_off_c, 0, 75, 65
1, 1460280, Note_on_c, 0, 74, 80
1, 1460286, Note_on_c, 0, 41, 77
1, 1460311, Note_off_c, 0, 41, 68
1, 1460357, Note_on_c, 0, 80, 67
1, 1460364, Note_off_c, 0, 74, 64
1, 1460368, Note_on_c, 0, 77, 69
1, 1460372, Note_on_c, 0, 86, 59
1, 1460389, Note_off_c, 0, 80, 64
1, 1460393, Note_off_c, 0, 77, 65
1, 1460395, Note_off_c, 0, 86, 63
1, 1460462, Note_on_c, 0, 53, 62
1, 1460462, Note_on_c, 0, 62, 63
1, 1460463, Note_on_c, 0, 56, 55
1, 1460464, Note_on_c, 0, 77, 64
1, 1460468, Note_on_c, 0, 80, 67
1, 1460479, Note_on_c, 0, 86, 53
1, 1460491, Note_off_c, 0, 62, 64
1, 1460494, Note_off_c, 0, 56, 65
1, 1460501, Note_off_c, 0, 86, 58
1, 1460506, Note_off_c, 0, 77, 59
1, 1460512, Note_off_c, 0, 53, 63
1, 1460524, Note_on_c, 0, 74, 67
1, 1460530, Note_off_c, 0, 80, 63
1, 1460551, Note_off_c, 0, 74, 69
1, 1460637, Note_on_c, 0, 67, 70
1, 1460646, Note_on_c, 0, 43, 43
1, 1460679, Note_off_c, 0, 43, 48
1, 1460697, Control_c, 0, 67, 17
1, 1460709, Note_on_c, 0, 79, 51
1, 1460710, Note_off_c, 0, 67, 55
1, 1460711, Note_on_c, 0, 75, 56
1, 1460712, Control_c, 0, 67, 28
1, 1460718, Note_on_c, 0, 72, 57
1, 1460727, Control_c, 0, 67, 36
1, 1460736, Note_off_c, 0, 75, 66
1, 1460739, Note_off_c, 0, 72, 63
1, 1460742, Control_c, 0, 67, 44
1, 1460757, Control_c, 0, 67, 51
1, 1460772, Control_c, 0, 67, 59
1, 1460780, Note_off_c, 0, 79, 0
1, 1460787, Control_c, 0, 67, 69
1, 1460790, Note_on_c, 0, 79, 46
1, 1460793, Note_on_c, 0, 60, 47
1, 1460796, Note_on_c, 0, 55, 59
1, 1460800, Note_on_c, 0, 75, 63
1, 1460801, Control_c, 0, 67, 78
1, 1460804, Note_on_c, 0, 63, 60
1, 1460807, Note_on_c, 0, 72, 59
1, 1460816, Control_c, 0, 67, 84
1, 1460819, Note_off_c, 0, 60, 62
1, 1460831, Note_off_c, 0, 63, 66
1, 1460831, Control_c, 0, 67, 86
1, 1460833, Note_off_c, 0, 55, 66
1, 1460840, Note_off_c, 0, 72, 64
1, 1460846, Control_c, 0, 67, 88
1, 1460854, Note_off_c, 0, 79, 61
1, 1460868, Control_c, 0, 67, 92
1, 1460873, Note_off_c, 0, 75, 65
1, 1460883, Control_c, 0, 67, 101
1, 1460887, Note_on_c, 0, 67, 58
1, 1460897, Control_c, 0, 67, 114
1, 1460912, Control_c, 0, 67, 127
1, 1460918, Note_off_c, 0, 67, 62
1, 1460981, Note_on_c, 0, 43, 63
1, 1460990, Note_on_c, 0, 67, 63
1, 1461010, Note_off_c, 0, 43, 64
1, 1461058, Note_off_c, 0, 67, 60
1, 1461061, Note_on_c, 0, 71, 54
1, 1461065, Note_on_c, 0, 74, 51
1, 1461091, Note_off_c, 0, 74, 60
1, 1461095, Note_off_c, 0, 71, 64
1, 1461143, Note_on_c, 0, 79, 10
1, 1461159, Note_on_c, 0, 62, 56
1, 1461168, Note_on_c, 0, 55, 51
1, 1461171, Note_on_c, 0, 65, 42
1, 1461181, Note_on_c, 0, 74, 54
1, 1461183, Note_off_c, 0, 62, 61
1, 1461204, Note_off_c, 0, 65, 57
1, 1461213, Note_on_c, 0, 71, 24
1, 1461216, Note_off_c, 0, 79, 56
1, 1461231, Note_off_c, 0, 55, 62
1, 1461246, Note_off_c, 0, 71, 55
1, 1461257, Note_off_c, 0, 74, 63
1, 1461263, Note_on_c, 0, 67, 58
1, 1461346, Note_off_c, 0, 67, 58
1, 1461478, Note_on_c, 0, 76, 67
1, 1461520, Control_c, 0, 64, 33
1, 1461535, Control_c, 0, 64, 47
1, 1461550, Note_on_c, 0, 48, 37
1, 1461550, Control_c, 0, 64, 58
1, 1461559, Poly_aftertouch_c, 0, 67, 127
1, 1461563, Note_on_c, 0, 64, 19
1, 1461565, Control_c, 0, 64, 63
1, 1461579, Control_c, 0, 64, 66
1, 1461594, Control_c, 0, 64, 69
1, 1461617, Control_c, 0, 64, 75
1, 1461632, Control_c, 0, 64, 86
1, 1461646, Control_c, 0, 64, 127
1, 1461845, Note_on_c, 0, 55, 40
1, 1461865, Note_off_c, 0, 48, 50
1, 1461946, Note_off_c, 0, 55, 59
1, 1461993, Note_on_c, 0, 52, 39
1, 1462074, Note_off_c, 0, 52, 57
1, 1462099, Note_on_c, 0, 55, 41
1, 1462156, Note_off_c, 0, 55, 61
1, 1462211, Note_on_c, 0, 60, 41
1, 1462268, Note_off_c, 0, 76, 60
1, 1462301, Note_off_c, 0, 60, 55
1, 1462326, Note_on_c, 0, 55, 40
1, 1462401, Note_off_c, 0, 55, 55
1, 1462413, Note_on_c, 0, 76, 73
1, 1462437, Note_on_c, 0, 52, 45
1, 1462489, Note_off_c, 0, 64, 42
1, 1462527, Note_off_c, 0, 52, 60
1, 1462557, Note_on_c, 0, 55, 42
1, 1462601, Poly_aftertouch_c, 0, 67, 0
1, 1462622, Note_off_c, 0, 76, 61
1, 1462736, Control_c, 0, 64, 100
1, 1462739, Note_on_c, 0, 47, 34
1, 1462751, Control_c, 0, 64, 87
1, 1462766, Control_c, 0, 64, 78
1, 1462781, Control_c, 0, 64, 68
1, 1462793, Note_on_c, 0, 76, 65
1, 1462795, Control_c, 0, 64, 56
1, 1462810, Note_off_c, 0, 55, 42
1, 1462810, Control_c, 0, 64, 0
1, 1462837, Note_on_c, 0, 65, 31
1, 1462871, Note_on_c, 0, 67, 39
1, 1462885, Control_c, 0, 64, 38
1, 1462900, Control_c, 0, 64, 62
1, 1462915, Control_c, 0, 64, 69
1, 1462930, Control_c, 0, 64, 77
1, 1462945, Control_c, 0, 64, 86
1, 1462959, Control_c, 0, 64, 89
1, 1462974, Control_c, 0, 64, 93
1, 1462989, Control_c, 0, 64, 99
1, 1463004, Control_c, 0, 64, 107
1, 1463007, Note_on_c, 0, 55, 48
1, 1463018, Control_c, 0, 64, 118
1, 1463019, Note_off_c, 0, 47, 43
1, 1463033, Control_c, 0, 64, 127
1, 1463112, Note_off_c, 0, 55, 61
1, 1463148, Note_on_c, 0, 53, 42
1, 1463216, Note_off_c, 0, 53, 63
1, 1463254, Note_on_c, 0, 55, 48
1, 1463307, Note_off_c, 0, 55, 61
1, 1463350, Note_on_c, 0, 74, 70
1, 1463362, Note_off_c, 0, 76, 60
1, 1463368, Note_on_c, 0, 62, 51
1, 1463439, Note_off_c, 0, 62, 50
1, 1463443, Note_off_c, 0, 74, 62
1, 1463467, Note_on_c, 0, 55, 41
1, 1463541, Note_off_c, 0, 55, 60
1, 1463552, Note_on_c, 0, 74, 69
1, 1463564, Note_on_c, 0, 53, 44
1, 1463612, Note_off_c, 0, 53, 62
1, 1463660, Note_off_c, 0, 65, 40
1, 1463666, Note_on_c, 0, 55, 50
1, 1463682, Note_off_c, 0, 74, 60
1, 1463696, Note_off_c, 0, 67, 37
1, 1463708, Control_c, 0, 64, 118
1, 1463723, Control_c, 0, 64, 111
1, 1463738, Control_c, 0, 64, 107
1, 1463753, Control_c, 0, 64, 105
1, 1463767, Control_c, 0, 64, 102
1, 1463779, Note_off_c, 0, 55, 54
1, 1463782, Control_c, 0, 64, 95
1, 1463790, Note_on_c, 0, 74, 68
1, 1463797, Control_c, 0, 64, 79
1, 1463812, Control_c, 0, 64, 64
1, 1463814, Note_on_c, 0, 48, 46
1, 1463827, Control_c, 0, 64, 0
1, 1463830, Note_on_c, 0, 67, 34
1, 1463833, Note_on_c, 0, 64, 42
1, 1463909, Control_c, 0, 64, 58
1, 1463923, Control_c, 0, 64, 66
1, 1463925, Note_off_c, 0, 48, 59
1, 1463931, Note_on_c, 0, 55, 48
1, 1463938, Control_c, 0, 64, 72
1, 1463953, Control_c, 0, 64, 78
1, 1463968, Control_c, 0, 64, 81
1, 1463983, Control_c, 0, 64, 81
1, 1463988, Note_off_c, 0, 55, 60
1, 1464027, Note_on_c, 0, 52, 55
1, 1464106, Note_off_c, 0, 52, 61
1, 1464121, Note_on_c, 0, 55, 51
1, 1464162, Note_off_c, 0, 55, 65
1, 1464208, Note_on_c, 0, 72, 71
1, 1464212, Note_on_c, 0, 60, 52
1, 1464244, Note_off_c, 0, 74, 62
1, 1464265, Note_off_c, 0, 60, 50
1, 1464303, Note_on_c, 0, 55, 48
1, 1464303, Note_off_c, 0, 72, 64
1, 1464353, Note_off_c, 0, 55, 61
1, 1464384, Note_on_c, 0, 52, 51
1, 1464389, Note_on_c, 0, 72, 66
1, 1464439, Note_off_c, 0, 64, 36
1, 1464444, Note_off_c, 0, 52, 59
1, 1464462, Note_off_c, 0, 67, 51
1, 1464479, Note_on_c, 0, 55, 49
1, 1464487, Control_c, 0, 64, 81
1, 1464502, Control_c, 0, 64, 80
1, 1464517, Control_c, 0, 64, 80
1, 1464531, Control_c, 0, 64, 79
1, 1464546, Control_c, 0, 64, 78
1, 1464561, Control_c, 0, 64, 77
1, 1464576, Control_c, 0, 64, 75
1, 1464581, Note_off_c, 0, 55, 51
1, 1464591, Control_c, 0, 64, 72
1, 1464611, Note_on_c, 0, 67, 64
1, 1464613, Control_c, 0, 64, 65
1, 1464627, Control_c, 0, 64, 47
1, 1464638, Note_on_c, 0, 65, 46
1, 1464642, Control_c, 0, 64, 0
1, 1464647, Note_off_c, 0, 72, 63
1, 1464654, Note_on_c, 0, 50, 32
1, 1464714, Note_off_c, 0, 50, 41
1, 1464731, Control_c, 0, 64, 54
1, 1464734, Note_on_c, 0, 55, 33
1, 1464745, Control_c, 0, 64, 66
1, 1464760, Control_c, 0, 64, 72
1, 1464775, Control_c, 0, 64, 78
1, 1464784, Note_off_c, 0, 55, 62
1, 1464790, Control_c, 0, 64, 82
1, 1464805, Control_c, 0, 64, 86
1, 1464820, Control_c, 0, 64, 91
1, 1464832, Note_on_c, 0, 53, 43
1, 1464835, Control_c, 0, 64, 96
1, 1464849, Control_c, 0, 64, 99
1, 1464864, Control_c, 0, 64, 101
1, 1464879, Control_c, 0, 64, 103
1, 1464884, Note_off_c, 0, 53, 64
1, 1464894, Control_c, 0, 64, 105
1, 1464908, Note_on_c, 0, 55, 53
1, 1464909, Control_c, 0, 64, 106
1, 1464924, Control_c, 0, 64, 107
1, 1464938, Control_c, 0, 64, 107
1, 1464950, Note_off_c, 0, 55, 64
1, 1464968, Control_c, 0, 64, 108
1, 1464998, Note_on_c, 0, 59, 55
1, 1465048, Note_off_c, 0, 59, 50
1, 1465079, Note_on_c, 0, 55, 53
1, 1465090, Note_off_c, 0, 67, 56
1, 1465141, Note_off_c, 0, 55, 61
1, 1465162, Note_on_c, 0, 53, 48
1, 1465168, Note_on_c, 0, 67, 70
1, 1465218, Note_off_c, 0, 53, 63
1, 1465246, Note_off_c, 0, 65, 42
1, 1465269, Note_on_c, 0, 55, 49
1, 1465327, Note_off_c, 0, 67, 38
1, 1465390, Control_c, 0, 64, 107
1, 1465405, Control_c, 0, 64, 104
1, 1465411, Note_on_c, 0, 72, 71
1, 1465419, Control_c, 0, 64, 92
1, 1465434, Note_on_c, 0, 48, 45
1, 1465434, Control_c, 0, 64, 72
1, 1465440, Note_off_c, 0, 55, 34
1, 1465444, Note_on_c, 0, 67, 48
1, 1465449, Note_on_c, 0, 64, 47
1, 1465449, Control_c, 0, 64, 52
1, 1465464, Control_c, 0, 64, 0
1, 1465523, Control_c, 0, 64, 43
1, 1465538, Control_c, 0, 64, 62
1, 1465552, Note_off_c, 0, 48, 60
1, 1465553, Control_c, 0, 64, 68
1, 1465568, Control_c, 0, 64, 73
1, 1465574, Note_on_c, 0, 55, 49
1, 1465583, Control_c, 0, 64, 79
1, 1465598, Control_c, 0, 64, 83
1, 1465612, Control_c, 0, 64, 87
1, 1465618, Note_off_c, 0, 55, 64
1, 1465627, Control_c, 0, 64, 94
1, 1465642, Control_c, 0, 64, 102
1, 1465657, Control_c, 0, 64, 113
1, 1465660, Note_on_c, 0, 52, 52
1, 1465672, Control_c, 0, 64, 127
1, 1465741, Note_off_c, 0, 52, 61
1, 1465748, Note_on_c, 0, 55, 50
1, 1465800, Note_off_c, 0, 55, 62
1, 1465848, Note_on_c, 0, 60, 57
1, 1465857, Note_off_c, 0, 72, 61
1, 1465931, Note_off_c, 0, 60, 57
1, 1465952, Note_on_c, 0, 55, 49
1, 1465952, Control_c, 0, 67, 119
1, 1465967, Control_c, 0, 67, 106
1, 1465982, Control_c, 0, 67, 93
1, 1465997, Control_c, 0, 67, 82
1, 1466012, Control_c, 0, 67, 73
1, 1466021, Note_on_c, 0, 72, 76
1, 1466027, Control_c, 0, 67, 64
1, 1466029, Note_off_c, 0, 55, 63
1, 1466042, Control_c, 0, 67, 55
1, 1466057, Control_c, 0, 67, 45
1, 1466059, Note_on_c, 0, 52, 49
1, 1466066, Note_off_c, 0, 67, 60
1, 1466072, Control_c, 0, 67, 36
1, 1466085, Note_off_c, 0, 64, 41
1, 1466087, Control_c, 0, 67, 29
1, 1466109, Control_c, 0, 67, 25
1, 1466122, Note_off_c, 0, 52, 65
1, 1466124, Control_c, 0, 67, 21
1, 1466139, Control_c, 0, 67, 18
1, 1466154, Control_c, 0, 67, 13
1, 1466169, Control_c, 0, 67, 0
1, 1466182, Note_on_c, 0, 55, 47
1, 1466241, Note_off_c, 0, 72, 59
1, 1466360, Note_off_c, 0, 55, 35
1, 1466387, Note_on_c, 0, 72, 58
1, 1466391, Control_c, 0, 64, 121
1, 1466406, Control_c, 0, 64, 94
1, 1466420, Control_c, 0, 64, 74
1, 1466423, Note_on_c, 0, 69, 43
1, 1466435, Control_c, 0, 64, 61
1, 1466435, Control_c, 0, 67, 9
1, 1466437, Note_on_c, 0, 65, 38
1, 1466450, Control_c, 0, 64, 0
1, 1466450, Control_c, 0, 67, 14
1, 1466462, Note_on_c, 0, 41, 39
1, 1466465, Control_c, 0, 67, 23
1, 1466480, Control_c, 0, 67, 30
1, 1466495, Control_c, 0, 64, 46
1, 1466495, Control_c, 0, 67, 37
1, 1466509, Control_c, 0, 64, 61
1, 1466509, Control_c, 0, 67, 46
1, 1466524, Control_c, 0, 64, 68
1, 1466524, Control_c, 0, 67, 57
1, 1466539, Control_c, 0, 64, 79
1, 1466539, Control_c, 0, 67, 71
1, 1466553, Control_c, 0, 64, 95
1, 1466553, Control_c, 0, 67, 82
1, 1466555, Note_off_c, 0, 41, 60
1, 1466568, Control_c, 0, 64, 104
1, 1466568, Control_c, 0, 67, 89
1, 1466583, Control_c, 0, 64, 107
1, 1466583, Control_c, 0, 67, 93
1, 1466598, Control_c, 0, 67, 97
1, 1466613, Control_c, 0, 67, 100
1, 1466627, Control_c, 0, 67, 104
1, 1466630, Note_on_c, 0, 57, 46
1, 1466642, Control_c, 0, 67, 109
1, 1466657, Control_c, 0, 67, 113
1, 1466672, Control_c, 0, 67, 116
1, 1466687, Control_c, 0, 67, 118
1, 1466701, Control_c, 0, 67, 120
1, 1466716, Control_c, 0, 67, 121
1, 1466731, Control_c, 0, 67, 123
1, 1466733, Note_off_c, 0, 57, 50
1, 1466744, Note_on_c, 0, 53, 43
1, 1466746, Control_c, 0, 67, 124
1, 1466760, Control_c, 0, 67, 124
1, 1466775, Control_c, 0, 67, 125
1, 1466836, Note_off_c, 0, 53, 59
1, 1466868, Note_on_c, 0, 57, 45
1, 1466903, Note_off_c, 0, 57, 54
1, 1466934, Note_on_c, 0, 74, 66
1, 1466961, Note_on_c, 0, 60, 52
1, 1467008, Note_off_c, 0, 60, 55
1, 1467021, Control_c, 0, 67, 124
1, 1467036, Control_c, 0, 67, 124
1, 1467050, Note_on_c, 0, 57, 46
1, 1467097, Note_off_c, 0, 57, 59
1, 1467110, Control_c, 0, 64, 107
1, 1467112, Note_off_c, 0, 72, 63
1, 1467115, Note_on_c, 0, 76, 69
1, 1467123, Note_off_c, 0, 69, 39
1, 1467124, Note_off_c, 0, 74, 62
1, 1467127, Note_on_c, 0, 53, 55
1, 1467139, Control_c, 0, 64, 106
1, 1467147, Note_off_c, 0, 65, 40
1, 1467154, Control_c, 0, 64, 105
1, 1467160, Note_off_c, 0, 53, 66
1, 1467169, Control_c, 0, 64, 103
1, 1467184, Control_c, 0, 64, 100
1, 1467184, Control_c, 0, 67, 124
1, 1467198, Control_c, 0, 64, 98
1, 1467211, Note_on_c, 0, 57, 47
1, 1467213, Control_c, 0, 64, 97
1, 1467213, Control_c, 0, 67, 125
1, 1467228, Control_c, 0, 64, 96
1, 1467243, Control_c, 0, 64, 94
1, 1467243, Control_c, 0, 67, 125
1, 1467258, Control_c, 0, 64, 90
1, 1467273, Control_c, 0, 64, 80
1, 1467273, Control_c, 0, 67, 126
1, 1467284, Note_off_c, 0, 57, 44
1, 1467288, Control_c, 0, 64, 67
1, 1467303, Control_c, 0, 64, 37
1, 1467318, Control_c, 0, 64, 0
1, 1467332, Control_c, 0, 67, 126
1, 1467335, Note_on_c, 0, 72, 64
1, 1467347, Control_c, 0, 67, 127
1, 1467365, Note_on_c, 0, 67, 46
1, 1467375, Note_on_c, 0, 43, 51
1, 1467376, Control_c, 0, 64, 44
1, 1467391, Note_on_c, 0, 64, 29
1, 1467391, Control_c, 0, 64, 63
1, 1467392, Note_off_c, 0, 76, 60
1, 1467406, Control_c, 0, 64, 69
1, 1467410, Note_off_c, 0, 43, 63
1, 1467421, Control_c, 0, 64, 75
1, 1467436, Control_c, 0, 64, 79
1, 1467450, Control_c, 0, 64, 80
1, 1467465, Control_c, 0, 64, 80
1, 1467517, Note_on_c, 0, 52, 58
1, 1467590, Note_off_c, 0, 64, 41
1, 1467595, Note_off_c, 0, 52, 61
1, 1467616, Note_on_c, 0, 55, 56
1, 1467660, Note_off_c, 0, 55, 55
1, 1467684, Note_off_c, 0, 72, 60
1, 1467696, Note_off_c, 0, 67, 37
1, 1467710, Note_on_c, 0, 60, 46
1, 1467740, Note_off_c, 0, 60, 53
1, 1467755, Control_c, 0, 64, 79
1, 1467770, Control_c, 0, 64, 71
1, 1467785, Control_c, 0, 64, 60
1, 1467800, Control_c, 0, 64, 0
1, 1467804, Note_on_c, 0, 71, 61
1, 1467827, Note_on_c, 0, 67, 30
1, 1467829, Control_c, 0, 64, 41
1, 1467835, Note_on_c, 0, 43, 52
1, 1467841, Note_on_c, 0, 65, 35
1, 1467844, Control_c, 0, 64, 59
1, 1467859, Control_c, 0, 64, 65
1, 1467871, Note_off_c, 0, 43, 64
1, 1467874, Control_c, 0, 64, 71
1, 1467888, Control_c, 0, 64, 78
1, 1467903, Control_c, 0, 64, 83
1, 1467918, Control_c, 0, 64, 84
1, 1468012, Note_on_c, 0, 53, 25
1, 1468049, Note_off_c, 0, 53, 53
1, 1468085, Note_on_c, 0, 55, 40
1, 1468108, Note_off_c, 0, 65, 39
1, 1468117, Note_off_c, 0, 55, 54
1, 1468158, Note_off_c, 0, 67, 45
1, 1468179, Note_on_c, 0, 62, 46
1, 1468228, Note_off_c, 0, 62, 43
1, 1468244, Control_c, 0, 64, 83
1, 1468259, Control_c, 0, 64, 81
1, 1468273, Control_c, 0, 64, 72
1, 1468288, Control_c, 0, 64, 57
1, 1468290, Note_off_c, 0, 71, 53
1, 1468292, Note_on_c, 0, 72, 52
1, 1468303, Control_c, 0, 64, 0
1, 1468315, Note_on_c, 0, 64, 34
1, 1468317, Note_on_c, 0, 48, 38
1, 1468319, Note_on_c, 0, 67, 22
1, 1468347, Control_c, 0, 64, 28
1, 1468370, Control_c, 0, 64, 51
1, 1468385, Control_c, 0, 64, 62
1, 1468400, Control_c, 0, 64, 68
1, 1468402, Note_off_c, 0, 48, 36
1, 1468414, Note_on_c, 0, 52, 48
1, 1468414, Control_c, 0, 64, 72
1, 1468430, Control_c, 0, 64, 75
1, 1468444, Control_c, 0, 64, 77
1, 1468459, Control_c, 0, 64, 78
1, 1468474, Control_c, 0, 64, 78
1, 1468487, Note_off_c, 0, 52, 60
1, 1468489, Control_c, 0, 64, 79
1, 1468507, Note_off_c, 0, 64, 39
1, 1468517, Note_on_c, 0, 55, 35
1, 1468549, Note_off_c, 0, 55, 49
1, 1468564, Control_c, 0, 64, 79
1, 1468599, Note_on_c, 0, 60, 54
1, 1468631, Note_off_c, 0, 67, 0
1, 1468653, Note_off_c, 0, 60, 48
1, 1468668, Poly_aftertouch_c, 0, 67, 127
1, 1468685, Note_on_c, 0, 64, 50
1, 1468719, Note_off_c, 0, 64, 54
1, 1468729, Poly_aftertouch_c, 0, 67, 0
1, 1468785, Note_on_c, 0, 60, 52
1, 1468822, Note_off_c, 0, 60, 56
1, 1468847, Note_off_c, 0, 72, 37
1, 1468856, Note_on_c, 0, 67, 61
1, 1468895, Note_on_c, 0, 55, 51
1, 1468975, Note_off_c, 0, 55, 59
1, 1468978, Control_c, 0, 64, 79
1, 1469008, Control_c, 0, 64, 78
1, 1469014, Note_on_c, 0, 52, 44
1, 1469027, Note_off_c, 0, 67, 38
1, 1469037, Control_c, 0, 64, 78
1, 1469052, Control_c, 0, 64, 77
1, 1469067, Control_c, 0, 64, 76
1, 1469082, Control_c, 0, 64, 75
1, 1469103, Control_c, 0, 64, 75
1, 1469118, Control_c, 0, 64, 74
1, 1469133, Control_c, 0, 64, 72
1, 1469140, Note_off_c, 0, 52, 53
1, 1469148, Control_c, 0, 64, 68
1, 1469163, Control_c, 0, 64, 61
1, 1469178, Control_c, 0, 64, 29
1, 1469181, Note_on_c, 0, 76, 68
1, 1469181, Note_on_c, 0, 48, 48
1, 1469193, Control_c, 0, 64, 0
1, 1469240, Note_on_c, 0, 67, 40
1, 1469249, Note_on_c, 0, 64, 29
1, 1469252, Control_c, 0, 64, 36
1, 1469267, Control_c, 0, 64, 59
1, 1469282, Control_c, 0, 64, 67
1, 1469297, Control_c, 0, 64, 72
1, 1469312, Control_c, 0, 64, 76
1, 1469327, Control_c, 0, 64, 80
1, 1469336, Note_off_c, 0, 48, 59
1, 1469342, Control_c, 0, 64, 85
1, 1469357, Control_c, 0, 64, 90
1, 1469368, Note_on_c, 0, 55, 42
1, 1469372, Control_c, 0, 64, 94
1, 1469386, Control_c, 0, 64, 97
1, 1469401, Control_c, 0, 64, 101
1, 1469409, Note_off_c, 0, 55, 59
1, 1469416, Control_c, 0, 64, 104
1, 1469431, Control_c, 0, 64, 109
1, 1469446, Control_c, 0, 64, 115
1, 1469460, Control_c, 0, 64, 125
1, 1469461, Note_on_c, 0, 52, 48
1, 1469475, Control_c, 0, 64, 127
1, 1469527, Note_off_c, 0, 52, 58
1, 1469553, Note_on_c, 0, 55, 35
1, 1469585, Note_off_c, 0, 55, 59
1, 1469643, Note_on_c, 0, 60, 45
1, 1469693, Note_off_c, 0, 76, 65
1, 1469704, Note_off_c, 0, 60, 52
1, 1469725, Note_on_c, 0, 55, 46
1, 1469791, Note_off_c, 0, 55, 58
1, 1469815, Note_on_c, 0, 76, 79
1, 1469831, Control_c, 0, 67, 127
1, 1469834, Note_on_c, 0, 52, 47
1, 1469839, Note_off_c, 0, 67, 62
1, 1469852, Control_c, 0, 67, 125
1, 1469867, Control_c, 0, 67, 122
1, 1469874, Note_off_c, 0, 52, 63
1, 1469882, Control_c, 0, 67, 119
1, 1469897, Control_c, 0, 67, 117
1, 1469912, Control_c, 0, 67, 116
1, 1469917, Note_off_c, 0, 64, 40
1, 1469923, Note_off_c, 0, 76, 63
1, 1469932, Note_on_c, 0, 55, 45
1, 1469941, Control_c, 0, 67, 116
1, 1469956, Control_c, 0, 67, 117
1, 1469971, Control_c, 0, 67, 118
1, 1469986, Control_c, 0, 67, 118
1, 1470000, Control_c, 0, 67, 119
1, 1470015, Control_c, 0, 67, 119
1, 1470031, Control_c, 0, 67, 120
1, 1470048, Note_on_c, 0, 45, 54
1, 1470061, Control_c, 0, 67, 120
1, 1470114, Note_off_c, 0, 55, 57
1, 1470135, Control_c, 0, 64, 97
1, 1470150, Note_on_c, 0, 76, 75
1, 1470150, Control_c, 0, 64, 70
1, 1470164, Control_c, 0, 64, 46
1, 1470179, Control_c, 0, 64, 0
1, 1470183, Note_on_c, 0, 66, 51
1, 1470186, Note_on_c, 0, 72, 42
1, 1470209, Control_c, 0, 64, 8
1, 1470224, Control_c, 0, 64, 54
1, 1470224, Control_c, 0, 67, 121
1, 1470239, Control_c, 0, 64, 66
1, 1470239, Control_c, 0, 67, 123
1, 1470254, Control_c, 0, 64, 79
1, 1470254, Control_c, 0, 67, 124
1, 1470269, Control_c, 0, 64, 106
1, 1470269, Control_c, 0, 67, 125
1, 1470283, Control_c, 0, 64, 127
1, 1470283, Control_c, 0, 67, 126
1, 1470298, Control_c, 0, 67, 127
1, 1470349, Note_off_c, 0, 45, 54
1, 1470356, Note_on_c, 0, 54, 46
1, 1470434, Note_off_c, 0, 54, 60
1, 1470466, Note_on_c, 0, 50, 51
1, 1470534, Note_off_c, 0, 50, 61
1, 1470556, Note_on_c, 0, 54, 61
1, 1470567, Note_off_c, 0, 76, 62
1, 1470616, Control_c, 0, 67, 126
1, 1470621, Note_off_c, 0, 54, 60
1, 1470631, Control_c, 0, 67, 125
1, 1470637, Note_on_c, 0, 74, 78
1, 1470646, Control_c, 0, 67, 125
1, 1470671, Note_on_c, 0, 60, 52
1, 1470675, Control_c, 0, 67, 124
1, 1470705, Control_c, 0, 67, 124
1, 1470720, Control_c, 0, 67, 123
1, 1470734, Note_off_c, 0, 60, 55
1, 1470734, Control_c, 0, 67, 123
1, 1470743, Note_off_c, 0, 66, 65
1, 1470747, Note_off_c, 0, 74, 61
1, 1470749, Note_on_c, 0, 54, 61
1, 1470749, Control_c, 0, 67, 122
1, 1470799, Note_off_c, 0, 72, 36
1, 1470818, Note_off_c, 0, 54, 59
1, 1470834, Note_on_c, 0, 74, 81
1, 1470841, Note_on_c, 0, 50, 57
1, 1470884, Control_c, 0, 67, 122
1, 1470910, Note_off_c, 0, 50, 63
1, 1470913, Control_c, 0, 67, 123
1, 1470928, Control_c, 0, 67, 123
1, 1470942, Control_c, 0, 67, 124
1, 1470957, Control_c, 0, 67, 125
1, 1470963, Note_on_c, 0, 54, 57
1, 1470965, Note_off_c, 0, 74, 62
1, 1470972, Control_c, 0, 67, 125
1, 1470987, Control_c, 0, 67, 126
1, 1471002, Control_c, 0, 67, 126
1, 1471017, Control_c, 0, 67, 127
1, 1471032, Control_c, 0, 67, 127
1, 1471077, Control_c, 0, 64, 74
1, 1471092, Control_c, 0, 64, 49
1, 1471093, Note_on_c, 0, 74, 69
1, 1471094, Note_on_c, 0, 42, 49
1, 1471097, Note_off_c, 0, 54, 57
1, 1471106, Control_c, 0, 64, 0
1, 1471130, Note_on_c, 0, 69, 54
1, 1471150, Note_on_c, 0, 62, 35
1, 1471150, Control_c, 0, 64, 41
1, 1471165, Control_c, 0, 64, 65
1, 1471180, Control_c, 0, 64, 78
1, 1471195, Control_c, 0, 64, 97
1, 1471207, Note_off_c, 0, 42, 62
1, 1471210, Control_c, 0, 64, 110
1, 1471224, Control_c, 0, 64, 111
1, 1471239, Control_c, 0, 64, 112
1, 1471273, Note_on_c, 0, 57, 52
1, 1471375, Note_off_c, 0, 57, 48
1, 1471405, Note_on_c, 0, 50, 44
1, 1471439, Control_c, 0, 64, 111
1, 1471467, Note_on_c, 0, 72, 70
1, 1471482, Note_off_c, 0, 74, 61
1, 1471497, Note_on_c, 0, 57, 57
1, 1471523, Note_off_c, 0, 50, 38
1, 1471543, Control_c, 0, 64, 110
1, 1471587, Note_off_c, 0, 57, 60
1, 1471602, Control_c, 0, 64, 110
1, 1471627, Note_on_c, 0, 71, 67
1, 1471634, Note_off_c, 0, 72, 56
1, 1471650, Note_on_c, 0, 60, 50
1, 1471707, Control_c, 0, 64, 109
1, 1471745, Note_off_c, 0, 69, 38
1, 1471751, Note_on_c, 0, 72, 66
1, 1471751, Control_c, 0, 64, 108
1, 1471756, Note_off_c, 0, 60, 48
1, 1471772, Note_on_c, 0, 57, 48
1, 1471780, Control_c, 0, 64, 107
1, 1471795, Control_c, 0, 64, 106
1, 1471810, Control_c, 0, 64, 105
1, 1471825, Control_c, 0, 64, 103
1, 1471837, Note_off_c, 0, 72, 63
1, 1471840, Control_c, 0, 64, 100
1, 1471848, Note_on_c, 0, 74, 62
1, 1471849, Note_off_c, 0, 57, 39
1, 1471855, Control_c, 0, 64, 99
1, 1471870, Control_c, 0, 64, 97
1, 1471872, Note_off_c, 0, 71, 35
1, 1471884, Control_c, 0, 64, 96
1, 1471890, Note_on_c, 0, 50, 47
1, 1471899, Control_c, 0, 64, 95
1, 1471914, Control_c, 0, 64, 95
1, 1471929, Control_c, 0, 64, 94
1, 1471944, Note_off_c, 0, 50, 62
1, 1471944, Control_c, 0, 64, 93
1, 1471951, Note_on_c, 0, 72, 66
1, 1471953, Note_off_c, 0, 74, 52
1, 1471959, Control_c, 0, 64, 93
1, 1471973, Control_c, 0, 64, 92
1, 1471974, Note_on_c, 0, 57, 54
1, 1472043, Note_on_c, 0, 71, 59
1, 1472066, Note_off_c, 0, 72, 49
1, 1472119, Note_on_c, 0, 69, 70
1, 1472128, Note_off_c, 0, 62, 41
1, 1472141, Note_off_c, 0, 71, 59
1, 1472159, Note_off_c, 0, 69, 60
1, 1472182, Note_off_c, 0, 57, 35
1, 1472262, Control_c, 0, 64, 92
1, 1472277, Control_c, 0, 64, 84
1, 1472287, Note_on_c, 0, 67, 69
1, 1472292, Control_c, 0, 64, 69
1, 1472306, Control_c, 0, 64, 25
1, 1472307, Note_on_c, 0, 43, 41
1, 1472321, Control_c, 0, 64, 0
1, 1472326, Note_on_c, 0, 65, 52
1, 1472343, Note_on_c, 0, 59, 44
1, 1472395, Control_c, 0, 64, 51
1, 1472410, Control_c, 0, 64, 65
1, 1472413, Note_off_c, 0, 43, 57
1, 1472426, Control_c, 0, 64, 71
1, 1472441, Control_c, 0, 64, 79
1, 1472456, Control_c, 0, 64, 85
1, 1472460, Note_on_c, 0, 55, 43
1, 1472470, Control_c, 0, 64, 87
1, 1472485, Control_c, 0, 64, 88
1, 1472524, Note_off_c, 0, 55, 57
1, 1472534, Note_off_c, 0, 59, 56
1, 1472548, Note_on_c, 0, 50, 41
1, 1472613, Note_off_c, 0, 50, 59
1, 1472662, Note_on_c, 0, 55, 42
1, 1472689, Note_off_c, 0, 55, 62
1, 1472755, Note_on_c, 0, 59, 39
1, 1472759, Note_off_c, 0, 67, 52
1, 1472806, Note_off_c, 0, 59, 48
1, 1472823, Note_on_c, 0, 55, 48
1, 1472913, Note_off_c, 0, 55, 61
1, 1472937, Control_c, 0, 64, 87
1, 1472939, Note_on_c, 0, 67, 69
1, 1472957, Note_on_c, 0, 50, 45
1, 1472966, Note_off_c, 0, 65, 60
1, 1472966, Control_c, 0, 64, 87
1, 1473011, Control_c, 0, 64, 86
1, 1473026, Note_off_c, 0, 50, 62
1, 1473056, Control_c, 0, 64, 86
1, 1473085, Control_c, 0, 64, 85
1, 1473086, Note_on_c, 0, 55, 24
1, 1473115, Control_c, 0, 64, 84
1, 1473129, Control_c, 0, 64, 82
1, 1473144, Control_c, 0, 64, 80
1, 1473159, Control_c, 0, 64, 77
1, 1473174, Control_c, 0, 64, 74
1, 1473189, Control_c, 0, 64, 70
1, 1473203, Control_c, 0, 64, 66
1, 1473219, Control_c, 0, 64, 63
1, 1473234, Control_c, 0, 64, 59
1, 1473236, Note_on_c, 0, 72, 65
1, 1473249, Control_c, 0, 64, 54
1, 1473264, Control_c, 0, 64, 44
1, 1473273, Note_on_c, 0, 64, 39
1, 1473279, Control_c, 0, 64, 0
1, 1473285, Note_on_c, 0, 60, 23
1, 1473325, Note_off_c, 0, 55, 40
1, 1473326, Note_on_c, 0, 45, 28
1, 1473336, Note_off_c, 0, 67, 47
1, 1473412, Control_c, 0, 64, 58
1, 1473426, Control_c, 0, 64, 66
1, 1473441, Control_c, 0, 64, 71
1, 1473456, Control_c, 0, 64, 79
1, 1473471, Control_c, 0, 64, 87
1, 1473486, Control_c, 0, 64, 91
1, 1473500, Control_c, 0, 64, 93
1, 1473515, Note_off_c, 0, 45, 48
1, 1473515, Control_c, 0, 64, 95
1, 1473520, Note_on_c, 0, 52, 45
1, 1473530, Control_c, 0, 64, 97
1, 1473545, Control_c, 0, 64, 99
1, 1473560, Control_c, 0, 64, 104
1, 1473569, Note_off_c, 0, 52, 64
1, 1473575, Control_c, 0, 64, 107
1, 1473597, Control_c, 0, 64, 110
1, 1473613, Control_c, 0, 64, 111
1, 1473627, Control_c, 0, 64, 113
1, 1473633, Note_on_c, 0, 48, 38
1, 1473657, Control_c, 0, 64, 114
1, 1473672, Control_c, 0, 64, 115
1, 1473716, Control_c, 0, 64, 116
1, 1473724, Note_on_c, 0, 52, 47
1, 1473730, Note_off_c, 0, 48, 35
1, 1473767, Note_off_c, 0, 52, 64
1, 1473822, Note_off_c, 0, 72, 48
1, 1473824, Note_on_c, 0, 57, 49
1, 1473844, Note_off_c, 0, 60, 39
1, 1473886, Note_off_c, 0, 57, 48
1, 1473903, Note_on_c, 0, 52, 54
1, 1473975, Note_off_c, 0, 64, 34
1, 1473982, Note_off_c, 0, 52, 62
1, 1473997, Note_on_c, 0, 72, 64
1, 1474004, Note_on_c, 0, 48, 54
1, 1474049, Note_off_c, 0, 48, 60
1, 1474055, Note_off_c, 0, 72, 64
1, 1474113, Note_on_c, 0, 52, 44
1, 1474162, Control_c, 0, 64, 112
1, 1474176, Control_c, 0, 64, 86
1, 1474188, Note_off_c, 0, 52, 32
1, 1474191, Control_c, 0, 64, 67
1, 1474206, Control_c, 0, 64, 32
1, 1474216, Note_on_c, 0, 72, 62
1, 1474221, Control_c, 0, 64, 0
1, 1474240, Note_on_c, 0, 69, 53
1, 1474245, Note_on_c, 0, 41, 49
1, 1474250, Control_c, 0, 64, 34
1, 1474257, Note_on_c, 0, 65, 42
1, 1474265, Control_c, 0, 64, 58
1, 1474280, Control_c, 0, 64, 67
1, 1474286, Note_off_c, 0, 41, 64
1, 1474295, Control_c, 0, 64, 74
1, 1474310, Control_c, 0, 64, 81
1, 1474324, Control_c, 0, 64, 81
1, 1474370, Note_on_c, 0, 57, 49
1, 1474433, Note_off_c, 0, 57, 61
1, 1474457, Note_on_c, 0, 53, 50
1, 1474543, Note_off_c, 0, 53, 58
1, 1474555, Note_on_c, 0, 57, 58
1, 1474606, Note_off_c, 0, 57, 60
1, 1474657, Note_on_c, 0, 74, 63
1, 1474664, Note_on_c, 0, 60, 52
1, 1474734, Note_off_c, 0, 60, 45
1, 1474752, Note_on_c, 0, 57, 50
1, 1474761, Control_c, 0, 64, 81
1, 1474797, Note_off_c, 0, 57, 50
1, 1474828, Note_off_c, 0, 72, 64
1, 1474829, Note_off_c, 0, 69, 44
1, 1474831, Note_off_c, 0, 74, 62
1, 1474836, Control_c, 0, 64, 80
1, 1474837, Note_on_c, 0, 76, 67
1, 1474849, Note_on_c, 0, 53, 47
1, 1474860, Note_off_c, 0, 65, 40
1, 1474878, Note_off_c, 0, 53, 52
1, 1474880, Control_c, 0, 64, 80
1, 1474910, Control_c, 0, 64, 79
1, 1474922, Note_on_c, 0, 57, 56
1, 1474940, Control_c, 0, 64, 79
1, 1474955, Control_c, 0, 64, 78
1, 1474969, Note_off_c, 0, 57, 52
1, 1474970, Control_c, 0, 64, 74
1, 1474985, Control_c, 0, 64, 64
1, 1474999, Control_c, 0, 64, 0
1, 1475056, Note_on_c, 0, 72, 59
1, 1475072, Note_on_c, 0, 43, 50
1, 1475073, Control_c, 0, 64, 18
1, 1475077, Note_on_c, 0, 67, 45
1, 1475095, Control_c, 0, 64, 63
1, 1475098, Note_on_c, 0, 64, 24
1, 1475105, Note_off_c, 0, 76, 58
1, 1475110, Control_c, 0, 64, 70
1, 1475112, Note_off_c, 0, 43, 62
1, 1475124, Control_c, 0, 64, 75
1, 1475139, Control_c, 0, 64, 78
1, 1475229, Note_on_c, 0, 52, 46
1, 1475278, Note_off_c, 0, 64, 42
1, 1475312, Note_on_c, 0, 55, 53
1, 1475336, Note_off_c, 0, 52, 34
1, 1475360, Note_off_c, 0, 55, 49
1, 1475360, Note_off_c, 0, 72, 56
1, 1475384, Note_off_c, 0, 67, 35
1, 1475407, Note_on_c, 0, 60, 42
1, 1475437, Note_off_c, 0, 60, 53
1, 1475450, Control_c, 0, 64, 76
1, 1475464, Control_c, 0, 64, 64
1, 1475479, Control_c, 0, 64, 0
1, 1475491, Note_on_c, 0, 71, 57
1, 1475502, Note_on_c, 0, 67, 43
1, 1475522, Note_on_c, 0, 65, 32
1, 1475525, Note_on_c, 0, 43, 56
1, 1475539, Control_c, 0, 64, 52
1, 1475554, Control_c, 0, 64, 65
1, 1475558, Note_off_c, 0, 43, 63
1, 1475569, Control_c, 0, 64, 72
1, 1475584, Control_c, 0, 64, 77
1, 1475598, Control_c, 0, 64, 78
1, 1475680, Note_on_c, 0, 53, 38
1, 1475749, Note_off_c, 0, 53, 40
1, 1475779, Note_on_c, 0, 55, 43
1, 1475800, Note_off_c, 0, 65, 41
1, 1475813, Note_off_c, 0, 55, 53
1, 1475864, Note_off_c, 0, 67, 37
1, 1475883, Note_on_c, 0, 62, 48
1, 1475888, Control_c, 0, 64, 78
1, 1475932, Note_off_c, 0, 62, 44
1, 1475932, Control_c, 0, 64, 77
1, 1475947, Control_c, 0, 64, 77
1, 1475962, Control_c, 0, 64, 75
1, 1475977, Control_c, 0, 64, 70
1, 1475992, Control_c, 0, 64, 60
1, 1476007, Control_c, 0, 64, 0
1, 1476012, Note_off_c, 0, 71, 54
1, 1476013, Note_on_c, 0, 72, 50
1, 1476030, Note_on_c, 0, 48, 46
1, 1476040, Note_on_c, 0, 67, 26
1, 1476072, Poly_aftertouch_c, 0, 64, 127
1, 1476081, Control_c, 0, 64, 31
1, 1476095, Control_c, 0, 64, 61
1, 1476110, Control_c, 0, 64, 68
1, 1476115, Poly_aftertouch_c, 0, 64, 0
1, 1476120, Note_off_c, 0, 48, 54
1, 1476125, Control_c, 0, 64, 73
1, 1476132, Note_on_c, 0, 52, 49
1, 1476139, Control_c, 0, 64, 75
1, 1476154, Control_c, 0, 64, 76
1, 1476169, Control_c, 0, 64, 77
1, 1476184, Control_c, 0, 64, 77
1, 1476198, Note_off_c, 0, 52, 60
1, 1476199, Control_c, 0, 64, 78
1, 1476230, Note_on_c, 0, 55, 36
1, 1476262, Note_off_c, 0, 55, 49
1, 1476272, Control_c, 0, 64, 78
1, 1476314, Note_off_c, 0, 67, 37
1, 1476326, Note_on_c, 0, 64, 50
1, 1476392, Note_off_c, 0, 64, 57
1, 1476395, Note_off_c, 0, 72, 27
1, 1476445, Note_on_c, 0, 60, 43
1, 1476541, Control_c, 0, 64, 78
1, 1476567, Note_off_c, 0, 60, 58
1, 1476592, Control_c, 0, 64, 77
1, 1476607, Control_c, 0, 64, 77
1, 1476622, Control_c, 0, 64, 75
1, 1476637, Control_c, 0, 64, 72
1, 1476637, Control_c, 0, 67, 117
1, 1476651, Control_c, 0, 64, 69
1, 1476651, Control_c, 0, 67, 97
1, 1476666, Control_c, 0, 64, 64
1, 1476666, Control_c, 0, 67, 69
1, 1476681, Control_c, 0, 64, 57
1, 1476681, Control_c, 0, 67, 43
1, 1476696, Control_c, 0, 64, 37
1, 1476696, Control_c, 0, 67, 16
1, 1476711, Control_c, 0, 64, 0
1, 1476711, Control_c, 0, 67, 0
1, 1476837, Note_on_c, 0, 52, 105
1, 1476841, Note_on_c, 0, 40, 96
1, 1476874, Control_c, 0, 64, 34
1, 1476888, Control_c, 0, 64, 70
1, 1476903, Control_c, 0, 64, 127
1, 1477004, Note_off_c, 0, 40, 64
1, 1477031, Note_off_c, 0, 52, 61
1, 1477252, Note_on_c, 0, 60, 98
1, 1477254, Note_on_c, 0, 48, 98
1, 1477401, Control_c, 0, 64, 67
1, 1477416, Control_c, 0, 64, 0
1, 1477468, Note_on_c, 0, 64, 74
1, 1477505, Control_c, 0, 64, 64
1, 1477519, Control_c, 0, 64, 92
1, 1477534, Control_c, 0, 64, 127
1, 1477572, Note_on_c, 0, 69, 74
1, 1477579, Note_off_c, 0, 64, 63
1, 1477667, Note_on_c, 0, 72, 82
1, 1477668, Note_off_c, 0, 69, 64
1, 1477720, Note_off_c, 0, 72, 65
1, 1477782, Note_on_c, 0, 76, 94
1, 1477854, Note_off_c, 0, 76, 61
1, 1477871, Note_on_c, 0, 84, 85
1, 1477873, Note_on_c, 0, 88, 77
1, 1477879, Note_off_c, 0, 60, 55
1, 1477880, Note_off_c, 0, 48, 59
1, 1477901, Note_on_c, 0, 86, 52
1, 1477923, Note_off_c, 0, 86, 60
1, 1477945, Note_off_c, 0, 88, 62
1, 1477956, Note_off_c, 0, 84, 60
1, 1477960, Note_on_c, 0, 60, 98
1, 1477962, Note_on_c, 0, 76, 80
1, 1477965, Note_on_c, 0, 48, 92
1, 1478055, Note_on_c, 0, 84, 84
1, 1478056, Note_on_c, 0, 88, 79
1, 1478074, Note_off_c, 0, 60, 54
1, 1478096, Note_off_c, 0, 88, 59
1, 1478097, Note_off_c, 0, 48, 60
1, 1478105, Note_off_c, 0, 84, 64
1, 1478141, Note_off_c, 0, 76, 62
1, 1478152, Poly_aftertouch_c, 0, 86, 0
1, 1478197, Note_on_c, 0, 59, 94
1, 1478200, Note_on_c, 0, 47, 92
1, 1478237, Control_c, 0, 64, 81
1, 1478252, Control_c, 0, 64, 44
1, 1478267, Control_c, 0, 64, 0
1, 1478302, Note_on_c, 0, 66, 85
1, 1478356, Control_c, 0, 64, 55
1, 1478371, Control_c, 0, 64, 71
1, 1478386, Control_c, 0, 64, 84
1, 1478386, Note_off_c, 0, 66, 62
1, 1478387, Note_on_c, 0, 71, 77
1, 1478401, Control_c, 0, 64, 97
1, 1478415, Control_c, 0, 64, 101
1, 1478430, Control_c, 0, 64, 106
1, 1478475, Note_on_c, 0, 75, 80
1, 1478475, Note_off_c, 0, 71, 60
1, 1478504, Control_c, 0, 64, 106
1, 1478519, Control_c, 0, 64, 114
1, 1478529, Note_off_c, 0, 75, 68
1, 1478534, Control_c, 0, 64, 127
1, 1478579, Note_on_c, 0, 78, 94
1, 1478656, Note_off_c, 0, 47, 62
1, 1478660, Note_off_c, 0, 59, 57
1, 1478661, Note_on_c, 0, 90, 84
1, 1478663, Note_on_c, 0, 87, 79
1, 1478672, Note_off_c, 0, 78, 50
1, 1478720, Note_off_c, 0, 90, 62
1, 1478735, Note_off_c, 0, 87, 62
1, 1478743, Note_on_c, 0, 59, 98
1, 1478746, Note_on_c, 0, 47, 88
1, 1478750, Note_on_c, 0, 78, 84
1, 1478828, Note_on_c, 0, 90, 79
1, 1478839, Note_on_c, 0, 87, 77
1, 1478863, Note_off_c, 0, 59, 56
1, 1478872, Note_off_c, 0, 47, 63
1, 1478884, Note_off_c, 0, 90, 64
1, 1478893, Note_off_c, 0, 87, 60
1, 1478896, Note_off_c, 0, 78, 60
1, 1478942, Control_c, 0, 64, 119
1, 1478957, Control_c, 0, 64, 68
1, 1478959, Note_on_c, 0, 57, 96
1, 1478962, Note_on_c, 0, 45, 89
1, 1478971, Control_c, 0, 64, 0
1, 1479037, Note_on_c, 0, 69, 85
1, 1479060, Control_c, 0, 64, 45
1, 1479075, Control_c, 0, 64, 66
1, 1479089, Control_c, 0, 64, 75
1, 1479104, Control_c, 0, 64, 81
1, 1479107, Note_off_c, 0, 69, 60
1, 1479119, Control_c, 0, 64, 82
1, 1479134, Control_c, 0, 64, 83
1, 1479136, Note_on_c, 0, 72, 82
1, 1479149, Control_c, 0, 64, 83
1, 1479179, Control_c, 0, 64, 84
1, 1479206, Note_off_c, 0, 72, 56
1, 1479209, Control_c, 0, 64, 84
1, 1479210, Note_on_c, 0, 76, 83
1, 1479223, Control_c, 0, 64, 85
1, 1479238, Control_c, 0, 64, 87
1, 1479253, Control_c, 0, 64, 90
1, 1479259, Note_off_c, 0, 76, 67
1, 1479268, Control_c, 0, 64, 95
1, 1479282, Control_c, 0, 64, 105
1, 1479297, Control_c, 0, 64, 127
1, 1479317, Note_on_c, 0, 81, 95
1, 1479391, Note_off_c, 0, 57, 58
1, 1479394, Note_off_c, 0, 45, 62
1, 1479399, Note_on_c, 0, 88, 81
1, 1479402, Note_on_c, 0, 84, 80
1, 1479404, Note_on_c, 0, 93, 78
1, 1479409, Note_off_c, 0, 81, 59
1, 1479447, Note_off_c, 0, 84, 62
1, 1479462, Note_off_c, 0, 93, 59
1, 1479475, Note_on_c, 0, 57, 106
1, 1479479, Note_on_c, 0, 45, 92
1, 1479479, Note_off_c, 0, 88, 61
1, 1479486, Note_on_c, 0, 81, 90
1, 1479548, Note_off_c, 0, 81, 52
1, 1479558, Note_on_c, 0, 84, 70
1, 1479563, Note_on_c, 0, 93, 79
1, 1479564, Note_on_c, 0, 88, 64
1, 1479564, Note_off_c, 0, 57, 56
1, 1479584, Note_off_c, 0, 84, 68
1, 1479599, Note_off_c, 0, 88, 67
1, 1479613, Note_off_c, 0, 45, 62
1, 1479623, Note_off_c, 0, 93, 61
1, 1479656, Note_on_c, 0, 83, 70
1, 1479706, Control_c, 0, 64, 125
1, 1479716, Note_on_c, 0, 88, 72
1, 1479720, Control_c, 0, 64, 87
1, 1479735, Control_c, 0, 64, 66
1, 1479736, Note_on_c, 0, 92, 71
1, 1479750, Control_c, 0, 64, 0
1, 1479757, Note_on_c, 0, 90, 44
1, 1479771, Note_on_c, 0, 52, 108
1, 1479775, Note_on_c, 0, 40, 93
1, 1479776, Note_off_c, 0, 88, 59
1, 1479784, Note_on_c, 0, 95, 91
1, 1479786, Note_off_c, 0, 90, 55
1, 1479815, Note_off_c, 0, 92, 64
1, 1479839, Control_c, 0, 64, 35
1, 1479854, Control_c, 0, 64, 68
1, 1479859, Note_off_c, 0, 83, 53
1, 1479868, Control_c, 0, 64, 105
1, 1479880, Note_on_c, 0, 92, 81
1, 1479883, Control_c, 0, 64, 127
1, 1479924, Note_off_c, 0, 95, 62
1, 1479966, Note_on_c, 0, 88, 75
1, 1480002, Note_off_c, 0, 92, 52
1, 1480047, Note_off_c, 0, 88, 64
1, 1480052, Note_on_c, 0, 83, 80
1, 1480076, Note_off_c, 0, 83, 62
1, 1480142, Note_on_c, 0, 83, 80
1, 1480204, Note_off_c, 0, 40, 63
1, 1480204, Note_off_c, 0, 52, 59
1, 1480209, Control_c, 0, 64, 97
1, 1480219, Note_on_c, 0, 80, 80
1, 1480223, Control_c, 0, 64, 53
1, 1480238, Control_c, 0, 64, 0
1, 1480283, Control_c, 0, 64, 63
1, 1480291, Note_off_c, 0, 83, 52
1, 1480294, Note_on_c, 0, 40, 83
1, 1480297, Note_on_c, 0, 52, 99
1, 1480298, Control_c, 0, 64, 95
1, 1480303, Note_on_c, 0, 76, 80
1, 1480312, Control_c, 0, 64, 127
1, 1480347, Note_off_c, 0, 40, 65
1, 1480349, Note_off_c, 0, 52, 69
1, 1480367, Note_off_c, 0, 80, 57
1, 1480400, Note_on_c, 0, 71, 80
1, 1480402, Note_off_c, 0, 76, 64
1, 1480455, Note_off_c, 0, 71, 62
1, 1480499, Control_c, 0, 64, 76
1, 1480514, Control_c, 0, 64, 58
1, 1480529, Control_c, 0, 64, 0
1, 1480561, Note_on_c, 0, 46, 87
1, 1480561, Note_on_c, 0, 58, 91
1, 1480676, Note_on_c, 0, 62, 72
1, 1480692, Control_c, 0, 64, 41
1, 1480707, Control_c, 0, 64, 61
1, 1480722, Control_c, 0, 64, 65
1, 1480736, Control_c, 0, 64, 68
1, 1480751, Control_c, 0, 64, 69
1, 1480756, Note_off_c, 0, 62, 58
1, 1480763, Note_on_c, 0, 67, 77
1, 1480766, Control_c, 0, 64, 71
1, 1480781, Control_c, 0, 64, 71
1, 1480810, Control_c, 0, 64, 69
1, 1480825, Control_c, 0, 64, 45
1, 1480840, Control_c, 0, 64, 0
1, 1480848, Note_on_c, 0, 70, 81
1, 1480850, Note_off_c, 0, 67, 64
1, 1480894, Note_off_c, 0, 70, 68
1, 1480899, Control_c, 0, 64, 14
1, 1480914, Control_c, 0, 64, 66
1, 1480928, Control_c, 0, 64, 91
1, 1480943, Control_c, 0, 64, 127
1, 1480955, Note_on_c, 0, 74, 88
1, 1481030, Note_off_c, 0, 74, 57
1, 1481047, Note_on_c, 0, 79, 82
1, 1481047, Note_on_c, 0, 86, 73
1, 1481048, Note_off_c, 0, 46, 62
1, 1481051, Note_off_c, 0, 58, 61
1, 1481111, Note_off_c, 0, 86, 61
1, 1481125, Note_off_c, 0, 79, 57
1, 1481132, Note_on_c, 0, 46, 83
1, 1481133, Note_on_c, 0, 58, 84
1, 1481142, Note_on_c, 0, 74, 77
1, 1481220, Note_off_c, 0, 46, 61
1, 1481224, Note_on_c, 0, 79, 82
1, 1481227, Note_on_c, 0, 86, 78
1, 1481231, Note_off_c, 0, 58, 59
1, 1481262, Note_off_c, 0, 86, 60
1, 1481267, Note_off_c, 0, 74, 51
1, 1481273, Note_off_c, 0, 79, 60
1, 1481277, Control_c, 0, 64, 100
1, 1481292, Control_c, 0, 64, 66
1, 1481307, Control_c, 0, 64, 0
1, 1481325, Note_on_c, 0, 57, 95
1, 1481325, Note_on_c, 0, 45, 87
1, 1481352, Control_c, 0, 64, 14
1, 1481366, Control_c, 0, 64, 37
1, 1481381, Control_c, 0, 64, 40
1, 1481396, Control_c, 0, 64, 40
1, 1481406, Note_on_c, 0, 64, 85
1, 1481411, Control_c, 0, 64, 39
1, 1481426, Control_c, 0, 64, 38
1, 1481440, Control_c, 0, 64, 34
1, 1481455, Control_c, 0, 64, 26
1, 1481470, Control_c, 0, 64, 0
1, 1481489, Note_on_c, 0, 69, 84
1, 1481492, Note_off_c, 0, 64, 63
1, 1481581, Note_on_c, 0, 73, 82
1, 1481583, Note_off_c, 0, 69, 65
1, 1481623, Note_off_c, 0, 73, 66
1, 1481647, Control_c, 0, 64, 81
1, 1481662, Control_c, 0, 64, 127
1, 1481682, Note_on_c, 0, 76, 92
1, 1481756, Note_off_c, 0, 76, 60
1, 1481770, Note_on_c, 0, 88, 78
1, 1481772, Note_off_c, 0, 57, 58
1, 1481773, Note_off_c, 0, 45, 63
1, 1481784, Note_on_c, 0, 87, 57
1, 1481799, Note_on_c, 0, 85, 24
1, 1481803, Note_on_c, 0, 86, 60
1, 1481820, Note_off_c, 0, 87, 65
1, 1481824, Note_off_c, 0, 86, 62
1, 1481838, Note_off_c, 0, 85, 59
1, 1481841, Note_off_c, 0, 88, 62
1, 1481859, Note_on_c, 0, 76, 81
1, 1481864, Note_on_c, 0, 57, 88
1, 1481865, Note_on_c, 0, 45, 80
1, 1481939, Note_off_c, 0, 57, 54
1, 1481941, Note_on_c, 0, 85, 71
1, 1481948, Note_on_c, 0, 88, 75
1, 1481957, Note_off_c, 0, 45, 63
1, 1481975, Note_off_c, 0, 76, 59
1, 1481980, Note_off_c, 0, 88, 59
1, 1481996, Note_off_c, 0, 85, 66
1, 1482026, Control_c, 0, 64, 66
1, 1482041, Control_c, 0, 64, 0
1, 1482049, Note_on_c, 0, 55, 95
1, 1482052, Note_on_c, 0, 43, 90
1, 1482130, Note_on_c, 0, 67, 88
1, 1482213, Note_on_c, 0, 70, 91
1, 1482219, Note_off_c, 0, 67, 58
1, 1482265, Note_off_c, 0, 70, 65
1, 1482299, Note_on_c, 0, 74, 82
1, 1482344, Note_off_c, 0, 74, 69
1, 1482352, Control_c, 0, 64, 27
1, 1482367, Control_c, 0, 64, 127
1, 1482401, Note_on_c, 0, 79, 97
1, 1482476, Note_on_c, 0, 86, 84
1, 1482482, Note_on_c, 0, 91, 79
1, 1482488, Note_off_c, 0, 55, 61
1, 1482490, Note_on_c, 0, 82, 78
1, 1482491, Note_off_c, 0, 79, 58
1, 1482496, Note_off_c, 0, 43, 62
1, 1482514, Note_on_c, 0, 88, 43
1, 1482521, Note_off_c, 0, 82, 61
1, 1482541, Note_off_c, 0, 88, 55
1, 1482545, Note_off_c, 0, 86, 63
1, 1482548, Note_off_c, 0, 91, 60
1, 1482563, Note_on_c, 0, 79, 86
1, 1482568, Note_on_c, 0, 55, 99
1, 1482580, Note_on_c, 0, 43, 89
1, 1482634, Note_off_c, 0, 79, 57
1, 1482648, Note_on_c, 0, 86, 64
1, 1482648, Note_on_c, 0, 82, 58
1, 1482657, Note_on_c, 0, 91, 78
1, 1482658, Note_off_c, 0, 55, 59
1, 1482668, Note_off_c, 0, 82, 64
1, 1482675, Note_off_c, 0, 86, 58
1, 1482694, Note_off_c, 0, 43, 62
1, 1482702, Note_off_c, 0, 91, 58
1, 1482741, Note_on_c, 0, 81, 74
1, 1482798, Note_on_c, 0, 86, 72
1, 1482804, Control_c, 0, 64, 90
1, 1482819, Note_on_c, 0, 90, 70
1, 1482819, Control_c, 0, 64, 63
1, 1482834, Control_c, 0, 64, 0
1, 1482849, Note_on_c, 0, 50, 102
1, 1482851, Note_off_c, 0, 86, 60
1, 1482854, Note_on_c, 0, 38, 89
1, 1482855, Note_on_c, 0, 93, 89
1, 1482883, Note_off_c, 0, 90, 64
1, 1482918, Note_off_c, 0, 81, 55
1, 1482923, Control_c, 0, 64, 56
1, 1482938, Control_c, 0, 64, 74
1, 1482943, Note_on_c, 0, 90, 80
1, 1482953, Control_c, 0, 64, 110
1, 1482967, Control_c, 0, 64, 127
1, 1482985, Note_off_c, 0, 93, 58
1, 1483026, Note_on_c, 0, 86, 81
1, 1483067, Note_off_c, 0, 90, 57
1, 1483102, Note_off_c, 0, 86, 64
1, 1483114, Note_on_c, 0, 81, 75
1, 1483134, Note_off_c, 0, 81, 69
1, 1483200, Note_on_c, 0, 81, 82
1, 1483245, Note_off_c, 0, 50, 57
1, 1483257, Note_off_c, 0, 38, 62
1, 1483278, Control_c, 0, 64, 82
1, 1483284, Note_on_c, 0, 78, 79
1, 1483293, Control_c, 0, 64, 46
1, 1483308, Control_c, 0, 64, 0
1, 1483333, Note_off_c, 0, 81, 52
1, 1483345, Note_on_c, 0, 38, 77
1, 1483345, Control_c, 0, 64, 63
1, 1483351, Note_on_c, 0, 50, 88
1, 1483360, Control_c, 0, 64, 82
1, 1483373, Note_on_c, 0, 74, 73
1, 1483375, Control_c, 0, 64, 127
1, 1483386, Note_off_c, 0, 38, 66
1, 1483402, Note_off_c, 0, 50, 64
1, 1483422, Note_off_c, 0, 78, 62
1, 1483451, Note_on_c, 0, 69, 81
1, 1483453, Note_off_c, 0, 74, 65
1, 1483501, Note_off_c, 0, 69, 65
1, 1483523, Control_c, 0, 64, 75
1, 1483537, Control_c, 0, 64, 33
1, 1483552, Control_c, 0, 64, 0
1, 1483564, Note_on_c, 0, 59, 82
1, 1483566, Note_on_c, 0, 47, 71
1, 1483566, Note_on_c, 0, 53, 70
1, 1483573, Note_on_c, 0, 56, 67
1, 1483653, Note_on_c, 0, 62, 77
1, 1483737, Note_on_c, 0, 65, 78
1, 1483739, Note_off_c, 0, 62, 59
1, 1483817, Note_off_c, 0, 65, 63
1, 1483819, Note_on_c, 0, 68, 76
1, 1483857, Note_off_c, 0, 68, 69
1, 1483894, Control_c, 0, 64, 43
1, 1483909, Control_c, 0, 64, 80
1, 1483924, Control_c, 0, 64, 127
1, 1483927, Note_on_c, 0, 74, 88
1, 1483996, Note_off_c, 0, 74, 60
1, 1484017, Note_off_c, 0, 59, 59
1, 1484019, Note_off_c, 0, 47, 59
1, 1484020, Note_off_c, 0, 56, 58
1, 1484022, Note_off_c, 0, 53, 60
1, 1484025, Note_on_c, 0, 86, 72
1, 1484026, Note_on_c, 0, 80, 65
1, 1484030, Note_on_c, 0, 77, 64
1, 1484082, Note_off_c, 0, 86, 63
1, 1484094, Note_off_c, 0, 77, 47
1, 1484100, Note_off_c, 0, 80, 62
1, 1484103, Note_on_c, 0, 74, 84
1, 1484113, Note_on_c, 0, 56, 73
1, 1484115, Note_on_c, 0, 59, 74
1, 1484116, Note_on_c, 0, 47, 71
1, 1484125, Note_on_c, 0, 53, 60
1, 1484175, Note_off_c, 0, 53, 57
1, 1484184, Note_off_c, 0, 59, 56
1, 1484185, Note_off_c, 0, 47, 61
1, 1484191, Note_on_c, 0, 80, 83
1, 1484193, Note_off_c, 0, 56, 59
1, 1484198, Note_on_c, 0, 86, 67
1, 1484199, Control_c, 0, 64, 86
1, 1484199, Note_on_c, 0, 77, 72
1, 1484202, Note_off_c, 0, 74, 59
1, 1484213, Control_c, 0, 64, 67
1, 1484217, Note_off_c, 0, 86, 67
1, 1484223, Note_off_c, 0, 77, 67
1, 1484228, Control_c, 0, 64, 45
1, 1484240, Note_off_c, 0, 80, 62
1, 1484243, Control_c, 0, 64, 0
1, 1484299, Note_on_c, 0, 59, 90
1, 1484301, Note_on_c, 0, 53, 76
1, 1484303, Note_on_c, 0, 47, 81
1, 1484310, Note_on_c, 0, 55, 75
1, 1484372, Note_on_c, 0, 62, 87
1, 1484451, Note_off_c, 0, 62, 58
1, 1484460, Note_on_c, 0, 65, 88
1, 1484541, Note_on_c, 0, 67, 83
1, 1484547, Note_off_c, 0, 65, 62
1, 1484585, Note_off_c, 0, 67, 64
1, 1484599, Control_c, 0, 64, 62
1, 1484614, Control_c, 0, 64, 111
1, 1484629, Control_c, 0, 64, 127
1, 1484649, Note_on_c, 0, 74, 93
1, 1484714, Note_off_c, 0, 74, 57
1, 1484730, Note_on_c, 0, 77, 80
1, 1484730, Note_on_c, 0, 79, 82
1, 1484732, Note_off_c, 0, 47, 59
1, 1484738, Note_off_c, 0, 59, 57
1, 1484743, Note_on_c, 0, 86, 63
1, 1484744, Note_off_c, 0, 53, 62
1, 1484748, Note_off_c, 0, 55, 56
1, 1484774, Note_off_c, 0, 86, 63
1, 1484786, Note_off_c, 0, 79, 56
1, 1484789, Note_off_c, 0, 77, 57
1, 1484807, Note_on_c, 0, 74, 83
1, 1484821, Note_on_c, 0, 59, 86
1, 1484822, Note_on_c, 0, 47, 82
1, 1484833, Note_on_c, 0, 53, 68
1, 1484846, Note_on_c, 0, 55, 56
1, 1484889, Note_on_c, 0, 86, 75
1, 1484892, Note_on_c, 0, 77, 78
1, 1484894, Note_on_c, 0, 79, 64
1, 1484896, Note_off_c, 0, 55, 44
1, 1484898, Note_off_c, 0, 74, 64
1, 1484911, Note_on_c, 0, 81, 55
1, 1484914, Note_off_c, 0, 86, 62
1, 1484916, Note_off_c, 0, 77, 62
1, 1484919, Note_off_c, 0, 53, 54
1, 1484921, Note_off_c, 0, 79, 64
1, 1484927, Note_off_c, 0, 47, 61
1, 1484927, Note_off_c, 0, 59, 58
1, 1484931, Note_off_c, 0, 81, 60
1, 1484947, Control_c, 0, 64, 70
1, 1484962, Control_c, 0, 64, 0
1, 1485026, Note_on_c, 0, 48, 86
1, 1485027, Note_on_c, 0, 75, 87
1, 1485051, Control_c, 0, 64, 19
1, 1485066, Control_c, 0, 64, 30
1, 1485081, Control_c, 0, 64, 26
1, 1485096, Control_c, 0, 64, 23
1, 1485110, Control_c, 0, 64, 20
1, 1485111, Note_on_c, 0, 84, 77
1, 1485117, Note_on_c, 0, 79, 72
1, 1485117, Note_off_c, 0, 75, 67
1, 1485125, Control_c, 0, 64, 10
1, 1485129, Note_on_c, 0, 87, 51
1, 1485134, Note_off_c, 0, 48, 59
1, 1485140, Control_c, 0, 64, 0
1, 1485146, Note_off_c, 0, 79, 62
1, 1485149, Note_off_c, 0, 84, 63
1, 1485152, Note_off_c, 0, 87, 58
1, 1485193, Note_on_c, 0, 51, 76
1, 1485194, Note_on_c, 0, 60, 80
1, 1485200, Control_c, 0, 64, 12
1, 1485206, Note_on_c, 0, 55, 56
1, 1485206, Note_on_c, 0, 79, 61
1, 1485212, Note_on_c, 0, 84, 64
1, 1485213, Note_on_c, 0, 87, 75
1, 1485215, Control_c, 0, 64, 18
1, 1485230, Control_c, 0, 64, 22
1, 1485234, Note_off_c, 0, 55, 66
1, 1485243, Note_off_c, 0, 60, 63
1, 1485245, Control_c, 0, 64, 23
1, 1485273, Note_off_c, 0, 51, 62
1, 1485274, Control_c, 0, 64, 21
1, 1485277, Note_on_c, 0, 75, 82
1, 1485280, Note_off_c, 0, 79, 60
1, 1485289, Control_c, 0, 64, 17
1, 1485293, Note_off_c, 0, 87, 61
1, 1485304, Control_c, 0, 64, 14
1, 1485304, Note_off_c, 0, 84, 60
1, 1485319, Control_c, 0, 64, 12
1, 1485323, Note_off_c, 0, 75, 66
1, 1485333, Control_c, 0, 64, 10
1, 1485363, Control_c, 0, 64, 12
1, 1485373, Note_on_c, 0, 41, 79
1, 1485387, Note_on_c, 0, 74, 80
1, 1485393, Control_c, 0, 64, 14
1, 1485405, Note_off_c, 0, 41, 67
1, 1485422, Control_c, 0, 64, 12
1, 1485437, Control_c, 0, 64, 8
1, 1485451, Control_c, 0, 64, 0
1, 1485452, Note_on_c, 0, 80, 73
1, 1485457, Note_on_c, 0, 77, 73
1, 1485460, Note_off_c, 0, 74, 65
1, 1485474, Note_on_c, 0, 86, 50
1, 1485482, Note_off_c, 0, 77, 66
1, 1485485, Note_off_c, 0, 80, 65
1, 1485496, Control_c, 0, 64, 8
1, 1485498, Note_off_c, 0, 86, 57
1, 1485511, Control_c, 0, 64, 17
1, 1485525, Control_c, 0, 64, 20
1, 1485540, Control_c, 0, 64, 23
1, 1485545, Note_on_c, 0, 53, 71
1, 1485546, Note_on_c, 0, 62, 72
1, 1485546, Note_on_c, 0, 80, 68
1, 1485549, Note_on_c, 0, 86, 67
1, 1485549, Note_on_c, 0, 77, 65
1, 1485551, Note_on_c, 0, 56, 62
1, 1485555, Control_c, 0, 64, 24
1, 1485578, Control_c, 0, 64, 26
1, 1485583, Note_off_c, 0, 62, 63
1, 1485591, Note_off_c, 0, 56, 63
1, 1485592, Control_c, 0, 64, 28
1, 1485599, Note_off_c, 0, 86, 59
1, 1485602, Note_off_c, 0, 77, 62
1, 1485606, Control_c, 0, 64, 29
1, 1485611, Note_off_c, 0, 53, 65
1, 1485619, Note_on_c, 0, 74, 80
1, 1485621, Control_c, 0, 64, 31
1, 1485630, Note_off_c, 0, 80, 62
1, 1485636, Control_c, 0, 64, 32
1, 1485650, Control_c, 0, 64, 32
1, 1485665, Control_c, 0, 64, 33
1, 1485666, Note_off_c, 0, 74, 64
1, 1485695, Control_c, 0, 64, 32
1, 1485710, Control_c, 0, 64, 32
1, 1485719, Note_on_c, 0, 43, 78
1, 1485725, Control_c, 0, 64, 31
1, 1485725, Note_on_c, 0, 72, 81
1, 1485755, Control_c, 0, 64, 32
1, 1485769, Note_off_c, 0, 43, 62
1, 1485769, Control_c, 0, 64, 32
1, 1485784, Control_c, 0, 64, 33
1, 1485804, Note_on_c, 0, 75, 71
1, 1485807, Note_on_c, 0, 79, 64
1, 1485808, Note_on_c, 0, 84, 62
1, 1485809, Note_off_c, 0, 72, 65
1, 1485829, Control_c, 0, 64, 32
1, 1485832, Note_off_c, 0, 75, 67
1, 1485835, Note_off_c, 0, 79, 64
1, 1485838, Note_off_c, 0, 84, 64
1, 1485844, Control_c, 0, 64, 32
1, 1485858, Control_c, 0, 64, 31
1, 1485888, Note_on_c, 0, 51, 72
1, 1485888, Control_c, 0, 64, 30
1, 1485889, Note_on_c, 0, 60, 69
1, 1485892, Note_on_c, 0, 75, 68
1, 1485895, Note_on_c, 0, 55, 56
1, 1485903, Note_on_c, 0, 84, 69
1, 1485912, Note_on_c, 0, 79, 66
1, 1485918, Control_c, 0, 64, 31
1, 1485919, Note_off_c, 0, 55, 62
1, 1485921, Note_off_c, 0, 60, 61
1, 1485932, Control_c, 0, 64, 32
1, 1485942, Note_off_c, 0, 84, 61
1, 1485947, Control_c, 0, 64, 33
1, 1485948, Note_off_c, 0, 51, 63
1, 1485962, Control_c, 0, 64, 33
1, 1485966, Note_off_c, 0, 79, 61
1, 1485972, Note_on_c, 0, 72, 67
1, 1485972, Note_off_c, 0, 75, 63
1, 1485992, Control_c, 0, 64, 33
1, 1485998, Note_off_c, 0, 72, 64
1, 1486008, Control_c, 0, 64, 32
1, 1486022, Control_c, 0, 64, 29
1, 1486037, Control_c, 0, 64, 28
1, 1486047, Note_on_c, 0, 43, 79
1, 1486052, Control_c, 0, 64, 28
1, 1486067, Note_on_c, 0, 71, 73
1, 1486097, Note_off_c, 0, 43, 62
1, 1486125, Note_on_c, 0, 74, 72
1, 1486126, Control_c, 0, 64, 26
1, 1486133, Note_off_c, 0, 71, 61
1, 1486141, Control_c, 0, 64, 23
1, 1486145, Note_on_c, 0, 79, 35
1, 1486155, Control_c, 0, 64, 18
1, 1486157, Note_off_c, 0, 74, 62
1, 1486170, Control_c, 0, 64, 10
1, 1486178, Note_off_c, 0, 79, 44
1, 1486185, Control_c, 0, 64, 0
1, 1486207, Note_on_c, 0, 55, 67
1, 1486208, Note_on_c, 0, 83, 67
1, 1486211, Note_on_c, 0, 50, 65
1, 1486214, Note_on_c, 0, 59, 66
1, 1486230, Note_on_c, 0, 74, 56
1, 1486232, Note_on_c, 0, 79, 60
1, 1486232, Note_off_c, 0, 55, 66
1, 1486243, Note_off_c, 0, 59, 64
1, 1486246, Note_off_c, 0, 50, 66
1, 1486255, Note_off_c, 0, 83, 58
1, 1486264, Note_off_c, 0, 74, 66
1, 1486270, Note_off_c, 0, 79, 61
1, 1486289, Note_on_c, 0, 71, 77
1, 1486330, Note_off_c, 0, 71, 61
1, 1486411, Note_on_c, 0, 59, 74
1, 1486413, Note_on_c, 0, 56, 64
1, 1486414, Note_on_c, 0, 53, 66
1, 1486415, Note_on_c, 0, 47, 63
1, 1486497, Note_on_c, 0, 62, 69
1, 1486565, Note_off_c, 0, 62, 60
1, 1486570, Note_on_c, 0, 65, 74
1, 1486643, Note_off_c, 0, 65, 60
1, 1486657, Note_on_c, 0, 68, 70
1, 1486685, Note_off_c, 0, 68, 68
1, 1486726, Control_c, 0, 64, 64
1, 1486741, Control_c, 0, 64, 91
1, 1486755, Control_c, 0, 64, 127
1, 1486770, Note_on_c, 0, 74, 78
1, 1486832, Note_off_c, 0, 53, 61
1, 1486832, Note_off_c, 0, 56, 58
1, 1486835, Note_off_c, 0, 59, 59
1, 1486837, Note_off_c, 0, 47, 57
1, 1486840, Note_off_c, 0, 74, 60
1, 1486867, Note_on_c, 0, 80, 62
1, 1486875, Note_on_c, 0, 86, 60
1, 1486876, Note_on_c, 0, 77, 52
1, 1486903, Note_off_c, 0, 77, 59
1, 1486907, Note_off_c, 0, 86, 64
1, 1486917, Note_off_c, 0, 80, 63
1, 1486934, Control_c, 0, 64, 105
1, 1486937, Note_on_c, 0, 56, 60
1, 1486937, Note_on_c, 0, 59, 68
1, 1486942, Note_on_c, 0, 74, 69
1, 1486945, Note_on_c, 0, 47, 59
1, 1486949, Control_c, 0, 64, 87
1, 1486964, Control_c, 0, 64, 75
1, 1486968, Note_on_c, 0, 53, 38
1, 1486978, Control_c, 0, 64, 67
1, 1486992, Note_off_c, 0, 53, 54
1, 1486993, Control_c, 0, 64, 59
1, 1486999, Note_off_c, 0, 47, 44
1, 1487004, Note_off_c, 0, 59, 57
1, 1487008, Control_c, 0, 64, 26
1, 1487012, Note_off_c, 0, 56, 60
1, 1487022, Note_on_c, 0, 80, 73
1, 1487022, Control_c, 0, 64, 0
1, 1487032, Note_on_c, 0, 77, 61
1, 1487033, Note_off_c, 0, 74, 57
1, 1487054, Note_off_c, 0, 77, 64
1, 1487057, Note_off_c, 0, 80, 64
1, 1487142, Note_on_c, 0, 59, 68
1, 1487143, Note_on_c, 0, 53, 61
1, 1487144, Note_on_c, 0, 47, 60
1, 1487152, Note_on_c, 0, 55, 56
1, 1487215, Note_on_c, 0, 62, 71
1, 1487273, Note_off_c, 0, 62, 60
1, 1487299, Note_on_c, 0, 65, 68
1, 1487357, Control_c, 0, 64, 18
1, 1487367, Note_off_c, 0, 65, 56
1, 1487371, Control_c, 0, 64, 61
1, 1487373, Note_on_c, 0, 67, 72
1, 1487386, Control_c, 0, 64, 68
1, 1487401, Control_c, 0, 64, 71
1, 1487406, Note_off_c, 0, 67, 58
1, 1487483, Note_on_c, 0, 74, 80
1, 1487531, Note_off_c, 0, 47, 48
1, 1487540, Note_off_c, 0, 59, 58
1, 1487541, Note_off_c, 0, 53, 57
1, 1487546, Note_off_c, 0, 55, 57
1, 1487549, Control_c, 0, 64, 70
1, 1487552, Note_off_c, 0, 74, 63
1, 1487562, Note_on_c, 0, 79, 72
1, 1487563, Note_on_c, 0, 77, 68
1, 1487564, Control_c, 0, 64, 70
1, 1487579, Control_c, 0, 64, 69
1, 1487582, Note_on_c, 0, 86, 54
1, 1487594, Control_c, 0, 64, 69
1, 1487597, Note_off_c, 0, 77, 56
1, 1487607, Note_off_c, 0, 86, 60
1, 1487609, Control_c, 0, 64, 68
1, 1487616, Note_off_c, 0, 79, 60
1, 1487624, Control_c, 0, 64, 68
1, 1487642, Note_on_c, 0, 47, 76
1, 1487642, Note_on_c, 0, 74, 78
1, 1487648, Note_on_c, 0, 59, 62
1, 1487656, Note_on_c, 0, 53, 52
1, 1487668, Control_c, 0, 64, 67
1, 1487680, Note_on_c, 0, 55, 34
1, 1487695, Note_off_c, 0, 53, 61
1, 1487698, Control_c, 0, 64, 67
1, 1487704, Note_on_c, 0, 86, 57
1, 1487710, Note_off_c, 0, 47, 62
1, 1487713, Control_c, 0, 64, 66
1, 1487716, Note_off_c, 0, 74, 64
1, 1487716, Note_off_c, 0, 55, 52
1, 1487722, Note_off_c, 0, 59, 60
1, 1487724, Note_off_c, 0, 86, 61
1, 1487726, Note_on_c, 0, 77, 49
1, 1487728, Control_c, 0, 64, 65
1, 1487733, Note_on_c, 0, 81, 39
1, 1487743, Control_c, 0, 64, 63
1, 1487755, Note_off_c, 0, 77, 50
1, 1487758, Control_c, 0, 64, 61
1, 1487763, Note_off_c, 0, 81, 34
1, 1487773, Control_c, 0, 64, 58
1, 1487788, Control_c, 0, 64, 54
1, 1487802, Control_c, 0, 64, 50
1, 1487824, Control_c, 0, 64, 49
1, 1487835, Note_on_c, 0, 75, 71
1, 1487837, Note_on_c, 0, 48, 74
1, 1487839, Control_c, 0, 64, 49
1, 1487868, Control_c, 0, 64, 49
1, 1487904, Note_on_c, 0, 79, 59
1, 1487906, Note_on_c, 0, 84, 64
1, 1487911, Note_off_c, 0, 75, 63
1, 1487916, Note_on_c, 0, 87, 53
1, 1487928, Control_c, 0, 64, 49
1, 1487931, Note_off_c, 0, 48, 57
1, 1487936, Note_off_c, 0, 84, 66
1, 1487937, Note_off_c, 0, 87, 63
1, 1487943, Control_c, 0, 64, 47
1, 1487946, Note_off_c, 0, 79, 60
1, 1487957, Control_c, 0, 64, 45
1, 1487972, Control_c, 0, 64, 44
1, 1487987, Control_c, 0, 64, 43
1, 1487996, Note_on_c, 0, 79, 52
1, 1487999, Note_on_c, 0, 51, 69
1, 1488002, Control_c, 0, 64, 42
1, 1488004, Note_on_c, 0, 60, 67
1, 1488006, Note_on_c, 0, 87, 69
1, 1488015, Note_on_c, 0, 84, 70
1, 1488017, Control_c, 0, 64, 42
1, 1488032, Control_c, 0, 64, 41
1, 1488035, Note_on_c, 0, 55, 23
1, 1488046, Control_c, 0, 64, 36
1, 1488051, Note_off_c, 0, 60, 60
1, 1488061, Control_c, 0, 64, 0
1, 1488063, Note_off_c, 0, 79, 60
1, 1488063, Note_off_c, 0, 87, 61
1, 1488074, Note_off_c, 0, 84, 63
1, 1488074, Note_off_c, 0, 51, 63
1, 1488077, Note_on_c, 0, 75, 64
1, 1488079, Note_off_c, 0, 55, 39
1, 1488104, Note_off_c, 0, 75, 68
1, 1488120, Control_c, 0, 64, 55
1, 1488135, Control_c, 0, 64, 71
1, 1488150, Control_c, 0, 64, 96
1, 1488165, Control_c, 0, 64, 100
1, 1488168, Note_on_c, 0, 72, 84
1, 1488178, Note_on_c, 0, 44, 68
1, 1488180, Control_c, 0, 64, 83
1, 1488194, Control_c, 0, 64, 66
1, 1488209, Control_c, 0, 64, 52
1, 1488216, Note_off_c, 0, 44, 64
1, 1488224, Control_c, 0, 64, 0
1, 1488238, Note_off_c, 0, 72, 52
1, 1488250, Note_on_c, 0, 75, 72
1, 1488250, Note_on_c, 0, 80, 61
1, 1488269, Note_on_c, 0, 84, 46
1, 1488273, Note_off_c, 0, 80, 67
1, 1488276, Note_off_c, 0, 75, 67
1, 1488297, Note_off_c, 0, 84, 53
1, 1488335, Note_on_c, 0, 80, 79
1, 1488336, Note_on_c, 0, 75, 74
1, 1488346, Note_on_c, 0, 56, 52
1, 1488350, Note_on_c, 0, 60, 58
1, 1488354, Note_on_c, 0, 51, 59
1, 1488363, Note_on_c, 0, 84, 27
1, 1488376, Note_off_c, 0, 56, 65
1, 1488381, Note_off_c, 0, 60, 65
1, 1488404, Note_off_c, 0, 84, 41
1, 1488407, Note_off_c, 0, 51, 60
1, 1488411, Note_off_c, 0, 80, 62
1, 1488416, Note_on_c, 0, 72, 59
1, 1488421, Note_off_c, 0, 75, 60
1, 1488434, Note_off_c, 0, 72, 64
1, 1488508, Note_on_c, 0, 70, 75
1, 1488516, Note_on_c, 0, 46, 56
1, 1488542, Note_off_c, 0, 46, 57
1, 1488596, Note_on_c, 0, 79, 53
1, 1488601, Note_off_c, 0, 70, 61
1, 1488607, Note_on_c, 0, 75, 48
1, 1488621, Note_off_c, 0, 79, 62
1, 1488631, Note_off_c, 0, 75, 63
1, 1488676, Note_on_c, 0, 82, 6
1, 1488689, Note_on_c, 0, 63, 50
1, 1488692, Note_on_c, 0, 58, 49
1, 1488695, Note_on_c, 0, 55, 48
1, 1488695, Note_on_c, 0, 75, 47
1, 1488696, Note_on_c, 0, 79, 65
1, 1488725, Note_off_c, 0, 63, 63
1, 1488732, Note_off_c, 0, 55, 65
1, 1488735, Note_off_c, 0, 58, 62
1, 1488750, Control_c, 0, 67, 8
1, 1488751, Note_off_c, 0, 75, 64
1, 1488758, Note_off_c, 0, 82, 56
1, 1488765, Control_c, 0, 67, 17
1, 1488769, Note_on_c, 0, 70, 67
1, 1488777, Note_off_c, 0, 79, 59
1, 1488780, Control_c, 0, 67, 24
1, 1488795, Control_c, 0, 67, 29
1, 1488810, Control_c, 0, 67, 32
1, 1488813, Note_off_c, 0, 70, 57
1, 1488825, Control_c, 0, 67, 35
1, 1488840, Control_c, 0, 67, 37
1, 1488855, Control_c, 0, 67, 40
1, 1488869, Control_c, 0, 67, 42
1, 1488884, Control_c, 0, 67, 46
1, 1488890, Note_on_c, 0, 46, 56
1, 1488899, Control_c, 0, 67, 50
1, 1488899, Note_on_c, 0, 70, 59
1, 1488914, Control_c, 0, 67, 55
1, 1488927, Note_off_c, 0, 46, 64
1, 1488929, Control_c, 0, 67, 59
1, 1488944, Control_c, 0, 67, 63
1, 1488958, Control_c, 0, 67, 65
1, 1488972, Note_on_c, 0, 82, 59
1, 1488973, Control_c, 0, 67, 67
1, 1488988, Control_c, 0, 67, 67
1, 1488989, Note_on_c, 0, 74, 48
1, 1488992, Note_off_c, 0, 70, 59
1, 1488995, Note_on_c, 0, 77, 36
1, 1489006, Note_off_c, 0, 82, 61
1, 1489020, Note_off_c, 0, 74, 62
1, 1489026, Note_off_c, 0, 77, 53
1, 1489093, Note_on_c, 0, 82, 55
1, 1489100, Note_on_c, 0, 65, 36
1, 1489111, Note_on_c, 0, 68, 34
1, 1489117, Note_on_c, 0, 58, 34
1, 1489117, Note_on_c, 0, 77, 56
1, 1489121, Control_c, 0, 67, 67
1, 1489129, Note_on_c, 0, 74, 32
1, 1489145, Note_off_c, 0, 68, 53
1, 1489165, Control_c, 0, 67, 66
1, 1489169, Note_off_c, 0, 65, 41
1, 1489174, Note_off_c, 0, 74, 50
1, 1489192, Note_off_c, 0, 77, 59
1, 1489196, Control_c, 0, 67, 66
1, 1489198, Note_on_c, 0, 70, 57
1, 1489203, Note_off_c, 0, 82, 36
1, 1489244, Note_off_c, 0, 58, 37
1, 1489251, Note_off_c, 0, 70, 59
1, 1489255, Control_c, 0, 67, 65
1, 1489336, Control_c, 0, 67, 65
1, 1489366, Control_c, 0, 67, 64
1, 1489380, Control_c, 0, 67, 64
1, 1489410, Control_c, 0, 67, 63
1, 1489424, Control_c, 0, 67, 63
1, 1489439, Control_c, 0, 67, 62
1, 1489454, Control_c, 0, 67, 62
1, 1489458, Note_on_c, 0, 74, 51
1, 1489469, Control_c, 0, 64, 34
1, 1489469, Control_c, 0, 67, 61
1, 1489484, Control_c, 0, 64, 55
1, 1489484, Control_c, 0, 67, 60
1, 1489496, Note_on_c, 0, 77, 62
1, 1489499, Control_c, 0, 64, 65
1, 1489499, Control_c, 0, 67, 60
1, 1489513, Control_c, 0, 64, 74
1, 1489513, Control_c, 0, 67, 59
1, 1489528, Control_c, 0, 64, 96
1, 1489528, Control_c, 0, 67, 59
1, 1489531, Note_on_c, 0, 80, 71
1, 1489543, Control_c, 0, 64, 127
1, 1489558, Control_c, 0, 67, 58
1, 1489573, Control_c, 0, 67, 58
1, 1489588, Control_c, 0, 67, 57
1, 1489593, Note_on_c, 0, 84, 81
1, 1489600, Note_off_c, 0, 77, 60
1, 1489603, Control_c, 0, 67, 56
1, 1489618, Control_c, 0, 67, 54
1, 1489618, Note_off_c, 0, 74, 38
1, 1489622, Note_on_c, 0, 46, 52
1, 1489632, Control_c, 0, 67, 52
1, 1489647, Control_c, 0, 67, 51
1, 1489662, Control_c, 0, 67, 50
1, 1489677, Control_c, 0, 67, 49
1, 1489681, Note_off_c, 0, 80, 55
1, 1489683, Note_off_c, 0, 46, 61
1, 1489691, Control_c, 0, 67, 48
1, 1489706, Control_c, 0, 67, 47
1, 1489721, Control_c, 0, 67, 46
1, 1489736, Control_c, 0, 67, 45
1, 1489751, Control_c, 0, 67, 43
1, 1489766, Control_c, 0, 67, 42
1, 1489780, Control_c, 0, 67, 40
1, 1489795, Control_c, 0, 67, 39
1, 1489803, Note_on_c, 0, 82, 71
1, 1489810, Control_c, 0, 67, 38
1, 1489824, Control_c, 0, 67, 37
1, 1489839, Control_c, 0, 67, 36
1, 1489869, Control_c, 0, 67, 36
1, 1489884, Control_c, 0, 67, 35
1, 1489898, Control_c, 0, 67, 34
1, 1489913, Control_c, 0, 67, 33
1, 1489928, Control_c, 0, 67, 31
1, 1489934, Note_off_c, 0, 84, 55
1, 1489943, Control_c, 0, 67, 30
1, 1489951, Note_on_c, 0, 80, 67
1, 1489954, Note_on_c, 0, 68, 47
1, 1489958, Control_c, 0, 67, 29
1, 1489968, Note_on_c, 0, 65, 42
1, 1489973, Note_on_c, 0, 58, 41
1, 1489973, Control_c, 0, 67, 27
1, 1489978, Note_on_c, 0, 62, 35
1, 1489988, Control_c, 0, 67, 25
1, 1490003, Control_c, 0, 67, 23
1, 1490018, Control_c, 0, 67, 21
1, 1490033, Control_c, 0, 67, 19
1, 1490043, Note_off_c, 0, 82, 49
1, 1490047, Control_c, 0, 67, 18
1, 1490068, Note_on_c, 0, 79, 64
1, 1490070, Control_c, 0, 67, 17
1, 1490085, Control_c, 0, 67, 15
1, 1490100, Control_c, 0, 67, 14
1, 1490107, Note_off_c, 0, 80, 59
1, 1490115, Control_c, 0, 67, 12
1, 1490129, Control_c, 0, 67, 10
1, 1490140, Note_off_c, 0, 79, 61
1, 1490144, Control_c, 0, 67, 0
1, 1490158, Note_on_c, 0, 77, 67
1, 1490244, Note_off_c, 0, 77, 59
1, 1490250, Note_on_c, 0, 75, 61
1, 1490337, Note_on_c, 0, 74, 61
1, 1490351, Note_off_c, 0, 75, 49
1, 1490399, Note_off_c, 0, 74, 63
1, 1490420, Note_on_c, 0, 72, 60
1, 1490485, Note_off_c, 0, 72, 59
1, 1490497, Note_off_c, 0, 68, 56
1, 1490508, Note_on_c, 0, 70, 64
1, 1490561, Note_off_c, 0, 70, 61
1, 1490599, Note_on_c, 0, 72, 61
1, 1490607, Note_off_c, 0, 62, 39
1, 1490615, Note_off_c, 0, 58, 58
1, 1490625, Note_off_c, 0, 65, 32
1, 1490664, Note_off_c, 0, 72, 45
1, 1490684, Note_on_c, 0, 74, 58
1, 1490760, Note_off_c, 0, 74, 55
1, 1490773, Note_on_c, 0, 75, 64
1, 1490834, Control_c, 0, 67, 9
1, 1490849, Control_c, 0, 67, 10
1, 1490849, Note_off_c, 0, 75, 64
1, 1490864, Control_c, 0, 64, 106
1, 1490864, Control_c, 0, 67, 11
1, 1490878, Control_c, 0, 64, 88
1, 1490878, Control_c, 0, 67, 13
1, 1490879, Note_on_c, 0, 77, 61
1, 1490893, Control_c, 0, 64, 74
1, 1490893, Control_c, 0, 67, 14
1, 1490908, Control_c, 0, 64, 63
1, 1490908, Control_c, 0, 67, 15
1, 1490923, Control_c, 0, 64, 29
1, 1490923, Control_c, 0, 67, 17
1, 1490938, Control_c, 0, 64, 0
1, 1490938, Control_c, 0, 67, 19
1, 1490952, Control_c, 0, 67, 21
1, 1490967, Control_c, 0, 67, 23
1, 1490978, Note_on_c, 0, 79, 59
1, 1490982, Control_c, 0, 67, 25
1, 1490986, Note_off_c, 0, 77, 50
1, 1490997, Control_c, 0, 67, 27
1, 1491012, Control_c, 0, 67, 30
1, 1491026, Control_c, 0, 67, 34
1, 1491041, Control_c, 0, 67, 39
1, 1491056, Control_c, 0, 67, 43
1, 1491064, Note_off_c, 0, 79, 58
1, 1491070, Control_c, 0, 67, 46
1, 1491078, Note_on_c, 0, 80, 61
1, 1491085, Control_c, 0, 67, 49
1, 1491100, Control_c, 0, 67, 51
1, 1491115, Control_c, 0, 67, 52
1, 1491130, Control_c, 0, 67, 53
1, 1491144, Control_c, 0, 67, 53
1, 1491159, Control_c, 0, 67, 54
1, 1491167, Note_on_c, 0, 81, 50
1, 1491174, Control_c, 0, 67, 55
1, 1491189, Control_c, 0, 67, 56
1, 1491204, Control_c, 0, 67, 57
1, 1491219, Control_c, 0, 67, 60
1, 1491233, Control_c, 0, 67, 66
1, 1491248, Control_c, 0, 67, 75
1, 1491262, Note_off_c, 0, 80, 19
1, 1491263, Control_c, 0, 67, 84
1, 1491266, Note_on_c, 0, 82, 61
1, 1491271, Note_on_c, 0, 51, 53
1, 1491278, Control_c, 0, 67, 93
1, 1491284, Note_off_c, 0, 81, 44
1, 1491293, Control_c, 0, 67, 103
1, 1491299, Note_off_c, 0, 51, 63
1, 1491308, Control_c, 0, 67, 114
1, 1491323, Control_c, 0, 67, 122
1, 1491337, Control_c, 0, 67, 127
1, 1491360, Note_off_c, 0, 82, 54
1, 1491364, Note_on_c, 0, 79, 58
1, 1491439, Note_off_c, 0, 79, 58
1, 1491461, Note_on_c, 0, 58, 61
1, 1491462, Note_on_c, 0, 67, 57
1, 1491468, Note_on_c, 0, 75, 54
1, 1491481, Note_off_c, 0, 58, 65
1, 1491487, Note_off_c, 0, 67, 66
1, 1491504, Note_off_c, 0, 75, 65
1, 1491537, Note_on_c, 0, 70, 64
1, 1491549, Note_on_c, 0, 58, 70
1, 1491554, Note_on_c, 0, 67, 67
1, 1491583, Note_off_c, 0, 58, 66
1, 1491588, Note_off_c, 0, 67, 64
1, 1491606, Note_off_c, 0, 70, 55
1, 1491647, Note_on_c, 0, 70, 44
1, 1491659, Note_on_c, 0, 58, 68
1, 1491665, Note_on_c, 0, 67, 62
1, 1491684, Note_off_c, 0, 58, 67
1, 1491693, Note_off_c, 0, 67, 64
1, 1491719, Note_off_c, 0, 70, 61
1, 1491750, Note_on_c, 0, 72, 54
1, 1491808, Note_off_c, 0, 72, 62
1, 1491836, Note_on_c, 0, 66, 65
1, 1491847, Note_on_c, 0, 69, 50
1, 1491857, Note_on_c, 0, 58, 42
1, 1491907, Note_off_c, 0, 69, 48
1, 1491938, Note_on_c, 0, 72, 49
1, 1491992, Note_off_c, 0, 72, 52
1, 1492012, Note_off_c, 0, 66, 63
1, 1492020, Note_on_c, 0, 67, 57
1, 1492029, Note_on_c, 0, 70, 56
1, 1492047, Note_off_c, 0, 58, 63
1, 1492047, Note_off_c, 0, 67, 67
1, 1492073, Note_off_c, 0, 70, 61
1, 1492128, Note_on_c, 0, 67, 41
1, 1492181, Note_off_c, 0, 67, 51
1, 1492210, Note_on_c, 0, 55, 49
1, 1492220, Note_on_c, 0, 70, 51
1, 1492269, Note_off_c, 0, 70, 53
1, 1492295, Note_off_c, 0, 55, 63
1, 1492300, Note_on_c, 0, 58, 53
1, 1492322, Note_on_c, 0, 75, 50
1, 1492390, Control_c, 0, 64, 12
1, 1492396, Note_off_c, 0, 75, 64
1, 1492399, Note_off_c, 0, 58, 57
1, 1492405, Control_c, 0, 64, 57
1, 1492412, Note_on_c, 0, 79, 51
1, 1492413, Note_on_c, 0, 63, 52
1, 1492420, Control_c, 0, 64, 63
1, 1492435, Control_c, 0, 64, 64
1, 1492462, Note_off_c, 0, 63, 62
1, 1492467, Note_off_c, 0, 79, 44
1, 1492491, Note_on_c, 0, 75, 52
1, 1492578, Note_on_c, 0, 70, 59
1, 1492597, Control_c, 0, 64, 63
1, 1492602, Note_off_c, 0, 75, 60
1, 1492612, Control_c, 0, 64, 60
1, 1492627, Control_c, 0, 64, 47
1, 1492641, Control_c, 0, 64, 0
1, 1492646, Note_off_c, 0, 70, 63
1, 1492664, Note_on_c, 0, 67, 46
1, 1492691, Note_off_c, 0, 67, 58
1, 1492760, Note_on_c, 0, 70, 65
1, 1492763, Note_on_c, 0, 46, 64
1, 1492772, Note_on_c, 0, 68, 54
1, 1492781, Note_on_c, 0, 65, 49
1, 1492788, Note_off_c, 0, 70, 65
1, 1492793, Note_off_c, 0, 68, 62
1, 1492804, Note_off_c, 0, 65, 59
1, 1492847, Note_off_c, 0, 46, 61
1, 1492858, Note_on_c, 0, 50, 58
1, 1492932, Note_on_c, 0, 65, 49
1, 1492936, Note_on_c, 0, 70, 55
1, 1492939, Note_off_c, 0, 50, 62
1, 1492941, Note_on_c, 0, 53, 69
1, 1492957, Note_off_c, 0, 70, 62
1, 1492962, Note_off_c, 0, 65, 61
1, 1492980, Note_off_c, 0, 53, 65
1, 1493016, Note_on_c, 0, 70, 74
1, 1493019, Note_on_c, 0, 58, 66
1, 1493035, Note_on_c, 0, 65, 56
1, 1493041, Note_off_c, 0, 70, 65
1, 1493064, Note_off_c, 0, 65, 62
1, 1493069, Note_off_c, 0, 58, 58
1, 1493115, Note_on_c, 0, 72, 74
1, 1493126, Note_on_c, 0, 62, 65
1, 1493130, Note_on_c, 0, 65, 62
1, 1493150, Note_off_c, 0, 65, 64
1, 1493157, Note_off_c, 0, 62, 62
1, 1493168, Note_off_c, 0, 72, 64
1, 1493210, Note_on_c, 0, 58, 61
1, 1493276, Note_off_c, 0, 58, 63
1, 1493285, Note_on_c, 0, 62, 67
1, 1493293, Note_on_c, 0, 70, 69
1, 1493311, Note_on_c, 0, 65, 49
1, 1493330, Note_on_c, 0, 68, 13
1, 1493340, Note_off_c, 0, 65, 57
1, 1493347, Note_off_c, 0, 62, 56
1, 1493350, Note_off_c, 0, 70, 59
1, 1493373, Note_off_c, 0, 68, 45
1, 1493380, Note_on_c, 0, 58, 65
1, 1493436, Note_off_c, 0, 58, 61
1, 1493469, Note_on_c, 0, 70, 66
1, 1493479, Note_on_c, 0, 63, 63
1, 1493483, Note_on_c, 0, 67, 50
1, 1493510, Note_off_c, 0, 63, 64
1, 1493512, Note_off_c, 0, 67, 64
1, 1493569, Note_off_c, 0, 70, 56
1, 1493574, Note_on_c, 0, 75, 53
1, 1493641, Note_on_c, 0, 56, 59
1, 1493643, Note_off_c, 0, 75, 54
1, 1493654, Note_on_c, 0, 74, 49
1, 1493657, Note_on_c, 0, 51, 43
1, 1493679, Note_on_c, 0, 68, 18
1, 1493725, Note_off_c, 0, 68, 51
1, 1493740, Note_on_c, 0, 60, 58
1, 1493740, Note_on_c, 0, 72, 60
1, 1493748, Note_off_c, 0, 74, 55
1, 1493809, Note_off_c, 0, 56, 47
1, 1493818, Note_off_c, 0, 72, 63
1, 1493836, Note_off_c, 0, 60, 60
1, 1493841, Note_on_c, 0, 67, 46
1, 1493844, Note_on_c, 0, 63, 62
1, 1493844, Note_on_c, 0, 70, 54
1, 1493866, Note_off_c, 0, 67, 57
1, 1493867, Note_off_c, 0, 70, 64
1, 1493881, Note_off_c, 0, 63, 61
1, 1493888, Note_off_c, 0, 51, 59
1, 1493944, Note_on_c, 0, 70, 63
1, 1494033, Note_on_c, 0, 75, 61
1, 1494049, Note_off_c, 0, 70, 59
1, 1494117, Note_on_c, 0, 79, 64
1, 1494122, Note_off_c, 0, 75, 57
1, 1494202, Note_on_c, 0, 82, 68
1, 1494204, Note_off_c, 0, 79, 59
1, 1494208, Note_on_c, 0, 51, 56
1, 1494240, Note_off_c, 0, 51, 64
1, 1494298, Note_on_c, 0, 79, 51
1, 1494298, Note_off_c, 0, 82, 58
1, 1494375, Note_on_c, 0, 75, 57
1, 1494377, Note_off_c, 0, 79, 55
1, 1494378, Note_on_c, 0, 67, 66
1, 1494381, Note_on_c, 0, 58, 60
1, 1494402, Note_off_c, 0, 58, 65
1, 1494405, Note_off_c, 0, 67, 65
1, 1494416, Note_off_c, 0, 75, 63
1, 1494450, Note_on_c, 0, 70, 61
1, 1494465, Note_on_c, 0, 58, 73
1, 1494467, Note_on_c, 0, 67, 67
1, 1494489, Note_off_c, 0, 58, 68
1, 1494493, Note_off_c, 0, 67, 64
1, 1494493, Note_off_c, 0, 70, 56
1, 1494531, Note_on_c, 0, 70, 53
1, 1494566, Note_on_c, 0, 67, 72
1, 1494567, Note_on_c, 0, 58, 73
1, 1494592, Note_off_c, 0, 58, 67
1, 1494595, Note_off_c, 0, 67, 60
1, 1494613, Note_off_c, 0, 70, 61
1, 1494626, Note_on_c, 0, 72, 61
1, 1494688, Note_off_c, 0, 72, 63
1, 1494724, Note_on_c, 0, 69, 62
1, 1494727, Note_on_c, 0, 66, 76
1, 1494736, Note_on_c, 0, 58, 64
1, 1494790, Note_off_c, 0, 69, 58
1, 1494814, Note_on_c, 0, 72, 59
1, 1494879, Note_off_c, 0, 72, 58
1, 1494888, Note_off_c, 0, 66, 64
1, 1494904, Note_on_c, 0, 67, 61
1, 1494906, Note_on_c, 0, 70, 60
1, 1494921, Note_off_c, 0, 58, 61
1, 1494931, Note_off_c, 0, 67, 66
1, 1494958, Note_off_c, 0, 70, 60
1, 1495007, Note_on_c, 0, 67, 55
1, 1495051, Note_off_c, 0, 67, 51
1, 1495088, Note_on_c, 0, 55, 50
1, 1495097, Note_on_c, 0, 70, 57
1, 1495174, Note_on_c, 0, 58, 60
1, 1495179, Note_off_c, 0, 55, 60
1, 1495186, Note_on_c, 0, 75, 55
1, 1495187, Note_off_c, 0, 70, 50
1, 1495244, Control_c, 0, 64, 56
1, 1495259, Control_c, 0, 64, 68
1, 1495261, Note_off_c, 0, 75, 64
1, 1495264, Note_on_c, 0, 79, 63
1, 1495273, Note_on_c, 0, 63, 59
1, 1495274, Control_c, 0, 64, 72
1, 1495289, Control_c, 0, 64, 73
1, 1495296, Note_off_c, 0, 58, 61
1, 1495304, Control_c, 0, 64, 74
1, 1495337, Note_off_c, 0, 79, 43
1, 1495338, Note_off_c, 0, 63, 59
1, 1495358, Note_on_c, 0, 75, 60
1, 1495385, Control_c, 0, 64, 70
1, 1495400, Control_c, 0, 64, 63
1, 1495415, Control_c, 0, 64, 33
1, 1495430, Control_c, 0, 64, 0
1, 1495448, Note_on_c, 0, 70, 61
1, 1495473, Note_off_c, 0, 75, 56
1, 1495516, Note_off_c, 0, 70, 63
1, 1495531, Note_on_c, 0, 67, 50
1, 1495554, Note_off_c, 0, 67, 60
1, 1495648, Note_on_c, 0, 53, 55
1, 1495661, Note_on_c, 0, 77, 68
1, 1495666, Note_on_c, 0, 72, 61
1, 1495689, Note_off_c, 0, 77, 64
1, 1495694, Note_off_c, 0, 72, 66
1, 1495724, Note_off_c, 0, 53, 60
1, 1495747, Note_on_c, 0, 57, 53
1, 1495821, Note_off_c, 0, 57, 52
1, 1495845, Note_on_c, 0, 72, 59
1, 1495846, Note_on_c, 0, 77, 62
1, 1495848, Note_on_c, 0, 60, 54
1, 1495865, Note_off_c, 0, 77, 65
1, 1495874, Note_off_c, 0, 72, 67
1, 1495878, Note_off_c, 0, 60, 64
1, 1495916, Poly_aftertouch_c, 0, 75, 0
1, 1495934, Note_on_c, 0, 77, 76
1, 1495940, Note_on_c, 0, 65, 61
1, 1495943, Note_on_c, 0, 72, 63
1, 1495958, Note_off_c, 0, 77, 64
1, 1495966, Poly_aftertouch_c, 0, 75, 0
1, 1495971, Note_off_c, 0, 72, 68
1, 1496021, Note_off_c, 0, 65, 53
1, 1496027, Note_on_c, 0, 79, 76
1, 1496034, Note_on_c, 0, 69, 54
1, 1496052, Note_on_c, 0, 72, 49
1, 1496071, Note_off_c, 0, 69, 68
1, 1496079, Note_off_c, 0, 72, 61
1, 1496084, Note_off_c, 0, 79, 58
1, 1496139, Note_on_c, 0, 65, 36
1, 1496216, Note_on_c, 0, 69, 54
1, 1496220, Note_on_c, 0, 77, 72
1, 1496231, Note_on_c, 0, 72, 50
1, 1496237, Note_off_c, 0, 65, 40
1, 1496246, Note_off_c, 0, 69, 69
1, 1496253, Note_off_c, 0, 72, 61
1, 1496262, Note_off_c, 0, 77, 56
1, 1496331, Note_on_c, 0, 65, 42
1, 1496361, Note_off_c, 0, 65, 55
1, 1496410, Note_on_c, 0, 53, 57
1, 1496412, Note_on_c, 0, 77, 69
1, 1496419, Note_on_c, 0, 74, 54
1, 1496440, Note_off_c, 0, 77, 63
1, 1496444, Note_off_c, 0, 74, 65
1, 1496459, Note_off_c, 0, 53, 58
1, 1496507, Note_on_c, 0, 58, 49
1, 1496572, Note_off_c, 0, 58, 60
1, 1496599, Note_on_c, 0, 77, 63
1, 1496599, Note_on_c, 0, 62, 62
1, 1496612, Note_on_c, 0, 74, 34
1, 1496618, Note_off_c, 0, 77, 65
1, 1496627, Note_off_c, 0, 62, 65
1, 1496640, Note_off_c, 0, 74, 53
1, 1496671, Note_on_c, 0, 65, 62
1, 1496692, Note_on_c, 0, 77, 60
1, 1496712, Note_off_c, 0, 77, 62
1, 1496714, Note_on_c, 0, 74, 31
1, 1496717, Note_off_c, 0, 65, 56
1, 1496745, Note_off_c, 0, 74, 49
1, 1496770, Note_on_c, 0, 70, 56
1, 1496770, Note_on_c, 0, 86, 81
1, 1496787, Note_on_c, 0, 77, 51
1, 1496808, Note_on_c, 0, 74, 29
1, 1496812, Note_off_c, 0, 70, 64
1, 1496817, Note_off_c, 0, 77, 54
1, 1496832, Note_off_c, 0, 86, 61
1, 1496841, Note_off_c, 0, 74, 48
1, 1496879, Note_on_c, 0, 65, 39
1, 1496935, Note_off_c, 0, 65, 54
1, 1496956, Note_on_c, 0, 70, 54
1, 1496961, Note_on_c, 0, 77, 76
1, 1496982, Note_on_c, 0, 74, 36
1, 1496984, Note_off_c, 0, 70, 66
1, 1496999, Note_off_c, 0, 77, 58
1, 1497010, Note_off_c, 0, 74, 54
1, 1497067, Note_on_c, 0, 65, 28
1, 1497103, Note_off_c, 0, 65, 52
1, 1497133, Note_on_c, 0, 53, 59
1, 1497136, Note_on_c, 0, 79, 81
1, 1497143, Note_on_c, 0, 74, 55
1, 1497157, Note_on_c, 0, 77, 51
1, 1497173, Note_off_c, 0, 74, 66
1, 1497181, Note_off_c, 0, 77, 57
1, 1497186, Note_off_c, 0, 79, 61
1, 1497201, Note_off_c, 0, 53, 60
1, 1497224, Control_c, 0, 67, 123
1, 1497233, Note_on_c, 0, 59, 60
1, 1497238, Control_c, 0, 67, 118
1, 1497253, Control_c, 0, 67, 112
1, 1497268, Control_c, 0, 67, 108
1, 1497283, Control_c, 0, 67, 105
1, 1497298, Control_c, 0, 67, 103
1, 1497308, Note_off_c, 0, 59, 63
1, 1497312, Control_c, 0, 67, 100
1, 1497316, Note_on_c, 0, 79, 72
1, 1497320, Note_on_c, 0, 62, 73
1, 1497325, Note_on_c, 0, 74, 58
1, 1497327, Control_c, 0, 67, 98
1, 1497341, Note_off_c, 0, 79, 64
1, 1497342, Control_c, 0, 67, 95
1, 1497347, Note_on_c, 0, 77, 24
1, 1497352, Note_off_c, 0, 74, 70
1, 1497356, Note_off_c, 0, 62, 60
1, 1497356, Control_c, 0, 67, 91
1, 1497371, Control_c, 0, 67, 87
1, 1497386, Control_c, 0, 67, 83
1, 1497400, Note_on_c, 0, 79, 80
1, 1497401, Control_c, 0, 67, 81
1, 1497407, Note_on_c, 0, 67, 67
1, 1497410, Note_off_c, 0, 77, 0
1, 1497410, Note_on_c, 0, 77, 44
1, 1497411, Note_on_c, 0, 74, 63
1, 1497416, Control_c, 0, 67, 78
1, 1497424, Note_off_c, 0, 79, 63
1, 1497431, Control_c, 0, 67, 76
1, 1497434, Note_off_c, 0, 77, 57
1, 1497436, Note_off_c, 0, 74, 70
1, 1497446, Control_c, 0, 67, 74
1, 1497451, Note_off_c, 0, 67, 54
1, 1497461, Control_c, 0, 67, 71
1, 1497475, Control_c, 0, 67, 69
1, 1497487, Note_on_c, 0, 71, 73
1, 1497488, Note_on_c, 0, 80, 89
1, 1497490, Control_c, 0, 67, 67
1, 1497505, Control_c, 0, 67, 66
1, 1497506, Note_on_c, 0, 77, 60
1, 1497507, Note_on_c, 0, 74, 59
1, 1497520, Control_c, 0, 67, 64
1, 1497526, Note_off_c, 0, 74, 66
1, 1497526, Note_off_c, 0, 77, 62
1, 1497535, Control_c, 0, 67, 63
1, 1497535, Note_off_c, 0, 71, 61
1, 1497556, Control_c, 0, 67, 61
1, 1497560, Note_off_c, 0, 80, 63
1, 1497572, Control_c, 0, 67, 60
1, 1497582, Note_on_c, 0, 67, 64
1, 1497587, Control_c, 0, 67, 58
1, 1497602, Control_c, 0, 67, 56
1, 1497617, Control_c, 0, 67, 54
1, 1497631, Control_c, 0, 67, 52
1, 1497646, Control_c, 0, 67, 49
1, 1497661, Control_c, 0, 67, 47
1, 1497675, Note_on_c, 0, 71, 66
1, 1497675, Note_off_c, 0, 67, 60
1, 1497676, Control_c, 0, 67, 45
1, 1497678, Note_on_c, 0, 79, 82
1, 1497687, Note_on_c, 0, 74, 63
1, 1497691, Control_c, 0, 67, 43
1, 1497705, Note_off_c, 0, 71, 65
1, 1497705, Control_c, 0, 67, 41
1, 1497720, Note_off_c, 0, 79, 60
1, 1497720, Control_c, 0, 67, 40
1, 1497725, Note_off_c, 0, 74, 61
1, 1497735, Control_c, 0, 67, 39
1, 1497750, Control_c, 0, 67, 37
1, 1497765, Control_c, 0, 67, 35
1, 1497765, Note_on_c, 0, 67, 61
1, 1497780, Control_c, 0, 67, 33
1, 1497794, Control_c, 0, 67, 31
1, 1497809, Note_off_c, 0, 67, 54
1, 1497809, Control_c, 0, 67, 29
1, 1497824, Control_c, 0, 67, 27
1, 1497839, Control_c, 0, 67, 24
1, 1497848, Note_on_c, 0, 79, 73
1, 1497854, Note_on_c, 0, 75, 74
1, 1497854, Control_c, 0, 67, 20
1, 1497857, Note_on_c, 0, 53, 75
1, 1497869, Control_c, 0, 67, 17
1, 1497884, Control_c, 0, 67, 13
1, 1497899, Control_c, 0, 67, 9
1, 1497900, Note_off_c, 0, 75, 62
1, 1497903, Note_off_c, 0, 79, 61
1, 1497913, Control_c, 0, 67, 0
1, 1497923, Note_off_c, 0, 53, 64
1, 1497949, Note_on_c, 0, 60, 62
1, 1498024, Note_off_c, 0, 60, 57
1, 1498034, Note_on_c, 0, 63, 77
1, 1498039, Note_on_c, 0, 79, 70
1, 1498039, Note_on_c, 0, 75, 71
1, 1498065, Note_off_c, 0, 75, 69
1, 1498067, Note_off_c, 0, 79, 63
1, 1498080, Note_off_c, 0, 63, 63
1, 1498114, Note_on_c, 0, 67, 66
1, 1498129, Note_on_c, 0, 79, 73
1, 1498131, Note_on_c, 0, 75, 76
1, 1498152, Note_off_c, 0, 67, 57
1, 1498154, Note_off_c, 0, 75, 71
1, 1498167, Note_off_c, 0, 79, 57
1, 1498192, Note_on_c, 0, 72, 79
1, 1498202, Note_on_c, 0, 87, 89
1, 1498209, Note_on_c, 0, 79, 55
1, 1498230, Note_on_c, 0, 75, 47
1, 1498235, Note_off_c, 0, 72, 62
1, 1498256, Note_off_c, 0, 75, 56
1, 1498257, Note_off_c, 0, 79, 53
1, 1498277, Note_on_c, 0, 67, 64
1, 1498291, Note_off_c, 0, 87, 59
1, 1498364, Note_off_c, 0, 67, 55
1, 1498371, Note_on_c, 0, 79, 78
1, 1498374, Note_on_c, 0, 72, 76
1, 1498375, Note_on_c, 0, 75, 69
1, 1498411, Note_off_c, 0, 75, 66
1, 1498414, Note_off_c, 0, 79, 60
1, 1498422, Note_off_c, 0, 72, 62
1, 1498470, Note_on_c, 0, 67, 67
1, 1498510, Note_off_c, 0, 67, 53
1, 1498590, Note_on_c, 0, 81, 67
1, 1498628, Note_on_c, 0, 84, 72
1, 1498662, Control_c, 0, 64, 47
1, 1498664, Note_on_c, 0, 87, 77
1, 1498677, Control_c, 0, 64, 63
1, 1498692, Control_c, 0, 64, 70
1, 1498706, Control_c, 0, 64, 83
1, 1498713, Note_off_c, 0, 81, 46
1, 1498721, Control_c, 0, 64, 104
1, 1498724, Note_on_c, 0, 91, 88
1, 1498727, Note_off_c, 0, 84, 64
1, 1498736, Note_on_c, 0, 53, 71
1, 1498736, Control_c, 0, 64, 127
1, 1498769, Note_off_c, 0, 53, 67
1, 1498774, Note_off_c, 0, 87, 62
1, 1498887, Note_on_c, 0, 89, 78
1, 1499000, Note_off_c, 0, 91, 31
1, 1499023, Note_on_c, 0, 75, 74
1, 1499028, Note_on_c, 0, 87, 73
1, 1499037, Note_on_c, 0, 72, 59
1, 1499040, Note_on_c, 0, 69, 55
1, 1499070, Note_on_c, 0, 65, 41
1, 1499078, Note_off_c, 0, 89, 59
1, 1499121, Note_off_c, 0, 65, 0
1, 1499121, Note_on_c, 0, 65, 4
1, 1499131, Note_on_c, 0, 86, 71
1, 1499176, Note_off_c, 0, 87, 37
1, 1499209, Note_off_c, 0, 86, 63
1, 1499226, Note_on_c, 0, 84, 65
1, 1499319, Note_off_c, 0, 84, 62
1, 1499324, Note_on_c, 0, 82, 65
1, 1499413, Note_off_c, 0, 82, 55
1, 1499414, Note_on_c, 0, 81, 65
1, 1499475, Note_off_c, 0, 81, 61
1, 1499499, Note_on_c, 0, 79, 60
1, 1499598, Note_on_c, 0, 77, 63
1, 1499601, Note_off_c, 0, 79, 56
1, 1499603, Note_off_c, 0, 75, 59
1, 1499648, Note_off_c, 0, 72, 60
1, 1499654, Note_off_c, 0, 69, 61
1, 1499673, Note_off_c, 0, 77, 60
1, 1499686, Note_on_c, 0, 76, 69
1, 1499696, Note_off_c, 0, 65, 42
1, 1499757, Note_off_c, 0, 76, 61
1, 1499770, Note_on_c, 0, 77, 70
1, 1499852, Note_off_c, 0, 77, 61
1, 1499863, Control_c, 0, 64, 118
1, 1499869, Note_on_c, 0, 76, 75
1, 1499878, Control_c, 0, 64, 107
1, 1499893, Control_c, 0, 64, 101
1, 1499907, Control_c, 0, 64, 96
1, 1499922, Control_c, 0, 64, 92
1, 1499937, Control_c, 0, 64, 89
1, 1499952, Control_c, 0, 64, 86
1, 1499953, Note_on_c, 0, 77, 74
1, 1499963, Note_off_c, 0, 76, 60
1, 1499966, Control_c, 0, 64, 84
1, 1499981, Control_c, 0, 64, 81
1, 1499996, Control_c, 0, 64, 77
1, 1500011, Control_c, 0, 64, 73
1, 1500026, Control_c, 0, 64, 69
1, 1500030, Note_on_c, 0, 76, 68
1, 1500033, Note_off_c, 0, 77, 62
1, 1500040, Control_c, 0, 64, 65
1, 1500055, Control_c, 0, 64, 63
1, 1500070, Control_c, 0, 64, 61
1, 1500085, Control_c, 0, 64, 59
1, 1500099, Control_c, 0, 64, 56
1, 1500114, Control_c, 0, 64, 50
1, 1500123, Note_on_c, 0, 77, 79
1, 1500129, Control_c, 0, 64, 43
1, 1500134, Note_off_c, 0, 76, 62
1, 1500144, Control_c, 0, 64, 23
1, 1500158, Control_c, 0, 64, 0
1, 1500188, Note_on_c, 0, 79, 71
1, 1500206, Note_off_c, 0, 77, 61
1, 1500240, Note_off_c, 0, 79, 63
1, 1500260, Note_on_c, 0, 74, 71
1, 1500321, Note_on_c, 0, 77, 78
1, 1500358, Note_off_c, 0, 74, 56
1, 1500373, Note_on_c, 0, 80, 66
1, 1500433, Note_off_c, 0, 77, 60
1, 1500448, Note_on_c, 0, 46, 49
1, 1500456, Note_on_c, 0, 84, 74
1, 1500456, Control_c, 0, 64, 40
1, 1500471, Control_c, 0, 64, 60
1, 1500486, Control_c, 0, 64, 65
1, 1500501, Control_c, 0, 64, 68
1, 1500502, Note_off_c, 0, 80, 62
1, 1500516, Control_c, 0, 64, 72
1, 1500530, Control_c, 0, 64, 76
1, 1500535, Note_off_c, 0, 46, 63
1, 1500552, Control_c, 0, 64, 79
1, 1500568, Control_c, 0, 64, 80
1, 1500582, Control_c, 0, 64, 81
1, 1500653, Note_on_c, 0, 82, 63
1, 1500765, Note_off_c, 0, 84, 34
1, 1500783, Note_on_c, 0, 80, 57
1, 1500807, Note_on_c, 0, 68, 48
1, 1500817, Note_on_c, 0, 65, 44
1, 1500817, Note_on_c, 0, 62, 39
1, 1500823, Note_on_c, 0, 58, 43
1, 1500874, Note_off_c, 0, 82, 36
1, 1500883, Note_on_c, 0, 79, 64
1, 1500918, Note_off_c, 0, 80, 37
1, 1500948, Note_off_c, 0, 79, 61
1, 1500973, Note_on_c, 0, 77, 63
1, 1501063, Note_off_c, 0, 77, 60
1, 1501068, Note_on_c, 0, 75, 57
1, 1501115, Control_c, 0, 67, 13
1, 1501130, Control_c, 0, 67, 18
1, 1501145, Control_c, 0, 67, 22
1, 1501152, Note_on_c, 0, 74, 61
1, 1501153, Note_off_c, 0, 75, 58
1, 1501160, Control_c, 0, 67, 26
1, 1501176, Control_c, 0, 67, 29
1, 1501179, Note_off_c, 0, 68, 57
1, 1501191, Control_c, 0, 67, 30
1, 1501205, Control_c, 0, 67, 32
1, 1501214, Note_off_c, 0, 74, 64
1, 1501220, Control_c, 0, 67, 33
1, 1501235, Control_c, 0, 67, 35
1, 1501238, Note_on_c, 0, 72, 61
1, 1501250, Control_c, 0, 67, 37
1, 1501265, Control_c, 0, 67, 40
1, 1501270, Note_off_c, 0, 62, 39
1, 1501279, Control_c, 0, 67, 44
1, 1501302, Control_c, 0, 67, 47
1, 1501315, Note_off_c, 0, 58, 36
1, 1501315, Note_off_c, 0, 65, 36
1, 1501317, Control_c, 0, 67, 50
1, 1501318, Note_off_c, 0, 72, 55
1, 1501331, Control_c, 0, 67, 52
1, 1501344, Note_on_c, 0, 70, 60
1, 1501346, Control_c, 0, 67, 55
1, 1501361, Control_c, 0, 67, 59
1, 1501376, Control_c, 0, 67, 65
1, 1501391, Control_c, 0, 64, 80
1, 1501391, Control_c, 0, 67, 69
1, 1501400, Note_off_c, 0, 70, 62
1, 1501405, Control_c, 0, 64, 79
1, 1501405, Control_c, 0, 67, 74
1, 1501420, Control_c, 0, 64, 79
1, 1501420, Control_c, 0, 67, 78
1, 1501434, Note_on_c, 0, 72, 62
1, 1501435, Control_c, 0, 64, 78
1, 1501435, Control_c, 0, 67, 82
1, 1501450, Control_c, 0, 64, 77
1, 1501450, Control_c, 0, 67, 85
1, 1501465, Control_c, 0, 64, 75
1, 1501465, Control_c, 0, 67, 90
1, 1501479, Control_c, 0, 64, 74
1, 1501479, Control_c, 0, 67, 96
1, 1501494, Control_c, 0, 64, 72
1, 1501494, Control_c, 0, 67, 102
1, 1501509, Control_c, 0, 64, 71
1, 1501509, Control_c, 0, 67, 108
1, 1501511, Note_off_c, 0, 72, 58
1, 1501523, Note_on_c, 0, 74, 58
1, 1501524, Control_c, 0, 64, 70
1, 1501524, Control_c, 0, 67, 113
1, 1501538, Control_c, 0, 64, 68
1, 1501538, Control_c, 0, 67, 118
1, 1501553, Control_c, 0, 64, 67
1, 1501553, Control_c, 0, 67, 124
1, 1501568, Control_c, 0, 64, 66
1, 1501568, Control_c, 0, 67, 127
1, 1501583, Control_c, 0, 64, 65
1, 1501598, Control_c, 0, 64, 65
1, 1501607, Note_off_c, 0, 74, 59
1, 1501613, Control_c, 0, 64, 64
1, 1501617, Note_on_c, 0, 75, 60
1, 1501628, Control_c, 0, 64, 63
1, 1501643, Control_c, 0, 64, 61
1, 1501658, Control_c, 0, 64, 59
1, 1501672, Control_c, 0, 64, 55
1, 1501685, Note_off_c, 0, 75, 65
1, 1501687, Control_c, 0, 64, 49
1, 1501702, Control_c, 0, 64, 42
1, 1501717, Control_c, 0, 64, 27
1, 1501723, Note_on_c, 0, 77, 55
1, 1501731, Control_c, 0, 64, 0
1, 1501814, Note_off_c, 0, 77, 48
1, 1501821, Note_on_c, 0, 79, 57
1, 1501908, Note_off_c, 0, 79, 59
1, 1501922, Note_on_c, 0, 80, 58
1, 1502024, Note_on_c, 0, 81, 40
1, 1502122, Note_off_c, 0, 80, 18
1, 1502154, Note_off_c, 0, 81, 43
1, 1502161, Note_on_c, 0, 82, 54
1, 1502183, Note_on_c, 0, 51, 35
1, 1502212, Note_off_c, 0, 51, 53
1, 1502272, Note_off_c, 0, 82, 56
1, 1502284, Note_on_c, 0, 79, 45
1, 1502358, Note_off_c, 0, 79, 54
1, 1502382, Note_on_c, 0, 67, 57
1, 1502388, Note_on_c, 0, 58, 49
1, 1502388, Note_on_c, 0, 75, 52
1, 1502411, Note_off_c, 0, 67, 64
1, 1502413, Note_off_c, 0, 58, 58
1, 1502424, Note_off_c, 0, 75, 66
1, 1502463, Note_on_c, 0, 70, 50
1, 1502482, Note_on_c, 0, 67, 63
1, 1502483, Note_on_c, 0, 58, 56
1, 1502504, Note_off_c, 0, 67, 65
1, 1502504, Note_off_c, 0, 58, 62
1, 1502525, Note_off_c, 0, 70, 50
1, 1502566, Note_on_c, 0, 70, 35
1, 1502568, Note_on_c, 0, 67, 70
1, 1502569, Note_on_c, 0, 58, 68
1, 1502595, Note_off_c, 0, 58, 67
1, 1502597, Note_off_c, 0, 67, 60
1, 1502639, Note_off_c, 0, 70, 59
1, 1502682, Note_on_c, 0, 72, 46
1, 1502732, Note_off_c, 0, 72, 63
1, 1502762, Note_on_c, 0, 66, 69
1, 1502767, Note_on_c, 0, 69, 56
1, 1502779, Note_on_c, 0, 58, 51
1, 1502848, Note_off_c, 0, 69, 51
1, 1502874, Note_on_c, 0, 72, 50
1, 1502945, Note_off_c, 0, 72, 54
1, 1502945, Note_off_c, 0, 66, 63
1, 1502954, Note_on_c, 0, 67, 58
1, 1502973, Note_on_c, 0, 70, 52
1, 1502977, Note_off_c, 0, 58, 63
1, 1502982, Note_off_c, 0, 67, 66
1, 1503014, Note_off_c, 0, 70, 61
1, 1503073, Note_on_c, 0, 67, 43
1, 1503122, Note_off_c, 0, 67, 43
1, 1503160, Note_on_c, 0, 55, 45
1, 1503166, Note_on_c, 0, 70, 45
1, 1503214, Note_off_c, 0, 70, 49
1, 1503235, Note_on_c, 0, 58, 54
1, 1503238, Note_off_c, 0, 55, 59
1, 1503262, Note_on_c, 0, 75, 48
1, 1503333, Control_c, 0, 64, 57
1, 1503336, Note_on_c, 0, 63, 68
1, 1503343, Note_off_c, 0, 75, 64
1, 1503348, Control_c, 0, 64, 65
1, 1503351, Note_off_c, 0, 58, 61
1, 1503353, Note_on_c, 0, 79, 57
1, 1503363, Control_c, 0, 64, 67
1, 1503377, Control_c, 0, 64, 71
1, 1503392, Control_c, 0, 64, 77
1, 1503407, Control_c, 0, 64, 82
1, 1503410, Note_off_c, 0, 63, 64
1, 1503422, Control_c, 0, 64, 83
1, 1503424, Note_off_c, 0, 79, 52
1, 1503434, Note_on_c, 0, 75, 56
1, 1503527, Note_on_c, 0, 70, 58
1, 1503567, Note_off_c, 0, 75, 62
1, 1503600, Note_off_c, 0, 70, 61
1, 1503610, Note_on_c, 0, 67, 58
1, 1503642, Note_off_c, 0, 67, 59
1, 1503667, Control_c, 0, 64, 82
1, 1503682, Control_c, 0, 64, 77
1, 1503697, Control_c, 0, 64, 69
1, 1503703, Note_on_c, 0, 46, 71
1, 1503712, Note_on_c, 0, 70, 69
1, 1503712, Control_c, 0, 64, 59
1, 1503726, Control_c, 0, 64, 0
1, 1503740, Note_off_c, 0, 70, 64
1, 1503744, Note_on_c, 0, 68, 30
1, 1503753, Note_on_c, 0, 65, 23
1, 1503779, Note_off_c, 0, 68, 54
1, 1503787, Note_off_c, 0, 46, 61
1, 1503789, Note_on_c, 0, 50, 66
1, 1503792, Note_off_c, 0, 65, 46
1, 1503870, Note_off_c, 0, 50, 63
1, 1503875, Note_on_c, 0, 53, 71
1, 1503879, Note_on_c, 0, 65, 59
1, 1503888, Note_on_c, 0, 70, 55
1, 1503897, Note_on_c, 0, 68, 29
1, 1503911, Note_off_c, 0, 70, 63
1, 1503914, Note_off_c, 0, 65, 62
1, 1503916, Note_off_c, 0, 53, 65
1, 1503929, Note_off_c, 0, 68, 52
1, 1503950, Note_on_c, 0, 58, 75
1, 1503977, Note_on_c, 0, 70, 65
1, 1503986, Note_on_c, 0, 65, 47
1, 1503997, Note_off_c, 0, 70, 66
1, 1504001, Note_off_c, 0, 58, 61
1, 1504010, Note_off_c, 0, 65, 58
1, 1504048, Note_on_c, 0, 62, 77
1, 1504058, Note_on_c, 0, 72, 71
1, 1504093, Note_off_c, 0, 72, 62
1, 1504096, Note_on_c, 0, 65, 29
1, 1504102, Note_off_c, 0, 62, 60
1, 1504129, Note_on_c, 0, 58, 72
1, 1504132, Note_off_c, 0, 65, 32
1, 1504209, Note_off_c, 0, 58, 62
1, 1504218, Note_on_c, 0, 62, 76
1, 1504226, Note_on_c, 0, 70, 70
1, 1504257, Note_on_c, 0, 65, 17
1, 1504281, Note_off_c, 0, 70, 58
1, 1504296, Note_off_c, 0, 62, 59
1, 1504305, Note_off_c, 0, 65, 41
1, 1504314, Note_on_c, 0, 58, 75
1, 1504391, Note_off_c, 0, 58, 62
1, 1504408, Note_on_c, 0, 70, 62
1, 1504413, Note_on_c, 0, 63, 82
1, 1504418, Note_on_c, 0, 67, 50
1, 1504444, Note_off_c, 0, 67, 62
1, 1504449, Note_off_c, 0, 63, 61
1, 1504491, Note_off_c, 0, 70, 56
1, 1504510, Note_on_c, 0, 75, 54
1, 1504587, Note_on_c, 0, 56, 62
1, 1504588, Note_off_c, 0, 75, 55
1, 1504597, Note_on_c, 0, 51, 57
1, 1504603, Note_on_c, 0, 74, 50
1, 1504605, Note_on_c, 0, 68, 38
1, 1504668, Note_off_c, 0, 74, 55
1, 1504670, Note_off_c, 0, 68, 44
1, 1504675, Note_on_c, 0, 60, 64
1, 1504682, Note_on_c, 0, 72, 51
1, 1504698, Note_off_c, 0, 56, 58
1, 1504758, Note_off_c, 0, 72, 63
1, 1504771, Note_on_c, 0, 63, 90
1, 1504775, Note_on_c, 0, 70, 55
1, 1504796, Note_on_c, 0, 67, 26
1, 1504801, Note_off_c, 0, 60, 62
1, 1504807, Note_off_c, 0, 70, 66
1, 1504821, Note_off_c, 0, 51, 63
1, 1504829, Note_off_c, 0, 63, 67
1, 1504834, Note_off_c, 0, 67, 49
1, 1504891, Note_on_c, 0, 70, 62
1, 1504986, Note_on_c, 0, 75, 58
1, 1504993, Note_off_c, 0, 70, 59
1, 1505071, Note_on_c, 0, 79, 61
1, 1505086, Note_off_c, 0, 75, 53
1, 1505148, Note_off_c, 0, 79, 59
1, 1505153, Note_on_c, 0, 82, 67
1, 1505157, Note_on_c, 0, 51, 59
1, 1505186, Note_off_c, 0, 51, 64
1, 1505241, Note_off_c, 0, 82, 58
1, 1505252, Note_on_c, 0, 79, 57
1, 1505330, Note_off_c, 0, 79, 55
1, 1505334, Note_on_c, 0, 75, 58
1, 1505337, Note_on_c, 0, 67, 65
1, 1505342, Note_on_c, 0, 58, 58
1, 1505362, Note_off_c, 0, 58, 64
1, 1505363, Note_off_c, 0, 67, 68
1, 1505372, Note_off_c, 0, 75, 63
1, 1505403, Note_on_c, 0, 70, 57
1, 1505420, Note_on_c, 0, 67, 67
1, 1505427, Note_on_c, 0, 58, 66
1, 1505439, Note_off_c, 0, 70, 62
1, 1505443, Note_off_c, 0, 67, 67
1, 1505445, Note_off_c, 0, 58, 67
1, 1505509, Note_on_c, 0, 70, 53
1, 1505512, Note_on_c, 0, 58, 71
1, 1505518, Note_on_c, 0, 67, 75
1, 1505537, Note_off_c, 0, 58, 66
1, 1505544, Note_off_c, 0, 67, 60
1, 1505554, Note_off_c, 0, 70, 58
1, 1505579, Note_on_c, 0, 72, 57
1, 1505643, Note_off_c, 0, 72, 63
1, 1505680, Note_on_c, 0, 69, 59
1, 1505687, Note_on_c, 0, 66, 68
1, 1505694, Note_on_c, 0, 58, 60
1, 1505741, Note_off_c, 0, 69, 53
1, 1505774, Note_on_c, 0, 72, 52
1, 1505840, Note_off_c, 0, 72, 53
1, 1505864, Note_off_c, 0, 66, 64
1, 1505870, Note_on_c, 0, 70, 57
1, 1505882, Note_on_c, 0, 67, 63
1, 1505896, Note_off_c, 0, 58, 62
1, 1505908, Note_off_c, 0, 67, 65
1, 1505920, Note_off_c, 0, 70, 58
1, 1505986, Note_on_c, 0, 67, 32
1, 1506049, Note_off_c, 0, 67, 39
1, 1506059, Note_on_c, 0, 55, 50
1, 1506068, Note_on_c, 0, 70, 41
1, 1506131, Note_off_c, 0, 70, 51
1, 1506140, Note_off_c, 0, 55, 63
1, 1506144, Note_on_c, 0, 58, 48
1, 1506144, Note_on_c, 0, 75, 58
1, 1506224, Control_c, 0, 64, 39
1, 1506225, Note_off_c, 0, 75, 64
1, 1506227, Note_off_c, 0, 58, 59
1, 1506236, Note_on_c, 0, 79, 58
1, 1506239, Control_c, 0, 64, 58
1, 1506248, Note_on_c, 0, 63, 46
1, 1506254, Control_c, 0, 64, 65
1, 1506268, Control_c, 0, 64, 69
1, 1506278, Note_off_c, 0, 63, 63
1, 1506283, Control_c, 0, 64, 74
1, 1506291, Note_off_c, 0, 79, 52
1, 1506298, Control_c, 0, 64, 79
1, 1506313, Control_c, 0, 64, 81
1, 1506320, Note_on_c, 0, 75, 54
1, 1506327, Control_c, 0, 64, 82
1, 1506342, Control_c, 0, 64, 83
1, 1506357, Control_c, 0, 64, 84
1, 1506387, Control_c, 0, 64, 85
1, 1506401, Control_c, 0, 64, 85
1, 1506408, Note_on_c, 0, 70, 61
1, 1506416, Control_c, 0, 64, 86
1, 1506431, Control_c, 0, 64, 86
1, 1506434, Note_off_c, 0, 75, 59
1, 1506458, Note_off_c, 0, 70, 61
1, 1506488, Note_on_c, 0, 67, 55
1, 1506490, Control_c, 0, 64, 79
1, 1506505, Control_c, 0, 64, 65
1, 1506513, Note_off_c, 0, 67, 59
1, 1506520, Control_c, 0, 64, 25
1, 1506534, Control_c, 0, 64, 0
1, 1506571, Control_c, 0, 64, 17
1, 1506586, Note_on_c, 0, 67, 66
1, 1506586, Control_c, 0, 64, 55
1, 1506589, Note_on_c, 0, 36, 54
1, 1506591, Note_on_c, 0, 48, 65
1, 1506600, Control_c, 0, 64, 64
1, 1506615, Control_c, 0, 64, 68
1, 1506615, Control_c, 0, 67, 127
1, 1506616, Note_off_c, 0, 36, 58
1, 1506625, Note_off_c, 0, 67, 59
1, 1506630, Control_c, 0, 64, 71
1, 1506630, Control_c, 0, 67, 120
1, 1506645, Control_c, 0, 64, 73
1, 1506645, Control_c, 0, 67, 114
1, 1506646, Note_off_c, 0, 48, 58
1, 1506660, Control_c, 0, 64, 74
1, 1506660, Control_c, 0, 67, 108
1, 1506667, Note_on_c, 0, 63, 63
1, 1506675, Control_c, 0, 64, 75
1, 1506675, Control_c, 0, 67, 103
1, 1506689, Control_c, 0, 67, 100
1, 1506704, Control_c, 0, 64, 75
1, 1506704, Control_c, 0, 67, 97
1, 1506719, Control_c, 0, 67, 94
1, 1506734, Control_c, 0, 67, 91
1, 1506748, Note_off_c, 0, 63, 34
1, 1506749, Control_c, 0, 67, 89
1, 1506749, Note_on_c, 0, 67, 64
1, 1506756, Note_on_c, 0, 51, 57
1, 1506764, Control_c, 0, 67, 87
1, 1506779, Control_c, 0, 67, 87
1, 1506843, Note_on_c, 0, 72, 70
1, 1506852, Note_on_c, 0, 55, 70
1, 1506857, Note_off_c, 0, 51, 62
1, 1506868, Control_c, 0, 64, 71
1, 1506868, Control_c, 0, 67, 86
1, 1506883, Control_c, 0, 64, 61
1, 1506883, Control_c, 0, 67, 86
1, 1506898, Control_c, 0, 64, 0
1, 1506898, Control_c, 0, 67, 85
1, 1506910, Note_off_c, 0, 67, 30
1, 1506913, Control_c, 0, 67, 84
1, 1506928, Control_c, 0, 67, 82
1, 1506930, Note_off_c, 0, 72, 64
1, 1506937, Note_on_c, 0, 60, 83
1, 1506937, Note_on_c, 0, 75, 70
1, 1506942, Control_c, 0, 67, 80
1, 1506957, Control_c, 0, 64, 49
1, 1506957, Control_c, 0, 67, 75
1, 1506961, Note_off_c, 0, 55, 64
1, 1506972, Control_c, 0, 64, 65
1, 1506972, Control_c, 0, 67, 66
1, 1506987, Control_c, 0, 64, 71
1, 1506987, Control_c, 0, 67, 57
1, 1507002, Control_c, 0, 64, 75
1, 1507002, Control_c, 0, 67, 49
1, 1507016, Control_c, 0, 64, 76
1, 1507016, Control_c, 0, 67, 41
1, 1507026, Note_off_c, 0, 60, 61
1, 1507027, Note_off_c, 0, 75, 63
1, 1507031, Note_on_c, 0, 72, 61
1, 1507031, Control_c, 0, 64, 76
1, 1507031, Control_c, 0, 67, 35
1, 1507046, Control_c, 0, 67, 29
1, 1507061, Control_c, 0, 67, 24
1, 1507076, Control_c, 0, 67, 19
1, 1507083, Note_on_c, 0, 67, 68
1, 1507090, Control_c, 0, 67, 16
1, 1507103, Note_off_c, 0, 72, 59
1, 1507105, Control_c, 0, 67, 12
1, 1507120, Control_c, 0, 67, 0
1, 1507150, Note_off_c, 0, 67, 61
1, 1507164, Control_c, 0, 64, 75
1, 1507178, Note_on_c, 0, 63, 66
1, 1507179, Control_c, 0, 64, 67
1, 1507194, Control_c, 0, 64, 0
1, 1507212, Note_off_c, 0, 63, 62
1, 1507277, Note_on_c, 0, 63, 62
1, 1507280, Note_on_c, 0, 32, 78
1, 1507282, Note_on_c, 0, 44, 80
1, 1507306, Control_c, 0, 64, 58
1, 1507320, Note_off_c, 0, 32, 66
1, 1507321, Control_c, 0, 64, 68
1, 1507336, Control_c, 0, 64, 74
1, 1507345, Note_off_c, 0, 63, 63
1, 1507345, Note_off_c, 0, 44, 64
1, 1507350, Control_c, 0, 64, 78
1, 1507365, Control_c, 0, 64, 81
1, 1507369, Note_on_c, 0, 60, 63
1, 1507380, Control_c, 0, 64, 82
1, 1507395, Control_c, 0, 64, 82
1, 1507410, Control_c, 0, 64, 83
1, 1507454, Note_on_c, 0, 49, 74
1, 1507454, Control_c, 0, 64, 83
1, 1507459, Note_on_c, 0, 63, 74
1, 1507491, Note_off_c, 0, 60, 37
1, 1507498, Control_c, 0, 64, 84
1, 1507531, Note_off_c, 0, 49, 63
1, 1507538, Note_on_c, 0, 68, 74
1, 1507560, Note_on_c, 0, 51, 74
1, 1507588, Control_c, 0, 64, 77
1, 1507600, Note_off_c, 0, 63, 39
1, 1507603, Control_c, 0, 64, 60
1, 1507618, Control_c, 0, 64, 0
1, 1507623, Note_on_c, 0, 56, 88
1, 1507629, Note_on_c, 0, 72, 76
1, 1507636, Note_off_c, 0, 51, 63
1, 1507643, Note_off_c, 0, 68, 63
1, 1507692, Control_c, 0, 64, 63
1, 1507707, Control_c, 0, 64, 72
1, 1507718, Note_on_c, 0, 68, 76
1, 1507721, Control_c, 0, 64, 78
1, 1507730, Note_off_c, 0, 72, 59
1, 1507736, Control_c, 0, 64, 80
1, 1507751, Control_c, 0, 64, 81
1, 1507767, Note_off_c, 0, 56, 57
1, 1507810, Note_on_c, 0, 63, 75
1, 1507855, Note_off_c, 0, 68, 63
1, 1507855, Control_c, 0, 64, 81
1, 1507872, Note_off_c, 0, 63, 64
1, 1507884, Control_c, 0, 64, 73
1, 1507890, Note_on_c, 0, 60, 76
1, 1507899, Control_c, 0, 64, 45
1, 1507914, Control_c, 0, 64, 0
1, 1507917, Note_off_c, 0, 60, 64
1, 1507988, Control_c, 0, 64, 17
1, 1508003, Control_c, 0, 64, 74
1, 1508018, Control_c, 0, 64, 127
1, 1508031, Note_on_c, 0, 63, 80
1, 1508043, Note_on_c, 0, 44, 70
1, 1508123, Note_off_c, 0, 44, 63
1, 1508143, Note_on_c, 0, 66, 69
1, 1508143, Note_on_c, 0, 75, 62
1, 1508149, Note_off_c, 0, 63, 61
1, 1508154, Note_on_c, 0, 72, 48
1, 1508174, Note_off_c, 0, 75, 65
1, 1508175, Note_off_c, 0, 66, 61
1, 1508177, Note_off_c, 0, 72, 61
1, 1508239, Note_on_c, 0, 66, 63
1, 1508254, Note_on_c, 0, 72, 65
1, 1508256, Note_on_c, 0, 51, 67
1, 1508257, Note_on_c, 0, 75, 63
1, 1508258, Note_on_c, 0, 56, 57
1, 1508261, Note_on_c, 0, 60, 57
1, 1508298, Note_off_c, 0, 60, 60
1, 1508305, Note_off_c, 0, 56, 55
1, 1508328, Note_off_c, 0, 75, 61
1, 1508337, Note_on_c, 0, 63, 78
1, 1508342, Note_off_c, 0, 66, 39
1, 1508346, Note_off_c, 0, 51, 61
1, 1508371, Note_off_c, 0, 63, 61
1, 1508377, Note_off_c, 0, 72, 61
1, 1508439, Note_on_c, 0, 66, 81
1, 1508445, Note_on_c, 0, 44, 73
1, 1508500, Note_off_c, 0, 44, 57
1, 1508507, Note_on_c, 0, 75, 63
1, 1508511, Note_on_c, 0, 78, 61
1, 1508514, Note_off_c, 0, 66, 65
1, 1508514, Note_on_c, 0, 72, 55
1, 1508533, Note_off_c, 0, 78, 67
1, 1508535, Note_off_c, 0, 75, 68
1, 1508543, Note_off_c, 0, 72, 67
1, 1508594, Note_on_c, 0, 78, 74
1, 1508604, Note_on_c, 0, 75, 74
1, 1508606, Note_on_c, 0, 60, 71
1, 1508606, Note_on_c, 0, 56, 64
1, 1508609, Note_on_c, 0, 51, 69
1, 1508613, Note_on_c, 0, 72, 63
1, 1508640, Note_off_c, 0, 60, 55
1, 1508642, Note_off_c, 0, 56, 63
1, 1508672, Note_on_c, 0, 66, 79
1, 1508674, Note_off_c, 0, 72, 41
1, 1508683, Note_off_c, 0, 51, 61
1, 1508690, Note_off_c, 0, 66, 74
1, 1508693, Note_off_c, 0, 78, 62
1, 1508694, Note_off_c, 0, 75, 63
1, 1508773, Note_on_c, 0, 72, 91
1, 1508791, Note_on_c, 0, 44, 74
1, 1508827, Note_off_c, 0, 44, 63
1, 1508863, Note_on_c, 0, 75, 90
1, 1508865, Note_on_c, 0, 84, 77
1, 1508867, Note_on_c, 0, 78, 81
1, 1508869, Note_off_c, 0, 72, 43
1, 1508889, Note_off_c, 0, 78, 69
1, 1508893, Note_off_c, 0, 84, 65
1, 1508909, Note_off_c, 0, 75, 61
1, 1508941, Note_on_c, 0, 75, 61
1, 1508948, Note_on_c, 0, 78, 85
1, 1508951, Note_on_c, 0, 84, 69
1, 1508952, Note_on_c, 0, 60, 68
1, 1508953, Note_on_c, 0, 56, 63
1, 1508954, Note_on_c, 0, 51, 72
1, 1508979, Note_off_c, 0, 60, 65
1, 1508982, Note_off_c, 0, 56, 66
1, 1509011, Note_off_c, 0, 84, 64
1, 1509016, Note_off_c, 0, 51, 63
1, 1509018, Note_off_c, 0, 75, 65
1, 1509029, Note_off_c, 0, 78, 64
1, 1509029, Note_on_c, 0, 72, 82
1, 1509047, Note_off_c, 0, 72, 72
1, 1509122, Note_on_c, 0, 75, 95
1, 1509128, Note_on_c, 0, 44, 75
1, 1509157, Note_off_c, 0, 44, 67
1, 1509198, Note_on_c, 0, 87, 69
1, 1509199, Note_on_c, 0, 84, 72
1, 1509200, Note_on_c, 0, 78, 80
1, 1509210, Note_off_c, 0, 75, 64
1, 1509223, Note_off_c, 0, 84, 68
1, 1509223, Note_off_c, 0, 87, 66
1, 1509242, Note_off_c, 0, 78, 62
1, 1509280, Note_on_c, 0, 78, 67
1, 1509284, Note_on_c, 0, 87, 83
1, 1509288, Note_on_c, 0, 84, 90
1, 1509290, Note_on_c, 0, 51, 73
1, 1509292, Note_on_c, 0, 56, 59
1, 1509292, Note_on_c, 0, 60, 66
1, 1509320, Note_off_c, 0, 56, 64
1, 1509320, Note_off_c, 0, 60, 67
1, 1509340, Note_off_c, 0, 51, 62
1, 1509356, Note_off_c, 0, 78, 63
1, 1509361, Note_on_c, 0, 75, 81
1, 1509369, Note_off_c, 0, 84, 66
1, 1509377, Note_off_c, 0, 87, 62
1, 1509409, Note_off_c, 0, 75, 64
1, 1509426, Control_c, 0, 64, 77
1, 1509441, Control_c, 0, 64, 54
1, 1509456, Control_c, 0, 64, 0
1, 1509511, Note_on_c, 0, 43, 71
1, 1509557, Note_off_c, 0, 43, 63
1, 1509597, Note_on_c, 0, 82, 76
1, 1509684, Note_on_c, 0, 87, 76
1, 1509694, Note_on_c, 0, 58, 62
1, 1509699, Note_on_c, 0, 55, 50
1, 1509703, Note_on_c, 0, 51, 59
1, 1509725, Note_off_c, 0, 55, 63
1, 1509733, Note_off_c, 0, 58, 58
1, 1509763, Note_off_c, 0, 51, 61
1, 1509767, Note_on_c, 0, 91, 78
1, 1509781, Note_off_c, 0, 82, 32
1, 1509834, Note_off_c, 0, 87, 54
1, 1509861, Note_on_c, 0, 94, 77
1, 1509869, Note_off_c, 0, 91, 60
1, 1509883, Note_on_c, 0, 44, 56
1, 1509918, Note_off_c, 0, 44, 64
1, 1509954, Note_on_c, 0, 92, 69
1, 1509962, Note_off_c, 0, 94, 59
1, 1510033, Note_on_c, 0, 87, 60
1, 1510049, Note_on_c, 0, 56, 46
1, 1510050, Note_on_c, 0, 60, 51
1, 1510059, Note_on_c, 0, 51, 47
1, 1510080, Note_off_c, 0, 92, 63
1, 1510084, Note_off_c, 0, 56, 64
1, 1510086, Note_off_c, 0, 60, 63
1, 1510100, Note_off_c, 0, 51, 62
1, 1510106, Note_on_c, 0, 84, 67
1, 1510110, Note_off_c, 0, 87, 64
1, 1510116, Control_c, 0, 67, 9
1, 1510131, Control_c, 0, 67, 13
1, 1510135, Note_off_c, 0, 84, 66
1, 1510146, Control_c, 0, 67, 18
1, 1510160, Control_c, 0, 67, 26
1, 1510175, Control_c, 0, 67, 34
1, 1510190, Control_c, 0, 67, 41
1, 1510205, Control_c, 0, 67, 47
1, 1510220, Control_c, 0, 67, 51
1, 1510221, Note_on_c, 0, 46, 64
1, 1510234, Control_c, 0, 67, 56
1, 1510249, Control_c, 0, 67, 61
1, 1510252, Note_off_c, 0, 46, 64
1, 1510264, Control_c, 0, 67, 66
1, 1510279, Control_c, 0, 67, 71
1, 1510300, Control_c, 0, 67, 75
1, 1510303, Note_on_c, 0, 67, 52
1, 1510315, Control_c, 0, 67, 77
1, 1510330, Control_c, 0, 67, 80
1, 1510345, Control_c, 0, 67, 82
1, 1510359, Control_c, 0, 67, 86
1, 1510374, Control_c, 0, 67, 89
1, 1510389, Control_c, 0, 67, 92
1, 1510401, Note_on_c, 0, 63, 58
1, 1510404, Control_c, 0, 67, 94
1, 1510406, Note_on_c, 0, 70, 48
1, 1510419, Control_c, 0, 67, 95
1, 1510425, Note_on_c, 0, 58, 41
1, 1510429, Note_on_c, 0, 55, 34
1, 1510433, Control_c, 0, 67, 95
1, 1510436, Note_off_c, 0, 63, 63
1, 1510451, Note_off_c, 0, 58, 59
1, 1510457, Note_off_c, 0, 67, 45
1, 1510457, Note_off_c, 0, 55, 56
1, 1510497, Note_on_c, 0, 75, 55
1, 1510502, Note_off_c, 0, 70, 58
1, 1510538, Control_c, 0, 67, 95
1, 1510553, Control_c, 0, 67, 94
1, 1510582, Control_c, 0, 67, 94
1, 1510587, Note_on_c, 0, 79, 53
1, 1510594, Note_on_c, 0, 46, 57
1, 1510597, Note_off_c, 0, 75, 58
1, 1510627, Control_c, 0, 67, 93
1, 1510629, Note_off_c, 0, 46, 64
1, 1510655, Note_off_c, 0, 79, 58
1, 1510656, Control_c, 0, 67, 93
1, 1510672, Note_on_c, 0, 77, 54
1, 1510700, Control_c, 0, 67, 92
1, 1510715, Control_c, 0, 67, 92
1, 1510745, Control_c, 0, 67, 91
1, 1510761, Control_c, 0, 67, 91
1, 1510763, Note_off_c, 0, 77, 56
1, 1510764, Note_on_c, 0, 74, 52
1, 1510770, Note_on_c, 0, 56, 46
1, 1510785, Note_on_c, 0, 62, 35
1, 1510788, Note_on_c, 0, 58, 26
1, 1510790, Control_c, 0, 67, 90
1, 1510805, Control_c, 0, 67, 90
1, 1510817, Note_off_c, 0, 62, 53
1, 1510819, Note_off_c, 0, 56, 61
1, 1510819, Note_off_c, 0, 74, 63
1, 1510820, Note_off_c, 0, 58, 52
1, 1510820, Control_c, 0, 67, 89
1, 1510835, Control_c, 0, 67, 88
1, 1510848, Note_on_c, 0, 70, 67
1, 1510850, Control_c, 0, 67, 87
1, 1510864, Control_c, 0, 67, 85
1, 1510869, Note_off_c, 0, 70, 68
1, 1510879, Control_c, 0, 67, 82
1, 1510894, Control_c, 0, 67, 77
1, 1510908, Control_c, 0, 67, 66
1, 1510923, Control_c, 0, 67, 48
1, 1510938, Control_c, 0, 67, 23
1, 1510953, Control_c, 0, 67, 0
1, 1510997, Control_c, 0, 64, 62
1, 1511012, Control_c, 0, 64, 127
1, 1511014, Note_on_c, 0, 63, 85
1, 1511017, Note_on_c, 0, 44, 82
1, 1511098, Note_off_c, 0, 44, 61
1, 1511116, Note_off_c, 0, 63, 63
1, 1511119, Note_on_c, 0, 66, 70
1, 1511121, Note_on_c, 0, 72, 60
1, 1511126, Note_on_c, 0, 75, 51
1, 1511149, Note_off_c, 0, 75, 64
1, 1511150, Note_off_c, 0, 66, 62
1, 1511151, Note_off_c, 0, 72, 66
1, 1511212, Note_on_c, 0, 66, 68
1, 1511220, Note_on_c, 0, 56, 66
1, 1511221, Note_on_c, 0, 72, 70
1, 1511226, Note_on_c, 0, 60, 58
1, 1511230, Note_on_c, 0, 75, 67
1, 1511231, Note_on_c, 0, 51, 59
1, 1511259, Note_off_c, 0, 60, 62
1, 1511271, Note_off_c, 0, 56, 57
1, 1511283, Note_off_c, 0, 66, 61
1, 1511301, Note_off_c, 0, 75, 57
1, 1511303, Note_on_c, 0, 63, 83
1, 1511307, Note_off_c, 0, 51, 60
1, 1511344, Note_off_c, 0, 63, 63
1, 1511345, Note_off_c, 0, 72, 60
1, 1511411, Note_on_c, 0, 66, 79
1, 1511418, Note_on_c, 0, 44, 74
1, 1511463, Note_off_c, 0, 44, 52
1, 1511488, Note_on_c, 0, 75, 69
1, 1511493, Note_on_c, 0, 72, 63
1, 1511494, Note_on_c, 0, 78, 62
1, 1511498, Note_off_c, 0, 66, 65
1, 1511517, Note_off_c, 0, 75, 67
1, 1511517, Note_off_c, 0, 78, 67
1, 1511520, Note_off_c, 0, 72, 67
1, 1511581, Note_on_c, 0, 78, 80
1, 1511587, Note_on_c, 0, 56, 61
1, 1511588, Note_on_c, 0, 51, 66
1, 1511588, Note_on_c, 0, 60, 64
1, 1511588, Note_on_c, 0, 72, 64
1, 1511589, Note_on_c, 0, 75, 76
1, 1511621, Note_off_c, 0, 60, 63
1, 1511629, Note_off_c, 0, 56, 62
1, 1511656, Note_on_c, 0, 66, 80
1, 1511662, Note_off_c, 0, 51, 62
1, 1511669, Note_off_c, 0, 72, 60
1, 1511683, Note_off_c, 0, 75, 63
1, 1511683, Note_off_c, 0, 78, 60
1, 1511688, Note_off_c, 0, 66, 65
1, 1511767, Note_on_c, 0, 72, 90
1, 1511774, Note_on_c, 0, 44, 72
1, 1511817, Note_off_c, 0, 44, 62
1, 1511834, Note_off_c, 0, 72, 57
1, 1511859, Note_on_c, 0, 78, 76
1, 1511860, Note_on_c, 0, 75, 77
1, 1511865, Note_on_c, 0, 84, 68
1, 1511882, Note_off_c, 0, 78, 68
1, 1511882, Note_off_c, 0, 75, 68
1, 1511893, Note_off_c, 0, 84, 67
1, 1511949, Note_on_c, 0, 75, 78
1, 1511949, Note_on_c, 0, 78, 83
1, 1511954, Note_on_c, 0, 84, 70
1, 1511955, Note_on_c, 0, 51, 67
1, 1511955, Note_on_c, 0, 56, 60
1, 1511955, Note_on_c, 0, 60, 63
1, 1511982, Note_off_c, 0, 56, 66
1, 1511986, Note_off_c, 0, 60, 64
1, 1512007, Note_off_c, 0, 84, 63
1, 1512014, Note_off_c, 0, 75, 57
1, 1512015, Note_off_c, 0, 51, 61
1, 1512028, Note_on_c, 0, 72, 79
1, 1512028, Note_off_c, 0, 78, 61
1, 1512049, Note_off_c, 0, 72, 72
1, 1512124, Note_on_c, 0, 75, 93
1, 1512129, Note_on_c, 0, 44, 74
1, 1512165, Note_off_c, 0, 44, 63
1, 1512198, Note_on_c, 0, 84, 76
1, 1512200, Note_on_c, 0, 78, 82
1, 1512212, Note_off_c, 0, 75, 64
1, 1512219, Note_on_c, 0, 87, 49
1, 1512235, Note_off_c, 0, 84, 62
1, 1512244, Note_off_c, 0, 78, 62
1, 1512244, Note_off_c, 0, 87, 55
1, 1512291, Note_on_c, 0, 51, 77
1, 1512291, Note_on_c, 0, 60, 71
1, 1512292, Note_on_c, 0, 78, 74
1, 1512293, Note_on_c, 0, 56, 66
1, 1512301, Note_on_c, 0, 87, 83
1, 1512305, Note_on_c, 0, 84, 73
1, 1512314, Note_off_c, 0, 56, 65
1, 1512322, Note_off_c, 0, 60, 65
1, 1512340, Note_off_c, 0, 51, 63
1, 1512363, Note_off_c, 0, 87, 63
1, 1512376, Note_on_c, 0, 75, 85
1, 1512383, Note_off_c, 0, 84, 63
1, 1512387, Note_off_c, 0, 78, 62
1, 1512419, Note_off_c, 0, 75, 63
1, 1512481, Control_c, 0, 64, 51
1, 1512496, Control_c, 0, 64, 0
1, 1512520, Note_on_c, 0, 43, 94
1, 1512537, Note_on_c, 0, 67, 84
1, 1512562, Control_c, 0, 64, 56
1, 1512577, Control_c, 0, 64, 81
1, 1512592, Control_c, 0, 64, 127
1, 1512634, Note_on_c, 0, 72, 77
1, 1512635, Note_off_c, 0, 43, 61
1, 1512638, Note_on_c, 0, 75, 66
1, 1512645, Note_off_c, 0, 67, 60
1, 1512664, Note_off_c, 0, 75, 66
1, 1512666, Note_on_c, 0, 79, 27
1, 1512684, Note_off_c, 0, 72, 63
1, 1512722, Note_on_c, 0, 72, 57
1, 1512726, Note_off_c, 0, 79, 0
1, 1512733, Note_on_c, 0, 75, 72
1, 1512738, Note_on_c, 0, 79, 53
1, 1512746, Note_on_c, 0, 60, 74
1, 1512750, Note_on_c, 0, 55, 64
1, 1512751, Note_on_c, 0, 51, 70
1, 1512776, Note_off_c, 0, 55, 67
1, 1512779, Note_off_c, 0, 60, 59
1, 1512786, Note_off_c, 0, 72, 63
1, 1512811, Note_on_c, 0, 67, 77
1, 1512818, Note_off_c, 0, 51, 62
1, 1512832, Note_off_c, 0, 79, 51
1, 1512833, Note_off_c, 0, 75, 62
1, 1512839, Note_off_c, 0, 67, 65
1, 1512908, Note_on_c, 0, 72, 90
1, 1512916, Note_on_c, 0, 43, 83
1, 1512971, Note_off_c, 0, 43, 62
1, 1512983, Note_on_c, 0, 79, 75
1, 1512985, Note_on_c, 0, 75, 78
1, 1512994, Note_off_c, 0, 72, 59
1, 1513000, Note_on_c, 0, 84, 60
1, 1513009, Note_off_c, 0, 75, 65
1, 1513018, Note_off_c, 0, 79, 60
1, 1513020, Note_off_c, 0, 84, 65
1, 1513075, Note_on_c, 0, 75, 78
1, 1513077, Note_on_c, 0, 60, 80
1, 1513081, Note_on_c, 0, 84, 76
1, 1513081, Note_on_c, 0, 51, 81
1, 1513081, Note_on_c, 0, 79, 70
1, 1513085, Note_on_c, 0, 55, 67
1, 1513112, Note_off_c, 0, 55, 67
1, 1513124, Note_off_c, 0, 60, 59
1, 1513134, Note_off_c, 0, 84, 64
1, 1513158, Note_on_c, 0, 72, 83
1, 1513158, Note_off_c, 0, 51, 61
1, 1513164, Note_off_c, 0, 75, 58
1, 1513164, Note_off_c, 0, 79, 57
1, 1513185, Note_off_c, 0, 72, 67
1, 1513251, Note_on_c, 0, 43, 89
1, 1513257, Note_on_c, 0, 75, 94
1, 1513319, Note_off_c, 0, 43, 62
1, 1513325, Note_on_c, 0, 85, 79
1, 1513343, Note_on_c, 0, 79, 76
1, 1513346, Note_on_c, 0, 87, 57
1, 1513349, Note_on_c, 0, 80, 40
1, 1513354, Note_off_c, 0, 75, 61
1, 1513366, Note_off_c, 0, 87, 62
1, 1513368, Note_off_c, 0, 79, 64
1, 1513368, Note_off_c, 0, 85, 66
1, 1513378, Note_off_c, 0, 80, 56
1, 1513430, Note_on_c, 0, 60, 82
1, 1513432, Note_on_c, 0, 87, 76
1, 1513435, Note_on_c, 0, 79, 65
1, 1513436, Note_on_c, 0, 51, 80
1, 1513436, Note_on_c, 0, 55, 71
1, 1513440, Note_on_c, 0, 84, 76
1, 1513459, Note_off_c, 0, 55, 70
1, 1513477, Note_off_c, 0, 60, 61
1, 1513504, Note_on_c, 0, 75, 92
1, 1513506, Note_off_c, 0, 51, 61
1, 1513540, Note_off_c, 0, 84, 61
1, 1513543, Note_off_c, 0, 87, 46
1, 1513550, Note_off_c, 0, 75, 65
1, 1513578, Note_off_c, 0, 79, 21
1, 1513605, Note_on_c, 0, 43, 83
1, 1513617, Note_on_c, 0, 79, 87
1, 1513662, Note_off_c, 0, 43, 60
1, 1513693, Note_on_c, 0, 84, 84
1, 1513693, Note_on_c, 0, 87, 78
1, 1513693, Note_on_c, 0, 91, 74
1, 1513706, Note_off_c, 0, 79, 56
1, 1513722, Note_off_c, 0, 87, 59
1, 1513724, Note_off_c, 0, 91, 60
1, 1513735, Note_off_c, 0, 84, 63
1, 1513777, Note_on_c, 0, 60, 87
1, 1513782, Note_on_c, 0, 55, 77
1, 1513782, Note_on_c, 0, 87, 87
1, 1513783, Note_on_c, 0, 91, 83
1, 1513787, Note_on_c, 0, 84, 77
1, 1513787, Note_on_c, 0, 51, 82
1, 1513807, Note_off_c, 0, 55, 67
1, 1513818, Note_off_c, 0, 60, 62
1, 1513870, Note_on_c, 0, 79, 93
1, 1513884, Note_off_c, 0, 51, 61
1, 1513898, Note_off_c, 0, 84, 57
1, 1513923, Note_off_c, 0, 87, 53
1, 1513936, Note_off_c, 0, 79, 59
1, 1513978, Note_off_c, 0, 91, 52
1, 1514063, Note_on_c, 0, 81, 104
1, 1514075, Control_c, 0, 64, 90
1, 1514082, Note_on_c, 0, 42, 95
1, 1514090, Control_c, 0, 64, 50
1, 1514105, Control_c, 0, 64, 0
1, 1514149, Control_c, 0, 64, 84
1, 1514164, Control_c, 0, 64, 127
1, 1514215, Note_off_c, 0, 42, 61
1, 1514256, Note_on_c, 0, 86, 92
1, 1514257, Note_on_c, 0, 93, 99
1, 1514258, Note_on_c, 0, 84, 94
1, 1514304, Note_off_c, 0, 81, 54
1, 1514342, Note_off_c, 0, 84, 63
1, 1514351, Note_off_c, 0, 86, 64
1, 1514352, Note_off_c, 0, 93, 61
1, 1514421, Note_on_c, 0, 86, 99
1, 1514422, Note_on_c, 0, 84, 100
1, 1514426, Note_on_c, 0, 93, 94
1, 1514428, Note_on_c, 0, 60, 74
1, 1514432, Note_on_c, 0, 57, 65
1, 1514434, Note_on_c, 0, 50, 72
1, 1514490, Note_off_c, 0, 60, 58
1, 1514491, Note_off_c, 0, 57, 59
1, 1514520, Note_off_c, 0, 93, 62
1, 1514535, Note_off_c, 0, 84, 61
1, 1514535, Note_off_c, 0, 86, 64
1, 1514541, Note_on_c, 0, 81, 89
1, 1514543, Note_off_c, 0, 50, 62
1, 1514577, Note_off_c, 0, 81, 62
1, 1514650, Note_on_c, 0, 74, 93
1, 1514662, Note_on_c, 0, 42, 86
1, 1514709, Note_off_c, 0, 42, 61
1, 1514745, Note_on_c, 0, 81, 83
1, 1514750, Note_on_c, 0, 84, 64
1, 1514751, Note_on_c, 0, 86, 66
1, 1514758, Note_off_c, 0, 74, 60
1, 1514765, Note_on_c, 0, 83, 52
1, 1514786, Note_off_c, 0, 84, 67
1, 1514790, Note_off_c, 0, 86, 61
1, 1514795, Note_off_c, 0, 83, 56
1, 1514797, Note_off_c, 0, 81, 61
1, 1514849, Note_on_c, 0, 81, 77
1, 1514855, Note_on_c, 0, 86, 72
1, 1514856, Note_on_c, 0, 60, 78
1, 1514859, Note_on_c, 0, 84, 79
1, 1514864, Note_on_c, 0, 50, 70
1, 1514864, Note_on_c, 0, 57, 61
1, 1514872, Note_on_c, 0, 83, 58
1, 1514884, Note_off_c, 0, 60, 58
1, 1514885, Note_off_c, 0, 57, 62
1, 1514893, Note_off_c, 0, 83, 58
1, 1514903, Note_off_c, 0, 86, 63
1, 1514906, Note_off_c, 0, 81, 61
1, 1514906, Note_off_c, 0, 84, 64
1, 1514923, Note_off_c, 0, 50, 63
1, 1514929, Note_on_c, 0, 74, 73
1, 1514951, Note_off_c, 0, 74, 71
1, 1515017, Note_on_c, 0, 69, 79
1, 1515025, Note_on_c, 0, 42, 81
1, 1515031, Note_on_c, 0, 71, 59
1, 1515053, Note_off_c, 0, 42, 65
1, 1515053, Note_off_c, 0, 71, 62
1, 1515088, Note_on_c, 0, 74, 72
1, 1515093, Note_off_c, 0, 69, 62
1, 1515100, Note_on_c, 0, 72, 55
1, 1515116, Note_off_c, 0, 74, 66
1, 1515119, Note_off_c, 0, 72, 63
1, 1515142, Poly_aftertouch_c, 0, 44, 0
1, 1515169, Note_on_c, 0, 81, 66
1, 1515182, Note_on_c, 0, 72, 75
1, 1515184, Note_on_c, 0, 74, 69
1, 1515188, Note_on_c, 0, 60, 75
1, 1515194, Note_on_c, 0, 50, 70
1, 1515194, Note_on_c, 0, 57, 61
1, 1515212, Note_off_c, 0, 60, 64
1, 1515214, Note_off_c, 0, 57, 63
1, 1515224, Note_off_c, 0, 81, 62
1, 1515233, Note_off_c, 0, 74, 66
1, 1515233, Note_off_c, 0, 72, 64
1, 1515248, Note_off_c, 0, 50, 63
1, 1515253, Note_on_c, 0, 69, 74
1, 1515271, Note_off_c, 0, 69, 75
1, 1515342, Note_on_c, 0, 42, 85
1, 1515344, Note_on_c, 0, 62, 84
1, 1515370, Note_off_c, 0, 42, 63
1, 1515415, Note_on_c, 0, 72, 69
1, 1515416, Note_off_c, 0, 62, 57
1, 1515427, Note_on_c, 0, 69, 61
1, 1515436, Note_on_c, 0, 74, 51
1, 1515441, Note_off_c, 0, 72, 67
1, 1515450, Note_off_c, 0, 69, 71
1, 1515475, Note_off_c, 0, 74, 0
1, 1515499, Note_on_c, 0, 69, 75
1, 1515508, Note_on_c, 0, 60, 67
1, 1515508, Note_on_c, 0, 72, 72
1, 1515511, Note_on_c, 0, 57, 58
1, 1515513, Poly_aftertouch_c, 0, 74, 127
1, 1515516, Note_on_c, 0, 50, 63
1, 1515538, Note_off_c, 0, 57, 62
1, 1515541, Note_off_c, 0, 60, 68
1, 1515546, Poly_aftertouch_c, 0, 74, 0
1, 1515566, Note_off_c, 0, 72, 57
1, 1515572, Note_off_c, 0, 50, 61
1, 1515585, Note_on_c, 0, 62, 86
1, 1515600, Note_off_c, 0, 69, 60
1, 1515614, Note_off_c, 0, 62, 59
1, 1515674, Note_on_c, 0, 42, 80
1, 1515682, Note_on_c, 0, 62, 79
1, 1515708, Note_off_c, 0, 42, 63
1, 1515750, Note_off_c, 0, 62, 58
1, 1515763, Note_on_c, 0, 72, 58
1, 1515768, Note_on_c, 0, 69, 63
1, 1515769, Note_on_c, 0, 74, 54
1, 1515784, Note_off_c, 0, 72, 64
1, 1515796, Note_off_c, 0, 69, 69
1, 1515802, Note_off_c, 0, 74, 63
1, 1515849, Note_on_c, 0, 60, 70
1, 1515854, Note_on_c, 0, 72, 69
1, 1515854, Note_on_c, 0, 74, 49
1, 1515856, Note_on_c, 0, 69, 68
1, 1515856, Note_on_c, 0, 50, 65
1, 1515862, Note_on_c, 0, 57, 46
1, 1515871, Note_off_c, 0, 60, 70
1, 1515884, Note_off_c, 0, 69, 60
1, 1515886, Note_off_c, 0, 57, 58
1, 1515890, Note_off_c, 0, 74, 66
1, 1515898, Note_off_c, 0, 72, 58
1, 1515900, Note_off_c, 0, 50, 63
1, 1515925, Note_on_c, 0, 62, 79
1, 1515960, Note_off_c, 0, 62, 60
1, 1516013, Note_on_c, 0, 42, 74
1, 1516024, Note_on_c, 0, 62, 70
1, 1516046, Note_off_c, 0, 42, 66
1, 1516076, Note_off_c, 0, 62, 58
1, 1516093, Note_on_c, 0, 72, 63
1, 1516103, Note_on_c, 0, 69, 64
1, 1516112, Note_on_c, 0, 74, 45
1, 1516123, Note_off_c, 0, 72, 66
1, 1516129, Note_off_c, 0, 69, 70
1, 1516136, Note_off_c, 0, 74, 61
1, 1516187, Note_on_c, 0, 60, 59
1, 1516188, Note_on_c, 0, 69, 67
1, 1516193, Note_on_c, 0, 50, 58
1, 1516202, Note_on_c, 0, 72, 57
1, 1516207, Note_off_c, 0, 60, 65
1, 1516208, Note_on_c, 0, 57, 22
1, 1516216, Note_on_c, 0, 74, 44
1, 1516233, Note_off_c, 0, 72, 66
1, 1516234, Note_off_c, 0, 50, 63
1, 1516237, Note_off_c, 0, 69, 62
1, 1516243, Note_off_c, 0, 74, 56
1, 1516247, Note_off_c, 0, 57, 43
1, 1516265, Note_on_c, 0, 62, 71
1, 1516303, Note_off_c, 0, 62, 64
1, 1516348, Note_on_c, 0, 42, 75
1, 1516371, Note_on_c, 0, 62, 71
1, 1516383, Note_off_c, 0, 42, 64
1, 1516426, Note_off_c, 0, 62, 61
1, 1516446, Note_on_c, 0, 74, 36
1, 1516452, Note_on_c, 0, 72, 8
1, 1516454, Note_on_c, 0, 69, 38
1, 1516488, Note_off_c, 0, 74, 42
1, 1516503, Note_off_c, 0, 69, 0
1, 1516503, Note_on_c, 0, 69, 46
1, 1516518, Note_off_c, 0, 72, 0
1, 1516518, Note_on_c, 0, 72, 42
1, 1516520, Note_on_c, 0, 74, 48
1, 1516526, Note_on_c, 0, 60, 64
1, 1516532, Note_on_c, 0, 50, 59
1, 1516535, Note_on_c, 0, 57, 42
1, 1516556, Note_off_c, 0, 60, 65
1, 1516562, Note_off_c, 0, 57, 55
1, 1516564, Note_off_c, 0, 69, 65
1, 1516576, Note_off_c, 0, 50, 62
1, 1516581, Note_off_c, 0, 74, 61
1, 1516582, Note_off_c, 0, 72, 63
1, 1516601, Note_on_c, 0, 62, 70
1, 1516664, Note_off_c, 0, 62, 51
1, 1516691, Note_on_c, 0, 42, 73
1, 1516707, Control_c, 0, 64, 98
1, 1516717, Note_off_c, 0, 42, 67
1, 1516722, Control_c, 0, 64, 80
1, 1516736, Control_c, 0, 64, 69
1, 1516751, Control_c, 0, 64, 61
1, 1516766, Control_c, 0, 64, 48
1, 1516772, Note_on_c, 0, 66, 79
1, 1516781, Control_c, 0, 64, 23
1, 1516796, Control_c, 0, 64, 0
1, 1516868, Note_on_c, 0, 69, 81
1, 1516874, Note_off_c, 0, 66, 66
1, 1516887, Note_on_c, 0, 60, 52
1, 1516895, Note_on_c, 0, 50, 57
1, 1516901, Note_on_c, 0, 57, 22
1, 1516918, Note_off_c, 0, 60, 64
1, 1516943, Note_off_c, 0, 57, 30
1, 1516949, Note_off_c, 0, 50, 63
1, 1516988, Note_on_c, 0, 72, 84
1, 1517039, Note_off_c, 0, 69, 62
1, 1517113, Control_c, 0, 67, 9
1, 1517127, Control_c, 0, 67, 12
1, 1517142, Control_c, 0, 67, 15
1, 1517156, Note_on_c, 0, 76, 88
1, 1517158, Control_c, 0, 67, 18
1, 1517173, Control_c, 0, 64, 31
1, 1517173, Control_c, 0, 67, 22
1, 1517174, Note_off_c, 0, 72, 64
1, 1517182, Note_on_c, 0, 38, 55
1, 1517188, Control_c, 0, 64, 60
1, 1517188, Control_c, 0, 67, 26
1, 1517203, Control_c, 0, 64, 66
1, 1517203, Control_c, 0, 67, 29
1, 1517218, Control_c, 0, 64, 69
1, 1517218, Control_c, 0, 67, 31
1, 1517232, Control_c, 0, 64, 72
1, 1517232, Control_c, 0, 67, 34
1, 1517247, Control_c, 0, 64, 74
1, 1517247, Control_c, 0, 67, 37
1, 1517248, Note_off_c, 0, 38, 63
1, 1517262, Control_c, 0, 64, 77
1, 1517262, Control_c, 0, 67, 41
1, 1517276, Control_c, 0, 64, 77
1, 1517276, Control_c, 0, 67, 45
1, 1517291, Control_c, 0, 64, 78
1, 1517291, Control_c, 0, 67, 49
1, 1517301, Note_on_c, 0, 72, 66
1, 1517306, Control_c, 0, 67, 52
1, 1517321, Control_c, 0, 67, 55
1, 1517336, Control_c, 0, 67, 58
1, 1517339, Note_off_c, 0, 76, 61
1, 1517350, Control_c, 0, 67, 60
1, 1517365, Control_c, 0, 67, 62
1, 1517379, Note_off_c, 0, 72, 64
1, 1517380, Control_c, 0, 67, 64
1, 1517394, Control_c, 0, 67, 66
1, 1517409, Note_on_c, 0, 69, 68
1, 1517409, Control_c, 0, 67, 68
1, 1517424, Control_c, 0, 67, 69
1, 1517425, Note_on_c, 0, 60, 52
1, 1517428, Note_on_c, 0, 50, 49
1, 1517430, Note_on_c, 0, 57, 38
1, 1517439, Control_c, 0, 67, 70
1, 1517468, Control_c, 0, 67, 70
1, 1517498, Control_c, 0, 67, 71
1, 1517499, Note_on_c, 0, 66, 74
1, 1517505, Note_off_c, 0, 69, 61
1, 1517571, Note_on_c, 0, 72, 77
1, 1517584, Note_off_c, 0, 66, 64
1, 1517588, Note_off_c, 0, 50, 62
1, 1517591, Note_off_c, 0, 60, 54
1, 1517592, Note_off_c, 0, 57, 50
1, 1517665, Note_on_c, 0, 69, 66
1, 1517695, Note_off_c, 0, 72, 60
1, 1517713, Note_on_c, 0, 60, 52
1, 1517721, Control_c, 0, 64, 79
1, 1517723, Note_on_c, 0, 57, 29
1, 1517728, Note_on_c, 0, 50, 53
1, 1517734, Note_off_c, 0, 60, 63
1, 1517736, Control_c, 0, 64, 79
1, 1517742, Note_on_c, 0, 66, 69
1, 1517750, Control_c, 0, 64, 80
1, 1517756, Note_off_c, 0, 57, 44
1, 1517759, Note_off_c, 0, 50, 65
1, 1517765, Control_c, 0, 64, 81
1, 1517788, Control_c, 0, 64, 82
1, 1517796, Note_off_c, 0, 69, 54
1, 1517802, Control_c, 0, 67, 71
1, 1517808, Note_off_c, 0, 66, 65
1, 1517817, Control_c, 0, 64, 79
1, 1517817, Control_c, 0, 67, 72
1, 1517829, Note_on_c, 0, 62, 72
1, 1517832, Control_c, 0, 64, 65
1, 1517847, Control_c, 0, 64, 24
1, 1517847, Control_c, 0, 67, 73
1, 1517862, Control_c, 0, 64, 0
1, 1517862, Control_c, 0, 67, 75
1, 1517877, Control_c, 0, 67, 80
1, 1517892, Control_c, 0, 64, 43
1, 1517892, Control_c, 0, 67, 85
1, 1517898, Note_off_c, 0, 62, 58
1, 1517900, Note_on_c, 0, 38, 63
1, 1517907, Control_c, 0, 64, 60
1, 1517907, Control_c, 0, 67, 89
1, 1517912, Note_on_c, 0, 66, 70
1, 1517921, Control_c, 0, 64, 66
1, 1517921, Control_c, 0, 67, 93
1, 1517929, Note_off_c, 0, 38, 64
1, 1517936, Control_c, 0, 64, 71
1, 1517936, Control_c, 0, 67, 96
1, 1517951, Control_c, 0, 64, 73
1, 1517951, Control_c, 0, 67, 100
1, 1517967, Control_c, 0, 67, 103
1, 1517970, Note_off_c, 0, 66, 64
1, 1517981, Control_c, 0, 67, 106
1, 1517987, Note_on_c, 0, 62, 58
1, 1517996, Control_c, 0, 67, 109
1, 1518011, Control_c, 0, 67, 111
1, 1518026, Control_c, 0, 67, 114
1, 1518041, Control_c, 0, 67, 116
1, 1518056, Control_c, 0, 67, 119
1, 1518066, Note_on_c, 0, 66, 72
1, 1518071, Control_c, 0, 67, 121
1, 1518080, Note_on_c, 0, 57, 48
1, 1518085, Control_c, 0, 67, 123
1, 1518088, Note_on_c, 0, 60, 46
1, 1518092, Note_on_c, 0, 50, 46
1, 1518100, Control_c, 0, 67, 125
1, 1518106, Note_off_c, 0, 62, 36
1, 1518115, Control_c, 0, 67, 126
1, 1518130, Control_c, 0, 67, 127
1, 1518145, Control_c, 0, 67, 127
1, 1518153, Note_on_c, 0, 69, 70
1, 1518168, Note_off_c, 0, 66, 58
1, 1518231, Note_off_c, 0, 60, 59
1, 1518234, Note_on_c, 0, 72, 60
1, 1518236, Note_off_c, 0, 69, 63
1, 1518237, Note_off_c, 0, 57, 59
1, 1518248, Note_off_c, 0, 50, 56
1, 1518301, Note_on_c, 0, 66, 63
1, 1518331, Note_off_c, 0, 72, 62
1, 1518349, Note_off_c, 0, 66, 61
1, 1518378, Note_on_c, 0, 69, 65
1, 1518379, Note_on_c, 0, 50, 59
1, 1518379, Note_on_c, 0, 60, 53
1, 1518381, Control_c, 0, 64, 73
1, 1518401, Note_off_c, 0, 60, 61
1, 1518411, Control_c, 0, 64, 74
1, 1518416, Note_off_c, 0, 50, 64
1, 1518425, Control_c, 0, 64, 74
1, 1518440, Control_c, 0, 64, 75
1, 1518458, Note_on_c, 0, 72, 70
1, 1518465, Note_off_c, 0, 69, 55
1, 1518485, Control_c, 0, 64, 68
1, 1518500, Control_c, 0, 64, 50
1, 1518515, Control_c, 0, 64, 0
1, 1518545, Note_off_c, 0, 72, 64
1, 1518552, Note_on_c, 0, 76, 78
1, 1518564, Note_on_c, 0, 38, 63
1, 1518567, Control_c, 0, 64, 45
1, 1518581, Control_c, 0, 64, 63
1, 1518592, Note_off_c, 0, 38, 66
1, 1518596, Control_c, 0, 64, 69
1, 1518611, Control_c, 0, 64, 72
1, 1518625, Control_c, 0, 64, 73
1, 1518643, Note_off_c, 0, 76, 62
1, 1518646, Note_on_c, 0, 72, 70
1, 1518702, Note_off_c, 0, 72, 64
1, 1518739, Note_on_c, 0, 69, 61
1, 1518753, Note_on_c, 0, 57, 41
1, 1518755, Note_on_c, 0, 60, 44
1, 1518771, Note_on_c, 0, 50, 36
1, 1518815, Note_off_c, 0, 57, 0
1, 1518819, Note_off_c, 0, 69, 62
1, 1518825, Note_on_c, 0, 66, 62
1, 1518852, Poly_aftertouch_c, 0, 57, 127
1, 1518891, Note_off_c, 0, 66, 63
1, 1518897, Note_on_c, 0, 72, 63
1, 1518899, Note_off_c, 0, 50, 55
1, 1518908, Poly_aftertouch_c, 0, 57, 0
1, 1518929, Note_off_c, 0, 60, 35
1, 1518987, Note_off_c, 0, 72, 58
1, 1518988, Note_on_c, 0, 69, 56
1, 1519027, Control_c, 0, 64, 73
1, 1519033, Note_on_c, 0, 60, 54
1, 1519041, Control_c, 0, 64, 74
1, 1519043, Note_on_c, 0, 50, 47
1, 1519056, Control_c, 0, 64, 75
1, 1519057, Note_off_c, 0, 60, 63
1, 1519069, Note_on_c, 0, 66, 61
1, 1519071, Control_c, 0, 64, 76
1, 1519076, Note_off_c, 0, 50, 63
1, 1519086, Control_c, 0, 64, 77
1, 1519101, Note_off_c, 0, 69, 36
1, 1519101, Control_c, 0, 64, 78
1, 1519115, Control_c, 0, 64, 80
1, 1519120, Note_off_c, 0, 66, 63
1, 1519145, Control_c, 0, 64, 76
1, 1519154, Note_on_c, 0, 62, 62
1, 1519160, Control_c, 0, 64, 67
1, 1519175, Control_c, 0, 64, 48
1, 1519189, Control_c, 0, 64, 33
1, 1519204, Control_c, 0, 64, 46
1, 1519212, Note_off_c, 0, 62, 51
1, 1519214, Note_on_c, 0, 38, 63
1, 1519219, Control_c, 0, 64, 56
1, 1519234, Control_c, 0, 64, 62
1, 1519236, Note_on_c, 0, 66, 66
1, 1519241, Note_off_c, 0, 38, 67
1, 1519248, Control_c, 0, 64, 65
1, 1519271, Control_c, 0, 64, 68
1, 1519286, Control_c, 0, 64, 69
1, 1519303, Note_off_c, 0, 66, 59
1, 1519336, Note_on_c, 0, 62, 50
1, 1519397, Note_off_c, 0, 62, 39
1, 1519400, Note_on_c, 0, 57, 49
1, 1519404, Note_on_c, 0, 60, 51
1, 1519412, Note_on_c, 0, 66, 67
1, 1519412, Note_on_c, 0, 50, 45
1, 1519490, Note_on_c, 0, 69, 65
1, 1519492, Note_off_c, 0, 66, 59
1, 1519563, Note_off_c, 0, 57, 52
1, 1519567, Note_on_c, 0, 72, 60
1, 1519567, Note_off_c, 0, 60, 52
1, 1519569, Note_off_c, 0, 50, 55
1, 1519572, Note_off_c, 0, 69, 57
1, 1519642, Note_on_c, 0, 66, 56
1, 1519652, Note_off_c, 0, 72, 57
1, 1519671, Control_c, 0, 64, 69
1, 1519680, Note_off_c, 0, 66, 65
1, 1519686, Control_c, 0, 64, 70
1, 1519701, Control_c, 0, 64, 71
1, 1519706, Note_on_c, 0, 60, 51
1, 1519711, Note_on_c, 0, 69, 60
1, 1519716, Note_on_c, 0, 50, 48
1, 1519716, Control_c, 0, 64, 72
1, 1519730, Note_on_c, 0, 57, 5
1, 1519731, Note_off_c, 0, 60, 60
1, 1519731, Control_c, 0, 64, 73
1, 1519746, Control_c, 0, 64, 73
1, 1519749, Note_off_c, 0, 50, 64
1, 1519761, Control_c, 0, 64, 74
1, 1519776, Control_c, 0, 64, 75
1, 1519784, Note_off_c, 0, 57, 26
1, 1519795, Note_on_c, 0, 72, 65
1, 1519814, Note_off_c, 0, 69, 37
1, 1519820, Control_c, 0, 64, 75
1, 1519835, Control_c, 0, 64, 65
1, 1519850, Control_c, 0, 64, 34
1, 1519864, Control_c, 0, 64, 0
1, 1519883, Note_on_c, 0, 76, 80
1, 1519884, Note_off_c, 0, 72, 65
1, 1519892, Note_on_c, 0, 38, 65
1, 1519909, Control_c, 0, 64, 43
1, 1519919, Note_off_c, 0, 38, 66
1, 1519924, Control_c, 0, 64, 64
1, 1519938, Control_c, 0, 64, 72
1, 1519953, Control_c, 0, 64, 75
1, 1519976, Note_off_c, 0, 76, 66
1, 1519993, Note_on_c, 0, 72, 66
1, 1520020, Control_c, 0, 64, 74
1, 1520035, Control_c, 0, 64, 73
1, 1520050, Control_c, 0, 64, 73
1, 1520068, Note_off_c, 0, 72, 57
1, 1520073, Note_on_c, 0, 69, 63
1, 1520100, Note_on_c, 0, 57, 35
1, 1520109, Note_on_c, 0, 60, 23
1, 1520121, Note_on_c, 0, 50, 30
1, 1520169, Note_on_c, 0, 66, 54
1, 1520175, Note_off_c, 0, 60, 0
1, 1520211, Poly_aftertouch_c, 0, 60, 127
1, 1520233, Note_off_c, 0, 69, 25
1, 1520242, Note_on_c, 0, 76, 72
1, 1520277, Note_off_c, 0, 66, 36
1, 1520283, Poly_aftertouch_c, 0, 60, 0
1, 1520287, Note_off_c, 0, 50, 55
1, 1520300, Note_off_c, 0, 57, 39
1, 1520333, Note_on_c, 0, 72, 54
1, 1520343, Note_off_c, 0, 76, 54
1, 1520362, Control_c, 0, 64, 72
1, 1520417, Note_off_c, 0, 72, 56
1, 1520419, Note_on_c, 0, 69, 54
1, 1520443, Note_on_c, 0, 60, 38
1, 1520444, Note_on_c, 0, 57, 25
1, 1520454, Note_on_c, 0, 50, 22
1, 1520491, Note_on_c, 0, 66, 53
1, 1520574, Note_off_c, 0, 66, 39
1, 1520591, Note_on_c, 0, 76, 61
1, 1520594, Note_off_c, 0, 69, 44
1, 1520619, Note_off_c, 0, 50, 53
1, 1520621, Note_off_c, 0, 57, 51
1, 1520633, Note_off_c, 0, 60, 41
1, 1520688, Note_on_c, 0, 72, 49
1, 1520694, Note_off_c, 0, 76, 52
1, 1520769, Note_off_c, 0, 72, 53
1, 1520772, Note_on_c, 0, 69, 48
1, 1520795, Note_on_c, 0, 60, 36
1, 1520800, Note_on_c, 0, 57, 26
1, 1520814, Note_on_c, 0, 50, 21
1, 1520853, Note_on_c, 0, 66, 45
1, 1520909, Note_off_c, 0, 66, 42
1, 1520941, Note_off_c, 0, 69, 41
1, 1520944, Note_on_c, 0, 76, 50
1, 1520979, Note_off_c, 0, 60, 48
1, 1520987, Note_off_c, 0, 50, 50
1, 1520991, Note_off_c, 0, 57, 51
1, 1521039, Note_on_c, 0, 72, 44
1, 1521054, Note_off_c, 0, 76, 46
1, 1521096, Note_off_c, 0, 72, 53
1, 1521108, Note_on_c, 0, 69, 46
1, 1521115, Note_on_c, 0, 57, 37
1, 1521120, Note_on_c, 0, 60, 44
1, 1521123, Control_c, 0, 64, 73
1, 1521131, Note_on_c, 0, 50, 37
1, 1521171, Note_off_c, 0, 69, 59
1, 1521202, Note_on_c, 0, 66, 47
1, 1521228, Note_off_c, 0, 66, 58
1, 1521228, Control_c, 0, 64, 73
1, 1521364, Note_on_c, 0, 76, 38
1, 1521376, Note_off_c, 0, 60, 49
1, 1521393, Note_off_c, 0, 50, 50
1, 1521395, Note_off_c, 0, 57, 50
1, 1521415, Note_off_c, 0, 76, 64
1, 1521457, Note_on_c, 0, 72, 40
1, 1521512, Note_off_c, 0, 72, 41
1, 1521573, Note_on_c, 0, 76, 53
1, 1521584, Note_on_c, 0, 57, 35
1, 1521585, Note_on_c, 0, 60, 38
1, 1521592, Note_on_c, 0, 50, 29
1, 1521616, Note_off_c, 0, 57, 55
1, 1521619, Note_off_c, 0, 60, 54
1, 1521629, Note_off_c, 0, 50, 47
1, 1521639, Note_off_c, 0, 76, 63
1, 1521687, Note_on_c, 0, 72, 46
1, 1521731, Note_off_c, 0, 72, 53
1, 1521764, Note_on_c, 0, 57, 45
1, 1521767, Note_on_c, 0, 76, 61
1, 1521768, Note_on_c, 0, 60, 41
1, 1521770, Note_on_c, 0, 50, 39
1, 1521805, Note_off_c, 0, 50, 56
1, 1521806, Note_off_c, 0, 57, 59
1, 1521806, Note_off_c, 0, 60, 56
1, 1521822, Note_off_c, 0, 76, 62
1, 1521857, Note_on_c, 0, 72, 57
1, 1521919, Note_off_c, 0, 72, 59
1, 1521926, Note_on_c, 0, 50, 54
1, 1521929, Note_on_c, 0, 57, 43
1, 1521931, Note_on_c, 0, 60, 46
1, 1521944, Note_on_c, 0, 76, 67
1, 1521955, Note_off_c, 0, 57, 56
1, 1521967, Note_off_c, 0, 50, 60
1, 1521971, Note_off_c, 0, 60, 61
1, 1521998, Note_off_c, 0, 76, 63
1, 1522035, Note_on_c, 0, 72, 61
1, 1522066, Control_c, 0, 64, 73
1, 1522081, Control_c, 0, 64, 72
1, 1522096, Control_c, 0, 64, 71
1, 1522104, Note_on_c, 0, 50, 40
1, 1522105, Note_off_c, 0, 72, 48
1, 1522108, Note_on_c, 0, 73, 72
1, 1522110, Note_on_c, 0, 58, 47
1, 1522111, Control_c, 0, 64, 70
1, 1522113, Note_on_c, 0, 61, 52
1, 1522126, Control_c, 0, 64, 69
1, 1522140, Control_c, 0, 64, 68
1, 1522155, Control_c, 0, 64, 68
1, 1522170, Control_c, 0, 64, 67
1, 1522182, Note_off_c, 0, 61, 59
1, 1522185, Control_c, 0, 64, 67
1, 1522190, Note_off_c, 0, 58, 60
1, 1522197, Note_off_c, 0, 73, 60
1, 1522199, Note_on_c, 0, 76, 72
1, 1522199, Control_c, 0, 64, 66
1, 1522210, Note_off_c, 0, 50, 46
1, 1522214, Control_c, 0, 67, 124
1, 1522229, Control_c, 0, 64, 66
1, 1522229, Control_c, 0, 67, 116
1, 1522244, Control_c, 0, 64, 65
1, 1522244, Control_c, 0, 67, 110
1, 1522259, Control_c, 0, 64, 65
1, 1522259, Control_c, 0, 67, 105
1, 1522274, Note_off_c, 0, 76, 65
1, 1522281, Control_c, 0, 64, 64
1, 1522281, Control_c, 0, 67, 102
1, 1522289, Note_on_c, 0, 73, 78
1, 1522296, Control_c, 0, 64, 64
1, 1522296, Control_c, 0, 67, 99
1, 1522297, Note_on_c, 0, 61, 56
1, 1522298, Note_on_c, 0, 50, 43
1, 1522302, Note_on_c, 0, 58, 47
1, 1522311, Control_c, 0, 67, 96
1, 1522326, Control_c, 0, 64, 63
1, 1522326, Control_c, 0, 67, 93
1, 1522341, Control_c, 0, 64, 63
1, 1522341, Control_c, 0, 67, 90
1, 1522355, Control_c, 0, 64, 62
1, 1522355, Control_c, 0, 67, 87
1, 1522368, Note_on_c, 0, 76, 79
1, 1522370, Control_c, 0, 64, 62
1, 1522370, Control_c, 0, 67, 84
1, 1522371, Note_off_c, 0, 61, 57
1, 1522376, Note_off_c, 0, 58, 57
1, 1522385, Control_c, 0, 64, 61
1, 1522385, Control_c, 0, 67, 81
1, 1522392, Note_off_c, 0, 73, 59
1, 1522393, Note_off_c, 0, 50, 37
1, 1522399, Control_c, 0, 64, 60
1, 1522399, Control_c, 0, 67, 78
1, 1522414, Control_c, 0, 64, 58
1, 1522414, Control_c, 0, 67, 74
1, 1522429, Control_c, 0, 64, 56
1, 1522429, Control_c, 0, 67, 70
1, 1522444, Control_c, 0, 64, 55
1, 1522444, Control_c, 0, 67, 66
1, 1522451, Note_off_c, 0, 76, 58
1, 1522459, Control_c, 0, 64, 54
1, 1522459, Control_c, 0, 67, 61
1, 1522470, Note_on_c, 0, 73, 80
1, 1522472, Note_on_c, 0, 50, 44
1, 1522473, Note_on_c, 0, 61, 53
1, 1522473, Control_c, 0, 64, 54
1, 1522473, Control_c, 0, 67, 56
1, 1522477, Note_on_c, 0, 58, 45
1, 1522488, Control_c, 0, 64, 53
1, 1522488, Control_c, 0, 67, 52
1, 1522503, Control_c, 0, 64, 49
1, 1522503, Control_c, 0, 67, 47
1, 1522518, Control_c, 0, 64, 36
1, 1522518, Control_c, 0, 67, 40
1, 1522533, Control_c, 0, 64, 0
1, 1522533, Control_c, 0, 67, 30
1, 1522548, Control_c, 0, 67, 22
1, 1522563, Control_c, 0, 67, 14
1, 1522572, Note_on_c, 0, 76, 79
1, 1522578, Control_c, 0, 67, 0
1, 1522579, Note_off_c, 0, 58, 54
1, 1522579, Note_off_c, 0, 61, 53
1, 1522599, Note_off_c, 0, 73, 62
1, 1522616, Note_off_c, 0, 50, 36
1, 1522704, Note_off_c, 0, 76, 62
1, 1522710, Note_on_c, 0, 73, 85
1, 1522718, Note_on_c, 0, 58, 46
1, 1522724, Note_on_c, 0, 61, 39
1, 1522728, Note_on_c, 0, 50, 48
1, 1522786, Control_c, 0, 64, 44
1, 1522801, Control_c, 0, 64, 61
1, 1522808, Note_off_c, 0, 61, 60
1, 1522810, Note_off_c, 0, 58, 58
1, 1522815, Control_c, 0, 64, 68
1, 1522830, Control_c, 0, 64, 79
1, 1522840, Note_off_c, 0, 50, 59
1, 1522845, Control_c, 0, 64, 108
1, 1522860, Control_c, 0, 64, 127
1, 1522865, Note_on_c, 0, 76, 79
1, 1522925, Note_off_c, 0, 73, 56
1, 1522953, Note_off_c, 0, 76, 65
1, 1523178, Control_c, 0, 64, 98
1, 1523193, Control_c, 0, 64, 86
1, 1523208, Control_c, 0, 64, 77
1, 1523222, Control_c, 0, 64, 70
1, 1523237, Control_c, 0, 64, 64
1, 1523237, Control_c, 0, 67, 10
1, 1523252, Control_c, 0, 64, 55
1, 1523252, Control_c, 0, 67, 15
1, 1523267, Control_c, 0, 64, 40
1, 1523267, Control_c, 0, 67, 20
1, 1523282, Control_c, 0, 64, 0
1, 1523282, Control_c, 0, 67, 25
1, 1523296, Control_c, 0, 67, 30
1, 1523311, Control_c, 0, 67, 34
1, 1523326, Control_c, 0, 67, 38
1, 1523341, Control_c, 0, 67, 41
1, 1523356, Control_c, 0, 67, 44
1, 1523368, Note_on_c, 0, 74, 63
1, 1523371, Control_c, 0, 67, 48
1, 1523385, Control_c, 0, 67, 53
1, 1523400, Control_c, 0, 67, 58
1, 1523409, Note_on_c, 0, 62, 33
1, 1523415, Control_c, 0, 67, 62
1, 1523430, Control_c, 0, 67, 65
1, 1523430, Note_on_c, 0, 59, 40
1, 1523445, Control_c, 0, 67, 68
1, 1523455, Note_on_c, 0, 43, 28
1, 1523460, Control_c, 0, 67, 71
1, 1523467, Note_on_c, 0, 50, 31
1, 1523475, Control_c, 0, 67, 74
1, 1523489, Control_c, 0, 67, 77
1, 1523504, Control_c, 0, 67, 80
1, 1523519, Control_c, 0, 67, 82
1, 1523535, Control_c, 0, 67, 84
1, 1523549, Control_c, 0, 67, 85
1, 1523564, Control_c, 0, 67, 86
1, 1523579, Control_c, 0, 67, 87
1, 1523594, Control_c, 0, 67, 87
1, 1523609, Control_c, 0, 67, 88
1, 1523624, Control_c, 0, 67, 88
1, 1523638, Control_c, 0, 67, 89
1, 1523742, Control_c, 0, 67, 89
1, 1523779, Control_c, 0, 64, 29
1, 1523779, Control_c, 0, 67, 90
1, 1523794, Control_c, 0, 64, 43
1, 1523809, Control_c, 0, 64, 50
1, 1523824, Control_c, 0, 64, 53
1, 1523838, Control_c, 0, 64, 55
1, 1523853, Control_c, 0, 64, 58
1, 1523853, Control_c, 0, 67, 90
1, 1523868, Control_c, 0, 64, 60
1, 1523868, Control_c, 0, 67, 91
1, 1523883, Control_c, 0, 64, 62
1, 1523883, Control_c, 0, 67, 93
1, 1523898, Control_c, 0, 64, 63
1, 1523898, Control_c, 0, 67, 95
1, 1523912, Control_c, 0, 64, 64
1, 1523912, Control_c, 0, 67, 97
1, 1523927, Control_c, 0, 64, 64
1, 1523927, Control_c, 0, 67, 98
1, 1523942, Control_c, 0, 64, 65
1, 1523942, Control_c, 0, 67, 99
1, 1523957, Control_c, 0, 64, 66
1, 1523957, Control_c, 0, 67, 99
1, 1523971, Control_c, 0, 64, 68
1, 1523986, Control_c, 0, 64, 70
1, 1523986, Control_c, 0, 67, 100
1, 1524001, Control_c, 0, 64, 74
1, 1524001, Control_c, 0, 67, 100
1, 1524016, Control_c, 0, 64, 77
1, 1524016, Control_c, 0, 67, 101
1, 1524031, Control_c, 0, 64, 79
1, 1524031, Control_c, 0, 67, 102
1, 1524045, Control_c, 0, 64, 82
1, 1524045, Control_c, 0, 67, 104
1, 1524060, Control_c, 0, 64, 85
1, 1524060, Control_c, 0, 67, 106
1, 1524075, Control_c, 0, 64, 89
1, 1524075, Control_c, 0, 67, 108
1, 1524090, Control_c, 0, 64, 94
1, 1524090, Control_c, 0, 67, 110
1, 1524105, Control_c, 0, 64, 102
1, 1524105, Control_c, 0, 67, 112
1, 1524119, Control_c, 0, 64, 116
1, 1524119, Control_c, 0, 67, 113
1, 1524134, Control_c, 0, 64, 127
1, 1524134, Control_c, 0, 67, 115
1, 1524149, Control_c, 0, 67, 116
1, 1524164, Control_c, 0, 67, 117
1, 1524178, Control_c, 0, 67, 119
1, 1524193, Control_c, 0, 67, 121
1, 1524208, Control_c, 0, 67, 123
1, 1524223, Control_c, 0, 67, 126
1, 1524238, Control_c, 0, 67, 127
1, 1524411, Note_off_c, 0, 74, 55
1, 1524417, Note_on_c, 0, 72, 55
1, 1524468, Note_off_c, 0, 59, 44
1, 1524482, Note_off_c, 0, 62, 38
1, 1524530, Note_on_c, 0, 71, 58
1, 1524553, Note_off_c, 0, 72, 38
1, 1524614, Note_off_c, 0, 71, 60
1, 1524617, Control_c, 0, 64, 119
1, 1524632, Note_on_c, 0, 69, 55
1, 1524632, Control_c, 0, 64, 83
1, 1524647, Control_c, 0, 64, 67
1, 1524648, Note_on_c, 0, 60, 50
1, 1524650, Note_on_c, 0, 62, 43
1, 1524661, Control_c, 0, 64, 46
1, 1524676, Control_c, 0, 64, 0
1, 1524706, Control_c, 0, 64, 48
1, 1524721, Control_c, 0, 64, 63
1, 1524730, Note_off_c, 0, 69, 62
1, 1524736, Control_c, 0, 64, 68
1, 1524737, Note_on_c, 0, 71, 61
1, 1524751, Control_c, 0, 64, 76
1, 1524766, Control_c, 0, 64, 83
1, 1524781, Control_c, 0, 64, 87
1, 1524795, Control_c, 0, 64, 88
1, 1524810, Control_c, 0, 64, 89
1, 1524830, Note_on_c, 0, 72, 62
1, 1524834, Note_off_c, 0, 60, 58
1, 1524871, Note_off_c, 0, 71, 31
1, 1524903, Note_off_c, 0, 72, 64
1, 1524914, Control_c, 0, 64, 88
1, 1524917, Note_on_c, 0, 74, 58
1, 1524929, Control_c, 0, 64, 86
1, 1524943, Control_c, 0, 64, 83
1, 1524958, Control_c, 0, 64, 80
1, 1524973, Control_c, 0, 64, 75
1, 1524987, Control_c, 0, 64, 68
1, 1525002, Control_c, 0, 64, 56
1, 1525009, Note_off_c, 0, 74, 58
1, 1525010, Note_on_c, 0, 72, 65
1, 1525017, Control_c, 0, 64, 0
1, 1525019, Note_on_c, 0, 57, 55
1, 1525074, Note_off_c, 0, 72, 63
1, 1525218, Note_on_c, 0, 54, 53
1, 1525219, Note_on_c, 0, 69, 63
1, 1525247, Note_off_c, 0, 57, 42
1, 1525272, Note_off_c, 0, 54, 62
1, 1525282, Note_off_c, 0, 50, 57
1, 1525282, Note_off_c, 0, 69, 65
1, 1525293, Note_off_c, 0, 62, 41
1, 1525320, Note_off_c, 0, 43, 43
1, 1525451, Note_on_c, 0, 71, 52
1, 1525476, Note_on_c, 0, 50, 30
1, 1525484, Note_on_c, 0, 62, 36
1, 1525487, Note_on_c, 0, 43, 32
1, 1525490, Note_on_c, 0, 55, 28
1, 1525558, Control_c, 0, 64, 34
1, 1525573, Control_c, 0, 64, 51
1, 1525588, Control_c, 0, 64, 56
1, 1525603, Control_c, 0, 64, 58
1, 1525617, Control_c, 0, 64, 60
1, 1525632, Control_c, 0, 64, 62
1, 1525710, Note_on_c, 0, 67, 47
1, 1525716, Note_on_c, 0, 47, 40
1, 1525734, Note_off_c, 0, 71, 60
1, 1525735, Control_c, 0, 64, 61
1, 1525750, Control_c, 0, 64, 60
1, 1525765, Control_c, 0, 64, 58
1, 1525775, Note_off_c, 0, 67, 62
1, 1525779, Note_off_c, 0, 50, 58
1, 1525779, Note_off_c, 0, 47, 64
1, 1525780, Control_c, 0, 64, 53
1, 1525785, Note_off_c, 0, 55, 51
1, 1525785, Note_off_c, 0, 62, 48
1, 1525787, Note_off_c, 0, 43, 45
1, 1525795, Control_c, 0, 64, 33
1, 1525809, Control_c, 0, 64, 0
1, 1525913, Control_c, 0, 64, 14
1, 1525928, Control_c, 0, 64, 43
1, 1525944, Control_c, 0, 64, 51
1, 1525959, Control_c, 0, 64, 54
1, 1525974, Control_c, 0, 64, 56
1, 1525988, Control_c, 0, 64, 58
1, 1526003, Control_c, 0, 64, 61
1, 1526006, Note_on_c, 0, 55, 46
1, 1526014, Note_on_c, 0, 50, 53
1, 1526015, Note_on_c, 0, 59, 49
1, 1526016, Note_on_c, 0, 62, 50
1, 1526026, Control_c, 0, 64, 63
1, 1526040, Control_c, 0, 64, 64
1, 1526045, Note_off_c, 0, 62, 55
1, 1526049, Note_off_c, 0, 50, 62
1, 1526052, Note_off_c, 0, 59, 51
1, 1526053, Note_off_c, 0, 55, 58
1, 1526055, Control_c, 0, 64, 65
1, 1526101, Note_on_c, 0, 59, 48
1, 1526104, Note_on_c, 0, 62, 58
1, 1526110, Note_on_c, 0, 55, 47
1, 1526113, Note_on_c, 0, 50, 49
1, 1526134, Note_off_c, 0, 62, 62
1, 1526142, Note_off_c, 0, 50, 60
1, 1526144, Control_c, 0, 64, 64
1, 1526145, Note_off_c, 0, 59, 56
1, 1526159, Control_c, 0, 64, 63
1, 1526173, Note_off_c, 0, 55, 0
1, 1526173, Control_c, 0, 64, 63
1, 1526188, Control_c, 0, 64, 62
1, 1526194, Note_on_c, 0, 62, 65
1, 1526196, Note_on_c, 0, 59, 35
1, 1526198, Note_on_c, 0, 50, 52
1, 1526203, Control_c, 0, 64, 62
1, 1526218, Control_c, 0, 64, 61
1, 1526228, Note_off_c, 0, 50, 60
1, 1526228, Note_off_c, 0, 62, 59
1, 1526230, Note_off_c, 0, 59, 52
1, 1526232, Control_c, 0, 64, 61
1, 1526247, Control_c, 0, 64, 60
1, 1526252, Poly_aftertouch_c, 0, 55, 0
1, 1526262, Control_c, 0, 64, 59
1, 1526271, Note_on_c, 0, 62, 58
1, 1526277, Control_c, 0, 64, 59
1, 1526280, Note_on_c, 0, 50, 48
1, 1526280, Note_on_c, 0, 59, 41
1, 1526292, Control_c, 0, 64, 58
1, 1526307, Note_off_c, 0, 62, 57
1, 1526307, Poly_aftertouch_c, 0, 55, 0
1, 1526310, Note_off_c, 0, 50, 57
1, 1526310, Note_off_c, 0, 59, 53
1, 1526322, Control_c, 0, 64, 57
1, 1526337, Control_c, 0, 64, 56
1, 1526351, Control_c, 0, 64, 55
1, 1526366, Control_c, 0, 64, 55
1, 1526381, Control_c, 0, 64, 54
1, 1526392, Note_on_c, 0, 55, 26
1, 1526395, Note_on_c, 0, 62, 49
1, 1526396, Note_on_c, 0, 50, 23
1, 1526396, Note_on_c, 0, 59, 48
1, 1526396, Control_c, 0, 64, 54
1, 1526411, Control_c, 0, 64, 53
1, 1526426, Control_c, 0, 64, 52
1, 1526440, Control_c, 0, 64, 52
1, 1526455, Control_c, 0, 64, 51
1, 1526470, Control_c, 0, 64, 50
1, 1526485, Control_c, 0, 64, 49
1, 1526500, Control_c, 0, 64, 48
1, 1526514, Control_c, 0, 64, 46
1, 1526529, Control_c, 0, 64, 45
1, 1526544, Control_c, 0, 64, 43
1, 1526558, Control_c, 0, 64, 39
1, 1526573, Control_c, 0, 64, 35
1, 1526575, Note_off_c, 0, 59, 49
1, 1526588, Control_c, 0, 64, 32
1, 1526602, Note_on_c, 0, 64, 44
1, 1526603, Control_c, 0, 64, 31
1, 1526606, Note_on_c, 0, 60, 43
1, 1526618, Control_c, 0, 64, 29
1, 1526620, Note_off_c, 0, 62, 47
1, 1526632, Control_c, 0, 64, 28
1, 1526647, Control_c, 0, 64, 26
1, 1526662, Control_c, 0, 64, 23
1, 1526677, Control_c, 0, 64, 22
1, 1526692, Control_c, 0, 64, 20
1, 1526706, Control_c, 0, 64, 19
1, 1526721, Control_c, 0, 64, 17
1, 1526737, Control_c, 0, 64, 10
1, 1526752, Control_c, 0, 64, 0
1, 1526795, Note_off_c, 0, 64, 42
1, 1526809, Note_on_c, 0, 62, 50
1, 1526812, Note_on_c, 0, 59, 48
1, 1526817, Note_off_c, 0, 60, 35
1, 1526834, Note_off_c, 0, 50, 43
1, 1526843, Note_off_c, 0, 55, 50
1, 1526848, Note_off_c, 0, 59, 64
1, 1526854, Note_off_c, 0, 62, 61
1, 1527022, Note_on_c, 0, 79, 71
1, 1527070, Control_c, 0, 64, 51
1, 1527085, Control_c, 0, 64, 64
1, 1527100, Control_c, 0, 64, 71
1, 1527115, Control_c, 0, 64, 88
1, 1527117, Note_on_c, 0, 73, 69
1, 1527130, Control_c, 0, 64, 127
1, 1527141, Note_off_c, 0, 79, 61
1, 1527168, Note_off_c, 0, 73, 61
1, 1527322, Note_on_c, 0, 74, 64
1, 1527322, Control_c, 0, 64, 113
1, 1527337, Control_c, 0, 64, 98
1, 1527348, Note_on_c, 0, 62, 44
1, 1527352, Note_on_c, 0, 59, 44
1, 1527352, Control_c, 0, 64, 90
1, 1527367, Control_c, 0, 64, 85
1, 1527374, Note_on_c, 0, 43, 30
1, 1527380, Note_on_c, 0, 50, 30
1, 1527381, Control_c, 0, 64, 80
1, 1527396, Control_c, 0, 64, 76
1, 1527411, Control_c, 0, 64, 72
1, 1527426, Control_c, 0, 64, 68
1, 1527441, Control_c, 0, 64, 64
1, 1527455, Control_c, 0, 64, 61
1, 1527470, Control_c, 0, 64, 55
1, 1527485, Control_c, 0, 64, 45
1, 1527507, Control_c, 0, 64, 20
1, 1527522, Control_c, 0, 64, 0
1, 1527760, Control_c, 0, 64, 35
1, 1527775, Control_c, 0, 64, 49
1, 1527790, Control_c, 0, 64, 54
1, 1527805, Control_c, 0, 64, 58
1, 1527819, Control_c, 0, 64, 61
1, 1527834, Control_c, 0, 64, 63
1, 1527849, Control_c, 0, 64, 64
1, 1527864, Control_c, 0, 64, 66
1, 1527879, Control_c, 0, 64, 70
1, 1527893, Control_c, 0, 64, 74
1, 1527908, Control_c, 0, 64, 77
1, 1527923, Control_c, 0, 64, 79
1, 1527937, Control_c, 0, 64, 80
1, 1527952, Control_c, 0, 64, 81
1, 1527967, Control_c, 0, 64, 81
1, 1528065, Note_off_c, 0, 74, 54
1, 1528070, Note_on_c, 0, 72, 56
1, 1528086, Control_c, 0, 67, 126
1, 1528101, Control_c, 0, 67, 124
1, 1528101, Note_off_c, 0, 59, 40
1, 1528112, Note_off_c, 0, 62, 38
1, 1528116, Control_c, 0, 67, 123
1, 1528130, Control_c, 0, 67, 123
1, 1528145, Control_c, 0, 64, 81
1, 1528160, Control_c, 0, 64, 80
1, 1528164, Note_on_c, 0, 71, 57
1, 1528167, Note_off_c, 0, 72, 54
1, 1528175, Control_c, 0, 64, 79
1, 1528190, Control_c, 0, 64, 78
1, 1528204, Control_c, 0, 64, 77
1, 1528219, Control_c, 0, 64, 75
1, 1528232, Note_off_c, 0, 71, 60
1, 1528234, Control_c, 0, 64, 71
1, 1528249, Control_c, 0, 64, 61
1, 1528262, Note_on_c, 0, 69, 54
1, 1528272, Control_c, 0, 64, 0
1, 1528277, Note_on_c, 0, 62, 40
1, 1528279, Note_on_c, 0, 60, 54
1, 1528301, Control_c, 0, 67, 122
1, 1528316, Control_c, 0, 67, 122
1, 1528332, Control_c, 0, 67, 121
1, 1528346, Note_off_c, 0, 69, 62
1, 1528347, Control_c, 0, 64, 56
1, 1528347, Control_c, 0, 67, 120
1, 1528357, Note_on_c, 0, 71, 62
1, 1528361, Control_c, 0, 64, 66
1, 1528361, Control_c, 0, 67, 115
1, 1528376, Control_c, 0, 64, 73
1, 1528376, Control_c, 0, 67, 110
1, 1528391, Control_c, 0, 64, 78
1, 1528391, Control_c, 0, 67, 106
1, 1528406, Control_c, 0, 64, 80
1, 1528406, Control_c, 0, 67, 104
1, 1528421, Control_c, 0, 64, 83
1, 1528421, Control_c, 0, 67, 103
1, 1528435, Control_c, 0, 64, 84
1, 1528437, Note_off_c, 0, 71, 56
1, 1528445, Note_on_c, 0, 72, 64
1, 1528450, Control_c, 0, 64, 85
1, 1528450, Control_c, 0, 67, 102
1, 1528458, Note_off_c, 0, 60, 57
1, 1528480, Control_c, 0, 67, 102
1, 1528525, Control_c, 0, 67, 102
1, 1528525, Note_off_c, 0, 72, 63
1, 1528537, Note_on_c, 0, 74, 58
1, 1528539, Control_c, 0, 64, 84
1, 1528539, Control_c, 0, 67, 103
1, 1528569, Control_c, 0, 64, 83
1, 1528569, Control_c, 0, 67, 103
1, 1528584, Control_c, 0, 64, 82
1, 1528584, Control_c, 0, 67, 104
1, 1528599, Control_c, 0, 64, 78
1, 1528599, Control_c, 0, 67, 105
1, 1528614, Control_c, 0, 64, 72
1, 1528614, Control_c, 0, 67, 107
1, 1528625, Note_off_c, 0, 74, 61
1, 1528629, Control_c, 0, 64, 64
1, 1528629, Control_c, 0, 67, 107
1, 1528637, Note_on_c, 0, 72, 64
1, 1528641, Note_on_c, 0, 57, 53
1, 1528643, Control_c, 0, 64, 40
1, 1528643, Control_c, 0, 67, 108
1, 1528658, Control_c, 0, 64, 0
1, 1528658, Control_c, 0, 67, 109
1, 1528673, Control_c, 0, 67, 110
1, 1528703, Control_c, 0, 67, 111
1, 1528715, Note_off_c, 0, 72, 59
1, 1528732, Control_c, 0, 67, 111
1, 1528747, Control_c, 0, 67, 112
1, 1528806, Control_c, 0, 67, 112
1, 1528823, Note_on_c, 0, 69, 64
1, 1528836, Note_on_c, 0, 54, 52
1, 1528839, Note_off_c, 0, 57, 38
1, 1528874, Note_off_c, 0, 69, 67
1, 1528881, Note_off_c, 0, 54, 63
1, 1528895, Note_off_c, 0, 62, 42
1, 1528909, Note_off_c, 0, 50, 57
1, 1528923, Note_off_c, 0, 43, 49
1, 1529056, Note_on_c, 0, 67, 52
1, 1529064, Control_c, 0, 67, 112
1, 1529067, Note_on_c, 0, 50, 31
1, 1529067, Note_on_c, 0, 43, 41
1, 1529073, Note_on_c, 0, 59, 34
1, 1529094, Control_c, 0, 67, 111
1, 1529109, Control_c, 0, 67, 110
1, 1529124, Control_c, 0, 67, 109
1, 1529139, Control_c, 0, 67, 108
1, 1529154, Control_c, 0, 67, 107
1, 1529169, Control_c, 0, 64, 37
1, 1529169, Control_c, 0, 67, 105
1, 1529183, Control_c, 0, 64, 56
1, 1529183, Control_c, 0, 67, 104
1, 1529198, Control_c, 0, 64, 62
1, 1529213, Control_c, 0, 64, 64
1, 1529213, Control_c, 0, 67, 104
1, 1529228, Control_c, 0, 64, 65
1, 1529243, Control_c, 0, 64, 67
1, 1529255, Note_on_c, 0, 62, 55
1, 1529256, Note_off_c, 0, 59, 52
1, 1529258, Control_c, 0, 64, 70
1, 1529261, Note_off_c, 0, 50, 56
1, 1529271, Note_on_c, 0, 55, 50
1, 1529273, Note_off_c, 0, 43, 56
1, 1529273, Control_c, 0, 64, 71
1, 1529288, Control_c, 0, 64, 72
1, 1529288, Control_c, 0, 67, 104
1, 1529289, Note_off_c, 0, 67, 54
1, 1529290, Note_off_c, 0, 62, 64
1, 1529302, Note_off_c, 0, 55, 65
1, 1529303, Control_c, 0, 67, 105
1, 1529317, Control_c, 0, 67, 106
1, 1529332, Control_c, 0, 67, 107
1, 1529347, Control_c, 0, 67, 109
1, 1529362, Control_c, 0, 67, 109
1, 1529376, Control_c, 0, 64, 70
1, 1529376, Control_c, 0, 67, 110
1, 1529391, Control_c, 0, 64, 67
1, 1529406, Control_c, 0, 64, 62
1, 1529421, Control_c, 0, 64, 54
1, 1529436, Control_c, 0, 64, 0
1, 1529480, Control_c, 0, 67, 109
1, 1529495, Control_c, 0, 67, 107
1, 1529509, Note_on_c, 0, 79, 73
1, 1529509, Control_c, 0, 67, 107
1, 1529514, Note_on_c, 0, 67, 52
1, 1529516, Note_on_c, 0, 71, 61
1, 1529517, Note_on_c, 0, 62, 56
1, 1529524, Control_c, 0, 67, 106
1, 1529535, Note_off_c, 0, 79, 61
1, 1529539, Control_c, 0, 67, 105
1, 1529544, Note_off_c, 0, 71, 65
1, 1529547, Note_off_c, 0, 62, 56
1, 1529549, Note_off_c, 0, 67, 61
1, 1529554, Control_c, 0, 64, 46
1, 1529554, Control_c, 0, 67, 104
1, 1529569, Control_c, 0, 64, 54
1, 1529583, Control_c, 0, 64, 53
1, 1529583, Control_c, 0, 67, 103
1, 1529595, Note_on_c, 0, 79, 72
1, 1529598, Control_c, 0, 64, 53
1, 1529598, Control_c, 0, 67, 103
1, 1529603, Note_on_c, 0, 67, 62
1, 1529604, Note_on_c, 0, 62, 60
1, 1529605, Note_on_c, 0, 71, 66
1, 1529613, Control_c, 0, 64, 52
1, 1529624, Note_off_c, 0, 79, 61
1, 1529628, Control_c, 0, 64, 51
1, 1529630, Note_off_c, 0, 71, 67
1, 1529632, Note_off_c, 0, 62, 64
1, 1529636, Note_off_c, 0, 67, 61
1, 1529643, Control_c, 0, 64, 50
1, 1529643, Control_c, 0, 67, 102
1, 1529657, Control_c, 0, 64, 48
1, 1529672, Control_c, 0, 64, 47
1, 1529672, Control_c, 0, 67, 101
1, 1529687, Control_c, 0, 64, 45
1, 1529687, Control_c, 0, 67, 99
1, 1529688, Note_on_c, 0, 67, 58
1, 1529689, Note_on_c, 0, 79, 72
1, 1529691, Note_on_c, 0, 71, 75
1, 1529698, Note_on_c, 0, 62, 68
1, 1529702, Control_c, 0, 64, 44
1, 1529702, Control_c, 0, 67, 95
1, 1529712, Note_off_c, 0, 79, 64
1, 1529714, Note_off_c, 0, 71, 64
1, 1529717, Control_c, 0, 64, 43
1, 1529717, Control_c, 0, 67, 91
1, 1529719, Note_off_c, 0, 67, 61
1, 1529723, Note_off_c, 0, 62, 66
1, 1529732, Control_c, 0, 64, 40
1, 1529732, Control_c, 0, 67, 86
1, 1529747, Control_c, 0, 64, 38
1, 1529747, Control_c, 0, 67, 80
1, 1529769, Control_c, 0, 64, 37
1, 1529769, Control_c, 0, 67, 74
1, 1529779, Note_on_c, 0, 79, 85
1, 1529783, Note_on_c, 0, 67, 63
1, 1529783, Control_c, 0, 67, 69
1, 1529785, Note_on_c, 0, 71, 70
1, 1529790, Note_on_c, 0, 62, 68
1, 1529798, Control_c, 0, 64, 36
1, 1529798, Control_c, 0, 67, 61
1, 1529809, Note_off_c, 0, 71, 69
1, 1529811, Note_off_c, 0, 79, 55
1, 1529813, Control_c, 0, 64, 34
1, 1529813, Control_c, 0, 67, 53
1, 1529817, Note_off_c, 0, 62, 64
1, 1529823, Note_off_c, 0, 67, 52
1, 1529828, Control_c, 0, 64, 30
1, 1529828, Control_c, 0, 67, 46
1, 1529843, Control_c, 0, 64, 25
1, 1529843, Control_c, 0, 67, 38
1, 1529857, Control_c, 0, 64, 21
1, 1529857, Control_c, 0, 67, 29
1, 1529872, Control_c, 0, 64, 15
1, 1529872, Control_c, 0, 67, 22
1, 1529887, Control_c, 0, 64, 0
1, 1529887, Control_c, 0, 67, 17
1, 1529902, Note_on_c, 0, 79, 73
1, 1529902, Control_c, 0, 67, 12
1, 1529917, Control_c, 0, 67, 9
1, 1529924, Note_on_c, 0, 71, 45
1, 1529933, Control_c, 0, 67, 8
1, 1529943, Note_on_c, 0, 67, 40
1, 1529944, Note_on_c, 0, 62, 41
1, 1529962, Control_c, 0, 67, 8
1, 1529977, Control_c, 0, 67, 10
1, 1529992, Control_c, 0, 67, 12
1, 1530006, Control_c, 0, 67, 14
1, 1530021, Control_c, 0, 67, 17
1, 1530036, Control_c, 0, 67, 20
1, 1530051, Control_c, 0, 67, 23
1, 1530066, Control_c, 0, 67, 28
1, 1530081, Control_c, 0, 67, 33
1, 1530096, Control_c, 0, 67, 38
1, 1530110, Control_c, 0, 67, 43
1, 1530125, Control_c, 0, 67, 49
1, 1530130, Note_off_c, 0, 71, 62
1, 1530138, Note_on_c, 0, 76, 57
1, 1530140, Note_off_c, 0, 79, 58
1, 1530140, Control_c, 0, 67, 56
1, 1530140, Note_on_c, 0, 72, 47
1, 1530155, Control_c, 0, 67, 63
1, 1530170, Control_c, 0, 67, 68
1, 1530185, Control_c, 0, 67, 73
1, 1530199, Control_c, 0, 67, 79
1, 1530214, Control_c, 0, 67, 85
1, 1530229, Control_c, 0, 67, 90
1, 1530244, Control_c, 0, 67, 95
1, 1530259, Control_c, 0, 67, 98
1, 1530273, Control_c, 0, 67, 101
1, 1530288, Control_c, 0, 67, 103
1, 1530303, Control_c, 0, 67, 105
1, 1530318, Control_c, 0, 67, 107
1, 1530332, Control_c, 0, 64, 22
1, 1530332, Control_c, 0, 67, 110
1, 1530346, Note_on_c, 0, 74, 48
1, 1530346, Note_off_c, 0, 72, 51
1, 1530347, Control_c, 0, 64, 60
1, 1530347, Control_c, 0, 67, 113
1, 1530362, Control_c, 0, 64, 69
1, 1530362, Control_c, 0, 67, 116
1, 1530365, Note_on_c, 0, 71, 43
1, 1530369, Note_off_c, 0, 67, 62
1, 1530376, Note_off_c, 0, 76, 37
1, 1530377, Control_c, 0, 64, 76
1, 1530377, Control_c, 0, 67, 120
1, 1530382, Note_off_c, 0, 62, 61
1, 1530388, Note_off_c, 0, 74, 61
1, 1530392, Control_c, 0, 64, 80
1, 1530392, Control_c, 0, 67, 126
1, 1530406, Control_c, 0, 67, 127
1, 1530410, Note_off_c, 0, 71, 61
1, 1530421, Control_c, 0, 64, 77
1, 1530436, Control_c, 0, 64, 68
1, 1530451, Control_c, 0, 64, 55
1, 1530466, Control_c, 0, 64, 0
1, 1530611, Note_on_c, 0, 62, 65
1, 1530617, Note_on_c, 0, 59, 48
1, 1530619, Note_on_c, 0, 50, 51
1, 1530648, Note_off_c, 0, 62, 58
1, 1530650, Note_off_c, 0, 59, 65
1, 1530655, Note_off_c, 0, 50, 64
1, 1530859, Note_on_c, 0, 64, 56
1, 1530884, Note_on_c, 0, 60, 41
1, 1530898, Note_on_c, 0, 50, 25
1, 1530921, Note_off_c, 0, 60, 47
1, 1530954, Note_off_c, 0, 50, 0
1, 1530972, Note_on_c, 0, 50, 27
1, 1530976, Note_on_c, 0, 60, 46
1, 1531015, Note_off_c, 0, 60, 54
1, 1531046, Note_off_c, 0, 50, 0
1, 1531063, Note_on_c, 0, 50, 32
1, 1531076, Note_on_c, 0, 60, 44
1, 1531107, Note_off_c, 0, 60, 53
1, 1531150, Note_off_c, 0, 50, 0
1, 1531163, Note_on_c, 0, 50, 39
1, 1531175, Note_on_c, 0, 60, 49
1, 1531205, Note_off_c, 0, 60, 52
1, 1531213, Note_off_c, 0, 50, 55
1, 1531303, Note_on_c, 0, 50, 31
1, 1531305, Note_on_c, 0, 60, 48
1, 1531470, Note_off_c, 0, 60, 60
1, 1531502, Note_off_c, 0, 50, 58
1, 1531527, Note_off_c, 0, 64, 45
1, 1531535, Note_on_c, 0, 66, 54
1, 1531609, Note_off_c, 0, 66, 64
1, 1531624, Note_on_c, 0, 67, 61
1, 1531685, Note_off_c, 0, 67, 60
1, 1531706, Note_on_c, 0, 57, 53
1, 1531711, Note_on_c, 0, 50, 50
1, 1531726, Note_on_c, 0, 66, 57
1, 1531738, Note_off_c, 0, 50, 59
1, 1531744, Note_off_c, 0, 57, 58
1, 1531789, Note_off_c, 0, 66, 50
1, 1531811, Note_on_c, 0, 67, 60
1, 1531812, Note_on_c, 0, 57, 47
1, 1531818, Note_on_c, 0, 50, 48
1, 1531839, Note_off_c, 0, 57, 55
1, 1531844, Note_off_c, 0, 50, 56
1, 1531863, Note_off_c, 0, 67, 59
1, 1531900, Note_on_c, 0, 50, 56
1, 1531902, Note_on_c, 0, 57, 58
1, 1531902, Note_on_c, 0, 69, 66
1, 1531936, Note_off_c, 0, 50, 64
1, 1531937, Note_off_c, 0, 57, 59
1, 1531985, Note_off_c, 0, 69, 39
1, 1532002, Note_on_c, 0, 71, 70
1, 1532013, Note_on_c, 0, 57, 51
1, 1532018, Note_on_c, 0, 50, 48
1, 1532038, Note_off_c, 0, 57, 57
1, 1532045, Note_off_c, 0, 50, 54
1, 1532051, Note_off_c, 0, 71, 58
1, 1532110, Note_on_c, 0, 72, 73
1, 1532126, Note_on_c, 0, 50, 43
1, 1532126, Note_on_c, 0, 54, 35
1, 1532142, Note_off_c, 0, 72, 63
1, 1532289, Note_off_c, 0, 54, 60
1, 1532312, Note_off_c, 0, 50, 58
1, 1532334, Note_on_c, 0, 74, 71
1, 1532381, Note_off_c, 0, 74, 61
1, 1532539, Note_on_c, 0, 71, 61
1, 1532546, Note_on_c, 0, 50, 47
1, 1532551, Note_on_c, 0, 55, 47
1, 1532553, Note_on_c, 0, 67, 46
1, 1532576, Note_off_c, 0, 50, 60
1, 1532585, Note_off_c, 0, 55, 58
1, 1532640, Note_on_c, 0, 55, 45
1, 1532651, Note_on_c, 0, 50, 44
1, 1532678, Note_off_c, 0, 50, 52
1, 1532679, Note_off_c, 0, 55, 59
1, 1532730, Note_on_c, 0, 55, 53
1, 1532754, Note_on_c, 0, 50, 51
1, 1532775, Note_off_c, 0, 55, 63
1, 1532784, Note_off_c, 0, 50, 55
1, 1532844, Note_on_c, 0, 50, 50
1, 1532855, Note_on_c, 0, 55, 49
1, 1532881, Note_off_c, 0, 55, 56
1, 1532882, Note_off_c, 0, 50, 58
1, 1532930, Note_off_c, 0, 67, 42
1, 1532935, Note_on_c, 0, 55, 61
1, 1532938, Note_on_c, 0, 47, 71
1, 1532969, Note_off_c, 0, 55, 63
1, 1533005, Note_off_c, 0, 47, 62
1, 1533103, Note_off_c, 0, 71, 56
1, 1533133, Note_on_c, 0, 72, 65
1, 1533141, Note_on_c, 0, 43, 59
1, 1533142, Note_on_c, 0, 69, 53
1, 1533169, Note_off_c, 0, 43, 62
1, 1533177, Note_off_c, 0, 69, 66
1, 1533204, Note_off_c, 0, 72, 56
1, 1533232, Note_on_c, 0, 71, 58
1, 1533235, Note_on_c, 0, 74, 58
1, 1533305, Note_off_c, 0, 71, 59
1, 1533312, Note_off_c, 0, 74, 62
1, 1533319, Note_on_c, 0, 76, 62
1, 1533326, Note_on_c, 0, 60, 57
1, 1533332, Note_on_c, 0, 55, 51
1, 1533351, Note_off_c, 0, 60, 63
1, 1533352, Note_off_c, 0, 76, 67
1, 1533355, Note_off_c, 0, 55, 59
1, 1533419, Note_on_c, 0, 60, 67
1, 1533422, Note_on_c, 0, 78, 77
1, 1533425, Note_on_c, 0, 55, 68
1, 1533447, Note_off_c, 0, 60, 66
1, 1533452, Note_off_c, 0, 55, 66
1, 1533500, Note_off_c, 0, 78, 57
1, 1533508, Note_on_c, 0, 79, 69
1, 1533516, Note_on_c, 0, 76, 63
1, 1533518, Note_on_c, 0, 60, 66
1, 1533526, Note_on_c, 0, 55, 62
1, 1533545, Note_off_c, 0, 60, 67
1, 1533547, Note_off_c, 0, 55, 61
1, 1533547, Note_off_c, 0, 76, 61
1, 1533568, Note_off_c, 0, 79, 57
1, 1533594, Note_on_c, 0, 81, 67
1, 1533601, Note_on_c, 0, 78, 75
1, 1533611, Note_on_c, 0, 60, 70
1, 1533629, Note_off_c, 0, 81, 60
1, 1533644, Note_on_c, 0, 55, 25
1, 1533650, Note_off_c, 0, 78, 64
1, 1533677, Note_on_c, 0, 52, 39
1, 1533680, Note_off_c, 0, 60, 56
1, 1533687, Note_on_c, 0, 71, 74
1, 1533687, Note_off_c, 0, 55, 30
1, 1533690, Note_on_c, 0, 75, 74
1, 1533715, Note_off_c, 0, 75, 68
1, 1533717, Note_off_c, 0, 71, 60
1, 1533721, Note_off_c, 0, 52, 64
1, 1533860, Note_on_c, 0, 78, 60
1, 1533893, Note_on_c, 0, 48, 42
1, 1533899, Note_on_c, 0, 76, 70
1, 1533901, Note_on_c, 0, 72, 58
1, 1533908, Note_off_c, 0, 78, 61
1, 1533920, Note_off_c, 0, 72, 63
1, 1533926, Note_off_c, 0, 48, 53
1, 1533934, Note_off_c, 0, 76, 65
1, 1534091, Note_on_c, 0, 55, 63
1, 1534093, Note_on_c, 0, 74, 63
1, 1534099, Note_on_c, 0, 71, 58
1, 1534126, Note_off_c, 0, 55, 66
1, 1534185, Note_on_c, 0, 55, 56
1, 1534216, Note_off_c, 0, 55, 63
1, 1534291, Note_on_c, 0, 55, 61
1, 1534324, Note_off_c, 0, 55, 66
1, 1534376, Note_on_c, 0, 55, 56
1, 1534406, Note_off_c, 0, 55, 61
1, 1534415, Note_off_c, 0, 74, 61
1, 1534465, Note_off_c, 0, 71, 56
1, 1534482, Note_on_c, 0, 55, 64
1, 1534512, Note_off_c, 0, 55, 65
1, 1534598, Note_on_c, 0, 67, 66
1, 1534706, Note_off_c, 0, 67, 57
1, 1534715, Note_on_c, 0, 62, 66
1, 1534728, Note_on_c, 0, 59, 46
1, 1534756, Note_on_c, 0, 50, 22
1, 1534770, Note_off_c, 0, 59, 61
1, 1534789, Note_off_c, 0, 50, 45
1, 1534834, Note_on_c, 0, 67, 72
1, 1534841, Note_off_c, 0, 62, 59
1, 1534929, Note_off_c, 0, 67, 55
1, 1535001, Note_on_c, 0, 64, 65
1, 1535020, Note_on_c, 0, 60, 45
1, 1535029, Note_on_c, 0, 50, 40
1, 1535064, Note_off_c, 0, 60, 46
1, 1535102, Note_off_c, 0, 50, 0
1, 1535115, Note_on_c, 0, 50, 34
1, 1535117, Note_on_c, 0, 60, 47
1, 1535158, Note_off_c, 0, 60, 56
1, 1535195, Note_off_c, 0, 50, 0
1, 1535208, Note_on_c, 0, 50, 36
1, 1535215, Note_on_c, 0, 60, 52
1, 1535249, Note_off_c, 0, 60, 58
1, 1535261, Note_off_c, 0, 50, 52
1, 1535302, Note_on_c, 0, 50, 45
1, 1535309, Note_on_c, 0, 60, 57
1, 1535345, Note_off_c, 0, 60, 59
1, 1535354, Note_off_c, 0, 50, 55
1, 1535404, Note_on_c, 0, 50, 40
1, 1535405, Note_on_c, 0, 60, 62
1, 1535491, Note_off_c, 0, 64, 49
1, 1535515, Note_on_c, 0, 76, 63
1, 1535525, Note_off_c, 0, 60, 59
1, 1535568, Note_off_c, 0, 50, 63
1, 1535616, Note_off_c, 0, 76, 60
1, 1535619, Note_on_c, 0, 72, 63
1, 1535676, Note_off_c, 0, 72, 64
1, 1535698, Note_on_c, 0, 69, 66
1, 1535789, Note_off_c, 0, 69, 40
1, 1535807, Note_on_c, 0, 66, 64
1, 1535810, Note_on_c, 0, 57, 51
1, 1535813, Note_on_c, 0, 50, 49
1, 1535840, Note_off_c, 0, 57, 60
1, 1535841, Note_off_c, 0, 50, 59
1, 1535881, Note_off_c, 0, 66, 55
1, 1535899, Note_on_c, 0, 67, 63
1, 1535909, Note_on_c, 0, 57, 59
1, 1535914, Note_on_c, 0, 50, 48
1, 1535941, Note_off_c, 0, 57, 58
1, 1535942, Note_off_c, 0, 50, 58
1, 1535956, Note_off_c, 0, 67, 60
1, 1535993, Note_on_c, 0, 69, 70
1, 1536004, Note_on_c, 0, 57, 58
1, 1536005, Note_on_c, 0, 50, 54
1, 1536036, Note_off_c, 0, 57, 60
1, 1536039, Note_off_c, 0, 50, 62
1, 1536057, Note_off_c, 0, 69, 53
1, 1536086, Note_on_c, 0, 71, 68
1, 1536096, Note_on_c, 0, 57, 56
1, 1536101, Note_on_c, 0, 50, 42
1, 1536119, Note_off_c, 0, 57, 59
1, 1536131, Note_off_c, 0, 50, 48
1, 1536138, Note_off_c, 0, 71, 59
1, 1536183, Note_on_c, 0, 72, 71
1, 1536188, Note_on_c, 0, 54, 60
1, 1536206, Note_on_c, 0, 50, 43
1, 1536212, Note_off_c, 0, 72, 63
1, 1536342, Note_off_c, 0, 54, 56
1, 1536375, Note_off_c, 0, 50, 58
1, 1536397, Note_on_c, 0, 74, 75
1, 1536449, Note_off_c, 0, 74, 63
1, 1536606, Note_on_c, 0, 71, 65
1, 1536612, Note_on_c, 0, 55, 51
1, 1536615, Note_on_c, 0, 50, 49
1, 1536618, Note_on_c, 0, 67, 51
1, 1536642, Note_off_c, 0, 50, 60
1, 1536649, Note_off_c, 0, 55, 62
1, 1536706, Note_on_c, 0, 55, 50
1, 1536716, Note_on_c, 0, 50, 48
1, 1536744, Note_off_c, 0, 50, 53
1, 1536747, Note_off_c, 0, 55, 59
1, 1536793, Note_on_c, 0, 55, 58
1, 1536809, Note_on_c, 0, 50, 54
1, 1536834, Note_off_c, 0, 55, 61
1, 1536838, Note_off_c, 0, 50, 56
1, 1536899, Note_on_c, 0, 50, 43
1, 1536907, Note_on_c, 0, 55, 48
1, 1536931, Note_off_c, 0, 50, 57
1, 1536934, Note_off_c, 0, 55, 58
1, 1536999, Note_on_c, 0, 47, 67
1, 1536999, Note_on_c, 0, 55, 66
1, 1537029, Note_off_c, 0, 67, 40
1, 1537032, Note_off_c, 0, 55, 64
1, 1537071, Note_off_c, 0, 47, 61
1, 1537181, Note_off_c, 0, 71, 57
1, 1537202, Note_on_c, 0, 72, 65
1, 1537208, Note_on_c, 0, 43, 55
1, 1537208, Note_on_c, 0, 69, 55
1, 1537234, Note_off_c, 0, 43, 58
1, 1537265, Note_off_c, 0, 69, 61
1, 1537303, Note_off_c, 0, 72, 64
1, 1537315, Note_on_c, 0, 71, 59
1, 1537315, Note_on_c, 0, 74, 58
1, 1537394, Note_off_c, 0, 71, 62
1, 1537396, Note_on_c, 0, 60, 64
1, 1537400, Note_on_c, 0, 76, 65
1, 1537401, Note_off_c, 0, 74, 61
1, 1537402, Note_on_c, 0, 55, 57
1, 1537426, Note_off_c, 0, 60, 65
1, 1537430, Note_off_c, 0, 55, 66
1, 1537430, Note_off_c, 0, 76, 66
1, 1537449, Control_c, 0, 64, 8
1, 1537464, Control_c, 0, 64, 14
1, 1537479, Control_c, 0, 64, 15
1, 1537494, Control_c, 0, 64, 17
1, 1537496, Note_on_c, 0, 60, 66
1, 1537497, Note_on_c, 0, 55, 68
1, 1537500, Note_on_c, 0, 78, 73
1, 1537510, Note_on_c, 0, 74, 38
1, 1537526, Note_off_c, 0, 60, 61
1, 1537527, Note_off_c, 0, 55, 63
1, 1537537, Note_off_c, 0, 74, 54
1, 1537554, Note_off_c, 0, 78, 61
1, 1537578, Note_on_c, 0, 60, 60
1, 1537583, Control_c, 0, 64, 15
1, 1537588, Note_on_c, 0, 55, 62
1, 1537589, Note_on_c, 0, 79, 65
1, 1537594, Note_on_c, 0, 76, 59
1, 1537612, Control_c, 0, 64, 14
1, 1537613, Note_off_c, 0, 60, 60
1, 1537620, Note_off_c, 0, 55, 61
1, 1537627, Control_c, 0, 64, 12
1, 1537641, Control_c, 0, 64, 10
1, 1537643, Note_off_c, 0, 76, 46
1, 1537672, Note_on_c, 0, 81, 70
1, 1537677, Note_off_c, 0, 79, 57
1, 1537686, Note_on_c, 0, 55, 61
1, 1537690, Note_on_c, 0, 78, 50
1, 1537695, Note_on_c, 0, 60, 51
1, 1537700, Note_off_c, 0, 81, 60
1, 1537701, Control_c, 0, 64, 12
1, 1537713, Note_off_c, 0, 78, 56
1, 1537714, Note_off_c, 0, 55, 66
1, 1537715, Control_c, 0, 64, 15
1, 1537718, Note_off_c, 0, 60, 58
1, 1537730, Control_c, 0, 64, 20
1, 1537745, Control_c, 0, 64, 23
1, 1537760, Control_c, 0, 64, 24
1, 1537772, Note_on_c, 0, 83, 80
1, 1537775, Control_c, 0, 64, 25
1, 1537776, Note_on_c, 0, 79, 67
1, 1537785, Note_on_c, 0, 52, 61
1, 1537786, Note_on_c, 0, 60, 54
1, 1537795, Note_off_c, 0, 79, 64
1, 1537807, Note_off_c, 0, 60, 61
1, 1537834, Control_c, 0, 64, 24
1, 1537835, Note_off_c, 0, 52, 60
1, 1537850, Note_off_c, 0, 83, 62
1, 1537859, Note_on_c, 0, 81, 64
1, 1537861, Note_on_c, 0, 84, 78
1, 1537864, Control_c, 0, 64, 23
1, 1537876, Note_off_c, 0, 81, 65
1, 1537894, Control_c, 0, 64, 22
1, 1537902, Note_off_c, 0, 84, 64
1, 1537908, Control_c, 0, 64, 21
1, 1537953, Control_c, 0, 64, 22
1, 1537960, Note_on_c, 0, 83, 70
1, 1537962, Note_on_c, 0, 86, 82
1, 1537963, Note_on_c, 0, 48, 45
1, 1537983, Control_c, 0, 64, 23
1, 1538001, Note_off_c, 0, 83, 58
1, 1538001, Note_off_c, 0, 48, 54
1, 1538048, Note_on_c, 0, 88, 80
1, 1538049, Note_off_c, 0, 86, 64
1, 1538055, Note_on_c, 0, 84, 74
1, 1538066, Control_c, 0, 64, 22
1, 1538080, Control_c, 0, 64, 21
1, 1538165, Note_on_c, 0, 55, 59
1, 1538167, Note_on_c, 0, 86, 84
1, 1538169, Control_c, 0, 64, 23
1, 1538173, Note_on_c, 0, 83, 73
1, 1538180, Note_off_c, 0, 84, 63
1, 1538184, Control_c, 0, 64, 23
1, 1538198, Note_off_c, 0, 55, 65
1, 1538198, Note_off_c, 0, 88, 62
1, 1538199, Control_c, 0, 64, 24
1, 1538214, Control_c, 0, 64, 25
1, 1538228, Control_c, 0, 64, 26
1, 1538258, Control_c, 0, 64, 26
1, 1538260, Note_on_c, 0, 55, 59
1, 1538272, Control_c, 0, 64, 27
1, 1538287, Control_c, 0, 64, 28
1, 1538290, Note_off_c, 0, 55, 64
1, 1538332, Control_c, 0, 64, 27
1, 1538347, Control_c, 0, 64, 26
1, 1538356, Note_on_c, 0, 55, 65
1, 1538376, Control_c, 0, 64, 26
1, 1538389, Note_off_c, 0, 55, 63
1, 1538459, Note_on_c, 0, 55, 48
1, 1538484, Note_off_c, 0, 55, 59
1, 1538563, Note_on_c, 0, 55, 57
1, 1538573, Note_off_c, 0, 86, 60
1, 1538577, Note_off_c, 0, 83, 59
1, 1538584, Control_c, 0, 64, 25
1, 1538613, Control_c, 0, 64, 24
1, 1538643, Control_c, 0, 64, 23
1, 1538787, Note_off_c, 0, 55, 63
1, 1538815, Control_c, 0, 64, 24
1, 1538819, Note_on_c, 0, 69, 54
1, 1538902, Note_off_c, 0, 69, 63
1, 1538917, Note_on_c, 0, 71, 59
1, 1539007, Note_off_c, 0, 71, 55
1, 1539035, Note_on_c, 0, 54, 50
1, 1539035, Note_on_c, 0, 72, 63
1, 1539047, Note_on_c, 0, 69, 41
1, 1539050, Note_on_c, 0, 50, 35
1, 1539066, Note_off_c, 0, 54, 62
1, 1539080, Note_off_c, 0, 69, 59
1, 1539092, Note_off_c, 0, 50, 43
1, 1539095, Control_c, 0, 64, 23
1, 1539119, Note_off_c, 0, 72, 62
1, 1539130, Note_on_c, 0, 71, 59
1, 1539140, Note_on_c, 0, 74, 60
1, 1539142, Note_on_c, 0, 50, 36
1, 1539143, Note_on_c, 0, 54, 50
1, 1539166, Note_off_c, 0, 54, 60
1, 1539184, Control_c, 0, 64, 23
1, 1539199, Note_off_c, 0, 50, 0
1, 1539206, Note_off_c, 0, 71, 58
1, 1539214, Note_on_c, 0, 50, 38
1, 1539220, Note_off_c, 0, 74, 62
1, 1539226, Note_on_c, 0, 76, 56
1, 1539228, Note_on_c, 0, 54, 63
1, 1539244, Control_c, 0, 64, 23
1, 1539247, Note_off_c, 0, 76, 65
1, 1539256, Note_off_c, 0, 54, 64
1, 1539259, Control_c, 0, 64, 24
1, 1539268, Note_on_c, 0, 72, 46
1, 1539271, Note_off_c, 0, 50, 60
1, 1539288, Control_c, 0, 64, 25
1, 1539310, Note_off_c, 0, 72, 49
1, 1539315, Note_on_c, 0, 50, 43
1, 1539317, Note_on_c, 0, 78, 72
1, 1539322, Note_on_c, 0, 54, 67
1, 1539351, Note_on_c, 0, 74, 30
1, 1539352, Note_off_c, 0, 54, 62
1, 1539361, Note_off_c, 0, 50, 59
1, 1539379, Note_off_c, 0, 78, 58
1, 1539396, Note_off_c, 0, 74, 45
1, 1539415, Note_on_c, 0, 76, 73
1, 1539420, Note_on_c, 0, 72, 56
1, 1539436, Control_c, 0, 64, 26
1, 1539437, Note_on_c, 0, 50, 50
1, 1539438, Note_on_c, 0, 54, 43
1, 1539448, Note_off_c, 0, 72, 59
1, 1539465, Note_off_c, 0, 54, 50
1, 1539472, Note_off_c, 0, 50, 62
1, 1539503, Note_off_c, 0, 76, 62
1, 1539519, Note_on_c, 0, 81, 68
1, 1539610, Note_off_c, 0, 81, 56
1, 1539621, Note_on_c, 0, 79, 61
1, 1539622, Note_on_c, 0, 38, 57
1, 1539645, Note_on_c, 0, 76, 48
1, 1539652, Note_off_c, 0, 38, 62
1, 1539685, Note_off_c, 0, 76, 60
1, 1539685, Note_off_c, 0, 79, 61
1, 1539722, Note_on_c, 0, 72, 60
1, 1539829, Control_c, 0, 64, 26
1, 1539842, Note_on_c, 0, 74, 55
1, 1539842, Note_off_c, 0, 72, 53
1, 1539850, Note_on_c, 0, 50, 53
1, 1539851, Note_on_c, 0, 71, 50
1, 1539864, Note_on_c, 0, 55, 31
1, 1539885, Note_off_c, 0, 50, 62
1, 1539920, Note_off_c, 0, 55, 0
1, 1539939, Note_on_c, 0, 55, 29
1, 1539943, Note_on_c, 0, 50, 49
1, 1539974, Note_off_c, 0, 50, 61
1, 1540007, Control_c, 0, 64, 26
1, 1540013, Note_off_c, 0, 55, 0
1, 1540031, Note_on_c, 0, 55, 34
1, 1540036, Note_on_c, 0, 50, 51
1, 1540064, Note_off_c, 0, 50, 58
1, 1540109, Note_off_c, 0, 55, 0
1, 1540124, Note_on_c, 0, 50, 51
1, 1540127, Note_on_c, 0, 55, 29
1, 1540153, Note_off_c, 0, 71, 56
1, 1540160, Note_off_c, 0, 50, 62
1, 1540166, Note_off_c, 0, 55, 51
1, 1540180, Note_off_c, 0, 74, 64
1, 1540227, Note_on_c, 0, 55, 56
1, 1540229, Note_on_c, 0, 50, 57
1, 1540229, Control_c, 0, 64, 26
1, 1540266, Control_c, 0, 64, 27
1, 1540266, Control_c, 0, 67, 122
1, 1540275, Note_off_c, 0, 55, 61
1, 1540276, Note_off_c, 0, 50, 64
1, 1540281, Control_c, 0, 64, 28
1, 1540281, Control_c, 0, 67, 97
1, 1540296, Control_c, 0, 67, 68
1, 1540311, Control_c, 0, 64, 28
1, 1540311, Control_c, 0, 67, 44
1, 1540326, Control_c, 0, 67, 24
1, 1540341, Control_c, 0, 67, 10
1, 1540356, Control_c, 0, 64, 27
1, 1540356, Control_c, 0, 67, 0
1, 1540371, Control_c, 0, 64, 26
1, 1540441, Note_on_c, 0, 84, 77
1, 1540445, Control_c, 0, 67, 9
1, 1540446, Note_on_c, 0, 38, 60
1, 1540448, Note_on_c, 0, 81, 72
1, 1540459, Control_c, 0, 64, 27
1, 1540459, Control_c, 0, 67, 12
1, 1540474, Control_c, 0, 67, 15
1, 1540475, Note_off_c, 0, 38, 64
1, 1540489, Control_c, 0, 67, 19
1, 1540504, Control_c, 0, 67, 25
1, 1540519, Control_c, 0, 67, 31
1, 1540527, Note_off_c, 0, 81, 61
1, 1540533, Note_on_c, 0, 79, 69
1, 1540534, Control_c, 0, 67, 38
1, 1540535, Note_on_c, 0, 83, 67
1, 1540548, Control_c, 0, 67, 46
1, 1540558, Note_off_c, 0, 84, 59
1, 1540563, Control_c, 0, 67, 53
1, 1540578, Control_c, 0, 67, 60
1, 1540589, Note_off_c, 0, 79, 58
1, 1540593, Control_c, 0, 67, 65
1, 1540607, Control_c, 0, 67, 67
1, 1540630, Note_on_c, 0, 78, 78
1, 1540636, Note_on_c, 0, 81, 72
1, 1540637, Control_c, 0, 64, 26
1, 1540641, Note_on_c, 0, 60, 58
1, 1540647, Note_on_c, 0, 50, 61
1, 1540652, Control_c, 0, 67, 66
1, 1540657, Note_off_c, 0, 83, 61
1, 1540659, Note_off_c, 0, 81, 66
1, 1540666, Note_off_c, 0, 60, 64
1, 1540666, Control_c, 0, 64, 26
1, 1540666, Control_c, 0, 67, 66
1, 1540679, Note_off_c, 0, 50, 63
1, 1540681, Note_off_c, 0, 78, 64
1, 1540681, Control_c, 0, 64, 24
1, 1540681, Control_c, 0, 67, 65
1, 1540696, Control_c, 0, 64, 23
1, 1540696, Control_c, 0, 67, 65
1, 1540711, Control_c, 0, 64, 22
1, 1540711, Control_c, 0, 67, 64
1, 1540726, Control_c, 0, 64, 21
1, 1540740, Control_c, 0, 64, 19
1, 1540755, Control_c, 0, 64, 18
1, 1540770, Control_c, 0, 64, 17
1, 1540785, Control_c, 0, 64, 14
1, 1540800, Control_c, 0, 64, 12
1, 1540837, Note_on_c, 0, 76, 71
1, 1540839, Note_on_c, 0, 38, 59
1, 1540842, Note_on_c, 0, 72, 70
1, 1540865, Note_off_c, 0, 38, 58
1, 1540889, Control_c, 0, 67, 63
1, 1540898, Note_off_c, 0, 72, 62
1, 1540904, Note_off_c, 0, 76, 60
1, 1540919, Note_on_c, 0, 74, 63
1, 1540919, Control_c, 0, 67, 63
1, 1540927, Note_on_c, 0, 71, 59
1, 1540962, Note_off_c, 0, 71, 59
1, 1540978, Control_c, 0, 67, 62
1, 1541000, Control_c, 0, 67, 62
1, 1541006, Note_off_c, 0, 74, 54
1, 1541015, Control_c, 0, 67, 61
1, 1541023, Note_on_c, 0, 72, 72
1, 1541029, Control_c, 0, 64, 14
1, 1541029, Control_c, 0, 67, 60
1, 1541032, Note_on_c, 0, 54, 59
1, 1541033, Note_on_c, 0, 50, 56
1, 1541034, Note_on_c, 0, 69, 63
1, 1541044, Control_c, 0, 64, 15
1, 1541044, Control_c, 0, 67, 59
1, 1541050, Note_off_c, 0, 72, 67
1, 1541059, Note_off_c, 0, 69, 71
1, 1541059, Control_c, 0, 64, 18
1, 1541059, Control_c, 0, 67, 59
1, 1541062, Note_off_c, 0, 50, 65
1, 1541062, Note_off_c, 0, 54, 63
1, 1541074, Control_c, 0, 64, 19
1, 1541074, Control_c, 0, 67, 57
1, 1541089, Control_c, 0, 64, 21
1, 1541089, Control_c, 0, 67, 56
1, 1541104, Control_c, 0, 67, 56
1, 1541119, Control_c, 0, 67, 55
1, 1541149, Control_c, 0, 64, 20
1, 1541164, Control_c, 0, 64, 19
1, 1541164, Control_c, 0, 67, 56
1, 1541179, Control_c, 0, 67, 57
1, 1541193, Control_c, 0, 67, 57
1, 1541208, Control_c, 0, 67, 58
1, 1541213, Note_on_c, 0, 79, 81
1, 1541220, Note_on_c, 0, 71, 63
1, 1541221, Note_on_c, 0, 38, 58
1, 1541223, Control_c, 0, 67, 59
1, 1541238, Control_c, 0, 64, 20
1, 1541238, Control_c, 0, 67, 60
1, 1541248, Note_off_c, 0, 71, 65
1, 1541250, Note_off_c, 0, 38, 64
1, 1541253, Control_c, 0, 64, 21
1, 1541253, Control_c, 0, 67, 60
1, 1541268, Control_c, 0, 64, 22
1, 1541268, Control_c, 0, 67, 61
1, 1541282, Control_c, 0, 64, 23
1, 1541295, Note_on_c, 0, 81, 86
1, 1541297, Control_c, 0, 67, 61
1, 1541313, Note_off_c, 0, 79, 57
1, 1541386, Control_c, 0, 64, 22
1, 1541401, Control_c, 0, 67, 61
1, 1541408, Note_on_c, 0, 83, 69
1, 1541408, Note_on_c, 0, 79, 73
1, 1541418, Note_on_c, 0, 50, 58
1, 1541421, Note_on_c, 0, 55, 54
1, 1541436, Note_off_c, 0, 79, 63
1, 1541437, Note_off_c, 0, 83, 62
1, 1541445, Control_c, 0, 64, 21
1, 1541446, Note_off_c, 0, 81, 33
1, 1541447, Note_off_c, 0, 50, 64
1, 1541452, Note_off_c, 0, 55, 65
1, 1541489, Control_c, 0, 64, 20
1, 1541504, Control_c, 0, 64, 19
1, 1541519, Control_c, 0, 64, 18
1, 1541519, Control_c, 0, 67, 61
1, 1541534, Control_c, 0, 64, 17
1, 1541534, Control_c, 0, 67, 62
1, 1541563, Control_c, 0, 64, 15
1, 1541578, Control_c, 0, 67, 62
1, 1541593, Note_on_c, 0, 74, 61
1, 1541593, Control_c, 0, 64, 14
1, 1541593, Control_c, 0, 67, 63
1, 1541605, Note_on_c, 0, 38, 55
1, 1541609, Note_on_c, 0, 71, 55
1, 1541623, Control_c, 0, 64, 12
1, 1541623, Control_c, 0, 67, 63
1, 1541634, Note_off_c, 0, 38, 55
1, 1541638, Control_c, 0, 64, 8
1, 1541638, Control_c, 0, 67, 64
1, 1541641, Note_off_c, 0, 71, 63
1, 1541652, Control_c, 0, 64, 0
1, 1541667, Control_c, 0, 67, 64
1, 1541671, Note_off_c, 0, 74, 61
1, 1541694, Note_on_c, 0, 69, 49
1, 1541694, Note_on_c, 0, 72, 58
1, 1541697, Control_c, 0, 67, 65
1, 1541727, Control_c, 0, 67, 65
1, 1541750, Control_c, 0, 67, 66
1, 1541772, Note_off_c, 0, 69, 63
1, 1541790, Note_on_c, 0, 71, 59
1, 1541793, Note_off_c, 0, 72, 61
1, 1541804, Note_on_c, 0, 67, 48
1, 1541823, Control_c, 0, 67, 66
1, 1541824, Note_off_c, 0, 71, 63
1, 1541832, Note_off_c, 0, 67, 60
1, 1541838, Control_c, 0, 67, 67
1, 1541853, Control_c, 0, 67, 67
1, 1541868, Control_c, 0, 67, 68
1, 1541883, Control_c, 0, 67, 69
1, 1541897, Control_c, 0, 67, 70
1, 1541913, Control_c, 0, 67, 71
1, 1541928, Control_c, 0, 67, 71
1, 1541943, Control_c, 0, 64, 10
1, 1541943, Control_c, 0, 67, 72
1, 1541958, Control_c, 0, 64, 14
1, 1541958, Control_c, 0, 67, 73
1, 1541973, Control_c, 0, 64, 18
1, 1541987, Control_c, 0, 64, 22
1, 1541987, Control_c, 0, 67, 74
1, 1542002, Control_c, 0, 64, 26
1, 1542002, Control_c, 0, 67, 75
1, 1542012, Note_on_c, 0, 62, 59
1, 1542017, Control_c, 0, 64, 30
1, 1542017, Control_c, 0, 67, 76
1, 1542027, Note_on_c, 0, 59, 44
1, 1542032, Control_c, 0, 64, 34
1, 1542032, Control_c, 0, 67, 77
1, 1542034, Note_on_c, 0, 50, 37
1, 1542046, Control_c, 0, 64, 36
1, 1542046, Control_c, 0, 67, 78
1, 1542061, Control_c, 0, 64, 37
1, 1542061, Control_c, 0, 67, 79
1, 1542076, Control_c, 0, 67, 81
1, 1542091, Note_off_c, 0, 59, 42
1, 1542091, Control_c, 0, 67, 82
1, 1542099, Note_off_c, 0, 50, 43
1, 1542106, Control_c, 0, 67, 83
1, 1542109, Note_off_c, 0, 62, 57
1, 1542120, Control_c, 0, 67, 84
1, 1542123, Note_on_c, 0, 67, 61
1, 1542180, Control_c, 0, 67, 84
1, 1542222, Note_off_c, 0, 67, 58
1, 1542225, Control_c, 0, 64, 38
1, 1542225, Control_c, 0, 67, 85
1, 1542226, Note_on_c, 0, 64, 62
1, 1542231, Note_on_c, 0, 50, 52
1, 1542231, Note_on_c, 0, 60, 48
1, 1542276, Note_off_c, 0, 60, 59
1, 1542282, Note_off_c, 0, 50, 59
1, 1542317, Note_off_c, 0, 64, 61
1, 1542327, Note_on_c, 0, 69, 61
1, 1542358, Control_c, 0, 64, 37
1, 1542373, Control_c, 0, 64, 37
1, 1542387, Control_c, 0, 64, 36
1, 1542422, Note_on_c, 0, 50, 50
1, 1542428, Note_on_c, 0, 62, 59
1, 1542442, Note_off_c, 0, 69, 61
1, 1542443, Note_on_c, 0, 59, 24
1, 1542468, Note_off_c, 0, 50, 58
1, 1542493, Note_off_c, 0, 59, 50
1, 1542503, Note_off_c, 0, 62, 57
1, 1542519, Note_on_c, 0, 67, 62
1, 1542543, Control_c, 0, 64, 36
1, 1542573, Control_c, 0, 64, 35
1, 1542616, Note_on_c, 0, 50, 46
1, 1542618, Note_off_c, 0, 67, 58
1, 1542622, Note_on_c, 0, 60, 48
1, 1542625, Note_on_c, 0, 64, 57
1, 1542646, Control_c, 0, 64, 36
1, 1542661, Control_c, 0, 64, 36
1, 1542661, Control_c, 0, 67, 85
1, 1542663, Note_off_c, 0, 60, 62
1, 1542664, Note_off_c, 0, 50, 59
1, 1542704, Note_on_c, 0, 69, 60
1, 1542726, Note_off_c, 0, 64, 55
1, 1542806, Note_on_c, 0, 66, 62
1, 1542807, Note_on_c, 0, 50, 44
1, 1542810, Control_c, 0, 67, 86
1, 1542813, Note_on_c, 0, 62, 40
1, 1542825, Control_c, 0, 64, 37
1, 1542833, Note_off_c, 0, 69, 36
1, 1542848, Note_off_c, 0, 50, 47
1, 1542854, Note_off_c, 0, 62, 48
1, 1542884, Control_c, 0, 64, 36
1, 1542896, Note_off_c, 0, 66, 61
1, 1542913, Note_on_c, 0, 72, 56
1, 1542995, Note_off_c, 0, 72, 60
1, 1543013, Note_on_c, 0, 71, 59
1, 1543018, Control_c, 0, 64, 37
1, 1543018, Note_on_c, 0, 67, 55
1, 1543023, Note_on_c, 0, 62, 44
1, 1543024, Note_on_c, 0, 55, 45
1, 1543033, Control_c, 0, 64, 38
1, 1543048, Control_c, 0, 64, 40
1, 1543053, Note_off_c, 0, 55, 59
1, 1543062, Control_c, 0, 64, 42
1, 1543062, Note_off_c, 0, 62, 47
1, 1543077, Control_c, 0, 64, 44
1, 1543092, Control_c, 0, 64, 46
1, 1543107, Control_c, 0, 64, 47
1, 1543120, Note_on_c, 0, 62, 45
1, 1543122, Control_c, 0, 64, 48
1, 1543127, Note_on_c, 0, 55, 38
1, 1543136, Control_c, 0, 64, 49
1, 1543151, Control_c, 0, 64, 49
1, 1543170, Note_off_c, 0, 62, 40
1, 1543186, Note_off_c, 0, 55, 0
1, 1543200, Note_on_c, 0, 55, 44
1, 1543206, Note_on_c, 0, 62, 47
1, 1543232, Control_c, 0, 64, 49
1, 1543248, Note_off_c, 0, 55, 60
1, 1543254, Note_off_c, 0, 62, 49
1, 1543260, Control_c, 0, 64, 48
1, 1543301, Note_on_c, 0, 55, 44
1, 1543305, Control_c, 0, 64, 48
1, 1543307, Note_on_c, 0, 62, 51
1, 1543344, Note_off_c, 0, 55, 61
1, 1543352, Note_off_c, 0, 62, 51
1, 1543405, Note_on_c, 0, 62, 56
1, 1543410, Note_on_c, 0, 55, 50
1, 1543435, Note_off_c, 0, 67, 53
1, 1543438, Control_c, 0, 64, 47
1, 1543444, Note_off_c, 0, 62, 60
1, 1543456, Note_off_c, 0, 55, 65
1, 1543483, Note_off_c, 0, 71, 60
1, 1543483, Control_c, 0, 64, 47
1, 1543513, Control_c, 0, 64, 46
1, 1543543, Control_c, 0, 64, 46
1, 1543611, Note_on_c, 0, 72, 61
1, 1543620, Note_on_c, 0, 69, 46
1, 1543622, Note_on_c, 0, 43, 58
1, 1543647, Note_off_c, 0, 43, 57
1, 1543651, Note_off_c, 0, 69, 58
1, 1543684, Note_off_c, 0, 72, 59
1, 1543700, Note_on_c, 0, 71, 64
1, 1543706, Control_c, 0, 64, 45
1, 1543717, Note_on_c, 0, 74, 57
1, 1543736, Control_c, 0, 64, 45
1, 1543751, Control_c, 0, 64, 44
1, 1543784, Note_off_c, 0, 71, 53
1, 1543795, Control_c, 0, 64, 45
1, 1543803, Note_on_c, 0, 76, 65
1, 1543803, Note_off_c, 0, 74, 62
1, 1543807, Note_on_c, 0, 60, 57
1, 1543809, Control_c, 0, 64, 45
1, 1543811, Note_on_c, 0, 55, 53
1, 1543834, Note_off_c, 0, 60, 61
1, 1543835, Note_off_c, 0, 76, 66
1, 1543837, Note_off_c, 0, 55, 65
1, 1543869, Control_c, 0, 64, 46
1, 1543902, Note_on_c, 0, 78, 78
1, 1543909, Note_on_c, 0, 60, 62
1, 1543910, Note_on_c, 0, 55, 62
1, 1543933, Note_off_c, 0, 55, 65
1, 1543938, Note_off_c, 0, 60, 60
1, 1543953, Note_off_c, 0, 78, 61
1, 1543957, Control_c, 0, 64, 45
1, 1543995, Note_on_c, 0, 60, 66
1, 1543999, Note_on_c, 0, 79, 67
1, 1544002, Note_on_c, 0, 76, 57
1, 1544004, Note_on_c, 0, 55, 62
1, 1544024, Control_c, 0, 64, 45
1, 1544024, Control_c, 0, 67, 85
1, 1544025, Note_off_c, 0, 76, 62
1, 1544027, Note_off_c, 0, 60, 60
1, 1544037, Note_off_c, 0, 55, 61
1, 1544076, Note_on_c, 0, 81, 69
1, 1544082, Note_on_c, 0, 78, 67
1, 1544082, Note_off_c, 0, 79, 59
1, 1544094, Note_on_c, 0, 60, 66
1, 1544096, Note_on_c, 0, 55, 65
1, 1544104, Note_off_c, 0, 78, 68
1, 1544109, Note_off_c, 0, 81, 62
1, 1544121, Note_off_c, 0, 60, 67
1, 1544128, Control_c, 0, 64, 45
1, 1544129, Note_off_c, 0, 55, 64
1, 1544143, Control_c, 0, 64, 46
1, 1544172, Control_c, 0, 64, 46
1, 1544173, Note_on_c, 0, 83, 81
1, 1544181, Note_on_c, 0, 79, 66
1, 1544187, Note_on_c, 0, 60, 73
1, 1544194, Note_on_c, 0, 52, 67
1, 1544199, Note_off_c, 0, 79, 65
1, 1544217, Note_off_c, 0, 60, 60
1, 1544254, Note_off_c, 0, 52, 60
1, 1544258, Note_off_c, 0, 83, 63
1, 1544260, Note_on_c, 0, 81, 68
1, 1544268, Note_on_c, 0, 84, 71
1, 1544276, Control_c, 0, 64, 46
1, 1544283, Note_off_c, 0, 81, 66
1, 1544308, Note_off_c, 0, 84, 64
1, 1544358, Note_on_c, 0, 48, 58
1, 1544360, Note_on_c, 0, 83, 75
1, 1544365, Note_on_c, 0, 86, 81
1, 1544401, Note_off_c, 0, 83, 54
1, 1544403, Note_off_c, 0, 48, 58
1, 1544435, Note_on_c, 0, 88, 77
1, 1544440, Note_off_c, 0, 86, 64
1, 1544444, Note_on_c, 0, 84, 72
1, 1544455, Control_c, 0, 64, 45
1, 1544455, Control_c, 0, 67, 86
1, 1544484, Control_c, 0, 64, 45
1, 1544543, Note_on_c, 0, 55, 62
1, 1544544, Control_c, 0, 67, 85
1, 1544544, Note_on_c, 0, 86, 82
1, 1544546, Note_off_c, 0, 84, 60
1, 1544547, Note_on_c, 0, 83, 72
1, 1544562, Note_off_c, 0, 88, 60
1, 1544574, Note_off_c, 0, 55, 65
1, 1544603, Control_c, 0, 67, 85
1, 1544632, Control_c, 0, 64, 44
1, 1544639, Note_on_c, 0, 55, 64
1, 1544670, Note_off_c, 0, 55, 64
1, 1544677, Control_c, 0, 64, 44
1, 1544692, Control_c, 0, 64, 43
1, 1544721, Control_c, 0, 64, 43
1, 1544740, Note_on_c, 0, 55, 64
1, 1544744, Control_c, 0, 67, 84
1, 1544770, Note_off_c, 0, 55, 64
1, 1544833, Note_on_c, 0, 55, 68
1, 1544863, Note_off_c, 0, 55, 64
1, 1544877, Control_c, 0, 67, 85
1, 1544936, Control_c, 0, 67, 85
1, 1544955, Note_on_c, 0, 55, 52
1, 1544966, Control_c, 0, 67, 86
1, 1544967, Note_off_c, 0, 83, 56
1, 1544973, Note_off_c, 0, 86, 60
1, 1545010, Control_c, 0, 67, 86
1, 1545039, Control_c, 0, 67, 87
1, 1545084, Control_c, 0, 67, 87
1, 1545100, Control_c, 0, 67, 89
1, 1545115, Control_c, 0, 67, 91
1, 1545129, Control_c, 0, 67, 92
1, 1545139, Note_off_c, 0, 55, 63
1, 1545144, Control_c, 0, 67, 93
1, 1545159, Control_c, 0, 67, 94
1, 1545174, Control_c, 0, 67, 95
1, 1545188, Note_on_c, 0, 74, 56
1, 1545203, Control_c, 0, 67, 96
1, 1545233, Control_c, 0, 67, 97
1, 1545248, Control_c, 0, 67, 99
1, 1545262, Control_c, 0, 64, 42
1, 1545262, Control_c, 0, 67, 102
1, 1545277, Control_c, 0, 67, 104
1, 1545280, Note_off_c, 0, 74, 51
1, 1545292, Control_c, 0, 64, 42
1, 1545292, Control_c, 0, 67, 105
1, 1545300, Note_on_c, 0, 76, 61
1, 1545307, Control_c, 0, 67, 107
1, 1545322, Control_c, 0, 67, 108
1, 1545337, Control_c, 0, 64, 41
1, 1545337, Control_c, 0, 67, 109
1, 1545352, Control_c, 0, 67, 111
1, 1545367, Control_c, 0, 64, 41
1, 1545367, Control_c, 0, 67, 112
1, 1545382, Control_c, 0, 67, 114
1, 1545396, Control_c, 0, 67, 116
1, 1545400, Note_off_c, 0, 76, 60
1, 1545411, Control_c, 0, 67, 118
1, 1545420, Note_on_c, 0, 77, 63
1, 1545426, Control_c, 0, 67, 120
1, 1545428, Note_on_c, 0, 59, 47
1, 1545432, Note_on_c, 0, 55, 37
1, 1545437, Note_on_c, 0, 74, 33
1, 1545441, Control_c, 0, 67, 123
1, 1545455, Control_c, 0, 67, 126
1, 1545456, Note_off_c, 0, 59, 58
1, 1545462, Note_off_c, 0, 55, 59
1, 1545470, Control_c, 0, 67, 127
1, 1545472, Note_off_c, 0, 74, 58
1, 1545515, Note_off_c, 0, 77, 57
1, 1545533, Note_on_c, 0, 76, 62
1, 1545541, Note_on_c, 0, 59, 54
1, 1545541, Note_on_c, 0, 79, 63
1, 1545549, Note_on_c, 0, 55, 39
1, 1545563, Note_off_c, 0, 59, 61
1, 1545580, Note_off_c, 0, 55, 55
1, 1545601, Note_off_c, 0, 76, 59
1, 1545611, Control_c, 0, 64, 41
1, 1545625, Note_on_c, 0, 81, 60
1, 1545627, Note_off_c, 0, 79, 61
1, 1545629, Note_on_c, 0, 59, 67
1, 1545636, Note_on_c, 0, 55, 54
1, 1545641, Control_c, 0, 64, 42
1, 1545653, Note_off_c, 0, 81, 66
1, 1545656, Control_c, 0, 64, 42
1, 1545656, Note_off_c, 0, 59, 64
1, 1545670, Note_on_c, 0, 77, 45
1, 1545670, Note_off_c, 0, 55, 64
1, 1545686, Control_c, 0, 64, 43
1, 1545715, Note_off_c, 0, 77, 43
1, 1545718, Note_on_c, 0, 83, 74
1, 1545721, Note_on_c, 0, 59, 65
1, 1545726, Note_on_c, 0, 55, 55
1, 1545744, Note_on_c, 0, 79, 47
1, 1545748, Note_off_c, 0, 59, 61
1, 1545759, Note_off_c, 0, 55, 64
1, 1545783, Note_off_c, 0, 83, 57
1, 1545805, Note_off_c, 0, 79, 37
1, 1545821, Note_on_c, 0, 81, 68
1, 1545827, Note_on_c, 0, 59, 52
1, 1545834, Note_on_c, 0, 77, 50
1, 1545841, Note_on_c, 0, 55, 65
1, 1545852, Note_off_c, 0, 59, 58
1, 1545863, Control_c, 0, 64, 43
1, 1545864, Note_off_c, 0, 77, 54
1, 1545874, Note_off_c, 0, 55, 67
1, 1545909, Note_off_c, 0, 81, 59
1, 1545923, Note_on_c, 0, 86, 67
1, 1545939, Control_c, 0, 64, 44
1, 1545968, Control_c, 0, 64, 43
1, 1546012, Note_off_c, 0, 86, 55
1, 1546033, Note_on_c, 0, 84, 62
1, 1546038, Note_on_c, 0, 43, 46
1, 1546055, Note_on_c, 0, 81, 45
1, 1546057, Control_c, 0, 64, 44
1, 1546069, Note_off_c, 0, 43, 48
1, 1546103, Note_off_c, 0, 84, 63
1, 1546106, Note_off_c, 0, 81, 54
1, 1546136, Note_on_c, 0, 77, 64
1, 1546190, Control_c, 0, 64, 44
1, 1546219, Control_c, 0, 64, 45
1, 1546256, Control_c, 0, 64, 45
1, 1546281, Note_off_c, 0, 77, 56
1, 1546285, Note_on_c, 0, 76, 53
1, 1546285, Control_c, 0, 64, 46
1, 1546288, Note_on_c, 0, 79, 48
1, 1546300, Note_on_c, 0, 60, 44
1, 1546309, Note_on_c, 0, 55, 40
1, 1546315, Control_c, 0, 64, 47
1, 1546330, Control_c, 0, 64, 47
1, 1546338, Note_off_c, 0, 55, 55
1, 1546339, Note_off_c, 0, 60, 55
1, 1546345, Control_c, 0, 64, 48
1, 1546359, Control_c, 0, 64, 50
1, 1546374, Control_c, 0, 64, 51
1, 1546389, Control_c, 0, 64, 52
1, 1546398, Note_on_c, 0, 60, 42
1, 1546404, Control_c, 0, 64, 53
1, 1546404, Note_on_c, 0, 55, 39
1, 1546419, Control_c, 0, 64, 53
1, 1546434, Control_c, 0, 64, 54
1, 1546439, Note_off_c, 0, 60, 57
1, 1546446, Note_off_c, 0, 55, 46
1, 1546449, Control_c, 0, 64, 54
1, 1546464, Control_c, 0, 64, 55
1, 1546478, Control_c, 0, 64, 56
1, 1546493, Control_c, 0, 64, 57
1, 1546494, Note_on_c, 0, 55, 42
1, 1546500, Note_on_c, 0, 60, 42
1, 1546508, Control_c, 0, 64, 58
1, 1546523, Control_c, 0, 64, 58
1, 1546532, Note_off_c, 0, 55, 60
1, 1546538, Control_c, 0, 64, 59
1, 1546538, Note_off_c, 0, 60, 48
1, 1546583, Note_off_c, 0, 76, 60
1, 1546585, Note_on_c, 0, 55, 48
1, 1546596, Note_on_c, 0, 60, 35
1, 1546597, Control_c, 0, 64, 59
1, 1546613, Note_off_c, 0, 79, 61
1, 1546625, Note_off_c, 0, 55, 62
1, 1546628, Note_off_c, 0, 60, 51
1, 1546671, Control_c, 0, 64, 58
1, 1546685, Control_c, 0, 64, 54
1, 1546700, Note_on_c, 0, 55, 50
1, 1546701, Control_c, 0, 64, 42
1, 1546703, Note_on_c, 0, 60, 50
1, 1546716, Control_c, 0, 64, 33
1, 1546729, Note_off_c, 0, 60, 57
1, 1546730, Note_off_c, 0, 55, 65
1, 1546731, Control_c, 0, 64, 29
1, 1546761, Control_c, 0, 64, 30
1, 1546775, Control_c, 0, 64, 32
1, 1546790, Control_c, 0, 64, 32
1, 1546902, Note_on_c, 0, 89, 58
1, 1546902, Note_on_c, 0, 43, 62
1, 1546905, Note_on_c, 0, 86, 60
1, 1546908, Control_c, 0, 64, 33
1, 1546923, Control_c, 0, 64, 34
1, 1546932, Note_off_c, 0, 43, 64
1, 1546938, Control_c, 0, 64, 35
1, 1546953, Control_c, 0, 64, 36
1, 1546963, Note_off_c, 0, 86, 59
1, 1546968, Control_c, 0, 64, 37
1, 1546998, Note_off_c, 0, 89, 59
1, 1547005, Control_c, 0, 64, 37
1, 1547012, Note_on_c, 0, 84, 55
1, 1547016, Note_on_c, 0, 88, 55
1, 1547079, Control_c, 0, 64, 38
1, 1547100, Note_off_c, 0, 84, 53
1, 1547101, Note_on_c, 0, 86, 62
1, 1547101, Note_off_c, 0, 88, 61
1, 1547116, Note_on_c, 0, 65, 55
1, 1547122, Note_on_c, 0, 83, 59
1, 1547126, Note_on_c, 0, 55, 49
1, 1547127, Note_off_c, 0, 86, 65
1, 1547137, Note_off_c, 0, 65, 64
1, 1547153, Control_c, 0, 64, 37
1, 1547155, Note_off_c, 0, 55, 65
1, 1547155, Note_off_c, 0, 83, 62
1, 1547168, Control_c, 0, 64, 36
1, 1547257, Control_c, 0, 64, 36
1, 1547271, Control_c, 0, 64, 35
1, 1547286, Control_c, 0, 64, 35
1, 1547301, Note_on_c, 0, 81, 59
1, 1547304, Note_on_c, 0, 77, 62
1, 1547315, Note_on_c, 0, 43, 56
1, 1547331, Control_c, 0, 64, 34
1, 1547341, Note_off_c, 0, 43, 55
1, 1547341, Note_off_c, 0, 77, 61
1, 1547369, Note_off_c, 0, 81, 59
1, 1547375, Control_c, 0, 64, 34
1, 1547394, Note_on_c, 0, 76, 53
1, 1547398, Note_on_c, 0, 79, 53
1, 1547405, Control_c, 0, 64, 33
1, 1547420, Control_c, 0, 64, 33
1, 1547453, Note_off_c, 0, 76, 53
1, 1547459, Note_off_c, 0, 79, 53
1, 1547479, Control_c, 0, 64, 33
1, 1547481, Note_on_c, 0, 77, 68
1, 1547494, Control_c, 0, 64, 34
1, 1547496, Note_on_c, 0, 55, 55
1, 1547500, Note_on_c, 0, 59, 54
1, 1547509, Note_off_c, 0, 77, 66
1, 1547510, Control_c, 0, 64, 35
1, 1547516, Note_on_c, 0, 74, 36
1, 1547524, Control_c, 0, 64, 36
1, 1547525, Note_off_c, 0, 55, 65
1, 1547526, Note_off_c, 0, 59, 63
1, 1547543, Note_off_c, 0, 74, 54
1, 1547598, Control_c, 0, 64, 35
1, 1547613, Control_c, 0, 64, 35
1, 1547657, Control_c, 0, 64, 36
1, 1547672, Control_c, 0, 64, 37
1, 1547674, Note_on_c, 0, 84, 85
1, 1547680, Note_on_c, 0, 76, 68
1, 1547683, Note_on_c, 0, 43, 64
1, 1547687, Control_c, 0, 64, 38
1, 1547702, Control_c, 0, 64, 40
1, 1547710, Note_off_c, 0, 43, 65
1, 1547713, Note_off_c, 0, 76, 63
1, 1547717, Control_c, 0, 64, 41
1, 1547739, Control_c, 0, 64, 42
1, 1547754, Control_c, 0, 64, 42
1, 1547769, Control_c, 0, 64, 43
1, 1547772, Note_on_c, 0, 86, 82
1, 1547782, Note_off_c, 0, 84, 61
1, 1547784, Control_c, 0, 64, 43
1, 1547871, Note_on_c, 0, 88, 72
1, 1547872, Control_c, 0, 64, 44
1, 1547880, Note_on_c, 0, 84, 74
1, 1547886, Note_on_c, 0, 60, 56
1, 1547886, Note_on_c, 0, 55, 50
1, 1547891, Note_off_c, 0, 86, 57
1, 1547903, Note_off_c, 0, 84, 68
1, 1547912, Note_off_c, 0, 88, 63
1, 1547915, Note_off_c, 0, 55, 65
1, 1547917, Control_c, 0, 64, 43
1, 1547918, Note_off_c, 0, 60, 64
1, 1547946, Control_c, 0, 64, 43
1, 1547961, Control_c, 0, 64, 42
1, 1547975, Control_c, 0, 64, 41
1, 1547990, Control_c, 0, 64, 40
1, 1548005, Control_c, 0, 64, 39
1, 1548035, Control_c, 0, 64, 39
1, 1548049, Control_c, 0, 64, 38
1, 1548060, Note_on_c, 0, 79, 62
1, 1548062, Note_on_c, 0, 43, 60
1, 1548064, Control_c, 0, 64, 38
1, 1548075, Note_on_c, 0, 76, 54
1, 1548079, Control_c, 0, 64, 37
1, 1548086, Note_off_c, 0, 43, 57
1, 1548094, Control_c, 0, 64, 36
1, 1548100, Note_off_c, 0, 76, 66
1, 1548109, Control_c, 0, 64, 34
1, 1548124, Control_c, 0, 64, 34
1, 1548127, Note_off_c, 0, 79, 59
1, 1548139, Control_c, 0, 64, 33
1, 1548154, Control_c, 0, 64, 33
1, 1548157, Note_on_c, 0, 74, 51
1, 1548157, Note_on_c, 0, 77, 60
1, 1548213, Control_c, 0, 64, 33
1, 1548229, Note_off_c, 0, 74, 61
1, 1548240, Note_on_c, 0, 76, 66
1, 1548243, Control_c, 0, 64, 34
1, 1548248, Note_off_c, 0, 77, 59
1, 1548262, Note_on_c, 0, 72, 44
1, 1548268, Note_off_c, 0, 76, 67
1, 1548285, Note_off_c, 0, 72, 59
1, 1548287, Control_c, 0, 64, 34
1, 1548318, Control_c, 0, 64, 35
1, 1548333, Control_c, 0, 64, 36
1, 1548347, Control_c, 0, 64, 37
1, 1548362, Control_c, 0, 64, 39
1, 1548377, Control_c, 0, 64, 41
1, 1548392, Control_c, 0, 64, 44
1, 1548406, Control_c, 0, 64, 46
1, 1548421, Control_c, 0, 64, 48
1, 1548436, Control_c, 0, 64, 49
1, 1548450, Note_on_c, 0, 67, 64
1, 1548451, Control_c, 0, 64, 50
1, 1548456, Note_on_c, 0, 64, 58
1, 1548466, Control_c, 0, 64, 51
1, 1548469, Note_on_c, 0, 55, 38
1, 1548488, Control_c, 0, 64, 52
1, 1548503, Control_c, 0, 64, 53
1, 1548518, Control_c, 0, 64, 54
1, 1548533, Control_c, 0, 64, 55
1, 1548548, Control_c, 0, 64, 55
1, 1548562, Control_c, 0, 64, 56
1, 1548569, Note_off_c, 0, 55, 39
1, 1548571, Note_on_c, 0, 72, 62
1, 1548577, Note_off_c, 0, 67, 57
1, 1548577, Control_c, 0, 64, 56
1, 1548592, Control_c, 0, 64, 57
1, 1548622, Control_c, 0, 64, 57
1, 1548686, Note_on_c, 0, 65, 67
1, 1548688, Note_off_c, 0, 72, 62
1, 1548693, Note_on_c, 0, 55, 50
1, 1548693, Note_on_c, 0, 69, 63
1, 1548701, Note_off_c, 0, 64, 62
1, 1548783, Note_off_c, 0, 69, 63
1, 1548794, Note_off_c, 0, 55, 63
1, 1548797, Note_on_c, 0, 74, 59
1, 1548844, Control_c, 0, 64, 57
1, 1548885, Note_on_c, 0, 64, 66
1, 1548890, Note_off_c, 0, 65, 62
1, 1548891, Note_on_c, 0, 67, 61
1, 1548896, Note_off_c, 0, 74, 58
1, 1548900, Note_on_c, 0, 55, 54
1, 1548962, Note_off_c, 0, 67, 56
1, 1548968, Note_off_c, 0, 55, 60
1, 1548980, Note_on_c, 0, 72, 59
1, 1549044, Note_off_c, 0, 64, 65
1, 1549060, Note_on_c, 0, 65, 74
1, 1549066, Note_off_c, 0, 72, 63
1, 1549067, Note_on_c, 0, 55, 67
1, 1549075, Note_on_c, 0, 69, 58
1, 1549135, Note_off_c, 0, 69, 59
1, 1549146, Note_off_c, 0, 55, 56
1, 1549153, Note_on_c, 0, 74, 59
1, 1549228, Note_off_c, 0, 74, 63
1, 1549236, Note_off_c, 0, 65, 61
1, 1549259, Note_on_c, 0, 71, 62
1, 1549266, Note_on_c, 0, 67, 77
1, 1549278, Note_on_c, 0, 55, 65
1, 1549282, Control_c, 0, 64, 57
1, 1549316, Note_off_c, 0, 71, 54
1, 1549349, Note_on_c, 0, 77, 63
1, 1549371, Control_c, 0, 64, 57
1, 1549428, Note_off_c, 0, 77, 60
1, 1549445, Note_on_c, 0, 72, 62
1, 1549520, Note_off_c, 0, 67, 58
1, 1549534, Note_on_c, 0, 76, 63
1, 1549549, Note_off_c, 0, 72, 58
1, 1549606, Note_off_c, 0, 76, 60
1, 1549629, Note_on_c, 0, 67, 61
1, 1549635, Note_on_c, 0, 74, 59
1, 1549638, Note_on_c, 0, 59, 52
1, 1549682, Control_c, 0, 64, 56
1, 1549697, Note_off_c, 0, 67, 58
1, 1549720, Note_off_c, 0, 55, 37
1, 1549731, Note_off_c, 0, 74, 59
1, 1549737, Note_on_c, 0, 79, 44
1, 1549788, Note_off_c, 0, 79, 57
1, 1549817, Note_off_c, 0, 59, 61
1, 1549821, Note_on_c, 0, 76, 57
1, 1549823, Note_on_c, 0, 67, 50
1, 1549826, Note_on_c, 0, 60, 50
1, 1549850, Note_off_c, 0, 60, 62
1, 1549859, Control_c, 0, 64, 56
1, 1549900, Note_off_c, 0, 76, 62
1, 1549913, Note_off_c, 0, 67, 59
1, 1549915, Note_on_c, 0, 79, 54
1, 1549919, Control_c, 0, 64, 55
1, 1549949, Control_c, 0, 64, 55
1, 1549964, Note_off_c, 0, 79, 54
1, 1550038, Note_on_c, 0, 62, 48
1, 1550039, Note_on_c, 0, 71, 49
1, 1550047, Note_on_c, 0, 74, 46
1, 1550104, Note_off_c, 0, 74, 52
1, 1550133, Note_off_c, 0, 62, 59
1, 1550151, Note_on_c, 0, 79, 49
1, 1550217, Note_off_c, 0, 79, 44
1, 1550247, Note_on_c, 0, 72, 58
1, 1550249, Note_off_c, 0, 71, 59
1, 1550255, Note_on_c, 0, 76, 51
1, 1550258, Note_on_c, 0, 62, 58
1, 1550282, Control_c, 0, 64, 55
1, 1550312, Note_off_c, 0, 76, 56
1, 1550334, Note_off_c, 0, 62, 61
1, 1550342, Note_on_c, 0, 81, 55
1, 1550423, Note_off_c, 0, 81, 55
1, 1550424, Note_on_c, 0, 71, 67
1, 1550427, Note_off_c, 0, 72, 63
1, 1550430, Control_c, 0, 64, 56
1, 1550437, Note_on_c, 0, 74, 52
1, 1550443, Note_on_c, 0, 62, 63
1, 1550483, Note_off_c, 0, 74, 56
1, 1550494, Note_off_c, 0, 62, 52
1, 1550511, Note_on_c, 0, 79, 61
1, 1550533, Control_c, 0, 64, 56
1, 1550566, Note_off_c, 0, 71, 63
1, 1550592, Control_c, 0, 64, 57
1, 1550599, Note_on_c, 0, 72, 70
1, 1550599, Note_off_c, 0, 79, 59
1, 1550607, Note_on_c, 0, 62, 62
1, 1550612, Note_on_c, 0, 76, 59
1, 1550622, Control_c, 0, 64, 57
1, 1550652, Control_c, 0, 64, 58
1, 1550687, Note_on_c, 0, 81, 65
1, 1550687, Note_off_c, 0, 62, 39
1, 1550697, Control_c, 0, 64, 58
1, 1550702, Note_off_c, 0, 76, 60
1, 1550758, Note_off_c, 0, 72, 64
1, 1550779, Control_c, 0, 64, 59
1, 1550791, Note_off_c, 0, 81, 52
1, 1550793, Note_on_c, 0, 78, 64
1, 1550796, Note_on_c, 0, 74, 65
1, 1550811, Note_on_c, 0, 62, 56
1, 1550874, Note_off_c, 0, 78, 60
1, 1550882, Control_c, 0, 67, 127
1, 1550893, Note_on_c, 0, 84, 51
1, 1550897, Control_c, 0, 67, 124
1, 1550912, Control_c, 0, 64, 59
1, 1550912, Control_c, 0, 67, 121
1, 1550927, Control_c, 0, 67, 117
1, 1550942, Control_c, 0, 64, 60
1, 1550942, Control_c, 0, 67, 113
1, 1550956, Control_c, 0, 67, 110
1, 1550968, Note_off_c, 0, 84, 60
1, 1550971, Control_c, 0, 64, 60
1, 1550971, Control_c, 0, 67, 106
1, 1550977, Note_on_c, 0, 79, 52
1, 1550986, Control_c, 0, 64, 61
1, 1550986, Control_c, 0, 67, 102
1, 1551001, Control_c, 0, 67, 99
1, 1551015, Control_c, 0, 64, 61
1, 1551015, Control_c, 0, 67, 95
1, 1551030, Control_c, 0, 67, 92
1, 1551039, Note_off_c, 0, 74, 61
1, 1551045, Control_c, 0, 67, 88
1, 1551060, Control_c, 0, 67, 85
1, 1551063, Note_on_c, 0, 83, 56
1, 1551075, Control_c, 0, 64, 62
1, 1551075, Control_c, 0, 67, 81
1, 1551077, Note_off_c, 0, 79, 54
1, 1551090, Control_c, 0, 67, 78
1, 1551105, Control_c, 0, 67, 75
1, 1551120, Control_c, 0, 67, 71
1, 1551135, Control_c, 0, 67, 68
1, 1551139, Note_off_c, 0, 83, 50
1, 1551149, Control_c, 0, 67, 66
1, 1551150, Note_on_c, 0, 66, 59
1, 1551158, Note_on_c, 0, 81, 58
1, 1551164, Note_on_c, 0, 74, 51
1, 1551164, Control_c, 0, 67, 64
1, 1551179, Control_c, 0, 67, 63
1, 1551193, Control_c, 0, 67, 62
1, 1551208, Control_c, 0, 67, 60
1, 1551212, Note_off_c, 0, 74, 59
1, 1551223, Control_c, 0, 67, 59
1, 1551238, Control_c, 0, 67, 58
1, 1551253, Control_c, 0, 67, 57
1, 1551255, Note_off_c, 0, 81, 56
1, 1551257, Note_on_c, 0, 86, 54
1, 1551267, Control_c, 0, 67, 56
1, 1551282, Control_c, 0, 67, 55
1, 1551286, Note_off_c, 0, 62, 41
1, 1551297, Control_c, 0, 67, 54
1, 1551313, Note_off_c, 0, 86, 59
1, 1551327, Control_c, 0, 67, 53
1, 1551341, Control_c, 0, 67, 53
1, 1551345, Note_on_c, 0, 83, 56
1, 1551346, Note_on_c, 0, 67, 59
1, 1551350, Note_on_c, 0, 74, 51
1, 1551353, Note_off_c, 0, 66, 62
1, 1551371, Control_c, 0, 67, 52
1, 1551386, Control_c, 0, 64, 61
1, 1551386, Control_c, 0, 67, 51
1, 1551397, Note_off_c, 0, 74, 59
1, 1551400, Control_c, 0, 64, 61
1, 1551400, Control_c, 0, 67, 50
1, 1551412, Note_off_c, 0, 67, 50
1, 1551415, Control_c, 0, 64, 60
1, 1551415, Control_c, 0, 67, 48
1, 1551425, Note_off_c, 0, 83, 61
1, 1551430, Control_c, 0, 64, 59
1, 1551430, Control_c, 0, 67, 46
1, 1551439, Note_on_c, 0, 86, 59
1, 1551445, Control_c, 0, 64, 58
1, 1551445, Control_c, 0, 67, 44
1, 1551458, Note_off_c, 0, 86, 64
1, 1551460, Control_c, 0, 64, 54
1, 1551460, Control_c, 0, 67, 42
1, 1551482, Control_c, 0, 64, 49
1, 1551482, Control_c, 0, 67, 39
1, 1551498, Control_c, 0, 64, 44
1, 1551498, Control_c, 0, 67, 36
1, 1551513, Control_c, 0, 64, 39
1, 1551513, Control_c, 0, 67, 33
1, 1551528, Control_c, 0, 64, 37
1, 1551528, Control_c, 0, 67, 31
1, 1551543, Control_c, 0, 67, 30
1, 1551554, Note_on_c, 0, 86, 92
1, 1551561, Note_on_c, 0, 71, 54
1, 1551564, Note_on_c, 0, 62, 55
1, 1551572, Control_c, 0, 64, 36
1, 1551587, Control_c, 0, 64, 35
1, 1551602, Note_off_c, 0, 71, 59
1, 1551602, Control_c, 0, 64, 34
1, 1551607, Note_off_c, 0, 62, 56
1, 1551616, Control_c, 0, 64, 28
1, 1551631, Control_c, 0, 64, 0
1, 1551631, Control_c, 0, 67, 30
1, 1551646, Control_c, 0, 67, 31
1, 1551656, Note_on_c, 0, 91, 78
1, 1551663, Note_off_c, 0, 86, 63
1, 1551676, Control_c, 0, 67, 31
1, 1551690, Control_c, 0, 67, 32
1, 1551705, Control_c, 0, 67, 32
1, 1551720, Control_c, 0, 64, 40
1, 1551720, Control_c, 0, 67, 34
1, 1551735, Control_c, 0, 64, 63
1, 1551735, Control_c, 0, 67, 35
1, 1551746, Note_off_c, 0, 91, 56
1, 1551749, Note_on_c, 0, 88, 82
1, 1551750, Control_c, 0, 64, 61
1, 1551750, Control_c, 0, 67, 36
1, 1551752, Note_on_c, 0, 62, 58
1, 1551759, Note_on_c, 0, 72, 54
1, 1551764, Control_c, 0, 64, 42
1, 1551764, Control_c, 0, 67, 36
1, 1551779, Control_c, 0, 64, 0
1, 1551789, Note_off_c, 0, 72, 63
1, 1551809, Control_c, 0, 67, 36
1, 1551813, Note_off_c, 0, 62, 55
1, 1551817, Note_off_c, 0, 88, 63
1, 1551823, Control_c, 0, 67, 35
1, 1551832, Note_on_c, 0, 84, 68
1, 1551861, Note_off_c, 0, 84, 66
1, 1551937, Note_on_c, 0, 84, 66
1, 1551939, Note_on_c, 0, 62, 53
1, 1551949, Note_on_c, 0, 69, 53
1, 1551972, Control_c, 0, 67, 34
1, 1551977, Note_off_c, 0, 62, 60
1, 1551984, Note_off_c, 0, 69, 66
1, 1551989, Note_off_c, 0, 84, 60
1, 1552025, Note_on_c, 0, 81, 55
1, 1552071, Note_off_c, 0, 81, 53
1, 1552102, Note_on_c, 0, 82, 68
1, 1552107, Note_on_c, 0, 73, 59
1, 1552113, Note_on_c, 0, 62, 49
1, 1552155, Note_off_c, 0, 62, 58
1, 1552158, Note_off_c, 0, 73, 57
1, 1552185, Note_on_c, 0, 85, 63
1, 1552192, Note_off_c, 0, 82, 61
1, 1552227, Note_off_c, 0, 85, 64
1, 1552232, Control_c, 0, 67, 33
1, 1552247, Control_c, 0, 67, 32
1, 1552262, Control_c, 0, 67, 31
1, 1552291, Control_c, 0, 64, 66
1, 1552294, Note_on_c, 0, 83, 91
1, 1552298, Note_on_c, 0, 74, 70
1, 1552307, Control_c, 0, 64, 127
1, 1552307, Control_c, 0, 67, 30
1, 1552308, Note_on_c, 0, 62, 58
1, 1552321, Control_c, 0, 67, 31
1, 1552336, Control_c, 0, 67, 32
1, 1552351, Control_c, 0, 67, 33
1, 1552357, Note_off_c, 0, 74, 61
1, 1552366, Control_c, 0, 64, 77
1, 1552366, Control_c, 0, 67, 34
1, 1552368, Note_off_c, 0, 62, 49
1, 1552378, Note_off_c, 0, 83, 63
1, 1552379, Note_on_c, 0, 86, 78
1, 1552381, Control_c, 0, 64, 58
1, 1552396, Control_c, 0, 64, 0
1, 1552396, Control_c, 0, 67, 34
1, 1552411, Control_c, 0, 67, 35
1, 1552440, Control_c, 0, 64, 14
1, 1552440, Control_c, 0, 67, 35
1, 1552452, Note_off_c, 0, 86, 57
1, 1552455, Control_c, 0, 64, 22
1, 1552455, Control_c, 0, 67, 36
1, 1552470, Control_c, 0, 64, 18
1, 1552470, Control_c, 0, 67, 36
1, 1552478, Note_on_c, 0, 83, 75
1, 1552485, Control_c, 0, 67, 37
1, 1552488, Note_on_c, 0, 62, 64
1, 1552488, Note_on_c, 0, 67, 55
1, 1552500, Control_c, 0, 64, 17
1, 1552514, Control_c, 0, 64, 14
1, 1552527, Note_off_c, 0, 62, 56
1, 1552529, Control_c, 0, 64, 8
1, 1552544, Control_c, 0, 64, 0
1, 1552548, Note_off_c, 0, 67, 60
1, 1552554, Note_off_c, 0, 83, 62
1, 1552569, Note_on_c, 0, 79, 63
1, 1552599, Note_off_c, 0, 79, 56
1, 1552603, Control_c, 0, 67, 37
1, 1552618, Control_c, 0, 67, 38
1, 1552661, Note_on_c, 0, 79, 68
1, 1552666, Note_on_c, 0, 62, 54
1, 1552676, Note_on_c, 0, 71, 45
1, 1552690, Note_off_c, 0, 79, 61
1, 1552707, Control_c, 0, 67, 38
1, 1552709, Note_off_c, 0, 62, 57
1, 1552709, Note_off_c, 0, 71, 54
1, 1552721, Control_c, 0, 67, 39
1, 1552750, Note_on_c, 0, 74, 53
1, 1552751, Control_c, 0, 67, 39
1, 1552765, Control_c, 0, 67, 40
1, 1552805, Note_off_c, 0, 74, 50
1, 1552837, Note_on_c, 0, 62, 47
1, 1552837, Note_on_c, 0, 70, 56
1, 1552837, Note_on_c, 0, 73, 66
1, 1552840, Control_c, 0, 67, 40
1, 1552870, Control_c, 0, 67, 41
1, 1552876, Note_off_c, 0, 62, 56
1, 1552879, Note_off_c, 0, 70, 59
1, 1552899, Control_c, 0, 67, 41
1, 1552910, Note_off_c, 0, 73, 53
1, 1552914, Control_c, 0, 67, 42
1, 1552922, Note_on_c, 0, 76, 63
1, 1552983, Note_off_c, 0, 76, 62
1, 1552995, Control_c, 0, 64, 42
1, 1552995, Control_c, 0, 67, 42
1, 1553010, Control_c, 0, 64, 71
1, 1553010, Control_c, 0, 67, 43
1, 1553020, Note_on_c, 0, 62, 52
1, 1553023, Note_on_c, 0, 71, 49
1, 1553024, Note_on_c, 0, 74, 74
1, 1553025, Control_c, 0, 64, 127
1, 1553025, Control_c, 0, 67, 44
1, 1553040, Control_c, 0, 67, 48
1, 1553046, Note_off_c, 0, 71, 60
1, 1553054, Control_c, 0, 67, 51
1, 1553055, Note_off_c, 0, 62, 63
1, 1553069, Control_c, 0, 67, 53
1, 1553084, Control_c, 0, 64, 106
1, 1553084, Control_c, 0, 67, 55
1, 1553092, Note_off_c, 0, 74, 63
1, 1553100, Control_c, 0, 64, 73
1, 1553100, Control_c, 0, 67, 58
1, 1553107, Note_on_c, 0, 79, 62
1, 1553115, Control_c, 0, 64, 54
1, 1553115, Control_c, 0, 67, 64
1, 1553130, Control_c, 0, 64, 0
1, 1553130, Control_c, 0, 67, 72
1, 1553144, Control_c, 0, 67, 80
1, 1553148, Note_off_c, 0, 79, 52
1, 1553159, Control_c, 0, 64, 26
1, 1553159, Control_c, 0, 67, 88
1, 1553174, Control_c, 0, 64, 29
1, 1553174, Control_c, 0, 67, 94
1, 1553189, Control_c, 0, 64, 30
1, 1553189, Control_c, 0, 67, 98
1, 1553200, Note_on_c, 0, 76, 67
1, 1553203, Control_c, 0, 64, 31
1, 1553203, Control_c, 0, 67, 103
1, 1553206, Note_on_c, 0, 60, 61
1, 1553215, Note_on_c, 0, 50, 59
1, 1553218, Control_c, 0, 64, 29
1, 1553218, Control_c, 0, 67, 108
1, 1553233, Control_c, 0, 64, 27
1, 1553233, Control_c, 0, 67, 113
1, 1553237, Note_off_c, 0, 60, 65
1, 1553248, Control_c, 0, 64, 23
1, 1553248, Control_c, 0, 67, 117
1, 1553249, Note_off_c, 0, 50, 62
1, 1553263, Control_c, 0, 64, 18
1, 1553263, Control_c, 0, 67, 119
1, 1553271, Note_off_c, 0, 76, 66
1, 1553278, Control_c, 0, 64, 0
1, 1553278, Control_c, 0, 67, 119
1, 1553286, Note_on_c, 0, 72, 61
1, 1553293, Control_c, 0, 67, 120
1, 1553315, Note_off_c, 0, 72, 59
1, 1553380, Note_on_c, 0, 57, 60
1, 1553381, Note_on_c, 0, 50, 55
1, 1553387, Note_on_c, 0, 72, 65
1, 1553418, Note_off_c, 0, 57, 62
1, 1553420, Note_off_c, 0, 50, 64
1, 1553431, Note_off_c, 0, 72, 55
1, 1553441, Control_c, 0, 67, 120
1, 1553456, Control_c, 0, 67, 121
1, 1553467, Note_on_c, 0, 69, 56
1, 1553470, Control_c, 0, 67, 121
1, 1553485, Control_c, 0, 67, 123
1, 1553500, Control_c, 0, 67, 126
1, 1553515, Control_c, 0, 67, 127
1, 1553522, Note_off_c, 0, 69, 52
1, 1553552, Note_on_c, 0, 50, 56
1, 1553553, Note_on_c, 0, 61, 63
1, 1553559, Note_on_c, 0, 70, 65
1, 1553606, Note_off_c, 0, 61, 59
1, 1553612, Note_off_c, 0, 50, 60
1, 1553630, Note_on_c, 0, 73, 67
1, 1553636, Note_off_c, 0, 70, 61
1, 1553682, Note_off_c, 0, 73, 59
1, 1553735, Note_on_c, 0, 62, 66
1, 1553738, Note_on_c, 0, 71, 81
1, 1553742, Note_on_c, 0, 50, 60
1, 1553778, Note_off_c, 0, 62, 56
1, 1553787, Note_off_c, 0, 50, 56
1, 1553812, Note_off_c, 0, 71, 64
1, 1553816, Note_on_c, 0, 74, 71
1, 1553871, Note_off_c, 0, 74, 53
1, 1553910, Note_on_c, 0, 55, 59
1, 1553910, Note_on_c, 0, 71, 76
1, 1553916, Note_on_c, 0, 50, 58
1, 1553963, Note_off_c, 0, 55, 62
1, 1553964, Note_off_c, 0, 50, 60
1, 1553983, Note_off_c, 0, 71, 63
1, 1553984, Note_on_c, 0, 67, 75
1, 1554019, Note_off_c, 0, 67, 57
1, 1554088, Note_on_c, 0, 67, 75
1, 1554089, Note_on_c, 0, 59, 64
1, 1554098, Note_on_c, 0, 50, 54
1, 1554130, Note_off_c, 0, 59, 53
1, 1554138, Note_off_c, 0, 50, 62
1, 1554138, Note_off_c, 0, 67, 63
1, 1554170, Note_on_c, 0, 62, 70
1, 1554260, Note_off_c, 0, 62, 40
1, 1554268, Note_on_c, 0, 69, 66
1, 1554271, Note_on_c, 0, 54, 58
1, 1554286, Note_on_c, 0, 50, 41
1, 1554327, Note_off_c, 0, 54, 58
1, 1554329, Note_off_c, 0, 50, 62
1, 1554340, Note_off_c, 0, 69, 64
1, 1554346, Note_on_c, 0, 66, 65
1, 1554390, Note_off_c, 0, 66, 61
1, 1554432, Note_on_c, 0, 66, 60
1, 1554447, Note_on_c, 0, 60, 58
1, 1554468, Note_on_c, 0, 50, 48
1, 1554489, Note_off_c, 0, 60, 60
1, 1554494, Note_off_c, 0, 66, 65
1, 1554506, Note_off_c, 0, 50, 62
1, 1554524, Note_on_c, 0, 62, 69
1, 1554584, Note_off_c, 0, 62, 56
1, 1554612, Note_on_c, 0, 71, 62
1, 1554616, Note_on_c, 0, 50, 61
1, 1554619, Note_on_c, 0, 55, 53
1, 1554664, Note_off_c, 0, 50, 60
1, 1554666, Note_off_c, 0, 55, 63
1, 1554694, Note_on_c, 0, 67, 67
1, 1554694, Note_off_c, 0, 71, 61
1, 1554736, Note_off_c, 0, 67, 54
1, 1554789, Note_on_c, 0, 59, 51
1, 1554794, Note_on_c, 0, 67, 56
1, 1554798, Note_on_c, 0, 50, 49
1, 1554830, Note_off_c, 0, 59, 57
1, 1554834, Note_off_c, 0, 50, 60
1, 1554840, Note_off_c, 0, 67, 60
1, 1554873, Note_on_c, 0, 62, 59
1, 1554965, Note_on_c, 0, 54, 50
1, 1554966, Note_off_c, 0, 62, 36
1, 1554968, Note_on_c, 0, 69, 59
1, 1554975, Note_on_c, 0, 50, 32
1, 1555016, Note_off_c, 0, 50, 50
1, 1555019, Note_off_c, 0, 54, 56
1, 1555042, Note_off_c, 0, 69, 61
1, 1555061, Note_on_c, 0, 66, 45
1, 1555092, Note_off_c, 0, 66, 60
1, 1555131, Note_on_c, 0, 60, 55
1, 1555138, Note_on_c, 0, 66, 58
1, 1555151, Note_on_c, 0, 50, 29
1, 1555167, Note_off_c, 0, 60, 62
1, 1555187, Note_off_c, 0, 50, 50
1, 1555187, Note_off_c, 0, 66, 62
1, 1555235, Note_on_c, 0, 62, 60
1, 1555286, Note_off_c, 0, 62, 50
1, 1555325, Note_on_c, 0, 50, 46
1, 1555329, Note_on_c, 0, 71, 59
1, 1555336, Note_on_c, 0, 55, 49
1, 1555377, Note_off_c, 0, 55, 63
1, 1555381, Note_off_c, 0, 50, 61
1, 1555407, Note_off_c, 0, 71, 61
1, 1555412, Note_on_c, 0, 67, 65
1, 1555445, Note_off_c, 0, 67, 59
1, 1555502, Note_on_c, 0, 59, 47
1, 1555509, Note_on_c, 0, 67, 58
1, 1555531, Note_on_c, 0, 50, 21
1, 1555533, Note_off_c, 0, 59, 58
1, 1555543, Note_off_c, 0, 67, 63
1, 1555569, Note_off_c, 0, 50, 41
1, 1555587, Note_on_c, 0, 62, 63
1, 1555643, Control_c, 0, 64, 39
1, 1555658, Control_c, 0, 64, 45
1, 1555670, Note_off_c, 0, 62, 50
1, 1555680, Note_on_c, 0, 71, 58
1, 1555682, Note_on_c, 0, 50, 52
1, 1555687, Note_on_c, 0, 56, 52
1, 1555687, Control_c, 0, 64, 45
1, 1555717, Control_c, 0, 64, 45
1, 1555730, Note_off_c, 0, 56, 60
1, 1555731, Note_off_c, 0, 50, 58
1, 1555732, Control_c, 0, 64, 44
1, 1555746, Control_c, 0, 64, 41
1, 1555751, Note_off_c, 0, 71, 62
1, 1555759, Note_on_c, 0, 68, 70
1, 1555761, Control_c, 0, 64, 35
1, 1555776, Control_c, 0, 64, 26
1, 1555791, Control_c, 0, 64, 0
1, 1555805, Note_off_c, 0, 68, 58
1, 1555836, Control_c, 0, 67, 112
1, 1555851, Control_c, 0, 67, 90
1, 1555853, Note_on_c, 0, 50, 54
1, 1555854, Note_on_c, 0, 68, 64
1, 1555856, Note_on_c, 0, 59, 49
1, 1555865, Control_c, 0, 67, 76
1, 1555880, Control_c, 0, 67, 66
1, 1555886, Note_off_c, 0, 59, 61
1, 1555894, Note_off_c, 0, 50, 61
1, 1555895, Control_c, 0, 67, 61
1, 1555906, Note_off_c, 0, 68, 64
1, 1555910, Control_c, 0, 67, 57
1, 1555922, Note_on_c, 0, 62, 72
1, 1555925, Control_c, 0, 67, 55
1, 1555939, Control_c, 0, 67, 53
1, 1555954, Control_c, 0, 67, 51
1, 1555976, Control_c, 0, 67, 50
1, 1555986, Note_off_c, 0, 62, 61
1, 1555990, Control_c, 0, 67, 49
1, 1556005, Control_c, 0, 64, 67
1, 1556005, Control_c, 0, 67, 47
1, 1556020, Control_c, 0, 64, 127
1, 1556020, Control_c, 0, 67, 46
1, 1556022, Note_on_c, 0, 72, 78
1, 1556033, Note_on_c, 0, 50, 59
1, 1556035, Control_c, 0, 67, 44
1, 1556041, Note_on_c, 0, 57, 57
1, 1556050, Control_c, 0, 67, 40
1, 1556064, Control_c, 0, 67, 33
1, 1556079, Control_c, 0, 67, 23
1, 1556085, Note_off_c, 0, 57, 55
1, 1556094, Note_off_c, 0, 50, 60
1, 1556094, Control_c, 0, 67, 9
1, 1556109, Control_c, 0, 67, 0
1, 1556110, Note_on_c, 0, 69, 80
1, 1556116, Note_off_c, 0, 72, 62
1, 1556123, Control_c, 0, 64, 90
1, 1556138, Control_c, 0, 64, 60
1, 1556153, Control_c, 0, 64, 0
1, 1556155, Note_off_c, 0, 69, 65
1, 1556193, Poly_aftertouch_c, 0, 69, 0
1, 1556201, Note_on_c, 0, 69, 67
1, 1556211, Note_on_c, 0, 60, 68
1, 1556217, Note_on_c, 0, 50, 65
1, 1556250, Note_off_c, 0, 69, 67
1, 1556265, Note_off_c, 0, 50, 60
1, 1556270, Note_off_c, 0, 60, 59
1, 1556281, Note_on_c, 0, 62, 78
1, 1556361, Note_off_c, 0, 62, 53
1, 1556386, Note_on_c, 0, 50, 73
1, 1556388, Note_on_c, 0, 73, 85
1, 1556390, Note_on_c, 0, 58, 81
1, 1556491, Note_on_c, 0, 70, 83
1, 1556506, Note_off_c, 0, 50, 61
1, 1556514, Note_off_c, 0, 73, 60
1, 1556539, Control_c, 0, 64, 61
1, 1556549, Note_off_c, 0, 58, 57
1, 1556554, Control_c, 0, 64, 74
1, 1556560, Note_off_c, 0, 70, 60
1, 1556569, Control_c, 0, 64, 125
1, 1556584, Control_c, 0, 64, 127
1, 1556598, Note_on_c, 0, 70, 67
1, 1556608, Note_on_c, 0, 61, 93
1, 1556610, Note_on_c, 0, 50, 70
1, 1556664, Note_off_c, 0, 50, 63
1, 1556683, Note_off_c, 0, 61, 66
1, 1556694, Note_on_c, 0, 62, 86
1, 1556725, Note_off_c, 0, 70, 58
1, 1556737, Note_off_c, 0, 62, 66
1, 1556872, Control_c, 0, 64, 81
1, 1556886, Control_c, 0, 64, 50
1, 1556901, Control_c, 0, 64, 0
1, 1557272, Control_c, 0, 64, 26
1, 1557287, Control_c, 0, 64, 40
1, 1557302, Control_c, 0, 64, 47
1, 1557317, Control_c, 0, 64, 55
1, 1557332, Control_c, 0, 64, 61
1, 1557347, Control_c, 0, 64, 64
1, 1557361, Control_c, 0, 64, 69
1, 1557376, Control_c, 0, 64, 77
1, 1557391, Control_c, 0, 64, 90
1, 1557406, Control_c, 0, 64, 107
1, 1557421, Control_c, 0, 64, 127
1, 1557677, Note_on_c, 0, 73, 84
1, 1557785, Note_on_c, 0, 76, 89
1, 1557817, Note_off_c, 0, 73, 63
1, 1557844, Note_off_c, 0, 76, 67
1, 1558001, Note_on_c, 0, 74, 81
1, 1558033, Note_on_c, 0, 59, 53
1, 1558036, Note_on_c, 0, 50, 44
1, 1558038, Note_on_c, 0, 62, 52
1, 1558048, Note_on_c, 0, 43, 44
1, 1558125, Control_c, 0, 64, 104
1, 1558140, Control_c, 0, 64, 83
1, 1558155, Control_c, 0, 64, 71
1, 1558170, Control_c, 0, 64, 61
1, 1558184, Control_c, 0, 64, 10
1, 1558206, Control_c, 0, 64, 0
1, 1558369, Control_c, 0, 64, 53
1, 1558384, Control_c, 0, 64, 61
1, 1558399, Control_c, 0, 64, 62
1, 1558414, Control_c, 0, 64, 64
1, 1558429, Control_c, 0, 64, 65
1, 1558444, Control_c, 0, 64, 67
1, 1558458, Control_c, 0, 64, 69
1, 1558473, Control_c, 0, 64, 74
1, 1558488, Control_c, 0, 64, 79
1, 1558503, Control_c, 0, 64, 87
1, 1558517, Control_c, 0, 64, 97
1, 1558532, Control_c, 0, 64, 127
1, 1558763, Note_on_c, 0, 72, 68
1, 1558767, Note_off_c, 0, 74, 59
1, 1558831, Note_off_c, 0, 59, 43
1, 1558835, Note_off_c, 0, 62, 40
1, 1558855, Note_on_c, 0, 71, 68
1, 1558885, Note_off_c, 0, 72, 54
1, 1558933, Control_c, 0, 64, 92
1, 1558945, Note_off_c, 0, 71, 61
1, 1558948, Control_c, 0, 64, 61
1, 1558960, Note_on_c, 0, 69, 67
1, 1558970, Note_on_c, 0, 62, 51
1, 1558971, Control_c, 0, 64, 0
1, 1558975, Note_on_c, 0, 60, 61
1, 1559030, Control_c, 0, 64, 34
1, 1559045, Control_c, 0, 64, 65
1, 1559055, Note_off_c, 0, 69, 61
1, 1559060, Control_c, 0, 64, 77
1, 1559064, Note_on_c, 0, 71, 64
1, 1559075, Control_c, 0, 64, 95
1, 1559089, Control_c, 0, 64, 102
1, 1559140, Note_off_c, 0, 71, 53
1, 1559144, Note_on_c, 0, 72, 70
1, 1559172, Note_off_c, 0, 60, 58
1, 1559233, Note_on_c, 0, 74, 67
1, 1559233, Note_off_c, 0, 72, 62
1, 1559252, Control_c, 0, 64, 101
1, 1559267, Control_c, 0, 64, 101
1, 1559282, Control_c, 0, 64, 95
1, 1559296, Control_c, 0, 64, 83
1, 1559311, Control_c, 0, 64, 70
1, 1559323, Note_off_c, 0, 74, 60
1, 1559326, Control_c, 0, 64, 48
1, 1559329, Note_on_c, 0, 57, 59
1, 1559329, Note_on_c, 0, 72, 70
1, 1559341, Control_c, 0, 64, 0
1, 1559396, Note_off_c, 0, 72, 64
1, 1559520, Note_on_c, 0, 69, 71
1, 1559531, Note_on_c, 0, 54, 52
1, 1559550, Note_off_c, 0, 57, 55
1, 1559563, Note_off_c, 0, 54, 63
1, 1559578, Note_off_c, 0, 50, 59
1, 1559579, Note_off_c, 0, 62, 42
1, 1559583, Note_off_c, 0, 69, 65
1, 1559605, Note_off_c, 0, 43, 54
1, 1559735, Note_on_c, 0, 71, 60
1, 1559748, Note_on_c, 0, 43, 44
1, 1559751, Note_on_c, 0, 62, 46
1, 1559754, Note_on_c, 0, 50, 40
1, 1559761, Note_on_c, 0, 55, 34
1, 1559794, Control_c, 0, 64, 8
1, 1559809, Control_c, 0, 64, 51
1, 1559824, Control_c, 0, 64, 58
1, 1559838, Control_c, 0, 64, 60
1, 1559853, Control_c, 0, 64, 62
1, 1559868, Control_c, 0, 64, 62
1, 1559912, Control_c, 0, 64, 62
1, 1559927, Control_c, 0, 64, 59
1, 1559930, Note_on_c, 0, 67, 63
1, 1559936, Note_on_c, 0, 47, 57
1, 1559940, Note_off_c, 0, 71, 61
1, 1559942, Control_c, 0, 64, 53
1, 1559956, Control_c, 0, 64, 0
1, 1559966, Note_off_c, 0, 67, 61
1, 1559968, Note_off_c, 0, 43, 52
1, 1559969, Note_off_c, 0, 62, 58
1, 1559978, Note_off_c, 0, 55, 57
1, 1559980, Note_off_c, 0, 47, 65
1, 1559982, Note_off_c, 0, 50, 59
1, 1560134, Control_c, 0, 64, 33
1, 1560149, Note_on_c, 0, 62, 74
1, 1560149, Control_c, 0, 64, 57
1, 1560155, Note_on_c, 0, 59, 60
1, 1560156, Note_on_c, 0, 50, 59
1, 1560160, Note_on_c, 0, 55, 53
1, 1560164, Control_c, 0, 64, 64
1, 1560173, Note_off_c, 0, 62, 65
1, 1560179, Control_c, 0, 64, 69
1, 1560180, Note_off_c, 0, 50, 61
1, 1560188, Note_off_c, 0, 59, 63
1, 1560191, Note_off_c, 0, 55, 53
1, 1560194, Control_c, 0, 64, 73
1, 1560209, Control_c, 0, 64, 75
1, 1560232, Note_on_c, 0, 62, 72
1, 1560235, Note_on_c, 0, 50, 63
1, 1560240, Note_on_c, 0, 55, 44
1, 1560240, Note_on_c, 0, 59, 50
1, 1560259, Note_off_c, 0, 62, 62
1, 1560263, Note_off_c, 0, 50, 67
1, 1560268, Note_off_c, 0, 55, 54
1, 1560270, Note_off_c, 0, 59, 60
1, 1560284, Control_c, 0, 64, 74
1, 1560299, Control_c, 0, 64, 74
1, 1560314, Control_c, 0, 64, 73
1, 1560322, Note_on_c, 0, 62, 72
1, 1560323, Note_on_c, 0, 50, 68
1, 1560327, Note_on_c, 0, 55, 59
1, 1560328, Note_on_c, 0, 59, 57
1, 1560328, Control_c, 0, 64, 73
1, 1560343, Control_c, 0, 64, 72
1, 1560351, Note_off_c, 0, 55, 59
1, 1560352, Note_off_c, 0, 62, 58
1, 1560354, Note_off_c, 0, 50, 63
1, 1560355, Note_off_c, 0, 59, 63
1, 1560358, Control_c, 0, 64, 71
1, 1560373, Control_c, 0, 64, 69
1, 1560387, Control_c, 0, 64, 68
1, 1560402, Control_c, 0, 64, 67
1, 1560405, Note_on_c, 0, 62, 63
1, 1560409, Note_on_c, 0, 59, 63
1, 1560415, Note_on_c, 0, 50, 61
1, 1560417, Control_c, 0, 64, 66
1, 1560426, Note_on_c, 0, 55, 49
1, 1560432, Control_c, 0, 64, 65
1, 1560439, Note_off_c, 0, 59, 62
1, 1560441, Note_off_c, 0, 62, 59
1, 1560444, Note_off_c, 0, 50, 63
1, 1560447, Control_c, 0, 64, 64
1, 1560465, Note_off_c, 0, 55, 49
1, 1560468, Control_c, 0, 64, 63
1, 1560483, Control_c, 0, 64, 62
1, 1560498, Control_c, 0, 64, 61
1, 1560513, Control_c, 0, 64, 58
1, 1560524, Note_on_c, 0, 59, 56
1, 1560528, Control_c, 0, 64, 54
1, 1560532, Note_on_c, 0, 62, 57
1, 1560542, Control_c, 0, 64, 48
1, 1560549, Note_on_c, 0, 55, 54
1, 1560554, Note_on_c, 0, 50, 41
1, 1560557, Control_c, 0, 64, 33
1, 1560572, Control_c, 0, 64, 0
1, 1560733, Note_off_c, 0, 59, 54
1, 1560765, Control_c, 0, 64, 31
1, 1560766, Note_on_c, 0, 64, 49
1, 1560771, Note_on_c, 0, 60, 43
1, 1560775, Note_off_c, 0, 62, 50
1, 1560779, Control_c, 0, 64, 32
1, 1560794, Control_c, 0, 64, 30
1, 1560809, Control_c, 0, 64, 29
1, 1560824, Control_c, 0, 64, 26
1, 1560839, Control_c, 0, 64, 22
1, 1560853, Control_c, 0, 64, 10
1, 1560868, Control_c, 0, 64, 0
1, 1560980, Note_off_c, 0, 64, 56
1, 1560993, Note_on_c, 0, 62, 47
1, 1561002, Note_on_c, 0, 59, 43
1, 1561005, Note_off_c, 0, 60, 37
1, 1561024, Note_off_c, 0, 55, 63
1, 1561040, Note_off_c, 0, 50, 58
1, 1561054, Note_off_c, 0, 59, 62
1, 1561058, Note_off_c, 0, 62, 61
1, 1561262, Control_c, 0, 64, 63
1, 1561277, Control_c, 0, 64, 104
1, 1561291, Control_c, 0, 64, 127
1, 1561353, Note_on_c, 0, 76, 93
1, 1561481, Note_on_c, 0, 79, 96
1, 1561513, Note_off_c, 0, 76, 67
1, 1561520, Note_on_c, 0, 46, 83
1, 1561549, Note_off_c, 0, 79, 64
1, 1561595, Note_on_c, 0, 53, 78
1, 1561738, Note_on_c, 0, 77, 94
1, 1561744, Note_on_c, 0, 65, 89
1, 1561797, Note_on_c, 0, 62, 89
1, 1561870, Control_c, 0, 64, 116
1, 1561885, Control_c, 0, 64, 68
1, 1561899, Control_c, 0, 64, 0
1, 1561917, Poly_aftertouch_c, 0, 49, 127
1, 1562027, Control_c, 0, 64, 47
1, 1562041, Control_c, 0, 64, 63
1, 1562056, Control_c, 0, 64, 66
1, 1562071, Control_c, 0, 64, 70
1, 1562086, Control_c, 0, 64, 81
1, 1562101, Control_c, 0, 64, 127
1, 1562484, Note_off_c, 0, 46, 61
1, 1562513, Note_off_c, 0, 62, 48
1, 1562523, Note_off_c, 0, 53, 60
1, 1562554, Poly_aftertouch_c, 0, 49, 0
1, 1562621, Note_on_c, 0, 75, 87
1, 1562710, Note_off_c, 0, 77, 57
1, 1562735, Note_on_c, 0, 74, 83
1, 1562746, Note_off_c, 0, 65, 35
1, 1562787, Note_off_c, 0, 75, 57
1, 1562856, Note_on_c, 0, 63, 75
1, 1562859, Note_on_c, 0, 72, 84
1, 1562862, Note_on_c, 0, 65, 79
1, 1562864, Control_c, 0, 64, 83
1, 1562866, Note_on_c, 0, 53, 68
1, 1562866, Note_off_c, 0, 74, 62
1, 1562868, Note_on_c, 0, 46, 64
1, 1562879, Control_c, 0, 64, 54
1, 1562894, Control_c, 0, 64, 0
1, 1562953, Control_c, 0, 64, 32
1, 1562958, Note_on_c, 0, 74, 83
1, 1562968, Control_c, 0, 64, 61
1, 1562982, Control_c, 0, 64, 67
1, 1562991, Note_off_c, 0, 72, 62
1, 1562997, Control_c, 0, 64, 70
1, 1563012, Control_c, 0, 64, 74
1, 1563027, Control_c, 0, 64, 76
1, 1563039, Note_off_c, 0, 63, 46
1, 1563042, Control_c, 0, 64, 77
1, 1563045, Note_on_c, 0, 75, 83
1, 1563086, Control_c, 0, 64, 78
1, 1563100, Control_c, 0, 64, 79
1, 1563115, Control_c, 0, 64, 81
1, 1563130, Control_c, 0, 64, 84
1, 1563136, Note_on_c, 0, 77, 84
1, 1563140, Note_off_c, 0, 74, 30
1, 1563145, Control_c, 0, 64, 88
1, 1563160, Control_c, 0, 64, 89
1, 1563164, Note_off_c, 0, 75, 64
1, 1563189, Control_c, 0, 64, 79
1, 1563204, Control_c, 0, 64, 64
1, 1563219, Control_c, 0, 64, 0
1, 1563229, Note_on_c, 0, 75, 79
1, 1563237, Note_off_c, 0, 77, 60
1, 1563244, Note_on_c, 0, 60, 81
1, 1563313, Note_off_c, 0, 60, 57
1, 1563337, Note_off_c, 0, 75, 61
1, 1563437, Note_on_c, 0, 72, 81
1, 1563453, Note_on_c, 0, 57, 68
1, 1563500, Note_off_c, 0, 65, 61
1, 1563504, Note_off_c, 0, 57, 61
1, 1563505, Note_off_c, 0, 46, 62
1, 1563528, Note_off_c, 0, 72, 65
1, 1563536, Note_off_c, 0, 53, 65
1, 1563656, Note_on_c, 0, 74, 78
1, 1563678, Note_on_c, 0, 65, 62
1, 1563681, Note_on_c, 0, 58, 52
1, 1563685, Note_on_c, 0, 46, 57
1, 1563690, Note_on_c, 0, 53, 48
1, 1563746, Control_c, 0, 64, 56
1, 1563761, Control_c, 0, 64, 64
1, 1563776, Control_c, 0, 64, 68
1, 1563791, Control_c, 0, 64, 73
1, 1563805, Control_c, 0, 64, 80
1, 1563820, Control_c, 0, 64, 85
1, 1563835, Control_c, 0, 64, 90
1, 1563850, Control_c, 0, 64, 93
1, 1563865, Control_c, 0, 64, 93
1, 1563870, Note_on_c, 0, 70, 76
1, 1563875, Note_on_c, 0, 50, 63
1, 1563878, Note_off_c, 0, 74, 62
1, 1563886, Note_off_c, 0, 53, 58
1, 1563909, Control_c, 0, 64, 93
1, 1563918, Note_off_c, 0, 58, 62
1, 1563924, Control_c, 0, 64, 92
1, 1563924, Note_off_c, 0, 65, 61
1, 1563932, Note_off_c, 0, 46, 50
1, 1563938, Control_c, 0, 64, 85
1, 1563943, Note_off_c, 0, 70, 64
1, 1563952, Note_off_c, 0, 50, 60
1, 1563953, Control_c, 0, 64, 76
1, 1563968, Control_c, 0, 64, 71
1, 1563983, Control_c, 0, 64, 68
1, 1563997, Control_c, 0, 64, 65
1, 1564012, Control_c, 0, 64, 61
1, 1564027, Control_c, 0, 64, 55
1, 1564042, Control_c, 0, 64, 46
1, 1564057, Control_c, 0, 64, 38
1, 1564072, Control_c, 0, 64, 22
1, 1564087, Control_c, 0, 64, 0
1, 1564150, Note_on_c, 0, 75, 75
1, 1564158, Note_on_c, 0, 63, 63
1, 1564176, Note_on_c, 0, 60, 52
1, 1564177, Note_on_c, 0, 45, 53
1, 1564317, Control_c, 0, 64, 49
1, 1564332, Control_c, 0, 64, 63
1, 1564347, Control_c, 0, 64, 65
1, 1564361, Control_c, 0, 64, 67
1, 1564376, Control_c, 0, 64, 69
1, 1564391, Control_c, 0, 64, 70
1, 1564406, Control_c, 0, 64, 72
1, 1564421, Control_c, 0, 64, 74
1, 1564436, Control_c, 0, 64, 74
1, 1564463, Note_on_c, 0, 65, 57
1, 1564463, Note_off_c, 0, 45, 63
1, 1564477, Note_on_c, 0, 53, 45
1, 1564484, Note_off_c, 0, 60, 59
1, 1564495, Note_off_c, 0, 75, 63
1, 1564533, Note_off_c, 0, 63, 60
1, 1564534, Note_off_c, 0, 65, 58
1, 1564559, Note_off_c, 0, 53, 60
1, 1564599, Control_c, 0, 64, 74
1, 1564614, Control_c, 0, 64, 73
1, 1564628, Control_c, 0, 64, 70
1, 1564643, Control_c, 0, 64, 64
1, 1564658, Control_c, 0, 64, 51
1, 1564672, Control_c, 0, 64, 0
1, 1564683, Note_on_c, 0, 74, 78
1, 1564694, Note_on_c, 0, 58, 61
1, 1564695, Note_on_c, 0, 62, 69
1, 1564698, Note_on_c, 0, 46, 61
1, 1564776, Control_c, 0, 64, 48
1, 1564791, Control_c, 0, 64, 65
1, 1564806, Control_c, 0, 64, 72
1, 1564820, Control_c, 0, 64, 78
1, 1564835, Control_c, 0, 64, 83
1, 1564850, Control_c, 0, 64, 89
1, 1564865, Control_c, 0, 64, 92
1, 1564876, Note_off_c, 0, 74, 66
1, 1564878, Note_on_c, 0, 65, 64
1, 1564880, Control_c, 0, 64, 93
1, 1564886, Note_on_c, 0, 53, 49
1, 1564915, Note_off_c, 0, 62, 60
1, 1564918, Note_on_c, 0, 69, 13
1, 1564920, Note_off_c, 0, 58, 57
1, 1564939, Note_off_c, 0, 65, 60
1, 1564960, Control_c, 0, 64, 92
1, 1564964, Note_off_c, 0, 46, 58
1, 1564970, Note_off_c, 0, 53, 52
1, 1564975, Control_c, 0, 64, 80
1, 1564983, Note_off_c, 0, 69, 43
1, 1564990, Control_c, 0, 64, 66
1, 1565005, Control_c, 0, 64, 0
1, 1565063, Note_on_c, 0, 51, 62
1, 1565065, Note_on_c, 0, 73, 85
1, 1565073, Note_on_c, 0, 57, 63
1, 1565076, Note_on_c, 0, 61, 76
1, 1565109, Poly_aftertouch_c, 0, 69, 127
1, 1565124, Control_c, 0, 64, 14
1, 1565139, Control_c, 0, 64, 53
1, 1565154, Control_c, 0, 64, 63
1, 1565169, Control_c, 0, 64, 70
1, 1565184, Control_c, 0, 64, 78
1, 1565199, Control_c, 0, 64, 88
1, 1565214, Control_c, 0, 64, 100
1, 1565228, Control_c, 0, 64, 112
1, 1565243, Control_c, 0, 64, 125
1, 1565252, Note_on_c, 0, 65, 65
1, 1565258, Control_c, 0, 64, 127
1, 1565264, Note_on_c, 0, 53, 57
1, 1565264, Note_off_c, 0, 57, 61
1, 1565286, Note_off_c, 0, 61, 59
1, 1565289, Note_off_c, 0, 51, 60
1, 1565297, Note_off_c, 0, 73, 48
1, 1565309, Note_off_c, 0, 53, 59
1, 1565330, Note_off_c, 0, 65, 50
1, 1565347, Control_c, 0, 64, 105
1, 1565362, Control_c, 0, 64, 81
1, 1565376, Control_c, 0, 64, 64
1, 1565377, Poly_aftertouch_c, 0, 69, 0
1, 1565391, Control_c, 0, 64, 0
1, 1565429, Note_on_c, 0, 74, 81
1, 1565437, Note_on_c, 0, 50, 59
1, 1565440, Note_on_c, 0, 58, 57
1, 1565440, Note_on_c, 0, 62, 80
1, 1565509, Control_c, 0, 64, 43
1, 1565524, Control_c, 0, 64, 58
1, 1565539, Control_c, 0, 64, 64
1, 1565554, Control_c, 0, 64, 68
1, 1565568, Control_c, 0, 64, 71
1, 1565583, Control_c, 0, 64, 76
1, 1565598, Note_on_c, 0, 65, 57
1, 1565598, Control_c, 0, 64, 81
1, 1565613, Control_c, 0, 64, 85
1, 1565622, Note_off_c, 0, 50, 62
1, 1565628, Note_off_c, 0, 62, 59
1, 1565628, Control_c, 0, 64, 87
1, 1565633, Note_on_c, 0, 53, 38
1, 1565637, Note_off_c, 0, 74, 64
1, 1565643, Control_c, 0, 64, 90
1, 1565644, Note_off_c, 0, 58, 62
1, 1565651, Note_off_c, 0, 65, 63
1, 1565658, Control_c, 0, 64, 90
1, 1565661, Note_on_c, 0, 69, 12
1, 1565664, Note_off_c, 0, 53, 55
1, 1565687, Control_c, 0, 64, 91
1, 1565717, Note_off_c, 0, 69, 38
1, 1565770, Control_c, 0, 64, 90
1, 1565799, Control_c, 0, 64, 89
1, 1565814, Control_c, 0, 64, 86
1, 1565828, Control_c, 0, 64, 83
1, 1565843, Control_c, 0, 64, 79
1, 1565858, Control_c, 0, 64, 76
1, 1565874, Control_c, 0, 64, 73
1, 1565889, Control_c, 0, 64, 70
1, 1565904, Control_c, 0, 64, 69
1, 1565906, Note_on_c, 0, 77, 77
1, 1565919, Control_c, 0, 64, 67
1, 1565933, Control_c, 0, 64, 65
1, 1565935, Note_on_c, 0, 65, 46
1, 1565936, Note_on_c, 0, 45, 46
1, 1565944, Note_on_c, 0, 60, 38
1, 1565948, Control_c, 0, 64, 63
1, 1565963, Control_c, 0, 64, 57
1, 1565978, Control_c, 0, 64, 34
1, 1565993, Control_c, 0, 64, 0
1, 1566088, Note_off_c, 0, 65, 61
1, 1566111, Control_c, 0, 64, 41
1, 1566126, Control_c, 0, 64, 61
1, 1566141, Control_c, 0, 64, 64
1, 1566155, Control_c, 0, 64, 65
1, 1566170, Control_c, 0, 64, 67
1, 1566185, Control_c, 0, 64, 68
1, 1566200, Control_c, 0, 64, 70
1, 1566215, Control_c, 0, 64, 72
1, 1566216, Note_off_c, 0, 45, 62
1, 1566227, Note_off_c, 0, 60, 61
1, 1566230, Control_c, 0, 64, 73
1, 1566232, Note_on_c, 0, 53, 53
1, 1566233, Note_on_c, 0, 75, 68
1, 1566242, Note_on_c, 0, 63, 58
1, 1566245, Control_c, 0, 64, 74
1, 1566260, Control_c, 0, 64, 76
1, 1566263, Note_off_c, 0, 77, 56
1, 1566274, Control_c, 0, 64, 78
1, 1566289, Control_c, 0, 64, 80
1, 1566304, Control_c, 0, 64, 82
1, 1566310, Note_off_c, 0, 63, 61
1, 1566318, Control_c, 0, 64, 83
1, 1566328, Note_off_c, 0, 75, 64
1, 1566333, Control_c, 0, 64, 84
1, 1566348, Control_c, 0, 64, 85
1, 1566355, Note_off_c, 0, 53, 35
1, 1566378, Control_c, 0, 64, 83
1, 1566392, Control_c, 0, 64, 71
1, 1566407, Control_c, 0, 64, 42
1, 1566421, Note_on_c, 0, 75, 71
1, 1566422, Control_c, 0, 64, 0
1, 1566426, Note_on_c, 0, 63, 67
1, 1566433, Note_on_c, 0, 46, 63
1, 1566434, Note_on_c, 0, 58, 57
1, 1566504, Control_c, 0, 64, 56
1, 1566519, Control_c, 0, 64, 64
1, 1566533, Control_c, 0, 64, 65
1, 1566543, Note_off_c, 0, 63, 63
1, 1566548, Control_c, 0, 64, 66
1, 1566563, Control_c, 0, 64, 68
1, 1566578, Note_off_c, 0, 75, 61
1, 1566578, Control_c, 0, 64, 70
1, 1566593, Control_c, 0, 64, 71
1, 1566603, Note_on_c, 0, 74, 71
1, 1566607, Control_c, 0, 64, 71
1, 1566612, Note_on_c, 0, 53, 56
1, 1566618, Note_on_c, 0, 62, 71
1, 1566632, Note_off_c, 0, 58, 59
1, 1566637, Control_c, 0, 64, 72
1, 1566651, Control_c, 0, 64, 72
1, 1566666, Control_c, 0, 64, 73
1, 1566670, Note_off_c, 0, 62, 57
1, 1566678, Note_off_c, 0, 74, 63
1, 1566681, Note_off_c, 0, 46, 58
1, 1566682, Control_c, 0, 64, 74
1, 1566697, Control_c, 0, 64, 74
1, 1566707, Note_off_c, 0, 53, 55
1, 1566727, Control_c, 0, 64, 73
1, 1566742, Control_c, 0, 64, 66
1, 1566756, Control_c, 0, 64, 40
1, 1566771, Control_c, 0, 64, 0
1, 1566781, Note_on_c, 0, 74, 77
1, 1566796, Note_on_c, 0, 57, 58
1, 1566796, Note_on_c, 0, 62, 61
1, 1566803, Note_on_c, 0, 51, 52
1, 1566845, Control_c, 0, 64, 40
1, 1566857, Note_off_c, 0, 62, 61
1, 1566860, Control_c, 0, 64, 62
1, 1566874, Control_c, 0, 64, 65
1, 1566889, Control_c, 0, 64, 66
1, 1566904, Control_c, 0, 64, 67
1, 1566919, Control_c, 0, 64, 68
1, 1566934, Control_c, 0, 64, 68
1, 1566948, Note_off_c, 0, 74, 63
1, 1566948, Control_c, 0, 64, 69
1, 1566951, Note_on_c, 0, 73, 77
1, 1566963, Note_on_c, 0, 53, 58
1, 1566963, Note_off_c, 0, 57, 62
1, 1566966, Note_on_c, 0, 61, 66
1, 1566978, Control_c, 0, 64, 69
1, 1567008, Note_off_c, 0, 61, 59
1, 1567014, Note_off_c, 0, 51, 55
1, 1567026, Note_off_c, 0, 73, 62
1, 1567039, Note_off_c, 0, 53, 57
1, 1567067, Control_c, 0, 64, 68
1, 1567082, Control_c, 0, 64, 64
1, 1567097, Control_c, 0, 64, 55
1, 1567112, Control_c, 0, 64, 0
1, 1567137, Note_on_c, 0, 73, 77
1, 1567148, Note_on_c, 0, 61, 56
1, 1567152, Note_on_c, 0, 58, 51
1, 1567157, Note_on_c, 0, 50, 48
1, 1567252, Control_c, 0, 64, 53
1, 1567267, Control_c, 0, 64, 62
1, 1567276, Note_off_c, 0, 61, 61
1, 1567282, Control_c, 0, 64, 65
1, 1567297, Control_c, 0, 64, 67
1, 1567312, Control_c, 0, 64, 70
1, 1567327, Control_c, 0, 64, 74
1, 1567332, Note_on_c, 0, 74, 70
1, 1567342, Control_c, 0, 64, 77
1, 1567348, Note_off_c, 0, 58, 63
1, 1567349, Note_on_c, 0, 62, 61
1, 1567354, Note_off_c, 0, 50, 62
1, 1567356, Control_c, 0, 64, 78
1, 1567359, Note_on_c, 0, 53, 42
1, 1567385, Note_off_c, 0, 62, 59
1, 1567386, Control_c, 0, 64, 78
1, 1567387, Note_off_c, 0, 53, 53
1, 1567415, Note_off_c, 0, 74, 60
1, 1567418, Note_off_c, 0, 73, 58
1, 1567430, Control_c, 0, 64, 78
1, 1567445, Control_c, 0, 64, 77
1, 1567460, Control_c, 0, 64, 71
1, 1567476, Control_c, 0, 64, 65
1, 1567491, Control_c, 0, 64, 52
1, 1567505, Control_c, 0, 64, 0
1, 1567550, Note_on_c, 0, 75, 71
1, 1567561, Note_on_c, 0, 48, 54
1, 1567566, Note_on_c, 0, 57, 41
1, 1567568, Note_on_c, 0, 63, 57
1, 1567639, Control_c, 0, 64, 40
1, 1567653, Control_c, 0, 64, 61
1, 1567668, Control_c, 0, 64, 65
1, 1567683, Control_c, 0, 64, 66
1, 1567697, Control_c, 0, 64, 68
1, 1567708, Note_off_c, 0, 63, 63
1, 1567712, Control_c, 0, 64, 72
1, 1567727, Control_c, 0, 64, 75
1, 1567742, Control_c, 0, 64, 76
1, 1567750, Note_off_c, 0, 75, 64
1, 1567753, Note_on_c, 0, 74, 65
1, 1567762, Note_on_c, 0, 50, 52
1, 1567770, Note_on_c, 0, 62, 57
1, 1567771, Control_c, 0, 67, 15
1, 1567786, Control_c, 0, 67, 24
1, 1567798, Note_off_c, 0, 57, 35
1, 1567801, Control_c, 0, 67, 32
1, 1567809, Note_off_c, 0, 48, 36
1, 1567816, Control_c, 0, 64, 72
1, 1567816, Control_c, 0, 67, 38
1, 1567825, Note_off_c, 0, 62, 57
1, 1567831, Control_c, 0, 64, 65
1, 1567831, Control_c, 0, 67, 43
1, 1567841, Note_off_c, 0, 74, 62
1, 1567846, Control_c, 0, 64, 46
1, 1567846, Control_c, 0, 67, 50
1, 1567861, Control_c, 0, 64, 0
1, 1567861, Control_c, 0, 67, 55
1, 1567875, Note_off_c, 0, 50, 55
1, 1567875, Control_c, 0, 67, 61
1, 1567890, Control_c, 0, 67, 64
1, 1567905, Control_c, 0, 67, 66
1, 1567920, Control_c, 0, 67, 67
1, 1567957, Control_c, 0, 67, 67
1, 1567966, Note_on_c, 0, 73, 67
1, 1567978, Note_on_c, 0, 47, 43
1, 1567978, Note_on_c, 0, 61, 55
1, 1567981, Note_on_c, 0, 55, 43
1, 1567986, Control_c, 0, 67, 68
1, 1568016, Control_c, 0, 67, 70
1, 1568030, Control_c, 0, 67, 73
1, 1568045, Control_c, 0, 64, 26
1, 1568045, Control_c, 0, 67, 78
1, 1568060, Control_c, 0, 64, 47
1, 1568060, Control_c, 0, 67, 82
1, 1568075, Control_c, 0, 64, 53
1, 1568075, Control_c, 0, 67, 86
1, 1568090, Control_c, 0, 64, 56
1, 1568090, Control_c, 0, 67, 90
1, 1568105, Control_c, 0, 64, 60
1, 1568105, Control_c, 0, 67, 93
1, 1568120, Control_c, 0, 64, 62
1, 1568120, Control_c, 0, 67, 96
1, 1568123, Note_off_c, 0, 61, 60
1, 1568135, Control_c, 0, 64, 64
1, 1568135, Control_c, 0, 67, 98
1, 1568150, Control_c, 0, 64, 65
1, 1568150, Control_c, 0, 67, 99
1, 1568165, Control_c, 0, 64, 66
1, 1568165, Control_c, 0, 67, 99
1, 1568179, Control_c, 0, 67, 100
1, 1568192, Note_on_c, 0, 74, 53
1, 1568193, Note_on_c, 0, 50, 46
1, 1568194, Control_c, 0, 67, 102
1, 1568204, Note_off_c, 0, 55, 63
1, 1568205, Note_on_c, 0, 62, 45
1, 1568209, Control_c, 0, 67, 104
1, 1568218, Note_off_c, 0, 47, 56
1, 1568223, Control_c, 0, 67, 106
1, 1568238, Control_c, 0, 67, 110
1, 1568252, Note_off_c, 0, 62, 53
1, 1568253, Control_c, 0, 67, 114
1, 1568269, Control_c, 0, 64, 65
1, 1568269, Control_c, 0, 67, 120
1, 1568275, Note_off_c, 0, 74, 60
1, 1568284, Control_c, 0, 64, 64
1, 1568284, Control_c, 0, 67, 127
1, 1568287, Note_off_c, 0, 50, 53
1, 1568299, Control_c, 0, 64, 62
1, 1568299, Control_c, 0, 67, 127
1, 1568303, Note_off_c, 0, 73, 36
1, 1568313, Control_c, 0, 64, 59
1, 1568328, Control_c, 0, 64, 55
1, 1568343, Control_c, 0, 64, 48
1, 1568358, Control_c, 0, 64, 38
1, 1568373, Control_c, 0, 64, 21
1, 1568387, Control_c, 0, 64, 0
1, 1568454, Note_on_c, 0, 76, 56
1, 1568478, Note_on_c, 0, 45, 38
1, 1568479, Note_on_c, 0, 64, 35
1, 1568481, Note_on_c, 0, 54, 32
1, 1568624, Control_c, 0, 64, 44
1, 1568639, Control_c, 0, 64, 59
1, 1568653, Control_c, 0, 64, 62
1, 1568668, Note_off_c, 0, 64, 51
1, 1568668, Control_c, 0, 64, 63
1, 1568683, Control_c, 0, 64, 65
1, 1568705, Control_c, 0, 64, 67
1, 1568719, Control_c, 0, 64, 68
1, 1568791, Note_off_c, 0, 76, 63
1, 1568793, Note_on_c, 0, 74, 47
1, 1568814, Note_on_c, 0, 62, 38
1, 1568818, Note_on_c, 0, 50, 29
1, 1568853, Control_c, 0, 64, 68
1, 1568868, Control_c, 0, 64, 67
1, 1568883, Control_c, 0, 64, 67
1, 1568887, Note_off_c, 0, 62, 54
1, 1568898, Control_c, 0, 64, 65
1, 1568907, Note_off_c, 0, 74, 63
1, 1568913, Control_c, 0, 64, 65
1, 1568927, Control_c, 0, 64, 63
1, 1568931, Note_off_c, 0, 45, 41
1, 1568942, Control_c, 0, 64, 62
1, 1568951, Note_off_c, 0, 54, 41
1, 1568954, Note_off_c, 0, 50, 38
1, 1568957, Control_c, 0, 64, 60
1, 1568972, Control_c, 0, 64, 56
1, 1568987, Control_c, 0, 64, 36
1, 1569001, Control_c, 0, 64, 0
1, 1569300, Note_on_c, 0, 74, 59
1, 1569319, Note_on_c, 0, 62, 40
1, 1569321, Note_on_c, 0, 47, 36
1, 1569337, Note_on_c, 0, 55, 32
1, 1569417, Control_c, 0, 64, 21
1, 1569432, Control_c, 0, 64, 43
1, 1569454, Control_c, 0, 64, 52
1, 1569468, Control_c, 0, 64, 59
1, 1569483, Control_c, 0, 64, 61
1, 1569498, Control_c, 0, 64, 62
1, 1569513, Control_c, 0, 64, 62
1, 1569528, Control_c, 0, 64, 63
1, 1569538, Note_on_c, 0, 72, 64
1, 1569543, Control_c, 0, 64, 63
1, 1569545, Note_on_c, 0, 43, 53
1, 1569545, Note_off_c, 0, 47, 58
1, 1569550, Note_off_c, 0, 55, 50
1, 1569582, Note_off_c, 0, 74, 59
1, 1569634, Note_on_c, 0, 71, 63
1, 1569640, Note_off_c, 0, 62, 56
1, 1569663, Note_off_c, 0, 72, 40
1, 1569691, Control_c, 0, 64, 63
1, 1569721, Control_c, 0, 64, 61
1, 1569736, Control_c, 0, 64, 52
1, 1569750, Control_c, 0, 64, 0
1, 1569771, Note_on_c, 0, 69, 66
1, 1569795, Note_on_c, 0, 50, 43
1, 1569798, Note_on_c, 0, 60, 43
1, 1569804, Note_on_c, 0, 54, 42
1, 1569843, Note_off_c, 0, 43, 41
1, 1569849, Note_off_c, 0, 71, 36
1, 1569854, Control_c, 0, 64, 43
1, 1569870, Control_c, 0, 64, 55
1, 1569885, Control_c, 0, 64, 58
1, 1569899, Control_c, 0, 64, 58
1, 1569917, Note_off_c, 0, 69, 54
1, 1569929, Control_c, 0, 64, 59
1, 1569940, Note_off_c, 0, 54, 59
1, 1569988, Control_c, 0, 64, 59
1, 1569991, Note_on_c, 0, 52, 51
1, 1570001, Note_on_c, 0, 71, 33
1, 1570018, Control_c, 0, 64, 60
1, 1570025, Note_off_c, 0, 50, 58
1, 1570033, Control_c, 0, 64, 60
1, 1570038, Note_off_c, 0, 52, 66
1, 1570062, Control_c, 0, 64, 61
1, 1570069, Note_on_c, 0, 54, 52
1, 1570077, Note_off_c, 0, 71, 55
1, 1570081, Note_on_c, 0, 69, 63
1, 1570090, Note_off_c, 0, 60, 48
1, 1570106, Control_c, 0, 64, 58
1, 1570109, Note_off_c, 0, 54, 61
1, 1570121, Control_c, 0, 64, 45
1, 1570136, Control_c, 0, 64, 0
1, 1570183, Note_off_c, 0, 69, 61
1, 1570201, Note_on_c, 0, 67, 61
1, 1570203, Control_c, 0, 67, 121
1, 1570218, Control_c, 0, 67, 111
1, 1570218, Note_on_c, 0, 55, 52
1, 1570221, Note_on_c, 0, 43, 49
1, 1570231, Note_on_c, 0, 59, 48
1, 1570233, Control_c, 0, 67, 100
1, 1570247, Control_c, 0, 64, 32
1, 1570247, Control_c, 0, 67, 88
1, 1570262, Control_c, 0, 64, 55
1, 1570262, Control_c, 0, 67, 74
1, 1570277, Control_c, 0, 64, 61
1, 1570277, Control_c, 0, 67, 59
1, 1570291, Control_c, 0, 64, 62
1, 1570291, Control_c, 0, 67, 44
1, 1570306, Control_c, 0, 67, 34
1, 1570310, Note_off_c, 0, 67, 61
1, 1570311, Note_off_c, 0, 59, 57
1, 1570321, Control_c, 0, 67, 27
1, 1570326, Note_off_c, 0, 55, 63
1, 1570336, Control_c, 0, 64, 59
1, 1570336, Control_c, 0, 67, 25
1, 1570346, Note_off_c, 0, 43, 55
1, 1570351, Control_c, 0, 64, 48
1, 1570351, Control_c, 0, 67, 24
1, 1570365, Control_c, 0, 64, 0
1, 1570395, Control_c, 0, 67, 24
1, 1570410, Control_c, 0, 67, 25
1, 1570424, Control_c, 0, 67, 25
1, 1570454, Control_c, 0, 67, 26
1, 1570469, Note_on_c, 0, 64, 67
1, 1570469, Note_on_c, 0, 69, 76
1, 1570479, Note_on_c, 0, 60, 63
1, 1570484, Note_on_c, 0, 52, 53
1, 1570484, Control_c, 0, 67, 25
1, 1570489, Note_on_c, 0, 43, 49
1, 1570499, Control_c, 0, 67, 25
1, 1570558, Control_c, 0, 64, 57
1, 1570558, Control_c, 0, 67, 26
1, 1570573, Control_c, 0, 64, 67
1, 1570573, Control_c, 0, 67, 28
1, 1570588, Control_c, 0, 64, 71
1, 1570588, Control_c, 0, 67, 31
1, 1570603, Control_c, 0, 64, 77
1, 1570603, Control_c, 0, 67, 32
1, 1570617, Control_c, 0, 64, 85
1, 1570617, Control_c, 0, 67, 34
1, 1570632, Control_c, 0, 64, 92
1, 1570632, Control_c, 0, 67, 35
1, 1570647, Control_c, 0, 64, 99
1, 1570647, Control_c, 0, 67, 38
1, 1570663, Control_c, 0, 64, 105
1, 1570663, Control_c, 0, 67, 41
1, 1570678, Control_c, 0, 64, 107
1, 1570678, Control_c, 0, 67, 46
1, 1570692, Control_c, 0, 67, 50
1, 1570707, Control_c, 0, 67, 55
1, 1570722, Control_c, 0, 67, 57
1, 1570737, Control_c, 0, 67, 60
1, 1570745, Note_off_c, 0, 64, 63
1, 1570752, Control_c, 0, 67, 62
1, 1570767, Control_c, 0, 67, 65
1, 1570767, Note_off_c, 0, 52, 58
1, 1570775, Note_off_c, 0, 60, 55
1, 1570776, Note_off_c, 0, 69, 61
1, 1570782, Note_off_c, 0, 43, 40
1, 1570782, Control_c, 0, 67, 70
1, 1570796, Control_c, 0, 67, 76
1, 1570811, Control_c, 0, 67, 82
1, 1570826, Control_c, 0, 67, 87
1, 1570840, Control_c, 0, 67, 92
1, 1570855, Control_c, 0, 67, 97
1, 1570870, Control_c, 0, 67, 102
1, 1570873, Note_on_c, 0, 51, 64
1, 1570879, Note_on_c, 0, 69, 63
1, 1570881, Note_on_c, 0, 60, 57
1, 1570885, Control_c, 0, 64, 106
1, 1570885, Control_c, 0, 67, 106
1, 1570886, Note_on_c, 0, 63, 54
1, 1570893, Note_on_c, 0, 43, 43
1, 1570900, Control_c, 0, 64, 103
1, 1570900, Control_c, 0, 67, 110
1, 1570903, Note_off_c, 0, 69, 59
1, 1570904, Note_off_c, 0, 51, 64
1, 1570909, Note_off_c, 0, 63, 59
1, 1570914, Control_c, 0, 64, 97
1, 1570914, Control_c, 0, 67, 111
1, 1570915, Note_off_c, 0, 60, 57
1, 1570925, Note_off_c, 0, 43, 49
1, 1570929, Control_c, 0, 64, 92
1, 1570929, Control_c, 0, 67, 112
1, 1570951, Control_c, 0, 64, 88
1, 1570951, Control_c, 0, 67, 113
1, 1570966, Control_c, 0, 64, 85
1, 1570966, Control_c, 0, 67, 114
1, 1570975, Note_on_c, 0, 69, 68
1, 1570976, Note_on_c, 0, 51, 72
1, 1570981, Control_c, 0, 64, 81
1, 1570981, Control_c, 0, 67, 115
1, 1570991, Note_on_c, 0, 63, 57
1, 1570992, Note_on_c, 0, 60, 45
1, 1570995, Control_c, 0, 64, 78
1, 1570995, Control_c, 0, 67, 117
1, 1570997, Note_on_c, 0, 43, 25
1, 1570998, Note_off_c, 0, 69, 59
1, 1571002, Note_off_c, 0, 51, 65
1, 1571008, Note_off_c, 0, 63, 64
1, 1571010, Control_c, 0, 64, 75
1, 1571010, Control_c, 0, 67, 120
1, 1571025, Control_c, 0, 64, 71
1, 1571025, Control_c, 0, 67, 124
1, 1571039, Control_c, 0, 64, 67
1, 1571039, Control_c, 0, 67, 127
1, 1571049, Note_off_c, 0, 43, 0
1, 1571051, Note_off_c, 0, 60, 0
1, 1571054, Control_c, 0, 64, 63
1, 1571058, Note_on_c, 0, 51, 70
1, 1571062, Note_on_c, 0, 43, 43
1, 1571062, Note_on_c, 0, 60, 51
1, 1571064, Note_on_c, 0, 69, 66
1, 1571065, Note_on_c, 0, 63, 69
1, 1571069, Control_c, 0, 64, 60
1, 1571080, Note_off_c, 0, 69, 67
1, 1571084, Control_c, 0, 64, 56
1, 1571095, Note_off_c, 0, 63, 62
1, 1571098, Note_off_c, 0, 51, 56
1, 1571098, Note_off_c, 0, 43, 63
1, 1571099, Control_c, 0, 64, 49
1, 1571106, Note_off_c, 0, 60, 62
1, 1571113, Control_c, 0, 64, 37
1, 1571128, Control_c, 0, 64, 0
1, 1571206, Note_on_c, 0, 67, 65
1, 1571209, Note_on_c, 0, 59, 55
1, 1571223, Note_on_c, 0, 43, 36
1, 1571223, Note_on_c, 0, 50, 41
1, 1571410, Control_c, 0, 64, 32
1, 1571425, Control_c, 0, 64, 52
1, 1571439, Control_c, 0, 64, 60
1, 1571444, Note_off_c, 0, 50, 50
1, 1571453, Note_on_c, 0, 62, 56
1, 1571454, Control_c, 0, 64, 62
1, 1571466, Note_off_c, 0, 59, 56
1, 1571470, Control_c, 0, 64, 64
1, 1571470, Note_off_c, 0, 67, 56
1, 1571482, Note_on_c, 0, 55, 43
1, 1571485, Control_c, 0, 64, 64
1, 1571500, Control_c, 0, 64, 65
1, 1571506, Note_off_c, 0, 62, 61
1, 1571512, Note_off_c, 0, 43, 55
1, 1571515, Control_c, 0, 64, 65
1, 1571527, Note_off_c, 0, 55, 64
1, 1571559, Control_c, 0, 64, 65
1, 1571574, Control_c, 0, 64, 62
1, 1571589, Control_c, 0, 64, 51
1, 1571604, Control_c, 0, 64, 0
1, 1571750, Note_on_c, 0, 76, 69
1, 1571757, Note_on_c, 0, 66, 51
1, 1571782, Note_on_c, 0, 60, 39
1, 1571793, Note_on_c, 0, 55, 30
1, 1571939, Note_off_c, 0, 76, 62
1, 1571943, Note_on_c, 0, 74, 62
1, 1572021, Note_off_c, 0, 74, 63
1, 1572033, Note_on_c, 0, 73, 66
1, 1572067, Note_off_c, 0, 66, 31
1, 1572133, Note_off_c, 0, 60, 50
1, 1572142, Note_on_c, 0, 74, 63
1, 1572144, Note_off_c, 0, 73, 53
1, 1572169, Note_on_c, 0, 59, 42
1, 1572180, Note_on_c, 0, 67, 47
1, 1572248, Control_c, 0, 64, 31
1, 1572263, Control_c, 0, 64, 61
1, 1572278, Control_c, 0, 64, 66
1, 1572293, Control_c, 0, 64, 68
1, 1572308, Control_c, 0, 64, 71
1, 1572314, Note_off_c, 0, 67, 61
1, 1572320, Note_off_c, 0, 59, 52
1, 1572323, Control_c, 0, 64, 77
1, 1572325, Note_off_c, 0, 55, 58
1, 1572332, Note_on_c, 0, 71, 56
1, 1572338, Control_c, 0, 64, 82
1, 1572346, Note_on_c, 0, 62, 50
1, 1572353, Control_c, 0, 64, 83
1, 1572371, Note_off_c, 0, 62, 58
1, 1572382, Control_c, 0, 64, 82
1, 1572385, Note_off_c, 0, 71, 63
1, 1572385, Note_off_c, 0, 74, 56
1, 1572397, Control_c, 0, 64, 79
1, 1572412, Control_c, 0, 64, 73
1, 1572427, Control_c, 0, 64, 66
1, 1572449, Control_c, 0, 64, 62
1, 1572464, Control_c, 0, 64, 57
1, 1572479, Control_c, 0, 64, 51
1, 1572493, Control_c, 0, 64, 46
1, 1572508, Control_c, 0, 64, 39
1, 1572523, Control_c, 0, 64, 24
1, 1572538, Control_c, 0, 64, 0
1, 1572588, Note_on_c, 0, 81, 58
1, 1572608, Note_on_c, 0, 72, 40
1, 1572613, Note_on_c, 0, 62, 18
1, 1572629, Note_on_c, 0, 66, 39
1, 1572805, Note_off_c, 0, 66, 63
1, 1572830, Note_off_c, 0, 81, 60
1, 1572845, Note_on_c, 0, 64, 52
1, 1572848, Note_on_c, 0, 83, 40
1, 1572862, Note_off_c, 0, 62, 41
1, 1572905, Note_off_c, 0, 72, 53
1, 1572915, Note_off_c, 0, 64, 62
1, 1572931, Note_off_c, 0, 83, 45
1, 1572932, Note_on_c, 0, 81, 58
1, 1572946, Note_on_c, 0, 66, 47
1, 1573003, Note_off_c, 0, 66, 55
1, 1573022, Note_off_c, 0, 81, 54
1, 1573067, Note_on_c, 0, 79, 40
1, 1573071, Note_on_c, 0, 67, 43
1, 1573098, Note_on_c, 0, 71, 42
1, 1573102, Control_c, 0, 64, 40
1, 1573116, Control_c, 0, 64, 53
1, 1573118, Note_off_c, 0, 79, 62
1, 1573131, Control_c, 0, 64, 58
1, 1573139, Note_off_c, 0, 67, 62
1, 1573146, Control_c, 0, 64, 62
1, 1573154, Note_off_c, 0, 71, 61
1, 1573161, Control_c, 0, 64, 64
1, 1573176, Control_c, 0, 64, 66
1, 1573198, Control_c, 0, 64, 68
1, 1573213, Control_c, 0, 64, 69
1, 1573242, Control_c, 0, 64, 68
1, 1573257, Control_c, 0, 64, 64
1, 1573272, Control_c, 0, 64, 45
1, 1573287, Control_c, 0, 64, 0
1, 1573386, Note_on_c, 0, 69, 81
1, 1573389, Note_on_c, 0, 64, 71
1, 1573394, Note_on_c, 0, 60, 70
1, 1573405, Note_on_c, 0, 43, 45
1, 1573409, Note_on_c, 0, 52, 63
1, 1573435, Control_c, 0, 64, 57
1, 1573450, Control_c, 0, 64, 68
1, 1573465, Control_c, 0, 64, 76
1, 1573480, Control_c, 0, 64, 85
1, 1573494, Control_c, 0, 64, 94
1, 1573509, Control_c, 0, 64, 115
1, 1573524, Control_c, 0, 64, 127
1, 1573664, Note_off_c, 0, 64, 61
1, 1573702, Note_off_c, 0, 52, 60
1, 1573724, Note_off_c, 0, 43, 39
1, 1573727, Note_off_c, 0, 69, 60
1, 1573736, Note_off_c, 0, 60, 55
1, 1573831, Note_on_c, 0, 51, 62
1, 1573833, Note_on_c, 0, 43, 48
1, 1573835, Note_on_c, 0, 69, 63
1, 1573839, Note_on_c, 0, 60, 59
1, 1573839, Note_on_c, 0, 63, 55
1, 1573863, Note_off_c, 0, 51, 64
1, 1573867, Note_off_c, 0, 63, 56
1, 1573871, Note_off_c, 0, 69, 61
1, 1573879, Note_off_c, 0, 60, 55
1, 1573880, Control_c, 0, 64, 104
1, 1573895, Control_c, 0, 64, 83
1, 1573910, Control_c, 0, 64, 70
1, 1573918, Note_off_c, 0, 43, 0
1, 1573921, Note_on_c, 0, 69, 59
1, 1573925, Control_c, 0, 64, 61
1, 1573934, Note_on_c, 0, 60, 49
1, 1573938, Note_on_c, 0, 51, 68
1, 1573941, Note_on_c, 0, 43, 30
1, 1573946, Note_on_c, 0, 63, 62
1, 1573947, Control_c, 0, 64, 41
1, 1573962, Control_c, 0, 64, 0
1, 1573965, Note_off_c, 0, 51, 61
1, 1573972, Note_off_c, 0, 63, 66
1, 1573979, Note_off_c, 0, 69, 63
1, 1573996, Note_off_c, 0, 60, 0
1, 1574003, Note_off_c, 0, 43, 0
1, 1574016, Note_on_c, 0, 43, 42
1, 1574021, Note_on_c, 0, 69, 52
1, 1574024, Note_on_c, 0, 51, 64
1, 1574025, Note_on_c, 0, 63, 74
1, 1574033, Poly_aftertouch_c, 0, 60, 127
1, 1574052, Note_off_c, 0, 69, 66
1, 1574059, Note_off_c, 0, 43, 60
1, 1574060, Note_off_c, 0, 51, 61
1, 1574072, Note_off_c, 0, 63, 60
1, 1574077, Poly_aftertouch_c, 0, 60, 0
1, 1574168, Note_on_c, 0, 67, 58
1, 1574174, Note_on_c, 0, 59, 54
1, 1574182, Note_on_c, 0, 43, 48
1, 1574198, Note_on_c, 0, 50, 41
1, 1574398, Note_off_c, 0, 50, 54
1, 1574401, Note_on_c, 0, 62, 56
1, 1574414, Note_off_c, 0, 59, 59
1, 1574421, Note_off_c, 0, 67, 57
1, 1574425, Note_on_c, 0, 55, 38
1, 1574432, Note_off_c, 0, 43, 55
1, 1574441, Note_off_c, 0, 62, 61
1, 1574463, Note_off_c, 0, 55, 64
1, 1574672, Note_on_c, 0, 76, 72
1, 1574696, Note_on_c, 0, 55, 40
1, 1574704, Note_on_c, 0, 66, 49
1, 1574707, Note_on_c, 0, 60, 42
1, 1574800, Control_c, 0, 67, 127
1, 1574815, Control_c, 0, 67, 121
1, 1574830, Control_c, 0, 67, 116
1, 1574844, Control_c, 0, 67, 111
1, 1574859, Control_c, 0, 67, 107
1, 1574874, Note_off_c, 0, 76, 63
1, 1574874, Control_c, 0, 67, 105
1, 1574888, Control_c, 0, 67, 102
1, 1574889, Note_on_c, 0, 74, 58
1, 1574903, Control_c, 0, 67, 98
1, 1574918, Control_c, 0, 67, 95
1, 1574933, Control_c, 0, 67, 94
1, 1574948, Control_c, 0, 67, 93
1, 1574962, Control_c, 0, 67, 93
1, 1574968, Note_off_c, 0, 74, 62
1, 1574976, Note_on_c, 0, 73, 64
1, 1574977, Control_c, 0, 67, 92
1, 1575006, Control_c, 0, 67, 91
1, 1575015, Note_off_c, 0, 66, 44
1, 1575080, Control_c, 0, 67, 91
1, 1575082, Note_off_c, 0, 60, 35
1, 1575088, Note_on_c, 0, 74, 62
1, 1575110, Control_c, 0, 67, 92
1, 1575116, Note_on_c, 0, 59, 37
1, 1575124, Note_on_c, 0, 67, 49
1, 1575125, Control_c, 0, 67, 92
1, 1575140, Control_c, 0, 67, 93
1, 1575155, Control_c, 0, 67, 94
1, 1575170, Control_c, 0, 67, 94
1, 1575185, Control_c, 0, 64, 17
1, 1575185, Control_c, 0, 67, 95
1, 1575200, Control_c, 0, 64, 58
1, 1575200, Control_c, 0, 67, 96
1, 1575211, Note_off_c, 0, 73, 19
1, 1575214, Control_c, 0, 64, 63
1, 1575214, Control_c, 0, 67, 98
1, 1575229, Control_c, 0, 64, 65
1, 1575229, Control_c, 0, 67, 99
1, 1575244, Control_c, 0, 64, 67
1, 1575244, Control_c, 0, 67, 101
1, 1575259, Control_c, 0, 64, 69
1, 1575259, Control_c, 0, 67, 102
1, 1575274, Control_c, 0, 64, 72
1, 1575274, Control_c, 0, 67, 103
1, 1575278, Note_off_c, 0, 55, 64
1, 1575282, Note_off_c, 0, 67, 58
1, 1575288, Control_c, 0, 64, 72
1, 1575288, Control_c, 0, 67, 104
1, 1575292, Note_on_c, 0, 71, 50
1, 1575294, Note_off_c, 0, 59, 41
1, 1575303, Control_c, 0, 67, 106
1, 1575310, Note_on_c, 0, 62, 44
1, 1575318, Control_c, 0, 67, 109
1, 1575333, Control_c, 0, 67, 111
1, 1575340, Note_off_c, 0, 62, 57
1, 1575348, Control_c, 0, 67, 115
1, 1575354, Note_off_c, 0, 71, 64
1, 1575362, Control_c, 0, 67, 119
1, 1575377, Control_c, 0, 67, 123
1, 1575378, Note_off_c, 0, 74, 37
1, 1575392, Control_c, 0, 64, 70
1, 1575392, Control_c, 0, 67, 127
1, 1575406, Control_c, 0, 64, 67
1, 1575421, Control_c, 0, 64, 64
1, 1575444, Control_c, 0, 64, 61
1, 1575459, Control_c, 0, 64, 56
1, 1575474, Control_c, 0, 64, 51
1, 1575489, Control_c, 0, 64, 46
1, 1575504, Control_c, 0, 64, 41
1, 1575519, Control_c, 0, 64, 35
1, 1575533, Control_c, 0, 64, 26
1, 1575548, Control_c, 0, 64, 12
1, 1575563, Control_c, 0, 64, 0
1, 1575577, Note_on_c, 0, 81, 60
1, 1575593, Note_on_c, 0, 72, 45
1, 1575596, Note_on_c, 0, 66, 43
1, 1575603, Note_on_c, 0, 62, 27
1, 1575801, Note_off_c, 0, 66, 64
1, 1575816, Note_off_c, 0, 81, 61
1, 1575832, Note_on_c, 0, 83, 52
1, 1575840, Note_on_c, 0, 64, 47
1, 1575900, Note_off_c, 0, 62, 41
1, 1575924, Note_off_c, 0, 64, 62
1, 1575924, Note_off_c, 0, 72, 57
1, 1575927, Note_off_c, 0, 83, 51
1, 1575932, Note_on_c, 0, 81, 60
1, 1575935, Note_on_c, 0, 66, 55
1, 1576012, Note_off_c, 0, 66, 63
1, 1576015, Note_off_c, 0, 81, 56
1, 1576034, Note_on_c, 0, 79, 49
1, 1576037, Note_on_c, 0, 67, 60
1, 1576090, Note_on_c, 0, 71, 12
1, 1576097, Note_off_c, 0, 67, 59
1, 1576122, Note_off_c, 0, 79, 59
1, 1576130, Note_off_c, 0, 71, 42
1, 1576246, Note_on_c, 0, 74, 55
1, 1576263, Note_on_c, 0, 62, 59
1, 1576266, Note_on_c, 0, 71, 47
1, 1576327, Note_off_c, 0, 74, 61
1, 1576337, Note_on_c, 0, 79, 60
1, 1576425, Note_off_c, 0, 79, 58
1, 1576445, Note_on_c, 0, 76, 61
1, 1576448, Note_on_c, 0, 72, 55
1, 1576469, Note_off_c, 0, 71, 56
1, 1576516, Note_off_c, 0, 72, 63
1, 1576524, Note_on_c, 0, 81, 65
1, 1576531, Note_off_c, 0, 62, 39
1, 1576534, Note_off_c, 0, 76, 61
1, 1576615, Note_on_c, 0, 78, 68
1, 1576639, Note_on_c, 0, 74, 51
1, 1576640, Note_on_c, 0, 62, 54
1, 1576686, Note_off_c, 0, 78, 63
1, 1576706, Note_off_c, 0, 81, 24
1, 1576712, Note_on_c, 0, 84, 55
1, 1576791, Note_off_c, 0, 84, 63
1, 1576806, Note_on_c, 0, 79, 62
1, 1576845, Note_off_c, 0, 62, 53
1, 1576848, Note_off_c, 0, 74, 62
1, 1576888, Note_on_c, 0, 83, 56
1, 1576890, Note_off_c, 0, 79, 53
1, 1576976, Note_on_c, 0, 74, 55
1, 1576977, Note_on_c, 0, 62, 54
1, 1576979, Note_on_c, 0, 71, 52
1, 1576988, Note_off_c, 0, 83, 51
1, 1577047, Note_off_c, 0, 74, 62
1, 1577053, Note_on_c, 0, 79, 65
1, 1577137, Note_off_c, 0, 79, 58
1, 1577146, Note_off_c, 0, 71, 58
1, 1577156, Note_on_c, 0, 76, 64
1, 1577159, Note_on_c, 0, 72, 57
1, 1577184, Note_off_c, 0, 62, 55
1, 1577202, Note_off_c, 0, 72, 63
1, 1577232, Note_on_c, 0, 81, 59
1, 1577233, Note_off_c, 0, 76, 61
1, 1577283, Control_c, 0, 64, 8
1, 1577310, Note_off_c, 0, 81, 54
1, 1577319, Note_on_c, 0, 78, 66
1, 1577328, Control_c, 0, 64, 10
1, 1577330, Note_on_c, 0, 62, 42
1, 1577336, Note_on_c, 0, 74, 47
1, 1577343, Control_c, 0, 64, 12
1, 1577372, Control_c, 0, 64, 14
1, 1577391, Note_off_c, 0, 78, 63
1, 1577409, Note_on_c, 0, 84, 56
1, 1577416, Control_c, 0, 64, 15
1, 1577475, Control_c, 0, 64, 14
1, 1577492, Note_off_c, 0, 84, 62
1, 1577497, Note_on_c, 0, 79, 58
1, 1577512, Note_on_c, 0, 67, 43
1, 1577534, Note_off_c, 0, 74, 56
1, 1577535, Control_c, 0, 64, 12
1, 1577553, Note_off_c, 0, 62, 34
1, 1577564, Control_c, 0, 64, 10
1, 1577579, Control_c, 0, 64, 8
1, 1577584, Note_on_c, 0, 83, 55
1, 1577605, Note_off_c, 0, 79, 51
1, 1577608, Note_off_c, 0, 67, 61
1, 1577608, Control_c, 0, 64, 0
1, 1577654, Note_off_c, 0, 83, 61
1, 1577667, Note_on_c, 0, 77, 63
1, 1577678, Note_on_c, 0, 74, 64
1, 1577740, Note_off_c, 0, 77, 56
1, 1577751, Note_on_c, 0, 81, 71
1, 1577811, Note_off_c, 0, 81, 61
1, 1577847, Note_on_c, 0, 76, 63
1, 1577851, Note_on_c, 0, 71, 63
1, 1577913, Note_on_c, 0, 79, 60
1, 1577913, Control_c, 0, 64, 8
1, 1577943, Control_c, 0, 64, 10
1, 1577945, Note_off_c, 0, 74, 44
1, 1577951, Note_off_c, 0, 76, 46
1, 1577999, Note_off_c, 0, 79, 61
1, 1578002, Note_on_c, 0, 67, 61
1, 1578004, Note_on_c, 0, 75, 68
1, 1578019, Note_off_c, 0, 71, 55
1, 1578075, Note_on_c, 0, 78, 63
1, 1578075, Note_off_c, 0, 75, 56
1, 1578153, Note_off_c, 0, 67, 60
1, 1578154, Note_off_c, 0, 78, 60
1, 1578167, Note_on_c, 0, 76, 62
1, 1578180, Note_on_c, 0, 72, 56
1, 1578210, Control_c, 0, 64, 8
1, 1578234, Note_off_c, 0, 76, 62
1, 1578244, Note_on_c, 0, 79, 60
1, 1578264, Note_off_c, 0, 72, 59
1, 1578284, Control_c, 0, 64, 0
1, 1578311, Note_off_c, 0, 79, 61
1, 1578330, Note_on_c, 0, 72, 58
1, 1578342, Note_on_c, 0, 69, 55
1, 1578411, Note_off_c, 0, 72, 60
1, 1578418, Note_on_c, 0, 76, 60
1, 1578482, Note_off_c, 0, 76, 65
1, 1578501, Note_off_c, 0, 69, 61
1, 1578512, Note_on_c, 0, 71, 60
1, 1578518, Note_on_c, 0, 66, 52
1, 1578589, Note_on_c, 0, 74, 61
1, 1578595, Note_off_c, 0, 71, 52
1, 1578630, Note_off_c, 0, 66, 63
1, 1578667, Note_off_c, 0, 74, 63
1, 1578680, Note_on_c, 0, 62, 47
1, 1578684, Note_on_c, 0, 69, 55
1, 1578722, Control_c, 0, 64, 8
1, 1578731, Note_off_c, 0, 62, 59
1, 1578759, Note_on_c, 0, 72, 62
1, 1578771, Note_off_c, 0, 69, 58
1, 1578795, Control_c, 0, 64, 10
1, 1578833, Note_off_c, 0, 72, 62
1, 1578843, Note_on_c, 0, 67, 55
1, 1578854, Control_c, 0, 64, 8
1, 1578869, Control_c, 0, 64, 0
1, 1578914, Note_off_c, 0, 67, 60
1, 1578918, Note_on_c, 0, 71, 59
1, 1578953, Note_off_c, 0, 71, 60
1, 1579023, Note_on_c, 0, 62, 63
1, 1579027, Note_on_c, 0, 50, 53
1, 1579035, Note_on_c, 0, 59, 50
1, 1579077, Control_c, 0, 64, 26
1, 1579092, Control_c, 0, 64, 42
1, 1579099, Note_off_c, 0, 62, 57
1, 1579107, Note_on_c, 0, 67, 63
1, 1579107, Control_c, 0, 64, 53
1, 1579121, Control_c, 0, 64, 58
1, 1579136, Control_c, 0, 64, 59
1, 1579188, Control_c, 0, 64, 59
1, 1579203, Control_c, 0, 64, 56
1, 1579208, Note_off_c, 0, 67, 60
1, 1579213, Note_on_c, 0, 64, 64
1, 1579218, Control_c, 0, 64, 42
1, 1579232, Note_on_c, 0, 60, 52
1, 1579233, Control_c, 0, 64, 0
1, 1579276, Note_off_c, 0, 50, 59
1, 1579277, Note_off_c, 0, 59, 39
1, 1579289, Note_off_c, 0, 60, 60
1, 1579298, Note_on_c, 0, 69, 59
1, 1579311, Note_off_c, 0, 64, 57
1, 1579397, Note_on_c, 0, 66, 60
1, 1579418, Note_on_c, 0, 62, 50
1, 1579426, Note_on_c, 0, 50, 46
1, 1579465, Note_off_c, 0, 66, 64
1, 1579473, Note_off_c, 0, 69, 26
1, 1579487, Note_on_c, 0, 72, 51
1, 1579563, Note_off_c, 0, 72, 63
1, 1579577, Note_on_c, 0, 67, 57
1, 1579642, Note_off_c, 0, 62, 56
1, 1579649, Note_off_c, 0, 50, 43
1, 1579663, Note_off_c, 0, 67, 52
1, 1579665, Note_on_c, 0, 71, 48
1, 1579744, Note_on_c, 0, 62, 54
1, 1579750, Note_on_c, 0, 59, 47
1, 1579754, Note_on_c, 0, 50, 58
1, 1579768, Note_off_c, 0, 71, 54
1, 1579792, Note_off_c, 0, 62, 52
1, 1579813, Note_on_c, 0, 67, 59
1, 1579900, Note_off_c, 0, 67, 60
1, 1579912, Note_on_c, 0, 64, 58
1, 1579927, Note_off_c, 0, 59, 58
1, 1579931, Note_on_c, 0, 60, 50
1, 1579941, Note_off_c, 0, 50, 56
1, 1579964, Note_off_c, 0, 60, 64
1, 1579992, Note_on_c, 0, 69, 56
1, 1579998, Note_off_c, 0, 64, 60
1, 1580026, Control_c, 0, 64, 10
1, 1580041, Control_c, 0, 64, 17
1, 1580055, Control_c, 0, 64, 22
1, 1580070, Control_c, 0, 64, 24
1, 1580085, Control_c, 0, 64, 26
1, 1580086, Note_on_c, 0, 66, 59
1, 1580092, Note_on_c, 0, 62, 53
1, 1580100, Control_c, 0, 64, 28
1, 1580101, Note_on_c, 0, 50, 44
1, 1580129, Control_c, 0, 64, 28
1, 1580144, Control_c, 0, 64, 29
1, 1580148, Note_off_c, 0, 66, 63
1, 1580173, Note_on_c, 0, 72, 51
1, 1580191, Note_off_c, 0, 69, 31
1, 1580233, Control_c, 0, 64, 28
1, 1580249, Note_off_c, 0, 72, 63
1, 1580249, Control_c, 0, 64, 28
1, 1580264, Control_c, 0, 64, 27
1, 1580270, Note_on_c, 0, 67, 56
1, 1580276, Note_on_c, 0, 55, 47
1, 1580279, Control_c, 0, 64, 26
1, 1580294, Control_c, 0, 64, 26
1, 1580294, Note_off_c, 0, 62, 51
1, 1580306, Note_off_c, 0, 50, 40
1, 1580308, Control_c, 0, 64, 25
1, 1580338, Control_c, 0, 64, 24
1, 1580350, Note_off_c, 0, 55, 64
1, 1580351, Note_on_c, 0, 71, 52
1, 1580365, Note_off_c, 0, 67, 46
1, 1580368, Control_c, 0, 64, 23
1, 1580416, Note_off_c, 0, 71, 61
1, 1580423, Note_on_c, 0, 65, 57
1, 1580438, Note_on_c, 0, 62, 62
1, 1580489, Note_off_c, 0, 65, 58
1, 1580503, Note_on_c, 0, 69, 65
1, 1580556, Note_off_c, 0, 69, 65
1, 1580589, Note_on_c, 0, 64, 60
1, 1580598, Note_on_c, 0, 59, 60
1, 1580604, Control_c, 0, 64, 24
1, 1580634, Control_c, 0, 64, 25
1, 1580645, Note_off_c, 0, 62, 37
1, 1580651, Note_on_c, 0, 67, 65
1, 1580686, Control_c, 0, 64, 26
1, 1580722, Note_off_c, 0, 64, 52
1, 1580747, Note_off_c, 0, 67, 61
1, 1580753, Note_on_c, 0, 63, 68
1, 1580754, Note_off_c, 0, 59, 58
1, 1580762, Note_on_c, 0, 55, 50
1, 1580804, Control_c, 0, 64, 26
1, 1580828, Note_on_c, 0, 66, 62
1, 1580833, Note_off_c, 0, 63, 50
1, 1580848, Control_c, 0, 64, 27
1, 1580893, Note_off_c, 0, 55, 62
1, 1580914, Note_off_c, 0, 66, 60
1, 1580917, Note_on_c, 0, 64, 63
1, 1580929, Note_on_c, 0, 60, 50
1, 1580938, Control_c, 0, 64, 26
1, 1580967, Control_c, 0, 64, 26
1, 1580995, Note_off_c, 0, 64, 61
1, 1581012, Control_c, 0, 64, 25
1, 1581014, Note_on_c, 0, 67, 53
1, 1581024, Note_off_c, 0, 60, 55
1, 1581081, Note_off_c, 0, 67, 61
1, 1581086, Note_on_c, 0, 57, 52
1, 1581087, Control_c, 0, 64, 24
1, 1581096, Note_on_c, 0, 60, 46
1, 1581117, Control_c, 0, 64, 23
1, 1581146, Control_c, 0, 64, 23
1, 1581174, Note_off_c, 0, 60, 55
1, 1581188, Note_on_c, 0, 64, 58
1, 1581240, Note_off_c, 0, 57, 56
1, 1581247, Note_off_c, 0, 64, 64
1, 1581253, Note_on_c, 0, 54, 46
1, 1581289, Note_on_c, 0, 59, 53
1, 1581373, Note_on_c, 0, 62, 50
1, 1581406, Note_off_c, 0, 59, 46
1, 1581406, Note_off_c, 0, 54, 54
1, 1581436, Note_on_c, 0, 50, 37
1, 1581453, Note_off_c, 0, 62, 58
1, 1581464, Note_on_c, 0, 57, 56
1, 1581479, Control_c, 0, 64, 22
1, 1581531, Note_off_c, 0, 50, 59
1, 1581553, Note_off_c, 0, 57, 57
1, 1581555, Note_on_c, 0, 60, 53
1, 1581568, Control_c, 0, 64, 21
1, 1581582, Control_c, 0, 64, 19
1, 1581597, Control_c, 0, 64, 18
1, 1581612, Control_c, 0, 64, 14
1, 1581627, Control_c, 0, 64, 10
1, 1581630, Note_off_c, 0, 60, 59
1, 1581642, Control_c, 0, 64, 0
1, 1581646, Note_on_c, 0, 55, 44
1, 1581748, Note_off_c, 0, 55, 59
1, 1581751, Note_on_c, 0, 59, 49
1, 1581820, Control_c, 0, 64, 28
1, 1581835, Control_c, 0, 64, 47
1, 1581850, Note_off_c, 0, 59, 56
1, 1581850, Control_c, 0, 64, 52
1, 1581852, Note_on_c, 0, 50, 32
1, 1581853, Note_on_c, 0, 43, 37
1, 1581854, Note_on_c, 0, 60, 50
1, 1581865, Control_c, 0, 64, 55
1, 1581880, Control_c, 0, 64, 58
1, 1581895, Control_c, 0, 64, 62
1, 1581910, Control_c, 0, 64, 63
1, 1581924, Control_c, 0, 64, 65
1, 1581936, Note_off_c, 0, 60, 59
1, 1581939, Control_c, 0, 64, 67
1, 1581947, Note_on_c, 0, 64, 43
1, 1581954, Control_c, 0, 64, 69
1, 1581969, Control_c, 0, 64, 70
1, 1581980, Note_off_c, 0, 64, 58
1, 1581984, Control_c, 0, 64, 71
1, 1582020, Note_on_c, 0, 59, 52
1, 1582085, Note_off_c, 0, 59, 54
1, 1582110, Note_on_c, 0, 62, 50
1, 1582196, Note_on_c, 0, 66, 65
1, 1582198, Note_off_c, 0, 62, 51
1, 1582261, Note_off_c, 0, 66, 66
1, 1582286, Note_on_c, 0, 72, 47
1, 1582336, Note_off_c, 0, 72, 62
1, 1582361, Note_on_c, 0, 67, 64
1, 1582433, Note_off_c, 0, 50, 52
1, 1582443, Note_off_c, 0, 43, 40
1, 1582449, Note_on_c, 0, 71, 59
1, 1582476, Note_off_c, 0, 67, 36
1, 1582535, Note_on_c, 0, 72, 63
1, 1582541, Note_off_c, 0, 71, 57
1, 1582547, Note_on_c, 0, 50, 44
1, 1582556, Note_on_c, 0, 43, 49
1, 1582616, Note_off_c, 0, 72, 61
1, 1582624, Note_on_c, 0, 76, 57
1, 1582665, Note_off_c, 0, 76, 57
1, 1582709, Note_on_c, 0, 71, 55
1, 1582780, Note_off_c, 0, 71, 54
1, 1582798, Note_on_c, 0, 74, 51
1, 1582872, Note_off_c, 0, 74, 64
1, 1582880, Control_c, 0, 64, 70
1, 1582884, Note_on_c, 0, 78, 61
1, 1582960, Note_off_c, 0, 78, 65
1, 1582977, Note_on_c, 0, 84, 52
1, 1583034, Note_off_c, 0, 84, 62
1, 1583064, Note_on_c, 0, 79, 63
1, 1583135, Note_off_c, 0, 43, 40
1, 1583142, Note_off_c, 0, 79, 48
1, 1583147, Note_on_c, 0, 83, 66
1, 1583147, Note_off_c, 0, 50, 41
1, 1583153, Control_c, 0, 64, 70
1, 1583229, Note_on_c, 0, 50, 49
1, 1583233, Note_off_c, 0, 83, 55
1, 1583236, Note_on_c, 0, 84, 61
1, 1583241, Note_on_c, 0, 43, 55
1, 1583272, Control_c, 0, 64, 69
1, 1583308, Note_off_c, 0, 84, 62
1, 1583312, Note_on_c, 0, 88, 64
1, 1583331, Control_c, 0, 64, 69
1, 1583358, Note_off_c, 0, 88, 59
1, 1583399, Note_on_c, 0, 83, 58
1, 1583451, Note_off_c, 0, 83, 45
1, 1583483, Note_on_c, 0, 86, 61
1, 1583558, Note_on_c, 0, 90, 76
1, 1583558, Note_off_c, 0, 86, 61
1, 1583615, Note_off_c, 0, 90, 64
1, 1583637, Note_on_c, 0, 96, 72
1, 1583730, Note_off_c, 0, 96, 60
1, 1583732, Note_on_c, 0, 95, 70
1, 1583769, Control_c, 0, 64, 68
1, 1583803, Note_off_c, 0, 43, 60
1, 1583804, Note_on_c, 0, 91, 64
1, 1583811, Note_off_c, 0, 50, 57
1, 1583815, Note_off_c, 0, 95, 58
1, 1583870, Note_off_c, 0, 91, 60
1, 1583893, Note_on_c, 0, 88, 64
1, 1583905, Note_on_c, 0, 50, 43
1, 1583919, Note_on_c, 0, 43, 47
1, 1583920, Note_off_c, 0, 88, 67
1, 1583962, Control_c, 0, 64, 68
1, 1583990, Note_on_c, 0, 84, 54
1, 1584036, Control_c, 0, 64, 67
1, 1584056, Note_off_c, 0, 84, 61
1, 1584068, Note_on_c, 0, 83, 58
1, 1584080, Control_c, 0, 64, 67
1, 1584133, Note_off_c, 0, 83, 61
1, 1584154, Control_c, 0, 64, 66
1, 1584156, Note_on_c, 0, 79, 56
1, 1584217, Note_off_c, 0, 79, 46
1, 1584238, Note_on_c, 0, 86, 61
1, 1584304, Note_off_c, 0, 86, 61
1, 1584318, Note_on_c, 0, 81, 64
1, 1584333, Control_c, 0, 64, 66
1, 1584393, Note_off_c, 0, 81, 55
1, 1584417, Note_on_c, 0, 83, 52
1, 1584448, Note_off_c, 0, 43, 47
1, 1584451, Note_off_c, 0, 50, 48
1, 1584488, Note_on_c, 0, 79, 58
1, 1584494, Note_off_c, 0, 83, 58
1, 1584551, Note_off_c, 0, 79, 61
1, 1584576, Note_on_c, 0, 43, 43
1, 1584577, Control_c, 0, 64, 65
1, 1584579, Note_on_c, 0, 50, 46
1, 1584583, Note_on_c, 0, 76, 56
1, 1584611, Note_off_c, 0, 76, 67
1, 1584670, Note_on_c, 0, 72, 56
1, 1584736, Note_off_c, 0, 72, 59
1, 1584766, Note_on_c, 0, 71, 51
1, 1584824, Note_off_c, 0, 71, 58
1, 1584853, Note_on_c, 0, 67, 50
1, 1584929, Note_on_c, 0, 74, 51
1, 1584953, Note_off_c, 0, 67, 37
1, 1584987, Note_off_c, 0, 74, 59
1, 1585010, Note_on_c, 0, 69, 58
1, 1585090, Note_off_c, 0, 69, 58
1, 1585120, Note_on_c, 0, 71, 40
1, 1585150, Note_off_c, 0, 43, 57
1, 1585159, Note_off_c, 0, 50, 47
1, 1585174, Note_off_c, 0, 71, 60
1, 1585186, Note_on_c, 0, 67, 56
1, 1585238, Note_off_c, 0, 67, 59
1, 1585274, Note_on_c, 0, 64, 53
1, 1585290, Note_on_c, 0, 43, 52
1, 1585292, Note_on_c, 0, 50, 38
1, 1585296, Control_c, 0, 64, 65
1, 1585302, Note_off_c, 0, 64, 66
1, 1585362, Note_on_c, 0, 60, 57
1, 1585420, Note_off_c, 0, 60, 54
1, 1585457, Note_on_c, 0, 59, 53
1, 1585510, Note_off_c, 0, 59, 57
1, 1585519, Control_c, 0, 64, 64
1, 1585545, Note_on_c, 0, 55, 49
1, 1585599, Note_off_c, 0, 55, 51
1, 1585622, Control_c, 0, 64, 64
1, 1585644, Note_on_c, 0, 62, 42
1, 1585690, Note_off_c, 0, 62, 46
1, 1585722, Note_on_c, 0, 57, 52
1, 1585780, Note_off_c, 0, 57, 55
1, 1585800, Note_off_c, 0, 43, 48
1, 1585811, Note_on_c, 0, 59, 53
1, 1585845, Note_off_c, 0, 50, 53
1, 1585852, Note_off_c, 0, 59, 59
1, 1585880, Note_on_c, 0, 55, 53
1, 1585927, Control_c, 0, 64, 63
1, 1585957, Control_c, 0, 64, 63
1, 1585971, Control_c, 0, 64, 62
1, 1585981, Note_off_c, 0, 55, 38
1, 1585986, Control_c, 0, 64, 60
1, 1585987, Note_on_c, 0, 42, 62
1, 1585993, Note_on_c, 0, 62, 50
1, 1586001, Control_c, 0, 64, 57
1, 1586016, Control_c, 0, 64, 50
1, 1586022, Note_off_c, 0, 42, 65
1, 1586031, Control_c, 0, 64, 42
1, 1586045, Control_c, 0, 64, 32
1, 1586050, Note_off_c, 0, 62, 52
1, 1586060, Control_c, 0, 64, 18
1, 1586075, Control_c, 0, 64, 0
1, 1586078, Note_on_c, 0, 57, 51
1, 1586148, Note_off_c, 0, 57, 57
1, 1586161, Note_on_c, 0, 43, 61
1, 1586168, Note_on_c, 0, 59, 54
1, 1586201, Note_off_c, 0, 43, 62
1, 1586211, Note_off_c, 0, 59, 59
1, 1586267, Note_on_c, 0, 55, 46
1, 1586308, Note_off_c, 0, 55, 61
1, 1586330, Note_on_c, 0, 50, 61
1, 1586352, Note_on_c, 0, 62, 54
1, 1586361, Note_off_c, 0, 50, 64
1, 1586406, Note_off_c, 0, 62, 51
1, 1586438, Note_on_c, 0, 57, 52
1, 1586503, Note_off_c, 0, 57, 55
1, 1586503, Note_on_c, 0, 55, 58
1, 1586509, Note_on_c, 0, 59, 60
1, 1586526, Note_off_c, 0, 55, 61
1, 1586584, Note_off_c, 0, 59, 59
1, 1586604, Note_on_c, 0, 55, 60
1, 1586671, Note_off_c, 0, 55, 57
1, 1586698, Note_on_c, 0, 66, 74
1, 1586718, Note_on_c, 0, 62, 48
1, 1586740, Note_off_c, 0, 66, 56
1, 1586764, Note_off_c, 0, 62, 59
1, 1586809, Note_on_c, 0, 57, 39
1, 1586859, Note_on_c, 0, 67, 70
1, 1586861, Note_off_c, 0, 57, 60
1, 1586870, Note_on_c, 0, 59, 57
1, 1586911, Note_off_c, 0, 67, 61
1, 1586917, Note_off_c, 0, 59, 56
1, 1586959, Note_on_c, 0, 55, 49
1, 1587006, Note_off_c, 0, 55, 59
1, 1587042, Note_on_c, 0, 69, 73
1, 1587055, Note_on_c, 0, 62, 56
1, 1587090, Note_off_c, 0, 69, 64
1, 1587121, Note_off_c, 0, 62, 59
1, 1587147, Note_on_c, 0, 57, 49
1, 1587211, Note_off_c, 0, 57, 59
1, 1587217, Note_on_c, 0, 74, 66
1, 1587223, Note_on_c, 0, 59, 58
1, 1587254, Note_off_c, 0, 74, 62
1, 1587266, Note_off_c, 0, 59, 57
1, 1587311, Note_on_c, 0, 55, 50
1, 1587359, Note_off_c, 0, 55, 53
1, 1587384, Note_on_c, 0, 78, 72
1, 1587416, Note_on_c, 0, 62, 53
1, 1587437, Note_off_c, 0, 78, 58
1, 1587487, Note_off_c, 0, 62, 55
1, 1587507, Note_on_c, 0, 57, 50
1, 1587563, Note_on_c, 0, 79, 73
1, 1587565, Note_off_c, 0, 57, 57
1, 1587581, Note_on_c, 0, 59, 57
1, 1587619, Note_off_c, 0, 59, 60
1, 1587621, Note_off_c, 0, 79, 61
1, 1587669, Note_on_c, 0, 55, 51
1, 1587710, Note_off_c, 0, 55, 52
1, 1587741, Note_on_c, 0, 81, 67
1, 1587757, Note_on_c, 0, 62, 60
1, 1587765, Control_c, 0, 64, 8
1, 1587780, Control_c, 0, 64, 10
1, 1587795, Note_off_c, 0, 81, 57
1, 1587825, Note_off_c, 0, 62, 60
1, 1587836, Note_on_c, 0, 57, 56
1, 1587883, Control_c, 0, 64, 14
1, 1587898, Control_c, 0, 64, 17
1, 1587908, Note_off_c, 0, 57, 59
1, 1587910, Note_on_c, 0, 86, 73
1, 1587913, Control_c, 0, 64, 18
1, 1587922, Note_on_c, 0, 59, 58
1, 1587928, Control_c, 0, 64, 19
1, 1587941, Note_off_c, 0, 86, 60
1, 1587943, Control_c, 0, 64, 20
1, 1587961, Note_off_c, 0, 59, 58
1, 1587988, Control_c, 0, 64, 21
1, 1587994, Note_on_c, 0, 55, 49
1, 1588054, Note_off_c, 0, 55, 54
1, 1588082, Note_on_c, 0, 78, 75
1, 1588094, Note_on_c, 0, 62, 51
1, 1588106, Control_c, 0, 64, 20
1, 1588134, Note_off_c, 0, 78, 64
1, 1588135, Control_c, 0, 64, 19
1, 1588164, Note_off_c, 0, 62, 55
1, 1588180, Note_on_c, 0, 57, 56
1, 1588232, Control_c, 0, 64, 20
1, 1588247, Control_c, 0, 64, 21
1, 1588252, Note_off_c, 0, 57, 60
1, 1588259, Note_on_c, 0, 79, 81
1, 1588262, Control_c, 0, 64, 22
1, 1588268, Note_on_c, 0, 59, 58
1, 1588277, Control_c, 0, 64, 23
1, 1588292, Control_c, 0, 64, 23
1, 1588300, Note_off_c, 0, 79, 60
1, 1588307, Control_c, 0, 64, 24
1, 1588308, Note_off_c, 0, 59, 57
1, 1588345, Note_on_c, 0, 55, 53
1, 1588417, Note_off_c, 0, 55, 52
1, 1588429, Note_on_c, 0, 74, 76
1, 1588448, Note_on_c, 0, 62, 54
1, 1588455, Control_c, 0, 64, 25
1, 1588474, Note_off_c, 0, 74, 61
1, 1588485, Control_c, 0, 64, 26
1, 1588520, Note_off_c, 0, 62, 56
1, 1588548, Note_on_c, 0, 57, 57
1, 1588588, Control_c, 0, 64, 27
1, 1588603, Control_c, 0, 64, 28
1, 1588611, Note_on_c, 0, 74, 75
1, 1588619, Note_off_c, 0, 57, 59
1, 1588632, Note_on_c, 0, 59, 51
1, 1588632, Control_c, 0, 64, 28
1, 1588643, Note_off_c, 0, 74, 63
1, 1588677, Control_c, 0, 64, 29
1, 1588685, Note_off_c, 0, 59, 51
1, 1588706, Control_c, 0, 64, 29
1, 1588719, Note_on_c, 0, 55, 43
1, 1588778, Note_off_c, 0, 55, 58
1, 1588786, Note_on_c, 0, 66, 61
1, 1588810, Note_on_c, 0, 62, 49
1, 1588810, Control_c, 0, 64, 29
1, 1588817, Note_off_c, 0, 66, 66
1, 1588840, Control_c, 0, 64, 28
1, 1588855, Control_c, 0, 64, 28
1, 1588862, Note_off_c, 0, 62, 54
1, 1588870, Control_c, 0, 64, 27
1, 1588884, Control_c, 0, 64, 26
1, 1588894, Note_on_c, 0, 57, 46
1, 1588899, Control_c, 0, 64, 26
1, 1588958, Note_on_c, 0, 67, 73
1, 1588978, Note_off_c, 0, 67, 70
1, 1588979, Note_on_c, 0, 59, 50
1, 1588982, Note_off_c, 0, 57, 51
1, 1589049, Note_off_c, 0, 59, 55
1, 1589070, Control_c, 0, 64, 25
1, 1589089, Note_on_c, 0, 55, 45
1, 1589100, Control_c, 0, 64, 24
1, 1589124, Note_off_c, 0, 55, 61
1, 1589130, Control_c, 0, 64, 23
1, 1589132, Note_on_c, 0, 54, 75
1, 1589144, Note_on_c, 0, 62, 64
1, 1589144, Control_c, 0, 64, 23
1, 1589175, Note_off_c, 0, 54, 58
1, 1589219, Control_c, 0, 64, 22
1, 1589228, Note_off_c, 0, 62, 59
1, 1589238, Note_on_c, 0, 57, 59
1, 1589293, Control_c, 0, 64, 23
1, 1589306, Note_on_c, 0, 55, 82
1, 1589307, Control_c, 0, 64, 24
1, 1589314, Note_off_c, 0, 57, 60
1, 1589315, Note_on_c, 0, 59, 62
1, 1589337, Control_c, 0, 64, 25
1, 1589342, Note_off_c, 0, 55, 63
1, 1589378, Note_off_c, 0, 59, 58
1, 1589396, Control_c, 0, 64, 24
1, 1589407, Note_on_c, 0, 55, 49
1, 1589411, Control_c, 0, 64, 23
1, 1589469, Note_off_c, 0, 55, 54
1, 1589470, Control_c, 0, 64, 23
1, 1589491, Note_on_c, 0, 50, 64
1, 1589504, Note_on_c, 0, 62, 52
1, 1589514, Control_c, 0, 64, 22
1, 1589519, Note_off_c, 0, 50, 65
1, 1589557, Note_off_c, 0, 62, 53
1, 1589574, Control_c, 0, 64, 21
1, 1589582, Note_on_c, 0, 57, 56
1, 1589618, Control_c, 0, 64, 22
1, 1589652, Note_off_c, 0, 57, 60
1, 1589669, Note_on_c, 0, 50, 57
1, 1589670, Control_c, 0, 64, 23
1, 1589680, Note_on_c, 0, 59, 53
1, 1589709, Note_off_c, 0, 50, 61
1, 1589724, Note_off_c, 0, 59, 56
1, 1589774, Control_c, 0, 64, 22
1, 1589785, Note_on_c, 0, 55, 10
1, 1589834, Control_c, 0, 64, 21
1, 1589836, Note_off_c, 0, 55, 48
1, 1589845, Note_on_c, 0, 42, 66
1, 1589859, Note_on_c, 0, 62, 51
1, 1589883, Note_off_c, 0, 42, 62
1, 1589921, Note_off_c, 0, 62, 48
1, 1589948, Note_on_c, 0, 57, 45
1, 1590024, Note_off_c, 0, 57, 50
1, 1590033, Note_on_c, 0, 43, 73
1, 1590042, Note_on_c, 0, 59, 54
1, 1590056, Control_c, 0, 64, 22
1, 1590065, Note_off_c, 0, 43, 62
1, 1590098, Note_off_c, 0, 59, 53
1, 1590116, Control_c, 0, 64, 21
1, 1590130, Control_c, 0, 64, 19
1, 1590138, Note_on_c, 0, 55, 42
1, 1590145, Control_c, 0, 64, 17
1, 1590160, Control_c, 0, 64, 14
1, 1590175, Control_c, 0, 64, 12
1, 1590205, Note_off_c, 0, 55, 52
1, 1590228, Note_on_c, 0, 38, 59
1, 1590241, Note_on_c, 0, 62, 47
1, 1590263, Note_off_c, 0, 38, 64
1, 1590294, Note_off_c, 0, 62, 53
1, 1590323, Control_c, 0, 64, 10
1, 1590328, Note_on_c, 0, 57, 50
1, 1590411, Note_off_c, 0, 57, 49
1, 1590437, Note_on_c, 0, 38, 50
1, 1590445, Note_on_c, 0, 59, 47
1, 1590477, Note_off_c, 0, 38, 57
1, 1590493, Control_c, 0, 64, 8
1, 1590507, Note_off_c, 0, 59, 53
1, 1590508, Control_c, 0, 64, 0
1, 1590536, Note_on_c, 0, 55, 43
1, 1590636, Note_on_c, 0, 30, 54
1, 1590646, Note_off_c, 0, 55, 38
1, 1590655, Note_on_c, 0, 62, 46
1, 1590678, Note_off_c, 0, 30, 60
1, 1590718, Note_off_c, 0, 62, 50
1, 1590754, Note_on_c, 0, 57, 46
1, 1590898, Note_on_c, 0, 59, 48
1, 1590900, Note_on_c, 0, 31, 46
1, 1590915, Note_off_c, 0, 57, 35
1, 1590954, Control_c, 0, 64, 48
1, 1590968, Control_c, 0, 64, 62
1, 1590977, Note_off_c, 0, 59, 59
1, 1590983, Control_c, 0, 64, 65
1, 1590998, Control_c, 0, 64, 68
1, 1591013, Control_c, 0, 64, 71
1, 1591022, Note_on_c, 0, 55, 42
1, 1591028, Control_c, 0, 64, 76
1, 1591042, Control_c, 0, 64, 79
1, 1591057, Control_c, 0, 64, 81
1, 1591072, Note_off_c, 0, 55, 59
1, 1591072, Control_c, 0, 64, 81
1, 1591121, Note_on_c, 0, 59, 45
1, 1591176, Note_off_c, 0, 59, 53
1, 1591222, Note_on_c, 0, 62, 46
1, 1591250, Note_off_c, 0, 62, 54
1, 1591323, Note_on_c, 0, 67, 60
1, 1591380, Note_off_c, 0, 67, 47
1, 1591419, Note_on_c, 0, 71, 57
1, 1591466, Note_off_c, 0, 71, 51
1, 1591493, Note_on_c, 0, 74, 58
1, 1591522, Note_off_c, 0, 74, 67
1, 1591554, Control_c, 0, 64, 81
1, 1591601, Note_on_c, 0, 79, 71
1, 1591613, Control_c, 0, 64, 80
1, 1591628, Control_c, 0, 64, 79
1, 1591643, Control_c, 0, 64, 79
1, 1591657, Control_c, 0, 64, 78
1, 1591667, Note_off_c, 0, 79, 58
1, 1591672, Control_c, 0, 64, 77
1, 1591685, Note_on_c, 0, 83, 72
1, 1591687, Control_c, 0, 64, 75
1, 1591702, Control_c, 0, 64, 74
1, 1591702, Note_off_c, 0, 31, 58
1, 1591717, Control_c, 0, 64, 72
1, 1591732, Control_c, 0, 64, 71
1, 1591747, Control_c, 0, 64, 69
1, 1591756, Note_off_c, 0, 83, 56
1, 1591761, Control_c, 0, 64, 68
1, 1591776, Control_c, 0, 64, 67
1, 1591778, Note_on_c, 0, 79, 66
1, 1591791, Control_c, 0, 64, 66
1, 1591806, Control_c, 0, 64, 66
1, 1591821, Control_c, 0, 64, 65
1, 1591836, Control_c, 0, 64, 65
1, 1591847, Note_off_c, 0, 79, 40
1, 1591851, Control_c, 0, 64, 64
1, 1591854, Note_on_c, 0, 82, 70
1, 1591865, Control_c, 0, 64, 64
1, 1591880, Control_c, 0, 64, 63
1, 1591895, Control_c, 0, 64, 62
1, 1591916, Control_c, 0, 64, 61
1, 1591931, Control_c, 0, 64, 60
1, 1591945, Note_off_c, 0, 82, 61
1, 1591946, Control_c, 0, 64, 55
1, 1591953, Note_on_c, 0, 78, 68
1, 1591961, Control_c, 0, 64, 50
1, 1591976, Control_c, 0, 64, 49
1, 1592006, Control_c, 0, 64, 50
1, 1592016, Note_off_c, 0, 78, 59
1, 1592021, Control_c, 0, 64, 51
1, 1592036, Control_c, 0, 64, 53
1, 1592048, Note_on_c, 0, 83, 63
1, 1592051, Control_c, 0, 64, 54
1, 1592065, Control_c, 0, 64, 53
1, 1592080, Control_c, 0, 64, 50
1, 1592095, Control_c, 0, 64, 46
1, 1592109, Control_c, 0, 64, 41
1, 1592113, Note_off_c, 0, 83, 60
1, 1592124, Control_c, 0, 64, 40
1, 1592133, Note_on_c, 0, 79, 64
1, 1592139, Control_c, 0, 64, 43
1, 1592154, Control_c, 0, 64, 46
1, 1592169, Control_c, 0, 64, 52
1, 1592183, Note_off_c, 0, 79, 50
1, 1592183, Control_c, 0, 64, 57
1, 1592213, Control_c, 0, 64, 55
1, 1592217, Note_on_c, 0, 82, 70
1, 1592229, Control_c, 0, 64, 52
1, 1592244, Control_c, 0, 64, 47
1, 1592259, Control_c, 0, 64, 44
1, 1592288, Control_c, 0, 64, 45
1, 1592299, Note_off_c, 0, 82, 58
1, 1592303, Control_c, 0, 64, 47
1, 1592318, Control_c, 0, 64, 52
1, 1592322, Note_on_c, 0, 78, 58
1, 1592332, Control_c, 0, 64, 54
1, 1592347, Control_c, 0, 64, 55
1, 1592362, Control_c, 0, 64, 55
1, 1592364, Note_off_c, 0, 78, 53
1, 1592377, Control_c, 0, 64, 56
1, 1592401, Note_on_c, 0, 83, 60
1, 1592421, Control_c, 0, 64, 55
1, 1592451, Control_c, 0, 64, 55
1, 1592468, Note_off_c, 0, 83, 60
1, 1592500, Note_on_c, 0, 79, 59
1, 1592525, Control_c, 0, 64, 55
1, 1592562, Note_off_c, 0, 79, 44
1, 1592569, Control_c, 0, 64, 56
1, 1592579, Note_on_c, 0, 82, 61
1, 1592599, Control_c, 0, 64, 56
1, 1592649, Note_off_c, 0, 82, 58
1, 1592685, Note_on_c, 0, 78, 57
1, 1592711, Control_c, 0, 64, 56
1, 1592728, Note_off_c, 0, 78, 54
1, 1592775, Note_on_c, 0, 83, 54
1, 1592829, Control_c, 0, 64, 56
1, 1592844, Note_off_c, 0, 83, 59
1, 1592881, Note_on_c, 0, 79, 50
1, 1592960, Note_off_c, 0, 79, 49
1, 1592967, Note_on_c, 0, 82, 56
1, 1592993, Control_c, 0, 64, 57
1, 1593051, Note_off_c, 0, 82, 58
1, 1593074, Note_on_c, 0, 78, 57
1, 1593155, Note_off_c, 0, 78, 50
1, 1593177, Note_on_c, 0, 83, 52
1, 1593254, Note_off_c, 0, 83, 58
1, 1593274, Control_c, 0, 64, 56
1, 1593277, Note_on_c, 0, 79, 55
1, 1593304, Control_c, 0, 64, 56
1, 1593309, Note_off_c, 0, 79, 56
1, 1593319, Control_c, 0, 64, 55
1, 1593381, Note_on_c, 0, 80, 63
1, 1593416, Control_c, 0, 64, 56
1, 1593445, Control_c, 0, 64, 55
1, 1593460, Control_c, 0, 64, 50
1, 1593475, Control_c, 0, 64, 0
1, 1593490, Note_off_c, 0, 80, 63
1, 1593505, Note_on_c, 0, 83, 56
1, 1593548, Note_off_c, 0, 83, 56
1, 1593589, Note_on_c, 0, 81, 69
1, 1593686, Note_on_c, 0, 84, 62
1, 1593696, Note_off_c, 0, 81, 55
1, 1593724, Note_off_c, 0, 84, 62
1, 1593786, Note_on_c, 0, 82, 68
1, 1593894, Note_off_c, 0, 82, 59
1, 1593905, Control_c, 0, 64, 12
1, 1593905, Note_on_c, 0, 85, 56
1, 1593920, Control_c, 0, 64, 15
1, 1593935, Control_c, 0, 64, 17
1, 1593956, Note_off_c, 0, 85, 54
1, 1593964, Control_c, 0, 64, 18
1, 1594045, Note_on_c, 0, 83, 54
1, 1594068, Control_c, 0, 64, 17
1, 1594083, Control_c, 0, 64, 15
1, 1594097, Control_c, 0, 64, 14
1, 1594112, Control_c, 0, 64, 12
1, 1594164, Control_c, 0, 64, 10
1, 1594171, Note_on_c, 0, 86, 48
1, 1594198, Note_off_c, 0, 83, 51
1, 1594208, Control_c, 0, 64, 0
1, 1594222, Note_off_c, 0, 86, 57
1, 1594298, Note_on_c, 0, 82, 72
1, 1594311, Control_c, 0, 67, 122
1, 1594326, Control_c, 0, 67, 106
1, 1594341, Control_c, 0, 67, 89
1, 1594356, Control_c, 0, 67, 75
1, 1594371, Control_c, 0, 67, 62
1, 1594385, Control_c, 0, 67, 49
1, 1594400, Control_c, 0, 67, 36
1, 1594415, Control_c, 0, 67, 25
1, 1594425, Note_on_c, 0, 85, 57
1, 1594429, Control_c, 0, 67, 14
1, 1594442, Note_off_c, 0, 82, 61
1, 1594444, Control_c, 0, 67, 0
1, 1594493, Note_off_c, 0, 85, 58
1, 1594595, Note_on_c, 0, 83, 63
1, 1594727, Control_c, 0, 64, 38
1, 1594742, Control_c, 0, 64, 58
1, 1594746, Note_on_c, 0, 86, 59
1, 1594757, Control_c, 0, 64, 65
1, 1594772, Control_c, 0, 64, 71
1, 1594787, Note_off_c, 0, 83, 59
1, 1594787, Control_c, 0, 64, 78
1, 1594801, Control_c, 0, 64, 91
1, 1594816, Control_c, 0, 64, 104
1, 1594820, Note_off_c, 0, 86, 58
1, 1594831, Control_c, 0, 64, 105
1, 1594846, Control_c, 0, 64, 104
1, 1594861, Control_c, 0, 64, 91
1, 1594875, Control_c, 0, 64, 70
1, 1594890, Control_c, 0, 64, 49
1, 1594912, Control_c, 0, 64, 0
1, 1594988, Note_on_c, 0, 85, 60
1, 1595133, Control_c, 0, 64, 53
1, 1595148, Control_c, 0, 64, 61
1, 1595163, Control_c, 0, 64, 64
1, 1595178, Control_c, 0, 64, 69
1, 1595193, Control_c, 0, 64, 81
1, 1595207, Control_c, 0, 64, 93
1, 1595222, Control_c, 0, 64, 101
1, 1595237, Control_c, 0, 64, 127
1, 1595417, Note_on_c, 0, 88, 44
1, 1595500, Note_off_c, 0, 85, 48
1, 1595538, Note_off_c, 0, 88, 55
1, 1596105, Control_c, 0, 64, 106
1, 1596120, Control_c, 0, 64, 88
1, 1596134, Control_c, 0, 64, 77
1, 1596149, Control_c, 0, 64, 67
1, 1596164, Control_c, 0, 64, 61
1, 1596179, Control_c, 0, 64, 44
1, 1596194, Control_c, 0, 64, 0
1, 1596372, Control_c, 0, 67, 9
1, 1596387, Control_c, 0, 67, 11
1, 1596409, Control_c, 0, 67, 14
1, 1596424, Control_c, 0, 67, 18
1, 1596439, Control_c, 0, 67, 22
1, 1596453, Control_c, 0, 67, 27
1, 1596468, Control_c, 0, 67, 33
1, 1596483, Control_c, 0, 67, 37
1, 1596498, Control_c, 0, 67, 40
1, 1596502, Note_on_c, 0, 86, 56
1, 1596513, Control_c, 0, 67, 43
1, 1596528, Control_c, 0, 67, 48
1, 1596543, Control_c, 0, 67, 53
1, 1596549, Note_on_c, 0, 74, 21
1, 1596555, Note_on_c, 0, 71, 37
1, 1596558, Control_c, 0, 67, 56
1, 1596570, Note_on_c, 0, 62, 34
1, 1596571, Note_on_c, 0, 55, 35
1, 1596573, Control_c, 0, 67, 58
1, 1596646, Control_c, 0, 67, 58
1, 1596676, Control_c, 0, 67, 58
1, 1596705, Control_c, 0, 67, 57
1, 1596720, Control_c, 0, 67, 57
1, 1596779, Control_c, 0, 64, 46
1, 1596779, Control_c, 0, 67, 56
1, 1596794, Control_c, 0, 64, 60
1, 1596794, Control_c, 0, 67, 56
1, 1596809, Control_c, 0, 64, 66
1, 1596823, Control_c, 0, 64, 72
1, 1596838, Control_c, 0, 64, 79
1, 1596853, Control_c, 0, 64, 88
1, 1596868, Control_c, 0, 64, 100
1, 1596883, Control_c, 0, 64, 127
1, 1596927, Control_c, 0, 67, 55
1, 1597062, Control_c, 0, 67, 56
1, 1597106, Control_c, 0, 67, 56
1, 1597158, Control_c, 0, 67, 57
1, 1597202, Control_c, 0, 67, 57
1, 1597217, Control_c, 0, 67, 58
1, 1597291, Control_c, 0, 67, 59
1, 1597321, Control_c, 0, 67, 60
1, 1597351, Control_c, 0, 67, 62
1, 1597366, Control_c, 0, 67, 66
1, 1597380, Control_c, 0, 67, 68
1, 1597395, Control_c, 0, 67, 69
1, 1597410, Control_c, 0, 67, 70
1, 1597425, Control_c, 0, 67, 71
1, 1597440, Control_c, 0, 67, 72
1, 1597454, Control_c, 0, 67, 74
1, 1597469, Control_c, 0, 67, 75
1, 1597484, Control_c, 0, 67, 76
1, 1597499, Control_c, 0, 67, 78
1, 1597514, Control_c, 0, 67, 81
1, 1597528, Control_c, 0, 67, 85
1, 1597543, Control_c, 0, 67, 89
1, 1597558, Control_c, 0, 67, 93
1, 1597573, Control_c, 0, 67, 97
1, 1597588, Control_c, 0, 67, 100
1, 1597602, Control_c, 0, 67, 102
1, 1597617, Control_c, 0, 67, 105
1, 1597632, Control_c, 0, 67, 108
1, 1597646, Control_c, 0, 67, 112
1, 1597661, Control_c, 0, 67, 116
1, 1597676, Control_c, 0, 67, 119
1, 1597691, Control_c, 0, 67, 122
1, 1597706, Control_c, 0, 67, 125
1, 1597720, Control_c, 0, 67, 127
1, 1597911, Note_on_c, 0, 84, 49
1, 1597980, Note_off_c, 0, 71, 41
1, 1598009, Note_off_c, 0, 86, 29
1, 1598041, Note_on_c, 0, 83, 55
1, 1598054, Note_off_c, 0, 74, 42
1, 1598117, Note_off_c, 0, 84, 26
1, 1598159, Note_off_c, 0, 83, 53
1, 1598172, Note_on_c, 0, 81, 57
1, 1598184, Note_on_c, 0, 74, 35
1, 1598197, Note_on_c, 0, 72, 46
1, 1598203, Control_c, 0, 64, 85
1, 1598218, Control_c, 0, 64, 69
1, 1598233, Control_c, 0, 64, 56
1, 1598242, Note_off_c, 0, 72, 0
1, 1598242, Note_on_c, 0, 72, 5
1, 1598248, Control_c, 0, 64, 0
1, 1598290, Note_on_c, 0, 83, 61
1, 1598292, Control_c, 0, 64, 28
1, 1598307, Control_c, 0, 64, 52
1, 1598309, Note_off_c, 0, 81, 55
1, 1598322, Control_c, 0, 64, 61
1, 1598337, Control_c, 0, 64, 65
1, 1598351, Control_c, 0, 64, 69
1, 1598366, Control_c, 0, 64, 73
1, 1598381, Control_c, 0, 64, 77
1, 1598395, Control_c, 0, 64, 79
1, 1598410, Control_c, 0, 64, 81
1, 1598412, Note_on_c, 0, 84, 65
1, 1598413, Note_off_c, 0, 72, 41
1, 1598420, Note_off_c, 0, 83, 50
1, 1598425, Control_c, 0, 64, 81
1, 1598440, Control_c, 0, 64, 83
1, 1598455, Control_c, 0, 64, 83
1, 1598527, Note_off_c, 0, 84, 62
1, 1598536, Note_on_c, 0, 86, 55
1, 1598573, Control_c, 0, 64, 83
1, 1598588, Control_c, 0, 64, 81
1, 1598603, Control_c, 0, 64, 80
1, 1598619, Control_c, 0, 64, 78
1, 1598634, Control_c, 0, 64, 75
1, 1598656, Control_c, 0, 64, 72
1, 1598671, Control_c, 0, 64, 69
1, 1598686, Control_c, 0, 64, 66
1, 1598700, Control_c, 0, 64, 63
1, 1598715, Control_c, 0, 64, 60
1, 1598730, Control_c, 0, 64, 54
1, 1598738, Note_on_c, 0, 84, 57
1, 1598745, Control_c, 0, 64, 46
1, 1598760, Control_c, 0, 64, 28
1, 1598768, Note_on_c, 0, 69, 31
1, 1598770, Note_off_c, 0, 86, 56
1, 1598774, Control_c, 0, 64, 0
1, 1598894, Note_off_c, 0, 84, 63
1, 1599086, Note_on_c, 0, 81, 57
1, 1599091, Note_off_c, 0, 69, 48
1, 1599097, Note_on_c, 0, 66, 40
1, 1599174, Control_c, 0, 64, 53
1, 1599189, Control_c, 0, 64, 65
1, 1599194, Note_off_c, 0, 81, 62
1, 1599204, Control_c, 0, 64, 71
1, 1599217, Note_off_c, 0, 66, 63
1, 1599218, Control_c, 0, 64, 80
1, 1599233, Control_c, 0, 64, 90
1, 1599248, Control_c, 0, 64, 102
1, 1599263, Control_c, 0, 64, 127
1, 1599281, Note_off_c, 0, 62, 42
1, 1599287, Note_off_c, 0, 55, 39
1, 1599324, Note_off_c, 0, 74, 33
1, 1599673, Note_on_c, 0, 79, 45
1, 1599694, Note_on_c, 0, 71, 34
1, 1599710, Note_on_c, 0, 67, 32
1, 1599716, Control_c, 0, 64, 116
1, 1599719, Note_on_c, 0, 55, 24
1, 1599721, Note_on_c, 0, 62, 26
1, 1599726, Note_off_c, 0, 79, 0
1, 1599726, Note_on_c, 0, 79, 22
1, 1599731, Control_c, 0, 64, 102
1, 1599746, Control_c, 0, 64, 94
1, 1599761, Control_c, 0, 64, 86
1, 1599776, Control_c, 0, 64, 79
1, 1599790, Control_c, 0, 64, 70
1, 1599805, Control_c, 0, 64, 63
1, 1599820, Control_c, 0, 64, 52
1, 1599835, Control_c, 0, 64, 26
1, 1599849, Control_c, 0, 64, 0
1, 1600013, Control_c, 0, 64, 50
1, 1600028, Control_c, 0, 64, 61
1, 1600042, Control_c, 0, 64, 65
1, 1600057, Control_c, 0, 64, 68
1, 1600072, Control_c, 0, 64, 71
1, 1600087, Control_c, 0, 64, 76
1, 1600102, Control_c, 0, 64, 83
1, 1600116, Control_c, 0, 64, 92
1, 1600131, Control_c, 0, 64, 116
1, 1600132, Note_off_c, 0, 67, 42
1, 1600153, Control_c, 0, 64, 127
1, 1600211, Note_off_c, 0, 79, 39
1, 1600278, Note_off_c, 0, 62, 42
1, 1600310, Note_off_c, 0, 71, 43
1, 1600366, Note_off_c, 0, 55, 42
1, 1601439, Note_on_c, 0, 67, 32
1, 1601461, Note_on_c, 0, 59, 20
1, 1601464, Note_on_c, 0, 62, 27
1, 1601465, Note_on_c, 0, 50, 23
1, 1601470, Note_on_c, 0, 43, 28
1, 1601494, Control_c, 0, 64, 83
1, 1601509, Control_c, 0, 64, 69
1, 1601524, Control_c, 0, 64, 67
1, 1601539, Control_c, 0, 64, 68
1, 1601554, Control_c, 0, 64, 73
1, 1601569, Control_c, 0, 64, 83
1, 1601584, Control_c, 0, 64, 105
1, 1601598, Control_c, 0, 64, 127
1, 1601669, Note_off_c, 0, 62, 35
1, 1601715, Note_off_c, 0, 50, 0
1, 1601717, Note_off_c, 0, 43, 0
1, 1601718, Note_off_c, 0, 67, 0
1, 1601721, Note_off_c, 0, 59, 0
1, 1601734, Note_on_c, 0, 67, 31
1, 1601738, Note_on_c, 0, 50, 7
1, 1601738, Note_on_c, 0, 62, 34
1, 1601739, Note_on_c, 0, 43, 9
1, 1601758, Poly_aftertouch_c, 0, 59, 127
1, 1601762, Note_on_c, 0, 59, 3
1, 1601874, Note_off_c, 0, 67, 0
1, 1601881, Note_off_c, 0, 62, 0
1, 1601883, Note_off_c, 0, 59, 0
1, 1601888, Note_off_c, 0, 50, 0
1, 1601891, Note_off_c, 0, 43, 0
1, 1601897, Note_on_c, 0, 67, 21
1, 1601901, Note_on_c, 0, 62, 24
1, 1601905, Note_on_c, 0, 59, 19
1, 1601906, Note_on_c, 0, 50, 13
1, 1601908, Note_on_c, 0, 43, 18
1, 1602017, Note_off_c, 0, 43, 0
1, 1602023, Note_off_c, 0, 50, 0
1, 1602031, Note_off_c, 0, 67, 0
1, 1602040, Note_off_c, 0, 62, 0
1, 1602051, Note_on_c, 0, 67, 25
1, 1602054, Poly_aftertouch_c, 0, 43, 127
1, 1602058, Note_on_c, 0, 62, 30
1, 1602060, Poly_aftertouch_c, 0, 50, 127
1, 1602157, Note_off_c, 0, 62, 32
1, 1602190, Note_off_c, 0, 59, 0
1, 1602192, Poly_aftertouch_c, 0, 43, 0
1, 1602192, Poly_aftertouch_c, 0, 50, 0
1, 1602194, Note_off_c, 0, 67, 0
1, 1602213, Note_on_c, 0, 67, 28
1, 1602221, Note_on_c, 0, 62, 28
1, 1602227, Poly_aftertouch_c, 0, 59, 127
1, 1602229, Poly_aftertouch_c, 0, 43, 127
1, 1602229, Poly_aftertouch_c, 0, 50, 127
1, 1602231, Note_on_c, 0, 59, 3
1, 1604725, Note_off_c, 0, 59, 43
1, 1604794, Note_off_c, 0, 62, 40
1, 1604809, Control_c, 0, 67, 116
1, 1604824, Control_c, 0, 64, 97
1, 1604824, Control_c, 0, 67, 86
1, 1604824, Poly_aftertouch_c, 0, 50, 0
1, 1604826, Note_off_c, 0, 67, 40
1, 1604832, Poly_aftertouch_c, 0, 43, 0
1, 1604838, Control_c, 0, 64, 81
1, 1604838, Control_c, 0, 67, 43
1, 1604853, Control_c, 0, 64, 68
1, 1604853, Control_c, 0, 67, 0
1, 1604868, Control_c, 0, 64, 54
1, 1604883, Control_c, 0, 64, 0
1, 1604958, End_track
0, 0, End_of_file
