0, 0, Header, 0, 1, 384
1, 0, Start_track
1, 0, Title_t, "Paganini Var. I--Yon-Joon Yoon     "
1, 0, Text_t, "2008 e-Piano Junior Competition virtual audition round"
1, 0, Text_t, "recorded January and February 2008"
1, 0, Text_t, "http://www.piano-e-competition.com/"
1, 0, Text_t, "File processed for distribution by software from Zenph Studios, Inc., http://www.zenph.com"
1, 0, Instrument_name_t, "Yamaha Disklavier Pro Mark IV concert grand piano, model DCFIIISM4PRO"
1, 0, Sequencer_specific, 39, 67, 113, 0, 1, 0, 1, 0, 80, 97, 103, 97, 110, 105, 110, 105, 32, 86, 97, 114, 46, 32, 73, 32, 89, 111, 110, 45, 74, 111, 111, 110, 32, 89, 111, 111, 110, 32, 32, 32
1, 0, Sequencer_specific, 6, 67, 113, 0, 0, 0, 69
1, 0, System_exclusive, 21, 67, 113, 126, 21, 0, 2, 2, 0, 9, 10, 6, 4, 7, 8, 3, 9, 4, 14, 5, 1, 247
1, 0, Sequencer_specific, 5, 67, 123, 12, 2, 1
1, 0, Tempo, 512820
1, 0, Time_signature, 4, 2, 24, 8
1, 0, System_exclusive, 5, 126, 127, 9, 1, 247
1, 1, System_exclusive, 8, 67, 16, 76, 0, 0, 126, 0, 247
1, 2, System_exclusive, 8, 67, 16, 76, 8, 9, 7, 1, 247
1, 3, Control_c, 0, 0, 0
1, 3, Control_c, 1, 0, 0
1, 3, Control_c, 2, 0, 0
1, 3, Control_c, 3, 0, 0
1, 3, Control_c, 4, 0, 0
1, 3, Control_c, 5, 0, 0
1, 3, Control_c, 6, 0, 0
1, 3, Control_c, 7, 0, 0
1, 3, Control_c, 8, 0, 0
1, 3, Control_c, 9, 0, 127
1, 3, Control_c, 10, 0, 0
1, 3, Control_c, 11, 0, 0
1, 3, Control_c, 12, 0, 0
1, 3, Control_c, 13, 0, 0
1, 3, Control_c, 14, 0, 0
1, 3, Control_c, 15, 0, 0
1, 4, Control_c, 0, 32, 0
1, 4, Control_c, 1, 32, 0
1, 4, Control_c, 2, 32, 0
1, 4, Control_c, 3, 32, 0
1, 4, Control_c, 4, 32, 0
1, 4, Control_c, 5, 32, 0
1, 4, Control_c, 6, 32, 0
1, 4, Control_c, 7, 32, 0
1, 4, Control_c, 8, 32, 0
1, 4, Control_c, 9, 32, 0
1, 4, Control_c, 10, 32, 0
1, 4, Control_c, 11, 32, 0
1, 4, Control_c, 12, 32, 0
1, 4, Control_c, 13, 32, 0
1, 4, Control_c, 14, 32, 0
1, 4, Control_c, 15, 32, 0
1, 5, Program_c, 0, 0
1, 5, Program_c, 1, 0
1, 5, Program_c, 2, 0
1, 5, Program_c, 3, 0
1, 5, Program_c, 4, 0
1, 5, Program_c, 5, 0
1, 5, Program_c, 6, 0
1, 5, Program_c, 7, 0
1, 5, Program_c, 8, 0
1, 5, Program_c, 9, 0
1, 5, Program_c, 10, 0
1, 5, Program_c, 11, 0
1, 5, Program_c, 12, 0
1, 5, Program_c, 13, 0
1, 5, Program_c, 14, 0
1, 5, Program_c, 15, 0
1, 6, Control_c, 0, 7, 100
1, 6, Control_c, 1, 7, 100
1, 6, Control_c, 2, 7, 100
1, 6, Control_c, 3, 7, 100
1, 6, Control_c, 4, 7, 100
1, 6, Control_c, 5, 7, 100
1, 6, Control_c, 6, 7, 100
1, 6, Control_c, 7, 7, 100
1, 6, Control_c, 8, 7, 100
1, 6, Control_c, 9, 7, 100
1, 6, Control_c, 10, 7, 100
1, 6, Control_c, 11, 7, 100
1, 6, Control_c, 12, 7, 100
1, 6, Control_c, 13, 7, 100
1, 6, Control_c, 14, 7, 100
1, 6, Control_c, 15, 7, 100
1, 1129, Note_on_c, 0, 81, 62
1, 1167, Note_on_c, 0, 76, 57
1, 1180, Note_on_c, 0, 57, 52
1, 1192, Note_on_c, 0, 69, 75
1, 1196, Note_off_c, 0, 81, 58
1, 1213, Note_off_c, 0, 57, 64
1, 1215, Note_off_c, 0, 76, 65
1, 1215, Note_off_c, 0, 69, 70
1, 1515, Note_on_c, 0, 69, 70
1, 1520, Note_on_c, 0, 57, 46
1, 1543, Note_off_c, 0, 69, 67
1, 1546, Note_off_c, 0, 57, 53
1, 1606, Note_on_c, 0, 69, 70
1, 1617, Note_on_c, 0, 57, 57
1, 1653, Note_off_c, 0, 57, 63
1, 1671, Note_off_c, 0, 69, 65
1, 1691, Note_on_c, 0, 60, 59
1, 1692, Note_on_c, 0, 72, 72
1, 1736, Note_off_c, 0, 60, 55
1, 1783, Note_off_c, 0, 72, 64
1, 1793, Note_on_c, 0, 71, 67
1, 1800, Note_on_c, 0, 59, 45
1, 1839, Note_off_c, 0, 59, 63
1, 1866, Note_off_c, 0, 71, 57
1, 1871, Note_on_c, 0, 57, 49
1, 1875, Note_on_c, 0, 69, 74
1, 1910, Note_off_c, 0, 69, 67
1, 1919, Note_off_c, 0, 57, 61
1, 2034, Note_on_c, 0, 64, 51
1, 2036, Control_c, 0, 64, 37
1, 2048, Note_on_c, 0, 88, 78
1, 2051, Control_c, 0, 64, 64
1, 2065, Control_c, 0, 64, 79
1, 2068, Note_on_c, 0, 83, 67
1, 2080, Control_c, 0, 64, 127
1, 2097, Note_off_c, 0, 64, 56
1, 2104, Note_on_c, 0, 76, 78
1, 2105, Note_off_c, 0, 88, 60
1, 2120, Note_off_c, 0, 83, 63
1, 2129, Note_off_c, 0, 76, 70
1, 2399, Note_on_c, 0, 52, 57
1, 2407, Note_on_c, 0, 64, 72
1, 2431, Note_off_c, 0, 52, 66
1, 2434, Note_off_c, 0, 64, 68
1, 2452, Control_c, 0, 64, 91
1, 2467, Control_c, 0, 64, 68
1, 2482, Control_c, 0, 64, 0
1, 2496, Note_on_c, 0, 64, 77
1, 2502, Note_on_c, 0, 52, 71
1, 2547, Note_off_c, 0, 52, 61
1, 2567, Note_off_c, 0, 64, 59
1, 2588, Note_on_c, 0, 56, 58
1, 2591, Note_on_c, 0, 68, 70
1, 2687, Note_off_c, 0, 56, 59
1, 2691, Note_on_c, 0, 66, 74
1, 2707, Note_on_c, 0, 54, 58
1, 2711, Note_off_c, 0, 68, 58
1, 2778, Note_on_c, 0, 64, 68
1, 2780, Note_off_c, 0, 66, 63
1, 2792, Note_off_c, 0, 54, 60
1, 2796, Note_on_c, 0, 52, 53
1, 2806, Note_off_c, 0, 64, 67
1, 2820, Note_off_c, 0, 52, 63
1, 2931, Note_on_c, 0, 81, 68
1, 2949, Note_on_c, 0, 76, 61
1, 2961, Note_on_c, 0, 57, 53
1, 2964, Note_off_c, 0, 81, 58
1, 2980, Note_on_c, 0, 69, 75
1, 2983, Note_off_c, 0, 57, 62
1, 2993, Note_off_c, 0, 76, 65
1, 3004, Note_off_c, 0, 69, 68
1, 3238, Note_on_c, 0, 57, 44
1, 3239, Note_on_c, 0, 69, 69
1, 3264, Note_off_c, 0, 57, 52
1, 3266, Note_off_c, 0, 69, 70
1, 3331, Note_on_c, 0, 69, 75
1, 3337, Note_on_c, 0, 57, 57
1, 3372, Note_off_c, 0, 57, 65
1, 3400, Note_off_c, 0, 69, 64
1, 3410, Note_on_c, 0, 60, 58
1, 3427, Note_on_c, 0, 72, 69
1, 3463, Note_off_c, 0, 60, 51
1, 3507, Note_off_c, 0, 72, 65
1, 3514, Note_on_c, 0, 59, 52
1, 3519, Note_on_c, 0, 71, 64
1, 3561, Note_off_c, 0, 59, 59
1, 3596, Note_on_c, 0, 57, 54
1, 3596, Note_off_c, 0, 71, 55
1, 3601, Note_on_c, 0, 69, 72
1, 3624, Note_off_c, 0, 69, 72
1, 3633, Note_off_c, 0, 57, 62
1, 3782, Note_on_c, 0, 88, 72
1, 3783, Note_on_c, 0, 64, 45
1, 3802, Control_c, 0, 64, 35
1, 3803, Note_on_c, 0, 83, 61
1, 3817, Control_c, 0, 64, 64
1, 3832, Control_c, 0, 64, 85
1, 3841, Note_off_c, 0, 88, 61
1, 3846, Note_on_c, 0, 76, 69
1, 3847, Control_c, 0, 64, 127
1, 3857, Note_off_c, 0, 83, 63
1, 3871, Note_off_c, 0, 76, 70
1, 3885, Note_off_c, 0, 64, 58
1, 4260, Note_on_c, 0, 64, 67
1, 4267, Note_on_c, 0, 52, 46
1, 4306, Note_off_c, 0, 64, 63
1, 4323, Note_off_c, 0, 52, 64
1, 4676, Note_on_c, 0, 81, 58
1, 4706, Note_on_c, 0, 76, 57
1, 4730, Note_on_c, 0, 57, 56
1, 4733, Note_off_c, 0, 81, 56
1, 4738, Note_on_c, 0, 69, 74
1, 4742, Control_c, 0, 64, 95
1, 4755, Note_off_c, 0, 76, 66
1, 4756, Control_c, 0, 64, 72
1, 4758, Note_off_c, 0, 57, 64
1, 4761, Note_off_c, 0, 69, 72
1, 4771, Control_c, 0, 64, 48
1, 4786, Control_c, 0, 64, 0
1, 5043, Note_on_c, 0, 69, 68
1, 5050, Note_on_c, 0, 57, 43
1, 5070, Note_off_c, 0, 69, 69
1, 5077, Note_off_c, 0, 57, 51
1, 5135, Note_on_c, 0, 69, 69
1, 5144, Note_on_c, 0, 57, 57
1, 5177, Note_off_c, 0, 57, 64
1, 5196, Note_off_c, 0, 69, 62
1, 5206, Note_on_c, 0, 60, 66
1, 5220, Note_on_c, 0, 72, 69
1, 5272, Note_off_c, 0, 60, 58
1, 5303, Note_off_c, 0, 72, 66
1, 5313, Note_on_c, 0, 71, 66
1, 5317, Note_on_c, 0, 59, 51
1, 5363, Note_off_c, 0, 59, 60
1, 5388, Note_on_c, 0, 57, 52
1, 5392, Note_off_c, 0, 71, 59
1, 5397, Note_on_c, 0, 69, 68
1, 5424, Note_off_c, 0, 57, 63
1, 5424, Note_off_c, 0, 69, 68
1, 5562, Note_on_c, 0, 64, 47
1, 5578, Note_on_c, 0, 88, 72
1, 5595, Control_c, 0, 64, 56
1, 5604, Note_on_c, 0, 83, 65
1, 5610, Control_c, 0, 64, 78
1, 5632, Control_c, 0, 64, 127
1, 5643, Note_off_c, 0, 88, 61
1, 5648, Note_on_c, 0, 76, 73
1, 5652, Note_off_c, 0, 64, 61
1, 5661, Note_off_c, 0, 83, 63
1, 5671, Note_off_c, 0, 76, 72
1, 5937, Note_on_c, 0, 52, 51
1, 5937, Note_on_c, 0, 64, 67
1, 5960, Note_off_c, 0, 52, 64
1, 5964, Note_off_c, 0, 64, 68
1, 6017, Control_c, 0, 64, 91
1, 6022, Note_on_c, 0, 64, 73
1, 6032, Control_c, 0, 64, 72
1, 6035, Note_on_c, 0, 52, 64
1, 6047, Control_c, 0, 64, 52
1, 6062, Control_c, 0, 64, 0
1, 6086, Note_off_c, 0, 52, 61
1, 6095, Note_off_c, 0, 64, 60
1, 6118, Note_on_c, 0, 56, 57
1, 6119, Note_on_c, 0, 68, 71
1, 6202, Note_off_c, 0, 56, 59
1, 6210, Note_on_c, 0, 66, 73
1, 6221, Note_on_c, 0, 54, 51
1, 6229, Note_off_c, 0, 68, 57
1, 6302, Note_on_c, 0, 64, 67
1, 6302, Note_off_c, 0, 66, 63
1, 6308, Note_off_c, 0, 54, 61
1, 6310, Note_on_c, 0, 52, 53
1, 6330, Note_off_c, 0, 64, 67
1, 6334, Note_off_c, 0, 52, 61
1, 6459, Note_on_c, 0, 81, 69
1, 6485, Note_on_c, 0, 76, 62
1, 6485, Note_on_c, 0, 57, 59
1, 6503, Note_off_c, 0, 81, 54
1, 6517, Note_off_c, 0, 57, 64
1, 6519, Note_on_c, 0, 69, 72
1, 6530, Note_off_c, 0, 76, 65
1, 6542, Note_off_c, 0, 69, 72
1, 6777, Note_on_c, 0, 57, 47
1, 6781, Note_on_c, 0, 69, 67
1, 6802, Note_off_c, 0, 57, 54
1, 6809, Note_off_c, 0, 69, 70
1, 6864, Note_on_c, 0, 69, 73
1, 6873, Note_on_c, 0, 57, 53
1, 6905, Note_off_c, 0, 57, 61
1, 6920, Note_off_c, 0, 69, 58
1, 6938, Note_on_c, 0, 60, 62
1, 6953, Note_on_c, 0, 72, 66
1, 6990, Note_off_c, 0, 60, 50
1, 7036, Note_off_c, 0, 72, 65
1, 7044, Note_on_c, 0, 59, 50
1, 7044, Note_on_c, 0, 71, 64
1, 7087, Note_off_c, 0, 59, 60
1, 7117, Note_off_c, 0, 71, 58
1, 7118, Note_on_c, 0, 57, 51
1, 7133, Note_on_c, 0, 69, 71
1, 7160, Note_off_c, 0, 69, 69
1, 7168, Note_off_c, 0, 57, 61
1, 7314, Note_on_c, 0, 64, 44
1, 7332, Note_on_c, 0, 88, 64
1, 7337, Control_c, 0, 64, 12
1, 7352, Note_on_c, 0, 83, 62
1, 7352, Control_c, 0, 64, 61
1, 7367, Control_c, 0, 64, 75
1, 7382, Control_c, 0, 64, 127
1, 7387, Note_off_c, 0, 88, 60
1, 7396, Note_on_c, 0, 76, 68
1, 7412, Note_off_c, 0, 83, 61
1, 7424, Note_off_c, 0, 76, 69
1, 7463, Note_off_c, 0, 64, 35
1, 7827, Note_on_c, 0, 64, 59
1, 7840, Note_on_c, 0, 52, 34
1, 7877, Note_off_c, 0, 64, 63
1, 7890, Note_off_c, 0, 52, 49
1, 8219, Control_c, 0, 64, 109
1, 8233, Control_c, 0, 64, 80
1, 8248, Control_c, 0, 64, 55
1, 8263, Control_c, 0, 64, 0
1, 8280, Note_on_c, 0, 57, 49
1, 8310, Note_on_c, 0, 93, 78
1, 8317, Note_on_c, 0, 64, 52
1, 8328, Note_off_c, 0, 57, 63
1, 8331, Note_on_c, 0, 88, 75
1, 8337, Control_c, 0, 64, 60
1, 8351, Control_c, 0, 64, 127
1, 8354, Note_on_c, 0, 69, 66
1, 8357, Note_off_c, 0, 64, 65
1, 8360, Note_on_c, 0, 81, 83
1, 8368, Note_off_c, 0, 93, 60
1, 8381, Note_off_c, 0, 88, 64
1, 8384, Note_off_c, 0, 69, 69
1, 8388, Note_off_c, 0, 81, 62
1, 8666, Note_on_c, 0, 69, 65
1, 8673, Note_on_c, 0, 81, 77
1, 8692, Note_off_c, 0, 69, 72
1, 8698, Note_off_c, 0, 81, 65
1, 8717, Control_c, 0, 64, 87
1, 8731, Control_c, 0, 64, 58
1, 8746, Control_c, 0, 64, 0
1, 8765, Note_on_c, 0, 81, 88
1, 8775, Note_on_c, 0, 69, 62
1, 8846, Note_off_c, 0, 69, 65
1, 8858, Note_on_c, 0, 70, 63
1, 8858, Note_on_c, 0, 82, 80
1, 8861, Note_off_c, 0, 81, 59
1, 8893, Note_off_c, 0, 70, 65
1, 8949, Note_on_c, 0, 81, 81
1, 8970, Note_on_c, 0, 69, 54
1, 8983, Note_off_c, 0, 82, 60
1, 9026, Note_off_c, 0, 69, 60
1, 9033, Note_on_c, 0, 79, 70
1, 9040, Note_on_c, 0, 67, 51
1, 9040, Note_off_c, 0, 81, 60
1, 9061, Note_off_c, 0, 79, 64
1, 9064, Note_off_c, 0, 67, 61
1, 9165, Note_on_c, 0, 65, 58
1, 9165, Note_on_c, 0, 89, 75
1, 9171, Note_on_c, 0, 62, 50
1, 9183, Note_on_c, 0, 81, 73
1, 9190, Control_c, 0, 64, 49
1, 9195, Note_off_c, 0, 65, 67
1, 9203, Note_off_c, 0, 62, 59
1, 9205, Control_c, 0, 64, 77
1, 9215, Note_off_c, 0, 89, 62
1, 9218, Note_on_c, 0, 77, 79
1, 9220, Control_c, 0, 64, 127
1, 9229, Note_off_c, 0, 81, 62
1, 9242, Note_off_c, 0, 77, 65
1, 9353, Poly_aftertouch_c, 0, 65, 0
1, 9386, Poly_aftertouch_c, 0, 65, 0
1, 9485, Note_on_c, 0, 62, 53
1, 9492, Note_on_c, 0, 74, 73
1, 9511, Note_off_c, 0, 62, 60
1, 9519, Note_off_c, 0, 74, 67
1, 9540, Control_c, 0, 64, 97
1, 9554, Control_c, 0, 64, 78
1, 9569, Control_c, 0, 64, 62
1, 9582, Note_on_c, 0, 74, 79
1, 9584, Control_c, 0, 64, 0
1, 9591, Note_on_c, 0, 62, 64
1, 9631, Note_off_c, 0, 62, 62
1, 9666, Note_off_c, 0, 74, 60
1, 9669, Note_on_c, 0, 65, 59
1, 9674, Note_on_c, 0, 77, 76
1, 9714, Note_off_c, 0, 65, 62
1, 9766, Note_on_c, 0, 64, 54
1, 9770, Note_on_c, 0, 76, 74
1, 9776, Note_off_c, 0, 77, 60
1, 9847, Note_on_c, 0, 62, 60
1, 9848, Note_off_c, 0, 64, 62
1, 9858, Note_on_c, 0, 74, 65
1, 9861, Note_off_c, 0, 76, 62
1, 9877, Note_off_c, 0, 62, 63
1, 9883, Note_off_c, 0, 74, 69
1, 10021, Note_on_c, 0, 55, 42
1, 10035, Note_on_c, 0, 62, 36
1, 10053, Note_on_c, 0, 91, 61
1, 10072, Control_c, 0, 64, 61
1, 10077, Note_on_c, 0, 83, 54
1, 10084, Note_off_c, 0, 55, 61
1, 10087, Control_c, 0, 64, 72
1, 10101, Note_off_c, 0, 91, 48
1, 10103, Control_c, 0, 64, 87
1, 10108, Note_on_c, 0, 79, 72
1, 10110, Note_off_c, 0, 62, 52
1, 10112, Note_on_c, 0, 67, 52
1, 10125, Control_c, 0, 64, 127
1, 10126, Note_off_c, 0, 83, 62
1, 10140, Note_off_c, 0, 79, 67
1, 10160, Note_off_c, 0, 67, 54
1, 10385, Note_on_c, 0, 67, 50
1, 10386, Note_on_c, 0, 79, 54
1, 10392, Control_c, 0, 64, 103
1, 10407, Note_off_c, 0, 79, 60
1, 10407, Control_c, 0, 64, 86
1, 10412, Note_off_c, 0, 67, 55
1, 10422, Control_c, 0, 64, 72
1, 10436, Control_c, 0, 64, 59
1, 10451, Control_c, 0, 64, 0
1, 10478, Note_on_c, 0, 79, 76
1, 10486, Note_on_c, 0, 67, 62
1, 10533, Note_off_c, 0, 67, 55
1, 10536, Note_off_c, 0, 79, 58
1, 10563, Note_on_c, 0, 69, 59
1, 10578, Note_on_c, 0, 81, 65
1, 10620, Note_off_c, 0, 69, 61
1, 10664, Note_on_c, 0, 67, 52
1, 10679, Note_on_c, 0, 79, 63
1, 10700, Note_off_c, 0, 81, 54
1, 10742, Note_off_c, 0, 67, 62
1, 10753, Note_on_c, 0, 65, 46
1, 10754, Note_off_c, 0, 79, 61
1, 10758, Note_on_c, 0, 77, 63
1, 10777, Note_off_c, 0, 65, 62
1, 10787, Note_off_c, 0, 77, 66
1, 10899, Note_on_c, 0, 88, 65
1, 10904, Control_c, 0, 64, 54
1, 10910, Note_on_c, 0, 64, 35
1, 10912, Note_on_c, 0, 79, 63
1, 10915, Note_on_c, 0, 60, 36
1, 10919, Control_c, 0, 64, 68
1, 10928, Note_off_c, 0, 88, 63
1, 10933, Control_c, 0, 64, 88
1, 10942, Note_off_c, 0, 64, 46
1, 10942, Note_off_c, 0, 79, 65
1, 10947, Note_off_c, 0, 60, 46
1, 10948, Note_on_c, 0, 76, 69
1, 10948, Control_c, 0, 64, 127
1, 10972, Note_off_c, 0, 76, 71
1, 11202, Note_on_c, 0, 60, 59
1, 11219, Note_on_c, 0, 72, 71
1, 11227, Note_off_c, 0, 60, 62
1, 11244, Note_off_c, 0, 72, 68
1, 11259, Control_c, 0, 64, 93
1, 11274, Control_c, 0, 64, 74
1, 11289, Control_c, 0, 64, 60
1, 11304, Control_c, 0, 64, 0
1, 11305, Note_on_c, 0, 60, 67
1, 11321, Note_on_c, 0, 72, 72
1, 11347, Note_off_c, 0, 60, 54
1, 11359, Note_off_c, 0, 72, 60
1, 11390, Note_on_c, 0, 64, 60
1, 11406, Note_on_c, 0, 76, 69
1, 11434, Note_off_c, 0, 64, 59
1, 11496, Note_on_c, 0, 62, 47
1, 11504, Note_off_c, 0, 76, 64
1, 11505, Note_on_c, 0, 74, 62
1, 11568, Note_off_c, 0, 62, 59
1, 11574, Note_on_c, 0, 60, 52
1, 11588, Note_off_c, 0, 74, 64
1, 11589, Note_on_c, 0, 72, 65
1, 11596, Note_off_c, 0, 60, 58
1, 11625, Note_off_c, 0, 72, 66
1, 11761, Note_on_c, 0, 50, 27
1, 11797, Note_off_c, 0, 50, 39
1, 11800, Note_on_c, 0, 89, 68
1, 11818, Note_on_c, 0, 83, 61
1, 11828, Note_on_c, 0, 65, 63
1, 11836, Note_off_c, 0, 89, 61
1, 11851, Note_on_c, 0, 77, 78
1, 11854, Note_off_c, 0, 83, 62
1, 11865, Note_off_c, 0, 65, 60
1, 11874, Note_off_c, 0, 77, 67
1, 12108, Note_on_c, 0, 59, 53
1, 12111, Note_on_c, 0, 71, 68
1, 12129, Note_off_c, 0, 59, 62
1, 12138, Note_off_c, 0, 71, 66
1, 12197, Note_on_c, 0, 59, 74
1, 12197, Note_on_c, 0, 71, 79
1, 12247, Note_off_c, 0, 71, 55
1, 12249, Note_off_c, 0, 59, 60
1, 12280, Note_on_c, 0, 62, 61
1, 12286, Note_on_c, 0, 74, 72
1, 12339, Note_off_c, 0, 62, 53
1, 12381, Note_on_c, 0, 60, 54
1, 12386, Note_off_c, 0, 74, 63
1, 12387, Note_on_c, 0, 72, 69
1, 12451, Note_off_c, 0, 60, 62
1, 12456, Note_on_c, 0, 59, 52
1, 12468, Note_off_c, 0, 72, 63
1, 12473, Note_on_c, 0, 71, 67
1, 12477, Note_off_c, 0, 59, 61
1, 12501, Note_off_c, 0, 71, 65
1, 12601, Note_on_c, 0, 48, 55
1, 12635, Note_on_c, 0, 57, 52
1, 12637, Note_off_c, 0, 48, 64
1, 12653, Note_on_c, 0, 88, 71
1, 12681, Note_on_c, 0, 81, 59
1, 12696, Note_on_c, 0, 64, 69
1, 12701, Note_off_c, 0, 88, 63
1, 12710, Note_on_c, 0, 76, 78
1, 12713, Note_off_c, 0, 57, 59
1, 12721, Note_off_c, 0, 81, 60
1, 12734, Note_off_c, 0, 76, 70
1, 12747, Note_off_c, 0, 64, 52
1, 12954, Note_on_c, 0, 57, 58
1, 12955, Note_on_c, 0, 69, 67
1, 12975, Note_off_c, 0, 57, 63
1, 12982, Note_off_c, 0, 69, 68
1, 13038, Note_on_c, 0, 69, 80
1, 13046, Note_on_c, 0, 57, 66
1, 13094, Note_off_c, 0, 69, 62
1, 13106, Note_off_c, 0, 57, 61
1, 13130, Note_on_c, 0, 60, 59
1, 13142, Note_on_c, 0, 72, 65
1, 13179, Note_off_c, 0, 60, 53
1, 13231, Note_on_c, 0, 59, 54
1, 13239, Note_off_c, 0, 72, 61
1, 13240, Note_on_c, 0, 71, 61
1, 13281, Note_off_c, 0, 59, 57
1, 13311, Note_on_c, 0, 57, 54
1, 13338, Note_on_c, 0, 69, 66
1, 13338, Note_off_c, 0, 71, 57
1, 13388, Note_off_c, 0, 57, 58
1, 13401, Note_off_c, 0, 69, 63
1, 13424, Note_on_c, 0, 53, 52
1, 13439, Note_on_c, 0, 65, 67
1, 13491, Control_c, 0, 64, 36
1, 13506, Control_c, 0, 64, 61
1, 13520, Control_c, 0, 64, 69
1, 13535, Control_c, 0, 64, 80
1, 13550, Control_c, 0, 64, 97
1, 13565, Control_c, 0, 64, 127
1, 13695, Note_off_c, 0, 65, 52
1, 13708, Note_on_c, 0, 57, 51
1, 13713, Note_off_c, 0, 53, 41
1, 13718, Note_on_c, 0, 69, 56
1, 13743, Control_c, 0, 64, 102
1, 13744, Note_off_c, 0, 69, 64
1, 13745, Note_on_c, 0, 71, 60
1, 13748, Note_off_c, 0, 57, 59
1, 13754, Note_on_c, 0, 75, 74
1, 13758, Control_c, 0, 64, 87
1, 13765, Note_on_c, 0, 63, 56
1, 13772, Control_c, 0, 64, 74
1, 13787, Note_off_c, 0, 63, 60
1, 13787, Control_c, 0, 64, 61
1, 13802, Control_c, 0, 64, 41
1, 13817, Control_c, 0, 64, 0
1, 13827, Note_on_c, 0, 64, 72
1, 13839, Note_on_c, 0, 52, 66
1, 13851, Poly_aftertouch_c, 0, 59, 0
1, 13875, Note_off_c, 0, 71, 31
1, 13876, Note_off_c, 0, 75, 57
1, 13912, Note_off_c, 0, 64, 55
1, 13941, Note_on_c, 0, 68, 63
1, 13947, Note_on_c, 0, 56, 60
1, 13963, Note_off_c, 0, 52, 63
1, 13968, Note_off_c, 0, 68, 67
1, 13971, Note_on_c, 0, 59, 52
1, 13982, Note_on_c, 0, 71, 68
1, 14002, Note_off_c, 0, 56, 57
1, 14007, Note_off_c, 0, 59, 65
1, 14011, Note_on_c, 0, 76, 78
1, 14017, Note_on_c, 0, 64, 71
1, 14030, Note_off_c, 0, 71, 60
1, 14059, Note_off_c, 0, 64, 60
1, 14100, Note_on_c, 0, 74, 76
1, 14103, Note_on_c, 0, 62, 67
1, 14125, Note_off_c, 0, 76, 62
1, 14168, Note_off_c, 0, 62, 61
1, 14203, Note_off_c, 0, 74, 64
1, 14204, Note_on_c, 0, 71, 70
1, 14206, Note_on_c, 0, 59, 31
1, 14271, Note_off_c, 0, 59, 38
1, 14309, Note_off_c, 0, 71, 57
1, 14322, Note_on_c, 0, 69, 66
1, 14325, Note_on_c, 0, 57, 52
1, 14750, Note_on_c, 0, 72, 50
1, 14792, Note_on_c, 0, 76, 50
1, 14817, Note_off_c, 0, 72, 57
1, 14822, Note_on_c, 0, 81, 63
1, 14825, Control_c, 0, 64, 38
1, 14833, Note_on_c, 0, 45, 41
1, 14836, Note_off_c, 0, 69, 40
1, 14836, Note_off_c, 0, 76, 64
1, 14840, Control_c, 0, 64, 63
1, 14855, Control_c, 0, 64, 72
1, 14869, Control_c, 0, 64, 88
1, 14873, Note_off_c, 0, 45, 63
1, 14876, Note_off_c, 0, 81, 61
1, 14884, Control_c, 0, 64, 127
1, 14921, Note_off_c, 0, 57, 35
1, 15078, Control_c, 0, 64, 117
1, 15092, Control_c, 0, 64, 93
1, 15107, Control_c, 0, 64, 77
1, 15122, Control_c, 0, 64, 64
1, 15137, Control_c, 0, 64, 46
1, 15152, Control_c, 0, 64, 0
1, 15263, Note_on_c, 0, 57, 49
1, 15299, Note_on_c, 0, 93, 76
1, 15301, Note_on_c, 0, 64, 59
1, 15315, Control_c, 0, 64, 49
1, 15320, Note_on_c, 0, 88, 72
1, 15324, Note_off_c, 0, 57, 62
1, 15330, Control_c, 0, 64, 81
1, 15337, Note_on_c, 0, 69, 73
1, 15345, Control_c, 0, 64, 127
1, 15347, Note_on_c, 0, 81, 87
1, 15351, Note_off_c, 0, 64, 63
1, 15368, Note_off_c, 0, 93, 62
1, 15375, Note_off_c, 0, 69, 63
1, 15378, Note_off_c, 0, 88, 63
1, 15392, Note_off_c, 0, 81, 59
1, 15662, Note_on_c, 0, 69, 65
1, 15675, Note_on_c, 0, 81, 79
1, 15682, Note_off_c, 0, 69, 69
1, 15694, Control_c, 0, 64, 100
1, 15699, Note_off_c, 0, 81, 66
1, 15708, Control_c, 0, 64, 79
1, 15723, Control_c, 0, 64, 62
1, 15738, Control_c, 0, 64, 0
1, 15764, Note_on_c, 0, 81, 86
1, 15768, Note_on_c, 0, 69, 60
1, 15839, Note_off_c, 0, 69, 65
1, 15844, Note_off_c, 0, 81, 56
1, 15848, Note_on_c, 0, 70, 62
1, 15853, Note_on_c, 0, 82, 82
1, 15887, Note_off_c, 0, 70, 64
1, 15948, Note_on_c, 0, 81, 75
1, 15959, Note_on_c, 0, 69, 53
1, 15984, Note_off_c, 0, 82, 57
1, 16026, Note_on_c, 0, 67, 62
1, 16027, Note_off_c, 0, 69, 64
1, 16032, Note_on_c, 0, 79, 71
1, 16042, Note_off_c, 0, 81, 60
1, 16054, Note_off_c, 0, 67, 66
1, 16061, Note_off_c, 0, 79, 63
1, 16164, Note_on_c, 0, 62, 53
1, 16167, Note_on_c, 0, 65, 56
1, 16168, Note_on_c, 0, 89, 76
1, 16174, Control_c, 0, 64, 43
1, 16187, Note_on_c, 0, 81, 73
1, 16189, Control_c, 0, 64, 66
1, 16197, Note_off_c, 0, 65, 67
1, 16204, Control_c, 0, 64, 77
1, 16207, Note_off_c, 0, 62, 61
1, 16213, Note_off_c, 0, 89, 65
1, 16219, Control_c, 0, 64, 98
1, 16225, Note_on_c, 0, 77, 80
1, 16230, Note_off_c, 0, 81, 60
1, 16234, Control_c, 0, 64, 127
1, 16251, Note_off_c, 0, 77, 65
1, 16313, Note_on_c, 0, 65, 25
1, 16352, Note_off_c, 0, 65, 47
1, 16472, Note_on_c, 0, 62, 63
1, 16486, Note_on_c, 0, 74, 74
1, 16486, Control_c, 0, 64, 108
1, 16501, Control_c, 0, 64, 89
1, 16505, Note_off_c, 0, 62, 64
1, 16512, Note_off_c, 0, 74, 67
1, 16516, Control_c, 0, 64, 74
1, 16531, Control_c, 0, 64, 61
1, 16546, Control_c, 0, 64, 0
1, 16572, Note_on_c, 0, 74, 81
1, 16574, Note_on_c, 0, 62, 70
1, 16631, Note_off_c, 0, 62, 59
1, 16650, Note_off_c, 0, 74, 58
1, 16656, Note_on_c, 0, 65, 65
1, 16666, Note_on_c, 0, 77, 77
1, 16713, Note_off_c, 0, 65, 54
1, 16761, Note_off_c, 0, 77, 61
1, 16763, Note_on_c, 0, 76, 67
1, 16763, Note_on_c, 0, 64, 50
1, 16844, Note_off_c, 0, 64, 62
1, 16847, Note_on_c, 0, 62, 53
1, 16852, Note_on_c, 0, 74, 59
1, 16854, Note_off_c, 0, 76, 63
1, 16881, Note_off_c, 0, 62, 60
1, 16887, Note_off_c, 0, 74, 69
1, 17023, Note_on_c, 0, 62, 32
1, 17056, Control_c, 0, 64, 21
1, 17059, Note_on_c, 0, 91, 52
1, 17059, Note_on_c, 0, 55, 26
1, 17070, Control_c, 0, 64, 55
1, 17078, Note_on_c, 0, 83, 53
1, 17085, Control_c, 0, 64, 68
1, 17091, Note_off_c, 0, 91, 52
1, 17100, Control_c, 0, 64, 81
1, 17102, Note_on_c, 0, 67, 64
1, 17109, Note_off_c, 0, 55, 43
1, 17115, Control_c, 0, 64, 127
1, 17118, Note_on_c, 0, 79, 67
1, 17126, Note_off_c, 0, 83, 61
1, 17145, Note_off_c, 0, 79, 66
1, 17157, Note_off_c, 0, 67, 56
1, 17165, Note_off_c, 0, 62, 35
1, 17375, Note_on_c, 0, 67, 56
1, 17378, Note_on_c, 0, 79, 61
1, 17395, Note_off_c, 0, 67, 66
1, 17397, Note_off_c, 0, 79, 64
1, 17398, Control_c, 0, 64, 107
1, 17412, Control_c, 0, 64, 88
1, 17427, Control_c, 0, 64, 73
1, 17442, Control_c, 0, 64, 61
1, 17457, Control_c, 0, 64, 23
1, 17462, Note_on_c, 0, 79, 79
1, 17464, Note_on_c, 0, 67, 69
1, 17472, Control_c, 0, 64, 0
1, 17519, Note_off_c, 0, 79, 60
1, 17526, Note_off_c, 0, 67, 55
1, 17565, Note_on_c, 0, 69, 53
1, 17568, Note_on_c, 0, 81, 66
1, 17633, Note_off_c, 0, 69, 60
1, 17660, Note_on_c, 0, 67, 54
1, 17682, Note_on_c, 0, 79, 59
1, 17693, Note_off_c, 0, 81, 51
1, 17750, Note_off_c, 0, 67, 62
1, 17758, Note_on_c, 0, 65, 51
1, 17769, Note_on_c, 0, 77, 56
1, 17770, Note_off_c, 0, 79, 60
1, 17782, Note_off_c, 0, 65, 63
1, 17800, Note_off_c, 0, 77, 64
1, 17898, Note_on_c, 0, 88, 65
1, 17902, Note_on_c, 0, 64, 53
1, 17908, Control_c, 0, 64, 44
1, 17911, Note_on_c, 0, 60, 40
1, 17923, Control_c, 0, 64, 64
1, 17924, Note_on_c, 0, 79, 59
1, 17924, Note_off_c, 0, 64, 63
1, 17938, Note_off_c, 0, 88, 58
1, 17938, Control_c, 0, 64, 78
1, 17939, Note_off_c, 0, 60, 54
1, 17951, Note_on_c, 0, 76, 71
1, 17953, Control_c, 0, 64, 114
1, 17956, Note_off_c, 0, 79, 64
1, 17968, Control_c, 0, 64, 127
1, 17974, Note_off_c, 0, 76, 72
1, 18218, Note_on_c, 0, 60, 58
1, 18220, Note_on_c, 0, 72, 69
1, 18235, Control_c, 0, 64, 101
1, 18239, Note_off_c, 0, 60, 59
1, 18243, Note_off_c, 0, 72, 70
1, 18250, Control_c, 0, 64, 80
1, 18265, Control_c, 0, 64, 63
1, 18280, Control_c, 0, 64, 24
1, 18295, Control_c, 0, 64, 0
1, 18317, Note_on_c, 0, 72, 78
1, 18323, Note_on_c, 0, 60, 63
1, 18375, Note_off_c, 0, 72, 54
1, 18377, Note_off_c, 0, 60, 56
1, 18421, Note_on_c, 0, 64, 56
1, 18421, Note_on_c, 0, 76, 68
1, 18463, Note_off_c, 0, 64, 63
1, 18519, Note_on_c, 0, 74, 63
1, 18522, Note_off_c, 0, 76, 60
1, 18523, Note_on_c, 0, 62, 44
1, 18588, Note_off_c, 0, 62, 58
1, 18599, Note_on_c, 0, 60, 51
1, 18605, Note_off_c, 0, 74, 64
1, 18610, Note_on_c, 0, 72, 62
1, 18621, Note_off_c, 0, 60, 57
1, 18637, Note_off_c, 0, 72, 65
1, 18742, Note_on_c, 0, 50, 52
1, 18773, Note_off_c, 0, 50, 63
1, 18784, Note_on_c, 0, 59, 45
1, 18806, Note_on_c, 0, 89, 62
1, 18825, Note_on_c, 0, 83, 63
1, 18833, Note_on_c, 0, 65, 68
1, 18838, Note_off_c, 0, 89, 66
1, 18841, Note_off_c, 0, 59, 62
1, 18855, Note_on_c, 0, 77, 72
1, 18862, Note_off_c, 0, 83, 62
1, 18874, Note_off_c, 0, 65, 56
1, 18879, Note_off_c, 0, 77, 68
1, 19115, Note_on_c, 0, 59, 56
1, 19118, Note_on_c, 0, 71, 66
1, 19137, Note_off_c, 0, 59, 64
1, 19145, Note_off_c, 0, 71, 65
1, 19207, Note_on_c, 0, 71, 76
1, 19208, Note_on_c, 0, 59, 69
1, 19260, Note_off_c, 0, 59, 58
1, 19267, Note_off_c, 0, 71, 56
1, 19287, Note_on_c, 0, 62, 57
1, 19300, Note_on_c, 0, 74, 60
1, 19345, Note_off_c, 0, 62, 53
1, 19386, Note_on_c, 0, 60, 50
1, 19399, Note_on_c, 0, 72, 65
1, 19410, Note_off_c, 0, 74, 57
1, 19455, Note_off_c, 0, 60, 62
1, 19464, Note_on_c, 0, 59, 45
1, 19479, Note_off_c, 0, 72, 62
1, 19484, Note_on_c, 0, 71, 65
1, 19488, Note_off_c, 0, 59, 57
1, 19512, Note_off_c, 0, 71, 64
1, 19609, Note_on_c, 0, 48, 55
1, 19640, Note_on_c, 0, 57, 53
1, 19643, Note_off_c, 0, 48, 65
1, 19665, Note_on_c, 0, 88, 70
1, 19693, Note_on_c, 0, 81, 63
1, 19708, Note_on_c, 0, 64, 66
1, 19711, Note_off_c, 0, 88, 61
1, 19712, Note_off_c, 0, 57, 62
1, 19722, Note_on_c, 0, 76, 73
1, 19728, Note_off_c, 0, 81, 61
1, 19744, Note_off_c, 0, 76, 73
1, 19746, Note_off_c, 0, 64, 61
1, 19968, Note_on_c, 0, 57, 60
1, 19973, Note_on_c, 0, 69, 69
1, 19994, Note_off_c, 0, 57, 63
1, 19999, Note_off_c, 0, 69, 68
1, 20054, Note_on_c, 0, 69, 80
1, 20060, Note_on_c, 0, 57, 70
1, 20116, Note_off_c, 0, 69, 62
1, 20122, Note_off_c, 0, 57, 61
1, 20141, Note_on_c, 0, 60, 51
1, 20150, Note_on_c, 0, 72, 61
1, 20181, Note_off_c, 0, 60, 64
1, 20233, Note_off_c, 0, 72, 60
1, 20239, Note_on_c, 0, 71, 65
1, 20242, Note_on_c, 0, 59, 52
1, 20284, Note_off_c, 0, 59, 60
1, 20328, Note_on_c, 0, 57, 48
1, 20335, Note_off_c, 0, 71, 57
1, 20337, Note_on_c, 0, 69, 64
1, 20409, Note_off_c, 0, 57, 61
1, 20409, Note_off_c, 0, 69, 61
1, 20436, Note_on_c, 0, 53, 49
1, 20445, Note_on_c, 0, 65, 63
1, 20497, Control_c, 0, 64, 24
1, 20511, Control_c, 0, 64, 61
1, 20526, Control_c, 0, 64, 69
1, 20541, Control_c, 0, 64, 78
1, 20555, Control_c, 0, 64, 93
1, 20570, Control_c, 0, 64, 112
1, 20585, Control_c, 0, 64, 127
1, 20697, Note_off_c, 0, 53, 61
1, 20724, Note_on_c, 0, 57, 41
1, 20728, Note_on_c, 0, 69, 57
1, 20756, Control_c, 0, 64, 121
1, 20758, Note_on_c, 0, 63, 60
1, 20764, Note_on_c, 0, 71, 45
1, 20764, Note_off_c, 0, 69, 66
1, 20768, Note_off_c, 0, 65, 36
1, 20770, Control_c, 0, 64, 102
1, 20773, Note_on_c, 0, 75, 73
1, 20773, Note_off_c, 0, 57, 42
1, 20785, Control_c, 0, 64, 87
1, 20788, Note_off_c, 0, 63, 64
1, 20800, Control_c, 0, 64, 74
1, 20809, Note_on_c, 0, 59, 9
1, 20815, Control_c, 0, 64, 63
1, 20829, Control_c, 0, 64, 46
1, 20844, Control_c, 0, 64, 0
1, 20849, Note_on_c, 0, 52, 63
1, 20849, Note_on_c, 0, 64, 68
1, 20850, Note_off_c, 0, 59, 45
1, 20877, Note_off_c, 0, 71, 39
1, 20889, Note_off_c, 0, 75, 53
1, 20929, Note_off_c, 0, 64, 59
1, 20946, Note_on_c, 0, 68, 58
1, 20946, Note_on_c, 0, 56, 61
1, 20961, Note_off_c, 0, 52, 64
1, 20966, Note_on_c, 0, 59, 51
1, 20978, Note_off_c, 0, 68, 67
1, 20983, Note_on_c, 0, 71, 70
1, 21004, Note_off_c, 0, 56, 56
1, 21005, Note_off_c, 0, 59, 65
1, 21008, Note_on_c, 0, 76, 77
1, 21017, Note_on_c, 0, 64, 70
1, 21031, Note_off_c, 0, 71, 59
1, 21055, Note_off_c, 0, 64, 62
1, 21100, Note_on_c, 0, 74, 77
1, 21116, Note_on_c, 0, 62, 61
1, 21122, Note_off_c, 0, 76, 60
1, 21171, Note_off_c, 0, 62, 60
1, 21208, Note_off_c, 0, 74, 63
1, 21214, Note_on_c, 0, 71, 71
1, 21293, Poly_aftertouch_c, 0, 59, 0
1, 21318, Note_off_c, 0, 71, 57
1, 21331, Note_on_c, 0, 57, 45
1, 21335, Note_on_c, 0, 69, 66
1, 21825, Note_on_c, 0, 72, 49
1, 21861, Note_on_c, 0, 76, 51
1, 21891, Note_on_c, 0, 81, 64
1, 21904, Control_c, 0, 64, 46
1, 21908, Note_off_c, 0, 72, 54
1, 21908, Note_off_c, 0, 76, 60
1, 21911, Note_on_c, 0, 45, 43
1, 21919, Control_c, 0, 64, 63
1, 21926, Note_off_c, 0, 69, 46
1, 21934, Control_c, 0, 64, 73
1, 21943, Note_off_c, 0, 81, 60
1, 21949, Control_c, 0, 64, 90
1, 21953, Note_off_c, 0, 45, 58
1, 21961, Note_off_c, 0, 57, 50
1, 21964, Control_c, 0, 64, 127
1, 22195, Control_c, 0, 64, 124
1, 22209, Control_c, 0, 64, 100
1, 22224, Control_c, 0, 64, 88
1, 22239, Control_c, 0, 64, 79
1, 22254, Control_c, 0, 64, 74
1, 22269, Control_c, 0, 64, 68
1, 22283, Control_c, 0, 64, 63
1, 22298, Control_c, 0, 64, 56
1, 22313, Control_c, 0, 64, 49
1, 22327, Control_c, 0, 64, 42
1, 22342, Control_c, 0, 64, 29
1, 22357, Control_c, 0, 64, 0
1, 22686, Note_on_c, 0, 69, 86
1, 22691, Note_on_c, 0, 60, 80
1, 22692, Note_on_c, 0, 52, 75
1, 22695, Note_on_c, 0, 45, 67
1, 22713, Note_off_c, 0, 60, 68
1, 22752, Note_off_c, 0, 52, 64
1, 22780, Note_on_c, 0, 53, 66
1, 22791, Note_on_c, 0, 68, 71
1, 22796, Note_off_c, 0, 69, 63
1, 22797, Note_on_c, 0, 59, 63
1, 22853, Note_off_c, 0, 59, 50
1, 22872, Note_off_c, 0, 53, 60
1, 22872, Note_off_c, 0, 68, 63
1, 22904, Note_on_c, 0, 52, 62
1, 22910, Note_on_c, 0, 60, 72
1, 22917, Note_on_c, 0, 69, 73
1, 22949, Note_off_c, 0, 60, 58
1, 22970, Note_off_c, 0, 52, 65
1, 23001, Note_on_c, 0, 53, 66
1, 23001, Note_off_c, 0, 69, 62
1, 23010, Note_on_c, 0, 68, 70
1, 23020, Note_on_c, 0, 59, 65
1, 23062, Note_off_c, 0, 59, 58
1, 23070, Note_off_c, 0, 68, 65
1, 23095, Note_off_c, 0, 53, 58
1, 23107, Note_on_c, 0, 52, 74
1, 23111, Note_on_c, 0, 60, 79
1, 23113, Note_on_c, 0, 69, 78
1, 23149, Note_off_c, 0, 60, 59
1, 23188, Note_off_c, 0, 52, 61
1, 23191, Note_off_c, 0, 69, 52
1, 23205, Note_on_c, 0, 53, 76
1, 23210, Note_on_c, 0, 68, 72
1, 23217, Note_on_c, 0, 59, 76
1, 23247, Note_off_c, 0, 68, 60
1, 23281, Note_off_c, 0, 59, 48
1, 23286, Note_off_c, 0, 53, 61
1, 23304, Note_on_c, 0, 69, 77
1, 23307, Note_on_c, 0, 52, 72
1, 23315, Note_on_c, 0, 60, 55
1, 23317, Note_off_c, 0, 45, 54
1, 23332, Note_off_c, 0, 52, 68
1, 23336, Note_off_c, 0, 69, 66
1, 23337, Note_off_c, 0, 60, 57
1, 23394, Note_on_c, 0, 48, 78
1, 23405, Note_on_c, 0, 72, 89
1, 23409, Note_on_c, 0, 64, 79
1, 23432, Note_off_c, 0, 64, 70
1, 23437, Note_off_c, 0, 48, 63
1, 23444, Note_off_c, 0, 72, 61
1, 23494, Note_on_c, 0, 47, 79
1, 23494, Note_on_c, 0, 40, 75
1, 23500, Note_on_c, 0, 76, 84
1, 23512, Note_on_c, 0, 68, 76
1, 23557, Note_off_c, 0, 68, 63
1, 23566, Note_off_c, 0, 47, 63
1, 23608, Note_on_c, 0, 48, 68
1, 23611, Note_on_c, 0, 75, 77
1, 23612, Note_off_c, 0, 76, 65
1, 23616, Note_on_c, 0, 66, 69
1, 23668, Note_off_c, 0, 66, 58
1, 23702, Note_off_c, 0, 75, 61
1, 23704, Note_off_c, 0, 48, 60
1, 23710, Note_on_c, 0, 76, 76
1, 23713, Note_on_c, 0, 47, 72
1, 23716, Note_on_c, 0, 68, 62
1, 23776, Note_off_c, 0, 68, 63
1, 23792, Note_off_c, 0, 47, 62
1, 23807, Note_off_c, 0, 76, 65
1, 23808, Note_on_c, 0, 48, 75
1, 23814, Note_on_c, 0, 66, 73
1, 23815, Note_on_c, 0, 75, 76
1, 23875, Note_off_c, 0, 66, 59
1, 23892, Note_off_c, 0, 48, 61
1, 23903, Note_off_c, 0, 75, 57
1, 23905, Note_on_c, 0, 76, 81
1, 23912, Note_on_c, 0, 47, 84
1, 23913, Note_on_c, 0, 68, 75
1, 23959, Note_off_c, 0, 68, 63
1, 23980, Note_off_c, 0, 76, 58
1, 24003, Note_on_c, 0, 48, 78
1, 24004, Note_on_c, 0, 66, 87
1, 24004, Note_off_c, 0, 47, 61
1, 24004, Note_on_c, 0, 75, 84
1, 24060, Note_off_c, 0, 66, 65
1, 24076, Note_off_c, 0, 75, 53
1, 24082, Note_off_c, 0, 48, 63
1, 24096, Note_on_c, 0, 76, 82
1, 24097, Note_on_c, 0, 68, 82
1, 24109, Note_on_c, 0, 47, 85
1, 24117, Note_off_c, 0, 68, 70
1, 24136, Note_off_c, 0, 76, 66
1, 24147, Note_off_c, 0, 40, 57
1, 24186, Note_off_c, 0, 47, 64
1, 24194, Note_on_c, 0, 53, 78
1, 24195, Note_on_c, 0, 80, 93
1, 24201, Note_on_c, 0, 71, 86
1, 24229, Note_off_c, 0, 71, 60
1, 24235, Note_off_c, 0, 53, 64
1, 24245, Note_off_c, 0, 80, 63
1, 24293, Note_on_c, 0, 52, 79
1, 24293, Note_on_c, 0, 81, 93
1, 24298, Note_on_c, 0, 45, 69
1, 24298, Note_on_c, 0, 72, 87
1, 24338, Note_off_c, 0, 72, 63
1, 24380, Note_off_c, 0, 52, 61
1, 24397, Note_on_c, 0, 71, 75
1, 24399, Note_on_c, 0, 80, 79
1, 24400, Note_on_c, 0, 53, 69
1, 24409, Note_off_c, 0, 81, 59
1, 24460, Note_off_c, 0, 71, 57
1, 24482, Note_off_c, 0, 80, 50
1, 24483, Note_off_c, 0, 53, 59
1, 24499, Note_on_c, 0, 52, 75
1, 24502, Note_on_c, 0, 81, 78
1, 24503, Note_on_c, 0, 72, 75
1, 24557, Note_off_c, 0, 72, 64
1, 24576, Note_off_c, 0, 52, 64
1, 24591, Note_on_c, 0, 53, 74
1, 24594, Note_on_c, 0, 80, 79
1, 24599, Note_on_c, 0, 71, 73
1, 24606, Note_off_c, 0, 81, 61
1, 24661, Note_off_c, 0, 80, 63
1, 24666, Note_off_c, 0, 71, 53
1, 24672, Note_off_c, 0, 53, 64
1, 24687, Note_on_c, 0, 52, 84
1, 24692, Note_on_c, 0, 81, 87
1, 24693, Note_on_c, 0, 72, 84
1, 24736, Note_off_c, 0, 72, 65
1, 24769, Note_off_c, 0, 52, 61
1, 24781, Note_on_c, 0, 53, 81
1, 24784, Note_on_c, 0, 80, 83
1, 24785, Note_on_c, 0, 71, 84
1, 24785, Note_off_c, 0, 81, 56
1, 24830, Note_off_c, 0, 80, 63
1, 24837, Note_off_c, 0, 71, 58
1, 24874, Note_off_c, 0, 53, 62
1, 24877, Note_on_c, 0, 52, 85
1, 24877, Note_on_c, 0, 81, 93
1, 24878, Note_on_c, 0, 72, 81
1, 24898, Note_off_c, 0, 72, 73
1, 24903, Note_off_c, 0, 52, 71
1, 24905, Note_off_c, 0, 45, 53
1, 24918, Note_off_c, 0, 81, 65
1, 24970, Note_on_c, 0, 48, 84
1, 24976, Note_on_c, 0, 84, 93
1, 24976, Note_on_c, 0, 76, 85
1, 25012, Note_off_c, 0, 76, 64
1, 25019, Note_off_c, 0, 84, 63
1, 25023, Note_off_c, 0, 48, 65
1, 25066, Note_on_c, 0, 88, 87
1, 25068, Note_on_c, 0, 47, 85
1, 25074, Note_on_c, 0, 80, 86
1, 25076, Note_on_c, 0, 40, 74
1, 25137, Note_off_c, 0, 80, 65
1, 25158, Note_off_c, 0, 47, 60
1, 25172, Note_on_c, 0, 48, 84
1, 25176, Note_on_c, 0, 78, 88
1, 25178, Note_on_c, 0, 87, 82
1, 25187, Note_off_c, 0, 88, 62
1, 25236, Note_off_c, 0, 78, 57
1, 25247, Note_off_c, 0, 48, 63
1, 25260, Note_on_c, 0, 47, 80
1, 25270, Note_on_c, 0, 88, 84
1, 25272, Note_on_c, 0, 80, 80
1, 25276, Note_off_c, 0, 87, 61
1, 25337, Note_off_c, 0, 80, 61
1, 25351, Note_on_c, 0, 48, 79
1, 25351, Note_off_c, 0, 40, 59
1, 25353, Note_off_c, 0, 47, 64
1, 25360, Note_on_c, 0, 78, 90
1, 25365, Note_on_c, 0, 87, 77
1, 25365, Note_off_c, 0, 88, 62
1, 25392, Note_off_c, 0, 87, 67
1, 25402, Note_off_c, 0, 78, 63
1, 25406, Note_off_c, 0, 48, 64
1, 25459, Note_on_c, 0, 47, 85
1, 25461, Note_on_c, 0, 40, 81
1, 25462, Note_on_c, 0, 88, 94
1, 25464, Note_on_c, 0, 80, 87
1, 25501, Control_c, 0, 64, 73
1, 25512, Note_off_c, 0, 80, 63
1, 25516, Control_c, 0, 64, 127
1, 25531, Note_off_c, 0, 40, 63
1, 25543, Note_off_c, 0, 47, 57
1, 25549, Note_on_c, 0, 83, 71
1, 25554, Note_on_c, 0, 52, 78
1, 25554, Note_on_c, 0, 76, 75
1, 25560, Note_off_c, 0, 88, 63
1, 25576, Note_off_c, 0, 83, 65
1, 25578, Note_off_c, 0, 52, 71
1, 25599, Note_off_c, 0, 76, 64
1, 25649, Control_c, 0, 64, 107
1, 25664, Note_on_c, 0, 59, 81
1, 25664, Control_c, 0, 64, 70
1, 25665, Note_on_c, 0, 76, 92
1, 25665, Note_on_c, 0, 83, 80
1, 25671, Note_on_c, 0, 52, 72
1, 25679, Control_c, 0, 64, 0
1, 25686, Note_on_c, 0, 81, 53
1, 25687, Note_off_c, 0, 81, 127
1, 25739, Control_c, 0, 64, 71
1, 25753, Control_c, 0, 64, 127
1, 25757, Note_on_c, 0, 64, 86
1, 25762, Note_on_c, 0, 80, 86
1, 25763, Note_on_c, 0, 71, 82
1, 25764, Note_off_c, 0, 76, 62
1, 25767, Note_off_c, 0, 52, 60
1, 25775, Note_off_c, 0, 83, 63
1, 25779, Note_off_c, 0, 59, 62
1, 25794, Note_off_c, 0, 64, 64
1, 25804, Note_off_c, 0, 71, 56
1, 25812, Note_off_c, 0, 80, 63
1, 25923, Note_on_c, 0, 81, 90
1, 25924, Note_on_c, 0, 72, 87
1, 25925, Note_on_c, 0, 64, 80
1, 25927, Note_on_c, 0, 57, 72
1, 25927, Note_on_c, 0, 60, 76
1, 25968, Control_c, 0, 64, 108
1, 25972, Note_off_c, 0, 72, 63
1, 25974, Note_off_c, 0, 64, 64
1, 25983, Control_c, 0, 64, 89
1, 25998, Control_c, 0, 64, 75
1, 25999, Note_on_c, 0, 62, 73
1, 26001, Note_off_c, 0, 60, 52
1, 26013, Control_c, 0, 64, 65
1, 26019, Note_on_c, 0, 65, 77
1, 26027, Control_c, 0, 64, 48
1, 26030, Note_on_c, 0, 71, 78
1, 26032, Note_on_c, 0, 80, 80
1, 26039, Note_off_c, 0, 81, 61
1, 26042, Control_c, 0, 64, 0
1, 26100, Note_off_c, 0, 65, 63
1, 26101, Note_off_c, 0, 71, 54
1, 26123, Note_off_c, 0, 62, 59
1, 26126, Note_on_c, 0, 60, 62
1, 26126, Note_on_c, 0, 64, 70
1, 26139, Note_on_c, 0, 81, 85
1, 26141, Note_off_c, 0, 80, 61
1, 26144, Note_on_c, 0, 72, 78
1, 26201, Note_off_c, 0, 72, 65
1, 26202, Note_off_c, 0, 64, 63
1, 26215, Note_off_c, 0, 60, 62
1, 26235, Note_on_c, 0, 62, 65
1, 26235, Note_on_c, 0, 65, 72
1, 26246, Note_off_c, 0, 81, 59
1, 26247, Note_on_c, 0, 80, 83
1, 26255, Note_on_c, 0, 71, 74
1, 26296, Note_off_c, 0, 65, 63
1, 26308, Note_off_c, 0, 71, 58
1, 26319, Note_off_c, 0, 80, 61
1, 26329, Note_on_c, 0, 64, 74
1, 26331, Note_off_c, 0, 62, 59
1, 26341, Note_on_c, 0, 60, 60
1, 26342, Note_on_c, 0, 72, 80
1, 26344, Note_on_c, 0, 81, 81
1, 26355, Note_off_c, 0, 57, 0
1, 26355, Note_on_c, 0, 57, 3
1, 26389, Note_off_c, 0, 72, 63
1, 26400, Note_off_c, 0, 64, 61
1, 26413, Note_off_c, 0, 60, 61
1, 26428, Note_on_c, 0, 62, 72
1, 26431, Note_on_c, 0, 80, 83
1, 26431, Note_off_c, 0, 81, 58
1, 26433, Note_on_c, 0, 65, 74
1, 26438, Note_on_c, 0, 71, 77
1, 26493, Note_off_c, 0, 80, 61
1, 26504, Note_off_c, 0, 71, 49
1, 26508, Note_off_c, 0, 65, 64
1, 26521, Note_on_c, 0, 64, 71
1, 26527, Note_on_c, 0, 72, 81
1, 26528, Note_on_c, 0, 81, 84
1, 26535, Note_on_c, 0, 60, 67
1, 26544, Note_off_c, 0, 62, 60
1, 26547, Note_off_c, 0, 64, 68
1, 26547, Note_off_c, 0, 72, 73
1, 26565, Note_off_c, 0, 60, 65
1, 26566, Note_off_c, 0, 57, 57
1, 26571, Note_off_c, 0, 81, 60
1, 26637, Note_on_c, 0, 60, 75
1, 26638, Note_on_c, 0, 84, 87
1, 26641, Note_on_c, 0, 76, 80
1, 26667, Note_off_c, 0, 76, 68
1, 26670, Note_off_c, 0, 60, 63
1, 26672, Note_on_c, 0, 57, 35
1, 26684, Note_off_c, 0, 84, 62
1, 26704, Note_off_c, 0, 57, 34
1, 26732, Note_on_c, 0, 88, 90
1, 26741, Note_on_c, 0, 59, 80
1, 26743, Note_on_c, 0, 80, 89
1, 26747, Note_on_c, 0, 52, 79
1, 26763, Note_on_c, 0, 56, 62
1, 26792, Note_off_c, 0, 80, 66
1, 26798, Note_off_c, 0, 59, 63
1, 26836, Note_on_c, 0, 57, 59
1, 26839, Note_on_c, 0, 78, 83
1, 26839, Note_off_c, 0, 56, 59
1, 26839, Note_on_c, 0, 87, 81
1, 26845, Note_on_c, 0, 60, 69
1, 26849, Note_off_c, 0, 88, 60
1, 26904, Note_off_c, 0, 60, 55
1, 26908, Note_off_c, 0, 78, 53
1, 26934, Note_on_c, 0, 59, 64
1, 26937, Note_on_c, 0, 88, 75
1, 26940, Note_off_c, 0, 87, 61
1, 26941, Note_on_c, 0, 80, 72
1, 26945, Note_off_c, 0, 57, 60
1, 26969, Note_on_c, 0, 56, 53
1, 27000, Note_off_c, 0, 59, 60
1, 27012, Note_off_c, 0, 80, 62
1, 27015, Note_off_c, 0, 56, 57
1, 27030, Note_on_c, 0, 60, 67
1, 27033, Note_on_c, 0, 57, 59
1, 27037, Note_on_c, 0, 78, 80
1, 27040, Note_on_c, 0, 87, 83
1, 27041, Note_off_c, 0, 88, 62
1, 27112, Note_off_c, 0, 78, 55
1, 27113, Note_off_c, 0, 60, 60
1, 27116, Note_on_c, 0, 59, 74
1, 27127, Note_off_c, 0, 57, 61
1, 27131, Note_on_c, 0, 88, 82
1, 27132, Note_on_c, 0, 80, 81
1, 27137, Note_on_c, 0, 56, 60
1, 27137, Note_off_c, 0, 87, 63
1, 27185, Note_off_c, 0, 59, 61
1, 27191, Note_off_c, 0, 80, 63
1, 27209, Note_off_c, 0, 56, 60
1, 27215, Note_on_c, 0, 57, 64
1, 27227, Note_on_c, 0, 78, 91
1, 27228, Note_on_c, 0, 87, 91
1, 27232, Note_off_c, 0, 88, 62
1, 27233, Note_on_c, 0, 60, 73
1, 27286, Note_off_c, 0, 78, 59
1, 27297, Note_off_c, 0, 60, 62
1, 27301, Note_on_c, 0, 59, 67
1, 27310, Note_off_c, 0, 57, 61
1, 27314, Note_on_c, 0, 56, 60
1, 27317, Note_on_c, 0, 88, 83
1, 27318, Note_on_c, 0, 80, 86
1, 27325, Note_off_c, 0, 59, 67
1, 27325, Note_off_c, 0, 87, 63
1, 27332, Note_off_c, 0, 52, 64
1, 27334, Note_off_c, 0, 56, 62
1, 27346, Note_off_c, 0, 80, 71
1, 27364, Note_off_c, 0, 88, 62
1, 27410, Note_on_c, 0, 50, 80
1, 27414, Note_on_c, 0, 53, 73
1, 27419, Note_on_c, 0, 92, 104
1, 27426, Note_on_c, 0, 83, 86
1, 27447, Note_off_c, 0, 53, 65
1, 27459, Note_off_c, 0, 83, 60
1, 27460, Note_off_c, 0, 50, 59
1, 27467, Note_off_c, 0, 92, 67
1, 27516, Note_on_c, 0, 93, 104
1, 27519, Note_on_c, 0, 52, 80
1, 27519, Note_on_c, 0, 45, 77
1, 27520, Note_on_c, 0, 48, 75
1, 27521, Note_on_c, 0, 84, 90
1, 27564, Note_off_c, 0, 84, 65
1, 27574, Note_off_c, 0, 52, 65
1, 27608, Note_on_c, 0, 50, 71
1, 27612, Note_off_c, 0, 48, 62
1, 27613, Note_on_c, 0, 53, 77
1, 27613, Note_on_c, 0, 92, 89
1, 27615, Note_on_c, 0, 83, 80
1, 27633, Note_off_c, 0, 93, 61
1, 27673, Note_off_c, 0, 92, 66
1, 27677, Note_off_c, 0, 53, 59
1, 27685, Note_off_c, 0, 83, 51
1, 27703, Note_off_c, 0, 50, 60
1, 27712, Note_on_c, 0, 93, 86
1, 27712, Note_on_c, 0, 52, 74
1, 27721, Note_on_c, 0, 84, 79
1, 27732, Note_on_c, 0, 48, 60
1, 27771, Note_off_c, 0, 84, 64
1, 27775, Note_off_c, 0, 52, 64
1, 27785, Note_off_c, 0, 48, 59
1, 27807, Note_on_c, 0, 50, 70
1, 27812, Note_on_c, 0, 53, 69
1, 27812, Note_on_c, 0, 92, 85
1, 27814, Note_on_c, 0, 83, 77
1, 27827, Note_off_c, 0, 93, 61
1, 27877, Note_off_c, 0, 92, 65
1, 27895, Note_off_c, 0, 53, 61
1, 27901, Note_on_c, 0, 52, 78
1, 27909, Note_off_c, 0, 50, 62
1, 27910, Note_on_c, 0, 48, 63
1, 27911, Note_on_c, 0, 84, 86
1, 27911, Note_on_c, 0, 93, 94
1, 27924, Note_off_c, 0, 83, 61
1, 27954, Note_off_c, 0, 84, 65
1, 27972, Note_off_c, 0, 52, 62
1, 27984, Note_off_c, 0, 48, 60
1, 28001, Note_on_c, 0, 92, 86
1, 28003, Note_on_c, 0, 50, 72
1, 28007, Note_on_c, 0, 83, 88
1, 28008, Note_on_c, 0, 53, 77
1, 28018, Note_off_c, 0, 93, 61
1, 28049, Note_off_c, 0, 92, 66
1, 28084, Note_off_c, 0, 53, 63
1, 28098, Note_on_c, 0, 52, 73
1, 28103, Note_on_c, 0, 93, 92
1, 28105, Note_on_c, 0, 84, 85
1, 28106, Note_on_c, 0, 48, 68
1, 28112, Note_off_c, 0, 83, 60
1, 28115, Note_off_c, 0, 50, 61
1, 28124, Note_off_c, 0, 52, 68
1, 28124, Note_off_c, 0, 84, 72
1, 28134, Note_off_c, 0, 48, 66
1, 28137, Note_off_c, 0, 45, 60
1, 28145, Note_off_c, 0, 93, 62
1, 28198, Note_on_c, 0, 48, 77
1, 28203, Note_on_c, 0, 45, 77
1, 28203, Note_on_c, 0, 88, 95
1, 28203, Note_on_c, 0, 96, 95
1, 28240, Note_off_c, 0, 88, 65
1, 28243, Note_off_c, 0, 45, 59
1, 28243, Note_off_c, 0, 48, 64
1, 28246, Note_off_c, 0, 96, 65
1, 28296, Note_on_c, 0, 47, 85
1, 28302, Note_on_c, 0, 100, 92
1, 28307, Note_on_c, 0, 92, 93
1, 28311, Note_on_c, 0, 40, 72
1, 28335, Note_on_c, 0, 43, 39
1, 28362, Note_off_c, 0, 47, 60
1, 28372, Note_off_c, 0, 43, 46
1, 28374, Note_off_c, 0, 92, 64
1, 28404, Note_on_c, 0, 45, 59
1, 28406, Note_on_c, 0, 90, 94
1, 28413, Note_on_c, 0, 99, 87
1, 28414, Note_on_c, 0, 48, 73
1, 28432, Note_off_c, 0, 100, 64
1, 28465, Note_off_c, 0, 90, 61
1, 28499, Note_on_c, 0, 100, 85
1, 28506, Note_on_c, 0, 92, 89
1, 28508, Note_off_c, 0, 99, 62
1, 28511, Note_off_c, 0, 48, 64
1, 28512, Note_on_c, 0, 47, 67
1, 28532, Note_on_c, 0, 44, 59
1, 28546, Note_off_c, 0, 45, 59
1, 28583, Note_off_c, 0, 92, 58
1, 28589, Note_off_c, 0, 40, 55
1, 28599, Note_on_c, 0, 90, 93
1, 28601, Note_on_c, 0, 99, 86
1, 28604, Note_on_c, 0, 48, 70
1, 28612, Note_off_c, 0, 47, 60
1, 28613, Note_off_c, 0, 100, 63
1, 28625, Note_off_c, 0, 44, 61
1, 28642, Note_off_c, 0, 90, 64
1, 28642, Note_off_c, 0, 99, 65
1, 28660, Note_off_c, 0, 48, 63
1, 28702, Note_on_c, 0, 92, 89
1, 28703, Note_on_c, 0, 40, 69
1, 28705, Note_on_c, 0, 47, 71
1, 28705, Note_on_c, 0, 100, 96
1, 28706, Note_on_c, 0, 44, 53
1, 28719, Control_c, 0, 64, 69
1, 28734, Control_c, 0, 64, 127
1, 28756, Note_off_c, 0, 92, 65
1, 28764, Note_off_c, 0, 40, 61
1, 28784, Note_off_c, 0, 44, 60
1, 28786, Note_on_c, 0, 52, 73
1, 28786, Note_off_c, 0, 47, 62
1, 28796, Note_on_c, 0, 95, 78
1, 28800, Note_off_c, 0, 100, 64
1, 28813, Note_on_c, 0, 88, 74
1, 28813, Note_off_c, 0, 52, 69
1, 28824, Note_off_c, 0, 95, 67
1, 28848, Note_off_c, 0, 88, 63
1, 28890, Control_c, 0, 64, 81
1, 28900, Note_on_c, 0, 59, 75
1, 28904, Control_c, 0, 64, 40
1, 28906, Note_on_c, 0, 52, 61
1, 28918, Note_on_c, 0, 88, 80
1, 28919, Control_c, 0, 64, 0
1, 28923, Note_on_c, 0, 95, 77
1, 28932, Note_on_c, 0, 93, 79
1, 28949, Control_c, 0, 64, 27
1, 28964, Control_c, 0, 64, 73
1, 28978, Control_c, 0, 64, 127
1, 29012, Note_on_c, 0, 64, 82
1, 29017, Note_on_c, 0, 83, 79
1, 29017, Note_on_c, 0, 92, 85
1, 29022, Note_off_c, 0, 93, 58
1, 29023, Note_off_c, 0, 95, 66
1, 29024, Note_off_c, 0, 88, 62
1, 29027, Note_off_c, 0, 52, 62
1, 29037, Note_off_c, 0, 59, 64
1, 29038, Note_off_c, 0, 92, 72
1, 29039, Note_off_c, 0, 64, 67
1, 29040, Note_off_c, 0, 83, 65
1, 29244, Control_c, 0, 64, 105
1, 29259, Control_c, 0, 64, 92
1, 29266, Note_on_c, 0, 73, 63
1, 29266, Note_on_c, 0, 81, 63
1, 29270, Note_on_c, 0, 57, 52
1, 29275, Control_c, 0, 64, 85
1, 29284, Note_on_c, 0, 64, 47
1, 29289, Note_on_c, 0, 61, 53
1, 29290, Control_c, 0, 64, 81
1, 29305, Control_c, 0, 64, 78
1, 29319, Control_c, 0, 64, 73
1, 29332, Note_off_c, 0, 73, 55
1, 29334, Control_c, 0, 64, 65
1, 29335, Note_off_c, 0, 64, 44
1, 29342, Note_off_c, 0, 61, 52
1, 29349, Control_c, 0, 64, 56
1, 29363, Control_c, 0, 64, 42
1, 29369, Note_on_c, 0, 65, 55
1, 29370, Note_off_c, 0, 81, 58
1, 29371, Note_on_c, 0, 71, 60
1, 29372, Note_on_c, 0, 80, 69
1, 29378, Control_c, 0, 64, 0
1, 29385, Note_on_c, 0, 62, 51
1, 29426, Note_off_c, 0, 71, 48
1, 29464, Note_off_c, 0, 65, 64
1, 29467, Note_off_c, 0, 62, 62
1, 29472, Note_on_c, 0, 64, 61
1, 29474, Note_on_c, 0, 73, 69
1, 29475, Note_on_c, 0, 61, 54
1, 29475, Note_on_c, 0, 81, 77
1, 29480, Note_off_c, 0, 80, 61
1, 29540, Control_c, 0, 64, 12
1, 29547, Note_off_c, 0, 61, 61
1, 29550, Note_off_c, 0, 64, 61
1, 29550, Note_off_c, 0, 73, 60
1, 29555, Control_c, 0, 64, 67
1, 29570, Control_c, 0, 64, 86
1, 29571, Note_on_c, 0, 71, 72
1, 29571, Note_on_c, 0, 80, 81
1, 29575, Note_off_c, 0, 81, 60
1, 29575, Note_on_c, 0, 62, 62
1, 29581, Note_on_c, 0, 65, 70
1, 29592, Control_c, 0, 64, 127
1, 29659, Note_off_c, 0, 65, 64
1, 29667, Note_on_c, 0, 73, 78
1, 29669, Note_on_c, 0, 61, 64
1, 29670, Note_off_c, 0, 62, 59
1, 29672, Note_on_c, 0, 64, 54
1, 29673, Note_off_c, 0, 80, 37
1, 29674, Note_on_c, 0, 81, 80
1, 29679, Note_off_c, 0, 71, 36
1, 29687, Note_off_c, 0, 73, 71
1, 29688, Note_off_c, 0, 57, 59
1, 29689, Note_off_c, 0, 61, 60
1, 29697, Note_off_c, 0, 64, 57
1, 29707, Note_off_c, 0, 81, 60
1, 29769, Note_on_c, 0, 59, 53
1, 29771, Note_on_c, 0, 62, 66
1, 29772, Note_on_c, 0, 83, 85
1, 29775, Note_on_c, 0, 74, 76
1, 29803, Note_on_c, 0, 60, 29
1, 29811, Note_off_c, 0, 74, 58
1, 29838, Note_off_c, 0, 60, 32
1, 29862, Note_off_c, 0, 62, 53
1, 29867, Note_on_c, 0, 61, 73
1, 29869, Note_on_c, 0, 57, 57
1, 29869, Note_off_c, 0, 59, 62
1, 29876, Note_on_c, 0, 85, 79
1, 29882, Note_on_c, 0, 76, 79
1, 29907, Note_off_c, 0, 83, 57
1, 29926, Note_on_c, 0, 55, 60
1, 29960, Note_on_c, 0, 58, 75
1, 29963, Note_off_c, 0, 61, 62
1, 29969, Note_on_c, 0, 88, 82
1, 29973, Note_on_c, 0, 79, 78
1, 29978, Note_off_c, 0, 57, 60
1, 29980, Note_off_c, 0, 55, 58
1, 29980, Note_off_c, 0, 76, 64
1, 29986, Note_off_c, 0, 85, 60
1, 29995, Note_off_c, 0, 58, 64
1, 30001, Note_off_c, 0, 79, 63
1, 30014, Note_off_c, 0, 88, 63
1, 30067, Control_c, 0, 64, 97
1, 30082, Control_c, 0, 64, 75
1, 30097, Control_c, 0, 64, 38
1, 30099, Note_on_c, 0, 57, 58
1, 30101, Note_on_c, 0, 50, 62
1, 30109, Note_on_c, 0, 89, 82
1, 30112, Note_on_c, 0, 81, 82
1, 30112, Control_c, 0, 64, 0
1, 30136, Note_on_c, 0, 53, 26
1, 30169, Note_off_c, 0, 81, 59
1, 30175, Note_on_c, 0, 55, 50
1, 30175, Note_off_c, 0, 57, 61
1, 30186, Control_c, 0, 64, 48
1, 30198, Note_off_c, 0, 53, 46
1, 30201, Control_c, 0, 64, 71
1, 30203, Note_on_c, 0, 88, 80
1, 30208, Note_on_c, 0, 79, 81
1, 30215, Control_c, 0, 64, 94
1, 30222, Note_off_c, 0, 89, 65
1, 30230, Control_c, 0, 64, 127
1, 30246, Note_on_c, 0, 58, 63
1, 30254, Note_off_c, 0, 79, 59
1, 30291, Note_off_c, 0, 55, 54
1, 30291, Note_off_c, 0, 58, 60
1, 30294, Note_on_c, 0, 57, 71
1, 30298, Note_on_c, 0, 53, 67
1, 30301, Note_on_c, 0, 81, 87
1, 30302, Note_on_c, 0, 89, 86
1, 30320, Note_off_c, 0, 88, 59
1, 30351, Note_off_c, 0, 81, 62
1, 30389, Note_off_c, 0, 57, 60
1, 30395, Note_on_c, 0, 58, 77
1, 30395, Note_off_c, 0, 50, 56
1, 30397, Note_on_c, 0, 55, 61
1, 30406, Note_on_c, 0, 79, 85
1, 30406, Note_on_c, 0, 88, 80
1, 30413, Note_off_c, 0, 89, 64
1, 30417, Note_off_c, 0, 53, 63
1, 30425, Note_off_c, 0, 58, 61
1, 30433, Note_off_c, 0, 55, 57
1, 30442, Note_off_c, 0, 79, 57
1, 30444, Note_off_c, 0, 88, 59
1, 30493, Note_on_c, 0, 57, 77
1, 30496, Note_on_c, 0, 53, 64
1, 30500, Note_on_c, 0, 89, 93
1, 30502, Note_on_c, 0, 81, 89
1, 30509, Note_on_c, 0, 50, 71
1, 30519, Control_c, 0, 64, 101
1, 30534, Control_c, 0, 64, 82
1, 30548, Control_c, 0, 64, 68
1, 30556, Note_off_c, 0, 81, 57
1, 30563, Note_off_c, 0, 53, 65
1, 30563, Control_c, 0, 64, 48
1, 30573, Note_off_c, 0, 50, 61
1, 30578, Control_c, 0, 64, 0
1, 30580, Note_off_c, 0, 57, 62
1, 30584, Note_off_c, 0, 89, 64
1, 30594, Note_on_c, 0, 77, 72
1, 30594, Note_on_c, 0, 86, 71
1, 30595, Note_on_c, 0, 62, 69
1, 30610, Note_off_c, 0, 86, 69
1, 30622, Note_off_c, 0, 77, 66
1, 30626, Note_off_c, 0, 62, 64
1, 30694, Note_on_c, 0, 65, 71
1, 30711, Note_on_c, 0, 74, 81
1, 30714, Note_on_c, 0, 81, 84
1, 30761, Note_off_c, 0, 74, 65
1, 30774, Note_off_c, 0, 65, 65
1, 30787, Note_off_c, 0, 81, 57
1, 30799, Note_on_c, 0, 62, 61
1, 30801, Note_on_c, 0, 69, 79
1, 30802, Note_on_c, 0, 77, 75
1, 30832, Note_off_c, 0, 62, 64
1, 30833, Note_off_c, 0, 69, 63
1, 30834, Note_off_c, 0, 77, 59
1, 30914, Note_on_c, 0, 55, 60
1, 30914, Note_on_c, 0, 62, 66
1, 30917, Note_on_c, 0, 79, 74
1, 30918, Note_on_c, 0, 71, 68
1, 30919, Note_on_c, 0, 59, 60
1, 30962, Note_off_c, 0, 71, 55
1, 30969, Note_off_c, 0, 59, 51
1, 30976, Note_off_c, 0, 62, 58
1, 30995, Note_on_c, 0, 60, 58
1, 31006, Note_on_c, 0, 69, 74
1, 31006, Note_off_c, 0, 79, 61
1, 31008, Note_on_c, 0, 78, 75
1, 31034, Note_on_c, 0, 63, 75
1, 31058, Note_off_c, 0, 60, 63
1, 31081, Note_off_c, 0, 69, 58
1, 31083, Control_c, 0, 64, 12
1, 31096, Note_off_c, 0, 78, 51
1, 31105, Control_c, 0, 64, 53
1, 31111, Note_on_c, 0, 71, 76
1, 31111, Note_on_c, 0, 79, 75
1, 31112, Note_off_c, 0, 63, 60
1, 31119, Control_c, 0, 64, 65
1, 31120, Note_on_c, 0, 62, 61
1, 31134, Control_c, 0, 64, 70
1, 31137, Note_on_c, 0, 59, 21
1, 31149, Control_c, 0, 64, 78
1, 31164, Control_c, 0, 64, 83
1, 31165, Note_off_c, 0, 71, 60
1, 31179, Control_c, 0, 64, 91
1, 31180, Note_on_c, 0, 60, 70
1, 31193, Note_off_c, 0, 62, 60
1, 31194, Control_c, 0, 64, 108
1, 31200, Note_on_c, 0, 78, 81
1, 31207, Note_on_c, 0, 69, 80
1, 31209, Control_c, 0, 64, 127
1, 31213, Note_off_c, 0, 59, 40
1, 31221, Note_off_c, 0, 79, 59
1, 31227, Note_on_c, 0, 63, 66
1, 31263, Note_off_c, 0, 63, 61
1, 31266, Note_off_c, 0, 78, 60
1, 31277, Note_off_c, 0, 69, 60
1, 31298, Note_on_c, 0, 62, 67
1, 31299, Note_on_c, 0, 79, 82
1, 31303, Note_on_c, 0, 71, 75
1, 31317, Note_on_c, 0, 59, 59
1, 31327, Note_off_c, 0, 62, 65
1, 31327, Note_off_c, 0, 71, 67
1, 31332, Note_off_c, 0, 60, 31
1, 31334, Note_off_c, 0, 55, 37
1, 31345, Note_off_c, 0, 59, 64
1, 31346, Note_off_c, 0, 79, 64
1, 31402, Note_on_c, 0, 60, 72
1, 31403, Note_on_c, 0, 57, 73
1, 31404, Note_on_c, 0, 81, 91
1, 31408, Note_on_c, 0, 72, 76
1, 31435, Note_off_c, 0, 72, 65
1, 31481, Note_off_c, 0, 60, 51
1, 31504, Note_on_c, 0, 55, 67
1, 31507, Note_on_c, 0, 83, 82
1, 31511, Note_off_c, 0, 57, 58
1, 31513, Note_on_c, 0, 59, 73
1, 31513, Note_on_c, 0, 74, 77
1, 31539, Note_off_c, 0, 81, 57
1, 31577, Note_on_c, 0, 53, 48
1, 31587, Note_off_c, 0, 59, 61
1, 31595, Note_on_c, 0, 56, 74
1, 31601, Note_on_c, 0, 86, 83
1, 31602, Note_on_c, 0, 77, 78
1, 31604, Note_off_c, 0, 53, 63
1, 31605, Note_off_c, 0, 74, 61
1, 31614, Note_off_c, 0, 55, 60
1, 31616, Note_off_c, 0, 83, 57
1, 31626, Note_off_c, 0, 77, 66
1, 31635, Note_off_c, 0, 56, 62
1, 31643, Note_off_c, 0, 86, 65
1, 31653, Control_c, 0, 64, 124
1, 31669, Control_c, 0, 64, 89
1, 31684, Control_c, 0, 64, 67
1, 31699, Control_c, 0, 64, 0
1, 31722, Note_on_c, 0, 88, 88
1, 31726, Note_on_c, 0, 48, 69
1, 31728, Note_on_c, 0, 55, 74
1, 31728, Note_on_c, 0, 79, 81
1, 31742, Note_on_c, 0, 52, 62
1, 31787, Control_c, 0, 64, 11
1, 31799, Note_off_c, 0, 55, 59
1, 31799, Note_off_c, 0, 79, 62
1, 31802, Control_c, 0, 64, 71
1, 31817, Control_c, 0, 64, 103
1, 31820, Note_on_c, 0, 53, 68
1, 31822, Note_on_c, 0, 77, 83
1, 31823, Note_on_c, 0, 86, 82
1, 31832, Control_c, 0, 64, 127
1, 31850, Note_off_c, 0, 88, 62
1, 31855, Note_on_c, 0, 56, 76
1, 31880, Note_off_c, 0, 77, 61
1, 31914, Note_off_c, 0, 53, 63
1, 31915, Note_off_c, 0, 56, 60
1, 31927, Note_on_c, 0, 79, 86
1, 31927, Note_on_c, 0, 88, 88
1, 31928, Note_on_c, 0, 55, 71
1, 31942, Note_off_c, 0, 86, 58
1, 31971, Note_off_c, 0, 79, 63
1, 32002, Note_off_c, 0, 48, 53
1, 32008, Note_on_c, 0, 53, 65
1, 32010, Note_off_c, 0, 55, 60
1, 32016, Note_on_c, 0, 56, 78
1, 32017, Note_on_c, 0, 86, 76
1, 32020, Note_on_c, 0, 77, 86
1, 32035, Note_off_c, 0, 88, 63
1, 32043, Note_off_c, 0, 52, 55
1, 32053, Note_off_c, 0, 53, 61
1, 32053, Note_off_c, 0, 56, 59
1, 32060, Note_off_c, 0, 77, 57
1, 32061, Note_off_c, 0, 86, 62
1, 32121, Note_on_c, 0, 55, 73
1, 32121, Control_c, 0, 64, 95
1, 32122, Note_on_c, 0, 52, 63
1, 32124, Note_on_c, 0, 48, 71
1, 32124, Note_on_c, 0, 88, 93
1, 32124, Note_on_c, 0, 79, 87
1, 32136, Control_c, 0, 64, 75
1, 32151, Control_c, 0, 64, 58
1, 32166, Control_c, 0, 64, 0
1, 32179, Note_off_c, 0, 79, 62
1, 32187, Note_off_c, 0, 52, 61
1, 32200, Note_off_c, 0, 48, 62
1, 32202, Note_off_c, 0, 55, 61
1, 32208, Note_on_c, 0, 84, 75
1, 32208, Note_off_c, 0, 88, 61
1, 32211, Note_on_c, 0, 76, 77
1, 32220, Note_on_c, 0, 60, 68
1, 32230, Note_off_c, 0, 84, 70
1, 32240, Note_off_c, 0, 76, 67
1, 32250, Note_off_c, 0, 60, 62
1, 32318, Note_on_c, 0, 64, 64
1, 32324, Note_on_c, 0, 72, 81
1, 32326, Note_on_c, 0, 79, 80
1, 32392, Note_off_c, 0, 72, 57
1, 32403, Note_off_c, 0, 79, 56
1, 32407, Note_on_c, 0, 67, 72
1, 32408, Note_off_c, 0, 64, 63
1, 32410, Note_on_c, 0, 76, 69
1, 32431, Note_on_c, 0, 60, 70
1, 32434, Note_off_c, 0, 67, 67
1, 32439, Note_off_c, 0, 76, 67
1, 32469, Note_off_c, 0, 60, 58
1, 32540, Note_on_c, 0, 82, 74
1, 32544, Note_on_c, 0, 58, 60
1, 32546, Note_on_c, 0, 50, 52
1, 32550, Note_on_c, 0, 74, 62
1, 32562, Note_on_c, 0, 53, 41
1, 32578, Note_off_c, 0, 58, 65
1, 32603, Control_c, 0, 64, 47
1, 32617, Control_c, 0, 64, 63
1, 32622, Note_on_c, 0, 54, 59
1, 32631, Note_off_c, 0, 82, 62
1, 32632, Control_c, 0, 64, 70
1, 32633, Note_on_c, 0, 60, 64
1, 32633, Note_off_c, 0, 53, 53
1, 32638, Note_off_c, 0, 74, 56
1, 32641, Note_on_c, 0, 81, 75
1, 32647, Control_c, 0, 64, 80
1, 32650, Note_on_c, 0, 75, 66
1, 32662, Control_c, 0, 64, 96
1, 32676, Control_c, 0, 64, 127
1, 32715, Note_off_c, 0, 60, 56
1, 32722, Note_on_c, 0, 58, 81
1, 32724, Note_off_c, 0, 54, 60
1, 32726, Note_on_c, 0, 53, 37
1, 32741, Note_on_c, 0, 82, 79
1, 32741, Note_off_c, 0, 81, 56
1, 32749, Note_off_c, 0, 75, 36
1, 32750, Note_on_c, 0, 74, 70
1, 32817, Note_off_c, 0, 58, 62
1, 32818, Note_on_c, 0, 60, 80
1, 32825, Note_on_c, 0, 54, 68
1, 32831, Note_off_c, 0, 82, 61
1, 32833, Note_on_c, 0, 81, 79
1, 32834, Note_off_c, 0, 74, 66
1, 32840, Note_on_c, 0, 75, 79
1, 32845, Note_off_c, 0, 53, 64
1, 32853, Note_off_c, 0, 50, 39
1, 32862, Note_off_c, 0, 54, 59
1, 32862, Note_off_c, 0, 60, 54
1, 32862, Note_off_c, 0, 75, 65
1, 32863, Note_off_c, 0, 81, 59
1, 32914, Control_c, 0, 64, 124
1, 32929, Control_c, 0, 64, 92
1, 32932, Note_on_c, 0, 50, 73
1, 32932, Note_on_c, 0, 58, 80
1, 32938, Note_on_c, 0, 82, 92
1, 32941, Note_on_c, 0, 74, 83
1, 32943, Control_c, 0, 64, 73
1, 32947, Note_on_c, 0, 53, 53
1, 32958, Control_c, 0, 64, 52
1, 32973, Control_c, 0, 64, 0
1, 32992, Note_off_c, 0, 53, 60
1, 33002, Note_off_c, 0, 74, 59
1, 33003, Note_off_c, 0, 50, 61
1, 33030, Note_off_c, 0, 58, 63
1, 33035, Note_on_c, 0, 62, 74
1, 33036, Note_on_c, 0, 77, 75
1, 33042, Note_off_c, 0, 82, 62
1, 33076, Note_off_c, 0, 62, 60
1, 33088, Note_off_c, 0, 77, 62
1, 33135, Note_on_c, 0, 65, 73
1, 33135, Note_on_c, 0, 74, 75
1, 33144, Note_on_c, 0, 70, 79
1, 33200, Note_off_c, 0, 65, 66
1, 33216, Note_off_c, 0, 70, 64
1, 33227, Note_on_c, 0, 62, 65
1, 33236, Note_on_c, 0, 77, 72
1, 33241, Note_off_c, 0, 74, 65
1, 33260, Note_off_c, 0, 62, 64
1, 33272, Note_off_c, 0, 77, 61
1, 33345, Note_on_c, 0, 48, 58
1, 33350, Note_on_c, 0, 57, 61
1, 33353, Note_on_c, 0, 81, 78
1, 33357, Note_on_c, 0, 72, 74
1, 33361, Note_on_c, 0, 53, 58
1, 33396, Control_c, 0, 64, 37
1, 33411, Control_c, 0, 64, 67
1, 33416, Note_off_c, 0, 57, 50
1, 33426, Control_c, 0, 64, 88
1, 33440, Note_off_c, 0, 53, 64
1, 33440, Control_c, 0, 64, 127
1, 33441, Note_on_c, 0, 80, 79
1, 33441, Poly_aftertouch_c, 0, 52, 0
1, 33444, Note_on_c, 0, 74, 71
1, 33445, Note_off_c, 0, 72, 64
1, 33445, Note_on_c, 0, 59, 71
1, 33446, Note_off_c, 0, 81, 61
1, 33468, Note_off_c, 0, 74, 71
1, 33489, Note_off_c, 0, 80, 62
1, 33543, Note_on_c, 0, 57, 70
1, 33547, Note_off_c, 0, 59, 60
1, 33553, Note_on_c, 0, 53, 69
1, 33557, Note_on_c, 0, 72, 87
1, 33558, Note_on_c, 0, 81, 85
1, 33597, Note_on_c, 0, 52, 7
1, 33613, Note_off_c, 0, 53, 64
1, 33626, Note_off_c, 0, 57, 60
1, 33643, Note_on_c, 0, 80, 80
1, 33646, Note_on_c, 0, 59, 69
1, 33646, Note_on_c, 0, 74, 73
1, 33647, Note_off_c, 0, 52, 52
1, 33648, Note_off_c, 0, 72, 63
1, 33651, Note_off_c, 0, 81, 61
1, 33657, Note_off_c, 0, 48, 41
1, 33671, Note_off_c, 0, 74, 71
1, 33675, Note_off_c, 0, 80, 63
1, 33694, Note_off_c, 0, 59, 59
1, 33722, Control_c, 0, 64, 101
1, 33737, Control_c, 0, 64, 76
1, 33743, Note_on_c, 0, 48, 68
1, 33743, Note_on_c, 0, 52, 57
1, 33749, Note_on_c, 0, 57, 66
1, 33749, Note_on_c, 0, 81, 91
1, 33750, Note_on_c, 0, 72, 86
1, 33752, Control_c, 0, 64, 54
1, 33766, Control_c, 0, 64, 0
1, 33798, Note_off_c, 0, 48, 60
1, 33823, Note_off_c, 0, 52, 48
1, 33826, Note_off_c, 0, 57, 61
1, 33838, Note_on_c, 0, 76, 78
1, 33844, Note_off_c, 0, 81, 59
1, 33850, Note_off_c, 0, 72, 62
1, 33851, Note_on_c, 0, 60, 62
1, 33883, Note_off_c, 0, 60, 63
1, 33883, Note_off_c, 0, 76, 63
1, 33945, Note_on_c, 0, 72, 77
1, 33945, Note_on_c, 0, 64, 56
1, 33947, Note_on_c, 0, 69, 77
1, 34001, Note_off_c, 0, 64, 57
1, 34005, Note_off_c, 0, 69, 58
1, 34014, Note_off_c, 0, 72, 56
1, 34046, Note_on_c, 0, 60, 45
1, 34048, Note_on_c, 0, 76, 59
1, 34068, Note_off_c, 0, 76, 67
1, 34071, Note_off_c, 0, 60, 55
1, 34171, Note_on_c, 0, 81, 60
1, 34173, Note_on_c, 0, 47, 59
1, 34179, Note_on_c, 0, 53, 47
1, 34181, Note_on_c, 0, 74, 46
1, 34218, Note_off_c, 0, 74, 52
1, 34226, Note_off_c, 0, 53, 63
1, 34234, Note_off_c, 0, 47, 60
1, 34239, Note_off_c, 0, 81, 53
1, 34252, Note_on_c, 0, 77, 60
1, 34258, Note_on_c, 0, 57, 54
1, 34285, Note_off_c, 0, 77, 64
1, 34290, Note_off_c, 0, 57, 64
1, 34357, Note_on_c, 0, 74, 57
1, 34361, Note_on_c, 0, 69, 59
1, 34378, Note_on_c, 0, 62, 23
1, 34416, Note_off_c, 0, 69, 55
1, 34422, Note_off_c, 0, 62, 52
1, 34437, Note_on_c, 0, 65, 51
1, 34446, Note_on_c, 0, 77, 66
1, 34446, Note_off_c, 0, 74, 61
1, 34461, Note_off_c, 0, 65, 59
1, 34476, Note_off_c, 0, 77, 64
1, 34564, Note_on_c, 0, 80, 73
1, 34569, Note_on_c, 0, 40, 63
1, 34572, Note_on_c, 0, 71, 56
1, 34581, Note_on_c, 0, 47, 48
1, 34625, Note_off_c, 0, 40, 61
1, 34625, Note_off_c, 0, 71, 52
1, 34646, Note_off_c, 0, 47, 61
1, 34650, Note_on_c, 0, 52, 66
1, 34661, Note_on_c, 0, 76, 57
1, 34661, Note_off_c, 0, 80, 58
1, 34680, Note_off_c, 0, 52, 67
1, 34738, Note_off_c, 0, 76, 51
1, 34760, Note_on_c, 0, 52, 54
1, 34765, Note_on_c, 0, 71, 45
1, 34776, Note_on_c, 0, 68, 46
1, 34781, Note_on_c, 0, 59, 38
1, 34800, Note_off_c, 0, 68, 57
1, 34844, Note_off_c, 0, 52, 0
1, 34844, Note_on_c, 0, 52, 3
1, 34858, Note_on_c, 0, 64, 65
1, 34858, Note_on_c, 0, 76, 65
1, 34877, Note_off_c, 0, 71, 55
1, 34878, Note_off_c, 0, 52, 52
1, 34884, Note_off_c, 0, 59, 51
1, 34889, Note_off_c, 0, 64, 67
1, 34906, Note_off_c, 0, 76, 60
1, 35005, Note_on_c, 0, 81, 61
1, 35021, Note_on_c, 0, 72, 47
1, 35024, Note_on_c, 0, 52, 46
1, 35024, Note_on_c, 0, 45, 49
1, 35027, Control_c, 0, 64, 46
1, 35042, Control_c, 0, 64, 63
1, 35057, Control_c, 0, 64, 75
1, 35071, Note_off_c, 0, 45, 60
1, 35072, Control_c, 0, 64, 92
1, 35078, Note_off_c, 0, 52, 64
1, 35078, Note_off_c, 0, 72, 50
1, 35087, Control_c, 0, 64, 127
1, 35104, Note_on_c, 0, 76, 61
1, 35111, Note_on_c, 0, 57, 60
1, 35119, Note_off_c, 0, 81, 53
1, 35141, Note_off_c, 0, 57, 64
1, 35203, Note_on_c, 0, 72, 65
1, 35207, Note_on_c, 0, 60, 60
1, 35254, Note_off_c, 0, 76, 62
1, 35287, Note_off_c, 0, 72, 63
1, 35294, Note_on_c, 0, 64, 68
1, 35302, Note_on_c, 0, 69, 59
1, 35308, Note_off_c, 0, 60, 58
1, 35321, Note_off_c, 0, 64, 67
1, 35339, Note_off_c, 0, 69, 64
1, 35412, Note_on_c, 0, 64, 62
1, 35427, Control_c, 0, 64, 105
1, 35442, Control_c, 0, 64, 88
1, 35457, Control_c, 0, 64, 73
1, 35472, Control_c, 0, 64, 60
1, 35486, Control_c, 0, 64, 0
1, 35501, Note_off_c, 0, 64, 63
1, 35511, Note_on_c, 0, 60, 61
1, 35597, Note_off_c, 0, 60, 58
1, 35624, Note_on_c, 0, 45, 62
1, 35630, Note_on_c, 0, 33, 54
1, 35642, Control_c, 0, 64, 54
1, 35658, Control_c, 0, 64, 68
1, 35659, Note_off_c, 0, 33, 58
1, 35663, Note_off_c, 0, 45, 65
1, 35673, Control_c, 0, 64, 81
1, 35687, Control_c, 0, 64, 127
1, 35895, Note_on_c, 0, 57, 46
1, 35905, Note_on_c, 0, 61, 50
1, 35913, Note_on_c, 0, 81, 61
1, 35920, Note_on_c, 0, 64, 30
1, 35923, Note_on_c, 0, 73, 59
1, 35940, Control_c, 0, 64, 121
1, 35954, Control_c, 0, 64, 102
1, 35969, Control_c, 0, 64, 89
1, 35972, Note_off_c, 0, 64, 45
1, 35984, Control_c, 0, 64, 77
1, 35986, Note_off_c, 0, 61, 57
1, 35987, Note_off_c, 0, 73, 59
1, 35999, Note_on_c, 0, 62, 59
1, 35999, Control_c, 0, 64, 63
1, 36002, Note_on_c, 0, 65, 58
1, 36010, Note_on_c, 0, 80, 69
1, 36014, Control_c, 0, 64, 31
1, 36016, Note_off_c, 0, 81, 57
1, 36018, Note_on_c, 0, 71, 59
1, 36028, Control_c, 0, 64, 0
1, 36090, Note_off_c, 0, 62, 60
1, 36095, Note_on_c, 0, 64, 63
1, 36096, Note_off_c, 0, 65, 63
1, 36106, Note_on_c, 0, 73, 70
1, 36109, Note_on_c, 0, 61, 56
1, 36110, Note_off_c, 0, 71, 55
1, 36114, Note_on_c, 0, 81, 78
1, 36122, Note_off_c, 0, 80, 59
1, 36161, Control_c, 0, 64, 42
1, 36162, Note_off_c, 0, 61, 51
1, 36163, Note_off_c, 0, 64, 63
1, 36171, Note_off_c, 0, 73, 64
1, 36176, Control_c, 0, 64, 74
1, 36191, Control_c, 0, 64, 127
1, 36200, Note_on_c, 0, 62, 62
1, 36206, Note_on_c, 0, 65, 70
1, 36206, Note_on_c, 0, 80, 83
1, 36208, Note_off_c, 0, 81, 57
1, 36209, Note_on_c, 0, 71, 76
1, 36266, Note_off_c, 0, 71, 53
1, 36277, Note_off_c, 0, 65, 64
1, 36287, Note_off_c, 0, 62, 60
1, 36288, Note_on_c, 0, 61, 50
1, 36301, Note_on_c, 0, 73, 81
1, 36303, Note_off_c, 0, 57, 60
1, 36305, Note_on_c, 0, 81, 83
1, 36312, Note_off_c, 0, 80, 59
1, 36313, Note_off_c, 0, 61, 55
1, 36321, Note_off_c, 0, 73, 72
1, 36353, Note_off_c, 0, 81, 58
1, 36387, Note_on_c, 0, 62, 70
1, 36387, Note_on_c, 0, 59, 67
1, 36410, Note_on_c, 0, 83, 79
1, 36411, Note_on_c, 0, 74, 75
1, 36440, Note_off_c, 0, 74, 64
1, 36500, Note_on_c, 0, 57, 59
1, 36500, Note_off_c, 0, 62, 56
1, 36501, Note_on_c, 0, 61, 78
1, 36507, Note_off_c, 0, 59, 57
1, 36516, Note_on_c, 0, 85, 82
1, 36521, Note_on_c, 0, 76, 78
1, 36544, Note_off_c, 0, 83, 57
1, 36558, Note_on_c, 0, 55, 59
1, 36596, Note_on_c, 0, 58, 79
1, 36601, Note_off_c, 0, 61, 63
1, 36607, Note_on_c, 0, 88, 85
1, 36609, Note_on_c, 0, 79, 82
1, 36619, Note_off_c, 0, 76, 63
1, 36619, Note_off_c, 0, 57, 60
1, 36620, Note_off_c, 0, 55, 58
1, 36625, Note_off_c, 0, 85, 59
1, 36639, Note_off_c, 0, 79, 62
1, 36640, Note_off_c, 0, 58, 65
1, 36650, Note_off_c, 0, 88, 64
1, 36673, Control_c, 0, 64, 88
1, 36688, Control_c, 0, 64, 65
1, 36703, Control_c, 0, 64, 0
1, 36725, Note_on_c, 0, 57, 72
1, 36726, Note_on_c, 0, 89, 87
1, 36728, Note_on_c, 0, 81, 85
1, 36730, Note_on_c, 0, 50, 68
1, 36738, Note_on_c, 0, 53, 61
1, 36777, Control_c, 0, 64, 28
1, 36790, Note_off_c, 0, 53, 54
1, 36790, Note_off_c, 0, 57, 64
1, 36792, Control_c, 0, 64, 66
1, 36799, Note_off_c, 0, 81, 53
1, 36807, Control_c, 0, 64, 84
1, 36813, Note_on_c, 0, 55, 67
1, 36822, Control_c, 0, 64, 127
1, 36827, Note_on_c, 0, 88, 83
1, 36830, Note_on_c, 0, 79, 83
1, 36844, Note_on_c, 0, 58, 80
1, 36846, Note_off_c, 0, 89, 65
1, 36874, Note_off_c, 0, 79, 61
1, 36901, Note_off_c, 0, 55, 60
1, 36914, Note_off_c, 0, 58, 61
1, 36917, Note_on_c, 0, 57, 70
1, 36923, Note_on_c, 0, 53, 54
1, 36924, Note_on_c, 0, 81, 89
1, 36926, Note_on_c, 0, 89, 82
1, 36944, Note_off_c, 0, 88, 56
1, 36971, Note_off_c, 0, 81, 61
1, 36992, Note_off_c, 0, 57, 61
1, 37006, Note_on_c, 0, 58, 73
1, 37009, Note_on_c, 0, 55, 65
1, 37021, Note_on_c, 0, 88, 83
1, 37022, Note_on_c, 0, 79, 84
1, 37026, Note_off_c, 0, 50, 47
1, 37034, Note_off_c, 0, 89, 64
1, 37038, Note_off_c, 0, 53, 61
1, 37060, Note_off_c, 0, 58, 62
1, 37063, Note_off_c, 0, 79, 57
1, 37067, Note_off_c, 0, 88, 62
1, 37117, Note_on_c, 0, 57, 69
1, 37123, Note_on_c, 0, 53, 50
1, 37129, Note_on_c, 0, 50, 73
1, 37132, Note_on_c, 0, 81, 79
1, 37135, Note_on_c, 0, 89, 78
1, 37139, Control_c, 0, 64, 99
1, 37154, Control_c, 0, 64, 80
1, 37169, Control_c, 0, 64, 66
1, 37170, Note_off_c, 0, 55, 23
1, 37183, Control_c, 0, 64, 33
1, 37186, Note_off_c, 0, 53, 57
1, 37191, Note_off_c, 0, 81, 58
1, 37194, Note_off_c, 0, 50, 62
1, 37198, Control_c, 0, 64, 0
1, 37212, Note_off_c, 0, 89, 66
1, 37213, Note_off_c, 0, 57, 63
1, 37217, Note_on_c, 0, 86, 74
1, 37222, Note_on_c, 0, 62, 73
1, 37224, Note_on_c, 0, 77, 70
1, 37242, Note_off_c, 0, 86, 66
1, 37248, Note_off_c, 0, 77, 66
1, 37264, Note_off_c, 0, 62, 61
1, 37325, Note_on_c, 0, 65, 67
1, 37333, Note_on_c, 0, 81, 72
1, 37334, Note_on_c, 0, 74, 73
1, 37394, Note_off_c, 0, 74, 60
1, 37408, Note_off_c, 0, 65, 64
1, 37416, Note_on_c, 0, 77, 70
1, 37417, Note_on_c, 0, 62, 66
1, 37428, Note_off_c, 0, 81, 50
1, 37430, Note_on_c, 0, 69, 67
1, 37452, Note_off_c, 0, 62, 58
1, 37455, Note_off_c, 0, 77, 58
1, 37463, Note_off_c, 0, 69, 64
1, 37535, Note_on_c, 0, 79, 67
1, 37540, Note_on_c, 0, 55, 57
1, 37541, Note_on_c, 0, 71, 63
1, 37545, Note_on_c, 0, 59, 53
1, 37546, Note_on_c, 0, 62, 63
1, 37587, Note_off_c, 0, 71, 61
1, 37598, Note_off_c, 0, 59, 60
1, 37616, Note_off_c, 0, 62, 60
1, 37623, Note_on_c, 0, 60, 51
1, 37634, Note_on_c, 0, 78, 72
1, 37634, Note_off_c, 0, 79, 62
1, 37636, Note_on_c, 0, 69, 62
1, 37657, Note_on_c, 0, 63, 80
1, 37697, Note_off_c, 0, 78, 59
1, 37699, Note_off_c, 0, 60, 62
1, 37718, Control_c, 0, 64, 45
1, 37726, Note_on_c, 0, 71, 72
1, 37726, Note_off_c, 0, 69, 60
1, 37728, Note_on_c, 0, 79, 73
1, 37729, Note_off_c, 0, 63, 61
1, 37732, Control_c, 0, 64, 60
1, 37740, Note_on_c, 0, 62, 62
1, 37743, Note_on_c, 0, 59, 32
1, 37747, Control_c, 0, 64, 65
1, 37762, Control_c, 0, 64, 67
1, 37777, Control_c, 0, 64, 70
1, 37780, Note_off_c, 0, 71, 60
1, 37792, Control_c, 0, 64, 75
1, 37799, Note_off_c, 0, 62, 56
1, 37803, Note_on_c, 0, 60, 68
1, 37806, Control_c, 0, 64, 88
1, 37817, Note_off_c, 0, 59, 48
1, 37818, Note_on_c, 0, 78, 80
1, 37829, Control_c, 0, 64, 116
1, 37834, Note_on_c, 0, 69, 82
1, 37838, Note_on_c, 0, 63, 66
1, 37841, Note_off_c, 0, 79, 59
1, 37844, Control_c, 0, 64, 127
1, 37888, Note_off_c, 0, 63, 56
1, 37889, Note_off_c, 0, 78, 61
1, 37910, Note_off_c, 0, 69, 65
1, 37913, Note_on_c, 0, 62, 69
1, 37920, Note_on_c, 0, 71, 78
1, 37920, Note_on_c, 0, 79, 78
1, 37937, Note_on_c, 0, 59, 58
1, 37937, Note_off_c, 0, 62, 68
1, 37939, Note_off_c, 0, 60, 49
1, 37943, Note_off_c, 0, 71, 65
1, 37960, Note_off_c, 0, 59, 64
1, 37967, Note_off_c, 0, 79, 64
1, 37985, Note_off_c, 0, 55, 39
1, 38020, Note_on_c, 0, 57, 72
1, 38022, Note_on_c, 0, 81, 89
1, 38025, Note_on_c, 0, 72, 76
1, 38035, Note_on_c, 0, 60, 60
1, 38053, Note_off_c, 0, 72, 62
1, 38086, Note_on_c, 0, 59, 3
1, 38105, Note_off_c, 0, 60, 54
1, 38123, Note_off_c, 0, 59, 0
1, 38123, Note_on_c, 0, 59, 22
1, 38127, Note_on_c, 0, 55, 64
1, 38137, Note_on_c, 0, 74, 81
1, 38139, Note_off_c, 0, 57, 58
1, 38142, Note_on_c, 0, 83, 71
1, 38147, Note_on_c, 0, 84, 68
1, 38165, Note_off_c, 0, 81, 53
1, 38194, Note_on_c, 0, 53, 51
1, 38213, Note_on_c, 0, 56, 75
1, 38213, Note_off_c, 0, 59, 62
1, 38226, Note_on_c, 0, 86, 85
1, 38226, Note_off_c, 0, 53, 65
1, 38226, Note_off_c, 0, 74, 57
1, 38227, Note_on_c, 0, 77, 78
1, 38235, Note_off_c, 0, 55, 61
1, 38241, Note_off_c, 0, 84, 51
1, 38250, Note_off_c, 0, 83, 60
1, 38251, Note_off_c, 0, 56, 62
1, 38254, Note_off_c, 0, 77, 64
1, 38269, Note_off_c, 0, 86, 64
1, 38303, Control_c, 0, 64, 119
1, 38318, Control_c, 0, 64, 81
1, 38333, Control_c, 0, 64, 57
1, 38345, Note_on_c, 0, 88, 90
1, 38347, Note_on_c, 0, 48, 70
1, 38348, Note_on_c, 0, 55, 75
1, 38349, Control_c, 0, 64, 0
1, 38350, Note_on_c, 0, 79, 86
1, 38355, Note_on_c, 0, 52, 63
1, 38408, Control_c, 0, 64, 35
1, 38411, Note_off_c, 0, 55, 61
1, 38418, Note_off_c, 0, 79, 59
1, 38423, Control_c, 0, 64, 70
1, 38429, Note_on_c, 0, 53, 63
1, 38438, Control_c, 0, 64, 100
1, 38444, Note_on_c, 0, 77, 81
1, 38446, Note_on_c, 0, 86, 86
1, 38452, Control_c, 0, 64, 127
1, 38465, Note_off_c, 0, 52, 33
1, 38469, Note_on_c, 0, 56, 79
1, 38469, Note_off_c, 0, 88, 61
1, 38498, Note_off_c, 0, 77, 61
1, 38510, Note_off_c, 0, 53, 64
1, 38521, Note_on_c, 0, 52, 39
1, 38533, Note_on_c, 0, 55, 67
1, 38535, Note_off_c, 0, 56, 60
1, 38542, Note_on_c, 0, 79, 89
1, 38542, Note_on_c, 0, 88, 85
1, 38558, Note_off_c, 0, 86, 57
1, 38596, Note_off_c, 0, 79, 63
1, 38610, Note_on_c, 0, 53, 74
1, 38616, Note_off_c, 0, 55, 60
1, 38622, Note_off_c, 0, 48, 52
1, 38633, Note_on_c, 0, 56, 70
1, 38646, Note_on_c, 0, 77, 87
1, 38646, Note_off_c, 0, 52, 64
1, 38648, Note_on_c, 0, 86, 88
1, 38662, Note_off_c, 0, 88, 63
1, 38665, Note_off_c, 0, 56, 58
1, 38673, Note_off_c, 0, 53, 64
1, 38691, Note_off_c, 0, 86, 61
1, 38692, Note_off_c, 0, 77, 60
1, 38731, Note_on_c, 0, 55, 71
1, 38733, Note_on_c, 0, 52, 55
1, 38734, Note_on_c, 0, 48, 78
1, 38742, Note_on_c, 0, 88, 91
1, 38742, Control_c, 0, 64, 108
1, 38743, Note_on_c, 0, 79, 87
1, 38756, Control_c, 0, 64, 86
1, 38771, Control_c, 0, 64, 68
1, 38786, Control_c, 0, 64, 51
1, 38798, Note_off_c, 0, 79, 60
1, 38800, Control_c, 0, 64, 0
1, 38805, Note_off_c, 0, 52, 64
1, 38807, Note_off_c, 0, 48, 64
1, 38816, Note_off_c, 0, 55, 62
1, 38827, Note_off_c, 0, 88, 60
1, 38830, Note_on_c, 0, 76, 84
1, 38833, Note_on_c, 0, 84, 74
1, 38836, Note_on_c, 0, 60, 68
1, 38858, Note_off_c, 0, 84, 70
1, 38862, Note_off_c, 0, 76, 65
1, 38872, Note_off_c, 0, 60, 61
1, 38942, Note_on_c, 0, 79, 82
1, 38943, Note_on_c, 0, 72, 82
1, 38945, Note_on_c, 0, 64, 54
1, 39004, Note_off_c, 0, 72, 62
1, 39022, Note_off_c, 0, 79, 54
1, 39029, Note_on_c, 0, 67, 69
1, 39030, Note_on_c, 0, 76, 67
1, 39031, Note_off_c, 0, 64, 63
1, 39048, Note_off_c, 0, 67, 65
1, 39056, Note_off_c, 0, 76, 71
1, 39057, Note_on_c, 0, 60, 63
1, 39105, Note_off_c, 0, 60, 57
1, 39154, Note_on_c, 0, 82, 75
1, 39160, Note_on_c, 0, 58, 62
1, 39165, Note_on_c, 0, 74, 63
1, 39166, Note_on_c, 0, 50, 54
1, 39173, Note_on_c, 0, 53, 49
1, 39186, Control_c, 0, 64, 41
1, 39201, Control_c, 0, 64, 62
1, 39207, Note_off_c, 0, 58, 61
1, 39216, Control_c, 0, 64, 70
1, 39230, Control_c, 0, 64, 81
1, 39233, Note_off_c, 0, 82, 61
1, 39233, Note_on_c, 0, 54, 65
1, 39243, Note_on_c, 0, 60, 67
1, 39245, Control_c, 0, 64, 105
1, 39248, Note_on_c, 0, 81, 72
1, 39250, Note_off_c, 0, 74, 54
1, 39252, Note_on_c, 0, 75, 71
1, 39260, Control_c, 0, 64, 127
1, 39267, Note_off_c, 0, 53, 47
1, 39312, Note_off_c, 0, 75, 61
1, 39332, Note_off_c, 0, 54, 57
1, 39339, Note_on_c, 0, 53, 34
1, 39341, Note_off_c, 0, 60, 58
1, 39342, Note_off_c, 0, 81, 42
1, 39343, Note_on_c, 0, 58, 77
1, 39353, Note_on_c, 0, 82, 84
1, 39364, Note_on_c, 0, 74, 76
1, 39434, Note_on_c, 0, 54, 71
1, 39438, Note_off_c, 0, 58, 61
1, 39445, Note_on_c, 0, 81, 82
1, 39445, Note_on_c, 0, 75, 78
1, 39446, Note_on_c, 0, 60, 73
1, 39447, Note_off_c, 0, 74, 65
1, 39457, Note_off_c, 0, 82, 61
1, 39467, Note_off_c, 0, 53, 64
1, 39472, Note_off_c, 0, 81, 60
1, 39481, Note_off_c, 0, 50, 39
1, 39482, Note_off_c, 0, 75, 60
1, 39488, Note_off_c, 0, 60, 60
1, 39493, Note_off_c, 0, 54, 62
1, 39520, Control_c, 0, 64, 115
1, 39535, Control_c, 0, 64, 88
1, 39549, Control_c, 0, 64, 71
1, 39552, Note_on_c, 0, 58, 80
1, 39556, Note_on_c, 0, 74, 82
1, 39557, Note_on_c, 0, 82, 85
1, 39561, Note_on_c, 0, 50, 65
1, 39564, Control_c, 0, 64, 52
1, 39579, Control_c, 0, 64, 0
1, 39591, Note_on_c, 0, 53, 12
1, 39607, Note_off_c, 0, 50, 52
1, 39615, Note_off_c, 0, 74, 63
1, 39635, Note_off_c, 0, 53, 39
1, 39639, Note_off_c, 0, 58, 63
1, 39643, Note_on_c, 0, 77, 64
1, 39655, Note_on_c, 0, 62, 68
1, 39660, Note_off_c, 0, 82, 59
1, 39684, Note_on_c, 0, 76, 19
1, 39685, Note_off_c, 0, 76, 127
1, 39688, Note_off_c, 0, 62, 63
1, 39704, Note_off_c, 0, 77, 59
1, 39746, Note_on_c, 0, 65, 73
1, 39746, Note_on_c, 0, 74, 64
1, 39754, Note_on_c, 0, 70, 79
1, 39809, Note_off_c, 0, 70, 63
1, 39812, Note_off_c, 0, 65, 66
1, 39836, Note_on_c, 0, 62, 69
1, 39841, Note_on_c, 0, 77, 73
1, 39845, Note_off_c, 0, 74, 64
1, 39863, Note_off_c, 0, 62, 66
1, 39889, Note_off_c, 0, 77, 60
1, 39953, Note_on_c, 0, 48, 57
1, 39953, Note_on_c, 0, 81, 78
1, 39956, Note_on_c, 0, 72, 71
1, 39957, Note_on_c, 0, 57, 64
1, 39968, Note_on_c, 0, 53, 62
1, 39986, Note_on_c, 0, 52, 24
1, 40009, Control_c, 0, 64, 34
1, 40022, Note_off_c, 0, 52, 43
1, 40024, Control_c, 0, 64, 64
1, 40032, Note_off_c, 0, 57, 58
1, 40038, Note_on_c, 0, 80, 79
1, 40039, Control_c, 0, 64, 74
1, 40045, Note_off_c, 0, 72, 64
1, 40046, Note_on_c, 0, 74, 68
1, 40048, Note_off_c, 0, 53, 63
1, 40053, Note_off_c, 0, 81, 60
1, 40053, Control_c, 0, 64, 88
1, 40054, Note_on_c, 0, 59, 71
1, 40076, Control_c, 0, 64, 106
1, 40077, Note_off_c, 0, 74, 69
1, 40091, Control_c, 0, 64, 127
1, 40100, Note_off_c, 0, 80, 63
1, 40156, Note_off_c, 0, 59, 62
1, 40158, Note_on_c, 0, 57, 65
1, 40161, Note_on_c, 0, 72, 84
1, 40163, Note_on_c, 0, 81, 87
1, 40166, Note_on_c, 0, 53, 63
1, 40225, Poly_aftertouch_c, 0, 52, 127
1, 40235, Note_off_c, 0, 53, 63
1, 40247, Note_off_c, 0, 57, 62
1, 40250, Note_off_c, 0, 48, 60
1, 40250, Note_on_c, 0, 80, 78
1, 40251, Note_on_c, 0, 59, 67
1, 40253, Note_on_c, 0, 74, 70
1, 40254, Note_off_c, 0, 81, 62
1, 40256, Note_off_c, 0, 72, 64
1, 40266, Poly_aftertouch_c, 0, 52, 0
1, 40274, Note_off_c, 0, 74, 72
1, 40279, Note_off_c, 0, 80, 64
1, 40307, Note_off_c, 0, 59, 58
1, 40327, Control_c, 0, 64, 109
1, 40342, Control_c, 0, 64, 87
1, 40351, Note_on_c, 0, 81, 94
1, 40352, Note_on_c, 0, 52, 70
1, 40353, Note_on_c, 0, 57, 74
1, 40354, Note_on_c, 0, 48, 70
1, 40354, Note_on_c, 0, 72, 91
1, 40357, Control_c, 0, 64, 69
1, 40372, Control_c, 0, 64, 51
1, 40387, Control_c, 0, 64, 0
1, 40408, Note_off_c, 0, 48, 60
1, 40422, Note_off_c, 0, 52, 64
1, 40428, Note_off_c, 0, 57, 62
1, 40444, Note_on_c, 0, 76, 79
1, 40452, Note_off_c, 0, 81, 59
1, 40456, Note_on_c, 0, 60, 62
1, 40456, Note_off_c, 0, 72, 62
1, 40485, Note_off_c, 0, 60, 65
1, 40489, Note_off_c, 0, 76, 65
1, 40550, Note_on_c, 0, 64, 61
1, 40557, Note_on_c, 0, 72, 77
1, 40559, Note_on_c, 0, 69, 75
1, 40609, Note_off_c, 0, 64, 64
1, 40625, Note_off_c, 0, 69, 60
1, 40634, Note_on_c, 0, 60, 61
1, 40636, Note_off_c, 0, 72, 61
1, 40640, Note_on_c, 0, 76, 73
1, 40665, Note_off_c, 0, 76, 69
1, 40667, Note_off_c, 0, 60, 63
1, 40769, Note_on_c, 0, 81, 63
1, 40770, Note_on_c, 0, 74, 60
1, 40773, Note_on_c, 0, 53, 58
1, 40775, Note_on_c, 0, 47, 56
1, 40830, Note_off_c, 0, 53, 62
1, 40834, Note_off_c, 0, 47, 59
1, 40836, Note_off_c, 0, 74, 60
1, 40849, Note_off_c, 0, 81, 55
1, 40860, Note_on_c, 0, 77, 64
1, 40864, Note_on_c, 0, 57, 53
1, 40888, Note_off_c, 0, 57, 62
1, 40891, Note_off_c, 0, 77, 64
1, 40961, Note_on_c, 0, 62, 60
1, 40962, Note_on_c, 0, 74, 61
1, 40968, Note_on_c, 0, 69, 63
1, 41008, Note_off_c, 0, 69, 59
1, 41013, Note_off_c, 0, 62, 52
1, 41031, Note_on_c, 0, 65, 55
1, 41050, Note_off_c, 0, 74, 62
1, 41052, Note_off_c, 0, 65, 63
1, 41056, Note_on_c, 0, 77, 60
1, 41085, Note_off_c, 0, 77, 64
1, 41164, Note_on_c, 0, 40, 61
1, 41165, Note_on_c, 0, 80, 67
1, 41171, Note_on_c, 0, 71, 58
1, 41171, Note_on_c, 0, 47, 56
1, 41224, Note_off_c, 0, 40, 63
1, 41234, Note_off_c, 0, 71, 50
1, 41236, Note_off_c, 0, 47, 62
1, 41251, Note_on_c, 0, 52, 61
1, 41262, Note_off_c, 0, 80, 58
1, 41270, Note_on_c, 0, 76, 52
1, 41280, Note_off_c, 0, 52, 67
1, 41350, Note_off_c, 0, 76, 59
1, 41371, Note_on_c, 0, 52, 45
1, 41372, Note_on_c, 0, 59, 51
1, 41377, Note_on_c, 0, 71, 40
1, 41380, Note_on_c, 0, 68, 47
1, 41404, Note_off_c, 0, 68, 59
1, 41452, Note_on_c, 0, 64, 58
1, 41467, Note_on_c, 0, 76, 57
1, 41476, Note_off_c, 0, 59, 63
1, 41476, Note_off_c, 0, 64, 64
1, 41477, Note_off_c, 0, 71, 51
1, 41484, Note_off_c, 0, 52, 61
1, 41502, Note_off_c, 0, 76, 65
1, 41613, Note_on_c, 0, 81, 57
1, 41624, Note_on_c, 0, 52, 51
1, 41624, Note_on_c, 0, 72, 45
1, 41627, Note_on_c, 0, 45, 46
1, 41662, Control_c, 0, 64, 52
1, 41677, Control_c, 0, 64, 68
1, 41685, Note_off_c, 0, 45, 60
1, 41692, Control_c, 0, 64, 81
1, 41696, Note_off_c, 0, 72, 45
1, 41698, Note_off_c, 0, 52, 61
1, 41706, Control_c, 0, 64, 111
1, 41716, Note_on_c, 0, 57, 59
1, 41716, Note_on_c, 0, 76, 60
1, 41721, Control_c, 0, 64, 127
1, 41727, Note_off_c, 0, 81, 51
1, 41755, Note_off_c, 0, 57, 58
1, 41818, Note_on_c, 0, 72, 65
1, 41822, Note_on_c, 0, 60, 58
1, 41866, Note_off_c, 0, 76, 62
1, 41904, Note_off_c, 0, 72, 64
1, 41909, Note_on_c, 0, 64, 61
1, 41915, Note_on_c, 0, 69, 63
1, 41923, Note_off_c, 0, 60, 61
1, 41929, Note_off_c, 0, 64, 66
1, 41955, Note_off_c, 0, 69, 63
1, 42018, Control_c, 0, 64, 124
1, 42033, Note_on_c, 0, 64, 60
1, 42033, Control_c, 0, 64, 103
1, 42048, Control_c, 0, 64, 90
1, 42063, Control_c, 0, 64, 79
1, 42078, Control_c, 0, 64, 71
1, 42093, Control_c, 0, 64, 62
1, 42108, Control_c, 0, 64, 37
1, 42122, Control_c, 0, 64, 0
1, 42134, Note_on_c, 0, 60, 58
1, 42134, Note_off_c, 0, 64, 61
1, 42234, Note_off_c, 0, 60, 58
1, 42259, Note_on_c, 0, 45, 52
1, 42265, Note_on_c, 0, 33, 46
1, 42286, Control_c, 0, 64, 38
1, 42301, Control_c, 0, 64, 62
1, 42322, Control_c, 0, 64, 74
1, 42327, Note_off_c, 0, 33, 65
1, 42330, Note_off_c, 0, 45, 64
1, 42337, Control_c, 0, 64, 96
1, 42352, Control_c, 0, 64, 127
1, 42530, Control_c, 0, 64, 116
1, 42545, Control_c, 0, 64, 100
1, 42560, Control_c, 0, 64, 85
1, 42574, Control_c, 0, 64, 71
1, 42589, Control_c, 0, 64, 59
1, 42604, Control_c, 0, 64, 55
1, 42634, Control_c, 0, 64, 50
1, 42648, Control_c, 0, 64, 34
1, 42663, Control_c, 0, 64, 0
1, 42846, Note_on_c, 0, 64, 82
1, 42848, Note_on_c, 0, 52, 80
1, 42853, Note_on_c, 0, 45, 65
1, 42856, Control_c, 0, 64, 49
1, 42863, Note_on_c, 0, 36, 52
1, 42870, Control_c, 0, 64, 79
1, 42873, Note_off_c, 0, 52, 70
1, 42883, Note_off_c, 0, 45, 65
1, 42885, Control_c, 0, 64, 113
1, 42886, Note_off_c, 0, 64, 59
1, 42891, Note_off_c, 0, 36, 53
1, 42900, Control_c, 0, 64, 127
1, 42951, Note_on_c, 0, 53, 89
1, 42951, Note_on_c, 0, 44, 75
1, 42951, Note_on_c, 0, 65, 90
1, 42955, Note_on_c, 0, 35, 70
1, 42979, Note_off_c, 0, 44, 66
1, 42990, Note_off_c, 0, 53, 64
1, 42993, Note_off_c, 0, 65, 63
1, 43001, Note_off_c, 0, 35, 58
1, 43061, Note_on_c, 0, 64, 96
1, 43063, Note_on_c, 0, 52, 94
1, 43074, Note_on_c, 0, 45, 68
1, 43076, Note_on_c, 0, 36, 59
1, 43100, Control_c, 0, 64, 108
1, 43104, Note_off_c, 0, 36, 62
1, 43115, Control_c, 0, 64, 90
1, 43130, Control_c, 0, 64, 75
1, 43145, Control_c, 0, 64, 62
1, 43159, Control_c, 0, 64, 0
1, 43162, Note_off_c, 0, 45, 29
1, 43167, Note_on_c, 0, 44, 73
1, 43181, Note_on_c, 0, 35, 62
1, 43194, Note_off_c, 0, 44, 66
1, 43266, Note_off_c, 0, 35, 58
1, 43274, Note_on_c, 0, 45, 71
1, 43278, Note_on_c, 0, 36, 57
1, 43308, Control_c, 0, 64, 37
1, 43311, Note_off_c, 0, 36, 63
1, 43323, Control_c, 0, 64, 65
1, 43338, Control_c, 0, 64, 73
1, 43350, Note_off_c, 0, 52, 61
1, 43352, Control_c, 0, 64, 86
1, 43362, Note_on_c, 0, 44, 83
1, 43367, Control_c, 0, 64, 96
1, 43373, Note_on_c, 0, 35, 73
1, 43375, Note_off_c, 0, 45, 62
1, 43382, Control_c, 0, 64, 109
1, 43396, Control_c, 0, 64, 127
1, 43403, Note_off_c, 0, 44, 62
1, 43422, Note_off_c, 0, 64, 59
1, 43458, Note_off_c, 0, 35, 62
1, 43470, Note_on_c, 0, 45, 78
1, 43472, Note_on_c, 0, 36, 61
1, 43498, Note_off_c, 0, 36, 61
1, 43502, Note_off_c, 0, 45, 64
1, 43574, Note_on_c, 0, 48, 89
1, 43578, Note_on_c, 0, 40, 78
1, 43598, Note_off_c, 0, 48, 69
1, 43621, Note_off_c, 0, 40, 63
1, 43649, Control_c, 0, 64, 92
1, 43664, Control_c, 0, 64, 66
1, 43677, Note_on_c, 0, 52, 86
1, 43679, Control_c, 0, 64, 0
1, 43680, Note_on_c, 0, 64, 93
1, 43681, Note_on_c, 0, 76, 94
1, 43685, Note_on_c, 0, 44, 78
1, 43738, Control_c, 0, 64, 59
1, 43753, Control_c, 0, 64, 84
1, 43767, Control_c, 0, 64, 127
1, 43772, Note_off_c, 0, 64, 38
1, 43781, Note_on_c, 0, 42, 72
1, 43782, Note_on_c, 0, 51, 79
1, 43785, Note_on_c, 0, 71, 87
1, 43789, Note_off_c, 0, 52, 63
1, 43796, Note_off_c, 0, 76, 63
1, 43806, Note_off_c, 0, 44, 57
1, 43842, Note_off_c, 0, 51, 60
1, 43868, Note_off_c, 0, 42, 57
1, 43874, Note_off_c, 0, 71, 61
1, 43891, Note_on_c, 0, 52, 86
1, 43896, Note_on_c, 0, 64, 95
1, 43896, Note_on_c, 0, 76, 97
1, 43902, Note_on_c, 0, 44, 66
1, 43953, Control_c, 0, 64, 97
1, 43968, Control_c, 0, 64, 77
1, 43973, Note_off_c, 0, 44, 0
1, 43973, Note_on_c, 0, 44, 17
1, 43982, Control_c, 0, 64, 63
1, 43991, Note_on_c, 0, 51, 75
1, 43997, Note_on_c, 0, 42, 70
1, 43997, Note_off_c, 0, 52, 61
1, 43997, Control_c, 0, 64, 34
1, 44002, Note_off_c, 0, 44, 61
1, 44012, Control_c, 0, 64, 0
1, 44090, Note_off_c, 0, 42, 59
1, 44090, Note_off_c, 0, 51, 55
1, 44094, Note_on_c, 0, 44, 60
1, 44095, Note_on_c, 0, 52, 79
1, 44188, Note_on_c, 0, 51, 77
1, 44190, Note_off_c, 0, 52, 62
1, 44195, Note_on_c, 0, 42, 73
1, 44206, Note_off_c, 0, 44, 58
1, 44234, Control_c, 0, 64, 49
1, 44249, Control_c, 0, 64, 82
1, 44264, Control_c, 0, 64, 127
1, 44265, Note_off_c, 0, 64, 62
1, 44284, Note_off_c, 0, 51, 39
1, 44287, Note_off_c, 0, 42, 61
1, 44289, Note_on_c, 0, 52, 74
1, 44316, Note_off_c, 0, 52, 68
1, 44322, Note_off_c, 0, 76, 59
1, 44383, Note_on_c, 0, 47, 83
1, 44385, Note_on_c, 0, 56, 79
1, 44409, Note_off_c, 0, 56, 68
1, 44456, Note_off_c, 0, 47, 53
1, 44458, Control_c, 0, 64, 84
1, 44473, Control_c, 0, 64, 54
1, 44488, Control_c, 0, 64, 0
1, 44496, Note_on_c, 0, 48, 63
1, 44500, Note_on_c, 0, 57, 79
1, 44503, Note_on_c, 0, 88, 94
1, 44504, Note_on_c, 0, 76, 93
1, 44517, Control_c, 0, 64, 11
1, 44526, Note_off_c, 0, 48, 66
1, 44532, Control_c, 0, 64, 70
1, 44541, Note_off_c, 0, 88, 67
1, 44543, Note_off_c, 0, 76, 69
1, 44547, Control_c, 0, 64, 127
1, 44595, Note_off_c, 0, 57, 40
1, 44596, Note_on_c, 0, 56, 85
1, 44600, Note_on_c, 0, 47, 85
1, 44611, Note_on_c, 0, 89, 96
1, 44614, Note_on_c, 0, 77, 94
1, 44632, Note_off_c, 0, 56, 61
1, 44649, Note_off_c, 0, 89, 66
1, 44650, Note_off_c, 0, 77, 65
1, 44683, Note_off_c, 0, 47, 50
1, 44702, Note_on_c, 0, 48, 71
1, 44704, Note_on_c, 0, 57, 78
1, 44718, Control_c, 0, 64, 115
1, 44719, Note_on_c, 0, 76, 102
1, 44719, Note_on_c, 0, 88, 99
1, 44732, Note_off_c, 0, 48, 66
1, 44732, Control_c, 0, 64, 93
1, 44747, Control_c, 0, 64, 77
1, 44762, Control_c, 0, 64, 63
1, 44777, Control_c, 0, 64, 0
1, 44796, Note_on_c, 0, 56, 82
1, 44797, Note_off_c, 0, 57, 56
1, 44799, Note_on_c, 0, 47, 81
1, 44831, Note_off_c, 0, 56, 62
1, 44883, Note_off_c, 0, 47, 63
1, 44898, Note_on_c, 0, 48, 72
1, 44900, Note_on_c, 0, 57, 75
1, 44930, Note_off_c, 0, 48, 64
1, 44969, Control_c, 0, 64, 48
1, 44984, Control_c, 0, 64, 87
1, 44989, Note_on_c, 0, 56, 84
1, 44996, Note_off_c, 0, 76, 60
1, 44998, Note_off_c, 0, 57, 61
1, 44999, Note_on_c, 0, 47, 78
1, 44999, Control_c, 0, 64, 127
1, 45031, Note_off_c, 0, 56, 63
1, 45064, Note_off_c, 0, 88, 59
1, 45088, Note_off_c, 0, 47, 63
1, 45097, Note_on_c, 0, 57, 79
1, 45099, Note_on_c, 0, 48, 64
1, 45127, Note_off_c, 0, 48, 66
1, 45141, Note_off_c, 0, 57, 64
1, 45209, Note_on_c, 0, 60, 87
1, 45210, Note_on_c, 0, 52, 80
1, 45237, Note_off_c, 0, 60, 61
1, 45265, Note_off_c, 0, 52, 62
1, 45266, Control_c, 0, 64, 110
1, 45281, Control_c, 0, 64, 75
1, 45296, Control_c, 0, 64, 35
1, 45318, Control_c, 0, 64, 0
1, 45331, Note_on_c, 0, 64, 87
1, 45331, Note_on_c, 0, 88, 95
1, 45332, Note_on_c, 0, 100, 99
1, 45338, Note_on_c, 0, 56, 80
1, 45362, Control_c, 0, 64, 54
1, 45377, Control_c, 0, 64, 79
1, 45390, Note_off_c, 0, 100, 63
1, 45392, Control_c, 0, 64, 127
1, 45395, Note_off_c, 0, 88, 59
1, 45404, Note_off_c, 0, 64, 57
1, 45443, Note_on_c, 0, 95, 102
1, 45445, Note_on_c, 0, 54, 72
1, 45449, Note_on_c, 0, 63, 79
1, 45457, Note_off_c, 0, 56, 58
1, 45494, Note_off_c, 0, 63, 58
1, 45505, Note_off_c, 0, 95, 67
1, 45511, Note_off_c, 0, 54, 55
1, 45549, Note_on_c, 0, 64, 84
1, 45552, Note_on_c, 0, 100, 104
1, 45553, Note_on_c, 0, 88, 98
1, 45553, Note_on_c, 0, 56, 73
1, 45555, Control_c, 0, 64, 121
1, 45570, Control_c, 0, 64, 99
1, 45585, Control_c, 0, 64, 84
1, 45599, Control_c, 0, 64, 69
1, 45614, Control_c, 0, 64, 44
1, 45615, Note_off_c, 0, 64, 58
1, 45629, Control_c, 0, 64, 0
1, 45641, Note_off_c, 0, 56, 51
1, 45646, Note_on_c, 0, 63, 78
1, 45648, Note_on_c, 0, 54, 67
1, 45715, Note_off_c, 0, 63, 61
1, 45733, Control_c, 0, 64, 68
1, 45739, Note_off_c, 0, 54, 61
1, 45743, Note_on_c, 0, 56, 57
1, 45747, Control_c, 0, 64, 107
1, 45753, Note_on_c, 0, 64, 81
1, 45762, Control_c, 0, 64, 127
1, 45783, Note_off_c, 0, 56, 62
1, 45822, Note_off_c, 0, 64, 63
1, 45843, Note_on_c, 0, 59, 71
1, 45846, Note_on_c, 0, 52, 72
1, 45868, Note_off_c, 0, 59, 67
1, 45875, Note_off_c, 0, 52, 67
1, 45911, Note_off_c, 0, 88, 57
1, 45923, Note_off_c, 0, 100, 61
1, 45962, Note_on_c, 0, 56, 79
1, 45968, Note_on_c, 0, 47, 70
1, 46031, Note_off_c, 0, 56, 55
1, 46056, Note_on_c, 0, 44, 65
1, 46057, Note_on_c, 0, 52, 65
1, 46079, Note_off_c, 0, 47, 50
1, 46096, Note_off_c, 0, 52, 65
1, 46099, Note_off_c, 0, 44, 64
1, 46141, Control_c, 0, 64, 95
1, 46156, Control_c, 0, 64, 72
1, 46170, Control_c, 0, 64, 41
1, 46185, Control_c, 0, 64, 0
1, 46224, Note_on_c, 0, 100, 61
1, 46226, Note_on_c, 0, 88, 52
1, 46226, Note_on_c, 0, 96, 56
1, 46242, Note_on_c, 0, 57, 51
1, 46247, Note_on_c, 0, 48, 36
1, 46247, Note_off_c, 0, 88, 57
1, 46256, Note_off_c, 0, 96, 54
1, 46261, Note_off_c, 0, 100, 59
1, 46280, Note_off_c, 0, 48, 55
1, 46289, Control_c, 0, 64, 59
1, 46304, Control_c, 0, 64, 91
1, 46319, Control_c, 0, 64, 127
1, 46327, Note_off_c, 0, 57, 37
1, 46347, Note_on_c, 0, 56, 53
1, 46347, Note_on_c, 0, 98, 65
1, 46363, Note_on_c, 0, 47, 56
1, 46370, Note_off_c, 0, 56, 60
1, 46373, Note_off_c, 0, 98, 71
1, 46429, Note_off_c, 0, 47, 53
1, 46440, Poly_aftertouch_c, 0, 89, 0
1, 46459, Note_on_c, 0, 96, 60
1, 46460, Note_on_c, 0, 88, 57
1, 46465, Note_on_c, 0, 57, 52
1, 46466, Note_on_c, 0, 48, 39
1, 46474, Note_on_c, 0, 100, 50
1, 46480, Note_off_c, 0, 96, 63
1, 46480, Note_off_c, 0, 88, 60
1, 46493, Note_off_c, 0, 48, 54
1, 46495, Note_off_c, 0, 100, 58
1, 46534, Note_off_c, 0, 57, 41
1, 46558, Note_on_c, 0, 56, 61
1, 46561, Note_on_c, 0, 47, 62
1, 46571, Note_on_c, 0, 98, 59
1, 46581, Note_on_c, 0, 101, 52
1, 46582, Note_on_c, 0, 89, 41
1, 46583, Note_off_c, 0, 56, 64
1, 46588, Note_off_c, 0, 98, 66
1, 46603, Note_off_c, 0, 101, 54
1, 46610, Note_off_c, 0, 89, 50
1, 46632, Note_off_c, 0, 47, 54
1, 46662, Note_on_c, 0, 57, 60
1, 46670, Note_on_c, 0, 48, 37
1, 46671, Note_on_c, 0, 88, 52
1, 46678, Note_on_c, 0, 96, 53
1, 46681, Note_on_c, 0, 100, 56
1, 46692, Note_off_c, 0, 88, 58
1, 46698, Note_off_c, 0, 96, 54
1, 46699, Note_off_c, 0, 100, 61
1, 46707, Note_off_c, 0, 48, 46
1, 46743, Note_off_c, 0, 57, 48
1, 46756, Note_on_c, 0, 47, 70
1, 46757, Note_on_c, 0, 56, 66
1, 46771, Note_on_c, 0, 101, 73
1, 46772, Note_on_c, 0, 98, 68
1, 46776, Note_on_c, 0, 89, 50
1, 46784, Note_off_c, 0, 56, 64
1, 46790, Note_off_c, 0, 98, 68
1, 46796, Note_off_c, 0, 101, 66
1, 46797, Note_off_c, 0, 89, 59
1, 46844, Note_off_c, 0, 47, 57
1, 46865, Note_on_c, 0, 57, 63
1, 46880, Note_on_c, 0, 88, 69
1, 46883, Note_on_c, 0, 48, 16
1, 46884, Note_on_c, 0, 96, 51
1, 46896, Note_off_c, 0, 57, 65
1, 46899, Note_on_c, 0, 100, 31
1, 46900, Note_off_c, 0, 100, 127
1, 46906, Note_off_c, 0, 88, 63
1, 46907, Note_off_c, 0, 96, 40
1, 46920, Note_off_c, 0, 48, 53
1, 46964, Control_c, 0, 64, 111
1, 46978, Note_on_c, 0, 96, 76
1, 46979, Control_c, 0, 64, 82
1, 46984, Note_on_c, 0, 93, 71
1, 46987, Note_on_c, 0, 52, 61
1, 46987, Note_on_c, 0, 84, 69
1, 46993, Control_c, 0, 64, 62
1, 46996, Note_on_c, 0, 60, 50
1, 47002, Note_off_c, 0, 84, 65
1, 47002, Note_off_c, 0, 96, 62
1, 47008, Control_c, 0, 64, 0
1, 47010, Note_off_c, 0, 93, 65
1, 47019, Note_off_c, 0, 52, 49
1, 47021, Note_off_c, 0, 60, 36
1, 47082, Note_on_c, 0, 92, 67
1, 47082, Control_c, 0, 64, 12
1, 47086, Note_on_c, 0, 64, 62
1, 47090, Note_on_c, 0, 83, 57
1, 47090, Note_on_c, 0, 95, 61
1, 47097, Control_c, 0, 64, 63
1, 47099, Note_on_c, 0, 56, 51
1, 47109, Note_off_c, 0, 83, 62
1, 47111, Note_off_c, 0, 95, 63
1, 47112, Control_c, 0, 64, 81
1, 47113, Note_off_c, 0, 92, 67
1, 47127, Control_c, 0, 64, 127
1, 47154, Note_off_c, 0, 64, 50
1, 47163, Note_off_c, 0, 56, 55
1, 47185, Note_on_c, 0, 93, 70
1, 47189, Note_on_c, 0, 63, 59
1, 47193, Note_on_c, 0, 84, 64
1, 47194, Note_on_c, 0, 96, 54
1, 47201, Note_on_c, 0, 54, 48
1, 47212, Note_off_c, 0, 84, 64
1, 47212, Note_off_c, 0, 93, 64
1, 47214, Note_off_c, 0, 96, 54
1, 47227, Note_off_c, 0, 63, 58
1, 47244, Note_off_c, 0, 54, 47
1, 47289, Note_on_c, 0, 64, 62
1, 47293, Note_on_c, 0, 92, 69
1, 47294, Note_on_c, 0, 95, 65
1, 47300, Note_on_c, 0, 83, 57
1, 47303, Note_on_c, 0, 56, 43
1, 47316, Note_off_c, 0, 95, 63
1, 47318, Note_off_c, 0, 83, 62
1, 47324, Note_off_c, 0, 92, 64
1, 47383, Note_off_c, 0, 64, 37
1, 47388, Note_off_c, 0, 56, 59
1, 47390, Note_on_c, 0, 63, 61
1, 47395, Note_on_c, 0, 54, 53
1, 47395, Note_on_c, 0, 93, 72
1, 47401, Note_on_c, 0, 96, 59
1, 47407, Note_on_c, 0, 84, 58
1, 47419, Note_off_c, 0, 96, 60
1, 47421, Note_off_c, 0, 93, 65
1, 47425, Note_off_c, 0, 84, 63
1, 47445, Note_off_c, 0, 54, 56
1, 47447, Note_off_c, 0, 63, 55
1, 47494, Note_on_c, 0, 92, 80
1, 47496, Note_on_c, 0, 64, 65
1, 47507, Note_on_c, 0, 95, 61
1, 47510, Note_on_c, 0, 83, 54
1, 47515, Note_on_c, 0, 56, 45
1, 47522, Note_off_c, 0, 92, 62
1, 47526, Note_off_c, 0, 95, 65
1, 47529, Note_off_c, 0, 83, 61
1, 47564, Note_off_c, 0, 64, 40
1, 47593, Note_off_c, 0, 56, 41
1, 47598, Note_on_c, 0, 63, 64
1, 47604, Note_on_c, 0, 96, 74
1, 47613, Note_on_c, 0, 93, 61
1, 47618, Note_on_c, 0, 54, 52
1, 47626, Note_on_c, 0, 84, 48
1, 47628, Note_off_c, 0, 96, 69
1, 47632, Note_off_c, 0, 93, 61
1, 47650, Note_off_c, 0, 84, 57
1, 47682, Note_off_c, 0, 63, 46
1, 47694, Note_off_c, 0, 54, 55
1, 47696, Note_on_c, 0, 64, 70
1, 47702, Note_on_c, 0, 92, 70
1, 47708, Note_on_c, 0, 95, 63
1, 47712, Note_on_c, 0, 56, 41
1, 47719, Note_off_c, 0, 92, 66
1, 47726, Note_off_c, 0, 95, 63
1, 47726, Note_off_c, 0, 64, 67
1, 47748, Note_off_c, 0, 56, 48
1, 47798, Note_on_c, 0, 92, 77
1, 47810, Note_on_c, 0, 88, 70
1, 47813, Note_on_c, 0, 80, 68
1, 47818, Note_off_c, 0, 92, 72
1, 47822, Note_on_c, 0, 68, 60
1, 47824, Note_on_c, 0, 59, 53
1, 47830, Control_c, 0, 64, 93
1, 47831, Note_off_c, 0, 80, 67
1, 47836, Note_off_c, 0, 88, 66
1, 47840, Note_off_c, 0, 68, 63
1, 47845, Control_c, 0, 64, 68
1, 47855, Note_off_c, 0, 59, 51
1, 47860, Control_c, 0, 64, 0
1, 47914, Note_on_c, 0, 76, 72
1, 47914, Note_on_c, 0, 88, 69
1, 47917, Note_on_c, 0, 60, 58
1, 47922, Note_on_c, 0, 84, 63
1, 47926, Note_on_c, 0, 69, 58
1, 47934, Control_c, 0, 64, 44
1, 47938, Note_off_c, 0, 76, 70
1, 47938, Note_off_c, 0, 60, 61
1, 47949, Note_off_c, 0, 88, 59
1, 47949, Control_c, 0, 64, 69
1, 47951, Note_off_c, 0, 84, 67
1, 47964, Control_c, 0, 64, 87
1, 47979, Control_c, 0, 64, 127
1, 47989, Note_off_c, 0, 69, 38
1, 48021, Note_on_c, 0, 86, 75
1, 48021, Note_on_c, 0, 89, 72
1, 48024, Note_on_c, 0, 77, 72
1, 48027, Note_on_c, 0, 68, 57
1, 48030, Note_on_c, 0, 59, 56
1, 48046, Note_off_c, 0, 68, 62
1, 48047, Note_off_c, 0, 86, 65
1, 48048, Note_off_c, 0, 89, 66
1, 48052, Note_off_c, 0, 77, 64
1, 48057, Note_off_c, 0, 59, 54
1, 48127, Note_on_c, 0, 76, 56
1, 48128, Note_on_c, 0, 84, 64
1, 48133, Note_on_c, 0, 60, 42
1, 48135, Note_on_c, 0, 88, 51
1, 48144, Note_on_c, 0, 69, 45
1, 48144, Note_off_c, 0, 76, 65
1, 48149, Note_off_c, 0, 84, 62
1, 48157, Note_off_c, 0, 88, 60
1, 48168, Note_off_c, 0, 60, 44
1, 48199, Note_off_c, 0, 69, 39
1, 48219, Note_on_c, 0, 89, 69
1, 48223, Note_on_c, 0, 86, 72
1, 48233, Note_on_c, 0, 77, 56
1, 48236, Note_on_c, 0, 59, 54
1, 48245, Note_on_c, 0, 68, 40
1, 48245, Note_off_c, 0, 89, 70
1, 48251, Note_off_c, 0, 86, 63
1, 48255, Note_off_c, 0, 77, 60
1, 48268, Note_off_c, 0, 68, 58
1, 48285, Note_off_c, 0, 59, 51
1, 48340, Note_on_c, 0, 60, 49
1, 48343, Note_on_c, 0, 76, 56
1, 48346, Note_on_c, 0, 88, 52
1, 48348, Note_on_c, 0, 84, 55
1, 48351, Note_on_c, 0, 69, 52
1, 48359, Note_off_c, 0, 60, 60
1, 48362, Note_off_c, 0, 76, 65
1, 48367, Note_off_c, 0, 84, 62
1, 48367, Note_off_c, 0, 88, 59
1, 48433, Note_off_c, 0, 69, 44
1, 48438, Note_on_c, 0, 89, 75
1, 48441, Note_on_c, 0, 68, 66
1, 48444, Note_on_c, 0, 86, 69
1, 48450, Note_on_c, 0, 77, 58
1, 48457, Note_on_c, 0, 59, 49
1, 48465, Note_off_c, 0, 89, 68
1, 48466, Note_off_c, 0, 68, 66
1, 48469, Note_off_c, 0, 77, 64
1, 48471, Note_off_c, 0, 86, 65
1, 48525, Note_off_c, 0, 59, 53
1, 48545, Note_on_c, 0, 76, 72
1, 48546, Note_on_c, 0, 69, 68
1, 48549, Note_on_c, 0, 88, 62
1, 48551, Note_on_c, 0, 60, 44
1, 48551, Note_on_c, 0, 84, 55
1, 48566, Note_off_c, 0, 88, 63
1, 48570, Note_off_c, 0, 76, 69
1, 48570, Note_off_c, 0, 84, 61
1, 48574, Note_off_c, 0, 69, 65
1, 48578, Note_off_c, 0, 60, 52
1, 48639, Note_on_c, 0, 84, 73
1, 48649, Note_on_c, 0, 72, 74
1, 48649, Note_on_c, 0, 81, 70
1, 48662, Note_on_c, 0, 64, 61
1, 48665, Note_off_c, 0, 84, 67
1, 48669, Note_off_c, 0, 72, 69
1, 48674, Note_off_c, 0, 81, 64
1, 48681, Note_off_c, 0, 64, 62
1, 48684, Control_c, 0, 64, 97
1, 48698, Control_c, 0, 64, 71
1, 48713, Control_c, 0, 64, 0
1, 48746, Note_on_c, 0, 83, 64
1, 48748, Note_on_c, 0, 71, 62
1, 48763, Note_on_c, 0, 80, 42
1, 48766, Note_on_c, 0, 68, 61
1, 48767, Note_off_c, 0, 71, 63
1, 48772, Note_on_c, 0, 76, 70
1, 48781, Note_off_c, 0, 83, 58
1, 48787, Note_off_c, 0, 80, 57
1, 48787, Control_c, 0, 64, 62
1, 48802, Control_c, 0, 64, 78
1, 48817, Control_c, 0, 64, 121
1, 48832, Control_c, 0, 64, 127
1, 48846, Note_on_c, 0, 84, 68
1, 48847, Note_off_c, 0, 68, 34
1, 48853, Note_on_c, 0, 81, 69
1, 48856, Note_off_c, 0, 76, 54
1, 48863, Note_on_c, 0, 66, 60
1, 48863, Note_on_c, 0, 75, 64
1, 48870, Note_on_c, 0, 72, 39
1, 48874, Note_off_c, 0, 84, 66
1, 48880, Note_off_c, 0, 81, 64
1, 48892, Note_off_c, 0, 75, 62
1, 48898, Note_off_c, 0, 72, 56
1, 48934, Note_off_c, 0, 66, 58
1, 48954, Note_on_c, 0, 68, 63
1, 48957, Note_on_c, 0, 83, 67
1, 48960, Note_on_c, 0, 76, 67
1, 48965, Note_on_c, 0, 71, 55
1, 48980, Note_off_c, 0, 76, 61
1, 48987, Note_off_c, 0, 71, 57
1, 48991, Note_off_c, 0, 83, 58
1, 49049, Note_on_c, 0, 75, 69
1, 49050, Note_on_c, 0, 66, 66
1, 49067, Note_on_c, 0, 84, 75
1, 49067, Poly_aftertouch_c, 0, 80, 0
1, 49067, Note_on_c, 0, 81, 75
1, 49074, Note_on_c, 0, 72, 64
1, 49091, Note_off_c, 0, 68, 34
1, 49095, Note_off_c, 0, 84, 59
1, 49097, Note_off_c, 0, 72, 65
1, 49098, Note_off_c, 0, 81, 59
1, 49121, Control_c, 0, 64, 107
1, 49135, Control_c, 0, 64, 76
1, 49145, Note_off_c, 0, 75, 39
1, 49147, Note_off_c, 0, 66, 61
1, 49150, Control_c, 0, 64, 43
1, 49161, Note_on_c, 0, 68, 54
1, 49165, Control_c, 0, 64, 0
1, 49170, Note_on_c, 0, 76, 72
1, 49179, Note_on_c, 0, 83, 75
1, 49192, Note_on_c, 0, 71, 61
1, 49192, Note_on_c, 0, 80, 51
1, 49203, Note_off_c, 0, 68, 63
1, 49209, Note_off_c, 0, 76, 63
1, 49209, Control_c, 0, 64, 49
1, 49212, Note_off_c, 0, 71, 60
1, 49223, Note_off_c, 0, 80, 57
1, 49224, Control_c, 0, 64, 72
1, 49240, Control_c, 0, 64, 99
1, 49255, Note_off_c, 0, 83, 57
1, 49255, Control_c, 0, 64, 127
1, 49273, Note_on_c, 0, 71, 74
1, 49288, Note_on_c, 0, 64, 62
1, 49291, Note_off_c, 0, 71, 64
1, 49306, Note_off_c, 0, 64, 65
1, 49389, Note_on_c, 0, 88, 89
1, 49391, Note_on_c, 0, 76, 81
1, 49395, Note_on_c, 0, 68, 83
1, 49413, Note_off_c, 0, 76, 68
1, 49440, Note_off_c, 0, 88, 60
1, 49461, Note_off_c, 0, 68, 60
1, 49497, Note_on_c, 0, 64, 75
1, 49507, Note_on_c, 0, 56, 74
1, 49521, Note_off_c, 0, 64, 68
1, 49553, Note_off_c, 0, 56, 62
1, 49655, Control_c, 0, 64, 117
1, 49670, Control_c, 0, 64, 79
1, 49685, Control_c, 0, 64, 53
1, 49699, Control_c, 0, 64, 0
1, 49709, Note_on_c, 0, 100, 100
1, 49711, Note_on_c, 0, 88, 96
1, 49717, Note_on_c, 0, 57, 81
1, 49718, Note_on_c, 0, 49, 80
1, 49744, Control_c, 0, 64, 62
1, 49758, Control_c, 0, 64, 89
1, 49771, Note_off_c, 0, 88, 62
1, 49773, Control_c, 0, 64, 127
1, 49784, Note_off_c, 0, 100, 63
1, 49848, Note_on_c, 0, 47, 74
1, 49851, Note_off_c, 0, 49, 58
1, 49854, Note_on_c, 0, 56, 73
1, 49854, Note_off_c, 0, 57, 62
1, 49857, Note_on_c, 0, 101, 94
1, 49860, Note_on_c, 0, 89, 83
1, 49880, Note_on_c, 0, 91, 61
1, 49899, Note_off_c, 0, 91, 57
1, 49901, Note_off_c, 0, 47, 59
1, 49901, Note_off_c, 0, 56, 59
1, 49902, Note_off_c, 0, 89, 66
1, 49902, Note_off_c, 0, 101, 65
1, 49960, Note_on_c, 0, 57, 78
1, 49965, Note_on_c, 0, 49, 73
1, 49982, Note_on_c, 0, 100, 103
1, 49983, Note_on_c, 0, 88, 94
1, 50018, Control_c, 0, 64, 91
1, 50033, Control_c, 0, 64, 70
1, 50048, Control_c, 0, 64, 44
1, 50062, Note_on_c, 0, 56, 74
1, 50063, Control_c, 0, 64, 0
1, 50064, Note_on_c, 0, 47, 79
1, 50066, Note_off_c, 0, 49, 62
1, 50066, Note_off_c, 0, 57, 64
1, 50123, Note_off_c, 0, 56, 60
1, 50158, Note_off_c, 0, 47, 61
1, 50163, Note_on_c, 0, 57, 79
1, 50164, Note_on_c, 0, 49, 68
1, 50226, Control_c, 0, 64, 67
1, 50241, Control_c, 0, 64, 111
1, 50256, Control_c, 0, 64, 127
1, 50257, Note_on_c, 0, 56, 79
1, 50263, Note_off_c, 0, 88, 58
1, 50263, Note_off_c, 0, 100, 61
1, 50266, Note_off_c, 0, 57, 62
1, 50267, Note_on_c, 0, 47, 79
1, 50271, Note_off_c, 0, 49, 58
1, 50351, Note_off_c, 0, 47, 63
1, 50363, Note_on_c, 0, 49, 58
1, 50365, Note_off_c, 0, 56, 55
1, 50366, Note_on_c, 0, 57, 81
1, 50387, Note_off_c, 0, 57, 68
1, 50388, Note_off_c, 0, 49, 66
1, 50461, Note_on_c, 0, 52, 84
1, 50466, Note_on_c, 0, 61, 80
1, 50488, Note_off_c, 0, 61, 67
1, 50522, Control_c, 0, 64, 88
1, 50537, Control_c, 0, 64, 63
1, 50552, Control_c, 0, 64, 0
1, 50573, Note_off_c, 0, 52, 61
1, 50579, Note_on_c, 0, 53, 67
1, 50590, Note_on_c, 0, 62, 76
1, 50591, Note_on_c, 0, 93, 102
1, 50593, Note_on_c, 0, 81, 97
1, 50612, Note_off_c, 0, 53, 65
1, 50618, Control_c, 0, 64, 58
1, 50633, Control_c, 0, 64, 82
1, 50634, Note_off_c, 0, 81, 65
1, 50648, Note_off_c, 0, 93, 59
1, 50648, Control_c, 0, 64, 127
1, 50676, Note_on_c, 0, 61, 81
1, 50679, Note_on_c, 0, 52, 80
1, 50685, Note_off_c, 0, 62, 61
1, 50692, Note_on_c, 0, 94, 95
1, 50695, Note_on_c, 0, 82, 89
1, 50722, Note_off_c, 0, 61, 61
1, 50744, Note_off_c, 0, 82, 62
1, 50745, Note_off_c, 0, 94, 66
1, 50780, Note_off_c, 0, 52, 62
1, 50783, Note_on_c, 0, 53, 67
1, 50793, Note_on_c, 0, 62, 77
1, 50802, Note_on_c, 0, 93, 103
1, 50803, Note_on_c, 0, 81, 98
1, 50815, Note_off_c, 0, 53, 65
1, 50826, Control_c, 0, 64, 113
1, 50841, Control_c, 0, 64, 99
1, 50856, Control_c, 0, 64, 88
1, 50871, Control_c, 0, 64, 76
1, 50884, Note_on_c, 0, 61, 79
1, 50885, Note_off_c, 0, 62, 60
1, 50886, Control_c, 0, 64, 61
1, 50894, Note_on_c, 0, 52, 71
1, 50901, Control_c, 0, 64, 27
1, 50916, Control_c, 0, 64, 0
1, 50928, Note_off_c, 0, 61, 59
1, 50964, Note_off_c, 0, 52, 57
1, 50993, Note_on_c, 0, 62, 80
1, 50995, Note_on_c, 0, 53, 68
1, 51074, Note_off_c, 0, 62, 61
1, 51092, Note_on_c, 0, 57, 74
1, 51093, Control_c, 0, 64, 74
1, 51103, Note_on_c, 0, 50, 75
1, 51108, Control_c, 0, 64, 127
1, 51116, Note_off_c, 0, 57, 69
1, 51118, Note_off_c, 0, 53, 65
1, 51139, Note_off_c, 0, 50, 63
1, 51214, Note_off_c, 0, 93, 60
1, 51214, Note_on_c, 0, 45, 83
1, 51217, Note_on_c, 0, 53, 86
1, 51237, Note_off_c, 0, 81, 56
1, 51315, Note_off_c, 0, 53, 48
1, 51320, Note_on_c, 0, 50, 78
1, 51321, Note_on_c, 0, 41, 75
1, 51331, Note_off_c, 0, 45, 62
1, 51354, Note_off_c, 0, 50, 63
1, 51355, Note_off_c, 0, 41, 66
1, 51382, Control_c, 0, 64, 86
1, 51397, Control_c, 0, 64, 65
1, 51411, Control_c, 0, 64, 0
1, 51442, Note_on_c, 0, 47, 81
1, 51444, Note_on_c, 0, 55, 79
1, 51444, Note_on_c, 0, 74, 92
1, 51445, Note_on_c, 0, 86, 92
1, 51471, Control_c, 0, 64, 50
1, 51484, Note_off_c, 0, 74, 69
1, 51485, Control_c, 0, 64, 73
1, 51500, Control_c, 0, 64, 104
1, 51515, Control_c, 0, 64, 127
1, 51524, Note_off_c, 0, 86, 54
1, 51545, Note_on_c, 0, 45, 75
1, 51545, Note_on_c, 0, 54, 76
1, 51549, Note_on_c, 0, 87, 91
1, 51550, Note_on_c, 0, 75, 87
1, 51552, Note_off_c, 0, 55, 60
1, 51561, Note_off_c, 0, 47, 53
1, 51595, Note_off_c, 0, 54, 62
1, 51596, Note_off_c, 0, 75, 63
1, 51601, Note_off_c, 0, 87, 64
1, 51645, Note_off_c, 0, 45, 50
1, 51649, Control_c, 0, 64, 115
1, 51650, Note_on_c, 0, 47, 75
1, 51654, Note_on_c, 0, 86, 97
1, 51655, Note_on_c, 0, 55, 79
1, 51656, Note_on_c, 0, 74, 96
1, 51664, Control_c, 0, 64, 90
1, 51679, Control_c, 0, 64, 73
1, 51694, Control_c, 0, 64, 59
1, 51706, Note_off_c, 0, 47, 57
1, 51709, Control_c, 0, 64, 0
1, 51750, Note_on_c, 0, 54, 74
1, 51759, Note_on_c, 0, 45, 67
1, 51759, Note_off_c, 0, 55, 59
1, 51804, Note_off_c, 0, 54, 62
1, 51852, Note_on_c, 0, 47, 70
1, 51859, Note_on_c, 0, 55, 72
1, 51870, Note_off_c, 0, 45, 63
1, 51944, Note_on_c, 0, 54, 75
1, 51953, Note_on_c, 0, 45, 62
1, 51957, Note_off_c, 0, 47, 31
1, 51959, Note_off_c, 0, 55, 61
1, 51990, Control_c, 0, 64, 65
1, 52003, Note_off_c, 0, 54, 62
1, 52005, Control_c, 0, 64, 83
1, 52020, Control_c, 0, 64, 104
1, 52034, Control_c, 0, 64, 127
1, 52063, Note_on_c, 0, 47, 71
1, 52064, Note_on_c, 0, 55, 79
1, 52074, Note_off_c, 0, 45, 62
1, 52092, Note_off_c, 0, 47, 64
1, 52104, Note_off_c, 0, 86, 57
1, 52110, Note_off_c, 0, 55, 62
1, 52119, Note_off_c, 0, 74, 58
1, 52164, Note_on_c, 0, 59, 83
1, 52165, Note_on_c, 0, 50, 79
1, 52207, Note_off_c, 0, 59, 61
1, 52234, Control_c, 0, 64, 92
1, 52249, Control_c, 0, 64, 67
1, 52264, Control_c, 0, 64, 0
1, 52272, Note_on_c, 0, 52, 73
1, 52273, Note_on_c, 0, 60, 84
1, 52287, Note_on_c, 0, 67, 94
1, 52287, Note_on_c, 0, 79, 94
1, 52290, Note_off_c, 0, 50, 61
1, 52323, Control_c, 0, 64, 32
1, 52329, Note_off_c, 0, 52, 62
1, 52330, Note_off_c, 0, 67, 64
1, 52333, Note_off_c, 0, 60, 61
1, 52338, Control_c, 0, 64, 65
1, 52339, Note_off_c, 0, 79, 60
1, 52353, Control_c, 0, 64, 83
1, 52367, Control_c, 0, 64, 127
1, 52377, Note_on_c, 0, 59, 74
1, 52380, Note_on_c, 0, 50, 74
1, 52390, Note_on_c, 0, 80, 87
1, 52393, Note_on_c, 0, 68, 86
1, 52416, Note_off_c, 0, 59, 60
1, 52441, Note_off_c, 0, 68, 65
1, 52442, Note_off_c, 0, 80, 62
1, 52482, Note_off_c, 0, 50, 53
1, 52487, Control_c, 0, 64, 108
1, 52491, Note_on_c, 0, 52, 69
1, 52493, Note_on_c, 0, 60, 80
1, 52498, Note_on_c, 0, 67, 94
1, 52499, Note_on_c, 0, 79, 93
1, 52502, Control_c, 0, 64, 88
1, 52517, Control_c, 0, 64, 74
1, 52531, Control_c, 0, 64, 62
1, 52535, Note_off_c, 0, 52, 52
1, 52546, Note_off_c, 0, 60, 63
1, 52546, Control_c, 0, 64, 32
1, 52561, Control_c, 0, 64, 0
1, 52591, Note_on_c, 0, 59, 72
1, 52597, Note_on_c, 0, 50, 71
1, 52627, Note_off_c, 0, 59, 62
1, 52682, Note_off_c, 0, 50, 55
1, 52706, Note_on_c, 0, 52, 65
1, 52707, Note_on_c, 0, 60, 77
1, 52754, Control_c, 0, 64, 66
1, 52769, Control_c, 0, 64, 84
1, 52779, Note_off_c, 0, 60, 62
1, 52783, Control_c, 0, 64, 120
1, 52804, Note_on_c, 0, 55, 73
1, 52806, Control_c, 0, 64, 127
1, 52820, Note_on_c, 0, 48, 76
1, 52829, Note_off_c, 0, 55, 66
1, 52831, Note_off_c, 0, 52, 63
1, 52847, Note_off_c, 0, 48, 67
1, 52886, Note_off_c, 0, 67, 53
1, 52931, Note_off_c, 0, 79, 59
1, 52934, Note_on_c, 0, 52, 75
1, 52964, Note_on_c, 0, 43, 43
1, 52974, Note_on_c, 0, 41, 17
1, 52989, Note_off_c, 0, 52, 59
1, 53026, Note_off_c, 0, 41, 46
1, 53029, Note_on_c, 0, 40, 63
1, 53029, Note_on_c, 0, 48, 66
1, 53050, Note_off_c, 0, 43, 34
1, 53057, Control_c, 0, 64, 118
1, 53058, Note_off_c, 0, 40, 62
1, 53059, Note_off_c, 0, 48, 65
1, 53072, Control_c, 0, 64, 110
1, 53087, Control_c, 0, 64, 105
1, 53102, Control_c, 0, 64, 99
1, 53117, Control_c, 0, 64, 92
1, 53131, Control_c, 0, 64, 85
1, 53146, Control_c, 0, 64, 77
1, 53161, Control_c, 0, 64, 71
1, 53176, Control_c, 0, 64, 64
1, 53178, Note_on_c, 0, 58, 67
1, 53180, Note_on_c, 0, 89, 68
1, 53181, Note_on_c, 0, 77, 58
1, 53183, Note_on_c, 0, 50, 48
1, 53190, Control_c, 0, 64, 58
1, 53205, Control_c, 0, 64, 48
1, 53211, Note_off_c, 0, 77, 64
1, 53214, Note_off_c, 0, 58, 58
1, 53220, Control_c, 0, 64, 32
1, 53232, Note_off_c, 0, 50, 45
1, 53236, Control_c, 0, 64, 0
1, 53275, Note_off_c, 0, 89, 59
1, 53277, Note_on_c, 0, 48, 61
1, 53282, Note_on_c, 0, 90, 69
1, 53287, Note_on_c, 0, 57, 51
1, 53293, Note_on_c, 0, 78, 53
1, 53311, Note_off_c, 0, 57, 57
1, 53322, Note_off_c, 0, 78, 50
1, 53349, Note_off_c, 0, 90, 64
1, 53380, Note_on_c, 0, 89, 73
1, 53381, Note_on_c, 0, 77, 55
1, 53383, Note_off_c, 0, 48, 53
1, 53397, Note_on_c, 0, 58, 57
1, 53431, Note_off_c, 0, 58, 66
1, 53480, Note_on_c, 0, 57, 47
1, 53480, Poly_aftertouch_c, 0, 50, 0
1, 53488, Note_on_c, 0, 48, 62
1, 53506, Note_off_c, 0, 57, 59
1, 53518, Control_c, 0, 64, 55
1, 53524, Note_off_c, 0, 48, 64
1, 53533, Control_c, 0, 64, 77
1, 53542, Note_off_c, 0, 89, 63
1, 53548, Control_c, 0, 64, 112
1, 53561, Note_off_c, 0, 77, 57
1, 53569, Control_c, 0, 64, 127
1, 53601, Note_on_c, 0, 50, 57
1, 53610, Note_on_c, 0, 58, 57
1, 53649, Note_off_c, 0, 58, 62
1, 53684, Note_on_c, 0, 53, 46
1, 53687, Note_off_c, 0, 50, 59
1, 53688, Note_on_c, 0, 46, 70
1, 53707, Note_on_c, 0, 86, 75
1, 53711, Note_off_c, 0, 53, 56
1, 53712, Note_off_c, 0, 46, 65
1, 53713, Note_on_c, 0, 74, 58
1, 53730, Note_off_c, 0, 86, 68
1, 53732, Note_off_c, 0, 74, 66
1, 53810, Note_on_c, 0, 82, 78
1, 53812, Note_on_c, 0, 50, 63
1, 53817, Note_on_c, 0, 70, 66
1, 53819, Note_on_c, 0, 41, 54
1, 53836, Note_off_c, 0, 70, 68
1, 53840, Note_off_c, 0, 82, 57
1, 53851, Control_c, 0, 64, 122
1, 53866, Control_c, 0, 64, 113
1, 53876, Note_off_c, 0, 50, 46
1, 53879, Note_off_c, 0, 41, 62
1, 53880, Control_c, 0, 64, 108
1, 53895, Note_on_c, 0, 38, 42
1, 53895, Control_c, 0, 64, 103
1, 53900, Note_on_c, 0, 46, 49
1, 53910, Control_c, 0, 64, 98
1, 53913, Note_on_c, 0, 86, 81
1, 53925, Control_c, 0, 64, 93
1, 53926, Note_on_c, 0, 74, 59
1, 53926, Note_off_c, 0, 38, 52
1, 53931, Note_off_c, 0, 46, 51
1, 53936, Note_off_c, 0, 86, 66
1, 53939, Control_c, 0, 64, 88
1, 53944, Note_off_c, 0, 74, 65
1, 53954, Control_c, 0, 64, 84
1, 53969, Control_c, 0, 64, 81
1, 53984, Control_c, 0, 64, 77
1, 53998, Control_c, 0, 64, 73
1, 54009, Note_on_c, 0, 48, 58
1, 54013, Control_c, 0, 64, 69
1, 54016, Note_on_c, 0, 57, 57
1, 54016, Note_on_c, 0, 88, 81
1, 54028, Note_on_c, 0, 76, 59
1, 54029, Control_c, 0, 64, 62
1, 54033, Note_off_c, 0, 48, 62
1, 54044, Control_c, 0, 64, 56
1, 54047, Note_off_c, 0, 76, 65
1, 54059, Control_c, 0, 64, 52
1, 54063, Note_off_c, 0, 57, 48
1, 54064, Note_off_c, 0, 88, 59
1, 54073, Control_c, 0, 64, 49
1, 54088, Control_c, 0, 64, 44
1, 54102, Control_c, 0, 64, 31
1, 54108, Note_on_c, 0, 56, 56
1, 54110, Note_on_c, 0, 89, 79
1, 54111, Note_on_c, 0, 77, 76
1, 54111, Note_on_c, 0, 47, 62
1, 54117, Control_c, 0, 64, 0
1, 54131, Note_off_c, 0, 56, 62
1, 54147, Note_off_c, 0, 77, 60
1, 54150, Note_off_c, 0, 47, 63
1, 54158, Note_off_c, 0, 89, 64
1, 54220, Note_on_c, 0, 88, 67
1, 54224, Note_on_c, 0, 57, 57
1, 54245, Note_on_c, 0, 76, 50
1, 54246, Note_on_c, 0, 74, 48
1, 54271, Note_off_c, 0, 74, 59
1, 54311, Note_off_c, 0, 57, 57
1, 54317, Note_on_c, 0, 56, 64
1, 54317, Control_c, 0, 64, 60
1, 54332, Note_on_c, 0, 47, 55
1, 54332, Control_c, 0, 64, 71
1, 54347, Note_off_c, 0, 56, 63
1, 54347, Control_c, 0, 64, 83
1, 54362, Control_c, 0, 64, 105
1, 54371, Note_off_c, 0, 88, 62
1, 54373, Note_off_c, 0, 76, 65
1, 54376, Control_c, 0, 64, 127
1, 54379, Note_off_c, 0, 47, 46
1, 54432, Note_on_c, 0, 57, 62
1, 54437, Note_on_c, 0, 48, 59
1, 54483, Note_off_c, 0, 57, 60
1, 54532, Note_off_c, 0, 48, 62
1, 54538, Note_on_c, 0, 45, 50
1, 54540, Note_on_c, 0, 84, 77
1, 54544, Note_on_c, 0, 72, 63
1, 54561, Note_off_c, 0, 84, 70
1, 54564, Note_off_c, 0, 72, 65
1, 54565, Note_off_c, 0, 45, 55
1, 54614, Control_c, 0, 64, 122
1, 54628, Control_c, 0, 64, 116
1, 54643, Note_on_c, 0, 48, 70
1, 54643, Control_c, 0, 64, 112
1, 54651, Note_on_c, 0, 40, 59
1, 54651, Note_on_c, 0, 69, 73
1, 54651, Note_on_c, 0, 81, 74
1, 54658, Control_c, 0, 64, 109
1, 54666, Note_off_c, 0, 69, 69
1, 54673, Control_c, 0, 64, 106
1, 54677, Note_off_c, 0, 81, 63
1, 54684, Note_off_c, 0, 48, 58
1, 54688, Control_c, 0, 64, 101
1, 54702, Control_c, 0, 64, 98
1, 54717, Control_c, 0, 64, 95
1, 54731, Note_off_c, 0, 40, 60
1, 54732, Control_c, 0, 64, 93
1, 54734, Note_on_c, 0, 36, 61
1, 54746, Control_c, 0, 64, 90
1, 54754, Note_on_c, 0, 84, 81
1, 54756, Note_on_c, 0, 72, 75
1, 54758, Note_off_c, 0, 36, 57
1, 54761, Control_c, 0, 64, 86
1, 54776, Control_c, 0, 64, 82
1, 54782, Note_off_c, 0, 72, 68
1, 54784, Note_off_c, 0, 84, 55
1, 54791, Control_c, 0, 64, 80
1, 54806, Control_c, 0, 64, 77
1, 54821, Control_c, 0, 64, 72
1, 54837, Control_c, 0, 64, 67
1, 54851, Control_c, 0, 64, 61
1, 54862, Note_on_c, 0, 74, 67
1, 54864, Note_on_c, 0, 53, 52
1, 54864, Note_on_c, 0, 86, 62
1, 54866, Control_c, 0, 64, 56
1, 54868, Note_on_c, 0, 57, 57
1, 54881, Control_c, 0, 64, 51
1, 54886, Note_on_c, 0, 84, 58
1, 54889, Note_off_c, 0, 74, 68
1, 54894, Note_off_c, 0, 84, 49
1, 54896, Control_c, 0, 64, 45
1, 54911, Control_c, 0, 64, 32
1, 54913, Note_off_c, 0, 86, 52
1, 54913, Note_off_c, 0, 57, 61
1, 54925, Control_c, 0, 64, 0
1, 54937, Note_off_c, 0, 53, 63
1, 54946, Note_on_c, 0, 47, 57
1, 54958, Note_on_c, 0, 88, 78
1, 54964, Note_on_c, 0, 76, 71
1, 54970, Note_off_c, 0, 47, 61
1, 54992, Note_off_c, 0, 76, 67
1, 55007, Note_off_c, 0, 88, 61
1, 55072, Note_on_c, 0, 86, 78
1, 55073, Note_on_c, 0, 45, 52
1, 55074, Note_on_c, 0, 74, 72
1, 55083, Note_on_c, 0, 41, 43
1, 55125, Note_off_c, 0, 45, 63
1, 55131, Note_off_c, 0, 41, 54
1, 55154, Note_on_c, 0, 35, 61
1, 55170, Control_c, 0, 64, 62
1, 55182, Note_off_c, 0, 35, 65
1, 55184, Control_c, 0, 64, 82
1, 55199, Control_c, 0, 64, 127
1, 55274, Note_off_c, 0, 74, 47
1, 55285, Note_on_c, 0, 56, 66
1, 55314, Note_off_c, 0, 56, 64
1, 55379, Note_on_c, 0, 88, 75
1, 55381, Note_on_c, 0, 40, 64
1, 55381, Note_on_c, 0, 76, 70
1, 55407, Note_off_c, 0, 86, 61
1, 55408, Note_off_c, 0, 40, 65
1, 55416, Note_off_c, 0, 76, 62
1, 55428, Note_off_c, 0, 88, 60
1, 55466, Control_c, 0, 64, 107
1, 55481, Control_c, 0, 64, 83
1, 55496, Control_c, 0, 64, 63
1, 55508, Note_on_c, 0, 44, 61
1, 55509, Note_on_c, 0, 74, 66
1, 55510, Note_on_c, 0, 86, 72
1, 55510, Control_c, 0, 64, 0
1, 55542, Note_off_c, 0, 44, 65
1, 55599, Control_c, 0, 64, 63
1, 55614, Control_c, 0, 64, 83
1, 55630, Control_c, 0, 64, 127
1, 55648, Note_on_c, 0, 28, 67
1, 55681, Note_off_c, 0, 28, 61
1, 55757, Note_off_c, 0, 74, 58
1, 55919, Note_on_c, 0, 52, 44
1, 56007, Note_on_c, 0, 45, 60
1, 56009, Note_off_c, 0, 52, 64
1, 56017, Note_on_c, 0, 88, 72
1, 56019, Note_on_c, 0, 76, 70
1, 56040, Note_off_c, 0, 45, 65
1, 56043, Note_off_c, 0, 86, 57
1, 56057, Note_off_c, 0, 76, 62
1, 56070, Note_off_c, 0, 88, 59
1, 56147, Note_on_c, 0, 44, 48
1, 56148, Note_on_c, 0, 86, 73
1, 56150, Note_on_c, 0, 74, 64
1, 56156, Control_c, 0, 64, 101
1, 56171, Control_c, 0, 64, 74
1, 56183, Note_on_c, 0, 40, 27
1, 56186, Control_c, 0, 64, 44
1, 56189, Note_off_c, 0, 44, 61
1, 56200, Control_c, 0, 64, 0
1, 56237, Note_off_c, 0, 40, 44
1, 56251, Note_on_c, 0, 33, 68
1, 56274, Control_c, 0, 64, 40
1, 56289, Control_c, 0, 64, 73
1, 56304, Control_c, 0, 64, 107
1, 56312, Note_off_c, 0, 86, 62
1, 56317, Note_off_c, 0, 33, 59
1, 56319, Control_c, 0, 64, 127
1, 56320, Note_off_c, 0, 74, 62
1, 56357, Note_on_c, 0, 40, 38
1, 56359, Note_on_c, 0, 45, 54
1, 56389, Note_off_c, 0, 45, 65
1, 56392, Note_off_c, 0, 40, 48
1, 56472, Note_on_c, 0, 83, 61
1, 56479, Note_on_c, 0, 71, 53
1, 56481, Note_on_c, 0, 80, 60
1, 56484, Note_on_c, 0, 45, 57
1, 56506, Note_off_c, 0, 71, 52
1, 56515, Note_off_c, 0, 80, 63
1, 56522, Note_off_c, 0, 83, 56
1, 56583, Note_off_c, 0, 45, 53
1, 56625, Note_on_c, 0, 57, 41
1, 56646, Note_on_c, 0, 72, 36
1, 56655, Note_off_c, 0, 57, 51
1, 56666, Poly_aftertouch_c, 0, 52, 127
1, 56670, Note_on_c, 0, 84, 18
1, 56677, Note_off_c, 0, 72, 53
1, 56682, Note_on_c, 0, 86, 14
1, 56695, Poly_aftertouch_c, 0, 52, 0
1, 56709, Note_off_c, 0, 84, 50
1, 56723, Note_off_c, 0, 86, 39
1, 56776, Note_on_c, 0, 57, 36
1, 56891, Note_off_c, 0, 57, 34
1, 56919, Control_c, 0, 64, 96
1, 56925, Note_on_c, 0, 69, 56
1, 56934, Control_c, 0, 64, 67
1, 56937, Note_on_c, 0, 61, 48
1, 56938, Note_on_c, 0, 88, 59
1, 56943, Note_on_c, 0, 97, 61
1, 56944, Note_on_c, 0, 100, 65
1, 56949, Control_c, 0, 64, 0
1, 56982, Note_off_c, 0, 88, 43
1, 56994, Control_c, 0, 64, 41
1, 57009, Control_c, 0, 64, 70
1, 57023, Control_c, 0, 64, 97
1, 57028, Note_off_c, 0, 97, 59
1, 57032, Note_off_c, 0, 100, 63
1, 57038, Control_c, 0, 64, 127
1, 57077, Note_off_c, 0, 69, 53
1, 57077, Note_on_c, 0, 89, 64
1, 57081, Note_on_c, 0, 101, 58
1, 57082, Note_on_c, 0, 59, 45
1, 57083, Note_on_c, 0, 68, 58
1, 57083, Note_on_c, 0, 98, 54
1, 57089, Note_off_c, 0, 61, 46
1, 57099, Note_off_c, 0, 101, 60
1, 57105, Note_off_c, 0, 98, 65
1, 57107, Note_off_c, 0, 89, 64
1, 57135, Note_off_c, 0, 59, 48
1, 57150, Note_off_c, 0, 68, 55
1, 57189, Note_on_c, 0, 97, 65
1, 57189, Note_on_c, 0, 100, 63
1, 57192, Note_on_c, 0, 88, 64
1, 57206, Note_on_c, 0, 69, 58
1, 57215, Note_off_c, 0, 88, 58
1, 57226, Note_on_c, 0, 61, 45
1, 57227, Note_off_c, 0, 100, 61
1, 57229, Note_off_c, 0, 97, 62
1, 57248, Note_off_c, 0, 69, 44
1, 57305, Note_on_c, 0, 59, 57
1, 57308, Note_on_c, 0, 98, 63
1, 57311, Note_off_c, 0, 61, 55
1, 57313, Note_on_c, 0, 68, 56
1, 57313, Note_on_c, 0, 101, 52
1, 57322, Note_on_c, 0, 89, 51
1, 57332, Note_off_c, 0, 101, 58
1, 57335, Note_off_c, 0, 98, 69
1, 57342, Note_off_c, 0, 89, 59
1, 57377, Note_off_c, 0, 59, 57
1, 57399, Note_off_c, 0, 68, 63
1, 57409, Note_on_c, 0, 69, 62
1, 57411, Note_on_c, 0, 88, 67
1, 57413, Note_on_c, 0, 97, 67
1, 57417, Note_on_c, 0, 100, 62
1, 57431, Note_off_c, 0, 88, 63
1, 57438, Note_off_c, 0, 100, 63
1, 57440, Note_off_c, 0, 97, 69
1, 57441, Note_on_c, 0, 61, 45
1, 57515, Note_on_c, 0, 98, 65
1, 57518, Note_on_c, 0, 101, 70
1, 57520, Note_on_c, 0, 89, 53
1, 57524, Note_on_c, 0, 59, 58
1, 57526, Note_on_c, 0, 68, 63
1, 57529, Note_off_c, 0, 69, 35
1, 57530, Note_off_c, 0, 61, 55
1, 57530, Note_off_c, 0, 98, 68
1, 57531, Note_off_c, 0, 101, 65
1, 57539, Note_off_c, 0, 89, 61
1, 57605, Note_off_c, 0, 59, 60
1, 57612, Note_on_c, 0, 97, 75
1, 57617, Note_on_c, 0, 88, 69
1, 57617, Note_off_c, 0, 68, 64
1, 57619, Note_on_c, 0, 69, 70
1, 57627, Note_on_c, 0, 100, 55
1, 57635, Note_off_c, 0, 69, 71
1, 57635, Note_off_c, 0, 97, 70
1, 57641, Note_off_c, 0, 88, 64
1, 57648, Note_off_c, 0, 100, 58
1, 57706, Poly_aftertouch_c, 0, 61, 0
1, 57720, Note_on_c, 0, 64, 69
1, 57726, Note_on_c, 0, 97, 79
1, 57727, Note_on_c, 0, 73, 69
1, 57741, Note_on_c, 0, 85, 59
1, 57745, Note_off_c, 0, 97, 72
1, 57754, Note_off_c, 0, 73, 69
1, 57760, Note_off_c, 0, 85, 65
1, 57787, Control_c, 0, 64, 93
1, 57802, Control_c, 0, 64, 66
1, 57816, Control_c, 0, 64, 0
1, 57833, Note_on_c, 0, 74, 66
1, 57834, Note_off_c, 0, 64, 26
1, 57835, Note_on_c, 0, 81, 73
1, 57840, Note_on_c, 0, 93, 68
1, 57843, Note_on_c, 0, 65, 54
1, 57847, Note_on_c, 0, 89, 53
1, 57858, Note_off_c, 0, 81, 67
1, 57860, Note_on_c, 0, 88, 46
1, 57864, Note_off_c, 0, 65, 64
1, 57876, Control_c, 0, 64, 27
1, 57884, Note_off_c, 0, 88, 55
1, 57888, Note_off_c, 0, 93, 43
1, 57889, Note_off_c, 0, 89, 62
1, 57891, Control_c, 0, 64, 68
1, 57905, Control_c, 0, 64, 97
1, 57920, Control_c, 0, 64, 127
1, 57926, Note_off_c, 0, 74, 32
1, 57936, Note_on_c, 0, 82, 76
1, 57938, Note_on_c, 0, 73, 69
1, 57940, Note_on_c, 0, 64, 73
1, 57945, Note_on_c, 0, 94, 65
1, 57959, Note_off_c, 0, 82, 68
1, 57962, Note_off_c, 0, 73, 69
1, 57965, Note_on_c, 0, 91, 35
1, 57968, Note_off_c, 0, 94, 66
1, 57998, Note_off_c, 0, 91, 33
1, 58031, Note_off_c, 0, 64, 56
1, 58034, Note_on_c, 0, 81, 79
1, 58040, Note_on_c, 0, 93, 72
1, 58055, Note_on_c, 0, 65, 60
1, 58055, Note_on_c, 0, 74, 67
1, 58066, Note_on_c, 0, 89, 34
1, 58073, Note_off_c, 0, 81, 62
1, 58082, Note_off_c, 0, 65, 63
1, 58094, Note_off_c, 0, 93, 56
1, 58094, Note_off_c, 0, 89, 57
1, 58147, Note_off_c, 0, 74, 60
1, 58147, Note_on_c, 0, 82, 80
1, 58148, Note_on_c, 0, 73, 71
1, 58159, Note_on_c, 0, 64, 67
1, 58165, Note_on_c, 0, 93, 46
1, 58168, Note_on_c, 0, 91, 36
1, 58177, Note_off_c, 0, 82, 59
1, 58179, Note_off_c, 0, 73, 59
1, 58191, Note_off_c, 0, 93, 55
1, 58197, Note_off_c, 0, 91, 54
1, 58205, Note_off_c, 0, 64, 56
1, 58257, Note_on_c, 0, 93, 81
1, 58258, Note_on_c, 0, 74, 66
1, 58258, Note_on_c, 0, 81, 77
1, 58264, Note_on_c, 0, 65, 65
1, 58281, Note_off_c, 0, 81, 67
1, 58298, Note_off_c, 0, 93, 57
1, 58314, Note_off_c, 0, 74, 63
1, 58356, Note_on_c, 0, 62, 68
1, 58360, Note_on_c, 0, 69, 56
1, 58366, Note_on_c, 0, 97, 78
1, 58368, Note_off_c, 0, 65, 64
1, 58369, Note_on_c, 0, 85, 57
1, 58381, Note_off_c, 0, 69, 61
1, 58386, Note_off_c, 0, 62, 65
1, 58392, Note_off_c, 0, 97, 64
1, 58398, Note_off_c, 0, 85, 66
1, 58476, Note_on_c, 0, 98, 80
1, 58478, Note_on_c, 0, 86, 72
1, 58486, Note_on_c, 0, 65, 70
1, 58490, Note_on_c, 0, 57, 56
1, 58504, Note_off_c, 0, 86, 65
1, 58508, Note_off_c, 0, 98, 65
1, 58521, Note_off_c, 0, 65, 64
1, 58581, Note_on_c, 0, 53, 60
1, 58582, Note_on_c, 0, 62, 62
1, 58587, Note_off_c, 0, 57, 56
1, 58610, Note_off_c, 0, 62, 65
1, 58611, Note_off_c, 0, 53, 66
1, 58684, Control_c, 0, 64, 86
1, 58699, Control_c, 0, 64, 58
1, 58713, Control_c, 0, 64, 0
1, 58732, Note_on_c, 0, 59, 46
1, 58738, Note_on_c, 0, 98, 73
1, 58741, Note_on_c, 0, 67, 54
1, 58742, Note_on_c, 0, 95, 70
1, 58749, Note_on_c, 0, 86, 54
1, 58758, Control_c, 0, 64, 18
1, 58770, Note_off_c, 0, 86, 58
1, 58773, Control_c, 0, 64, 63
1, 58773, Note_off_c, 0, 95, 67
1, 58788, Control_c, 0, 64, 86
1, 58800, Note_off_c, 0, 98, 65
1, 58809, Control_c, 0, 64, 127
1, 58865, Note_off_c, 0, 67, 58
1, 58875, Note_on_c, 0, 87, 73
1, 58875, Note_on_c, 0, 99, 71
1, 58877, Note_on_c, 0, 66, 61
1, 58879, Note_on_c, 0, 57, 58
1, 58882, Note_off_c, 0, 59, 53
1, 58884, Note_on_c, 0, 96, 58
1, 58905, Note_off_c, 0, 66, 65
1, 58907, Note_off_c, 0, 87, 60
1, 58907, Note_off_c, 0, 99, 64
1, 58923, Note_off_c, 0, 96, 60
1, 58979, Note_on_c, 0, 98, 74
1, 58981, Note_on_c, 0, 67, 66
1, 58981, Note_on_c, 0, 86, 65
1, 58982, Note_off_c, 0, 57, 52
1, 58990, Note_on_c, 0, 95, 72
1, 58991, Note_on_c, 0, 59, 55
1, 59003, Note_on_c, 0, 94, 38
1, 59011, Note_off_c, 0, 86, 65
1, 59021, Note_off_c, 0, 94, 54
1, 59027, Note_off_c, 0, 95, 62
1, 59039, Note_off_c, 0, 98, 62
1, 59067, Note_off_c, 0, 59, 35
1, 59084, Note_on_c, 0, 66, 67
1, 59084, Note_on_c, 0, 87, 80
1, 59088, Note_on_c, 0, 99, 68
1, 59089, Note_off_c, 0, 67, 60
1, 59092, Note_on_c, 0, 96, 73
1, 59095, Note_on_c, 0, 57, 60
1, 59116, Note_off_c, 0, 99, 67
1, 59116, Note_off_c, 0, 66, 62
1, 59119, Note_off_c, 0, 87, 62
1, 59131, Note_off_c, 0, 96, 54
1, 59186, Note_on_c, 0, 86, 76
1, 59186, Note_on_c, 0, 98, 74
1, 59186, Note_off_c, 0, 57, 57
1, 59191, Note_on_c, 0, 59, 58
1, 59197, Note_on_c, 0, 95, 74
1, 59202, Note_on_c, 0, 67, 59
1, 59220, Note_off_c, 0, 86, 59
1, 59238, Note_off_c, 0, 95, 64
1, 59238, Note_off_c, 0, 98, 67
1, 59272, Note_off_c, 0, 59, 36
1, 59285, Note_off_c, 0, 67, 62
1, 59289, Note_on_c, 0, 66, 67
1, 59291, Note_on_c, 0, 87, 79
1, 59295, Note_on_c, 0, 57, 63
1, 59295, Note_on_c, 0, 99, 65
1, 59307, Note_on_c, 0, 96, 58
1, 59317, Note_off_c, 0, 87, 66
1, 59322, Note_off_c, 0, 99, 65
1, 59328, Note_off_c, 0, 66, 63
1, 59337, Note_off_c, 0, 96, 65
1, 59386, Note_off_c, 0, 57, 58
1, 59393, Note_on_c, 0, 67, 64
1, 59396, Note_on_c, 0, 59, 47
1, 59398, Note_on_c, 0, 86, 56
1, 59402, Note_on_c, 0, 95, 58
1, 59402, Note_on_c, 0, 98, 42
1, 59414, Note_off_c, 0, 59, 61
1, 59420, Note_off_c, 0, 67, 66
1, 59420, Note_off_c, 0, 86, 61
1, 59422, Note_off_c, 0, 95, 62
1, 59426, Note_off_c, 0, 98, 55
1, 59501, Note_on_c, 0, 95, 72
1, 59506, Note_on_c, 0, 62, 66
1, 59511, Note_on_c, 0, 83, 68
1, 59519, Note_on_c, 0, 91, 57
1, 59522, Note_on_c, 0, 71, 47
1, 59522, Note_off_c, 0, 95, 57
1, 59545, Note_off_c, 0, 83, 66
1, 59545, Note_off_c, 0, 91, 59
1, 59548, Note_on_c, 0, 90, 21
1, 59554, Note_off_c, 0, 71, 54
1, 59558, Control_c, 0, 64, 108
1, 59573, Control_c, 0, 64, 73
1, 59588, Control_c, 0, 64, 26
1, 59590, Note_off_c, 0, 90, 29
1, 59603, Control_c, 0, 64, 0
1, 59625, Note_on_c, 0, 64, 63
1, 59625, Note_on_c, 0, 91, 66
1, 59626, Note_on_c, 0, 72, 65
1, 59628, Note_off_c, 0, 62, 59
1, 59629, Note_on_c, 0, 88, 66
1, 59643, Note_on_c, 0, 79, 54
1, 59648, Control_c, 0, 64, 52
1, 59656, Note_off_c, 0, 88, 55
1, 59663, Note_off_c, 0, 79, 60
1, 59663, Control_c, 0, 64, 80
1, 59665, Note_off_c, 0, 72, 60
1, 59667, Note_off_c, 0, 91, 53
1, 59671, Note_off_c, 0, 64, 51
1, 59678, Control_c, 0, 64, 127
1, 59728, Note_on_c, 0, 89, 64
1, 59738, Note_on_c, 0, 80, 75
1, 59742, Note_on_c, 0, 92, 72
1, 59744, Note_on_c, 0, 71, 46
1, 59749, Note_on_c, 0, 62, 57
1, 59767, Note_off_c, 0, 71, 56
1, 59775, Note_off_c, 0, 80, 61
1, 59777, Note_off_c, 0, 92, 64
1, 59793, Note_off_c, 0, 89, 57
1, 59839, Note_on_c, 0, 64, 61
1, 59844, Note_off_c, 0, 62, 58
1, 59845, Note_on_c, 0, 91, 71
1, 59846, Note_on_c, 0, 88, 67
1, 59847, Note_on_c, 0, 72, 61
1, 59855, Note_on_c, 0, 79, 45
1, 59878, Note_off_c, 0, 64, 58
1, 59879, Note_off_c, 0, 79, 53
1, 59887, Note_off_c, 0, 72, 63
1, 59899, Note_off_c, 0, 88, 61
1, 59906, Note_off_c, 0, 91, 51
1, 59943, Note_on_c, 0, 71, 60
1, 59945, Note_on_c, 0, 80, 80
1, 59954, Note_on_c, 0, 92, 64
1, 59957, Note_on_c, 0, 89, 70
1, 59958, Note_on_c, 0, 62, 68
1, 59969, Note_off_c, 0, 92, 67
1, 59972, Note_off_c, 0, 80, 63
1, 59975, Note_off_c, 0, 71, 63
1, 59986, Note_off_c, 0, 89, 65
1, 60032, Note_off_c, 0, 62, 51
1, 60058, Note_on_c, 0, 88, 66
1, 60061, Note_on_c, 0, 64, 63
1, 60061, Note_on_c, 0, 91, 62
1, 60067, Note_on_c, 0, 79, 48
1, 60072, Note_on_c, 0, 72, 62
1, 60085, Note_off_c, 0, 88, 66
1, 60088, Note_off_c, 0, 79, 57
1, 60091, Note_off_c, 0, 91, 63
1, 60106, Note_off_c, 0, 72, 66
1, 60156, Note_on_c, 0, 67, 56
1, 60167, Note_on_c, 0, 60, 59
1, 60168, Note_off_c, 0, 64, 61
1, 60172, Note_on_c, 0, 83, 64
1, 60173, Note_on_c, 0, 95, 76
1, 60176, Note_off_c, 0, 67, 61
1, 60187, Note_off_c, 0, 60, 63
1, 60198, Note_off_c, 0, 95, 69
1, 60201, Note_off_c, 0, 83, 65
1, 60278, Note_on_c, 0, 96, 81
1, 60282, Note_on_c, 0, 84, 72
1, 60300, Note_on_c, 0, 64, 65
1, 60302, Note_on_c, 0, 55, 57
1, 60315, Note_off_c, 0, 96, 60
1, 60318, Note_off_c, 0, 84, 63
1, 60344, Note_off_c, 0, 64, 53
1, 60394, Note_off_c, 0, 55, 59
1, 60399, Note_on_c, 0, 52, 61
1, 60413, Note_on_c, 0, 60, 46
1, 60424, Note_off_c, 0, 52, 64
1, 60440, Note_off_c, 0, 60, 54
1, 60457, Control_c, 0, 64, 118
1, 60471, Control_c, 0, 64, 80
1, 60486, Control_c, 0, 64, 52
1, 60501, Control_c, 0, 64, 0
1, 60540, Note_on_c, 0, 89, 72
1, 60542, Note_on_c, 0, 70, 71
1, 60544, Note_on_c, 0, 77, 64
1, 60546, Note_on_c, 0, 86, 70
1, 60554, Note_on_c, 0, 62, 38
1, 60560, Control_c, 0, 64, 61
1, 60571, Note_off_c, 0, 77, 65
1, 60574, Note_off_c, 0, 86, 66
1, 60575, Control_c, 0, 64, 80
1, 60580, Note_off_c, 0, 89, 54
1, 60589, Note_off_c, 0, 70, 56
1, 60590, Control_c, 0, 64, 127
1, 60655, Note_on_c, 0, 87, 70
1, 60657, Note_on_c, 0, 60, 62
1, 60659, Note_on_c, 0, 78, 73
1, 60666, Note_on_c, 0, 90, 62
1, 60668, Note_on_c, 0, 69, 55
1, 60671, Note_off_c, 0, 62, 26
1, 60682, Note_off_c, 0, 78, 67
1, 60684, Note_off_c, 0, 87, 63
1, 60684, Note_off_c, 0, 90, 64
1, 60689, Note_off_c, 0, 69, 60
1, 60764, Note_on_c, 0, 77, 67
1, 60764, Note_on_c, 0, 86, 70
1, 60764, Note_on_c, 0, 89, 70
1, 60774, Note_off_c, 0, 60, 39
1, 60775, Note_on_c, 0, 70, 61
1, 60779, Note_on_c, 0, 62, 49
1, 60790, Note_off_c, 0, 86, 65
1, 60792, Note_off_c, 0, 77, 65
1, 60797, Note_off_c, 0, 89, 62
1, 60804, Note_off_c, 0, 70, 67
1, 60809, Note_off_c, 0, 62, 50
1, 60855, Note_on_c, 0, 69, 65
1, 60866, Note_on_c, 0, 60, 67
1, 60869, Note_on_c, 0, 78, 77
1, 60870, Note_on_c, 0, 87, 78
1, 60870, Note_on_c, 0, 90, 75
1, 60890, Note_off_c, 0, 78, 67
1, 60893, Note_off_c, 0, 69, 66
1, 60894, Note_off_c, 0, 87, 68
1, 60896, Note_off_c, 0, 90, 66
1, 60897, Note_off_c, 0, 60, 59
1, 60974, Note_on_c, 0, 77, 73
1, 60977, Note_on_c, 0, 89, 67
1, 60979, Note_on_c, 0, 70, 67
1, 60988, Note_on_c, 0, 62, 61
1, 60988, Note_on_c, 0, 86, 54
1, 60998, Note_off_c, 0, 77, 65
1, 61004, Note_off_c, 0, 89, 66
1, 61007, Note_off_c, 0, 86, 62
1, 61049, Note_off_c, 0, 70, 63
1, 61077, Note_on_c, 0, 65, 60
1, 61089, Note_on_c, 0, 58, 66
1, 61094, Note_on_c, 0, 93, 81
1, 61094, Note_off_c, 0, 62, 56
1, 61096, Note_on_c, 0, 81, 70
1, 61104, Note_off_c, 0, 65, 68
1, 61115, Note_off_c, 0, 58, 66
1, 61120, Note_off_c, 0, 93, 61
1, 61121, Note_off_c, 0, 81, 65
1, 61205, Note_on_c, 0, 94, 80
1, 61209, Note_on_c, 0, 82, 73
1, 61227, Note_on_c, 0, 62, 63
1, 61233, Note_on_c, 0, 53, 48
1, 61244, Note_off_c, 0, 82, 59
1, 61245, Note_off_c, 0, 94, 64
1, 61319, Note_off_c, 0, 53, 61
1, 61327, Note_off_c, 0, 62, 49
1, 61328, Note_on_c, 0, 58, 52
1, 61330, Note_on_c, 0, 50, 39
1, 61340, Note_on_c, 0, 86, 69
1, 61340, Note_on_c, 0, 77, 68
1, 61343, Note_on_c, 0, 89, 66
1, 61363, Note_off_c, 0, 50, 49
1, 61368, Note_off_c, 0, 58, 61
1, 61372, Note_off_c, 0, 77, 62
1, 61379, Note_off_c, 0, 89, 61
1, 61428, Control_c, 0, 64, 89
1, 61443, Control_c, 0, 64, 65
1, 61458, Control_c, 0, 64, 0
1, 61490, Note_on_c, 0, 76, 64
1, 61492, Note_on_c, 0, 88, 64
1, 61493, Note_off_c, 0, 86, 53
1, 61501, Note_on_c, 0, 84, 57
1, 61505, Note_on_c, 0, 60, 50
1, 61512, Note_on_c, 0, 69, 53
1, 61517, Control_c, 0, 64, 53
1, 61525, Note_off_c, 0, 76, 63
1, 61532, Control_c, 0, 64, 76
1, 61540, Note_off_c, 0, 84, 63
1, 61541, Note_off_c, 0, 60, 56
1, 61546, Control_c, 0, 64, 127
1, 61553, Note_off_c, 0, 88, 62
1, 61608, Note_on_c, 0, 86, 76
1, 61614, Note_on_c, 0, 68, 55
1, 61615, Note_on_c, 0, 89, 61
1, 61619, Note_on_c, 0, 59, 55
1, 61621, Note_on_c, 0, 77, 55
1, 61621, Note_off_c, 0, 69, 27
1, 61632, Note_off_c, 0, 89, 66
1, 61635, Note_off_c, 0, 68, 62
1, 61638, Note_off_c, 0, 86, 59
1, 61644, Note_off_c, 0, 77, 61
1, 61685, Note_off_c, 0, 59, 40
1, 61717, Note_on_c, 0, 60, 55
1, 61718, Note_on_c, 0, 76, 75
1, 61719, Note_on_c, 0, 88, 66
1, 61722, Note_on_c, 0, 84, 61
1, 61723, Note_on_c, 0, 69, 67
1, 61742, Note_off_c, 0, 60, 56
1, 61743, Note_off_c, 0, 76, 68
1, 61743, Note_off_c, 0, 84, 59
1, 61753, Note_off_c, 0, 88, 60
1, 61817, Note_off_c, 0, 69, 57
1, 61827, Note_on_c, 0, 68, 71
1, 61833, Note_on_c, 0, 59, 62
1, 61836, Note_on_c, 0, 89, 67
1, 61837, Note_on_c, 0, 86, 69
1, 61850, Note_on_c, 0, 77, 43
1, 61853, Note_off_c, 0, 89, 66
1, 61855, Note_off_c, 0, 68, 65
1, 61864, Note_off_c, 0, 86, 65
1, 61879, Note_off_c, 0, 77, 52
1, 61888, Note_off_c, 0, 59, 57
1, 61930, Note_on_c, 0, 76, 54
1, 61934, Note_on_c, 0, 84, 72
1, 61939, Note_on_c, 0, 69, 64
1, 61940, Note_on_c, 0, 88, 64
1, 61944, Note_on_c, 0, 60, 63
1, 61951, Note_off_c, 0, 76, 68
1, 61958, Note_off_c, 0, 84, 68
1, 61969, Note_off_c, 0, 88, 64
1, 61987, Note_off_c, 0, 69, 62
1, 62040, Note_on_c, 0, 64, 58
1, 62041, Note_on_c, 0, 57, 61
1, 62046, Note_off_c, 0, 60, 58
1, 62049, Note_on_c, 0, 92, 83
1, 62052, Note_on_c, 0, 80, 70
1, 62058, Note_off_c, 0, 64, 63
1, 62070, Note_off_c, 0, 57, 64
1, 62073, Note_off_c, 0, 92, 67
1, 62076, Note_off_c, 0, 80, 67
1, 62161, Note_on_c, 0, 93, 79
1, 62163, Note_on_c, 0, 81, 77
1, 62165, Note_on_c, 0, 60, 64
1, 62169, Note_on_c, 0, 52, 65
1, 62183, Note_off_c, 0, 93, 68
1, 62191, Note_off_c, 0, 81, 62
1, 62222, Note_off_c, 0, 60, 55
1, 62261, Note_on_c, 0, 48, 64
1, 62266, Note_off_c, 0, 52, 61
1, 62276, Note_on_c, 0, 88, 76
1, 62278, Note_on_c, 0, 84, 76
1, 62279, Note_on_c, 0, 57, 44
1, 62279, Note_on_c, 0, 76, 78
1, 62290, Note_off_c, 0, 48, 65
1, 62303, Note_off_c, 0, 57, 56
1, 62309, Note_off_c, 0, 88, 55
1, 62310, Note_off_c, 0, 76, 63
1, 62324, Control_c, 0, 64, 109
1, 62339, Control_c, 0, 64, 98
1, 62354, Control_c, 0, 64, 90
1, 62368, Control_c, 0, 64, 82
1, 62383, Control_c, 0, 64, 74
1, 62398, Control_c, 0, 64, 65
1, 62402, Note_on_c, 0, 69, 59
1, 62402, Note_on_c, 0, 74, 64
1, 62402, Note_on_c, 0, 83, 64
1, 62404, Note_on_c, 0, 86, 69
1, 62405, Note_on_c, 0, 65, 53
1, 62411, Note_off_c, 0, 84, 55
1, 62413, Control_c, 0, 64, 47
1, 62420, Note_off_c, 0, 74, 67
1, 62428, Control_c, 0, 64, 10
1, 62443, Control_c, 0, 64, 0
1, 62457, Note_off_c, 0, 69, 60
1, 62458, Note_off_c, 0, 83, 51
1, 62486, Note_off_c, 0, 65, 65
1, 62499, Note_on_c, 0, 59, 47
1, 62503, Note_on_c, 0, 88, 73
1, 62503, Note_off_c, 0, 86, 39
1, 62508, Note_on_c, 0, 76, 71
1, 62514, Note_on_c, 0, 84, 73
1, 62522, Note_off_c, 0, 59, 58
1, 62549, Note_off_c, 0, 76, 65
1, 62550, Note_off_c, 0, 88, 59
1, 62563, Note_off_c, 0, 84, 56
1, 62628, Note_on_c, 0, 74, 69
1, 62629, Note_on_c, 0, 86, 68
1, 62631, Note_on_c, 0, 53, 46
1, 62631, Note_on_c, 0, 57, 53
1, 62631, Note_on_c, 0, 83, 61
1, 62672, Note_off_c, 0, 53, 58
1, 62687, Control_c, 0, 64, 56
1, 62693, Note_off_c, 0, 57, 56
1, 62702, Control_c, 0, 64, 80
1, 62711, Note_on_c, 0, 47, 69
1, 62717, Control_c, 0, 64, 127
1, 62741, Note_off_c, 0, 47, 66
1, 62827, Note_off_c, 0, 74, 61
1, 62851, Note_on_c, 0, 68, 69
1, 62882, Note_off_c, 0, 68, 65
1, 62955, Note_on_c, 0, 88, 70
1, 62957, Note_on_c, 0, 84, 67
1, 62958, Note_on_c, 0, 76, 67
1, 62960, Note_off_c, 0, 86, 56
1, 62968, Note_on_c, 0, 53, 37
1, 62990, Note_off_c, 0, 76, 62
1, 62994, Note_off_c, 0, 88, 58
1, 62997, Note_off_c, 0, 84, 57
1, 62998, Note_off_c, 0, 53, 52
1, 63013, Note_off_c, 0, 83, 31
1, 63073, Control_c, 0, 64, 103
1, 63088, Control_c, 0, 64, 76
1, 63092, Note_on_c, 0, 86, 73
1, 63096, Note_on_c, 0, 74, 70
1, 63096, Note_on_c, 0, 83, 71
1, 63099, Note_on_c, 0, 56, 57
1, 63103, Control_c, 0, 64, 53
1, 63117, Control_c, 0, 64, 0
1, 63129, Note_off_c, 0, 56, 65
1, 63191, Control_c, 0, 64, 43
1, 63206, Control_c, 0, 64, 73
1, 63221, Control_c, 0, 64, 104
1, 63233, Note_on_c, 0, 40, 64
1, 63236, Control_c, 0, 64, 127
1, 63274, Note_off_c, 0, 40, 60
1, 63354, Note_off_c, 0, 74, 58
1, 63502, Note_on_c, 0, 68, 47
1, 63512, Note_on_c, 0, 64, 40
1, 63540, Note_off_c, 0, 68, 56
1, 63617, Note_on_c, 0, 57, 64
1, 63626, Note_off_c, 0, 64, 57
1, 63629, Note_off_c, 0, 86, 52
1, 63646, Note_off_c, 0, 57, 65
1, 63647, Note_on_c, 0, 84, 65
1, 63650, Note_on_c, 0, 88, 59
1, 63651, Note_on_c, 0, 76, 62
1, 63677, Note_off_c, 0, 76, 67
1, 63680, Note_off_c, 0, 88, 65
1, 63683, Note_off_c, 0, 84, 61
1, 63685, Note_off_c, 0, 83, 40
1, 63719, Control_c, 0, 64, 81
1, 63734, Control_c, 0, 64, 51
1, 63748, Control_c, 0, 64, 0
1, 63757, Note_on_c, 0, 86, 72
1, 63763, Note_on_c, 0, 56, 45
1, 63763, Note_on_c, 0, 74, 66
1, 63766, Note_on_c, 0, 83, 67
1, 63793, Control_c, 0, 64, 36
1, 63804, Note_off_c, 0, 56, 60
1, 63808, Control_c, 0, 64, 68
1, 63822, Control_c, 0, 64, 93
1, 63837, Control_c, 0, 64, 127
1, 63843, Poly_aftertouch_c, 0, 52, 127
1, 63885, Note_on_c, 0, 45, 58
1, 63889, Poly_aftertouch_c, 0, 52, 0
1, 63906, Note_off_c, 0, 74, 62
1, 63911, Note_off_c, 0, 86, 61
1, 63914, Note_off_c, 0, 83, 60
1, 63994, Note_off_c, 0, 45, 61
1, 64025, Note_on_c, 0, 52, 38
1, 64049, Note_on_c, 0, 57, 40
1, 64064, Note_off_c, 0, 52, 51
1, 64077, Note_off_c, 0, 57, 53
1, 64175, Note_on_c, 0, 57, 49
1, 64175, Note_on_c, 0, 83, 60
1, 64187, Note_on_c, 0, 71, 49
1, 64190, Note_on_c, 0, 80, 56
1, 64225, Note_off_c, 0, 71, 46
1, 64231, Note_off_c, 0, 80, 59
1, 64237, Note_off_c, 0, 83, 61
1, 64392, Control_c, 0, 64, 103
1, 64404, Note_on_c, 0, 69, 46
1, 64405, Note_on_c, 0, 72, 52
1, 64405, Note_on_c, 0, 84, 58
1, 64406, Note_on_c, 0, 81, 57
1, 64407, Control_c, 0, 64, 86
1, 64411, Note_on_c, 0, 64, 46
1, 64423, Control_c, 0, 64, 70
1, 64437, Control_c, 0, 64, 58
1, 64452, Control_c, 0, 64, 0
1, 64464, Note_off_c, 0, 72, 0
1, 64464, Note_on_c, 0, 72, 4
1, 64571, Control_c, 0, 64, 42
1, 64586, Control_c, 0, 64, 60
1, 64601, Control_c, 0, 64, 63
1, 64616, Control_c, 0, 64, 67
1, 64631, Control_c, 0, 64, 72
1, 64646, Control_c, 0, 64, 80
1, 64661, Control_c, 0, 64, 90
1, 64675, Control_c, 0, 64, 98
1, 64690, Control_c, 0, 64, 103
1, 64705, Control_c, 0, 64, 106
1, 64720, Control_c, 0, 64, 111
1, 64735, Control_c, 0, 64, 127
1, 64740, Note_off_c, 0, 57, 38
1, 64949, Note_off_c, 0, 69, 42
1, 65127, Note_off_c, 0, 72, 42
1, 65139, Note_off_c, 0, 81, 58
1, 65169, Note_off_c, 0, 64, 39
1, 65191, Note_off_c, 0, 84, 63
1, 65306, Control_c, 0, 64, 120
1, 65320, Control_c, 0, 64, 83
1, 65335, Control_c, 0, 64, 62
1, 65350, Control_c, 0, 64, 0
1, 65908, Note_on_c, 0, 69, 59
1, 65990, Note_off_c, 0, 69, 63
1, 65993, Note_on_c, 0, 72, 73
1, 66061, Note_off_c, 0, 72, 65
1, 66062, Note_on_c, 0, 76, 78
1, 66081, Note_off_c, 0, 76, 73
1, 66152, Note_on_c, 0, 76, 65
1, 66201, Note_off_c, 0, 76, 65
1, 66213, Note_on_c, 0, 71, 56
1, 66267, Note_on_c, 0, 68, 68
1, 66267, Note_off_c, 0, 71, 60
1, 66297, Note_off_c, 0, 68, 67
1, 66361, Note_on_c, 0, 67, 77
1, 66417, Note_off_c, 0, 67, 61
1, 66431, Note_on_c, 0, 70, 75
1, 66466, Note_off_c, 0, 70, 69
1, 66498, Note_on_c, 0, 76, 85
1, 66518, Note_off_c, 0, 76, 72
1, 66577, Note_on_c, 0, 76, 64
1, 66610, Note_off_c, 0, 76, 64
1, 66661, Note_on_c, 0, 69, 57
1, 66711, Note_off_c, 0, 69, 66
1, 66720, Note_on_c, 0, 66, 57
1, 66741, Note_off_c, 0, 66, 66
1, 66789, Note_on_c, 0, 65, 78
1, 66857, Note_on_c, 0, 69, 78
1, 66860, Note_off_c, 0, 65, 64
1, 66914, Note_off_c, 0, 69, 69
1, 66924, Note_on_c, 0, 76, 87
1, 66944, Note_off_c, 0, 76, 71
1, 67006, Note_on_c, 0, 76, 66
1, 67065, Note_off_c, 0, 76, 63
1, 67069, Note_on_c, 0, 68, 58
1, 67123, Note_off_c, 0, 68, 65
1, 67136, Note_on_c, 0, 64, 57
1, 67167, Note_off_c, 0, 64, 65
1, 67215, Note_on_c, 0, 68, 73
1, 67290, Note_on_c, 0, 71, 76
1, 67294, Note_off_c, 0, 68, 65
1, 67346, Note_on_c, 0, 76, 80
1, 67349, Note_off_c, 0, 71, 61
1, 67365, Note_off_c, 0, 76, 73
1, 67441, Note_on_c, 0, 76, 61
1, 67475, Note_on_c, 0, 74, 54
1, 67481, Note_off_c, 0, 76, 67
1, 67554, Note_off_c, 0, 74, 65
1, 67558, Note_on_c, 0, 71, 57
1, 67583, Note_off_c, 0, 71, 63
1, 67635, Note_on_c, 0, 69, 78
1, 67703, Note_off_c, 0, 69, 63
1, 67711, Note_on_c, 0, 72, 77
1, 67786, Note_off_c, 0, 72, 66
1, 67788, Note_on_c, 0, 76, 94
1, 67807, Note_off_c, 0, 76, 70
1, 67871, Note_on_c, 0, 76, 56
1, 67928, Note_off_c, 0, 76, 68
1, 67939, Note_on_c, 0, 71, 59
1, 67999, Note_on_c, 0, 68, 68
1, 68002, Note_off_c, 0, 71, 61
1, 68020, Note_off_c, 0, 68, 68
1, 68076, Note_on_c, 0, 67, 75
1, 68127, Note_off_c, 0, 67, 60
1, 68148, Note_on_c, 0, 70, 74
1, 68198, Note_off_c, 0, 70, 68
1, 68217, Note_on_c, 0, 76, 94
1, 68238, Note_off_c, 0, 76, 67
1, 68299, Note_on_c, 0, 76, 62
1, 68341, Note_off_c, 0, 76, 62
1, 68369, Note_on_c, 0, 69, 58
1, 68425, Note_off_c, 0, 69, 65
1, 68441, Note_on_c, 0, 66, 55
1, 68464, Note_off_c, 0, 66, 63
1, 68509, Note_on_c, 0, 65, 74
1, 68593, Note_on_c, 0, 69, 79
1, 68598, Note_off_c, 0, 65, 64
1, 68643, Note_off_c, 0, 69, 69
1, 68654, Note_on_c, 0, 76, 91
1, 68672, Note_off_c, 0, 76, 72
1, 68730, Note_on_c, 0, 76, 65
1, 68779, Note_off_c, 0, 76, 62
1, 68792, Note_on_c, 0, 68, 58
1, 68849, Note_off_c, 0, 68, 65
1, 68853, Note_on_c, 0, 64, 55
1, 68876, Note_off_c, 0, 64, 64
1, 68923, Note_on_c, 0, 68, 69
1, 69004, Note_on_c, 0, 71, 76
1, 69006, Note_off_c, 0, 68, 65
1, 69061, Note_on_c, 0, 76, 81
1, 69063, Note_off_c, 0, 71, 62
1, 69081, Note_off_c, 0, 76, 73
1, 69159, Note_on_c, 0, 76, 56
1, 69198, Note_off_c, 0, 76, 67
1, 69204, Note_on_c, 0, 74, 50
1, 69266, Note_off_c, 0, 74, 63
1, 69290, Note_on_c, 0, 71, 49
1, 69315, Note_off_c, 0, 71, 57
1, 69371, Note_on_c, 0, 69, 59
1, 69382, Control_c, 0, 64, 33
1, 69397, Control_c, 0, 64, 57
1, 69412, Control_c, 0, 64, 65
1, 69427, Control_c, 0, 64, 72
1, 69441, Note_off_c, 0, 69, 64
1, 69441, Control_c, 0, 64, 82
1, 69454, Note_on_c, 0, 72, 58
1, 69456, Control_c, 0, 64, 96
1, 69471, Control_c, 0, 64, 127
1, 69474, Note_off_c, 0, 72, 63
1, 69561, Note_on_c, 0, 76, 58
1, 69613, Note_off_c, 0, 76, 0
1, 69646, Note_on_c, 0, 76, 13
1, 69647, Note_on_c, 0, 88, 65
1, 69696, Note_off_c, 0, 88, 47
1, 69718, Note_off_c, 0, 76, 64
1, 69734, Note_on_c, 0, 71, 48
1, 69783, Note_off_c, 0, 71, 59
1, 69787, Note_on_c, 0, 68, 56
1, 69807, Note_off_c, 0, 68, 63
1, 69870, Control_c, 0, 64, 86
1, 69885, Control_c, 0, 64, 65
1, 69895, Note_on_c, 0, 64, 52
1, 69900, Control_c, 0, 64, 0
1, 69904, Note_on_c, 0, 67, 64
1, 69945, Control_c, 0, 64, 55
1, 69959, Control_c, 0, 64, 74
1, 69974, Note_on_c, 0, 52, 53
1, 69974, Control_c, 0, 64, 115
1, 69989, Control_c, 0, 64, 127
1, 69990, Note_on_c, 0, 70, 69
1, 69991, Note_off_c, 0, 67, 62
1, 69996, Note_off_c, 0, 64, 27
1, 70008, Note_off_c, 0, 52, 66
1, 70019, Note_off_c, 0, 70, 68
1, 70103, Note_on_c, 0, 76, 77
1, 70157, Note_off_c, 0, 76, 0
1, 70171, Note_on_c, 0, 76, 48
1, 70177, Note_on_c, 0, 88, 78
1, 70199, Note_off_c, 0, 88, 66
1, 70236, Note_off_c, 0, 76, 66
1, 70245, Note_on_c, 0, 69, 59
1, 70293, Note_on_c, 0, 66, 67
1, 70298, Note_off_c, 0, 69, 65
1, 70315, Note_off_c, 0, 66, 67
1, 70353, Control_c, 0, 64, 95
1, 70368, Control_c, 0, 64, 67
1, 70382, Control_c, 0, 64, 0
1, 70390, Note_on_c, 0, 65, 73
1, 70393, Note_on_c, 0, 64, 59
1, 70427, Control_c, 0, 64, 53
1, 70442, Control_c, 0, 64, 76
1, 70456, Control_c, 0, 64, 127
1, 70463, Note_off_c, 0, 65, 64
1, 70464, Note_on_c, 0, 52, 57
1, 70470, Note_on_c, 0, 69, 71
1, 70474, Note_off_c, 0, 64, 56
1, 70487, Note_off_c, 0, 52, 63
1, 70495, Note_off_c, 0, 69, 70
1, 70573, Note_on_c, 0, 76, 71
1, 70637, Note_on_c, 0, 88, 75
1, 70664, Note_off_c, 0, 88, 62
1, 70676, Note_off_c, 0, 76, 64
1, 70695, Note_on_c, 0, 68, 58
1, 70739, Note_off_c, 0, 68, 64
1, 70777, Note_on_c, 0, 64, 49
1, 70804, Note_off_c, 0, 64, 56
1, 70851, Control_c, 0, 64, 108
1, 70866, Control_c, 0, 64, 75
1, 70874, Note_on_c, 0, 68, 66
1, 70880, Control_c, 0, 64, 44
1, 70884, Note_on_c, 0, 64, 59
1, 70895, Control_c, 0, 64, 0
1, 70925, Control_c, 0, 64, 53
1, 70939, Control_c, 0, 64, 72
1, 70947, Note_off_c, 0, 64, 54
1, 70949, Note_on_c, 0, 52, 49
1, 70949, Note_on_c, 0, 71, 66
1, 70952, Note_off_c, 0, 68, 63
1, 70954, Control_c, 0, 64, 105
1, 70969, Control_c, 0, 64, 127
1, 70973, Note_off_c, 0, 71, 63
1, 70976, Note_off_c, 0, 52, 58
1, 71049, Note_on_c, 0, 76, 72
1, 71078, Note_off_c, 0, 76, 69
1, 71128, Note_on_c, 0, 88, 69
1, 71133, Note_on_c, 0, 76, 48
1, 71153, Note_off_c, 0, 88, 66
1, 71162, Note_off_c, 0, 76, 67
1, 71180, Note_on_c, 0, 74, 59
1, 71253, Note_on_c, 0, 71, 55
1, 71254, Note_off_c, 0, 74, 63
1, 71276, Note_off_c, 0, 71, 62
1, 71383, Note_on_c, 0, 64, 62
1, 71384, Control_c, 0, 64, 88
1, 71398, Control_c, 0, 64, 65
1, 71403, Note_on_c, 0, 69, 72
1, 71413, Control_c, 0, 64, 0
1, 71457, Control_c, 0, 64, 34
1, 71472, Note_on_c, 0, 52, 57
1, 71472, Control_c, 0, 64, 68
1, 71474, Note_off_c, 0, 64, 56
1, 71485, Note_off_c, 0, 69, 65
1, 71487, Note_on_c, 0, 72, 70
1, 71487, Control_c, 0, 64, 91
1, 71499, Note_off_c, 0, 52, 64
1, 71502, Control_c, 0, 64, 127
1, 71512, Note_off_c, 0, 72, 69
1, 71581, Note_on_c, 0, 76, 85
1, 71620, Note_off_c, 0, 76, 0
1, 71651, Note_on_c, 0, 88, 81
1, 71657, Poly_aftertouch_c, 0, 76, 127
1, 71675, Note_off_c, 0, 88, 65
1, 71710, Poly_aftertouch_c, 0, 76, 0
1, 71723, Note_on_c, 0, 71, 56
1, 71765, Note_off_c, 0, 71, 61
1, 71768, Note_on_c, 0, 68, 62
1, 71786, Note_off_c, 0, 68, 64
1, 71822, Control_c, 0, 64, 93
1, 71836, Control_c, 0, 64, 66
1, 71851, Control_c, 0, 64, 0
1, 71862, Note_on_c, 0, 67, 73
1, 71867, Note_on_c, 0, 64, 63
1, 71880, Control_c, 0, 64, 17
1, 71895, Control_c, 0, 64, 60
1, 71910, Control_c, 0, 64, 78
1, 71925, Control_c, 0, 64, 127
1, 71927, Note_off_c, 0, 67, 62
1, 71936, Note_on_c, 0, 70, 68
1, 71941, Note_on_c, 0, 52, 56
1, 71948, Note_off_c, 0, 64, 63
1, 71958, Note_off_c, 0, 70, 68
1, 71964, Note_off_c, 0, 52, 64
1, 72029, Note_on_c, 0, 76, 71
1, 72056, Note_off_c, 0, 76, 70
1, 72096, Note_on_c, 0, 88, 67
1, 72102, Note_on_c, 0, 76, 58
1, 72134, Note_off_c, 0, 88, 56
1, 72137, Note_off_c, 0, 76, 67
1, 72161, Note_on_c, 0, 69, 59
1, 72216, Note_on_c, 0, 66, 67
1, 72220, Note_off_c, 0, 69, 66
1, 72239, Note_off_c, 0, 66, 67
1, 72265, Control_c, 0, 64, 102
1, 72287, Control_c, 0, 64, 70
1, 72302, Control_c, 0, 64, 14
1, 72317, Control_c, 0, 64, 0
1, 72319, Note_on_c, 0, 65, 66
1, 72329, Note_on_c, 0, 64, 56
1, 72347, Control_c, 0, 64, 42
1, 72361, Control_c, 0, 64, 70
1, 72376, Note_off_c, 0, 65, 64
1, 72376, Control_c, 0, 64, 103
1, 72388, Note_on_c, 0, 69, 69
1, 72391, Control_c, 0, 64, 127
1, 72404, Note_on_c, 0, 52, 47
1, 72414, Note_off_c, 0, 64, 60
1, 72416, Note_off_c, 0, 69, 68
1, 72432, Note_off_c, 0, 52, 56
1, 72491, Note_on_c, 0, 76, 72
1, 72517, Note_off_c, 0, 76, 70
1, 72559, Note_on_c, 0, 88, 74
1, 72575, Note_on_c, 0, 76, 47
1, 72585, Note_off_c, 0, 88, 64
1, 72616, Note_off_c, 0, 76, 55
1, 72626, Note_on_c, 0, 68, 59
1, 72676, Note_off_c, 0, 68, 64
1, 72709, Note_on_c, 0, 64, 54
1, 72730, Note_off_c, 0, 64, 63
1, 72763, Control_c, 0, 64, 107
1, 72777, Control_c, 0, 64, 73
1, 72792, Control_c, 0, 64, 39
1, 72804, Note_on_c, 0, 64, 58
1, 72807, Note_on_c, 0, 68, 62
1, 72807, Control_c, 0, 64, 0
1, 72837, Control_c, 0, 64, 39
1, 72851, Control_c, 0, 64, 65
1, 72866, Control_c, 0, 64, 82
1, 72876, Note_on_c, 0, 71, 64
1, 72876, Note_on_c, 0, 52, 57
1, 72881, Note_off_c, 0, 64, 55
1, 72881, Control_c, 0, 64, 127
1, 72888, Note_off_c, 0, 68, 64
1, 72899, Note_off_c, 0, 52, 62
1, 72905, Note_off_c, 0, 71, 63
1, 72984, Note_on_c, 0, 76, 70
1, 73059, Note_off_c, 0, 76, 0
1, 73075, Note_on_c, 0, 76, 37
1, 73078, Note_on_c, 0, 88, 72
1, 73105, Note_off_c, 0, 76, 65
1, 73110, Note_off_c, 0, 88, 59
1, 73135, Note_on_c, 0, 74, 54
1, 73192, Note_on_c, 0, 71, 52
1, 73196, Note_off_c, 0, 74, 62
1, 73216, Note_off_c, 0, 71, 62
1, 73245, Control_c, 0, 64, 116
1, 73260, Control_c, 0, 64, 105
1, 73274, Control_c, 0, 64, 98
1, 73289, Control_c, 0, 64, 92
1, 73304, Control_c, 0, 64, 87
1, 73312, Note_on_c, 0, 69, 60
1, 73318, Control_c, 0, 64, 80
1, 73333, Control_c, 0, 64, 74
1, 73348, Control_c, 0, 64, 68
1, 73360, Note_off_c, 0, 69, 54
1, 73363, Control_c, 0, 64, 63
1, 73378, Control_c, 0, 64, 59
1, 73392, Control_c, 0, 64, 54
1, 73395, Note_on_c, 0, 57, 56
1, 73407, Note_on_c, 0, 73, 74
1, 73407, Control_c, 0, 64, 49
1, 73417, Note_off_c, 0, 57, 61
1, 73422, Control_c, 0, 64, 44
1, 73437, Control_c, 0, 64, 33
1, 73452, Control_c, 0, 64, 0
1, 73463, Note_off_c, 0, 73, 66
1, 73482, Note_on_c, 0, 81, 96
1, 73517, Note_off_c, 0, 81, 61
1, 73569, Note_on_c, 0, 81, 62
1, 73625, Note_off_c, 0, 81, 62
1, 73647, Note_on_c, 0, 74, 61
1, 73698, Note_on_c, 0, 71, 63
1, 73705, Note_off_c, 0, 74, 66
1, 73724, Note_off_c, 0, 71, 64
1, 73779, Note_on_c, 0, 73, 73
1, 73851, Note_on_c, 0, 76, 76
1, 73857, Note_off_c, 0, 73, 65
1, 73917, Note_on_c, 0, 81, 89
1, 73917, Note_off_c, 0, 76, 67
1, 73934, Note_off_c, 0, 81, 71
1, 73999, Note_on_c, 0, 81, 69
1, 74030, Note_off_c, 0, 81, 65
1, 74053, Note_on_c, 0, 79, 64
1, 74104, Note_off_c, 0, 79, 65
1, 74120, Note_on_c, 0, 76, 64
1, 74146, Note_off_c, 0, 76, 67
1, 74201, Note_on_c, 0, 74, 79
1, 74267, Note_on_c, 0, 77, 76
1, 74267, Note_off_c, 0, 74, 62
1, 74328, Note_on_c, 0, 81, 89
1, 74332, Note_off_c, 0, 77, 64
1, 74346, Note_off_c, 0, 81, 70
1, 74413, Note_on_c, 0, 81, 69
1, 74443, Note_off_c, 0, 81, 65
1, 74483, Note_on_c, 0, 76, 59
1, 74545, Note_off_c, 0, 76, 67
1, 74549, Note_on_c, 0, 69, 63
1, 74568, Note_off_c, 0, 69, 66
1, 74620, Note_on_c, 0, 65, 75
1, 74664, Note_off_c, 0, 65, 65
1, 74688, Note_on_c, 0, 73, 78
1, 74733, Note_off_c, 0, 73, 64
1, 74757, Note_on_c, 0, 74, 36
1, 74764, Note_on_c, 0, 81, 89
1, 74785, Note_off_c, 0, 74, 52
1, 74788, Note_off_c, 0, 81, 65
1, 74831, Note_on_c, 0, 74, 54
1, 74870, Note_off_c, 0, 74, 66
1, 74907, Note_on_c, 0, 65, 58
1, 74971, Note_on_c, 0, 62, 43
1, 74980, Note_off_c, 0, 65, 65
1, 74997, Note_off_c, 0, 62, 56
1, 75049, Note_on_c, 0, 67, 71
1, 75105, Note_off_c, 0, 67, 63
1, 75112, Note_on_c, 0, 71, 79
1, 75161, Note_off_c, 0, 71, 64
1, 75180, Note_on_c, 0, 79, 81
1, 75200, Note_off_c, 0, 79, 70
1, 75252, Note_on_c, 0, 79, 72
1, 75294, Note_off_c, 0, 79, 63
1, 75333, Note_on_c, 0, 72, 61
1, 75392, Note_on_c, 0, 69, 59
1, 75392, Note_off_c, 0, 72, 66
1, 75419, Note_off_c, 0, 69, 68
1, 75459, Note_on_c, 0, 71, 72
1, 75530, Note_on_c, 0, 74, 76
1, 75541, Note_off_c, 0, 71, 59
1, 75589, Note_off_c, 0, 74, 66
1, 75592, Note_on_c, 0, 79, 90
1, 75612, Note_off_c, 0, 79, 69
1, 75678, Note_on_c, 0, 79, 65
1, 75726, Note_off_c, 0, 79, 64
1, 75729, Note_on_c, 0, 77, 59
1, 75787, Note_off_c, 0, 77, 64
1, 75799, Note_on_c, 0, 74, 60
1, 75827, Note_off_c, 0, 74, 68
1, 75868, Note_on_c, 0, 72, 76
1, 75937, Note_on_c, 0, 76, 77
1, 75955, Note_off_c, 0, 72, 62
1, 76002, Note_on_c, 0, 79, 92
1, 76007, Note_off_c, 0, 76, 68
1, 76028, Note_off_c, 0, 79, 70
1, 76080, Note_on_c, 0, 79, 69
1, 76123, Note_off_c, 0, 79, 64
1, 76140, Note_on_c, 0, 74, 53
1, 76194, Note_off_c, 0, 74, 66
1, 76203, Note_on_c, 0, 67, 58
1, 76224, Note_off_c, 0, 67, 60
1, 76276, Note_on_c, 0, 64, 75
1, 76337, Note_off_c, 0, 64, 66
1, 76352, Note_on_c, 0, 71, 79
1, 76409, Note_off_c, 0, 71, 63
1, 76410, Note_on_c, 0, 79, 89
1, 76430, Note_off_c, 0, 79, 67
1, 76477, Note_on_c, 0, 72, 61
1, 76506, Note_off_c, 0, 72, 69
1, 76547, Note_on_c, 0, 64, 56
1, 76613, Note_on_c, 0, 60, 54
1, 76624, Note_off_c, 0, 64, 64
1, 76649, Note_off_c, 0, 60, 62
1, 76684, Note_on_c, 0, 65, 71
1, 76743, Note_off_c, 0, 65, 66
1, 76749, Note_on_c, 0, 69, 83
1, 76807, Note_off_c, 0, 69, 70
1, 76822, Note_on_c, 0, 77, 88
1, 76841, Note_off_c, 0, 77, 69
1, 76894, Note_on_c, 0, 77, 62
1, 76963, Note_on_c, 0, 75, 55
1, 76969, Note_off_c, 0, 77, 61
1, 76989, Note_off_c, 0, 75, 66
1, 77034, Note_on_c, 0, 72, 61
1, 77061, Note_off_c, 0, 72, 67
1, 77107, Note_on_c, 0, 70, 74
1, 77176, Note_on_c, 0, 74, 75
1, 77179, Note_off_c, 0, 70, 64
1, 77237, Note_on_c, 0, 77, 92
1, 77240, Note_off_c, 0, 74, 67
1, 77261, Note_off_c, 0, 77, 64
1, 77328, Note_on_c, 0, 77, 63
1, 77360, Note_off_c, 0, 77, 61
1, 77365, Note_on_c, 0, 70, 58
1, 77423, Note_off_c, 0, 70, 66
1, 77441, Note_on_c, 0, 62, 62
1, 77473, Note_off_c, 0, 62, 64
1, 77530, Note_on_c, 0, 64, 71
1, 77598, Note_off_c, 0, 64, 54
1, 77602, Note_on_c, 0, 68, 77
1, 77635, Note_off_c, 0, 68, 68
1, 77660, Note_on_c, 0, 76, 95
1, 77683, Note_off_c, 0, 76, 68
1, 77741, Note_on_c, 0, 76, 66
1, 77791, Note_off_c, 0, 76, 68
1, 77796, Note_on_c, 0, 74, 56
1, 77854, Note_off_c, 0, 74, 66
1, 77860, Note_on_c, 0, 71, 59
1, 77886, Note_off_c, 0, 71, 64
1, 77942, Note_on_c, 0, 69, 74
1, 78010, Note_on_c, 0, 72, 72
1, 78034, Note_off_c, 0, 69, 63
1, 78068, Note_on_c, 0, 76, 94
1, 78076, Note_off_c, 0, 72, 65
1, 78093, Note_off_c, 0, 76, 67
1, 78141, Note_on_c, 0, 76, 61
1, 78176, Note_off_c, 0, 76, 53
1, 78200, Note_on_c, 0, 69, 59
1, 78272, Note_on_c, 0, 60, 69
1, 78274, Note_off_c, 0, 69, 66
1, 78300, Note_off_c, 0, 60, 67
1, 78344, Note_on_c, 0, 62, 75
1, 78417, Note_off_c, 0, 62, 63
1, 78421, Note_on_c, 0, 65, 79
1, 78474, Note_off_c, 0, 65, 64
1, 78481, Note_on_c, 0, 74, 85
1, 78503, Note_off_c, 0, 74, 67
1, 78569, Note_on_c, 0, 74, 63
1, 78604, Note_off_c, 0, 74, 66
1, 78647, Note_on_c, 0, 65, 59
1, 78698, Note_on_c, 0, 62, 48
1, 78710, Note_off_c, 0, 65, 65
1, 78722, Note_off_c, 0, 62, 51
1, 78767, Note_on_c, 0, 64, 63
1, 78838, Note_on_c, 0, 68, 62
1, 78871, Note_off_c, 0, 64, 59
1, 78905, Note_on_c, 0, 71, 84
1, 78913, Note_off_c, 0, 68, 65
1, 78937, Note_off_c, 0, 71, 62
1, 79002, Note_on_c, 0, 71, 43
1, 79061, Note_on_c, 0, 68, 56
1, 79079, Note_off_c, 0, 71, 59
1, 79094, Note_off_c, 0, 68, 65
1, 79133, Note_on_c, 0, 64, 53
1, 79154, Note_off_c, 0, 64, 61
1, 79213, Note_on_c, 0, 57, 60
1, 79234, Control_c, 0, 64, 52
1, 79249, Control_c, 0, 64, 64
1, 79263, Control_c, 0, 64, 70
1, 79278, Control_c, 0, 64, 76
1, 79281, Note_off_c, 0, 57, 61
1, 79291, Note_on_c, 0, 60, 69
1, 79293, Control_c, 0, 64, 81
1, 79308, Control_c, 0, 64, 84
1, 79323, Control_c, 0, 64, 87
1, 79337, Control_c, 0, 64, 92
1, 79347, Note_on_c, 0, 69, 70
1, 79349, Note_off_c, 0, 60, 63
1, 79352, Control_c, 0, 64, 100
1, 79367, Control_c, 0, 64, 113
1, 79374, Note_off_c, 0, 69, 69
1, 79382, Control_c, 0, 64, 127
1, 79457, Note_on_c, 0, 69, 57
1, 79500, Note_off_c, 0, 69, 67
1, 79533, Note_on_c, 0, 60, 52
1, 79595, Note_off_c, 0, 60, 59
1, 79599, Note_on_c, 0, 57, 36
1, 79622, Note_off_c, 0, 57, 59
1, 79687, Note_on_c, 0, 69, 64
1, 79751, Note_off_c, 0, 69, 65
1, 79780, Note_on_c, 0, 76, 62
1, 79836, Note_on_c, 0, 81, 67
1, 79854, Note_off_c, 0, 76, 65
1, 79874, Note_off_c, 0, 81, 58
1, 79935, Note_on_c, 0, 57, 44
1, 79975, Note_off_c, 0, 57, 59
1, 79993, Note_on_c, 0, 52, 58
1, 80027, Control_c, 0, 64, 103
1, 80032, Note_off_c, 0, 52, 62
1, 80042, Control_c, 0, 64, 80
1, 80057, Control_c, 0, 64, 60
1, 80072, Control_c, 0, 64, 0
1, 80088, Note_on_c, 0, 45, 48
1, 80146, Control_c, 0, 64, 46
1, 80156, Note_off_c, 0, 45, 64
1, 80160, Control_c, 0, 64, 74
1, 80167, Note_on_c, 0, 69, 62
1, 80175, Control_c, 0, 64, 121
1, 80190, Control_c, 0, 64, 127
1, 80251, Note_off_c, 0, 69, 65
1, 80260, Note_on_c, 0, 73, 67
1, 80281, Note_off_c, 0, 73, 69
1, 80385, Note_on_c, 0, 81, 68
1, 80413, Note_off_c, 0, 81, 66
1, 80462, Note_on_c, 0, 81, 40
1, 80471, Note_on_c, 0, 93, 71
1, 80490, Note_off_c, 0, 81, 61
1, 80499, Note_off_c, 0, 93, 63
1, 80531, Note_on_c, 0, 74, 56
1, 80594, Note_off_c, 0, 74, 64
1, 80611, Note_on_c, 0, 71, 47
1, 80633, Note_off_c, 0, 71, 56
1, 80673, Control_c, 0, 64, 113
1, 80688, Control_c, 0, 64, 78
1, 80703, Control_c, 0, 64, 53
1, 80715, Note_on_c, 0, 69, 55
1, 80717, Control_c, 0, 64, 0
1, 80731, Note_on_c, 0, 73, 73
1, 80762, Control_c, 0, 64, 58
1, 80777, Control_c, 0, 64, 80
1, 80791, Control_c, 0, 64, 127
1, 80794, Note_on_c, 0, 57, 58
1, 80804, Note_off_c, 0, 69, 59
1, 80823, Note_off_c, 0, 57, 65
1, 80823, Note_off_c, 0, 73, 63
1, 80825, Note_on_c, 0, 76, 64
1, 80850, Note_off_c, 0, 76, 67
1, 80923, Note_on_c, 0, 81, 79
1, 80951, Note_off_c, 0, 81, 64
1, 80993, Note_on_c, 0, 81, 58
1, 81001, Note_on_c, 0, 93, 79
1, 81027, Note_off_c, 0, 93, 64
1, 81030, Note_off_c, 0, 81, 63
1, 81045, Note_on_c, 0, 79, 64
1, 81106, Note_on_c, 0, 76, 66
1, 81107, Note_off_c, 0, 79, 62
1, 81124, Note_off_c, 0, 76, 69
1, 81177, Control_c, 0, 64, 91
1, 81193, Control_c, 0, 64, 64
1, 81207, Control_c, 0, 64, 0
1, 81211, Note_on_c, 0, 74, 71
1, 81213, Note_on_c, 0, 69, 61
1, 81237, Control_c, 0, 64, 23
1, 81252, Control_c, 0, 64, 65
1, 81273, Control_c, 0, 64, 97
1, 81288, Note_on_c, 0, 57, 52
1, 81288, Control_c, 0, 64, 127
1, 81291, Note_off_c, 0, 74, 64
1, 81296, Note_off_c, 0, 69, 65
1, 81297, Note_on_c, 0, 77, 72
1, 81311, Note_off_c, 0, 57, 57
1, 81321, Note_off_c, 0, 77, 67
1, 81383, Note_on_c, 0, 81, 82
1, 81419, Note_off_c, 0, 81, 62
1, 81455, Note_on_c, 0, 81, 53
1, 81457, Note_on_c, 0, 93, 84
1, 81479, Note_off_c, 0, 81, 64
1, 81480, Note_off_c, 0, 93, 65
1, 81481, Note_on_c, 0, 75, 64
1, 81503, Note_off_c, 0, 75, 68
1, 81527, Note_on_c, 0, 76, 63
1, 81560, Note_off_c, 0, 76, 63
1, 81568, Note_on_c, 0, 69, 55
1, 81589, Note_off_c, 0, 69, 63
1, 81644, Control_c, 0, 64, 113
1, 81658, Control_c, 0, 64, 75
1, 81673, Control_c, 0, 64, 38
1, 81682, Note_on_c, 0, 62, 59
1, 81682, Note_on_c, 0, 65, 69
1, 81688, Control_c, 0, 64, 0
1, 81718, Control_c, 0, 64, 44
1, 81732, Control_c, 0, 64, 72
1, 81740, Note_off_c, 0, 65, 62
1, 81747, Control_c, 0, 64, 122
1, 81753, Note_on_c, 0, 73, 69
1, 81757, Note_on_c, 0, 50, 50
1, 81762, Control_c, 0, 64, 127
1, 81766, Note_off_c, 0, 62, 58
1, 81783, Note_off_c, 0, 73, 66
1, 81786, Note_off_c, 0, 50, 52
1, 81867, Note_on_c, 0, 81, 73
1, 81920, Note_off_c, 0, 81, 56
1, 81923, Note_on_c, 0, 74, 67
1, 81931, Note_on_c, 0, 93, 70
1, 81960, Note_off_c, 0, 93, 63
1, 81974, Note_off_c, 0, 74, 65
1, 82033, Note_on_c, 0, 65, 63
1, 82080, Note_on_c, 0, 62, 41
1, 82086, Note_off_c, 0, 65, 63
1, 82105, Note_off_c, 0, 62, 57
1, 82221, Note_on_c, 0, 55, 59
1, 82230, Control_c, 0, 64, 84
1, 82239, Note_on_c, 0, 67, 67
1, 82245, Control_c, 0, 64, 62
1, 82260, Control_c, 0, 64, 0
1, 82304, Control_c, 0, 64, 49
1, 82319, Control_c, 0, 64, 74
1, 82320, Note_on_c, 0, 43, 49
1, 82327, Note_off_c, 0, 67, 62
1, 82328, Note_off_c, 0, 55, 57
1, 82330, Note_on_c, 0, 71, 63
1, 82334, Control_c, 0, 64, 127
1, 82349, Note_off_c, 0, 43, 56
1, 82359, Note_off_c, 0, 71, 64
1, 82453, Note_on_c, 0, 79, 65
1, 82480, Note_off_c, 0, 79, 67
1, 82535, Note_on_c, 0, 79, 60
1, 82540, Note_on_c, 0, 91, 78
1, 82561, Note_off_c, 0, 79, 65
1, 82572, Note_off_c, 0, 91, 57
1, 82594, Note_on_c, 0, 72, 70
1, 82671, Note_on_c, 0, 69, 65
1, 82671, Note_off_c, 0, 72, 64
1, 82698, Note_off_c, 0, 69, 69
1, 82780, Note_on_c, 0, 67, 69
1, 82785, Control_c, 0, 64, 82
1, 82800, Control_c, 0, 64, 60
1, 82815, Note_on_c, 0, 71, 72
1, 82815, Control_c, 0, 64, 0
1, 82859, Control_c, 0, 64, 58
1, 82874, Control_c, 0, 64, 78
1, 82880, Note_on_c, 0, 55, 51
1, 82889, Control_c, 0, 64, 127
1, 82893, Note_off_c, 0, 67, 59
1, 82895, Note_on_c, 0, 74, 69
1, 82898, Note_off_c, 0, 71, 61
1, 82904, Note_off_c, 0, 55, 55
1, 82917, Note_off_c, 0, 74, 71
1, 82989, Note_on_c, 0, 79, 78
1, 83021, Note_off_c, 0, 79, 0
1, 83057, Note_on_c, 0, 91, 84
1, 83058, Poly_aftertouch_c, 0, 79, 127
1, 83081, Poly_aftertouch_c, 0, 79, 0
1, 83087, Note_off_c, 0, 91, 56
1, 83088, Note_on_c, 0, 77, 66
1, 83160, Note_on_c, 0, 74, 56
1, 83160, Note_off_c, 0, 77, 63
1, 83178, Note_off_c, 0, 74, 66
1, 83229, Control_c, 0, 64, 105
1, 83244, Control_c, 0, 64, 71
1, 83254, Note_on_c, 0, 67, 68
1, 83259, Control_c, 0, 64, 0
1, 83272, Note_on_c, 0, 72, 75
1, 83289, Control_c, 0, 64, 13
1, 83303, Control_c, 0, 64, 63
1, 83318, Control_c, 0, 64, 93
1, 83333, Control_c, 0, 64, 127
1, 83336, Note_on_c, 0, 76, 75
1, 83337, Note_off_c, 0, 72, 64
1, 83338, Note_off_c, 0, 67, 61
1, 83341, Note_on_c, 0, 55, 43
1, 83360, Note_off_c, 0, 76, 71
1, 83372, Note_off_c, 0, 55, 50
1, 83422, Note_on_c, 0, 79, 82
1, 83449, Note_off_c, 0, 79, 65
1, 83479, Note_on_c, 0, 79, 53
1, 83489, Note_on_c, 0, 91, 81
1, 83514, Note_off_c, 0, 79, 65
1, 83517, Note_off_c, 0, 91, 65
1, 83534, Note_on_c, 0, 74, 62
1, 83597, Note_on_c, 0, 67, 68
1, 83602, Note_off_c, 0, 74, 66
1, 83625, Note_off_c, 0, 67, 65
1, 83682, Control_c, 0, 64, 116
1, 83697, Control_c, 0, 64, 70
1, 83712, Control_c, 0, 64, 0
1, 83719, Note_on_c, 0, 60, 58
1, 83720, Note_on_c, 0, 64, 74
1, 83756, Control_c, 0, 64, 49
1, 83771, Control_c, 0, 64, 79
1, 83778, Note_off_c, 0, 64, 64
1, 83786, Note_on_c, 0, 48, 55
1, 83786, Control_c, 0, 64, 127
1, 83795, Note_on_c, 0, 71, 71
1, 83798, Note_off_c, 0, 60, 61
1, 83808, Note_off_c, 0, 48, 62
1, 83819, Note_off_c, 0, 71, 65
1, 83909, Note_on_c, 0, 79, 57
1, 83952, Note_on_c, 0, 72, 64
1, 83956, Note_off_c, 0, 79, 49
1, 83966, Note_on_c, 0, 91, 74
1, 83993, Note_off_c, 0, 72, 64
1, 84005, Note_off_c, 0, 91, 59
1, 84016, Note_on_c, 0, 67, 58
1, 84085, Note_off_c, 0, 67, 64
1, 84086, Note_on_c, 0, 60, 54
1, 84104, Note_off_c, 0, 60, 63
1, 84239, Note_on_c, 0, 53, 59
1, 84246, Control_c, 0, 64, 82
1, 84268, Control_c, 0, 64, 58
1, 84273, Note_on_c, 0, 65, 66
1, 84283, Control_c, 0, 64, 0
1, 84328, Control_c, 0, 64, 49
1, 84342, Control_c, 0, 64, 73
1, 84343, Note_on_c, 0, 41, 59
1, 84352, Note_on_c, 0, 69, 70
1, 84354, Note_off_c, 0, 53, 56
1, 84355, Note_off_c, 0, 65, 65
1, 84357, Control_c, 0, 64, 127
1, 84370, Note_off_c, 0, 41, 61
1, 84378, Note_off_c, 0, 69, 72
1, 84460, Note_on_c, 0, 77, 80
1, 84486, Note_off_c, 0, 77, 66
1, 84534, Note_on_c, 0, 89, 80
1, 84537, Note_on_c, 0, 77, 68
1, 84561, Note_off_c, 0, 89, 64
1, 84608, Note_on_c, 0, 75, 71
1, 84616, Note_off_c, 0, 77, 57
1, 84653, Note_off_c, 0, 75, 65
1, 84666, Note_on_c, 0, 72, 39
1, 84695, Note_off_c, 0, 72, 55
1, 84743, Control_c, 0, 64, 83
1, 84758, Control_c, 0, 64, 55
1, 84773, Note_on_c, 0, 58, 62
1, 84773, Control_c, 0, 64, 0
1, 84780, Note_on_c, 0, 70, 67
1, 84817, Control_c, 0, 64, 59
1, 84832, Control_c, 0, 64, 86
1, 84832, Note_on_c, 0, 46, 67
1, 84841, Note_off_c, 0, 58, 46
1, 84846, Note_off_c, 0, 70, 66
1, 84847, Control_c, 0, 64, 127
1, 84862, Note_on_c, 0, 74, 60
1, 84865, Note_off_c, 0, 46, 64
1, 84889, Note_off_c, 0, 74, 68
1, 84945, Note_on_c, 0, 77, 78
1, 84949, Poly_aftertouch_c, 0, 75, 0
1, 84984, Note_off_c, 0, 77, 64
1, 85027, Note_on_c, 0, 77, 49
1, 85029, Note_on_c, 0, 89, 78
1, 85047, Note_on_c, 0, 70, 57
1, 85055, Note_off_c, 0, 89, 66
1, 85063, Note_off_c, 0, 77, 63
1, 85142, Note_off_c, 0, 70, 67
1, 85148, Note_on_c, 0, 62, 66
1, 85179, Note_off_c, 0, 62, 64
1, 85314, Note_on_c, 0, 52, 61
1, 85314, Control_c, 0, 64, 106
1, 85328, Note_on_c, 0, 64, 63
1, 85329, Control_c, 0, 64, 73
1, 85344, Control_c, 0, 64, 32
1, 85359, Control_c, 0, 64, 0
1, 85387, Note_on_c, 0, 40, 58
1, 85388, Control_c, 0, 64, 20
1, 85400, Note_off_c, 0, 52, 62
1, 85403, Control_c, 0, 64, 70
1, 85412, Note_on_c, 0, 68, 63
1, 85414, Note_off_c, 0, 64, 65
1, 85417, Note_off_c, 0, 40, 63
1, 85418, Control_c, 0, 64, 106
1, 85432, Control_c, 0, 64, 127
1, 85440, Note_off_c, 0, 68, 66
1, 85512, Note_on_c, 0, 76, 75
1, 85536, Note_off_c, 0, 76, 73
1, 85584, Note_on_c, 0, 76, 65
1, 85587, Note_on_c, 0, 88, 77
1, 85611, Note_off_c, 0, 88, 64
1, 85641, Note_on_c, 0, 74, 60
1, 85643, Note_off_c, 0, 76, 66
1, 85702, Note_off_c, 0, 74, 66
1, 85707, Note_on_c, 0, 71, 57
1, 85727, Note_off_c, 0, 71, 59
1, 85839, Note_on_c, 0, 69, 69
1, 85840, Control_c, 0, 64, 92
1, 85855, Control_c, 0, 64, 64
1, 85870, Control_c, 0, 64, 0
1, 85873, Note_on_c, 0, 55, 30
1, 85879, Note_on_c, 0, 57, 10
1, 85914, Control_c, 0, 64, 55
1, 85914, Note_on_c, 0, 72, 69
1, 85915, Note_off_c, 0, 69, 65
1, 85921, Note_off_c, 0, 57, 50
1, 85922, Note_off_c, 0, 55, 45
1, 85929, Control_c, 0, 64, 79
1, 85940, Note_off_c, 0, 72, 69
1, 85944, Control_c, 0, 64, 127
1, 86010, Note_on_c, 0, 76, 73
1, 86049, Note_off_c, 0, 76, 64
1, 86081, Note_on_c, 0, 88, 79
1, 86088, Note_on_c, 0, 76, 53
1, 86112, Note_off_c, 0, 88, 59
1, 86124, Note_off_c, 0, 76, 67
1, 86145, Note_on_c, 0, 69, 69
1, 86200, Note_off_c, 0, 69, 67
1, 86201, Note_on_c, 0, 60, 70
1, 86226, Note_off_c, 0, 60, 67
1, 86344, Control_c, 0, 64, 102
1, 86350, Note_on_c, 0, 50, 62
1, 86358, Note_on_c, 0, 62, 71
1, 86359, Control_c, 0, 64, 67
1, 86374, Control_c, 0, 64, 0
1, 86418, Control_c, 0, 64, 20
1, 86424, Note_on_c, 0, 38, 59
1, 86433, Control_c, 0, 64, 65
1, 86436, Note_on_c, 0, 65, 74
1, 86439, Note_off_c, 0, 62, 63
1, 86442, Note_off_c, 0, 50, 57
1, 86448, Control_c, 0, 64, 96
1, 86451, Note_off_c, 0, 38, 59
1, 86460, Note_off_c, 0, 65, 70
1, 86463, Control_c, 0, 64, 127
1, 86554, Note_on_c, 0, 74, 72
1, 86575, Note_off_c, 0, 74, 72
1, 86626, Note_on_c, 0, 86, 74
1, 86631, Note_on_c, 0, 74, 65
1, 86653, Note_off_c, 0, 86, 64
1, 86672, Note_off_c, 0, 74, 64
1, 86729, Note_on_c, 0, 65, 56
1, 86763, Note_off_c, 0, 65, 65
1, 86766, Note_on_c, 0, 62, 48
1, 86796, Note_off_c, 0, 62, 51
1, 86908, Note_on_c, 0, 52, 65
1, 86916, Control_c, 0, 64, 110
1, 86921, Note_on_c, 0, 64, 72
1, 86931, Control_c, 0, 64, 71
1, 86946, Control_c, 0, 64, 25
1, 86960, Control_c, 0, 64, 0
1, 86990, Note_on_c, 0, 40, 52
1, 86990, Control_c, 0, 64, 33
1, 87000, Note_off_c, 0, 64, 64
1, 87004, Control_c, 0, 64, 66
1, 87006, Note_on_c, 0, 68, 67
1, 87006, Note_off_c, 0, 52, 62
1, 87017, Note_off_c, 0, 40, 55
1, 87019, Control_c, 0, 64, 97
1, 87033, Note_off_c, 0, 68, 66
1, 87034, Control_c, 0, 64, 127
1, 87109, Note_on_c, 0, 71, 69
1, 87146, Note_off_c, 0, 71, 61
1, 87197, Note_on_c, 0, 71, 44
1, 87203, Note_on_c, 0, 83, 63
1, 87227, Note_off_c, 0, 83, 59
1, 87270, Note_on_c, 0, 68, 60
1, 87299, Note_off_c, 0, 71, 53
1, 87336, Note_off_c, 0, 68, 65
1, 87387, Note_on_c, 0, 64, 45
1, 87417, Note_off_c, 0, 64, 51
1, 87575, Control_c, 0, 64, 100
1, 87578, Note_on_c, 0, 45, 51
1, 87588, Note_on_c, 0, 57, 59
1, 87590, Control_c, 0, 64, 67
1, 87605, Control_c, 0, 64, 0
1, 87649, Control_c, 0, 64, 25
1, 87664, Control_c, 0, 64, 63
1, 87679, Control_c, 0, 64, 83
1, 87680, Note_on_c, 0, 33, 37
1, 87694, Control_c, 0, 64, 127
1, 87703, Note_off_c, 0, 57, 61
1, 87706, Note_on_c, 0, 60, 60
1, 87710, Note_off_c, 0, 45, 62
1, 87718, Note_off_c, 0, 33, 55
1, 87734, Note_off_c, 0, 60, 65
1, 87844, Note_on_c, 0, 69, 57
1, 87953, Note_on_c, 0, 81, 61
1, 87955, Note_off_c, 0, 69, 63
1, 87993, Note_off_c, 0, 81, 56
1, 88022, Note_on_c, 0, 64, 57
1, 88094, Note_off_c, 0, 64, 62
1, 88096, Note_on_c, 0, 57, 52
1, 88123, Note_off_c, 0, 57, 63
1, 88222, Note_on_c, 0, 57, 48
1, 88252, Note_on_c, 0, 69, 60
1, 88297, Note_off_c, 0, 57, 58
1, 88343, Note_off_c, 0, 69, 62
1, 88358, Note_on_c, 0, 52, 50
1, 88365, Note_on_c, 0, 76, 59
1, 88398, Note_off_c, 0, 76, 68
1, 88418, Note_off_c, 0, 52, 54
1, 88508, Note_on_c, 0, 81, 61
1, 88636, Note_on_c, 0, 45, 48
1, 88651, Note_on_c, 0, 93, 65
1, 88687, Note_off_c, 0, 81, 47
1, 88708, Note_off_c, 0, 93, 61
1, 88753, Note_off_c, 0, 45, 60
1, 89384, Control_c, 0, 64, 100
1, 89399, Control_c, 0, 64, 84
1, 89414, Control_c, 0, 64, 72
1, 89429, Control_c, 0, 64, 65
1, 89444, Control_c, 0, 64, 57
1, 89459, Control_c, 0, 64, 42
1, 89473, Control_c, 0, 64, 0
1, 89889, Note_on_c, 0, 57, 43
1, 89891, Note_on_c, 0, 84, 69
1, 89895, Note_on_c, 0, 88, 78
1, 89902, Note_on_c, 0, 76, 59
1, 89910, Control_c, 0, 64, 53
1, 89925, Control_c, 0, 64, 81
1, 89939, Note_off_c, 0, 76, 51
1, 89940, Control_c, 0, 64, 127
1, 89948, Note_off_c, 0, 84, 63
1, 90034, Note_off_c, 0, 57, 63
1, 90044, Note_on_c, 0, 69, 62
1, 90073, Note_off_c, 0, 69, 67
1, 90098, Note_on_c, 0, 89, 65
1, 90098, Note_off_c, 0, 88, 59
1, 90128, Note_off_c, 0, 89, 67
1, 90145, Note_on_c, 0, 88, 60
1, 90181, Note_off_c, 0, 88, 58
1, 90199, Note_on_c, 0, 89, 72
1, 90216, Note_on_c, 0, 72, 65
1, 90227, Note_off_c, 0, 89, 64
1, 90247, Note_on_c, 0, 88, 67
1, 90275, Note_off_c, 0, 88, 63
1, 90293, Note_on_c, 0, 89, 68
1, 90296, Note_off_c, 0, 72, 60
1, 90314, Note_off_c, 0, 89, 66
1, 90326, Note_on_c, 0, 88, 64
1, 90341, Note_off_c, 0, 88, 64
1, 90357, Note_on_c, 0, 84, 63
1, 90364, Note_on_c, 0, 89, 90
1, 90394, Note_on_c, 0, 88, 89
1, 90401, Note_off_c, 0, 84, 59
1, 90433, Note_off_c, 0, 89, 64
1, 90465, Note_on_c, 0, 72, 46
1, 90487, Note_off_c, 0, 72, 62
1, 90621, Note_on_c, 0, 87, 85
1, 90630, Note_off_c, 0, 88, 60
1, 90632, Note_on_c, 0, 69, 60
1, 90669, Note_off_c, 0, 69, 60
1, 90672, Note_off_c, 0, 87, 65
1, 90761, Note_on_c, 0, 55, 58
1, 90762, Control_c, 0, 64, 101
1, 90770, Note_on_c, 0, 88, 85
1, 90770, Note_on_c, 0, 76, 83
1, 90777, Note_on_c, 0, 83, 70
1, 90779, Control_c, 0, 64, 69
1, 90793, Control_c, 0, 64, 0
1, 90838, Control_c, 0, 64, 42
1, 90852, Control_c, 0, 64, 77
1, 90867, Control_c, 0, 64, 127
1, 90869, Note_off_c, 0, 76, 62
1, 90879, Note_off_c, 0, 55, 60
1, 90887, Note_off_c, 0, 83, 60
1, 90910, Note_on_c, 0, 67, 48
1, 90916, Note_off_c, 0, 88, 61
1, 90919, Note_on_c, 0, 89, 65
1, 90937, Note_off_c, 0, 67, 55
1, 90947, Note_off_c, 0, 89, 68
1, 90975, Note_on_c, 0, 88, 63
1, 91028, Note_on_c, 0, 89, 75
1, 91040, Note_off_c, 0, 88, 0
1, 91049, Note_on_c, 0, 71, 62
1, 91051, Note_off_c, 0, 89, 68
1, 91062, Note_on_c, 0, 88, 32
1, 91099, Note_off_c, 0, 88, 62
1, 91102, Note_off_c, 0, 71, 50
1, 91115, Note_on_c, 0, 89, 81
1, 91141, Note_on_c, 0, 88, 77
1, 91167, Note_on_c, 0, 83, 53
1, 91194, Note_off_c, 0, 89, 57
1, 91200, Note_off_c, 0, 83, 62
1, 91254, Note_on_c, 0, 71, 52
1, 91280, Note_off_c, 0, 71, 60
1, 91381, Note_on_c, 0, 87, 89
1, 91399, Note_on_c, 0, 67, 66
1, 91405, Note_off_c, 0, 88, 62
1, 91435, Note_off_c, 0, 87, 66
1, 91438, Note_off_c, 0, 67, 59
1, 91531, Note_on_c, 0, 88, 82
1, 91532, Note_on_c, 0, 53, 59
1, 91533, Note_on_c, 0, 76, 75
1, 91534, Note_on_c, 0, 81, 76
1, 91540, Control_c, 0, 64, 85
1, 91555, Control_c, 0, 64, 61
1, 91571, Control_c, 0, 64, 0
1, 91600, Control_c, 0, 64, 35
1, 91615, Control_c, 0, 64, 67
1, 91630, Control_c, 0, 64, 106
1, 91645, Control_c, 0, 64, 127
1, 91648, Note_off_c, 0, 76, 63
1, 91653, Note_off_c, 0, 53, 63
1, 91658, Note_off_c, 0, 81, 60
1, 91668, Note_on_c, 0, 65, 64
1, 91685, Note_off_c, 0, 88, 62
1, 91697, Note_off_c, 0, 65, 67
1, 91705, Note_on_c, 0, 89, 39
1, 91732, Note_off_c, 0, 89, 53
1, 91764, Note_on_c, 0, 88, 64
1, 91795, Note_off_c, 0, 88, 49
1, 91806, Note_on_c, 0, 89, 74
1, 91808, Note_on_c, 0, 69, 72
1, 91832, Note_off_c, 0, 89, 69
1, 91843, Note_on_c, 0, 88, 72
1, 91851, Note_off_c, 0, 69, 57
1, 91870, Note_off_c, 0, 88, 65
1, 91896, Note_on_c, 0, 89, 81
1, 91920, Note_on_c, 0, 88, 82
1, 91927, Note_on_c, 0, 81, 64
1, 91966, Note_off_c, 0, 89, 63
1, 91975, Note_off_c, 0, 81, 55
1, 92034, Note_on_c, 0, 69, 40
1, 92064, Note_off_c, 0, 69, 53
1, 92152, Note_on_c, 0, 86, 82
1, 92174, Note_off_c, 0, 88, 61
1, 92178, Note_on_c, 0, 65, 60
1, 92200, Note_off_c, 0, 86, 64
1, 92216, Note_off_c, 0, 65, 63
1, 92300, Note_on_c, 0, 52, 65
1, 92304, Note_on_c, 0, 88, 82
1, 92304, Control_c, 0, 64, 97
1, 92306, Note_on_c, 0, 76, 77
1, 92308, Note_on_c, 0, 80, 77
1, 92319, Control_c, 0, 64, 68
1, 92334, Control_c, 0, 64, 0
1, 92379, Control_c, 0, 64, 33
1, 92394, Control_c, 0, 64, 67
1, 92400, Note_off_c, 0, 76, 59
1, 92409, Control_c, 0, 64, 97
1, 92416, Note_off_c, 0, 52, 62
1, 92417, Note_off_c, 0, 80, 62
1, 92423, Control_c, 0, 64, 127
1, 92438, Note_on_c, 0, 64, 58
1, 92440, Note_off_c, 0, 88, 61
1, 92453, Note_on_c, 0, 89, 48
1, 92460, Note_off_c, 0, 64, 63
1, 92476, Note_off_c, 0, 89, 56
1, 92528, Note_on_c, 0, 88, 61
1, 92556, Note_off_c, 0, 88, 52
1, 92562, Note_on_c, 0, 89, 74
1, 92592, Note_on_c, 0, 68, 58
1, 92595, Note_off_c, 0, 89, 60
1, 92602, Note_on_c, 0, 88, 68
1, 92629, Note_off_c, 0, 68, 47
1, 92633, Note_off_c, 0, 88, 63
1, 92657, Note_on_c, 0, 89, 64
1, 92687, Note_on_c, 0, 88, 82
1, 92702, Note_on_c, 0, 80, 56
1, 92743, Note_off_c, 0, 80, 63
1, 92750, Note_off_c, 0, 89, 61
1, 92809, Note_on_c, 0, 68, 55
1, 92845, Note_off_c, 0, 68, 60
1, 92963, Note_on_c, 0, 83, 72
1, 92972, Note_on_c, 0, 64, 58
1, 92989, Note_off_c, 0, 88, 57
1, 93006, Note_off_c, 0, 64, 65
1, 93010, Note_off_c, 0, 83, 62
1, 93140, Control_c, 0, 64, 116
1, 93143, Note_on_c, 0, 45, 58
1, 93155, Control_c, 0, 64, 76
1, 93163, Note_on_c, 0, 88, 78
1, 93166, Note_on_c, 0, 76, 73
1, 93167, Note_on_c, 0, 84, 75
1, 93172, Control_c, 0, 64, 50
1, 93186, Control_c, 0, 64, 0
1, 93231, Control_c, 0, 64, 59
1, 93253, Control_c, 0, 64, 79
1, 93268, Control_c, 0, 64, 127
1, 93283, Note_off_c, 0, 76, 58
1, 93292, Note_off_c, 0, 45, 61
1, 93308, Note_off_c, 0, 84, 62
1, 93312, Note_on_c, 0, 57, 48
1, 93337, Note_off_c, 0, 57, 58
1, 93337, Note_off_c, 0, 88, 62
1, 93349, Note_on_c, 0, 89, 57
1, 93367, Note_off_c, 0, 89, 64
1, 93404, Note_on_c, 0, 88, 56
1, 93427, Note_off_c, 0, 88, 57
1, 93441, Note_on_c, 0, 89, 77
1, 93461, Note_on_c, 0, 60, 54
1, 93472, Note_off_c, 0, 89, 62
1, 93492, Note_on_c, 0, 88, 69
1, 93492, Note_off_c, 0, 60, 60
1, 93510, Note_off_c, 0, 88, 61
1, 93534, Note_on_c, 0, 89, 75
1, 93563, Note_on_c, 0, 88, 89
1, 93570, Note_on_c, 0, 72, 51
1, 93606, Note_off_c, 0, 89, 59
1, 93614, Note_off_c, 0, 72, 58
1, 93652, Note_on_c, 0, 60, 52
1, 93686, Note_off_c, 0, 60, 64
1, 93799, Note_on_c, 0, 87, 84
1, 93816, Note_off_c, 0, 88, 61
1, 93820, Note_on_c, 0, 57, 63
1, 93848, Note_off_c, 0, 87, 67
1, 93850, Note_off_c, 0, 57, 64
1, 93945, Note_on_c, 0, 43, 63
1, 93945, Note_on_c, 0, 88, 83
1, 93948, Note_on_c, 0, 76, 84
1, 93954, Note_on_c, 0, 83, 74
1, 93966, Control_c, 0, 64, 86
1, 93987, Control_c, 0, 64, 57
1, 94002, Control_c, 0, 64, 0
1, 94047, Control_c, 0, 64, 42
1, 94062, Control_c, 0, 64, 70
1, 94076, Control_c, 0, 64, 103
1, 94079, Note_off_c, 0, 76, 62
1, 94090, Note_off_c, 0, 83, 59
1, 94091, Control_c, 0, 64, 127
1, 94093, Note_off_c, 0, 43, 60
1, 94099, Note_on_c, 0, 55, 63
1, 94112, Note_on_c, 0, 89, 69
1, 94112, Note_off_c, 0, 88, 60
1, 94129, Note_off_c, 0, 55, 64
1, 94139, Note_off_c, 0, 89, 68
1, 94177, Note_on_c, 0, 88, 61
1, 94219, Note_on_c, 0, 89, 73
1, 94219, Note_off_c, 0, 88, 61
1, 94231, Note_on_c, 0, 59, 65
1, 94246, Note_off_c, 0, 89, 67
1, 94253, Note_on_c, 0, 88, 61
1, 94273, Note_off_c, 0, 59, 56
1, 94288, Note_off_c, 0, 88, 63
1, 94307, Note_on_c, 0, 89, 81
1, 94332, Note_on_c, 0, 88, 73
1, 94349, Note_on_c, 0, 71, 55
1, 94387, Note_off_c, 0, 89, 62
1, 94393, Note_off_c, 0, 71, 60
1, 94434, Note_on_c, 0, 59, 58
1, 94463, Note_off_c, 0, 59, 64
1, 94576, Note_on_c, 0, 87, 87
1, 94592, Note_on_c, 0, 55, 60
1, 94601, Note_off_c, 0, 88, 63
1, 94622, Note_off_c, 0, 55, 62
1, 94632, Note_off_c, 0, 87, 64
1, 94713, Control_c, 0, 64, 109
1, 94716, Note_on_c, 0, 41, 67
1, 94717, Note_on_c, 0, 76, 78
1, 94718, Note_on_c, 0, 88, 80
1, 94720, Note_on_c, 0, 81, 80
1, 94735, Control_c, 0, 64, 73
1, 94750, Control_c, 0, 64, 0
1, 94796, Control_c, 0, 64, 26
1, 94810, Control_c, 0, 64, 67
1, 94825, Control_c, 0, 64, 109
1, 94840, Control_c, 0, 64, 127
1, 94841, Note_off_c, 0, 76, 62
1, 94845, Note_off_c, 0, 41, 60
1, 94855, Note_off_c, 0, 81, 61
1, 94858, Note_on_c, 0, 53, 59
1, 94876, Note_on_c, 0, 89, 72
1, 94883, Note_off_c, 0, 88, 60
1, 94887, Note_off_c, 0, 53, 68
1, 94903, Note_off_c, 0, 89, 66
1, 94967, Note_on_c, 0, 88, 41
1, 94989, Note_on_c, 0, 57, 69
1, 94999, Note_on_c, 0, 89, 67
1, 95018, Note_off_c, 0, 88, 0
1, 95020, Note_off_c, 0, 89, 66
1, 95025, Note_on_c, 0, 88, 64
1, 95039, Note_off_c, 0, 57, 58
1, 95064, Note_off_c, 0, 88, 61
1, 95083, Note_on_c, 0, 89, 75
1, 95108, Note_on_c, 0, 69, 59
1, 95108, Note_on_c, 0, 88, 73
1, 95160, Note_off_c, 0, 69, 64
1, 95169, Note_off_c, 0, 89, 64
1, 95198, Note_on_c, 0, 57, 54
1, 95227, Note_off_c, 0, 57, 65
1, 95334, Note_on_c, 0, 86, 83
1, 95357, Note_on_c, 0, 53, 54
1, 95362, Note_off_c, 0, 88, 63
1, 95385, Note_off_c, 0, 86, 64
1, 95394, Note_off_c, 0, 53, 64
1, 95492, Note_on_c, 0, 88, 78
1, 95492, Note_on_c, 0, 40, 61
1, 95492, Note_on_c, 0, 76, 70
1, 95501, Note_on_c, 0, 80, 73
1, 95514, Control_c, 0, 64, 82
1, 95529, Control_c, 0, 64, 57
1, 95543, Control_c, 0, 64, 0
1, 95589, Control_c, 0, 64, 40
1, 95604, Control_c, 0, 64, 68
1, 95606, Note_off_c, 0, 76, 60
1, 95619, Note_off_c, 0, 40, 62
1, 95619, Control_c, 0, 64, 105
1, 95626, Note_off_c, 0, 80, 62
1, 95633, Control_c, 0, 64, 127
1, 95644, Note_on_c, 0, 52, 55
1, 95650, Note_off_c, 0, 88, 59
1, 95652, Note_on_c, 0, 89, 61
1, 95667, Note_off_c, 0, 52, 62
1, 95676, Note_off_c, 0, 89, 65
1, 95719, Note_on_c, 0, 88, 57
1, 95745, Note_off_c, 0, 88, 51
1, 95761, Note_on_c, 0, 89, 74
1, 95785, Note_on_c, 0, 56, 63
1, 95787, Note_off_c, 0, 89, 66
1, 95804, Note_on_c, 0, 88, 57
1, 95822, Note_off_c, 0, 88, 61
1, 95832, Note_off_c, 0, 56, 53
1, 95854, Note_on_c, 0, 89, 78
1, 95886, Note_on_c, 0, 88, 78
1, 95894, Note_on_c, 0, 68, 59
1, 95932, Note_off_c, 0, 89, 61
1, 95947, Note_off_c, 0, 68, 62
1, 95993, Note_on_c, 0, 56, 54
1, 96029, Note_off_c, 0, 56, 59
1, 96159, Note_on_c, 0, 52, 55
1, 96175, Note_on_c, 0, 83, 71
1, 96193, Note_off_c, 0, 88, 61
1, 96204, Note_off_c, 0, 52, 61
1, 96222, Note_off_c, 0, 83, 60
1, 96362, Note_on_c, 0, 45, 36
1, 96395, Note_on_c, 0, 48, 47
1, 96397, Control_c, 0, 64, 116
1, 96412, Control_c, 0, 64, 83
1, 96425, Note_on_c, 0, 60, 67
1, 96427, Control_c, 0, 64, 63
1, 96439, Note_on_c, 0, 52, 52
1, 96442, Control_c, 0, 64, 0
1, 96501, Control_c, 0, 64, 52
1, 96506, Note_off_c, 0, 48, 57
1, 96511, Note_off_c, 0, 52, 53
1, 96516, Control_c, 0, 64, 70
1, 96520, Note_off_c, 0, 45, 57
1, 96530, Control_c, 0, 64, 96
1, 96545, Control_c, 0, 64, 127
1, 96547, Note_off_c, 0, 60, 60
1, 96565, Note_on_c, 0, 53, 54
1, 96573, Note_on_c, 0, 72, 66
1, 96599, Note_off_c, 0, 53, 65
1, 96613, Note_off_c, 0, 72, 61
1, 96638, Note_on_c, 0, 52, 55
1, 96677, Note_off_c, 0, 52, 63
1, 96692, Note_on_c, 0, 53, 62
1, 96697, Note_on_c, 0, 76, 72
1, 96751, Note_off_c, 0, 76, 63
1, 96799, Note_on_c, 0, 52, 71
1, 96805, Note_off_c, 0, 53, 57
1, 96821, Note_on_c, 0, 88, 74
1, 96908, Note_off_c, 0, 88, 63
1, 96935, Note_on_c, 0, 76, 75
1, 96962, Note_off_c, 0, 76, 70
1, 97071, Note_on_c, 0, 51, 76
1, 97072, Note_on_c, 0, 72, 71
1, 97082, Note_off_c, 0, 52, 64
1, 97103, Note_off_c, 0, 51, 63
1, 97138, Note_off_c, 0, 72, 63
1, 97160, Note_on_c, 0, 43, 70
1, 97192, Note_on_c, 0, 47, 65
1, 97206, Control_c, 0, 64, 85
1, 97221, Control_c, 0, 64, 62
1, 97228, Note_on_c, 0, 59, 68
1, 97236, Control_c, 0, 64, 0
1, 97246, Note_on_c, 0, 52, 66
1, 97295, Control_c, 0, 64, 25
1, 97310, Control_c, 0, 64, 62
1, 97317, Note_off_c, 0, 43, 59
1, 97321, Note_off_c, 0, 47, 60
1, 97325, Control_c, 0, 64, 84
1, 97333, Note_off_c, 0, 52, 62
1, 97340, Control_c, 0, 64, 127
1, 97343, Note_off_c, 0, 59, 63
1, 97373, Note_on_c, 0, 71, 62
1, 97374, Note_on_c, 0, 53, 61
1, 97404, Note_off_c, 0, 71, 60
1, 97408, Note_off_c, 0, 53, 66
1, 97441, Note_on_c, 0, 52, 53
1, 97483, Note_off_c, 0, 52, 63
1, 97492, Note_on_c, 0, 53, 69
1, 97496, Note_on_c, 0, 76, 74
1, 97540, Note_off_c, 0, 76, 62
1, 97600, Note_on_c, 0, 52, 73
1, 97603, Note_off_c, 0, 53, 63
1, 97616, Note_on_c, 0, 88, 75
1, 97698, Note_off_c, 0, 88, 63
1, 97738, Note_on_c, 0, 76, 70
1, 97762, Note_off_c, 0, 76, 72
1, 97853, Note_on_c, 0, 51, 79
1, 97871, Note_off_c, 0, 52, 64
1, 97883, Note_on_c, 0, 71, 66
1, 97891, Note_off_c, 0, 51, 64
1, 97916, Note_off_c, 0, 71, 61
1, 97942, Poly_aftertouch_c, 0, 72, 127
1, 97960, Note_on_c, 0, 41, 73
1, 97964, Poly_aftertouch_c, 0, 72, 0
1, 97988, Note_on_c, 0, 45, 59
1, 97999, Control_c, 0, 64, 102
1, 98014, Control_c, 0, 64, 76
1, 98026, Note_on_c, 0, 57, 74
1, 98029, Control_c, 0, 64, 53
1, 98043, Control_c, 0, 64, 0
1, 98053, Note_on_c, 0, 52, 71
1, 98074, Note_off_c, 0, 41, 59
1, 98103, Control_c, 0, 64, 55
1, 98113, Note_off_c, 0, 45, 61
1, 98117, Control_c, 0, 64, 74
1, 98132, Control_c, 0, 64, 127
1, 98139, Note_off_c, 0, 57, 58
1, 98148, Note_off_c, 0, 52, 64
1, 98161, Note_on_c, 0, 53, 73
1, 98161, Note_on_c, 0, 69, 70
1, 98203, Note_off_c, 0, 69, 62
1, 98221, Note_off_c, 0, 53, 60
1, 98243, Note_on_c, 0, 52, 60
1, 98279, Note_off_c, 0, 52, 58
1, 98290, Note_on_c, 0, 76, 74
1, 98310, Note_on_c, 0, 53, 65
1, 98340, Note_off_c, 0, 76, 63
1, 98394, Note_on_c, 0, 52, 72
1, 98398, Note_off_c, 0, 53, 62
1, 98412, Note_on_c, 0, 88, 74
1, 98515, Note_off_c, 0, 88, 64
1, 98542, Note_on_c, 0, 76, 72
1, 98566, Note_off_c, 0, 76, 70
1, 98655, Note_on_c, 0, 50, 69
1, 98658, Note_off_c, 0, 52, 65
1, 98670, Note_on_c, 0, 69, 78
1, 98683, Note_off_c, 0, 50, 64
1, 98735, Note_off_c, 0, 69, 65
1, 98777, Note_on_c, 0, 40, 62
1, 98779, Note_on_c, 0, 47, 61
1, 98792, Control_c, 0, 64, 87
1, 98807, Control_c, 0, 64, 62
1, 98822, Note_on_c, 0, 56, 75
1, 98822, Control_c, 0, 64, 0
1, 98827, Note_on_c, 0, 52, 62
1, 98860, Note_off_c, 0, 47, 62
1, 98866, Control_c, 0, 64, 8
1, 98870, Note_off_c, 0, 40, 61
1, 98881, Control_c, 0, 64, 63
1, 98896, Control_c, 0, 64, 85
1, 98906, Note_off_c, 0, 56, 63
1, 98911, Control_c, 0, 64, 127
1, 98959, Note_on_c, 0, 68, 64
1, 98979, Note_on_c, 0, 53, 55
1, 98980, Note_off_c, 0, 52, 59
1, 98987, Note_off_c, 0, 68, 65
1, 99013, Note_off_c, 0, 53, 67
1, 99034, Note_on_c, 0, 52, 48
1, 99093, Note_on_c, 0, 76, 67
1, 99101, Note_off_c, 0, 52, 59
1, 99105, Note_on_c, 0, 53, 52
1, 99133, Note_off_c, 0, 76, 60
1, 99201, Note_off_c, 0, 53, 56
1, 99219, Note_on_c, 0, 52, 62
1, 99223, Note_on_c, 0, 88, 66
1, 99268, Note_off_c, 0, 52, 61
1, 99331, Note_off_c, 0, 88, 61
1, 99370, Note_on_c, 0, 76, 62
1, 99413, Note_off_c, 0, 76, 63
1, 99492, Note_on_c, 0, 40, 57
1, 99519, Note_on_c, 0, 71, 69
1, 99521, Note_off_c, 0, 40, 63
1, 99556, Note_off_c, 0, 71, 60
1, 99736, Note_on_c, 0, 57, 46
1, 99770, Note_on_c, 0, 60, 42
1, 99778, Control_c, 0, 64, 101
1, 99793, Control_c, 0, 64, 79
1, 99807, Control_c, 0, 64, 58
1, 99808, Note_on_c, 0, 72, 63
1, 99817, Note_on_c, 0, 64, 47
1, 99822, Control_c, 0, 64, 0
1, 99881, Control_c, 0, 64, 50
1, 99896, Control_c, 0, 64, 74
1, 99905, Note_off_c, 0, 64, 55
1, 99911, Control_c, 0, 64, 105
1, 99925, Note_off_c, 0, 57, 59
1, 99925, Note_off_c, 0, 60, 34
1, 99925, Control_c, 0, 64, 127
1, 99933, Note_off_c, 0, 72, 63
1, 99958, Note_on_c, 0, 84, 63
1, 99967, Note_on_c, 0, 65, 50
1, 99998, Note_off_c, 0, 84, 64
1, 100000, Note_off_c, 0, 65, 62
1, 100041, Note_on_c, 0, 64, 55
1, 100077, Note_off_c, 0, 64, 63
1, 100085, Note_on_c, 0, 65, 64
1, 100090, Note_on_c, 0, 88, 70
1, 100134, Note_off_c, 0, 88, 59
1, 100200, Note_off_c, 0, 65, 58
1, 100202, Note_on_c, 0, 64, 66
1, 100215, Note_on_c, 0, 100, 67
1, 100295, Note_off_c, 0, 100, 64
1, 100325, Note_on_c, 0, 88, 68
1, 100367, Note_off_c, 0, 88, 61
1, 100485, Note_off_c, 0, 64, 64
1, 100487, Note_on_c, 0, 63, 70
1, 100487, Note_on_c, 0, 84, 67
1, 100521, Note_off_c, 0, 63, 59
1, 100573, Note_off_c, 0, 84, 63
1, 100613, Note_on_c, 0, 55, 55
1, 100616, Control_c, 0, 64, 119
1, 100631, Control_c, 0, 64, 84
1, 100634, Note_on_c, 0, 59, 55
1, 100646, Control_c, 0, 64, 63
1, 100661, Control_c, 0, 64, 0
1, 100669, Note_on_c, 0, 71, 65
1, 100676, Note_on_c, 0, 64, 59
1, 100705, Control_c, 0, 64, 29
1, 100720, Control_c, 0, 64, 64
1, 100742, Control_c, 0, 64, 82
1, 100756, Control_c, 0, 64, 127
1, 100774, Note_off_c, 0, 55, 53
1, 100780, Note_off_c, 0, 59, 62
1, 100785, Note_off_c, 0, 64, 62
1, 100791, Note_off_c, 0, 71, 60
1, 100813, Note_on_c, 0, 83, 61
1, 100818, Note_on_c, 0, 65, 60
1, 100846, Note_off_c, 0, 83, 64
1, 100853, Note_off_c, 0, 65, 67
1, 100872, Note_on_c, 0, 64, 59
1, 100914, Note_off_c, 0, 64, 60
1, 100929, Note_on_c, 0, 65, 74
1, 100933, Note_on_c, 0, 88, 78
1, 100971, Note_off_c, 0, 88, 59
1, 101037, Note_off_c, 0, 65, 62
1, 101037, Note_on_c, 0, 64, 70
1, 101055, Note_on_c, 0, 100, 72
1, 101135, Note_off_c, 0, 100, 64
1, 101172, Note_on_c, 0, 88, 71
1, 101197, Note_off_c, 0, 88, 67
1, 101287, Note_on_c, 0, 63, 71
1, 101293, Note_off_c, 0, 64, 63
1, 101306, Note_on_c, 0, 83, 70
1, 101312, Note_off_c, 0, 63, 67
1, 101371, Note_off_c, 0, 83, 61
1, 101396, Note_on_c, 0, 53, 63
1, 101411, Note_on_c, 0, 57, 60
1, 101424, Control_c, 0, 64, 89
1, 101439, Control_c, 0, 64, 64
1, 101453, Control_c, 0, 64, 0
1, 101457, Note_on_c, 0, 69, 71
1, 101487, Note_on_c, 0, 64, 64
1, 101520, Control_c, 0, 64, 63
1, 101526, Note_off_c, 0, 53, 39
1, 101534, Control_c, 0, 64, 83
1, 101549, Control_c, 0, 64, 127
1, 101559, Note_off_c, 0, 57, 60
1, 101582, Note_off_c, 0, 69, 64
1, 101587, Note_off_c, 0, 64, 61
1, 101603, Note_on_c, 0, 65, 68
1, 101604, Note_on_c, 0, 81, 73
1, 101645, Note_off_c, 0, 65, 57
1, 101648, Note_off_c, 0, 81, 57
1, 101689, Note_on_c, 0, 64, 55
1, 101728, Note_off_c, 0, 64, 62
1, 101739, Note_on_c, 0, 88, 73
1, 101756, Note_on_c, 0, 65, 68
1, 101778, Note_off_c, 0, 88, 59
1, 101838, Note_off_c, 0, 65, 56
1, 101853, Note_on_c, 0, 64, 65
1, 101867, Note_on_c, 0, 100, 68
1, 101966, Note_off_c, 0, 100, 62
1, 101990, Note_on_c, 0, 88, 68
1, 102015, Note_off_c, 0, 88, 66
1, 102107, Note_off_c, 0, 64, 63
1, 102110, Note_on_c, 0, 62, 58
1, 102134, Note_on_c, 0, 81, 66
1, 102134, Note_off_c, 0, 62, 62
1, 102200, Note_off_c, 0, 81, 59
1, 102239, Control_c, 0, 64, 104
1, 102244, Note_on_c, 0, 52, 62
1, 102253, Note_on_c, 0, 59, 51
1, 102254, Control_c, 0, 64, 73
1, 102269, Control_c, 0, 64, 36
1, 102283, Control_c, 0, 64, 0
1, 102298, Note_on_c, 0, 68, 69
1, 102313, Note_on_c, 0, 64, 40
1, 102327, Control_c, 0, 64, 64
1, 102342, Control_c, 0, 64, 90
1, 102345, Note_off_c, 0, 52, 59
1, 102351, Note_off_c, 0, 59, 52
1, 102357, Control_c, 0, 64, 127
1, 102393, Note_off_c, 0, 68, 63
1, 102441, Note_on_c, 0, 80, 69
1, 102461, Note_off_c, 0, 64, 55
1, 102470, Note_off_c, 0, 80, 63
1, 102478, Note_on_c, 0, 65, 48
1, 102508, Note_off_c, 0, 65, 56
1, 102524, Note_on_c, 0, 64, 47
1, 102575, Note_on_c, 0, 88, 71
1, 102575, Note_off_c, 0, 64, 59
1, 102603, Note_on_c, 0, 65, 64
1, 102610, Note_off_c, 0, 88, 59
1, 102668, Note_off_c, 0, 65, 63
1, 102688, Note_on_c, 0, 64, 62
1, 102718, Note_on_c, 0, 100, 71
1, 102733, Note_off_c, 0, 64, 56
1, 102810, Note_off_c, 0, 100, 62
1, 102841, Note_on_c, 0, 88, 68
1, 102870, Note_off_c, 0, 88, 65
1, 103030, Note_on_c, 0, 83, 73
1, 103033, Note_on_c, 0, 52, 54
1, 103069, Note_off_c, 0, 52, 66
1, 103095, Note_off_c, 0, 83, 59
1, 103278, Note_on_c, 0, 43, 54
1, 103284, Control_c, 0, 64, 84
1, 103299, Control_c, 0, 64, 62
1, 103310, Note_on_c, 0, 73, 64
1, 103314, Note_on_c, 0, 81, 69
1, 103314, Control_c, 0, 64, 0
1, 103358, Control_c, 0, 64, 55
1, 103373, Control_c, 0, 64, 72
1, 103388, Control_c, 0, 64, 104
1, 103403, Control_c, 0, 64, 127
1, 103417, Note_off_c, 0, 73, 59
1, 103442, Note_off_c, 0, 81, 57
1, 103472, Note_off_c, 0, 43, 57
1, 103478, Note_on_c, 0, 82, 59
1, 103494, Note_on_c, 0, 55, 53
1, 103512, Note_off_c, 0, 82, 61
1, 103518, Note_off_c, 0, 55, 59
1, 103555, Note_on_c, 0, 81, 56
1, 103574, Note_off_c, 0, 81, 60
1, 103585, Note_on_c, 0, 82, 67
1, 103611, Note_off_c, 0, 82, 64
1, 103646, Note_on_c, 0, 57, 60
1, 103653, Note_on_c, 0, 81, 36
1, 103679, Note_on_c, 0, 82, 49
1, 103693, Note_off_c, 0, 81, 0
1, 103693, Note_on_c, 0, 81, 50
1, 103694, Note_off_c, 0, 57, 57
1, 103698, Note_off_c, 0, 82, 60
1, 103748, Note_off_c, 0, 81, 62
1, 103760, Note_on_c, 0, 82, 76
1, 103762, Note_on_c, 0, 69, 57
1, 103800, Note_on_c, 0, 81, 75
1, 103815, Note_off_c, 0, 69, 63
1, 103834, Note_off_c, 0, 82, 61
1, 103850, Note_on_c, 0, 57, 60
1, 103883, Note_off_c, 0, 57, 62
1, 104024, Note_on_c, 0, 55, 59
1, 104024, Note_on_c, 0, 80, 82
1, 104032, Note_off_c, 0, 81, 58
1, 104061, Note_off_c, 0, 55, 60
1, 104152, Control_c, 0, 64, 116
1, 104166, Note_on_c, 0, 81, 79
1, 104166, Control_c, 0, 64, 81
1, 104168, Note_on_c, 0, 74, 74
1, 104169, Note_on_c, 0, 41, 62
1, 104181, Note_off_c, 0, 80, 56
1, 104181, Control_c, 0, 64, 58
1, 104196, Control_c, 0, 64, 0
1, 104240, Control_c, 0, 64, 36
1, 104254, Control_c, 0, 64, 67
1, 104269, Control_c, 0, 64, 96
1, 104280, Note_off_c, 0, 81, 58
1, 104284, Control_c, 0, 64, 127
1, 104285, Note_off_c, 0, 41, 61
1, 104291, Note_off_c, 0, 74, 58
1, 104305, Note_on_c, 0, 53, 56
1, 104316, Note_on_c, 0, 82, 65
1, 104335, Note_off_c, 0, 53, 66
1, 104349, Note_off_c, 0, 82, 60
1, 104393, Note_on_c, 0, 81, 52
1, 104414, Note_off_c, 0, 81, 57
1, 104420, Note_on_c, 0, 82, 62
1, 104429, Note_on_c, 0, 57, 69
1, 104438, Note_off_c, 0, 82, 66
1, 104455, Note_on_c, 0, 81, 68
1, 104459, Note_off_c, 0, 57, 62
1, 104496, Note_off_c, 0, 81, 62
1, 104508, Note_on_c, 0, 82, 76
1, 104551, Note_on_c, 0, 69, 59
1, 104552, Note_on_c, 0, 81, 76
1, 104595, Note_off_c, 0, 82, 61
1, 104602, Note_off_c, 0, 69, 64
1, 104649, Note_on_c, 0, 57, 45
1, 104670, Note_off_c, 0, 57, 60
1, 104791, Note_on_c, 0, 53, 59
1, 104793, Note_on_c, 0, 80, 86
1, 104821, Note_off_c, 0, 53, 68
1, 104825, Note_off_c, 0, 81, 60
1, 104943, Note_on_c, 0, 79, 76
1, 104944, Note_on_c, 0, 81, 82
1, 104945, Note_on_c, 0, 37, 59
1, 104968, Note_off_c, 0, 80, 60
1, 104989, Control_c, 0, 64, 83
1, 105003, Control_c, 0, 64, 59
1, 105018, Control_c, 0, 64, 0
1, 105063, Control_c, 0, 64, 25
1, 105077, Control_c, 0, 64, 67
1, 105092, Control_c, 0, 64, 116
1, 105097, Note_off_c, 0, 81, 61
1, 105104, Note_on_c, 0, 49, 57
1, 105106, Note_off_c, 0, 37, 63
1, 105107, Control_c, 0, 64, 127
1, 105117, Note_off_c, 0, 79, 36
1, 105117, Note_on_c, 0, 82, 72
1, 105131, Note_off_c, 0, 49, 62
1, 105147, Note_off_c, 0, 82, 62
1, 105187, Note_on_c, 0, 81, 67
1, 105210, Note_off_c, 0, 81, 60
1, 105230, Note_on_c, 0, 82, 71
1, 105236, Note_on_c, 0, 52, 72
1, 105258, Note_off_c, 0, 82, 65
1, 105269, Note_on_c, 0, 81, 77
1, 105298, Note_off_c, 0, 52, 60
1, 105305, Note_off_c, 0, 81, 58
1, 105317, Note_on_c, 0, 82, 76
1, 105361, Note_on_c, 0, 81, 73
1, 105380, Note_on_c, 0, 64, 49
1, 105396, Note_off_c, 0, 82, 60
1, 105430, Note_off_c, 0, 64, 47
1, 105471, Note_on_c, 0, 52, 61
1, 105504, Note_off_c, 0, 52, 66
1, 105621, Note_on_c, 0, 80, 75
1, 105621, Note_off_c, 0, 81, 57
1, 105636, Note_on_c, 0, 49, 50
1, 105702, Note_off_c, 0, 49, 55
1, 105777, Note_on_c, 0, 81, 74
1, 105782, Control_c, 0, 64, 99
1, 105784, Note_off_c, 0, 80, 57
1, 105785, Note_on_c, 0, 77, 69
1, 105787, Note_on_c, 0, 38, 56
1, 105797, Control_c, 0, 64, 72
1, 105812, Control_c, 0, 64, 21
1, 105826, Control_c, 0, 64, 0
1, 105870, Control_c, 0, 64, 61
1, 105885, Control_c, 0, 64, 84
1, 105889, Note_off_c, 0, 38, 59
1, 105898, Note_off_c, 0, 81, 58
1, 105900, Control_c, 0, 64, 127
1, 105929, Note_on_c, 0, 50, 51
1, 105940, Note_off_c, 0, 77, 56
1, 105958, Note_on_c, 0, 82, 45
1, 105970, Note_off_c, 0, 50, 63
1, 106004, Note_off_c, 0, 82, 45
1, 106023, Note_on_c, 0, 81, 53
1, 106084, Note_on_c, 0, 53, 59
1, 106108, Note_off_c, 0, 81, 62
1, 106125, Note_off_c, 0, 53, 54
1, 106129, Note_on_c, 0, 82, 64
1, 106190, Note_on_c, 0, 81, 47
1, 106196, Note_on_c, 0, 65, 56
1, 106199, Note_off_c, 0, 82, 62
1, 106247, Note_off_c, 0, 65, 58
1, 106258, Note_on_c, 0, 82, 66
1, 106265, Note_off_c, 0, 81, 61
1, 106288, Note_on_c, 0, 53, 56
1, 106301, Note_on_c, 0, 81, 48
1, 106323, Note_off_c, 0, 53, 61
1, 106331, Note_off_c, 0, 82, 61
1, 106498, Note_on_c, 0, 50, 49
1, 106498, Note_off_c, 0, 81, 58
1, 106515, Note_on_c, 0, 74, 67
1, 106531, Note_off_c, 0, 50, 57
1, 106556, Note_off_c, 0, 74, 61
1, 106670, Note_on_c, 0, 41, 63
1, 106679, Control_c, 0, 64, 90
1, 106689, Note_on_c, 0, 79, 67
1, 106694, Note_on_c, 0, 71, 55
1, 106694, Control_c, 0, 64, 68
1, 106709, Control_c, 0, 64, 39
1, 106731, Control_c, 0, 64, 0
1, 106777, Control_c, 0, 64, 54
1, 106792, Control_c, 0, 64, 73
1, 106806, Control_c, 0, 64, 115
1, 106821, Control_c, 0, 64, 127
1, 106828, Note_off_c, 0, 71, 49
1, 106828, Note_off_c, 0, 41, 59
1, 106842, Note_on_c, 0, 53, 52
1, 106849, Note_off_c, 0, 79, 57
1, 106867, Note_on_c, 0, 80, 59
1, 106875, Note_off_c, 0, 53, 66
1, 106897, Note_off_c, 0, 80, 64
1, 106946, Note_on_c, 0, 79, 28
1, 106966, Note_on_c, 0, 80, 73
1, 106977, Note_off_c, 0, 79, 0
1, 106992, Note_off_c, 0, 80, 63
1, 106993, Note_on_c, 0, 55, 52
1, 107001, Note_on_c, 0, 79, 42
1, 107025, Note_off_c, 0, 55, 61
1, 107043, Note_off_c, 0, 79, 62
1, 107061, Note_on_c, 0, 80, 62
1, 107094, Note_on_c, 0, 79, 65
1, 107096, Note_on_c, 0, 67, 56
1, 107135, Note_off_c, 0, 80, 63
1, 107148, Note_off_c, 0, 67, 58
1, 107192, Note_on_c, 0, 55, 57
1, 107226, Note_off_c, 0, 55, 60
1, 107353, Note_on_c, 0, 53, 56
1, 107358, Note_on_c, 0, 78, 77
1, 107367, Note_off_c, 0, 79, 58
1, 107386, Note_off_c, 0, 53, 66
1, 107495, Control_c, 0, 64, 104
1, 107505, Note_on_c, 0, 72, 74
1, 107507, Note_on_c, 0, 79, 72
1, 107508, Note_on_c, 0, 40, 47
1, 107510, Control_c, 0, 64, 76
1, 107520, Note_off_c, 0, 78, 55
1, 107524, Control_c, 0, 64, 53
1, 107539, Control_c, 0, 64, 0
1, 107585, Control_c, 0, 64, 50
1, 107600, Control_c, 0, 64, 73
1, 107615, Control_c, 0, 64, 127
1, 107621, Note_off_c, 0, 79, 57
1, 107624, Note_off_c, 0, 72, 55
1, 107626, Note_off_c, 0, 40, 61
1, 107643, Note_on_c, 0, 52, 55
1, 107657, Note_on_c, 0, 80, 64
1, 107674, Note_off_c, 0, 52, 66
1, 107690, Note_off_c, 0, 80, 61
1, 107720, Note_on_c, 0, 79, 59
1, 107742, Note_off_c, 0, 79, 59
1, 107760, Note_on_c, 0, 80, 67
1, 107764, Note_on_c, 0, 55, 61
1, 107779, Note_off_c, 0, 80, 66
1, 107794, Note_off_c, 0, 55, 62
1, 107795, Note_on_c, 0, 79, 59
1, 107816, Note_off_c, 0, 79, 58
1, 107841, Note_on_c, 0, 80, 78
1, 107875, Note_on_c, 0, 79, 81
1, 107913, Note_off_c, 0, 80, 60
1, 107985, Note_on_c, 0, 55, 52
1, 107991, Poly_aftertouch_c, 0, 67, 0
1, 108019, Note_off_c, 0, 55, 61
1, 108131, Note_on_c, 0, 52, 59
1, 108134, Note_on_c, 0, 78, 77
1, 108140, Note_off_c, 0, 79, 56
1, 108164, Note_off_c, 0, 52, 66
1, 108280, Note_on_c, 0, 79, 72
1, 108286, Note_off_c, 0, 78, 57
1, 108287, Note_on_c, 0, 35, 62
1, 108289, Note_on_c, 0, 77, 72
1, 108302, Control_c, 0, 64, 79
1, 108317, Control_c, 0, 64, 53
1, 108332, Control_c, 0, 64, 0
1, 108377, Control_c, 0, 64, 60
1, 108392, Control_c, 0, 64, 86
1, 108400, Note_off_c, 0, 79, 60
1, 108402, Note_off_c, 0, 35, 61
1, 108407, Control_c, 0, 64, 127
1, 108411, Note_off_c, 0, 77, 37
1, 108422, Note_on_c, 0, 47, 54
1, 108439, Note_on_c, 0, 80, 66
1, 108452, Note_off_c, 0, 47, 63
1, 108477, Note_off_c, 0, 80, 56
1, 108506, Note_on_c, 0, 79, 54
1, 108526, Note_off_c, 0, 79, 59
1, 108545, Note_on_c, 0, 80, 64
1, 108566, Note_on_c, 0, 50, 52
1, 108569, Note_off_c, 0, 80, 64
1, 108588, Note_on_c, 0, 79, 64
1, 108603, Note_off_c, 0, 50, 61
1, 108611, Note_off_c, 0, 79, 59
1, 108637, Note_on_c, 0, 80, 74
1, 108680, Note_on_c, 0, 62, 49
1, 108683, Note_on_c, 0, 79, 71
1, 108714, Note_off_c, 0, 80, 57
1, 108723, Note_off_c, 0, 62, 44
1, 108778, Note_on_c, 0, 50, 57
1, 108814, Note_off_c, 0, 50, 60
1, 108945, Note_on_c, 0, 47, 58
1, 108948, Note_off_c, 0, 79, 58
1, 108966, Note_on_c, 0, 78, 66
1, 108999, Note_off_c, 0, 47, 59
1, 109110, Control_c, 0, 64, 114
1, 109114, Note_on_c, 0, 36, 54
1, 109122, Note_on_c, 0, 79, 68
1, 109124, Note_on_c, 0, 76, 74
1, 109124, Note_off_c, 0, 78, 55
1, 109125, Control_c, 0, 64, 81
1, 109141, Control_c, 0, 64, 60
1, 109156, Control_c, 0, 64, 0
1, 109200, Control_c, 0, 64, 52
1, 109215, Control_c, 0, 64, 71
1, 109230, Control_c, 0, 64, 98
1, 109237, Note_off_c, 0, 36, 56
1, 109245, Control_c, 0, 64, 127
1, 109255, Note_off_c, 0, 79, 60
1, 109274, Note_off_c, 0, 76, 51
1, 109282, Note_on_c, 0, 48, 42
1, 109295, Note_on_c, 0, 80, 61
1, 109311, Note_off_c, 0, 48, 53
1, 109332, Note_off_c, 0, 80, 59
1, 109360, Note_on_c, 0, 79, 48
1, 109403, Note_off_c, 0, 79, 0
1, 109410, Note_on_c, 0, 80, 44
1, 109419, Note_on_c, 0, 79, 44
1, 109425, Note_on_c, 0, 52, 58
1, 109434, Note_off_c, 0, 80, 57
1, 109463, Note_off_c, 0, 79, 60
1, 109473, Note_on_c, 0, 80, 61
1, 109478, Note_off_c, 0, 52, 50
1, 109527, Note_on_c, 0, 79, 64
1, 109538, Note_on_c, 0, 64, 50
1, 109562, Note_off_c, 0, 80, 56
1, 109582, Note_off_c, 0, 64, 48
1, 109629, Note_on_c, 0, 52, 57
1, 109660, Note_off_c, 0, 52, 64
1, 109809, Note_on_c, 0, 48, 56
1, 109820, Note_on_c, 0, 72, 69
1, 109824, Note_off_c, 0, 79, 49
1, 109844, Note_off_c, 0, 48, 65
1, 109978, Note_on_c, 0, 33, 55
1, 109994, Control_c, 0, 64, 109
1, 109997, Note_on_c, 0, 78, 71
1, 110003, Note_on_c, 0, 75, 67
1, 110009, Control_c, 0, 64, 73
1, 110023, Control_c, 0, 64, 40
1, 110038, Control_c, 0, 64, 0
1, 110039, Note_off_c, 0, 72, 61
1, 110083, Control_c, 0, 64, 62
1, 110097, Control_c, 0, 64, 84
1, 110109, Note_off_c, 0, 33, 62
1, 110112, Control_c, 0, 64, 127
1, 110131, Note_off_c, 0, 75, 62
1, 110137, Note_on_c, 0, 45, 48
1, 110145, Note_off_c, 0, 78, 58
1, 110163, Note_on_c, 0, 80, 61
1, 110164, Note_off_c, 0, 45, 62
1, 110199, Note_off_c, 0, 80, 59
1, 110248, Note_on_c, 0, 78, 67
1, 110268, Note_off_c, 0, 78, 60
1, 110277, Note_on_c, 0, 48, 63
1, 110292, Note_on_c, 0, 80, 71
1, 110310, Note_off_c, 0, 48, 56
1, 110325, Note_off_c, 0, 80, 60
1, 110334, Note_on_c, 0, 78, 73
1, 110369, Note_off_c, 0, 78, 56
1, 110380, Note_on_c, 0, 80, 73
1, 110394, Note_on_c, 0, 60, 57
1, 110435, Note_on_c, 0, 78, 81
1, 110441, Note_off_c, 0, 60, 55
1, 110453, Note_off_c, 0, 80, 63
1, 110495, Note_on_c, 0, 48, 56
1, 110528, Note_off_c, 0, 48, 61
1, 110608, Note_off_c, 0, 78, 59
1, 110699, Note_on_c, 0, 45, 51
1, 110703, Note_on_c, 0, 76, 81
1, 110745, Note_off_c, 0, 45, 59
1, 110832, Control_c, 0, 64, 96
1, 110847, Control_c, 0, 64, 67
1, 110850, Note_on_c, 0, 34, 46
1, 110854, Note_on_c, 0, 77, 74
1, 110860, Note_on_c, 0, 74, 65
1, 110862, Control_c, 0, 64, 0
1, 110873, Note_off_c, 0, 76, 63
1, 110921, Control_c, 0, 64, 63
1, 110936, Control_c, 0, 64, 91
1, 110951, Control_c, 0, 64, 127
1, 110990, Note_off_c, 0, 77, 61
1, 110999, Note_off_c, 0, 74, 49
1, 111003, Note_on_c, 0, 46, 60
1, 111020, Note_off_c, 0, 34, 38
1, 111023, Note_on_c, 0, 79, 64
1, 111032, Note_off_c, 0, 46, 62
1, 111055, Note_off_c, 0, 79, 61
1, 111075, Note_on_c, 0, 77, 63
1, 111099, Note_off_c, 0, 77, 64
1, 111125, Note_on_c, 0, 79, 64
1, 111133, Note_on_c, 0, 50, 60
1, 111147, Note_off_c, 0, 79, 62
1, 111157, Note_on_c, 0, 77, 72
1, 111172, Note_off_c, 0, 50, 61
1, 111195, Note_off_c, 0, 77, 55
1, 111222, Note_on_c, 0, 79, 69
1, 111268, Note_on_c, 0, 77, 60
1, 111272, Note_on_c, 0, 62, 50
1, 111272, Note_off_c, 0, 79, 56
1, 111329, Note_off_c, 0, 62, 53
1, 111365, Note_on_c, 0, 50, 53
1, 111403, Note_off_c, 0, 50, 62
1, 111472, Note_off_c, 0, 77, 32
1, 111516, Note_on_c, 0, 70, 75
1, 111525, Note_on_c, 0, 46, 64
1, 111565, Note_off_c, 0, 46, 60
1, 111584, Note_off_c, 0, 70, 64
1, 111660, Note_on_c, 0, 32, 62
1, 111667, Note_on_c, 0, 74, 74
1, 111668, Note_on_c, 0, 77, 74
1, 111669, Control_c, 0, 64, 111
1, 111684, Control_c, 0, 64, 75
1, 111699, Control_c, 0, 64, 38
1, 111714, Control_c, 0, 64, 0
1, 111756, Note_off_c, 0, 74, 59
1, 111758, Control_c, 0, 64, 54
1, 111773, Control_c, 0, 64, 73
1, 111787, Control_c, 0, 64, 111
1, 111793, Note_off_c, 0, 77, 60
1, 111798, Note_on_c, 0, 44, 57
1, 111799, Note_off_c, 0, 32, 61
1, 111802, Control_c, 0, 64, 127
1, 111827, Note_on_c, 0, 79, 59
1, 111830, Note_off_c, 0, 44, 63
1, 111854, Note_off_c, 0, 79, 60
1, 111890, Note_on_c, 0, 77, 54
1, 111911, Note_off_c, 0, 77, 61
1, 111929, Note_on_c, 0, 79, 64
1, 111947, Note_off_c, 0, 79, 65
1, 111950, Note_on_c, 0, 47, 55
1, 111984, Note_on_c, 0, 77, 53
1, 111999, Note_off_c, 0, 47, 61
1, 112004, Note_off_c, 0, 77, 60
1, 112020, Note_on_c, 0, 79, 69
1, 112067, Note_on_c, 0, 77, 72
1, 112087, Note_off_c, 0, 79, 52
1, 112087, Note_on_c, 0, 59, 45
1, 112144, Note_off_c, 0, 59, 52
1, 112183, Note_on_c, 0, 47, 56
1, 112223, Note_off_c, 0, 47, 61
1, 112343, Note_on_c, 0, 75, 72
1, 112349, Note_on_c, 0, 44, 51
1, 112357, Note_off_c, 0, 77, 55
1, 112403, Note_off_c, 0, 44, 54
1, 112497, Note_on_c, 0, 33, 56
1, 112498, Note_off_c, 0, 75, 60
1, 112501, Note_on_c, 0, 72, 67
1, 112501, Note_on_c, 0, 76, 69
1, 112507, Control_c, 0, 64, 101
1, 112522, Control_c, 0, 64, 75
1, 112536, Control_c, 0, 64, 52
1, 112551, Control_c, 0, 64, 0
1, 112596, Control_c, 0, 64, 31
1, 112599, Note_off_c, 0, 33, 55
1, 112610, Control_c, 0, 64, 64
1, 112625, Control_c, 0, 64, 84
1, 112640, Control_c, 0, 64, 127
1, 112641, Note_on_c, 0, 45, 46
1, 112641, Note_off_c, 0, 76, 64
1, 112674, Note_on_c, 0, 77, 61
1, 112674, Note_off_c, 0, 45, 63
1, 112716, Note_off_c, 0, 72, 34
1, 112720, Note_off_c, 0, 77, 58
1, 112750, Note_on_c, 0, 76, 51
1, 112772, Note_off_c, 0, 76, 61
1, 112788, Note_on_c, 0, 77, 63
1, 112801, Note_on_c, 0, 48, 58
1, 112815, Note_off_c, 0, 77, 63
1, 112838, Note_off_c, 0, 48, 60
1, 112842, Note_on_c, 0, 76, 51
1, 112864, Note_off_c, 0, 76, 60
1, 112886, Note_on_c, 0, 77, 67
1, 112916, Note_on_c, 0, 60, 52
1, 112922, Note_on_c, 0, 76, 57
1, 112956, Note_off_c, 0, 77, 54
1, 112969, Note_off_c, 0, 60, 55
1, 113021, Note_on_c, 0, 48, 54
1, 113059, Note_off_c, 0, 48, 60
1, 113191, Note_off_c, 0, 76, 57
1, 113195, Note_on_c, 0, 45, 55
1, 113199, Note_on_c, 0, 69, 72
1, 113230, Note_off_c, 0, 45, 64
1, 113262, Note_off_c, 0, 69, 63
1, 113345, Control_c, 0, 64, 95
1, 113354, Note_on_c, 0, 29, 55
1, 113357, Note_on_c, 0, 74, 64
1, 113360, Control_c, 0, 64, 68
1, 113360, Note_on_c, 0, 69, 71
1, 113375, Control_c, 0, 64, 0
1, 113434, Control_c, 0, 64, 57
1, 113456, Control_c, 0, 64, 74
1, 113467, Note_off_c, 0, 29, 59
1, 113471, Control_c, 0, 64, 110
1, 113474, Note_off_c, 0, 69, 51
1, 113485, Control_c, 0, 64, 127
1, 113486, Note_off_c, 0, 74, 63
1, 113502, Note_on_c, 0, 41, 56
1, 113521, Note_on_c, 0, 76, 58
1, 113532, Note_off_c, 0, 41, 64
1, 113550, Note_off_c, 0, 76, 61
1, 113595, Note_on_c, 0, 74, 46
1, 113620, Note_off_c, 0, 74, 56
1, 113628, Note_on_c, 0, 76, 65
1, 113655, Note_on_c, 0, 47, 60
1, 113655, Note_off_c, 0, 76, 66
1, 113679, Note_on_c, 0, 74, 49
1, 113692, Note_off_c, 0, 47, 61
1, 113700, Note_off_c, 0, 74, 64
1, 113723, Note_on_c, 0, 76, 67
1, 113776, Note_on_c, 0, 74, 66
1, 113777, Note_on_c, 0, 59, 47
1, 113783, Note_off_c, 0, 76, 50
1, 113822, Note_off_c, 0, 59, 57
1, 113872, Note_on_c, 0, 47, 50
1, 113905, Note_off_c, 0, 47, 61
1, 114030, Note_off_c, 0, 74, 59
1, 114039, Note_on_c, 0, 71, 60
1, 114053, Note_on_c, 0, 41, 37
1, 114086, Note_off_c, 0, 41, 52
1, 114140, Note_off_c, 0, 71, 57
1, 114187, Note_on_c, 0, 28, 60
1, 114197, Control_c, 0, 64, 86
1, 114203, Note_on_c, 0, 68, 69
1, 114216, Note_on_c, 0, 74, 64
1, 114220, Control_c, 0, 64, 64
1, 114235, Control_c, 0, 64, 8
1, 114250, Control_c, 0, 64, 0
1, 114279, Control_c, 0, 64, 57
1, 114294, Control_c, 0, 64, 75
1, 114308, Control_c, 0, 64, 127
1, 114322, Note_off_c, 0, 28, 59
1, 114333, Note_off_c, 0, 68, 49
1, 114347, Note_on_c, 0, 40, 60
1, 114354, Note_off_c, 0, 74, 63
1, 114376, Note_off_c, 0, 40, 64
1, 114385, Note_on_c, 0, 76, 46
1, 114409, Note_off_c, 0, 76, 59
1, 114443, Note_on_c, 0, 74, 53
1, 114471, Note_off_c, 0, 74, 66
1, 114487, Note_on_c, 0, 76, 62
1, 114504, Note_off_c, 0, 76, 67
1, 114518, Note_on_c, 0, 47, 38
1, 114533, Note_on_c, 0, 74, 51
1, 114554, Note_off_c, 0, 47, 45
1, 114555, Note_off_c, 0, 74, 64
1, 114573, Note_on_c, 0, 76, 69
1, 114634, Note_on_c, 0, 74, 64
1, 114638, Note_on_c, 0, 59, 43
1, 114639, Note_off_c, 0, 76, 54
1, 114692, Note_off_c, 0, 59, 55
1, 114731, Note_on_c, 0, 47, 59
1, 114770, Note_off_c, 0, 47, 62
1, 114891, Note_on_c, 0, 71, 62
1, 114901, Note_off_c, 0, 74, 51
1, 114909, Note_on_c, 0, 40, 51
1, 114940, Note_off_c, 0, 40, 61
1, 115016, Note_off_c, 0, 71, 49
1, 115083, Note_on_c, 0, 33, 61
1, 115087, Control_c, 0, 64, 101
1, 115099, Note_on_c, 0, 68, 69
1, 115102, Note_on_c, 0, 74, 63
1, 115102, Control_c, 0, 64, 72
1, 115117, Control_c, 0, 64, 39
1, 115131, Control_c, 0, 64, 0
1, 115176, Control_c, 0, 64, 59
1, 115191, Control_c, 0, 64, 77
1, 115205, Control_c, 0, 64, 127
1, 115207, Note_off_c, 0, 33, 62
1, 115229, Note_off_c, 0, 68, 45
1, 115233, Note_on_c, 0, 45, 53
1, 115244, Note_off_c, 0, 74, 62
1, 115264, Note_off_c, 0, 45, 64
1, 115267, Note_on_c, 0, 76, 58
1, 115296, Note_off_c, 0, 76, 64
1, 115321, Note_on_c, 0, 74, 58
1, 115353, Note_off_c, 0, 74, 66
1, 115372, Note_on_c, 0, 76, 63
1, 115390, Note_on_c, 0, 52, 59
1, 115393, Note_off_c, 0, 76, 65
1, 115422, Note_on_c, 0, 74, 58
1, 115434, Note_off_c, 0, 52, 50
1, 115440, Note_off_c, 0, 74, 66
1, 115460, Note_on_c, 0, 76, 68
1, 115507, Note_on_c, 0, 74, 66
1, 115514, Note_on_c, 0, 64, 53
1, 115538, Note_off_c, 0, 76, 52
1, 115573, Note_off_c, 0, 64, 57
1, 115625, Note_on_c, 0, 52, 47
1, 115661, Note_off_c, 0, 52, 65
1, 115804, Note_off_c, 0, 74, 56
1, 115810, Note_on_c, 0, 45, 47
1, 115813, Note_on_c, 0, 71, 61
1, 115853, Note_off_c, 0, 45, 57
1, 115940, Control_c, 0, 64, 122
1, 115949, Note_off_c, 0, 71, 46
1, 115953, Note_on_c, 0, 33, 54
1, 115954, Control_c, 0, 64, 81
1, 115959, Note_on_c, 0, 69, 64
1, 115960, Note_on_c, 0, 72, 64
1, 115969, Control_c, 0, 64, 55
1, 115984, Control_c, 0, 64, 0
1, 116028, Control_c, 0, 64, 36
1, 116043, Control_c, 0, 64, 63
1, 116056, Note_off_c, 0, 33, 61
1, 116058, Control_c, 0, 64, 79
1, 116073, Control_c, 0, 64, 127
1, 116087, Note_off_c, 0, 72, 61
1, 116095, Note_off_c, 0, 69, 35
1, 116099, Note_on_c, 0, 45, 45
1, 116114, Note_on_c, 0, 74, 53
1, 116126, Note_off_c, 0, 45, 58
1, 116148, Note_off_c, 0, 74, 66
1, 116174, Note_on_c, 0, 72, 53
1, 116205, Note_off_c, 0, 72, 58
1, 116236, Note_on_c, 0, 74, 57
1, 116262, Note_off_c, 0, 74, 66
1, 116273, Note_on_c, 0, 52, 59
1, 116292, Note_on_c, 0, 72, 46
1, 116317, Note_off_c, 0, 72, 55
1, 116343, Note_on_c, 0, 74, 41
1, 116367, Note_off_c, 0, 74, 59
1, 116394, Note_on_c, 0, 72, 20
1, 116415, Note_on_c, 0, 74, 59
1, 116430, Note_on_c, 0, 64, 57
1, 116441, Note_off_c, 0, 72, 0
1, 116441, Note_on_c, 0, 72, 37
1, 116473, Note_off_c, 0, 64, 65
1, 116478, Note_off_c, 0, 74, 59
1, 116492, Note_off_c, 0, 52, 52
1, 116751, Note_off_c, 0, 72, 41
1, 116787, Note_on_c, 0, 69, 80
1, 116890, Note_off_c, 0, 69, 65
1, 116999, Control_c, 0, 64, 104
1, 117005, Note_on_c, 0, 49, 62
1, 117005, Note_on_c, 0, 57, 70
1, 117014, Control_c, 0, 64, 70
1, 117020, Note_on_c, 0, 67, 83
1, 117028, Control_c, 0, 64, 0
1, 117073, Control_c, 0, 64, 41
1, 117088, Control_c, 0, 64, 69
1, 117102, Control_c, 0, 64, 109
1, 117118, Control_c, 0, 64, 127
1, 117149, Note_off_c, 0, 49, 53
1, 117157, Note_off_c, 0, 57, 59
1, 117159, Note_on_c, 0, 58, 66
1, 117174, Note_off_c, 0, 67, 60
1, 117184, Note_on_c, 0, 79, 76
1, 117229, Note_off_c, 0, 58, 59
1, 117235, Note_off_c, 0, 79, 63
1, 117254, Note_on_c, 0, 57, 52
1, 117327, Note_on_c, 0, 88, 86
1, 117330, Note_on_c, 0, 58, 70
1, 117331, Note_off_c, 0, 57, 57
1, 117387, Note_off_c, 0, 88, 61
1, 117396, Note_off_c, 0, 58, 62
1, 117436, Note_on_c, 0, 57, 76
1, 117449, Note_on_c, 0, 100, 82
1, 117540, Note_off_c, 0, 100, 64
1, 117575, Note_on_c, 0, 88, 74
1, 117595, Note_off_c, 0, 88, 69
1, 117702, Note_on_c, 0, 56, 75
1, 117718, Note_on_c, 0, 79, 75
1, 117723, Note_off_c, 0, 57, 62
1, 117762, Note_off_c, 0, 56, 59
1, 117798, Note_off_c, 0, 79, 60
1, 117861, Note_on_c, 0, 50, 72
1, 117861, Note_on_c, 0, 57, 79
1, 117866, Control_c, 0, 64, 110
1, 117876, Note_on_c, 0, 65, 82
1, 117881, Control_c, 0, 64, 73
1, 117896, Control_c, 0, 64, 23
1, 117911, Control_c, 0, 64, 0
1, 117941, Control_c, 0, 64, 29
1, 117963, Control_c, 0, 64, 66
1, 117974, Note_off_c, 0, 50, 59
1, 117978, Control_c, 0, 64, 90
1, 117993, Control_c, 0, 64, 127
1, 117997, Note_off_c, 0, 65, 62
1, 118019, Note_on_c, 0, 77, 80
1, 118028, Note_on_c, 0, 58, 69
1, 118034, Note_off_c, 0, 57, 60
1, 118067, Note_off_c, 0, 77, 61
1, 118086, Note_off_c, 0, 58, 62
1, 118104, Note_on_c, 0, 57, 48
1, 118154, Note_on_c, 0, 58, 65
1, 118159, Note_on_c, 0, 86, 84
1, 118162, Note_off_c, 0, 57, 61
1, 118213, Note_off_c, 0, 86, 60
1, 118247, Note_off_c, 0, 58, 57
1, 118262, Note_on_c, 0, 57, 78
1, 118275, Note_on_c, 0, 98, 79
1, 118362, Note_off_c, 0, 98, 67
1, 118400, Note_on_c, 0, 86, 67
1, 118416, Note_off_c, 0, 86, 65
1, 118533, Note_on_c, 0, 56, 69
1, 118542, Note_on_c, 0, 77, 76
1, 118552, Note_off_c, 0, 57, 61
1, 118576, Note_off_c, 0, 56, 60
1, 118621, Note_off_c, 0, 77, 61
1, 118676, Note_on_c, 0, 57, 68
1, 118682, Note_on_c, 0, 55, 66
1, 118688, Control_c, 0, 64, 77
1, 118692, Note_on_c, 0, 64, 81
1, 118710, Control_c, 0, 64, 49
1, 118726, Control_c, 0, 64, 0
1, 118771, Control_c, 0, 64, 50
1, 118785, Control_c, 0, 64, 73
1, 118800, Control_c, 0, 64, 113
1, 118805, Note_off_c, 0, 64, 61
1, 118815, Control_c, 0, 64, 127
1, 118817, Note_off_c, 0, 55, 59
1, 118825, Note_off_c, 0, 57, 61
1, 118829, Note_on_c, 0, 58, 75
1, 118830, Note_on_c, 0, 76, 77
1, 118877, Note_off_c, 0, 76, 63
1, 118887, Note_off_c, 0, 58, 60
1, 118911, Note_on_c, 0, 57, 57
1, 118960, Note_on_c, 0, 58, 70
1, 118963, Note_on_c, 0, 85, 78
1, 118973, Note_off_c, 0, 57, 58
1, 119035, Note_off_c, 0, 85, 56
1, 119044, Note_off_c, 0, 58, 62
1, 119060, Note_on_c, 0, 57, 84
1, 119067, Note_on_c, 0, 97, 78
1, 119205, Note_on_c, 0, 85, 78
1, 119210, Note_off_c, 0, 97, 64
1, 119232, Note_off_c, 0, 85, 60
1, 119342, Note_on_c, 0, 56, 66
1, 119352, Note_on_c, 0, 76, 82
1, 119366, Note_off_c, 0, 57, 58
1, 119448, Note_off_c, 0, 76, 64
1, 119450, Note_off_c, 0, 56, 57
1, 119502, Note_on_c, 0, 57, 68
1, 119503, Note_on_c, 0, 53, 65
1, 119503, Note_on_c, 0, 62, 83
1, 119503, Control_c, 0, 64, 112
1, 119518, Control_c, 0, 64, 77
1, 119534, Control_c, 0, 64, 49
1, 119549, Control_c, 0, 64, 0
1, 119594, Control_c, 0, 64, 52
1, 119608, Control_c, 0, 64, 73
1, 119618, Note_off_c, 0, 53, 62
1, 119622, Note_off_c, 0, 62, 61
1, 119623, Control_c, 0, 64, 106
1, 119638, Control_c, 0, 64, 127
1, 119640, Note_on_c, 0, 74, 74
1, 119646, Note_off_c, 0, 57, 60
1, 119656, Note_on_c, 0, 58, 64
1, 119685, Note_off_c, 0, 74, 62
1, 119702, Note_off_c, 0, 58, 58
1, 119723, Note_on_c, 0, 57, 55
1, 119790, Note_on_c, 0, 86, 81
1, 119790, Note_off_c, 0, 57, 59
1, 119793, Note_on_c, 0, 58, 73
1, 119847, Note_off_c, 0, 86, 60
1, 119864, Note_off_c, 0, 58, 59
1, 119905, Note_on_c, 0, 57, 67
1, 119924, Note_on_c, 0, 98, 76
1, 120028, Note_off_c, 0, 98, 67
1, 120061, Note_on_c, 0, 86, 71
1, 120085, Note_off_c, 0, 86, 68
1, 120206, Note_on_c, 0, 50, 52
1, 120228, Note_on_c, 0, 74, 65
1, 120228, Note_off_c, 0, 57, 60
1, 120245, Note_off_c, 0, 50, 62
1, 120295, Note_off_c, 0, 74, 63
1, 120410, Note_on_c, 0, 47, 60
1, 120411, Note_on_c, 0, 55, 66
1, 120418, Control_c, 0, 64, 84
1, 120432, Control_c, 0, 64, 61
1, 120435, Note_on_c, 0, 65, 75
1, 120447, Control_c, 0, 64, 0
1, 120491, Control_c, 0, 64, 33
1, 120506, Control_c, 0, 64, 67
1, 120521, Control_c, 0, 64, 90
1, 120536, Control_c, 0, 64, 127
1, 120553, Note_off_c, 0, 47, 57
1, 120556, Note_off_c, 0, 65, 62
1, 120585, Note_on_c, 0, 77, 67
1, 120587, Note_off_c, 0, 55, 60
1, 120599, Note_on_c, 0, 56, 65
1, 120617, Note_off_c, 0, 77, 62
1, 120653, Note_off_c, 0, 56, 60
1, 120676, Note_on_c, 0, 55, 51
1, 120716, Note_on_c, 0, 86, 80
1, 120728, Note_on_c, 0, 56, 69
1, 120730, Note_off_c, 0, 55, 59
1, 120761, Note_off_c, 0, 86, 62
1, 120809, Note_off_c, 0, 56, 60
1, 120829, Note_on_c, 0, 55, 73
1, 120839, Note_on_c, 0, 98, 72
1, 120915, Note_off_c, 0, 98, 67
1, 120958, Note_on_c, 0, 86, 71
1, 120979, Note_off_c, 0, 86, 65
1, 121103, Note_on_c, 0, 54, 68
1, 121110, Note_off_c, 0, 55, 62
1, 121111, Note_on_c, 0, 77, 63
1, 121144, Note_off_c, 0, 54, 56
1, 121178, Note_off_c, 0, 77, 57
1, 121241, Control_c, 0, 64, 105
1, 121254, Note_on_c, 0, 55, 69
1, 121255, Control_c, 0, 64, 70
1, 121256, Note_on_c, 0, 48, 61
1, 121270, Control_c, 0, 64, 25
1, 121274, Note_on_c, 0, 64, 60
1, 121285, Control_c, 0, 64, 0
1, 121314, Control_c, 0, 64, 8
1, 121329, Control_c, 0, 64, 63
1, 121344, Control_c, 0, 64, 81
1, 121359, Control_c, 0, 64, 127
1, 121382, Note_off_c, 0, 64, 54
1, 121395, Note_off_c, 0, 48, 61
1, 121399, Note_off_c, 0, 55, 60
1, 121405, Note_on_c, 0, 56, 66
1, 121411, Note_on_c, 0, 76, 67
1, 121453, Note_off_c, 0, 76, 62
1, 121470, Note_off_c, 0, 56, 59
1, 121497, Note_on_c, 0, 55, 50
1, 121539, Note_off_c, 0, 55, 58
1, 121545, Note_on_c, 0, 56, 64
1, 121554, Note_on_c, 0, 86, 71
1, 121605, Note_off_c, 0, 86, 62
1, 121620, Note_off_c, 0, 56, 60
1, 121647, Note_on_c, 0, 55, 74
1, 121671, Note_on_c, 0, 96, 73
1, 121749, Note_off_c, 0, 96, 64
1, 121805, Note_on_c, 0, 83, 52
1, 121825, Note_off_c, 0, 83, 59
1, 121926, Note_on_c, 0, 54, 62
1, 121931, Note_on_c, 0, 76, 75
1, 121951, Note_off_c, 0, 55, 61
1, 121964, Note_off_c, 0, 54, 63
1, 121995, Note_off_c, 0, 76, 65
1, 122073, Note_on_c, 0, 53, 60
1, 122075, Note_on_c, 0, 55, 65
1, 122075, Note_on_c, 0, 62, 75
1, 122078, Control_c, 0, 64, 106
1, 122093, Control_c, 0, 64, 73
1, 122108, Control_c, 0, 64, 43
1, 122122, Control_c, 0, 64, 0
1, 122152, Control_c, 0, 64, 42
1, 122167, Control_c, 0, 64, 65
1, 122182, Control_c, 0, 64, 83
1, 122188, Note_off_c, 0, 53, 63
1, 122190, Note_off_c, 0, 62, 57
1, 122196, Control_c, 0, 64, 127
1, 122199, Note_on_c, 0, 56, 69
1, 122200, Note_off_c, 0, 55, 60
1, 122208, Note_on_c, 0, 74, 74
1, 122252, Note_off_c, 0, 74, 60
1, 122296, Note_on_c, 0, 55, 41
1, 122307, Note_off_c, 0, 56, 36
1, 122335, Note_off_c, 0, 55, 61
1, 122335, Note_on_c, 0, 56, 51
1, 122358, Note_on_c, 0, 83, 63
1, 122372, Note_on_c, 0, 84, 57
1, 122389, Note_off_c, 0, 84, 61
1, 122391, Note_off_c, 0, 83, 62
1, 122426, Note_off_c, 0, 56, 56
1, 122453, Note_on_c, 0, 55, 56
1, 122476, Note_on_c, 0, 95, 73
1, 122562, Note_off_c, 0, 95, 66
1, 122591, Note_on_c, 0, 83, 69
1, 122615, Note_off_c, 0, 83, 66
1, 122728, Note_on_c, 0, 54, 60
1, 122736, Note_off_c, 0, 55, 56
1, 122740, Note_on_c, 0, 74, 65
1, 122777, Note_off_c, 0, 54, 52
1, 122815, Note_off_c, 0, 74, 64
1, 122904, Note_on_c, 0, 60, 68
1, 122904, Note_on_c, 0, 55, 53
1, 122905, Note_on_c, 0, 52, 60
1, 122915, Control_c, 0, 64, 112
1, 122930, Control_c, 0, 64, 80
1, 122944, Control_c, 0, 64, 60
1, 122960, Control_c, 0, 64, 0
1, 123005, Control_c, 0, 64, 33
1, 123019, Control_c, 0, 64, 64
1, 123029, Note_off_c, 0, 52, 64
1, 123031, Note_off_c, 0, 60, 61
1, 123034, Control_c, 0, 64, 84
1, 123042, Note_off_c, 0, 55, 54
1, 123049, Control_c, 0, 64, 127
1, 123058, Note_on_c, 0, 72, 64
1, 123063, Note_on_c, 0, 56, 53
1, 123086, Note_off_c, 0, 72, 68
1, 123100, Note_off_c, 0, 56, 61
1, 123117, Note_on_c, 0, 55, 47
1, 123175, Note_off_c, 0, 55, 58
1, 123183, Note_on_c, 0, 56, 61
1, 123214, Note_on_c, 0, 84, 62
1, 123254, Note_off_c, 0, 84, 59
1, 123273, Note_off_c, 0, 56, 58
1, 123302, Note_on_c, 0, 55, 52
1, 123361, Note_on_c, 0, 96, 48
1, 123371, Note_on_c, 0, 95, 58
1, 123436, Note_off_c, 0, 96, 62
1, 123444, Note_off_c, 0, 95, 63
1, 123467, Note_on_c, 0, 84, 65
1, 123492, Note_off_c, 0, 84, 68
1, 123613, Note_on_c, 0, 48, 54
1, 123624, Note_on_c, 0, 72, 67
1, 123668, Note_off_c, 0, 55, 38
1, 123767, Note_off_c, 0, 72, 50
1, 123808, Note_off_c, 0, 48, 59
1, 123826, Note_on_c, 0, 54, 51
1, 123828, Note_on_c, 0, 60, 66
1, 123829, Note_on_c, 0, 51, 53
1, 123842, Control_c, 0, 64, 86
1, 123857, Control_c, 0, 64, 64
1, 123872, Control_c, 0, 64, 0
1, 123916, Control_c, 0, 64, 29
1, 123931, Control_c, 0, 64, 65
1, 123954, Control_c, 0, 64, 85
1, 123958, Note_off_c, 0, 51, 58
1, 123964, Note_off_c, 0, 60, 61
1, 123968, Control_c, 0, 64, 127
1, 123982, Note_off_c, 0, 54, 60
1, 123985, Note_on_c, 0, 72, 66
1, 123994, Note_on_c, 0, 56, 55
1, 124026, Note_off_c, 0, 72, 60
1, 124041, Note_off_c, 0, 56, 58
1, 124055, Note_on_c, 0, 54, 55
1, 124106, Note_off_c, 0, 54, 57
1, 124132, Note_on_c, 0, 81, 64
1, 124133, Note_on_c, 0, 56, 60
1, 124164, Note_off_c, 0, 81, 63
1, 124195, Note_off_c, 0, 56, 58
1, 124213, Note_on_c, 0, 54, 61
1, 124246, Note_on_c, 0, 93, 74
1, 124338, Note_off_c, 0, 54, 60
1, 124350, Note_off_c, 0, 93, 61
1, 124376, Note_on_c, 0, 81, 64
1, 124400, Note_off_c, 0, 81, 64
1, 124493, Note_on_c, 0, 52, 49
1, 124515, Note_on_c, 0, 72, 70
1, 124559, Note_off_c, 0, 52, 53
1, 124577, Note_off_c, 0, 72, 64
1, 124676, Note_on_c, 0, 50, 55
1, 124692, Note_on_c, 0, 58, 67
1, 124693, Note_on_c, 0, 53, 53
1, 124702, Control_c, 0, 64, 97
1, 124717, Control_c, 0, 64, 71
1, 124732, Control_c, 0, 64, 40
1, 124747, Control_c, 0, 64, 0
1, 124791, Control_c, 0, 64, 58
1, 124801, Note_off_c, 0, 50, 60
1, 124806, Control_c, 0, 64, 78
1, 124810, Note_off_c, 0, 58, 63
1, 124814, Note_off_c, 0, 53, 59
1, 124821, Control_c, 0, 64, 127
1, 124833, Note_on_c, 0, 70, 77
1, 124842, Note_on_c, 0, 55, 59
1, 124865, Note_off_c, 0, 70, 63
1, 124884, Note_off_c, 0, 55, 61
1, 124902, Note_on_c, 0, 53, 56
1, 124950, Note_off_c, 0, 53, 60
1, 124974, Note_on_c, 0, 82, 76
1, 124988, Note_on_c, 0, 55, 60
1, 125028, Note_off_c, 0, 82, 61
1, 125054, Note_off_c, 0, 55, 49
1, 125069, Note_on_c, 0, 53, 59
1, 125095, Note_on_c, 0, 94, 71
1, 125212, Note_off_c, 0, 94, 66
1, 125220, Note_off_c, 0, 53, 56
1, 125222, Note_on_c, 0, 82, 74
1, 125243, Note_off_c, 0, 82, 69
1, 125371, Note_on_c, 0, 46, 57
1, 125381, Note_on_c, 0, 70, 69
1, 125491, Note_off_c, 0, 46, 61
1, 125565, Note_on_c, 0, 50, 51
1, 125575, Note_on_c, 0, 53, 48
1, 125575, Note_on_c, 0, 59, 67
1, 125584, Control_c, 0, 64, 87
1, 125598, Note_off_c, 0, 70, 38
1, 125599, Control_c, 0, 64, 64
1, 125614, Control_c, 0, 64, 0
1, 125659, Control_c, 0, 64, 34
1, 125673, Control_c, 0, 64, 64
1, 125686, Note_off_c, 0, 50, 56
1, 125688, Control_c, 0, 64, 84
1, 125703, Control_c, 0, 64, 127
1, 125707, Note_off_c, 0, 53, 61
1, 125709, Note_off_c, 0, 59, 56
1, 125730, Note_on_c, 0, 71, 63
1, 125739, Note_on_c, 0, 55, 51
1, 125764, Note_off_c, 0, 71, 61
1, 125779, Note_off_c, 0, 55, 60
1, 125816, Note_on_c, 0, 53, 48
1, 125853, Note_off_c, 0, 53, 65
1, 125870, Note_on_c, 0, 55, 62
1, 125878, Note_on_c, 0, 80, 69
1, 125911, Note_off_c, 0, 80, 61
1, 125961, Note_on_c, 0, 53, 55
1, 125964, Note_off_c, 0, 55, 51
1, 126002, Note_on_c, 0, 92, 68
1, 126122, Note_off_c, 0, 92, 62
1, 126129, Note_on_c, 0, 80, 71
1, 126154, Note_off_c, 0, 80, 68
1, 126288, Note_on_c, 0, 51, 46
1, 126293, Note_on_c, 0, 71, 60
1, 126320, Note_off_c, 0, 53, 37
1, 126330, Note_off_c, 0, 51, 57
1, 126355, Note_off_c, 0, 71, 60
1, 126450, Note_on_c, 0, 57, 65
1, 126452, Control_c, 0, 64, 107
1, 126455, Note_on_c, 0, 48, 53
1, 126467, Control_c, 0, 64, 77
1, 126472, Note_on_c, 0, 52, 48
1, 126482, Control_c, 0, 64, 55
1, 126496, Control_c, 0, 64, 0
1, 126526, Control_c, 0, 64, 21
1, 126541, Control_c, 0, 64, 60
1, 126556, Control_c, 0, 64, 76
1, 126562, Note_off_c, 0, 48, 60
1, 126570, Control_c, 0, 64, 127
1, 126577, Note_off_c, 0, 57, 60
1, 126582, Note_off_c, 0, 52, 58
1, 126603, Note_on_c, 0, 69, 63
1, 126615, Note_on_c, 0, 53, 45
1, 126636, Note_off_c, 0, 69, 67
1, 126648, Note_off_c, 0, 53, 61
1, 126686, Note_on_c, 0, 52, 44
1, 126729, Note_off_c, 0, 52, 63
1, 126748, Note_on_c, 0, 53, 51
1, 126757, Note_on_c, 0, 81, 67
1, 126792, Note_off_c, 0, 81, 57
1, 126869, Note_on_c, 0, 52, 53
1, 126882, Note_on_c, 0, 93, 68
1, 126894, Note_off_c, 0, 53, 32
1, 126973, Note_off_c, 0, 93, 61
1, 127007, Note_on_c, 0, 81, 65
1, 127031, Note_off_c, 0, 81, 63
1, 127159, Note_on_c, 0, 45, 51
1, 127162, Note_on_c, 0, 69, 64
1, 127176, Note_off_c, 0, 52, 64
1, 127192, Note_off_c, 0, 45, 65
1, 127274, Note_off_c, 0, 69, 54
1, 127329, Note_on_c, 0, 50, 53
1, 127334, Note_on_c, 0, 41, 54
1, 127334, Control_c, 0, 64, 98
1, 127349, Control_c, 0, 64, 73
1, 127349, Note_on_c, 0, 57, 63
1, 127364, Control_c, 0, 64, 44
1, 127379, Control_c, 0, 64, 0
1, 127423, Control_c, 0, 64, 47
1, 127437, Control_c, 0, 64, 68
1, 127445, Note_off_c, 0, 41, 57
1, 127452, Control_c, 0, 64, 91
1, 127467, Control_c, 0, 64, 127
1, 127468, Note_off_c, 0, 57, 59
1, 127471, Note_off_c, 0, 50, 56
1, 127493, Note_on_c, 0, 69, 61
1, 127495, Note_on_c, 0, 52, 55
1, 127535, Note_off_c, 0, 52, 63
1, 127538, Note_off_c, 0, 69, 60
1, 127571, Note_on_c, 0, 50, 48
1, 127614, Note_off_c, 0, 50, 60
1, 127633, Note_on_c, 0, 52, 57
1, 127739, Note_off_c, 0, 52, 59
1, 127745, Note_on_c, 0, 50, 58
1, 127768, Note_on_c, 0, 84, 68
1, 127832, Note_off_c, 0, 84, 61
1, 127892, Note_on_c, 0, 71, 56
1, 127918, Note_off_c, 0, 71, 62
1, 128025, Note_on_c, 0, 47, 60
1, 128039, Note_off_c, 0, 50, 60
1, 128052, Note_on_c, 0, 71, 29
1, 128056, Note_on_c, 0, 69, 42
1, 128100, Note_off_c, 0, 71, 59
1, 128109, Note_off_c, 0, 47, 57
1, 128112, Note_off_c, 0, 69, 54
1, 128175, Note_on_c, 0, 50, 58
1, 128179, Note_on_c, 0, 56, 65
1, 128182, Note_on_c, 0, 40, 54
1, 128186, Control_c, 0, 64, 86
1, 128201, Control_c, 0, 64, 63
1, 128216, Control_c, 0, 64, 0
1, 128246, Control_c, 0, 64, 10
1, 128260, Control_c, 0, 64, 58
1, 128268, Note_off_c, 0, 40, 58
1, 128275, Control_c, 0, 64, 75
1, 128290, Control_c, 0, 64, 116
1, 128306, Control_c, 0, 64, 127
1, 128313, Note_off_c, 0, 56, 62
1, 128315, Note_off_c, 0, 50, 58
1, 128325, Note_on_c, 0, 68, 65
1, 128331, Note_on_c, 0, 52, 58
1, 128374, Note_off_c, 0, 68, 62
1, 128379, Note_off_c, 0, 52, 62
1, 128423, Note_on_c, 0, 50, 41
1, 128464, Note_off_c, 0, 50, 57
1, 128480, Note_on_c, 0, 52, 59
1, 128481, Note_on_c, 0, 71, 67
1, 128559, Note_off_c, 0, 71, 57
1, 128597, Note_off_c, 0, 52, 61
1, 128607, Note_on_c, 0, 50, 55
1, 128608, Note_on_c, 0, 83, 68
1, 128695, Note_off_c, 0, 83, 60
1, 128741, Note_on_c, 0, 71, 55
1, 128762, Note_off_c, 0, 71, 58
1, 128890, Note_on_c, 0, 68, 66
1, 128896, Note_on_c, 0, 47, 54
1, 128913, Note_off_c, 0, 50, 57
1, 129056, Note_off_c, 0, 68, 36
1, 129079, Note_on_c, 0, 56, 64
1, 129084, Note_off_c, 0, 47, 30
1, 129085, Note_on_c, 0, 45, 53
1, 129086, Note_on_c, 0, 50, 52
1, 129096, Control_c, 0, 64, 93
1, 129112, Control_c, 0, 64, 70
1, 129127, Control_c, 0, 64, 41
1, 129142, Control_c, 0, 64, 0
1, 129194, Control_c, 0, 64, 52
1, 129209, Control_c, 0, 64, 71
1, 129218, Note_off_c, 0, 56, 61
1, 129224, Control_c, 0, 64, 101
1, 129228, Note_off_c, 0, 45, 59
1, 129238, Control_c, 0, 64, 127
1, 129241, Note_off_c, 0, 50, 54
1, 129257, Note_on_c, 0, 68, 67
1, 129272, Note_on_c, 0, 52, 54
1, 129314, Note_off_c, 0, 68, 62
1, 129317, Note_off_c, 0, 52, 61
1, 129351, Note_on_c, 0, 50, 44
1, 129391, Note_off_c, 0, 50, 59
1, 129411, Note_on_c, 0, 52, 59
1, 129419, Note_on_c, 0, 71, 64
1, 129488, Note_off_c, 0, 71, 59
1, 129507, Note_off_c, 0, 52, 64
1, 129528, Note_on_c, 0, 50, 46
1, 129546, Note_on_c, 0, 83, 64
1, 129653, Note_off_c, 0, 83, 61
1, 129689, Note_on_c, 0, 71, 54
1, 129720, Note_off_c, 0, 71, 61
1, 129844, Note_on_c, 0, 47, 53
1, 129862, Note_on_c, 0, 68, 60
1, 129875, Note_off_c, 0, 50, 34
1, 130027, Note_off_c, 0, 68, 36
1, 130047, Note_off_c, 0, 47, 38
1, 130062, Control_c, 0, 64, 101
1, 130068, Note_on_c, 0, 57, 61
1, 130074, Note_on_c, 0, 45, 42
1, 130077, Control_c, 0, 64, 80
1, 130079, Note_on_c, 0, 48, 48
1, 130091, Control_c, 0, 64, 63
1, 130106, Control_c, 0, 64, 0
1, 130181, Control_c, 0, 64, 56
1, 130194, Note_off_c, 0, 48, 64
1, 130196, Control_c, 0, 64, 75
1, 130210, Control_c, 0, 64, 112
1, 130225, Control_c, 0, 64, 127
1, 130232, Note_off_c, 0, 45, 58
1, 130258, Note_off_c, 0, 57, 60
1, 130267, Note_on_c, 0, 69, 66
1, 130324, Note_off_c, 0, 69, 64
1, 130530, Note_on_c, 0, 81, 63
1, 130879, Note_on_c, 0, 93, 60
1, 130882, Note_on_c, 0, 33, 41
1, 130935, Note_off_c, 0, 81, 48
1, 131006, Note_off_c, 0, 93, 60
1, 131063, Note_off_c, 0, 33, 41
1, 131388, Control_c, 0, 64, 118
1, 131403, Control_c, 0, 64, 112
1, 131418, Control_c, 0, 64, 109
1, 131440, Control_c, 0, 64, 107
1, 131455, Control_c, 0, 64, 104
1, 131470, Control_c, 0, 64, 102
1, 131484, Control_c, 0, 64, 100
1, 131499, Control_c, 0, 64, 98
1, 131515, Control_c, 0, 64, 97
1, 131530, Control_c, 0, 64, 96
1, 131545, Control_c, 0, 64, 95
1, 131560, Control_c, 0, 64, 93
1, 131575, Control_c, 0, 64, 92
1, 131589, Control_c, 0, 64, 91
1, 131604, Control_c, 0, 64, 91
1, 131619, Control_c, 0, 64, 90
1, 131633, Control_c, 0, 64, 88
1, 131648, Control_c, 0, 64, 85
1, 131663, Control_c, 0, 64, 83
1, 131678, Control_c, 0, 64, 82
1, 131693, Control_c, 0, 64, 81
1, 131707, Control_c, 0, 64, 78
1, 131722, Control_c, 0, 64, 74
1, 131737, Control_c, 0, 64, 70
1, 131752, Control_c, 0, 64, 65
1, 131767, Control_c, 0, 64, 63
1, 131782, Control_c, 0, 64, 62
1, 131796, Control_c, 0, 64, 59
1, 131811, Control_c, 0, 64, 56
1, 131826, Control_c, 0, 64, 52
1, 131841, Control_c, 0, 64, 45
1, 131856, Control_c, 0, 64, 32
1, 131871, Control_c, 0, 64, 0
1, 132714, Note_on_c, 0, 52, 50
1, 132955, Note_on_c, 0, 33, 31
1, 132982, Control_c, 0, 64, 28
1, 132988, Note_off_c, 0, 52, 57
1, 132997, Note_on_c, 0, 57, 52
1, 132997, Control_c, 0, 64, 51
1, 133003, Note_off_c, 0, 33, 63
1, 133012, Control_c, 0, 64, 62
1, 133021, Note_on_c, 0, 48, 34
1, 133027, Control_c, 0, 64, 69
1, 133042, Control_c, 0, 64, 79
1, 133053, Note_off_c, 0, 48, 53
1, 133056, Control_c, 0, 64, 99
1, 133071, Control_c, 0, 64, 127
1, 133090, Note_off_c, 0, 57, 63
1, 133310, Note_on_c, 0, 76, 49
1, 133367, Note_off_c, 0, 76, 54
1, 133385, Note_on_c, 0, 59, 55
1, 133387, Note_on_c, 0, 56, 48
1, 133463, Note_on_c, 0, 64, 46
1, 133477, Note_off_c, 0, 56, 56
1, 133516, Note_off_c, 0, 64, 61
1, 133591, Control_c, 0, 64, 117
1, 133605, Control_c, 0, 64, 82
1, 133620, Control_c, 0, 64, 63
1, 133635, Control_c, 0, 64, 20
1, 133636, Note_on_c, 0, 60, 68
1, 133642, Note_on_c, 0, 65, 57
1, 133650, Control_c, 0, 64, 19
1, 133654, Note_on_c, 0, 57, 43
1, 133665, Control_c, 0, 64, 55
1, 133678, Note_off_c, 0, 59, 57
1, 133686, Control_c, 0, 64, 71
1, 133701, Control_c, 0, 64, 98
1, 133716, Note_off_c, 0, 57, 61
1, 133716, Control_c, 0, 64, 127
1, 133721, Note_off_c, 0, 65, 49
1, 133757, Note_off_c, 0, 60, 58
1, 133821, Note_on_c, 0, 53, 48
1, 133866, Note_off_c, 0, 53, 66
1, 133904, Note_on_c, 0, 64, 71
1, 133907, Note_on_c, 0, 60, 66
1, 133925, Control_c, 0, 64, 104
1, 133940, Control_c, 0, 64, 78
1, 133955, Control_c, 0, 64, 57
1, 133970, Control_c, 0, 64, 0
1, 134008, Note_on_c, 0, 54, 51
1, 134028, Control_c, 0, 64, 53
1, 134043, Control_c, 0, 64, 73
1, 134058, Control_c, 0, 64, 107
1, 134059, Note_off_c, 0, 64, 62
1, 134073, Control_c, 0, 64, 127
1, 134125, Note_off_c, 0, 54, 59
1, 134180, Note_on_c, 0, 42, 54
1, 134187, Note_on_c, 0, 72, 71
1, 134194, Note_on_c, 0, 64, 66
1, 134209, Note_off_c, 0, 60, 60
1, 134226, Note_off_c, 0, 64, 66
1, 134232, Note_off_c, 0, 42, 58
1, 134242, Note_off_c, 0, 72, 64
1, 134374, Note_on_c, 0, 43, 51
1, 134478, Note_on_c, 0, 64, 71
1, 134486, Note_on_c, 0, 60, 65
1, 134509, Control_c, 0, 64, 102
1, 134524, Control_c, 0, 64, 71
1, 134539, Control_c, 0, 64, 38
1, 134554, Control_c, 0, 64, 0
1, 134565, Note_on_c, 0, 31, 33
1, 134585, Note_off_c, 0, 43, 58
1, 134599, Control_c, 0, 64, 41
1, 134603, Note_off_c, 0, 31, 54
1, 134613, Control_c, 0, 64, 69
1, 134628, Control_c, 0, 64, 89
1, 134643, Control_c, 0, 64, 127
1, 134760, Note_on_c, 0, 44, 46
1, 134777, Note_on_c, 0, 62, 65
1, 134778, Note_on_c, 0, 59, 55
1, 134792, Note_off_c, 0, 60, 52
1, 134822, Control_c, 0, 64, 88
1, 134822, Note_off_c, 0, 64, 59
1, 134837, Control_c, 0, 64, 66
1, 134851, Control_c, 0, 64, 8
1, 134866, Control_c, 0, 64, 0
1, 134940, Control_c, 0, 64, 53
1, 134955, Control_c, 0, 64, 70
1, 134959, Note_on_c, 0, 32, 37
1, 134969, Control_c, 0, 64, 87
1, 134984, Control_c, 0, 64, 127
1, 135040, Note_off_c, 0, 59, 61
1, 135045, Note_on_c, 0, 60, 70
1, 135052, Note_off_c, 0, 62, 60
1, 135054, Note_on_c, 0, 57, 52
1, 135055, Note_off_c, 0, 44, 60
1, 135061, Note_off_c, 0, 32, 51
1, 135138, Note_off_c, 0, 60, 59
1, 135178, Note_on_c, 0, 33, 25
1, 135178, Note_on_c, 0, 45, 32
1, 135213, Note_off_c, 0, 45, 44
1, 135220, Note_off_c, 0, 33, 55
1, 135347, Control_c, 0, 64, 111
1, 135362, Control_c, 0, 64, 78
1, 135371, Note_on_c, 0, 47, 52
1, 135377, Control_c, 0, 64, 45
1, 135383, Note_on_c, 0, 35, 38
1, 135384, Note_off_c, 0, 57, 53
1, 135388, Note_on_c, 0, 59, 57
1, 135391, Control_c, 0, 64, 0
1, 135402, Note_on_c, 0, 55, 50
1, 135430, Note_off_c, 0, 35, 61
1, 135436, Control_c, 0, 64, 47
1, 135451, Control_c, 0, 64, 72
1, 135452, Note_off_c, 0, 47, 63
1, 135458, Note_off_c, 0, 55, 56
1, 135466, Control_c, 0, 64, 127
1, 135532, Note_off_c, 0, 59, 62
1, 135753, Note_on_c, 0, 83, 47
1, 135795, Note_off_c, 0, 83, 46
1, 135811, Note_on_c, 0, 63, 72
1, 135827, Note_on_c, 0, 54, 49
1, 135895, Note_off_c, 0, 54, 54
1, 135905, Note_on_c, 0, 71, 57
1, 135949, Note_off_c, 0, 71, 61
1, 135984, Note_off_c, 0, 63, 48
1, 136037, Control_c, 0, 64, 93
1, 136052, Control_c, 0, 64, 65
1, 136067, Control_c, 0, 64, 0
1, 136069, Note_on_c, 0, 72, 64
1, 136074, Note_on_c, 0, 64, 69
1, 136088, Note_on_c, 0, 55, 60
1, 136096, Control_c, 0, 64, 25
1, 136111, Control_c, 0, 64, 60
1, 136126, Note_off_c, 0, 55, 63
1, 136126, Control_c, 0, 64, 78
1, 136141, Control_c, 0, 64, 127
1, 136149, Note_off_c, 0, 72, 54
1, 136188, Note_off_c, 0, 64, 63
1, 136239, Note_on_c, 0, 60, 61
1, 136275, Note_off_c, 0, 60, 61
1, 136324, Note_on_c, 0, 64, 68
1, 136334, Control_c, 0, 64, 102
1, 136336, Note_on_c, 0, 67, 70
1, 136342, Note_on_c, 0, 69, 54
1, 136349, Control_c, 0, 64, 73
1, 136364, Control_c, 0, 64, 45
1, 136378, Control_c, 0, 64, 0
1, 136420, Note_on_c, 0, 61, 63
1, 136423, Control_c, 0, 64, 55
1, 136438, Control_c, 0, 64, 75
1, 136453, Control_c, 0, 64, 127
1, 136454, Note_off_c, 0, 69, 46
1, 136484, Note_off_c, 0, 67, 59
1, 136525, Note_off_c, 0, 61, 61
1, 136577, Note_on_c, 0, 49, 59
1, 136609, Note_on_c, 0, 67, 73
1, 136609, Note_on_c, 0, 76, 70
1, 136620, Note_off_c, 0, 49, 56
1, 136626, Note_off_c, 0, 64, 62
1, 136649, Note_off_c, 0, 67, 63
1, 136663, Note_off_c, 0, 76, 65
1, 136777, Note_on_c, 0, 50, 54
1, 136889, Note_on_c, 0, 71, 74
1, 136892, Note_on_c, 0, 67, 71
1, 136905, Control_c, 0, 64, 81
1, 136920, Control_c, 0, 64, 60
1, 136935, Control_c, 0, 64, 0
1, 136947, Note_on_c, 0, 38, 53
1, 136994, Control_c, 0, 64, 41
1, 136995, Note_off_c, 0, 50, 61
1, 137004, Note_off_c, 0, 38, 62
1, 137009, Control_c, 0, 64, 70
1, 137023, Control_c, 0, 64, 91
1, 137038, Control_c, 0, 64, 127
1, 137137, Note_off_c, 0, 67, 61
1, 137153, Note_on_c, 0, 69, 73
1, 137156, Note_on_c, 0, 51, 50
1, 137161, Note_on_c, 0, 66, 65
1, 137168, Note_off_c, 0, 71, 52
1, 137173, Control_c, 0, 64, 118
1, 137187, Control_c, 0, 64, 76
1, 137201, Control_c, 0, 64, 48
1, 137216, Control_c, 0, 64, 0
1, 137275, Control_c, 0, 64, 25
1, 137290, Control_c, 0, 64, 64
1, 137305, Control_c, 0, 64, 78
1, 137320, Control_c, 0, 64, 113
1, 137325, Note_off_c, 0, 66, 61
1, 137329, Note_off_c, 0, 69, 66
1, 137335, Control_c, 0, 64, 127
1, 137349, Note_on_c, 0, 39, 37
1, 137387, Note_off_c, 0, 51, 59
1, 137389, Note_off_c, 0, 39, 59
1, 137454, Note_on_c, 0, 68, 69
1, 137463, Note_on_c, 0, 64, 56
1, 137492, Note_off_c, 0, 64, 63
1, 137542, Note_on_c, 0, 40, 55
1, 137572, Note_off_c, 0, 40, 62
1, 137771, Control_c, 0, 64, 119
1, 137785, Note_on_c, 0, 45, 49
1, 137786, Control_c, 0, 64, 82
1, 137791, Note_on_c, 0, 33, 48
1, 137798, Note_off_c, 0, 68, 58
1, 137801, Control_c, 0, 64, 60
1, 137811, Note_on_c, 0, 69, 62
1, 137816, Control_c, 0, 64, 0
1, 137824, Note_on_c, 0, 60, 52
1, 137859, Note_off_c, 0, 33, 64
1, 137875, Control_c, 0, 64, 55
1, 137883, Note_off_c, 0, 45, 64
1, 137891, Control_c, 0, 64, 78
1, 137901, Note_off_c, 0, 60, 45
1, 137906, Control_c, 0, 64, 127
1, 137966, Note_off_c, 0, 69, 65
1, 138190, Note_on_c, 0, 88, 58
1, 138232, Note_off_c, 0, 88, 55
1, 138271, Note_on_c, 0, 71, 65
1, 138273, Note_on_c, 0, 68, 63
1, 138331, Note_on_c, 0, 76, 64
1, 138388, Note_off_c, 0, 76, 64
1, 138401, Note_off_c, 0, 68, 37
1, 138491, Control_c, 0, 64, 92
1, 138506, Control_c, 0, 64, 65
1, 138507, Note_on_c, 0, 77, 63
1, 138507, Note_on_c, 0, 72, 66
1, 138515, Note_on_c, 0, 69, 69
1, 138520, Control_c, 0, 64, 0
1, 138550, Control_c, 0, 64, 25
1, 138557, Note_off_c, 0, 71, 59
1, 138565, Control_c, 0, 64, 61
1, 138580, Control_c, 0, 64, 79
1, 138583, Note_off_c, 0, 69, 66
1, 138593, Note_off_c, 0, 77, 59
1, 138594, Control_c, 0, 64, 127
1, 138629, Note_off_c, 0, 72, 64
1, 138670, Note_on_c, 0, 65, 74
1, 138710, Note_off_c, 0, 65, 65
1, 138768, Note_on_c, 0, 76, 79
1, 138769, Note_on_c, 0, 72, 75
1, 138773, Control_c, 0, 64, 124
1, 138788, Control_c, 0, 64, 81
1, 138803, Control_c, 0, 64, 56
1, 138817, Control_c, 0, 64, 0
1, 138862, Control_c, 0, 64, 13
1, 138866, Note_on_c, 0, 66, 64
1, 138877, Control_c, 0, 64, 65
1, 138891, Control_c, 0, 64, 98
1, 138906, Control_c, 0, 64, 127
1, 138945, Note_off_c, 0, 76, 62
1, 138992, Note_off_c, 0, 66, 63
1, 139031, Note_on_c, 0, 54, 59
1, 139055, Note_on_c, 0, 84, 80
1, 139061, Note_on_c, 0, 76, 72
1, 139075, Note_off_c, 0, 54, 57
1, 139078, Note_off_c, 0, 72, 63
1, 139093, Note_off_c, 0, 76, 64
1, 139118, Note_off_c, 0, 84, 61
1, 139211, Note_on_c, 0, 55, 60
1, 139309, Note_on_c, 0, 76, 80
1, 139316, Note_on_c, 0, 72, 72
1, 139343, Control_c, 0, 64, 82
1, 139358, Control_c, 0, 64, 58
1, 139372, Note_on_c, 0, 43, 60
1, 139373, Control_c, 0, 64, 0
1, 139416, Note_off_c, 0, 55, 59
1, 139426, Note_off_c, 0, 43, 59
1, 139433, Control_c, 0, 64, 60
1, 139448, Control_c, 0, 64, 80
1, 139463, Control_c, 0, 64, 127
1, 139579, Note_on_c, 0, 56, 51
1, 139585, Note_on_c, 0, 71, 60
1, 139588, Note_on_c, 0, 74, 64
1, 139607, Note_off_c, 0, 72, 57
1, 139612, Control_c, 0, 64, 124
1, 139623, Note_off_c, 0, 76, 62
1, 139627, Control_c, 0, 64, 86
1, 139641, Control_c, 0, 64, 66
1, 139656, Control_c, 0, 64, 14
1, 139678, Control_c, 0, 64, 0
1, 139767, Control_c, 0, 64, 41
1, 139770, Note_on_c, 0, 44, 43
1, 139782, Control_c, 0, 64, 66
1, 139797, Control_c, 0, 64, 78
1, 139812, Control_c, 0, 64, 96
1, 139827, Control_c, 0, 64, 110
1, 139841, Control_c, 0, 64, 121
1, 139856, Control_c, 0, 64, 127
1, 139865, Note_off_c, 0, 44, 60
1, 139867, Note_off_c, 0, 56, 60
1, 139872, Note_off_c, 0, 71, 58
1, 139883, Note_on_c, 0, 69, 58
1, 139884, Note_on_c, 0, 72, 65
1, 139890, Note_off_c, 0, 74, 60
1, 139976, Note_on_c, 0, 45, 49
1, 139988, Note_on_c, 0, 57, 39
1, 139989, Note_off_c, 0, 72, 64
1, 140003, Note_off_c, 0, 45, 58
1, 140020, Note_off_c, 0, 57, 50
1, 140197, Control_c, 0, 64, 92
1, 140206, Note_on_c, 0, 47, 47
1, 140212, Control_c, 0, 64, 67
1, 140226, Control_c, 0, 64, 0
1, 140227, Note_on_c, 0, 59, 39
1, 140230, Note_off_c, 0, 69, 59
1, 140233, Note_on_c, 0, 71, 58
1, 140243, Note_on_c, 0, 67, 49
1, 140271, Control_c, 0, 64, 18
1, 140274, Note_off_c, 0, 47, 62
1, 140286, Control_c, 0, 64, 65
1, 140292, Note_off_c, 0, 59, 63
1, 140301, Control_c, 0, 64, 94
1, 140306, Note_off_c, 0, 67, 53
1, 140316, Control_c, 0, 64, 127
1, 140402, Note_off_c, 0, 71, 60
1, 140599, Note_on_c, 0, 95, 64
1, 140650, Note_off_c, 0, 95, 58
1, 140682, Note_on_c, 0, 75, 63
1, 140694, Note_on_c, 0, 66, 50
1, 140759, Note_off_c, 0, 66, 60
1, 140772, Note_on_c, 0, 83, 54
1, 140809, Note_off_c, 0, 83, 63
1, 140841, Note_off_c, 0, 75, 51
1, 140901, Control_c, 0, 64, 88
1, 140915, Control_c, 0, 64, 63
1, 140925, Note_on_c, 0, 84, 65
1, 140926, Note_on_c, 0, 76, 71
1, 140930, Control_c, 0, 64, 28
1, 140939, Note_on_c, 0, 67, 63
1, 140945, Control_c, 0, 64, 31
1, 140960, Control_c, 0, 64, 59
1, 140975, Control_c, 0, 64, 73
1, 140984, Note_off_c, 0, 67, 63
1, 140989, Control_c, 0, 64, 111
1, 141004, Control_c, 0, 64, 127
1, 141019, Note_off_c, 0, 84, 62
1, 141038, Note_off_c, 0, 76, 65
1, 141092, Note_on_c, 0, 72, 72
1, 141134, Note_off_c, 0, 72, 63
1, 141192, Note_on_c, 0, 79, 78
1, 141192, Note_on_c, 0, 76, 71
1, 141219, Control_c, 0, 64, 101
1, 141234, Control_c, 0, 64, 75
1, 141249, Control_c, 0, 64, 53
1, 141264, Control_c, 0, 64, 0
1, 141294, Note_on_c, 0, 73, 70
1, 141309, Control_c, 0, 64, 60
1, 141323, Control_c, 0, 64, 80
1, 141338, Control_c, 0, 64, 127
1, 141350, Note_off_c, 0, 79, 62
1, 141409, Note_off_c, 0, 73, 63
1, 141455, Note_on_c, 0, 61, 54
1, 141466, Note_on_c, 0, 88, 85
1, 141471, Note_on_c, 0, 79, 75
1, 141490, Note_off_c, 0, 76, 64
1, 141499, Note_off_c, 0, 61, 57
1, 141514, Note_off_c, 0, 79, 62
1, 141532, Note_off_c, 0, 88, 62
1, 141644, Note_on_c, 0, 62, 62
1, 141765, Note_on_c, 0, 83, 79
1, 141767, Control_c, 0, 64, 84
1, 141772, Note_on_c, 0, 79, 71
1, 141782, Control_c, 0, 64, 62
1, 141797, Control_c, 0, 64, 0
1, 141808, Note_on_c, 0, 50, 54
1, 141841, Control_c, 0, 64, 35
1, 141854, Note_off_c, 0, 62, 59
1, 141856, Control_c, 0, 64, 68
1, 141869, Note_off_c, 0, 50, 60
1, 141871, Control_c, 0, 64, 90
1, 141887, Control_c, 0, 64, 127
1, 142018, Note_off_c, 0, 79, 61
1, 142025, Note_on_c, 0, 63, 58
1, 142034, Note_on_c, 0, 78, 68
1, 142034, Note_on_c, 0, 81, 78
1, 142042, Control_c, 0, 64, 98
1, 142057, Control_c, 0, 64, 65
1, 142070, Note_off_c, 0, 83, 57
1, 142072, Control_c, 0, 64, 0
1, 142131, Control_c, 0, 64, 47
1, 142146, Control_c, 0, 64, 73
1, 142160, Control_c, 0, 64, 107
1, 142175, Control_c, 0, 64, 127
1, 142206, Note_off_c, 0, 78, 58
1, 142208, Note_off_c, 0, 81, 61
1, 142227, Note_on_c, 0, 51, 44
1, 142271, Note_off_c, 0, 63, 59
1, 142278, Note_off_c, 0, 51, 57
1, 142314, Note_on_c, 0, 80, 77
1, 142324, Note_on_c, 0, 76, 68
1, 142373, Note_off_c, 0, 76, 62
1, 142413, Note_on_c, 0, 52, 55
1, 142451, Note_off_c, 0, 52, 65
1, 142676, Note_on_c, 0, 57, 48
1, 142687, Note_on_c, 0, 45, 47
1, 142688, Control_c, 0, 64, 98
1, 142703, Control_c, 0, 64, 72
1, 142718, Note_off_c, 0, 80, 61
1, 142718, Control_c, 0, 64, 22
1, 142724, Note_on_c, 0, 73, 60
1, 142727, Note_on_c, 0, 81, 66
1, 142733, Control_c, 0, 64, 0
1, 142733, Note_on_c, 0, 69, 58
1, 142772, Note_off_c, 0, 45, 64
1, 142777, Control_c, 0, 64, 29
1, 142791, Control_c, 0, 64, 65
1, 142804, Note_off_c, 0, 57, 63
1, 142806, Control_c, 0, 64, 93
1, 142821, Control_c, 0, 64, 127
1, 142877, Note_off_c, 0, 69, 61
1, 142935, Note_off_c, 0, 73, 63
1, 143106, Note_on_c, 0, 93, 60
1, 143172, Note_off_c, 0, 93, 59
1, 143191, Note_on_c, 0, 74, 60
1, 143199, Note_on_c, 0, 71, 54
1, 143218, Note_off_c, 0, 81, 51
1, 143264, Note_on_c, 0, 80, 70
1, 143288, Note_off_c, 0, 74, 59
1, 143330, Note_off_c, 0, 80, 59
1, 143375, Note_off_c, 0, 71, 54
1, 143429, Note_on_c, 0, 81, 72
1, 143437, Note_on_c, 0, 76, 72
1, 143446, Note_on_c, 0, 73, 67
1, 143476, Note_off_c, 0, 81, 60
1, 143550, Note_off_c, 0, 73, 58
1, 143598, Note_on_c, 0, 67, 78
1, 143653, Note_off_c, 0, 67, 58
1, 143681, Note_on_c, 0, 82, 78
1, 143693, Note_on_c, 0, 73, 76
1, 143759, Note_off_c, 0, 76, 52
1, 143759, Note_on_c, 0, 69, 68
1, 143789, Note_off_c, 0, 69, 66
1, 143816, Note_off_c, 0, 82, 58
1, 143910, Control_c, 0, 64, 86
1, 143915, Note_on_c, 0, 54, 60
1, 143925, Note_on_c, 0, 81, 80
1, 143925, Control_c, 0, 64, 63
1, 143932, Note_on_c, 0, 74, 74
1, 143939, Control_c, 0, 64, 0
1, 143969, Note_off_c, 0, 73, 61
1, 143984, Control_c, 0, 64, 38
1, 143999, Control_c, 0, 64, 65
1, 144013, Control_c, 0, 64, 83
1, 144028, Control_c, 0, 64, 127
1, 144067, Note_off_c, 0, 54, 60
1, 144099, Note_on_c, 0, 57, 54
1, 144102, Note_off_c, 0, 81, 33
1, 144137, Note_off_c, 0, 57, 62
1, 144200, Note_on_c, 0, 82, 77
1, 144205, Note_on_c, 0, 73, 72
1, 144241, Note_off_c, 0, 74, 64
1, 144243, Control_c, 0, 64, 113
1, 144258, Control_c, 0, 64, 75
1, 144273, Control_c, 0, 64, 41
1, 144287, Note_on_c, 0, 41, 60
1, 144289, Control_c, 0, 64, 0
1, 144318, Control_c, 0, 64, 43
1, 144333, Control_c, 0, 64, 69
1, 144348, Control_c, 0, 64, 127
1, 144412, Note_off_c, 0, 41, 52
1, 144419, Note_off_c, 0, 82, 62
1, 144486, Note_on_c, 0, 53, 50
1, 144506, Note_on_c, 0, 81, 74
1, 144513, Note_on_c, 0, 74, 59
1, 144534, Note_off_c, 0, 73, 56
1, 144552, Note_off_c, 0, 53, 58
1, 144566, Note_off_c, 0, 74, 56
1, 144660, Note_on_c, 0, 38, 35
1, 144771, Note_off_c, 0, 38, 26
1, 144780, Note_on_c, 0, 77, 64
1, 144782, Note_off_c, 0, 81, 51
1, 144784, Note_on_c, 0, 69, 60
1, 144838, Note_off_c, 0, 69, 56
1, 144881, Note_on_c, 0, 50, 46
1, 144929, Note_off_c, 0, 50, 58
1, 145054, Note_off_c, 0, 77, 33
1, 145112, Control_c, 0, 64, 116
1, 145127, Control_c, 0, 64, 81
1, 145127, Note_on_c, 0, 43, 47
1, 145141, Control_c, 0, 64, 59
1, 145153, Note_on_c, 0, 71, 61
1, 145156, Control_c, 0, 64, 0
1, 145160, Note_on_c, 0, 67, 44
1, 145215, Control_c, 0, 64, 61
1, 145230, Control_c, 0, 64, 84
1, 145241, Note_off_c, 0, 43, 60
1, 145245, Control_c, 0, 64, 127
1, 145304, Note_off_c, 0, 67, 53
1, 145546, Note_on_c, 0, 91, 58
1, 145594, Note_off_c, 0, 91, 50
1, 145632, Note_on_c, 0, 72, 60
1, 145642, Note_on_c, 0, 69, 53
1, 145671, Note_off_c, 0, 71, 55
1, 145719, Note_on_c, 0, 78, 71
1, 145781, Note_off_c, 0, 78, 52
1, 145793, Note_off_c, 0, 69, 37
1, 145871, Note_on_c, 0, 79, 69
1, 145883, Note_on_c, 0, 74, 69
1, 145892, Note_on_c, 0, 71, 61
1, 145923, Note_off_c, 0, 79, 63
1, 145956, Note_off_c, 0, 72, 57
1, 145983, Note_off_c, 0, 71, 58
1, 146019, Note_off_c, 0, 74, 63
1, 146043, Note_on_c, 0, 65, 61
1, 146106, Note_off_c, 0, 65, 61
1, 146111, Note_on_c, 0, 80, 85
1, 146118, Note_on_c, 0, 71, 71
1, 146194, Note_on_c, 0, 67, 70
1, 146235, Note_off_c, 0, 67, 60
1, 146250, Note_off_c, 0, 80, 60
1, 146334, Control_c, 0, 64, 103
1, 146349, Control_c, 0, 64, 68
1, 146353, Note_on_c, 0, 79, 84
1, 146356, Note_on_c, 0, 52, 60
1, 146360, Note_on_c, 0, 72, 73
1, 146364, Control_c, 0, 64, 0
1, 146397, Note_off_c, 0, 71, 59
1, 146431, Control_c, 0, 64, 59
1, 146446, Control_c, 0, 64, 82
1, 146461, Control_c, 0, 64, 127
1, 146490, Note_off_c, 0, 79, 61
1, 146546, Note_on_c, 0, 55, 70
1, 146551, Note_off_c, 0, 52, 63
1, 146591, Note_off_c, 0, 55, 60
1, 146628, Note_on_c, 0, 80, 87
1, 146634, Note_on_c, 0, 71, 73
1, 146653, Control_c, 0, 64, 100
1, 146668, Control_c, 0, 64, 72
1, 146674, Note_off_c, 0, 72, 62
1, 146684, Control_c, 0, 64, 37
1, 146699, Control_c, 0, 64, 0
1, 146733, Note_on_c, 0, 39, 54
1, 146743, Control_c, 0, 64, 58
1, 146758, Control_c, 0, 64, 79
1, 146773, Control_c, 0, 64, 127
1, 146850, Note_off_c, 0, 80, 62
1, 146930, Note_on_c, 0, 51, 48
1, 146948, Note_off_c, 0, 39, 36
1, 146960, Note_on_c, 0, 79, 73
1, 146975, Note_on_c, 0, 72, 59
1, 147002, Note_off_c, 0, 51, 59
1, 147006, Note_off_c, 0, 71, 51
1, 147024, Note_off_c, 0, 72, 58
1, 147114, Note_on_c, 0, 36, 53
1, 147172, Note_off_c, 0, 36, 54
1, 147241, Note_on_c, 0, 75, 68
1, 147253, Note_on_c, 0, 67, 52
1, 147264, Note_off_c, 0, 79, 48
1, 147324, Note_on_c, 0, 48, 47
1, 147333, Note_off_c, 0, 67, 59
1, 147364, Note_off_c, 0, 48, 62
1, 147552, Note_on_c, 0, 41, 53
1, 147566, Control_c, 0, 64, 110
1, 147571, Note_off_c, 0, 75, 56
1, 147580, Control_c, 0, 64, 70
1, 147595, Control_c, 0, 64, 0
1, 147598, Note_on_c, 0, 65, 49
1, 147598, Note_on_c, 0, 69, 59
1, 147653, Note_off_c, 0, 41, 64
1, 147655, Control_c, 0, 64, 59
1, 147669, Control_c, 0, 64, 82
1, 147684, Control_c, 0, 64, 127
1, 147760, Note_off_c, 0, 65, 37
1, 147953, Note_on_c, 0, 89, 54
1, 148001, Note_off_c, 0, 89, 55
1, 148059, Note_on_c, 0, 70, 61
1, 148066, Note_on_c, 0, 67, 52
1, 148105, Note_off_c, 0, 69, 57
1, 148142, Note_on_c, 0, 76, 68
1, 148197, Note_off_c, 0, 76, 63
1, 148301, Note_on_c, 0, 77, 71
1, 148307, Note_on_c, 0, 72, 68
1, 148319, Note_on_c, 0, 69, 61
1, 148330, Note_off_c, 0, 67, 0
1, 148330, Note_on_c, 0, 67, 3
1, 148336, Note_off_c, 0, 77, 60
1, 148352, Note_off_c, 0, 70, 61
1, 148370, Note_off_c, 0, 67, 50
1, 148420, Note_off_c, 0, 69, 59
1, 148449, Note_on_c, 0, 63, 69
1, 148519, Note_off_c, 0, 63, 54
1, 148541, Note_on_c, 0, 77, 72
1, 148550, Note_on_c, 0, 70, 68
1, 148594, Note_off_c, 0, 72, 57
1, 148658, Note_on_c, 0, 62, 61
1, 148668, Note_off_c, 0, 77, 58
1, 148692, Note_off_c, 0, 62, 62
1, 148796, Control_c, 0, 64, 110
1, 148810, Control_c, 0, 64, 74
1, 148825, Control_c, 0, 64, 0
1, 148827, Note_on_c, 0, 52, 57
1, 148849, Note_on_c, 0, 68, 62
1, 148853, Note_on_c, 0, 64, 53
1, 148868, Note_off_c, 0, 70, 60
1, 148884, Control_c, 0, 64, 34
1, 148888, Note_off_c, 0, 52, 64
1, 148899, Control_c, 0, 64, 67
1, 148914, Control_c, 0, 64, 97
1, 148928, Control_c, 0, 64, 127
1, 148978, Note_off_c, 0, 68, 37
1, 149101, Note_on_c, 0, 88, 64
1, 149145, Note_off_c, 0, 88, 53
1, 149182, Note_on_c, 0, 69, 65
1, 149184, Note_on_c, 0, 66, 62
1, 149247, Note_on_c, 0, 75, 65
1, 149253, Note_off_c, 0, 66, 62
1, 149289, Note_off_c, 0, 64, 35
1, 149293, Note_off_c, 0, 75, 50
1, 149392, Note_on_c, 0, 76, 69
1, 149403, Note_on_c, 0, 71, 72
1, 149407, Note_on_c, 0, 68, 63
1, 149437, Note_off_c, 0, 76, 62
1, 149457, Note_off_c, 0, 69, 59
1, 149480, Note_off_c, 0, 68, 61
1, 149594, Note_on_c, 0, 62, 60
1, 149636, Note_off_c, 0, 62, 58
1, 149683, Note_on_c, 0, 76, 71
1, 149692, Note_on_c, 0, 69, 72
1, 149728, Note_off_c, 0, 71, 55
1, 149772, Note_on_c, 0, 60, 62
1, 149807, Note_off_c, 0, 60, 63
1, 149823, Note_off_c, 0, 76, 59
1, 149931, Control_c, 0, 64, 108
1, 149946, Control_c, 0, 64, 74
1, 149961, Control_c, 0, 64, 40
1, 149963, Note_on_c, 0, 47, 57
1, 149975, Control_c, 0, 64, 0
1, 149992, Note_on_c, 0, 65, 63
1, 149995, Note_on_c, 0, 62, 60
1, 150005, Control_c, 0, 64, 21
1, 150013, Note_off_c, 0, 69, 56
1, 150018, Note_off_c, 0, 47, 62
1, 150020, Control_c, 0, 64, 63
1, 150035, Control_c, 0, 64, 82
1, 150049, Control_c, 0, 64, 127
1, 150093, Note_off_c, 0, 65, 60
1, 150123, Note_off_c, 0, 62, 35
1, 150226, Note_on_c, 0, 81, 65
1, 150257, Note_off_c, 0, 81, 61
1, 150313, Note_on_c, 0, 74, 58
1, 150318, Note_on_c, 0, 65, 58
1, 150410, Note_on_c, 0, 69, 60
1, 150434, Note_off_c, 0, 69, 67
1, 150635, Control_c, 0, 64, 78
1, 150638, Note_off_c, 0, 65, 62
1, 150645, Note_off_c, 0, 74, 48
1, 150649, Note_on_c, 0, 64, 63
1, 150649, Control_c, 0, 64, 54
1, 150651, Note_on_c, 0, 40, 58
1, 150664, Control_c, 0, 64, 0
1, 150692, Note_off_c, 0, 40, 61
1, 150710, Control_c, 0, 64, 55
1, 150724, Control_c, 0, 64, 78
1, 150739, Control_c, 0, 64, 127
1, 150797, Note_off_c, 0, 64, 50
1, 150923, Note_on_c, 0, 80, 68
1, 150955, Note_off_c, 0, 80, 61
1, 151009, Note_on_c, 0, 72, 63
1, 151015, Note_on_c, 0, 64, 59
1, 151120, Note_on_c, 0, 68, 56
1, 151157, Note_off_c, 0, 68, 63
1, 151185, Note_off_c, 0, 72, 57
1, 151384, Control_c, 0, 64, 93
1, 151386, Note_on_c, 0, 45, 54
1, 151398, Control_c, 0, 64, 63
1, 151406, Note_on_c, 0, 71, 59
1, 151407, Note_off_c, 0, 64, 56
1, 151412, Note_on_c, 0, 62, 50
1, 151412, Control_c, 0, 64, 0
1, 151473, Control_c, 0, 64, 45
1, 151474, Note_off_c, 0, 45, 62
1, 151488, Control_c, 0, 64, 70
1, 151502, Control_c, 0, 64, 95
1, 151517, Control_c, 0, 64, 127
1, 151703, Note_on_c, 0, 77, 61
1, 151745, Note_off_c, 0, 77, 56
1, 151824, Note_off_c, 0, 71, 38
1, 151827, Note_on_c, 0, 68, 50
1, 151914, Note_off_c, 0, 62, 40
1, 151980, Note_on_c, 0, 65, 56
1, 152073, Note_off_c, 0, 65, 35
1, 152132, Note_off_c, 0, 68, 40
1, 152146, Control_c, 0, 64, 106
1, 152161, Control_c, 0, 64, 72
1, 152165, Note_on_c, 0, 69, 58
1, 152176, Note_on_c, 0, 76, 45
1, 152176, Control_c, 0, 64, 41
1, 152191, Control_c, 0, 64, 0
1, 152192, Note_on_c, 0, 60, 40
1, 152235, Control_c, 0, 64, 41
1, 152250, Control_c, 0, 64, 73
1, 152266, Control_c, 0, 64, 127
1, 152320, Note_off_c, 0, 69, 61
1, 152331, Note_off_c, 0, 76, 53
1, 152362, Note_off_c, 0, 60, 36
1, 152383, Note_on_c, 0, 64, 55
1, 152412, Note_off_c, 0, 64, 63
1, 152598, Note_on_c, 0, 64, 68
1, 152640, Note_off_c, 0, 64, 63
1, 152866, Note_on_c, 0, 45, 51
1, 152895, Control_c, 0, 64, 93
1, 152910, Control_c, 0, 64, 67
1, 152911, Note_on_c, 0, 73, 76
1, 152922, Note_on_c, 0, 69, 66
1, 152925, Control_c, 0, 64, 0
1, 152970, Control_c, 0, 64, 47
1, 152985, Control_c, 0, 64, 74
1, 152988, Note_off_c, 0, 45, 64
1, 153000, Control_c, 0, 64, 127
1, 153102, Note_off_c, 0, 69, 59
1, 153160, Note_off_c, 0, 73, 63
1, 153292, Note_on_c, 0, 93, 64
1, 153345, Note_off_c, 0, 93, 50
1, 153381, Note_on_c, 0, 74, 65
1, 153388, Note_on_c, 0, 71, 61
1, 153468, Note_on_c, 0, 80, 63
1, 153470, Note_off_c, 0, 74, 59
1, 153527, Note_off_c, 0, 80, 50
1, 153554, Note_off_c, 0, 71, 51
1, 153625, Note_on_c, 0, 81, 71
1, 153635, Note_on_c, 0, 76, 78
1, 153636, Note_on_c, 0, 73, 70
1, 153666, Note_off_c, 0, 81, 60
1, 153732, Note_off_c, 0, 73, 60
1, 153793, Note_on_c, 0, 67, 66
1, 153854, Note_off_c, 0, 67, 57
1, 153871, Note_on_c, 0, 82, 84
1, 153881, Note_on_c, 0, 73, 75
1, 153938, Note_off_c, 0, 76, 56
1, 153963, Note_on_c, 0, 69, 68
1, 154010, Note_off_c, 0, 69, 61
1, 154018, Note_off_c, 0, 82, 56
1, 154112, Control_c, 0, 64, 97
1, 154123, Note_on_c, 0, 54, 64
1, 154127, Control_c, 0, 64, 69
1, 154135, Note_on_c, 0, 81, 83
1, 154141, Note_on_c, 0, 74, 74
1, 154141, Control_c, 0, 64, 0
1, 154180, Note_off_c, 0, 73, 61
1, 154186, Control_c, 0, 64, 26
1, 154201, Control_c, 0, 64, 63
1, 154216, Control_c, 0, 64, 83
1, 154231, Control_c, 0, 64, 127
1, 154246, Note_off_c, 0, 81, 58
1, 154278, Note_off_c, 0, 54, 58
1, 154299, Note_on_c, 0, 57, 58
1, 154341, Note_off_c, 0, 57, 60
1, 154382, Note_on_c, 0, 82, 88
1, 154391, Note_on_c, 0, 73, 78
1, 154422, Control_c, 0, 64, 115
1, 154424, Note_off_c, 0, 74, 60
1, 154436, Control_c, 0, 64, 77
1, 154451, Control_c, 0, 64, 42
1, 154466, Control_c, 0, 64, 0
1, 154478, Note_on_c, 0, 41, 60
1, 154496, Control_c, 0, 64, 25
1, 154511, Control_c, 0, 64, 66
1, 154526, Control_c, 0, 64, 101
1, 154540, Control_c, 0, 64, 127
1, 154597, Note_off_c, 0, 41, 56
1, 154615, Note_off_c, 0, 82, 55
1, 154679, Note_on_c, 0, 53, 52
1, 154739, Note_on_c, 0, 81, 71
1, 154741, Note_on_c, 0, 74, 72
1, 154743, Note_off_c, 0, 53, 61
1, 154776, Note_off_c, 0, 73, 61
1, 154808, Note_off_c, 0, 74, 59
1, 154857, Note_on_c, 0, 38, 42
1, 154965, Note_off_c, 0, 38, 33
1, 154996, Note_on_c, 0, 77, 63
1, 154996, Note_off_c, 0, 81, 43
1, 155009, Note_on_c, 0, 69, 57
1, 155057, Note_on_c, 0, 50, 49
1, 155063, Note_off_c, 0, 69, 57
1, 155109, Note_off_c, 0, 50, 57
1, 155263, Note_off_c, 0, 77, 37
1, 155264, Note_on_c, 0, 43, 47
1, 155274, Control_c, 0, 64, 94
1, 155289, Control_c, 0, 64, 66
1, 155304, Control_c, 0, 64, 0
1, 155318, Note_on_c, 0, 71, 63
1, 155319, Note_on_c, 0, 67, 55
1, 155349, Control_c, 0, 64, 13
1, 155363, Control_c, 0, 64, 64
1, 155378, Control_c, 0, 64, 88
1, 155383, Note_off_c, 0, 43, 61
1, 155400, Control_c, 0, 64, 127
1, 155486, Note_off_c, 0, 67, 51
1, 155677, Note_on_c, 0, 91, 62
1, 155718, Note_off_c, 0, 91, 53
1, 155763, Note_on_c, 0, 72, 65
1, 155774, Note_on_c, 0, 69, 58
1, 155800, Note_off_c, 0, 71, 59
1, 155835, Note_on_c, 0, 78, 62
1, 155888, Note_off_c, 0, 78, 47
1, 155912, Note_off_c, 0, 69, 31
1, 155989, Note_on_c, 0, 79, 69
1, 156002, Note_on_c, 0, 74, 68
1, 156018, Note_on_c, 0, 71, 60
1, 156036, Note_off_c, 0, 79, 60
1, 156081, Note_off_c, 0, 71, 60
1, 156082, Note_off_c, 0, 72, 55
1, 156152, Note_off_c, 0, 74, 63
1, 156161, Note_on_c, 0, 65, 72
1, 156223, Note_off_c, 0, 65, 63
1, 156252, Note_on_c, 0, 80, 83
1, 156267, Note_on_c, 0, 71, 71
1, 156326, Note_on_c, 0, 67, 71
1, 156363, Note_off_c, 0, 67, 58
1, 156413, Note_off_c, 0, 80, 58
1, 156491, Control_c, 0, 64, 104
1, 156493, Note_on_c, 0, 52, 65
1, 156506, Control_c, 0, 64, 71
1, 156507, Note_on_c, 0, 79, 79
1, 156515, Note_on_c, 0, 72, 70
1, 156521, Control_c, 0, 64, 15
1, 156536, Control_c, 0, 64, 0
1, 156547, Note_off_c, 0, 71, 56
1, 156580, Control_c, 0, 64, 51
1, 156595, Control_c, 0, 64, 71
1, 156610, Control_c, 0, 64, 100
1, 156624, Control_c, 0, 64, 127
1, 156650, Note_off_c, 0, 79, 62
1, 156675, Note_off_c, 0, 52, 62
1, 156689, Note_on_c, 0, 55, 66
1, 156724, Note_off_c, 0, 55, 63
1, 156770, Note_on_c, 0, 80, 88
1, 156778, Note_on_c, 0, 71, 68
1, 156800, Note_off_c, 0, 72, 55
1, 156803, Control_c, 0, 64, 90
1, 156817, Control_c, 0, 64, 65
1, 156832, Control_c, 0, 64, 0
1, 156873, Note_on_c, 0, 39, 57
1, 156899, Control_c, 0, 64, 61
1, 156914, Control_c, 0, 64, 79
1, 156928, Control_c, 0, 64, 127
1, 156994, Note_off_c, 0, 80, 62
1, 157060, Note_on_c, 0, 51, 45
1, 157063, Note_off_c, 0, 39, 34
1, 157097, Note_on_c, 0, 79, 72
1, 157100, Note_on_c, 0, 72, 66
1, 157125, Note_off_c, 0, 51, 60
1, 157125, Note_off_c, 0, 71, 55
1, 157135, Note_off_c, 0, 72, 60
1, 157247, Note_on_c, 0, 36, 47
1, 157301, Note_off_c, 0, 36, 52
1, 157368, Note_on_c, 0, 75, 71
1, 157379, Note_on_c, 0, 67, 57
1, 157402, Note_off_c, 0, 79, 54
1, 157434, Note_off_c, 0, 67, 55
1, 157439, Note_on_c, 0, 48, 42
1, 157479, Note_off_c, 0, 48, 63
1, 157611, Control_c, 0, 64, 99
1, 157626, Control_c, 0, 64, 71
1, 157641, Note_on_c, 0, 41, 49
1, 157647, Control_c, 0, 64, 18
1, 157662, Control_c, 0, 64, 0
1, 157673, Note_off_c, 0, 75, 60
1, 157688, Note_on_c, 0, 69, 64
1, 157695, Note_on_c, 0, 65, 50
1, 157707, Control_c, 0, 64, 20
1, 157718, Note_off_c, 0, 41, 63
1, 157721, Control_c, 0, 64, 61
1, 157736, Control_c, 0, 64, 79
1, 157751, Control_c, 0, 64, 127
1, 157817, Note_off_c, 0, 65, 55
1, 158008, Note_on_c, 0, 89, 62
1, 158052, Note_off_c, 0, 89, 57
1, 158112, Note_on_c, 0, 70, 63
1, 158115, Note_on_c, 0, 67, 52
1, 158157, Note_off_c, 0, 69, 58
1, 158199, Note_on_c, 0, 76, 64
1, 158258, Note_off_c, 0, 76, 65
1, 158335, Note_off_c, 0, 67, 0
1, 158359, Note_on_c, 0, 77, 63
1, 158362, Note_on_c, 0, 72, 67
1, 158367, Note_on_c, 0, 69, 66
1, 158372, Poly_aftertouch_c, 0, 67, 127
1, 158402, Note_off_c, 0, 70, 58
1, 158404, Note_off_c, 0, 77, 56
1, 158438, Poly_aftertouch_c, 0, 67, 0
1, 158483, Note_off_c, 0, 69, 60
1, 158512, Note_on_c, 0, 63, 68
1, 158571, Note_off_c, 0, 63, 42
1, 158624, Note_on_c, 0, 77, 71
1, 158631, Note_on_c, 0, 70, 67
1, 158672, Note_off_c, 0, 72, 59
1, 158724, Note_on_c, 0, 62, 53
1, 158754, Note_off_c, 0, 62, 58
1, 158779, Note_off_c, 0, 77, 52
1, 158871, Control_c, 0, 64, 97
1, 158885, Control_c, 0, 64, 69
1, 158901, Control_c, 0, 64, 0
1, 158903, Note_on_c, 0, 52, 53
1, 158942, Note_on_c, 0, 68, 64
1, 158948, Note_on_c, 0, 64, 55
1, 158959, Note_off_c, 0, 70, 56
1, 158973, Note_off_c, 0, 52, 64
1, 158975, Control_c, 0, 64, 60
1, 158990, Control_c, 0, 64, 83
1, 159004, Control_c, 0, 64, 127
1, 159040, Note_off_c, 0, 68, 54
1, 159212, Note_on_c, 0, 88, 70
1, 159255, Note_off_c, 0, 88, 53
1, 159298, Note_on_c, 0, 69, 68
1, 159304, Note_on_c, 0, 66, 61
1, 159369, Note_on_c, 0, 75, 64
1, 159376, Note_off_c, 0, 66, 62
1, 159384, Note_off_c, 0, 64, 34
1, 159412, Note_off_c, 0, 75, 51
1, 159523, Note_on_c, 0, 76, 69
1, 159534, Note_on_c, 0, 68, 59
1, 159534, Note_on_c, 0, 71, 66
1, 159553, Note_off_c, 0, 76, 66
1, 159578, Note_off_c, 0, 69, 62
1, 159604, Note_off_c, 0, 68, 62
1, 159719, Note_on_c, 0, 62, 64
1, 159760, Note_off_c, 0, 62, 58
1, 159818, Note_on_c, 0, 76, 72
1, 159824, Note_on_c, 0, 69, 67
1, 159845, Note_off_c, 0, 71, 48
1, 159932, Note_on_c, 0, 60, 41
1, 159966, Note_off_c, 0, 60, 48
1, 159979, Note_off_c, 0, 76, 56
1, 160144, Note_on_c, 0, 47, 52
1, 160146, Control_c, 0, 64, 117
1, 160160, Control_c, 0, 64, 77
1, 160169, Note_on_c, 0, 65, 61
1, 160172, Note_on_c, 0, 62, 51
1, 160175, Control_c, 0, 64, 36
1, 160182, Note_off_c, 0, 69, 52
1, 160190, Control_c, 0, 64, 0
1, 160234, Control_c, 0, 64, 56
1, 160237, Note_off_c, 0, 47, 64
1, 160249, Control_c, 0, 64, 76
1, 160265, Control_c, 0, 64, 127
1, 160270, Note_off_c, 0, 62, 50
1, 160308, Note_off_c, 0, 65, 60
1, 160439, Note_on_c, 0, 81, 51
1, 160464, Note_off_c, 0, 81, 56
1, 160523, Note_on_c, 0, 74, 65
1, 160526, Note_on_c, 0, 65, 65
1, 160640, Note_on_c, 0, 69, 62
1, 160681, Note_off_c, 0, 69, 65
1, 160880, Control_c, 0, 64, 86
1, 160893, Note_off_c, 0, 65, 59
1, 160895, Control_c, 0, 64, 61
1, 160909, Control_c, 0, 64, 0
1, 160910, Note_on_c, 0, 64, 61
1, 160911, Note_off_c, 0, 74, 57
1, 160914, Note_on_c, 0, 40, 53
1, 160942, Note_off_c, 0, 40, 61
1, 160954, Control_c, 0, 64, 56
1, 160969, Control_c, 0, 64, 75
1, 160983, Control_c, 0, 64, 127
1, 161069, Note_off_c, 0, 64, 57
1, 161179, Note_on_c, 0, 80, 56
1, 161210, Note_off_c, 0, 80, 60
1, 161269, Note_on_c, 0, 72, 64
1, 161287, Note_on_c, 0, 64, 58
1, 161410, Note_on_c, 0, 68, 54
1, 161439, Note_off_c, 0, 68, 62
1, 161490, Note_off_c, 0, 72, 59
1, 161673, Control_c, 0, 64, 118
1, 161679, Note_on_c, 0, 45, 50
1, 161688, Control_c, 0, 64, 81
1, 161695, Note_on_c, 0, 71, 66
1, 161700, Note_off_c, 0, 64, 57
1, 161703, Control_c, 0, 64, 52
1, 161705, Note_on_c, 0, 62, 52
1, 161718, Control_c, 0, 64, 0
1, 161759, Note_off_c, 0, 45, 62
1, 161762, Control_c, 0, 64, 52
1, 161777, Control_c, 0, 64, 75
1, 161792, Control_c, 0, 64, 127
1, 161983, Note_on_c, 0, 77, 58
1, 162026, Note_off_c, 0, 77, 44
1, 162103, Note_on_c, 0, 68, 59
1, 162109, Note_off_c, 0, 71, 50
1, 162253, Note_on_c, 0, 65, 49
1, 162258, Note_off_c, 0, 62, 35
1, 162339, Note_off_c, 0, 65, 58
1, 162421, Note_off_c, 0, 68, 33
1, 162569, Note_on_c, 0, 69, 55
1, 162583, Note_on_c, 0, 60, 38
1, 162584, Control_c, 0, 64, 117
1, 162586, Note_on_c, 0, 76, 46
1, 162598, Control_c, 0, 64, 82
1, 162613, Control_c, 0, 64, 63
1, 162628, Control_c, 0, 64, 14
1, 162644, Control_c, 0, 64, 0
1, 162704, Control_c, 0, 64, 28
1, 162719, Control_c, 0, 64, 59
1, 162734, Control_c, 0, 64, 71
1, 162749, Control_c, 0, 64, 89
1, 162764, Control_c, 0, 64, 112
1, 162778, Control_c, 0, 64, 127
1, 162938, Note_off_c, 0, 76, 34
1, 163030, Note_on_c, 0, 64, 42
1, 163078, Note_off_c, 0, 64, 53
1, 163588, Note_off_c, 0, 60, 37
1, 163605, Note_off_c, 0, 69, 56
1, 163713, Control_c, 0, 64, 112
1, 163727, Control_c, 0, 64, 94
1, 163742, Control_c, 0, 64, 81
1, 163757, Control_c, 0, 64, 71
1, 163772, Control_c, 0, 64, 61
1, 163787, Control_c, 0, 64, 47
1, 163802, Control_c, 0, 64, 23
1, 163816, Control_c, 0, 64, 0
1, 164399, Note_on_c, 0, 33, 46
1, 164408, Note_on_c, 0, 45, 42
1, 164431, Note_off_c, 0, 33, 48
1, 164433, Note_off_c, 0, 45, 55
1, 164545, Note_on_c, 0, 45, 52
1, 164549, Note_on_c, 0, 81, 65
1, 164552, Note_on_c, 0, 69, 57
1, 164557, Note_on_c, 0, 72, 52
1, 164571, Note_off_c, 0, 69, 63
1, 164572, Note_off_c, 0, 45, 62
1, 164577, Note_off_c, 0, 72, 63
1, 164580, Note_on_c, 0, 57, 20
1, 164582, Note_off_c, 0, 81, 60
1, 164621, Note_off_c, 0, 57, 30
1, 164681, Note_on_c, 0, 60, 62
1, 164683, Note_on_c, 0, 48, 53
1, 164702, Note_off_c, 0, 60, 61
1, 164709, Note_off_c, 0, 48, 55
1, 164802, Control_c, 0, 64, 31
1, 164815, Note_on_c, 0, 84, 74
1, 164816, Note_on_c, 0, 47, 61
1, 164817, Control_c, 0, 64, 66
1, 164820, Note_on_c, 0, 76, 66
1, 164822, Note_on_c, 0, 72, 61
1, 164825, Note_on_c, 0, 59, 46
1, 164831, Control_c, 0, 64, 88
1, 164840, Note_off_c, 0, 72, 66
1, 164841, Note_off_c, 0, 84, 64
1, 164843, Note_off_c, 0, 76, 69
1, 164846, Control_c, 0, 64, 127
1, 164849, Note_off_c, 0, 47, 65
1, 164850, Note_off_c, 0, 59, 55
1, 164971, Note_on_c, 0, 45, 49
1, 164996, Note_off_c, 0, 45, 61
1, 165019, Poly_aftertouch_c, 0, 57, 0
1, 165039, Control_c, 0, 64, 102
1, 165049, Poly_aftertouch_c, 0, 57, 0
1, 165054, Control_c, 0, 64, 88
1, 165069, Control_c, 0, 64, 78
1, 165084, Control_c, 0, 64, 70
1, 165099, Control_c, 0, 64, 64
1, 165114, Control_c, 0, 64, 60
1, 165127, Note_on_c, 0, 83, 60
1, 165134, Note_on_c, 0, 71, 57
1, 165135, Note_on_c, 0, 74, 54
1, 165136, Control_c, 0, 64, 55
1, 165151, Control_c, 0, 64, 49
1, 165166, Control_c, 0, 64, 38
1, 165168, Note_off_c, 0, 74, 68
1, 165173, Note_off_c, 0, 71, 62
1, 165178, Note_off_c, 0, 83, 54
1, 165180, Control_c, 0, 64, 8
1, 165195, Control_c, 0, 64, 0
1, 165227, Note_on_c, 0, 28, 66
1, 165236, Note_on_c, 0, 40, 61
1, 165254, Note_off_c, 0, 28, 58
1, 165267, Note_off_c, 0, 40, 64
1, 165373, Note_on_c, 0, 72, 66
1, 165375, Note_on_c, 0, 81, 72
1, 165376, Note_on_c, 0, 69, 71
1, 165384, Note_on_c, 0, 45, 63
1, 165385, Note_on_c, 0, 57, 61
1, 165399, Note_off_c, 0, 72, 67
1, 165399, Note_off_c, 0, 69, 67
1, 165401, Note_off_c, 0, 81, 64
1, 165405, Note_off_c, 0, 57, 62
1, 165407, Note_off_c, 0, 45, 60
1, 165495, Note_on_c, 0, 60, 71
1, 165500, Note_on_c, 0, 48, 59
1, 165519, Note_off_c, 0, 60, 66
1, 165526, Note_off_c, 0, 48, 56
1, 165610, Control_c, 0, 64, 43
1, 165623, Note_on_c, 0, 47, 70
1, 165624, Note_on_c, 0, 59, 59
1, 165625, Note_on_c, 0, 80, 79
1, 165625, Control_c, 0, 64, 72
1, 165626, Note_on_c, 0, 68, 72
1, 165627, Note_on_c, 0, 76, 65
1, 165641, Control_c, 0, 64, 110
1, 165650, Note_off_c, 0, 59, 64
1, 165656, Control_c, 0, 64, 127
1, 165658, Note_off_c, 0, 47, 63
1, 165658, Note_off_c, 0, 76, 66
1, 165682, Note_off_c, 0, 80, 63
1, 165683, Note_off_c, 0, 68, 61
1, 165778, Note_on_c, 0, 52, 55
1, 165786, Note_on_c, 0, 40, 34
1, 165802, Note_off_c, 0, 52, 59
1, 165819, Control_c, 0, 64, 108
1, 165824, Note_off_c, 0, 40, 46
1, 165833, Control_c, 0, 64, 95
1, 165850, Control_c, 0, 64, 86
1, 165865, Control_c, 0, 64, 78
1, 165886, Control_c, 0, 64, 71
1, 165901, Control_c, 0, 64, 64
1, 165915, Note_on_c, 0, 76, 64
1, 165916, Control_c, 0, 64, 60
1, 165920, Note_on_c, 0, 64, 58
1, 165931, Control_c, 0, 64, 56
1, 165944, Note_off_c, 0, 64, 64
1, 165946, Control_c, 0, 64, 51
1, 165950, Note_off_c, 0, 76, 64
1, 165961, Control_c, 0, 64, 43
1, 165976, Control_c, 0, 64, 31
1, 165990, Control_c, 0, 64, 0
1, 166020, Note_on_c, 0, 33, 64
1, 166024, Note_on_c, 0, 45, 60
1, 166047, Note_off_c, 0, 33, 60
1, 166048, Note_off_c, 0, 45, 63
1, 166153, Note_on_c, 0, 45, 63
1, 166155, Note_on_c, 0, 81, 76
1, 166157, Note_on_c, 0, 69, 71
1, 166159, Note_on_c, 0, 57, 62
1, 166162, Note_on_c, 0, 72, 66
1, 166175, Note_off_c, 0, 45, 60
1, 166178, Note_off_c, 0, 57, 63
1, 166183, Note_off_c, 0, 69, 71
1, 166188, Note_off_c, 0, 72, 69
1, 166191, Note_off_c, 0, 81, 57
1, 166266, Note_on_c, 0, 48, 69
1, 166268, Note_on_c, 0, 60, 67
1, 166297, Note_off_c, 0, 48, 65
1, 166298, Note_off_c, 0, 60, 64
1, 166403, Note_on_c, 0, 47, 60
1, 166403, Control_c, 0, 64, 65
1, 166408, Note_on_c, 0, 59, 53
1, 166408, Note_on_c, 0, 84, 76
1, 166414, Note_on_c, 0, 76, 66
1, 166418, Note_on_c, 0, 72, 69
1, 166418, Control_c, 0, 64, 86
1, 166430, Note_off_c, 0, 59, 60
1, 166433, Control_c, 0, 64, 127
1, 166438, Note_off_c, 0, 47, 65
1, 166443, Note_off_c, 0, 76, 69
1, 166445, Note_off_c, 0, 72, 69
1, 166452, Note_off_c, 0, 84, 57
1, 166541, Note_on_c, 0, 45, 54
1, 166545, Note_on_c, 0, 57, 33
1, 166574, Note_off_c, 0, 45, 64
1, 166578, Note_off_c, 0, 57, 50
1, 166610, Control_c, 0, 64, 112
1, 166633, Control_c, 0, 64, 98
1, 166648, Control_c, 0, 64, 88
1, 166664, Control_c, 0, 64, 78
1, 166678, Control_c, 0, 64, 70
1, 166693, Control_c, 0, 64, 64
1, 166708, Control_c, 0, 64, 61
1, 166709, Note_on_c, 0, 83, 63
1, 166714, Note_on_c, 0, 71, 62
1, 166719, Note_on_c, 0, 74, 53
1, 166723, Control_c, 0, 64, 57
1, 166738, Control_c, 0, 64, 54
1, 166748, Note_off_c, 0, 71, 59
1, 166751, Note_off_c, 0, 74, 68
1, 166752, Control_c, 0, 64, 51
1, 166757, Note_off_c, 0, 83, 49
1, 166767, Control_c, 0, 64, 46
1, 166782, Control_c, 0, 64, 37
1, 166797, Control_c, 0, 64, 14
1, 166803, Note_on_c, 0, 28, 67
1, 166810, Note_on_c, 0, 40, 65
1, 166812, Control_c, 0, 64, 0
1, 166831, Note_off_c, 0, 28, 62
1, 166842, Note_off_c, 0, 40, 66
1, 166944, Note_on_c, 0, 81, 79
1, 166947, Note_on_c, 0, 45, 67
1, 166947, Note_on_c, 0, 69, 68
1, 166947, Note_on_c, 0, 72, 66
1, 166956, Note_on_c, 0, 57, 53
1, 166971, Note_off_c, 0, 72, 67
1, 166972, Note_off_c, 0, 69, 67
1, 166974, Note_off_c, 0, 81, 57
1, 166977, Note_off_c, 0, 45, 65
1, 166980, Note_off_c, 0, 57, 57
1, 167060, Note_on_c, 0, 60, 70
1, 167067, Note_on_c, 0, 48, 54
1, 167087, Note_off_c, 0, 60, 66
1, 167094, Note_off_c, 0, 48, 56
1, 167189, Note_on_c, 0, 87, 80
1, 167192, Note_on_c, 0, 47, 66
1, 167194, Note_on_c, 0, 59, 55
1, 167195, Note_on_c, 0, 78, 72
1, 167197, Control_c, 0, 64, 61
1, 167200, Note_on_c, 0, 75, 73
1, 167212, Control_c, 0, 64, 82
1, 167216, Note_off_c, 0, 59, 63
1, 167226, Note_off_c, 0, 47, 64
1, 167226, Control_c, 0, 64, 127
1, 167240, Note_off_c, 0, 78, 60
1, 167248, Note_off_c, 0, 75, 57
1, 167257, Note_off_c, 0, 87, 63
1, 167344, Note_on_c, 0, 52, 59
1, 167352, Note_on_c, 0, 40, 39
1, 167374, Note_off_c, 0, 52, 61
1, 167394, Note_off_c, 0, 40, 50
1, 167441, Control_c, 0, 64, 108
1, 167457, Control_c, 0, 64, 99
1, 167472, Control_c, 0, 64, 93
1, 167487, Control_c, 0, 64, 86
1, 167501, Control_c, 0, 64, 80
1, 167503, Note_on_c, 0, 88, 70
1, 167508, Note_on_c, 0, 76, 63
1, 167509, Note_on_c, 0, 80, 63
1, 167516, Control_c, 0, 64, 73
1, 167531, Control_c, 0, 64, 68
1, 167544, Note_off_c, 0, 88, 60
1, 167546, Control_c, 0, 64, 64
1, 167551, Note_off_c, 0, 80, 62
1, 167558, Note_off_c, 0, 76, 63
1, 167561, Control_c, 0, 64, 59
1, 167575, Control_c, 0, 64, 53
1, 167590, Control_c, 0, 64, 47
1, 167605, Control_c, 0, 64, 39
1, 167615, Note_on_c, 0, 45, 60
1, 167618, Note_on_c, 0, 33, 47
1, 167620, Control_c, 0, 64, 21
1, 167635, Control_c, 0, 64, 0
1, 167646, Note_off_c, 0, 45, 65
1, 167651, Note_off_c, 0, 33, 54
1, 167752, Note_on_c, 0, 45, 63
1, 167755, Note_on_c, 0, 72, 71
1, 167755, Note_on_c, 0, 81, 75
1, 167758, Note_on_c, 0, 69, 73
1, 167765, Note_on_c, 0, 57, 57
1, 167774, Note_off_c, 0, 45, 60
1, 167779, Note_off_c, 0, 72, 69
1, 167783, Note_off_c, 0, 69, 71
1, 167786, Note_off_c, 0, 57, 59
1, 167790, Note_off_c, 0, 81, 56
1, 167864, Note_on_c, 0, 48, 67
1, 167865, Note_on_c, 0, 60, 67
1, 167893, Note_off_c, 0, 60, 65
1, 167896, Note_off_c, 0, 48, 65
1, 167993, Note_on_c, 0, 47, 62
1, 167996, Note_on_c, 0, 59, 53
1, 168000, Note_on_c, 0, 84, 81
1, 168004, Note_on_c, 0, 76, 70
1, 168005, Control_c, 0, 64, 38
1, 168009, Note_on_c, 0, 72, 67
1, 168017, Note_off_c, 0, 59, 61
1, 168020, Control_c, 0, 64, 78
1, 168024, Note_off_c, 0, 47, 63
1, 168025, Note_off_c, 0, 84, 65
1, 168027, Note_off_c, 0, 72, 68
1, 168028, Note_off_c, 0, 76, 72
1, 168034, Control_c, 0, 64, 127
1, 168123, Note_on_c, 0, 45, 63
1, 168143, Note_on_c, 0, 57, 16
1, 168155, Note_off_c, 0, 45, 65
1, 168183, Note_off_c, 0, 57, 43
1, 168219, Control_c, 0, 64, 119
1, 168234, Control_c, 0, 64, 101
1, 168250, Control_c, 0, 64, 89
1, 168265, Control_c, 0, 64, 79
1, 168280, Control_c, 0, 64, 71
1, 168283, Note_on_c, 0, 83, 64
1, 168288, Note_on_c, 0, 71, 63
1, 168288, Note_on_c, 0, 74, 61
1, 168295, Control_c, 0, 64, 66
1, 168310, Control_c, 0, 64, 61
1, 168319, Note_off_c, 0, 74, 66
1, 168319, Note_off_c, 0, 83, 54
1, 168324, Note_off_c, 0, 71, 58
1, 168324, Control_c, 0, 64, 56
1, 168339, Control_c, 0, 64, 51
1, 168354, Control_c, 0, 64, 46
1, 168369, Control_c, 0, 64, 38
1, 168375, Note_on_c, 0, 28, 63
1, 168378, Note_on_c, 0, 40, 64
1, 168384, Control_c, 0, 64, 21
1, 168398, Control_c, 0, 64, 0
1, 168403, Note_off_c, 0, 28, 49
1, 168409, Note_off_c, 0, 40, 65
1, 168515, Note_on_c, 0, 72, 72
1, 168515, Note_on_c, 0, 81, 78
1, 168515, Note_on_c, 0, 45, 66
1, 168515, Note_on_c, 0, 69, 74
1, 168521, Note_on_c, 0, 57, 59
1, 168537, Note_off_c, 0, 45, 64
1, 168539, Note_off_c, 0, 69, 70
1, 168539, Note_off_c, 0, 72, 69
1, 168539, Note_off_c, 0, 81, 61
1, 168543, Note_off_c, 0, 57, 59
1, 168623, Note_on_c, 0, 48, 69
1, 168623, Note_on_c, 0, 60, 71
1, 168649, Note_off_c, 0, 60, 66
1, 168656, Note_off_c, 0, 48, 64
1, 168739, Control_c, 0, 64, 57
1, 168745, Note_on_c, 0, 80, 77
1, 168749, Note_on_c, 0, 68, 73
1, 168754, Control_c, 0, 64, 80
1, 168754, Note_on_c, 0, 59, 60
1, 168754, Note_on_c, 0, 76, 60
1, 168755, Note_on_c, 0, 47, 71
1, 168769, Control_c, 0, 64, 127
1, 168778, Note_off_c, 0, 59, 64
1, 168788, Note_off_c, 0, 47, 62
1, 168788, Note_off_c, 0, 76, 66
1, 168799, Note_off_c, 0, 68, 64
1, 168803, Note_off_c, 0, 80, 63
1, 168912, Note_on_c, 0, 40, 58
1, 168915, Note_on_c, 0, 52, 57
1, 168938, Note_off_c, 0, 52, 59
1, 168939, Note_off_c, 0, 40, 62
1, 168953, Control_c, 0, 64, 108
1, 168968, Control_c, 0, 64, 97
1, 168983, Control_c, 0, 64, 89
1, 168998, Control_c, 0, 64, 83
1, 169013, Control_c, 0, 64, 77
1, 169028, Control_c, 0, 64, 72
1, 169034, Note_on_c, 0, 76, 68
1, 169034, Note_on_c, 0, 64, 62
1, 169043, Control_c, 0, 64, 66
1, 169058, Control_c, 0, 64, 62
1, 169064, Note_off_c, 0, 64, 65
1, 169073, Control_c, 0, 64, 56
1, 169088, Control_c, 0, 64, 49
1, 169092, Note_off_c, 0, 76, 65
1, 169102, Control_c, 0, 64, 42
1, 169117, Control_c, 0, 64, 28
1, 169132, Control_c, 0, 64, 0
1, 169135, Note_on_c, 0, 45, 65
1, 169137, Note_on_c, 0, 33, 60
1, 169162, Note_off_c, 0, 45, 66
1, 169163, Note_off_c, 0, 33, 59
1, 169266, Note_on_c, 0, 81, 78
1, 169266, Note_on_c, 0, 69, 73
1, 169266, Note_on_c, 0, 72, 68
1, 169267, Note_on_c, 0, 45, 68
1, 169278, Note_on_c, 0, 57, 62
1, 169288, Note_off_c, 0, 45, 63
1, 169293, Note_off_c, 0, 69, 69
1, 169293, Note_off_c, 0, 72, 69
1, 169297, Note_off_c, 0, 57, 62
1, 169306, Note_off_c, 0, 81, 51
1, 169380, Note_on_c, 0, 60, 72
1, 169381, Note_on_c, 0, 48, 68
1, 169405, Note_off_c, 0, 60, 67
1, 169413, Note_off_c, 0, 48, 66
1, 169488, Control_c, 0, 64, 63
1, 169503, Note_on_c, 0, 84, 80
1, 169503, Control_c, 0, 64, 81
1, 169509, Note_on_c, 0, 59, 65
1, 169510, Note_on_c, 0, 72, 74
1, 169511, Note_on_c, 0, 47, 70
1, 169511, Note_on_c, 0, 76, 69
1, 169518, Control_c, 0, 64, 127
1, 169537, Note_off_c, 0, 59, 66
1, 169542, Note_off_c, 0, 47, 64
1, 169546, Note_off_c, 0, 76, 63
1, 169557, Note_off_c, 0, 72, 63
1, 169558, Note_off_c, 0, 84, 60
1, 169642, Note_on_c, 0, 45, 69
1, 169642, Note_on_c, 0, 57, 54
1, 169666, Note_off_c, 0, 57, 58
1, 169674, Note_off_c, 0, 45, 65
1, 169703, Control_c, 0, 64, 105
1, 169718, Control_c, 0, 64, 91
1, 169733, Control_c, 0, 64, 83
1, 169747, Control_c, 0, 64, 75
1, 169762, Control_c, 0, 64, 69
1, 169777, Control_c, 0, 64, 63
1, 169792, Control_c, 0, 64, 59
1, 169793, Note_on_c, 0, 83, 67
1, 169800, Note_on_c, 0, 74, 56
1, 169802, Note_on_c, 0, 71, 58
1, 169806, Control_c, 0, 64, 54
1, 169821, Control_c, 0, 64, 50
1, 169823, Note_off_c, 0, 83, 61
1, 169833, Note_off_c, 0, 74, 68
1, 169836, Control_c, 0, 64, 46
1, 169838, Note_off_c, 0, 71, 62
1, 169852, Control_c, 0, 64, 41
1, 169867, Control_c, 0, 64, 30
1, 169882, Control_c, 0, 64, 0
1, 169883, Note_on_c, 0, 28, 57
1, 169889, Note_on_c, 0, 40, 63
1, 169913, Note_off_c, 0, 28, 49
1, 169916, Note_off_c, 0, 40, 63
1, 170026, Note_on_c, 0, 45, 67
1, 170029, Note_on_c, 0, 72, 66
1, 170030, Note_on_c, 0, 81, 76
1, 170031, Note_on_c, 0, 57, 61
1, 170034, Note_on_c, 0, 69, 61
1, 170046, Note_off_c, 0, 45, 63
1, 170049, Note_off_c, 0, 72, 68
1, 170051, Note_off_c, 0, 57, 61
1, 170053, Note_off_c, 0, 69, 64
1, 170062, Note_off_c, 0, 81, 59
1, 170143, Note_on_c, 0, 60, 72
1, 170147, Note_on_c, 0, 48, 62
1, 170169, Note_off_c, 0, 60, 67
1, 170180, Note_off_c, 0, 48, 66
1, 170267, Control_c, 0, 64, 36
1, 170275, Note_on_c, 0, 87, 77
1, 170281, Note_on_c, 0, 47, 65
1, 170281, Note_on_c, 0, 59, 57
1, 170282, Control_c, 0, 64, 70
1, 170286, Note_on_c, 0, 78, 70
1, 170289, Note_on_c, 0, 75, 67
1, 170297, Control_c, 0, 64, 96
1, 170302, Note_off_c, 0, 59, 63
1, 170312, Control_c, 0, 64, 127
1, 170317, Note_off_c, 0, 47, 62
1, 170325, Note_off_c, 0, 75, 56
1, 170329, Note_off_c, 0, 78, 59
1, 170346, Note_off_c, 0, 87, 63
1, 170483, Note_on_c, 0, 40, 9
1, 170504, Poly_aftertouch_c, 0, 52, 127
1, 170512, Control_c, 0, 64, 110
1, 170527, Control_c, 0, 64, 99
1, 170529, Note_off_c, 0, 40, 52
1, 170534, Poly_aftertouch_c, 0, 52, 0
1, 170542, Control_c, 0, 64, 90
1, 170557, Control_c, 0, 64, 83
1, 170571, Control_c, 0, 64, 77
1, 170586, Control_c, 0, 64, 73
1, 170600, Note_on_c, 0, 88, 72
1, 170601, Control_c, 0, 64, 70
1, 170605, Note_on_c, 0, 80, 62
1, 170608, Note_on_c, 0, 76, 62
1, 170616, Control_c, 0, 64, 67
1, 170626, Note_off_c, 0, 88, 65
1, 170630, Control_c, 0, 64, 63
1, 170638, Note_off_c, 0, 80, 64
1, 170646, Control_c, 0, 64, 60
1, 170647, Note_off_c, 0, 76, 63
1, 170661, Control_c, 0, 64, 56
1, 170676, Control_c, 0, 64, 52
1, 170691, Control_c, 0, 64, 49
1, 170706, Control_c, 0, 64, 45
1, 170706, Note_on_c, 0, 33, 56
1, 170707, Note_on_c, 0, 45, 58
1, 170720, Control_c, 0, 64, 40
1, 170735, Note_off_c, 0, 33, 55
1, 170735, Control_c, 0, 64, 29
1, 170736, Note_off_c, 0, 45, 64
1, 170750, Control_c, 0, 64, 0
1, 170844, Note_on_c, 0, 73, 71
1, 170848, Note_on_c, 0, 69, 72
1, 170849, Note_on_c, 0, 81, 70
1, 170858, Note_on_c, 0, 57, 62
1, 170870, Note_off_c, 0, 73, 70
1, 170873, Note_off_c, 0, 69, 72
1, 170878, Note_off_c, 0, 57, 64
1, 170881, Note_off_c, 0, 81, 59
1, 170960, Note_on_c, 0, 70, 72
1, 170964, Note_on_c, 0, 58, 67
1, 170989, Note_off_c, 0, 70, 62
1, 171000, Note_off_c, 0, 58, 64
1, 171070, Note_on_c, 0, 69, 75
1, 171073, Note_on_c, 0, 74, 75
1, 171074, Note_on_c, 0, 82, 82
1, 171077, Note_on_c, 0, 57, 63
1, 171085, Note_on_c, 0, 70, 74
1, 171095, Note_off_c, 0, 69, 70
1, 171106, Control_c, 0, 64, 69
1, 171107, Note_off_c, 0, 57, 64
1, 171109, Note_off_c, 0, 70, 69
1, 171124, Note_off_c, 0, 74, 63
1, 171127, Control_c, 0, 64, 127
1, 171149, Note_off_c, 0, 82, 61
1, 171208, Note_on_c, 0, 55, 67
1, 171209, Note_on_c, 0, 67, 61
1, 171229, Note_off_c, 0, 67, 61
1, 171232, Note_off_c, 0, 55, 59
1, 171338, Note_on_c, 0, 85, 74
1, 171342, Note_on_c, 0, 76, 73
1, 171347, Note_on_c, 0, 73, 74
1, 171350, Control_c, 0, 64, 111
1, 171365, Control_c, 0, 64, 98
1, 171378, Note_off_c, 0, 73, 62
1, 171379, Control_c, 0, 64, 86
1, 171390, Note_off_c, 0, 76, 65
1, 171394, Control_c, 0, 64, 75
1, 171400, Note_off_c, 0, 85, 64
1, 171409, Control_c, 0, 64, 65
1, 171424, Control_c, 0, 64, 54
1, 171439, Control_c, 0, 64, 39
1, 171448, Note_on_c, 0, 38, 79
1, 171453, Note_on_c, 0, 26, 51
1, 171454, Control_c, 0, 64, 0
1, 171470, Note_off_c, 0, 38, 67
1, 171486, Note_on_c, 0, 28, 16
1, 171490, Note_off_c, 0, 26, 35
1, 171535, Note_off_c, 0, 28, 34
1, 171584, Note_on_c, 0, 74, 78
1, 171584, Note_on_c, 0, 86, 93
1, 171586, Note_on_c, 0, 65, 77
1, 171588, Note_on_c, 0, 53, 73
1, 171588, Note_on_c, 0, 77, 78
1, 171609, Note_off_c, 0, 65, 71
1, 171611, Note_off_c, 0, 77, 67
1, 171612, Note_off_c, 0, 74, 65
1, 171614, Note_off_c, 0, 53, 70
1, 171630, Note_off_c, 0, 86, 62
1, 171696, Note_on_c, 0, 64, 72
1, 171697, Note_on_c, 0, 52, 71
1, 171723, Note_off_c, 0, 64, 67
1, 171728, Note_off_c, 0, 52, 66
1, 171824, Note_on_c, 0, 50, 72
1, 171827, Note_on_c, 0, 62, 66
1, 171829, Note_on_c, 0, 88, 83
1, 171830, Note_on_c, 0, 79, 78
1, 171835, Note_on_c, 0, 76, 72
1, 171839, Control_c, 0, 64, 59
1, 171847, Note_off_c, 0, 62, 64
1, 171854, Control_c, 0, 64, 97
1, 171857, Note_off_c, 0, 50, 62
1, 171872, Note_off_c, 0, 76, 64
1, 171875, Note_off_c, 0, 79, 58
1, 171876, Control_c, 0, 64, 127
1, 171892, Note_off_c, 0, 88, 61
1, 171980, Note_on_c, 0, 57, 54
1, 171981, Note_on_c, 0, 45, 57
1, 172002, Note_off_c, 0, 57, 58
1, 172014, Note_off_c, 0, 45, 65
1, 172125, Note_on_c, 0, 89, 73
1, 172128, Control_c, 0, 64, 107
1, 172129, Note_on_c, 0, 77, 70
1, 172130, Note_on_c, 0, 81, 65
1, 172143, Control_c, 0, 64, 92
1, 172149, Note_off_c, 0, 89, 70
1, 172158, Note_off_c, 0, 81, 65
1, 172158, Control_c, 0, 64, 81
1, 172173, Control_c, 0, 64, 73
1, 172181, Note_off_c, 0, 77, 62
1, 172188, Control_c, 0, 64, 68
1, 172202, Control_c, 0, 64, 62
1, 172217, Control_c, 0, 64, 57
1, 172232, Control_c, 0, 64, 50
1, 172235, Note_on_c, 0, 31, 63
1, 172240, Note_on_c, 0, 43, 69
1, 172247, Control_c, 0, 64, 42
1, 172262, Control_c, 0, 64, 24
1, 172263, Note_off_c, 0, 31, 57
1, 172270, Note_off_c, 0, 43, 64
1, 172277, Control_c, 0, 64, 0
1, 172377, Note_on_c, 0, 71, 64
1, 172379, Note_on_c, 0, 67, 69
1, 172379, Note_on_c, 0, 79, 74
1, 172405, Note_on_c, 0, 55, 46
1, 172405, Note_off_c, 0, 71, 64
1, 172406, Note_off_c, 0, 67, 68
1, 172419, Note_off_c, 0, 79, 56
1, 172429, Note_off_c, 0, 55, 54
1, 172507, Note_on_c, 0, 56, 58
1, 172507, Note_on_c, 0, 68, 66
1, 172537, Note_off_c, 0, 68, 64
1, 172543, Note_off_c, 0, 56, 51
1, 172630, Note_on_c, 0, 72, 73
1, 172632, Note_on_c, 0, 67, 72
1, 172632, Note_on_c, 0, 80, 84
1, 172636, Note_on_c, 0, 55, 66
1, 172636, Note_on_c, 0, 68, 77
1, 172655, Control_c, 0, 64, 54
1, 172658, Note_off_c, 0, 67, 66
1, 172658, Note_off_c, 0, 68, 69
1, 172670, Note_off_c, 0, 55, 62
1, 172670, Control_c, 0, 64, 127
1, 172671, Note_off_c, 0, 72, 66
1, 172692, Note_off_c, 0, 80, 63
1, 172757, Note_on_c, 0, 65, 66
1, 172768, Note_on_c, 0, 53, 56
1, 172775, Note_off_c, 0, 65, 67
1, 172794, Note_off_c, 0, 53, 59
1, 172891, Control_c, 0, 64, 115
1, 172906, Control_c, 0, 64, 99
1, 172912, Note_on_c, 0, 83, 75
1, 172915, Note_on_c, 0, 71, 73
1, 172915, Note_on_c, 0, 74, 64
1, 172921, Control_c, 0, 64, 90
1, 172936, Control_c, 0, 64, 82
1, 172945, Note_off_c, 0, 71, 61
1, 172945, Note_off_c, 0, 74, 67
1, 172951, Control_c, 0, 64, 75
1, 172966, Control_c, 0, 64, 70
1, 172971, Note_off_c, 0, 83, 60
1, 172981, Control_c, 0, 64, 65
1, 172996, Control_c, 0, 64, 59
1, 173010, Note_on_c, 0, 24, 68
1, 173010, Control_c, 0, 64, 50
1, 173016, Note_on_c, 0, 36, 68
1, 173025, Control_c, 0, 64, 41
1, 173040, Control_c, 0, 64, 27
1, 173041, Note_off_c, 0, 24, 59
1, 173044, Note_off_c, 0, 36, 64
1, 173055, Control_c, 0, 64, 0
1, 173154, Note_on_c, 0, 84, 87
1, 173155, Note_on_c, 0, 64, 77
1, 173156, Note_on_c, 0, 76, 82
1, 173157, Note_on_c, 0, 52, 73
1, 173158, Note_on_c, 0, 72, 76
1, 173178, Note_off_c, 0, 64, 70
1, 173184, Note_off_c, 0, 52, 67
1, 173186, Note_off_c, 0, 72, 65
1, 173191, Note_off_c, 0, 76, 65
1, 173203, Note_off_c, 0, 84, 64
1, 173274, Note_on_c, 0, 50, 70
1, 173277, Note_on_c, 0, 62, 67
1, 173308, Note_off_c, 0, 62, 65
1, 173309, Note_off_c, 0, 50, 60
1, 173410, Note_on_c, 0, 86, 80
1, 173413, Note_on_c, 0, 77, 75
1, 173419, Note_on_c, 0, 74, 73
1, 173419, Control_c, 0, 64, 54
1, 173429, Note_on_c, 0, 60, 36
1, 173434, Control_c, 0, 64, 79
1, 173448, Note_off_c, 0, 74, 63
1, 173448, Control_c, 0, 64, 127
1, 173454, Note_off_c, 0, 77, 61
1, 173462, Note_off_c, 0, 60, 44
1, 173473, Note_off_c, 0, 86, 61
1, 173483, Poly_aftertouch_c, 0, 48, 127
1, 173502, Poly_aftertouch_c, 0, 48, 0
1, 173555, Note_on_c, 0, 43, 65
1, 173564, Note_on_c, 0, 55, 47
1, 173586, Note_off_c, 0, 43, 62
1, 173590, Note_off_c, 0, 55, 53
1, 173655, Control_c, 0, 64, 111
1, 173670, Control_c, 0, 64, 100
1, 173677, Note_on_c, 0, 88, 75
1, 173684, Note_on_c, 0, 76, 75
1, 173684, Note_on_c, 0, 79, 66
1, 173685, Control_c, 0, 64, 92
1, 173700, Control_c, 0, 64, 86
1, 173711, Note_off_c, 0, 79, 66
1, 173713, Note_off_c, 0, 76, 66
1, 173714, Control_c, 0, 64, 78
1, 173729, Control_c, 0, 64, 71
1, 173734, Note_off_c, 0, 88, 60
1, 173744, Control_c, 0, 64, 65
1, 173759, Control_c, 0, 64, 60
1, 173774, Control_c, 0, 64, 54
1, 173783, Note_on_c, 0, 26, 70
1, 173788, Control_c, 0, 64, 44
1, 173790, Note_on_c, 0, 38, 66
1, 173803, Control_c, 0, 64, 21
1, 173809, Note_off_c, 0, 26, 57
1, 173818, Control_c, 0, 64, 0
1, 173820, Note_off_c, 0, 38, 65
1, 173923, Note_on_c, 0, 89, 90
1, 173923, Note_on_c, 0, 77, 82
1, 173929, Note_on_c, 0, 82, 75
1, 173930, Note_on_c, 0, 58, 78
1, 173931, Note_on_c, 0, 46, 78
1, 173952, Note_off_c, 0, 82, 68
1, 173953, Note_off_c, 0, 58, 68
1, 173955, Note_off_c, 0, 77, 57
1, 173956, Note_off_c, 0, 46, 64
1, 173970, Note_off_c, 0, 89, 63
1, 174047, Note_on_c, 0, 62, 79
1, 174055, Note_on_c, 0, 50, 66
1, 174069, Note_off_c, 0, 62, 67
1, 174086, Note_off_c, 0, 50, 64
1, 174178, Note_on_c, 0, 60, 74
1, 174179, Note_on_c, 0, 88, 84
1, 174181, Note_on_c, 0, 48, 74
1, 174181, Note_on_c, 0, 76, 83
1, 174184, Note_on_c, 0, 82, 80
1, 174197, Control_c, 0, 64, 54
1, 174202, Note_off_c, 0, 60, 66
1, 174206, Note_off_c, 0, 48, 66
1, 174206, Note_off_c, 0, 82, 67
1, 174211, Note_off_c, 0, 76, 65
1, 174212, Control_c, 0, 64, 89
1, 174227, Control_c, 0, 64, 127
1, 174229, Note_off_c, 0, 88, 60
1, 174297, Note_on_c, 0, 58, 72
1, 174301, Note_on_c, 0, 46, 73
1, 174322, Note_off_c, 0, 58, 67
1, 174337, Note_off_c, 0, 46, 61
1, 174434, Control_c, 0, 64, 103
1, 174449, Control_c, 0, 64, 91
1, 174455, Note_on_c, 0, 86, 72
1, 174459, Note_on_c, 0, 74, 66
1, 174459, Note_on_c, 0, 82, 67
1, 174463, Control_c, 0, 64, 84
1, 174478, Control_c, 0, 64, 78
1, 174492, Note_off_c, 0, 74, 60
1, 174493, Control_c, 0, 64, 73
1, 174508, Control_c, 0, 64, 68
1, 174510, Note_off_c, 0, 82, 61
1, 174513, Note_off_c, 0, 86, 61
1, 174523, Control_c, 0, 64, 63
1, 174537, Control_c, 0, 64, 55
1, 174549, Note_on_c, 0, 24, 77
1, 174552, Control_c, 0, 64, 47
1, 174559, Note_on_c, 0, 36, 68
1, 174567, Control_c, 0, 64, 37
1, 174582, Note_off_c, 0, 24, 64
1, 174582, Control_c, 0, 64, 12
1, 174587, Note_off_c, 0, 36, 64
1, 174596, Control_c, 0, 64, 0
1, 174700, Note_on_c, 0, 45, 69
1, 174703, Note_on_c, 0, 57, 66
1, 174703, Note_on_c, 0, 88, 81
1, 174709, Note_on_c, 0, 76, 77
1, 174712, Note_on_c, 0, 81, 69
1, 174729, Note_off_c, 0, 57, 64
1, 174729, Note_off_c, 0, 45, 66
1, 174738, Note_off_c, 0, 81, 65
1, 174746, Note_off_c, 0, 76, 63
1, 174748, Note_off_c, 0, 88, 57
1, 174817, Note_on_c, 0, 60, 72
1, 174825, Note_on_c, 0, 48, 58
1, 174847, Note_off_c, 0, 60, 62
1, 174853, Note_off_c, 0, 48, 60
1, 174965, Note_on_c, 0, 47, 60
1, 174969, Note_on_c, 0, 86, 78
1, 174972, Note_on_c, 0, 74, 73
1, 174972, Note_on_c, 0, 80, 70
1, 174975, Control_c, 0, 64, 46
1, 174981, Note_on_c, 0, 59, 42
1, 174990, Control_c, 0, 64, 70
1, 175002, Note_off_c, 0, 47, 61
1, 175005, Control_c, 0, 64, 89
1, 175008, Note_off_c, 0, 59, 50
1, 175012, Note_off_c, 0, 74, 59
1, 175014, Note_off_c, 0, 86, 51
1, 175016, Note_off_c, 0, 80, 58
1, 175020, Control_c, 0, 64, 127
1, 175112, Note_on_c, 0, 57, 52
1, 175118, Note_on_c, 0, 45, 53
1, 175137, Note_off_c, 0, 57, 56
1, 175154, Note_off_c, 0, 45, 64
1, 175212, Control_c, 0, 64, 124
1, 175227, Control_c, 0, 64, 106
1, 175242, Control_c, 0, 64, 93
1, 175257, Control_c, 0, 64, 84
1, 175272, Control_c, 0, 64, 77
1, 175286, Control_c, 0, 64, 70
1, 175289, Note_on_c, 0, 72, 68
1, 175290, Note_on_c, 0, 84, 63
1, 175295, Note_on_c, 0, 81, 58
1, 175301, Control_c, 0, 64, 64
1, 175316, Control_c, 0, 64, 58
1, 175328, Note_off_c, 0, 72, 62
1, 175330, Note_off_c, 0, 81, 61
1, 175330, Note_off_c, 0, 84, 57
1, 175331, Control_c, 0, 64, 48
1, 175346, Control_c, 0, 64, 37
1, 175360, Control_c, 0, 64, 22
1, 175376, Control_c, 0, 64, 0
1, 175385, Note_on_c, 0, 41, 71
1, 175386, Note_on_c, 0, 29, 61
1, 175411, Note_off_c, 0, 41, 67
1, 175416, Note_off_c, 0, 29, 50
1, 175516, Note_on_c, 0, 71, 81
1, 175518, Note_on_c, 0, 81, 72
1, 175518, Note_on_c, 0, 83, 71
1, 175523, Note_on_c, 0, 50, 71
1, 175530, Note_on_c, 0, 62, 66
1, 175547, Note_off_c, 0, 71, 58
1, 175549, Note_off_c, 0, 50, 62
1, 175549, Note_off_c, 0, 62, 61
1, 175550, Note_off_c, 0, 83, 59
1, 175556, Note_off_c, 0, 81, 57
1, 175638, Note_on_c, 0, 63, 81
1, 175645, Note_on_c, 0, 51, 71
1, 175659, Note_off_c, 0, 63, 68
1, 175671, Note_off_c, 0, 51, 64
1, 175768, Note_on_c, 0, 29, 77
1, 175769, Note_on_c, 0, 40, 80
1, 175792, Note_off_c, 0, 40, 67
1, 175796, Note_off_c, 0, 29, 63
1, 175902, Note_on_c, 0, 72, 81
1, 175904, Note_on_c, 0, 63, 82
1, 175904, Note_on_c, 0, 84, 77
1, 175905, Note_on_c, 0, 81, 74
1, 175920, Note_on_c, 0, 51, 55
1, 175929, Note_off_c, 0, 63, 60
1, 175937, Note_off_c, 0, 84, 58
1, 175938, Note_off_c, 0, 81, 60
1, 175947, Note_off_c, 0, 72, 58
1, 175950, Note_off_c, 0, 51, 63
1, 176017, Note_on_c, 0, 64, 73
1, 176021, Note_on_c, 0, 52, 76
1, 176042, Note_off_c, 0, 64, 70
1, 176049, Note_off_c, 0, 52, 68
1, 176156, Note_on_c, 0, 33, 73
1, 176161, Note_on_c, 0, 45, 70
1, 176179, Note_off_c, 0, 33, 64
1, 176192, Note_off_c, 0, 45, 66
1, 176293, Note_on_c, 0, 71, 66
1, 176293, Note_on_c, 0, 83, 72
1, 176296, Note_on_c, 0, 80, 70
1, 176297, Note_on_c, 0, 62, 68
1, 176302, Note_on_c, 0, 50, 58
1, 176312, Note_off_c, 0, 71, 65
1, 176324, Note_off_c, 0, 80, 66
1, 176325, Note_off_c, 0, 50, 58
1, 176325, Note_off_c, 0, 62, 65
1, 176333, Note_off_c, 0, 83, 60
1, 176413, Note_on_c, 0, 64, 71
1, 176415, Note_on_c, 0, 52, 70
1, 176443, Note_off_c, 0, 64, 63
1, 176452, Note_off_c, 0, 52, 60
1, 176540, Note_on_c, 0, 92, 82
1, 176556, Note_on_c, 0, 83, 61
1, 176558, Note_on_c, 0, 80, 64
1, 176560, Note_on_c, 0, 62, 57
1, 176561, Note_on_c, 0, 50, 56
1, 176563, Control_c, 0, 64, 57
1, 176578, Control_c, 0, 64, 84
1, 176583, Note_off_c, 0, 62, 61
1, 176591, Note_off_c, 0, 50, 60
1, 176592, Control_c, 0, 64, 127
1, 176596, Note_off_c, 0, 83, 58
1, 176611, Note_off_c, 0, 80, 57
1, 176620, Note_off_c, 0, 92, 65
1, 176691, Note_on_c, 0, 48, 60
1, 176693, Note_on_c, 0, 60, 44
1, 176721, Note_off_c, 0, 60, 53
1, 176725, Note_off_c, 0, 48, 65
1, 176799, Control_c, 0, 64, 120
1, 176814, Control_c, 0, 64, 102
1, 176829, Control_c, 0, 64, 92
1, 176844, Control_c, 0, 64, 85
1, 176859, Control_c, 0, 64, 78
1, 176868, Note_on_c, 0, 93, 72
1, 176872, Note_on_c, 0, 84, 60
1, 176874, Control_c, 0, 64, 72
1, 176876, Note_on_c, 0, 81, 62
1, 176888, Control_c, 0, 64, 67
1, 176895, Note_off_c, 0, 93, 61
1, 176903, Control_c, 0, 64, 63
1, 176908, Note_off_c, 0, 84, 65
1, 176918, Control_c, 0, 64, 59
1, 176927, Note_off_c, 0, 81, 57
1, 176932, Control_c, 0, 64, 55
1, 176947, Control_c, 0, 64, 51
1, 176962, Control_c, 0, 64, 47
1, 176977, Control_c, 0, 64, 42
1, 176983, Note_on_c, 0, 33, 60
1, 176989, Note_on_c, 0, 45, 59
1, 176991, Control_c, 0, 64, 34
1, 177006, Control_c, 0, 64, 21
1, 177011, Note_off_c, 0, 33, 58
1, 177018, Note_off_c, 0, 45, 64
1, 177021, Control_c, 0, 64, 0
1, 177140, Note_on_c, 0, 73, 71
1, 177146, Note_on_c, 0, 81, 73
1, 177150, Note_on_c, 0, 69, 70
1, 177159, Note_on_c, 0, 57, 58
1, 177163, Note_off_c, 0, 73, 70
1, 177175, Note_off_c, 0, 69, 68
1, 177177, Note_off_c, 0, 81, 61
1, 177181, Note_off_c, 0, 57, 59
1, 177252, Note_on_c, 0, 58, 71
1, 177261, Note_on_c, 0, 70, 63
1, 177289, Note_off_c, 0, 58, 63
1, 177290, Note_off_c, 0, 70, 67
1, 177359, Note_on_c, 0, 69, 78
1, 177370, Note_on_c, 0, 57, 69
1, 177383, Note_on_c, 0, 82, 81
1, 177383, Note_on_c, 0, 74, 75
1, 177386, Note_on_c, 0, 70, 69
1, 177388, Note_off_c, 0, 69, 65
1, 177399, Note_off_c, 0, 57, 66
1, 177400, Control_c, 0, 64, 65
1, 177414, Control_c, 0, 64, 127
1, 177417, Note_off_c, 0, 70, 65
1, 177422, Note_off_c, 0, 74, 64
1, 177446, Note_off_c, 0, 82, 60
1, 177502, Note_on_c, 0, 55, 63
1, 177506, Note_on_c, 0, 67, 50
1, 177530, Note_off_c, 0, 67, 57
1, 177534, Note_off_c, 0, 55, 63
1, 177632, Note_on_c, 0, 85, 74
1, 177634, Note_on_c, 0, 76, 71
1, 177637, Note_on_c, 0, 73, 73
1, 177652, Control_c, 0, 64, 111
1, 177667, Control_c, 0, 64, 101
1, 177676, Note_off_c, 0, 73, 60
1, 177677, Note_off_c, 0, 76, 63
1, 177681, Control_c, 0, 64, 93
1, 177694, Note_off_c, 0, 85, 63
1, 177696, Control_c, 0, 64, 87
1, 177711, Control_c, 0, 64, 81
1, 177725, Control_c, 0, 64, 75
1, 177739, Note_on_c, 0, 26, 72
1, 177740, Control_c, 0, 64, 70
1, 177744, Note_on_c, 0, 38, 76
1, 177755, Control_c, 0, 64, 65
1, 177765, Note_off_c, 0, 26, 57
1, 177770, Note_off_c, 0, 38, 67
1, 177770, Control_c, 0, 64, 57
1, 177785, Control_c, 0, 64, 43
1, 177800, Control_c, 0, 64, 11
1, 177814, Control_c, 0, 64, 0
1, 177897, Note_on_c, 0, 86, 89
1, 177899, Note_on_c, 0, 77, 76
1, 177899, Note_on_c, 0, 74, 76
1, 177902, Note_on_c, 0, 65, 74
1, 177906, Note_on_c, 0, 53, 65
1, 177924, Note_off_c, 0, 77, 66
1, 177925, Note_off_c, 0, 53, 65
1, 177926, Note_off_c, 0, 74, 66
1, 177927, Note_off_c, 0, 65, 71
1, 177944, Note_off_c, 0, 86, 60
1, 178008, Note_on_c, 0, 64, 73
1, 178012, Note_on_c, 0, 52, 69
1, 178036, Note_off_c, 0, 64, 64
1, 178043, Note_off_c, 0, 52, 67
1, 178140, Note_on_c, 0, 88, 85
1, 178142, Note_on_c, 0, 62, 71
1, 178143, Note_on_c, 0, 79, 77
1, 178144, Note_on_c, 0, 50, 73
1, 178146, Note_on_c, 0, 76, 78
1, 178149, Control_c, 0, 64, 58
1, 178164, Control_c, 0, 64, 113
1, 178170, Note_off_c, 0, 62, 66
1, 178173, Note_off_c, 0, 50, 64
1, 178177, Note_off_c, 0, 76, 64
1, 178179, Control_c, 0, 64, 127
1, 178185, Note_off_c, 0, 79, 58
1, 178197, Note_off_c, 0, 88, 61
1, 178285, Note_on_c, 0, 45, 67
1, 178293, Note_on_c, 0, 57, 42
1, 178316, Note_off_c, 0, 45, 65
1, 178319, Note_off_c, 0, 57, 54
1, 178424, Note_on_c, 0, 89, 72
1, 178430, Note_on_c, 0, 77, 73
1, 178430, Control_c, 0, 64, 102
1, 178432, Note_on_c, 0, 81, 61
1, 178445, Control_c, 0, 64, 88
1, 178448, Note_off_c, 0, 89, 69
1, 178460, Control_c, 0, 64, 78
1, 178461, Note_off_c, 0, 81, 65
1, 178474, Control_c, 0, 64, 71
1, 178482, Note_off_c, 0, 77, 61
1, 178489, Control_c, 0, 64, 64
1, 178504, Control_c, 0, 64, 60
1, 178519, Control_c, 0, 64, 54
1, 178530, Note_on_c, 0, 31, 63
1, 178534, Control_c, 0, 64, 45
1, 178537, Note_on_c, 0, 43, 63
1, 178548, Control_c, 0, 64, 26
1, 178556, Note_off_c, 0, 31, 58
1, 178563, Control_c, 0, 64, 0
1, 178569, Note_off_c, 0, 43, 63
1, 178678, Note_on_c, 0, 79, 73
1, 178683, Note_on_c, 0, 67, 67
1, 178685, Note_on_c, 0, 71, 59
1, 178693, Note_on_c, 0, 55, 65
1, 178707, Note_off_c, 0, 67, 66
1, 178707, Note_off_c, 0, 71, 62
1, 178713, Note_off_c, 0, 55, 62
1, 178717, Note_off_c, 0, 79, 57
1, 178805, Note_on_c, 0, 56, 57
1, 178805, Note_on_c, 0, 68, 66
1, 178832, Note_off_c, 0, 68, 68
1, 178836, Note_off_c, 0, 56, 55
1, 178920, Note_on_c, 0, 80, 83
1, 178921, Note_on_c, 0, 68, 70
1, 178922, Note_on_c, 0, 72, 67
1, 178925, Note_on_c, 0, 67, 65
1, 178928, Control_c, 0, 64, 16
1, 178928, Note_on_c, 0, 55, 61
1, 178942, Control_c, 0, 64, 81
1, 178946, Note_off_c, 0, 68, 66
1, 178951, Note_off_c, 0, 67, 65
1, 178957, Control_c, 0, 64, 127
1, 178958, Note_off_c, 0, 72, 65
1, 178963, Note_off_c, 0, 55, 62
1, 178977, Note_off_c, 0, 80, 65
1, 179054, Note_on_c, 0, 65, 48
1, 179057, Note_on_c, 0, 53, 60
1, 179080, Note_off_c, 0, 65, 59
1, 179089, Note_off_c, 0, 53, 66
1, 179178, Control_c, 0, 64, 109
1, 179193, Control_c, 0, 64, 100
1, 179207, Note_on_c, 0, 83, 65
1, 179208, Control_c, 0, 64, 93
1, 179211, Note_on_c, 0, 71, 64
1, 179213, Note_on_c, 0, 74, 56
1, 179223, Control_c, 0, 64, 88
1, 179238, Control_c, 0, 64, 83
1, 179243, Note_off_c, 0, 74, 68
1, 179248, Note_off_c, 0, 71, 57
1, 179252, Control_c, 0, 64, 77
1, 179264, Note_off_c, 0, 83, 59
1, 179267, Control_c, 0, 64, 71
1, 179282, Control_c, 0, 64, 67
1, 179297, Control_c, 0, 64, 63
1, 179306, Note_on_c, 0, 24, 67
1, 179312, Control_c, 0, 64, 60
1, 179319, Note_on_c, 0, 36, 59
1, 179326, Control_c, 0, 64, 58
1, 179339, Note_off_c, 0, 24, 54
1, 179341, Control_c, 0, 64, 55
1, 179344, Note_off_c, 0, 36, 57
1, 179363, Control_c, 0, 64, 52
1, 179378, Control_c, 0, 64, 48
1, 179393, Control_c, 0, 64, 42
1, 179407, Control_c, 0, 64, 31
1, 179422, Control_c, 0, 64, 0
1, 179455, Note_on_c, 0, 76, 74
1, 179456, Note_on_c, 0, 72, 78
1, 179458, Note_on_c, 0, 84, 81
1, 179460, Note_on_c, 0, 64, 73
1, 179464, Note_on_c, 0, 52, 69
1, 179481, Note_off_c, 0, 76, 67
1, 179482, Note_off_c, 0, 72, 66
1, 179485, Note_off_c, 0, 64, 69
1, 179490, Note_off_c, 0, 84, 56
1, 179494, Note_off_c, 0, 52, 66
1, 179574, Note_on_c, 0, 62, 71
1, 179580, Note_on_c, 0, 50, 64
1, 179602, Note_off_c, 0, 62, 65
1, 179613, Note_off_c, 0, 50, 65
1, 179700, Note_on_c, 0, 86, 81
1, 179702, Note_on_c, 0, 48, 66
1, 179702, Note_on_c, 0, 60, 59
1, 179703, Note_on_c, 0, 77, 73
1, 179704, Note_on_c, 0, 74, 69
1, 179720, Control_c, 0, 64, 63
1, 179721, Note_off_c, 0, 60, 62
1, 179732, Note_off_c, 0, 48, 65
1, 179735, Control_c, 0, 64, 96
1, 179738, Note_off_c, 0, 74, 61
1, 179739, Note_off_c, 0, 77, 61
1, 179750, Control_c, 0, 64, 127
1, 179754, Note_off_c, 0, 86, 63
1, 179840, Note_on_c, 0, 55, 60
1, 179841, Note_on_c, 0, 43, 65
1, 179861, Note_off_c, 0, 55, 60
1, 179873, Note_off_c, 0, 43, 62
1, 179986, Note_on_c, 0, 88, 75
1, 179986, Control_c, 0, 64, 115
1, 179988, Note_on_c, 0, 76, 72
1, 179995, Note_on_c, 0, 79, 64
1, 180001, Control_c, 0, 64, 102
1, 180016, Control_c, 0, 64, 93
1, 180019, Note_off_c, 0, 76, 63
1, 180022, Note_off_c, 0, 79, 66
1, 180030, Control_c, 0, 64, 85
1, 180040, Note_off_c, 0, 88, 61
1, 180045, Control_c, 0, 64, 79
1, 180060, Control_c, 0, 64, 74
1, 180075, Control_c, 0, 64, 69
1, 180090, Control_c, 0, 64, 64
1, 180103, Note_on_c, 0, 26, 63
1, 180105, Note_on_c, 0, 38, 70
1, 180112, Control_c, 0, 64, 58
1, 180127, Control_c, 0, 64, 51
1, 180132, Note_off_c, 0, 26, 51
1, 180132, Note_off_c, 0, 38, 66
1, 180141, Control_c, 0, 64, 46
1, 180156, Control_c, 0, 64, 39
1, 180171, Control_c, 0, 64, 26
1, 180186, Control_c, 0, 64, 0
1, 180235, Note_on_c, 0, 89, 84
1, 180238, Note_on_c, 0, 82, 76
1, 180239, Note_on_c, 0, 77, 75
1, 180252, Note_on_c, 0, 58, 73
1, 180253, Note_on_c, 0, 46, 69
1, 180263, Note_off_c, 0, 82, 66
1, 180268, Note_off_c, 0, 77, 64
1, 180272, Note_off_c, 0, 89, 57
1, 180277, Note_off_c, 0, 58, 68
1, 180281, Note_off_c, 0, 46, 64
1, 180352, Note_on_c, 0, 62, 83
1, 180358, Note_on_c, 0, 50, 73
1, 180376, Note_off_c, 0, 62, 66
1, 180386, Note_off_c, 0, 50, 66
1, 180484, Control_c, 0, 64, 32
1, 180486, Note_on_c, 0, 88, 82
1, 180487, Note_on_c, 0, 60, 65
1, 180487, Note_on_c, 0, 76, 80
1, 180490, Note_on_c, 0, 48, 62
1, 180493, Note_on_c, 0, 82, 68
1, 180498, Control_c, 0, 64, 83
1, 180510, Note_off_c, 0, 76, 70
1, 180513, Control_c, 0, 64, 127
1, 180516, Note_off_c, 0, 60, 63
1, 180516, Note_off_c, 0, 88, 58
1, 180517, Note_off_c, 0, 82, 67
1, 180520, Note_off_c, 0, 48, 66
1, 180617, Note_on_c, 0, 46, 67
1, 180620, Note_on_c, 0, 58, 55
1, 180640, Note_off_c, 0, 58, 61
1, 180651, Note_off_c, 0, 46, 62
1, 180749, Control_c, 0, 64, 110
1, 180764, Control_c, 0, 64, 98
1, 180779, Note_on_c, 0, 86, 68
1, 180779, Control_c, 0, 64, 87
1, 180781, Note_on_c, 0, 82, 61
1, 180785, Note_on_c, 0, 74, 59
1, 180794, Control_c, 0, 64, 80
1, 180809, Control_c, 0, 64, 73
1, 180811, Note_off_c, 0, 74, 66
1, 180814, Note_off_c, 0, 86, 58
1, 180820, Note_off_c, 0, 82, 54
1, 180823, Control_c, 0, 64, 69
1, 180838, Control_c, 0, 64, 64
1, 180861, Control_c, 0, 64, 57
1, 180876, Control_c, 0, 64, 46
1, 180891, Control_c, 0, 64, 34
1, 180902, Note_on_c, 0, 24, 59
1, 180904, Note_on_c, 0, 36, 69
1, 180905, Control_c, 0, 64, 0
1, 180936, Note_off_c, 0, 36, 64
1, 180939, Note_off_c, 0, 24, 52
1, 181044, Note_on_c, 0, 88, 84
1, 181046, Note_on_c, 0, 45, 59
1, 181049, Note_on_c, 0, 57, 63
1, 181050, Note_on_c, 0, 81, 78
1, 181053, Note_on_c, 0, 76, 75
1, 181068, Note_off_c, 0, 45, 59
1, 181068, Note_off_c, 0, 57, 61
1, 181071, Note_off_c, 0, 81, 67
1, 181075, Note_off_c, 0, 76, 73
1, 181077, Note_off_c, 0, 88, 61
1, 181166, Note_on_c, 0, 60, 70
1, 181166, Note_on_c, 0, 48, 67
1, 181192, Note_off_c, 0, 60, 66
1, 181198, Note_off_c, 0, 48, 65
1, 181305, Note_on_c, 0, 86, 82
1, 181309, Note_on_c, 0, 74, 74
1, 181309, Note_on_c, 0, 80, 79
1, 181315, Note_on_c, 0, 47, 63
1, 181321, Note_on_c, 0, 59, 50
1, 181321, Control_c, 0, 64, 38
1, 181336, Control_c, 0, 64, 85
1, 181339, Note_off_c, 0, 74, 65
1, 181343, Note_off_c, 0, 59, 58
1, 181343, Note_off_c, 0, 80, 60
1, 181348, Note_off_c, 0, 47, 64
1, 181351, Control_c, 0, 64, 127
1, 181351, Note_off_c, 0, 86, 62
1, 181457, Note_on_c, 0, 45, 54
1, 181473, Note_on_c, 0, 57, 17
1, 181491, Note_off_c, 0, 45, 65
1, 181514, Note_off_c, 0, 57, 43
1, 181612, Note_on_c, 0, 81, 63
1, 181615, Note_on_c, 0, 72, 62
1, 181616, Note_on_c, 0, 84, 63
1, 181640, Control_c, 0, 64, 121
1, 181646, Note_off_c, 0, 72, 68
1, 181646, Note_off_c, 0, 84, 66
1, 181654, Control_c, 0, 64, 98
1, 181664, Note_off_c, 0, 81, 61
1, 181669, Control_c, 0, 64, 84
1, 181684, Control_c, 0, 64, 74
1, 181699, Control_c, 0, 64, 66
1, 181714, Control_c, 0, 64, 59
1, 181728, Control_c, 0, 64, 43
1, 181730, Note_on_c, 0, 29, 68
1, 181732, Note_on_c, 0, 41, 71
1, 181743, Control_c, 0, 64, 0
1, 181759, Note_off_c, 0, 29, 59
1, 181759, Note_off_c, 0, 41, 67
1, 181865, Note_on_c, 0, 71, 73
1, 181867, Note_on_c, 0, 83, 71
1, 181868, Note_on_c, 0, 81, 75
1, 181878, Note_on_c, 0, 50, 67
1, 181885, Note_on_c, 0, 62, 58
1, 181898, Note_off_c, 0, 50, 63
1, 181900, Note_off_c, 0, 71, 58
1, 181906, Note_off_c, 0, 81, 55
1, 181907, Note_off_c, 0, 62, 58
1, 181914, Note_off_c, 0, 83, 57
1, 181974, Note_on_c, 0, 63, 77
1, 181978, Note_on_c, 0, 51, 73
1, 181995, Note_off_c, 0, 63, 67
1, 182003, Note_off_c, 0, 51, 65
1, 182111, Note_on_c, 0, 28, 65
1, 182119, Note_on_c, 0, 29, 54
1, 182120, Note_on_c, 0, 40, 47
1, 182121, Note_off_c, 0, 40, 127
1, 182123, Note_on_c, 0, 41, 54
1, 182126, Note_on_c, 0, 30, 42
1, 182127, Note_off_c, 0, 30, 127
1, 182141, Note_off_c, 0, 28, 39
1, 182152, Note_off_c, 0, 41, 57
1, 182155, Note_off_c, 0, 29, 35
1, 182242, Note_on_c, 0, 63, 78
1, 182245, Note_on_c, 0, 72, 72
1, 182248, Note_on_c, 0, 84, 72
1, 182250, Note_on_c, 0, 81, 72
1, 182266, Note_on_c, 0, 51, 33
1, 182274, Note_off_c, 0, 63, 58
1, 182281, Note_off_c, 0, 81, 59
1, 182284, Note_off_c, 0, 84, 57
1, 182295, Note_off_c, 0, 72, 56
1, 182299, Note_off_c, 0, 51, 33
1, 182367, Note_on_c, 0, 64, 71
1, 182372, Note_on_c, 0, 52, 75
1, 182394, Note_off_c, 0, 64, 68
1, 182398, Note_off_c, 0, 52, 70
1, 182508, Note_on_c, 0, 45, 78
1, 182514, Note_on_c, 0, 33, 58
1, 182531, Note_off_c, 0, 45, 67
1, 182540, Note_off_c, 0, 33, 59
1, 182647, Note_on_c, 0, 71, 70
1, 182648, Note_on_c, 0, 80, 71
1, 182651, Note_on_c, 0, 83, 71
1, 182653, Note_on_c, 0, 62, 68
1, 182659, Note_on_c, 0, 50, 58
1, 182671, Note_off_c, 0, 71, 67
1, 182681, Note_off_c, 0, 80, 59
1, 182682, Note_off_c, 0, 50, 57
1, 182683, Note_off_c, 0, 62, 64
1, 182686, Note_off_c, 0, 83, 59
1, 182775, Note_on_c, 0, 64, 67
1, 182782, Note_on_c, 0, 52, 57
1, 182804, Note_off_c, 0, 64, 66
1, 182816, Note_off_c, 0, 52, 64
1, 182911, Note_on_c, 0, 92, 79
1, 182921, Note_on_c, 0, 80, 64
1, 182922, Note_on_c, 0, 83, 63
1, 182922, Control_c, 0, 64, 47
1, 182935, Note_on_c, 0, 62, 51
1, 182937, Control_c, 0, 64, 68
1, 182939, Note_on_c, 0, 50, 47
1, 182952, Control_c, 0, 64, 85
1, 182959, Note_off_c, 0, 62, 56
1, 182967, Control_c, 0, 64, 127
1, 182967, Note_off_c, 0, 50, 53
1, 182975, Note_off_c, 0, 83, 60
1, 182982, Note_off_c, 0, 80, 58
1, 182998, Note_off_c, 0, 92, 64
1, 183090, Note_on_c, 0, 48, 48
1, 183090, Note_on_c, 0, 60, 48
1, 183122, Note_off_c, 0, 60, 54
1, 183123, Note_off_c, 0, 48, 57
1, 183196, Control_c, 0, 64, 113
1, 183211, Control_c, 0, 64, 105
1, 183226, Control_c, 0, 64, 96
1, 183241, Control_c, 0, 64, 89
1, 183256, Control_c, 0, 64, 83
1, 183271, Control_c, 0, 64, 79
1, 183280, Note_on_c, 0, 93, 63
1, 183286, Control_c, 0, 64, 76
1, 183289, Note_on_c, 0, 81, 53
1, 183289, Note_on_c, 0, 84, 50
1, 183300, Control_c, 0, 64, 73
1, 183315, Control_c, 0, 64, 70
1, 183330, Control_c, 0, 64, 68
1, 183345, Control_c, 0, 64, 65
1, 183359, Control_c, 0, 64, 63
1, 183374, Control_c, 0, 64, 61
1, 183389, Control_c, 0, 64, 60
1, 183404, Control_c, 0, 64, 59
1, 183408, Note_off_c, 0, 81, 49
1, 183419, Control_c, 0, 64, 57
1, 183435, Control_c, 0, 64, 54
1, 183447, Note_off_c, 0, 84, 35
1, 183449, Control_c, 0, 64, 50
1, 183464, Control_c, 0, 64, 47
1, 183479, Control_c, 0, 64, 43
1, 183494, Control_c, 0, 64, 39
1, 183509, Control_c, 0, 64, 32
1, 183523, Control_c, 0, 64, 19
1, 183538, Control_c, 0, 64, 0
1, 183546, Note_off_c, 0, 93, 60
1, 183945, Control_c, 0, 64, 36
1, 183948, Note_on_c, 0, 33, 48
1, 183953, Note_on_c, 0, 93, 69
1, 183956, Note_on_c, 0, 81, 57
1, 183960, Control_c, 0, 64, 63
1, 183962, Note_on_c, 0, 45, 41
1, 183974, Control_c, 0, 64, 78
1, 183989, Control_c, 0, 64, 120
1, 184004, Control_c, 0, 64, 127
1, 184007, Note_off_c, 0, 45, 63
1, 184009, Note_off_c, 0, 33, 60
1, 184011, Note_off_c, 0, 81, 55
1, 184023, Note_off_c, 0, 93, 60
1, 184126, Note_on_c, 0, 95, 89
1, 184131, Note_on_c, 0, 83, 74
1, 184132, Note_on_c, 0, 44, 64
1, 184135, Note_on_c, 0, 32, 61
1, 184164, Note_off_c, 0, 44, 64
1, 184166, Note_off_c, 0, 32, 62
1, 184168, Note_off_c, 0, 83, 59
1, 184187, Note_off_c, 0, 95, 63
1, 184262, Note_on_c, 0, 97, 93
1, 184263, Note_on_c, 0, 85, 86
1, 184268, Note_on_c, 0, 43, 75
1, 184269, Note_on_c, 0, 31, 77
1, 184302, Note_off_c, 0, 43, 62
1, 184307, Note_off_c, 0, 31, 62
1, 184321, Note_off_c, 0, 85, 62
1, 184331, Note_off_c, 0, 97, 65
1, 184394, Note_on_c, 0, 98, 100
1, 184395, Note_on_c, 0, 30, 84
1, 184395, Note_on_c, 0, 42, 88
1, 184395, Note_on_c, 0, 86, 100
1, 184434, Note_off_c, 0, 30, 64
1, 184436, Note_off_c, 0, 86, 66
1, 184436, Note_off_c, 0, 42, 59
1, 184445, Note_off_c, 0, 98, 68
1, 184513, Note_on_c, 0, 41, 92
1, 184514, Note_on_c, 0, 87, 100
1, 184516, Note_on_c, 0, 29, 88
1, 184516, Note_on_c, 0, 99, 99
1, 184550, Note_off_c, 0, 41, 63
1, 184551, Note_off_c, 0, 29, 64
1, 184568, Control_c, 0, 64, 95
1, 184583, Control_c, 0, 64, 69
1, 184586, Note_off_c, 0, 87, 62
1, 184600, Note_off_c, 0, 99, 63
1, 184605, Control_c, 0, 64, 0
1, 184648, Note_on_c, 0, 40, 95
1, 184651, Note_on_c, 0, 28, 78
1, 184657, Note_on_c, 0, 100, 96
1, 184657, Note_on_c, 0, 88, 98
1, 184665, Control_c, 0, 64, 63
1, 184672, Note_off_c, 0, 100, 68
1, 184675, Note_off_c, 0, 28, 60
1, 184679, Control_c, 0, 64, 108
1, 184682, Note_off_c, 0, 40, 66
1, 184694, Control_c, 0, 64, 127
1, 184696, Note_on_c, 0, 98, 45
1, 184699, Note_on_c, 0, 29, 11
1, 184700, Note_off_c, 0, 88, 65
1, 184721, Note_off_c, 0, 98, 56
1, 184746, Note_off_c, 0, 29, 37
1, 184914, Note_on_c, 0, 64, 73
1, 184916, Note_on_c, 0, 52, 70
1, 184925, Note_on_c, 0, 76, 74
1, 184934, Note_on_c, 0, 68, 68
1, 184990, Note_off_c, 0, 68, 63
1, 185040, Note_on_c, 0, 75, 80
1, 185048, Note_on_c, 0, 54, 70
1, 185051, Note_off_c, 0, 76, 62
1, 185052, Note_on_c, 0, 69, 76
1, 185088, Note_off_c, 0, 69, 62
1, 185089, Note_off_c, 0, 52, 60
1, 185103, Note_off_c, 0, 75, 62
1, 185171, Note_on_c, 0, 71, 83
1, 185172, Note_on_c, 0, 74, 78
1, 185178, Note_on_c, 0, 56, 72
1, 185199, Note_off_c, 0, 54, 61
1, 185237, Note_off_c, 0, 56, 62
1, 185290, Note_on_c, 0, 69, 78
1, 185293, Note_off_c, 0, 71, 53
1, 185294, Note_on_c, 0, 72, 75
1, 185301, Note_off_c, 0, 74, 58
1, 185307, Note_on_c, 0, 57, 69
1, 185362, Note_off_c, 0, 69, 60
1, 185380, Note_off_c, 0, 72, 63
1, 185410, Note_on_c, 0, 59, 77
1, 185413, Note_on_c, 0, 71, 75
1, 185417, Note_off_c, 0, 57, 58
1, 185423, Note_on_c, 0, 68, 71
1, 185453, Note_off_c, 0, 68, 66
1, 185471, Note_off_c, 0, 59, 63
1, 185474, Control_c, 0, 64, 118
1, 185489, Control_c, 0, 64, 79
1, 185492, Note_off_c, 0, 71, 58
1, 185503, Control_c, 0, 64, 47
1, 185518, Control_c, 0, 64, 0
1, 185556, Note_on_c, 0, 57, 72
1, 185557, Note_on_c, 0, 69, 89
1, 185557, Note_on_c, 0, 72, 86
1, 185562, Control_c, 0, 64, 48
1, 185577, Control_c, 0, 64, 84
1, 185578, Note_off_c, 0, 64, 65
1, 185590, Note_off_c, 0, 69, 64
1, 185592, Control_c, 0, 64, 127
1, 185603, Note_off_c, 0, 57, 65
1, 185613, Note_off_c, 0, 72, 65
1, 185767, Note_on_c, 0, 45, 72
1, 185773, Note_on_c, 0, 81, 81
1, 185777, Note_on_c, 0, 33, 64
1, 185777, Note_on_c, 0, 93, 82
1, 185794, Note_off_c, 0, 45, 66
1, 185805, Note_off_c, 0, 33, 63
1, 185819, Note_off_c, 0, 81, 56
1, 185824, Note_off_c, 0, 93, 60
1, 185912, Note_on_c, 0, 32, 79
1, 185915, Note_on_c, 0, 44, 74
1, 185919, Note_on_c, 0, 95, 102
1, 185921, Note_on_c, 0, 83, 88
1, 185949, Note_off_c, 0, 44, 61
1, 185954, Note_off_c, 0, 32, 62
1, 185960, Note_off_c, 0, 83, 63
1, 185967, Note_off_c, 0, 95, 67
1, 186043, Note_on_c, 0, 43, 92
1, 186046, Note_on_c, 0, 31, 87
1, 186048, Note_on_c, 0, 97, 100
1, 186050, Note_on_c, 0, 85, 96
1, 186079, Note_off_c, 0, 43, 61
1, 186079, Note_off_c, 0, 31, 65
1, 186109, Note_off_c, 0, 85, 62
1, 186117, Note_off_c, 0, 97, 65
1, 186177, Note_on_c, 0, 30, 93
1, 186177, Note_on_c, 0, 42, 96
1, 186185, Note_on_c, 0, 98, 103
1, 186188, Note_on_c, 0, 86, 101
1, 186209, Note_off_c, 0, 30, 66
1, 186218, Note_off_c, 0, 42, 62
1, 186228, Note_off_c, 0, 86, 65
1, 186234, Note_off_c, 0, 98, 67
1, 186302, Note_on_c, 0, 41, 95
1, 186305, Note_on_c, 0, 29, 85
1, 186308, Note_on_c, 0, 87, 103
1, 186308, Note_on_c, 0, 99, 102
1, 186339, Note_off_c, 0, 29, 64
1, 186347, Note_off_c, 0, 41, 64
1, 186356, Control_c, 0, 64, 87
1, 186370, Control_c, 0, 64, 60
1, 186371, Note_off_c, 0, 87, 61
1, 186374, Note_off_c, 0, 99, 63
1, 186385, Control_c, 0, 64, 0
1, 186430, Control_c, 0, 64, 33
1, 186434, Note_on_c, 0, 40, 97
1, 186437, Note_on_c, 0, 28, 74
1, 186442, Note_on_c, 0, 88, 102
1, 186442, Note_on_c, 0, 100, 106
1, 186444, Control_c, 0, 64, 72
1, 186452, Note_on_c, 0, 29, 59
1, 186459, Control_c, 0, 64, 127
1, 186462, Note_off_c, 0, 28, 59
1, 186464, Note_off_c, 0, 100, 64
1, 186466, Note_off_c, 0, 40, 66
1, 186471, Note_on_c, 0, 98, 59
1, 186481, Note_off_c, 0, 29, 55
1, 186487, Note_off_c, 0, 88, 64
1, 186487, Note_off_c, 0, 98, 66
1, 186682, Note_on_c, 0, 64, 83
1, 186684, Note_on_c, 0, 52, 75
1, 186692, Note_on_c, 0, 68, 70
1, 186694, Note_on_c, 0, 76, 75
1, 186759, Note_off_c, 0, 68, 63
1, 186818, Note_on_c, 0, 75, 87
1, 186825, Note_on_c, 0, 54, 75
1, 186831, Note_on_c, 0, 69, 77
1, 186851, Note_off_c, 0, 76, 62
1, 186878, Note_off_c, 0, 52, 58
1, 186890, Note_off_c, 0, 69, 66
1, 186896, Note_off_c, 0, 75, 63
1, 186958, Note_on_c, 0, 56, 79
1, 186960, Note_on_c, 0, 74, 86
1, 186965, Note_on_c, 0, 71, 84
1, 186973, Note_off_c, 0, 54, 61
1, 187015, Note_off_c, 0, 56, 63
1, 187076, Note_on_c, 0, 69, 80
1, 187087, Note_on_c, 0, 72, 82
1, 187089, Note_on_c, 0, 57, 73
1, 187101, Note_off_c, 0, 71, 45
1, 187108, Note_off_c, 0, 74, 62
1, 187143, Note_off_c, 0, 69, 63
1, 187167, Note_off_c, 0, 72, 63
1, 187197, Note_on_c, 0, 59, 77
1, 187198, Note_on_c, 0, 71, 82
1, 187200, Note_off_c, 0, 57, 38
1, 187211, Note_on_c, 0, 68, 72
1, 187240, Note_off_c, 0, 68, 65
1, 187249, Note_off_c, 0, 59, 65
1, 187282, Control_c, 0, 64, 124
1, 187284, Note_off_c, 0, 71, 58
1, 187297, Control_c, 0, 64, 75
1, 187312, Control_c, 0, 64, 0
1, 187340, Note_on_c, 0, 69, 91
1, 187341, Note_on_c, 0, 57, 75
1, 187341, Note_on_c, 0, 72, 87
1, 187356, Control_c, 0, 64, 33
1, 187358, Note_off_c, 0, 64, 65
1, 187370, Control_c, 0, 64, 76
1, 187379, Note_off_c, 0, 69, 66
1, 187385, Control_c, 0, 64, 127
1, 187388, Note_off_c, 0, 57, 64
1, 187402, Note_off_c, 0, 72, 66
1, 187542, Note_on_c, 0, 45, 75
1, 187548, Note_on_c, 0, 33, 72
1, 187550, Note_on_c, 0, 93, 90
1, 187554, Note_on_c, 0, 81, 86
1, 187578, Note_off_c, 0, 33, 64
1, 187578, Note_off_c, 0, 45, 61
1, 187603, Note_off_c, 0, 81, 58
1, 187614, Note_off_c, 0, 93, 59
1, 187704, Note_on_c, 0, 47, 87
1, 187706, Note_on_c, 0, 80, 94
1, 187706, Note_on_c, 0, 35, 79
1, 187707, Note_on_c, 0, 92, 93
1, 187732, Note_off_c, 0, 47, 63
1, 187733, Note_off_c, 0, 35, 65
1, 187760, Note_off_c, 0, 92, 64
1, 187761, Note_off_c, 0, 80, 61
1, 187832, Note_on_c, 0, 49, 97
1, 187833, Note_on_c, 0, 37, 88
1, 187835, Note_on_c, 0, 79, 95
1, 187835, Note_on_c, 0, 91, 101
1, 187862, Note_off_c, 0, 37, 67
1, 187873, Note_off_c, 0, 49, 63
1, 187879, Note_off_c, 0, 79, 63
1, 187885, Note_off_c, 0, 91, 60
1, 187952, Note_on_c, 0, 50, 97
1, 187956, Note_on_c, 0, 38, 88
1, 187961, Note_on_c, 0, 78, 101
1, 187963, Note_on_c, 0, 90, 95
1, 187987, Note_off_c, 0, 38, 66
1, 187990, Note_off_c, 0, 50, 65
1, 188012, Note_off_c, 0, 78, 63
1, 188012, Note_off_c, 0, 90, 66
1, 188082, Note_on_c, 0, 51, 94
1, 188085, Note_on_c, 0, 77, 97
1, 188085, Note_on_c, 0, 89, 101
1, 188085, Note_on_c, 0, 39, 87
1, 188104, Control_c, 0, 64, 88
1, 188106, Note_off_c, 0, 39, 73
1, 188119, Control_c, 0, 64, 55
1, 188124, Note_off_c, 0, 51, 60
1, 188131, Note_off_c, 0, 89, 65
1, 188132, Note_off_c, 0, 77, 61
1, 188134, Control_c, 0, 64, 0
1, 188178, Control_c, 0, 64, 46
1, 188193, Control_c, 0, 64, 79
1, 188208, Control_c, 0, 64, 127
1, 188219, Note_on_c, 0, 53, 88
1, 188219, Note_on_c, 0, 76, 101
1, 188219, Note_on_c, 0, 88, 100
1, 188223, Note_on_c, 0, 52, 85
1, 188225, Note_on_c, 0, 41, 78
1, 188233, Note_on_c, 0, 40, 58
1, 188245, Note_off_c, 0, 53, 67
1, 188246, Note_off_c, 0, 52, 73
1, 188252, Note_off_c, 0, 41, 65
1, 188258, Note_off_c, 0, 40, 61
1, 188258, Note_off_c, 0, 88, 64
1, 188276, Note_off_c, 0, 76, 63
1, 188380, Note_on_c, 0, 64, 82
1, 188387, Note_on_c, 0, 68, 80
1, 188418, Note_on_c, 0, 62, 37
1, 188449, Note_off_c, 0, 62, 51
1, 188491, Note_on_c, 0, 69, 76
1, 188495, Note_on_c, 0, 63, 77
1, 188509, Note_on_c, 0, 66, 67
1, 188509, Note_off_c, 0, 68, 61
1, 188539, Note_off_c, 0, 66, 64
1, 188562, Note_off_c, 0, 63, 61
1, 188570, Note_off_c, 0, 69, 64
1, 188607, Note_on_c, 0, 68, 77
1, 188615, Note_on_c, 0, 71, 75
1, 188622, Note_on_c, 0, 62, 78
1, 188654, Note_off_c, 0, 68, 62
1, 188663, Note_off_c, 0, 71, 58
1, 188730, Note_on_c, 0, 72, 84
1, 188731, Note_on_c, 0, 69, 79
1, 188751, Note_on_c, 0, 60, 76
1, 188782, Note_off_c, 0, 69, 62
1, 188814, Note_off_c, 0, 62, 52
1, 188827, Note_off_c, 0, 60, 61
1, 188842, Note_on_c, 0, 74, 76
1, 188844, Note_on_c, 0, 71, 75
1, 188868, Note_on_c, 0, 59, 69
1, 188875, Note_off_c, 0, 72, 61
1, 188899, Note_off_c, 0, 71, 59
1, 188917, Note_off_c, 0, 59, 61
1, 188943, Control_c, 0, 64, 91
1, 188955, Note_off_c, 0, 74, 59
1, 188958, Control_c, 0, 64, 63
1, 188972, Control_c, 0, 64, 0
1, 188983, Note_on_c, 0, 72, 96
1, 188991, Note_on_c, 0, 57, 74
1, 189002, Control_c, 0, 64, 56
1, 189005, Note_off_c, 0, 64, 65
1, 189018, Control_c, 0, 64, 85
1, 189030, Note_off_c, 0, 72, 66
1, 189033, Control_c, 0, 64, 127
1, 189036, Note_off_c, 0, 57, 65
1, 189177, Note_on_c, 0, 45, 81
1, 189177, Note_on_c, 0, 93, 89
1, 189178, Note_on_c, 0, 33, 82
1, 189180, Note_on_c, 0, 81, 82
1, 189203, Note_off_c, 0, 33, 65
1, 189208, Note_off_c, 0, 45, 63
1, 189214, Note_off_c, 0, 81, 58
1, 189230, Note_off_c, 0, 93, 60
1, 189316, Note_on_c, 0, 47, 94
1, 189319, Note_on_c, 0, 35, 87
1, 189322, Note_on_c, 0, 92, 91
1, 189322, Note_on_c, 0, 80, 94
1, 189346, Note_off_c, 0, 35, 68
1, 189356, Note_off_c, 0, 47, 63
1, 189382, Note_off_c, 0, 80, 61
1, 189384, Note_off_c, 0, 92, 65
1, 189448, Note_on_c, 0, 49, 97
1, 189450, Note_on_c, 0, 37, 88
1, 189453, Note_on_c, 0, 79, 96
1, 189454, Note_on_c, 0, 91, 95
1, 189489, Note_off_c, 0, 37, 61
1, 189491, Note_off_c, 0, 49, 63
1, 189497, Note_off_c, 0, 79, 64
1, 189505, Note_off_c, 0, 91, 60
1, 189569, Note_on_c, 0, 50, 95
1, 189574, Note_on_c, 0, 38, 90
1, 189578, Note_on_c, 0, 78, 99
1, 189579, Note_on_c, 0, 90, 100
1, 189600, Note_off_c, 0, 38, 63
1, 189606, Note_off_c, 0, 50, 65
1, 189629, Note_off_c, 0, 78, 63
1, 189633, Note_off_c, 0, 90, 64
1, 189698, Note_on_c, 0, 51, 97
1, 189701, Note_on_c, 0, 39, 88
1, 189703, Note_on_c, 0, 77, 96
1, 189703, Note_on_c, 0, 89, 97
1, 189731, Note_off_c, 0, 39, 66
1, 189745, Note_off_c, 0, 51, 59
1, 189750, Note_off_c, 0, 89, 66
1, 189752, Note_off_c, 0, 77, 61
1, 189780, Control_c, 0, 64, 122
1, 189795, Control_c, 0, 64, 73
1, 189811, Control_c, 0, 64, 0
1, 189842, Note_on_c, 0, 52, 107
1, 189847, Note_on_c, 0, 40, 85
1, 189848, Note_on_c, 0, 76, 101
1, 189849, Note_on_c, 0, 88, 99
1, 189863, Control_c, 0, 64, 62
1, 189865, Note_off_c, 0, 40, 65
1, 189876, Note_off_c, 0, 52, 70
1, 189878, Control_c, 0, 64, 99
1, 189885, Note_off_c, 0, 88, 65
1, 189892, Control_c, 0, 64, 127
1, 189904, Note_off_c, 0, 76, 67
1, 189948, Poly_aftertouch_c, 0, 77, 0
1, 190005, Note_on_c, 0, 64, 85
1, 190008, Note_on_c, 0, 68, 78
1, 190118, Note_on_c, 0, 69, 73
1, 190122, Note_on_c, 0, 63, 77
1, 190133, Note_on_c, 0, 66, 66
1, 190139, Note_off_c, 0, 68, 62
1, 190162, Note_off_c, 0, 66, 63
1, 190182, Note_off_c, 0, 63, 61
1, 190192, Note_off_c, 0, 69, 66
1, 190242, Note_on_c, 0, 62, 75
1, 190246, Note_on_c, 0, 71, 77
1, 190246, Note_on_c, 0, 68, 76
1, 190297, Note_off_c, 0, 68, 63
1, 190309, Note_off_c, 0, 71, 60
1, 190371, Note_on_c, 0, 72, 85
1, 190372, Note_on_c, 0, 60, 77
1, 190373, Note_on_c, 0, 69, 81
1, 190395, Note_off_c, 0, 62, 59
1, 190422, Note_off_c, 0, 69, 64
1, 190444, Note_off_c, 0, 60, 62
1, 190484, Note_on_c, 0, 59, 74
1, 190493, Note_on_c, 0, 71, 79
1, 190494, Note_on_c, 0, 74, 76
1, 190526, Note_off_c, 0, 72, 63
1, 190535, Note_off_c, 0, 59, 64
1, 190545, Note_off_c, 0, 71, 61
1, 190559, Control_c, 0, 64, 105
1, 190574, Control_c, 0, 64, 70
1, 190596, Control_c, 0, 64, 0
1, 190612, Note_off_c, 0, 74, 57
1, 190634, Note_on_c, 0, 57, 76
1, 190637, Note_on_c, 0, 72, 100
1, 190641, Control_c, 0, 64, 59
1, 190649, Note_off_c, 0, 64, 66
1, 190656, Control_c, 0, 64, 102
1, 190660, Note_on_c, 0, 74, 17
1, 190671, Control_c, 0, 64, 127
1, 190675, Note_off_c, 0, 57, 65
1, 190682, Note_off_c, 0, 72, 67
1, 190694, Note_off_c, 0, 74, 44
1, 190834, Note_on_c, 0, 45, 77
1, 190838, Note_on_c, 0, 81, 82
1, 190839, Note_on_c, 0, 93, 89
1, 190845, Note_on_c, 0, 33, 67
1, 190864, Note_off_c, 0, 45, 66
1, 190875, Note_off_c, 0, 33, 64
1, 190887, Note_off_c, 0, 81, 58
1, 190887, Note_off_c, 0, 93, 61
1, 190978, Note_on_c, 0, 44, 90
1, 190979, Note_on_c, 0, 32, 87
1, 190985, Note_on_c, 0, 83, 90
1, 190985, Note_on_c, 0, 95, 102
1, 191020, Note_off_c, 0, 32, 62
1, 191021, Note_off_c, 0, 44, 62
1, 191025, Note_off_c, 0, 83, 63
1, 191032, Note_off_c, 0, 95, 67
1, 191108, Note_on_c, 0, 43, 95
1, 191111, Note_on_c, 0, 31, 91
1, 191116, Note_on_c, 0, 97, 103
1, 191118, Note_on_c, 0, 85, 94
1, 191146, Note_off_c, 0, 31, 63
1, 191149, Note_off_c, 0, 43, 61
1, 191166, Note_off_c, 0, 85, 63
1, 191171, Note_off_c, 0, 97, 64
1, 191232, Note_on_c, 0, 41, 100
1, 191235, Note_on_c, 0, 29, 91
1, 191236, Note_on_c, 0, 98, 102
1, 191239, Note_on_c, 0, 86, 103
1, 191271, Note_on_c, 0, 31, 35
1, 191272, Note_off_c, 0, 31, 127
1, 191277, Note_off_c, 0, 41, 64
1, 191279, Note_off_c, 0, 86, 64
1, 191282, Note_off_c, 0, 29, 62
1, 191287, Note_off_c, 0, 98, 67
1, 191364, Note_on_c, 0, 40, 96
1, 191367, Note_on_c, 0, 28, 87
1, 191368, Note_on_c, 0, 100, 106
1, 191369, Note_on_c, 0, 88, 103
1, 191403, Note_off_c, 0, 28, 61
1, 191406, Note_off_c, 0, 40, 64
1, 191409, Note_on_c, 0, 29, 36
1, 191410, Note_off_c, 0, 29, 127
1, 191414, Note_off_c, 0, 88, 62
1, 191422, Note_off_c, 0, 100, 64
1, 191434, Control_c, 0, 64, 103
1, 191449, Control_c, 0, 64, 68
1, 191463, Control_c, 0, 64, 0
1, 191490, Note_on_c, 0, 38, 103
1, 191492, Note_on_c, 0, 26, 89
1, 191501, Note_on_c, 0, 101, 108
1, 191502, Note_on_c, 0, 89, 104
1, 191508, Control_c, 0, 64, 63
1, 191517, Note_off_c, 0, 26, 69
1, 191523, Control_c, 0, 64, 119
1, 191527, Note_off_c, 0, 38, 70
1, 191534, Note_off_c, 0, 101, 67
1, 191537, Control_c, 0, 64, 127
1, 191538, Note_on_c, 0, 28, 31
1, 191546, Note_off_c, 0, 89, 65
1, 191576, Note_off_c, 0, 28, 42
1, 191756, Note_on_c, 0, 62, 79
1, 191760, Note_on_c, 0, 50, 69
1, 191768, Note_on_c, 0, 77, 78
1, 191768, Note_on_c, 0, 86, 80
1, 191852, Note_off_c, 0, 77, 56
1, 191888, Note_on_c, 0, 76, 81
1, 191888, Note_on_c, 0, 85, 81
1, 191889, Note_on_c, 0, 52, 77
1, 191907, Note_off_c, 0, 86, 63
1, 191935, Note_off_c, 0, 50, 53
1, 191951, Note_off_c, 0, 85, 63
1, 192009, Note_on_c, 0, 54, 84
1, 192017, Note_on_c, 0, 75, 87
1, 192017, Note_on_c, 0, 84, 90
1, 192038, Note_off_c, 0, 76, 66
1, 192041, Note_off_c, 0, 52, 63
1, 192062, Note_off_c, 0, 75, 64
1, 192068, Note_off_c, 0, 54, 65
1, 192103, Note_off_c, 0, 84, 59
1, 192141, Note_on_c, 0, 74, 85
1, 192143, Note_on_c, 0, 83, 85
1, 192146, Note_on_c, 0, 55, 85
1, 192193, Note_off_c, 0, 62, 60
1, 192196, Note_off_c, 0, 74, 64
1, 192204, Note_off_c, 0, 83, 59
1, 192214, Note_off_c, 0, 55, 63
1, 192266, Note_on_c, 0, 57, 86
1, 192268, Note_on_c, 0, 81, 91
1, 192275, Note_on_c, 0, 72, 83
1, 192326, Note_off_c, 0, 72, 63
1, 192330, Note_off_c, 0, 81, 60
1, 192332, Note_off_c, 0, 57, 60
1, 192345, Control_c, 0, 64, 86
1, 192360, Control_c, 0, 64, 56
1, 192375, Control_c, 0, 64, 0
1, 192400, Note_on_c, 0, 59, 90
1, 192404, Control_c, 0, 64, 55
1, 192405, Note_on_c, 0, 79, 93
1, 192408, Note_on_c, 0, 71, 87
1, 192419, Control_c, 0, 64, 90
1, 192434, Control_c, 0, 64, 127
1, 192436, Note_off_c, 0, 59, 65
1, 192452, Note_off_c, 0, 71, 62
1, 192467, Note_off_c, 0, 79, 64
1, 192583, Note_on_c, 0, 43, 81
1, 192593, Note_on_c, 0, 79, 76
1, 192595, Note_on_c, 0, 91, 80
1, 192602, Note_on_c, 0, 31, 47
1, 192613, Note_off_c, 0, 43, 64
1, 192625, Note_on_c, 0, 29, 26
1, 192635, Note_off_c, 0, 31, 53
1, 192644, Note_off_c, 0, 79, 60
1, 192644, Note_off_c, 0, 91, 59
1, 192667, Note_off_c, 0, 29, 42
1, 192712, Note_on_c, 0, 42, 91
1, 192716, Note_on_c, 0, 30, 85
1, 192731, Note_on_c, 0, 81, 91
1, 192737, Note_on_c, 0, 95, 93
1, 192738, Note_on_c, 0, 93, 89
1, 192755, Note_on_c, 0, 83, 60
1, 192760, Note_off_c, 0, 30, 61
1, 192763, Note_off_c, 0, 42, 61
1, 192774, Note_off_c, 0, 81, 63
1, 192776, Note_off_c, 0, 83, 41
1, 192782, Note_off_c, 0, 95, 65
1, 192786, Note_off_c, 0, 93, 61
1, 192854, Note_on_c, 0, 41, 98
1, 192857, Note_on_c, 0, 29, 89
1, 192865, Note_on_c, 0, 83, 89
1, 192867, Note_on_c, 0, 95, 104
1, 192899, Note_off_c, 0, 41, 64
1, 192902, Note_off_c, 0, 29, 61
1, 192908, Note_off_c, 0, 83, 64
1, 192914, Note_off_c, 0, 95, 66
1, 192979, Note_on_c, 0, 40, 92
1, 192981, Note_on_c, 0, 28, 88
1, 192988, Note_on_c, 0, 84, 98
1, 192989, Note_on_c, 0, 96, 100
1, 193026, Note_off_c, 0, 28, 60
1, 193026, Note_off_c, 0, 40, 63
1, 193030, Note_off_c, 0, 84, 66
1, 193036, Note_off_c, 0, 96, 65
1, 193103, Note_on_c, 0, 38, 90
1, 193106, Note_on_c, 0, 26, 89
1, 193114, Note_on_c, 0, 86, 99
1, 193114, Note_on_c, 0, 98, 99
1, 193152, Note_off_c, 0, 38, 63
1, 193152, Note_off_c, 0, 26, 59
1, 193156, Note_off_c, 0, 86, 64
1, 193166, Note_off_c, 0, 98, 66
1, 193183, Control_c, 0, 64, 74
1, 193198, Control_c, 0, 64, 0
1, 193235, Note_on_c, 0, 36, 95
1, 193237, Note_on_c, 0, 24, 81
1, 193242, Note_on_c, 0, 100, 108
1, 193242, Control_c, 0, 64, 35
1, 193245, Note_on_c, 0, 88, 101
1, 193257, Control_c, 0, 64, 74
1, 193264, Note_off_c, 0, 24, 61
1, 193269, Note_off_c, 0, 36, 63
1, 193272, Control_c, 0, 64, 127
1, 193276, Note_off_c, 0, 100, 68
1, 193277, Note_on_c, 0, 26, 33
1, 193292, Note_off_c, 0, 88, 64
1, 193318, Note_off_c, 0, 26, 47
1, 193467, Note_on_c, 0, 84, 77
1, 193471, Note_on_c, 0, 76, 72
1, 193474, Note_on_c, 0, 60, 82
1, 193481, Note_on_c, 0, 48, 68
1, 193513, Note_off_c, 0, 76, 63
1, 193518, Note_off_c, 0, 84, 61
1, 193607, Note_on_c, 0, 50, 69
1, 193607, Note_on_c, 0, 74, 79
1, 193607, Note_on_c, 0, 83, 87
1, 193649, Note_off_c, 0, 48, 56
1, 193651, Note_off_c, 0, 74, 67
1, 193718, Note_on_c, 0, 52, 78
1, 193728, Note_off_c, 0, 83, 57
1, 193728, Note_on_c, 0, 82, 85
1, 193730, Note_on_c, 0, 73, 83
1, 193752, Note_off_c, 0, 50, 61
1, 193771, Note_off_c, 0, 60, 57
1, 193775, Note_off_c, 0, 52, 65
1, 193775, Note_off_c, 0, 82, 63
1, 193780, Note_off_c, 0, 73, 63
1, 193854, Note_on_c, 0, 53, 86
1, 193858, Note_on_c, 0, 81, 88
1, 193861, Note_on_c, 0, 72, 83
1, 193910, Note_off_c, 0, 72, 66
1, 193913, Note_off_c, 0, 53, 68
1, 193951, Note_off_c, 0, 81, 55
1, 193978, Note_on_c, 0, 55, 85
1, 193986, Note_on_c, 0, 79, 69
1, 193987, Note_on_c, 0, 70, 85
1, 194040, Note_off_c, 0, 55, 60
1, 194045, Note_off_c, 0, 70, 63
1, 194053, Note_off_c, 0, 79, 60
1, 194065, Control_c, 0, 64, 78
1, 194079, Control_c, 0, 64, 42
1, 194094, Control_c, 0, 64, 0
1, 194104, Note_on_c, 0, 57, 83
1, 194117, Note_on_c, 0, 77, 88
1, 194118, Note_on_c, 0, 69, 94
1, 194124, Control_c, 0, 64, 43
1, 194129, Note_off_c, 0, 57, 67
1, 194139, Control_c, 0, 64, 76
1, 194150, Note_off_c, 0, 69, 67
1, 194154, Control_c, 0, 64, 127
1, 194163, Note_off_c, 0, 77, 64
1, 194267, Note_on_c, 0, 41, 85
1, 194267, Note_on_c, 0, 89, 89
1, 194268, Note_on_c, 0, 77, 85
1, 194298, Note_off_c, 0, 41, 67
1, 194299, Note_on_c, 0, 28, 45
1, 194306, Note_off_c, 0, 89, 67
1, 194311, Note_off_c, 0, 77, 59
1, 194322, Note_off_c, 0, 28, 58
1, 194400, Note_on_c, 0, 93, 98
1, 194402, Note_on_c, 0, 39, 78
1, 194407, Note_on_c, 0, 27, 74
1, 194407, Note_on_c, 0, 79, 79
1, 194409, Note_on_c, 0, 81, 79
1, 194434, Note_off_c, 0, 81, 64
1, 194434, Note_off_c, 0, 39, 62
1, 194435, Note_off_c, 0, 79, 64
1, 194438, Note_off_c, 0, 27, 65
1, 194443, Note_off_c, 0, 93, 62
1, 194472, Control_c, 0, 64, 101
1, 194487, Control_c, 0, 64, 67
1, 194502, Control_c, 0, 64, 0
1, 194517, Note_on_c, 0, 38, 91
1, 194518, Note_on_c, 0, 26, 81
1, 194522, Note_on_c, 0, 82, 95
1, 194527, Note_on_c, 0, 94, 98
1, 194531, Control_c, 0, 64, 29
1, 194545, Note_off_c, 0, 26, 67
1, 194546, Control_c, 0, 64, 69
1, 194552, Note_off_c, 0, 94, 63
1, 194559, Note_off_c, 0, 38, 65
1, 194559, Note_on_c, 0, 92, 39
1, 194561, Control_c, 0, 64, 127
1, 194572, Note_off_c, 0, 82, 61
1, 194589, Note_off_c, 0, 92, 38
1, 194670, Note_on_c, 0, 82, 85
1, 194673, Note_on_c, 0, 58, 76
1, 194674, Note_on_c, 0, 74, 76
1, 194710, Note_off_c, 0, 74, 57
1, 194735, Note_off_c, 0, 58, 61
1, 194741, Note_off_c, 0, 82, 59
1, 194791, Note_on_c, 0, 62, 75
1, 194795, Note_on_c, 0, 81, 81
1, 194797, Note_on_c, 0, 72, 75
1, 194827, Note_off_c, 0, 62, 60
1, 194847, Note_off_c, 0, 72, 63
1, 194849, Note_off_c, 0, 81, 60
1, 194874, Control_c, 0, 64, 87
1, 194888, Control_c, 0, 64, 51
1, 194903, Control_c, 0, 64, 0
1, 194911, Note_on_c, 0, 64, 83
1, 194916, Note_on_c, 0, 52, 80
1, 194918, Control_c, 0, 64, 23
1, 194923, Note_on_c, 0, 80, 96
1, 194928, Note_on_c, 0, 71, 84
1, 194931, Note_off_c, 0, 64, 71
1, 194932, Control_c, 0, 64, 61
1, 194947, Control_c, 0, 64, 93
1, 194957, Note_off_c, 0, 52, 64
1, 194962, Control_c, 0, 64, 127
1, 194963, Note_off_c, 0, 71, 60
1, 194967, Note_off_c, 0, 80, 64
1, 195069, Note_on_c, 0, 40, 91
1, 195069, Note_on_c, 0, 28, 88
1, 195076, Note_on_c, 0, 89, 79
1, 195078, Note_on_c, 0, 76, 78
1, 195086, Note_on_c, 0, 88, 79
1, 195100, Note_off_c, 0, 28, 66
1, 195104, Note_off_c, 0, 40, 66
1, 195109, Note_off_c, 0, 76, 71
1, 195112, Note_off_c, 0, 88, 60
1, 195114, Note_off_c, 0, 89, 65
1, 195114, Note_on_c, 0, 77, 41
1, 195144, Note_off_c, 0, 77, 54
1, 195198, Note_on_c, 0, 38, 87
1, 195199, Note_on_c, 0, 92, 102
1, 195201, Note_on_c, 0, 80, 98
1, 195202, Note_on_c, 0, 26, 88
1, 195234, Note_off_c, 0, 26, 64
1, 195245, Note_off_c, 0, 38, 63
1, 195255, Note_off_c, 0, 80, 61
1, 195263, Note_off_c, 0, 92, 64
1, 195311, Control_c, 0, 64, 75
1, 195326, Control_c, 0, 64, 24
1, 195327, Note_on_c, 0, 36, 93
1, 195330, Note_on_c, 0, 24, 78
1, 195334, Note_on_c, 0, 93, 107
1, 195334, Note_on_c, 0, 81, 101
1, 195340, Control_c, 0, 64, 0
1, 195350, Note_on_c, 0, 26, 60
1, 195355, Control_c, 0, 64, 24
1, 195361, Note_off_c, 0, 36, 62
1, 195363, Note_off_c, 0, 24, 66
1, 195368, Note_off_c, 0, 93, 63
1, 195370, Control_c, 0, 64, 64
1, 195376, Note_off_c, 0, 26, 52
1, 195382, Note_off_c, 0, 81, 64
1, 195382, Note_on_c, 0, 91, 33
1, 195383, Note_off_c, 0, 91, 127
1, 195385, Control_c, 0, 64, 95
1, 195400, Control_c, 0, 64, 127
1, 195481, Note_on_c, 0, 57, 84
1, 195485, Note_on_c, 0, 81, 86
1, 195489, Note_on_c, 0, 72, 78
1, 195535, Note_off_c, 0, 72, 61
1, 195536, Note_off_c, 0, 57, 62
1, 195563, Note_off_c, 0, 81, 53
1, 195597, Note_on_c, 0, 60, 81
1, 195601, Note_on_c, 0, 71, 83
1, 195603, Note_on_c, 0, 79, 80
1, 195643, Note_off_c, 0, 60, 60
1, 195654, Note_off_c, 0, 71, 60
1, 195657, Note_off_c, 0, 79, 59
1, 195697, Control_c, 0, 64, 83
1, 195711, Control_c, 0, 64, 53
1, 195726, Control_c, 0, 64, 0
1, 195736, Note_on_c, 0, 62, 88
1, 195740, Note_on_c, 0, 77, 90
1, 195743, Note_on_c, 0, 50, 77
1, 195743, Note_on_c, 0, 69, 89
1, 195755, Control_c, 0, 64, 47
1, 195764, Note_off_c, 0, 62, 65
1, 195770, Control_c, 0, 64, 77
1, 195785, Control_c, 0, 64, 127
1, 195788, Note_off_c, 0, 69, 65
1, 195790, Note_off_c, 0, 50, 61
1, 195793, Note_off_c, 0, 77, 63
1, 195907, Note_on_c, 0, 41, 94
1, 195908, Note_on_c, 0, 29, 86
1, 195919, Note_on_c, 0, 88, 80
1, 195920, Note_on_c, 0, 86, 79
1, 195922, Note_on_c, 0, 76, 76
1, 195935, Note_on_c, 0, 74, 47
1, 195943, Note_off_c, 0, 29, 63
1, 195947, Note_off_c, 0, 41, 63
1, 195952, Note_off_c, 0, 86, 55
1, 195953, Note_off_c, 0, 88, 55
1, 195956, Note_off_c, 0, 76, 65
1, 195957, Note_off_c, 0, 74, 61
1, 196057, Note_on_c, 0, 38, 92
1, 196060, Note_on_c, 0, 26, 88
1, 196065, Note_on_c, 0, 79, 95
1, 196069, Note_on_c, 0, 91, 91
1, 196071, Note_on_c, 0, 89, 79
1, 196098, Note_off_c, 0, 91, 60
1, 196101, Note_off_c, 0, 26, 54
1, 196101, Note_off_c, 0, 79, 65
1, 196106, Note_off_c, 0, 89, 61
1, 196107, Note_off_c, 0, 38, 62
1, 196178, Control_c, 0, 64, 89
1, 196193, Control_c, 0, 64, 61
1, 196208, Note_on_c, 0, 40, 95
1, 196208, Control_c, 0, 64, 0
1, 196213, Note_on_c, 0, 28, 89
1, 196214, Note_on_c, 0, 88, 101
1, 196217, Note_on_c, 0, 76, 96
1, 196235, Note_off_c, 0, 28, 67
1, 196238, Control_c, 0, 64, 53
1, 196250, Note_off_c, 0, 40, 66
1, 196253, Note_off_c, 0, 76, 68
1, 196253, Control_c, 0, 64, 77
1, 196255, Note_off_c, 0, 88, 64
1, 196267, Control_c, 0, 64, 127
1, 196361, Note_on_c, 0, 76, 70
1, 196368, Note_on_c, 0, 68, 73
1, 196371, Note_on_c, 0, 64, 87
1, 196488, Note_on_c, 0, 52, 77
1, 196492, Note_on_c, 0, 80, 83
1, 196494, Note_off_c, 0, 64, 58
1, 196502, Note_on_c, 0, 71, 67
1, 196509, Note_off_c, 0, 76, 63
1, 196512, Note_off_c, 0, 68, 64
1, 196528, Note_off_c, 0, 71, 66
1, 196529, Note_off_c, 0, 52, 62
1, 196539, Note_off_c, 0, 80, 64
1, 196616, Control_c, 0, 64, 89
1, 196631, Control_c, 0, 64, 61
1, 196637, Note_on_c, 0, 57, 76
1, 196645, Note_on_c, 0, 81, 89
1, 196646, Control_c, 0, 64, 0
1, 196646, Note_on_c, 0, 72, 78
1, 196649, Note_on_c, 0, 69, 85
1, 196658, Note_on_c, 0, 45, 52
1, 196704, Control_c, 0, 64, 61
1, 196719, Control_c, 0, 64, 79
1, 196734, Control_c, 0, 64, 127
1, 196759, Note_on_c, 0, 52, 71
1, 196771, Note_off_c, 0, 57, 61
1, 196774, Note_on_c, 0, 76, 74
1, 196774, Note_off_c, 0, 45, 63
1, 196782, Note_off_c, 0, 81, 61
1, 196788, Note_off_c, 0, 52, 67
1, 196793, Note_off_c, 0, 69, 64
1, 196811, Note_off_c, 0, 72, 59
1, 196830, Note_off_c, 0, 76, 64
1, 196886, Note_on_c, 0, 64, 88
1, 196887, Note_on_c, 0, 52, 73
1, 196896, Note_on_c, 0, 68, 84
1, 196899, Note_on_c, 0, 71, 75
1, 196901, Note_on_c, 0, 80, 84
1, 196908, Note_off_c, 0, 64, 68
1, 196917, Note_off_c, 0, 52, 64
1, 196935, Note_off_c, 0, 71, 58
1, 196944, Note_off_c, 0, 68, 63
1, 196954, Note_off_c, 0, 80, 64
1, 196956, Control_c, 0, 64, 113
1, 196971, Control_c, 0, 64, 78
1, 196986, Control_c, 0, 64, 40
1, 197001, Control_c, 0, 64, 0
1, 197028, Note_on_c, 0, 57, 92
1, 197028, Note_on_c, 0, 45, 86
1, 197032, Note_on_c, 0, 72, 86
1, 197032, Note_on_c, 0, 81, 98
1, 197033, Note_on_c, 0, 69, 90
1, 197061, Control_c, 0, 64, 25
1, 197075, Control_c, 0, 64, 66
1, 197090, Control_c, 0, 64, 89
1, 197105, Control_c, 0, 64, 127
1, 197147, Note_on_c, 0, 52, 67
1, 197153, Note_off_c, 0, 45, 61
1, 197161, Note_off_c, 0, 57, 61
1, 197161, Note_off_c, 0, 81, 59
1, 197165, Note_on_c, 0, 76, 65
1, 197172, Note_off_c, 0, 69, 64
1, 197177, Note_off_c, 0, 52, 67
1, 197204, Note_off_c, 0, 72, 62
1, 197207, Note_off_c, 0, 76, 57
1, 197282, Note_on_c, 0, 68, 78
1, 197287, Note_on_c, 0, 80, 85
1, 197287, Note_on_c, 0, 52, 71
1, 197288, Note_on_c, 0, 64, 74
1, 197289, Note_on_c, 0, 71, 66
1, 197314, Note_off_c, 0, 64, 66
1, 197315, Note_off_c, 0, 52, 67
1, 197326, Note_off_c, 0, 71, 56
1, 197340, Note_off_c, 0, 68, 65
1, 197356, Note_off_c, 0, 80, 65
1, 197379, Control_c, 0, 64, 77
1, 197394, Control_c, 0, 64, 45
1, 197409, Control_c, 0, 64, 0
1, 197448, Note_on_c, 0, 57, 84
1, 197450, Note_on_c, 0, 45, 82
1, 197451, Note_on_c, 0, 69, 94
1, 197451, Note_on_c, 0, 72, 84
1, 197451, Note_on_c, 0, 81, 98
1, 197454, Control_c, 0, 64, 29
1, 197469, Control_c, 0, 64, 77
1, 197472, Note_off_c, 0, 57, 67
1, 197478, Note_off_c, 0, 69, 67
1, 197478, Note_off_c, 0, 72, 66
1, 197483, Control_c, 0, 64, 127
1, 197499, Note_off_c, 0, 45, 62
1, 197503, Note_off_c, 0, 81, 63
1, 197737, Note_on_c, 0, 45, 69
1, 197741, Note_on_c, 0, 33, 68
1, 197752, Note_on_c, 0, 93, 90
1, 197758, Note_on_c, 0, 81, 84
1, 197788, Note_off_c, 0, 33, 64
1, 197791, Note_off_c, 0, 45, 59
1, 197808, Note_off_c, 0, 81, 60
1, 197821, Note_off_c, 0, 93, 61
1, 197908, Note_on_c, 0, 95, 100
1, 197910, Note_on_c, 0, 44, 82
1, 197911, Note_on_c, 0, 32, 78
1, 197911, Note_on_c, 0, 83, 89
1, 197947, Note_off_c, 0, 44, 59
1, 197950, Note_off_c, 0, 32, 64
1, 197955, Note_off_c, 0, 83, 63
1, 197965, Note_off_c, 0, 95, 66
1, 198044, Note_on_c, 0, 43, 91
1, 198046, Note_on_c, 0, 31, 91
1, 198049, Note_on_c, 0, 85, 94
1, 198049, Note_on_c, 0, 97, 103
1, 198092, Note_off_c, 0, 31, 64
1, 198094, Note_off_c, 0, 43, 59
1, 198114, Note_off_c, 0, 85, 61
1, 198118, Note_off_c, 0, 97, 66
1, 198176, Note_on_c, 0, 41, 98
1, 198177, Note_on_c, 0, 29, 96
1, 198181, Note_on_c, 0, 98, 104
1, 198184, Note_on_c, 0, 86, 103
1, 198219, Note_off_c, 0, 41, 65
1, 198221, Note_off_c, 0, 29, 63
1, 198224, Note_off_c, 0, 86, 66
1, 198232, Note_off_c, 0, 98, 67
1, 198304, Note_on_c, 0, 40, 95
1, 198305, Note_on_c, 0, 28, 92
1, 198306, Note_on_c, 0, 100, 110
1, 198308, Note_on_c, 0, 88, 105
1, 198344, Note_off_c, 0, 40, 63
1, 198346, Note_off_c, 0, 28, 61
1, 198349, Note_off_c, 0, 88, 63
1, 198357, Note_off_c, 0, 100, 64
1, 198394, Control_c, 0, 64, 102
1, 198409, Control_c, 0, 64, 66
1, 198423, Control_c, 0, 64, 0
1, 198432, Note_on_c, 0, 38, 96
1, 198433, Note_on_c, 0, 26, 85
1, 198442, Note_on_c, 0, 89, 105
1, 198443, Note_on_c, 0, 101, 109
1, 198460, Note_off_c, 0, 26, 66
1, 198468, Control_c, 0, 64, 63
1, 198470, Note_off_c, 0, 38, 65
1, 198479, Note_off_c, 0, 101, 66
1, 198482, Control_c, 0, 64, 109
1, 198485, Note_off_c, 0, 89, 65
1, 198497, Control_c, 0, 64, 127
1, 198548, Poly_aftertouch_c, 0, 28, 0
1, 198709, Note_on_c, 0, 50, 70
1, 198711, Note_on_c, 0, 62, 75
1, 198721, Note_on_c, 0, 86, 80
1, 198723, Note_on_c, 0, 77, 72
1, 198808, Note_off_c, 0, 77, 53
1, 198850, Note_on_c, 0, 52, 72
1, 198853, Note_on_c, 0, 76, 84
1, 198855, Note_on_c, 0, 85, 78
1, 198879, Note_off_c, 0, 86, 60
1, 198915, Note_off_c, 0, 50, 47
1, 198929, Note_off_c, 0, 85, 63
1, 198966, Note_on_c, 0, 54, 83
1, 198977, Note_on_c, 0, 75, 85
1, 198977, Note_on_c, 0, 84, 89
1, 199000, Note_off_c, 0, 52, 64
1, 199004, Note_off_c, 0, 76, 66
1, 199025, Note_off_c, 0, 75, 65
1, 199031, Note_off_c, 0, 54, 63
1, 199062, Note_off_c, 0, 84, 56
1, 199097, Note_on_c, 0, 83, 86
1, 199099, Note_on_c, 0, 74, 85
1, 199099, Note_on_c, 0, 55, 88
1, 199137, Note_off_c, 0, 62, 54
1, 199159, Note_off_c, 0, 74, 61
1, 199159, Note_off_c, 0, 83, 59
1, 199171, Note_off_c, 0, 55, 63
1, 199216, Note_on_c, 0, 57, 85
1, 199224, Note_on_c, 0, 81, 91
1, 199228, Note_on_c, 0, 72, 85
1, 199280, Note_off_c, 0, 72, 62
1, 199287, Note_off_c, 0, 57, 60
1, 199290, Note_off_c, 0, 81, 59
1, 199292, Control_c, 0, 64, 118
1, 199306, Control_c, 0, 64, 73
1, 199321, Control_c, 0, 64, 0
1, 199351, Control_c, 0, 64, 52
1, 199353, Note_on_c, 0, 59, 81
1, 199359, Note_on_c, 0, 79, 95
1, 199363, Note_on_c, 0, 71, 82
1, 199366, Control_c, 0, 64, 76
1, 199380, Control_c, 0, 64, 127
1, 199392, Note_off_c, 0, 59, 64
1, 199407, Note_off_c, 0, 71, 62
1, 199421, Note_off_c, 0, 79, 64
1, 199544, Note_on_c, 0, 43, 74
1, 199550, Note_on_c, 0, 79, 82
1, 199559, Note_on_c, 0, 91, 62
1, 199562, Note_on_c, 0, 93, 75
1, 199578, Note_off_c, 0, 43, 63
1, 199591, Note_on_c, 0, 31, 23
1, 199598, Note_off_c, 0, 79, 56
1, 199598, Note_off_c, 0, 93, 63
1, 199602, Note_off_c, 0, 91, 61
1, 199630, Poly_aftertouch_c, 0, 33, 127
1, 199635, Note_off_c, 0, 31, 40
1, 199663, Poly_aftertouch_c, 0, 33, 0
1, 199684, Note_on_c, 0, 42, 84
1, 199685, Note_on_c, 0, 30, 83
1, 199702, Note_on_c, 0, 93, 95
1, 199703, Note_on_c, 0, 81, 95
1, 199728, Note_off_c, 0, 30, 62
1, 199734, Note_off_c, 0, 42, 61
1, 199740, Note_off_c, 0, 81, 61
1, 199750, Note_off_c, 0, 93, 62
1, 199818, Note_on_c, 0, 41, 88
1, 199820, Note_on_c, 0, 29, 86
1, 199827, Note_on_c, 0, 95, 104
1, 199831, Note_on_c, 0, 83, 94
1, 199859, Note_off_c, 0, 41, 63
1, 199860, Note_off_c, 0, 29, 63
1, 199871, Note_off_c, 0, 83, 64
1, 199877, Note_off_c, 0, 95, 66
1, 199946, Note_on_c, 0, 40, 93
1, 199946, Note_on_c, 0, 28, 88
1, 199955, Note_on_c, 0, 96, 102
1, 199958, Note_on_c, 0, 84, 98
1, 199988, Note_off_c, 0, 40, 62
1, 199991, Note_off_c, 0, 28, 61
1, 199997, Note_off_c, 0, 84, 66
1, 200004, Note_off_c, 0, 96, 65
1, 200071, Note_on_c, 0, 38, 85
1, 200079, Note_on_c, 0, 26, 73
1, 200084, Note_on_c, 0, 86, 93
1, 200085, Note_on_c, 0, 98, 99
1, 200095, Note_on_c, 0, 28, 69
1, 200119, Note_off_c, 0, 38, 62
1, 200122, Note_off_c, 0, 26, 61
1, 200125, Note_off_c, 0, 28, 46
1, 200130, Note_off_c, 0, 86, 63
1, 200140, Note_off_c, 0, 98, 67
1, 200144, Control_c, 0, 64, 97
1, 200159, Control_c, 0, 64, 66
1, 200174, Control_c, 0, 64, 0
1, 200205, Control_c, 0, 64, 14
1, 200207, Note_on_c, 0, 36, 94
1, 200208, Note_on_c, 0, 24, 82
1, 200214, Note_on_c, 0, 88, 99
1, 200215, Note_on_c, 0, 100, 106
1, 200219, Control_c, 0, 64, 66
1, 200232, Note_off_c, 0, 36, 68
1, 200234, Control_c, 0, 64, 127
1, 200238, Note_off_c, 0, 24, 67
1, 200244, Note_off_c, 0, 100, 65
1, 200265, Note_off_c, 0, 88, 65
1, 200438, Poly_aftertouch_c, 0, 51, 127
1, 200455, Note_on_c, 0, 76, 75
1, 200455, Note_on_c, 0, 84, 76
1, 200470, Note_on_c, 0, 60, 66
1, 200470, Poly_aftertouch_c, 0, 51, 0
1, 200475, Note_on_c, 0, 48, 58
1, 200506, Note_off_c, 0, 76, 65
1, 200512, Note_off_c, 0, 84, 55
1, 200584, Note_on_c, 0, 50, 71
1, 200594, Note_on_c, 0, 83, 83
1, 200596, Note_on_c, 0, 74, 79
1, 200621, Note_off_c, 0, 48, 61
1, 200634, Note_off_c, 0, 74, 63
1, 200697, Note_on_c, 0, 52, 80
1, 200709, Note_off_c, 0, 83, 58
1, 200709, Note_on_c, 0, 82, 84
1, 200711, Note_on_c, 0, 73, 87
1, 200722, Note_off_c, 0, 50, 60
1, 200751, Note_off_c, 0, 52, 66
1, 200754, Note_off_c, 0, 82, 63
1, 200761, Note_off_c, 0, 73, 64
1, 200825, Note_on_c, 0, 53, 84
1, 200831, Note_off_c, 0, 60, 0
1, 200837, Note_on_c, 0, 72, 86
1, 200837, Note_on_c, 0, 81, 89
1, 200874, Note_off_c, 0, 53, 68
1, 200883, Note_off_c, 0, 72, 66
1, 200899, Poly_aftertouch_c, 0, 60, 0
1, 200933, Note_off_c, 0, 81, 55
1, 200939, Note_on_c, 0, 55, 77
1, 200961, Note_on_c, 0, 70, 88
1, 200964, Note_on_c, 0, 79, 74
1, 201003, Note_off_c, 0, 55, 59
1, 201013, Note_off_c, 0, 70, 64
1, 201025, Note_off_c, 0, 79, 60
1, 201028, Control_c, 0, 64, 116
1, 201042, Control_c, 0, 64, 74
1, 201057, Control_c, 0, 64, 15
1, 201079, Control_c, 0, 64, 0
1, 201086, Note_on_c, 0, 57, 85
1, 201097, Note_on_c, 0, 69, 90
1, 201097, Note_on_c, 0, 77, 87
1, 201108, Control_c, 0, 64, 61
1, 201112, Note_off_c, 0, 57, 66
1, 201123, Control_c, 0, 64, 93
1, 201136, Note_off_c, 0, 69, 66
1, 201138, Control_c, 0, 64, 127
1, 201147, Note_off_c, 0, 77, 64
1, 201246, Note_on_c, 0, 89, 90
1, 201248, Note_on_c, 0, 41, 85
1, 201248, Note_on_c, 0, 77, 88
1, 201255, Note_on_c, 0, 29, 66
1, 201273, Note_off_c, 0, 41, 66
1, 201287, Note_off_c, 0, 29, 60
1, 201287, Note_off_c, 0, 89, 66
1, 201289, Note_off_c, 0, 77, 63
1, 201367, Note_on_c, 0, 39, 79
1, 201369, Note_on_c, 0, 27, 80
1, 201378, Note_on_c, 0, 93, 103
1, 201381, Note_on_c, 0, 81, 96
1, 201413, Note_off_c, 0, 27, 61
1, 201420, Note_off_c, 0, 81, 64
1, 201422, Note_off_c, 0, 39, 59
1, 201422, Note_off_c, 0, 93, 63
1, 201479, Control_c, 0, 64, 78
1, 201493, Control_c, 0, 64, 43
1, 201499, Note_on_c, 0, 38, 91
1, 201499, Note_on_c, 0, 26, 75
1, 201500, Note_on_c, 0, 82, 99
1, 201507, Note_on_c, 0, 94, 100
1, 201508, Control_c, 0, 64, 0
1, 201523, Note_off_c, 0, 94, 72
1, 201523, Control_c, 0, 64, 47
1, 201527, Note_off_c, 0, 26, 65
1, 201529, Note_off_c, 0, 38, 66
1, 201533, Note_on_c, 0, 92, 54
1, 201538, Control_c, 0, 64, 72
1, 201549, Note_off_c, 0, 82, 62
1, 201553, Control_c, 0, 64, 127
1, 201555, Note_off_c, 0, 92, 60
1, 201648, Note_on_c, 0, 58, 71
1, 201648, Note_on_c, 0, 74, 76
1, 201653, Note_on_c, 0, 82, 71
1, 201688, Note_off_c, 0, 74, 60
1, 201711, Note_off_c, 0, 82, 60
1, 201721, Note_off_c, 0, 58, 58
1, 201758, Note_on_c, 0, 62, 75
1, 201759, Note_on_c, 0, 81, 66
1, 201767, Note_on_c, 0, 72, 76
1, 201812, Note_off_c, 0, 62, 61
1, 201824, Note_off_c, 0, 72, 62
1, 201835, Note_off_c, 0, 81, 61
1, 201873, Control_c, 0, 64, 95
1, 201888, Control_c, 0, 64, 64
1, 201897, Note_on_c, 0, 64, 78
1, 201903, Control_c, 0, 64, 0
1, 201905, Note_on_c, 0, 52, 73
1, 201907, Note_on_c, 0, 80, 96
1, 201913, Note_on_c, 0, 71, 79
1, 201917, Note_off_c, 0, 64, 69
1, 201932, Control_c, 0, 64, 59
1, 201943, Note_off_c, 0, 52, 66
1, 201946, Note_off_c, 0, 71, 61
1, 201947, Control_c, 0, 64, 90
1, 201957, Note_off_c, 0, 80, 62
1, 201962, Control_c, 0, 64, 127
1, 202064, Note_on_c, 0, 28, 86
1, 202064, Note_on_c, 0, 40, 87
1, 202065, Note_on_c, 0, 89, 81
1, 202073, Note_on_c, 0, 88, 78
1, 202074, Note_on_c, 0, 76, 71
1, 202086, Note_on_c, 0, 77, 56
1, 202093, Note_off_c, 0, 28, 63
1, 202093, Note_off_c, 0, 76, 70
1, 202093, Note_off_c, 0, 40, 66
1, 202095, Note_off_c, 0, 88, 59
1, 202105, Note_off_c, 0, 89, 65
1, 202107, Note_off_c, 0, 77, 61
1, 202192, Note_on_c, 0, 92, 102
1, 202194, Note_on_c, 0, 80, 93
1, 202194, Note_on_c, 0, 26, 87
1, 202194, Note_on_c, 0, 38, 91
1, 202223, Note_on_c, 0, 93, 53
1, 202236, Note_off_c, 0, 26, 59
1, 202242, Note_off_c, 0, 38, 62
1, 202249, Note_off_c, 0, 93, 56
1, 202253, Note_off_c, 0, 80, 61
1, 202265, Note_off_c, 0, 92, 64
1, 202303, Control_c, 0, 64, 105
1, 202313, Poly_aftertouch_c, 0, 36, 0
1, 202317, Control_c, 0, 64, 71
1, 202322, Note_on_c, 0, 36, 72
1, 202329, Note_on_c, 0, 24, 78
1, 202332, Control_c, 0, 64, 0
1, 202334, Note_on_c, 0, 93, 105
1, 202335, Note_on_c, 0, 81, 100
1, 202350, Note_on_c, 0, 26, 57
1, 202362, Note_off_c, 0, 24, 54
1, 202362, Control_c, 0, 64, 61
1, 202365, Note_off_c, 0, 36, 62
1, 202368, Note_off_c, 0, 93, 64
1, 202374, Note_off_c, 0, 26, 57
1, 202377, Note_off_c, 0, 81, 63
1, 202377, Control_c, 0, 64, 85
1, 202391, Control_c, 0, 64, 127
1, 202481, Note_on_c, 0, 57, 81
1, 202483, Note_on_c, 0, 81, 86
1, 202486, Note_on_c, 0, 72, 76
1, 202533, Note_off_c, 0, 72, 64
1, 202537, Note_off_c, 0, 57, 61
1, 202581, Note_off_c, 0, 81, 52
1, 202607, Note_on_c, 0, 60, 74
1, 202613, Note_on_c, 0, 71, 78
1, 202614, Note_on_c, 0, 79, 79
1, 202659, Note_off_c, 0, 60, 61
1, 202668, Note_off_c, 0, 71, 60
1, 202668, Note_off_c, 0, 79, 60
1, 202711, Control_c, 0, 64, 107
1, 202726, Control_c, 0, 64, 71
1, 202740, Control_c, 0, 64, 0
1, 202749, Note_on_c, 0, 62, 81
1, 202754, Note_on_c, 0, 77, 92
1, 202757, Note_on_c, 0, 50, 77
1, 202757, Note_on_c, 0, 69, 88
1, 202770, Control_c, 0, 64, 55
1, 202772, Note_off_c, 0, 62, 69
1, 202785, Control_c, 0, 64, 76
1, 202799, Note_off_c, 0, 50, 61
1, 202800, Control_c, 0, 64, 127
1, 202801, Note_off_c, 0, 69, 64
1, 202807, Note_off_c, 0, 77, 63
1, 202914, Note_on_c, 0, 41, 89
1, 202914, Note_on_c, 0, 86, 96
1, 202918, Note_on_c, 0, 29, 78
1, 202918, Note_on_c, 0, 74, 90
1, 202954, Note_off_c, 0, 41, 63
1, 202956, Note_off_c, 0, 29, 61
1, 202965, Note_off_c, 0, 74, 64
1, 202969, Note_off_c, 0, 86, 63
1, 203068, Note_on_c, 0, 38, 92
1, 203072, Note_on_c, 0, 26, 89
1, 203073, Note_on_c, 0, 89, 102
1, 203076, Note_on_c, 0, 77, 97
1, 203118, Note_off_c, 0, 77, 64
1, 203118, Note_off_c, 0, 38, 63
1, 203121, Note_off_c, 0, 26, 61
1, 203124, Note_off_c, 0, 89, 63
1, 203185, Control_c, 0, 64, 106
1, 203200, Control_c, 0, 64, 70
1, 203214, Control_c, 0, 64, 0
1, 203229, Note_on_c, 0, 40, 92
1, 203232, Note_on_c, 0, 28, 89
1, 203238, Note_on_c, 0, 88, 102
1, 203239, Note_on_c, 0, 76, 99
1, 203244, Control_c, 0, 64, 34
1, 203252, Note_off_c, 0, 28, 68
1, 203259, Control_c, 0, 64, 67
1, 203271, Note_off_c, 0, 40, 67
1, 203273, Control_c, 0, 64, 127
1, 203275, Note_off_c, 0, 88, 65
1, 203279, Note_off_c, 0, 76, 68
1, 203409, Note_on_c, 0, 64, 85
1, 203411, Note_on_c, 0, 68, 79
1, 203416, Note_on_c, 0, 76, 65
1, 203535, Note_on_c, 0, 52, 81
1, 203539, Note_on_c, 0, 80, 84
1, 203543, Note_off_c, 0, 64, 63
1, 203546, Note_on_c, 0, 71, 72
1, 203555, Note_off_c, 0, 68, 63
1, 203559, Note_off_c, 0, 76, 61
1, 203574, Note_off_c, 0, 71, 63
1, 203577, Note_off_c, 0, 52, 64
1, 203583, Note_off_c, 0, 80, 65
1, 203667, Control_c, 0, 64, 77
1, 203681, Note_on_c, 0, 57, 85
1, 203682, Control_c, 0, 64, 41
1, 203684, Note_on_c, 0, 45, 76
1, 203685, Note_on_c, 0, 81, 92
1, 203687, Note_on_c, 0, 69, 87
1, 203687, Note_on_c, 0, 72, 87
1, 203696, Control_c, 0, 64, 0
1, 203756, Control_c, 0, 64, 56
1, 203770, Control_c, 0, 64, 78
1, 203785, Control_c, 0, 64, 127
1, 203824, Note_on_c, 0, 52, 70
1, 203829, Note_off_c, 0, 45, 60
1, 203832, Note_off_c, 0, 57, 61
1, 203837, Note_on_c, 0, 76, 79
1, 203851, Note_off_c, 0, 81, 58
1, 203853, Note_off_c, 0, 52, 67
1, 203860, Note_off_c, 0, 69, 63
1, 203867, Note_off_c, 0, 72, 60
1, 203899, Note_off_c, 0, 76, 63
1, 203976, Note_on_c, 0, 64, 81
1, 203981, Note_on_c, 0, 52, 82
1, 203984, Note_on_c, 0, 68, 85
1, 203985, Note_on_c, 0, 80, 87
1, 203988, Note_on_c, 0, 71, 72
1, 203999, Note_off_c, 0, 64, 71
1, 204006, Control_c, 0, 64, 114
1, 204008, Note_off_c, 0, 52, 67
1, 204021, Control_c, 0, 64, 95
1, 204030, Note_off_c, 0, 71, 56
1, 204036, Control_c, 0, 64, 81
1, 204039, Note_off_c, 0, 68, 63
1, 204051, Control_c, 0, 64, 66
1, 204054, Note_off_c, 0, 80, 65
1, 204073, Control_c, 0, 64, 48
1, 204088, Control_c, 0, 64, 0
1, 204212, Note_on_c, 0, 81, 96
1, 204212, Note_on_c, 0, 69, 92
1, 204215, Note_on_c, 0, 57, 85
1, 204215, Note_on_c, 0, 72, 84
1, 204217, Note_on_c, 0, 45, 77
1, 204222, Control_c, 0, 64, 43
1, 204237, Control_c, 0, 64, 88
1, 204242, Note_off_c, 0, 57, 62
1, 204244, Note_off_c, 0, 45, 67
1, 204244, Note_off_c, 0, 69, 69
1, 204244, Note_off_c, 0, 72, 67
1, 204252, Control_c, 0, 64, 127
1, 204264, Note_off_c, 0, 81, 64
1, 204518, Control_c, 0, 64, 109
1, 204533, Control_c, 0, 64, 83
1, 204548, Control_c, 0, 64, 64
1, 204563, Control_c, 0, 64, 0
1, 204641, Note_on_c, 0, 88, 98
1, 204642, Note_on_c, 0, 76, 96
1, 204771, Control_c, 0, 64, 13
1, 204785, Control_c, 0, 64, 90
1, 204795, Note_off_c, 0, 76, 63
1, 204796, Note_off_c, 0, 88, 63
1, 204800, Control_c, 0, 64, 127
1, 204864, Note_on_c, 0, 45, 89
1, 204866, Note_on_c, 0, 33, 79
1, 204869, Note_on_c, 0, 89, 103
1, 204870, Note_on_c, 0, 77, 100
1, 204889, Note_off_c, 0, 33, 65
1, 204903, Note_off_c, 0, 45, 63
1, 204909, Note_off_c, 0, 89, 68
1, 204921, Note_off_c, 0, 77, 60
1, 205050, Note_on_c, 0, 60, 68
1, 205055, Note_on_c, 0, 69, 70
1, 205055, Note_on_c, 0, 72, 69
1, 205058, Note_on_c, 0, 57, 65
1, 205098, Note_off_c, 0, 69, 59
1, 205100, Note_off_c, 0, 57, 52
1, 205104, Note_off_c, 0, 60, 58
1, 205114, Note_off_c, 0, 72, 61
1, 205171, Note_on_c, 0, 71, 72
1, 205174, Note_on_c, 0, 74, 72
1, 205177, Note_on_c, 0, 62, 75
1, 205187, Note_on_c, 0, 59, 61
1, 205203, Note_off_c, 0, 71, 60
1, 205222, Note_off_c, 0, 59, 60
1, 205222, Note_off_c, 0, 62, 58
1, 205222, Note_off_c, 0, 74, 61
1, 205302, Note_on_c, 0, 72, 71
1, 205304, Note_on_c, 0, 76, 73
1, 205308, Note_on_c, 0, 64, 72
1, 205311, Note_on_c, 0, 60, 71
1, 205324, Note_off_c, 0, 72, 67
1, 205349, Note_off_c, 0, 76, 66
1, 205356, Note_off_c, 0, 64, 59
1, 205359, Note_off_c, 0, 60, 60
1, 205434, Note_on_c, 0, 92, 98
1, 205437, Note_on_c, 0, 80, 89
1, 205442, Note_on_c, 0, 62, 81
1, 205443, Note_on_c, 0, 59, 75
1, 205478, Note_off_c, 0, 80, 64
1, 205484, Note_off_c, 0, 92, 66
1, 205490, Note_off_c, 0, 62, 60
1, 205493, Note_off_c, 0, 59, 61
1, 205580, Note_on_c, 0, 60, 72
1, 205580, Note_on_c, 0, 93, 103
1, 205584, Note_on_c, 0, 57, 74
1, 205586, Note_on_c, 0, 81, 87
1, 205595, Note_off_c, 0, 60, 67
1, 205601, Control_c, 0, 64, 108
1, 205606, Note_off_c, 0, 57, 70
1, 205615, Note_off_c, 0, 81, 61
1, 205616, Control_c, 0, 64, 100
1, 205621, Note_off_c, 0, 93, 65
1, 205631, Control_c, 0, 64, 98
1, 205646, Control_c, 0, 64, 97
1, 205661, Control_c, 0, 64, 93
1, 205675, Control_c, 0, 64, 79
1, 205690, Control_c, 0, 64, 61
1, 205705, Control_c, 0, 64, 0
1, 205762, Note_on_c, 0, 84, 96
1, 205762, Note_on_c, 0, 38, 92
1, 205768, Note_on_c, 0, 28, 87
1, 205772, Note_on_c, 0, 72, 84
1, 205780, Control_c, 0, 64, 46
1, 205794, Note_off_c, 0, 72, 69
1, 205795, Control_c, 0, 64, 87
1, 205797, Note_off_c, 0, 38, 64
1, 205798, Note_off_c, 0, 28, 67
1, 205805, Note_off_c, 0, 84, 66
1, 205810, Control_c, 0, 64, 127
1, 205941, Note_on_c, 0, 56, 69
1, 205944, Note_on_c, 0, 52, 63
1, 205946, Note_on_c, 0, 68, 69
1, 205955, Note_on_c, 0, 64, 61
1, 205979, Note_off_c, 0, 52, 64
1, 205994, Note_off_c, 0, 56, 62
1, 205995, Note_off_c, 0, 64, 60
1, 206002, Note_off_c, 0, 68, 63
1, 206056, Note_on_c, 0, 57, 78
1, 206061, Note_on_c, 0, 54, 68
1, 206065, Note_on_c, 0, 66, 71
1, 206066, Note_on_c, 0, 69, 71
1, 206096, Note_off_c, 0, 66, 63
1, 206107, Note_off_c, 0, 54, 60
1, 206107, Note_off_c, 0, 57, 62
1, 206113, Note_off_c, 0, 69, 63
1, 206181, Note_on_c, 0, 71, 77
1, 206182, Note_on_c, 0, 59, 69
1, 206184, Note_on_c, 0, 56, 70
1, 206187, Note_on_c, 0, 68, 70
1, 206204, Note_off_c, 0, 68, 66
1, 206218, Note_off_c, 0, 71, 56
1, 206227, Note_off_c, 0, 59, 58
1, 206236, Note_off_c, 0, 56, 61
1, 206298, Note_on_c, 0, 57, 81
1, 206313, Note_on_c, 0, 54, 73
1, 206317, Note_on_c, 0, 87, 97
1, 206321, Note_on_c, 0, 75, 91
1, 206355, Note_off_c, 0, 57, 62
1, 206361, Note_off_c, 0, 75, 66
1, 206366, Note_off_c, 0, 54, 61
1, 206366, Note_off_c, 0, 87, 63
1, 206435, Note_on_c, 0, 56, 78
1, 206440, Note_on_c, 0, 52, 75
1, 206447, Note_on_c, 0, 88, 100
1, 206448, Note_on_c, 0, 76, 91
1, 206455, Note_off_c, 0, 56, 68
1, 206464, Note_off_c, 0, 52, 71
1, 206494, Note_off_c, 0, 76, 67
1, 206504, Note_off_c, 0, 88, 60
1, 206528, Control_c, 0, 64, 93
1, 206543, Control_c, 0, 64, 63
1, 206558, Control_c, 0, 64, 0
1, 206589, Note_on_c, 0, 45, 99
1, 206594, Note_on_c, 0, 33, 81
1, 206596, Note_on_c, 0, 89, 103
1, 206598, Note_on_c, 0, 77, 98
1, 206616, Note_off_c, 0, 33, 66
1, 206618, Control_c, 0, 64, 63
1, 206628, Note_off_c, 0, 45, 65
1, 206628, Note_off_c, 0, 89, 69
1, 206633, Control_c, 0, 64, 98
1, 206641, Note_off_c, 0, 77, 62
1, 206648, Control_c, 0, 64, 127
1, 206749, Note_on_c, 0, 60, 86
1, 206753, Note_on_c, 0, 72, 76
1, 206760, Note_on_c, 0, 57, 65
1, 206760, Note_on_c, 0, 69, 72
1, 206787, Note_off_c, 0, 69, 67
1, 206796, Note_off_c, 0, 57, 60
1, 206797, Note_off_c, 0, 60, 62
1, 206808, Note_off_c, 0, 72, 63
1, 206866, Note_on_c, 0, 71, 69
1, 206868, Note_on_c, 0, 74, 75
1, 206870, Note_on_c, 0, 62, 76
1, 206877, Note_on_c, 0, 59, 65
1, 206894, Note_off_c, 0, 71, 65
1, 206912, Note_off_c, 0, 74, 60
1, 206923, Note_off_c, 0, 59, 53
1, 206924, Note_off_c, 0, 62, 61
1, 206991, Note_on_c, 0, 72, 76
1, 206993, Note_on_c, 0, 76, 85
1, 206996, Note_on_c, 0, 64, 73
1, 206998, Note_on_c, 0, 60, 71
1, 207010, Note_off_c, 0, 72, 74
1, 207032, Note_off_c, 0, 76, 67
1, 207046, Note_off_c, 0, 64, 61
1, 207051, Note_off_c, 0, 60, 61
1, 207131, Note_on_c, 0, 92, 96
1, 207133, Note_on_c, 0, 62, 80
1, 207136, Note_on_c, 0, 59, 75
1, 207137, Note_on_c, 0, 80, 90
1, 207173, Note_off_c, 0, 80, 61
1, 207181, Note_off_c, 0, 92, 64
1, 207184, Note_off_c, 0, 62, 60
1, 207190, Note_off_c, 0, 59, 61
1, 207266, Note_on_c, 0, 60, 69
1, 207267, Note_on_c, 0, 57, 74
1, 207267, Note_on_c, 0, 93, 99
1, 207274, Note_on_c, 0, 81, 84
1, 207285, Note_off_c, 0, 60, 62
1, 207290, Note_off_c, 0, 57, 68
1, 207302, Note_off_c, 0, 81, 61
1, 207311, Note_off_c, 0, 93, 64
1, 207366, Control_c, 0, 64, 109
1, 207382, Control_c, 0, 64, 73
1, 207397, Control_c, 0, 64, 0
1, 207443, Note_on_c, 0, 40, 96
1, 207446, Note_on_c, 0, 28, 93
1, 207446, Note_on_c, 0, 84, 97
1, 207452, Note_on_c, 0, 72, 86
1, 207456, Control_c, 0, 64, 49
1, 207470, Control_c, 0, 64, 83
1, 207471, Note_off_c, 0, 28, 68
1, 207474, Note_off_c, 0, 72, 68
1, 207481, Note_off_c, 0, 40, 65
1, 207485, Control_c, 0, 64, 127
1, 207488, Note_off_c, 0, 84, 64
1, 207616, Note_on_c, 0, 68, 76
1, 207618, Note_on_c, 0, 56, 73
1, 207622, Note_on_c, 0, 52, 66
1, 207623, Note_on_c, 0, 64, 66
1, 207658, Note_off_c, 0, 64, 61
1, 207661, Note_off_c, 0, 52, 61
1, 207669, Note_off_c, 0, 56, 61
1, 207671, Note_off_c, 0, 68, 62
1, 207741, Note_on_c, 0, 57, 59
1, 207742, Note_on_c, 0, 69, 76
1, 207744, Note_on_c, 0, 54, 59
1, 207747, Note_on_c, 0, 66, 69
1, 207777, Note_off_c, 0, 57, 63
1, 207781, Note_off_c, 0, 66, 61
1, 207786, Note_off_c, 0, 54, 59
1, 207798, Note_off_c, 0, 69, 64
1, 207874, Note_on_c, 0, 56, 66
1, 207878, Note_on_c, 0, 59, 67
1, 207880, Note_on_c, 0, 71, 84
1, 207883, Note_on_c, 0, 68, 76
1, 207906, Note_off_c, 0, 68, 67
1, 207921, Note_off_c, 0, 71, 58
1, 207924, Note_off_c, 0, 59, 55
1, 207933, Note_off_c, 0, 56, 61
1, 207992, Note_on_c, 0, 57, 81
1, 207998, Note_on_c, 0, 54, 76
1, 208037, Note_off_c, 0, 57, 62
1, 208055, Note_off_c, 0, 54, 61
1, 208146, Note_on_c, 0, 56, 80
1, 208151, Note_on_c, 0, 76, 101
1, 208152, Note_on_c, 0, 88, 102
1, 208157, Note_on_c, 0, 52, 77
1, 208167, Note_off_c, 0, 56, 69
1, 208179, Note_off_c, 0, 52, 73
1, 208227, Note_off_c, 0, 76, 57
1, 208238, Note_off_c, 0, 88, 59
1, 208293, Control_c, 0, 64, 87
1, 208308, Control_c, 0, 64, 59
1, 208323, Control_c, 0, 64, 0
1, 208329, Note_on_c, 0, 45, 94
1, 208331, Note_on_c, 0, 77, 99
1, 208332, Note_on_c, 0, 89, 103
1, 208335, Note_on_c, 0, 33, 84
1, 208358, Note_off_c, 0, 33, 65
1, 208364, Note_off_c, 0, 89, 67
1, 208367, Control_c, 0, 64, 56
1, 208370, Note_off_c, 0, 45, 66
1, 208382, Control_c, 0, 64, 79
1, 208388, Note_off_c, 0, 77, 62
1, 208397, Control_c, 0, 64, 127
1, 208495, Note_on_c, 0, 60, 77
1, 208500, Note_on_c, 0, 72, 74
1, 208501, Note_on_c, 0, 57, 66
1, 208510, Note_on_c, 0, 69, 64
1, 208542, Note_off_c, 0, 69, 65
1, 208543, Note_off_c, 0, 60, 59
1, 208546, Note_off_c, 0, 57, 54
1, 208552, Note_off_c, 0, 72, 60
1, 208620, Note_on_c, 0, 62, 72
1, 208623, Note_on_c, 0, 74, 71
1, 208626, Note_on_c, 0, 71, 60
1, 208629, Note_on_c, 0, 59, 58
1, 208656, Note_off_c, 0, 71, 64
1, 208665, Note_off_c, 0, 59, 61
1, 208665, Note_off_c, 0, 74, 58
1, 208671, Note_off_c, 0, 62, 60
1, 208751, Note_on_c, 0, 76, 79
1, 208752, Note_on_c, 0, 60, 67
1, 208752, Note_on_c, 0, 72, 71
1, 208753, Note_on_c, 0, 64, 72
1, 208771, Note_off_c, 0, 72, 68
1, 208796, Note_off_c, 0, 60, 55
1, 208796, Note_off_c, 0, 64, 60
1, 208796, Note_off_c, 0, 76, 64
1, 208882, Note_on_c, 0, 62, 80
1, 208883, Note_on_c, 0, 92, 89
1, 208884, Note_on_c, 0, 80, 92
1, 208886, Note_on_c, 0, 59, 70
1, 208901, Note_on_c, 0, 90, 64
1, 208908, Note_off_c, 0, 80, 62
1, 208917, Note_off_c, 0, 59, 58
1, 208921, Note_off_c, 0, 90, 62
1, 208921, Note_off_c, 0, 62, 56
1, 208922, Note_off_c, 0, 92, 67
1, 209011, Note_on_c, 0, 60, 67
1, 209014, Note_on_c, 0, 93, 104
1, 209015, Note_on_c, 0, 57, 69
1, 209022, Note_on_c, 0, 81, 87
1, 209026, Note_off_c, 0, 60, 67
1, 209038, Note_off_c, 0, 57, 69
1, 209049, Note_off_c, 0, 81, 62
1, 209055, Note_off_c, 0, 93, 61
1, 209101, Control_c, 0, 64, 88
1, 209116, Control_c, 0, 64, 62
1, 209131, Control_c, 0, 64, 0
1, 209176, Note_on_c, 0, 40, 91
1, 209178, Note_on_c, 0, 84, 100
1, 209181, Note_on_c, 0, 28, 79
1, 209185, Note_on_c, 0, 72, 80
1, 209190, Control_c, 0, 64, 63
1, 209204, Note_off_c, 0, 72, 74
1, 209205, Note_off_c, 0, 28, 60
1, 209205, Control_c, 0, 64, 93
1, 209209, Note_off_c, 0, 40, 66
1, 209218, Note_off_c, 0, 84, 66
1, 209220, Control_c, 0, 64, 127
1, 209226, Note_on_c, 0, 29, 21
1, 209271, Note_off_c, 0, 29, 37
1, 209350, Note_on_c, 0, 56, 71
1, 209354, Note_on_c, 0, 68, 69
1, 209358, Note_on_c, 0, 52, 59
1, 209396, Note_off_c, 0, 52, 61
1, 209398, Note_off_c, 0, 68, 60
1, 209402, Note_off_c, 0, 56, 61
1, 209418, Poly_aftertouch_c, 0, 64, 127
1, 209442, Poly_aftertouch_c, 0, 64, 0
1, 209471, Note_on_c, 0, 57, 68
1, 209472, Note_on_c, 0, 66, 57
1, 209473, Note_on_c, 0, 69, 64
1, 209481, Note_on_c, 0, 54, 60
1, 209508, Note_off_c, 0, 57, 57
1, 209511, Note_off_c, 0, 69, 60
1, 209514, Note_off_c, 0, 66, 62
1, 209522, Note_off_c, 0, 54, 59
1, 209596, Note_on_c, 0, 56, 67
1, 209601, Note_on_c, 0, 59, 68
1, 209605, Note_on_c, 0, 71, 70
1, 209610, Note_on_c, 0, 68, 60
1, 209629, Note_off_c, 0, 68, 61
1, 209637, Note_off_c, 0, 71, 59
1, 209645, Note_off_c, 0, 59, 51
1, 209661, Note_off_c, 0, 56, 61
1, 209720, Note_on_c, 0, 57, 73
1, 209728, Note_on_c, 0, 54, 71
1, 209735, Note_on_c, 0, 87, 91
1, 209738, Note_on_c, 0, 75, 88
1, 209770, Note_off_c, 0, 57, 58
1, 209781, Note_off_c, 0, 75, 64
1, 209784, Note_off_c, 0, 54, 61
1, 209788, Note_off_c, 0, 87, 62
1, 209860, Note_on_c, 0, 56, 77
1, 209869, Note_on_c, 0, 76, 94
1, 209870, Note_on_c, 0, 88, 96
1, 209876, Note_on_c, 0, 52, 60
1, 209880, Note_off_c, 0, 56, 66
1, 209908, Note_off_c, 0, 52, 64
1, 209915, Note_off_c, 0, 76, 67
1, 209919, Note_off_c, 0, 88, 64
1, 209954, Control_c, 0, 64, 84
1, 209969, Control_c, 0, 64, 53
1, 209984, Control_c, 0, 64, 0
1, 210012, Note_on_c, 0, 45, 96
1, 210015, Note_on_c, 0, 89, 103
1, 210017, Note_on_c, 0, 77, 98
1, 210018, Note_on_c, 0, 33, 82
1, 210028, Control_c, 0, 64, 31
1, 210039, Note_off_c, 0, 33, 66
1, 210043, Control_c, 0, 64, 67
1, 210047, Note_off_c, 0, 89, 69
1, 210057, Note_off_c, 0, 45, 63
1, 210065, Control_c, 0, 64, 108
1, 210074, Note_off_c, 0, 77, 61
1, 210080, Control_c, 0, 64, 127
1, 210182, Note_on_c, 0, 60, 77
1, 210185, Note_on_c, 0, 57, 73
1, 210188, Note_on_c, 0, 72, 73
1, 210189, Note_on_c, 0, 69, 75
1, 210230, Note_off_c, 0, 69, 61
1, 210233, Note_off_c, 0, 60, 60
1, 210242, Note_off_c, 0, 57, 60
1, 210244, Note_off_c, 0, 72, 63
1, 210303, Note_on_c, 0, 62, 72
1, 210307, Note_on_c, 0, 74, 73
1, 210311, Note_on_c, 0, 59, 63
1, 210311, Note_on_c, 0, 71, 61
1, 210340, Note_off_c, 0, 71, 64
1, 210356, Note_off_c, 0, 74, 61
1, 210357, Note_off_c, 0, 62, 60
1, 210359, Note_off_c, 0, 59, 53
1, 210431, Note_on_c, 0, 60, 72
1, 210433, Note_on_c, 0, 64, 69
1, 210433, Note_on_c, 0, 76, 83
1, 210448, Note_on_c, 0, 72, 46
1, 210471, Note_off_c, 0, 72, 62
1, 210471, Note_off_c, 0, 76, 65
1, 210474, Note_off_c, 0, 64, 60
1, 210484, Note_off_c, 0, 60, 61
1, 210566, Note_on_c, 0, 59, 73
1, 210566, Note_on_c, 0, 62, 78
1, 210568, Note_on_c, 0, 92, 94
1, 210575, Note_on_c, 0, 80, 90
1, 210611, Note_off_c, 0, 62, 58
1, 210617, Note_off_c, 0, 80, 64
1, 210622, Note_off_c, 0, 59, 60
1, 210624, Note_off_c, 0, 92, 65
1, 210695, Note_on_c, 0, 60, 67
1, 210701, Note_on_c, 0, 57, 72
1, 210705, Note_on_c, 0, 93, 98
1, 210710, Note_on_c, 0, 81, 84
1, 210711, Note_off_c, 0, 60, 67
1, 210725, Note_off_c, 0, 57, 66
1, 210743, Note_off_c, 0, 93, 64
1, 210743, Note_off_c, 0, 81, 58
1, 210792, Control_c, 0, 64, 95
1, 210814, Control_c, 0, 64, 67
1, 210829, Control_c, 0, 64, 0
1, 210873, Note_on_c, 0, 40, 92
1, 210883, Note_on_c, 0, 28, 68
1, 210886, Note_on_c, 0, 86, 84
1, 210886, Note_on_c, 0, 84, 81
1, 210888, Control_c, 0, 64, 45
1, 210891, Note_on_c, 0, 72, 74
1, 210903, Note_off_c, 0, 86, 71
1, 210903, Control_c, 0, 64, 75
1, 210904, Note_on_c, 0, 29, 44
1, 210904, Note_off_c, 0, 40, 67
1, 210907, Note_off_c, 0, 72, 69
1, 210909, Note_off_c, 0, 28, 38
1, 210918, Control_c, 0, 64, 127
1, 210929, Note_off_c, 0, 84, 62
1, 210943, Note_off_c, 0, 29, 53
1, 211038, Note_on_c, 0, 56, 73
1, 211044, Note_on_c, 0, 52, 66
1, 211044, Note_on_c, 0, 68, 76
1, 211054, Note_on_c, 0, 64, 63
1, 211089, Note_off_c, 0, 52, 61
1, 211089, Note_off_c, 0, 64, 62
1, 211090, Note_off_c, 0, 56, 61
1, 211109, Note_off_c, 0, 68, 63
1, 211155, Note_on_c, 0, 57, 77
1, 211166, Note_on_c, 0, 69, 75
1, 211169, Note_on_c, 0, 66, 66
1, 211172, Note_on_c, 0, 54, 62
1, 211200, Note_off_c, 0, 66, 65
1, 211212, Note_off_c, 0, 54, 59
1, 211212, Note_off_c, 0, 57, 61
1, 211220, Note_off_c, 0, 69, 64
1, 211292, Note_on_c, 0, 71, 85
1, 211295, Note_on_c, 0, 68, 77
1, 211297, Note_on_c, 0, 59, 73
1, 211300, Note_on_c, 0, 56, 72
1, 211321, Note_off_c, 0, 68, 66
1, 211334, Note_off_c, 0, 71, 58
1, 211349, Note_off_c, 0, 59, 58
1, 211354, Note_off_c, 0, 56, 61
1, 211429, Note_on_c, 0, 57, 86
1, 211434, Note_on_c, 0, 54, 77
1, 211476, Note_off_c, 0, 57, 63
1, 211495, Note_off_c, 0, 54, 60
1, 211589, Note_on_c, 0, 76, 100
1, 211589, Note_on_c, 0, 88, 97
1, 211591, Note_on_c, 0, 56, 77
1, 211600, Note_on_c, 0, 52, 76
1, 211613, Note_off_c, 0, 56, 70
1, 211627, Note_off_c, 0, 52, 68
1, 211679, Note_off_c, 0, 76, 60
1, 211685, Note_off_c, 0, 88, 60
1, 211726, Control_c, 0, 64, 88
1, 211741, Control_c, 0, 64, 61
1, 211756, Control_c, 0, 64, 0
1, 211771, Note_on_c, 0, 45, 97
1, 211773, Note_on_c, 0, 77, 98
1, 211774, Note_on_c, 0, 89, 101
1, 211779, Note_on_c, 0, 33, 81
1, 211801, Control_c, 0, 64, 41
1, 211801, Note_off_c, 0, 33, 65
1, 211809, Note_off_c, 0, 89, 69
1, 211812, Note_off_c, 0, 45, 67
1, 211816, Control_c, 0, 64, 69
1, 211825, Note_off_c, 0, 77, 63
1, 211830, Control_c, 0, 64, 100
1, 211845, Control_c, 0, 64, 127
1, 211942, Note_on_c, 0, 73, 75
1, 211944, Note_on_c, 0, 61, 82
1, 211951, Note_on_c, 0, 57, 62
1, 211952, Note_on_c, 0, 69, 63
1, 211988, Note_off_c, 0, 69, 61
1, 211988, Note_off_c, 0, 57, 61
1, 211994, Note_off_c, 0, 61, 62
1, 212007, Note_off_c, 0, 73, 62
1, 212060, Note_on_c, 0, 74, 70
1, 212063, Note_on_c, 0, 71, 62
1, 212072, Note_on_c, 0, 62, 76
1, 212075, Note_on_c, 0, 59, 64
1, 212095, Note_off_c, 0, 71, 64
1, 212100, Note_off_c, 0, 74, 57
1, 212114, Note_off_c, 0, 59, 55
1, 212124, Note_off_c, 0, 62, 61
1, 212192, Note_on_c, 0, 76, 79
1, 212197, Note_on_c, 0, 73, 71
1, 212203, Note_on_c, 0, 64, 72
1, 212207, Note_on_c, 0, 61, 70
1, 212217, Note_off_c, 0, 73, 68
1, 212234, Note_off_c, 0, 76, 63
1, 212242, Note_off_c, 0, 64, 59
1, 212248, Note_off_c, 0, 61, 58
1, 212332, Note_on_c, 0, 92, 95
1, 212335, Note_on_c, 0, 80, 95
1, 212340, Note_on_c, 0, 62, 81
1, 212343, Note_on_c, 0, 59, 72
1, 212376, Note_off_c, 0, 80, 64
1, 212383, Note_off_c, 0, 59, 57
1, 212384, Note_off_c, 0, 62, 58
1, 212384, Note_off_c, 0, 92, 65
1, 212415, Control_c, 0, 64, 116
1, 212430, Control_c, 0, 64, 95
1, 212445, Control_c, 0, 64, 77
1, 212460, Control_c, 0, 64, 64
1, 212464, Note_on_c, 0, 61, 76
1, 212465, Note_on_c, 0, 57, 73
1, 212470, Note_on_c, 0, 93, 98
1, 212472, Note_on_c, 0, 81, 91
1, 212475, Control_c, 0, 64, 39
1, 212478, Note_off_c, 0, 61, 68
1, 212487, Note_off_c, 0, 57, 69
1, 212490, Control_c, 0, 64, 0
1, 212518, Note_off_c, 0, 81, 59
1, 212522, Note_off_c, 0, 93, 61
1, 212624, Note_on_c, 0, 38, 97
1, 212628, Note_on_c, 0, 82, 97
1, 212629, Note_on_c, 0, 26, 82
1, 212632, Note_on_c, 0, 94, 101
1, 212638, Control_c, 0, 64, 54
1, 212652, Note_off_c, 0, 26, 59
1, 212652, Control_c, 0, 64, 127
1, 212658, Note_off_c, 0, 38, 63
1, 212663, Note_off_c, 0, 94, 69
1, 212680, Note_off_c, 0, 82, 62
1, 212803, Note_on_c, 0, 77, 69
1, 212809, Note_on_c, 0, 74, 63
1, 212835, Note_on_c, 0, 64, 63
1, 212857, Note_off_c, 0, 74, 52
1, 212865, Note_off_c, 0, 64, 66
1, 212877, Note_off_c, 0, 77, 61
1, 212925, Poly_aftertouch_c, 0, 60, 0
1, 212937, Note_on_c, 0, 67, 80
1, 212938, Note_on_c, 0, 76, 63
1, 212938, Note_on_c, 0, 79, 77
1, 212939, Note_on_c, 0, 64, 65
1, 212969, Note_off_c, 0, 76, 67
1, 212980, Note_off_c, 0, 64, 62
1, 212984, Note_off_c, 0, 67, 59
1, 212995, Note_off_c, 0, 79, 61
1, 213047, Note_on_c, 0, 65, 71
1, 213065, Note_on_c, 0, 77, 76
1, 213066, Note_on_c, 0, 81, 77
1, 213067, Note_on_c, 0, 69, 71
1, 213086, Note_off_c, 0, 65, 65
1, 213088, Note_off_c, 0, 77, 69
1, 213092, Note_off_c, 0, 69, 70
1, 213112, Note_off_c, 0, 81, 60
1, 213202, Note_on_c, 0, 73, 76
1, 213208, Note_on_c, 0, 79, 91
1, 213210, Note_on_c, 0, 64, 40
1, 213212, Note_on_c, 0, 91, 80
1, 213217, Note_on_c, 0, 93, 85
1, 213225, Note_on_c, 0, 65, 50
1, 213227, Note_off_c, 0, 73, 65
1, 213237, Note_off_c, 0, 93, 68
1, 213242, Note_off_c, 0, 65, 65
1, 213246, Note_off_c, 0, 64, 59
1, 213251, Note_off_c, 0, 79, 62
1, 213257, Note_off_c, 0, 91, 60
1, 213336, Note_on_c, 0, 62, 85
1, 213336, Note_on_c, 0, 74, 74
1, 213348, Note_on_c, 0, 77, 85
1, 213351, Note_on_c, 0, 89, 87
1, 213351, Note_off_c, 0, 74, 70
1, 213381, Note_off_c, 0, 62, 60
1, 213402, Note_off_c, 0, 89, 59
1, 213404, Note_off_c, 0, 77, 59
1, 213461, Control_c, 0, 64, 98
1, 213475, Control_c, 0, 64, 68
1, 213490, Control_c, 0, 64, 0
1, 213507, Note_on_c, 0, 43, 98
1, 213514, Note_on_c, 0, 75, 97
1, 213515, Note_on_c, 0, 31, 82
1, 213522, Note_on_c, 0, 87, 88
1, 213535, Control_c, 0, 64, 33
1, 213545, Note_off_c, 0, 31, 66
1, 213545, Note_off_c, 0, 87, 68
1, 213547, Note_off_c, 0, 43, 59
1, 213549, Control_c, 0, 64, 69
1, 213564, Control_c, 0, 64, 112
1, 213570, Note_off_c, 0, 75, 63
1, 213579, Control_c, 0, 64, 127
1, 213679, Note_on_c, 0, 71, 73
1, 213685, Note_on_c, 0, 59, 73
1, 213685, Note_on_c, 0, 67, 71
1, 213704, Note_on_c, 0, 55, 46
1, 213726, Note_off_c, 0, 67, 56
1, 213739, Note_off_c, 0, 59, 62
1, 213741, Note_off_c, 0, 55, 47
1, 213750, Note_off_c, 0, 71, 58
1, 213821, Note_on_c, 0, 60, 79
1, 213826, Note_on_c, 0, 57, 57
1, 213828, Note_on_c, 0, 72, 79
1, 213831, Note_on_c, 0, 69, 76
1, 213861, Note_off_c, 0, 69, 65
1, 213866, Note_off_c, 0, 57, 60
1, 213869, Note_off_c, 0, 60, 61
1, 213881, Note_off_c, 0, 72, 64
1, 213956, Note_on_c, 0, 59, 68
1, 213956, Note_on_c, 0, 74, 86
1, 213959, Note_on_c, 0, 62, 73
1, 213969, Note_on_c, 0, 71, 59
1, 213986, Note_off_c, 0, 71, 63
1, 213992, Note_off_c, 0, 62, 59
1, 213992, Note_off_c, 0, 74, 69
1, 214004, Note_off_c, 0, 59, 62
1, 214096, Note_on_c, 0, 60, 81
1, 214096, Note_on_c, 0, 90, 105
1, 214098, Note_on_c, 0, 78, 104
1, 214102, Note_on_c, 0, 57, 66
1, 214125, Note_off_c, 0, 60, 63
1, 214134, Note_off_c, 0, 57, 63
1, 214145, Note_off_c, 0, 78, 60
1, 214156, Note_off_c, 0, 90, 61
1, 214231, Note_on_c, 0, 59, 65
1, 214235, Note_on_c, 0, 55, 73
1, 214247, Note_off_c, 0, 59, 66
1, 214249, Note_on_c, 0, 79, 98
1, 214251, Note_on_c, 0, 91, 101
1, 214261, Note_off_c, 0, 55, 64
1, 214296, Note_off_c, 0, 79, 59
1, 214330, Note_off_c, 0, 91, 49
1, 214358, Control_c, 0, 64, 115
1, 214372, Control_c, 0, 64, 73
1, 214387, Control_c, 0, 64, 0
1, 214422, Note_on_c, 0, 36, 90
1, 214422, Note_on_c, 0, 80, 102
1, 214424, Note_on_c, 0, 24, 75
1, 214425, Note_on_c, 0, 92, 100
1, 214447, Control_c, 0, 64, 66
1, 214454, Note_off_c, 0, 24, 59
1, 214457, Note_off_c, 0, 36, 62
1, 214462, Control_c, 0, 64, 103
1, 214463, Note_off_c, 0, 92, 66
1, 214477, Control_c, 0, 64, 127
1, 214487, Note_off_c, 0, 80, 63
1, 214614, Note_on_c, 0, 64, 77
1, 214618, Note_on_c, 0, 76, 75
1, 214621, Note_on_c, 0, 60, 67
1, 214621, Note_on_c, 0, 72, 72
1, 214662, Note_off_c, 0, 60, 55
1, 214665, Note_off_c, 0, 72, 60
1, 214669, Note_off_c, 0, 64, 63
1, 214689, Note_off_c, 0, 76, 62
1, 214743, Note_on_c, 0, 65, 75
1, 214749, Note_on_c, 0, 77, 82
1, 214751, Note_on_c, 0, 62, 62
1, 214751, Note_on_c, 0, 74, 73
1, 214788, Note_off_c, 0, 74, 62
1, 214792, Note_off_c, 0, 62, 57
1, 214793, Note_off_c, 0, 65, 63
1, 214804, Note_off_c, 0, 77, 61
1, 214873, Note_on_c, 0, 67, 75
1, 214874, Note_on_c, 0, 64, 66
1, 214875, Note_on_c, 0, 79, 84
1, 214877, Note_on_c, 0, 76, 79
1, 214898, Note_off_c, 0, 76, 74
1, 214916, Note_off_c, 0, 64, 61
1, 214919, Note_off_c, 0, 79, 64
1, 214927, Note_off_c, 0, 67, 62
1, 215011, Note_on_c, 0, 89, 102
1, 215013, Note_on_c, 0, 77, 94
1, 215016, Note_on_c, 0, 71, 79
1, 215022, Note_on_c, 0, 62, 67
1, 215044, Note_off_c, 0, 71, 59
1, 215050, Note_off_c, 0, 62, 65
1, 215056, Note_off_c, 0, 77, 62
1, 215059, Note_off_c, 0, 89, 66
1, 215145, Note_on_c, 0, 60, 87
1, 215145, Note_on_c, 0, 72, 82
1, 215154, Note_on_c, 0, 88, 97
1, 215155, Note_on_c, 0, 76, 97
1, 215165, Note_off_c, 0, 72, 72
1, 215189, Note_off_c, 0, 60, 61
1, 215199, Note_off_c, 0, 76, 66
1, 215213, Note_off_c, 0, 88, 60
1, 215256, Control_c, 0, 64, 89
1, 215271, Control_c, 0, 64, 62
1, 215286, Control_c, 0, 64, 0
1, 215322, Note_on_c, 0, 38, 91
1, 215322, Note_on_c, 0, 91, 108
1, 215324, Note_on_c, 0, 26, 87
1, 215326, Note_on_c, 0, 79, 99
1, 215337, Control_c, 0, 64, 52
1, 215346, Note_off_c, 0, 26, 65
1, 215352, Control_c, 0, 64, 80
1, 215357, Note_off_c, 0, 91, 65
1, 215364, Note_off_c, 0, 38, 64
1, 215366, Note_off_c, 0, 79, 67
1, 215367, Control_c, 0, 64, 127
1, 215493, Note_on_c, 0, 70, 76
1, 215494, Note_on_c, 0, 74, 69
1, 215506, Note_on_c, 0, 62, 70
1, 215519, Note_on_c, 0, 58, 57
1, 215519, Note_off_c, 0, 70, 64
1, 215548, Note_off_c, 0, 58, 66
1, 215572, Note_off_c, 0, 74, 57
1, 215581, Note_off_c, 0, 62, 53
1, 215609, Note_on_c, 0, 64, 71
1, 215619, Note_on_c, 0, 76, 76
1, 215620, Note_on_c, 0, 60, 58
1, 215622, Note_on_c, 0, 72, 73
1, 215654, Note_off_c, 0, 72, 64
1, 215667, Note_off_c, 0, 60, 54
1, 215673, Note_off_c, 0, 64, 63
1, 215674, Note_off_c, 0, 76, 65
1, 215736, Note_on_c, 0, 62, 69
1, 215744, Note_on_c, 0, 65, 69
1, 215746, Note_on_c, 0, 77, 86
1, 215753, Note_on_c, 0, 74, 77
1, 215774, Note_off_c, 0, 74, 73
1, 215775, Note_off_c, 0, 65, 67
1, 215784, Note_off_c, 0, 62, 59
1, 215790, Note_off_c, 0, 77, 63
1, 215881, Note_on_c, 0, 60, 74
1, 215883, Note_on_c, 0, 69, 75
1, 215888, Note_on_c, 0, 76, 97
1, 215888, Note_on_c, 0, 88, 99
1, 215910, Note_off_c, 0, 69, 68
1, 215916, Note_off_c, 0, 60, 60
1, 215932, Note_off_c, 0, 76, 67
1, 215935, Note_off_c, 0, 88, 64
1, 216018, Note_on_c, 0, 58, 77
1, 216031, Note_on_c, 0, 86, 101
1, 216031, Note_on_c, 0, 74, 96
1, 216034, Note_on_c, 0, 70, 44
1, 216035, Note_off_c, 0, 70, 127
1, 216051, Note_off_c, 0, 58, 58
1, 216082, Note_on_c, 0, 57, 6
1, 216082, Note_off_c, 0, 74, 65
1, 216111, Note_off_c, 0, 86, 58
1, 216126, Note_off_c, 0, 57, 39
1, 216131, Control_c, 0, 64, 108
1, 216146, Control_c, 0, 64, 76
1, 216160, Control_c, 0, 64, 41
1, 216176, Control_c, 0, 64, 0
1, 216212, Note_on_c, 0, 36, 89
1, 216214, Note_on_c, 0, 89, 100
1, 216216, Note_on_c, 0, 77, 98
1, 216221, Note_on_c, 0, 24, 74
1, 216235, Control_c, 0, 64, 41
1, 216237, Note_on_c, 0, 23, 37
1, 216238, Note_off_c, 0, 23, 127
1, 216245, Note_off_c, 0, 89, 69
1, 216250, Control_c, 0, 64, 77
1, 216253, Note_off_c, 0, 24, 62
1, 216253, Note_off_c, 0, 36, 61
1, 216265, Control_c, 0, 64, 127
1, 216266, Note_off_c, 0, 77, 62
1, 216395, Note_on_c, 0, 72, 60
1, 216407, Note_on_c, 0, 60, 46
1, 216408, Note_on_c, 0, 69, 50
1, 216411, Note_on_c, 0, 57, 44
1, 216430, Note_on_c, 0, 59, 34
1, 216439, Note_off_c, 0, 69, 57
1, 216444, Note_off_c, 0, 60, 47
1, 216456, Note_off_c, 0, 57, 45
1, 216460, Note_off_c, 0, 59, 52
1, 216463, Note_off_c, 0, 72, 56
1, 216520, Note_on_c, 0, 74, 76
1, 216523, Note_on_c, 0, 62, 73
1, 216523, Note_on_c, 0, 71, 62
1, 216532, Note_on_c, 0, 59, 60
1, 216555, Note_off_c, 0, 71, 64
1, 216568, Note_off_c, 0, 62, 57
1, 216570, Note_off_c, 0, 59, 54
1, 216573, Note_off_c, 0, 74, 64
1, 216650, Note_on_c, 0, 76, 85
1, 216652, Note_on_c, 0, 60, 65
1, 216653, Note_on_c, 0, 72, 77
1, 216658, Note_on_c, 0, 64, 69
1, 216675, Note_off_c, 0, 72, 71
1, 216686, Note_off_c, 0, 60, 58
1, 216693, Note_off_c, 0, 64, 63
1, 216695, Note_off_c, 0, 76, 65
1, 216804, Note_on_c, 0, 86, 95
1, 216805, Note_on_c, 0, 59, 65
1, 216806, Note_on_c, 0, 74, 92
1, 216809, Note_on_c, 0, 68, 77
1, 216851, Note_off_c, 0, 68, 61
1, 216851, Note_off_c, 0, 74, 64
1, 216859, Note_off_c, 0, 59, 59
1, 216866, Note_off_c, 0, 86, 60
1, 216953, Note_on_c, 0, 69, 72
1, 216957, Note_on_c, 0, 57, 77
1, 216964, Note_on_c, 0, 72, 89
1, 216965, Note_on_c, 0, 84, 93
1, 216979, Note_off_c, 0, 69, 67
1, 216991, Note_off_c, 0, 57, 61
1, 217013, Note_off_c, 0, 72, 64
1, 217043, Note_off_c, 0, 84, 62
1, 217086, Control_c, 0, 64, 89
1, 217101, Control_c, 0, 64, 63
1, 217116, Control_c, 0, 64, 0
1, 217146, Note_on_c, 0, 47, 87
1, 217152, Note_on_c, 0, 86, 96
1, 217153, Note_on_c, 0, 74, 95
1, 217154, Note_on_c, 0, 35, 74
1, 217161, Control_c, 0, 64, 46
1, 217176, Control_c, 0, 64, 75
1, 217184, Note_off_c, 0, 35, 65
1, 217190, Control_c, 0, 64, 127
1, 217192, Note_off_c, 0, 86, 66
1, 217196, Note_off_c, 0, 47, 64
1, 217204, Note_off_c, 0, 74, 64
1, 217313, Note_on_c, 0, 57, 77
1, 217313, Note_on_c, 0, 69, 89
1, 217316, Note_on_c, 0, 65, 82
1, 217320, Note_on_c, 0, 53, 66
1, 217438, Note_on_c, 0, 62, 83
1, 217455, Note_off_c, 0, 57, 63
1, 217456, Note_on_c, 0, 74, 90
1, 217459, Note_off_c, 0, 62, 69
1, 217479, Note_off_c, 0, 69, 64
1, 217487, Note_off_c, 0, 53, 65
1, 217494, Note_off_c, 0, 65, 59
1, 217536, Note_off_c, 0, 74, 64
1, 217568, Control_c, 0, 64, 107
1, 217582, Control_c, 0, 64, 70
1, 217597, Control_c, 0, 64, 0
1, 217616, Note_on_c, 0, 40, 92
1, 217617, Note_on_c, 0, 65, 89
1, 217618, Note_on_c, 0, 77, 89
1, 217622, Note_on_c, 0, 28, 88
1, 217626, Note_on_c, 0, 74, 77
1, 217641, Control_c, 0, 64, 55
1, 217643, Note_off_c, 0, 28, 66
1, 217655, Note_off_c, 0, 40, 64
1, 217656, Control_c, 0, 64, 83
1, 217664, Note_off_c, 0, 65, 66
1, 217671, Control_c, 0, 64, 127
1, 217678, Note_off_c, 0, 74, 60
1, 217695, Note_off_c, 0, 77, 62
1, 217801, Note_on_c, 0, 84, 95
1, 217804, Note_on_c, 0, 76, 84
1, 217805, Note_on_c, 0, 64, 83
1, 217807, Note_on_c, 0, 52, 81
1, 217807, Note_on_c, 0, 72, 84
1, 217874, Note_off_c, 0, 84, 60
1, 217876, Note_off_c, 0, 76, 63
1, 217884, Note_off_c, 0, 72, 62
1, 217891, Note_off_c, 0, 64, 62
1, 217957, Note_on_c, 0, 62, 75
1, 217967, Note_on_c, 0, 56, 74
1, 217968, Note_on_c, 0, 74, 82
1, 217968, Note_on_c, 0, 71, 83
1, 217971, Note_on_c, 0, 83, 89
1, 217983, Note_off_c, 0, 62, 66
1, 217997, Note_off_c, 0, 56, 64
1, 218005, Note_off_c, 0, 52, 64
1, 218112, Note_off_c, 0, 71, 53
1, 218115, Note_off_c, 0, 83, 55
1, 218122, Note_off_c, 0, 74, 58
1, 218162, Control_c, 0, 64, 79
1, 218177, Control_c, 0, 64, 44
1, 218191, Control_c, 0, 64, 0
1, 218195, Note_on_c, 0, 45, 94
1, 218199, Note_on_c, 0, 33, 87
1, 218206, Note_on_c, 0, 83, 97
1, 218208, Note_on_c, 0, 71, 92
1, 218210, Note_on_c, 0, 74, 87
1, 218223, Note_off_c, 0, 33, 69
1, 218236, Control_c, 0, 64, 49
1, 218239, Note_off_c, 0, 45, 66
1, 218251, Control_c, 0, 64, 83
1, 218265, Control_c, 0, 64, 127
1, 218305, Note_off_c, 0, 83, 59
1, 218318, Note_off_c, 0, 74, 60
1, 218328, Note_off_c, 0, 71, 57
1, 218421, Note_on_c, 0, 60, 62
1, 218428, Note_on_c, 0, 57, 60
1, 218432, Note_on_c, 0, 72, 74
1, 218438, Note_on_c, 0, 69, 70
1, 218480, Note_off_c, 0, 69, 59
1, 218520, Note_off_c, 0, 72, 63
1, 218565, Note_on_c, 0, 62, 79
1, 218565, Note_on_c, 0, 71, 82
1, 218567, Note_on_c, 0, 74, 80
1, 218568, Note_on_c, 0, 59, 66
1, 218582, Note_off_c, 0, 60, 56
1, 218600, Note_off_c, 0, 57, 51
1, 218615, Note_off_c, 0, 71, 58
1, 218635, Note_off_c, 0, 74, 63
1, 218701, Note_on_c, 0, 72, 82
1, 218702, Note_on_c, 0, 76, 86
1, 218711, Note_on_c, 0, 60, 70
1, 218714, Note_on_c, 0, 64, 73
1, 218725, Note_off_c, 0, 62, 60
1, 218729, Note_off_c, 0, 72, 63
1, 218742, Note_off_c, 0, 59, 59
1, 218752, Note_off_c, 0, 76, 65
1, 218787, Note_off_c, 0, 64, 60
1, 218841, Note_on_c, 0, 68, 94
1, 218842, Note_on_c, 0, 80, 99
1, 218846, Note_on_c, 0, 62, 74
1, 218857, Note_on_c, 0, 59, 67
1, 218882, Note_off_c, 0, 68, 65
1, 218896, Note_off_c, 0, 80, 58
1, 218910, Note_off_c, 0, 60, 36
1, 218997, Note_on_c, 0, 60, 75
1, 219000, Note_on_c, 0, 57, 65
1, 219000, Note_on_c, 0, 81, 91
1, 219006, Note_on_c, 0, 67, 76
1, 219009, Note_off_c, 0, 62, 52
1, 219011, Note_on_c, 0, 69, 78
1, 219017, Note_off_c, 0, 60, 69
1, 219029, Note_off_c, 0, 57, 65
1, 219029, Note_off_c, 0, 67, 69
1, 219033, Note_off_c, 0, 69, 73
1, 219061, Note_off_c, 0, 81, 61
1, 219064, Note_off_c, 0, 59, 22
1, 219110, Control_c, 0, 64, 104
1, 219125, Control_c, 0, 64, 65
1, 219140, Control_c, 0, 64, 0
1, 219179, Note_on_c, 0, 45, 92
1, 219185, Note_on_c, 0, 33, 85
1, 219188, Note_on_c, 0, 79, 94
1, 219191, Note_on_c, 0, 91, 86
1, 219193, Note_on_c, 0, 89, 82
1, 219199, Control_c, 0, 64, 64
1, 219206, Note_off_c, 0, 33, 66
1, 219210, Note_off_c, 0, 91, 68
1, 219214, Control_c, 0, 64, 127
1, 219218, Note_off_c, 0, 89, 66
1, 219220, Note_off_c, 0, 45, 64
1, 219223, Note_off_c, 0, 79, 66
1, 219348, Note_on_c, 0, 61, 77
1, 219352, Note_on_c, 0, 73, 70
1, 219356, Note_on_c, 0, 57, 61
1, 219360, Note_on_c, 0, 69, 62
1, 219401, Note_off_c, 0, 57, 56
1, 219407, Note_off_c, 0, 69, 59
1, 219408, Note_off_c, 0, 61, 60
1, 219417, Note_off_c, 0, 73, 64
1, 219477, Note_on_c, 0, 62, 76
1, 219483, Note_on_c, 0, 59, 65
1, 219487, Note_on_c, 0, 74, 72
1, 219492, Note_on_c, 0, 71, 68
1, 219517, Note_off_c, 0, 71, 66
1, 219529, Note_off_c, 0, 59, 51
1, 219533, Note_off_c, 0, 62, 60
1, 219540, Note_off_c, 0, 74, 64
1, 219609, Note_on_c, 0, 61, 69
1, 219609, Note_on_c, 0, 73, 79
1, 219609, Note_on_c, 0, 76, 86
1, 219614, Note_on_c, 0, 64, 74
1, 219630, Note_off_c, 0, 73, 72
1, 219648, Note_off_c, 0, 61, 59
1, 219650, Note_off_c, 0, 76, 66
1, 219658, Note_off_c, 0, 64, 61
1, 219740, Note_on_c, 0, 92, 100
1, 219742, Note_on_c, 0, 59, 77
1, 219742, Note_on_c, 0, 62, 82
1, 219742, Note_on_c, 0, 80, 93
1, 219772, Note_off_c, 0, 62, 58
1, 219778, Control_c, 0, 64, 117
1, 219779, Note_off_c, 0, 59, 57
1, 219784, Note_off_c, 0, 80, 65
1, 219796, Note_off_c, 0, 92, 64
1, 219799, Control_c, 0, 64, 95
1, 219814, Control_c, 0, 64, 80
1, 219829, Control_c, 0, 64, 68
1, 219843, Control_c, 0, 64, 55
1, 219858, Control_c, 0, 64, 0
1, 219877, Note_on_c, 0, 61, 80
1, 219883, Note_on_c, 0, 93, 106
1, 219888, Note_on_c, 0, 81, 92
1, 219894, Note_on_c, 0, 57, 56
1, 219897, Note_off_c, 0, 61, 68
1, 219915, Note_off_c, 0, 57, 58
1, 219930, Note_off_c, 0, 81, 60
1, 219930, Note_off_c, 0, 93, 62
1, 220043, Note_on_c, 0, 82, 98
1, 220046, Note_on_c, 0, 38, 93
1, 220046, Note_on_c, 0, 94, 100
1, 220051, Control_c, 0, 64, 64
1, 220052, Note_on_c, 0, 26, 75
1, 220066, Control_c, 0, 64, 127
1, 220078, Note_off_c, 0, 26, 37
1, 220080, Note_off_c, 0, 38, 64
1, 220082, Note_off_c, 0, 94, 68
1, 220098, Note_off_c, 0, 82, 59
1, 220223, Note_on_c, 0, 65, 81
1, 220224, Note_on_c, 0, 77, 67
1, 220225, Note_on_c, 0, 74, 65
1, 220235, Note_on_c, 0, 62, 62
1, 220272, Note_off_c, 0, 74, 61
1, 220277, Note_off_c, 0, 65, 63
1, 220279, Note_off_c, 0, 62, 56
1, 220290, Note_off_c, 0, 77, 61
1, 220344, Note_on_c, 0, 67, 82
1, 220350, Note_on_c, 0, 76, 75
1, 220351, Note_on_c, 0, 64, 65
1, 220351, Note_on_c, 0, 79, 78
1, 220390, Note_off_c, 0, 76, 62
1, 220395, Note_off_c, 0, 67, 62
1, 220401, Note_off_c, 0, 79, 62
1, 220404, Note_off_c, 0, 64, 54
1, 220469, Note_on_c, 0, 65, 76
1, 220478, Note_on_c, 0, 69, 72
1, 220480, Note_on_c, 0, 77, 78
1, 220481, Note_on_c, 0, 81, 78
1, 220502, Note_off_c, 0, 77, 69
1, 220506, Note_off_c, 0, 69, 67
1, 220509, Note_off_c, 0, 65, 54
1, 220520, Note_on_c, 0, 79, 25
1, 220521, Note_off_c, 0, 79, 127
1, 220523, Note_off_c, 0, 81, 62
1, 220623, Note_on_c, 0, 73, 75
1, 220624, Note_on_c, 0, 91, 100
1, 220624, Note_on_c, 0, 79, 98
1, 220629, Note_on_c, 0, 64, 55
1, 220651, Note_off_c, 0, 73, 61
1, 220661, Note_off_c, 0, 79, 65
1, 220666, Note_off_c, 0, 91, 59
1, 220671, Note_off_c, 0, 64, 54
1, 220759, Note_on_c, 0, 74, 70
1, 220759, Note_on_c, 0, 62, 81
1, 220767, Note_on_c, 0, 77, 90
1, 220767, Note_on_c, 0, 89, 95
1, 220783, Note_off_c, 0, 74, 70
1, 220800, Note_off_c, 0, 62, 63
1, 220808, Note_off_c, 0, 77, 61
1, 220826, Note_off_c, 0, 89, 58
1, 220904, Control_c, 0, 64, 89
1, 220919, Control_c, 0, 64, 59
1, 220934, Control_c, 0, 64, 0
1, 220944, Note_on_c, 0, 43, 92
1, 220949, Note_on_c, 0, 75, 101
1, 220949, Note_on_c, 0, 31, 83
1, 220950, Note_on_c, 0, 87, 90
1, 220964, Control_c, 0, 64, 33
1, 220976, Note_off_c, 0, 31, 67
1, 220979, Control_c, 0, 64, 71
1, 220991, Note_off_c, 0, 43, 61
1, 220991, Note_off_c, 0, 87, 67
1, 220994, Control_c, 0, 64, 127
1, 221015, Note_off_c, 0, 75, 63
1, 221118, Note_on_c, 0, 59, 74
1, 221125, Note_on_c, 0, 71, 66
1, 221126, Note_on_c, 0, 55, 66
1, 221133, Note_on_c, 0, 67, 66
1, 221171, Note_off_c, 0, 59, 62
1, 221173, Note_off_c, 0, 55, 54
1, 221179, Note_off_c, 0, 67, 60
1, 221191, Note_off_c, 0, 71, 59
1, 221246, Note_on_c, 0, 60, 69
1, 221247, Note_on_c, 0, 69, 67
1, 221248, Note_on_c, 0, 57, 64
1, 221249, Note_on_c, 0, 72, 76
1, 221280, Note_off_c, 0, 69, 64
1, 221292, Note_off_c, 0, 60, 57
1, 221307, Note_off_c, 0, 72, 63
1, 221318, Note_off_c, 0, 57, 60
1, 221374, Note_on_c, 0, 74, 81
1, 221377, Note_on_c, 0, 59, 63
1, 221377, Note_on_c, 0, 62, 73
1, 221379, Note_on_c, 0, 71, 71
1, 221400, Note_off_c, 0, 71, 64
1, 221414, Note_off_c, 0, 62, 58
1, 221417, Note_off_c, 0, 74, 66
1, 221423, Note_off_c, 0, 59, 62
1, 221505, Note_on_c, 0, 90, 96
1, 221507, Note_on_c, 0, 57, 77
1, 221510, Note_on_c, 0, 78, 89
1, 221514, Note_on_c, 0, 60, 77
1, 221546, Note_off_c, 0, 60, 63
1, 221548, Note_off_c, 0, 78, 59
1, 221553, Note_off_c, 0, 90, 63
1, 221556, Note_off_c, 0, 57, 58
1, 221565, Control_c, 0, 64, 118
1, 221580, Control_c, 0, 64, 102
1, 221595, Control_c, 0, 64, 94
1, 221610, Control_c, 0, 64, 90
1, 221624, Control_c, 0, 64, 85
1, 221632, Note_on_c, 0, 59, 75
1, 221638, Note_on_c, 0, 91, 102
1, 221639, Control_c, 0, 64, 80
1, 221641, Note_on_c, 0, 55, 72
1, 221641, Note_on_c, 0, 79, 95
1, 221652, Note_off_c, 0, 59, 62
1, 221654, Control_c, 0, 64, 75
1, 221668, Note_off_c, 0, 55, 63
1, 221669, Control_c, 0, 64, 69
1, 221684, Control_c, 0, 64, 63
1, 221686, Note_off_c, 0, 79, 63
1, 221690, Note_off_c, 0, 91, 60
1, 221698, Control_c, 0, 64, 56
1, 221713, Control_c, 0, 64, 39
1, 221728, Control_c, 0, 64, 0
1, 221794, Note_on_c, 0, 36, 93
1, 221796, Note_on_c, 0, 80, 98
1, 221799, Note_on_c, 0, 92, 101
1, 221802, Note_on_c, 0, 24, 82
1, 221818, Control_c, 0, 64, 67
1, 221826, Note_off_c, 0, 36, 63
1, 221830, Note_off_c, 0, 24, 59
1, 221833, Control_c, 0, 64, 127
1, 221834, Note_off_c, 0, 92, 68
1, 221855, Note_off_c, 0, 80, 62
1, 221969, Note_on_c, 0, 64, 76
1, 221975, Note_on_c, 0, 76, 72
1, 221978, Note_on_c, 0, 60, 64
1, 221979, Note_on_c, 0, 72, 72
1, 222017, Note_off_c, 0, 60, 56
1, 222022, Note_off_c, 0, 64, 63
1, 222023, Note_off_c, 0, 72, 60
1, 222046, Note_off_c, 0, 76, 62
1, 222092, Note_on_c, 0, 65, 79
1, 222102, Note_on_c, 0, 62, 60
1, 222107, Note_on_c, 0, 74, 71
1, 222107, Note_on_c, 0, 77, 77
1, 222141, Note_off_c, 0, 62, 59
1, 222141, Note_off_c, 0, 74, 60
1, 222148, Note_off_c, 0, 65, 65
1, 222160, Note_off_c, 0, 77, 61
1, 222229, Note_on_c, 0, 64, 65
1, 222233, Note_on_c, 0, 67, 71
1, 222240, Note_on_c, 0, 79, 84
1, 222243, Note_on_c, 0, 76, 79
1, 222266, Note_off_c, 0, 76, 72
1, 222270, Note_off_c, 0, 67, 60
1, 222275, Note_off_c, 0, 64, 61
1, 222285, Note_off_c, 0, 79, 63
1, 222378, Note_on_c, 0, 71, 77
1, 222380, Note_on_c, 0, 62, 73
1, 222386, Note_on_c, 0, 89, 93
1, 222390, Note_on_c, 0, 77, 94
1, 222416, Note_off_c, 0, 71, 54
1, 222425, Note_off_c, 0, 62, 58
1, 222436, Note_off_c, 0, 77, 61
1, 222438, Note_off_c, 0, 89, 65
1, 222524, Note_on_c, 0, 72, 81
1, 222526, Note_on_c, 0, 60, 85
1, 222539, Note_on_c, 0, 76, 94
1, 222539, Note_on_c, 0, 88, 97
1, 222544, Note_off_c, 0, 72, 73
1, 222571, Note_off_c, 0, 60, 63
1, 222588, Note_off_c, 0, 76, 66
1, 222602, Note_off_c, 0, 88, 59
1, 222655, Control_c, 0, 64, 87
1, 222669, Control_c, 0, 64, 61
1, 222684, Control_c, 0, 64, 0
1, 222712, Note_on_c, 0, 38, 89
1, 222716, Note_on_c, 0, 79, 98
1, 222717, Note_on_c, 0, 91, 102
1, 222722, Note_on_c, 0, 26, 80
1, 222729, Control_c, 0, 64, 49
1, 222744, Control_c, 0, 64, 83
1, 222744, Note_off_c, 0, 38, 64
1, 222748, Note_off_c, 0, 91, 63
1, 222754, Note_off_c, 0, 26, 61
1, 222759, Control_c, 0, 64, 127
1, 222759, Note_off_c, 0, 79, 63
1, 222799, Poly_aftertouch_c, 0, 24, 127
1, 222802, Poly_aftertouch_c, 0, 27, 127
1, 222834, Poly_aftertouch_c, 0, 27, 0
1, 222839, Poly_aftertouch_c, 0, 24, 0
1, 222909, Note_on_c, 0, 74, 70
1, 222910, Note_on_c, 0, 70, 74
1, 222945, Note_off_c, 0, 70, 63
1, 222956, Note_on_c, 0, 58, 23
1, 222956, Note_on_c, 0, 60, 38
1, 222958, Note_on_c, 0, 62, 13
1, 222990, Note_off_c, 0, 74, 56
1, 222994, Note_off_c, 0, 58, 52
1, 223012, Note_off_c, 0, 62, 46
1, 223019, Note_off_c, 0, 60, 0
1, 223027, Note_on_c, 0, 64, 67
1, 223028, Note_on_c, 0, 60, 51
1, 223034, Note_on_c, 0, 72, 73
1, 223036, Note_on_c, 0, 76, 76
1, 223072, Note_off_c, 0, 72, 61
1, 223086, Note_off_c, 0, 64, 63
1, 223088, Note_off_c, 0, 76, 65
1, 223098, Note_off_c, 0, 60, 59
1, 223149, Note_on_c, 0, 62, 69
1, 223160, Note_on_c, 0, 65, 71
1, 223162, Note_on_c, 0, 77, 83
1, 223163, Note_on_c, 0, 74, 79
1, 223188, Note_off_c, 0, 74, 64
1, 223201, Note_off_c, 0, 65, 60
1, 223207, Note_off_c, 0, 62, 61
1, 223207, Note_off_c, 0, 77, 63
1, 223302, Note_on_c, 0, 60, 70
1, 223305, Note_on_c, 0, 69, 76
1, 223307, Note_on_c, 0, 88, 94
1, 223311, Note_on_c, 0, 76, 88
1, 223342, Note_off_c, 0, 60, 58
1, 223343, Note_off_c, 0, 69, 66
1, 223362, Note_off_c, 0, 76, 64
1, 223368, Note_off_c, 0, 88, 58
1, 223441, Note_on_c, 0, 70, 81
1, 223446, Note_on_c, 0, 58, 78
1, 223459, Note_on_c, 0, 74, 94
1, 223459, Note_on_c, 0, 86, 100
1, 223461, Note_off_c, 0, 70, 73
1, 223482, Note_off_c, 0, 58, 57
1, 223511, Note_off_c, 0, 74, 60
1, 223540, Note_off_c, 0, 86, 57
1, 223604, Control_c, 0, 64, 81
1, 223618, Control_c, 0, 64, 53
1, 223633, Control_c, 0, 64, 0
1, 223647, Note_on_c, 0, 36, 91
1, 223647, Note_on_c, 0, 24, 88
1, 223647, Note_on_c, 0, 89, 99
1, 223649, Note_on_c, 0, 77, 95
1, 223671, Note_off_c, 0, 24, 69
1, 223678, Control_c, 0, 64, 62
1, 223689, Note_off_c, 0, 89, 68
1, 223691, Note_off_c, 0, 36, 63
1, 223692, Control_c, 0, 64, 103
1, 223707, Control_c, 0, 64, 127
1, 223711, Note_off_c, 0, 77, 59
1, 223769, Poly_aftertouch_c, 0, 26, 0
1, 223842, Note_on_c, 0, 72, 74
1, 223843, Note_on_c, 0, 69, 73
1, 223844, Note_on_c, 0, 60, 71
1, 223852, Note_on_c, 0, 57, 60
1, 223884, Note_off_c, 0, 69, 59
1, 223897, Note_off_c, 0, 60, 61
1, 223908, Note_off_c, 0, 72, 60
1, 223910, Note_off_c, 0, 57, 55
1, 223965, Note_on_c, 0, 74, 75
1, 223966, Note_on_c, 0, 62, 76
1, 223967, Note_on_c, 0, 71, 69
1, 223976, Note_on_c, 0, 59, 60
1, 224004, Note_off_c, 0, 71, 58
1, 224019, Note_off_c, 0, 74, 64
1, 224024, Note_off_c, 0, 59, 52
1, 224028, Note_off_c, 0, 62, 60
1, 224093, Note_on_c, 0, 60, 71
1, 224102, Note_on_c, 0, 76, 83
1, 224105, Note_on_c, 0, 64, 71
1, 224107, Note_on_c, 0, 72, 75
1, 224129, Note_off_c, 0, 72, 71
1, 224147, Note_off_c, 0, 64, 61
1, 224148, Note_off_c, 0, 76, 66
1, 224154, Note_off_c, 0, 60, 60
1, 224249, Note_on_c, 0, 59, 67
1, 224252, Note_on_c, 0, 86, 97
1, 224253, Note_on_c, 0, 68, 73
1, 224254, Note_on_c, 0, 74, 90
1, 224303, Note_off_c, 0, 74, 65
1, 224312, Note_off_c, 0, 68, 63
1, 224313, Note_off_c, 0, 86, 60
1, 224314, Note_off_c, 0, 59, 60
1, 224416, Note_on_c, 0, 69, 71
1, 224419, Note_on_c, 0, 57, 76
1, 224420, Note_on_c, 0, 72, 93
1, 224425, Note_on_c, 0, 84, 92
1, 224431, Note_off_c, 0, 69, 70
1, 224464, Note_off_c, 0, 57, 62
1, 224472, Note_off_c, 0, 72, 62
1, 224488, Note_off_c, 0, 84, 58
1, 224545, Control_c, 0, 64, 115
1, 224559, Control_c, 0, 64, 70
1, 224574, Control_c, 0, 64, 0
1, 224604, Note_on_c, 0, 47, 91
1, 224610, Note_on_c, 0, 35, 78
1, 224610, Note_on_c, 0, 86, 97
1, 224612, Note_on_c, 0, 74, 92
1, 224619, Control_c, 0, 64, 33
1, 224634, Control_c, 0, 64, 72
1, 224637, Note_off_c, 0, 35, 65
1, 224644, Note_off_c, 0, 86, 68
1, 224649, Control_c, 0, 64, 127
1, 224659, Note_off_c, 0, 74, 63
1, 224660, Note_off_c, 0, 47, 61
1, 224781, Note_on_c, 0, 69, 84
1, 224783, Note_on_c, 0, 57, 75
1, 224784, Note_on_c, 0, 65, 76
1, 224787, Note_on_c, 0, 53, 68
1, 224913, Note_on_c, 0, 62, 80
1, 224926, Note_on_c, 0, 74, 86
1, 224932, Note_off_c, 0, 57, 63
1, 224935, Note_off_c, 0, 62, 68
1, 224953, Note_off_c, 0, 69, 63
1, 224964, Note_off_c, 0, 53, 66
1, 224976, Note_off_c, 0, 65, 60
1, 225017, Note_off_c, 0, 74, 64
1, 225057, Control_c, 0, 64, 89
1, 225072, Control_c, 0, 64, 60
1, 225087, Control_c, 0, 64, 0
1, 225105, Note_on_c, 0, 40, 87
1, 225105, Note_on_c, 0, 65, 92
1, 225107, Note_on_c, 0, 77, 92
1, 225112, Note_on_c, 0, 28, 83
1, 225116, Note_on_c, 0, 74, 82
1, 225117, Control_c, 0, 64, 17
1, 225132, Control_c, 0, 64, 73
1, 225142, Note_off_c, 0, 28, 63
1, 225146, Control_c, 0, 64, 127
1, 225147, Note_off_c, 0, 40, 64
1, 225152, Note_off_c, 0, 65, 65
1, 225166, Note_off_c, 0, 74, 50
1, 225191, Note_off_c, 0, 77, 61
1, 225291, Note_on_c, 0, 64, 81
1, 225298, Note_on_c, 0, 52, 77
1, 225298, Note_on_c, 0, 84, 89
1, 225301, Note_on_c, 0, 76, 79
1, 225302, Note_on_c, 0, 72, 83
1, 225354, Note_off_c, 0, 64, 59
1, 225382, Note_off_c, 0, 76, 62
1, 225382, Note_off_c, 0, 84, 61
1, 225385, Note_off_c, 0, 72, 61
1, 225468, Note_on_c, 0, 56, 70
1, 225471, Note_on_c, 0, 62, 60
1, 225471, Note_on_c, 0, 74, 80
1, 225474, Note_on_c, 0, 71, 81
1, 225474, Note_on_c, 0, 83, 85
1, 225492, Note_off_c, 0, 62, 62
1, 225516, Note_off_c, 0, 56, 63
1, 225518, Note_off_c, 0, 52, 64
1, 225606, Note_off_c, 0, 71, 53
1, 225613, Note_off_c, 0, 83, 56
1, 225621, Note_off_c, 0, 74, 58
1, 225665, Control_c, 0, 64, 88
1, 225680, Control_c, 0, 64, 54
1, 225695, Control_c, 0, 64, 0
1, 225710, Note_on_c, 0, 45, 83
1, 225713, Note_on_c, 0, 83, 90
1, 225715, Note_on_c, 0, 71, 86
1, 225715, Note_on_c, 0, 74, 86
1, 225716, Note_on_c, 0, 33, 77
1, 225739, Control_c, 0, 64, 62
1, 225745, Note_off_c, 0, 33, 66
1, 225755, Control_c, 0, 64, 90
1, 225764, Note_off_c, 0, 45, 64
1, 225769, Control_c, 0, 64, 127
1, 225784, Note_off_c, 0, 74, 64
1, 225794, Note_off_c, 0, 83, 62
1, 225805, Note_off_c, 0, 71, 59
1, 225955, Note_on_c, 0, 60, 60
1, 225959, Note_on_c, 0, 57, 54
1, 225966, Note_on_c, 0, 72, 79
1, 225975, Note_on_c, 0, 69, 76
1, 226038, Note_off_c, 0, 69, 60
1, 226074, Note_off_c, 0, 72, 63
1, 226136, Note_on_c, 0, 71, 79
1, 226136, Note_on_c, 0, 74, 83
1, 226138, Note_on_c, 0, 59, 67
1, 226138, Note_on_c, 0, 62, 75
1, 226140, Note_off_c, 0, 60, 57
1, 226178, Note_off_c, 0, 57, 36
1, 226205, Note_off_c, 0, 71, 55
1, 226243, Note_off_c, 0, 74, 62
1, 226304, Note_off_c, 0, 62, 60
1, 226312, Note_on_c, 0, 60, 67
1, 226314, Note_on_c, 0, 76, 91
1, 226315, Note_on_c, 0, 64, 74
1, 226317, Note_on_c, 0, 72, 85
1, 226330, Note_off_c, 0, 59, 53
1, 226345, Note_off_c, 0, 72, 63
1, 226374, Note_off_c, 0, 76, 67
1, 226413, Note_off_c, 0, 64, 61
1, 226494, Note_off_c, 0, 60, 56
1, 226551, Note_on_c, 0, 59, 56
1, 226554, Control_c, 0, 64, 75
1, 226556, Note_on_c, 0, 62, 78
1, 226560, Note_on_c, 0, 80, 94
1, 226562, Note_on_c, 0, 68, 90
1, 226571, Control_c, 0, 64, 0
1, 226630, Control_c, 0, 64, 53
1, 226644, Control_c, 0, 64, 80
1, 226659, Control_c, 0, 64, 127
1, 226732, Note_off_c, 0, 68, 62
1, 226762, Note_off_c, 0, 80, 61
1, 226768, Note_off_c, 0, 62, 56
1, 226866, Note_off_c, 0, 59, 60
1, 226888, Note_on_c, 0, 81, 93
1, 226891, Note_on_c, 0, 69, 93
1, 226892, Note_on_c, 0, 60, 81
1, 226901, Note_on_c, 0, 57, 69
1, 226911, Control_c, 0, 64, 75
1, 226926, Control_c, 0, 64, 16
1, 226941, Control_c, 0, 64, 0
1, 226985, Control_c, 0, 64, 64
1, 227000, Control_c, 0, 64, 97
1, 227011, Note_off_c, 0, 60, 64
1, 227015, Control_c, 0, 64, 127
1, 227017, Note_off_c, 0, 57, 65
1, 227022, Note_off_c, 0, 81, 59
1, 227034, Note_off_c, 0, 69, 64
1, 227452, Control_c, 0, 64, 121
1, 227466, Control_c, 0, 64, 108
1, 227481, Control_c, 0, 64, 103
1, 227496, Control_c, 0, 64, 100
1, 227511, Control_c, 0, 64, 92
1, 227526, Control_c, 0, 64, 84
1, 227540, Control_c, 0, 64, 78
1, 227555, Control_c, 0, 64, 73
1, 227570, Control_c, 0, 64, 69
1, 227585, Control_c, 0, 64, 63
1, 227600, Control_c, 0, 64, 59
1, 227615, Control_c, 0, 64, 57
1, 227630, Control_c, 0, 64, 56
1, 227644, Control_c, 0, 64, 51
1, 227659, Control_c, 0, 64, 40
1, 227674, Control_c, 0, 64, 0
1, 227849, Note_on_c, 0, 41, 99
1, 227853, Note_on_c, 0, 29, 87
1, 228000, Control_c, 0, 64, 36
1, 228015, Control_c, 0, 64, 51
1, 228038, Control_c, 0, 64, 56
1, 228053, Control_c, 0, 64, 61
1, 228067, Control_c, 0, 64, 69
1, 228082, Control_c, 0, 64, 91
1, 228097, Control_c, 0, 64, 127
1, 228199, Note_off_c, 0, 41, 58
1, 228233, Note_off_c, 0, 29, 37
1, 228473, Poly_aftertouch_c, 0, 29, 127
1, 228485, Poly_aftertouch_c, 0, 41, 127
1, 228507, Poly_aftertouch_c, 0, 29, 0
1, 228533, Poly_aftertouch_c, 0, 41, 0
1, 228567, Note_on_c, 0, 56, 44
1, 228581, Note_on_c, 0, 44, 37
1, 228678, Note_off_c, 0, 44, 38
1, 228714, Note_on_c, 0, 41, 41
1, 228729, Note_on_c, 0, 29, 20
1, 228767, Note_off_c, 0, 41, 52
1, 228785, Note_off_c, 0, 29, 48
1, 228912, Note_on_c, 0, 29, 39
1, 228913, Note_on_c, 0, 41, 40
1, 228916, Note_on_c, 0, 57, 54
1, 228938, Note_on_c, 0, 45, 37
1, 228957, Note_off_c, 0, 56, 33
1, 228969, Note_off_c, 0, 41, 49
1, 228974, Note_off_c, 0, 29, 50
1, 229010, Note_off_c, 0, 45, 40
1, 229100, Note_on_c, 0, 29, 36
1, 229104, Note_on_c, 0, 41, 43
1, 229144, Note_off_c, 0, 41, 53
1, 229156, Note_off_c, 0, 29, 50
1, 229159, Note_off_c, 0, 57, 61
1, 229191, Note_on_c, 0, 59, 60
1, 229208, Note_on_c, 0, 56, 53
1, 229235, Note_off_c, 0, 56, 61
1, 229281, Note_on_c, 0, 41, 41
1, 229286, Note_on_c, 0, 29, 44
1, 229318, Note_off_c, 0, 41, 56
1, 229326, Note_off_c, 0, 29, 55
1, 229447, Note_off_c, 0, 59, 56
1, 229448, Note_on_c, 0, 41, 39
1, 229450, Note_on_c, 0, 60, 63
1, 229452, Note_on_c, 0, 29, 38
1, 229452, Note_on_c, 0, 57, 52
1, 229466, Note_on_c, 0, 48, 47
1, 229499, Note_off_c, 0, 29, 52
1, 229507, Note_off_c, 0, 41, 47
1, 229512, Note_off_c, 0, 48, 57
1, 229512, Note_off_c, 0, 57, 60
1, 229628, Note_on_c, 0, 29, 43
1, 229636, Note_on_c, 0, 41, 41
1, 229660, Note_off_c, 0, 29, 55
1, 229684, Note_off_c, 0, 41, 47
1, 229708, Note_on_c, 0, 61, 65
1, 229719, Note_off_c, 0, 60, 58
1, 229745, Note_on_c, 0, 58, 32
1, 229758, Note_on_c, 0, 49, 12
1, 229788, Note_on_c, 0, 29, 38
1, 229801, Note_off_c, 0, 49, 47
1, 229809, Note_on_c, 0, 41, 38
1, 229835, Note_off_c, 0, 29, 55
1, 229847, Note_off_c, 0, 41, 50
1, 229899, Note_off_c, 0, 58, 25
1, 229952, Note_on_c, 0, 41, 45
1, 229955, Note_on_c, 0, 29, 46
1, 229972, Note_off_c, 0, 61, 38
1, 229974, Note_on_c, 0, 62, 60
1, 229988, Note_on_c, 0, 50, 46
1, 230000, Note_off_c, 0, 41, 55
1, 230001, Note_off_c, 0, 29, 56
1, 230004, Note_on_c, 0, 59, 40
1, 230019, Note_off_c, 0, 50, 56
1, 230045, Note_off_c, 0, 59, 48
1, 230123, Note_on_c, 0, 29, 41
1, 230126, Note_on_c, 0, 41, 36
1, 230162, Note_off_c, 0, 41, 50
1, 230167, Note_off_c, 0, 29, 52
1, 230205, Note_off_c, 0, 62, 62
1, 230221, Note_on_c, 0, 63, 61
1, 230223, Note_on_c, 0, 57, 44
1, 230262, Note_off_c, 0, 57, 62
1, 230294, Poly_aftertouch_c, 0, 51, 127
1, 230303, Note_on_c, 0, 29, 41
1, 230315, Note_on_c, 0, 41, 39
1, 230357, Note_off_c, 0, 41, 54
1, 230362, Note_off_c, 0, 29, 53
1, 230374, Poly_aftertouch_c, 0, 51, 0
1, 230460, Control_c, 0, 64, 107
1, 230475, Control_c, 0, 64, 69
1, 230490, Control_c, 0, 64, 0
1, 230497, Note_off_c, 0, 63, 37
1, 230503, Note_on_c, 0, 64, 59
1, 230508, Note_on_c, 0, 40, 40
1, 230510, Note_on_c, 0, 28, 40
1, 230515, Note_on_c, 0, 56, 51
1, 230528, Note_on_c, 0, 52, 41
1, 230534, Control_c, 0, 64, 23
1, 230550, Control_c, 0, 64, 63
1, 230563, Note_off_c, 0, 28, 50
1, 230564, Note_off_c, 0, 40, 58
1, 230565, Control_c, 0, 64, 87
1, 230576, Note_off_c, 0, 52, 47
1, 230580, Control_c, 0, 64, 127
1, 230591, Note_off_c, 0, 56, 61
1, 230684, Note_on_c, 0, 28, 44
1, 230700, Note_on_c, 0, 40, 30
1, 230720, Note_off_c, 0, 28, 56
1, 230721, Note_off_c, 0, 64, 62
1, 230736, Note_off_c, 0, 40, 52
1, 230758, Note_on_c, 0, 66, 63
1, 230777, Note_on_c, 0, 54, 40
1, 230780, Note_on_c, 0, 63, 53
1, 230833, Note_on_c, 0, 28, 51
1, 230834, Note_off_c, 0, 63, 53
1, 230836, Note_on_c, 0, 40, 55
1, 230844, Note_off_c, 0, 54, 42
1, 230870, Note_off_c, 0, 40, 63
1, 230876, Note_off_c, 0, 28, 58
1, 230987, Note_off_c, 0, 66, 38
1, 231001, Note_on_c, 0, 28, 51
1, 231002, Note_on_c, 0, 67, 72
1, 231004, Note_on_c, 0, 55, 59
1, 231011, Note_on_c, 0, 40, 45
1, 231014, Note_on_c, 0, 64, 46
1, 231048, Note_off_c, 0, 28, 62
1, 231048, Note_off_c, 0, 64, 60
1, 231048, Note_off_c, 0, 55, 61
1, 231052, Note_off_c, 0, 40, 57
1, 231163, Note_on_c, 0, 40, 50
1, 231165, Note_on_c, 0, 28, 46
1, 231196, Note_off_c, 0, 40, 64
1, 231196, Note_off_c, 0, 28, 55
1, 231239, Note_on_c, 0, 68, 73
1, 231246, Note_on_c, 0, 65, 63
1, 231251, Note_off_c, 0, 67, 56
1, 231265, Note_on_c, 0, 56, 48
1, 231291, Note_off_c, 0, 65, 55
1, 231302, Note_off_c, 0, 56, 49
1, 231318, Note_on_c, 0, 28, 59
1, 231332, Note_on_c, 0, 40, 38
1, 231345, Note_off_c, 0, 28, 58
1, 231366, Note_off_c, 0, 40, 51
1, 231457, Note_off_c, 0, 68, 61
1, 231493, Control_c, 0, 64, 121
1, 231501, Note_on_c, 0, 40, 49
1, 231507, Control_c, 0, 64, 78
1, 231514, Note_on_c, 0, 69, 72
1, 231516, Note_on_c, 0, 52, 54
1, 231519, Note_on_c, 0, 66, 63
1, 231522, Control_c, 0, 64, 46
1, 231530, Note_on_c, 0, 57, 59
1, 231537, Control_c, 0, 64, 0
1, 231551, Control_c, 0, 64, 29
1, 231566, Control_c, 0, 64, 62
1, 231581, Control_c, 0, 64, 86
1, 231583, Note_off_c, 0, 40, 62
1, 231587, Note_off_c, 0, 52, 64
1, 231596, Control_c, 0, 64, 127
1, 231613, Note_off_c, 0, 57, 58
1, 231655, Note_off_c, 0, 69, 63
1, 231698, Note_on_c, 0, 40, 62
1, 231704, Note_on_c, 0, 52, 60
1, 231730, Note_off_c, 0, 40, 63
1, 231730, Note_off_c, 0, 52, 61
1, 231796, Note_on_c, 0, 72, 79
1, 231803, Note_on_c, 0, 60, 65
1, 231803, Note_on_c, 0, 63, 66
1, 231905, Note_on_c, 0, 40, 52
1, 231908, Note_on_c, 0, 52, 49
1, 231957, Note_off_c, 0, 40, 57
1, 231957, Note_off_c, 0, 52, 63
1, 231973, Note_off_c, 0, 60, 59
1, 231999, Note_off_c, 0, 72, 62
1, 232003, Note_off_c, 0, 63, 60
1, 232116, Note_on_c, 0, 52, 48
1, 232118, Note_on_c, 0, 40, 41
1, 232146, Note_off_c, 0, 52, 63
1, 232149, Note_off_c, 0, 40, 55
1, 232310, Note_on_c, 0, 52, 40
1, 232314, Note_on_c, 0, 40, 37
1, 232348, Note_off_c, 0, 52, 62
1, 232354, Note_off_c, 0, 40, 56
1, 232372, Note_off_c, 0, 66, 30
1, 232419, Note_on_c, 0, 68, 61
1, 232422, Note_on_c, 0, 64, 54
1, 232422, Note_on_c, 0, 71, 67
1, 232423, Note_on_c, 0, 59, 57
1, 232478, Control_c, 0, 64, 105
1, 232493, Control_c, 0, 64, 74
1, 232508, Control_c, 0, 64, 53
1, 232530, Control_c, 0, 64, 26
1, 232545, Control_c, 0, 64, 48
1, 232560, Control_c, 0, 64, 64
1, 232575, Control_c, 0, 64, 88
1, 232575, Note_on_c, 0, 40, 48
1, 232579, Note_on_c, 0, 52, 54
1, 232589, Control_c, 0, 64, 127
1, 232634, Note_off_c, 0, 40, 59
1, 232636, Note_off_c, 0, 52, 62
1, 232679, Note_off_c, 0, 59, 56
1, 232679, Note_off_c, 0, 71, 59
1, 232697, Note_off_c, 0, 64, 62
1, 232706, Note_off_c, 0, 68, 63
1, 233033, Note_on_c, 0, 53, 82
1, 233037, Note_on_c, 0, 41, 79
1, 233093, Control_c, 0, 64, 94
1, 233108, Control_c, 0, 64, 68
1, 233123, Control_c, 0, 64, 15
1, 233138, Control_c, 0, 64, 0
1, 233226, Control_c, 0, 64, 61
1, 233241, Control_c, 0, 64, 76
1, 233256, Control_c, 0, 64, 101
1, 233278, Control_c, 0, 64, 127
1, 233359, Note_off_c, 0, 53, 56
1, 233386, Note_off_c, 0, 41, 52
1, 233498, Note_on_c, 0, 41, 36
1, 233502, Note_on_c, 0, 53, 46
1, 233536, Note_off_c, 0, 41, 54
1, 233550, Note_off_c, 0, 53, 58
1, 233614, Note_on_c, 0, 68, 58
1, 233627, Note_on_c, 0, 56, 42
1, 233662, Note_off_c, 0, 56, 49
1, 233722, Note_on_c, 0, 53, 28
1, 233731, Note_on_c, 0, 41, 27
1, 233773, Note_off_c, 0, 53, 46
1, 233780, Note_off_c, 0, 41, 48
1, 233899, Note_on_c, 0, 69, 60
1, 233901, Note_on_c, 0, 41, 36
1, 233923, Note_on_c, 0, 53, 25
1, 233951, Note_off_c, 0, 53, 54
1, 233953, Note_off_c, 0, 41, 46
1, 233967, Note_off_c, 0, 68, 30
1, 233978, Poly_aftertouch_c, 0, 57, 127
1, 234024, Poly_aftertouch_c, 0, 57, 0
1, 234083, Note_on_c, 0, 53, 32
1, 234089, Note_on_c, 0, 41, 42
1, 234137, Note_off_c, 0, 41, 47
1, 234138, Note_off_c, 0, 53, 45
1, 234176, Note_off_c, 0, 69, 64
1, 234191, Note_on_c, 0, 71, 64
1, 234202, Note_on_c, 0, 68, 51
1, 234250, Note_off_c, 0, 68, 62
1, 234253, Note_on_c, 0, 41, 42
1, 234271, Note_on_c, 0, 53, 35
1, 234302, Note_off_c, 0, 53, 51
1, 234316, Note_off_c, 0, 41, 51
1, 234423, Note_on_c, 0, 41, 39
1, 234425, Note_on_c, 0, 53, 38
1, 234441, Note_on_c, 0, 72, 61
1, 234450, Note_off_c, 0, 71, 54
1, 234463, Note_on_c, 0, 60, 44
1, 234465, Note_on_c, 0, 69, 49
1, 234472, Note_off_c, 0, 41, 53
1, 234475, Note_off_c, 0, 53, 47
1, 234499, Note_off_c, 0, 69, 57
1, 234504, Note_off_c, 0, 60, 46
1, 234592, Note_on_c, 0, 41, 46
1, 234607, Note_on_c, 0, 53, 40
1, 234639, Note_off_c, 0, 41, 54
1, 234644, Note_off_c, 0, 53, 49
1, 234688, Note_on_c, 0, 73, 66
1, 234699, Note_on_c, 0, 61, 47
1, 234713, Note_off_c, 0, 72, 56
1, 234778, Note_on_c, 0, 41, 44
1, 234781, Note_on_c, 0, 53, 38
1, 234831, Note_off_c, 0, 41, 55
1, 234832, Note_off_c, 0, 53, 55
1, 234860, Note_off_c, 0, 61, 35
1, 234873, Note_off_c, 0, 73, 59
1, 234948, Note_on_c, 0, 74, 66
1, 234951, Note_on_c, 0, 41, 46
1, 234954, Note_on_c, 0, 62, 57
1, 234957, Note_on_c, 0, 71, 48
1, 234961, Note_on_c, 0, 53, 39
1, 234990, Note_off_c, 0, 53, 54
1, 234994, Note_off_c, 0, 41, 54
1, 234998, Note_off_c, 0, 62, 58
1, 235016, Note_off_c, 0, 71, 51
1, 235098, Note_on_c, 0, 53, 44
1, 235101, Note_on_c, 0, 41, 53
1, 235138, Note_off_c, 0, 41, 59
1, 235138, Note_off_c, 0, 53, 63
1, 235198, Note_on_c, 0, 75, 71
1, 235201, Note_off_c, 0, 74, 61
1, 235204, Note_on_c, 0, 69, 51
1, 235212, Note_on_c, 0, 63, 48
1, 235228, Note_off_c, 0, 69, 64
1, 235261, Note_off_c, 0, 63, 57
1, 235279, Note_on_c, 0, 41, 48
1, 235289, Note_on_c, 0, 53, 29
1, 235320, Note_off_c, 0, 41, 58
1, 235323, Note_off_c, 0, 53, 52
1, 235332, Note_off_c, 0, 75, 49
1, 235445, Control_c, 0, 64, 112
1, 235460, Control_c, 0, 64, 77
1, 235472, Note_on_c, 0, 76, 62
1, 235474, Control_c, 0, 64, 47
1, 235475, Note_on_c, 0, 36, 43
1, 235482, Note_on_c, 0, 48, 47
1, 235488, Note_on_c, 0, 67, 54
1, 235489, Control_c, 0, 64, 0
1, 235502, Note_on_c, 0, 64, 47
1, 235526, Control_c, 0, 64, 46
1, 235541, Control_c, 0, 64, 74
1, 235549, Note_off_c, 0, 48, 59
1, 235555, Note_off_c, 0, 67, 60
1, 235556, Control_c, 0, 64, 127
1, 235557, Note_off_c, 0, 36, 52
1, 235561, Note_off_c, 0, 64, 59
1, 235669, Note_on_c, 0, 48, 61
1, 235677, Note_on_c, 0, 36, 50
1, 235682, Note_off_c, 0, 76, 62
1, 235704, Note_off_c, 0, 48, 62
1, 235717, Note_off_c, 0, 36, 59
1, 235747, Note_on_c, 0, 78, 72
1, 235760, Note_on_c, 0, 66, 55
1, 235764, Note_on_c, 0, 75, 55
1, 235791, Note_off_c, 0, 75, 58
1, 235799, Note_off_c, 0, 66, 56
1, 235840, Note_on_c, 0, 48, 60
1, 235842, Note_on_c, 0, 36, 54
1, 235871, Note_off_c, 0, 48, 66
1, 235881, Note_off_c, 0, 36, 59
1, 235890, Note_off_c, 0, 78, 37
1, 235991, Note_on_c, 0, 79, 72
1, 235996, Note_on_c, 0, 67, 67
1, 235998, Note_on_c, 0, 76, 64
1, 236018, Note_on_c, 0, 48, 51
1, 236025, Note_off_c, 0, 67, 66
1, 236026, Note_on_c, 0, 36, 39
1, 236027, Note_off_c, 0, 76, 70
1, 236040, Note_off_c, 0, 48, 63
1, 236057, Note_off_c, 0, 36, 49
1, 236060, Note_off_c, 0, 79, 61
1, 236162, Note_on_c, 0, 48, 49
1, 236167, Note_on_c, 0, 36, 48
1, 236205, Note_off_c, 0, 48, 62
1, 236209, Note_off_c, 0, 36, 60
1, 236253, Note_on_c, 0, 78, 70
1, 236255, Note_on_c, 0, 81, 78
1, 236268, Note_on_c, 0, 69, 66
1, 236293, Note_off_c, 0, 78, 57
1, 236299, Note_off_c, 0, 69, 67
1, 236332, Note_on_c, 0, 48, 47
1, 236333, Note_on_c, 0, 36, 53
1, 236356, Note_off_c, 0, 48, 56
1, 236373, Note_off_c, 0, 36, 59
1, 236483, Control_c, 0, 64, 100
1, 236495, Note_off_c, 0, 81, 57
1, 236497, Control_c, 0, 64, 69
1, 236502, Note_on_c, 0, 36, 55
1, 236507, Note_on_c, 0, 24, 58
1, 236508, Note_on_c, 0, 82, 76
1, 236512, Control_c, 0, 64, 0
1, 236515, Note_on_c, 0, 79, 66
1, 236516, Note_on_c, 0, 70, 70
1, 236542, Control_c, 0, 64, 37
1, 236556, Control_c, 0, 64, 65
1, 236568, Note_off_c, 0, 79, 62
1, 236571, Control_c, 0, 64, 101
1, 236586, Control_c, 0, 64, 127
1, 236592, Note_off_c, 0, 36, 59
1, 236597, Note_off_c, 0, 24, 62
1, 236599, Note_off_c, 0, 70, 64
1, 236633, Note_off_c, 0, 82, 55
1, 236697, Note_on_c, 0, 24, 56
1, 236703, Note_on_c, 0, 36, 49
1, 236748, Note_off_c, 0, 36, 58
1, 236763, Note_off_c, 0, 24, 54
1, 236793, Note_on_c, 0, 83, 83
1, 236796, Note_on_c, 0, 80, 80
1, 236796, Note_on_c, 0, 77, 72
1, 236799, Note_on_c, 0, 71, 76
1, 236890, Note_on_c, 0, 24, 58
1, 236911, Note_on_c, 0, 36, 49
1, 236955, Note_off_c, 0, 36, 59
1, 236982, Note_off_c, 0, 24, 53
1, 237001, Note_off_c, 0, 71, 56
1, 237028, Note_off_c, 0, 83, 57
1, 237048, Note_off_c, 0, 77, 59
1, 237076, Note_off_c, 0, 80, 60
1, 237099, Note_on_c, 0, 24, 57
1, 237100, Note_on_c, 0, 36, 52
1, 237156, Note_off_c, 0, 36, 57
1, 237158, Note_off_c, 0, 24, 58
1, 237291, Note_on_c, 0, 24, 55
1, 237295, Note_on_c, 0, 36, 52
1, 237336, Note_off_c, 0, 36, 58
1, 237346, Note_off_c, 0, 24, 56
1, 237400, Note_on_c, 0, 84, 84
1, 237401, Note_on_c, 0, 76, 72
1, 237401, Note_on_c, 0, 79, 77
1, 237402, Note_on_c, 0, 72, 75
1, 237554, Note_off_c, 0, 72, 57
1, 237568, Note_off_c, 0, 84, 61
1, 237571, Note_off_c, 0, 76, 63
1, 237573, Note_off_c, 0, 79, 60
1, 237574, Note_on_c, 0, 24, 62
1, 237582, Note_on_c, 0, 36, 57
1, 237608, Note_off_c, 0, 24, 64
1, 237621, Note_off_c, 0, 36, 60
1, 238119, Note_on_c, 0, 41, 71
1, 238120, Note_on_c, 0, 29, 68
1, 238218, Control_c, 0, 64, 100
1, 238233, Control_c, 0, 64, 78
1, 238248, Control_c, 0, 64, 61
1, 238262, Control_c, 0, 64, 0
1, 238366, Control_c, 0, 64, 26
1, 238381, Control_c, 0, 64, 70
1, 238395, Control_c, 0, 64, 91
1, 238410, Control_c, 0, 64, 127
1, 238522, Note_off_c, 0, 41, 56
1, 238528, Note_off_c, 0, 29, 37
1, 238679, Note_on_c, 0, 29, 33
1, 238683, Note_on_c, 0, 41, 35
1, 238728, Note_off_c, 0, 29, 47
1, 238729, Note_off_c, 0, 41, 46
1, 238796, Note_on_c, 0, 56, 49
1, 238807, Note_on_c, 0, 44, 39
1, 238845, Note_off_c, 0, 44, 47
1, 238916, Note_on_c, 0, 29, 25
1, 238926, Note_on_c, 0, 41, 25
1, 238968, Note_off_c, 0, 29, 46
1, 238987, Note_off_c, 0, 41, 45
1, 239107, Note_on_c, 0, 57, 57
1, 239121, Note_on_c, 0, 29, 35
1, 239137, Note_on_c, 0, 41, 31
1, 239137, Note_off_c, 0, 56, 27
1, 239175, Note_off_c, 0, 29, 49
1, 239188, Note_off_c, 0, 41, 45
1, 239320, Note_on_c, 0, 29, 34
1, 239329, Note_on_c, 0, 41, 25
1, 239365, Note_off_c, 0, 29, 50
1, 239369, Note_off_c, 0, 41, 48
1, 239384, Note_off_c, 0, 57, 61
1, 239419, Note_on_c, 0, 59, 51
1, 239443, Note_on_c, 0, 56, 38
1, 239500, Note_off_c, 0, 56, 45
1, 239502, Note_on_c, 0, 41, 38
1, 239504, Note_on_c, 0, 29, 42
1, 239558, Note_off_c, 0, 41, 54
1, 239561, Note_off_c, 0, 29, 51
1, 239658, Note_off_c, 0, 59, 57
1, 239676, Note_on_c, 0, 60, 55
1, 239677, Note_on_c, 0, 29, 40
1, 239682, Note_on_c, 0, 57, 47
1, 239695, Note_on_c, 0, 41, 38
1, 239699, Note_on_c, 0, 48, 41
1, 239726, Note_off_c, 0, 29, 53
1, 239731, Note_off_c, 0, 41, 51
1, 239735, Note_off_c, 0, 57, 57
1, 239737, Note_off_c, 0, 48, 59
1, 239839, Note_on_c, 0, 41, 46
1, 239855, Note_on_c, 0, 29, 44
1, 239890, Note_off_c, 0, 29, 54
1, 239890, Note_off_c, 0, 41, 54
1, 239929, Note_off_c, 0, 60, 59
1, 239935, Note_on_c, 0, 61, 57
1, 239961, Note_on_c, 0, 49, 25
1, 239967, Note_on_c, 0, 58, 42
1, 240024, Note_on_c, 0, 29, 43
1, 240035, Note_on_c, 0, 41, 42
1, 240042, Note_off_c, 0, 49, 39
1, 240071, Note_off_c, 0, 29, 55
1, 240073, Note_off_c, 0, 41, 50
1, 240086, Note_off_c, 0, 58, 46
1, 240167, Note_on_c, 0, 62, 58
1, 240183, Note_on_c, 0, 50, 52
1, 240183, Note_off_c, 0, 61, 34
1, 240191, Note_on_c, 0, 59, 51
1, 240193, Note_on_c, 0, 41, 39
1, 240194, Note_on_c, 0, 29, 42
1, 240229, Note_off_c, 0, 50, 49
1, 240232, Note_off_c, 0, 41, 53
1, 240233, Note_off_c, 0, 59, 57
1, 240246, Note_off_c, 0, 29, 47
1, 240342, Note_on_c, 0, 41, 48
1, 240346, Note_on_c, 0, 29, 49
1, 240379, Note_off_c, 0, 41, 58
1, 240385, Note_off_c, 0, 29, 57
1, 240409, Note_off_c, 0, 62, 57
1, 240422, Note_on_c, 0, 63, 58
1, 240430, Note_on_c, 0, 57, 44
1, 240448, Note_on_c, 0, 51, 31
1, 240466, Note_off_c, 0, 57, 55
1, 240499, Note_on_c, 0, 29, 43
1, 240505, Note_on_c, 0, 41, 40
1, 240536, Note_off_c, 0, 51, 37
1, 240545, Note_off_c, 0, 41, 54
1, 240548, Note_off_c, 0, 29, 56
1, 240627, Control_c, 0, 64, 96
1, 240635, Note_off_c, 0, 63, 33
1, 240642, Control_c, 0, 64, 67
1, 240656, Control_c, 0, 64, 0
1, 240668, Note_on_c, 0, 64, 56
1, 240676, Note_on_c, 0, 28, 46
1, 240679, Note_on_c, 0, 56, 51
1, 240681, Note_on_c, 0, 52, 46
1, 240683, Note_on_c, 0, 40, 38
1, 240701, Control_c, 0, 64, 35
1, 240716, Control_c, 0, 64, 66
1, 240729, Note_off_c, 0, 40, 49
1, 240731, Control_c, 0, 64, 92
1, 240740, Note_off_c, 0, 28, 55
1, 240740, Note_off_c, 0, 52, 52
1, 240746, Control_c, 0, 64, 127
1, 240766, Note_off_c, 0, 56, 61
1, 240842, Note_on_c, 0, 28, 41
1, 240849, Note_on_c, 0, 40, 49
1, 240852, Note_off_c, 0, 64, 61
1, 240874, Note_off_c, 0, 28, 57
1, 240881, Note_off_c, 0, 40, 58
1, 240918, Note_on_c, 0, 66, 65
1, 240925, Note_on_c, 0, 54, 52
1, 240936, Note_on_c, 0, 63, 54
1, 240987, Note_off_c, 0, 54, 52
1, 240990, Note_off_c, 0, 63, 51
1, 241011, Note_on_c, 0, 40, 52
1, 241016, Note_on_c, 0, 28, 50
1, 241051, Note_off_c, 0, 40, 61
1, 241059, Note_off_c, 0, 28, 59
1, 241084, Note_off_c, 0, 66, 57
1, 241162, Note_on_c, 0, 67, 68
1, 241166, Note_on_c, 0, 55, 57
1, 241175, Note_on_c, 0, 64, 50
1, 241181, Note_on_c, 0, 28, 50
1, 241186, Note_on_c, 0, 40, 49
1, 241196, Note_off_c, 0, 55, 62
1, 241199, Note_off_c, 0, 64, 62
1, 241218, Note_off_c, 0, 40, 63
1, 241219, Note_off_c, 0, 28, 61
1, 241327, Note_on_c, 0, 40, 51
1, 241337, Note_on_c, 0, 28, 42
1, 241367, Note_off_c, 0, 40, 59
1, 241372, Note_off_c, 0, 28, 49
1, 241410, Note_on_c, 0, 68, 68
1, 241413, Note_on_c, 0, 65, 61
1, 241414, Note_off_c, 0, 67, 38
1, 241430, Note_on_c, 0, 56, 52
1, 241470, Note_off_c, 0, 56, 56
1, 241476, Note_on_c, 0, 28, 59
1, 241480, Note_off_c, 0, 65, 59
1, 241482, Note_on_c, 0, 40, 54
1, 241516, Note_off_c, 0, 28, 52
1, 241518, Note_off_c, 0, 40, 64
1, 241609, Note_off_c, 0, 68, 58
1, 241619, Control_c, 0, 64, 114
1, 241634, Control_c, 0, 64, 71
1, 241649, Control_c, 0, 64, 0
1, 241655, Note_on_c, 0, 69, 73
1, 241659, Note_on_c, 0, 66, 70
1, 241663, Note_on_c, 0, 57, 65
1, 241670, Note_on_c, 0, 40, 51
1, 241671, Note_on_c, 0, 52, 58
1, 241693, Control_c, 0, 64, 38
1, 241708, Control_c, 0, 64, 69
1, 241716, Note_off_c, 0, 40, 58
1, 241723, Control_c, 0, 64, 127
1, 241724, Note_off_c, 0, 52, 57
1, 241750, Note_off_c, 0, 57, 52
1, 241773, Note_off_c, 0, 69, 62
1, 241831, Note_on_c, 0, 40, 62
1, 241834, Note_on_c, 0, 52, 71
1, 241896, Note_off_c, 0, 52, 60
1, 241898, Note_off_c, 0, 40, 61
1, 241935, Note_on_c, 0, 72, 76
1, 241938, Note_on_c, 0, 63, 65
1, 241942, Note_on_c, 0, 60, 63
1, 242048, Note_on_c, 0, 40, 51
1, 242049, Note_on_c, 0, 52, 57
1, 242097, Note_off_c, 0, 40, 57
1, 242101, Note_off_c, 0, 52, 58
1, 242130, Note_off_c, 0, 60, 52
1, 242146, Note_off_c, 0, 72, 60
1, 242162, Note_off_c, 0, 63, 56
1, 242251, Note_on_c, 0, 52, 49
1, 242273, Note_on_c, 0, 40, 42
1, 242302, Note_off_c, 0, 52, 60
1, 242305, Note_off_c, 0, 40, 52
1, 242468, Note_on_c, 0, 40, 38
1, 242471, Note_on_c, 0, 52, 42
1, 242504, Note_off_c, 0, 52, 61
1, 242505, Note_off_c, 0, 40, 55
1, 242510, Note_off_c, 0, 66, 31
1, 242549, Note_on_c, 0, 68, 56
1, 242559, Note_on_c, 0, 71, 62
1, 242560, Note_on_c, 0, 64, 55
1, 242564, Note_on_c, 0, 59, 53
1, 242695, Note_on_c, 0, 40, 56
1, 242696, Note_on_c, 0, 52, 65
1, 242697, Note_off_c, 0, 59, 54
1, 242703, Note_off_c, 0, 71, 57
1, 242725, Note_off_c, 0, 40, 61
1, 242728, Note_off_c, 0, 64, 60
1, 242731, Note_off_c, 0, 52, 61
1, 242738, Note_off_c, 0, 68, 59
1, 243080, Note_on_c, 0, 53, 83
1, 243085, Note_on_c, 0, 41, 80
1, 243147, Control_c, 0, 64, 102
1, 243162, Control_c, 0, 64, 75
1, 243177, Control_c, 0, 64, 53
1, 243191, Control_c, 0, 64, 0
1, 243280, Control_c, 0, 64, 16
1, 243295, Control_c, 0, 64, 64
1, 243309, Control_c, 0, 64, 82
1, 243324, Control_c, 0, 64, 127
1, 243403, Note_off_c, 0, 41, 57
1, 243407, Note_off_c, 0, 53, 57
1, 243539, Note_on_c, 0, 41, 46
1, 243543, Note_on_c, 0, 53, 44
1, 243580, Note_off_c, 0, 41, 55
1, 243585, Note_off_c, 0, 53, 51
1, 243652, Note_on_c, 0, 68, 57
1, 243661, Note_on_c, 0, 56, 46
1, 243712, Note_off_c, 0, 56, 48
1, 243789, Note_on_c, 0, 53, 32
1, 243790, Note_on_c, 0, 41, 36
1, 243816, Note_off_c, 0, 53, 57
1, 243840, Note_off_c, 0, 41, 48
1, 243941, Note_on_c, 0, 69, 67
1, 243956, Note_on_c, 0, 41, 42
1, 243965, Note_off_c, 0, 68, 36
1, 243980, Note_on_c, 0, 53, 31
1, 244019, Note_off_c, 0, 41, 49
1, 244020, Poly_aftertouch_c, 0, 57, 127
1, 244025, Note_off_c, 0, 53, 49
1, 244057, Poly_aftertouch_c, 0, 57, 0
1, 244151, Note_on_c, 0, 53, 47
1, 244152, Note_on_c, 0, 41, 51
1, 244198, Note_off_c, 0, 41, 55
1, 244199, Note_off_c, 0, 53, 58
1, 244203, Note_off_c, 0, 69, 65
1, 244218, Note_on_c, 0, 71, 62
1, 244231, Note_on_c, 0, 68, 53
1, 244233, Note_on_c, 0, 59, 27
1, 244274, Note_off_c, 0, 59, 48
1, 244307, Note_off_c, 0, 68, 59
1, 244333, Note_on_c, 0, 53, 50
1, 244334, Note_on_c, 0, 41, 48
1, 244379, Note_off_c, 0, 41, 56
1, 244380, Note_off_c, 0, 53, 57
1, 244457, Note_on_c, 0, 72, 64
1, 244464, Note_on_c, 0, 69, 58
1, 244471, Note_on_c, 0, 60, 52
1, 244475, Note_off_c, 0, 71, 52
1, 244505, Note_on_c, 0, 53, 46
1, 244506, Note_on_c, 0, 41, 42
1, 244528, Note_off_c, 0, 60, 57
1, 244535, Note_off_c, 0, 69, 63
1, 244542, Note_off_c, 0, 41, 55
1, 244546, Note_off_c, 0, 53, 49
1, 244639, Note_on_c, 0, 41, 55
1, 244641, Note_on_c, 0, 53, 57
1, 244682, Note_off_c, 0, 41, 56
1, 244695, Note_off_c, 0, 53, 60
1, 244708, Note_on_c, 0, 73, 69
1, 244719, Note_on_c, 0, 70, 62
1, 244724, Note_off_c, 0, 72, 55
1, 244726, Note_on_c, 0, 61, 52
1, 244796, Note_off_c, 0, 61, 57
1, 244808, Note_off_c, 0, 70, 55
1, 244814, Note_on_c, 0, 41, 51
1, 244818, Note_on_c, 0, 53, 50
1, 244848, Note_off_c, 0, 53, 67
1, 244849, Note_off_c, 0, 41, 62
1, 244937, Note_off_c, 0, 73, 61
1, 244953, Note_on_c, 0, 74, 68
1, 244958, Note_on_c, 0, 62, 61
1, 244965, Note_on_c, 0, 71, 53
1, 244979, Note_on_c, 0, 41, 47
1, 244990, Note_on_c, 0, 53, 43
1, 245007, Note_off_c, 0, 71, 58
1, 245017, Note_off_c, 0, 41, 58
1, 245018, Note_off_c, 0, 53, 58
1, 245037, Note_off_c, 0, 62, 49
1, 245114, Note_on_c, 0, 41, 57
1, 245119, Note_on_c, 0, 53, 50
1, 245154, Note_off_c, 0, 53, 63
1, 245167, Note_off_c, 0, 41, 51
1, 245191, Note_on_c, 0, 75, 73
1, 245193, Note_on_c, 0, 69, 61
1, 245199, Note_on_c, 0, 63, 62
1, 245205, Note_off_c, 0, 74, 58
1, 245224, Note_off_c, 0, 69, 68
1, 245244, Note_off_c, 0, 63, 54
1, 245275, Note_off_c, 0, 75, 62
1, 245282, Note_on_c, 0, 41, 60
1, 245291, Note_on_c, 0, 53, 48
1, 245317, Note_off_c, 0, 53, 58
1, 245336, Note_off_c, 0, 41, 61
1, 245393, Control_c, 0, 64, 107
1, 245408, Control_c, 0, 64, 72
1, 245423, Control_c, 0, 64, 27
1, 245438, Control_c, 0, 64, 0
1, 245440, Note_on_c, 0, 76, 75
1, 245446, Note_on_c, 0, 64, 69
1, 245447, Note_on_c, 0, 67, 66
1, 245453, Control_c, 0, 64, 21
1, 245456, Note_on_c, 0, 48, 52
1, 245457, Note_on_c, 0, 36, 51
1, 245467, Control_c, 0, 64, 62
1, 245482, Control_c, 0, 64, 93
1, 245495, Note_off_c, 0, 67, 62
1, 245497, Control_c, 0, 64, 127
1, 245502, Note_off_c, 0, 64, 62
1, 245505, Note_off_c, 0, 36, 58
1, 245505, Note_off_c, 0, 48, 63
1, 245544, Note_off_c, 0, 76, 65
1, 245611, Note_on_c, 0, 48, 63
1, 245613, Note_on_c, 0, 36, 52
1, 245655, Note_off_c, 0, 36, 57
1, 245655, Note_off_c, 0, 48, 54
1, 245688, Note_on_c, 0, 78, 74
1, 245699, Note_on_c, 0, 75, 68
1, 245700, Note_on_c, 0, 66, 78
1, 245758, Note_off_c, 0, 66, 59
1, 245767, Note_off_c, 0, 75, 61
1, 245783, Note_on_c, 0, 48, 67
1, 245794, Note_on_c, 0, 36, 58
1, 245826, Note_off_c, 0, 78, 53
1, 245831, Note_off_c, 0, 48, 57
1, 245837, Note_off_c, 0, 36, 57
1, 245931, Note_on_c, 0, 79, 84
1, 245935, Note_on_c, 0, 67, 78
1, 245940, Note_on_c, 0, 76, 72
1, 245954, Note_on_c, 0, 48, 59
1, 245957, Note_on_c, 0, 36, 52
1, 245978, Note_off_c, 0, 76, 64
1, 245980, Note_off_c, 0, 67, 60
1, 245987, Note_off_c, 0, 48, 65
1, 245995, Note_off_c, 0, 36, 62
1, 246020, Note_off_c, 0, 79, 59
1, 246117, Note_on_c, 0, 36, 54
1, 246118, Note_on_c, 0, 48, 59
1, 246159, Note_off_c, 0, 48, 62
1, 246166, Note_off_c, 0, 36, 52
1, 246183, Note_on_c, 0, 81, 85
1, 246186, Note_on_c, 0, 78, 76
1, 246189, Note_on_c, 0, 69, 78
1, 246233, Note_off_c, 0, 69, 66
1, 246239, Note_off_c, 0, 78, 61
1, 246280, Note_on_c, 0, 36, 66
1, 246289, Note_on_c, 0, 48, 43
1, 246314, Note_off_c, 0, 48, 57
1, 246323, Note_off_c, 0, 36, 61
1, 246409, Note_off_c, 0, 81, 56
1, 246424, Control_c, 0, 64, 111
1, 246439, Control_c, 0, 64, 71
1, 246443, Note_on_c, 0, 82, 86
1, 246451, Note_on_c, 0, 70, 82
1, 246451, Note_on_c, 0, 24, 65
1, 246452, Note_on_c, 0, 79, 71
1, 246453, Note_on_c, 0, 36, 57
1, 246453, Control_c, 0, 64, 0
1, 246483, Control_c, 0, 64, 37
1, 246498, Control_c, 0, 64, 70
1, 246513, Control_c, 0, 64, 127
1, 246518, Note_off_c, 0, 79, 63
1, 246523, Note_off_c, 0, 36, 59
1, 246526, Note_off_c, 0, 24, 62
1, 246543, Note_off_c, 0, 70, 63
1, 246570, Note_off_c, 0, 82, 54
1, 246636, Note_on_c, 0, 36, 64
1, 246639, Note_on_c, 0, 24, 67
1, 246695, Note_off_c, 0, 36, 57
1, 246702, Note_off_c, 0, 24, 60
1, 246743, Note_on_c, 0, 83, 87
1, 246745, Note_on_c, 0, 80, 84
1, 246755, Note_on_c, 0, 71, 84
1, 246755, Note_on_c, 0, 77, 83
1, 246835, Note_on_c, 0, 24, 57
1, 246844, Note_on_c, 0, 36, 52
1, 246879, Note_off_c, 0, 36, 57
1, 246910, Note_off_c, 0, 71, 54
1, 246913, Note_off_c, 0, 24, 54
1, 246958, Note_off_c, 0, 83, 55
1, 246973, Note_off_c, 0, 77, 56
1, 247000, Note_off_c, 0, 80, 60
1, 247044, Note_on_c, 0, 24, 60
1, 247044, Note_on_c, 0, 36, 57
1, 247116, Note_off_c, 0, 36, 57
1, 247123, Note_off_c, 0, 24, 59
1, 247239, Note_on_c, 0, 36, 63
1, 247250, Note_on_c, 0, 24, 62
1, 247297, Note_off_c, 0, 36, 58
1, 247298, Note_off_c, 0, 24, 61
1, 247344, Note_on_c, 0, 76, 75
1, 247345, Note_on_c, 0, 79, 78
1, 247345, Note_on_c, 0, 84, 88
1, 247350, Note_on_c, 0, 72, 78
1, 247506, Note_off_c, 0, 72, 57
1, 247541, Note_off_c, 0, 76, 61
1, 247546, Note_off_c, 0, 84, 61
1, 247561, Note_off_c, 0, 79, 60
1, 247576, Note_on_c, 0, 24, 68
1, 247578, Note_on_c, 0, 36, 69
1, 247640, Note_off_c, 0, 24, 63
1, 247675, Note_off_c, 0, 36, 59
1, 248271, Control_c, 0, 64, 98
1, 248285, Control_c, 0, 64, 83
1, 248290, Note_on_c, 0, 87, 54
1, 248300, Control_c, 0, 64, 68
1, 248301, Note_on_c, 0, 75, 44
1, 248315, Control_c, 0, 64, 0
1, 248478, Control_c, 0, 64, 61
1, 248493, Control_c, 0, 64, 75
1, 248508, Control_c, 0, 64, 88
1, 248522, Control_c, 0, 64, 108
1, 248526, Note_off_c, 0, 75, 58
1, 248531, Note_off_c, 0, 87, 61
1, 248537, Control_c, 0, 64, 127
1, 248624, Note_on_c, 0, 87, 57
1, 248633, Note_on_c, 0, 75, 47
1, 248679, Note_off_c, 0, 75, 45
1, 248700, Note_off_c, 0, 87, 53
1, 248717, Note_on_c, 0, 62, 50
1, 248730, Note_on_c, 0, 74, 40
1, 248776, Note_off_c, 0, 74, 58
1, 248804, Note_off_c, 0, 62, 58
1, 248848, Note_on_c, 0, 87, 51
1, 248860, Note_on_c, 0, 75, 49
1, 248901, Note_off_c, 0, 75, 49
1, 248910, Note_off_c, 0, 87, 52
1, 249005, Note_on_c, 0, 72, 44
1, 249012, Note_on_c, 0, 60, 39
1, 249032, Note_on_c, 0, 75, 49
1, 249041, Note_on_c, 0, 87, 52
1, 249044, Note_off_c, 0, 72, 53
1, 249050, Note_off_c, 0, 60, 47
1, 249075, Note_off_c, 0, 75, 51
1, 249084, Note_off_c, 0, 87, 54
1, 249196, Note_on_c, 0, 87, 53
1, 249200, Note_on_c, 0, 75, 50
1, 249249, Note_off_c, 0, 75, 48
1, 249257, Note_off_c, 0, 87, 53
1, 249270, Note_on_c, 0, 58, 44
1, 249295, Note_on_c, 0, 70, 37
1, 249330, Note_off_c, 0, 70, 53
1, 249355, Note_on_c, 0, 87, 50
1, 249377, Note_off_c, 0, 58, 37
1, 249380, Note_on_c, 0, 75, 45
1, 249410, Note_off_c, 0, 75, 55
1, 249412, Note_off_c, 0, 87, 54
1, 249483, Note_on_c, 0, 60, 52
1, 249489, Note_on_c, 0, 69, 56
1, 249494, Note_on_c, 0, 57, 46
1, 249513, Note_on_c, 0, 75, 49
1, 249520, Note_on_c, 0, 87, 52
1, 249520, Note_off_c, 0, 69, 55
1, 249537, Note_off_c, 0, 60, 54
1, 249539, Note_off_c, 0, 57, 55
1, 249547, Note_off_c, 0, 75, 53
1, 249556, Note_off_c, 0, 87, 47
1, 249648, Note_on_c, 0, 87, 56
1, 249659, Note_on_c, 0, 75, 49
1, 249694, Note_off_c, 0, 75, 52
1, 249702, Note_off_c, 0, 87, 52
1, 249715, Note_on_c, 0, 67, 56
1, 249718, Note_on_c, 0, 55, 50
1, 249762, Note_on_c, 0, 58, 34
1, 249762, Note_off_c, 0, 55, 61
1, 249765, Note_off_c, 0, 67, 58
1, 249799, Note_off_c, 0, 58, 49
1, 249819, Note_on_c, 0, 75, 50
1, 249824, Note_on_c, 0, 87, 55
1, 249861, Note_off_c, 0, 75, 51
1, 249867, Note_off_c, 0, 87, 57
1, 249940, Note_on_c, 0, 54, 50
1, 249943, Note_on_c, 0, 66, 53
1, 249960, Note_on_c, 0, 57, 44
1, 249970, Note_on_c, 0, 87, 60
1, 249976, Note_on_c, 0, 75, 53
1, 249979, Note_off_c, 0, 66, 59
1, 249993, Note_off_c, 0, 54, 57
1, 250010, Note_off_c, 0, 75, 53
1, 250010, Note_off_c, 0, 87, 57
1, 250016, Note_off_c, 0, 57, 49
1, 250114, Note_on_c, 0, 87, 53
1, 250121, Note_on_c, 0, 75, 47
1, 250154, Note_off_c, 0, 75, 53
1, 250159, Note_off_c, 0, 87, 53
1, 250176, Note_on_c, 0, 67, 55
1, 250181, Note_on_c, 0, 58, 44
1, 250191, Note_on_c, 0, 55, 38
1, 250236, Note_off_c, 0, 67, 59
1, 250253, Note_off_c, 0, 58, 58
1, 250277, Note_on_c, 0, 87, 53
1, 250277, Note_off_c, 0, 55, 37
1, 250287, Note_on_c, 0, 75, 41
1, 250390, Control_c, 0, 64, 112
1, 250395, Note_off_c, 0, 75, 62
1, 250403, Note_off_c, 0, 87, 64
1, 250405, Control_c, 0, 64, 75
1, 250419, Control_c, 0, 64, 49
1, 250430, Note_on_c, 0, 66, 50
1, 250433, Note_on_c, 0, 57, 46
1, 250434, Control_c, 0, 64, 0
1, 250436, Note_on_c, 0, 54, 40
1, 250453, Note_on_c, 0, 86, 65
1, 250460, Note_on_c, 0, 74, 51
1, 250479, Control_c, 0, 64, 52
1, 250501, Control_c, 0, 64, 72
1, 250516, Note_off_c, 0, 66, 63
1, 250516, Control_c, 0, 64, 97
1, 250532, Control_c, 0, 64, 127
1, 250536, Note_off_c, 0, 74, 56
1, 250547, Note_off_c, 0, 57, 60
1, 250550, Note_off_c, 0, 86, 56
1, 250559, Note_off_c, 0, 54, 45
1, 250668, Note_on_c, 0, 74, 47
1, 250669, Note_on_c, 0, 86, 48
1, 250716, Note_off_c, 0, 74, 58
1, 250720, Note_off_c, 0, 86, 40
1, 250758, Note_on_c, 0, 55, 49
1, 250761, Note_on_c, 0, 63, 43
1, 250770, Note_on_c, 0, 51, 39
1, 250839, Note_off_c, 0, 63, 58
1, 250842, Note_off_c, 0, 55, 58
1, 250856, Note_on_c, 0, 86, 52
1, 250858, Note_on_c, 0, 74, 51
1, 250879, Note_off_c, 0, 51, 46
1, 250907, Note_off_c, 0, 74, 57
1, 250922, Note_off_c, 0, 86, 56
1, 250994, Note_on_c, 0, 62, 53
1, 250997, Note_on_c, 0, 54, 49
1, 251001, Note_on_c, 0, 50, 32
1, 251032, Note_on_c, 0, 74, 45
1, 251032, Note_on_c, 0, 86, 50
1, 251048, Note_off_c, 0, 62, 58
1, 251059, Note_off_c, 0, 74, 57
1, 251061, Note_off_c, 0, 50, 42
1, 251067, Note_off_c, 0, 86, 46
1, 251110, Note_off_c, 0, 54, 61
1, 251167, Note_on_c, 0, 74, 46
1, 251174, Note_on_c, 0, 86, 56
1, 251216, Note_off_c, 0, 74, 57
1, 251223, Note_off_c, 0, 86, 54
1, 251230, Note_on_c, 0, 46, 57
1, 251231, Note_on_c, 0, 58, 52
1, 251299, Note_off_c, 0, 58, 61
1, 251308, Note_off_c, 0, 46, 61
1, 251332, Note_on_c, 0, 86, 59
1, 251344, Note_on_c, 0, 74, 45
1, 251372, Note_off_c, 0, 74, 59
1, 251377, Note_off_c, 0, 86, 55
1, 251455, Note_on_c, 0, 57, 54
1, 251460, Note_on_c, 0, 45, 52
1, 251472, Note_on_c, 0, 74, 53
1, 251478, Note_on_c, 0, 86, 58
1, 251484, Note_off_c, 0, 57, 62
1, 251498, Note_off_c, 0, 45, 63
1, 251507, Note_off_c, 0, 74, 63
1, 251521, Note_off_c, 0, 86, 58
1, 251623, Note_on_c, 0, 74, 42
1, 251629, Note_on_c, 0, 86, 53
1, 251659, Note_off_c, 0, 74, 54
1, 251662, Note_on_c, 0, 42, 50
1, 251664, Note_off_c, 0, 86, 46
1, 251668, Note_on_c, 0, 54, 42
1, 251694, Note_off_c, 0, 54, 57
1, 251706, Note_off_c, 0, 42, 55
1, 251778, Note_on_c, 0, 74, 45
1, 251778, Note_on_c, 0, 86, 51
1, 251823, Note_off_c, 0, 74, 60
1, 251823, Note_off_c, 0, 86, 51
1, 251896, Note_on_c, 0, 38, 51
1, 251896, Note_on_c, 0, 50, 50
1, 251933, Note_off_c, 0, 50, 62
1, 251933, Note_on_c, 0, 86, 61
1, 251937, Note_on_c, 0, 74, 49
1, 251939, Note_off_c, 0, 38, 60
1, 251983, Note_off_c, 0, 74, 62
1, 252003, Note_off_c, 0, 86, 60
1, 252118, Note_on_c, 0, 74, 44
1, 252121, Note_on_c, 0, 86, 60
1, 252156, Note_off_c, 0, 74, 63
1, 252171, Note_on_c, 0, 49, 46
1, 252172, Note_on_c, 0, 37, 45
1, 252220, Note_off_c, 0, 37, 56
1, 252244, Note_off_c, 0, 49, 54
1, 252319, Note_on_c, 0, 85, 61
1, 252320, Note_off_c, 0, 86, 58
1, 252329, Note_on_c, 0, 73, 50
1, 252399, Note_off_c, 0, 73, 60
1, 252417, Note_off_c, 0, 85, 62
1, 252660, Note_on_c, 0, 85, 79
1, 252669, Note_on_c, 0, 73, 65
1, 252711, Control_c, 0, 64, 95
1, 252726, Control_c, 0, 64, 75
1, 252748, Control_c, 0, 64, 56
1, 252763, Control_c, 0, 64, 0
1, 252836, Control_c, 0, 64, 35
1, 252851, Control_c, 0, 64, 69
1, 252866, Control_c, 0, 64, 101
1, 252881, Control_c, 0, 64, 127
1, 252949, Note_off_c, 0, 73, 55
1, 252968, Note_off_c, 0, 85, 60
1, 253089, Note_on_c, 0, 73, 50
1, 253098, Note_on_c, 0, 85, 53
1, 253173, Note_off_c, 0, 73, 57
1, 253182, Note_off_c, 0, 85, 57
1, 253190, Note_on_c, 0, 72, 42
1, 253194, Note_on_c, 0, 60, 42
1, 253259, Note_off_c, 0, 60, 45
1, 253290, Note_off_c, 0, 72, 36
1, 253347, Note_on_c, 0, 73, 50
1, 253352, Note_on_c, 0, 85, 45
1, 253414, Note_off_c, 0, 73, 52
1, 253417, Note_off_c, 0, 85, 52
1, 253509, Note_on_c, 0, 61, 27
1, 253516, Note_on_c, 0, 58, 27
1, 253519, Note_on_c, 0, 70, 42
1, 253547, Note_on_c, 0, 73, 50
1, 253550, Note_on_c, 0, 85, 47
1, 253563, Note_off_c, 0, 70, 48
1, 253601, Note_off_c, 0, 73, 54
1, 253602, Note_off_c, 0, 85, 57
1, 253608, Note_off_c, 0, 61, 41
1, 253715, Note_on_c, 0, 73, 50
1, 253715, Note_on_c, 0, 85, 49
1, 253741, Note_on_c, 0, 68, 50
1, 253746, Note_on_c, 0, 56, 43
1, 253751, Note_on_c, 0, 60, 50
1, 253757, Note_off_c, 0, 73, 47
1, 253758, Note_off_c, 0, 85, 57
1, 253794, Note_off_c, 0, 56, 52
1, 253794, Note_off_c, 0, 60, 60
1, 253797, Note_off_c, 0, 68, 57
1, 253813, Note_off_c, 0, 58, 36
1, 253860, Note_on_c, 0, 73, 54
1, 253862, Note_on_c, 0, 85, 53
1, 253915, Note_off_c, 0, 85, 53
1, 253918, Note_off_c, 0, 73, 58
1, 253977, Note_on_c, 0, 58, 44
1, 253984, Note_on_c, 0, 67, 41
1, 253984, Note_on_c, 0, 55, 39
1, 254011, Note_on_c, 0, 85, 48
1, 254015, Note_on_c, 0, 73, 47
1, 254017, Note_off_c, 0, 67, 49
1, 254025, Note_off_c, 0, 55, 45
1, 254028, Note_off_c, 0, 58, 58
1, 254053, Note_off_c, 0, 73, 49
1, 254058, Note_off_c, 0, 85, 57
1, 254148, Note_on_c, 0, 73, 56
1, 254157, Note_on_c, 0, 85, 54
1, 254186, Note_on_c, 0, 65, 53
1, 254193, Note_on_c, 0, 53, 41
1, 254198, Note_off_c, 0, 85, 55
1, 254203, Note_off_c, 0, 73, 57
1, 254211, Note_off_c, 0, 65, 58
1, 254213, Note_on_c, 0, 56, 28
1, 254228, Note_off_c, 0, 53, 50
1, 254259, Note_off_c, 0, 56, 46
1, 254315, Note_on_c, 0, 85, 53
1, 254321, Note_on_c, 0, 73, 46
1, 254358, Note_off_c, 0, 73, 49
1, 254359, Note_off_c, 0, 85, 56
1, 254404, Note_on_c, 0, 52, 45
1, 254408, Note_on_c, 0, 64, 44
1, 254411, Note_on_c, 0, 55, 45
1, 254456, Note_on_c, 0, 73, 54
1, 254460, Note_off_c, 0, 52, 59
1, 254463, Note_on_c, 0, 85, 52
1, 254505, Note_off_c, 0, 85, 57
1, 254505, Note_off_c, 0, 73, 55
1, 254511, Note_off_c, 0, 64, 36
1, 254523, Note_off_c, 0, 55, 50
1, 254610, Note_on_c, 0, 73, 55
1, 254614, Note_on_c, 0, 85, 53
1, 254625, Note_on_c, 0, 53, 48
1, 254627, Note_on_c, 0, 65, 54
1, 254628, Note_on_c, 0, 56, 51
1, 254654, Note_off_c, 0, 73, 51
1, 254654, Note_off_c, 0, 85, 58
1, 254677, Note_off_c, 0, 65, 53
1, 254715, Note_off_c, 0, 56, 56
1, 254724, Note_off_c, 0, 53, 56
1, 254758, Note_on_c, 0, 85, 58
1, 254761, Note_on_c, 0, 73, 53
1, 254842, Note_off_c, 0, 73, 63
1, 254856, Note_off_c, 0, 85, 62
1, 254868, Control_c, 0, 64, 91
1, 254872, Note_on_c, 0, 52, 53
1, 254877, Note_on_c, 0, 55, 47
1, 254880, Note_on_c, 0, 64, 58
1, 254883, Control_c, 0, 64, 64
1, 254897, Control_c, 0, 64, 0
1, 254918, Note_on_c, 0, 84, 55
1, 254926, Note_on_c, 0, 72, 50
1, 254942, Control_c, 0, 64, 43
1, 254956, Note_off_c, 0, 64, 63
1, 254957, Control_c, 0, 64, 70
1, 254971, Control_c, 0, 64, 122
1, 254974, Note_off_c, 0, 52, 63
1, 254994, Control_c, 0, 64, 127
1, 254995, Note_off_c, 0, 55, 60
1, 255007, Note_off_c, 0, 72, 45
1, 255015, Note_off_c, 0, 84, 49
1, 255122, Note_on_c, 0, 72, 50
1, 255125, Note_on_c, 0, 84, 50
1, 255158, Note_on_c, 0, 61, 52
1, 255163, Note_off_c, 0, 72, 45
1, 255170, Note_off_c, 0, 84, 48
1, 255185, Note_on_c, 0, 53, 51
1, 255185, Note_on_c, 0, 49, 40
1, 255229, Note_off_c, 0, 53, 58
1, 255235, Note_off_c, 0, 61, 59
1, 255253, Note_off_c, 0, 49, 44
1, 255283, Note_on_c, 0, 72, 56
1, 255286, Note_on_c, 0, 84, 57
1, 255334, Note_off_c, 0, 72, 57
1, 255336, Note_off_c, 0, 84, 51
1, 255385, Note_on_c, 0, 60, 57
1, 255389, Note_on_c, 0, 48, 52
1, 255398, Note_on_c, 0, 52, 53
1, 255440, Note_off_c, 0, 48, 61
1, 255445, Note_off_c, 0, 60, 60
1, 255449, Note_on_c, 0, 84, 51
1, 255460, Note_on_c, 0, 72, 45
1, 255480, Note_off_c, 0, 52, 64
1, 255483, Note_off_c, 0, 84, 49
1, 255489, Note_off_c, 0, 72, 54
1, 255590, Note_on_c, 0, 72, 52
1, 255592, Note_on_c, 0, 84, 55
1, 255617, Note_on_c, 0, 56, 62
1, 255626, Note_on_c, 0, 44, 50
1, 255632, Note_off_c, 0, 72, 48
1, 255636, Note_off_c, 0, 84, 59
1, 255662, Note_off_c, 0, 56, 51
1, 255665, Note_off_c, 0, 44, 58
1, 255751, Note_on_c, 0, 84, 47
1, 255755, Note_on_c, 0, 72, 41
1, 255779, Note_off_c, 0, 84, 53
1, 255783, Note_off_c, 0, 72, 53
1, 255845, Note_on_c, 0, 55, 54
1, 255848, Note_on_c, 0, 43, 54
1, 255874, Note_off_c, 0, 55, 60
1, 255883, Note_on_c, 0, 84, 52
1, 255886, Note_on_c, 0, 72, 50
1, 255890, Note_off_c, 0, 43, 58
1, 255917, Note_off_c, 0, 72, 53
1, 255919, Note_off_c, 0, 84, 53
1, 256023, Note_on_c, 0, 72, 47
1, 256026, Note_on_c, 0, 84, 51
1, 256068, Note_off_c, 0, 84, 46
1, 256076, Note_off_c, 0, 72, 46
1, 256084, Note_on_c, 0, 52, 54
1, 256092, Note_on_c, 0, 40, 47
1, 256118, Note_off_c, 0, 52, 51
1, 256136, Note_off_c, 0, 40, 60
1, 256187, Note_on_c, 0, 84, 40
1, 256188, Note_on_c, 0, 72, 27
1, 256218, Note_off_c, 0, 84, 51
1, 256226, Note_off_c, 0, 72, 51
1, 256318, Note_on_c, 0, 84, 49
1, 256324, Note_on_c, 0, 48, 48
1, 256326, Note_on_c, 0, 36, 45
1, 256329, Note_on_c, 0, 72, 51
1, 256355, Note_off_c, 0, 48, 62
1, 256365, Note_off_c, 0, 72, 52
1, 256373, Note_off_c, 0, 36, 56
1, 256373, Note_off_c, 0, 84, 57
1, 256503, Note_on_c, 0, 72, 41
1, 256503, Note_on_c, 0, 84, 56
1, 256543, Note_off_c, 0, 72, 47
1, 256572, Note_on_c, 0, 47, 57
1, 256581, Note_on_c, 0, 35, 46
1, 256616, Note_off_c, 0, 35, 62
1, 256628, Note_off_c, 0, 47, 58
1, 256671, Note_off_c, 0, 84, 52
1, 256698, Note_on_c, 0, 83, 57
1, 256702, Note_on_c, 0, 71, 47
1, 256773, Note_off_c, 0, 83, 59
1, 256798, Note_off_c, 0, 71, 34
1, 256996, Note_on_c, 0, 83, 58
1, 256996, Control_c, 0, 64, 86
1, 257003, Note_on_c, 0, 71, 51
1, 257012, Control_c, 0, 64, 62
1, 257027, Control_c, 0, 64, 0
1, 257050, Note_off_c, 0, 71, 0
1, 257050, Note_on_c, 0, 71, 10
1, 257085, Control_c, 0, 64, 55
1, 257100, Control_c, 0, 64, 75
1, 257115, Control_c, 0, 64, 124
1, 257130, Control_c, 0, 64, 127
1, 257140, Note_off_c, 0, 83, 59
1, 257155, Note_off_c, 0, 71, 40
1, 257245, Note_on_c, 0, 83, 54
1, 257269, Note_on_c, 0, 71, 39
1, 257306, Note_off_c, 0, 71, 47
1, 257319, Note_off_c, 0, 83, 51
1, 257326, Note_on_c, 0, 57, 45
1, 257328, Note_on_c, 0, 69, 43
1, 257340, Note_on_c, 0, 60, 48
1, 257383, Note_off_c, 0, 69, 46
1, 257421, Note_off_c, 0, 60, 52
1, 257430, Note_off_c, 0, 57, 50
1, 257450, Note_on_c, 0, 83, 52
1, 257453, Note_on_c, 0, 71, 45
1, 257497, Note_off_c, 0, 71, 49
1, 257503, Note_off_c, 0, 83, 53
1, 257576, Note_on_c, 0, 55, 45
1, 257585, Note_on_c, 0, 67, 50
1, 257586, Note_on_c, 0, 59, 49
1, 257609, Note_on_c, 0, 71, 49
1, 257614, Note_off_c, 0, 67, 60
1, 257617, Note_on_c, 0, 83, 49
1, 257619, Note_off_c, 0, 55, 57
1, 257632, Note_off_c, 0, 59, 61
1, 257648, Note_off_c, 0, 71, 46
1, 257650, Note_off_c, 0, 83, 49
1, 257747, Note_on_c, 0, 83, 54
1, 257758, Note_on_c, 0, 71, 47
1, 257795, Note_off_c, 0, 71, 47
1, 257796, Note_off_c, 0, 83, 54
1, 257804, Note_on_c, 0, 57, 57
1, 257808, Note_on_c, 0, 66, 54
1, 257811, Note_on_c, 0, 54, 46
1, 257868, Note_off_c, 0, 66, 62
1, 257881, Note_off_c, 0, 54, 52
1, 257898, Note_on_c, 0, 71, 54
1, 257908, Note_on_c, 0, 83, 54
1, 257933, Note_off_c, 0, 57, 55
1, 257951, Note_off_c, 0, 71, 49
1, 257952, Note_off_c, 0, 83, 58
1, 258028, Note_on_c, 0, 52, 55
1, 258029, Note_on_c, 0, 64, 52
1, 258031, Note_on_c, 0, 55, 39
1, 258050, Note_on_c, 0, 83, 60
1, 258057, Note_off_c, 0, 64, 61
1, 258063, Note_on_c, 0, 71, 43
1, 258066, Note_off_c, 0, 52, 62
1, 258077, Note_off_c, 0, 55, 46
1, 258086, Note_off_c, 0, 83, 59
1, 258090, Note_off_c, 0, 71, 53
1, 258181, Note_on_c, 0, 83, 54
1, 258186, Note_on_c, 0, 71, 49
1, 258228, Note_on_c, 0, 63, 58
1, 258232, Note_off_c, 0, 83, 52
1, 258234, Note_off_c, 0, 71, 54
1, 258244, Note_on_c, 0, 51, 42
1, 258246, Note_on_c, 0, 54, 43
1, 258273, Note_off_c, 0, 63, 58
1, 258287, Note_off_c, 0, 54, 60
1, 258299, Note_off_c, 0, 51, 52
1, 258339, Note_on_c, 0, 71, 60
1, 258339, Note_on_c, 0, 83, 67
1, 258383, Note_off_c, 0, 71, 59
1, 258419, Control_c, 0, 64, 97
1, 258434, Control_c, 0, 64, 71
1, 258449, Control_c, 0, 64, 37
1, 258458, Note_on_c, 0, 52, 49
1, 258458, Note_on_c, 0, 55, 49
1, 258461, Note_on_c, 0, 64, 52
1, 258464, Control_c, 0, 64, 0
1, 258485, Note_on_c, 0, 70, 58
1, 258490, Note_off_c, 0, 83, 59
1, 258493, Note_on_c, 0, 82, 59
1, 258509, Control_c, 0, 64, 59
1, 258524, Control_c, 0, 64, 79
1, 258537, Note_off_c, 0, 64, 61
1, 258538, Control_c, 0, 64, 127
1, 258552, Note_off_c, 0, 70, 62
1, 258564, Note_off_c, 0, 82, 61
1, 258576, Note_off_c, 0, 52, 56
1, 258597, Note_off_c, 0, 55, 50
1, 258649, Note_on_c, 0, 82, 59
1, 258655, Note_on_c, 0, 70, 57
1, 258701, Note_on_c, 0, 50, 50
1, 258708, Note_on_c, 0, 53, 51
1, 258713, Note_on_c, 0, 62, 46
1, 258718, Note_off_c, 0, 70, 55
1, 258721, Note_off_c, 0, 82, 56
1, 258746, Note_off_c, 0, 62, 55
1, 258746, Note_off_c, 0, 50, 55
1, 258750, Note_off_c, 0, 53, 66
1, 258840, Note_on_c, 0, 82, 65
1, 258844, Note_on_c, 0, 70, 61
1, 258907, Note_off_c, 0, 82, 62
1, 258911, Note_off_c, 0, 70, 64
1, 258960, Control_c, 0, 64, 82
1, 258968, Note_on_c, 0, 61, 57
1, 258971, Note_on_c, 0, 52, 48
1, 258974, Note_on_c, 0, 49, 51
1, 258975, Control_c, 0, 64, 59
1, 258990, Control_c, 0, 64, 0
1, 259004, Note_on_c, 0, 69, 61
1, 259008, Note_on_c, 0, 81, 56
1, 259024, Note_off_c, 0, 52, 64
1, 259034, Control_c, 0, 64, 47
1, 259041, Note_off_c, 0, 49, 59
1, 259049, Control_c, 0, 64, 71
1, 259059, Note_off_c, 0, 61, 59
1, 259063, Control_c, 0, 64, 105
1, 259078, Control_c, 0, 64, 127
1, 259080, Note_off_c, 0, 81, 58
1, 259081, Note_off_c, 0, 69, 61
1, 259196, Note_on_c, 0, 69, 58
1, 259202, Note_on_c, 0, 81, 54
1, 259237, Note_off_c, 0, 69, 51
1, 259245, Note_off_c, 0, 81, 43
1, 259263, Note_on_c, 0, 67, 58
1, 259269, Note_on_c, 0, 58, 49
1, 259274, Note_on_c, 0, 55, 49
1, 259304, Note_off_c, 0, 67, 61
1, 259349, Note_off_c, 0, 58, 53
1, 259352, Note_off_c, 0, 55, 47
1, 259359, Note_on_c, 0, 69, 56
1, 259363, Note_on_c, 0, 81, 56
1, 259414, Note_off_c, 0, 81, 54
1, 259417, Note_off_c, 0, 69, 58
1, 259491, Note_on_c, 0, 53, 49
1, 259501, Note_on_c, 0, 65, 46
1, 259504, Note_on_c, 0, 57, 49
1, 259526, Note_on_c, 0, 81, 55
1, 259528, Note_off_c, 0, 65, 56
1, 259531, Note_on_c, 0, 69, 54
1, 259541, Note_off_c, 0, 57, 62
1, 259546, Note_off_c, 0, 53, 58
1, 259563, Note_off_c, 0, 69, 56
1, 259576, Note_off_c, 0, 81, 53
1, 259655, Note_on_c, 0, 81, 53
1, 259664, Note_on_c, 0, 69, 60
1, 259706, Note_on_c, 0, 55, 57
1, 259706, Note_on_c, 0, 64, 53
1, 259708, Note_off_c, 0, 69, 59
1, 259711, Note_on_c, 0, 52, 55
1, 259721, Note_off_c, 0, 81, 53
1, 259736, Note_off_c, 0, 64, 52
1, 259752, Note_off_c, 0, 55, 60
1, 259753, Note_off_c, 0, 52, 63
1, 259808, Note_on_c, 0, 81, 54
1, 259824, Note_on_c, 0, 69, 54
1, 259860, Note_off_c, 0, 69, 52
1, 259881, Note_off_c, 0, 81, 56
1, 259886, Control_c, 0, 64, 89
1, 259901, Control_c, 0, 64, 66
1, 259916, Control_c, 0, 64, 51
1, 259928, Note_on_c, 0, 62, 57
1, 259931, Control_c, 0, 64, 61
1, 259941, Note_on_c, 0, 50, 49
1, 259941, Note_on_c, 0, 53, 39
1, 259946, Control_c, 0, 64, 74
1, 259951, Note_on_c, 0, 81, 55
1, 259960, Note_on_c, 0, 69, 62
1, 259960, Control_c, 0, 64, 127
1, 259966, Note_off_c, 0, 62, 60
1, 259984, Note_off_c, 0, 50, 58
1, 259990, Note_off_c, 0, 53, 64
1, 260000, Note_off_c, 0, 69, 61
1, 260017, Note_off_c, 0, 81, 60
1, 260104, Note_on_c, 0, 81, 53
1, 260117, Note_on_c, 0, 69, 43
1, 260141, Note_off_c, 0, 69, 60
1, 260142, Note_off_c, 0, 81, 55
1, 260150, Note_on_c, 0, 49, 58
1, 260150, Note_on_c, 0, 61, 59
1, 260164, Note_on_c, 0, 52, 44
1, 260186, Note_off_c, 0, 61, 59
1, 260195, Note_off_c, 0, 49, 58
1, 260246, Note_on_c, 0, 69, 52
1, 260253, Note_off_c, 0, 52, 40
1, 260256, Note_on_c, 0, 81, 62
1, 260300, Note_off_c, 0, 69, 64
1, 260339, Control_c, 0, 64, 103
1, 260354, Control_c, 0, 64, 75
1, 260369, Control_c, 0, 64, 58
1, 260372, Note_on_c, 0, 50, 47
1, 260377, Note_on_c, 0, 62, 56
1, 260384, Control_c, 0, 64, 43
1, 260390, Note_on_c, 0, 53, 35
1, 260398, Note_off_c, 0, 81, 58
1, 260399, Control_c, 0, 64, 50
1, 260411, Note_on_c, 0, 80, 64
1, 260414, Control_c, 0, 64, 63
1, 260416, Note_on_c, 0, 68, 55
1, 260428, Control_c, 0, 64, 75
1, 260443, Control_c, 0, 64, 106
1, 260444, Note_off_c, 0, 62, 59
1, 260458, Control_c, 0, 64, 127
1, 260475, Note_off_c, 0, 53, 56
1, 260478, Note_off_c, 0, 68, 58
1, 260483, Note_off_c, 0, 80, 61
1, 260548, Note_off_c, 0, 50, 36
1, 260580, Note_on_c, 0, 80, 60
1, 260589, Note_on_c, 0, 68, 55
1, 260614, Note_on_c, 0, 60, 56
1, 260615, Note_on_c, 0, 48, 51
1, 260623, Note_on_c, 0, 52, 48
1, 260637, Note_off_c, 0, 68, 60
1, 260647, Note_off_c, 0, 80, 57
1, 260649, Note_off_c, 0, 60, 64
1, 260658, Note_off_c, 0, 52, 66
1, 260664, Note_off_c, 0, 48, 60
1, 260747, Note_on_c, 0, 80, 62
1, 260747, Note_on_c, 0, 68, 53
1, 260858, Note_off_c, 0, 80, 63
1, 260858, Control_c, 0, 64, 85
1, 260860, Note_off_c, 0, 68, 63
1, 260870, Note_on_c, 0, 47, 50
1, 260873, Note_on_c, 0, 50, 42
1, 260873, Control_c, 0, 64, 66
1, 260885, Note_on_c, 0, 59, 49
1, 260888, Control_c, 0, 64, 37
1, 260904, Control_c, 0, 64, 0
1, 260919, Control_c, 0, 64, 23
1, 260923, Note_on_c, 0, 79, 59
1, 260928, Note_on_c, 0, 67, 52
1, 260933, Control_c, 0, 64, 53
1, 260948, Control_c, 0, 64, 67
1, 260963, Control_c, 0, 64, 85
1, 260982, Note_off_c, 0, 59, 59
1, 260986, Control_c, 0, 64, 127
1, 261020, Note_off_c, 0, 79, 60
1, 261022, Note_off_c, 0, 67, 60
1, 261034, Note_off_c, 0, 47, 37
1, 261103, Note_on_c, 0, 79, 67
1, 261108, Note_on_c, 0, 67, 63
1, 261117, Note_off_c, 0, 50, 31
1, 261142, Note_off_c, 0, 67, 64
1, 261157, Note_off_c, 0, 79, 57
1, 261168, Note_on_c, 0, 60, 57
1, 261169, Note_on_c, 0, 52, 49
1, 261180, Note_on_c, 0, 48, 44
1, 261207, Note_off_c, 0, 60, 61
1, 261227, Note_off_c, 0, 52, 63
1, 261230, Note_off_c, 0, 48, 63
1, 261246, Note_on_c, 0, 67, 61
1, 261251, Note_on_c, 0, 79, 69
1, 261291, Note_off_c, 0, 67, 58
1, 261341, Control_c, 0, 64, 98
1, 261356, Control_c, 0, 64, 72
1, 261370, Control_c, 0, 64, 48
1, 261385, Control_c, 0, 64, 28
1, 261389, Note_on_c, 0, 45, 44
1, 261394, Note_off_c, 0, 79, 60
1, 261395, Note_on_c, 0, 78, 73
1, 261400, Control_c, 0, 64, 42
1, 261400, Note_on_c, 0, 66, 63
1, 261403, Note_on_c, 0, 57, 52
1, 261415, Control_c, 0, 64, 59
1, 261417, Note_on_c, 0, 48, 42
1, 261430, Control_c, 0, 64, 71
1, 261445, Control_c, 0, 64, 95
1, 261448, Note_off_c, 0, 57, 62
1, 261452, Note_off_c, 0, 66, 60
1, 261459, Control_c, 0, 64, 127
1, 261466, Note_off_c, 0, 78, 60
1, 261476, Note_off_c, 0, 48, 62
1, 261538, Note_on_c, 0, 78, 69
1, 261548, Note_on_c, 0, 66, 66
1, 261605, Note_off_c, 0, 78, 62
1, 261609, Note_off_c, 0, 66, 63
1, 261609, Note_on_c, 0, 58, 59
1, 261626, Note_on_c, 0, 46, 50
1, 261626, Note_on_c, 0, 50, 44
1, 261629, Note_off_c, 0, 45, 62
1, 261641, Note_off_c, 0, 58, 65
1, 261660, Note_off_c, 0, 46, 62
1, 261660, Note_off_c, 0, 50, 60
1, 261685, Note_on_c, 0, 65, 62
1, 261685, Note_on_c, 0, 77, 61
1, 261737, Note_off_c, 0, 65, 57
1, 261746, Note_off_c, 0, 77, 54
1, 261824, Control_c, 0, 64, 88
1, 261831, Note_on_c, 0, 44, 57
1, 261835, Note_on_c, 0, 56, 57
1, 261838, Control_c, 0, 64, 65
1, 261847, Note_on_c, 0, 47, 54
1, 261850, Note_on_c, 0, 65, 60
1, 261850, Note_on_c, 0, 77, 58
1, 261853, Control_c, 0, 64, 33
1, 261868, Control_c, 0, 64, 41
1, 261882, Control_c, 0, 64, 60
1, 261889, Note_off_c, 0, 65, 60
1, 261892, Note_off_c, 0, 77, 52
1, 261895, Note_off_c, 0, 47, 58
1, 261897, Control_c, 0, 64, 74
1, 261912, Control_c, 0, 64, 110
1, 261917, Note_off_c, 0, 56, 59
1, 261919, Note_off_c, 0, 44, 56
1, 261927, Control_c, 0, 64, 127
1, 261988, Note_on_c, 0, 77, 67
1, 262004, Note_on_c, 0, 65, 50
1, 262021, Note_off_c, 0, 77, 60
1, 262035, Note_off_c, 0, 65, 57
1, 262069, Note_on_c, 0, 57, 59
1, 262073, Note_on_c, 0, 45, 53
1, 262099, Note_off_c, 0, 57, 63
1, 262111, Note_off_c, 0, 45, 62
1, 262152, Note_on_c, 0, 64, 52
1, 262152, Note_on_c, 0, 76, 65
1, 262184, Note_off_c, 0, 64, 63
1, 262276, Note_off_c, 0, 76, 64
1, 262281, Control_c, 0, 64, 113
1, 262282, Note_on_c, 0, 54, 46
1, 262285, Note_on_c, 0, 45, 36
1, 262286, Note_on_c, 0, 42, 51
1, 262296, Control_c, 0, 64, 80
1, 262303, Note_on_c, 0, 63, 60
1, 262303, Note_on_c, 0, 75, 61
1, 262311, Control_c, 0, 64, 58
1, 262326, Control_c, 0, 64, 42
1, 262333, Note_off_c, 0, 45, 61
1, 262341, Control_c, 0, 64, 53
1, 262351, Note_off_c, 0, 63, 54
1, 262355, Control_c, 0, 64, 63
1, 262369, Note_off_c, 0, 75, 59
1, 262370, Control_c, 0, 64, 75
1, 262385, Control_c, 0, 64, 105
1, 262399, Control_c, 0, 64, 127
1, 262402, Note_off_c, 0, 54, 36
1, 262478, Note_on_c, 0, 75, 55
1, 262481, Note_on_c, 0, 63, 55
1, 262539, Note_off_c, 0, 75, 60
1, 262540, Note_off_c, 0, 63, 55
1, 262547, Note_on_c, 0, 44, 47
1, 262551, Note_on_c, 0, 56, 50
1, 262566, Note_on_c, 0, 47, 32
1, 262604, Note_off_c, 0, 56, 59
1, 262607, Note_off_c, 0, 42, 35
1, 262610, Note_off_c, 0, 47, 47
1, 262635, Note_off_c, 0, 44, 50
1, 262655, Note_on_c, 0, 74, 55
1, 262659, Note_on_c, 0, 62, 52
1, 262703, Note_off_c, 0, 74, 51
1, 262704, Note_off_c, 0, 62, 50
1, 262808, Control_c, 0, 64, 82
1, 262822, Control_c, 0, 64, 64
1, 262828, Note_on_c, 0, 45, 44
1, 262828, Note_on_c, 0, 57, 50
1, 262835, Note_on_c, 0, 48, 47
1, 262835, Note_on_c, 0, 62, 47
1, 262837, Note_on_c, 0, 74, 52
1, 262837, Control_c, 0, 64, 47
1, 262852, Control_c, 0, 64, 51
1, 262867, Control_c, 0, 64, 62
1, 262882, Control_c, 0, 64, 72
1, 262897, Control_c, 0, 64, 109
1, 262903, Note_off_c, 0, 57, 59
1, 262912, Control_c, 0, 64, 127
1, 262913, Note_off_c, 0, 62, 53
1, 262920, Note_off_c, 0, 74, 58
1, 262952, Note_off_c, 0, 48, 60
1, 262965, Note_off_c, 0, 45, 59
1, 263026, Note_on_c, 0, 74, 55
1, 263037, Note_on_c, 0, 62, 54
1, 263069, Note_off_c, 0, 74, 54
1, 263082, Note_off_c, 0, 62, 58
1, 263131, Note_on_c, 0, 53, 53
1, 263135, Note_on_c, 0, 41, 52
1, 263165, Note_off_c, 0, 53, 64
1, 263183, Note_off_c, 0, 41, 59
1, 263213, Note_on_c, 0, 72, 62
1, 263224, Note_on_c, 0, 60, 54
1, 263253, Note_off_c, 0, 72, 64
1, 263260, Note_off_c, 0, 60, 59
1, 263320, Control_c, 0, 64, 112
1, 263335, Control_c, 0, 64, 77
1, 263350, Control_c, 0, 64, 57
1, 263353, Note_on_c, 0, 50, 50
1, 263353, Note_on_c, 0, 38, 46
1, 263365, Control_c, 0, 64, 37
1, 263380, Control_c, 0, 64, 55
1, 263385, Note_on_c, 0, 71, 59
1, 263386, Note_on_c, 0, 59, 50
1, 263394, Control_c, 0, 64, 67
1, 263409, Control_c, 0, 64, 87
1, 263422, Note_off_c, 0, 38, 59
1, 263423, Note_off_c, 0, 50, 60
1, 263424, Control_c, 0, 64, 127
1, 263428, Note_off_c, 0, 59, 59
1, 263435, Note_off_c, 0, 71, 48
1, 263552, Note_on_c, 0, 59, 43
1, 263555, Note_on_c, 0, 71, 57
1, 263579, Note_off_c, 0, 59, 60
1, 263606, Note_off_c, 0, 71, 52
1, 263613, Note_on_c, 0, 40, 39
1, 263619, Note_on_c, 0, 52, 52
1, 263666, Note_off_c, 0, 52, 63
1, 263688, Note_off_c, 0, 40, 59
1, 263731, Note_on_c, 0, 68, 58
1, 263743, Note_on_c, 0, 56, 46
1, 263816, Note_off_c, 0, 56, 60
1, 263897, Note_off_c, 0, 68, 37
1, 263913, Control_c, 0, 64, 86
1, 263928, Control_c, 0, 64, 64
1, 263928, Note_on_c, 0, 48, 45
1, 263943, Control_c, 0, 64, 26
1, 263948, Note_on_c, 0, 69, 51
1, 263952, Note_on_c, 0, 36, 26
1, 263958, Note_on_c, 0, 57, 46
1, 263958, Control_c, 0, 64, 10
1, 263979, Control_c, 0, 64, 43
1, 263994, Control_c, 0, 64, 63
1, 264009, Control_c, 0, 64, 78
1, 264023, Note_off_c, 0, 57, 52
1, 264024, Control_c, 0, 64, 127
1, 264060, Note_off_c, 0, 48, 51
1, 264074, Note_off_c, 0, 69, 40
1, 264107, Note_off_c, 0, 36, 38
1, 264144, Note_on_c, 0, 57, 61
1, 264154, Note_on_c, 0, 69, 66
1, 264184, Note_off_c, 0, 57, 53
1, 264212, Note_off_c, 0, 69, 63
1, 264255, Note_on_c, 0, 47, 53
1, 264266, Note_on_c, 0, 35, 44
1, 264290, Note_off_c, 0, 47, 64
1, 264307, Note_off_c, 0, 35, 61
1, 264343, Note_on_c, 0, 71, 66
1, 264345, Note_on_c, 0, 59, 54
1, 264396, Note_off_c, 0, 59, 51
1, 264421, Note_off_c, 0, 71, 57
1, 264484, Control_c, 0, 64, 92
1, 264493, Note_on_c, 0, 45, 54
1, 264497, Note_on_c, 0, 33, 49
1, 264499, Control_c, 0, 64, 68
1, 264514, Control_c, 0, 64, 8
1, 264519, Note_on_c, 0, 72, 65
1, 264521, Note_on_c, 0, 60, 61
1, 264529, Control_c, 0, 64, 0
1, 264543, Control_c, 0, 64, 22
1, 264558, Control_c, 0, 64, 61
1, 264573, Control_c, 0, 64, 81
1, 264578, Note_off_c, 0, 60, 55
1, 264588, Control_c, 0, 64, 127
1, 264596, Note_off_c, 0, 72, 60
1, 264686, Note_on_c, 0, 72, 68
1, 264693, Note_on_c, 0, 60, 62
1, 264736, Note_off_c, 0, 60, 56
1, 264760, Note_off_c, 0, 72, 59
1, 264892, Note_on_c, 0, 74, 67
1, 264895, Note_on_c, 0, 62, 58
1, 264946, Note_off_c, 0, 62, 58
1, 264965, Note_off_c, 0, 33, 41
1, 264970, Note_off_c, 0, 45, 56
1, 264970, Note_off_c, 0, 74, 62
1, 265240, Note_on_c, 0, 75, 84
1, 265250, Note_on_c, 0, 63, 76
1, 265263, Control_c, 0, 64, 84
1, 265278, Control_c, 0, 64, 52
1, 265293, Control_c, 0, 64, 0
1, 265337, Control_c, 0, 64, 44
1, 265352, Control_c, 0, 64, 71
1, 265367, Control_c, 0, 64, 127
1, 265377, Note_off_c, 0, 63, 60
1, 265438, Note_off_c, 0, 75, 61
1, 265737, Note_on_c, 0, 87, 57
1, 265752, Note_on_c, 0, 75, 42
1, 265868, Note_off_c, 0, 87, 55
1, 265883, Note_off_c, 0, 75, 35
1, 265892, Note_on_c, 0, 74, 43
1, 265898, Note_on_c, 0, 62, 41
1, 265924, Note_off_c, 0, 74, 63
1, 265941, Note_off_c, 0, 62, 46
1, 266011, Note_on_c, 0, 87, 57
1, 266012, Note_on_c, 0, 75, 55
1, 266092, Note_off_c, 0, 75, 52
1, 266104, Note_off_c, 0, 87, 56
1, 266185, Note_on_c, 0, 60, 39
1, 266192, Note_on_c, 0, 72, 44
1, 266232, Note_off_c, 0, 72, 53
1, 266233, Note_on_c, 0, 87, 55
1, 266236, Note_on_c, 0, 75, 50
1, 266236, Note_off_c, 0, 60, 44
1, 266275, Note_off_c, 0, 75, 50
1, 266280, Note_off_c, 0, 87, 56
1, 266389, Note_on_c, 0, 75, 58
1, 266396, Note_on_c, 0, 87, 56
1, 266450, Note_off_c, 0, 75, 55
1, 266453, Note_off_c, 0, 87, 54
1, 266462, Note_on_c, 0, 58, 46
1, 266477, Note_on_c, 0, 70, 44
1, 266487, Note_on_c, 0, 62, 42
1, 266529, Note_off_c, 0, 70, 63
1, 266549, Note_off_c, 0, 62, 54
1, 266568, Note_off_c, 0, 58, 57
1, 266569, Note_on_c, 0, 87, 63
1, 266589, Note_on_c, 0, 75, 45
1, 266618, Note_off_c, 0, 75, 53
1, 266618, Note_off_c, 0, 87, 52
1, 266708, Note_on_c, 0, 60, 51
1, 266709, Note_on_c, 0, 69, 51
1, 266711, Note_on_c, 0, 57, 51
1, 266718, Note_on_c, 0, 75, 57
1, 266729, Note_on_c, 0, 87, 61
1, 266738, Note_off_c, 0, 69, 51
1, 266752, Note_off_c, 0, 60, 58
1, 266766, Note_off_c, 0, 87, 59
1, 266766, Note_off_c, 0, 75, 54
1, 266776, Note_off_c, 0, 57, 49
1, 266864, Note_on_c, 0, 87, 63
1, 266867, Note_on_c, 0, 75, 52
1, 266913, Note_off_c, 0, 87, 54
1, 266915, Note_off_c, 0, 75, 56
1, 266933, Note_on_c, 0, 67, 56
1, 266937, Note_on_c, 0, 55, 52
1, 266947, Note_on_c, 0, 58, 45
1, 266979, Note_off_c, 0, 67, 61
1, 266986, Note_off_c, 0, 55, 59
1, 266995, Note_off_c, 0, 58, 59
1, 267035, Note_on_c, 0, 87, 60
1, 267039, Note_on_c, 0, 75, 54
1, 267079, Note_off_c, 0, 75, 54
1, 267085, Note_off_c, 0, 87, 52
1, 267153, Note_on_c, 0, 54, 50
1, 267161, Note_on_c, 0, 57, 52
1, 267167, Note_on_c, 0, 66, 47
1, 267177, Note_on_c, 0, 87, 57
1, 267189, Note_on_c, 0, 75, 53
1, 267204, Note_off_c, 0, 66, 52
1, 267209, Note_off_c, 0, 54, 56
1, 267224, Note_off_c, 0, 87, 55
1, 267231, Note_off_c, 0, 75, 51
1, 267308, Note_off_c, 0, 57, 35
1, 267339, Note_on_c, 0, 87, 59
1, 267353, Note_on_c, 0, 75, 47
1, 267387, Note_on_c, 0, 55, 48
1, 267387, Note_on_c, 0, 67, 57
1, 267389, Note_on_c, 0, 58, 52
1, 267392, Note_off_c, 0, 75, 51
1, 267392, Note_off_c, 0, 87, 52
1, 267443, Note_off_c, 0, 67, 55
1, 267467, Note_off_c, 0, 55, 59
1, 267475, Note_off_c, 0, 58, 58
1, 267511, Note_on_c, 0, 75, 58
1, 267512, Note_on_c, 0, 87, 64
1, 267606, Note_off_c, 0, 75, 61
1, 267609, Note_off_c, 0, 87, 63
1, 267642, Control_c, 0, 64, 98
1, 267653, Note_on_c, 0, 66, 53
1, 267654, Note_on_c, 0, 54, 49
1, 267654, Note_on_c, 0, 57, 46
1, 267657, Control_c, 0, 64, 66
1, 267672, Control_c, 0, 64, 0
1, 267674, Note_on_c, 0, 86, 66
1, 267678, Note_on_c, 0, 74, 55
1, 267701, Control_c, 0, 64, 33
1, 267723, Control_c, 0, 64, 64
1, 267738, Control_c, 0, 64, 90
1, 267741, Note_off_c, 0, 66, 62
1, 267753, Control_c, 0, 64, 127
1, 267758, Note_off_c, 0, 54, 61
1, 267761, Note_off_c, 0, 57, 61
1, 267764, Note_off_c, 0, 74, 56
1, 267776, Note_off_c, 0, 86, 56
1, 267896, Note_on_c, 0, 86, 49
1, 267903, Note_on_c, 0, 74, 44
1, 267952, Note_off_c, 0, 74, 56
1, 267980, Note_off_c, 0, 86, 36
1, 267983, Note_on_c, 0, 51, 47
1, 267990, Note_on_c, 0, 55, 44
1, 267993, Note_on_c, 0, 63, 46
1, 268035, Note_off_c, 0, 55, 57
1, 268044, Note_off_c, 0, 63, 57
1, 268087, Note_off_c, 0, 51, 52
1, 268094, Note_on_c, 0, 86, 62
1, 268101, Note_on_c, 0, 74, 47
1, 268149, Note_off_c, 0, 74, 59
1, 268164, Note_off_c, 0, 86, 57
1, 268231, Note_on_c, 0, 50, 50
1, 268235, Note_on_c, 0, 62, 46
1, 268239, Note_on_c, 0, 54, 45
1, 268264, Note_on_c, 0, 74, 53
1, 268267, Note_on_c, 0, 86, 55
1, 268280, Note_off_c, 0, 62, 61
1, 268287, Note_off_c, 0, 50, 56
1, 268305, Note_off_c, 0, 74, 58
1, 268319, Note_off_c, 0, 86, 57
1, 268330, Note_off_c, 0, 54, 56
1, 268419, Note_on_c, 0, 86, 62
1, 268424, Note_on_c, 0, 74, 54
1, 268453, Note_on_c, 0, 58, 63
1, 268474, Note_off_c, 0, 74, 60
1, 268475, Note_on_c, 0, 46, 47
1, 268477, Note_off_c, 0, 86, 51
1, 268519, Note_off_c, 0, 58, 44
1, 268533, Note_off_c, 0, 46, 56
1, 268579, Note_on_c, 0, 74, 58
1, 268580, Note_on_c, 0, 86, 66
1, 268612, Note_off_c, 0, 74, 62
1, 268617, Note_off_c, 0, 86, 56
1, 268695, Note_on_c, 0, 45, 54
1, 268697, Note_on_c, 0, 57, 48
1, 268717, Note_on_c, 0, 74, 56
1, 268718, Note_on_c, 0, 86, 62
1, 268721, Note_off_c, 0, 57, 56
1, 268732, Note_off_c, 0, 45, 64
1, 268751, Note_off_c, 0, 74, 60
1, 268751, Note_off_c, 0, 86, 57
1, 268852, Note_on_c, 0, 86, 60
1, 268859, Note_on_c, 0, 74, 48
1, 268897, Note_on_c, 0, 54, 62
1, 268900, Note_off_c, 0, 74, 63
1, 268903, Note_on_c, 0, 42, 53
1, 268910, Note_off_c, 0, 86, 57
1, 268934, Note_off_c, 0, 54, 61
1, 268951, Note_off_c, 0, 42, 60
1, 269004, Note_on_c, 0, 74, 60
1, 269009, Note_on_c, 0, 86, 72
1, 269049, Note_off_c, 0, 74, 54
1, 269060, Note_off_c, 0, 86, 59
1, 269134, Note_on_c, 0, 50, 53
1, 269136, Note_on_c, 0, 38, 48
1, 269146, Note_on_c, 0, 86, 67
1, 269158, Note_on_c, 0, 74, 56
1, 269160, Note_off_c, 0, 50, 61
1, 269166, Note_off_c, 0, 38, 59
1, 269189, Note_off_c, 0, 74, 66
1, 269202, Note_off_c, 0, 86, 61
1, 269311, Note_on_c, 0, 86, 78
1, 269312, Note_on_c, 0, 74, 62
1, 269360, Note_off_c, 0, 74, 62
1, 269383, Note_on_c, 0, 49, 56
1, 269386, Note_on_c, 0, 37, 45
1, 269419, Note_off_c, 0, 37, 62
1, 269425, Note_off_c, 0, 49, 60
1, 269506, Note_on_c, 0, 85, 74
1, 269512, Note_on_c, 0, 73, 67
1, 269525, Note_off_c, 0, 86, 58
1, 269564, Note_off_c, 0, 73, 61
1, 269581, Note_off_c, 0, 85, 63
1, 269868, Note_on_c, 0, 73, 73
1, 269869, Note_on_c, 0, 85, 82
1, 269887, Control_c, 0, 64, 99
1, 269902, Control_c, 0, 64, 69
1, 269917, Control_c, 0, 64, 0
1, 269999, Control_c, 0, 64, 48
1, 270014, Control_c, 0, 64, 69
1, 270028, Control_c, 0, 64, 93
1, 270043, Control_c, 0, 64, 127
1, 270141, Note_off_c, 0, 73, 58
1, 270153, Note_off_c, 0, 85, 59
1, 270263, Note_on_c, 0, 73, 54
1, 270263, Note_on_c, 0, 85, 54
1, 270327, Note_off_c, 0, 73, 48
1, 270343, Note_on_c, 0, 60, 47
1, 270346, Note_on_c, 0, 72, 46
1, 270354, Note_off_c, 0, 85, 50
1, 270404, Note_off_c, 0, 60, 55
1, 270406, Note_off_c, 0, 72, 56
1, 270501, Note_on_c, 0, 85, 52
1, 270507, Note_on_c, 0, 73, 55
1, 270572, Note_off_c, 0, 73, 56
1, 270584, Note_off_c, 0, 85, 57
1, 270641, Note_on_c, 0, 70, 36
1, 270645, Note_on_c, 0, 58, 42
1, 270648, Note_on_c, 0, 61, 45
1, 270701, Note_on_c, 0, 73, 49
1, 270715, Note_on_c, 0, 85, 49
1, 270732, Note_off_c, 0, 70, 48
1, 270757, Note_off_c, 0, 73, 47
1, 270758, Note_off_c, 0, 61, 51
1, 270763, Note_off_c, 0, 85, 57
1, 270863, Note_on_c, 0, 73, 55
1, 270870, Note_on_c, 0, 85, 55
1, 270894, Note_on_c, 0, 68, 47
1, 270909, Note_on_c, 0, 56, 44
1, 270912, Note_off_c, 0, 85, 57
1, 270913, Note_off_c, 0, 73, 56
1, 270915, Note_on_c, 0, 60, 44
1, 270952, Note_off_c, 0, 68, 55
1, 270958, Note_off_c, 0, 60, 60
1, 270970, Note_off_c, 0, 58, 41
1, 270972, Note_off_c, 0, 56, 55
1, 271021, Note_on_c, 0, 85, 57
1, 271026, Note_on_c, 0, 73, 51
1, 271061, Note_off_c, 0, 73, 50
1, 271067, Note_off_c, 0, 85, 53
1, 271147, Note_on_c, 0, 58, 42
1, 271153, Note_on_c, 0, 67, 48
1, 271154, Note_on_c, 0, 55, 41
1, 271157, Note_on_c, 0, 73, 56
1, 271172, Note_on_c, 0, 85, 49
1, 271189, Note_off_c, 0, 67, 48
1, 271190, Note_off_c, 0, 58, 60
1, 271195, Note_off_c, 0, 73, 51
1, 271197, Note_off_c, 0, 55, 45
1, 271205, Note_off_c, 0, 85, 57
1, 271297, Note_on_c, 0, 85, 59
1, 271299, Note_on_c, 0, 73, 56
1, 271355, Note_off_c, 0, 73, 61
1, 271356, Note_off_c, 0, 85, 59
1, 271359, Note_on_c, 0, 65, 48
1, 271365, Note_on_c, 0, 53, 32
1, 271386, Note_off_c, 0, 65, 58
1, 271401, Note_on_c, 0, 56, 5
1, 271405, Note_off_c, 0, 53, 49
1, 271445, Note_off_c, 0, 56, 52
1, 271470, Note_on_c, 0, 85, 53
1, 271482, Note_on_c, 0, 73, 43
1, 271513, Note_off_c, 0, 85, 57
1, 271514, Note_off_c, 0, 73, 51
1, 271583, Note_on_c, 0, 52, 44
1, 271589, Note_on_c, 0, 64, 44
1, 271595, Note_on_c, 0, 55, 40
1, 271604, Note_on_c, 0, 73, 54
1, 271608, Note_on_c, 0, 85, 56
1, 271637, Note_off_c, 0, 52, 58
1, 271643, Note_off_c, 0, 64, 43
1, 271654, Note_off_c, 0, 73, 58
1, 271660, Note_off_c, 0, 85, 55
1, 271669, Note_off_c, 0, 55, 45
1, 271762, Note_on_c, 0, 85, 49
1, 271763, Note_on_c, 0, 73, 49
1, 271795, Note_off_c, 0, 73, 50
1, 271803, Note_on_c, 0, 65, 51
1, 271806, Note_on_c, 0, 56, 52
1, 271807, Note_off_c, 0, 85, 57
1, 271815, Note_on_c, 0, 53, 41
1, 271851, Note_off_c, 0, 65, 45
1, 271891, Note_off_c, 0, 56, 55
1, 271912, Note_on_c, 0, 73, 44
1, 271912, Note_on_c, 0, 85, 53
1, 271917, Note_off_c, 0, 53, 53
1, 272018, Note_off_c, 0, 73, 55
1, 272023, Note_off_c, 0, 85, 63
1, 272045, Control_c, 0, 64, 78
1, 272055, Note_on_c, 0, 55, 48
1, 272059, Note_on_c, 0, 52, 42
1, 272059, Note_on_c, 0, 64, 43
1, 272060, Control_c, 0, 64, 57
1, 272069, Note_on_c, 0, 84, 61
1, 272075, Control_c, 0, 64, 0
1, 272087, Note_on_c, 0, 72, 49
1, 272105, Control_c, 0, 64, 46
1, 272120, Control_c, 0, 64, 67
1, 272135, Control_c, 0, 64, 91
1, 272145, Note_off_c, 0, 64, 62
1, 272150, Control_c, 0, 64, 127
1, 272151, Note_off_c, 0, 72, 41
1, 272162, Note_off_c, 0, 52, 62
1, 272164, Note_off_c, 0, 84, 58
1, 272179, Note_off_c, 0, 55, 61
1, 272257, Note_on_c, 0, 84, 49
1, 272277, Note_on_c, 0, 72, 49
1, 272319, Note_off_c, 0, 72, 47
1, 272340, Note_off_c, 0, 84, 57
1, 272387, Note_on_c, 0, 61, 39
1, 272391, Note_on_c, 0, 49, 42
1, 272413, Note_on_c, 0, 53, 35
1, 272430, Note_off_c, 0, 61, 55
1, 272446, Note_on_c, 0, 72, 50
1, 272449, Note_off_c, 0, 49, 48
1, 272452, Note_on_c, 0, 84, 56
1, 272453, Note_off_c, 0, 53, 49
1, 272493, Note_off_c, 0, 72, 46
1, 272498, Note_off_c, 0, 84, 55
1, 272599, Note_on_c, 0, 48, 47
1, 272605, Note_on_c, 0, 60, 45
1, 272609, Note_on_c, 0, 84, 53
1, 272610, Note_on_c, 0, 72, 51
1, 272614, Note_on_c, 0, 52, 50
1, 272632, Note_off_c, 0, 60, 56
1, 272636, Note_off_c, 0, 48, 61
1, 272654, Note_off_c, 0, 72, 52
1, 272656, Note_off_c, 0, 52, 61
1, 272657, Note_off_c, 0, 84, 57
1, 272766, Note_on_c, 0, 72, 54
1, 272768, Note_on_c, 0, 84, 56
1, 272795, Note_off_c, 0, 72, 54
1, 272800, Note_off_c, 0, 84, 56
1, 272829, Note_on_c, 0, 56, 48
1, 272838, Note_on_c, 0, 44, 40
1, 272863, Note_off_c, 0, 56, 54
1, 272879, Note_off_c, 0, 44, 62
1, 272902, Note_on_c, 0, 84, 51
1, 272909, Note_on_c, 0, 72, 43
1, 272946, Note_off_c, 0, 84, 58
1, 272948, Note_off_c, 0, 72, 48
1, 273048, Note_on_c, 0, 55, 46
1, 273051, Note_on_c, 0, 43, 49
1, 273056, Note_on_c, 0, 84, 56
1, 273061, Note_on_c, 0, 72, 52
1, 273074, Note_off_c, 0, 55, 55
1, 273089, Note_off_c, 0, 43, 58
1, 273095, Note_off_c, 0, 72, 49
1, 273100, Note_off_c, 0, 84, 57
1, 273209, Note_on_c, 0, 72, 46
1, 273213, Note_on_c, 0, 84, 52
1, 273262, Note_off_c, 0, 84, 58
1, 273263, Note_off_c, 0, 72, 42
1, 273292, Note_on_c, 0, 52, 45
1, 273297, Note_on_c, 0, 40, 39
1, 273320, Note_off_c, 0, 52, 58
1, 273341, Note_off_c, 0, 40, 54
1, 273377, Note_on_c, 0, 84, 52
1, 273387, Note_on_c, 0, 72, 46
1, 273427, Note_off_c, 0, 72, 47
1, 273430, Note_off_c, 0, 84, 54
1, 273484, Control_c, 0, 64, 93
1, 273499, Control_c, 0, 64, 69
1, 273513, Control_c, 0, 64, 51
1, 273528, Control_c, 0, 64, 43
1, 273538, Note_on_c, 0, 72, 50
1, 273540, Note_on_c, 0, 48, 43
1, 273543, Control_c, 0, 64, 52
1, 273547, Note_on_c, 0, 84, 55
1, 273555, Note_on_c, 0, 36, 29
1, 273557, Control_c, 0, 64, 62
1, 273572, Control_c, 0, 64, 72
1, 273587, Control_c, 0, 64, 89
1, 273602, Control_c, 0, 64, 127
1, 273603, Note_off_c, 0, 84, 52
1, 273629, Note_off_c, 0, 72, 37
1, 273640, Note_off_c, 0, 48, 54
1, 273645, Note_off_c, 0, 36, 51
1, 273730, Note_on_c, 0, 72, 51
1, 273737, Note_on_c, 0, 84, 58
1, 273775, Note_off_c, 0, 72, 46
1, 273831, Note_on_c, 0, 47, 44
1, 273838, Note_on_c, 0, 35, 31
1, 273862, Note_off_c, 0, 47, 57
1, 273878, Note_off_c, 0, 35, 44
1, 273934, Note_on_c, 0, 83, 64
1, 273948, Note_off_c, 0, 84, 54
1, 273962, Note_on_c, 0, 71, 35
1, 273992, Note_off_c, 0, 71, 52
1, 273999, Note_off_c, 0, 83, 59
1, 274248, Note_on_c, 0, 83, 60
1, 274248, Control_c, 0, 64, 121
1, 274253, Note_on_c, 0, 71, 49
1, 274262, Control_c, 0, 64, 85
1, 274277, Control_c, 0, 64, 65
1, 274292, Control_c, 0, 64, 36
1, 274306, Control_c, 0, 64, 0
1, 274351, Control_c, 0, 64, 46
1, 274366, Control_c, 0, 64, 64
1, 274380, Control_c, 0, 64, 77
1, 274395, Control_c, 0, 64, 106
1, 274410, Control_c, 0, 64, 127
1, 274439, Note_off_c, 0, 71, 57
1, 274442, Note_off_c, 0, 83, 59
1, 274531, Note_on_c, 0, 83, 51
1, 274549, Note_on_c, 0, 71, 40
1, 274598, Note_off_c, 0, 71, 40
1, 274615, Note_on_c, 0, 57, 41
1, 274620, Note_on_c, 0, 60, 42
1, 274620, Note_off_c, 0, 83, 54
1, 274621, Note_on_c, 0, 69, 36
1, 274659, Note_off_c, 0, 69, 49
1, 274718, Note_off_c, 0, 60, 35
1, 274740, Note_off_c, 0, 57, 37
1, 274752, Note_on_c, 0, 71, 44
1, 274752, Note_on_c, 0, 83, 54
1, 274801, Note_off_c, 0, 71, 49
1, 274819, Note_off_c, 0, 83, 58
1, 274878, Note_on_c, 0, 55, 38
1, 274892, Note_on_c, 0, 67, 35
1, 274895, Note_on_c, 0, 59, 40
1, 274919, Note_on_c, 0, 83, 46
1, 274921, Note_on_c, 0, 71, 46
1, 274923, Note_off_c, 0, 67, 53
1, 274927, Note_off_c, 0, 55, 43
1, 274945, Note_off_c, 0, 59, 58
1, 274963, Note_off_c, 0, 71, 43
1, 274976, Note_off_c, 0, 83, 55
1, 275073, Note_on_c, 0, 83, 46
1, 275077, Note_on_c, 0, 71, 48
1, 275123, Note_off_c, 0, 71, 44
1, 275126, Note_on_c, 0, 54, 49
1, 275126, Note_on_c, 0, 66, 49
1, 275135, Note_on_c, 0, 57, 53
1, 275136, Note_off_c, 0, 83, 53
1, 275184, Note_off_c, 0, 66, 60
1, 275241, Note_on_c, 0, 83, 51
1, 275249, Note_on_c, 0, 71, 46
1, 275255, Note_off_c, 0, 57, 53
1, 275276, Note_off_c, 0, 54, 36
1, 275298, Note_off_c, 0, 83, 51
1, 275299, Note_off_c, 0, 71, 40
1, 275372, Note_on_c, 0, 52, 60
1, 275374, Note_on_c, 0, 64, 60
1, 275375, Note_on_c, 0, 83, 51
1, 275378, Note_on_c, 0, 55, 50
1, 275387, Note_on_c, 0, 71, 49
1, 275413, Note_off_c, 0, 64, 62
1, 275429, Note_off_c, 0, 52, 61
1, 275433, Note_off_c, 0, 71, 56
1, 275439, Note_off_c, 0, 55, 60
1, 275446, Note_off_c, 0, 83, 59
1, 275529, Note_on_c, 0, 83, 55
1, 275539, Note_on_c, 0, 71, 49
1, 275572, Note_off_c, 0, 71, 49
1, 275573, Note_off_c, 0, 83, 54
1, 275607, Note_on_c, 0, 51, 46
1, 275610, Note_on_c, 0, 54, 45
1, 275611, Note_on_c, 0, 63, 49
1, 275635, Note_off_c, 0, 63, 57
1, 275663, Note_off_c, 0, 54, 55
1, 275671, Note_off_c, 0, 51, 52
1, 275681, Note_on_c, 0, 71, 47
1, 275681, Note_on_c, 0, 83, 62
1, 275723, Note_off_c, 0, 71, 48
1, 275789, Control_c, 0, 64, 98
1, 275804, Control_c, 0, 64, 71
1, 275819, Control_c, 0, 64, 44
1, 275824, Note_on_c, 0, 52, 48
1, 275825, Note_off_c, 0, 83, 50
1, 275829, Note_on_c, 0, 55, 38
1, 275834, Control_c, 0, 64, 0
1, 275837, Note_on_c, 0, 64, 40
1, 275839, Note_on_c, 0, 82, 63
1, 275844, Note_on_c, 0, 70, 54
1, 275864, Control_c, 0, 64, 56
1, 275878, Control_c, 0, 64, 74
1, 275882, Note_off_c, 0, 64, 45
1, 275893, Control_c, 0, 64, 116
1, 275898, Note_off_c, 0, 70, 58
1, 275903, Note_off_c, 0, 82, 60
1, 275908, Control_c, 0, 64, 127
1, 275914, Note_off_c, 0, 52, 50
1, 275978, Note_off_c, 0, 55, 33
1, 276007, Note_on_c, 0, 82, 58
1, 276023, Note_on_c, 0, 70, 53
1, 276051, Note_on_c, 0, 50, 55
1, 276065, Note_on_c, 0, 62, 47
1, 276076, Note_off_c, 0, 70, 57
1, 276087, Note_on_c, 0, 53, 24
1, 276087, Note_off_c, 0, 50, 63
1, 276092, Note_off_c, 0, 82, 60
1, 276093, Note_off_c, 0, 62, 53
1, 276124, Note_off_c, 0, 53, 45
1, 276187, Note_on_c, 0, 70, 62
1, 276193, Note_on_c, 0, 82, 60
1, 276267, Note_off_c, 0, 70, 63
1, 276280, Note_off_c, 0, 82, 62
1, 276317, Control_c, 0, 64, 89
1, 276325, Note_on_c, 0, 52, 45
1, 276329, Note_on_c, 0, 61, 54
1, 276331, Control_c, 0, 64, 66
1, 276332, Note_on_c, 0, 49, 49
1, 276346, Control_c, 0, 64, 13
1, 276361, Control_c, 0, 64, 0
1, 276376, Note_on_c, 0, 81, 53
1, 276379, Note_on_c, 0, 69, 52
1, 276390, Control_c, 0, 64, 57
1, 276394, Note_off_c, 0, 52, 62
1, 276405, Control_c, 0, 64, 75
1, 276406, Note_off_c, 0, 49, 59
1, 276415, Note_off_c, 0, 61, 59
1, 276420, Control_c, 0, 64, 118
1, 276433, Note_off_c, 0, 69, 56
1, 276435, Control_c, 0, 64, 127
1, 276445, Note_off_c, 0, 81, 44
1, 276564, Note_on_c, 0, 69, 54
1, 276573, Note_on_c, 0, 81, 55
1, 276617, Note_off_c, 0, 69, 53
1, 276628, Note_off_c, 0, 81, 52
1, 276629, Note_on_c, 0, 58, 54
1, 276638, Note_on_c, 0, 55, 47
1, 276640, Note_on_c, 0, 67, 50
1, 276672, Note_off_c, 0, 67, 53
1, 276713, Note_off_c, 0, 58, 58
1, 276716, Note_off_c, 0, 55, 49
1, 276748, Note_on_c, 0, 69, 60
1, 276758, Note_on_c, 0, 81, 56
1, 276797, Note_off_c, 0, 69, 56
1, 276803, Note_off_c, 0, 81, 55
1, 276871, Note_on_c, 0, 53, 50
1, 276871, Note_on_c, 0, 57, 51
1, 276874, Note_on_c, 0, 65, 45
1, 276901, Note_off_c, 0, 65, 58
1, 276910, Note_on_c, 0, 81, 61
1, 276913, Note_off_c, 0, 57, 61
1, 276916, Note_on_c, 0, 69, 57
1, 276918, Note_off_c, 0, 53, 60
1, 276949, Note_off_c, 0, 69, 59
1, 276958, Note_off_c, 0, 81, 50
1, 277044, Note_on_c, 0, 69, 63
1, 277045, Note_on_c, 0, 81, 61
1, 277073, Note_on_c, 0, 52, 58
1, 277077, Note_on_c, 0, 64, 51
1, 277080, Note_on_c, 0, 55, 55
1, 277101, Note_off_c, 0, 64, 57
1, 277106, Note_off_c, 0, 69, 62
1, 277106, Note_off_c, 0, 81, 58
1, 277111, Note_off_c, 0, 52, 61
1, 277112, Note_off_c, 0, 55, 63
1, 277193, Note_on_c, 0, 81, 67
1, 277200, Note_on_c, 0, 69, 58
1, 277255, Note_off_c, 0, 69, 57
1, 277262, Note_off_c, 0, 81, 56
1, 277284, Note_on_c, 0, 53, 51
1, 277300, Note_on_c, 0, 62, 49
1, 277312, Note_on_c, 0, 50, 39
1, 277326, Note_off_c, 0, 62, 59
1, 277331, Note_on_c, 0, 81, 55
1, 277349, Note_on_c, 0, 69, 52
1, 277351, Note_off_c, 0, 53, 63
1, 277355, Note_off_c, 0, 50, 46
1, 277387, Note_off_c, 0, 69, 61
1, 277392, Note_off_c, 0, 81, 56
1, 277477, Note_on_c, 0, 81, 56
1, 277492, Note_on_c, 0, 69, 57
1, 277517, Note_off_c, 0, 69, 64
1, 277530, Note_off_c, 0, 81, 54
1, 277540, Note_on_c, 0, 52, 52
1, 277542, Note_on_c, 0, 61, 50
1, 277545, Note_on_c, 0, 49, 47
1, 277571, Note_off_c, 0, 61, 63
1, 277596, Note_off_c, 0, 49, 62
1, 277616, Note_on_c, 0, 69, 52
1, 277637, Note_on_c, 0, 81, 65
1, 277659, Note_off_c, 0, 69, 62
1, 277688, Note_off_c, 0, 52, 48
1, 277740, Control_c, 0, 64, 92
1, 277754, Control_c, 0, 64, 70
1, 277765, Note_off_c, 0, 81, 56
1, 277769, Note_on_c, 0, 50, 50
1, 277769, Control_c, 0, 64, 48
1, 277777, Note_on_c, 0, 68, 57
1, 277777, Note_on_c, 0, 80, 63
1, 277780, Note_on_c, 0, 62, 51
1, 277783, Note_on_c, 0, 53, 43
1, 277784, Control_c, 0, 64, 37
1, 277799, Control_c, 0, 64, 48
1, 277814, Control_c, 0, 64, 62
1, 277828, Control_c, 0, 64, 75
1, 277833, Note_off_c, 0, 62, 58
1, 277834, Note_off_c, 0, 68, 54
1, 277843, Control_c, 0, 64, 107
1, 277852, Note_off_c, 0, 80, 60
1, 277858, Note_off_c, 0, 53, 41
1, 277858, Control_c, 0, 64, 127
1, 277914, Note_off_c, 0, 50, 36
1, 277944, Note_on_c, 0, 80, 65
1, 277953, Note_on_c, 0, 68, 58
1, 278008, Note_off_c, 0, 68, 57
1, 278013, Note_on_c, 0, 60, 51
1, 278013, Note_off_c, 0, 80, 60
1, 278015, Note_on_c, 0, 48, 43
1, 278023, Note_on_c, 0, 52, 40
1, 278038, Note_off_c, 0, 60, 58
1, 278052, Note_off_c, 0, 52, 60
1, 278055, Note_off_c, 0, 48, 63
1, 278135, Note_on_c, 0, 68, 53
1, 278135, Note_on_c, 0, 80, 66
1, 278250, Note_off_c, 0, 68, 62
1, 278257, Note_off_c, 0, 80, 62
1, 278283, Note_on_c, 0, 47, 47
1, 278292, Note_on_c, 0, 59, 46
1, 278296, Control_c, 0, 64, 118
1, 278296, Note_on_c, 0, 50, 49
1, 278310, Control_c, 0, 64, 83
1, 278325, Control_c, 0, 64, 64
1, 278335, Note_on_c, 0, 79, 52
1, 278340, Control_c, 0, 64, 42
1, 278349, Note_on_c, 0, 67, 47
1, 278354, Control_c, 0, 64, 45
1, 278369, Control_c, 0, 64, 58
1, 278384, Note_off_c, 0, 59, 53
1, 278384, Control_c, 0, 64, 71
1, 278399, Control_c, 0, 64, 97
1, 278409, Note_off_c, 0, 67, 56
1, 278411, Note_off_c, 0, 47, 36
1, 278414, Control_c, 0, 64, 127
1, 278418, Note_off_c, 0, 79, 60
1, 278507, Note_on_c, 0, 79, 65
1, 278519, Note_off_c, 0, 50, 32
1, 278523, Note_on_c, 0, 67, 57
1, 278552, Note_off_c, 0, 67, 57
1, 278559, Note_off_c, 0, 79, 51
1, 278575, Note_on_c, 0, 60, 56
1, 278576, Note_on_c, 0, 48, 44
1, 278581, Note_on_c, 0, 52, 43
1, 278606, Note_off_c, 0, 60, 53
1, 278624, Note_off_c, 0, 52, 64
1, 278627, Note_off_c, 0, 48, 63
1, 278658, Note_on_c, 0, 67, 57
1, 278668, Note_on_c, 0, 79, 72
1, 278698, Note_off_c, 0, 67, 58
1, 278784, Control_c, 0, 64, 82
1, 278797, Note_on_c, 0, 48, 53
1, 278798, Note_on_c, 0, 45, 54
1, 278799, Control_c, 0, 64, 59
1, 278808, Note_on_c, 0, 78, 67
1, 278811, Note_on_c, 0, 57, 50
1, 278812, Note_on_c, 0, 66, 61
1, 278814, Note_off_c, 0, 79, 59
1, 278814, Control_c, 0, 64, 0
1, 278843, Control_c, 0, 64, 57
1, 278856, Note_off_c, 0, 57, 61
1, 278858, Control_c, 0, 64, 77
1, 278872, Note_off_c, 0, 66, 60
1, 278873, Control_c, 0, 64, 127
1, 278877, Note_off_c, 0, 48, 61
1, 278885, Note_off_c, 0, 78, 61
1, 278962, Note_on_c, 0, 78, 61
1, 278981, Note_on_c, 0, 66, 60
1, 279038, Note_on_c, 0, 50, 54
1, 279039, Note_on_c, 0, 46, 58
1, 279039, Note_on_c, 0, 58, 60
1, 279054, Note_off_c, 0, 45, 51
1, 279058, Note_off_c, 0, 66, 62
1, 279058, Note_off_c, 0, 78, 62
1, 279071, Note_off_c, 0, 58, 65
1, 279082, Note_off_c, 0, 50, 60
1, 279084, Note_off_c, 0, 46, 60
1, 279138, Note_on_c, 0, 77, 61
1, 279141, Note_on_c, 0, 65, 62
1, 279187, Note_off_c, 0, 65, 56
1, 279192, Note_off_c, 0, 77, 47
1, 279265, Control_c, 0, 64, 85
1, 279281, Control_c, 0, 64, 64
1, 279282, Note_on_c, 0, 56, 56
1, 279286, Note_on_c, 0, 44, 47
1, 279288, Note_on_c, 0, 47, 56
1, 279296, Control_c, 0, 64, 46
1, 279300, Note_on_c, 0, 77, 62
1, 279308, Note_on_c, 0, 65, 51
1, 279311, Control_c, 0, 64, 59
1, 279326, Control_c, 0, 64, 69
1, 279335, Note_off_c, 0, 47, 59
1, 279341, Control_c, 0, 64, 90
1, 279342, Note_off_c, 0, 77, 53
1, 279342, Note_off_c, 0, 65, 52
1, 279355, Control_c, 0, 64, 127
1, 279357, Note_off_c, 0, 44, 53
1, 279358, Note_off_c, 0, 56, 60
1, 279458, Note_on_c, 0, 77, 64
1, 279462, Note_on_c, 0, 65, 53
1, 279496, Note_off_c, 0, 77, 54
1, 279506, Note_off_c, 0, 65, 61
1, 279522, Note_on_c, 0, 57, 58
1, 279524, Note_on_c, 0, 45, 54
1, 279551, Note_off_c, 0, 57, 62
1, 279564, Note_off_c, 0, 45, 62
1, 279619, Note_on_c, 0, 76, 64
1, 279627, Note_on_c, 0, 64, 43
1, 279655, Note_off_c, 0, 64, 55
1, 279762, Control_c, 0, 64, 124
1, 279772, Note_on_c, 0, 42, 59
1, 279777, Control_c, 0, 64, 78
1, 279787, Note_on_c, 0, 54, 54
1, 279789, Note_off_c, 0, 76, 62
1, 279792, Control_c, 0, 64, 57
1, 279797, Note_on_c, 0, 63, 50
1, 279799, Note_on_c, 0, 75, 58
1, 279800, Note_on_c, 0, 45, 28
1, 279806, Control_c, 0, 64, 0
1, 279836, Control_c, 0, 64, 49
1, 279837, Note_off_c, 0, 45, 54
1, 279851, Control_c, 0, 64, 67
1, 279858, Note_off_c, 0, 63, 56
1, 279866, Control_c, 0, 64, 96
1, 279869, Note_off_c, 0, 54, 54
1, 279872, Note_off_c, 0, 75, 60
1, 279880, Control_c, 0, 64, 127
1, 279972, Note_on_c, 0, 75, 48
1, 279991, Note_on_c, 0, 63, 46
1, 280034, Note_off_c, 0, 63, 57
1, 280045, Note_on_c, 0, 44, 47
1, 280046, Note_off_c, 0, 75, 60
1, 280047, Note_on_c, 0, 56, 54
1, 280062, Note_on_c, 0, 47, 35
1, 280088, Note_off_c, 0, 42, 21
1, 280099, Note_off_c, 0, 56, 54
1, 280110, Note_off_c, 0, 47, 45
1, 280120, Note_off_c, 0, 44, 49
1, 280161, Note_on_c, 0, 74, 54
1, 280169, Note_on_c, 0, 62, 47
1, 280220, Note_off_c, 0, 62, 57
1, 280231, Note_off_c, 0, 74, 52
1, 280326, Control_c, 0, 64, 108
1, 280341, Note_on_c, 0, 57, 56
1, 280341, Control_c, 0, 64, 73
1, 280347, Note_on_c, 0, 45, 47
1, 280356, Note_on_c, 0, 48, 46
1, 280356, Control_c, 0, 64, 52
1, 280366, Note_on_c, 0, 74, 44
1, 280371, Control_c, 0, 64, 19
1, 280371, Note_on_c, 0, 62, 40
1, 280386, Control_c, 0, 64, 40
1, 280400, Control_c, 0, 64, 60
1, 280415, Control_c, 0, 64, 74
1, 280422, Note_off_c, 0, 57, 59
1, 280426, Note_off_c, 0, 62, 39
1, 280430, Control_c, 0, 64, 127
1, 280450, Note_off_c, 0, 74, 46
1, 280469, Note_off_c, 0, 48, 62
1, 280474, Note_off_c, 0, 45, 61
1, 280565, Note_on_c, 0, 62, 50
1, 280569, Note_on_c, 0, 74, 52
1, 280608, Note_off_c, 0, 74, 62
1, 280618, Note_off_c, 0, 62, 54
1, 280663, Note_on_c, 0, 41, 52
1, 280666, Note_on_c, 0, 53, 53
1, 280706, Note_off_c, 0, 53, 64
1, 280727, Note_off_c, 0, 41, 61
1, 280770, Note_on_c, 0, 72, 58
1, 280775, Note_on_c, 0, 60, 48
1, 280815, Note_off_c, 0, 72, 57
1, 280824, Note_off_c, 0, 60, 57
1, 280905, Note_on_c, 0, 38, 48
1, 280907, Note_on_c, 0, 50, 48
1, 280913, Control_c, 0, 64, 84
1, 280927, Control_c, 0, 64, 61
1, 280942, Control_c, 0, 64, 32
1, 280952, Note_on_c, 0, 71, 49
1, 280957, Note_on_c, 0, 59, 38
1, 280957, Control_c, 0, 64, 42
1, 280971, Control_c, 0, 64, 61
1, 280986, Control_c, 0, 64, 76
1, 281001, Control_c, 0, 64, 127
1, 281007, Note_off_c, 0, 59, 44
1, 281010, Note_off_c, 0, 38, 59
1, 281012, Note_off_c, 0, 71, 42
1, 281022, Note_off_c, 0, 50, 59
1, 281128, Note_on_c, 0, 59, 47
1, 281133, Note_on_c, 0, 71, 50
1, 281165, Note_off_c, 0, 59, 63
1, 281183, Note_off_c, 0, 71, 39
1, 281210, Note_on_c, 0, 40, 49
1, 281223, Note_on_c, 0, 52, 51
1, 281261, Note_off_c, 0, 52, 65
1, 281278, Note_off_c, 0, 40, 58
1, 281325, Note_on_c, 0, 68, 56
1, 281337, Note_on_c, 0, 56, 41
1, 281374, Note_off_c, 0, 56, 55
1, 281437, Note_off_c, 0, 68, 36
1, 281512, Control_c, 0, 64, 113
1, 281527, Control_c, 0, 64, 78
1, 281530, Note_on_c, 0, 48, 49
1, 281533, Note_on_c, 0, 36, 43
1, 281542, Control_c, 0, 64, 57
1, 281554, Note_on_c, 0, 69, 51
1, 281557, Control_c, 0, 64, 0
1, 281583, Note_on_c, 0, 57, 14
1, 281586, Control_c, 0, 64, 47
1, 281601, Control_c, 0, 64, 65
1, 281616, Control_c, 0, 64, 81
1, 281631, Control_c, 0, 64, 127
1, 281651, Note_off_c, 0, 48, 59
1, 281657, Note_off_c, 0, 57, 35
1, 281697, Note_off_c, 0, 69, 36
1, 281704, Note_off_c, 0, 36, 35
1, 281788, Note_on_c, 0, 57, 40
1, 281801, Note_on_c, 0, 69, 45
1, 281840, Note_off_c, 0, 57, 42
1, 281846, Note_off_c, 0, 69, 45
1, 281866, Note_on_c, 0, 47, 44
1, 281882, Note_on_c, 0, 35, 40
1, 281926, Note_off_c, 0, 47, 58
1, 281933, Note_off_c, 0, 35, 57
1, 282040, Note_on_c, 0, 69, 45
1, 282052, Note_on_c, 0, 57, 34
1, 282115, Note_off_c, 0, 57, 40
1, 282124, Note_off_c, 0, 69, 38
1, 282261, Control_c, 0, 64, 94
1, 282275, Control_c, 0, 64, 71
1, 282278, Note_on_c, 0, 45, 41
1, 282281, Note_on_c, 0, 33, 38
1, 282290, Control_c, 0, 64, 49
1, 282299, Note_on_c, 0, 69, 40
1, 282305, Control_c, 0, 64, 0
1, 282320, Note_on_c, 0, 57, 24
1, 282350, Control_c, 0, 64, 43
1, 282365, Control_c, 0, 64, 63
1, 282380, Control_c, 0, 64, 74
1, 282394, Control_c, 0, 64, 92
1, 282409, Control_c, 0, 64, 127
1, 282429, Note_off_c, 0, 57, 34
1, 282438, Note_off_c, 0, 69, 44
1, 282592, Note_on_c, 0, 69, 45
1, 282595, Note_on_c, 0, 57, 43
1, 282656, Note_off_c, 0, 57, 55
1, 282657, Note_off_c, 0, 69, 59
1, 282988, Note_on_c, 0, 69, 46
1, 282996, Note_on_c, 0, 57, 38
1, 283521, Note_off_c, 0, 33, 38
1, 283566, Note_off_c, 0, 45, 34
1, 283574, Note_off_c, 0, 57, 36
1, 283641, Note_off_c, 0, 69, 36
1, 283921, Control_c, 0, 64, 124
1, 283936, Control_c, 0, 64, 122
1, 283951, Control_c, 0, 64, 119
1, 283966, Control_c, 0, 64, 116
1, 283981, Control_c, 0, 64, 113
1, 283995, Control_c, 0, 64, 110
1, 284010, Control_c, 0, 64, 108
1, 284025, Control_c, 0, 64, 105
1, 284040, Control_c, 0, 64, 102
1, 284055, Control_c, 0, 64, 99
1, 284070, Control_c, 0, 64, 96
1, 284085, Control_c, 0, 64, 91
1, 284100, Control_c, 0, 64, 85
1, 284115, Control_c, 0, 64, 79
1, 284130, Control_c, 0, 64, 75
1, 284145, Control_c, 0, 64, 72
1, 284159, Control_c, 0, 64, 69
1, 284174, Control_c, 0, 64, 65
1, 284196, Control_c, 0, 64, 63
1, 284211, Control_c, 0, 64, 60
1, 284226, Control_c, 0, 64, 59
1, 284256, Control_c, 0, 64, 58
1, 284270, Control_c, 0, 64, 55
1, 284285, Control_c, 0, 64, 50
1, 284300, Control_c, 0, 64, 44
1, 284314, Control_c, 0, 64, 40
1, 284329, Control_c, 0, 64, 36
1, 284344, Control_c, 0, 64, 30
1, 284359, Control_c, 0, 64, 14
1, 284374, Control_c, 0, 64, 0
1, 285224, Note_on_c, 0, 33, 32
1, 285267, Note_off_c, 0, 33, 56
1, 285410, Note_on_c, 0, 64, 45
1, 285423, Note_on_c, 0, 60, 39
1, 285605, Note_on_c, 0, 40, 38
1, 285654, Note_off_c, 0, 40, 59
1, 285764, Note_on_c, 0, 62, 46
1, 285770, Note_on_c, 0, 59, 40
1, 285806, Note_off_c, 0, 64, 41
1, 285822, Note_off_c, 0, 60, 40
1, 285927, Note_on_c, 0, 45, 38
1, 285958, Note_off_c, 0, 45, 59
1, 286055, Note_on_c, 0, 60, 51
1, 286070, Note_on_c, 0, 57, 34
1, 286073, Note_off_c, 0, 62, 51
1, 286088, Note_off_c, 0, 59, 41
1, 286215, Note_on_c, 0, 52, 52
1, 286249, Note_off_c, 0, 52, 67
1, 286350, Note_on_c, 0, 62, 52
1, 286353, Note_off_c, 0, 60, 51
1, 286353, Note_off_c, 0, 57, 32
1, 286358, Note_on_c, 0, 59, 38
1, 286493, Note_on_c, 0, 57, 53
1, 286503, Note_on_c, 0, 45, 37
1, 286526, Note_off_c, 0, 57, 65
1, 286534, Note_off_c, 0, 45, 45
1, 286631, Note_on_c, 0, 64, 55
1, 286640, Note_off_c, 0, 62, 52
1, 286640, Note_on_c, 0, 60, 51
1, 286667, Note_off_c, 0, 59, 52
1, 286813, Control_c, 0, 64, 29
1, 286817, Note_on_c, 0, 76, 45
1, 286828, Control_c, 0, 64, 56
1, 286843, Control_c, 0, 64, 65
1, 286858, Control_c, 0, 64, 72
1, 286872, Control_c, 0, 64, 82
1, 286887, Control_c, 0, 64, 99
1, 286902, Control_c, 0, 64, 127
1, 286945, Note_off_c, 0, 60, 58
1, 286953, Note_off_c, 0, 64, 62
1, 287148, Note_on_c, 0, 81, 45
1, 287176, Note_off_c, 0, 76, 54
1, 287298, Note_on_c, 0, 66, 65
1, 287317, Note_on_c, 0, 63, 45
1, 287321, Note_on_c, 0, 60, 44
1, 287340, Control_c, 0, 64, 104
1, 287355, Control_c, 0, 64, 88
1, 287370, Control_c, 0, 64, 72
1, 287385, Control_c, 0, 64, 54
1, 287400, Control_c, 0, 64, 0
1, 287429, Control_c, 0, 64, 31
1, 287444, Control_c, 0, 64, 63
1, 287459, Control_c, 0, 64, 81
1, 287474, Control_c, 0, 64, 127
1, 287564, Note_off_c, 0, 81, 39
1, 287566, Note_on_c, 0, 69, 42
1, 287625, Note_off_c, 0, 63, 39
1, 287631, Note_off_c, 0, 60, 40
1, 287635, Note_off_c, 0, 69, 64
1, 287778, Note_off_c, 0, 66, 64
1, 288089, Note_on_c, 0, 28, 39
1, 288127, Note_off_c, 0, 28, 56
1, 288193, Control_c, 0, 64, 118
1, 288207, Control_c, 0, 64, 107
1, 288222, Control_c, 0, 64, 97
1, 288237, Control_c, 0, 64, 88
1, 288247, Note_on_c, 0, 59, 51
1, 288250, Note_on_c, 0, 56, 47
1, 288252, Control_c, 0, 64, 81
1, 288267, Control_c, 0, 64, 75
1, 288281, Control_c, 0, 64, 71
1, 288296, Control_c, 0, 64, 67
1, 288311, Control_c, 0, 64, 62
1, 288326, Control_c, 0, 64, 55
1, 288341, Control_c, 0, 64, 47
1, 288355, Control_c, 0, 64, 37
1, 288370, Control_c, 0, 64, 21
1, 288385, Control_c, 0, 64, 0
1, 288413, Note_on_c, 0, 35, 43
1, 288443, Note_off_c, 0, 35, 57
1, 288538, Note_on_c, 0, 57, 52
1, 288545, Note_off_c, 0, 56, 54
1, 288553, Note_on_c, 0, 54, 39
1, 288598, Note_off_c, 0, 59, 54
1, 288684, Note_on_c, 0, 40, 49
1, 288722, Note_off_c, 0, 40, 63
1, 288830, Note_on_c, 0, 56, 56
1, 288834, Note_on_c, 0, 52, 50
1, 288841, Note_off_c, 0, 57, 52
1, 288871, Note_off_c, 0, 54, 36
1, 288965, Note_on_c, 0, 47, 53
1, 289000, Note_off_c, 0, 47, 65
1, 289098, Note_on_c, 0, 57, 55
1, 289108, Note_on_c, 0, 54, 45
1, 289117, Note_off_c, 0, 52, 51
1, 289120, Note_off_c, 0, 56, 52
1, 289240, Note_on_c, 0, 52, 57
1, 289242, Note_on_c, 0, 40, 34
1, 289251, Note_off_c, 0, 54, 36
1, 289273, Note_off_c, 0, 40, 52
1, 289275, Note_off_c, 0, 52, 67
1, 289369, Note_on_c, 0, 59, 50
1, 289382, Note_on_c, 0, 56, 48
1, 289386, Note_off_c, 0, 57, 54
1, 289561, Note_on_c, 0, 71, 44
1, 289585, Control_c, 0, 64, 24
1, 289600, Control_c, 0, 64, 54
1, 289615, Control_c, 0, 64, 65
1, 289630, Control_c, 0, 64, 75
1, 289644, Control_c, 0, 64, 93
1, 289661, Control_c, 0, 64, 127
1, 289666, Note_off_c, 0, 59, 60
1, 289673, Note_off_c, 0, 56, 56
1, 289895, Note_on_c, 0, 75, 51
1, 289985, Note_off_c, 0, 71, 33
1, 290032, Control_c, 0, 64, 106
1, 290047, Control_c, 0, 64, 95
1, 290059, Note_on_c, 0, 64, 61
1, 290060, Note_on_c, 0, 59, 47
1, 290061, Control_c, 0, 64, 86
1, 290065, Note_on_c, 0, 56, 48
1, 290076, Control_c, 0, 64, 77
1, 290091, Control_c, 0, 64, 69
1, 290106, Control_c, 0, 64, 57
1, 290121, Control_c, 0, 64, 10
1, 290135, Control_c, 0, 64, 0
1, 290202, Control_c, 0, 64, 29
1, 290217, Control_c, 0, 64, 59
1, 290232, Control_c, 0, 64, 71
1, 290246, Control_c, 0, 64, 86
1, 290261, Control_c, 0, 64, 127
1, 290296, Note_on_c, 0, 76, 50
1, 290330, Note_off_c, 0, 76, 68
1, 290359, Note_off_c, 0, 75, 50
1, 290413, Note_off_c, 0, 56, 51
1, 290422, Note_off_c, 0, 59, 51
1, 290714, Note_off_c, 0, 64, 31
1, 290822, Note_on_c, 0, 33, 44
1, 290840, Control_c, 0, 64, 113
1, 290855, Control_c, 0, 64, 105
1, 290855, Note_off_c, 0, 33, 55
1, 290869, Control_c, 0, 64, 98
1, 290884, Control_c, 0, 64, 91
1, 290899, Control_c, 0, 64, 85
1, 290914, Control_c, 0, 64, 80
1, 290936, Control_c, 0, 64, 74
1, 290951, Control_c, 0, 64, 68
1, 290965, Control_c, 0, 64, 64
1, 290980, Control_c, 0, 64, 60
1, 290983, Note_on_c, 0, 64, 52
1, 290985, Note_on_c, 0, 60, 46
1, 290995, Control_c, 0, 64, 55
1, 291010, Control_c, 0, 64, 50
1, 291025, Control_c, 0, 64, 43
1, 291039, Control_c, 0, 64, 31
1, 291054, Control_c, 0, 64, 0
1, 291146, Note_on_c, 0, 40, 47
1, 291174, Note_off_c, 0, 40, 59
1, 291281, Note_on_c, 0, 62, 52
1, 291284, Note_off_c, 0, 64, 54
1, 291290, Note_on_c, 0, 59, 42
1, 291331, Note_off_c, 0, 60, 40
1, 291419, Note_on_c, 0, 45, 51
1, 291446, Note_off_c, 0, 45, 62
1, 291548, Note_on_c, 0, 60, 57
1, 291556, Note_off_c, 0, 59, 56
1, 291558, Note_off_c, 0, 62, 53
1, 291560, Note_on_c, 0, 57, 42
1, 291696, Note_on_c, 0, 52, 54
1, 291728, Note_off_c, 0, 52, 66
1, 291825, Note_on_c, 0, 62, 60
1, 291829, Note_off_c, 0, 57, 30
1, 291832, Note_on_c, 0, 59, 49
1, 291855, Note_off_c, 0, 60, 55
1, 291951, Note_on_c, 0, 45, 41
1, 291955, Note_on_c, 0, 57, 58
1, 291979, Note_off_c, 0, 45, 49
1, 291982, Note_off_c, 0, 57, 63
1, 292097, Note_on_c, 0, 64, 60
1, 292106, Note_on_c, 0, 60, 53
1, 292115, Note_off_c, 0, 62, 55
1, 292121, Note_off_c, 0, 59, 57
1, 292265, Note_on_c, 0, 76, 51
1, 292306, Control_c, 0, 64, 27
1, 292321, Control_c, 0, 64, 53
1, 292336, Control_c, 0, 64, 64
1, 292351, Control_c, 0, 64, 70
1, 292366, Control_c, 0, 64, 79
1, 292381, Control_c, 0, 64, 90
1, 292394, Note_off_c, 0, 60, 58
1, 292396, Control_c, 0, 64, 104
1, 292405, Note_off_c, 0, 64, 63
1, 292410, Control_c, 0, 64, 127
1, 292575, Note_on_c, 0, 81, 50
1, 292641, Note_off_c, 0, 76, 38
1, 292714, Control_c, 0, 64, 109
1, 292724, Note_on_c, 0, 66, 65
1, 292728, Control_c, 0, 64, 93
1, 292732, Note_on_c, 0, 60, 51
1, 292741, Note_on_c, 0, 63, 47
1, 292743, Control_c, 0, 64, 76
1, 292758, Control_c, 0, 64, 65
1, 292773, Control_c, 0, 64, 48
1, 292788, Control_c, 0, 64, 0
1, 292848, Control_c, 0, 64, 44
1, 292863, Control_c, 0, 64, 65
1, 292877, Control_c, 0, 64, 80
1, 292892, Control_c, 0, 64, 127
1, 292934, Note_off_c, 0, 81, 40
1, 292948, Note_on_c, 0, 69, 50
1, 292988, Note_off_c, 0, 60, 48
1, 292989, Note_off_c, 0, 69, 64
1, 293013, Note_off_c, 0, 63, 39
1, 293147, Note_off_c, 0, 66, 65
1, 293415, Note_on_c, 0, 28, 46
1, 293419, Control_c, 0, 64, 117
1, 293433, Control_c, 0, 64, 103
1, 293448, Control_c, 0, 64, 93
1, 293454, Note_off_c, 0, 28, 61
1, 293463, Control_c, 0, 64, 85
1, 293478, Control_c, 0, 64, 79
1, 293493, Control_c, 0, 64, 73
1, 293508, Control_c, 0, 64, 65
1, 293522, Control_c, 0, 64, 59
1, 293537, Control_c, 0, 64, 51
1, 293552, Control_c, 0, 64, 39
1, 293555, Note_on_c, 0, 59, 50
1, 293559, Note_on_c, 0, 56, 45
1, 293567, Control_c, 0, 64, 0
1, 293713, Note_on_c, 0, 35, 44
1, 293750, Note_off_c, 0, 35, 60
1, 293835, Note_off_c, 0, 56, 52
1, 293836, Note_on_c, 0, 57, 60
1, 293850, Note_on_c, 0, 54, 43
1, 293944, Note_off_c, 0, 59, 31
1, 293976, Note_on_c, 0, 40, 51
1, 294011, Note_off_c, 0, 40, 65
1, 294088, Note_on_c, 0, 56, 60
1, 294101, Note_off_c, 0, 57, 55
1, 294104, Note_off_c, 0, 54, 49
1, 294105, Note_on_c, 0, 52, 52
1, 294249, Note_on_c, 0, 47, 48
1, 294286, Note_off_c, 0, 47, 65
1, 294366, Note_on_c, 0, 57, 56
1, 294373, Note_on_c, 0, 54, 52
1, 294392, Note_off_c, 0, 56, 50
1, 294441, Note_off_c, 0, 52, 35
1, 294484, Note_off_c, 0, 54, 54
1, 294520, Note_on_c, 0, 40, 43
1, 294524, Note_on_c, 0, 52, 55
1, 294553, Note_off_c, 0, 40, 48
1, 294555, Note_off_c, 0, 52, 68
1, 294650, Note_on_c, 0, 59, 57
1, 294662, Note_on_c, 0, 56, 50
1, 294682, Note_off_c, 0, 57, 54
1, 294841, Note_on_c, 0, 71, 50
1, 294856, Control_c, 0, 64, 38
1, 294871, Control_c, 0, 64, 56
1, 294886, Control_c, 0, 64, 64
1, 294901, Control_c, 0, 64, 70
1, 294916, Control_c, 0, 64, 78
1, 294924, Note_off_c, 0, 56, 57
1, 294930, Control_c, 0, 64, 90
1, 294936, Note_off_c, 0, 59, 60
1, 294945, Control_c, 0, 64, 105
1, 294960, Control_c, 0, 64, 127
1, 295144, Note_on_c, 0, 75, 46
1, 295242, Note_off_c, 0, 71, 32
1, 295287, Control_c, 0, 64, 116
1, 295302, Control_c, 0, 64, 103
1, 295304, Note_on_c, 0, 64, 62
1, 295307, Note_on_c, 0, 59, 49
1, 295311, Note_on_c, 0, 56, 47
1, 295317, Control_c, 0, 64, 90
1, 295332, Control_c, 0, 64, 80
1, 295346, Control_c, 0, 64, 70
1, 295361, Control_c, 0, 64, 60
1, 295376, Control_c, 0, 64, 32
1, 295391, Control_c, 0, 64, 0
1, 295487, Control_c, 0, 64, 28
1, 295502, Control_c, 0, 64, 55
1, 295517, Control_c, 0, 64, 65
1, 295532, Control_c, 0, 64, 71
1, 295546, Control_c, 0, 64, 78
1, 295561, Control_c, 0, 64, 88
1, 295562, Note_on_c, 0, 76, 49
1, 295576, Control_c, 0, 64, 109
1, 295585, Note_off_c, 0, 76, 65
1, 295591, Control_c, 0, 64, 127
1, 295613, Note_off_c, 0, 75, 54
1, 295716, Note_off_c, 0, 56, 41
1, 295719, Note_off_c, 0, 59, 33
1, 295946, Note_off_c, 0, 64, 32
1, 296047, Note_on_c, 0, 33, 47
1, 296080, Control_c, 0, 64, 106
1, 296081, Note_off_c, 0, 33, 58
1, 296095, Control_c, 0, 64, 95
1, 296110, Control_c, 0, 64, 85
1, 296125, Control_c, 0, 64, 76
1, 296140, Control_c, 0, 64, 70
1, 296155, Control_c, 0, 64, 65
1, 296176, Control_c, 0, 64, 62
1, 296191, Control_c, 0, 64, 58
1, 296205, Note_on_c, 0, 64, 49
1, 296206, Control_c, 0, 64, 55
1, 296214, Note_on_c, 0, 61, 44
1, 296221, Control_c, 0, 64, 52
1, 296236, Control_c, 0, 64, 49
1, 296250, Control_c, 0, 64, 43
1, 296265, Control_c, 0, 64, 26
1, 296280, Control_c, 0, 64, 0
1, 296362, Note_on_c, 0, 40, 43
1, 296390, Note_off_c, 0, 40, 59
1, 296491, Note_off_c, 0, 61, 50
1, 296494, Note_on_c, 0, 62, 57
1, 296503, Note_on_c, 0, 59, 43
1, 296509, Note_off_c, 0, 64, 50
1, 296628, Note_on_c, 0, 45, 49
1, 296654, Note_off_c, 0, 45, 60
1, 296746, Note_on_c, 0, 61, 61
1, 296754, Note_off_c, 0, 59, 54
1, 296755, Note_off_c, 0, 62, 49
1, 296763, Note_on_c, 0, 57, 49
1, 296886, Note_on_c, 0, 52, 61
1, 296927, Note_off_c, 0, 52, 67
1, 297017, Note_on_c, 0, 62, 64
1, 297025, Note_on_c, 0, 59, 49
1, 297035, Note_off_c, 0, 61, 53
1, 297091, Note_off_c, 0, 57, 38
1, 297142, Note_on_c, 0, 45, 46
1, 297147, Note_on_c, 0, 57, 53
1, 297171, Note_off_c, 0, 45, 49
1, 297179, Note_off_c, 0, 57, 65
1, 297275, Note_on_c, 0, 64, 61
1, 297279, Note_on_c, 0, 61, 59
1, 297297, Note_off_c, 0, 62, 53
1, 297300, Note_off_c, 0, 59, 58
1, 297442, Note_on_c, 0, 76, 52
1, 297444, Control_c, 0, 64, 24
1, 297459, Control_c, 0, 64, 48
1, 297474, Control_c, 0, 64, 60
1, 297489, Control_c, 0, 64, 66
1, 297504, Control_c, 0, 64, 72
1, 297518, Control_c, 0, 64, 84
1, 297529, Note_off_c, 0, 64, 61
1, 297533, Control_c, 0, 64, 102
1, 297548, Control_c, 0, 64, 127
1, 297568, Note_off_c, 0, 61, 59
1, 297755, Note_on_c, 0, 81, 51
1, 297815, Note_off_c, 0, 76, 54
1, 297897, Note_on_c, 0, 67, 64
1, 297906, Note_on_c, 0, 64, 56
1, 297912, Control_c, 0, 64, 115
1, 297913, Note_on_c, 0, 61, 50
1, 297927, Control_c, 0, 64, 104
1, 297942, Control_c, 0, 64, 93
1, 297956, Control_c, 0, 64, 81
1, 297971, Control_c, 0, 64, 68
1, 297986, Control_c, 0, 64, 48
1, 298001, Control_c, 0, 64, 0
1, 298074, Control_c, 0, 64, 49
1, 298089, Control_c, 0, 64, 65
1, 298104, Control_c, 0, 64, 74
1, 298119, Control_c, 0, 64, 85
1, 298134, Control_c, 0, 64, 94
1, 298138, Note_on_c, 0, 69, 49
1, 298142, Note_off_c, 0, 81, 33
1, 298149, Control_c, 0, 64, 102
1, 298164, Control_c, 0, 64, 114
1, 298179, Control_c, 0, 64, 127
1, 298208, Note_off_c, 0, 69, 63
1, 298571, Note_on_c, 0, 46, 44
1, 298583, Note_on_c, 0, 34, 44
1, 298645, Control_c, 0, 64, 97
1, 298660, Control_c, 0, 64, 74
1, 298675, Control_c, 0, 64, 61
1, 298690, Control_c, 0, 64, 50
1, 298702, Note_on_c, 0, 58, 48
1, 298704, Control_c, 0, 64, 56
1, 298719, Control_c, 0, 64, 65
1, 298734, Control_c, 0, 64, 75
1, 298749, Control_c, 0, 64, 105
1, 298764, Control_c, 0, 64, 127
1, 298789, Note_off_c, 0, 46, 59
1, 298803, Note_off_c, 0, 34, 38
1, 298865, Note_off_c, 0, 58, 60
1, 298876, Note_on_c, 0, 45, 52
1, 298894, Note_on_c, 0, 33, 42
1, 298951, Note_off_c, 0, 45, 59
1, 298970, Note_off_c, 0, 33, 57
1, 298990, Note_on_c, 0, 57, 61
1, 299121, Note_on_c, 0, 31, 47
1, 299121, Note_on_c, 0, 43, 50
1, 299134, Control_c, 0, 64, 112
1, 299149, Control_c, 0, 64, 78
1, 299171, Control_c, 0, 64, 57
1, 299186, Control_c, 0, 64, 0
1, 299201, Control_c, 0, 64, 32
1, 299207, Note_off_c, 0, 57, 50
1, 299215, Control_c, 0, 64, 57
1, 299230, Control_c, 0, 64, 69
1, 299246, Note_on_c, 0, 55, 61
1, 299246, Control_c, 0, 64, 87
1, 299257, Note_off_c, 0, 31, 49
1, 299261, Control_c, 0, 64, 127
1, 299275, Note_off_c, 0, 43, 59
1, 299393, Note_on_c, 0, 45, 56
1, 299395, Note_on_c, 0, 33, 52
1, 299422, Note_off_c, 0, 55, 56
1, 299445, Note_off_c, 0, 33, 61
1, 299456, Note_off_c, 0, 45, 61
1, 299520, Note_on_c, 0, 57, 63
1, 299584, Note_off_c, 0, 57, 61
1, 299632, Note_on_c, 0, 46, 59
1, 299642, Note_on_c, 0, 34, 48
1, 299660, Control_c, 0, 64, 93
1, 299675, Control_c, 0, 64, 69
1, 299691, Control_c, 0, 64, 37
1, 299706, Control_c, 0, 64, 0
1, 299735, Control_c, 0, 64, 46
1, 299750, Control_c, 0, 64, 65
1, 299764, Note_off_c, 0, 46, 62
1, 299765, Control_c, 0, 64, 77
1, 299766, Note_on_c, 0, 58, 60
1, 299780, Control_c, 0, 64, 95
1, 299794, Control_c, 0, 64, 127
1, 299801, Note_off_c, 0, 67, 34
1, 299808, Note_off_c, 0, 34, 34
1, 299870, Note_off_c, 0, 61, 35
1, 299896, Note_on_c, 0, 43, 52
1, 299904, Note_on_c, 0, 31, 47
1, 299905, Note_off_c, 0, 64, 41
1, 299949, Note_off_c, 0, 31, 51
1, 299956, Note_off_c, 0, 43, 54
1, 300173, Note_on_c, 0, 45, 43
1, 300176, Note_on_c, 0, 38, 41
1, 300232, Control_c, 0, 64, 104
1, 300247, Control_c, 0, 64, 84
1, 300262, Control_c, 0, 64, 67
1, 300271, Note_on_c, 0, 66, 59
1, 300277, Control_c, 0, 64, 31
1, 300286, Note_on_c, 0, 57, 46
1, 300292, Control_c, 0, 64, 0
1, 300295, Note_on_c, 0, 62, 49
1, 300298, Note_off_c, 0, 58, 38
1, 300325, Note_off_c, 0, 45, 60
1, 300351, Control_c, 0, 64, 44
1, 300366, Control_c, 0, 64, 59
1, 300371, Note_off_c, 0, 38, 55
1, 300381, Control_c, 0, 64, 67
1, 300396, Control_c, 0, 64, 73
1, 300410, Control_c, 0, 64, 80
1, 300425, Control_c, 0, 64, 87
1, 300440, Control_c, 0, 64, 93
1, 300455, Control_c, 0, 64, 103
1, 300469, Control_c, 0, 64, 127
1, 300541, Note_on_c, 0, 26, 43
1, 300543, Note_on_c, 0, 38, 37
1, 300546, Note_off_c, 0, 62, 31
1, 300581, Note_off_c, 0, 26, 46
1, 300583, Note_off_c, 0, 66, 59
1, 300592, Note_off_c, 0, 38, 58
1, 301054, Note_on_c, 0, 31, 41
1, 301085, Control_c, 0, 64, 119
1, 301098, Note_off_c, 0, 31, 48
1, 301100, Control_c, 0, 64, 112
1, 301115, Control_c, 0, 64, 101
1, 301130, Control_c, 0, 64, 89
1, 301145, Control_c, 0, 64, 81
1, 301159, Control_c, 0, 64, 79
1, 301189, Control_c, 0, 64, 76
1, 301192, Note_on_c, 0, 62, 52
1, 301198, Note_on_c, 0, 59, 39
1, 301204, Control_c, 0, 64, 72
1, 301218, Control_c, 0, 64, 65
1, 301233, Control_c, 0, 64, 57
1, 301248, Control_c, 0, 64, 49
1, 301252, Note_off_c, 0, 57, 36
1, 301263, Control_c, 0, 64, 40
1, 301278, Control_c, 0, 64, 25
1, 301292, Control_c, 0, 64, 0
1, 301346, Note_on_c, 0, 38, 46
1, 301376, Note_off_c, 0, 38, 59
1, 301478, Note_on_c, 0, 60, 57
1, 301483, Note_on_c, 0, 57, 44
1, 301487, Note_off_c, 0, 62, 45
1, 301529, Note_off_c, 0, 59, 40
1, 301609, Note_on_c, 0, 43, 56
1, 301641, Note_off_c, 0, 43, 62
1, 301737, Note_on_c, 0, 59, 59
1, 301744, Note_off_c, 0, 57, 58
1, 301745, Note_off_c, 0, 60, 51
1, 301749, Note_on_c, 0, 55, 52
1, 301877, Note_on_c, 0, 50, 52
1, 301914, Note_off_c, 0, 50, 64
1, 301991, Note_off_c, 0, 59, 53
1, 301991, Note_on_c, 0, 60, 56
1, 302003, Note_on_c, 0, 57, 48
1, 302022, Note_off_c, 0, 55, 29
1, 302128, Note_on_c, 0, 55, 59
1, 302137, Note_on_c, 0, 43, 19
1, 302166, Note_off_c, 0, 55, 64
1, 302188, Note_off_c, 0, 43, 28
1, 302265, Note_on_c, 0, 62, 57
1, 302271, Note_on_c, 0, 59, 49
1, 302276, Note_off_c, 0, 60, 54
1, 302297, Note_off_c, 0, 57, 35
1, 302432, Note_on_c, 0, 74, 47
1, 302478, Control_c, 0, 64, 49
1, 302493, Control_c, 0, 64, 63
1, 302508, Control_c, 0, 64, 70
1, 302512, Note_off_c, 0, 62, 56
1, 302523, Control_c, 0, 64, 78
1, 302537, Control_c, 0, 64, 89
1, 302541, Note_off_c, 0, 59, 58
1, 302552, Control_c, 0, 64, 100
1, 302567, Control_c, 0, 64, 127
1, 302769, Note_on_c, 0, 79, 48
1, 302791, Note_off_c, 0, 74, 43
1, 302849, Control_c, 0, 64, 112
1, 302863, Control_c, 0, 64, 99
1, 302878, Control_c, 0, 64, 86
1, 302893, Control_c, 0, 64, 74
1, 302915, Control_c, 0, 64, 61
1, 302928, Note_on_c, 0, 62, 50
1, 302929, Note_on_c, 0, 65, 61
1, 302930, Control_c, 0, 64, 28
1, 302940, Note_on_c, 0, 59, 43
1, 302945, Control_c, 0, 64, 0
1, 303019, Control_c, 0, 64, 39
1, 303034, Control_c, 0, 64, 64
1, 303049, Control_c, 0, 64, 78
1, 303063, Control_c, 0, 64, 98
1, 303078, Control_c, 0, 64, 127
1, 303154, Note_off_c, 0, 79, 40
1, 303165, Note_on_c, 0, 67, 48
1, 303230, Note_off_c, 0, 67, 60
1, 303613, Note_on_c, 0, 44, 40
1, 303623, Note_on_c, 0, 32, 37
1, 303665, Control_c, 0, 64, 102
1, 303680, Control_c, 0, 64, 78
1, 303694, Control_c, 0, 64, 62
1, 303709, Control_c, 0, 64, 31
1, 303724, Control_c, 0, 64, 0
1, 303739, Control_c, 0, 64, 28
1, 303754, Control_c, 0, 64, 55
1, 303762, Note_on_c, 0, 56, 51
1, 303768, Control_c, 0, 64, 67
1, 303783, Control_c, 0, 64, 78
1, 303798, Control_c, 0, 64, 98
1, 303813, Control_c, 0, 64, 127
1, 303843, Note_off_c, 0, 44, 59
1, 303864, Note_off_c, 0, 32, 40
1, 303927, Note_off_c, 0, 56, 54
1, 303939, Note_on_c, 0, 43, 39
1, 303958, Note_on_c, 0, 31, 26
1, 303975, Note_off_c, 0, 43, 50
1, 304002, Note_off_c, 0, 31, 42
1, 304073, Note_on_c, 0, 55, 57
1, 304181, Note_on_c, 0, 41, 49
1, 304183, Note_on_c, 0, 29, 47
1, 304197, Note_off_c, 0, 55, 57
1, 304267, Note_off_c, 0, 29, 50
1, 304273, Note_off_c, 0, 41, 57
1, 304331, Note_on_c, 0, 53, 59
1, 304437, Note_off_c, 0, 53, 58
1, 304445, Note_off_c, 0, 59, 15
1, 304460, Note_on_c, 0, 43, 51
1, 304462, Note_on_c, 0, 31, 48
1, 304514, Note_off_c, 0, 31, 59
1, 304525, Note_off_c, 0, 43, 59
1, 304594, Note_on_c, 0, 55, 59
1, 304665, Note_off_c, 0, 55, 59
1, 304717, Note_on_c, 0, 44, 59
1, 304719, Note_on_c, 0, 32, 51
1, 304723, Control_c, 0, 64, 101
1, 304738, Control_c, 0, 64, 76
1, 304753, Control_c, 0, 64, 55
1, 304767, Control_c, 0, 64, 0
1, 304828, Control_c, 0, 64, 54
1, 304842, Note_off_c, 0, 44, 61
1, 304843, Control_c, 0, 64, 71
1, 304844, Note_on_c, 0, 56, 58
1, 304851, Note_off_c, 0, 32, 58
1, 304857, Control_c, 0, 64, 95
1, 304872, Control_c, 0, 64, 127
1, 304951, Note_off_c, 0, 65, 40
1, 304984, Note_on_c, 0, 41, 54
1, 304987, Note_on_c, 0, 29, 48
1, 305003, Note_off_c, 0, 62, 34
1, 305024, Note_off_c, 0, 29, 46
1, 305026, Note_off_c, 0, 41, 58
1, 305282, Note_on_c, 0, 43, 44
1, 305290, Note_on_c, 0, 36, 41
1, 305354, Control_c, 0, 64, 99
1, 305369, Control_c, 0, 64, 74
1, 305383, Control_c, 0, 64, 52
1, 305398, Control_c, 0, 64, 0
1, 305404, Note_off_c, 0, 56, 37
1, 305419, Note_on_c, 0, 64, 60
1, 305433, Note_off_c, 0, 43, 52
1, 305434, Note_on_c, 0, 60, 49
1, 305437, Note_on_c, 0, 55, 44
1, 305457, Control_c, 0, 64, 52
1, 305472, Control_c, 0, 64, 68
1, 305485, Note_off_c, 0, 36, 56
1, 305487, Control_c, 0, 64, 83
1, 305502, Control_c, 0, 64, 127
1, 305622, Note_off_c, 0, 64, 59
1, 305648, Note_on_c, 0, 36, 43
1, 305650, Note_on_c, 0, 24, 51
1, 305691, Note_off_c, 0, 24, 61
1, 305700, Note_off_c, 0, 36, 58
1, 305779, Note_off_c, 0, 60, 38
1, 306091, Note_on_c, 0, 48, 39
1, 306096, Note_on_c, 0, 51, 43
1, 306132, Control_c, 0, 64, 112
1, 306147, Control_c, 0, 64, 99
1, 306161, Control_c, 0, 64, 87
1, 306176, Control_c, 0, 64, 75
1, 306191, Control_c, 0, 64, 60
1, 306206, Control_c, 0, 64, 10
1, 306215, Note_on_c, 0, 63, 66
1, 306217, Note_on_c, 0, 60, 56
1, 306221, Control_c, 0, 64, 0
1, 306274, Note_off_c, 0, 55, 49
1, 306280, Control_c, 0, 64, 51
1, 306295, Control_c, 0, 64, 67
1, 306310, Control_c, 0, 64, 79
1, 306318, Note_off_c, 0, 51, 58
1, 306325, Control_c, 0, 64, 98
1, 306340, Control_c, 0, 64, 127
1, 306398, Note_on_c, 0, 46, 47
1, 306420, Note_on_c, 0, 50, 38
1, 306453, Note_off_c, 0, 48, 31
1, 306455, Note_off_c, 0, 50, 54
1, 306491, Note_off_c, 0, 46, 61
1, 306525, Note_on_c, 0, 62, 67
1, 306526, Note_on_c, 0, 58, 62
1, 306558, Note_off_c, 0, 63, 36
1, 306579, Note_off_c, 0, 60, 49
1, 306613, Note_off_c, 0, 58, 54
1, 306675, Note_on_c, 0, 42, 55
1, 306683, Note_on_c, 0, 30, 50
1, 306704, Control_c, 0, 64, 105
1, 306719, Control_c, 0, 64, 77
1, 306734, Control_c, 0, 64, 58
1, 306749, Control_c, 0, 64, 0
1, 306764, Control_c, 0, 64, 25
1, 306779, Control_c, 0, 64, 54
1, 306783, Note_on_c, 0, 60, 63
1, 306792, Note_on_c, 0, 57, 54
1, 306793, Control_c, 0, 64, 68
1, 306796, Note_on_c, 0, 54, 53
1, 306808, Control_c, 0, 64, 86
1, 306811, Note_off_c, 0, 30, 51
1, 306818, Note_off_c, 0, 42, 60
1, 306823, Control_c, 0, 64, 127
1, 306835, Note_off_c, 0, 62, 50
1, 306853, Note_off_c, 0, 54, 49
1, 306890, Note_off_c, 0, 60, 60
1, 306951, Note_on_c, 0, 41, 50
1, 306953, Note_on_c, 0, 29, 45
1, 306988, Note_off_c, 0, 41, 61
1, 306993, Note_off_c, 0, 29, 58
1, 307047, Note_on_c, 0, 58, 61
1, 307049, Note_on_c, 0, 62, 66
1, 307068, Note_on_c, 0, 53, 51
1, 307070, Note_off_c, 0, 57, 53
1, 307103, Note_off_c, 0, 53, 64
1, 307127, Note_off_c, 0, 62, 59
1, 307155, Note_off_c, 0, 58, 37
1, 307194, Note_on_c, 0, 27, 50
1, 307201, Note_on_c, 0, 39, 44
1, 307268, Control_c, 0, 64, 106
1, 307283, Control_c, 0, 64, 77
1, 307298, Control_c, 0, 64, 55
1, 307312, Note_on_c, 0, 63, 71
1, 307313, Control_c, 0, 64, 0
1, 307320, Note_on_c, 0, 60, 56
1, 307336, Note_on_c, 0, 51, 52
1, 307339, Note_off_c, 0, 27, 59
1, 307342, Control_c, 0, 64, 15
1, 307347, Note_off_c, 0, 39, 64
1, 307357, Control_c, 0, 64, 55
1, 307372, Control_c, 0, 64, 68
1, 307387, Control_c, 0, 64, 82
1, 307409, Control_c, 0, 64, 121
1, 307424, Control_c, 0, 64, 127
1, 307467, Note_off_c, 0, 51, 34
1, 307515, Note_on_c, 0, 41, 51
1, 307517, Note_on_c, 0, 29, 46
1, 307550, Note_off_c, 0, 41, 62
1, 307551, Note_off_c, 0, 29, 51
1, 307634, Note_off_c, 0, 60, 36
1, 307674, Note_on_c, 0, 53, 50
1, 307676, Note_off_c, 0, 63, 35
1, 307794, Note_on_c, 0, 30, 50
1, 307803, Note_on_c, 0, 42, 45
1, 307868, Control_c, 0, 64, 117
1, 307883, Control_c, 0, 64, 84
1, 307898, Control_c, 0, 64, 65
1, 307905, Note_on_c, 0, 62, 59
1, 307913, Control_c, 0, 64, 34
1, 307922, Note_on_c, 0, 54, 46
1, 307927, Note_on_c, 0, 58, 50
1, 307927, Control_c, 0, 64, 33
1, 307942, Control_c, 0, 64, 51
1, 307944, Note_off_c, 0, 30, 54
1, 307957, Note_off_c, 0, 42, 61
1, 307957, Control_c, 0, 64, 63
1, 307972, Control_c, 0, 64, 74
1, 307974, Note_off_c, 0, 53, 34
1, 307986, Control_c, 0, 64, 94
1, 308001, Control_c, 0, 64, 127
1, 308063, Note_on_c, 0, 41, 45
1, 308066, Note_on_c, 0, 29, 29
1, 308093, Note_off_c, 0, 41, 57
1, 308107, Note_off_c, 0, 29, 40
1, 308165, Note_off_c, 0, 62, 0
1, 308206, Note_on_c, 0, 53, 52
1, 308248, Note_off_c, 0, 54, 38
1, 308251, Poly_aftertouch_c, 0, 62, 0
1, 308300, Note_off_c, 0, 58, 31
1, 308344, Note_on_c, 0, 46, 49
1, 308344, Note_on_c, 0, 50, 37
1, 308469, Control_c, 0, 64, 101
1, 308484, Control_c, 0, 64, 78
1, 308487, Note_on_c, 0, 62, 64
1, 308494, Note_on_c, 0, 58, 56
1, 308498, Control_c, 0, 64, 64
1, 308513, Control_c, 0, 64, 44
1, 308528, Control_c, 0, 64, 0
1, 308556, Note_off_c, 0, 53, 41
1, 308558, Control_c, 0, 64, 26
1, 308561, Note_off_c, 0, 46, 33
1, 308573, Control_c, 0, 64, 57
1, 308583, Note_off_c, 0, 50, 41
1, 308588, Control_c, 0, 64, 68
1, 308602, Control_c, 0, 64, 81
1, 308613, Note_on_c, 0, 48, 54
1, 308617, Control_c, 0, 64, 119
1, 308630, Note_on_c, 0, 45, 46
1, 308632, Control_c, 0, 64, 127
1, 308659, Note_off_c, 0, 48, 64
1, 308661, Note_off_c, 0, 58, 61
1, 308684, Note_off_c, 0, 45, 61
1, 308745, Note_on_c, 0, 60, 67
1, 308753, Note_on_c, 0, 57, 57
1, 308773, Note_off_c, 0, 62, 52
1, 308811, Note_off_c, 0, 57, 57
1, 308859, Note_on_c, 0, 41, 55
1, 308871, Note_on_c, 0, 29, 51
1, 308921, Control_c, 0, 64, 121
1, 308936, Control_c, 0, 64, 87
1, 308951, Control_c, 0, 64, 68
1, 308966, Control_c, 0, 64, 39
1, 308978, Note_off_c, 0, 41, 57
1, 308980, Control_c, 0, 64, 0
1, 308987, Note_on_c, 0, 59, 63
1, 308993, Note_off_c, 0, 60, 51
1, 308994, Note_on_c, 0, 56, 59
1, 308996, Note_on_c, 0, 53, 57
1, 308996, Note_off_c, 0, 29, 57
1, 309025, Control_c, 0, 64, 55
1, 309039, Control_c, 0, 64, 70
1, 309040, Note_off_c, 0, 53, 59
1, 309054, Control_c, 0, 64, 92
1, 309069, Control_c, 0, 64, 127
1, 309136, Note_on_c, 0, 40, 47
1, 309140, Note_on_c, 0, 28, 38
1, 309197, Note_off_c, 0, 40, 58
1, 309241, Note_off_c, 0, 28, 39
1, 309266, Note_on_c, 0, 60, 68
1, 309271, Note_on_c, 0, 52, 62
1, 309274, Note_off_c, 0, 56, 25
1, 309306, Note_off_c, 0, 59, 60
1, 309306, Note_off_c, 0, 52, 65
1, 309340, Note_off_c, 0, 60, 56
1, 309409, Note_on_c, 0, 26, 44
1, 309412, Note_on_c, 0, 38, 45
1, 309499, Control_c, 0, 64, 113
1, 309514, Control_c, 0, 64, 85
1, 309527, Note_off_c, 0, 26, 50
1, 309529, Control_c, 0, 64, 64
1, 309531, Note_on_c, 0, 59, 56
1, 309534, Note_on_c, 0, 62, 66
1, 309543, Control_c, 0, 64, 34
1, 309549, Note_on_c, 0, 50, 54
1, 309552, Note_off_c, 0, 38, 56
1, 309558, Control_c, 0, 64, 0
1, 309588, Control_c, 0, 64, 10
1, 309603, Control_c, 0, 64, 55
1, 309619, Control_c, 0, 64, 70
1, 309631, Note_off_c, 0, 50, 43
1, 309634, Control_c, 0, 64, 86
1, 309655, Control_c, 0, 64, 127
1, 309717, Note_on_c, 0, 28, 51
1, 309725, Note_on_c, 0, 40, 45
1, 309765, Note_off_c, 0, 28, 53
1, 309773, Note_off_c, 0, 40, 58
1, 309861, Note_off_c, 0, 62, 54
1, 309868, Note_on_c, 0, 52, 51
1, 309891, Note_off_c, 0, 59, 35
1, 309989, Note_on_c, 0, 41, 52
1, 309993, Note_on_c, 0, 29, 37
1, 310041, Control_c, 0, 64, 102
1, 310055, Control_c, 0, 64, 77
1, 310070, Control_c, 0, 64, 59
1, 310085, Control_c, 0, 64, 19
1, 310098, Note_off_c, 0, 52, 36
1, 310100, Control_c, 0, 64, 0
1, 310105, Note_on_c, 0, 60, 67
1, 310114, Note_on_c, 0, 57, 53
1, 310115, Control_c, 0, 64, 42
1, 310117, Note_on_c, 0, 53, 48
1, 310119, Note_off_c, 0, 41, 60
1, 310129, Control_c, 0, 64, 62
1, 310143, Note_off_c, 0, 29, 58
1, 310144, Control_c, 0, 64, 73
1, 310159, Control_c, 0, 64, 91
1, 310174, Control_c, 0, 64, 127
1, 310266, Note_on_c, 0, 28, 44
1, 310276, Note_on_c, 0, 40, 35
1, 310304, Note_off_c, 0, 28, 44
1, 310314, Note_off_c, 0, 40, 47
1, 310368, Note_off_c, 0, 57, 31
1, 310382, Note_on_c, 0, 52, 56
1, 310382, Note_off_c, 0, 60, 31
1, 310387, Note_off_c, 0, 53, 41
1, 310546, Note_on_c, 0, 48, 50
1, 310551, Note_on_c, 0, 45, 48
1, 310655, Note_on_c, 0, 60, 63
1, 310668, Note_on_c, 0, 57, 55
1, 310672, Control_c, 0, 64, 102
1, 310686, Control_c, 0, 64, 84
1, 310701, Control_c, 0, 64, 67
1, 310712, Note_off_c, 0, 52, 37
1, 310716, Control_c, 0, 64, 39
1, 310731, Control_c, 0, 64, 0
1, 310799, Note_off_c, 0, 45, 41
1, 310801, Note_on_c, 0, 44, 44
1, 310804, Control_c, 0, 64, 18
1, 310814, Note_off_c, 0, 48, 33
1, 310819, Note_on_c, 0, 47, 45
1, 310819, Control_c, 0, 64, 60
1, 310834, Control_c, 0, 64, 72
1, 310849, Control_c, 0, 64, 85
1, 310864, Control_c, 0, 64, 95
1, 310880, Note_off_c, 0, 47, 61
1, 310892, Note_off_c, 0, 44, 60
1, 310913, Note_off_c, 0, 60, 54
1, 310923, Control_c, 0, 64, 95
1, 310928, Note_on_c, 0, 59, 62
1, 310931, Note_on_c, 0, 56, 52
1, 310940, Note_off_c, 0, 57, 51
1, 310967, Control_c, 0, 64, 96
1, 310996, Control_c, 0, 64, 95
1, 311011, Control_c, 0, 64, 83
1, 311026, Control_c, 0, 64, 66
1, 311041, Control_c, 0, 64, 36
1, 311056, Control_c, 0, 64, 0
1, 311067, Note_on_c, 0, 40, 41
1, 311083, Note_on_c, 0, 28, 21
1, 311101, Control_c, 0, 64, 46
1, 311116, Control_c, 0, 64, 63
1, 311131, Control_c, 0, 64, 75
1, 311152, Control_c, 0, 64, 105
1, 311167, Control_c, 0, 64, 127
1, 311169, Note_off_c, 0, 40, 57
1, 311176, Note_off_c, 0, 28, 57
1, 311198, Note_on_c, 0, 52, 55
1, 311248, Note_off_c, 0, 52, 60
1, 311330, Note_on_c, 0, 39, 40
1, 311332, Note_on_c, 0, 27, 28
1, 311364, Note_off_c, 0, 39, 53
1, 311378, Note_off_c, 0, 27, 54
1, 311476, Note_on_c, 0, 51, 50
1, 311499, Note_off_c, 0, 56, 55
1, 311521, Note_off_c, 0, 59, 37
1, 311551, Note_off_c, 0, 51, 55
1, 311650, Note_on_c, 0, 47, 45
1, 311679, Note_on_c, 0, 50, 46
1, 311775, Note_on_c, 0, 62, 61
1, 311775, Control_c, 0, 64, 95
1, 311790, Control_c, 0, 64, 69
1, 311795, Note_on_c, 0, 59, 49
1, 311805, Control_c, 0, 64, 34
1, 311819, Control_c, 0, 64, 0
1, 311834, Control_c, 0, 64, 13
1, 311849, Control_c, 0, 64, 56
1, 311864, Control_c, 0, 64, 71
1, 311879, Control_c, 0, 64, 90
1, 311901, Control_c, 0, 64, 127
1, 311947, Note_on_c, 0, 48, 45
1, 311965, Note_on_c, 0, 45, 43
1, 311968, Note_off_c, 0, 50, 36
1, 311979, Note_off_c, 0, 47, 54
1, 311983, Note_off_c, 0, 48, 65
1, 312003, Note_off_c, 0, 45, 63
1, 312056, Note_on_c, 0, 60, 64
1, 312061, Note_on_c, 0, 57, 54
1, 312087, Note_off_c, 0, 62, 36
1, 312096, Note_off_c, 0, 59, 31
1, 312169, Control_c, 0, 64, 99
1, 312183, Control_c, 0, 64, 73
1, 312189, Note_on_c, 0, 41, 48
1, 312195, Note_on_c, 0, 29, 40
1, 312198, Control_c, 0, 64, 45
1, 312213, Control_c, 0, 64, 0
1, 312228, Control_c, 0, 64, 34
1, 312243, Control_c, 0, 64, 55
1, 312257, Control_c, 0, 64, 66
1, 312272, Control_c, 0, 64, 76
1, 312287, Control_c, 0, 64, 96
1, 312293, Note_off_c, 0, 41, 56
1, 312302, Control_c, 0, 64, 127
1, 312307, Note_off_c, 0, 29, 56
1, 312323, Note_on_c, 0, 53, 50
1, 312377, Note_off_c, 0, 53, 58
1, 312440, Note_on_c, 0, 28, 44
1, 312449, Note_on_c, 0, 40, 42
1, 312474, Note_off_c, 0, 28, 46
1, 312484, Note_off_c, 0, 40, 59
1, 312525, Note_off_c, 0, 57, 56
1, 312563, Note_off_c, 0, 60, 49
1, 312580, Note_on_c, 0, 52, 52
1, 312632, Note_off_c, 0, 52, 56
1, 312713, Note_on_c, 0, 48, 45
1, 312725, Note_on_c, 0, 45, 38
1, 312797, Control_c, 0, 64, 112
1, 312812, Control_c, 0, 64, 85
1, 312828, Control_c, 0, 64, 66
1, 312837, Note_on_c, 0, 60, 49
1, 312843, Control_c, 0, 64, 28
1, 312858, Control_c, 0, 64, 0
1, 312866, Note_on_c, 0, 57, 39
1, 312917, Control_c, 0, 64, 52
1, 312932, Control_c, 0, 64, 66
1, 312946, Control_c, 0, 64, 75
1, 312961, Control_c, 0, 64, 89
1, 312976, Control_c, 0, 64, 97
1, 312991, Control_c, 0, 64, 100
1, 313003, Note_off_c, 0, 48, 30
1, 313006, Control_c, 0, 64, 103
1, 313021, Note_on_c, 0, 44, 41
1, 313021, Control_c, 0, 64, 107
1, 313021, Note_on_c, 0, 47, 40
1, 313035, Control_c, 0, 64, 116
1, 313050, Control_c, 0, 64, 127
1, 313053, Note_off_c, 0, 47, 55
1, 313068, Note_off_c, 0, 44, 62
1, 313074, Note_off_c, 0, 45, 40
1, 313125, Note_on_c, 0, 59, 49
1, 313129, Note_on_c, 0, 56, 47
1, 313143, Note_off_c, 0, 60, 35
1, 313170, Note_off_c, 0, 57, 39
1, 313244, Control_c, 0, 64, 94
1, 313259, Control_c, 0, 64, 71
1, 313273, Control_c, 0, 64, 49
1, 313278, Note_on_c, 0, 40, 27
1, 313280, Note_on_c, 0, 28, 33
1, 313288, Control_c, 0, 64, 23
1, 313303, Control_c, 0, 64, 41
1, 313318, Control_c, 0, 64, 58
1, 313333, Control_c, 0, 64, 68
1, 313347, Control_c, 0, 64, 84
1, 313362, Control_c, 0, 64, 110
1, 313377, Control_c, 0, 64, 127
1, 313414, Note_off_c, 0, 40, 39
1, 313442, Note_off_c, 0, 28, 36
1, 313443, Note_on_c, 0, 52, 46
1, 313493, Note_off_c, 0, 52, 58
1, 313521, Note_off_c, 0, 56, 55
1, 313582, Note_on_c, 0, 26, 47
1, 313599, Note_on_c, 0, 38, 40
1, 313615, Note_off_c, 0, 26, 60
1, 313637, Note_off_c, 0, 38, 58
1, 313750, Note_on_c, 0, 50, 44
1, 313903, Control_c, 0, 64, 119
1, 313918, Control_c, 0, 64, 108
1, 313933, Control_c, 0, 64, 100
1, 313948, Control_c, 0, 64, 91
1, 313954, Note_on_c, 0, 57, 54
1, 313955, Note_on_c, 0, 45, 36
1, 313962, Control_c, 0, 64, 80
1, 313965, Note_on_c, 0, 53, 46
1, 313971, Note_on_c, 0, 38, 33
1, 313977, Control_c, 0, 64, 69
1, 313992, Control_c, 0, 64, 55
1, 314007, Control_c, 0, 64, 0
1, 314031, Note_off_c, 0, 59, 36
1, 314096, Control_c, 0, 64, 47
1, 314111, Control_c, 0, 64, 67
1, 314126, Control_c, 0, 64, 79
1, 314147, Control_c, 0, 64, 97
1, 314162, Control_c, 0, 64, 113
1, 314177, Control_c, 0, 64, 127
1, 314270, Note_off_c, 0, 50, 39
1, 314304, Note_off_c, 0, 53, 36
1, 314380, Note_off_c, 0, 38, 36
1, 314836, Note_on_c, 0, 52, 45
1, 314857, Note_on_c, 0, 49, 35
1, 314860, Note_on_c, 0, 33, 35
1, 314875, Control_c, 0, 64, 92
1, 314897, Control_c, 0, 64, 74
1, 314912, Control_c, 0, 64, 58
1, 314926, Control_c, 0, 64, 0
1, 314985, Control_c, 0, 64, 43
1, 315000, Control_c, 0, 64, 62
1, 315015, Control_c, 0, 64, 72
1, 315030, Control_c, 0, 64, 88
1, 315045, Control_c, 0, 64, 114
1, 315059, Control_c, 0, 64, 127
1, 315101, Note_off_c, 0, 52, 59
1, 315113, Note_off_c, 0, 49, 40
1, 315134, Note_off_c, 0, 33, 40
1, 315170, Note_off_c, 0, 57, 41
1, 315243, Note_off_c, 0, 45, 32
1, 315461, Control_c, 0, 64, 124
1, 315475, Control_c, 0, 64, 120
1, 315490, Control_c, 0, 64, 117
1, 315505, Control_c, 0, 64, 116
1, 315520, Control_c, 0, 64, 114
1, 315535, Control_c, 0, 64, 112
1, 315549, Control_c, 0, 64, 109
1, 315564, Control_c, 0, 64, 106
1, 315579, Control_c, 0, 64, 102
1, 315593, Control_c, 0, 64, 99
1, 315608, Control_c, 0, 64, 96
1, 315623, Control_c, 0, 64, 94
1, 315646, Control_c, 0, 64, 89
1, 315661, Control_c, 0, 64, 85
1, 315675, Control_c, 0, 64, 81
1, 315677, Note_on_c, 0, 33, 38
1, 315690, Control_c, 0, 64, 78
1, 315705, Control_c, 0, 64, 75
1, 315720, Control_c, 0, 64, 71
1, 315721, Note_off_c, 0, 33, 60
1, 315735, Control_c, 0, 64, 66
1, 315749, Control_c, 0, 64, 62
1, 315764, Control_c, 0, 64, 58
1, 315779, Control_c, 0, 64, 55
1, 315793, Control_c, 0, 64, 52
1, 315808, Control_c, 0, 64, 48
1, 315823, Control_c, 0, 64, 37
1, 315837, Note_on_c, 0, 64, 45
1, 315838, Control_c, 0, 64, 0
1, 315855, Note_on_c, 0, 61, 36
1, 316001, Note_on_c, 0, 40, 47
1, 316040, Note_off_c, 0, 40, 64
1, 316149, Note_on_c, 0, 62, 50
1, 316162, Note_on_c, 0, 59, 34
1, 316163, Note_off_c, 0, 61, 40
1, 316191, Note_off_c, 0, 64, 34
1, 316270, Note_on_c, 0, 45, 49
1, 316301, Note_off_c, 0, 45, 64
1, 316424, Note_on_c, 0, 61, 58
1, 316428, Note_off_c, 0, 62, 51
1, 316439, Note_off_c, 0, 59, 51
1, 316440, Note_on_c, 0, 57, 42
1, 316556, Note_on_c, 0, 52, 53
1, 316589, Note_off_c, 0, 52, 67
1, 316670, Note_off_c, 0, 61, 54
1, 316677, Note_on_c, 0, 62, 59
1, 316685, Note_on_c, 0, 59, 41
1, 316724, Note_off_c, 0, 57, 26
1, 316795, Note_on_c, 0, 45, 49
1, 316802, Note_on_c, 0, 57, 54
1, 316821, Note_off_c, 0, 45, 55
1, 316833, Note_off_c, 0, 57, 64
1, 316916, Note_on_c, 0, 64, 61
1, 316934, Note_on_c, 0, 61, 53
1, 316946, Note_off_c, 0, 62, 52
1, 316960, Note_off_c, 0, 59, 56
1, 317101, Note_on_c, 0, 76, 51
1, 317158, Control_c, 0, 64, 50
1, 317172, Control_c, 0, 64, 65
1, 317187, Control_c, 0, 64, 74
1, 317190, Note_off_c, 0, 64, 62
1, 317202, Control_c, 0, 64, 88
1, 317217, Control_c, 0, 64, 106
1, 317224, Note_off_c, 0, 61, 57
1, 317232, Control_c, 0, 64, 127
1, 317441, Note_on_c, 0, 81, 53
1, 317501, Note_off_c, 0, 76, 56
1, 317593, Note_on_c, 0, 67, 68
1, 317599, Note_on_c, 0, 64, 57
1, 317600, Note_on_c, 0, 61, 55
1, 317632, Control_c, 0, 64, 107
1, 317647, Control_c, 0, 64, 84
1, 317662, Control_c, 0, 64, 66
1, 317677, Control_c, 0, 64, 40
1, 317692, Control_c, 0, 64, 0
1, 317707, Control_c, 0, 64, 8
1, 317721, Control_c, 0, 64, 57
1, 317736, Control_c, 0, 64, 70
1, 317751, Control_c, 0, 64, 88
1, 317766, Control_c, 0, 64, 127
1, 317847, Note_off_c, 0, 81, 34
1, 317870, Note_on_c, 0, 69, 44
1, 317938, Note_off_c, 0, 69, 52
1, 318349, Note_on_c, 0, 34, 44
1, 318350, Note_on_c, 0, 46, 46
1, 318410, Control_c, 0, 64, 103
1, 318425, Control_c, 0, 64, 77
1, 318440, Control_c, 0, 64, 59
1, 318455, Control_c, 0, 64, 14
1, 318470, Control_c, 0, 64, 12
1, 318485, Control_c, 0, 64, 47
1, 318499, Control_c, 0, 64, 66
1, 318505, Note_on_c, 0, 58, 46
1, 318514, Control_c, 0, 64, 79
1, 318529, Control_c, 0, 64, 117
1, 318544, Control_c, 0, 64, 127
1, 318577, Note_off_c, 0, 46, 59
1, 318611, Note_off_c, 0, 34, 41
1, 318653, Note_off_c, 0, 58, 56
1, 318672, Note_on_c, 0, 45, 42
1, 318695, Note_on_c, 0, 33, 27
1, 318708, Note_off_c, 0, 45, 62
1, 318738, Note_off_c, 0, 33, 50
1, 318800, Note_on_c, 0, 57, 55
1, 318902, Note_on_c, 0, 43, 56
1, 318904, Note_off_c, 0, 57, 57
1, 318906, Note_on_c, 0, 31, 55
1, 319010, Control_c, 0, 64, 112
1, 319018, Note_off_c, 0, 31, 57
1, 319025, Control_c, 0, 64, 90
1, 319033, Note_off_c, 0, 43, 58
1, 319040, Control_c, 0, 64, 76
1, 319048, Note_on_c, 0, 55, 55
1, 319055, Control_c, 0, 64, 68
1, 319070, Control_c, 0, 64, 65
1, 319084, Control_c, 0, 64, 66
1, 319099, Control_c, 0, 64, 71
1, 319114, Control_c, 0, 64, 82
1, 319129, Control_c, 0, 64, 103
1, 319143, Control_c, 0, 64, 127
1, 319158, Note_on_c, 0, 45, 60
1, 319165, Note_on_c, 0, 33, 56
1, 319247, Note_off_c, 0, 55, 49
1, 319249, Note_off_c, 0, 33, 63
1, 319258, Note_off_c, 0, 45, 62
1, 319284, Note_on_c, 0, 57, 57
1, 319344, Note_off_c, 0, 57, 57
1, 319407, Note_on_c, 0, 46, 66
1, 319415, Note_on_c, 0, 34, 54
1, 319434, Control_c, 0, 64, 105
1, 319448, Control_c, 0, 64, 73
1, 319463, Control_c, 0, 64, 45
1, 319478, Control_c, 0, 64, 0
1, 319522, Control_c, 0, 64, 48
1, 319537, Control_c, 0, 64, 67
1, 319545, Note_off_c, 0, 46, 61
1, 319551, Note_on_c, 0, 58, 51
1, 319552, Control_c, 0, 64, 86
1, 319555, Note_off_c, 0, 34, 56
1, 319567, Control_c, 0, 64, 127
1, 319634, Note_off_c, 0, 67, 27
1, 319639, Note_off_c, 0, 61, 37
1, 319670, Note_on_c, 0, 43, 61
1, 319680, Note_on_c, 0, 31, 46
1, 319683, Note_off_c, 0, 64, 40
1, 319716, Note_off_c, 0, 31, 49
1, 319731, Note_off_c, 0, 43, 53
1, 319958, Note_on_c, 0, 45, 53
1, 319959, Note_on_c, 0, 38, 49
1, 320027, Control_c, 0, 64, 90
1, 320042, Control_c, 0, 64, 69
1, 320056, Control_c, 0, 64, 35
1, 320071, Control_c, 0, 64, 0
1, 320097, Note_on_c, 0, 57, 49
1, 320098, Note_on_c, 0, 66, 61
1, 320100, Note_off_c, 0, 45, 61
1, 320107, Note_on_c, 0, 62, 47
1, 320116, Control_c, 0, 64, 45
1, 320138, Control_c, 0, 64, 65
1, 320153, Control_c, 0, 64, 79
1, 320154, Note_off_c, 0, 58, 43
1, 320157, Note_off_c, 0, 38, 62
1, 320168, Control_c, 0, 64, 104
1, 320183, Control_c, 0, 64, 127
1, 320326, Note_on_c, 0, 26, 46
1, 320327, Note_on_c, 0, 38, 44
1, 320360, Note_off_c, 0, 62, 37
1, 320368, Note_off_c, 0, 66, 48
1, 320369, Note_off_c, 0, 26, 58
1, 320390, Note_off_c, 0, 38, 56
1, 320686, Control_c, 0, 64, 122
1, 320701, Control_c, 0, 64, 117
1, 320715, Control_c, 0, 64, 114
1, 320730, Control_c, 0, 64, 111
1, 320745, Control_c, 0, 64, 108
1, 320760, Control_c, 0, 64, 107
1, 320765, Note_on_c, 0, 31, 45
1, 320774, Control_c, 0, 64, 106
1, 320789, Control_c, 0, 64, 105
1, 320805, Control_c, 0, 64, 102
1, 320810, Note_off_c, 0, 31, 49
1, 320820, Control_c, 0, 64, 97
1, 320835, Control_c, 0, 64, 91
1, 320850, Control_c, 0, 64, 85
1, 320865, Control_c, 0, 64, 78
1, 320887, Control_c, 0, 64, 71
1, 320902, Control_c, 0, 64, 65
1, 320917, Control_c, 0, 64, 58
1, 320926, Note_on_c, 0, 62, 51
1, 320932, Control_c, 0, 64, 48
1, 320932, Note_on_c, 0, 59, 35
1, 320947, Control_c, 0, 64, 35
1, 320961, Control_c, 0, 64, 0
1, 320971, Note_off_c, 0, 57, 35
1, 321081, Note_on_c, 0, 38, 48
1, 321117, Note_off_c, 0, 38, 63
1, 321215, Note_on_c, 0, 60, 53
1, 321218, Note_on_c, 0, 57, 46
1, 321232, Note_off_c, 0, 62, 36
1, 321263, Note_off_c, 0, 59, 42
1, 321342, Note_on_c, 0, 43, 60
1, 321374, Note_off_c, 0, 43, 62
1, 321452, Note_off_c, 0, 60, 50
1, 321465, Note_on_c, 0, 59, 55
1, 321468, Note_on_c, 0, 55, 52
1, 321471, Note_off_c, 0, 57, 54
1, 321589, Note_on_c, 0, 50, 64
1, 321633, Note_off_c, 0, 50, 63
1, 321700, Note_off_c, 0, 59, 56
1, 321713, Note_off_c, 0, 55, 32
1, 321721, Note_on_c, 0, 57, 45
1, 321722, Note_on_c, 0, 60, 53
1, 321848, Note_on_c, 0, 55, 59
1, 321853, Note_on_c, 0, 43, 53
1, 321885, Note_off_c, 0, 55, 62
1, 321886, Note_off_c, 0, 43, 62
1, 321981, Note_on_c, 0, 62, 52
1, 321988, Note_on_c, 0, 59, 51
1, 322006, Note_off_c, 0, 57, 52
1, 322011, Note_off_c, 0, 60, 56
1, 322161, Note_on_c, 0, 74, 49
1, 322199, Control_c, 0, 64, 41
1, 322214, Control_c, 0, 64, 59
1, 322228, Control_c, 0, 64, 66
1, 322243, Control_c, 0, 64, 72
1, 322246, Note_off_c, 0, 62, 58
1, 322258, Control_c, 0, 64, 79
1, 322273, Control_c, 0, 64, 87
1, 322287, Control_c, 0, 64, 94
1, 322295, Note_off_c, 0, 59, 40
1, 322302, Control_c, 0, 64, 101
1, 322317, Control_c, 0, 64, 111
1, 322332, Control_c, 0, 64, 127
1, 322509, Note_on_c, 0, 79, 51
1, 322577, Note_off_c, 0, 74, 38
1, 322637, Control_c, 0, 64, 107
1, 322646, Note_on_c, 0, 65, 63
1, 322646, Note_on_c, 0, 62, 55
1, 322652, Control_c, 0, 64, 87
1, 322658, Note_on_c, 0, 59, 39
1, 322666, Control_c, 0, 64, 69
1, 322681, Control_c, 0, 64, 44
1, 322696, Control_c, 0, 64, 0
1, 322740, Control_c, 0, 64, 47
1, 322755, Control_c, 0, 64, 65
1, 322770, Control_c, 0, 64, 74
1, 322784, Control_c, 0, 64, 89
1, 322799, Control_c, 0, 64, 101
1, 322814, Control_c, 0, 64, 107
1, 322829, Control_c, 0, 64, 111
1, 322844, Control_c, 0, 64, 117
1, 322851, Note_on_c, 0, 67, 51
1, 322858, Control_c, 0, 64, 127
1, 322874, Note_off_c, 0, 79, 34
1, 322925, Note_off_c, 0, 67, 56
1, 323314, Note_on_c, 0, 44, 50
1, 323326, Note_on_c, 0, 32, 48
1, 323370, Control_c, 0, 64, 115
1, 323385, Control_c, 0, 64, 86
1, 323400, Control_c, 0, 64, 65
1, 323415, Control_c, 0, 64, 0
1, 323445, Control_c, 0, 64, 14
1, 323460, Control_c, 0, 64, 57
1, 323463, Note_on_c, 0, 56, 42
1, 323474, Control_c, 0, 64, 69
1, 323489, Control_c, 0, 64, 82
1, 323504, Control_c, 0, 64, 102
1, 323519, Control_c, 0, 64, 127
1, 323539, Note_off_c, 0, 44, 61
1, 323549, Note_off_c, 0, 32, 48
1, 323603, Note_off_c, 0, 56, 37
1, 323627, Note_on_c, 0, 43, 58
1, 323639, Note_on_c, 0, 31, 49
1, 323686, Note_off_c, 0, 43, 54
1, 323698, Note_off_c, 0, 31, 58
1, 323752, Note_on_c, 0, 55, 52
1, 323844, Control_c, 0, 64, 100
1, 323853, Note_on_c, 0, 29, 58
1, 323854, Note_on_c, 0, 41, 60
1, 323859, Control_c, 0, 64, 78
1, 323881, Control_c, 0, 64, 61
1, 323896, Control_c, 0, 64, 28
1, 323911, Control_c, 0, 64, 0
1, 323922, Note_off_c, 0, 55, 45
1, 323926, Control_c, 0, 64, 18
1, 323940, Control_c, 0, 64, 55
1, 323955, Control_c, 0, 64, 66
1, 323970, Control_c, 0, 64, 75
1, 323983, Note_on_c, 0, 53, 56
1, 323985, Control_c, 0, 64, 88
1, 323992, Note_off_c, 0, 29, 54
1, 324000, Control_c, 0, 64, 99
1, 324002, Note_off_c, 0, 41, 62
1, 324016, Control_c, 0, 64, 105
1, 324030, Control_c, 0, 64, 106
1, 324045, Control_c, 0, 64, 107
1, 324060, Control_c, 0, 64, 108
1, 324075, Control_c, 0, 64, 109
1, 324090, Control_c, 0, 64, 112
1, 324104, Control_c, 0, 64, 119
1, 324119, Control_c, 0, 64, 127
1, 324124, Note_on_c, 0, 43, 64
1, 324128, Note_on_c, 0, 31, 58
1, 324140, Note_off_c, 0, 53, 48
1, 324193, Note_off_c, 0, 31, 59
1, 324202, Note_off_c, 0, 43, 57
1, 324252, Note_on_c, 0, 55, 57
1, 324273, Note_off_c, 0, 59, 0
1, 324324, Note_off_c, 0, 55, 59
1, 324339, Poly_aftertouch_c, 0, 59, 0
1, 324362, Note_on_c, 0, 44, 63
1, 324368, Note_on_c, 0, 32, 54
1, 324371, Control_c, 0, 64, 100
1, 324386, Control_c, 0, 64, 77
1, 324401, Control_c, 0, 64, 50
1, 324416, Control_c, 0, 64, 0
1, 324460, Control_c, 0, 64, 33
1, 324475, Control_c, 0, 64, 62
1, 324486, Note_off_c, 0, 44, 62
1, 324490, Control_c, 0, 64, 75
1, 324495, Note_on_c, 0, 56, 52
1, 324504, Control_c, 0, 64, 100
1, 324509, Note_off_c, 0, 32, 55
1, 324519, Control_c, 0, 64, 127
1, 324572, Note_off_c, 0, 65, 34
1, 324622, Note_off_c, 0, 62, 40
1, 324639, Note_on_c, 0, 41, 56
1, 324640, Note_on_c, 0, 29, 54
1, 324679, Note_off_c, 0, 29, 52
1, 324686, Note_off_c, 0, 41, 58
1, 324930, Note_on_c, 0, 43, 55
1, 324938, Note_on_c, 0, 36, 53
1, 324972, Control_c, 0, 64, 104
1, 324986, Control_c, 0, 64, 78
1, 325001, Control_c, 0, 64, 59
1, 325014, Note_off_c, 0, 56, 33
1, 325016, Control_c, 0, 64, 0
1, 325059, Note_on_c, 0, 64, 55
1, 325072, Note_on_c, 0, 55, 40
1, 325075, Note_on_c, 0, 60, 43
1, 325090, Control_c, 0, 64, 37
1, 325097, Note_off_c, 0, 43, 60
1, 325105, Control_c, 0, 64, 64
1, 325120, Control_c, 0, 64, 77
1, 325135, Control_c, 0, 64, 101
1, 325141, Note_off_c, 0, 36, 61
1, 325150, Control_c, 0, 64, 127
1, 325269, Note_off_c, 0, 64, 56
1, 325293, Note_on_c, 0, 24, 53
1, 325296, Note_on_c, 0, 36, 43
1, 325335, Note_off_c, 0, 24, 61
1, 325344, Note_off_c, 0, 36, 60
1, 325431, Note_off_c, 0, 60, 33
1, 325746, Note_on_c, 0, 48, 45
1, 325746, Note_on_c, 0, 51, 48
1, 325780, Control_c, 0, 64, 117
1, 325795, Control_c, 0, 64, 101
1, 325809, Control_c, 0, 64, 83
1, 325824, Control_c, 0, 64, 68
1, 325839, Control_c, 0, 64, 44
1, 325854, Control_c, 0, 64, 0
1, 325895, Note_on_c, 0, 63, 59
1, 325904, Note_on_c, 0, 60, 50
1, 325914, Control_c, 0, 64, 37
1, 325928, Control_c, 0, 64, 62
1, 325943, Control_c, 0, 64, 72
1, 325958, Control_c, 0, 64, 84
1, 325973, Control_c, 0, 64, 97
1, 325988, Control_c, 0, 64, 101
1, 325989, Note_off_c, 0, 55, 36
1, 325991, Note_off_c, 0, 51, 58
1, 326002, Control_c, 0, 64, 102
1, 326017, Control_c, 0, 64, 103
1, 326032, Control_c, 0, 64, 105
1, 326047, Control_c, 0, 64, 109
1, 326056, Note_on_c, 0, 46, 50
1, 326062, Control_c, 0, 64, 113
1, 326072, Note_on_c, 0, 50, 37
1, 326077, Control_c, 0, 64, 117
1, 326092, Control_c, 0, 64, 119
1, 326104, Note_off_c, 0, 50, 52
1, 326107, Note_off_c, 0, 48, 37
1, 326128, Control_c, 0, 64, 121
1, 326142, Note_off_c, 0, 46, 60
1, 326143, Control_c, 0, 64, 122
1, 326158, Control_c, 0, 64, 124
1, 326205, Note_on_c, 0, 62, 69
1, 326208, Note_on_c, 0, 58, 60
1, 326217, Control_c, 0, 64, 127
1, 326238, Note_off_c, 0, 63, 37
1, 326260, Note_off_c, 0, 60, 46
1, 326327, Note_on_c, 0, 30, 57
1, 326339, Note_on_c, 0, 42, 52
1, 326351, Note_off_c, 0, 58, 36
1, 326351, Control_c, 0, 64, 109
1, 326366, Control_c, 0, 64, 86
1, 326381, Control_c, 0, 64, 66
1, 326396, Control_c, 0, 64, 16
1, 326411, Control_c, 0, 64, 0
1, 326442, Note_on_c, 0, 60, 64
1, 326449, Note_on_c, 0, 57, 56
1, 326451, Note_on_c, 0, 54, 56
1, 326455, Control_c, 0, 64, 52
1, 326470, Control_c, 0, 64, 67
1, 326478, Note_off_c, 0, 30, 60
1, 326485, Control_c, 0, 64, 81
1, 326493, Note_off_c, 0, 42, 61
1, 326494, Note_off_c, 0, 62, 46
1, 326500, Control_c, 0, 64, 124
1, 326515, Control_c, 0, 64, 127
1, 326523, Note_off_c, 0, 54, 48
1, 326542, Note_off_c, 0, 60, 58
1, 326602, Note_on_c, 0, 41, 56
1, 326604, Note_on_c, 0, 29, 50
1, 326629, Note_off_c, 0, 41, 59
1, 326638, Note_off_c, 0, 29, 57
1, 326704, Note_on_c, 0, 62, 65
1, 326709, Note_on_c, 0, 58, 59
1, 326715, Note_on_c, 0, 53, 54
1, 326738, Note_off_c, 0, 57, 57
1, 326760, Note_off_c, 0, 53, 61
1, 326771, Note_off_c, 0, 62, 59
1, 326828, Note_off_c, 0, 58, 37
1, 326834, Note_on_c, 0, 27, 57
1, 326836, Note_on_c, 0, 39, 53
1, 326922, Control_c, 0, 64, 112
1, 326937, Control_c, 0, 64, 82
1, 326951, Control_c, 0, 64, 61
1, 326960, Note_on_c, 0, 63, 66
1, 326961, Note_off_c, 0, 27, 64
1, 326966, Control_c, 0, 64, 0
1, 326973, Note_on_c, 0, 60, 55
1, 326976, Note_off_c, 0, 39, 61
1, 326978, Note_on_c, 0, 51, 53
1, 327011, Control_c, 0, 64, 43
1, 327025, Control_c, 0, 64, 65
1, 327040, Control_c, 0, 64, 79
1, 327055, Control_c, 0, 64, 112
1, 327070, Control_c, 0, 64, 127
1, 327093, Note_off_c, 0, 51, 36
1, 327123, Note_on_c, 0, 41, 54
1, 327127, Note_on_c, 0, 29, 45
1, 327161, Note_off_c, 0, 41, 63
1, 327163, Note_off_c, 0, 29, 56
1, 327203, Note_off_c, 0, 60, 32
1, 327212, Note_off_c, 0, 63, 49
1, 327248, Note_on_c, 0, 53, 56
1, 327390, Note_on_c, 0, 42, 53
1, 327397, Note_on_c, 0, 30, 45
1, 327455, Control_c, 0, 64, 97
1, 327470, Control_c, 0, 64, 73
1, 327485, Control_c, 0, 64, 52
1, 327499, Control_c, 0, 64, 0
1, 327505, Note_on_c, 0, 62, 65
1, 327514, Note_on_c, 0, 58, 52
1, 327520, Note_on_c, 0, 54, 47
1, 327525, Note_off_c, 0, 30, 55
1, 327541, Note_off_c, 0, 42, 61
1, 327544, Control_c, 0, 64, 48
1, 327559, Control_c, 0, 64, 65
1, 327564, Note_off_c, 0, 53, 44
1, 327573, Control_c, 0, 64, 77
1, 327588, Control_c, 0, 64, 100
1, 327603, Control_c, 0, 64, 127
1, 327661, Note_on_c, 0, 41, 51
1, 327674, Note_on_c, 0, 29, 16
1, 327692, Note_off_c, 0, 41, 59
1, 327718, Note_off_c, 0, 29, 38
1, 327804, Note_on_c, 0, 53, 48
1, 327845, Note_off_c, 0, 54, 38
1, 327872, Note_off_c, 0, 62, 35
1, 327910, Note_off_c, 0, 58, 37
1, 327971, Note_on_c, 0, 50, 43
1, 327979, Note_on_c, 0, 46, 44
1, 328041, Control_c, 0, 64, 91
1, 328056, Control_c, 0, 64, 70
1, 328071, Control_c, 0, 64, 49
1, 328084, Note_on_c, 0, 62, 62
1, 328086, Control_c, 0, 64, 0
1, 328093, Note_on_c, 0, 58, 49
1, 328130, Control_c, 0, 64, 39
1, 328145, Control_c, 0, 64, 61
1, 328158, Note_off_c, 0, 53, 41
1, 328160, Control_c, 0, 64, 72
1, 328161, Note_off_c, 0, 50, 55
1, 328169, Note_off_c, 0, 46, 47
1, 328175, Control_c, 0, 64, 90
1, 328189, Control_c, 0, 64, 127
1, 328229, Note_on_c, 0, 48, 47
1, 328240, Note_off_c, 0, 58, 57
1, 328243, Note_on_c, 0, 45, 43
1, 328261, Note_off_c, 0, 48, 63
1, 328282, Note_off_c, 0, 45, 63
1, 328332, Note_on_c, 0, 60, 67
1, 328339, Note_on_c, 0, 57, 60
1, 328393, Note_off_c, 0, 62, 35
1, 328399, Note_off_c, 0, 57, 49
1, 328472, Note_on_c, 0, 41, 58
1, 328478, Note_on_c, 0, 29, 52
1, 328522, Control_c, 0, 64, 111
1, 328537, Control_c, 0, 64, 81
1, 328552, Control_c, 0, 64, 61
1, 328567, Control_c, 0, 64, 0
1, 328574, Note_off_c, 0, 60, 52
1, 328581, Note_on_c, 0, 59, 63
1, 328585, Note_on_c, 0, 53, 60
1, 328587, Note_on_c, 0, 56, 60
1, 328587, Note_off_c, 0, 41, 52
1, 328608, Note_off_c, 0, 29, 61
1, 328611, Control_c, 0, 64, 41
1, 328626, Control_c, 0, 64, 63
1, 328629, Note_off_c, 0, 53, 59
1, 328641, Control_c, 0, 64, 75
1, 328656, Control_c, 0, 64, 96
1, 328670, Control_c, 0, 64, 127
1, 328736, Note_on_c, 0, 40, 47
1, 328738, Note_on_c, 0, 28, 48
1, 328794, Note_off_c, 0, 40, 57
1, 328814, Note_off_c, 0, 28, 57
1, 328849, Note_on_c, 0, 60, 70
1, 328858, Note_on_c, 0, 52, 63
1, 328873, Note_off_c, 0, 56, 22
1, 328888, Note_off_c, 0, 59, 59
1, 328894, Note_off_c, 0, 52, 66
1, 328911, Note_off_c, 0, 60, 60
1, 328995, Note_on_c, 0, 26, 49
1, 328995, Note_on_c, 0, 38, 49
1, 329071, Control_c, 0, 64, 108
1, 329086, Control_c, 0, 64, 78
1, 329100, Control_c, 0, 64, 61
1, 329105, Note_on_c, 0, 62, 65
1, 329110, Note_on_c, 0, 59, 56
1, 329123, Control_c, 0, 64, 0
1, 329129, Note_on_c, 0, 50, 50
1, 329132, Note_off_c, 0, 26, 56
1, 329144, Note_off_c, 0, 38, 61
1, 329167, Control_c, 0, 64, 28
1, 329182, Control_c, 0, 64, 61
1, 329197, Control_c, 0, 64, 72
1, 329212, Control_c, 0, 64, 87
1, 329226, Control_c, 0, 64, 110
1, 329237, Note_off_c, 0, 50, 37
1, 329241, Control_c, 0, 64, 127
1, 329311, Note_on_c, 0, 28, 48
1, 329317, Note_on_c, 0, 40, 45
1, 329361, Note_off_c, 0, 28, 55
1, 329377, Note_off_c, 0, 40, 57
1, 329443, Note_off_c, 0, 59, 58
1, 329443, Note_off_c, 0, 62, 47
1, 329451, Note_on_c, 0, 52, 45
1, 329578, Note_on_c, 0, 41, 49
1, 329579, Note_on_c, 0, 29, 47
1, 329612, Control_c, 0, 64, 111
1, 329627, Control_c, 0, 64, 86
1, 329642, Control_c, 0, 64, 67
1, 329657, Control_c, 0, 64, 28
1, 329672, Control_c, 0, 64, 0
1, 329692, Note_on_c, 0, 60, 60
1, 329696, Note_off_c, 0, 52, 34
1, 329698, Note_on_c, 0, 57, 49
1, 329702, Control_c, 0, 64, 26
1, 329702, Note_off_c, 0, 41, 62
1, 329706, Note_on_c, 0, 53, 44
1, 329716, Control_c, 0, 64, 55
1, 329719, Note_off_c, 0, 29, 55
1, 329731, Control_c, 0, 64, 65
1, 329746, Control_c, 0, 64, 76
1, 329761, Control_c, 0, 64, 89
1, 329775, Control_c, 0, 64, 103
1, 329790, Control_c, 0, 64, 113
1, 329805, Control_c, 0, 64, 119
1, 329820, Control_c, 0, 64, 127
1, 329832, Note_on_c, 0, 28, 46
1, 329841, Note_on_c, 0, 40, 42
1, 329875, Note_off_c, 0, 28, 45
1, 329882, Note_off_c, 0, 40, 51
1, 329905, Note_off_c, 0, 57, 51
1, 329930, Note_off_c, 0, 60, 33
1, 329960, Note_off_c, 0, 53, 41
1, 329964, Note_on_c, 0, 52, 58
1, 330099, Note_on_c, 0, 45, 48
1, 330101, Note_on_c, 0, 48, 51
1, 330153, Control_c, 0, 64, 108
1, 330167, Control_c, 0, 64, 83
1, 330182, Control_c, 0, 64, 63
1, 330197, Control_c, 0, 64, 0
1, 330217, Note_on_c, 0, 60, 63
1, 330228, Note_on_c, 0, 57, 48
1, 330254, Note_off_c, 0, 52, 31
1, 330316, Control_c, 0, 64, 49
1, 330331, Control_c, 0, 64, 61
1, 330346, Control_c, 0, 64, 67
1, 330357, Note_on_c, 0, 44, 41
1, 330360, Control_c, 0, 64, 72
1, 330363, Note_on_c, 0, 47, 46
1, 330368, Note_off_c, 0, 48, 25
1, 330375, Control_c, 0, 64, 75
1, 330387, Note_off_c, 0, 45, 37
1, 330390, Control_c, 0, 64, 77
1, 330401, Note_off_c, 0, 47, 63
1, 330405, Control_c, 0, 64, 78
1, 330420, Control_c, 0, 64, 79
1, 330421, Note_off_c, 0, 44, 61
1, 330435, Control_c, 0, 64, 80
1, 330450, Control_c, 0, 64, 82
1, 330465, Control_c, 0, 64, 86
1, 330480, Control_c, 0, 64, 92
1, 330488, Note_on_c, 0, 59, 59
1, 330490, Note_off_c, 0, 60, 52
1, 330495, Control_c, 0, 64, 98
1, 330499, Note_on_c, 0, 56, 51
1, 330509, Control_c, 0, 64, 105
1, 330521, Note_off_c, 0, 57, 44
1, 330524, Control_c, 0, 64, 112
1, 330539, Control_c, 0, 64, 127
1, 330629, Note_on_c, 0, 40, 45
1, 330633, Note_on_c, 0, 28, 47
1, 330665, Control_c, 0, 64, 98
1, 330679, Control_c, 0, 64, 73
1, 330694, Control_c, 0, 64, 54
1, 330709, Control_c, 0, 64, 29
1, 330724, Control_c, 0, 64, 45
1, 330730, Note_off_c, 0, 28, 60
1, 330730, Note_off_c, 0, 40, 60
1, 330739, Control_c, 0, 64, 59
1, 330754, Control_c, 0, 64, 67
1, 330763, Note_on_c, 0, 52, 49
1, 330769, Control_c, 0, 64, 77
1, 330784, Control_c, 0, 64, 96
1, 330798, Control_c, 0, 64, 127
1, 330822, Note_off_c, 0, 52, 57
1, 330885, Note_on_c, 0, 27, 39
1, 330891, Note_on_c, 0, 39, 44
1, 330921, Note_off_c, 0, 27, 56
1, 330929, Note_off_c, 0, 39, 62
1, 331036, Note_off_c, 0, 59, 55
1, 331049, Note_on_c, 0, 51, 53
1, 331056, Note_off_c, 0, 56, 55
1, 331107, Note_off_c, 0, 51, 55
1, 331192, Note_on_c, 0, 50, 48
1, 331195, Note_on_c, 0, 47, 48
1, 331302, Control_c, 0, 64, 112
1, 331317, Control_c, 0, 64, 84
1, 331332, Note_on_c, 0, 62, 57
1, 331332, Control_c, 0, 64, 64
1, 331343, Note_on_c, 0, 59, 49
1, 331347, Control_c, 0, 64, 0
1, 331415, Control_c, 0, 64, 35
1, 331429, Control_c, 0, 64, 60
1, 331432, Note_off_c, 0, 50, 59
1, 331444, Control_c, 0, 64, 69
1, 331459, Control_c, 0, 64, 78
1, 331473, Control_c, 0, 64, 90
1, 331480, Note_on_c, 0, 48, 47
1, 331488, Control_c, 0, 64, 93
1, 331489, Note_on_c, 0, 45, 41
1, 331503, Control_c, 0, 64, 94
1, 331508, Note_off_c, 0, 48, 59
1, 331527, Note_off_c, 0, 45, 56
1, 331529, Note_off_c, 0, 47, 39
1, 331533, Control_c, 0, 64, 95
1, 331547, Control_c, 0, 64, 98
1, 331562, Control_c, 0, 64, 103
1, 331577, Control_c, 0, 64, 110
1, 331584, Note_off_c, 0, 62, 50
1, 331586, Note_off_c, 0, 59, 32
1, 331589, Note_on_c, 0, 60, 61
1, 331592, Control_c, 0, 64, 115
1, 331599, Note_on_c, 0, 57, 50
1, 331607, Control_c, 0, 64, 122
1, 331621, Control_c, 0, 64, 127
1, 331711, Control_c, 0, 64, 105
1, 331722, Note_on_c, 0, 41, 49
1, 331726, Control_c, 0, 64, 78
1, 331740, Control_c, 0, 64, 60
1, 331748, Note_on_c, 0, 29, 22
1, 331755, Control_c, 0, 64, 14
1, 331770, Control_c, 0, 64, 34
1, 331785, Control_c, 0, 64, 55
1, 331800, Control_c, 0, 64, 65
1, 331814, Control_c, 0, 64, 75
1, 331829, Control_c, 0, 64, 93
1, 331830, Note_off_c, 0, 41, 59
1, 331844, Control_c, 0, 64, 127
1, 331852, Note_off_c, 0, 29, 54
1, 331874, Note_on_c, 0, 53, 52
1, 331943, Note_off_c, 0, 53, 59
1, 332011, Note_on_c, 0, 28, 38
1, 332015, Note_on_c, 0, 40, 43
1, 332050, Note_off_c, 0, 28, 43
1, 332060, Note_off_c, 0, 40, 59
1, 332158, Note_off_c, 0, 57, 53
1, 332188, Note_on_c, 0, 52, 53
1, 332218, Note_off_c, 0, 60, 31
1, 332306, Note_off_c, 0, 52, 37
1, 332333, Note_on_c, 0, 48, 43
1, 332357, Note_on_c, 0, 45, 34
1, 332400, Control_c, 0, 64, 98
1, 332415, Control_c, 0, 64, 77
1, 332430, Control_c, 0, 64, 54
1, 332444, Control_c, 0, 64, 0
1, 332480, Note_on_c, 0, 60, 53
1, 332486, Note_on_c, 0, 57, 46
1, 332563, Control_c, 0, 64, 38
1, 332578, Control_c, 0, 64, 60
1, 332593, Control_c, 0, 64, 68
1, 332608, Control_c, 0, 64, 76
1, 332623, Control_c, 0, 64, 81
1, 332638, Control_c, 0, 64, 83
1, 332638, Note_on_c, 0, 47, 44
1, 332641, Note_on_c, 0, 44, 36
1, 332653, Control_c, 0, 64, 85
1, 332664, Note_off_c, 0, 48, 41
1, 332668, Control_c, 0, 64, 89
1, 332680, Note_off_c, 0, 47, 59
1, 332683, Control_c, 0, 64, 92
1, 332697, Control_c, 0, 64, 95
1, 332702, Note_off_c, 0, 44, 59
1, 332707, Note_off_c, 0, 45, 38
1, 332712, Control_c, 0, 64, 97
1, 332727, Control_c, 0, 64, 99
1, 332742, Control_c, 0, 64, 102
1, 332757, Control_c, 0, 64, 106
1, 332771, Control_c, 0, 64, 111
1, 332772, Note_on_c, 0, 56, 44
1, 332775, Note_on_c, 0, 59, 51
1, 332787, Control_c, 0, 64, 118
1, 332797, Note_off_c, 0, 60, 34
1, 332801, Note_off_c, 0, 57, 38
1, 332802, Control_c, 0, 64, 127
1, 332961, Note_on_c, 0, 40, 40
1, 332965, Note_on_c, 0, 28, 38
1, 332972, Control_c, 0, 64, 93
1, 332987, Control_c, 0, 64, 73
1, 333002, Control_c, 0, 64, 52
1, 333016, Control_c, 0, 64, 30
1, 333031, Control_c, 0, 64, 36
1, 333046, Control_c, 0, 64, 52
1, 333061, Control_c, 0, 64, 63
1, 333076, Control_c, 0, 64, 70
1, 333091, Control_c, 0, 64, 82
1, 333106, Control_c, 0, 64, 96
1, 333120, Control_c, 0, 64, 110
1, 333124, Note_off_c, 0, 40, 41
1, 333125, Note_on_c, 0, 52, 45
1, 333125, Note_off_c, 0, 28, 52
1, 333135, Control_c, 0, 64, 120
1, 333150, Control_c, 0, 64, 127
1, 333227, Note_off_c, 0, 52, 61
1, 333318, Note_on_c, 0, 26, 41
1, 333323, Note_on_c, 0, 38, 39
1, 333386, Control_c, 0, 64, 96
1, 333401, Control_c, 0, 64, 76
1, 333416, Control_c, 0, 64, 62
1, 333431, Control_c, 0, 64, 45
1, 333445, Control_c, 0, 64, 50
1, 333460, Control_c, 0, 64, 61
1, 333475, Control_c, 0, 64, 69
1, 333490, Control_c, 0, 64, 81
1, 333495, Note_on_c, 0, 50, 45
1, 333504, Note_off_c, 0, 26, 55
1, 333505, Control_c, 0, 64, 98
1, 333519, Control_c, 0, 64, 127
1, 333561, Note_off_c, 0, 56, 60
1, 333562, Note_off_c, 0, 38, 49
1, 333916, Note_on_c, 0, 57, 55
1, 333926, Note_on_c, 0, 45, 37
1, 333930, Note_on_c, 0, 53, 41
1, 333935, Note_on_c, 0, 38, 42
1, 333957, Control_c, 0, 64, 109
1, 333972, Control_c, 0, 64, 95
1, 333987, Control_c, 0, 64, 83
1, 334002, Control_c, 0, 64, 71
1, 334010, Note_off_c, 0, 59, 60
1, 334016, Control_c, 0, 64, 61
1, 334031, Control_c, 0, 64, 37
1, 334046, Control_c, 0, 64, 0
1, 334135, Control_c, 0, 64, 54
1, 334149, Control_c, 0, 64, 64
1, 334164, Control_c, 0, 64, 70
1, 334179, Control_c, 0, 64, 74
1, 334194, Control_c, 0, 64, 77
1, 334209, Control_c, 0, 64, 80
1, 334224, Control_c, 0, 64, 85
1, 334239, Control_c, 0, 64, 91
1, 334253, Control_c, 0, 64, 98
1, 334268, Control_c, 0, 64, 104
1, 334283, Control_c, 0, 64, 108
1, 334298, Control_c, 0, 64, 111
1, 334313, Control_c, 0, 64, 116
1, 334328, Control_c, 0, 64, 127
1, 334345, Note_off_c, 0, 38, 34
1, 334417, Note_off_c, 0, 50, 38
1, 334432, Note_off_c, 0, 53, 40
1, 335248, Control_c, 0, 64, 120
1, 335252, Note_on_c, 0, 52, 42
1, 335259, Note_on_c, 0, 33, 35
1, 335262, Control_c, 0, 64, 116
1, 335266, Note_on_c, 0, 49, 31
1, 335277, Control_c, 0, 64, 114
1, 335292, Control_c, 0, 64, 112
1, 335307, Control_c, 0, 64, 109
1, 335321, Control_c, 0, 64, 103
1, 335336, Control_c, 0, 64, 94
1, 335351, Control_c, 0, 64, 83
1, 335366, Control_c, 0, 64, 71
1, 335381, Control_c, 0, 64, 57
1, 335395, Control_c, 0, 64, 30
1, 335410, Control_c, 0, 64, 0
1, 335440, Control_c, 0, 64, 38
1, 335455, Control_c, 0, 64, 54
1, 335470, Control_c, 0, 64, 62
1, 335485, Control_c, 0, 64, 66
1, 335500, Control_c, 0, 64, 72
1, 335514, Control_c, 0, 64, 78
1, 335529, Control_c, 0, 64, 84
1, 335544, Control_c, 0, 64, 86
1, 335559, Control_c, 0, 64, 87
1, 335574, Control_c, 0, 64, 88
1, 335588, Control_c, 0, 64, 89
1, 335603, Control_c, 0, 64, 90
1, 335618, Control_c, 0, 64, 92
1, 335633, Control_c, 0, 64, 92
1, 335693, Control_c, 0, 64, 93
1, 335826, Control_c, 0, 64, 92
1, 336501, Control_c, 0, 64, 92
1, 336585, Note_off_c, 0, 49, 18
1, 336692, Note_off_c, 0, 52, 31
1, 336805, Note_off_c, 0, 33, 40
1, 336856, Note_off_c, 0, 45, 38
1, 336859, Note_off_c, 0, 57, 39
1, 336909, Control_c, 0, 64, 91
1, 336939, Control_c, 0, 64, 91
1, 336968, Control_c, 0, 64, 90
1, 336998, Control_c, 0, 64, 90
1, 337028, Control_c, 0, 64, 89
1, 337042, Control_c, 0, 64, 89
1, 337072, Control_c, 0, 64, 88
1, 337086, Control_c, 0, 64, 88
1, 337101, Control_c, 0, 64, 87
1, 337116, Control_c, 0, 64, 87
1, 337131, Control_c, 0, 64, 86
1, 337146, Control_c, 0, 64, 85
1, 337160, Control_c, 0, 64, 85
1, 337175, Control_c, 0, 64, 84
1, 337190, Control_c, 0, 64, 83
1, 337205, Control_c, 0, 64, 82
1, 337220, Control_c, 0, 64, 80
1, 337234, Control_c, 0, 64, 78
1, 337249, Control_c, 0, 64, 76
1, 337264, Control_c, 0, 64, 74
1, 337279, Control_c, 0, 64, 72
1, 337294, Control_c, 0, 64, 69
1, 337309, Control_c, 0, 64, 66
1, 337324, Control_c, 0, 64, 62
1, 337339, Control_c, 0, 64, 56
1, 337360, Control_c, 0, 64, 50
1, 337375, Control_c, 0, 64, 45
1, 337390, Control_c, 0, 64, 42
1, 337405, Control_c, 0, 64, 39
1, 337420, Control_c, 0, 64, 32
1, 337434, Control_c, 0, 64, 10
1, 337449, Control_c, 0, 64, 0
1, 339124, Control_c, 0, 64, 8
1, 339139, Control_c, 0, 64, 11
1, 339169, Control_c, 0, 64, 12
1, 339184, Control_c, 0, 64, 13
1, 339199, Control_c, 0, 64, 15
1, 339214, Control_c, 0, 64, 16
1, 339229, Control_c, 0, 64, 17
1, 339244, Control_c, 0, 64, 18
1, 339318, Control_c, 0, 64, 18
1, 339333, Control_c, 0, 64, 19
1, 339348, Control_c, 0, 64, 20
1, 339378, Control_c, 0, 64, 20
1, 339393, Control_c, 0, 64, 21
1, 339407, Control_c, 0, 64, 22
1, 339422, Control_c, 0, 64, 23
1, 339467, Control_c, 0, 64, 23
1, 339481, Control_c, 0, 64, 24
1, 339496, Control_c, 0, 64, 25
1, 339511, Control_c, 0, 64, 26
1, 339541, Control_c, 0, 64, 27
1, 339555, Control_c, 0, 64, 27
1, 339637, Control_c, 0, 64, 28
1, 339652, Control_c, 0, 64, 28
1, 339711, Control_c, 0, 64, 29
1, 339726, Control_c, 0, 64, 30
1, 339741, Control_c, 0, 64, 31
1, 339785, Control_c, 0, 64, 31
1, 339800, Control_c, 0, 64, 32
1, 339814, Control_c, 0, 64, 33
1, 339829, Control_c, 0, 64, 34
1, 339844, Control_c, 0, 64, 35
1, 339859, Control_c, 0, 64, 36
1, 339874, Control_c, 0, 64, 37
1, 339881, Note_on_c, 0, 69, 48
1, 339884, Note_on_c, 0, 57, 41
1, 339888, Control_c, 0, 64, 38
1, 339903, Control_c, 0, 64, 41
1, 339905, Note_on_c, 0, 93, 44
1, 339910, Note_on_c, 0, 85, 35
1, 339918, Control_c, 0, 64, 45
1, 339933, Control_c, 0, 64, 51
1, 339948, Control_c, 0, 64, 58
1, 339962, Control_c, 0, 64, 62
1, 339978, Control_c, 0, 64, 65
1, 339993, Control_c, 0, 64, 69
1, 340008, Control_c, 0, 64, 74
1, 340023, Control_c, 0, 64, 81
1, 340034, Note_off_c, 0, 85, 0
1, 340038, Control_c, 0, 64, 89
1, 340052, Control_c, 0, 64, 98
1, 340067, Control_c, 0, 64, 105
1, 340071, Poly_aftertouch_c, 0, 85, 127
1, 340082, Control_c, 0, 64, 112
1, 340097, Control_c, 0, 64, 127
1, 340230, Note_off_c, 0, 57, 39
1, 340242, Poly_aftertouch_c, 0, 85, 0
1, 340244, Note_on_c, 0, 61, 31
1, 340245, Note_on_c, 0, 81, 32
1, 340307, Note_off_c, 0, 61, 38
1, 340519, Note_on_c, 0, 85, 37
1, 340528, Note_on_c, 0, 57, 39
1, 340543, Note_off_c, 0, 69, 41
1, 340543, Note_off_c, 0, 81, 35
1, 340603, Note_off_c, 0, 93, 39
1, 340744, Note_off_c, 0, 57, 31
1, 340788, Note_on_c, 0, 68, 45
1, 340797, Note_on_c, 0, 61, 42
1, 340798, Note_on_c, 0, 92, 51
1, 340806, Note_on_c, 0, 81, 44
1, 340806, Note_off_c, 0, 85, 41
1, 340921, Note_off_c, 0, 81, 29
1, 340934, Note_off_c, 0, 61, 0
1, 340946, Note_off_c, 0, 68, 41
1, 340997, Poly_aftertouch_c, 0, 61, 0
1, 341033, Note_off_c, 0, 92, 55
1, 341059, Note_on_c, 0, 66, 55
1, 341065, Note_on_c, 0, 57, 46
1, 341068, Control_c, 0, 64, 120
1, 341079, Note_on_c, 0, 85, 38
1, 341079, Note_on_c, 0, 90, 46
1, 341083, Control_c, 0, 64, 93
1, 341105, Control_c, 0, 64, 71
1, 341120, Control_c, 0, 64, 56
1, 341134, Control_c, 0, 64, 38
1, 341149, Control_c, 0, 64, 34
1, 341164, Control_c, 0, 64, 43
1, 341179, Control_c, 0, 64, 56
1, 341194, Control_c, 0, 64, 64
1, 341208, Control_c, 0, 64, 70
1, 341223, Control_c, 0, 64, 77
1, 341238, Control_c, 0, 64, 85
1, 341253, Control_c, 0, 64, 92
1, 341268, Control_c, 0, 64, 97
1, 341277, Note_off_c, 0, 57, 28
1, 341282, Control_c, 0, 64, 100
1, 341297, Control_c, 0, 64, 106
1, 341312, Note_on_c, 0, 68, 49
1, 341312, Note_off_c, 0, 66, 58
1, 341312, Control_c, 0, 64, 115
1, 341327, Control_c, 0, 64, 127
1, 341327, Note_on_c, 0, 61, 49
1, 341330, Note_on_c, 0, 92, 52
1, 341336, Note_on_c, 0, 81, 51
1, 341342, Note_off_c, 0, 85, 41
1, 341344, Note_off_c, 0, 90, 32
1, 341515, Note_off_c, 0, 81, 30
1, 341534, Note_off_c, 0, 61, 31
1, 341549, Control_c, 0, 64, 110
1, 341557, Note_off_c, 0, 68, 34
1, 341564, Control_c, 0, 64, 95
1, 341580, Control_c, 0, 64, 80
1, 341581, Note_off_c, 0, 92, 54
1, 341586, Note_on_c, 0, 66, 52
1, 341590, Note_on_c, 0, 85, 43
1, 341592, Note_on_c, 0, 57, 44
1, 341595, Control_c, 0, 64, 70
1, 341597, Note_on_c, 0, 90, 48
1, 341610, Control_c, 0, 64, 61
1, 341622, Control_c, 0, 64, 55
1, 341637, Control_c, 0, 64, 56
1, 341652, Control_c, 0, 64, 59
1, 341667, Control_c, 0, 64, 63
1, 341682, Control_c, 0, 64, 65
1, 341697, Control_c, 0, 64, 69
1, 341712, Control_c, 0, 64, 76
1, 341727, Control_c, 0, 64, 86
1, 341742, Control_c, 0, 64, 95
1, 341756, Control_c, 0, 64, 100
1, 341771, Control_c, 0, 64, 102
1, 341786, Control_c, 0, 64, 103
1, 341801, Control_c, 0, 64, 108
1, 341816, Note_off_c, 0, 90, 46
1, 341816, Control_c, 0, 64, 119
1, 341830, Control_c, 0, 64, 127
1, 341855, Note_off_c, 0, 85, 47
1, 341870, Note_on_c, 0, 81, 38
1, 341873, Note_on_c, 0, 61, 42
1, 341904, Note_off_c, 0, 66, 63
1, 341905, Note_off_c, 0, 61, 54
1, 341913, Note_off_c, 0, 57, 40
1, 342089, Control_c, 0, 64, 124
1, 342100, Note_off_c, 0, 81, 37
1, 342104, Control_c, 0, 64, 119
1, 342115, Note_on_c, 0, 88, 49
1, 342119, Control_c, 0, 64, 112
1, 342126, Note_on_c, 0, 64, 49
1, 342129, Note_on_c, 0, 83, 39
1, 342134, Control_c, 0, 64, 104
1, 342146, Note_on_c, 0, 56, 40
1, 342148, Control_c, 0, 64, 95
1, 342163, Control_c, 0, 64, 85
1, 342178, Control_c, 0, 64, 74
1, 342193, Control_c, 0, 64, 62
1, 342207, Control_c, 0, 64, 34
1, 342222, Control_c, 0, 64, 0
1, 342296, Control_c, 0, 64, 48
1, 342311, Control_c, 0, 64, 62
1, 342326, Control_c, 0, 64, 68
1, 342341, Control_c, 0, 64, 75
1, 342356, Control_c, 0, 64, 80
1, 342370, Note_off_c, 0, 83, 52
1, 342372, Control_c, 0, 64, 84
1, 342387, Note_on_c, 0, 59, 37
1, 342387, Control_c, 0, 64, 89
1, 342390, Note_on_c, 0, 80, 49
1, 342402, Control_c, 0, 64, 95
1, 342417, Control_c, 0, 64, 101
1, 342425, Note_off_c, 0, 56, 41
1, 342432, Control_c, 0, 64, 109
1, 342446, Control_c, 0, 64, 120
1, 342461, Control_c, 0, 64, 127
1, 342570, Note_off_c, 0, 64, 33
1, 342638, Note_on_c, 0, 54, 34
1, 342643, Note_on_c, 0, 81, 49
1, 342681, Note_off_c, 0, 80, 33
1, 342706, Note_off_c, 0, 59, 40
1, 342857, Note_off_c, 0, 81, 34
1, 342876, Note_on_c, 0, 87, 54
1, 342880, Note_on_c, 0, 63, 48
1, 342882, Note_on_c, 0, 57, 44
1, 342883, Note_on_c, 0, 78, 44
1, 342884, Note_off_c, 0, 88, 35
1, 342906, Note_off_c, 0, 54, 36
1, 342939, Note_off_c, 0, 57, 57
1, 342974, Note_off_c, 0, 63, 37
1, 343046, Note_off_c, 0, 78, 36
1, 343105, Control_c, 0, 64, 116
1, 343120, Control_c, 0, 64, 102
1, 343132, Note_off_c, 0, 87, 38
1, 343135, Control_c, 0, 64, 85
1, 343150, Note_on_c, 0, 52, 52
1, 343150, Control_c, 0, 64, 69
1, 343154, Note_on_c, 0, 64, 47
1, 343154, Note_on_c, 0, 88, 49
1, 343163, Note_on_c, 0, 80, 40
1, 343165, Control_c, 0, 64, 53
1, 343181, Control_c, 0, 64, 0
1, 343225, Control_c, 0, 64, 25
1, 343240, Control_c, 0, 64, 50
1, 343254, Control_c, 0, 64, 61
1, 343269, Control_c, 0, 64, 68
1, 343284, Control_c, 0, 64, 79
1, 343299, Control_c, 0, 64, 92
1, 343314, Control_c, 0, 64, 103
1, 343328, Control_c, 0, 64, 112
1, 343351, Control_c, 0, 64, 121
1, 343366, Control_c, 0, 64, 127
1, 343375, Note_off_c, 0, 88, 31
1, 343427, Note_on_c, 0, 83, 49
1, 343429, Note_off_c, 0, 52, 42
1, 343433, Note_on_c, 0, 56, 41
1, 343436, Note_on_c, 0, 59, 41
1, 343446, Note_on_c, 0, 76, 29
1, 343446, Note_off_c, 0, 80, 42
1, 343456, Note_off_c, 0, 64, 43
1, 343485, Note_off_c, 0, 76, 51
1, 343672, Note_on_c, 0, 85, 52
1, 343676, Note_on_c, 0, 61, 47
1, 343679, Note_on_c, 0, 80, 46
1, 343681, Note_on_c, 0, 52, 38
1, 343689, Note_off_c, 0, 56, 36
1, 343715, Note_off_c, 0, 83, 36
1, 343718, Note_off_c, 0, 59, 39
1, 343721, Note_off_c, 0, 52, 48
1, 343734, Note_off_c, 0, 80, 55
1, 343743, Note_off_c, 0, 61, 53
1, 343917, Note_off_c, 0, 85, 38
1, 343923, Note_on_c, 0, 86, 57
1, 343930, Note_on_c, 0, 56, 49
1, 343941, Note_on_c, 0, 62, 51
1, 343962, Note_on_c, 0, 76, 7
1, 343977, Note_off_c, 0, 56, 58
1, 343977, Note_off_c, 0, 62, 63
1, 344007, Note_off_c, 0, 86, 61
1, 344014, Note_off_c, 0, 76, 35
1, 344262, Note_on_c, 0, 69, 58
1, 344266, Note_on_c, 0, 57, 50
1, 344269, Note_on_c, 0, 93, 60
1, 344278, Note_on_c, 0, 85, 45
1, 344306, Control_c, 0, 64, 114
1, 344321, Control_c, 0, 64, 87
1, 344336, Control_c, 0, 64, 66
1, 344350, Control_c, 0, 64, 41
1, 344365, Control_c, 0, 64, 0
1, 344454, Control_c, 0, 64, 50
1, 344469, Control_c, 0, 64, 65
1, 344484, Control_c, 0, 64, 75
1, 344499, Control_c, 0, 64, 87
1, 344514, Control_c, 0, 64, 96
1, 344529, Control_c, 0, 64, 104
1, 344543, Control_c, 0, 64, 124
1, 344558, Control_c, 0, 64, 127
1, 344561, Note_on_c, 0, 61, 40
1, 344574, Note_on_c, 0, 81, 35
1, 344592, Note_off_c, 0, 85, 41
1, 344600, Note_off_c, 0, 57, 37
1, 344636, Note_off_c, 0, 61, 46
1, 344804, Note_on_c, 0, 85, 47
1, 344805, Note_on_c, 0, 57, 44
1, 344821, Note_off_c, 0, 81, 36
1, 344848, Note_off_c, 0, 69, 36
1, 345026, Note_off_c, 0, 57, 26
1, 345051, Note_off_c, 0, 85, 52
1, 345059, Note_on_c, 0, 68, 56
1, 345068, Note_on_c, 0, 61, 53
1, 345068, Note_on_c, 0, 92, 49
1, 345101, Note_on_c, 0, 81, 27
1, 345122, Note_off_c, 0, 93, 25
1, 345207, Note_off_c, 0, 81, 26
1, 345289, Note_off_c, 0, 61, 47
1, 345289, Note_off_c, 0, 68, 47
1, 345293, Note_off_c, 0, 92, 56
1, 345304, Note_on_c, 0, 66, 57
1, 345309, Note_on_c, 0, 57, 52
1, 345315, Note_on_c, 0, 90, 55
1, 345316, Note_on_c, 0, 85, 41
1, 345322, Control_c, 0, 64, 115
1, 345336, Control_c, 0, 64, 98
1, 345351, Control_c, 0, 64, 82
1, 345366, Control_c, 0, 64, 69
1, 345381, Control_c, 0, 64, 54
1, 345396, Control_c, 0, 64, 0
1, 345486, Control_c, 0, 64, 22
1, 345500, Control_c, 0, 64, 53
1, 345515, Control_c, 0, 64, 64
1, 345530, Control_c, 0, 64, 68
1, 345540, Note_off_c, 0, 57, 26
1, 345545, Control_c, 0, 64, 73
1, 345554, Note_on_c, 0, 68, 50
1, 345560, Control_c, 0, 64, 77
1, 345563, Note_on_c, 0, 61, 48
1, 345572, Note_on_c, 0, 92, 51
1, 345575, Control_c, 0, 64, 84
1, 345579, Note_off_c, 0, 66, 52
1, 345580, Note_off_c, 0, 85, 41
1, 345580, Note_off_c, 0, 90, 35
1, 345584, Note_on_c, 0, 81, 44
1, 345597, Control_c, 0, 64, 92
1, 345612, Control_c, 0, 64, 99
1, 345627, Control_c, 0, 64, 108
1, 345642, Control_c, 0, 64, 127
1, 345811, Note_off_c, 0, 61, 29
1, 345831, Note_off_c, 0, 68, 36
1, 345831, Note_on_c, 0, 66, 53
1, 345851, Note_off_c, 0, 81, 39
1, 345854, Note_on_c, 0, 57, 36
1, 345856, Note_on_c, 0, 85, 37
1, 345862, Note_on_c, 0, 90, 45
1, 345864, Control_c, 0, 64, 121
1, 345879, Control_c, 0, 64, 103
1, 345882, Note_off_c, 0, 92, 37
1, 345894, Control_c, 0, 64, 86
1, 345909, Control_c, 0, 64, 70
1, 345923, Control_c, 0, 64, 55
1, 345938, Control_c, 0, 64, 25
1, 345953, Control_c, 0, 64, 0
1, 345968, Control_c, 0, 64, 36
1, 345983, Control_c, 0, 64, 55
1, 345997, Control_c, 0, 64, 64
1, 346012, Control_c, 0, 64, 72
1, 346027, Control_c, 0, 64, 83
1, 346041, Control_c, 0, 64, 99
1, 346056, Control_c, 0, 64, 127
1, 346080, Note_off_c, 0, 90, 52
1, 346106, Note_on_c, 0, 81, 47
1, 346109, Note_on_c, 0, 61, 36
1, 346126, Note_off_c, 0, 85, 42
1, 346143, Note_off_c, 0, 66, 63
1, 346150, Note_off_c, 0, 61, 50
1, 346160, Note_off_c, 0, 57, 39
1, 346338, Control_c, 0, 64, 124
1, 346338, Note_on_c, 0, 64, 54
1, 346356, Note_off_c, 0, 81, 35
1, 346358, Note_on_c, 0, 88, 51
1, 346360, Control_c, 0, 64, 92
1, 346361, Note_on_c, 0, 56, 47
1, 346371, Note_on_c, 0, 83, 35
1, 346376, Control_c, 0, 64, 74
1, 346391, Control_c, 0, 64, 61
1, 346406, Control_c, 0, 64, 43
1, 346420, Control_c, 0, 64, 29
1, 346435, Control_c, 0, 64, 28
1, 346450, Control_c, 0, 64, 42
1, 346465, Control_c, 0, 64, 55
1, 346479, Control_c, 0, 64, 64
1, 346494, Control_c, 0, 64, 70
1, 346509, Control_c, 0, 64, 78
1, 346524, Control_c, 0, 64, 87
1, 346539, Control_c, 0, 64, 95
1, 346553, Control_c, 0, 64, 101
1, 346568, Control_c, 0, 64, 107
1, 346583, Control_c, 0, 64, 118
1, 346598, Control_c, 0, 64, 127
1, 346633, Note_on_c, 0, 80, 49
1, 346633, Note_off_c, 0, 83, 43
1, 346638, Note_on_c, 0, 59, 31
1, 346670, Note_off_c, 0, 56, 39
1, 346784, Note_off_c, 0, 64, 36
1, 346861, Note_on_c, 0, 81, 46
1, 346869, Note_on_c, 0, 54, 43
1, 346903, Note_off_c, 0, 80, 34
1, 346905, Note_off_c, 0, 59, 40
1, 347110, Note_off_c, 0, 88, 46
1, 347117, Note_on_c, 0, 57, 47
1, 347118, Note_on_c, 0, 63, 44
1, 347121, Note_off_c, 0, 54, 37
1, 347125, Note_on_c, 0, 87, 54
1, 347139, Note_on_c, 0, 78, 45
1, 347147, Note_off_c, 0, 81, 34
1, 347185, Note_off_c, 0, 57, 58
1, 347197, Note_off_c, 0, 63, 52
1, 347252, Note_off_c, 0, 78, 36
1, 347376, Control_c, 0, 64, 112
1, 347390, Note_off_c, 0, 87, 25
1, 347391, Control_c, 0, 64, 89
1, 347402, Note_on_c, 0, 64, 46
1, 347403, Note_on_c, 0, 88, 53
1, 347404, Note_on_c, 0, 52, 45
1, 347406, Control_c, 0, 64, 71
1, 347420, Note_on_c, 0, 80, 42
1, 347421, Control_c, 0, 64, 55
1, 347436, Control_c, 0, 64, 0
1, 347495, Control_c, 0, 64, 50
1, 347510, Control_c, 0, 64, 63
1, 347525, Control_c, 0, 64, 73
1, 347540, Control_c, 0, 64, 87
1, 347555, Control_c, 0, 64, 105
1, 347569, Control_c, 0, 64, 127
1, 347632, Note_off_c, 0, 88, 33
1, 347647, Note_off_c, 0, 52, 42
1, 347653, Note_off_c, 0, 64, 41
1, 347668, Note_off_c, 0, 80, 30
1, 347692, Note_on_c, 0, 83, 49
1, 347695, Note_on_c, 0, 56, 36
1, 347697, Note_on_c, 0, 59, 35
1, 347706, Note_on_c, 0, 76, 35
1, 347748, Note_off_c, 0, 76, 48
1, 347902, Note_off_c, 0, 59, 34
1, 347933, Note_off_c, 0, 56, 33
1, 347934, Note_on_c, 0, 61, 45
1, 347939, Note_on_c, 0, 52, 36
1, 347942, Note_on_c, 0, 85, 57
1, 347950, Note_on_c, 0, 80, 51
1, 347957, Note_off_c, 0, 83, 52
1, 347978, Note_off_c, 0, 52, 50
1, 348004, Note_off_c, 0, 80, 54
1, 348023, Note_off_c, 0, 61, 59
1, 348197, Note_on_c, 0, 56, 46
1, 348198, Note_on_c, 0, 86, 62
1, 348208, Note_off_c, 0, 85, 52
1, 348209, Note_on_c, 0, 76, 41
1, 348214, Note_on_c, 0, 62, 43
1, 348237, Note_off_c, 0, 76, 56
1, 348243, Note_off_c, 0, 56, 55
1, 348252, Note_off_c, 0, 62, 48
1, 348275, Note_off_c, 0, 86, 62
1, 348573, Note_on_c, 0, 69, 48
1, 348573, Note_on_c, 0, 93, 75
1, 348577, Note_on_c, 0, 85, 57
1, 348581, Note_on_c, 0, 57, 44
1, 348607, Control_c, 0, 64, 110
1, 348621, Control_c, 0, 64, 97
1, 348636, Control_c, 0, 64, 82
1, 348651, Control_c, 0, 64, 70
1, 348666, Control_c, 0, 64, 55
1, 348681, Control_c, 0, 64, 0
1, 348740, Control_c, 0, 64, 39
1, 348755, Control_c, 0, 64, 62
1, 348770, Control_c, 0, 64, 71
1, 348785, Control_c, 0, 64, 83
1, 348800, Control_c, 0, 64, 101
1, 348815, Control_c, 0, 64, 118
1, 348830, Control_c, 0, 64, 127
1, 348888, Note_on_c, 0, 61, 30
1, 348920, Note_on_c, 0, 81, 36
1, 348932, Note_off_c, 0, 57, 37
1, 349060, Note_off_c, 0, 61, 35
1, 349119, Note_off_c, 0, 69, 40
1, 349129, Note_on_c, 0, 57, 32
1, 349131, Note_on_c, 0, 88, 46
1, 349142, Note_off_c, 0, 93, 56
1, 349174, Note_off_c, 0, 85, 39
1, 349195, Note_off_c, 0, 81, 38
1, 349293, Note_off_c, 0, 57, 45
1, 349367, Note_on_c, 0, 92, 71
1, 349370, Note_on_c, 0, 68, 50
1, 349376, Note_on_c, 0, 81, 58
1, 349385, Note_on_c, 0, 64, 27
1, 349391, Note_off_c, 0, 88, 51
1, 349426, Note_off_c, 0, 64, 48
1, 349448, Note_off_c, 0, 81, 51
1, 349541, Note_off_c, 0, 68, 37
1, 349609, Control_c, 0, 64, 115
1, 349624, Control_c, 0, 64, 105
1, 349627, Note_on_c, 0, 66, 54
1, 349635, Note_on_c, 0, 90, 75
1, 349638, Control_c, 0, 64, 94
1, 349642, Note_on_c, 0, 57, 45
1, 349646, Note_on_c, 0, 86, 56
1, 349653, Control_c, 0, 64, 79
1, 349668, Control_c, 0, 64, 65
1, 349683, Control_c, 0, 64, 29
1, 349698, Control_c, 0, 64, 0
1, 349703, Note_off_c, 0, 92, 52
1, 349742, Control_c, 0, 64, 51
1, 349757, Control_c, 0, 64, 65
1, 349772, Control_c, 0, 64, 78
1, 349780, Note_off_c, 0, 57, 33
1, 349787, Control_c, 0, 64, 97
1, 349802, Control_c, 0, 64, 127
1, 349832, Note_off_c, 0, 86, 55
1, 349873, Note_on_c, 0, 68, 47
1, 349873, Note_off_c, 0, 66, 0
1, 349875, Note_on_c, 0, 92, 75
1, 349880, Note_on_c, 0, 81, 55
1, 349887, Note_on_c, 0, 62, 42
1, 349911, Poly_aftertouch_c, 0, 66, 0
1, 349912, Note_off_c, 0, 90, 56
1, 349942, Note_off_c, 0, 81, 54
1, 349967, Note_off_c, 0, 68, 58
1, 350043, Note_off_c, 0, 62, 28
1, 350130, Note_on_c, 0, 66, 51
1, 350135, Control_c, 0, 64, 118
1, 350136, Note_on_c, 0, 90, 77
1, 350142, Note_on_c, 0, 57, 44
1, 350149, Note_on_c, 0, 85, 55
1, 350150, Control_c, 0, 64, 98
1, 350164, Control_c, 0, 64, 78
1, 350179, Control_c, 0, 64, 65
1, 350194, Control_c, 0, 64, 48
1, 350209, Control_c, 0, 64, 19
1, 350223, Control_c, 0, 64, 0
1, 350238, Control_c, 0, 64, 31
1, 350253, Control_c, 0, 64, 57
1, 350268, Control_c, 0, 64, 67
1, 350283, Control_c, 0, 64, 80
1, 350297, Control_c, 0, 64, 109
1, 350312, Control_c, 0, 64, 127
1, 350336, Note_off_c, 0, 92, 29
1, 350393, Note_off_c, 0, 85, 59
1, 350394, Note_on_c, 0, 81, 52
1, 350404, Note_on_c, 0, 61, 40
1, 350413, Note_off_c, 0, 90, 61
1, 350432, Note_off_c, 0, 66, 62
1, 350442, Note_off_c, 0, 61, 59
1, 350444, Note_off_c, 0, 57, 37
1, 350669, Note_on_c, 0, 88, 65
1, 350673, Note_off_c, 0, 81, 24
1, 350675, Note_on_c, 0, 64, 44
1, 350676, Note_on_c, 0, 83, 54
1, 350685, Note_on_c, 0, 56, 41
1, 350713, Control_c, 0, 64, 101
1, 350728, Control_c, 0, 64, 77
1, 350743, Control_c, 0, 64, 62
1, 350758, Control_c, 0, 64, 37
1, 350773, Control_c, 0, 64, 0
1, 350817, Control_c, 0, 64, 18
1, 350832, Control_c, 0, 64, 56
1, 350854, Control_c, 0, 64, 67
1, 350869, Control_c, 0, 64, 79
1, 350884, Control_c, 0, 64, 101
1, 350899, Control_c, 0, 64, 127
1, 350940, Note_on_c, 0, 59, 34
1, 350944, Note_off_c, 0, 83, 60
1, 350960, Note_on_c, 0, 80, 46
1, 350988, Note_off_c, 0, 56, 41
1, 351065, Note_off_c, 0, 64, 54
1, 351170, Note_on_c, 0, 81, 58
1, 351173, Note_on_c, 0, 54, 35
1, 351190, Note_off_c, 0, 80, 41
1, 351199, Note_off_c, 0, 59, 40
1, 351405, Note_on_c, 0, 87, 69
1, 351411, Note_on_c, 0, 57, 40
1, 351413, Note_off_c, 0, 54, 38
1, 351419, Note_off_c, 0, 81, 57
1, 351423, Note_on_c, 0, 63, 39
1, 351423, Note_on_c, 0, 78, 49
1, 351467, Note_off_c, 0, 57, 58
1, 351475, Note_off_c, 0, 88, 55
1, 351479, Note_off_c, 0, 63, 48
1, 351483, Note_off_c, 0, 78, 50
1, 351692, Control_c, 0, 64, 101
1, 351698, Note_on_c, 0, 88, 70
1, 351703, Note_on_c, 0, 52, 45
1, 351707, Control_c, 0, 64, 77
1, 351709, Note_on_c, 0, 64, 40
1, 351715, Note_on_c, 0, 80, 54
1, 351722, Control_c, 0, 64, 60
1, 351736, Control_c, 0, 64, 0
1, 351760, Note_off_c, 0, 87, 34
1, 351795, Control_c, 0, 64, 50
1, 351810, Control_c, 0, 64, 68
1, 351825, Control_c, 0, 64, 88
1, 351840, Control_c, 0, 64, 127
1, 351910, Note_off_c, 0, 52, 17
1, 351913, Note_off_c, 0, 80, 44
1, 351958, Note_off_c, 0, 64, 40
1, 351960, Note_on_c, 0, 59, 40
1, 351963, Note_on_c, 0, 83, 64
1, 351966, Note_on_c, 0, 56, 37
1, 351974, Note_on_c, 0, 76, 48
1, 352006, Note_off_c, 0, 76, 53
1, 352045, Note_off_c, 0, 88, 46
1, 352190, Note_on_c, 0, 52, 38
1, 352202, Note_on_c, 0, 61, 41
1, 352202, Note_off_c, 0, 56, 32
1, 352204, Note_on_c, 0, 85, 66
1, 352218, Note_on_c, 0, 80, 49
1, 352222, Note_off_c, 0, 59, 30
1, 352246, Note_off_c, 0, 52, 44
1, 352249, Note_off_c, 0, 83, 58
1, 352252, Note_off_c, 0, 80, 60
1, 352273, Note_off_c, 0, 61, 58
1, 352470, Note_on_c, 0, 86, 69
1, 352482, Note_on_c, 0, 56, 44
1, 352485, Note_on_c, 0, 76, 45
1, 352505, Note_on_c, 0, 62, 33
1, 352509, Note_off_c, 0, 76, 61
1, 352512, Note_off_c, 0, 85, 58
1, 352516, Note_off_c, 0, 56, 57
1, 352539, Note_off_c, 0, 62, 46
1, 352560, Note_off_c, 0, 86, 62
1, 352783, Note_on_c, 0, 93, 78
1, 352788, Note_on_c, 0, 69, 49
1, 352792, Note_on_c, 0, 85, 61
1, 352796, Note_on_c, 0, 57, 44
1, 352812, Control_c, 0, 64, 96
1, 352827, Control_c, 0, 64, 73
1, 352841, Control_c, 0, 64, 53
1, 352856, Control_c, 0, 64, 0
1, 352930, Control_c, 0, 64, 47
1, 352945, Control_c, 0, 64, 64
1, 352960, Control_c, 0, 64, 74
1, 352975, Control_c, 0, 64, 90
1, 352989, Control_c, 0, 64, 127
1, 353057, Note_on_c, 0, 61, 30
1, 353098, Note_off_c, 0, 57, 35
1, 353102, Note_on_c, 0, 81, 41
1, 353203, Note_off_c, 0, 61, 30
1, 353239, Note_off_c, 0, 85, 31
1, 353285, Note_off_c, 0, 69, 32
1, 353304, Note_off_c, 0, 81, 33
1, 353304, Note_on_c, 0, 57, 36
1, 353315, Note_on_c, 0, 88, 58
1, 353326, Note_off_c, 0, 93, 53
1, 353510, Note_off_c, 0, 57, 34
1, 353546, Note_on_c, 0, 64, 43
1, 353549, Note_on_c, 0, 92, 77
1, 353551, Note_on_c, 0, 68, 43
1, 353566, Note_on_c, 0, 81, 57
1, 353582, Note_off_c, 0, 88, 54
1, 353609, Note_off_c, 0, 64, 58
1, 353647, Note_off_c, 0, 81, 51
1, 353769, Note_off_c, 0, 68, 32
1, 353782, Control_c, 0, 64, 87
1, 353790, Note_on_c, 0, 90, 72
1, 353791, Note_on_c, 0, 66, 53
1, 353797, Control_c, 0, 64, 68
1, 353799, Note_on_c, 0, 86, 59
1, 353802, Note_on_c, 0, 57, 44
1, 353812, Control_c, 0, 64, 47
1, 353835, Control_c, 0, 64, 0
1, 353877, Note_off_c, 0, 92, 57
1, 353879, Control_c, 0, 64, 35
1, 353894, Control_c, 0, 64, 60
1, 353909, Control_c, 0, 64, 71
1, 353924, Control_c, 0, 64, 87
1, 353938, Control_c, 0, 64, 127
1, 353952, Note_off_c, 0, 57, 32
1, 354029, Note_off_c, 0, 86, 57
1, 354035, Note_off_c, 0, 66, 0
1, 354045, Note_on_c, 0, 68, 44
1, 354048, Note_on_c, 0, 92, 79
1, 354050, Note_on_c, 0, 62, 44
1, 354054, Note_on_c, 0, 81, 55
1, 354082, Poly_aftertouch_c, 0, 66, 0
1, 354091, Note_off_c, 0, 90, 58
1, 354103, Note_off_c, 0, 81, 47
1, 354146, Note_off_c, 0, 68, 53
1, 354178, Note_off_c, 0, 62, 0
1, 354235, Poly_aftertouch_c, 0, 62, 0
1, 354300, Note_on_c, 0, 90, 73
1, 354300, Note_on_c, 0, 66, 49
1, 354306, Note_on_c, 0, 85, 56
1, 354309, Note_on_c, 0, 57, 44
1, 354324, Control_c, 0, 64, 97
1, 354338, Control_c, 0, 64, 75
1, 354352, Control_c, 0, 64, 52
1, 354367, Control_c, 0, 64, 0
1, 354426, Control_c, 0, 64, 49
1, 354441, Control_c, 0, 64, 65
1, 354456, Control_c, 0, 64, 77
1, 354458, Note_off_c, 0, 92, 36
1, 354471, Control_c, 0, 64, 93
1, 354485, Control_c, 0, 64, 108
1, 354500, Control_c, 0, 64, 127
1, 354566, Note_on_c, 0, 81, 47
1, 354583, Note_off_c, 0, 85, 61
1, 354586, Note_on_c, 0, 61, 36
1, 354589, Note_off_c, 0, 90, 63
1, 354610, Note_off_c, 0, 57, 37
1, 354615, Note_off_c, 0, 66, 62
1, 354621, Note_off_c, 0, 61, 54
1, 354834, Note_on_c, 0, 88, 65
1, 354843, Note_on_c, 0, 64, 45
1, 354845, Note_on_c, 0, 83, 57
1, 354850, Note_on_c, 0, 56, 40
1, 354875, Note_off_c, 0, 81, 34
1, 354878, Control_c, 0, 64, 95
1, 354893, Control_c, 0, 64, 75
1, 354908, Control_c, 0, 64, 59
1, 354923, Control_c, 0, 64, 0
1, 355011, Control_c, 0, 64, 54
1, 355026, Control_c, 0, 64, 70
1, 355041, Control_c, 0, 64, 82
1, 355056, Control_c, 0, 64, 96
1, 355071, Control_c, 0, 64, 103
1, 355085, Control_c, 0, 64, 109
1, 355093, Note_off_c, 0, 83, 60
1, 355101, Control_c, 0, 64, 122
1, 355108, Note_on_c, 0, 80, 52
1, 355109, Note_on_c, 0, 59, 34
1, 355116, Control_c, 0, 64, 127
1, 355164, Note_off_c, 0, 56, 39
1, 355258, Note_off_c, 0, 64, 36
1, 355351, Note_on_c, 0, 81, 44
1, 355355, Note_on_c, 0, 54, 35
1, 355364, Note_off_c, 0, 59, 40
1, 355405, Note_off_c, 0, 80, 32
1, 355591, Note_on_c, 0, 57, 44
1, 355592, Note_on_c, 0, 87, 65
1, 355596, Note_on_c, 0, 63, 43
1, 355605, Note_on_c, 0, 78, 46
1, 355615, Note_off_c, 0, 54, 37
1, 355622, Note_off_c, 0, 81, 41
1, 355629, Note_off_c, 0, 88, 61
1, 355639, Note_off_c, 0, 78, 50
1, 355644, Note_off_c, 0, 57, 58
1, 355683, Note_off_c, 0, 63, 37
1, 355865, Control_c, 0, 64, 95
1, 355872, Note_on_c, 0, 88, 69
1, 355880, Control_c, 0, 64, 69
1, 355882, Note_on_c, 0, 52, 40
1, 355891, Note_on_c, 0, 64, 34
1, 355895, Control_c, 0, 64, 42
1, 355897, Note_on_c, 0, 80, 51
1, 355905, Note_off_c, 0, 87, 34
1, 355909, Control_c, 0, 64, 0
1, 355969, Control_c, 0, 64, 31
1, 355984, Control_c, 0, 64, 60
1, 355999, Control_c, 0, 64, 72
1, 356014, Control_c, 0, 64, 87
1, 356029, Control_c, 0, 64, 112
1, 356044, Control_c, 0, 64, 127
1, 356107, Note_off_c, 0, 88, 54
1, 356131, Note_off_c, 0, 80, 40
1, 356141, Note_off_c, 0, 52, 40
1, 356170, Note_on_c, 0, 83, 60
1, 356174, Note_off_c, 0, 64, 40
1, 356182, Note_on_c, 0, 59, 31
1, 356183, Note_on_c, 0, 56, 35
1, 356185, Note_on_c, 0, 76, 48
1, 356216, Note_off_c, 0, 76, 57
1, 356366, Note_off_c, 0, 59, 35
1, 356372, Note_off_c, 0, 56, 38
1, 356412, Note_on_c, 0, 85, 66
1, 356419, Note_on_c, 0, 52, 31
1, 356420, Note_on_c, 0, 61, 43
1, 356425, Note_on_c, 0, 80, 54
1, 356444, Note_off_c, 0, 83, 55
1, 356464, Note_off_c, 0, 52, 45
1, 356469, Note_off_c, 0, 80, 58
1, 356495, Note_off_c, 0, 61, 53
1, 356678, Note_off_c, 0, 85, 53
1, 356682, Note_on_c, 0, 86, 61
1, 356700, Note_on_c, 0, 56, 37
1, 356706, Note_on_c, 0, 76, 34
1, 356715, Note_on_c, 0, 62, 37
1, 356737, Note_off_c, 0, 76, 53
1, 356749, Note_off_c, 0, 62, 52
1, 356751, Note_off_c, 0, 56, 50
1, 356788, Note_off_c, 0, 86, 62
1, 357111, Note_on_c, 0, 69, 61
1, 357114, Note_on_c, 0, 57, 55
1, 357122, Note_on_c, 0, 93, 55
1, 357126, Control_c, 0, 64, 112
1, 357132, Note_on_c, 0, 85, 47
1, 357141, Control_c, 0, 64, 104
1, 357155, Control_c, 0, 64, 98
1, 357170, Control_c, 0, 64, 91
1, 357185, Control_c, 0, 64, 85
1, 357199, Control_c, 0, 64, 77
1, 357214, Control_c, 0, 64, 67
1, 357229, Control_c, 0, 64, 55
1, 357244, Control_c, 0, 64, 18
1, 357259, Control_c, 0, 64, 0
1, 357332, Control_c, 0, 64, 23
1, 357347, Control_c, 0, 64, 56
1, 357362, Control_c, 0, 64, 67
1, 357377, Control_c, 0, 64, 75
1, 357378, Note_off_c, 0, 85, 55
1, 357392, Control_c, 0, 64, 83
1, 357402, Note_on_c, 0, 61, 38
1, 357406, Control_c, 0, 64, 91
1, 357414, Note_on_c, 0, 81, 46
1, 357421, Control_c, 0, 64, 98
1, 357436, Control_c, 0, 64, 106
1, 357445, Note_off_c, 0, 57, 30
1, 357451, Control_c, 0, 64, 121
1, 357466, Control_c, 0, 64, 127
1, 357481, Note_off_c, 0, 61, 36
1, 357617, Note_off_c, 0, 69, 41
1, 357645, Note_on_c, 0, 57, 42
1, 357645, Note_on_c, 0, 86, 47
1, 357666, Note_off_c, 0, 81, 36
1, 357770, Note_off_c, 0, 93, 35
1, 357874, Control_c, 0, 64, 124
1, 357883, Note_on_c, 0, 68, 60
1, 357883, Note_off_c, 0, 86, 40
1, 357889, Control_c, 0, 64, 121
1, 357898, Note_on_c, 0, 62, 54
1, 357900, Note_on_c, 0, 92, 52
1, 357904, Control_c, 0, 64, 119
1, 357906, Note_on_c, 0, 81, 52
1, 357919, Control_c, 0, 64, 117
1, 357925, Note_off_c, 0, 57, 43
1, 357934, Control_c, 0, 64, 115
1, 357948, Control_c, 0, 64, 115
1, 357963, Control_c, 0, 64, 114
1, 357978, Control_c, 0, 64, 113
1, 357986, Note_off_c, 0, 68, 59
1, 357986, Note_off_c, 0, 92, 58
1, 358022, Control_c, 0, 64, 113
1, 358037, Control_c, 0, 64, 112
1, 358067, Control_c, 0, 64, 112
1, 358096, Control_c, 0, 64, 110
1, 358111, Control_c, 0, 64, 104
1, 358126, Control_c, 0, 64, 89
1, 358129, Note_off_c, 0, 62, 27
1, 358141, Control_c, 0, 64, 72
1, 358147, Note_on_c, 0, 67, 62
1, 358148, Note_on_c, 0, 57, 48
1, 358155, Control_c, 0, 64, 56
1, 358165, Note_on_c, 0, 88, 51
1, 358168, Note_on_c, 0, 91, 53
1, 358170, Control_c, 0, 64, 13
1, 358185, Control_c, 0, 64, 0
1, 358196, Note_off_c, 0, 81, 31
1, 358200, Control_c, 0, 64, 35
1, 358215, Control_c, 0, 64, 57
1, 358229, Control_c, 0, 64, 68
1, 358244, Control_c, 0, 64, 84
1, 358259, Control_c, 0, 64, 127
1, 358264, Note_off_c, 0, 67, 50
1, 358369, Note_off_c, 0, 57, 36
1, 358388, Note_off_c, 0, 88, 38
1, 358412, Note_on_c, 0, 69, 62
1, 358429, Note_on_c, 0, 64, 53
1, 358429, Note_off_c, 0, 91, 51
1, 358430, Note_on_c, 0, 93, 62
1, 358436, Note_on_c, 0, 81, 50
1, 358524, Note_off_c, 0, 69, 59
1, 358682, Control_c, 0, 64, 116
1, 358690, Note_on_c, 0, 67, 61
1, 358696, Note_on_c, 0, 57, 52
1, 358697, Note_on_c, 0, 91, 54
1, 358697, Control_c, 0, 64, 90
1, 358703, Note_on_c, 0, 85, 45
1, 358712, Control_c, 0, 64, 72
1, 358722, Note_off_c, 0, 64, 53
1, 358727, Control_c, 0, 64, 56
1, 358732, Note_off_c, 0, 93, 32
1, 358742, Control_c, 0, 64, 0
1, 358742, Note_off_c, 0, 81, 42
1, 358816, Control_c, 0, 64, 31
1, 358831, Control_c, 0, 64, 51
1, 358845, Control_c, 0, 64, 61
1, 358860, Control_c, 0, 64, 67
1, 358875, Control_c, 0, 64, 74
1, 358890, Control_c, 0, 64, 84
1, 358905, Control_c, 0, 64, 98
1, 358919, Control_c, 0, 64, 127
1, 358952, Note_off_c, 0, 67, 54
1, 358956, Note_on_c, 0, 81, 46
1, 358956, Note_on_c, 0, 61, 43
1, 358965, Note_off_c, 0, 85, 37
1, 358981, Note_off_c, 0, 57, 31
1, 359051, Note_off_c, 0, 61, 53
1, 359169, Note_off_c, 0, 81, 33
1, 359189, Note_on_c, 0, 66, 58
1, 359192, Note_off_c, 0, 91, 52
1, 359195, Control_c, 0, 64, 100
1, 359200, Note_on_c, 0, 57, 49
1, 359203, Note_on_c, 0, 90, 55
1, 359209, Control_c, 0, 64, 78
1, 359214, Note_on_c, 0, 86, 43
1, 359224, Control_c, 0, 64, 59
1, 359239, Control_c, 0, 64, 15
1, 359254, Control_c, 0, 64, 0
1, 359275, Note_off_c, 0, 86, 0
1, 359298, Control_c, 0, 64, 32
1, 359312, Poly_aftertouch_c, 0, 86, 127
1, 359313, Control_c, 0, 64, 61
1, 359328, Control_c, 0, 64, 71
1, 359343, Control_c, 0, 64, 84
1, 359357, Control_c, 0, 64, 103
1, 359372, Control_c, 0, 64, 127
1, 359445, Poly_aftertouch_c, 0, 86, 0
1, 359463, Note_on_c, 0, 81, 41
1, 359472, Note_on_c, 0, 62, 41
1, 359475, Note_off_c, 0, 57, 40
1, 359561, Note_off_c, 0, 66, 60
1, 359665, Note_off_c, 0, 81, 39
1, 359669, Note_on_c, 0, 55, 49
1, 359675, Note_on_c, 0, 85, 46
1, 359675, Note_off_c, 0, 90, 54
1, 359707, Note_off_c, 0, 62, 35
1, 359898, Note_off_c, 0, 85, 59
1, 359925, Note_on_c, 0, 88, 52
1, 359928, Note_on_c, 0, 64, 55
1, 359929, Note_off_c, 0, 55, 37
1, 359932, Note_on_c, 0, 79, 48
1, 359935, Note_on_c, 0, 61, 52
1, 360003, Note_off_c, 0, 64, 60
1, 360113, Note_off_c, 0, 61, 35
1, 360151, Control_c, 0, 64, 121
1, 360155, Note_off_c, 0, 88, 54
1, 360166, Control_c, 0, 64, 106
1, 360178, Note_on_c, 0, 62, 53
1, 360180, Note_on_c, 0, 86, 56
1, 360180, Control_c, 0, 64, 86
1, 360187, Note_on_c, 0, 54, 45
1, 360190, Note_off_c, 0, 79, 39
1, 360191, Note_on_c, 0, 81, 42
1, 360195, Control_c, 0, 64, 70
1, 360210, Control_c, 0, 64, 55
1, 360224, Control_c, 0, 64, 0
1, 360269, Control_c, 0, 64, 39
1, 360284, Control_c, 0, 64, 59
1, 360298, Control_c, 0, 64, 66
1, 360313, Control_c, 0, 64, 73
1, 360328, Control_c, 0, 64, 81
1, 360342, Control_c, 0, 64, 86
1, 360357, Control_c, 0, 64, 90
1, 360372, Control_c, 0, 64, 92
1, 360387, Control_c, 0, 64, 93
1, 360402, Control_c, 0, 64, 94
1, 360432, Control_c, 0, 64, 94
1, 360443, Note_on_c, 0, 57, 42
1, 360447, Control_c, 0, 64, 95
1, 360459, Note_on_c, 0, 78, 40
1, 360462, Control_c, 0, 64, 95
1, 360477, Control_c, 0, 64, 96
1, 360497, Note_off_c, 0, 54, 40
1, 360499, Note_off_c, 0, 81, 36
1, 360521, Control_c, 0, 64, 96
1, 360628, Note_off_c, 0, 62, 29
1, 360639, Note_off_c, 0, 57, 36
1, 360661, Control_c, 0, 64, 96
1, 360676, Control_c, 0, 64, 95
1, 360685, Note_off_c, 0, 86, 52
1, 360691, Control_c, 0, 64, 95
1, 360706, Note_on_c, 0, 61, 50
1, 360708, Note_off_c, 0, 78, 33
1, 360712, Note_on_c, 0, 54, 42
1, 360714, Note_on_c, 0, 85, 49
1, 360718, Note_on_c, 0, 81, 42
1, 360721, Control_c, 0, 64, 93
1, 360736, Control_c, 0, 64, 89
1, 360751, Control_c, 0, 64, 77
1, 360766, Control_c, 0, 64, 65
1, 360781, Control_c, 0, 64, 43
1, 360795, Control_c, 0, 64, 0
1, 360840, Control_c, 0, 64, 52
1, 360855, Control_c, 0, 64, 63
1, 360870, Control_c, 0, 64, 70
1, 360885, Control_c, 0, 64, 79
1, 360900, Control_c, 0, 64, 90
1, 360915, Control_c, 0, 64, 97
1, 360929, Control_c, 0, 64, 100
1, 360944, Control_c, 0, 64, 105
1, 360959, Control_c, 0, 64, 113
1, 360973, Control_c, 0, 64, 127
1, 360974, Note_off_c, 0, 81, 40
1, 360980, Note_on_c, 0, 57, 34
1, 360984, Note_on_c, 0, 78, 45
1, 360994, Note_off_c, 0, 85, 57
1, 361032, Note_off_c, 0, 54, 41
1, 361034, Note_off_c, 0, 57, 50
1, 361058, Note_off_c, 0, 78, 55
1, 361078, Note_off_c, 0, 61, 60
1, 361307, Note_on_c, 0, 68, 54
1, 361323, Note_on_c, 0, 92, 54
1, 361326, Note_on_c, 0, 56, 48
1, 361340, Note_on_c, 0, 84, 43
1, 361366, Control_c, 0, 64, 104
1, 361380, Control_c, 0, 64, 83
1, 361395, Control_c, 0, 64, 67
1, 361410, Control_c, 0, 64, 47
1, 361425, Control_c, 0, 64, 0
1, 361440, Control_c, 0, 64, 8
1, 361454, Control_c, 0, 64, 42
1, 361469, Control_c, 0, 64, 60
1, 361484, Control_c, 0, 64, 67
1, 361499, Control_c, 0, 64, 74
1, 361514, Control_c, 0, 64, 86
1, 361529, Control_c, 0, 64, 95
1, 361544, Control_c, 0, 64, 101
1, 361559, Control_c, 0, 64, 107
1, 361574, Control_c, 0, 64, 116
1, 361582, Note_on_c, 0, 60, 47
1, 361586, Note_off_c, 0, 56, 36
1, 361589, Control_c, 0, 64, 127
1, 361594, Note_off_c, 0, 84, 41
1, 361596, Note_on_c, 0, 80, 38
1, 361789, Note_off_c, 0, 60, 21
1, 361801, Note_off_c, 0, 92, 51
1, 361815, Note_on_c, 0, 56, 39
1, 361832, Note_on_c, 0, 85, 47
1, 361841, Note_off_c, 0, 68, 34
1, 361860, Note_off_c, 0, 80, 34
1, 362049, Note_off_c, 0, 85, 52
1, 362056, Note_on_c, 0, 67, 56
1, 362066, Note_on_c, 0, 91, 49
1, 362074, Note_on_c, 0, 61, 50
1, 362083, Note_on_c, 0, 80, 39
1, 362088, Note_off_c, 0, 56, 37
1, 362277, Note_off_c, 0, 61, 35
1, 362293, Control_c, 0, 64, 98
1, 362295, Note_off_c, 0, 67, 50
1, 362298, Note_off_c, 0, 91, 41
1, 362299, Note_on_c, 0, 66, 57
1, 362306, Note_on_c, 0, 90, 53
1, 362307, Note_on_c, 0, 56, 49
1, 362308, Control_c, 0, 64, 79
1, 362319, Note_on_c, 0, 87, 46
1, 362322, Control_c, 0, 64, 64
1, 362337, Control_c, 0, 64, 38
1, 362340, Note_off_c, 0, 80, 41
1, 362354, Control_c, 0, 64, 0
1, 362398, Control_c, 0, 64, 24
1, 362413, Control_c, 0, 64, 55
1, 362427, Control_c, 0, 64, 67
1, 362442, Control_c, 0, 64, 78
1, 362457, Control_c, 0, 64, 101
1, 362472, Control_c, 0, 64, 127
1, 362527, Note_off_c, 0, 56, 31
1, 362560, Note_off_c, 0, 66, 52
1, 362560, Note_on_c, 0, 63, 47
1, 362561, Note_on_c, 0, 68, 48
1, 362563, Note_off_c, 0, 90, 51
1, 362566, Note_off_c, 0, 87, 35
1, 362571, Note_on_c, 0, 80, 48
1, 362571, Note_on_c, 0, 92, 55
1, 362723, Note_off_c, 0, 68, 50
1, 362797, Control_c, 0, 64, 113
1, 362812, Control_c, 0, 64, 85
1, 362820, Note_on_c, 0, 66, 52
1, 362825, Note_on_c, 0, 84, 44
1, 362826, Note_off_c, 0, 63, 29
1, 362828, Note_on_c, 0, 56, 46
1, 362831, Note_on_c, 0, 90, 54
1, 362834, Control_c, 0, 64, 67
1, 362849, Control_c, 0, 64, 47
1, 362851, Note_off_c, 0, 80, 37
1, 362864, Control_c, 0, 64, 33
1, 362879, Control_c, 0, 64, 35
1, 362893, Control_c, 0, 64, 47
1, 362895, Note_off_c, 0, 92, 37
1, 362908, Control_c, 0, 64, 58
1, 362923, Control_c, 0, 64, 65
1, 362938, Control_c, 0, 64, 75
1, 362952, Control_c, 0, 64, 90
1, 362967, Control_c, 0, 64, 111
1, 362982, Control_c, 0, 64, 127
1, 363067, Note_off_c, 0, 90, 48
1, 363074, Note_on_c, 0, 80, 45
1, 363100, Note_on_c, 0, 60, 41
1, 363100, Note_off_c, 0, 84, 41
1, 363121, Note_off_c, 0, 56, 29
1, 363143, Note_off_c, 0, 66, 54
1, 363154, Note_off_c, 0, 60, 44
1, 363323, Control_c, 0, 64, 119
1, 363338, Control_c, 0, 64, 93
1, 363343, Note_on_c, 0, 64, 49
1, 363345, Note_on_c, 0, 88, 58
1, 363353, Note_on_c, 0, 85, 49
1, 363353, Control_c, 0, 64, 74
1, 363356, Note_on_c, 0, 56, 40
1, 363368, Control_c, 0, 64, 61
1, 363379, Note_off_c, 0, 80, 36
1, 363383, Control_c, 0, 64, 41
1, 363398, Control_c, 0, 64, 25
1, 363413, Control_c, 0, 64, 33
1, 363428, Control_c, 0, 64, 50
1, 363442, Control_c, 0, 64, 62
1, 363457, Control_c, 0, 64, 70
1, 363472, Control_c, 0, 64, 82
1, 363487, Control_c, 0, 64, 101
1, 363502, Control_c, 0, 64, 127
1, 363613, Note_on_c, 0, 80, 43
1, 363619, Note_on_c, 0, 61, 43
1, 363653, Note_off_c, 0, 85, 37
1, 363654, Note_off_c, 0, 56, 40
1, 363679, Note_off_c, 0, 64, 48
1, 363691, Note_off_c, 0, 61, 51
1, 363832, Note_on_c, 0, 54, 40
1, 363852, Note_on_c, 0, 84, 44
1, 363868, Note_off_c, 0, 80, 35
1, 364027, Note_off_c, 0, 88, 50
1, 364053, Note_off_c, 0, 84, 52
1, 364064, Note_on_c, 0, 87, 50
1, 364067, Note_on_c, 0, 78, 45
1, 364068, Note_on_c, 0, 63, 50
1, 364083, Note_on_c, 0, 60, 52
1, 364089, Note_off_c, 0, 54, 42
1, 364117, Note_off_c, 0, 87, 56
1, 364125, Note_off_c, 0, 63, 49
1, 364331, Control_c, 0, 64, 113
1, 364346, Control_c, 0, 64, 95
1, 364350, Note_on_c, 0, 61, 55
1, 364354, Note_on_c, 0, 52, 50
1, 364361, Control_c, 0, 64, 76
1, 364367, Note_on_c, 0, 85, 49
1, 364373, Note_on_c, 0, 80, 43
1, 364376, Control_c, 0, 64, 58
1, 364385, Note_off_c, 0, 60, 31
1, 364390, Control_c, 0, 64, 0
1, 364400, Note_off_c, 0, 78, 36
1, 364450, Control_c, 0, 64, 48
1, 364465, Control_c, 0, 64, 65
1, 364480, Control_c, 0, 64, 74
1, 364495, Control_c, 0, 64, 87
1, 364510, Control_c, 0, 64, 98
1, 364524, Control_c, 0, 64, 106
1, 364539, Control_c, 0, 64, 115
1, 364554, Control_c, 0, 64, 127
1, 364593, Note_off_c, 0, 80, 53
1, 364599, Note_off_c, 0, 61, 47
1, 364630, Note_on_c, 0, 56, 46
1, 364634, Note_on_c, 0, 76, 43
1, 364661, Note_off_c, 0, 52, 34
1, 364818, Note_off_c, 0, 56, 30
1, 364851, Control_c, 0, 64, 101
1, 364852, Note_off_c, 0, 85, 54
1, 364860, Note_on_c, 0, 83, 52
1, 364863, Note_off_c, 0, 76, 30
1, 364866, Control_c, 0, 64, 81
1, 364867, Note_on_c, 0, 52, 40
1, 364867, Note_on_c, 0, 59, 46
1, 364871, Note_on_c, 0, 79, 44
1, 364881, Control_c, 0, 64, 66
1, 364895, Control_c, 0, 64, 51
1, 364910, Control_c, 0, 64, 31
1, 364925, Control_c, 0, 64, 20
1, 364939, Control_c, 0, 64, 38
1, 364954, Control_c, 0, 64, 58
1, 364969, Control_c, 0, 64, 68
1, 364984, Control_c, 0, 64, 84
1, 364999, Control_c, 0, 64, 127
1, 365136, Note_on_c, 0, 55, 40
1, 365140, Note_on_c, 0, 76, 48
1, 365146, Note_off_c, 0, 59, 54
1, 365154, Note_off_c, 0, 52, 41
1, 365169, Note_off_c, 0, 79, 51
1, 365171, Note_off_c, 0, 76, 62
1, 365183, Note_off_c, 0, 55, 59
1, 365187, Note_off_c, 0, 83, 61
1, 365502, Note_on_c, 0, 90, 74
1, 365512, Note_on_c, 0, 82, 56
1, 365521, Note_on_c, 0, 66, 52
1, 365522, Note_on_c, 0, 54, 42
1, 365586, Control_c, 0, 64, 98
1, 365601, Control_c, 0, 64, 76
1, 365616, Control_c, 0, 64, 50
1, 365630, Control_c, 0, 64, 0
1, 365690, Control_c, 0, 64, 49
1, 365705, Control_c, 0, 64, 66
1, 365719, Control_c, 0, 64, 75
1, 365734, Control_c, 0, 64, 85
1, 365749, Control_c, 0, 64, 94
1, 365763, Control_c, 0, 64, 98
1, 365778, Control_c, 0, 64, 103
1, 365793, Control_c, 0, 64, 120
1, 365813, Note_on_c, 0, 58, 37
1, 365815, Control_c, 0, 64, 127
1, 365835, Note_on_c, 0, 78, 45
1, 365875, Note_off_c, 0, 54, 40
1, 365983, Note_off_c, 0, 66, 35
1, 366039, Note_on_c, 0, 54, 32
1, 366063, Note_on_c, 0, 85, 58
1, 366082, Note_off_c, 0, 82, 24
1, 366084, Note_off_c, 0, 78, 34
1, 366116, Note_off_c, 0, 58, 20
1, 366130, Note_off_c, 0, 90, 61
1, 366236, Note_off_c, 0, 54, 38
1, 366291, Note_on_c, 0, 88, 71
1, 366298, Note_on_c, 0, 64, 43
1, 366311, Note_on_c, 0, 78, 56
1, 366319, Note_on_c, 0, 61, 43
1, 366329, Note_off_c, 0, 85, 53
1, 366353, Note_off_c, 0, 78, 47
1, 366370, Note_off_c, 0, 64, 58
1, 366514, Note_off_c, 0, 61, 28
1, 366555, Control_c, 0, 64, 98
1, 366569, Note_on_c, 0, 54, 40
1, 366578, Note_on_c, 0, 62, 48
1, 366578, Note_on_c, 0, 86, 74
1, 366578, Control_c, 0, 64, 76
1, 366589, Note_on_c, 0, 83, 59
1, 366592, Control_c, 0, 64, 62
1, 366607, Control_c, 0, 64, 43
1, 366610, Note_off_c, 0, 88, 60
1, 366622, Control_c, 0, 64, 38
1, 366637, Control_c, 0, 64, 50
1, 366652, Control_c, 0, 64, 62
1, 366666, Control_c, 0, 64, 75
1, 366681, Control_c, 0, 64, 103
1, 366696, Control_c, 0, 64, 127
1, 366751, Note_off_c, 0, 83, 59
1, 366766, Note_off_c, 0, 54, 42
1, 366877, Note_on_c, 0, 61, 45
1, 366879, Note_on_c, 0, 85, 75
1, 366886, Note_off_c, 0, 62, 39
1, 366894, Note_on_c, 0, 78, 58
1, 366912, Note_on_c, 0, 59, 22
1, 366939, Note_off_c, 0, 86, 53
1, 366943, Note_off_c, 0, 78, 45
1, 367030, Note_off_c, 0, 61, 32
1, 367080, Note_off_c, 0, 85, 62
1, 367124, Note_on_c, 0, 86, 74
1, 367138, Note_on_c, 0, 62, 45
1, 367138, Note_on_c, 0, 81, 62
1, 367145, Note_on_c, 0, 53, 40
1, 367150, Note_off_c, 0, 59, 33
1, 367156, Control_c, 0, 64, 88
1, 367171, Control_c, 0, 64, 69
1, 367186, Control_c, 0, 64, 49
1, 367201, Control_c, 0, 64, 0
1, 367230, Control_c, 0, 64, 45
1, 367245, Control_c, 0, 64, 63
1, 367260, Control_c, 0, 64, 76
1, 367275, Control_c, 0, 64, 110
1, 367289, Control_c, 0, 64, 127
1, 367383, Note_on_c, 0, 57, 44
1, 367404, Note_on_c, 0, 77, 57
1, 367410, Note_off_c, 0, 62, 37
1, 367412, Note_off_c, 0, 53, 35
1, 367416, Note_off_c, 0, 81, 56
1, 367433, Note_off_c, 0, 57, 58
1, 367452, Note_off_c, 0, 86, 54
1, 367651, Note_on_c, 0, 88, 73
1, 367658, Note_on_c, 0, 52, 45
1, 367660, Note_on_c, 0, 64, 42
1, 367667, Control_c, 0, 64, 108
1, 367669, Note_on_c, 0, 80, 60
1, 367682, Control_c, 0, 64, 81
1, 367684, Note_off_c, 0, 77, 52
1, 367696, Control_c, 0, 64, 64
1, 367711, Control_c, 0, 64, 26
1, 367726, Control_c, 0, 64, 0
1, 367786, Control_c, 0, 64, 52
1, 367801, Control_c, 0, 64, 74
1, 367815, Control_c, 0, 64, 105
1, 367830, Control_c, 0, 64, 127
1, 367905, Note_on_c, 0, 56, 43
1, 367911, Note_on_c, 0, 76, 46
1, 367935, Note_off_c, 0, 52, 31
1, 367970, Note_off_c, 0, 56, 53
1, 368073, Note_off_c, 0, 64, 41
1, 368074, Note_off_c, 0, 80, 29
1, 368139, Note_on_c, 0, 52, 35
1, 368145, Note_on_c, 0, 83, 62
1, 368163, Note_off_c, 0, 76, 42
1, 368182, Note_off_c, 0, 88, 53
1, 368196, Note_off_c, 0, 52, 55
1, 368396, Note_on_c, 0, 62, 33
1, 368399, Note_on_c, 0, 86, 74
1, 368401, Note_on_c, 0, 76, 59
1, 368405, Note_on_c, 0, 59, 36
1, 368431, Note_off_c, 0, 83, 59
1, 368437, Note_off_c, 0, 62, 46
1, 368484, Note_off_c, 0, 76, 56
1, 368598, Note_off_c, 0, 59, 37
1, 368654, Note_on_c, 0, 52, 38
1, 368655, Note_on_c, 0, 60, 41
1, 368668, Control_c, 0, 64, 106
1, 368674, Note_on_c, 0, 84, 69
1, 368677, Note_on_c, 0, 81, 53
1, 368683, Control_c, 0, 64, 80
1, 368698, Control_c, 0, 64, 61
1, 368713, Control_c, 0, 64, 14
1, 368713, Note_off_c, 0, 86, 58
1, 368728, Control_c, 0, 64, 0
1, 368758, Control_c, 0, 64, 59
1, 368773, Control_c, 0, 64, 73
1, 368787, Control_c, 0, 64, 95
1, 368810, Control_c, 0, 64, 127
1, 368911, Note_off_c, 0, 60, 36
1, 368911, Note_off_c, 0, 81, 55
1, 368918, Note_off_c, 0, 52, 40
1, 368919, Note_on_c, 0, 57, 35
1, 368919, Note_on_c, 0, 83, 64
1, 368924, Note_on_c, 0, 76, 61
1, 368933, Note_on_c, 0, 59, 30
1, 368969, Note_off_c, 0, 84, 53
1, 369066, Note_off_c, 0, 59, 32
1, 369178, Note_on_c, 0, 60, 39
1, 369180, Control_c, 0, 64, 107
1, 369193, Note_on_c, 0, 52, 36
1, 369195, Control_c, 0, 64, 81
1, 369207, Note_off_c, 0, 57, 35
1, 369210, Control_c, 0, 64, 65
1, 369214, Note_on_c, 0, 84, 59
1, 369225, Control_c, 0, 64, 53
1, 369237, Note_on_c, 0, 79, 37
1, 369240, Control_c, 0, 64, 60
1, 369252, Note_off_c, 0, 83, 37
1, 369255, Control_c, 0, 64, 68
1, 369269, Control_c, 0, 64, 83
1, 369278, Note_off_c, 0, 76, 39
1, 369284, Control_c, 0, 64, 127
1, 369333, Note_off_c, 0, 84, 60
1, 369355, Note_on_c, 0, 86, 68
1, 369390, Note_off_c, 0, 79, 38
1, 369446, Note_on_c, 0, 84, 74
1, 369450, Note_off_c, 0, 86, 56
1, 369524, Note_on_c, 0, 55, 42
1, 369541, Note_off_c, 0, 84, 60
1, 369545, Note_on_c, 0, 83, 63
1, 369559, Note_on_c, 0, 76, 54
1, 369561, Note_off_c, 0, 52, 42
1, 369562, Note_off_c, 0, 60, 40
1, 369573, Note_off_c, 0, 55, 57
1, 369594, Note_off_c, 0, 76, 53
1, 369658, Note_on_c, 0, 84, 74
1, 369695, Note_off_c, 0, 83, 61
1, 369825, Control_c, 0, 64, 95
1, 369826, Note_on_c, 0, 62, 40
1, 369831, Note_on_c, 0, 50, 37
1, 369833, Note_on_c, 0, 86, 76
1, 369836, Note_on_c, 0, 77, 59
1, 369840, Control_c, 0, 64, 74
1, 369854, Control_c, 0, 64, 56
1, 369863, Note_off_c, 0, 84, 55
1, 369869, Control_c, 0, 64, 0
1, 369914, Control_c, 0, 64, 42
1, 369928, Control_c, 0, 64, 64
1, 369943, Control_c, 0, 64, 78
1, 369958, Control_c, 0, 64, 127
1, 370049, Note_off_c, 0, 62, 40
1, 370070, Note_on_c, 0, 53, 46
1, 370087, Note_off_c, 0, 50, 35
1, 370092, Note_off_c, 0, 77, 54
1, 370098, Note_on_c, 0, 74, 49
1, 370169, Note_off_c, 0, 74, 53
1, 370325, Note_off_c, 0, 53, 38
1, 370337, Note_on_c, 0, 59, 46
1, 370342, Note_on_c, 0, 50, 45
1, 370343, Note_on_c, 0, 77, 56
1, 370343, Note_on_c, 0, 83, 71
1, 370366, Control_c, 0, 64, 90
1, 370381, Control_c, 0, 64, 65
1, 370396, Control_c, 0, 64, 33
1, 370411, Control_c, 0, 64, 0
1, 370430, Note_off_c, 0, 86, 36
1, 370440, Control_c, 0, 64, 32
1, 370455, Control_c, 0, 64, 59
1, 370470, Control_c, 0, 64, 72
1, 370485, Control_c, 0, 64, 99
1, 370500, Control_c, 0, 64, 127
1, 370570, Note_off_c, 0, 77, 53
1, 370592, Note_on_c, 0, 81, 74
1, 370594, Note_on_c, 0, 57, 50
1, 370598, Note_on_c, 0, 74, 55
1, 370607, Note_on_c, 0, 53, 40
1, 370616, Note_off_c, 0, 59, 30
1, 370629, Note_off_c, 0, 83, 57
1, 370635, Note_off_c, 0, 74, 60
1, 370641, Note_off_c, 0, 50, 37
1, 370645, Note_off_c, 0, 53, 61
1, 370660, Note_off_c, 0, 57, 57
1, 370840, Control_c, 0, 64, 109
1, 370855, Control_c, 0, 64, 76
1, 370865, Note_on_c, 0, 52, 39
1, 370868, Note_on_c, 0, 56, 45
1, 370870, Control_c, 0, 64, 57
1, 370876, Note_on_c, 0, 80, 68
1, 370884, Control_c, 0, 64, 0
1, 370897, Note_off_c, 0, 81, 55
1, 370944, Control_c, 0, 64, 56
1, 370958, Control_c, 0, 64, 71
1, 370973, Control_c, 0, 64, 91
1, 370988, Control_c, 0, 64, 127
1, 370996, Note_off_c, 0, 56, 59
1, 371164, Note_on_c, 0, 83, 68
1, 371168, Note_on_c, 0, 59, 46
1, 371176, Note_on_c, 0, 56, 35
1, 371178, Note_on_c, 0, 76, 56
1, 371179, Note_off_c, 0, 80, 55
1, 371197, Note_off_c, 0, 52, 42
1, 371218, Note_off_c, 0, 76, 59
1, 371249, Note_off_c, 0, 59, 58
1, 371313, Note_off_c, 0, 56, 34
1, 371381, Control_c, 0, 64, 99
1, 371392, Note_on_c, 0, 80, 64
1, 371393, Note_on_c, 0, 88, 68
1, 371396, Control_c, 0, 64, 74
1, 371402, Note_on_c, 0, 52, 47
1, 371405, Note_on_c, 0, 64, 50
1, 371410, Note_off_c, 0, 83, 55
1, 371411, Control_c, 0, 64, 51
1, 371426, Control_c, 0, 64, 0
1, 371455, Control_c, 0, 64, 19
1, 371470, Control_c, 0, 64, 57
1, 371485, Control_c, 0, 64, 71
1, 371500, Control_c, 0, 64, 87
1, 371505, Note_off_c, 0, 64, 59
1, 371515, Control_c, 0, 64, 127
1, 371547, Note_off_c, 0, 88, 61
1, 371628, Note_off_c, 0, 52, 37
1, 371664, Note_on_c, 0, 86, 76
1, 371664, Note_off_c, 0, 80, 62
1, 371676, Note_on_c, 0, 76, 51
1, 371679, Note_on_c, 0, 62, 43
1, 371682, Note_on_c, 0, 56, 41
1, 371709, Note_off_c, 0, 76, 53
1, 371765, Note_off_c, 0, 56, 46
1, 371912, Note_off_c, 0, 62, 31
1, 371953, Note_on_c, 0, 85, 68
1, 371965, Note_on_c, 0, 61, 46
1, 371968, Note_on_c, 0, 52, 39
1, 371971, Note_on_c, 0, 81, 59
1, 371989, Note_off_c, 0, 86, 61
1, 371998, Control_c, 0, 64, 107
1, 372013, Control_c, 0, 64, 84
1, 372028, Control_c, 0, 64, 66
1, 372042, Control_c, 0, 64, 33
1, 372057, Control_c, 0, 64, 0
1, 372102, Control_c, 0, 64, 56
1, 372117, Control_c, 0, 64, 67
1, 372131, Control_c, 0, 64, 76
1, 372146, Control_c, 0, 64, 87
1, 372161, Control_c, 0, 64, 97
1, 372176, Control_c, 0, 64, 103
1, 372191, Control_c, 0, 64, 106
1, 372205, Control_c, 0, 64, 109
1, 372220, Control_c, 0, 64, 113
1, 372235, Control_c, 0, 64, 117
1, 372247, Note_on_c, 0, 57, 42
1, 372250, Control_c, 0, 64, 122
1, 372265, Control_c, 0, 64, 127
1, 372269, Note_off_c, 0, 52, 43
1, 372273, Note_on_c, 0, 76, 49
1, 372339, Note_off_c, 0, 81, 54
1, 372394, Note_off_c, 0, 85, 58
1, 372458, Note_off_c, 0, 61, 40
1, 372531, Control_c, 0, 64, 115
1, 372553, Control_c, 0, 64, 89
1, 372565, Note_on_c, 0, 62, 38
1, 372568, Control_c, 0, 64, 70
1, 372575, Note_off_c, 0, 57, 32
1, 372576, Note_on_c, 0, 52, 38
1, 372582, Note_on_c, 0, 86, 58
1, 372583, Control_c, 0, 64, 55
1, 372598, Note_on_c, 0, 83, 36
1, 372598, Control_c, 0, 64, 59
1, 372612, Control_c, 0, 64, 68
1, 372621, Note_off_c, 0, 86, 61
1, 372627, Control_c, 0, 64, 84
1, 372642, Control_c, 0, 64, 127
1, 372647, Note_on_c, 0, 88, 62
1, 372696, Note_off_c, 0, 83, 0
1, 372705, Note_on_c, 0, 86, 70
1, 372710, Note_off_c, 0, 88, 59
1, 372734, Poly_aftertouch_c, 0, 83, 127
1, 372739, Note_off_c, 0, 76, 42
1, 372801, Note_off_c, 0, 52, 24
1, 372883, Note_off_c, 0, 62, 34
1, 372885, Note_on_c, 0, 59, 31
1, 372887, Note_on_c, 0, 76, 44
1, 373010, Poly_aftertouch_c, 0, 83, 0
1, 373265, Control_c, 0, 64, 108
1, 373279, Control_c, 0, 64, 99
1, 373279, Note_on_c, 0, 64, 40
1, 373285, Note_on_c, 0, 52, 41
1, 373288, Note_on_c, 0, 88, 62
1, 373294, Control_c, 0, 64, 92
1, 373294, Note_on_c, 0, 85, 48
1, 373310, Note_off_c, 0, 59, 37
1, 373312, Note_off_c, 0, 86, 52
1, 373316, Control_c, 0, 64, 87
1, 373331, Control_c, 0, 64, 79
1, 373346, Control_c, 0, 64, 69
1, 373360, Control_c, 0, 64, 60
1, 373375, Control_c, 0, 64, 45
1, 373390, Control_c, 0, 64, 15
1, 373405, Control_c, 0, 64, 0
1, 373539, Control_c, 0, 64, 34
1, 373554, Control_c, 0, 64, 52
1, 373569, Control_c, 0, 64, 59
1, 373584, Control_c, 0, 64, 64
1, 373598, Control_c, 0, 64, 67
1, 373613, Control_c, 0, 64, 71
1, 373628, Control_c, 0, 64, 77
1, 373643, Control_c, 0, 64, 83
1, 373658, Control_c, 0, 64, 88
1, 373673, Control_c, 0, 64, 92
1, 373688, Control_c, 0, 64, 96
1, 373702, Control_c, 0, 64, 101
1, 373717, Control_c, 0, 64, 110
1, 373732, Control_c, 0, 64, 127
1, 373815, Note_off_c, 0, 76, 39
1, 373818, Note_on_c, 0, 61, 38
1, 373864, Note_off_c, 0, 52, 37
1, 373917, Note_off_c, 0, 85, 41
1, 373945, Note_off_c, 0, 64, 42
1, 373992, Note_off_c, 0, 61, 43
1, 374006, Note_off_c, 0, 88, 55
1, 374453, Note_on_c, 0, 81, 47
1, 374454, Note_on_c, 0, 57, 39
1, 374588, Note_on_c, 0, 85, 46
1, 374589, Note_on_c, 0, 61, 48
1, 374606, Note_off_c, 0, 57, 36
1, 374608, Note_off_c, 0, 81, 32
1, 374688, Note_off_c, 0, 85, 57
1, 374693, Note_off_c, 0, 61, 55
1, 374698, Note_on_c, 0, 88, 50
1, 374708, Note_on_c, 0, 64, 46
1, 374803, Note_off_c, 0, 64, 54
1, 374854, Note_off_c, 0, 88, 35
1, 374859, Control_c, 0, 64, 112
1, 374861, Note_on_c, 0, 57, 56
1, 374862, Note_on_c, 0, 69, 61
1, 374865, Note_on_c, 0, 85, 41
1, 374874, Control_c, 0, 64, 97
1, 374875, Note_on_c, 0, 93, 52
1, 374888, Control_c, 0, 64, 82
1, 374903, Control_c, 0, 64, 66
1, 374918, Control_c, 0, 64, 36
1, 374932, Control_c, 0, 64, 0
1, 374992, Control_c, 0, 64, 42
1, 375006, Control_c, 0, 64, 63
1, 375021, Control_c, 0, 64, 74
1, 375036, Control_c, 0, 64, 89
1, 375050, Control_c, 0, 64, 105
1, 375065, Control_c, 0, 64, 110
1, 375080, Control_c, 0, 64, 113
1, 375095, Control_c, 0, 64, 121
1, 375110, Control_c, 0, 64, 127
1, 375196, Note_on_c, 0, 61, 38
1, 375217, Note_on_c, 0, 81, 44
1, 375223, Note_off_c, 0, 85, 41
1, 375251, Note_off_c, 0, 57, 38
1, 375268, Note_off_c, 0, 61, 48
1, 375427, Note_off_c, 0, 69, 40
1, 375439, Note_on_c, 0, 57, 49
1, 375444, Note_on_c, 0, 86, 51
1, 375476, Note_off_c, 0, 81, 30
1, 375685, Note_on_c, 0, 68, 55
1, 375687, Note_on_c, 0, 92, 57
1, 375697, Note_on_c, 0, 81, 51
1, 375700, Note_on_c, 0, 62, 51
1, 375708, Note_off_c, 0, 57, 34
1, 375733, Note_off_c, 0, 86, 32
1, 375747, Note_off_c, 0, 93, 22
1, 375771, Note_off_c, 0, 68, 62
1, 375789, Note_off_c, 0, 92, 57
1, 375906, Note_off_c, 0, 62, 30
1, 375919, Control_c, 0, 64, 101
1, 375935, Control_c, 0, 64, 81
1, 375950, Control_c, 0, 64, 65
1, 375955, Note_on_c, 0, 57, 44
1, 375959, Note_on_c, 0, 67, 54
1, 375961, Note_on_c, 0, 91, 49
1, 375963, Note_on_c, 0, 88, 46
1, 375965, Control_c, 0, 64, 40
1, 375979, Control_c, 0, 64, 0
1, 375994, Control_c, 0, 64, 18
1, 376009, Note_off_c, 0, 81, 39
1, 376009, Control_c, 0, 64, 57
1, 376024, Control_c, 0, 64, 70
1, 376039, Control_c, 0, 64, 84
1, 376045, Note_off_c, 0, 67, 57
1, 376053, Control_c, 0, 64, 114
1, 376068, Control_c, 0, 64, 127
1, 376192, Note_off_c, 0, 88, 32
1, 376195, Note_on_c, 0, 69, 60
1, 376204, Note_on_c, 0, 93, 60
1, 376211, Note_on_c, 0, 81, 48
1, 376221, Note_off_c, 0, 57, 33
1, 376222, Note_on_c, 0, 64, 54
1, 376228, Note_off_c, 0, 91, 33
1, 376301, Note_off_c, 0, 69, 57
1, 376431, Control_c, 0, 64, 99
1, 376445, Control_c, 0, 64, 79
1, 376459, Note_on_c, 0, 67, 58
1, 376460, Note_on_c, 0, 91, 58
1, 376460, Control_c, 0, 64, 63
1, 376463, Note_on_c, 0, 85, 46
1, 376465, Note_on_c, 0, 57, 46
1, 376475, Control_c, 0, 64, 37
1, 376490, Control_c, 0, 64, 0
1, 376495, Note_off_c, 0, 93, 34
1, 376496, Note_off_c, 0, 64, 35
1, 376509, Note_off_c, 0, 81, 37
1, 376535, Control_c, 0, 64, 30
1, 376550, Control_c, 0, 64, 55
1, 376564, Control_c, 0, 64, 65
1, 376579, Control_c, 0, 64, 74
1, 376594, Control_c, 0, 64, 84
1, 376609, Control_c, 0, 64, 91
1, 376624, Control_c, 0, 64, 94
1, 376639, Control_c, 0, 64, 97
1, 376653, Control_c, 0, 64, 100
1, 376668, Control_c, 0, 64, 105
1, 376683, Control_c, 0, 64, 111
1, 376697, Control_c, 0, 64, 119
1, 376712, Control_c, 0, 64, 127
1, 376719, Note_off_c, 0, 67, 36
1, 376724, Note_on_c, 0, 61, 43
1, 376739, Note_off_c, 0, 57, 40
1, 376740, Note_on_c, 0, 81, 43
1, 376761, Note_off_c, 0, 85, 40
1, 376789, Note_off_c, 0, 61, 54
1, 376936, Note_off_c, 0, 81, 37
1, 376980, Control_c, 0, 64, 118
1, 376994, Control_c, 0, 64, 95
1, 377000, Note_on_c, 0, 66, 65
1, 377009, Control_c, 0, 64, 75
1, 377015, Note_on_c, 0, 57, 50
1, 377018, Note_on_c, 0, 90, 59
1, 377024, Control_c, 0, 64, 58
1, 377044, Note_on_c, 0, 86, 39
1, 377047, Control_c, 0, 64, 26
1, 377062, Control_c, 0, 64, 0
1, 377076, Control_c, 0, 64, 34
1, 377080, Note_off_c, 0, 91, 34
1, 377091, Control_c, 0, 64, 57
1, 377106, Control_c, 0, 64, 67
1, 377120, Control_c, 0, 64, 79
1, 377135, Control_c, 0, 64, 102
1, 377150, Control_c, 0, 64, 127
1, 377267, Note_off_c, 0, 86, 39
1, 377280, Note_off_c, 0, 57, 38
1, 377307, Note_on_c, 0, 81, 42
1, 377309, Note_on_c, 0, 62, 42
1, 377387, Note_off_c, 0, 62, 44
1, 377402, Note_off_c, 0, 66, 48
1, 377498, Note_on_c, 0, 85, 46
1, 377501, Note_on_c, 0, 55, 46
1, 377501, Note_off_c, 0, 90, 55
1, 377512, Note_off_c, 0, 81, 40
1, 377681, Note_off_c, 0, 55, 32
1, 377712, Note_off_c, 0, 85, 60
1, 377725, Note_on_c, 0, 88, 58
1, 377735, Note_on_c, 0, 61, 50
1, 377738, Note_on_c, 0, 64, 49
1, 377741, Note_on_c, 0, 79, 44
1, 377785, Note_off_c, 0, 64, 59
1, 377846, Note_off_c, 0, 61, 54
1, 377970, Note_off_c, 0, 88, 51
1, 377972, Control_c, 0, 64, 117
1, 377977, Note_on_c, 0, 62, 60
1, 377986, Note_on_c, 0, 86, 58
1, 377987, Control_c, 0, 64, 93
1, 377991, Note_on_c, 0, 54, 45
1, 378002, Control_c, 0, 64, 73
1, 378004, Note_on_c, 0, 81, 45
1, 378007, Note_off_c, 0, 79, 40
1, 378016, Control_c, 0, 64, 48
1, 378031, Control_c, 0, 64, 0
1, 378076, Note_off_c, 0, 81, 0
1, 378091, Control_c, 0, 64, 11
1, 378106, Control_c, 0, 64, 45
1, 378113, Poly_aftertouch_c, 0, 81, 127
1, 378120, Control_c, 0, 64, 58
1, 378135, Control_c, 0, 64, 64
1, 378150, Control_c, 0, 64, 69
1, 378165, Control_c, 0, 64, 74
1, 378180, Control_c, 0, 64, 78
1, 378195, Control_c, 0, 64, 84
1, 378210, Control_c, 0, 64, 90
1, 378224, Control_c, 0, 64, 96
1, 378234, Note_on_c, 0, 57, 45
1, 378235, Note_on_c, 0, 78, 44
1, 378239, Control_c, 0, 64, 103
1, 378254, Control_c, 0, 64, 115
1, 378268, Control_c, 0, 64, 127
1, 378280, Poly_aftertouch_c, 0, 81, 0
1, 378294, Note_off_c, 0, 54, 39
1, 378347, Note_off_c, 0, 57, 51
1, 378424, Note_off_c, 0, 62, 34
1, 378476, Note_off_c, 0, 86, 55
1, 378480, Note_off_c, 0, 78, 33
1, 378493, Note_on_c, 0, 61, 49
1, 378496, Note_on_c, 0, 54, 48
1, 378503, Note_on_c, 0, 85, 54
1, 378510, Note_on_c, 0, 81, 44
1, 378522, Control_c, 0, 64, 98
1, 378544, Control_c, 0, 64, 77
1, 378559, Control_c, 0, 64, 61
1, 378574, Control_c, 0, 64, 12
1, 378588, Control_c, 0, 64, 0
1, 378648, Control_c, 0, 64, 37
1, 378663, Control_c, 0, 64, 60
1, 378678, Control_c, 0, 64, 73
1, 378693, Control_c, 0, 64, 86
1, 378707, Control_c, 0, 64, 100
1, 378722, Control_c, 0, 64, 109
1, 378737, Control_c, 0, 64, 127
1, 378767, Note_on_c, 0, 78, 47
1, 378770, Note_on_c, 0, 57, 42
1, 378776, Note_off_c, 0, 81, 39
1, 378799, Note_off_c, 0, 54, 56
1, 378799, Note_off_c, 0, 85, 61
1, 378820, Note_off_c, 0, 57, 60
1, 378822, Note_off_c, 0, 78, 55
1, 378849, Note_off_c, 0, 61, 59
1, 379134, Note_on_c, 0, 68, 62
1, 379142, Note_on_c, 0, 92, 55
1, 379145, Note_on_c, 0, 56, 55
1, 379152, Note_on_c, 0, 84, 48
1, 379167, Control_c, 0, 64, 120
1, 379182, Control_c, 0, 64, 100
1, 379196, Control_c, 0, 64, 86
1, 379211, Control_c, 0, 64, 75
1, 379226, Control_c, 0, 64, 64
1, 379241, Control_c, 0, 64, 28
1, 379256, Control_c, 0, 64, 0
1, 379366, Control_c, 0, 64, 47
1, 379381, Control_c, 0, 64, 62
1, 379396, Control_c, 0, 64, 67
1, 379411, Control_c, 0, 64, 71
1, 379416, Note_on_c, 0, 80, 46
1, 379424, Note_off_c, 0, 84, 53
1, 379426, Control_c, 0, 64, 75
1, 379428, Note_on_c, 0, 60, 43
1, 379441, Control_c, 0, 64, 83
1, 379456, Control_c, 0, 64, 91
1, 379470, Control_c, 0, 64, 101
1, 379485, Control_c, 0, 64, 113
1, 379489, Note_off_c, 0, 56, 37
1, 379500, Control_c, 0, 64, 127
1, 379638, Note_off_c, 0, 92, 51
1, 379648, Note_on_c, 0, 56, 38
1, 379658, Note_on_c, 0, 85, 48
1, 379662, Note_off_c, 0, 68, 37
1, 379682, Note_off_c, 0, 60, 23
1, 379712, Note_off_c, 0, 80, 42
1, 379870, Note_on_c, 0, 80, 46
1, 379871, Note_on_c, 0, 67, 57
1, 379875, Note_off_c, 0, 85, 53
1, 379877, Note_on_c, 0, 61, 55
1, 379878, Note_on_c, 0, 91, 49
1, 379880, Note_off_c, 0, 56, 34
1, 380055, Control_c, 0, 64, 122
1, 380070, Control_c, 0, 64, 117
1, 380085, Control_c, 0, 64, 112
1, 380090, Note_off_c, 0, 61, 33
1, 380100, Control_c, 0, 64, 106
1, 380115, Control_c, 0, 64, 98
1, 380117, Note_off_c, 0, 67, 52
1, 380124, Note_on_c, 0, 66, 57
1, 380124, Note_off_c, 0, 91, 41
1, 380125, Note_on_c, 0, 56, 48
1, 380130, Control_c, 0, 64, 89
1, 380135, Note_on_c, 0, 90, 57
1, 380144, Control_c, 0, 64, 79
1, 380145, Note_on_c, 0, 87, 45
1, 380159, Control_c, 0, 64, 68
1, 380174, Control_c, 0, 64, 53
1, 380189, Control_c, 0, 64, 0
1, 380195, Note_off_c, 0, 80, 41
1, 380277, Control_c, 0, 64, 44
1, 380292, Control_c, 0, 64, 62
1, 380307, Control_c, 0, 64, 69
1, 380322, Control_c, 0, 64, 75
1, 380336, Control_c, 0, 64, 82
1, 380351, Control_c, 0, 64, 87
1, 380355, Note_on_c, 0, 68, 56
1, 380355, Note_off_c, 0, 87, 44
1, 380360, Note_on_c, 0, 63, 49
1, 380360, Note_off_c, 0, 56, 33
1, 380362, Note_off_c, 0, 90, 53
1, 380366, Control_c, 0, 64, 92
1, 380373, Note_on_c, 0, 92, 58
1, 380374, Note_off_c, 0, 66, 54
1, 380381, Control_c, 0, 64, 98
1, 380387, Note_on_c, 0, 80, 48
1, 380396, Control_c, 0, 64, 109
1, 380410, Control_c, 0, 64, 127
1, 380521, Note_off_c, 0, 68, 60
1, 380589, Control_c, 0, 64, 113
1, 380604, Control_c, 0, 64, 94
1, 380618, Control_c, 0, 64, 77
1, 380628, Note_on_c, 0, 66, 52
1, 380630, Note_on_c, 0, 90, 56
1, 380633, Control_c, 0, 64, 63
1, 380633, Note_on_c, 0, 56, 49
1, 380636, Note_on_c, 0, 84, 44
1, 380646, Note_off_c, 0, 63, 34
1, 380648, Control_c, 0, 64, 41
1, 380662, Control_c, 0, 64, 0
1, 380667, Note_off_c, 0, 80, 36
1, 380677, Control_c, 0, 64, 14
1, 380680, Note_off_c, 0, 92, 36
1, 380692, Control_c, 0, 64, 40
1, 380708, Control_c, 0, 64, 54
1, 380723, Control_c, 0, 64, 61
1, 380738, Control_c, 0, 64, 65
1, 380753, Control_c, 0, 64, 71
1, 380767, Control_c, 0, 64, 81
1, 380789, Control_c, 0, 64, 91
1, 380804, Control_c, 0, 64, 99
1, 380819, Control_c, 0, 64, 103
1, 380834, Control_c, 0, 64, 105
1, 380848, Control_c, 0, 64, 106
1, 380863, Control_c, 0, 64, 108
1, 380875, Note_off_c, 0, 56, 36
1, 380878, Control_c, 0, 64, 114
1, 380880, Note_on_c, 0, 60, 48
1, 380889, Note_on_c, 0, 80, 49
1, 380892, Note_off_c, 0, 90, 36
1, 380893, Control_c, 0, 64, 127
1, 380902, Note_off_c, 0, 84, 40
1, 380977, Note_off_c, 0, 66, 37
1, 381037, Note_off_c, 0, 60, 36
1, 381100, Control_c, 0, 64, 121
1, 381115, Control_c, 0, 64, 105
1, 381130, Control_c, 0, 64, 89
1, 381137, Note_on_c, 0, 64, 52
1, 381139, Note_on_c, 0, 88, 58
1, 381145, Note_on_c, 0, 56, 42
1, 381145, Control_c, 0, 64, 72
1, 381152, Note_on_c, 0, 85, 50
1, 381159, Control_c, 0, 64, 61
1, 381174, Control_c, 0, 64, 39
1, 381177, Note_off_c, 0, 80, 36
1, 381189, Control_c, 0, 64, 0
1, 381248, Control_c, 0, 64, 49
1, 381263, Control_c, 0, 64, 63
1, 381278, Control_c, 0, 64, 71
1, 381292, Control_c, 0, 64, 80
1, 381308, Control_c, 0, 64, 90
1, 381323, Control_c, 0, 64, 95
1, 381338, Control_c, 0, 64, 98
1, 381353, Control_c, 0, 64, 102
1, 381367, Control_c, 0, 64, 107
1, 381382, Control_c, 0, 64, 113
1, 381397, Control_c, 0, 64, 121
1, 381402, Note_on_c, 0, 80, 46
1, 381405, Note_off_c, 0, 85, 35
1, 381411, Control_c, 0, 64, 127
1, 381426, Note_on_c, 0, 61, 42
1, 381470, Note_off_c, 0, 64, 51
1, 381476, Note_off_c, 0, 56, 40
1, 381510, Note_off_c, 0, 61, 52
1, 381630, Note_on_c, 0, 84, 50
1, 381639, Note_on_c, 0, 54, 40
1, 381661, Note_off_c, 0, 80, 34
1, 381823, Note_off_c, 0, 88, 50
1, 381838, Note_off_c, 0, 84, 56
1, 381846, Note_on_c, 0, 63, 55
1, 381850, Note_on_c, 0, 60, 51
1, 381850, Note_on_c, 0, 78, 52
1, 381852, Note_on_c, 0, 87, 47
1, 381853, Note_off_c, 0, 54, 42
1, 381904, Note_off_c, 0, 63, 48
1, 381904, Note_off_c, 0, 87, 57
1, 382087, Control_c, 0, 64, 112
1, 382102, Control_c, 0, 64, 90
1, 382115, Note_on_c, 0, 52, 49
1, 382115, Note_on_c, 0, 80, 52
1, 382115, Note_on_c, 0, 85, 52
1, 382116, Control_c, 0, 64, 73
1, 382120, Note_on_c, 0, 61, 49
1, 382129, Note_off_c, 0, 60, 39
1, 382131, Control_c, 0, 64, 58
1, 382143, Note_off_c, 0, 78, 36
1, 382146, Control_c, 0, 64, 0
1, 382220, Control_c, 0, 64, 35
1, 382234, Control_c, 0, 64, 57
1, 382249, Control_c, 0, 64, 66
1, 382264, Control_c, 0, 64, 73
1, 382287, Control_c, 0, 64, 81
1, 382302, Control_c, 0, 64, 85
1, 382318, Control_c, 0, 64, 88
1, 382332, Control_c, 0, 64, 90
1, 382343, Note_off_c, 0, 61, 37
1, 382347, Control_c, 0, 64, 93
1, 382353, Note_off_c, 0, 80, 52
1, 382362, Control_c, 0, 64, 97
1, 382377, Control_c, 0, 64, 102
1, 382387, Note_on_c, 0, 76, 46
1, 382392, Note_on_c, 0, 56, 44
1, 382392, Control_c, 0, 64, 112
1, 382407, Control_c, 0, 64, 127
1, 382416, Note_off_c, 0, 52, 33
1, 382587, Note_off_c, 0, 56, 32
1, 382636, Note_on_c, 0, 59, 41
1, 382643, Note_on_c, 0, 52, 36
1, 382643, Control_c, 0, 64, 119
1, 382646, Note_off_c, 0, 85, 36
1, 382649, Note_on_c, 0, 83, 44
1, 382652, Note_off_c, 0, 76, 37
1, 382653, Note_on_c, 0, 79, 40
1, 382657, Control_c, 0, 64, 105
1, 382672, Control_c, 0, 64, 90
1, 382687, Control_c, 0, 64, 72
1, 382702, Control_c, 0, 64, 59
1, 382717, Control_c, 0, 64, 33
1, 382732, Control_c, 0, 64, 0
1, 382777, Control_c, 0, 64, 53
1, 382792, Control_c, 0, 64, 65
1, 382806, Control_c, 0, 64, 75
1, 382821, Control_c, 0, 64, 90
1, 382836, Control_c, 0, 64, 112
1, 382851, Control_c, 0, 64, 127
1, 382923, Note_on_c, 0, 55, 38
1, 382930, Note_on_c, 0, 76, 42
1, 382932, Note_off_c, 0, 52, 50
1, 382940, Note_off_c, 0, 59, 52
1, 382958, Note_off_c, 0, 79, 49
1, 382963, Note_off_c, 0, 76, 59
1, 382970, Note_off_c, 0, 55, 57
1, 382973, Note_off_c, 0, 83, 60
1, 383304, Note_on_c, 0, 90, 74
1, 383314, Note_on_c, 0, 66, 48
1, 383314, Note_on_c, 0, 82, 57
1, 383325, Note_on_c, 0, 54, 45
1, 383362, Control_c, 0, 64, 103
1, 383377, Control_c, 0, 64, 81
1, 383392, Control_c, 0, 64, 65
1, 383407, Control_c, 0, 64, 42
1, 383422, Control_c, 0, 64, 0
1, 383466, Control_c, 0, 64, 34
1, 383481, Control_c, 0, 64, 58
1, 383495, Control_c, 0, 64, 69
1, 383510, Control_c, 0, 64, 81
1, 383525, Control_c, 0, 64, 106
1, 383540, Control_c, 0, 64, 127
1, 383620, Note_on_c, 0, 58, 38
1, 383625, Note_on_c, 0, 78, 45
1, 383637, Note_off_c, 0, 54, 37
1, 383810, Note_off_c, 0, 66, 37
1, 383838, Note_off_c, 0, 90, 53
1, 383862, Note_on_c, 0, 54, 34
1, 383871, Note_on_c, 0, 85, 48
1, 383938, Note_off_c, 0, 78, 37
1, 383945, Note_off_c, 0, 82, 40
1, 383946, Note_off_c, 0, 58, 23
1, 384078, Note_off_c, 0, 54, 34
1, 384097, Note_on_c, 0, 64, 41
1, 384099, Note_on_c, 0, 88, 69
1, 384116, Note_on_c, 0, 61, 44
1, 384121, Note_on_c, 0, 78, 51
1, 384148, Note_off_c, 0, 85, 23
1, 384158, Note_off_c, 0, 64, 53
1, 384207, Note_off_c, 0, 78, 43
1, 384284, Note_off_c, 0, 61, 28
1, 384333, Control_c, 0, 64, 108
1, 384348, Note_on_c, 0, 54, 38
1, 384348, Control_c, 0, 64, 81
1, 384348, Note_on_c, 0, 86, 71
1, 384356, Note_on_c, 0, 83, 56
1, 384357, Note_on_c, 0, 62, 45
1, 384362, Control_c, 0, 64, 63
1, 384377, Control_c, 0, 64, 26
1, 384392, Control_c, 0, 64, 0
1, 384401, Note_off_c, 0, 88, 55
1, 384422, Control_c, 0, 64, 13
1, 384436, Control_c, 0, 64, 55
1, 384451, Control_c, 0, 64, 66
1, 384466, Control_c, 0, 64, 72
1, 384481, Control_c, 0, 64, 78
1, 384496, Control_c, 0, 64, 80
1, 384510, Control_c, 0, 64, 82
1, 384517, Note_off_c, 0, 54, 41
1, 384532, Control_c, 0, 64, 86
1, 384547, Control_c, 0, 64, 91
1, 384552, Note_off_c, 0, 83, 60
1, 384562, Control_c, 0, 64, 98
1, 384577, Control_c, 0, 64, 109
1, 384592, Control_c, 0, 64, 127
1, 384595, Note_on_c, 0, 85, 72
1, 384600, Note_on_c, 0, 61, 46
1, 384609, Note_on_c, 0, 78, 61
1, 384619, Note_on_c, 0, 59, 31
1, 384640, Note_off_c, 0, 62, 34
1, 384652, Note_off_c, 0, 78, 51
1, 384674, Note_off_c, 0, 86, 56
1, 384741, Note_off_c, 0, 61, 33
1, 384774, Note_off_c, 0, 59, 27
1, 384842, Note_off_c, 0, 85, 46
1, 384856, Note_on_c, 0, 86, 79
1, 384859, Control_c, 0, 64, 95
1, 384867, Note_on_c, 0, 53, 38
1, 384869, Note_on_c, 0, 62, 39
1, 384874, Control_c, 0, 64, 72
1, 384883, Note_on_c, 0, 81, 47
1, 384889, Control_c, 0, 64, 56
1, 384904, Control_c, 0, 64, 0
1, 384942, Note_off_c, 0, 81, 0
1, 384963, Control_c, 0, 64, 52
1, 384978, Control_c, 0, 64, 67
1, 384980, Poly_aftertouch_c, 0, 81, 127
1, 384993, Control_c, 0, 64, 78
1, 385007, Control_c, 0, 64, 96
1, 385022, Control_c, 0, 64, 113
1, 385037, Control_c, 0, 64, 127
1, 385098, Note_on_c, 0, 57, 44
1, 385114, Poly_aftertouch_c, 0, 81, 0
1, 385117, Note_on_c, 0, 77, 50
1, 385126, Note_off_c, 0, 53, 36
1, 385140, Note_off_c, 0, 86, 59
1, 385145, Note_off_c, 0, 62, 39
1, 385163, Note_off_c, 0, 57, 55
1, 385422, Note_on_c, 0, 64, 35
1, 385422, Note_on_c, 0, 88, 76
1, 385429, Note_on_c, 0, 52, 37
1, 385435, Note_on_c, 0, 80, 61
1, 385445, Control_c, 0, 64, 95
1, 385459, Control_c, 0, 64, 76
1, 385474, Note_off_c, 0, 77, 55
1, 385474, Control_c, 0, 64, 61
1, 385489, Control_c, 0, 64, 25
1, 385505, Control_c, 0, 64, 0
1, 385535, Control_c, 0, 64, 37
1, 385550, Control_c, 0, 64, 63
1, 385564, Control_c, 0, 64, 73
1, 385579, Control_c, 0, 64, 92
1, 385594, Control_c, 0, 64, 127
1, 385703, Note_on_c, 0, 56, 36
1, 385705, Note_on_c, 0, 76, 60
1, 385746, Note_off_c, 0, 52, 38
1, 385763, Note_off_c, 0, 80, 51
1, 385764, Note_off_c, 0, 56, 45
1, 385849, Note_off_c, 0, 64, 41
1, 385902, Note_on_c, 0, 83, 66
1, 385925, Note_on_c, 0, 52, 38
1, 385942, Note_off_c, 0, 88, 62
1, 385943, Note_off_c, 0, 76, 59
1, 386023, Note_off_c, 0, 52, 41
1, 386175, Note_on_c, 0, 86, 74
1, 386177, Note_on_c, 0, 62, 40
1, 386179, Note_on_c, 0, 76, 60
1, 386199, Note_on_c, 0, 59, 28
1, 386207, Note_off_c, 0, 83, 60
1, 386231, Note_off_c, 0, 62, 43
1, 386268, Note_off_c, 0, 76, 58
1, 386376, Note_off_c, 0, 59, 38
1, 386446, Note_on_c, 0, 60, 44
1, 386447, Note_on_c, 0, 52, 37
1, 386470, Note_on_c, 0, 84, 72
1, 386474, Note_on_c, 0, 81, 58
1, 386476, Control_c, 0, 64, 90
1, 386491, Control_c, 0, 64, 68
1, 386506, Control_c, 0, 64, 46
1, 386511, Note_off_c, 0, 86, 59
1, 386521, Control_c, 0, 64, 0
1, 386565, Control_c, 0, 64, 40
1, 386580, Control_c, 0, 64, 62
1, 386595, Control_c, 0, 64, 75
1, 386610, Control_c, 0, 64, 96
1, 386624, Control_c, 0, 64, 127
1, 386652, Note_off_c, 0, 60, 34
1, 386694, Note_off_c, 0, 81, 48
1, 386700, Note_off_c, 0, 52, 43
1, 386709, Note_on_c, 0, 59, 35
1, 386712, Note_on_c, 0, 83, 67
1, 386714, Note_on_c, 0, 57, 36
1, 386722, Note_on_c, 0, 76, 55
1, 386764, Note_off_c, 0, 84, 58
1, 386808, Note_off_c, 0, 59, 48
1, 386929, Note_off_c, 0, 76, 50
1, 386955, Note_off_c, 0, 57, 37
1, 387002, Control_c, 0, 64, 99
1, 387008, Note_on_c, 0, 60, 39
1, 387010, Note_on_c, 0, 52, 38
1, 387017, Control_c, 0, 64, 74
1, 387031, Control_c, 0, 64, 56
1, 387033, Note_on_c, 0, 84, 58
1, 387046, Control_c, 0, 64, 32
1, 387051, Note_on_c, 0, 79, 43
1, 387054, Note_off_c, 0, 83, 48
1, 387061, Control_c, 0, 64, 46
1, 387076, Control_c, 0, 64, 64
1, 387091, Control_c, 0, 64, 78
1, 387107, Control_c, 0, 64, 127
1, 387149, Note_off_c, 0, 84, 61
1, 387154, Note_on_c, 0, 86, 68
1, 387172, Note_off_c, 0, 79, 47
1, 387250, Note_on_c, 0, 84, 71
1, 387252, Note_off_c, 0, 86, 56
1, 387331, Note_on_c, 0, 55, 44
1, 387346, Note_on_c, 0, 83, 64
1, 387346, Note_off_c, 0, 84, 60
1, 387352, Note_on_c, 0, 76, 51
1, 387358, Note_off_c, 0, 60, 37
1, 387379, Note_off_c, 0, 52, 43
1, 387383, Note_off_c, 0, 55, 59
1, 387388, Note_off_c, 0, 76, 51
1, 387461, Note_on_c, 0, 84, 75
1, 387492, Note_off_c, 0, 83, 62
1, 387672, Note_on_c, 0, 62, 42
1, 387676, Note_on_c, 0, 50, 40
1, 387677, Note_on_c, 0, 86, 73
1, 387682, Note_on_c, 0, 77, 62
1, 387692, Control_c, 0, 64, 88
1, 387707, Control_c, 0, 64, 67
1, 387713, Note_off_c, 0, 84, 57
1, 387722, Control_c, 0, 64, 37
1, 387736, Control_c, 0, 64, 0
1, 387781, Control_c, 0, 64, 52
1, 387796, Control_c, 0, 64, 67
1, 387810, Control_c, 0, 64, 81
1, 387825, Control_c, 0, 64, 105
1, 387840, Control_c, 0, 64, 127
1, 387887, Note_off_c, 0, 62, 37
1, 387922, Note_off_c, 0, 77, 53
1, 387944, Note_on_c, 0, 53, 39
1, 387945, Note_off_c, 0, 50, 37
1, 387959, Note_on_c, 0, 74, 47
1, 388010, Note_off_c, 0, 74, 55
1, 388173, Note_off_c, 0, 53, 38
1, 388208, Note_on_c, 0, 59, 39
1, 388214, Note_on_c, 0, 83, 66
1, 388223, Note_on_c, 0, 50, 35
1, 388229, Note_on_c, 0, 77, 47
1, 388241, Control_c, 0, 64, 101
1, 388256, Control_c, 0, 64, 77
1, 388263, Note_off_c, 0, 86, 52
1, 388277, Control_c, 0, 64, 60
1, 388292, Control_c, 0, 64, 30
1, 388307, Control_c, 0, 64, 11
1, 388322, Control_c, 0, 64, 37
1, 388337, Control_c, 0, 64, 56
1, 388351, Control_c, 0, 64, 65
1, 388366, Control_c, 0, 64, 73
1, 388381, Control_c, 0, 64, 87
1, 388396, Control_c, 0, 64, 116
1, 388411, Control_c, 0, 64, 127
1, 388460, Note_off_c, 0, 59, 37
1, 388473, Note_on_c, 0, 81, 70
1, 388476, Note_off_c, 0, 77, 40
1, 388479, Note_on_c, 0, 74, 52
1, 388483, Note_on_c, 0, 57, 44
1, 388495, Note_on_c, 0, 53, 36
1, 388513, Note_off_c, 0, 83, 56
1, 388518, Note_off_c, 0, 74, 61
1, 388530, Note_off_c, 0, 53, 58
1, 388533, Note_off_c, 0, 57, 56
1, 388542, Note_off_c, 0, 50, 39
1, 388747, Note_on_c, 0, 56, 54
1, 388753, Control_c, 0, 64, 96
1, 388761, Note_on_c, 0, 80, 63
1, 388762, Note_on_c, 0, 52, 38
1, 388768, Control_c, 0, 64, 75
1, 388782, Control_c, 0, 64, 53
1, 388792, Note_off_c, 0, 81, 59
1, 388797, Control_c, 0, 64, 0
1, 388856, Control_c, 0, 64, 47
1, 388871, Control_c, 0, 64, 66
1, 388886, Control_c, 0, 64, 78
1, 388896, Note_off_c, 0, 56, 57
1, 388900, Control_c, 0, 64, 100
1, 388915, Control_c, 0, 64, 127
1, 389063, Note_on_c, 0, 83, 72
1, 389065, Note_off_c, 0, 80, 39
1, 389068, Note_on_c, 0, 56, 40
1, 389075, Note_on_c, 0, 59, 49
1, 389081, Note_on_c, 0, 76, 51
1, 389091, Note_off_c, 0, 52, 42
1, 389107, Note_off_c, 0, 76, 57
1, 389161, Note_off_c, 0, 59, 47
1, 389214, Note_off_c, 0, 56, 37
1, 389308, Control_c, 0, 64, 108
1, 389311, Note_on_c, 0, 88, 73
1, 389323, Control_c, 0, 64, 81
1, 389325, Note_on_c, 0, 52, 42
1, 389326, Note_on_c, 0, 80, 57
1, 389333, Note_on_c, 0, 64, 46
1, 389338, Control_c, 0, 64, 62
1, 389353, Control_c, 0, 64, 0
1, 389362, Note_off_c, 0, 83, 57
1, 389397, Control_c, 0, 64, 51
1, 389412, Control_c, 0, 64, 68
1, 389426, Control_c, 0, 64, 85
1, 389431, Note_off_c, 0, 64, 58
1, 389441, Control_c, 0, 64, 127
1, 389481, Note_off_c, 0, 88, 60
1, 389543, Note_off_c, 0, 52, 38
1, 389594, Note_on_c, 0, 86, 74
1, 389601, Note_on_c, 0, 76, 55
1, 389601, Note_off_c, 0, 80, 59
1, 389607, Note_on_c, 0, 56, 38
1, 389610, Note_on_c, 0, 62, 40
1, 389640, Note_off_c, 0, 76, 53
1, 389674, Note_off_c, 0, 56, 47
1, 389836, Note_off_c, 0, 62, 34
1, 389895, Note_on_c, 0, 61, 39
1, 389907, Note_on_c, 0, 52, 39
1, 389911, Note_on_c, 0, 85, 70
1, 389937, Note_on_c, 0, 81, 51
1, 389938, Control_c, 0, 64, 95
1, 389945, Note_off_c, 0, 86, 62
1, 389953, Control_c, 0, 64, 74
1, 389968, Control_c, 0, 64, 56
1, 389983, Control_c, 0, 64, 0
1, 390027, Control_c, 0, 64, 50
1, 390042, Control_c, 0, 64, 66
1, 390056, Control_c, 0, 64, 78
1, 390071, Control_c, 0, 64, 97
1, 390086, Control_c, 0, 64, 127
1, 390184, Note_off_c, 0, 52, 19
1, 390222, Note_on_c, 0, 57, 37
1, 390270, Note_on_c, 0, 76, 40
1, 390373, Note_off_c, 0, 81, 40
1, 390431, Note_off_c, 0, 85, 56
1, 390476, Note_off_c, 0, 61, 40
1, 390569, Control_c, 0, 64, 110
1, 390575, Note_on_c, 0, 62, 34
1, 390576, Note_on_c, 0, 52, 41
1, 390577, Note_off_c, 0, 57, 38
1, 390584, Control_c, 0, 64, 83
1, 390598, Control_c, 0, 64, 60
1, 390613, Control_c, 0, 64, 23
1, 390622, Note_on_c, 0, 86, 55
1, 390624, Note_on_c, 0, 83, 37
1, 390628, Control_c, 0, 64, 42
1, 390643, Control_c, 0, 64, 62
1, 390658, Control_c, 0, 64, 75
1, 390670, Note_off_c, 0, 86, 62
1, 390673, Control_c, 0, 64, 107
1, 390687, Control_c, 0, 64, 127
1, 390699, Note_on_c, 0, 88, 62
1, 390754, Note_off_c, 0, 88, 61
1, 390768, Note_on_c, 0, 86, 51
1, 390792, Note_off_c, 0, 86, 56
1, 390798, Note_off_c, 0, 83, 0
1, 390828, Note_on_c, 0, 88, 51
1, 390829, Note_off_c, 0, 52, 31
1, 390834, Note_off_c, 0, 76, 40
1, 390835, Poly_aftertouch_c, 0, 83, 127
1, 390869, Note_on_c, 0, 86, 72
1, 390876, Note_off_c, 0, 88, 57
1, 390929, Note_on_c, 0, 59, 37
1, 390944, Note_on_c, 0, 76, 53
1, 390957, Note_off_c, 0, 62, 39
1, 391008, Note_off_c, 0, 76, 0
1, 391008, Note_on_c, 0, 76, 18
1, 391021, Poly_aftertouch_c, 0, 83, 0
1, 391420, Note_off_c, 0, 59, 36
1, 391429, Note_on_c, 0, 52, 37
1, 391436, Note_on_c, 0, 88, 66
1, 391444, Note_on_c, 0, 64, 34
1, 391447, Note_on_c, 0, 85, 54
1, 391472, Note_off_c, 0, 86, 57
1, 391481, Control_c, 0, 64, 116
1, 391495, Control_c, 0, 64, 90
1, 391510, Control_c, 0, 64, 72
1, 391525, Control_c, 0, 64, 56
1, 391540, Control_c, 0, 64, 20
1, 391555, Control_c, 0, 64, 0
1, 391599, Control_c, 0, 64, 38
1, 391614, Control_c, 0, 64, 60
1, 391628, Control_c, 0, 64, 69
1, 391643, Control_c, 0, 64, 78
1, 391658, Control_c, 0, 64, 83
1, 391673, Control_c, 0, 64, 84
1, 391688, Control_c, 0, 64, 86
1, 391702, Control_c, 0, 64, 90
1, 391717, Control_c, 0, 64, 95
1, 391732, Control_c, 0, 64, 98
1, 391747, Control_c, 0, 64, 99
1, 391762, Control_c, 0, 64, 100
1, 391776, Control_c, 0, 64, 100
1, 391791, Control_c, 0, 64, 101
1, 391806, Control_c, 0, 64, 101
1, 391820, Control_c, 0, 64, 102
1, 391880, Control_c, 0, 64, 102
1, 392072, Note_on_c, 0, 61, 31
1, 392214, Control_c, 0, 64, 103
1, 392402, Note_off_c, 0, 52, 35
1, 392505, Note_off_c, 0, 76, 24
1, 392716, Note_off_c, 0, 64, 41
1, 392727, Note_off_c, 0, 61, 40
1, 393102, Note_off_c, 0, 85, 34
1, 393126, Control_c, 0, 64, 102
1, 393170, Control_c, 0, 64, 102
1, 393214, Control_c, 0, 64, 101
1, 393244, Control_c, 0, 64, 101
1, 393273, Control_c, 0, 64, 100
1, 393303, Control_c, 0, 64, 100
1, 393318, Control_c, 0, 64, 99
1, 393362, Control_c, 0, 64, 99
1, 393377, Control_c, 0, 64, 98
1, 393392, Control_c, 0, 64, 98
1, 393421, Control_c, 0, 64, 97
1, 393448, Note_off_c, 0, 88, 35
1, 393451, Control_c, 0, 64, 97
1, 393481, Control_c, 0, 64, 96
1, 393534, Control_c, 0, 64, 96
1, 393549, Control_c, 0, 64, 95
1, 393564, Control_c, 0, 64, 92
1, 393578, Control_c, 0, 64, 90
1, 393593, Control_c, 0, 64, 88
1, 393608, Control_c, 0, 64, 86
1, 393622, Control_c, 0, 64, 84
1, 393637, Control_c, 0, 64, 81
1, 393652, Control_c, 0, 64, 75
1, 393667, Control_c, 0, 64, 72
1, 393682, Control_c, 0, 64, 69
1, 393696, Control_c, 0, 64, 68
1, 393711, Control_c, 0, 64, 67
1, 393726, Control_c, 0, 64, 65
1, 393741, Control_c, 0, 64, 63
1, 393756, Control_c, 0, 64, 62
1, 393770, Control_c, 0, 64, 61
1, 393785, Control_c, 0, 64, 60
1, 393800, Control_c, 0, 64, 58
1, 393815, Control_c, 0, 64, 56
1, 393830, Control_c, 0, 64, 54
1, 393845, Control_c, 0, 64, 50
1, 393860, Control_c, 0, 64, 48
1, 393875, Control_c, 0, 64, 47
1, 393889, Control_c, 0, 64, 44
1, 393904, Control_c, 0, 64, 38
1, 393919, Control_c, 0, 64, 29
1, 393934, Control_c, 0, 64, 20
1, 393949, Control_c, 0, 64, 17
1, 393964, Control_c, 0, 64, 11
1, 393978, Control_c, 0, 64, 0
1, 394199, Control_c, 0, 64, 26
1, 394214, Control_c, 0, 64, 37
1, 394229, Control_c, 0, 64, 41
1, 394244, Control_c, 0, 64, 46
1, 394259, Control_c, 0, 64, 53
1, 394277, Note_on_c, 0, 57, 36
1, 394281, Control_c, 0, 64, 61
1, 394297, Control_c, 0, 64, 66
1, 394312, Control_c, 0, 64, 72
1, 394326, Control_c, 0, 64, 80
1, 394341, Control_c, 0, 64, 88
1, 394356, Control_c, 0, 64, 96
1, 394371, Control_c, 0, 64, 107
1, 394386, Control_c, 0, 64, 127
1, 394524, Note_off_c, 0, 57, 40
1, 394527, Note_on_c, 0, 64, 39
1, 394555, Note_off_c, 0, 64, 55
1, 394813, Note_on_c, 0, 73, 49
1, 394872, Note_on_c, 0, 69, 41
1, 394989, Note_off_c, 0, 69, 51
1, 395003, Note_on_c, 0, 81, 51
1, 395049, Note_off_c, 0, 81, 60
1, 395055, Note_off_c, 0, 73, 43
1, 395085, Note_on_c, 0, 68, 46
1, 395198, Note_on_c, 0, 88, 61
1, 395257, Note_off_c, 0, 68, 40
1, 395332, Note_off_c, 0, 88, 59
1, 395333, Note_on_c, 0, 69, 49
1, 395333, Note_on_c, 0, 85, 58
1, 395472, Note_on_c, 0, 97, 65
1, 395532, Note_on_c, 0, 64, 47
1, 395550, Note_off_c, 0, 69, 35
1, 395613, Note_on_c, 0, 92, 66
1, 395619, Note_off_c, 0, 97, 62
1, 395634, Note_off_c, 0, 85, 63
1, 395644, Note_off_c, 0, 92, 64
1, 395753, Note_on_c, 0, 81, 63
1, 395757, Control_c, 0, 64, 94
1, 395769, Note_on_c, 0, 66, 55
1, 395779, Control_c, 0, 64, 70
1, 395794, Control_c, 0, 64, 47
1, 395796, Note_off_c, 0, 64, 53
1, 395809, Control_c, 0, 64, 32
1, 395824, Control_c, 0, 64, 51
1, 395839, Control_c, 0, 64, 63
1, 395854, Control_c, 0, 64, 71
1, 395868, Control_c, 0, 64, 86
1, 395883, Control_c, 0, 64, 127
1, 395908, Note_on_c, 0, 93, 60
1, 395926, Note_off_c, 0, 81, 60
1, 395940, Note_off_c, 0, 66, 64
1, 396030, Note_on_c, 0, 88, 67
1, 396054, Note_off_c, 0, 93, 36
1, 396180, Control_c, 0, 64, 100
1, 396194, Note_on_c, 0, 57, 40
1, 396195, Control_c, 0, 64, 80
1, 396203, Note_on_c, 0, 78, 50
1, 396209, Control_c, 0, 64, 65
1, 396217, Note_on_c, 0, 90, 62
1, 396224, Control_c, 0, 64, 41
1, 396239, Control_c, 0, 64, 0
1, 396249, Note_off_c, 0, 88, 52
1, 396269, Control_c, 0, 64, 37
1, 396284, Control_c, 0, 64, 54
1, 396298, Control_c, 0, 64, 63
1, 396313, Control_c, 0, 64, 72
1, 396328, Control_c, 0, 64, 90
1, 396343, Control_c, 0, 64, 127
1, 396386, Note_off_c, 0, 90, 63
1, 396404, Note_off_c, 0, 78, 59
1, 396409, Note_on_c, 0, 64, 49
1, 396438, Note_off_c, 0, 64, 62
1, 396450, Note_off_c, 0, 57, 40
1, 396728, Note_on_c, 0, 72, 52
1, 396750, Note_on_c, 0, 69, 44
1, 396855, Note_off_c, 0, 69, 64
1, 396882, Note_on_c, 0, 81, 50
1, 396918, Note_off_c, 0, 81, 59
1, 396956, Note_off_c, 0, 72, 32
1, 396980, Note_on_c, 0, 68, 45
1, 397043, Note_on_c, 0, 88, 68
1, 397102, Note_off_c, 0, 68, 35
1, 397171, Note_on_c, 0, 84, 65
1, 397176, Note_off_c, 0, 88, 59
1, 397181, Note_on_c, 0, 69, 50
1, 397308, Note_on_c, 0, 96, 66
1, 397377, Note_off_c, 0, 69, 37
1, 397390, Note_on_c, 0, 64, 52
1, 397437, Note_on_c, 0, 92, 70
1, 397443, Note_off_c, 0, 96, 61
1, 397446, Note_off_c, 0, 84, 63
1, 397480, Note_off_c, 0, 92, 61
1, 397559, Control_c, 0, 64, 113
1, 397574, Control_c, 0, 64, 83
1, 397588, Note_on_c, 0, 81, 64
1, 397589, Control_c, 0, 64, 65
1, 397589, Note_on_c, 0, 66, 49
1, 397604, Control_c, 0, 64, 46
1, 397619, Control_c, 0, 64, 35
1, 397633, Control_c, 0, 64, 43
1, 397638, Note_off_c, 0, 64, 37
1, 397648, Control_c, 0, 64, 59
1, 397663, Control_c, 0, 64, 68
1, 397678, Control_c, 0, 64, 79
1, 397693, Control_c, 0, 64, 107
1, 397708, Control_c, 0, 64, 127
1, 397727, Note_on_c, 0, 93, 69
1, 397779, Note_off_c, 0, 81, 59
1, 397810, Note_off_c, 0, 66, 64
1, 397877, Note_on_c, 0, 88, 69
1, 397883, Note_off_c, 0, 93, 56
1, 398042, Control_c, 0, 64, 109
1, 398048, Note_on_c, 0, 56, 35
1, 398057, Control_c, 0, 64, 84
1, 398071, Note_on_c, 0, 78, 49
1, 398071, Control_c, 0, 64, 67
1, 398077, Note_on_c, 0, 90, 62
1, 398086, Control_c, 0, 64, 52
1, 398096, Note_off_c, 0, 88, 50
1, 398101, Control_c, 0, 64, 37
1, 398116, Control_c, 0, 64, 35
1, 398131, Control_c, 0, 64, 43
1, 398145, Control_c, 0, 64, 54
1, 398160, Control_c, 0, 64, 63
1, 398175, Control_c, 0, 64, 70
1, 398189, Control_c, 0, 64, 86
1, 398204, Control_c, 0, 64, 127
1, 398245, Note_off_c, 0, 90, 62
1, 398259, Note_off_c, 0, 78, 60
1, 398278, Note_on_c, 0, 63, 56
1, 398307, Note_off_c, 0, 56, 41
1, 398514, Note_off_c, 0, 63, 39
1, 398525, Note_on_c, 0, 71, 44
1, 398542, Note_on_c, 0, 68, 44
1, 398621, Note_off_c, 0, 68, 63
1, 398660, Note_on_c, 0, 80, 66
1, 398691, Note_off_c, 0, 80, 63
1, 398772, Note_on_c, 0, 66, 43
1, 398793, Note_off_c, 0, 71, 33
1, 398813, Note_on_c, 0, 87, 75
1, 398951, Note_on_c, 0, 68, 44
1, 398952, Note_on_c, 0, 83, 62
1, 398965, Note_off_c, 0, 87, 61
1, 399021, Note_off_c, 0, 66, 43
1, 399095, Note_on_c, 0, 95, 67
1, 399163, Note_on_c, 0, 63, 50
1, 399171, Note_off_c, 0, 83, 59
1, 399227, Note_off_c, 0, 68, 36
1, 399231, Note_off_c, 0, 63, 50
1, 399234, Note_off_c, 0, 95, 65
1, 399236, Note_on_c, 0, 90, 69
1, 399284, Note_off_c, 0, 90, 60
1, 399368, Control_c, 0, 64, 101
1, 399378, Note_on_c, 0, 80, 64
1, 399379, Note_on_c, 0, 64, 47
1, 399383, Control_c, 0, 64, 76
1, 399398, Control_c, 0, 64, 57
1, 399413, Control_c, 0, 64, 0
1, 399442, Control_c, 0, 64, 34
1, 399457, Control_c, 0, 64, 61
1, 399472, Control_c, 0, 64, 71
1, 399487, Control_c, 0, 64, 85
1, 399502, Control_c, 0, 64, 127
1, 399519, Note_on_c, 0, 92, 67
1, 399542, Note_off_c, 0, 64, 64
1, 399663, Note_on_c, 0, 87, 67
1, 399672, Note_off_c, 0, 92, 63
1, 399684, Note_off_c, 0, 80, 62
1, 399690, Note_off_c, 0, 87, 68
1, 399845, Note_on_c, 0, 52, 45
1, 399848, Note_on_c, 0, 76, 55
1, 399864, Control_c, 0, 64, 101
1, 399880, Control_c, 0, 64, 81
1, 399895, Control_c, 0, 64, 66
1, 399905, Note_on_c, 0, 88, 57
1, 399910, Control_c, 0, 64, 45
1, 399925, Control_c, 0, 64, 0
1, 399954, Control_c, 0, 64, 13
1, 399969, Control_c, 0, 64, 51
1, 399983, Control_c, 0, 64, 65
1, 399998, Control_c, 0, 64, 76
1, 400013, Control_c, 0, 64, 99
1, 400028, Control_c, 0, 64, 127
1, 400043, Note_off_c, 0, 88, 62
1, 400055, Note_off_c, 0, 76, 65
1, 400075, Note_on_c, 0, 59, 46
1, 400084, Note_off_c, 0, 52, 64
1, 400105, Note_off_c, 0, 59, 63
1, 400345, Note_on_c, 0, 68, 52
1, 400365, Note_on_c, 0, 64, 41
1, 400478, Note_off_c, 0, 64, 63
1, 400489, Note_on_c, 0, 76, 56
1, 400523, Note_off_c, 0, 76, 67
1, 400538, Note_off_c, 0, 68, 61
1, 400558, Note_on_c, 0, 63, 53
1, 400656, Note_on_c, 0, 83, 69
1, 400692, Note_off_c, 0, 63, 50
1, 400776, Note_on_c, 0, 80, 71
1, 400788, Note_on_c, 0, 64, 43
1, 400824, Note_off_c, 0, 83, 58
1, 400905, Note_on_c, 0, 92, 74
1, 400983, Note_on_c, 0, 59, 41
1, 400993, Note_off_c, 0, 64, 37
1, 401053, Note_on_c, 0, 87, 69
1, 401073, Note_off_c, 0, 92, 65
1, 401084, Note_off_c, 0, 80, 62
1, 401085, Note_off_c, 0, 87, 60
1, 401184, Control_c, 0, 64, 87
1, 401196, Note_on_c, 0, 62, 43
1, 401199, Control_c, 0, 64, 68
1, 401203, Note_on_c, 0, 76, 62
1, 401214, Control_c, 0, 64, 49
1, 401228, Control_c, 0, 64, 26
1, 401243, Control_c, 0, 64, 22
1, 401258, Control_c, 0, 64, 41
1, 401273, Control_c, 0, 64, 61
1, 401283, Note_off_c, 0, 59, 38
1, 401288, Control_c, 0, 64, 71
1, 401303, Control_c, 0, 64, 92
1, 401318, Control_c, 0, 64, 127
1, 401352, Note_on_c, 0, 88, 64
1, 401430, Note_off_c, 0, 62, 61
1, 401526, Note_on_c, 0, 83, 63
1, 401527, Note_off_c, 0, 88, 58
1, 401540, Note_off_c, 0, 76, 60
1, 401556, Note_off_c, 0, 83, 63
1, 401716, Note_on_c, 0, 57, 40
1, 401726, Note_on_c, 0, 74, 49
1, 401756, Control_c, 0, 64, 109
1, 401771, Control_c, 0, 64, 92
1, 401786, Control_c, 0, 64, 78
1, 401790, Note_on_c, 0, 86, 63
1, 401801, Control_c, 0, 64, 66
1, 401816, Control_c, 0, 64, 50
1, 401830, Control_c, 0, 64, 0
1, 401890, Control_c, 0, 64, 46
1, 401905, Control_c, 0, 64, 65
1, 401919, Control_c, 0, 64, 77
1, 401934, Control_c, 0, 64, 98
1, 401949, Control_c, 0, 64, 127
1, 401972, Note_on_c, 0, 64, 51
1, 401994, Note_off_c, 0, 57, 60
1, 401999, Note_off_c, 0, 86, 61
1, 402012, Note_off_c, 0, 64, 65
1, 402015, Note_off_c, 0, 74, 63
1, 402218, Note_on_c, 0, 73, 48
1, 402242, Note_on_c, 0, 69, 56
1, 402360, Note_off_c, 0, 69, 64
1, 402372, Note_on_c, 0, 81, 65
1, 402392, Note_off_c, 0, 73, 62
1, 402401, Note_off_c, 0, 81, 62
1, 402436, Note_on_c, 0, 68, 48
1, 402532, Note_on_c, 0, 88, 70
1, 402582, Note_off_c, 0, 68, 33
1, 402652, Note_on_c, 0, 69, 50
1, 402656, Note_on_c, 0, 85, 67
1, 402710, Note_off_c, 0, 88, 61
1, 402799, Note_on_c, 0, 97, 64
1, 402851, Note_on_c, 0, 64, 47
1, 402858, Note_off_c, 0, 69, 38
1, 402935, Note_on_c, 0, 92, 72
1, 402936, Note_off_c, 0, 97, 64
1, 402953, Note_off_c, 0, 85, 62
1, 402989, Note_off_c, 0, 92, 64
1, 403067, Control_c, 0, 64, 94
1, 403080, Note_on_c, 0, 66, 45
1, 403080, Note_on_c, 0, 81, 65
1, 403083, Control_c, 0, 64, 72
1, 403097, Control_c, 0, 64, 60
1, 403100, Note_off_c, 0, 64, 43
1, 403112, Control_c, 0, 64, 53
1, 403127, Control_c, 0, 64, 60
1, 403142, Control_c, 0, 64, 68
1, 403157, Control_c, 0, 64, 82
1, 403172, Control_c, 0, 64, 127
1, 403223, Note_on_c, 0, 93, 67
1, 403264, Note_off_c, 0, 66, 64
1, 403277, Note_off_c, 0, 81, 55
1, 403368, Note_on_c, 0, 88, 66
1, 403381, Note_off_c, 0, 93, 51
1, 403505, Control_c, 0, 64, 101
1, 403519, Note_on_c, 0, 57, 43
1, 403520, Note_on_c, 0, 78, 53
1, 403520, Control_c, 0, 64, 78
1, 403535, Control_c, 0, 64, 63
1, 403541, Note_on_c, 0, 90, 60
1, 403549, Control_c, 0, 64, 45
1, 403564, Control_c, 0, 64, 35
1, 403571, Note_off_c, 0, 88, 53
1, 403579, Control_c, 0, 64, 46
1, 403594, Control_c, 0, 64, 61
1, 403608, Control_c, 0, 64, 70
1, 403623, Control_c, 0, 64, 88
1, 403638, Control_c, 0, 64, 127
1, 403665, Note_off_c, 0, 90, 62
1, 403675, Note_off_c, 0, 78, 58
1, 403733, Note_on_c, 0, 64, 42
1, 403744, Note_off_c, 0, 57, 40
1, 403761, Note_off_c, 0, 64, 57
1, 403977, Note_on_c, 0, 72, 44
1, 404008, Note_on_c, 0, 69, 44
1, 404063, Note_off_c, 0, 72, 0
1, 404063, Note_on_c, 0, 72, 3
1, 404117, Note_off_c, 0, 69, 62
1, 404138, Note_on_c, 0, 81, 52
1, 404180, Note_off_c, 0, 72, 40
1, 404183, Note_off_c, 0, 81, 59
1, 404190, Note_on_c, 0, 68, 48
1, 404302, Note_on_c, 0, 88, 64
1, 404353, Note_off_c, 0, 68, 36
1, 404427, Note_on_c, 0, 69, 49
1, 404433, Note_on_c, 0, 84, 66
1, 404454, Note_off_c, 0, 88, 56
1, 404571, Note_on_c, 0, 96, 61
1, 404629, Note_on_c, 0, 64, 45
1, 404637, Note_off_c, 0, 69, 35
1, 404706, Note_off_c, 0, 96, 59
1, 404708, Note_on_c, 0, 92, 68
1, 404714, Note_off_c, 0, 84, 62
1, 404761, Note_off_c, 0, 92, 61
1, 404841, Note_off_c, 0, 64, 51
1, 404859, Note_on_c, 0, 66, 50
1, 404868, Control_c, 0, 64, 92
1, 404871, Note_on_c, 0, 81, 63
1, 404883, Control_c, 0, 64, 71
1, 404898, Control_c, 0, 64, 50
1, 404913, Control_c, 0, 64, 32
1, 404928, Control_c, 0, 64, 33
1, 404943, Control_c, 0, 64, 49
1, 404958, Control_c, 0, 64, 61
1, 404972, Control_c, 0, 64, 69
1, 404987, Control_c, 0, 64, 82
1, 404994, Note_on_c, 0, 93, 71
1, 405002, Control_c, 0, 64, 127
1, 405052, Note_off_c, 0, 66, 64
1, 405052, Note_off_c, 0, 81, 58
1, 405134, Note_on_c, 0, 88, 65
1, 405175, Note_off_c, 0, 93, 55
1, 405327, Control_c, 0, 64, 114
1, 405334, Note_on_c, 0, 56, 25
1, 405342, Control_c, 0, 64, 99
1, 405349, Note_on_c, 0, 78, 57
1, 405357, Control_c, 0, 64, 85
1, 405363, Note_on_c, 0, 90, 69
1, 405372, Control_c, 0, 64, 70
1, 405387, Control_c, 0, 64, 57
1, 405388, Note_off_c, 0, 88, 54
1, 405402, Control_c, 0, 64, 31
1, 405417, Control_c, 0, 64, 0
1, 405446, Control_c, 0, 64, 47
1, 405461, Control_c, 0, 64, 65
1, 405476, Control_c, 0, 64, 77
1, 405499, Control_c, 0, 64, 99
1, 405514, Control_c, 0, 64, 127
1, 405547, Note_off_c, 0, 90, 64
1, 405551, Note_off_c, 0, 78, 60
1, 405577, Note_on_c, 0, 63, 38
1, 405593, Note_off_c, 0, 56, 41
1, 405829, Note_on_c, 0, 71, 43
1, 405833, Note_off_c, 0, 63, 35
1, 405858, Note_on_c, 0, 68, 46
1, 405927, Note_off_c, 0, 68, 58
1, 405992, Note_on_c, 0, 80, 62
1, 406026, Note_off_c, 0, 80, 62
1, 406071, Note_on_c, 0, 66, 46
1, 406113, Note_off_c, 0, 71, 39
1, 406154, Note_on_c, 0, 87, 46
1, 406197, Note_off_c, 0, 87, 0
1, 406234, Poly_aftertouch_c, 0, 87, 127
1, 406288, Note_on_c, 0, 83, 62
1, 406292, Note_on_c, 0, 68, 40
1, 406311, Poly_aftertouch_c, 0, 87, 0
1, 406340, Note_off_c, 0, 66, 32
1, 406430, Note_on_c, 0, 95, 73
1, 406481, Note_on_c, 0, 63, 49
1, 406484, Note_off_c, 0, 83, 60
1, 406534, Note_off_c, 0, 63, 58
1, 406539, Note_off_c, 0, 68, 43
1, 406546, Note_off_c, 0, 95, 65
1, 406555, Note_on_c, 0, 90, 70
1, 406607, Note_off_c, 0, 90, 59
1, 406678, Control_c, 0, 64, 106
1, 406686, Note_on_c, 0, 64, 47
1, 406692, Control_c, 0, 64, 81
1, 406698, Note_on_c, 0, 80, 63
1, 406707, Control_c, 0, 64, 62
1, 406722, Control_c, 0, 64, 48
1, 406737, Control_c, 0, 64, 53
1, 406751, Control_c, 0, 64, 62
1, 406766, Control_c, 0, 64, 70
1, 406781, Control_c, 0, 64, 88
1, 406796, Control_c, 0, 64, 127
1, 406812, Note_off_c, 0, 64, 64
1, 406814, Note_on_c, 0, 92, 67
1, 406955, Note_on_c, 0, 87, 72
1, 406965, Note_off_c, 0, 92, 64
1, 406982, Note_off_c, 0, 80, 61
1, 407004, Note_off_c, 0, 87, 58
1, 407105, Note_on_c, 0, 52, 46
1, 407134, Note_on_c, 0, 76, 48
1, 407145, Control_c, 0, 64, 93
1, 407160, Control_c, 0, 64, 71
1, 407170, Note_on_c, 0, 88, 64
1, 407174, Control_c, 0, 64, 52
1, 407189, Control_c, 0, 64, 22
1, 407204, Control_c, 0, 64, 30
1, 407219, Control_c, 0, 64, 51
1, 407234, Control_c, 0, 64, 64
1, 407248, Control_c, 0, 64, 75
1, 407263, Control_c, 0, 64, 101
1, 407278, Control_c, 0, 64, 127
1, 407280, Note_off_c, 0, 88, 62
1, 407313, Note_off_c, 0, 76, 64
1, 407321, Note_on_c, 0, 59, 43
1, 407321, Note_off_c, 0, 52, 62
1, 407348, Note_off_c, 0, 59, 59
1, 407560, Note_on_c, 0, 68, 48
1, 407599, Note_on_c, 0, 64, 40
1, 407704, Note_off_c, 0, 64, 54
1, 407708, Note_on_c, 0, 76, 52
1, 407731, Note_off_c, 0, 68, 59
1, 407751, Note_off_c, 0, 76, 68
1, 407785, Note_on_c, 0, 63, 48
1, 407882, Note_on_c, 0, 83, 65
1, 407943, Note_off_c, 0, 63, 30
1, 408000, Note_on_c, 0, 64, 41
1, 408010, Note_on_c, 0, 80, 73
1, 408054, Note_off_c, 0, 83, 60
1, 408144, Note_on_c, 0, 92, 68
1, 408198, Note_on_c, 0, 59, 44
1, 408222, Note_off_c, 0, 64, 39
1, 408285, Note_on_c, 0, 87, 71
1, 408293, Note_off_c, 0, 92, 64
1, 408300, Note_off_c, 0, 80, 62
1, 408320, Note_off_c, 0, 87, 59
1, 408398, Control_c, 0, 64, 98
1, 408400, Note_on_c, 0, 62, 44
1, 408412, Control_c, 0, 64, 76
1, 408427, Control_c, 0, 64, 56
1, 408433, Note_off_c, 0, 59, 39
1, 408439, Note_on_c, 0, 76, 60
1, 408442, Control_c, 0, 64, 0
1, 408487, Control_c, 0, 64, 43
1, 408509, Control_c, 0, 64, 62
1, 408523, Control_c, 0, 64, 72
1, 408538, Control_c, 0, 64, 85
1, 408553, Control_c, 0, 64, 105
1, 408568, Control_c, 0, 64, 127
1, 408577, Note_on_c, 0, 88, 68
1, 408612, Note_off_c, 0, 62, 62
1, 408709, Note_on_c, 0, 83, 66
1, 408723, Note_off_c, 0, 88, 57
1, 408726, Note_off_c, 0, 76, 63
1, 408747, Note_off_c, 0, 83, 57
1, 408885, Note_on_c, 0, 57, 39
1, 408895, Note_on_c, 0, 74, 49
1, 408895, Control_c, 0, 64, 107
1, 408910, Control_c, 0, 64, 88
1, 408925, Control_c, 0, 64, 76
1, 408928, Note_on_c, 0, 86, 65
1, 408939, Control_c, 0, 64, 64
1, 408954, Control_c, 0, 64, 41
1, 408969, Control_c, 0, 64, 0
1, 409027, Control_c, 0, 64, 38
1, 409042, Control_c, 0, 64, 62
1, 409057, Control_c, 0, 64, 75
1, 409072, Control_c, 0, 64, 95
1, 409086, Control_c, 0, 64, 127
1, 409104, Note_on_c, 0, 64, 48
1, 409104, Note_off_c, 0, 57, 54
1, 409131, Note_off_c, 0, 86, 60
1, 409134, Note_off_c, 0, 64, 59
1, 409142, Note_off_c, 0, 74, 62
1, 409370, Note_on_c, 0, 73, 51
1, 409405, Note_on_c, 0, 69, 52
1, 409518, Note_off_c, 0, 69, 64
1, 409526, Note_on_c, 0, 81, 57
1, 409547, Note_off_c, 0, 73, 61
1, 409564, Note_off_c, 0, 81, 60
1, 409586, Note_on_c, 0, 68, 52
1, 409690, Note_on_c, 0, 88, 65
1, 409731, Note_off_c, 0, 68, 47
1, 409813, Note_on_c, 0, 85, 69
1, 409819, Note_on_c, 0, 69, 51
1, 409849, Note_off_c, 0, 88, 60
1, 409940, Note_on_c, 0, 97, 69
1, 410022, Note_on_c, 0, 64, 47
1, 410044, Note_off_c, 0, 69, 35
1, 410089, Note_off_c, 0, 64, 51
1, 410091, Note_on_c, 0, 92, 69
1, 410097, Note_off_c, 0, 97, 65
1, 410109, Note_off_c, 0, 85, 63
1, 410123, Note_off_c, 0, 92, 64
1, 410198, Control_c, 0, 64, 121
1, 410213, Note_on_c, 0, 67, 53
1, 410213, Control_c, 0, 64, 86
1, 410228, Control_c, 0, 64, 68
1, 410234, Note_on_c, 0, 81, 65
1, 410243, Control_c, 0, 64, 45
1, 410258, Control_c, 0, 64, 34
1, 410273, Control_c, 0, 64, 50
1, 410288, Control_c, 0, 64, 64
1, 410303, Control_c, 0, 64, 76
1, 410318, Control_c, 0, 64, 105
1, 410333, Control_c, 0, 64, 127
1, 410362, Note_off_c, 0, 67, 63
1, 410372, Note_on_c, 0, 93, 70
1, 410507, Note_on_c, 0, 88, 73
1, 410523, Note_off_c, 0, 81, 59
1, 410535, Note_off_c, 0, 93, 52
1, 410562, Note_off_c, 0, 88, 62
1, 410680, Note_on_c, 0, 50, 37
1, 410686, Note_on_c, 0, 79, 56
1, 410688, Control_c, 0, 64, 121
1, 410703, Control_c, 0, 64, 87
1, 410717, Note_on_c, 0, 91, 70
1, 410717, Control_c, 0, 64, 65
1, 410732, Control_c, 0, 64, 36
1, 410755, Control_c, 0, 64, 0
1, 410785, Control_c, 0, 64, 32
1, 410799, Control_c, 0, 64, 61
1, 410814, Control_c, 0, 64, 79
1, 410829, Control_c, 0, 64, 127
1, 410847, Note_off_c, 0, 91, 60
1, 410874, Note_off_c, 0, 79, 61
1, 410892, Note_on_c, 0, 57, 54
1, 410917, Note_off_c, 0, 50, 39
1, 410928, Note_off_c, 0, 57, 63
1, 411175, Note_on_c, 0, 69, 49
1, 411177, Note_on_c, 0, 62, 52
1, 411280, Note_off_c, 0, 62, 60
1, 411299, Note_on_c, 0, 74, 57
1, 411335, Note_off_c, 0, 74, 62
1, 411346, Note_off_c, 0, 69, 40
1, 411378, Note_on_c, 0, 66, 50
1, 411466, Note_on_c, 0, 81, 69
1, 411504, Note_off_c, 0, 81, 61
1, 411554, Note_off_c, 0, 66, 57
1, 411599, Note_on_c, 0, 64, 51
1, 411611, Note_on_c, 0, 81, 68
1, 411717, Note_off_c, 0, 81, 57
1, 411736, Note_on_c, 0, 93, 75
1, 411820, Note_on_c, 0, 62, 49
1, 411844, Note_off_c, 0, 64, 36
1, 411852, Note_off_c, 0, 93, 48
1, 411878, Note_on_c, 0, 90, 71
1, 411888, Note_on_c, 0, 78, 64
1, 411927, Note_off_c, 0, 78, 58
1, 411939, Note_off_c, 0, 90, 61
1, 411979, Control_c, 0, 64, 112
1, 411994, Control_c, 0, 64, 83
1, 411995, Note_off_c, 0, 62, 29
1, 412009, Control_c, 0, 64, 66
1, 412024, Control_c, 0, 64, 51
1, 412025, Note_on_c, 0, 61, 48
1, 412028, Note_on_c, 0, 76, 60
1, 412038, Control_c, 0, 64, 26
1, 412053, Control_c, 0, 64, 0
1, 412068, Control_c, 0, 64, 33
1, 412083, Control_c, 0, 64, 58
1, 412098, Control_c, 0, 64, 71
1, 412112, Control_c, 0, 64, 91
1, 412127, Control_c, 0, 64, 127
1, 412153, Note_on_c, 0, 88, 61
1, 412186, Note_off_c, 0, 88, 61
1, 412190, Note_off_c, 0, 76, 63
1, 412249, Note_off_c, 0, 61, 61
1, 412316, Note_on_c, 0, 86, 70
1, 412331, Note_on_c, 0, 74, 42
1, 412356, Note_off_c, 0, 74, 55
1, 412502, Note_on_c, 0, 85, 67
1, 412503, Note_off_c, 0, 86, 58
1, 412507, Note_on_c, 0, 56, 35
1, 412517, Note_on_c, 0, 73, 50
1, 412520, Control_c, 0, 64, 107
1, 412535, Control_c, 0, 64, 90
1, 412550, Control_c, 0, 64, 77
1, 412564, Control_c, 0, 64, 66
1, 412579, Control_c, 0, 64, 52
1, 412594, Control_c, 0, 64, 17
1, 412609, Control_c, 0, 64, 0
1, 412653, Control_c, 0, 64, 21
1, 412669, Control_c, 0, 64, 56
1, 412684, Control_c, 0, 64, 69
1, 412699, Control_c, 0, 64, 83
1, 412714, Control_c, 0, 64, 108
1, 412729, Control_c, 0, 64, 127
1, 412735, Note_on_c, 0, 63, 49
1, 412743, Note_off_c, 0, 85, 62
1, 412766, Note_off_c, 0, 73, 53
1, 412771, Note_off_c, 0, 56, 42
1, 412908, Note_off_c, 0, 63, 57
1, 412977, Note_on_c, 0, 72, 54
1, 413015, Note_on_c, 0, 68, 49
1, 413100, Note_off_c, 0, 68, 62
1, 413148, Note_on_c, 0, 80, 65
1, 413179, Note_off_c, 0, 80, 64
1, 413216, Note_on_c, 0, 67, 41
1, 413224, Note_off_c, 0, 72, 34
1, 413300, Note_on_c, 0, 87, 73
1, 413388, Note_off_c, 0, 67, 35
1, 413402, Note_on_c, 0, 68, 46
1, 413412, Note_off_c, 0, 87, 63
1, 413429, Note_on_c, 0, 84, 71
1, 413559, Note_on_c, 0, 96, 71
1, 413604, Note_off_c, 0, 84, 61
1, 413607, Note_on_c, 0, 63, 51
1, 413642, Note_off_c, 0, 68, 41
1, 413689, Note_off_c, 0, 96, 61
1, 413696, Note_on_c, 0, 91, 71
1, 413726, Note_off_c, 0, 63, 35
1, 413760, Note_off_c, 0, 91, 56
1, 413809, Control_c, 0, 64, 107
1, 413820, Note_on_c, 0, 66, 50
1, 413824, Control_c, 0, 64, 83
1, 413839, Control_c, 0, 64, 65
1, 413841, Note_on_c, 0, 80, 67
1, 413854, Control_c, 0, 64, 46
1, 413869, Control_c, 0, 64, 31
1, 413883, Control_c, 0, 64, 41
1, 413898, Control_c, 0, 64, 57
1, 413913, Control_c, 0, 64, 68
1, 413928, Control_c, 0, 64, 82
1, 413942, Control_c, 0, 64, 127
1, 413982, Note_on_c, 0, 92, 76
1, 413994, Note_off_c, 0, 66, 64
1, 414112, Note_on_c, 0, 87, 67
1, 414118, Note_off_c, 0, 80, 63
1, 414131, Note_off_c, 0, 92, 58
1, 414166, Note_off_c, 0, 87, 58
1, 414273, Note_on_c, 0, 49, 44
1, 414279, Note_on_c, 0, 78, 56
1, 414315, Control_c, 0, 64, 90
1, 414319, Note_on_c, 0, 90, 72
1, 414330, Control_c, 0, 64, 70
1, 414344, Control_c, 0, 64, 45
1, 414359, Control_c, 0, 64, 0
1, 414374, Control_c, 0, 64, 20
1, 414389, Control_c, 0, 64, 49
1, 414404, Control_c, 0, 64, 66
1, 414419, Control_c, 0, 64, 84
1, 414433, Control_c, 0, 64, 127
1, 414503, Note_off_c, 0, 90, 63
1, 414513, Note_on_c, 0, 56, 52
1, 414528, Note_off_c, 0, 78, 61
1, 414542, Note_off_c, 0, 49, 38
1, 414547, Note_off_c, 0, 56, 61
1, 414806, Note_on_c, 0, 68, 52
1, 414825, Note_on_c, 0, 61, 58
1, 414924, Note_off_c, 0, 61, 58
1, 414979, Note_on_c, 0, 73, 61
1, 414991, Note_off_c, 0, 68, 51
1, 415012, Note_off_c, 0, 73, 66
1, 415045, Note_on_c, 0, 64, 52
1, 415159, Note_on_c, 0, 80, 70
1, 415215, Note_off_c, 0, 80, 61
1, 415308, Note_off_c, 0, 64, 58
1, 415316, Note_on_c, 0, 80, 69
1, 415325, Note_on_c, 0, 63, 48
1, 415454, Note_on_c, 0, 92, 74
1, 415518, Note_on_c, 0, 61, 50
1, 415532, Note_off_c, 0, 63, 59
1, 415549, Note_off_c, 0, 61, 61
1, 415607, Note_on_c, 0, 88, 70
1, 415623, Note_off_c, 0, 92, 61
1, 415637, Note_off_c, 0, 80, 62
1, 415647, Note_off_c, 0, 88, 53
1, 415732, Note_on_c, 0, 59, 45
1, 415761, Note_on_c, 0, 75, 68
1, 415767, Control_c, 0, 64, 89
1, 415781, Control_c, 0, 64, 69
1, 415796, Control_c, 0, 64, 48
1, 415811, Control_c, 0, 64, 0
1, 415826, Control_c, 0, 64, 35
1, 415841, Control_c, 0, 64, 59
1, 415857, Control_c, 0, 64, 71
1, 415872, Control_c, 0, 64, 97
1, 415886, Control_c, 0, 64, 127
1, 415896, Note_on_c, 0, 87, 72
1, 415954, Note_off_c, 0, 75, 58
1, 415960, Note_off_c, 0, 59, 60
1, 415985, Note_off_c, 0, 87, 58
1, 416069, Note_on_c, 0, 85, 67
1, 416072, Note_on_c, 0, 73, 65
1, 416126, Note_off_c, 0, 85, 58
1, 416138, Note_off_c, 0, 73, 58
1, 416265, Note_on_c, 0, 54, 40
1, 416285, Note_on_c, 0, 83, 66
1, 416300, Note_on_c, 0, 71, 51
1, 416309, Control_c, 0, 64, 105
1, 416324, Control_c, 0, 64, 83
1, 416338, Control_c, 0, 64, 67
1, 416353, Control_c, 0, 64, 47
1, 416368, Control_c, 0, 64, 8
1, 416383, Control_c, 0, 64, 0
1, 416427, Control_c, 0, 64, 49
1, 416442, Control_c, 0, 64, 67
1, 416456, Control_c, 0, 64, 82
1, 416471, Control_c, 0, 64, 127
1, 416496, Note_off_c, 0, 83, 60
1, 416497, Note_on_c, 0, 61, 55
1, 416518, Note_off_c, 0, 71, 54
1, 416530, Note_off_c, 0, 61, 60
1, 416539, Note_off_c, 0, 54, 39
1, 416768, Note_on_c, 0, 70, 56
1, 416786, Note_on_c, 0, 66, 45
1, 416888, Note_off_c, 0, 66, 34
1, 416907, Note_off_c, 0, 70, 59
1, 416920, Note_on_c, 0, 78, 66
1, 416957, Note_off_c, 0, 78, 58
1, 416988, Note_on_c, 0, 65, 52
1, 417074, Note_on_c, 0, 85, 72
1, 417173, Note_on_c, 0, 66, 57
1, 417197, Note_off_c, 0, 65, 64
1, 417203, Note_off_c, 0, 66, 66
1, 417225, Note_on_c, 0, 82, 73
1, 417240, Note_off_c, 0, 85, 61
1, 417347, Note_on_c, 0, 94, 74
1, 417379, Note_on_c, 0, 62, 55
1, 417498, Note_on_c, 0, 89, 70
1, 417503, Note_off_c, 0, 94, 64
1, 417516, Note_off_c, 0, 82, 62
1, 417528, Note_off_c, 0, 89, 63
1, 417584, Note_on_c, 0, 61, 52
1, 417627, Control_c, 0, 64, 100
1, 417630, Note_on_c, 0, 78, 73
1, 417642, Control_c, 0, 64, 74
1, 417656, Control_c, 0, 64, 56
1, 417671, Control_c, 0, 64, 35
1, 417686, Control_c, 0, 64, 49
1, 417701, Control_c, 0, 64, 62
1, 417716, Control_c, 0, 64, 73
1, 417731, Control_c, 0, 64, 102
1, 417734, Note_off_c, 0, 61, 53
1, 417746, Control_c, 0, 64, 127
1, 417755, Note_on_c, 0, 90, 76
1, 417764, Note_off_c, 0, 62, 29
1, 417800, Note_on_c, 0, 59, 38
1, 417817, Note_off_c, 0, 90, 64
1, 417819, Note_off_c, 0, 78, 62
1, 417910, Note_on_c, 0, 86, 71
1, 417915, Note_on_c, 0, 74, 61
1, 417957, Note_off_c, 0, 74, 61
1, 418001, Note_off_c, 0, 86, 56
1, 418020, Note_off_c, 0, 59, 30
1, 418050, Note_on_c, 0, 52, 45
1, 418092, Note_on_c, 0, 73, 66
1, 418131, Control_c, 0, 64, 104
1, 418146, Control_c, 0, 64, 78
1, 418161, Control_c, 0, 64, 56
1, 418175, Control_c, 0, 64, 0
1, 418205, Control_c, 0, 64, 28
1, 418220, Control_c, 0, 64, 59
1, 418242, Control_c, 0, 64, 75
1, 418243, Note_on_c, 0, 85, 62
1, 418258, Control_c, 0, 64, 127
1, 418292, Note_off_c, 0, 85, 58
1, 418297, Note_off_c, 0, 73, 64
1, 418312, Note_on_c, 0, 59, 42
1, 418324, Note_off_c, 0, 52, 62
1, 418343, Note_off_c, 0, 59, 61
1, 418410, Note_on_c, 0, 83, 61
1, 418419, Note_on_c, 0, 71, 52
1, 418450, Note_off_c, 0, 83, 56
1, 418473, Note_off_c, 0, 71, 42
1, 418584, Note_on_c, 0, 68, 47
1, 418654, Note_on_c, 0, 64, 57
1, 418696, Note_off_c, 0, 68, 40
1, 418797, Note_on_c, 0, 76, 65
1, 418822, Note_off_c, 0, 64, 34
1, 418830, Note_off_c, 0, 76, 64
1, 418831, Note_on_c, 0, 63, 45
1, 418960, Note_on_c, 0, 83, 70
1, 419029, Note_off_c, 0, 63, 32
1, 419047, Note_on_c, 0, 64, 49
1, 419096, Note_on_c, 0, 80, 74
1, 419128, Note_off_c, 0, 83, 61
1, 419221, Note_on_c, 0, 92, 76
1, 419259, Note_off_c, 0, 64, 60
1, 419266, Note_on_c, 0, 61, 52
1, 419358, Note_on_c, 0, 87, 73
1, 419373, Note_off_c, 0, 92, 64
1, 419388, Note_off_c, 0, 80, 62
1, 419394, Note_off_c, 0, 87, 60
1, 419468, Note_on_c, 0, 59, 51
1, 419479, Note_off_c, 0, 61, 42
1, 419500, Note_on_c, 0, 76, 66
1, 419540, Control_c, 0, 64, 93
1, 419554, Control_c, 0, 64, 72
1, 419569, Control_c, 0, 64, 55
1, 419584, Control_c, 0, 64, 44
1, 419599, Control_c, 0, 64, 57
1, 419614, Control_c, 0, 64, 67
1, 419628, Note_on_c, 0, 88, 68
1, 419628, Control_c, 0, 64, 79
1, 419643, Control_c, 0, 64, 109
1, 419651, Note_off_c, 0, 76, 64
1, 419658, Control_c, 0, 64, 127
1, 419700, Note_on_c, 0, 57, 50
1, 419708, Note_off_c, 0, 59, 51
1, 419730, Note_off_c, 0, 88, 52
1, 419799, Note_on_c, 0, 85, 60
1, 419802, Note_on_c, 0, 73, 56
1, 419859, Note_off_c, 0, 85, 59
1, 419862, Note_off_c, 0, 73, 59
1, 419900, Note_off_c, 0, 57, 30
1, 419934, Note_on_c, 0, 50, 54
1, 419960, Note_on_c, 0, 71, 58
1, 419977, Control_c, 0, 64, 84
1, 419992, Control_c, 0, 64, 65
1, 420007, Control_c, 0, 64, 43
1, 420022, Control_c, 0, 64, 29
1, 420037, Control_c, 0, 64, 44
1, 420051, Control_c, 0, 64, 60
1, 420066, Control_c, 0, 64, 72
1, 420081, Control_c, 0, 64, 95
1, 420095, Note_on_c, 0, 83, 62
1, 420096, Control_c, 0, 64, 127
1, 420138, Note_off_c, 0, 83, 50
1, 420142, Note_off_c, 0, 71, 57
1, 420169, Note_on_c, 0, 57, 47
1, 420187, Note_off_c, 0, 50, 54
1, 420204, Note_off_c, 0, 57, 63
1, 420273, Note_on_c, 0, 81, 64
1, 420284, Note_on_c, 0, 69, 42
1, 420303, Note_off_c, 0, 81, 61
1, 420314, Note_off_c, 0, 69, 56
1, 420422, Note_on_c, 0, 65, 53
1, 420455, Note_off_c, 0, 65, 55
1, 420483, Note_on_c, 0, 62, 64
1, 420583, Note_off_c, 0, 62, 54
1, 420630, Note_on_c, 0, 74, 56
1, 420656, Note_off_c, 0, 74, 60
1, 420676, Note_on_c, 0, 57, 55
1, 420792, Note_on_c, 0, 83, 54
1, 420858, Note_off_c, 0, 57, 23
1, 420885, Note_on_c, 0, 52, 54
1, 420889, Control_c, 0, 64, 122
1, 420904, Control_c, 0, 64, 84
1, 420919, Control_c, 0, 64, 62
1, 420933, Note_on_c, 0, 77, 61
1, 420933, Control_c, 0, 64, 29
1, 420938, Note_off_c, 0, 83, 59
1, 420948, Control_c, 0, 64, 0
1, 420963, Control_c, 0, 64, 24
1, 420978, Control_c, 0, 64, 54
1, 420994, Control_c, 0, 64, 70
1, 421008, Control_c, 0, 64, 97
1, 421023, Control_c, 0, 64, 127
1, 421077, Note_on_c, 0, 89, 71
1, 421114, Note_off_c, 0, 77, 53
1, 421115, Note_on_c, 0, 59, 55
1, 421120, Note_off_c, 0, 52, 62
1, 421142, Note_off_c, 0, 59, 64
1, 421229, Note_on_c, 0, 81, 71
1, 421241, Note_off_c, 0, 89, 64
1, 421271, Note_off_c, 0, 81, 58
1, 421342, Note_on_c, 0, 68, 58
1, 421409, Note_on_c, 0, 64, 63
1, 421418, Note_off_c, 0, 68, 38
1, 421525, Note_off_c, 0, 64, 54
1, 421554, Note_on_c, 0, 76, 65
1, 421594, Note_off_c, 0, 76, 61
1, 421606, Note_on_c, 0, 62, 48
1, 421722, Note_on_c, 0, 83, 64
1, 421826, Note_on_c, 0, 57, 46
1, 421833, Note_off_c, 0, 62, 23
1, 421861, Control_c, 0, 64, 97
1, 421875, Control_c, 0, 64, 65
1, 421879, Note_on_c, 0, 80, 67
1, 421890, Control_c, 0, 64, 0
1, 421929, Note_off_c, 0, 83, 57
1, 421935, Control_c, 0, 64, 12
1, 421949, Control_c, 0, 64, 61
1, 421964, Control_c, 0, 64, 86
1, 421987, Control_c, 0, 64, 127
1, 422027, Note_on_c, 0, 92, 75
1, 422080, Note_off_c, 0, 57, 60
1, 422081, Note_on_c, 0, 64, 49
1, 422108, Note_off_c, 0, 64, 62
1, 422142, Note_off_c, 0, 80, 60
1, 422179, Note_off_c, 0, 92, 65
1, 422193, Note_on_c, 0, 86, 72
1, 422233, Note_off_c, 0, 86, 54
1, 422362, Note_on_c, 0, 73, 48
1, 422426, Note_on_c, 0, 69, 56
1, 422493, Note_off_c, 0, 73, 44
1, 422539, Note_off_c, 0, 69, 56
1, 422566, Note_on_c, 0, 81, 66
1, 422596, Note_off_c, 0, 81, 63
1, 422608, Note_on_c, 0, 68, 46
1, 422679, Note_off_c, 0, 68, 48
1, 422730, Note_on_c, 0, 88, 70
1, 422848, Note_on_c, 0, 69, 43
1, 422865, Note_on_c, 0, 85, 67
1, 422876, Note_off_c, 0, 69, 52
1, 422903, Note_off_c, 0, 88, 58
1, 423019, Note_on_c, 0, 97, 61
1, 423080, Note_on_c, 0, 61, 43
1, 423161, Note_on_c, 0, 92, 68
1, 423162, Note_off_c, 0, 97, 63
1, 423181, Note_off_c, 0, 85, 62
1, 423187, Note_off_c, 0, 92, 69
1, 423317, Note_on_c, 0, 64, 46
1, 423319, Note_on_c, 0, 81, 64
1, 423473, Note_on_c, 0, 93, 67
1, 423514, Note_off_c, 0, 64, 61
1, 423524, Note_off_c, 0, 61, 56
1, 423642, Note_on_c, 0, 85, 59
1, 423642, Note_off_c, 0, 81, 58
1, 423643, Note_off_c, 0, 93, 61
1, 423672, Note_off_c, 0, 85, 66
1, 423867, Note_on_c, 0, 57, 34
1, 423871, Note_on_c, 0, 76, 53
1, 423884, Control_c, 0, 64, 106
1, 423899, Control_c, 0, 64, 86
1, 423913, Note_on_c, 0, 88, 65
1, 423914, Control_c, 0, 64, 71
1, 423929, Control_c, 0, 64, 56
1, 423943, Control_c, 0, 64, 0
1, 424018, Control_c, 0, 64, 17
1, 424033, Control_c, 0, 64, 59
1, 424048, Control_c, 0, 64, 74
1, 424062, Control_c, 0, 64, 105
1, 424077, Control_c, 0, 64, 127
1, 424119, Note_on_c, 0, 64, 39
1, 424159, Note_off_c, 0, 57, 40
1, 424161, Note_off_c, 0, 64, 55
1, 424168, Note_off_c, 0, 88, 60
1, 424183, Note_off_c, 0, 76, 64
1, 424408, Note_on_c, 0, 73, 53
1, 424461, Note_on_c, 0, 69, 54
1, 424465, Note_off_c, 0, 73, 0
1, 424465, Note_on_c, 0, 73, 13
1, 424583, Note_off_c, 0, 69, 64
1, 424596, Note_on_c, 0, 81, 57
1, 424620, Note_off_c, 0, 73, 51
1, 424633, Note_off_c, 0, 81, 60
1, 424658, Note_on_c, 0, 68, 51
1, 424757, Note_on_c, 0, 88, 72
1, 424811, Note_off_c, 0, 68, 35
1, 424879, Note_on_c, 0, 69, 50
1, 424894, Note_on_c, 0, 85, 73
1, 424950, Note_off_c, 0, 88, 60
1, 425040, Note_on_c, 0, 97, 73
1, 425086, Note_on_c, 0, 64, 47
1, 425117, Note_off_c, 0, 69, 37
1, 425178, Note_on_c, 0, 92, 72
1, 425204, Note_off_c, 0, 97, 65
1, 425213, Note_off_c, 0, 85, 63
1, 425219, Note_off_c, 0, 92, 62
1, 425308, Control_c, 0, 64, 96
1, 425319, Note_on_c, 0, 67, 54
1, 425323, Note_on_c, 0, 81, 68
1, 425323, Control_c, 0, 64, 71
1, 425338, Control_c, 0, 64, 47
1, 425353, Control_c, 0, 64, 0
1, 425367, Control_c, 0, 64, 40
1, 425382, Control_c, 0, 64, 61
1, 425397, Control_c, 0, 64, 72
1, 425412, Control_c, 0, 64, 97
1, 425426, Control_c, 0, 64, 127
1, 425460, Note_on_c, 0, 93, 69
1, 425481, Note_off_c, 0, 67, 63
1, 425488, Note_off_c, 0, 64, 61
1, 425594, Note_on_c, 0, 88, 74
1, 425610, Note_off_c, 0, 81, 59
1, 425613, Note_off_c, 0, 93, 58
1, 425635, Note_off_c, 0, 88, 57
1, 425777, Note_on_c, 0, 50, 40
1, 425783, Note_on_c, 0, 79, 58
1, 425805, Control_c, 0, 64, 122
1, 425814, Note_on_c, 0, 91, 67
1, 425820, Control_c, 0, 64, 87
1, 425835, Control_c, 0, 64, 67
1, 425849, Control_c, 0, 64, 38
1, 425864, Control_c, 0, 64, 0
1, 425894, Control_c, 0, 64, 29
1, 425909, Control_c, 0, 64, 62
1, 425923, Control_c, 0, 64, 78
1, 425938, Control_c, 0, 64, 127
1, 425978, Note_off_c, 0, 91, 60
1, 425998, Note_on_c, 0, 57, 48
1, 426009, Note_off_c, 0, 79, 60
1, 426032, Note_off_c, 0, 50, 39
1, 426037, Note_off_c, 0, 57, 63
1, 426275, Note_on_c, 0, 69, 48
1, 426305, Note_on_c, 0, 62, 53
1, 426417, Note_off_c, 0, 62, 58
1, 426446, Note_on_c, 0, 74, 61
1, 426456, Note_off_c, 0, 69, 48
1, 426484, Note_on_c, 0, 66, 51
1, 426488, Note_off_c, 0, 74, 61
1, 426619, Note_on_c, 0, 81, 72
1, 426651, Note_off_c, 0, 81, 57
1, 426668, Note_off_c, 0, 66, 60
1, 426721, Note_on_c, 0, 64, 43
1, 426759, Note_on_c, 0, 81, 73
1, 426850, Note_off_c, 0, 81, 53
1, 426876, Note_on_c, 0, 93, 71
1, 426945, Note_on_c, 0, 62, 53
1, 426997, Note_off_c, 0, 64, 35
1, 427001, Note_off_c, 0, 93, 53
1, 427027, Note_on_c, 0, 90, 68
1, 427032, Note_on_c, 0, 78, 62
1, 427070, Note_off_c, 0, 78, 57
1, 427074, Note_off_c, 0, 90, 58
1, 427171, Note_off_c, 0, 62, 54
1, 427190, Note_on_c, 0, 76, 63
1, 427201, Note_on_c, 0, 61, 45
1, 427229, Control_c, 0, 64, 90
1, 427243, Control_c, 0, 64, 69
1, 427258, Control_c, 0, 64, 48
1, 427273, Control_c, 0, 64, 38
1, 427288, Control_c, 0, 64, 53
1, 427302, Control_c, 0, 64, 64
1, 427317, Control_c, 0, 64, 76
1, 427332, Control_c, 0, 64, 97
1, 427345, Note_on_c, 0, 88, 68
1, 427347, Control_c, 0, 64, 127
1, 427389, Note_off_c, 0, 76, 65
1, 427391, Note_off_c, 0, 88, 59
1, 427437, Note_off_c, 0, 61, 61
1, 427499, Note_on_c, 0, 86, 76
1, 427506, Note_on_c, 0, 74, 59
1, 427536, Note_off_c, 0, 74, 69
1, 427687, Control_c, 0, 64, 110
1, 427697, Note_on_c, 0, 56, 39
1, 427701, Note_on_c, 0, 85, 65
1, 427702, Control_c, 0, 64, 88
1, 427717, Note_on_c, 0, 73, 51
1, 427717, Control_c, 0, 64, 71
1, 427728, Note_off_c, 0, 86, 55
1, 427732, Control_c, 0, 64, 55
1, 427747, Control_c, 0, 64, 0
1, 427806, Control_c, 0, 64, 37
1, 427821, Control_c, 0, 64, 62
1, 427837, Control_c, 0, 64, 78
1, 427852, Control_c, 0, 64, 127
1, 427923, Note_on_c, 0, 63, 41
1, 427944, Note_off_c, 0, 56, 41
1, 427949, Note_off_c, 0, 85, 62
1, 427953, Note_off_c, 0, 73, 42
1, 428128, Note_off_c, 0, 63, 35
1, 428191, Note_on_c, 0, 72, 50
1, 428221, Note_on_c, 0, 68, 46
1, 428310, Note_off_c, 0, 68, 62
1, 428360, Note_on_c, 0, 80, 70
1, 428410, Note_off_c, 0, 80, 61
1, 428435, Note_on_c, 0, 67, 55
1, 428457, Note_off_c, 0, 72, 37
1, 428516, Note_on_c, 0, 87, 73
1, 428637, Note_off_c, 0, 67, 51
1, 428653, Note_on_c, 0, 68, 49
1, 428661, Note_off_c, 0, 87, 62
1, 428664, Note_on_c, 0, 84, 76
1, 428811, Note_on_c, 0, 96, 71
1, 428873, Note_on_c, 0, 63, 57
1, 428887, Note_off_c, 0, 84, 60
1, 428910, Note_off_c, 0, 68, 52
1, 428956, Note_on_c, 0, 91, 69
1, 428958, Note_off_c, 0, 96, 60
1, 429022, Note_off_c, 0, 91, 56
1, 429056, Note_off_c, 0, 63, 37
1, 429112, Note_on_c, 0, 66, 51
1, 429132, Note_on_c, 0, 80, 63
1, 429141, Control_c, 0, 64, 107
1, 429156, Control_c, 0, 64, 81
1, 429171, Control_c, 0, 64, 65
1, 429186, Control_c, 0, 64, 47
1, 429201, Control_c, 0, 64, 37
1, 429215, Control_c, 0, 64, 48
1, 429229, Control_c, 0, 64, 61
1, 429244, Control_c, 0, 64, 71
1, 429258, Control_c, 0, 64, 89
1, 429273, Control_c, 0, 64, 127
1, 429288, Note_on_c, 0, 92, 73
1, 429352, Note_off_c, 0, 66, 65
1, 429443, Note_on_c, 0, 87, 72
1, 429465, Note_off_c, 0, 80, 62
1, 429477, Note_off_c, 0, 92, 57
1, 429652, Note_on_c, 0, 49, 35
1, 429657, Note_on_c, 0, 78, 56
1, 429667, Control_c, 0, 64, 90
1, 429681, Control_c, 0, 64, 71
1, 429686, Note_on_c, 0, 90, 73
1, 429696, Control_c, 0, 64, 49
1, 429699, Note_off_c, 0, 87, 59
1, 429711, Control_c, 0, 64, 18
1, 429726, Control_c, 0, 64, 20
1, 429741, Control_c, 0, 64, 47
1, 429756, Control_c, 0, 64, 64
1, 429771, Control_c, 0, 64, 77
1, 429785, Control_c, 0, 64, 127
1, 429838, Note_off_c, 0, 90, 62
1, 429865, Note_off_c, 0, 78, 60
1, 429866, Note_on_c, 0, 56, 47
1, 429887, Note_off_c, 0, 49, 39
1, 429905, Note_off_c, 0, 56, 59
1, 430147, Note_on_c, 0, 68, 50
1, 430165, Note_on_c, 0, 61, 52
1, 430258, Note_off_c, 0, 61, 50
1, 430310, Note_off_c, 0, 68, 61
1, 430313, Note_on_c, 0, 73, 61
1, 430361, Note_off_c, 0, 73, 60
1, 430389, Note_on_c, 0, 64, 42
1, 430502, Note_on_c, 0, 80, 58
1, 430557, Note_off_c, 0, 80, 62
1, 430642, Note_off_c, 0, 64, 57
1, 430649, Note_on_c, 0, 63, 52
1, 430653, Note_on_c, 0, 80, 68
1, 430787, Note_on_c, 0, 92, 71
1, 430865, Note_on_c, 0, 61, 53
1, 430891, Note_off_c, 0, 63, 56
1, 430910, Note_off_c, 0, 61, 56
1, 430947, Note_on_c, 0, 88, 69
1, 430971, Note_off_c, 0, 92, 61
1, 430980, Note_off_c, 0, 80, 62
1, 431002, Note_off_c, 0, 88, 59
1, 431092, Note_on_c, 0, 59, 49
1, 431108, Note_on_c, 0, 75, 63
1, 431135, Control_c, 0, 64, 116
1, 431150, Control_c, 0, 64, 81
1, 431165, Control_c, 0, 64, 63
1, 431180, Control_c, 0, 64, 48
1, 431195, Control_c, 0, 64, 53
1, 431209, Control_c, 0, 64, 62
1, 431224, Control_c, 0, 64, 73
1, 431239, Control_c, 0, 64, 97
1, 431246, Note_on_c, 0, 87, 69
1, 431253, Control_c, 0, 64, 127
1, 431319, Note_off_c, 0, 59, 59
1, 431319, Note_off_c, 0, 75, 60
1, 431333, Note_off_c, 0, 87, 59
1, 431404, Note_on_c, 0, 85, 66
1, 431410, Note_on_c, 0, 73, 63
1, 431439, Note_off_c, 0, 85, 56
1, 431444, Note_off_c, 0, 73, 61
1, 431565, Note_on_c, 0, 54, 38
1, 431574, Note_on_c, 0, 83, 61
1, 431582, Note_on_c, 0, 71, 51
1, 431594, Control_c, 0, 64, 95
1, 431609, Control_c, 0, 64, 73
1, 431624, Control_c, 0, 64, 57
1, 431639, Control_c, 0, 64, 0
1, 431683, Control_c, 0, 64, 8
1, 431698, Control_c, 0, 64, 56
1, 431720, Control_c, 0, 64, 69
1, 431735, Control_c, 0, 64, 86
1, 431750, Control_c, 0, 64, 127
1, 431792, Note_off_c, 0, 83, 61
1, 431798, Note_on_c, 0, 61, 49
1, 431814, Note_off_c, 0, 71, 58
1, 431839, Note_off_c, 0, 54, 39
1, 431839, Note_off_c, 0, 61, 59
1, 432051, Note_on_c, 0, 70, 49
1, 432064, Note_on_c, 0, 66, 46
1, 432148, Note_off_c, 0, 66, 51
1, 432201, Note_on_c, 0, 78, 60
1, 432203, Note_off_c, 0, 70, 56
1, 432236, Note_off_c, 0, 78, 61
1, 432263, Note_on_c, 0, 65, 56
1, 432352, Note_on_c, 0, 85, 69
1, 432498, Note_on_c, 0, 66, 52
1, 432503, Note_on_c, 0, 82, 69
1, 432514, Note_off_c, 0, 85, 58
1, 432519, Note_off_c, 0, 65, 64
1, 432523, Note_off_c, 0, 66, 65
1, 432644, Note_on_c, 0, 94, 69
1, 432709, Note_on_c, 0, 62, 51
1, 432794, Note_on_c, 0, 89, 68
1, 432800, Note_off_c, 0, 94, 64
1, 432817, Note_off_c, 0, 82, 62
1, 432827, Note_off_c, 0, 89, 61
1, 432921, Note_on_c, 0, 61, 50
1, 432948, Note_on_c, 0, 78, 71
1, 432974, Control_c, 0, 64, 119
1, 432988, Control_c, 0, 64, 82
1, 433003, Control_c, 0, 64, 63
1, 433018, Control_c, 0, 64, 31
1, 433032, Control_c, 0, 64, 38
1, 433047, Control_c, 0, 64, 62
1, 433062, Control_c, 0, 64, 78
1, 433076, Note_on_c, 0, 90, 79
1, 433077, Control_c, 0, 64, 127
1, 433130, Note_off_c, 0, 61, 60
1, 433136, Note_off_c, 0, 62, 33
1, 433136, Note_off_c, 0, 90, 64
1, 433137, Note_off_c, 0, 78, 62
1, 433148, Note_on_c, 0, 59, 45
1, 433237, Note_on_c, 0, 86, 77
1, 433243, Note_on_c, 0, 74, 65
1, 433274, Note_off_c, 0, 74, 66
1, 433340, Note_off_c, 0, 86, 58
1, 433352, Note_off_c, 0, 59, 34
1, 433384, Note_on_c, 0, 52, 48
1, 433401, Note_on_c, 0, 73, 66
1, 433441, Control_c, 0, 64, 91
1, 433455, Control_c, 0, 64, 68
1, 433470, Control_c, 0, 64, 36
1, 433485, Control_c, 0, 64, 0
1, 433500, Control_c, 0, 64, 14
1, 433515, Control_c, 0, 64, 59
1, 433530, Control_c, 0, 64, 76
1, 433544, Note_on_c, 0, 85, 64
1, 433544, Control_c, 0, 64, 127
1, 433607, Note_off_c, 0, 85, 62
1, 433610, Note_off_c, 0, 73, 63
1, 433621, Note_on_c, 0, 59, 53
1, 433649, Note_off_c, 0, 52, 61
1, 433660, Note_off_c, 0, 59, 62
1, 433725, Note_on_c, 0, 83, 63
1, 433732, Note_on_c, 0, 71, 56
1, 433761, Note_off_c, 0, 83, 57
1, 433787, Note_off_c, 0, 71, 53
1, 433907, Note_on_c, 0, 68, 59
1, 433988, Note_on_c, 0, 64, 36
1, 434032, Note_off_c, 0, 68, 62
1, 434114, Note_off_c, 0, 64, 43
1, 434123, Note_on_c, 0, 76, 63
1, 434157, Note_off_c, 0, 76, 65
1, 434179, Note_on_c, 0, 63, 48
1, 434286, Note_on_c, 0, 83, 65
1, 434385, Note_on_c, 0, 64, 59
1, 434386, Note_off_c, 0, 63, 57
1, 434415, Note_on_c, 0, 80, 74
1, 434442, Note_off_c, 0, 83, 58
1, 434543, Note_on_c, 0, 92, 71
1, 434602, Note_on_c, 0, 61, 60
1, 434609, Note_off_c, 0, 64, 62
1, 434657, Note_off_c, 0, 61, 58
1, 434670, Note_on_c, 0, 87, 74
1, 434678, Note_off_c, 0, 92, 65
1, 434688, Note_off_c, 0, 80, 62
1, 434716, Note_off_c, 0, 87, 60
1, 434790, Control_c, 0, 64, 98
1, 434799, Note_on_c, 0, 59, 55
1, 434804, Control_c, 0, 64, 73
1, 434819, Control_c, 0, 64, 54
1, 434821, Note_on_c, 0, 76, 63
1, 434834, Control_c, 0, 64, 34
1, 434849, Control_c, 0, 64, 55
1, 434864, Control_c, 0, 64, 68
1, 434878, Control_c, 0, 64, 90
1, 434893, Control_c, 0, 64, 127
1, 434955, Note_on_c, 0, 88, 71
1, 434958, Note_off_c, 0, 76, 51
1, 435026, Note_off_c, 0, 88, 59
1, 435033, Note_off_c, 0, 59, 58
1, 435035, Note_on_c, 0, 57, 46
1, 435120, Note_on_c, 0, 85, 62
1, 435127, Note_on_c, 0, 73, 60
1, 435174, Note_off_c, 0, 73, 55
1, 435174, Note_off_c, 0, 85, 54
1, 435177, Note_off_c, 0, 57, 36
1, 435270, Note_on_c, 0, 50, 47
1, 435291, Note_on_c, 0, 71, 58
1, 435294, Control_c, 0, 64, 94
1, 435309, Control_c, 0, 64, 71
1, 435324, Control_c, 0, 64, 47
1, 435339, Control_c, 0, 64, 33
1, 435354, Control_c, 0, 64, 50
1, 435369, Control_c, 0, 64, 64
1, 435383, Control_c, 0, 64, 75
1, 435398, Control_c, 0, 64, 105
1, 435413, Control_c, 0, 64, 127
1, 435425, Note_on_c, 0, 83, 61
1, 435471, Note_off_c, 0, 83, 55
1, 435479, Note_off_c, 0, 71, 57
1, 435514, Note_on_c, 0, 57, 47
1, 435533, Note_off_c, 0, 50, 56
1, 435554, Note_off_c, 0, 57, 60
1, 435620, Note_on_c, 0, 81, 60
1, 435624, Note_on_c, 0, 69, 50
1, 435646, Note_off_c, 0, 81, 61
1, 435659, Note_off_c, 0, 69, 49
1, 435778, Note_on_c, 0, 65, 55
1, 435852, Note_on_c, 0, 62, 54
1, 435873, Note_off_c, 0, 65, 59
1, 435962, Note_off_c, 0, 62, 58
1, 435985, Note_on_c, 0, 74, 63
1, 436013, Note_on_c, 0, 57, 52
1, 436019, Note_off_c, 0, 74, 61
1, 436137, Note_on_c, 0, 83, 69
1, 436251, Note_on_c, 0, 52, 62
1, 436257, Control_c, 0, 64, 100
1, 436272, Control_c, 0, 64, 72
1, 436284, Note_off_c, 0, 57, 33
1, 436287, Control_c, 0, 64, 34
1, 436302, Control_c, 0, 64, 0
1, 436305, Note_on_c, 0, 77, 59
1, 436305, Note_off_c, 0, 83, 60
1, 436346, Control_c, 0, 64, 55
1, 436361, Control_c, 0, 64, 75
1, 436376, Control_c, 0, 64, 127
1, 436457, Note_on_c, 0, 89, 63
1, 436463, Note_off_c, 0, 77, 57
1, 436482, Note_on_c, 0, 59, 56
1, 436493, Note_off_c, 0, 52, 62
1, 436513, Note_off_c, 0, 59, 65
1, 436585, Note_off_c, 0, 89, 63
1, 436586, Note_on_c, 0, 81, 64
1, 436617, Note_off_c, 0, 81, 62
1, 436752, Note_on_c, 0, 68, 51
1, 436790, Note_on_c, 0, 64, 63
1, 436895, Note_off_c, 0, 68, 57
1, 436916, Note_off_c, 0, 64, 58
1, 436944, Note_on_c, 0, 76, 65
1, 436983, Note_off_c, 0, 76, 66
1, 437002, Note_on_c, 0, 62, 56
1, 437111, Note_on_c, 0, 83, 65
1, 437246, Note_on_c, 0, 57, 56
1, 437259, Control_c, 0, 64, 94
1, 437273, Control_c, 0, 64, 68
1, 437278, Note_on_c, 0, 80, 62
1, 437279, Note_off_c, 0, 62, 35
1, 437288, Control_c, 0, 64, 18
1, 437302, Note_off_c, 0, 83, 54
1, 437303, Control_c, 0, 64, 0
1, 437347, Control_c, 0, 64, 49
1, 437362, Control_c, 0, 64, 68
1, 437377, Control_c, 0, 64, 90
1, 437392, Control_c, 0, 64, 127
1, 437425, Note_on_c, 0, 92, 63
1, 437497, Note_on_c, 0, 64, 50
1, 437509, Note_off_c, 0, 80, 59
1, 437519, Note_off_c, 0, 57, 59
1, 437531, Note_off_c, 0, 64, 64
1, 437595, Note_off_c, 0, 92, 65
1, 437610, Note_on_c, 0, 86, 63
1, 437643, Note_off_c, 0, 86, 62
1, 437849, Note_on_c, 0, 73, 52
1, 437874, Note_on_c, 0, 69, 60
1, 438002, Note_off_c, 0, 69, 62
1, 438025, Note_on_c, 0, 81, 57
1, 438052, Note_off_c, 0, 73, 63
1, 438060, Note_off_c, 0, 81, 60
1, 438114, Note_on_c, 0, 68, 52
1, 438201, Note_on_c, 0, 88, 65
1, 438290, Note_off_c, 0, 68, 32
1, 438346, Note_on_c, 0, 69, 59
1, 438365, Note_on_c, 0, 85, 60
1, 438376, Note_off_c, 0, 69, 68
1, 438393, Note_off_c, 0, 88, 54
1, 438543, Note_on_c, 0, 97, 63
1, 438639, Note_on_c, 0, 61, 42
1, 438737, Note_off_c, 0, 97, 63
1, 438744, Note_on_c, 0, 92, 67
1, 438764, Note_off_c, 0, 85, 61
1, 438771, Note_off_c, 0, 92, 68
1, 438780, Note_off_c, 0, 61, 47
1, 438931, Note_on_c, 0, 57, 44
1, 438949, Control_c, 0, 64, 94
1, 438964, Control_c, 0, 64, 74
1, 438971, Note_on_c, 0, 81, 59
1, 438978, Control_c, 0, 64, 59
1, 438993, Control_c, 0, 64, 38
1, 439008, Control_c, 0, 64, 24
1, 439023, Control_c, 0, 64, 34
1, 439038, Control_c, 0, 64, 57
1, 439053, Control_c, 0, 64, 67
1, 439068, Control_c, 0, 64, 79
1, 439083, Control_c, 0, 64, 104
1, 439098, Control_c, 0, 64, 127
1, 439172, Note_on_c, 0, 93, 68
1, 439246, Note_off_c, 0, 81, 51
1, 439307, Note_on_c, 0, 64, 41
1, 439441, Note_off_c, 0, 93, 32
1, 439463, Note_on_c, 0, 85, 54
1, 439530, Note_off_c, 0, 85, 60
1, 439995, Note_on_c, 0, 76, 39
1, 440100, Note_on_c, 0, 88, 50
1, 441411, Note_off_c, 0, 76, 9
1, 441769, Note_off_c, 0, 57, 50
1, 441806, Note_off_c, 0, 64, 40
1, 441894, Note_off_c, 0, 88, 62
1, 441988, Control_c, 0, 64, 107
1, 442002, Control_c, 0, 64, 95
1, 442017, Control_c, 0, 64, 85
1, 442032, Control_c, 0, 64, 75
1, 442047, Control_c, 0, 64, 68
1, 442061, Control_c, 0, 64, 62
1, 442076, Control_c, 0, 64, 59
1, 442091, Control_c, 0, 64, 58
1, 442106, Control_c, 0, 64, 55
1, 442121, Control_c, 0, 64, 49
1, 442135, Control_c, 0, 64, 40
1, 442150, Control_c, 0, 64, 29
1, 442165, Control_c, 0, 64, 16
1, 442180, Control_c, 0, 64, 0
1, 442693, Note_on_c, 0, 33, 48
1, 442707, Note_on_c, 0, 92, 48
1, 442730, Note_off_c, 0, 33, 64
1, 442737, Control_c, 0, 64, 45
1, 442752, Control_c, 0, 64, 66
1, 442766, Control_c, 0, 64, 78
1, 442770, Note_on_c, 0, 95, 58
1, 442779, Note_on_c, 0, 93, 73
1, 442781, Control_c, 0, 64, 106
1, 442784, Note_on_c, 0, 81, 68
1, 442787, Note_on_c, 0, 48, 51
1, 442796, Control_c, 0, 64, 127
1, 442802, Note_off_c, 0, 92, 59
1, 442805, Note_off_c, 0, 95, 67
1, 442812, Note_off_c, 0, 48, 56
1, 442815, Note_off_c, 0, 81, 62
1, 442815, Note_off_c, 0, 93, 59
1, 442944, Note_on_c, 0, 92, 66
1, 442965, Note_on_c, 0, 80, 45
1, 442991, Note_off_c, 0, 80, 57
1, 443006, Note_off_c, 0, 92, 63
1, 443089, Note_on_c, 0, 81, 64
1, 443092, Note_on_c, 0, 93, 65
1, 443096, Note_on_c, 0, 65, 44
1, 443101, Note_on_c, 0, 53, 36
1, 443103, Note_on_c, 0, 60, 41
1, 443104, Note_on_c, 0, 57, 26
1, 443119, Note_off_c, 0, 81, 63
1, 443122, Note_off_c, 0, 65, 57
1, 443125, Note_off_c, 0, 93, 61
1, 443131, Note_off_c, 0, 60, 54
1, 443137, Note_off_c, 0, 53, 50
1, 443139, Note_off_c, 0, 57, 44
1, 443209, Note_on_c, 0, 95, 70
1, 443211, Note_on_c, 0, 83, 59
1, 443237, Note_off_c, 0, 95, 68
1, 443243, Note_off_c, 0, 83, 62
1, 443320, Note_on_c, 0, 57, 42
1, 443325, Note_on_c, 0, 81, 69
1, 443328, Note_on_c, 0, 52, 56
1, 443329, Note_on_c, 0, 93, 68
1, 443337, Control_c, 0, 64, 120
1, 443343, Note_on_c, 0, 64, 22
1, 443352, Control_c, 0, 64, 115
1, 443353, Note_off_c, 0, 81, 60
1, 443358, Note_off_c, 0, 93, 64
1, 443359, Note_off_c, 0, 57, 62
1, 443366, Control_c, 0, 64, 107
1, 443367, Note_off_c, 0, 52, 64
1, 443381, Note_off_c, 0, 64, 49
1, 443381, Control_c, 0, 64, 100
1, 443396, Control_c, 0, 64, 95
1, 443404, Poly_aftertouch_c, 0, 60, 0
1, 443411, Control_c, 0, 64, 91
1, 443426, Control_c, 0, 64, 88
1, 443438, Note_on_c, 0, 95, 76
1, 443441, Control_c, 0, 64, 85
1, 443447, Note_on_c, 0, 83, 59
1, 443456, Control_c, 0, 64, 82
1, 443467, Note_off_c, 0, 95, 65
1, 443468, Note_off_c, 0, 83, 61
1, 443471, Control_c, 0, 64, 78
1, 443486, Control_c, 0, 64, 74
1, 443501, Control_c, 0, 64, 70
1, 443515, Control_c, 0, 64, 66
1, 443530, Control_c, 0, 64, 62
1, 443545, Control_c, 0, 64, 59
1, 443559, Note_on_c, 0, 96, 73
1, 443559, Control_c, 0, 64, 54
1, 443560, Note_on_c, 0, 84, 65
1, 443574, Control_c, 0, 64, 47
1, 443581, Note_off_c, 0, 96, 69
1, 443588, Note_off_c, 0, 84, 65
1, 443589, Control_c, 0, 64, 31
1, 443604, Control_c, 0, 64, 0
1, 443670, Note_on_c, 0, 81, 73
1, 443675, Note_on_c, 0, 93, 76
1, 443700, Note_off_c, 0, 81, 65
1, 443711, Note_off_c, 0, 93, 64
1, 443720, Note_on_c, 0, 33, 41
1, 443767, Note_off_c, 0, 33, 63
1, 443774, Control_c, 0, 64, 61
1, 443777, Note_on_c, 0, 47, 73
1, 443789, Control_c, 0, 64, 127
1, 443804, Note_on_c, 0, 99, 79
1, 443805, Note_off_c, 0, 47, 66
1, 443818, Note_on_c, 0, 88, 66
1, 443835, Note_on_c, 0, 101, 23
1, 443837, Note_off_c, 0, 88, 59
1, 443846, Note_on_c, 0, 100, 32
1, 443847, Note_off_c, 0, 100, 127
1, 443848, Note_off_c, 0, 101, 38
1, 443853, Note_on_c, 0, 86, 36
1, 443855, Note_off_c, 0, 99, 65
1, 443881, Note_off_c, 0, 86, 53
1, 443939, Note_on_c, 0, 99, 76
1, 443942, Note_on_c, 0, 87, 66
1, 443974, Note_off_c, 0, 87, 64
1, 443976, Note_off_c, 0, 99, 58
1, 444049, Note_on_c, 0, 59, 40
1, 444056, Note_on_c, 0, 56, 43
1, 444060, Note_on_c, 0, 100, 75
1, 444062, Note_on_c, 0, 88, 69
1, 444064, Note_on_c, 0, 68, 45
1, 444085, Note_off_c, 0, 56, 56
1, 444088, Note_off_c, 0, 68, 61
1, 444089, Note_off_c, 0, 100, 62
1, 444090, Note_off_c, 0, 88, 64
1, 444092, Note_off_c, 0, 59, 62
1, 444169, Note_on_c, 0, 101, 81
1, 444177, Note_on_c, 0, 89, 67
1, 444198, Note_off_c, 0, 101, 60
1, 444204, Note_off_c, 0, 89, 69
1, 444276, Note_on_c, 0, 56, 47
1, 444282, Note_on_c, 0, 100, 83
1, 444284, Note_on_c, 0, 88, 73
1, 444288, Note_on_c, 0, 64, 42
1, 444295, Note_on_c, 0, 52, 56
1, 444295, Note_on_c, 0, 59, 33
1, 444305, Note_off_c, 0, 100, 67
1, 444311, Note_off_c, 0, 88, 65
1, 444317, Note_off_c, 0, 64, 52
1, 444326, Note_off_c, 0, 59, 49
1, 444329, Note_off_c, 0, 56, 56
1, 444332, Note_off_c, 0, 52, 64
1, 444395, Note_on_c, 0, 98, 76
1, 444397, Note_on_c, 0, 86, 74
1, 444416, Note_off_c, 0, 98, 70
1, 444422, Note_off_c, 0, 86, 67
1, 444463, Control_c, 0, 64, 107
1, 444478, Control_c, 0, 64, 90
1, 444493, Control_c, 0, 64, 79
1, 444508, Control_c, 0, 64, 71
1, 444517, Note_on_c, 0, 96, 80
1, 444519, Note_on_c, 0, 84, 74
1, 444523, Control_c, 0, 64, 63
1, 444538, Control_c, 0, 64, 55
1, 444542, Note_off_c, 0, 96, 62
1, 444545, Note_off_c, 0, 84, 67
1, 444553, Control_c, 0, 64, 46
1, 444568, Control_c, 0, 64, 24
1, 444583, Control_c, 0, 64, 0
1, 444633, Note_on_c, 0, 95, 80
1, 444641, Note_on_c, 0, 83, 61
1, 444654, Note_off_c, 0, 95, 70
1, 444663, Note_on_c, 0, 33, 49
1, 444668, Note_off_c, 0, 83, 64
1, 444697, Note_off_c, 0, 33, 64
1, 444735, Note_on_c, 0, 92, 73
1, 444750, Note_on_c, 0, 48, 65
1, 444753, Note_on_c, 0, 95, 77
1, 444761, Control_c, 0, 64, 65
1, 444768, Note_on_c, 0, 93, 79
1, 444776, Control_c, 0, 64, 127
1, 444776, Note_off_c, 0, 48, 67
1, 444785, Note_off_c, 0, 92, 40
1, 444794, Note_on_c, 0, 81, 73
1, 444798, Note_off_c, 0, 95, 65
1, 444817, Note_off_c, 0, 81, 66
1, 444818, Note_off_c, 0, 93, 61
1, 444931, Note_on_c, 0, 92, 67
1, 444949, Note_on_c, 0, 80, 41
1, 444967, Note_off_c, 0, 92, 61
1, 444973, Note_off_c, 0, 80, 55
1, 445039, Note_on_c, 0, 60, 49
1, 445041, Note_on_c, 0, 65, 50
1, 445046, Note_on_c, 0, 53, 45
1, 445048, Note_on_c, 0, 57, 41
1, 445060, Note_on_c, 0, 81, 72
1, 445062, Note_on_c, 0, 93, 74
1, 445081, Note_off_c, 0, 65, 62
1, 445085, Note_off_c, 0, 81, 64
1, 445089, Note_off_c, 0, 93, 62
1, 445092, Note_off_c, 0, 57, 58
1, 445096, Note_off_c, 0, 60, 54
1, 445097, Note_off_c, 0, 53, 57
1, 445173, Note_on_c, 0, 95, 77
1, 445190, Note_on_c, 0, 83, 57
1, 445206, Note_off_c, 0, 95, 68
1, 445211, Note_off_c, 0, 83, 62
1, 445295, Note_on_c, 0, 64, 58
1, 445300, Note_on_c, 0, 93, 78
1, 445301, Note_on_c, 0, 57, 58
1, 445305, Note_on_c, 0, 81, 65
1, 445306, Note_on_c, 0, 52, 57
1, 445308, Note_on_c, 0, 60, 49
1, 445319, Note_off_c, 0, 64, 65
1, 445323, Note_off_c, 0, 93, 66
1, 445325, Note_off_c, 0, 81, 60
1, 445328, Note_off_c, 0, 60, 63
1, 445337, Note_on_c, 0, 83, 13
1, 445349, Note_off_c, 0, 57, 62
1, 445360, Note_off_c, 0, 52, 63
1, 445379, Note_off_c, 0, 83, 49
1, 445412, Note_on_c, 0, 95, 84
1, 445414, Note_on_c, 0, 83, 63
1, 445442, Note_off_c, 0, 95, 63
1, 445444, Note_off_c, 0, 83, 65
1, 445510, Control_c, 0, 64, 102
1, 445525, Control_c, 0, 64, 87
1, 445530, Note_on_c, 0, 84, 78
1, 445533, Note_on_c, 0, 96, 83
1, 445540, Control_c, 0, 64, 76
1, 445554, Note_off_c, 0, 84, 66
1, 445554, Control_c, 0, 64, 66
1, 445560, Note_off_c, 0, 96, 59
1, 445569, Control_c, 0, 64, 56
1, 445584, Control_c, 0, 64, 34
1, 445599, Control_c, 0, 64, 0
1, 445641, Note_on_c, 0, 93, 82
1, 445643, Note_on_c, 0, 81, 69
1, 445659, Note_off_c, 0, 81, 65
1, 445671, Note_off_c, 0, 93, 60
1, 445671, Note_on_c, 0, 33, 61
1, 445716, Note_off_c, 0, 33, 65
1, 445732, Control_c, 0, 64, 36
1, 445733, Note_on_c, 0, 47, 73
1, 445747, Control_c, 0, 64, 92
1, 445761, Note_off_c, 0, 47, 67
1, 445761, Control_c, 0, 64, 127
1, 445764, Note_on_c, 0, 99, 79
1, 445767, Note_on_c, 0, 101, 72
1, 445768, Note_on_c, 0, 88, 84
1, 445787, Note_off_c, 0, 101, 64
1, 445790, Note_on_c, 0, 100, 47
1, 445795, Note_off_c, 0, 99, 60
1, 445799, Note_off_c, 0, 88, 61
1, 445813, Note_off_c, 0, 100, 55
1, 445888, Note_on_c, 0, 99, 75
1, 445895, Note_on_c, 0, 87, 68
1, 445921, Note_off_c, 0, 99, 60
1, 445924, Note_off_c, 0, 87, 67
1, 445997, Note_on_c, 0, 56, 48
1, 445998, Note_on_c, 0, 68, 50
1, 446019, Note_on_c, 0, 59, 17
1, 446024, Note_on_c, 0, 100, 73
1, 446025, Note_on_c, 0, 88, 67
1, 446028, Note_off_c, 0, 56, 57
1, 446034, Note_off_c, 0, 68, 63
1, 446046, Note_off_c, 0, 88, 61
1, 446049, Note_off_c, 0, 100, 66
1, 446056, Note_off_c, 0, 59, 42
1, 446136, Note_on_c, 0, 101, 75
1, 446139, Note_on_c, 0, 89, 64
1, 446160, Note_off_c, 0, 101, 64
1, 446168, Note_off_c, 0, 89, 67
1, 446254, Note_on_c, 0, 56, 28
1, 446266, Note_on_c, 0, 64, 52
1, 446268, Note_on_c, 0, 59, 35
1, 446273, Note_on_c, 0, 52, 50
1, 446279, Note_on_c, 0, 100, 77
1, 446281, Note_on_c, 0, 88, 66
1, 446297, Note_off_c, 0, 88, 65
1, 446300, Note_off_c, 0, 100, 70
1, 446433, Note_off_c, 0, 64, 59
1, 446516, Note_off_c, 0, 59, 57
1, 446541, Note_on_c, 0, 91, 73
1, 446544, Note_off_c, 0, 56, 52
1, 446556, Note_off_c, 0, 52, 62
1, 446569, Note_on_c, 0, 89, 82
1, 446577, Note_off_c, 0, 91, 56
1, 446588, Note_off_c, 0, 89, 72
1, 446594, Note_on_c, 0, 88, 89
1, 446607, Note_on_c, 0, 100, 35
1, 446613, Note_off_c, 0, 88, 64
1, 446616, Note_on_c, 0, 98, 51
1, 446618, Note_on_c, 0, 86, 78
1, 446633, Note_off_c, 0, 86, 44
1, 446634, Note_on_c, 0, 96, 51
1, 446635, Note_on_c, 0, 84, 74
1, 446636, Note_off_c, 0, 84, 127
1, 446638, Note_off_c, 0, 98, 39
1, 446640, Note_off_c, 0, 100, 34
1, 446656, Note_off_c, 0, 96, 40
1, 446657, Note_on_c, 0, 83, 67
1, 446657, Note_on_c, 0, 95, 57
1, 446701, Note_off_c, 0, 95, 0
1, 446712, Note_on_c, 0, 95, 57
1, 446723, Note_on_c, 0, 81, 9
1, 446745, Poly_aftertouch_c, 0, 93, 127
1, 446765, Note_off_c, 0, 83, 60
1, 446766, Note_off_c, 0, 81, 39
1, 446769, Note_off_c, 0, 95, 63
1, 446786, Poly_aftertouch_c, 0, 93, 0
1, 446817, Note_on_c, 0, 33, 53
1, 446829, Control_c, 0, 64, 92
1, 446844, Control_c, 0, 64, 64
1, 446858, Control_c, 0, 64, 0
1, 446875, Note_on_c, 0, 93, 82
1, 446879, Note_off_c, 0, 33, 63
1, 446880, Note_on_c, 0, 81, 65
1, 446903, Control_c, 0, 64, 58
1, 446905, Note_on_c, 0, 48, 71
1, 446914, Note_off_c, 0, 81, 63
1, 446918, Control_c, 0, 64, 87
1, 446932, Control_c, 0, 64, 127
1, 446933, Note_off_c, 0, 48, 67
1, 446961, Note_off_c, 0, 93, 43
1, 447011, Note_on_c, 0, 80, 64
1, 447011, Note_on_c, 0, 92, 69
1, 447041, Note_off_c, 0, 80, 66
1, 447045, Note_off_c, 0, 92, 60
1, 447142, Note_on_c, 0, 81, 73
1, 447143, Note_on_c, 0, 93, 75
1, 447153, Note_on_c, 0, 65, 52
1, 447155, Note_on_c, 0, 53, 38
1, 447157, Note_on_c, 0, 57, 39
1, 447161, Note_on_c, 0, 60, 46
1, 447169, Note_off_c, 0, 81, 62
1, 447177, Note_off_c, 0, 93, 55
1, 447181, Note_off_c, 0, 65, 58
1, 447186, Note_off_c, 0, 57, 57
1, 447190, Note_off_c, 0, 53, 52
1, 447194, Note_off_c, 0, 60, 52
1, 447257, Note_on_c, 0, 95, 83
1, 447265, Note_on_c, 0, 83, 63
1, 447280, Note_off_c, 0, 95, 68
1, 447293, Note_off_c, 0, 83, 66
1, 447367, Note_on_c, 0, 57, 43
1, 447373, Note_on_c, 0, 64, 59
1, 447377, Note_on_c, 0, 93, 82
1, 447378, Note_on_c, 0, 81, 76
1, 447379, Note_on_c, 0, 52, 56
1, 447394, Note_off_c, 0, 64, 65
1, 447397, Note_on_c, 0, 60, 20
1, 447403, Note_off_c, 0, 81, 65
1, 447404, Note_off_c, 0, 93, 60
1, 447416, Note_off_c, 0, 57, 61
1, 447422, Note_off_c, 0, 52, 63
1, 447440, Note_off_c, 0, 60, 43
1, 447497, Note_on_c, 0, 83, 74
1, 447500, Note_on_c, 0, 95, 75
1, 447521, Note_off_c, 0, 95, 62
1, 447522, Note_off_c, 0, 83, 66
1, 447537, Note_on_c, 0, 93, 28
1, 447538, Note_off_c, 0, 93, 127
1, 447614, Note_on_c, 0, 96, 83
1, 447621, Note_on_c, 0, 84, 69
1, 447635, Note_off_c, 0, 96, 68
1, 447638, Control_c, 0, 64, 99
1, 447645, Note_off_c, 0, 84, 65
1, 447653, Control_c, 0, 64, 81
1, 447668, Control_c, 0, 64, 66
1, 447682, Control_c, 0, 64, 32
1, 447697, Control_c, 0, 64, 0
1, 447722, Note_on_c, 0, 81, 74
1, 447725, Note_on_c, 0, 93, 82
1, 447745, Note_off_c, 0, 81, 66
1, 447751, Note_off_c, 0, 93, 62
1, 447769, Note_on_c, 0, 33, 61
1, 447811, Note_off_c, 0, 33, 64
1, 447828, Note_on_c, 0, 47, 75
1, 447846, Control_c, 0, 64, 27
1, 447850, Note_on_c, 0, 99, 75
1, 447850, Note_on_c, 0, 100, 81
1, 447851, Note_on_c, 0, 88, 80
1, 447853, Note_on_c, 0, 101, 71
1, 447858, Note_off_c, 0, 47, 67
1, 447861, Control_c, 0, 64, 93
1, 447868, Note_off_c, 0, 101, 64
1, 447876, Control_c, 0, 64, 127
1, 447877, Note_off_c, 0, 99, 66
1, 447878, Note_off_c, 0, 88, 63
1, 447882, Note_off_c, 0, 100, 61
1, 447973, Note_on_c, 0, 99, 71
1, 447978, Note_on_c, 0, 87, 65
1, 448011, Note_off_c, 0, 87, 64
1, 448013, Note_off_c, 0, 99, 62
1, 448088, Note_on_c, 0, 68, 57
1, 448097, Note_on_c, 0, 88, 72
1, 448097, Note_on_c, 0, 100, 73
1, 448106, Note_on_c, 0, 56, 35
1, 448107, Note_on_c, 0, 59, 44
1, 448121, Note_off_c, 0, 68, 64
1, 448123, Note_off_c, 0, 88, 63
1, 448123, Note_off_c, 0, 100, 67
1, 448133, Note_off_c, 0, 59, 60
1, 448136, Note_off_c, 0, 56, 53
1, 448216, Note_on_c, 0, 101, 76
1, 448224, Note_on_c, 0, 89, 67
1, 448240, Note_off_c, 0, 101, 66
1, 448252, Note_off_c, 0, 89, 68
1, 448322, Note_on_c, 0, 56, 42
1, 448324, Note_on_c, 0, 59, 36
1, 448327, Note_on_c, 0, 64, 57
1, 448332, Note_on_c, 0, 88, 72
1, 448333, Note_on_c, 0, 100, 72
1, 448339, Note_on_c, 0, 52, 58
1, 448348, Note_off_c, 0, 64, 64
1, 448357, Note_off_c, 0, 88, 66
1, 448357, Note_off_c, 0, 100, 68
1, 448363, Note_off_c, 0, 59, 63
1, 448377, Note_off_c, 0, 52, 64
1, 448386, Note_off_c, 0, 56, 61
1, 448440, Note_on_c, 0, 98, 80
1, 448442, Note_on_c, 0, 86, 74
1, 448463, Note_off_c, 0, 98, 67
1, 448468, Note_off_c, 0, 86, 65
1, 448557, Note_on_c, 0, 96, 82
1, 448560, Note_on_c, 0, 84, 77
1, 448577, Note_off_c, 0, 96, 69
1, 448579, Control_c, 0, 64, 101
1, 448583, Note_off_c, 0, 84, 70
1, 448594, Control_c, 0, 64, 85
1, 448610, Control_c, 0, 64, 73
1, 448625, Control_c, 0, 64, 63
1, 448640, Control_c, 0, 64, 48
1, 448654, Control_c, 0, 64, 0
1, 448678, Note_on_c, 0, 83, 67
1, 448678, Note_on_c, 0, 95, 73
1, 448699, Note_off_c, 0, 95, 67
1, 448705, Note_off_c, 0, 83, 65
1, 448710, Note_on_c, 0, 33, 50
1, 448750, Note_off_c, 0, 33, 62
1, 448781, Note_on_c, 0, 92, 75
1, 448786, Control_c, 0, 64, 33
1, 448789, Note_on_c, 0, 48, 64
1, 448797, Note_on_c, 0, 95, 66
1, 448801, Control_c, 0, 64, 89
1, 448803, Note_on_c, 0, 93, 71
1, 448804, Note_on_c, 0, 81, 71
1, 448816, Control_c, 0, 64, 127
1, 448818, Note_off_c, 0, 48, 67
1, 448826, Note_off_c, 0, 92, 63
1, 448832, Note_off_c, 0, 81, 63
1, 448838, Note_off_c, 0, 93, 58
1, 448838, Note_off_c, 0, 95, 65
1, 448943, Note_on_c, 0, 92, 67
1, 448957, Note_on_c, 0, 80, 53
1, 448977, Note_off_c, 0, 80, 63
1, 448977, Note_off_c, 0, 92, 58
1, 449078, Note_on_c, 0, 81, 66
1, 449081, Note_on_c, 0, 53, 42
1, 449081, Note_on_c, 0, 93, 69
1, 449085, Note_on_c, 0, 60, 47
1, 449096, Note_on_c, 0, 57, 25
1, 449100, Note_on_c, 0, 65, 19
1, 449105, Note_off_c, 0, 81, 63
1, 449110, Note_off_c, 0, 93, 63
1, 449132, Note_off_c, 0, 57, 48
1, 449132, Note_off_c, 0, 53, 54
1, 449136, Note_off_c, 0, 60, 54
1, 449142, Note_off_c, 0, 65, 40
1, 449198, Note_on_c, 0, 95, 72
1, 449201, Note_on_c, 0, 83, 59
1, 449222, Note_off_c, 0, 83, 62
1, 449224, Note_off_c, 0, 95, 69
1, 449314, Note_on_c, 0, 93, 76
1, 449316, Note_on_c, 0, 64, 59
1, 449316, Note_on_c, 0, 81, 66
1, 449319, Note_on_c, 0, 57, 48
1, 449319, Note_on_c, 0, 60, 54
1, 449325, Note_on_c, 0, 52, 54
1, 449338, Note_off_c, 0, 93, 66
1, 449342, Note_off_c, 0, 81, 63
1, 449412, Note_off_c, 0, 64, 63
1, 449436, Note_on_c, 0, 95, 80
1, 449439, Note_off_c, 0, 60, 61
1, 449440, Note_on_c, 0, 83, 63
1, 449462, Note_off_c, 0, 57, 62
1, 449463, Note_off_c, 0, 95, 66
1, 449468, Note_off_c, 0, 83, 66
1, 449479, Note_off_c, 0, 52, 65
1, 449549, Note_on_c, 0, 96, 86
1, 449552, Note_on_c, 0, 84, 76
1, 449576, Note_off_c, 0, 84, 67
1, 449577, Note_off_c, 0, 96, 61
1, 449580, Control_c, 0, 64, 104
1, 449595, Control_c, 0, 64, 81
1, 449609, Control_c, 0, 64, 64
1, 449624, Control_c, 0, 64, 0
1, 449656, Note_on_c, 0, 93, 87
1, 449657, Note_on_c, 0, 81, 73
1, 449688, Note_off_c, 0, 81, 66
1, 449693, Note_off_c, 0, 93, 59
1, 449721, Note_on_c, 0, 33, 65
1, 449764, Note_off_c, 0, 33, 65
1, 449779, Note_on_c, 0, 47, 64
1, 449779, Note_on_c, 0, 99, 83
1, 449787, Note_on_c, 0, 88, 85
1, 449793, Note_on_c, 0, 101, 66
1, 449795, Control_c, 0, 64, 84
1, 449801, Note_off_c, 0, 47, 59
1, 449803, Note_on_c, 0, 100, 65
1, 449808, Note_off_c, 0, 101, 62
1, 449809, Control_c, 0, 64, 127
1, 449815, Note_off_c, 0, 88, 61
1, 449821, Note_off_c, 0, 100, 63
1, 449829, Note_off_c, 0, 99, 65
1, 449919, Note_on_c, 0, 99, 71
1, 449922, Note_on_c, 0, 87, 63
1, 449945, Note_off_c, 0, 99, 65
1, 449948, Note_off_c, 0, 87, 67
1, 450023, Note_on_c, 0, 56, 52
1, 450028, Note_on_c, 0, 68, 44
1, 450029, Note_on_c, 0, 59, 38
1, 450043, Note_on_c, 0, 88, 64
1, 450045, Note_on_c, 0, 100, 66
1, 450057, Note_off_c, 0, 68, 55
1, 450062, Note_off_c, 0, 56, 59
1, 450064, Note_off_c, 0, 100, 64
1, 450065, Note_off_c, 0, 88, 62
1, 450066, Note_off_c, 0, 59, 64
1, 450153, Note_on_c, 0, 101, 76
1, 450161, Note_on_c, 0, 89, 64
1, 450178, Note_off_c, 0, 101, 63
1, 450184, Note_off_c, 0, 89, 65
1, 450293, Note_on_c, 0, 56, 29
1, 450301, Note_on_c, 0, 100, 75
1, 450303, Note_on_c, 0, 88, 67
1, 450312, Note_on_c, 0, 52, 44
1, 450315, Note_on_c, 0, 64, 46
1, 450324, Note_on_c, 0, 59, 41
1, 450331, Note_off_c, 0, 88, 65
1, 450343, Note_off_c, 0, 100, 61
1, 450481, Note_off_c, 0, 64, 61
1, 450527, Note_off_c, 0, 59, 60
1, 450563, Note_off_c, 0, 52, 63
1, 450567, Note_off_c, 0, 56, 52
1, 450601, Note_on_c, 0, 91, 81
1, 450605, Note_on_c, 0, 103, 60
1, 450625, Note_off_c, 0, 103, 40
1, 450629, Note_off_c, 0, 91, 56
1, 450631, Note_on_c, 0, 89, 82
1, 450633, Note_on_c, 0, 101, 49
1, 450650, Note_on_c, 0, 100, 62
1, 450652, Note_off_c, 0, 89, 71
1, 450656, Note_off_c, 0, 101, 52
1, 450659, Note_on_c, 0, 88, 80
1, 450668, Note_off_c, 0, 100, 62
1, 450671, Note_on_c, 0, 98, 60
1, 450673, Note_off_c, 0, 88, 67
1, 450676, Note_on_c, 0, 86, 75
1, 450677, Note_off_c, 0, 86, 127
1, 450688, Note_on_c, 0, 84, 77
1, 450689, Note_off_c, 0, 84, 127
1, 450691, Note_off_c, 0, 98, 41
1, 450694, Note_on_c, 0, 96, 46
1, 450706, Note_on_c, 0, 83, 73
1, 450717, Note_on_c, 0, 95, 52
1, 450718, Note_off_c, 0, 96, 40
1, 450737, Note_on_c, 0, 93, 66
1, 450755, Note_off_c, 0, 93, 60
1, 450782, Note_off_c, 0, 83, 59
1, 450792, Note_off_c, 0, 95, 64
1, 450820, Note_on_c, 0, 33, 59
1, 450855, Control_c, 0, 64, 78
1, 450864, Note_off_c, 0, 33, 61
1, 450870, Control_c, 0, 64, 0
1, 450910, Note_on_c, 0, 49, 71
1, 450911, Note_on_c, 0, 93, 90
1, 450912, Note_on_c, 0, 81, 76
1, 450914, Control_c, 0, 64, 48
1, 450929, Control_c, 0, 64, 85
1, 450934, Note_off_c, 0, 49, 65
1, 450944, Control_c, 0, 64, 127
1, 450946, Note_off_c, 0, 81, 60
1, 451048, Note_on_c, 0, 92, 63
1, 451054, Note_on_c, 0, 80, 55
1, 451076, Note_off_c, 0, 93, 22
1, 451078, Note_off_c, 0, 92, 50
1, 451084, Note_off_c, 0, 80, 64
1, 451169, Note_on_c, 0, 93, 71
1, 451180, Note_on_c, 0, 81, 59
1, 451193, Note_on_c, 0, 57, 43
1, 451194, Note_on_c, 0, 67, 49
1, 451198, Note_off_c, 0, 81, 63
1, 451202, Note_on_c, 0, 61, 44
1, 451217, Note_off_c, 0, 67, 60
1, 451220, Note_off_c, 0, 93, 54
1, 451227, Note_off_c, 0, 57, 53
1, 451230, Note_off_c, 0, 61, 53
1, 451288, Note_on_c, 0, 94, 67
1, 451292, Note_on_c, 0, 82, 64
1, 451313, Note_off_c, 0, 94, 62
1, 451323, Note_off_c, 0, 82, 63
1, 451401, Note_on_c, 0, 61, 36
1, 451401, Note_on_c, 0, 81, 72
1, 451403, Note_on_c, 0, 93, 79
1, 451415, Note_on_c, 0, 64, 52
1, 451425, Note_off_c, 0, 81, 65
1, 451427, Note_on_c, 0, 55, 53
1, 451431, Note_off_c, 0, 93, 63
1, 451438, Note_off_c, 0, 64, 61
1, 451450, Note_off_c, 0, 61, 62
1, 451460, Note_off_c, 0, 55, 63
1, 451523, Note_on_c, 0, 100, 89
1, 451537, Note_on_c, 0, 88, 70
1, 451548, Note_off_c, 0, 100, 61
1, 451554, Note_off_c, 0, 88, 65
1, 451604, Control_c, 0, 64, 96
1, 451619, Control_c, 0, 64, 78
1, 451634, Control_c, 0, 64, 62
1, 451641, Note_on_c, 0, 97, 79
1, 451642, Note_on_c, 0, 85, 72
1, 451648, Control_c, 0, 64, 38
1, 451663, Control_c, 0, 64, 0
1, 451665, Note_off_c, 0, 97, 66
1, 451668, Note_off_c, 0, 85, 63
1, 451742, Note_on_c, 0, 94, 83
1, 451749, Note_on_c, 0, 82, 75
1, 451775, Note_off_c, 0, 82, 64
1, 451778, Note_on_c, 0, 38, 45
1, 451785, Note_off_c, 0, 94, 62
1, 451824, Note_off_c, 0, 38, 60
1, 451857, Control_c, 0, 64, 72
1, 451859, Note_on_c, 0, 92, 81
1, 451865, Note_on_c, 0, 80, 77
1, 451868, Note_on_c, 0, 53, 59
1, 451871, Control_c, 0, 64, 127
1, 451886, Note_off_c, 0, 80, 70
1, 451892, Note_off_c, 0, 92, 59
1, 451893, Note_off_c, 0, 53, 66
1, 451996, Note_on_c, 0, 98, 88
1, 452000, Note_on_c, 0, 86, 80
1, 452025, Note_off_c, 0, 86, 64
1, 452026, Note_off_c, 0, 98, 64
1, 452126, Note_on_c, 0, 81, 77
1, 452126, Note_on_c, 0, 93, 77
1, 452136, Note_on_c, 0, 62, 51
1, 452146, Note_on_c, 0, 57, 37
1, 452148, Note_off_c, 0, 81, 67
1, 452148, Note_off_c, 0, 93, 67
1, 452174, Note_off_c, 0, 62, 62
1, 452175, Note_off_c, 0, 57, 54
1, 452235, Note_on_c, 0, 79, 72
1, 452235, Note_on_c, 0, 91, 74
1, 452259, Note_off_c, 0, 91, 62
1, 452259, Note_off_c, 0, 79, 67
1, 452341, Note_on_c, 0, 57, 52
1, 452341, Note_on_c, 0, 76, 73
1, 452343, Note_on_c, 0, 88, 77
1, 452348, Note_on_c, 0, 53, 56
1, 452353, Note_on_c, 0, 62, 52
1, 452364, Note_off_c, 0, 76, 72
1, 452366, Note_off_c, 0, 88, 67
1, 452375, Note_off_c, 0, 62, 57
1, 452383, Note_off_c, 0, 53, 65
1, 452384, Note_off_c, 0, 57, 62
1, 452455, Note_on_c, 0, 93, 87
1, 452461, Note_on_c, 0, 81, 78
1, 452476, Note_off_c, 0, 93, 66
1, 452484, Note_off_c, 0, 81, 66
1, 452572, Note_on_c, 0, 89, 81
1, 452575, Note_on_c, 0, 77, 74
1, 452589, Control_c, 0, 64, 124
1, 452594, Note_off_c, 0, 89, 68
1, 452600, Note_off_c, 0, 77, 68
1, 452605, Control_c, 0, 64, 96
1, 452619, Control_c, 0, 64, 81
1, 452634, Control_c, 0, 64, 68
1, 452649, Control_c, 0, 64, 51
1, 452664, Control_c, 0, 64, 0
1, 452694, Note_on_c, 0, 74, 68
1, 452697, Note_on_c, 0, 86, 75
1, 452717, Note_off_c, 0, 74, 71
1, 452720, Note_off_c, 0, 86, 67
1, 452725, Note_on_c, 0, 35, 58
1, 452765, Note_off_c, 0, 35, 63
1, 452805, Control_c, 0, 64, 63
1, 452807, Note_on_c, 0, 50, 63
1, 452816, Note_on_c, 0, 79, 81
1, 452816, Note_on_c, 0, 90, 68
1, 452819, Note_on_c, 0, 91, 76
1, 452819, Control_c, 0, 64, 127
1, 452822, Note_on_c, 0, 93, 73
1, 452835, Note_off_c, 0, 50, 65
1, 452841, Note_off_c, 0, 93, 63
1, 452847, Note_off_c, 0, 90, 50
1, 452858, Note_off_c, 0, 91, 52
1, 452859, Note_off_c, 0, 79, 59
1, 452942, Note_on_c, 0, 90, 68
1, 452952, Note_on_c, 0, 78, 67
1, 452979, Note_off_c, 0, 78, 65
1, 452981, Note_off_c, 0, 90, 56
1, 453069, Note_on_c, 0, 55, 46
1, 453069, Note_on_c, 0, 65, 54
1, 453069, Note_on_c, 0, 79, 72
1, 453075, Note_on_c, 0, 91, 68
1, 453076, Note_on_c, 0, 59, 42
1, 453093, Note_off_c, 0, 79, 68
1, 453102, Note_off_c, 0, 91, 63
1, 453104, Note_off_c, 0, 65, 54
1, 453120, Note_off_c, 0, 59, 58
1, 453171, Note_on_c, 0, 92, 72
1, 453180, Note_on_c, 0, 80, 64
1, 453202, Note_off_c, 0, 92, 62
1, 453212, Note_off_c, 0, 80, 64
1, 453293, Note_on_c, 0, 53, 54
1, 453293, Note_on_c, 0, 91, 77
1, 453295, Note_on_c, 0, 79, 65
1, 453299, Note_on_c, 0, 62, 56
1, 453300, Note_on_c, 0, 59, 54
1, 453311, Note_off_c, 0, 79, 65
1, 453320, Note_off_c, 0, 91, 63
1, 453329, Note_off_c, 0, 62, 63
1, 453332, Note_off_c, 0, 59, 65
1, 453355, Note_off_c, 0, 53, 64
1, 453372, Note_off_c, 0, 55, 39
1, 453410, Note_on_c, 0, 98, 84
1, 453427, Note_on_c, 0, 86, 76
1, 453434, Note_off_c, 0, 98, 74
1, 453451, Note_off_c, 0, 86, 68
1, 453539, Control_c, 0, 64, 115
1, 453540, Note_on_c, 0, 83, 68
1, 453541, Note_on_c, 0, 95, 76
1, 453554, Control_c, 0, 64, 95
1, 453565, Note_off_c, 0, 83, 65
1, 453567, Note_off_c, 0, 95, 69
1, 453569, Control_c, 0, 64, 82
1, 453583, Control_c, 0, 64, 71
1, 453598, Control_c, 0, 64, 60
1, 453613, Control_c, 0, 64, 34
1, 453628, Control_c, 0, 64, 0
1, 453648, Note_on_c, 0, 92, 76
1, 453651, Note_on_c, 0, 80, 78
1, 453673, Note_on_c, 0, 36, 58
1, 453674, Note_off_c, 0, 92, 64
1, 453680, Note_off_c, 0, 80, 64
1, 453710, Note_off_c, 0, 36, 62
1, 453746, Control_c, 0, 64, 82
1, 453747, Note_on_c, 0, 52, 70
1, 453758, Note_on_c, 0, 78, 80
1, 453759, Note_on_c, 0, 90, 78
1, 453761, Control_c, 0, 64, 127
1, 453775, Note_off_c, 0, 52, 68
1, 453782, Note_off_c, 0, 90, 68
1, 453785, Note_off_c, 0, 78, 62
1, 453875, Note_on_c, 0, 96, 89
1, 453883, Note_on_c, 0, 84, 79
1, 453907, Note_off_c, 0, 84, 66
1, 453910, Note_off_c, 0, 96, 61
1, 454011, Note_on_c, 0, 60, 54
1, 454012, Note_on_c, 0, 91, 79
1, 454014, Note_on_c, 0, 64, 39
1, 454015, Note_on_c, 0, 79, 70
1, 454019, Note_on_c, 0, 55, 39
1, 454035, Note_off_c, 0, 91, 66
1, 454036, Note_off_c, 0, 79, 66
1, 454043, Note_off_c, 0, 60, 63
1, 454045, Note_off_c, 0, 64, 50
1, 454050, Note_off_c, 0, 55, 51
1, 454120, Note_on_c, 0, 77, 62
1, 454124, Note_on_c, 0, 89, 59
1, 454139, Note_off_c, 0, 77, 64
1, 454142, Note_off_c, 0, 89, 64
1, 454237, Note_on_c, 0, 55, 54
1, 454237, Note_on_c, 0, 75, 70
1, 454237, Note_on_c, 0, 87, 71
1, 454240, Note_on_c, 0, 52, 59
1, 454243, Note_on_c, 0, 60, 55
1, 454260, Note_off_c, 0, 75, 68
1, 454264, Note_off_c, 0, 87, 66
1, 454265, Note_off_c, 0, 60, 62
1, 454286, Note_off_c, 0, 55, 61
1, 454290, Note_off_c, 0, 52, 66
1, 454355, Note_on_c, 0, 91, 81
1, 454357, Note_on_c, 0, 79, 76
1, 454377, Note_off_c, 0, 91, 64
1, 454381, Note_off_c, 0, 79, 67
1, 454478, Note_on_c, 0, 88, 77
1, 454481, Note_on_c, 0, 76, 69
1, 454495, Control_c, 0, 64, 107
1, 454500, Note_off_c, 0, 88, 69
1, 454505, Note_off_c, 0, 76, 70
1, 454510, Control_c, 0, 64, 92
1, 454524, Control_c, 0, 64, 81
1, 454539, Control_c, 0, 64, 71
1, 454554, Control_c, 0, 64, 61
1, 454569, Control_c, 0, 64, 40
1, 454584, Control_c, 0, 64, 0
1, 454588, Note_on_c, 0, 72, 69
1, 454604, Note_off_c, 0, 72, 67
1, 454606, Note_on_c, 0, 86, 46
1, 454614, Note_on_c, 0, 35, 55
1, 454619, Note_on_c, 0, 84, 32
1, 454630, Note_off_c, 0, 86, 52
1, 454650, Note_off_c, 0, 84, 33
1, 454664, Note_off_c, 0, 35, 56
1, 454702, Control_c, 0, 64, 31
1, 454706, Note_on_c, 0, 50, 69
1, 454713, Note_on_c, 0, 88, 72
1, 454716, Control_c, 0, 64, 82
1, 454717, Note_on_c, 0, 86, 62
1, 454724, Note_on_c, 0, 74, 66
1, 454728, Note_on_c, 0, 85, 50
1, 454731, Note_off_c, 0, 50, 65
1, 454731, Control_c, 0, 64, 127
1, 454736, Note_off_c, 0, 88, 67
1, 454745, Note_off_c, 0, 74, 63
1, 454751, Note_off_c, 0, 85, 64
1, 454762, Note_off_c, 0, 86, 56
1, 454835, Note_on_c, 0, 85, 63
1, 454840, Note_on_c, 0, 73, 64
1, 454867, Note_off_c, 0, 73, 67
1, 454871, Note_off_c, 0, 85, 55
1, 454958, Note_on_c, 0, 57, 51
1, 454965, Note_on_c, 0, 65, 54
1, 454970, Note_on_c, 0, 74, 58
1, 454972, Note_on_c, 0, 86, 57
1, 454976, Note_on_c, 0, 59, 40
1, 454996, Note_off_c, 0, 57, 61
1, 454996, Note_off_c, 0, 86, 58
1, 454999, Note_off_c, 0, 65, 51
1, 455001, Note_off_c, 0, 74, 67
1, 455005, Note_off_c, 0, 59, 55
1, 455085, Note_on_c, 0, 76, 64
1, 455090, Note_on_c, 0, 88, 64
1, 455115, Note_off_c, 0, 76, 67
1, 455123, Note_off_c, 0, 88, 59
1, 455226, Note_on_c, 0, 53, 38
1, 455226, Note_on_c, 0, 59, 39
1, 455239, Note_on_c, 0, 57, 38
1, 455286, Note_on_c, 0, 91, 72
1, 455293, Note_on_c, 0, 79, 61
1, 455312, Note_off_c, 0, 79, 63
1, 455315, Note_off_c, 0, 91, 60
1, 455336, Note_off_c, 0, 53, 57
1, 455350, Note_off_c, 0, 57, 56
1, 455367, Note_off_c, 0, 59, 37
1, 455552, Note_on_c, 0, 83, 85
1, 455555, Note_on_c, 0, 95, 69
1, 455573, Note_off_c, 0, 95, 65
1, 455579, Note_on_c, 0, 93, 50
1, 455579, Note_off_c, 0, 83, 59
1, 455582, Note_on_c, 0, 81, 83
1, 455602, Note_on_c, 0, 91, 57
1, 455602, Note_off_c, 0, 81, 70
1, 455606, Note_off_c, 0, 93, 54
1, 455612, Note_on_c, 0, 79, 71
1, 455619, Note_on_c, 0, 89, 68
1, 455624, Note_off_c, 0, 91, 38
1, 455628, Note_off_c, 0, 79, 43
1, 455629, Note_on_c, 0, 77, 69
1, 455630, Note_off_c, 0, 77, 127
1, 455636, Note_off_c, 0, 89, 66
1, 455640, Note_on_c, 0, 88, 59
1, 455644, Note_on_c, 0, 76, 66
1, 455645, Note_off_c, 0, 76, 127
1, 455657, Note_on_c, 0, 86, 67
1, 455657, Note_on_c, 0, 74, 72
1, 455657, Note_off_c, 0, 88, 62
1, 455689, Note_off_c, 0, 86, 0
1, 455689, Note_on_c, 0, 86, 57
1, 455693, Note_on_c, 0, 84, 53
1, 455704, Note_on_c, 0, 72, 40
1, 455716, Note_off_c, 0, 84, 54
1, 455731, Note_off_c, 0, 72, 56
1, 455745, Note_off_c, 0, 74, 62
1, 455745, Note_off_c, 0, 86, 62
1, 455800, Control_c, 0, 64, 112
1, 455807, Note_on_c, 0, 36, 58
1, 455815, Control_c, 0, 64, 73
1, 455830, Control_c, 0, 64, 0
1, 455845, Note_off_c, 0, 36, 59
1, 455870, Note_on_c, 0, 52, 72
1, 455874, Control_c, 0, 64, 48
1, 455877, Note_on_c, 0, 84, 76
1, 455879, Note_on_c, 0, 72, 67
1, 455889, Control_c, 0, 64, 80
1, 455897, Note_off_c, 0, 52, 70
1, 455904, Control_c, 0, 64, 127
1, 455916, Note_off_c, 0, 72, 62
1, 455926, Note_off_c, 0, 84, 62
1, 456006, Note_on_c, 0, 83, 69
1, 456010, Note_on_c, 0, 71, 68
1, 456032, Note_off_c, 0, 71, 61
1, 456038, Note_off_c, 0, 83, 59
1, 456086, Note_on_c, 0, 57, 18
1, 456110, Note_on_c, 0, 64, 50
1, 456113, Note_on_c, 0, 52, 56
1, 456131, Note_off_c, 0, 64, 59
1, 456134, Note_on_c, 0, 84, 73
1, 456137, Note_on_c, 0, 72, 64
1, 456148, Note_off_c, 0, 57, 58
1, 456148, Note_off_c, 0, 52, 66
1, 456156, Note_off_c, 0, 72, 66
1, 456158, Note_off_c, 0, 84, 67
1, 456265, Note_on_c, 0, 74, 59
1, 456274, Note_on_c, 0, 86, 53
1, 456282, Note_on_c, 0, 88, 45
1, 456283, Note_off_c, 0, 74, 66
1, 456295, Note_off_c, 0, 86, 58
1, 456304, Note_off_c, 0, 88, 54
1, 456376, Note_on_c, 0, 48, 47
1, 456383, Note_on_c, 0, 52, 51
1, 456405, Note_on_c, 0, 57, 55
1, 456441, Note_on_c, 0, 89, 82
1, 456444, Note_on_c, 0, 77, 72
1, 456471, Note_off_c, 0, 77, 66
1, 456489, Note_off_c, 0, 89, 64
1, 456584, Note_off_c, 0, 57, 55
1, 456634, Note_off_c, 0, 52, 63
1, 456646, Note_off_c, 0, 48, 62
1, 456668, Note_on_c, 0, 81, 86
1, 456675, Note_on_c, 0, 93, 62
1, 456692, Note_on_c, 0, 79, 81
1, 456695, Note_off_c, 0, 81, 60
1, 456697, Note_off_c, 0, 93, 40
1, 456713, Note_off_c, 0, 79, 69
1, 456720, Note_on_c, 0, 89, 45
1, 456728, Note_on_c, 0, 77, 65
1, 456729, Note_off_c, 0, 77, 127
1, 456745, Note_off_c, 0, 89, 54
1, 456751, Note_on_c, 0, 76, 55
1, 456752, Note_off_c, 0, 76, 127
1, 456766, Note_on_c, 0, 74, 53
1, 456767, Note_on_c, 0, 88, 12
1, 456773, Note_on_c, 0, 72, 78
1, 456783, Note_on_c, 0, 84, 66
1, 456787, Note_off_c, 0, 74, 65
1, 456812, Note_off_c, 0, 88, 32
1, 456842, Note_off_c, 0, 72, 60
1, 456847, Poly_aftertouch_c, 0, 86, 0
1, 456861, Note_off_c, 0, 84, 62
1, 456901, Note_on_c, 0, 38, 58
1, 456904, Control_c, 0, 64, 87
1, 456918, Control_c, 0, 64, 60
1, 456934, Control_c, 0, 64, 0
1, 456948, Note_off_c, 0, 38, 63
1, 456953, Note_on_c, 0, 83, 77
1, 456962, Note_on_c, 0, 52, 76
1, 456965, Note_on_c, 0, 71, 64
1, 456979, Control_c, 0, 64, 65
1, 456989, Note_off_c, 0, 52, 69
1, 456992, Note_off_c, 0, 71, 66
1, 456993, Control_c, 0, 64, 100
1, 457008, Control_c, 0, 64, 127
1, 457071, Note_off_c, 0, 83, 49
1, 457094, Note_on_c, 0, 70, 70
1, 457094, Note_on_c, 0, 82, 68
1, 457141, Note_off_c, 0, 70, 62
1, 457154, Note_off_c, 0, 82, 58
1, 457225, Note_on_c, 0, 59, 61
1, 457228, Note_on_c, 0, 65, 58
1, 457230, Note_on_c, 0, 57, 54
1, 457247, Note_on_c, 0, 83, 77
1, 457249, Note_off_c, 0, 65, 64
1, 457252, Note_on_c, 0, 71, 66
1, 457258, Note_off_c, 0, 59, 64
1, 457262, Note_off_c, 0, 57, 63
1, 457282, Note_off_c, 0, 71, 59
1, 457298, Note_off_c, 0, 83, 59
1, 457396, Note_on_c, 0, 84, 82
1, 457401, Note_on_c, 0, 72, 67
1, 457419, Note_off_c, 0, 72, 68
1, 457423, Note_off_c, 0, 84, 61
1, 457471, Note_on_c, 0, 40, 71
1, 457490, Control_c, 0, 64, 95
1, 457505, Control_c, 0, 64, 65
1, 457514, Note_off_c, 0, 40, 63
1, 457520, Control_c, 0, 64, 0
1, 457565, Control_c, 0, 64, 39
1, 457579, Control_c, 0, 64, 74
1, 457587, Note_on_c, 0, 56, 64
1, 457594, Control_c, 0, 64, 127
1, 457611, Note_off_c, 0, 56, 64
1, 457647, Note_on_c, 0, 88, 85
1, 457650, Note_on_c, 0, 76, 84
1, 457706, Note_off_c, 0, 88, 54
1, 457737, Note_off_c, 0, 76, 61
1, 457742, Note_on_c, 0, 74, 72
1, 457756, Note_on_c, 0, 86, 34
1, 457780, Note_on_c, 0, 72, 80
1, 457780, Note_on_c, 0, 84, 61
1, 457784, Note_off_c, 0, 74, 57
1, 457786, Note_off_c, 0, 86, 49
1, 457798, Note_off_c, 0, 84, 65
1, 457818, Note_off_c, 0, 72, 62
1, 457830, Note_on_c, 0, 71, 73
1, 457850, Note_on_c, 0, 59, 55
1, 457857, Note_off_c, 0, 71, 66
1, 457859, Note_on_c, 0, 52, 64
1, 457865, Note_on_c, 0, 69, 74
1, 457876, Note_off_c, 0, 59, 63
1, 457882, Note_off_c, 0, 69, 69
1, 457883, Note_on_c, 0, 81, 33
1, 457887, Note_off_c, 0, 52, 67
1, 457889, Note_on_c, 0, 67, 73
1, 457917, Note_off_c, 0, 67, 67
1, 457920, Note_off_c, 0, 81, 54
1, 457922, Note_on_c, 0, 65, 76
1, 457927, Note_on_c, 0, 77, 53
1, 457945, Note_off_c, 0, 65, 71
1, 457948, Note_on_c, 0, 76, 60
1, 457949, Note_off_c, 0, 77, 58
1, 457950, Note_on_c, 0, 64, 75
1, 457966, Note_off_c, 0, 76, 67
1, 457976, Note_on_c, 0, 74, 58
1, 457976, Note_off_c, 0, 64, 69
1, 457982, Note_on_c, 0, 62, 67
1, 457994, Note_off_c, 0, 74, 67
1, 458002, Note_off_c, 0, 62, 65
1, 458012, Note_on_c, 0, 72, 57
1, 458015, Note_on_c, 0, 60, 64
1, 458030, Note_off_c, 0, 72, 62
1, 458063, Note_off_c, 0, 60, 0
1, 458063, Note_on_c, 0, 60, 24
1, 458064, Note_on_c, 0, 59, 48
1, 458094, Note_off_c, 0, 60, 51
1, 458125, Poly_aftertouch_c, 0, 72, 127
1, 458134, Note_off_c, 0, 59, 52
1, 458155, Poly_aftertouch_c, 0, 72, 0
1, 458195, Control_c, 0, 64, 90
1, 458206, Note_on_c, 0, 33, 60
1, 458210, Control_c, 0, 64, 55
1, 458225, Control_c, 0, 64, 0
1, 458238, Note_off_c, 0, 33, 65
1, 458254, Control_c, 0, 64, 30
1, 458256, Note_on_c, 0, 47, 67
1, 458265, Note_on_c, 0, 69, 80
1, 458266, Note_on_c, 0, 57, 67
1, 458269, Control_c, 0, 64, 69
1, 458284, Control_c, 0, 64, 121
1, 458287, Note_off_c, 0, 47, 65
1, 458293, Note_off_c, 0, 57, 66
1, 458294, Note_off_c, 0, 69, 61
1, 458299, Control_c, 0, 64, 127
1, 458403, Note_on_c, 0, 72, 78
1, 458405, Note_on_c, 0, 60, 73
1, 458429, Note_off_c, 0, 72, 65
1, 458429, Note_off_c, 0, 60, 63
1, 458503, Note_on_c, 0, 60, 51
1, 458504, Note_on_c, 0, 52, 61
1, 458527, Note_off_c, 0, 60, 57
1, 458537, Note_on_c, 0, 76, 69
1, 458541, Note_off_c, 0, 52, 66
1, 458545, Note_on_c, 0, 64, 57
1, 458556, Note_off_c, 0, 76, 68
1, 458565, Note_off_c, 0, 64, 62
1, 458677, Note_on_c, 0, 81, 79
1, 458678, Note_on_c, 0, 69, 73
1, 458695, Note_off_c, 0, 69, 70
1, 458700, Note_off_c, 0, 81, 66
1, 458780, Control_c, 0, 64, 85
1, 458795, Note_on_c, 0, 33, 49
1, 458795, Control_c, 0, 64, 56
1, 458803, Note_on_c, 0, 45, 48
1, 458810, Control_c, 0, 64, 0
1, 458818, Note_on_c, 0, 84, 76
1, 458822, Note_on_c, 0, 72, 71
1, 458840, Control_c, 0, 64, 54
1, 458845, Note_off_c, 0, 84, 62
1, 458847, Note_off_c, 0, 72, 63
1, 458854, Control_c, 0, 64, 78
1, 458869, Control_c, 0, 64, 127
1, 458972, Note_on_c, 0, 88, 74
1, 458981, Note_on_c, 0, 76, 59
1, 458997, Note_off_c, 0, 88, 66
1, 459001, Note_off_c, 0, 76, 64
1, 459144, Note_on_c, 0, 93, 80
1, 459147, Note_on_c, 0, 81, 72
1, 459152, Note_off_c, 0, 33, 42
1, 459162, Note_off_c, 0, 45, 35
1, 459164, Note_off_c, 0, 81, 66
1, 459165, Note_off_c, 0, 93, 67
1, 459343, Control_c, 0, 64, 117
1, 459347, Note_on_c, 0, 33, 52
1, 459358, Control_c, 0, 64, 82
1, 459373, Control_c, 0, 64, 63
1, 459382, Note_off_c, 0, 33, 62
1, 459387, Control_c, 0, 64, 0
1, 459433, Note_on_c, 0, 92, 62
1, 459439, Note_on_c, 0, 95, 75
1, 459450, Note_on_c, 0, 49, 68
1, 459457, Note_on_c, 0, 93, 78
1, 459465, Note_on_c, 0, 83, 44
1, 459469, Control_c, 0, 64, 64
1, 459473, Note_off_c, 0, 49, 65
1, 459484, Note_on_c, 0, 81, 47
1, 459484, Control_c, 0, 64, 116
1, 459493, Note_off_c, 0, 83, 36
1, 459495, Note_off_c, 0, 92, 64
1, 459498, Note_off_c, 0, 95, 58
1, 459499, Control_c, 0, 64, 127
1, 459506, Note_off_c, 0, 81, 57
1, 459507, Note_off_c, 0, 93, 59
1, 459602, Note_on_c, 0, 92, 77
1, 459616, Note_on_c, 0, 80, 56
1, 459631, Note_off_c, 0, 92, 61
1, 459636, Note_off_c, 0, 80, 64
1, 459729, Note_on_c, 0, 67, 55
1, 459732, Note_on_c, 0, 57, 42
1, 459735, Note_on_c, 0, 61, 53
1, 459738, Note_on_c, 0, 81, 69
1, 459738, Note_on_c, 0, 93, 77
1, 459755, Note_off_c, 0, 67, 62
1, 459762, Note_off_c, 0, 81, 65
1, 459764, Note_off_c, 0, 57, 58
1, 459776, Note_off_c, 0, 61, 59
1, 459781, Note_off_c, 0, 93, 54
1, 459846, Note_on_c, 0, 94, 76
1, 459851, Note_on_c, 0, 82, 67
1, 459881, Note_off_c, 0, 82, 63
1, 459883, Note_off_c, 0, 94, 58
1, 459966, Note_on_c, 0, 61, 56
1, 459969, Note_on_c, 0, 64, 51
1, 459974, Note_on_c, 0, 55, 55
1, 459988, Note_on_c, 0, 81, 52
1, 459989, Note_on_c, 0, 95, 68
1, 459991, Note_off_c, 0, 64, 60
1, 459997, Note_on_c, 0, 93, 53
1, 459998, Note_off_c, 0, 61, 62
1, 460006, Note_off_c, 0, 95, 67
1, 460009, Note_off_c, 0, 81, 58
1, 460009, Note_off_c, 0, 55, 62
1, 460010, Note_on_c, 0, 83, 23
1, 460020, Note_off_c, 0, 93, 55
1, 460048, Note_off_c, 0, 83, 48
1, 460094, Note_on_c, 0, 100, 85
1, 460102, Note_on_c, 0, 88, 77
1, 460116, Note_off_c, 0, 100, 67
1, 460125, Note_off_c, 0, 88, 69
1, 460174, Control_c, 0, 64, 103
1, 460189, Control_c, 0, 64, 88
1, 460204, Control_c, 0, 64, 76
1, 460218, Control_c, 0, 64, 65
1, 460219, Note_on_c, 0, 85, 75
1, 460227, Note_on_c, 0, 97, 73
1, 460233, Control_c, 0, 64, 54
1, 460248, Control_c, 0, 64, 36
1, 460251, Note_off_c, 0, 85, 63
1, 460252, Note_off_c, 0, 97, 70
1, 460263, Control_c, 0, 64, 0
1, 460334, Note_on_c, 0, 94, 78
1, 460337, Note_on_c, 0, 82, 74
1, 460349, Note_on_c, 0, 38, 58
1, 460362, Note_off_c, 0, 82, 64
1, 460362, Note_off_c, 0, 94, 60
1, 460410, Note_off_c, 0, 38, 60
1, 460441, Control_c, 0, 64, 64
1, 460445, Note_on_c, 0, 53, 64
1, 460456, Control_c, 0, 64, 127
1, 460456, Note_on_c, 0, 80, 82
1, 460459, Note_on_c, 0, 92, 79
1, 460473, Note_off_c, 0, 53, 68
1, 460485, Note_off_c, 0, 80, 62
1, 460486, Note_off_c, 0, 92, 63
1, 460582, Note_on_c, 0, 98, 83
1, 460588, Note_on_c, 0, 86, 83
1, 460608, Note_off_c, 0, 98, 65
1, 460611, Note_off_c, 0, 86, 65
1, 460704, Note_on_c, 0, 57, 47
1, 460704, Note_on_c, 0, 62, 49
1, 460706, Note_on_c, 0, 65, 37
1, 460714, Note_on_c, 0, 81, 76
1, 460714, Note_on_c, 0, 93, 78
1, 460734, Note_off_c, 0, 62, 60
1, 460736, Note_off_c, 0, 81, 67
1, 460737, Note_off_c, 0, 93, 66
1, 460738, Note_off_c, 0, 57, 62
1, 460738, Note_off_c, 0, 65, 50
1, 460823, Note_on_c, 0, 91, 73
1, 460825, Note_on_c, 0, 79, 69
1, 460848, Note_off_c, 0, 91, 63
1, 460851, Note_off_c, 0, 79, 65
1, 460936, Note_on_c, 0, 57, 55
1, 460937, Note_on_c, 0, 53, 54
1, 460938, Note_on_c, 0, 88, 84
1, 460939, Note_on_c, 0, 76, 75
1, 460939, Note_on_c, 0, 62, 55
1, 460962, Note_off_c, 0, 76, 71
1, 460962, Note_off_c, 0, 88, 64
1, 460963, Note_off_c, 0, 62, 60
1, 460972, Note_off_c, 0, 57, 63
1, 460986, Note_off_c, 0, 53, 64
1, 461058, Note_on_c, 0, 93, 85
1, 461067, Note_on_c, 0, 81, 76
1, 461079, Note_off_c, 0, 93, 68
1, 461091, Note_off_c, 0, 81, 66
1, 461183, Note_on_c, 0, 77, 82
1, 461185, Note_on_c, 0, 89, 80
1, 461204, Control_c, 0, 64, 113
1, 461206, Note_off_c, 0, 77, 66
1, 461207, Note_off_c, 0, 89, 66
1, 461219, Control_c, 0, 64, 94
1, 461234, Control_c, 0, 64, 79
1, 461249, Control_c, 0, 64, 66
1, 461264, Control_c, 0, 64, 39
1, 461279, Control_c, 0, 64, 0
1, 461299, Note_on_c, 0, 35, 54
1, 461299, Note_on_c, 0, 74, 73
1, 461320, Note_on_c, 0, 88, 50
1, 461320, Note_off_c, 0, 74, 73
1, 461330, Note_on_c, 0, 86, 37
1, 461341, Note_off_c, 0, 88, 53
1, 461342, Note_off_c, 0, 35, 62
1, 461359, Note_off_c, 0, 86, 34
1, 461395, Note_on_c, 0, 50, 67
1, 461413, Control_c, 0, 64, 73
1, 461422, Note_off_c, 0, 50, 64
1, 461427, Note_on_c, 0, 93, 82
1, 461428, Control_c, 0, 64, 127
1, 461430, Note_on_c, 0, 79, 83
1, 461430, Note_on_c, 0, 90, 71
1, 461438, Note_on_c, 0, 91, 69
1, 461450, Note_off_c, 0, 93, 64
1, 461458, Note_off_c, 0, 79, 62
1, 461459, Note_off_c, 0, 90, 63
1, 461465, Note_off_c, 0, 91, 64
1, 461554, Note_on_c, 0, 90, 72
1, 461562, Note_on_c, 0, 78, 65
1, 461587, Note_off_c, 0, 78, 65
1, 461601, Note_off_c, 0, 90, 55
1, 461675, Note_on_c, 0, 55, 40
1, 461693, Note_on_c, 0, 59, 44
1, 461696, Note_on_c, 0, 79, 68
1, 461698, Note_on_c, 0, 91, 69
1, 461705, Note_on_c, 0, 65, 26
1, 461720, Note_off_c, 0, 79, 66
1, 461727, Note_off_c, 0, 91, 61
1, 461741, Note_off_c, 0, 65, 43
1, 461752, Note_off_c, 0, 59, 54
1, 461799, Note_on_c, 0, 92, 76
1, 461804, Note_on_c, 0, 80, 67
1, 461833, Note_off_c, 0, 92, 59
1, 461836, Note_off_c, 0, 80, 61
1, 461911, Note_on_c, 0, 53, 59
1, 461913, Note_on_c, 0, 62, 62
1, 461916, Note_on_c, 0, 59, 57
1, 461918, Note_on_c, 0, 91, 84
1, 461919, Note_on_c, 0, 79, 71
1, 461935, Note_off_c, 0, 62, 64
1, 461941, Note_off_c, 0, 79, 65
1, 461944, Note_off_c, 0, 59, 65
1, 461947, Note_off_c, 0, 91, 61
1, 461953, Note_off_c, 0, 53, 64
1, 461970, Note_off_c, 0, 55, 19
1, 462030, Note_on_c, 0, 98, 89
1, 462039, Note_on_c, 0, 86, 81
1, 462048, Note_off_c, 0, 98, 67
1, 462062, Note_off_c, 0, 86, 68
1, 462131, Control_c, 0, 64, 98
1, 462146, Note_on_c, 0, 83, 78
1, 462146, Control_c, 0, 64, 82
1, 462150, Note_on_c, 0, 95, 83
1, 462161, Control_c, 0, 64, 71
1, 462167, Note_off_c, 0, 83, 70
1, 462174, Note_off_c, 0, 95, 67
1, 462176, Control_c, 0, 64, 61
1, 462192, Control_c, 0, 64, 45
1, 462206, Control_c, 0, 64, 0
1, 462259, Note_on_c, 0, 80, 79
1, 462263, Note_on_c, 0, 92, 80
1, 462279, Note_on_c, 0, 36, 59
1, 462283, Note_off_c, 0, 80, 65
1, 462286, Note_off_c, 0, 92, 65
1, 462324, Note_off_c, 0, 36, 62
1, 462340, Control_c, 0, 64, 20
1, 462355, Control_c, 0, 64, 99
1, 462358, Note_on_c, 0, 52, 72
1, 462370, Control_c, 0, 64, 127
1, 462371, Note_on_c, 0, 78, 88
1, 462372, Note_on_c, 0, 90, 89
1, 462385, Note_off_c, 0, 52, 68
1, 462400, Note_off_c, 0, 90, 59
1, 462411, Note_off_c, 0, 78, 57
1, 462503, Note_on_c, 0, 96, 91
1, 462507, Note_on_c, 0, 84, 81
1, 462531, Note_off_c, 0, 96, 60
1, 462534, Note_off_c, 0, 84, 63
1, 462630, Note_on_c, 0, 60, 50
1, 462630, Note_on_c, 0, 64, 36
1, 462634, Note_on_c, 0, 55, 37
1, 462637, Note_on_c, 0, 79, 68
1, 462644, Note_on_c, 0, 91, 53
1, 462654, Note_off_c, 0, 79, 66
1, 462659, Note_off_c, 0, 60, 62
1, 462662, Note_off_c, 0, 64, 50
1, 462663, Note_off_c, 0, 91, 57
1, 462665, Note_off_c, 0, 55, 51
1, 462739, Note_on_c, 0, 77, 73
1, 462750, Note_on_c, 0, 89, 60
1, 462760, Note_on_c, 0, 91, 29
1, 462763, Note_off_c, 0, 77, 68
1, 462767, Note_off_c, 0, 89, 64
1, 462798, Note_off_c, 0, 91, 31
1, 462839, Note_on_c, 0, 52, 61
1, 462842, Note_on_c, 0, 55, 50
1, 462850, Note_on_c, 0, 60, 54
1, 462855, Note_on_c, 0, 75, 77
1, 462860, Note_on_c, 0, 87, 66
1, 462869, Note_off_c, 0, 60, 64
1, 462877, Note_off_c, 0, 75, 69
1, 462882, Note_off_c, 0, 52, 65
1, 462886, Note_off_c, 0, 55, 62
1, 462889, Note_off_c, 0, 87, 65
1, 462966, Note_on_c, 0, 91, 88
1, 462976, Note_on_c, 0, 79, 73
1, 462996, Note_off_c, 0, 91, 57
1, 463000, Note_off_c, 0, 79, 68
1, 463095, Note_on_c, 0, 88, 82
1, 463099, Note_on_c, 0, 76, 74
1, 463118, Control_c, 0, 64, 121
1, 463120, Note_off_c, 0, 88, 61
1, 463123, Note_off_c, 0, 76, 70
1, 463133, Control_c, 0, 64, 98
1, 463148, Control_c, 0, 64, 86
1, 463169, Control_c, 0, 64, 76
1, 463184, Control_c, 0, 64, 68
1, 463199, Control_c, 0, 64, 59
1, 463214, Control_c, 0, 64, 44
1, 463229, Note_on_c, 0, 72, 65
1, 463229, Control_c, 0, 64, 0
1, 463248, Note_off_c, 0, 72, 67
1, 463253, Note_on_c, 0, 84, 27
1, 463264, Note_on_c, 0, 35, 51
1, 463267, Note_on_c, 0, 86, 21
1, 463270, Note_off_c, 0, 86, 47
1, 463288, Note_off_c, 0, 84, 32
1, 463322, Note_off_c, 0, 35, 63
1, 463356, Note_on_c, 0, 50, 65
1, 463359, Note_on_c, 0, 88, 71
1, 463362, Note_on_c, 0, 74, 74
1, 463362, Control_c, 0, 64, 55
1, 463366, Note_on_c, 0, 86, 75
1, 463369, Note_on_c, 0, 85, 51
1, 463377, Control_c, 0, 64, 106
1, 463379, Note_off_c, 0, 88, 62
1, 463385, Note_off_c, 0, 50, 64
1, 463386, Note_off_c, 0, 74, 69
1, 463392, Control_c, 0, 64, 127
1, 463398, Note_off_c, 0, 85, 66
1, 463403, Note_off_c, 0, 86, 54
1, 463482, Note_on_c, 0, 85, 61
1, 463491, Note_on_c, 0, 73, 57
1, 463514, Note_off_c, 0, 85, 58
1, 463515, Note_off_c, 0, 73, 67
1, 463612, Note_on_c, 0, 74, 66
1, 463613, Note_on_c, 0, 65, 51
1, 463619, Note_on_c, 0, 57, 41
1, 463619, Note_on_c, 0, 86, 61
1, 463625, Note_on_c, 0, 59, 31
1, 463638, Note_off_c, 0, 74, 65
1, 463649, Note_off_c, 0, 86, 64
1, 463657, Note_off_c, 0, 57, 55
1, 463657, Note_off_c, 0, 65, 53
1, 463663, Note_off_c, 0, 59, 49
1, 463735, Note_on_c, 0, 88, 73
1, 463738, Note_on_c, 0, 76, 66
1, 463764, Note_off_c, 0, 76, 66
1, 463769, Note_off_c, 0, 88, 55
1, 463887, Note_on_c, 0, 59, 39
1, 463896, Note_on_c, 0, 53, 35
1, 463899, Note_on_c, 0, 57, 35
1, 463965, Note_on_c, 0, 79, 63
1, 463970, Note_on_c, 0, 91, 50
1, 463983, Note_on_c, 0, 93, 50
1, 463985, Note_off_c, 0, 79, 63
1, 464001, Note_off_c, 0, 91, 63
1, 464009, Note_off_c, 0, 93, 55
1, 464123, Note_off_c, 0, 59, 29
1, 464192, Note_off_c, 0, 57, 40
1, 464200, Note_off_c, 0, 53, 41
1, 464211, Note_on_c, 0, 83, 84
1, 464212, Note_on_c, 0, 95, 67
1, 464230, Note_off_c, 0, 95, 65
1, 464233, Note_on_c, 0, 93, 53
1, 464238, Note_on_c, 0, 81, 81
1, 464238, Note_off_c, 0, 83, 60
1, 464255, Note_off_c, 0, 93, 56
1, 464258, Note_off_c, 0, 81, 69
1, 464259, Note_on_c, 0, 91, 44
1, 464269, Note_on_c, 0, 79, 70
1, 464278, Note_on_c, 0, 89, 57
1, 464284, Note_on_c, 0, 77, 68
1, 464285, Note_off_c, 0, 77, 127
1, 464287, Note_off_c, 0, 79, 42
1, 464287, Note_off_c, 0, 91, 35
1, 464294, Note_on_c, 0, 76, 82
1, 464299, Note_off_c, 0, 89, 42
1, 464301, Note_on_c, 0, 88, 46
1, 464307, Note_off_c, 0, 76, 45
1, 464309, Note_on_c, 0, 74, 86
1, 464313, Note_on_c, 0, 86, 61
1, 464324, Note_off_c, 0, 88, 38
1, 464338, Note_off_c, 0, 86, 0
1, 464338, Note_on_c, 0, 86, 45
1, 464343, Note_on_c, 0, 84, 45
1, 464370, Note_off_c, 0, 84, 36
1, 464392, Note_off_c, 0, 74, 60
1, 464400, Note_off_c, 0, 86, 61
1, 464453, Control_c, 0, 64, 96
1, 464458, Note_on_c, 0, 36, 61
1, 464467, Control_c, 0, 64, 66
1, 464482, Control_c, 0, 64, 0
1, 464483, Note_off_c, 0, 36, 59
1, 464513, Note_on_c, 0, 52, 75
1, 464518, Note_on_c, 0, 84, 76
1, 464523, Note_on_c, 0, 72, 72
1, 464526, Control_c, 0, 64, 60
1, 464539, Note_off_c, 0, 52, 70
1, 464541, Control_c, 0, 64, 91
1, 464556, Control_c, 0, 64, 127
1, 464561, Note_off_c, 0, 72, 62
1, 464573, Note_off_c, 0, 84, 61
1, 464650, Note_on_c, 0, 83, 67
1, 464661, Note_on_c, 0, 71, 67
1, 464681, Note_off_c, 0, 71, 60
1, 464686, Note_off_c, 0, 83, 61
1, 464744, Note_on_c, 0, 57, 33
1, 464758, Note_on_c, 0, 64, 50
1, 464780, Note_off_c, 0, 64, 62
1, 464784, Note_on_c, 0, 52, 31
1, 464784, Note_on_c, 0, 84, 77
1, 464792, Note_on_c, 0, 72, 66
1, 464795, Note_off_c, 0, 57, 61
1, 464806, Note_off_c, 0, 84, 68
1, 464808, Note_off_c, 0, 52, 58
1, 464809, Note_off_c, 0, 72, 67
1, 464915, Note_on_c, 0, 74, 56
1, 464922, Note_on_c, 0, 88, 55
1, 464923, Note_on_c, 0, 86, 57
1, 464933, Note_off_c, 0, 74, 64
1, 464941, Note_off_c, 0, 86, 61
1, 464941, Note_off_c, 0, 88, 57
1, 465038, Note_on_c, 0, 52, 51
1, 465056, Note_on_c, 0, 48, 47
1, 465064, Note_on_c, 0, 57, 53
1, 465077, Note_on_c, 0, 89, 82
1, 465085, Note_on_c, 0, 77, 70
1, 465112, Note_off_c, 0, 77, 66
1, 465126, Note_off_c, 0, 89, 65
1, 465309, Note_off_c, 0, 57, 60
1, 465350, Note_off_c, 0, 52, 64
1, 465357, Note_off_c, 0, 48, 63
1, 465409, Note_on_c, 0, 81, 82
1, 465432, Note_on_c, 0, 93, 22
1, 465437, Note_on_c, 0, 79, 77
1, 465452, Note_off_c, 0, 81, 59
1, 465458, Note_off_c, 0, 79, 69
1, 465462, Note_on_c, 0, 89, 54
1, 465470, Note_on_c, 0, 77, 79
1, 465475, Note_off_c, 0, 93, 31
1, 465484, Note_off_c, 0, 77, 67
1, 465484, Note_off_c, 0, 89, 56
1, 465488, Note_on_c, 0, 88, 52
1, 465494, Note_on_c, 0, 76, 64
1, 465495, Note_off_c, 0, 76, 127
1, 465510, Note_off_c, 0, 88, 38
1, 465511, Note_on_c, 0, 74, 62
1, 465512, Note_off_c, 0, 74, 127
1, 465512, Note_on_c, 0, 86, 48
1, 465513, Poly_aftertouch_c, 0, 76, 0
1, 465525, Note_on_c, 0, 72, 72
1, 465527, Note_on_c, 0, 84, 64
1, 465534, Note_off_c, 0, 86, 39
1, 465577, Note_off_c, 0, 84, 0
1, 465577, Note_on_c, 0, 84, 29
1, 465607, Note_off_c, 0, 72, 62
1, 465615, Note_off_c, 0, 84, 49
1, 465619, Note_on_c, 0, 38, 66
1, 465654, Control_c, 0, 64, 78
1, 465664, Note_off_c, 0, 38, 64
1, 465669, Control_c, 0, 64, 41
1, 465683, Control_c, 0, 64, 0
1, 465693, Note_on_c, 0, 53, 72
1, 465698, Control_c, 0, 64, 16
1, 465708, Note_on_c, 0, 83, 80
1, 465713, Control_c, 0, 64, 60
1, 465716, Note_on_c, 0, 71, 67
1, 465721, Note_off_c, 0, 53, 69
1, 465728, Control_c, 0, 64, 89
1, 465743, Control_c, 0, 64, 127
1, 465744, Note_off_c, 0, 71, 65
1, 465842, Note_on_c, 0, 70, 69
1, 465845, Note_on_c, 0, 82, 61
1, 465848, Note_off_c, 0, 83, 49
1, 465875, Note_off_c, 0, 70, 62
1, 465878, Note_off_c, 0, 82, 48
1, 465952, Note_on_c, 0, 65, 66
1, 465956, Note_on_c, 0, 57, 57
1, 465959, Note_on_c, 0, 59, 59
1, 465971, Note_off_c, 0, 65, 68
1, 465978, Note_on_c, 0, 83, 74
1, 465989, Note_off_c, 0, 59, 65
1, 465990, Note_on_c, 0, 71, 63
1, 465992, Note_off_c, 0, 57, 63
1, 466022, Note_off_c, 0, 71, 62
1, 466028, Note_off_c, 0, 83, 59
1, 466127, Note_on_c, 0, 84, 82
1, 466136, Note_on_c, 0, 72, 63
1, 466161, Note_off_c, 0, 72, 66
1, 466195, Note_off_c, 0, 84, 61
1, 466212, Note_on_c, 0, 40, 65
1, 466240, Control_c, 0, 64, 105
1, 466245, Note_off_c, 0, 40, 58
1, 466254, Control_c, 0, 64, 71
1, 466269, Control_c, 0, 64, 21
1, 466284, Control_c, 0, 64, 0
1, 466299, Control_c, 0, 64, 31
1, 466313, Control_c, 0, 64, 64
1, 466316, Note_on_c, 0, 56, 69
1, 466328, Control_c, 0, 64, 127
1, 466346, Note_off_c, 0, 56, 64
1, 466361, Note_on_c, 0, 100, 84
1, 466364, Note_on_c, 0, 88, 76
1, 466392, Note_off_c, 0, 88, 61
1, 466407, Note_off_c, 0, 100, 63
1, 466641, Note_on_c, 0, 86, 75
1, 466641, Note_on_c, 0, 98, 60
1, 466661, Note_off_c, 0, 98, 58
1, 466695, Note_on_c, 0, 84, 75
1, 466700, Note_off_c, 0, 86, 47
1, 466715, Note_on_c, 0, 96, 9
1, 466720, Note_off_c, 0, 84, 63
1, 466737, Note_on_c, 0, 83, 75
1, 466739, Note_on_c, 0, 95, 46
1, 466744, Note_on_c, 0, 52, 56
1, 466749, Note_on_c, 0, 93, 68
1, 466752, Note_on_c, 0, 59, 50
1, 466761, Note_off_c, 0, 83, 69
1, 466766, Note_off_c, 0, 95, 52
1, 466767, Note_off_c, 0, 96, 27
1, 466768, Note_on_c, 0, 81, 78
1, 466769, Note_off_c, 0, 93, 63
1, 466774, Note_off_c, 0, 59, 58
1, 466776, Note_off_c, 0, 52, 66
1, 466785, Note_on_c, 0, 91, 56
1, 466789, Note_off_c, 0, 81, 67
1, 466795, Note_on_c, 0, 79, 79
1, 466801, Note_on_c, 0, 89, 71
1, 466808, Note_off_c, 0, 91, 37
1, 466817, Note_off_c, 0, 79, 65
1, 466818, Note_on_c, 0, 77, 82
1, 466823, Note_on_c, 0, 88, 66
1, 466828, Note_off_c, 0, 89, 67
1, 466838, Note_off_c, 0, 77, 70
1, 466844, Note_on_c, 0, 76, 84
1, 466847, Note_on_c, 0, 86, 70
1, 466852, Note_off_c, 0, 88, 65
1, 466865, Note_off_c, 0, 76, 74
1, 466872, Note_off_c, 0, 86, 65
1, 466876, Note_on_c, 0, 74, 80
1, 466876, Note_on_c, 0, 84, 69
1, 466904, Note_off_c, 0, 74, 72
1, 466909, Note_off_c, 0, 84, 65
1, 466910, Note_on_c, 0, 72, 80
1, 466930, Note_off_c, 0, 72, 73
1, 466941, Note_on_c, 0, 71, 76
1, 466956, Note_off_c, 0, 71, 67
1, 466964, Note_on_c, 0, 81, 50
1, 466965, Note_on_c, 0, 69, 77
1, 466980, Note_off_c, 0, 69, 72
1, 466985, Note_on_c, 0, 67, 84
1, 466986, Note_off_c, 0, 81, 59
1, 466992, Note_on_c, 0, 77, 62
1, 467000, Note_off_c, 0, 67, 70
1, 467006, Note_on_c, 0, 65, 78
1, 467008, Note_off_c, 0, 77, 65
1, 467013, Note_on_c, 0, 76, 66
1, 467022, Note_off_c, 0, 65, 71
1, 467032, Note_off_c, 0, 76, 66
1, 467034, Note_on_c, 0, 64, 66
1, 467038, Note_on_c, 0, 74, 63
1, 467053, Note_off_c, 0, 64, 66
1, 467057, Note_off_c, 0, 74, 68
1, 467060, Note_on_c, 0, 62, 63
1, 467068, Note_on_c, 0, 72, 64
1, 467079, Note_off_c, 0, 62, 62
1, 467084, Note_on_c, 0, 60, 68
1, 467121, Note_off_c, 0, 60, 50
1, 467134, Note_off_c, 0, 72, 47
1, 467137, Note_on_c, 0, 59, 48
1, 467193, Poly_aftertouch_c, 0, 71, 127
1, 467203, Note_off_c, 0, 59, 60
1, 467234, Poly_aftertouch_c, 0, 71, 0
1, 467255, Note_on_c, 0, 33, 58
1, 467269, Control_c, 0, 64, 84
1, 467284, Control_c, 0, 64, 54
1, 467299, Control_c, 0, 64, 0
1, 467318, Note_off_c, 0, 33, 63
1, 467322, Note_on_c, 0, 57, 67
1, 467324, Note_on_c, 0, 69, 69
1, 467328, Control_c, 0, 64, 51
1, 467343, Control_c, 0, 64, 74
1, 467349, Note_off_c, 0, 57, 66
1, 467357, Note_off_c, 0, 69, 64
1, 467358, Control_c, 0, 64, 127
1, 467370, Note_on_c, 0, 48, 63
1, 467404, Note_off_c, 0, 48, 64
1, 467474, Note_on_c, 0, 72, 75
1, 467476, Note_on_c, 0, 60, 67
1, 467497, Note_off_c, 0, 60, 63
1, 467500, Note_off_c, 0, 72, 66
1, 467581, Note_on_c, 0, 52, 59
1, 467602, Note_on_c, 0, 76, 73
1, 467603, Note_on_c, 0, 64, 68
1, 467621, Note_off_c, 0, 64, 66
1, 467627, Note_off_c, 0, 76, 71
1, 467641, Note_on_c, 0, 60, 40
1, 467679, Note_off_c, 0, 52, 59
1, 467700, Note_on_c, 0, 64, 72
1, 467723, Note_off_c, 0, 64, 70
1, 467723, Note_off_c, 0, 60, 60
1, 467730, Note_on_c, 0, 81, 79
1, 467732, Note_on_c, 0, 69, 71
1, 467747, Note_off_c, 0, 69, 69
1, 467751, Note_off_c, 0, 81, 68
1, 467849, Note_on_c, 0, 84, 77
1, 467851, Note_on_c, 0, 72, 66
1, 467867, Note_off_c, 0, 72, 68
1, 467872, Note_off_c, 0, 84, 70
1, 467949, Note_on_c, 0, 45, 53
1, 467970, Note_on_c, 0, 88, 78
1, 467977, Note_on_c, 0, 76, 64
1, 467983, Note_off_c, 0, 45, 64
1, 467992, Note_off_c, 0, 88, 68
1, 467994, Note_off_c, 0, 76, 67
1, 468022, Note_on_c, 0, 52, 49
1, 468080, Note_on_c, 0, 60, 62
1, 468109, Note_off_c, 0, 60, 66
1, 468119, Note_on_c, 0, 93, 77
1, 468122, Note_on_c, 0, 81, 67
1, 468134, Note_off_c, 0, 52, 63
1, 468138, Note_off_c, 0, 81, 65
1, 468144, Note_off_c, 0, 93, 64
1, 468266, Note_on_c, 0, 96, 79
1, 468273, Note_on_c, 0, 84, 64
1, 468290, Note_off_c, 0, 84, 65
1, 468292, Note_off_c, 0, 96, 62
1, 468435, Note_on_c, 0, 100, 68
1, 468436, Note_on_c, 0, 88, 67
1, 468447, Note_on_c, 0, 33, 46
1, 468451, Note_off_c, 0, 88, 65
1, 468463, Note_off_c, 0, 100, 61
1, 468482, Note_off_c, 0, 33, 58
1, 468630, Note_on_c, 0, 105, 84
1, 468636, Note_on_c, 0, 48, 62
1, 468638, Note_on_c, 0, 93, 68
1, 468690, Note_off_c, 0, 93, 62
1, 468716, Note_off_c, 0, 105, 65
1, 468719, Note_off_c, 0, 48, 62
1, 469486, Control_c, 0, 64, 92
1, 469501, Control_c, 0, 64, 69
1, 469516, Control_c, 0, 64, 29
1, 469530, Control_c, 0, 64, 0
1, 469750, Note_on_c, 0, 68, 73
1, 469813, Note_off_c, 0, 68, 64
1, 469829, Note_on_c, 0, 69, 70
1, 469908, Note_off_c, 0, 69, 67
1, 469910, Note_on_c, 0, 71, 69
1, 469910, Note_on_c, 0, 88, 83
1, 469941, Note_off_c, 0, 88, 63
1, 469960, Note_off_c, 0, 71, 61
1, 469964, Note_on_c, 0, 72, 75
1, 469980, Note_on_c, 0, 88, 72
1, 470001, Note_off_c, 0, 72, 66
1, 470011, Note_off_c, 0, 88, 64
1, 470055, Note_on_c, 0, 93, 101
1, 470056, Note_on_c, 0, 81, 94
1, 470071, Note_on_c, 0, 74, 79
1, 470071, Control_c, 0, 64, 80
1, 470085, Note_off_c, 0, 93, 64
1, 470086, Control_c, 0, 64, 127
1, 470087, Note_off_c, 0, 81, 63
1, 470129, Note_off_c, 0, 74, 62
1, 470154, Note_on_c, 0, 77, 65
1, 470197, Note_off_c, 0, 77, 59
1, 470222, Note_on_c, 0, 76, 70
1, 470296, Note_off_c, 0, 76, 65
1, 470299, Note_on_c, 0, 74, 72
1, 470320, Note_off_c, 0, 74, 73
1, 470373, Note_on_c, 0, 72, 77
1, 470445, Note_off_c, 0, 72, 56
1, 470454, Note_on_c, 0, 76, 81
1, 470457, Control_c, 0, 64, 99
1, 470472, Control_c, 0, 64, 81
1, 470487, Control_c, 0, 64, 67
1, 470502, Control_c, 0, 64, 45
1, 470517, Control_c, 0, 64, 0
1, 470518, Note_on_c, 0, 40, 65
1, 470518, Note_off_c, 0, 76, 64
1, 470525, Note_on_c, 0, 74, 74
1, 470541, Note_off_c, 0, 40, 60
1, 470564, Note_off_c, 0, 74, 69
1, 470591, Note_on_c, 0, 72, 80
1, 470594, Note_on_c, 0, 40, 58
1, 470627, Note_off_c, 0, 72, 67
1, 470630, Note_off_c, 0, 40, 60
1, 470668, Note_on_c, 0, 45, 87
1, 470672, Note_on_c, 0, 33, 71
1, 470672, Note_on_c, 0, 71, 91
1, 470692, Note_off_c, 0, 45, 70
1, 470695, Note_off_c, 0, 33, 62
1, 470701, Control_c, 0, 64, 8
1, 470716, Control_c, 0, 64, 99
1, 470720, Note_off_c, 0, 71, 61
1, 470731, Control_c, 0, 64, 127
1, 470758, Note_on_c, 0, 74, 64
1, 470782, Note_on_c, 0, 72, 41
1, 470803, Note_off_c, 0, 74, 67
1, 470812, Note_off_c, 0, 72, 0
1, 470812, Note_on_c, 0, 72, 25
1, 470871, Note_off_c, 0, 72, 63
1, 470906, Note_on_c, 0, 71, 71
1, 470930, Note_off_c, 0, 71, 64
1, 470983, Note_on_c, 0, 69, 64
1, 471043, Control_c, 0, 64, 115
1, 471047, Note_off_c, 0, 69, 65
1, 471058, Control_c, 0, 64, 92
1, 471064, Note_on_c, 0, 72, 68
1, 471073, Control_c, 0, 64, 76
1, 471088, Control_c, 0, 64, 61
1, 471102, Control_c, 0, 64, 32
1, 471117, Control_c, 0, 64, 0
1, 471122, Note_on_c, 0, 93, 87
1, 471122, Note_off_c, 0, 72, 66
1, 471137, Note_on_c, 0, 71, 74
1, 471141, Note_off_c, 0, 93, 69
1, 471187, Note_on_c, 0, 93, 86
1, 471210, Note_off_c, 0, 71, 61
1, 471222, Note_on_c, 0, 69, 65
1, 471226, Note_off_c, 0, 93, 61
1, 471274, Note_on_c, 0, 100, 99
1, 471275, Note_on_c, 0, 88, 96
1, 471288, Note_on_c, 0, 68, 67
1, 471291, Note_off_c, 0, 69, 66
1, 471292, Note_off_c, 0, 100, 68
1, 471295, Control_c, 0, 64, 49
1, 471309, Control_c, 0, 64, 127
1, 471310, Note_off_c, 0, 88, 66
1, 471339, Note_off_c, 0, 68, 66
1, 471343, Note_on_c, 0, 71, 77
1, 471423, Note_off_c, 0, 71, 58
1, 471426, Note_on_c, 0, 69, 74
1, 471515, Note_on_c, 0, 68, 72
1, 471520, Note_off_c, 0, 69, 65
1, 471535, Note_off_c, 0, 68, 69
1, 471590, Note_on_c, 0, 66, 77
1, 471662, Note_on_c, 0, 69, 72
1, 471664, Note_off_c, 0, 66, 63
1, 471688, Control_c, 0, 64, 98
1, 471702, Control_c, 0, 64, 82
1, 471717, Control_c, 0, 64, 69
1, 471732, Control_c, 0, 64, 54
1, 471744, Note_on_c, 0, 68, 81
1, 471747, Note_on_c, 0, 45, 47
1, 471747, Control_c, 0, 64, 0
1, 471749, Note_off_c, 0, 69, 64
1, 471775, Note_off_c, 0, 45, 52
1, 471808, Note_on_c, 0, 66, 81
1, 471837, Note_off_c, 0, 68, 65
1, 471837, Note_on_c, 0, 45, 53
1, 471875, Note_on_c, 0, 52, 88
1, 471876, Note_on_c, 0, 40, 71
1, 471884, Note_on_c, 0, 64, 85
1, 471888, Note_off_c, 0, 45, 62
1, 471888, Note_off_c, 0, 66, 62
1, 471898, Note_off_c, 0, 40, 63
1, 471916, Note_off_c, 0, 52, 65
1, 471925, Control_c, 0, 64, 84
1, 471940, Note_off_c, 0, 64, 62
1, 471940, Control_c, 0, 64, 127
1, 471957, Note_on_c, 0, 68, 79
1, 472039, Note_on_c, 0, 66, 74
1, 472064, Note_off_c, 0, 68, 57
1, 472110, Note_off_c, 0, 66, 63
1, 472114, Note_on_c, 0, 64, 73
1, 472135, Note_off_c, 0, 64, 71
1, 472204, Note_on_c, 0, 68, 64
1, 472243, Control_c, 0, 64, 104
1, 472258, Control_c, 0, 64, 86
1, 472273, Control_c, 0, 64, 72
1, 472281, Note_on_c, 0, 69, 71
1, 472281, Note_off_c, 0, 68, 65
1, 472288, Control_c, 0, 64, 59
1, 472303, Control_c, 0, 64, 24
1, 472317, Control_c, 0, 64, 0
1, 472353, Note_on_c, 0, 71, 72
1, 472363, Note_off_c, 0, 69, 65
1, 472367, Note_on_c, 0, 88, 85
1, 472386, Note_off_c, 0, 88, 70
1, 472429, Note_on_c, 0, 88, 85
1, 472455, Note_off_c, 0, 71, 62
1, 472464, Note_off_c, 0, 88, 63
1, 472510, Note_on_c, 0, 93, 103
1, 472511, Note_on_c, 0, 81, 95
1, 472515, Note_on_c, 0, 74, 72
1, 472536, Note_off_c, 0, 93, 62
1, 472540, Control_c, 0, 64, 73
1, 472544, Note_off_c, 0, 81, 62
1, 472555, Control_c, 0, 64, 127
1, 472580, Note_off_c, 0, 74, 57
1, 472597, Note_on_c, 0, 77, 71
1, 472639, Note_off_c, 0, 77, 61
1, 472660, Note_on_c, 0, 76, 74
1, 472731, Note_on_c, 0, 74, 74
1, 472734, Note_off_c, 0, 76, 61
1, 472749, Note_off_c, 0, 74, 73
1, 472812, Note_on_c, 0, 72, 72
1, 472873, Note_off_c, 0, 72, 54
1, 472899, Note_on_c, 0, 76, 75
1, 472904, Control_c, 0, 64, 95
1, 472919, Control_c, 0, 64, 77
1, 472934, Control_c, 0, 64, 62
1, 472948, Control_c, 0, 64, 20
1, 472963, Control_c, 0, 64, 0
1, 472964, Note_off_c, 0, 76, 66
1, 472964, Note_on_c, 0, 40, 73
1, 472968, Note_on_c, 0, 74, 75
1, 472988, Note_off_c, 0, 40, 67
1, 473008, Note_off_c, 0, 74, 69
1, 473032, Note_on_c, 0, 72, 83
1, 473048, Note_on_c, 0, 40, 70
1, 473074, Note_off_c, 0, 72, 67
1, 473108, Note_on_c, 0, 45, 81
1, 473109, Note_off_c, 0, 40, 42
1, 473111, Note_on_c, 0, 71, 89
1, 473113, Note_on_c, 0, 33, 69
1, 473134, Note_off_c, 0, 45, 70
1, 473136, Note_off_c, 0, 33, 62
1, 473155, Control_c, 0, 64, 87
1, 473160, Note_off_c, 0, 71, 62
1, 473170, Control_c, 0, 64, 127
1, 473187, Note_on_c, 0, 74, 82
1, 473220, Note_off_c, 0, 74, 70
1, 473254, Note_on_c, 0, 72, 83
1, 473299, Note_off_c, 0, 72, 67
1, 473339, Note_on_c, 0, 71, 75
1, 473364, Note_off_c, 0, 71, 63
1, 473415, Note_on_c, 0, 69, 74
1, 473471, Note_off_c, 0, 69, 64
1, 473483, Control_c, 0, 64, 105
1, 473487, Note_on_c, 0, 72, 73
1, 473497, Control_c, 0, 64, 86
1, 473512, Control_c, 0, 64, 71
1, 473527, Control_c, 0, 64, 58
1, 473542, Control_c, 0, 64, 24
1, 473553, Note_off_c, 0, 72, 64
1, 473557, Control_c, 0, 64, 0
1, 473560, Note_on_c, 0, 71, 76
1, 473569, Note_on_c, 0, 93, 83
1, 473590, Note_off_c, 0, 93, 69
1, 473629, Note_on_c, 0, 93, 85
1, 473646, Note_on_c, 0, 69, 70
1, 473647, Note_off_c, 0, 71, 60
1, 473661, Note_off_c, 0, 93, 63
1, 473716, Note_on_c, 0, 100, 99
1, 473718, Note_on_c, 0, 88, 96
1, 473721, Note_off_c, 0, 69, 67
1, 473723, Note_on_c, 0, 68, 72
1, 473736, Note_off_c, 0, 100, 68
1, 473742, Control_c, 0, 64, 86
1, 473754, Note_off_c, 0, 88, 66
1, 473757, Control_c, 0, 64, 127
1, 473773, Note_off_c, 0, 68, 66
1, 473787, Note_on_c, 0, 71, 74
1, 473855, Note_off_c, 0, 71, 58
1, 473859, Note_on_c, 0, 69, 70
1, 473943, Note_on_c, 0, 68, 78
1, 473959, Note_off_c, 0, 69, 66
1, 473971, Note_off_c, 0, 68, 66
1, 474021, Note_on_c, 0, 66, 81
1, 474088, Note_on_c, 0, 69, 78
1, 474095, Note_off_c, 0, 66, 62
1, 474156, Control_c, 0, 64, 93
1, 474164, Note_on_c, 0, 45, 66
1, 474168, Note_on_c, 0, 68, 84
1, 474172, Control_c, 0, 64, 69
1, 474185, Note_off_c, 0, 69, 63
1, 474186, Note_off_c, 0, 45, 64
1, 474186, Control_c, 0, 64, 0
1, 474237, Note_on_c, 0, 66, 85
1, 474263, Note_on_c, 0, 45, 60
1, 474270, Note_off_c, 0, 68, 63
1, 474305, Note_on_c, 0, 52, 89
1, 474311, Note_on_c, 0, 40, 75
1, 474314, Note_off_c, 0, 66, 63
1, 474314, Note_off_c, 0, 45, 63
1, 474316, Note_on_c, 0, 64, 87
1, 474342, Note_off_c, 0, 40, 65
1, 474350, Control_c, 0, 64, 42
1, 474353, Note_off_c, 0, 52, 66
1, 474365, Control_c, 0, 64, 117
1, 474372, Note_off_c, 0, 64, 64
1, 474380, Control_c, 0, 64, 127
1, 474401, Note_on_c, 0, 68, 84
1, 474483, Note_on_c, 0, 66, 87
1, 474511, Note_off_c, 0, 68, 62
1, 474517, Note_on_c, 0, 65, 56
1, 474541, Note_off_c, 0, 65, 57
1, 474553, Note_off_c, 0, 66, 55
1, 474564, Note_on_c, 0, 62, 72
1, 474566, Note_on_c, 0, 64, 72
1, 474590, Note_off_c, 0, 62, 66
1, 474591, Note_off_c, 0, 64, 68
1, 474609, Control_c, 0, 64, 90
1, 474624, Control_c, 0, 64, 60
1, 474630, Note_on_c, 0, 44, 80
1, 474639, Control_c, 0, 64, 0
1, 474709, Note_on_c, 0, 56, 84
1, 474728, Control_c, 0, 64, 19
1, 474737, Note_off_c, 0, 56, 64
1, 474743, Control_c, 0, 64, 84
1, 474758, Control_c, 0, 64, 127
1, 474774, Note_off_c, 0, 44, 62
1, 474806, Note_on_c, 0, 68, 77
1, 474860, Note_off_c, 0, 68, 64
1, 474878, Note_on_c, 0, 80, 84
1, 474897, Note_off_c, 0, 80, 71
1, 474996, Control_c, 0, 64, 86
1, 475010, Control_c, 0, 64, 55
1, 475025, Control_c, 0, 64, 0
1, 475036, Note_on_c, 0, 44, 95
1, 475039, Note_on_c, 0, 32, 86
1, 475051, Note_on_c, 0, 92, 99
1, 475053, Note_on_c, 0, 80, 90
1, 475058, Note_on_c, 0, 87, 85
1, 475069, Control_c, 0, 64, 63
1, 475080, Note_off_c, 0, 32, 63
1, 475083, Note_off_c, 0, 44, 64
1, 475084, Control_c, 0, 64, 127
1, 475149, Note_off_c, 0, 80, 61
1, 475153, Note_off_c, 0, 87, 63
1, 475164, Note_on_c, 0, 90, 78
1, 475232, Note_on_c, 0, 88, 82
1, 475250, Note_off_c, 0, 92, 54
1, 475310, Note_off_c, 0, 90, 60
1, 475312, Note_on_c, 0, 87, 82
1, 475332, Note_off_c, 0, 88, 63
1, 475375, Note_off_c, 0, 87, 64
1, 475378, Note_on_c, 0, 85, 69
1, 475423, Note_off_c, 0, 85, 62
1, 475435, Note_on_c, 0, 88, 81
1, 475479, Note_on_c, 0, 44, 70
1, 475505, Note_on_c, 0, 87, 87
1, 475521, Control_c, 0, 64, 120
1, 475527, Note_off_c, 0, 44, 61
1, 475536, Control_c, 0, 64, 96
1, 475538, Note_off_c, 0, 88, 60
1, 475551, Control_c, 0, 64, 80
1, 475563, Note_on_c, 0, 56, 32
1, 475566, Control_c, 0, 64, 62
1, 475572, Note_on_c, 0, 85, 82
1, 475581, Control_c, 0, 64, 0
1, 475593, Note_off_c, 0, 87, 64
1, 475595, Note_off_c, 0, 56, 52
1, 475654, Note_on_c, 0, 92, 104
1, 475661, Note_on_c, 0, 83, 87
1, 475669, Control_c, 0, 64, 64
1, 475672, Note_on_c, 0, 71, 69
1, 475679, Note_off_c, 0, 85, 64
1, 475684, Control_c, 0, 64, 127
1, 475699, Note_off_c, 0, 83, 64
1, 475703, Note_on_c, 0, 75, 72
1, 475705, Note_off_c, 0, 92, 66
1, 475715, Note_off_c, 0, 71, 59
1, 475766, Note_off_c, 0, 75, 62
1, 475778, Note_on_c, 0, 73, 80
1, 475829, Note_off_c, 0, 73, 68
1, 475845, Note_on_c, 0, 71, 74
1, 475868, Note_off_c, 0, 71, 65
1, 475933, Note_on_c, 0, 69, 87
1, 476000, Note_off_c, 0, 69, 62
1, 476001, Note_on_c, 0, 73, 88
1, 476063, Note_on_c, 0, 32, 65
1, 476074, Note_on_c, 0, 71, 80
1, 476121, Note_off_c, 0, 32, 61
1, 476126, Note_on_c, 0, 44, 62
1, 476130, Note_on_c, 0, 69, 90
1, 476134, Note_off_c, 0, 73, 65
1, 476137, Control_c, 0, 64, 89
1, 476150, Note_off_c, 0, 44, 60
1, 476152, Control_c, 0, 64, 63
1, 476156, Note_off_c, 0, 71, 62
1, 476166, Control_c, 0, 64, 0
1, 476174, Note_off_c, 0, 69, 69
1, 476225, Control_c, 0, 64, 60
1, 476228, Note_on_c, 0, 68, 103
1, 476231, Note_on_c, 0, 80, 97
1, 476240, Control_c, 0, 64, 127
1, 476242, Note_on_c, 0, 56, 74
1, 476266, Note_off_c, 0, 68, 67
1, 476268, Note_off_c, 0, 80, 64
1, 476299, Note_off_c, 0, 56, 61
1, 476317, Note_on_c, 0, 59, 77
1, 476374, Note_on_c, 0, 57, 75
1, 476389, Note_off_c, 0, 59, 60
1, 476428, Note_on_c, 0, 56, 79
1, 476437, Note_off_c, 0, 57, 64
1, 476451, Note_off_c, 0, 56, 66
1, 476528, Note_on_c, 0, 54, 88
1, 476609, Note_on_c, 0, 57, 79
1, 476609, Note_off_c, 0, 54, 60
1, 476663, Note_on_c, 0, 32, 64
1, 476681, Note_on_c, 0, 56, 84
1, 476705, Note_off_c, 0, 57, 59
1, 476731, Note_off_c, 0, 32, 62
1, 476738, Control_c, 0, 64, 102
1, 476748, Note_on_c, 0, 44, 65
1, 476753, Control_c, 0, 64, 89
1, 476755, Note_on_c, 0, 54, 73
1, 476762, Note_off_c, 0, 56, 63
1, 476768, Control_c, 0, 64, 76
1, 476783, Control_c, 0, 64, 60
1, 476792, Note_off_c, 0, 44, 56
1, 476794, Note_off_c, 0, 54, 61
1, 476797, Control_c, 0, 64, 0
1, 476835, Note_on_c, 0, 40, 66
1, 476839, Note_on_c, 0, 52, 94
1, 476841, Note_on_c, 0, 56, 93
1, 476887, Control_c, 0, 64, 35
1, 476902, Control_c, 0, 64, 87
1, 476907, Note_on_c, 0, 44, 69
1, 476913, Note_off_c, 0, 40, 64
1, 476916, Control_c, 0, 64, 127
1, 476923, Note_off_c, 0, 52, 64
1, 476958, Note_off_c, 0, 56, 62
1, 476979, Note_on_c, 0, 42, 79
1, 476984, Note_off_c, 0, 44, 62
1, 477062, Note_on_c, 0, 40, 58
1, 477072, Note_off_c, 0, 42, 61
1, 477109, Note_on_c, 0, 39, 72
1, 477128, Note_off_c, 0, 40, 61
1, 477133, Poly_aftertouch_c, 0, 41, 127
1, 477170, Poly_aftertouch_c, 0, 41, 0
1, 477172, Note_on_c, 0, 42, 81
1, 477181, Note_off_c, 0, 39, 62
1, 477259, Note_on_c, 0, 40, 71
1, 477294, Note_on_c, 0, 68, 86
1, 477299, Note_off_c, 0, 42, 61
1, 477302, Note_on_c, 0, 39, 77
1, 477317, Note_off_c, 0, 40, 63
1, 477330, Note_off_c, 0, 39, 68
1, 477355, Note_off_c, 0, 68, 63
1, 477358, Note_on_c, 0, 80, 89
1, 477404, Note_off_c, 0, 80, 66
1, 477517, Control_c, 0, 64, 110
1, 477532, Control_c, 0, 64, 73
1, 477546, Control_c, 0, 64, 0
1, 477561, Note_on_c, 0, 37, 95
1, 477562, Note_on_c, 0, 25, 90
1, 477569, Note_on_c, 0, 92, 101
1, 477573, Note_on_c, 0, 80, 88
1, 477578, Note_on_c, 0, 87, 85
1, 477591, Control_c, 0, 64, 13
1, 477605, Note_off_c, 0, 25, 65
1, 477606, Control_c, 0, 64, 68
1, 477620, Control_c, 0, 64, 127
1, 477629, Note_off_c, 0, 37, 64
1, 477668, Note_off_c, 0, 87, 63
1, 477672, Note_off_c, 0, 80, 61
1, 477689, Note_on_c, 0, 90, 66
1, 477770, Note_on_c, 0, 88, 71
1, 477779, Note_off_c, 0, 92, 60
1, 477780, Note_on_c, 0, 89, 60
1, 477846, Note_on_c, 0, 87, 82
1, 477852, Note_off_c, 0, 90, 62
1, 477875, Note_off_c, 0, 88, 64
1, 477887, Note_off_c, 0, 89, 23
1, 477912, Note_on_c, 0, 85, 75
1, 477916, Note_off_c, 0, 87, 64
1, 477954, Note_off_c, 0, 85, 67
1, 477975, Note_on_c, 0, 88, 83
1, 478028, Note_on_c, 0, 49, 68
1, 478034, Control_c, 0, 64, 105
1, 478039, Note_on_c, 0, 87, 84
1, 478049, Control_c, 0, 64, 92
1, 478064, Control_c, 0, 64, 80
1, 478072, Note_off_c, 0, 49, 64
1, 478072, Note_off_c, 0, 88, 59
1, 478079, Control_c, 0, 64, 68
1, 478086, Note_on_c, 0, 61, 67
1, 478094, Control_c, 0, 64, 54
1, 478103, Note_on_c, 0, 85, 83
1, 478104, Note_off_c, 0, 61, 62
1, 478109, Control_c, 0, 64, 0
1, 478138, Note_off_c, 0, 87, 65
1, 478197, Note_on_c, 0, 92, 100
1, 478202, Note_on_c, 0, 83, 87
1, 478206, Control_c, 0, 64, 37
1, 478216, Note_on_c, 0, 72, 64
1, 478221, Control_c, 0, 64, 85
1, 478222, Note_off_c, 0, 85, 64
1, 478236, Control_c, 0, 64, 127
1, 478240, Note_off_c, 0, 83, 65
1, 478250, Note_off_c, 0, 92, 66
1, 478252, Note_on_c, 0, 75, 66
1, 478264, Note_off_c, 0, 72, 64
1, 478295, Note_off_c, 0, 75, 47
1, 478337, Note_on_c, 0, 73, 76
1, 478396, Note_off_c, 0, 73, 66
1, 478401, Note_on_c, 0, 71, 77
1, 478422, Note_off_c, 0, 71, 68
1, 478485, Note_on_c, 0, 69, 87
1, 478556, Note_on_c, 0, 73, 86
1, 478560, Note_off_c, 0, 69, 64
1, 478611, Note_on_c, 0, 37, 60
1, 478637, Note_on_c, 0, 71, 80
1, 478672, Note_on_c, 0, 49, 65
1, 478673, Note_off_c, 0, 37, 61
1, 478679, Control_c, 0, 64, 85
1, 478690, Note_off_c, 0, 73, 61
1, 478693, Note_off_c, 0, 49, 62
1, 478694, Control_c, 0, 64, 62
1, 478695, Note_on_c, 0, 69, 78
1, 478695, Poly_aftertouch_c, 0, 72, 0
1, 478708, Note_off_c, 0, 71, 62
1, 478709, Control_c, 0, 64, 0
1, 478732, Note_off_c, 0, 69, 67
1, 478780, Note_on_c, 0, 56, 73
1, 478783, Note_on_c, 0, 68, 97
1, 478783, Control_c, 0, 64, 63
1, 478786, Note_on_c, 0, 80, 91
1, 478798, Control_c, 0, 64, 98
1, 478804, Note_off_c, 0, 80, 70
1, 478812, Control_c, 0, 64, 127
1, 478824, Note_off_c, 0, 68, 64
1, 478858, Note_on_c, 0, 59, 69
1, 478863, Note_off_c, 0, 56, 61
1, 478921, Note_on_c, 0, 57, 74
1, 478936, Note_off_c, 0, 59, 61
1, 478981, Note_on_c, 0, 56, 80
1, 478984, Note_off_c, 0, 57, 64
1, 479006, Note_off_c, 0, 56, 63
1, 479078, Note_on_c, 0, 54, 82
1, 479149, Note_on_c, 0, 57, 77
1, 479163, Note_off_c, 0, 54, 57
1, 479221, Control_c, 0, 64, 122
1, 479228, Note_on_c, 0, 25, 66
1, 479230, Note_on_c, 0, 56, 82
1, 479236, Control_c, 0, 64, 103
1, 479251, Control_c, 0, 64, 93
1, 479251, Note_off_c, 0, 57, 59
1, 479266, Control_c, 0, 64, 84
1, 479266, Note_off_c, 0, 25, 65
1, 479280, Control_c, 0, 64, 76
1, 479284, Note_on_c, 0, 37, 60
1, 479295, Control_c, 0, 64, 65
1, 479299, Note_on_c, 0, 54, 76
1, 479307, Note_off_c, 0, 37, 58
1, 479310, Control_c, 0, 64, 49
1, 479325, Control_c, 0, 64, 0
1, 479327, Note_off_c, 0, 56, 62
1, 479353, Note_off_c, 0, 54, 62
1, 479388, Note_on_c, 0, 56, 88
1, 479391, Note_on_c, 0, 52, 94
1, 479400, Note_on_c, 0, 40, 69
1, 479436, Note_on_c, 0, 44, 66
1, 479442, Control_c, 0, 64, 63
1, 479450, Note_off_c, 0, 40, 59
1, 479457, Control_c, 0, 64, 127
1, 479477, Note_off_c, 0, 52, 63
1, 479507, Note_on_c, 0, 42, 77
1, 479518, Note_off_c, 0, 44, 58
1, 479519, Note_off_c, 0, 56, 62
1, 479596, Note_on_c, 0, 40, 55
1, 479611, Note_off_c, 0, 42, 60
1, 479662, Note_on_c, 0, 39, 73
1, 479668, Note_off_c, 0, 40, 62
1, 479726, Note_on_c, 0, 42, 71
1, 479733, Note_off_c, 0, 39, 61
1, 479792, Note_on_c, 0, 40, 67
1, 479830, Note_off_c, 0, 42, 60
1, 479836, Note_on_c, 0, 57, 77
1, 479840, Note_on_c, 0, 39, 62
1, 479847, Note_off_c, 0, 40, 62
1, 479870, Note_off_c, 0, 39, 66
1, 479888, Note_off_c, 0, 57, 64
1, 479890, Note_on_c, 0, 69, 83
1, 479921, Note_off_c, 0, 69, 66
1, 480014, Control_c, 0, 64, 85
1, 480029, Control_c, 0, 64, 58
1, 480044, Control_c, 0, 64, 0
1, 480052, Note_on_c, 0, 45, 93
1, 480053, Note_on_c, 0, 33, 89
1, 480067, Note_on_c, 0, 81, 93
1, 480067, Note_on_c, 0, 69, 90
1, 480072, Note_on_c, 0, 73, 85
1, 480085, Note_off_c, 0, 33, 67
1, 480103, Control_c, 0, 64, 63
1, 480113, Note_off_c, 0, 45, 66
1, 480118, Control_c, 0, 64, 97
1, 480132, Control_c, 0, 64, 127
1, 480145, Note_off_c, 0, 69, 62
1, 480152, Note_off_c, 0, 73, 65
1, 480172, Note_on_c, 0, 76, 79
1, 480186, Note_off_c, 0, 81, 45
1, 480241, Note_on_c, 0, 74, 76
1, 480310, Note_on_c, 0, 73, 85
1, 480311, Note_off_c, 0, 74, 65
1, 480312, Note_off_c, 0, 76, 65
1, 480336, Note_off_c, 0, 73, 66
1, 480418, Note_on_c, 0, 74, 77
1, 480451, Control_c, 0, 64, 104
1, 480465, Control_c, 0, 64, 83
1, 480480, Control_c, 0, 64, 67
1, 480482, Note_on_c, 0, 77, 75
1, 480484, Note_off_c, 0, 74, 63
1, 480495, Control_c, 0, 64, 39
1, 480510, Control_c, 0, 64, 0
1, 480557, Note_on_c, 0, 86, 83
1, 480562, Note_on_c, 0, 76, 77
1, 480563, Note_off_c, 0, 77, 62
1, 480577, Note_off_c, 0, 86, 71
1, 480622, Note_off_c, 0, 76, 65
1, 480623, Note_on_c, 0, 86, 86
1, 480647, Note_on_c, 0, 74, 60
1, 480651, Note_off_c, 0, 86, 65
1, 480702, Note_on_c, 0, 93, 99
1, 480703, Note_on_c, 0, 81, 96
1, 480718, Control_c, 0, 64, 21
1, 480722, Note_on_c, 0, 76, 78
1, 480723, Note_off_c, 0, 74, 65
1, 480732, Note_off_c, 0, 93, 67
1, 480733, Control_c, 0, 64, 88
1, 480735, Note_off_c, 0, 81, 64
1, 480748, Control_c, 0, 64, 127
1, 480787, Note_off_c, 0, 76, 65
1, 480792, Note_on_c, 0, 79, 67
1, 480848, Note_off_c, 0, 79, 63
1, 480861, Note_on_c, 0, 77, 68
1, 480937, Note_on_c, 0, 76, 80
1, 480941, Note_off_c, 0, 77, 61
1, 480956, Note_off_c, 0, 76, 75
1, 481017, Note_on_c, 0, 79, 78
1, 481087, Note_off_c, 0, 79, 59
1, 481096, Note_on_c, 0, 82, 82
1, 481103, Control_c, 0, 64, 101
1, 481118, Control_c, 0, 64, 85
1, 481141, Control_c, 0, 64, 72
1, 481155, Control_c, 0, 64, 61
1, 481158, Note_on_c, 0, 45, 74
1, 481170, Control_c, 0, 64, 30
1, 481178, Note_on_c, 0, 81, 81
1, 481185, Control_c, 0, 64, 0
1, 481193, Note_off_c, 0, 82, 62
1, 481203, Note_off_c, 0, 45, 63
1, 481233, Note_off_c, 0, 81, 65
1, 481242, Note_on_c, 0, 45, 49
1, 481245, Note_on_c, 0, 79, 86
1, 481295, Note_off_c, 0, 79, 63
1, 481310, Note_on_c, 0, 50, 81
1, 481318, Note_on_c, 0, 38, 61
1, 481321, Note_off_c, 0, 45, 58
1, 481325, Note_on_c, 0, 77, 86
1, 481338, Note_off_c, 0, 50, 66
1, 481345, Note_off_c, 0, 38, 57
1, 481348, Control_c, 0, 64, 65
1, 481364, Control_c, 0, 64, 127
1, 481396, Note_off_c, 0, 77, 56
1, 481406, Note_on_c, 0, 81, 86
1, 481482, Note_on_c, 0, 79, 82
1, 481487, Note_on_c, 0, 62, 47
1, 481489, Note_off_c, 0, 81, 58
1, 481511, Control_c, 0, 64, 101
1, 481516, Note_off_c, 0, 62, 48
1, 481526, Control_c, 0, 64, 67
1, 481541, Control_c, 0, 64, 0
1, 481542, Note_on_c, 0, 77, 86
1, 481552, Note_off_c, 0, 79, 63
1, 481567, Note_on_c, 0, 62, 56
1, 481614, Note_on_c, 0, 70, 83
1, 481615, Control_c, 0, 64, 14
1, 481624, Note_off_c, 0, 77, 61
1, 481629, Note_on_c, 0, 76, 84
1, 481629, Control_c, 0, 64, 90
1, 481644, Control_c, 0, 64, 127
1, 481650, Note_off_c, 0, 62, 62
1, 481656, Note_off_c, 0, 70, 66
1, 481714, Note_off_c, 0, 76, 55
1, 481716, Note_on_c, 0, 79, 81
1, 481769, Note_on_c, 0, 50, 72
1, 481790, Note_on_c, 0, 77, 75
1, 481798, Note_off_c, 0, 50, 62
1, 481831, Note_off_c, 0, 79, 55
1, 481850, Note_on_c, 0, 76, 87
1, 481866, Note_on_c, 0, 50, 65
1, 481891, Note_off_c, 0, 77, 62
1, 481922, Note_on_c, 0, 57, 78
1, 481933, Note_off_c, 0, 50, 59
1, 481936, Note_off_c, 0, 76, 66
1, 481939, Note_on_c, 0, 74, 82
1, 481968, Note_off_c, 0, 57, 60
1, 482003, Note_off_c, 0, 74, 61
1, 482013, Note_on_c, 0, 77, 87
1, 482088, Note_on_c, 0, 76, 84
1, 482101, Note_on_c, 0, 38, 61
1, 482116, Note_on_c, 0, 44, 60
1, 482119, Note_off_c, 0, 77, 59
1, 482151, Note_off_c, 0, 38, 58
1, 482157, Note_on_c, 0, 74, 78
1, 482165, Note_off_c, 0, 76, 67
1, 482217, Note_off_c, 0, 74, 65
1, 482229, Note_on_c, 0, 72, 84
1, 482234, Note_off_c, 0, 44, 0
1, 482234, Note_on_c, 0, 43, 61
1, 482236, Note_on_c, 0, 46, 76
1, 482270, Poly_aftertouch_c, 0, 44, 127
1, 482297, Note_on_c, 0, 75, 87
1, 482304, Note_off_c, 0, 72, 64
1, 482308, Note_off_c, 0, 43, 59
1, 482311, Note_on_c, 0, 44, 17
1, 482311, Note_off_c, 0, 46, 60
1, 482343, Note_off_c, 0, 44, 60
1, 482372, Note_off_c, 0, 75, 66
1, 482375, Note_on_c, 0, 74, 77
1, 482435, Note_off_c, 0, 74, 68
1, 482443, Note_on_c, 0, 72, 84
1, 482452, Control_c, 0, 64, 89
1, 482467, Control_c, 0, 64, 64
1, 482482, Control_c, 0, 64, 0
1, 482512, Note_off_c, 0, 72, 62
1, 482522, Note_on_c, 0, 43, 99
1, 482528, Note_on_c, 0, 71, 87
1, 482530, Note_on_c, 0, 31, 79
1, 482552, Note_off_c, 0, 31, 61
1, 482556, Control_c, 0, 64, 50
1, 482562, Note_off_c, 0, 43, 64
1, 482571, Control_c, 0, 64, 84
1, 482586, Control_c, 0, 64, 127
1, 482588, Note_off_c, 0, 71, 59
1, 482607, Note_on_c, 0, 74, 84
1, 482686, Note_off_c, 0, 74, 67
1, 482691, Note_on_c, 0, 72, 80
1, 482751, Note_off_c, 0, 72, 62
1, 482767, Note_on_c, 0, 71, 81
1, 482800, Note_off_c, 0, 71, 55
1, 482848, Note_on_c, 0, 72, 78
1, 482920, Control_c, 0, 64, 103
1, 482922, Note_off_c, 0, 72, 62
1, 482929, Note_on_c, 0, 75, 70
1, 482934, Control_c, 0, 64, 89
1, 482950, Control_c, 0, 64, 78
1, 482965, Control_c, 0, 64, 68
1, 482980, Control_c, 0, 64, 57
1, 482995, Control_c, 0, 64, 33
1, 482999, Note_off_c, 0, 75, 63
1, 483006, Note_on_c, 0, 74, 64
1, 483008, Note_on_c, 0, 84, 78
1, 483009, Control_c, 0, 64, 0
1, 483029, Note_off_c, 0, 84, 71
1, 483057, Note_off_c, 0, 74, 65
1, 483071, Note_on_c, 0, 84, 86
1, 483073, Note_on_c, 0, 72, 64
1, 483103, Note_off_c, 0, 84, 64
1, 483151, Note_on_c, 0, 91, 97
1, 483153, Note_on_c, 0, 79, 93
1, 483157, Note_off_c, 0, 72, 65
1, 483162, Note_on_c, 0, 74, 66
1, 483173, Control_c, 0, 64, 54
1, 483184, Note_off_c, 0, 91, 63
1, 483188, Control_c, 0, 64, 127
1, 483190, Note_off_c, 0, 79, 63
1, 483219, Note_off_c, 0, 74, 62
1, 483225, Note_on_c, 0, 77, 70
1, 483294, Note_on_c, 0, 75, 71
1, 483308, Note_off_c, 0, 77, 57
1, 483355, Note_off_c, 0, 75, 65
1, 483381, Note_on_c, 0, 74, 70
1, 483401, Note_off_c, 0, 74, 72
1, 483457, Note_on_c, 0, 77, 75
1, 483527, Note_off_c, 0, 77, 60
1, 483528, Note_on_c, 0, 80, 77
1, 483536, Control_c, 0, 64, 108
1, 483550, Control_c, 0, 64, 91
1, 483565, Control_c, 0, 64, 78
1, 483580, Control_c, 0, 64, 65
1, 483595, Control_c, 0, 64, 44
1, 483598, Note_on_c, 0, 43, 66
1, 483600, Note_on_c, 0, 79, 81
1, 483604, Note_off_c, 0, 80, 66
1, 483609, Control_c, 0, 64, 0
1, 483640, Note_off_c, 0, 43, 61
1, 483655, Note_off_c, 0, 79, 62
1, 483671, Note_on_c, 0, 43, 51
1, 483671, Note_on_c, 0, 77, 78
1, 483728, Control_c, 0, 64, 32
1, 483743, Control_c, 0, 64, 84
1, 483744, Note_on_c, 0, 48, 86
1, 483752, Note_on_c, 0, 36, 65
1, 483754, Note_off_c, 0, 43, 59
1, 483758, Note_on_c, 0, 75, 80
1, 483759, Control_c, 0, 64, 127
1, 483775, Note_off_c, 0, 36, 58
1, 483777, Note_off_c, 0, 77, 47
1, 483779, Note_off_c, 0, 48, 66
1, 483838, Note_off_c, 0, 75, 59
1, 483846, Note_on_c, 0, 79, 72
1, 483916, Note_on_c, 0, 77, 76
1, 483937, Note_off_c, 0, 79, 57
1, 483939, Note_on_c, 0, 60, 27
1, 483951, Control_c, 0, 64, 82
1, 483966, Control_c, 0, 64, 45
1, 483980, Control_c, 0, 64, 0
1, 483981, Note_on_c, 0, 75, 85
1, 484006, Note_off_c, 0, 60, 0
1, 484013, Note_off_c, 0, 77, 64
1, 484015, Note_on_c, 0, 60, 53
1, 484039, Control_c, 0, 64, 51
1, 484047, Note_on_c, 0, 68, 87
1, 484054, Control_c, 0, 64, 90
1, 484056, Note_on_c, 0, 74, 78
1, 484059, Note_off_c, 0, 75, 61
1, 484069, Control_c, 0, 64, 127
1, 484089, Note_off_c, 0, 68, 66
1, 484092, Note_off_c, 0, 60, 63
1, 484148, Note_on_c, 0, 77, 77
1, 484166, Note_off_c, 0, 74, 60
1, 484216, Note_on_c, 0, 48, 71
1, 484222, Note_on_c, 0, 75, 74
1, 484242, Note_off_c, 0, 48, 67
1, 484267, Note_off_c, 0, 77, 52
1, 484278, Note_on_c, 0, 74, 79
1, 484303, Note_on_c, 0, 48, 74
1, 484336, Note_off_c, 0, 75, 61
1, 484348, Note_on_c, 0, 55, 81
1, 484362, Note_on_c, 0, 72, 82
1, 484362, Note_off_c, 0, 74, 66
1, 484366, Note_off_c, 0, 48, 62
1, 484393, Note_off_c, 0, 55, 62
1, 484443, Note_on_c, 0, 75, 80
1, 484443, Note_off_c, 0, 72, 63
1, 484509, Note_on_c, 0, 74, 73
1, 484519, Note_on_c, 0, 36, 71
1, 484548, Note_off_c, 0, 75, 60
1, 484569, Note_on_c, 0, 72, 79
1, 484571, Note_off_c, 0, 74, 65
1, 484577, Note_off_c, 0, 36, 60
1, 484577, Note_on_c, 0, 42, 32
1, 484616, Note_off_c, 0, 42, 49
1, 484649, Note_on_c, 0, 41, 68
1, 484652, Note_on_c, 0, 70, 82
1, 484653, Note_on_c, 0, 44, 75
1, 484656, Note_off_c, 0, 72, 64
1, 484719, Note_off_c, 0, 41, 64
1, 484721, Note_off_c, 0, 44, 60
1, 484724, Note_on_c, 0, 42, 69
1, 484733, Note_off_c, 0, 70, 59
1, 484738, Note_on_c, 0, 73, 83
1, 484748, Note_off_c, 0, 42, 60
1, 484814, Note_on_c, 0, 72, 81
1, 484842, Note_off_c, 0, 73, 55
1, 484900, Control_c, 0, 64, 89
1, 484902, Note_off_c, 0, 72, 64
1, 484908, Note_on_c, 0, 70, 79
1, 484915, Control_c, 0, 64, 59
1, 484929, Control_c, 0, 64, 0
1, 484967, Note_on_c, 0, 41, 95
1, 484968, Note_on_c, 0, 29, 81
1, 484974, Note_off_c, 0, 70, 64
1, 484989, Note_on_c, 0, 69, 93
1, 484995, Note_off_c, 0, 29, 64
1, 485004, Control_c, 0, 64, 49
1, 485006, Note_off_c, 0, 41, 65
1, 485019, Control_c, 0, 64, 90
1, 485034, Control_c, 0, 64, 127
1, 485052, Note_off_c, 0, 69, 62
1, 485072, Note_on_c, 0, 72, 80
1, 485140, Note_on_c, 0, 70, 77
1, 485149, Note_off_c, 0, 72, 63
1, 485206, Note_off_c, 0, 70, 64
1, 485216, Note_on_c, 0, 69, 76
1, 485236, Note_off_c, 0, 69, 71
1, 485287, Note_on_c, 0, 72, 73
1, 485338, Note_off_c, 0, 72, 66
1, 485347, Note_on_c, 0, 75, 88
1, 485428, Note_off_c, 0, 75, 61
1, 485433, Note_on_c, 0, 73, 68
1, 485442, Note_on_c, 0, 91, 66
1, 485445, Note_on_c, 0, 89, 69
1, 485463, Note_off_c, 0, 73, 0
1, 485463, Note_on_c, 0, 73, 36
1, 485466, Note_on_c, 0, 74, 52
1, 485468, Note_off_c, 0, 91, 64
1, 485469, Note_off_c, 0, 89, 68
1, 485478, Control_c, 0, 64, 93
1, 485487, Note_off_c, 0, 74, 65
1, 485493, Control_c, 0, 64, 63
1, 485502, Note_on_c, 0, 89, 74
1, 485508, Control_c, 0, 64, 0
1, 485511, Note_on_c, 0, 72, 51
1, 485527, Note_off_c, 0, 73, 62
1, 485528, Note_off_c, 0, 89, 69
1, 485574, Note_on_c, 0, 94, 92
1, 485576, Note_on_c, 0, 70, 88
1, 485576, Note_on_c, 0, 82, 90
1, 485582, Control_c, 0, 64, 71
1, 485591, Note_off_c, 0, 94, 73
1, 485597, Control_c, 0, 64, 127
1, 485597, Note_off_c, 0, 72, 65
1, 485612, Note_off_c, 0, 70, 68
1, 485623, Note_off_c, 0, 82, 64
1, 485714, Note_on_c, 0, 73, 89
1, 485772, Note_on_c, 0, 34, 66
1, 485785, Note_on_c, 0, 72, 77
1, 485812, Note_on_c, 0, 46, 78
1, 485826, Note_off_c, 0, 34, 62
1, 485839, Note_off_c, 0, 46, 65
1, 485845, Note_off_c, 0, 73, 61
1, 485851, Note_on_c, 0, 70, 76
1, 485875, Note_off_c, 0, 72, 64
1, 485917, Note_off_c, 0, 70, 62
1, 485919, Note_on_c, 0, 69, 75
1, 485929, Note_on_c, 0, 55, 54
1, 485933, Note_on_c, 0, 53, 71
1, 485963, Note_off_c, 0, 53, 67
1, 485984, Note_on_c, 0, 72, 86
1, 485989, Note_on_c, 0, 52, 69
1, 486003, Note_off_c, 0, 69, 62
1, 486028, Note_off_c, 0, 55, 61
1, 486041, Note_off_c, 0, 52, 63
1, 486049, Note_on_c, 0, 53, 79
1, 486056, Note_on_c, 0, 70, 77
1, 486073, Note_off_c, 0, 53, 68
1, 486082, Note_off_c, 0, 72, 63
1, 486120, Note_on_c, 0, 69, 81
1, 486122, Control_c, 0, 64, 102
1, 486136, Note_off_c, 0, 70, 63
1, 486138, Control_c, 0, 64, 72
1, 486154, Control_c, 0, 64, 0
1, 486196, Note_on_c, 0, 52, 97
1, 486197, Note_off_c, 0, 69, 66
1, 486198, Note_on_c, 0, 40, 84
1, 486204, Note_on_c, 0, 68, 78
1, 486221, Note_off_c, 0, 40, 66
1, 486228, Control_c, 0, 64, 19
1, 486235, Note_off_c, 0, 68, 67
1, 486238, Note_off_c, 0, 52, 68
1, 486243, Control_c, 0, 64, 77
1, 486258, Control_c, 0, 64, 127
1, 486275, Note_on_c, 0, 71, 76
1, 486339, Note_on_c, 0, 69, 83
1, 486339, Note_off_c, 0, 71, 60
1, 486399, Note_off_c, 0, 69, 65
1, 486411, Note_on_c, 0, 68, 86
1, 486434, Note_off_c, 0, 68, 68
1, 486512, Note_on_c, 0, 71, 83
1, 486578, Note_off_c, 0, 71, 60
1, 486587, Note_on_c, 0, 74, 79
1, 486646, Note_off_c, 0, 74, 66
1, 486651, Note_on_c, 0, 88, 86
1, 486661, Note_on_c, 0, 72, 89
1, 486689, Note_off_c, 0, 88, 65
1, 486695, Control_c, 0, 64, 88
1, 486709, Control_c, 0, 64, 65
1, 486724, Control_c, 0, 64, 0
1, 486733, Note_on_c, 0, 88, 60
1, 486733, Note_off_c, 0, 72, 64
1, 486741, Note_on_c, 0, 71, 71
1, 486741, Note_on_c, 0, 86, 63
1, 486764, Note_off_c, 0, 86, 54
1, 486765, Note_off_c, 0, 88, 64
1, 486797, Note_on_c, 0, 93, 86
1, 486799, Note_on_c, 0, 69, 90
1, 486799, Note_on_c, 0, 81, 97
1, 486811, Note_off_c, 0, 93, 67
1, 486813, Control_c, 0, 64, 82
1, 486816, Note_off_c, 0, 71, 63
1, 486824, Note_on_c, 0, 91, 50
1, 486825, Note_off_c, 0, 91, 127
1, 486827, Note_off_c, 0, 69, 67
1, 486828, Control_c, 0, 64, 127
1, 486835, Note_off_c, 0, 81, 66
1, 486935, Note_on_c, 0, 71, 54
1, 486935, Note_on_c, 0, 72, 69
1, 486989, Note_on_c, 0, 33, 79
1, 487029, Note_off_c, 0, 33, 64
1, 487035, Note_off_c, 0, 72, 63
1, 487046, Note_on_c, 0, 45, 64
1, 487067, Note_off_c, 0, 45, 63
1, 487070, Note_off_c, 0, 71, 63
1, 487076, Note_on_c, 0, 69, 75
1, 487132, Note_off_c, 0, 69, 66
1, 487140, Note_on_c, 0, 52, 69
1, 487151, Note_on_c, 0, 67, 74
1, 487160, Note_on_c, 0, 53, 61
1, 487193, Note_off_c, 0, 53, 0
1, 487193, Note_on_c, 0, 53, 31
1, 487209, Note_off_c, 0, 52, 63
1, 487210, Note_on_c, 0, 70, 81
1, 487213, Note_off_c, 0, 67, 62
1, 487219, Note_on_c, 0, 50, 73
1, 487257, Note_off_c, 0, 53, 64
1, 487262, Note_off_c, 0, 50, 64
1, 487280, Note_on_c, 0, 69, 79
1, 487320, Note_off_c, 0, 70, 62
1, 487350, Note_on_c, 0, 67, 83
1, 487355, Control_c, 0, 64, 115
1, 487366, Note_off_c, 0, 69, 66
1, 487368, Poly_aftertouch_c, 0, 52, 0
1, 487370, Control_c, 0, 64, 77
1, 487384, Control_c, 0, 64, 42
1, 487399, Control_c, 0, 64, 0
1, 487430, Note_on_c, 0, 50, 96
1, 487432, Note_on_c, 0, 65, 92
1, 487434, Note_off_c, 0, 67, 58
1, 487435, Note_on_c, 0, 38, 87
1, 487456, Note_off_c, 0, 38, 67
1, 487458, Control_c, 0, 64, 58
1, 487472, Note_off_c, 0, 50, 63
1, 487473, Control_c, 0, 64, 88
1, 487488, Control_c, 0, 64, 127
1, 487493, Note_off_c, 0, 65, 65
1, 487517, Note_on_c, 0, 69, 87
1, 487594, Note_on_c, 0, 67, 85
1, 487615, Note_off_c, 0, 69, 64
1, 487661, Note_on_c, 0, 65, 89
1, 487666, Note_off_c, 0, 67, 64
1, 487687, Note_off_c, 0, 65, 67
1, 487755, Note_on_c, 0, 77, 90
1, 487813, Note_on_c, 0, 74, 59
1, 487830, Note_off_c, 0, 77, 61
1, 487904, Note_on_c, 0, 69, 75
1, 487910, Note_on_c, 0, 65, 84
1, 487915, Note_on_c, 0, 89, 99
1, 487915, Note_off_c, 0, 74, 64
1, 487926, Note_off_c, 0, 69, 72
1, 487931, Note_off_c, 0, 65, 72
1, 487952, Note_off_c, 0, 89, 70
1, 487958, Note_on_c, 0, 77, 72
1, 487968, Note_on_c, 0, 88, 55
1, 487986, Note_off_c, 0, 77, 65
1, 487989, Note_off_c, 0, 88, 44
1, 488089, Control_c, 0, 64, 108
1, 488104, Control_c, 0, 64, 72
1, 488119, Control_c, 0, 64, 0
1, 488126, Note_on_c, 0, 52, 98
1, 488131, Note_on_c, 0, 40, 86
1, 488150, Note_on_c, 0, 64, 82
1, 488162, Note_off_c, 0, 40, 66
1, 488163, Control_c, 0, 64, 24
1, 488178, Control_c, 0, 64, 69
1, 488181, Note_off_c, 0, 52, 66
1, 488192, Control_c, 0, 64, 114
1, 488207, Control_c, 0, 64, 127
1, 488227, Note_off_c, 0, 64, 63
1, 488234, Note_on_c, 0, 68, 83
1, 488303, Note_on_c, 0, 66, 80
1, 488336, Note_off_c, 0, 68, 60
1, 488372, Note_on_c, 0, 64, 78
1, 488378, Note_off_c, 0, 66, 66
1, 488393, Note_off_c, 0, 64, 70
1, 488453, Note_on_c, 0, 76, 82
1, 488510, Note_on_c, 0, 71, 68
1, 488536, Note_off_c, 0, 76, 63
1, 488582, Note_on_c, 0, 68, 77
1, 488596, Note_on_c, 0, 88, 95
1, 488597, Note_on_c, 0, 64, 79
1, 488605, Note_off_c, 0, 68, 69
1, 488608, Note_off_c, 0, 71, 62
1, 488624, Note_off_c, 0, 64, 72
1, 488641, Note_off_c, 0, 88, 69
1, 488649, Note_on_c, 0, 76, 77
1, 488670, Note_off_c, 0, 76, 73
1, 488691, Poly_aftertouch_c, 0, 70, 0
1, 488822, Control_c, 0, 64, 76
1, 488837, Control_c, 0, 64, 16
1, 488843, Note_on_c, 0, 45, 95
1, 488846, Note_on_c, 0, 33, 90
1, 488847, Note_on_c, 0, 60, 86
1, 488852, Control_c, 0, 64, 0
1, 488877, Note_off_c, 0, 33, 66
1, 488896, Control_c, 0, 64, 35
1, 488903, Note_off_c, 0, 45, 63
1, 488911, Control_c, 0, 64, 74
1, 488926, Control_c, 0, 64, 127
1, 488928, Note_on_c, 0, 64, 81
1, 488934, Note_off_c, 0, 60, 62
1, 488999, Note_on_c, 0, 62, 73
1, 489016, Note_off_c, 0, 64, 61
1, 489064, Note_on_c, 0, 60, 77
1, 489079, Note_off_c, 0, 62, 60
1, 489085, Note_off_c, 0, 60, 66
1, 489161, Note_on_c, 0, 72, 84
1, 489216, Note_on_c, 0, 69, 65
1, 489217, Note_off_c, 0, 72, 67
1, 489293, Note_on_c, 0, 84, 90
1, 489294, Note_on_c, 0, 64, 67
1, 489310, Note_off_c, 0, 69, 64
1, 489324, Note_on_c, 0, 60, 41
1, 489335, Note_off_c, 0, 64, 64
1, 489356, Note_off_c, 0, 84, 67
1, 489368, Note_off_c, 0, 60, 47
1, 489380, Note_on_c, 0, 72, 74
1, 489400, Poly_aftertouch_c, 0, 59, 0
1, 489401, Note_off_c, 0, 72, 70
1, 489420, Poly_aftertouch_c, 0, 59, 0
1, 489445, Note_on_c, 0, 64, 65
1, 489480, Note_on_c, 0, 79, 92
1, 489504, Note_on_c, 0, 60, 47
1, 489504, Note_off_c, 0, 64, 63
1, 489540, Note_off_c, 0, 79, 65
1, 489547, Note_on_c, 0, 67, 72
1, 489568, Note_on_c, 0, 57, 60
1, 489570, Note_off_c, 0, 67, 68
1, 489604, Note_off_c, 0, 60, 61
1, 489609, Note_on_c, 0, 52, 59
1, 489634, Note_off_c, 0, 57, 61
1, 489639, Note_on_c, 0, 76, 89
1, 489641, Note_off_c, 0, 52, 66
1, 489692, Note_off_c, 0, 76, 67
1, 489708, Note_on_c, 0, 62, 46
1, 489725, Note_on_c, 0, 57, 50
1, 489731, Note_off_c, 0, 62, 55
1, 489775, Note_off_c, 0, 57, 59
1, 489776, Note_on_c, 0, 52, 60
1, 489784, Note_on_c, 0, 72, 91
1, 489838, Note_off_c, 0, 72, 66
1, 489849, Note_on_c, 0, 60, 37
1, 489851, Note_on_c, 0, 48, 61
1, 489873, Note_on_c, 0, 45, 60
1, 489873, Note_off_c, 0, 52, 65
1, 489877, Note_off_c, 0, 60, 51
1, 489890, Note_off_c, 0, 48, 66
1, 489895, Note_off_c, 0, 45, 64
1, 489941, Note_on_c, 0, 69, 94
1, 489986, Note_on_c, 0, 57, 57
1, 490009, Note_off_c, 0, 57, 60
1, 490027, Note_off_c, 0, 69, 64
1, 490090, Control_c, 0, 64, 101
1, 490105, Control_c, 0, 64, 67
1, 490127, Control_c, 0, 64, 0
1, 490131, Note_on_c, 0, 33, 85
1, 490131, Note_on_c, 0, 45, 95
1, 490150, Note_on_c, 0, 81, 97
1, 490152, Note_on_c, 0, 73, 92
1, 490153, Note_on_c, 0, 69, 88
1, 490159, Note_off_c, 0, 33, 70
1, 490173, Control_c, 0, 64, 27
1, 490179, Note_off_c, 0, 45, 67
1, 490188, Note_off_c, 0, 69, 61
1, 490188, Control_c, 0, 64, 74
1, 490202, Control_c, 0, 64, 127
1, 490212, Note_off_c, 0, 73, 61
1, 490237, Note_on_c, 0, 76, 76
1, 490271, Note_off_c, 0, 81, 37
1, 490308, Note_on_c, 0, 74, 76
1, 490326, Note_off_c, 0, 76, 65
1, 490366, Note_on_c, 0, 73, 85
1, 490367, Note_off_c, 0, 74, 67
1, 490388, Note_off_c, 0, 73, 70
1, 490472, Note_on_c, 0, 74, 73
1, 490536, Note_on_c, 0, 77, 74
1, 490538, Note_off_c, 0, 74, 64
1, 490542, Control_c, 0, 64, 108
1, 490557, Control_c, 0, 64, 84
1, 490572, Control_c, 0, 64, 66
1, 490587, Control_c, 0, 64, 33
1, 490602, Control_c, 0, 64, 0
1, 490617, Note_off_c, 0, 77, 62
1, 490620, Note_on_c, 0, 76, 72
1, 490625, Note_on_c, 0, 86, 87
1, 490643, Note_off_c, 0, 86, 71
1, 490683, Note_on_c, 0, 86, 92
1, 490683, Note_off_c, 0, 76, 65
1, 490706, Note_on_c, 0, 74, 61
1, 490711, Note_off_c, 0, 86, 65
1, 490760, Note_on_c, 0, 93, 99
1, 490763, Note_on_c, 0, 81, 98
1, 490776, Note_off_c, 0, 74, 65
1, 490780, Control_c, 0, 64, 68
1, 490781, Note_on_c, 0, 76, 73
1, 490785, Note_off_c, 0, 93, 60
1, 490791, Note_off_c, 0, 81, 62
1, 490794, Control_c, 0, 64, 127
1, 490828, Note_off_c, 0, 76, 64
1, 490837, Note_on_c, 0, 79, 62
1, 490885, Note_off_c, 0, 79, 61
1, 490909, Note_on_c, 0, 77, 68
1, 490986, Note_off_c, 0, 77, 61
1, 490992, Note_on_c, 0, 76, 75
1, 491010, Note_off_c, 0, 76, 69
1, 491082, Note_on_c, 0, 79, 81
1, 491129, Control_c, 0, 64, 98
1, 491142, Note_off_c, 0, 79, 62
1, 491144, Control_c, 0, 64, 74
1, 491159, Control_c, 0, 64, 51
1, 491160, Note_on_c, 0, 82, 81
1, 491173, Control_c, 0, 64, 0
1, 491213, Note_off_c, 0, 82, 62
1, 491217, Note_on_c, 0, 45, 71
1, 491231, Note_on_c, 0, 81, 84
1, 491247, Note_off_c, 0, 45, 68
1, 491267, Note_off_c, 0, 81, 66
1, 491290, Note_on_c, 0, 79, 90
1, 491297, Note_on_c, 0, 45, 62
1, 491335, Note_off_c, 0, 79, 65
1, 491371, Note_on_c, 0, 77, 87
1, 491374, Note_on_c, 0, 50, 82
1, 491380, Note_off_c, 0, 45, 54
1, 491390, Note_on_c, 0, 38, 48
1, 491391, Note_off_c, 0, 38, 127
1, 491397, Note_off_c, 0, 50, 68
1, 491409, Control_c, 0, 64, 72
1, 491422, Note_off_c, 0, 77, 57
1, 491423, Control_c, 0, 64, 127
1, 491460, Note_on_c, 0, 81, 80
1, 491537, Note_on_c, 0, 79, 82
1, 491538, Note_off_c, 0, 81, 62
1, 491545, Note_on_c, 0, 62, 44
1, 491571, Note_off_c, 0, 62, 55
1, 491592, Note_off_c, 0, 79, 66
1, 491597, Note_on_c, 0, 77, 90
1, 491601, Control_c, 0, 64, 85
1, 491623, Control_c, 0, 64, 49
1, 491638, Control_c, 0, 64, 0
1, 491647, Note_on_c, 0, 62, 69
1, 491680, Note_off_c, 0, 77, 57
1, 491682, Note_on_c, 0, 76, 89
1, 491687, Note_on_c, 0, 70, 93
1, 491697, Control_c, 0, 64, 40
1, 491712, Control_c, 0, 64, 113
1, 491720, Note_off_c, 0, 62, 63
1, 491726, Note_off_c, 0, 70, 65
1, 491727, Control_c, 0, 64, 127
1, 491735, Note_off_c, 0, 76, 62
1, 491765, Note_on_c, 0, 79, 82
1, 491836, Note_on_c, 0, 77, 79
1, 491842, Note_off_c, 0, 79, 60
1, 491847, Note_on_c, 0, 50, 66
1, 491875, Note_off_c, 0, 50, 63
1, 491899, Note_off_c, 0, 77, 65
1, 491899, Note_on_c, 0, 76, 86
1, 491945, Note_on_c, 0, 50, 68
1, 491966, Note_off_c, 0, 76, 61
1, 491982, Note_on_c, 0, 57, 78
1, 491983, Note_on_c, 0, 74, 87
1, 491993, Note_off_c, 0, 50, 57
1, 492025, Note_off_c, 0, 57, 63
1, 492035, Note_off_c, 0, 74, 62
1, 492066, Note_on_c, 0, 77, 86
1, 492137, Note_on_c, 0, 76, 82
1, 492155, Note_off_c, 0, 77, 58
1, 492164, Note_on_c, 0, 38, 60
1, 492200, Note_on_c, 0, 44, 42
1, 492200, Note_off_c, 0, 38, 64
1, 492210, Note_on_c, 0, 74, 79
1, 492212, Note_off_c, 0, 76, 68
1, 492268, Note_off_c, 0, 74, 63
1, 492281, Note_on_c, 0, 72, 83
1, 492284, Note_on_c, 0, 43, 63
1, 492310, Note_on_c, 0, 46, 68
1, 492343, Note_off_c, 0, 44, 0
1, 492361, Note_on_c, 0, 75, 89
1, 492365, Note_on_c, 0, 44, 40
1, 492367, Note_off_c, 0, 72, 60
1, 492379, Note_off_c, 0, 46, 61
1, 492383, Note_off_c, 0, 43, 62
1, 492404, Note_off_c, 0, 44, 64
1, 492426, Note_off_c, 0, 75, 67
1, 492439, Note_on_c, 0, 74, 79
1, 492495, Note_off_c, 0, 74, 69
1, 492507, Note_on_c, 0, 72, 85
1, 492520, Control_c, 0, 64, 119
1, 492536, Control_c, 0, 64, 81
1, 492551, Control_c, 0, 64, 41
1, 492563, Note_off_c, 0, 72, 67
1, 492566, Control_c, 0, 64, 0
1, 492598, Note_on_c, 0, 71, 96
1, 492601, Note_on_c, 0, 43, 90
1, 492614, Note_on_c, 0, 31, 68
1, 492629, Note_off_c, 0, 43, 66
1, 492640, Control_c, 0, 64, 59
1, 492641, Note_off_c, 0, 31, 57
1, 492648, Note_off_c, 0, 71, 62
1, 492655, Control_c, 0, 64, 99
1, 492669, Control_c, 0, 64, 127
1, 492684, Note_on_c, 0, 74, 83
1, 492752, Note_off_c, 0, 74, 67
1, 492762, Note_on_c, 0, 72, 79
1, 492816, Note_off_c, 0, 72, 63
1, 492842, Note_on_c, 0, 71, 76
1, 492867, Note_off_c, 0, 71, 61
1, 492924, Note_on_c, 0, 72, 75
1, 493000, Note_on_c, 0, 75, 78
1, 493002, Note_off_c, 0, 72, 64
1, 493025, Control_c, 0, 64, 87
1, 493040, Control_c, 0, 64, 68
1, 493055, Control_c, 0, 64, 41
1, 493070, Control_c, 0, 64, 0
1, 493070, Note_off_c, 0, 75, 64
1, 493083, Note_on_c, 0, 74, 67
1, 493089, Note_on_c, 0, 84, 84
1, 493115, Note_off_c, 0, 84, 71
1, 493142, Note_off_c, 0, 74, 64
1, 493157, Note_on_c, 0, 72, 63
1, 493157, Note_on_c, 0, 84, 84
1, 493198, Note_off_c, 0, 84, 66
1, 493243, Note_on_c, 0, 91, 98
1, 493244, Note_on_c, 0, 79, 93
1, 493244, Note_off_c, 0, 72, 64
1, 493250, Note_on_c, 0, 74, 65
1, 493270, Control_c, 0, 64, 64
1, 493270, Note_off_c, 0, 91, 62
1, 493279, Note_off_c, 0, 79, 64
1, 493285, Control_c, 0, 64, 127
1, 493294, Note_off_c, 0, 74, 60
1, 493316, Note_on_c, 0, 77, 63
1, 493386, Note_on_c, 0, 75, 66
1, 493408, Note_off_c, 0, 77, 50
1, 493463, Note_off_c, 0, 75, 63
1, 493483, Note_on_c, 0, 74, 67
1, 493517, Note_off_c, 0, 74, 65
1, 493562, Note_on_c, 0, 77, 81
1, 493622, Note_off_c, 0, 77, 57
1, 493639, Note_on_c, 0, 80, 80
1, 493685, Control_c, 0, 64, 99
1, 493700, Control_c, 0, 64, 80
1, 493707, Note_off_c, 0, 80, 66
1, 493712, Note_on_c, 0, 79, 82
1, 493715, Control_c, 0, 64, 64
1, 493717, Note_on_c, 0, 43, 53
1, 493729, Control_c, 0, 64, 14
1, 493735, Note_on_c, 0, 45, 40
1, 493744, Control_c, 0, 64, 0
1, 493745, Note_off_c, 0, 43, 58
1, 493765, Note_off_c, 0, 79, 63
1, 493768, Note_off_c, 0, 45, 34
1, 493788, Note_on_c, 0, 43, 63
1, 493788, Note_on_c, 0, 77, 79
1, 493866, Note_on_c, 0, 48, 87
1, 493870, Note_off_c, 0, 43, 40
1, 493871, Note_on_c, 0, 36, 66
1, 493885, Note_on_c, 0, 75, 79
1, 493894, Note_off_c, 0, 36, 56
1, 493898, Note_off_c, 0, 48, 65
1, 493899, Note_off_c, 0, 77, 54
1, 493900, Control_c, 0, 64, 90
1, 493915, Control_c, 0, 64, 127
1, 493978, Note_off_c, 0, 75, 60
1, 493983, Note_on_c, 0, 79, 79
1, 494039, Note_on_c, 0, 60, 71
1, 494052, Note_on_c, 0, 77, 78
1, 494072, Note_off_c, 0, 60, 60
1, 494080, Note_off_c, 0, 79, 59
1, 494107, Control_c, 0, 64, 90
1, 494119, Note_on_c, 0, 75, 87
1, 494122, Control_c, 0, 64, 61
1, 494138, Control_c, 0, 64, 0
1, 494148, Note_on_c, 0, 60, 65
1, 494152, Note_off_c, 0, 77, 62
1, 494185, Note_on_c, 0, 68, 85
1, 494201, Note_off_c, 0, 75, 62
1, 494202, Note_on_c, 0, 74, 81
1, 494212, Control_c, 0, 64, 71
1, 494227, Control_c, 0, 64, 127
1, 494229, Note_off_c, 0, 60, 62
1, 494231, Note_off_c, 0, 68, 65
1, 494285, Note_on_c, 0, 77, 80
1, 494301, Note_off_c, 0, 74, 61
1, 494348, Note_on_c, 0, 48, 70
1, 494358, Note_on_c, 0, 75, 76
1, 494375, Note_off_c, 0, 48, 67
1, 494394, Note_off_c, 0, 77, 60
1, 494422, Note_on_c, 0, 74, 79
1, 494439, Note_on_c, 0, 48, 70
1, 494465, Note_off_c, 0, 75, 61
1, 494471, Note_on_c, 0, 55, 78
1, 494497, Note_off_c, 0, 48, 64
1, 494498, Note_on_c, 0, 72, 81
1, 494501, Note_off_c, 0, 74, 64
1, 494516, Note_off_c, 0, 55, 61
1, 494574, Note_on_c, 0, 75, 80
1, 494583, Note_off_c, 0, 72, 63
1, 494646, Note_on_c, 0, 74, 74
1, 494659, Note_on_c, 0, 36, 63
1, 494676, Note_off_c, 0, 75, 62
1, 494701, Note_on_c, 0, 42, 45
1, 494707, Note_off_c, 0, 36, 59
1, 494712, Note_on_c, 0, 72, 77
1, 494713, Note_off_c, 0, 74, 65
1, 494775, Note_off_c, 0, 42, 38
1, 494792, Note_off_c, 0, 72, 64
1, 494794, Note_on_c, 0, 44, 72
1, 494796, Note_on_c, 0, 70, 82
1, 494807, Note_on_c, 0, 41, 62
1, 494863, Note_off_c, 0, 41, 62
1, 494873, Note_off_c, 0, 44, 60
1, 494874, Note_on_c, 0, 42, 70
1, 494874, Note_on_c, 0, 73, 83
1, 494877, Note_off_c, 0, 70, 62
1, 494903, Note_off_c, 0, 42, 65
1, 494948, Note_on_c, 0, 72, 77
1, 494975, Control_c, 0, 64, 120
1, 494978, Note_off_c, 0, 73, 59
1, 494990, Control_c, 0, 64, 102
1, 495005, Control_c, 0, 64, 85
1, 495020, Control_c, 0, 64, 66
1, 495023, Note_on_c, 0, 70, 78
1, 495023, Note_off_c, 0, 72, 66
1, 495034, Control_c, 0, 64, 15
1, 495049, Control_c, 0, 64, 0
1, 495091, Note_off_c, 0, 70, 63
1, 495104, Note_on_c, 0, 41, 94
1, 495108, Note_on_c, 0, 29, 73
1, 495110, Note_on_c, 0, 69, 94
1, 495138, Control_c, 0, 64, 45
1, 495139, Note_off_c, 0, 29, 63
1, 495145, Note_off_c, 0, 41, 66
1, 495153, Control_c, 0, 64, 85
1, 495168, Control_c, 0, 64, 127
1, 495169, Note_off_c, 0, 69, 63
1, 495194, Note_on_c, 0, 72, 77
1, 495273, Note_on_c, 0, 70, 81
1, 495275, Note_off_c, 0, 72, 66
1, 495336, Note_off_c, 0, 70, 64
1, 495361, Note_on_c, 0, 69, 80
1, 495396, Note_off_c, 0, 69, 62
1, 495435, Note_on_c, 0, 72, 72
1, 495492, Note_off_c, 0, 72, 64
1, 495503, Note_on_c, 0, 75, 88
1, 495560, Control_c, 0, 64, 119
1, 495574, Note_on_c, 0, 89, 77
1, 495575, Control_c, 0, 64, 94
1, 495577, Note_off_c, 0, 75, 61
1, 495581, Note_on_c, 0, 73, 83
1, 495589, Control_c, 0, 64, 77
1, 495597, Note_off_c, 0, 89, 70
1, 495604, Control_c, 0, 64, 57
1, 495619, Control_c, 0, 64, 0
1, 495632, Note_on_c, 0, 89, 74
1, 495638, Note_on_c, 0, 72, 54
1, 495659, Note_off_c, 0, 73, 61
1, 495672, Note_off_c, 0, 89, 65
1, 495715, Note_on_c, 0, 94, 92
1, 495717, Note_on_c, 0, 82, 91
1, 495720, Note_on_c, 0, 70, 84
1, 495723, Control_c, 0, 64, 46
1, 495733, Note_off_c, 0, 94, 74
1, 495739, Control_c, 0, 64, 127
1, 495744, Note_off_c, 0, 72, 65
1, 495760, Note_off_c, 0, 82, 63
1, 495762, Note_off_c, 0, 70, 68
1, 495872, Note_on_c, 0, 74, 67
1, 495876, Note_on_c, 0, 73, 49
1, 495919, Note_on_c, 0, 34, 76
1, 495932, Note_off_c, 0, 74, 62
1, 495965, Note_off_c, 0, 73, 0
1, 495970, Note_on_c, 0, 72, 69
1, 495970, Note_on_c, 0, 46, 71
1, 495978, Note_off_c, 0, 34, 61
1, 495996, Note_on_c, 0, 70, 79
1, 495999, Note_off_c, 0, 46, 65
1, 496014, Poly_aftertouch_c, 0, 73, 0
1, 496030, Note_off_c, 0, 72, 64
1, 496066, Note_off_c, 0, 70, 62
1, 496067, Note_on_c, 0, 69, 75
1, 496069, Note_on_c, 0, 53, 80
1, 496128, Note_on_c, 0, 55, 59
1, 496130, Note_off_c, 0, 53, 64
1, 496140, Note_on_c, 0, 72, 80
1, 496150, Note_off_c, 0, 69, 64
1, 496161, Note_on_c, 0, 52, 68
1, 496200, Note_off_c, 0, 55, 59
1, 496205, Note_on_c, 0, 70, 83
1, 496209, Note_off_c, 0, 52, 67
1, 496213, Note_on_c, 0, 53, 69
1, 496229, Note_off_c, 0, 72, 64
1, 496238, Note_off_c, 0, 53, 69
1, 496266, Control_c, 0, 64, 112
1, 496277, Note_off_c, 0, 70, 67
1, 496278, Note_on_c, 0, 69, 86
1, 496280, Control_c, 0, 64, 82
1, 496295, Control_c, 0, 64, 58
1, 496310, Control_c, 0, 64, 0
1, 496347, Note_off_c, 0, 69, 66
1, 496351, Note_on_c, 0, 68, 80
1, 496361, Note_on_c, 0, 52, 95
1, 496364, Note_on_c, 0, 40, 79
1, 496384, Note_off_c, 0, 40, 64
1, 496384, Control_c, 0, 64, 25
1, 496389, Note_off_c, 0, 68, 67
1, 496395, Note_off_c, 0, 52, 64
1, 496399, Control_c, 0, 64, 77
1, 496413, Control_c, 0, 64, 127
1, 496431, Note_on_c, 0, 71, 76
1, 496493, Note_on_c, 0, 69, 83
1, 496503, Note_off_c, 0, 71, 62
1, 496561, Note_off_c, 0, 69, 64
1, 496564, Note_on_c, 0, 68, 82
1, 496588, Note_off_c, 0, 68, 64
1, 496675, Note_on_c, 0, 71, 87
1, 496735, Note_off_c, 0, 71, 62
1, 496743, Note_on_c, 0, 74, 77
1, 496754, Control_c, 0, 64, 101
1, 496769, Control_c, 0, 64, 84
1, 496784, Control_c, 0, 64, 71
1, 496796, Note_off_c, 0, 74, 65
1, 496799, Control_c, 0, 64, 59
1, 496814, Control_c, 0, 64, 29
1, 496816, Note_on_c, 0, 72, 81
1, 496828, Note_on_c, 0, 88, 89
1, 496829, Control_c, 0, 64, 0
1, 496868, Note_off_c, 0, 88, 63
1, 496899, Note_off_c, 0, 72, 65
1, 496904, Note_on_c, 0, 71, 71
1, 496915, Note_on_c, 0, 88, 77
1, 496969, Note_off_c, 0, 88, 58
1, 496986, Note_on_c, 0, 69, 83
1, 496994, Note_on_c, 0, 81, 98
1, 496998, Note_on_c, 0, 93, 80
1, 497013, Note_off_c, 0, 93, 66
1, 497014, Note_off_c, 0, 71, 61
1, 497014, Control_c, 0, 64, 64
1, 497029, Control_c, 0, 64, 127
1, 497030, Note_off_c, 0, 69, 67
1, 497034, Note_off_c, 0, 81, 64
1, 497118, Note_on_c, 0, 72, 83
1, 497196, Note_on_c, 0, 33, 79
1, 497196, Note_on_c, 0, 71, 74
1, 497230, Note_off_c, 0, 72, 57
1, 497242, Note_off_c, 0, 33, 62
1, 497267, Note_on_c, 0, 69, 79
1, 497273, Note_on_c, 0, 45, 47
1, 497291, Note_off_c, 0, 71, 60
1, 497301, Note_off_c, 0, 45, 54
1, 497326, Note_off_c, 0, 69, 64
1, 497344, Note_on_c, 0, 67, 76
1, 497346, Note_on_c, 0, 52, 84
1, 497403, Note_off_c, 0, 52, 66
1, 497411, Note_on_c, 0, 53, 67
1, 497412, Note_on_c, 0, 70, 82
1, 497416, Note_off_c, 0, 67, 60
1, 497444, Note_on_c, 0, 50, 67
1, 497461, Note_off_c, 0, 70, 69
1, 497473, Note_off_c, 0, 53, 63
1, 497485, Note_off_c, 0, 50, 64
1, 497485, Note_on_c, 0, 69, 82
1, 497493, Note_on_c, 0, 52, 79
1, 497512, Note_off_c, 0, 52, 74
1, 497541, Note_off_c, 0, 69, 70
1, 497560, Note_on_c, 0, 67, 86
1, 497577, Control_c, 0, 64, 103
1, 497592, Control_c, 0, 64, 67
1, 497615, Control_c, 0, 64, 0
1, 497620, Note_off_c, 0, 67, 63
1, 497649, Note_on_c, 0, 50, 91
1, 497653, Note_on_c, 0, 38, 78
1, 497654, Note_on_c, 0, 65, 95
1, 497682, Note_off_c, 0, 50, 61
1, 497685, Note_off_c, 0, 38, 64
1, 497689, Control_c, 0, 64, 53
1, 497704, Control_c, 0, 64, 96
1, 497712, Note_off_c, 0, 65, 64
1, 497718, Control_c, 0, 64, 127
1, 497734, Note_on_c, 0, 69, 86
1, 497807, Note_off_c, 0, 69, 70
1, 497813, Note_on_c, 0, 67, 84
1, 497877, Note_on_c, 0, 65, 88
1, 497885, Note_off_c, 0, 67, 63
1, 497897, Note_off_c, 0, 65, 72
1, 497971, Note_on_c, 0, 77, 88
1, 498028, Note_on_c, 0, 74, 52
1, 498045, Note_off_c, 0, 77, 57
1, 498105, Note_on_c, 0, 69, 76
1, 498114, Note_on_c, 0, 65, 76
1, 498114, Note_off_c, 0, 74, 66
1, 498122, Note_on_c, 0, 89, 95
1, 498129, Note_off_c, 0, 69, 69
1, 498139, Note_off_c, 0, 65, 69
1, 498158, Note_off_c, 0, 89, 69
1, 498161, Note_on_c, 0, 77, 73
1, 498197, Note_off_c, 0, 77, 62
1, 498253, Control_c, 0, 64, 97
1, 498268, Control_c, 0, 64, 62
1, 498282, Control_c, 0, 64, 0
1, 498303, Note_on_c, 0, 52, 97
1, 498309, Note_on_c, 0, 40, 88
1, 498319, Note_on_c, 0, 64, 80
1, 498337, Note_off_c, 0, 40, 65
1, 498341, Control_c, 0, 64, 62
1, 498364, Control_c, 0, 64, 91
1, 498372, Note_off_c, 0, 52, 61
1, 498379, Control_c, 0, 64, 127
1, 498401, Note_on_c, 0, 68, 77
1, 498401, Note_off_c, 0, 64, 62
1, 498480, Note_on_c, 0, 66, 77
1, 498513, Note_off_c, 0, 68, 61
1, 498553, Note_on_c, 0, 64, 78
1, 498562, Note_off_c, 0, 66, 64
1, 498585, Note_off_c, 0, 64, 68
1, 498643, Note_on_c, 0, 76, 87
1, 498708, Note_on_c, 0, 71, 67
1, 498731, Note_off_c, 0, 76, 61
1, 498785, Note_on_c, 0, 68, 75
1, 498800, Note_on_c, 0, 88, 101
1, 498803, Note_on_c, 0, 64, 77
1, 498816, Note_off_c, 0, 71, 62
1, 498825, Note_off_c, 0, 68, 65
1, 498829, Note_off_c, 0, 64, 69
1, 498841, Note_off_c, 0, 88, 69
1, 498852, Note_on_c, 0, 76, 76
1, 498871, Note_off_c, 0, 76, 74
1, 499017, Control_c, 0, 64, 105
1, 499031, Control_c, 0, 64, 65
1, 499045, Note_on_c, 0, 45, 91
1, 499046, Control_c, 0, 64, 0
1, 499047, Note_on_c, 0, 33, 82
1, 499058, Note_on_c, 0, 60, 90
1, 499076, Note_off_c, 0, 33, 68
1, 499091, Control_c, 0, 64, 39
1, 499109, Note_off_c, 0, 45, 65
1, 499112, Control_c, 0, 64, 76
1, 499127, Control_c, 0, 64, 127
1, 499154, Note_on_c, 0, 64, 79
1, 499154, Note_off_c, 0, 60, 61
1, 499226, Note_on_c, 0, 62, 82
1, 499252, Note_off_c, 0, 64, 61
1, 499302, Note_on_c, 0, 60, 79
1, 499313, Note_off_c, 0, 62, 59
1, 499321, Note_off_c, 0, 60, 69
1, 499393, Note_on_c, 0, 72, 80
1, 499447, Note_on_c, 0, 69, 68
1, 499464, Note_off_c, 0, 72, 66
1, 499527, Note_on_c, 0, 64, 65
1, 499533, Note_on_c, 0, 84, 94
1, 499546, Note_on_c, 0, 60, 78
1, 499549, Note_off_c, 0, 69, 68
1, 499571, Note_off_c, 0, 60, 67
1, 499580, Note_off_c, 0, 64, 64
1, 499595, Note_off_c, 0, 84, 68
1, 499610, Note_on_c, 0, 72, 70
1, 499637, Note_off_c, 0, 72, 69
1, 499674, Note_on_c, 0, 64, 69
1, 499720, Note_on_c, 0, 81, 95
1, 499747, Note_off_c, 0, 64, 61
1, 499756, Note_on_c, 0, 60, 56
1, 499774, Note_off_c, 0, 81, 57
1, 499803, Note_on_c, 0, 67, 40
1, 499816, Note_on_c, 0, 57, 65
1, 499832, Note_off_c, 0, 67, 54
1, 499853, Note_off_c, 0, 60, 61
1, 499860, Note_on_c, 0, 52, 58
1, 499886, Note_on_c, 0, 76, 96
1, 499889, Note_off_c, 0, 57, 61
1, 499892, Note_off_c, 0, 52, 67
1, 499945, Note_on_c, 0, 64, 52
1, 499948, Note_off_c, 0, 76, 65
1, 499973, Note_off_c, 0, 64, 58
1, 499979, Note_on_c, 0, 57, 51
1, 500030, Note_off_c, 0, 57, 58
1, 500039, Note_on_c, 0, 72, 93
1, 500046, Note_on_c, 0, 52, 60
1, 500082, Note_on_c, 0, 60, 62
1, 500099, Note_off_c, 0, 72, 64
1, 500104, Note_on_c, 0, 48, 65
1, 500125, Note_on_c, 0, 45, 67
1, 500128, Note_off_c, 0, 52, 65
1, 500130, Note_off_c, 0, 60, 59
1, 500142, Note_off_c, 0, 48, 67
1, 500153, Note_off_c, 0, 45, 67
1, 500198, Note_on_c, 0, 69, 88
1, 500243, Note_on_c, 0, 57, 79
1, 500254, Note_off_c, 0, 69, 61
1, 500295, Note_off_c, 0, 57, 61
1, 500351, Control_c, 0, 64, 75
1, 500355, Poly_aftertouch_c, 0, 37, 127
1, 500366, Control_c, 0, 64, 0
1, 500371, Note_on_c, 0, 43, 95
1, 500372, Note_on_c, 0, 31, 88
1, 500388, Note_on_c, 0, 61, 87
1, 500400, Note_off_c, 0, 31, 69
1, 500410, Control_c, 0, 64, 36
1, 500416, Poly_aftertouch_c, 0, 37, 0
1, 500421, Note_off_c, 0, 43, 63
1, 500425, Control_c, 0, 64, 78
1, 500440, Control_c, 0, 64, 127
1, 500485, Note_off_c, 0, 61, 61
1, 500487, Note_on_c, 0, 64, 74
1, 500553, Note_on_c, 0, 62, 79
1, 500585, Note_off_c, 0, 64, 63
1, 500631, Note_on_c, 0, 61, 76
1, 500632, Note_off_c, 0, 62, 61
1, 500659, Note_off_c, 0, 61, 65
1, 500722, Note_on_c, 0, 73, 96
1, 500730, Note_on_c, 0, 69, 37
1, 500786, Note_off_c, 0, 73, 64
1, 500795, Note_off_c, 0, 69, 0
1, 500795, Note_on_c, 0, 69, 25
1, 500862, Note_on_c, 0, 64, 67
1, 500871, Note_on_c, 0, 85, 97
1, 500880, Note_on_c, 0, 61, 75
1, 500886, Note_off_c, 0, 69, 64
1, 500913, Note_off_c, 0, 64, 63
1, 500922, Note_off_c, 0, 61, 61
1, 500946, Note_on_c, 0, 73, 89
1, 500966, Note_off_c, 0, 85, 63
1, 500990, Note_off_c, 0, 73, 63
1, 501030, Note_on_c, 0, 64, 62
1, 501071, Note_on_c, 0, 81, 86
1, 501072, Note_on_c, 0, 79, 84
1, 501083, Note_on_c, 0, 61, 69
1, 501121, Note_off_c, 0, 81, 61
1, 501127, Note_on_c, 0, 69, 66
1, 501136, Note_off_c, 0, 79, 62
1, 501148, Note_off_c, 0, 64, 52
1, 501160, Note_off_c, 0, 69, 66
1, 501174, Note_on_c, 0, 57, 61
1, 501191, Note_off_c, 0, 61, 62
1, 501218, Note_on_c, 0, 52, 74
1, 501229, Note_on_c, 0, 76, 78
1, 501240, Note_on_c, 0, 77, 69
1, 501251, Note_off_c, 0, 57, 61
1, 501256, Note_off_c, 0, 77, 65
1, 501265, Note_on_c, 0, 64, 72
1, 501268, Note_off_c, 0, 52, 62
1, 501280, Note_off_c, 0, 76, 60
1, 501292, Note_off_c, 0, 64, 68
1, 501366, Note_on_c, 0, 57, 64
1, 501384, Note_on_c, 0, 73, 97
1, 501429, Note_on_c, 0, 52, 54
1, 501440, Note_on_c, 0, 61, 68
1, 501444, Note_off_c, 0, 73, 65
1, 501452, Note_off_c, 0, 57, 51
1, 501464, Note_off_c, 0, 61, 64
1, 501502, Note_on_c, 0, 49, 56
1, 501503, Note_on_c, 0, 45, 64
1, 501512, Note_off_c, 0, 52, 65
1, 501529, Note_off_c, 0, 49, 62
1, 501532, Note_off_c, 0, 45, 66
1, 501538, Note_on_c, 0, 69, 94
1, 501595, Note_on_c, 0, 57, 64
1, 501643, Note_off_c, 0, 57, 61
1, 501644, Note_off_c, 0, 69, 57
1, 501657, Control_c, 0, 64, 83
1, 501672, Control_c, 0, 64, 45
1, 501686, Control_c, 0, 64, 0
1, 501697, Note_on_c, 0, 41, 93
1, 501697, Note_on_c, 0, 29, 87
1, 501706, Note_on_c, 0, 62, 95
1, 501726, Note_off_c, 0, 29, 65
1, 501731, Control_c, 0, 64, 64
1, 501736, Note_off_c, 0, 41, 65
1, 501745, Control_c, 0, 64, 118
1, 501760, Control_c, 0, 64, 127
1, 501778, Note_on_c, 0, 65, 82
1, 501778, Note_off_c, 0, 62, 62
1, 501843, Note_on_c, 0, 64, 78
1, 501870, Note_off_c, 0, 65, 61
1, 501908, Note_on_c, 0, 62, 86
1, 501930, Note_off_c, 0, 62, 68
1, 501933, Note_off_c, 0, 64, 62
1, 502005, Note_on_c, 0, 74, 91
1, 502081, Note_on_c, 0, 69, 71
1, 502085, Note_off_c, 0, 74, 64
1, 502161, Note_on_c, 0, 65, 79
1, 502162, Note_on_c, 0, 86, 99
1, 502176, Note_on_c, 0, 62, 81
1, 502179, Note_off_c, 0, 69, 68
1, 502186, Note_off_c, 0, 65, 68
1, 502196, Note_off_c, 0, 62, 68
1, 502196, Note_off_c, 0, 86, 69
1, 502213, Note_on_c, 0, 74, 72
1, 502233, Note_off_c, 0, 74, 73
1, 502362, Control_c, 0, 64, 109
1, 502376, Control_c, 0, 64, 67
1, 502383, Note_on_c, 0, 38, 99
1, 502388, Note_on_c, 0, 26, 87
1, 502391, Control_c, 0, 64, 0
1, 502392, Note_on_c, 0, 65, 96
1, 502411, Note_off_c, 0, 26, 66
1, 502436, Control_c, 0, 64, 50
1, 502439, Note_off_c, 0, 38, 64
1, 502450, Control_c, 0, 64, 89
1, 502462, Note_on_c, 0, 28, 3
1, 502465, Control_c, 0, 64, 127
1, 502480, Note_on_c, 0, 69, 85
1, 502488, Note_off_c, 0, 65, 63
1, 502499, Note_off_c, 0, 28, 29
1, 502558, Note_on_c, 0, 67, 78
1, 502576, Note_off_c, 0, 69, 60
1, 502630, Note_on_c, 0, 65, 83
1, 502645, Note_off_c, 0, 67, 59
1, 502663, Note_off_c, 0, 65, 67
1, 502719, Note_on_c, 0, 77, 98
1, 502795, Note_on_c, 0, 74, 74
1, 502796, Note_off_c, 0, 77, 65
1, 502894, Note_on_c, 0, 69, 81
1, 502898, Note_on_c, 0, 89, 106
1, 502918, Note_off_c, 0, 74, 65
1, 502927, Note_on_c, 0, 65, 72
1, 502938, Note_off_c, 0, 69, 69
1, 502953, Note_off_c, 0, 89, 70
1, 502955, Note_off_c, 0, 65, 68
1, 502979, Note_on_c, 0, 77, 76
1, 502999, Note_off_c, 0, 77, 71
1, 503140, Control_c, 0, 64, 88
1, 503148, Note_on_c, 0, 45, 103
1, 503149, Note_on_c, 0, 33, 90
1, 503154, Control_c, 0, 64, 54
1, 503160, Note_on_c, 0, 69, 95
1, 503169, Control_c, 0, 64, 0
1, 503176, Note_off_c, 0, 33, 70
1, 503201, Note_off_c, 0, 45, 68
1, 503214, Control_c, 0, 64, 68
1, 503229, Control_c, 0, 64, 127
1, 503261, Note_on_c, 0, 73, 83
1, 503265, Note_off_c, 0, 69, 65
1, 503343, Note_on_c, 0, 71, 81
1, 503379, Note_off_c, 0, 73, 61
1, 503412, Note_on_c, 0, 69, 80
1, 503425, Note_off_c, 0, 71, 58
1, 503438, Note_off_c, 0, 69, 72
1, 503512, Note_on_c, 0, 81, 100
1, 503583, Note_on_c, 0, 76, 72
1, 503608, Note_off_c, 0, 81, 53
1, 503663, Note_on_c, 0, 93, 104
1, 503674, Note_on_c, 0, 73, 75
1, 503693, Note_on_c, 0, 69, 78
1, 503712, Note_off_c, 0, 76, 65
1, 503724, Note_off_c, 0, 69, 67
1, 503728, Note_off_c, 0, 73, 67
1, 503740, Note_off_c, 0, 93, 64
1, 503745, Note_on_c, 0, 81, 66
1, 503770, Note_off_c, 0, 81, 65
1, 503824, Note_on_c, 0, 73, 84
1, 503840, Note_on_c, 0, 88, 95
1, 503894, Note_off_c, 0, 73, 61
1, 503903, Note_off_c, 0, 88, 63
1, 503909, Note_on_c, 0, 69, 64
1, 503927, Note_on_c, 0, 76, 28
1, 503960, Note_off_c, 0, 76, 51
1, 503986, Note_on_c, 0, 64, 55
1, 503987, Note_on_c, 0, 85, 97
1, 503992, Note_on_c, 0, 61, 70
1, 503993, Note_off_c, 0, 69, 66
1, 504023, Note_off_c, 0, 64, 65
1, 504041, Note_off_c, 0, 61, 62
1, 504047, Note_off_c, 0, 85, 66
1, 504051, Note_on_c, 0, 73, 71
1, 504074, Note_off_c, 0, 73, 68
1, 504106, Poly_aftertouch_c, 0, 82, 0
1, 504137, Note_on_c, 0, 64, 73
1, 504140, Note_on_c, 0, 81, 99
1, 504192, Note_off_c, 0, 81, 63
1, 504196, Note_on_c, 0, 69, 74
1, 504230, Note_off_c, 0, 69, 65
1, 504238, Note_on_c, 0, 61, 62
1, 504255, Note_off_c, 0, 64, 38
1, 504276, Note_on_c, 0, 57, 69
1, 504295, Note_off_c, 0, 61, 63
1, 504296, Note_on_c, 0, 52, 82
1, 504299, Note_on_c, 0, 76, 98
1, 504313, Note_off_c, 0, 57, 63
1, 504320, Note_off_c, 0, 52, 73
1, 504371, Note_on_c, 0, 64, 75
1, 504427, Note_off_c, 0, 64, 62
1, 504476, Note_off_c, 0, 76, 54
1, 504487, Control_c, 0, 64, 92
1, 504502, Control_c, 0, 64, 58
1, 504505, Note_on_c, 0, 42, 105
1, 504507, Note_on_c, 0, 30, 87
1, 504518, Control_c, 0, 64, 0
1, 504520, Note_on_c, 0, 69, 99
1, 504548, Control_c, 0, 64, 20
1, 504557, Note_off_c, 0, 30, 64
1, 504563, Control_c, 0, 64, 80
1, 504577, Control_c, 0, 64, 127
1, 504583, Note_off_c, 0, 42, 63
1, 504613, Note_on_c, 0, 73, 84
1, 504618, Note_off_c, 0, 69, 63
1, 504693, Note_on_c, 0, 71, 83
1, 504727, Note_off_c, 0, 73, 63
1, 504757, Note_on_c, 0, 69, 82
1, 504783, Note_off_c, 0, 71, 58
1, 504786, Note_off_c, 0, 69, 70
1, 504849, Note_on_c, 0, 81, 99
1, 504869, Note_on_c, 0, 73, 41
1, 504895, Note_off_c, 0, 73, 56
1, 504911, Note_on_c, 0, 78, 74
1, 504917, Note_off_c, 0, 81, 52
1, 504987, Note_on_c, 0, 73, 64
1, 504991, Note_on_c, 0, 93, 101
1, 505019, Note_on_c, 0, 69, 78
1, 505026, Note_off_c, 0, 78, 63
1, 505046, Note_off_c, 0, 69, 65
1, 505054, Note_off_c, 0, 73, 67
1, 505060, Note_off_c, 0, 93, 63
1, 505061, Note_on_c, 0, 81, 63
1, 505096, Note_off_c, 0, 81, 65
1, 505149, Note_on_c, 0, 73, 86
1, 505153, Note_on_c, 0, 90, 104
1, 505208, Note_on_c, 0, 78, 75
1, 505214, Note_off_c, 0, 90, 67
1, 505221, Note_off_c, 0, 73, 60
1, 505223, Note_on_c, 0, 69, 31
1, 505234, Note_off_c, 0, 78, 65
1, 505276, Note_on_c, 0, 66, 65
1, 505292, Note_off_c, 0, 69, 64
1, 505310, Note_on_c, 0, 61, 68
1, 505310, Note_on_c, 0, 85, 94
1, 505347, Note_off_c, 0, 66, 63
1, 505353, Note_off_c, 0, 61, 60
1, 505377, Note_on_c, 0, 73, 67
1, 505378, Note_off_c, 0, 85, 64
1, 505399, Note_off_c, 0, 73, 68
1, 505453, Note_on_c, 0, 66, 79
1, 505462, Note_on_c, 0, 81, 99
1, 505503, Note_off_c, 0, 66, 63
1, 505518, Note_off_c, 0, 81, 58
1, 505518, Note_on_c, 0, 69, 72
1, 505543, Note_off_c, 0, 69, 71
1, 505572, Note_on_c, 0, 61, 71
1, 505594, Note_on_c, 0, 54, 77
1, 505604, Note_off_c, 0, 61, 63
1, 505621, Note_off_c, 0, 54, 67
1, 505626, Note_on_c, 0, 78, 100
1, 505687, Poly_aftertouch_c, 0, 57, 0
1, 505696, Note_on_c, 0, 66, 71
1, 505724, Note_off_c, 0, 66, 63
1, 505753, Note_off_c, 0, 78, 56
1, 505800, Control_c, 0, 64, 74
1, 505815, Note_on_c, 0, 41, 100
1, 505815, Control_c, 0, 64, 0
1, 505818, Note_on_c, 0, 29, 91
1, 505825, Note_on_c, 0, 69, 99
1, 505852, Note_off_c, 0, 29, 66
1, 505867, Control_c, 0, 64, 49
1, 505877, Note_off_c, 0, 41, 67
1, 505882, Control_c, 0, 64, 92
1, 505897, Control_c, 0, 64, 127
1, 505927, Note_on_c, 0, 73, 87
1, 505927, Note_off_c, 0, 69, 64
1, 506003, Note_on_c, 0, 71, 82
1, 506027, Note_off_c, 0, 73, 64
1, 506067, Note_on_c, 0, 69, 84
1, 506085, Note_off_c, 0, 69, 71
1, 506088, Note_off_c, 0, 71, 60
1, 506162, Note_on_c, 0, 77, 99
1, 506229, Note_off_c, 0, 77, 64
1, 506241, Note_on_c, 0, 74, 75
1, 506321, Note_on_c, 0, 69, 77
1, 506329, Note_on_c, 0, 93, 108
1, 506342, Note_off_c, 0, 74, 66
1, 506347, Note_on_c, 0, 65, 76
1, 506362, Note_off_c, 0, 69, 70
1, 506371, Note_off_c, 0, 65, 70
1, 506371, Note_off_c, 0, 93, 68
1, 506389, Note_on_c, 0, 81, 79
1, 506413, Note_off_c, 0, 81, 66
1, 506534, Control_c, 0, 64, 107
1, 506549, Control_c, 0, 64, 68
1, 506559, Note_on_c, 0, 38, 102
1, 506562, Note_on_c, 0, 74, 98
1, 506564, Note_on_c, 0, 26, 91
1, 506564, Control_c, 0, 64, 0
1, 506596, Note_off_c, 0, 26, 68
1, 506615, Control_c, 0, 64, 52
1, 506617, Note_off_c, 0, 38, 69
1, 506630, Control_c, 0, 64, 97
1, 506645, Control_c, 0, 64, 127
1, 506671, Note_on_c, 0, 77, 86
1, 506675, Note_off_c, 0, 74, 64
1, 506758, Note_on_c, 0, 76, 86
1, 506784, Note_off_c, 0, 77, 56
1, 506836, Note_on_c, 0, 74, 81
1, 506856, Note_off_c, 0, 76, 63
1, 506872, Note_off_c, 0, 74, 69
1, 506961, Note_on_c, 0, 86, 100
1, 507012, Note_off_c, 0, 86, 69
1, 507047, Note_on_c, 0, 81, 87
1, 507149, Note_on_c, 0, 98, 100
1, 507161, Note_on_c, 0, 77, 85
1, 507189, Note_off_c, 0, 81, 62
1, 507279, Note_off_c, 0, 98, 66
1, 507280, Note_on_c, 0, 74, 97
1, 507283, Note_on_c, 0, 86, 100
1, 507303, Note_off_c, 0, 77, 65
1, 507314, Note_off_c, 0, 74, 72
1, 507344, Note_off_c, 0, 86, 67
1, 507527, Control_c, 0, 64, 109
1, 507542, Control_c, 0, 64, 67
1, 507557, Note_on_c, 0, 45, 106
1, 507557, Control_c, 0, 64, 0
1, 507560, Note_on_c, 0, 33, 89
1, 507564, Note_on_c, 0, 81, 108
1, 507585, Note_off_c, 0, 33, 69
1, 507602, Control_c, 0, 64, 72
1, 507604, Note_off_c, 0, 45, 68
1, 507617, Control_c, 0, 64, 127
1, 507675, Poly_aftertouch_c, 0, 37, 0
1, 507710, Note_on_c, 0, 85, 93
1, 507715, Note_off_c, 0, 81, 45
1, 507797, Note_off_c, 0, 85, 64
1, 507824, Note_on_c, 0, 83, 90
1, 507868, Note_off_c, 0, 83, 66
1, 507935, Note_on_c, 0, 81, 92
1, 507970, Note_off_c, 0, 81, 65
1, 508108, Note_on_c, 0, 81, 95
1, 508109, Note_on_c, 0, 105, 110
1, 508112, Note_on_c, 0, 69, 87
1, 508149, Note_off_c, 0, 81, 63
1, 508159, Note_off_c, 0, 69, 65
1, 508243, Note_on_c, 0, 93, 93
1, 508267, Note_off_c, 0, 105, 64
1, 508296, Note_off_c, 0, 93, 62
1, 508361, Note_on_c, 0, 76, 96
1, 508364, Note_on_c, 0, 64, 91
1, 508371, Note_on_c, 0, 100, 106
1, 508392, Note_off_c, 0, 64, 64
1, 508395, Note_off_c, 0, 76, 69
1, 508460, Note_on_c, 0, 88, 79
1, 508471, Note_off_c, 0, 100, 60
1, 508502, Note_off_c, 0, 88, 62
1, 508553, Note_on_c, 0, 73, 92
1, 508555, Note_on_c, 0, 97, 100
1, 508560, Note_on_c, 0, 61, 84
1, 508592, Note_off_c, 0, 73, 67
1, 508601, Note_off_c, 0, 61, 58
1, 508631, Note_on_c, 0, 85, 64
1, 508648, Note_off_c, 0, 97, 65
1, 508664, Note_off_c, 0, 85, 64
1, 508723, Note_on_c, 0, 69, 89
1, 508730, Note_on_c, 0, 57, 81
1, 508731, Note_on_c, 0, 93, 98
1, 508748, Note_off_c, 0, 69, 64
1, 508753, Note_off_c, 0, 57, 69
1, 508794, Note_on_c, 0, 81, 76
1, 508794, Note_off_c, 0, 93, 63
1, 508824, Note_off_c, 0, 81, 62
1, 508891, Note_on_c, 0, 64, 88
1, 508897, Note_on_c, 0, 52, 84
1, 508899, Note_on_c, 0, 88, 98
1, 508912, Note_off_c, 0, 64, 70
1, 508920, Note_off_c, 0, 52, 71
1, 508952, Note_on_c, 0, 76, 71
1, 508954, Note_off_c, 0, 88, 64
1, 508989, Note_off_c, 0, 76, 66
1, 509030, Note_on_c, 0, 61, 88
1, 509038, Note_on_c, 0, 49, 79
1, 509038, Note_on_c, 0, 85, 92
1, 509051, Note_off_c, 0, 61, 67
1, 509063, Note_off_c, 0, 49, 67
1, 509078, Note_on_c, 0, 73, 79
1, 509096, Note_off_c, 0, 85, 64
1, 509110, Note_off_c, 0, 73, 62
1, 509173, Note_on_c, 0, 57, 85
1, 509179, Note_on_c, 0, 45, 81
1, 509182, Note_on_c, 0, 81, 94
1, 509197, Note_off_c, 0, 57, 66
1, 509205, Note_off_c, 0, 45, 68
1, 509232, Note_on_c, 0, 69, 74
1, 509238, Note_off_c, 0, 81, 63
1, 509273, Note_off_c, 0, 69, 65
1, 509322, Note_on_c, 0, 52, 91
1, 509333, Note_on_c, 0, 76, 98
1, 509336, Note_on_c, 0, 40, 73
1, 509346, Note_off_c, 0, 52, 69
1, 509353, Note_on_c, 0, 41, 46
1, 509363, Note_off_c, 0, 40, 65
1, 509380, Note_on_c, 0, 64, 71
1, 509385, Note_off_c, 0, 76, 69
1, 509388, Note_off_c, 0, 41, 53
1, 509411, Note_off_c, 0, 64, 66
1, 509466, Note_on_c, 0, 49, 91
1, 509472, Note_on_c, 0, 37, 82
1, 509473, Note_on_c, 0, 73, 88
1, 509497, Note_off_c, 0, 49, 65
1, 509501, Note_off_c, 0, 37, 66
1, 509509, Note_on_c, 0, 61, 79
1, 509513, Note_off_c, 0, 73, 67
1, 509531, Note_off_c, 0, 61, 66
1, 509612, Note_on_c, 0, 45, 88
1, 509614, Note_on_c, 0, 33, 87
1, 509624, Note_on_c, 0, 69, 79
1, 509632, Note_on_c, 0, 67, 77
1, 509636, Note_off_c, 0, 45, 67
1, 509643, Note_off_c, 0, 33, 66
1, 509649, Note_on_c, 0, 57, 79
1, 509674, Note_off_c, 0, 57, 66
1, 509679, Note_off_c, 0, 69, 66
1, 509683, Note_off_c, 0, 67, 62
1, 509700, Control_c, 0, 64, 109
1, 509715, Control_c, 0, 64, 63
1, 509730, Control_c, 0, 64, 0
1, 509751, Note_on_c, 0, 39, 88
1, 509756, Note_on_c, 0, 27, 83
1, 509760, Note_on_c, 0, 63, 86
1, 509774, Control_c, 0, 64, 64
1, 509778, Note_off_c, 0, 39, 65
1, 509784, Note_off_c, 0, 27, 66
1, 509789, Control_c, 0, 64, 105
1, 509792, Note_on_c, 0, 51, 68
1, 509804, Control_c, 0, 64, 127
1, 509823, Note_off_c, 0, 51, 62
1, 509880, Note_on_c, 0, 40, 85
1, 509885, Note_on_c, 0, 28, 77
1, 509888, Note_on_c, 0, 64, 76
1, 509908, Note_off_c, 0, 40, 66
1, 509914, Note_off_c, 0, 28, 63
1, 509926, Note_on_c, 0, 52, 76
1, 509933, Note_off_c, 0, 63, 55
1, 509950, Note_off_c, 0, 52, 70
1, 509970, Note_off_c, 0, 64, 64
1, 510016, Note_on_c, 0, 44, 89
1, 510019, Note_on_c, 0, 32, 74
1, 510023, Note_on_c, 0, 68, 91
1, 510046, Note_off_c, 0, 32, 64
1, 510060, Note_off_c, 0, 44, 61
1, 510073, Note_on_c, 0, 56, 67
1, 510103, Poly_aftertouch_c, 0, 37, 127
1, 510112, Note_off_c, 0, 56, 62
1, 510142, Note_on_c, 0, 45, 93
1, 510145, Poly_aftertouch_c, 0, 37, 0
1, 510148, Note_on_c, 0, 33, 78
1, 510149, Note_on_c, 0, 69, 82
1, 510171, Note_off_c, 0, 33, 67
1, 510172, Note_off_c, 0, 45, 66
1, 510179, Note_off_c, 0, 68, 56
1, 510186, Note_on_c, 0, 57, 85
1, 510221, Note_off_c, 0, 69, 66
1, 510225, Note_off_c, 0, 57, 64
1, 510276, Note_on_c, 0, 51, 94
1, 510277, Note_on_c, 0, 39, 87
1, 510282, Note_on_c, 0, 75, 98
1, 510313, Note_off_c, 0, 39, 62
1, 510313, Note_off_c, 0, 51, 64
1, 510338, Note_on_c, 0, 63, 86
1, 510389, Note_off_c, 0, 63, 60
1, 510413, Note_on_c, 0, 52, 96
1, 510415, Note_on_c, 0, 40, 85
1, 510424, Note_on_c, 0, 76, 92
1, 510443, Note_off_c, 0, 40, 63
1, 510448, Note_off_c, 0, 52, 64
1, 510463, Note_on_c, 0, 64, 86
1, 510469, Note_off_c, 0, 75, 47
1, 510501, Note_off_c, 0, 76, 66
1, 510505, Note_off_c, 0, 64, 66
1, 510555, Note_on_c, 0, 44, 90
1, 510556, Note_on_c, 0, 56, 97
1, 510561, Note_on_c, 0, 80, 97
1, 510591, Note_off_c, 0, 56, 66
1, 510594, Note_off_c, 0, 44, 63
1, 510610, Note_on_c, 0, 68, 87
1, 510666, Note_off_c, 0, 68, 60
1, 510708, Note_on_c, 0, 57, 96
1, 510711, Note_on_c, 0, 45, 88
1, 510713, Note_on_c, 0, 81, 92
1, 510732, Note_off_c, 0, 45, 67
1, 510742, Note_off_c, 0, 57, 68
1, 510765, Note_on_c, 0, 69, 91
1, 510803, Note_off_c, 0, 69, 67
1, 510804, Note_off_c, 0, 81, 63
1, 510808, Note_off_c, 0, 80, 27
1, 510917, Note_on_c, 0, 51, 78
1, 510942, Note_on_c, 0, 87, 95
1, 511024, Note_on_c, 0, 63, 105
1, 511024, Note_on_c, 0, 75, 106
1, 511042, Control_c, 0, 64, 75
1, 511057, Control_c, 0, 64, 31
1, 511072, Control_c, 0, 64, 0
1, 511420, Control_c, 0, 64, 30
1, 511435, Control_c, 0, 64, 60
1, 511450, Control_c, 0, 64, 70
1, 511464, Control_c, 0, 64, 83
1, 511479, Control_c, 0, 64, 116
1, 511494, Control_c, 0, 64, 127
1, 511638, Note_off_c, 0, 51, 62
1, 511660, Note_off_c, 0, 75, 61
1, 511663, Note_off_c, 0, 63, 59
1, 511717, Note_off_c, 0, 87, 65
1, 511821, Control_c, 0, 64, 92
1, 511843, Control_c, 0, 64, 71
1, 511858, Control_c, 0, 64, 51
1, 511873, Control_c, 0, 64, 0
1, 512076, Note_on_c, 0, 64, 64
1, 512081, Note_on_c, 0, 88, 77
1, 512104, Note_off_c, 0, 64, 66
1, 512104, Note_off_c, 0, 88, 67
1, 512109, Control_c, 0, 64, 73
1, 512124, Control_c, 0, 64, 127
1, 512145, Note_on_c, 0, 88, 79
1, 512172, Note_on_c, 0, 64, 60
1, 512189, Note_off_c, 0, 88, 53
1, 512210, Note_on_c, 0, 69, 65
1, 512210, Note_on_c, 0, 93, 83
1, 512239, Note_off_c, 0, 93, 62
1, 512244, Note_off_c, 0, 69, 67
1, 512260, Note_off_c, 0, 64, 63
1, 512264, Note_on_c, 0, 57, 56
1, 512269, Note_on_c, 0, 81, 64
1, 512294, Note_off_c, 0, 57, 64
1, 512294, Note_off_c, 0, 81, 64
1, 512386, Note_on_c, 0, 76, 76
1, 512390, Note_on_c, 0, 52, 76
1, 512407, Note_off_c, 0, 76, 73
1, 512416, Note_off_c, 0, 52, 68
1, 512447, Note_on_c, 0, 76, 81
1, 512471, Note_off_c, 0, 76, 69
1, 512503, Note_on_c, 0, 57, 61
1, 512517, Note_on_c, 0, 81, 80
1, 512541, Poly_aftertouch_c, 0, 52, 0
1, 512556, Note_on_c, 0, 45, 66
1, 512571, Note_off_c, 0, 81, 61
1, 512576, Note_off_c, 0, 57, 63
1, 512587, Note_off_c, 0, 45, 64
1, 512592, Note_on_c, 0, 69, 80
1, 512625, Note_off_c, 0, 69, 61
1, 512667, Control_c, 0, 64, 84
1, 512681, Control_c, 0, 64, 54
1, 512696, Control_c, 0, 64, 0
1, 512706, Note_on_c, 0, 64, 74
1, 512723, Note_on_c, 0, 88, 80
1, 512726, Control_c, 0, 64, 34
1, 512730, Note_off_c, 0, 64, 69
1, 512741, Control_c, 0, 64, 73
1, 512744, Note_off_c, 0, 88, 70
1, 512756, Control_c, 0, 64, 127
1, 512779, Note_on_c, 0, 88, 74
1, 512782, Note_on_c, 0, 64, 72
1, 512818, Note_off_c, 0, 88, 48
1, 512839, Note_on_c, 0, 91, 84
1, 512844, Note_on_c, 0, 67, 72
1, 512874, Note_off_c, 0, 67, 67
1, 512880, Note_off_c, 0, 64, 64
1, 512880, Note_off_c, 0, 91, 62
1, 512883, Note_on_c, 0, 55, 68
1, 512906, Note_on_c, 0, 79, 70
1, 512911, Note_off_c, 0, 55, 63
1, 512932, Note_off_c, 0, 79, 66
1, 513001, Note_on_c, 0, 50, 82
1, 513011, Note_on_c, 0, 74, 85
1, 513024, Note_off_c, 0, 50, 69
1, 513037, Note_off_c, 0, 74, 69
1, 513067, Poly_aftertouch_c, 0, 74, 0
1, 513073, Note_on_c, 0, 74, 75
1, 513075, Note_on_c, 0, 50, 78
1, 513111, Note_off_c, 0, 74, 69
1, 513114, Note_off_c, 0, 50, 57
1, 513143, Note_on_c, 0, 55, 61
1, 513154, Note_on_c, 0, 79, 78
1, 513187, Note_on_c, 0, 43, 63
1, 513205, Note_off_c, 0, 79, 63
1, 513206, Note_off_c, 0, 55, 61
1, 513210, Note_on_c, 0, 67, 81
1, 513210, Note_off_c, 0, 43, 57
1, 513251, Note_off_c, 0, 67, 60
1, 513288, Control_c, 0, 64, 109
1, 513304, Control_c, 0, 64, 72
1, 513319, Control_c, 0, 64, 21
1, 513338, Note_on_c, 0, 62, 82
1, 513340, Control_c, 0, 64, 0
1, 513354, Note_on_c, 0, 86, 90
1, 513355, Control_c, 0, 64, 33
1, 513364, Note_off_c, 0, 62, 67
1, 513370, Control_c, 0, 64, 68
1, 513373, Note_off_c, 0, 86, 70
1, 513385, Control_c, 0, 64, 127
1, 513409, Note_on_c, 0, 86, 82
1, 513422, Note_on_c, 0, 62, 59
1, 513467, Note_off_c, 0, 86, 53
1, 513482, Note_on_c, 0, 65, 63
1, 513484, Note_on_c, 0, 89, 84
1, 513515, Note_off_c, 0, 65, 68
1, 513522, Note_on_c, 0, 53, 74
1, 513524, Note_off_c, 0, 62, 61
1, 513529, Note_off_c, 0, 89, 67
1, 513552, Note_off_c, 0, 53, 66
1, 513558, Note_on_c, 0, 77, 66
1, 513585, Note_off_c, 0, 77, 65
1, 513662, Note_on_c, 0, 48, 70
1, 513664, Note_on_c, 0, 47, 63
1, 513665, Note_on_c, 0, 72, 86
1, 513685, Note_off_c, 0, 48, 68
1, 513685, Note_off_c, 0, 72, 72
1, 513686, Note_off_c, 0, 47, 62
1, 513729, Note_on_c, 0, 72, 76
1, 513739, Note_on_c, 0, 48, 71
1, 513767, Note_off_c, 0, 72, 67
1, 513805, Note_on_c, 0, 53, 65
1, 513809, Note_on_c, 0, 77, 74
1, 513850, Note_off_c, 0, 48, 48
1, 513861, Note_on_c, 0, 41, 70
1, 513869, Note_off_c, 0, 53, 64
1, 513873, Note_on_c, 0, 65, 76
1, 513888, Note_off_c, 0, 41, 67
1, 513889, Note_off_c, 0, 77, 56
1, 513905, Note_off_c, 0, 65, 61
1, 513919, Control_c, 0, 64, 79
1, 513933, Control_c, 0, 64, 47
1, 513948, Control_c, 0, 64, 0
1, 513978, Control_c, 0, 64, 19
1, 513993, Control_c, 0, 64, 71
1, 513993, Note_on_c, 0, 50, 83
1, 514007, Control_c, 0, 64, 127
1, 514015, Note_on_c, 0, 83, 70
1, 514040, Note_off_c, 0, 83, 67
1, 514063, Note_on_c, 0, 38, 63
1, 514099, Note_off_c, 0, 50, 59
1, 514107, Note_off_c, 0, 38, 62
1, 514119, Note_on_c, 0, 83, 54
1, 514140, Note_off_c, 0, 83, 59
1, 514163, Control_c, 0, 64, 95
1, 514178, Control_c, 0, 64, 65
1, 514185, Note_on_c, 0, 88, 92
1, 514188, Note_on_c, 0, 40, 79
1, 514193, Control_c, 0, 64, 0
1, 514237, Note_off_c, 0, 40, 60
1, 514237, Control_c, 0, 64, 63
1, 514246, Note_on_c, 0, 52, 63
1, 514247, Note_off_c, 0, 88, 63
1, 514252, Control_c, 0, 64, 101
1, 514267, Control_c, 0, 64, 127
1, 514271, Note_on_c, 0, 76, 71
1, 514276, Note_off_c, 0, 52, 67
1, 514296, Note_off_c, 0, 76, 71
1, 514342, Note_on_c, 0, 57, 73
1, 514357, Note_on_c, 0, 84, 85
1, 514410, Note_on_c, 0, 60, 70
1, 514410, Note_off_c, 0, 84, 63
1, 514411, Note_off_c, 0, 57, 60
1, 514428, Note_on_c, 0, 72, 80
1, 514457, Note_off_c, 0, 72, 64
1, 514467, Note_off_c, 0, 60, 62
1, 514489, Control_c, 0, 64, 99
1, 514504, Control_c, 0, 64, 67
1, 514519, Control_c, 0, 64, 0
1, 514526, Note_on_c, 0, 52, 87
1, 514526, Note_on_c, 0, 83, 92
1, 514563, Control_c, 0, 64, 32
1, 514578, Control_c, 0, 64, 73
1, 514593, Control_c, 0, 64, 127
1, 514612, Note_on_c, 0, 71, 72
1, 514615, Note_on_c, 0, 56, 65
1, 514630, Note_off_c, 0, 83, 59
1, 514637, Note_off_c, 0, 71, 66
1, 514671, Note_off_c, 0, 52, 58
1, 514711, Note_on_c, 0, 59, 53
1, 514733, Note_on_c, 0, 88, 85
1, 514737, Note_off_c, 0, 56, 56
1, 514751, Note_off_c, 0, 88, 71
1, 514757, Note_on_c, 0, 64, 70
1, 514769, Note_off_c, 0, 59, 60
1, 514801, Note_off_c, 0, 64, 60
1, 514805, Note_on_c, 0, 88, 86
1, 514837, Control_c, 0, 64, 119
1, 514845, Note_off_c, 0, 88, 61
1, 514852, Control_c, 0, 64, 75
1, 514867, Control_c, 0, 64, 0
1, 514868, Note_on_c, 0, 57, 83
1, 514884, Note_on_c, 0, 93, 87
1, 514908, Note_off_c, 0, 57, 67
1, 514912, Control_c, 0, 64, 54
1, 514926, Note_off_c, 0, 93, 64
1, 514927, Control_c, 0, 64, 87
1, 514942, Note_on_c, 0, 81, 70
1, 514942, Control_c, 0, 64, 127
1, 514960, Note_on_c, 0, 57, 76
1, 514965, Note_off_c, 0, 81, 65
1, 515042, Note_on_c, 0, 62, 65
1, 515070, Note_on_c, 0, 71, 68
1, 515077, Note_off_c, 0, 62, 63
1, 515086, Note_off_c, 0, 71, 64
1, 515087, Note_on_c, 0, 50, 67
1, 515090, Note_off_c, 0, 57, 61
1, 515116, Note_off_c, 0, 50, 64
1, 515144, Note_on_c, 0, 71, 69
1, 515157, Note_on_c, 0, 69, 47
1, 515165, Control_c, 0, 64, 80
1, 515171, Note_off_c, 0, 71, 63
1, 515179, Control_c, 0, 64, 40
1, 515180, Note_off_c, 0, 69, 55
1, 515194, Control_c, 0, 64, 0
1, 515199, Note_on_c, 0, 50, 80
1, 515212, Note_on_c, 0, 76, 62
1, 515233, Note_on_c, 0, 74, 50
1, 515238, Control_c, 0, 64, 63
1, 515244, Note_off_c, 0, 50, 65
1, 515248, Note_off_c, 0, 76, 67
1, 515253, Control_c, 0, 64, 94
1, 515254, Note_off_c, 0, 74, 63
1, 515267, Note_on_c, 0, 62, 84
1, 515268, Control_c, 0, 64, 127
1, 515288, Note_off_c, 0, 62, 69
1, 515290, Note_on_c, 0, 50, 61
1, 515360, Note_off_c, 0, 50, 51
1, 515366, Note_on_c, 0, 55, 65
1, 515398, Note_on_c, 0, 86, 90
1, 515415, Note_on_c, 0, 43, 68
1, 515416, Note_off_c, 0, 86, 72
1, 515433, Note_off_c, 0, 55, 61
1, 515445, Note_off_c, 0, 43, 62
1, 515467, Note_on_c, 0, 86, 72
1, 515478, Note_on_c, 0, 84, 62
1, 515490, Note_off_c, 0, 86, 68
1, 515495, Note_off_c, 0, 84, 63
1, 515504, Control_c, 0, 64, 94
1, 515519, Control_c, 0, 64, 64
1, 515531, Note_on_c, 0, 55, 85
1, 515531, Note_on_c, 0, 91, 88
1, 515534, Control_c, 0, 64, 0
1, 515564, Control_c, 0, 64, 59
1, 515572, Note_off_c, 0, 55, 64
1, 515583, Note_off_c, 0, 91, 63
1, 515586, Control_c, 0, 64, 91
1, 515601, Note_on_c, 0, 79, 70
1, 515601, Control_c, 0, 64, 127
1, 515617, Note_on_c, 0, 55, 62
1, 515625, Note_off_c, 0, 79, 66
1, 515703, Note_on_c, 0, 60, 66
1, 515718, Note_on_c, 0, 67, 85
1, 515735, Note_off_c, 0, 60, 65
1, 515737, Note_off_c, 0, 67, 70
1, 515739, Note_on_c, 0, 48, 71
1, 515749, Note_off_c, 0, 55, 59
1, 515769, Note_off_c, 0, 48, 67
1, 515784, Note_on_c, 0, 67, 85
1, 515809, Control_c, 0, 64, 99
1, 515824, Control_c, 0, 64, 63
1, 515827, Note_off_c, 0, 67, 63
1, 515839, Control_c, 0, 64, 0
1, 515848, Note_on_c, 0, 48, 87
1, 515857, Note_on_c, 0, 72, 82
1, 515883, Note_off_c, 0, 48, 65
1, 515883, Control_c, 0, 64, 47
1, 515898, Control_c, 0, 64, 80
1, 515913, Control_c, 0, 64, 127
1, 515918, Note_off_c, 0, 72, 64
1, 515930, Note_on_c, 0, 60, 81
1, 515934, Note_on_c, 0, 48, 70
1, 515951, Note_off_c, 0, 60, 68
1, 516003, Note_off_c, 0, 48, 58
1, 516038, Note_on_c, 0, 53, 61
1, 516065, Note_on_c, 0, 84, 87
1, 516077, Note_on_c, 0, 41, 62
1, 516082, Note_off_c, 0, 84, 74
1, 516088, Note_off_c, 0, 53, 63
1, 516101, Note_off_c, 0, 41, 60
1, 516127, Note_on_c, 0, 84, 84
1, 516164, Control_c, 0, 64, 116
1, 516166, Note_off_c, 0, 84, 63
1, 516179, Control_c, 0, 64, 72
1, 516190, Note_on_c, 0, 53, 79
1, 516194, Control_c, 0, 64, 0
1, 516199, Note_on_c, 0, 89, 87
1, 516210, Note_off_c, 0, 53, 69
1, 516238, Note_off_c, 0, 89, 68
1, 516238, Control_c, 0, 64, 63
1, 516251, Note_on_c, 0, 77, 71
1, 516253, Control_c, 0, 64, 104
1, 516259, Note_on_c, 0, 53, 84
1, 516267, Control_c, 0, 64, 127
1, 516277, Note_off_c, 0, 77, 67
1, 516288, Note_off_c, 0, 53, 66
1, 516375, Note_on_c, 0, 58, 73
1, 516393, Note_on_c, 0, 67, 62
1, 516397, Note_on_c, 0, 46, 74
1, 516399, Note_on_c, 0, 65, 44
1, 516404, Note_off_c, 0, 58, 66
1, 516415, Note_off_c, 0, 67, 38
1, 516424, Note_off_c, 0, 65, 0
1, 516431, Note_off_c, 0, 46, 60
1, 516440, Note_on_c, 0, 65, 58
1, 516497, Control_c, 0, 64, 78
1, 516513, Control_c, 0, 64, 37
1, 516518, Note_off_c, 0, 65, 63
1, 516524, Note_on_c, 0, 70, 63
1, 516528, Control_c, 0, 64, 0
1, 516545, Note_on_c, 0, 47, 58
1, 516571, Note_off_c, 0, 47, 53
1, 516572, Control_c, 0, 64, 70
1, 516587, Control_c, 0, 64, 127
1, 516589, Note_on_c, 0, 58, 61
1, 516604, Note_off_c, 0, 70, 60
1, 516607, Note_off_c, 0, 58, 64
1, 516612, Note_on_c, 0, 50, 65
1, 516651, Note_off_c, 0, 50, 56
1, 516679, Note_on_c, 0, 52, 5
1, 516702, Note_on_c, 0, 38, 79
1, 516711, Note_on_c, 0, 82, 87
1, 516712, Note_off_c, 0, 52, 45
1, 516728, Note_off_c, 0, 82, 73
1, 516756, Note_off_c, 0, 38, 59
1, 516779, Note_on_c, 0, 82, 83
1, 516821, Note_off_c, 0, 82, 64
1, 516839, Control_c, 0, 64, 110
1, 516854, Control_c, 0, 64, 72
1, 516868, Control_c, 0, 64, 0
1, 516870, Note_on_c, 0, 40, 70
1, 516870, Note_on_c, 0, 88, 85
1, 516913, Note_off_c, 0, 40, 64
1, 516913, Control_c, 0, 64, 50
1, 516928, Control_c, 0, 64, 80
1, 516929, Note_off_c, 0, 88, 63
1, 516940, Note_on_c, 0, 52, 59
1, 516942, Control_c, 0, 64, 127
1, 516954, Note_on_c, 0, 76, 66
1, 516962, Note_off_c, 0, 52, 66
1, 516982, Note_off_c, 0, 76, 68
1, 517048, Note_on_c, 0, 84, 84
1, 517060, Note_on_c, 0, 57, 38
1, 517079, Note_on_c, 0, 59, 40
1, 517097, Note_off_c, 0, 57, 60
1, 517103, Note_on_c, 0, 60, 63
1, 517107, Note_off_c, 0, 59, 54
1, 517110, Note_off_c, 0, 84, 60
1, 517118, Note_on_c, 0, 72, 72
1, 517138, Note_off_c, 0, 60, 62
1, 517144, Note_off_c, 0, 72, 67
1, 517195, Note_on_c, 0, 64, 62
1, 517211, Note_on_c, 0, 88, 88
1, 517252, Note_on_c, 0, 59, 54
1, 517259, Note_off_c, 0, 88, 63
1, 517266, Note_on_c, 0, 76, 75
1, 517282, Note_off_c, 0, 64, 59
1, 517297, Note_off_c, 0, 76, 67
1, 517364, Note_on_c, 0, 83, 84
1, 517366, Note_on_c, 0, 56, 64
1, 517383, Note_off_c, 0, 59, 61
1, 517389, Note_off_c, 0, 56, 65
1, 517404, Note_on_c, 0, 52, 44
1, 517427, Note_on_c, 0, 71, 68
1, 517429, Note_off_c, 0, 52, 59
1, 517432, Note_off_c, 0, 83, 58
1, 517452, Note_off_c, 0, 71, 66
1, 517484, Control_c, 0, 64, 91
1, 517499, Control_c, 0, 64, 60
1, 517513, Control_c, 0, 64, 0
1, 517518, Note_on_c, 0, 40, 74
1, 517525, Note_on_c, 0, 89, 86
1, 517540, Note_on_c, 0, 88, 57
1, 517543, Control_c, 0, 64, 25
1, 517553, Note_off_c, 0, 40, 63
1, 517558, Control_c, 0, 64, 71
1, 517570, Note_off_c, 0, 89, 67
1, 517573, Control_c, 0, 64, 127
1, 517579, Note_on_c, 0, 41, 8
1, 517589, Note_on_c, 0, 52, 42
1, 517593, Note_on_c, 0, 76, 70
1, 517615, Note_off_c, 0, 76, 68
1, 517621, Note_off_c, 0, 52, 56
1, 517621, Note_off_c, 0, 88, 30
1, 517628, Note_off_c, 0, 41, 48
1, 517681, Note_on_c, 0, 81, 90
1, 517682, Note_on_c, 0, 57, 75
1, 517719, Note_on_c, 0, 60, 62
1, 517726, Note_on_c, 0, 69, 79
1, 517743, Note_off_c, 0, 57, 60
1, 517744, Note_off_c, 0, 81, 55
1, 517750, Note_off_c, 0, 69, 68
1, 517776, Note_off_c, 0, 60, 61
1, 517792, Note_on_c, 0, 64, 71
1, 517836, Note_on_c, 0, 88, 97
1, 517862, Note_off_c, 0, 64, 64
1, 517880, Note_on_c, 0, 59, 71
1, 517888, Note_off_c, 0, 88, 66
1, 517895, Note_on_c, 0, 76, 80
1, 517922, Note_off_c, 0, 76, 67
1, 517952, Note_on_c, 0, 55, 68
1, 517958, Note_off_c, 0, 59, 64
1, 517977, Note_off_c, 0, 55, 65
1, 517996, Note_on_c, 0, 79, 89
1, 518036, Note_on_c, 0, 67, 86
1, 518050, Note_on_c, 0, 52, 73
1, 518067, Note_off_c, 0, 79, 63
1, 518068, Note_off_c, 0, 67, 60
1, 518106, Note_off_c, 0, 52, 62
1, 518129, Control_c, 0, 64, 77
1, 518139, Note_on_c, 0, 40, 78
1, 518144, Control_c, 0, 64, 15
1, 518153, Note_on_c, 0, 88, 100
1, 518159, Control_c, 0, 64, 0
1, 518189, Control_c, 0, 64, 41
1, 518191, Note_off_c, 0, 40, 63
1, 518198, Note_on_c, 0, 52, 74
1, 518202, Note_off_c, 0, 88, 67
1, 518203, Control_c, 0, 64, 85
1, 518204, Note_on_c, 0, 76, 77
1, 518218, Control_c, 0, 64, 127
1, 518223, Note_off_c, 0, 52, 68
1, 518238, Note_off_c, 0, 76, 67
1, 518309, Note_on_c, 0, 55, 70
1, 518312, Note_on_c, 0, 77, 91
1, 518344, Note_off_c, 0, 55, 61
1, 518348, Note_on_c, 0, 65, 87
1, 518378, Note_off_c, 0, 77, 62
1, 518385, Note_off_c, 0, 65, 63
1, 518436, Note_on_c, 0, 64, 76
1, 518466, Note_on_c, 0, 86, 101
1, 518500, Note_off_c, 0, 64, 64
1, 518503, Note_on_c, 0, 60, 38
1, 518509, Note_off_c, 0, 86, 66
1, 518511, Note_on_c, 0, 74, 69
1, 518524, Note_on_c, 0, 76, 38
1, 518536, Note_off_c, 0, 74, 70
1, 518539, Note_off_c, 0, 60, 57
1, 518551, Note_on_c, 0, 56, 66
1, 518551, Note_off_c, 0, 76, 58
1, 518582, Note_off_c, 0, 56, 64
1, 518624, Note_on_c, 0, 76, 73
1, 518631, Note_on_c, 0, 77, 78
1, 518649, Note_off_c, 0, 77, 64
1, 518652, Note_on_c, 0, 64, 83
1, 518664, Note_on_c, 0, 52, 53
1, 518676, Note_off_c, 0, 64, 66
1, 518684, Note_off_c, 0, 76, 67
1, 518695, Note_off_c, 0, 52, 64
1, 518744, Control_c, 0, 64, 79
1, 518748, Note_on_c, 0, 40, 74
1, 518759, Control_c, 0, 64, 42
1, 518774, Control_c, 0, 64, 0
1, 518776, Note_on_c, 0, 88, 97
1, 518789, Note_on_c, 0, 52, 71
1, 518799, Note_off_c, 0, 40, 63
1, 518803, Control_c, 0, 64, 41
1, 518818, Control_c, 0, 64, 78
1, 518823, Note_off_c, 0, 88, 65
1, 518826, Note_on_c, 0, 76, 76
1, 518833, Control_c, 0, 64, 127
1, 518845, Note_off_c, 0, 52, 64
1, 518856, Note_off_c, 0, 76, 67
1, 518932, Note_on_c, 0, 53, 59
1, 518937, Note_on_c, 0, 75, 94
1, 518960, Note_off_c, 0, 53, 66
1, 518983, Note_on_c, 0, 63, 85
1, 519007, Poly_aftertouch_c, 0, 57, 127
1, 519031, Note_off_c, 0, 63, 59
1, 519031, Note_off_c, 0, 75, 59
1, 519032, Poly_aftertouch_c, 0, 57, 0
1, 519056, Note_on_c, 0, 64, 73
1, 519144, Note_on_c, 0, 59, 58
1, 519156, Note_off_c, 0, 64, 63
1, 519186, Note_on_c, 0, 56, 71
1, 519198, Note_off_c, 0, 59, 60
1, 519213, Note_off_c, 0, 56, 67
1, 519230, Note_on_c, 0, 76, 87
1, 519273, Note_on_c, 0, 52, 86
1, 519298, Note_on_c, 0, 64, 81
1, 519326, Note_off_c, 0, 64, 70
1, 519345, Note_off_c, 0, 76, 65
1, 519354, Note_off_c, 0, 52, 61
1, 519412, Note_on_c, 0, 40, 79
1, 519419, Control_c, 0, 64, 75
1, 519434, Control_c, 0, 64, 26
1, 519439, Note_on_c, 0, 88, 98
1, 519449, Control_c, 0, 64, 0
1, 519478, Control_c, 0, 64, 41
1, 519489, Note_off_c, 0, 40, 62
1, 519493, Control_c, 0, 64, 76
1, 519496, Note_on_c, 0, 52, 81
1, 519508, Note_off_c, 0, 88, 66
1, 519508, Control_c, 0, 64, 127
1, 519532, Note_on_c, 0, 76, 75
1, 519546, Note_off_c, 0, 52, 62
1, 519554, Note_off_c, 0, 76, 72
1, 519621, Note_on_c, 0, 75, 100
1, 519635, Note_on_c, 0, 53, 66
1, 519666, Note_off_c, 0, 53, 65
1, 519677, Note_on_c, 0, 63, 89
1, 519688, Note_on_c, 0, 73, 26
1, 519725, Note_off_c, 0, 73, 54
1, 519727, Note_off_c, 0, 75, 55
1, 519734, Note_off_c, 0, 63, 59
1, 519758, Note_on_c, 0, 64, 78
1, 519837, Note_on_c, 0, 59, 64
1, 519840, Note_off_c, 0, 64, 64
1, 519883, Note_on_c, 0, 56, 70
1, 519889, Note_off_c, 0, 59, 64
1, 519907, Note_off_c, 0, 56, 65
1, 519930, Note_on_c, 0, 76, 97
1, 519979, Note_on_c, 0, 52, 94
1, 520011, Note_on_c, 0, 64, 84
1, 520032, Note_off_c, 0, 64, 69
1, 520038, Note_off_c, 0, 52, 66
1, 520052, Note_off_c, 0, 76, 68
1, 520123, Control_c, 0, 64, 88
1, 520138, Control_c, 0, 64, 60
1, 520146, Note_on_c, 0, 41, 93
1, 520153, Control_c, 0, 64, 0
1, 520173, Note_on_c, 0, 93, 108
1, 520197, Control_c, 0, 64, 67
1, 520212, Control_c, 0, 64, 127
1, 520256, Note_off_c, 0, 41, 61
1, 520258, Note_on_c, 0, 53, 85
1, 520258, Note_off_c, 0, 93, 61
1, 520274, Note_on_c, 0, 81, 82
1, 520294, Note_off_c, 0, 81, 69
1, 520304, Note_off_c, 0, 53, 63
1, 520379, Note_on_c, 0, 57, 79
1, 520383, Note_on_c, 0, 75, 110
1, 520436, Note_off_c, 0, 57, 60
1, 520450, Note_on_c, 0, 59, 75
1, 520457, Note_on_c, 0, 63, 79
1, 520497, Note_off_c, 0, 75, 56
1, 520510, Note_off_c, 0, 59, 62
1, 520510, Note_off_c, 0, 63, 58
1, 520514, Note_on_c, 0, 56, 78
1, 520530, Poly_aftertouch_c, 0, 73, 0
1, 520536, Note_off_c, 0, 56, 68
1, 520604, Note_on_c, 0, 52, 86
1, 520664, Note_off_c, 0, 52, 67
1, 520681, Note_on_c, 0, 40, 87
1, 520688, Note_on_c, 0, 76, 94
1, 520756, Note_on_c, 0, 64, 88
1, 520764, Note_on_c, 0, 52, 94
1, 520775, Note_off_c, 0, 40, 61
1, 520783, Note_off_c, 0, 64, 65
1, 520801, Note_off_c, 0, 76, 65
1, 520824, Note_off_c, 0, 52, 62
1, 520857, Control_c, 0, 64, 84
1, 520872, Control_c, 0, 64, 33
1, 520887, Control_c, 0, 64, 0
1, 520894, Note_on_c, 0, 41, 92
1, 520910, Note_on_c, 0, 93, 101
1, 520917, Control_c, 0, 64, 48
1, 520931, Control_c, 0, 64, 91
1, 520946, Control_c, 0, 64, 127
1, 520967, Note_off_c, 0, 41, 61
1, 520983, Note_on_c, 0, 53, 83
1, 520984, Note_off_c, 0, 93, 62
1, 521004, Note_on_c, 0, 81, 84
1, 521013, Note_off_c, 0, 53, 64
1, 521025, Note_off_c, 0, 81, 67
1, 521083, Note_on_c, 0, 57, 85
1, 521109, Note_on_c, 0, 75, 104
1, 521143, Note_off_c, 0, 57, 58
1, 521159, Note_on_c, 0, 59, 82
1, 521164, Note_on_c, 0, 63, 90
1, 521177, Note_on_c, 0, 73, 38
1, 521201, Note_off_c, 0, 75, 59
1, 521207, Note_off_c, 0, 73, 55
1, 521215, Note_off_c, 0, 59, 62
1, 521219, Note_off_c, 0, 63, 60
1, 521225, Note_on_c, 0, 56, 81
1, 521246, Note_off_c, 0, 56, 67
1, 521311, Note_on_c, 0, 52, 83
1, 521365, Note_off_c, 0, 52, 65
1, 521393, Note_on_c, 0, 40, 88
1, 521405, Note_on_c, 0, 76, 89
1, 521448, Note_on_c, 0, 64, 87
1, 521457, Note_on_c, 0, 52, 102
1, 521462, Note_off_c, 0, 40, 64
1, 521478, Note_off_c, 0, 64, 64
1, 521487, Note_off_c, 0, 76, 67
1, 521499, Note_off_c, 0, 52, 68
1, 521621, Control_c, 0, 64, 74
1, 521636, Control_c, 0, 64, 0
1, 521658, Note_on_c, 0, 53, 101
1, 521660, Note_on_c, 0, 41, 97
1, 521670, Note_on_c, 0, 93, 107
1, 521672, Note_on_c, 0, 81, 103
1, 521672, Note_on_c, 0, 87, 93
1, 521680, Control_c, 0, 64, 51
1, 521690, Note_off_c, 0, 41, 66
1, 521695, Control_c, 0, 64, 94
1, 521700, Note_off_c, 0, 53, 68
1, 521710, Control_c, 0, 64, 127
1, 521717, Note_off_c, 0, 81, 59
1, 521723, Note_off_c, 0, 93, 61
1, 521731, Note_off_c, 0, 87, 63
1, 521866, Note_on_c, 0, 75, 75
1, 521866, Note_on_c, 0, 87, 76
1, 521889, Note_off_c, 0, 75, 68
1, 521893, Note_off_c, 0, 87, 65
1, 521941, Note_on_c, 0, 74, 82
1, 521943, Note_on_c, 0, 62, 76
1, 521964, Note_off_c, 0, 74, 67
1, 521971, Note_off_c, 0, 62, 61
1, 522000, Note_on_c, 0, 75, 90
1, 522000, Note_on_c, 0, 87, 88
1, 522042, Note_off_c, 0, 75, 63
1, 522044, Note_off_c, 0, 87, 63
1, 522068, Note_on_c, 0, 62, 88
1, 522068, Note_on_c, 0, 74, 89
1, 522101, Note_off_c, 0, 62, 53
1, 522108, Note_off_c, 0, 74, 62
1, 522131, Note_on_c, 0, 75, 97
1, 522134, Note_on_c, 0, 87, 90
1, 522173, Note_off_c, 0, 75, 62
1, 522179, Note_off_c, 0, 87, 61
1, 522182, Note_on_c, 0, 74, 85
1, 522183, Note_on_c, 0, 62, 95
1, 522197, Note_off_c, 0, 74, 77
1, 522229, Note_off_c, 0, 62, 63
1, 522244, Note_on_c, 0, 75, 94
1, 522247, Note_on_c, 0, 87, 90
1, 522284, Note_off_c, 0, 75, 66
1, 522285, Note_off_c, 0, 87, 66
1, 522304, Control_c, 0, 64, 77
1, 522327, Control_c, 0, 64, 24
1, 522337, Note_on_c, 0, 52, 110
1, 522339, Note_on_c, 0, 40, 99
1, 522342, Control_c, 0, 64, 0
1, 522347, Note_on_c, 0, 88, 81
1, 522352, Note_on_c, 0, 76, 100
1, 522354, Note_on_c, 0, 80, 96
1, 522360, Note_off_c, 0, 40, 70
1, 522370, Note_off_c, 0, 52, 63
1, 522371, Control_c, 0, 64, 61
1, 522385, Note_off_c, 0, 88, 64
1, 522386, Control_c, 0, 64, 112
1, 522390, Note_off_c, 0, 76, 68
1, 522397, Note_off_c, 0, 80, 64
1, 522401, Control_c, 0, 64, 127
1, 522447, Note_on_c, 0, 40, 3
1, 522464, Note_off_c, 0, 40, 61
1, 522516, Note_on_c, 0, 64, 76
1, 522516, Note_on_c, 0, 76, 84
1, 522542, Note_off_c, 0, 64, 67
1, 522557, Note_off_c, 0, 76, 59
1, 522596, Note_on_c, 0, 63, 88
1, 522602, Note_on_c, 0, 51, 79
1, 522623, Note_off_c, 0, 63, 59
1, 522630, Note_off_c, 0, 51, 62
1, 522638, Note_on_c, 0, 64, 84
1, 522641, Note_on_c, 0, 76, 93
1, 522682, Note_off_c, 0, 64, 64
1, 522685, Note_off_c, 0, 76, 65
1, 522710, Note_on_c, 0, 63, 92
1, 522717, Note_on_c, 0, 51, 79
1, 522741, Note_off_c, 0, 51, 64
1, 522741, Note_off_c, 0, 63, 62
1, 522766, Note_on_c, 0, 64, 81
1, 522769, Note_on_c, 0, 76, 86
1, 522790, Note_off_c, 0, 64, 68
1, 522796, Note_off_c, 0, 76, 66
1, 522817, Note_on_c, 0, 63, 96
1, 522819, Note_on_c, 0, 51, 89
1, 522838, Note_off_c, 0, 63, 64
1, 522867, Note_off_c, 0, 51, 62
1, 522874, Note_on_c, 0, 64, 88
1, 522876, Note_on_c, 0, 76, 93
1, 522904, Note_off_c, 0, 64, 66
1, 522919, Note_off_c, 0, 76, 65
1, 522935, Control_c, 0, 64, 119
1, 522950, Control_c, 0, 64, 71
1, 522965, Control_c, 0, 64, 0
1, 522969, Note_on_c, 0, 41, 108
1, 522971, Note_on_c, 0, 29, 98
1, 522978, Note_on_c, 0, 69, 108
1, 522978, Note_on_c, 0, 81, 108
1, 522992, Note_on_c, 0, 74, 82
1, 522992, Note_on_c, 0, 75, 62
1, 522993, Note_off_c, 0, 75, 127
1, 522995, Note_off_c, 0, 29, 68
1, 522997, Note_on_c, 0, 79, 73
1, 523002, Note_off_c, 0, 41, 66
1, 523004, Note_off_c, 0, 81, 58
1, 523009, Control_c, 0, 64, 69
1, 523010, Note_off_c, 0, 74, 74
1, 523014, Note_off_c, 0, 79, 42
1, 523024, Control_c, 0, 64, 127
1, 523025, Note_off_c, 0, 69, 53
1, 523147, Note_on_c, 0, 63, 86
1, 523152, Note_on_c, 0, 51, 86
1, 523178, Note_off_c, 0, 51, 62
1, 523198, Note_off_c, 0, 63, 58
1, 523223, Note_on_c, 0, 50, 91
1, 523228, Note_on_c, 0, 38, 80
1, 523257, Note_off_c, 0, 50, 60
1, 523259, Note_off_c, 0, 38, 65
1, 523276, Note_on_c, 0, 63, 87
1, 523279, Note_on_c, 0, 51, 86
1, 523321, Note_off_c, 0, 51, 58
1, 523322, Note_off_c, 0, 63, 61
1, 523340, Note_on_c, 0, 50, 90
1, 523344, Note_on_c, 0, 38, 86
1, 523384, Note_off_c, 0, 50, 60
1, 523392, Note_off_c, 0, 38, 58
1, 523402, Note_on_c, 0, 51, 83
1, 523404, Note_on_c, 0, 63, 78
1, 523430, Note_off_c, 0, 51, 65
1, 523441, Note_off_c, 0, 63, 59
1, 523458, Note_on_c, 0, 50, 76
1, 523460, Note_on_c, 0, 38, 82
1, 523472, Note_on_c, 0, 48, 68
1, 523479, Note_off_c, 0, 50, 70
1, 523490, Note_off_c, 0, 48, 64
1, 523509, Note_off_c, 0, 38, 62
1, 523515, Note_on_c, 0, 51, 75
1, 523519, Note_on_c, 0, 63, 87
1, 523537, Note_off_c, 0, 51, 67
1, 523541, Note_off_c, 0, 63, 61
1, 523652, Control_c, 0, 64, 116
1, 523667, Control_c, 0, 64, 73
1, 523683, Control_c, 0, 64, 0
1, 523698, Note_on_c, 0, 28, 89
1, 523699, Note_on_c, 0, 35, 91
1, 523699, Note_on_c, 0, 40, 99
1, 523706, Note_on_c, 0, 64, 95
1, 523708, Note_on_c, 0, 68, 89
1, 523708, Note_on_c, 0, 76, 95
1, 523722, Note_on_c, 0, 29, 63
1, 523742, Control_c, 0, 64, 67
1, 523744, Note_off_c, 0, 29, 43
1, 523749, Note_off_c, 0, 76, 68
1, 523757, Control_c, 0, 64, 127
1, 523759, Note_off_c, 0, 40, 65
1, 523764, Note_off_c, 0, 28, 63
1, 523766, Note_off_c, 0, 68, 66
1, 523773, Note_off_c, 0, 64, 67
1, 523777, Note_off_c, 0, 35, 64
1, 523943, Note_on_c, 0, 40, 65
1, 523977, Note_off_c, 0, 40, 61
1, 524019, Note_on_c, 0, 39, 73
1, 524046, Note_off_c, 0, 39, 66
1, 524064, Note_on_c, 0, 40, 66
1, 524099, Note_off_c, 0, 40, 63
1, 524134, Note_on_c, 0, 39, 68
1, 524164, Note_off_c, 0, 39, 63
1, 524194, Note_on_c, 0, 40, 70
1, 524229, Note_off_c, 0, 40, 64
1, 524241, Note_on_c, 0, 39, 70
1, 524269, Note_off_c, 0, 39, 67
1, 524308, Note_on_c, 0, 40, 74
1, 524334, Note_off_c, 0, 40, 66
1, 524343, Note_on_c, 0, 39, 72
1, 524367, Note_off_c, 0, 39, 69
1, 524398, Note_on_c, 0, 40, 76
1, 524419, Note_off_c, 0, 40, 72
1, 524478, Note_on_c, 0, 51, 90
1, 524518, Note_off_c, 0, 51, 55
1, 524572, Note_on_c, 0, 52, 48
1, 524600, Note_off_c, 0, 52, 55
1, 524617, Note_on_c, 0, 51, 64
1, 524643, Note_off_c, 0, 51, 63
1, 524663, Note_on_c, 0, 52, 62
1, 524686, Note_off_c, 0, 52, 64
1, 524691, Control_c, 0, 64, 91
1, 524706, Control_c, 0, 64, 60
1, 524721, Control_c, 0, 64, 0
1, 524739, Note_on_c, 0, 63, 95
1, 524751, Control_c, 0, 64, 33
1, 524765, Control_c, 0, 64, 70
1, 524769, Note_off_c, 0, 63, 62
1, 524780, Control_c, 0, 64, 127
1, 524823, Note_on_c, 0, 64, 62
1, 524844, Note_off_c, 0, 64, 65
1, 524882, Note_on_c, 0, 63, 67
1, 524912, Note_off_c, 0, 63, 63
1, 524934, Note_on_c, 0, 64, 65
1, 524974, Note_off_c, 0, 64, 63
1, 524987, Control_c, 0, 64, 98
1, 525002, Control_c, 0, 64, 80
1, 525016, Control_c, 0, 64, 66
1, 525018, Note_on_c, 0, 63, 60
1, 525031, Control_c, 0, 64, 49
1, 525041, Note_off_c, 0, 63, 59
1, 525046, Control_c, 0, 64, 0
1, 525078, Note_on_c, 0, 64, 63
1, 525100, Note_off_c, 0, 64, 66
1, 525134, Note_on_c, 0, 63, 68
1, 525163, Note_off_c, 0, 63, 63
1, 525191, Note_on_c, 0, 64, 60
1, 525225, Note_off_c, 0, 64, 64
1, 525269, Note_on_c, 0, 63, 64
1, 525300, Note_off_c, 0, 63, 63
1, 525321, Note_on_c, 0, 64, 59
1, 525321, Control_c, 0, 64, 47
1, 525336, Control_c, 0, 64, 77
1, 525351, Control_c, 0, 64, 113
1, 525352, Note_off_c, 0, 64, 67
1, 525366, Control_c, 0, 64, 127
1, 525419, Note_on_c, 0, 63, 51
1, 525440, Note_off_c, 0, 63, 59
1, 525458, Note_on_c, 0, 64, 56
1, 525490, Note_off_c, 0, 64, 65
1, 525499, Control_c, 0, 64, 115
1, 525514, Control_c, 0, 64, 89
1, 525529, Control_c, 0, 64, 74
1, 525535, Note_on_c, 0, 63, 57
1, 525544, Control_c, 0, 64, 62
1, 525559, Control_c, 0, 64, 53
1, 525570, Note_off_c, 0, 63, 61
1, 525574, Control_c, 0, 64, 44
1, 525588, Control_c, 0, 64, 30
1, 525603, Control_c, 0, 64, 0
1, 525606, Note_on_c, 0, 64, 55
1, 525631, Note_off_c, 0, 64, 64
1, 525675, Note_on_c, 0, 63, 55
1, 525698, Note_off_c, 0, 63, 61
1, 525735, Note_on_c, 0, 64, 54
1, 525771, Note_off_c, 0, 64, 65
1, 525810, Note_on_c, 0, 63, 49
1, 525826, Control_c, 0, 64, 56
1, 525836, Note_off_c, 0, 63, 55
1, 525840, Control_c, 0, 64, 86
1, 525855, Control_c, 0, 64, 127
1, 525874, Note_on_c, 0, 64, 56
1, 525909, Note_off_c, 0, 64, 66
1, 525937, Note_on_c, 0, 63, 53
1, 525967, Note_off_c, 0, 63, 56
1, 526008, Note_on_c, 0, 64, 56
1, 526044, Note_off_c, 0, 64, 64
1, 526071, Note_on_c, 0, 63, 66
1, 526101, Note_off_c, 0, 63, 64
1, 526131, Control_c, 0, 64, 113
1, 526143, Note_on_c, 0, 64, 60
1, 526145, Control_c, 0, 64, 103
1, 526160, Control_c, 0, 64, 93
1, 526175, Control_c, 0, 64, 83
1, 526177, Note_off_c, 0, 64, 66
1, 526190, Control_c, 0, 64, 74
1, 526200, Note_on_c, 0, 63, 59
1, 526205, Control_c, 0, 64, 67
1, 526219, Control_c, 0, 64, 58
1, 526223, Note_off_c, 0, 63, 64
1, 526234, Control_c, 0, 64, 43
1, 526249, Control_c, 0, 64, 0
1, 526263, Note_on_c, 0, 64, 59
1, 526312, Note_off_c, 0, 64, 54
1, 526337, Note_on_c, 0, 63, 54
1, 526343, Note_on_c, 0, 72, 62
1, 526351, Note_on_c, 0, 57, 46
1, 526382, Control_c, 0, 64, 61
1, 526389, Note_off_c, 0, 63, 55
1, 526397, Control_c, 0, 64, 77
1, 526399, Note_off_c, 0, 57, 60
1, 526411, Control_c, 0, 64, 93
1, 526426, Control_c, 0, 64, 118
1, 526431, Note_on_c, 0, 64, 55
1, 526441, Control_c, 0, 64, 127
1, 526468, Note_off_c, 0, 64, 50
1, 526485, Note_off_c, 0, 72, 62
1, 526490, Note_on_c, 0, 76, 69
1, 526513, Note_on_c, 0, 63, 50
1, 526516, Note_on_c, 0, 60, 39
1, 526531, Note_off_c, 0, 63, 59
1, 526544, Note_off_c, 0, 60, 53
1, 526568, Note_on_c, 0, 64, 62
1, 526589, Control_c, 0, 64, 103
1, 526603, Note_off_c, 0, 64, 60
1, 526604, Control_c, 0, 64, 91
1, 526619, Note_on_c, 0, 63, 57
1, 526619, Control_c, 0, 64, 81
1, 526631, Note_on_c, 0, 74, 68
1, 526634, Note_on_c, 0, 59, 50
1, 526634, Control_c, 0, 64, 72
1, 526649, Control_c, 0, 64, 63
1, 526656, Note_off_c, 0, 63, 61
1, 526659, Note_off_c, 0, 76, 60
1, 526660, Note_off_c, 0, 59, 56
1, 526663, Control_c, 0, 64, 52
1, 526678, Control_c, 0, 64, 37
1, 526693, Control_c, 0, 64, 0
1, 526718, Note_on_c, 0, 64, 56
1, 526745, Note_off_c, 0, 64, 59
1, 526752, Note_on_c, 0, 63, 58
1, 526755, Note_on_c, 0, 72, 66
1, 526769, Note_on_c, 0, 57, 44
1, 526786, Note_off_c, 0, 63, 61
1, 526790, Note_off_c, 0, 74, 64
1, 526795, Note_off_c, 0, 57, 57
1, 526819, Note_off_c, 0, 72, 63
1, 526842, Note_on_c, 0, 64, 59
1, 526901, Note_on_c, 0, 63, 51
1, 526902, Note_off_c, 0, 64, 61
1, 526908, Note_on_c, 0, 56, 53
1, 526915, Note_on_c, 0, 71, 61
1, 526930, Note_off_c, 0, 63, 57
1, 526943, Note_off_c, 0, 56, 62
1, 526993, Note_on_c, 0, 64, 37
1, 527026, Note_on_c, 0, 68, 66
1, 527026, Note_off_c, 0, 64, 62
1, 527027, Note_on_c, 0, 63, 58
1, 527027, Control_c, 0, 64, 63
1, 527033, Note_on_c, 0, 52, 59
1, 527042, Control_c, 0, 64, 92
1, 527057, Control_c, 0, 64, 127
1, 527061, Note_off_c, 0, 63, 61
1, 527067, Note_off_c, 0, 52, 64
1, 527070, Note_off_c, 0, 71, 52
1, 527083, Note_off_c, 0, 68, 63
1, 527115, Note_on_c, 0, 64, 67
1, 527157, Note_on_c, 0, 63, 57
1, 527166, Note_on_c, 0, 54, 47
1, 527178, Note_off_c, 0, 64, 62
1, 527178, Note_off_c, 0, 63, 61
1, 527179, Note_on_c, 0, 69, 65
1, 527198, Note_off_c, 0, 54, 54
1, 527222, Note_off_c, 0, 69, 58
1, 527234, Control_c, 0, 64, 121
1, 527249, Control_c, 0, 64, 103
1, 527253, Note_on_c, 0, 64, 53
1, 527264, Control_c, 0, 64, 92
1, 527279, Control_c, 0, 64, 83
1, 527292, Note_on_c, 0, 63, 48
1, 527294, Control_c, 0, 64, 73
1, 527294, Note_on_c, 0, 56, 56
1, 527294, Note_off_c, 0, 64, 62
1, 527309, Control_c, 0, 64, 63
1, 527312, Note_on_c, 0, 71, 65
1, 527324, Control_c, 0, 64, 50
1, 527325, Note_off_c, 0, 63, 63
1, 527326, Note_off_c, 0, 56, 64
1, 527339, Control_c, 0, 64, 26
1, 527350, Note_off_c, 0, 71, 57
1, 527353, Control_c, 0, 64, 0
1, 527390, Note_on_c, 0, 64, 54
1, 527421, Note_off_c, 0, 64, 60
1, 527439, Note_on_c, 0, 57, 49
1, 527443, Note_on_c, 0, 72, 65
1, 527445, Note_on_c, 0, 63, 53
1, 527476, Note_off_c, 0, 63, 59
1, 527479, Note_off_c, 0, 57, 63
1, 527486, Control_c, 0, 64, 64
1, 527501, Control_c, 0, 64, 83
1, 527508, Note_on_c, 0, 64, 66
1, 527516, Control_c, 0, 64, 127
1, 527547, Note_off_c, 0, 64, 63
1, 527569, Note_on_c, 0, 60, 65
1, 527574, Note_on_c, 0, 63, 62
1, 527581, Note_on_c, 0, 76, 80
1, 527589, Note_off_c, 0, 72, 64
1, 527602, Note_off_c, 0, 60, 63
1, 527602, Note_off_c, 0, 63, 63
1, 527655, Note_on_c, 0, 64, 67
1, 527684, Note_on_c, 0, 63, 62
1, 527694, Note_on_c, 0, 59, 56
1, 527695, Note_off_c, 0, 64, 56
1, 527714, Note_on_c, 0, 74, 72
1, 527717, Note_off_c, 0, 63, 58
1, 527730, Note_off_c, 0, 59, 62
1, 527747, Note_off_c, 0, 76, 62
1, 527747, Control_c, 0, 64, 107
1, 527762, Control_c, 0, 64, 95
1, 527777, Control_c, 0, 64, 85
1, 527789, Note_on_c, 0, 64, 59
1, 527791, Control_c, 0, 64, 77
1, 527806, Control_c, 0, 64, 70
1, 527818, Note_off_c, 0, 64, 56
1, 527821, Control_c, 0, 64, 65
1, 527826, Note_on_c, 0, 63, 61
1, 527830, Note_on_c, 0, 57, 50
1, 527835, Control_c, 0, 64, 56
1, 527848, Note_on_c, 0, 72, 64
1, 527850, Control_c, 0, 64, 43
1, 527854, Note_off_c, 0, 63, 63
1, 527865, Control_c, 0, 64, 0
1, 527869, Note_off_c, 0, 57, 63
1, 527870, Note_off_c, 0, 74, 63
1, 527889, Note_off_c, 0, 72, 63
1, 527906, Note_on_c, 0, 64, 62
1, 527976, Note_off_c, 0, 64, 62
1, 527977, Note_on_c, 0, 63, 59
1, 527979, Note_on_c, 0, 71, 64
1, 527987, Note_on_c, 0, 56, 49
1, 528013, Note_off_c, 0, 63, 60
1, 528020, Note_off_c, 0, 56, 62
1, 528058, Note_on_c, 0, 64, 52
1, 528072, Control_c, 0, 64, 68
1, 528087, Control_c, 0, 64, 93
1, 528091, Note_on_c, 0, 68, 73
1, 528097, Note_off_c, 0, 64, 64
1, 528101, Control_c, 0, 64, 127
1, 528102, Note_on_c, 0, 63, 63
1, 528104, Note_on_c, 0, 52, 62
1, 528127, Note_off_c, 0, 71, 53
1, 528134, Note_off_c, 0, 63, 61
1, 528141, Note_off_c, 0, 52, 61
1, 528145, Note_off_c, 0, 68, 63
1, 528180, Note_on_c, 0, 64, 70
1, 528224, Note_off_c, 0, 64, 60
1, 528236, Note_on_c, 0, 63, 58
1, 528242, Note_on_c, 0, 54, 53
1, 528242, Note_on_c, 0, 69, 78
1, 528266, Note_off_c, 0, 63, 62
1, 528282, Note_off_c, 0, 69, 62
1, 528283, Note_off_c, 0, 54, 58
1, 528325, Note_on_c, 0, 64, 72
1, 528365, Note_on_c, 0, 63, 66
1, 528366, Note_off_c, 0, 64, 61
1, 528371, Note_on_c, 0, 56, 59
1, 528389, Note_on_c, 0, 71, 72
1, 528394, Note_off_c, 0, 63, 61
1, 528401, Note_off_c, 0, 56, 63
1, 528420, Control_c, 0, 64, 94
1, 528434, Control_c, 0, 64, 67
1, 528440, Note_off_c, 0, 71, 57
1, 528449, Control_c, 0, 64, 0
1, 528450, Note_on_c, 0, 64, 73
1, 528473, Note_off_c, 0, 64, 70
1, 528525, Control_c, 0, 64, 50
1, 528534, Note_on_c, 0, 63, 56
1, 528539, Note_on_c, 0, 57, 49
1, 528539, Control_c, 0, 64, 75
1, 528552, Note_on_c, 0, 84, 83
1, 528554, Control_c, 0, 64, 115
1, 528569, Control_c, 0, 64, 127
1, 528582, Note_off_c, 0, 63, 55
1, 528586, Note_off_c, 0, 57, 56
1, 528607, Note_off_c, 0, 84, 58
1, 528622, Note_on_c, 0, 72, 67
1, 528633, Note_on_c, 0, 64, 49
1, 528649, Note_off_c, 0, 72, 68
1, 528679, Note_off_c, 0, 64, 52
1, 528700, Note_on_c, 0, 60, 61
1, 528702, Note_on_c, 0, 63, 61
1, 528704, Note_on_c, 0, 88, 82
1, 528734, Note_off_c, 0, 63, 62
1, 528736, Note_off_c, 0, 60, 61
1, 528746, Note_off_c, 0, 88, 63
1, 528767, Note_on_c, 0, 76, 73
1, 528771, Note_on_c, 0, 64, 75
1, 528803, Note_off_c, 0, 76, 65
1, 528825, Note_off_c, 0, 64, 54
1, 528829, Note_on_c, 0, 63, 67
1, 528837, Note_on_c, 0, 59, 58
1, 528844, Note_on_c, 0, 86, 75
1, 528857, Note_on_c, 0, 84, 69
1, 528865, Note_off_c, 0, 63, 54
1, 528868, Note_off_c, 0, 59, 63
1, 528874, Note_off_c, 0, 84, 64
1, 528883, Note_off_c, 0, 86, 63
1, 528902, Note_on_c, 0, 64, 69
1, 528909, Note_on_c, 0, 74, 71
1, 528942, Note_off_c, 0, 74, 64
1, 528954, Control_c, 0, 64, 111
1, 528957, Note_on_c, 0, 57, 67
1, 528957, Note_off_c, 0, 64, 62
1, 528966, Note_on_c, 0, 84, 72
1, 528967, Note_on_c, 0, 63, 67
1, 528969, Control_c, 0, 64, 103
1, 528983, Control_c, 0, 64, 98
1, 528991, Note_off_c, 0, 57, 62
1, 528998, Control_c, 0, 64, 92
1, 529001, Note_off_c, 0, 63, 59
1, 529011, Note_off_c, 0, 84, 64
1, 529013, Control_c, 0, 64, 85
1, 529028, Control_c, 0, 64, 77
1, 529029, Note_on_c, 0, 64, 67
1, 529039, Note_on_c, 0, 72, 72
1, 529043, Control_c, 0, 64, 70
1, 529064, Control_c, 0, 64, 63
1, 529079, Control_c, 0, 64, 48
1, 529080, Note_off_c, 0, 72, 66
1, 529091, Note_off_c, 0, 64, 63
1, 529094, Control_c, 0, 64, 0
1, 529102, Note_on_c, 0, 83, 76
1, 529108, Note_on_c, 0, 56, 61
1, 529143, Note_off_c, 0, 56, 63
1, 529172, Note_on_c, 0, 64, 71
1, 529175, Note_on_c, 0, 71, 66
1, 529200, Note_off_c, 0, 71, 66
1, 529230, Note_on_c, 0, 80, 79
1, 529231, Note_off_c, 0, 64, 61
1, 529245, Note_off_c, 0, 83, 61
1, 529248, Note_on_c, 0, 52, 57
1, 529257, Note_on_c, 0, 63, 56
1, 529270, Note_off_c, 0, 52, 59
1, 529288, Control_c, 0, 64, 80
1, 529297, Note_on_c, 0, 68, 81
1, 529303, Control_c, 0, 64, 127
1, 529309, Note_off_c, 0, 80, 54
1, 529313, Note_on_c, 0, 64, 63
1, 529342, Note_off_c, 0, 68, 62
1, 529344, Note_off_c, 0, 64, 66
1, 529362, Note_off_c, 0, 63, 0
1, 529366, Note_on_c, 0, 54, 70
1, 529371, Note_on_c, 0, 81, 82
1, 529398, Note_off_c, 0, 54, 62
1, 529399, Poly_aftertouch_c, 0, 63, 127
1, 529433, Note_on_c, 0, 69, 82
1, 529435, Note_on_c, 0, 64, 64
1, 529446, Note_off_c, 0, 81, 58
1, 529476, Note_off_c, 0, 69, 63
1, 529492, Poly_aftertouch_c, 0, 63, 0
1, 529495, Note_off_c, 0, 64, 57
1, 529498, Note_on_c, 0, 56, 64
1, 529504, Note_on_c, 0, 63, 37
1, 529509, Note_on_c, 0, 83, 75
1, 529547, Note_off_c, 0, 56, 54
1, 529553, Note_off_c, 0, 63, 58
1, 529556, Note_on_c, 0, 64, 55
1, 529561, Note_on_c, 0, 71, 71
1, 529568, Note_off_c, 0, 83, 59
1, 529589, Note_off_c, 0, 71, 61
1, 529599, Control_c, 0, 64, 97
1, 529613, Control_c, 0, 64, 66
1, 529620, Note_off_c, 0, 64, 58
1, 529628, Control_c, 0, 64, 0
1, 529658, Note_on_c, 0, 84, 80
1, 529659, Note_on_c, 0, 57, 58
1, 529670, Note_on_c, 0, 63, 43
1, 529687, Control_c, 0, 64, 41
1, 529700, Note_off_c, 0, 57, 60
1, 529700, Note_off_c, 0, 63, 54
1, 529702, Control_c, 0, 64, 73
1, 529713, Note_on_c, 0, 72, 70
1, 529715, Note_off_c, 0, 84, 62
1, 529717, Control_c, 0, 64, 111
1, 529725, Note_on_c, 0, 64, 70
1, 529732, Control_c, 0, 64, 127
1, 529742, Note_off_c, 0, 72, 66
1, 529788, Note_off_c, 0, 64, 61
1, 529790, Note_on_c, 0, 63, 63
1, 529794, Note_on_c, 0, 60, 65
1, 529816, Note_on_c, 0, 88, 84
1, 529832, Note_off_c, 0, 63, 58
1, 529838, Note_off_c, 0, 60, 59
1, 529866, Note_on_c, 0, 64, 73
1, 529866, Note_off_c, 0, 88, 62
1, 529875, Note_on_c, 0, 76, 76
1, 529902, Note_off_c, 0, 76, 65
1, 529931, Note_off_c, 0, 64, 62
1, 529942, Note_on_c, 0, 59, 58
1, 529944, Note_on_c, 0, 63, 60
1, 529946, Note_on_c, 0, 86, 86
1, 529974, Note_off_c, 0, 59, 64
1, 529978, Note_off_c, 0, 63, 59
1, 529984, Note_off_c, 0, 86, 63
1, 529999, Note_on_c, 0, 64, 69
1, 530001, Note_on_c, 0, 74, 78
1, 530045, Note_off_c, 0, 74, 65
1, 530062, Note_on_c, 0, 57, 69
1, 530069, Note_off_c, 0, 64, 65
1, 530075, Note_on_c, 0, 84, 87
1, 530081, Note_on_c, 0, 63, 61
1, 530081, Control_c, 0, 64, 121
1, 530096, Control_c, 0, 64, 100
1, 530102, Note_off_c, 0, 57, 59
1, 530111, Control_c, 0, 64, 88
1, 530112, Note_off_c, 0, 63, 61
1, 530115, Note_off_c, 0, 84, 65
1, 530126, Control_c, 0, 64, 73
1, 530140, Note_on_c, 0, 64, 65
1, 530141, Control_c, 0, 64, 61
1, 530144, Note_on_c, 0, 72, 69
1, 530156, Control_c, 0, 64, 28
1, 530170, Control_c, 0, 64, 0
1, 530176, Note_off_c, 0, 72, 65
1, 530191, Note_off_c, 0, 64, 58
1, 530203, Note_on_c, 0, 83, 77
1, 530224, Note_on_c, 0, 63, 46
1, 530226, Note_on_c, 0, 56, 39
1, 530249, Note_off_c, 0, 63, 54
1, 530253, Note_off_c, 0, 56, 55
1, 530269, Note_on_c, 0, 64, 72
1, 530281, Note_on_c, 0, 71, 60
1, 530299, Note_off_c, 0, 71, 61
1, 530322, Note_off_c, 0, 64, 54
1, 530329, Note_on_c, 0, 80, 78
1, 530338, Note_off_c, 0, 83, 60
1, 530345, Note_on_c, 0, 52, 53
1, 530352, Note_on_c, 0, 63, 46
1, 530362, Control_c, 0, 64, 48
1, 530370, Note_off_c, 0, 52, 58
1, 530376, Control_c, 0, 64, 101
1, 530391, Control_c, 0, 64, 127
1, 530400, Note_off_c, 0, 80, 57
1, 530406, Note_on_c, 0, 68, 71
1, 530415, Note_on_c, 0, 64, 60
1, 530436, Note_off_c, 0, 64, 64
1, 530448, Note_off_c, 0, 68, 61
1, 530466, Note_on_c, 0, 54, 64
1, 530474, Note_on_c, 0, 81, 75
1, 530495, Note_off_c, 0, 54, 64
1, 530520, Note_on_c, 0, 64, 66
1, 530533, Note_off_c, 0, 81, 57
1, 530552, Note_on_c, 0, 69, 73
1, 530567, Note_off_c, 0, 64, 63
1, 530583, Note_off_c, 0, 69, 64
1, 530608, Note_on_c, 0, 56, 60
1, 530626, Note_on_c, 0, 83, 76
1, 530635, Control_c, 0, 64, 115
1, 530650, Control_c, 0, 64, 79
1, 530654, Note_off_c, 0, 56, 59
1, 530665, Control_c, 0, 64, 51
1, 530669, Note_off_c, 0, 63, 40
1, 530675, Note_off_c, 0, 83, 60
1, 530680, Control_c, 0, 64, 0
1, 530695, Note_on_c, 0, 71, 63
1, 530742, Note_off_c, 0, 71, 59
1, 530754, Control_c, 0, 64, 49
1, 530756, Note_on_c, 0, 57, 55
1, 530768, Note_on_c, 0, 73, 74
1, 530769, Control_c, 0, 64, 74
1, 530784, Control_c, 0, 64, 113
1, 530788, Note_on_c, 0, 68, 45
1, 530799, Control_c, 0, 64, 127
1, 530814, Note_off_c, 0, 68, 55
1, 530819, Note_off_c, 0, 57, 55
1, 530828, Note_off_c, 0, 73, 61
1, 530848, Note_on_c, 0, 69, 67
1, 530886, Note_off_c, 0, 69, 62
1, 530902, Note_on_c, 0, 68, 60
1, 530912, Note_on_c, 0, 59, 53
1, 530913, Note_on_c, 0, 74, 72
1, 530942, Note_off_c, 0, 68, 62
1, 530944, Note_off_c, 0, 74, 62
1, 530947, Note_off_c, 0, 59, 62
1, 530981, Note_on_c, 0, 69, 79
1, 531020, Note_off_c, 0, 69, 64
1, 531034, Note_on_c, 0, 61, 71
1, 531037, Control_c, 0, 64, 113
1, 531038, Note_on_c, 0, 68, 62
1, 531040, Note_on_c, 0, 76, 87
1, 531051, Control_c, 0, 64, 87
1, 531062, Note_off_c, 0, 61, 62
1, 531065, Note_off_c, 0, 68, 65
1, 531066, Control_c, 0, 64, 69
1, 531081, Control_c, 0, 64, 15
1, 531096, Control_c, 0, 64, 0
1, 531122, Note_on_c, 0, 69, 74
1, 531157, Note_on_c, 0, 73, 74
1, 531163, Note_off_c, 0, 69, 64
1, 531170, Note_on_c, 0, 68, 59
1, 531171, Note_on_c, 0, 57, 58
1, 531200, Note_off_c, 0, 68, 65
1, 531205, Note_off_c, 0, 57, 63
1, 531220, Note_off_c, 0, 76, 65
1, 531246, Note_on_c, 0, 69, 68
1, 531293, Note_off_c, 0, 69, 64
1, 531296, Note_off_c, 0, 73, 64
1, 531308, Note_on_c, 0, 68, 56
1, 531309, Note_on_c, 0, 77, 75
1, 531312, Note_on_c, 0, 62, 58
1, 531343, Note_off_c, 0, 68, 64
1, 531345, Note_off_c, 0, 62, 63
1, 531385, Note_on_c, 0, 69, 66
1, 531414, Control_c, 0, 64, 34
1, 531428, Note_off_c, 0, 77, 50
1, 531429, Control_c, 0, 64, 81
1, 531431, Note_on_c, 0, 61, 61
1, 531435, Note_on_c, 0, 76, 71
1, 531440, Note_on_c, 0, 68, 51
1, 531444, Control_c, 0, 64, 127
1, 531447, Note_off_c, 0, 69, 64
1, 531461, Note_off_c, 0, 68, 61
1, 531472, Note_off_c, 0, 61, 56
1, 531527, Note_on_c, 0, 69, 61
1, 531552, Note_on_c, 0, 68, 51
1, 531569, Note_off_c, 0, 69, 65
1, 531574, Note_on_c, 0, 62, 48
1, 531578, Note_on_c, 0, 77, 70
1, 531582, Note_off_c, 0, 76, 61
1, 531594, Note_off_c, 0, 68, 63
1, 531612, Note_off_c, 0, 62, 54
1, 531661, Note_on_c, 0, 69, 53
1, 531679, Note_off_c, 0, 69, 65
1, 531682, Control_c, 0, 64, 96
1, 531697, Control_c, 0, 64, 80
1, 531701, Note_on_c, 0, 60, 62
1, 531705, Note_on_c, 0, 67, 55
1, 531712, Control_c, 0, 64, 67
1, 531717, Note_on_c, 0, 75, 69
1, 531719, Note_off_c, 0, 77, 60
1, 531726, Control_c, 0, 64, 51
1, 531727, Note_off_c, 0, 67, 58
1, 531733, Note_off_c, 0, 60, 65
1, 531741, Control_c, 0, 64, 0
1, 531777, Note_on_c, 0, 68, 63
1, 531807, Note_off_c, 0, 68, 66
1, 531848, Note_on_c, 0, 74, 64
1, 531854, Note_on_c, 0, 59, 48
1, 531856, Note_on_c, 0, 66, 56
1, 531861, Note_off_c, 0, 75, 59
1, 531882, Note_off_c, 0, 66, 62
1, 531890, Control_c, 0, 64, 45
1, 531904, Note_off_c, 0, 59, 59
1, 531905, Control_c, 0, 64, 83
1, 531915, Note_on_c, 0, 67, 69
1, 531920, Control_c, 0, 64, 127
1, 531974, Note_off_c, 0, 67, 61
1, 531976, Note_on_c, 0, 66, 60
1, 531978, Note_on_c, 0, 72, 72
1, 531985, Note_on_c, 0, 57, 58
1, 532004, Note_off_c, 0, 74, 62
1, 532010, Note_off_c, 0, 66, 61
1, 532028, Note_off_c, 0, 57, 57
1, 532045, Note_off_c, 0, 72, 63
1, 532057, Note_on_c, 0, 67, 67
1, 532110, Note_off_c, 0, 67, 61
1, 532124, Note_on_c, 0, 74, 75
1, 532125, Note_on_c, 0, 59, 59
1, 532128, Note_on_c, 0, 66, 59
1, 532153, Note_off_c, 0, 66, 65
1, 532159, Note_off_c, 0, 59, 61
1, 532164, Control_c, 0, 64, 116
1, 532179, Control_c, 0, 64, 93
1, 532194, Control_c, 0, 64, 78
1, 532197, Note_off_c, 0, 74, 62
1, 532201, Note_on_c, 0, 67, 72
1, 532208, Control_c, 0, 64, 67
1, 532223, Control_c, 0, 64, 57
1, 532238, Control_c, 0, 64, 42
1, 532245, Note_on_c, 0, 71, 64
1, 532251, Note_off_c, 0, 67, 60
1, 532251, Note_on_c, 0, 66, 65
1, 532253, Control_c, 0, 64, 0
1, 532257, Note_on_c, 0, 55, 61
1, 532289, Note_off_c, 0, 66, 65
1, 532293, Note_off_c, 0, 55, 59
1, 532314, Note_off_c, 0, 71, 59
1, 532320, Note_on_c, 0, 67, 76
1, 532374, Note_off_c, 0, 67, 64
1, 532391, Note_on_c, 0, 75, 82
1, 532409, Note_on_c, 0, 66, 63
1, 532414, Note_on_c, 0, 60, 50
1, 532445, Note_off_c, 0, 66, 61
1, 532446, Note_off_c, 0, 75, 59
1, 532457, Note_on_c, 0, 67, 72
1, 532458, Note_off_c, 0, 60, 59
1, 532460, Control_c, 0, 64, 70
1, 532476, Control_c, 0, 64, 127
1, 532514, Note_off_c, 0, 67, 61
1, 532523, Note_on_c, 0, 74, 67
1, 532536, Note_on_c, 0, 59, 63
1, 532538, Note_on_c, 0, 66, 62
1, 532574, Note_off_c, 0, 66, 62
1, 532576, Note_off_c, 0, 74, 66
1, 532588, Note_off_c, 0, 59, 55
1, 532597, Note_on_c, 0, 67, 64
1, 532651, Note_off_c, 0, 67, 61
1, 532668, Note_on_c, 0, 66, 60
1, 532668, Note_on_c, 0, 75, 65
1, 532675, Note_on_c, 0, 60, 58
1, 532707, Note_off_c, 0, 66, 62
1, 532707, Note_off_c, 0, 75, 52
1, 532712, Note_off_c, 0, 60, 60
1, 532713, Control_c, 0, 64, 111
1, 532728, Control_c, 0, 64, 95
1, 532734, Note_on_c, 0, 67, 57
1, 532742, Control_c, 0, 64, 84
1, 532757, Control_c, 0, 64, 75
1, 532772, Control_c, 0, 64, 67
1, 532776, Note_off_c, 0, 67, 63
1, 532787, Control_c, 0, 64, 54
1, 532803, Note_on_c, 0, 73, 70
1, 532809, Note_on_c, 0, 58, 46
1, 532809, Control_c, 0, 64, 21
1, 532823, Control_c, 0, 64, 0
1, 532826, Note_on_c, 0, 65, 40
1, 532838, Note_off_c, 0, 58, 58
1, 532847, Note_off_c, 0, 73, 64
1, 532854, Note_off_c, 0, 65, 50
1, 532883, Note_on_c, 0, 66, 70
1, 532931, Note_off_c, 0, 66, 63
1, 532937, Note_on_c, 0, 57, 54
1, 532945, Note_on_c, 0, 64, 49
1, 532950, Note_on_c, 0, 72, 67
1, 532974, Note_off_c, 0, 64, 56
1, 532983, Note_off_c, 0, 57, 55
1, 532987, Control_c, 0, 64, 59
1, 533002, Control_c, 0, 64, 76
1, 533017, Control_c, 0, 64, 94
1, 533017, Note_on_c, 0, 65, 67
1, 533031, Control_c, 0, 64, 127
1, 533074, Note_on_c, 0, 64, 55
1, 533077, Note_off_c, 0, 72, 63
1, 533079, Note_on_c, 0, 75, 84
1, 533080, Note_on_c, 0, 60, 59
1, 533080, Note_off_c, 0, 65, 63
1, 533113, Note_off_c, 0, 64, 61
1, 533115, Note_off_c, 0, 60, 62
1, 533152, Note_on_c, 0, 65, 71
1, 533202, Note_off_c, 0, 65, 60
1, 533211, Note_on_c, 0, 58, 60
1, 533213, Note_on_c, 0, 73, 78
1, 533218, Note_on_c, 0, 64, 55
1, 533247, Note_off_c, 0, 75, 61
1, 533248, Note_off_c, 0, 58, 62
1, 533251, Note_off_c, 0, 64, 62
1, 533293, Note_on_c, 0, 65, 70
1, 533311, Note_off_c, 0, 73, 64
1, 533344, Note_on_c, 0, 64, 60
1, 533347, Note_on_c, 0, 72, 77
1, 533352, Note_on_c, 0, 56, 56
1, 533357, Note_off_c, 0, 65, 59
1, 533358, Control_c, 0, 64, 103
1, 533366, Note_off_c, 0, 64, 65
1, 533372, Control_c, 0, 64, 91
1, 533380, Note_off_c, 0, 56, 62
1, 533387, Control_c, 0, 64, 80
1, 533402, Control_c, 0, 64, 68
1, 533417, Control_c, 0, 64, 55
1, 533426, Note_on_c, 0, 65, 59
1, 533432, Control_c, 0, 64, 27
1, 533446, Control_c, 0, 64, 0
1, 533488, Note_on_c, 0, 54, 57
1, 533490, Note_on_c, 0, 70, 71
1, 533491, Note_off_c, 0, 65, 64
1, 533503, Note_on_c, 0, 64, 36
1, 533524, Note_off_c, 0, 72, 63
1, 533530, Note_off_c, 0, 54, 57
1, 533530, Note_off_c, 0, 64, 50
1, 533587, Note_on_c, 0, 65, 62
1, 533592, Note_off_c, 0, 70, 63
1, 533634, Note_on_c, 0, 64, 58
1, 533634, Note_on_c, 0, 73, 78
1, 533636, Note_on_c, 0, 58, 58
1, 533646, Control_c, 0, 64, 69
1, 533649, Note_off_c, 0, 65, 65
1, 533661, Control_c, 0, 64, 127
1, 533679, Note_off_c, 0, 64, 60
1, 533688, Note_off_c, 0, 58, 54
1, 533703, Note_on_c, 0, 65, 68
1, 533723, Note_off_c, 0, 73, 63
1, 533778, Note_off_c, 0, 65, 63
1, 533783, Note_on_c, 0, 72, 67
1, 533789, Note_on_c, 0, 56, 58
1, 533791, Note_on_c, 0, 64, 61
1, 533817, Note_off_c, 0, 64, 64
1, 533831, Note_off_c, 0, 56, 60
1, 533855, Note_on_c, 0, 65, 66
1, 533863, Note_off_c, 0, 72, 64
1, 533920, Note_on_c, 0, 70, 81
1, 533923, Note_on_c, 0, 64, 60
1, 533924, Note_on_c, 0, 54, 63
1, 533926, Note_off_c, 0, 65, 66
1, 533963, Note_off_c, 0, 64, 62
1, 533970, Note_off_c, 0, 70, 64
1, 533976, Note_off_c, 0, 54, 47
1, 533996, Note_on_c, 0, 65, 76
1, 534054, Note_off_c, 0, 65, 59
1, 534063, Note_on_c, 0, 64, 74
1, 534069, Note_on_c, 0, 69, 81
1, 534075, Note_on_c, 0, 53, 70
1, 534089, Note_off_c, 0, 64, 70
1, 534105, Note_off_c, 0, 53, 67
1, 534125, Note_off_c, 0, 69, 65
1, 534143, Note_on_c, 0, 65, 84
1, 534177, Note_off_c, 0, 65, 62
1, 534180, Control_c, 0, 64, 106
1, 534195, Control_c, 0, 64, 72
1, 534210, Control_c, 0, 64, 0
1, 534240, Note_on_c, 0, 81, 100
1, 534242, Note_on_c, 0, 53, 86
1, 534245, Note_on_c, 0, 75, 88
1, 534246, Note_on_c, 0, 41, 81
1, 534269, Note_off_c, 0, 53, 66
1, 534276, Note_off_c, 0, 41, 67
1, 534284, Control_c, 0, 64, 68
1, 534306, Control_c, 0, 64, 100
1, 534321, Control_c, 0, 64, 127
1, 534340, Note_on_c, 0, 69, 70
1, 534340, Note_off_c, 0, 81, 58
1, 534356, Note_off_c, 0, 75, 62
1, 534372, Note_off_c, 0, 69, 63
1, 534406, Note_on_c, 0, 52, 82
1, 534409, Note_on_c, 0, 76, 61
1, 534410, Note_on_c, 0, 40, 66
1, 534412, Note_on_c, 0, 80, 91
1, 534430, Note_off_c, 0, 52, 71
1, 534433, Note_off_c, 0, 40, 60
1, 534481, Note_on_c, 0, 68, 76
1, 534487, Note_off_c, 0, 76, 65
1, 534491, Note_off_c, 0, 80, 63
1, 534525, Note_off_c, 0, 68, 64
1, 534561, Note_on_c, 0, 56, 68
1, 534564, Note_on_c, 0, 64, 70
1, 534573, Control_c, 0, 64, 80
1, 534579, Note_on_c, 0, 74, 82
1, 534584, Note_on_c, 0, 71, 75
1, 534588, Control_c, 0, 64, 38
1, 534594, Note_off_c, 0, 64, 65
1, 534602, Control_c, 0, 64, 0
1, 534630, Note_off_c, 0, 56, 59
1, 534636, Note_off_c, 0, 71, 60
1, 534647, Control_c, 0, 64, 61
1, 534656, Note_on_c, 0, 65, 68
1, 534657, Note_off_c, 0, 74, 64
1, 534662, Control_c, 0, 64, 89
1, 534676, Control_c, 0, 64, 127
1, 534720, Note_on_c, 0, 63, 75
1, 534721, Note_on_c, 0, 72, 73
1, 534725, Note_on_c, 0, 57, 53
1, 534725, Note_off_c, 0, 65, 65
1, 534744, Note_on_c, 0, 69, 53
1, 534746, Note_off_c, 0, 63, 64
1, 534766, Note_off_c, 0, 57, 59
1, 534766, Note_off_c, 0, 69, 62
1, 534783, Note_off_c, 0, 72, 64
1, 534794, Control_c, 0, 64, 97
1, 534809, Control_c, 0, 64, 80
1, 534812, Note_on_c, 0, 64, 69
1, 534824, Control_c, 0, 64, 67
1, 534839, Control_c, 0, 64, 51
1, 534854, Control_c, 0, 64, 0
1, 534868, Note_off_c, 0, 64, 52
1, 534869, Note_on_c, 0, 61, 67
1, 534883, Note_on_c, 0, 71, 70
1, 534884, Note_on_c, 0, 68, 64
1, 534916, Note_off_c, 0, 61, 59
1, 534925, Note_off_c, 0, 68, 64
1, 534939, Note_on_c, 0, 52, 4
1, 534952, Note_off_c, 0, 71, 57
1, 534966, Note_on_c, 0, 62, 68
1, 535007, Note_off_c, 0, 62, 57
1, 535014, Note_off_c, 0, 52, 40
1, 535021, Note_on_c, 0, 69, 68
1, 535031, Note_on_c, 0, 57, 52
1, 535053, Note_on_c, 0, 59, 36
1, 535074, Note_off_c, 0, 57, 64
1, 535080, Note_off_c, 0, 59, 55
1, 535093, Note_off_c, 0, 69, 57
1, 535099, Control_c, 0, 64, 66
1, 535114, Control_c, 0, 64, 91
1, 535119, Note_on_c, 0, 60, 58
1, 535129, Control_c, 0, 64, 127
1, 535139, Note_off_c, 0, 60, 59
1, 535197, Note_on_c, 0, 63, 67
1, 535262, Note_off_c, 0, 63, 57
1, 535278, Note_on_c, 0, 64, 70
1, 535308, Note_off_c, 0, 64, 67
1, 535366, Control_c, 0, 64, 91
1, 535381, Control_c, 0, 64, 65
1, 535396, Control_c, 0, 64, 0
1, 535415, Note_on_c, 0, 57, 49
1, 535426, Note_on_c, 0, 73, 71
1, 535431, Note_on_c, 0, 68, 62
1, 535455, Control_c, 0, 64, 63
1, 535470, Control_c, 0, 64, 81
1, 535485, Control_c, 0, 64, 127
1, 535493, Note_off_c, 0, 73, 63
1, 535494, Note_off_c, 0, 68, 60
1, 535502, Note_off_c, 0, 57, 38
1, 535518, Note_on_c, 0, 85, 66
1, 535519, Poly_aftertouch_c, 0, 59, 0
1, 535522, Note_on_c, 0, 69, 69
1, 535544, Note_on_c, 0, 81, 45
1, 535572, Note_off_c, 0, 81, 54
1, 535579, Note_off_c, 0, 69, 56
1, 535592, Note_off_c, 0, 85, 62
1, 535602, Note_on_c, 0, 59, 52
1, 535603, Note_on_c, 0, 74, 73
1, 535608, Note_on_c, 0, 68, 58
1, 535624, Note_off_c, 0, 59, 63
1, 535651, Note_off_c, 0, 68, 55
1, 535652, Note_off_c, 0, 74, 63
1, 535676, Note_on_c, 0, 69, 70
1, 535677, Note_on_c, 0, 86, 77
1, 535679, Note_on_c, 0, 81, 58
1, 535716, Note_off_c, 0, 81, 52
1, 535719, Note_off_c, 0, 69, 61
1, 535724, Note_off_c, 0, 86, 62
1, 535730, Note_on_c, 0, 61, 69
1, 535755, Note_on_c, 0, 76, 73
1, 535765, Note_on_c, 0, 68, 23
1, 535767, Control_c, 0, 64, 119
1, 535777, Note_off_c, 0, 61, 60
1, 535782, Control_c, 0, 64, 104
1, 535786, Note_off_c, 0, 76, 68
1, 535804, Control_c, 0, 64, 94
1, 535806, Note_off_c, 0, 68, 55
1, 535813, Note_on_c, 0, 69, 81
1, 535819, Control_c, 0, 64, 85
1, 535825, Note_on_c, 0, 88, 72
1, 535834, Control_c, 0, 64, 77
1, 535849, Control_c, 0, 64, 67
1, 535857, Note_off_c, 0, 88, 59
1, 535864, Control_c, 0, 64, 58
1, 535867, Note_off_c, 0, 69, 59
1, 535879, Control_c, 0, 64, 37
1, 535888, Note_on_c, 0, 57, 63
1, 535891, Note_on_c, 0, 73, 75
1, 535894, Control_c, 0, 64, 0
1, 535897, Note_on_c, 0, 68, 54
1, 535921, Note_off_c, 0, 57, 64
1, 535934, Note_off_c, 0, 68, 48
1, 535934, Note_off_c, 0, 73, 65
1, 535957, Note_on_c, 0, 69, 76
1, 535968, Note_on_c, 0, 85, 64
1, 535974, Note_on_c, 0, 81, 61
1, 535996, Note_off_c, 0, 81, 59
1, 536019, Note_off_c, 0, 69, 62
1, 536032, Note_on_c, 0, 62, 53
1, 536032, Note_on_c, 0, 68, 59
1, 536032, Note_off_c, 0, 85, 59
1, 536040, Note_on_c, 0, 77, 76
1, 536071, Control_c, 0, 64, 38
1, 536073, Note_off_c, 0, 62, 62
1, 536086, Control_c, 0, 64, 85
1, 536092, Note_off_c, 0, 77, 62
1, 536099, Note_on_c, 0, 69, 75
1, 536101, Control_c, 0, 64, 127
1, 536113, Note_on_c, 0, 89, 77
1, 536117, Note_on_c, 0, 81, 44
1, 536155, Note_off_c, 0, 89, 61
1, 536157, Note_off_c, 0, 69, 64
1, 536162, Note_on_c, 0, 61, 69
1, 536177, Note_on_c, 0, 76, 76
1, 536214, Note_off_c, 0, 61, 58
1, 536231, Note_off_c, 0, 76, 65
1, 536234, Note_off_c, 0, 68, 55
1, 536235, Note_on_c, 0, 69, 68
1, 536242, Note_off_c, 0, 81, 0
1, 536254, Note_on_c, 0, 81, 37
1, 536260, Note_on_c, 0, 88, 73
1, 536278, Note_off_c, 0, 69, 62
1, 536297, Note_off_c, 0, 88, 62
1, 536298, Note_off_c, 0, 81, 41
1, 536308, Note_on_c, 0, 67, 57
1, 536317, Note_on_c, 0, 77, 75
1, 536332, Note_on_c, 0, 62, 34
1, 536356, Note_on_c, 0, 69, 57
1, 536359, Note_off_c, 0, 77, 65
1, 536365, Note_off_c, 0, 62, 49
1, 536380, Note_off_c, 0, 69, 60
1, 536384, Note_on_c, 0, 89, 68
1, 536412, Note_off_c, 0, 89, 65
1, 536430, Note_on_c, 0, 60, 56
1, 536457, Note_on_c, 0, 75, 81
1, 536468, Note_off_c, 0, 60, 59
1, 536477, Note_on_c, 0, 68, 71
1, 536490, Note_off_c, 0, 67, 26
1, 536514, Note_off_c, 0, 75, 61
1, 536523, Note_off_c, 0, 68, 63
1, 536527, Note_on_c, 0, 87, 77
1, 536532, Control_c, 0, 64, 95
1, 536553, Control_c, 0, 64, 68
1, 536558, Note_off_c, 0, 87, 67
1, 536568, Control_c, 0, 64, 0
1, 536579, Note_on_c, 0, 59, 52
1, 536589, Note_on_c, 0, 66, 50
1, 536599, Note_on_c, 0, 74, 75
1, 536615, Note_off_c, 0, 66, 56
1, 536624, Note_off_c, 0, 59, 58
1, 536642, Control_c, 0, 64, 39
1, 536643, Note_on_c, 0, 67, 64
1, 536648, Note_off_c, 0, 74, 66
1, 536657, Control_c, 0, 64, 68
1, 536669, Note_on_c, 0, 86, 66
1, 536672, Control_c, 0, 64, 87
1, 536687, Control_c, 0, 64, 127
1, 536697, Note_off_c, 0, 67, 58
1, 536716, Note_off_c, 0, 86, 64
1, 536719, Note_on_c, 0, 66, 61
1, 536731, Note_on_c, 0, 57, 63
1, 536738, Note_on_c, 0, 72, 80
1, 536740, Poly_aftertouch_c, 0, 65, 0
1, 536761, Note_off_c, 0, 57, 65
1, 536766, Poly_aftertouch_c, 0, 79, 0
1, 536781, Note_off_c, 0, 66, 64
1, 536788, Note_off_c, 0, 72, 60
1, 536798, Note_on_c, 0, 67, 74
1, 536813, Note_on_c, 0, 84, 80
1, 536839, Note_on_c, 0, 79, 24
1, 536863, Note_off_c, 0, 67, 57
1, 536866, Note_off_c, 0, 84, 63
1, 536870, Note_on_c, 0, 59, 64
1, 536878, Note_off_c, 0, 79, 38
1, 536883, Note_on_c, 0, 74, 79
1, 536887, Note_on_c, 0, 66, 55
1, 536906, Note_off_c, 0, 59, 61
1, 536911, Note_off_c, 0, 66, 62
1, 536925, Note_off_c, 0, 74, 67
1, 536945, Note_on_c, 0, 67, 75
1, 536949, Note_on_c, 0, 86, 83
1, 536984, Note_off_c, 0, 67, 58
1, 536991, Note_off_c, 0, 86, 65
1, 537009, Note_on_c, 0, 66, 67
1, 537011, Note_on_c, 0, 55, 65
1, 537031, Note_on_c, 0, 71, 81
1, 537036, Note_off_c, 0, 55, 53
1, 537058, Control_c, 0, 64, 100
1, 537068, Note_off_c, 0, 66, 63
1, 537072, Control_c, 0, 64, 74
1, 537074, Note_off_c, 0, 71, 61
1, 537087, Control_c, 0, 64, 0
1, 537091, Note_on_c, 0, 67, 75
1, 537101, Note_on_c, 0, 83, 75
1, 537131, Note_off_c, 0, 83, 62
1, 537146, Note_off_c, 0, 67, 52
1, 537149, Note_on_c, 0, 60, 64
1, 537160, Note_on_c, 0, 66, 55
1, 537177, Note_on_c, 0, 75, 77
1, 537187, Note_off_c, 0, 60, 61
1, 537199, Note_off_c, 0, 66, 63
1, 537220, Control_c, 0, 64, 65
1, 537222, Note_on_c, 0, 67, 74
1, 537227, Note_on_c, 0, 87, 84
1, 537233, Note_off_c, 0, 75, 62
1, 537235, Control_c, 0, 64, 127
1, 537271, Note_off_c, 0, 87, 67
1, 537278, Note_off_c, 0, 67, 58
1, 537310, Note_on_c, 0, 59, 63
1, 537310, Note_on_c, 0, 74, 75
1, 537311, Note_on_c, 0, 66, 65
1, 537340, Note_off_c, 0, 59, 65
1, 537356, Note_off_c, 0, 66, 60
1, 537359, Note_off_c, 0, 74, 66
1, 537362, Note_on_c, 0, 79, 34
1, 537368, Note_on_c, 0, 86, 76
1, 537375, Note_on_c, 0, 67, 70
1, 537400, Note_off_c, 0, 67, 67
1, 537417, Note_off_c, 0, 86, 62
1, 537453, Note_on_c, 0, 75, 74
1, 537456, Note_on_c, 0, 59, 22
1, 537479, Note_on_c, 0, 66, 32
1, 537481, Note_off_c, 0, 79, 26
1, 537491, Note_off_c, 0, 59, 45
1, 537496, Note_on_c, 0, 67, 69
1, 537501, Note_off_c, 0, 75, 64
1, 537506, Note_off_c, 0, 66, 53
1, 537515, Note_on_c, 0, 87, 69
1, 537518, Note_off_c, 0, 67, 64
1, 537542, Note_off_c, 0, 87, 65
1, 537566, Note_on_c, 0, 58, 68
1, 537588, Note_on_c, 0, 73, 78
1, 537605, Note_off_c, 0, 58, 56
1, 537629, Note_on_c, 0, 66, 62
1, 537654, Note_off_c, 0, 73, 63
1, 537658, Note_on_c, 0, 85, 64
1, 537662, Note_off_c, 0, 66, 67
1, 537673, Control_c, 0, 64, 93
1, 537684, Note_off_c, 0, 85, 68
1, 537688, Control_c, 0, 64, 67
1, 537703, Control_c, 0, 64, 0
1, 537725, Note_on_c, 0, 72, 67
1, 537727, Note_on_c, 0, 57, 61
1, 537777, Control_c, 0, 64, 62
1, 537780, Note_off_c, 0, 72, 64
1, 537787, Note_on_c, 0, 77, 64
1, 537790, Note_on_c, 0, 84, 73
1, 537792, Control_c, 0, 64, 84
1, 537793, Note_off_c, 0, 57, 60
1, 537800, Note_on_c, 0, 65, 74
1, 537807, Control_c, 0, 64, 127
1, 537813, Note_on_c, 0, 64, 21
1, 537819, Note_off_c, 0, 84, 64
1, 537828, Note_off_c, 0, 77, 55
1, 537863, Note_off_c, 0, 65, 65
1, 537868, Note_on_c, 0, 60, 68
1, 537870, Note_on_c, 0, 75, 82
1, 537911, Note_off_c, 0, 60, 58
1, 537926, Note_off_c, 0, 75, 57
1, 537932, Note_on_c, 0, 77, 62
1, 537933, Note_on_c, 0, 87, 83
1, 537945, Note_on_c, 0, 65, 73
1, 537982, Note_off_c, 0, 87, 63
1, 537996, Note_off_c, 0, 65, 63
1, 537999, Note_on_c, 0, 58, 69
1, 538007, Note_on_c, 0, 73, 87
1, 538047, Note_off_c, 0, 58, 61
1, 538079, Note_on_c, 0, 65, 67
1, 538081, Note_off_c, 0, 73, 62
1, 538082, Note_on_c, 0, 85, 81
1, 538082, Note_off_c, 0, 77, 0
1, 538118, Poly_aftertouch_c, 0, 77, 127
1, 538123, Note_off_c, 0, 85, 66
1, 538124, Note_off_c, 0, 65, 52
1, 538138, Note_on_c, 0, 56, 73
1, 538152, Note_on_c, 0, 72, 78
1, 538183, Poly_aftertouch_c, 0, 77, 0
1, 538189, Note_off_c, 0, 56, 59
1, 538198, Note_on_c, 0, 77, 34
1, 538198, Note_off_c, 0, 72, 62
1, 538210, Note_on_c, 0, 65, 73
1, 538211, Note_on_c, 0, 84, 76
1, 538230, Control_c, 0, 64, 124
1, 538244, Control_c, 0, 64, 75
1, 538248, Note_off_c, 0, 84, 53
1, 538259, Note_off_c, 0, 65, 62
1, 538259, Control_c, 0, 64, 0
1, 538282, Note_on_c, 0, 54, 71
1, 538288, Note_on_c, 0, 70, 81
1, 538340, Note_off_c, 0, 54, 60
1, 538340, Note_off_c, 0, 77, 0
1, 538346, Note_on_c, 0, 65, 74
1, 538347, Note_off_c, 0, 70, 63
1, 538361, Note_on_c, 0, 82, 74
1, 538364, Note_on_c, 0, 77, 7
1, 538372, Note_off_c, 0, 64, 40
1, 538422, Note_off_c, 0, 77, 40
1, 538425, Note_off_c, 0, 65, 62
1, 538431, Note_on_c, 0, 58, 69
1, 538432, Note_on_c, 0, 73, 91
1, 538433, Note_on_c, 0, 64, 54
1, 538439, Note_off_c, 0, 82, 58
1, 538451, Control_c, 0, 64, 34
1, 538466, Control_c, 0, 64, 95
1, 538481, Control_c, 0, 64, 127
1, 538496, Note_off_c, 0, 58, 63
1, 538496, Note_on_c, 0, 65, 72
1, 538507, Note_on_c, 0, 85, 78
1, 538518, Note_off_c, 0, 73, 61
1, 538542, Poly_aftertouch_c, 0, 77, 127
1, 538552, Note_off_c, 0, 85, 66
1, 538560, Note_off_c, 0, 65, 62
1, 538578, Note_on_c, 0, 72, 76
1, 538601, Note_on_c, 0, 56, 35
1, 538633, Note_off_c, 0, 72, 64
1, 538633, Note_off_c, 0, 56, 53
1, 538642, Note_on_c, 0, 84, 77
1, 538644, Note_on_c, 0, 65, 77
1, 538684, Note_off_c, 0, 65, 63
1, 538687, Note_off_c, 0, 84, 62
1, 538691, Note_off_c, 0, 64, 45
1, 538712, Note_on_c, 0, 54, 76
1, 538725, Note_on_c, 0, 70, 83
1, 538765, Note_off_c, 0, 54, 62
1, 538781, Note_off_c, 0, 70, 62
1, 538783, Note_on_c, 0, 65, 76
1, 538784, Note_on_c, 0, 82, 71
1, 538817, Note_off_c, 0, 82, 62
1, 538818, Poly_aftertouch_c, 0, 77, 0
1, 538845, Note_off_c, 0, 65, 64
1, 538874, Note_on_c, 0, 53, 81
1, 538879, Note_on_c, 0, 69, 83
1, 538940, Note_on_c, 0, 65, 93
1, 538946, Note_on_c, 0, 81, 75
1, 538949, Note_off_c, 0, 69, 63
1, 538957, Note_on_c, 0, 77, 44
1, 538969, Note_off_c, 0, 53, 60
1, 538978, Note_off_c, 0, 65, 60
1, 538987, Note_off_c, 0, 77, 48
1, 538990, Note_off_c, 0, 81, 58
1, 539023, Control_c, 0, 64, 100
1, 539038, Control_c, 0, 64, 67
1, 539053, Control_c, 0, 64, 0
1, 539062, Note_on_c, 0, 41, 99
1, 539066, Note_on_c, 0, 81, 97
1, 539112, Control_c, 0, 64, 62
1, 539127, Control_c, 0, 64, 87
1, 539138, Note_off_c, 0, 41, 63
1, 539141, Control_c, 0, 64, 127
1, 539147, Note_on_c, 0, 93, 92
1, 539148, Note_on_c, 0, 53, 89
1, 539163, Note_on_c, 0, 87, 80
1, 539165, Note_off_c, 0, 81, 62
1, 539167, Poly_aftertouch_c, 0, 42, 0
1, 539174, Poly_aftertouch_c, 0, 44, 0
1, 539204, Note_off_c, 0, 53, 62
1, 539219, Note_off_c, 0, 93, 60
1, 539241, Note_on_c, 0, 40, 92
1, 539254, Note_on_c, 0, 80, 99
1, 539275, Note_on_c, 0, 42, 35
1, 539286, Note_off_c, 0, 87, 57
1, 539289, Note_on_c, 0, 88, 68
1, 539291, Note_off_c, 0, 40, 65
1, 539310, Note_on_c, 0, 92, 93
1, 539310, Note_off_c, 0, 42, 50
1, 539313, Note_on_c, 0, 52, 79
1, 539314, Note_off_c, 0, 52, 127
1, 539334, Note_off_c, 0, 80, 65
1, 539344, Note_off_c, 0, 88, 62
1, 539362, Note_off_c, 0, 92, 67
1, 539408, Control_c, 0, 64, 84
1, 539409, Note_on_c, 0, 56, 86
1, 539414, Note_on_c, 0, 74, 84
1, 539423, Control_c, 0, 64, 50
1, 539438, Control_c, 0, 64, 0
1, 539466, Note_off_c, 0, 74, 64
1, 539467, Note_on_c, 0, 86, 85
1, 539468, Note_on_c, 0, 65, 76
1, 539481, Note_off_c, 0, 56, 59
1, 539482, Control_c, 0, 64, 67
1, 539497, Control_c, 0, 64, 104
1, 539511, Control_c, 0, 64, 127
1, 539514, Note_off_c, 0, 86, 63
1, 539551, Note_off_c, 0, 65, 47
1, 539557, Note_on_c, 0, 57, 76
1, 539557, Note_on_c, 0, 73, 89
1, 539603, Note_on_c, 0, 81, 64
1, 539615, Note_on_c, 0, 85, 91
1, 539616, Note_off_c, 0, 57, 65
1, 539623, Note_off_c, 0, 73, 63
1, 539633, Note_off_c, 0, 81, 64
1, 539668, Note_off_c, 0, 85, 66
1, 539712, Control_c, 0, 64, 77
1, 539725, Note_on_c, 0, 79, 91
1, 539727, Note_on_c, 0, 49, 90
1, 539727, Control_c, 0, 64, 27
1, 539742, Note_on_c, 0, 37, 51
1, 539742, Control_c, 0, 64, 0
1, 539770, Note_off_c, 0, 37, 55
1, 539772, Control_c, 0, 64, 37
1, 539781, Note_on_c, 0, 91, 90
1, 539784, Note_off_c, 0, 49, 62
1, 539787, Control_c, 0, 64, 74
1, 539787, Note_off_c, 0, 79, 63
1, 539802, Control_c, 0, 64, 127
1, 539834, Note_on_c, 0, 38, 77
1, 539844, Note_off_c, 0, 91, 60
1, 539863, Note_on_c, 0, 78, 97
1, 539897, Note_off_c, 0, 38, 63
1, 539909, Note_on_c, 0, 50, 81
1, 539911, Note_on_c, 0, 86, 50
1, 539923, Note_on_c, 0, 90, 101
1, 539934, Note_off_c, 0, 50, 68
1, 539948, Note_off_c, 0, 78, 63
1, 539960, Note_off_c, 0, 86, 63
1, 539972, Note_off_c, 0, 90, 67
1, 540025, Note_on_c, 0, 54, 88
1, 540031, Note_on_c, 0, 72, 90
1, 540038, Control_c, 0, 64, 95
1, 540053, Control_c, 0, 64, 61
1, 540068, Control_c, 0, 64, 0
1, 540097, Control_c, 0, 64, 39
1, 540103, Note_on_c, 0, 63, 74
1, 540106, Note_on_c, 0, 84, 85
1, 540112, Control_c, 0, 64, 72
1, 540118, Note_off_c, 0, 72, 66
1, 540121, Note_on_c, 0, 81, 75
1, 540124, Note_off_c, 0, 54, 59
1, 540127, Control_c, 0, 64, 127
1, 540147, Note_off_c, 0, 81, 63
1, 540153, Note_off_c, 0, 63, 62
1, 540165, Note_off_c, 0, 84, 64
1, 540192, Note_on_c, 0, 55, 63
1, 540201, Note_on_c, 0, 71, 87
1, 540247, Note_on_c, 0, 62, 84
1, 540270, Note_off_c, 0, 62, 69
1, 540279, Note_on_c, 0, 83, 85
1, 540281, Note_on_c, 0, 79, 76
1, 540282, Note_off_c, 0, 55, 62
1, 540300, Note_off_c, 0, 71, 60
1, 540310, Note_off_c, 0, 79, 69
1, 540340, Note_off_c, 0, 83, 65
1, 540391, Note_on_c, 0, 35, 90
1, 540402, Note_on_c, 0, 77, 94
1, 540490, Note_on_c, 0, 47, 86
1, 540496, Note_off_c, 0, 35, 60
1, 540505, Note_on_c, 0, 89, 91
1, 540506, Control_c, 0, 64, 101
1, 540515, Note_on_c, 0, 86, 75
1, 540520, Note_off_c, 0, 77, 63
1, 540520, Control_c, 0, 64, 61
1, 540535, Control_c, 0, 64, 0
1, 540544, Note_off_c, 0, 86, 63
1, 540558, Note_off_c, 0, 47, 61
1, 540575, Note_off_c, 0, 89, 66
1, 540580, Control_c, 0, 64, 55
1, 540581, Note_on_c, 0, 36, 90
1, 540595, Control_c, 0, 64, 79
1, 540602, Note_on_c, 0, 76, 90
1, 540610, Control_c, 0, 64, 127
1, 540655, Note_on_c, 0, 48, 83
1, 540666, Note_off_c, 0, 36, 61
1, 540679, Note_on_c, 0, 88, 94
1, 540693, Note_off_c, 0, 76, 61
1, 540708, Note_off_c, 0, 48, 64
1, 540729, Note_off_c, 0, 88, 63
1, 540741, Note_on_c, 0, 38, 83
1, 540756, Note_on_c, 0, 74, 82
1, 540803, Note_off_c, 0, 74, 68
1, 540809, Note_on_c, 0, 50, 83
1, 540814, Note_off_c, 0, 38, 62
1, 540827, Note_on_c, 0, 86, 79
1, 540864, Note_off_c, 0, 86, 62
1, 540869, Note_off_c, 0, 50, 58
1, 540891, Control_c, 0, 64, 108
1, 540897, Note_on_c, 0, 73, 90
1, 540906, Control_c, 0, 64, 69
1, 540915, Note_on_c, 0, 40, 87
1, 540920, Control_c, 0, 64, 0
1, 540958, Note_on_c, 0, 85, 79
1, 540961, Note_on_c, 0, 81, 45
1, 540964, Note_on_c, 0, 52, 79
1, 540964, Control_c, 0, 64, 43
1, 540966, Note_off_c, 0, 40, 62
1, 540979, Control_c, 0, 64, 73
1, 540984, Note_off_c, 0, 73, 64
1, 540990, Note_off_c, 0, 52, 70
1, 540994, Control_c, 0, 64, 127
1, 541025, Note_off_c, 0, 85, 65
1, 541065, Note_on_c, 0, 57, 74
1, 541066, Note_on_c, 0, 72, 83
1, 541079, Note_on_c, 0, 55, 60
1, 541096, Note_off_c, 0, 81, 0
1, 541105, Note_off_c, 0, 55, 52
1, 541107, Note_on_c, 0, 81, 44
1, 541125, Note_off_c, 0, 72, 62
1, 541137, Note_on_c, 0, 60, 82
1, 541139, Note_on_c, 0, 84, 81
1, 541142, Note_off_c, 0, 57, 63
1, 541165, Note_off_c, 0, 81, 61
1, 541187, Note_off_c, 0, 84, 65
1, 541219, Note_on_c, 0, 71, 73
1, 541221, Note_on_c, 0, 64, 81
1, 541223, Note_off_c, 0, 60, 45
1, 541276, Note_off_c, 0, 71, 60
1, 541277, Note_off_c, 0, 64, 64
1, 541278, Note_on_c, 0, 80, 65
1, 541280, Note_on_c, 0, 83, 78
1, 541288, Note_on_c, 0, 52, 81
1, 541304, Note_off_c, 0, 80, 64
1, 541319, Note_off_c, 0, 83, 65
1, 541349, Note_off_c, 0, 52, 64
1, 541367, Note_on_c, 0, 62, 82
1, 541371, Note_on_c, 0, 68, 93
1, 541429, Note_on_c, 0, 52, 82
1, 541432, Note_off_c, 0, 62, 60
1, 541441, Note_off_c, 0, 68, 59
1, 541443, Note_on_c, 0, 80, 82
1, 541449, Note_on_c, 0, 76, 16
1, 541490, Note_off_c, 0, 80, 63
1, 541493, Note_off_c, 0, 52, 61
1, 541505, Note_on_c, 0, 61, 89
1, 541515, Note_on_c, 0, 69, 87
1, 541520, Note_off_c, 0, 76, 0
1, 541520, Note_on_c, 0, 76, 25
1, 541570, Note_on_c, 0, 52, 76
1, 541572, Note_off_c, 0, 61, 65
1, 541574, Note_off_c, 0, 69, 65
1, 541577, Note_on_c, 0, 81, 91
1, 541596, Note_off_c, 0, 52, 70
1, 541596, Note_off_c, 0, 76, 66
1, 541599, Note_on_c, 0, 53, 36
1, 541614, Note_off_c, 0, 81, 65
1, 541623, Control_c, 0, 64, 97
1, 541629, Note_off_c, 0, 53, 59
1, 541638, Control_c, 0, 64, 65
1, 541653, Control_c, 0, 64, 0
1, 541685, Note_on_c, 0, 82, 100
1, 541695, Note_on_c, 0, 37, 69
1, 541698, Control_c, 0, 64, 62
1, 541710, Note_on_c, 0, 49, 82
1, 541712, Control_c, 0, 64, 90
1, 541727, Note_off_c, 0, 37, 64
1, 541727, Control_c, 0, 64, 127
1, 541740, Note_on_c, 0, 90, 30
1, 541753, Note_off_c, 0, 82, 61
1, 541754, Note_on_c, 0, 94, 86
1, 541769, Note_off_c, 0, 90, 54
1, 541769, Note_off_c, 0, 49, 63
1, 541790, Note_on_c, 0, 92, 51
1, 541812, Note_on_c, 0, 38, 82
1, 541814, Note_off_c, 0, 94, 67
1, 541815, Note_off_c, 0, 92, 37
1, 541838, Note_on_c, 0, 81, 87
1, 541870, Note_off_c, 0, 38, 63
1, 541876, Note_on_c, 0, 50, 75
1, 541884, Note_on_c, 0, 93, 93
1, 541886, Note_on_c, 0, 90, 76
1, 541900, Note_off_c, 0, 81, 65
1, 541903, Note_off_c, 0, 50, 63
1, 541927, Note_off_c, 0, 90, 64
1, 541929, Note_off_c, 0, 93, 63
1, 541968, Poly_aftertouch_c, 0, 48, 0
1, 542001, Note_on_c, 0, 66, 88
1, 542001, Control_c, 0, 64, 76
1, 542014, Note_on_c, 0, 75, 91
1, 542016, Control_c, 0, 64, 37
1, 542031, Control_c, 0, 64, 0
1, 542046, Control_c, 0, 64, 48
1, 542058, Note_on_c, 0, 87, 84
1, 542061, Control_c, 0, 64, 72
1, 542076, Control_c, 0, 64, 127
1, 542084, Note_off_c, 0, 75, 62
1, 542105, Note_on_c, 0, 72, 76
1, 542109, Note_off_c, 0, 66, 63
1, 542117, Note_on_c, 0, 68, 50
1, 542118, Note_off_c, 0, 87, 65
1, 542147, Note_off_c, 0, 68, 64
1, 542147, Note_off_c, 0, 72, 67
1, 542152, Note_on_c, 0, 74, 81
1, 542163, Note_on_c, 0, 67, 69
1, 542193, Note_on_c, 0, 71, 86
1, 542203, Note_on_c, 0, 83, 76
1, 542213, Note_off_c, 0, 74, 60
1, 542215, Note_off_c, 0, 71, 67
1, 542216, Note_on_c, 0, 86, 91
1, 542218, Note_off_c, 0, 67, 64
1, 542246, Note_off_c, 0, 83, 63
1, 542271, Note_off_c, 0, 86, 63
1, 542343, Control_c, 0, 64, 86
1, 542348, Note_on_c, 0, 35, 91
1, 542351, Note_on_c, 0, 80, 107
1, 542358, Control_c, 0, 64, 58
1, 542373, Control_c, 0, 64, 0
1, 542403, Control_c, 0, 64, 56
1, 542417, Control_c, 0, 64, 84
1, 542432, Control_c, 0, 64, 127
1, 542437, Note_on_c, 0, 92, 90
1, 542453, Note_on_c, 0, 47, 90
1, 542457, Note_off_c, 0, 80, 65
1, 542458, Note_off_c, 0, 35, 60
1, 542462, Note_on_c, 0, 89, 15
1, 542503, Note_off_c, 0, 89, 41
1, 542508, Note_off_c, 0, 47, 62
1, 542511, Note_off_c, 0, 92, 67
1, 542543, Note_on_c, 0, 35, 90
1, 542543, Note_on_c, 0, 79, 95
1, 542562, Note_on_c, 0, 88, 60
1, 542581, Note_off_c, 0, 35, 65
1, 542602, Note_on_c, 0, 48, 77
1, 542603, Note_on_c, 0, 91, 97
1, 542610, Note_off_c, 0, 79, 63
1, 542625, Note_off_c, 0, 48, 68
1, 542638, Note_off_c, 0, 88, 63
1, 542651, Note_off_c, 0, 91, 65
1, 542720, Note_on_c, 0, 73, 97
1, 542721, Control_c, 0, 64, 75
1, 542729, Note_on_c, 0, 64, 67
1, 542735, Control_c, 0, 64, 22
1, 542750, Control_c, 0, 64, 0
1, 542765, Control_c, 0, 64, 12
1, 542780, Control_c, 0, 64, 62
1, 542791, Note_on_c, 0, 85, 73
1, 542795, Control_c, 0, 64, 99
1, 542806, Note_on_c, 0, 70, 77
1, 542808, Note_on_c, 0, 87, 66
1, 542809, Note_off_c, 0, 73, 63
1, 542810, Control_c, 0, 64, 127
1, 542825, Note_off_c, 0, 87, 66
1, 542839, Note_off_c, 0, 85, 66
1, 542844, Note_off_c, 0, 64, 61
1, 542861, Note_off_c, 0, 70, 67
1, 542870, Note_on_c, 0, 65, 68
1, 542883, Note_on_c, 0, 72, 77
1, 542896, Note_on_c, 0, 74, 68
1, 542920, Note_on_c, 0, 69, 88
1, 542925, Note_on_c, 0, 82, 71
1, 542934, Note_off_c, 0, 74, 46
1, 542941, Note_off_c, 0, 72, 55
1, 542944, Note_on_c, 0, 84, 90
1, 542944, Note_off_c, 0, 69, 71
1, 542950, Note_off_c, 0, 65, 66
1, 542978, Note_off_c, 0, 82, 64
1, 542998, Note_off_c, 0, 84, 65
1, 543063, Control_c, 0, 64, 99
1, 543076, Note_on_c, 0, 33, 90
1, 543078, Control_c, 0, 64, 66
1, 543081, Note_on_c, 0, 78, 96
1, 543093, Control_c, 0, 64, 0
1, 543101, Note_on_c, 0, 77, 72
1, 543119, Note_on_c, 0, 76, 54
1, 543130, Note_off_c, 0, 77, 47
1, 543137, Control_c, 0, 64, 62
1, 543140, Note_off_c, 0, 76, 62
1, 543152, Control_c, 0, 64, 93
1, 543167, Control_c, 0, 64, 127
1, 543171, Note_on_c, 0, 90, 89
1, 543174, Note_on_c, 0, 45, 79
1, 543176, Note_on_c, 0, 87, 75
1, 543181, Note_off_c, 0, 33, 57
1, 543187, Note_off_c, 0, 78, 62
1, 543224, Note_off_c, 0, 45, 65
1, 543248, Note_off_c, 0, 90, 64
1, 543253, Note_off_c, 0, 87, 62
1, 543263, Note_on_c, 0, 34, 88
1, 543274, Note_on_c, 0, 77, 87
1, 543337, Note_on_c, 0, 46, 82
1, 543347, Note_off_c, 0, 34, 62
1, 543352, Note_on_c, 0, 86, 65
1, 543358, Note_on_c, 0, 89, 88
1, 543373, Note_off_c, 0, 77, 62
1, 543380, Note_off_c, 0, 46, 64
1, 543384, Note_off_c, 0, 86, 63
1, 543399, Note_off_c, 0, 89, 67
1, 543403, Poly_aftertouch_c, 0, 33, 0
1, 543432, Note_on_c, 0, 38, 84
1, 543450, Note_on_c, 0, 74, 85
1, 543491, Note_on_c, 0, 50, 85
1, 543504, Note_off_c, 0, 38, 63
1, 543512, Note_on_c, 0, 86, 78
1, 543519, Note_on_c, 0, 82, 65
1, 543520, Note_off_c, 0, 74, 67
1, 543536, Note_off_c, 0, 50, 63
1, 543565, Note_off_c, 0, 82, 59
1, 543567, Note_off_c, 0, 86, 64
1, 543574, Control_c, 0, 64, 73
1, 543589, Control_c, 0, 64, 0
1, 543604, Note_on_c, 0, 40, 84
1, 543606, Note_on_c, 0, 73, 94
1, 543633, Control_c, 0, 64, 8
1, 543645, Note_off_c, 0, 40, 63
1, 543648, Control_c, 0, 64, 66
1, 543650, Note_on_c, 0, 52, 73
1, 543664, Control_c, 0, 64, 112
1, 543675, Note_off_c, 0, 52, 69
1, 543677, Note_on_c, 0, 81, 52
1, 543679, Control_c, 0, 64, 127
1, 543686, Note_on_c, 0, 85, 84
1, 543701, Note_off_c, 0, 73, 64
1, 543731, Note_off_c, 0, 81, 56
1, 543743, Note_off_c, 0, 85, 65
1, 543754, Note_on_c, 0, 57, 82
1, 543769, Note_on_c, 0, 72, 85
1, 543830, Note_off_c, 0, 72, 65
1, 543836, Note_on_c, 0, 81, 70
1, 543842, Note_on_c, 0, 60, 81
1, 543852, Note_on_c, 0, 84, 78
1, 543853, Note_off_c, 0, 57, 60
1, 543869, Note_off_c, 0, 81, 58
1, 543889, Note_off_c, 0, 84, 63
1, 543911, Note_on_c, 0, 64, 83
1, 543914, Note_off_c, 0, 60, 61
1, 543925, Note_on_c, 0, 71, 81
1, 543971, Note_off_c, 0, 64, 64
1, 543981, Note_off_c, 0, 71, 60
1, 543989, Note_on_c, 0, 52, 86
1, 543993, Note_on_c, 0, 83, 82
1, 544001, Note_on_c, 0, 80, 63
1, 544020, Note_off_c, 0, 80, 65
1, 544044, Note_off_c, 0, 83, 65
1, 544083, Note_on_c, 0, 62, 86
1, 544088, Note_off_c, 0, 52, 62
1, 544097, Note_on_c, 0, 68, 93
1, 544145, Control_c, 0, 64, 103
1, 544152, Note_off_c, 0, 62, 56
1, 544160, Control_c, 0, 64, 73
1, 544169, Note_on_c, 0, 52, 79
1, 544175, Control_c, 0, 64, 38
1, 544178, Note_on_c, 0, 80, 80
1, 544187, Note_off_c, 0, 68, 38
1, 544190, Control_c, 0, 64, 0
1, 544242, Note_on_c, 0, 57, 74
1, 544242, Note_off_c, 0, 80, 65
1, 544249, Control_c, 0, 64, 27
1, 544258, Note_on_c, 0, 69, 93
1, 544261, Note_on_c, 0, 61, 89
1, 544264, Control_c, 0, 64, 68
1, 544264, Note_off_c, 0, 52, 67
1, 544279, Control_c, 0, 64, 101
1, 544287, Note_off_c, 0, 57, 63
1, 544294, Control_c, 0, 64, 127
1, 544302, Note_off_c, 0, 61, 63
1, 544314, Note_on_c, 0, 76, 60
1, 544322, Note_off_c, 0, 69, 65
1, 544333, Note_on_c, 0, 81, 90
1, 544354, Note_off_c, 0, 76, 64
1, 544372, Note_off_c, 0, 81, 65
1, 544442, Control_c, 0, 64, 81
1, 544452, Note_on_c, 0, 67, 74
1, 544458, Control_c, 0, 64, 49
1, 544458, Note_on_c, 0, 61, 71
1, 544461, Note_on_c, 0, 70, 84
1, 544470, Note_on_c, 0, 82, 97
1, 544473, Control_c, 0, 64, 0
1, 544517, Control_c, 0, 64, 70
1, 544531, Control_c, 0, 64, 127
1, 544551, Note_on_c, 0, 91, 35
1, 544552, Note_off_c, 0, 70, 62
1, 544553, Note_on_c, 0, 94, 87
1, 544563, Note_off_c, 0, 67, 60
1, 544567, Note_off_c, 0, 61, 61
1, 544571, Note_off_c, 0, 82, 64
1, 544589, Note_off_c, 0, 91, 48
1, 544607, Note_off_c, 0, 94, 64
1, 544610, Note_on_c, 0, 93, 64
1, 544630, Note_on_c, 0, 66, 85
1, 544630, Note_off_c, 0, 93, 59
1, 544637, Note_on_c, 0, 69, 85
1, 544642, Note_on_c, 0, 81, 89
1, 544648, Note_on_c, 0, 62, 65
1, 544673, Note_off_c, 0, 66, 66
1, 544677, Note_off_c, 0, 62, 63
1, 544681, Note_off_c, 0, 69, 65
1, 544702, Note_on_c, 0, 93, 84
1, 544706, Note_on_c, 0, 90, 74
1, 544717, Note_off_c, 0, 81, 61
1, 544750, Note_off_c, 0, 90, 62
1, 544766, Note_off_c, 0, 93, 63
1, 544807, Note_on_c, 0, 80, 100
1, 544815, Note_on_c, 0, 65, 67
1, 544825, Note_on_c, 0, 59, 65
1, 544825, Note_on_c, 0, 68, 88
1, 544857, Note_off_c, 0, 59, 59
1, 544876, Note_off_c, 0, 65, 63
1, 544880, Note_on_c, 0, 92, 90
1, 544888, Note_off_c, 0, 68, 61
1, 544897, Note_off_c, 0, 80, 64
1, 544911, Note_on_c, 0, 89, 12
1, 544914, Note_on_c, 0, 90, 49
1, 544938, Note_off_c, 0, 90, 54
1, 544938, Note_off_c, 0, 92, 67
1, 544951, Note_off_c, 0, 89, 39
1, 544960, Note_on_c, 0, 79, 94
1, 544962, Note_on_c, 0, 67, 83
1, 544969, Note_on_c, 0, 59, 61
1, 544975, Note_on_c, 0, 64, 55
1, 544997, Note_off_c, 0, 64, 61
1, 545000, Note_on_c, 0, 88, 46
1, 545004, Note_off_c, 0, 67, 62
1, 545009, Note_off_c, 0, 59, 63
1, 545014, Note_off_c, 0, 79, 65
1, 545023, Note_on_c, 0, 91, 84
1, 545047, Note_off_c, 0, 88, 63
1, 545078, Note_off_c, 0, 91, 63
1, 545106, Note_on_c, 0, 78, 98
1, 545112, Note_on_c, 0, 66, 80
1, 545118, Note_on_c, 0, 63, 67
1, 545126, Note_on_c, 0, 56, 38
1, 545149, Note_off_c, 0, 63, 60
1, 545155, Note_off_c, 0, 66, 48
1, 545155, Note_off_c, 0, 56, 34
1, 545184, Note_on_c, 0, 90, 90
1, 545185, Note_off_c, 0, 78, 56
1, 545188, Note_on_c, 0, 87, 54
1, 545224, Note_off_c, 0, 87, 65
1, 545231, Note_off_c, 0, 90, 66
1, 545247, Note_on_c, 0, 62, 54
1, 545250, Note_on_c, 0, 65, 83
1, 545261, Note_on_c, 0, 77, 87
1, 545263, Note_on_c, 0, 58, 54
1, 545271, Note_off_c, 0, 62, 59
1, 545286, Note_off_c, 0, 65, 63
1, 545287, Note_off_c, 0, 58, 57
1, 545299, Note_on_c, 0, 57, 31
1, 545306, Note_on_c, 0, 86, 59
1, 545313, Poly_aftertouch_c, 0, 89, 0
1, 545319, Note_off_c, 0, 77, 62
1, 545324, Note_on_c, 0, 89, 63
1, 545336, Note_off_c, 0, 57, 46
1, 545355, Note_off_c, 0, 86, 62
1, 545371, Note_off_c, 0, 89, 66
1, 545409, Note_on_c, 0, 62, 87
1, 545411, Note_on_c, 0, 50, 85
1, 545415, Note_on_c, 0, 74, 85
1, 545445, Note_off_c, 0, 50, 58
1, 545453, Note_off_c, 0, 62, 61
1, 545474, Note_off_c, 0, 74, 66
1, 545481, Note_on_c, 0, 82, 63
1, 545487, Note_on_c, 0, 86, 71
1, 545539, Note_off_c, 0, 86, 62
1, 545552, Note_off_c, 0, 82, 63
1, 545564, Note_on_c, 0, 64, 87
1, 545570, Note_on_c, 0, 52, 81
1, 545573, Note_on_c, 0, 73, 94
1, 545585, Note_off_c, 0, 64, 69
1, 545609, Note_off_c, 0, 52, 61
1, 545635, Note_on_c, 0, 81, 40
1, 545650, Note_on_c, 0, 85, 82
1, 545665, Note_off_c, 0, 73, 60
1, 545674, Note_off_c, 0, 81, 60
1, 545717, Control_c, 0, 64, 82
1, 545719, Note_off_c, 0, 85, 63
1, 545732, Control_c, 0, 64, 50
1, 545737, Note_on_c, 0, 52, 88
1, 545740, Note_on_c, 0, 40, 84
1, 545742, Note_on_c, 0, 76, 85
1, 545747, Control_c, 0, 64, 0
1, 545768, Note_off_c, 0, 40, 66
1, 545776, Control_c, 0, 64, 38
1, 545791, Note_off_c, 0, 52, 61
1, 545791, Control_c, 0, 64, 69
1, 545806, Control_c, 0, 64, 105
1, 545813, Note_off_c, 0, 76, 65
1, 545821, Control_c, 0, 64, 127
1, 545825, Note_on_c, 0, 88, 83
1, 545831, Note_on_c, 0, 85, 66
1, 545877, Note_off_c, 0, 88, 63
1, 545890, Note_off_c, 0, 85, 60
1, 545917, Note_on_c, 0, 54, 78
1, 545917, Note_on_c, 0, 75, 88
1, 545926, Note_on_c, 0, 50, 55
1, 545936, Note_on_c, 0, 52, 65
1, 545967, Note_off_c, 0, 52, 62
1, 545972, Note_off_c, 0, 50, 61
1, 545993, Note_on_c, 0, 87, 83
1, 546011, Note_off_c, 0, 75, 63
1, 546023, Note_on_c, 0, 84, 46
1, 546028, Note_off_c, 0, 54, 58
1, 546045, Note_off_c, 0, 84, 58
1, 546062, Note_off_c, 0, 87, 65
1, 546073, Note_on_c, 0, 52, 76
1, 546078, Note_on_c, 0, 56, 87
1, 546085, Note_on_c, 0, 74, 80
1, 546137, Note_off_c, 0, 74, 67
1, 546140, Note_off_c, 0, 52, 62
1, 546143, Note_off_c, 0, 56, 65
1, 546147, Note_on_c, 0, 86, 90
1, 546156, Note_on_c, 0, 83, 50
1, 546176, Note_off_c, 0, 83, 59
1, 546191, Note_off_c, 0, 86, 65
1, 546220, Note_on_c, 0, 57, 70
1, 546223, Note_on_c, 0, 73, 94
1, 546239, Note_on_c, 0, 52, 72
1, 546314, Note_on_c, 0, 85, 84
1, 546327, Note_on_c, 0, 60, 69
1, 546330, Note_off_c, 0, 73, 60
1, 546337, Note_off_c, 0, 57, 58
1, 546342, Note_off_c, 0, 52, 63
1, 546352, Note_off_c, 0, 85, 66
1, 546366, Note_off_c, 0, 60, 59
1, 546397, Note_on_c, 0, 72, 81
1, 546449, Note_off_c, 0, 72, 65
1, 546452, Note_on_c, 0, 84, 76
1, 546454, Note_on_c, 0, 52, 61
1, 546458, Note_on_c, 0, 64, 77
1, 546466, Note_on_c, 0, 81, 26
1, 546479, Note_off_c, 0, 52, 53
1, 546487, Note_off_c, 0, 84, 65
1, 546500, Note_off_c, 0, 81, 45
1, 546516, Note_off_c, 0, 64, 62
1, 546530, Note_on_c, 0, 71, 73
1, 546560, Poly_aftertouch_c, 0, 53, 0
1, 546572, Note_off_c, 0, 71, 61
1, 546591, Note_on_c, 0, 83, 68
1, 546606, Note_off_c, 0, 83, 68
1, 546612, Note_on_c, 0, 81, 35
1, 546632, Note_on_c, 0, 62, 87
1, 546633, Note_on_c, 0, 52, 78
1, 546643, Note_off_c, 0, 81, 49
1, 546662, Note_on_c, 0, 68, 91
1, 546689, Note_on_c, 0, 75, 57
1, 546713, Note_off_c, 0, 75, 66
1, 546716, Note_off_c, 0, 68, 59
1, 546729, Note_off_c, 0, 52, 59
1, 546739, Note_on_c, 0, 80, 75
1, 546783, Note_off_c, 0, 80, 66
1, 546789, Note_on_c, 0, 57, 78
1, 546795, Note_on_c, 0, 61, 63
1, 546796, Note_off_c, 0, 62, 54
1, 546801, Note_on_c, 0, 69, 89
1, 546814, Note_off_c, 0, 61, 64
1, 546825, Note_off_c, 0, 57, 62
1, 546857, Note_on_c, 0, 76, 58
1, 546870, Note_off_c, 0, 69, 65
1, 546875, Note_on_c, 0, 81, 87
1, 546909, Note_off_c, 0, 76, 66
1, 546935, Note_off_c, 0, 81, 62
1, 546941, Control_c, 0, 64, 77
1, 546956, Control_c, 0, 64, 43
1, 546961, Note_on_c, 0, 49, 89
1, 546968, Note_on_c, 0, 37, 79
1, 546971, Note_on_c, 0, 70, 96
1, 546971, Control_c, 0, 64, 0
1, 546986, Control_c, 0, 64, 27
1, 547000, Control_c, 0, 64, 67
1, 547015, Control_c, 0, 64, 101
1, 547017, Note_off_c, 0, 49, 61
1, 547034, Note_off_c, 0, 37, 58
1, 547037, Control_c, 0, 64, 127
1, 547038, Note_on_c, 0, 78, 21
1, 547039, Note_off_c, 0, 78, 127
1, 547057, Note_on_c, 0, 82, 89
1, 547073, Note_on_c, 0, 79, 53
1, 547074, Note_off_c, 0, 70, 63
1, 547094, Note_off_c, 0, 79, 62
1, 547114, Note_off_c, 0, 82, 66
1, 547138, Note_on_c, 0, 69, 84
1, 547141, Note_on_c, 0, 50, 94
1, 547145, Note_on_c, 0, 38, 83
1, 547180, Note_off_c, 0, 50, 57
1, 547193, Note_off_c, 0, 38, 61
1, 547210, Note_on_c, 0, 81, 87
1, 547216, Note_off_c, 0, 69, 66
1, 547224, Note_on_c, 0, 78, 71
1, 547272, Note_off_c, 0, 81, 63
1, 547274, Note_off_c, 0, 78, 60
1, 547298, Note_on_c, 0, 68, 94
1, 547301, Note_on_c, 0, 47, 94
1, 547305, Note_on_c, 0, 35, 86
1, 547340, Note_off_c, 0, 35, 60
1, 547348, Note_off_c, 0, 47, 61
1, 547379, Note_on_c, 0, 80, 90
1, 547393, Note_off_c, 0, 68, 64
1, 547399, Note_on_c, 0, 77, 53
1, 547427, Note_off_c, 0, 80, 66
1, 547437, Note_off_c, 0, 77, 55
1, 547446, Note_on_c, 0, 48, 92
1, 547451, Note_on_c, 0, 36, 89
1, 547456, Note_on_c, 0, 67, 88
1, 547485, Note_off_c, 0, 48, 63
1, 547490, Note_off_c, 0, 36, 60
1, 547504, Note_on_c, 0, 76, 34
1, 547530, Note_off_c, 0, 67, 59
1, 547531, Note_on_c, 0, 79, 88
1, 547555, Note_off_c, 0, 76, 65
1, 547585, Note_off_c, 0, 79, 62
1, 547585, Control_c, 0, 64, 101
1, 547600, Control_c, 0, 64, 66
1, 547607, Note_on_c, 0, 33, 90
1, 547608, Note_on_c, 0, 45, 92
1, 547612, Note_on_c, 0, 66, 96
1, 547615, Control_c, 0, 64, 0
1, 547645, Control_c, 0, 64, 55
1, 547648, Note_off_c, 0, 33, 64
1, 547652, Note_off_c, 0, 45, 63
1, 547660, Control_c, 0, 64, 75
1, 547675, Control_c, 0, 64, 127
1, 547696, Note_on_c, 0, 75, 75
1, 547707, Note_on_c, 0, 78, 86
1, 547713, Note_off_c, 0, 66, 64
1, 547751, Note_off_c, 0, 78, 62
1, 547764, Note_off_c, 0, 75, 49
1, 547782, Note_on_c, 0, 46, 95
1, 547798, Note_on_c, 0, 65, 87
1, 547801, Note_on_c, 0, 34, 54
1, 547802, Note_off_c, 0, 34, 127
1, 547805, Note_on_c, 0, 37, 52
1, 547811, Note_on_c, 0, 47, 58
1, 547826, Note_off_c, 0, 46, 58
1, 547828, Note_on_c, 0, 48, 43
1, 547832, Poly_aftertouch_c, 0, 34, 0
1, 547833, Note_off_c, 0, 47, 62
1, 547835, Note_off_c, 0, 37, 54
1, 547859, Note_on_c, 0, 74, 56
1, 547865, Note_off_c, 0, 48, 47
1, 547868, Note_off_c, 0, 65, 63
1, 547872, Note_on_c, 0, 77, 89
1, 547883, Note_off_c, 0, 74, 64
1, 547897, Note_off_c, 0, 77, 61
1, 547948, Note_on_c, 0, 50, 93
1, 547951, Note_on_c, 0, 62, 88
1, 547952, Note_on_c, 0, 38, 86
1, 547990, Note_off_c, 0, 38, 59
1, 547993, Note_off_c, 0, 50, 59
1, 548011, Note_off_c, 0, 62, 63
1, 548028, Note_on_c, 0, 70, 64
1, 548034, Note_on_c, 0, 74, 76
1, 548070, Note_off_c, 0, 70, 62
1, 548077, Note_off_c, 0, 74, 67
1, 548115, Note_on_c, 0, 52, 98
1, 548118, Note_on_c, 0, 61, 93
1, 548121, Note_on_c, 0, 40, 88
1, 548142, Note_off_c, 0, 52, 63
1, 548164, Note_off_c, 0, 40, 62
1, 548173, Note_on_c, 0, 69, 55
1, 548208, Note_on_c, 0, 73, 85
1, 548214, Note_off_c, 0, 61, 59
1, 548235, Note_off_c, 0, 69, 64
1, 548274, Control_c, 0, 64, 108
1, 548281, Note_off_c, 0, 73, 64
1, 548290, Control_c, 0, 64, 70
1, 548305, Control_c, 0, 64, 0
1, 548306, Note_on_c, 0, 40, 93
1, 548306, Note_on_c, 0, 64, 90
1, 548310, Note_on_c, 0, 28, 88
1, 548335, Control_c, 0, 64, 22
1, 548336, Note_off_c, 0, 28, 64
1, 548349, Control_c, 0, 64, 62
1, 548353, Note_off_c, 0, 40, 61
1, 548364, Control_c, 0, 64, 86
1, 548379, Control_c, 0, 64, 127
1, 548393, Note_on_c, 0, 76, 84
1, 548401, Note_off_c, 0, 64, 57
1, 548404, Note_on_c, 0, 73, 62
1, 548453, Note_off_c, 0, 76, 67
1, 548461, Note_off_c, 0, 73, 61
1, 548493, Note_on_c, 0, 63, 89
1, 548504, Note_on_c, 0, 40, 76
1, 548507, Note_on_c, 0, 42, 81
1, 548557, Note_off_c, 0, 40, 60
1, 548583, Note_on_c, 0, 75, 81
1, 548584, Note_off_c, 0, 42, 61
1, 548595, Note_off_c, 0, 63, 61
1, 548629, Note_on_c, 0, 71, 25
1, 548645, Note_off_c, 0, 75, 62
1, 548652, Note_on_c, 0, 40, 86
1, 548657, Note_on_c, 0, 44, 90
1, 548664, Note_on_c, 0, 62, 84
1, 548665, Note_off_c, 0, 71, 45
1, 548669, Poly_aftertouch_c, 0, 73, 127
1, 548700, Poly_aftertouch_c, 0, 73, 0
1, 548712, Note_off_c, 0, 40, 60
1, 548715, Note_off_c, 0, 62, 64
1, 548724, Note_off_c, 0, 44, 62
1, 548730, Note_on_c, 0, 74, 78
1, 548769, Note_off_c, 0, 74, 67
1, 548810, Note_on_c, 0, 61, 88
1, 548813, Note_on_c, 0, 45, 92
1, 548821, Note_on_c, 0, 40, 66
1, 548828, Note_on_c, 0, 41, 73
1, 548855, Note_off_c, 0, 40, 63
1, 548861, Note_off_c, 0, 41, 62
1, 548876, Note_on_c, 0, 69, 38
1, 548887, Note_on_c, 0, 73, 80
1, 548896, Note_off_c, 0, 61, 61
1, 548914, Note_off_c, 0, 45, 60
1, 548933, Note_off_c, 0, 73, 68
1, 548953, Note_on_c, 0, 48, 91
1, 548953, Note_on_c, 0, 60, 84
1, 548956, Note_on_c, 0, 40, 80
1, 548974, Note_off_c, 0, 69, 0
1, 548996, Note_on_c, 0, 69, 42
1, 548998, Note_off_c, 0, 40, 64
1, 548998, Note_off_c, 0, 48, 64
1, 549010, Note_off_c, 0, 60, 60
1, 549030, Note_on_c, 0, 72, 80
1, 549046, Note_off_c, 0, 69, 64
1, 549067, Note_off_c, 0, 72, 64
1, 549090, Note_on_c, 0, 59, 81
1, 549099, Note_on_c, 0, 52, 93
1, 549104, Note_on_c, 0, 40, 81
1, 549126, Note_off_c, 0, 40, 68
1, 549129, Note_off_c, 0, 52, 65
1, 549146, Note_off_c, 0, 59, 62
1, 549153, Note_on_c, 0, 68, 71
1, 549168, Note_on_c, 0, 71, 58
1, 549176, Note_off_c, 0, 68, 67
1, 549187, Note_off_c, 0, 71, 60
1, 549248, Note_on_c, 0, 64, 87
1, 549258, Note_on_c, 0, 53, 64
1, 549261, Note_on_c, 0, 56, 60
1, 549277, Note_on_c, 0, 58, 68
1, 549288, Note_off_c, 0, 56, 63
1, 549294, Note_on_c, 0, 76, 78
1, 549302, Note_off_c, 0, 64, 64
1, 549306, Note_off_c, 0, 53, 61
1, 549306, Note_off_c, 0, 58, 66
1, 549346, Note_off_c, 0, 76, 67
1, 549373, Control_c, 0, 64, 92
1, 549388, Control_c, 0, 64, 58
1, 549403, Control_c, 0, 64, 0
1, 549403, Note_on_c, 0, 73, 95
1, 549406, Note_on_c, 0, 52, 80
1, 549418, Control_c, 0, 64, 33
1, 549420, Note_on_c, 0, 57, 63
1, 549432, Note_on_c, 0, 59, 68
1, 549433, Control_c, 0, 64, 69
1, 549448, Control_c, 0, 64, 127
1, 549477, Note_on_c, 0, 85, 71
1, 549478, Note_off_c, 0, 73, 63
1, 549490, Note_off_c, 0, 52, 60
1, 549498, Note_off_c, 0, 59, 43
1, 549502, Note_off_c, 0, 85, 67
1, 549546, Note_on_c, 0, 72, 85
1, 549552, Note_on_c, 0, 60, 89
1, 549553, Note_on_c, 0, 52, 80
1, 549582, Note_off_c, 0, 57, 59
1, 549592, Note_on_c, 0, 81, 47
1, 549596, Note_off_c, 0, 52, 63
1, 549599, Note_off_c, 0, 60, 62
1, 549603, Note_off_c, 0, 72, 64
1, 549623, Note_on_c, 0, 84, 75
1, 549644, Note_off_c, 0, 81, 62
1, 549668, Note_off_c, 0, 84, 64
1, 549689, Note_on_c, 0, 71, 83
1, 549694, Note_on_c, 0, 64, 93
1, 549704, Note_on_c, 0, 52, 69
1, 549716, Note_on_c, 0, 53, 61
1, 549722, Note_off_c, 0, 52, 68
1, 549728, Note_off_c, 0, 64, 68
1, 549737, Note_off_c, 0, 53, 61
1, 549743, Note_off_c, 0, 71, 56
1, 549750, Note_on_c, 0, 80, 79
1, 549758, Note_on_c, 0, 83, 69
1, 549774, Note_off_c, 0, 80, 68
1, 549784, Note_off_c, 0, 83, 67
1, 549843, Note_on_c, 0, 70, 86
1, 549844, Note_on_c, 0, 65, 79
1, 549844, Note_on_c, 0, 76, 90
1, 549848, Note_on_c, 0, 68, 70
1, 549867, Note_off_c, 0, 68, 60
1, 549883, Note_off_c, 0, 70, 64
1, 549884, Note_on_c, 0, 88, 78
1, 549892, Note_off_c, 0, 76, 64
1, 549898, Note_off_c, 0, 65, 65
1, 549933, Note_off_c, 0, 88, 65
1, 549988, Note_on_c, 0, 64, 89
1, 549993, Note_on_c, 0, 69, 99
1, 549997, Note_on_c, 0, 85, 94
1, 550059, Note_off_c, 0, 64, 64
1, 550066, Note_on_c, 0, 97, 72
1, 550080, Note_off_c, 0, 85, 63
1, 550131, Note_off_c, 0, 97, 66
1, 550151, Note_on_c, 0, 64, 89
1, 550151, Note_on_c, 0, 72, 95
1, 550155, Note_on_c, 0, 84, 87
1, 550164, Note_off_c, 0, 69, 44
1, 550178, Note_on_c, 0, 93, 56
1, 550184, Note_on_c, 0, 92, 41
1, 550196, Note_off_c, 0, 64, 66
1, 550202, Note_off_c, 0, 72, 65
1, 550225, Note_off_c, 0, 92, 46
1, 550232, Note_off_c, 0, 84, 62
1, 550245, Note_on_c, 0, 96, 77
1, 550271, Note_off_c, 0, 93, 60
1, 550291, Note_off_c, 0, 96, 66
1, 550321, Note_on_c, 0, 76, 99
1, 550330, Note_on_c, 0, 64, 85
1, 550330, Note_on_c, 0, 83, 85
1, 550350, Note_off_c, 0, 64, 71
1, 550357, Note_off_c, 0, 76, 71
1, 550395, Note_off_c, 0, 83, 55
1, 550408, Note_on_c, 0, 95, 81
1, 550417, Note_on_c, 0, 92, 69
1, 550455, Note_off_c, 0, 92, 60
1, 550467, Note_off_c, 0, 95, 62
1, 550503, Note_on_c, 0, 80, 100
1, 550507, Note_on_c, 0, 76, 81
1, 550516, Note_on_c, 0, 88, 100
1, 550546, Note_off_c, 0, 80, 64
1, 550554, Note_off_c, 0, 76, 67
1, 550616, Note_on_c, 0, 100, 105
1, 550619, Note_on_c, 0, 95, 101
1, 550652, Note_off_c, 0, 88, 64
1, 550676, Note_off_c, 0, 95, 63
1, 550691, Note_off_c, 0, 100, 62
1, 550752, Note_on_c, 0, 69, 93
1, 550753, Note_on_c, 0, 76, 95
1, 550753, Note_on_c, 0, 81, 104
1, 550811, Control_c, 0, 64, 105
1, 550825, Control_c, 0, 64, 66
1, 550840, Control_c, 0, 64, 0
1, 550870, Note_off_c, 0, 81, 58
1, 550871, Control_c, 0, 64, 63
1, 550886, Control_c, 0, 64, 95
1, 550892, Note_on_c, 0, 96, 105
1, 550894, Note_on_c, 0, 84, 89
1, 550894, Note_on_c, 0, 88, 96
1, 550900, Note_off_c, 0, 76, 66
1, 550900, Control_c, 0, 64, 127
1, 550923, Note_off_c, 0, 69, 66
1, 551024, Note_off_c, 0, 84, 57
1, 551031, Note_off_c, 0, 96, 59
1, 551033, Note_on_c, 0, 76, 95
1, 551035, Note_on_c, 0, 64, 91
1, 551070, Note_off_c, 0, 88, 53
1, 551076, Note_off_c, 0, 76, 66
1, 551077, Note_off_c, 0, 64, 64
1, 551135, Note_on_c, 0, 95, 99
1, 551137, Note_on_c, 0, 83, 95
1, 551137, Note_on_c, 0, 88, 81
1, 551220, Note_off_c, 0, 83, 55
1, 551228, Note_on_c, 0, 72, 96
1, 551228, Note_off_c, 0, 95, 63
1, 551233, Note_on_c, 0, 60, 92
1, 551248, Note_off_c, 0, 88, 59
1, 551277, Note_off_c, 0, 72, 60
1, 551290, Note_off_c, 0, 60, 56
1, 551316, Note_on_c, 0, 88, 73
1, 551316, Note_on_c, 0, 93, 96
1, 551317, Note_on_c, 0, 81, 94
1, 551362, Note_off_c, 0, 88, 62
1, 551372, Note_off_c, 0, 81, 58
1, 551375, Note_off_c, 0, 93, 63
1, 551390, Note_on_c, 0, 71, 89
1, 551392, Note_on_c, 0, 64, 76
1, 551397, Note_on_c, 0, 59, 77
1, 551453, Note_off_c, 0, 71, 54
1, 551454, Note_off_c, 0, 59, 62
1, 551473, Note_on_c, 0, 76, 98
1, 551479, Note_on_c, 0, 88, 88
1, 551485, Note_on_c, 0, 86, 88
1, 551489, Note_off_c, 0, 64, 60
1, 551523, Note_off_c, 0, 76, 65
1, 551526, Note_off_c, 0, 88, 60
1, 551532, Note_off_c, 0, 86, 54
1, 551552, Note_on_c, 0, 69, 94
1, 551554, Note_on_c, 0, 64, 61
1, 551558, Note_on_c, 0, 57, 80
1, 551582, Note_off_c, 0, 64, 69
1, 551588, Note_off_c, 0, 69, 62
1, 551606, Note_off_c, 0, 57, 64
1, 551618, Note_on_c, 0, 76, 80
1, 551620, Note_on_c, 0, 72, 95
1, 551621, Note_on_c, 0, 84, 93
1, 551690, Note_off_c, 0, 72, 56
1, 551692, Note_off_c, 0, 84, 62
1, 551698, Note_on_c, 0, 64, 97
1, 551710, Note_on_c, 0, 52, 77
1, 551712, Note_on_c, 0, 50, 80
1, 551713, Note_off_c, 0, 76, 62
1, 551737, Note_off_c, 0, 50, 66
1, 551737, Note_off_c, 0, 52, 66
1, 551738, Note_off_c, 0, 64, 65
1, 551776, Note_on_c, 0, 83, 83
1, 551777, Note_on_c, 0, 71, 89
1, 551777, Note_on_c, 0, 76, 72
1, 551828, Note_off_c, 0, 71, 58
1, 551839, Note_off_c, 0, 83, 59
1, 551845, Note_on_c, 0, 60, 95
1, 551850, Note_off_c, 0, 76, 62
1, 551851, Note_on_c, 0, 48, 89
1, 551886, Note_off_c, 0, 60, 63
1, 551898, Note_off_c, 0, 48, 60
1, 551919, Note_on_c, 0, 69, 93
1, 551921, Note_on_c, 0, 81, 92
1, 551926, Note_on_c, 0, 76, 77
1, 551951, Note_off_c, 0, 76, 71
1, 551967, Note_off_c, 0, 81, 61
1, 551967, Note_off_c, 0, 69, 59
1, 551977, Note_on_c, 0, 59, 95
1, 551984, Note_on_c, 0, 47, 86
1, 551985, Note_on_c, 0, 52, 85
1, 552032, Note_off_c, 0, 47, 57
1, 552032, Note_off_c, 0, 59, 60
1, 552059, Note_on_c, 0, 64, 100
1, 552060, Note_on_c, 0, 76, 95
1, 552070, Note_off_c, 0, 52, 59
1, 552101, Note_off_c, 0, 64, 65
1, 552107, Note_off_c, 0, 76, 63
1, 552109, Note_on_c, 0, 57, 93
1, 552110, Note_on_c, 0, 52, 66
1, 552115, Note_on_c, 0, 45, 90
1, 552146, Note_off_c, 0, 57, 66
1, 552152, Note_off_c, 0, 52, 66
1, 552164, Note_off_c, 0, 45, 64
1, 552190, Note_on_c, 0, 72, 95
1, 552190, Note_on_c, 0, 64, 85
1, 552191, Note_on_c, 0, 60, 97
1, 552256, Note_off_c, 0, 60, 58
1, 552259, Note_on_c, 0, 52, 98
1, 552272, Note_off_c, 0, 72, 62
1, 552273, Note_on_c, 0, 38, 84
1, 552279, Note_on_c, 0, 50, 77
1, 552280, Note_on_c, 0, 40, 83
1, 552288, Note_off_c, 0, 64, 61
1, 552297, Note_off_c, 0, 50, 63
1, 552305, Note_off_c, 0, 38, 66
1, 552307, Note_off_c, 0, 40, 65
1, 552307, Note_off_c, 0, 52, 68
1, 552347, Note_on_c, 0, 71, 87
1, 552348, Note_on_c, 0, 64, 71
1, 552350, Note_on_c, 0, 59, 87
1, 552407, Note_off_c, 0, 59, 57
1, 552414, Note_off_c, 0, 71, 60
1, 552423, Note_on_c, 0, 48, 99
1, 552426, Note_off_c, 0, 64, 63
1, 552428, Note_on_c, 0, 36, 94
1, 552465, Note_off_c, 0, 48, 63
1, 552471, Note_off_c, 0, 36, 59
1, 552498, Note_on_c, 0, 69, 90
1, 552500, Note_on_c, 0, 57, 80
1, 552507, Note_on_c, 0, 64, 73
1, 552529, Note_off_c, 0, 64, 71
1, 552541, Note_off_c, 0, 69, 66
1, 552549, Note_off_c, 0, 57, 60
1, 552563, Note_on_c, 0, 47, 103
1, 552570, Note_on_c, 0, 35, 87
1, 552573, Note_on_c, 0, 40, 83
1, 552628, Note_off_c, 0, 35, 60
1, 552642, Note_off_c, 0, 47, 56
1, 552648, Note_on_c, 0, 52, 94
1, 552648, Note_on_c, 0, 64, 96
1, 552677, Note_off_c, 0, 40, 60
1, 552688, Note_off_c, 0, 52, 63
1, 552691, Note_off_c, 0, 64, 63
1, 552731, Note_on_c, 0, 40, 76
1, 552731, Note_on_c, 0, 45, 98
1, 552733, Note_on_c, 0, 33, 88
1, 552754, Control_c, 0, 64, 107
1, 552769, Control_c, 0, 64, 68
1, 552784, Control_c, 0, 64, 0
1, 552804, Note_off_c, 0, 33, 65
1, 552810, Note_on_c, 0, 48, 79
1, 552810, Note_off_c, 0, 45, 62
1, 552813, Note_on_c, 0, 57, 60
1, 552813, Control_c, 0, 64, 59
1, 552816, Note_on_c, 0, 60, 76
1, 552828, Control_c, 0, 64, 85
1, 552832, Note_on_c, 0, 62, 47
1, 552832, Note_off_c, 0, 40, 63
1, 552843, Control_c, 0, 64, 127
1, 552862, Note_off_c, 0, 62, 35
1, 552867, Note_off_c, 0, 48, 63
1, 552884, Note_off_c, 0, 57, 61
1, 552894, Note_off_c, 0, 60, 61
1, 552900, Note_on_c, 0, 47, 95
1, 552906, Note_on_c, 0, 40, 71
1, 552908, Note_on_c, 0, 35, 74
1, 552967, Note_off_c, 0, 47, 58
1, 552983, Note_off_c, 0, 35, 60
1, 552996, Note_on_c, 0, 64, 91
1, 552999, Note_on_c, 0, 52, 87
1, 553005, Note_on_c, 0, 56, 70
1, 553007, Note_off_c, 0, 40, 57
1, 553046, Note_off_c, 0, 56, 61
1, 553048, Note_off_c, 0, 64, 63
1, 553049, Note_off_c, 0, 52, 61
1, 553078, Note_on_c, 0, 45, 91
1, 553082, Note_on_c, 0, 33, 84
1, 553085, Note_on_c, 0, 40, 67
1, 553144, Note_off_c, 0, 33, 61
1, 553144, Note_on_c, 0, 48, 86
1, 553147, Note_on_c, 0, 60, 84
1, 553147, Note_off_c, 0, 45, 62
1, 553150, Note_on_c, 0, 57, 67
1, 553168, Note_off_c, 0, 40, 60
1, 553187, Note_off_c, 0, 48, 62
1, 553189, Note_on_c, 0, 58, 31
1, 553201, Note_off_c, 0, 57, 59
1, 553204, Note_off_c, 0, 60, 60
1, 553219, Note_on_c, 0, 47, 100
1, 553221, Note_off_c, 0, 58, 55
1, 553224, Note_on_c, 0, 40, 78
1, 553225, Note_on_c, 0, 35, 80
1, 553285, Note_off_c, 0, 47, 63
1, 553287, Note_off_c, 0, 35, 61
1, 553295, Note_on_c, 0, 64, 97
1, 553296, Note_on_c, 0, 52, 92
1, 553302, Note_on_c, 0, 56, 78
1, 553319, Note_off_c, 0, 40, 61
1, 553340, Note_off_c, 0, 64, 62
1, 553341, Note_off_c, 0, 52, 63
1, 553344, Note_off_c, 0, 56, 59
1, 553374, Note_on_c, 0, 45, 96
1, 553377, Note_on_c, 0, 33, 92
1, 553385, Note_on_c, 0, 40, 78
1, 553440, Note_on_c, 0, 48, 83
1, 553441, Note_on_c, 0, 57, 65
1, 553442, Note_on_c, 0, 60, 82
1, 553442, Note_off_c, 0, 33, 61
1, 553443, Note_off_c, 0, 45, 58
1, 553472, Note_off_c, 0, 40, 60
1, 553481, Note_on_c, 0, 58, 25
1, 553493, Note_off_c, 0, 48, 61
1, 553508, Note_off_c, 0, 57, 62
1, 553511, Note_off_c, 0, 58, 59
1, 553518, Note_off_c, 0, 60, 61
1, 553529, Note_on_c, 0, 47, 96
1, 553534, Note_on_c, 0, 35, 80
1, 553538, Note_on_c, 0, 40, 73
1, 553594, Note_off_c, 0, 47, 56
1, 553611, Note_on_c, 0, 64, 89
1, 553612, Note_on_c, 0, 52, 94
1, 553612, Note_off_c, 0, 35, 61
1, 553627, Note_on_c, 0, 56, 64
1, 553651, Note_off_c, 0, 56, 64
1, 553652, Note_off_c, 0, 64, 62
1, 553655, Note_off_c, 0, 52, 64
1, 553667, Note_off_c, 0, 40, 0
1, 553698, Note_on_c, 0, 40, 35
1, 553705, Note_on_c, 0, 45, 98
1, 553711, Note_on_c, 0, 33, 92
1, 553746, Note_off_c, 0, 45, 67
1, 553754, Note_off_c, 0, 40, 64
1, 553776, Note_off_c, 0, 33, 64
1, 553817, Note_on_c, 0, 48, 92
1, 553817, Note_on_c, 0, 60, 88
1, 553819, Note_on_c, 0, 57, 82
1, 553857, Note_off_c, 0, 48, 63
1, 553872, Note_off_c, 0, 57, 62
1, 553886, Note_off_c, 0, 60, 62
1, 553909, Note_on_c, 0, 40, 106
1, 553912, Note_on_c, 0, 28, 100
1, 553937, Note_off_c, 0, 28, 69
1, 553949, Note_off_c, 0, 40, 65
1, 554032, Note_on_c, 0, 52, 96
1, 554033, Note_on_c, 0, 56, 83
1, 554033, Note_on_c, 0, 64, 87
1, 554035, Note_on_c, 0, 59, 72
1, 554067, Note_off_c, 0, 59, 60
1, 554097, Note_off_c, 0, 64, 62
1, 554111, Note_off_c, 0, 56, 60
1, 554113, Note_off_c, 0, 52, 64
1, 554192, Control_c, 0, 64, 94
1, 554200, Note_on_c, 0, 45, 100
1, 554201, Note_on_c, 0, 40, 94
1, 554202, Note_on_c, 0, 33, 90
1, 554206, Note_on_c, 0, 60, 99
1, 554207, Note_on_c, 0, 48, 100
1, 554207, Control_c, 0, 64, 61
1, 554222, Control_c, 0, 64, 0
1, 554266, Control_c, 0, 64, 66
1, 554280, Note_off_c, 0, 45, 64
1, 554281, Control_c, 0, 64, 116
1, 554295, Control_c, 0, 64, 127
1, 554312, Note_on_c, 0, 57, 67
1, 554313, Note_off_c, 0, 40, 62
1, 554315, Note_off_c, 0, 48, 61
1, 554320, Note_off_c, 0, 60, 55
1, 554331, Note_off_c, 0, 33, 64
1, 554337, Poly_aftertouch_c, 0, 50, 0
1, 554390, Note_on_c, 0, 52, 81
1, 554393, Note_off_c, 0, 57, 59
1, 554471, Note_on_c, 0, 57, 75
1, 554500, Note_off_c, 0, 52, 62
1, 554556, Note_on_c, 0, 60, 81
1, 554575, Note_off_c, 0, 57, 62
1, 554590, Note_off_c, 0, 60, 60
1, 554659, Note_on_c, 0, 64, 83
1, 554715, Note_off_c, 0, 64, 64
1, 554730, Note_on_c, 0, 40, 92
1, 554737, Note_on_c, 0, 69, 86
1, 554738, Note_on_c, 0, 28, 68
1, 554765, Note_off_c, 0, 40, 66
1, 554767, Note_off_c, 0, 28, 55
1, 554821, Note_on_c, 0, 72, 85
1, 554825, Note_off_c, 0, 69, 65
1, 554916, Note_on_c, 0, 57, 86
1, 554918, Note_on_c, 0, 60, 90
1, 554920, Note_on_c, 0, 52, 86
1, 554921, Note_on_c, 0, 64, 98
1, 554921, Note_on_c, 0, 76, 97
1, 554954, Note_off_c, 0, 72, 64
1, 554957, Note_off_c, 0, 60, 60
1, 554959, Note_off_c, 0, 57, 64
1, 554975, Note_off_c, 0, 52, 63
1, 555027, Note_on_c, 0, 72, 79
1, 555031, Note_off_c, 0, 64, 60
1, 555055, Note_off_c, 0, 76, 63
1, 555127, Note_on_c, 0, 69, 84
1, 555132, Note_off_c, 0, 72, 65
1, 555225, Note_on_c, 0, 72, 82
1, 555267, Note_off_c, 0, 69, 61
1, 555337, Note_on_c, 0, 76, 82
1, 555352, Note_off_c, 0, 72, 64
1, 555374, Note_off_c, 0, 76, 68
1, 555462, Note_on_c, 0, 81, 93
1, 555522, Note_off_c, 0, 81, 60
1, 555587, Note_on_c, 0, 45, 106
1, 555592, Note_on_c, 0, 33, 87
1, 555596, Note_on_c, 0, 84, 103
1, 555618, Note_off_c, 0, 33, 67
1, 555624, Note_off_c, 0, 45, 69
1, 555754, Note_on_c, 0, 88, 98
1, 555778, Note_off_c, 0, 84, 61
1, 555961, Note_off_c, 0, 88, 60
1, 555982, Note_on_c, 0, 69, 97
1, 555985, Note_on_c, 0, 57, 84
1, 555985, Note_on_c, 0, 93, 103
1, 555986, Note_on_c, 0, 84, 96
1, 555987, Note_on_c, 0, 64, 90
1, 555988, Note_on_c, 0, 81, 101
1, 555988, Note_on_c, 0, 60, 82
1, 557260, Note_off_c, 0, 69, 57
1, 557264, Note_off_c, 0, 60, 58
1, 557277, Note_off_c, 0, 64, 59
1, 557294, Note_off_c, 0, 81, 62
1, 557299, Note_off_c, 0, 57, 62
1, 557304, Note_off_c, 0, 93, 64
1, 557306, Note_off_c, 0, 84, 67
1, 557498, Control_c, 0, 64, 120
1, 557520, Control_c, 0, 64, 103
1, 557535, Control_c, 0, 64, 92
1, 557550, Control_c, 0, 64, 82
1, 557565, Control_c, 0, 64, 72
1, 557580, Control_c, 0, 64, 65
1, 557595, Control_c, 0, 64, 58
1, 557610, Control_c, 0, 64, 50
1, 557624, Control_c, 0, 64, 36
1, 557639, Control_c, 0, 64, 0
1, 557639, End_track
0, 0, End_of_file
