0, 0, Header, 0, 1, 384
1, 0, Start_track
1, 0, Title_t, "MozartSonataK311_!--Zhang       "
1, 0, Text_t, "2011 ePiano Junior Competition"
1, 0, Text_t, "captured in spring and summer 2011"
1, 0, Text_t, "http://www.piano-e-competition.com/"
1, 0, Text_t, "standard-resolution version"
1, 0, Text_t, "File processed for distribution with software designed and coded by Dr. John Q. Walker, founder of Zenph Sound Innovations"
1, 0, Instrument_name_t, "Yamaha Disklavier Pro Mark IV concert grand piano, model DCFIIISM4PRO"
1, 0, Sequencer_specific, 39, 67, 113, 0, 1, 0, 1, 0, 77, 111, 122, 97, 114, 116, 83, 111, 110, 97, 116, 97, 75, 51, 49, 49, 89, 117, 110, 108, 105, 110, 103, 32, 90, 104, 97, 110, 103, 32, 32, 32
1, 0, Sequencer_specific, 6, 67, 113, 0, 0, 0, 69
1, 0, System_exclusive, 21, 67, 113, 126, 21, 0, 2, 2, 2, 5, 12, 8, 4, 14, 0, 15, 7, 14, 6, 1, 3, 247
1, 0, Sequencer_specific, 5, 67, 123, 12, 2, 1
1, 0, Tempo, 512820
1, 0, Time_signature, 4, 2, 24, 8
1, 0, System_exclusive, 5, 126, 127, 9, 1, 247
1, 1, System_exclusive, 8, 67, 16, 76, 0, 0, 126, 0, 247
1, 2, System_exclusive, 8, 67, 16, 76, 8, 9, 7, 1, 247
1, 3, Control_c, 0, 0, 108
1, 3, Control_c, 1, 0, 108
1, 3, Control_c, 2, 0, 0
1, 3, Control_c, 3, 0, 0
1, 3, Control_c, 4, 0, 0
1, 3, Control_c, 5, 0, 0
1, 3, Control_c, 6, 0, 0
1, 3, Control_c, 7, 0, 0
1, 3, Control_c, 8, 0, 0
1, 3, Control_c, 9, 0, 127
1, 3, Control_c, 10, 0, 0
1, 3, Control_c, 11, 0, 0
1, 3, Control_c, 12, 0, 0
1, 3, Control_c, 13, 0, 0
1, 3, Control_c, 14, 0, 0
1, 3, Control_c, 15, 0, 0
1, 4, Control_c, 0, 32, 0
1, 4, Control_c, 1, 32, 0
1, 4, Control_c, 2, 32, 0
1, 4, Control_c, 3, 32, 0
1, 4, Control_c, 4, 32, 0
1, 4, Control_c, 5, 32, 0
1, 4, Control_c, 6, 32, 0
1, 4, Control_c, 7, 32, 0
1, 4, Control_c, 8, 32, 0
1, 4, Control_c, 9, 32, 0
1, 4, Control_c, 10, 32, 0
1, 4, Control_c, 11, 32, 0
1, 4, Control_c, 12, 32, 0
1, 4, Control_c, 13, 32, 0
1, 4, Control_c, 14, 32, 0
1, 4, Control_c, 15, 32, 0
1, 5, Program_c, 0, 0
1, 5, Program_c, 1, 0
1, 5, Program_c, 2, 0
1, 5, Program_c, 3, 0
1, 5, Program_c, 4, 0
1, 5, Program_c, 5, 0
1, 5, Program_c, 6, 0
1, 5, Program_c, 7, 0
1, 5, Program_c, 8, 0
1, 5, Program_c, 9, 0
1, 5, Program_c, 10, 0
1, 5, Program_c, 11, 0
1, 5, Program_c, 12, 0
1, 5, Program_c, 13, 0
1, 5, Program_c, 14, 0
1, 5, Program_c, 15, 0
1, 6, Control_c, 0, 7, 100
1, 6, Control_c, 1, 7, 100
1, 6, Control_c, 2, 7, 100
1, 6, Control_c, 3, 7, 100
1, 6, Control_c, 4, 7, 100
1, 6, Control_c, 5, 7, 100
1, 6, Control_c, 6, 7, 100
1, 6, Control_c, 7, 7, 100
1, 6, Control_c, 8, 7, 100
1, 6, Control_c, 9, 7, 100
1, 6, Control_c, 10, 7, 100
1, 6, Control_c, 11, 7, 100
1, 6, Control_c, 12, 7, 100
1, 6, Control_c, 13, 7, 100
1, 6, Control_c, 14, 7, 100
1, 6, Control_c, 15, 7, 100
1, 380, Note_on_c, 0, 66, 63
1, 409, Note_on_c, 0, 69, 68
1, 425, Control_c, 0, 64, 36
1, 426, Note_on_c, 0, 50, 73
1, 428, Note_on_c, 0, 74, 87
1, 431, Note_on_c, 0, 38, 69
1, 440, Control_c, 0, 64, 72
1, 444, Note_off_c, 0, 66, 64
1, 452, Note_off_c, 0, 69, 65
1, 455, Control_c, 0, 64, 127
1, 458, Note_off_c, 0, 38, 64
1, 468, Note_off_c, 0, 74, 69
1, 472, Note_off_c, 0, 50, 62
1, 775, Control_c, 0, 64, 99
1, 789, Control_c, 0, 64, 74
1, 804, Control_c, 0, 64, 57
1, 819, Control_c, 0, 64, 28
1, 833, Control_c, 0, 64, 16
1, 848, Control_c, 0, 64, 0
1, 1091, Note_on_c, 0, 62, 57
1, 1094, Note_on_c, 0, 66, 56
1, 1097, Note_on_c, 0, 79, 81
1, 1115, Control_c, 0, 64, 51
1, 1130, Control_c, 0, 64, 69
1, 1145, Control_c, 0, 64, 90
1, 1159, Control_c, 0, 64, 127
1, 1161, Note_off_c, 0, 66, 62
1, 1163, Note_off_c, 0, 79, 66
1, 1166, Note_off_c, 0, 62, 62
1, 1170, Note_on_c, 0, 78, 83
1, 1228, Note_off_c, 0, 78, 64
1, 1241, Note_on_c, 0, 76, 84
1, 1248, Control_c, 0, 64, 76
1, 1263, Control_c, 0, 64, 30
1, 1278, Control_c, 0, 64, 0
1, 1311, Note_on_c, 0, 78, 82
1, 1322, Note_off_c, 0, 76, 58
1, 1374, Control_c, 0, 64, 35
1, 1377, Note_on_c, 0, 81, 80
1, 1377, Note_off_c, 0, 78, 64
1, 1379, Note_on_c, 0, 64, 59
1, 1385, Note_on_c, 0, 67, 61
1, 1389, Control_c, 0, 64, 56
1, 1404, Control_c, 0, 64, 60
1, 1419, Control_c, 0, 64, 59
1, 1420, Note_off_c, 0, 64, 64
1, 1422, Note_off_c, 0, 67, 61
1, 1433, Control_c, 0, 64, 58
1, 1448, Control_c, 0, 64, 57
1, 1453, Note_on_c, 0, 79, 83
1, 1472, Note_off_c, 0, 81, 64
1, 1479, Control_c, 0, 64, 57
1, 1494, Control_c, 0, 64, 55
1, 1508, Note_off_c, 0, 79, 66
1, 1509, Control_c, 0, 64, 51
1, 1513, Note_on_c, 0, 78, 81
1, 1524, Control_c, 0, 64, 41
1, 1538, Control_c, 0, 64, 29
1, 1553, Control_c, 0, 64, 15
1, 1568, Control_c, 0, 64, 0
1, 1578, Note_on_c, 0, 79, 84
1, 1587, Note_off_c, 0, 78, 57
1, 1654, Note_off_c, 0, 79, 68
1, 1658, Note_on_c, 0, 81, 82
1, 1665, Note_on_c, 0, 66, 43
1, 1668, Note_on_c, 0, 69, 53
1, 2076, Note_off_c, 0, 81, 60
1, 2142, Note_off_c, 0, 69, 53
1, 2147, Note_off_c, 0, 66, 57
1, 2367, Note_on_c, 0, 81, 55
1, 2407, Note_off_c, 0, 81, 59
1, 2521, Note_on_c, 0, 83, 64
1, 2556, Note_off_c, 0, 83, 63
1, 2654, Note_on_c, 0, 85, 78
1, 2700, Note_off_c, 0, 85, 64
1, 2791, Note_on_c, 0, 86, 79
1, 2839, Note_off_c, 0, 86, 60
1, 2953, Note_on_c, 0, 81, 72
1, 2961, Note_on_c, 0, 54, 54
1, 3003, Note_off_c, 0, 54, 62
1, 3111, Note_on_c, 0, 62, 57
1, 3145, Note_off_c, 0, 62, 65
1, 3251, Note_on_c, 0, 50, 52
1, 3251, Note_on_c, 0, 78, 63
1, 3298, Note_off_c, 0, 81, 60
1, 3315, Note_off_c, 0, 50, 56
1, 3401, Note_on_c, 0, 62, 55
1, 3426, Note_off_c, 0, 78, 64
1, 3447, Note_off_c, 0, 62, 56
1, 3540, Note_on_c, 0, 81, 65
1, 3548, Note_on_c, 0, 52, 54
1, 3587, Note_off_c, 0, 52, 63
1, 3611, Note_off_c, 0, 81, 64
1, 3615, Note_on_c, 0, 79, 71
1, 3662, Note_off_c, 0, 79, 65
1, 3680, Note_on_c, 0, 78, 67
1, 3695, Note_on_c, 0, 62, 51
1, 3740, Note_on_c, 0, 79, 72
1, 3740, Note_off_c, 0, 78, 63
1, 3741, Note_off_c, 0, 62, 56
1, 3805, Note_off_c, 0, 79, 65
1, 3808, Note_on_c, 0, 81, 80
1, 3828, Note_on_c, 0, 57, 54
1, 3843, Note_off_c, 0, 81, 66
1, 3865, Note_off_c, 0, 57, 63
1, 3964, Note_on_c, 0, 79, 74
1, 3978, Note_on_c, 0, 61, 53
1, 3987, Note_off_c, 0, 79, 71
1, 4014, Note_off_c, 0, 61, 63
1, 4136, Note_on_c, 0, 50, 42
1, 4143, Note_on_c, 0, 77, 69
1, 4147, Note_on_c, 0, 62, 40
1, 4214, Control_c, 0, 64, 23
1, 4225, Note_off_c, 0, 77, 63
1, 4229, Control_c, 0, 64, 46
1, 4237, Note_on_c, 0, 78, 60
1, 4244, Control_c, 0, 64, 60
1, 4258, Control_c, 0, 64, 67
1, 4273, Control_c, 0, 64, 78
1, 4288, Control_c, 0, 64, 123
1, 4303, Control_c, 0, 64, 127
1, 4451, Note_off_c, 0, 50, 60
1, 4529, Note_off_c, 0, 78, 57
1, 4534, Note_off_c, 0, 62, 54
1, 4592, Control_c, 0, 64, 105
1, 4607, Control_c, 0, 64, 85
1, 4622, Control_c, 0, 64, 67
1, 4637, Control_c, 0, 64, 45
1, 4652, Control_c, 0, 64, 0
1, 4859, Note_on_c, 0, 66, 63
1, 4867, Note_on_c, 0, 62, 56
1, 4867, Note_on_c, 0, 79, 85
1, 4889, Control_c, 0, 64, 58
1, 4904, Control_c, 0, 64, 77
1, 4914, Note_off_c, 0, 62, 62
1, 4918, Note_off_c, 0, 66, 62
1, 4919, Control_c, 0, 64, 127
1, 4940, Note_on_c, 0, 78, 90
1, 4941, Note_off_c, 0, 79, 66
1, 4991, Note_off_c, 0, 78, 64
1, 5007, Control_c, 0, 64, 87
1, 5009, Note_on_c, 0, 76, 84
1, 5022, Control_c, 0, 64, 64
1, 5037, Control_c, 0, 64, 0
1, 5078, Note_on_c, 0, 78, 84
1, 5092, Note_off_c, 0, 76, 60
1, 5134, Control_c, 0, 64, 16
1, 5145, Note_on_c, 0, 67, 63
1, 5149, Note_on_c, 0, 81, 80
1, 5149, Control_c, 0, 64, 64
1, 5150, Note_on_c, 0, 64, 58
1, 5151, Note_off_c, 0, 78, 63
1, 5163, Control_c, 0, 64, 87
1, 5178, Control_c, 0, 64, 127
1, 5181, Note_off_c, 0, 67, 64
1, 5187, Note_off_c, 0, 64, 65
1, 5222, Note_on_c, 0, 79, 86
1, 5222, Control_c, 0, 64, 86
1, 5236, Note_off_c, 0, 81, 65
1, 5237, Control_c, 0, 64, 67
1, 5252, Control_c, 0, 64, 47
1, 5267, Control_c, 0, 64, 30
1, 5278, Note_off_c, 0, 79, 67
1, 5281, Control_c, 0, 64, 27
1, 5287, Note_on_c, 0, 78, 80
1, 5296, Control_c, 0, 64, 0
1, 5355, Note_on_c, 0, 79, 82
1, 5373, Note_off_c, 0, 78, 46
1, 5433, Note_off_c, 0, 79, 68
1, 5434, Note_on_c, 0, 81, 80
1, 5436, Note_on_c, 0, 69, 54
1, 5439, Note_on_c, 0, 66, 52
1, 5868, Note_off_c, 0, 81, 63
1, 5953, Note_off_c, 0, 69, 62
1, 5975, Note_off_c, 0, 66, 35
1, 6164, Note_on_c, 0, 81, 53
1, 6202, Note_off_c, 0, 81, 60
1, 6315, Note_on_c, 0, 83, 67
1, 6351, Note_off_c, 0, 83, 60
1, 6452, Note_on_c, 0, 85, 79
1, 6495, Note_off_c, 0, 85, 63
1, 6590, Note_on_c, 0, 86, 82
1, 6642, Note_off_c, 0, 86, 63
1, 6756, Note_on_c, 0, 81, 77
1, 6768, Note_on_c, 0, 54, 56
1, 6806, Note_off_c, 0, 54, 64
1, 6914, Note_on_c, 0, 62, 50
1, 6942, Note_off_c, 0, 62, 58
1, 7055, Note_on_c, 0, 78, 68
1, 7056, Note_on_c, 0, 50, 48
1, 7062, Control_c, 0, 64, 12
1, 7076, Control_c, 0, 64, 14
1, 7113, Note_off_c, 0, 50, 59
1, 7116, Note_off_c, 0, 81, 60
1, 7208, Note_on_c, 0, 62, 59
1, 7227, Note_off_c, 0, 78, 65
1, 7246, Note_off_c, 0, 62, 61
1, 7354, Note_on_c, 0, 81, 65
1, 7364, Note_on_c, 0, 52, 54
1, 7400, Note_off_c, 0, 52, 65
1, 7416, Note_off_c, 0, 81, 64
1, 7421, Note_on_c, 0, 79, 64
1, 7475, Note_off_c, 0, 79, 65
1, 7490, Note_on_c, 0, 78, 69
1, 7506, Note_on_c, 0, 62, 58
1, 7549, Note_off_c, 0, 62, 59
1, 7550, Note_off_c, 0, 78, 63
1, 7551, Note_on_c, 0, 79, 71
1, 7602, Control_c, 0, 64, 15
1, 7617, Control_c, 0, 64, 17
1, 7618, Note_off_c, 0, 79, 65
1, 7627, Note_on_c, 0, 81, 73
1, 7632, Control_c, 0, 64, 18
1, 7641, Note_on_c, 0, 57, 63
1, 7647, Control_c, 0, 64, 19
1, 7685, Note_off_c, 0, 57, 62
1, 7695, Note_on_c, 0, 79, 74
1, 7703, Note_off_c, 0, 81, 62
1, 7766, Note_on_c, 0, 61, 56
1, 7767, Note_on_c, 0, 78, 74
1, 7780, Control_c, 0, 64, 20
1, 7792, Note_off_c, 0, 79, 63
1, 7801, Note_off_c, 0, 61, 63
1, 7829, Note_on_c, 0, 76, 77
1, 7843, Note_off_c, 0, 78, 64
1, 7891, Note_off_c, 0, 76, 65
1, 7898, Note_on_c, 0, 74, 81
1, 7914, Note_on_c, 0, 62, 56
1, 7922, Note_off_c, 0, 74, 68
1, 7951, Note_off_c, 0, 62, 63
1, 8055, Note_on_c, 0, 66, 59
1, 8101, Note_off_c, 0, 66, 60
1, 8214, Note_on_c, 0, 69, 73
1, 8218, Note_on_c, 0, 62, 51
1, 8238, Note_off_c, 0, 69, 70
1, 8252, Note_off_c, 0, 62, 65
1, 8369, Note_on_c, 0, 66, 52
1, 8402, Note_off_c, 0, 66, 62
1, 8485, Control_c, 0, 64, 34
1, 8499, Control_c, 0, 64, 57
1, 8504, Note_on_c, 0, 79, 62
1, 8512, Note_on_c, 0, 62, 52
1, 8514, Control_c, 0, 64, 69
1, 8529, Control_c, 0, 64, 96
1, 8544, Control_c, 0, 64, 127
1, 8545, Note_off_c, 0, 62, 62
1, 8546, Note_off_c, 0, 79, 59
1, 8569, Note_on_c, 0, 78, 64
1, 8608, Note_off_c, 0, 78, 64
1, 8626, Note_on_c, 0, 79, 65
1, 8663, Note_off_c, 0, 79, 63
1, 8679, Note_on_c, 0, 66, 44
1, 8696, Note_on_c, 0, 78, 57
1, 8706, Note_off_c, 0, 66, 57
1, 8768, Note_on_c, 0, 79, 30
1, 8784, Note_on_c, 0, 62, 62
1, 8784, Note_off_c, 0, 78, 62
1, 8813, Note_off_c, 0, 62, 65
1, 8850, Note_on_c, 0, 78, 67
1, 8860, Note_off_c, 0, 79, 62
1, 8916, Note_on_c, 0, 76, 71
1, 8922, Note_on_c, 0, 66, 65
1, 8935, Note_off_c, 0, 78, 62
1, 8960, Note_off_c, 0, 66, 59
1, 8974, Note_off_c, 0, 76, 65
1, 8981, Note_on_c, 0, 74, 73
1, 9035, Note_off_c, 0, 74, 59
1, 9041, Control_c, 0, 64, 116
1, 9055, Control_c, 0, 64, 78
1, 9068, Note_on_c, 0, 73, 83
1, 9070, Note_on_c, 0, 64, 59
1, 9070, Control_c, 0, 64, 61
1, 9085, Control_c, 0, 64, 14
1, 9097, Note_off_c, 0, 73, 67
1, 9100, Control_c, 0, 64, 0
1, 9102, Note_off_c, 0, 64, 65
1, 9239, Note_on_c, 0, 67, 57
1, 9266, Note_off_c, 0, 67, 63
1, 9377, Note_on_c, 0, 69, 76
1, 9382, Note_on_c, 0, 64, 61
1, 9402, Note_off_c, 0, 69, 70
1, 9415, Note_off_c, 0, 64, 63
1, 9522, Note_on_c, 0, 67, 50
1, 9571, Note_off_c, 0, 67, 57
1, 9675, Note_on_c, 0, 76, 68
1, 9685, Note_on_c, 0, 64, 51
1, 9749, Note_off_c, 0, 64, 60
1, 9762, Note_on_c, 0, 66, 62
1, 9826, Note_off_c, 0, 66, 62
1, 9844, Note_on_c, 0, 67, 60
1, 9907, Note_off_c, 0, 67, 60
1, 9910, Note_on_c, 0, 66, 70
1, 9943, Note_off_c, 0, 66, 66
1, 9952, Note_off_c, 0, 76, 65
1, 9967, Note_on_c, 0, 64, 69
1, 10023, Note_off_c, 0, 64, 57
1, 10046, Note_on_c, 0, 62, 69
1, 10104, Note_on_c, 0, 61, 70
1, 10112, Note_off_c, 0, 62, 62
1, 10161, Note_off_c, 0, 61, 64
1, 10191, Note_on_c, 0, 59, 53
1, 10231, Note_on_c, 0, 76, 82
1, 10235, Note_off_c, 0, 59, 65
1, 10251, Note_on_c, 0, 57, 68
1, 10265, Note_off_c, 0, 76, 67
1, 10284, Note_off_c, 0, 57, 64
1, 10426, Note_on_c, 0, 61, 52
1, 10452, Note_off_c, 0, 61, 60
1, 10542, Note_on_c, 0, 69, 78
1, 10546, Note_on_c, 0, 57, 58
1, 10569, Note_off_c, 0, 69, 66
1, 10585, Note_off_c, 0, 57, 61
1, 10709, Note_on_c, 0, 61, 56
1, 10750, Note_off_c, 0, 61, 59
1, 10847, Note_on_c, 0, 81, 71
1, 10849, Control_c, 0, 64, 38
1, 10850, Note_on_c, 0, 57, 52
1, 10864, Control_c, 0, 64, 61
1, 10879, Control_c, 0, 64, 72
1, 10893, Control_c, 0, 64, 103
1, 10905, Note_off_c, 0, 57, 56
1, 10908, Note_off_c, 0, 81, 51
1, 10908, Control_c, 0, 64, 127
1, 10920, Note_on_c, 0, 79, 71
1, 10953, Note_off_c, 0, 79, 59
1, 10980, Note_on_c, 0, 81, 63
1, 11002, Note_on_c, 0, 61, 61
1, 11007, Note_off_c, 0, 81, 65
1, 11034, Note_off_c, 0, 61, 64
1, 11047, Note_on_c, 0, 79, 63
1, 11110, Note_on_c, 0, 81, 22
1, 11123, Note_on_c, 0, 55, 70
1, 11146, Note_off_c, 0, 81, 0
1, 11146, Note_on_c, 0, 81, 40
1, 11158, Note_off_c, 0, 55, 61
1, 11159, Note_off_c, 0, 79, 60
1, 11209, Note_on_c, 0, 79, 60
1, 11221, Note_off_c, 0, 81, 64
1, 11252, Note_on_c, 0, 61, 60
1, 11270, Note_on_c, 0, 78, 72
1, 11270, Note_off_c, 0, 79, 66
1, 11291, Note_off_c, 0, 61, 60
1, 11300, Note_off_c, 0, 78, 67
1, 11325, Note_on_c, 0, 76, 84
1, 11367, Note_off_c, 0, 76, 65
1, 11376, Control_c, 0, 64, 97
1, 11390, Control_c, 0, 64, 70
1, 11402, Note_on_c, 0, 74, 85
1, 11405, Control_c, 0, 64, 46
1, 11406, Note_on_c, 0, 54, 53
1, 11420, Control_c, 0, 64, 0
1, 11422, Note_off_c, 0, 74, 69
1, 11463, Note_off_c, 0, 54, 60
1, 11556, Note_on_c, 0, 62, 64
1, 11597, Note_off_c, 0, 62, 60
1, 11702, Note_on_c, 0, 69, 75
1, 11707, Note_on_c, 0, 54, 56
1, 11726, Note_off_c, 0, 69, 69
1, 11744, Note_off_c, 0, 54, 63
1, 11860, Note_on_c, 0, 62, 55
1, 11901, Note_off_c, 0, 62, 61
1, 12006, Note_on_c, 0, 54, 50
1, 12006, Note_on_c, 0, 78, 74
1, 12074, Note_off_c, 0, 54, 64
1, 12091, Note_on_c, 0, 50, 58
1, 12160, Note_off_c, 0, 50, 62
1, 12165, Note_on_c, 0, 52, 61
1, 12227, Note_on_c, 0, 54, 70
1, 12233, Note_off_c, 0, 52, 64
1, 12286, Note_off_c, 0, 78, 64
1, 12296, Note_on_c, 0, 55, 70
1, 12301, Note_off_c, 0, 54, 64
1, 12351, Note_off_c, 0, 55, 62
1, 12361, Note_on_c, 0, 57, 77
1, 12423, Note_off_c, 0, 57, 59
1, 12438, Note_on_c, 0, 59, 71
1, 12504, Note_off_c, 0, 59, 63
1, 12514, Note_on_c, 0, 61, 67
1, 12590, Note_off_c, 0, 61, 60
1, 12605, Note_on_c, 0, 78, 73
1, 12605, Note_on_c, 0, 62, 52
1, 12672, Note_off_c, 0, 78, 64
1, 12682, Note_on_c, 0, 74, 71
1, 12747, Note_off_c, 0, 74, 63
1, 12749, Note_on_c, 0, 76, 74
1, 12808, Note_on_c, 0, 78, 84
1, 12816, Note_off_c, 0, 76, 63
1, 12860, Note_off_c, 0, 78, 63
1, 12874, Note_on_c, 0, 79, 87
1, 12894, Note_off_c, 0, 62, 62
1, 12940, Note_off_c, 0, 79, 63
1, 12942, Note_on_c, 0, 81, 81
1, 13011, Note_off_c, 0, 81, 66
1, 13012, Note_on_c, 0, 83, 79
1, 13062, Note_off_c, 0, 83, 66
1, 13070, Note_on_c, 0, 85, 81
1, 13144, Note_on_c, 0, 86, 82
1, 13147, Note_off_c, 0, 85, 66
1, 13219, Note_on_c, 0, 85, 76
1, 13242, Note_off_c, 0, 86, 64
1, 13263, Note_on_c, 0, 57, 60
1, 13271, Note_on_c, 0, 54, 54
1, 13282, Note_on_c, 0, 83, 85
1, 13302, Note_off_c, 0, 57, 66
1, 13313, Note_off_c, 0, 54, 66
1, 13313, Note_off_c, 0, 85, 65
1, 13354, Note_on_c, 0, 81, 80
1, 13361, Note_off_c, 0, 83, 65
1, 13412, Note_off_c, 0, 81, 64
1, 13413, Note_on_c, 0, 57, 63
1, 13418, Note_on_c, 0, 54, 58
1, 13419, Note_on_c, 0, 79, 82
1, 13451, Note_off_c, 0, 54, 66
1, 13453, Note_off_c, 0, 57, 66
1, 13460, Note_off_c, 0, 79, 65
1, 13488, Note_on_c, 0, 78, 82
1, 13544, Note_on_c, 0, 54, 58
1, 13562, Note_on_c, 0, 57, 59
1, 13562, Note_on_c, 0, 76, 72
1, 13565, Note_off_c, 0, 78, 65
1, 13584, Note_off_c, 0, 54, 64
1, 13591, Note_off_c, 0, 57, 65
1, 13606, Note_off_c, 0, 76, 65
1, 13618, Note_on_c, 0, 74, 78
1, 13669, Note_off_c, 0, 74, 53
1, 13707, Note_on_c, 0, 76, 70
1, 13723, Note_on_c, 0, 55, 34
1, 13727, Note_on_c, 0, 59, 38
1, 13750, Note_off_c, 0, 76, 61
1, 13774, Note_on_c, 0, 78, 67
1, 13856, Note_off_c, 0, 78, 60
1, 13859, Note_on_c, 0, 76, 54
1, 13896, Note_off_c, 0, 76, 64
1, 13916, Note_on_c, 0, 75, 67
1, 13952, Note_off_c, 0, 75, 63
1, 13989, Note_on_c, 0, 76, 65
1, 14048, Note_off_c, 0, 76, 57
1, 14062, Note_on_c, 0, 78, 67
1, 14076, Note_off_c, 0, 55, 58
1, 14076, Note_off_c, 0, 59, 62
1, 14116, Note_off_c, 0, 78, 59
1, 14128, Note_on_c, 0, 79, 65
1, 14191, Note_off_c, 0, 79, 65
1, 14205, Note_on_c, 0, 81, 61
1, 14272, Note_off_c, 0, 81, 65
1, 14288, Note_on_c, 0, 83, 64
1, 14363, Note_off_c, 0, 83, 60
1, 14384, Note_on_c, 0, 81, 54
1, 14431, Note_on_c, 0, 79, 69
1, 14436, Note_on_c, 0, 55, 49
1, 14444, Note_on_c, 0, 59, 35
1, 14445, Note_off_c, 0, 81, 52
1, 14479, Note_off_c, 0, 59, 54
1, 14480, Note_off_c, 0, 55, 63
1, 14505, Note_off_c, 0, 79, 65
1, 14510, Note_on_c, 0, 78, 66
1, 14555, Note_off_c, 0, 78, 65
1, 14564, Note_on_c, 0, 59, 65
1, 14566, Note_on_c, 0, 55, 70
1, 14567, Note_on_c, 0, 76, 73
1, 14596, Note_off_c, 0, 59, 65
1, 14597, Note_off_c, 0, 55, 67
1, 14608, Note_off_c, 0, 76, 63
1, 14640, Note_on_c, 0, 74, 74
1, 14713, Note_on_c, 0, 56, 74
1, 14715, Note_off_c, 0, 74, 63
1, 14722, Note_on_c, 0, 73, 71
1, 14739, Note_on_c, 0, 59, 7
1, 14739, Note_off_c, 0, 56, 67
1, 14764, Note_off_c, 0, 73, 62
1, 14789, Note_on_c, 0, 71, 54
1, 14792, Note_off_c, 0, 59, 26
1, 14864, Note_off_c, 0, 71, 56
1, 14873, Note_on_c, 0, 73, 61
1, 14875, Note_on_c, 0, 57, 70
1, 14914, Note_off_c, 0, 57, 62
1, 14915, Note_off_c, 0, 73, 62
1, 14947, Note_on_c, 0, 74, 62
1, 14998, Note_off_c, 0, 74, 56
1, 15021, Note_on_c, 0, 73, 64
1, 15023, Note_on_c, 0, 55, 48
1, 15059, Note_off_c, 0, 55, 63
1, 15074, Note_off_c, 0, 73, 60
1, 15094, Note_on_c, 0, 69, 64
1, 15152, Note_off_c, 0, 69, 58
1, 15156, Note_on_c, 0, 74, 70
1, 15162, Note_on_c, 0, 54, 60
1, 15181, Note_off_c, 0, 74, 67
1, 15190, Note_off_c, 0, 54, 67
1, 15311, Note_on_c, 0, 50, 45
1, 15343, Note_off_c, 0, 50, 57
1, 15451, Note_on_c, 0, 79, 70
1, 15454, Note_on_c, 0, 49, 50
1, 15487, Note_off_c, 0, 49, 64
1, 15509, Note_off_c, 0, 79, 65
1, 15524, Note_on_c, 0, 81, 66
1, 15601, Note_off_c, 0, 81, 61
1, 15604, Note_on_c, 0, 45, 49
1, 15604, Note_on_c, 0, 79, 67
1, 15633, Note_off_c, 0, 45, 62
1, 15660, Note_off_c, 0, 79, 64
1, 15675, Note_on_c, 0, 76, 68
1, 15743, Note_off_c, 0, 76, 62
1, 15746, Note_on_c, 0, 50, 65
1, 15753, Note_on_c, 0, 79, 73
1, 15773, Note_off_c, 0, 50, 65
1, 15823, Note_on_c, 0, 78, 76
1, 15827, Note_off_c, 0, 79, 61
1, 15887, Note_on_c, 0, 76, 73
1, 15893, Note_off_c, 0, 78, 64
1, 15901, Note_on_c, 0, 54, 67
1, 15937, Note_off_c, 0, 54, 65
1, 15945, Note_off_c, 0, 76, 64
1, 15953, Note_on_c, 0, 74, 74
1, 16017, Note_off_c, 0, 74, 48
1, 16025, Note_on_c, 0, 73, 81
1, 16031, Note_on_c, 0, 57, 76
1, 16065, Note_off_c, 0, 57, 66
1, 16088, Note_off_c, 0, 73, 63
1, 16099, Note_on_c, 0, 74, 73
1, 16179, Note_on_c, 0, 73, 74
1, 16179, Note_off_c, 0, 74, 63
1, 16191, Note_on_c, 0, 55, 60
1, 16218, Note_off_c, 0, 55, 63
1, 16239, Note_off_c, 0, 73, 64
1, 16244, Note_on_c, 0, 69, 74
1, 16315, Note_on_c, 0, 74, 83
1, 16337, Note_off_c, 0, 69, 64
1, 16340, Note_on_c, 0, 54, 75
1, 16375, Note_off_c, 0, 54, 67
1, 16375, Note_off_c, 0, 74, 65
1, 16439, Control_c, 0, 64, 8
1, 16454, Control_c, 0, 64, 10
1, 16468, Control_c, 0, 64, 12
1, 16475, Note_on_c, 0, 50, 76
1, 16498, Control_c, 0, 64, 15
1, 16513, Control_c, 0, 64, 22
1, 16518, Note_off_c, 0, 50, 61
1, 16528, Control_c, 0, 64, 25
1, 16611, Note_on_c, 0, 79, 87
1, 16621, Note_on_c, 0, 49, 66
1, 16632, Control_c, 0, 64, 26
1, 16685, Note_off_c, 0, 49, 62
1, 16692, Note_on_c, 0, 81, 80
1, 16692, Note_off_c, 0, 79, 66
1, 16762, Note_on_c, 0, 45, 64
1, 16767, Note_on_c, 0, 79, 83
1, 16784, Note_off_c, 0, 81, 65
1, 16793, Note_off_c, 0, 45, 64
1, 16832, Note_off_c, 0, 79, 65
1, 16835, Note_on_c, 0, 76, 76
1, 16896, Note_on_c, 0, 50, 70
1, 16900, Note_off_c, 0, 76, 64
1, 16904, Note_on_c, 0, 79, 81
1, 16933, Note_off_c, 0, 50, 64
1, 16975, Note_on_c, 0, 78, 83
1, 16990, Note_off_c, 0, 79, 61
1, 17046, Note_on_c, 0, 76, 71
1, 17048, Note_off_c, 0, 78, 65
1, 17049, Note_on_c, 0, 54, 62
1, 17084, Control_c, 0, 64, 26
1, 17094, Note_off_c, 0, 54, 65
1, 17106, Note_off_c, 0, 76, 63
1, 17121, Note_on_c, 0, 74, 70
1, 17173, Control_c, 0, 64, 10
1, 17177, Note_off_c, 0, 74, 54
1, 17188, Control_c, 0, 64, 0
1, 17195, Note_on_c, 0, 73, 75
1, 17208, Note_on_c, 0, 52, 55
1, 17211, Note_on_c, 0, 45, 39
1, 17211, Note_on_c, 0, 57, 47
1, 17255, Note_off_c, 0, 73, 64
1, 17261, Control_c, 0, 64, 48
1, 17263, Note_on_c, 0, 76, 67
1, 17276, Control_c, 0, 64, 65
1, 17288, Note_off_c, 0, 52, 64
1, 17290, Note_off_c, 0, 57, 62
1, 17291, Control_c, 0, 64, 82
1, 17306, Control_c, 0, 64, 127
1, 17351, Note_off_c, 0, 76, 64
1, 17353, Note_on_c, 0, 73, 73
1, 17398, Note_off_c, 0, 73, 62
1, 17418, Note_on_c, 0, 69, 73
1, 17485, Control_c, 0, 64, 85
1, 17500, Control_c, 0, 64, 60
1, 17502, Note_on_c, 0, 78, 85
1, 17504, Note_off_c, 0, 69, 46
1, 17514, Note_on_c, 0, 54, 65
1, 17514, Note_on_c, 0, 57, 66
1, 17514, Control_c, 0, 64, 0
1, 17523, Note_on_c, 0, 50, 59
1, 17574, Note_off_c, 0, 78, 65
1, 17574, Control_c, 0, 64, 54
1, 17577, Note_on_c, 0, 81, 74
1, 17585, Note_off_c, 0, 57, 56
1, 17589, Control_c, 0, 64, 67
1, 17603, Note_off_c, 0, 45, 33
1, 17604, Control_c, 0, 64, 77
1, 17610, Note_off_c, 0, 54, 61
1, 17619, Control_c, 0, 64, 93
1, 17633, Control_c, 0, 64, 127
1, 17654, Note_on_c, 0, 78, 86
1, 17663, Note_off_c, 0, 81, 61
1, 17713, Note_off_c, 0, 78, 64
1, 17735, Note_on_c, 0, 74, 79
1, 17796, Control_c, 0, 64, 96
1, 17806, Note_on_c, 0, 73, 93
1, 17809, Note_on_c, 0, 57, 77
1, 17809, Note_off_c, 0, 74, 56
1, 17809, Note_on_c, 0, 52, 75
1, 17811, Control_c, 0, 64, 64
1, 17818, Note_on_c, 0, 45, 61
1, 17831, Note_off_c, 0, 50, 60
1, 17833, Control_c, 0, 64, 0
1, 17884, Note_off_c, 0, 73, 65
1, 17885, Note_on_c, 0, 76, 79
1, 17892, Control_c, 0, 64, 56
1, 17907, Control_c, 0, 64, 67
1, 17916, Note_off_c, 0, 57, 56
1, 17922, Control_c, 0, 64, 74
1, 17937, Control_c, 0, 64, 89
1, 17938, Note_off_c, 0, 52, 55
1, 17952, Control_c, 0, 64, 116
1, 17966, Note_on_c, 0, 73, 83
1, 17966, Control_c, 0, 64, 127
1, 17973, Note_off_c, 0, 76, 62
1, 18021, Note_off_c, 0, 73, 64
1, 18037, Note_on_c, 0, 69, 83
1, 18114, Control_c, 0, 64, 93
1, 18116, Note_on_c, 0, 78, 95
1, 18119, Note_on_c, 0, 54, 75
1, 18121, Note_on_c, 0, 50, 73
1, 18121, Note_on_c, 0, 57, 80
1, 18125, Note_off_c, 0, 69, 42
1, 18129, Control_c, 0, 64, 62
1, 18135, Note_off_c, 0, 45, 58
1, 18144, Control_c, 0, 64, 0
1, 18188, Control_c, 0, 64, 56
1, 18192, Note_on_c, 0, 81, 82
1, 18193, Note_off_c, 0, 78, 64
1, 18203, Control_c, 0, 64, 68
1, 18218, Control_c, 0, 64, 82
1, 18234, Control_c, 0, 64, 127
1, 18266, Note_on_c, 0, 78, 86
1, 18277, Note_off_c, 0, 81, 64
1, 18309, Note_off_c, 0, 57, 57
1, 18322, Note_off_c, 0, 78, 64
1, 18336, Note_on_c, 0, 74, 75
1, 18349, Note_off_c, 0, 54, 61
1, 18376, Note_off_c, 0, 50, 62
1, 18408, Note_on_c, 0, 76, 82
1, 18411, Note_on_c, 0, 73, 79
1, 18411, Control_c, 0, 64, 91
1, 18413, Note_off_c, 0, 74, 62
1, 18426, Control_c, 0, 64, 69
1, 18436, Note_off_c, 0, 73, 66
1, 18439, Note_off_c, 0, 76, 65
1, 18441, Control_c, 0, 64, 54
1, 18456, Control_c, 0, 64, 28
1, 18471, Control_c, 0, 64, 0
1, 18566, Note_on_c, 0, 81, 79
1, 18572, Note_on_c, 0, 57, 61
1, 18581, Note_on_c, 0, 45, 59
1, 18582, Note_on_c, 0, 73, 73
1, 18584, Note_on_c, 0, 49, 56
1, 18587, Note_on_c, 0, 76, 71
1, 18589, Note_on_c, 0, 52, 54
1, 18606, Note_off_c, 0, 73, 69
1, 18615, Note_off_c, 0, 76, 67
1, 18617, Note_off_c, 0, 45, 64
1, 18621, Note_off_c, 0, 81, 65
1, 18624, Note_off_c, 0, 52, 64
1, 18624, Note_off_c, 0, 57, 59
1, 18626, Note_off_c, 0, 49, 63
1, 18715, Note_on_c, 0, 81, 86
1, 18719, Note_on_c, 0, 76, 71
1, 18719, Note_on_c, 0, 49, 62
1, 18720, Note_on_c, 0, 45, 62
1, 18720, Note_on_c, 0, 73, 79
1, 18721, Note_on_c, 0, 57, 71
1, 18722, Note_on_c, 0, 52, 54
1, 18742, Note_off_c, 0, 73, 71
1, 18748, Note_off_c, 0, 76, 69
1, 18760, Note_off_c, 0, 57, 58
1, 18763, Note_off_c, 0, 81, 65
1, 18764, Note_off_c, 0, 45, 65
1, 18765, Note_off_c, 0, 52, 64
1, 18768, Note_off_c, 0, 49, 60
1, 18858, Note_on_c, 0, 81, 88
1, 18863, Note_on_c, 0, 57, 76
1, 18868, Note_on_c, 0, 45, 67
1, 18868, Note_on_c, 0, 73, 79
1, 18870, Note_on_c, 0, 76, 74
1, 18871, Note_on_c, 0, 49, 66
1, 18871, Note_on_c, 0, 52, 59
1, 18882, Note_on_c, 0, 77, 61
1, 18889, Note_off_c, 0, 73, 71
1, 18897, Note_off_c, 0, 76, 68
1, 18900, Note_off_c, 0, 77, 63
1, 18906, Note_off_c, 0, 57, 57
1, 18908, Note_off_c, 0, 52, 61
1, 18914, Note_off_c, 0, 49, 59
1, 18915, Note_off_c, 0, 45, 61
1, 18916, Note_off_c, 0, 81, 65
1, 19014, Note_on_c, 0, 81, 88
1, 19023, Note_on_c, 0, 57, 77
1, 19024, Note_on_c, 0, 73, 86
1, 19025, Note_on_c, 0, 45, 72
1, 19026, Note_on_c, 0, 76, 85
1, 19026, Control_c, 0, 64, 42
1, 19031, Note_on_c, 0, 49, 64
1, 19042, Control_c, 0, 64, 73
1, 19051, Note_on_c, 0, 52, 37
1, 19052, Note_off_c, 0, 73, 65
1, 19057, Control_c, 0, 64, 127
1, 19058, Note_off_c, 0, 76, 63
1, 19068, Note_off_c, 0, 57, 61
1, 19069, Note_off_c, 0, 45, 62
1, 19073, Note_off_c, 0, 49, 62
1, 19073, Note_off_c, 0, 81, 67
1, 19083, Note_off_c, 0, 52, 47
1, 19294, Control_c, 0, 64, 102
1, 19309, Control_c, 0, 64, 85
1, 19324, Control_c, 0, 64, 72
1, 19345, Control_c, 0, 64, 56
1, 19360, Control_c, 0, 64, 26
1, 19375, Control_c, 0, 64, 14
1, 19390, Control_c, 0, 64, 0
1, 19525, Note_on_c, 0, 74, 45
1, 19554, Note_off_c, 0, 74, 53
1, 19557, Note_on_c, 0, 73, 61
1, 19583, Control_c, 0, 64, 12
1, 19592, Note_on_c, 0, 71, 55
1, 19598, Control_c, 0, 64, 33
1, 19601, Note_off_c, 0, 73, 64
1, 19612, Control_c, 0, 64, 50
1, 19627, Control_c, 0, 64, 61
1, 19642, Control_c, 0, 64, 66
1, 19656, Control_c, 0, 64, 69
1, 19670, Note_off_c, 0, 71, 65
1, 19671, Control_c, 0, 64, 73
1, 19678, Note_on_c, 0, 73, 57
1, 19686, Control_c, 0, 64, 81
1, 19701, Control_c, 0, 64, 98
1, 19716, Control_c, 0, 64, 127
1, 19727, Note_off_c, 0, 73, 62
1, 19728, Note_on_c, 0, 74, 64
1, 19762, Note_off_c, 0, 74, 61
1, 19790, Control_c, 0, 64, 104
1, 19804, Control_c, 0, 64, 99
1, 19819, Control_c, 0, 64, 94
1, 19835, Control_c, 0, 64, 82
1, 19850, Control_c, 0, 64, 69
1, 19865, Control_c, 0, 64, 57
1, 19876, Note_on_c, 0, 75, 69
1, 19880, Control_c, 0, 64, 43
1, 19884, Note_on_c, 0, 57, 39
1, 19895, Control_c, 0, 64, 42
1, 19909, Control_c, 0, 64, 41
1, 19924, Control_c, 0, 64, 27
1, 19939, Control_c, 0, 64, 0
1, 20109, Note_on_c, 0, 61, 35
1, 20113, Note_on_c, 0, 76, 57
1, 20170, Note_off_c, 0, 75, 42
1, 20210, Note_off_c, 0, 57, 37
1, 20219, Note_off_c, 0, 76, 65
1, 20230, Note_off_c, 0, 61, 55
1, 20236, Note_on_c, 0, 59, 45
1, 20395, Note_on_c, 0, 76, 69
1, 20406, Note_on_c, 0, 62, 48
1, 20411, Note_off_c, 0, 59, 49
1, 20430, Note_off_c, 0, 76, 62
1, 20509, Note_off_c, 0, 62, 45
1, 20556, Note_on_c, 0, 81, 60
1, 20567, Note_on_c, 0, 61, 47
1, 20709, Note_on_c, 0, 64, 44
1, 20719, Note_on_c, 0, 80, 68
1, 20753, Note_off_c, 0, 61, 36
1, 20828, Note_off_c, 0, 81, 51
1, 20874, Note_off_c, 0, 64, 54
1, 20877, Note_on_c, 0, 57, 43
1, 20877, Note_on_c, 0, 78, 70
1, 20993, Note_off_c, 0, 57, 63
1, 21005, Control_c, 0, 64, 23
1, 21019, Note_on_c, 0, 76, 67
1, 21020, Control_c, 0, 64, 38
1, 21023, Note_on_c, 0, 61, 55
1, 21027, Note_off_c, 0, 80, 31
1, 21035, Control_c, 0, 64, 44
1, 21049, Note_off_c, 0, 78, 64
1, 21050, Control_c, 0, 64, 44
1, 21078, Note_off_c, 0, 76, 52
1, 21167, Note_off_c, 0, 61, 55
1, 21183, Note_on_c, 0, 59, 50
1, 21188, Note_on_c, 0, 73, 61
1, 21366, Note_on_c, 0, 74, 56
1, 21370, Note_on_c, 0, 66, 36
1, 21410, Note_off_c, 0, 73, 63
1, 21441, Note_off_c, 0, 74, 64
1, 21469, Note_off_c, 0, 59, 52
1, 21495, Note_on_c, 0, 62, 51
1, 21521, Note_off_c, 0, 66, 36
1, 21653, Note_off_c, 0, 62, 61
1, 21660, Note_on_c, 0, 74, 67
1, 21667, Note_on_c, 0, 59, 50
1, 21717, Note_off_c, 0, 74, 62
1, 21801, Note_off_c, 0, 59, 59
1, 21807, Note_on_c, 0, 76, 63
1, 21818, Note_on_c, 0, 56, 54
1, 21961, Note_off_c, 0, 56, 62
1, 21977, Note_on_c, 0, 74, 67
1, 21994, Note_on_c, 0, 59, 45
1, 22050, Note_off_c, 0, 76, 45
1, 22124, Note_off_c, 0, 59, 52
1, 22134, Note_on_c, 0, 73, 66
1, 22139, Note_on_c, 0, 52, 47
1, 22190, Note_off_c, 0, 74, 51
1, 22278, Note_on_c, 0, 71, 69
1, 22282, Note_off_c, 0, 52, 52
1, 22299, Note_off_c, 0, 73, 64
1, 22307, Note_on_c, 0, 62, 54
1, 22310, Note_off_c, 0, 71, 62
1, 22426, Note_off_c, 0, 62, 55
1, 22461, Note_on_c, 0, 68, 54
1, 22462, Note_on_c, 0, 61, 43
1, 22636, Control_c, 0, 64, 44
1, 22641, Note_on_c, 0, 69, 56
1, 22644, Note_on_c, 0, 64, 40
1, 22681, Note_off_c, 0, 69, 64
1, 22688, Note_off_c, 0, 68, 61
1, 22695, Control_c, 0, 64, 43
1, 22737, Note_off_c, 0, 64, 47
1, 22782, Note_off_c, 0, 61, 40
1, 22786, Note_on_c, 0, 56, 51
1, 22931, Note_on_c, 0, 71, 67
1, 22939, Note_on_c, 0, 64, 51
1, 22972, Note_off_c, 0, 71, 64
1, 22986, Note_off_c, 0, 56, 49
1, 22992, Control_c, 0, 64, 44
1, 23052, Control_c, 0, 64, 44
1, 23089, Control_c, 0, 64, 45
1, 23097, Note_on_c, 0, 72, 70
1, 23107, Note_on_c, 0, 57, 52
1, 23112, Note_off_c, 0, 64, 57
1, 23252, Control_c, 0, 64, 45
1, 23266, Note_on_c, 0, 73, 74
1, 23282, Control_c, 0, 64, 46
1, 23283, Note_on_c, 0, 64, 44
1, 23300, Note_off_c, 0, 72, 66
1, 23312, Control_c, 0, 64, 46
1, 23328, Note_off_c, 0, 73, 65
1, 23337, Note_off_c, 0, 57, 51
1, 23341, Control_c, 0, 64, 47
1, 23370, Control_c, 0, 64, 48
1, 23385, Control_c, 0, 64, 48
1, 23397, Note_on_c, 0, 54, 58
1, 23444, Control_c, 0, 64, 49
1, 23477, Note_off_c, 0, 64, 34
1, 23532, Note_on_c, 0, 57, 51
1, 23535, Note_off_c, 0, 54, 61
1, 23550, Note_on_c, 0, 76, 75
1, 23629, Note_on_c, 0, 74, 78
1, 23695, Note_off_c, 0, 57, 61
1, 23704, Note_off_c, 0, 76, 58
1, 23706, Note_on_c, 0, 52, 43
1, 23716, Note_on_c, 0, 73, 78
1, 23780, Note_off_c, 0, 74, 59
1, 23895, Note_on_c, 0, 57, 68
1, 23944, Note_off_c, 0, 52, 55
1, 24037, Note_on_c, 0, 61, 66
1, 24039, Note_off_c, 0, 57, 59
1, 24183, Note_off_c, 0, 73, 65
1, 24192, Note_on_c, 0, 74, 67
1, 24194, Note_on_c, 0, 57, 56
1, 24209, Note_off_c, 0, 61, 51
1, 24258, Note_off_c, 0, 74, 61
1, 24268, Note_on_c, 0, 73, 73
1, 24325, Note_off_c, 0, 73, 64
1, 24326, Note_on_c, 0, 71, 78
1, 24340, Note_on_c, 0, 52, 48
1, 24343, Note_off_c, 0, 57, 56
1, 24346, Note_on_c, 0, 56, 45
1, 24361, Note_off_c, 0, 71, 65
1, 24489, Control_c, 0, 64, 48
1, 24491, Note_on_c, 0, 73, 78
1, 24525, Note_off_c, 0, 73, 64
1, 24585, Control_c, 0, 64, 48
1, 24632, Note_on_c, 0, 74, 85
1, 24665, Note_off_c, 0, 74, 65
1, 24686, Note_off_c, 0, 52, 60
1, 24711, Note_off_c, 0, 56, 64
1, 24780, Note_on_c, 0, 75, 84
1, 24820, Note_off_c, 0, 75, 57
1, 24934, Note_on_c, 0, 75, 74
1, 24942, Note_on_c, 0, 57, 53
1, 25121, Note_on_c, 0, 76, 65
1, 25144, Note_on_c, 0, 61, 48
1, 25153, Note_off_c, 0, 75, 62
1, 25189, Note_off_c, 0, 57, 57
1, 25223, Note_off_c, 0, 76, 65
1, 25259, Note_on_c, 0, 59, 59
1, 25259, Note_off_c, 0, 61, 58
1, 25378, Note_on_c, 0, 78, 67
1, 25420, Note_on_c, 0, 62, 51
1, 25427, Note_on_c, 0, 76, 70
1, 25448, Note_off_c, 0, 78, 61
1, 25462, Note_on_c, 0, 75, 75
1, 25467, Note_off_c, 0, 76, 63
1, 25482, Note_off_c, 0, 59, 31
1, 25509, Note_on_c, 0, 76, 68
1, 25509, Note_off_c, 0, 75, 64
1, 25534, Note_off_c, 0, 62, 53
1, 25559, Note_on_c, 0, 81, 84
1, 25567, Note_off_c, 0, 76, 64
1, 25578, Note_on_c, 0, 61, 52
1, 25595, Note_off_c, 0, 81, 67
1, 25632, Control_c, 0, 64, 48
1, 25676, Control_c, 0, 64, 49
1, 25691, Control_c, 0, 64, 49
1, 25706, Control_c, 0, 64, 50
1, 25716, Note_on_c, 0, 80, 83
1, 25721, Control_c, 0, 64, 51
1, 25742, Note_on_c, 0, 64, 50
1, 25761, Note_off_c, 0, 80, 66
1, 25862, Note_on_c, 0, 78, 86
1, 25867, Note_off_c, 0, 61, 22
1, 25867, Note_off_c, 0, 64, 59
1, 25881, Note_on_c, 0, 57, 54
1, 25911, Note_off_c, 0, 78, 63
1, 25943, Control_c, 0, 64, 50
1, 25998, Note_off_c, 0, 57, 64
1, 26010, Note_on_c, 0, 76, 78
1, 26013, Note_on_c, 0, 61, 58
1, 26038, Note_off_c, 0, 76, 63
1, 26171, Note_off_c, 0, 61, 53
1, 26174, Note_on_c, 0, 59, 52
1, 26175, Note_on_c, 0, 73, 67
1, 26360, Note_on_c, 0, 74, 63
1, 26362, Note_on_c, 0, 66, 46
1, 26370, Note_off_c, 0, 73, 58
1, 26410, Control_c, 0, 64, 52
1, 26425, Control_c, 0, 64, 53
1, 26440, Control_c, 0, 64, 53
1, 26448, Note_off_c, 0, 59, 51
1, 26459, Note_off_c, 0, 74, 64
1, 26484, Note_off_c, 0, 66, 51
1, 26489, Note_on_c, 0, 62, 55
1, 26529, Control_c, 0, 64, 53
1, 26543, Control_c, 0, 64, 51
1, 26558, Control_c, 0, 64, 51
1, 26573, Control_c, 0, 64, 50
1, 26609, Note_on_c, 0, 76, 60
1, 26623, Note_off_c, 0, 62, 60
1, 26645, Note_on_c, 0, 59, 46
1, 26645, Note_off_c, 0, 76, 65
1, 26660, Note_on_c, 0, 74, 61
1, 26690, Note_off_c, 0, 74, 66
1, 26698, Note_on_c, 0, 73, 55
1, 26735, Note_off_c, 0, 73, 65
1, 26749, Note_on_c, 0, 74, 66
1, 26766, Note_off_c, 0, 59, 55
1, 26790, Note_on_c, 0, 76, 71
1, 26790, Note_off_c, 0, 74, 64
1, 26792, Note_on_c, 0, 56, 52
1, 26836, Note_off_c, 0, 76, 60
1, 26942, Note_off_c, 0, 56, 62
1, 26956, Note_on_c, 0, 74, 60
1, 26964, Note_on_c, 0, 59, 53
1, 26991, Note_off_c, 0, 74, 64
1, 27077, Note_off_c, 0, 59, 56
1, 27104, Note_on_c, 0, 73, 67
1, 27110, Note_on_c, 0, 52, 45
1, 27148, Note_off_c, 0, 73, 60
1, 27259, Note_on_c, 0, 71, 67
1, 27268, Note_on_c, 0, 56, 50
1, 27294, Note_off_c, 0, 71, 57
1, 27300, Note_off_c, 0, 52, 34
1, 27426, Control_c, 0, 64, 44
1, 27434, Note_on_c, 0, 73, 73
1, 27441, Note_off_c, 0, 56, 61
1, 27441, Control_c, 0, 64, 18
1, 27446, Note_on_c, 0, 57, 51
1, 27456, Control_c, 0, 64, 0
1, 27485, Control_c, 0, 64, 36
1, 27500, Control_c, 0, 64, 59
1, 27515, Control_c, 0, 64, 68
1, 27530, Control_c, 0, 64, 81
1, 27544, Control_c, 0, 64, 106
1, 27559, Control_c, 0, 64, 127
1, 27673, Note_on_c, 0, 76, 77
1, 27679, Note_off_c, 0, 73, 63
1, 27698, Note_off_c, 0, 76, 69
1, 27744, Control_c, 0, 64, 91
1, 27759, Control_c, 0, 64, 64
1, 27765, Note_on_c, 0, 66, 80
1, 27774, Control_c, 0, 64, 0
1, 27779, Note_on_c, 0, 50, 50
1, 27781, Note_on_c, 0, 62, 55
1, 27819, Control_c, 0, 64, 17
1, 27834, Control_c, 0, 64, 48
1, 27849, Control_c, 0, 64, 57
1, 27849, Note_off_c, 0, 57, 38
1, 27864, Control_c, 0, 64, 63
1, 27879, Control_c, 0, 64, 68
1, 27894, Control_c, 0, 64, 74
1, 27909, Control_c, 0, 64, 85
1, 27923, Control_c, 0, 64, 104
1, 27929, Note_off_c, 0, 62, 54
1, 27938, Control_c, 0, 64, 127
1, 28009, Note_on_c, 0, 71, 74
1, 28017, Note_off_c, 0, 66, 61
1, 28042, Note_off_c, 0, 71, 63
1, 28067, Note_off_c, 0, 50, 63
1, 28070, Control_c, 0, 64, 112
1, 28085, Control_c, 0, 64, 69
1, 28096, Note_on_c, 0, 69, 84
1, 28100, Control_c, 0, 64, 0
1, 28109, Note_on_c, 0, 61, 70
1, 28112, Note_on_c, 0, 52, 52
1, 28144, Control_c, 0, 64, 29
1, 28159, Control_c, 0, 64, 54
1, 28174, Control_c, 0, 64, 60
1, 28189, Control_c, 0, 64, 64
1, 28204, Control_c, 0, 64, 67
1, 28219, Control_c, 0, 64, 73
1, 28233, Control_c, 0, 64, 85
1, 28248, Control_c, 0, 64, 106
1, 28263, Control_c, 0, 64, 127
1, 28275, Note_off_c, 0, 61, 60
1, 28293, Note_off_c, 0, 69, 62
1, 28403, Control_c, 0, 64, 96
1, 28412, Note_on_c, 0, 68, 77
1, 28418, Control_c, 0, 64, 65
1, 28426, Note_on_c, 0, 59, 63
1, 28433, Control_c, 0, 64, 0
1, 28460, Note_off_c, 0, 68, 60
1, 28463, Control_c, 0, 64, 53
1, 28465, Note_on_c, 0, 69, 65
1, 28478, Control_c, 0, 64, 66
1, 28493, Control_c, 0, 64, 74
1, 28494, Note_off_c, 0, 69, 65
1, 28508, Control_c, 0, 64, 85
1, 28522, Control_c, 0, 64, 112
1, 28537, Control_c, 0, 64, 127
1, 28544, Note_on_c, 0, 69, 74
1, 28574, Note_on_c, 0, 68, 55
1, 28579, Note_off_c, 0, 69, 58
1, 28634, Note_on_c, 0, 66, 71
1, 28648, Note_off_c, 0, 68, 62
1, 28654, Note_off_c, 0, 59, 57
1, 28679, Note_off_c, 0, 66, 59
1, 28686, Control_c, 0, 64, 92
1, 28701, Control_c, 0, 64, 63
1, 28710, Note_on_c, 0, 69, 70
1, 28716, Control_c, 0, 64, 0
1, 28725, Note_on_c, 0, 57, 71
1, 28761, Control_c, 0, 64, 49
1, 28764, Note_off_c, 0, 52, 40
1, 28776, Control_c, 0, 64, 69
1, 28790, Control_c, 0, 64, 86
1, 28795, Note_on_c, 0, 76, 70
1, 28798, Note_off_c, 0, 69, 41
1, 28805, Control_c, 0, 64, 127
1, 28856, Note_off_c, 0, 57, 63
1, 28858, Note_off_c, 0, 76, 63
1, 28878, Note_on_c, 0, 75, 69
1, 28909, Control_c, 0, 64, 99
1, 28924, Control_c, 0, 64, 91
1, 28925, Note_off_c, 0, 75, 49
1, 28938, Control_c, 0, 64, 82
1, 28946, Note_on_c, 0, 76, 70
1, 28953, Control_c, 0, 64, 66
1, 28968, Control_c, 0, 64, 0
1, 29015, Note_off_c, 0, 76, 63
1, 29021, Note_on_c, 0, 78, 79
1, 29103, Note_off_c, 0, 78, 61
1, 29116, Note_on_c, 0, 76, 55
1, 29157, Note_off_c, 0, 76, 65
1, 29173, Note_on_c, 0, 69, 72
1, 29178, Note_on_c, 0, 75, 62
1, 29196, Note_off_c, 0, 69, 69
1, 29230, Note_off_c, 0, 75, 54
1, 29241, Note_on_c, 0, 76, 66
1, 29292, Note_off_c, 0, 76, 63
1, 29313, Note_on_c, 0, 71, 77
1, 29322, Note_on_c, 0, 74, 69
1, 29348, Note_off_c, 0, 71, 59
1, 29355, Note_off_c, 0, 74, 60
1, 29404, Note_on_c, 0, 76, 57
1, 29449, Note_off_c, 0, 76, 63
1, 29480, Note_on_c, 0, 74, 59
1, 29483, Note_on_c, 0, 69, 64
1, 29510, Note_off_c, 0, 69, 67
1, 29521, Note_off_c, 0, 74, 61
1, 29551, Note_on_c, 0, 76, 62
1, 29591, Note_off_c, 0, 76, 60
1, 29626, Note_on_c, 0, 74, 65
1, 29634, Note_on_c, 0, 68, 62
1, 29664, Note_off_c, 0, 74, 58
1, 29665, Note_off_c, 0, 68, 64
1, 29692, Note_on_c, 0, 76, 68
1, 29742, Note_off_c, 0, 76, 59
1, 29772, Note_on_c, 0, 64, 63
1, 29774, Note_on_c, 0, 74, 68
1, 29806, Note_off_c, 0, 64, 62
1, 29819, Note_off_c, 0, 74, 61
1, 29853, Note_on_c, 0, 76, 59
1, 29921, Note_off_c, 0, 76, 63
1, 29925, Note_on_c, 0, 69, 72
1, 29936, Note_on_c, 0, 73, 58
1, 29961, Control_c, 0, 64, 35
1, 29974, Note_off_c, 0, 73, 61
1, 29976, Control_c, 0, 64, 63
1, 29989, Note_off_c, 0, 69, 63
1, 29991, Control_c, 0, 64, 74
1, 30000, Note_on_c, 0, 76, 58
1, 30006, Control_c, 0, 64, 96
1, 30020, Control_c, 0, 64, 127
1, 30060, Note_off_c, 0, 76, 57
1, 30085, Note_on_c, 0, 75, 67
1, 30134, Note_off_c, 0, 75, 53
1, 30155, Note_on_c, 0, 76, 61
1, 30222, Note_off_c, 0, 76, 64
1, 30225, Note_on_c, 0, 78, 78
1, 30229, Control_c, 0, 64, 96
1, 30243, Control_c, 0, 64, 72
1, 30258, Control_c, 0, 64, 58
1, 30273, Control_c, 0, 64, 32
1, 30288, Control_c, 0, 64, 24
1, 30303, Control_c, 0, 64, 20
1, 30305, Note_on_c, 0, 76, 68
1, 30309, Note_off_c, 0, 78, 60
1, 30317, Control_c, 0, 64, 17
1, 30368, Note_off_c, 0, 76, 63
1, 30377, Note_on_c, 0, 57, 85
1, 30380, Note_on_c, 0, 75, 68
1, 30419, Note_off_c, 0, 57, 64
1, 30433, Note_off_c, 0, 75, 50
1, 30442, Note_on_c, 0, 76, 60
1, 30503, Note_off_c, 0, 76, 63
1, 30527, Note_on_c, 0, 59, 86
1, 30527, Note_on_c, 0, 74, 69
1, 30569, Note_off_c, 0, 74, 58
1, 30586, Note_off_c, 0, 59, 63
1, 30613, Note_on_c, 0, 76, 58
1, 30667, Note_off_c, 0, 76, 60
1, 30692, Note_on_c, 0, 57, 87
1, 30696, Note_on_c, 0, 74, 70
1, 30732, Note_off_c, 0, 57, 61
1, 30738, Note_off_c, 0, 74, 59
1, 30774, Note_on_c, 0, 76, 65
1, 30823, Note_off_c, 0, 76, 61
1, 30844, Note_on_c, 0, 74, 74
1, 30845, Note_on_c, 0, 56, 76
1, 30890, Note_off_c, 0, 74, 54
1, 30902, Note_off_c, 0, 56, 59
1, 30921, Note_on_c, 0, 76, 65
1, 30958, Note_off_c, 0, 76, 61
1, 30988, Note_on_c, 0, 52, 70
1, 30989, Note_on_c, 0, 74, 71
1, 31012, Note_off_c, 0, 52, 68
1, 31026, Note_off_c, 0, 74, 55
1, 31052, Note_on_c, 0, 76, 69
1, 31052, Control_c, 0, 64, 16
1, 31066, Control_c, 0, 64, 0
1, 31133, Note_on_c, 0, 57, 62
1, 31138, Note_off_c, 0, 76, 61
1, 31150, Note_on_c, 0, 73, 65
1, 31155, Control_c, 0, 64, 53
1, 31167, Note_off_c, 0, 57, 63
1, 31170, Control_c, 0, 64, 74
1, 31185, Control_c, 0, 64, 127
1, 31208, Note_on_c, 0, 64, 60
1, 31241, Note_off_c, 0, 73, 64
1, 31256, Note_off_c, 0, 64, 54
1, 31288, Note_on_c, 0, 63, 55
1, 31334, Note_off_c, 0, 63, 63
1, 31358, Note_on_c, 0, 64, 67
1, 31403, Note_off_c, 0, 64, 50
1, 31414, Control_c, 0, 64, 81
1, 31429, Control_c, 0, 64, 63
1, 31438, Note_on_c, 0, 66, 68
1, 31444, Control_c, 0, 64, 0
1, 31479, Note_off_c, 0, 66, 62
1, 31526, Note_on_c, 0, 64, 65
1, 31577, Note_on_c, 0, 81, 80
1, 31587, Note_off_c, 0, 64, 57
1, 31590, Note_on_c, 0, 63, 62
1, 31607, Note_off_c, 0, 81, 65
1, 31624, Note_off_c, 0, 63, 63
1, 31674, Note_on_c, 0, 64, 55
1, 31716, Note_off_c, 0, 64, 62
1, 31719, Note_on_c, 0, 83, 90
1, 31736, Note_on_c, 0, 62, 67
1, 31743, Note_off_c, 0, 83, 67
1, 31797, Note_off_c, 0, 62, 53
1, 31828, Note_on_c, 0, 64, 52
1, 31861, Note_off_c, 0, 64, 61
1, 31878, Note_on_c, 0, 81, 81
1, 31883, Note_on_c, 0, 62, 65
1, 31900, Note_off_c, 0, 81, 67
1, 31931, Note_off_c, 0, 62, 55
1, 31946, Note_on_c, 0, 64, 61
1, 31995, Note_off_c, 0, 64, 59
1, 32020, Note_on_c, 0, 80, 89
1, 32039, Note_on_c, 0, 62, 58
1, 32064, Note_off_c, 0, 80, 64
1, 32079, Note_off_c, 0, 62, 64
1, 32103, Note_on_c, 0, 64, 61
1, 32147, Note_off_c, 0, 64, 59
1, 32165, Note_on_c, 0, 62, 51
1, 32183, Note_on_c, 0, 76, 81
1, 32210, Note_off_c, 0, 76, 66
1, 32213, Note_off_c, 0, 62, 63
1, 32239, Note_on_c, 0, 64, 40
1, 32298, Note_off_c, 0, 64, 60
1, 32320, Note_on_c, 0, 61, 62
1, 32320, Note_on_c, 0, 81, 84
1, 32340, Control_c, 0, 64, 55
1, 32355, Control_c, 0, 64, 79
1, 32357, Note_off_c, 0, 81, 67
1, 32358, Note_off_c, 0, 61, 61
1, 32369, Control_c, 0, 64, 127
1, 32401, Note_on_c, 0, 64, 64
1, 32444, Note_off_c, 0, 64, 58
1, 32469, Note_on_c, 0, 63, 56
1, 32512, Note_off_c, 0, 63, 63
1, 32548, Note_on_c, 0, 64, 61
1, 32621, Note_on_c, 0, 66, 70
1, 32621, Note_off_c, 0, 64, 36
1, 32652, Control_c, 0, 64, 98
1, 32667, Control_c, 0, 64, 72
1, 32670, Note_off_c, 0, 66, 59
1, 32682, Control_c, 0, 64, 56
1, 32697, Control_c, 0, 64, 18
1, 32707, Note_on_c, 0, 64, 60
1, 32711, Control_c, 0, 64, 12
1, 32792, Note_on_c, 0, 45, 91
1, 32792, Note_on_c, 0, 63, 69
1, 32806, Note_off_c, 0, 64, 53
1, 32837, Control_c, 0, 64, 10
1, 32852, Control_c, 0, 64, 8
1, 32863, Note_off_c, 0, 45, 63
1, 32864, Note_off_c, 0, 63, 62
1, 32889, Note_on_c, 0, 64, 64
1, 32951, Note_on_c, 0, 47, 96
1, 32961, Note_off_c, 0, 64, 63
1, 32968, Note_on_c, 0, 62, 71
1, 32999, Note_off_c, 0, 47, 63
1, 33045, Note_off_c, 0, 62, 63
1, 33061, Note_on_c, 0, 64, 64
1, 33104, Note_on_c, 0, 45, 89
1, 33114, Note_off_c, 0, 64, 59
1, 33124, Note_on_c, 0, 62, 66
1, 33163, Control_c, 0, 64, 10
1, 33165, Note_off_c, 0, 45, 62
1, 33192, Note_off_c, 0, 62, 63
1, 33209, Note_on_c, 0, 64, 61
1, 33262, Note_off_c, 0, 64, 57
1, 33269, Note_on_c, 0, 44, 86
1, 33277, Note_on_c, 0, 62, 71
1, 33344, Note_off_c, 0, 44, 63
1, 33344, Note_off_c, 0, 62, 62
1, 33369, Note_on_c, 0, 64, 64
1, 33406, Note_off_c, 0, 64, 62
1, 33426, Note_on_c, 0, 62, 64
1, 33436, Note_on_c, 0, 40, 77
1, 33463, Note_off_c, 0, 62, 63
1, 33487, Note_off_c, 0, 40, 53
1, 33508, Note_on_c, 0, 64, 52
1, 33551, Note_off_c, 0, 64, 59
1, 33572, Control_c, 0, 64, 8
1, 33586, Control_c, 0, 64, 0
1, 33620, Note_on_c, 0, 45, 68
1, 33620, Note_on_c, 0, 61, 52
1, 33675, Control_c, 0, 64, 36
1, 33690, Control_c, 0, 64, 63
1, 33699, Note_off_c, 0, 45, 63
1, 33705, Control_c, 0, 64, 76
1, 33720, Control_c, 0, 64, 127
1, 33753, Note_off_c, 0, 61, 59
1, 33986, Control_c, 0, 64, 90
1, 34001, Control_c, 0, 64, 74
1, 34016, Control_c, 0, 64, 65
1, 34031, Control_c, 0, 64, 56
1, 34046, Control_c, 0, 64, 43
1, 34060, Control_c, 0, 64, 30
1, 34075, Control_c, 0, 64, 0
1, 34234, Note_on_c, 0, 61, 43
1, 34253, Note_on_c, 0, 76, 57
1, 34269, Control_c, 0, 64, 16
1, 34283, Control_c, 0, 64, 40
1, 34298, Control_c, 0, 64, 56
1, 34321, Control_c, 0, 64, 63
1, 34323, Note_off_c, 0, 61, 60
1, 34335, Control_c, 0, 64, 68
1, 34350, Control_c, 0, 64, 75
1, 34363, Note_on_c, 0, 69, 48
1, 34365, Control_c, 0, 64, 86
1, 34380, Control_c, 0, 64, 104
1, 34395, Control_c, 0, 64, 127
1, 34410, Note_off_c, 0, 69, 60
1, 34438, Note_on_c, 0, 61, 53
1, 34454, Control_c, 0, 64, 111
1, 34463, Note_off_c, 0, 61, 62
1, 34469, Control_c, 0, 64, 99
1, 34483, Control_c, 0, 64, 91
1, 34498, Control_c, 0, 64, 80
1, 34506, Note_on_c, 0, 69, 51
1, 34513, Control_c, 0, 64, 67
1, 34528, Control_c, 0, 64, 38
1, 34533, Note_off_c, 0, 69, 56
1, 34543, Control_c, 0, 64, 0
1, 34559, Note_on_c, 0, 74, 71
1, 34575, Note_on_c, 0, 59, 53
1, 34609, Note_off_c, 0, 59, 65
1, 34616, Control_c, 0, 64, 48
1, 34630, Note_off_c, 0, 76, 62
1, 34631, Control_c, 0, 64, 61
1, 34646, Control_c, 0, 64, 65
1, 34648, Note_on_c, 0, 69, 46
1, 34661, Control_c, 0, 64, 69
1, 34675, Control_c, 0, 64, 75
1, 34690, Note_off_c, 0, 69, 61
1, 34690, Control_c, 0, 64, 86
1, 34705, Control_c, 0, 64, 109
1, 34719, Note_on_c, 0, 59, 57
1, 34720, Control_c, 0, 64, 127
1, 34735, Control_c, 0, 64, 115
1, 34749, Control_c, 0, 64, 102
1, 34755, Note_off_c, 0, 59, 64
1, 34764, Control_c, 0, 64, 89
1, 34779, Control_c, 0, 64, 78
1, 34780, Note_on_c, 0, 69, 67
1, 34794, Control_c, 0, 64, 67
1, 34808, Control_c, 0, 64, 54
1, 34823, Control_c, 0, 64, 0
1, 34824, Note_off_c, 0, 69, 61
1, 34852, Note_on_c, 0, 73, 71
1, 34852, Note_off_c, 0, 74, 61
1, 34872, Note_on_c, 0, 57, 51
1, 34897, Control_c, 0, 64, 20
1, 34904, Note_off_c, 0, 57, 65
1, 34912, Control_c, 0, 64, 51
1, 34927, Control_c, 0, 64, 65
1, 34935, Note_on_c, 0, 69, 65
1, 34942, Control_c, 0, 64, 74
1, 34956, Control_c, 0, 64, 91
1, 34971, Note_off_c, 0, 69, 62
1, 34971, Control_c, 0, 64, 127
1, 34988, Note_off_c, 0, 73, 62
1, 34999, Note_on_c, 0, 57, 58
1, 35035, Note_off_c, 0, 57, 67
1, 35084, Control_c, 0, 64, 95
1, 35085, Note_on_c, 0, 69, 60
1, 35099, Control_c, 0, 64, 68
1, 35113, Control_c, 0, 64, 12
1, 35128, Control_c, 0, 64, 0
1, 35134, Note_off_c, 0, 69, 54
1, 35143, Control_c, 0, 64, 38
1, 35158, Control_c, 0, 64, 64
1, 35163, Note_on_c, 0, 78, 70
1, 35173, Control_c, 0, 64, 78
1, 35181, Note_on_c, 0, 62, 49
1, 35187, Control_c, 0, 64, 100
1, 35198, Note_off_c, 0, 78, 63
1, 35202, Control_c, 0, 64, 127
1, 35209, Note_off_c, 0, 62, 61
1, 35246, Note_on_c, 0, 69, 62
1, 35310, Note_off_c, 0, 69, 61
1, 35329, Note_on_c, 0, 80, 62
1, 35333, Note_on_c, 0, 68, 58
1, 35350, Control_c, 0, 64, 111
1, 35353, Note_on_c, 0, 78, 67
1, 35356, Note_off_c, 0, 80, 66
1, 35365, Control_c, 0, 64, 81
1, 35378, Note_off_c, 0, 68, 61
1, 35379, Control_c, 0, 64, 67
1, 35385, Note_off_c, 0, 78, 65
1, 35394, Control_c, 0, 64, 59
1, 35409, Control_c, 0, 64, 56
1, 35413, Note_on_c, 0, 76, 63
1, 35423, Control_c, 0, 64, 54
1, 35429, Note_on_c, 0, 69, 35
1, 35438, Control_c, 0, 64, 47
1, 35453, Control_c, 0, 64, 16
1, 35454, Note_off_c, 0, 76, 61
1, 35459, Note_off_c, 0, 69, 49
1, 35462, Note_on_c, 0, 78, 74
1, 35468, Control_c, 0, 64, 0
1, 35472, Note_on_c, 0, 62, 46
1, 35488, Note_off_c, 0, 78, 68
1, 35499, Note_off_c, 0, 62, 60
1, 35538, Note_on_c, 0, 69, 61
1, 35577, Note_off_c, 0, 69, 60
1, 35602, Note_on_c, 0, 80, 76
1, 35621, Note_on_c, 0, 68, 50
1, 35629, Note_off_c, 0, 80, 66
1, 35653, Note_off_c, 0, 68, 60
1, 35697, Note_on_c, 0, 69, 45
1, 35736, Note_off_c, 0, 69, 58
1, 35760, Note_on_c, 0, 83, 67
1, 35764, Note_on_c, 0, 62, 40
1, 35816, Note_off_c, 0, 62, 60
1, 35848, Note_on_c, 0, 69, 49
1, 35912, Note_off_c, 0, 69, 53
1, 35930, Note_on_c, 0, 81, 66
1, 35940, Note_on_c, 0, 68, 54
1, 35954, Note_off_c, 0, 83, 65
1, 35969, Note_off_c, 0, 81, 65
1, 35981, Note_off_c, 0, 68, 62
1, 36008, Note_on_c, 0, 69, 50
1, 36052, Note_off_c, 0, 69, 60
1, 36077, Note_on_c, 0, 80, 72
1, 36085, Note_on_c, 0, 62, 45
1, 36129, Note_off_c, 0, 62, 62
1, 36157, Note_on_c, 0, 69, 50
1, 36214, Note_off_c, 0, 69, 58
1, 36235, Note_on_c, 0, 78, 72
1, 36244, Note_on_c, 0, 68, 53
1, 36266, Note_off_c, 0, 80, 64
1, 36282, Note_off_c, 0, 78, 61
1, 36282, Note_off_c, 0, 68, 63
1, 36313, Note_on_c, 0, 69, 52
1, 36357, Note_off_c, 0, 69, 60
1, 36379, Note_on_c, 0, 76, 67
1, 36383, Note_on_c, 0, 61, 51
1, 36410, Control_c, 0, 64, 18
1, 36425, Control_c, 0, 64, 36
1, 36437, Note_off_c, 0, 61, 56
1, 36440, Control_c, 0, 64, 49
1, 36455, Control_c, 0, 64, 59
1, 36468, Note_on_c, 0, 69, 54
1, 36470, Control_c, 0, 64, 69
1, 36480, Note_off_c, 0, 76, 64
1, 36485, Control_c, 0, 64, 84
1, 36500, Control_c, 0, 64, 127
1, 36529, Note_off_c, 0, 69, 58
1, 36562, Note_on_c, 0, 68, 54
1, 36607, Note_off_c, 0, 68, 61
1, 36644, Note_on_c, 0, 69, 61
1, 36700, Control_c, 0, 64, 112
1, 36715, Control_c, 0, 64, 106
1, 36716, Note_off_c, 0, 69, 58
1, 36720, Note_on_c, 0, 76, 77
1, 36725, Note_on_c, 0, 61, 54
1, 36730, Control_c, 0, 64, 94
1, 36745, Control_c, 0, 64, 78
1, 36759, Control_c, 0, 64, 62
1, 36773, Note_off_c, 0, 61, 57
1, 36774, Control_c, 0, 64, 12
1, 36789, Control_c, 0, 64, 0
1, 36819, Control_c, 0, 64, 24
1, 36827, Note_on_c, 0, 69, 59
1, 36833, Control_c, 0, 64, 48
1, 36848, Control_c, 0, 64, 58
1, 36863, Control_c, 0, 64, 63
1, 36872, Note_off_c, 0, 69, 55
1, 36878, Control_c, 0, 64, 70
1, 36881, Note_on_c, 0, 61, 68
1, 36893, Control_c, 0, 64, 84
1, 36908, Control_c, 0, 64, 127
1, 36936, Note_off_c, 0, 61, 53
1, 36965, Note_on_c, 0, 69, 69
1, 37026, Control_c, 0, 64, 102
1, 37029, Note_off_c, 0, 69, 55
1, 37039, Note_on_c, 0, 59, 68
1, 37041, Control_c, 0, 64, 71
1, 37042, Note_on_c, 0, 74, 86
1, 37056, Control_c, 0, 64, 53
1, 37071, Control_c, 0, 64, 0
1, 37090, Note_off_c, 0, 59, 61
1, 37098, Note_off_c, 0, 76, 58
1, 37100, Control_c, 0, 64, 26
1, 37115, Control_c, 0, 64, 42
1, 37130, Control_c, 0, 64, 55
1, 37132, Note_on_c, 0, 69, 69
1, 37145, Control_c, 0, 64, 62
1, 37159, Control_c, 0, 64, 70
1, 37171, Note_off_c, 0, 69, 57
1, 37174, Control_c, 0, 64, 85
1, 37189, Control_c, 0, 64, 127
1, 37198, Note_on_c, 0, 59, 74
1, 37248, Note_off_c, 0, 59, 62
1, 37270, Note_on_c, 0, 69, 77
1, 37328, Note_off_c, 0, 69, 61
1, 37345, Note_on_c, 0, 73, 84
1, 37345, Control_c, 0, 64, 86
1, 37355, Note_on_c, 0, 57, 69
1, 37356, Note_off_c, 0, 74, 52
1, 37359, Control_c, 0, 64, 66
1, 37374, Control_c, 0, 64, 26
1, 37389, Control_c, 0, 64, 0
1, 37393, Note_off_c, 0, 57, 64
1, 37420, Control_c, 0, 64, 10
1, 37433, Note_on_c, 0, 69, 77
1, 37435, Control_c, 0, 64, 53
1, 37449, Control_c, 0, 64, 68
1, 37464, Control_c, 0, 64, 87
1, 37474, Note_off_c, 0, 69, 57
1, 37479, Control_c, 0, 64, 127
1, 37501, Note_on_c, 0, 57, 69
1, 37540, Note_off_c, 0, 57, 63
1, 37569, Note_on_c, 0, 69, 73
1, 37589, Note_off_c, 0, 73, 63
1, 37596, Note_off_c, 0, 69, 66
1, 37626, Control_c, 0, 64, 92
1, 37641, Control_c, 0, 64, 66
1, 37656, Control_c, 0, 64, 0
1, 37662, Note_on_c, 0, 71, 77
1, 37668, Note_on_c, 0, 50, 69
1, 37674, Poly_aftertouch_c, 0, 67, 0
1, 37686, Control_c, 0, 64, 35
1, 37701, Control_c, 0, 64, 57
1, 37716, Control_c, 0, 64, 64
1, 37731, Control_c, 0, 64, 69
1, 37745, Note_off_c, 0, 50, 52
1, 37746, Control_c, 0, 64, 77
1, 37752, Note_on_c, 0, 59, 59
1, 37761, Control_c, 0, 64, 98
1, 37775, Control_c, 0, 64, 127
1, 37817, Note_off_c, 0, 59, 62
1, 37820, Control_c, 0, 64, 98
1, 37822, Note_on_c, 0, 54, 65
1, 37834, Control_c, 0, 64, 83
1, 37849, Control_c, 0, 64, 78
1, 37864, Control_c, 0, 64, 78
1, 37867, Note_off_c, 0, 54, 58
1, 37876, Note_on_c, 0, 78, 78
1, 37879, Control_c, 0, 64, 75
1, 37888, Note_off_c, 0, 71, 61
1, 37894, Control_c, 0, 64, 66
1, 37899, Note_on_c, 0, 59, 59
1, 37908, Control_c, 0, 64, 43
1, 37909, Note_off_c, 0, 78, 66
1, 37923, Control_c, 0, 64, 0
1, 37939, Note_off_c, 0, 59, 58
1, 37967, Note_on_c, 0, 50, 60
1, 37967, Note_on_c, 0, 76, 76
1, 38007, Note_off_c, 0, 50, 64
1, 38038, Note_on_c, 0, 59, 63
1, 38038, Note_on_c, 0, 74, 69
1, 38056, Note_off_c, 0, 76, 57
1, 38096, Note_off_c, 0, 59, 57
1, 38109, Note_on_c, 0, 73, 74
1, 38109, Note_off_c, 0, 74, 64
1, 38118, Note_on_c, 0, 54, 55
1, 38165, Note_off_c, 0, 73, 65
1, 38166, Note_off_c, 0, 54, 63
1, 38180, Note_on_c, 0, 71, 73
1, 38196, Note_on_c, 0, 59, 62
1, 38231, Note_off_c, 0, 59, 64
1, 38258, Note_on_c, 0, 69, 78
1, 38260, Note_off_c, 0, 71, 64
1, 38276, Note_on_c, 0, 52, 51
1, 38330, Note_off_c, 0, 52, 59
1, 38346, Note_on_c, 0, 61, 61
1, 38346, Control_c, 0, 64, 48
1, 38361, Control_c, 0, 64, 63
1, 38376, Control_c, 0, 64, 69
1, 38391, Note_off_c, 0, 61, 58
1, 38391, Control_c, 0, 64, 75
1, 38405, Control_c, 0, 64, 85
1, 38419, Note_on_c, 0, 57, 65
1, 38420, Control_c, 0, 64, 96
1, 38435, Control_c, 0, 64, 114
1, 38439, Note_off_c, 0, 69, 63
1, 38449, Control_c, 0, 64, 127
1, 38461, Note_off_c, 0, 57, 59
1, 38488, Note_on_c, 0, 61, 70
1, 38523, Control_c, 0, 64, 123
1, 38524, Note_off_c, 0, 61, 56
1, 38538, Control_c, 0, 64, 100
1, 38553, Control_c, 0, 64, 81
1, 38565, Note_on_c, 0, 71, 76
1, 38566, Note_on_c, 0, 52, 59
1, 38568, Control_c, 0, 64, 64
1, 38583, Control_c, 0, 64, 0
1, 38598, Note_off_c, 0, 71, 58
1, 38604, Note_off_c, 0, 52, 63
1, 38620, Note_on_c, 0, 73, 64
1, 38642, Control_c, 0, 64, 37
1, 38648, Note_on_c, 0, 62, 56
1, 38656, Control_c, 0, 64, 53
1, 38659, Note_off_c, 0, 73, 57
1, 38663, Note_on_c, 0, 71, 66
1, 38671, Control_c, 0, 64, 62
1, 38680, Note_off_c, 0, 62, 65
1, 38686, Control_c, 0, 64, 69
1, 38701, Control_c, 0, 64, 79
1, 38704, Note_off_c, 0, 71, 66
1, 38713, Note_on_c, 0, 56, 57
1, 38716, Control_c, 0, 64, 97
1, 38717, Note_on_c, 0, 69, 65
1, 38730, Control_c, 0, 64, 127
1, 38735, Note_off_c, 0, 56, 60
1, 38736, Note_off_c, 0, 69, 57
1, 38758, Note_on_c, 0, 71, 74
1, 38760, Control_c, 0, 64, 108
1, 38771, Note_on_c, 0, 62, 60
1, 38775, Control_c, 0, 64, 82
1, 38790, Control_c, 0, 64, 63
1, 38812, Control_c, 0, 64, 0
1, 38816, Note_off_c, 0, 62, 62
1, 38830, Note_on_c, 0, 69, 73
1, 38852, Note_off_c, 0, 71, 62
1, 38863, Note_on_c, 0, 57, 61
1, 38886, Control_c, 0, 64, 18
1, 38901, Control_c, 0, 64, 48
1, 38905, Note_off_c, 0, 57, 63
1, 38916, Control_c, 0, 64, 64
1, 38930, Control_c, 0, 64, 74
1, 38932, Note_off_c, 0, 69, 64
1, 38943, Note_on_c, 0, 64, 55
1, 38945, Control_c, 0, 64, 91
1, 38960, Control_c, 0, 64, 127
1, 38982, Note_off_c, 0, 64, 62
1, 39003, Note_on_c, 0, 61, 56
1, 39029, Note_off_c, 0, 61, 62
1, 39058, Note_on_c, 0, 64, 63
1, 39079, Control_c, 0, 64, 123
1, 39094, Control_c, 0, 64, 86
1, 39101, Note_off_c, 0, 64, 60
1, 39109, Control_c, 0, 64, 68
1, 39124, Control_c, 0, 64, 46
1, 39139, Control_c, 0, 64, 0
1, 39161, Note_on_c, 0, 61, 48
1, 39175, Note_on_c, 0, 76, 69
1, 39213, Control_c, 0, 64, 21
1, 39227, Control_c, 0, 64, 42
1, 39239, Note_off_c, 0, 61, 58
1, 39242, Control_c, 0, 64, 57
1, 39257, Control_c, 0, 64, 64
1, 39272, Control_c, 0, 64, 71
1, 39278, Note_on_c, 0, 69, 52
1, 39287, Control_c, 0, 64, 81
1, 39302, Control_c, 0, 64, 105
1, 39317, Control_c, 0, 64, 127
1, 39323, Note_off_c, 0, 69, 58
1, 39356, Note_on_c, 0, 61, 54
1, 39385, Note_off_c, 0, 61, 62
1, 39421, Note_on_c, 0, 69, 50
1, 39435, Control_c, 0, 64, 104
1, 39450, Control_c, 0, 64, 75
1, 39457, Note_off_c, 0, 69, 59
1, 39465, Control_c, 0, 64, 60
1, 39479, Control_c, 0, 64, 0
1, 39498, Note_on_c, 0, 74, 70
1, 39505, Note_on_c, 0, 59, 56
1, 39549, Note_off_c, 0, 59, 63
1, 39561, Control_c, 0, 64, 16
1, 39576, Control_c, 0, 64, 46
1, 39583, Note_off_c, 0, 76, 62
1, 39591, Control_c, 0, 64, 61
1, 39602, Note_on_c, 0, 69, 51
1, 39605, Control_c, 0, 64, 68
1, 39620, Control_c, 0, 64, 76
1, 39635, Control_c, 0, 64, 93
1, 39642, Note_off_c, 0, 69, 60
1, 39650, Control_c, 0, 64, 127
1, 39658, Note_on_c, 0, 59, 59
1, 39695, Note_off_c, 0, 59, 63
1, 39740, Note_on_c, 0, 69, 60
1, 39768, Control_c, 0, 64, 101
1, 39782, Note_off_c, 0, 69, 60
1, 39783, Control_c, 0, 64, 77
1, 39799, Control_c, 0, 64, 61
1, 39799, Note_on_c, 0, 73, 66
1, 39814, Control_c, 0, 64, 0
1, 39818, Note_off_c, 0, 74, 59
1, 39829, Note_on_c, 0, 57, 53
1, 39858, Control_c, 0, 64, 18
1, 39864, Note_off_c, 0, 57, 65
1, 39873, Control_c, 0, 64, 42
1, 39888, Control_c, 0, 64, 58
1, 39895, Note_on_c, 0, 69, 62
1, 39902, Control_c, 0, 64, 67
1, 39917, Control_c, 0, 64, 83
1, 39930, Note_off_c, 0, 73, 65
1, 39932, Control_c, 0, 64, 127
1, 39934, Note_off_c, 0, 69, 63
1, 39971, Note_on_c, 0, 57, 57
1, 39999, Note_off_c, 0, 57, 66
1, 40044, Note_on_c, 0, 69, 57
1, 40051, Control_c, 0, 64, 113
1, 40066, Control_c, 0, 64, 77
1, 40074, Note_off_c, 0, 69, 59
1, 40081, Control_c, 0, 64, 56
1, 40095, Control_c, 0, 64, 0
1, 40118, Note_on_c, 0, 78, 71
1, 40125, Control_c, 0, 64, 45
1, 40129, Note_on_c, 0, 62, 59
1, 40140, Control_c, 0, 64, 66
1, 40145, Note_off_c, 0, 78, 68
1, 40155, Control_c, 0, 64, 78
1, 40165, Note_off_c, 0, 62, 63
1, 40169, Control_c, 0, 64, 94
1, 40184, Control_c, 0, 64, 127
1, 40217, Note_on_c, 0, 69, 53
1, 40272, Note_off_c, 0, 69, 51
1, 40282, Note_on_c, 0, 80, 65
1, 40306, Note_on_c, 0, 68, 55
1, 40322, Note_off_c, 0, 80, 65
1, 40324, Note_on_c, 0, 78, 73
1, 40340, Control_c, 0, 64, 94
1, 40352, Note_off_c, 0, 68, 59
1, 40355, Control_c, 0, 64, 73
1, 40367, Note_off_c, 0, 78, 62
1, 40370, Control_c, 0, 64, 64
1, 40384, Control_c, 0, 64, 62
1, 40386, Note_on_c, 0, 76, 69
1, 40398, Note_on_c, 0, 69, 28
1, 40399, Control_c, 0, 64, 59
1, 40414, Control_c, 0, 64, 50
1, 40415, Note_off_c, 0, 76, 63
1, 40428, Note_on_c, 0, 62, 53
1, 40428, Control_c, 0, 64, 14
1, 40430, Note_off_c, 0, 69, 47
1, 40432, Note_on_c, 0, 78, 72
1, 40443, Control_c, 0, 64, 0
1, 40464, Note_off_c, 0, 62, 64
1, 40464, Note_off_c, 0, 78, 64
1, 40513, Note_on_c, 0, 69, 52
1, 40560, Note_off_c, 0, 69, 61
1, 40586, Note_on_c, 0, 68, 58
1, 40589, Note_on_c, 0, 80, 72
1, 40616, Note_off_c, 0, 80, 69
1, 40627, Note_off_c, 0, 68, 60
1, 40667, Note_on_c, 0, 69, 60
1, 40731, Note_off_c, 0, 69, 55
1, 40747, Note_on_c, 0, 83, 64
1, 40756, Note_on_c, 0, 62, 53
1, 40802, Note_off_c, 0, 62, 58
1, 40860, Note_on_c, 0, 69, 42
1, 40904, Note_on_c, 0, 81, 66
1, 40915, Note_off_c, 0, 69, 60
1, 40920, Note_on_c, 0, 68, 60
1, 40923, Note_off_c, 0, 83, 64
1, 40940, Note_off_c, 0, 81, 65
1, 40959, Note_off_c, 0, 68, 61
1, 41000, Note_on_c, 0, 69, 58
1, 41057, Note_off_c, 0, 69, 55
1, 41068, Note_on_c, 0, 80, 65
1, 41082, Note_on_c, 0, 62, 52
1, 41138, Note_off_c, 0, 62, 56
1, 41174, Note_on_c, 0, 69, 52
1, 41208, Note_on_c, 0, 78, 70
1, 41215, Note_off_c, 0, 69, 61
1, 41236, Note_on_c, 0, 68, 60
1, 41242, Note_off_c, 0, 80, 64
1, 41262, Note_off_c, 0, 78, 61
1, 41277, Note_off_c, 0, 68, 60
1, 41314, Note_on_c, 0, 69, 47
1, 41360, Note_off_c, 0, 69, 60
1, 41363, Note_on_c, 0, 76, 68
1, 41372, Note_on_c, 0, 61, 55
1, 41385, Control_c, 0, 64, 12
1, 41401, Control_c, 0, 64, 33
1, 41416, Control_c, 0, 64, 46
1, 41424, Note_off_c, 0, 61, 55
1, 41430, Control_c, 0, 64, 54
1, 41445, Control_c, 0, 64, 60
1, 41460, Note_on_c, 0, 69, 58
1, 41460, Control_c, 0, 64, 64
1, 41475, Control_c, 0, 64, 70
1, 41479, Note_off_c, 0, 76, 65
1, 41490, Control_c, 0, 64, 79
1, 41505, Control_c, 0, 64, 106
1, 41519, Control_c, 0, 64, 127
1, 41540, Note_off_c, 0, 69, 58
1, 41554, Note_on_c, 0, 68, 59
1, 41598, Note_off_c, 0, 68, 58
1, 41627, Note_on_c, 0, 69, 60
1, 41682, Control_c, 0, 64, 106
1, 41697, Control_c, 0, 64, 81
1, 41699, Note_on_c, 0, 76, 81
1, 41704, Note_off_c, 0, 69, 55
1, 41712, Control_c, 0, 64, 67
1, 41717, Note_on_c, 0, 61, 62
1, 41727, Control_c, 0, 64, 55
1, 41741, Control_c, 0, 64, 29
1, 41756, Control_c, 0, 64, 0
1, 41779, Note_off_c, 0, 61, 59
1, 41809, Control_c, 0, 64, 25
1, 41818, Note_on_c, 0, 69, 72
1, 41823, Control_c, 0, 64, 53
1, 41838, Control_c, 0, 64, 65
1, 41853, Control_c, 0, 64, 72
1, 41868, Control_c, 0, 64, 81
1, 41878, Note_off_c, 0, 69, 55
1, 41882, Control_c, 0, 64, 105
1, 41889, Note_on_c, 0, 61, 69
1, 41897, Control_c, 0, 64, 127
1, 41925, Note_off_c, 0, 61, 56
1, 41954, Note_on_c, 0, 69, 71
1, 42020, Note_on_c, 0, 74, 83
1, 42030, Control_c, 0, 64, 96
1, 42032, Note_off_c, 0, 69, 60
1, 42040, Note_on_c, 0, 59, 67
1, 42045, Control_c, 0, 64, 68
1, 42060, Control_c, 0, 64, 0
1, 42066, Note_off_c, 0, 76, 60
1, 42082, Note_off_c, 0, 59, 60
1, 42104, Control_c, 0, 64, 26
1, 42116, Note_on_c, 0, 69, 69
1, 42119, Control_c, 0, 64, 57
1, 42134, Control_c, 0, 64, 66
1, 42148, Control_c, 0, 64, 73
1, 42163, Control_c, 0, 64, 86
1, 42171, Note_off_c, 0, 69, 49
1, 42178, Control_c, 0, 64, 104
1, 42184, Note_on_c, 0, 59, 76
1, 42194, Control_c, 0, 64, 127
1, 42235, Note_off_c, 0, 59, 60
1, 42261, Note_on_c, 0, 69, 76
1, 42296, Control_c, 0, 64, 96
1, 42311, Control_c, 0, 64, 73
1, 42315, Note_off_c, 0, 69, 62
1, 42318, Note_on_c, 0, 73, 82
1, 42326, Control_c, 0, 64, 51
1, 42328, Note_off_c, 0, 74, 57
1, 42339, Note_on_c, 0, 57, 68
1, 42341, Control_c, 0, 64, 0
1, 42356, Control_c, 0, 64, 22
1, 42370, Control_c, 0, 64, 48
1, 42384, Note_off_c, 0, 57, 60
1, 42385, Control_c, 0, 64, 59
1, 42400, Control_c, 0, 64, 64
1, 42415, Control_c, 0, 64, 68
1, 42417, Note_on_c, 0, 69, 76
1, 42430, Control_c, 0, 64, 77
1, 42444, Control_c, 0, 64, 96
1, 42455, Note_off_c, 0, 69, 61
1, 42459, Control_c, 0, 64, 127
1, 42488, Note_on_c, 0, 57, 71
1, 42518, Note_off_c, 0, 57, 67
1, 42550, Note_on_c, 0, 69, 80
1, 42566, Note_off_c, 0, 73, 63
1, 42569, Note_off_c, 0, 69, 72
1, 42585, Control_c, 0, 64, 109
1, 42600, Control_c, 0, 64, 76
1, 42615, Control_c, 0, 64, 55
1, 42630, Control_c, 0, 64, 0
1, 42639, Note_on_c, 0, 71, 81
1, 42647, Note_on_c, 0, 50, 67
1, 42659, Control_c, 0, 64, 19
1, 42674, Control_c, 0, 64, 54
1, 42689, Control_c, 0, 64, 64
1, 42703, Control_c, 0, 64, 70
1, 42717, Note_off_c, 0, 50, 54
1, 42718, Control_c, 0, 64, 89
1, 42733, Note_on_c, 0, 59, 60
1, 42733, Control_c, 0, 64, 127
1, 42794, Note_off_c, 0, 59, 62
1, 42801, Note_on_c, 0, 54, 67
1, 42850, Note_off_c, 0, 54, 56
1, 42857, Note_on_c, 0, 78, 79
1, 42861, Note_off_c, 0, 71, 59
1, 42876, Note_on_c, 0, 59, 66
1, 42882, Control_c, 0, 64, 96
1, 42896, Control_c, 0, 64, 66
1, 42900, Note_off_c, 0, 78, 57
1, 42911, Control_c, 0, 64, 38
1, 42914, Note_off_c, 0, 59, 60
1, 42926, Control_c, 0, 64, 28
1, 42941, Control_c, 0, 64, 30
1, 42942, Note_on_c, 0, 76, 78
1, 42951, Note_on_c, 0, 50, 62
1, 42970, Control_c, 0, 64, 26
1, 42986, Control_c, 0, 64, 0
1, 42993, Note_off_c, 0, 50, 62
1, 43014, Note_on_c, 0, 74, 73
1, 43016, Note_off_c, 0, 76, 62
1, 43022, Note_on_c, 0, 59, 59
1, 43073, Note_off_c, 0, 59, 58
1, 43078, Note_on_c, 0, 73, 73
1, 43081, Note_off_c, 0, 74, 64
1, 43104, Note_on_c, 0, 54, 57
1, 43138, Note_off_c, 0, 73, 64
1, 43144, Note_off_c, 0, 54, 64
1, 43148, Note_on_c, 0, 71, 74
1, 43174, Note_on_c, 0, 59, 64
1, 43203, Note_off_c, 0, 59, 65
1, 43234, Note_on_c, 0, 69, 79
1, 43237, Note_off_c, 0, 71, 63
1, 43245, Note_on_c, 0, 52, 61
1, 43282, Control_c, 0, 64, 36
1, 43299, Note_off_c, 0, 52, 59
1, 43305, Control_c, 0, 64, 53
1, 43319, Control_c, 0, 64, 64
1, 43325, Note_on_c, 0, 61, 66
1, 43334, Control_c, 0, 64, 69
1, 43349, Control_c, 0, 64, 73
1, 43364, Control_c, 0, 64, 80
1, 43369, Note_off_c, 0, 61, 53
1, 43379, Control_c, 0, 64, 95
1, 43393, Control_c, 0, 64, 127
1, 43408, Note_on_c, 0, 57, 53
1, 43418, Note_off_c, 0, 69, 63
1, 43460, Note_off_c, 0, 57, 61
1, 43466, Note_on_c, 0, 61, 70
1, 43506, Note_off_c, 0, 61, 62
1, 43526, Control_c, 0, 64, 104
1, 43541, Control_c, 0, 64, 69
1, 43543, Note_on_c, 0, 71, 79
1, 43548, Note_on_c, 0, 52, 53
1, 43556, Control_c, 0, 64, 0
1, 43576, Note_off_c, 0, 71, 59
1, 43579, Note_off_c, 0, 52, 57
1, 43586, Control_c, 0, 64, 33
1, 43592, Note_on_c, 0, 73, 71
1, 43600, Control_c, 0, 64, 60
1, 43608, Note_on_c, 0, 62, 64
1, 43615, Control_c, 0, 64, 68
1, 43630, Control_c, 0, 64, 76
1, 43645, Note_off_c, 0, 62, 61
1, 43645, Control_c, 0, 64, 89
1, 43650, Note_on_c, 0, 71, 79
1, 43654, Note_off_c, 0, 73, 61
1, 43660, Control_c, 0, 64, 111
1, 43674, Note_on_c, 0, 56, 54
1, 43675, Control_c, 0, 64, 127
1, 43695, Note_off_c, 0, 71, 62
1, 43701, Note_on_c, 0, 69, 65
1, 43709, Note_off_c, 0, 56, 58
1, 43734, Note_on_c, 0, 62, 74
1, 43738, Note_off_c, 0, 69, 55
1, 43758, Note_on_c, 0, 71, 72
1, 43763, Note_off_c, 0, 62, 62
1, 43795, Control_c, 0, 64, 91
1, 43810, Control_c, 0, 64, 69
1, 43824, Control_c, 0, 64, 45
1, 43839, Control_c, 0, 64, 0
1, 43844, Note_on_c, 0, 69, 80
1, 43851, Note_on_c, 0, 57, 55
1, 43853, Note_off_c, 0, 71, 63
1, 43856, Note_on_c, 0, 61, 69
1, 43907, Note_off_c, 0, 69, 64
1, 43936, Note_on_c, 0, 64, 66
1, 44006, Note_off_c, 0, 64, 59
1, 44009, Note_on_c, 0, 69, 72
1, 44074, Note_off_c, 0, 69, 58
1, 44082, Note_on_c, 0, 73, 77
1, 44086, Note_off_c, 0, 61, 61
1, 44092, Note_off_c, 0, 57, 63
1, 44150, Note_off_c, 0, 73, 65
1, 44154, Note_on_c, 0, 76, 80
1, 44237, Note_off_c, 0, 76, 63
1, 44238, Note_on_c, 0, 73, 79
1, 44302, Note_off_c, 0, 73, 64
1, 44308, Note_on_c, 0, 74, 78
1, 44310, Note_on_c, 0, 59, 75
1, 44319, Note_on_c, 0, 52, 56
1, 44340, Note_off_c, 0, 59, 65
1, 44344, Note_on_c, 0, 56, 36
1, 44344, Note_off_c, 0, 52, 60
1, 44381, Note_off_c, 0, 56, 47
1, 44390, Note_on_c, 0, 71, 79
1, 44400, Note_off_c, 0, 74, 62
1, 44467, Note_on_c, 0, 69, 81
1, 44470, Note_on_c, 0, 61, 76
1, 44474, Note_off_c, 0, 71, 64
1, 44474, Note_on_c, 0, 57, 60
1, 44483, Control_c, 0, 64, 32
1, 44498, Control_c, 0, 64, 60
1, 44513, Control_c, 0, 64, 70
1, 44528, Control_c, 0, 64, 81
1, 44535, Note_off_c, 0, 69, 63
1, 44542, Control_c, 0, 64, 102
1, 44555, Note_on_c, 0, 64, 75
1, 44557, Control_c, 0, 64, 127
1, 44630, Note_on_c, 0, 69, 80
1, 44634, Note_off_c, 0, 64, 58
1, 44697, Note_on_c, 0, 73, 81
1, 44697, Note_off_c, 0, 69, 62
1, 44715, Note_off_c, 0, 61, 59
1, 44723, Note_off_c, 0, 57, 58
1, 44751, Control_c, 0, 64, 96
1, 44763, Note_off_c, 0, 73, 64
1, 44766, Control_c, 0, 64, 76
1, 44771, Note_on_c, 0, 76, 76
1, 44788, Control_c, 0, 64, 63
1, 44803, Control_c, 0, 64, 28
1, 44818, Control_c, 0, 64, 0
1, 44852, Note_off_c, 0, 76, 64
1, 44855, Note_on_c, 0, 73, 79
1, 44921, Note_on_c, 0, 74, 86
1, 44921, Note_off_c, 0, 73, 63
1, 44930, Note_on_c, 0, 59, 60
1, 44941, Note_on_c, 0, 52, 47
1, 44942, Note_on_c, 0, 56, 46
1, 44962, Note_off_c, 0, 59, 65
1, 44970, Note_off_c, 0, 56, 59
1, 44976, Note_off_c, 0, 52, 57
1, 45004, Note_on_c, 0, 71, 78
1, 45022, Note_off_c, 0, 74, 61
1, 45066, Note_on_c, 0, 69, 97
1, 45068, Note_off_c, 0, 71, 65
1, 45074, Note_on_c, 0, 61, 73
1, 45078, Note_on_c, 0, 57, 65
1, 45085, Control_c, 0, 64, 53
1, 45094, Note_off_c, 0, 69, 68
1, 45099, Control_c, 0, 64, 76
1, 45109, Note_off_c, 0, 61, 64
1, 45114, Control_c, 0, 64, 127
1, 45115, Note_off_c, 0, 57, 65
1, 45290, Control_c, 0, 64, 90
1, 45305, Control_c, 0, 64, 66
1, 45320, Control_c, 0, 64, 0
1, 45392, Note_on_c, 0, 80, 95
1, 45396, Note_on_c, 0, 52, 74
1, 45398, Note_on_c, 0, 59, 82
1, 45398, Note_on_c, 0, 71, 79
1, 45399, Note_on_c, 0, 74, 70
1, 45402, Note_on_c, 0, 76, 74
1, 45407, Note_on_c, 0, 56, 71
1, 45410, Control_c, 0, 64, 55
1, 45419, Note_off_c, 0, 71, 71
1, 45425, Control_c, 0, 64, 76
1, 45427, Note_off_c, 0, 74, 67
1, 45429, Note_off_c, 0, 59, 66
1, 45431, Note_off_c, 0, 76, 66
1, 45440, Control_c, 0, 64, 127
1, 45444, Note_off_c, 0, 56, 66
1, 45448, Note_off_c, 0, 80, 66
1, 45452, Note_off_c, 0, 52, 65
1, 45625, Control_c, 0, 64, 119
1, 45640, Control_c, 0, 64, 86
1, 45655, Control_c, 0, 64, 73
1, 45669, Control_c, 0, 64, 63
1, 45684, Control_c, 0, 64, 34
1, 45699, Control_c, 0, 64, 0
1, 45749, Note_on_c, 0, 81, 89
1, 45750, Note_on_c, 0, 73, 84
1, 45751, Note_on_c, 0, 69, 88
1, 45758, Control_c, 0, 64, 45
1, 45759, Note_on_c, 0, 57, 77
1, 45760, Note_on_c, 0, 45, 70
1, 45760, Note_on_c, 0, 76, 60
1, 45763, Note_on_c, 0, 52, 70
1, 45764, Note_on_c, 0, 49, 65
1, 45773, Note_off_c, 0, 69, 67
1, 45773, Control_c, 0, 64, 72
1, 45779, Note_off_c, 0, 76, 64
1, 45782, Note_off_c, 0, 73, 66
1, 45788, Control_c, 0, 64, 127
1, 45793, Note_off_c, 0, 57, 63
1, 45794, Note_off_c, 0, 45, 67
1, 45795, Note_off_c, 0, 52, 68
1, 45798, Note_off_c, 0, 49, 65
1, 45800, Note_off_c, 0, 81, 69
1, 46204, Control_c, 0, 64, 96
1, 46218, Control_c, 0, 64, 83
1, 46233, Control_c, 0, 64, 79
1, 46248, Control_c, 0, 64, 80
1, 46263, Control_c, 0, 64, 79
1, 46278, Control_c, 0, 64, 73
1, 46300, Control_c, 0, 64, 66
1, 46315, Control_c, 0, 64, 62
1, 46330, Control_c, 0, 64, 62
1, 46359, Control_c, 0, 64, 61
1, 46374, Control_c, 0, 64, 55
1, 46389, Control_c, 0, 64, 43
1, 46404, Control_c, 0, 64, 42
1, 46418, Control_c, 0, 64, 45
1, 46433, Control_c, 0, 64, 45
1, 46463, Control_c, 0, 64, 44
1, 46478, Control_c, 0, 64, 43
1, 46833, Control_c, 0, 64, 44
1, 46838, Note_on_c, 0, 50, 38
1, 46842, Note_on_c, 0, 74, 51
1, 46852, Note_on_c, 0, 66, 42
1, 46877, Control_c, 0, 64, 44
1, 46966, Control_c, 0, 64, 45
1, 46997, Control_c, 0, 64, 45
1, 47027, Control_c, 0, 64, 46
1, 47028, Note_on_c, 0, 73, 62
1, 47028, Note_off_c, 0, 74, 59
1, 47049, Control_c, 0, 64, 46
1, 47058, Note_on_c, 0, 64, 40
1, 47064, Control_c, 0, 64, 47
1, 47070, Note_off_c, 0, 66, 44
1, 47079, Control_c, 0, 64, 48
1, 47084, Note_off_c, 0, 73, 58
1, 47093, Note_off_c, 0, 64, 52
1, 47108, Control_c, 0, 64, 49
1, 47123, Control_c, 0, 64, 49
1, 47138, Control_c, 0, 64, 51
1, 47153, Control_c, 0, 64, 52
1, 47167, Control_c, 0, 64, 52
1, 47182, Control_c, 0, 64, 53
1, 47190, Note_on_c, 0, 73, 67
1, 47198, Note_on_c, 0, 64, 41
1, 47212, Control_c, 0, 64, 53
1, 47227, Control_c, 0, 64, 54
1, 47241, Control_c, 0, 64, 55
1, 47246, Note_off_c, 0, 64, 60
1, 47256, Control_c, 0, 64, 57
1, 47271, Control_c, 0, 64, 59
1, 47315, Control_c, 0, 64, 59
1, 47345, Control_c, 0, 64, 60
1, 47349, Note_on_c, 0, 71, 65
1, 47368, Note_on_c, 0, 62, 44
1, 47389, Control_c, 0, 64, 59
1, 47393, Note_off_c, 0, 71, 60
1, 47397, Note_off_c, 0, 62, 59
1, 47409, Note_off_c, 0, 73, 61
1, 47449, Control_c, 0, 64, 59
1, 47464, Control_c, 0, 64, 58
1, 47479, Control_c, 0, 64, 58
1, 47510, Note_on_c, 0, 71, 63
1, 47512, Note_on_c, 0, 62, 43
1, 47520, Note_on_c, 0, 52, 45
1, 47523, Control_c, 0, 64, 57
1, 47538, Control_c, 0, 64, 57
1, 47553, Control_c, 0, 64, 56
1, 47554, Note_off_c, 0, 62, 63
1, 47642, Note_off_c, 0, 50, 37
1, 47667, Note_on_c, 0, 69, 61
1, 47675, Note_on_c, 0, 61, 54
1, 47687, Note_off_c, 0, 71, 62
1, 47717, Note_off_c, 0, 69, 60
1, 47723, Note_off_c, 0, 61, 55
1, 47824, Note_on_c, 0, 61, 60
1, 47839, Note_on_c, 0, 69, 59
1, 47872, Note_off_c, 0, 61, 61
1, 47986, Note_on_c, 0, 68, 63
1, 47987, Note_on_c, 0, 59, 51
1, 48009, Note_off_c, 0, 69, 58
1, 48026, Note_off_c, 0, 59, 58
1, 48027, Note_off_c, 0, 68, 60
1, 48080, Control_c, 0, 64, 57
1, 48173, Note_on_c, 0, 57, 47
1, 48182, Note_on_c, 0, 68, 55
1, 48188, Note_on_c, 0, 59, 44
1, 48191, Note_on_c, 0, 62, 40
1, 48231, Note_off_c, 0, 52, 57
1, 48351, Note_off_c, 0, 57, 63
1, 48470, Note_off_c, 0, 62, 59
1, 48557, Note_on_c, 0, 52, 48
1, 48730, Note_off_c, 0, 52, 62
1, 48947, Note_on_c, 0, 45, 40
1, 48948, Note_on_c, 0, 69, 45
1, 48955, Note_on_c, 0, 61, 42
1, 48976, Note_off_c, 0, 59, 37
1, 49010, Note_off_c, 0, 68, 37
1, 49050, Control_c, 0, 64, 56
1, 49124, Control_c, 0, 64, 57
1, 49139, Control_c, 0, 64, 58
1, 49154, Control_c, 0, 64, 61
1, 49157, Note_off_c, 0, 69, 55
1, 49167, Note_off_c, 0, 61, 41
1, 49168, Control_c, 0, 64, 66
1, 49183, Control_c, 0, 64, 72
1, 49198, Control_c, 0, 64, 81
1, 49213, Control_c, 0, 64, 94
1, 49228, Control_c, 0, 64, 127
1, 49312, Note_off_c, 0, 45, 36
1, 49562, Control_c, 0, 64, 109
1, 49577, Control_c, 0, 64, 95
1, 49592, Control_c, 0, 64, 88
1, 49607, Control_c, 0, 64, 88
1, 49636, Control_c, 0, 64, 87
1, 49651, Control_c, 0, 64, 82
1, 49666, Control_c, 0, 64, 73
1, 49680, Control_c, 0, 64, 67
1, 49695, Control_c, 0, 64, 65
1, 49710, Control_c, 0, 64, 66
1, 49740, Control_c, 0, 64, 65
1, 49754, Control_c, 0, 64, 62
1, 49769, Control_c, 0, 64, 54
1, 49784, Control_c, 0, 64, 52
1, 49799, Control_c, 0, 64, 53
1, 49873, Control_c, 0, 64, 51
1, 49917, Control_c, 0, 64, 51
1, 49932, Control_c, 0, 64, 50
1, 49947, Control_c, 0, 64, 48
1, 49961, Control_c, 0, 64, 45
1, 49976, Control_c, 0, 64, 45
1, 50125, Note_on_c, 0, 81, 40
1, 50147, Control_c, 0, 64, 45
1, 50222, Control_c, 0, 64, 46
1, 50322, Note_on_c, 0, 79, 53
1, 50326, Control_c, 0, 64, 46
1, 50340, Note_off_c, 0, 81, 60
1, 50370, Note_off_c, 0, 79, 59
1, 50400, Control_c, 0, 64, 47
1, 50474, Note_on_c, 0, 79, 67
1, 50489, Control_c, 0, 64, 47
1, 50533, Control_c, 0, 64, 48
1, 50577, Control_c, 0, 64, 49
1, 50592, Control_c, 0, 64, 50
1, 50629, Note_on_c, 0, 78, 69
1, 50648, Note_off_c, 0, 79, 63
1, 50695, Note_off_c, 0, 78, 64
1, 50710, Control_c, 0, 64, 50
1, 50768, Note_on_c, 0, 78, 72
1, 50807, Control_c, 0, 64, 51
1, 50941, Note_on_c, 0, 76, 75
1, 50955, Control_c, 0, 64, 51
1, 50970, Control_c, 0, 64, 52
1, 50986, Note_off_c, 0, 78, 64
1, 51010, Note_off_c, 0, 76, 63
1, 51085, Note_on_c, 0, 76, 85
1, 51133, Control_c, 0, 64, 52
1, 51148, Control_c, 0, 64, 54
1, 51163, Control_c, 0, 64, 59
1, 51178, Control_c, 0, 64, 65
1, 51194, Control_c, 0, 64, 72
1, 51208, Control_c, 0, 64, 84
1, 51223, Control_c, 0, 64, 127
1, 51240, Note_on_c, 0, 75, 86
1, 51262, Note_off_c, 0, 76, 63
1, 51283, Note_off_c, 0, 75, 66
1, 51410, Note_on_c, 0, 72, 75
1, 51417, Note_on_c, 0, 75, 76
1, 51424, Note_on_c, 0, 47, 53
1, 51424, Note_on_c, 0, 59, 59
1, 51475, Control_c, 0, 64, 98
1, 51490, Control_c, 0, 64, 72
1, 51505, Control_c, 0, 64, 56
1, 51520, Control_c, 0, 64, 48
1, 51541, Control_c, 0, 64, 51
1, 51556, Control_c, 0, 64, 51
1, 51571, Control_c, 0, 64, 49
1, 51586, Control_c, 0, 64, 40
1, 51601, Control_c, 0, 64, 8
1, 51611, Note_on_c, 0, 71, 68
1, 51611, Note_off_c, 0, 72, 61
1, 51616, Control_c, 0, 64, 0
1, 51646, Control_c, 0, 64, 10
1, 51658, Note_off_c, 0, 71, 62
1, 51660, Control_c, 0, 64, 12
1, 51775, Note_on_c, 0, 71, 62
1, 51810, Control_c, 0, 64, 14
1, 51839, Control_c, 0, 64, 15
1, 51899, Control_c, 0, 64, 18
1, 51913, Control_c, 0, 64, 21
1, 51928, Control_c, 0, 64, 22
1, 51932, Note_on_c, 0, 69, 59
1, 51939, Note_off_c, 0, 71, 63
1, 51973, Note_off_c, 0, 69, 59
1, 51987, Control_c, 0, 64, 24
1, 52002, Control_c, 0, 64, 27
1, 52017, Control_c, 0, 64, 28
1, 52031, Control_c, 0, 64, 29
1, 52085, Note_on_c, 0, 69, 61
1, 52105, Control_c, 0, 64, 29
1, 52194, Control_c, 0, 64, 30
1, 52254, Note_off_c, 0, 69, 62
1, 52257, Note_on_c, 0, 67, 53
1, 52300, Note_off_c, 0, 67, 64
1, 52412, Note_on_c, 0, 67, 52
1, 52430, Note_off_c, 0, 75, 59
1, 52453, Control_c, 0, 64, 30
1, 52468, Control_c, 0, 64, 32
1, 52483, Control_c, 0, 64, 32
1, 52496, Note_off_c, 0, 47, 46
1, 52531, Note_off_c, 0, 67, 63
1, 52557, Control_c, 0, 64, 33
1, 52561, Note_on_c, 0, 66, 54
1, 52582, Note_off_c, 0, 59, 62
1, 52591, Note_off_c, 0, 66, 63
1, 52647, Control_c, 0, 64, 34
1, 52662, Control_c, 0, 64, 36
1, 52677, Control_c, 0, 64, 36
1, 52720, Control_c, 0, 64, 37
1, 52734, Control_c, 0, 64, 39
1, 52743, Note_on_c, 0, 75, 56
1, 52749, Control_c, 0, 64, 40
1, 52838, Control_c, 0, 64, 41
1, 52895, Note_on_c, 0, 76, 50
1, 52927, Control_c, 0, 64, 41
1, 52927, Note_off_c, 0, 75, 59
1, 52945, Note_off_c, 0, 76, 64
1, 53061, Note_on_c, 0, 71, 49
1, 53063, Note_on_c, 0, 67, 42
1, 53214, Note_on_c, 0, 79, 70
1, 53250, Note_off_c, 0, 79, 64
1, 53291, Note_off_c, 0, 71, 64
1, 53306, Note_off_c, 0, 67, 63
1, 53362, Note_on_c, 0, 77, 77
1, 53469, Control_c, 0, 64, 42
1, 53535, Note_on_c, 0, 78, 79
1, 53562, Note_off_c, 0, 77, 65
1, 53592, Note_off_c, 0, 78, 64
1, 53684, Note_on_c, 0, 71, 57
1, 53690, Note_on_c, 0, 63, 58
1, 53720, Control_c, 0, 64, 45
1, 53735, Control_c, 0, 64, 53
1, 53750, Control_c, 0, 64, 61
1, 53765, Control_c, 0, 64, 67
1, 53777, Note_off_c, 0, 71, 66
1, 53787, Control_c, 0, 64, 77
1, 53801, Control_c, 0, 64, 127
1, 53838, Note_off_c, 0, 63, 64
1, 53846, Note_on_c, 0, 81, 81
1, 53898, Note_off_c, 0, 81, 65
1, 53965, Control_c, 0, 64, 109
1, 53980, Control_c, 0, 64, 78
1, 53995, Control_c, 0, 64, 58
1, 54009, Control_c, 0, 64, 0
1, 54013, Note_on_c, 0, 75, 71
1, 54013, Note_on_c, 0, 78, 73
1, 54018, Note_on_c, 0, 47, 65
1, 54181, Note_on_c, 0, 45, 72
1, 54218, Note_off_c, 0, 47, 64
1, 54239, Note_off_c, 0, 45, 63
1, 54337, Note_on_c, 0, 45, 73
1, 54499, Note_on_c, 0, 43, 70
1, 54545, Note_off_c, 0, 45, 64
1, 54567, Note_off_c, 0, 43, 64
1, 54610, Control_c, 0, 64, 12
1, 54624, Control_c, 0, 64, 19
1, 54639, Control_c, 0, 64, 20
1, 54656, Note_on_c, 0, 79, 66
1, 54666, Note_on_c, 0, 76, 64
1, 54683, Note_on_c, 0, 43, 50
1, 54684, Control_c, 0, 64, 21
1, 54698, Control_c, 0, 64, 22
1, 54700, Note_off_c, 0, 75, 57
1, 54710, Note_off_c, 0, 78, 54
1, 54713, Control_c, 0, 64, 24
1, 54835, Note_on_c, 0, 42, 65
1, 54838, Note_off_c, 0, 43, 62
1, 54882, Note_off_c, 0, 42, 63
1, 54986, Note_on_c, 0, 42, 63
1, 55063, Note_off_c, 0, 76, 63
1, 55085, Note_off_c, 0, 79, 62
1, 55154, Note_on_c, 0, 40, 48
1, 55164, Note_off_c, 0, 42, 57
1, 55351, Note_on_c, 0, 79, 47
1, 55440, Note_off_c, 0, 40, 34
1, 55508, Note_on_c, 0, 78, 56
1, 55525, Note_off_c, 0, 79, 63
1, 55558, Note_off_c, 0, 78, 56
1, 55641, Control_c, 0, 64, 24
1, 55672, Note_on_c, 0, 78, 67
1, 55729, Control_c, 0, 64, 25
1, 55744, Control_c, 0, 64, 26
1, 55819, Control_c, 0, 64, 27
1, 55821, Note_on_c, 0, 76, 65
1, 55834, Control_c, 0, 64, 28
1, 55849, Control_c, 0, 64, 29
1, 55861, Note_off_c, 0, 78, 64
1, 55887, Note_off_c, 0, 76, 64
1, 55976, Note_on_c, 0, 76, 75
1, 56033, Control_c, 0, 64, 30
1, 56123, Control_c, 0, 64, 30
1, 56136, Note_on_c, 0, 74, 77
1, 56182, Control_c, 0, 64, 31
1, 56184, Note_off_c, 0, 76, 63
1, 56196, Control_c, 0, 64, 32
1, 56208, Note_off_c, 0, 74, 64
1, 56211, Control_c, 0, 64, 34
1, 56226, Control_c, 0, 64, 36
1, 56256, Control_c, 0, 64, 36
1, 56284, Note_on_c, 0, 74, 87
1, 56359, Control_c, 0, 64, 37
1, 56374, Control_c, 0, 64, 46
1, 56389, Control_c, 0, 64, 58
1, 56403, Control_c, 0, 64, 68
1, 56418, Control_c, 0, 64, 82
1, 56433, Control_c, 0, 64, 127
1, 56446, Note_on_c, 0, 73, 85
1, 56463, Note_off_c, 0, 74, 62
1, 56509, Note_off_c, 0, 73, 64
1, 56621, Note_on_c, 0, 73, 79
1, 56625, Note_on_c, 0, 57, 65
1, 56626, Note_on_c, 0, 45, 60
1, 56627, Note_on_c, 0, 70, 79
1, 56686, Control_c, 0, 64, 102
1, 56701, Control_c, 0, 64, 76
1, 56716, Control_c, 0, 64, 61
1, 56731, Control_c, 0, 64, 27
1, 56746, Control_c, 0, 64, 0
1, 56814, Note_on_c, 0, 69, 74
1, 56838, Note_off_c, 0, 70, 62
1, 56871, Note_off_c, 0, 69, 64
1, 56981, Note_on_c, 0, 69, 69
1, 57133, Note_on_c, 0, 67, 69
1, 57145, Note_off_c, 0, 69, 63
1, 57184, Note_off_c, 0, 67, 61
1, 57302, Note_on_c, 0, 68, 17
1, 57306, Note_on_c, 0, 67, 62
1, 57369, Note_off_c, 0, 68, 39
1, 57448, Note_on_c, 0, 66, 63
1, 57452, Note_off_c, 0, 67, 59
1, 57485, Note_off_c, 0, 66, 61
1, 57613, Note_on_c, 0, 66, 57
1, 57731, Note_off_c, 0, 45, 51
1, 57740, Note_off_c, 0, 66, 59
1, 57756, Note_off_c, 0, 73, 58
1, 57785, Note_on_c, 0, 64, 51
1, 57819, Note_off_c, 0, 64, 63
1, 57832, Note_off_c, 0, 57, 60
1, 57935, Note_on_c, 0, 73, 54
1, 57975, Control_c, 0, 64, 8
1, 57990, Control_c, 0, 64, 15
1, 58005, Control_c, 0, 64, 17
1, 58079, Control_c, 0, 64, 18
1, 58094, Control_c, 0, 64, 19
1, 58108, Note_on_c, 0, 74, 53
1, 58109, Note_off_c, 0, 73, 62
1, 58141, Note_off_c, 0, 74, 65
1, 58256, Note_on_c, 0, 69, 30
1, 58284, Note_on_c, 0, 66, 28
1, 58418, Note_on_c, 0, 78, 65
1, 58461, Note_off_c, 0, 78, 64
1, 58530, Note_off_c, 0, 69, 56
1, 58542, Note_off_c, 0, 66, 56
1, 58582, Note_on_c, 0, 75, 75
1, 58680, Control_c, 0, 64, 20
1, 58746, Note_on_c, 0, 76, 74
1, 58780, Note_off_c, 0, 75, 64
1, 58797, Note_off_c, 0, 76, 64
1, 58859, Control_c, 0, 64, 16
1, 58873, Control_c, 0, 64, 15
1, 58888, Control_c, 0, 64, 16
1, 58902, Note_on_c, 0, 61, 65
1, 58903, Control_c, 0, 64, 30
1, 58905, Note_on_c, 0, 69, 68
1, 58917, Control_c, 0, 64, 48
1, 58932, Control_c, 0, 64, 59
1, 58947, Control_c, 0, 64, 66
1, 58963, Control_c, 0, 64, 74
1, 58978, Control_c, 0, 64, 97
1, 58993, Note_off_c, 0, 69, 64
1, 58993, Control_c, 0, 64, 127
1, 59055, Note_on_c, 0, 79, 83
1, 59060, Note_off_c, 0, 61, 62
1, 59117, Note_off_c, 0, 79, 62
1, 59148, Control_c, 0, 64, 85
1, 59163, Control_c, 0, 64, 66
1, 59178, Control_c, 0, 64, 40
1, 59193, Control_c, 0, 64, 0
1, 59229, Note_on_c, 0, 76, 79
1, 59232, Note_on_c, 0, 45, 66
1, 59235, Note_on_c, 0, 73, 76
1, 59397, Note_on_c, 0, 43, 72
1, 59434, Note_off_c, 0, 45, 64
1, 59454, Note_off_c, 0, 43, 64
1, 59542, Note_on_c, 0, 43, 72
1, 59698, Note_on_c, 0, 42, 72
1, 59732, Note_off_c, 0, 43, 63
1, 59772, Note_off_c, 0, 42, 64
1, 59868, Note_on_c, 0, 78, 73
1, 59873, Note_on_c, 0, 42, 70
1, 59873, Note_on_c, 0, 74, 64
1, 59911, Note_off_c, 0, 73, 57
1, 59916, Note_off_c, 0, 76, 55
1, 60030, Note_on_c, 0, 40, 70
1, 60063, Note_off_c, 0, 42, 62
1, 60081, Note_off_c, 0, 40, 60
1, 60180, Note_on_c, 0, 40, 77
1, 60271, Note_off_c, 0, 74, 62
1, 60302, Note_off_c, 0, 78, 63
1, 60311, Control_c, 0, 64, 33
1, 60326, Control_c, 0, 64, 62
1, 60341, Control_c, 0, 64, 76
1, 60344, Note_on_c, 0, 38, 78
1, 60353, Note_off_c, 0, 40, 61
1, 60356, Control_c, 0, 64, 113
1, 60370, Control_c, 0, 64, 127
1, 60377, Note_off_c, 0, 38, 64
1, 60504, Control_c, 0, 64, 91
1, 60526, Control_c, 0, 64, 68
1, 60541, Control_c, 0, 64, 30
1, 60545, Note_on_c, 0, 78, 62
1, 60547, Note_on_c, 0, 62, 70
1, 60555, Control_c, 0, 64, 0
1, 60600, Note_off_c, 0, 78, 59
1, 60618, Note_on_c, 0, 86, 67
1, 60630, Control_c, 0, 64, 52
1, 60645, Control_c, 0, 64, 68
1, 60660, Control_c, 0, 64, 83
1, 60675, Control_c, 0, 64, 111
1, 60675, Note_off_c, 0, 86, 58
1, 60690, Control_c, 0, 64, 105
1, 60693, Note_on_c, 0, 61, 78
1, 60704, Note_on_c, 0, 78, 74
1, 60704, Note_off_c, 0, 62, 62
1, 60705, Control_c, 0, 64, 84
1, 60719, Control_c, 0, 64, 67
1, 60734, Control_c, 0, 64, 48
1, 60738, Note_off_c, 0, 61, 60
1, 60744, Note_off_c, 0, 78, 55
1, 60749, Control_c, 0, 64, 41
1, 60761, Note_on_c, 0, 86, 70
1, 60764, Control_c, 0, 64, 44
1, 60779, Control_c, 0, 64, 45
1, 60808, Control_c, 0, 64, 44
1, 60810, Note_off_c, 0, 86, 54
1, 60823, Control_c, 0, 64, 37
1, 60838, Control_c, 0, 64, 26
1, 60839, Note_on_c, 0, 61, 82
1, 60842, Note_on_c, 0, 78, 74
1, 60853, Control_c, 0, 64, 8
1, 60867, Control_c, 0, 64, 0
1, 60897, Control_c, 0, 64, 14
1, 60904, Note_off_c, 0, 78, 63
1, 60907, Note_on_c, 0, 86, 72
1, 60912, Control_c, 0, 64, 21
1, 60927, Control_c, 0, 64, 29
1, 60941, Control_c, 0, 64, 40
1, 60956, Control_c, 0, 64, 50
1, 60971, Control_c, 0, 64, 59
1, 60976, Note_off_c, 0, 86, 60
1, 60985, Control_c, 0, 64, 64
1, 60989, Note_on_c, 0, 59, 80
1, 60990, Note_on_c, 0, 78, 73
1, 61000, Control_c, 0, 64, 66
1, 61016, Note_off_c, 0, 61, 58
1, 61030, Control_c, 0, 64, 65
1, 61045, Control_c, 0, 64, 64
1, 61049, Note_off_c, 0, 59, 64
1, 61051, Note_off_c, 0, 78, 64
1, 61054, Note_on_c, 0, 86, 71
1, 61059, Control_c, 0, 64, 62
1, 61074, Control_c, 0, 64, 59
1, 61089, Control_c, 0, 64, 55
1, 61104, Control_c, 0, 64, 47
1, 61116, Note_off_c, 0, 86, 60
1, 61119, Control_c, 0, 64, 32
1, 61134, Control_c, 0, 64, 0
1, 61137, Note_on_c, 0, 59, 86
1, 61139, Note_on_c, 0, 78, 80
1, 61202, Note_off_c, 0, 78, 63
1, 61204, Note_on_c, 0, 86, 76
1, 61238, Control_c, 0, 64, 18
1, 61253, Control_c, 0, 64, 35
1, 61274, Control_c, 0, 64, 46
1, 61286, Note_off_c, 0, 86, 59
1, 61289, Control_c, 0, 64, 52
1, 61295, Note_on_c, 0, 57, 85
1, 61299, Note_on_c, 0, 78, 81
1, 61304, Control_c, 0, 64, 54
1, 61310, Note_off_c, 0, 59, 63
1, 61338, Note_off_c, 0, 57, 66
1, 61348, Control_c, 0, 64, 52
1, 61358, Note_on_c, 0, 86, 74
1, 61364, Note_off_c, 0, 78, 64
1, 61364, Control_c, 0, 64, 50
1, 61379, Control_c, 0, 64, 46
1, 61394, Control_c, 0, 64, 38
1, 61409, Control_c, 0, 64, 23
1, 61423, Control_c, 0, 64, 0
1, 61432, Note_on_c, 0, 57, 92
1, 61432, Note_off_c, 0, 86, 59
1, 61448, Note_on_c, 0, 78, 80
1, 61510, Note_off_c, 0, 78, 64
1, 61514, Note_on_c, 0, 86, 78
1, 61542, Control_c, 0, 64, 36
1, 61557, Control_c, 0, 64, 54
1, 61572, Control_c, 0, 64, 63
1, 61578, Note_off_c, 0, 86, 62
1, 61583, Note_on_c, 0, 56, 86
1, 61587, Control_c, 0, 64, 71
1, 61591, Note_on_c, 0, 78, 82
1, 61594, Note_off_c, 0, 57, 65
1, 61602, Control_c, 0, 64, 86
1, 61616, Control_c, 0, 64, 127
1, 61632, Note_off_c, 0, 56, 65
1, 61658, Note_on_c, 0, 86, 81
1, 61663, Note_off_c, 0, 78, 63
1, 61733, Note_off_c, 0, 86, 61
1, 61745, Note_on_c, 0, 56, 89
1, 61748, Note_on_c, 0, 44, 82
1, 61760, Note_on_c, 0, 76, 81
1, 61764, Control_c, 0, 64, 92
1, 61779, Control_c, 0, 64, 70
1, 61794, Control_c, 0, 64, 55
1, 61808, Control_c, 0, 64, 33
1, 61823, Control_c, 0, 64, 29
1, 61837, Note_off_c, 0, 76, 57
1, 61838, Note_on_c, 0, 86, 76
1, 61838, Control_c, 0, 64, 28
1, 61853, Control_c, 0, 64, 26
1, 61868, Control_c, 0, 64, 26
1, 61912, Control_c, 0, 64, 27
1, 61913, Note_off_c, 0, 86, 55
1, 61926, Note_on_c, 0, 76, 72
1, 61927, Control_c, 0, 64, 34
1, 61942, Control_c, 0, 64, 44
1, 61957, Control_c, 0, 64, 51
1, 61971, Control_c, 0, 64, 58
1, 61986, Control_c, 0, 64, 63
1, 61992, Note_off_c, 0, 76, 57
1, 62001, Control_c, 0, 64, 68
1, 62004, Note_on_c, 0, 86, 76
1, 62023, Control_c, 0, 64, 73
1, 62038, Control_c, 0, 64, 82
1, 62053, Control_c, 0, 64, 102
1, 62068, Control_c, 0, 64, 127
1, 62074, Note_off_c, 0, 86, 58
1, 62100, Note_on_c, 0, 76, 79
1, 62162, Note_off_c, 0, 76, 57
1, 62171, Note_on_c, 0, 86, 78
1, 62208, Note_off_c, 0, 44, 60
1, 62225, Note_off_c, 0, 86, 63
1, 62258, Note_on_c, 0, 76, 72
1, 62264, Note_off_c, 0, 56, 62
1, 62317, Note_on_c, 0, 86, 78
1, 62319, Note_off_c, 0, 76, 60
1, 62370, Note_off_c, 0, 86, 63
1, 62386, Note_on_c, 0, 46, 63
1, 62391, Note_on_c, 0, 58, 76
1, 62395, Control_c, 0, 64, 116
1, 62406, Note_on_c, 0, 76, 73
1, 62410, Control_c, 0, 64, 84
1, 62425, Control_c, 0, 64, 68
1, 62439, Control_c, 0, 64, 56
1, 62448, Note_off_c, 0, 76, 52
1, 62454, Control_c, 0, 64, 43
1, 62466, Note_on_c, 0, 85, 71
1, 62469, Control_c, 0, 64, 33
1, 62484, Control_c, 0, 64, 26
1, 62499, Control_c, 0, 64, 0
1, 62528, Note_off_c, 0, 85, 55
1, 62558, Note_on_c, 0, 76, 62
1, 62601, Note_off_c, 0, 76, 57
1, 62602, Control_c, 0, 64, 8
1, 62617, Control_c, 0, 64, 36
1, 62622, Note_on_c, 0, 85, 66
1, 62631, Control_c, 0, 64, 53
1, 62646, Control_c, 0, 64, 63
1, 62652, Note_off_c, 0, 85, 64
1, 62661, Control_c, 0, 64, 68
1, 62676, Control_c, 0, 64, 75
1, 62691, Control_c, 0, 64, 88
1, 62704, Note_on_c, 0, 76, 68
1, 62706, Control_c, 0, 64, 123
1, 62720, Control_c, 0, 64, 127
1, 62742, Note_off_c, 0, 46, 37
1, 62751, Note_off_c, 0, 76, 51
1, 62771, Note_on_c, 0, 85, 68
1, 62821, Note_off_c, 0, 85, 61
1, 62867, Note_on_c, 0, 76, 63
1, 62916, Note_off_c, 0, 76, 61
1, 62925, Note_on_c, 0, 85, 66
1, 62940, Note_off_c, 0, 58, 56
1, 62958, Note_off_c, 0, 85, 61
1, 63010, Control_c, 0, 64, 123
1, 63025, Note_on_c, 0, 74, 63
1, 63025, Control_c, 0, 64, 93
1, 63039, Note_on_c, 0, 59, 53
1, 63040, Control_c, 0, 64, 75
1, 63055, Control_c, 0, 64, 63
1, 63068, Note_off_c, 0, 74, 56
1, 63069, Control_c, 0, 64, 56
1, 63084, Control_c, 0, 64, 55
1, 63089, Note_on_c, 0, 85, 52
1, 63114, Control_c, 0, 64, 54
1, 63129, Control_c, 0, 64, 51
1, 63143, Control_c, 0, 64, 44
1, 63158, Control_c, 0, 64, 41
1, 63161, Note_off_c, 0, 85, 57
1, 63179, Note_on_c, 0, 57, 63
1, 63182, Note_on_c, 0, 74, 57
1, 63183, Note_off_c, 0, 59, 59
1, 63215, Note_off_c, 0, 57, 66
1, 63230, Note_off_c, 0, 74, 58
1, 63248, Note_on_c, 0, 85, 59
1, 63301, Note_off_c, 0, 85, 54
1, 63331, Note_on_c, 0, 74, 65
1, 63332, Note_on_c, 0, 57, 67
1, 63386, Note_off_c, 0, 74, 55
1, 63401, Note_on_c, 0, 85, 69
1, 63441, Control_c, 0, 64, 42
1, 63455, Control_c, 0, 64, 44
1, 63457, Note_off_c, 0, 85, 59
1, 63470, Control_c, 0, 64, 45
1, 63475, Note_on_c, 0, 55, 77
1, 63483, Note_on_c, 0, 74, 62
1, 63485, Control_c, 0, 64, 46
1, 63500, Control_c, 0, 64, 47
1, 63504, Note_off_c, 0, 57, 64
1, 63522, Control_c, 0, 64, 47
1, 63535, Note_off_c, 0, 55, 62
1, 63536, Control_c, 0, 64, 48
1, 63541, Note_on_c, 0, 85, 77
1, 63554, Note_off_c, 0, 74, 64
1, 63566, Control_c, 0, 64, 49
1, 63581, Control_c, 0, 64, 50
1, 63596, Control_c, 0, 64, 50
1, 63610, Note_off_c, 0, 85, 65
1, 63629, Note_on_c, 0, 74, 74
1, 63631, Note_on_c, 0, 55, 85
1, 63697, Note_on_c, 0, 83, 80
1, 63709, Note_off_c, 0, 74, 63
1, 63769, Note_off_c, 0, 83, 58
1, 63775, Control_c, 0, 64, 50
1, 63779, Note_on_c, 0, 54, 79
1, 63783, Note_on_c, 0, 74, 77
1, 63796, Note_off_c, 0, 55, 63
1, 63843, Note_off_c, 0, 54, 64
1, 63849, Control_c, 0, 64, 49
1, 63851, Note_on_c, 0, 83, 83
1, 63859, Note_off_c, 0, 74, 62
1, 63864, Control_c, 0, 64, 49
1, 63893, Control_c, 0, 64, 48
1, 63908, Control_c, 0, 64, 47
1, 63921, Note_off_c, 0, 83, 58
1, 63921, Control_c, 0, 64, 46
1, 63929, Note_on_c, 0, 74, 81
1, 63934, Note_on_c, 0, 54, 82
1, 63936, Control_c, 0, 64, 44
1, 63951, Control_c, 0, 64, 39
1, 63966, Control_c, 0, 64, 34
1, 63995, Control_c, 0, 64, 35
1, 64004, Note_on_c, 0, 83, 87
1, 64010, Control_c, 0, 64, 45
1, 64010, Note_off_c, 0, 74, 59
1, 64025, Control_c, 0, 64, 56
1, 64040, Control_c, 0, 64, 63
1, 64055, Control_c, 0, 64, 71
1, 64067, Note_on_c, 0, 53, 83
1, 64070, Control_c, 0, 64, 84
1, 64075, Note_on_c, 0, 74, 85
1, 64080, Note_off_c, 0, 83, 42
1, 64084, Control_c, 0, 64, 127
1, 64117, Note_off_c, 0, 54, 56
1, 64127, Note_off_c, 0, 53, 64
1, 64150, Note_on_c, 0, 83, 91
1, 64162, Note_off_c, 0, 74, 58
1, 64243, Note_on_c, 0, 41, 79
1, 64244, Note_on_c, 0, 53, 81
1, 64246, Note_on_c, 0, 73, 85
1, 64264, Note_off_c, 0, 83, 61
1, 64270, Control_c, 0, 64, 118
1, 64284, Control_c, 0, 64, 81
1, 64299, Control_c, 0, 64, 63
1, 64314, Control_c, 0, 64, 16
1, 64329, Control_c, 0, 64, 0
1, 64329, Note_on_c, 0, 83, 75
1, 64332, Note_off_c, 0, 73, 58
1, 64408, Note_off_c, 0, 83, 53
1, 64419, Note_on_c, 0, 73, 72
1, 64432, Control_c, 0, 64, 28
1, 64447, Control_c, 0, 64, 47
1, 64462, Control_c, 0, 64, 57
1, 64477, Control_c, 0, 64, 63
1, 64482, Note_off_c, 0, 73, 57
1, 64488, Note_on_c, 0, 83, 75
1, 64491, Control_c, 0, 64, 67
1, 64506, Control_c, 0, 64, 75
1, 64521, Control_c, 0, 64, 93
1, 64530, Note_off_c, 0, 41, 53
1, 64536, Control_c, 0, 64, 127
1, 64559, Note_off_c, 0, 83, 56
1, 64574, Note_on_c, 0, 73, 78
1, 64640, Note_on_c, 0, 83, 78
1, 64645, Note_off_c, 0, 73, 61
1, 64653, Note_off_c, 0, 53, 60
1, 64710, Note_off_c, 0, 83, 56
1, 64724, Note_on_c, 0, 73, 71
1, 64797, Note_on_c, 0, 83, 74
1, 64800, Note_off_c, 0, 73, 63
1, 64844, Note_off_c, 0, 83, 61
1, 64860, Note_on_c, 0, 54, 77
1, 64869, Note_on_c, 0, 42, 62
1, 64872, Note_on_c, 0, 72, 77
1, 64878, Control_c, 0, 64, 93
1, 64893, Control_c, 0, 64, 66
1, 64907, Control_c, 0, 64, 30
1, 64922, Control_c, 0, 64, 0
1, 64943, Note_on_c, 0, 81, 70
1, 64949, Note_off_c, 0, 72, 63
1, 65015, Note_off_c, 0, 81, 61
1, 65033, Control_c, 0, 64, 10
1, 65045, Note_on_c, 0, 72, 70
1, 65048, Control_c, 0, 64, 41
1, 65063, Control_c, 0, 64, 57
1, 65078, Control_c, 0, 64, 67
1, 65084, Note_off_c, 0, 72, 55
1, 65092, Control_c, 0, 64, 74
1, 65105, Note_off_c, 0, 42, 62
1, 65107, Control_c, 0, 64, 85
1, 65115, Note_on_c, 0, 81, 72
1, 65122, Control_c, 0, 64, 100
1, 65137, Control_c, 0, 64, 127
1, 65167, Note_off_c, 0, 81, 53
1, 65189, Note_on_c, 0, 72, 72
1, 65221, Note_off_c, 0, 54, 58
1, 65256, Note_on_c, 0, 81, 76
1, 65256, Note_off_c, 0, 72, 61
1, 65300, Note_off_c, 0, 81, 56
1, 65336, Note_on_c, 0, 72, 64
1, 65393, Note_on_c, 0, 81, 80
1, 65401, Note_off_c, 0, 72, 64
1, 65415, Note_off_c, 0, 81, 70
1, 65463, Control_c, 0, 64, 87
1, 65478, Control_c, 0, 64, 70
1, 65493, Control_c, 0, 64, 57
1, 65495, Note_on_c, 0, 81, 79
1, 65502, Note_on_c, 0, 55, 42
1, 65508, Control_c, 0, 64, 26
1, 65513, Note_on_c, 0, 71, 55
1, 65523, Control_c, 0, 64, 20
1, 65539, Note_off_c, 0, 55, 62
1, 65590, Note_on_c, 0, 62, 18
1, 65641, Note_off_c, 0, 62, 62
1, 65658, Note_on_c, 0, 59, 51
1, 65671, Control_c, 0, 64, 21
1, 65674, Note_on_c, 0, 79, 69
1, 65675, Note_off_c, 0, 81, 63
1, 65686, Control_c, 0, 64, 22
1, 65688, Note_off_c, 0, 59, 58
1, 65701, Control_c, 0, 64, 24
1, 65705, Note_off_c, 0, 79, 64
1, 65715, Control_c, 0, 64, 25
1, 65730, Control_c, 0, 64, 26
1, 65732, Note_on_c, 0, 62, 63
1, 65745, Control_c, 0, 64, 27
1, 65779, Note_off_c, 0, 62, 61
1, 65811, Control_c, 0, 64, 28
1, 65813, Note_on_c, 0, 79, 78
1, 65825, Note_on_c, 0, 55, 48
1, 65826, Control_c, 0, 64, 31
1, 65841, Control_c, 0, 64, 35
1, 65856, Control_c, 0, 64, 38
1, 65862, Note_off_c, 0, 55, 64
1, 65870, Control_c, 0, 64, 40
1, 65885, Control_c, 0, 64, 45
1, 65891, Note_on_c, 0, 62, 56
1, 65900, Control_c, 0, 64, 56
1, 65915, Control_c, 0, 64, 64
1, 65930, Control_c, 0, 64, 70
1, 65942, Note_off_c, 0, 62, 58
1, 65945, Control_c, 0, 64, 78
1, 65960, Control_c, 0, 64, 86
1, 65963, Note_on_c, 0, 78, 86
1, 65964, Note_on_c, 0, 59, 56
1, 65972, Note_off_c, 0, 71, 51
1, 65975, Control_c, 0, 64, 94
1, 65989, Control_c, 0, 64, 100
1, 65990, Note_off_c, 0, 79, 65
1, 65996, Note_off_c, 0, 59, 59
1, 66004, Control_c, 0, 64, 103
1, 66009, Note_off_c, 0, 78, 65
1, 66019, Control_c, 0, 64, 101
1, 66034, Control_c, 0, 64, 95
1, 66039, Note_on_c, 0, 62, 70
1, 66049, Control_c, 0, 64, 88
1, 66063, Control_c, 0, 64, 83
1, 66078, Control_c, 0, 64, 79
1, 66081, Note_off_c, 0, 62, 51
1, 66093, Control_c, 0, 64, 73
1, 66108, Control_c, 0, 64, 66
1, 66112, Note_on_c, 0, 86, 89
1, 66118, Note_on_c, 0, 77, 80
1, 66123, Control_c, 0, 64, 56
1, 66127, Note_on_c, 0, 55, 53
1, 66137, Control_c, 0, 64, 43
1, 66168, Control_c, 0, 64, 44
1, 66180, Note_off_c, 0, 55, 54
1, 66183, Control_c, 0, 64, 45
1, 66219, Note_on_c, 0, 62, 52
1, 66257, Control_c, 0, 64, 45
1, 66264, Note_off_c, 0, 62, 62
1, 66277, Note_on_c, 0, 59, 59
1, 66280, Note_on_c, 0, 85, 84
1, 66297, Note_off_c, 0, 86, 64
1, 66317, Note_off_c, 0, 59, 61
1, 66329, Note_off_c, 0, 85, 65
1, 66346, Control_c, 0, 64, 47
1, 66360, Control_c, 0, 64, 48
1, 66362, Note_on_c, 0, 62, 58
1, 66375, Control_c, 0, 64, 48
1, 66390, Control_c, 0, 64, 49
1, 66403, Note_off_c, 0, 62, 59
1, 66420, Note_on_c, 0, 85, 87
1, 66420, Control_c, 0, 64, 51
1, 66432, Note_on_c, 0, 55, 57
1, 66434, Control_c, 0, 64, 54
1, 66449, Control_c, 0, 64, 54
1, 66487, Note_off_c, 0, 55, 50
1, 66509, Note_on_c, 0, 62, 59
1, 66580, Note_off_c, 0, 62, 62
1, 66583, Note_on_c, 0, 83, 87
1, 66586, Note_on_c, 0, 59, 63
1, 66596, Note_off_c, 0, 77, 64
1, 66615, Note_off_c, 0, 85, 64
1, 66617, Note_off_c, 0, 83, 66
1, 66623, Note_off_c, 0, 59, 66
1, 66634, Control_c, 0, 64, 55
1, 66650, Note_on_c, 0, 62, 59
1, 66679, Control_c, 0, 64, 54
1, 66700, Note_off_c, 0, 62, 58
1, 66730, Note_on_c, 0, 79, 74
1, 66733, Note_on_c, 0, 82, 71
1, 66737, Note_on_c, 0, 54, 61
1, 66807, Note_off_c, 0, 54, 52
1, 66812, Control_c, 0, 64, 55
1, 66823, Note_on_c, 0, 61, 56
1, 66877, Note_off_c, 0, 61, 59
1, 66888, Note_on_c, 0, 78, 74
1, 66891, Note_off_c, 0, 79, 64
1, 66899, Note_on_c, 0, 58, 63
1, 66932, Note_off_c, 0, 78, 63
1, 66944, Note_off_c, 0, 58, 56
1, 66985, Note_on_c, 0, 61, 49
1, 67018, Note_off_c, 0, 61, 61
1, 67021, Control_c, 0, 64, 54
1, 67027, Note_on_c, 0, 78, 80
1, 67039, Note_on_c, 0, 54, 63
1, 67109, Control_c, 0, 64, 54
1, 67114, Note_on_c, 0, 61, 54
1, 67119, Note_off_c, 0, 54, 47
1, 67161, Note_off_c, 0, 61, 59
1, 67168, Control_c, 0, 64, 54
1, 67194, Note_on_c, 0, 58, 46
1, 67194, Note_on_c, 0, 76, 67
1, 67218, Note_off_c, 0, 78, 63
1, 67221, Note_off_c, 0, 76, 66
1, 67233, Note_off_c, 0, 58, 63
1, 67237, Note_off_c, 0, 82, 64
1, 67263, Note_on_c, 0, 61, 52
1, 67317, Note_off_c, 0, 61, 60
1, 67356, Note_on_c, 0, 53, 55
1, 67356, Note_on_c, 0, 74, 69
1, 67358, Note_on_c, 0, 83, 62
1, 67383, Control_c, 0, 64, 54
1, 67423, Note_off_c, 0, 53, 52
1, 67456, Note_on_c, 0, 62, 41
1, 67502, Note_off_c, 0, 62, 61
1, 67516, Control_c, 0, 64, 55
1, 67521, Note_on_c, 0, 56, 52
1, 67528, Note_on_c, 0, 73, 67
1, 67534, Note_off_c, 0, 74, 64
1, 67555, Note_off_c, 0, 56, 64
1, 67560, Note_off_c, 0, 73, 63
1, 67601, Note_on_c, 0, 62, 53
1, 67643, Note_off_c, 0, 62, 60
1, 67650, Control_c, 0, 64, 54
1, 67665, Control_c, 0, 64, 53
1, 67670, Note_on_c, 0, 53, 56
1, 67680, Note_on_c, 0, 73, 60
1, 67695, Control_c, 0, 64, 53
1, 67711, Note_off_c, 0, 53, 60
1, 67766, Note_on_c, 0, 62, 31
1, 67805, Note_off_c, 0, 62, 51
1, 67815, Note_off_c, 0, 83, 44
1, 67825, Note_on_c, 0, 56, 53
1, 67832, Note_on_c, 0, 71, 59
1, 67847, Note_off_c, 0, 73, 65
1, 67863, Note_off_c, 0, 71, 67
1, 67870, Note_off_c, 0, 56, 61
1, 67888, Control_c, 0, 64, 54
1, 67900, Note_on_c, 0, 62, 52
1, 67932, Control_c, 0, 64, 53
1, 67956, Note_off_c, 0, 62, 52
1, 67977, Control_c, 0, 64, 53
1, 67984, Note_on_c, 0, 76, 61
1, 67991, Note_on_c, 0, 67, 57
1, 68008, Note_on_c, 0, 54, 47
1, 68029, Control_c, 0, 64, 53
1, 68032, Note_off_c, 0, 67, 63
1, 68118, Control_c, 0, 64, 52
1, 68132, Control_c, 0, 64, 51
1, 68154, Note_on_c, 0, 74, 57
1, 68162, Control_c, 0, 64, 52
1, 68175, Note_on_c, 0, 66, 43
1, 68177, Control_c, 0, 64, 52
1, 68185, Note_off_c, 0, 76, 63
1, 68201, Note_off_c, 0, 66, 57
1, 68217, Note_off_c, 0, 74, 60
1, 68323, Note_on_c, 0, 66, 47
1, 68329, Note_on_c, 0, 74, 60
1, 68386, Note_off_c, 0, 66, 61
1, 68480, Note_on_c, 0, 73, 64
1, 68485, Note_on_c, 0, 64, 56
1, 68497, Note_off_c, 0, 74, 61
1, 68519, Note_off_c, 0, 73, 61
1, 68521, Note_off_c, 0, 64, 62
1, 68635, Note_on_c, 0, 73, 62
1, 68640, Note_on_c, 0, 42, 37
1, 68643, Note_on_c, 0, 64, 34
1, 68683, Note_off_c, 0, 64, 48
1, 68698, Note_off_c, 0, 54, 34
1, 68813, Note_on_c, 0, 71, 61
1, 68819, Note_on_c, 0, 62, 59
1, 68851, Note_off_c, 0, 71, 59
1, 68854, Note_off_c, 0, 62, 63
1, 68860, Note_off_c, 0, 73, 63
1, 68960, Note_on_c, 0, 71, 68
1, 68978, Note_on_c, 0, 62, 41
1, 69003, Note_off_c, 0, 62, 57
1, 69113, Note_on_c, 0, 70, 63
1, 69125, Note_off_c, 0, 71, 53
1, 69133, Note_on_c, 0, 61, 41
1, 69164, Note_off_c, 0, 61, 54
1, 69168, Note_off_c, 0, 70, 54
1, 69294, Note_on_c, 0, 64, 48
1, 69294, Note_on_c, 0, 70, 58
1, 69295, Note_on_c, 0, 61, 35
1, 69308, Note_on_c, 0, 47, 41
1, 69319, Note_off_c, 0, 42, 43
1, 69448, Note_off_c, 0, 47, 62
1, 69556, Control_c, 0, 64, 51
1, 69659, Note_on_c, 0, 42, 42
1, 69704, Control_c, 0, 64, 52
1, 69733, Note_off_c, 0, 61, 55
1, 69817, Note_off_c, 0, 42, 63
1, 69925, Control_c, 0, 64, 51
1, 69999, Control_c, 0, 64, 51
1, 70043, Note_on_c, 0, 71, 43
1, 70059, Note_on_c, 0, 62, 32
1, 70059, Control_c, 0, 64, 50
1, 70062, Note_on_c, 0, 35, 26
1, 70076, Note_off_c, 0, 64, 44
1, 70088, Control_c, 0, 64, 50
1, 70103, Note_off_c, 0, 70, 44
1, 70163, Control_c, 0, 64, 49
1, 70178, Control_c, 0, 64, 48
1, 70223, Control_c, 0, 64, 50
1, 70237, Control_c, 0, 64, 51
1, 70259, Control_c, 0, 64, 54
1, 70274, Control_c, 0, 64, 58
1, 70289, Control_c, 0, 64, 63
1, 70294, Note_off_c, 0, 71, 59
1, 70304, Control_c, 0, 64, 67
1, 70311, Note_off_c, 0, 62, 50
1, 70319, Control_c, 0, 64, 75
1, 70333, Control_c, 0, 64, 89
1, 70348, Control_c, 0, 64, 112
1, 70363, Control_c, 0, 64, 127
1, 70371, Note_off_c, 0, 35, 39
1, 70660, Control_c, 0, 64, 93
1, 70675, Control_c, 0, 64, 72
1, 70690, Control_c, 0, 64, 57
1, 70705, Control_c, 0, 64, 31
1, 70719, Control_c, 0, 64, 35
1, 70734, Control_c, 0, 64, 41
1, 70749, Control_c, 0, 64, 44
1, 70793, Control_c, 0, 64, 42
1, 70808, Control_c, 0, 64, 38
1, 70823, Control_c, 0, 64, 35
1, 70837, Note_on_c, 0, 71, 90
1, 70838, Control_c, 0, 64, 34
1, 70842, Note_on_c, 0, 66, 69
1, 70846, Note_on_c, 0, 62, 69
1, 70857, Note_on_c, 0, 59, 54
1, 70861, Note_on_c, 0, 47, 55
1, 70926, Control_c, 0, 64, 36
1, 70942, Control_c, 0, 64, 42
1, 70957, Control_c, 0, 64, 49
1, 70972, Control_c, 0, 64, 57
1, 70987, Control_c, 0, 64, 62
1, 71010, Control_c, 0, 64, 65
1, 71024, Control_c, 0, 64, 68
1, 71039, Control_c, 0, 64, 75
1, 71054, Control_c, 0, 64, 92
1, 71057, Note_off_c, 0, 47, 38
1, 71069, Control_c, 0, 64, 127
1, 71087, Note_off_c, 0, 59, 47
1, 71284, Note_off_c, 0, 66, 53
1, 71352, Note_off_c, 0, 62, 60
1, 71587, Control_c, 0, 64, 123
1, 71602, Control_c, 0, 64, 84
1, 71616, Control_c, 0, 64, 67
1, 71631, Control_c, 0, 64, 57
1, 71642, Note_on_c, 0, 72, 80
1, 71646, Control_c, 0, 64, 53
1, 71650, Note_on_c, 0, 45, 33
1, 71650, Note_on_c, 0, 66, 58
1, 71659, Note_on_c, 0, 62, 52
1, 71661, Control_c, 0, 64, 48
1, 71663, Note_on_c, 0, 57, 36
1, 71663, Note_off_c, 0, 71, 55
1, 71675, Control_c, 0, 64, 19
1, 71690, Control_c, 0, 64, 0
1, 71758, Control_c, 0, 64, 37
1, 71773, Control_c, 0, 64, 62
1, 71788, Control_c, 0, 64, 76
1, 71802, Control_c, 0, 64, 98
1, 71817, Control_c, 0, 64, 127
1, 71821, Note_off_c, 0, 62, 55
1, 71858, Note_off_c, 0, 66, 60
1, 71867, Note_off_c, 0, 72, 65
1, 71914, Note_off_c, 0, 57, 44
1, 71956, Note_off_c, 0, 45, 58
1, 72084, Control_c, 0, 64, 100
1, 72098, Control_c, 0, 64, 92
1, 72113, Control_c, 0, 64, 94
1, 72128, Control_c, 0, 64, 93
1, 72143, Control_c, 0, 64, 88
1, 72158, Control_c, 0, 64, 71
1, 72172, Control_c, 0, 64, 58
1, 72187, Control_c, 0, 64, 53
1, 72202, Control_c, 0, 64, 56
1, 72217, Control_c, 0, 64, 57
1, 72247, Control_c, 0, 64, 54
1, 72261, Control_c, 0, 64, 48
1, 72276, Control_c, 0, 64, 42
1, 72291, Control_c, 0, 64, 43
1, 72306, Control_c, 0, 64, 45
1, 72365, Control_c, 0, 64, 44
1, 72410, Control_c, 0, 64, 45
1, 72577, Note_on_c, 0, 74, 56
1, 72582, Note_on_c, 0, 71, 51
1, 72595, Note_on_c, 0, 43, 33
1, 72596, Note_on_c, 0, 55, 38
1, 72640, Control_c, 0, 64, 46
1, 72655, Control_c, 0, 64, 47
1, 72670, Control_c, 0, 64, 48
1, 72685, Control_c, 0, 64, 49
1, 72715, Control_c, 0, 64, 50
1, 72729, Control_c, 0, 64, 52
1, 72744, Control_c, 0, 64, 54
1, 72759, Control_c, 0, 64, 57
1, 72774, Control_c, 0, 64, 59
1, 72789, Control_c, 0, 64, 61
1, 72803, Control_c, 0, 64, 63
1, 72818, Control_c, 0, 64, 66
1, 72833, Control_c, 0, 64, 70
1, 72837, Note_off_c, 0, 71, 54
1, 72847, Control_c, 0, 64, 77
1, 72862, Control_c, 0, 64, 87
1, 72877, Control_c, 0, 64, 101
1, 72892, Control_c, 0, 64, 127
1, 72914, Note_off_c, 0, 74, 62
1, 72986, Note_off_c, 0, 43, 40
1, 72986, Note_off_c, 0, 55, 37
1, 73306, Note_on_c, 0, 75, 57
1, 73382, Note_off_c, 0, 75, 52
1, 73656, Control_c, 0, 64, 117
1, 73670, Control_c, 0, 64, 101
1, 73685, Control_c, 0, 64, 89
1, 73700, Note_on_c, 0, 42, 27
1, 73700, Control_c, 0, 64, 77
1, 73706, Note_on_c, 0, 76, 52
1, 73710, Note_on_c, 0, 72, 42
1, 73715, Control_c, 0, 64, 66
1, 73728, Note_on_c, 0, 54, 30
1, 73730, Control_c, 0, 64, 53
1, 73744, Control_c, 0, 64, 29
1, 73759, Control_c, 0, 64, 28
1, 73833, Control_c, 0, 64, 30
1, 73848, Control_c, 0, 64, 36
1, 73863, Control_c, 0, 64, 42
1, 73877, Control_c, 0, 64, 45
1, 73892, Control_c, 0, 64, 51
1, 73907, Control_c, 0, 64, 59
1, 73922, Control_c, 0, 64, 65
1, 73937, Control_c, 0, 64, 69
1, 73952, Control_c, 0, 64, 76
1, 73967, Control_c, 0, 64, 88
1, 73981, Control_c, 0, 64, 117
1, 74004, Control_c, 0, 64, 127
1, 74113, Note_off_c, 0, 72, 42
1, 74164, Note_off_c, 0, 54, 38
1, 74175, Note_off_c, 0, 42, 37
1, 74262, Note_off_c, 0, 76, 31
1, 74945, Control_c, 0, 64, 116
1, 74960, Control_c, 0, 64, 110
1, 74975, Control_c, 0, 64, 114
1, 75004, Control_c, 0, 64, 109
1, 75019, Control_c, 0, 64, 99
1, 75034, Control_c, 0, 64, 87
1, 75049, Control_c, 0, 64, 79
1, 75064, Control_c, 0, 64, 76
1, 75078, Control_c, 0, 64, 75
1, 75093, Control_c, 0, 64, 73
1, 75108, Control_c, 0, 64, 69
1, 75123, Control_c, 0, 64, 66
1, 75168, Control_c, 0, 64, 65
1, 75183, Control_c, 0, 64, 64
1, 75197, Control_c, 0, 64, 60
1, 75212, Control_c, 0, 64, 56
1, 75242, Control_c, 0, 64, 56
1, 75301, Control_c, 0, 64, 55
1, 75315, Control_c, 0, 64, 53
1, 75419, Control_c, 0, 64, 54
1, 75530, Control_c, 0, 64, 54
1, 75545, Control_c, 0, 64, 55
1, 75641, Note_on_c, 0, 74, 77
1, 75646, Note_on_c, 0, 59, 50
1, 75648, Control_c, 0, 64, 55
1, 75663, Control_c, 0, 64, 56
1, 75693, Control_c, 0, 64, 57
1, 75708, Control_c, 0, 64, 57
1, 75722, Control_c, 0, 64, 59
1, 75729, Note_off_c, 0, 59, 60
1, 75737, Control_c, 0, 64, 62
1, 75752, Note_on_c, 0, 67, 56
1, 75753, Control_c, 0, 64, 65
1, 75768, Control_c, 0, 64, 68
1, 75783, Control_c, 0, 64, 73
1, 75798, Control_c, 0, 64, 80
1, 75813, Control_c, 0, 64, 89
1, 75814, Note_off_c, 0, 67, 57
1, 75825, Note_on_c, 0, 59, 59
1, 75827, Control_c, 0, 64, 96
1, 75842, Control_c, 0, 64, 98
1, 75865, Note_off_c, 0, 59, 62
1, 75872, Control_c, 0, 64, 96
1, 75886, Note_on_c, 0, 67, 68
1, 75886, Control_c, 0, 64, 93
1, 75901, Control_c, 0, 64, 89
1, 75916, Control_c, 0, 64, 85
1, 75931, Control_c, 0, 64, 77
1, 75946, Control_c, 0, 64, 66
1, 75961, Control_c, 0, 64, 46
1, 75970, Note_on_c, 0, 72, 80
1, 75973, Note_off_c, 0, 67, 48
1, 75976, Note_on_c, 0, 57, 61
1, 75976, Control_c, 0, 64, 0
1, 76020, Control_c, 0, 64, 22
1, 76035, Control_c, 0, 64, 45
1, 76038, Note_off_c, 0, 57, 65
1, 76038, Note_off_c, 0, 74, 60
1, 76050, Control_c, 0, 64, 57
1, 76064, Control_c, 0, 64, 63
1, 76075, Note_on_c, 0, 67, 59
1, 76079, Control_c, 0, 64, 67
1, 76094, Control_c, 0, 64, 72
1, 76109, Control_c, 0, 64, 79
1, 76114, Note_off_c, 0, 67, 59
1, 76124, Control_c, 0, 64, 86
1, 76132, Note_on_c, 0, 57, 73
1, 76138, Control_c, 0, 64, 89
1, 76153, Control_c, 0, 64, 89
1, 76168, Control_c, 0, 64, 88
1, 76171, Note_off_c, 0, 57, 60
1, 76183, Control_c, 0, 64, 82
1, 76198, Control_c, 0, 64, 70
1, 76203, Note_on_c, 0, 67, 67
1, 76212, Control_c, 0, 64, 49
1, 76227, Control_c, 0, 64, 0
1, 76252, Note_off_c, 0, 67, 62
1, 76262, Note_on_c, 0, 71, 80
1, 76279, Control_c, 0, 64, 12
1, 76281, Note_off_c, 0, 72, 62
1, 76284, Note_on_c, 0, 55, 60
1, 76294, Control_c, 0, 64, 48
1, 76309, Control_c, 0, 64, 59
1, 76317, Note_off_c, 0, 55, 64
1, 76324, Control_c, 0, 64, 63
1, 76338, Control_c, 0, 64, 66
1, 76350, Note_on_c, 0, 67, 71
1, 76353, Control_c, 0, 64, 73
1, 76368, Control_c, 0, 64, 83
1, 76383, Control_c, 0, 64, 100
1, 76391, Note_off_c, 0, 67, 60
1, 76398, Control_c, 0, 64, 127
1, 76421, Note_off_c, 0, 71, 64
1, 76422, Note_on_c, 0, 55, 60
1, 76452, Note_off_c, 0, 55, 64
1, 76502, Note_on_c, 0, 67, 58
1, 76516, Control_c, 0, 64, 121
1, 76531, Control_c, 0, 64, 70
1, 76539, Note_off_c, 0, 67, 59
1, 76547, Control_c, 0, 64, 0
1, 76568, Note_on_c, 0, 76, 79
1, 76574, Note_on_c, 0, 60, 67
1, 76576, Control_c, 0, 64, 29
1, 76591, Control_c, 0, 64, 59
1, 76606, Control_c, 0, 64, 67
1, 76612, Note_off_c, 0, 60, 64
1, 76614, Note_off_c, 0, 76, 63
1, 76621, Control_c, 0, 64, 81
1, 76636, Control_c, 0, 64, 127
1, 76655, Note_on_c, 0, 67, 62
1, 76706, Note_off_c, 0, 67, 59
1, 76733, Note_on_c, 0, 66, 50
1, 76736, Note_on_c, 0, 78, 72
1, 76769, Note_off_c, 0, 78, 64
1, 76776, Note_on_c, 0, 76, 66
1, 76787, Note_off_c, 0, 66, 60
1, 76798, Control_c, 0, 64, 83
1, 76804, Note_off_c, 0, 76, 68
1, 76813, Control_c, 0, 64, 62
1, 76824, Note_on_c, 0, 74, 72
1, 76828, Control_c, 0, 64, 51
1, 76828, Note_on_c, 0, 67, 39
1, 76842, Control_c, 0, 64, 54
1, 76856, Note_off_c, 0, 74, 59
1, 76857, Control_c, 0, 64, 54
1, 76858, Note_off_c, 0, 67, 56
1, 76872, Control_c, 0, 64, 54
1, 76873, Note_on_c, 0, 76, 78
1, 76875, Note_on_c, 0, 60, 57
1, 76886, Control_c, 0, 64, 49
1, 76897, Note_off_c, 0, 76, 68
1, 76901, Control_c, 0, 64, 22
1, 76912, Note_off_c, 0, 60, 63
1, 76916, Control_c, 0, 64, 0
1, 76946, Control_c, 0, 64, 8
1, 76953, Note_on_c, 0, 67, 53
1, 76960, Control_c, 0, 64, 19
1, 76975, Control_c, 0, 64, 20
1, 77016, Note_off_c, 0, 67, 58
1, 77025, Note_on_c, 0, 78, 84
1, 77034, Note_on_c, 0, 66, 62
1, 77042, Control_c, 0, 64, 23
1, 77046, Note_off_c, 0, 78, 71
1, 77057, Control_c, 0, 64, 27
1, 77072, Control_c, 0, 64, 28
1, 77076, Note_off_c, 0, 66, 58
1, 77122, Note_on_c, 0, 67, 62
1, 77131, Control_c, 0, 64, 29
1, 77146, Control_c, 0, 64, 31
1, 77159, Note_off_c, 0, 67, 60
1, 77160, Control_c, 0, 64, 32
1, 77183, Note_on_c, 0, 81, 76
1, 77198, Note_on_c, 0, 60, 56
1, 77234, Control_c, 0, 64, 32
1, 77249, Control_c, 0, 64, 33
1, 77255, Note_off_c, 0, 60, 58
1, 77278, Note_on_c, 0, 67, 50
1, 77323, Control_c, 0, 64, 34
1, 77347, Note_on_c, 0, 79, 79
1, 77356, Note_off_c, 0, 67, 62
1, 77364, Note_on_c, 0, 66, 65
1, 77371, Note_off_c, 0, 81, 66
1, 77388, Note_off_c, 0, 79, 67
1, 77410, Note_off_c, 0, 66, 55
1, 77413, Control_c, 0, 64, 36
1, 77428, Control_c, 0, 64, 36
1, 77444, Note_on_c, 0, 67, 59
1, 77489, Note_off_c, 0, 67, 57
1, 77490, Note_on_c, 0, 78, 84
1, 77502, Control_c, 0, 64, 39
1, 77508, Note_on_c, 0, 60, 66
1, 77517, Control_c, 0, 64, 39
1, 77568, Note_off_c, 0, 60, 58
1, 77595, Note_on_c, 0, 67, 62
1, 77641, Note_on_c, 0, 76, 80
1, 77641, Note_off_c, 0, 67, 58
1, 77663, Note_on_c, 0, 66, 64
1, 77673, Note_off_c, 0, 78, 64
1, 77690, Note_off_c, 0, 76, 62
1, 77708, Note_off_c, 0, 66, 59
1, 77724, Control_c, 0, 64, 34
1, 77746, Control_c, 0, 64, 29
1, 77761, Control_c, 0, 64, 19
1, 77762, Note_on_c, 0, 67, 52
1, 77776, Control_c, 0, 64, 0
1, 77797, Note_on_c, 0, 74, 75
1, 77801, Note_off_c, 0, 67, 61
1, 77815, Note_on_c, 0, 59, 59
1, 77836, Control_c, 0, 64, 20
1, 77851, Control_c, 0, 64, 54
1, 77865, Control_c, 0, 64, 65
1, 77880, Note_off_c, 0, 59, 56
1, 77880, Control_c, 0, 64, 76
1, 77891, Note_off_c, 0, 74, 64
1, 77895, Control_c, 0, 64, 99
1, 77897, Note_on_c, 0, 67, 60
1, 77909, Control_c, 0, 64, 127
1, 77951, Note_off_c, 0, 67, 59
1, 77976, Note_on_c, 0, 66, 57
1, 78018, Note_off_c, 0, 66, 61
1, 78072, Control_c, 0, 64, 88
1, 78079, Note_on_c, 0, 67, 39
1, 78087, Control_c, 0, 64, 73
1, 78102, Control_c, 0, 64, 66
1, 78103, Note_off_c, 0, 67, 57
1, 78116, Control_c, 0, 64, 62
1, 78131, Note_on_c, 0, 59, 50
1, 78132, Control_c, 0, 64, 57
1, 78139, Note_on_c, 0, 74, 52
1, 78148, Control_c, 0, 64, 36
1, 78163, Control_c, 0, 64, 0
1, 78176, Note_off_c, 0, 59, 58
1, 78214, Note_on_c, 0, 67, 43
1, 78222, Control_c, 0, 64, 40
1, 78237, Control_c, 0, 64, 57
1, 78252, Control_c, 0, 64, 64
1, 78267, Note_off_c, 0, 67, 58
1, 78267, Control_c, 0, 64, 68
1, 78281, Control_c, 0, 64, 73
1, 78296, Control_c, 0, 64, 88
1, 78304, Note_on_c, 0, 59, 45
1, 78311, Control_c, 0, 64, 127
1, 78336, Note_off_c, 0, 59, 58
1, 78383, Note_on_c, 0, 67, 42
1, 78409, Note_off_c, 0, 67, 55
1, 78429, Control_c, 0, 64, 110
1, 78437, Note_on_c, 0, 57, 62
1, 78444, Control_c, 0, 64, 81
1, 78447, Note_on_c, 0, 72, 71
1, 78459, Control_c, 0, 64, 64
1, 78474, Control_c, 0, 64, 49
1, 78476, Note_off_c, 0, 57, 66
1, 78496, Control_c, 0, 64, 53
1, 78508, Note_off_c, 0, 74, 58
1, 78511, Control_c, 0, 64, 54
1, 78526, Control_c, 0, 64, 54
1, 78532, Note_on_c, 0, 67, 43
1, 78555, Control_c, 0, 64, 56
1, 78570, Control_c, 0, 64, 62
1, 78576, Note_off_c, 0, 67, 63
1, 78585, Control_c, 0, 64, 72
1, 78597, Note_on_c, 0, 57, 47
1, 78600, Control_c, 0, 64, 82
1, 78614, Control_c, 0, 64, 95
1, 78629, Control_c, 0, 64, 104
1, 78635, Note_off_c, 0, 57, 64
1, 78644, Control_c, 0, 64, 127
1, 78666, Note_on_c, 0, 67, 60
1, 78712, Note_off_c, 0, 67, 56
1, 78733, Control_c, 0, 64, 116
1, 78748, Control_c, 0, 64, 90
1, 78756, Note_on_c, 0, 55, 55
1, 78758, Note_on_c, 0, 71, 69
1, 78763, Control_c, 0, 64, 68
1, 78774, Note_off_c, 0, 72, 55
1, 78778, Control_c, 0, 64, 43
1, 78793, Control_c, 0, 64, 0
1, 78793, Note_off_c, 0, 55, 64
1, 78807, Control_c, 0, 64, 10
1, 78822, Control_c, 0, 64, 45
1, 78834, Note_on_c, 0, 67, 56
1, 78837, Control_c, 0, 64, 61
1, 78852, Control_c, 0, 64, 67
1, 78866, Control_c, 0, 64, 74
1, 78873, Note_off_c, 0, 67, 61
1, 78881, Control_c, 0, 64, 86
1, 78896, Control_c, 0, 64, 127
1, 78897, Note_on_c, 0, 55, 58
1, 78939, Note_off_c, 0, 55, 65
1, 78962, Note_off_c, 0, 71, 63
1, 78972, Note_on_c, 0, 67, 66
1, 78996, Note_off_c, 0, 67, 68
1, 79016, Control_c, 0, 64, 89
1, 79030, Control_c, 0, 64, 64
1, 79045, Control_c, 0, 64, 0
1, 79048, Note_on_c, 0, 69, 65
1, 79060, Control_c, 0, 64, 20
1, 79062, Note_on_c, 0, 48, 64
1, 79075, Control_c, 0, 64, 53
1, 79090, Control_c, 0, 64, 62
1, 79104, Control_c, 0, 64, 64
1, 79106, Note_off_c, 0, 48, 57
1, 79119, Control_c, 0, 64, 64
1, 79134, Control_c, 0, 64, 65
1, 79149, Control_c, 0, 64, 67
1, 79155, Note_on_c, 0, 57, 43
1, 79163, Control_c, 0, 64, 69
1, 79178, Control_c, 0, 64, 70
1, 79193, Control_c, 0, 64, 68
1, 79198, Note_off_c, 0, 57, 63
1, 79208, Control_c, 0, 64, 66
1, 79216, Note_on_c, 0, 52, 60
1, 79223, Control_c, 0, 64, 64
1, 79245, Control_c, 0, 64, 63
1, 79260, Control_c, 0, 64, 63
1, 79269, Note_off_c, 0, 52, 62
1, 79275, Note_on_c, 0, 76, 69
1, 79275, Control_c, 0, 64, 63
1, 79276, Note_off_c, 0, 69, 63
1, 79290, Control_c, 0, 64, 61
1, 79296, Note_on_c, 0, 57, 57
1, 79305, Control_c, 0, 64, 51
1, 79308, Note_off_c, 0, 76, 62
1, 79319, Control_c, 0, 64, 20
1, 79332, Note_off_c, 0, 57, 64
1, 79334, Control_c, 0, 64, 15
1, 79349, Control_c, 0, 64, 34
1, 79359, Note_on_c, 0, 74, 67
1, 79363, Note_on_c, 0, 48, 60
1, 79363, Control_c, 0, 64, 42
1, 79378, Control_c, 0, 64, 43
1, 79408, Control_c, 0, 64, 40
1, 79409, Note_off_c, 0, 48, 58
1, 79416, Note_off_c, 0, 74, 47
1, 79423, Control_c, 0, 64, 37
1, 79427, Note_on_c, 0, 72, 68
1, 79430, Note_on_c, 0, 57, 48
1, 79475, Note_off_c, 0, 57, 62
1, 79484, Note_off_c, 0, 72, 64
1, 79496, Note_on_c, 0, 71, 57
1, 79496, Note_on_c, 0, 52, 49
1, 79511, Control_c, 0, 64, 37
1, 79538, Note_off_c, 0, 52, 64
1, 79540, Note_off_c, 0, 71, 66
1, 79562, Note_on_c, 0, 69, 65
1, 79574, Note_on_c, 0, 57, 55
1, 79586, Control_c, 0, 64, 36
1, 79600, Control_c, 0, 64, 33
1, 79625, Note_off_c, 0, 57, 55
1, 79645, Note_on_c, 0, 67, 70
1, 79646, Note_off_c, 0, 69, 62
1, 79648, Note_on_c, 0, 50, 55
1, 79687, Note_off_c, 0, 50, 61
1, 79689, Control_c, 0, 64, 38
1, 79704, Control_c, 0, 64, 48
1, 79719, Control_c, 0, 64, 57
1, 79725, Note_on_c, 0, 59, 62
1, 79735, Control_c, 0, 64, 63
1, 79750, Control_c, 0, 64, 66
1, 79764, Control_c, 0, 64, 70
1, 79773, Note_off_c, 0, 59, 58
1, 79779, Control_c, 0, 64, 75
1, 79794, Control_c, 0, 64, 85
1, 79799, Note_off_c, 0, 67, 63
1, 79804, Note_on_c, 0, 55, 54
1, 79809, Control_c, 0, 64, 99
1, 79824, Control_c, 0, 64, 127
1, 79848, Note_off_c, 0, 55, 64
1, 79876, Note_on_c, 0, 59, 59
1, 79912, Control_c, 0, 64, 115
1, 79916, Note_off_c, 0, 59, 61
1, 79927, Control_c, 0, 64, 95
1, 79939, Note_on_c, 0, 50, 61
1, 79942, Control_c, 0, 64, 75
1, 79955, Note_on_c, 0, 69, 67
1, 79957, Control_c, 0, 64, 56
1, 79972, Control_c, 0, 64, 0
1, 79987, Note_off_c, 0, 50, 62
1, 79989, Note_off_c, 0, 69, 67
1, 79994, Control_c, 0, 64, 20
1, 80009, Control_c, 0, 64, 44
1, 80018, Note_on_c, 0, 71, 57
1, 80024, Control_c, 0, 64, 55
1, 80037, Note_on_c, 0, 60, 52
1, 80039, Control_c, 0, 64, 58
1, 80053, Note_off_c, 0, 71, 65
1, 80054, Control_c, 0, 64, 61
1, 80065, Note_on_c, 0, 69, 66
1, 80068, Control_c, 0, 64, 66
1, 80069, Note_off_c, 0, 60, 61
1, 80083, Control_c, 0, 64, 71
1, 80092, Note_off_c, 0, 69, 67
1, 80096, Note_on_c, 0, 54, 59
1, 80098, Control_c, 0, 64, 76
1, 80108, Note_on_c, 0, 67, 56
1, 80112, Control_c, 0, 64, 79
1, 80127, Control_c, 0, 64, 77
1, 80128, Note_off_c, 0, 54, 65
1, 80128, Note_off_c, 0, 67, 61
1, 80142, Control_c, 0, 64, 71
1, 80157, Control_c, 0, 64, 61
1, 80158, Note_on_c, 0, 69, 70
1, 80159, Note_on_c, 0, 60, 63
1, 80172, Control_c, 0, 64, 0
1, 80197, Note_off_c, 0, 60, 64
1, 80203, Note_off_c, 0, 69, 61
1, 80206, Note_on_c, 0, 67, 57
1, 80245, Note_on_c, 0, 55, 59
1, 80246, Control_c, 0, 64, 38
1, 80260, Control_c, 0, 64, 62
1, 80275, Control_c, 0, 64, 69
1, 80290, Control_c, 0, 64, 77
1, 80297, Note_off_c, 0, 55, 54
1, 80298, Note_off_c, 0, 67, 64
1, 80304, Control_c, 0, 64, 89
1, 80319, Control_c, 0, 64, 108
1, 80330, Note_on_c, 0, 62, 53
1, 80334, Control_c, 0, 64, 127
1, 80364, Note_off_c, 0, 62, 64
1, 80377, Note_on_c, 0, 59, 60
1, 80411, Note_off_c, 0, 59, 64
1, 80442, Note_on_c, 0, 62, 68
1, 80504, Note_off_c, 0, 62, 60
1, 80542, Control_c, 0, 64, 117
1, 80545, Note_on_c, 0, 74, 84
1, 80554, Note_on_c, 0, 59, 57
1, 80557, Control_c, 0, 64, 82
1, 80572, Control_c, 0, 64, 66
1, 80587, Control_c, 0, 64, 52
1, 80601, Control_c, 0, 64, 33
1, 80616, Control_c, 0, 64, 25
1, 80631, Control_c, 0, 64, 33
1, 80633, Note_off_c, 0, 59, 62
1, 80646, Control_c, 0, 64, 45
1, 80656, Note_on_c, 0, 67, 59
1, 80661, Control_c, 0, 64, 55
1, 80675, Control_c, 0, 64, 63
1, 80690, Control_c, 0, 64, 70
1, 80705, Control_c, 0, 64, 85
1, 80719, Note_off_c, 0, 67, 58
1, 80720, Control_c, 0, 64, 127
1, 80748, Note_on_c, 0, 59, 59
1, 80777, Note_off_c, 0, 59, 65
1, 80814, Note_on_c, 0, 67, 62
1, 80848, Note_off_c, 0, 67, 58
1, 80876, Note_on_c, 0, 57, 67
1, 80876, Control_c, 0, 64, 96
1, 80881, Note_on_c, 0, 72, 85
1, 80890, Control_c, 0, 64, 71
1, 80905, Control_c, 0, 64, 43
1, 80920, Control_c, 0, 64, 0
1, 80942, Note_off_c, 0, 57, 62
1, 80945, Note_off_c, 0, 74, 60
1, 80949, Control_c, 0, 64, 30
1, 80964, Control_c, 0, 64, 48
1, 80968, Note_on_c, 0, 67, 75
1, 80979, Control_c, 0, 64, 58
1, 80994, Control_c, 0, 64, 63
1, 81008, Control_c, 0, 64, 70
1, 81018, Note_off_c, 0, 67, 53
1, 81023, Control_c, 0, 64, 82
1, 81038, Control_c, 0, 64, 127
1, 81040, Note_on_c, 0, 57, 75
1, 81092, Note_off_c, 0, 57, 64
1, 81116, Note_on_c, 0, 67, 73
1, 81171, Control_c, 0, 64, 103
1, 81172, Note_off_c, 0, 67, 58
1, 81177, Note_on_c, 0, 71, 81
1, 81186, Control_c, 0, 64, 71
1, 81194, Note_on_c, 0, 55, 67
1, 81201, Control_c, 0, 64, 36
1, 81215, Note_off_c, 0, 72, 62
1, 81216, Control_c, 0, 64, 0
1, 81242, Note_off_c, 0, 55, 61
1, 81246, Control_c, 0, 64, 34
1, 81261, Control_c, 0, 64, 60
1, 81270, Note_on_c, 0, 67, 72
1, 81276, Control_c, 0, 64, 68
1, 81290, Control_c, 0, 64, 78
1, 81305, Control_c, 0, 64, 95
1, 81314, Note_off_c, 0, 67, 57
1, 81320, Control_c, 0, 64, 127
1, 81342, Note_off_c, 0, 71, 64
1, 81348, Note_on_c, 0, 55, 68
1, 81378, Note_off_c, 0, 55, 66
1, 81419, Note_on_c, 0, 67, 60
1, 81439, Control_c, 0, 64, 83
1, 81447, Note_off_c, 0, 67, 63
1, 81454, Control_c, 0, 64, 60
1, 81469, Control_c, 0, 64, 0
1, 81471, Note_on_c, 0, 76, 78
1, 81505, Note_on_c, 0, 60, 70
1, 81506, Control_c, 0, 64, 57
1, 81520, Control_c, 0, 64, 70
1, 81535, Control_c, 0, 64, 90
1, 81536, Note_off_c, 0, 76, 64
1, 81543, Note_off_c, 0, 60, 62
1, 81550, Control_c, 0, 64, 127
1, 81584, Note_on_c, 0, 67, 57
1, 81642, Note_off_c, 0, 67, 57
1, 81657, Note_on_c, 0, 78, 78
1, 81667, Note_on_c, 0, 66, 57
1, 81690, Note_on_c, 0, 76, 71
1, 81699, Control_c, 0, 64, 88
1, 81705, Note_off_c, 0, 78, 61
1, 81713, Control_c, 0, 64, 70
1, 81714, Note_off_c, 0, 66, 60
1, 81728, Control_c, 0, 64, 62
1, 81729, Note_off_c, 0, 76, 66
1, 81742, Note_on_c, 0, 74, 73
1, 81743, Control_c, 0, 64, 60
1, 81750, Note_on_c, 0, 67, 55
1, 81757, Control_c, 0, 64, 57
1, 81772, Control_c, 0, 64, 51
1, 81776, Note_off_c, 0, 74, 53
1, 81786, Note_off_c, 0, 67, 63
1, 81787, Control_c, 0, 64, 31
1, 81790, Note_on_c, 0, 76, 80
1, 81802, Control_c, 0, 64, 0
1, 81809, Note_on_c, 0, 60, 64
1, 81819, Note_off_c, 0, 76, 65
1, 81844, Note_off_c, 0, 60, 61
1, 81881, Note_on_c, 0, 67, 63
1, 81934, Note_off_c, 0, 67, 56
1, 81941, Note_on_c, 0, 78, 82
1, 81958, Note_on_c, 0, 66, 53
1, 81980, Note_off_c, 0, 78, 65
1, 82000, Note_off_c, 0, 66, 62
1, 82037, Note_on_c, 0, 67, 53
1, 82039, Control_c, 0, 64, 12
1, 82054, Control_c, 0, 64, 15
1, 82079, Note_off_c, 0, 67, 60
1, 82091, Note_on_c, 0, 81, 76
1, 82108, Note_on_c, 0, 60, 55
1, 82162, Note_off_c, 0, 60, 57
1, 82187, Note_on_c, 0, 67, 51
1, 82203, Control_c, 0, 64, 16
1, 82218, Control_c, 0, 64, 17
1, 82260, Note_on_c, 0, 79, 80
1, 82270, Note_off_c, 0, 67, 63
1, 82270, Control_c, 0, 64, 18
1, 82282, Note_on_c, 0, 66, 60
1, 82288, Note_off_c, 0, 81, 66
1, 82300, Control_c, 0, 64, 19
1, 82304, Note_off_c, 0, 79, 66
1, 82325, Note_off_c, 0, 66, 58
1, 82349, Note_on_c, 0, 67, 64
1, 82374, Control_c, 0, 64, 20
1, 82403, Control_c, 0, 64, 21
1, 82405, Note_on_c, 0, 78, 84
1, 82419, Note_off_c, 0, 67, 56
1, 82432, Note_on_c, 0, 60, 57
1, 82462, Control_c, 0, 64, 23
1, 82477, Control_c, 0, 64, 28
1, 82492, Control_c, 0, 64, 30
1, 82496, Note_off_c, 0, 60, 61
1, 82503, Note_on_c, 0, 67, 64
1, 82555, Note_on_c, 0, 76, 79
1, 82558, Note_off_c, 0, 67, 59
1, 82566, Control_c, 0, 64, 31
1, 82573, Note_on_c, 0, 66, 58
1, 82581, Control_c, 0, 64, 32
1, 82590, Note_off_c, 0, 78, 65
1, 82605, Note_off_c, 0, 76, 63
1, 82612, Note_off_c, 0, 66, 61
1, 82658, Note_on_c, 0, 67, 45
1, 82670, Control_c, 0, 64, 31
1, 82685, Control_c, 0, 64, 26
1, 82691, Note_off_c, 0, 67, 55
1, 82699, Control_c, 0, 64, 19
1, 82707, Note_on_c, 0, 74, 72
1, 82713, Note_on_c, 0, 59, 58
1, 82714, Control_c, 0, 64, 0
1, 82759, Control_c, 0, 64, 32
1, 82769, Note_off_c, 0, 59, 57
1, 82773, Control_c, 0, 64, 58
1, 82788, Control_c, 0, 64, 69
1, 82793, Note_on_c, 0, 67, 49
1, 82803, Control_c, 0, 64, 85
1, 82818, Control_c, 0, 64, 127
1, 82820, Note_off_c, 0, 74, 65
1, 82855, Note_off_c, 0, 67, 57
1, 82870, Note_on_c, 0, 66, 52
1, 82911, Note_off_c, 0, 66, 61
1, 82963, Note_on_c, 0, 67, 39
1, 82967, Control_c, 0, 64, 121
1, 82990, Control_c, 0, 64, 92
1, 83004, Control_c, 0, 64, 77
1, 83011, Note_off_c, 0, 67, 53
1, 83019, Control_c, 0, 64, 67
1, 83034, Control_c, 0, 64, 61
1, 83040, Note_on_c, 0, 59, 47
1, 83049, Control_c, 0, 64, 53
1, 83055, Note_on_c, 0, 74, 55
1, 83064, Control_c, 0, 64, 42
1, 83079, Control_c, 0, 64, 19
1, 83093, Control_c, 0, 64, 0
1, 83094, Note_off_c, 0, 59, 55
1, 83124, Note_on_c, 0, 67, 50
1, 83137, Control_c, 0, 64, 25
1, 83152, Control_c, 0, 64, 50
1, 83167, Control_c, 0, 64, 60
1, 83182, Control_c, 0, 64, 66
1, 83190, Note_off_c, 0, 67, 54
1, 83197, Control_c, 0, 64, 71
1, 83208, Note_on_c, 0, 59, 56
1, 83211, Control_c, 0, 64, 81
1, 83226, Control_c, 0, 64, 99
1, 83241, Control_c, 0, 64, 127
1, 83245, Note_off_c, 0, 59, 62
1, 83295, Note_on_c, 0, 67, 52
1, 83338, Note_off_c, 0, 67, 57
1, 83344, Control_c, 0, 64, 99
1, 83359, Control_c, 0, 64, 83
1, 83362, Note_on_c, 0, 57, 60
1, 83366, Note_on_c, 0, 72, 69
1, 83374, Control_c, 0, 64, 68
1, 83389, Control_c, 0, 64, 54
1, 83404, Note_off_c, 0, 57, 59
1, 83404, Control_c, 0, 64, 29
1, 83413, Note_off_c, 0, 74, 57
1, 83419, Control_c, 0, 64, 35
1, 83434, Control_c, 0, 64, 39
1, 83445, Note_on_c, 0, 67, 52
1, 83449, Control_c, 0, 64, 44
1, 83464, Control_c, 0, 64, 51
1, 83478, Control_c, 0, 64, 60
1, 83492, Note_off_c, 0, 67, 58
1, 83493, Control_c, 0, 64, 69
1, 83508, Control_c, 0, 64, 81
1, 83512, Note_on_c, 0, 57, 56
1, 83522, Control_c, 0, 64, 98
1, 83537, Control_c, 0, 64, 113
1, 83549, Note_off_c, 0, 57, 64
1, 83552, Control_c, 0, 64, 123
1, 83567, Control_c, 0, 64, 127
1, 83598, Note_on_c, 0, 67, 60
1, 83626, Control_c, 0, 64, 115
1, 83631, Note_off_c, 0, 67, 63
1, 83641, Control_c, 0, 64, 82
1, 83656, Control_c, 0, 64, 65
1, 83661, Note_on_c, 0, 71, 66
1, 83663, Note_on_c, 0, 55, 57
1, 83670, Control_c, 0, 64, 37
1, 83685, Control_c, 0, 64, 0
1, 83690, Note_off_c, 0, 72, 56
1, 83700, Control_c, 0, 64, 29
1, 83710, Note_off_c, 0, 55, 63
1, 83715, Control_c, 0, 64, 51
1, 83738, Control_c, 0, 64, 62
1, 83750, Note_on_c, 0, 67, 58
1, 83753, Control_c, 0, 64, 67
1, 83768, Control_c, 0, 64, 73
1, 83783, Control_c, 0, 64, 82
1, 83789, Note_off_c, 0, 67, 62
1, 83798, Control_c, 0, 64, 104
1, 83812, Control_c, 0, 64, 127
1, 83836, Note_on_c, 0, 55, 56
1, 83869, Note_off_c, 0, 55, 64
1, 83888, Note_off_c, 0, 71, 64
1, 83892, Note_on_c, 0, 67, 61
1, 83918, Note_off_c, 0, 67, 64
1, 83931, Control_c, 0, 64, 77
1, 83946, Control_c, 0, 64, 52
1, 83960, Control_c, 0, 64, 0
1, 83965, Note_on_c, 0, 69, 71
1, 83983, Note_on_c, 0, 48, 60
1, 83990, Control_c, 0, 64, 46
1, 84005, Control_c, 0, 64, 61
1, 84020, Control_c, 0, 64, 68
1, 84034, Control_c, 0, 64, 78
1, 84049, Note_off_c, 0, 48, 42
1, 84049, Control_c, 0, 64, 102
1, 84063, Note_on_c, 0, 57, 56
1, 84064, Control_c, 0, 64, 127
1, 84112, Note_off_c, 0, 57, 60
1, 84136, Note_on_c, 0, 52, 55
1, 84182, Note_off_c, 0, 52, 64
1, 84191, Note_on_c, 0, 76, 68
1, 84197, Note_off_c, 0, 69, 63
1, 84212, Note_on_c, 0, 57, 39
1, 84212, Control_c, 0, 64, 95
1, 84221, Note_off_c, 0, 76, 66
1, 84227, Control_c, 0, 64, 71
1, 84237, Note_off_c, 0, 57, 58
1, 84242, Control_c, 0, 64, 55
1, 84257, Control_c, 0, 64, 44
1, 84272, Note_on_c, 0, 48, 57
1, 84272, Control_c, 0, 64, 45
1, 84278, Note_on_c, 0, 74, 73
1, 84301, Control_c, 0, 64, 44
1, 84310, Note_off_c, 0, 48, 60
1, 84316, Control_c, 0, 64, 37
1, 84328, Note_on_c, 0, 57, 56
1, 84331, Control_c, 0, 64, 31
1, 84345, Note_on_c, 0, 72, 77
1, 84346, Control_c, 0, 64, 32
1, 84348, Note_off_c, 0, 74, 58
1, 84360, Control_c, 0, 64, 37
1, 84375, Control_c, 0, 64, 40
1, 84386, Note_off_c, 0, 57, 58
1, 84390, Control_c, 0, 64, 40
1, 84415, Note_off_c, 0, 72, 64
1, 84417, Note_on_c, 0, 52, 47
1, 84430, Note_on_c, 0, 71, 64
1, 84434, Control_c, 0, 64, 41
1, 84449, Control_c, 0, 64, 41
1, 84454, Note_off_c, 0, 52, 65
1, 84481, Note_off_c, 0, 71, 66
1, 84498, Note_on_c, 0, 57, 63
1, 84499, Note_on_c, 0, 69, 66
1, 84531, Note_off_c, 0, 57, 65
1, 84546, Control_c, 0, 64, 42
1, 84576, Note_on_c, 0, 50, 57
1, 84582, Note_on_c, 0, 67, 72
1, 84585, Note_off_c, 0, 69, 63
1, 84605, Control_c, 0, 64, 42
1, 84608, Note_off_c, 0, 50, 62
1, 84620, Control_c, 0, 64, 49
1, 84635, Control_c, 0, 64, 59
1, 84648, Note_on_c, 0, 59, 57
1, 84650, Control_c, 0, 64, 64
1, 84665, Control_c, 0, 64, 69
1, 84680, Control_c, 0, 64, 75
1, 84695, Control_c, 0, 64, 83
1, 84702, Note_off_c, 0, 59, 59
1, 84710, Control_c, 0, 64, 95
1, 84724, Control_c, 0, 64, 115
1, 84725, Note_on_c, 0, 55, 58
1, 84739, Control_c, 0, 64, 127
1, 84746, Note_off_c, 0, 67, 64
1, 84769, Note_off_c, 0, 55, 63
1, 84808, Note_on_c, 0, 59, 65
1, 84843, Control_c, 0, 64, 93
1, 84845, Note_off_c, 0, 59, 60
1, 84857, Control_c, 0, 64, 68
1, 84872, Control_c, 0, 64, 21
1, 84877, Note_on_c, 0, 50, 60
1, 84883, Note_on_c, 0, 69, 70
1, 84886, Control_c, 0, 64, 0
1, 84901, Control_c, 0, 64, 22
1, 84915, Control_c, 0, 64, 63
1, 84930, Control_c, 0, 64, 73
1, 84932, Note_off_c, 0, 69, 63
1, 84945, Control_c, 0, 64, 82
1, 84954, Note_on_c, 0, 71, 62
1, 84960, Control_c, 0, 64, 90
1, 84974, Control_c, 0, 64, 97
1, 84981, Note_on_c, 0, 60, 41
1, 84989, Control_c, 0, 64, 112
1, 84995, Note_off_c, 0, 50, 27
1, 85004, Control_c, 0, 64, 127
1, 85005, Note_off_c, 0, 71, 61
1, 85009, Note_on_c, 0, 69, 69
1, 85017, Note_off_c, 0, 60, 52
1, 85038, Note_on_c, 0, 54, 53
1, 85044, Note_off_c, 0, 69, 62
1, 85071, Note_on_c, 0, 67, 43
1, 85100, Note_off_c, 0, 67, 55
1, 85106, Note_on_c, 0, 69, 68
1, 85108, Control_c, 0, 64, 103
1, 85122, Control_c, 0, 64, 84
1, 85137, Control_c, 0, 64, 68
1, 85144, Note_off_c, 0, 69, 63
1, 85148, Note_off_c, 0, 54, 59
1, 85152, Control_c, 0, 64, 58
1, 85167, Control_c, 0, 64, 54
1, 85173, Note_on_c, 0, 55, 40
1, 85175, Note_on_c, 0, 67, 72
1, 85181, Control_c, 0, 64, 53
1, 85188, Note_on_c, 0, 59, 45
1, 85196, Control_c, 0, 64, 49
1, 85211, Control_c, 0, 64, 40
1, 85223, Note_off_c, 0, 67, 60
1, 85234, Control_c, 0, 64, 18
1, 85249, Control_c, 0, 64, 0
1, 85267, Note_on_c, 0, 69, 50
1, 85312, Note_off_c, 0, 69, 64
1, 85333, Note_on_c, 0, 67, 61
1, 85395, Note_off_c, 0, 67, 63
1, 85395, Note_off_c, 0, 59, 60
1, 85406, Note_off_c, 0, 55, 63
1, 85410, Note_on_c, 0, 66, 56
1, 85449, Note_off_c, 0, 66, 63
1, 85483, Note_on_c, 0, 67, 65
1, 85518, Note_off_c, 0, 67, 60
1, 85554, Note_on_c, 0, 71, 68
1, 85613, Note_off_c, 0, 71, 61
1, 85634, Note_on_c, 0, 54, 57
1, 85636, Note_on_c, 0, 69, 69
1, 85640, Note_on_c, 0, 62, 47
1, 85664, Note_off_c, 0, 62, 59
1, 85668, Note_off_c, 0, 54, 65
1, 85669, Note_off_c, 0, 69, 60
1, 85696, Note_on_c, 0, 72, 64
1, 85765, Note_off_c, 0, 72, 47
1, 85786, Note_on_c, 0, 71, 67
1, 85804, Note_on_c, 0, 55, 49
1, 85812, Note_on_c, 0, 62, 27
1, 85845, Note_off_c, 0, 71, 64
1, 85863, Note_on_c, 0, 69, 63
1, 85901, Note_off_c, 0, 69, 63
1, 85938, Note_on_c, 0, 67, 63
1, 85998, Note_off_c, 0, 67, 55
1, 86021, Note_on_c, 0, 66, 61
1, 86059, Note_off_c, 0, 66, 62
1, 86070, Note_off_c, 0, 55, 63
1, 86077, Note_off_c, 0, 62, 57
1, 86096, Note_on_c, 0, 67, 74
1, 86134, Note_off_c, 0, 67, 58
1, 86170, Note_on_c, 0, 71, 71
1, 86236, Note_off_c, 0, 71, 64
1, 86248, Note_on_c, 0, 54, 67
1, 86251, Note_on_c, 0, 69, 68
1, 86264, Note_on_c, 0, 62, 40
1, 86275, Note_off_c, 0, 54, 67
1, 86292, Note_off_c, 0, 62, 53
1, 86304, Note_off_c, 0, 69, 61
1, 86319, Note_on_c, 0, 72, 67
1, 86402, Note_off_c, 0, 72, 62
1, 86403, Note_on_c, 0, 62, 48
1, 86405, Note_on_c, 0, 71, 69
1, 86410, Note_on_c, 0, 55, 52
1, 86463, Note_off_c, 0, 71, 64
1, 86480, Note_on_c, 0, 69, 63
1, 86517, Note_off_c, 0, 69, 63
1, 86556, Note_on_c, 0, 67, 67
1, 86603, Note_off_c, 0, 67, 59
1, 86626, Note_on_c, 0, 66, 66
1, 86663, Note_off_c, 0, 66, 63
1, 86683, Note_off_c, 0, 55, 62
1, 86689, Note_off_c, 0, 62, 62
1, 86700, Note_on_c, 0, 67, 71
1, 86746, Note_off_c, 0, 67, 52
1, 86776, Note_on_c, 0, 71, 72
1, 86843, Note_on_c, 0, 54, 67
1, 86850, Note_off_c, 0, 71, 63
1, 86852, Note_on_c, 0, 62, 51
1, 86863, Note_on_c, 0, 69, 67
1, 86874, Note_off_c, 0, 54, 65
1, 86874, Note_off_c, 0, 62, 61
1, 86904, Note_off_c, 0, 69, 62
1, 86920, Note_on_c, 0, 72, 72
1, 87006, Note_on_c, 0, 55, 69
1, 87008, Note_off_c, 0, 72, 63
1, 87008, Note_on_c, 0, 71, 71
1, 87014, Note_on_c, 0, 62, 42
1, 87038, Note_off_c, 0, 55, 65
1, 87041, Note_off_c, 0, 62, 58
1, 87048, Note_off_c, 0, 71, 64
1, 87068, Note_on_c, 0, 74, 66
1, 87141, Note_on_c, 0, 72, 71
1, 87145, Note_off_c, 0, 74, 61
1, 87157, Note_on_c, 0, 54, 66
1, 87162, Note_on_c, 0, 62, 41
1, 87189, Note_off_c, 0, 62, 60
1, 87193, Note_off_c, 0, 54, 65
1, 87217, Note_on_c, 0, 69, 71
1, 87217, Note_off_c, 0, 72, 63
1, 87292, Note_off_c, 0, 69, 60
1, 87304, Note_on_c, 0, 71, 79
1, 87306, Note_on_c, 0, 62, 58
1, 87313, Note_on_c, 0, 55, 66
1, 87339, Note_off_c, 0, 62, 65
1, 87349, Note_off_c, 0, 55, 61
1, 87370, Note_on_c, 0, 74, 69
1, 87370, Note_off_c, 0, 71, 58
1, 87447, Note_off_c, 0, 74, 64
1, 87449, Note_on_c, 0, 73, 74
1, 87456, Note_on_c, 0, 52, 59
1, 87482, Note_on_c, 0, 55, 7
1, 87502, Note_off_c, 0, 52, 66
1, 87512, Note_off_c, 0, 73, 63
1, 87528, Note_on_c, 0, 76, 68
1, 87531, Note_off_c, 0, 55, 27
1, 87609, Note_off_c, 0, 76, 63
1, 87610, Note_on_c, 0, 57, 52
1, 87615, Note_on_c, 0, 74, 72
1, 87620, Note_on_c, 0, 54, 46
1, 87674, Note_off_c, 0, 74, 58
1, 87687, Note_on_c, 0, 76, 69
1, 87759, Note_off_c, 0, 76, 62
1, 87765, Note_on_c, 0, 74, 69
1, 87825, Note_off_c, 0, 74, 64
1, 87831, Note_on_c, 0, 73, 71
1, 87872, Note_off_c, 0, 57, 61
1, 87876, Note_off_c, 0, 73, 61
1, 87890, Note_off_c, 0, 54, 65
1, 87909, Note_on_c, 0, 74, 77
1, 87974, Note_off_c, 0, 74, 60
1, 87977, Note_on_c, 0, 78, 77
1, 88057, Note_on_c, 0, 49, 65
1, 88058, Note_off_c, 0, 78, 64
1, 88061, Note_on_c, 0, 76, 75
1, 88066, Note_on_c, 0, 57, 59
1, 88094, Note_off_c, 0, 49, 64
1, 88100, Note_off_c, 0, 57, 65
1, 88124, Note_off_c, 0, 76, 62
1, 88129, Note_on_c, 0, 79, 71
1, 88219, Note_on_c, 0, 78, 74
1, 88221, Note_off_c, 0, 79, 62
1, 88236, Note_on_c, 0, 57, 49
1, 88240, Note_on_c, 0, 50, 56
1, 88297, Note_on_c, 0, 76, 75
1, 88299, Note_off_c, 0, 78, 64
1, 88344, Note_off_c, 0, 76, 62
1, 88373, Note_on_c, 0, 74, 72
1, 88418, Note_off_c, 0, 74, 51
1, 88447, Note_on_c, 0, 73, 70
1, 88493, Note_off_c, 0, 57, 60
1, 88501, Note_off_c, 0, 73, 62
1, 88519, Note_on_c, 0, 74, 76
1, 88523, Note_off_c, 0, 50, 63
1, 88589, Note_off_c, 0, 74, 57
1, 88599, Note_on_c, 0, 78, 75
1, 88674, Note_on_c, 0, 49, 66
1, 88686, Note_on_c, 0, 57, 50
1, 88690, Note_off_c, 0, 78, 64
1, 88690, Note_on_c, 0, 76, 72
1, 88710, Note_off_c, 0, 49, 61
1, 88713, Note_off_c, 0, 57, 60
1, 88749, Note_off_c, 0, 76, 60
1, 88761, Note_on_c, 0, 79, 67
1, 88847, Note_on_c, 0, 78, 71
1, 88847, Note_off_c, 0, 79, 62
1, 88851, Note_on_c, 0, 57, 43
1, 88856, Note_on_c, 0, 50, 54
1, 88929, Note_off_c, 0, 78, 64
1, 88931, Note_on_c, 0, 76, 66
1, 88983, Note_off_c, 0, 76, 63
1, 89008, Note_on_c, 0, 74, 71
1, 89059, Note_off_c, 0, 74, 53
1, 89081, Note_on_c, 0, 73, 73
1, 89107, Note_off_c, 0, 57, 59
1, 89116, Note_off_c, 0, 50, 63
1, 89143, Note_off_c, 0, 73, 63
1, 89153, Note_on_c, 0, 74, 86
1, 89229, Note_on_c, 0, 76, 79
1, 89232, Note_off_c, 0, 74, 61
1, 89296, Note_on_c, 0, 51, 61
1, 89310, Note_on_c, 0, 78, 79
1, 89312, Note_off_c, 0, 76, 64
1, 89323, Note_on_c, 0, 59, 18
1, 89337, Note_off_c, 0, 51, 61
1, 89366, Note_off_c, 0, 59, 39
1, 89379, Note_off_c, 0, 78, 65
1, 89383, Note_on_c, 0, 81, 73
1, 89466, Note_on_c, 0, 79, 72
1, 89470, Note_on_c, 0, 59, 58
1, 89474, Note_off_c, 0, 81, 61
1, 89483, Note_on_c, 0, 52, 53
1, 89542, Note_off_c, 0, 79, 66
1, 89547, Note_on_c, 0, 78, 74
1, 89604, Note_off_c, 0, 78, 65
1, 89625, Note_on_c, 0, 76, 78
1, 89672, Note_off_c, 0, 76, 57
1, 89703, Note_on_c, 0, 75, 73
1, 89749, Note_off_c, 0, 59, 63
1, 89767, Note_off_c, 0, 75, 61
1, 89774, Note_off_c, 0, 52, 64
1, 89777, Note_on_c, 0, 76, 85
1, 89851, Note_off_c, 0, 76, 58
1, 89852, Note_on_c, 0, 78, 82
1, 89920, Note_on_c, 0, 79, 76
1, 89926, Note_on_c, 0, 51, 77
1, 89930, Note_on_c, 0, 59, 71
1, 89934, Note_off_c, 0, 78, 52
1, 89958, Note_off_c, 0, 59, 67
1, 89959, Note_off_c, 0, 51, 63
1, 89998, Note_off_c, 0, 79, 65
1, 89998, Note_on_c, 0, 81, 76
1, 90080, Note_on_c, 0, 79, 78
1, 90084, Note_on_c, 0, 52, 65
1, 90085, Note_on_c, 0, 59, 64
1, 90090, Note_off_c, 0, 81, 60
1, 90114, Control_c, 0, 64, 8
1, 90129, Control_c, 0, 64, 10
1, 90154, Note_off_c, 0, 79, 65
1, 90156, Note_on_c, 0, 78, 78
1, 90173, Control_c, 0, 64, 14
1, 90187, Control_c, 0, 64, 22
1, 90202, Control_c, 0, 64, 24
1, 90212, Note_off_c, 0, 78, 64
1, 90233, Note_on_c, 0, 76, 77
1, 90292, Note_off_c, 0, 76, 59
1, 90299, Note_on_c, 0, 75, 77
1, 90306, Control_c, 0, 64, 25
1, 90354, Note_off_c, 0, 75, 62
1, 90363, Note_off_c, 0, 59, 63
1, 90376, Note_on_c, 0, 76, 84
1, 90380, Note_off_c, 0, 52, 63
1, 90439, Control_c, 0, 64, 24
1, 90447, Note_on_c, 0, 78, 83
1, 90457, Note_off_c, 0, 76, 56
1, 90524, Note_on_c, 0, 79, 80
1, 90537, Note_on_c, 0, 61, 72
1, 90540, Note_off_c, 0, 78, 59
1, 90543, Note_on_c, 0, 52, 66
1, 90581, Note_off_c, 0, 52, 64
1, 90585, Note_off_c, 0, 61, 57
1, 90598, Note_off_c, 0, 79, 65
1, 90599, Note_on_c, 0, 83, 85
1, 90681, Note_on_c, 0, 81, 78
1, 90689, Note_on_c, 0, 62, 69
1, 90692, Note_on_c, 0, 54, 67
1, 90702, Note_off_c, 0, 83, 62
1, 90767, Note_on_c, 0, 79, 80
1, 90773, Control_c, 0, 64, 26
1, 90788, Control_c, 0, 64, 33
1, 90791, Note_off_c, 0, 81, 64
1, 90802, Control_c, 0, 64, 36
1, 90817, Control_c, 0, 64, 38
1, 90832, Control_c, 0, 64, 41
1, 90844, Note_on_c, 0, 78, 81
1, 90845, Note_off_c, 0, 79, 65
1, 90847, Control_c, 0, 64, 42
1, 90862, Control_c, 0, 64, 45
1, 90909, Note_off_c, 0, 78, 63
1, 90916, Note_on_c, 0, 76, 81
1, 90981, Note_off_c, 0, 62, 62
1, 90988, Note_on_c, 0, 78, 86
1, 91005, Note_off_c, 0, 76, 60
1, 91005, Note_off_c, 0, 54, 62
1, 91054, Control_c, 0, 64, 43
1, 91056, Note_on_c, 0, 79, 80
1, 91069, Control_c, 0, 64, 42
1, 91081, Note_off_c, 0, 78, 58
1, 91124, Note_on_c, 0, 61, 79
1, 91126, Note_on_c, 0, 52, 75
1, 91128, Note_on_c, 0, 81, 77
1, 91129, Note_off_c, 0, 79, 68
1, 91143, Control_c, 0, 64, 41
1, 91157, Control_c, 0, 64, 39
1, 91162, Note_off_c, 0, 52, 65
1, 91172, Control_c, 0, 64, 37
1, 91178, Note_off_c, 0, 61, 62
1, 91187, Control_c, 0, 64, 36
1, 91202, Control_c, 0, 64, 35
1, 91205, Note_on_c, 0, 83, 85
1, 91205, Note_off_c, 0, 81, 66
1, 91224, Control_c, 0, 64, 34
1, 91239, Control_c, 0, 64, 31
1, 91254, Control_c, 0, 64, 22
1, 91269, Control_c, 0, 64, 0
1, 91288, Note_on_c, 0, 62, 59
1, 91293, Note_on_c, 0, 81, 77
1, 91295, Note_on_c, 0, 54, 65
1, 91296, Note_off_c, 0, 83, 61
1, 91370, Note_on_c, 0, 79, 80
1, 91372, Control_c, 0, 64, 17
1, 91387, Control_c, 0, 64, 42
1, 91389, Note_off_c, 0, 81, 61
1, 91402, Control_c, 0, 64, 59
1, 91417, Control_c, 0, 64, 68
1, 91432, Control_c, 0, 64, 81
1, 91445, Note_off_c, 0, 79, 66
1, 91447, Control_c, 0, 64, 101
1, 91451, Note_on_c, 0, 78, 79
1, 91461, Control_c, 0, 64, 127
1, 91508, Note_off_c, 0, 78, 64
1, 91510, Note_on_c, 0, 76, 79
1, 91549, Note_off_c, 0, 62, 63
1, 91551, Note_off_c, 0, 54, 64
1, 91581, Note_off_c, 0, 76, 61
1, 91584, Note_on_c, 0, 78, 83
1, 91634, Note_off_c, 0, 78, 63
1, 91639, Control_c, 0, 64, 116
1, 91654, Control_c, 0, 64, 100
1, 91662, Note_on_c, 0, 79, 79
1, 91669, Control_c, 0, 64, 98
1, 91684, Control_c, 0, 64, 94
1, 91698, Control_c, 0, 64, 82
1, 91714, Control_c, 0, 64, 65
1, 91729, Control_c, 0, 64, 42
1, 91730, Note_off_c, 0, 79, 59
1, 91733, Note_on_c, 0, 66, 72
1, 91733, Note_on_c, 0, 81, 67
1, 91744, Control_c, 0, 64, 25
1, 91775, Note_off_c, 0, 66, 61
1, 91788, Control_c, 0, 64, 24
1, 91801, Note_off_c, 0, 81, 60
1, 91803, Control_c, 0, 64, 0
1, 91812, Note_on_c, 0, 84, 85
1, 91882, Note_on_c, 0, 67, 78
1, 91887, Note_on_c, 0, 83, 83
1, 91892, Note_off_c, 0, 84, 63
1, 91932, Note_off_c, 0, 67, 62
1, 91953, Note_off_c, 0, 83, 64
1, 91953, Note_on_c, 0, 86, 81
1, 92031, Note_off_c, 0, 86, 57
1, 92040, Note_on_c, 0, 81, 80
1, 92046, Note_on_c, 0, 66, 74
1, 92093, Note_off_c, 0, 66, 61
1, 92097, Note_off_c, 0, 81, 64
1, 92108, Note_on_c, 0, 86, 81
1, 92171, Note_off_c, 0, 86, 62
1, 92182, Note_on_c, 0, 83, 82
1, 92191, Note_on_c, 0, 67, 75
1, 92228, Note_off_c, 0, 67, 60
1, 92247, Note_off_c, 0, 83, 65
1, 92255, Note_on_c, 0, 86, 83
1, 92306, Note_off_c, 0, 86, 62
1, 92332, Note_on_c, 0, 78, 81
1, 92335, Note_on_c, 0, 63, 70
1, 92370, Note_off_c, 0, 63, 62
1, 92398, Note_on_c, 0, 83, 85
1, 92400, Note_off_c, 0, 78, 58
1, 92463, Note_off_c, 0, 83, 64
1, 92473, Note_on_c, 0, 79, 80
1, 92482, Note_on_c, 0, 64, 71
1, 92520, Note_off_c, 0, 64, 62
1, 92539, Note_off_c, 0, 79, 65
1, 92546, Note_on_c, 0, 83, 78
1, 92615, Note_off_c, 0, 83, 64
1, 92627, Note_on_c, 0, 78, 84
1, 92633, Note_on_c, 0, 63, 69
1, 92671, Note_off_c, 0, 63, 62
1, 92680, Note_off_c, 0, 78, 61
1, 92690, Note_on_c, 0, 83, 75
1, 92763, Note_off_c, 0, 83, 64
1, 92784, Note_on_c, 0, 64, 67
1, 92785, Note_on_c, 0, 79, 75
1, 92812, Note_off_c, 0, 64, 65
1, 92836, Note_off_c, 0, 79, 63
1, 92840, Note_on_c, 0, 83, 77
1, 92893, Note_off_c, 0, 83, 62
1, 92928, Note_on_c, 0, 76, 79
1, 92934, Note_on_c, 0, 61, 62
1, 92967, Note_off_c, 0, 61, 63
1, 92970, Note_off_c, 0, 76, 58
1, 92993, Note_on_c, 0, 81, 68
1, 93061, Note_off_c, 0, 81, 64
1, 93068, Note_on_c, 0, 78, 72
1, 93083, Note_on_c, 0, 62, 62
1, 93117, Note_off_c, 0, 62, 61
1, 93137, Note_off_c, 0, 78, 64
1, 93144, Note_on_c, 0, 81, 63
1, 93193, Note_off_c, 0, 81, 62
1, 93221, Note_on_c, 0, 76, 70
1, 93236, Note_on_c, 0, 61, 56
1, 93266, Note_off_c, 0, 76, 58
1, 93271, Note_off_c, 0, 61, 64
1, 93298, Note_on_c, 0, 81, 61
1, 93357, Note_off_c, 0, 81, 63
1, 93370, Note_on_c, 0, 78, 66
1, 93376, Note_on_c, 0, 62, 64
1, 93405, Note_off_c, 0, 62, 65
1, 93423, Note_off_c, 0, 78, 62
1, 93444, Note_on_c, 0, 81, 60
1, 93494, Note_off_c, 0, 81, 62
1, 93525, Note_on_c, 0, 58, 62
1, 93525, Note_on_c, 0, 73, 62
1, 93556, Note_off_c, 0, 58, 65
1, 93569, Note_off_c, 0, 73, 58
1, 93584, Note_on_c, 0, 78, 63
1, 93620, Note_off_c, 0, 78, 64
1, 93670, Note_on_c, 0, 74, 60
1, 93677, Note_on_c, 0, 59, 52
1, 93707, Note_off_c, 0, 59, 64
1, 93712, Note_off_c, 0, 74, 58
1, 93728, Note_on_c, 0, 78, 63
1, 93772, Note_off_c, 0, 78, 59
1, 93816, Note_on_c, 0, 73, 56
1, 93818, Note_on_c, 0, 58, 52
1, 93851, Note_off_c, 0, 58, 63
1, 93852, Note_off_c, 0, 73, 57
1, 93883, Note_on_c, 0, 78, 55
1, 93913, Note_off_c, 0, 78, 62
1, 93945, Note_on_c, 0, 74, 63
1, 93951, Note_on_c, 0, 59, 58
1, 93984, Note_off_c, 0, 59, 64
1, 93988, Note_off_c, 0, 74, 60
1, 94012, Note_on_c, 0, 78, 54
1, 94082, Note_off_c, 0, 78, 61
1, 94091, Note_on_c, 0, 60, 56
1, 94098, Note_on_c, 0, 57, 47
1, 94103, Note_on_c, 0, 75, 59
1, 94120, Note_off_c, 0, 60, 64
1, 94124, Note_off_c, 0, 57, 60
1, 94146, Note_off_c, 0, 75, 54
1, 94171, Note_on_c, 0, 78, 46
1, 94235, Note_off_c, 0, 78, 53
1, 94255, Note_on_c, 0, 76, 56
1, 94273, Note_on_c, 0, 55, 42
1, 94273, Note_on_c, 0, 59, 35
1, 94326, Note_off_c, 0, 76, 63
1, 94335, Note_on_c, 0, 75, 63
1, 94375, Note_off_c, 0, 75, 62
1, 94398, Control_c, 0, 64, 24
1, 94413, Control_c, 0, 64, 45
1, 94419, Note_on_c, 0, 76, 51
1, 94428, Control_c, 0, 64, 61
1, 94442, Control_c, 0, 64, 72
1, 94457, Control_c, 0, 64, 88
1, 94472, Note_off_c, 0, 76, 56
1, 94472, Control_c, 0, 64, 127
1, 94474, Note_on_c, 0, 78, 71
1, 94532, Note_off_c, 0, 78, 64
1, 94534, Note_off_c, 0, 59, 52
1, 94540, Note_on_c, 0, 79, 64
1, 94556, Note_off_c, 0, 55, 63
1, 94601, Note_off_c, 0, 79, 65
1, 94611, Note_on_c, 0, 78, 71
1, 94660, Note_off_c, 0, 78, 63
1, 94665, Control_c, 0, 64, 115
1, 94680, Control_c, 0, 64, 98
1, 94683, Note_on_c, 0, 79, 71
1, 94695, Control_c, 0, 64, 96
1, 94724, Control_c, 0, 64, 95
1, 94739, Control_c, 0, 64, 88
1, 94744, Note_off_c, 0, 79, 65
1, 94750, Note_on_c, 0, 81, 66
1, 94754, Control_c, 0, 64, 77
1, 94769, Control_c, 0, 64, 70
1, 94783, Control_c, 0, 64, 68
1, 94798, Control_c, 0, 64, 67
1, 94813, Control_c, 0, 64, 65
1, 94816, Note_on_c, 0, 64, 50
1, 94819, Note_on_c, 0, 55, 52
1, 94827, Control_c, 0, 64, 59
1, 94829, Note_off_c, 0, 81, 62
1, 94833, Note_on_c, 0, 83, 60
1, 94842, Control_c, 0, 64, 43
1, 94854, Note_off_c, 0, 64, 64
1, 94855, Note_off_c, 0, 55, 64
1, 94857, Control_c, 0, 64, 38
1, 94872, Control_c, 0, 64, 39
1, 94880, Note_off_c, 0, 83, 64
1, 94887, Control_c, 0, 64, 40
1, 94888, Note_on_c, 0, 85, 66
1, 94932, Control_c, 0, 64, 38
1, 94947, Control_c, 0, 64, 29
1, 94967, Note_on_c, 0, 55, 52
1, 94970, Note_on_c, 0, 64, 48
1, 94970, Control_c, 0, 64, 22
1, 94979, Note_off_c, 0, 85, 66
1, 94980, Note_on_c, 0, 86, 76
1, 95005, Note_off_c, 0, 55, 63
1, 95006, Note_off_c, 0, 64, 62
1, 95044, Control_c, 0, 64, 21
1, 95052, Note_on_c, 0, 85, 73
1, 95074, Note_off_c, 0, 86, 60
1, 95103, Control_c, 0, 64, 22
1, 95125, Note_on_c, 0, 83, 80
1, 95126, Note_on_c, 0, 55, 59
1, 95134, Note_on_c, 0, 64, 38
1, 95148, Note_off_c, 0, 85, 60
1, 95159, Note_off_c, 0, 55, 64
1, 95162, Note_off_c, 0, 64, 55
1, 95193, Note_off_c, 0, 83, 65
1, 95195, Note_on_c, 0, 81, 72
1, 95247, Note_off_c, 0, 81, 61
1, 95263, Note_on_c, 0, 79, 77
1, 95274, Note_on_c, 0, 55, 61
1, 95275, Note_on_c, 0, 64, 48
1, 95313, Note_off_c, 0, 55, 64
1, 95313, Note_off_c, 0, 64, 56
1, 95321, Note_off_c, 0, 79, 60
1, 95331, Note_on_c, 0, 78, 83
1, 95355, Control_c, 0, 64, 23
1, 95405, Note_off_c, 0, 78, 65
1, 95407, Note_on_c, 0, 76, 82
1, 95412, Control_c, 0, 64, 24
1, 95418, Note_on_c, 0, 64, 62
1, 95420, Note_on_c, 0, 55, 74
1, 95427, Control_c, 0, 64, 24
1, 95442, Control_c, 0, 64, 26
1, 95456, Note_off_c, 0, 64, 60
1, 95456, Control_c, 0, 64, 27
1, 95462, Note_off_c, 0, 55, 58
1, 95471, Control_c, 0, 64, 28
1, 95481, Note_on_c, 0, 78, 85
1, 95486, Control_c, 0, 64, 29
1, 95487, Note_off_c, 0, 76, 63
1, 95501, Control_c, 0, 64, 29
1, 95530, Control_c, 0, 64, 31
1, 95545, Control_c, 0, 64, 35
1, 95559, Note_on_c, 0, 55, 80
1, 95560, Control_c, 0, 64, 38
1, 95561, Note_on_c, 0, 79, 80
1, 95566, Note_on_c, 0, 64, 66
1, 95568, Note_off_c, 0, 78, 64
1, 95575, Control_c, 0, 64, 39
1, 95596, Note_off_c, 0, 64, 65
1, 95604, Note_off_c, 0, 55, 60
1, 95638, Note_on_c, 0, 78, 83
1, 95662, Note_off_c, 0, 79, 63
1, 95720, Note_on_c, 0, 56, 82
1, 95721, Note_on_c, 0, 76, 77
1, 95727, Note_on_c, 0, 64, 67
1, 95733, Note_off_c, 0, 78, 64
1, 95747, Control_c, 0, 64, 40
1, 95755, Note_off_c, 0, 64, 67
1, 95761, Control_c, 0, 64, 41
1, 95769, Note_off_c, 0, 56, 61
1, 95776, Control_c, 0, 64, 41
1, 95781, Note_off_c, 0, 76, 64
1, 95785, Note_on_c, 0, 74, 71
1, 95806, Control_c, 0, 64, 41
1, 95837, Note_off_c, 0, 74, 58
1, 95864, Note_on_c, 0, 73, 75
1, 95875, Note_on_c, 0, 64, 62
1, 95876, Note_on_c, 0, 56, 79
1, 95904, Note_off_c, 0, 64, 65
1, 95912, Note_off_c, 0, 56, 64
1, 95936, Note_off_c, 0, 73, 64
1, 95939, Control_c, 0, 64, 41
1, 95944, Note_on_c, 0, 71, 71
1, 96023, Note_off_c, 0, 71, 62
1, 96029, Note_on_c, 0, 57, 66
1, 96034, Note_on_c, 0, 73, 69
1, 96056, Note_off_c, 0, 57, 66
1, 96073, Control_c, 0, 64, 40
1, 96087, Control_c, 0, 64, 39
1, 96101, Note_off_c, 0, 73, 63
1, 96117, Note_on_c, 0, 74, 64
1, 96180, Note_on_c, 0, 73, 61
1, 96186, Note_off_c, 0, 74, 60
1, 96188, Note_on_c, 0, 55, 45
1, 96217, Note_off_c, 0, 55, 60
1, 96236, Note_off_c, 0, 73, 60
1, 96255, Note_on_c, 0, 69, 59
1, 96314, Note_off_c, 0, 69, 54
1, 96319, Note_on_c, 0, 74, 72
1, 96336, Note_on_c, 0, 54, 57
1, 96349, Note_off_c, 0, 74, 65
1, 96366, Note_off_c, 0, 54, 66
1, 96483, Note_on_c, 0, 50, 59
1, 96515, Note_off_c, 0, 50, 64
1, 96630, Note_on_c, 0, 49, 61
1, 96634, Note_on_c, 0, 79, 75
1, 96666, Note_off_c, 0, 49, 63
1, 96696, Note_off_c, 0, 79, 66
1, 96705, Note_on_c, 0, 81, 67
1, 96772, Note_off_c, 0, 81, 65
1, 96777, Note_on_c, 0, 45, 57
1, 96781, Note_on_c, 0, 79, 70
1, 96791, Control_c, 0, 64, 39
1, 96814, Note_off_c, 0, 45, 63
1, 96830, Note_off_c, 0, 79, 63
1, 96846, Note_on_c, 0, 76, 68
1, 96881, Control_c, 0, 64, 40
1, 96918, Note_off_c, 0, 76, 63
1, 96924, Note_on_c, 0, 79, 72
1, 96925, Note_on_c, 0, 50, 65
1, 96953, Note_off_c, 0, 50, 66
1, 96994, Note_on_c, 0, 78, 75
1, 97003, Note_off_c, 0, 79, 57
1, 97067, Note_on_c, 0, 76, 73
1, 97072, Note_on_c, 0, 54, 73
1, 97075, Note_off_c, 0, 78, 63
1, 97102, Note_off_c, 0, 54, 68
1, 97130, Note_off_c, 0, 76, 64
1, 97139, Note_on_c, 0, 74, 73
1, 97213, Note_off_c, 0, 74, 60
1, 97218, Note_on_c, 0, 57, 81
1, 97218, Note_on_c, 0, 73, 79
1, 97244, Control_c, 0, 64, 41
1, 97250, Note_off_c, 0, 57, 66
1, 97259, Control_c, 0, 64, 43
1, 97274, Control_c, 0, 64, 43
1, 97289, Control_c, 0, 64, 44
1, 97291, Note_off_c, 0, 73, 64
1, 97294, Note_on_c, 0, 74, 74
1, 97319, Control_c, 0, 64, 43
1, 97366, Note_on_c, 0, 55, 72
1, 97373, Note_on_c, 0, 73, 73
1, 97375, Note_off_c, 0, 74, 62
1, 97379, Control_c, 0, 64, 44
1, 97394, Note_off_c, 0, 55, 65
1, 97436, Note_off_c, 0, 73, 65
1, 97441, Note_on_c, 0, 69, 71
1, 97513, Note_on_c, 0, 74, 83
1, 97518, Note_on_c, 0, 54, 73
1, 97528, Note_off_c, 0, 69, 63
1, 97555, Note_off_c, 0, 54, 62
1, 97575, Note_off_c, 0, 74, 64
1, 97660, Note_on_c, 0, 50, 76
1, 97692, Note_off_c, 0, 50, 66
1, 97733, Control_c, 0, 64, 45
1, 97793, Control_c, 0, 64, 45
1, 97797, Note_on_c, 0, 79, 85
1, 97807, Control_c, 0, 64, 46
1, 97810, Note_on_c, 0, 49, 67
1, 97822, Control_c, 0, 64, 46
1, 97861, Note_off_c, 0, 49, 57
1, 97878, Note_on_c, 0, 81, 81
1, 97878, Note_off_c, 0, 79, 65
1, 97948, Note_on_c, 0, 45, 68
1, 97957, Note_on_c, 0, 79, 82
1, 97970, Note_off_c, 0, 81, 64
1, 97988, Note_off_c, 0, 45, 63
1, 98025, Note_off_c, 0, 79, 65
1, 98032, Note_on_c, 0, 76, 74
1, 98085, Note_on_c, 0, 50, 68
1, 98095, Note_on_c, 0, 79, 82
1, 98097, Note_off_c, 0, 76, 65
1, 98124, Note_off_c, 0, 50, 63
1, 98172, Note_on_c, 0, 78, 82
1, 98182, Note_off_c, 0, 79, 60
1, 98240, Note_on_c, 0, 54, 60
1, 98249, Note_on_c, 0, 76, 67
1, 98249, Note_off_c, 0, 78, 64
1, 98279, Note_off_c, 0, 54, 64
1, 98296, Note_off_c, 0, 76, 64
1, 98311, Note_on_c, 0, 74, 68
1, 98363, Control_c, 0, 64, 43
1, 98373, Note_off_c, 0, 74, 56
1, 98378, Control_c, 0, 64, 35
1, 98382, Note_on_c, 0, 52, 54
1, 98386, Note_on_c, 0, 45, 50
1, 98389, Note_on_c, 0, 73, 70
1, 98393, Control_c, 0, 64, 0
1, 98397, Note_on_c, 0, 57, 50
1, 98449, Note_off_c, 0, 73, 64
1, 98452, Control_c, 0, 64, 34
1, 98461, Note_on_c, 0, 76, 66
1, 98467, Control_c, 0, 64, 62
1, 98482, Note_off_c, 0, 57, 62
1, 98482, Control_c, 0, 64, 76
1, 98486, Note_off_c, 0, 52, 65
1, 98496, Control_c, 0, 64, 105
1, 98511, Control_c, 0, 64, 127
1, 98540, Note_on_c, 0, 73, 74
1, 98540, Note_off_c, 0, 76, 64
1, 98588, Note_off_c, 0, 73, 63
1, 98610, Note_on_c, 0, 69, 73
1, 98689, Note_off_c, 0, 69, 48
1, 98689, Control_c, 0, 64, 78
1, 98690, Note_on_c, 0, 78, 88
1, 98708, Note_on_c, 0, 54, 69
1, 98711, Note_on_c, 0, 57, 66
1, 98711, Control_c, 0, 64, 42
1, 98714, Note_on_c, 0, 50, 64
1, 98726, Control_c, 0, 64, 0
1, 98732, Note_off_c, 0, 45, 57
1, 98771, Control_c, 0, 64, 34
1, 98774, Note_off_c, 0, 78, 65
1, 98774, Note_on_c, 0, 81, 76
1, 98786, Control_c, 0, 64, 54
1, 98798, Note_off_c, 0, 57, 61
1, 98800, Control_c, 0, 64, 63
1, 98815, Control_c, 0, 64, 70
1, 98818, Note_off_c, 0, 54, 62
1, 98830, Control_c, 0, 64, 81
1, 98845, Control_c, 0, 64, 127
1, 98851, Note_on_c, 0, 78, 82
1, 98853, Note_off_c, 0, 81, 65
1, 98914, Note_off_c, 0, 78, 64
1, 98927, Note_on_c, 0, 74, 82
1, 99007, Note_on_c, 0, 73, 94
1, 99013, Note_off_c, 0, 74, 57
1, 99014, Note_on_c, 0, 52, 77
1, 99017, Note_on_c, 0, 57, 84
1, 99024, Control_c, 0, 64, 76
1, 99027, Note_on_c, 0, 45, 64
1, 99032, Note_off_c, 0, 50, 63
1, 99039, Control_c, 0, 64, 42
1, 99053, Control_c, 0, 64, 0
1, 99078, Note_off_c, 0, 73, 63
1, 99083, Note_on_c, 0, 76, 76
1, 99098, Control_c, 0, 64, 29
1, 99112, Control_c, 0, 64, 56
1, 99127, Control_c, 0, 64, 65
1, 99142, Note_off_c, 0, 57, 59
1, 99142, Control_c, 0, 64, 72
1, 99156, Note_off_c, 0, 52, 62
1, 99157, Control_c, 0, 64, 82
1, 99172, Control_c, 0, 64, 101
1, 99173, Note_on_c, 0, 73, 81
1, 99173, Note_off_c, 0, 76, 63
1, 99186, Control_c, 0, 64, 127
1, 99227, Note_off_c, 0, 73, 66
1, 99242, Note_on_c, 0, 69, 81
1, 99312, Note_off_c, 0, 69, 56
1, 99325, Note_on_c, 0, 57, 81
1, 99326, Note_on_c, 0, 78, 93
1, 99327, Note_on_c, 0, 54, 78
1, 99332, Note_on_c, 0, 50, 69
1, 99334, Control_c, 0, 64, 80
1, 99349, Control_c, 0, 64, 46
1, 99350, Note_off_c, 0, 45, 58
1, 99364, Control_c, 0, 64, 0
1, 99394, Control_c, 0, 64, 45
1, 99400, Note_off_c, 0, 78, 65
1, 99401, Note_on_c, 0, 81, 80
1, 99409, Control_c, 0, 64, 62
1, 99423, Control_c, 0, 64, 69
1, 99438, Control_c, 0, 64, 82
1, 99460, Control_c, 0, 64, 127
1, 99486, Note_on_c, 0, 78, 84
1, 99500, Note_off_c, 0, 81, 63
1, 99524, Note_off_c, 0, 57, 59
1, 99546, Note_off_c, 0, 78, 63
1, 99552, Note_on_c, 0, 74, 79
1, 99573, Note_off_c, 0, 54, 60
1, 99582, Note_off_c, 0, 50, 62
1, 99597, Note_off_c, 0, 74, 57
1, 99629, Note_on_c, 0, 76, 77
1, 99637, Note_on_c, 0, 73, 74
1, 99638, Control_c, 0, 64, 92
1, 99653, Control_c, 0, 64, 69
1, 99662, Note_off_c, 0, 73, 67
1, 99664, Note_off_c, 0, 76, 63
1, 99668, Control_c, 0, 64, 57
1, 99683, Control_c, 0, 64, 51
1, 99698, Control_c, 0, 64, 49
1, 99713, Control_c, 0, 64, 43
1, 99728, Control_c, 0, 64, 19
1, 99742, Control_c, 0, 64, 0
1, 99791, Note_on_c, 0, 81, 80
1, 99793, Note_on_c, 0, 57, 65
1, 99796, Note_on_c, 0, 45, 60
1, 99796, Note_on_c, 0, 73, 71
1, 99797, Note_on_c, 0, 49, 65
1, 99800, Note_on_c, 0, 76, 74
1, 99804, Note_on_c, 0, 52, 51
1, 99820, Note_off_c, 0, 73, 69
1, 99825, Note_off_c, 0, 57, 62
1, 99826, Note_off_c, 0, 76, 68
1, 99829, Note_off_c, 0, 45, 64
1, 99831, Note_off_c, 0, 52, 65
1, 99835, Note_off_c, 0, 49, 64
1, 99845, Note_off_c, 0, 81, 64
1, 99937, Note_on_c, 0, 81, 85
1, 99941, Note_on_c, 0, 57, 70
1, 99945, Note_on_c, 0, 49, 61
1, 99947, Note_on_c, 0, 45, 55
1, 99947, Note_on_c, 0, 76, 73
1, 99948, Note_on_c, 0, 73, 79
1, 99951, Note_on_c, 0, 52, 42
1, 99970, Note_off_c, 0, 73, 70
1, 99976, Note_off_c, 0, 76, 67
1, 99984, Note_off_c, 0, 57, 59
1, 99985, Note_off_c, 0, 45, 63
1, 99985, Note_off_c, 0, 52, 63
1, 99988, Note_off_c, 0, 81, 66
1, 99991, Note_off_c, 0, 49, 60
1, 100083, Note_on_c, 0, 81, 89
1, 100088, Note_on_c, 0, 57, 74
1, 100091, Note_on_c, 0, 45, 68
1, 100094, Note_on_c, 0, 52, 55
1, 100094, Note_on_c, 0, 76, 79
1, 100095, Note_on_c, 0, 49, 65
1, 100098, Note_on_c, 0, 73, 78
1, 100121, Note_off_c, 0, 73, 66
1, 100135, Note_off_c, 0, 52, 63
1, 100138, Note_off_c, 0, 76, 59
1, 100139, Note_off_c, 0, 45, 60
1, 100146, Note_off_c, 0, 49, 55
1, 100146, Note_off_c, 0, 81, 66
1, 100153, Note_off_c, 0, 57, 57
1, 100252, Note_on_c, 0, 81, 89
1, 100253, Control_c, 0, 64, 54
1, 100260, Note_on_c, 0, 57, 85
1, 100261, Note_on_c, 0, 76, 85
1, 100264, Note_on_c, 0, 45, 68
1, 100264, Note_on_c, 0, 73, 83
1, 100268, Control_c, 0, 64, 80
1, 100275, Note_on_c, 0, 49, 60
1, 100283, Control_c, 0, 64, 127
1, 100287, Note_off_c, 0, 73, 68
1, 100296, Note_off_c, 0, 76, 61
1, 100303, Note_off_c, 0, 45, 65
1, 100309, Note_on_c, 0, 52, 28
1, 100312, Note_off_c, 0, 49, 62
1, 100312, Note_off_c, 0, 57, 62
1, 100313, Note_off_c, 0, 81, 67
1, 100349, Note_off_c, 0, 52, 55
1, 100536, Control_c, 0, 64, 106
1, 100550, Control_c, 0, 64, 90
1, 100565, Control_c, 0, 64, 76
1, 100580, Control_c, 0, 64, 65
1, 100595, Control_c, 0, 64, 55
1, 100611, Control_c, 0, 64, 43
1, 100625, Control_c, 0, 64, 35
1, 100640, Control_c, 0, 64, 33
1, 100655, Control_c, 0, 64, 29
1, 100670, Control_c, 0, 64, 16
1, 100684, Control_c, 0, 64, 0
1, 100758, Note_on_c, 0, 79, 59
1, 100803, Note_on_c, 0, 78, 59
1, 100804, Control_c, 0, 64, 18
1, 100809, Note_off_c, 0, 79, 59
1, 100819, Control_c, 0, 64, 28
1, 100833, Control_c, 0, 64, 38
1, 100843, Note_on_c, 0, 76, 54
1, 100845, Note_off_c, 0, 78, 63
1, 100848, Control_c, 0, 64, 49
1, 100863, Control_c, 0, 64, 60
1, 100877, Control_c, 0, 64, 66
1, 100892, Control_c, 0, 64, 72
1, 100907, Control_c, 0, 64, 78
1, 100914, Note_off_c, 0, 76, 64
1, 100920, Note_on_c, 0, 78, 61
1, 100922, Control_c, 0, 64, 90
1, 100937, Control_c, 0, 64, 127
1, 100988, Note_on_c, 0, 79, 63
1, 100994, Note_off_c, 0, 78, 64
1, 101038, Note_off_c, 0, 79, 64
1, 101092, Control_c, 0, 64, 93
1, 101107, Control_c, 0, 64, 84
1, 101137, Control_c, 0, 64, 83
1, 101143, Note_on_c, 0, 62, 44
1, 101144, Note_on_c, 0, 80, 62
1, 101151, Control_c, 0, 64, 80
1, 101166, Control_c, 0, 64, 73
1, 101181, Control_c, 0, 64, 64
1, 101196, Control_c, 0, 64, 55
1, 101211, Control_c, 0, 64, 54
1, 101255, Control_c, 0, 64, 48
1, 101270, Control_c, 0, 64, 27
1, 101284, Control_c, 0, 64, 16
1, 101300, Control_c, 0, 64, 17
1, 101315, Control_c, 0, 64, 22
1, 101370, Note_on_c, 0, 81, 44
1, 101377, Note_on_c, 0, 66, 30
1, 101403, Control_c, 0, 64, 23
1, 101418, Control_c, 0, 64, 24
1, 101433, Note_off_c, 0, 80, 57
1, 101462, Note_off_c, 0, 62, 41
1, 101465, Note_off_c, 0, 81, 65
1, 101483, Note_on_c, 0, 64, 42
1, 101527, Note_off_c, 0, 66, 31
1, 101566, Control_c, 0, 64, 24
1, 101581, Control_c, 0, 64, 26
1, 101596, Control_c, 0, 64, 28
1, 101651, Note_on_c, 0, 81, 64
1, 101655, Control_c, 0, 64, 29
1, 101670, Control_c, 0, 64, 29
1, 101671, Note_on_c, 0, 67, 51
1, 101685, Note_off_c, 0, 81, 61
1, 101685, Control_c, 0, 64, 31
1, 101707, Control_c, 0, 64, 31
1, 101726, Note_off_c, 0, 64, 29
1, 101766, Control_c, 0, 64, 32
1, 101781, Control_c, 0, 64, 33
1, 101790, Note_off_c, 0, 67, 27
1, 101841, Note_on_c, 0, 86, 63
1, 101853, Note_on_c, 0, 66, 38
1, 101944, Control_c, 0, 64, 33
1, 102008, Note_on_c, 0, 85, 68
1, 102013, Note_on_c, 0, 69, 37
1, 102018, Control_c, 0, 64, 34
1, 102032, Control_c, 0, 64, 34
1, 102047, Control_c, 0, 64, 35
1, 102093, Note_off_c, 0, 86, 53
1, 102122, Control_c, 0, 64, 35
1, 102161, Note_on_c, 0, 83, 72
1, 102178, Note_on_c, 0, 62, 42
1, 102179, Note_off_c, 0, 69, 39
1, 102187, Note_off_c, 0, 66, 38
1, 102196, Control_c, 0, 64, 36
1, 102211, Control_c, 0, 64, 38
1, 102226, Control_c, 0, 64, 40
1, 102256, Control_c, 0, 64, 41
1, 102260, Note_off_c, 0, 85, 53
1, 102270, Control_c, 0, 64, 50
1, 102285, Control_c, 0, 64, 60
1, 102297, Note_off_c, 0, 62, 62
1, 102300, Control_c, 0, 64, 66
1, 102309, Note_on_c, 0, 66, 54
1, 102315, Control_c, 0, 64, 72
1, 102316, Note_on_c, 0, 81, 71
1, 102330, Control_c, 0, 64, 79
1, 102341, Note_off_c, 0, 83, 63
1, 102345, Control_c, 0, 64, 83
1, 102370, Note_off_c, 0, 81, 65
1, 102375, Control_c, 0, 64, 81
1, 102389, Control_c, 0, 64, 76
1, 102404, Control_c, 0, 64, 70
1, 102419, Control_c, 0, 64, 68
1, 102456, Control_c, 0, 64, 67
1, 102471, Control_c, 0, 64, 64
1, 102479, Note_on_c, 0, 78, 66
1, 102485, Control_c, 0, 64, 54
1, 102486, Note_on_c, 0, 64, 49
1, 102488, Note_off_c, 0, 66, 52
1, 102500, Control_c, 0, 64, 35
1, 102515, Control_c, 0, 64, 35
1, 102530, Control_c, 0, 64, 38
1, 102574, Control_c, 0, 64, 34
1, 102589, Control_c, 0, 64, 34
1, 102604, Control_c, 0, 64, 34
1, 102619, Control_c, 0, 64, 38
1, 102661, Note_on_c, 0, 79, 58
1, 102673, Note_on_c, 0, 71, 46
1, 102693, Control_c, 0, 64, 39
1, 102703, Note_off_c, 0, 78, 64
1, 102708, Control_c, 0, 64, 43
1, 102722, Control_c, 0, 64, 44
1, 102728, Note_off_c, 0, 79, 66
1, 102786, Note_off_c, 0, 71, 57
1, 102787, Note_off_c, 0, 64, 58
1, 102803, Note_on_c, 0, 67, 51
1, 102950, Note_off_c, 0, 67, 62
1, 102952, Note_on_c, 0, 79, 72
1, 102960, Control_c, 0, 64, 46
1, 102967, Note_on_c, 0, 64, 50
1, 102975, Control_c, 0, 64, 48
1, 103012, Note_off_c, 0, 79, 63
1, 103019, Control_c, 0, 64, 47
1, 103049, Control_c, 0, 64, 48
1, 103102, Note_off_c, 0, 64, 59
1, 103117, Note_on_c, 0, 81, 66
1, 103120, Note_on_c, 0, 61, 48
1, 103293, Note_on_c, 0, 79, 72
1, 103296, Note_off_c, 0, 61, 60
1, 103304, Note_on_c, 0, 64, 52
1, 103308, Control_c, 0, 64, 49
1, 103404, Note_off_c, 0, 81, 58
1, 103437, Note_on_c, 0, 78, 73
1, 103445, Note_on_c, 0, 57, 53
1, 103511, Note_off_c, 0, 64, 35
1, 103537, Note_off_c, 0, 79, 53
1, 103591, Note_on_c, 0, 76, 77
1, 103610, Note_on_c, 0, 67, 59
1, 103614, Note_off_c, 0, 57, 39
1, 103618, Note_off_c, 0, 78, 64
1, 103634, Note_off_c, 0, 76, 62
1, 103739, Control_c, 0, 64, 49
1, 103746, Note_off_c, 0, 67, 59
1, 103754, Control_c, 0, 64, 50
1, 103758, Note_on_c, 0, 73, 61
1, 103760, Note_on_c, 0, 66, 48
1, 103783, Control_c, 0, 64, 49
1, 103936, Note_on_c, 0, 74, 56
1, 103953, Note_on_c, 0, 69, 41
1, 103986, Note_off_c, 0, 74, 60
1, 103990, Note_off_c, 0, 73, 64
1, 104057, Note_off_c, 0, 69, 59
1, 104089, Note_on_c, 0, 61, 52
1, 104109, Note_off_c, 0, 66, 37
1, 104175, Control_c, 0, 64, 50
1, 104190, Control_c, 0, 64, 50
1, 104205, Control_c, 0, 64, 51
1, 104227, Note_on_c, 0, 76, 80
1, 104235, Control_c, 0, 64, 50
1, 104253, Note_on_c, 0, 69, 57
1, 104264, Note_off_c, 0, 76, 64
1, 104264, Control_c, 0, 64, 51
1, 104354, Control_c, 0, 64, 51
1, 104369, Control_c, 0, 64, 52
1, 104395, Note_on_c, 0, 77, 76
1, 104408, Note_on_c, 0, 62, 51
1, 104408, Note_off_c, 0, 69, 55
1, 104468, Note_off_c, 0, 61, 35
1, 104572, Note_on_c, 0, 78, 75
1, 104588, Note_on_c, 0, 69, 61
1, 104601, Note_off_c, 0, 77, 65
1, 104622, Control_c, 0, 64, 53
1, 104628, Note_off_c, 0, 78, 65
1, 104718, Control_c, 0, 64, 54
1, 104719, Note_on_c, 0, 59, 58
1, 104728, Note_off_c, 0, 62, 27
1, 104792, Control_c, 0, 64, 55
1, 104807, Control_c, 0, 64, 56
1, 104856, Note_on_c, 0, 81, 73
1, 104872, Note_off_c, 0, 59, 61
1, 104875, Note_on_c, 0, 62, 50
1, 104896, Control_c, 0, 64, 57
1, 104940, Control_c, 0, 64, 56
1, 104941, Note_on_c, 0, 79, 75
1, 104985, Control_c, 0, 64, 56
1, 104987, Note_off_c, 0, 81, 59
1, 105014, Control_c, 0, 64, 56
1, 105029, Control_c, 0, 64, 55
1, 105030, Note_on_c, 0, 78, 73
1, 105042, Note_off_c, 0, 62, 57
1, 105049, Note_off_c, 0, 69, 40
1, 105051, Note_on_c, 0, 57, 50
1, 105058, Control_c, 0, 64, 56
1, 105073, Control_c, 0, 64, 56
1, 105075, Note_off_c, 0, 79, 62
1, 105103, Control_c, 0, 64, 56
1, 105117, Control_c, 0, 64, 55
1, 105132, Control_c, 0, 64, 56
1, 105162, Control_c, 0, 64, 56
1, 105192, Control_c, 0, 64, 56
1, 105212, Note_on_c, 0, 62, 55
1, 105236, Control_c, 0, 64, 56
1, 105281, Control_c, 0, 64, 55
1, 105316, Note_off_c, 0, 57, 37
1, 105326, Control_c, 0, 64, 56
1, 105354, Note_on_c, 0, 66, 65
1, 105359, Note_off_c, 0, 62, 61
1, 105370, Control_c, 0, 64, 55
1, 105400, Control_c, 0, 64, 55
1, 105415, Control_c, 0, 64, 56
1, 105452, Control_c, 0, 64, 55
1, 105467, Control_c, 0, 64, 54
1, 105482, Control_c, 0, 64, 54
1, 105511, Control_c, 0, 64, 55
1, 105522, Note_on_c, 0, 62, 57
1, 105522, Note_off_c, 0, 78, 65
1, 105526, Note_on_c, 0, 79, 69
1, 105541, Control_c, 0, 64, 54
1, 105555, Control_c, 0, 64, 53
1, 105580, Note_off_c, 0, 79, 57
1, 105581, Note_off_c, 0, 66, 37
1, 105585, Control_c, 0, 64, 54
1, 105590, Note_on_c, 0, 78, 75
1, 105600, Control_c, 0, 64, 54
1, 105654, Note_off_c, 0, 78, 64
1, 105656, Note_on_c, 0, 76, 77
1, 105660, Note_on_c, 0, 57, 42
1, 105668, Note_on_c, 0, 61, 54
1, 105692, Note_off_c, 0, 76, 61
1, 105694, Note_off_c, 0, 62, 58
1, 105816, Note_on_c, 0, 78, 76
1, 105837, Control_c, 0, 64, 54
1, 105858, Note_off_c, 0, 78, 63
1, 105953, Note_on_c, 0, 79, 82
1, 105955, Control_c, 0, 64, 54
1, 105981, Note_off_c, 0, 57, 61
1, 105995, Note_off_c, 0, 79, 63
1, 106044, Control_c, 0, 64, 55
1, 106069, Note_off_c, 0, 61, 61
1, 106073, Control_c, 0, 64, 54
1, 106099, Note_on_c, 0, 80, 84
1, 106119, Control_c, 0, 64, 55
1, 106138, Note_off_c, 0, 80, 63
1, 106163, Control_c, 0, 64, 54
1, 106215, Control_c, 0, 64, 55
1, 106259, Control_c, 0, 64, 54
1, 106289, Control_c, 0, 64, 55
1, 106291, Note_on_c, 0, 80, 65
1, 106291, Note_on_c, 0, 62, 46
1, 106303, Control_c, 0, 64, 55
1, 106348, Control_c, 0, 64, 54
1, 106393, Control_c, 0, 64, 54
1, 106511, Note_on_c, 0, 81, 54
1, 106519, Note_on_c, 0, 65, 42
1, 106530, Note_off_c, 0, 80, 57
1, 106556, Control_c, 0, 64, 56
1, 106599, Control_c, 0, 64, 55
1, 106623, Note_off_c, 0, 62, 29
1, 106638, Note_off_c, 0, 81, 65
1, 106652, Note_off_c, 0, 65, 54
1, 106664, Note_on_c, 0, 64, 49
1, 106673, Control_c, 0, 64, 55
1, 106688, Control_c, 0, 64, 54
1, 106757, Note_on_c, 0, 82, 65
1, 106796, Note_off_c, 0, 82, 63
1, 106803, Note_on_c, 0, 81, 60
1, 106813, Note_on_c, 0, 67, 53
1, 106831, Note_off_c, 0, 81, 67
1, 106832, Note_on_c, 0, 80, 75
1, 106851, Control_c, 0, 64, 53
1, 106866, Control_c, 0, 64, 53
1, 106886, Note_off_c, 0, 80, 65
1, 106891, Note_on_c, 0, 81, 66
1, 106932, Note_off_c, 0, 64, 22
1, 106941, Note_on_c, 0, 86, 84
1, 106950, Note_off_c, 0, 81, 65
1, 106972, Note_off_c, 0, 86, 66
1, 106977, Note_off_c, 0, 67, 36
1, 106980, Note_on_c, 0, 65, 46
1, 106992, Control_c, 0, 64, 53
1, 107052, Control_c, 0, 64, 54
1, 107067, Control_c, 0, 64, 55
1, 107081, Control_c, 0, 64, 55
1, 107111, Control_c, 0, 64, 55
1, 107111, Note_on_c, 0, 84, 81
1, 107138, Note_on_c, 0, 69, 54
1, 107148, Note_off_c, 0, 84, 65
1, 107156, Control_c, 0, 64, 56
1, 107171, Control_c, 0, 64, 56
1, 107200, Control_c, 0, 64, 56
1, 107257, Note_off_c, 0, 65, 22
1, 107260, Control_c, 0, 64, 56
1, 107261, Note_on_c, 0, 82, 76
1, 107274, Control_c, 0, 64, 56
1, 107278, Note_on_c, 0, 62, 52
1, 107287, Note_off_c, 0, 69, 44
1, 107289, Control_c, 0, 64, 54
1, 107303, Note_off_c, 0, 82, 64
1, 107318, Control_c, 0, 64, 55
1, 107333, Control_c, 0, 64, 55
1, 107398, Note_off_c, 0, 62, 63
1, 107411, Note_on_c, 0, 81, 70
1, 107413, Note_on_c, 0, 65, 61
1, 107444, Note_off_c, 0, 81, 62
1, 107452, Control_c, 0, 64, 55
1, 107496, Control_c, 0, 64, 55
1, 107579, Note_off_c, 0, 65, 59
1, 107589, Note_on_c, 0, 78, 60
1, 107598, Note_on_c, 0, 64, 44
1, 107659, Control_c, 0, 64, 56
1, 107674, Control_c, 0, 64, 56
1, 107756, Control_c, 0, 64, 57
1, 107786, Note_on_c, 0, 79, 56
1, 107791, Note_on_c, 0, 70, 40
1, 107834, Note_off_c, 0, 78, 44
1, 107906, Note_off_c, 0, 79, 66
1, 107910, Note_off_c, 0, 64, 59
1, 107919, Control_c, 0, 64, 57
1, 107928, Note_on_c, 0, 67, 55
1, 107934, Control_c, 0, 64, 58
1, 107964, Control_c, 0, 64, 58
1, 107972, Note_off_c, 0, 70, 38
1, 107979, Control_c, 0, 64, 57
1, 108008, Control_c, 0, 64, 58
1, 108023, Control_c, 0, 64, 58
1, 108038, Control_c, 0, 64, 58
1, 108050, Note_on_c, 0, 81, 46
1, 108051, Note_off_c, 0, 67, 61
1, 108053, Control_c, 0, 64, 57
1, 108056, Note_on_c, 0, 64, 50
1, 108075, Note_off_c, 0, 81, 61
1, 108089, Note_on_c, 0, 79, 65
1, 108097, Control_c, 0, 64, 58
1, 108118, Note_off_c, 0, 79, 68
1, 108126, Note_on_c, 0, 78, 63
1, 108141, Control_c, 0, 64, 57
1, 108171, Control_c, 0, 64, 58
1, 108182, Note_on_c, 0, 79, 68
1, 108182, Note_off_c, 0, 78, 63
1, 108186, Control_c, 0, 64, 59
1, 108202, Note_off_c, 0, 64, 60
1, 108215, Control_c, 0, 64, 58
1, 108216, Note_on_c, 0, 61, 48
1, 108217, Note_on_c, 0, 81, 66
1, 108220, Note_off_c, 0, 79, 67
1, 108230, Control_c, 0, 64, 57
1, 108247, Note_off_c, 0, 81, 67
1, 108260, Control_c, 0, 64, 58
1, 108304, Control_c, 0, 64, 56
1, 108319, Control_c, 0, 64, 55
1, 108333, Control_c, 0, 64, 56
1, 108348, Control_c, 0, 64, 57
1, 108363, Note_off_c, 0, 61, 59
1, 108378, Note_on_c, 0, 79, 71
1, 108390, Note_on_c, 0, 64, 46
1, 108393, Control_c, 0, 64, 55
1, 108408, Control_c, 0, 64, 54
1, 108412, Note_off_c, 0, 79, 60
1, 108423, Control_c, 0, 64, 55
1, 108445, Control_c, 0, 64, 55
1, 108491, Control_c, 0, 64, 54
1, 108506, Control_c, 0, 64, 53
1, 108518, Note_off_c, 0, 64, 52
1, 108538, Note_on_c, 0, 57, 49
1, 108542, Note_on_c, 0, 77, 69
1, 108579, Note_off_c, 0, 77, 57
1, 108668, Control_c, 0, 64, 53
1, 108694, Note_on_c, 0, 76, 66
1, 108700, Note_on_c, 0, 61, 50
1, 108726, Note_off_c, 0, 76, 61
1, 108742, Control_c, 0, 64, 52
1, 108755, Note_off_c, 0, 57, 35
1, 108757, Control_c, 0, 64, 51
1, 108861, Note_on_c, 0, 79, 59
1, 108867, Note_on_c, 0, 62, 46
1, 108890, Note_off_c, 0, 61, 48
1, 109038, Control_c, 0, 64, 52
1, 109045, Note_on_c, 0, 77, 61
1, 109053, Control_c, 0, 64, 53
1, 109060, Note_on_c, 0, 69, 50
1, 109065, Note_off_c, 0, 79, 64
1, 109078, Note_off_c, 0, 77, 65
1, 109193, Note_on_c, 0, 60, 51
1, 109194, Control_c, 0, 64, 53
1, 109209, Control_c, 0, 64, 52
1, 109213, Note_off_c, 0, 69, 40
1, 109214, Note_off_c, 0, 62, 51
1, 109238, Control_c, 0, 64, 53
1, 109253, Control_c, 0, 64, 53
1, 109329, Control_c, 0, 64, 54
1, 109343, Control_c, 0, 64, 54
1, 109346, Note_on_c, 0, 76, 77
1, 109350, Note_on_c, 0, 69, 60
1, 109360, Note_off_c, 0, 60, 62
1, 109385, Note_off_c, 0, 76, 65
1, 109417, Control_c, 0, 64, 55
1, 109486, Note_off_c, 0, 69, 55
1, 109506, Control_c, 0, 64, 55
1, 109523, Note_on_c, 0, 73, 68
1, 109530, Note_on_c, 0, 58, 54
1, 109580, Control_c, 0, 64, 56
1, 109594, Control_c, 0, 64, 57
1, 109684, Control_c, 0, 64, 57
1, 109699, Note_on_c, 0, 74, 74
1, 109711, Note_on_c, 0, 65, 55
1, 109727, Note_off_c, 0, 73, 65
1, 109758, Note_off_c, 0, 74, 62
1, 109758, Control_c, 0, 64, 58
1, 109802, Control_c, 0, 64, 57
1, 109843, Note_on_c, 0, 64, 62
1, 109866, Note_off_c, 0, 65, 58
1, 109876, Control_c, 0, 64, 57
1, 109891, Control_c, 0, 64, 55
1, 109943, Control_c, 0, 64, 56
1, 109958, Control_c, 0, 64, 56
1, 109987, Control_c, 0, 64, 58
1, 109994, Note_on_c, 0, 80, 87
1, 110002, Control_c, 0, 64, 62
1, 110017, Note_on_c, 0, 62, 59
1, 110017, Control_c, 0, 64, 67
1, 110032, Control_c, 0, 64, 75
1, 110047, Control_c, 0, 64, 85
1, 110061, Control_c, 0, 64, 99
1, 110076, Control_c, 0, 64, 127
1, 110077, Note_off_c, 0, 64, 52
1, 110088, Note_off_c, 0, 58, 61
1, 110094, Note_off_c, 0, 80, 64
1, 110184, Note_on_c, 0, 80, 92
1, 110190, Note_on_c, 0, 57, 65
1, 110196, Control_c, 0, 64, 96
1, 110198, Note_off_c, 0, 62, 59
1, 110210, Control_c, 0, 64, 76
1, 110225, Control_c, 0, 64, 62
1, 110240, Control_c, 0, 64, 34
1, 110255, Control_c, 0, 64, 24
1, 110299, Control_c, 0, 64, 23
1, 110314, Control_c, 0, 64, 21
1, 110343, Control_c, 0, 64, 24
1, 110356, Note_on_c, 0, 62, 54
1, 110358, Control_c, 0, 64, 30
1, 110373, Control_c, 0, 64, 33
1, 110388, Control_c, 0, 64, 37
1, 110403, Control_c, 0, 64, 45
1, 110417, Control_c, 0, 64, 56
1, 110432, Control_c, 0, 64, 64
1, 110447, Control_c, 0, 64, 68
1, 110462, Control_c, 0, 64, 73
1, 110477, Control_c, 0, 64, 82
1, 110492, Control_c, 0, 64, 98
1, 110506, Control_c, 0, 64, 127
1, 110519, Note_on_c, 0, 65, 66
1, 110524, Note_off_c, 0, 62, 57
1, 110664, Note_on_c, 0, 62, 67
1, 110691, Note_off_c, 0, 65, 61
1, 110694, Note_off_c, 0, 57, 61
1, 110851, Note_on_c, 0, 81, 74
1, 110852, Note_on_c, 0, 61, 65
1, 110853, Note_on_c, 0, 57, 72
1, 110874, Note_off_c, 0, 62, 61
1, 110884, Note_off_c, 0, 61, 67
1, 110895, Note_off_c, 0, 80, 57
1, 110900, Note_off_c, 0, 81, 63
1, 110909, Note_off_c, 0, 57, 63
1, 111004, Control_c, 0, 64, 102
1, 111010, Note_on_c, 0, 55, 89
1, 111013, Note_on_c, 0, 43, 87
1, 111019, Control_c, 0, 64, 74
1, 111033, Control_c, 0, 64, 55
1, 111042, Note_off_c, 0, 55, 62
1, 111043, Note_off_c, 0, 43, 67
1, 111048, Control_c, 0, 64, 0
1, 111155, Note_on_c, 0, 54, 95
1, 111158, Note_on_c, 0, 42, 86
1, 111203, Note_off_c, 0, 54, 62
1, 111212, Note_off_c, 0, 42, 62
1, 111303, Note_on_c, 0, 52, 94
1, 111311, Note_on_c, 0, 40, 81
1, 111347, Note_off_c, 0, 52, 64
1, 111356, Note_off_c, 0, 40, 61
1, 111475, Note_on_c, 0, 50, 95
1, 111481, Note_on_c, 0, 38, 88
1, 111484, Control_c, 0, 64, 30
1, 111485, Note_on_c, 0, 78, 77
1, 111499, Control_c, 0, 64, 64
1, 111501, Note_off_c, 0, 50, 68
1, 111507, Note_off_c, 0, 38, 67
1, 111514, Control_c, 0, 64, 86
1, 111529, Control_c, 0, 64, 127
1, 111546, Note_off_c, 0, 78, 63
1, 111561, Note_on_c, 0, 81, 62
1, 111643, Note_off_c, 0, 81, 61
1, 111655, Note_on_c, 0, 80, 70
1, 111718, Note_on_c, 0, 81, 53
1, 111720, Note_off_c, 0, 80, 63
1, 111797, Note_off_c, 0, 81, 65
1, 111797, Control_c, 0, 64, 78
1, 111803, Note_on_c, 0, 83, 73
1, 111812, Control_c, 0, 64, 55
1, 111827, Control_c, 0, 64, 0
1, 111872, Note_off_c, 0, 83, 63
1, 111881, Note_on_c, 0, 81, 59
1, 111933, Note_off_c, 0, 81, 61
1, 111955, Note_on_c, 0, 80, 60
1, 111967, Note_on_c, 0, 74, 74
1, 111995, Note_off_c, 0, 74, 64
1, 112014, Note_off_c, 0, 80, 59
1, 112029, Note_on_c, 0, 81, 57
1, 112066, Note_off_c, 0, 81, 61
1, 112101, Note_on_c, 0, 79, 60
1, 112116, Note_on_c, 0, 76, 78
1, 112143, Note_off_c, 0, 79, 60
1, 112144, Note_off_c, 0, 76, 66
1, 112184, Note_on_c, 0, 81, 63
1, 112229, Note_off_c, 0, 81, 61
1, 112266, Note_on_c, 0, 79, 66
1, 112268, Note_on_c, 0, 74, 74
1, 112297, Note_off_c, 0, 74, 63
1, 112298, Note_off_c, 0, 79, 64
1, 112343, Note_on_c, 0, 81, 61
1, 112387, Note_off_c, 0, 81, 62
1, 112416, Note_on_c, 0, 73, 71
1, 112418, Note_on_c, 0, 79, 59
1, 112454, Note_off_c, 0, 79, 62
1, 112457, Note_off_c, 0, 73, 61
1, 112504, Note_on_c, 0, 81, 46
1, 112528, Note_off_c, 0, 81, 59
1, 112560, Note_on_c, 0, 79, 67
1, 112566, Note_on_c, 0, 69, 68
1, 112595, Note_off_c, 0, 69, 64
1, 112595, Note_off_c, 0, 79, 60
1, 112621, Note_on_c, 0, 81, 56
1, 112700, Note_off_c, 0, 81, 64
1, 112718, Note_on_c, 0, 74, 78
1, 112723, Note_on_c, 0, 78, 63
1, 112738, Control_c, 0, 64, 40
1, 112753, Control_c, 0, 64, 63
1, 112768, Note_off_c, 0, 74, 62
1, 112768, Control_c, 0, 64, 74
1, 112775, Note_off_c, 0, 78, 58
1, 112783, Control_c, 0, 64, 92
1, 112798, Control_c, 0, 64, 127
1, 112799, Note_on_c, 0, 81, 58
1, 112861, Note_off_c, 0, 81, 55
1, 112876, Note_on_c, 0, 80, 70
1, 112954, Note_off_c, 0, 80, 62
1, 112965, Note_on_c, 0, 81, 60
1, 113033, Note_off_c, 0, 81, 64
1, 113043, Note_on_c, 0, 83, 71
1, 113057, Control_c, 0, 64, 83
1, 113072, Control_c, 0, 64, 63
1, 113086, Control_c, 0, 64, 0
1, 113104, Note_off_c, 0, 83, 61
1, 113112, Note_on_c, 0, 81, 60
1, 113163, Note_off_c, 0, 81, 55
1, 113180, Note_on_c, 0, 62, 77
1, 113196, Note_on_c, 0, 80, 60
1, 113244, Note_off_c, 0, 62, 63
1, 113246, Note_off_c, 0, 80, 59
1, 113266, Note_on_c, 0, 81, 59
1, 113312, Note_off_c, 0, 81, 63
1, 113341, Note_on_c, 0, 79, 61
1, 113346, Note_on_c, 0, 64, 84
1, 113388, Note_off_c, 0, 79, 61
1, 113401, Note_off_c, 0, 64, 60
1, 113428, Note_on_c, 0, 81, 57
1, 113471, Note_off_c, 0, 81, 60
1, 113496, Note_on_c, 0, 62, 84
1, 113496, Note_on_c, 0, 79, 70
1, 113538, Note_off_c, 0, 79, 62
1, 113547, Note_off_c, 0, 62, 58
1, 113583, Note_on_c, 0, 81, 58
1, 113628, Note_off_c, 0, 81, 59
1, 113642, Note_on_c, 0, 61, 84
1, 113655, Note_on_c, 0, 79, 64
1, 113708, Note_off_c, 0, 79, 62
1, 113715, Note_off_c, 0, 61, 56
1, 113740, Note_on_c, 0, 81, 63
1, 113773, Note_off_c, 0, 81, 61
1, 113798, Note_on_c, 0, 57, 76
1, 113812, Note_on_c, 0, 79, 68
1, 113828, Note_off_c, 0, 57, 68
1, 113842, Note_off_c, 0, 79, 61
1, 113872, Note_on_c, 0, 81, 62
1, 113953, Control_c, 0, 64, 14
1, 113955, Note_off_c, 0, 81, 62
1, 113959, Note_on_c, 0, 62, 54
1, 113961, Note_on_c, 0, 78, 67
1, 113968, Control_c, 0, 64, 57
1, 113983, Control_c, 0, 64, 76
1, 113998, Note_off_c, 0, 62, 60
1, 113998, Control_c, 0, 64, 127
1, 114027, Note_on_c, 0, 69, 67
1, 114043, Note_off_c, 0, 78, 61
1, 114078, Note_off_c, 0, 69, 53
1, 114111, Note_on_c, 0, 68, 60
1, 114149, Note_off_c, 0, 68, 61
1, 114188, Note_on_c, 0, 69, 63
1, 114218, Note_off_c, 0, 69, 61
1, 114251, Note_on_c, 0, 71, 73
1, 114251, Control_c, 0, 64, 102
1, 114265, Control_c, 0, 64, 74
1, 114280, Control_c, 0, 64, 56
1, 114285, Note_off_c, 0, 71, 63
1, 114295, Control_c, 0, 64, 0
1, 114325, Note_on_c, 0, 69, 63
1, 114365, Note_off_c, 0, 69, 57
1, 114395, Note_on_c, 0, 86, 83
1, 114400, Note_on_c, 0, 68, 64
1, 114431, Note_off_c, 0, 86, 65
1, 114448, Note_off_c, 0, 68, 60
1, 114480, Note_on_c, 0, 69, 64
1, 114532, Note_off_c, 0, 69, 49
1, 114546, Note_on_c, 0, 88, 88
1, 114561, Note_on_c, 0, 67, 69
1, 114578, Note_off_c, 0, 88, 67
1, 114614, Note_off_c, 0, 67, 59
1, 114646, Note_on_c, 0, 69, 65
1, 114685, Note_off_c, 0, 69, 63
1, 114706, Note_on_c, 0, 86, 88
1, 114714, Note_on_c, 0, 67, 62
1, 114739, Note_off_c, 0, 86, 66
1, 114768, Note_off_c, 0, 67, 63
1, 114785, Note_on_c, 0, 69, 64
1, 114823, Note_off_c, 0, 69, 58
1, 114850, Note_on_c, 0, 85, 86
1, 114865, Note_on_c, 0, 67, 66
1, 114890, Note_off_c, 0, 85, 64
1, 114896, Note_off_c, 0, 67, 66
1, 114933, Note_on_c, 0, 69, 57
1, 114972, Note_off_c, 0, 69, 64
1, 114996, Note_on_c, 0, 67, 56
1, 115014, Note_on_c, 0, 81, 75
1, 115036, Note_off_c, 0, 67, 65
1, 115042, Note_off_c, 0, 81, 64
1, 115067, Note_on_c, 0, 69, 59
1, 115140, Note_off_c, 0, 69, 58
1, 115148, Control_c, 0, 64, 29
1, 115159, Note_on_c, 0, 86, 82
1, 115160, Note_on_c, 0, 66, 58
1, 115163, Control_c, 0, 64, 58
1, 115185, Control_c, 0, 64, 72
1, 115200, Control_c, 0, 64, 116
1, 115205, Note_off_c, 0, 86, 64
1, 115214, Control_c, 0, 64, 127
1, 115219, Note_off_c, 0, 66, 59
1, 115257, Note_on_c, 0, 69, 62
1, 115302, Note_off_c, 0, 69, 58
1, 115321, Note_on_c, 0, 68, 61
1, 115373, Note_off_c, 0, 68, 60
1, 115404, Note_on_c, 0, 69, 61
1, 115457, Note_off_c, 0, 69, 55
1, 115467, Note_on_c, 0, 71, 74
1, 115496, Control_c, 0, 64, 112
1, 115511, Control_c, 0, 64, 74
1, 115513, Note_off_c, 0, 71, 61
1, 115525, Control_c, 0, 64, 57
1, 115540, Control_c, 0, 64, 25
1, 115542, Note_on_c, 0, 69, 65
1, 115555, Control_c, 0, 64, 24
1, 115570, Control_c, 0, 64, 23
1, 115586, Control_c, 0, 64, 16
1, 115600, Control_c, 0, 64, 0
1, 115621, Note_off_c, 0, 69, 61
1, 115627, Note_on_c, 0, 68, 72
1, 115628, Note_on_c, 0, 50, 90
1, 115687, Note_off_c, 0, 50, 64
1, 115699, Note_off_c, 0, 68, 61
1, 115710, Note_on_c, 0, 69, 67
1, 115781, Note_on_c, 0, 52, 97
1, 115781, Note_off_c, 0, 69, 61
1, 115789, Note_on_c, 0, 67, 71
1, 115827, Note_off_c, 0, 52, 67
1, 115863, Note_off_c, 0, 67, 63
1, 115881, Note_on_c, 0, 69, 66
1, 115952, Note_on_c, 0, 50, 94
1, 115953, Note_off_c, 0, 69, 63
1, 115959, Note_on_c, 0, 67, 71
1, 116004, Note_off_c, 0, 50, 64
1, 116024, Control_c, 0, 64, 8
1, 116027, Note_off_c, 0, 67, 63
1, 116038, Control_c, 0, 64, 10
1, 116043, Note_on_c, 0, 69, 63
1, 116102, Note_on_c, 0, 49, 86
1, 116102, Note_off_c, 0, 69, 59
1, 116117, Note_on_c, 0, 67, 71
1, 116170, Note_off_c, 0, 49, 62
1, 116175, Note_off_c, 0, 67, 61
1, 116186, Control_c, 0, 64, 8
1, 116215, Note_on_c, 0, 69, 58
1, 116248, Note_off_c, 0, 69, 65
1, 116255, Note_on_c, 0, 67, 66
1, 116263, Note_on_c, 0, 45, 78
1, 116297, Note_off_c, 0, 67, 61
1, 116326, Note_off_c, 0, 45, 63
1, 116331, Note_on_c, 0, 69, 56
1, 116348, Control_c, 0, 64, 0
1, 116380, Note_off_c, 0, 69, 53
1, 116441, Note_on_c, 0, 50, 67
1, 116453, Note_on_c, 0, 66, 50
1, 116498, Control_c, 0, 64, 30
1, 116513, Control_c, 0, 64, 55
1, 116521, Note_off_c, 0, 50, 64
1, 116527, Control_c, 0, 64, 69
1, 116542, Control_c, 0, 64, 88
1, 116557, Control_c, 0, 64, 127
1, 116561, Note_off_c, 0, 66, 57
1, 116775, Poly_aftertouch_c, 0, 66, 127
1, 116814, Poly_aftertouch_c, 0, 66, 0
1, 116831, Control_c, 0, 64, 93
1, 116846, Control_c, 0, 64, 85
1, 116860, Control_c, 0, 64, 84
1, 116875, Control_c, 0, 64, 80
1, 116890, Control_c, 0, 64, 70
1, 116905, Control_c, 0, 64, 58
1, 116920, Control_c, 0, 64, 24
1, 116934, Control_c, 0, 64, 0
1, 117096, Note_on_c, 0, 81, 60
1, 117097, Note_on_c, 0, 66, 43
1, 117126, Control_c, 0, 64, 18
1, 117141, Control_c, 0, 64, 37
1, 117156, Control_c, 0, 64, 54
1, 117161, Note_off_c, 0, 66, 59
1, 117170, Control_c, 0, 64, 64
1, 117185, Control_c, 0, 64, 73
1, 117200, Control_c, 0, 64, 86
1, 117204, Note_on_c, 0, 74, 52
1, 117215, Control_c, 0, 64, 110
1, 117230, Control_c, 0, 64, 127
1, 117256, Note_off_c, 0, 74, 57
1, 117282, Note_on_c, 0, 66, 52
1, 117308, Note_off_c, 0, 66, 61
1, 117342, Note_on_c, 0, 74, 55
1, 117349, Control_c, 0, 64, 94
1, 117364, Control_c, 0, 64, 69
1, 117379, Control_c, 0, 64, 39
1, 117380, Note_off_c, 0, 74, 63
1, 117393, Control_c, 0, 64, 0
1, 117406, Note_on_c, 0, 79, 73
1, 117407, Note_on_c, 0, 64, 54
1, 117431, Control_c, 0, 64, 25
1, 117446, Control_c, 0, 64, 50
1, 117455, Note_off_c, 0, 64, 64
1, 117461, Control_c, 0, 64, 60
1, 117475, Control_c, 0, 64, 65
1, 117482, Note_off_c, 0, 81, 62
1, 117490, Control_c, 0, 64, 70
1, 117503, Note_on_c, 0, 74, 53
1, 117505, Control_c, 0, 64, 78
1, 117520, Control_c, 0, 64, 97
1, 117535, Control_c, 0, 64, 127
1, 117547, Note_off_c, 0, 74, 59
1, 117569, Note_on_c, 0, 64, 64
1, 117601, Note_off_c, 0, 64, 64
1, 117655, Note_on_c, 0, 74, 58
1, 117668, Control_c, 0, 64, 91
1, 117682, Control_c, 0, 64, 68
1, 117687, Note_off_c, 0, 74, 58
1, 117697, Control_c, 0, 64, 28
1, 117701, Note_off_c, 0, 79, 59
1, 117711, Note_on_c, 0, 78, 73
1, 117712, Control_c, 0, 64, 0
1, 117742, Control_c, 0, 64, 34
1, 117743, Note_on_c, 0, 62, 49
1, 117756, Control_c, 0, 64, 56
1, 117771, Note_off_c, 0, 62, 62
1, 117771, Control_c, 0, 64, 64
1, 117786, Control_c, 0, 64, 71
1, 117801, Control_c, 0, 64, 88
1, 117806, Note_on_c, 0, 74, 57
1, 117816, Control_c, 0, 64, 127
1, 117845, Note_off_c, 0, 74, 64
1, 117855, Note_off_c, 0, 78, 62
1, 117885, Note_on_c, 0, 62, 51
1, 117914, Note_off_c, 0, 62, 62
1, 117935, Control_c, 0, 64, 96
1, 117948, Note_on_c, 0, 74, 59
1, 117949, Control_c, 0, 64, 67
1, 117964, Control_c, 0, 64, 0
1, 117977, Note_off_c, 0, 74, 54
1, 117993, Control_c, 0, 64, 45
1, 118005, Note_on_c, 0, 83, 70
1, 118008, Control_c, 0, 64, 67
1, 118023, Control_c, 0, 64, 83
1, 118035, Note_off_c, 0, 83, 65
1, 118038, Control_c, 0, 64, 127
1, 118041, Note_on_c, 0, 67, 60
1, 118086, Note_off_c, 0, 67, 60
1, 118105, Note_on_c, 0, 74, 55
1, 118179, Note_off_c, 0, 74, 60
1, 118187, Note_on_c, 0, 85, 66
1, 118194, Control_c, 0, 64, 99
1, 118209, Note_on_c, 0, 73, 55
1, 118209, Control_c, 0, 64, 80
1, 118221, Note_off_c, 0, 85, 65
1, 118224, Control_c, 0, 64, 73
1, 118233, Note_on_c, 0, 83, 63
1, 118239, Control_c, 0, 64, 72
1, 118242, Note_off_c, 0, 73, 54
1, 118254, Control_c, 0, 64, 68
1, 118263, Note_off_c, 0, 83, 67
1, 118269, Control_c, 0, 64, 58
1, 118281, Note_on_c, 0, 74, 46
1, 118284, Control_c, 0, 64, 12
1, 118289, Note_on_c, 0, 81, 58
1, 118298, Control_c, 0, 64, 0
1, 118313, Note_off_c, 0, 74, 61
1, 118324, Note_off_c, 0, 81, 62
1, 118337, Note_on_c, 0, 83, 75
1, 118337, Note_on_c, 0, 67, 56
1, 118360, Note_off_c, 0, 83, 70
1, 118373, Note_off_c, 0, 67, 65
1, 118406, Note_on_c, 0, 74, 56
1, 118457, Note_off_c, 0, 74, 57
1, 118480, Note_on_c, 0, 85, 68
1, 118486, Note_on_c, 0, 73, 57
1, 118506, Note_off_c, 0, 85, 68
1, 118518, Note_off_c, 0, 73, 64
1, 118565, Note_on_c, 0, 74, 53
1, 118611, Note_off_c, 0, 74, 55
1, 118632, Note_on_c, 0, 88, 65
1, 118646, Note_on_c, 0, 67, 51
1, 118691, Note_off_c, 0, 67, 60
1, 118733, Note_on_c, 0, 74, 42
1, 118796, Note_off_c, 0, 74, 60
1, 118804, Note_on_c, 0, 86, 72
1, 118812, Note_on_c, 0, 73, 58
1, 118832, Note_off_c, 0, 88, 66
1, 118841, Note_off_c, 0, 86, 65
1, 118849, Note_off_c, 0, 73, 62
1, 118861, Control_c, 0, 64, 14
1, 118876, Control_c, 0, 64, 17
1, 118894, Note_on_c, 0, 74, 54
1, 118945, Note_off_c, 0, 74, 59
1, 118958, Note_on_c, 0, 85, 71
1, 118978, Note_on_c, 0, 67, 43
1, 118987, Control_c, 0, 64, 18
1, 119015, Note_off_c, 0, 67, 63
1, 119038, Note_on_c, 0, 74, 55
1, 119104, Note_off_c, 0, 74, 53
1, 119114, Note_on_c, 0, 83, 71
1, 119128, Note_on_c, 0, 73, 59
1, 119143, Note_off_c, 0, 85, 64
1, 119155, Note_off_c, 0, 83, 65
1, 119163, Note_off_c, 0, 73, 64
1, 119205, Note_on_c, 0, 74, 46
1, 119209, Control_c, 0, 64, 15
1, 119224, Control_c, 0, 64, 14
1, 119239, Control_c, 0, 64, 10
1, 119241, Note_off_c, 0, 74, 52
1, 119253, Control_c, 0, 64, 8
1, 119264, Note_on_c, 0, 81, 67
1, 119268, Control_c, 0, 64, 10
1, 119272, Note_on_c, 0, 66, 50
1, 119283, Control_c, 0, 64, 35
1, 119298, Control_c, 0, 64, 55
1, 119313, Control_c, 0, 64, 65
1, 119319, Note_off_c, 0, 66, 60
1, 119328, Control_c, 0, 64, 73
1, 119343, Control_c, 0, 64, 89
1, 119346, Note_on_c, 0, 74, 56
1, 119358, Control_c, 0, 64, 127
1, 119371, Note_off_c, 0, 81, 65
1, 119419, Note_off_c, 0, 74, 60
1, 119437, Note_on_c, 0, 73, 59
1, 119480, Note_off_c, 0, 73, 59
1, 119517, Note_on_c, 0, 74, 58
1, 119593, Note_on_c, 0, 81, 79
1, 119596, Note_off_c, 0, 74, 60
1, 119604, Note_on_c, 0, 66, 59
1, 119610, Control_c, 0, 64, 88
1, 119625, Control_c, 0, 64, 70
1, 119639, Control_c, 0, 64, 53
1, 119653, Note_off_c, 0, 66, 56
1, 119654, Control_c, 0, 64, 0
1, 119692, Control_c, 0, 64, 32
1, 119707, Control_c, 0, 64, 55
1, 119712, Note_on_c, 0, 74, 62
1, 119722, Control_c, 0, 64, 64
1, 119737, Control_c, 0, 64, 69
1, 119751, Control_c, 0, 64, 78
1, 119766, Note_off_c, 0, 74, 55
1, 119766, Control_c, 0, 64, 103
1, 119770, Note_on_c, 0, 66, 70
1, 119781, Control_c, 0, 64, 127
1, 119810, Note_off_c, 0, 66, 53
1, 119851, Note_on_c, 0, 74, 63
1, 119914, Note_off_c, 0, 74, 60
1, 119917, Note_on_c, 0, 64, 70
1, 119924, Note_on_c, 0, 79, 84
1, 119929, Control_c, 0, 64, 109
1, 119944, Control_c, 0, 64, 70
1, 119959, Control_c, 0, 64, 37
1, 119974, Control_c, 0, 64, 0
1, 119976, Note_off_c, 0, 64, 61
1, 119980, Note_off_c, 0, 81, 62
1, 119988, Control_c, 0, 64, 41
1, 120003, Control_c, 0, 64, 63
1, 120007, Note_on_c, 0, 74, 66
1, 120018, Control_c, 0, 64, 74
1, 120033, Control_c, 0, 64, 97
1, 120048, Control_c, 0, 64, 127
1, 120070, Note_off_c, 0, 74, 53
1, 120081, Note_on_c, 0, 64, 67
1, 120125, Note_off_c, 0, 64, 60
1, 120155, Note_on_c, 0, 74, 72
1, 120195, Note_off_c, 0, 74, 59
1, 120210, Control_c, 0, 64, 87
1, 120225, Control_c, 0, 64, 59
1, 120227, Note_on_c, 0, 78, 86
1, 120229, Note_on_c, 0, 62, 68
1, 120233, Note_off_c, 0, 79, 62
1, 120240, Control_c, 0, 64, 0
1, 120266, Note_off_c, 0, 62, 64
1, 120269, Control_c, 0, 64, 57
1, 120284, Control_c, 0, 64, 69
1, 120298, Note_on_c, 0, 74, 72
1, 120299, Control_c, 0, 64, 79
1, 120314, Control_c, 0, 64, 105
1, 120329, Control_c, 0, 64, 127
1, 120359, Note_off_c, 0, 74, 61
1, 120376, Note_on_c, 0, 62, 65
1, 120405, Note_off_c, 0, 62, 65
1, 120442, Note_on_c, 0, 74, 74
1, 120469, Note_off_c, 0, 74, 67
1, 120471, Note_off_c, 0, 78, 62
1, 120486, Control_c, 0, 64, 112
1, 120500, Control_c, 0, 64, 66
1, 120515, Control_c, 0, 64, 0
1, 120539, Note_on_c, 0, 76, 79
1, 120545, Note_on_c, 0, 55, 60
1, 120545, Control_c, 0, 64, 42
1, 120560, Control_c, 0, 64, 64
1, 120574, Control_c, 0, 64, 74
1, 120589, Control_c, 0, 64, 92
1, 120604, Control_c, 0, 64, 127
1, 120618, Note_on_c, 0, 64, 63
1, 120618, Note_off_c, 0, 55, 61
1, 120678, Note_off_c, 0, 64, 60
1, 120695, Note_on_c, 0, 59, 61
1, 120748, Note_off_c, 0, 59, 60
1, 120752, Note_on_c, 0, 83, 84
1, 120763, Note_off_c, 0, 76, 63
1, 120767, Note_on_c, 0, 64, 62
1, 120782, Control_c, 0, 64, 75
1, 120786, Note_off_c, 0, 83, 61
1, 120797, Control_c, 0, 64, 62
1, 120802, Note_off_c, 0, 64, 62
1, 120811, Control_c, 0, 64, 57
1, 120835, Note_on_c, 0, 55, 63
1, 120841, Note_on_c, 0, 81, 76
1, 120841, Control_c, 0, 64, 55
1, 120856, Control_c, 0, 64, 42
1, 120871, Control_c, 0, 64, 0
1, 120874, Note_off_c, 0, 55, 63
1, 120902, Note_on_c, 0, 64, 64
1, 120907, Note_on_c, 0, 79, 76
1, 120913, Note_off_c, 0, 81, 62
1, 120952, Note_off_c, 0, 64, 60
1, 120968, Note_on_c, 0, 59, 58
1, 120975, Note_off_c, 0, 79, 65
1, 120980, Note_on_c, 0, 78, 72
1, 121011, Note_off_c, 0, 59, 63
1, 121038, Note_on_c, 0, 76, 74
1, 121038, Note_off_c, 0, 78, 65
1, 121042, Note_on_c, 0, 64, 63
1, 121082, Note_off_c, 0, 64, 57
1, 121121, Note_on_c, 0, 57, 64
1, 121126, Note_on_c, 0, 74, 79
1, 121133, Note_off_c, 0, 76, 61
1, 121174, Control_c, 0, 64, 12
1, 121189, Control_c, 0, 64, 26
1, 121191, Note_off_c, 0, 57, 56
1, 121204, Control_c, 0, 64, 34
1, 121214, Note_on_c, 0, 66, 66
1, 121218, Control_c, 0, 64, 44
1, 121233, Control_c, 0, 64, 53
1, 121248, Control_c, 0, 64, 59
1, 121263, Control_c, 0, 64, 62
1, 121265, Note_off_c, 0, 66, 55
1, 121279, Control_c, 0, 64, 66
1, 121289, Note_on_c, 0, 62, 61
1, 121294, Control_c, 0, 64, 72
1, 121309, Control_c, 0, 64, 85
1, 121314, Note_off_c, 0, 74, 64
1, 121323, Control_c, 0, 64, 107
1, 121338, Control_c, 0, 64, 127
1, 121342, Note_off_c, 0, 62, 55
1, 121353, Note_on_c, 0, 66, 73
1, 121424, Note_off_c, 0, 66, 60
1, 121427, Control_c, 0, 64, 84
1, 121429, Note_on_c, 0, 57, 66
1, 121441, Control_c, 0, 64, 64
1, 121443, Note_on_c, 0, 76, 77
1, 121456, Control_c, 0, 64, 0
1, 121464, Note_off_c, 0, 57, 65
1, 121473, Note_off_c, 0, 76, 63
1, 121495, Note_on_c, 0, 78, 68
1, 121501, Control_c, 0, 64, 27
1, 121512, Note_on_c, 0, 67, 56
1, 121515, Control_c, 0, 64, 47
1, 121530, Control_c, 0, 64, 53
1, 121536, Note_off_c, 0, 78, 57
1, 121542, Note_on_c, 0, 76, 73
1, 121545, Control_c, 0, 64, 56
1, 121559, Note_off_c, 0, 67, 53
1, 121560, Control_c, 0, 64, 63
1, 121575, Control_c, 0, 64, 70
1, 121578, Note_on_c, 0, 61, 52
1, 121583, Note_off_c, 0, 76, 66
1, 121589, Control_c, 0, 64, 78
1, 121592, Note_on_c, 0, 74, 64
1, 121604, Control_c, 0, 64, 86
1, 121609, Note_off_c, 0, 74, 63
1, 121612, Note_off_c, 0, 61, 64
1, 121619, Control_c, 0, 64, 92
1, 121634, Control_c, 0, 64, 96
1, 121636, Note_on_c, 0, 67, 51
1, 121637, Note_on_c, 0, 76, 73
1, 121649, Control_c, 0, 64, 95
1, 121664, Control_c, 0, 64, 86
1, 121679, Control_c, 0, 64, 70
1, 121683, Note_off_c, 0, 67, 55
1, 121694, Control_c, 0, 64, 40
1, 121705, Note_on_c, 0, 74, 68
1, 121709, Note_on_c, 0, 62, 62
1, 121709, Control_c, 0, 64, 0
1, 121721, Note_off_c, 0, 76, 62
1, 121753, Control_c, 0, 64, 8
1, 121768, Control_c, 0, 64, 47
1, 121777, Note_off_c, 0, 62, 55
1, 121783, Control_c, 0, 64, 57
1, 121797, Control_c, 0, 64, 63
1, 121807, Note_on_c, 0, 66, 49
1, 121812, Control_c, 0, 64, 70
1, 121827, Control_c, 0, 64, 82
1, 121833, Note_off_c, 0, 74, 64
1, 121837, Note_off_c, 0, 66, 60
1, 121841, Control_c, 0, 64, 127
1, 121860, Note_on_c, 0, 62, 49
1, 121894, Note_off_c, 0, 62, 64
1, 121931, Note_on_c, 0, 66, 57
1, 121972, Note_off_c, 0, 66, 58
1, 121997, Control_c, 0, 64, 107
1, 122012, Control_c, 0, 64, 91
1, 122027, Control_c, 0, 64, 83
1, 122037, Note_on_c, 0, 54, 56
1, 122042, Control_c, 0, 64, 76
1, 122052, Note_on_c, 0, 69, 64
1, 122056, Control_c, 0, 64, 68
1, 122072, Control_c, 0, 64, 53
1, 122081, Note_off_c, 0, 54, 61
1, 122087, Control_c, 0, 64, 0
1, 122132, Control_c, 0, 64, 45
1, 122146, Control_c, 0, 64, 62
1, 122147, Note_on_c, 0, 62, 48
1, 122161, Control_c, 0, 64, 68
1, 122176, Control_c, 0, 64, 78
1, 122190, Note_off_c, 0, 62, 59
1, 122191, Control_c, 0, 64, 93
1, 122197, Note_on_c, 0, 54, 59
1, 122206, Control_c, 0, 64, 127
1, 122244, Note_off_c, 0, 54, 59
1, 122284, Note_on_c, 0, 62, 52
1, 122320, Note_off_c, 0, 62, 59
1, 122323, Control_c, 0, 64, 111
1, 122338, Control_c, 0, 64, 83
1, 122353, Control_c, 0, 64, 67
1, 122357, Note_on_c, 0, 52, 57
1, 122362, Note_on_c, 0, 67, 68
1, 122368, Control_c, 0, 64, 42
1, 122382, Control_c, 0, 64, 0
1, 122394, Note_off_c, 0, 52, 63
1, 122412, Note_off_c, 0, 69, 59
1, 122427, Control_c, 0, 64, 39
1, 122434, Note_on_c, 0, 62, 53
1, 122442, Control_c, 0, 64, 58
1, 122457, Control_c, 0, 64, 71
1, 122471, Control_c, 0, 64, 88
1, 122484, Note_off_c, 0, 62, 56
1, 122486, Control_c, 0, 64, 127
1, 122508, Note_on_c, 0, 52, 53
1, 122546, Note_off_c, 0, 52, 64
1, 122590, Note_on_c, 0, 62, 62
1, 122619, Control_c, 0, 64, 102
1, 122627, Note_off_c, 0, 62, 62
1, 122634, Control_c, 0, 64, 68
1, 122649, Control_c, 0, 64, 46
1, 122667, Note_on_c, 0, 50, 61
1, 122671, Control_c, 0, 64, 40
1, 122675, Note_on_c, 0, 66, 68
1, 122683, Note_off_c, 0, 67, 55
1, 122686, Control_c, 0, 64, 53
1, 122701, Control_c, 0, 64, 61
1, 122707, Note_off_c, 0, 50, 65
1, 122716, Control_c, 0, 64, 65
1, 122731, Control_c, 0, 64, 68
1, 122742, Note_on_c, 0, 62, 52
1, 122745, Control_c, 0, 64, 81
1, 122760, Control_c, 0, 64, 127
1, 122786, Note_off_c, 0, 62, 61
1, 122818, Note_on_c, 0, 50, 63
1, 122824, Note_off_c, 0, 66, 62
1, 122856, Note_off_c, 0, 50, 63
1, 122898, Note_on_c, 0, 62, 57
1, 122924, Control_c, 0, 64, 102
1, 122935, Note_off_c, 0, 62, 59
1, 122939, Control_c, 0, 64, 68
1, 122954, Control_c, 0, 64, 0
1, 122975, Note_on_c, 0, 71, 71
1, 122983, Control_c, 0, 64, 22
1, 122985, Note_on_c, 0, 55, 57
1, 122998, Control_c, 0, 64, 63
1, 123012, Control_c, 0, 64, 86
1, 123027, Control_c, 0, 64, 127
1, 123029, Note_off_c, 0, 55, 61
1, 123035, Note_off_c, 0, 71, 61
1, 123059, Note_on_c, 0, 62, 60
1, 123134, Note_off_c, 0, 62, 61
1, 123152, Note_on_c, 0, 73, 65
1, 123154, Note_on_c, 0, 61, 56
1, 123186, Note_off_c, 0, 73, 64
1, 123187, Note_on_c, 0, 71, 69
1, 123191, Control_c, 0, 64, 105
1, 123201, Note_off_c, 0, 61, 58
1, 123206, Control_c, 0, 64, 71
1, 123220, Control_c, 0, 64, 50
1, 123221, Note_off_c, 0, 71, 64
1, 123235, Control_c, 0, 64, 0
1, 123247, Note_on_c, 0, 69, 63
1, 123247, Note_on_c, 0, 62, 39
1, 123274, Note_off_c, 0, 62, 56
1, 123276, Note_off_c, 0, 69, 66
1, 123285, Note_on_c, 0, 71, 73
1, 123292, Note_on_c, 0, 55, 45
1, 123309, Note_off_c, 0, 71, 68
1, 123327, Note_off_c, 0, 55, 63
1, 123346, Note_on_c, 0, 62, 61
1, 123402, Note_off_c, 0, 62, 54
1, 123440, Note_on_c, 0, 73, 79
1, 123447, Note_on_c, 0, 61, 53
1, 123461, Note_off_c, 0, 73, 71
1, 123465, Control_c, 0, 64, 10
1, 123489, Note_off_c, 0, 61, 61
1, 123524, Control_c, 0, 64, 23
1, 123533, Note_on_c, 0, 62, 51
1, 123539, Control_c, 0, 64, 35
1, 123554, Control_c, 0, 64, 40
1, 123578, Note_off_c, 0, 62, 57
1, 123596, Note_on_c, 0, 76, 70
1, 123599, Note_on_c, 0, 55, 51
1, 123613, Control_c, 0, 64, 40
1, 123643, Control_c, 0, 64, 41
1, 123653, Note_off_c, 0, 55, 59
1, 123688, Note_on_c, 0, 62, 41
1, 123718, Control_c, 0, 64, 41
1, 123733, Control_c, 0, 64, 42
1, 123751, Note_off_c, 0, 62, 61
1, 123759, Note_on_c, 0, 74, 73
1, 123768, Note_on_c, 0, 61, 51
1, 123783, Note_off_c, 0, 76, 65
1, 123789, Note_off_c, 0, 74, 65
1, 123792, Control_c, 0, 64, 43
1, 123807, Control_c, 0, 64, 44
1, 123809, Note_off_c, 0, 61, 60
1, 123822, Control_c, 0, 64, 46
1, 123839, Note_on_c, 0, 62, 53
1, 123894, Note_off_c, 0, 62, 52
1, 123901, Note_on_c, 0, 73, 65
1, 123919, Note_on_c, 0, 55, 50
1, 123971, Note_off_c, 0, 55, 60
1, 123984, Control_c, 0, 64, 46
1, 123996, Note_on_c, 0, 62, 54
1, 123999, Control_c, 0, 64, 47
1, 124043, Note_off_c, 0, 62, 56
1, 124054, Note_on_c, 0, 71, 71
1, 124070, Note_on_c, 0, 61, 60
1, 124088, Note_off_c, 0, 73, 65
1, 124088, Control_c, 0, 64, 48
1, 124102, Note_off_c, 0, 71, 63
1, 124106, Note_off_c, 0, 61, 63
1, 124140, Note_on_c, 0, 62, 56
1, 124185, Control_c, 0, 64, 47
1, 124189, Note_off_c, 0, 62, 55
1, 124199, Control_c, 0, 64, 44
1, 124214, Control_c, 0, 64, 42
1, 124218, Note_on_c, 0, 69, 71
1, 124222, Note_on_c, 0, 54, 52
1, 124229, Control_c, 0, 64, 40
1, 124243, Control_c, 0, 64, 40
1, 124258, Control_c, 0, 64, 53
1, 124265, Note_off_c, 0, 54, 62
1, 124273, Control_c, 0, 64, 66
1, 124288, Control_c, 0, 64, 87
1, 124294, Note_on_c, 0, 62, 55
1, 124303, Control_c, 0, 64, 127
1, 124312, Note_off_c, 0, 69, 63
1, 124348, Note_off_c, 0, 62, 59
1, 124367, Note_on_c, 0, 61, 65
1, 124416, Note_off_c, 0, 61, 61
1, 124451, Note_on_c, 0, 62, 39
1, 124476, Note_off_c, 0, 62, 58
1, 124551, Note_on_c, 0, 81, 86
1, 124555, Note_on_c, 0, 69, 82
1, 124558, Note_on_c, 0, 42, 77
1, 124570, Control_c, 0, 64, 98
1, 124585, Control_c, 0, 64, 67
1, 124600, Control_c, 0, 64, 0
1, 124603, Note_off_c, 0, 42, 62
1, 124645, Control_c, 0, 64, 58
1, 124657, Note_on_c, 0, 50, 64
1, 124659, Control_c, 0, 64, 70
1, 124674, Control_c, 0, 64, 91
1, 124689, Control_c, 0, 64, 127
1, 124713, Note_off_c, 0, 50, 57
1, 124723, Note_on_c, 0, 42, 75
1, 124725, Note_off_c, 0, 81, 63
1, 124746, Note_on_c, 0, 77, 33
1, 124750, Note_off_c, 0, 69, 60
1, 124758, Note_off_c, 0, 42, 65
1, 124779, Note_off_c, 0, 77, 46
1, 124791, Note_on_c, 0, 50, 72
1, 124880, Note_on_c, 0, 79, 89
1, 124881, Control_c, 0, 64, 99
1, 124884, Note_off_c, 0, 50, 59
1, 124888, Note_on_c, 0, 67, 78
1, 124889, Note_on_c, 0, 40, 66
1, 124896, Control_c, 0, 64, 72
1, 124919, Control_c, 0, 64, 50
1, 124934, Control_c, 0, 64, 0
1, 124950, Note_off_c, 0, 40, 60
1, 124963, Control_c, 0, 64, 30
1, 124978, Control_c, 0, 64, 68
1, 124984, Note_on_c, 0, 50, 64
1, 124992, Control_c, 0, 64, 104
1, 125007, Control_c, 0, 64, 127
1, 125043, Note_off_c, 0, 79, 64
1, 125058, Note_off_c, 0, 50, 61
1, 125062, Note_on_c, 0, 40, 65
1, 125070, Note_off_c, 0, 67, 61
1, 125077, Note_on_c, 0, 76, 26
1, 125108, Note_off_c, 0, 40, 63
1, 125115, Note_off_c, 0, 76, 44
1, 125129, Note_on_c, 0, 50, 70
1, 125191, Note_off_c, 0, 50, 61
1, 125212, Note_on_c, 0, 38, 67
1, 125220, Note_on_c, 0, 78, 96
1, 125224, Note_on_c, 0, 66, 84
1, 125229, Control_c, 0, 64, 97
1, 125244, Control_c, 0, 64, 72
1, 125260, Control_c, 0, 64, 39
1, 125275, Note_off_c, 0, 38, 60
1, 125275, Control_c, 0, 64, 0
1, 125289, Note_on_c, 0, 50, 72
1, 125289, Control_c, 0, 64, 54
1, 125304, Control_c, 0, 64, 72
1, 125319, Control_c, 0, 64, 98
1, 125334, Control_c, 0, 64, 127
1, 125351, Note_off_c, 0, 50, 60
1, 125372, Note_on_c, 0, 38, 75
1, 125398, Note_off_c, 0, 78, 63
1, 125404, Note_off_c, 0, 38, 64
1, 125411, Poly_aftertouch_c, 0, 45, 127
1, 125434, Note_on_c, 0, 50, 69
1, 125435, Poly_aftertouch_c, 0, 45, 0
1, 125438, Note_off_c, 0, 66, 60
1, 125480, Poly_aftertouch_c, 0, 71, 127
1, 125497, Control_c, 0, 64, 92
1, 125502, Note_off_c, 0, 50, 58
1, 125512, Control_c, 0, 64, 65
1, 125527, Control_c, 0, 64, 0
1, 125530, Note_on_c, 0, 43, 70
1, 125537, Note_on_c, 0, 76, 84
1, 125542, Note_on_c, 0, 64, 73
1, 125556, Control_c, 0, 64, 56
1, 125564, Poly_aftertouch_c, 0, 71, 0
1, 125571, Note_off_c, 0, 64, 62
1, 125571, Control_c, 0, 64, 76
1, 125586, Control_c, 0, 64, 127
1, 125613, Note_off_c, 0, 76, 67
1, 125632, Note_on_c, 0, 53, 39
1, 125632, Note_on_c, 0, 52, 40
1, 125679, Note_off_c, 0, 53, 50
1, 125683, Note_off_c, 0, 52, 56
1, 125684, Note_off_c, 0, 43, 56
1, 125697, Note_on_c, 0, 47, 68
1, 125767, Note_on_c, 0, 52, 67
1, 125771, Control_c, 0, 64, 103
1, 125772, Note_on_c, 0, 83, 87
1, 125775, Note_off_c, 0, 47, 60
1, 125786, Control_c, 0, 64, 76
1, 125801, Control_c, 0, 64, 66
1, 125815, Control_c, 0, 64, 64
1, 125830, Control_c, 0, 64, 63
1, 125837, Note_off_c, 0, 52, 63
1, 125845, Control_c, 0, 64, 55
1, 125849, Note_on_c, 0, 43, 59
1, 125856, Note_on_c, 0, 81, 79
1, 125860, Control_c, 0, 64, 19
1, 125871, Note_off_c, 0, 83, 58
1, 125875, Control_c, 0, 64, 0
1, 125922, Note_on_c, 0, 79, 77
1, 125924, Note_on_c, 0, 52, 64
1, 125934, Note_off_c, 0, 43, 60
1, 125942, Note_off_c, 0, 81, 63
1, 125992, Note_on_c, 0, 78, 81
1, 125996, Note_off_c, 0, 52, 64
1, 125999, Note_on_c, 0, 47, 66
1, 126001, Note_off_c, 0, 79, 65
1, 126051, Note_off_c, 0, 78, 65
1, 126053, Note_off_c, 0, 47, 58
1, 126063, Note_on_c, 0, 76, 84
1, 126077, Note_on_c, 0, 52, 69
1, 126112, Note_off_c, 0, 52, 67
1, 126141, Note_on_c, 0, 74, 87
1, 126153, Note_off_c, 0, 76, 63
1, 126156, Note_on_c, 0, 45, 62
1, 126172, Control_c, 0, 64, 33
1, 126186, Control_c, 0, 64, 54
1, 126201, Control_c, 0, 64, 63
1, 126216, Control_c, 0, 64, 71
1, 126222, Note_on_c, 0, 54, 73
1, 126228, Note_off_c, 0, 45, 64
1, 126231, Control_c, 0, 64, 95
1, 126246, Control_c, 0, 64, 127
1, 126279, Note_off_c, 0, 54, 60
1, 126285, Note_off_c, 0, 74, 63
1, 126305, Note_on_c, 0, 50, 64
1, 126368, Note_off_c, 0, 50, 59
1, 126374, Note_on_c, 0, 54, 70
1, 126416, Control_c, 0, 64, 93
1, 126431, Control_c, 0, 64, 67
1, 126437, Note_off_c, 0, 54, 61
1, 126441, Note_on_c, 0, 76, 83
1, 126445, Control_c, 0, 64, 0
1, 126448, Note_on_c, 0, 45, 65
1, 126479, Note_off_c, 0, 76, 63
1, 126487, Note_off_c, 0, 45, 63
1, 126487, Note_on_c, 0, 78, 75
1, 126490, Control_c, 0, 64, 48
1, 126505, Control_c, 0, 64, 62
1, 126519, Note_on_c, 0, 55, 62
1, 126520, Control_c, 0, 64, 69
1, 126535, Control_c, 0, 64, 84
1, 126541, Note_on_c, 0, 76, 72
1, 126543, Note_off_c, 0, 78, 53
1, 126550, Control_c, 0, 64, 127
1, 126556, Note_off_c, 0, 55, 64
1, 126578, Note_on_c, 0, 49, 67
1, 126581, Note_on_c, 0, 74, 72
1, 126581, Note_off_c, 0, 76, 65
1, 126612, Note_off_c, 0, 49, 64
1, 126623, Note_on_c, 0, 76, 80
1, 126630, Note_on_c, 0, 55, 69
1, 126635, Note_off_c, 0, 74, 66
1, 126654, Note_off_c, 0, 76, 65
1, 126658, Note_off_c, 0, 55, 65
1, 126801, Control_c, 0, 64, 97
1, 126806, Note_on_c, 0, 74, 83
1, 126811, Note_on_c, 0, 69, 82
1, 126812, Note_on_c, 0, 44, 10
1, 126815, Note_on_c, 0, 66, 82
1, 126816, Control_c, 0, 64, 67
1, 126824, Note_on_c, 0, 50, 60
1, 126830, Control_c, 0, 64, 0
1, 126831, Note_on_c, 0, 36, 52
1, 126834, Note_on_c, 0, 48, 59
1, 126864, Note_off_c, 0, 50, 66
1, 126869, Note_off_c, 0, 44, 53
1, 126950, Control_c, 0, 64, 19
1, 126965, Control_c, 0, 64, 40
1, 126980, Control_c, 0, 64, 56
1, 126995, Control_c, 0, 64, 63
1, 127009, Control_c, 0, 64, 68
1, 127024, Control_c, 0, 64, 77
1, 127029, Note_off_c, 0, 69, 0
1, 127039, Control_c, 0, 64, 102
1, 127046, Note_off_c, 0, 36, 61
1, 127048, Note_off_c, 0, 74, 64
1, 127053, Control_c, 0, 64, 127
1, 127062, Note_off_c, 0, 66, 61
1, 127077, Note_off_c, 0, 48, 63
1, 127103, Poly_aftertouch_c, 0, 69, 0
1, 127254, Control_c, 0, 64, 94
1, 127268, Control_c, 0, 64, 71
1, 127283, Control_c, 0, 64, 54
1, 127298, Control_c, 0, 64, 0
1, 127461, Control_c, 0, 64, 30
1, 127468, Note_on_c, 0, 79, 84
1, 127472, Note_on_c, 0, 66, 76
1, 127476, Control_c, 0, 64, 59
1, 127482, Note_on_c, 0, 62, 66
1, 127491, Control_c, 0, 64, 83
1, 127506, Control_c, 0, 64, 127
1, 127514, Note_off_c, 0, 62, 66
1, 127517, Note_off_c, 0, 66, 62
1, 127542, Note_on_c, 0, 78, 82
1, 127542, Note_off_c, 0, 79, 66
1, 127602, Note_off_c, 0, 78, 63
1, 127615, Note_on_c, 0, 76, 79
1, 127638, Control_c, 0, 64, 83
1, 127654, Control_c, 0, 64, 64
1, 127669, Control_c, 0, 64, 10
1, 127683, Control_c, 0, 64, 0
1, 127690, Note_off_c, 0, 76, 59
1, 127691, Note_on_c, 0, 78, 79
1, 127743, Control_c, 0, 64, 35
1, 127757, Note_on_c, 0, 81, 78
1, 127757, Control_c, 0, 64, 65
1, 127760, Note_off_c, 0, 78, 64
1, 127772, Control_c, 0, 64, 92
1, 127773, Note_on_c, 0, 67, 74
1, 127776, Note_on_c, 0, 64, 72
1, 127787, Control_c, 0, 64, 127
1, 127798, Note_off_c, 0, 67, 69
1, 127802, Note_off_c, 0, 64, 68
1, 127838, Note_on_c, 0, 79, 81
1, 127846, Note_off_c, 0, 81, 63
1, 127891, Control_c, 0, 64, 110
1, 127912, Note_off_c, 0, 79, 66
1, 127913, Control_c, 0, 64, 84
1, 127920, Note_on_c, 0, 78, 79
1, 127928, Control_c, 0, 64, 67
1, 127943, Control_c, 0, 64, 46
1, 127957, Control_c, 0, 64, 0
1, 127989, Note_on_c, 0, 79, 77
1, 127995, Note_off_c, 0, 78, 63
1, 128081, Note_off_c, 0, 79, 67
1, 128083, Note_on_c, 0, 81, 83
1, 128088, Note_on_c, 0, 69, 59
1, 128092, Note_on_c, 0, 66, 60
1, 128195, Control_c, 0, 64, 14
1, 128210, Control_c, 0, 64, 19
1, 128225, Control_c, 0, 64, 25
1, 128239, Control_c, 0, 64, 30
1, 128254, Control_c, 0, 64, 35
1, 128269, Control_c, 0, 64, 41
1, 128283, Control_c, 0, 64, 46
1, 128298, Control_c, 0, 64, 46
1, 128431, Control_c, 0, 64, 46
1, 128491, Note_off_c, 0, 81, 61
1, 128521, Control_c, 0, 64, 45
1, 128536, Control_c, 0, 64, 45
1, 128563, Note_off_c, 0, 66, 45
1, 128586, Note_off_c, 0, 69, 62
1, 128640, Control_c, 0, 64, 44
1, 128662, Control_c, 0, 64, 43
1, 128821, Note_on_c, 0, 81, 46
1, 128871, Note_off_c, 0, 81, 61
1, 128968, Note_on_c, 0, 83, 70
1, 129009, Note_off_c, 0, 83, 64
1, 129112, Note_on_c, 0, 85, 77
1, 129164, Note_off_c, 0, 85, 66
1, 129258, Note_on_c, 0, 86, 83
1, 129269, Control_c, 0, 64, 44
1, 129321, Note_off_c, 0, 86, 61
1, 129423, Note_on_c, 0, 81, 71
1, 129428, Note_on_c, 0, 54, 54
1, 129465, Note_off_c, 0, 54, 64
1, 129576, Note_on_c, 0, 62, 54
1, 129607, Note_off_c, 0, 62, 64
1, 129724, Note_on_c, 0, 78, 65
1, 129727, Note_on_c, 0, 50, 51
1, 129775, Note_off_c, 0, 81, 59
1, 129787, Note_off_c, 0, 50, 57
1, 129880, Note_on_c, 0, 62, 52
1, 129909, Note_off_c, 0, 78, 65
1, 129928, Note_off_c, 0, 62, 58
1, 130023, Note_on_c, 0, 81, 64
1, 130035, Note_on_c, 0, 52, 53
1, 130070, Note_off_c, 0, 52, 64
1, 130090, Note_off_c, 0, 81, 63
1, 130095, Note_on_c, 0, 79, 69
1, 130162, Note_off_c, 0, 79, 65
1, 130172, Note_on_c, 0, 78, 70
1, 130186, Note_on_c, 0, 62, 50
1, 130232, Note_off_c, 0, 78, 58
1, 130235, Note_off_c, 0, 62, 56
1, 130240, Note_on_c, 0, 79, 70
1, 130302, Note_off_c, 0, 79, 66
1, 130303, Note_on_c, 0, 81, 76
1, 130322, Note_on_c, 0, 57, 57
1, 130333, Note_off_c, 0, 81, 65
1, 130354, Note_off_c, 0, 57, 64
1, 130460, Note_on_c, 0, 79, 71
1, 130466, Note_on_c, 0, 61, 49
1, 130485, Note_off_c, 0, 79, 70
1, 130513, Note_off_c, 0, 61, 60
1, 130634, Control_c, 0, 64, 42
1, 130637, Note_on_c, 0, 50, 45
1, 130647, Note_on_c, 0, 77, 65
1, 130648, Control_c, 0, 64, 41
1, 130651, Note_on_c, 0, 62, 39
1, 130663, Control_c, 0, 64, 41
1, 130719, Note_off_c, 0, 77, 62
1, 130723, Control_c, 0, 64, 41
1, 130723, Note_on_c, 0, 78, 65
1, 130738, Control_c, 0, 64, 46
1, 130752, Control_c, 0, 64, 52
1, 130767, Control_c, 0, 64, 56
1, 130782, Control_c, 0, 64, 60
1, 130797, Control_c, 0, 64, 66
1, 130812, Control_c, 0, 64, 73
1, 130826, Control_c, 0, 64, 86
1, 130841, Control_c, 0, 64, 127
1, 130979, Note_off_c, 0, 50, 59
1, 131042, Note_off_c, 0, 78, 52
1, 131050, Note_off_c, 0, 62, 54
1, 131190, Control_c, 0, 64, 116
1, 131205, Control_c, 0, 64, 85
1, 131220, Control_c, 0, 64, 68
1, 131235, Control_c, 0, 64, 52
1, 131249, Control_c, 0, 64, 0
1, 131358, Note_on_c, 0, 66, 65
1, 131365, Note_on_c, 0, 62, 58
1, 131368, Note_on_c, 0, 79, 85
1, 131393, Note_off_c, 0, 66, 64
1, 131402, Note_off_c, 0, 62, 64
1, 131442, Note_on_c, 0, 78, 82
1, 131444, Note_off_c, 0, 79, 65
1, 131501, Note_off_c, 0, 78, 65
1, 131506, Note_on_c, 0, 62, 64
1, 131507, Note_on_c, 0, 66, 68
1, 131507, Note_on_c, 0, 76, 75
1, 131540, Note_off_c, 0, 66, 60
1, 131546, Note_off_c, 0, 62, 62
1, 131573, Note_on_c, 0, 78, 88
1, 131590, Note_off_c, 0, 76, 62
1, 131656, Note_on_c, 0, 81, 82
1, 131656, Note_off_c, 0, 78, 60
1, 131662, Note_on_c, 0, 64, 71
1, 131666, Note_on_c, 0, 67, 72
1, 131695, Note_off_c, 0, 67, 63
1, 131697, Note_off_c, 0, 64, 65
1, 131734, Note_on_c, 0, 79, 81
1, 131755, Note_off_c, 0, 81, 63
1, 131805, Note_on_c, 0, 67, 73
1, 131808, Note_off_c, 0, 79, 66
1, 131808, Note_on_c, 0, 78, 86
1, 131809, Note_on_c, 0, 64, 64
1, 131838, Note_off_c, 0, 64, 66
1, 131838, Note_off_c, 0, 67, 62
1, 131876, Note_on_c, 0, 79, 83
1, 131880, Note_off_c, 0, 78, 64
1, 131959, Note_off_c, 0, 79, 67
1, 131960, Note_on_c, 0, 81, 84
1, 131967, Note_on_c, 0, 69, 61
1, 131969, Note_on_c, 0, 66, 49
1, 132279, Control_c, 0, 64, 28
1, 132294, Control_c, 0, 64, 43
1, 132309, Control_c, 0, 64, 51
1, 132324, Control_c, 0, 64, 57
1, 132339, Control_c, 0, 64, 60
1, 132354, Control_c, 0, 64, 62
1, 132368, Note_off_c, 0, 81, 59
1, 132368, Control_c, 0, 64, 64
1, 132378, Note_off_c, 0, 66, 36
1, 132383, Control_c, 0, 64, 66
1, 132405, Control_c, 0, 64, 67
1, 132417, Note_off_c, 0, 69, 38
1, 132420, Control_c, 0, 64, 67
1, 132435, Control_c, 0, 64, 67
1, 132451, Control_c, 0, 64, 66
1, 132466, Control_c, 0, 64, 65
1, 132481, Control_c, 0, 64, 64
1, 132496, Control_c, 0, 64, 63
1, 132510, Control_c, 0, 64, 62
1, 132540, Control_c, 0, 64, 61
1, 132554, Control_c, 0, 64, 60
1, 132569, Control_c, 0, 64, 58
1, 132584, Control_c, 0, 64, 57
1, 132599, Control_c, 0, 64, 56
1, 132749, Note_on_c, 0, 81, 48
1, 132791, Note_off_c, 0, 81, 59
1, 132902, Note_on_c, 0, 83, 66
1, 132939, Note_off_c, 0, 83, 61
1, 133053, Note_on_c, 0, 85, 73
1, 133099, Note_off_c, 0, 85, 62
1, 133195, Note_on_c, 0, 86, 79
1, 133253, Note_off_c, 0, 86, 62
1, 133359, Note_on_c, 0, 81, 72
1, 133376, Note_on_c, 0, 54, 52
1, 133410, Note_off_c, 0, 54, 66
1, 133515, Note_on_c, 0, 62, 53
1, 133544, Note_off_c, 0, 62, 64
1, 133653, Note_on_c, 0, 50, 53
1, 133666, Note_on_c, 0, 78, 65
1, 133702, Control_c, 0, 64, 57
1, 133706, Note_off_c, 0, 50, 61
1, 133743, Note_off_c, 0, 81, 55
1, 133813, Note_on_c, 0, 62, 61
1, 133821, Control_c, 0, 64, 57
1, 133849, Note_off_c, 0, 62, 61
1, 133852, Note_off_c, 0, 78, 64
1, 133968, Note_on_c, 0, 81, 66
1, 133969, Note_on_c, 0, 52, 62
1, 134002, Note_off_c, 0, 52, 65
1, 134040, Note_off_c, 0, 81, 63
1, 134044, Note_on_c, 0, 79, 68
1, 134103, Note_off_c, 0, 79, 66
1, 134113, Note_on_c, 0, 78, 73
1, 134123, Note_on_c, 0, 62, 57
1, 134159, Note_off_c, 0, 62, 64
1, 134178, Note_on_c, 0, 79, 71
1, 134180, Note_off_c, 0, 78, 64
1, 134249, Note_off_c, 0, 79, 65
1, 134253, Note_on_c, 0, 81, 77
1, 134267, Note_on_c, 0, 57, 67
1, 134288, Control_c, 0, 64, 57
1, 134294, Note_off_c, 0, 57, 66
1, 134336, Note_on_c, 0, 79, 71
1, 134340, Note_off_c, 0, 81, 64
1, 134363, Control_c, 0, 64, 56
1, 134378, Control_c, 0, 64, 56
1, 134392, Control_c, 0, 64, 55
1, 134407, Control_c, 0, 64, 54
1, 134408, Note_on_c, 0, 61, 58
1, 134408, Note_on_c, 0, 78, 70
1, 134424, Note_off_c, 0, 79, 58
1, 134467, Control_c, 0, 64, 55
1, 134471, Note_off_c, 0, 61, 57
1, 134482, Note_on_c, 0, 76, 68
1, 134482, Control_c, 0, 64, 55
1, 134487, Note_off_c, 0, 78, 63
1, 134497, Control_c, 0, 64, 56
1, 134512, Control_c, 0, 64, 57
1, 134526, Control_c, 0, 64, 59
1, 134539, Note_on_c, 0, 54, 58
1, 134539, Note_off_c, 0, 76, 64
1, 134541, Control_c, 0, 64, 60
1, 134555, Note_on_c, 0, 74, 71
1, 134556, Control_c, 0, 64, 63
1, 134571, Control_c, 0, 64, 66
1, 134586, Control_c, 0, 64, 70
1, 134600, Control_c, 0, 64, 73
1, 134612, Note_off_c, 0, 54, 54
1, 134615, Control_c, 0, 64, 76
1, 134621, Note_off_c, 0, 74, 61
1, 134630, Control_c, 0, 64, 77
1, 134643, Note_on_c, 0, 62, 51
1, 134643, Note_on_c, 0, 76, 65
1, 134667, Control_c, 0, 64, 76
1, 134682, Control_c, 0, 64, 74
1, 134695, Note_off_c, 0, 62, 58
1, 134697, Control_c, 0, 64, 68
1, 134697, Note_on_c, 0, 78, 77
1, 134700, Note_off_c, 0, 76, 63
1, 134711, Control_c, 0, 64, 61
1, 134717, Note_on_c, 0, 57, 51
1, 134726, Control_c, 0, 64, 45
1, 134741, Control_c, 0, 64, 40
1, 134748, Note_off_c, 0, 78, 63
1, 134753, Note_off_c, 0, 57, 65
1, 134756, Control_c, 0, 64, 47
1, 134770, Note_on_c, 0, 79, 82
1, 134771, Control_c, 0, 64, 58
1, 134784, Note_on_c, 0, 62, 58
1, 134786, Control_c, 0, 64, 64
1, 134800, Control_c, 0, 64, 69
1, 134815, Control_c, 0, 64, 76
1, 134825, Note_off_c, 0, 62, 59
1, 134830, Control_c, 0, 64, 89
1, 134834, Note_off_c, 0, 79, 60
1, 134843, Note_on_c, 0, 81, 80
1, 134846, Control_c, 0, 64, 127
1, 134849, Note_on_c, 0, 54, 71
1, 134890, Note_off_c, 0, 54, 57
1, 134926, Note_on_c, 0, 83, 75
1, 134933, Note_off_c, 0, 81, 64
1, 134941, Note_on_c, 0, 62, 55
1, 134982, Note_off_c, 0, 83, 66
1, 134983, Note_on_c, 0, 85, 76
1, 134986, Note_off_c, 0, 62, 60
1, 135010, Note_on_c, 0, 57, 55
1, 135038, Control_c, 0, 64, 102
1, 135042, Note_off_c, 0, 57, 66
1, 135049, Note_on_c, 0, 86, 84
1, 135053, Control_c, 0, 64, 87
1, 135059, Note_off_c, 0, 85, 65
1, 135068, Control_c, 0, 64, 74
1, 135078, Note_off_c, 0, 86, 67
1, 135083, Control_c, 0, 64, 61
1, 135084, Note_on_c, 0, 62, 54
1, 135097, Control_c, 0, 64, 30
1, 135112, Control_c, 0, 64, 0
1, 135120, Note_off_c, 0, 62, 56
1, 135144, Note_on_c, 0, 86, 81
1, 135150, Note_on_c, 0, 55, 59
1, 135192, Note_off_c, 0, 55, 59
1, 135234, Note_on_c, 0, 62, 59
1, 135275, Note_off_c, 0, 62, 61
1, 135275, Control_c, 0, 64, 10
1, 135290, Control_c, 0, 64, 14
1, 135305, Control_c, 0, 64, 15
1, 135308, Note_on_c, 0, 59, 63
1, 135349, Control_c, 0, 64, 16
1, 135352, Note_off_c, 0, 59, 59
1, 135364, Control_c, 0, 64, 17
1, 135399, Note_on_c, 0, 62, 53
1, 135401, Control_c, 0, 64, 18
1, 135445, Note_off_c, 0, 62, 57
1, 135455, Note_on_c, 0, 83, 67
1, 135460, Control_c, 0, 64, 20
1, 135469, Note_on_c, 0, 55, 52
1, 135475, Control_c, 0, 64, 23
1, 135477, Note_off_c, 0, 86, 63
1, 135489, Control_c, 0, 64, 24
1, 135495, Note_off_c, 0, 83, 65
1, 135509, Note_off_c, 0, 55, 61
1, 135519, Control_c, 0, 64, 25
1, 135551, Note_on_c, 0, 62, 53
1, 135594, Control_c, 0, 64, 26
1, 135595, Note_off_c, 0, 62, 59
1, 135621, Note_on_c, 0, 59, 62
1, 135671, Note_off_c, 0, 59, 61
1, 135678, Note_on_c, 0, 79, 69
1, 135702, Note_on_c, 0, 62, 57
1, 135713, Control_c, 0, 64, 26
1, 135735, Note_off_c, 0, 62, 64
1, 135762, Note_on_c, 0, 78, 83
1, 135764, Note_off_c, 0, 79, 65
1, 135771, Note_on_c, 0, 57, 59
1, 135772, Control_c, 0, 64, 27
1, 135802, Control_c, 0, 64, 29
1, 135812, Note_off_c, 0, 57, 55
1, 135817, Control_c, 0, 64, 34
1, 135832, Control_c, 0, 64, 36
1, 135835, Note_on_c, 0, 66, 79
1, 135846, Control_c, 0, 64, 37
1, 135890, Note_off_c, 0, 66, 60
1, 135920, Control_c, 0, 64, 37
1, 135931, Note_on_c, 0, 62, 60
1, 135935, Control_c, 0, 64, 39
1, 135950, Control_c, 0, 64, 39
1, 135964, Control_c, 0, 64, 40
1, 135984, Note_off_c, 0, 62, 59
1, 135984, Note_on_c, 0, 66, 54
1, 136030, Note_off_c, 0, 66, 58
1, 136062, Note_on_c, 0, 81, 70
1, 136063, Note_on_c, 0, 57, 63
1, 136085, Note_off_c, 0, 78, 63
1, 136103, Note_off_c, 0, 57, 62
1, 136104, Note_off_c, 0, 81, 65
1, 136112, Control_c, 0, 64, 40
1, 136127, Control_c, 0, 64, 41
1, 136133, Note_on_c, 0, 66, 54
1, 136150, Control_c, 0, 64, 41
1, 136175, Note_off_c, 0, 66, 62
1, 136220, Note_on_c, 0, 62, 52
1, 136259, Note_off_c, 0, 62, 63
1, 136285, Note_on_c, 0, 66, 48
1, 136293, Note_on_c, 0, 74, 63
1, 136328, Note_off_c, 0, 66, 63
1, 136363, Note_off_c, 0, 74, 55
1, 136367, Note_on_c, 0, 57, 65
1, 136368, Note_on_c, 0, 76, 71
1, 136399, Note_off_c, 0, 57, 61
1, 136449, Note_on_c, 0, 67, 51
1, 136491, Note_off_c, 0, 67, 61
1, 136515, Note_on_c, 0, 64, 51
1, 136560, Note_off_c, 0, 64, 62
1, 136584, Note_on_c, 0, 67, 59
1, 136642, Note_off_c, 0, 67, 54
1, 136655, Note_on_c, 0, 79, 69
1, 136666, Note_on_c, 0, 57, 62
1, 136684, Note_off_c, 0, 76, 62
1, 136694, Note_off_c, 0, 79, 64
1, 136705, Note_off_c, 0, 57, 66
1, 136755, Note_on_c, 0, 67, 59
1, 136758, Control_c, 0, 64, 44
1, 136773, Control_c, 0, 64, 50
1, 136787, Control_c, 0, 64, 59
1, 136798, Note_off_c, 0, 67, 59
1, 136802, Control_c, 0, 64, 65
1, 136807, Note_on_c, 0, 64, 60
1, 136817, Control_c, 0, 64, 70
1, 136832, Control_c, 0, 64, 77
1, 136845, Note_off_c, 0, 64, 66
1, 136847, Control_c, 0, 64, 85
1, 136862, Control_c, 0, 64, 94
1, 136865, Note_on_c, 0, 73, 65
1, 136876, Control_c, 0, 64, 105
1, 136880, Note_on_c, 0, 67, 57
1, 136899, Control_c, 0, 64, 127
1, 136907, Note_off_c, 0, 67, 63
1, 136948, Note_off_c, 0, 73, 64
1, 136956, Note_on_c, 0, 74, 79
1, 136958, Control_c, 0, 64, 113
1, 136959, Note_on_c, 0, 54, 68
1, 136973, Control_c, 0, 64, 98
1, 136988, Control_c, 0, 64, 82
1, 137002, Control_c, 0, 64, 69
1, 137012, Note_off_c, 0, 54, 54
1, 137017, Control_c, 0, 64, 57
1, 137028, Note_on_c, 0, 76, 76
1, 137030, Note_off_c, 0, 74, 62
1, 137032, Control_c, 0, 64, 43
1, 137045, Note_on_c, 0, 62, 59
1, 137102, Note_off_c, 0, 62, 59
1, 137105, Note_on_c, 0, 78, 80
1, 137106, Control_c, 0, 64, 44
1, 137116, Note_on_c, 0, 57, 65
1, 137120, Control_c, 0, 64, 44
1, 137124, Note_off_c, 0, 76, 58
1, 137135, Control_c, 0, 64, 45
1, 137150, Control_c, 0, 64, 46
1, 137168, Note_on_c, 0, 79, 77
1, 137173, Note_off_c, 0, 57, 55
1, 137174, Note_off_c, 0, 78, 65
1, 137186, Note_on_c, 0, 62, 64
1, 137204, Note_off_c, 0, 79, 66
1, 137209, Control_c, 0, 64, 46
1, 137224, Control_c, 0, 64, 47
1, 137230, Note_off_c, 0, 62, 58
1, 137239, Note_on_c, 0, 54, 75
1, 137245, Note_on_c, 0, 81, 80
1, 137311, Note_off_c, 0, 54, 56
1, 137313, Note_off_c, 0, 81, 64
1, 137315, Note_on_c, 0, 83, 82
1, 137329, Control_c, 0, 64, 48
1, 137332, Note_on_c, 0, 62, 53
1, 137343, Control_c, 0, 64, 49
1, 137358, Control_c, 0, 64, 49
1, 137373, Control_c, 0, 64, 50
1, 137373, Note_off_c, 0, 62, 61
1, 137388, Note_on_c, 0, 57, 62
1, 137394, Note_on_c, 0, 85, 77
1, 137400, Note_off_c, 0, 83, 65
1, 137403, Control_c, 0, 64, 50
1, 137417, Control_c, 0, 64, 51
1, 137425, Note_off_c, 0, 57, 65
1, 137432, Control_c, 0, 64, 51
1, 137447, Control_c, 0, 64, 52
1, 137456, Note_on_c, 0, 86, 74
1, 137463, Note_off_c, 0, 85, 65
1, 137469, Note_on_c, 0, 62, 59
1, 137506, Note_off_c, 0, 62, 62
1, 137533, Note_off_c, 0, 86, 65
1, 137535, Note_on_c, 0, 88, 76
1, 137543, Note_on_c, 0, 55, 64
1, 137550, Control_c, 0, 64, 53
1, 137581, Note_off_c, 0, 55, 63
1, 137609, Note_off_c, 0, 88, 64
1, 137611, Note_on_c, 0, 86, 76
1, 137616, Note_on_c, 0, 62, 58
1, 137647, Control_c, 0, 64, 53
1, 137662, Control_c, 0, 64, 54
1, 137671, Note_off_c, 0, 62, 58
1, 137677, Control_c, 0, 64, 54
1, 137691, Note_off_c, 0, 86, 63
1, 137693, Note_on_c, 0, 85, 77
1, 137704, Note_on_c, 0, 59, 54
1, 137736, Control_c, 0, 64, 55
1, 137746, Note_off_c, 0, 59, 65
1, 137750, Control_c, 0, 64, 56
1, 137763, Note_on_c, 0, 86, 79
1, 137765, Note_off_c, 0, 85, 66
1, 137765, Control_c, 0, 64, 56
1, 137780, Note_on_c, 0, 62, 59
1, 137780, Control_c, 0, 64, 57
1, 137821, Note_off_c, 0, 62, 62
1, 137838, Note_on_c, 0, 85, 79
1, 137844, Note_on_c, 0, 55, 58
1, 137862, Note_off_c, 0, 86, 60
1, 137886, Note_off_c, 0, 55, 61
1, 137910, Note_on_c, 0, 83, 81
1, 137921, Note_off_c, 0, 85, 64
1, 137922, Note_on_c, 0, 62, 59
1, 137967, Note_off_c, 0, 62, 62
1, 137972, Note_off_c, 0, 83, 64
1, 137976, Note_on_c, 0, 81, 73
1, 137981, Note_on_c, 0, 59, 68
1, 138030, Note_off_c, 0, 59, 60
1, 138047, Note_off_c, 0, 81, 59
1, 138048, Note_on_c, 0, 79, 82
1, 138075, Note_on_c, 0, 62, 60
1, 138105, Note_off_c, 0, 62, 65
1, 138118, Note_off_c, 0, 79, 65
1, 138121, Note_on_c, 0, 78, 83
1, 138128, Note_on_c, 0, 57, 72
1, 138200, Note_off_c, 0, 78, 63
1, 138203, Note_off_c, 0, 57, 59
1, 138205, Note_on_c, 0, 79, 74
1, 138208, Note_on_c, 0, 66, 68
1, 138241, Control_c, 0, 64, 56
1, 138264, Note_on_c, 0, 80, 72
1, 138270, Note_off_c, 0, 79, 66
1, 138277, Note_off_c, 0, 66, 58
1, 138286, Note_on_c, 0, 62, 60
1, 138336, Note_off_c, 0, 62, 56
1, 138346, Note_on_c, 0, 81, 77
1, 138348, Note_off_c, 0, 80, 64
1, 138353, Note_on_c, 0, 66, 62
1, 138410, Note_off_c, 0, 66, 59
1, 138424, Note_off_c, 0, 81, 63
1, 138429, Note_on_c, 0, 57, 57
1, 138430, Note_on_c, 0, 79, 66
1, 138464, Note_off_c, 0, 57, 58
1, 138494, Note_on_c, 0, 66, 54
1, 138507, Note_off_c, 0, 79, 63
1, 138509, Note_on_c, 0, 78, 66
1, 138540, Note_off_c, 0, 66, 60
1, 138576, Note_off_c, 0, 78, 64
1, 138578, Note_on_c, 0, 62, 46
1, 138578, Note_on_c, 0, 76, 66
1, 138622, Note_off_c, 0, 62, 62
1, 138629, Note_off_c, 0, 76, 64
1, 138644, Note_on_c, 0, 74, 64
1, 138652, Note_on_c, 0, 66, 53
1, 138685, Note_off_c, 0, 74, 60
1, 138688, Note_off_c, 0, 66, 63
1, 138692, Control_c, 0, 64, 56
1, 138715, Note_on_c, 0, 75, 68
1, 138718, Note_on_c, 0, 57, 66
1, 138744, Note_off_c, 0, 75, 66
1, 138754, Note_off_c, 0, 57, 62
1, 138773, Note_on_c, 0, 76, 73
1, 138810, Control_c, 0, 64, 55
1, 138820, Note_on_c, 0, 67, 40
1, 138833, Note_off_c, 0, 76, 58
1, 138854, Note_off_c, 0, 67, 55
1, 138863, Note_on_c, 0, 78, 74
1, 138879, Note_on_c, 0, 64, 56
1, 138913, Note_off_c, 0, 64, 64
1, 138920, Note_off_c, 0, 78, 62
1, 138933, Note_on_c, 0, 79, 65
1, 138938, Note_on_c, 0, 67, 62
1, 138995, Note_off_c, 0, 67, 53
1, 139010, Note_off_c, 0, 79, 63
1, 139015, Note_on_c, 0, 78, 71
1, 139022, Note_on_c, 0, 57, 65
1, 139064, Note_off_c, 0, 57, 63
1, 139077, Note_off_c, 0, 78, 64
1, 139080, Note_on_c, 0, 76, 67
1, 139115, Note_on_c, 0, 67, 56
1, 139145, Note_off_c, 0, 76, 63
1, 139162, Note_off_c, 0, 67, 63
1, 139168, Note_on_c, 0, 74, 64
1, 139186, Note_on_c, 0, 64, 49
1, 139219, Note_off_c, 0, 74, 51
1, 139219, Control_c, 0, 64, 56
1, 139227, Note_off_c, 0, 64, 64
1, 139241, Note_on_c, 0, 73, 71
1, 139261, Note_on_c, 0, 67, 56
1, 139311, Note_off_c, 0, 73, 60
1, 139319, Note_on_c, 0, 74, 73
1, 139320, Note_off_c, 0, 67, 49
1, 139337, Control_c, 0, 64, 55
1, 139341, Note_on_c, 0, 62, 52
1, 139341, Note_on_c, 0, 66, 57
1, 139352, Control_c, 0, 64, 55
1, 139377, Note_off_c, 0, 74, 63
1, 139407, Note_on_c, 0, 69, 70
1, 139471, Note_off_c, 0, 69, 60
1, 139481, Note_on_c, 0, 74, 70
1, 139529, Control_c, 0, 64, 55
1, 139547, Note_off_c, 0, 74, 63
1, 139549, Note_on_c, 0, 78, 77
1, 139552, Note_off_c, 0, 66, 59
1, 139565, Note_off_c, 0, 62, 63
1, 139603, Control_c, 0, 64, 54
1, 139618, Control_c, 0, 64, 54
1, 139622, Note_off_c, 0, 78, 65
1, 139623, Note_on_c, 0, 81, 80
1, 139693, Control_c, 0, 64, 53
1, 139701, Note_off_c, 0, 81, 66
1, 139706, Note_on_c, 0, 78, 78
1, 139722, Control_c, 0, 64, 53
1, 139775, Note_on_c, 0, 79, 80
1, 139776, Note_off_c, 0, 78, 64
1, 139794, Note_on_c, 0, 64, 74
1, 139797, Control_c, 0, 64, 52
1, 139801, Note_on_c, 0, 61, 60
1, 139802, Note_on_c, 0, 57, 56
1, 139826, Control_c, 0, 64, 52
1, 139832, Note_off_c, 0, 61, 65
1, 139834, Note_off_c, 0, 57, 66
1, 139836, Note_off_c, 0, 64, 48
1, 139851, Note_on_c, 0, 76, 80
1, 139856, Control_c, 0, 64, 51
1, 139858, Note_off_c, 0, 79, 64
1, 139871, Control_c, 0, 64, 51
1, 139892, Control_c, 0, 64, 50
1, 139907, Control_c, 0, 64, 50
1, 139922, Control_c, 0, 64, 49
1, 139941, Note_on_c, 0, 74, 83
1, 139951, Note_on_c, 0, 62, 72
1, 139952, Control_c, 0, 64, 49
1, 139953, Note_off_c, 0, 76, 63
1, 139954, Note_on_c, 0, 66, 80
1, 139997, Control_c, 0, 64, 51
1, 140011, Control_c, 0, 64, 56
1, 140016, Note_off_c, 0, 74, 64
1, 140026, Control_c, 0, 64, 60
1, 140029, Note_on_c, 0, 69, 77
1, 140041, Control_c, 0, 64, 64
1, 140056, Control_c, 0, 64, 70
1, 140071, Control_c, 0, 64, 82
1, 140085, Control_c, 0, 64, 123
1, 140100, Control_c, 0, 64, 127
1, 140111, Note_on_c, 0, 74, 76
1, 140115, Note_off_c, 0, 69, 59
1, 140181, Note_off_c, 0, 74, 63
1, 140181, Note_on_c, 0, 78, 82
1, 140205, Note_off_c, 0, 66, 60
1, 140241, Note_off_c, 0, 62, 41
1, 140252, Note_on_c, 0, 81, 81
1, 140254, Note_off_c, 0, 78, 65
1, 140263, Control_c, 0, 64, 94
1, 140278, Control_c, 0, 64, 65
1, 140292, Control_c, 0, 64, 0
1, 140327, Note_off_c, 0, 81, 64
1, 140330, Note_on_c, 0, 78, 79
1, 140402, Note_on_c, 0, 57, 50
1, 140402, Note_on_c, 0, 79, 80
1, 140402, Note_off_c, 0, 78, 65
1, 140404, Note_on_c, 0, 64, 64
1, 140437, Note_on_c, 0, 61, 36
1, 140438, Note_off_c, 0, 64, 66
1, 140446, Note_off_c, 0, 57, 63
1, 140469, Note_off_c, 0, 61, 49
1, 140476, Note_on_c, 0, 76, 79
1, 140476, Note_off_c, 0, 79, 64
1, 140545, Note_on_c, 0, 74, 87
1, 140545, Control_c, 0, 64, 47
1, 140547, Note_on_c, 0, 62, 65
1, 140547, Note_on_c, 0, 66, 74
1, 140547, Note_off_c, 0, 76, 65
1, 140560, Control_c, 0, 64, 72
1, 140572, Note_off_c, 0, 66, 69
1, 140572, Note_off_c, 0, 74, 65
1, 140575, Control_c, 0, 64, 118
1, 140575, Note_off_c, 0, 62, 67
1, 140590, Control_c, 0, 64, 127
1, 140760, Control_c, 0, 64, 102
1, 140775, Control_c, 0, 64, 73
1, 140789, Control_c, 0, 64, 53
1, 140804, Control_c, 0, 64, 0
1, 140807, Note_on_c, 0, 76, 67
1, 140843, Note_on_c, 0, 79, 76
1, 140870, Note_on_c, 0, 85, 95
1, 140873, Note_off_c, 0, 76, 65
1, 140877, Note_on_c, 0, 58, 69
1, 140878, Note_on_c, 0, 46, 65
1, 140892, Note_off_c, 0, 79, 68
1, 140894, Control_c, 0, 64, 57
1, 140908, Control_c, 0, 64, 93
1, 140909, Note_off_c, 0, 85, 68
1, 140923, Control_c, 0, 64, 127
1, 141008, Note_off_c, 0, 58, 59
1, 141019, Note_off_c, 0, 46, 60
1, 141086, Control_c, 0, 64, 93
1, 141101, Control_c, 0, 64, 70
1, 141115, Control_c, 0, 64, 53
1, 141130, Control_c, 0, 64, 0
1, 141143, Note_on_c, 0, 74, 65
1, 141185, Note_on_c, 0, 78, 78
1, 141215, Note_off_c, 0, 74, 64
1, 141221, Note_on_c, 0, 59, 63
1, 141223, Note_on_c, 0, 86, 97
1, 141225, Note_on_c, 0, 47, 57
1, 141235, Control_c, 0, 64, 49
1, 141249, Note_off_c, 0, 78, 67
1, 141250, Control_c, 0, 64, 71
1, 141263, Note_off_c, 0, 86, 69
1, 141264, Control_c, 0, 64, 127
1, 141288, Note_off_c, 0, 59, 63
1, 141366, Note_off_c, 0, 47, 58
1, 141880, Control_c, 0, 64, 108
1, 141895, Control_c, 0, 64, 107
1, 141909, Control_c, 0, 64, 105
1, 141924, Control_c, 0, 64, 95
1, 141939, Control_c, 0, 64, 79
1, 141954, Control_c, 0, 64, 68
1, 141969, Control_c, 0, 64, 64
1, 142013, Control_c, 0, 64, 63
1, 142029, Control_c, 0, 64, 59
1, 142044, Control_c, 0, 64, 53
1, 142059, Control_c, 0, 64, 53
1, 142170, Control_c, 0, 64, 53
1, 142244, Control_c, 0, 64, 54
1, 142259, Control_c, 0, 64, 55
1, 142274, Control_c, 0, 64, 55
1, 142333, Control_c, 0, 64, 56
1, 142348, Control_c, 0, 64, 56
1, 142362, Control_c, 0, 64, 57
1, 142377, Control_c, 0, 64, 57
1, 142396, Note_on_c, 0, 79, 55
1, 142399, Note_on_c, 0, 71, 50
1, 142412, Note_on_c, 0, 43, 34
1, 142416, Note_on_c, 0, 55, 33
1, 142590, Note_off_c, 0, 79, 63
1, 142593, Note_on_c, 0, 69, 50
1, 142594, Note_on_c, 0, 78, 63
1, 142615, Note_off_c, 0, 71, 63
1, 142633, Note_off_c, 0, 69, 62
1, 142646, Note_off_c, 0, 78, 60
1, 142739, Note_on_c, 0, 78, 66
1, 142745, Note_on_c, 0, 69, 41
1, 142786, Note_off_c, 0, 69, 48
1, 142792, Control_c, 0, 64, 58
1, 142806, Control_c, 0, 64, 59
1, 142821, Control_c, 0, 64, 61
1, 142837, Control_c, 0, 64, 62
1, 142852, Control_c, 0, 64, 65
1, 142867, Control_c, 0, 64, 70
1, 142889, Control_c, 0, 64, 75
1, 142904, Control_c, 0, 64, 82
1, 142906, Note_on_c, 0, 76, 65
1, 142918, Note_off_c, 0, 43, 38
1, 142918, Control_c, 0, 64, 88
1, 142922, Note_on_c, 0, 67, 48
1, 142924, Note_off_c, 0, 55, 41
1, 142933, Control_c, 0, 64, 88
1, 142948, Note_off_c, 0, 67, 54
1, 142948, Control_c, 0, 64, 85
1, 142953, Note_off_c, 0, 76, 60
1, 142961, Note_off_c, 0, 78, 61
1, 142963, Control_c, 0, 64, 80
1, 142977, Control_c, 0, 64, 76
1, 142992, Control_c, 0, 64, 75
1, 143022, Control_c, 0, 64, 73
1, 143037, Control_c, 0, 64, 68
1, 143052, Control_c, 0, 64, 57
1, 143066, Note_on_c, 0, 76, 64
1, 143067, Control_c, 0, 64, 52
1, 143072, Note_on_c, 0, 45, 36
1, 143073, Note_on_c, 0, 67, 38
1, 143076, Note_on_c, 0, 57, 42
1, 143082, Control_c, 0, 64, 53
1, 143097, Control_c, 0, 64, 53
1, 143109, Note_off_c, 0, 67, 61
1, 143141, Control_c, 0, 64, 50
1, 143155, Control_c, 0, 64, 50
1, 143185, Control_c, 0, 64, 50
1, 143200, Control_c, 0, 64, 51
1, 143223, Note_on_c, 0, 74, 60
1, 143250, Note_on_c, 0, 66, 35
1, 143259, Control_c, 0, 64, 52
1, 143261, Note_off_c, 0, 76, 63
1, 143274, Control_c, 0, 64, 53
1, 143284, Note_off_c, 0, 66, 52
1, 143289, Control_c, 0, 64, 54
1, 143290, Note_off_c, 0, 74, 62
1, 143302, Control_c, 0, 64, 54
1, 143347, Control_c, 0, 64, 55
1, 143349, Note_off_c, 0, 57, 60
1, 143362, Control_c, 0, 64, 57
1, 143376, Note_on_c, 0, 66, 57
1, 143377, Control_c, 0, 64, 58
1, 143385, Note_on_c, 0, 74, 59
1, 143426, Note_off_c, 0, 66, 59
1, 143496, Control_c, 0, 64, 57
1, 143535, Note_on_c, 0, 73, 58
1, 143540, Note_on_c, 0, 64, 51
1, 143574, Note_off_c, 0, 74, 59
1, 143580, Note_off_c, 0, 64, 57
1, 143585, Note_off_c, 0, 73, 57
1, 143666, Control_c, 0, 64, 57
1, 143681, Control_c, 0, 64, 56
1, 143731, Note_on_c, 0, 50, 44
1, 143734, Note_on_c, 0, 73, 55
1, 143738, Note_on_c, 0, 67, 48
1, 143744, Note_on_c, 0, 64, 44
1, 143785, Note_off_c, 0, 45, 39
1, 143902, Note_off_c, 0, 50, 61
1, 143992, Control_c, 0, 64, 57
1, 144110, Note_on_c, 0, 45, 43
1, 144188, Note_off_c, 0, 67, 62
1, 144200, Control_c, 0, 64, 57
1, 144259, Control_c, 0, 64, 58
1, 144274, Control_c, 0, 64, 58
1, 144283, Note_off_c, 0, 45, 63
1, 144363, Control_c, 0, 64, 59
1, 144587, Note_on_c, 0, 74, 48
1, 144600, Note_on_c, 0, 66, 25
1, 144611, Note_on_c, 0, 38, 29
1, 144654, Note_off_c, 0, 64, 39
1, 144661, Note_off_c, 0, 73, 33
1, 144756, Control_c, 0, 64, 59
1, 144771, Control_c, 0, 64, 60
1, 144786, Control_c, 0, 64, 62
1, 144800, Control_c, 0, 64, 65
1, 144815, Control_c, 0, 64, 69
1, 144830, Control_c, 0, 64, 75
1, 144845, Control_c, 0, 64, 84
1, 144860, Control_c, 0, 64, 99
1, 144874, Control_c, 0, 64, 127
1, 144895, Note_off_c, 0, 74, 55
1, 144940, Note_off_c, 0, 66, 39
1, 144972, Note_off_c, 0, 38, 39
1, 145222, Control_c, 0, 64, 107
1, 145238, Control_c, 0, 64, 95
1, 145253, Control_c, 0, 64, 94
1, 145268, Control_c, 0, 64, 95
1, 145283, Control_c, 0, 64, 94
1, 145298, Control_c, 0, 64, 89
1, 145312, Control_c, 0, 64, 79
1, 145327, Control_c, 0, 64, 72
1, 145342, Control_c, 0, 64, 70
1, 145371, Control_c, 0, 64, 69
1, 145386, Control_c, 0, 64, 64
1, 145401, Control_c, 0, 64, 55
1, 145416, Control_c, 0, 64, 54
1, 145431, Control_c, 0, 64, 56
1, 145475, Control_c, 0, 64, 55
1, 145505, Control_c, 0, 64, 57
1, 145520, Control_c, 0, 64, 59
1, 145535, Control_c, 0, 64, 59
1, 145549, Control_c, 0, 64, 60
1, 145564, Control_c, 0, 64, 59
1, 145579, Control_c, 0, 64, 59
1, 145609, Control_c, 0, 64, 59
1, 145668, Control_c, 0, 64, 59
1, 145697, Control_c, 0, 64, 59
1, 145971, Control_c, 0, 64, 60
1, 146150, Control_c, 0, 64, 60
1, 146179, Control_c, 0, 64, 60
1, 146521, Control_c, 0, 64, 59
1, 146795, Control_c, 0, 64, 59
1, 147196, Control_c, 0, 64, 59
1, 147225, Control_c, 0, 64, 60
1, 147485, Control_c, 0, 64, 59
1, 147663, Control_c, 0, 64, 60
1, 147708, Control_c, 0, 64, 60
1, 147723, Control_c, 0, 64, 61
1, 147738, Control_c, 0, 64, 62
1, 147929, Control_c, 0, 64, 61
1, 148003, Control_c, 0, 64, 61
1, 148033, Control_c, 0, 64, 61
1, 148048, Control_c, 0, 64, 62
1, 148144, Control_c, 0, 64, 61
1, 148174, Control_c, 0, 64, 60
1, 148188, Control_c, 0, 64, 59
1, 148203, Control_c, 0, 64, 58
1, 148263, Control_c, 0, 64, 58
1, 148278, Control_c, 0, 64, 57
1, 148292, Control_c, 0, 64, 55
1, 148307, Control_c, 0, 64, 54
1, 148381, Control_c, 0, 64, 54
1, 148396, Control_c, 0, 64, 52
1, 148411, Control_c, 0, 64, 51
1, 148427, Control_c, 0, 64, 50
1, 148441, Control_c, 0, 64, 46
1, 148456, Control_c, 0, 64, 40
1, 148471, Control_c, 0, 64, 32
1, 148486, Control_c, 0, 64, 0
1, 148561, End_track
0, 0, End_of_file
