0, 0, Header, 0, 1, 384
1, 0, Start_track
1, 0, Title_t, "Sonata Op. 31/3--Hao Tian Tim Zhang"
1, 0, Text_t, "2008 e-Piano Junior Competition virtual audition round"
1, 0, Text_t, "recorded January and February 2008"
1, 0, Text_t, "http://www.piano-e-competition.com/"
1, 0, Text_t, "File processed for distribution by software from Zenph Studios, Inc., http://www.zenph.com"
1, 0, Instrument_name_t, "Yamaha Disklavier Pro Mark IV concert grand piano, model DCFIIISM4PRO"
1, 0, Sequencer_specific, 39, 67, 113, 0, 1, 0, 1, 0, 83, 111, 110, 97, 116, 97, 32, 79, 112, 46, 32, 51, 49, 47, 51, 32, 72, 97, 111, 84, 105, 97, 110, 84, 105, 109, 32, 90, 104, 97, 110, 103
1, 0, Sequencer_specific, 6, 67, 113, 0, 0, 0, 69
1, 0, System_exclusive, 21, 67, 113, 126, 21, 0, 2, 2, 0, 0, 8, 1, 4, 7, 9, 14, 7, 12, 12, 4, 7, 247
1, 0, Sequencer_specific, 5, 67, 123, 12, 2, 1
1, 0, Tempo, 512820
1, 0, Time_signature, 4, 2, 24, 8
1, 0, System_exclusive, 5, 126, 127, 9, 1, 247
1, 1, System_exclusive, 8, 67, 16, 76, 0, 0, 126, 0, 247
1, 2, System_exclusive, 8, 67, 16, 76, 8, 9, 7, 1, 247
1, 3, Control_c, 0, 0, 0
1, 3, Control_c, 1, 0, 0
1, 3, Control_c, 2, 0, 0
1, 3, Control_c, 3, 0, 0
1, 3, Control_c, 4, 0, 0
1, 3, Control_c, 5, 0, 0
1, 3, Control_c, 6, 0, 0
1, 3, Control_c, 7, 0, 0
1, 3, Control_c, 8, 0, 0
1, 3, Control_c, 9, 0, 127
1, 3, Control_c, 10, 0, 0
1, 3, Control_c, 11, 0, 0
1, 3, Control_c, 12, 0, 0
1, 3, Control_c, 13, 0, 0
1, 3, Control_c, 14, 0, 0
1, 3, Control_c, 15, 0, 0
1, 4, Control_c, 0, 32, 0
1, 4, Control_c, 1, 32, 0
1, 4, Control_c, 2, 32, 0
1, 4, Control_c, 3, 32, 0
1, 4, Control_c, 4, 32, 0
1, 4, Control_c, 5, 32, 0
1, 4, Control_c, 6, 32, 0
1, 4, Control_c, 7, 32, 0
1, 4, Control_c, 8, 32, 0
1, 4, Control_c, 9, 32, 0
1, 4, Control_c, 10, 32, 0
1, 4, Control_c, 11, 32, 0
1, 4, Control_c, 12, 32, 0
1, 4, Control_c, 13, 32, 0
1, 4, Control_c, 14, 32, 0
1, 4, Control_c, 15, 32, 0
1, 5, Program_c, 0, 0
1, 5, Program_c, 1, 0
1, 5, Program_c, 2, 0
1, 5, Program_c, 3, 0
1, 5, Program_c, 4, 0
1, 5, Program_c, 5, 0
1, 5, Program_c, 6, 0
1, 5, Program_c, 7, 0
1, 5, Program_c, 8, 0
1, 5, Program_c, 9, 0
1, 5, Program_c, 10, 0
1, 5, Program_c, 11, 0
1, 5, Program_c, 12, 0
1, 5, Program_c, 13, 0
1, 5, Program_c, 14, 0
1, 5, Program_c, 15, 0
1, 6, Control_c, 0, 7, 100
1, 117, Control_c, 0, 64, 7
1, 229, Control_c, 0, 64, 14
1, 341, Control_c, 0, 64, 21
1, 452, Control_c, 0, 64, 29
1, 564, Control_c, 0, 64, 35
1, 676, Control_c, 0, 64, 43
1, 787, Control_c, 0, 64, 49
1, 899, Control_c, 0, 64, 59
1, 899, Control_c, 1, 7, 100
1, 899, Control_c, 2, 7, 100
1, 899, Control_c, 3, 7, 100
1, 899, Control_c, 4, 7, 100
1, 899, Control_c, 5, 7, 100
1, 899, Control_c, 6, 7, 100
1, 899, Control_c, 7, 7, 100
1, 899, Control_c, 8, 7, 100
1, 899, Control_c, 9, 7, 100
1, 899, Control_c, 10, 7, 100
1, 899, Control_c, 11, 7, 100
1, 899, Control_c, 12, 7, 100
1, 899, Control_c, 13, 7, 100
1, 899, Control_c, 14, 7, 100
1, 899, Control_c, 15, 7, 100
1, 1131, Note_on_c, 0, 72, 57
1, 1132, Control_c, 0, 64, 63
1, 1147, Control_c, 0, 64, 69
1, 1155, Note_on_c, 0, 53, 33
1, 1155, Note_on_c, 0, 63, 41
1, 1159, Note_on_c, 0, 60, 24
1, 1162, Control_c, 0, 64, 83
1, 1162, Note_on_c, 0, 51, 34
1, 1162, Note_on_c, 0, 56, 26
1, 1174, Note_on_c, 0, 44, 44
1, 1177, Control_c, 0, 64, 127
1, 1452, Note_on_c, 0, 65, 56
1, 1480, Note_off_c, 0, 65, 62
1, 1535, Note_off_c, 0, 63, 0
1, 1550, Note_on_c, 0, 65, 66
1, 1572, Poly_aftertouch_c, 0, 63, 127
1, 1594, Note_off_c, 0, 60, 39
1, 1617, Poly_aftertouch_c, 0, 63, 0
1, 1642, Note_off_c, 0, 65, 58
1, 1729, Note_off_c, 0, 56, 35
1, 1732, Note_off_c, 0, 72, 30
1, 1746, Note_off_c, 0, 44, 36
1, 1746, Note_off_c, 0, 51, 44
1, 1750, Note_off_c, 0, 53, 35
1, 1881, Control_c, 0, 64, 103
1, 1896, Control_c, 0, 64, 85
1, 1910, Control_c, 0, 64, 72
1, 1925, Control_c, 0, 64, 62
1, 1940, Control_c, 0, 64, 55
1, 1955, Control_c, 0, 64, 51
1, 2044, Control_c, 0, 64, 51
1, 2251, Control_c, 0, 64, 51
1, 2266, Control_c, 0, 64, 52
1, 2280, Control_c, 0, 64, 52
1, 2295, Control_c, 0, 64, 53
1, 2310, Control_c, 0, 64, 53
1, 2325, Control_c, 0, 64, 54
1, 2355, Control_c, 0, 64, 55
1, 2369, Control_c, 0, 64, 55
1, 2384, Control_c, 0, 64, 56
1, 2399, Control_c, 0, 64, 57
1, 2414, Control_c, 0, 64, 58
1, 2421, Note_on_c, 0, 72, 55
1, 2426, Note_on_c, 0, 63, 49
1, 2429, Control_c, 0, 64, 61
1, 2431, Note_on_c, 0, 51, 26
1, 2434, Note_on_c, 0, 44, 31
1, 2435, Note_on_c, 0, 56, 22
1, 2436, Note_on_c, 0, 53, 25
1, 2438, Note_on_c, 0, 60, 28
1, 2444, Control_c, 0, 64, 64
1, 2467, Control_c, 0, 64, 73
1, 2482, Control_c, 0, 64, 88
1, 2497, Control_c, 0, 64, 127
1, 2739, Note_on_c, 0, 65, 54
1, 2763, Note_off_c, 0, 65, 61
1, 2849, Note_on_c, 0, 65, 54
1, 2872, Note_off_c, 0, 60, 39
1, 2946, Note_off_c, 0, 63, 40
1, 2981, Note_off_c, 0, 65, 35
1, 3019, Note_off_c, 0, 56, 49
1, 3021, Poly_aftertouch_c, 0, 69, 127
1, 3044, Note_off_c, 0, 72, 38
1, 3081, Note_off_c, 0, 53, 34
1, 3109, Poly_aftertouch_c, 0, 69, 0
1, 3115, Note_off_c, 0, 51, 34
1, 3137, Note_off_c, 0, 44, 39
1, 3214, Control_c, 0, 64, 118
1, 3230, Control_c, 0, 64, 95
1, 3245, Control_c, 0, 64, 80
1, 3259, Control_c, 0, 64, 67
1, 3274, Control_c, 0, 64, 59
1, 3289, Control_c, 0, 64, 54
1, 3482, Control_c, 0, 64, 54
1, 3601, Control_c, 0, 64, 55
1, 3616, Control_c, 0, 64, 56
1, 3630, Control_c, 0, 64, 57
1, 3645, Control_c, 0, 64, 59
1, 3660, Control_c, 0, 64, 60
1, 3675, Control_c, 0, 64, 63
1, 3687, Note_on_c, 0, 60, 30
1, 3690, Control_c, 0, 64, 67
1, 3692, Note_on_c, 0, 63, 36
1, 3694, Note_on_c, 0, 65, 40
1, 3702, Note_on_c, 0, 39, 30
1, 3703, Note_on_c, 0, 32, 34
1, 3705, Control_c, 0, 64, 77
1, 3720, Control_c, 0, 64, 94
1, 3734, Control_c, 0, 64, 127
1, 3836, Note_off_c, 0, 63, 48
1, 3844, Note_off_c, 0, 65, 48
1, 3845, Note_off_c, 0, 32, 36
1, 3846, Note_off_c, 0, 39, 37
1, 3866, Note_off_c, 0, 60, 38
1, 4054, Control_c, 0, 64, 123
1, 4069, Control_c, 0, 64, 92
1, 4083, Control_c, 0, 64, 77
1, 4088, Note_on_c, 0, 60, 34
1, 4088, Note_on_c, 0, 63, 50
1, 4094, Note_on_c, 0, 39, 37
1, 4095, Note_on_c, 0, 65, 53
1, 4098, Control_c, 0, 64, 67
1, 4102, Note_on_c, 0, 32, 32
1, 4113, Control_c, 0, 64, 65
1, 4128, Control_c, 0, 64, 65
1, 4143, Control_c, 0, 64, 70
1, 4157, Control_c, 0, 64, 82
1, 4172, Control_c, 0, 64, 115
1, 4187, Control_c, 0, 64, 127
1, 4228, Note_off_c, 0, 39, 52
1, 4246, Note_off_c, 0, 32, 38
1, 4280, Note_off_c, 0, 60, 32
1, 4281, Note_off_c, 0, 63, 36
1, 4288, Note_off_c, 0, 65, 36
1, 4483, Control_c, 0, 64, 98
1, 4487, Note_on_c, 0, 63, 58
1, 4490, Note_on_c, 0, 39, 52
1, 4490, Note_on_c, 0, 60, 55
1, 4493, Note_on_c, 0, 32, 46
1, 4498, Note_on_c, 0, 65, 68
1, 4498, Control_c, 0, 64, 77
1, 4513, Control_c, 0, 64, 67
1, 4527, Control_c, 0, 64, 65
1, 4542, Control_c, 0, 64, 65
1, 4557, Control_c, 0, 64, 71
1, 4572, Control_c, 0, 64, 85
1, 4587, Control_c, 0, 64, 127
1, 4637, Note_off_c, 0, 32, 34
1, 4646, Note_off_c, 0, 39, 51
1, 4669, Note_off_c, 0, 60, 34
1, 4675, Note_off_c, 0, 63, 35
1, 4718, Note_off_c, 0, 65, 51
1, 4921, Control_c, 0, 64, 111
1, 4936, Control_c, 0, 64, 84
1, 4939, Note_on_c, 0, 39, 43
1, 4942, Note_on_c, 0, 66, 64
1, 4942, Note_on_c, 0, 63, 59
1, 4947, Note_on_c, 0, 60, 52
1, 4950, Control_c, 0, 64, 67
1, 4954, Note_on_c, 0, 33, 41
1, 4965, Control_c, 0, 64, 53
1, 4980, Control_c, 0, 64, 49
1, 4995, Control_c, 0, 64, 46
1, 5010, Control_c, 0, 64, 46
1, 5054, Control_c, 0, 64, 45
1, 5098, Control_c, 0, 64, 46
1, 5113, Control_c, 0, 64, 52
1, 5128, Control_c, 0, 64, 60
1, 5143, Control_c, 0, 64, 67
1, 5157, Control_c, 0, 64, 75
1, 5172, Control_c, 0, 64, 89
1, 5187, Control_c, 0, 64, 127
1, 5405, Note_off_c, 0, 60, 40
1, 5461, Note_off_c, 0, 63, 40
1, 5462, Note_off_c, 0, 33, 31
1, 5470, Note_off_c, 0, 66, 38
1, 5476, Note_off_c, 0, 39, 27
1, 6173, Control_c, 0, 64, 115
1, 6183, Note_on_c, 0, 63, 60
1, 6187, Note_on_c, 0, 66, 70
1, 6188, Note_on_c, 0, 54, 50
1, 6188, Control_c, 0, 64, 81
1, 6189, Note_on_c, 0, 60, 56
1, 6191, Note_on_c, 0, 45, 47
1, 6201, Note_on_c, 0, 51, 46
1, 6210, Control_c, 0, 64, 63
1, 6225, Control_c, 0, 64, 49
1, 6240, Control_c, 0, 64, 42
1, 6269, Control_c, 0, 64, 47
1, 6284, Control_c, 0, 64, 58
1, 6298, Control_c, 0, 64, 67
1, 6313, Control_c, 0, 64, 79
1, 6328, Control_c, 0, 64, 103
1, 6343, Control_c, 0, 64, 127
1, 6369, Note_off_c, 0, 60, 51
1, 6382, Note_off_c, 0, 54, 56
1, 6389, Note_off_c, 0, 45, 36
1, 6392, Note_off_c, 0, 51, 55
1, 6409, Note_off_c, 0, 63, 54
1, 6418, Note_off_c, 0, 66, 54
1, 6695, Note_on_c, 0, 45, 53
1, 6700, Control_c, 0, 64, 86
1, 6701, Note_on_c, 0, 51, 56
1, 6701, Note_on_c, 0, 54, 65
1, 6701, Note_on_c, 0, 63, 76
1, 6701, Note_on_c, 0, 66, 83
1, 6707, Note_on_c, 0, 60, 75
1, 6715, Control_c, 0, 64, 64
1, 6729, Control_c, 0, 64, 45
1, 6744, Control_c, 0, 64, 35
1, 6759, Control_c, 0, 64, 40
1, 6774, Control_c, 0, 64, 55
1, 6789, Control_c, 0, 64, 70
1, 6803, Control_c, 0, 64, 88
1, 6818, Control_c, 0, 64, 127
1, 6871, Note_off_c, 0, 60, 55
1, 6872, Note_off_c, 0, 45, 50
1, 6884, Note_off_c, 0, 54, 54
1, 6905, Note_off_c, 0, 51, 47
1, 6918, Note_off_c, 0, 63, 55
1, 6925, Note_off_c, 0, 66, 57
1, 7261, Note_on_c, 0, 45, 63
1, 7265, Note_on_c, 0, 54, 75
1, 7266, Note_on_c, 0, 51, 65
1, 7268, Note_on_c, 0, 66, 89
1, 7270, Note_on_c, 0, 63, 87
1, 7271, Note_on_c, 0, 60, 86
1, 7286, Control_c, 0, 64, 77
1, 7300, Control_c, 0, 64, 56
1, 7315, Control_c, 0, 64, 26
1, 7345, Control_c, 0, 64, 29
1, 7360, Control_c, 0, 64, 53
1, 7374, Control_c, 0, 64, 71
1, 7389, Control_c, 0, 64, 89
1, 7404, Control_c, 0, 64, 127
1, 7434, Note_off_c, 0, 60, 54
1, 7460, Note_off_c, 0, 45, 47
1, 7506, Note_off_c, 0, 54, 36
1, 7523, Note_off_c, 0, 63, 57
1, 7562, Note_off_c, 0, 51, 40
1, 7581, Note_off_c, 0, 66, 30
1, 8064, Control_c, 0, 64, 92
1, 8065, Note_on_c, 0, 67, 79
1, 8068, Note_on_c, 0, 63, 85
1, 8070, Note_on_c, 0, 58, 79
1, 8075, Note_on_c, 0, 55, 68
1, 8076, Note_on_c, 0, 51, 70
1, 8079, Note_on_c, 0, 46, 67
1, 8079, Control_c, 0, 64, 62
1, 8094, Control_c, 0, 64, 30
1, 8109, Control_c, 0, 64, 0
1, 8257, Control_c, 0, 64, 44
1, 8272, Control_c, 0, 64, 60
1, 8287, Control_c, 0, 64, 67
1, 8301, Control_c, 0, 64, 74
1, 8316, Control_c, 0, 64, 85
1, 8331, Control_c, 0, 64, 112
1, 8346, Control_c, 0, 64, 127
1, 9661, Note_off_c, 0, 55, 34
1, 9674, Note_off_c, 0, 58, 34
1, 9697, Note_off_c, 0, 63, 40
1, 9735, Note_off_c, 0, 67, 30
1, 9744, Note_off_c, 0, 51, 29
1, 9810, Note_off_c, 0, 46, 35
1, 9984, Control_c, 0, 64, 95
1, 9999, Control_c, 0, 64, 73
1, 10014, Control_c, 0, 64, 59
1, 10028, Control_c, 0, 64, 45
1, 10043, Control_c, 0, 64, 39
1, 10059, Control_c, 0, 64, 39
1, 10439, Note_on_c, 0, 67, 48
1, 10446, Note_on_c, 0, 34, 36
1, 10449, Note_on_c, 0, 62, 46
1, 10451, Note_on_c, 0, 46, 33
1, 10456, Note_on_c, 0, 56, 32
1, 10502, Note_off_c, 0, 34, 55
1, 10520, Note_off_c, 0, 46, 52
1, 10568, Note_off_c, 0, 67, 57
1, 10578, Note_on_c, 0, 65, 59
1, 10605, Note_off_c, 0, 56, 47
1, 10606, Note_off_c, 0, 62, 55
1, 10625, Note_off_c, 0, 65, 54
1, 10743, Note_on_c, 0, 65, 65
1, 10753, Note_on_c, 0, 46, 42
1, 10754, Note_on_c, 0, 56, 41
1, 10757, Note_on_c, 0, 34, 43
1, 10782, Note_off_c, 0, 46, 55
1, 10784, Note_off_c, 0, 56, 58
1, 10791, Note_off_c, 0, 34, 50
1, 10807, Note_off_c, 0, 65, 60
1, 10825, Note_on_c, 0, 67, 54
1, 10874, Note_off_c, 0, 67, 58
1, 10877, Note_on_c, 0, 65, 53
1, 10956, Note_off_c, 0, 65, 60
1, 10960, Note_on_c, 0, 64, 59
1, 11019, Note_on_c, 0, 34, 55
1, 11027, Note_on_c, 0, 46, 51
1, 11036, Note_on_c, 0, 56, 44
1, 11040, Note_off_c, 0, 64, 58
1, 11044, Note_on_c, 0, 65, 65
1, 11053, Note_off_c, 0, 34, 64
1, 11059, Note_off_c, 0, 46, 61
1, 11136, Note_off_c, 0, 56, 35
1, 11194, Note_on_c, 0, 67, 63
1, 11204, Note_off_c, 0, 65, 40
1, 11227, Note_off_c, 0, 67, 60
1, 11352, Note_on_c, 0, 51, 43
1, 11359, Note_on_c, 0, 63, 55
1, 11361, Note_on_c, 0, 39, 36
1, 11378, Note_on_c, 0, 55, 40
1, 11426, Note_off_c, 0, 63, 58
1, 11431, Note_off_c, 0, 55, 42
1, 11448, Note_on_c, 0, 65, 60
1, 11520, Note_on_c, 0, 63, 57
1, 11521, Note_off_c, 0, 65, 56
1, 11602, Note_off_c, 0, 63, 59
1, 11607, Note_off_c, 0, 51, 41
1, 11608, Note_on_c, 0, 62, 65
1, 11622, Note_off_c, 0, 39, 40
1, 11713, Note_off_c, 0, 62, 56
1, 11721, Note_on_c, 0, 63, 65
1, 11750, Note_off_c, 0, 63, 65
1, 11816, Note_on_c, 0, 65, 63
1, 11846, Note_off_c, 0, 65, 62
1, 11917, Note_on_c, 0, 67, 62
1, 11948, Note_off_c, 0, 67, 63
1, 12002, Note_on_c, 0, 68, 60
1, 12037, Note_off_c, 0, 68, 59
1, 12089, Note_on_c, 0, 70, 71
1, 12128, Note_off_c, 0, 70, 61
1, 12195, Note_on_c, 0, 72, 74
1, 12241, Note_off_c, 0, 72, 61
1, 12287, Note_on_c, 0, 74, 77
1, 12327, Note_off_c, 0, 74, 60
1, 12379, Note_on_c, 0, 75, 74
1, 12418, Note_off_c, 0, 75, 60
1, 12470, Note_on_c, 0, 77, 76
1, 12509, Note_off_c, 0, 77, 60
1, 12564, Note_on_c, 0, 78, 80
1, 12624, Note_off_c, 0, 78, 58
1, 12654, Note_on_c, 0, 79, 89
1, 12705, Note_off_c, 0, 79, 64
1, 12755, Note_on_c, 0, 80, 85
1, 12825, Note_off_c, 0, 80, 50
1, 12842, Note_on_c, 0, 81, 89
1, 12893, Note_off_c, 0, 81, 63
1, 12949, Note_on_c, 0, 82, 85
1, 13037, Note_on_c, 0, 83, 92
1, 13040, Note_off_c, 0, 82, 62
1, 13088, Note_off_c, 0, 83, 63
1, 13157, Control_c, 0, 64, 39
1, 13229, Note_on_c, 0, 84, 78
1, 13242, Note_on_c, 0, 72, 42
1, 13242, Note_on_c, 0, 75, 51
1, 13256, Note_on_c, 0, 68, 38
1, 13468, Note_on_c, 0, 77, 68
1, 13497, Note_off_c, 0, 77, 58
1, 13560, Note_on_c, 0, 77, 59
1, 13825, Note_off_c, 0, 84, 51
1, 13831, Control_c, 0, 64, 40
1, 13874, Note_off_c, 0, 75, 56
1, 13899, Note_off_c, 0, 72, 59
1, 13904, Note_off_c, 0, 77, 61
1, 13918, Note_off_c, 0, 68, 56
1, 14068, Control_c, 0, 67, 22
1, 14083, Control_c, 0, 67, 29
1, 14098, Control_c, 0, 67, 35
1, 14112, Control_c, 0, 67, 42
1, 14127, Control_c, 0, 67, 48
1, 14142, Control_c, 0, 67, 51
1, 14157, Control_c, 0, 67, 53
1, 14172, Control_c, 0, 67, 53
1, 14186, Control_c, 0, 67, 54
1, 14201, Control_c, 0, 67, 55
1, 14216, Control_c, 0, 67, 57
1, 14231, Control_c, 0, 67, 59
1, 14238, Note_on_c, 0, 71, 42
1, 14245, Control_c, 0, 67, 61
1, 14260, Control_c, 0, 67, 63
1, 14275, Control_c, 0, 67, 64
1, 14317, Note_off_c, 0, 71, 60
1, 14324, Note_on_c, 0, 72, 60
1, 14325, Note_on_c, 0, 60, 38
1, 14326, Note_on_c, 0, 63, 36
1, 14334, Note_on_c, 0, 56, 30
1, 14350, Control_c, 0, 67, 64
1, 14573, Note_on_c, 0, 65, 58
1, 14580, Control_c, 0, 64, 40
1, 14580, Control_c, 0, 67, 64
1, 14595, Control_c, 0, 67, 63
1, 14602, Note_off_c, 0, 65, 65
1, 14609, Control_c, 0, 67, 63
1, 14624, Control_c, 0, 67, 62
1, 14639, Control_c, 0, 67, 62
1, 14654, Control_c, 0, 67, 61
1, 14657, Note_on_c, 0, 65, 44
1, 14669, Control_c, 0, 67, 60
1, 14684, Control_c, 0, 67, 59
1, 14699, Control_c, 0, 67, 58
1, 14713, Control_c, 0, 67, 58
1, 14728, Control_c, 0, 67, 57
1, 14743, Control_c, 0, 67, 57
1, 14758, Control_c, 0, 67, 56
1, 14773, Control_c, 0, 67, 55
1, 14788, Control_c, 0, 67, 55
1, 14803, Control_c, 0, 67, 54
1, 14817, Control_c, 0, 67, 54
1, 14832, Control_c, 0, 67, 53
1, 14856, Note_off_c, 0, 72, 41
1, 14861, Control_c, 0, 67, 53
1, 14876, Control_c, 0, 67, 52
1, 14880, Note_off_c, 0, 63, 44
1, 14891, Control_c, 0, 67, 52
1, 14953, Note_off_c, 0, 60, 52
1, 14965, Control_c, 0, 64, 41
1, 14965, Control_c, 0, 67, 51
1, 14979, Control_c, 0, 67, 51
1, 14988, Note_off_c, 0, 65, 61
1, 14994, Control_c, 0, 67, 49
1, 15000, Note_off_c, 0, 56, 60
1, 15009, Control_c, 0, 67, 46
1, 15024, Control_c, 0, 67, 43
1, 15039, Control_c, 0, 67, 40
1, 15053, Control_c, 0, 67, 38
1, 15068, Control_c, 0, 67, 36
1, 15083, Control_c, 0, 67, 32
1, 15098, Control_c, 0, 67, 28
1, 15113, Control_c, 0, 67, 26
1, 15128, Control_c, 0, 67, 24
1, 15143, Control_c, 0, 67, 24
1, 15158, Control_c, 0, 67, 23
1, 15172, Control_c, 0, 67, 22
1, 15194, Control_c, 0, 64, 41
1, 15194, Control_c, 0, 67, 21
1, 15211, Control_c, 0, 64, 42
1, 15211, Control_c, 0, 67, 21
1, 15226, Control_c, 0, 64, 44
1, 15226, Control_c, 0, 67, 20
1, 15240, Control_c, 0, 64, 46
1, 15255, Control_c, 0, 64, 49
1, 15270, Control_c, 0, 64, 51
1, 15284, Control_c, 0, 64, 52
1, 15299, Control_c, 0, 64, 53
1, 15314, Control_c, 0, 64, 54
1, 15329, Control_c, 0, 64, 54
1, 15344, Control_c, 0, 64, 55
1, 15358, Control_c, 0, 64, 56
1, 15373, Control_c, 0, 64, 57
1, 15373, Control_c, 0, 67, 20
1, 15388, Control_c, 0, 64, 59
1, 15388, Control_c, 0, 67, 19
1, 15403, Control_c, 0, 64, 61
1, 15403, Control_c, 0, 67, 18
1, 15417, Control_c, 0, 64, 62
1, 15432, Control_c, 0, 64, 63
1, 15432, Control_c, 0, 67, 18
1, 15447, Control_c, 0, 64, 64
1, 15453, Note_on_c, 0, 32, 34
1, 15453, Note_on_c, 0, 53, 41
1, 15459, Note_on_c, 0, 51, 26
1, 15462, Note_on_c, 0, 44, 32
1, 15462, Control_c, 0, 64, 66
1, 15470, Note_on_c, 0, 48, 13
1, 15477, Control_c, 0, 64, 69
1, 15491, Control_c, 0, 64, 73
1, 15506, Control_c, 0, 64, 79
1, 15506, Control_c, 0, 67, 17
1, 15521, Control_c, 0, 64, 88
1, 15521, Control_c, 0, 67, 17
1, 15536, Control_c, 0, 64, 107
1, 15551, Control_c, 0, 64, 127
1, 15551, Control_c, 0, 67, 16
1, 15566, Control_c, 0, 67, 16
1, 15601, Note_off_c, 0, 32, 43
1, 15613, Note_off_c, 0, 44, 42
1, 15655, Control_c, 0, 67, 0
1, 15659, Note_off_c, 0, 51, 50
1, 15661, Note_off_c, 0, 48, 40
1, 15664, Note_off_c, 0, 53, 46
1, 15854, Note_on_c, 0, 44, 45
1, 15856, Note_on_c, 0, 32, 42
1, 15862, Control_c, 0, 64, 96
1, 15864, Note_on_c, 0, 53, 55
1, 15864, Note_on_c, 0, 51, 44
1, 15871, Note_on_c, 0, 48, 43
1, 15876, Control_c, 0, 64, 77
1, 15891, Control_c, 0, 64, 68
1, 15906, Control_c, 0, 64, 66
1, 15921, Control_c, 0, 64, 67
1, 15944, Control_c, 0, 64, 75
1, 15958, Control_c, 0, 64, 93
1, 15973, Control_c, 0, 64, 127
1, 16012, Note_off_c, 0, 32, 34
1, 16017, Note_off_c, 0, 44, 35
1, 16101, Note_off_c, 0, 48, 31
1, 16108, Note_off_c, 0, 53, 35
1, 16128, Note_off_c, 0, 51, 35
1, 16266, Note_on_c, 0, 44, 46
1, 16268, Note_on_c, 0, 32, 40
1, 16270, Note_on_c, 0, 53, 62
1, 16270, Control_c, 0, 64, 89
1, 16271, Note_on_c, 0, 51, 52
1, 16281, Note_on_c, 0, 48, 48
1, 16285, Control_c, 0, 64, 71
1, 16300, Control_c, 0, 64, 63
1, 16314, Control_c, 0, 64, 62
1, 16329, Control_c, 0, 64, 65
1, 16344, Control_c, 0, 64, 73
1, 16359, Control_c, 0, 64, 90
1, 16374, Control_c, 0, 64, 127
1, 16447, Note_off_c, 0, 44, 35
1, 16456, Note_off_c, 0, 32, 30
1, 16460, Note_off_c, 0, 48, 39
1, 16477, Note_off_c, 0, 51, 35
1, 16734, Note_on_c, 0, 51, 33
1, 16736, Note_on_c, 0, 54, 58
1, 16737, Control_c, 0, 64, 101
1, 16752, Control_c, 0, 64, 80
1, 16759, Note_on_c, 0, 48, 42
1, 16761, Note_on_c, 0, 45, 45
1, 16766, Control_c, 0, 64, 63
1, 16768, Note_on_c, 0, 33, 37
1, 16773, Note_off_c, 0, 53, 53
1, 16781, Control_c, 0, 64, 48
1, 16796, Control_c, 0, 64, 38
1, 16812, Control_c, 0, 64, 27
1, 16827, Control_c, 0, 64, 23
1, 16960, Control_c, 0, 64, 23
1, 16975, Control_c, 0, 64, 24
1, 16989, Control_c, 0, 64, 25
1, 17004, Control_c, 0, 64, 28
1, 17019, Control_c, 0, 64, 32
1, 17034, Control_c, 0, 64, 39
1, 17049, Control_c, 0, 64, 47
1, 17063, Control_c, 0, 64, 56
1, 17078, Control_c, 0, 64, 61
1, 17093, Control_c, 0, 64, 63
1, 17108, Control_c, 0, 64, 64
1, 17123, Control_c, 0, 64, 65
1, 17137, Control_c, 0, 64, 68
1, 17152, Control_c, 0, 64, 73
1, 17167, Control_c, 0, 64, 84
1, 17182, Control_c, 0, 64, 100
1, 17197, Control_c, 0, 64, 127
1, 17309, Note_off_c, 0, 48, 39
1, 17337, Note_off_c, 0, 33, 40
1, 17360, Note_off_c, 0, 51, 47
1, 17386, Note_off_c, 0, 45, 35
1, 17389, Note_off_c, 0, 54, 53
1, 18124, Control_c, 0, 64, 96
1, 18132, Note_on_c, 0, 78, 58
1, 18136, Note_on_c, 0, 75, 56
1, 18138, Control_c, 0, 64, 75
1, 18144, Note_on_c, 0, 72, 42
1, 18153, Note_on_c, 0, 69, 35
1, 18153, Control_c, 0, 64, 61
1, 18168, Control_c, 0, 64, 51
1, 18190, Control_c, 0, 64, 49
1, 18204, Control_c, 0, 64, 50
1, 18219, Control_c, 0, 64, 58
1, 18234, Control_c, 0, 64, 66
1, 18249, Control_c, 0, 64, 75
1, 18264, Control_c, 0, 64, 92
1, 18279, Control_c, 0, 64, 127
1, 18335, Note_off_c, 0, 72, 48
1, 18345, Note_off_c, 0, 69, 52
1, 18347, Note_off_c, 0, 75, 60
1, 18354, Note_off_c, 0, 78, 57
1, 18650, Control_c, 0, 64, 89
1, 18665, Control_c, 0, 64, 70
1, 18672, Note_on_c, 0, 78, 83
1, 18675, Note_on_c, 0, 72, 59
1, 18679, Note_on_c, 0, 75, 81
1, 18680, Control_c, 0, 64, 58
1, 18681, Note_on_c, 0, 69, 58
1, 18695, Control_c, 0, 64, 52
1, 18709, Control_c, 0, 64, 53
1, 18724, Control_c, 0, 64, 58
1, 18739, Control_c, 0, 64, 66
1, 18753, Control_c, 0, 64, 75
1, 18768, Control_c, 0, 64, 94
1, 18783, Control_c, 0, 64, 127
1, 18818, Note_off_c, 0, 72, 51
1, 18827, Note_off_c, 0, 69, 60
1, 18842, Note_off_c, 0, 75, 61
1, 18861, Note_off_c, 0, 78, 61
1, 19236, Control_c, 0, 64, 109
1, 19249, Note_on_c, 0, 72, 75
1, 19250, Control_c, 0, 64, 77
1, 19253, Note_on_c, 0, 78, 89
1, 19254, Note_on_c, 0, 69, 68
1, 19255, Note_on_c, 0, 75, 84
1, 19265, Control_c, 0, 64, 60
1, 19280, Control_c, 0, 64, 49
1, 19295, Control_c, 0, 64, 50
1, 19310, Control_c, 0, 64, 60
1, 19325, Control_c, 0, 64, 69
1, 19340, Control_c, 0, 64, 81
1, 19355, Control_c, 0, 64, 105
1, 19370, Control_c, 0, 64, 127
1, 19425, Note_off_c, 0, 72, 54
1, 19462, Note_off_c, 0, 69, 60
1, 19500, Note_off_c, 0, 75, 55
1, 19543, Note_off_c, 0, 78, 57
1, 20085, Note_on_c, 0, 75, 81
1, 20085, Note_on_c, 0, 79, 76
1, 20089, Control_c, 0, 64, 95
1, 20094, Note_on_c, 0, 70, 69
1, 20104, Control_c, 0, 64, 72
1, 20119, Control_c, 0, 64, 57
1, 20134, Control_c, 0, 64, 36
1, 20148, Control_c, 0, 64, 0
1, 20267, Control_c, 0, 64, 37
1, 20282, Control_c, 0, 64, 53
1, 20297, Control_c, 0, 64, 62
1, 20312, Control_c, 0, 64, 67
1, 20326, Control_c, 0, 64, 75
1, 20341, Control_c, 0, 64, 87
1, 20356, Control_c, 0, 64, 113
1, 20371, Control_c, 0, 64, 127
1, 22035, Note_off_c, 0, 70, 23
1, 22094, Note_off_c, 0, 79, 41
1, 22120, Note_off_c, 0, 75, 41
1, 22260, Control_c, 0, 64, 110
1, 22275, Control_c, 0, 64, 87
1, 22290, Control_c, 0, 64, 71
1, 22304, Control_c, 0, 64, 59
1, 22319, Control_c, 0, 64, 46
1, 22334, Control_c, 0, 64, 35
1, 22349, Control_c, 0, 64, 29
1, 22364, Control_c, 0, 64, 29
1, 22394, Control_c, 0, 64, 27
1, 22409, Control_c, 0, 64, 23
1, 22424, Control_c, 0, 64, 20
1, 22439, Control_c, 0, 64, 19
1, 22483, Control_c, 0, 64, 18
1, 22741, Note_on_c, 0, 62, 41
1, 22742, Note_on_c, 0, 67, 48
1, 22752, Note_on_c, 0, 46, 39
1, 22757, Note_on_c, 0, 56, 32
1, 22765, Note_on_c, 0, 34, 28
1, 22823, Note_off_c, 0, 34, 56
1, 22832, Note_off_c, 0, 46, 52
1, 22886, Note_on_c, 0, 65, 59
1, 22895, Note_off_c, 0, 67, 51
1, 22924, Note_off_c, 0, 56, 51
1, 22928, Note_off_c, 0, 62, 50
1, 22933, Note_off_c, 0, 65, 56
1, 23049, Note_on_c, 0, 65, 65
1, 23051, Note_on_c, 0, 56, 49
1, 23055, Note_on_c, 0, 34, 39
1, 23058, Note_on_c, 0, 46, 44
1, 23084, Note_off_c, 0, 34, 50
1, 23086, Note_off_c, 0, 46, 56
1, 23089, Note_off_c, 0, 56, 61
1, 23114, Note_off_c, 0, 65, 57
1, 23131, Note_on_c, 0, 67, 56
1, 23175, Note_off_c, 0, 67, 59
1, 23177, Note_on_c, 0, 65, 52
1, 23262, Note_on_c, 0, 64, 60
1, 23264, Note_off_c, 0, 65, 59
1, 23342, Note_on_c, 0, 56, 48
1, 23348, Note_on_c, 0, 34, 45
1, 23352, Note_on_c, 0, 46, 52
1, 23356, Note_on_c, 0, 65, 58
1, 23358, Note_off_c, 0, 64, 53
1, 23378, Note_off_c, 0, 34, 57
1, 23379, Note_off_c, 0, 46, 58
1, 23445, Note_off_c, 0, 56, 34
1, 23511, Note_off_c, 0, 65, 57
1, 23528, Note_on_c, 0, 67, 56
1, 23635, Note_off_c, 0, 67, 33
1, 23686, Note_on_c, 0, 39, 49
1, 23692, Note_on_c, 0, 51, 50
1, 23695, Note_on_c, 0, 63, 63
1, 23700, Note_on_c, 0, 55, 53
1, 23725, Note_off_c, 0, 39, 65
1, 23726, Note_off_c, 0, 51, 61
1, 23739, Note_off_c, 0, 55, 59
1, 23757, Note_off_c, 0, 63, 57
1, 23773, Control_c, 0, 64, 19
1, 23788, Control_c, 0, 64, 19
1, 23803, Control_c, 0, 64, 20
1, 23817, Control_c, 0, 64, 21
1, 23838, Note_on_c, 0, 51, 56
1, 23879, Note_off_c, 0, 51, 62
1, 24000, Note_on_c, 0, 51, 59
1, 24033, Note_off_c, 0, 51, 62
1, 24148, Note_on_c, 0, 51, 52
1, 24193, Note_off_c, 0, 51, 60
1, 24270, Control_c, 0, 64, 21
1, 24296, Note_on_c, 0, 51, 58
1, 24332, Note_off_c, 0, 51, 61
1, 24446, Note_on_c, 0, 51, 48
1, 24486, Note_off_c, 0, 51, 61
1, 24522, Control_c, 0, 64, 21
1, 24535, Note_on_c, 0, 86, 57
1, 24537, Control_c, 0, 64, 20
1, 24567, Control_c, 0, 64, 28
1, 24581, Control_c, 0, 64, 49
1, 24596, Control_c, 0, 64, 66
1, 24611, Control_c, 0, 64, 76
1, 24613, Note_off_c, 0, 86, 60
1, 24614, Note_on_c, 0, 60, 50
1, 24614, Note_on_c, 0, 87, 81
1, 24626, Control_c, 0, 64, 89
1, 24631, Note_on_c, 0, 63, 54
1, 24641, Control_c, 0, 64, 93
1, 24655, Control_c, 0, 64, 92
1, 24670, Control_c, 0, 64, 85
1, 24685, Control_c, 0, 64, 75
1, 24699, Control_c, 0, 64, 64
1, 24714, Control_c, 0, 64, 55
1, 24729, Control_c, 0, 64, 50
1, 24795, Note_on_c, 0, 51, 46
1, 24831, Note_off_c, 0, 51, 58
1, 24834, Control_c, 0, 64, 49
1, 24856, Note_on_c, 0, 80, 66
1, 24881, Note_off_c, 0, 80, 64
1, 24952, Note_on_c, 0, 51, 41
1, 24953, Note_on_c, 0, 80, 71
1, 24998, Note_off_c, 0, 51, 60
1, 25024, Note_off_c, 0, 87, 49
1, 25120, Note_on_c, 0, 51, 42
1, 25139, Note_off_c, 0, 80, 61
1, 25150, Note_off_c, 0, 51, 56
1, 25262, Note_on_c, 0, 51, 38
1, 25296, Note_off_c, 0, 51, 58
1, 25397, Note_on_c, 0, 51, 50
1, 25439, Note_off_c, 0, 51, 60
1, 25457, Note_off_c, 0, 60, 49
1, 25468, Note_on_c, 0, 74, 51
1, 25477, Note_off_c, 0, 63, 43
1, 25567, Control_c, 0, 67, 16
1, 25573, Note_on_c, 0, 75, 59
1, 25581, Note_off_c, 0, 74, 59
1, 25582, Control_c, 0, 64, 49
1, 25582, Control_c, 0, 67, 18
1, 25597, Control_c, 0, 67, 20
1, 25603, Note_on_c, 0, 62, 39
1, 25612, Control_c, 0, 67, 22
1, 25618, Note_on_c, 0, 58, 45
1, 25627, Control_c, 0, 64, 48
1, 25627, Control_c, 0, 67, 25
1, 25641, Control_c, 0, 67, 29
1, 25656, Control_c, 0, 64, 48
1, 25656, Control_c, 0, 67, 33
1, 25679, Control_c, 0, 64, 47
1, 25679, Control_c, 0, 67, 36
1, 25693, Control_c, 0, 64, 47
1, 25693, Control_c, 0, 67, 38
1, 25708, Control_c, 0, 64, 46
1, 25708, Control_c, 0, 67, 38
1, 25723, Control_c, 0, 64, 46
1, 25747, Note_on_c, 0, 51, 47
1, 25752, Control_c, 0, 64, 45
1, 25752, Control_c, 0, 67, 37
1, 25767, Control_c, 0, 67, 37
1, 25782, Control_c, 0, 64, 45
1, 25782, Control_c, 0, 67, 35
1, 25793, Note_off_c, 0, 75, 35
1, 25793, Note_off_c, 0, 51, 59
1, 25796, Note_on_c, 0, 67, 61
1, 25796, Control_c, 0, 64, 44
1, 25796, Control_c, 0, 67, 34
1, 25811, Control_c, 0, 64, 44
1, 25811, Control_c, 0, 67, 33
1, 25826, Control_c, 0, 64, 43
1, 25826, Control_c, 0, 67, 32
1, 25826, Note_off_c, 0, 67, 62
1, 25841, Control_c, 0, 67, 31
1, 25856, Control_c, 0, 67, 31
1, 25871, Control_c, 0, 64, 42
1, 25886, Control_c, 0, 67, 30
1, 25892, Note_on_c, 0, 67, 63
1, 25900, Control_c, 0, 67, 30
1, 25912, Note_on_c, 0, 51, 51
1, 25915, Control_c, 0, 64, 42
1, 25915, Control_c, 0, 67, 38
1, 25930, Control_c, 0, 67, 37
1, 25952, Note_off_c, 0, 51, 61
1, 25974, Control_c, 0, 67, 37
1, 25989, Control_c, 0, 67, 36
1, 25997, Note_off_c, 0, 67, 60
1, 26004, Control_c, 0, 67, 36
1, 26018, Control_c, 0, 67, 35
1, 26033, Control_c, 0, 67, 34
1, 26048, Control_c, 0, 67, 32
1, 26062, Control_c, 0, 67, 30
1, 26076, Note_on_c, 0, 51, 50
1, 26077, Control_c, 0, 67, 26
1, 26092, Control_c, 0, 67, 24
1, 26107, Control_c, 0, 67, 23
1, 26109, Note_off_c, 0, 51, 61
1, 26122, Control_c, 0, 67, 22
1, 26136, Control_c, 0, 67, 22
1, 26151, Control_c, 0, 67, 21
1, 26166, Control_c, 0, 67, 20
1, 26181, Control_c, 0, 67, 19
1, 26217, Note_on_c, 0, 51, 52
1, 26241, Control_c, 0, 67, 19
1, 26252, Note_off_c, 0, 51, 63
1, 26285, Control_c, 0, 67, 18
1, 26285, Note_off_c, 0, 62, 39
1, 26299, Note_off_c, 0, 58, 54
1, 26315, Control_c, 0, 67, 17
1, 26330, Control_c, 0, 67, 17
1, 26357, Note_on_c, 0, 51, 45
1, 26374, Control_c, 0, 67, 16
1, 26389, Note_off_c, 0, 51, 56
1, 26500, Control_c, 0, 67, 16
1, 26513, Note_on_c, 0, 75, 75
1, 26521, Note_on_c, 0, 51, 45
1, 26522, Note_on_c, 0, 60, 58
1, 26524, Note_on_c, 0, 56, 60
1, 26555, Note_off_c, 0, 51, 61
1, 26557, Note_off_c, 0, 60, 60
1, 26557, Note_off_c, 0, 56, 64
1, 26574, Note_off_c, 0, 75, 61
1, 26577, Note_on_c, 0, 65, 61
1, 26599, Note_off_c, 0, 65, 63
1, 26660, Note_on_c, 0, 51, 51
1, 26697, Note_off_c, 0, 51, 61
1, 26819, Note_on_c, 0, 75, 73
1, 26834, Note_on_c, 0, 60, 65
1, 26838, Note_on_c, 0, 51, 52
1, 26841, Note_on_c, 0, 56, 55
1, 26864, Note_off_c, 0, 51, 57
1, 26864, Note_off_c, 0, 60, 62
1, 26872, Control_c, 0, 64, 41
1, 26873, Note_off_c, 0, 56, 62
1, 26873, Note_off_c, 0, 75, 57
1, 26876, Note_on_c, 0, 65, 66
1, 26904, Note_off_c, 0, 65, 65
1, 26976, Note_on_c, 0, 51, 44
1, 27015, Note_off_c, 0, 51, 62
1, 27129, Note_on_c, 0, 74, 75
1, 27141, Note_on_c, 0, 59, 62
1, 27143, Note_on_c, 0, 56, 51
1, 27149, Note_on_c, 0, 51, 42
1, 27180, Note_off_c, 0, 59, 62
1, 27186, Note_off_c, 0, 51, 53
1, 27186, Note_off_c, 0, 74, 61
1, 27188, Note_off_c, 0, 56, 63
1, 27190, Control_c, 0, 64, 41
1, 27200, Note_on_c, 0, 65, 65
1, 27227, Note_off_c, 0, 65, 65
1, 27278, Note_on_c, 0, 51, 53
1, 27317, Note_off_c, 0, 51, 61
1, 27383, Control_c, 0, 64, 40
1, 27460, Note_on_c, 0, 75, 61
1, 27464, Note_on_c, 0, 55, 53
1, 27469, Note_on_c, 0, 51, 41
1, 27483, Note_on_c, 0, 58, 39
1, 27501, Note_off_c, 0, 51, 57
1, 27512, Note_off_c, 0, 58, 55
1, 27514, Note_off_c, 0, 55, 57
1, 27519, Note_on_c, 0, 63, 55
1, 27522, Note_off_c, 0, 75, 56
1, 27542, Note_off_c, 0, 63, 60
1, 27616, Note_on_c, 0, 51, 45
1, 27659, Note_off_c, 0, 51, 62
1, 27753, Control_c, 0, 67, 0
1, 27786, Note_on_c, 0, 51, 47
1, 27816, Note_off_c, 0, 51, 58
1, 27937, Note_on_c, 0, 51, 45
1, 27972, Note_off_c, 0, 51, 61
1, 28083, Note_on_c, 0, 51, 55
1, 28119, Note_off_c, 0, 51, 62
1, 28232, Note_on_c, 0, 51, 46
1, 28268, Note_off_c, 0, 51, 58
1, 28387, Note_on_c, 0, 60, 59
1, 28393, Note_on_c, 0, 87, 77
1, 28393, Note_on_c, 0, 63, 60
1, 28449, Note_off_c, 0, 87, 60
1, 28458, Note_on_c, 0, 89, 75
1, 28472, Control_c, 0, 67, 17
1, 28487, Control_c, 0, 67, 19
1, 28502, Control_c, 0, 67, 19
1, 28510, Note_on_c, 0, 87, 72
1, 28517, Control_c, 0, 64, 40
1, 28525, Note_off_c, 0, 89, 60
1, 28543, Note_on_c, 0, 51, 51
1, 28546, Control_c, 0, 67, 19
1, 28561, Control_c, 0, 67, 18
1, 28566, Note_off_c, 0, 87, 63
1, 28576, Control_c, 0, 67, 18
1, 28579, Note_on_c, 0, 86, 69
1, 28579, Note_off_c, 0, 51, 60
1, 28591, Control_c, 0, 67, 17
1, 28620, Control_c, 0, 67, 16
1, 28634, Note_on_c, 0, 87, 70
1, 28635, Control_c, 0, 64, 39
1, 28635, Control_c, 0, 67, 16
1, 28646, Note_off_c, 0, 86, 57
1, 28697, Note_on_c, 0, 80, 78
1, 28705, Note_on_c, 0, 51, 49
1, 28706, Note_off_c, 0, 87, 60
1, 28718, Note_off_c, 0, 80, 68
1, 28741, Note_off_c, 0, 51, 61
1, 28761, Control_c, 0, 64, 39
1, 28776, Control_c, 0, 64, 38
1, 28792, Control_c, 0, 64, 38
1, 28807, Control_c, 0, 64, 37
1, 28822, Control_c, 0, 64, 36
1, 28877, Note_on_c, 0, 51, 40
1, 28907, Note_off_c, 0, 51, 56
1, 28984, Control_c, 0, 64, 36
1, 29016, Note_on_c, 0, 51, 48
1, 29055, Note_off_c, 0, 51, 60
1, 29073, Control_c, 0, 67, 16
1, 29087, Control_c, 0, 67, 17
1, 29102, Control_c, 0, 67, 17
1, 29175, Note_on_c, 0, 51, 42
1, 29184, Note_off_c, 0, 60, 53
1, 29206, Note_off_c, 0, 51, 55
1, 29207, Note_off_c, 0, 63, 42
1, 29321, Note_on_c, 0, 75, 67
1, 29335, Note_on_c, 0, 58, 52
1, 29335, Note_on_c, 0, 62, 56
1, 29365, Note_off_c, 0, 75, 59
1, 29393, Note_on_c, 0, 77, 58
1, 29436, Control_c, 0, 67, 17
1, 29457, Note_off_c, 0, 77, 59
1, 29464, Note_on_c, 0, 75, 60
1, 29471, Note_on_c, 0, 51, 48
1, 29481, Control_c, 0, 67, 16
1, 29497, Note_off_c, 0, 75, 62
1, 29513, Note_off_c, 0, 51, 60
1, 29514, Note_on_c, 0, 74, 55
1, 29526, Control_c, 0, 64, 35
1, 29570, Note_on_c, 0, 75, 58
1, 29570, Note_off_c, 0, 74, 54
1, 29585, Control_c, 0, 64, 35
1, 29634, Note_on_c, 0, 67, 62
1, 29639, Note_on_c, 0, 51, 53
1, 29641, Note_off_c, 0, 75, 59
1, 29659, Note_off_c, 0, 67, 66
1, 29677, Note_off_c, 0, 51, 61
1, 29800, Note_on_c, 0, 51, 53
1, 29836, Note_off_c, 0, 51, 63
1, 29882, Control_c, 0, 67, 0
1, 29949, Note_on_c, 0, 51, 56
1, 29978, Note_off_c, 0, 62, 45
1, 29981, Note_off_c, 0, 51, 64
1, 30005, Note_off_c, 0, 58, 57
1, 30088, Note_on_c, 0, 51, 55
1, 30118, Note_off_c, 0, 51, 62
1, 30186, Control_c, 0, 64, 34
1, 30237, Note_on_c, 0, 75, 73
1, 30254, Note_on_c, 0, 60, 61
1, 30255, Note_on_c, 0, 51, 44
1, 30258, Note_on_c, 0, 56, 55
1, 30278, Note_off_c, 0, 60, 61
1, 30283, Note_off_c, 0, 75, 60
1, 30283, Note_off_c, 0, 51, 57
1, 30288, Note_off_c, 0, 56, 63
1, 30301, Note_on_c, 0, 65, 56
1, 30322, Note_off_c, 0, 65, 61
1, 30391, Note_on_c, 0, 51, 47
1, 30432, Note_off_c, 0, 51, 61
1, 30541, Note_on_c, 0, 75, 73
1, 30551, Note_on_c, 0, 56, 61
1, 30551, Note_on_c, 0, 60, 66
1, 30555, Note_on_c, 0, 51, 51
1, 30581, Note_off_c, 0, 51, 57
1, 30582, Note_off_c, 0, 60, 62
1, 30584, Note_off_c, 0, 56, 64
1, 30595, Note_off_c, 0, 75, 61
1, 30613, Note_on_c, 0, 65, 53
1, 30635, Note_off_c, 0, 65, 60
1, 30646, Control_c, 0, 64, 34
1, 30686, Note_on_c, 0, 51, 46
1, 30717, Note_off_c, 0, 51, 56
1, 30829, Note_on_c, 0, 74, 71
1, 30853, Note_on_c, 0, 56, 57
1, 30854, Note_on_c, 0, 59, 61
1, 30857, Note_on_c, 0, 51, 34
1, 30867, Control_c, 0, 64, 33
1, 30874, Note_off_c, 0, 74, 60
1, 30886, Note_off_c, 0, 59, 62
1, 30887, Note_on_c, 0, 65, 68
1, 30887, Note_off_c, 0, 56, 64
1, 30889, Note_off_c, 0, 51, 50
1, 30920, Note_off_c, 0, 65, 67
1, 30980, Note_on_c, 0, 51, 57
1, 31013, Note_off_c, 0, 51, 63
1, 31169, Note_on_c, 0, 55, 48
1, 31173, Note_on_c, 0, 63, 55
1, 31174, Note_on_c, 0, 58, 45
1, 31177, Note_on_c, 0, 51, 44
1, 31228, Note_off_c, 0, 63, 52
1, 31248, Note_on_c, 0, 65, 61
1, 31317, Note_off_c, 0, 65, 60
1, 31327, Note_on_c, 0, 63, 60
1, 31370, Note_off_c, 0, 63, 61
1, 31383, Note_off_c, 0, 51, 57
1, 31384, Note_on_c, 0, 62, 65
1, 31388, Note_off_c, 0, 58, 57
1, 31407, Note_off_c, 0, 55, 45
1, 31460, Note_on_c, 0, 63, 73
1, 31472, Note_off_c, 0, 62, 56
1, 31518, Note_off_c, 0, 63, 57
1, 31526, Note_on_c, 0, 65, 79
1, 31582, Note_off_c, 0, 65, 51
1, 31600, Note_on_c, 0, 67, 78
1, 31674, Note_on_c, 0, 68, 80
1, 31696, Note_off_c, 0, 67, 59
1, 31743, Note_on_c, 0, 70, 77
1, 31743, Note_off_c, 0, 68, 61
1, 31763, Note_off_c, 0, 70, 68
1, 31801, Control_c, 0, 64, 33
1, 31860, Control_c, 0, 64, 32
1, 31898, Note_on_c, 0, 67, 85
1, 31898, Note_on_c, 0, 55, 63
1, 31917, Note_off_c, 0, 67, 68
1, 31929, Note_off_c, 0, 55, 64
1, 31949, Control_c, 0, 64, 32
1, 31964, Control_c, 0, 64, 31
1, 31979, Control_c, 0, 64, 30
1, 31994, Control_c, 0, 64, 30
1, 32038, Control_c, 0, 64, 29
1, 32043, Note_on_c, 0, 65, 88
1, 32047, Note_on_c, 0, 53, 70
1, 32068, Control_c, 0, 64, 28
1, 32071, Note_off_c, 0, 65, 62
1, 32073, Note_off_c, 0, 53, 66
1, 32083, Control_c, 0, 64, 28
1, 32113, Control_c, 0, 64, 27
1, 32158, Control_c, 0, 64, 27
1, 32173, Control_c, 0, 64, 26
1, 32196, Note_on_c, 0, 56, 66
1, 32200, Note_on_c, 0, 68, 72
1, 32217, Control_c, 0, 64, 26
1, 32226, Note_off_c, 0, 56, 65
1, 32229, Note_off_c, 0, 68, 59
1, 32231, Control_c, 0, 64, 25
1, 32246, Control_c, 0, 64, 25
1, 32340, Note_on_c, 0, 62, 71
1, 32342, Note_on_c, 0, 50, 61
1, 32366, Note_off_c, 0, 62, 66
1, 32375, Note_off_c, 0, 50, 63
1, 32495, Note_on_c, 0, 53, 58
1, 32498, Note_on_c, 0, 65, 72
1, 32520, Note_off_c, 0, 53, 60
1, 32530, Note_off_c, 0, 65, 57
1, 32652, Note_on_c, 0, 58, 61
1, 32655, Note_on_c, 0, 46, 48
1, 32682, Note_off_c, 0, 58, 64
1, 32684, Note_off_c, 0, 46, 57
1, 32788, Note_on_c, 0, 50, 56
1, 32791, Note_on_c, 0, 62, 60
1, 32803, Control_c, 0, 64, 24
1, 32813, Note_off_c, 0, 50, 60
1, 32818, Control_c, 0, 64, 24
1, 32824, Note_off_c, 0, 62, 61
1, 32848, Control_c, 0, 64, 23
1, 32967, Note_on_c, 0, 63, 54
1, 32972, Note_on_c, 0, 51, 42
1, 33043, Note_off_c, 0, 63, 58
1, 33046, Note_on_c, 0, 65, 63
1, 33121, Note_off_c, 0, 51, 58
1, 33122, Note_on_c, 0, 63, 58
1, 33126, Note_off_c, 0, 65, 60
1, 33183, Note_off_c, 0, 63, 55
1, 33195, Note_on_c, 0, 62, 68
1, 33273, Note_on_c, 0, 63, 72
1, 33287, Note_off_c, 0, 62, 56
1, 33326, Note_off_c, 0, 63, 54
1, 33343, Note_on_c, 0, 65, 75
1, 33417, Note_off_c, 0, 65, 52
1, 33422, Note_on_c, 0, 67, 76
1, 33494, Note_on_c, 0, 68, 78
1, 33516, Note_off_c, 0, 67, 60
1, 33578, Note_on_c, 0, 72, 82
1, 33586, Note_off_c, 0, 68, 59
1, 33589, Note_on_c, 0, 60, 62
1, 33641, Control_c, 0, 64, 23
1, 33659, Note_on_c, 0, 70, 77
1, 33660, Note_on_c, 0, 58, 67
1, 33661, Note_off_c, 0, 60, 50
1, 33709, Note_off_c, 0, 72, 62
1, 33733, Note_on_c, 0, 56, 66
1, 33735, Note_on_c, 0, 68, 79
1, 33746, Note_off_c, 0, 58, 60
1, 33775, Note_off_c, 0, 70, 61
1, 33800, Note_on_c, 0, 67, 84
1, 33825, Note_on_c, 0, 55, 57
1, 33826, Note_off_c, 0, 68, 59
1, 33836, Note_off_c, 0, 56, 62
1, 33875, Note_on_c, 0, 65, 86
1, 33889, Note_off_c, 0, 67, 56
1, 33893, Note_on_c, 0, 53, 78
1, 33906, Note_off_c, 0, 55, 61
1, 33922, Note_off_c, 0, 65, 64
1, 33940, Note_off_c, 0, 53, 62
1, 33945, Control_c, 0, 64, 22
1, 33959, Control_c, 0, 64, 22
1, 34018, Control_c, 0, 64, 21
1, 34051, Note_on_c, 0, 68, 72
1, 34056, Note_on_c, 0, 56, 63
1, 34073, Note_off_c, 0, 68, 67
1, 34078, Control_c, 0, 64, 21
1, 34083, Note_off_c, 0, 56, 65
1, 34183, Note_on_c, 0, 50, 64
1, 34210, Note_on_c, 0, 62, 46
1, 34212, Note_off_c, 0, 50, 64
1, 34226, Note_on_c, 0, 60, 24
1, 34238, Note_off_c, 0, 62, 54
1, 34265, Note_off_c, 0, 60, 33
1, 34345, Note_on_c, 0, 65, 73
1, 34353, Note_on_c, 0, 53, 65
1, 34359, Control_c, 0, 64, 20
1, 34382, Note_off_c, 0, 65, 57
1, 34386, Note_off_c, 0, 53, 63
1, 34390, Control_c, 0, 64, 20
1, 34405, Control_c, 0, 64, 19
1, 34420, Control_c, 0, 64, 19
1, 34434, Control_c, 0, 64, 18
1, 34449, Control_c, 0, 64, 17
1, 34464, Control_c, 0, 64, 16
1, 34492, Note_on_c, 0, 58, 68
1, 34500, Note_on_c, 0, 46, 56
1, 34516, Note_off_c, 0, 58, 65
1, 34534, Note_off_c, 0, 46, 63
1, 34631, Note_on_c, 0, 62, 73
1, 34641, Note_on_c, 0, 50, 64
1, 34677, Note_off_c, 0, 62, 58
1, 34680, Note_off_c, 0, 50, 65
1, 34799, Note_on_c, 0, 51, 65
1, 34805, Note_on_c, 0, 63, 76
1, 34826, Note_off_c, 0, 51, 65
1, 34832, Note_off_c, 0, 63, 62
1, 34944, Note_on_c, 0, 55, 59
1, 34948, Note_on_c, 0, 67, 59
1, 34975, Note_off_c, 0, 55, 63
1, 34981, Note_off_c, 0, 67, 62
1, 35103, Note_on_c, 0, 60, 61
1, 35106, Note_on_c, 0, 48, 50
1, 35131, Note_off_c, 0, 48, 59
1, 35136, Note_off_c, 0, 60, 61
1, 35247, Note_on_c, 0, 51, 49
1, 35247, Note_on_c, 0, 63, 64
1, 35274, Note_off_c, 0, 51, 57
1, 35274, Note_off_c, 0, 63, 66
1, 35407, Note_on_c, 0, 45, 47
1, 35408, Note_on_c, 0, 57, 56
1, 35435, Note_off_c, 0, 57, 63
1, 35438, Note_off_c, 0, 45, 55
1, 35553, Note_on_c, 0, 48, 36
1, 35553, Note_on_c, 0, 60, 59
1, 35574, Control_c, 0, 64, 16
1, 35584, Note_off_c, 0, 48, 51
1, 35587, Note_off_c, 0, 60, 60
1, 35708, Note_on_c, 0, 41, 53
1, 35714, Note_on_c, 0, 53, 67
1, 35744, Note_off_c, 0, 41, 64
1, 35750, Note_off_c, 0, 53, 63
1, 35857, Note_on_c, 0, 45, 56
1, 35860, Note_on_c, 0, 57, 57
1, 35893, Note_off_c, 0, 45, 61
1, 35893, Note_off_c, 0, 57, 65
1, 36006, Note_on_c, 0, 48, 63
1, 36008, Note_on_c, 0, 60, 65
1, 36038, Note_off_c, 0, 48, 65
1, 36038, Note_off_c, 0, 60, 62
1, 36157, Note_on_c, 0, 64, 72
1, 36159, Note_on_c, 0, 52, 58
1, 36191, Note_off_c, 0, 52, 61
1, 36203, Note_off_c, 0, 64, 58
1, 36296, Note_on_c, 0, 53, 73
1, 36314, Note_on_c, 0, 65, 69
1, 36331, Note_off_c, 0, 53, 60
1, 36343, Note_off_c, 0, 65, 63
1, 36457, Note_on_c, 0, 57, 80
1, 36459, Note_on_c, 0, 45, 71
1, 36489, Note_off_c, 0, 45, 62
1, 36490, Note_off_c, 0, 57, 64
1, 36592, Note_on_c, 0, 58, 85
1, 36597, Note_on_c, 0, 46, 74
1, 36624, Note_off_c, 0, 46, 65
1, 36625, Note_off_c, 0, 58, 62
1, 36739, Note_on_c, 0, 50, 65
1, 36743, Note_on_c, 0, 62, 71
1, 36767, Note_off_c, 0, 50, 65
1, 36781, Note_off_c, 0, 62, 56
1, 36814, Control_c, 0, 64, 0
1, 36885, Note_on_c, 0, 53, 66
1, 36889, Note_on_c, 0, 65, 70
1, 36917, Note_off_c, 0, 53, 63
1, 36925, Note_off_c, 0, 65, 62
1, 37055, Note_on_c, 0, 57, 55
1, 37068, Note_on_c, 0, 69, 46
1, 37213, Note_on_c, 0, 58, 58
1, 37221, Note_on_c, 0, 70, 66
1, 37226, Note_off_c, 0, 57, 54
1, 37245, Note_off_c, 0, 58, 62
1, 37246, Note_off_c, 0, 69, 60
1, 37258, Note_off_c, 0, 70, 56
1, 37380, Note_on_c, 0, 69, 73
1, 37386, Note_on_c, 0, 57, 66
1, 37524, Note_on_c, 0, 58, 73
1, 37527, Note_on_c, 0, 70, 82
1, 37550, Note_off_c, 0, 57, 60
1, 37554, Note_off_c, 0, 69, 65
1, 37570, Note_off_c, 0, 58, 57
1, 37580, Note_off_c, 0, 70, 59
1, 37699, Note_on_c, 0, 57, 74
1, 37699, Note_on_c, 0, 69, 89
1, 37842, Note_on_c, 0, 70, 83
1, 37846, Note_on_c, 0, 58, 70
1, 37866, Note_off_c, 0, 69, 64
1, 37866, Note_off_c, 0, 57, 57
1, 37894, Note_off_c, 0, 70, 61
1, 37896, Note_off_c, 0, 58, 58
1, 37970, Control_c, 0, 67, 16
1, 37985, Control_c, 0, 67, 25
1, 38000, Control_c, 0, 67, 33
1, 38011, Note_on_c, 0, 57, 57
1, 38015, Note_on_c, 0, 69, 75
1, 38015, Control_c, 0, 67, 39
1, 38030, Control_c, 0, 67, 44
1, 38044, Control_c, 0, 67, 47
1, 38059, Control_c, 0, 67, 48
1, 38089, Control_c, 0, 67, 49
1, 38104, Control_c, 0, 67, 49
1, 38118, Control_c, 0, 67, 50
1, 38133, Control_c, 0, 67, 51
1, 38148, Control_c, 0, 67, 52
1, 38163, Control_c, 0, 67, 55
1, 38167, Note_on_c, 0, 58, 52
1, 38172, Note_off_c, 0, 57, 59
1, 38173, Note_on_c, 0, 70, 63
1, 38173, Note_off_c, 0, 69, 60
1, 38177, Control_c, 0, 67, 58
1, 38192, Control_c, 0, 67, 61
1, 38201, Note_off_c, 0, 58, 62
1, 38207, Control_c, 0, 67, 64
1, 38213, Note_off_c, 0, 70, 60
1, 38222, Control_c, 0, 67, 65
1, 38237, Control_c, 0, 67, 67
1, 38251, Control_c, 0, 67, 68
1, 38266, Control_c, 0, 67, 69
1, 38281, Control_c, 0, 67, 70
1, 38295, Control_c, 0, 67, 71
1, 38310, Control_c, 0, 67, 72
1, 38325, Control_c, 0, 67, 73
1, 38338, Note_on_c, 0, 70, 60
1, 38340, Control_c, 0, 67, 76
1, 38355, Control_c, 0, 67, 78
1, 38371, Control_c, 0, 64, 16
1, 38371, Control_c, 0, 67, 80
1, 38386, Control_c, 0, 67, 82
1, 38408, Control_c, 0, 67, 84
1, 38423, Control_c, 0, 67, 87
1, 38438, Control_c, 0, 67, 91
1, 38453, Control_c, 0, 64, 16
1, 38453, Control_c, 0, 67, 93
1, 38468, Control_c, 0, 64, 17
1, 38468, Control_c, 0, 67, 95
1, 38542, Control_c, 0, 64, 18
1, 38542, Control_c, 0, 67, 94
1, 38556, Control_c, 0, 64, 23
1, 38556, Control_c, 0, 67, 93
1, 38571, Control_c, 0, 64, 30
1, 38571, Control_c, 0, 67, 91
1, 38586, Control_c, 0, 64, 39
1, 38586, Control_c, 0, 67, 90
1, 38600, Control_c, 0, 64, 47
1, 38600, Control_c, 0, 67, 89
1, 38602, Note_on_c, 0, 51, 26
1, 38615, Control_c, 0, 64, 54
1, 38615, Control_c, 0, 67, 88
1, 38621, Note_on_c, 0, 53, 33
1, 38623, Note_on_c, 0, 59, 33
1, 38623, Note_on_c, 0, 71, 61
1, 38630, Control_c, 0, 64, 59
1, 38630, Control_c, 0, 67, 87
1, 38631, Note_on_c, 0, 63, 38
1, 38632, Note_on_c, 0, 44, 36
1, 38638, Note_on_c, 0, 56, 31
1, 38645, Control_c, 0, 64, 63
1, 38645, Control_c, 0, 67, 86
1, 38660, Control_c, 0, 64, 66
1, 38660, Control_c, 0, 67, 86
1, 38671, Note_off_c, 0, 70, 44
1, 38674, Control_c, 0, 64, 70
1, 38689, Control_c, 0, 64, 77
1, 38689, Control_c, 0, 67, 85
1, 38704, Control_c, 0, 64, 91
1, 38719, Control_c, 0, 64, 127
1, 38734, Control_c, 0, 67, 85
1, 38808, Control_c, 0, 67, 84
1, 38823, Control_c, 0, 67, 84
1, 38838, Control_c, 0, 67, 83
1, 38853, Control_c, 0, 67, 83
1, 38877, Note_on_c, 0, 65, 63
1, 38882, Control_c, 0, 67, 82
1, 38912, Control_c, 0, 67, 82
1, 38915, Note_off_c, 0, 63, 56
1, 38924, Note_off_c, 0, 65, 55
1, 38926, Control_c, 0, 67, 81
1, 38941, Control_c, 0, 67, 80
1, 38956, Control_c, 0, 67, 79
1, 38971, Control_c, 0, 67, 77
1, 38984, Note_on_c, 0, 65, 48
1, 38986, Control_c, 0, 67, 76
1, 39000, Control_c, 0, 67, 75
1, 39015, Control_c, 0, 67, 74
1, 39030, Control_c, 0, 67, 73
1, 39045, Control_c, 0, 67, 72
1, 39060, Control_c, 0, 67, 70
1, 39074, Control_c, 0, 67, 68
1, 39079, Note_off_c, 0, 59, 38
1, 39089, Control_c, 0, 67, 66
1, 39104, Control_c, 0, 67, 64
1, 39118, Control_c, 0, 67, 62
1, 39129, Note_off_c, 0, 56, 51
1, 39133, Control_c, 0, 67, 61
1, 39156, Control_c, 0, 67, 60
1, 39165, Note_off_c, 0, 65, 36
1, 39187, Control_c, 0, 67, 60
1, 39197, Note_off_c, 0, 53, 35
1, 39202, Control_c, 0, 67, 59
1, 39203, Note_off_c, 0, 51, 0
1, 39213, Note_off_c, 0, 44, 33
1, 39243, Poly_aftertouch_c, 0, 51, 0
1, 39332, Note_off_c, 0, 71, 42
1, 39336, Control_c, 0, 64, 96
1, 39350, Control_c, 0, 64, 78
1, 39365, Control_c, 0, 64, 66
1, 39380, Control_c, 0, 64, 60
1, 39395, Control_c, 0, 64, 58
1, 39410, Control_c, 0, 64, 57
1, 39454, Control_c, 0, 64, 57
1, 39469, Control_c, 0, 64, 56
1, 39528, Control_c, 0, 64, 56
1, 39661, Control_c, 0, 67, 60
1, 39702, Note_on_c, 0, 71, 63
1, 39705, Note_on_c, 0, 63, 50
1, 39713, Note_on_c, 0, 53, 39
1, 39714, Note_on_c, 0, 51, 40
1, 39718, Note_on_c, 0, 59, 42
1, 39726, Note_on_c, 0, 56, 40
1, 39728, Note_on_c, 0, 44, 42
1, 39750, Control_c, 0, 67, 59
1, 39765, Control_c, 0, 64, 58
1, 39765, Control_c, 0, 67, 58
1, 39780, Control_c, 0, 64, 62
1, 39780, Control_c, 0, 67, 58
1, 39795, Control_c, 0, 64, 67
1, 39795, Control_c, 0, 67, 55
1, 39810, Control_c, 0, 64, 76
1, 39810, Control_c, 0, 67, 52
1, 39824, Control_c, 0, 64, 96
1, 39824, Control_c, 0, 67, 48
1, 39839, Control_c, 0, 64, 127
1, 39839, Control_c, 0, 67, 44
1, 39854, Control_c, 0, 67, 41
1, 39868, Control_c, 0, 67, 39
1, 39883, Control_c, 0, 67, 37
1, 39905, Control_c, 0, 67, 38
1, 39920, Control_c, 0, 67, 38
1, 39947, Note_on_c, 0, 65, 66
1, 39950, Control_c, 0, 67, 37
1, 39980, Control_c, 0, 67, 37
1, 39989, Note_off_c, 0, 65, 53
1, 40009, Control_c, 0, 67, 36
1, 40056, Note_on_c, 0, 65, 53
1, 40090, Note_off_c, 0, 59, 44
1, 40139, Note_off_c, 0, 56, 52
1, 40142, Control_c, 0, 67, 37
1, 40157, Control_c, 0, 67, 37
1, 40158, Poly_aftertouch_c, 0, 67, 127
1, 40171, Control_c, 0, 67, 38
1, 40182, Note_off_c, 0, 44, 53
1, 40194, Note_off_c, 0, 71, 36
1, 40201, Control_c, 0, 67, 39
1, 40203, Note_off_c, 0, 63, 42
1, 40216, Note_off_c, 0, 51, 47
1, 40216, Note_off_c, 0, 53, 35
1, 40216, Control_c, 0, 67, 39
1, 40231, Control_c, 0, 67, 40
1, 40237, Note_off_c, 0, 65, 35
1, 40245, Control_c, 0, 67, 41
1, 40260, Control_c, 0, 67, 42
1, 40275, Control_c, 0, 67, 42
1, 40290, Control_c, 0, 67, 43
1, 40300, Poly_aftertouch_c, 0, 67, 0
1, 40304, Control_c, 0, 67, 43
1, 40319, Control_c, 0, 67, 44
1, 40334, Control_c, 0, 67, 45
1, 40349, Control_c, 0, 67, 46
1, 40364, Control_c, 0, 67, 46
1, 40379, Control_c, 0, 67, 47
1, 40394, Control_c, 0, 67, 47
1, 40409, Control_c, 0, 67, 48
1, 40424, Control_c, 0, 64, 102
1, 40424, Control_c, 0, 67, 48
1, 40439, Control_c, 0, 64, 84
1, 40453, Control_c, 0, 64, 70
1, 40468, Control_c, 0, 64, 64
1, 40483, Control_c, 0, 64, 62
1, 40497, Control_c, 0, 64, 61
1, 40512, Control_c, 0, 64, 61
1, 40527, Control_c, 0, 64, 60
1, 40542, Control_c, 0, 64, 60
1, 40586, Control_c, 0, 67, 48
1, 40601, Control_c, 0, 67, 47
1, 40616, Control_c, 0, 67, 47
1, 40631, Control_c, 0, 67, 46
1, 40653, Control_c, 0, 64, 60
1, 40653, Control_c, 0, 67, 45
1, 40668, Control_c, 0, 64, 61
1, 40668, Control_c, 0, 67, 44
1, 40683, Control_c, 0, 64, 62
1, 40683, Control_c, 0, 67, 43
1, 40697, Control_c, 0, 64, 62
1, 40697, Control_c, 0, 67, 42
1, 40712, Control_c, 0, 64, 63
1, 40712, Control_c, 0, 67, 42
1, 40727, Control_c, 0, 64, 64
1, 40727, Control_c, 0, 67, 41
1, 40742, Control_c, 0, 64, 65
1, 40742, Control_c, 0, 67, 40
1, 40757, Control_c, 0, 64, 68
1, 40757, Control_c, 0, 67, 40
1, 40767, Note_on_c, 0, 65, 47
1, 40770, Note_on_c, 0, 63, 45
1, 40772, Control_c, 0, 64, 73
1, 40772, Control_c, 0, 67, 39
1, 40782, Note_on_c, 0, 56, 26
1, 40784, Note_on_c, 0, 59, 31
1, 40787, Control_c, 0, 64, 81
1, 40787, Control_c, 0, 67, 39
1, 40802, Control_c, 0, 64, 95
1, 40802, Control_c, 0, 67, 38
1, 40817, Control_c, 0, 64, 127
1, 40817, Control_c, 0, 67, 38
1, 40832, Control_c, 0, 67, 37
1, 40847, Control_c, 0, 67, 37
1, 40876, Control_c, 0, 67, 36
1, 40906, Control_c, 0, 67, 35
1, 40913, Note_off_c, 0, 56, 41
1, 40920, Control_c, 0, 67, 34
1, 40922, Note_off_c, 0, 59, 43
1, 40935, Control_c, 0, 67, 32
1, 40941, Note_off_c, 0, 65, 46
1, 40946, Note_off_c, 0, 63, 41
1, 40950, Control_c, 0, 67, 29
1, 40965, Control_c, 0, 67, 26
1, 40980, Control_c, 0, 67, 24
1, 40994, Control_c, 0, 67, 22
1, 41009, Control_c, 0, 67, 20
1, 41024, Control_c, 0, 67, 18
1, 41039, Control_c, 0, 67, 16
1, 41098, Control_c, 0, 67, 0
1, 41109, Note_on_c, 0, 65, 68
1, 41112, Note_on_c, 0, 56, 44
1, 41112, Note_on_c, 0, 59, 45
1, 41112, Note_on_c, 0, 63, 54
1, 41113, Control_c, 0, 64, 111
1, 41127, Control_c, 0, 64, 103
1, 41157, Control_c, 0, 64, 107
1, 41172, Control_c, 0, 64, 127
1, 41252, Note_off_c, 0, 59, 35
1, 41256, Note_off_c, 0, 56, 44
1, 41262, Note_off_c, 0, 63, 41
1, 41416, Control_c, 0, 64, 110
1, 41428, Note_on_c, 0, 63, 37
1, 41431, Control_c, 0, 64, 90
1, 41440, Note_on_c, 0, 66, 78
1, 41446, Control_c, 0, 64, 78
1, 41449, Note_on_c, 0, 54, 47
1, 41456, Note_on_c, 0, 59, 40
1, 41461, Control_c, 0, 64, 71
1, 41476, Control_c, 0, 64, 69
1, 41491, Control_c, 0, 64, 70
1, 41501, Note_off_c, 0, 65, 56
1, 41506, Control_c, 0, 64, 74
1, 41520, Control_c, 0, 64, 86
1, 41532, Note_off_c, 0, 63, 54
1, 41535, Control_c, 0, 64, 120
1, 41550, Control_c, 0, 64, 127
1, 41574, Note_off_c, 0, 54, 34
1, 41585, Note_off_c, 0, 59, 34
1, 41795, Note_on_c, 0, 68, 72
1, 41801, Note_on_c, 0, 63, 49
1, 41805, Note_on_c, 0, 59, 40
1, 41808, Note_on_c, 0, 53, 45
1, 41817, Control_c, 0, 64, 95
1, 41832, Control_c, 0, 64, 76
1, 41847, Control_c, 0, 64, 62
1, 41861, Note_off_c, 0, 66, 56
1, 41862, Control_c, 0, 64, 45
1, 41877, Control_c, 0, 64, 23
1, 41891, Control_c, 0, 64, 0
1, 42024, Control_c, 0, 64, 19
1, 42039, Control_c, 0, 64, 31
1, 42054, Control_c, 0, 64, 43
1, 42069, Control_c, 0, 64, 54
1, 42084, Control_c, 0, 64, 64
1, 42099, Control_c, 0, 64, 69
1, 42114, Control_c, 0, 64, 77
1, 42129, Control_c, 0, 64, 91
1, 42150, Control_c, 0, 64, 127
1, 42179, Note_off_c, 0, 59, 40
1, 42210, Note_off_c, 0, 53, 38
1, 42314, Control_c, 0, 67, 20
1, 42329, Control_c, 0, 67, 26
1, 42343, Control_c, 0, 67, 33
1, 42358, Control_c, 0, 67, 39
1, 42373, Control_c, 0, 67, 46
1, 42388, Control_c, 0, 67, 52
1, 42403, Control_c, 0, 67, 58
1, 42418, Control_c, 0, 67, 62
1, 42433, Control_c, 0, 67, 63
1, 42478, Control_c, 0, 64, 117
1, 42492, Control_c, 0, 64, 101
1, 42492, Control_c, 0, 67, 63
1, 42498, Note_on_c, 0, 62, 55
1, 42507, Control_c, 0, 64, 89
1, 42507, Control_c, 0, 67, 64
1, 42522, Control_c, 0, 64, 80
1, 42522, Control_c, 0, 67, 65
1, 42537, Control_c, 0, 64, 73
1, 42537, Control_c, 0, 67, 66
1, 42552, Control_c, 0, 64, 70
1, 42552, Control_c, 0, 67, 67
1, 42561, Note_off_c, 0, 63, 42
1, 42566, Control_c, 0, 64, 69
1, 42566, Control_c, 0, 67, 67
1, 42567, Note_off_c, 0, 68, 41
1, 42581, Control_c, 0, 64, 67
1, 42596, Control_c, 0, 64, 64
1, 42596, Control_c, 0, 67, 68
1, 42611, Control_c, 0, 64, 61
1, 42611, Control_c, 0, 67, 69
1, 42616, Note_off_c, 0, 62, 57
1, 42626, Control_c, 0, 64, 57
1, 42640, Control_c, 0, 64, 55
1, 42655, Control_c, 0, 64, 54
1, 42670, Control_c, 0, 64, 53
1, 42699, Control_c, 0, 67, 68
1, 42714, Control_c, 0, 67, 67
1, 42729, Control_c, 0, 67, 66
1, 42744, Control_c, 0, 67, 65
1, 42758, Control_c, 0, 67, 64
1, 42773, Control_c, 0, 67, 63
1, 42788, Control_c, 0, 67, 62
1, 42803, Control_c, 0, 67, 61
1, 42818, Control_c, 0, 67, 61
1, 42832, Control_c, 0, 67, 60
1, 42862, Control_c, 0, 67, 59
1, 42877, Control_c, 0, 64, 54
1, 42877, Control_c, 0, 67, 59
1, 42879, Note_on_c, 0, 77, 49
1, 42894, Note_on_c, 0, 75, 44
1, 42899, Control_c, 0, 64, 58
1, 42899, Control_c, 0, 67, 58
1, 42902, Note_on_c, 0, 71, 33
1, 42904, Note_on_c, 0, 68, 33
1, 42914, Control_c, 0, 64, 62
1, 42914, Control_c, 0, 67, 57
1, 42929, Control_c, 0, 64, 67
1, 42929, Control_c, 0, 67, 55
1, 42944, Control_c, 0, 64, 75
1, 42944, Control_c, 0, 67, 54
1, 42959, Control_c, 0, 64, 91
1, 42959, Control_c, 0, 67, 51
1, 42973, Control_c, 0, 64, 127
1, 42973, Control_c, 0, 67, 49
1, 42982, Note_off_c, 0, 71, 38
1, 42988, Control_c, 0, 67, 46
1, 42998, Note_off_c, 0, 68, 35
1, 43003, Control_c, 0, 67, 43
1, 43012, Note_off_c, 0, 77, 49
1, 43018, Control_c, 0, 67, 41
1, 43020, Note_off_c, 0, 75, 39
1, 43033, Control_c, 0, 67, 38
1, 43062, Control_c, 0, 67, 36
1, 43077, Control_c, 0, 67, 34
1, 43092, Control_c, 0, 67, 33
1, 43107, Control_c, 0, 67, 33
1, 43121, Control_c, 0, 67, 32
1, 43136, Control_c, 0, 67, 32
1, 43151, Control_c, 0, 67, 31
1, 43167, Control_c, 0, 67, 31
1, 43196, Control_c, 0, 67, 30
1, 43210, Note_on_c, 0, 77, 58
1, 43211, Control_c, 0, 67, 28
1, 43217, Note_on_c, 0, 68, 39
1, 43218, Note_on_c, 0, 75, 45
1, 43225, Note_on_c, 0, 71, 38
1, 43226, Control_c, 0, 67, 26
1, 43241, Control_c, 0, 67, 25
1, 43256, Control_c, 0, 67, 24
1, 43270, Control_c, 0, 67, 24
1, 43271, Note_off_c, 0, 71, 54
1, 43285, Control_c, 0, 67, 22
1, 43300, Control_c, 0, 67, 21
1, 43315, Control_c, 0, 67, 20
1, 43321, Note_off_c, 0, 68, 35
1, 43330, Control_c, 0, 67, 20
1, 43338, Note_off_c, 0, 75, 35
1, 43345, Control_c, 0, 67, 19
1, 43360, Control_c, 0, 67, 18
1, 43375, Control_c, 0, 67, 18
1, 43389, Control_c, 0, 67, 17
1, 43404, Control_c, 0, 67, 16
1, 43478, Control_c, 0, 64, 103
1, 43493, Control_c, 0, 64, 82
1, 43507, Control_c, 0, 64, 67
1, 43522, Control_c, 0, 64, 63
1, 43544, Note_on_c, 0, 78, 68
1, 43545, Note_on_c, 0, 75, 17
1, 43548, Note_on_c, 0, 66, 37
1, 43552, Control_c, 0, 64, 66
1, 43554, Note_on_c, 0, 71, 32
1, 43567, Control_c, 0, 64, 71
1, 43580, Note_off_c, 0, 77, 53
1, 43581, Control_c, 0, 64, 81
1, 43596, Control_c, 0, 64, 99
1, 43604, Note_off_c, 0, 66, 54
1, 43607, Note_off_c, 0, 71, 43
1, 43611, Control_c, 0, 64, 127
1, 43620, Note_off_c, 0, 75, 49
1, 43920, Note_on_c, 0, 80, 63
1, 43929, Note_on_c, 0, 71, 36
1, 43929, Control_c, 0, 64, 104
1, 43930, Note_on_c, 0, 75, 50
1, 43932, Note_on_c, 0, 65, 39
1, 43944, Control_c, 0, 64, 90
1, 43960, Control_c, 0, 64, 77
1, 43960, Control_c, 0, 67, 0
1, 43975, Control_c, 0, 64, 66
1, 43985, Note_off_c, 0, 78, 51
1, 43990, Control_c, 0, 64, 60
1, 44005, Control_c, 0, 64, 56
1, 44093, Control_c, 0, 64, 57
1, 44108, Control_c, 0, 64, 57
1, 44123, Control_c, 0, 64, 59
1, 44138, Control_c, 0, 64, 62
1, 44153, Control_c, 0, 64, 65
1, 44168, Control_c, 0, 64, 70
1, 44183, Control_c, 0, 64, 78
1, 44197, Note_off_c, 0, 71, 38
1, 44198, Control_c, 0, 64, 93
1, 44212, Control_c, 0, 64, 127
1, 44269, Note_off_c, 0, 75, 39
1, 44302, Note_off_c, 0, 65, 39
1, 44545, Control_c, 0, 64, 116
1, 44560, Control_c, 0, 64, 106
1, 44575, Control_c, 0, 64, 98
1, 44586, Note_off_c, 0, 80, 36
1, 44590, Control_c, 0, 64, 92
1, 44605, Control_c, 0, 64, 87
1, 44619, Control_c, 0, 64, 81
1, 44630, Note_on_c, 0, 74, 51
1, 44634, Control_c, 0, 64, 72
1, 44649, Control_c, 0, 64, 65
1, 44663, Control_c, 0, 64, 59
1, 44678, Control_c, 0, 64, 54
1, 44693, Control_c, 0, 64, 52
1, 44708, Control_c, 0, 64, 51
1, 44723, Control_c, 0, 64, 50
1, 44737, Control_c, 0, 64, 48
1, 44752, Control_c, 0, 64, 45
1, 44758, Note_off_c, 0, 74, 61
1, 44768, Control_c, 0, 64, 44
1, 44783, Control_c, 0, 64, 44
1, 44946, Control_c, 0, 64, 44
1, 44961, Control_c, 0, 64, 46
1, 44976, Control_c, 0, 64, 48
1, 44990, Control_c, 0, 64, 52
1, 45002, Note_on_c, 0, 67, 50
1, 45005, Control_c, 0, 64, 58
1, 45008, Note_on_c, 0, 58, 34
1, 45011, Note_on_c, 0, 65, 42
1, 45014, Note_on_c, 0, 61, 33
1, 45020, Control_c, 0, 64, 65
1, 45035, Control_c, 0, 64, 72
1, 45050, Control_c, 0, 64, 85
1, 45065, Control_c, 0, 64, 105
1, 45080, Control_c, 0, 64, 127
1, 45160, Note_off_c, 0, 61, 38
1, 45173, Note_off_c, 0, 58, 36
1, 45190, Note_off_c, 0, 65, 36
1, 45222, Note_off_c, 0, 67, 35
1, 45327, Note_on_c, 0, 58, 46
1, 45330, Note_on_c, 0, 61, 47
1, 45332, Note_on_c, 0, 67, 79
1, 45345, Note_on_c, 0, 65, 65
1, 45444, Note_off_c, 0, 61, 51
1, 45451, Note_off_c, 0, 65, 36
1, 45461, Note_off_c, 0, 58, 35
1, 45650, Note_on_c, 0, 68, 84
1, 45651, Control_c, 0, 64, 90
1, 45653, Note_on_c, 0, 61, 61
1, 45661, Note_on_c, 0, 65, 59
1, 45663, Note_on_c, 0, 56, 57
1, 45665, Control_c, 0, 64, 71
1, 45680, Control_c, 0, 64, 63
1, 45695, Control_c, 0, 64, 62
1, 45709, Control_c, 0, 64, 63
1, 45715, Note_off_c, 0, 67, 59
1, 45724, Control_c, 0, 64, 67
1, 45730, Note_off_c, 0, 65, 40
1, 45739, Control_c, 0, 64, 75
1, 45754, Control_c, 0, 64, 95
1, 45769, Control_c, 0, 64, 127
1, 45813, Note_off_c, 0, 61, 45
1, 45845, Note_off_c, 0, 56, 32
1, 46013, Control_c, 0, 64, 93
1, 46016, Note_on_c, 0, 61, 51
1, 46019, Note_on_c, 0, 70, 79
1, 46025, Note_on_c, 0, 65, 62
1, 46026, Note_on_c, 0, 55, 51
1, 46028, Control_c, 0, 64, 73
1, 46043, Control_c, 0, 64, 59
1, 46058, Control_c, 0, 64, 42
1, 46073, Control_c, 0, 64, 0
1, 46075, Note_off_c, 0, 68, 55
1, 46250, Control_c, 0, 64, 28
1, 46265, Control_c, 0, 64, 52
1, 46280, Control_c, 0, 64, 65
1, 46295, Control_c, 0, 64, 74
1, 46309, Control_c, 0, 64, 90
1, 46324, Control_c, 0, 64, 127
1, 46370, Note_off_c, 0, 55, 39
1, 46464, Note_off_c, 0, 61, 36
1, 46703, Control_c, 0, 64, 111
1, 46711, Note_off_c, 0, 70, 24
1, 46717, Note_on_c, 0, 64, 54
1, 46718, Control_c, 0, 64, 90
1, 46718, Control_c, 0, 67, 16
1, 46732, Control_c, 0, 64, 74
1, 46732, Control_c, 0, 67, 19
1, 46747, Control_c, 0, 64, 63
1, 46747, Control_c, 0, 67, 23
1, 46762, Control_c, 0, 64, 55
1, 46762, Control_c, 0, 67, 26
1, 46764, Note_off_c, 0, 65, 37
1, 46777, Control_c, 0, 64, 52
1, 46777, Control_c, 0, 67, 28
1, 46791, Control_c, 0, 64, 50
1, 46791, Control_c, 0, 67, 29
1, 46806, Control_c, 0, 64, 47
1, 46809, Note_off_c, 0, 64, 60
1, 46821, Control_c, 0, 64, 43
1, 46836, Control_c, 0, 64, 36
1, 46851, Control_c, 0, 64, 25
1, 46865, Control_c, 0, 67, 28
1, 46880, Control_c, 0, 64, 0
1, 46880, Control_c, 0, 67, 27
1, 46970, Control_c, 0, 67, 28
1, 46985, Control_c, 0, 67, 28
1, 47000, Control_c, 0, 67, 29
1, 47044, Control_c, 0, 64, 18
1, 47044, Control_c, 0, 67, 28
1, 47058, Control_c, 0, 64, 35
1, 47066, Note_on_c, 0, 73, 48
1, 47068, Note_on_c, 0, 79, 50
1, 47073, Control_c, 0, 64, 53
1, 47073, Control_c, 0, 67, 27
1, 47074, Note_on_c, 0, 70, 34
1, 47076, Note_on_c, 0, 77, 33
1, 47088, Control_c, 0, 64, 67
1, 47088, Control_c, 0, 67, 27
1, 47103, Control_c, 0, 64, 75
1, 47103, Control_c, 0, 67, 26
1, 47118, Control_c, 0, 64, 87
1, 47118, Control_c, 0, 67, 26
1, 47132, Control_c, 0, 64, 106
1, 47132, Control_c, 0, 67, 25
1, 47147, Control_c, 0, 64, 127
1, 47147, Control_c, 0, 67, 24
1, 47163, Control_c, 0, 67, 24
1, 47178, Control_c, 0, 67, 22
1, 47193, Note_off_c, 0, 77, 36
1, 47193, Control_c, 0, 67, 21
1, 47196, Note_off_c, 0, 73, 37
1, 47208, Control_c, 0, 67, 21
1, 47208, Note_off_c, 0, 70, 34
1, 47223, Control_c, 0, 67, 20
1, 47226, Note_off_c, 0, 79, 36
1, 47237, Control_c, 0, 67, 20
1, 47267, Control_c, 0, 67, 19
1, 47326, Control_c, 0, 67, 19
1, 47341, Control_c, 0, 67, 18
1, 47355, Control_c, 0, 67, 18
1, 47370, Control_c, 0, 67, 17
1, 47393, Control_c, 0, 64, 124
1, 47393, Control_c, 0, 67, 16
1, 47405, Note_on_c, 0, 79, 59
1, 47407, Control_c, 0, 64, 94
1, 47417, Note_on_c, 0, 73, 43
1, 47417, Note_on_c, 0, 70, 36
1, 47422, Control_c, 0, 64, 80
1, 47437, Control_c, 0, 64, 72
1, 47442, Note_on_c, 0, 77, 28
1, 47452, Control_c, 0, 64, 71
1, 47452, Control_c, 0, 67, 0
1, 47467, Control_c, 0, 64, 74
1, 47480, Note_off_c, 0, 77, 48
1, 47481, Control_c, 0, 64, 84
1, 47496, Control_c, 0, 64, 106
1, 47511, Control_c, 0, 64, 127
1, 47547, Note_off_c, 0, 73, 35
1, 47551, Note_off_c, 0, 70, 28
1, 47703, Control_c, 0, 64, 116
1, 47718, Control_c, 0, 64, 96
1, 47733, Control_c, 0, 64, 85
1, 47739, Note_on_c, 0, 77, 39
1, 47745, Note_on_c, 0, 73, 36
1, 47745, Note_on_c, 0, 80, 64
1, 47748, Control_c, 0, 64, 77
1, 47754, Note_on_c, 0, 68, 40
1, 47763, Control_c, 0, 64, 74
1, 47782, Note_off_c, 0, 77, 45
1, 47793, Control_c, 0, 64, 76
1, 47805, Note_off_c, 0, 79, 48
1, 47807, Control_c, 0, 64, 82
1, 47811, Note_off_c, 0, 68, 49
1, 47818, Note_off_c, 0, 73, 51
1, 47822, Control_c, 0, 64, 96
1, 47837, Control_c, 0, 64, 127
1, 48075, Control_c, 0, 64, 110
1, 48090, Control_c, 0, 64, 98
1, 48104, Control_c, 0, 64, 85
1, 48119, Control_c, 0, 64, 73
1, 48120, Note_on_c, 0, 77, 42
1, 48123, Note_on_c, 0, 82, 59
1, 48141, Control_c, 0, 64, 64
1, 48148, Note_on_c, 0, 73, 35
1, 48156, Control_c, 0, 64, 56
1, 48159, Note_on_c, 0, 67, 30
1, 48171, Control_c, 0, 64, 49
1, 48186, Control_c, 0, 64, 46
1, 48191, Note_off_c, 0, 80, 36
1, 48201, Control_c, 0, 64, 45
1, 48230, Control_c, 0, 64, 44
1, 48245, Control_c, 0, 64, 44
1, 48304, Control_c, 0, 64, 45
1, 48319, Control_c, 0, 64, 49
1, 48334, Control_c, 0, 64, 54
1, 48349, Control_c, 0, 64, 59
1, 48364, Control_c, 0, 64, 64
1, 48378, Control_c, 0, 64, 69
1, 48393, Control_c, 0, 64, 75
1, 48408, Control_c, 0, 64, 83
1, 48423, Control_c, 0, 64, 93
1, 48437, Control_c, 0, 64, 101
1, 48452, Control_c, 0, 64, 110
1, 48467, Control_c, 0, 64, 127
1, 48544, Note_off_c, 0, 73, 41
1, 48658, Note_off_c, 0, 67, 35
1, 48704, Control_c, 0, 64, 122
1, 48719, Control_c, 0, 64, 112
1, 48734, Control_c, 0, 64, 109
1, 48749, Control_c, 0, 64, 107
1, 48764, Control_c, 0, 64, 104
1, 48779, Control_c, 0, 64, 99
1, 48794, Control_c, 0, 64, 93
1, 48809, Control_c, 0, 64, 86
1, 48824, Control_c, 0, 64, 80
1, 48839, Control_c, 0, 64, 73
1, 48846, Note_on_c, 0, 76, 47
1, 48853, Control_c, 0, 64, 67
1, 48866, Note_off_c, 0, 82, 40
1, 48868, Control_c, 0, 64, 62
1, 48890, Control_c, 0, 64, 57
1, 48898, Note_off_c, 0, 77, 52
1, 48905, Control_c, 0, 64, 52
1, 48920, Control_c, 0, 64, 49
1, 48934, Control_c, 0, 64, 46
1, 48949, Control_c, 0, 64, 45
1, 48964, Control_c, 0, 64, 44
1, 48993, Note_off_c, 0, 76, 36
1, 49009, Control_c, 0, 64, 44
1, 49053, Control_c, 0, 64, 43
1, 49128, Control_c, 0, 64, 43
1, 49173, Control_c, 0, 64, 42
1, 49188, Control_c, 0, 64, 42
1, 49202, Control_c, 0, 64, 41
1, 49217, Control_c, 0, 64, 40
1, 49217, Note_on_c, 0, 85, 53
1, 49232, Control_c, 0, 64, 39
1, 49247, Control_c, 0, 64, 38
1, 49261, Control_c, 0, 64, 38
1, 49276, Control_c, 0, 64, 37
1, 49291, Control_c, 0, 64, 36
1, 49306, Control_c, 0, 64, 35
1, 49321, Control_c, 0, 64, 34
1, 49335, Control_c, 0, 64, 32
1, 49350, Control_c, 0, 64, 31
1, 49365, Control_c, 0, 64, 29
1, 49379, Control_c, 0, 64, 28
1, 49394, Control_c, 0, 64, 27
1, 49409, Control_c, 0, 64, 26
1, 49424, Control_c, 0, 64, 24
1, 49439, Control_c, 0, 64, 22
1, 49453, Control_c, 0, 64, 19
1, 49498, Control_c, 0, 64, 0
1, 49542, Note_on_c, 0, 70, 43
1, 49545, Note_on_c, 0, 66, 37
1, 49551, Note_on_c, 0, 76, 57
1, 49613, Note_off_c, 0, 76, 62
1, 49614, Note_off_c, 0, 70, 57
1, 49627, Note_off_c, 0, 66, 58
1, 49637, Note_off_c, 0, 85, 60
1, 50235, Note_on_c, 0, 89, 94
1, 50577, Note_on_c, 0, 69, 89
1, 50580, Note_on_c, 0, 77, 93
1, 50584, Note_on_c, 0, 65, 81
1, 50620, Note_off_c, 0, 69, 64
1, 50628, Note_off_c, 0, 89, 64
1, 50630, Note_off_c, 0, 65, 61
1, 50633, Note_off_c, 0, 77, 63
1, 50916, Note_on_c, 0, 53, 97
1, 50967, Note_off_c, 0, 53, 67
1, 51256, Note_on_c, 0, 41, 90
1, 51309, Note_off_c, 0, 41, 67
1, 51612, Note_on_c, 0, 29, 91
1, 51668, Note_off_c, 0, 29, 66
1, 52098, Note_on_c, 0, 77, 67
1, 52122, Note_off_c, 0, 77, 64
1, 52282, Note_on_c, 0, 50, 50
1, 52283, Note_on_c, 0, 82, 77
1, 52331, Control_c, 0, 64, 28
1, 52338, Note_off_c, 0, 50, 55
1, 52345, Control_c, 0, 64, 62
1, 52360, Control_c, 0, 64, 72
1, 52375, Control_c, 0, 64, 86
1, 52380, Note_on_c, 0, 58, 44
1, 52390, Control_c, 0, 64, 127
1, 52411, Note_off_c, 0, 58, 53
1, 52437, Note_on_c, 0, 53, 56
1, 52478, Control_c, 0, 67, 17
1, 52479, Note_off_c, 0, 53, 58
1, 52493, Control_c, 0, 67, 32
1, 52508, Control_c, 0, 67, 49
1, 52510, Note_on_c, 0, 58, 57
1, 52523, Control_c, 0, 67, 66
1, 52538, Control_c, 0, 67, 75
1, 52547, Note_off_c, 0, 58, 58
1, 52553, Control_c, 0, 67, 79
1, 52583, Control_c, 0, 67, 77
1, 52597, Control_c, 0, 64, 99
1, 52597, Control_c, 0, 67, 75
1, 52606, Note_on_c, 0, 50, 46
1, 52612, Control_c, 0, 64, 86
1, 52612, Control_c, 0, 67, 73
1, 52634, Control_c, 0, 64, 76
1, 52634, Control_c, 0, 67, 71
1, 52640, Note_off_c, 0, 50, 56
1, 52649, Control_c, 0, 64, 66
1, 52649, Control_c, 0, 67, 69
1, 52664, Control_c, 0, 64, 59
1, 52664, Control_c, 0, 67, 69
1, 52674, Note_on_c, 0, 58, 52
1, 52678, Control_c, 0, 64, 50
1, 52678, Control_c, 0, 67, 68
1, 52693, Control_c, 0, 64, 50
1, 52693, Control_c, 0, 67, 67
1, 52708, Control_c, 0, 64, 47
1, 52708, Control_c, 0, 67, 66
1, 52717, Note_off_c, 0, 58, 61
1, 52723, Control_c, 0, 64, 45
1, 52723, Control_c, 0, 67, 65
1, 52738, Control_c, 0, 64, 42
1, 52752, Note_off_c, 0, 82, 58
1, 52754, Control_c, 0, 64, 37
1, 52760, Note_on_c, 0, 53, 50
1, 52766, Note_on_c, 0, 81, 65
1, 52769, Control_c, 0, 64, 34
1, 52783, Control_c, 0, 64, 34
1, 52783, Control_c, 0, 67, 65
1, 52798, Control_c, 0, 67, 64
1, 52809, Note_off_c, 0, 53, 55
1, 52813, Control_c, 0, 67, 63
1, 52827, Control_c, 0, 67, 62
1, 52839, Note_on_c, 0, 82, 72
1, 52842, Control_c, 0, 67, 59
1, 52845, Note_on_c, 0, 58, 53
1, 52856, Note_off_c, 0, 81, 57
1, 52857, Control_c, 0, 67, 56
1, 52872, Control_c, 0, 67, 52
1, 52875, Note_off_c, 0, 58, 54
1, 52887, Control_c, 0, 67, 50
1, 52902, Note_on_c, 0, 84, 77
1, 52902, Control_c, 0, 67, 48
1, 52914, Note_on_c, 0, 50, 50
1, 52917, Control_c, 0, 67, 46
1, 52924, Note_off_c, 0, 82, 57
1, 52932, Control_c, 0, 67, 44
1, 52946, Control_c, 0, 67, 42
1, 52948, Note_off_c, 0, 50, 62
1, 52961, Control_c, 0, 67, 42
1, 52976, Control_c, 0, 67, 41
1, 52981, Note_on_c, 0, 58, 45
1, 53006, Control_c, 0, 67, 40
1, 53020, Control_c, 0, 67, 37
1, 53024, Note_off_c, 0, 58, 60
1, 53035, Control_c, 0, 67, 33
1, 53050, Control_c, 0, 67, 28
1, 53058, Note_on_c, 0, 82, 77
1, 53059, Note_on_c, 0, 53, 52
1, 53065, Control_c, 0, 67, 38
1, 53067, Note_off_c, 0, 84, 56
1, 53080, Control_c, 0, 67, 35
1, 53090, Note_off_c, 0, 82, 64
1, 53094, Control_c, 0, 67, 32
1, 53104, Note_off_c, 0, 53, 58
1, 53109, Control_c, 0, 64, 33
1, 53109, Control_c, 0, 67, 29
1, 53124, Control_c, 0, 64, 31
1, 53124, Control_c, 0, 67, 25
1, 53139, Control_c, 0, 64, 26
1, 53139, Control_c, 0, 67, 22
1, 53140, Note_on_c, 0, 58, 52
1, 53153, Control_c, 0, 64, 21
1, 53153, Control_c, 0, 67, 18
1, 53168, Control_c, 0, 64, 17
1, 53177, Note_off_c, 0, 58, 62
1, 53198, Control_c, 0, 64, 26
1, 53198, Control_c, 0, 67, 0
1, 53213, Control_c, 0, 64, 54
1, 53215, Note_on_c, 0, 77, 70
1, 53224, Note_on_c, 0, 50, 52
1, 53227, Control_c, 0, 64, 70
1, 53242, Control_c, 0, 64, 81
1, 53256, Note_off_c, 0, 50, 60
1, 53257, Control_c, 0, 64, 99
1, 53272, Control_c, 0, 64, 108
1, 53292, Note_on_c, 0, 58, 56
1, 53301, Control_c, 0, 64, 101
1, 53316, Control_c, 0, 64, 86
1, 53331, Control_c, 0, 64, 73
1, 53336, Note_off_c, 0, 58, 58
1, 53346, Control_c, 0, 64, 61
1, 53361, Control_c, 0, 64, 46
1, 53379, Note_on_c, 0, 53, 55
1, 53383, Control_c, 0, 64, 28
1, 53428, Note_off_c, 0, 53, 55
1, 53462, Note_on_c, 0, 58, 58
1, 53495, Note_off_c, 0, 58, 62
1, 53543, Note_on_c, 0, 50, 52
1, 53570, Note_off_c, 0, 50, 59
1, 53605, Note_on_c, 0, 58, 51
1, 53620, Control_c, 0, 64, 0
1, 53644, Note_off_c, 0, 58, 59
1, 53671, Note_off_c, 0, 77, 57
1, 53682, Note_on_c, 0, 79, 65
1, 53687, Note_on_c, 0, 53, 52
1, 53729, Note_off_c, 0, 53, 60
1, 53751, Note_on_c, 0, 77, 68
1, 53758, Note_off_c, 0, 79, 61
1, 53763, Note_on_c, 0, 58, 52
1, 53802, Note_off_c, 0, 58, 61
1, 53827, Note_on_c, 0, 75, 72
1, 53841, Note_on_c, 0, 50, 52
1, 53846, Note_off_c, 0, 77, 57
1, 53871, Note_off_c, 0, 50, 60
1, 53918, Note_on_c, 0, 58, 47
1, 53950, Note_off_c, 0, 58, 54
1, 53981, Note_on_c, 0, 53, 52
1, 53986, Note_on_c, 0, 74, 73
1, 53990, Note_off_c, 0, 75, 60
1, 54011, Note_off_c, 0, 74, 65
1, 54017, Note_off_c, 0, 53, 63
1, 54051, Note_on_c, 0, 58, 52
1, 54091, Note_off_c, 0, 58, 60
1, 54146, Note_on_c, 0, 78, 77
1, 54149, Note_on_c, 0, 51, 49
1, 54202, Note_off_c, 0, 51, 55
1, 54215, Note_on_c, 0, 79, 75
1, 54222, Note_off_c, 0, 78, 61
1, 54229, Note_on_c, 0, 58, 51
1, 54236, Note_off_c, 0, 79, 67
1, 54255, Note_off_c, 0, 58, 57
1, 54300, Note_on_c, 0, 55, 51
1, 54345, Note_off_c, 0, 55, 60
1, 54382, Note_on_c, 0, 58, 49
1, 54424, Note_off_c, 0, 58, 62
1, 54452, Note_on_c, 0, 78, 74
1, 54467, Note_on_c, 0, 51, 47
1, 54501, Note_off_c, 0, 51, 61
1, 54524, Note_on_c, 0, 79, 79
1, 54532, Note_off_c, 0, 78, 61
1, 54541, Note_on_c, 0, 58, 46
1, 54541, Note_off_c, 0, 79, 70
1, 54577, Note_off_c, 0, 58, 59
1, 54602, Note_on_c, 0, 55, 48
1, 54648, Note_off_c, 0, 55, 58
1, 54688, Note_on_c, 0, 58, 52
1, 54709, Control_c, 0, 67, 23
1, 54723, Control_c, 0, 67, 31
1, 54725, Note_off_c, 0, 58, 62
1, 54738, Control_c, 0, 67, 37
1, 54753, Control_c, 0, 67, 42
1, 54768, Control_c, 0, 67, 47
1, 54769, Note_on_c, 0, 51, 48
1, 54774, Note_on_c, 0, 74, 68
1, 54783, Control_c, 0, 67, 54
1, 54798, Control_c, 0, 67, 59
1, 54809, Note_off_c, 0, 51, 62
1, 54813, Control_c, 0, 67, 62
1, 54827, Control_c, 0, 67, 63
1, 54838, Note_on_c, 0, 75, 73
1, 54842, Control_c, 0, 67, 62
1, 54848, Note_off_c, 0, 74, 60
1, 54854, Note_on_c, 0, 59, 50
1, 54857, Control_c, 0, 67, 61
1, 54869, Note_off_c, 0, 75, 66
1, 54879, Control_c, 0, 67, 60
1, 54894, Control_c, 0, 67, 59
1, 54896, Note_off_c, 0, 59, 60
1, 54909, Control_c, 0, 67, 58
1, 54923, Control_c, 0, 67, 58
1, 54930, Note_on_c, 0, 55, 49
1, 54968, Control_c, 0, 67, 57
1, 54984, Note_off_c, 0, 55, 53
1, 54997, Control_c, 0, 67, 57
1, 55012, Note_on_c, 0, 59, 45
1, 55012, Control_c, 0, 67, 56
1, 55027, Control_c, 0, 67, 56
1, 55042, Control_c, 0, 67, 55
1, 55057, Note_off_c, 0, 59, 61
1, 55101, Note_on_c, 0, 51, 42
1, 55101, Note_on_c, 0, 71, 54
1, 55131, Control_c, 0, 67, 55
1, 55137, Note_off_c, 0, 51, 58
1, 55161, Control_c, 0, 67, 54
1, 55162, Note_on_c, 0, 72, 60
1, 55167, Note_off_c, 0, 71, 59
1, 55176, Control_c, 0, 67, 53
1, 55188, Note_on_c, 0, 60, 48
1, 55191, Control_c, 0, 67, 52
1, 55195, Note_off_c, 0, 72, 63
1, 55206, Control_c, 0, 67, 51
1, 55221, Control_c, 0, 67, 51
1, 55228, Note_off_c, 0, 60, 61
1, 55236, Control_c, 0, 67, 50
1, 55251, Control_c, 0, 67, 49
1, 55258, Note_on_c, 0, 55, 44
1, 55266, Control_c, 0, 67, 47
1, 55281, Control_c, 0, 67, 44
1, 55295, Control_c, 0, 67, 40
1, 55301, Note_off_c, 0, 55, 60
1, 55310, Control_c, 0, 67, 36
1, 55325, Control_c, 0, 67, 37
1, 55334, Note_on_c, 0, 60, 56
1, 55339, Control_c, 0, 67, 30
1, 55354, Control_c, 0, 67, 24
1, 55369, Control_c, 0, 67, 18
1, 55371, Note_off_c, 0, 60, 61
1, 55402, Note_on_c, 0, 51, 51
1, 55414, Control_c, 0, 67, 0
1, 55439, Note_off_c, 0, 51, 63
1, 55479, Note_on_c, 0, 60, 57
1, 55513, Note_off_c, 0, 60, 61
1, 55551, Note_on_c, 0, 55, 51
1, 55593, Note_off_c, 0, 55, 60
1, 55632, Note_on_c, 0, 60, 61
1, 55675, Note_off_c, 0, 60, 59
1, 55715, Note_on_c, 0, 52, 58
1, 55749, Note_off_c, 0, 52, 63
1, 55793, Note_on_c, 0, 60, 54
1, 55822, Note_off_c, 0, 60, 58
1, 55850, Note_on_c, 0, 84, 75
1, 55859, Note_on_c, 0, 58, 54
1, 55872, Note_off_c, 0, 84, 68
1, 55899, Note_off_c, 0, 58, 61
1, 55936, Note_on_c, 0, 60, 46
1, 55996, Note_off_c, 0, 60, 50
1, 56031, Note_on_c, 0, 53, 53
1, 56032, Note_on_c, 0, 87, 80
1, 56044, Control_c, 0, 64, 23
1, 56059, Control_c, 0, 64, 56
1, 56074, Control_c, 0, 64, 75
1, 56089, Control_c, 0, 64, 97
1, 56104, Control_c, 0, 64, 127
1, 56111, Note_off_c, 0, 53, 36
1, 56119, Note_on_c, 0, 60, 55
1, 56178, Note_off_c, 0, 60, 52
1, 56199, Note_on_c, 0, 57, 51
1, 56279, Note_off_c, 0, 57, 52
1, 56305, Note_on_c, 0, 60, 59
1, 56339, Note_off_c, 0, 60, 60
1, 56370, Note_on_c, 0, 53, 62
1, 56407, Control_c, 0, 64, 112
1, 56414, Note_off_c, 0, 53, 53
1, 56422, Control_c, 0, 64, 102
1, 56437, Control_c, 0, 64, 97
1, 56449, Note_on_c, 0, 60, 60
1, 56452, Control_c, 0, 64, 93
1, 56467, Control_c, 0, 64, 89
1, 56481, Control_c, 0, 64, 85
1, 56495, Control_c, 0, 64, 81
1, 56498, Note_off_c, 0, 60, 57
1, 56508, Note_off_c, 0, 87, 60
1, 56510, Control_c, 0, 64, 78
1, 56525, Note_on_c, 0, 89, 71
1, 56525, Control_c, 0, 64, 75
1, 56530, Note_on_c, 0, 57, 54
1, 56540, Control_c, 0, 64, 73
1, 56555, Control_c, 0, 64, 71
1, 56569, Control_c, 0, 64, 70
1, 56570, Note_off_c, 0, 57, 60
1, 56583, Note_on_c, 0, 87, 76
1, 56584, Control_c, 0, 64, 70
1, 56598, Note_off_c, 0, 89, 60
1, 56599, Control_c, 0, 64, 69
1, 56614, Control_c, 0, 64, 68
1, 56616, Note_on_c, 0, 60, 60
1, 56629, Control_c, 0, 64, 66
1, 56643, Control_c, 0, 64, 64
1, 56646, Note_off_c, 0, 60, 62
1, 56649, Note_on_c, 0, 86, 80
1, 56673, Control_c, 0, 64, 64
1, 56678, Note_on_c, 0, 53, 62
1, 56678, Note_off_c, 0, 87, 62
1, 56688, Control_c, 0, 64, 63
1, 56702, Control_c, 0, 64, 62
1, 56717, Control_c, 0, 64, 60
1, 56723, Note_off_c, 0, 53, 58
1, 56732, Control_c, 0, 64, 58
1, 56748, Control_c, 0, 64, 57
1, 56762, Note_on_c, 0, 60, 59
1, 56763, Control_c, 0, 64, 56
1, 56778, Control_c, 0, 64, 55
1, 56792, Control_c, 0, 64, 53
1, 56798, Note_off_c, 0, 60, 59
1, 56807, Control_c, 0, 64, 49
1, 56810, Note_off_c, 0, 86, 62
1, 56817, Note_on_c, 0, 84, 79
1, 56822, Control_c, 0, 64, 43
1, 56828, Note_on_c, 0, 57, 57
1, 56837, Control_c, 0, 64, 35
1, 56852, Control_c, 0, 64, 25
1, 56866, Control_c, 0, 64, 16
1, 56871, Note_off_c, 0, 57, 59
1, 56878, Note_off_c, 0, 84, 60
1, 56896, Control_c, 0, 64, 0
1, 56926, Note_on_c, 0, 60, 52
1, 56950, Note_off_c, 0, 60, 56
1, 56980, Note_on_c, 0, 53, 54
1, 56985, Note_on_c, 0, 82, 75
1, 57025, Note_off_c, 0, 53, 58
1, 57061, Note_on_c, 0, 63, 61
1, 57126, Note_off_c, 0, 63, 54
1, 57150, Note_on_c, 0, 81, 82
1, 57150, Note_on_c, 0, 60, 60
1, 57185, Note_off_c, 0, 82, 60
1, 57211, Note_off_c, 0, 60, 52
1, 57237, Note_on_c, 0, 63, 61
1, 57267, Note_off_c, 0, 63, 64
1, 57290, Note_on_c, 0, 79, 78
1, 57295, Note_off_c, 0, 81, 62
1, 57309, Note_on_c, 0, 53, 63
1, 57359, Note_off_c, 0, 53, 51
1, 57374, Note_on_c, 0, 63, 63
1, 57417, Note_off_c, 0, 63, 61
1, 57451, Note_on_c, 0, 77, 84
1, 57463, Note_on_c, 0, 60, 57
1, 57481, Note_off_c, 0, 79, 56
1, 57519, Note_off_c, 0, 60, 51
1, 57528, Note_on_c, 0, 63, 71
1, 57569, Note_off_c, 0, 63, 60
1, 57606, Note_on_c, 0, 75, 89
1, 57613, Note_on_c, 0, 54, 62
1, 57634, Note_off_c, 0, 77, 59
1, 57651, Note_off_c, 0, 54, 64
1, 57683, Note_on_c, 0, 63, 61
1, 57729, Note_off_c, 0, 63, 51
1, 57762, Note_on_c, 0, 60, 65
1, 57762, Note_off_c, 0, 75, 62
1, 57765, Note_on_c, 0, 72, 88
1, 57820, Note_off_c, 0, 60, 51
1, 57844, Note_on_c, 0, 63, 64
1, 57888, Note_off_c, 0, 63, 57
1, 57936, Note_on_c, 0, 55, 61
1, 57938, Note_on_c, 0, 70, 83
1, 57965, Note_off_c, 0, 72, 59
1, 57993, Note_off_c, 0, 55, 55
1, 58030, Note_on_c, 0, 62, 58
1, 58075, Note_off_c, 0, 62, 57
1, 58087, Note_on_c, 0, 74, 83
1, 58099, Note_on_c, 0, 58, 56
1, 58115, Note_off_c, 0, 70, 59
1, 58138, Note_off_c, 0, 58, 63
1, 58183, Note_on_c, 0, 62, 64
1, 58217, Note_off_c, 0, 62, 60
1, 58249, Note_on_c, 0, 67, 75
1, 58253, Note_off_c, 0, 74, 56
1, 58261, Note_on_c, 0, 51, 58
1, 58307, Note_off_c, 0, 51, 58
1, 58345, Note_on_c, 0, 60, 60
1, 58394, Note_off_c, 0, 60, 59
1, 58402, Note_off_c, 0, 67, 48
1, 58402, Note_on_c, 0, 75, 70
1, 58416, Note_on_c, 0, 55, 51
1, 58497, Note_off_c, 0, 55, 49
1, 58502, Note_on_c, 0, 60, 53
1, 58555, Note_off_c, 0, 60, 57
1, 58565, Note_on_c, 0, 53, 57
1, 58571, Note_on_c, 0, 69, 69
1, 58619, Note_off_c, 0, 75, 47
1, 58645, Note_off_c, 0, 53, 54
1, 58652, Note_on_c, 0, 57, 53
1, 58710, Note_on_c, 0, 72, 64
1, 58716, Note_off_c, 0, 69, 56
1, 58718, Note_off_c, 0, 57, 58
1, 58738, Note_on_c, 0, 60, 57
1, 58774, Note_off_c, 0, 60, 60
1, 58817, Note_on_c, 0, 63, 61
1, 58868, Note_off_c, 0, 72, 45
1, 58924, Note_on_c, 0, 70, 62
1, 58932, Note_on_c, 0, 46, 45
1, 58932, Note_on_c, 0, 58, 55
1, 58943, Note_off_c, 0, 63, 53
1, 58994, Note_off_c, 0, 70, 57
1, 59026, Note_on_c, 0, 62, 63
1, 59110, Note_on_c, 0, 65, 69
1, 59126, Note_off_c, 0, 62, 49
1, 59156, Note_off_c, 0, 58, 58
1, 59171, Note_off_c, 0, 46, 57
1, 59188, Note_on_c, 0, 63, 70
1, 59189, Note_off_c, 0, 65, 61
1, 59251, Note_on_c, 0, 62, 70
1, 59256, Note_off_c, 0, 63, 60
1, 59334, Note_on_c, 0, 63, 74
1, 59346, Note_off_c, 0, 62, 55
1, 59411, Note_on_c, 0, 65, 72
1, 59413, Note_off_c, 0, 63, 60
1, 59472, Note_off_c, 0, 65, 58
1, 59493, Note_on_c, 0, 67, 73
1, 59576, Note_off_c, 0, 67, 58
1, 59579, Note_on_c, 0, 69, 73
1, 59656, Note_off_c, 0, 69, 63
1, 59659, Note_on_c, 0, 70, 64
1, 59737, Note_on_c, 0, 69, 64
1, 59740, Note_off_c, 0, 70, 59
1, 59783, Note_on_c, 0, 72, 70
1, 59800, Note_off_c, 0, 69, 52
1, 59848, Note_on_c, 0, 70, 73
1, 59867, Note_off_c, 0, 72, 60
1, 59904, Note_on_c, 0, 74, 76
1, 59909, Note_off_c, 0, 70, 60
1, 59950, Note_on_c, 0, 72, 63
1, 59991, Note_off_c, 0, 74, 62
1, 60015, Note_on_c, 0, 70, 82
1, 60044, Note_off_c, 0, 72, 61
1, 60069, Note_on_c, 0, 69, 82
1, 60088, Note_off_c, 0, 70, 60
1, 60136, Note_on_c, 0, 67, 72
1, 60138, Note_off_c, 0, 69, 64
1, 60214, Note_off_c, 0, 67, 57
1, 60215, Note_on_c, 0, 65, 74
1, 60278, Note_on_c, 0, 67, 69
1, 60283, Note_off_c, 0, 65, 62
1, 60350, Note_off_c, 0, 67, 60
1, 60352, Note_on_c, 0, 63, 67
1, 60421, Note_off_c, 0, 63, 60
1, 60426, Note_on_c, 0, 62, 64
1, 60501, Note_off_c, 0, 62, 55
1, 60512, Note_on_c, 0, 65, 64
1, 60581, Note_on_c, 0, 63, 67
1, 60591, Note_off_c, 0, 65, 60
1, 60646, Note_off_c, 0, 63, 59
1, 60646, Note_on_c, 0, 62, 66
1, 60729, Note_off_c, 0, 62, 54
1, 60732, Note_on_c, 0, 63, 63
1, 60800, Note_on_c, 0, 65, 72
1, 60804, Note_off_c, 0, 63, 60
1, 60864, Note_off_c, 0, 65, 56
1, 60891, Note_on_c, 0, 67, 69
1, 60960, Note_off_c, 0, 67, 51
1, 60968, Note_on_c, 0, 69, 71
1, 61041, Note_off_c, 0, 69, 63
1, 61046, Note_on_c, 0, 70, 69
1, 61116, Note_on_c, 0, 69, 68
1, 61120, Note_off_c, 0, 70, 59
1, 61174, Note_off_c, 0, 69, 61
1, 61186, Note_on_c, 0, 67, 67
1, 61260, Note_on_c, 0, 65, 72
1, 61262, Note_off_c, 0, 67, 60
1, 61323, Note_off_c, 0, 65, 59
1, 61337, Note_on_c, 0, 67, 71
1, 61406, Note_off_c, 0, 67, 60
1, 61409, Note_on_c, 0, 69, 76
1, 61481, Note_on_c, 0, 70, 73
1, 61498, Note_off_c, 0, 69, 59
1, 61559, Note_on_c, 0, 72, 71
1, 61569, Note_off_c, 0, 70, 61
1, 61640, Note_on_c, 0, 74, 80
1, 61651, Note_off_c, 0, 72, 61
1, 61710, Note_on_c, 0, 72, 72
1, 61744, Note_off_c, 0, 74, 61
1, 61784, Note_on_c, 0, 70, 81
1, 61803, Note_off_c, 0, 72, 60
1, 61856, Note_on_c, 0, 69, 86
1, 61859, Note_off_c, 0, 70, 59
1, 61934, Note_on_c, 0, 70, 84
1, 61959, Note_off_c, 0, 69, 62
1, 62000, Note_off_c, 0, 70, 60
1, 62004, Note_on_c, 0, 72, 84
1, 62088, Note_on_c, 0, 74, 85
1, 62099, Note_off_c, 0, 72, 60
1, 62165, Note_on_c, 0, 75, 81
1, 62196, Note_off_c, 0, 74, 61
1, 62241, Note_on_c, 0, 79, 80
1, 62256, Note_off_c, 0, 75, 60
1, 62323, Note_on_c, 0, 77, 78
1, 62351, Note_off_c, 0, 79, 58
1, 62423, Note_on_c, 0, 75, 68
1, 62436, Note_off_c, 0, 77, 57
1, 62503, Note_on_c, 0, 74, 72
1, 62507, Note_off_c, 0, 75, 57
1, 62606, Note_on_c, 0, 77, 56
1, 62657, Note_off_c, 0, 74, 36
1, 62737, Note_on_c, 0, 75, 66
1, 62740, Note_off_c, 0, 77, 58
1, 62802, Note_off_c, 0, 75, 60
1, 62810, Note_on_c, 0, 74, 73
1, 62894, Note_on_c, 0, 75, 73
1, 62913, Note_off_c, 0, 74, 54
1, 62956, Note_off_c, 0, 75, 60
1, 62965, Note_on_c, 0, 77, 79
1, 63039, Note_on_c, 0, 79, 79
1, 63046, Note_off_c, 0, 77, 60
1, 63123, Note_on_c, 0, 81, 78
1, 63164, Note_off_c, 0, 79, 60
1, 63211, Note_on_c, 0, 50, 47
1, 63215, Note_on_c, 0, 82, 88
1, 63222, Control_c, 0, 64, 20
1, 63235, Note_off_c, 0, 81, 60
1, 63236, Control_c, 0, 64, 57
1, 63251, Control_c, 0, 64, 81
1, 63266, Control_c, 0, 64, 127
1, 63279, Note_off_c, 0, 50, 48
1, 63300, Note_on_c, 0, 58, 62
1, 63341, Note_off_c, 0, 58, 58
1, 63364, Note_on_c, 0, 53, 64
1, 63422, Note_off_c, 0, 53, 52
1, 63445, Note_on_c, 0, 58, 64
1, 63458, Control_c, 0, 64, 93
1, 63473, Control_c, 0, 64, 70
1, 63479, Note_off_c, 0, 58, 59
1, 63487, Note_off_c, 0, 82, 58
1, 63487, Control_c, 0, 64, 53
1, 63502, Control_c, 0, 64, 32
1, 63517, Control_c, 0, 64, 0
1, 63532, Note_on_c, 0, 50, 47
1, 63579, Note_off_c, 0, 50, 42
1, 63611, Note_on_c, 0, 58, 47
1, 63653, Note_off_c, 0, 58, 52
1, 63678, Note_on_c, 0, 53, 48
1, 63679, Note_on_c, 0, 81, 77
1, 63728, Note_off_c, 0, 81, 54
1, 63751, Note_on_c, 0, 82, 73
1, 63755, Note_off_c, 0, 53, 57
1, 63760, Note_on_c, 0, 58, 50
1, 63794, Note_off_c, 0, 82, 51
1, 63800, Note_off_c, 0, 58, 61
1, 63822, Note_on_c, 0, 81, 82
1, 63839, Note_on_c, 0, 50, 54
1, 63874, Note_off_c, 0, 81, 53
1, 63875, Note_off_c, 0, 50, 60
1, 63902, Note_on_c, 0, 82, 77
1, 63914, Note_on_c, 0, 58, 53
1, 63947, Note_off_c, 0, 58, 60
1, 63971, Note_off_c, 0, 82, 60
1, 63978, Note_on_c, 0, 84, 74
1, 63991, Note_on_c, 0, 53, 57
1, 64032, Note_off_c, 0, 53, 60
1, 64064, Note_off_c, 0, 84, 57
1, 64066, Note_on_c, 0, 82, 78
1, 64071, Note_on_c, 0, 58, 48
1, 64107, Note_off_c, 0, 58, 62
1, 64129, Note_off_c, 0, 82, 57
1, 64146, Note_on_c, 0, 77, 71
1, 64148, Note_on_c, 0, 50, 56
1, 64183, Note_off_c, 0, 50, 63
1, 64228, Note_on_c, 0, 58, 48
1, 64264, Note_off_c, 0, 58, 59
1, 64292, Note_on_c, 0, 53, 56
1, 64350, Note_off_c, 0, 53, 54
1, 64356, Note_off_c, 0, 77, 58
1, 64385, Note_on_c, 0, 58, 52
1, 64411, Note_off_c, 0, 58, 58
1, 64453, Note_on_c, 0, 50, 59
1, 64486, Note_off_c, 0, 50, 64
1, 64538, Note_on_c, 0, 58, 26
1, 64573, Note_off_c, 0, 58, 48
1, 64608, Note_on_c, 0, 53, 60
1, 64616, Note_on_c, 0, 76, 70
1, 64650, Note_off_c, 0, 76, 57
1, 64650, Note_off_c, 0, 53, 59
1, 64686, Note_on_c, 0, 58, 49
1, 64690, Note_on_c, 0, 77, 74
1, 64725, Note_off_c, 0, 58, 63
1, 64730, Note_off_c, 0, 77, 56
1, 64759, Note_on_c, 0, 79, 78
1, 64769, Note_on_c, 0, 50, 56
1, 64801, Note_off_c, 0, 50, 62
1, 64834, Note_on_c, 0, 77, 77
1, 64834, Note_off_c, 0, 79, 62
1, 64839, Note_on_c, 0, 58, 52
1, 64877, Note_off_c, 0, 58, 62
1, 64894, Note_off_c, 0, 77, 57
1, 64903, Note_on_c, 0, 53, 60
1, 64910, Note_on_c, 0, 75, 68
1, 64942, Note_off_c, 0, 53, 58
1, 64952, Note_off_c, 0, 75, 60
1, 64984, Note_on_c, 0, 74, 77
1, 64987, Note_on_c, 0, 58, 60
1, 65020, Note_off_c, 0, 58, 63
1, 65026, Note_off_c, 0, 74, 60
1, 65067, Note_on_c, 0, 78, 85
1, 65075, Note_on_c, 0, 51, 53
1, 65115, Note_off_c, 0, 51, 60
1, 65140, Note_on_c, 0, 79, 81
1, 65145, Note_off_c, 0, 78, 61
1, 65151, Note_on_c, 0, 58, 50
1, 65180, Note_off_c, 0, 58, 56
1, 65216, Note_on_c, 0, 55, 63
1, 65221, Note_on_c, 0, 78, 80
1, 65226, Note_off_c, 0, 79, 61
1, 65258, Note_off_c, 0, 55, 61
1, 65292, Note_on_c, 0, 79, 72
1, 65294, Note_off_c, 0, 78, 59
1, 65297, Note_on_c, 0, 58, 49
1, 65335, Note_off_c, 0, 58, 63
1, 65380, Note_on_c, 0, 78, 83
1, 65381, Note_on_c, 0, 51, 54
1, 65386, Note_off_c, 0, 79, 62
1, 65416, Note_off_c, 0, 51, 63
1, 65446, Note_on_c, 0, 79, 72
1, 65450, Note_off_c, 0, 78, 61
1, 65452, Note_on_c, 0, 58, 59
1, 65487, Note_off_c, 0, 58, 62
1, 65514, Note_on_c, 0, 55, 59
1, 65531, Note_off_c, 0, 79, 60
1, 65535, Note_on_c, 0, 78, 76
1, 65566, Note_off_c, 0, 55, 58
1, 65597, Note_on_c, 0, 79, 68
1, 65597, Note_off_c, 0, 78, 62
1, 65605, Note_on_c, 0, 58, 55
1, 65640, Note_off_c, 0, 58, 62
1, 65654, Note_off_c, 0, 79, 58
1, 65672, Note_on_c, 0, 74, 82
1, 65679, Note_on_c, 0, 51, 51
1, 65714, Note_off_c, 0, 51, 63
1, 65735, Note_off_c, 0, 74, 61
1, 65746, Note_on_c, 0, 75, 72
1, 65755, Note_on_c, 0, 59, 58
1, 65779, Control_c, 0, 67, 17
1, 65790, Note_off_c, 0, 59, 63
1, 65794, Control_c, 0, 67, 20
1, 65794, Note_off_c, 0, 75, 56
1, 65808, Control_c, 0, 67, 24
1, 65821, Note_on_c, 0, 55, 54
1, 65823, Note_on_c, 0, 74, 72
1, 65823, Control_c, 0, 67, 25
1, 65838, Control_c, 0, 67, 26
1, 65868, Control_c, 0, 67, 26
1, 65870, Note_off_c, 0, 55, 57
1, 65871, Note_off_c, 0, 74, 59
1, 65882, Control_c, 0, 67, 27
1, 65890, Note_on_c, 0, 75, 59
1, 65897, Control_c, 0, 67, 30
1, 65907, Note_on_c, 0, 59, 55
1, 65912, Control_c, 0, 67, 33
1, 65919, Note_off_c, 0, 75, 66
1, 65927, Control_c, 0, 67, 36
1, 65942, Control_c, 0, 67, 37
1, 65946, Note_off_c, 0, 59, 61
1, 65977, Note_on_c, 0, 71, 61
1, 65986, Control_c, 0, 67, 36
1, 65992, Note_on_c, 0, 51, 45
1, 66020, Note_off_c, 0, 51, 58
1, 66030, Control_c, 0, 67, 36
1, 66042, Note_off_c, 0, 71, 53
1, 66063, Note_on_c, 0, 72, 55
1, 66072, Note_on_c, 0, 60, 46
1, 66112, Note_off_c, 0, 60, 53
1, 66127, Control_c, 0, 67, 35
1, 66134, Note_off_c, 0, 72, 57
1, 66146, Note_on_c, 0, 55, 46
1, 66158, Note_on_c, 0, 71, 55
1, 66186, Control_c, 0, 67, 35
1, 66200, Note_off_c, 0, 55, 52
1, 66212, Note_off_c, 0, 71, 56
1, 66222, Note_on_c, 0, 60, 52
1, 66241, Note_on_c, 0, 72, 53
1, 66270, Note_off_c, 0, 60, 59
1, 66270, Note_off_c, 0, 72, 64
1, 66274, Control_c, 0, 67, 34
1, 66289, Control_c, 0, 67, 34
1, 66304, Control_c, 0, 67, 33
1, 66308, Note_on_c, 0, 51, 44
1, 66319, Control_c, 0, 67, 32
1, 66335, Control_c, 0, 67, 31
1, 66343, Note_off_c, 0, 51, 58
1, 66350, Control_c, 0, 67, 30
1, 66365, Control_c, 0, 67, 28
1, 66379, Control_c, 0, 67, 27
1, 66392, Note_on_c, 0, 60, 52
1, 66394, Control_c, 0, 67, 26
1, 66409, Control_c, 0, 67, 26
1, 66424, Note_off_c, 0, 60, 56
1, 66424, Control_c, 0, 67, 25
1, 66438, Control_c, 0, 67, 24
1, 66450, Note_on_c, 0, 55, 49
1, 66453, Control_c, 0, 67, 22
1, 66468, Control_c, 0, 67, 20
1, 66483, Control_c, 0, 67, 18
1, 66495, Note_off_c, 0, 55, 61
1, 66498, Control_c, 0, 67, 16
1, 66527, Note_on_c, 0, 60, 56
1, 66565, Note_off_c, 0, 60, 58
1, 66572, Control_c, 0, 67, 0
1, 66608, Note_on_c, 0, 52, 55
1, 66641, Note_off_c, 0, 52, 62
1, 66677, Note_on_c, 0, 60, 58
1, 66716, Note_off_c, 0, 60, 57
1, 66749, Note_on_c, 0, 84, 76
1, 66750, Note_on_c, 0, 58, 57
1, 66769, Note_off_c, 0, 84, 68
1, 66790, Note_off_c, 0, 58, 62
1, 66834, Note_on_c, 0, 60, 59
1, 66887, Note_off_c, 0, 60, 57
1, 66929, Note_on_c, 0, 53, 58
1, 66938, Note_on_c, 0, 87, 81
1, 66965, Control_c, 0, 64, 50
1, 66979, Control_c, 0, 64, 68
1, 66985, Note_off_c, 0, 53, 52
1, 66994, Control_c, 0, 64, 85
1, 67009, Control_c, 0, 64, 127
1, 67016, Note_on_c, 0, 60, 59
1, 67082, Note_off_c, 0, 60, 51
1, 67094, Note_on_c, 0, 57, 53
1, 67141, Note_off_c, 0, 57, 56
1, 67188, Note_on_c, 0, 60, 55
1, 67223, Note_off_c, 0, 60, 59
1, 67247, Note_on_c, 0, 53, 62
1, 67276, Control_c, 0, 64, 98
1, 67291, Control_c, 0, 64, 84
1, 67306, Control_c, 0, 64, 71
1, 67311, Note_off_c, 0, 53, 45
1, 67321, Control_c, 0, 64, 63
1, 67335, Control_c, 0, 64, 57
1, 67338, Note_on_c, 0, 60, 56
1, 67350, Control_c, 0, 64, 54
1, 67365, Control_c, 0, 64, 54
1, 67378, Note_off_c, 0, 60, 60
1, 67380, Control_c, 0, 64, 53
1, 67383, Note_off_c, 0, 87, 59
1, 67395, Control_c, 0, 64, 51
1, 67409, Note_on_c, 0, 57, 58
1, 67410, Control_c, 0, 64, 48
1, 67425, Control_c, 0, 64, 45
1, 67428, Note_on_c, 0, 86, 60
1, 67440, Control_c, 0, 64, 43
1, 67448, Note_off_c, 0, 57, 58
1, 67454, Control_c, 0, 64, 43
1, 67494, Note_on_c, 0, 87, 73
1, 67499, Control_c, 0, 64, 42
1, 67500, Note_on_c, 0, 60, 55
1, 67514, Control_c, 0, 64, 42
1, 67526, Note_off_c, 0, 86, 54
1, 67531, Note_off_c, 0, 60, 58
1, 67543, Control_c, 0, 64, 41
1, 67564, Note_on_c, 0, 53, 55
1, 67568, Note_on_c, 0, 89, 75
1, 67568, Note_off_c, 0, 87, 62
1, 67614, Note_off_c, 0, 53, 60
1, 67645, Note_on_c, 0, 60, 55
1, 67661, Note_on_c, 0, 87, 77
1, 67665, Note_off_c, 0, 89, 60
1, 67687, Note_off_c, 0, 60, 56
1, 67712, Control_c, 0, 64, 41
1, 67722, Note_on_c, 0, 57, 50
1, 67732, Note_off_c, 0, 87, 61
1, 67735, Note_on_c, 0, 86, 76
1, 67756, Control_c, 0, 64, 40
1, 67763, Note_off_c, 0, 57, 62
1, 67785, Control_c, 0, 64, 40
1, 67800, Note_off_c, 0, 86, 60
1, 67800, Control_c, 0, 64, 39
1, 67807, Note_on_c, 0, 60, 59
1, 67809, Note_on_c, 0, 84, 73
1, 67840, Note_off_c, 0, 60, 61
1, 67845, Control_c, 0, 64, 39
1, 67884, Note_on_c, 0, 53, 48
1, 67896, Note_on_c, 0, 82, 81
1, 67913, Note_off_c, 0, 84, 36
1, 67930, Note_off_c, 0, 53, 61
1, 67935, Control_c, 0, 64, 38
1, 67975, Note_on_c, 0, 63, 53
1, 67976, Note_on_c, 0, 81, 76
1, 67984, Note_off_c, 0, 82, 60
1, 68012, Note_off_c, 0, 63, 61
1, 68045, Note_off_c, 0, 81, 59
1, 68047, Note_on_c, 0, 60, 50
1, 68053, Note_on_c, 0, 86, 78
1, 68089, Note_off_c, 0, 60, 56
1, 68098, Control_c, 0, 64, 38
1, 68115, Note_on_c, 0, 63, 66
1, 68121, Note_on_c, 0, 84, 78
1, 68151, Note_off_c, 0, 63, 58
1, 68158, Note_off_c, 0, 86, 61
1, 68194, Note_on_c, 0, 53, 59
1, 68199, Note_on_c, 0, 82, 82
1, 68227, Note_off_c, 0, 84, 60
1, 68237, Note_off_c, 0, 53, 58
1, 68265, Note_on_c, 0, 63, 61
1, 68271, Note_on_c, 0, 81, 80
1, 68288, Note_off_c, 0, 82, 61
1, 68305, Control_c, 0, 64, 37
1, 68320, Note_off_c, 0, 63, 53
1, 68320, Control_c, 0, 64, 37
1, 68337, Note_off_c, 0, 81, 63
1, 68341, Note_on_c, 0, 79, 78
1, 68352, Note_on_c, 0, 60, 57
1, 68400, Note_off_c, 0, 79, 61
1, 68414, Note_off_c, 0, 60, 54
1, 68430, Note_on_c, 0, 77, 81
1, 68435, Note_on_c, 0, 63, 64
1, 68481, Note_off_c, 0, 63, 54
1, 68505, Note_on_c, 0, 54, 55
1, 68505, Note_on_c, 0, 75, 79
1, 68523, Note_off_c, 0, 77, 60
1, 68547, Note_off_c, 0, 54, 64
1, 68576, Note_on_c, 0, 74, 79
1, 68580, Note_off_c, 0, 75, 61
1, 68590, Note_on_c, 0, 63, 55
1, 68595, Control_c, 0, 64, 36
1, 68616, Note_off_c, 0, 63, 58
1, 68638, Note_off_c, 0, 74, 58
1, 68654, Note_on_c, 0, 75, 82
1, 68671, Note_on_c, 0, 60, 57
1, 68729, Note_off_c, 0, 60, 49
1, 68735, Note_on_c, 0, 72, 81
1, 68739, Note_off_c, 0, 75, 62
1, 68744, Note_on_c, 0, 63, 51
1, 68786, Note_off_c, 0, 63, 55
1, 68831, Note_on_c, 0, 55, 54
1, 68879, Note_off_c, 0, 55, 58
1, 68916, Note_on_c, 0, 70, 69
1, 68919, Note_on_c, 0, 62, 58
1, 68921, Note_off_c, 0, 72, 50
1, 68970, Note_off_c, 0, 62, 58
1, 68996, Note_on_c, 0, 74, 79
1, 68998, Note_on_c, 0, 58, 48
1, 69009, Note_off_c, 0, 70, 58
1, 69036, Note_off_c, 0, 58, 62
1, 69078, Note_on_c, 0, 62, 51
1, 69110, Note_off_c, 0, 62, 57
1, 69160, Note_on_c, 0, 51, 56
1, 69171, Note_off_c, 0, 74, 59
1, 69206, Note_off_c, 0, 51, 58
1, 69222, Note_on_c, 0, 67, 58
1, 69237, Note_on_c, 0, 60, 59
1, 69284, Note_off_c, 0, 60, 60
1, 69295, Note_off_c, 0, 67, 55
1, 69303, Note_on_c, 0, 75, 80
1, 69307, Note_on_c, 0, 55, 55
1, 69376, Note_off_c, 0, 55, 57
1, 69395, Note_on_c, 0, 60, 51
1, 69436, Note_off_c, 0, 60, 57
1, 69452, Note_on_c, 0, 53, 56
1, 69514, Note_off_c, 0, 53, 57
1, 69516, Note_off_c, 0, 75, 36
1, 69523, Note_on_c, 0, 57, 53
1, 69526, Note_on_c, 0, 69, 60
1, 69562, Note_off_c, 0, 57, 61
1, 69592, Note_on_c, 0, 60, 48
1, 69594, Note_off_c, 0, 69, 57
1, 69597, Note_on_c, 0, 72, 66
1, 69618, Note_off_c, 0, 60, 56
1, 69670, Control_c, 0, 64, 37
1, 69680, Note_on_c, 0, 63, 60
1, 69690, Note_off_c, 0, 72, 57
1, 69749, Note_on_c, 0, 46, 45
1, 69762, Note_on_c, 0, 70, 66
1, 69785, Note_off_c, 0, 63, 43
1, 69818, Note_off_c, 0, 70, 53
1, 69859, Note_on_c, 0, 50, 48
1, 69908, Note_off_c, 0, 46, 36
1, 69933, Note_on_c, 0, 51, 60
1, 69947, Note_off_c, 0, 50, 50
1, 70008, Note_off_c, 0, 51, 58
1, 70019, Note_on_c, 0, 53, 62
1, 70061, Note_off_c, 0, 53, 60
1, 70081, Note_on_c, 0, 55, 65
1, 70122, Control_c, 0, 64, 36
1, 70137, Control_c, 0, 64, 35
1, 70152, Control_c, 0, 64, 33
1, 70155, Note_on_c, 0, 57, 73
1, 70167, Control_c, 0, 64, 30
1, 70181, Control_c, 0, 64, 25
1, 70196, Control_c, 0, 64, 19
1, 70203, Note_off_c, 0, 55, 36
1, 70226, Control_c, 0, 64, 0
1, 70230, Note_on_c, 0, 58, 77
1, 70248, Note_off_c, 0, 57, 59
1, 70297, Note_off_c, 0, 58, 59
1, 70309, Note_on_c, 0, 60, 82
1, 70388, Note_off_c, 0, 60, 52
1, 70389, Note_on_c, 0, 62, 83
1, 70465, Note_on_c, 0, 63, 82
1, 70491, Note_off_c, 0, 62, 58
1, 70543, Note_on_c, 0, 65, 73
1, 70551, Note_off_c, 0, 63, 62
1, 70623, Note_on_c, 0, 67, 71
1, 70626, Note_off_c, 0, 65, 61
1, 70707, Note_on_c, 0, 65, 76
1, 70715, Note_off_c, 0, 67, 60
1, 70884, Note_on_c, 0, 53, 60
1, 70887, Note_on_c, 0, 45, 57
1, 70890, Note_on_c, 0, 48, 59
1, 70916, Note_off_c, 0, 53, 64
1, 70922, Note_off_c, 0, 45, 62
1, 70923, Note_off_c, 0, 48, 64
1, 71038, Note_on_c, 0, 53, 76
1, 71043, Note_on_c, 0, 45, 65
1, 71044, Note_on_c, 0, 48, 61
1, 71047, Note_off_c, 0, 65, 61
1, 71064, Note_off_c, 0, 53, 66
1, 71076, Note_off_c, 0, 45, 62
1, 71076, Note_off_c, 0, 48, 64
1, 71193, Note_on_c, 0, 48, 68
1, 71195, Note_on_c, 0, 53, 75
1, 71197, Note_on_c, 0, 45, 64
1, 71222, Note_off_c, 0, 53, 64
1, 71228, Note_off_c, 0, 45, 62
1, 71234, Note_off_c, 0, 48, 61
1, 71354, Note_on_c, 0, 63, 86
1, 71359, Note_on_c, 0, 53, 80
1, 71364, Note_on_c, 0, 45, 57
1, 71367, Note_on_c, 0, 48, 59
1, 71385, Note_off_c, 0, 53, 66
1, 71391, Note_off_c, 0, 48, 60
1, 71394, Note_off_c, 0, 45, 59
1, 71430, Note_off_c, 0, 63, 60
1, 71431, Note_on_c, 0, 65, 75
1, 71491, Note_on_c, 0, 63, 70
1, 71497, Note_on_c, 0, 45, 60
1, 71497, Note_on_c, 0, 53, 67
1, 71503, Note_off_c, 0, 65, 60
1, 71527, Note_off_c, 0, 53, 65
1, 71530, Note_off_c, 0, 45, 62
1, 71548, Note_on_c, 0, 62, 66
1, 71553, Note_off_c, 0, 63, 61
1, 71595, Poly_aftertouch_c, 0, 63, 0
1, 71602, Note_on_c, 0, 63, 64
1, 71605, Note_off_c, 0, 62, 57
1, 71659, Note_on_c, 0, 62, 79
1, 71676, Note_on_c, 0, 58, 65
1, 71682, Note_off_c, 0, 63, 62
1, 71684, Note_off_c, 0, 62, 64
1, 71744, Note_off_c, 0, 58, 55
1, 71759, Note_on_c, 0, 62, 63
1, 71822, Note_off_c, 0, 62, 52
1, 71827, Note_on_c, 0, 63, 63
1, 71901, Note_on_c, 0, 65, 63
1, 71903, Note_off_c, 0, 63, 58
1, 71954, Note_off_c, 0, 65, 60
1, 71977, Note_on_c, 0, 67, 72
1, 72054, Note_on_c, 0, 69, 77
1, 72060, Note_off_c, 0, 67, 58
1, 72138, Note_on_c, 0, 70, 81
1, 72164, Note_off_c, 0, 69, 63
1, 72204, Note_off_c, 0, 70, 60
1, 72209, Note_on_c, 0, 72, 83
1, 72287, Note_on_c, 0, 74, 88
1, 72299, Note_off_c, 0, 72, 61
1, 72366, Note_on_c, 0, 75, 87
1, 72395, Note_off_c, 0, 74, 62
1, 72448, Note_on_c, 0, 77, 77
1, 72459, Note_off_c, 0, 75, 62
1, 72522, Note_on_c, 0, 79, 76
1, 72526, Note_off_c, 0, 77, 60
1, 72606, Note_on_c, 0, 77, 90
1, 72638, Note_off_c, 0, 79, 62
1, 72778, Note_on_c, 0, 65, 66
1, 72784, Note_on_c, 0, 60, 59
1, 72785, Note_on_c, 0, 57, 49
1, 72820, Note_off_c, 0, 65, 59
1, 72822, Note_off_c, 0, 57, 65
1, 72826, Note_off_c, 0, 60, 58
1, 72950, Note_on_c, 0, 65, 69
1, 72954, Note_on_c, 0, 57, 62
1, 72959, Note_on_c, 0, 60, 64
1, 72978, Note_off_c, 0, 65, 64
1, 72981, Note_off_c, 0, 57, 66
1, 72993, Note_off_c, 0, 60, 60
1, 73099, Note_on_c, 0, 57, 58
1, 73100, Note_on_c, 0, 65, 69
1, 73100, Note_on_c, 0, 60, 68
1, 73101, Note_off_c, 0, 77, 58
1, 73130, Note_off_c, 0, 65, 62
1, 73131, Note_off_c, 0, 57, 64
1, 73139, Note_off_c, 0, 60, 54
1, 73256, Note_on_c, 0, 75, 81
1, 73261, Note_on_c, 0, 65, 65
1, 73262, Note_on_c, 0, 57, 56
1, 73267, Note_on_c, 0, 60, 57
1, 73288, Note_off_c, 0, 65, 64
1, 73294, Note_off_c, 0, 57, 65
1, 73305, Note_off_c, 0, 60, 60
1, 73323, Note_on_c, 0, 77, 74
1, 73327, Note_off_c, 0, 75, 59
1, 73390, Note_on_c, 0, 75, 72
1, 73399, Note_off_c, 0, 77, 60
1, 73407, Note_on_c, 0, 57, 38
1, 73414, Note_on_c, 0, 65, 45
1, 73437, Note_off_c, 0, 57, 51
1, 73441, Note_off_c, 0, 65, 54
1, 73445, Note_on_c, 0, 74, 73
1, 73445, Note_off_c, 0, 75, 61
1, 73499, Note_on_c, 0, 75, 68
1, 73503, Note_off_c, 0, 74, 52
1, 73562, Note_on_c, 0, 74, 71
1, 73574, Note_off_c, 0, 75, 63
1, 73597, Note_off_c, 0, 74, 64
1, 73721, Note_on_c, 0, 62, 53
1, 73723, Note_on_c, 0, 58, 45
1, 73745, Note_off_c, 0, 62, 58
1, 73750, Note_off_c, 0, 58, 55
1, 73872, Note_on_c, 0, 72, 64
1, 73928, Note_off_c, 0, 72, 56
1, 73941, Note_on_c, 0, 74, 66
1, 74000, Note_on_c, 0, 72, 57
1, 74010, Note_off_c, 0, 74, 59
1, 74020, Note_on_c, 0, 54, 60
1, 74026, Note_on_c, 0, 62, 57
1, 74037, Note_on_c, 0, 57, 49
1, 74047, Note_on_c, 0, 71, 64
1, 74054, Note_off_c, 0, 54, 64
1, 74061, Note_off_c, 0, 62, 62
1, 74061, Note_off_c, 0, 72, 59
1, 74061, Note_off_c, 0, 57, 60
1, 74102, Note_off_c, 0, 71, 60
1, 74108, Note_on_c, 0, 72, 51
1, 74177, Note_on_c, 0, 70, 69
1, 74189, Note_off_c, 0, 72, 58
1, 74221, Note_off_c, 0, 70, 59
1, 74352, Note_on_c, 0, 62, 58
1, 74353, Note_on_c, 0, 55, 51
1, 74355, Note_on_c, 0, 58, 61
1, 74373, Note_off_c, 0, 62, 59
1, 74377, Note_off_c, 0, 58, 61
1, 74378, Note_off_c, 0, 55, 57
1, 74507, Note_on_c, 0, 68, 60
1, 74552, Note_off_c, 0, 68, 52
1, 74570, Note_on_c, 0, 70, 61
1, 74633, Note_on_c, 0, 68, 60
1, 74635, Note_off_c, 0, 70, 58
1, 74653, Note_on_c, 0, 50, 37
1, 74665, Note_on_c, 0, 58, 27
1, 74671, Note_on_c, 0, 53, 22
1, 74686, Note_off_c, 0, 50, 48
1, 74689, Note_off_c, 0, 68, 55
1, 74690, Note_on_c, 0, 67, 61
1, 74701, Note_off_c, 0, 58, 45
1, 74714, Note_off_c, 0, 53, 47
1, 74728, Poly_aftertouch_c, 0, 68, 0
1, 74731, Note_off_c, 0, 67, 55
1, 74737, Note_on_c, 0, 68, 53
1, 74802, Note_on_c, 0, 67, 73
1, 74817, Note_off_c, 0, 68, 59
1, 74829, Note_off_c, 0, 67, 63
1, 74955, Note_on_c, 0, 51, 55
1, 74958, Note_on_c, 0, 58, 54
1, 74960, Note_on_c, 0, 55, 50
1, 74979, Note_off_c, 0, 51, 59
1, 74982, Note_off_c, 0, 58, 58
1, 74986, Note_off_c, 0, 55, 56
1, 75119, Note_on_c, 0, 65, 71
1, 75173, Note_off_c, 0, 65, 53
1, 75187, Note_on_c, 0, 67, 67
1, 75251, Note_on_c, 0, 65, 62
1, 75259, Note_off_c, 0, 67, 61
1, 75266, Note_on_c, 0, 55, 59
1, 75276, Note_on_c, 0, 47, 45
1, 75288, Note_off_c, 0, 55, 61
1, 75295, Note_on_c, 0, 64, 65
1, 75299, Note_off_c, 0, 65, 61
1, 75305, Note_off_c, 0, 47, 57
1, 75339, Note_off_c, 0, 64, 58
1, 75351, Note_on_c, 0, 65, 63
1, 75401, Note_on_c, 0, 64, 72
1, 75417, Note_off_c, 0, 65, 61
1, 75443, Note_off_c, 0, 64, 63
1, 75580, Note_on_c, 0, 55, 55
1, 75580, Note_on_c, 0, 48, 57
1, 75580, Note_on_c, 0, 52, 57
1, 75603, Note_off_c, 0, 55, 58
1, 75604, Note_off_c, 0, 52, 58
1, 75605, Note_off_c, 0, 48, 59
1, 75719, Note_on_c, 0, 63, 90
1, 75802, Note_on_c, 0, 65, 77
1, 75806, Note_off_c, 0, 63, 61
1, 75880, Note_on_c, 0, 45, 59
1, 75882, Note_on_c, 0, 63, 75
1, 75883, Note_on_c, 0, 53, 62
1, 75893, Note_off_c, 0, 65, 62
1, 75895, Note_on_c, 0, 48, 46
1, 75906, Note_off_c, 0, 45, 57
1, 75908, Note_off_c, 0, 53, 60
1, 75925, Note_off_c, 0, 48, 55
1, 75943, Note_off_c, 0, 63, 60
1, 75944, Note_on_c, 0, 62, 73
1, 75984, Note_on_c, 0, 63, 60
1, 75992, Note_off_c, 0, 62, 56
1, 76037, Note_on_c, 0, 62, 76
1, 76057, Note_off_c, 0, 63, 62
1, 76068, Note_off_c, 0, 62, 61
1, 76209, Note_on_c, 0, 53, 70
1, 76211, Note_on_c, 0, 46, 66
1, 76211, Note_on_c, 0, 50, 65
1, 76239, Note_off_c, 0, 53, 64
1, 76241, Note_off_c, 0, 46, 64
1, 76242, Note_off_c, 0, 50, 65
1, 76362, Note_on_c, 0, 63, 95
1, 76455, Note_off_c, 0, 63, 60
1, 76465, Note_on_c, 0, 65, 78
1, 76518, Note_on_c, 0, 45, 67
1, 76519, Note_on_c, 0, 53, 67
1, 76530, Note_on_c, 0, 48, 49
1, 76531, Note_on_c, 0, 63, 77
1, 76538, Note_off_c, 0, 65, 63
1, 76541, Note_off_c, 0, 53, 62
1, 76549, Note_off_c, 0, 45, 62
1, 76556, Note_off_c, 0, 48, 58
1, 76594, Note_on_c, 0, 62, 73
1, 76599, Note_off_c, 0, 63, 61
1, 76642, Note_off_c, 0, 62, 57
1, 76642, Note_on_c, 0, 63, 70
1, 76689, Note_on_c, 0, 62, 74
1, 76710, Note_off_c, 0, 63, 64
1, 76727, Note_off_c, 0, 62, 60
1, 76855, Note_on_c, 0, 53, 71
1, 76858, Note_on_c, 0, 46, 65
1, 76859, Note_on_c, 0, 50, 67
1, 76883, Note_off_c, 0, 53, 65
1, 76885, Note_off_c, 0, 46, 64
1, 76888, Note_off_c, 0, 50, 65
1, 76985, Note_on_c, 0, 63, 99
1, 77078, Note_on_c, 0, 65, 78
1, 77083, Note_off_c, 0, 63, 62
1, 77154, Note_on_c, 0, 45, 67
1, 77158, Note_on_c, 0, 53, 63
1, 77159, Note_on_c, 0, 63, 76
1, 77167, Note_off_c, 0, 65, 63
1, 77176, Note_on_c, 0, 48, 37
1, 77184, Note_off_c, 0, 53, 61
1, 77185, Note_off_c, 0, 45, 62
1, 77188, Note_on_c, 0, 62, 73
1, 77208, Note_off_c, 0, 48, 51
1, 77216, Note_off_c, 0, 63, 58
1, 77220, Note_off_c, 0, 62, 60
1, 77300, Note_on_c, 0, 53, 76
1, 77311, Note_on_c, 0, 46, 71
1, 77311, Note_on_c, 0, 50, 70
1, 77315, Note_on_c, 0, 62, 76
1, 77335, Note_off_c, 0, 53, 65
1, 77345, Note_off_c, 0, 46, 65
1, 77347, Note_off_c, 0, 50, 66
1, 77395, Note_on_c, 0, 58, 61
1, 77396, Note_off_c, 0, 62, 57
1, 77465, Note_on_c, 0, 53, 57
1, 77466, Note_off_c, 0, 58, 51
1, 77567, Note_off_c, 0, 53, 48
1, 77569, Note_on_c, 0, 58, 61
1, 77627, Note_off_c, 0, 58, 53
1, 77643, Note_on_c, 0, 62, 60
1, 77708, Note_off_c, 0, 62, 51
1, 77732, Note_on_c, 0, 58, 58
1, 77769, Note_off_c, 0, 58, 62
1, 77799, Note_on_c, 0, 65, 64
1, 77845, Note_off_c, 0, 65, 62
1, 77870, Note_on_c, 0, 62, 68
1, 77947, Note_on_c, 0, 70, 69
1, 77983, Note_off_c, 0, 62, 33
1, 78022, Note_on_c, 0, 65, 68
1, 78027, Note_off_c, 0, 70, 59
1, 78104, Note_on_c, 0, 74, 73
1, 78110, Note_off_c, 0, 65, 37
1, 78185, Note_off_c, 0, 74, 58
1, 78192, Note_on_c, 0, 70, 68
1, 78267, Note_on_c, 0, 65, 62
1, 78284, Note_off_c, 0, 70, 54
1, 78351, Note_off_c, 0, 65, 57
1, 78352, Note_on_c, 0, 62, 64
1, 78401, Note_off_c, 0, 62, 59
1, 78427, Note_on_c, 0, 70, 67
1, 78473, Note_off_c, 0, 70, 60
1, 78496, Note_on_c, 0, 65, 71
1, 78582, Note_on_c, 0, 74, 77
1, 78643, Note_off_c, 0, 65, 31
1, 78653, Note_on_c, 0, 70, 72
1, 78659, Note_off_c, 0, 74, 60
1, 78710, Note_off_c, 0, 70, 60
1, 78732, Note_on_c, 0, 77, 77
1, 78820, Note_on_c, 0, 74, 79
1, 78833, Note_off_c, 0, 77, 59
1, 78902, Note_on_c, 0, 70, 77
1, 78915, Note_off_c, 0, 74, 60
1, 78974, Note_off_c, 0, 70, 59
1, 78981, Note_on_c, 0, 65, 72
1, 79056, Note_on_c, 0, 74, 77
1, 79063, Note_off_c, 0, 65, 51
1, 79128, Note_on_c, 0, 70, 76
1, 79134, Note_off_c, 0, 74, 61
1, 79196, Note_off_c, 0, 70, 60
1, 79215, Note_on_c, 0, 77, 73
1, 79261, Note_off_c, 0, 77, 61
1, 79290, Note_on_c, 0, 74, 83
1, 79363, Note_off_c, 0, 74, 55
1, 79370, Note_on_c, 0, 82, 84
1, 79453, Note_on_c, 0, 77, 75
1, 79464, Note_off_c, 0, 82, 58
1, 79518, Note_off_c, 0, 77, 61
1, 79522, Note_on_c, 0, 74, 73
1, 79617, Note_on_c, 0, 70, 81
1, 79660, Note_off_c, 0, 74, 34
1, 79686, Note_on_c, 0, 77, 75
1, 79688, Note_off_c, 0, 70, 59
1, 79737, Note_off_c, 0, 77, 60
1, 79757, Note_on_c, 0, 74, 80
1, 79817, Note_off_c, 0, 74, 62
1, 79841, Note_on_c, 0, 82, 86
1, 79893, Note_off_c, 0, 82, 61
1, 79921, Note_on_c, 0, 77, 80
1, 79993, Note_on_c, 0, 86, 83
1, 80070, Note_on_c, 0, 82, 79
1, 80076, Note_off_c, 0, 77, 32
1, 80076, Note_off_c, 0, 86, 63
1, 80141, Note_on_c, 0, 89, 94
1, 80156, Note_off_c, 0, 82, 60
1, 80182, Note_off_c, 0, 89, 65
1, 80308, Note_on_c, 0, 65, 60
1, 80319, Note_on_c, 0, 77, 71
1, 80350, Note_off_c, 0, 65, 59
1, 80350, Note_off_c, 0, 77, 65
1, 80484, Note_on_c, 0, 82, 76
1, 80484, Note_on_c, 0, 70, 64
1, 80508, Note_off_c, 0, 82, 64
1, 80511, Note_off_c, 0, 70, 65
1, 80634, Note_on_c, 0, 86, 70
1, 80637, Note_on_c, 0, 74, 58
1, 80658, Note_off_c, 0, 74, 62
1, 80667, Note_off_c, 0, 86, 56
1, 80808, Note_on_c, 0, 89, 73
1, 80813, Note_on_c, 0, 77, 66
1, 80834, Note_off_c, 0, 77, 67
1, 80842, Note_off_c, 0, 89, 58
1, 80970, Note_on_c, 0, 65, 68
1, 81000, Note_off_c, 0, 65, 63
1, 81129, Note_on_c, 0, 70, 70
1, 81159, Note_off_c, 0, 70, 59
1, 81287, Note_on_c, 0, 74, 64
1, 81319, Note_off_c, 0, 74, 62
1, 81459, Note_on_c, 0, 77, 68
1, 81488, Note_off_c, 0, 77, 62
1, 81623, Note_on_c, 0, 53, 83
1, 81631, Note_on_c, 0, 41, 59
1, 81669, Note_off_c, 0, 41, 61
1, 81680, Note_off_c, 0, 53, 57
1, 81777, Note_on_c, 0, 46, 78
1, 81781, Note_on_c, 0, 58, 89
1, 81836, Note_off_c, 0, 46, 61
1, 81836, Note_off_c, 0, 58, 64
1, 81937, Note_on_c, 0, 50, 84
1, 81955, Note_on_c, 0, 62, 90
1, 81978, Note_off_c, 0, 50, 62
1, 82007, Note_off_c, 0, 62, 59
1, 82115, Note_on_c, 0, 53, 87
1, 82124, Note_on_c, 0, 65, 85
1, 82161, Note_off_c, 0, 65, 64
1, 82289, Note_on_c, 0, 70, 76
1, 82326, Note_off_c, 0, 70, 62
1, 82354, Note_off_c, 0, 53, 60
1, 82443, Note_on_c, 0, 74, 70
1, 82469, Note_off_c, 0, 74, 63
1, 82603, Note_on_c, 0, 77, 62
1, 82655, Note_off_c, 0, 77, 54
1, 82761, Note_on_c, 0, 75, 62
1, 82795, Note_off_c, 0, 75, 60
1, 82910, Note_on_c, 0, 74, 62
1, 82940, Note_off_c, 0, 74, 64
1, 83063, Note_on_c, 0, 72, 68
1, 83104, Note_off_c, 0, 72, 58
1, 83132, Note_on_c, 0, 74, 67
1, 83170, Note_off_c, 0, 74, 58
1, 83198, Note_on_c, 0, 72, 66
1, 83235, Note_off_c, 0, 72, 58
1, 83238, Note_on_c, 0, 53, 54
1, 83259, Note_on_c, 0, 74, 64
1, 83267, Note_off_c, 0, 53, 57
1, 83290, Note_off_c, 0, 74, 63
1, 83322, Note_on_c, 0, 72, 55
1, 83349, Note_off_c, 0, 72, 56
1, 83380, Note_on_c, 0, 74, 61
1, 83400, Note_off_c, 0, 74, 63
1, 83417, Note_on_c, 0, 57, 55
1, 83425, Note_on_c, 0, 72, 68
1, 83449, Note_off_c, 0, 57, 65
1, 83453, Note_off_c, 0, 72, 62
1, 83479, Note_on_c, 0, 74, 63
1, 83504, Note_off_c, 0, 74, 58
1, 83531, Note_on_c, 0, 72, 62
1, 83560, Note_off_c, 0, 72, 64
1, 83561, Note_on_c, 0, 60, 56
1, 83579, Note_on_c, 0, 74, 66
1, 83596, Note_off_c, 0, 60, 60
1, 83609, Note_off_c, 0, 74, 62
1, 83635, Note_on_c, 0, 72, 70
1, 83679, Note_off_c, 0, 72, 62
1, 83688, Note_on_c, 0, 74, 70
1, 83723, Note_on_c, 0, 63, 61
1, 83723, Note_off_c, 0, 74, 59
1, 83749, Note_on_c, 0, 72, 64
1, 83754, Note_off_c, 0, 63, 64
1, 83793, Note_off_c, 0, 72, 62
1, 83800, Note_on_c, 0, 74, 64
1, 83835, Note_off_c, 0, 74, 60
1, 83862, Note_on_c, 0, 72, 60
1, 83876, Note_on_c, 0, 41, 67
1, 83904, Note_off_c, 0, 72, 62
1, 83909, Note_on_c, 0, 74, 65
1, 83914, Note_off_c, 0, 41, 62
1, 83946, Note_off_c, 0, 74, 59
1, 83973, Note_on_c, 0, 72, 59
1, 84018, Note_off_c, 0, 72, 62
1, 84022, Note_on_c, 0, 74, 70
1, 84052, Note_on_c, 0, 45, 65
1, 84066, Note_off_c, 0, 74, 50
1, 84091, Note_off_c, 0, 45, 62
1, 84094, Note_on_c, 0, 72, 63
1, 84138, Note_off_c, 0, 72, 61
1, 84150, Note_on_c, 0, 74, 65
1, 84186, Note_off_c, 0, 74, 59
1, 84208, Note_on_c, 0, 72, 65
1, 84216, Note_on_c, 0, 48, 66
1, 84252, Note_off_c, 0, 48, 62
1, 84253, Note_off_c, 0, 72, 62
1, 84264, Note_on_c, 0, 74, 66
1, 84302, Note_off_c, 0, 74, 57
1, 84321, Note_on_c, 0, 72, 65
1, 84368, Note_off_c, 0, 72, 62
1, 84372, Note_on_c, 0, 51, 55
1, 84377, Note_on_c, 0, 74, 67
1, 84405, Note_off_c, 0, 51, 65
1, 84410, Note_off_c, 0, 74, 59
1, 84435, Note_on_c, 0, 72, 61
1, 84471, Note_off_c, 0, 72, 62
1, 84485, Note_on_c, 0, 74, 64
1, 84516, Note_on_c, 0, 42, 67
1, 84521, Note_off_c, 0, 74, 58
1, 84540, Note_on_c, 0, 72, 65
1, 84559, Note_off_c, 0, 42, 60
1, 84585, Note_off_c, 0, 72, 62
1, 84593, Note_on_c, 0, 74, 71
1, 84628, Note_off_c, 0, 74, 57
1, 84660, Note_on_c, 0, 72, 65
1, 84665, Note_on_c, 0, 45, 77
1, 84697, Note_off_c, 0, 45, 65
1, 84702, Note_off_c, 0, 72, 61
1, 84708, Note_on_c, 0, 74, 69
1, 84742, Note_off_c, 0, 74, 57
1, 84763, Note_on_c, 0, 72, 64
1, 84807, Note_off_c, 0, 72, 64
1, 84812, Note_on_c, 0, 74, 70
1, 84831, Note_on_c, 0, 48, 77
1, 84861, Note_off_c, 0, 48, 67
1, 84868, Note_off_c, 0, 74, 57
1, 84884, Note_on_c, 0, 72, 65
1, 84926, Note_on_c, 0, 74, 66
1, 84929, Note_off_c, 0, 72, 62
1, 84985, Note_on_c, 0, 51, 77
1, 84985, Note_off_c, 0, 74, 53
1, 84994, Note_on_c, 0, 72, 71
1, 85022, Note_off_c, 0, 51, 62
1, 85040, Note_on_c, 0, 74, 62
1, 85040, Note_off_c, 0, 72, 64
1, 85099, Note_off_c, 0, 74, 51
1, 85120, Note_on_c, 0, 72, 66
1, 85151, Note_on_c, 0, 41, 64
1, 85158, Note_on_c, 0, 74, 61
1, 85160, Note_off_c, 0, 72, 59
1, 85192, Note_off_c, 0, 41, 64
1, 85209, Note_off_c, 0, 74, 59
1, 85233, Note_on_c, 0, 72, 61
1, 85281, Note_on_c, 0, 74, 59
1, 85283, Note_off_c, 0, 72, 55
1, 85316, Note_on_c, 0, 45, 65
1, 85325, Note_off_c, 0, 74, 58
1, 85340, Note_on_c, 0, 72, 55
1, 85352, Note_off_c, 0, 45, 60
1, 85398, Note_off_c, 0, 72, 60
1, 85400, Note_on_c, 0, 74, 61
1, 85447, Note_off_c, 0, 74, 57
1, 85459, Note_on_c, 0, 72, 61
1, 85474, Note_on_c, 0, 48, 66
1, 85509, Note_off_c, 0, 48, 66
1, 85519, Note_on_c, 0, 74, 67
1, 85519, Note_off_c, 0, 72, 57
1, 85577, Note_off_c, 0, 74, 59
1, 85596, Note_on_c, 0, 72, 62
1, 85636, Note_on_c, 0, 51, 72
1, 85647, Note_on_c, 0, 74, 67
1, 85651, Note_off_c, 0, 72, 61
1, 85676, Note_off_c, 0, 51, 60
1, 85694, Note_off_c, 0, 74, 58
1, 85717, Note_on_c, 0, 72, 69
1, 85774, Note_off_c, 0, 72, 59
1, 85781, Note_on_c, 0, 74, 72
1, 85789, Note_on_c, 0, 53, 85
1, 85824, Note_off_c, 0, 53, 62
1, 85836, Note_off_c, 0, 74, 56
1, 85846, Note_on_c, 0, 72, 65
1, 85901, Note_on_c, 0, 74, 70
1, 85901, Note_off_c, 0, 72, 59
1, 85938, Note_on_c, 0, 57, 85
1, 85959, Note_on_c, 0, 72, 67
1, 85960, Note_off_c, 0, 74, 59
1, 85977, Note_off_c, 0, 57, 63
1, 86017, Note_off_c, 0, 72, 59
1, 86022, Note_on_c, 0, 74, 70
1, 86076, Note_off_c, 0, 74, 58
1, 86079, Note_on_c, 0, 72, 70
1, 86085, Note_on_c, 0, 60, 92
1, 86121, Note_off_c, 0, 60, 61
1, 86124, Poly_aftertouch_c, 0, 74, 0
1, 86130, Note_on_c, 0, 74, 66
1, 86141, Note_off_c, 0, 72, 59
1, 86194, Note_off_c, 0, 74, 60
1, 86196, Note_on_c, 0, 72, 70
1, 86233, Note_on_c, 0, 74, 58
1, 86236, Note_on_c, 0, 63, 94
1, 86246, Note_off_c, 0, 72, 59
1, 86280, Note_off_c, 0, 63, 63
1, 86299, Note_off_c, 0, 74, 59
1, 86301, Note_on_c, 0, 72, 71
1, 86356, Note_on_c, 0, 74, 69
1, 86359, Note_off_c, 0, 72, 61
1, 86401, Note_on_c, 0, 53, 63
1, 86416, Note_off_c, 0, 74, 61
1, 86438, Note_off_c, 0, 53, 59
1, 86439, Note_on_c, 0, 71, 80
1, 86503, Note_on_c, 0, 72, 75
1, 86523, Note_off_c, 0, 71, 55
1, 86591, Note_on_c, 0, 77, 79
1, 86592, Note_on_c, 0, 63, 61
1, 86602, Note_off_c, 0, 72, 61
1, 86650, Note_off_c, 0, 63, 56
1, 86654, Note_off_c, 0, 77, 60
1, 86750, Note_on_c, 0, 53, 50
1, 86765, Note_on_c, 0, 77, 69
1, 86799, Note_off_c, 0, 53, 56
1, 86836, Note_off_c, 0, 77, 57
1, 86963, Note_on_c, 0, 70, 57
1, 86976, Note_on_c, 0, 62, 45
1, 86984, Note_on_c, 0, 58, 34
1, 87010, Note_off_c, 0, 70, 57
1, 87140, Note_on_c, 0, 70, 60
1, 87267, Note_off_c, 0, 62, 35
1, 87301, Note_on_c, 0, 71, 63
1, 87329, Note_off_c, 0, 58, 43
1, 87336, Note_off_c, 0, 70, 52
1, 87466, Note_on_c, 0, 72, 78
1, 87506, Note_off_c, 0, 71, 59
1, 87633, Note_on_c, 0, 73, 80
1, 87690, Note_off_c, 0, 72, 59
1, 87821, Note_on_c, 0, 74, 80
1, 87856, Note_off_c, 0, 73, 61
1, 88061, Note_on_c, 0, 75, 75
1, 88087, Note_on_c, 0, 58, 43
1, 88097, Note_on_c, 0, 55, 34
1, 88101, Note_off_c, 0, 74, 59
1, 88256, Control_c, 0, 64, 24
1, 88271, Control_c, 0, 64, 45
1, 88286, Control_c, 0, 64, 53
1, 88301, Control_c, 0, 64, 57
1, 88315, Control_c, 0, 64, 60
1, 88330, Control_c, 0, 64, 63
1, 88345, Control_c, 0, 64, 69
1, 88360, Control_c, 0, 64, 80
1, 88375, Control_c, 0, 64, 98
1, 88389, Control_c, 0, 64, 127
1, 88524, Note_off_c, 0, 58, 34
1, 88554, Note_off_c, 0, 55, 35
1, 89020, Control_c, 0, 64, 118
1, 89035, Control_c, 0, 64, 103
1, 89050, Control_c, 0, 64, 93
1, 89064, Control_c, 0, 64, 83
1, 89079, Control_c, 0, 64, 74
1, 89094, Control_c, 0, 64, 66
1, 89105, Note_on_c, 0, 67, 52
1, 89109, Control_c, 0, 64, 60
1, 89110, Note_on_c, 0, 60, 31
1, 89114, Note_on_c, 0, 51, 30
1, 89123, Control_c, 0, 64, 52
1, 89127, Note_on_c, 0, 63, 34
1, 89138, Control_c, 0, 64, 47
1, 89153, Control_c, 0, 64, 43
1, 89168, Control_c, 0, 64, 49
1, 89183, Control_c, 0, 64, 47
1, 89197, Control_c, 0, 64, 45
1, 89212, Control_c, 0, 64, 44
1, 89227, Note_off_c, 0, 75, 57
1, 89227, Control_c, 0, 64, 43
1, 89242, Control_c, 0, 64, 43
1, 89257, Control_c, 0, 64, 42
1, 89323, Control_c, 0, 64, 45
1, 89338, Control_c, 0, 64, 51
1, 89353, Control_c, 0, 64, 59
1, 89368, Control_c, 0, 64, 66
1, 89383, Control_c, 0, 64, 73
1, 89397, Control_c, 0, 64, 82
1, 89412, Control_c, 0, 64, 99
1, 89427, Control_c, 0, 64, 127
1, 89505, Note_off_c, 0, 60, 36
1, 89537, Note_off_c, 0, 63, 41
1, 89552, Note_off_c, 0, 51, 39
1, 89648, Note_off_c, 0, 67, 32
1, 89873, Control_c, 0, 64, 123
1, 89887, Control_c, 0, 64, 117
1, 89902, Control_c, 0, 64, 114
1, 89917, Control_c, 0, 64, 112
1, 89932, Control_c, 0, 64, 110
1, 89946, Control_c, 0, 64, 108
1, 89961, Control_c, 0, 64, 106
1, 89976, Control_c, 0, 64, 104
1, 89991, Control_c, 0, 64, 101
1, 90006, Control_c, 0, 64, 95
1, 90020, Control_c, 0, 64, 87
1, 90035, Control_c, 0, 64, 78
1, 90050, Control_c, 0, 64, 68
1, 90073, Control_c, 0, 64, 61
1, 90076, Note_on_c, 0, 70, 48
1, 90080, Note_on_c, 0, 53, 28
1, 90088, Control_c, 0, 64, 56
1, 90089, Note_on_c, 0, 60, 26
1, 90095, Note_on_c, 0, 63, 37
1, 90102, Control_c, 0, 64, 55
1, 90132, Control_c, 0, 64, 56
1, 90146, Control_c, 0, 64, 59
1, 90161, Control_c, 0, 64, 63
1, 90175, Control_c, 0, 64, 67
1, 90190, Control_c, 0, 64, 67
1, 90218, Note_on_c, 0, 69, 63
1, 90220, Control_c, 0, 64, 66
1, 90228, Note_off_c, 0, 60, 50
1, 90234, Note_off_c, 0, 53, 41
1, 90235, Control_c, 0, 64, 65
1, 90238, Note_off_c, 0, 70, 45
1, 90250, Control_c, 0, 64, 63
1, 90264, Control_c, 0, 64, 61
1, 90278, Note_off_c, 0, 63, 47
1, 90279, Note_off_c, 0, 69, 57
1, 90279, Control_c, 0, 64, 58
1, 90295, Control_c, 0, 64, 56
1, 90309, Control_c, 0, 64, 54
1, 90324, Control_c, 0, 64, 54
1, 90367, Note_on_c, 0, 70, 57
1, 90376, Note_on_c, 0, 53, 39
1, 90381, Note_on_c, 0, 60, 43
1, 90388, Note_on_c, 0, 69, 77
1, 90393, Note_on_c, 0, 63, 50
1, 90431, Note_off_c, 0, 70, 54
1, 90453, Note_off_c, 0, 63, 48
1, 90477, Note_off_c, 0, 60, 53
1, 90539, Note_on_c, 0, 67, 76
1, 90569, Note_off_c, 0, 69, 59
1, 90695, Note_on_c, 0, 60, 39
1, 90697, Note_on_c, 0, 69, 71
1, 90706, Note_on_c, 0, 63, 60
1, 90738, Note_off_c, 0, 67, 60
1, 90795, Note_off_c, 0, 63, 53
1, 90798, Control_c, 0, 64, 54
1, 90842, Note_off_c, 0, 53, 42
1, 90846, Note_off_c, 0, 60, 57
1, 90855, Note_on_c, 0, 57, 47
1, 90855, Note_off_c, 0, 69, 56
1, 90869, Note_on_c, 0, 72, 66
1, 90886, Note_off_c, 0, 57, 64
1, 91038, Note_on_c, 0, 46, 45
1, 91051, Note_on_c, 0, 58, 46
1, 91052, Note_on_c, 0, 62, 54
1, 91052, Note_on_c, 0, 70, 66
1, 91058, Control_c, 0, 64, 55
1, 91073, Control_c, 0, 64, 55
1, 91081, Note_off_c, 0, 46, 60
1, 91085, Note_off_c, 0, 72, 35
1, 91089, Control_c, 0, 64, 56
1, 91093, Note_off_c, 0, 62, 58
1, 91093, Note_off_c, 0, 58, 61
1, 91104, Control_c, 0, 64, 56
1, 91118, Control_c, 0, 64, 57
1, 91121, Note_off_c, 0, 70, 58
1, 91212, Note_on_c, 0, 58, 55
1, 91221, Note_on_c, 0, 70, 65
1, 91359, Note_off_c, 0, 58, 50
1, 91376, Note_on_c, 0, 71, 76
1, 91385, Note_on_c, 0, 59, 58
1, 91393, Note_off_c, 0, 70, 56
1, 91540, Note_on_c, 0, 72, 82
1, 91543, Note_on_c, 0, 60, 72
1, 91587, Note_off_c, 0, 71, 59
1, 91591, Note_off_c, 0, 59, 57
1, 91709, Note_on_c, 0, 61, 77
1, 91709, Note_on_c, 0, 73, 88
1, 91749, Note_off_c, 0, 60, 55
1, 91759, Note_off_c, 0, 72, 62
1, 91882, Note_on_c, 0, 62, 75
1, 91882, Note_on_c, 0, 74, 84
1, 91897, Note_off_c, 0, 61, 56
1, 91905, Note_off_c, 0, 73, 58
1, 92001, Control_c, 0, 64, 56
1, 92024, Note_off_c, 0, 62, 57
1, 92045, Control_c, 0, 64, 56
1, 92055, Note_off_c, 0, 74, 55
1, 92060, Control_c, 0, 64, 55
1, 92075, Control_c, 0, 64, 54
1, 92089, Control_c, 0, 64, 53
1, 92103, Note_on_c, 0, 63, 80
1, 92103, Note_on_c, 0, 75, 84
1, 92104, Control_c, 0, 64, 51
1, 92119, Control_c, 0, 64, 49
1, 92133, Control_c, 0, 64, 47
1, 92148, Control_c, 0, 64, 45
1, 92163, Control_c, 0, 64, 43
1, 92178, Control_c, 0, 64, 41
1, 92193, Control_c, 0, 64, 40
1, 92208, Control_c, 0, 64, 40
1, 92253, Control_c, 0, 64, 42
1, 92268, Control_c, 0, 64, 50
1, 92282, Control_c, 0, 64, 60
1, 92297, Control_c, 0, 64, 69
1, 92319, Control_c, 0, 64, 81
1, 92334, Control_c, 0, 64, 127
1, 92430, Note_off_c, 0, 63, 54
1, 93230, Control_c, 0, 64, 107
1, 93233, Note_on_c, 0, 51, 47
1, 93239, Note_on_c, 0, 67, 61
1, 93243, Note_on_c, 0, 55, 51
1, 93245, Control_c, 0, 64, 83
1, 93260, Control_c, 0, 64, 69
1, 93264, Note_on_c, 0, 63, 41
1, 93275, Control_c, 0, 64, 59
1, 93290, Control_c, 0, 64, 53
1, 93305, Control_c, 0, 64, 51
1, 93320, Control_c, 0, 64, 50
1, 93350, Control_c, 0, 64, 49
1, 93364, Control_c, 0, 64, 48
1, 93379, Control_c, 0, 64, 48
1, 93424, Control_c, 0, 64, 51
1, 93438, Control_c, 0, 64, 57
1, 93453, Control_c, 0, 64, 64
1, 93468, Control_c, 0, 64, 71
1, 93484, Control_c, 0, 64, 80
1, 93486, Note_off_c, 0, 75, 58
1, 93497, Note_off_c, 0, 63, 42
1, 93499, Control_c, 0, 64, 95
1, 93513, Control_c, 0, 64, 127
1, 93576, Note_off_c, 0, 55, 32
1, 93676, Control_c, 0, 67, 18
1, 93691, Control_c, 0, 67, 21
1, 93705, Control_c, 0, 67, 23
1, 93720, Control_c, 0, 67, 24
1, 93735, Control_c, 0, 67, 24
1, 93750, Control_c, 0, 67, 25
1, 93765, Control_c, 0, 67, 25
1, 93779, Control_c, 0, 67, 26
1, 93794, Control_c, 0, 67, 27
1, 93817, Control_c, 0, 67, 29
1, 93832, Control_c, 0, 67, 31
1, 93847, Control_c, 0, 67, 32
1, 93861, Control_c, 0, 67, 34
1, 93876, Control_c, 0, 67, 35
1, 93891, Control_c, 0, 67, 36
1, 93906, Control_c, 0, 67, 38
1, 93919, Control_c, 0, 67, 40
1, 93934, Control_c, 0, 64, 101
1, 93934, Control_c, 0, 67, 42
1, 93949, Control_c, 0, 64, 82
1, 93949, Control_c, 0, 67, 44
1, 93955, Note_on_c, 0, 56, 43
1, 93960, Note_on_c, 0, 68, 53
1, 93964, Control_c, 0, 64, 65
1, 93964, Control_c, 0, 67, 46
1, 93979, Control_c, 0, 64, 55
1, 93979, Control_c, 0, 67, 48
1, 93994, Control_c, 0, 64, 49
1, 93994, Control_c, 0, 67, 48
1, 94008, Control_c, 0, 64, 48
1, 94008, Control_c, 0, 67, 49
1, 94068, Control_c, 0, 64, 49
1, 94068, Control_c, 0, 67, 49
1, 94083, Control_c, 0, 64, 52
1, 94098, Control_c, 0, 64, 58
1, 94098, Control_c, 0, 67, 50
1, 94112, Control_c, 0, 64, 64
1, 94112, Control_c, 0, 67, 50
1, 94125, Note_off_c, 0, 56, 39
1, 94127, Control_c, 0, 64, 69
1, 94127, Control_c, 0, 67, 51
1, 94142, Control_c, 0, 64, 76
1, 94142, Control_c, 0, 67, 52
1, 94151, Note_off_c, 0, 67, 47
1, 94157, Control_c, 0, 64, 89
1, 94157, Control_c, 0, 67, 52
1, 94157, Note_on_c, 0, 58, 47
1, 94157, Note_on_c, 0, 70, 66
1, 94172, Control_c, 0, 64, 123
1, 94172, Control_c, 0, 67, 53
1, 94186, Control_c, 0, 64, 127
1, 94186, Control_c, 0, 67, 54
1, 94193, Note_off_c, 0, 51, 29
1, 94201, Control_c, 0, 67, 54
1, 94207, Note_off_c, 0, 58, 58
1, 94216, Control_c, 0, 67, 55
1, 94219, Note_off_c, 0, 68, 36
1, 94230, Control_c, 0, 67, 55
1, 94231, Note_off_c, 0, 70, 57
1, 94542, Control_c, 0, 64, 108
1, 94565, Control_c, 0, 64, 96
1, 94580, Control_c, 0, 64, 83
1, 94590, Note_on_c, 0, 72, 57
1, 94595, Control_c, 0, 64, 70
1, 94602, Note_on_c, 0, 63, 46
1, 94609, Control_c, 0, 64, 60
1, 94609, Control_c, 0, 67, 55
1, 94611, Note_on_c, 0, 60, 37
1, 94614, Note_on_c, 0, 53, 40
1, 94624, Control_c, 0, 64, 48
1, 94629, Note_on_c, 0, 51, 39
1, 94634, Note_on_c, 0, 44, 37
1, 94639, Control_c, 0, 64, 34
1, 94646, Note_on_c, 0, 56, 41
1, 94654, Control_c, 0, 67, 54
1, 94669, Control_c, 0, 64, 0
1, 94684, Control_c, 0, 67, 54
1, 94714, Control_c, 0, 67, 53
1, 94729, Control_c, 0, 67, 53
1, 94743, Control_c, 0, 67, 52
1, 94758, Control_c, 0, 64, 27
1, 94758, Control_c, 0, 67, 52
1, 94773, Control_c, 0, 64, 42
1, 94773, Control_c, 0, 67, 51
1, 94788, Control_c, 0, 64, 59
1, 94803, Control_c, 0, 64, 67
1, 94803, Control_c, 0, 67, 51
1, 94817, Control_c, 0, 64, 73
1, 94832, Control_c, 0, 64, 76
1, 94861, Control_c, 0, 64, 75
1, 94864, Note_on_c, 0, 65, 59
1, 94876, Control_c, 0, 64, 70
1, 94891, Control_c, 0, 64, 63
1, 94894, Note_off_c, 0, 65, 64
1, 94906, Control_c, 0, 64, 55
1, 94908, Note_off_c, 0, 63, 55
1, 94921, Control_c, 0, 64, 46
1, 94935, Control_c, 0, 64, 39
1, 94939, Note_off_c, 0, 60, 0
1, 94939, Note_on_c, 0, 60, 6
1, 94950, Control_c, 0, 64, 36
1, 94965, Control_c, 0, 67, 51
1, 94976, Note_on_c, 0, 65, 56
1, 94985, Poly_aftertouch_c, 0, 63, 127
1, 95054, Control_c, 0, 67, 52
1, 95109, Poly_aftertouch_c, 0, 63, 0
1, 95114, Control_c, 0, 67, 52
1, 95229, Note_off_c, 0, 60, 39
1, 95235, Note_off_c, 0, 65, 44
1, 95261, Note_off_c, 0, 44, 58
1, 95265, Note_off_c, 0, 56, 59
1, 95269, Note_off_c, 0, 72, 50
1, 95279, Note_off_c, 0, 51, 58
1, 95279, Note_off_c, 0, 53, 57
1, 95389, Control_c, 0, 67, 53
1, 95462, Control_c, 0, 67, 53
1, 95536, Control_c, 0, 67, 54
1, 95551, Control_c, 0, 67, 55
1, 95565, Control_c, 0, 67, 56
1, 95580, Control_c, 0, 64, 36
1, 95595, Control_c, 0, 67, 56
1, 95610, Control_c, 0, 64, 35
1, 95625, Control_c, 0, 64, 35
1, 95654, Control_c, 0, 64, 34
1, 95697, Note_on_c, 0, 72, 57
1, 95699, Control_c, 0, 64, 36
1, 95705, Note_on_c, 0, 56, 35
1, 95706, Note_on_c, 0, 53, 35
1, 95709, Note_on_c, 0, 63, 48
1, 95711, Note_on_c, 0, 51, 33
1, 95714, Control_c, 0, 64, 46
1, 95718, Note_on_c, 0, 44, 33
1, 95728, Note_on_c, 0, 60, 29
1, 95728, Control_c, 0, 64, 59
1, 95743, Control_c, 0, 64, 71
1, 95743, Control_c, 0, 67, 57
1, 95758, Control_c, 0, 64, 86
1, 95773, Control_c, 0, 64, 127
1, 95954, Note_on_c, 0, 65, 55
1, 95967, Control_c, 0, 67, 56
1, 95975, Note_off_c, 0, 65, 63
1, 95996, Control_c, 0, 67, 56
1, 96001, Note_off_c, 0, 63, 0
1, 96017, Poly_aftertouch_c, 0, 63, 0
1, 96026, Control_c, 0, 67, 55
1, 96061, Poly_aftertouch_c, 0, 63, 127
1, 96063, Note_on_c, 0, 65, 67
1, 96077, Control_c, 0, 67, 55
1, 96118, Note_off_c, 0, 60, 39
1, 96141, Note_off_c, 0, 56, 35
1, 96184, Poly_aftertouch_c, 0, 63, 0
1, 96195, Note_off_c, 0, 72, 36
1, 96196, Note_off_c, 0, 51, 52
1, 96196, Note_off_c, 0, 53, 34
1, 96196, Note_off_c, 0, 65, 55
1, 96251, Note_off_c, 0, 44, 39
1, 96284, Control_c, 0, 67, 55
1, 96299, Control_c, 0, 67, 56
1, 96313, Control_c, 0, 67, 57
1, 96343, Control_c, 0, 67, 57
1, 96373, Control_c, 0, 67, 58
1, 96387, Control_c, 0, 64, 101
1, 96387, Control_c, 0, 67, 61
1, 96402, Control_c, 0, 64, 86
1, 96402, Control_c, 0, 67, 65
1, 96417, Control_c, 0, 64, 70
1, 96417, Control_c, 0, 67, 69
1, 96432, Control_c, 0, 64, 62
1, 96432, Control_c, 0, 67, 72
1, 96447, Control_c, 0, 64, 54
1, 96462, Control_c, 0, 64, 52
1, 96477, Control_c, 0, 64, 51
1, 96729, Control_c, 0, 67, 72
1, 96744, Control_c, 0, 67, 71
1, 96759, Control_c, 0, 64, 52
1, 96774, Control_c, 0, 64, 54
1, 96774, Control_c, 0, 67, 71
1, 96789, Control_c, 0, 64, 57
1, 96789, Control_c, 0, 67, 70
1, 96810, Control_c, 0, 64, 62
1, 96810, Control_c, 0, 67, 69
1, 96816, Note_on_c, 0, 63, 43
1, 96816, Note_on_c, 0, 65, 46
1, 96819, Note_on_c, 0, 60, 43
1, 96821, Note_on_c, 0, 53, 30
1, 96825, Control_c, 0, 64, 67
1, 96825, Control_c, 0, 67, 68
1, 96832, Note_on_c, 0, 44, 32
1, 96834, Note_on_c, 0, 32, 30
1, 96840, Control_c, 0, 64, 74
1, 96840, Control_c, 0, 67, 68
1, 96848, Note_on_c, 0, 36, 21
1, 96855, Control_c, 0, 64, 84
1, 96855, Control_c, 0, 67, 67
1, 96870, Control_c, 0, 64, 100
1, 96870, Control_c, 0, 67, 67
1, 96885, Control_c, 0, 64, 127
1, 96885, Control_c, 0, 67, 66
1, 96900, Control_c, 0, 67, 66
1, 96929, Note_off_c, 0, 32, 46
1, 96960, Note_off_c, 0, 44, 35
1, 96960, Note_off_c, 0, 65, 51
1, 96971, Note_off_c, 0, 53, 41
1, 96971, Note_off_c, 0, 60, 47
1, 96973, Note_off_c, 0, 63, 40
1, 96974, Note_off_c, 0, 36, 32
1, 97003, Control_c, 0, 67, 65
1, 97018, Control_c, 0, 67, 64
1, 97033, Control_c, 0, 67, 63
1, 97107, Control_c, 0, 67, 63
1, 97136, Control_c, 0, 67, 62
1, 97151, Control_c, 0, 67, 62
1, 97166, Control_c, 0, 67, 61
1, 97181, Note_on_c, 0, 60, 44
1, 97181, Control_c, 0, 64, 99
1, 97181, Control_c, 0, 67, 60
1, 97188, Note_on_c, 0, 53, 48
1, 97188, Note_on_c, 0, 65, 57
1, 97191, Note_on_c, 0, 44, 47
1, 97192, Note_on_c, 0, 32, 42
1, 97196, Control_c, 0, 64, 79
1, 97196, Control_c, 0, 67, 59
1, 97200, Note_on_c, 0, 63, 52
1, 97205, Note_on_c, 0, 36, 30
1, 97210, Control_c, 0, 64, 68
1, 97210, Control_c, 0, 67, 59
1, 97225, Control_c, 0, 64, 65
1, 97225, Control_c, 0, 67, 57
1, 97240, Control_c, 0, 64, 67
1, 97240, Control_c, 0, 67, 56
1, 97255, Note_off_c, 0, 32, 55
1, 97255, Control_c, 0, 64, 77
1, 97255, Control_c, 0, 67, 53
1, 97261, Note_off_c, 0, 36, 49
1, 97261, Note_off_c, 0, 44, 55
1, 97270, Control_c, 0, 64, 102
1, 97270, Control_c, 0, 67, 52
1, 97284, Control_c, 0, 64, 127
1, 97284, Control_c, 0, 67, 51
1, 97314, Control_c, 0, 67, 50
1, 97317, Note_off_c, 0, 60, 49
1, 97322, Note_off_c, 0, 53, 40
1, 97329, Control_c, 0, 67, 50
1, 97342, Note_off_c, 0, 63, 35
1, 97344, Control_c, 0, 67, 49
1, 97350, Note_off_c, 0, 65, 36
1, 97359, Control_c, 0, 67, 47
1, 97374, Control_c, 0, 67, 45
1, 97389, Control_c, 0, 67, 43
1, 97403, Control_c, 0, 67, 41
1, 97418, Control_c, 0, 67, 40
1, 97433, Control_c, 0, 67, 38
1, 97447, Control_c, 0, 67, 37
1, 97462, Control_c, 0, 67, 35
1, 97478, Control_c, 0, 67, 33
1, 97493, Control_c, 0, 67, 31
1, 97508, Control_c, 0, 67, 29
1, 97523, Control_c, 0, 67, 28
1, 97538, Control_c, 0, 67, 26
1, 97540, Note_on_c, 0, 65, 59
1, 97551, Note_on_c, 0, 53, 55
1, 97551, Note_on_c, 0, 60, 54
1, 97559, Control_c, 0, 64, 90
1, 97559, Control_c, 0, 67, 25
1, 97561, Note_on_c, 0, 44, 49
1, 97563, Note_on_c, 0, 63, 57
1, 97564, Note_on_c, 0, 32, 46
1, 97574, Control_c, 0, 64, 73
1, 97574, Control_c, 0, 67, 24
1, 97581, Note_on_c, 0, 36, 35
1, 97589, Control_c, 0, 64, 65
1, 97589, Control_c, 0, 67, 24
1, 97604, Control_c, 0, 64, 66
1, 97604, Control_c, 0, 67, 22
1, 97619, Control_c, 0, 64, 72
1, 97619, Control_c, 0, 67, 21
1, 97632, Note_off_c, 0, 32, 57
1, 97633, Control_c, 0, 64, 94
1, 97633, Control_c, 0, 67, 37
1, 97635, Note_off_c, 0, 36, 55
1, 97643, Note_off_c, 0, 44, 52
1, 97648, Control_c, 0, 64, 127
1, 97648, Control_c, 0, 67, 36
1, 97664, Control_c, 0, 67, 34
1, 97673, Note_off_c, 0, 53, 51
1, 97678, Control_c, 0, 67, 34
1, 97684, Note_off_c, 0, 65, 49
1, 97693, Control_c, 0, 67, 33
1, 97708, Control_c, 0, 67, 33
1, 97710, Note_off_c, 0, 63, 53
1, 97723, Control_c, 0, 67, 32
1, 97738, Note_off_c, 0, 60, 34
1, 97738, Control_c, 0, 67, 31
1, 97752, Control_c, 0, 67, 31
1, 97767, Control_c, 0, 67, 30
1, 97782, Control_c, 0, 67, 29
1, 97797, Control_c, 0, 67, 27
1, 97812, Control_c, 0, 67, 25
1, 97827, Control_c, 0, 67, 23
1, 97842, Control_c, 0, 67, 21
1, 97857, Control_c, 0, 67, 18
1, 97872, Control_c, 0, 67, 17
1, 97975, Control_c, 0, 64, 99
1, 97979, Note_on_c, 0, 66, 61
1, 97980, Note_on_c, 0, 60, 52
1, 97982, Note_on_c, 0, 63, 56
1, 97986, Note_on_c, 0, 44, 48
1, 97987, Note_on_c, 0, 54, 52
1, 97990, Control_c, 0, 64, 75
1, 97990, Control_c, 0, 67, 0
1, 97993, Note_on_c, 0, 32, 42
1, 98004, Control_c, 0, 64, 59
1, 98010, Note_on_c, 0, 36, 31
1, 98019, Control_c, 0, 64, 36
1, 98034, Control_c, 0, 64, 0
1, 98152, Control_c, 0, 64, 32
1, 98167, Control_c, 0, 64, 51
1, 98182, Control_c, 0, 64, 63
1, 98197, Control_c, 0, 64, 71
1, 98212, Control_c, 0, 64, 81
1, 98226, Control_c, 0, 64, 101
1, 98241, Control_c, 0, 64, 127
1, 98372, Note_off_c, 0, 44, 35
1, 98386, Note_off_c, 0, 32, 39
1, 98405, Note_off_c, 0, 54, 0
1, 98438, Poly_aftertouch_c, 0, 54, 0
1, 98441, Note_off_c, 0, 66, 36
1, 98448, Note_off_c, 0, 63, 37
1, 98463, Note_off_c, 0, 36, 27
1, 98516, Note_off_c, 0, 60, 37
1, 99163, Note_on_c, 0, 66, 65
1, 99167, Note_on_c, 0, 60, 55
1, 99168, Note_on_c, 0, 54, 56
1, 99174, Note_on_c, 0, 63, 58
1, 99180, Note_on_c, 0, 44, 56
1, 99189, Note_on_c, 0, 32, 49
1, 99192, Control_c, 0, 64, 88
1, 99205, Note_on_c, 0, 36, 41
1, 99206, Control_c, 0, 64, 70
1, 99221, Control_c, 0, 64, 60
1, 99236, Control_c, 0, 64, 58
1, 99250, Control_c, 0, 64, 61
1, 99265, Control_c, 0, 64, 70
1, 99280, Control_c, 0, 64, 85
1, 99295, Control_c, 0, 64, 127
1, 99301, Note_off_c, 0, 44, 54
1, 99329, Note_off_c, 0, 32, 34
1, 99353, Note_off_c, 0, 66, 50
1, 99358, Note_off_c, 0, 36, 41
1, 99365, Note_off_c, 0, 60, 52
1, 99377, Note_off_c, 0, 54, 35
1, 99384, Note_off_c, 0, 63, 35
1, 99580, Note_on_c, 0, 66, 78
1, 99583, Note_on_c, 0, 54, 74
1, 99583, Note_on_c, 0, 60, 67
1, 99583, Note_on_c, 0, 32, 57
1, 99585, Note_on_c, 0, 63, 80
1, 99589, Note_on_c, 0, 44, 63
1, 99591, Control_c, 0, 64, 89
1, 99606, Control_c, 0, 64, 68
1, 99607, Note_on_c, 0, 36, 48
1, 99621, Control_c, 0, 64, 60
1, 99636, Control_c, 0, 64, 62
1, 99650, Control_c, 0, 64, 70
1, 99665, Control_c, 0, 64, 88
1, 99678, Note_off_c, 0, 32, 57
1, 99678, Note_off_c, 0, 44, 58
1, 99680, Control_c, 0, 64, 127
1, 99737, Note_off_c, 0, 63, 49
1, 99738, Note_off_c, 0, 60, 52
1, 99740, Note_off_c, 0, 36, 33
1, 99741, Note_off_c, 0, 66, 53
1, 99748, Note_off_c, 0, 54, 36
1, 99994, Note_on_c, 0, 60, 66
1, 99995, Note_on_c, 0, 44, 73
1, 99996, Note_on_c, 0, 63, 84
1, 99997, Note_on_c, 0, 66, 85
1, 99997, Note_on_c, 0, 32, 65
1, 100000, Note_on_c, 0, 54, 85
1, 100007, Note_on_c, 0, 36, 57
1, 100080, Note_off_c, 0, 44, 60
1, 100088, Note_off_c, 0, 36, 57
1, 100105, Note_off_c, 0, 32, 58
1, 100117, Note_off_c, 0, 54, 60
1, 100156, Note_off_c, 0, 66, 56
1, 100164, Note_off_c, 0, 63, 37
1, 100165, Note_off_c, 0, 60, 35
1, 100477, Note_on_c, 0, 67, 86
1, 100480, Note_on_c, 0, 60, 76
1, 100480, Note_on_c, 0, 63, 83
1, 100480, Note_on_c, 0, 43, 75
1, 100482, Note_on_c, 0, 55, 80
1, 100485, Note_on_c, 0, 36, 70
1, 100488, Control_c, 0, 64, 84
1, 100489, Note_on_c, 0, 31, 61
1, 100503, Control_c, 0, 64, 60
1, 100518, Control_c, 0, 64, 0
1, 100629, Control_c, 0, 64, 30
1, 100644, Control_c, 0, 64, 61
1, 100659, Control_c, 0, 64, 68
1, 100674, Control_c, 0, 64, 73
1, 100689, Control_c, 0, 64, 82
1, 100704, Control_c, 0, 64, 109
1, 100718, Control_c, 0, 64, 127
1, 100814, Note_off_c, 0, 43, 54
1, 100862, Note_off_c, 0, 55, 35
1, 100913, Note_off_c, 0, 67, 35
1, 100934, Note_off_c, 0, 31, 31
1, 100947, Note_off_c, 0, 36, 27
1, 100949, Note_off_c, 0, 63, 42
1, 100964, Note_off_c, 0, 60, 32
1, 101681, Note_on_c, 0, 67, 86
1, 101686, Note_on_c, 0, 63, 86
1, 101687, Note_on_c, 0, 60, 83
1, 101687, Note_on_c, 0, 55, 84
1, 101689, Note_on_c, 0, 43, 82
1, 101690, Control_c, 0, 64, 119
1, 101690, Note_on_c, 0, 31, 72
1, 101694, Note_on_c, 0, 36, 77
1, 101705, Control_c, 0, 64, 79
1, 101719, Control_c, 0, 64, 54
1, 101734, Control_c, 0, 64, 0
1, 101778, Control_c, 0, 64, 32
1, 101793, Control_c, 0, 64, 60
1, 101808, Control_c, 0, 64, 76
1, 101810, Note_off_c, 0, 43, 58
1, 101823, Control_c, 0, 64, 115
1, 101838, Control_c, 0, 64, 127
1, 101849, Note_off_c, 0, 55, 56
1, 101882, Note_off_c, 0, 31, 35
1, 101890, Note_off_c, 0, 60, 51
1, 101899, Note_off_c, 0, 63, 49
1, 101907, Note_off_c, 0, 67, 35
1, 101915, Note_off_c, 0, 36, 35
1, 102156, Control_c, 0, 64, 106
1, 102166, Note_on_c, 0, 36, 79
1, 102169, Note_on_c, 0, 67, 90
1, 102170, Note_on_c, 0, 43, 83
1, 102170, Note_on_c, 0, 63, 87
1, 102170, Note_on_c, 0, 31, 72
1, 102170, Control_c, 0, 64, 76
1, 102171, Note_on_c, 0, 55, 89
1, 102171, Note_on_c, 0, 60, 87
1, 102185, Control_c, 0, 64, 61
1, 102200, Control_c, 0, 64, 55
1, 102215, Control_c, 0, 64, 59
1, 102230, Control_c, 0, 64, 72
1, 102245, Control_c, 0, 64, 96
1, 102260, Control_c, 0, 64, 127
1, 102272, Note_off_c, 0, 43, 58
1, 102338, Note_off_c, 0, 55, 53
1, 102347, Note_off_c, 0, 31, 36
1, 102361, Note_off_c, 0, 67, 53
1, 102362, Note_off_c, 0, 63, 53
1, 102390, Note_off_c, 0, 60, 36
1, 102405, Note_off_c, 0, 36, 31
1, 102646, Control_c, 0, 64, 107
1, 102657, Note_on_c, 0, 36, 80
1, 102657, Note_on_c, 0, 43, 89
1, 102660, Note_on_c, 0, 31, 78
1, 102660, Note_on_c, 0, 67, 93
1, 102661, Control_c, 0, 64, 76
1, 102662, Note_on_c, 0, 55, 94
1, 102663, Note_on_c, 0, 60, 90
1, 102665, Note_on_c, 0, 63, 89
1, 102675, Control_c, 0, 64, 62
1, 102690, Control_c, 0, 64, 61
1, 102705, Control_c, 0, 64, 69
1, 102720, Control_c, 0, 64, 94
1, 102735, Control_c, 0, 64, 127
1, 102742, Note_off_c, 0, 43, 60
1, 102769, Note_off_c, 0, 31, 62
1, 102773, Note_off_c, 0, 55, 59
1, 102808, Note_off_c, 0, 36, 57
1, 102817, Note_off_c, 0, 67, 61
1, 102819, Note_off_c, 0, 60, 50
1, 102833, Note_off_c, 0, 63, 58
1, 103261, Control_c, 0, 64, 115
1, 103276, Control_c, 0, 64, 69
1, 103291, Note_on_c, 0, 60, 76
1, 103291, Control_c, 0, 64, 0
1, 103292, Note_on_c, 0, 63, 83
1, 103296, Note_on_c, 0, 57, 103
1, 103297, Note_on_c, 0, 69, 93
1, 103300, Note_on_c, 0, 42, 99
1, 103302, Note_on_c, 0, 30, 87
1, 103306, Note_on_c, 0, 36, 85
1, 103336, Control_c, 0, 64, 66
1, 103339, Note_off_c, 0, 57, 67
1, 103342, Note_off_c, 0, 30, 64
1, 103351, Control_c, 0, 64, 127
1, 103354, Note_off_c, 0, 60, 62
1, 103360, Note_off_c, 0, 42, 64
1, 103367, Note_off_c, 0, 63, 65
1, 103369, Note_off_c, 0, 69, 69
1, 103371, Note_off_c, 0, 36, 62
1, 103654, Control_c, 0, 64, 74
1, 103661, Note_on_c, 0, 87, 97
1, 103684, Control_c, 0, 64, 0
1, 103860, Note_off_c, 0, 87, 53
1, 103878, Note_on_c, 0, 81, 81
1, 103899, Note_off_c, 0, 81, 65
1, 103962, Note_on_c, 0, 81, 96
1, 104225, Note_off_c, 0, 81, 61
1, 104291, Note_on_c, 0, 59, 87
1, 104298, Note_on_c, 0, 53, 77
1, 104596, Note_off_c, 0, 59, 60
1, 104603, Note_on_c, 0, 68, 87
1, 104633, Note_off_c, 0, 53, 59
1, 104837, Note_on_c, 0, 62, 78
1, 104847, Note_off_c, 0, 68, 55
1, 104873, Note_off_c, 0, 62, 61
1, 104925, Note_on_c, 0, 62, 82
1, 105211, Note_off_c, 0, 62, 60
1, 105262, Note_on_c, 0, 43, 91
1, 105269, Note_on_c, 0, 39, 76
1, 105596, Note_on_c, 0, 55, 86
1, 105643, Note_off_c, 0, 43, 58
1, 105691, Note_off_c, 0, 39, 63
1, 105837, Note_on_c, 0, 48, 78
1, 105839, Note_off_c, 0, 55, 59
1, 105872, Note_off_c, 0, 48, 62
1, 105928, Note_on_c, 0, 48, 82
1, 106243, Note_on_c, 0, 41, 92
1, 106299, Note_off_c, 0, 48, 62
1, 106463, Note_on_c, 0, 35, 75
1, 106484, Note_off_c, 0, 41, 61
1, 106498, Note_off_c, 0, 35, 64
1, 106545, Note_on_c, 0, 35, 83
1, 106838, Note_off_c, 0, 35, 61
1, 106871, Control_c, 0, 64, 16
1, 106884, Note_on_c, 0, 50, 94
1, 106886, Note_on_c, 0, 53, 89
1, 106886, Note_on_c, 0, 55, 88
1, 106886, Control_c, 0, 64, 59
1, 106901, Control_c, 0, 64, 79
1, 106916, Control_c, 0, 64, 127
1, 107205, Note_off_c, 0, 50, 57
1, 107228, Control_c, 0, 64, 76
1, 107233, Note_off_c, 0, 53, 58
1, 107235, Note_off_c, 0, 55, 57
1, 107238, Note_on_c, 0, 36, 87
1, 107243, Control_c, 0, 64, 54
1, 107257, Control_c, 0, 64, 0
1, 107291, Note_off_c, 0, 36, 60
1, 107415, Note_on_c, 0, 48, 73
1, 107456, Note_off_c, 0, 48, 60
1, 107571, Note_on_c, 0, 48, 62
1, 107609, Note_off_c, 0, 48, 64
1, 107729, Note_on_c, 0, 48, 41
1, 107758, Note_off_c, 0, 48, 58
1, 107851, Note_on_c, 0, 48, 50
1, 107895, Note_off_c, 0, 48, 62
1, 108015, Note_on_c, 0, 48, 52
1, 108078, Note_off_c, 0, 48, 58
1, 108114, Note_on_c, 0, 83, 57
1, 108190, Note_off_c, 0, 83, 59
1, 108196, Note_on_c, 0, 84, 69
1, 108202, Note_on_c, 0, 57, 47
1, 108207, Note_on_c, 0, 60, 42
1, 108207, Control_c, 0, 64, 38
1, 108221, Control_c, 0, 64, 63
1, 108236, Control_c, 0, 64, 73
1, 108251, Control_c, 0, 64, 85
1, 108266, Control_c, 0, 64, 92
1, 108296, Control_c, 0, 64, 87
1, 108311, Control_c, 0, 64, 79
1, 108326, Control_c, 0, 64, 68
1, 108326, Control_c, 0, 67, 16
1, 108340, Control_c, 0, 64, 58
1, 108340, Control_c, 0, 67, 16
1, 108355, Control_c, 0, 64, 49
1, 108355, Control_c, 0, 67, 17
1, 108356, Note_on_c, 0, 48, 52
1, 108370, Control_c, 0, 64, 48
1, 108370, Control_c, 0, 67, 18
1, 108385, Control_c, 0, 67, 19
1, 108399, Note_off_c, 0, 48, 62
1, 108400, Control_c, 0, 67, 19
1, 108424, Note_on_c, 0, 77, 62
1, 108444, Control_c, 0, 64, 47
1, 108444, Control_c, 0, 67, 20
1, 108454, Note_off_c, 0, 77, 60
1, 108473, Control_c, 0, 64, 47
1, 108488, Control_c, 0, 67, 19
1, 108503, Control_c, 0, 67, 19
1, 108505, Note_on_c, 0, 77, 57
1, 108518, Control_c, 0, 67, 18
1, 108522, Note_on_c, 0, 48, 43
1, 108567, Note_off_c, 0, 48, 62
1, 108605, Note_off_c, 0, 84, 44
1, 108636, Control_c, 0, 67, 19
1, 108667, Control_c, 0, 67, 20
1, 108682, Control_c, 0, 67, 21
1, 108690, Note_on_c, 0, 48, 44
1, 108697, Control_c, 0, 67, 22
1, 108711, Control_c, 0, 67, 25
1, 108726, Control_c, 0, 67, 29
1, 108730, Note_off_c, 0, 48, 61
1, 108734, Note_off_c, 0, 77, 60
1, 108741, Control_c, 0, 67, 34
1, 108755, Control_c, 0, 67, 39
1, 108770, Control_c, 0, 67, 45
1, 108793, Control_c, 0, 67, 51
1, 108808, Control_c, 0, 67, 55
1, 108823, Control_c, 0, 67, 56
1, 108852, Note_on_c, 0, 48, 51
1, 108867, Control_c, 0, 67, 55
1, 108881, Note_off_c, 0, 48, 60
1, 108882, Control_c, 0, 67, 54
1, 108896, Control_c, 0, 67, 52
1, 108911, Control_c, 0, 67, 51
1, 108926, Control_c, 0, 67, 49
1, 108941, Control_c, 0, 64, 46
1, 108941, Control_c, 0, 67, 48
1, 108956, Control_c, 0, 67, 47
1, 108970, Control_c, 0, 67, 47
1, 108985, Control_c, 0, 67, 46
1, 108991, Note_on_c, 0, 48, 54
1, 108993, Note_off_c, 0, 60, 39
1, 109011, Note_off_c, 0, 57, 59
1, 109015, Control_c, 0, 67, 46
1, 109029, Control_c, 0, 67, 45
1, 109038, Note_off_c, 0, 48, 56
1, 109059, Note_on_c, 0, 71, 48
1, 109059, Control_c, 0, 67, 45
1, 109074, Control_c, 0, 67, 44
1, 109089, Control_c, 0, 67, 43
1, 109104, Control_c, 0, 67, 42
1, 109119, Control_c, 0, 67, 39
1, 109132, Note_off_c, 0, 71, 59
1, 109134, Control_c, 0, 67, 37
1, 109140, Note_on_c, 0, 72, 71
1, 109148, Control_c, 0, 67, 35
1, 109163, Control_c, 0, 67, 34
1, 109175, Note_on_c, 0, 55, 49
1, 109175, Note_on_c, 0, 59, 54
1, 109178, Control_c, 0, 67, 32
1, 109193, Control_c, 0, 67, 31
1, 109208, Control_c, 0, 67, 30
1, 109223, Control_c, 0, 67, 27
1, 109237, Control_c, 0, 67, 25
1, 109252, Control_c, 0, 67, 23
1, 109267, Control_c, 0, 67, 21
1, 109281, Control_c, 0, 67, 20
1, 109296, Control_c, 0, 64, 46
1, 109296, Control_c, 0, 67, 19
1, 109303, Note_on_c, 0, 48, 57
1, 109311, Control_c, 0, 67, 17
1, 109326, Control_c, 0, 67, 17
1, 109341, Control_c, 0, 67, 16
1, 109342, Note_off_c, 0, 48, 62
1, 109355, Control_c, 0, 64, 45
1, 109355, Control_c, 0, 67, 16
1, 109370, Control_c, 0, 64, 45
1, 109371, Note_on_c, 0, 64, 57
1, 109385, Control_c, 0, 64, 44
1, 109400, Control_c, 0, 64, 43
1, 109405, Note_off_c, 0, 64, 60
1, 109415, Control_c, 0, 64, 43
1, 109453, Note_on_c, 0, 64, 51
1, 109454, Note_off_c, 0, 72, 43
1, 109459, Note_on_c, 0, 48, 50
1, 109490, Control_c, 0, 64, 42
1, 109504, Note_off_c, 0, 48, 60
1, 109504, Control_c, 0, 67, 0
1, 109519, Control_c, 0, 64, 41
1, 109586, Control_c, 0, 64, 41
1, 109640, Note_on_c, 0, 48, 47
1, 109649, Note_off_c, 0, 64, 59
1, 109675, Note_off_c, 0, 48, 62
1, 109704, Control_c, 0, 64, 40
1, 109763, Control_c, 0, 64, 40
1, 109795, Note_on_c, 0, 48, 50
1, 109834, Note_off_c, 0, 48, 65
1, 109851, Note_off_c, 0, 59, 41
1, 109872, Note_off_c, 0, 55, 55
1, 109932, Note_on_c, 0, 48, 55
1, 109971, Note_off_c, 0, 48, 63
1, 109985, Control_c, 0, 64, 39
1, 110084, Note_on_c, 0, 72, 76
1, 110111, Note_on_c, 0, 57, 60
1, 110112, Note_on_c, 0, 48, 52
1, 110116, Note_on_c, 0, 53, 48
1, 110141, Note_off_c, 0, 57, 66
1, 110143, Note_off_c, 0, 48, 63
1, 110146, Note_off_c, 0, 53, 57
1, 110147, Note_off_c, 0, 72, 62
1, 110148, Control_c, 0, 64, 39
1, 110152, Note_on_c, 0, 62, 59
1, 110173, Note_off_c, 0, 62, 61
1, 110245, Note_on_c, 0, 48, 57
1, 110293, Note_off_c, 0, 48, 62
1, 110320, Control_c, 0, 64, 38
1, 110334, Control_c, 0, 64, 38
1, 110349, Control_c, 0, 64, 37
1, 110400, Note_on_c, 0, 72, 72
1, 110408, Control_c, 0, 64, 37
1, 110424, Note_on_c, 0, 48, 56
1, 110430, Note_on_c, 0, 56, 60
1, 110458, Note_off_c, 0, 72, 60
1, 110460, Note_off_c, 0, 48, 63
1, 110461, Note_off_c, 0, 56, 64
1, 110469, Note_on_c, 0, 62, 63
1, 110497, Control_c, 0, 64, 36
1, 110500, Note_off_c, 0, 62, 62
1, 110560, Note_on_c, 0, 48, 56
1, 110597, Note_off_c, 0, 48, 62
1, 110630, Control_c, 0, 64, 36
1, 110645, Control_c, 0, 64, 35
1, 110660, Control_c, 0, 64, 34
1, 110675, Control_c, 0, 64, 33
1, 110711, Note_on_c, 0, 71, 65
1, 110719, Note_on_c, 0, 53, 64
1, 110725, Note_on_c, 0, 55, 56
1, 110731, Note_on_c, 0, 48, 40
1, 110749, Control_c, 0, 64, 33
1, 110753, Note_off_c, 0, 53, 61
1, 110755, Note_off_c, 0, 55, 62
1, 110755, Note_off_c, 0, 71, 60
1, 110760, Note_off_c, 0, 48, 56
1, 110768, Note_on_c, 0, 62, 60
1, 110794, Note_off_c, 0, 62, 61
1, 110853, Note_on_c, 0, 48, 56
1, 110890, Note_off_c, 0, 48, 65
1, 110897, Control_c, 0, 64, 32
1, 110926, Control_c, 0, 64, 32
1, 110941, Control_c, 0, 64, 31
1, 110956, Control_c, 0, 64, 31
1, 110971, Control_c, 0, 64, 30
1, 111012, Note_on_c, 0, 72, 66
1, 111030, Note_on_c, 0, 52, 53
1, 111032, Note_on_c, 0, 48, 40
1, 111044, Note_on_c, 0, 55, 45
1, 111064, Note_off_c, 0, 48, 59
1, 111076, Note_off_c, 0, 52, 61
1, 111078, Note_off_c, 0, 55, 55
1, 111081, Note_on_c, 0, 60, 66
1, 111089, Note_off_c, 0, 72, 60
1, 111110, Note_off_c, 0, 60, 61
1, 111180, Note_on_c, 0, 48, 47
1, 111226, Note_off_c, 0, 48, 63
1, 111276, Control_c, 0, 64, 30
1, 111337, Note_on_c, 0, 48, 55
1, 111372, Note_off_c, 0, 48, 64
1, 111394, Control_c, 0, 64, 29
1, 111488, Note_on_c, 0, 48, 48
1, 111530, Note_off_c, 0, 48, 64
1, 111572, Control_c, 0, 64, 29
1, 111643, Note_on_c, 0, 48, 55
1, 111682, Note_off_c, 0, 48, 62
1, 111804, Note_on_c, 0, 48, 47
1, 111846, Control_c, 0, 64, 28
1, 111876, Control_c, 0, 64, 28
1, 111882, Note_off_c, 0, 48, 45
1, 111891, Control_c, 0, 64, 27
1, 111967, Note_on_c, 0, 84, 75
1, 111978, Note_on_c, 0, 57, 56
1, 111986, Note_on_c, 0, 60, 59
1, 112007, Note_off_c, 0, 84, 51
1, 112025, Control_c, 0, 64, 27
1, 112026, Note_on_c, 0, 86, 66
1, 112073, Note_on_c, 0, 84, 68
1, 112082, Note_off_c, 0, 86, 60
1, 112121, Note_off_c, 0, 84, 59
1, 112124, Note_on_c, 0, 48, 55
1, 112135, Note_on_c, 0, 83, 63
1, 112162, Note_off_c, 0, 48, 65
1, 112189, Note_on_c, 0, 84, 65
1, 112192, Note_off_c, 0, 83, 56
1, 112261, Note_off_c, 0, 84, 60
1, 112263, Note_on_c, 0, 77, 69
1, 112290, Note_on_c, 0, 48, 45
1, 112304, Note_off_c, 0, 77, 61
1, 112326, Note_off_c, 0, 48, 62
1, 112410, Control_c, 0, 64, 26
1, 112447, Note_on_c, 0, 48, 46
1, 112480, Note_off_c, 0, 48, 62
1, 112606, Note_on_c, 0, 48, 51
1, 112641, Note_off_c, 0, 48, 64
1, 112704, Note_off_c, 0, 60, 40
1, 112748, Note_on_c, 0, 48, 51
1, 112755, Note_off_c, 0, 57, 48
1, 112773, Control_c, 0, 64, 26
1, 112785, Note_off_c, 0, 48, 62
1, 112803, Control_c, 0, 64, 25
1, 112833, Control_c, 0, 64, 25
1, 112862, Control_c, 0, 64, 24
1, 112877, Control_c, 0, 64, 24
1, 112892, Control_c, 0, 64, 23
1, 112895, Note_on_c, 0, 72, 77
1, 112904, Note_on_c, 0, 55, 57
1, 112907, Note_on_c, 0, 59, 59
1, 112907, Control_c, 0, 64, 23
1, 112944, Note_off_c, 0, 72, 53
1, 112963, Note_on_c, 0, 74, 72
1, 112996, Control_c, 0, 64, 22
1, 113021, Note_on_c, 0, 72, 60
1, 113025, Note_off_c, 0, 74, 61
1, 113039, Note_on_c, 0, 48, 53
1, 113040, Control_c, 0, 64, 22
1, 113054, Control_c, 0, 64, 21
1, 113061, Note_off_c, 0, 72, 60
1, 113069, Control_c, 0, 64, 20
1, 113077, Note_off_c, 0, 48, 65
1, 113082, Note_on_c, 0, 71, 56
1, 113084, Control_c, 0, 64, 19
1, 113099, Control_c, 0, 64, 19
1, 113114, Control_c, 0, 64, 18
1, 113126, Note_off_c, 0, 71, 58
1, 113128, Control_c, 0, 64, 18
1, 113138, Note_on_c, 0, 72, 60
1, 113158, Control_c, 0, 64, 17
1, 113188, Control_c, 0, 64, 16
1, 113204, Note_on_c, 0, 48, 48
1, 113205, Note_off_c, 0, 72, 59
1, 113220, Note_on_c, 0, 64, 59
1, 113247, Note_off_c, 0, 48, 64
1, 113248, Note_off_c, 0, 64, 65
1, 113284, Control_c, 0, 64, 0
1, 113378, Note_on_c, 0, 48, 51
1, 113414, Note_off_c, 0, 48, 64
1, 113537, Note_on_c, 0, 48, 54
1, 113560, Note_off_c, 0, 59, 52
1, 113572, Note_off_c, 0, 48, 66
1, 113585, Note_off_c, 0, 55, 54
1, 113695, Note_on_c, 0, 48, 40
1, 113725, Note_off_c, 0, 48, 54
1, 113823, Note_on_c, 0, 72, 74
1, 113846, Note_on_c, 0, 53, 52
1, 113849, Note_on_c, 0, 48, 42
1, 113849, Note_on_c, 0, 57, 56
1, 113876, Note_off_c, 0, 53, 55
1, 113876, Note_off_c, 0, 72, 62
1, 113877, Note_off_c, 0, 48, 58
1, 113881, Note_off_c, 0, 57, 64
1, 113885, Note_on_c, 0, 62, 65
1, 113909, Note_off_c, 0, 62, 60
1, 113978, Note_on_c, 0, 48, 51
1, 114015, Note_off_c, 0, 48, 63
1, 114068, Poly_aftertouch_c, 0, 62, 127
1, 114105, Poly_aftertouch_c, 0, 62, 0
1, 114135, Note_on_c, 0, 72, 76
1, 114149, Note_on_c, 0, 53, 58
1, 114149, Note_on_c, 0, 56, 66
1, 114150, Note_on_c, 0, 48, 50
1, 114178, Note_off_c, 0, 56, 65
1, 114186, Note_off_c, 0, 48, 65
1, 114190, Note_off_c, 0, 53, 59
1, 114195, Note_off_c, 0, 72, 60
1, 114210, Note_on_c, 0, 62, 60
1, 114244, Note_off_c, 0, 62, 62
1, 114285, Note_on_c, 0, 48, 53
1, 114327, Note_off_c, 0, 48, 62
1, 114439, Note_on_c, 0, 53, 65
1, 114443, Note_on_c, 0, 71, 71
1, 114448, Note_on_c, 0, 55, 57
1, 114477, Note_off_c, 0, 53, 58
1, 114481, Note_off_c, 0, 55, 63
1, 114487, Note_off_c, 0, 71, 62
1, 114506, Note_on_c, 0, 62, 56
1, 114530, Note_off_c, 0, 62, 58
1, 114595, Note_on_c, 0, 48, 33
1, 114629, Note_off_c, 0, 48, 50
1, 114734, Note_on_c, 0, 72, 72
1, 114746, Note_on_c, 0, 48, 60
1, 114748, Note_on_c, 0, 52, 66
1, 114749, Note_on_c, 0, 55, 63
1, 114763, Note_on_c, 0, 60, 72
1, 114776, Note_off_c, 0, 55, 63
1, 114781, Note_off_c, 0, 72, 64
1, 114785, Note_off_c, 0, 48, 64
1, 114785, Note_off_c, 0, 52, 63
1, 114794, Note_off_c, 0, 60, 66
1, 114904, Note_on_c, 0, 52, 66
1, 114905, Note_on_c, 0, 55, 61
1, 114940, Note_off_c, 0, 52, 60
1, 114955, Note_off_c, 0, 55, 56
1, 115059, Note_on_c, 0, 52, 57
1, 115071, Note_on_c, 0, 55, 54
1, 115089, Note_off_c, 0, 52, 60
1, 115099, Note_off_c, 0, 55, 59
1, 115196, Note_on_c, 0, 55, 51
1, 115200, Note_on_c, 0, 52, 49
1, 115238, Note_off_c, 0, 52, 62
1, 115238, Note_off_c, 0, 55, 59
1, 115351, Note_on_c, 0, 52, 50
1, 115360, Note_on_c, 0, 55, 49
1, 115382, Note_off_c, 0, 52, 58
1, 115390, Note_off_c, 0, 55, 60
1, 115489, Note_on_c, 0, 55, 50
1, 115489, Note_on_c, 0, 52, 50
1, 115534, Note_off_c, 0, 52, 61
1, 115540, Note_off_c, 0, 55, 59
1, 115653, Note_on_c, 0, 47, 58
1, 115662, Note_on_c, 0, 55, 59
1, 115670, Note_on_c, 0, 53, 63
1, 115686, Note_off_c, 0, 47, 62
1, 115700, Note_on_c, 0, 37, 55
1, 115700, Note_off_c, 0, 53, 65
1, 115706, Note_off_c, 0, 55, 61
1, 115733, Note_off_c, 0, 37, 62
1, 115808, Note_on_c, 0, 53, 51
1, 115845, Note_off_c, 0, 53, 56
1, 115887, Control_c, 0, 67, 18
1, 115902, Control_c, 0, 67, 22
1, 115917, Control_c, 0, 67, 26
1, 115932, Control_c, 0, 67, 29
1, 115946, Control_c, 0, 67, 31
1, 115963, Note_on_c, 0, 47, 61
1, 115966, Note_on_c, 0, 53, 57
1, 115985, Note_on_c, 0, 55, 60
1, 115996, Note_on_c, 0, 37, 54
1, 115996, Note_off_c, 0, 47, 65
1, 116005, Control_c, 0, 67, 30
1, 116011, Note_off_c, 0, 53, 58
1, 116015, Note_off_c, 0, 55, 64
1, 116028, Note_off_c, 0, 37, 62
1, 116035, Control_c, 0, 67, 29
1, 116050, Control_c, 0, 67, 29
1, 116065, Control_c, 0, 67, 28
1, 116079, Control_c, 0, 67, 28
1, 116094, Control_c, 0, 67, 27
1, 116109, Control_c, 0, 67, 27
1, 116124, Note_on_c, 0, 53, 62
1, 116124, Control_c, 0, 67, 26
1, 116131, Note_on_c, 0, 55, 50
1, 116139, Control_c, 0, 67, 26
1, 116154, Control_c, 0, 67, 25
1, 116159, Note_off_c, 0, 53, 61
1, 116166, Note_off_c, 0, 55, 62
1, 116168, Control_c, 0, 67, 24
1, 116198, Control_c, 0, 67, 23
1, 116228, Control_c, 0, 67, 23
1, 116275, Note_on_c, 0, 55, 60
1, 116279, Note_on_c, 0, 53, 64
1, 116282, Note_on_c, 0, 47, 62
1, 116287, Note_on_c, 0, 37, 66
1, 116315, Note_off_c, 0, 47, 63
1, 116317, Note_off_c, 0, 53, 62
1, 116318, Note_off_c, 0, 37, 63
1, 116321, Note_off_c, 0, 55, 58
1, 116339, Control_c, 0, 67, 23
1, 116368, Control_c, 0, 67, 24
1, 116383, Control_c, 0, 67, 24
1, 116398, Control_c, 0, 67, 25
1, 116413, Control_c, 0, 67, 25
1, 116437, Note_on_c, 0, 53, 56
1, 116444, Note_on_c, 0, 55, 48
1, 116474, Note_off_c, 0, 53, 62
1, 116474, Note_off_c, 0, 55, 54
1, 116576, Control_c, 0, 67, 25
1, 116590, Note_on_c, 0, 36, 63
1, 116590, Note_on_c, 0, 48, 67
1, 116593, Note_on_c, 0, 55, 57
1, 116599, Note_on_c, 0, 52, 63
1, 116621, Note_off_c, 0, 48, 64
1, 116622, Note_off_c, 0, 36, 61
1, 116631, Note_off_c, 0, 52, 62
1, 116649, Note_off_c, 0, 55, 57
1, 116681, Control_c, 0, 67, 25
1, 116695, Control_c, 0, 67, 26
1, 116746, Note_on_c, 0, 52, 51
1, 116761, Note_on_c, 0, 55, 53
1, 116787, Note_off_c, 0, 52, 61
1, 116797, Note_off_c, 0, 55, 61
1, 116899, Note_on_c, 0, 67, 69
1, 116917, Note_on_c, 0, 55, 59
1, 116920, Note_on_c, 0, 52, 52
1, 116957, Note_off_c, 0, 52, 61
1, 116961, Note_off_c, 0, 55, 58
1, 116991, Control_c, 0, 67, 25
1, 117028, Control_c, 0, 67, 25
1, 117069, Note_on_c, 0, 52, 53
1, 117081, Note_on_c, 0, 55, 58
1, 117110, Note_off_c, 0, 52, 59
1, 117117, Note_off_c, 0, 55, 59
1, 117217, Note_on_c, 0, 72, 73
1, 117227, Note_on_c, 0, 55, 63
1, 117229, Note_on_c, 0, 52, 58
1, 117238, Note_off_c, 0, 72, 68
1, 117246, Note_off_c, 0, 67, 58
1, 117264, Note_off_c, 0, 52, 61
1, 117274, Note_off_c, 0, 55, 55
1, 117281, Control_c, 0, 67, 24
1, 117371, Note_on_c, 0, 52, 53
1, 117379, Note_on_c, 0, 55, 58
1, 117409, Note_off_c, 0, 52, 62
1, 117417, Note_off_c, 0, 55, 57
1, 117429, Control_c, 0, 67, 25
1, 117459, Control_c, 0, 67, 25
1, 117520, Note_on_c, 0, 47, 64
1, 117539, Note_on_c, 0, 55, 58
1, 117548, Note_on_c, 0, 53, 61
1, 117555, Note_off_c, 0, 47, 64
1, 117565, Note_on_c, 0, 37, 57
1, 117580, Note_off_c, 0, 53, 64
1, 117583, Note_off_c, 0, 55, 59
1, 117595, Note_off_c, 0, 37, 62
1, 117683, Note_on_c, 0, 53, 55
1, 117689, Note_on_c, 0, 55, 57
1, 117719, Note_off_c, 0, 53, 63
1, 117723, Note_off_c, 0, 55, 61
1, 117808, Control_c, 0, 67, 25
1, 117823, Control_c, 0, 67, 24
1, 117832, Note_on_c, 0, 47, 63
1, 117838, Control_c, 0, 67, 24
1, 117849, Note_on_c, 0, 53, 64
1, 117849, Note_on_c, 0, 55, 60
1, 117855, Note_on_c, 0, 37, 66
1, 117863, Note_off_c, 0, 47, 63
1, 117884, Note_off_c, 0, 53, 61
1, 117885, Note_off_c, 0, 37, 63
1, 117891, Note_off_c, 0, 55, 59
1, 117897, Control_c, 0, 67, 24
1, 117970, Control_c, 0, 67, 25
1, 117999, Note_on_c, 0, 53, 54
1, 118005, Note_on_c, 0, 55, 54
1, 118037, Note_off_c, 0, 53, 64
1, 118042, Note_off_c, 0, 55, 59
1, 118132, Note_on_c, 0, 47, 59
1, 118142, Note_on_c, 0, 37, 67
1, 118158, Note_on_c, 0, 55, 60
1, 118160, Note_on_c, 0, 53, 54
1, 118162, Note_off_c, 0, 47, 64
1, 118176, Note_off_c, 0, 37, 65
1, 118193, Control_c, 0, 67, 25
1, 118195, Note_off_c, 0, 53, 63
1, 118199, Note_off_c, 0, 55, 57
1, 118207, Control_c, 0, 67, 26
1, 118222, Control_c, 0, 67, 26
1, 118238, Control_c, 0, 67, 27
1, 118253, Control_c, 0, 67, 27
1, 118297, Control_c, 0, 67, 28
1, 118308, Note_on_c, 0, 53, 51
1, 118315, Note_on_c, 0, 55, 56
1, 118348, Note_off_c, 0, 53, 63
1, 118355, Note_off_c, 0, 55, 56
1, 118401, Control_c, 0, 67, 27
1, 118431, Control_c, 0, 67, 27
1, 118446, Control_c, 0, 67, 26
1, 118461, Control_c, 0, 67, 26
1, 118469, Note_on_c, 0, 48, 42
1, 118476, Note_on_c, 0, 36, 64
1, 118476, Note_on_c, 0, 55, 57
1, 118483, Note_on_c, 0, 52, 59
1, 118499, Note_off_c, 0, 48, 53
1, 118508, Note_off_c, 0, 36, 62
1, 118525, Note_off_c, 0, 52, 61
1, 118530, Note_off_c, 0, 55, 58
1, 118556, Control_c, 0, 67, 26
1, 118633, Note_on_c, 0, 52, 53
1, 118643, Note_on_c, 0, 55, 58
1, 118678, Note_off_c, 0, 52, 60
1, 118682, Note_off_c, 0, 55, 55
1, 118803, Note_on_c, 0, 67, 71
1, 118815, Note_on_c, 0, 52, 55
1, 118815, Note_on_c, 0, 55, 52
1, 118859, Note_off_c, 0, 52, 60
1, 118872, Note_off_c, 0, 55, 56
1, 118971, Control_c, 0, 67, 26
1, 118980, Note_on_c, 0, 52, 49
1, 118980, Note_on_c, 0, 55, 50
1, 118986, Control_c, 0, 67, 25
1, 119000, Control_c, 0, 67, 25
1, 119006, Note_off_c, 0, 52, 57
1, 119012, Note_off_c, 0, 55, 60
1, 119030, Control_c, 0, 67, 24
1, 119046, Control_c, 0, 67, 23
1, 119061, Control_c, 0, 67, 23
1, 119076, Control_c, 0, 67, 22
1, 119105, Control_c, 0, 67, 22
1, 119114, Note_on_c, 0, 76, 74
1, 119115, Note_on_c, 0, 52, 57
1, 119116, Note_on_c, 0, 55, 59
1, 119120, Control_c, 0, 67, 21
1, 119146, Note_off_c, 0, 67, 40
1, 119146, Note_off_c, 0, 76, 62
1, 119158, Note_off_c, 0, 52, 61
1, 119166, Note_off_c, 0, 55, 56
1, 119179, Control_c, 0, 67, 21
1, 119209, Control_c, 0, 67, 20
1, 119239, Control_c, 0, 67, 19
1, 119285, Note_on_c, 0, 55, 53
1, 119291, Note_on_c, 0, 52, 43
1, 119319, Note_off_c, 0, 52, 53
1, 119325, Note_off_c, 0, 55, 59
1, 119409, Control_c, 0, 67, 20
1, 119430, Note_on_c, 0, 47, 68
1, 119436, Note_on_c, 0, 55, 62
1, 119438, Control_c, 0, 67, 20
1, 119448, Note_on_c, 0, 53, 60
1, 119453, Control_c, 0, 67, 21
1, 119468, Control_c, 0, 67, 22
1, 119476, Note_on_c, 0, 37, 64
1, 119479, Note_off_c, 0, 47, 59
1, 119483, Control_c, 0, 67, 22
1, 119483, Note_off_c, 0, 53, 62
1, 119492, Note_off_c, 0, 55, 54
1, 119507, Note_off_c, 0, 37, 63
1, 119571, Control_c, 0, 67, 22
1, 119582, Note_on_c, 0, 53, 60
1, 119595, Note_on_c, 0, 55, 46
1, 119619, Note_off_c, 0, 53, 61
1, 119628, Note_off_c, 0, 55, 61
1, 119645, Control_c, 0, 67, 21
1, 119675, Control_c, 0, 67, 21
1, 119689, Control_c, 0, 67, 20
1, 119735, Note_on_c, 0, 55, 59
1, 119736, Note_on_c, 0, 47, 70
1, 119740, Note_on_c, 0, 53, 62
1, 119757, Note_on_c, 0, 37, 66
1, 119763, Control_c, 0, 67, 20
1, 119768, Note_off_c, 0, 47, 64
1, 119778, Control_c, 0, 67, 19
1, 119779, Note_off_c, 0, 53, 64
1, 119787, Note_off_c, 0, 37, 63
1, 119793, Note_off_c, 0, 55, 58
1, 119793, Control_c, 0, 67, 19
1, 119823, Control_c, 0, 67, 18
1, 119838, Control_c, 0, 67, 17
1, 119868, Control_c, 0, 67, 17
1, 119901, Note_on_c, 0, 53, 56
1, 119908, Note_on_c, 0, 55, 56
1, 119939, Note_off_c, 0, 53, 61
1, 119945, Note_off_c, 0, 55, 59
1, 119957, Control_c, 0, 67, 16
1, 119987, Control_c, 0, 67, 16
1, 120063, Note_on_c, 0, 47, 64
1, 120067, Note_on_c, 0, 37, 71
1, 120073, Note_on_c, 0, 55, 62
1, 120079, Note_on_c, 0, 53, 61
1, 120091, Note_off_c, 0, 47, 64
1, 120100, Note_off_c, 0, 37, 66
1, 120118, Note_off_c, 0, 53, 60
1, 120130, Note_off_c, 0, 55, 57
1, 120231, Control_c, 0, 67, 0
1, 120232, Note_on_c, 0, 55, 56
1, 120237, Note_on_c, 0, 53, 53
1, 120267, Note_off_c, 0, 53, 56
1, 120267, Note_off_c, 0, 55, 62
1, 120431, Note_on_c, 0, 48, 91
1, 120435, Note_on_c, 0, 36, 83
1, 120453, Control_c, 0, 64, 52
1, 120468, Control_c, 0, 64, 75
1, 120483, Control_c, 0, 64, 91
1, 120485, Note_off_c, 0, 48, 64
1, 120494, Note_off_c, 0, 36, 61
1, 120498, Control_c, 0, 64, 127
1, 120515, Note_on_c, 0, 52, 74
1, 120589, Note_off_c, 0, 52, 55
1, 120589, Note_on_c, 0, 60, 74
1, 120664, Note_on_c, 0, 55, 76
1, 120665, Note_off_c, 0, 60, 54
1, 120721, Note_off_c, 0, 55, 61
1, 120736, Note_on_c, 0, 64, 76
1, 120750, Control_c, 0, 64, 95
1, 120773, Control_c, 0, 64, 75
1, 120786, Note_off_c, 0, 64, 60
1, 120788, Control_c, 0, 64, 62
1, 120802, Control_c, 0, 64, 47
1, 120813, Note_on_c, 0, 60, 83
1, 120817, Control_c, 0, 64, 23
1, 120832, Control_c, 0, 64, 0
1, 120890, Note_on_c, 0, 67, 85
1, 120905, Note_off_c, 0, 60, 54
1, 120973, Note_off_c, 0, 67, 61
1, 120974, Note_on_c, 0, 64, 81
1, 121036, Note_off_c, 0, 64, 60
1, 121042, Note_on_c, 0, 72, 83
1, 121097, Note_off_c, 0, 72, 60
1, 121123, Note_on_c, 0, 67, 83
1, 121201, Note_on_c, 0, 76, 86
1, 121230, Note_off_c, 0, 67, 56
1, 121281, Note_on_c, 0, 72, 78
1, 121288, Note_off_c, 0, 76, 63
1, 121369, Note_on_c, 0, 79, 88
1, 121376, Note_off_c, 0, 72, 61
1, 121522, Note_on_c, 0, 36, 60
1, 121566, Note_off_c, 0, 36, 62
1, 121685, Note_on_c, 0, 40, 68
1, 121713, Note_off_c, 0, 40, 63
1, 121811, Note_off_c, 0, 79, 39
1, 121819, Note_on_c, 0, 43, 83
1, 121862, Note_off_c, 0, 43, 59
1, 121969, Note_on_c, 0, 48, 84
1, 121969, Note_on_c, 0, 70, 76
1, 122000, Note_off_c, 0, 48, 66
1, 122014, Note_off_c, 0, 70, 57
1, 122025, Note_on_c, 0, 72, 66
1, 122083, Note_on_c, 0, 70, 73
1, 122092, Note_off_c, 0, 72, 62
1, 122114, Note_on_c, 0, 52, 83
1, 122131, Note_on_c, 0, 69, 70
1, 122145, Note_off_c, 0, 70, 59
1, 122148, Note_off_c, 0, 52, 62
1, 122181, Note_off_c, 0, 69, 55
1, 122198, Note_on_c, 0, 70, 65
1, 122269, Note_on_c, 0, 69, 80
1, 122270, Note_off_c, 0, 70, 62
1, 122276, Note_on_c, 0, 53, 95
1, 122296, Note_off_c, 0, 69, 63
1, 122392, Note_off_c, 0, 53, 62
1, 122440, Note_on_c, 0, 60, 58
1, 122443, Note_on_c, 0, 57, 60
1, 122476, Note_off_c, 0, 57, 65
1, 122485, Note_off_c, 0, 60, 58
1, 122593, Note_on_c, 0, 57, 56
1, 122595, Note_on_c, 0, 60, 64
1, 122632, Note_off_c, 0, 57, 61
1, 122644, Note_off_c, 0, 60, 57
1, 122747, Note_on_c, 0, 57, 53
1, 122760, Note_on_c, 0, 60, 57
1, 122782, Note_off_c, 0, 57, 64
1, 122798, Note_off_c, 0, 60, 59
1, 122899, Note_on_c, 0, 57, 53
1, 122905, Note_on_c, 0, 60, 56
1, 122937, Note_off_c, 0, 57, 61
1, 122947, Note_off_c, 0, 60, 57
1, 123063, Note_on_c, 0, 57, 47
1, 123066, Note_on_c, 0, 60, 51
1, 123102, Note_off_c, 0, 57, 64
1, 123112, Note_off_c, 0, 60, 58
1, 123209, Note_on_c, 0, 40, 62
1, 123221, Note_on_c, 0, 58, 56
1, 123224, Note_on_c, 0, 60, 57
1, 123248, Note_off_c, 0, 40, 63
1, 123259, Note_on_c, 0, 30, 55
1, 123259, Note_off_c, 0, 60, 59
1, 123260, Note_off_c, 0, 58, 60
1, 123290, Note_off_c, 0, 30, 64
1, 123376, Note_on_c, 0, 58, 55
1, 123376, Note_on_c, 0, 60, 55
1, 123415, Note_off_c, 0, 58, 60
1, 123421, Note_off_c, 0, 60, 58
1, 123525, Note_on_c, 0, 40, 60
1, 123534, Note_on_c, 0, 60, 63
1, 123542, Note_on_c, 0, 58, 59
1, 123553, Note_on_c, 0, 30, 60
1, 123558, Note_off_c, 0, 40, 61
1, 123579, Note_off_c, 0, 58, 61
1, 123582, Note_off_c, 0, 30, 65
1, 123590, Note_off_c, 0, 60, 54
1, 123703, Note_on_c, 0, 60, 57
1, 123707, Note_on_c, 0, 58, 49
1, 123747, Note_off_c, 0, 58, 63
1, 123747, Note_off_c, 0, 60, 57
1, 123841, Note_on_c, 0, 40, 54
1, 123857, Note_on_c, 0, 30, 66
1, 123869, Note_on_c, 0, 60, 62
1, 123870, Note_off_c, 0, 40, 63
1, 123881, Note_on_c, 0, 58, 52
1, 123885, Note_off_c, 0, 30, 65
1, 123916, Note_off_c, 0, 58, 61
1, 123917, Note_off_c, 0, 60, 57
1, 124018, Note_on_c, 0, 58, 57
1, 124032, Note_on_c, 0, 60, 53
1, 124059, Note_off_c, 0, 58, 61
1, 124071, Note_off_c, 0, 60, 60
1, 124167, Note_on_c, 0, 41, 59
1, 124169, Note_on_c, 0, 29, 59
1, 124183, Note_on_c, 0, 57, 59
1, 124190, Note_on_c, 0, 60, 60
1, 124200, Note_off_c, 0, 41, 63
1, 124202, Note_off_c, 0, 29, 63
1, 124220, Note_off_c, 0, 57, 61
1, 124229, Note_off_c, 0, 60, 57
1, 124343, Note_on_c, 0, 60, 54
1, 124347, Note_on_c, 0, 57, 45
1, 124387, Note_off_c, 0, 57, 61
1, 124389, Note_off_c, 0, 60, 57
1, 124494, Note_on_c, 0, 72, 83
1, 124514, Note_on_c, 0, 57, 55
1, 124517, Note_on_c, 0, 60, 61
1, 124558, Note_off_c, 0, 57, 61
1, 124567, Note_off_c, 0, 60, 55
1, 124685, Note_on_c, 0, 60, 58
1, 124688, Note_on_c, 0, 57, 45
1, 124717, Note_off_c, 0, 57, 58
1, 124724, Note_off_c, 0, 60, 57
1, 124816, Note_on_c, 0, 77, 64
1, 124834, Note_on_c, 0, 57, 52
1, 124840, Note_on_c, 0, 60, 62
1, 124855, Note_off_c, 0, 77, 59
1, 124857, Note_off_c, 0, 72, 39
1, 124879, Note_off_c, 0, 57, 63
1, 124891, Note_off_c, 0, 60, 55
1, 124994, Note_on_c, 0, 60, 56
1, 125003, Note_on_c, 0, 57, 40
1, 125034, Note_off_c, 0, 57, 57
1, 125040, Note_off_c, 0, 60, 57
1, 125129, Note_on_c, 0, 40, 63
1, 125154, Note_on_c, 0, 60, 61
1, 125162, Note_on_c, 0, 58, 59
1, 125172, Note_off_c, 0, 40, 61
1, 125178, Note_on_c, 0, 30, 58
1, 125198, Note_off_c, 0, 58, 60
1, 125204, Note_off_c, 0, 60, 57
1, 125213, Note_off_c, 0, 30, 64
1, 125313, Note_on_c, 0, 60, 56
1, 125314, Note_on_c, 0, 58, 52
1, 125353, Note_off_c, 0, 58, 61
1, 125357, Note_off_c, 0, 60, 58
1, 125454, Note_on_c, 0, 40, 62
1, 125469, Note_on_c, 0, 30, 68
1, 125469, Note_on_c, 0, 60, 66
1, 125474, Note_on_c, 0, 58, 62
1, 125482, Note_off_c, 0, 40, 63
1, 125497, Note_off_c, 0, 30, 65
1, 125510, Note_off_c, 0, 58, 63
1, 125526, Note_off_c, 0, 60, 52
1, 125632, Note_on_c, 0, 58, 53
1, 125635, Note_on_c, 0, 60, 54
1, 125672, Note_off_c, 0, 58, 62
1, 125686, Note_off_c, 0, 60, 56
1, 125761, Note_on_c, 0, 40, 55
1, 125762, Note_on_c, 0, 30, 73
1, 125788, Note_on_c, 0, 60, 67
1, 125790, Note_on_c, 0, 58, 60
1, 125793, Note_off_c, 0, 40, 61
1, 125795, Note_off_c, 0, 30, 67
1, 125824, Note_off_c, 0, 58, 60
1, 125841, Note_off_c, 0, 60, 53
1, 125944, Note_on_c, 0, 60, 57
1, 125946, Note_on_c, 0, 58, 51
1, 125986, Note_off_c, 0, 58, 62
1, 125995, Note_off_c, 0, 60, 55
1, 126098, Note_on_c, 0, 41, 65
1, 126107, Note_on_c, 0, 29, 70
1, 126111, Note_on_c, 0, 57, 62
1, 126113, Note_on_c, 0, 60, 67
1, 126129, Note_off_c, 0, 41, 63
1, 126132, Note_off_c, 0, 29, 65
1, 126148, Note_off_c, 0, 57, 60
1, 126159, Note_off_c, 0, 60, 57
1, 126272, Note_on_c, 0, 57, 48
1, 126274, Note_on_c, 0, 60, 58
1, 126312, Note_off_c, 0, 57, 64
1, 126318, Note_off_c, 0, 60, 58
1, 126432, Note_on_c, 0, 60, 65
1, 126433, Note_on_c, 0, 72, 80
1, 126435, Note_on_c, 0, 57, 62
1, 126476, Note_off_c, 0, 57, 62
1, 126498, Note_off_c, 0, 60, 55
1, 126599, Note_on_c, 0, 60, 57
1, 126600, Note_on_c, 0, 57, 47
1, 126634, Note_off_c, 0, 57, 61
1, 126646, Note_off_c, 0, 60, 58
1, 126757, Note_on_c, 0, 57, 59
1, 126759, Note_on_c, 0, 81, 70
1, 126764, Note_on_c, 0, 60, 64
1, 126795, Note_off_c, 0, 81, 65
1, 126800, Note_off_c, 0, 57, 60
1, 126808, Note_off_c, 0, 60, 57
1, 126810, Note_off_c, 0, 72, 42
1, 126924, Note_on_c, 0, 57, 49
1, 126938, Note_on_c, 0, 60, 29
1, 126973, Note_off_c, 0, 57, 55
1, 126977, Note_off_c, 0, 60, 50
1, 127082, Note_on_c, 0, 60, 61
1, 127088, Note_on_c, 0, 40, 63
1, 127094, Note_on_c, 0, 58, 65
1, 127116, Note_off_c, 0, 40, 62
1, 127128, Note_on_c, 0, 30, 44
1, 127129, Note_off_c, 0, 58, 59
1, 127148, Note_off_c, 0, 60, 57
1, 127163, Note_off_c, 0, 30, 44
1, 127239, Note_on_c, 0, 58, 56
1, 127240, Note_on_c, 0, 60, 53
1, 127277, Note_off_c, 0, 58, 61
1, 127286, Note_off_c, 0, 60, 59
1, 127369, Note_on_c, 0, 40, 68
1, 127395, Note_on_c, 0, 60, 68
1, 127400, Note_on_c, 0, 30, 67
1, 127401, Note_on_c, 0, 58, 60
1, 127401, Note_off_c, 0, 40, 65
1, 127430, Note_off_c, 0, 30, 65
1, 127437, Note_off_c, 0, 58, 62
1, 127458, Note_off_c, 0, 60, 57
1, 127564, Note_on_c, 0, 60, 59
1, 127567, Note_on_c, 0, 58, 56
1, 127609, Note_off_c, 0, 58, 60
1, 127630, Note_off_c, 0, 60, 56
1, 127708, Note_on_c, 0, 40, 73
1, 127708, Note_on_c, 0, 30, 76
1, 127728, Note_on_c, 0, 60, 69
1, 127732, Note_off_c, 0, 40, 65
1, 127733, Note_on_c, 0, 58, 62
1, 127741, Note_off_c, 0, 30, 67
1, 127773, Note_off_c, 0, 58, 57
1, 127795, Note_off_c, 0, 60, 58
1, 127884, Note_on_c, 0, 58, 67
1, 127891, Note_on_c, 0, 60, 59
1, 127919, Note_off_c, 0, 58, 62
1, 127921, Note_off_c, 0, 60, 62
1, 128049, Note_on_c, 0, 41, 69
1, 128075, Control_c, 0, 64, 49
1, 128076, Note_on_c, 0, 29, 82
1, 128090, Control_c, 0, 64, 79
1, 128093, Note_off_c, 0, 41, 61
1, 128104, Control_c, 0, 64, 101
1, 128119, Control_c, 0, 64, 127
1, 128126, Note_off_c, 0, 29, 62
1, 128147, Note_on_c, 0, 57, 75
1, 128214, Note_on_c, 0, 65, 76
1, 128223, Note_off_c, 0, 57, 59
1, 128300, Note_on_c, 0, 60, 81
1, 128304, Note_off_c, 0, 65, 57
1, 128357, Note_off_c, 0, 60, 57
1, 128366, Note_on_c, 0, 69, 79
1, 128393, Control_c, 0, 64, 118
1, 128407, Note_off_c, 0, 69, 64
1, 128408, Control_c, 0, 64, 110
1, 128423, Control_c, 0, 64, 109
1, 128438, Note_on_c, 0, 65, 87
1, 128517, Note_on_c, 0, 72, 81
1, 128548, Note_off_c, 0, 65, 37
1, 128601, Note_on_c, 0, 69, 79
1, 128615, Note_off_c, 0, 72, 59
1, 128661, Note_off_c, 0, 69, 63
1, 128670, Note_on_c, 0, 77, 80
1, 128727, Note_off_c, 0, 77, 60
1, 128749, Note_on_c, 0, 72, 83
1, 128750, Control_c, 0, 64, 108
1, 128765, Control_c, 0, 64, 107
1, 128780, Control_c, 0, 64, 106
1, 128828, Note_on_c, 0, 81, 83
1, 128893, Note_off_c, 0, 72, 33
1, 128906, Note_on_c, 0, 77, 77
1, 128913, Control_c, 0, 64, 104
1, 128917, Note_off_c, 0, 81, 61
1, 128927, Control_c, 0, 64, 99
1, 128942, Control_c, 0, 64, 90
1, 128957, Control_c, 0, 64, 77
1, 128972, Control_c, 0, 64, 65
1, 128985, Note_on_c, 0, 84, 82
1, 128987, Control_c, 0, 64, 52
1, 128991, Note_off_c, 0, 77, 60
1, 129009, Control_c, 0, 64, 41
1, 129024, Control_c, 0, 64, 36
1, 129039, Control_c, 0, 64, 36
1, 129083, Control_c, 0, 64, 35
1, 129098, Control_c, 0, 64, 34
1, 129113, Control_c, 0, 64, 33
1, 129136, Note_on_c, 0, 41, 58
1, 129142, Control_c, 0, 64, 33
1, 129189, Note_off_c, 0, 41, 54
1, 129285, Note_on_c, 0, 45, 72
1, 129335, Note_off_c, 0, 45, 56
1, 129365, Control_c, 0, 64, 32
1, 129380, Control_c, 0, 64, 32
1, 129395, Control_c, 0, 64, 31
1, 129395, Note_off_c, 0, 84, 32
1, 129409, Control_c, 0, 64, 30
1, 129421, Note_on_c, 0, 48, 75
1, 129425, Control_c, 0, 64, 30
1, 129439, Control_c, 0, 64, 29
1, 129454, Note_off_c, 0, 48, 66
1, 129454, Control_c, 0, 64, 27
1, 129469, Control_c, 0, 64, 26
1, 129484, Control_c, 0, 64, 25
1, 129499, Control_c, 0, 64, 23
1, 129514, Control_c, 0, 64, 21
1, 129529, Control_c, 0, 64, 18
1, 129544, Control_c, 0, 64, 16
1, 129589, Note_on_c, 0, 75, 77
1, 129596, Note_on_c, 0, 53, 58
1, 129597, Note_on_c, 0, 55, 55
1, 129621, Note_off_c, 0, 53, 59
1, 129621, Note_off_c, 0, 55, 58
1, 129644, Note_off_c, 0, 75, 58
1, 129652, Note_on_c, 0, 77, 68
1, 129710, Note_on_c, 0, 75, 72
1, 129720, Note_off_c, 0, 77, 60
1, 129724, Note_on_c, 0, 57, 67
1, 129770, Note_off_c, 0, 57, 65
1, 129777, Note_off_c, 0, 75, 62
1, 129779, Note_on_c, 0, 74, 66
1, 129842, Note_off_c, 0, 74, 59
1, 129866, Note_on_c, 0, 75, 67
1, 129896, Note_on_c, 0, 58, 75
1, 129929, Note_on_c, 0, 73, 78
1, 129956, Note_off_c, 0, 75, 55
1, 129964, Control_c, 0, 64, 19
1, 129979, Control_c, 0, 64, 20
1, 129994, Note_off_c, 0, 73, 62
1, 129994, Control_c, 0, 64, 20
1, 130008, Note_on_c, 0, 65, 72
1, 130009, Control_c, 0, 64, 21
1, 130041, Note_off_c, 0, 58, 59
1, 130079, Note_on_c, 0, 70, 76
1, 130091, Note_off_c, 0, 65, 59
1, 130142, Note_off_c, 0, 70, 60
1, 130147, Note_on_c, 0, 65, 66
1, 130212, Note_on_c, 0, 73, 76
1, 130219, Note_off_c, 0, 65, 59
1, 130289, Note_on_c, 0, 70, 77
1, 130292, Note_off_c, 0, 73, 61
1, 130361, Note_off_c, 0, 70, 59
1, 130368, Note_on_c, 0, 77, 77
1, 130419, Note_off_c, 0, 77, 59
1, 130435, Note_on_c, 0, 73, 86
1, 130504, Note_off_c, 0, 73, 62
1, 130519, Note_on_c, 0, 82, 88
1, 130536, Control_c, 0, 64, 20
1, 130583, Note_off_c, 0, 82, 62
1, 130595, Control_c, 0, 64, 20
1, 130602, Note_on_c, 0, 77, 80
1, 130626, Control_c, 0, 64, 19
1, 130640, Control_c, 0, 64, 19
1, 130655, Control_c, 0, 64, 18
1, 130674, Note_on_c, 0, 85, 81
1, 130693, Note_off_c, 0, 77, 57
1, 130758, Note_on_c, 0, 82, 82
1, 130768, Note_off_c, 0, 85, 62
1, 130814, Note_off_c, 0, 82, 63
1, 130833, Note_on_c, 0, 89, 91
1, 130999, Note_on_c, 0, 34, 61
1, 131043, Note_off_c, 0, 34, 66
1, 131149, Note_on_c, 0, 38, 73
1, 131174, Control_c, 0, 64, 19
1, 131184, Note_off_c, 0, 89, 38
1, 131189, Note_off_c, 0, 38, 64
1, 131306, Note_on_c, 0, 41, 67
1, 131344, Note_off_c, 0, 41, 63
1, 131359, Control_c, 0, 64, 18
1, 131374, Control_c, 0, 64, 18
1, 131404, Control_c, 0, 64, 17
1, 131457, Note_on_c, 0, 46, 82
1, 131463, Note_on_c, 0, 80, 81
1, 131498, Note_off_c, 0, 46, 58
1, 131511, Note_off_c, 0, 80, 59
1, 131521, Note_on_c, 0, 82, 72
1, 131579, Note_on_c, 0, 80, 80
1, 131583, Note_off_c, 0, 82, 63
1, 131604, Note_on_c, 0, 50, 63
1, 131635, Note_off_c, 0, 50, 64
1, 131636, Note_off_c, 0, 80, 62
1, 131644, Note_on_c, 0, 79, 63
1, 131711, Note_on_c, 0, 80, 74
1, 131717, Note_off_c, 0, 79, 61
1, 131729, Control_c, 0, 64, 24
1, 131744, Control_c, 0, 64, 46
1, 131759, Control_c, 0, 64, 64
1, 131774, Note_off_c, 0, 80, 62
1, 131774, Control_c, 0, 64, 79
1, 131776, Note_on_c, 0, 79, 70
1, 131788, Control_c, 0, 64, 109
1, 131791, Note_on_c, 0, 51, 64
1, 131803, Control_c, 0, 64, 127
1, 131820, Note_off_c, 0, 79, 62
1, 131898, Note_off_c, 0, 51, 57
1, 131982, Control_c, 0, 64, 118
1, 131983, Note_on_c, 0, 55, 68
1, 132005, Control_c, 0, 64, 110
1, 132020, Control_c, 0, 64, 105
1, 132034, Control_c, 0, 64, 101
1, 132049, Control_c, 0, 64, 97
1, 132057, Note_on_c, 0, 63, 70
1, 132064, Control_c, 0, 64, 91
1, 132078, Control_c, 0, 64, 87
1, 132093, Control_c, 0, 64, 81
1, 132108, Note_off_c, 0, 55, 34
1, 132108, Control_c, 0, 64, 74
1, 132123, Control_c, 0, 64, 67
1, 132128, Note_off_c, 0, 63, 58
1, 132138, Control_c, 0, 64, 61
1, 132143, Note_on_c, 0, 58, 70
1, 132152, Control_c, 0, 64, 55
1, 132167, Control_c, 0, 64, 53
1, 132182, Control_c, 0, 64, 53
1, 132192, Note_off_c, 0, 58, 58
1, 132197, Control_c, 0, 64, 52
1, 132212, Control_c, 0, 64, 50
1, 132221, Note_on_c, 0, 67, 77
1, 132227, Control_c, 0, 64, 46
1, 132242, Control_c, 0, 64, 40
1, 132256, Control_c, 0, 64, 32
1, 132271, Control_c, 0, 64, 28
1, 132274, Note_off_c, 0, 67, 61
1, 132286, Control_c, 0, 64, 28
1, 132300, Note_on_c, 0, 63, 77
1, 132316, Control_c, 0, 64, 27
1, 132345, Control_c, 0, 64, 26
1, 132350, Note_off_c, 0, 63, 57
1, 132353, Note_on_c, 0, 62, 12
1, 132354, Note_off_c, 0, 62, 127
1, 132360, Control_c, 0, 64, 26
1, 132379, Note_on_c, 0, 70, 76
1, 132419, Control_c, 0, 64, 25
1, 132432, Note_off_c, 0, 70, 45
1, 132434, Control_c, 0, 64, 24
1, 132449, Control_c, 0, 64, 23
1, 132462, Note_on_c, 0, 67, 77
1, 132464, Control_c, 0, 64, 21
1, 132478, Control_c, 0, 64, 21
1, 132493, Control_c, 0, 64, 20
1, 132528, Note_off_c, 0, 67, 52
1, 132541, Note_on_c, 0, 75, 76
1, 132619, Note_off_c, 0, 75, 57
1, 132628, Note_on_c, 0, 70, 65
1, 132673, Note_off_c, 0, 70, 60
1, 132692, Note_on_c, 0, 79, 69
1, 132775, Note_on_c, 0, 75, 64
1, 132776, Note_off_c, 0, 79, 59
1, 132812, Note_off_c, 0, 75, 58
1, 132889, Note_on_c, 0, 82, 74
1, 133059, Note_on_c, 0, 39, 44
1, 133107, Note_off_c, 0, 39, 62
1, 133109, Control_c, 0, 64, 21
1, 133124, Control_c, 0, 64, 21
1, 133183, Control_c, 0, 64, 22
1, 133213, Control_c, 0, 64, 22
1, 133226, Note_on_c, 0, 43, 63
1, 133264, Note_off_c, 0, 43, 61
1, 133371, Note_on_c, 0, 46, 70
1, 133408, Note_off_c, 0, 46, 62
1, 133483, Note_off_c, 0, 82, 47
1, 133534, Note_on_c, 0, 73, 71
1, 133540, Note_on_c, 0, 51, 57
1, 133572, Note_off_c, 0, 73, 58
1, 133574, Note_off_c, 0, 51, 63
1, 133592, Note_on_c, 0, 75, 65
1, 133648, Note_on_c, 0, 73, 71
1, 133652, Note_off_c, 0, 75, 57
1, 133667, Note_on_c, 0, 55, 64
1, 133696, Note_off_c, 0, 73, 60
1, 133698, Note_off_c, 0, 55, 63
1, 133711, Note_on_c, 0, 72, 65
1, 133771, Note_on_c, 0, 73, 65
1, 133773, Note_off_c, 0, 72, 54
1, 133809, Note_off_c, 0, 73, 57
1, 133827, Note_on_c, 0, 72, 68
1, 133845, Note_on_c, 0, 56, 64
1, 133877, Note_off_c, 0, 56, 63
1, 134017, Note_on_c, 0, 44, 59
1, 134036, Control_c, 0, 64, 22
1, 134050, Control_c, 0, 64, 21
1, 134065, Control_c, 0, 64, 20
1, 134075, Note_off_c, 0, 44, 55
1, 134080, Control_c, 0, 64, 19
1, 134109, Note_off_c, 0, 72, 52
1, 134124, Control_c, 0, 64, 19
1, 134154, Control_c, 0, 64, 18
1, 134167, Note_on_c, 0, 48, 65
1, 134168, Control_c, 0, 64, 18
1, 134206, Note_off_c, 0, 48, 65
1, 134214, Control_c, 0, 64, 0
1, 134327, Note_on_c, 0, 51, 69
1, 134352, Note_off_c, 0, 51, 65
1, 134474, Note_on_c, 0, 56, 68
1, 134478, Note_on_c, 0, 72, 80
1, 134500, Note_off_c, 0, 56, 66
1, 134534, Note_off_c, 0, 72, 59
1, 134543, Note_on_c, 0, 73, 76
1, 134593, Note_off_c, 0, 73, 59
1, 134608, Note_on_c, 0, 72, 75
1, 134624, Note_on_c, 0, 60, 66
1, 134653, Note_on_c, 0, 71, 72
1, 134654, Note_off_c, 0, 60, 64
1, 134655, Note_off_c, 0, 72, 62
1, 134674, Note_off_c, 0, 71, 67
1, 134712, Note_on_c, 0, 72, 81
1, 134787, Note_on_c, 0, 84, 87
1, 134907, Note_off_c, 0, 72, 60
1, 134939, Note_on_c, 0, 44, 70
1, 134958, Note_off_c, 0, 84, 60
1, 134982, Note_off_c, 0, 44, 60
1, 135091, Note_on_c, 0, 48, 82
1, 135137, Note_off_c, 0, 48, 62
1, 135249, Note_on_c, 0, 52, 87
1, 135294, Note_off_c, 0, 52, 59
1, 135390, Note_on_c, 0, 72, 87
1, 135398, Note_on_c, 0, 56, 83
1, 135428, Note_off_c, 0, 56, 65
1, 135440, Note_off_c, 0, 72, 61
1, 135467, Note_on_c, 0, 73, 85
1, 135519, Note_off_c, 0, 73, 61
1, 135528, Note_on_c, 0, 72, 82
1, 135533, Note_on_c, 0, 60, 82
1, 135553, Note_off_c, 0, 60, 66
1, 135569, Note_off_c, 0, 72, 65
1, 135574, Note_on_c, 0, 71, 74
1, 135595, Note_off_c, 0, 71, 67
1, 135631, Note_on_c, 0, 72, 88
1, 135697, Note_on_c, 0, 84, 95
1, 135847, Note_on_c, 0, 44, 72
1, 135849, Note_off_c, 0, 72, 62
1, 135884, Note_off_c, 0, 84, 62
1, 135908, Note_off_c, 0, 44, 59
1, 135990, Note_on_c, 0, 48, 77
1, 136038, Note_off_c, 0, 48, 59
1, 136152, Note_on_c, 0, 53, 80
1, 136203, Note_off_c, 0, 53, 56
1, 136296, Note_on_c, 0, 56, 83
1, 136302, Note_on_c, 0, 72, 78
1, 136324, Note_off_c, 0, 56, 66
1, 136343, Note_off_c, 0, 72, 64
1, 136375, Note_on_c, 0, 73, 77
1, 136413, Note_off_c, 0, 73, 62
1, 136434, Note_on_c, 0, 72, 73
1, 136476, Note_on_c, 0, 60, 74
1, 136483, Note_off_c, 0, 72, 64
1, 136495, Note_on_c, 0, 71, 65
1, 136507, Note_off_c, 0, 60, 65
1, 136521, Note_off_c, 0, 71, 64
1, 136551, Note_on_c, 0, 72, 75
1, 136652, Note_on_c, 0, 84, 66
1, 136652, Note_on_c, 0, 86, 65
1, 136767, Note_off_c, 0, 86, 60
1, 136779, Note_off_c, 0, 72, 42
1, 136836, Note_on_c, 0, 44, 61
1, 136876, Note_off_c, 0, 84, 60
1, 136887, Note_off_c, 0, 44, 57
1, 136999, Note_on_c, 0, 48, 60
1, 137036, Note_off_c, 0, 48, 62
1, 137158, Note_on_c, 0, 53, 63
1, 137190, Note_off_c, 0, 53, 63
1, 137330, Note_on_c, 0, 56, 55
1, 137370, Note_off_c, 0, 56, 63
1, 137463, Note_on_c, 0, 60, 52
1, 137621, Note_on_c, 0, 65, 58
1, 137795, Note_on_c, 0, 68, 58
1, 137947, Note_on_c, 0, 72, 66
1, 137968, Note_off_c, 0, 60, 18
1, 138067, Note_off_c, 0, 68, 31
1, 138113, Note_off_c, 0, 65, 49
1, 138126, Note_on_c, 0, 44, 48
1, 138143, Note_off_c, 0, 72, 60
1, 138282, Note_on_c, 0, 48, 55
1, 138435, Note_off_c, 0, 44, 34
1, 138438, Note_on_c, 0, 53, 57
1, 138594, Note_off_c, 0, 48, 36
1, 138606, Note_on_c, 0, 56, 61
1, 138754, Note_off_c, 0, 53, 39
1, 138763, Note_on_c, 0, 60, 61
1, 138774, Note_off_c, 0, 56, 59
1, 138817, Control_c, 0, 64, 16
1, 138832, Control_c, 0, 64, 17
1, 138846, Control_c, 0, 64, 18
1, 138890, Control_c, 0, 64, 18
1, 138932, Note_on_c, 0, 65, 70
1, 138964, Control_c, 0, 64, 19
1, 138994, Control_c, 0, 64, 19
1, 139055, Control_c, 0, 64, 20
1, 139069, Control_c, 0, 64, 20
1, 139084, Control_c, 0, 64, 21
1, 139094, Note_on_c, 0, 68, 65
1, 139099, Control_c, 0, 64, 21
1, 139133, Note_off_c, 0, 60, 40
1, 139187, Control_c, 0, 64, 22
1, 139202, Control_c, 0, 64, 22
1, 139217, Control_c, 0, 64, 23
1, 139247, Control_c, 0, 64, 23
1, 139259, Note_on_c, 0, 72, 62
1, 139262, Control_c, 0, 64, 24
1, 139276, Control_c, 0, 64, 24
1, 139306, Control_c, 0, 64, 25
1, 139351, Note_off_c, 0, 68, 35
1, 139380, Control_c, 0, 64, 25
1, 139395, Control_c, 0, 64, 26
1, 139425, Control_c, 0, 64, 26
1, 139428, Note_on_c, 0, 44, 44
1, 139435, Note_off_c, 0, 65, 32
1, 139440, Control_c, 0, 64, 27
1, 139454, Control_c, 0, 64, 28
1, 139469, Control_c, 0, 64, 30
1, 139491, Control_c, 0, 64, 30
1, 139494, Note_off_c, 0, 72, 58
1, 139506, Control_c, 0, 64, 31
1, 139592, Note_on_c, 0, 48, 49
1, 139743, Note_on_c, 0, 53, 54
1, 139783, Note_off_c, 0, 44, 36
1, 139802, Control_c, 0, 64, 30
1, 139899, Note_off_c, 0, 48, 30
1, 139917, Note_on_c, 0, 56, 50
1, 140055, Control_c, 0, 64, 31
1, 140070, Control_c, 0, 64, 32
1, 140071, Note_off_c, 0, 53, 38
1, 140075, Note_on_c, 0, 60, 50
1, 140079, Note_on_c, 0, 44, 44
1, 140084, Control_c, 0, 64, 35
1, 140099, Control_c, 0, 64, 38
1, 140112, Note_off_c, 0, 56, 39
1, 140114, Control_c, 0, 64, 42
1, 140129, Control_c, 0, 64, 45
1, 140144, Control_c, 0, 64, 47
1, 140159, Control_c, 0, 64, 49
1, 140174, Control_c, 0, 64, 49
1, 140257, Note_on_c, 0, 65, 52
1, 140268, Note_on_c, 0, 48, 42
1, 140314, Control_c, 0, 64, 50
1, 140344, Control_c, 0, 64, 50
1, 140359, Control_c, 0, 64, 51
1, 140373, Control_c, 0, 64, 52
1, 140388, Control_c, 0, 64, 54
1, 140403, Control_c, 0, 64, 55
1, 140417, Note_on_c, 0, 53, 46
1, 140418, Control_c, 0, 64, 56
1, 140421, Note_on_c, 0, 68, 53
1, 140433, Control_c, 0, 64, 57
1, 140448, Control_c, 0, 64, 57
1, 140457, Note_off_c, 0, 44, 38
1, 140477, Control_c, 0, 64, 58
1, 140492, Control_c, 0, 64, 59
1, 140507, Control_c, 0, 64, 59
1, 140522, Control_c, 0, 64, 60
1, 140536, Control_c, 0, 64, 60
1, 140551, Control_c, 0, 64, 61
1, 140566, Control_c, 0, 64, 62
1, 140581, Control_c, 0, 64, 63
1, 140587, Note_on_c, 0, 56, 38
1, 140587, Note_off_c, 0, 48, 32
1, 140594, Note_on_c, 0, 72, 66
1, 140594, Note_off_c, 0, 60, 39
1, 140596, Control_c, 0, 64, 64
1, 140612, Control_c, 0, 64, 65
1, 140627, Control_c, 0, 64, 65
1, 140656, Control_c, 0, 64, 66
1, 140686, Control_c, 0, 64, 66
1, 140701, Control_c, 0, 64, 67
1, 140703, Note_off_c, 0, 65, 27
1, 140712, Note_off_c, 0, 68, 33
1, 140715, Control_c, 0, 64, 67
1, 140752, Note_on_c, 0, 60, 63
1, 140755, Note_on_c, 0, 44, 49
1, 140801, Note_off_c, 0, 56, 40
1, 140850, Note_off_c, 0, 53, 41
1, 140893, Control_c, 0, 64, 67
1, 140914, Note_on_c, 0, 48, 52
1, 140914, Note_on_c, 0, 65, 68
1, 140922, Control_c, 0, 64, 66
1, 140989, Control_c, 0, 64, 66
1, 141004, Control_c, 0, 64, 65
1, 141019, Control_c, 0, 64, 65
1, 141033, Control_c, 0, 64, 64
1, 141048, Control_c, 0, 64, 63
1, 141063, Control_c, 0, 64, 62
1, 141075, Note_on_c, 0, 53, 65
1, 141078, Control_c, 0, 64, 61
1, 141083, Note_on_c, 0, 68, 75
1, 141092, Control_c, 0, 64, 60
1, 141096, Note_off_c, 0, 72, 58
1, 141107, Control_c, 0, 64, 59
1, 141122, Control_c, 0, 64, 59
1, 141133, Note_off_c, 0, 44, 36
1, 141137, Control_c, 0, 64, 58
1, 141149, Note_off_c, 0, 60, 34
1, 141152, Control_c, 0, 64, 58
1, 141166, Control_c, 0, 64, 57
1, 141181, Control_c, 0, 64, 56
1, 141196, Control_c, 0, 64, 55
1, 141211, Control_c, 0, 64, 54
1, 141214, Note_off_c, 0, 48, 38
1, 141226, Control_c, 0, 64, 53
1, 141241, Control_c, 0, 64, 52
1, 141256, Control_c, 0, 64, 52
1, 141259, Note_on_c, 0, 56, 62
1, 141260, Note_on_c, 0, 72, 74
1, 141271, Control_c, 0, 64, 51
1, 141285, Control_c, 0, 64, 50
1, 141300, Control_c, 0, 64, 49
1, 141308, Note_off_c, 0, 68, 56
1, 141333, Note_off_c, 0, 65, 41
1, 141359, Control_c, 0, 64, 49
1, 141389, Control_c, 0, 64, 48
1, 141420, Control_c, 0, 64, 48
1, 141422, Note_on_c, 0, 60, 77
1, 141427, Note_on_c, 0, 44, 61
1, 141450, Control_c, 0, 64, 47
1, 141464, Control_c, 0, 64, 47
1, 141465, Note_off_c, 0, 56, 48
1, 141479, Control_c, 0, 64, 46
1, 141494, Control_c, 0, 64, 46
1, 141538, Note_off_c, 0, 53, 35
1, 141553, Control_c, 0, 64, 45
1, 141600, Note_on_c, 0, 65, 79
1, 141608, Note_on_c, 0, 48, 58
1, 141777, Note_on_c, 0, 53, 57
1, 141778, Note_on_c, 0, 68, 82
1, 141795, Note_off_c, 0, 72, 61
1, 141861, Note_off_c, 0, 44, 35
1, 141969, Note_on_c, 0, 72, 84
1, 141971, Note_on_c, 0, 56, 58
1, 142006, Note_off_c, 0, 48, 29
1, 142019, Note_off_c, 0, 60, 49
1, 142022, Note_off_c, 0, 68, 55
1, 142155, Note_on_c, 0, 44, 53
1, 142163, Note_on_c, 0, 60, 73
1, 142202, Note_off_c, 0, 65, 41
1, 142205, Note_off_c, 0, 56, 49
1, 142301, Note_off_c, 0, 53, 36
1, 142364, Note_on_c, 0, 48, 45
1, 142391, Note_on_c, 0, 65, 73
1, 142487, Control_c, 0, 64, 46
1, 142606, Note_on_c, 0, 53, 49
1, 142637, Note_on_c, 0, 68, 71
1, 142702, Note_off_c, 0, 72, 61
1, 142783, Control_c, 0, 64, 45
1, 142812, Control_c, 0, 64, 45
1, 142827, Control_c, 0, 64, 44
1, 142842, Control_c, 0, 64, 43
1, 142857, Control_c, 0, 64, 42
1, 142871, Control_c, 0, 64, 41
1, 142886, Control_c, 0, 64, 40
1, 142901, Control_c, 0, 64, 39
1, 142916, Control_c, 0, 64, 38
1, 142931, Control_c, 0, 64, 36
1, 142946, Control_c, 0, 64, 35
1, 142961, Control_c, 0, 64, 34
1, 142976, Control_c, 0, 64, 32
1, 142991, Control_c, 0, 64, 31
1, 143006, Control_c, 0, 64, 30
1, 143021, Control_c, 0, 64, 28
1, 143035, Control_c, 0, 64, 26
1, 143050, Control_c, 0, 64, 24
1, 143056, Note_on_c, 0, 56, 42
1, 143059, Note_on_c, 0, 72, 74
1, 143065, Control_c, 0, 64, 21
1, 143079, Note_off_c, 0, 65, 41
1, 143080, Control_c, 0, 64, 16
1, 143100, Note_off_c, 0, 68, 57
1, 143110, Control_c, 0, 64, 0
1, 143411, Note_on_c, 0, 65, 62
1, 143441, Note_off_c, 0, 65, 61
1, 143525, Note_on_c, 0, 65, 58
1, 143725, Note_off_c, 0, 60, 38
1, 143834, Note_off_c, 0, 44, 36
1, 143890, Note_off_c, 0, 48, 36
1, 143893, Note_off_c, 0, 53, 49
1, 143911, Note_off_c, 0, 56, 57
1, 143924, Note_off_c, 0, 65, 59
1, 143933, Note_off_c, 0, 72, 51
1, 144266, Control_c, 0, 64, 16
1, 144281, Control_c, 0, 64, 32
1, 144296, Control_c, 0, 64, 46
1, 144305, Note_on_c, 0, 72, 60
1, 144310, Control_c, 0, 64, 59
1, 144323, Note_on_c, 0, 60, 31
1, 144325, Control_c, 0, 64, 65
1, 144340, Control_c, 0, 64, 70
1, 144355, Control_c, 0, 64, 76
1, 144370, Control_c, 0, 64, 84
1, 144384, Control_c, 0, 64, 93
1, 144399, Control_c, 0, 64, 101
1, 144414, Control_c, 0, 64, 108
1, 144428, Control_c, 0, 64, 110
1, 144498, Note_off_c, 0, 60, 33
1, 144502, Control_c, 0, 64, 108
1, 144517, Control_c, 0, 64, 103
1, 144532, Control_c, 0, 64, 95
1, 144547, Control_c, 0, 64, 86
1, 144550, Note_on_c, 0, 53, 56
1, 144556, Note_on_c, 0, 65, 63
1, 144562, Control_c, 0, 64, 75
1, 144576, Control_c, 0, 64, 66
1, 144583, Note_off_c, 0, 53, 52
1, 144583, Note_off_c, 0, 65, 64
1, 144591, Control_c, 0, 64, 59
1, 144607, Control_c, 0, 64, 53
1, 144622, Control_c, 0, 64, 52
1, 144652, Control_c, 0, 64, 51
1, 144665, Note_on_c, 0, 53, 49
1, 144667, Note_on_c, 0, 65, 55
1, 144667, Control_c, 0, 64, 50
1, 144681, Control_c, 0, 64, 48
1, 144696, Control_c, 0, 64, 47
1, 144733, Control_c, 0, 64, 46
1, 144878, Note_off_c, 0, 72, 40
1, 144940, Control_c, 0, 64, 47
1, 144970, Control_c, 0, 64, 47
1, 144985, Control_c, 0, 64, 48
1, 144997, Note_off_c, 0, 53, 59
1, 145045, Note_off_c, 0, 65, 60
1, 145059, Control_c, 0, 64, 48
1, 145074, Control_c, 0, 64, 50
1, 145089, Control_c, 0, 64, 51
1, 145104, Control_c, 0, 64, 53
1, 145119, Control_c, 0, 64, 54
1, 145133, Control_c, 0, 64, 54
1, 145148, Control_c, 0, 64, 55
1, 145178, Control_c, 0, 64, 55
1, 145207, Control_c, 0, 64, 56
1, 145222, Control_c, 0, 64, 56
1, 145237, Control_c, 0, 64, 57
1, 145251, Control_c, 0, 64, 58
1, 145266, Control_c, 0, 64, 59
1, 145281, Control_c, 0, 64, 60
1, 145296, Control_c, 0, 64, 61
1, 145311, Control_c, 0, 64, 62
1, 145325, Control_c, 0, 64, 63
1, 145340, Control_c, 0, 64, 64
1, 145355, Control_c, 0, 64, 64
1, 145370, Control_c, 0, 64, 65
1, 145385, Control_c, 0, 64, 66
1, 145401, Control_c, 0, 64, 67
1, 145416, Control_c, 0, 64, 70
1, 145426, Note_on_c, 0, 32, 33
1, 145428, Note_on_c, 0, 39, 28
1, 145430, Control_c, 0, 64, 75
1, 145436, Note_on_c, 0, 63, 43
1, 145439, Note_on_c, 0, 60, 32
1, 145444, Note_on_c, 0, 65, 43
1, 145445, Control_c, 0, 64, 81
1, 145460, Control_c, 0, 64, 89
1, 145482, Control_c, 0, 64, 99
1, 145497, Control_c, 0, 64, 113
1, 145512, Control_c, 0, 64, 127
1, 145577, Note_off_c, 0, 39, 39
1, 145584, Note_off_c, 0, 32, 31
1, 145639, Note_off_c, 0, 60, 36
1, 145641, Note_off_c, 0, 63, 41
1, 145669, Note_off_c, 0, 65, 35
1, 145820, Note_on_c, 0, 39, 46
1, 145823, Control_c, 0, 64, 105
1, 145827, Note_on_c, 0, 63, 53
1, 145828, Note_on_c, 0, 65, 56
1, 145828, Note_on_c, 0, 60, 51
1, 145831, Note_on_c, 0, 32, 42
1, 145837, Control_c, 0, 64, 83
1, 145852, Control_c, 0, 64, 73
1, 145867, Control_c, 0, 64, 68
1, 145882, Control_c, 0, 64, 68
1, 145897, Control_c, 0, 64, 75
1, 145912, Control_c, 0, 64, 93
1, 145927, Control_c, 0, 64, 127
1, 145945, Note_off_c, 0, 32, 35
1, 145978, Note_off_c, 0, 39, 43
1, 146027, Note_off_c, 0, 63, 49
1, 146027, Note_off_c, 0, 65, 53
1, 146061, Note_off_c, 0, 60, 31
1, 146193, Control_c, 0, 64, 116
1, 146195, Note_on_c, 0, 65, 67
1, 146196, Note_on_c, 0, 63, 52
1, 146200, Note_on_c, 0, 39, 48
1, 146201, Note_on_c, 0, 60, 56
1, 146206, Note_on_c, 0, 32, 46
1, 146209, Control_c, 0, 64, 84
1, 146231, Control_c, 0, 64, 68
1, 146246, Control_c, 0, 64, 62
1, 146261, Control_c, 0, 64, 63
1, 146276, Control_c, 0, 64, 69
1, 146291, Control_c, 0, 64, 82
1, 146302, Note_off_c, 0, 32, 37
1, 146305, Control_c, 0, 64, 127
1, 146365, Note_off_c, 0, 63, 44
1, 146370, Note_off_c, 0, 39, 35
1, 146392, Note_off_c, 0, 60, 31
1, 146646, Control_c, 0, 64, 95
1, 146651, Note_on_c, 0, 63, 47
1, 146654, Note_on_c, 0, 66, 67
1, 146661, Control_c, 0, 64, 73
1, 146663, Note_on_c, 0, 39, 44
1, 146667, Note_on_c, 0, 33, 40
1, 146675, Note_on_c, 0, 60, 41
1, 146676, Control_c, 0, 64, 60
1, 146691, Control_c, 0, 64, 50
1, 146695, Note_off_c, 0, 65, 53
1, 146706, Control_c, 0, 64, 45
1, 146721, Control_c, 0, 64, 44
1, 146736, Control_c, 0, 64, 44
1, 146751, Control_c, 0, 64, 42
1, 146766, Control_c, 0, 64, 39
1, 146780, Control_c, 0, 64, 38
1, 146839, Control_c, 0, 64, 39
1, 146854, Control_c, 0, 64, 44
1, 146869, Control_c, 0, 64, 52
1, 146884, Control_c, 0, 64, 61
1, 146899, Control_c, 0, 64, 68
1, 146914, Control_c, 0, 64, 76
1, 146928, Control_c, 0, 64, 86
1, 146943, Control_c, 0, 64, 100
1, 146958, Control_c, 0, 64, 127
1, 147013, Note_off_c, 0, 33, 0
1, 147050, Poly_aftertouch_c, 0, 33, 127
1, 147139, Note_off_c, 0, 60, 37
1, 147188, Note_off_c, 0, 63, 38
1, 147218, Note_off_c, 0, 39, 28
1, 147232, Poly_aftertouch_c, 0, 33, 0
1, 147262, Note_off_c, 0, 66, 31
1, 147897, Note_on_c, 0, 63, 63
1, 147903, Note_on_c, 0, 60, 57
1, 147903, Note_on_c, 0, 66, 72
1, 147906, Note_on_c, 0, 51, 51
1, 147907, Note_on_c, 0, 54, 53
1, 147908, Control_c, 0, 64, 97
1, 147913, Note_on_c, 0, 45, 42
1, 147923, Control_c, 0, 64, 75
1, 147938, Control_c, 0, 64, 60
1, 147952, Control_c, 0, 64, 47
1, 147967, Control_c, 0, 64, 45
1, 147982, Control_c, 0, 64, 50
1, 147997, Control_c, 0, 64, 62
1, 148012, Control_c, 0, 64, 72
1, 148026, Control_c, 0, 64, 89
1, 148041, Control_c, 0, 64, 127
1, 148088, Note_off_c, 0, 60, 47
1, 148095, Note_off_c, 0, 54, 57
1, 148106, Note_off_c, 0, 45, 40
1, 148113, Note_off_c, 0, 51, 53
1, 148121, Note_off_c, 0, 66, 56
1, 148124, Note_off_c, 0, 63, 57
1, 148371, Note_on_c, 0, 45, 49
1, 148380, Note_on_c, 0, 51, 62
1, 148385, Note_on_c, 0, 54, 73
1, 148393, Note_on_c, 0, 63, 85
1, 148395, Note_on_c, 0, 66, 90
1, 148395, Note_on_c, 0, 60, 80
1, 148411, Control_c, 0, 64, 99
1, 148426, Control_c, 0, 64, 75
1, 148441, Control_c, 0, 64, 60
1, 148456, Control_c, 0, 64, 49
1, 148478, Control_c, 0, 64, 51
1, 148493, Control_c, 0, 64, 64
1, 148508, Control_c, 0, 64, 79
1, 148523, Control_c, 0, 64, 118
1, 148538, Control_c, 0, 64, 127
1, 148591, Note_off_c, 0, 60, 54
1, 148593, Note_off_c, 0, 45, 48
1, 148599, Note_off_c, 0, 54, 58
1, 148608, Note_off_c, 0, 51, 53
1, 148645, Note_off_c, 0, 63, 57
1, 148652, Note_off_c, 0, 66, 57
1, 148962, Note_on_c, 0, 63, 85
1, 148964, Note_on_c, 0, 66, 88
1, 148967, Note_on_c, 0, 51, 69
1, 148967, Note_on_c, 0, 54, 80
1, 148967, Note_on_c, 0, 45, 69
1, 148970, Note_on_c, 0, 60, 83
1, 148982, Control_c, 0, 64, 100
1, 148997, Control_c, 0, 64, 68
1, 149012, Control_c, 0, 64, 45
1, 149026, Control_c, 0, 64, 24
1, 149056, Control_c, 0, 64, 32
1, 149071, Control_c, 0, 64, 57
1, 149086, Control_c, 0, 64, 74
1, 149100, Control_c, 0, 64, 121
1, 149115, Control_c, 0, 64, 127
1, 149182, Note_off_c, 0, 60, 53
1, 149221, Note_off_c, 0, 54, 56
1, 149236, Note_off_c, 0, 45, 37
1, 149267, Note_off_c, 0, 66, 62
1, 149287, Note_off_c, 0, 63, 54
1, 149336, Note_off_c, 0, 51, 28
1, 149764, Note_on_c, 0, 55, 78
1, 149765, Note_on_c, 0, 63, 86
1, 149765, Note_on_c, 0, 67, 87
1, 149766, Note_on_c, 0, 51, 78
1, 149771, Note_on_c, 0, 46, 74
1, 149772, Note_on_c, 0, 58, 84
1, 149790, Control_c, 0, 64, 85
1, 149805, Control_c, 0, 64, 62
1, 149820, Control_c, 0, 64, 0
1, 150035, Control_c, 0, 64, 27
1, 150049, Control_c, 0, 64, 50
1, 150064, Control_c, 0, 64, 62
1, 150079, Control_c, 0, 64, 69
1, 150094, Control_c, 0, 64, 76
1, 150109, Control_c, 0, 64, 89
1, 150124, Control_c, 0, 64, 123
1, 150139, Control_c, 0, 64, 127
1, 151346, Note_off_c, 0, 55, 31
1, 151455, Note_off_c, 0, 67, 42
1, 151459, Note_off_c, 0, 63, 39
1, 151504, Note_off_c, 0, 58, 29
1, 151518, Note_off_c, 0, 51, 38
1, 151544, Note_off_c, 0, 46, 40
1, 151605, Control_c, 0, 64, 92
1, 151620, Control_c, 0, 64, 74
1, 151635, Control_c, 0, 64, 61
1, 151650, Control_c, 0, 64, 47
1, 151665, Control_c, 0, 64, 29
1, 151680, Control_c, 0, 64, 18
1, 151694, Control_c, 0, 64, 18
1, 151932, Control_c, 0, 64, 18
1, 151947, Control_c, 0, 64, 19
1, 151961, Control_c, 0, 64, 20
1, 151976, Control_c, 0, 64, 21
1, 152006, Control_c, 0, 64, 22
1, 152021, Control_c, 0, 64, 22
1, 152036, Control_c, 0, 64, 23
1, 152053, Note_on_c, 0, 67, 52
1, 152063, Note_on_c, 0, 62, 50
1, 152072, Note_on_c, 0, 46, 39
1, 152076, Note_on_c, 0, 56, 38
1, 152083, Note_on_c, 0, 34, 32
1, 152123, Note_off_c, 0, 34, 59
1, 152125, Note_off_c, 0, 46, 58
1, 152155, Note_off_c, 0, 56, 0
1, 152187, Note_on_c, 0, 65, 59
1, 152192, Poly_aftertouch_c, 0, 56, 127
1, 152207, Note_off_c, 0, 67, 35
1, 152218, Note_off_c, 0, 62, 28
1, 152243, Poly_aftertouch_c, 0, 56, 0
1, 152257, Note_off_c, 0, 65, 59
1, 152360, Note_on_c, 0, 65, 64
1, 152362, Note_on_c, 0, 46, 56
1, 152362, Note_on_c, 0, 56, 49
1, 152368, Note_on_c, 0, 34, 46
1, 152396, Note_off_c, 0, 46, 63
1, 152398, Control_c, 0, 64, 23
1, 152399, Note_off_c, 0, 34, 55
1, 152400, Note_off_c, 0, 56, 62
1, 152424, Note_off_c, 0, 65, 60
1, 152437, Note_on_c, 0, 67, 59
1, 152482, Note_on_c, 0, 65, 51
1, 152487, Note_off_c, 0, 67, 60
1, 152532, Control_c, 0, 64, 24
1, 152566, Note_on_c, 0, 64, 62
1, 152568, Note_off_c, 0, 65, 59
1, 152576, Control_c, 0, 64, 24
1, 152592, Control_c, 0, 64, 25
1, 152655, Note_on_c, 0, 34, 46
1, 152656, Note_on_c, 0, 56, 48
1, 152660, Note_off_c, 0, 64, 55
1, 152662, Note_on_c, 0, 46, 51
1, 152664, Note_on_c, 0, 65, 61
1, 152684, Note_off_c, 0, 34, 57
1, 152690, Note_off_c, 0, 46, 58
1, 152744, Note_off_c, 0, 56, 36
1, 152818, Note_off_c, 0, 65, 55
1, 152820, Note_on_c, 0, 67, 59
1, 152855, Note_off_c, 0, 67, 61
1, 152947, Control_c, 0, 64, 24
1, 152983, Note_on_c, 0, 51, 41
1, 152984, Note_on_c, 0, 39, 40
1, 152986, Note_on_c, 0, 63, 59
1, 153014, Control_c, 0, 64, 23
1, 153051, Note_off_c, 0, 63, 53
1, 153054, Poly_aftertouch_c, 0, 55, 127
1, 153069, Note_on_c, 0, 65, 61
1, 153083, Poly_aftertouch_c, 0, 55, 0
1, 153152, Note_off_c, 0, 65, 59
1, 153153, Note_on_c, 0, 63, 66
1, 153225, Note_off_c, 0, 63, 59
1, 153228, Note_on_c, 0, 62, 67
1, 153337, Note_on_c, 0, 63, 69
1, 153337, Note_off_c, 0, 62, 57
1, 153342, Note_off_c, 0, 39, 41
1, 153359, Note_off_c, 0, 51, 43
1, 153364, Note_off_c, 0, 63, 66
1, 153445, Note_on_c, 0, 65, 66
1, 153473, Note_off_c, 0, 65, 62
1, 153537, Note_on_c, 0, 67, 72
1, 153566, Note_off_c, 0, 67, 60
1, 153624, Note_on_c, 0, 68, 64
1, 153655, Note_off_c, 0, 68, 61
1, 153718, Note_on_c, 0, 70, 71
1, 153757, Note_off_c, 0, 70, 62
1, 153820, Note_on_c, 0, 72, 72
1, 153865, Note_off_c, 0, 72, 58
1, 153916, Note_on_c, 0, 74, 80
1, 153957, Note_off_c, 0, 74, 61
1, 154011, Note_on_c, 0, 75, 74
1, 154047, Note_off_c, 0, 75, 58
1, 154095, Note_on_c, 0, 77, 80
1, 154134, Control_c, 0, 64, 23
1, 154136, Note_off_c, 0, 77, 61
1, 154190, Note_on_c, 0, 78, 85
1, 154224, Control_c, 0, 64, 22
1, 154238, Note_off_c, 0, 78, 61
1, 154282, Note_on_c, 0, 79, 86
1, 154330, Note_off_c, 0, 79, 61
1, 154377, Note_on_c, 0, 80, 86
1, 154429, Note_off_c, 0, 80, 62
1, 154477, Note_on_c, 0, 81, 87
1, 154526, Note_off_c, 0, 81, 62
1, 154578, Note_on_c, 0, 82, 87
1, 154647, Note_off_c, 0, 82, 58
1, 154660, Control_c, 0, 64, 23
1, 154673, Note_on_c, 0, 83, 92
1, 154728, Note_off_c, 0, 83, 61
1, 154844, Note_on_c, 0, 84, 78
1, 154845, Note_on_c, 0, 72, 46
1, 154852, Control_c, 0, 64, 27
1, 154855, Note_on_c, 0, 75, 47
1, 154860, Note_on_c, 0, 68, 40
1, 154867, Control_c, 0, 64, 43
1, 154882, Control_c, 0, 64, 60
1, 154896, Control_c, 0, 64, 70
1, 154911, Control_c, 0, 64, 77
1, 154926, Control_c, 0, 64, 84
1, 154941, Control_c, 0, 64, 84
1, 154956, Control_c, 0, 64, 83
1, 154971, Control_c, 0, 64, 79
1, 154986, Control_c, 0, 64, 72
1, 155001, Control_c, 0, 64, 64
1, 155016, Control_c, 0, 64, 58
1, 155031, Control_c, 0, 64, 53
1, 155046, Control_c, 0, 64, 53
1, 155080, Note_on_c, 0, 77, 65
1, 155104, Note_off_c, 0, 77, 66
1, 155105, Control_c, 0, 64, 52
1, 155176, Note_on_c, 0, 77, 60
1, 155453, Note_off_c, 0, 84, 56
1, 155496, Note_off_c, 0, 75, 58
1, 155513, Note_off_c, 0, 72, 59
1, 155526, Note_off_c, 0, 77, 61
1, 155527, Note_off_c, 0, 68, 56
1, 155832, Note_on_c, 0, 71, 52
1, 155903, Note_off_c, 0, 71, 58
1, 155917, Note_on_c, 0, 72, 66
1, 155919, Note_on_c, 0, 60, 36
1, 155931, Note_on_c, 0, 56, 33
1, 155931, Note_on_c, 0, 63, 31
1, 156163, Note_on_c, 0, 65, 56
1, 156187, Note_off_c, 0, 65, 63
1, 156270, Note_on_c, 0, 65, 49
1, 156497, Note_off_c, 0, 72, 54
1, 156514, Control_c, 0, 67, 16
1, 156588, Note_off_c, 0, 65, 61
1, 156607, Note_off_c, 0, 63, 58
1, 156629, Note_off_c, 0, 60, 41
1, 156646, Note_off_c, 0, 56, 51
1, 156804, Control_c, 0, 64, 53
1, 156819, Control_c, 0, 64, 53
1, 156833, Control_c, 0, 64, 54
1, 156848, Control_c, 0, 64, 55
1, 156863, Control_c, 0, 64, 56
1, 156878, Control_c, 0, 64, 56
1, 156893, Control_c, 0, 64, 57
1, 156922, Control_c, 0, 64, 57
1, 156952, Control_c, 0, 64, 58
1, 156981, Control_c, 0, 64, 59
1, 156996, Control_c, 0, 64, 60
1, 157011, Control_c, 0, 64, 61
1, 157026, Control_c, 0, 64, 63
1, 157040, Control_c, 0, 64, 64
1, 157055, Control_c, 0, 64, 65
1, 157061, Note_on_c, 0, 53, 44
1, 157064, Note_on_c, 0, 44, 34
1, 157066, Note_on_c, 0, 32, 30
1, 157070, Note_on_c, 0, 51, 29
1, 157070, Control_c, 0, 64, 66
1, 157081, Note_on_c, 0, 48, 30
1, 157084, Control_c, 0, 64, 68
1, 157099, Control_c, 0, 64, 71
1, 157114, Control_c, 0, 64, 75
1, 157129, Control_c, 0, 64, 81
1, 157144, Control_c, 0, 64, 87
1, 157159, Control_c, 0, 64, 94
1, 157174, Control_c, 0, 64, 104
1, 157189, Control_c, 0, 64, 121
1, 157194, Note_off_c, 0, 32, 34
1, 157204, Control_c, 0, 64, 127
1, 157204, Note_off_c, 0, 44, 36
1, 157268, Note_off_c, 0, 48, 43
1, 157288, Note_off_c, 0, 51, 34
1, 157291, Note_off_c, 0, 53, 35
1, 157481, Note_on_c, 0, 53, 54
1, 157483, Note_on_c, 0, 32, 39
1, 157483, Note_on_c, 0, 51, 44
1, 157484, Note_on_c, 0, 44, 46
1, 157493, Note_on_c, 0, 48, 44
1, 157493, Control_c, 0, 64, 103
1, 157508, Control_c, 0, 64, 82
1, 157523, Control_c, 0, 64, 68
1, 157537, Control_c, 0, 64, 61
1, 157537, Control_c, 0, 67, 0
1, 157558, Note_off_c, 0, 32, 54
1, 157567, Control_c, 0, 64, 64
1, 157577, Note_off_c, 0, 44, 53
1, 157582, Control_c, 0, 64, 74
1, 157597, Control_c, 0, 64, 90
1, 157612, Control_c, 0, 64, 127
1, 157693, Note_off_c, 0, 53, 49
1, 157696, Note_off_c, 0, 48, 40
1, 157720, Note_off_c, 0, 51, 35
1, 157877, Note_on_c, 0, 32, 40
1, 157879, Note_on_c, 0, 44, 49
1, 157880, Note_on_c, 0, 51, 49
1, 157888, Note_on_c, 0, 53, 65
1, 157893, Control_c, 0, 64, 113
1, 157904, Note_on_c, 0, 48, 42
1, 157907, Control_c, 0, 64, 83
1, 157922, Control_c, 0, 64, 68
1, 157937, Control_c, 0, 64, 62
1, 157952, Control_c, 0, 64, 63
1, 157967, Control_c, 0, 64, 67
1, 157982, Control_c, 0, 64, 77
1, 157997, Control_c, 0, 64, 109
1, 158011, Control_c, 0, 64, 127
1, 158023, Note_off_c, 0, 32, 36
1, 158047, Note_off_c, 0, 44, 41
1, 158081, Note_off_c, 0, 48, 36
1, 158096, Note_off_c, 0, 51, 33
1, 158390, Control_c, 0, 64, 89
1, 158394, Note_on_c, 0, 33, 43
1, 158399, Note_on_c, 0, 51, 33
1, 158400, Note_on_c, 0, 54, 57
1, 158405, Control_c, 0, 64, 67
1, 158408, Note_on_c, 0, 45, 39
1, 158411, Note_on_c, 0, 48, 33
1, 158420, Control_c, 0, 64, 53
1, 158435, Control_c, 0, 64, 27
1, 158450, Control_c, 0, 64, 0
1, 158455, Note_off_c, 0, 53, 39
1, 158642, Control_c, 0, 64, 40
1, 158657, Control_c, 0, 64, 56
1, 158672, Control_c, 0, 64, 64
1, 158686, Control_c, 0, 64, 67
1, 158701, Control_c, 0, 64, 71
1, 158716, Control_c, 0, 64, 77
1, 158730, Control_c, 0, 64, 88
1, 158745, Control_c, 0, 64, 113
1, 158760, Control_c, 0, 64, 127
1, 158831, Note_off_c, 0, 33, 40
1, 158888, Note_off_c, 0, 48, 41
1, 158910, Note_off_c, 0, 45, 33
1, 158961, Note_off_c, 0, 51, 47
1, 158997, Note_off_c, 0, 54, 54
1, 159738, Control_c, 0, 64, 105
1, 159750, Note_on_c, 0, 75, 55
1, 159751, Note_on_c, 0, 78, 65
1, 159752, Control_c, 0, 64, 80
1, 159755, Note_on_c, 0, 72, 43
1, 159767, Control_c, 0, 64, 66
1, 159769, Note_on_c, 0, 69, 35
1, 159783, Control_c, 0, 64, 58
1, 159798, Control_c, 0, 64, 56
1, 159829, Control_c, 0, 64, 60
1, 159844, Control_c, 0, 64, 65
1, 159858, Control_c, 0, 64, 71
1, 159873, Control_c, 0, 64, 82
1, 159888, Control_c, 0, 64, 109
1, 159902, Control_c, 0, 64, 127
1, 159945, Note_off_c, 0, 75, 59
1, 159946, Note_off_c, 0, 69, 35
1, 159956, Note_off_c, 0, 78, 57
1, 159958, Note_off_c, 0, 72, 34
1, 160283, Note_on_c, 0, 72, 65
1, 160288, Note_on_c, 0, 78, 83
1, 160289, Note_on_c, 0, 69, 56
1, 160291, Note_on_c, 0, 75, 81
1, 160302, Control_c, 0, 64, 91
1, 160317, Control_c, 0, 64, 73
1, 160332, Control_c, 0, 64, 62
1, 160347, Control_c, 0, 64, 59
1, 160362, Control_c, 0, 64, 61
1, 160376, Control_c, 0, 64, 66
1, 160391, Control_c, 0, 64, 75
1, 160406, Control_c, 0, 64, 94
1, 160421, Control_c, 0, 64, 127
1, 160431, Note_off_c, 0, 72, 53
1, 160444, Note_off_c, 0, 69, 56
1, 160486, Note_off_c, 0, 75, 60
1, 160503, Note_off_c, 0, 78, 58
1, 160888, Note_on_c, 0, 72, 73
1, 160890, Note_on_c, 0, 78, 91
1, 160892, Note_on_c, 0, 75, 86
1, 160897, Note_on_c, 0, 69, 66
1, 160903, Control_c, 0, 64, 100
1, 160918, Control_c, 0, 64, 77
1, 160933, Control_c, 0, 64, 64
1, 160948, Control_c, 0, 64, 56
1, 160963, Control_c, 0, 64, 57
1, 160977, Control_c, 0, 64, 63
1, 160992, Control_c, 0, 64, 71
1, 161007, Control_c, 0, 64, 86
1, 161022, Control_c, 0, 64, 127
1, 161049, Note_off_c, 0, 72, 59
1, 161073, Note_off_c, 0, 69, 61
1, 161105, Note_off_c, 0, 75, 60
1, 161158, Note_off_c, 0, 78, 56
1, 161696, Control_c, 0, 64, 91
1, 161707, Note_on_c, 0, 79, 80
1, 161709, Note_on_c, 0, 75, 85
1, 161711, Control_c, 0, 64, 70
1, 161712, Note_on_c, 0, 70, 71
1, 161726, Control_c, 0, 64, 54
1, 161741, Control_c, 0, 64, 27
1, 161755, Control_c, 0, 64, 0
1, 161955, Control_c, 0, 64, 43
1, 161970, Control_c, 0, 64, 62
1, 161985, Control_c, 0, 64, 73
1, 162000, Control_c, 0, 64, 84
1, 162015, Control_c, 0, 64, 109
1, 162030, Control_c, 0, 64, 127
1, 163337, Note_off_c, 0, 70, 19
1, 163383, Note_off_c, 0, 79, 39
1, 163460, Note_off_c, 0, 75, 41
1, 163675, Control_c, 0, 64, 107
1, 163690, Control_c, 0, 64, 85
1, 163705, Control_c, 0, 64, 66
1, 163720, Control_c, 0, 64, 53
1, 163735, Control_c, 0, 64, 34
1, 163750, Control_c, 0, 64, 0
1, 163750, Control_c, 0, 67, 18
1, 163765, Control_c, 0, 67, 26
1, 163780, Control_c, 0, 67, 34
1, 163795, Control_c, 0, 67, 39
1, 163810, Control_c, 0, 67, 40
1, 163839, Control_c, 0, 67, 40
1, 163869, Control_c, 0, 67, 39
1, 163914, Control_c, 0, 67, 39
1, 163929, Control_c, 0, 67, 38
1, 163943, Control_c, 0, 67, 38
1, 163958, Control_c, 0, 67, 37
1, 164003, Control_c, 0, 67, 37
1, 164018, Control_c, 0, 67, 36
1, 164032, Control_c, 0, 67, 35
1, 164047, Control_c, 0, 67, 35
1, 164053, Note_on_c, 0, 67, 52
1, 164058, Note_on_c, 0, 62, 48
1, 164062, Control_c, 0, 67, 34
1, 164072, Note_on_c, 0, 46, 41
1, 164073, Note_on_c, 0, 56, 42
1, 164074, Note_on_c, 0, 34, 38
1, 164105, Note_off_c, 0, 46, 56
1, 164106, Note_off_c, 0, 34, 52
1, 164150, Control_c, 0, 67, 34
1, 164180, Control_c, 0, 67, 33
1, 164208, Note_on_c, 0, 65, 58
1, 164219, Note_off_c, 0, 67, 33
1, 164221, Note_off_c, 0, 56, 0
1, 164221, Note_off_c, 0, 62, 34
1, 164262, Control_c, 0, 67, 34
1, 164263, Poly_aftertouch_c, 0, 56, 0
1, 164271, Note_off_c, 0, 65, 56
1, 164367, Note_on_c, 0, 34, 44
1, 164367, Note_on_c, 0, 65, 61
1, 164371, Note_on_c, 0, 46, 52
1, 164373, Note_on_c, 0, 56, 55
1, 164397, Note_off_c, 0, 34, 52
1, 164398, Note_off_c, 0, 46, 57
1, 164413, Note_off_c, 0, 56, 63
1, 164424, Control_c, 0, 67, 34
1, 164442, Note_off_c, 0, 65, 60
1, 164451, Note_on_c, 0, 67, 59
1, 164454, Control_c, 0, 67, 35
1, 164499, Note_on_c, 0, 65, 52
1, 164503, Note_off_c, 0, 67, 59
1, 164543, Control_c, 0, 67, 35
1, 164581, Note_on_c, 0, 64, 62
1, 164584, Note_off_c, 0, 65, 60
1, 164618, Control_c, 0, 67, 35
1, 164633, Control_c, 0, 67, 34
1, 164647, Control_c, 0, 67, 34
1, 164662, Control_c, 0, 64, 16
1, 164662, Control_c, 0, 67, 33
1, 164668, Note_on_c, 0, 56, 54
1, 164668, Note_off_c, 0, 64, 57
1, 164674, Note_on_c, 0, 46, 55
1, 164674, Note_on_c, 0, 65, 68
1, 164677, Note_on_c, 0, 34, 45
1, 164677, Control_c, 0, 64, 16
1, 164698, Note_off_c, 0, 46, 59
1, 164706, Note_off_c, 0, 34, 51
1, 164780, Note_off_c, 0, 56, 33
1, 164781, Control_c, 0, 67, 33
1, 164796, Control_c, 0, 67, 32
1, 164825, Control_c, 0, 67, 32
1, 164832, Note_off_c, 0, 65, 57
1, 164835, Note_on_c, 0, 67, 61
1, 164870, Control_c, 0, 67, 31
1, 164885, Control_c, 0, 64, 0
1, 164885, Control_c, 0, 67, 31
1, 164929, Control_c, 0, 67, 30
1, 164951, Control_c, 0, 64, 18
1, 164966, Control_c, 0, 64, 23
1, 164966, Control_c, 0, 67, 30
1, 164978, Note_off_c, 0, 67, 34
1, 164981, Control_c, 0, 64, 24
1, 165005, Note_on_c, 0, 63, 64
1, 165012, Note_on_c, 0, 39, 51
1, 165014, Note_on_c, 0, 55, 55
1, 165015, Note_on_c, 0, 51, 51
1, 165040, Control_c, 0, 67, 29
1, 165043, Note_off_c, 0, 51, 60
1, 165047, Note_off_c, 0, 39, 64
1, 165050, Note_off_c, 0, 55, 60
1, 165064, Note_off_c, 0, 63, 57
1, 165154, Note_on_c, 0, 51, 53
1, 165159, Control_c, 0, 67, 29
1, 165197, Note_off_c, 0, 51, 61
1, 165232, Control_c, 0, 64, 23
1, 165247, Control_c, 0, 64, 18
1, 165277, Control_c, 0, 64, 0
1, 165291, Control_c, 0, 67, 28
1, 165315, Note_on_c, 0, 51, 53
1, 165321, Control_c, 0, 67, 28
1, 165336, Control_c, 0, 67, 27
1, 165353, Note_off_c, 0, 51, 61
1, 165466, Note_on_c, 0, 51, 51
1, 165498, Note_off_c, 0, 51, 57
1, 165529, Control_c, 0, 64, 16
1, 165544, Control_c, 0, 64, 16
1, 165559, Control_c, 0, 64, 17
1, 165589, Control_c, 0, 64, 18
1, 165609, Note_on_c, 0, 51, 55
1, 165634, Control_c, 0, 67, 28
1, 165646, Note_off_c, 0, 51, 59
1, 165678, Control_c, 0, 64, 18
1, 165678, Control_c, 0, 67, 28
1, 165729, Control_c, 0, 64, 19
1, 165763, Note_on_c, 0, 51, 57
1, 165803, Control_c, 0, 64, 18
1, 165803, Control_c, 0, 67, 29
1, 165805, Note_off_c, 0, 51, 57
1, 165818, Control_c, 0, 64, 16
1, 165824, Note_on_c, 0, 86, 55
1, 165833, Control_c, 0, 64, 0
1, 165877, Control_c, 0, 67, 29
1, 165920, Note_on_c, 0, 87, 77
1, 165921, Note_off_c, 0, 86, 61
1, 165921, Control_c, 0, 64, 46
1, 165921, Control_c, 0, 67, 30
1, 165936, Control_c, 0, 64, 67
1, 165937, Note_on_c, 0, 60, 49
1, 165951, Control_c, 0, 64, 86
1, 165951, Control_c, 0, 67, 30
1, 165953, Note_on_c, 0, 63, 50
1, 165966, Control_c, 0, 64, 127
1, 165966, Control_c, 0, 67, 31
1, 165980, Control_c, 0, 67, 31
1, 165995, Control_c, 0, 67, 32
1, 166010, Control_c, 0, 67, 32
1, 166069, Control_c, 0, 64, 96
1, 166084, Control_c, 0, 64, 76
1, 166087, Note_on_c, 0, 51, 52
1, 166099, Control_c, 0, 64, 64
1, 166099, Control_c, 0, 67, 33
1, 166114, Control_c, 0, 64, 56
1, 166125, Note_off_c, 0, 51, 59
1, 166128, Control_c, 0, 64, 54
1, 166162, Note_on_c, 0, 80, 66
1, 166174, Control_c, 0, 64, 54
1, 166188, Note_off_c, 0, 80, 63
1, 166188, Control_c, 0, 64, 53
1, 166203, Control_c, 0, 64, 53
1, 166242, Note_on_c, 0, 80, 75
1, 166246, Note_on_c, 0, 51, 48
1, 166277, Note_off_c, 0, 51, 58
1, 166277, Control_c, 0, 67, 32
1, 166307, Control_c, 0, 67, 32
1, 166317, Note_off_c, 0, 87, 45
1, 166322, Control_c, 0, 67, 31
1, 166337, Control_c, 0, 67, 31
1, 166382, Control_c, 0, 67, 30
1, 166383, Note_on_c, 0, 51, 52
1, 166411, Control_c, 0, 67, 30
1, 166420, Note_off_c, 0, 51, 61
1, 166448, Control_c, 0, 67, 29
1, 166450, Note_off_c, 0, 80, 62
1, 166477, Control_c, 0, 67, 29
1, 166553, Note_on_c, 0, 51, 47
1, 166582, Note_off_c, 0, 51, 56
1, 166596, Control_c, 0, 67, 28
1, 166705, Note_on_c, 0, 51, 46
1, 166743, Note_off_c, 0, 51, 62
1, 166755, Note_on_c, 0, 74, 53
1, 166766, Note_off_c, 0, 63, 55
1, 166766, Note_off_c, 0, 60, 55
1, 166848, Control_c, 0, 67, 28
1, 166866, Note_on_c, 0, 75, 61
1, 166884, Note_off_c, 0, 74, 59
1, 166897, Note_on_c, 0, 62, 41
1, 166906, Note_on_c, 0, 58, 49
1, 166922, Control_c, 0, 67, 27
1, 167035, Note_on_c, 0, 51, 42
1, 167041, Control_c, 0, 67, 27
1, 167069, Note_off_c, 0, 51, 57
1, 167096, Note_on_c, 0, 67, 51
1, 167119, Note_off_c, 0, 67, 58
1, 167138, Note_off_c, 0, 75, 48
1, 167145, Control_c, 0, 64, 52
1, 167177, Note_on_c, 0, 51, 53
1, 167184, Note_on_c, 0, 67, 52
1, 167197, Control_c, 0, 67, 26
1, 167226, Control_c, 0, 67, 26
1, 167227, Note_off_c, 0, 51, 60
1, 167241, Control_c, 0, 67, 25
1, 167256, Control_c, 0, 67, 24
1, 167271, Control_c, 0, 67, 22
1, 167286, Control_c, 0, 67, 20
1, 167300, Control_c, 0, 67, 18
1, 167315, Control_c, 0, 67, 37
1, 167330, Control_c, 0, 67, 33
1, 167345, Control_c, 0, 67, 28
1, 167348, Note_off_c, 0, 67, 61
1, 167359, Note_on_c, 0, 51, 56
1, 167360, Control_c, 0, 67, 25
1, 167374, Control_c, 0, 67, 23
1, 167389, Control_c, 0, 67, 22
1, 167391, Note_off_c, 0, 51, 63
1, 167404, Control_c, 0, 67, 22
1, 167434, Control_c, 0, 67, 21
1, 167449, Control_c, 0, 67, 19
1, 167464, Control_c, 0, 67, 18
1, 167479, Control_c, 0, 67, 16
1, 167510, Note_on_c, 0, 51, 52
1, 167543, Note_off_c, 0, 62, 39
1, 167545, Note_off_c, 0, 51, 63
1, 167571, Note_off_c, 0, 58, 57
1, 167582, Control_c, 0, 67, 0
1, 167652, Note_on_c, 0, 51, 57
1, 167686, Note_off_c, 0, 51, 62
1, 167795, Note_on_c, 0, 75, 73
1, 167821, Note_on_c, 0, 56, 63
1, 167822, Note_on_c, 0, 60, 64
1, 167826, Note_on_c, 0, 51, 54
1, 167852, Note_off_c, 0, 51, 59
1, 167852, Note_off_c, 0, 60, 61
1, 167854, Note_off_c, 0, 56, 63
1, 167857, Note_off_c, 0, 75, 61
1, 167860, Note_on_c, 0, 65, 71
1, 167896, Note_off_c, 0, 65, 60
1, 167965, Note_on_c, 0, 51, 50
1, 168008, Note_off_c, 0, 51, 61
1, 168035, Control_c, 0, 64, 52
1, 168064, Control_c, 0, 64, 51
1, 168109, Control_c, 0, 64, 51
1, 168120, Note_on_c, 0, 75, 78
1, 168131, Note_on_c, 0, 60, 65
1, 168134, Note_on_c, 0, 51, 54
1, 168138, Note_on_c, 0, 56, 57
1, 168159, Note_off_c, 0, 51, 58
1, 168164, Note_off_c, 0, 60, 61
1, 168173, Note_off_c, 0, 56, 63
1, 168179, Note_on_c, 0, 65, 61
1, 168179, Note_off_c, 0, 75, 63
1, 168207, Note_off_c, 0, 65, 65
1, 168269, Note_on_c, 0, 51, 49
1, 168311, Note_off_c, 0, 51, 60
1, 168390, Control_c, 0, 64, 50
1, 168415, Note_on_c, 0, 74, 68
1, 168431, Note_on_c, 0, 56, 62
1, 168437, Note_on_c, 0, 59, 61
1, 168440, Note_on_c, 0, 51, 42
1, 168449, Control_c, 0, 64, 50
1, 168465, Note_off_c, 0, 74, 59
1, 168468, Note_off_c, 0, 56, 60
1, 168470, Note_off_c, 0, 51, 54
1, 168472, Note_off_c, 0, 59, 62
1, 168477, Note_on_c, 0, 65, 65
1, 168479, Control_c, 0, 64, 49
1, 168508, Note_off_c, 0, 65, 61
1, 168573, Note_on_c, 0, 51, 44
1, 168610, Note_off_c, 0, 51, 63
1, 168628, Control_c, 0, 64, 49
1, 168727, Note_on_c, 0, 75, 61
1, 168756, Note_on_c, 0, 51, 45
1, 168756, Note_on_c, 0, 55, 53
1, 168769, Note_on_c, 0, 58, 47
1, 168796, Note_off_c, 0, 51, 63
1, 168797, Note_on_c, 0, 63, 51
1, 168806, Note_off_c, 0, 55, 56
1, 168809, Note_off_c, 0, 58, 62
1, 168810, Note_off_c, 0, 75, 57
1, 168821, Note_off_c, 0, 63, 60
1, 168917, Note_on_c, 0, 51, 49
1, 168955, Note_off_c, 0, 51, 63
1, 169020, Control_c, 0, 64, 48
1, 169075, Note_on_c, 0, 51, 42
1, 169112, Note_off_c, 0, 51, 52
1, 169234, Note_on_c, 0, 51, 41
1, 169264, Note_off_c, 0, 51, 56
1, 169302, Control_c, 0, 64, 48
1, 169367, Note_on_c, 0, 51, 50
1, 169404, Note_off_c, 0, 51, 62
1, 169524, Note_on_c, 0, 51, 54
1, 169565, Note_off_c, 0, 51, 59
1, 169689, Note_on_c, 0, 60, 52
1, 169701, Note_on_c, 0, 63, 49
1, 169756, Note_on_c, 0, 87, 54
1, 169831, Note_off_c, 0, 87, 60
1, 169846, Note_on_c, 0, 86, 72
1, 169858, Note_on_c, 0, 51, 48
1, 169893, Note_off_c, 0, 51, 61
1, 169913, Note_off_c, 0, 86, 61
1, 169916, Note_on_c, 0, 87, 78
1, 169977, Note_off_c, 0, 87, 62
1, 169991, Note_on_c, 0, 86, 83
1, 170015, Note_on_c, 0, 51, 52
1, 170052, Note_off_c, 0, 51, 62
1, 170063, Note_on_c, 0, 87, 85
1, 170078, Note_off_c, 0, 86, 59
1, 170135, Note_off_c, 0, 87, 61
1, 170139, Note_on_c, 0, 89, 84
1, 170168, Note_on_c, 0, 51, 50
1, 170209, Note_off_c, 0, 51, 62
1, 170228, Note_on_c, 0, 87, 80
1, 170235, Note_off_c, 0, 89, 61
1, 170310, Note_on_c, 0, 51, 54
1, 170320, Note_off_c, 0, 87, 60
1, 170323, Note_on_c, 0, 80, 76
1, 170343, Note_off_c, 0, 51, 63
1, 170379, Note_off_c, 0, 80, 60
1, 170459, Note_on_c, 0, 51, 53
1, 170483, Note_off_c, 0, 60, 54
1, 170491, Note_off_c, 0, 63, 57
1, 170498, Note_off_c, 0, 51, 59
1, 170504, Control_c, 0, 64, 47
1, 170518, Control_c, 0, 64, 47
1, 170562, Control_c, 0, 64, 46
1, 170592, Control_c, 0, 64, 46
1, 170618, Note_on_c, 0, 58, 55
1, 170618, Note_on_c, 0, 62, 55
1, 170636, Control_c, 0, 64, 45
1, 170681, Note_on_c, 0, 75, 61
1, 170749, Note_off_c, 0, 75, 59
1, 170753, Note_on_c, 0, 51, 51
1, 170766, Note_on_c, 0, 74, 68
1, 170785, Control_c, 0, 64, 45
1, 170789, Note_off_c, 0, 51, 62
1, 170832, Note_off_c, 0, 74, 58
1, 170843, Note_on_c, 0, 75, 65
1, 170905, Note_off_c, 0, 75, 59
1, 170915, Note_on_c, 0, 51, 48
1, 170923, Note_on_c, 0, 74, 71
1, 170961, Note_off_c, 0, 51, 63
1, 170985, Control_c, 0, 64, 44
1, 170990, Note_off_c, 0, 74, 52
1, 171000, Note_on_c, 0, 75, 61
1, 171055, Note_off_c, 0, 75, 60
1, 171062, Note_on_c, 0, 77, 66
1, 171096, Note_on_c, 0, 51, 49
1, 171131, Note_on_c, 0, 75, 61
1, 171132, Note_off_c, 0, 51, 62
1, 171133, Control_c, 0, 64, 44
1, 171141, Note_off_c, 0, 77, 56
1, 171219, Note_on_c, 0, 67, 68
1, 171230, Note_off_c, 0, 75, 58
1, 171249, Note_on_c, 0, 51, 50
1, 171281, Note_off_c, 0, 51, 62
1, 171286, Note_off_c, 0, 67, 60
1, 171336, Note_off_c, 0, 62, 42
1, 171381, Note_on_c, 0, 51, 54
1, 171385, Note_off_c, 0, 58, 31
1, 171409, Note_off_c, 0, 51, 61
1, 171514, Note_on_c, 0, 51, 56
1, 171518, Note_on_c, 0, 60, 69
1, 171519, Note_on_c, 0, 56, 66
1, 171546, Note_off_c, 0, 51, 63
1, 171546, Note_off_c, 0, 60, 61
1, 171549, Note_off_c, 0, 56, 63
1, 171575, Note_on_c, 0, 65, 59
1, 171650, Note_on_c, 0, 74, 67
1, 171655, Note_on_c, 0, 51, 59
1, 171658, Note_off_c, 0, 65, 55
1, 171699, Note_off_c, 0, 51, 60
1, 171738, Note_on_c, 0, 75, 62
1, 171750, Note_off_c, 0, 74, 61
1, 171770, Note_off_c, 0, 75, 62
1, 171831, Note_on_c, 0, 60, 74
1, 171834, Note_on_c, 0, 51, 60
1, 171837, Note_on_c, 0, 56, 67
1, 171860, Note_off_c, 0, 60, 61
1, 171865, Note_off_c, 0, 51, 64
1, 171870, Note_off_c, 0, 56, 62
1, 171882, Control_c, 0, 64, 43
1, 171899, Note_on_c, 0, 65, 64
1, 171978, Note_on_c, 0, 74, 68
1, 171980, Note_off_c, 0, 65, 59
1, 171980, Note_on_c, 0, 51, 59
1, 172014, Note_off_c, 0, 51, 61
1, 172063, Note_on_c, 0, 75, 66
1, 172078, Note_off_c, 0, 74, 59
1, 172102, Note_off_c, 0, 75, 61
1, 172130, Note_on_c, 0, 56, 70
1, 172132, Note_on_c, 0, 59, 70
1, 172136, Note_on_c, 0, 51, 51
1, 172160, Note_off_c, 0, 59, 64
1, 172162, Note_off_c, 0, 56, 62
1, 172163, Note_off_c, 0, 51, 58
1, 172187, Note_on_c, 0, 65, 73
1, 172208, Control_c, 0, 64, 43
1, 172238, Control_c, 0, 64, 42
1, 172241, Note_off_c, 0, 65, 54
1, 172253, Control_c, 0, 64, 42
1, 172262, Note_on_c, 0, 73, 76
1, 172264, Note_on_c, 0, 51, 54
1, 172301, Note_off_c, 0, 51, 61
1, 172327, Note_on_c, 0, 74, 55
1, 172341, Note_off_c, 0, 73, 58
1, 172350, Note_off_c, 0, 74, 60
1, 172432, Note_on_c, 0, 51, 60
1, 172439, Note_on_c, 0, 55, 69
1, 172439, Note_on_c, 0, 58, 72
1, 172442, Note_on_c, 0, 63, 76
1, 172446, Note_on_c, 0, 75, 69
1, 172463, Note_off_c, 0, 75, 67
1, 172463, Note_off_c, 0, 63, 69
1, 172468, Control_c, 0, 64, 42
1, 172508, Note_off_c, 0, 58, 59
1, 172508, Note_off_c, 0, 51, 61
1, 172508, Note_off_c, 0, 55, 61
1, 172512, Control_c, 0, 64, 41
1, 172527, Control_c, 0, 64, 39
1, 172535, Note_on_c, 0, 65, 80
1, 172542, Control_c, 0, 64, 36
1, 172557, Control_c, 0, 64, 35
1, 172593, Note_on_c, 0, 63, 78
1, 172600, Note_off_c, 0, 65, 62
1, 172666, Note_on_c, 0, 62, 77
1, 172672, Note_off_c, 0, 63, 61
1, 172731, Note_on_c, 0, 63, 71
1, 172767, Note_off_c, 0, 62, 56
1, 172795, Control_c, 0, 64, 34
1, 172800, Note_off_c, 0, 63, 60
1, 172810, Control_c, 0, 64, 34
1, 172812, Note_on_c, 0, 65, 76
1, 172839, Control_c, 0, 64, 33
1, 172854, Control_c, 0, 64, 32
1, 172869, Control_c, 0, 64, 30
1, 172884, Control_c, 0, 64, 29
1, 172885, Note_on_c, 0, 67, 77
1, 172888, Note_off_c, 0, 65, 53
1, 172899, Control_c, 0, 64, 25
1, 172913, Control_c, 0, 64, 20
1, 172928, Control_c, 0, 64, 0
1, 172958, Note_on_c, 0, 68, 77
1, 172976, Note_off_c, 0, 67, 61
1, 173017, Note_on_c, 0, 70, 81
1, 173024, Note_off_c, 0, 68, 61
1, 173037, Note_off_c, 0, 70, 67
1, 173170, Note_on_c, 0, 55, 66
1, 173193, Note_on_c, 0, 67, 76
1, 173204, Note_off_c, 0, 55, 66
1, 173218, Note_off_c, 0, 67, 63
1, 173333, Note_on_c, 0, 53, 71
1, 173334, Note_on_c, 0, 65, 87
1, 173360, Note_off_c, 0, 53, 66
1, 173372, Note_off_c, 0, 65, 63
1, 173483, Note_on_c, 0, 56, 61
1, 173485, Note_on_c, 0, 68, 72
1, 173514, Note_off_c, 0, 56, 65
1, 173525, Note_off_c, 0, 68, 60
1, 173628, Note_on_c, 0, 50, 62
1, 173631, Note_on_c, 0, 62, 71
1, 173656, Note_off_c, 0, 62, 65
1, 173658, Note_off_c, 0, 50, 64
1, 173783, Note_on_c, 0, 53, 56
1, 173785, Note_on_c, 0, 65, 69
1, 173816, Note_off_c, 0, 53, 62
1, 173820, Note_off_c, 0, 65, 55
1, 173944, Note_on_c, 0, 46, 56
1, 173944, Note_on_c, 0, 58, 64
1, 173976, Note_off_c, 0, 58, 63
1, 173980, Note_off_c, 0, 46, 62
1, 174079, Note_on_c, 0, 62, 64
1, 174098, Note_on_c, 0, 50, 49
1, 174116, Note_off_c, 0, 62, 57
1, 174124, Note_off_c, 0, 50, 57
1, 174263, Note_on_c, 0, 51, 45
1, 174266, Note_on_c, 0, 63, 57
1, 174341, Note_off_c, 0, 63, 58
1, 174347, Note_on_c, 0, 65, 63
1, 174424, Note_on_c, 0, 63, 65
1, 174430, Note_off_c, 0, 65, 61
1, 174457, Note_off_c, 0, 51, 54
1, 174485, Note_off_c, 0, 63, 60
1, 174487, Note_on_c, 0, 62, 75
1, 174565, Note_on_c, 0, 63, 73
1, 174580, Note_off_c, 0, 62, 56
1, 174623, Note_off_c, 0, 63, 61
1, 174634, Note_on_c, 0, 65, 79
1, 174697, Note_off_c, 0, 65, 51
1, 174718, Note_on_c, 0, 67, 80
1, 174788, Note_on_c, 0, 68, 80
1, 174806, Note_off_c, 0, 67, 60
1, 174869, Note_on_c, 0, 72, 85
1, 174877, Note_off_c, 0, 68, 60
1, 174881, Note_on_c, 0, 60, 67
1, 174944, Note_on_c, 0, 58, 74
1, 174949, Note_off_c, 0, 60, 54
1, 174952, Note_on_c, 0, 70, 78
1, 175006, Note_off_c, 0, 72, 62
1, 175020, Note_on_c, 0, 56, 68
1, 175021, Note_off_c, 0, 58, 61
1, 175029, Note_on_c, 0, 68, 78
1, 175074, Note_off_c, 0, 70, 60
1, 175101, Note_on_c, 0, 67, 87
1, 175109, Note_on_c, 0, 55, 61
1, 175116, Note_off_c, 0, 56, 63
1, 175126, Note_off_c, 0, 68, 60
1, 175175, Note_on_c, 0, 53, 79
1, 175175, Note_on_c, 0, 65, 83
1, 175179, Note_off_c, 0, 55, 61
1, 175180, Note_off_c, 0, 67, 60
1, 175214, Note_off_c, 0, 53, 64
1, 175214, Note_off_c, 0, 65, 64
1, 175338, Note_on_c, 0, 68, 73
1, 175340, Note_on_c, 0, 56, 69
1, 175369, Note_off_c, 0, 56, 65
1, 175385, Note_off_c, 0, 68, 56
1, 175481, Note_on_c, 0, 50, 68
1, 175485, Note_on_c, 0, 62, 77
1, 175512, Note_off_c, 0, 50, 63
1, 175513, Note_off_c, 0, 62, 62
1, 175640, Note_on_c, 0, 53, 65
1, 175643, Note_on_c, 0, 65, 70
1, 175670, Note_off_c, 0, 53, 64
1, 175682, Note_off_c, 0, 65, 60
1, 175801, Note_on_c, 0, 58, 67
1, 175803, Note_on_c, 0, 46, 49
1, 175828, Note_off_c, 0, 58, 65
1, 175831, Note_off_c, 0, 46, 57
1, 175940, Note_on_c, 0, 50, 55
1, 175941, Note_on_c, 0, 62, 66
1, 175973, Note_off_c, 0, 50, 62
1, 175980, Note_off_c, 0, 62, 56
1, 176100, Note_on_c, 0, 63, 69
1, 176104, Note_on_c, 0, 51, 56
1, 176128, Note_off_c, 0, 63, 64
1, 176132, Note_off_c, 0, 51, 64
1, 176256, Note_on_c, 0, 67, 55
1, 176258, Note_on_c, 0, 55, 51
1, 176280, Note_off_c, 0, 67, 61
1, 176286, Note_off_c, 0, 55, 58
1, 176410, Note_on_c, 0, 48, 51
1, 176412, Note_on_c, 0, 60, 63
1, 176437, Note_off_c, 0, 48, 59
1, 176440, Note_off_c, 0, 60, 63
1, 176559, Note_on_c, 0, 51, 49
1, 176568, Note_on_c, 0, 63, 62
1, 176588, Note_off_c, 0, 51, 58
1, 176600, Note_off_c, 0, 63, 62
1, 176706, Note_on_c, 0, 57, 64
1, 176707, Note_on_c, 0, 45, 51
1, 176734, Note_off_c, 0, 57, 67
1, 176734, Note_off_c, 0, 45, 56
1, 176857, Note_on_c, 0, 48, 49
1, 176867, Note_on_c, 0, 60, 52
1, 176886, Note_off_c, 0, 48, 62
1, 176900, Note_off_c, 0, 60, 57
1, 177021, Note_on_c, 0, 41, 49
1, 177025, Note_on_c, 0, 53, 59
1, 177066, Note_off_c, 0, 41, 60
1, 177068, Note_off_c, 0, 53, 61
1, 177173, Note_on_c, 0, 57, 61
1, 177179, Note_on_c, 0, 45, 58
1, 177204, Note_off_c, 0, 57, 64
1, 177215, Note_off_c, 0, 45, 61
1, 177322, Note_on_c, 0, 48, 73
1, 177322, Note_on_c, 0, 60, 73
1, 177349, Note_off_c, 0, 48, 66
1, 177368, Note_off_c, 0, 60, 56
1, 177466, Note_on_c, 0, 52, 71
1, 177474, Note_on_c, 0, 64, 74
1, 177495, Note_off_c, 0, 52, 63
1, 177519, Note_off_c, 0, 64, 58
1, 177608, Note_on_c, 0, 53, 67
1, 177623, Note_on_c, 0, 65, 70
1, 177644, Note_off_c, 0, 53, 60
1, 177667, Note_off_c, 0, 65, 58
1, 177774, Note_on_c, 0, 45, 63
1, 177788, Note_on_c, 0, 57, 66
1, 177807, Note_off_c, 0, 45, 62
1, 177821, Note_off_c, 0, 57, 61
1, 177925, Note_on_c, 0, 58, 72
1, 177936, Note_on_c, 0, 46, 60
1, 177956, Note_off_c, 0, 58, 64
1, 177967, Note_off_c, 0, 46, 63
1, 178072, Note_on_c, 0, 50, 63
1, 178079, Note_on_c, 0, 62, 75
1, 178103, Note_off_c, 0, 50, 63
1, 178120, Note_off_c, 0, 62, 61
1, 178222, Note_on_c, 0, 65, 79
1, 178226, Note_on_c, 0, 53, 67
1, 178255, Note_off_c, 0, 53, 65
1, 178267, Note_off_c, 0, 65, 61
1, 178365, Note_on_c, 0, 69, 87
1, 178375, Note_on_c, 0, 57, 62
1, 178406, Note_off_c, 0, 57, 65
1, 178418, Note_off_c, 0, 69, 64
1, 178514, Note_on_c, 0, 58, 78
1, 178515, Note_on_c, 0, 70, 92
1, 178556, Note_off_c, 0, 58, 57
1, 178565, Note_off_c, 0, 70, 63
1, 178660, Note_on_c, 0, 74, 96
1, 178663, Note_on_c, 0, 62, 79
1, 178707, Note_off_c, 0, 62, 59
1, 178712, Note_off_c, 0, 74, 64
1, 178811, Note_on_c, 0, 77, 95
1, 178812, Note_on_c, 0, 65, 80
1, 178844, Note_off_c, 0, 65, 59
1, 178853, Note_off_c, 0, 77, 62
1, 178951, Note_on_c, 0, 81, 100
1, 178958, Note_on_c, 0, 69, 83
1, 178993, Note_off_c, 0, 81, 63
1, 178995, Note_off_c, 0, 69, 64
1, 179120, Note_on_c, 0, 82, 98
1, 179125, Note_on_c, 0, 70, 93
1, 179155, Note_off_c, 0, 70, 66
1, 179163, Note_off_c, 0, 82, 66
1, 179441, Note_on_c, 0, 58, 93
1, 179480, Note_off_c, 0, 58, 64
1, 179748, Note_on_c, 0, 46, 96
1, 179790, Note_off_c, 0, 46, 64
1, 180077, Note_on_c, 0, 34, 90
1, 180125, Note_off_c, 0, 34, 65
1, 180392, Note_on_c, 0, 32, 83
1, 180444, Note_off_c, 0, 32, 62
1, 180546, Note_on_c, 0, 82, 82
1, 180583, Note_off_c, 0, 82, 62
1, 180765, Control_c, 0, 64, 29
1, 180774, Note_on_c, 0, 87, 83
1, 180779, Control_c, 0, 64, 68
1, 180783, Note_on_c, 0, 31, 52
1, 180794, Control_c, 0, 64, 127
1, 180821, Note_off_c, 0, 31, 63
1, 180973, Note_on_c, 0, 58, 62
1, 181015, Note_off_c, 0, 58, 54
1, 181071, Note_on_c, 0, 63, 63
1, 181107, Note_off_c, 0, 63, 59
1, 181145, Note_on_c, 0, 55, 61
1, 181185, Note_off_c, 0, 55, 57
1, 181217, Note_on_c, 0, 63, 63
1, 181259, Note_off_c, 0, 63, 57
1, 181259, Note_off_c, 0, 87, 55
1, 181289, Note_on_c, 0, 86, 68
1, 181297, Note_on_c, 0, 58, 55
1, 181337, Note_off_c, 0, 58, 59
1, 181362, Note_on_c, 0, 87, 79
1, 181377, Note_on_c, 0, 63, 59
1, 181423, Note_off_c, 0, 63, 55
1, 181427, Note_off_c, 0, 86, 35
1, 181429, Note_on_c, 0, 89, 79
1, 181450, Note_on_c, 0, 55, 63
1, 181454, Note_off_c, 0, 87, 60
1, 181494, Note_off_c, 0, 55, 54
1, 181537, Note_on_c, 0, 63, 56
1, 181543, Control_c, 0, 64, 118
1, 181558, Control_c, 0, 64, 101
1, 181567, Note_off_c, 0, 63, 63
1, 181572, Control_c, 0, 64, 86
1, 181587, Control_c, 0, 64, 70
1, 181601, Note_on_c, 0, 58, 56
1, 181602, Note_on_c, 0, 87, 77
1, 181602, Control_c, 0, 64, 58
1, 181605, Note_off_c, 0, 89, 58
1, 181617, Control_c, 0, 64, 42
1, 181632, Control_c, 0, 64, 45
1, 181639, Note_off_c, 0, 58, 62
1, 181646, Note_off_c, 0, 87, 61
1, 181646, Control_c, 0, 64, 43
1, 181674, Note_on_c, 0, 63, 57
1, 181676, Control_c, 0, 64, 43
1, 181691, Control_c, 0, 64, 41
1, 181706, Control_c, 0, 64, 39
1, 181714, Note_off_c, 0, 63, 59
1, 181720, Control_c, 0, 64, 37
1, 181735, Control_c, 0, 64, 36
1, 181754, Note_on_c, 0, 82, 84
1, 181756, Note_on_c, 0, 55, 60
1, 181796, Note_off_c, 0, 55, 58
1, 181832, Note_on_c, 0, 63, 57
1, 181878, Note_off_c, 0, 63, 57
1, 181912, Note_on_c, 0, 58, 49
1, 181956, Note_off_c, 0, 58, 61
1, 181987, Note_on_c, 0, 63, 62
1, 182026, Note_off_c, 0, 63, 58
1, 182067, Note_on_c, 0, 55, 52
1, 182102, Note_off_c, 0, 55, 63
1, 182136, Note_on_c, 0, 63, 59
1, 182186, Note_off_c, 0, 63, 56
1, 182208, Note_off_c, 0, 82, 56
1, 182221, Note_on_c, 0, 84, 75
1, 182226, Note_on_c, 0, 58, 52
1, 182269, Note_off_c, 0, 58, 61
1, 182296, Note_on_c, 0, 82, 85
1, 182307, Note_on_c, 0, 63, 54
1, 182308, Note_off_c, 0, 84, 58
1, 182343, Note_off_c, 0, 63, 61
1, 182379, Note_on_c, 0, 55, 60
1, 182379, Note_on_c, 0, 80, 77
1, 182417, Note_off_c, 0, 55, 59
1, 182421, Note_off_c, 0, 82, 59
1, 182464, Note_on_c, 0, 63, 51
1, 182491, Note_off_c, 0, 63, 56
1, 182526, Note_on_c, 0, 79, 71
1, 182530, Note_off_c, 0, 80, 60
1, 182539, Note_on_c, 0, 58, 51
1, 182548, Note_off_c, 0, 79, 68
1, 182581, Note_off_c, 0, 58, 61
1, 182681, Note_on_c, 0, 83, 89
1, 182701, Note_on_c, 0, 56, 49
1, 182708, Poly_aftertouch_c, 0, 63, 0
1, 182729, Note_off_c, 0, 56, 60
1, 182745, Note_off_c, 0, 83, 63
1, 182746, Note_on_c, 0, 84, 80
1, 182764, Note_off_c, 0, 84, 70
1, 182795, Note_on_c, 0, 63, 35
1, 182827, Note_off_c, 0, 63, 47
1, 182846, Note_on_c, 0, 60, 53
1, 182891, Note_off_c, 0, 60, 57
1, 182926, Note_on_c, 0, 63, 58
1, 182970, Note_off_c, 0, 63, 55
1, 183001, Note_on_c, 0, 83, 84
1, 183008, Note_on_c, 0, 56, 48
1, 183042, Note_off_c, 0, 56, 63
1, 183068, Note_off_c, 0, 83, 61
1, 183071, Control_c, 0, 64, 36
1, 183075, Note_on_c, 0, 84, 76
1, 183082, Note_on_c, 0, 63, 59
1, 183092, Note_off_c, 0, 84, 69
1, 183117, Note_off_c, 0, 63, 61
1, 183143, Note_on_c, 0, 60, 53
1, 183197, Note_off_c, 0, 60, 54
1, 183239, Note_on_c, 0, 63, 56
1, 183248, Control_c, 0, 64, 35
1, 183263, Control_c, 0, 64, 35
1, 183281, Note_off_c, 0, 63, 55
1, 183308, Note_on_c, 0, 79, 68
1, 183324, Note_on_c, 0, 56, 43
1, 183356, Note_off_c, 0, 56, 57
1, 183367, Note_on_c, 0, 80, 75
1, 183368, Note_off_c, 0, 79, 62
1, 183387, Note_off_c, 0, 80, 69
1, 183409, Note_on_c, 0, 64, 50
1, 183450, Note_off_c, 0, 64, 59
1, 183459, Note_on_c, 0, 60, 54
1, 183535, Note_off_c, 0, 60, 54
1, 183545, Control_c, 0, 64, 34
1, 183578, Note_on_c, 0, 64, 54
1, 183611, Note_off_c, 0, 64, 61
1, 183613, Note_on_c, 0, 76, 55
1, 183647, Note_on_c, 0, 56, 50
1, 183686, Note_on_c, 0, 77, 67
1, 183695, Note_off_c, 0, 76, 61
1, 183697, Note_off_c, 0, 56, 63
1, 183708, Note_off_c, 0, 77, 67
1, 183737, Note_on_c, 0, 65, 53
1, 183774, Note_off_c, 0, 65, 61
1, 183803, Note_on_c, 0, 60, 53
1, 183846, Note_off_c, 0, 60, 57
1, 183886, Note_on_c, 0, 65, 61
1, 183918, Note_off_c, 0, 65, 62
1, 183960, Note_on_c, 0, 56, 55
1, 184000, Note_off_c, 0, 56, 63
1, 184034, Note_on_c, 0, 65, 62
1, 184081, Note_off_c, 0, 65, 60
1, 184108, Note_on_c, 0, 60, 55
1, 184155, Note_off_c, 0, 60, 59
1, 184193, Note_on_c, 0, 65, 68
1, 184231, Note_off_c, 0, 65, 56
1, 184276, Note_on_c, 0, 57, 51
1, 184309, Note_off_c, 0, 57, 64
1, 184342, Note_on_c, 0, 65, 66
1, 184390, Note_off_c, 0, 65, 59
1, 184419, Note_on_c, 0, 77, 73
1, 184423, Note_on_c, 0, 63, 59
1, 184441, Note_off_c, 0, 77, 66
1, 184474, Note_off_c, 0, 63, 55
1, 184508, Control_c, 0, 64, 34
1, 184515, Note_on_c, 0, 65, 60
1, 184522, Control_c, 0, 64, 32
1, 184537, Control_c, 0, 64, 27
1, 184553, Control_c, 0, 64, 24
1, 184556, Note_off_c, 0, 65, 57
1, 184583, Control_c, 0, 64, 30
1, 184583, Note_on_c, 0, 80, 88
1, 184585, Note_on_c, 0, 58, 52
1, 184597, Control_c, 0, 64, 53
1, 184612, Control_c, 0, 64, 72
1, 184626, Note_off_c, 0, 58, 61
1, 184627, Control_c, 0, 64, 95
1, 184642, Control_c, 0, 64, 127
1, 184673, Note_on_c, 0, 65, 57
1, 184723, Note_off_c, 0, 65, 51
1, 184733, Note_on_c, 0, 62, 61
1, 184780, Note_off_c, 0, 62, 55
1, 184789, Control_c, 0, 64, 107
1, 184804, Control_c, 0, 64, 84
1, 184819, Control_c, 0, 64, 70
1, 184822, Note_on_c, 0, 65, 66
1, 184834, Control_c, 0, 64, 62
1, 184849, Note_off_c, 0, 65, 63
1, 184849, Control_c, 0, 64, 57
1, 184863, Control_c, 0, 64, 56
1, 184893, Control_c, 0, 64, 56
1, 184896, Note_on_c, 0, 53, 64
1, 184908, Control_c, 0, 64, 55
1, 184923, Control_c, 0, 64, 55
1, 184938, Control_c, 0, 64, 54
1, 184938, Note_off_c, 0, 53, 60
1, 184977, Note_on_c, 0, 62, 57
1, 184997, Control_c, 0, 64, 54
1, 185024, Note_off_c, 0, 62, 58
1, 185027, Control_c, 0, 64, 53
1, 185048, Note_off_c, 0, 80, 58
1, 185054, Note_on_c, 0, 82, 69
1, 185055, Note_on_c, 0, 58, 59
1, 185086, Control_c, 0, 64, 53
1, 185099, Note_off_c, 0, 58, 59
1, 185117, Note_on_c, 0, 80, 75
1, 185134, Note_off_c, 0, 82, 62
1, 185140, Note_on_c, 0, 62, 65
1, 185177, Note_off_c, 0, 62, 63
1, 185204, Note_on_c, 0, 79, 77
1, 185215, Note_on_c, 0, 50, 62
1, 185220, Note_off_c, 0, 80, 61
1, 185249, Note_off_c, 0, 50, 61
1, 185308, Note_on_c, 0, 58, 60
1, 185346, Note_off_c, 0, 58, 62
1, 185363, Note_off_c, 0, 79, 61
1, 185364, Note_on_c, 0, 53, 65
1, 185378, Note_on_c, 0, 77, 72
1, 185414, Note_off_c, 0, 53, 56
1, 185430, Note_off_c, 0, 77, 57
1, 185451, Note_on_c, 0, 58, 63
1, 185481, Note_off_c, 0, 58, 64
1, 185522, Note_on_c, 0, 75, 78
1, 185529, Note_on_c, 0, 46, 58
1, 185569, Note_off_c, 0, 46, 60
1, 185599, Control_c, 0, 64, 52
1, 185608, Note_on_c, 0, 56, 49
1, 185646, Note_off_c, 0, 56, 62
1, 185671, Note_on_c, 0, 53, 64
1, 185677, Note_on_c, 0, 74, 82
1, 185692, Note_off_c, 0, 75, 53
1, 185702, Control_c, 0, 64, 52
1, 185752, Note_off_c, 0, 53, 51
1, 185758, Note_on_c, 0, 56, 68
1, 185793, Note_off_c, 0, 56, 63
1, 185835, Note_on_c, 0, 46, 65
1, 185835, Note_on_c, 0, 72, 84
1, 185836, Note_off_c, 0, 74, 60
1, 185872, Note_off_c, 0, 46, 62
1, 185919, Note_on_c, 0, 56, 64
1, 185957, Note_off_c, 0, 56, 61
1, 185989, Note_on_c, 0, 53, 73
1, 185993, Note_on_c, 0, 70, 87
1, 186020, Note_off_c, 0, 72, 54
1, 186050, Control_c, 0, 64, 51
1, 186056, Note_off_c, 0, 53, 59
1, 186065, Note_on_c, 0, 56, 70
1, 186130, Note_off_c, 0, 56, 58
1, 186137, Note_on_c, 0, 47, 68
1, 186146, Note_on_c, 0, 68, 88
1, 186190, Note_off_c, 0, 70, 46
1, 186215, Note_off_c, 0, 47, 52
1, 186235, Note_on_c, 0, 56, 60
1, 186269, Note_off_c, 0, 56, 63
1, 186279, Note_on_c, 0, 53, 69
1, 186306, Note_on_c, 0, 65, 86
1, 186306, Note_off_c, 0, 68, 59
1, 186362, Note_on_c, 0, 56, 73
1, 186375, Note_off_c, 0, 53, 50
1, 186414, Note_off_c, 0, 56, 59
1, 186448, Note_on_c, 0, 48, 64
1, 186464, Note_on_c, 0, 63, 87
1, 186494, Note_off_c, 0, 65, 59
1, 186505, Note_off_c, 0, 48, 50
1, 186545, Note_on_c, 0, 55, 62
1, 186604, Note_off_c, 0, 55, 57
1, 186616, Note_on_c, 0, 51, 58
1, 186616, Note_on_c, 0, 67, 82
1, 186639, Note_off_c, 0, 63, 60
1, 186677, Note_off_c, 0, 51, 54
1, 186709, Note_on_c, 0, 55, 63
1, 186744, Note_off_c, 0, 55, 60
1, 186778, Note_on_c, 0, 60, 78
1, 186781, Note_off_c, 0, 67, 60
1, 186785, Note_on_c, 0, 44, 66
1, 186858, Note_off_c, 0, 44, 51
1, 186859, Note_on_c, 0, 53, 66
1, 186909, Note_off_c, 0, 53, 55
1, 186918, Note_on_c, 0, 50, 63
1, 186929, Note_on_c, 0, 68, 74
1, 186942, Note_off_c, 0, 60, 49
1, 186948, Control_c, 0, 64, 51
1, 186983, Note_off_c, 0, 50, 50
1, 187003, Note_on_c, 0, 53, 64
1, 187054, Note_off_c, 0, 53, 56
1, 187073, Note_on_c, 0, 46, 59
1, 187100, Note_on_c, 0, 62, 66
1, 187131, Note_off_c, 0, 68, 48
1, 187138, Note_on_c, 0, 50, 54
1, 187143, Note_off_c, 0, 46, 55
1, 187210, Note_off_c, 0, 50, 60
1, 187226, Note_on_c, 0, 53, 59
1, 187235, Note_on_c, 0, 65, 68
1, 187235, Note_off_c, 0, 62, 57
1, 187267, Note_off_c, 0, 53, 62
1, 187342, Note_off_c, 0, 65, 49
1, 187344, Note_on_c, 0, 56, 57
1, 187448, Note_on_c, 0, 51, 53
1, 187450, Note_on_c, 0, 39, 46
1, 187450, Note_on_c, 0, 63, 61
1, 187464, Note_off_c, 0, 56, 52
1, 187522, Note_off_c, 0, 63, 57
1, 187548, Note_on_c, 0, 55, 66
1, 187636, Note_on_c, 0, 58, 63
1, 187652, Note_off_c, 0, 55, 50
1, 187657, Note_off_c, 0, 51, 57
1, 187672, Note_off_c, 0, 39, 53
1, 187695, Note_on_c, 0, 56, 77
1, 187707, Note_off_c, 0, 58, 57
1, 187779, Note_on_c, 0, 55, 74
1, 187779, Note_off_c, 0, 56, 61
1, 187852, Note_on_c, 0, 56, 71
1, 187854, Note_off_c, 0, 55, 58
1, 187904, Control_c, 0, 64, 50
1, 187922, Note_on_c, 0, 58, 78
1, 187937, Note_off_c, 0, 56, 61
1, 187984, Note_off_c, 0, 58, 58
1, 187996, Note_on_c, 0, 60, 76
1, 188023, Control_c, 0, 64, 50
1, 188068, Control_c, 0, 64, 49
1, 188075, Note_on_c, 0, 62, 75
1, 188078, Note_off_c, 0, 60, 56
1, 188160, Note_on_c, 0, 63, 71
1, 188167, Note_off_c, 0, 62, 57
1, 188232, Note_on_c, 0, 62, 74
1, 188248, Note_off_c, 0, 63, 59
1, 188296, Control_c, 0, 64, 49
1, 188303, Note_on_c, 0, 65, 64
1, 188318, Note_off_c, 0, 62, 51
1, 188342, Note_on_c, 0, 63, 73
1, 188374, Note_off_c, 0, 65, 59
1, 188405, Note_on_c, 0, 67, 74
1, 188408, Note_off_c, 0, 63, 61
1, 188454, Note_on_c, 0, 65, 66
1, 188494, Note_off_c, 0, 67, 61
1, 188519, Note_on_c, 0, 63, 79
1, 188545, Note_off_c, 0, 65, 59
1, 188569, Note_on_c, 0, 62, 77
1, 188591, Note_off_c, 0, 63, 60
1, 188627, Note_off_c, 0, 62, 59
1, 188628, Note_on_c, 0, 60, 74
1, 188698, Note_on_c, 0, 58, 75
1, 188700, Note_off_c, 0, 60, 55
1, 188762, Note_off_c, 0, 58, 59
1, 188765, Note_on_c, 0, 60, 64
1, 188829, Note_on_c, 0, 56, 62
1, 188841, Note_off_c, 0, 60, 56
1, 188921, Note_off_c, 0, 56, 59
1, 188923, Note_on_c, 0, 55, 60
1, 189002, Note_on_c, 0, 58, 62
1, 189007, Note_off_c, 0, 55, 54
1, 189070, Note_on_c, 0, 56, 66
1, 189075, Note_off_c, 0, 58, 57
1, 189138, Note_off_c, 0, 56, 60
1, 189156, Note_on_c, 0, 55, 60
1, 189218, Note_off_c, 0, 55, 54
1, 189232, Note_on_c, 0, 56, 61
1, 189297, Note_on_c, 0, 58, 70
1, 189305, Note_off_c, 0, 56, 61
1, 189341, Note_off_c, 0, 58, 56
1, 189375, Note_on_c, 0, 60, 62
1, 189437, Note_off_c, 0, 60, 48
1, 189448, Note_on_c, 0, 62, 65
1, 189511, Note_off_c, 0, 62, 56
1, 189520, Note_on_c, 0, 63, 63
1, 189579, Note_off_c, 0, 63, 55
1, 189588, Note_on_c, 0, 62, 64
1, 189638, Note_off_c, 0, 62, 58
1, 189670, Note_on_c, 0, 60, 62
1, 189740, Note_on_c, 0, 58, 67
1, 189740, Note_off_c, 0, 60, 58
1, 189797, Note_off_c, 0, 58, 55
1, 189816, Note_on_c, 0, 60, 67
1, 189877, Note_off_c, 0, 60, 52
1, 189892, Note_on_c, 0, 62, 69
1, 189966, Note_on_c, 0, 63, 68
1, 189971, Note_off_c, 0, 62, 58
1, 190037, Note_off_c, 0, 63, 60
1, 190043, Note_on_c, 0, 65, 65
1, 190114, Note_off_c, 0, 65, 61
1, 190121, Note_on_c, 0, 67, 66
1, 190188, Note_on_c, 0, 65, 59
1, 190193, Note_off_c, 0, 67, 60
1, 190257, Note_on_c, 0, 63, 64
1, 190271, Note_off_c, 0, 65, 59
1, 190321, Note_off_c, 0, 63, 61
1, 190327, Note_on_c, 0, 62, 73
1, 190406, Note_on_c, 0, 63, 70
1, 190423, Note_off_c, 0, 62, 55
1, 190473, Note_off_c, 0, 63, 59
1, 190481, Note_on_c, 0, 65, 76
1, 190484, Control_c, 0, 64, 48
1, 190565, Note_off_c, 0, 65, 39
1, 190566, Note_on_c, 0, 67, 74
1, 190643, Note_on_c, 0, 68, 72
1, 190652, Note_off_c, 0, 67, 60
1, 190730, Note_off_c, 0, 68, 58
1, 190731, Note_on_c, 0, 72, 71
1, 190809, Note_on_c, 0, 70, 73
1, 190825, Note_off_c, 0, 72, 60
1, 190888, Note_on_c, 0, 68, 71
1, 190904, Note_off_c, 0, 70, 59
1, 190952, Note_off_c, 0, 68, 59
1, 190955, Note_on_c, 0, 67, 75
1, 191032, Note_on_c, 0, 68, 75
1, 191049, Note_off_c, 0, 67, 59
1, 191102, Note_on_c, 0, 70, 78
1, 191113, Note_off_c, 0, 68, 58
1, 191139, Note_off_c, 0, 70, 63
1, 191183, Note_on_c, 0, 72, 78
1, 191257, Note_off_c, 0, 72, 55
1, 191263, Note_on_c, 0, 74, 82
1, 191339, Note_on_c, 0, 75, 83
1, 191343, Note_off_c, 0, 74, 60
1, 191412, Note_on_c, 0, 74, 81
1, 191416, Note_off_c, 0, 75, 62
1, 191476, Note_off_c, 0, 74, 61
1, 191484, Note_on_c, 0, 72, 75
1, 191550, Note_off_c, 0, 72, 59
1, 191559, Note_on_c, 0, 70, 77
1, 191624, Note_off_c, 0, 70, 59
1, 191627, Note_on_c, 0, 72, 81
1, 191699, Note_on_c, 0, 74, 90
1, 191702, Note_off_c, 0, 72, 50
1, 191778, Note_on_c, 0, 75, 83
1, 191809, Note_off_c, 0, 74, 60
1, 191858, Note_on_c, 0, 77, 74
1, 191865, Note_off_c, 0, 75, 64
1, 191934, Note_on_c, 0, 79, 84
1, 191948, Note_off_c, 0, 77, 60
1, 192016, Note_on_c, 0, 77, 78
1, 192052, Note_off_c, 0, 79, 62
1, 192086, Note_on_c, 0, 75, 85
1, 192110, Note_off_c, 0, 77, 57
1, 192162, Note_on_c, 0, 74, 91
1, 192165, Note_off_c, 0, 75, 61
1, 192234, Note_on_c, 0, 75, 86
1, 192259, Note_off_c, 0, 74, 62
1, 192297, Note_off_c, 0, 75, 61
1, 192310, Note_on_c, 0, 77, 89
1, 192381, Note_on_c, 0, 79, 90
1, 192392, Note_off_c, 0, 77, 54
1, 192458, Note_on_c, 0, 80, 87
1, 192487, Note_off_c, 0, 79, 62
1, 192539, Note_on_c, 0, 84, 85
1, 192547, Note_off_c, 0, 80, 63
1, 192616, Note_on_c, 0, 82, 79
1, 192664, Note_off_c, 0, 84, 60
1, 192706, Note_on_c, 0, 80, 72
1, 192740, Note_off_c, 0, 82, 61
1, 192783, Note_on_c, 0, 79, 69
1, 192786, Note_off_c, 0, 80, 61
1, 192849, Control_c, 0, 64, 49
1, 192885, Note_on_c, 0, 82, 71
1, 192945, Note_off_c, 0, 79, 37
1, 193008, Note_on_c, 0, 80, 70
1, 193034, Note_off_c, 0, 82, 57
1, 193086, Note_off_c, 0, 80, 58
1, 193092, Note_on_c, 0, 79, 75
1, 193174, Note_on_c, 0, 80, 80
1, 193175, Control_c, 0, 64, 48
1, 193190, Control_c, 0, 64, 47
1, 193204, Note_off_c, 0, 79, 60
1, 193204, Control_c, 0, 64, 46
1, 193219, Control_c, 0, 64, 45
1, 193234, Control_c, 0, 64, 44
1, 193244, Note_on_c, 0, 82, 81
1, 193249, Control_c, 0, 64, 44
1, 193264, Control_c, 0, 64, 43
1, 193266, Note_off_c, 0, 80, 60
1, 193278, Control_c, 0, 64, 43
1, 193306, Note_off_c, 0, 82, 64
1, 193320, Note_on_c, 0, 84, 82
1, 193421, Note_on_c, 0, 86, 85
1, 193436, Note_off_c, 0, 84, 59
1, 193480, Control_c, 0, 64, 41
1, 193495, Control_c, 0, 64, 35
1, 193499, Note_on_c, 0, 55, 44
1, 193508, Control_c, 0, 64, 27
1, 193516, Note_on_c, 0, 87, 95
1, 193523, Control_c, 0, 64, 25
1, 193538, Control_c, 0, 64, 30
1, 193541, Note_off_c, 0, 86, 61
1, 193553, Control_c, 0, 64, 52
1, 193568, Control_c, 0, 64, 69
1, 193576, Note_off_c, 0, 55, 50
1, 193583, Control_c, 0, 64, 92
1, 193597, Note_on_c, 0, 63, 57
1, 193597, Control_c, 0, 64, 127
1, 193646, Note_off_c, 0, 63, 52
1, 193666, Note_on_c, 0, 58, 62
1, 193717, Note_off_c, 0, 58, 53
1, 193756, Note_on_c, 0, 63, 70
1, 193775, Control_c, 0, 64, 88
1, 193790, Control_c, 0, 64, 66
1, 193793, Note_off_c, 0, 63, 59
1, 193805, Control_c, 0, 64, 44
1, 193820, Control_c, 0, 64, 0
1, 193821, Note_off_c, 0, 87, 38
1, 193829, Note_on_c, 0, 55, 53
1, 193908, Note_on_c, 0, 63, 57
1, 193908, Note_off_c, 0, 55, 37
1, 193957, Note_off_c, 0, 63, 60
1, 193970, Note_on_c, 0, 86, 73
1, 193992, Note_on_c, 0, 58, 48
1, 194021, Note_off_c, 0, 86, 55
1, 194036, Note_off_c, 0, 58, 61
1, 194042, Note_on_c, 0, 87, 76
1, 194074, Note_on_c, 0, 63, 56
1, 194092, Note_off_c, 0, 87, 60
1, 194097, Note_off_c, 0, 63, 62
1, 194121, Note_on_c, 0, 86, 80
1, 194140, Note_on_c, 0, 55, 56
1, 194181, Note_off_c, 0, 55, 61
1, 194209, Note_on_c, 0, 87, 78
1, 194212, Note_off_c, 0, 86, 32
1, 194213, Note_on_c, 0, 63, 46
1, 194251, Note_off_c, 0, 63, 57
1, 194265, Note_off_c, 0, 87, 62
1, 194268, Note_on_c, 0, 89, 70
1, 194288, Note_on_c, 0, 58, 50
1, 194326, Note_off_c, 0, 58, 60
1, 194357, Note_off_c, 0, 89, 59
1, 194358, Note_on_c, 0, 87, 76
1, 194363, Note_on_c, 0, 63, 55
1, 194390, Control_c, 0, 64, 34
1, 194405, Control_c, 0, 64, 63
1, 194405, Note_off_c, 0, 63, 56
1, 194420, Control_c, 0, 64, 80
1, 194420, Note_off_c, 0, 87, 60
1, 194433, Note_on_c, 0, 82, 85
1, 194435, Control_c, 0, 64, 115
1, 194446, Note_on_c, 0, 55, 59
1, 194449, Control_c, 0, 64, 127
1, 194484, Note_off_c, 0, 55, 58
1, 194519, Note_on_c, 0, 63, 59
1, 194553, Control_c, 0, 64, 116
1, 194555, Note_off_c, 0, 63, 61
1, 194568, Control_c, 0, 64, 89
1, 194582, Control_c, 0, 64, 72
1, 194593, Note_on_c, 0, 58, 49
1, 194597, Control_c, 0, 64, 60
1, 194612, Control_c, 0, 64, 49
1, 194627, Control_c, 0, 64, 44
1, 194638, Note_off_c, 0, 58, 58
1, 194642, Control_c, 0, 64, 43
1, 194654, Note_off_c, 0, 82, 56
1, 194671, Control_c, 0, 64, 42
1, 194674, Note_on_c, 0, 63, 57
1, 194686, Control_c, 0, 64, 41
1, 194700, Control_c, 0, 64, 39
1, 194708, Note_off_c, 0, 63, 62
1, 194715, Control_c, 0, 64, 37
1, 194730, Control_c, 0, 64, 35
1, 194742, Note_on_c, 0, 55, 57
1, 194745, Control_c, 0, 64, 34
1, 194775, Note_off_c, 0, 55, 62
1, 194790, Control_c, 0, 64, 34
1, 194825, Note_on_c, 0, 63, 50
1, 194854, Note_off_c, 0, 63, 55
1, 194905, Note_on_c, 0, 81, 69
1, 194909, Note_on_c, 0, 58, 47
1, 194951, Note_off_c, 0, 58, 55
1, 194972, Note_off_c, 0, 81, 49
1, 194978, Note_on_c, 0, 63, 47
1, 194982, Note_on_c, 0, 82, 72
1, 195015, Note_off_c, 0, 63, 62
1, 195035, Note_off_c, 0, 82, 51
1, 195051, Note_on_c, 0, 84, 83
1, 195053, Note_on_c, 0, 55, 59
1, 195096, Note_off_c, 0, 55, 57
1, 195130, Note_on_c, 0, 82, 81
1, 195130, Note_off_c, 0, 84, 60
1, 195139, Note_on_c, 0, 63, 49
1, 195165, Note_off_c, 0, 63, 59
1, 195203, Note_on_c, 0, 58, 53
1, 195207, Note_off_c, 0, 82, 59
1, 195211, Note_on_c, 0, 80, 70
1, 195244, Note_off_c, 0, 58, 61
1, 195255, Note_off_c, 0, 80, 58
1, 195283, Note_on_c, 0, 63, 42
1, 195285, Note_on_c, 0, 79, 71
1, 195322, Note_off_c, 0, 63, 59
1, 195323, Note_off_c, 0, 79, 57
1, 195372, Note_on_c, 0, 56, 56
1, 195372, Note_on_c, 0, 83, 89
1, 195407, Note_off_c, 0, 56, 63
1, 195446, Note_on_c, 0, 84, 79
1, 195446, Note_off_c, 0, 83, 61
1, 195453, Note_on_c, 0, 63, 47
1, 195487, Note_off_c, 0, 63, 59
1, 195519, Note_on_c, 0, 60, 55
1, 195526, Note_on_c, 0, 83, 85
1, 195526, Note_off_c, 0, 84, 56
1, 195570, Note_off_c, 0, 60, 57
1, 195596, Note_on_c, 0, 84, 75
1, 195596, Note_off_c, 0, 83, 62
1, 195608, Note_on_c, 0, 63, 51
1, 195613, Control_c, 0, 64, 33
1, 195628, Control_c, 0, 64, 33
1, 195649, Note_off_c, 0, 63, 62
1, 195650, Control_c, 0, 64, 31
1, 195665, Control_c, 0, 64, 29
1, 195678, Note_on_c, 0, 56, 57
1, 195680, Control_c, 0, 64, 27
1, 195681, Note_on_c, 0, 83, 91
1, 195693, Note_off_c, 0, 84, 60
1, 195695, Control_c, 0, 64, 26
1, 195710, Control_c, 0, 64, 25
1, 195712, Note_off_c, 0, 56, 64
1, 195726, Control_c, 0, 64, 23
1, 195741, Control_c, 0, 64, 21
1, 195752, Note_on_c, 0, 84, 75
1, 195753, Note_off_c, 0, 83, 62
1, 195755, Control_c, 0, 64, 19
1, 195755, Control_c, 0, 67, 17
1, 195770, Control_c, 0, 64, 16
1, 195770, Control_c, 0, 67, 23
1, 195772, Note_on_c, 0, 63, 50
1, 195785, Control_c, 0, 67, 26
1, 195799, Note_off_c, 0, 63, 58
1, 195800, Control_c, 0, 67, 28
1, 195815, Control_c, 0, 67, 29
1, 195829, Control_c, 0, 67, 29
1, 195833, Note_on_c, 0, 60, 53
1, 195839, Note_off_c, 0, 84, 57
1, 195841, Note_on_c, 0, 83, 81
1, 195844, Control_c, 0, 67, 30
1, 195859, Control_c, 0, 67, 31
1, 195873, Control_c, 0, 67, 33
1, 195877, Note_off_c, 0, 60, 58
1, 195888, Control_c, 0, 67, 35
1, 195902, Note_off_c, 0, 83, 62
1, 195903, Control_c, 0, 67, 37
1, 195907, Note_on_c, 0, 84, 67
1, 195911, Note_on_c, 0, 63, 52
1, 195918, Control_c, 0, 67, 40
1, 195933, Control_c, 0, 64, 0
1, 195933, Control_c, 0, 67, 41
1, 195947, Control_c, 0, 67, 41
1, 195949, Note_off_c, 0, 63, 58
1, 195963, Note_off_c, 0, 84, 58
1, 195991, Note_on_c, 0, 79, 72
1, 195995, Note_on_c, 0, 56, 51
1, 196027, Note_off_c, 0, 56, 63
1, 196036, Control_c, 0, 67, 41
1, 196051, Control_c, 0, 67, 40
1, 196057, Note_off_c, 0, 79, 60
1, 196065, Note_on_c, 0, 80, 67
1, 196066, Control_c, 0, 67, 40
1, 196072, Note_on_c, 0, 64, 51
1, 196081, Control_c, 0, 67, 39
1, 196095, Control_c, 0, 67, 39
1, 196110, Control_c, 0, 67, 38
1, 196113, Note_off_c, 0, 64, 60
1, 196125, Note_off_c, 0, 80, 56
1, 196125, Control_c, 0, 67, 38
1, 196137, Note_on_c, 0, 60, 57
1, 196140, Control_c, 0, 67, 37
1, 196150, Note_on_c, 0, 79, 60
1, 196185, Control_c, 0, 67, 37
1, 196194, Note_off_c, 0, 79, 59
1, 196196, Note_off_c, 0, 60, 52
1, 196214, Note_on_c, 0, 80, 57
1, 196214, Control_c, 0, 67, 36
1, 196235, Note_on_c, 0, 64, 56
1, 196242, Note_off_c, 0, 80, 63
1, 196244, Control_c, 0, 67, 36
1, 196267, Note_off_c, 0, 64, 63
1, 196273, Control_c, 0, 67, 35
1, 196303, Note_on_c, 0, 76, 67
1, 196316, Note_on_c, 0, 56, 43
1, 196346, Note_off_c, 0, 56, 57
1, 196366, Note_off_c, 0, 76, 55
1, 196376, Note_on_c, 0, 77, 61
1, 196377, Control_c, 0, 67, 35
1, 196399, Control_c, 0, 67, 34
1, 196402, Note_on_c, 0, 65, 44
1, 196414, Control_c, 0, 67, 34
1, 196429, Control_c, 0, 67, 33
1, 196439, Note_off_c, 0, 65, 56
1, 196444, Control_c, 0, 67, 32
1, 196448, Note_off_c, 0, 77, 58
1, 196459, Control_c, 0, 67, 31
1, 196468, Note_on_c, 0, 60, 48
1, 196468, Note_on_c, 0, 76, 62
1, 196473, Control_c, 0, 67, 38
1, 196488, Control_c, 0, 67, 37
1, 196512, Note_off_c, 0, 76, 56
1, 196516, Note_off_c, 0, 60, 57
1, 196518, Control_c, 0, 67, 37
1, 196534, Control_c, 0, 67, 35
1, 196546, Note_on_c, 0, 77, 58
1, 196549, Control_c, 0, 67, 34
1, 196551, Note_on_c, 0, 65, 57
1, 196563, Control_c, 0, 67, 33
1, 196564, Note_off_c, 0, 77, 63
1, 196578, Control_c, 0, 67, 33
1, 196594, Note_off_c, 0, 65, 60
1, 196608, Control_c, 0, 67, 32
1, 196623, Control_c, 0, 67, 32
1, 196637, Note_on_c, 0, 56, 51
1, 196638, Control_c, 0, 67, 31
1, 196652, Control_c, 0, 67, 31
1, 196667, Control_c, 0, 67, 30
1, 196674, Note_off_c, 0, 56, 64
1, 196682, Control_c, 0, 67, 29
1, 196696, Control_c, 0, 67, 27
1, 196710, Note_on_c, 0, 65, 59
1, 196711, Control_c, 0, 67, 25
1, 196726, Control_c, 0, 67, 23
1, 196741, Control_c, 0, 67, 21
1, 196754, Note_off_c, 0, 65, 56
1, 196756, Control_c, 0, 67, 20
1, 196771, Control_c, 0, 67, 18
1, 196774, Note_on_c, 0, 60, 51
1, 196785, Control_c, 0, 67, 18
1, 196800, Control_c, 0, 67, 17
1, 196829, Note_off_c, 0, 60, 53
1, 196830, Control_c, 0, 67, 17
1, 196859, Control_c, 0, 67, 16
1, 196861, Note_on_c, 0, 65, 64
1, 196894, Note_off_c, 0, 65, 60
1, 196933, Control_c, 0, 67, 0
1, 196937, Note_on_c, 0, 57, 55
1, 196972, Note_off_c, 0, 57, 62
1, 197004, Note_on_c, 0, 65, 62
1, 197053, Note_off_c, 0, 65, 59
1, 197082, Note_on_c, 0, 77, 71
1, 197090, Note_on_c, 0, 63, 53
1, 197106, Note_off_c, 0, 77, 66
1, 197129, Note_off_c, 0, 63, 60
1, 197181, Note_on_c, 0, 65, 58
1, 197221, Note_off_c, 0, 65, 59
1, 197252, Control_c, 0, 64, 25
1, 197262, Note_on_c, 0, 80, 75
1, 197263, Note_on_c, 0, 58, 57
1, 197267, Control_c, 0, 64, 54
1, 197282, Control_c, 0, 64, 71
1, 197296, Control_c, 0, 64, 87
1, 197303, Note_off_c, 0, 58, 60
1, 197311, Control_c, 0, 64, 127
1, 197353, Note_on_c, 0, 65, 50
1, 197418, Note_off_c, 0, 65, 47
1, 197420, Note_on_c, 0, 62, 62
1, 197445, Control_c, 0, 64, 103
1, 197460, Control_c, 0, 64, 82
1, 197475, Control_c, 0, 64, 66
1, 197476, Note_off_c, 0, 62, 56
1, 197490, Control_c, 0, 64, 55
1, 197505, Control_c, 0, 64, 47
1, 197511, Note_on_c, 0, 65, 64
1, 197519, Control_c, 0, 64, 46
1, 197541, Note_off_c, 0, 65, 62
1, 197564, Control_c, 0, 64, 46
1, 197579, Control_c, 0, 64, 45
1, 197588, Note_on_c, 0, 53, 62
1, 197630, Note_off_c, 0, 53, 59
1, 197638, Control_c, 0, 64, 45
1, 197673, Note_on_c, 0, 62, 55
1, 197714, Note_off_c, 0, 62, 56
1, 197734, Note_off_c, 0, 80, 59
1, 197738, Note_on_c, 0, 58, 57
1, 197765, Note_on_c, 0, 79, 59
1, 197786, Note_off_c, 0, 58, 58
1, 197821, Note_on_c, 0, 62, 64
1, 197836, Note_on_c, 0, 80, 72
1, 197849, Note_off_c, 0, 62, 63
1, 197858, Note_off_c, 0, 79, 57
1, 197899, Note_on_c, 0, 50, 58
1, 197903, Note_off_c, 0, 80, 60
1, 197910, Note_on_c, 0, 82, 72
1, 197935, Note_off_c, 0, 50, 61
1, 197976, Note_on_c, 0, 80, 72
1, 197990, Note_on_c, 0, 58, 57
1, 197992, Note_off_c, 0, 82, 62
1, 198030, Note_off_c, 0, 58, 61
1, 198048, Note_on_c, 0, 53, 65
1, 198057, Note_off_c, 0, 80, 61
1, 198059, Note_on_c, 0, 79, 77
1, 198095, Note_off_c, 0, 53, 55
1, 198125, Note_off_c, 0, 79, 61
1, 198129, Note_on_c, 0, 58, 67
1, 198137, Note_on_c, 0, 77, 74
1, 198158, Note_off_c, 0, 58, 63
1, 198208, Note_on_c, 0, 46, 62
1, 198210, Note_off_c, 0, 77, 54
1, 198218, Note_on_c, 0, 75, 81
1, 198246, Note_off_c, 0, 46, 57
1, 198276, Note_on_c, 0, 56, 54
1, 198295, Note_on_c, 0, 74, 79
1, 198303, Note_off_c, 0, 75, 61
1, 198319, Note_off_c, 0, 56, 61
1, 198357, Note_on_c, 0, 53, 65
1, 198366, Note_off_c, 0, 74, 59
1, 198378, Note_on_c, 0, 79, 75
1, 198409, Note_off_c, 0, 53, 52
1, 198430, Note_on_c, 0, 56, 68
1, 198441, Note_on_c, 0, 77, 74
1, 198465, Note_off_c, 0, 56, 64
1, 198469, Note_off_c, 0, 79, 61
1, 198502, Note_on_c, 0, 46, 65
1, 198526, Note_on_c, 0, 75, 83
1, 198545, Note_off_c, 0, 77, 61
1, 198546, Note_off_c, 0, 46, 55
1, 198580, Note_on_c, 0, 56, 68
1, 198604, Note_on_c, 0, 74, 81
1, 198610, Note_off_c, 0, 75, 62
1, 198619, Note_off_c, 0, 56, 60
1, 198657, Note_on_c, 0, 53, 70
1, 198672, Note_on_c, 0, 72, 76
1, 198674, Note_off_c, 0, 74, 61
1, 198715, Note_off_c, 0, 53, 51
1, 198726, Note_off_c, 0, 72, 61
1, 198734, Note_on_c, 0, 56, 74
1, 198754, Note_on_c, 0, 70, 81
1, 198783, Note_off_c, 0, 56, 58
1, 198799, Note_on_c, 0, 47, 67
1, 198823, Note_on_c, 0, 68, 83
1, 198840, Note_off_c, 0, 70, 61
1, 198886, Note_off_c, 0, 68, 59
1, 198889, Note_on_c, 0, 56, 64
1, 198893, Note_on_c, 0, 67, 80
1, 198894, Note_off_c, 0, 47, 49
1, 198939, Note_off_c, 0, 56, 55
1, 198940, Note_off_c, 0, 67, 55
1, 198950, Note_on_c, 0, 53, 67
1, 198952, Note_on_c, 0, 68, 73
1, 199027, Note_off_c, 0, 68, 61
1, 199029, Note_on_c, 0, 65, 76
1, 199048, Note_on_c, 0, 56, 69
1, 199082, Note_off_c, 0, 56, 64
1, 199136, Note_on_c, 0, 48, 58
1, 199136, Note_off_c, 0, 53, 40
1, 199177, Note_off_c, 0, 48, 63
1, 199222, Note_off_c, 0, 65, 61
1, 199225, Note_on_c, 0, 55, 59
1, 199231, Note_on_c, 0, 63, 68
1, 199268, Note_off_c, 0, 55, 56
1, 199275, Note_on_c, 0, 67, 77
1, 199288, Note_on_c, 0, 51, 59
1, 199297, Note_off_c, 0, 63, 61
1, 199336, Note_off_c, 0, 51, 58
1, 199373, Note_on_c, 0, 55, 63
1, 199419, Note_off_c, 0, 55, 60
1, 199465, Note_on_c, 0, 44, 63
1, 199492, Note_off_c, 0, 67, 59
1, 199519, Note_on_c, 0, 60, 69
1, 199523, Note_off_c, 0, 44, 48
1, 199528, Control_c, 0, 64, 44
1, 199532, Note_on_c, 0, 53, 66
1, 199586, Note_off_c, 0, 53, 54
1, 199599, Note_on_c, 0, 68, 83
1, 199603, Note_on_c, 0, 50, 66
1, 199613, Note_off_c, 0, 60, 54
1, 199671, Note_off_c, 0, 50, 59
1, 199692, Note_on_c, 0, 53, 62
1, 199729, Note_off_c, 0, 53, 60
1, 199762, Note_on_c, 0, 46, 57
1, 199812, Note_off_c, 0, 68, 35
1, 199823, Note_off_c, 0, 46, 55
1, 199828, Note_on_c, 0, 62, 62
1, 199832, Note_on_c, 0, 50, 50
1, 199871, Note_off_c, 0, 50, 61
1, 199896, Note_on_c, 0, 53, 53
1, 199903, Note_on_c, 0, 65, 67
1, 199929, Note_off_c, 0, 62, 55
1, 199932, Note_off_c, 0, 53, 62
1, 199975, Note_on_c, 0, 56, 64
1, 199997, Note_off_c, 0, 65, 56
1, 200049, Note_off_c, 0, 56, 57
1, 200069, Note_on_c, 0, 63, 68
1, 200069, Note_on_c, 0, 51, 45
1, 200126, Note_off_c, 0, 51, 53
1, 200144, Note_on_c, 0, 55, 64
1, 200152, Note_off_c, 0, 63, 58
1, 200173, Control_c, 0, 64, 44
1, 200233, Note_on_c, 0, 56, 58
1, 200284, Note_off_c, 0, 55, 34
1, 200310, Note_on_c, 0, 58, 61
1, 200314, Note_off_c, 0, 56, 61
1, 200321, Control_c, 0, 64, 43
1, 200362, Note_off_c, 0, 58, 57
1, 200377, Note_on_c, 0, 60, 76
1, 200451, Note_on_c, 0, 62, 80
1, 200454, Control_c, 0, 64, 43
1, 200459, Note_off_c, 0, 60, 54
1, 200499, Control_c, 0, 64, 42
1, 200515, Control_c, 0, 64, 42
1, 200530, Control_c, 0, 64, 41
1, 200536, Note_on_c, 0, 63, 82
1, 200544, Control_c, 0, 64, 40
1, 200559, Control_c, 0, 64, 40
1, 200560, Note_off_c, 0, 62, 58
1, 200574, Control_c, 0, 64, 39
1, 200588, Control_c, 0, 64, 37
1, 200603, Control_c, 0, 64, 35
1, 200609, Note_off_c, 0, 63, 59
1, 200612, Note_on_c, 0, 65, 86
1, 200618, Control_c, 0, 64, 33
1, 200633, Control_c, 0, 64, 32
1, 200648, Control_c, 0, 64, 32
1, 200662, Control_c, 0, 64, 31
1, 200691, Note_on_c, 0, 67, 81
1, 200695, Note_off_c, 0, 65, 58
1, 200722, Control_c, 0, 64, 31
1, 200737, Control_c, 0, 64, 30
1, 200752, Control_c, 0, 64, 29
1, 200767, Control_c, 0, 64, 27
1, 200772, Note_on_c, 0, 68, 80
1, 200781, Control_c, 0, 64, 24
1, 200794, Note_off_c, 0, 67, 61
1, 200796, Control_c, 0, 64, 21
1, 200811, Control_c, 0, 64, 16
1, 200826, Control_c, 0, 64, 0
1, 200852, Note_on_c, 0, 70, 74
1, 200858, Note_off_c, 0, 68, 62
1, 200945, Note_on_c, 0, 72, 74
1, 200949, Note_off_c, 0, 70, 60
1, 201043, Note_on_c, 0, 70, 75
1, 201112, Note_off_c, 0, 72, 38
1, 201188, Note_on_c, 0, 50, 48
1, 201194, Note_on_c, 0, 58, 52
1, 201202, Note_on_c, 0, 53, 43
1, 201230, Note_off_c, 0, 50, 61
1, 201232, Note_off_c, 0, 58, 62
1, 201237, Note_off_c, 0, 53, 55
1, 201353, Note_on_c, 0, 53, 57
1, 201356, Note_on_c, 0, 58, 68
1, 201357, Note_on_c, 0, 50, 56
1, 201379, Note_off_c, 0, 70, 60
1, 201385, Note_off_c, 0, 58, 62
1, 201391, Note_off_c, 0, 53, 63
1, 201392, Note_off_c, 0, 50, 64
1, 201502, Note_on_c, 0, 58, 70
1, 201506, Note_on_c, 0, 50, 50
1, 201509, Note_on_c, 0, 53, 57
1, 201533, Note_off_c, 0, 58, 62
1, 201542, Note_off_c, 0, 50, 63
1, 201545, Note_off_c, 0, 53, 63
1, 201667, Note_on_c, 0, 50, 58
1, 201667, Note_on_c, 0, 58, 75
1, 201671, Note_on_c, 0, 68, 86
1, 201699, Note_off_c, 0, 58, 64
1, 201700, Note_off_c, 0, 50, 62
1, 201740, Note_off_c, 0, 68, 58
1, 201741, Note_on_c, 0, 70, 77
1, 201800, Note_on_c, 0, 50, 52
1, 201808, Note_on_c, 0, 68, 69
1, 201811, Note_on_c, 0, 58, 55
1, 201814, Note_off_c, 0, 70, 60
1, 201825, Note_off_c, 0, 50, 59
1, 201834, Note_off_c, 0, 58, 59
1, 201869, Note_on_c, 0, 67, 68
1, 201870, Note_off_c, 0, 68, 58
1, 201911, Note_on_c, 0, 68, 55
1, 201911, Note_off_c, 0, 67, 62
1, 201964, Note_on_c, 0, 67, 81
1, 201980, Note_on_c, 0, 63, 37
1, 201983, Note_off_c, 0, 68, 60
1, 201990, Note_off_c, 0, 67, 65
1, 202006, Note_on_c, 0, 64, 43
1, 202022, Note_off_c, 0, 63, 46
1, 202032, Note_off_c, 0, 64, 54
1, 202054, Note_on_c, 0, 67, 67
1, 202128, Note_on_c, 0, 68, 67
1, 202141, Note_off_c, 0, 67, 51
1, 202200, Note_on_c, 0, 70, 71
1, 202207, Note_off_c, 0, 68, 58
1, 202264, Note_off_c, 0, 70, 60
1, 202290, Note_on_c, 0, 72, 75
1, 202362, Note_on_c, 0, 74, 84
1, 202375, Note_off_c, 0, 72, 58
1, 202450, Note_on_c, 0, 75, 83
1, 202473, Note_off_c, 0, 74, 61
1, 202513, Note_off_c, 0, 75, 62
1, 202527, Note_on_c, 0, 77, 83
1, 202604, Note_on_c, 0, 79, 85
1, 202613, Note_off_c, 0, 77, 57
1, 202683, Note_on_c, 0, 80, 85
1, 202699, Note_off_c, 0, 79, 63
1, 202761, Note_on_c, 0, 82, 80
1, 202773, Note_off_c, 0, 80, 62
1, 202842, Note_on_c, 0, 84, 74
1, 202847, Note_off_c, 0, 82, 63
1, 202930, Note_on_c, 0, 82, 87
1, 203011, Note_off_c, 0, 84, 54
1, 203090, Note_on_c, 0, 62, 55
1, 203096, Note_on_c, 0, 70, 62
1, 203103, Note_on_c, 0, 65, 58
1, 203147, Note_off_c, 0, 70, 60
1, 203148, Note_off_c, 0, 65, 58
1, 203150, Note_off_c, 0, 62, 58
1, 203268, Note_on_c, 0, 70, 69
1, 203279, Note_on_c, 0, 62, 57
1, 203279, Note_on_c, 0, 65, 54
1, 203312, Note_off_c, 0, 65, 63
1, 203312, Note_off_c, 0, 70, 56
1, 203313, Note_off_c, 0, 62, 63
1, 203400, Note_off_c, 0, 82, 54
1, 203415, Note_on_c, 0, 65, 53
1, 203419, Note_on_c, 0, 70, 70
1, 203423, Note_on_c, 0, 62, 57
1, 203456, Note_off_c, 0, 62, 62
1, 203458, Note_off_c, 0, 70, 53
1, 203462, Note_off_c, 0, 65, 56
1, 203569, Note_on_c, 0, 70, 68
1, 203580, Note_on_c, 0, 62, 50
1, 203586, Note_on_c, 0, 65, 52
1, 203588, Note_on_c, 0, 80, 72
1, 203609, Note_off_c, 0, 62, 55
1, 203610, Note_off_c, 0, 65, 61
1, 203612, Note_off_c, 0, 70, 56
1, 203628, Note_off_c, 0, 80, 54
1, 203645, Note_on_c, 0, 82, 74
1, 203697, Note_on_c, 0, 80, 71
1, 203703, Note_on_c, 0, 62, 56
1, 203706, Note_off_c, 0, 82, 63
1, 203720, Note_on_c, 0, 65, 35
1, 203732, Note_on_c, 0, 70, 46
1, 203739, Note_off_c, 0, 62, 62
1, 203751, Note_off_c, 0, 65, 49
1, 203755, Note_off_c, 0, 70, 56
1, 203756, Note_off_c, 0, 80, 60
1, 203761, Note_on_c, 0, 79, 71
1, 203810, Note_on_c, 0, 80, 67
1, 203811, Note_off_c, 0, 79, 56
1, 203882, Note_on_c, 0, 79, 69
1, 203893, Note_off_c, 0, 80, 62
1, 203920, Note_off_c, 0, 79, 62
1, 204042, Note_on_c, 0, 70, 60
1, 204058, Note_on_c, 0, 63, 41
1, 204060, Note_on_c, 0, 67, 36
1, 204070, Note_off_c, 0, 70, 62
1, 204084, Note_off_c, 0, 63, 54
1, 204089, Note_off_c, 0, 67, 33
1, 204192, Note_on_c, 0, 77, 64
1, 204242, Note_off_c, 0, 77, 54
1, 204262, Note_on_c, 0, 79, 66
1, 204326, Note_off_c, 0, 79, 60
1, 204327, Note_on_c, 0, 77, 57
1, 204342, Note_on_c, 0, 67, 53
1, 204366, Note_off_c, 0, 67, 60
1, 204367, Note_on_c, 0, 76, 67
1, 204369, Note_off_c, 0, 77, 56
1, 204418, Note_off_c, 0, 76, 59
1, 204430, Note_on_c, 0, 77, 60
1, 204485, Note_on_c, 0, 75, 73
1, 204502, Note_off_c, 0, 77, 59
1, 204540, Note_off_c, 0, 75, 61
1, 204663, Note_on_c, 0, 60, 52
1, 204674, Note_on_c, 0, 67, 49
1, 204679, Note_on_c, 0, 63, 53
1, 204697, Note_off_c, 0, 67, 58
1, 204698, Note_off_c, 0, 60, 62
1, 204709, Note_off_c, 0, 63, 63
1, 204822, Note_on_c, 0, 73, 64
1, 204862, Note_off_c, 0, 73, 56
1, 204892, Note_on_c, 0, 75, 60
1, 204941, Note_on_c, 0, 73, 68
1, 204948, Note_off_c, 0, 75, 59
1, 204959, Note_on_c, 0, 55, 43
1, 204967, Note_on_c, 0, 63, 51
1, 204987, Note_off_c, 0, 55, 55
1, 204991, Note_off_c, 0, 63, 59
1, 205000, Note_off_c, 0, 73, 62
1, 205006, Note_on_c, 0, 72, 64
1, 205044, Note_off_c, 0, 72, 58
1, 205051, Note_on_c, 0, 73, 62
1, 205107, Note_on_c, 0, 72, 71
1, 205123, Note_off_c, 0, 73, 62
1, 205149, Note_off_c, 0, 72, 62
1, 205277, Note_on_c, 0, 63, 52
1, 205277, Note_on_c, 0, 60, 53
1, 205279, Note_on_c, 0, 56, 46
1, 205301, Note_off_c, 0, 63, 60
1, 205302, Note_off_c, 0, 60, 58
1, 205307, Note_off_c, 0, 56, 59
1, 205444, Note_on_c, 0, 70, 67
1, 205493, Note_off_c, 0, 70, 51
1, 205521, Note_on_c, 0, 72, 65
1, 205573, Note_on_c, 0, 60, 59
1, 205578, Note_off_c, 0, 72, 61
1, 205582, Note_on_c, 0, 52, 47
1, 205583, Note_on_c, 0, 70, 67
1, 205605, Note_off_c, 0, 60, 60
1, 205610, Note_off_c, 0, 52, 56
1, 205625, Note_off_c, 0, 70, 61
1, 205642, Note_on_c, 0, 69, 63
1, 205674, Note_off_c, 0, 69, 62
1, 205681, Note_on_c, 0, 70, 65
1, 205747, Note_on_c, 0, 69, 71
1, 205751, Note_off_c, 0, 70, 61
1, 205768, Note_off_c, 0, 69, 70
1, 205904, Note_on_c, 0, 53, 56
1, 205906, Note_on_c, 0, 60, 53
1, 205910, Note_on_c, 0, 57, 54
1, 205930, Note_off_c, 0, 60, 57
1, 205931, Note_off_c, 0, 53, 58
1, 205934, Note_off_c, 0, 57, 59
1, 206070, Note_on_c, 0, 68, 68
1, 206120, Note_off_c, 0, 68, 49
1, 206144, Note_on_c, 0, 70, 66
1, 206206, Note_on_c, 0, 68, 57
1, 206209, Note_off_c, 0, 70, 60
1, 206218, Note_on_c, 0, 50, 47
1, 206221, Note_on_c, 0, 58, 53
1, 206245, Note_off_c, 0, 58, 58
1, 206245, Note_off_c, 0, 50, 55
1, 206255, Note_off_c, 0, 68, 58
1, 206260, Note_on_c, 0, 67, 63
1, 206294, Note_off_c, 0, 67, 60
1, 206301, Note_on_c, 0, 68, 55
1, 206371, Note_on_c, 0, 67, 80
1, 206376, Note_off_c, 0, 68, 61
1, 206405, Note_off_c, 0, 67, 63
1, 206531, Note_on_c, 0, 58, 62
1, 206537, Note_on_c, 0, 51, 48
1, 206546, Note_on_c, 0, 55, 37
1, 206552, Note_off_c, 0, 58, 62
1, 206564, Note_off_c, 0, 51, 57
1, 206579, Note_off_c, 0, 55, 50
1, 206688, Note_on_c, 0, 65, 80
1, 206753, Note_off_c, 0, 65, 59
1, 206760, Note_on_c, 0, 67, 70
1, 206820, Note_on_c, 0, 65, 66
1, 206830, Note_off_c, 0, 67, 61
1, 206836, Note_on_c, 0, 47, 63
1, 206846, Note_on_c, 0, 55, 52
1, 206864, Note_off_c, 0, 47, 65
1, 206868, Note_on_c, 0, 64, 69
1, 206871, Note_off_c, 0, 55, 58
1, 206882, Note_off_c, 0, 65, 59
1, 206922, Poly_aftertouch_c, 0, 65, 0
1, 206928, Note_off_c, 0, 64, 58
1, 206929, Note_on_c, 0, 65, 60
1, 206991, Note_on_c, 0, 63, 89
1, 207007, Note_off_c, 0, 65, 58
1, 207037, Note_off_c, 0, 63, 62
1, 207154, Note_on_c, 0, 55, 73
1, 207157, Note_on_c, 0, 48, 68
1, 207163, Note_on_c, 0, 51, 67
1, 207178, Note_off_c, 0, 55, 67
1, 207186, Note_off_c, 0, 48, 66
1, 207190, Note_off_c, 0, 51, 65
1, 207316, Note_on_c, 0, 61, 81
1, 207387, Note_off_c, 0, 61, 58
1, 207387, Note_on_c, 0, 63, 79
1, 207454, Note_on_c, 0, 61, 68
1, 207458, Note_on_c, 0, 51, 72
1, 207460, Note_on_c, 0, 43, 62
1, 207471, Note_off_c, 0, 63, 61
1, 207474, Note_on_c, 0, 46, 44
1, 207482, Note_off_c, 0, 51, 67
1, 207488, Note_off_c, 0, 43, 60
1, 207501, Note_on_c, 0, 60, 77
1, 207503, Note_off_c, 0, 46, 51
1, 207507, Note_off_c, 0, 61, 61
1, 207553, Note_on_c, 0, 61, 68
1, 207554, Note_off_c, 0, 60, 52
1, 207607, Note_on_c, 0, 60, 85
1, 207642, Note_off_c, 0, 61, 63
1, 207654, Note_off_c, 0, 60, 62
1, 207774, Note_on_c, 0, 51, 82
1, 207775, Note_on_c, 0, 44, 75
1, 207775, Note_on_c, 0, 48, 71
1, 207802, Note_off_c, 0, 51, 63
1, 207803, Note_off_c, 0, 48, 65
1, 207805, Note_off_c, 0, 44, 67
1, 207927, Note_on_c, 0, 58, 90
1, 208010, Note_on_c, 0, 60, 80
1, 208016, Note_off_c, 0, 58, 60
1, 208073, Note_on_c, 0, 40, 67
1, 208073, Note_on_c, 0, 48, 74
1, 208073, Note_on_c, 0, 58, 76
1, 208085, Note_off_c, 0, 60, 59
1, 208099, Note_off_c, 0, 40, 64
1, 208100, Note_off_c, 0, 48, 67
1, 208129, Note_on_c, 0, 57, 77
1, 208132, Note_off_c, 0, 58, 61
1, 208183, Note_on_c, 0, 58, 73
1, 208186, Note_off_c, 0, 57, 61
1, 208228, Note_on_c, 0, 57, 80
1, 208243, Note_off_c, 0, 58, 64
1, 208256, Note_off_c, 0, 57, 65
1, 208392, Note_on_c, 0, 45, 87
1, 208392, Note_on_c, 0, 41, 79
1, 208392, Note_on_c, 0, 48, 83
1, 208414, Note_off_c, 0, 48, 68
1, 208417, Note_off_c, 0, 41, 65
1, 208418, Note_off_c, 0, 45, 65
1, 208544, Note_on_c, 0, 56, 108
1, 208634, Note_on_c, 0, 58, 84
1, 208636, Note_off_c, 0, 56, 65
1, 208690, Note_on_c, 0, 38, 68
1, 208693, Note_on_c, 0, 46, 77
1, 208706, Note_on_c, 0, 56, 83
1, 208717, Note_off_c, 0, 46, 66
1, 208720, Note_off_c, 0, 38, 64
1, 208727, Note_off_c, 0, 58, 59
1, 208762, Note_off_c, 0, 56, 61
1, 208764, Note_on_c, 0, 55, 60
1, 208797, Note_on_c, 0, 56, 72
1, 208807, Note_off_c, 0, 55, 59
1, 208852, Note_on_c, 0, 55, 83
1, 208878, Note_off_c, 0, 56, 64
1, 208885, Note_off_c, 0, 55, 64
1, 208889, Note_on_c, 0, 53, 21
1, 208890, Note_off_c, 0, 53, 127
1, 209027, Note_on_c, 0, 46, 78
1, 209033, Note_on_c, 0, 39, 60
1, 209050, Note_off_c, 0, 46, 65
1, 209059, Note_off_c, 0, 39, 61
1, 209181, Note_on_c, 0, 68, 63
1, 209238, Note_off_c, 0, 68, 52
1, 209262, Note_on_c, 0, 70, 60
1, 209313, Note_off_c, 0, 70, 60
1, 209316, Note_on_c, 0, 68, 52
1, 209363, Note_on_c, 0, 38, 37
1, 209363, Note_on_c, 0, 46, 51
1, 209368, Note_off_c, 0, 68, 55
1, 209376, Note_on_c, 0, 67, 55
1, 209390, Note_off_c, 0, 46, 58
1, 209399, Note_off_c, 0, 38, 43
1, 209415, Note_off_c, 0, 67, 60
1, 209429, Note_on_c, 0, 68, 65
1, 209481, Note_on_c, 0, 67, 68
1, 209489, Note_off_c, 0, 68, 59
1, 209506, Note_off_c, 0, 67, 66
1, 209634, Note_on_c, 0, 46, 68
1, 209635, Note_on_c, 0, 39, 57
1, 209662, Note_off_c, 0, 46, 65
1, 209667, Note_off_c, 0, 39, 63
1, 209779, Note_on_c, 0, 56, 103
1, 209858, Note_on_c, 0, 58, 82
1, 209875, Note_off_c, 0, 56, 62
1, 209944, Note_on_c, 0, 56, 79
1, 209946, Note_on_c, 0, 46, 75
1, 209949, Note_on_c, 0, 38, 57
1, 209958, Note_off_c, 0, 58, 59
1, 209969, Note_off_c, 0, 46, 66
1, 209976, Note_off_c, 0, 38, 58
1, 210004, Note_off_c, 0, 56, 61
1, 210011, Note_on_c, 0, 55, 63
1, 210049, Note_on_c, 0, 56, 72
1, 210060, Note_off_c, 0, 55, 59
1, 210103, Note_on_c, 0, 55, 80
1, 210132, Note_off_c, 0, 56, 64
1, 210138, Note_off_c, 0, 55, 65
1, 210274, Note_on_c, 0, 46, 76
1, 210291, Note_on_c, 0, 39, 38
1, 210297, Note_off_c, 0, 46, 66
1, 210327, Note_off_c, 0, 39, 44
1, 210423, Note_on_c, 0, 68, 59
1, 210474, Note_off_c, 0, 68, 56
1, 210501, Note_on_c, 0, 70, 60
1, 210550, Note_off_c, 0, 70, 60
1, 210561, Note_on_c, 0, 68, 63
1, 210608, Note_off_c, 0, 68, 56
1, 210609, Note_on_c, 0, 46, 56
1, 210612, Note_on_c, 0, 38, 47
1, 210625, Note_on_c, 0, 67, 61
1, 210649, Note_off_c, 0, 38, 57
1, 210651, Note_off_c, 0, 46, 63
1, 210669, Note_off_c, 0, 67, 58
1, 210683, Note_on_c, 0, 68, 64
1, 210714, Control_c, 0, 64, 16
1, 210729, Control_c, 0, 64, 17
1, 210741, Note_on_c, 0, 67, 76
1, 210752, Note_off_c, 0, 68, 58
1, 210759, Control_c, 0, 64, 18
1, 210763, Note_off_c, 0, 67, 67
1, 210773, Control_c, 0, 64, 18
1, 210788, Control_c, 0, 64, 19
1, 210888, Note_on_c, 0, 46, 73
1, 210890, Note_on_c, 0, 39, 62
1, 210893, Control_c, 0, 64, 19
1, 210907, Note_on_c, 0, 43, 49
1, 210919, Note_off_c, 0, 39, 66
1, 210922, Note_off_c, 0, 46, 63
1, 210935, Note_off_c, 0, 43, 58
1, 211012, Control_c, 0, 64, 20
1, 211027, Control_c, 0, 64, 31
1, 211042, Control_c, 0, 64, 52
1, 211054, Note_on_c, 0, 56, 96
1, 211057, Control_c, 0, 64, 67
1, 211071, Control_c, 0, 64, 79
1, 211086, Control_c, 0, 64, 99
1, 211101, Control_c, 0, 64, 116
1, 211115, Control_c, 0, 64, 115
1, 211130, Control_c, 0, 64, 103
1, 211132, Note_on_c, 0, 58, 85
1, 211145, Control_c, 0, 64, 90
1, 211146, Note_off_c, 0, 56, 61
1, 211160, Control_c, 0, 64, 79
1, 211175, Control_c, 0, 64, 72
1, 211179, Note_on_c, 0, 38, 53
1, 211185, Note_on_c, 0, 46, 65
1, 211185, Note_on_c, 0, 43, 50
1, 211190, Control_c, 0, 64, 72
1, 211204, Control_c, 0, 64, 74
1, 211211, Note_on_c, 0, 56, 83
1, 211215, Note_off_c, 0, 46, 63
1, 211215, Note_off_c, 0, 38, 63
1, 211219, Control_c, 0, 64, 78
1, 211231, Note_off_c, 0, 43, 57
1, 211234, Control_c, 0, 64, 83
1, 211241, Note_off_c, 0, 58, 60
1, 211248, Control_c, 0, 64, 89
1, 211263, Control_c, 0, 64, 92
1, 211268, Note_on_c, 0, 55, 77
1, 211278, Control_c, 0, 64, 92
1, 211285, Note_off_c, 0, 56, 62
1, 211308, Control_c, 0, 64, 93
1, 211315, Note_off_c, 0, 55, 59
1, 211322, Control_c, 0, 64, 93
1, 211337, Control_c, 0, 64, 94
1, 211375, Control_c, 0, 64, 90
1, 211390, Control_c, 0, 64, 81
1, 211404, Control_c, 0, 64, 66
1, 211407, Note_on_c, 0, 46, 80
1, 211411, Note_on_c, 0, 39, 69
1, 211411, Note_on_c, 0, 55, 83
1, 211413, Note_on_c, 0, 43, 66
1, 211419, Control_c, 0, 64, 50
1, 211441, Note_off_c, 0, 43, 63
1, 211445, Note_off_c, 0, 39, 67
1, 211446, Note_off_c, 0, 46, 59
1, 211449, Control_c, 0, 64, 0
1, 211497, Note_off_c, 0, 55, 59
1, 211502, Note_on_c, 0, 51, 71
1, 211569, Note_off_c, 0, 51, 57
1, 211581, Note_on_c, 0, 46, 65
1, 211645, Note_off_c, 0, 46, 59
1, 211668, Note_on_c, 0, 51, 64
1, 211733, Note_on_c, 0, 55, 63
1, 211736, Note_off_c, 0, 51, 58
1, 211813, Note_off_c, 0, 55, 58
1, 211831, Note_on_c, 0, 51, 58
1, 211885, Note_off_c, 0, 51, 56
1, 211897, Note_on_c, 0, 58, 66
1, 211936, Note_off_c, 0, 58, 61
1, 211969, Note_on_c, 0, 55, 63
1, 212051, Note_on_c, 0, 63, 70
1, 212090, Note_off_c, 0, 55, 32
1, 212133, Note_off_c, 0, 63, 56
1, 212135, Note_on_c, 0, 58, 64
1, 212191, Note_off_c, 0, 58, 50
1, 212211, Note_on_c, 0, 67, 66
1, 212281, Note_off_c, 0, 67, 57
1, 212285, Note_on_c, 0, 63, 62
1, 212361, Note_on_c, 0, 58, 58
1, 212383, Note_off_c, 0, 63, 53
1, 212448, Note_on_c, 0, 55, 61
1, 212452, Note_off_c, 0, 58, 56
1, 212479, Control_c, 0, 64, 16
1, 212495, Control_c, 0, 64, 17
1, 212510, Control_c, 0, 64, 18
1, 212514, Note_on_c, 0, 63, 62
1, 212529, Note_off_c, 0, 55, 46
1, 212586, Note_on_c, 0, 58, 69
1, 212593, Note_off_c, 0, 63, 59
1, 212649, Note_off_c, 0, 58, 57
1, 212665, Note_on_c, 0, 67, 68
1, 212734, Note_on_c, 0, 63, 70
1, 212736, Note_off_c, 0, 67, 61
1, 212773, Note_off_c, 0, 63, 62
1, 212831, Note_on_c, 0, 70, 68
1, 212905, Note_on_c, 0, 67, 66
1, 212911, Note_off_c, 0, 70, 58
1, 212988, Note_on_c, 0, 63, 74
1, 212991, Note_off_c, 0, 67, 60
1, 213066, Note_on_c, 0, 58, 69
1, 213091, Note_off_c, 0, 63, 54
1, 213094, Control_c, 0, 64, 18
1, 213109, Control_c, 0, 64, 19
1, 213128, Note_off_c, 0, 58, 55
1, 213141, Note_on_c, 0, 67, 61
1, 213216, Note_on_c, 0, 63, 71
1, 213218, Note_off_c, 0, 67, 60
1, 213272, Control_c, 0, 64, 19
1, 213303, Control_c, 0, 64, 20
1, 213305, Note_off_c, 0, 63, 60
1, 213309, Note_on_c, 0, 70, 67
1, 213339, Note_off_c, 0, 70, 61
1, 213369, Note_on_c, 0, 67, 78
1, 213436, Note_off_c, 0, 67, 59
1, 213465, Note_on_c, 0, 75, 77
1, 213543, Note_on_c, 0, 70, 79
1, 213549, Note_off_c, 0, 75, 62
1, 213599, Control_c, 0, 64, 20
1, 213621, Control_c, 0, 64, 21
1, 213626, Note_on_c, 0, 67, 77
1, 213650, Note_off_c, 0, 70, 54
1, 213650, Control_c, 0, 64, 22
1, 213708, Note_on_c, 0, 63, 74
1, 213710, Control_c, 0, 64, 22
1, 213713, Note_off_c, 0, 67, 60
1, 213725, Control_c, 0, 64, 23
1, 213740, Note_off_c, 0, 63, 58
1, 213778, Note_on_c, 0, 70, 76
1, 213846, Note_off_c, 0, 70, 60
1, 213859, Note_on_c, 0, 67, 71
1, 213888, Control_c, 0, 64, 22
1, 213903, Control_c, 0, 64, 22
1, 213926, Note_off_c, 0, 67, 59
1, 213929, Note_on_c, 0, 75, 83
1, 213932, Control_c, 0, 64, 21
1, 214011, Note_on_c, 0, 70, 82
1, 214014, Note_off_c, 0, 75, 59
1, 214050, Control_c, 0, 64, 21
1, 214081, Note_off_c, 0, 70, 59
1, 214088, Note_on_c, 0, 79, 71
1, 214169, Note_on_c, 0, 75, 76
1, 214170, Control_c, 0, 64, 20
1, 214176, Note_off_c, 0, 79, 63
1, 214198, Note_off_c, 0, 75, 62
1, 214250, Note_on_c, 0, 82, 93
1, 214287, Note_off_c, 0, 82, 61
1, 214288, Control_c, 0, 64, 20
1, 214425, Note_on_c, 0, 58, 52
1, 214425, Note_on_c, 0, 70, 71
1, 214453, Note_off_c, 0, 70, 63
1, 214461, Note_off_c, 0, 58, 61
1, 214581, Note_on_c, 0, 75, 74
1, 214583, Note_on_c, 0, 63, 63
1, 214604, Note_off_c, 0, 63, 64
1, 214611, Note_off_c, 0, 75, 61
1, 214736, Note_on_c, 0, 79, 67
1, 214738, Note_on_c, 0, 67, 61
1, 214740, Control_c, 0, 64, 19
1, 214768, Note_off_c, 0, 67, 63
1, 214770, Control_c, 0, 64, 19
1, 214783, Note_off_c, 0, 79, 59
1, 214901, Note_on_c, 0, 82, 76
1, 214902, Note_on_c, 0, 70, 61
1, 214923, Note_off_c, 0, 82, 68
1, 214930, Note_off_c, 0, 70, 63
1, 214978, Control_c, 0, 64, 20
1, 214993, Control_c, 0, 64, 21
1, 215007, Control_c, 0, 64, 22
1, 215022, Control_c, 0, 64, 23
1, 215058, Note_on_c, 0, 58, 74
1, 215094, Note_off_c, 0, 58, 61
1, 215233, Note_on_c, 0, 63, 68
1, 215263, Note_off_c, 0, 63, 62
1, 215386, Note_on_c, 0, 67, 59
1, 215424, Note_off_c, 0, 67, 57
1, 215556, Note_on_c, 0, 70, 65
1, 215588, Note_off_c, 0, 70, 62
1, 215715, Note_on_c, 0, 34, 52
1, 215735, Note_on_c, 0, 46, 66
1, 215753, Note_off_c, 0, 34, 64
1, 215765, Note_off_c, 0, 46, 64
1, 215889, Note_on_c, 0, 39, 60
1, 215898, Note_on_c, 0, 51, 69
1, 215919, Note_off_c, 0, 39, 64
1, 215926, Note_off_c, 0, 51, 65
1, 216055, Note_on_c, 0, 43, 67
1, 216056, Note_on_c, 0, 55, 78
1, 216076, Control_c, 0, 64, 22
1, 216085, Note_off_c, 0, 43, 63
1, 216085, Note_off_c, 0, 55, 63
1, 216211, Note_on_c, 0, 46, 76
1, 216217, Note_on_c, 0, 58, 87
1, 216237, Note_off_c, 0, 46, 65
1, 216238, Control_c, 0, 64, 23
1, 216254, Note_off_c, 0, 58, 60
1, 216268, Control_c, 0, 64, 23
1, 216312, Control_c, 0, 64, 24
1, 216327, Control_c, 0, 64, 24
1, 216368, Note_on_c, 0, 51, 63
1, 216374, Note_on_c, 0, 63, 81
1, 216396, Note_off_c, 0, 51, 64
1, 216417, Note_off_c, 0, 63, 60
1, 216530, Note_on_c, 0, 55, 69
1, 216534, Note_on_c, 0, 67, 79
1, 216562, Note_off_c, 0, 67, 62
1, 216568, Note_off_c, 0, 55, 61
1, 216662, Control_c, 0, 64, 25
1, 216691, Control_c, 0, 64, 26
1, 216692, Note_on_c, 0, 70, 90
1, 216696, Note_on_c, 0, 58, 79
1, 216706, Control_c, 0, 64, 26
1, 216726, Note_off_c, 0, 58, 64
1, 216741, Note_off_c, 0, 70, 61
1, 216848, Note_on_c, 0, 75, 88
1, 216851, Note_on_c, 0, 63, 74
1, 216872, Note_off_c, 0, 63, 59
1, 216890, Note_off_c, 0, 75, 64
1, 216899, Control_c, 0, 64, 26
1, 216995, Note_on_c, 0, 79, 87
1, 217004, Note_on_c, 0, 67, 81
1, 217017, Control_c, 0, 64, 25
1, 217029, Note_off_c, 0, 79, 64
1, 217032, Control_c, 0, 64, 25
1, 217047, Control_c, 0, 64, 24
1, 217054, Note_off_c, 0, 67, 55
1, 217061, Control_c, 0, 64, 24
1, 217143, Note_on_c, 0, 82, 89
1, 217146, Note_on_c, 0, 70, 93
1, 217164, Note_off_c, 0, 82, 66
1, 217209, Control_c, 0, 64, 24
1, 217239, Control_c, 0, 64, 25
1, 217319, Note_on_c, 0, 81, 86
1, 217396, Control_c, 0, 64, 26
1, 217404, Note_off_c, 0, 70, 56
1, 217411, Control_c, 0, 64, 27
1, 217425, Control_c, 0, 64, 29
1, 217440, Control_c, 0, 64, 30
1, 217471, Note_on_c, 0, 84, 81
1, 217486, Note_off_c, 0, 81, 62
1, 217513, Note_off_c, 0, 84, 61
1, 217588, Control_c, 0, 64, 29
1, 217639, Note_on_c, 0, 82, 67
1, 217664, Note_off_c, 0, 82, 67
1, 217736, Control_c, 0, 64, 29
1, 217785, Note_on_c, 0, 80, 61
1, 217811, Note_off_c, 0, 80, 65
1, 217933, Note_on_c, 0, 79, 62
1, 217959, Note_off_c, 0, 79, 65
1, 218082, Note_on_c, 0, 77, 73
1, 218120, Note_off_c, 0, 77, 59
1, 218156, Note_on_c, 0, 79, 63
1, 218196, Note_off_c, 0, 79, 59
1, 218213, Note_on_c, 0, 77, 74
1, 218226, Note_on_c, 0, 58, 50
1, 218257, Note_off_c, 0, 77, 58
1, 218263, Note_off_c, 0, 58, 62
1, 218269, Note_on_c, 0, 79, 62
1, 218302, Note_off_c, 0, 79, 62
1, 218322, Note_on_c, 0, 77, 60
1, 218363, Note_off_c, 0, 77, 57
1, 218375, Note_on_c, 0, 62, 65
1, 218375, Note_on_c, 0, 79, 62
1, 218405, Note_off_c, 0, 62, 63
1, 218408, Note_off_c, 0, 79, 61
1, 218434, Note_on_c, 0, 77, 55
1, 218461, Note_off_c, 0, 77, 51
1, 218476, Note_on_c, 0, 79, 61
1, 218509, Note_off_c, 0, 79, 62
1, 218536, Note_on_c, 0, 77, 67
1, 218547, Note_on_c, 0, 65, 58
1, 218565, Note_off_c, 0, 77, 49
1, 218578, Note_off_c, 0, 65, 63
1, 218585, Note_on_c, 0, 79, 60
1, 218618, Note_off_c, 0, 79, 61
1, 218643, Note_on_c, 0, 77, 67
1, 218673, Note_off_c, 0, 77, 53
1, 218688, Note_on_c, 0, 79, 58
1, 218715, Note_on_c, 0, 68, 58
1, 218719, Note_off_c, 0, 79, 61
1, 218742, Note_off_c, 0, 68, 64
1, 218746, Note_on_c, 0, 77, 69
1, 218785, Note_off_c, 0, 77, 57
1, 218795, Note_on_c, 0, 79, 66
1, 218828, Note_off_c, 0, 79, 56
1, 218873, Note_on_c, 0, 77, 59
1, 218883, Note_on_c, 0, 46, 63
1, 218898, Note_off_c, 0, 77, 58
1, 218915, Note_on_c, 0, 79, 62
1, 218920, Note_off_c, 0, 46, 61
1, 218945, Note_off_c, 0, 79, 60
1, 218976, Note_on_c, 0, 77, 66
1, 219013, Note_off_c, 0, 77, 58
1, 219029, Note_on_c, 0, 79, 64
1, 219044, Note_on_c, 0, 50, 66
1, 219059, Note_off_c, 0, 79, 60
1, 219077, Note_off_c, 0, 50, 62
1, 219091, Note_on_c, 0, 77, 63
1, 219126, Note_off_c, 0, 77, 59
1, 219145, Note_on_c, 0, 79, 61
1, 219169, Note_off_c, 0, 79, 61
1, 219203, Note_on_c, 0, 53, 63
1, 219206, Note_on_c, 0, 77, 65
1, 219239, Note_off_c, 0, 77, 57
1, 219242, Note_off_c, 0, 53, 63
1, 219247, Note_on_c, 0, 79, 65
1, 219286, Note_off_c, 0, 79, 54
1, 219315, Note_on_c, 0, 77, 63
1, 219352, Note_off_c, 0, 77, 59
1, 219365, Note_on_c, 0, 79, 66
1, 219370, Note_on_c, 0, 56, 65
1, 219397, Note_off_c, 0, 56, 66
1, 219399, Note_off_c, 0, 79, 55
1, 219432, Note_on_c, 0, 77, 59
1, 219466, Note_off_c, 0, 77, 54
1, 219490, Note_on_c, 0, 79, 59
1, 219512, Note_off_c, 0, 79, 62
1, 219519, Note_on_c, 0, 47, 74
1, 219539, Note_on_c, 0, 77, 67
1, 219570, Note_off_c, 0, 47, 58
1, 219579, Note_off_c, 0, 77, 56
1, 219587, Note_on_c, 0, 79, 67
1, 219640, Note_off_c, 0, 79, 51
1, 219650, Note_on_c, 0, 77, 59
1, 219686, Note_on_c, 0, 50, 76
1, 219699, Note_on_c, 0, 79, 58
1, 219699, Note_off_c, 0, 77, 57
1, 219723, Note_off_c, 0, 50, 62
1, 219737, Note_off_c, 0, 79, 55
1, 219761, Note_on_c, 0, 77, 55
1, 219802, Note_off_c, 0, 77, 59
1, 219806, Note_on_c, 0, 79, 64
1, 219849, Note_off_c, 0, 79, 48
1, 219856, Note_on_c, 0, 53, 73
1, 219868, Note_on_c, 0, 77, 66
1, 219883, Note_off_c, 0, 53, 63
1, 219913, Note_off_c, 0, 77, 59
1, 219920, Note_on_c, 0, 79, 66
1, 219951, Note_off_c, 0, 79, 60
1, 219987, Note_on_c, 0, 77, 60
1, 220008, Note_off_c, 0, 77, 59
1, 220008, Note_on_c, 0, 56, 73
1, 220020, Note_on_c, 0, 79, 64
1, 220034, Note_off_c, 0, 56, 66
1, 220053, Note_off_c, 0, 79, 57
1, 220084, Note_on_c, 0, 77, 70
1, 220101, Control_c, 0, 64, 30
1, 220116, Control_c, 0, 64, 30
1, 220127, Note_off_c, 0, 77, 59
1, 220133, Note_on_c, 0, 79, 70
1, 220146, Control_c, 0, 64, 31
1, 220160, Control_c, 0, 64, 31
1, 220165, Note_on_c, 0, 46, 66
1, 220175, Control_c, 0, 64, 33
1, 220180, Note_off_c, 0, 79, 48
1, 220190, Control_c, 0, 64, 33
1, 220204, Note_on_c, 0, 77, 66
1, 220205, Control_c, 0, 64, 34
1, 220232, Note_off_c, 0, 46, 56
1, 220235, Control_c, 0, 64, 34
1, 220244, Note_off_c, 0, 77, 60
1, 220252, Note_on_c, 0, 79, 69
1, 220265, Control_c, 0, 64, 35
1, 220315, Note_off_c, 0, 79, 53
1, 220316, Note_on_c, 0, 50, 72
1, 220327, Note_on_c, 0, 77, 69
1, 220360, Control_c, 0, 64, 35
1, 220363, Note_off_c, 0, 50, 61
1, 220383, Note_off_c, 0, 77, 58
1, 220387, Note_on_c, 0, 79, 58
1, 220442, Note_off_c, 0, 79, 58
1, 220458, Note_on_c, 0, 77, 69
1, 220488, Note_on_c, 0, 53, 64
1, 220495, Control_c, 0, 64, 35
1, 220508, Note_off_c, 0, 77, 58
1, 220509, Control_c, 0, 64, 34
1, 220516, Note_on_c, 0, 79, 62
1, 220524, Note_off_c, 0, 53, 63
1, 220574, Note_off_c, 0, 79, 55
1, 220584, Note_on_c, 0, 77, 66
1, 220584, Control_c, 0, 64, 33
1, 220634, Note_on_c, 0, 79, 65
1, 220634, Note_on_c, 0, 56, 75
1, 220635, Note_off_c, 0, 77, 58
1, 220663, Note_off_c, 0, 56, 65
1, 220693, Note_off_c, 0, 79, 59
1, 220706, Note_on_c, 0, 77, 69
1, 220747, Control_c, 0, 64, 33
1, 220759, Note_off_c, 0, 77, 55
1, 220763, Note_on_c, 0, 79, 68
1, 220786, Note_on_c, 0, 58, 82
1, 220824, Note_off_c, 0, 79, 61
1, 220831, Note_on_c, 0, 77, 72
1, 220840, Note_off_c, 0, 58, 60
1, 220889, Note_off_c, 0, 77, 52
1, 220891, Note_on_c, 0, 79, 68
1, 220924, Control_c, 0, 64, 32
1, 220935, Note_on_c, 0, 62, 88
1, 220956, Note_off_c, 0, 79, 60
1, 220957, Note_on_c, 0, 77, 70
1, 220974, Note_off_c, 0, 62, 62
1, 221015, Note_on_c, 0, 79, 66
1, 221017, Note_off_c, 0, 77, 57
1, 221076, Note_off_c, 0, 79, 61
1, 221080, Note_on_c, 0, 77, 71
1, 221084, Note_on_c, 0, 65, 84
1, 221133, Note_off_c, 0, 65, 62
1, 221136, Note_off_c, 0, 77, 56
1, 221138, Note_on_c, 0, 79, 65
1, 221198, Note_off_c, 0, 79, 61
1, 221201, Note_on_c, 0, 77, 73
1, 221233, Note_on_c, 0, 68, 90
1, 221252, Note_on_c, 0, 79, 58
1, 221256, Note_off_c, 0, 77, 57
1, 221271, Note_off_c, 0, 68, 63
1, 221289, Note_on_c, 0, 77, 52
1, 221291, Note_off_c, 0, 79, 54
1, 221339, Note_on_c, 0, 79, 68
1, 221347, Note_off_c, 0, 77, 59
1, 221391, Note_on_c, 0, 58, 52
1, 221400, Note_off_c, 0, 79, 59
1, 221406, Control_c, 0, 64, 33
1, 221421, Control_c, 0, 64, 33
1, 221423, Note_on_c, 0, 76, 79
1, 221488, Note_on_c, 0, 77, 77
1, 221488, Note_off_c, 0, 58, 36
1, 221495, Control_c, 0, 64, 34
1, 221510, Control_c, 0, 64, 34
1, 221519, Note_off_c, 0, 76, 58
1, 221524, Control_c, 0, 64, 35
1, 221569, Control_c, 0, 64, 35
1, 221576, Note_on_c, 0, 82, 82
1, 221582, Note_off_c, 0, 77, 61
1, 221586, Note_on_c, 0, 68, 61
1, 221613, Control_c, 0, 64, 36
1, 221641, Note_off_c, 0, 82, 62
1, 221647, Note_off_c, 0, 68, 53
1, 221742, Note_on_c, 0, 58, 49
1, 221748, Note_on_c, 0, 82, 75
1, 221788, Note_off_c, 0, 58, 57
1, 221809, Note_off_c, 0, 82, 56
1, 221961, Note_on_c, 0, 75, 63
1, 221973, Note_on_c, 0, 63, 41
1, 221976, Note_on_c, 0, 67, 41
1, 222020, Note_off_c, 0, 75, 50
1, 222133, Note_on_c, 0, 75, 67
1, 222256, Note_off_c, 0, 67, 36
1, 222271, Note_on_c, 0, 76, 63
1, 222310, Note_off_c, 0, 75, 54
1, 222336, Note_off_c, 0, 63, 42
1, 222392, Control_c, 0, 64, 36
1, 222436, Note_on_c, 0, 77, 76
1, 222496, Note_off_c, 0, 76, 53
1, 222539, Control_c, 0, 64, 37
1, 222599, Note_on_c, 0, 78, 78
1, 222621, Control_c, 0, 64, 37
1, 222636, Control_c, 0, 64, 38
1, 222671, Note_off_c, 0, 77, 54
1, 222695, Control_c, 0, 64, 38
1, 222710, Control_c, 0, 64, 39
1, 222725, Control_c, 0, 64, 40
1, 222739, Control_c, 0, 64, 41
1, 222754, Control_c, 0, 64, 42
1, 222769, Control_c, 0, 64, 42
1, 222782, Note_on_c, 0, 79, 77
1, 222784, Control_c, 0, 64, 43
1, 222813, Control_c, 0, 64, 43
1, 222816, Note_off_c, 0, 78, 56
1, 222828, Control_c, 0, 64, 44
1, 222843, Control_c, 0, 64, 45
1, 222858, Control_c, 0, 64, 45
1, 222962, Control_c, 0, 64, 46
1, 222977, Control_c, 0, 64, 46
1, 222992, Control_c, 0, 64, 47
1, 222997, Note_on_c, 0, 63, 38
1, 223001, Note_on_c, 0, 60, 34
1, 223005, Note_on_c, 0, 80, 75
1, 223007, Control_c, 0, 64, 47
1, 223037, Control_c, 0, 64, 48
1, 223044, Note_off_c, 0, 79, 57
1, 223052, Control_c, 0, 64, 49
1, 223067, Control_c, 0, 64, 51
1, 223082, Control_c, 0, 64, 53
1, 223096, Control_c, 0, 64, 54
1, 223111, Control_c, 0, 64, 55
1, 223126, Control_c, 0, 64, 56
1, 223141, Control_c, 0, 64, 59
1, 223155, Control_c, 0, 64, 60
1, 223170, Control_c, 0, 64, 62
1, 223185, Control_c, 0, 64, 63
1, 223200, Control_c, 0, 64, 65
1, 223215, Control_c, 0, 64, 67
1, 223229, Control_c, 0, 64, 71
1, 223244, Control_c, 0, 64, 80
1, 223259, Control_c, 0, 64, 93
1, 223274, Control_c, 0, 64, 116
1, 223289, Control_c, 0, 64, 127
1, 223428, Note_off_c, 0, 63, 48
1, 223509, Note_off_c, 0, 60, 33
1, 224007, Control_c, 0, 64, 115
1, 224022, Control_c, 0, 64, 99
1, 224023, Note_on_c, 0, 72, 55
1, 224037, Control_c, 0, 64, 85
1, 224044, Note_on_c, 0, 65, 38
1, 224047, Note_on_c, 0, 68, 40
1, 224051, Control_c, 0, 64, 72
1, 224056, Note_on_c, 0, 56, 30
1, 224066, Control_c, 0, 64, 64
1, 224081, Control_c, 0, 64, 59
1, 224103, Control_c, 0, 64, 57
1, 224163, Control_c, 0, 64, 56
1, 224205, Note_off_c, 0, 80, 55
1, 224237, Control_c, 0, 64, 57
1, 224251, Control_c, 0, 64, 60
1, 224266, Control_c, 0, 64, 65
1, 224281, Control_c, 0, 64, 70
1, 224295, Control_c, 0, 64, 79
1, 224310, Control_c, 0, 64, 95
1, 224325, Control_c, 0, 64, 127
1, 224363, Note_off_c, 0, 65, 39
1, 224448, Note_off_c, 0, 56, 40
1, 224466, Note_off_c, 0, 68, 38
1, 224533, Note_off_c, 0, 72, 35
1, 224941, Control_c, 0, 64, 100
1, 224957, Control_c, 0, 64, 84
1, 224971, Control_c, 0, 64, 71
1, 224980, Note_on_c, 0, 75, 50
1, 224983, Note_on_c, 0, 58, 32
1, 224986, Control_c, 0, 64, 62
1, 224995, Note_on_c, 0, 65, 34
1, 224999, Note_on_c, 0, 68, 38
1, 225001, Control_c, 0, 64, 60
1, 225031, Control_c, 0, 64, 60
1, 225046, Control_c, 0, 64, 62
1, 225061, Control_c, 0, 64, 64
1, 225075, Control_c, 0, 64, 67
1, 225090, Control_c, 0, 64, 71
1, 225105, Control_c, 0, 64, 79
1, 225120, Control_c, 0, 64, 93
1, 225123, Note_on_c, 0, 74, 66
1, 225133, Note_off_c, 0, 58, 43
1, 225134, Control_c, 0, 64, 113
1, 225139, Note_off_c, 0, 65, 50
1, 225149, Control_c, 0, 64, 127
1, 225179, Control_c, 0, 64, 117
1, 225182, Note_off_c, 0, 75, 43
1, 225192, Note_off_c, 0, 74, 52
1, 225194, Control_c, 0, 64, 103
1, 225198, Note_off_c, 0, 68, 39
1, 225208, Control_c, 0, 64, 91
1, 225223, Control_c, 0, 64, 80
1, 225238, Control_c, 0, 64, 69
1, 225252, Control_c, 0, 64, 63
1, 225269, Control_c, 0, 64, 60
1, 225276, Note_on_c, 0, 75, 65
1, 225281, Note_on_c, 0, 65, 48
1, 225286, Note_on_c, 0, 58, 39
1, 225290, Note_on_c, 0, 74, 72
1, 225314, Note_on_c, 0, 68, 39
1, 225320, Note_off_c, 0, 75, 54
1, 225364, Note_off_c, 0, 68, 41
1, 225406, Note_off_c, 0, 65, 49
1, 225441, Note_on_c, 0, 72, 75
1, 225476, Control_c, 0, 64, 59
1, 225478, Note_off_c, 0, 74, 55
1, 225583, Note_on_c, 0, 65, 41
1, 225606, Note_on_c, 0, 74, 78
1, 225615, Note_on_c, 0, 68, 59
1, 225651, Note_off_c, 0, 72, 57
1, 225733, Note_off_c, 0, 65, 57
1, 225738, Note_off_c, 0, 58, 40
1, 225743, Note_off_c, 0, 68, 43
1, 225755, Note_on_c, 0, 62, 48
1, 225756, Note_off_c, 0, 74, 55
1, 225768, Note_on_c, 0, 77, 63
1, 225779, Control_c, 0, 64, 60
1, 225932, Note_off_c, 0, 62, 41
1, 225954, Note_on_c, 0, 63, 51
1, 225978, Note_on_c, 0, 75, 61
1, 225978, Note_off_c, 0, 77, 48
1, 225991, Note_on_c, 0, 67, 46
1, 226024, Note_off_c, 0, 75, 58
1, 226059, Note_off_c, 0, 63, 52
1, 226077, Note_off_c, 0, 67, 48
1, 226155, Note_on_c, 0, 51, 43
1, 226167, Note_on_c, 0, 63, 65
1, 226329, Note_off_c, 0, 51, 54
1, 226333, Note_on_c, 0, 64, 76
1, 226334, Note_on_c, 0, 52, 64
1, 226364, Note_off_c, 0, 63, 57
1, 226489, Note_on_c, 0, 53, 77
1, 226495, Note_on_c, 0, 65, 87
1, 226513, Control_c, 0, 64, 59
1, 226519, Note_off_c, 0, 52, 60
1, 226528, Control_c, 0, 64, 59
1, 226539, Note_off_c, 0, 64, 60
1, 226543, Control_c, 0, 64, 58
1, 226558, Control_c, 0, 64, 57
1, 226587, Control_c, 0, 64, 57
1, 226602, Control_c, 0, 64, 56
1, 226617, Control_c, 0, 64, 56
1, 226632, Control_c, 0, 64, 55
1, 226647, Control_c, 0, 64, 55
1, 226650, Note_on_c, 0, 54, 78
1, 226661, Note_on_c, 0, 66, 86
1, 226665, Note_off_c, 0, 53, 59
1, 226677, Control_c, 0, 64, 54
1, 226691, Control_c, 0, 64, 54
1, 226705, Note_off_c, 0, 65, 61
1, 226816, Note_on_c, 0, 55, 77
1, 226826, Note_on_c, 0, 67, 83
1, 226838, Note_off_c, 0, 54, 60
1, 226839, Note_off_c, 0, 66, 60
1, 226870, Note_off_c, 0, 55, 59
1, 226893, Note_off_c, 0, 67, 60
1, 227019, Note_on_c, 0, 56, 82
1, 227019, Note_on_c, 0, 68, 85
1, 227033, Control_c, 0, 64, 53
1, 227048, Control_c, 0, 64, 52
1, 227062, Control_c, 0, 64, 50
1, 227077, Control_c, 0, 64, 49
1, 227129, Control_c, 0, 64, 54
1, 227144, Control_c, 0, 64, 62
1, 227159, Control_c, 0, 64, 71
1, 227174, Control_c, 0, 64, 88
1, 227189, Control_c, 0, 64, 127
1, 227334, Note_off_c, 0, 56, 58
1, 227908, Control_c, 0, 67, 18
1, 227923, Control_c, 0, 67, 21
1, 227937, Control_c, 0, 67, 23
1, 227952, Control_c, 0, 67, 24
1, 227967, Control_c, 0, 67, 25
1, 227982, Control_c, 0, 67, 26
1, 227997, Control_c, 0, 67, 27
1, 228012, Control_c, 0, 67, 28
1, 228115, Control_c, 0, 67, 27
1, 228145, Control_c, 0, 67, 27
1, 228149, Note_on_c, 0, 60, 72
1, 228158, Note_on_c, 0, 48, 53
1, 228159, Control_c, 0, 64, 107
1, 228160, Note_on_c, 0, 44, 48
1, 228168, Note_on_c, 0, 56, 47
1, 228174, Control_c, 0, 64, 84
1, 228189, Control_c, 0, 64, 69
1, 228204, Control_c, 0, 64, 59
1, 228204, Control_c, 0, 67, 26
1, 228218, Control_c, 0, 64, 51
1, 228218, Control_c, 0, 67, 26
1, 228233, Control_c, 0, 64, 48
1, 228233, Control_c, 0, 67, 25
1, 228248, Control_c, 0, 64, 46
1, 228248, Control_c, 0, 67, 25
1, 228263, Control_c, 0, 64, 46
1, 228263, Control_c, 0, 67, 24
1, 228277, Control_c, 0, 64, 45
1, 228277, Control_c, 0, 67, 24
1, 228292, Control_c, 0, 64, 45
1, 228307, Control_c, 0, 64, 44
1, 228307, Control_c, 0, 67, 23
1, 228322, Control_c, 0, 67, 23
1, 228337, Control_c, 0, 67, 22
1, 228352, Control_c, 0, 64, 45
1, 228352, Control_c, 0, 67, 21
1, 228367, Control_c, 0, 64, 48
1, 228367, Control_c, 0, 67, 20
1, 228382, Control_c, 0, 64, 56
1, 228382, Control_c, 0, 67, 38
1, 228397, Control_c, 0, 64, 64
1, 228410, Note_off_c, 0, 68, 55
1, 228411, Control_c, 0, 64, 73
1, 228426, Control_c, 0, 64, 84
1, 228441, Control_c, 0, 64, 104
1, 228456, Control_c, 0, 64, 127
1, 228471, Control_c, 0, 67, 37
1, 228523, Note_off_c, 0, 48, 33
1, 228537, Note_off_c, 0, 56, 40
1, 228612, Control_c, 0, 67, 38
1, 228820, Control_c, 0, 67, 38
1, 228835, Control_c, 0, 64, 102
1, 228849, Control_c, 0, 64, 82
1, 228864, Note_on_c, 0, 61, 55
1, 228864, Control_c, 0, 64, 66
1, 228878, Note_on_c, 0, 49, 40
1, 228879, Control_c, 0, 64, 57
1, 228893, Control_c, 0, 64, 54
1, 228908, Control_c, 0, 67, 38
1, 228923, Control_c, 0, 64, 55
1, 228938, Control_c, 0, 64, 57
1, 228953, Control_c, 0, 64, 62
1, 228967, Control_c, 0, 64, 67
1, 228982, Control_c, 0, 64, 74
1, 228982, Control_c, 0, 67, 37
1, 228997, Control_c, 0, 64, 85
1, 229012, Control_c, 0, 64, 104
1, 229027, Control_c, 0, 64, 127
1, 229046, Note_off_c, 0, 49, 40
1, 229058, Note_on_c, 0, 63, 70
1, 229064, Note_off_c, 0, 60, 39
1, 229070, Note_on_c, 0, 51, 48
1, 229072, Note_off_c, 0, 61, 56
1, 229098, Note_off_c, 0, 44, 38
1, 229107, Note_off_c, 0, 51, 61
1, 229127, Note_off_c, 0, 63, 57
1, 229160, Control_c, 0, 67, 38
1, 229249, Control_c, 0, 67, 38
1, 229346, Control_c, 0, 67, 39
1, 229391, Control_c, 0, 67, 39
1, 229435, Control_c, 0, 64, 106
1, 229449, Control_c, 0, 64, 91
1, 229464, Control_c, 0, 64, 79
1, 229479, Control_c, 0, 64, 66
1, 229494, Control_c, 0, 64, 60
1, 229509, Note_on_c, 0, 65, 48
1, 229509, Control_c, 0, 64, 55
1, 229514, Note_on_c, 0, 44, 33
1, 229520, Note_on_c, 0, 56, 45
1, 229522, Note_on_c, 0, 37, 35
1, 229523, Control_c, 0, 64, 54
1, 229526, Note_on_c, 0, 46, 36
1, 229527, Note_on_c, 0, 49, 33
1, 229527, Note_on_c, 0, 53, 40
1, 229538, Control_c, 0, 64, 53
1, 229553, Control_c, 0, 64, 53
1, 229568, Control_c, 0, 64, 52
1, 229613, Control_c, 0, 64, 54
1, 229628, Control_c, 0, 64, 61
1, 229642, Control_c, 0, 64, 68
1, 229657, Control_c, 0, 64, 79
1, 229672, Control_c, 0, 64, 98
1, 229687, Control_c, 0, 64, 127
1, 229795, Note_on_c, 0, 58, 61
1, 229827, Note_off_c, 0, 58, 63
1, 229842, Note_off_c, 0, 56, 0
1, 229849, Control_c, 0, 64, 106
1, 229864, Control_c, 0, 64, 87
1, 229879, Poly_aftertouch_c, 0, 56, 127
1, 229879, Control_c, 0, 64, 71
1, 229893, Note_on_c, 0, 58, 60
1, 229894, Control_c, 0, 64, 64
1, 229908, Control_c, 0, 64, 62
1, 229953, Control_c, 0, 64, 61
1, 229968, Control_c, 0, 64, 60
1, 229983, Control_c, 0, 64, 57
1, 229983, Control_c, 0, 67, 40
1, 229997, Control_c, 0, 64, 56
1, 230012, Control_c, 0, 64, 55
1, 230069, Note_off_c, 0, 58, 33
1, 230095, Control_c, 0, 64, 55
1, 230110, Control_c, 0, 64, 54
1, 230140, Control_c, 0, 64, 54
1, 230149, Note_off_c, 0, 53, 42
1, 230167, Note_off_c, 0, 49, 60
1, 230167, Poly_aftertouch_c, 0, 56, 0
1, 230173, Note_off_c, 0, 37, 59
1, 230183, Note_off_c, 0, 46, 57
1, 230190, Note_off_c, 0, 65, 60
1, 230194, Note_off_c, 0, 44, 55
1, 230569, Control_c, 0, 64, 54
1, 230613, Control_c, 0, 64, 55
1, 230628, Control_c, 0, 64, 56
1, 230637, Note_on_c, 0, 65, 56
1, 230643, Control_c, 0, 64, 58
1, 230643, Control_c, 0, 67, 39
1, 230652, Note_on_c, 0, 44, 38
1, 230655, Note_on_c, 0, 56, 49
1, 230657, Note_on_c, 0, 37, 34
1, 230658, Control_c, 0, 64, 61
1, 230658, Control_c, 0, 67, 38
1, 230663, Note_on_c, 0, 46, 31
1, 230664, Note_on_c, 0, 53, 44
1, 230671, Note_on_c, 0, 49, 37
1, 230672, Control_c, 0, 64, 64
1, 230672, Control_c, 0, 67, 38
1, 230687, Control_c, 0, 64, 71
1, 230702, Control_c, 0, 64, 85
1, 230717, Control_c, 0, 64, 116
1, 230717, Control_c, 0, 67, 37
1, 230732, Control_c, 0, 64, 127
1, 230776, Control_c, 0, 67, 37
1, 230790, Control_c, 0, 67, 36
1, 230912, Note_on_c, 0, 58, 59
1, 230946, Note_off_c, 0, 58, 62
1, 230966, Note_off_c, 0, 56, 0
1, 230993, Control_c, 0, 67, 37
1, 230995, Note_off_c, 0, 53, 0
1, 230995, Note_on_c, 0, 53, 3
1, 230997, Note_on_c, 0, 56, 12
1, 231019, Note_on_c, 0, 58, 67
1, 231082, Control_c, 0, 67, 37
1, 231111, Control_c, 0, 67, 38
1, 231146, Note_off_c, 0, 53, 38
1, 231170, Control_c, 0, 67, 38
1, 231172, Note_off_c, 0, 49, 50
1, 231196, Note_off_c, 0, 56, 41
1, 231214, Control_c, 0, 64, 121
1, 231229, Control_c, 0, 64, 115
1, 231235, Note_off_c, 0, 65, 33
1, 231241, Note_off_c, 0, 58, 36
1, 231244, Control_c, 0, 64, 111
1, 231249, Note_off_c, 0, 46, 37
1, 231259, Control_c, 0, 64, 110
1, 231274, Control_c, 0, 64, 109
1, 231275, Note_off_c, 0, 44, 35
1, 231281, Note_off_c, 0, 37, 32
1, 231288, Control_c, 0, 64, 109
1, 231288, Control_c, 0, 67, 39
1, 231303, Control_c, 0, 64, 108
1, 231318, Control_c, 0, 64, 104
1, 231333, Control_c, 0, 64, 97
1, 231348, Control_c, 0, 64, 88
1, 231363, Control_c, 0, 64, 77
1, 231377, Control_c, 0, 64, 67
1, 231392, Control_c, 0, 64, 59
1, 231407, Control_c, 0, 64, 53
1, 231422, Control_c, 0, 64, 53
1, 231496, Control_c, 0, 67, 39
1, 231622, Control_c, 0, 64, 53
1, 231637, Control_c, 0, 64, 54
1, 231652, Control_c, 0, 64, 54
1, 231652, Control_c, 0, 67, 39
1, 231667, Control_c, 0, 64, 55
1, 231667, Control_c, 0, 67, 38
1, 231682, Control_c, 0, 64, 56
1, 231682, Control_c, 0, 67, 38
1, 231696, Control_c, 0, 64, 56
1, 231711, Control_c, 0, 64, 57
1, 231726, Control_c, 0, 64, 58
1, 231741, Control_c, 0, 64, 60
1, 231756, Control_c, 0, 64, 63
1, 231771, Control_c, 0, 64, 66
1, 231786, Control_c, 0, 64, 70
1, 231789, Note_on_c, 0, 58, 48
1, 231795, Note_on_c, 0, 53, 30
1, 231800, Control_c, 0, 64, 78
1, 231801, Note_on_c, 0, 56, 41
1, 231808, Note_on_c, 0, 37, 31
1, 231811, Note_on_c, 0, 49, 31
1, 231815, Control_c, 0, 64, 89
1, 231830, Control_c, 0, 64, 104
1, 231830, Control_c, 0, 67, 38
1, 231844, Control_c, 0, 64, 119
1, 231859, Control_c, 0, 64, 127
1, 231874, Control_c, 0, 67, 39
1, 231905, Note_off_c, 0, 37, 46
1, 231934, Note_off_c, 0, 49, 35
1, 231961, Note_off_c, 0, 58, 35
1, 231965, Note_off_c, 0, 56, 35
1, 231974, Note_off_c, 0, 53, 39
1, 231978, Control_c, 0, 67, 39
1, 232139, Note_on_c, 0, 53, 39
1, 232141, Control_c, 0, 64, 98
1, 232150, Note_on_c, 0, 37, 40
1, 232150, Note_on_c, 0, 58, 61
1, 232154, Note_on_c, 0, 56, 54
1, 232155, Control_c, 0, 64, 81
1, 232155, Control_c, 0, 67, 39
1, 232157, Note_on_c, 0, 49, 43
1, 232170, Control_c, 0, 64, 69
1, 232185, Control_c, 0, 64, 63
1, 232200, Control_c, 0, 64, 62
1, 232215, Control_c, 0, 64, 64
1, 232222, Note_off_c, 0, 37, 53
1, 232230, Control_c, 0, 64, 71
1, 232244, Control_c, 0, 64, 84
1, 232258, Note_off_c, 0, 49, 36
1, 232259, Control_c, 0, 64, 111
1, 232274, Control_c, 0, 64, 127
1, 232320, Note_off_c, 0, 53, 36
1, 232325, Note_off_c, 0, 56, 36
1, 232341, Note_off_c, 0, 58, 35
1, 232370, Control_c, 0, 67, 38
1, 232504, Control_c, 0, 64, 110
1, 232507, Note_on_c, 0, 58, 65
1, 232508, Note_on_c, 0, 49, 43
1, 232511, Note_on_c, 0, 37, 44
1, 232511, Note_on_c, 0, 56, 57
1, 232519, Note_on_c, 0, 53, 42
1, 232519, Control_c, 0, 64, 87
1, 232534, Control_c, 0, 64, 73
1, 232549, Control_c, 0, 64, 69
1, 232549, Control_c, 0, 67, 38
1, 232564, Control_c, 0, 64, 70
1, 232567, Poly_aftertouch_c, 0, 64, 127
1, 232572, Note_off_c, 0, 37, 57
1, 232579, Control_c, 0, 64, 74
1, 232579, Control_c, 0, 67, 37
1, 232594, Control_c, 0, 64, 83
1, 232608, Control_c, 0, 64, 102
1, 232623, Control_c, 0, 64, 127
1, 232627, Note_off_c, 0, 49, 36
1, 232650, Note_off_c, 0, 53, 35
1, 232653, Control_c, 0, 67, 38
1, 232660, Note_off_c, 0, 56, 55
1, 232668, Note_off_c, 0, 58, 51
1, 232801, Control_c, 0, 67, 38
1, 232874, Control_c, 0, 67, 39
1, 232904, Control_c, 0, 67, 39
1, 232934, Control_c, 0, 64, 99
1, 232940, Note_on_c, 0, 59, 49
1, 232942, Note_on_c, 0, 56, 45
1, 232948, Control_c, 0, 64, 81
1, 232948, Control_c, 0, 67, 40
1, 232950, Note_on_c, 0, 53, 40
1, 232957, Note_on_c, 0, 50, 40
1, 232963, Note_on_c, 0, 38, 35
1, 232963, Control_c, 0, 64, 67
1, 232978, Control_c, 0, 64, 57
1, 232983, Poly_aftertouch_c, 0, 64, 0
1, 232993, Control_c, 0, 64, 48
1, 233008, Control_c, 0, 64, 46
1, 233023, Control_c, 0, 64, 45
1, 233038, Control_c, 0, 64, 43
1, 233053, Control_c, 0, 64, 42
1, 233067, Control_c, 0, 64, 40
1, 233119, Control_c, 0, 67, 39
1, 233134, Control_c, 0, 67, 39
1, 233148, Control_c, 0, 67, 38
1, 233178, Control_c, 0, 64, 41
1, 233178, Control_c, 0, 67, 38
1, 233193, Control_c, 0, 64, 45
1, 233193, Control_c, 0, 67, 37
1, 233208, Control_c, 0, 64, 51
1, 233208, Control_c, 0, 67, 37
1, 233223, Control_c, 0, 64, 59
1, 233223, Control_c, 0, 67, 36
1, 233238, Control_c, 0, 64, 65
1, 233238, Control_c, 0, 67, 36
1, 233252, Control_c, 0, 64, 71
1, 233252, Control_c, 0, 67, 35
1, 233268, Control_c, 0, 64, 79
1, 233268, Control_c, 0, 67, 34
1, 233283, Control_c, 0, 64, 88
1, 233283, Control_c, 0, 67, 33
1, 233297, Control_c, 0, 64, 100
1, 233297, Control_c, 0, 67, 31
1, 233312, Control_c, 0, 64, 122
1, 233312, Control_c, 0, 67, 29
1, 233327, Control_c, 0, 64, 127
1, 233327, Control_c, 0, 67, 28
1, 233339, Note_off_c, 0, 53, 38
1, 233342, Control_c, 0, 67, 27
1, 233357, Control_c, 0, 67, 26
1, 233372, Control_c, 0, 67, 24
1, 233377, Note_off_c, 0, 38, 39
1, 233387, Control_c, 0, 67, 23
1, 233401, Control_c, 0, 67, 22
1, 233405, Note_off_c, 0, 50, 37
1, 233416, Control_c, 0, 67, 20
1, 233431, Control_c, 0, 67, 18
1, 233446, Note_off_c, 0, 56, 44
1, 233446, Note_off_c, 0, 59, 49
1, 233446, Control_c, 0, 67, 16
1, 233490, Control_c, 0, 67, 0
1, 233579, Control_c, 0, 64, 121
1, 233594, Control_c, 0, 64, 111
1, 233608, Control_c, 0, 64, 107
1, 233623, Control_c, 0, 64, 105
1, 233638, Control_c, 0, 64, 100
1, 233653, Control_c, 0, 64, 93
1, 233668, Control_c, 0, 64, 83
1, 233682, Control_c, 0, 64, 73
1, 233697, Control_c, 0, 64, 66
1, 233712, Control_c, 0, 64, 62
1, 233786, Control_c, 0, 64, 62
1, 233801, Control_c, 0, 64, 61
1, 233816, Control_c, 0, 64, 60
1, 233897, Control_c, 0, 64, 60
1, 234061, Control_c, 0, 64, 60
1, 234076, Control_c, 0, 64, 61
1, 234091, Control_c, 0, 64, 62
1, 234095, Note_on_c, 0, 62, 35
1, 234104, Note_on_c, 0, 71, 49
1, 234106, Control_c, 0, 64, 64
1, 234108, Note_on_c, 0, 68, 41
1, 234114, Note_on_c, 0, 65, 28
1, 234120, Control_c, 0, 64, 66
1, 234135, Control_c, 0, 64, 70
1, 234150, Control_c, 0, 64, 79
1, 234165, Control_c, 0, 64, 96
1, 234180, Control_c, 0, 64, 127
1, 234226, Note_off_c, 0, 62, 33
1, 234266, Note_off_c, 0, 71, 47
1, 234275, Note_off_c, 0, 68, 36
1, 234282, Note_off_c, 0, 65, 40
1, 234461, Control_c, 0, 64, 98
1, 234463, Note_on_c, 0, 68, 55
1, 234463, Note_on_c, 0, 65, 46
1, 234463, Note_on_c, 0, 71, 62
1, 234466, Note_on_c, 0, 62, 45
1, 234476, Control_c, 0, 64, 81
1, 234491, Control_c, 0, 64, 72
1, 234505, Control_c, 0, 64, 69
1, 234520, Control_c, 0, 64, 70
1, 234535, Control_c, 0, 64, 74
1, 234549, Control_c, 0, 64, 83
1, 234564, Control_c, 0, 64, 100
1, 234587, Control_c, 0, 64, 127
1, 234606, Note_off_c, 0, 62, 32
1, 234632, Note_off_c, 0, 71, 55
1, 234636, Note_off_c, 0, 65, 36
1, 234641, Note_off_c, 0, 68, 35
1, 234842, Note_on_c, 0, 68, 54
1, 234842, Note_on_c, 0, 71, 63
1, 234844, Note_on_c, 0, 65, 58
1, 234847, Note_on_c, 0, 62, 46
1, 234898, Note_off_c, 0, 62, 58
1, 234934, Note_off_c, 0, 71, 57
1, 234949, Note_off_c, 0, 65, 36
1, 234969, Note_off_c, 0, 68, 34
1, 235241, Control_c, 0, 64, 105
1, 235255, Control_c, 0, 64, 89
1, 235262, Note_on_c, 0, 72, 50
1, 235270, Control_c, 0, 64, 74
1, 235270, Note_on_c, 0, 68, 46
1, 235279, Note_on_c, 0, 63, 36
1, 235285, Control_c, 0, 64, 60
1, 235288, Note_on_c, 0, 66, 45
1, 235300, Control_c, 0, 64, 50
1, 235315, Control_c, 0, 64, 46
1, 235411, Control_c, 0, 64, 47
1, 235425, Control_c, 0, 64, 49
1, 235439, Control_c, 0, 64, 52
1, 235454, Control_c, 0, 64, 57
1, 235468, Control_c, 0, 64, 62
1, 235483, Control_c, 0, 64, 68
1, 235498, Control_c, 0, 64, 76
1, 235513, Control_c, 0, 64, 87
1, 235528, Control_c, 0, 64, 100
1, 235542, Control_c, 0, 64, 113
1, 235557, Control_c, 0, 64, 127
1, 235633, Note_off_c, 0, 63, 54
1, 235640, Note_off_c, 0, 72, 55
1, 235654, Note_off_c, 0, 66, 58
1, 235658, Note_off_c, 0, 68, 57
1, 235706, Control_c, 0, 64, 110
1, 235721, Control_c, 0, 64, 98
1, 235736, Control_c, 0, 64, 87
1, 235751, Control_c, 0, 64, 77
1, 235765, Control_c, 0, 64, 70
1, 235780, Control_c, 0, 64, 68
1, 235795, Control_c, 0, 64, 67
1, 235810, Control_c, 0, 64, 66
1, 235825, Control_c, 0, 64, 64
1, 235840, Control_c, 0, 64, 60
1, 235855, Control_c, 0, 64, 53
1, 235870, Control_c, 0, 64, 47
1, 235884, Control_c, 0, 64, 43
1, 235899, Control_c, 0, 64, 41
1, 235929, Control_c, 0, 64, 40
1, 235944, Control_c, 0, 64, 38
1, 235958, Control_c, 0, 64, 36
1, 235973, Control_c, 0, 64, 34
1, 235988, Control_c, 0, 64, 34
1, 236046, Note_on_c, 0, 54, 45
1, 236047, Note_on_c, 0, 60, 51
1, 236048, Note_on_c, 0, 56, 50
1, 236071, Note_on_c, 0, 51, 39
1, 236072, Note_on_c, 0, 39, 34
1, 236099, Control_c, 0, 64, 35
1, 236114, Control_c, 0, 64, 37
1, 236129, Control_c, 0, 64, 39
1, 236144, Control_c, 0, 64, 40
1, 236158, Control_c, 0, 64, 41
1, 236173, Control_c, 0, 64, 41
1, 236188, Control_c, 0, 64, 42
1, 236201, Note_off_c, 0, 56, 60
1, 236203, Control_c, 0, 64, 43
1, 236209, Note_off_c, 0, 54, 56
1, 236217, Control_c, 0, 64, 44
1, 236232, Control_c, 0, 64, 45
1, 236241, Note_off_c, 0, 51, 58
1, 236247, Control_c, 0, 64, 46
1, 236259, Note_off_c, 0, 39, 43
1, 236397, Note_on_c, 0, 56, 47
1, 236402, Note_on_c, 0, 52, 51
1, 236405, Note_on_c, 0, 61, 57
1, 236412, Note_on_c, 0, 40, 39
1, 236455, Note_off_c, 0, 60, 55
1, 236485, Control_c, 0, 64, 46
1, 236559, Note_off_c, 0, 40, 60
1, 236571, Note_off_c, 0, 56, 61
1, 236577, Note_off_c, 0, 52, 59
1, 236590, Note_off_c, 0, 61, 61
1, 236751, Control_c, 0, 64, 47
1, 236766, Control_c, 0, 64, 47
1, 236781, Control_c, 0, 64, 48
1, 236796, Control_c, 0, 64, 49
1, 236811, Control_c, 0, 64, 49
1, 236832, Control_c, 0, 64, 50
1, 236847, Control_c, 0, 64, 50
1, 236862, Control_c, 0, 64, 51
1, 236877, Control_c, 0, 64, 51
1, 236907, Control_c, 0, 64, 52
1, 236937, Control_c, 0, 64, 52
1, 237026, Control_c, 0, 64, 53
1, 237040, Control_c, 0, 64, 55
1, 237055, Control_c, 0, 64, 60
1, 237070, Control_c, 0, 64, 64
1, 237078, Note_on_c, 0, 68, 46
1, 237078, Note_on_c, 0, 73, 60
1, 237085, Control_c, 0, 64, 69
1, 237095, Note_on_c, 0, 64, 38
1, 237100, Control_c, 0, 64, 74
1, 237114, Control_c, 0, 64, 82
1, 237129, Control_c, 0, 64, 94
1, 237142, Note_off_c, 0, 64, 50
1, 237144, Control_c, 0, 64, 107
1, 237158, Control_c, 0, 64, 127
1, 237367, Control_c, 0, 64, 119
1, 237381, Control_c, 0, 64, 109
1, 237396, Control_c, 0, 64, 100
1, 237411, Control_c, 0, 64, 92
1, 237417, Note_on_c, 0, 74, 58
1, 237423, Note_off_c, 0, 73, 36
1, 237426, Control_c, 0, 64, 85
1, 237430, Note_on_c, 0, 71, 51
1, 237441, Control_c, 0, 64, 75
1, 237444, Note_on_c, 0, 65, 43
1, 237455, Control_c, 0, 64, 67
1, 237470, Control_c, 0, 64, 61
1, 237485, Control_c, 0, 64, 56
1, 237500, Control_c, 0, 64, 53
1, 237515, Control_c, 0, 64, 52
1, 237530, Control_c, 0, 64, 51
1, 237545, Control_c, 0, 64, 50
1, 237560, Control_c, 0, 64, 50
1, 237581, Control_c, 0, 64, 49
1, 237656, Note_off_c, 0, 74, 59
1, 237670, Note_off_c, 0, 71, 60
1, 237670, Note_off_c, 0, 65, 59
1, 237676, Note_off_c, 0, 68, 54
1, 237745, Control_c, 0, 64, 49
1, 237775, Control_c, 0, 64, 48
1, 237789, Control_c, 0, 64, 48
1, 238114, Note_on_c, 0, 62, 56
1, 238117, Note_on_c, 0, 56, 47
1, 238117, Control_c, 0, 64, 49
1, 238132, Note_on_c, 0, 41, 39
1, 238132, Control_c, 0, 64, 52
1, 238141, Note_on_c, 0, 53, 42
1, 238147, Control_c, 0, 64, 60
1, 238161, Control_c, 0, 64, 67
1, 238176, Control_c, 0, 64, 77
1, 238187, Note_off_c, 0, 41, 57
1, 238191, Control_c, 0, 64, 94
1, 238205, Control_c, 0, 64, 127
1, 238209, Note_off_c, 0, 56, 57
1, 238233, Note_off_c, 0, 53, 36
1, 238455, Note_on_c, 0, 63, 60
1, 238457, Note_on_c, 0, 58, 52
1, 238457, Note_on_c, 0, 54, 56
1, 238482, Note_on_c, 0, 42, 42
1, 238493, Control_c, 0, 64, 96
1, 238502, Note_off_c, 0, 62, 53
1, 238508, Control_c, 0, 64, 79
1, 238523, Control_c, 0, 64, 66
1, 238538, Control_c, 0, 64, 57
1, 238552, Control_c, 0, 64, 49
1, 238567, Control_c, 0, 64, 45
1, 238582, Control_c, 0, 64, 45
1, 238621, Note_off_c, 0, 42, 61
1, 238657, Control_c, 0, 64, 44
1, 238664, Note_off_c, 0, 54, 60
1, 238667, Note_off_c, 0, 58, 60
1, 238690, Note_off_c, 0, 63, 63
1, 238939, Control_c, 0, 64, 45
1, 239119, Note_on_c, 0, 70, 62
1, 239119, Note_on_c, 0, 75, 69
1, 239123, Note_on_c, 0, 66, 48
1, 239124, Control_c, 0, 64, 46
1, 239139, Control_c, 0, 64, 49
1, 239153, Control_c, 0, 64, 56
1, 239168, Control_c, 0, 64, 64
1, 239183, Control_c, 0, 64, 74
1, 239198, Control_c, 0, 64, 88
1, 239213, Control_c, 0, 64, 127
1, 239447, Note_off_c, 0, 66, 39
1, 239482, Note_on_c, 0, 76, 71
1, 239492, Note_on_c, 0, 73, 77
1, 239496, Note_off_c, 0, 75, 57
1, 239499, Note_on_c, 0, 67, 61
1, 239553, Control_c, 0, 64, 94
1, 239568, Control_c, 0, 64, 78
1, 239583, Control_c, 0, 64, 63
1, 239598, Control_c, 0, 64, 54
1, 239613, Control_c, 0, 64, 48
1, 239627, Control_c, 0, 64, 47
1, 239688, Note_off_c, 0, 70, 37
1, 239740, Note_off_c, 0, 76, 63
1, 239750, Note_off_c, 0, 67, 60
1, 239760, Note_off_c, 0, 73, 62
1, 239991, Control_c, 0, 64, 47
1, 240006, Control_c, 0, 64, 48
1, 240021, Control_c, 0, 64, 48
1, 240050, Control_c, 0, 64, 49
1, 240065, Control_c, 0, 64, 49
1, 240080, Control_c, 0, 64, 50
1, 240095, Control_c, 0, 64, 52
1, 240109, Control_c, 0, 64, 53
1, 240124, Control_c, 0, 64, 55
1, 240139, Control_c, 0, 64, 57
1, 240154, Control_c, 0, 64, 58
1, 240169, Control_c, 0, 64, 60
1, 240183, Control_c, 0, 64, 62
1, 240198, Control_c, 0, 64, 65
1, 240206, Note_on_c, 0, 61, 56
1, 240207, Note_on_c, 0, 64, 57
1, 240211, Note_on_c, 0, 55, 49
1, 240212, Note_on_c, 0, 43, 43
1, 240212, Note_on_c, 0, 58, 49
1, 240213, Control_c, 0, 64, 70
1, 240228, Control_c, 0, 64, 78
1, 240243, Control_c, 0, 64, 95
1, 240258, Control_c, 0, 64, 127
1, 240299, Note_off_c, 0, 55, 56
1, 240299, Note_off_c, 0, 43, 53
1, 240363, Note_off_c, 0, 61, 54
1, 240419, Note_off_c, 0, 58, 54
1, 240695, Note_on_c, 0, 56, 52
1, 240701, Note_on_c, 0, 44, 50
1, 240707, Note_on_c, 0, 65, 66
1, 240710, Note_on_c, 0, 60, 62
1, 240711, Control_c, 0, 64, 101
1, 240718, Note_off_c, 0, 64, 36
1, 240726, Control_c, 0, 64, 76
1, 240740, Control_c, 0, 64, 60
1, 240755, Control_c, 0, 64, 39
1, 240770, Control_c, 0, 64, 16
1, 240800, Control_c, 0, 64, 24
1, 240815, Control_c, 0, 64, 49
1, 240830, Control_c, 0, 64, 65
1, 240845, Control_c, 0, 64, 78
1, 240860, Control_c, 0, 64, 105
1, 240874, Control_c, 0, 64, 127
1, 240932, Note_off_c, 0, 44, 56
1, 240935, Note_off_c, 0, 56, 56
1, 240988, Note_off_c, 0, 60, 35
1, 240997, Note_off_c, 0, 65, 36
1, 241150, Note_on_c, 0, 56, 74
1, 241155, Note_on_c, 0, 65, 88
1, 241158, Note_on_c, 0, 44, 63
1, 241159, Note_on_c, 0, 60, 74
1, 241199, Control_c, 0, 64, 90
1, 241214, Control_c, 0, 64, 66
1, 241229, Control_c, 0, 64, 55
1, 241245, Control_c, 0, 64, 56
1, 241260, Control_c, 0, 64, 66
1, 241275, Control_c, 0, 64, 85
1, 241290, Control_c, 0, 64, 127
1, 241300, Note_off_c, 0, 56, 58
1, 241323, Note_off_c, 0, 44, 56
1, 241340, Note_off_c, 0, 60, 51
1, 241352, Note_off_c, 0, 65, 59
1, 241614, Note_on_c, 0, 56, 78
1, 241614, Note_on_c, 0, 65, 92
1, 241615, Note_on_c, 0, 44, 72
1, 241620, Note_on_c, 0, 60, 85
1, 241638, Control_c, 0, 64, 90
1, 241653, Control_c, 0, 64, 68
1, 241667, Control_c, 0, 64, 57
1, 241682, Control_c, 0, 64, 57
1, 241697, Control_c, 0, 64, 69
1, 241712, Control_c, 0, 64, 93
1, 241724, Note_off_c, 0, 56, 60
1, 241727, Control_c, 0, 64, 127
1, 241754, Note_off_c, 0, 44, 59
1, 241758, Note_off_c, 0, 60, 55
1, 242165, Control_c, 0, 64, 97
1, 242165, Note_off_c, 0, 65, 56
1, 242178, Control_c, 0, 64, 70
1, 242180, Note_on_c, 0, 45, 63
1, 242183, Note_on_c, 0, 57, 68
1, 242189, Note_on_c, 0, 66, 82
1, 242192, Note_on_c, 0, 63, 74
1, 242193, Control_c, 0, 64, 45
1, 242198, Note_on_c, 0, 60, 76
1, 242208, Control_c, 0, 64, 0
1, 242311, Control_c, 0, 64, 42
1, 242326, Control_c, 0, 64, 64
1, 242341, Control_c, 0, 64, 77
1, 242356, Control_c, 0, 64, 101
1, 242371, Control_c, 0, 64, 127
1, 242808, Note_off_c, 0, 60, 33
1, 242857, Note_off_c, 0, 45, 36
1, 242914, Note_off_c, 0, 57, 36
1, 242919, Note_off_c, 0, 63, 39
1, 242955, Note_off_c, 0, 66, 39
1, 243879, Note_on_c, 0, 72, 57
1, 243888, Note_on_c, 0, 78, 78
1, 243888, Note_on_c, 0, 75, 72
1, 243894, Note_on_c, 0, 69, 50
1, 243898, Control_c, 0, 64, 110
1, 243913, Control_c, 0, 64, 82
1, 243928, Control_c, 0, 64, 67
1, 243942, Control_c, 0, 64, 61
1, 243957, Control_c, 0, 64, 61
1, 243972, Control_c, 0, 64, 67
1, 243987, Control_c, 0, 64, 76
1, 244002, Control_c, 0, 64, 101
1, 244016, Control_c, 0, 64, 127
1, 244106, Note_off_c, 0, 75, 60
1, 244122, Note_off_c, 0, 78, 54
1, 244127, Note_off_c, 0, 69, 43
1, 244129, Note_off_c, 0, 72, 35
1, 244484, Note_on_c, 0, 72, 71
1, 244485, Note_on_c, 0, 78, 89
1, 244486, Note_on_c, 0, 75, 85
1, 244489, Note_on_c, 0, 69, 61
1, 244499, Control_c, 0, 64, 85
1, 244514, Control_c, 0, 64, 62
1, 244529, Control_c, 0, 64, 26
1, 244544, Control_c, 0, 64, 0
1, 244589, Control_c, 0, 64, 38
1, 244604, Control_c, 0, 64, 65
1, 244619, Control_c, 0, 64, 84
1, 244633, Control_c, 0, 64, 127
1, 244675, Note_off_c, 0, 72, 57
1, 244690, Note_off_c, 0, 69, 56
1, 244695, Note_off_c, 0, 75, 60
1, 244720, Note_off_c, 0, 78, 57
1, 245113, Note_on_c, 0, 78, 91
1, 245116, Note_on_c, 0, 72, 72
1, 245119, Note_on_c, 0, 69, 69
1, 245119, Note_on_c, 0, 75, 92
1, 245129, Control_c, 0, 64, 79
1, 245144, Control_c, 0, 64, 58
1, 245159, Control_c, 0, 64, 32
1, 245173, Control_c, 0, 64, 24
1, 245188, Control_c, 0, 64, 47
1, 245203, Control_c, 0, 64, 71
1, 245218, Control_c, 0, 64, 96
1, 245233, Control_c, 0, 64, 127
1, 245271, Note_off_c, 0, 72, 59
1, 245304, Note_off_c, 0, 69, 62
1, 245355, Note_off_c, 0, 75, 58
1, 245397, Note_off_c, 0, 78, 59
1, 246024, Note_on_c, 0, 70, 72
1, 246031, Note_on_c, 0, 79, 84
1, 246032, Note_on_c, 0, 75, 89
1, 246042, Control_c, 0, 64, 117
1, 246057, Control_c, 0, 64, 77
1, 246071, Control_c, 0, 64, 56
1, 246086, Control_c, 0, 64, 16
1, 246101, Control_c, 0, 64, 0
1, 246205, Control_c, 0, 64, 43
1, 246219, Control_c, 0, 64, 64
1, 246234, Control_c, 0, 64, 75
1, 246249, Control_c, 0, 64, 92
1, 246264, Control_c, 0, 64, 127
1, 247897, Note_off_c, 0, 70, 32
1, 247951, Note_off_c, 0, 79, 34
1, 247978, Note_off_c, 0, 75, 55
1, 248228, Control_c, 0, 64, 109
1, 248243, Control_c, 0, 64, 87
1, 248258, Control_c, 0, 64, 71
1, 248273, Control_c, 0, 64, 56
1, 248288, Control_c, 0, 64, 40
1, 248303, Control_c, 0, 64, 17
1, 248317, Control_c, 0, 64, 0
1, 248496, Control_c, 0, 67, 17
1, 248511, Control_c, 0, 67, 21
1, 248526, Control_c, 0, 67, 22
1, 248555, Control_c, 0, 67, 21
1, 248570, Control_c, 0, 67, 19
1, 248585, Control_c, 0, 67, 18
1, 248600, Control_c, 0, 67, 17
1, 248614, Control_c, 0, 67, 16
1, 248680, Note_on_c, 0, 67, 52
1, 248682, Note_on_c, 0, 62, 48
1, 248704, Note_on_c, 0, 56, 41
1, 248705, Note_on_c, 0, 46, 40
1, 248708, Note_on_c, 0, 34, 35
1, 248732, Control_c, 0, 67, 0
1, 248753, Note_off_c, 0, 34, 59
1, 248756, Note_off_c, 0, 46, 59
1, 248798, Note_off_c, 0, 67, 54
1, 248819, Note_on_c, 0, 65, 64
1, 248850, Note_off_c, 0, 62, 40
1, 248866, Note_off_c, 0, 56, 43
1, 248876, Note_off_c, 0, 65, 58
1, 248984, Note_on_c, 0, 65, 67
1, 248987, Note_on_c, 0, 46, 55
1, 248993, Note_on_c, 0, 34, 46
1, 248993, Note_on_c, 0, 56, 45
1, 249012, Note_off_c, 0, 46, 59
1, 249023, Note_off_c, 0, 34, 50
1, 249027, Note_off_c, 0, 56, 62
1, 249051, Note_off_c, 0, 65, 59
1, 249060, Note_on_c, 0, 67, 62
1, 249105, Note_on_c, 0, 65, 57
1, 249111, Note_off_c, 0, 67, 58
1, 249189, Note_on_c, 0, 64, 65
1, 249189, Note_off_c, 0, 65, 61
1, 249270, Note_off_c, 0, 64, 59
1, 249275, Note_on_c, 0, 56, 50
1, 249277, Note_on_c, 0, 46, 52
1, 249278, Note_on_c, 0, 34, 38
1, 249280, Note_on_c, 0, 65, 63
1, 249302, Note_off_c, 0, 46, 58
1, 249307, Note_off_c, 0, 34, 49
1, 249338, Note_off_c, 0, 56, 47
1, 249425, Note_off_c, 0, 65, 59
1, 249435, Note_on_c, 0, 67, 60
1, 249486, Note_off_c, 0, 67, 56
1, 249600, Note_on_c, 0, 63, 58
1, 249608, Note_on_c, 0, 39, 36
1, 249609, Note_on_c, 0, 51, 35
1, 249659, Note_off_c, 0, 63, 54
1, 249675, Note_on_c, 0, 65, 61
1, 249758, Note_off_c, 0, 65, 59
1, 249759, Note_on_c, 0, 63, 67
1, 249831, Note_off_c, 0, 63, 57
1, 249841, Note_on_c, 0, 62, 63
1, 249871, Note_off_c, 0, 51, 30
1, 249892, Note_off_c, 0, 39, 36
1, 249937, Note_on_c, 0, 63, 66
1, 249944, Note_off_c, 0, 62, 54
1, 249989, Note_off_c, 0, 63, 56
1, 250008, Note_on_c, 0, 64, 64
1, 250065, Note_off_c, 0, 64, 51
1, 250088, Note_on_c, 0, 65, 68
1, 250148, Note_off_c, 0, 65, 59
1, 250154, Note_on_c, 0, 66, 62
1, 250205, Note_off_c, 0, 66, 60
1, 250222, Note_on_c, 0, 67, 66
1, 250275, Note_off_c, 0, 67, 58
1, 250293, Note_on_c, 0, 68, 64
1, 250352, Note_off_c, 0, 68, 58
1, 250371, Note_on_c, 0, 69, 66
1, 250420, Note_off_c, 0, 69, 63
1, 250437, Note_on_c, 0, 70, 68
1, 250476, Note_off_c, 0, 70, 61
1, 250506, Note_on_c, 0, 71, 66
1, 250557, Note_off_c, 0, 71, 60
1, 250566, Note_on_c, 0, 72, 70
1, 250626, Note_on_c, 0, 73, 70
1, 250643, Note_off_c, 0, 72, 59
1, 250688, Note_off_c, 0, 73, 63
1, 250700, Note_on_c, 0, 74, 75
1, 250746, Note_off_c, 0, 74, 60
1, 250757, Note_on_c, 0, 75, 72
1, 250792, Note_off_c, 0, 75, 58
1, 250831, Note_on_c, 0, 76, 67
1, 250873, Note_off_c, 0, 76, 60
1, 250883, Note_on_c, 0, 77, 72
1, 250939, Note_on_c, 0, 78, 74
1, 250948, Note_off_c, 0, 77, 60
1, 250995, Note_off_c, 0, 78, 62
1, 251009, Note_on_c, 0, 79, 75
1, 251069, Note_on_c, 0, 80, 78
1, 251071, Note_off_c, 0, 79, 58
1, 251101, Note_off_c, 0, 80, 54
1, 251137, Note_on_c, 0, 81, 72
1, 251165, Note_off_c, 0, 81, 64
1, 251174, Note_on_c, 0, 82, 80
1, 251217, Note_off_c, 0, 82, 58
1, 251218, Note_on_c, 0, 83, 95
1, 251253, Note_off_c, 0, 83, 66
1, 251267, Control_c, 0, 67, 28
1, 251282, Control_c, 0, 67, 40
1, 251297, Control_c, 0, 67, 48
1, 251312, Control_c, 0, 67, 53
1, 251327, Control_c, 0, 67, 55
1, 251341, Control_c, 0, 67, 56
1, 251385, Control_c, 0, 67, 56
1, 251400, Control_c, 0, 67, 57
1, 251415, Control_c, 0, 67, 58
1, 251430, Control_c, 0, 67, 61
1, 251445, Control_c, 0, 67, 65
1, 251460, Control_c, 0, 67, 67
1, 251475, Control_c, 0, 67, 70
1, 251481, Note_on_c, 0, 84, 72
1, 251484, Note_on_c, 0, 72, 38
1, 251490, Control_c, 0, 67, 72
1, 251494, Note_on_c, 0, 75, 48
1, 251504, Note_on_c, 0, 68, 38
1, 251504, Control_c, 0, 67, 76
1, 251519, Control_c, 0, 67, 81
1, 251534, Control_c, 0, 67, 85
1, 251549, Control_c, 0, 67, 88
1, 251564, Control_c, 0, 67, 88
1, 251708, Note_on_c, 0, 77, 65
1, 251735, Note_off_c, 0, 77, 63
1, 251786, Note_on_c, 0, 77, 59
1, 251946, Note_off_c, 0, 84, 34
1, 251957, Control_c, 0, 67, 88
1, 251962, Note_off_c, 0, 77, 60
1, 251963, Note_off_c, 0, 75, 61
1, 251968, Note_off_c, 0, 72, 60
1, 251972, Control_c, 0, 67, 87
1, 251972, Note_off_c, 0, 68, 57
1, 251987, Control_c, 0, 67, 86
1, 252002, Control_c, 0, 67, 86
1, 252016, Control_c, 0, 67, 85
1, 252031, Control_c, 0, 67, 84
1, 252105, Control_c, 0, 67, 84
1, 252150, Control_c, 0, 67, 83
1, 252208, Control_c, 0, 67, 83
1, 252268, Control_c, 0, 67, 82
1, 252362, Note_on_c, 0, 71, 49
1, 252387, Control_c, 0, 67, 82
1, 252427, Note_off_c, 0, 71, 58
1, 252443, Note_on_c, 0, 72, 65
1, 252445, Note_on_c, 0, 63, 41
1, 252446, Note_on_c, 0, 60, 39
1, 252467, Note_on_c, 0, 56, 36
1, 252476, Control_c, 0, 67, 81
1, 252506, Control_c, 0, 67, 81
1, 252602, Control_c, 0, 67, 80
1, 252631, Control_c, 0, 64, 17
1, 252646, Control_c, 0, 64, 18
1, 252661, Control_c, 0, 64, 18
1, 252675, Note_on_c, 0, 65, 64
1, 252676, Control_c, 0, 64, 19
1, 252676, Control_c, 0, 67, 80
1, 252691, Control_c, 0, 64, 19
1, 252703, Note_off_c, 0, 65, 63
1, 252705, Control_c, 0, 64, 21
1, 252720, Control_c, 0, 64, 22
1, 252735, Control_c, 0, 64, 22
1, 252764, Control_c, 0, 64, 23
1, 252764, Control_c, 0, 67, 79
1, 252773, Note_on_c, 0, 65, 50
1, 252838, Control_c, 0, 67, 79
1, 252898, Control_c, 0, 67, 78
1, 252912, Control_c, 0, 64, 23
1, 252912, Control_c, 0, 67, 78
1, 252927, Control_c, 0, 67, 77
1, 252935, Note_off_c, 0, 63, 36
1, 252935, Note_off_c, 0, 72, 54
1, 252942, Control_c, 0, 64, 24
1, 252942, Control_c, 0, 67, 76
1, 252956, Control_c, 0, 64, 25
1, 252956, Control_c, 0, 67, 74
1, 252971, Control_c, 0, 67, 70
1, 252974, Note_off_c, 0, 60, 57
1, 252986, Control_c, 0, 67, 62
1, 253001, Control_c, 0, 67, 51
1, 253007, Note_off_c, 0, 56, 61
1, 253010, Note_off_c, 0, 65, 62
1, 253016, Control_c, 0, 64, 25
1, 253016, Control_c, 0, 67, 40
1, 253031, Control_c, 0, 64, 26
1, 253031, Control_c, 0, 67, 30
1, 253046, Control_c, 0, 64, 26
1, 253046, Control_c, 0, 67, 24
1, 253061, Control_c, 0, 67, 23
1, 253075, Control_c, 0, 64, 27
1, 253090, Control_c, 0, 64, 27
1, 253090, Control_c, 0, 67, 22
1, 253105, Control_c, 0, 64, 28
1, 253105, Control_c, 0, 67, 22
1, 253120, Control_c, 0, 64, 29
1, 253120, Control_c, 0, 67, 20
1, 253135, Control_c, 0, 64, 31
1, 253135, Control_c, 0, 67, 18
1, 253149, Control_c, 0, 64, 35
1, 253149, Control_c, 0, 67, 16
1, 253164, Control_c, 0, 64, 41
1, 253164, Control_c, 0, 67, 38
1, 253179, Control_c, 0, 64, 46
1, 253179, Control_c, 0, 67, 36
1, 253194, Control_c, 0, 64, 50
1, 253194, Control_c, 0, 67, 34
1, 253209, Control_c, 0, 64, 52
1, 253209, Control_c, 0, 67, 31
1, 253224, Control_c, 0, 64, 53
1, 253224, Control_c, 0, 67, 30
1, 253239, Control_c, 0, 64, 53
1, 253239, Control_c, 0, 67, 29
1, 253254, Control_c, 0, 64, 54
1, 253269, Control_c, 0, 64, 55
1, 253284, Control_c, 0, 64, 56
1, 253299, Control_c, 0, 64, 57
1, 253321, Control_c, 0, 64, 58
1, 253335, Control_c, 0, 64, 59
1, 253350, Control_c, 0, 64, 60
1, 253365, Control_c, 0, 64, 60
1, 253379, Control_c, 0, 64, 61
1, 253394, Control_c, 0, 64, 61
1, 253409, Control_c, 0, 64, 62
1, 253424, Control_c, 0, 64, 63
1, 253424, Control_c, 0, 67, 28
1, 253439, Control_c, 0, 64, 64
1, 253454, Control_c, 0, 64, 65
1, 253469, Control_c, 0, 64, 65
1, 253484, Control_c, 0, 64, 66
1, 253484, Control_c, 0, 67, 28
1, 253499, Control_c, 0, 64, 67
1, 253499, Control_c, 0, 67, 27
1, 253514, Control_c, 0, 64, 69
1, 253514, Control_c, 0, 67, 25
1, 253517, Note_on_c, 0, 32, 30
1, 253523, Note_on_c, 0, 53, 39
1, 253526, Note_on_c, 0, 44, 40
1, 253528, Note_on_c, 0, 48, 28
1, 253528, Control_c, 0, 64, 73
1, 253528, Control_c, 0, 67, 24
1, 253531, Note_on_c, 0, 51, 38
1, 253543, Control_c, 0, 64, 78
1, 253543, Control_c, 0, 67, 22
1, 253558, Control_c, 0, 64, 85
1, 253558, Control_c, 0, 67, 20
1, 253573, Control_c, 0, 64, 95
1, 253573, Control_c, 0, 67, 18
1, 253587, Control_c, 0, 64, 107
1, 253587, Control_c, 0, 67, 17
1, 253602, Control_c, 0, 64, 127
1, 253602, Control_c, 0, 67, 16
1, 253650, Note_off_c, 0, 32, 31
1, 253653, Note_off_c, 0, 44, 33
1, 253717, Note_off_c, 0, 51, 54
1, 253722, Note_off_c, 0, 48, 38
1, 253757, Note_off_c, 0, 53, 34
1, 253937, Note_on_c, 0, 32, 37
1, 253940, Note_on_c, 0, 51, 47
1, 253942, Note_on_c, 0, 53, 59
1, 253943, Control_c, 0, 64, 106
1, 253950, Note_on_c, 0, 44, 44
1, 253954, Note_on_c, 0, 48, 39
1, 253958, Control_c, 0, 64, 89
1, 253972, Control_c, 0, 64, 79
1, 253987, Control_c, 0, 64, 76
1, 254002, Control_c, 0, 64, 78
1, 254017, Note_off_c, 0, 32, 54
1, 254017, Control_c, 0, 64, 86
1, 254026, Note_off_c, 0, 44, 53
1, 254032, Control_c, 0, 64, 101
1, 254055, Control_c, 0, 64, 127
1, 254126, Note_off_c, 0, 51, 52
1, 254128, Note_off_c, 0, 53, 52
1, 254129, Control_c, 0, 67, 0
1, 254134, Note_off_c, 0, 48, 33
1, 254351, Control_c, 0, 64, 99
1, 254366, Control_c, 0, 64, 79
1, 254378, Note_on_c, 0, 51, 38
1, 254378, Note_on_c, 0, 32, 29
1, 254378, Note_on_c, 0, 53, 58
1, 254381, Control_c, 0, 64, 66
1, 254382, Note_on_c, 0, 44, 38
1, 254387, Note_on_c, 0, 48, 34
1, 254396, Control_c, 0, 64, 63
1, 254411, Control_c, 0, 64, 63
1, 254426, Control_c, 0, 64, 67
1, 254441, Control_c, 0, 64, 73
1, 254456, Control_c, 0, 64, 87
1, 254470, Control_c, 0, 64, 127
1, 254545, Note_off_c, 0, 32, 41
1, 254545, Note_off_c, 0, 44, 43
1, 254569, Note_off_c, 0, 48, 39
1, 254587, Note_off_c, 0, 51, 35
1, 254879, Control_c, 0, 64, 118
1, 254884, Note_on_c, 0, 54, 58
1, 254887, Note_on_c, 0, 51, 43
1, 254894, Control_c, 0, 64, 93
1, 254895, Note_on_c, 0, 45, 42
1, 254897, Note_on_c, 0, 48, 41
1, 254908, Control_c, 0, 64, 75
1, 254912, Note_on_c, 0, 33, 36
1, 254921, Note_off_c, 0, 53, 46
1, 254923, Control_c, 0, 64, 65
1, 254938, Control_c, 0, 64, 56
1, 254952, Control_c, 0, 64, 49
1, 254967, Control_c, 0, 64, 46
1, 254982, Control_c, 0, 64, 43
1, 254997, Control_c, 0, 64, 40
1, 255012, Control_c, 0, 64, 37
1, 255026, Control_c, 0, 64, 32
1, 255041, Control_c, 0, 64, 28
1, 255056, Control_c, 0, 64, 26
1, 255071, Control_c, 0, 64, 25
1, 255159, Control_c, 0, 64, 26
1, 255174, Control_c, 0, 64, 35
1, 255189, Control_c, 0, 64, 49
1, 255204, Control_c, 0, 64, 63
1, 255219, Control_c, 0, 64, 69
1, 255234, Control_c, 0, 64, 74
1, 255248, Control_c, 0, 64, 82
1, 255263, Control_c, 0, 64, 93
1, 255278, Control_c, 0, 64, 127
1, 255317, Note_off_c, 0, 33, 39
1, 255336, Note_off_c, 0, 48, 41
1, 255365, Note_off_c, 0, 45, 40
1, 255420, Note_off_c, 0, 51, 34
1, 255425, Note_off_c, 0, 54, 52
1, 255775, Control_c, 0, 67, 17
1, 255790, Control_c, 0, 67, 19
1, 255805, Control_c, 0, 67, 21
1, 255820, Control_c, 0, 67, 24
1, 255835, Control_c, 0, 67, 27
1, 255849, Control_c, 0, 67, 29
1, 255864, Control_c, 0, 67, 30
1, 255879, Control_c, 0, 67, 31
1, 255894, Control_c, 0, 67, 32
1, 255909, Control_c, 0, 64, 120
1, 255909, Control_c, 0, 67, 33
1, 255923, Control_c, 0, 64, 116
1, 255923, Control_c, 0, 67, 34
1, 255938, Control_c, 0, 64, 115
1, 255938, Control_c, 0, 67, 36
1, 255953, Control_c, 0, 64, 114
1, 255953, Control_c, 0, 67, 37
1, 255968, Control_c, 0, 64, 112
1, 255968, Control_c, 0, 67, 37
1, 255982, Control_c, 0, 64, 110
1, 255982, Control_c, 0, 67, 38
1, 255997, Control_c, 0, 64, 110
1, 255997, Control_c, 0, 67, 39
1, 256012, Control_c, 0, 67, 40
1, 256027, Control_c, 0, 67, 41
1, 256042, Control_c, 0, 67, 43
1, 256056, Control_c, 0, 67, 46
1, 256071, Control_c, 0, 67, 49
1, 256086, Control_c, 0, 67, 52
1, 256101, Control_c, 0, 67, 55
1, 256116, Control_c, 0, 67, 56
1, 256131, Control_c, 0, 67, 57
1, 256316, Control_c, 0, 64, 109
1, 256331, Control_c, 0, 64, 108
1, 256345, Control_c, 0, 64, 105
1, 256360, Control_c, 0, 64, 101
1, 256375, Control_c, 0, 64, 94
1, 256384, Note_on_c, 0, 78, 55
1, 256385, Note_on_c, 0, 75, 52
1, 256390, Control_c, 0, 64, 83
1, 256405, Control_c, 0, 64, 71
1, 256405, Control_c, 0, 67, 56
1, 256406, Note_on_c, 0, 69, 29
1, 256415, Note_on_c, 0, 72, 32
1, 256420, Control_c, 0, 64, 62
1, 256435, Control_c, 0, 64, 56
1, 256435, Control_c, 0, 67, 56
1, 256465, Control_c, 0, 67, 55
1, 256480, Control_c, 0, 64, 59
1, 256480, Control_c, 0, 67, 55
1, 256495, Control_c, 0, 64, 64
1, 256495, Control_c, 0, 67, 54
1, 256509, Control_c, 0, 64, 72
1, 256509, Control_c, 0, 67, 54
1, 256524, Note_off_c, 0, 69, 55
1, 256524, Control_c, 0, 64, 85
1, 256524, Control_c, 0, 67, 53
1, 256539, Control_c, 0, 64, 127
1, 256539, Control_c, 0, 67, 53
1, 256542, Note_off_c, 0, 72, 49
1, 256554, Control_c, 0, 67, 52
1, 256571, Note_off_c, 0, 75, 59
1, 256584, Control_c, 0, 67, 52
1, 256584, Note_off_c, 0, 78, 57
1, 256613, Control_c, 0, 67, 51
1, 256628, Control_c, 0, 67, 51
1, 256879, Control_c, 0, 64, 100
1, 256890, Note_on_c, 0, 78, 68
1, 256893, Note_on_c, 0, 75, 61
1, 256894, Control_c, 0, 64, 79
1, 256904, Note_on_c, 0, 72, 48
1, 256909, Control_c, 0, 64, 66
1, 256909, Control_c, 0, 67, 50
1, 256924, Control_c, 0, 64, 61
1, 256924, Control_c, 0, 67, 50
1, 256930, Note_on_c, 0, 69, 26
1, 256939, Control_c, 0, 64, 62
1, 256954, Control_c, 0, 64, 66
1, 256968, Control_c, 0, 64, 74
1, 256983, Control_c, 0, 64, 89
1, 256998, Control_c, 0, 64, 127
1, 257015, Note_off_c, 0, 72, 57
1, 257024, Note_off_c, 0, 69, 53
1, 257061, Note_off_c, 0, 75, 59
1, 257073, Note_off_c, 0, 78, 60
1, 257138, Control_c, 0, 67, 50
1, 257168, Control_c, 0, 67, 51
1, 257302, Control_c, 0, 67, 51
1, 257481, Control_c, 0, 64, 102
1, 257484, Note_on_c, 0, 78, 68
1, 257489, Note_on_c, 0, 75, 56
1, 257495, Control_c, 0, 64, 79
1, 257499, Note_on_c, 0, 72, 44
1, 257506, Note_on_c, 0, 69, 40
1, 257510, Control_c, 0, 64, 64
1, 257525, Control_c, 0, 64, 57
1, 257540, Control_c, 0, 64, 57
1, 257554, Control_c, 0, 64, 59
1, 257569, Control_c, 0, 64, 64
1, 257584, Control_c, 0, 64, 68
1, 257599, Control_c, 0, 64, 76
1, 257612, Note_off_c, 0, 72, 55
1, 257614, Control_c, 0, 64, 91
1, 257628, Control_c, 0, 64, 127
1, 257642, Note_off_c, 0, 69, 36
1, 257719, Note_off_c, 0, 75, 54
1, 257758, Note_off_c, 0, 78, 55
1, 257776, Control_c, 0, 67, 52
1, 257887, Control_c, 0, 67, 52
1, 257902, Control_c, 0, 67, 53
1, 257991, Control_c, 0, 67, 53
1, 258021, Control_c, 0, 67, 54
1, 258051, Control_c, 0, 67, 54
1, 258081, Control_c, 0, 67, 55
1, 258214, Control_c, 0, 64, 124
1, 258229, Control_c, 0, 64, 117
1, 258229, Control_c, 0, 67, 55
1, 258244, Control_c, 0, 64, 112
1, 258259, Control_c, 0, 64, 109
1, 258274, Control_c, 0, 64, 107
1, 258289, Control_c, 0, 64, 106
1, 258303, Control_c, 0, 64, 105
1, 258318, Control_c, 0, 64, 103
1, 258333, Control_c, 0, 64, 100
1, 258348, Control_c, 0, 64, 97
1, 258363, Control_c, 0, 64, 95
1, 258377, Control_c, 0, 64, 93
1, 258392, Control_c, 0, 64, 92
1, 258402, Note_on_c, 0, 79, 49
1, 258407, Control_c, 0, 64, 90
1, 258409, Note_on_c, 0, 75, 45
1, 258417, Note_on_c, 0, 70, 36
1, 258422, Control_c, 0, 64, 86
1, 258422, Control_c, 0, 67, 55
1, 258437, Control_c, 0, 64, 81
1, 258451, Control_c, 0, 64, 75
1, 258466, Control_c, 0, 64, 69
1, 258481, Control_c, 0, 64, 64
1, 258495, Control_c, 0, 64, 61
1, 258510, Control_c, 0, 64, 57
1, 258525, Control_c, 0, 64, 55
1, 258548, Control_c, 0, 64, 52
1, 258563, Control_c, 0, 64, 50
1, 258577, Control_c, 0, 64, 46
1, 258577, Control_c, 0, 67, 54
1, 258592, Control_c, 0, 64, 43
1, 258607, Control_c, 0, 64, 41
1, 258622, Control_c, 0, 64, 40
1, 258637, Control_c, 0, 64, 40
1, 258637, Control_c, 0, 67, 54
1, 258666, Control_c, 0, 67, 53
1, 258681, Control_c, 0, 64, 39
1, 258681, Control_c, 0, 67, 53
1, 258695, Control_c, 0, 64, 38
1, 258695, Control_c, 0, 67, 52
1, 258710, Control_c, 0, 64, 38
1, 258710, Control_c, 0, 67, 51
1, 258716, Note_off_c, 0, 70, 57
1, 258720, Note_off_c, 0, 79, 60
1, 258724, Note_off_c, 0, 75, 61
1, 258725, Control_c, 0, 64, 37
1, 258725, Control_c, 0, 67, 50
1, 258740, Control_c, 0, 67, 50
1, 258755, Control_c, 0, 64, 37
1, 258755, Control_c, 0, 67, 49
1, 258769, Control_c, 0, 64, 36
1, 258769, Control_c, 0, 67, 49
1, 258814, Control_c, 0, 64, 36
1, 258874, Control_c, 0, 64, 35
1, 259037, Control_c, 0, 67, 49
1, 259160, Note_on_c, 0, 75, 48
1, 259161, Note_on_c, 0, 72, 40
1, 259161, Note_on_c, 0, 78, 61
1, 259173, Note_on_c, 0, 69, 39
1, 259318, Note_off_c, 0, 75, 35
1, 259415, Control_c, 0, 67, 49
1, 259474, Control_c, 0, 67, 48
1, 259504, Control_c, 0, 67, 48
1, 259509, Note_off_c, 0, 69, 40
1, 259519, Note_on_c, 0, 79, 62
1, 259525, Note_on_c, 0, 75, 60
1, 259529, Note_on_c, 0, 70, 43
1, 259544, Note_off_c, 0, 78, 55
1, 259578, Control_c, 0, 67, 47
1, 259591, Note_off_c, 0, 72, 47
1, 259607, Control_c, 0, 67, 47
1, 259653, Control_c, 0, 67, 46
1, 259697, Control_c, 0, 67, 46
1, 259735, Note_off_c, 0, 79, 60
1, 259736, Note_off_c, 0, 70, 59
1, 259741, Note_off_c, 0, 75, 61
1, 259741, Control_c, 0, 67, 45
1, 259801, Control_c, 0, 67, 45
1, 259815, Control_c, 0, 67, 44
1, 259845, Control_c, 0, 67, 43
1, 259860, Control_c, 0, 67, 42
1, 259875, Control_c, 0, 67, 41
1, 259890, Control_c, 0, 67, 40
1, 259905, Control_c, 0, 67, 40
1, 259920, Control_c, 0, 67, 39
1, 259949, Control_c, 0, 67, 39
1, 260023, Control_c, 0, 64, 36
1, 260104, Control_c, 0, 64, 36
1, 260164, Control_c, 0, 64, 37
1, 260178, Note_on_c, 0, 72, 44
1, 260185, Note_on_c, 0, 78, 75
1, 260188, Note_on_c, 0, 69, 44
1, 260194, Control_c, 0, 64, 37
1, 260200, Note_on_c, 0, 75, 57
1, 260209, Control_c, 0, 64, 38
1, 260224, Control_c, 0, 64, 39
1, 260239, Control_c, 0, 64, 40
1, 260253, Control_c, 0, 64, 41
1, 260268, Control_c, 0, 64, 42
1, 260283, Control_c, 0, 64, 42
1, 260328, Control_c, 0, 64, 43
1, 260342, Control_c, 0, 67, 38
1, 260417, Control_c, 0, 64, 43
1, 260477, Control_c, 0, 64, 44
1, 260564, Note_off_c, 0, 75, 38
1, 260595, Control_c, 0, 67, 38
1, 260669, Control_c, 0, 67, 37
1, 260677, Note_on_c, 0, 79, 65
1, 260688, Note_on_c, 0, 70, 43
1, 260713, Note_off_c, 0, 78, 60
1, 260728, Control_c, 0, 67, 37
1, 260741, Note_off_c, 0, 69, 44
1, 260772, Control_c, 0, 67, 36
1, 260781, Note_off_c, 0, 72, 44
1, 260810, Control_c, 0, 67, 36
1, 260840, Control_c, 0, 67, 35
1, 260869, Control_c, 0, 67, 35
1, 260884, Control_c, 0, 67, 34
1, 260912, Control_c, 0, 67, 33
1, 260972, Control_c, 0, 67, 33
1, 261105, Control_c, 0, 67, 32
1, 261209, Control_c, 0, 67, 32
1, 261255, Control_c, 0, 67, 31
1, 261284, Control_c, 0, 67, 31
1, 261299, Control_c, 0, 64, 43
1, 261328, Control_c, 0, 67, 30
1, 261343, Control_c, 0, 67, 27
1, 261358, Control_c, 0, 64, 43
1, 261358, Control_c, 0, 67, 19
1, 261373, Control_c, 0, 64, 42
1, 261387, Control_c, 0, 64, 42
1, 261387, Control_c, 0, 67, 0
1, 261402, Control_c, 0, 64, 40
1, 261417, Control_c, 0, 64, 40
1, 261422, Note_off_c, 0, 70, 42
1, 261432, Control_c, 0, 64, 39
1, 261447, Control_c, 0, 64, 38
1, 261461, Control_c, 0, 64, 37
1, 261476, Control_c, 0, 64, 36
1, 261506, Control_c, 0, 64, 36
1, 261520, Control_c, 0, 64, 35
1, 261546, Note_on_c, 0, 80, 54
1, 261556, Note_off_c, 0, 79, 48
1, 261558, Control_c, 0, 64, 35
1, 261616, Note_off_c, 0, 80, 56
1, 261620, Note_on_c, 0, 82, 62
1, 261646, Control_c, 0, 64, 34
1, 261665, Note_on_c, 0, 79, 69
1, 261690, Note_off_c, 0, 82, 43
1, 261691, Control_c, 0, 64, 34
1, 261730, Note_off_c, 0, 79, 59
1, 261747, Note_on_c, 0, 76, 67
1, 261795, Control_c, 0, 64, 33
1, 261813, Note_on_c, 0, 77, 70
1, 261814, Note_off_c, 0, 76, 40
1, 261869, Note_on_c, 0, 79, 64
1, 261888, Note_off_c, 0, 77, 54
1, 261938, Note_on_c, 0, 75, 68
1, 261965, Note_off_c, 0, 79, 56
1, 261972, Note_on_c, 0, 65, 54
1, 261975, Note_on_c, 0, 68, 53
1, 261988, Note_on_c, 0, 58, 42
1, 262002, Control_c, 0, 64, 33
1, 262009, Note_on_c, 0, 73, 77
1, 262025, Note_off_c, 0, 75, 59
1, 262075, Note_off_c, 0, 73, 62
1, 262076, Note_on_c, 0, 74, 77
1, 262143, Note_off_c, 0, 74, 60
1, 262146, Note_on_c, 0, 75, 74
1, 262207, Note_off_c, 0, 68, 52
1, 262210, Note_on_c, 0, 72, 78
1, 262228, Note_off_c, 0, 75, 61
1, 262240, Note_off_c, 0, 65, 58
1, 262277, Note_off_c, 0, 58, 59
1, 262277, Note_off_c, 0, 72, 62
1, 262282, Note_on_c, 0, 69, 75
1, 262359, Note_off_c, 0, 69, 62
1, 262392, Note_on_c, 0, 70, 21
1, 262397, Note_on_c, 0, 71, 22
1, 262411, Note_off_c, 0, 70, 36
1, 262418, Note_on_c, 0, 72, 59
1, 262421, Note_on_c, 0, 74, 66
1, 262434, Note_off_c, 0, 71, 40
1, 262462, Note_off_c, 0, 74, 58
1, 262476, Note_on_c, 0, 68, 80
1, 262488, Note_off_c, 0, 72, 59
1, 262516, Note_off_c, 0, 68, 61
1, 262576, Note_on_c, 0, 56, 78
1, 262580, Note_on_c, 0, 46, 69
1, 262582, Note_on_c, 0, 66, 64
1, 262600, Note_off_c, 0, 56, 67
1, 262608, Note_off_c, 0, 46, 65
1, 262633, Note_on_c, 0, 67, 71
1, 262639, Note_off_c, 0, 66, 63
1, 262698, Note_off_c, 0, 67, 61
1, 262712, Note_on_c, 0, 68, 71
1, 262722, Control_c, 0, 64, 32
1, 262737, Control_c, 0, 64, 31
1, 262751, Control_c, 0, 64, 30
1, 262766, Control_c, 0, 64, 29
1, 262781, Control_c, 0, 64, 28
1, 262781, Note_off_c, 0, 68, 58
1, 262787, Note_on_c, 0, 65, 51
1, 262795, Control_c, 0, 64, 27
1, 262811, Control_c, 0, 64, 27
1, 262812, Note_off_c, 0, 65, 59
1, 262826, Control_c, 0, 64, 26
1, 262841, Control_c, 0, 64, 25
1, 262856, Control_c, 0, 64, 24
1, 262871, Control_c, 0, 64, 23
1, 262884, Note_on_c, 0, 63, 73
1, 262885, Control_c, 0, 64, 22
1, 262888, Note_on_c, 0, 51, 47
1, 262895, Note_on_c, 0, 55, 62
1, 262900, Control_c, 0, 64, 21
1, 262915, Control_c, 0, 64, 21
1, 262930, Control_c, 0, 64, 20
1, 262934, Note_off_c, 0, 51, 60
1, 262959, Control_c, 0, 64, 20
1, 262960, Note_on_c, 0, 53, 63
1, 262974, Control_c, 0, 64, 19
1, 263004, Control_c, 0, 64, 19
1, 263028, Note_off_c, 0, 53, 58
1, 263041, Control_c, 0, 64, 18
1, 263049, Note_on_c, 0, 51, 63
1, 263055, Control_c, 0, 64, 18
1, 263056, Note_off_c, 0, 55, 54
1, 263097, Note_off_c, 0, 63, 59
1, 263112, Note_off_c, 0, 51, 57
1, 263114, Note_on_c, 0, 50, 66
1, 263130, Control_c, 0, 64, 0
1, 263178, Note_on_c, 0, 51, 66
1, 263181, Note_off_c, 0, 50, 60
1, 263237, Note_on_c, 0, 53, 66
1, 263243, Note_off_c, 0, 51, 59
1, 263292, Note_off_c, 0, 53, 57
1, 263315, Note_on_c, 0, 55, 71
1, 263391, Note_off_c, 0, 55, 58
1, 263396, Note_on_c, 0, 56, 67
1, 263452, Note_off_c, 0, 56, 61
1, 263458, Note_on_c, 0, 58, 79
1, 263481, Note_off_c, 0, 58, 66
1, 263616, Note_on_c, 0, 55, 57
1, 263648, Note_off_c, 0, 55, 62
1, 263754, Note_on_c, 0, 70, 64
1, 263763, Note_on_c, 0, 53, 66
1, 263799, Note_off_c, 0, 53, 66
1, 263826, Note_off_c, 0, 70, 57
1, 263846, Note_on_c, 0, 72, 67
1, 263917, Note_on_c, 0, 56, 59
1, 263917, Note_on_c, 0, 70, 63
1, 263925, Note_off_c, 0, 72, 60
1, 263947, Note_off_c, 0, 56, 65
1, 263976, Note_off_c, 0, 70, 58
1, 263978, Note_on_c, 0, 69, 74
1, 264043, Note_on_c, 0, 70, 77
1, 264047, Note_on_c, 0, 50, 60
1, 264063, Note_off_c, 0, 69, 62
1, 264081, Note_off_c, 0, 50, 62
1, 264110, Note_off_c, 0, 70, 59
1, 264121, Note_on_c, 0, 72, 79
1, 264188, Note_on_c, 0, 53, 65
1, 264193, Note_on_c, 0, 74, 83
1, 264201, Note_off_c, 0, 72, 62
1, 264218, Note_off_c, 0, 53, 64
1, 264264, Note_on_c, 0, 75, 78
1, 264269, Note_off_c, 0, 74, 63
1, 264321, Note_on_c, 0, 77, 74
1, 264323, Note_off_c, 0, 75, 63
1, 264337, Note_on_c, 0, 46, 62
1, 264342, Note_off_c, 0, 77, 68
1, 264365, Note_off_c, 0, 46, 64
1, 264485, Note_on_c, 0, 50, 56
1, 264495, Note_on_c, 0, 68, 71
1, 264510, Note_off_c, 0, 50, 60
1, 264519, Note_off_c, 0, 68, 65
1, 264650, Note_on_c, 0, 51, 46
1, 264653, Note_on_c, 0, 67, 64
1, 264692, Note_off_c, 0, 51, 62
1, 264724, Note_on_c, 0, 53, 67
1, 264789, Note_off_c, 0, 53, 57
1, 264796, Note_on_c, 0, 51, 64
1, 264815, Note_off_c, 0, 67, 60
1, 264859, Note_off_c, 0, 51, 59
1, 264862, Note_on_c, 0, 50, 68
1, 264933, Note_on_c, 0, 51, 66
1, 264939, Note_off_c, 0, 50, 62
1, 264999, Note_on_c, 0, 53, 77
1, 265000, Note_off_c, 0, 51, 61
1, 265045, Note_off_c, 0, 53, 59
1, 265065, Note_on_c, 0, 55, 75
1, 265132, Note_off_c, 0, 55, 58
1, 265140, Note_on_c, 0, 56, 74
1, 265211, Note_off_c, 0, 56, 61
1, 265226, Note_on_c, 0, 60, 85
1, 265303, Note_off_c, 0, 60, 50
1, 265306, Note_on_c, 0, 58, 81
1, 265379, Note_on_c, 0, 56, 73
1, 265382, Note_off_c, 0, 58, 61
1, 265471, Note_on_c, 0, 55, 58
1, 265476, Note_off_c, 0, 56, 62
1, 265523, Note_on_c, 0, 53, 80
1, 265527, Note_off_c, 0, 55, 60
1, 265535, Note_on_c, 0, 82, 80
1, 265551, Note_off_c, 0, 53, 65
1, 265608, Note_off_c, 0, 82, 61
1, 265616, Note_on_c, 0, 84, 79
1, 265679, Note_on_c, 0, 82, 78
1, 265685, Note_on_c, 0, 56, 65
1, 265694, Note_off_c, 0, 84, 61
1, 265717, Note_off_c, 0, 56, 65
1, 265747, Note_on_c, 0, 81, 80
1, 265747, Note_off_c, 0, 82, 63
1, 265810, Note_on_c, 0, 82, 85
1, 265811, Note_on_c, 0, 50, 71
1, 265832, Note_off_c, 0, 81, 62
1, 265837, Note_off_c, 0, 50, 66
1, 265866, Note_off_c, 0, 82, 61
1, 265890, Note_on_c, 0, 84, 83
1, 265958, Note_on_c, 0, 53, 71
1, 265962, Note_on_c, 0, 86, 85
1, 265968, Note_off_c, 0, 84, 58
1, 265986, Note_off_c, 0, 53, 65
1, 266042, Note_on_c, 0, 87, 84
1, 266050, Note_off_c, 0, 86, 63
1, 266096, Note_off_c, 0, 87, 64
1, 266104, Note_on_c, 0, 46, 69
1, 266106, Note_on_c, 0, 89, 88
1, 266132, Note_off_c, 0, 46, 64
1, 266183, Note_on_c, 0, 86, 74
1, 266186, Note_off_c, 0, 89, 56
1, 266209, Note_on_c, 0, 84, 46
1, 266210, Note_off_c, 0, 84, 127
1, 266245, Note_on_c, 0, 50, 62
1, 266249, Note_on_c, 0, 82, 83
1, 266264, Note_off_c, 0, 86, 61
1, 266275, Note_off_c, 0, 50, 64
1, 266329, Note_on_c, 0, 80, 72
1, 266344, Note_off_c, 0, 82, 57
1, 266409, Note_on_c, 0, 51, 56
1, 266412, Note_on_c, 0, 79, 72
1, 266419, Note_off_c, 0, 80, 60
1, 266443, Note_off_c, 0, 51, 63
1, 266445, Note_off_c, 0, 79, 61
1, 266550, Note_on_c, 0, 46, 54
1, 266598, Note_off_c, 0, 46, 58
1, 266695, Note_on_c, 0, 43, 61
1, 266731, Note_off_c, 0, 43, 62
1, 266863, Note_on_c, 0, 51, 68
1, 266871, Note_on_c, 0, 63, 88
1, 266892, Note_off_c, 0, 51, 67
1, 266923, Note_off_c, 0, 63, 62
1, 267022, Note_on_c, 0, 46, 60
1, 267035, Note_on_c, 0, 58, 70
1, 267062, Note_off_c, 0, 46, 61
1, 267067, Note_off_c, 0, 58, 61
1, 267169, Note_on_c, 0, 55, 62
1, 267178, Note_on_c, 0, 67, 67
1, 267203, Note_off_c, 0, 55, 61
1, 267216, Note_off_c, 0, 67, 58
1, 267332, Note_on_c, 0, 63, 61
1, 267335, Note_on_c, 0, 51, 52
1, 267369, Note_off_c, 0, 63, 60
1, 267372, Note_off_c, 0, 51, 62
1, 267479, Note_on_c, 0, 70, 63
1, 267484, Note_on_c, 0, 58, 60
1, 267516, Note_off_c, 0, 58, 63
1, 267517, Note_off_c, 0, 70, 56
1, 267634, Note_on_c, 0, 55, 68
1, 267636, Note_on_c, 0, 67, 66
1, 267658, Note_off_c, 0, 67, 62
1, 267664, Note_off_c, 0, 55, 62
1, 267792, Note_on_c, 0, 75, 89
1, 267798, Note_on_c, 0, 63, 77
1, 267829, Note_off_c, 0, 63, 65
1, 267844, Note_off_c, 0, 75, 63
1, 267942, Note_on_c, 0, 70, 67
1, 267958, Note_on_c, 0, 58, 49
1, 267983, Note_off_c, 0, 70, 59
1, 267993, Note_off_c, 0, 58, 61
1, 268087, Note_on_c, 0, 79, 74
1, 268104, Note_on_c, 0, 67, 41
1, 268128, Note_off_c, 0, 79, 61
1, 268130, Note_off_c, 0, 67, 50
1, 268236, Note_on_c, 0, 63, 54
1, 268244, Note_on_c, 0, 75, 70
1, 268281, Note_off_c, 0, 63, 61
1, 268288, Note_off_c, 0, 75, 58
1, 268384, Note_on_c, 0, 70, 61
1, 268393, Note_on_c, 0, 82, 74
1, 268413, Note_off_c, 0, 70, 64
1, 268433, Note_off_c, 0, 82, 61
1, 268537, Note_on_c, 0, 79, 80
1, 268539, Note_on_c, 0, 67, 60
1, 268570, Note_off_c, 0, 67, 63
1, 268576, Note_off_c, 0, 79, 63
1, 268684, Note_on_c, 0, 87, 84
1, 268689, Note_on_c, 0, 75, 66
1, 268713, Note_off_c, 0, 75, 66
1, 268715, Note_off_c, 0, 87, 64
1, 268924, Note_on_c, 0, 58, 94
1, 268926, Note_on_c, 0, 74, 102
1, 268930, Note_on_c, 0, 46, 86
1, 268930, Note_on_c, 0, 65, 98
1, 268930, Note_on_c, 0, 68, 98
1, 268948, Control_c, 0, 64, 63
1, 268963, Control_c, 0, 64, 99
1, 268968, Note_off_c, 0, 58, 63
1, 268978, Control_c, 0, 64, 127
1, 268979, Note_off_c, 0, 65, 63
1, 268987, Note_off_c, 0, 46, 61
1, 268999, Note_off_c, 0, 68, 65
1, 269009, Note_off_c, 0, 74, 62
1, 269029, Control_c, 0, 64, 111
1, 269044, Control_c, 0, 64, 83
1, 269057, Poly_aftertouch_c, 0, 53, 0
1, 269059, Control_c, 0, 64, 59
1, 269074, Control_c, 0, 64, 0
1, 269470, Note_on_c, 0, 75, 98
1, 269472, Note_on_c, 0, 63, 95
1, 269472, Note_on_c, 0, 67, 96
1, 269472, Note_on_c, 0, 70, 88
1, 269479, Note_on_c, 0, 51, 96
1, 269483, Note_on_c, 0, 39, 90
1, 269505, Control_c, 0, 64, 96
1, 269520, Control_c, 0, 64, 127
1, 269545, Note_off_c, 0, 51, 65
1, 269565, Note_off_c, 0, 39, 64
1, 269571, Poly_aftertouch_c, 0, 46, 127
1, 269588, Note_off_c, 0, 63, 63
1, 269603, Poly_aftertouch_c, 0, 46, 0
1, 269603, Note_off_c, 0, 67, 65
1, 269616, Note_off_c, 0, 75, 63
1, 269619, Note_off_c, 0, 70, 63
1, 269652, Control_c, 0, 64, 86
1, 269667, Control_c, 0, 64, 54
1, 269682, Control_c, 0, 64, 0
1, 270988, Control_c, 0, 67, 19
1, 271003, Control_c, 0, 67, 25
1, 271018, Control_c, 0, 67, 31
1, 271032, Control_c, 0, 67, 38
1, 271047, Control_c, 0, 67, 45
1, 271062, Control_c, 0, 67, 51
1, 271077, Control_c, 0, 67, 57
1, 271092, Control_c, 0, 67, 59
1, 271107, Control_c, 0, 67, 62
1, 271122, Control_c, 0, 67, 63
1, 271137, Control_c, 0, 67, 65
1, 271151, Control_c, 0, 67, 67
1, 271166, Control_c, 0, 67, 68
1, 271211, Control_c, 0, 67, 67
1, 271226, Control_c, 0, 67, 66
1, 271240, Control_c, 0, 67, 65
1, 271255, Control_c, 0, 67, 63
1, 271277, Control_c, 0, 67, 62
1, 271292, Control_c, 0, 67, 59
1, 271307, Control_c, 0, 67, 57
1, 271322, Control_c, 0, 67, 54
1, 271336, Control_c, 0, 67, 51
1, 271351, Control_c, 0, 67, 46
1, 271366, Control_c, 0, 67, 40
1, 271380, Control_c, 0, 67, 38
1, 271395, Control_c, 0, 67, 33
1, 271410, Control_c, 0, 67, 24
1, 271424, Control_c, 0, 67, 17
1, 271454, Control_c, 0, 67, 0
1, 271454, End_track
0, 0, End_of_file
