0, 0, Header, 0, 1, 384
1, 0, Start_track
1, 0, Title_t, "Sonata K. 330--Xuan Amy Zhang      "
1, 0, Text_t, "2008 e-Piano Junior Competition virtual audition round"
1, 0, Text_t, "recorded January and February 2008"
1, 0, Text_t, "http://www.piano-e-competition.com/"
1, 0, Text_t, "File processed for distribution by software from Zenph Studios, Inc., http://www.zenph.com"
1, 0, Instrument_name_t, "Yamaha Disklavier Pro Mark IV concert grand piano, model DCFIIISM4PRO"
1, 0, Sequencer_specific, 39, 67, 113, 0, 1, 0, 1, 0, 83, 111, 110, 97, 116, 97, 32, 75, 46, 32, 51, 51, 48, 32, 32, 32, 88, 117, 97, 110, 32, 65, 109, 121, 32, 90, 104, 97, 110, 103, 32, 32
1, 0, Sequencer_specific, 6, 67, 113, 0, 0, 0, 69
1, 0, System_exclusive, 21, 67, 113, 126, 21, 0, 2, 2, 1, 9, 14, 1, 4, 0, 14, 13, 0, 14, 4, 9, 2, 247
1, 0, Sequencer_specific, 5, 67, 123, 12, 2, 1
1, 0, Tempo, 512820
1, 0, Time_signature, 4, 2, 24, 8
1, 0, System_exclusive, 5, 126, 127, 9, 1, 247
1, 1, System_exclusive, 8, 67, 16, 76, 0, 0, 126, 0, 247
1, 2, System_exclusive, 8, 67, 16, 76, 8, 9, 7, 1, 247
1, 3, Control_c, 0, 0, 0
1, 3, Control_c, 1, 0, 0
1, 3, Control_c, 2, 0, 0
1, 3, Control_c, 3, 0, 0
1, 3, Control_c, 4, 0, 0
1, 3, Control_c, 5, 0, 0
1, 3, Control_c, 6, 0, 0
1, 3, Control_c, 7, 0, 0
1, 3, Control_c, 8, 0, 0
1, 3, Control_c, 9, 0, 127
1, 3, Control_c, 10, 0, 0
1, 3, Control_c, 11, 0, 0
1, 3, Control_c, 12, 0, 0
1, 3, Control_c, 13, 0, 0
1, 3, Control_c, 14, 0, 0
1, 3, Control_c, 15, 0, 0
1, 4, Control_c, 0, 32, 0
1, 4, Control_c, 1, 32, 0
1, 4, Control_c, 2, 32, 0
1, 4, Control_c, 3, 32, 0
1, 4, Control_c, 4, 32, 0
1, 4, Control_c, 5, 32, 0
1, 4, Control_c, 6, 32, 0
1, 4, Control_c, 7, 32, 0
1, 4, Control_c, 8, 32, 0
1, 4, Control_c, 9, 32, 0
1, 4, Control_c, 10, 32, 0
1, 4, Control_c, 11, 32, 0
1, 4, Control_c, 12, 32, 0
1, 4, Control_c, 13, 32, 0
1, 4, Control_c, 14, 32, 0
1, 4, Control_c, 15, 32, 0
1, 5, Program_c, 0, 0
1, 5, Program_c, 1, 0
1, 5, Program_c, 2, 0
1, 5, Program_c, 3, 0
1, 5, Program_c, 4, 0
1, 5, Program_c, 5, 0
1, 5, Program_c, 6, 0
1, 5, Program_c, 7, 0
1, 5, Program_c, 8, 0
1, 5, Program_c, 9, 0
1, 5, Program_c, 10, 0
1, 5, Program_c, 11, 0
1, 5, Program_c, 12, 0
1, 5, Program_c, 13, 0
1, 5, Program_c, 14, 0
1, 5, Program_c, 15, 0
1, 6, Control_c, 0, 7, 100
1, 117, Control_c, 0, 64, 2
1, 229, Control_c, 0, 64, 5
1, 341, Control_c, 0, 64, 7
1, 452, Control_c, 0, 64, 10
1, 564, Control_c, 0, 64, 12
1, 676, Control_c, 0, 64, 15
1, 787, Control_c, 0, 64, 17
1, 899, Control_c, 0, 64, 21
1, 899, Control_c, 1, 7, 100
1, 899, Control_c, 2, 7, 100
1, 899, Control_c, 3, 7, 100
1, 899, Control_c, 4, 7, 100
1, 899, Control_c, 5, 7, 100
1, 899, Control_c, 6, 7, 100
1, 899, Control_c, 7, 7, 100
1, 899, Control_c, 8, 7, 100
1, 899, Control_c, 9, 7, 100
1, 899, Control_c, 10, 7, 100
1, 899, Control_c, 11, 7, 100
1, 899, Control_c, 12, 7, 100
1, 899, Control_c, 13, 7, 100
1, 899, Control_c, 14, 7, 100
1, 899, Control_c, 15, 7, 100
1, 1129, Note_on_c, 0, 79, 74
1, 1133, Control_c, 0, 64, 20
1, 1143, Note_on_c, 0, 64, 44
1, 1147, Control_c, 0, 64, 19
1, 1162, Control_c, 0, 64, 17
1, 1164, Note_off_c, 0, 79, 64
1, 1192, Control_c, 0, 64, 14
1, 1207, Control_c, 0, 64, 12
1, 1236, Control_c, 0, 64, 9
1, 1244, Note_off_c, 0, 64, 56
1, 1251, Control_c, 0, 64, 0
1, 1291, Note_on_c, 0, 60, 37
1, 1414, Control_c, 0, 64, 9
1, 1429, Control_c, 0, 64, 12
1, 1437, Note_off_c, 0, 60, 47
1, 1444, Control_c, 0, 64, 16
1, 1466, Control_c, 0, 64, 17
1, 1471, Note_on_c, 0, 79, 71
1, 1480, Note_on_c, 0, 64, 38
1, 1481, Control_c, 0, 64, 19
1, 1495, Control_c, 0, 64, 21
1, 1510, Control_c, 0, 64, 22
1, 1525, Control_c, 0, 64, 24
1, 1540, Control_c, 0, 64, 26
1, 1554, Control_c, 0, 64, 28
1, 1569, Control_c, 0, 64, 28
1, 1584, Control_c, 0, 64, 29
1, 1593, Note_off_c, 0, 64, 57
1, 1599, Control_c, 0, 64, 31
1, 1605, Note_on_c, 0, 60, 39
1, 1629, Control_c, 0, 64, 31
1, 1733, Note_off_c, 0, 60, 50
1, 1748, Control_c, 0, 64, 31
1, 1760, Note_on_c, 0, 64, 38
1, 1778, Control_c, 0, 64, 30
1, 1793, Control_c, 0, 64, 29
1, 1808, Control_c, 0, 64, 28
1, 1837, Control_c, 0, 64, 27
1, 1852, Control_c, 0, 64, 26
1, 1867, Control_c, 0, 64, 25
1, 1882, Control_c, 0, 64, 24
1, 1887, Note_off_c, 0, 64, 56
1, 1912, Note_on_c, 0, 60, 34
1, 1913, Note_off_c, 0, 79, 58
1, 1923, Note_on_c, 0, 77, 55
1, 1927, Control_c, 0, 64, 23
1, 1942, Control_c, 0, 64, 22
1, 1957, Control_c, 0, 64, 21
1, 1973, Note_off_c, 0, 77, 60
1, 1992, Note_on_c, 0, 76, 47
1, 2002, Control_c, 0, 64, 20
1, 2028, Note_off_c, 0, 60, 58
1, 2031, Note_off_c, 0, 76, 0
1, 2044, Note_on_c, 0, 76, 44
1, 2064, Note_on_c, 0, 65, 41
1, 2076, Control_c, 0, 64, 19
1, 2108, Note_on_c, 0, 74, 59
1, 2162, Note_off_c, 0, 65, 55
1, 2181, Note_off_c, 0, 76, 37
1, 2184, Note_on_c, 0, 72, 63
1, 2184, Note_off_c, 0, 74, 59
1, 2209, Control_c, 0, 64, 20
1, 2210, Note_on_c, 0, 60, 33
1, 2233, Note_off_c, 0, 72, 63
1, 2261, Control_c, 0, 64, 21
1, 2268, Note_on_c, 0, 71, 54
1, 2306, Note_off_c, 0, 60, 58
1, 2318, Note_off_c, 0, 71, 54
1, 2320, Control_c, 0, 64, 22
1, 2320, Note_on_c, 0, 74, 56
1, 2344, Note_on_c, 0, 64, 42
1, 2376, Note_off_c, 0, 74, 59
1, 2396, Note_on_c, 0, 72, 58
1, 2436, Note_off_c, 0, 72, 60
1, 2437, Note_off_c, 0, 64, 54
1, 2468, Note_on_c, 0, 74, 52
1, 2473, Note_on_c, 0, 60, 34
1, 2506, Note_off_c, 0, 74, 64
1, 2522, Note_on_c, 0, 72, 60
1, 2543, Control_c, 0, 64, 23
1, 2551, Note_off_c, 0, 72, 65
1, 2567, Note_off_c, 0, 60, 59
1, 2584, Note_on_c, 0, 71, 53
1, 2599, Note_on_c, 0, 64, 38
1, 2602, Control_c, 0, 64, 24
1, 2622, Note_off_c, 0, 71, 63
1, 2648, Note_on_c, 0, 72, 50
1, 2711, Note_on_c, 0, 74, 56
1, 2711, Note_off_c, 0, 64, 56
1, 2712, Note_off_c, 0, 72, 54
1, 2744, Note_on_c, 0, 60, 35
1, 2759, Note_off_c, 0, 74, 57
1, 2789, Note_on_c, 0, 76, 49
1, 2833, Note_off_c, 0, 76, 62
1, 2854, Control_c, 0, 64, 23
1, 2865, Note_off_c, 0, 60, 55
1, 2872, Note_on_c, 0, 67, 43
1, 2899, Note_on_c, 0, 64, 30
1, 3039, Note_off_c, 0, 64, 60
1, 3054, Note_on_c, 0, 60, 43
1, 3076, Note_off_c, 0, 67, 51
1, 3191, Note_off_c, 0, 60, 57
1, 3213, Note_on_c, 0, 64, 51
1, 3334, Note_off_c, 0, 64, 55
1, 3350, Control_c, 0, 64, 24
1, 3358, Note_on_c, 0, 60, 36
1, 3380, Control_c, 0, 64, 25
1, 3409, Control_c, 0, 64, 26
1, 3424, Control_c, 0, 64, 27
1, 3439, Control_c, 0, 64, 28
1, 3454, Control_c, 0, 64, 28
1, 3469, Control_c, 0, 64, 29
1, 3483, Control_c, 0, 64, 30
1, 3486, Note_off_c, 0, 60, 57
1, 3498, Control_c, 0, 64, 31
1, 3503, Note_on_c, 0, 79, 80
1, 3513, Control_c, 0, 64, 31
1, 3524, Note_on_c, 0, 64, 39
1, 3543, Control_c, 0, 64, 32
1, 3548, Note_off_c, 0, 79, 61
1, 3558, Control_c, 0, 64, 32
1, 3587, Control_c, 0, 64, 33
1, 3642, Note_off_c, 0, 64, 58
1, 3647, Control_c, 0, 64, 34
1, 3662, Note_on_c, 0, 79, 75
1, 3674, Note_on_c, 0, 60, 37
1, 3692, Note_off_c, 0, 79, 61
1, 3706, Control_c, 0, 64, 34
1, 3742, Control_c, 0, 64, 35
1, 3772, Control_c, 0, 64, 35
1, 3799, Note_off_c, 0, 60, 51
1, 3817, Control_c, 0, 64, 36
1, 3830, Note_on_c, 0, 79, 66
1, 3852, Note_on_c, 0, 64, 30
1, 3862, Control_c, 0, 64, 36
1, 3963, Note_off_c, 0, 64, 43
1, 3989, Note_on_c, 0, 60, 23
1, 4111, Note_off_c, 0, 60, 42
1, 4149, Note_on_c, 0, 64, 27
1, 4173, Control_c, 0, 64, 36
1, 4218, Control_c, 0, 64, 35
1, 4262, Control_c, 0, 64, 35
1, 4285, Note_off_c, 0, 64, 43
1, 4289, Note_off_c, 0, 79, 60
1, 4306, Note_on_c, 0, 77, 53
1, 4306, Control_c, 0, 64, 34
1, 4312, Note_on_c, 0, 60, 20
1, 4356, Note_off_c, 0, 77, 61
1, 4374, Note_on_c, 0, 76, 56
1, 4394, Note_off_c, 0, 76, 64
1, 4403, Note_off_c, 0, 60, 58
1, 4425, Control_c, 0, 64, 34
1, 4443, Note_on_c, 0, 76, 57
1, 4446, Note_on_c, 0, 65, 40
1, 4477, Control_c, 0, 64, 33
1, 4506, Note_on_c, 0, 74, 64
1, 4521, Control_c, 0, 64, 32
1, 4554, Note_off_c, 0, 76, 46
1, 4562, Note_off_c, 0, 65, 48
1, 4582, Note_off_c, 0, 74, 59
1, 4589, Note_on_c, 0, 72, 58
1, 4622, Note_off_c, 0, 72, 64
1, 4625, Note_on_c, 0, 60, 22
1, 4661, Note_on_c, 0, 71, 59
1, 4689, Note_off_c, 0, 60, 58
1, 4690, Note_off_c, 0, 71, 66
1, 4729, Note_on_c, 0, 72, 65
1, 4742, Note_on_c, 0, 64, 37
1, 4783, Note_off_c, 0, 72, 58
1, 4808, Note_on_c, 0, 74, 63
1, 4827, Note_off_c, 0, 64, 53
1, 4839, Note_off_c, 0, 74, 64
1, 4857, Note_on_c, 0, 60, 32
1, 4863, Note_on_c, 0, 72, 52
1, 4895, Note_off_c, 0, 72, 62
1, 4908, Note_on_c, 0, 74, 67
1, 4951, Note_off_c, 0, 74, 59
1, 4965, Note_on_c, 0, 72, 66
1, 4972, Note_off_c, 0, 60, 59
1, 4982, Control_c, 0, 64, 33
1, 4994, Note_off_c, 0, 72, 64
1, 5015, Note_on_c, 0, 64, 37
1, 5018, Note_on_c, 0, 71, 62
1, 5057, Control_c, 0, 64, 34
1, 5060, Note_off_c, 0, 71, 58
1, 5083, Note_on_c, 0, 72, 63
1, 5125, Note_off_c, 0, 64, 56
1, 5145, Control_c, 0, 64, 34
1, 5147, Note_off_c, 0, 72, 53
1, 5154, Note_on_c, 0, 74, 54
1, 5164, Note_on_c, 0, 60, 23
1, 5197, Note_off_c, 0, 74, 61
1, 5224, Note_on_c, 0, 76, 53
1, 5279, Note_off_c, 0, 76, 60
1, 5301, Control_c, 0, 64, 35
1, 5301, Note_on_c, 0, 67, 41
1, 5305, Note_off_c, 0, 60, 52
1, 5347, Note_on_c, 0, 64, 27
1, 5474, Note_off_c, 0, 64, 58
1, 5514, Note_on_c, 0, 60, 21
1, 5627, Note_off_c, 0, 60, 53
1, 5661, Note_on_c, 0, 64, 36
1, 5731, Control_c, 0, 67, 9
1, 5746, Control_c, 0, 67, 13
1, 5760, Control_c, 0, 67, 18
1, 5775, Control_c, 0, 67, 22
1, 5789, Note_off_c, 0, 64, 55
1, 5790, Control_c, 0, 64, 34
1, 5790, Control_c, 0, 67, 25
1, 5805, Control_c, 0, 67, 27
1, 5820, Control_c, 0, 67, 29
1, 5823, Note_on_c, 0, 60, 23
1, 5835, Control_c, 0, 67, 33
1, 5850, Control_c, 0, 67, 39
1, 5864, Control_c, 0, 67, 46
1, 5879, Control_c, 0, 67, 51
1, 5894, Control_c, 0, 67, 56
1, 5909, Control_c, 0, 67, 59
1, 5924, Control_c, 0, 64, 34
1, 5924, Control_c, 0, 67, 61
1, 5938, Control_c, 0, 64, 32
1, 5938, Control_c, 0, 67, 62
1, 5944, Note_off_c, 0, 60, 59
1, 5960, Control_c, 0, 64, 31
1, 5960, Control_c, 0, 67, 63
1, 5963, Note_off_c, 0, 67, 60
1, 5975, Control_c, 0, 64, 28
1, 5975, Control_c, 0, 67, 63
1, 5977, Note_on_c, 0, 69, 62
1, 5990, Control_c, 0, 64, 0
1, 6000, Note_on_c, 0, 65, 41
1, 6006, Note_off_c, 0, 69, 66
1, 6094, Control_c, 0, 67, 63
1, 6120, Note_off_c, 0, 65, 50
1, 6134, Note_on_c, 0, 72, 60
1, 6142, Note_on_c, 0, 60, 37
1, 6169, Note_off_c, 0, 72, 60
1, 6237, Note_off_c, 0, 60, 56
1, 6282, Note_on_c, 0, 65, 34
1, 6285, Note_on_c, 0, 77, 49
1, 6306, Note_off_c, 0, 77, 59
1, 6330, Control_c, 0, 67, 62
1, 6395, Note_off_c, 0, 65, 52
1, 6416, Note_on_c, 0, 81, 56
1, 6432, Note_on_c, 0, 60, 27
1, 6439, Note_off_c, 0, 81, 62
1, 6541, Note_off_c, 0, 60, 54
1, 6580, Note_on_c, 0, 84, 65
1, 6589, Note_on_c, 0, 65, 28
1, 6605, Note_off_c, 0, 84, 62
1, 6737, Note_on_c, 0, 60, 22
1, 6745, Note_off_c, 0, 65, 37
1, 6859, Note_off_c, 0, 60, 52
1, 6911, Note_on_c, 0, 65, 29
1, 6991, Control_c, 0, 67, 63
1, 7007, Note_off_c, 0, 65, 52
1, 7061, Note_on_c, 0, 60, 12
1, 7094, Control_c, 0, 67, 63
1, 7123, Control_c, 0, 67, 64
1, 7138, Control_c, 0, 67, 64
1, 7173, Note_off_c, 0, 60, 56
1, 7182, Control_c, 0, 67, 65
1, 7207, Note_on_c, 0, 67, 54
1, 7217, Note_on_c, 0, 64, 39
1, 7227, Control_c, 0, 67, 65
1, 7229, Note_off_c, 0, 67, 60
1, 7272, Control_c, 0, 67, 66
1, 7287, Control_c, 0, 67, 67
1, 7302, Control_c, 0, 67, 68
1, 7316, Control_c, 0, 67, 69
1, 7329, Note_off_c, 0, 64, 58
1, 7331, Control_c, 0, 67, 70
1, 7346, Control_c, 0, 67, 70
1, 7357, Note_on_c, 0, 60, 35
1, 7361, Control_c, 0, 67, 71
1, 7363, Note_on_c, 0, 72, 56
1, 7376, Control_c, 0, 67, 71
1, 7400, Note_off_c, 0, 72, 60
1, 7406, Control_c, 0, 67, 72
1, 7479, Note_off_c, 0, 60, 56
1, 7516, Note_on_c, 0, 76, 57
1, 7524, Note_on_c, 0, 64, 31
1, 7537, Note_off_c, 0, 76, 65
1, 7630, Note_off_c, 0, 64, 55
1, 7653, Note_on_c, 0, 79, 62
1, 7661, Note_on_c, 0, 60, 36
1, 7682, Note_off_c, 0, 79, 66
1, 7777, Note_off_c, 0, 60, 56
1, 7809, Note_on_c, 0, 84, 62
1, 7817, Note_on_c, 0, 64, 34
1, 7826, Note_off_c, 0, 84, 63
1, 7942, Note_off_c, 0, 64, 57
1, 7969, Note_on_c, 0, 60, 38
1, 8080, Control_c, 0, 67, 71
1, 8089, Note_off_c, 0, 60, 57
1, 8110, Control_c, 0, 67, 70
1, 8124, Control_c, 0, 67, 69
1, 8128, Note_on_c, 0, 64, 39
1, 8139, Control_c, 0, 67, 67
1, 8154, Control_c, 0, 67, 66
1, 8169, Control_c, 0, 67, 64
1, 8184, Control_c, 0, 67, 63
1, 8206, Control_c, 0, 67, 62
1, 8221, Control_c, 0, 67, 61
1, 8236, Control_c, 0, 64, 40
1, 8236, Control_c, 0, 67, 60
1, 8251, Control_c, 0, 64, 48
1, 8251, Control_c, 0, 67, 59
1, 8265, Control_c, 0, 64, 54
1, 8265, Control_c, 0, 67, 58
1, 8270, Note_off_c, 0, 64, 56
1, 8280, Control_c, 0, 64, 58
1, 8280, Control_c, 0, 67, 56
1, 8295, Control_c, 0, 64, 60
1, 8295, Control_c, 0, 67, 54
1, 8302, Note_on_c, 0, 60, 38
1, 8310, Control_c, 0, 64, 62
1, 8310, Control_c, 0, 67, 51
1, 8325, Control_c, 0, 64, 63
1, 8325, Control_c, 0, 67, 49
1, 8333, Note_off_c, 0, 60, 55
1, 8339, Control_c, 0, 64, 63
1, 8339, Control_c, 0, 67, 47
1, 8354, Control_c, 0, 64, 64
1, 8354, Control_c, 0, 67, 45
1, 8369, Control_c, 0, 64, 65
1, 8369, Control_c, 0, 67, 42
1, 8384, Control_c, 0, 64, 66
1, 8384, Control_c, 0, 67, 38
1, 8399, Control_c, 0, 64, 68
1, 8399, Control_c, 0, 67, 33
1, 8413, Control_c, 0, 64, 69
1, 8413, Control_c, 0, 67, 26
1, 8428, Control_c, 0, 64, 71
1, 8428, Control_c, 0, 67, 21
1, 8443, Control_c, 0, 64, 72
1, 8443, Control_c, 0, 67, 16
1, 8458, Control_c, 0, 64, 73
1, 8458, Control_c, 0, 67, 12
1, 8465, Note_on_c, 0, 60, 42
1, 8466, Note_on_c, 0, 67, 77
1, 8473, Control_c, 0, 64, 74
1, 8473, Control_c, 0, 67, 0
1, 8485, Note_on_c, 0, 64, 46
1, 8488, Control_c, 0, 64, 75
1, 8503, Control_c, 0, 64, 76
1, 8518, Control_c, 0, 64, 76
1, 8532, Control_c, 0, 64, 77
1, 8547, Control_c, 0, 64, 77
1, 8562, Control_c, 0, 64, 78
1, 8577, Control_c, 0, 64, 78
1, 8591, Control_c, 0, 64, 79
1, 8622, Control_c, 0, 64, 79
1, 8652, Control_c, 0, 64, 80
1, 8668, Note_off_c, 0, 64, 48
1, 8676, Note_off_c, 0, 60, 26
1, 8686, Note_on_c, 0, 79, 77
1, 8694, Note_on_c, 0, 55, 39
1, 8711, Control_c, 0, 64, 80
1, 8740, Control_c, 0, 64, 81
1, 8770, Control_c, 0, 64, 81
1, 8814, Control_c, 0, 64, 82
1, 8827, Note_off_c, 0, 55, 34
1, 8837, Note_on_c, 0, 60, 44
1, 8847, Note_on_c, 0, 64, 42
1, 8861, Note_off_c, 0, 67, 51
1, 8956, Control_c, 0, 64, 82
1, 8968, Note_off_c, 0, 64, 54
1, 9000, Note_on_c, 0, 55, 48
1, 9075, Control_c, 0, 64, 83
1, 9120, Note_off_c, 0, 60, 21
1, 9123, Note_off_c, 0, 55, 59
1, 9149, Control_c, 0, 64, 82
1, 9159, Note_on_c, 0, 59, 47
1, 9163, Control_c, 0, 64, 80
1, 9170, Note_on_c, 0, 62, 40
1, 9178, Control_c, 0, 64, 71
1, 9193, Control_c, 0, 64, 57
1, 9207, Control_c, 0, 64, 0
1, 9237, Control_c, 0, 64, 35
1, 9252, Control_c, 0, 64, 54
1, 9267, Control_c, 0, 64, 63
1, 9281, Control_c, 0, 64, 66
1, 9296, Note_off_c, 0, 59, 51
1, 9296, Control_c, 0, 64, 70
1, 9297, Note_off_c, 0, 79, 61
1, 9311, Control_c, 0, 64, 73
1, 9312, Note_off_c, 0, 62, 40
1, 9326, Control_c, 0, 64, 76
1, 9327, Note_on_c, 0, 55, 43
1, 9341, Control_c, 0, 64, 76
1, 9355, Control_c, 0, 64, 77
1, 9370, Control_c, 0, 64, 77
1, 9385, Control_c, 0, 64, 78
1, 9400, Control_c, 0, 64, 78
1, 9415, Control_c, 0, 64, 79
1, 9424, Note_off_c, 0, 55, 60
1, 9430, Control_c, 0, 64, 79
1, 9451, Note_on_c, 0, 79, 59
1, 9454, Note_on_c, 0, 59, 45
1, 9465, Note_on_c, 0, 62, 33
1, 9475, Note_off_c, 0, 79, 65
1, 9478, Note_on_c, 0, 77, 65
1, 9504, Note_off_c, 0, 77, 65
1, 9542, Note_on_c, 0, 79, 66
1, 9559, Note_off_c, 0, 79, 65
1, 9562, Note_off_c, 0, 62, 54
1, 9585, Note_on_c, 0, 77, 55
1, 9605, Note_off_c, 0, 59, 54
1, 9607, Note_off_c, 0, 77, 58
1, 9615, Note_on_c, 0, 76, 62
1, 9633, Note_on_c, 0, 55, 43
1, 9679, Note_on_c, 0, 77, 67
1, 9683, Control_c, 0, 64, 79
1, 9698, Control_c, 0, 64, 78
1, 9719, Control_c, 0, 64, 78
1, 9734, Note_off_c, 0, 76, 56
1, 9734, Control_c, 0, 64, 77
1, 9749, Control_c, 0, 64, 76
1, 9764, Control_c, 0, 64, 74
1, 9779, Note_off_c, 0, 55, 62
1, 9779, Control_c, 0, 64, 72
1, 9794, Control_c, 0, 64, 69
1, 9809, Control_c, 0, 64, 66
1, 9811, Note_on_c, 0, 75, 47
1, 9815, Note_off_c, 0, 77, 52
1, 9823, Control_c, 0, 64, 63
1, 9832, Note_on_c, 0, 60, 46
1, 9838, Control_c, 0, 64, 60
1, 9853, Control_c, 0, 64, 59
1, 9883, Control_c, 0, 64, 59
1, 9898, Control_c, 0, 64, 58
1, 9912, Control_c, 0, 64, 57
1, 9927, Control_c, 0, 64, 56
1, 9942, Control_c, 0, 64, 56
1, 9957, Control_c, 0, 64, 55
1, 9972, Control_c, 0, 64, 55
1, 9986, Control_c, 0, 64, 54
1, 9991, Note_on_c, 0, 48, 54
1, 10001, Control_c, 0, 64, 52
1, 10016, Control_c, 0, 64, 51
1, 10030, Control_c, 0, 64, 50
1, 10045, Control_c, 0, 64, 48
1, 10060, Control_c, 0, 64, 46
1, 10075, Control_c, 0, 64, 43
1, 10090, Control_c, 0, 64, 40
1, 10103, Control_c, 0, 64, 36
1, 10118, Control_c, 0, 64, 32
1, 10130, Note_on_c, 0, 76, 70
1, 10132, Note_off_c, 0, 75, 59
1, 10133, Control_c, 0, 64, 28
1, 10139, Note_off_c, 0, 60, 34
1, 10142, Note_on_c, 0, 52, 62
1, 10145, Note_off_c, 0, 48, 58
1, 10148, Control_c, 0, 64, 24
1, 10162, Control_c, 0, 64, 20
1, 10177, Control_c, 0, 64, 12
1, 10192, Control_c, 0, 64, 0
1, 10299, Note_on_c, 0, 55, 65
1, 10325, Control_c, 0, 67, 9
1, 10340, Control_c, 0, 67, 10
1, 10354, Control_c, 0, 67, 12
1, 10368, Note_off_c, 0, 52, 43
1, 10369, Control_c, 0, 67, 14
1, 10384, Control_c, 0, 67, 16
1, 10399, Control_c, 0, 67, 18
1, 10414, Control_c, 0, 67, 20
1, 10427, Note_off_c, 0, 55, 60
1, 10429, Control_c, 0, 67, 22
1, 10443, Control_c, 0, 67, 25
1, 10463, Note_on_c, 0, 60, 65
1, 10466, Control_c, 0, 67, 27
1, 10482, Control_c, 0, 67, 29
1, 10497, Control_c, 0, 67, 31
1, 10512, Control_c, 0, 67, 33
1, 10527, Control_c, 0, 67, 35
1, 10541, Control_c, 0, 67, 37
1, 10554, Note_off_c, 0, 76, 62
1, 10556, Control_c, 0, 67, 38
1, 10571, Control_c, 0, 67, 40
1, 10585, Control_c, 0, 67, 42
1, 10600, Control_c, 0, 67, 43
1, 10606, Note_off_c, 0, 60, 60
1, 10610, Note_on_c, 0, 64, 61
1, 10615, Control_c, 0, 67, 44
1, 10630, Control_c, 0, 67, 46
1, 10645, Control_c, 0, 67, 47
1, 10659, Control_c, 0, 67, 48
1, 10674, Control_c, 0, 67, 49
1, 10689, Control_c, 0, 67, 50
1, 10704, Control_c, 0, 67, 51
1, 10719, Control_c, 0, 67, 52
1, 10733, Control_c, 0, 67, 52
1, 10748, Control_c, 0, 67, 54
1, 10751, Note_off_c, 0, 64, 57
1, 10763, Control_c, 0, 67, 54
1, 10777, Control_c, 0, 67, 55
1, 10778, Note_on_c, 0, 67, 48
1, 10807, Control_c, 0, 67, 56
1, 10837, Control_c, 0, 67, 57
1, 10867, Control_c, 0, 67, 57
1, 10882, Control_c, 0, 67, 58
1, 10887, Note_off_c, 0, 67, 60
1, 10897, Control_c, 0, 67, 59
1, 10911, Control_c, 0, 67, 60
1, 10920, Note_on_c, 0, 64, 41
1, 10941, Control_c, 0, 67, 60
1, 11047, Note_off_c, 0, 64, 61
1, 11059, Control_c, 0, 64, 64
1, 11074, Control_c, 0, 64, 68
1, 11088, Note_on_c, 0, 69, 56
1, 11089, Control_c, 0, 64, 74
1, 11102, Note_on_c, 0, 65, 40
1, 11104, Control_c, 0, 64, 80
1, 11118, Control_c, 0, 64, 85
1, 11133, Control_c, 0, 64, 89
1, 11137, Note_off_c, 0, 69, 50
1, 11148, Control_c, 0, 64, 93
1, 11148, Control_c, 0, 67, 60
1, 11163, Control_c, 0, 64, 96
1, 11163, Control_c, 0, 67, 59
1, 11177, Control_c, 0, 64, 97
1, 11200, Control_c, 0, 64, 98
1, 11210, Note_off_c, 0, 65, 52
1, 11215, Control_c, 0, 64, 99
1, 11245, Control_c, 0, 64, 101
1, 11259, Control_c, 0, 64, 103
1, 11260, Note_on_c, 0, 60, 41
1, 11272, Note_on_c, 0, 72, 47
1, 11274, Control_c, 0, 64, 105
1, 11290, Control_c, 0, 64, 107
1, 11297, Note_off_c, 0, 72, 57
1, 11305, Control_c, 0, 64, 107
1, 11320, Control_c, 0, 64, 108
1, 11329, Note_on_c, 0, 69, 59
1, 11350, Control_c, 0, 64, 108
1, 11350, Control_c, 0, 67, 59
1, 11351, Note_off_c, 0, 69, 61
1, 11391, Note_off_c, 0, 60, 36
1, 11393, Note_on_c, 0, 77, 67
1, 11398, Note_on_c, 0, 65, 42
1, 11409, Note_off_c, 0, 77, 66
1, 11459, Note_on_c, 0, 72, 59
1, 11486, Note_off_c, 0, 65, 57
1, 11506, Note_off_c, 0, 72, 55
1, 11526, Note_on_c, 0, 60, 41
1, 11536, Note_on_c, 0, 81, 54
1, 11542, Control_c, 0, 67, 59
1, 11556, Control_c, 0, 64, 108
1, 11571, Control_c, 0, 64, 106
1, 11573, Note_off_c, 0, 81, 45
1, 11586, Control_c, 0, 64, 102
1, 11600, Control_c, 0, 64, 98
1, 11605, Note_on_c, 0, 77, 55
1, 11615, Control_c, 0, 64, 92
1, 11630, Control_c, 0, 64, 86
1, 11645, Control_c, 0, 64, 79
1, 11645, Control_c, 0, 67, 60
1, 11660, Control_c, 0, 64, 71
1, 11666, Note_off_c, 0, 60, 33
1, 11675, Note_off_c, 0, 77, 60
1, 11675, Control_c, 0, 64, 62
1, 11676, Note_on_c, 0, 65, 34
1, 11681, Note_on_c, 0, 84, 56
1, 11689, Control_c, 0, 64, 47
1, 11704, Control_c, 0, 64, 43
1, 11719, Control_c, 0, 64, 42
1, 11734, Control_c, 0, 64, 40
1, 11749, Control_c, 0, 64, 35
1, 11764, Control_c, 0, 64, 22
1, 11779, Control_c, 0, 64, 0
1, 11791, Note_off_c, 0, 65, 57
1, 11837, Note_on_c, 0, 60, 26
1, 11913, Note_off_c, 0, 84, 57
1, 11926, Control_c, 0, 67, 60
1, 11966, Note_off_c, 0, 60, 58
1, 12023, Note_on_c, 0, 65, 30
1, 12107, Note_off_c, 0, 65, 52
1, 12113, Control_c, 0, 67, 61
1, 12128, Control_c, 0, 67, 63
1, 12143, Control_c, 0, 67, 67
1, 12157, Control_c, 0, 67, 75
1, 12167, Note_on_c, 0, 60, 25
1, 12172, Control_c, 0, 67, 84
1, 12187, Control_c, 0, 67, 93
1, 12202, Control_c, 0, 67, 100
1, 12217, Control_c, 0, 67, 109
1, 12231, Control_c, 0, 67, 117
1, 12246, Control_c, 0, 67, 124
1, 12261, Control_c, 0, 67, 127
1, 12276, Control_c, 0, 64, 56
1, 12286, Note_off_c, 0, 60, 57
1, 12291, Control_c, 0, 64, 62
1, 12305, Control_c, 0, 64, 64
1, 12320, Control_c, 0, 64, 66
1, 12322, Note_on_c, 0, 67, 46
1, 12328, Note_on_c, 0, 64, 42
1, 12335, Control_c, 0, 64, 68
1, 12350, Control_c, 0, 64, 71
1, 12365, Control_c, 0, 64, 74
1, 12380, Control_c, 0, 64, 77
1, 12395, Control_c, 0, 64, 79
1, 12410, Control_c, 0, 64, 80
1, 12418, Note_off_c, 0, 67, 35
1, 12424, Control_c, 0, 64, 82
1, 12439, Control_c, 0, 64, 83
1, 12454, Control_c, 0, 64, 83
1, 12458, Note_off_c, 0, 64, 48
1, 12491, Note_on_c, 0, 72, 42
1, 12498, Control_c, 0, 64, 84
1, 12504, Note_on_c, 0, 60, 37
1, 12518, Note_off_c, 0, 72, 54
1, 12549, Note_on_c, 0, 67, 55
1, 12572, Note_off_c, 0, 67, 59
1, 12601, Note_off_c, 0, 60, 56
1, 12614, Note_on_c, 0, 76, 66
1, 12629, Note_on_c, 0, 64, 44
1, 12642, Note_off_c, 0, 76, 66
1, 12702, Note_on_c, 0, 72, 58
1, 12713, Control_c, 0, 64, 83
1, 12728, Control_c, 0, 64, 81
1, 12736, Note_off_c, 0, 64, 61
1, 12742, Note_off_c, 0, 72, 58
1, 12743, Control_c, 0, 64, 79
1, 12757, Control_c, 0, 64, 75
1, 12772, Control_c, 0, 64, 68
1, 12774, Note_on_c, 0, 60, 34
1, 12780, Note_on_c, 0, 79, 48
1, 12787, Control_c, 0, 64, 58
1, 12802, Control_c, 0, 64, 30
1, 12815, Note_off_c, 0, 79, 56
1, 12817, Control_c, 0, 64, 0
1, 12845, Note_on_c, 0, 76, 55
1, 12894, Note_off_c, 0, 60, 51
1, 12921, Note_on_c, 0, 84, 60
1, 12922, Note_off_c, 0, 76, 57
1, 12927, Note_on_c, 0, 64, 33
1, 13064, Note_off_c, 0, 64, 61
1, 13099, Note_on_c, 0, 60, 34
1, 13140, Note_off_c, 0, 84, 54
1, 13172, Control_c, 0, 67, 127
1, 13187, Control_c, 0, 67, 125
1, 13202, Control_c, 0, 67, 123
1, 13207, Note_off_c, 0, 60, 57
1, 13217, Control_c, 0, 67, 121
1, 13232, Control_c, 0, 67, 119
1, 13235, Note_on_c, 0, 64, 36
1, 13246, Control_c, 0, 67, 116
1, 13261, Control_c, 0, 67, 112
1, 13276, Control_c, 0, 67, 107
1, 13291, Control_c, 0, 67, 101
1, 13305, Control_c, 0, 67, 95
1, 13320, Control_c, 0, 67, 90
1, 13335, Control_c, 0, 67, 86
1, 13350, Control_c, 0, 67, 80
1, 13365, Control_c, 0, 67, 72
1, 13368, Note_off_c, 0, 64, 60
1, 13380, Control_c, 0, 67, 64
1, 13395, Control_c, 0, 67, 58
1, 13401, Note_on_c, 0, 60, 44
1, 13410, Control_c, 0, 67, 53
1, 13425, Control_c, 0, 67, 49
1, 13440, Control_c, 0, 67, 43
1, 13462, Control_c, 0, 67, 37
1, 13465, Note_off_c, 0, 60, 58
1, 13477, Control_c, 0, 67, 30
1, 13492, Control_c, 0, 67, 23
1, 13506, Control_c, 0, 67, 16
1, 13521, Control_c, 0, 67, 8
1, 13536, Control_c, 0, 64, 59
1, 13536, Control_c, 0, 67, 0
1, 13551, Control_c, 0, 64, 66
1, 13553, Note_on_c, 0, 81, 79
1, 13564, Note_on_c, 0, 64, 47
1, 13566, Control_c, 0, 64, 70
1, 13572, Note_on_c, 0, 60, 52
1, 13580, Control_c, 0, 64, 74
1, 13595, Control_c, 0, 64, 79
1, 13610, Control_c, 0, 64, 85
1, 13625, Control_c, 0, 64, 91
1, 13640, Control_c, 0, 64, 99
1, 13654, Control_c, 0, 64, 106
1, 13670, Control_c, 0, 64, 108
1, 13701, Note_off_c, 0, 64, 53
1, 13705, Note_off_c, 0, 60, 46
1, 13708, Note_on_c, 0, 79, 65
1, 13711, Note_on_c, 0, 55, 54
1, 13712, Note_off_c, 0, 81, 61
1, 13735, Note_off_c, 0, 79, 69
1, 13759, Control_c, 0, 64, 108
1, 13774, Control_c, 0, 64, 103
1, 13789, Control_c, 0, 64, 92
1, 13803, Control_c, 0, 64, 77
1, 13809, Note_off_c, 0, 55, 60
1, 13818, Control_c, 0, 64, 63
1, 13833, Control_c, 0, 64, 0
1, 13854, Note_on_c, 0, 77, 70
1, 13857, Note_on_c, 0, 64, 44
1, 13864, Note_on_c, 0, 60, 45
1, 13877, Note_off_c, 0, 77, 68
1, 13924, Note_off_c, 0, 60, 50
1, 13949, Note_off_c, 0, 64, 36
1, 13999, Note_on_c, 0, 76, 72
1, 14003, Note_on_c, 0, 55, 55
1, 14052, Note_off_c, 0, 76, 60
1, 14123, Note_off_c, 0, 55, 61
1, 14144, Control_c, 0, 64, 62
1, 14151, Note_on_c, 0, 76, 83
1, 14159, Control_c, 0, 64, 63
1, 14162, Note_on_c, 0, 62, 53
1, 14162, Note_on_c, 0, 65, 55
1, 14174, Control_c, 0, 64, 65
1, 14189, Control_c, 0, 64, 66
1, 14211, Control_c, 0, 64, 68
1, 14226, Control_c, 0, 64, 71
1, 14241, Control_c, 0, 64, 73
1, 14256, Control_c, 0, 64, 75
1, 14271, Control_c, 0, 64, 75
1, 14292, Note_off_c, 0, 65, 57
1, 14299, Note_off_c, 0, 62, 59
1, 14311, Note_on_c, 0, 74, 68
1, 14327, Note_on_c, 0, 55, 50
1, 14331, Note_off_c, 0, 76, 61
1, 14344, Control_c, 0, 64, 75
1, 14347, Note_off_c, 0, 74, 59
1, 14359, Control_c, 0, 64, 71
1, 14374, Control_c, 0, 64, 62
1, 14389, Control_c, 0, 64, 0
1, 14437, Note_off_c, 0, 55, 60
1, 14477, Note_on_c, 0, 62, 45
1, 14482, Note_on_c, 0, 72, 62
1, 14494, Note_on_c, 0, 65, 31
1, 14510, Note_off_c, 0, 72, 63
1, 14576, Note_off_c, 0, 65, 38
1, 14584, Note_off_c, 0, 62, 37
1, 14624, Note_on_c, 0, 71, 56
1, 14636, Note_on_c, 0, 55, 38
1, 14661, Note_off_c, 0, 71, 60
1, 14750, Note_off_c, 0, 55, 60
1, 14760, Control_c, 0, 64, 55
1, 14775, Control_c, 0, 64, 63
1, 14779, Note_on_c, 0, 60, 51
1, 14782, Note_on_c, 0, 72, 66
1, 14790, Control_c, 0, 64, 64
1, 14792, Note_on_c, 0, 64, 46
1, 14805, Control_c, 0, 64, 66
1, 14819, Control_c, 0, 64, 67
1, 14830, Note_off_c, 0, 72, 58
1, 14834, Control_c, 0, 64, 69
1, 14837, Note_on_c, 0, 67, 64
1, 14849, Control_c, 0, 64, 71
1, 14864, Control_c, 0, 64, 74
1, 14879, Control_c, 0, 64, 76
1, 14893, Control_c, 0, 64, 77
1, 14908, Control_c, 0, 64, 78
1, 14912, Note_off_c, 0, 67, 58
1, 14912, Note_on_c, 0, 69, 69
1, 14923, Control_c, 0, 64, 79
1, 14938, Control_c, 0, 64, 80
1, 14960, Control_c, 0, 64, 80
1, 14974, Control_c, 0, 64, 81
1, 14989, Control_c, 0, 64, 81
1, 14990, Note_on_c, 0, 71, 76
1, 14993, Note_off_c, 0, 69, 60
1, 15035, Note_off_c, 0, 71, 59
1, 15063, Note_on_c, 0, 72, 69
1, 15109, Note_off_c, 0, 72, 49
1, 15126, Note_on_c, 0, 74, 71
1, 15182, Control_c, 0, 64, 81
1, 15194, Note_on_c, 0, 76, 76
1, 15196, Note_off_c, 0, 74, 60
1, 15197, Control_c, 0, 64, 80
1, 15212, Control_c, 0, 64, 77
1, 15226, Control_c, 0, 64, 74
1, 15239, Note_off_c, 0, 76, 64
1, 15241, Control_c, 0, 64, 70
1, 15256, Control_c, 0, 64, 63
1, 15262, Note_on_c, 0, 77, 77
1, 15272, Control_c, 0, 64, 52
1, 15278, Note_off_c, 0, 60, 30
1, 15287, Control_c, 0, 64, 45
1, 15302, Control_c, 0, 64, 39
1, 15304, Note_off_c, 0, 64, 36
1, 15316, Control_c, 0, 64, 20
1, 15326, Note_off_c, 0, 77, 59
1, 15331, Control_c, 0, 64, 0
1, 15335, Note_on_c, 0, 79, 76
1, 15410, Note_on_c, 0, 81, 75
1, 15441, Note_off_c, 0, 79, 63
1, 15477, Note_on_c, 0, 83, 78
1, 15477, Note_off_c, 0, 81, 62
1, 15539, Note_on_c, 0, 84, 74
1, 15544, Note_off_c, 0, 83, 62
1, 15606, Note_on_c, 0, 79, 76
1, 15615, Note_off_c, 0, 84, 62
1, 15637, Note_off_c, 0, 79, 65
1, 15657, Control_c, 0, 67, 10
1, 15672, Control_c, 0, 67, 13
1, 15694, Control_c, 0, 67, 18
1, 15709, Control_c, 0, 67, 22
1, 15724, Control_c, 0, 67, 27
1, 15739, Control_c, 0, 67, 31
1, 15754, Control_c, 0, 67, 34
1, 15768, Note_on_c, 0, 79, 64
1, 15768, Control_c, 0, 67, 37
1, 15783, Control_c, 0, 67, 40
1, 15797, Note_off_c, 0, 79, 65
1, 15798, Control_c, 0, 67, 43
1, 15813, Control_c, 0, 67, 47
1, 15828, Control_c, 0, 67, 50
1, 15843, Control_c, 0, 67, 52
1, 15857, Control_c, 0, 67, 54
1, 15872, Control_c, 0, 67, 56
1, 15887, Control_c, 0, 67, 57
1, 15901, Control_c, 0, 67, 58
1, 15916, Control_c, 0, 67, 59
1, 15931, Control_c, 0, 67, 59
1, 15933, Note_on_c, 0, 55, 38
1, 15940, Note_on_c, 0, 64, 40
1, 15965, Note_off_c, 0, 55, 55
1, 15991, Note_off_c, 0, 64, 61
1, 16052, Note_on_c, 0, 79, 41
1, 16077, Note_off_c, 0, 79, 58
1, 16104, Note_on_c, 0, 81, 43
1, 16110, Control_c, 0, 67, 60
1, 16134, Note_off_c, 0, 81, 53
1, 16140, Control_c, 0, 67, 60
1, 16167, Note_on_c, 0, 79, 51
1, 16170, Control_c, 0, 67, 61
1, 16185, Control_c, 0, 67, 61
1, 16199, Control_c, 0, 67, 62
1, 16206, Note_off_c, 0, 79, 65
1, 16252, Note_on_c, 0, 62, 49
1, 16256, Note_on_c, 0, 55, 35
1, 16286, Note_off_c, 0, 55, 51
1, 16293, Note_off_c, 0, 62, 62
1, 16372, Note_on_c, 0, 77, 48
1, 16407, Note_off_c, 0, 77, 63
1, 16423, Note_on_c, 0, 79, 47
1, 16443, Control_c, 0, 67, 62
1, 16462, Note_off_c, 0, 79, 54
1, 16511, Note_on_c, 0, 77, 44
1, 16536, Note_off_c, 0, 77, 58
1, 16563, Note_on_c, 0, 55, 42
1, 16567, Note_on_c, 0, 60, 50
1, 16592, Note_off_c, 0, 55, 58
1, 16607, Note_off_c, 0, 60, 61
1, 16685, Note_on_c, 0, 76, 48
1, 16719, Note_off_c, 0, 76, 65
1, 16748, Note_on_c, 0, 77, 50
1, 16782, Note_off_c, 0, 77, 52
1, 16814, Note_on_c, 0, 76, 55
1, 16843, Control_c, 0, 67, 61
1, 16848, Note_off_c, 0, 76, 65
1, 16870, Note_on_c, 0, 59, 56
1, 16875, Note_on_c, 0, 55, 39
1, 16889, Control_c, 0, 67, 61
1, 16902, Note_off_c, 0, 55, 55
1, 16906, Note_off_c, 0, 59, 62
1, 16918, Control_c, 0, 67, 60
1, 16948, Control_c, 0, 67, 60
1, 16963, Control_c, 0, 67, 59
1, 16964, Note_on_c, 0, 74, 62
1, 16978, Control_c, 0, 67, 59
1, 16993, Control_c, 0, 67, 58
1, 17006, Note_off_c, 0, 74, 60
1, 17007, Control_c, 0, 67, 57
1, 17022, Control_c, 0, 67, 56
1, 17028, Note_on_c, 0, 76, 63
1, 17037, Control_c, 0, 67, 54
1, 17052, Control_c, 0, 67, 52
1, 17061, Note_off_c, 0, 76, 63
1, 17066, Control_c, 0, 67, 49
1, 17076, Note_on_c, 0, 74, 54
1, 17081, Control_c, 0, 67, 45
1, 17096, Control_c, 0, 67, 37
1, 17100, Note_off_c, 0, 74, 62
1, 17111, Control_c, 0, 67, 29
1, 17126, Control_c, 0, 67, 21
1, 17140, Control_c, 0, 64, 54
1, 17140, Control_c, 0, 67, 13
1, 17155, Control_c, 0, 64, 60
1, 17155, Control_c, 0, 67, 0
1, 17158, Note_on_c, 0, 60, 77
1, 17159, Note_on_c, 0, 72, 78
1, 17170, Control_c, 0, 64, 63
1, 17185, Control_c, 0, 64, 64
1, 17207, Control_c, 0, 64, 66
1, 17222, Control_c, 0, 64, 69
1, 17237, Control_c, 0, 64, 73
1, 17238, Note_off_c, 0, 72, 61
1, 17252, Control_c, 0, 64, 76
1, 17258, Note_on_c, 0, 67, 69
1, 17266, Control_c, 0, 64, 79
1, 17281, Control_c, 0, 64, 81
1, 17296, Control_c, 0, 64, 84
1, 17311, Control_c, 0, 64, 86
1, 17316, Note_on_c, 0, 69, 75
1, 17326, Note_off_c, 0, 67, 57
1, 17326, Control_c, 0, 64, 87
1, 17340, Control_c, 0, 64, 87
1, 17355, Control_c, 0, 64, 88
1, 17370, Control_c, 0, 64, 89
1, 17385, Control_c, 0, 64, 89
1, 17389, Note_off_c, 0, 69, 61
1, 17390, Note_on_c, 0, 71, 73
1, 17400, Control_c, 0, 64, 90
1, 17429, Control_c, 0, 64, 90
1, 17439, Note_off_c, 0, 71, 60
1, 17452, Note_on_c, 0, 72, 72
1, 17473, Control_c, 0, 64, 91
1, 17505, Note_off_c, 0, 72, 54
1, 17513, Note_on_c, 0, 74, 75
1, 17580, Note_on_c, 0, 76, 80
1, 17585, Note_off_c, 0, 74, 61
1, 17630, Note_off_c, 0, 76, 64
1, 17636, Note_off_c, 0, 60, 51
1, 17654, Note_on_c, 0, 77, 77
1, 17696, Control_c, 0, 67, 9
1, 17711, Control_c, 0, 67, 9
1, 17720, Note_on_c, 0, 79, 78
1, 17722, Note_off_c, 0, 77, 60
1, 17726, Control_c, 0, 64, 90
1, 17726, Control_c, 0, 67, 10
1, 17741, Control_c, 0, 64, 90
1, 17741, Control_c, 0, 67, 10
1, 17756, Control_c, 0, 67, 11
1, 17770, Control_c, 0, 64, 89
1, 17770, Control_c, 0, 67, 12
1, 17785, Control_c, 0, 64, 87
1, 17785, Control_c, 0, 67, 14
1, 17794, Note_on_c, 0, 81, 76
1, 17800, Control_c, 0, 64, 85
1, 17800, Control_c, 0, 67, 15
1, 17815, Control_c, 0, 64, 83
1, 17815, Control_c, 0, 67, 17
1, 17830, Note_off_c, 0, 79, 63
1, 17830, Control_c, 0, 64, 78
1, 17830, Control_c, 0, 67, 19
1, 17844, Control_c, 0, 64, 74
1, 17844, Control_c, 0, 67, 21
1, 17859, Control_c, 0, 64, 69
1, 17859, Control_c, 0, 67, 24
1, 17865, Note_on_c, 0, 83, 79
1, 17866, Note_off_c, 0, 81, 62
1, 17874, Control_c, 0, 64, 63
1, 17874, Control_c, 0, 67, 28
1, 17888, Control_c, 0, 64, 55
1, 17888, Control_c, 0, 67, 33
1, 17903, Control_c, 0, 64, 48
1, 17903, Control_c, 0, 67, 36
1, 17918, Control_c, 0, 64, 38
1, 17918, Control_c, 0, 67, 38
1, 17920, Note_on_c, 0, 84, 73
1, 17927, Note_off_c, 0, 83, 62
1, 17933, Control_c, 0, 64, 0
1, 17933, Control_c, 0, 67, 38
1, 17985, Control_c, 0, 67, 38
1, 18000, Control_c, 0, 67, 37
1, 18010, Note_on_c, 0, 79, 78
1, 18015, Control_c, 0, 67, 37
1, 18015, Note_off_c, 0, 84, 63
1, 18030, Control_c, 0, 67, 36
1, 18042, Note_off_c, 0, 79, 64
1, 18044, Control_c, 0, 67, 35
1, 18059, Control_c, 0, 67, 34
1, 18074, Control_c, 0, 67, 33
1, 18089, Control_c, 0, 67, 31
1, 18103, Control_c, 0, 67, 30
1, 18118, Control_c, 0, 67, 29
1, 18133, Control_c, 0, 67, 28
1, 18148, Control_c, 0, 67, 27
1, 18162, Note_on_c, 0, 79, 69
1, 18163, Control_c, 0, 67, 26
1, 18177, Control_c, 0, 64, 39
1, 18177, Control_c, 0, 67, 23
1, 18192, Control_c, 0, 64, 46
1, 18192, Control_c, 0, 67, 17
1, 18196, Note_off_c, 0, 79, 60
1, 18207, Control_c, 0, 64, 49
1, 18207, Control_c, 0, 67, 9
1, 18221, Control_c, 0, 64, 51
1, 18221, Control_c, 0, 67, 0
1, 18236, Control_c, 0, 64, 54
1, 18251, Control_c, 0, 64, 56
1, 18266, Control_c, 0, 64, 59
1, 18281, Control_c, 0, 64, 61
1, 18295, Control_c, 0, 64, 62
1, 18310, Control_c, 0, 64, 63
1, 18325, Control_c, 0, 64, 64
1, 18335, Note_on_c, 0, 55, 35
1, 18340, Control_c, 0, 64, 65
1, 18349, Note_on_c, 0, 64, 31
1, 18355, Control_c, 0, 64, 66
1, 18370, Control_c, 0, 64, 66
1, 18385, Control_c, 0, 64, 67
1, 18399, Control_c, 0, 64, 68
1, 18414, Control_c, 0, 64, 70
1, 18429, Control_c, 0, 64, 71
1, 18444, Control_c, 0, 64, 72
1, 18456, Note_on_c, 0, 79, 41
1, 18459, Control_c, 0, 64, 72
1, 18474, Note_off_c, 0, 55, 49
1, 18474, Control_c, 0, 64, 73
1, 18489, Control_c, 0, 64, 73
1, 18490, Note_off_c, 0, 79, 63
1, 18496, Note_off_c, 0, 64, 53
1, 18504, Control_c, 0, 64, 74
1, 18518, Note_on_c, 0, 81, 43
1, 18534, Control_c, 0, 64, 74
1, 18558, Note_off_c, 0, 81, 47
1, 18563, Control_c, 0, 64, 75
1, 18585, Note_on_c, 0, 79, 53
1, 18623, Note_off_c, 0, 79, 65
1, 18652, Control_c, 0, 64, 74
1, 18656, Note_on_c, 0, 55, 39
1, 18662, Note_on_c, 0, 62, 48
1, 18667, Control_c, 0, 64, 71
1, 18682, Control_c, 0, 64, 65
1, 18704, Control_c, 0, 64, 53
1, 18718, Control_c, 0, 64, 46
1, 18733, Control_c, 0, 64, 49
1, 18748, Control_c, 0, 64, 56
1, 18763, Control_c, 0, 64, 61
1, 18776, Note_on_c, 0, 77, 52
1, 18776, Note_off_c, 0, 55, 57
1, 18778, Control_c, 0, 64, 64
1, 18793, Control_c, 0, 64, 65
1, 18808, Control_c, 0, 64, 67
1, 18814, Note_off_c, 0, 77, 61
1, 18823, Control_c, 0, 64, 69
1, 18829, Note_on_c, 0, 79, 52
1, 18838, Note_off_c, 0, 62, 51
1, 18838, Control_c, 0, 64, 71
1, 18852, Control_c, 0, 64, 73
1, 18867, Control_c, 0, 64, 74
1, 18882, Control_c, 0, 64, 75
1, 18888, Note_off_c, 0, 79, 54
1, 18897, Control_c, 0, 64, 76
1, 18899, Note_on_c, 0, 77, 59
1, 18912, Control_c, 0, 64, 78
1, 18926, Control_c, 0, 64, 79
1, 18941, Control_c, 0, 64, 79
1, 18953, Note_off_c, 0, 77, 60
1, 18956, Control_c, 0, 64, 80
1, 18975, Note_on_c, 0, 55, 58
1, 18976, Note_on_c, 0, 60, 64
1, 18986, Control_c, 0, 64, 79
1, 19000, Control_c, 0, 64, 75
1, 19015, Control_c, 0, 64, 65
1, 19030, Control_c, 0, 64, 46
1, 19044, Control_c, 0, 64, 39
1, 19059, Control_c, 0, 64, 45
1, 19074, Control_c, 0, 64, 56
1, 19076, Note_on_c, 0, 76, 60
1, 19090, Control_c, 0, 64, 62
1, 19101, Note_off_c, 0, 55, 57
1, 19105, Control_c, 0, 64, 65
1, 19119, Control_c, 0, 64, 68
1, 19124, Note_off_c, 0, 76, 60
1, 19133, Note_on_c, 0, 77, 59
1, 19134, Control_c, 0, 64, 71
1, 19149, Control_c, 0, 64, 75
1, 19164, Control_c, 0, 64, 78
1, 19179, Control_c, 0, 64, 80
1, 19193, Control_c, 0, 64, 81
1, 19197, Note_off_c, 0, 60, 36
1, 19202, Note_on_c, 0, 76, 64
1, 19204, Note_off_c, 0, 77, 57
1, 19208, Control_c, 0, 64, 83
1, 19223, Control_c, 0, 64, 84
1, 19237, Control_c, 0, 64, 86
1, 19252, Control_c, 0, 64, 87
1, 19267, Note_off_c, 0, 76, 63
1, 19283, Control_c, 0, 64, 87
1, 19286, Note_on_c, 0, 59, 69
1, 19288, Note_on_c, 0, 55, 61
1, 19298, Control_c, 0, 64, 79
1, 19313, Control_c, 0, 64, 63
1, 19328, Control_c, 0, 64, 0
1, 19352, Note_off_c, 0, 55, 56
1, 19356, Note_off_c, 0, 59, 61
1, 19372, Control_c, 0, 64, 50
1, 19387, Control_c, 0, 64, 63
1, 19389, Note_on_c, 0, 74, 53
1, 19402, Control_c, 0, 64, 71
1, 19409, Note_on_c, 0, 76, 39
1, 19416, Control_c, 0, 64, 77
1, 19439, Control_c, 0, 64, 83
1, 19449, Note_off_c, 0, 74, 61
1, 19449, Note_off_c, 0, 76, 0
1, 19449, Note_on_c, 0, 76, 32
1, 19454, Control_c, 0, 64, 88
1, 19468, Control_c, 0, 64, 92
1, 19483, Control_c, 0, 64, 97
1, 19498, Control_c, 0, 64, 102
1, 19513, Control_c, 0, 64, 104
1, 19524, Note_on_c, 0, 74, 69
1, 19528, Control_c, 0, 64, 105
1, 19535, Note_off_c, 0, 76, 58
1, 19542, Control_c, 0, 64, 106
1, 19608, Note_off_c, 0, 74, 61
1, 19616, Control_c, 0, 64, 104
1, 19621, Note_on_c, 0, 72, 84
1, 19625, Note_on_c, 0, 48, 75
1, 19631, Control_c, 0, 64, 91
1, 19646, Control_c, 0, 64, 73
1, 19661, Control_c, 0, 64, 54
1, 19667, Note_off_c, 0, 48, 60
1, 19675, Control_c, 0, 64, 0
1, 19818, Note_on_c, 0, 60, 68
1, 19949, Note_off_c, 0, 60, 53
1, 19974, Note_on_c, 0, 59, 71
1, 20146, Note_off_c, 0, 59, 62
1, 20152, Note_on_c, 0, 74, 74
1, 20165, Note_on_c, 0, 58, 57
1, 20192, Note_off_c, 0, 72, 55
1, 20220, Note_on_c, 0, 76, 68
1, 20274, Note_off_c, 0, 58, 60
1, 20281, Note_off_c, 0, 74, 61
1, 20295, Note_on_c, 0, 77, 83
1, 20301, Note_off_c, 0, 76, 65
1, 20305, Note_on_c, 0, 57, 76
1, 20337, Note_off_c, 0, 57, 65
1, 20339, Note_off_c, 0, 77, 63
1, 20485, Note_on_c, 0, 77, 82
1, 20494, Note_on_c, 0, 57, 69
1, 20541, Note_off_c, 0, 57, 58
1, 20655, Note_on_c, 0, 55, 66
1, 20683, Note_off_c, 0, 55, 65
1, 20799, Note_on_c, 0, 53, 69
1, 20819, Note_on_c, 0, 79, 63
1, 20821, Note_off_c, 0, 77, 57
1, 20829, Note_off_c, 0, 53, 64
1, 20886, Note_off_c, 0, 79, 63
1, 20891, Note_on_c, 0, 81, 72
1, 20964, Note_off_c, 0, 81, 63
1, 20977, Note_on_c, 0, 52, 77
1, 20981, Note_on_c, 0, 79, 68
1, 21136, Note_off_c, 0, 79, 63
1, 21157, Note_on_c, 0, 76, 65
1, 21292, Note_off_c, 0, 76, 59
1, 21309, Note_on_c, 0, 48, 74
1, 21312, Note_on_c, 0, 84, 79
1, 21352, Note_off_c, 0, 52, 56
1, 21360, Note_off_c, 0, 84, 61
1, 21478, Note_on_c, 0, 84, 80
1, 21526, Note_off_c, 0, 84, 61
1, 21661, Note_on_c, 0, 86, 81
1, 21690, Note_off_c, 0, 48, 60
1, 21742, Note_on_c, 0, 84, 71
1, 21795, Note_off_c, 0, 86, 58
1, 21821, Note_on_c, 0, 83, 70
1, 21827, Note_off_c, 0, 84, 62
1, 21866, Note_off_c, 0, 83, 61
1, 21898, Note_on_c, 0, 81, 67
1, 21936, Note_off_c, 0, 81, 61
1, 21991, Note_on_c, 0, 81, 54
1, 21995, Note_on_c, 0, 48, 49
1, 22000, Note_on_c, 0, 60, 54
1, 22021, Note_off_c, 0, 48, 59
1, 22042, Note_off_c, 0, 60, 62
1, 22054, Control_c, 0, 67, 8
1, 22063, Note_on_c, 0, 79, 65
1, 22069, Control_c, 0, 67, 9
1, 22074, Note_off_c, 0, 81, 56
1, 22084, Control_c, 0, 67, 10
1, 22099, Control_c, 0, 67, 12
1, 22114, Control_c, 0, 67, 14
1, 22129, Control_c, 0, 67, 16
1, 22144, Control_c, 0, 67, 19
1, 22146, Note_off_c, 0, 79, 60
1, 22154, Note_on_c, 0, 77, 61
1, 22158, Control_c, 0, 67, 22
1, 22173, Control_c, 0, 67, 25
1, 22188, Control_c, 0, 67, 28
1, 22193, Note_off_c, 0, 77, 60
1, 22203, Control_c, 0, 67, 31
1, 22218, Control_c, 0, 67, 34
1, 22233, Control_c, 0, 67, 36
1, 22240, Note_on_c, 0, 76, 57
1, 22248, Control_c, 0, 67, 38
1, 22262, Control_c, 0, 67, 39
1, 22277, Control_c, 0, 67, 40
1, 22292, Control_c, 0, 67, 41
1, 22307, Control_c, 0, 67, 41
1, 22322, Control_c, 0, 67, 42
1, 22336, Control_c, 0, 67, 42
1, 22380, Control_c, 0, 67, 43
1, 22381, Note_off_c, 0, 76, 47
1, 22385, Note_on_c, 0, 79, 58
1, 22392, Note_on_c, 0, 55, 39
1, 22394, Note_on_c, 0, 64, 35
1, 22463, Control_c, 0, 67, 43
1, 22730, Control_c, 0, 67, 43
1, 22774, Control_c, 0, 67, 42
1, 22818, Control_c, 0, 67, 42
1, 22849, Control_c, 0, 67, 41
1, 22879, Control_c, 0, 67, 40
1, 22908, Control_c, 0, 67, 40
1, 22937, Control_c, 0, 67, 39
1, 22952, Control_c, 0, 67, 39
1, 22963, Note_on_c, 0, 76, 43
1, 22967, Control_c, 0, 67, 38
1, 22975, Note_on_c, 0, 60, 30
1, 22982, Control_c, 0, 64, 40
1, 22988, Note_off_c, 0, 79, 41
1, 22991, Note_off_c, 0, 64, 32
1, 22997, Control_c, 0, 64, 51
1, 22997, Control_c, 0, 67, 37
1, 23011, Control_c, 0, 64, 56
1, 23026, Control_c, 0, 64, 60
1, 23026, Control_c, 0, 67, 37
1, 23041, Control_c, 0, 64, 62
1, 23041, Control_c, 0, 67, 36
1, 23056, Control_c, 0, 64, 63
1, 23071, Control_c, 0, 64, 65
1, 23085, Control_c, 0, 64, 66
1, 23093, Note_off_c, 0, 55, 28
1, 23100, Control_c, 0, 64, 68
1, 23115, Control_c, 0, 64, 70
1, 23130, Control_c, 0, 64, 71
1, 23145, Control_c, 0, 64, 72
1, 23160, Control_c, 0, 64, 73
1, 23160, Control_c, 0, 67, 37
1, 23172, Note_off_c, 0, 60, 41
1, 23192, Note_on_c, 0, 74, 45
1, 23196, Note_on_c, 0, 59, 37
1, 23197, Control_c, 0, 64, 74
1, 23226, Note_off_c, 0, 59, 48
1, 23226, Control_c, 0, 67, 37
1, 23232, Note_off_c, 0, 76, 59
1, 23239, Note_off_c, 0, 74, 60
1, 23256, Control_c, 0, 64, 74
1, 23287, Control_c, 0, 64, 75
1, 23302, Control_c, 0, 64, 76
1, 23316, Control_c, 0, 64, 77
1, 23331, Control_c, 0, 64, 78
1, 23346, Control_c, 0, 64, 80
1, 23361, Control_c, 0, 64, 81
1, 23376, Control_c, 0, 64, 84
1, 23390, Control_c, 0, 64, 86
1, 23405, Control_c, 0, 64, 89
1, 23420, Control_c, 0, 64, 92
1, 23420, Control_c, 0, 67, 38
1, 23431, Note_on_c, 0, 43, 63
1, 23434, Control_c, 0, 64, 92
1, 23434, Control_c, 0, 67, 38
1, 23464, Control_c, 0, 64, 91
1, 23464, Control_c, 0, 67, 37
1, 23479, Control_c, 0, 64, 84
1, 23479, Control_c, 0, 67, 36
1, 23494, Control_c, 0, 64, 76
1, 23494, Control_c, 0, 67, 34
1, 23509, Control_c, 0, 64, 70
1, 23509, Control_c, 0, 67, 33
1, 23524, Control_c, 0, 64, 68
1, 23524, Control_c, 0, 67, 31
1, 23539, Control_c, 0, 67, 29
1, 23553, Control_c, 0, 64, 70
1, 23553, Control_c, 0, 67, 25
1, 23565, Note_off_c, 0, 43, 35
1, 23568, Control_c, 0, 64, 74
1, 23568, Control_c, 0, 67, 22
1, 23583, Control_c, 0, 64, 79
1, 23583, Control_c, 0, 67, 19
1, 23598, Control_c, 0, 64, 84
1, 23598, Control_c, 0, 67, 16
1, 23608, Note_on_c, 0, 47, 64
1, 23613, Control_c, 0, 64, 90
1, 23613, Control_c, 0, 67, 13
1, 23628, Control_c, 0, 64, 96
1, 23628, Control_c, 0, 67, 10
1, 23642, Control_c, 0, 64, 103
1, 23642, Control_c, 0, 67, 8
1, 23657, Control_c, 0, 64, 113
1, 23665, Note_off_c, 0, 47, 49
1, 23672, Control_c, 0, 64, 127
1, 23672, Control_c, 0, 67, 9
1, 23687, Control_c, 0, 67, 9
1, 23702, Control_c, 0, 67, 10
1, 23716, Control_c, 0, 67, 11
1, 23731, Control_c, 0, 64, 95
1, 23731, Control_c, 0, 67, 12
1, 23746, Control_c, 0, 64, 80
1, 23746, Control_c, 0, 67, 12
1, 23760, Control_c, 0, 64, 74
1, 23760, Control_c, 0, 67, 13
1, 23766, Note_on_c, 0, 50, 74
1, 23775, Control_c, 0, 64, 75
1, 23790, Control_c, 0, 64, 79
1, 23797, Note_off_c, 0, 50, 66
1, 23805, Control_c, 0, 64, 86
1, 23820, Control_c, 0, 64, 99
1, 23834, Control_c, 0, 64, 127
1, 23894, Control_c, 0, 67, 12
1, 23931, Control_c, 0, 67, 12
1, 23945, Note_on_c, 0, 73, 73
1, 23948, Note_on_c, 0, 55, 64
1, 23960, Control_c, 0, 64, 95
1, 23975, Control_c, 0, 64, 78
1, 23990, Control_c, 0, 64, 67
1, 24005, Control_c, 0, 64, 59
1, 24005, Control_c, 0, 67, 12
1, 24020, Control_c, 0, 64, 54
1, 24034, Control_c, 0, 64, 52
1, 24049, Control_c, 0, 64, 50
1, 24065, Control_c, 0, 64, 46
1, 24080, Control_c, 0, 64, 38
1, 24095, Control_c, 0, 64, 27
1, 24106, Note_off_c, 0, 73, 57
1, 24110, Control_c, 0, 64, 0
1, 24113, Note_on_c, 0, 74, 55
1, 24124, Note_on_c, 0, 59, 38
1, 24169, Control_c, 0, 67, 13
1, 24272, Note_off_c, 0, 74, 59
1, 24278, Note_off_c, 0, 55, 60
1, 24281, Note_on_c, 0, 72, 57
1, 24287, Note_off_c, 0, 59, 56
1, 24287, Control_c, 0, 67, 12
1, 24296, Note_on_c, 0, 62, 35
1, 24302, Control_c, 0, 67, 12
1, 24332, Note_off_c, 0, 62, 51
1, 24346, Control_c, 0, 67, 11
1, 24356, Note_on_c, 0, 71, 59
1, 24391, Control_c, 0, 67, 10
1, 24394, Note_off_c, 0, 72, 36
1, 24418, Note_off_c, 0, 71, 57
1, 24436, Control_c, 0, 67, 10
1, 24436, Note_on_c, 0, 69, 60
1, 24469, Note_off_c, 0, 69, 63
1, 24508, Note_on_c, 0, 67, 57
1, 24569, Control_c, 0, 64, 46
1, 24570, Note_off_c, 0, 67, 52
1, 24583, Control_c, 0, 64, 59
1, 24583, Control_c, 0, 67, 10
1, 24584, Note_on_c, 0, 73, 59
1, 24594, Note_on_c, 0, 55, 41
1, 24598, Control_c, 0, 64, 62
1, 24613, Control_c, 0, 64, 63
1, 24613, Control_c, 0, 67, 11
1, 24628, Control_c, 0, 64, 65
1, 24628, Control_c, 0, 67, 11
1, 24643, Control_c, 0, 64, 66
1, 24657, Control_c, 0, 64, 68
1, 24657, Control_c, 0, 67, 12
1, 24672, Control_c, 0, 64, 71
1, 24695, Control_c, 0, 64, 72
1, 24695, Control_c, 0, 67, 12
1, 24709, Control_c, 0, 64, 73
1, 24709, Control_c, 0, 67, 13
1, 24724, Control_c, 0, 64, 74
1, 24724, Control_c, 0, 67, 14
1, 24728, Note_off_c, 0, 73, 61
1, 24739, Control_c, 0, 67, 15
1, 24740, Note_on_c, 0, 59, 45
1, 24754, Note_on_c, 0, 74, 42
1, 24754, Control_c, 0, 64, 74
1, 24754, Control_c, 0, 67, 16
1, 24769, Control_c, 0, 67, 17
1, 24783, Control_c, 0, 67, 17
1, 24798, Control_c, 0, 67, 18
1, 24813, Control_c, 0, 67, 18
1, 24828, Control_c, 0, 67, 19
1, 24843, Control_c, 0, 67, 20
1, 24859, Control_c, 0, 67, 21
1, 24874, Control_c, 0, 67, 22
1, 24888, Control_c, 0, 64, 72
1, 24888, Control_c, 0, 67, 23
1, 24900, Note_off_c, 0, 55, 58
1, 24903, Control_c, 0, 64, 66
1, 24903, Control_c, 0, 67, 25
1, 24916, Note_off_c, 0, 74, 53
1, 24917, Note_off_c, 0, 59, 57
1, 24918, Control_c, 0, 64, 47
1, 24918, Control_c, 0, 67, 25
1, 24926, Note_on_c, 0, 72, 44
1, 24931, Note_on_c, 0, 62, 35
1, 24933, Control_c, 0, 64, 0
1, 24933, Control_c, 0, 67, 26
1, 24948, Control_c, 0, 67, 26
1, 24962, Control_c, 0, 67, 27
1, 24992, Control_c, 0, 67, 27
1, 24994, Note_on_c, 0, 71, 52
1, 25006, Control_c, 0, 67, 28
1, 25021, Control_c, 0, 67, 29
1, 25028, Note_off_c, 0, 72, 37
1, 25036, Control_c, 0, 67, 29
1, 25056, Note_off_c, 0, 71, 60
1, 25066, Note_on_c, 0, 69, 59
1, 25101, Note_off_c, 0, 69, 62
1, 25148, Note_on_c, 0, 67, 50
1, 25169, Control_c, 0, 64, 28
1, 25184, Control_c, 0, 64, 57
1, 25199, Control_c, 0, 64, 60
1, 25214, Control_c, 0, 64, 62
1, 25214, Control_c, 0, 67, 29
1, 25220, Note_on_c, 0, 55, 39
1, 25220, Note_off_c, 0, 62, 40
1, 25222, Note_on_c, 0, 75, 50
1, 25222, Note_off_c, 0, 67, 46
1, 25229, Control_c, 0, 64, 63
1, 25244, Control_c, 0, 64, 64
1, 25259, Control_c, 0, 64, 65
1, 25273, Control_c, 0, 64, 65
1, 25288, Control_c, 0, 64, 66
1, 25386, Note_on_c, 0, 76, 54
1, 25392, Control_c, 0, 67, 29
1, 25394, Note_on_c, 0, 60, 38
1, 25406, Control_c, 0, 64, 65
1, 25408, Note_off_c, 0, 75, 53
1, 25421, Control_c, 0, 64, 63
1, 25423, Note_off_c, 0, 76, 63
1, 25443, Control_c, 0, 64, 49
1, 25458, Control_c, 0, 64, 0
1, 25488, Control_c, 0, 67, 29
1, 25503, Control_c, 0, 67, 28
1, 25518, Note_off_c, 0, 60, 51
1, 25532, Control_c, 0, 67, 28
1, 25540, Note_on_c, 0, 76, 58
1, 25547, Control_c, 0, 67, 27
1, 25553, Note_on_c, 0, 64, 43
1, 25577, Control_c, 0, 67, 27
1, 25582, Note_off_c, 0, 76, 58
1, 25592, Control_c, 0, 67, 26
1, 25621, Control_c, 0, 67, 25
1, 25636, Control_c, 0, 67, 25
1, 25672, Note_off_c, 0, 55, 52
1, 25682, Control_c, 0, 67, 24
1, 25694, Note_on_c, 0, 76, 58
1, 25697, Control_c, 0, 67, 24
1, 25712, Note_on_c, 0, 60, 16
1, 25726, Control_c, 0, 67, 23
1, 25731, Note_off_c, 0, 76, 61
1, 25741, Control_c, 0, 67, 23
1, 25755, Control_c, 0, 67, 22
1, 25770, Control_c, 0, 64, 51
1, 25770, Control_c, 0, 67, 22
1, 25785, Control_c, 0, 64, 56
1, 25795, Note_off_c, 0, 60, 32
1, 25800, Control_c, 0, 64, 59
1, 25815, Control_c, 0, 64, 61
1, 25815, Control_c, 0, 67, 21
1, 25828, Control_c, 0, 64, 63
1, 25843, Control_c, 0, 64, 64
1, 25843, Control_c, 0, 67, 21
1, 25858, Control_c, 0, 64, 65
1, 25858, Control_c, 0, 67, 20
1, 25861, Note_on_c, 0, 76, 44
1, 25873, Note_on_c, 0, 55, 37
1, 25873, Control_c, 0, 64, 67
1, 25873, Control_c, 0, 67, 19
1, 25888, Control_c, 0, 64, 68
1, 25888, Control_c, 0, 67, 19
1, 25896, Note_off_c, 0, 64, 42
1, 25902, Control_c, 0, 64, 69
1, 25917, Control_c, 0, 64, 71
1, 25932, Control_c, 0, 64, 72
1, 25947, Control_c, 0, 64, 73
1, 25962, Control_c, 0, 64, 74
1, 25977, Control_c, 0, 64, 74
1, 25992, Control_c, 0, 64, 75
1, 25992, Control_c, 0, 67, 18
1, 26007, Control_c, 0, 64, 75
1, 26022, Control_c, 0, 64, 76
1, 26036, Control_c, 0, 64, 76
1, 26049, Note_on_c, 0, 60, 42
1, 26066, Control_c, 0, 67, 18
1, 26096, Control_c, 0, 67, 17
1, 26110, Control_c, 0, 67, 16
1, 26125, Control_c, 0, 67, 14
1, 26140, Control_c, 0, 67, 11
1, 26154, Control_c, 0, 67, 10
1, 26156, Note_off_c, 0, 60, 55
1, 26169, Control_c, 0, 67, 8
1, 26192, Control_c, 0, 67, 0
1, 26199, Note_on_c, 0, 64, 60
1, 26298, Note_off_c, 0, 55, 56
1, 26310, Control_c, 0, 64, 77
1, 26339, Note_on_c, 0, 60, 45
1, 26340, Control_c, 0, 64, 77
1, 26369, Control_c, 0, 64, 78
1, 26384, Control_c, 0, 64, 78
1, 26406, Note_off_c, 0, 76, 60
1, 26414, Control_c, 0, 64, 79
1, 26423, Note_on_c, 0, 69, 73
1, 26504, Control_c, 0, 64, 77
1, 26519, Control_c, 0, 64, 71
1, 26533, Control_c, 0, 64, 58
1, 26537, Note_on_c, 0, 54, 59
1, 26542, Note_on_c, 0, 81, 81
1, 26548, Control_c, 0, 64, 0
1, 26561, Note_off_c, 0, 60, 49
1, 26586, Note_off_c, 0, 64, 38
1, 26592, Note_off_c, 0, 69, 45
1, 26607, Control_c, 0, 64, 36
1, 26622, Control_c, 0, 64, 56
1, 26637, Control_c, 0, 64, 63
1, 26651, Control_c, 0, 64, 64
1, 26666, Control_c, 0, 64, 65
1, 26681, Control_c, 0, 64, 66
1, 26695, Control_c, 0, 64, 68
1, 26706, Note_on_c, 0, 57, 56
1, 26710, Control_c, 0, 64, 69
1, 26725, Control_c, 0, 64, 71
1, 26740, Control_c, 0, 64, 73
1, 26755, Control_c, 0, 64, 73
1, 26770, Control_c, 0, 64, 74
1, 26785, Control_c, 0, 64, 74
1, 26829, Control_c, 0, 64, 75
1, 26847, Note_off_c, 0, 54, 60
1, 26878, Note_on_c, 0, 60, 60
1, 26958, Note_off_c, 0, 57, 24
1, 26978, Note_on_c, 0, 79, 66
1, 26984, Note_off_c, 0, 81, 55
1, 27017, Note_off_c, 0, 60, 23
1, 27038, Note_on_c, 0, 78, 74
1, 27086, Note_off_c, 0, 79, 63
1, 27095, Note_on_c, 0, 76, 76
1, 27118, Control_c, 0, 64, 73
1, 27122, Note_off_c, 0, 78, 62
1, 27133, Control_c, 0, 64, 63
1, 27148, Control_c, 0, 64, 0
1, 27156, Note_on_c, 0, 54, 59
1, 27156, Note_off_c, 0, 76, 65
1, 27163, Note_on_c, 0, 74, 81
1, 27222, Control_c, 0, 64, 45
1, 27237, Control_c, 0, 64, 61
1, 27253, Control_c, 0, 64, 63
1, 27268, Control_c, 0, 64, 64
1, 27282, Control_c, 0, 64, 65
1, 27317, Note_off_c, 0, 74, 60
1, 27340, Note_on_c, 0, 57, 58
1, 27342, Note_on_c, 0, 86, 84
1, 27371, Control_c, 0, 64, 64
1, 27378, Note_off_c, 0, 86, 65
1, 27386, Control_c, 0, 64, 63
1, 27400, Control_c, 0, 64, 56
1, 27415, Control_c, 0, 64, 33
1, 27430, Control_c, 0, 64, 0
1, 27491, Note_off_c, 0, 54, 57
1, 27503, Note_off_c, 0, 57, 61
1, 27509, Note_on_c, 0, 86, 82
1, 27524, Note_on_c, 0, 60, 56
1, 27542, Note_off_c, 0, 86, 61
1, 27693, Note_on_c, 0, 86, 73
1, 27717, Note_off_c, 0, 86, 65
1, 27733, Control_c, 0, 67, 9
1, 27748, Control_c, 0, 67, 15
1, 27763, Control_c, 0, 67, 21
1, 27778, Control_c, 0, 67, 28
1, 27793, Control_c, 0, 67, 35
1, 27807, Control_c, 0, 67, 42
1, 27822, Control_c, 0, 67, 48
1, 27837, Control_c, 0, 67, 54
1, 27852, Control_c, 0, 64, 24
1, 27852, Control_c, 0, 67, 58
1, 27867, Control_c, 0, 64, 35
1, 27867, Control_c, 0, 67, 61
1, 27882, Control_c, 0, 64, 37
1, 27882, Control_c, 0, 67, 64
1, 27897, Control_c, 0, 64, 43
1, 27897, Control_c, 0, 67, 65
1, 27912, Control_c, 0, 64, 50
1, 27912, Control_c, 0, 67, 66
1, 27923, Note_on_c, 0, 86, 54
1, 27926, Control_c, 0, 64, 56
1, 27926, Control_c, 0, 67, 67
1, 27931, Note_on_c, 0, 55, 37
1, 27934, Note_off_c, 0, 60, 34
1, 27941, Control_c, 0, 64, 60
1, 27941, Control_c, 0, 67, 67
1, 27956, Control_c, 0, 64, 62
1, 27971, Control_c, 0, 64, 63
1, 27986, Control_c, 0, 64, 64
1, 28000, Control_c, 0, 64, 66
1, 28015, Control_c, 0, 64, 67
1, 28030, Control_c, 0, 64, 69
1, 28045, Control_c, 0, 64, 70
1, 28061, Control_c, 0, 64, 71
1, 28075, Control_c, 0, 64, 72
1, 28090, Control_c, 0, 64, 73
1, 28104, Control_c, 0, 64, 74
1, 28119, Control_c, 0, 64, 75
1, 28123, Note_on_c, 0, 59, 28
1, 28134, Control_c, 0, 64, 75
1, 28163, Control_c, 0, 67, 67
1, 28193, Control_c, 0, 67, 66
1, 28208, Control_c, 0, 67, 66
1, 28222, Control_c, 0, 67, 65
1, 28237, Control_c, 0, 67, 64
1, 28252, Control_c, 0, 67, 63
1, 28267, Control_c, 0, 67, 62
1, 28282, Control_c, 0, 67, 61
1, 28296, Control_c, 0, 67, 61
1, 28307, Note_on_c, 0, 62, 37
1, 28315, Note_off_c, 0, 59, 38
1, 28321, Note_off_c, 0, 55, 32
1, 28326, Control_c, 0, 67, 60
1, 28341, Note_off_c, 0, 62, 52
1, 28341, Control_c, 0, 67, 60
1, 28354, Note_off_c, 0, 86, 59
1, 28356, Control_c, 0, 67, 59
1, 28371, Control_c, 0, 67, 58
1, 28386, Control_c, 0, 67, 58
1, 28387, Note_on_c, 0, 83, 53
1, 28433, Note_off_c, 0, 83, 60
1, 28437, Control_c, 0, 67, 57
1, 28463, Note_on_c, 0, 62, 35
1, 28473, Note_on_c, 0, 86, 52
1, 28481, Control_c, 0, 64, 74
1, 28496, Control_c, 0, 64, 70
1, 28511, Control_c, 0, 64, 63
1, 28526, Control_c, 0, 64, 28
1, 28539, Note_on_c, 0, 83, 47
1, 28541, Control_c, 0, 64, 0
1, 28571, Note_off_c, 0, 83, 60
1, 28599, Note_off_c, 0, 62, 37
1, 28624, Note_on_c, 0, 79, 45
1, 28627, Note_on_c, 0, 55, 38
1, 28689, Control_c, 0, 67, 58
1, 28693, Note_off_c, 0, 86, 14
1, 28734, Control_c, 0, 67, 58
1, 28793, Control_c, 0, 67, 59
1, 28808, Control_c, 0, 67, 59
1, 28820, Note_on_c, 0, 59, 27
1, 28820, Note_off_c, 0, 79, 58
1, 28837, Control_c, 0, 67, 60
1, 28868, Control_c, 0, 67, 60
1, 28897, Control_c, 0, 67, 61
1, 28927, Control_c, 0, 67, 61
1, 28942, Control_c, 0, 67, 62
1, 28949, Note_off_c, 0, 55, 45
1, 28966, Note_on_c, 0, 62, 37
1, 28971, Control_c, 0, 67, 62
1, 28979, Note_off_c, 0, 59, 42
1, 29001, Control_c, 0, 67, 63
1, 29003, Note_off_c, 0, 62, 51
1, 29016, Control_c, 0, 67, 63
1, 29031, Control_c, 0, 67, 64
1, 29060, Control_c, 0, 67, 64
1, 29090, Control_c, 0, 67, 65
1, 29104, Control_c, 0, 67, 65
1, 29120, Note_on_c, 0, 62, 34
1, 29134, Control_c, 0, 67, 66
1, 29186, Control_c, 0, 64, 45
1, 29201, Control_c, 0, 64, 60
1, 29216, Control_c, 0, 64, 62
1, 29231, Control_c, 0, 64, 63
1, 29246, Control_c, 0, 64, 64
1, 29260, Control_c, 0, 64, 66
1, 29275, Control_c, 0, 64, 67
1, 29289, Note_on_c, 0, 73, 53
1, 29290, Control_c, 0, 64, 68
1, 29295, Note_on_c, 0, 55, 41
1, 29304, Control_c, 0, 64, 70
1, 29305, Note_off_c, 0, 62, 17
1, 29319, Control_c, 0, 64, 71
1, 29334, Control_c, 0, 64, 72
1, 29334, Control_c, 0, 67, 65
1, 29364, Control_c, 0, 64, 72
1, 29393, Control_c, 0, 64, 73
1, 29443, Note_off_c, 0, 73, 56
1, 29454, Note_on_c, 0, 59, 34
1, 29459, Note_on_c, 0, 74, 48
1, 29572, Control_c, 0, 64, 72
1, 29582, Note_off_c, 0, 55, 57
1, 29587, Control_c, 0, 64, 67
1, 29594, Note_off_c, 0, 74, 60
1, 29602, Control_c, 0, 64, 51
1, 29611, Note_on_c, 0, 72, 53
1, 29616, Control_c, 0, 64, 0
1, 29623, Note_off_c, 0, 59, 50
1, 29632, Note_on_c, 0, 62, 30
1, 29665, Note_off_c, 0, 72, 56
1, 29675, Note_on_c, 0, 71, 54
1, 29721, Control_c, 0, 67, 66
1, 29730, Note_off_c, 0, 71, 60
1, 29742, Note_on_c, 0, 69, 61
1, 29775, Note_off_c, 0, 69, 64
1, 29822, Note_on_c, 0, 67, 51
1, 29869, Control_c, 0, 64, 60
1, 29875, Note_off_c, 0, 62, 41
1, 29884, Control_c, 0, 64, 64
1, 29891, Note_on_c, 0, 55, 53
1, 29891, Note_on_c, 0, 73, 62
1, 29895, Note_off_c, 0, 67, 57
1, 29899, Control_c, 0, 64, 65
1, 29914, Control_c, 0, 64, 66
1, 29936, Control_c, 0, 64, 68
1, 29936, Control_c, 0, 67, 65
1, 29950, Control_c, 0, 64, 69
1, 29953, Note_off_c, 0, 73, 55
1, 29965, Control_c, 0, 64, 70
1, 29969, Note_on_c, 0, 74, 65
1, 29980, Control_c, 0, 64, 72
1, 29995, Control_c, 0, 64, 73
1, 30010, Control_c, 0, 64, 74
1, 30025, Control_c, 0, 64, 74
1, 30040, Control_c, 0, 64, 75
1, 30040, Note_off_c, 0, 74, 60
1, 30052, Note_on_c, 0, 76, 65
1, 30054, Control_c, 0, 64, 75
1, 30069, Control_c, 0, 64, 76
1, 30073, Note_on_c, 0, 59, 43
1, 30084, Control_c, 0, 64, 76
1, 30114, Control_c, 0, 64, 77
1, 30126, Note_on_c, 0, 74, 62
1, 30142, Note_off_c, 0, 76, 47
1, 30188, Control_c, 0, 64, 75
1, 30191, Note_off_c, 0, 55, 61
1, 30201, Note_on_c, 0, 72, 66
1, 30202, Control_c, 0, 64, 65
1, 30216, Note_on_c, 0, 62, 51
1, 30217, Control_c, 0, 64, 0
1, 30237, Note_off_c, 0, 59, 58
1, 30243, Note_off_c, 0, 74, 56
1, 30275, Note_on_c, 0, 71, 72
1, 30276, Note_off_c, 0, 72, 60
1, 30306, Control_c, 0, 67, 66
1, 30324, Note_off_c, 0, 71, 60
1, 30349, Note_on_c, 0, 69, 63
1, 30413, Note_on_c, 0, 67, 66
1, 30415, Note_off_c, 0, 69, 62
1, 30424, Control_c, 0, 67, 65
1, 30455, Control_c, 0, 67, 65
1, 30469, Control_c, 0, 64, 62
1, 30469, Control_c, 0, 67, 64
1, 30483, Note_off_c, 0, 62, 48
1, 30484, Control_c, 0, 64, 65
1, 30484, Control_c, 0, 67, 64
1, 30499, Note_on_c, 0, 55, 65
1, 30499, Note_off_c, 0, 67, 51
1, 30499, Control_c, 0, 64, 67
1, 30499, Control_c, 0, 67, 63
1, 30502, Note_on_c, 0, 75, 77
1, 30514, Control_c, 0, 64, 68
1, 30514, Control_c, 0, 67, 61
1, 30529, Control_c, 0, 64, 71
1, 30529, Control_c, 0, 67, 61
1, 30544, Control_c, 0, 64, 73
1, 30544, Control_c, 0, 67, 59
1, 30559, Control_c, 0, 64, 75
1, 30559, Control_c, 0, 67, 59
1, 30574, Control_c, 0, 64, 76
1, 30588, Control_c, 0, 64, 78
1, 30603, Control_c, 0, 64, 79
1, 30618, Control_c, 0, 64, 80
1, 30633, Control_c, 0, 64, 80
1, 30648, Control_c, 0, 64, 81
1, 30648, Control_c, 0, 67, 59
1, 30663, Control_c, 0, 64, 82
1, 30684, Control_c, 0, 64, 82
1, 30693, Note_on_c, 0, 76, 76
1, 30714, Control_c, 0, 64, 83
1, 30722, Note_on_c, 0, 60, 54
1, 30728, Note_off_c, 0, 75, 60
1, 30759, Note_off_c, 0, 76, 46
1, 30803, Control_c, 0, 64, 82
1, 30818, Control_c, 0, 64, 80
1, 30833, Control_c, 0, 64, 76
1, 30834, Note_off_c, 0, 60, 58
1, 30848, Control_c, 0, 64, 69
1, 30854, Note_on_c, 0, 64, 57
1, 30857, Note_on_c, 0, 76, 72
1, 30863, Control_c, 0, 64, 59
1, 30877, Control_c, 0, 64, 21
1, 30891, Note_off_c, 0, 76, 63
1, 30892, Control_c, 0, 64, 0
1, 30993, Note_off_c, 0, 55, 61
1, 31002, Note_on_c, 0, 76, 80
1, 31013, Note_on_c, 0, 60, 39
1, 31047, Note_off_c, 0, 76, 64
1, 31099, Control_c, 0, 67, 59
1, 31114, Control_c, 0, 67, 58
1, 31143, Control_c, 0, 67, 58
1, 31146, Note_off_c, 0, 60, 56
1, 31158, Control_c, 0, 67, 57
1, 31161, Note_on_c, 0, 76, 71
1, 31165, Note_off_c, 0, 64, 57
1, 31167, Note_on_c, 0, 55, 56
1, 31173, Control_c, 0, 67, 57
1, 31188, Control_c, 0, 64, 52
1, 31188, Control_c, 0, 67, 56
1, 31202, Control_c, 0, 64, 62
1, 31202, Control_c, 0, 67, 56
1, 31217, Control_c, 0, 64, 64
1, 31217, Control_c, 0, 67, 54
1, 31232, Control_c, 0, 64, 66
1, 31232, Control_c, 0, 67, 52
1, 31248, Control_c, 0, 64, 68
1, 31248, Control_c, 0, 67, 49
1, 31263, Control_c, 0, 64, 72
1, 31263, Control_c, 0, 67, 46
1, 31278, Control_c, 0, 64, 75
1, 31278, Control_c, 0, 67, 42
1, 31292, Control_c, 0, 64, 78
1, 31292, Control_c, 0, 67, 38
1, 31307, Control_c, 0, 64, 80
1, 31307, Control_c, 0, 67, 33
1, 31322, Control_c, 0, 64, 83
1, 31322, Control_c, 0, 67, 28
1, 31334, Note_on_c, 0, 60, 54
1, 31337, Control_c, 0, 64, 85
1, 31337, Control_c, 0, 67, 24
1, 31352, Control_c, 0, 64, 88
1, 31352, Control_c, 0, 67, 19
1, 31366, Control_c, 0, 64, 90
1, 31366, Control_c, 0, 67, 16
1, 31381, Control_c, 0, 64, 92
1, 31381, Control_c, 0, 67, 14
1, 31396, Control_c, 0, 64, 94
1, 31396, Control_c, 0, 67, 11
1, 31419, Control_c, 0, 64, 96
1, 31419, Control_c, 0, 67, 8
1, 31429, Note_off_c, 0, 76, 58
1, 31434, Control_c, 0, 64, 97
1, 31434, Control_c, 0, 67, 0
1, 31448, Control_c, 0, 64, 98
1, 31458, Note_off_c, 0, 60, 57
1, 31463, Control_c, 0, 64, 99
1, 31486, Note_on_c, 0, 64, 67
1, 31580, Note_off_c, 0, 64, 52
1, 31582, Note_off_c, 0, 55, 62
1, 31644, Note_on_c, 0, 60, 55
1, 31688, Note_off_c, 0, 60, 57
1, 31760, Control_c, 0, 64, 96
1, 31774, Control_c, 0, 64, 74
1, 31789, Control_c, 0, 64, 26
1, 31799, Note_on_c, 0, 60, 71
1, 31803, Note_on_c, 0, 81, 72
1, 31804, Note_on_c, 0, 54, 65
1, 31804, Control_c, 0, 64, 0
1, 31807, Note_on_c, 0, 57, 66
1, 31808, Note_on_c, 0, 62, 65
1, 31863, Note_off_c, 0, 81, 59
1, 31872, Note_on_c, 0, 83, 79
1, 31891, Control_c, 0, 64, 52
1, 31906, Control_c, 0, 64, 60
1, 31921, Control_c, 0, 64, 60
1, 31941, Note_off_c, 0, 83, 62
1, 31954, Note_on_c, 0, 84, 68
1, 31980, Control_c, 0, 64, 59
1, 31995, Control_c, 0, 64, 51
1, 32010, Control_c, 0, 64, 0
1, 32026, Note_on_c, 0, 83, 75
1, 32067, Note_off_c, 0, 84, 46
1, 32100, Note_on_c, 0, 81, 77
1, 32106, Note_off_c, 0, 83, 62
1, 32147, Note_off_c, 0, 81, 61
1, 32184, Note_on_c, 0, 79, 69
1, 32242, Note_off_c, 0, 79, 60
1, 32249, Note_on_c, 0, 78, 73
1, 32323, Note_on_c, 0, 76, 71
1, 32339, Note_off_c, 0, 78, 61
1, 32377, Note_off_c, 0, 76, 64
1, 32386, Note_on_c, 0, 74, 70
1, 32448, Note_off_c, 0, 74, 59
1, 32456, Note_on_c, 0, 78, 72
1, 32518, Note_off_c, 0, 78, 62
1, 32529, Note_on_c, 0, 81, 66
1, 32598, Note_on_c, 0, 79, 70
1, 32614, Note_off_c, 0, 81, 59
1, 32666, Note_on_c, 0, 78, 73
1, 32682, Note_off_c, 0, 57, 61
1, 32687, Note_off_c, 0, 60, 54
1, 32692, Note_off_c, 0, 79, 59
1, 32702, Note_off_c, 0, 62, 59
1, 32704, Note_off_c, 0, 54, 58
1, 32738, Note_on_c, 0, 76, 72
1, 32738, Note_off_c, 0, 78, 62
1, 32770, Note_off_c, 0, 76, 62
1, 32809, Note_on_c, 0, 74, 68
1, 32891, Note_on_c, 0, 72, 64
1, 32893, Note_off_c, 0, 74, 59
1, 32931, Control_c, 0, 64, 40
1, 32933, Note_off_c, 0, 72, 57
1, 32945, Control_c, 0, 64, 65
1, 32960, Control_c, 0, 64, 67
1, 32961, Note_on_c, 0, 71, 78
1, 32975, Control_c, 0, 64, 71
1, 32988, Note_on_c, 0, 55, 51
1, 32990, Control_c, 0, 64, 76
1, 33000, Note_off_c, 0, 71, 58
1, 33004, Control_c, 0, 64, 80
1, 33019, Control_c, 0, 64, 84
1, 33034, Control_c, 0, 64, 88
1, 33049, Control_c, 0, 64, 93
1, 33064, Control_c, 0, 64, 97
1, 33078, Control_c, 0, 64, 99
1, 33093, Control_c, 0, 64, 102
1, 33101, Note_off_c, 0, 55, 59
1, 33108, Control_c, 0, 64, 104
1, 33123, Note_on_c, 0, 59, 53
1, 33123, Control_c, 0, 64, 105
1, 33138, Control_c, 0, 64, 107
1, 33152, Control_c, 0, 64, 110
1, 33167, Control_c, 0, 64, 113
1, 33182, Control_c, 0, 64, 117
1, 33188, Note_off_c, 0, 59, 59
1, 33197, Control_c, 0, 64, 120
1, 33212, Control_c, 0, 64, 121
1, 33226, Note_on_c, 0, 67, 54
1, 33227, Control_c, 0, 64, 120
1, 33241, Control_c, 0, 64, 110
1, 33256, Control_c, 0, 64, 85
1, 33271, Control_c, 0, 64, 62
1, 33271, Note_on_c, 0, 74, 68
1, 33286, Control_c, 0, 64, 19
1, 33289, Note_on_c, 0, 57, 64
1, 33295, Note_off_c, 0, 74, 68
1, 33299, Note_on_c, 0, 72, 68
1, 33301, Control_c, 0, 64, 23
1, 33305, Note_off_c, 0, 67, 53
1, 33316, Control_c, 0, 64, 41
1, 33327, Note_off_c, 0, 72, 64
1, 33331, Control_c, 0, 64, 58
1, 33346, Control_c, 0, 64, 65
1, 33358, Note_on_c, 0, 74, 71
1, 33361, Control_c, 0, 64, 73
1, 33376, Control_c, 0, 64, 82
1, 33389, Note_on_c, 0, 60, 60
1, 33390, Control_c, 0, 64, 87
1, 33400, Note_on_c, 0, 72, 74
1, 33405, Control_c, 0, 64, 89
1, 33406, Note_off_c, 0, 74, 48
1, 33411, Note_off_c, 0, 57, 46
1, 33420, Control_c, 0, 64, 92
1, 33435, Control_c, 0, 64, 96
1, 33450, Control_c, 0, 64, 99
1, 33458, Note_off_c, 0, 72, 62
1, 33464, Control_c, 0, 64, 104
1, 33468, Note_on_c, 0, 71, 75
1, 33479, Control_c, 0, 64, 108
1, 33493, Note_off_c, 0, 60, 57
1, 33494, Control_c, 0, 64, 116
1, 33509, Control_c, 0, 64, 127
1, 33518, Note_on_c, 0, 67, 53
1, 33525, Note_on_c, 0, 72, 73
1, 33534, Note_off_c, 0, 71, 59
1, 33571, Note_off_c, 0, 67, 50
1, 33592, Note_on_c, 0, 74, 89
1, 33595, Note_off_c, 0, 72, 62
1, 33597, Control_c, 0, 64, 91
1, 33612, Control_c, 0, 64, 66
1, 33613, Note_on_c, 0, 59, 66
1, 33627, Control_c, 0, 64, 0
1, 33680, Control_c, 0, 64, 40
1, 33695, Control_c, 0, 64, 62
1, 33709, Control_c, 0, 64, 68
1, 33724, Control_c, 0, 64, 73
1, 33739, Control_c, 0, 64, 79
1, 33754, Control_c, 0, 64, 83
1, 33762, Note_off_c, 0, 59, 51
1, 33765, Note_on_c, 0, 62, 53
1, 33769, Control_c, 0, 64, 88
1, 33784, Control_c, 0, 64, 93
1, 33799, Control_c, 0, 64, 100
1, 33814, Control_c, 0, 64, 109
1, 33828, Control_c, 0, 64, 127
1, 33861, Note_on_c, 0, 67, 46
1, 33892, Note_off_c, 0, 74, 56
1, 33913, Note_off_c, 0, 67, 51
1, 33917, Control_c, 0, 64, 120
1, 33917, Control_c, 0, 67, 12
1, 33932, Control_c, 0, 64, 76
1, 33932, Control_c, 0, 67, 21
1, 33942, Note_off_c, 0, 62, 59
1, 33947, Control_c, 0, 64, 58
1, 33947, Control_c, 0, 67, 36
1, 33953, Note_on_c, 0, 55, 52
1, 33962, Control_c, 0, 64, 52
1, 33962, Control_c, 0, 67, 55
1, 33976, Control_c, 0, 64, 56
1, 33976, Control_c, 0, 67, 73
1, 33991, Control_c, 0, 64, 62
1, 33991, Control_c, 0, 67, 90
1, 34006, Control_c, 0, 64, 66
1, 34006, Control_c, 0, 67, 105
1, 34020, Control_c, 0, 64, 73
1, 34020, Control_c, 0, 67, 112
1, 34026, Note_off_c, 0, 55, 59
1, 34035, Control_c, 0, 64, 80
1, 34035, Control_c, 0, 67, 115
1, 34050, Control_c, 0, 64, 86
1, 34050, Control_c, 0, 67, 116
1, 34054, Note_on_c, 0, 59, 47
1, 34065, Control_c, 0, 64, 87
1, 34080, Control_c, 0, 64, 88
1, 34094, Control_c, 0, 64, 89
1, 34104, Note_off_c, 0, 59, 59
1, 34172, Note_on_c, 0, 67, 37
1, 34228, Control_c, 0, 64, 88
1, 34243, Control_c, 0, 64, 83
1, 34258, Control_c, 0, 64, 73
1, 34273, Control_c, 0, 64, 60
1, 34279, Note_off_c, 0, 67, 35
1, 34281, Note_on_c, 0, 60, 49
1, 34287, Control_c, 0, 64, 0
1, 34288, Note_on_c, 0, 76, 50
1, 34350, Note_on_c, 0, 78, 48
1, 34353, Note_off_c, 0, 76, 51
1, 34390, Note_off_c, 0, 60, 56
1, 34391, Note_off_c, 0, 78, 64
1, 34403, Note_on_c, 0, 79, 64
1, 34432, Note_on_c, 0, 64, 39
1, 34442, Note_off_c, 0, 79, 64
1, 34471, Note_off_c, 0, 64, 57
1, 34473, Control_c, 0, 67, 116
1, 34505, Note_on_c, 0, 67, 43
1, 34589, Note_off_c, 0, 67, 56
1, 34621, Note_on_c, 0, 60, 50
1, 34622, Control_c, 0, 67, 115
1, 34625, Note_on_c, 0, 79, 65
1, 34651, Note_off_c, 0, 79, 69
1, 34724, Note_off_c, 0, 60, 54
1, 34766, Note_on_c, 0, 64, 33
1, 34828, Note_off_c, 0, 64, 60
1, 34858, Note_on_c, 0, 79, 63
1, 34860, Note_on_c, 0, 67, 35
1, 34913, Note_off_c, 0, 67, 45
1, 34917, Control_c, 0, 67, 115
1, 34920, Note_off_c, 0, 79, 0
1, 34933, Note_on_c, 0, 79, 51
1, 34954, Note_on_c, 0, 60, 54
1, 35010, Note_off_c, 0, 60, 52
1, 35068, Note_on_c, 0, 64, 43
1, 35122, Note_off_c, 0, 64, 57
1, 35162, Note_on_c, 0, 67, 45
1, 35215, Note_off_c, 0, 67, 58
1, 35245, Note_off_c, 0, 79, 64
1, 35257, Note_on_c, 0, 60, 60
1, 35265, Note_on_c, 0, 78, 58
1, 35266, Control_c, 0, 67, 113
1, 35281, Control_c, 0, 67, 111
1, 35296, Control_c, 0, 67, 108
1, 35304, Note_off_c, 0, 60, 54
1, 35311, Control_c, 0, 67, 106
1, 35326, Control_c, 0, 67, 104
1, 35340, Note_on_c, 0, 76, 58
1, 35340, Note_off_c, 0, 78, 56
1, 35340, Control_c, 0, 67, 100
1, 35355, Control_c, 0, 67, 95
1, 35370, Control_c, 0, 67, 90
1, 35373, Note_on_c, 0, 64, 47
1, 35385, Control_c, 0, 67, 84
1, 35400, Control_c, 0, 67, 79
1, 35403, Note_off_c, 0, 76, 63
1, 35406, Note_on_c, 0, 74, 65
1, 35414, Control_c, 0, 67, 75
1, 35416, Note_off_c, 0, 64, 63
1, 35429, Control_c, 0, 67, 72
1, 35444, Control_c, 0, 67, 70
1, 35458, Note_off_c, 0, 74, 60
1, 35459, Control_c, 0, 67, 69
1, 35474, Control_c, 0, 67, 68
1, 35477, Note_on_c, 0, 67, 49
1, 35481, Note_on_c, 0, 72, 67
1, 35489, Control_c, 0, 64, 62
1, 35489, Control_c, 0, 67, 68
1, 35504, Control_c, 0, 64, 66
1, 35504, Control_c, 0, 67, 67
1, 35519, Control_c, 0, 64, 71
1, 35534, Control_c, 0, 64, 76
1, 35534, Control_c, 0, 67, 66
1, 35548, Note_on_c, 0, 55, 64
1, 35548, Control_c, 0, 64, 83
1, 35548, Control_c, 0, 67, 64
1, 35553, Note_on_c, 0, 71, 76
1, 35555, Note_off_c, 0, 72, 62
1, 35563, Control_c, 0, 64, 88
1, 35563, Control_c, 0, 67, 62
1, 35569, Note_off_c, 0, 67, 53
1, 35578, Control_c, 0, 64, 93
1, 35578, Control_c, 0, 67, 58
1, 35592, Control_c, 0, 64, 98
1, 35592, Control_c, 0, 67, 54
1, 35597, Note_off_c, 0, 71, 55
1, 35607, Control_c, 0, 64, 101
1, 35607, Control_c, 0, 67, 50
1, 35622, Control_c, 0, 64, 104
1, 35622, Control_c, 0, 67, 44
1, 35637, Control_c, 0, 64, 106
1, 35637, Control_c, 0, 67, 36
1, 35652, Control_c, 0, 64, 108
1, 35652, Control_c, 0, 67, 26
1, 35656, Note_off_c, 0, 55, 57
1, 35666, Control_c, 0, 64, 109
1, 35666, Control_c, 0, 67, 17
1, 35675, Note_on_c, 0, 59, 52
1, 35681, Control_c, 0, 64, 111
1, 35681, Control_c, 0, 67, 9
1, 35696, Control_c, 0, 64, 112
1, 35696, Control_c, 0, 67, 0
1, 35711, Control_c, 0, 64, 113
1, 35726, Control_c, 0, 64, 114
1, 35740, Control_c, 0, 64, 116
1, 35755, Control_c, 0, 64, 118
1, 35756, Note_off_c, 0, 59, 59
1, 35770, Control_c, 0, 64, 121
1, 35784, Control_c, 0, 64, 127
1, 35793, Note_on_c, 0, 67, 59
1, 35814, Control_c, 0, 64, 121
1, 35829, Control_c, 0, 64, 92
1, 35844, Control_c, 0, 64, 70
1, 35851, Note_on_c, 0, 57, 73
1, 35854, Note_on_c, 0, 74, 75
1, 35859, Control_c, 0, 64, 53
1, 35874, Control_c, 0, 64, 49
1, 35879, Note_off_c, 0, 74, 65
1, 35888, Control_c, 0, 64, 52
1, 35892, Note_on_c, 0, 72, 65
1, 35903, Control_c, 0, 64, 59
1, 35925, Control_c, 0, 64, 65
1, 35930, Note_off_c, 0, 67, 34
1, 35930, Note_off_c, 0, 72, 61
1, 35940, Control_c, 0, 64, 72
1, 35954, Note_on_c, 0, 74, 74
1, 35955, Control_c, 0, 64, 79
1, 35970, Control_c, 0, 64, 84
1, 35972, Note_on_c, 0, 60, 45
1, 35985, Control_c, 0, 64, 85
1, 35999, Note_on_c, 0, 72, 73
1, 35999, Control_c, 0, 64, 86
1, 36001, Note_off_c, 0, 57, 43
1, 36005, Note_off_c, 0, 74, 54
1, 36014, Control_c, 0, 64, 87
1, 36029, Control_c, 0, 64, 88
1, 36045, Control_c, 0, 64, 89
1, 36057, Note_off_c, 0, 72, 63
1, 36060, Control_c, 0, 64, 89
1, 36064, Note_on_c, 0, 71, 79
1, 36068, Note_off_c, 0, 60, 57
1, 36075, Control_c, 0, 64, 90
1, 36076, Note_on_c, 0, 67, 52
1, 36089, Control_c, 0, 64, 90
1, 36104, Control_c, 0, 64, 92
1, 36119, Control_c, 0, 64, 95
1, 36124, Note_on_c, 0, 72, 73
1, 36134, Control_c, 0, 64, 96
1, 36136, Note_off_c, 0, 71, 56
1, 36163, Control_c, 0, 64, 96
1, 36169, Note_off_c, 0, 67, 58
1, 36178, Control_c, 0, 64, 83
1, 36187, Note_off_c, 0, 72, 62
1, 36190, Note_on_c, 0, 74, 84
1, 36193, Control_c, 0, 64, 65
1, 36199, Note_on_c, 0, 59, 66
1, 36208, Control_c, 0, 64, 0
1, 36267, Control_c, 0, 64, 59
1, 36282, Control_c, 0, 64, 66
1, 36297, Control_c, 0, 64, 70
1, 36312, Control_c, 0, 64, 74
1, 36323, Note_off_c, 0, 59, 51
1, 36327, Control_c, 0, 64, 79
1, 36340, Note_on_c, 0, 62, 52
1, 36342, Control_c, 0, 64, 83
1, 36356, Control_c, 0, 64, 87
1, 36371, Control_c, 0, 64, 91
1, 36386, Control_c, 0, 64, 96
1, 36401, Control_c, 0, 64, 105
1, 36415, Control_c, 0, 64, 121
1, 36426, Note_on_c, 0, 67, 51
1, 36430, Control_c, 0, 64, 127
1, 36460, Note_off_c, 0, 74, 59
1, 36475, Control_c, 0, 64, 101
1, 36475, Control_c, 0, 67, 15
1, 36489, Control_c, 0, 64, 72
1, 36489, Control_c, 0, 67, 35
1, 36504, Control_c, 0, 64, 42
1, 36504, Control_c, 0, 67, 57
1, 36506, Note_off_c, 0, 62, 57
1, 36519, Control_c, 0, 64, 0
1, 36519, Control_c, 0, 67, 79
1, 36529, Note_on_c, 0, 55, 53
1, 36533, Control_c, 0, 64, 35
1, 36533, Control_c, 0, 67, 97
1, 36534, Note_off_c, 0, 67, 45
1, 36548, Control_c, 0, 64, 58
1, 36548, Control_c, 0, 67, 112
1, 36563, Control_c, 0, 64, 67
1, 36563, Control_c, 0, 67, 119
1, 36578, Control_c, 0, 64, 76
1, 36578, Control_c, 0, 67, 120
1, 36593, Control_c, 0, 64, 86
1, 36607, Control_c, 0, 64, 90
1, 36611, Note_off_c, 0, 55, 59
1, 36622, Control_c, 0, 64, 90
1, 36637, Control_c, 0, 64, 91
1, 36637, Control_c, 0, 67, 119
1, 36643, Note_on_c, 0, 59, 38
1, 36652, Control_c, 0, 67, 118
1, 36675, Control_c, 0, 67, 118
1, 36685, Note_off_c, 0, 59, 51
1, 36689, Control_c, 0, 67, 117
1, 36704, Control_c, 0, 64, 91
1, 36704, Control_c, 0, 67, 116
1, 36719, Control_c, 0, 67, 115
1, 36734, Control_c, 0, 67, 115
1, 36748, Control_c, 0, 67, 114
1, 36757, Note_on_c, 0, 67, 42
1, 36763, Control_c, 0, 67, 113
1, 36778, Control_c, 0, 67, 112
1, 36793, Control_c, 0, 67, 111
1, 36808, Control_c, 0, 67, 110
1, 36822, Control_c, 0, 64, 88
1, 36822, Control_c, 0, 67, 110
1, 36838, Control_c, 0, 64, 78
1, 36838, Control_c, 0, 67, 109
1, 36853, Control_c, 0, 64, 65
1, 36854, Note_on_c, 0, 76, 52
1, 36857, Note_on_c, 0, 60, 45
1, 36868, Control_c, 0, 64, 0
1, 36868, Control_c, 0, 67, 109
1, 36870, Note_off_c, 0, 67, 38
1, 36883, Control_c, 0, 67, 108
1, 36898, Control_c, 0, 67, 107
1, 36905, Note_on_c, 0, 78, 52
1, 36905, Note_off_c, 0, 76, 54
1, 36912, Control_c, 0, 67, 105
1, 36927, Control_c, 0, 67, 102
1, 36942, Control_c, 0, 67, 100
1, 36945, Note_off_c, 0, 78, 63
1, 36951, Note_off_c, 0, 60, 58
1, 36956, Control_c, 0, 67, 99
1, 36965, Note_on_c, 0, 79, 56
1, 36971, Control_c, 0, 67, 98
1, 36984, Note_on_c, 0, 64, 39
1, 36990, Note_off_c, 0, 79, 61
1, 37001, Control_c, 0, 67, 98
1, 37016, Control_c, 0, 67, 97
1, 37026, Note_off_c, 0, 64, 61
1, 37030, Control_c, 0, 67, 97
1, 37045, Control_c, 0, 67, 96
1, 37053, Note_on_c, 0, 67, 46
1, 37060, Control_c, 0, 67, 95
1, 37075, Control_c, 0, 67, 94
1, 37090, Control_c, 0, 67, 94
1, 37158, Note_off_c, 0, 67, 56
1, 37176, Note_on_c, 0, 60, 57
1, 37188, Note_on_c, 0, 79, 70
1, 37212, Note_off_c, 0, 79, 70
1, 37243, Note_off_c, 0, 60, 46
1, 37253, Control_c, 0, 67, 93
1, 37324, Note_on_c, 0, 64, 22
1, 37393, Note_off_c, 0, 64, 55
1, 37421, Note_on_c, 0, 67, 43
1, 37421, Note_on_c, 0, 79, 69
1, 37449, Note_off_c, 0, 79, 67
1, 37453, Control_c, 0, 67, 93
1, 37476, Note_off_c, 0, 67, 57
1, 37483, Control_c, 0, 67, 92
1, 37512, Note_on_c, 0, 79, 56
1, 37512, Control_c, 0, 67, 91
1, 37518, Note_on_c, 0, 60, 50
1, 37527, Control_c, 0, 67, 91
1, 37542, Control_c, 0, 67, 90
1, 37557, Control_c, 0, 67, 89
1, 37571, Control_c, 0, 67, 88
1, 37581, Note_off_c, 0, 60, 50
1, 37586, Control_c, 0, 67, 87
1, 37633, Note_on_c, 0, 64, 48
1, 37689, Note_off_c, 0, 64, 59
1, 37706, Control_c, 0, 67, 87
1, 37727, Note_on_c, 0, 67, 48
1, 37750, Control_c, 0, 67, 86
1, 37773, Note_off_c, 0, 67, 59
1, 37794, Control_c, 0, 67, 85
1, 37809, Control_c, 0, 67, 85
1, 37816, Note_on_c, 0, 78, 48
1, 37817, Note_on_c, 0, 60, 55
1, 37824, Control_c, 0, 67, 83
1, 37829, Note_off_c, 0, 79, 40
1, 37839, Control_c, 0, 67, 81
1, 37853, Control_c, 0, 67, 79
1, 37864, Note_off_c, 0, 60, 55
1, 37868, Control_c, 0, 67, 77
1, 37883, Control_c, 0, 67, 74
1, 37885, Note_on_c, 0, 76, 56
1, 37892, Note_off_c, 0, 78, 59
1, 37898, Control_c, 0, 67, 72
1, 37912, Control_c, 0, 67, 70
1, 37927, Control_c, 0, 67, 67
1, 37933, Note_on_c, 0, 64, 42
1, 37942, Control_c, 0, 67, 64
1, 37949, Note_off_c, 0, 76, 64
1, 37957, Control_c, 0, 67, 62
1, 37963, Note_on_c, 0, 74, 53
1, 37970, Note_off_c, 0, 64, 63
1, 37972, Control_c, 0, 67, 60
1, 37987, Control_c, 0, 67, 58
1, 38001, Note_off_c, 0, 74, 60
1, 38002, Control_c, 0, 67, 57
1, 38017, Control_c, 0, 67, 56
1, 38032, Control_c, 0, 67, 54
1, 38035, Note_on_c, 0, 72, 58
1, 38042, Note_on_c, 0, 67, 37
1, 38047, Control_c, 0, 67, 52
1, 38061, Control_c, 0, 67, 50
1, 38076, Control_c, 0, 67, 48
1, 38091, Control_c, 0, 67, 46
1, 38105, Control_c, 0, 67, 45
1, 38120, Control_c, 0, 67, 43
1, 38121, Note_off_c, 0, 72, 60
1, 38127, Note_off_c, 0, 67, 38
1, 38135, Control_c, 0, 64, 40
1, 38135, Control_c, 0, 67, 40
1, 38136, Note_on_c, 0, 55, 36
1, 38145, Note_on_c, 0, 71, 48
1, 38150, Control_c, 0, 64, 50
1, 38150, Control_c, 0, 67, 37
1, 38172, Control_c, 0, 64, 55
1, 38172, Control_c, 0, 67, 34
1, 38177, Note_off_c, 0, 71, 60
1, 38187, Control_c, 0, 64, 58
1, 38187, Control_c, 0, 67, 30
1, 38202, Control_c, 0, 64, 60
1, 38202, Control_c, 0, 67, 27
1, 38217, Control_c, 0, 64, 62
1, 38217, Control_c, 0, 67, 24
1, 38231, Control_c, 0, 64, 63
1, 38231, Control_c, 0, 67, 21
1, 38246, Control_c, 0, 64, 64
1, 38246, Control_c, 0, 67, 19
1, 38261, Control_c, 0, 64, 65
1, 38261, Control_c, 0, 67, 17
1, 38276, Control_c, 0, 64, 66
1, 38276, Control_c, 0, 67, 16
1, 38291, Control_c, 0, 64, 67
1, 38291, Control_c, 0, 67, 14
1, 38306, Control_c, 0, 64, 68
1, 38306, Control_c, 0, 67, 12
1, 38320, Control_c, 0, 64, 69
1, 38320, Control_c, 0, 67, 10
1, 38335, Control_c, 0, 64, 70
1, 38335, Control_c, 0, 67, 8
1, 38350, Control_c, 0, 64, 71
1, 38350, Control_c, 0, 67, 0
1, 38365, Control_c, 0, 64, 72
1, 38371, Note_on_c, 0, 79, 71
1, 38380, Control_c, 0, 64, 72
1, 38394, Control_c, 0, 64, 73
1, 38398, Note_off_c, 0, 55, 61
1, 38409, Control_c, 0, 64, 74
1, 38431, Note_on_c, 0, 81, 78
1, 38431, Note_off_c, 0, 79, 63
1, 38504, Note_off_c, 0, 81, 64
1, 38506, Note_on_c, 0, 83, 78
1, 38579, Note_on_c, 0, 81, 70
1, 38614, Note_off_c, 0, 83, 62
1, 38617, Control_c, 0, 64, 74
1, 38654, Note_on_c, 0, 79, 69
1, 38713, Note_on_c, 0, 78, 75
1, 38730, Note_off_c, 0, 81, 61
1, 38740, Note_off_c, 0, 79, 61
1, 38750, Control_c, 0, 64, 72
1, 38765, Control_c, 0, 64, 63
1, 38778, Note_on_c, 0, 48, 79
1, 38778, Note_on_c, 0, 76, 71
1, 38780, Control_c, 0, 64, 0
1, 38781, Note_off_c, 0, 78, 62
1, 38840, Control_c, 0, 64, 20
1, 38846, Note_off_c, 0, 76, 53
1, 38854, Control_c, 0, 64, 59
1, 38861, Note_on_c, 0, 74, 73
1, 38869, Control_c, 0, 64, 64
1, 38884, Control_c, 0, 64, 67
1, 38899, Control_c, 0, 64, 72
1, 38921, Control_c, 0, 64, 77
1, 38935, Control_c, 0, 64, 81
1, 38943, Note_on_c, 0, 72, 69
1, 38950, Control_c, 0, 64, 84
1, 38965, Control_c, 0, 64, 86
1, 38980, Control_c, 0, 64, 88
1, 38995, Control_c, 0, 64, 89
1, 39007, Note_on_c, 0, 71, 73
1, 39010, Control_c, 0, 64, 90
1, 39019, Note_off_c, 0, 74, 53
1, 39024, Control_c, 0, 64, 91
1, 39036, Note_off_c, 0, 72, 61
1, 39039, Control_c, 0, 64, 91
1, 39054, Control_c, 0, 64, 92
1, 39066, Note_off_c, 0, 71, 62
1, 39069, Control_c, 0, 64, 92
1, 39080, Note_on_c, 0, 69, 71
1, 39084, Control_c, 0, 64, 93
1, 39099, Control_c, 0, 64, 93
1, 39114, Control_c, 0, 64, 94
1, 39143, Control_c, 0, 64, 94
1, 39150, Note_on_c, 0, 67, 78
1, 39170, Note_off_c, 0, 69, 58
1, 39203, Control_c, 0, 64, 95
1, 39226, Note_on_c, 0, 66, 70
1, 39293, Note_on_c, 0, 64, 75
1, 39299, Note_off_c, 0, 67, 57
1, 39352, Control_c, 0, 64, 93
1, 39365, Note_on_c, 0, 62, 80
1, 39366, Control_c, 0, 64, 81
1, 39370, Note_off_c, 0, 64, 63
1, 39374, Note_on_c, 0, 50, 68
1, 39381, Control_c, 0, 64, 64
1, 39396, Note_off_c, 0, 66, 43
1, 39396, Control_c, 0, 64, 0
1, 39412, Note_off_c, 0, 48, 62
1, 39415, Note_off_c, 0, 62, 59
1, 39435, Note_off_c, 0, 50, 62
1, 39814, Note_on_c, 0, 60, 65
1, 39815, Note_on_c, 0, 57, 56
1, 39817, Note_on_c, 0, 51, 57
1, 39818, Note_on_c, 0, 54, 54
1, 39847, Control_c, 0, 64, 45
1, 39862, Control_c, 0, 64, 55
1, 39877, Control_c, 0, 64, 60
1, 39892, Control_c, 0, 64, 63
1, 39907, Control_c, 0, 64, 64
1, 39922, Control_c, 0, 64, 65
1, 39937, Control_c, 0, 64, 66
1, 39951, Control_c, 0, 64, 67
1, 39966, Control_c, 0, 64, 67
1, 39981, Control_c, 0, 64, 68
1, 39996, Control_c, 0, 64, 68
1, 40026, Control_c, 0, 64, 69
1, 40041, Control_c, 0, 64, 70
1, 40056, Control_c, 0, 64, 70
1, 40071, Control_c, 0, 64, 71
1, 40086, Control_c, 0, 64, 71
1, 40100, Control_c, 0, 64, 72
1, 40115, Control_c, 0, 64, 73
1, 40130, Control_c, 0, 64, 73
1, 40145, Control_c, 0, 64, 74
1, 40160, Control_c, 0, 64, 75
1, 40175, Control_c, 0, 64, 75
1, 40189, Control_c, 0, 64, 76
1, 40204, Control_c, 0, 64, 76
1, 40234, Control_c, 0, 64, 77
1, 40278, Control_c, 0, 64, 77
1, 40322, Control_c, 0, 64, 78
1, 40330, Note_off_c, 0, 57, 34
1, 40367, Control_c, 0, 64, 78
1, 40396, Control_c, 0, 64, 79
1, 40419, Control_c, 0, 64, 79
1, 40434, Control_c, 0, 64, 80
1, 40449, Control_c, 0, 64, 80
1, 40463, Control_c, 0, 64, 81
1, 40478, Control_c, 0, 64, 81
1, 40522, Control_c, 0, 64, 81
1, 40533, Note_on_c, 0, 52, 45
1, 40537, Control_c, 0, 64, 79
1, 40549, Note_on_c, 0, 55, 44
1, 40549, Note_off_c, 0, 54, 33
1, 40552, Control_c, 0, 64, 77
1, 40560, Note_on_c, 0, 59, 43
1, 40567, Control_c, 0, 64, 76
1, 40578, Note_off_c, 0, 51, 32
1, 40606, Note_off_c, 0, 60, 34
1, 40660, Note_off_c, 0, 52, 35
1, 40744, Control_c, 0, 64, 76
1, 40759, Control_c, 0, 64, 73
1, 40774, Control_c, 0, 64, 65
1, 40789, Control_c, 0, 64, 0
1, 40789, Note_off_c, 0, 59, 51
1, 40881, Note_off_c, 0, 55, 56
1, 40899, Note_on_c, 0, 48, 40
1, 40911, Note_on_c, 0, 52, 35
1, 41041, Control_c, 0, 64, 38
1, 41056, Control_c, 0, 64, 51
1, 41059, Note_on_c, 0, 57, 56
1, 41071, Control_c, 0, 64, 55
1, 41085, Control_c, 0, 64, 57
1, 41100, Control_c, 0, 64, 58
1, 41108, Note_off_c, 0, 57, 55
1, 41115, Control_c, 0, 64, 59
1, 41129, Control_c, 0, 64, 60
1, 41231, Note_on_c, 0, 60, 55
1, 41255, Control_c, 0, 64, 58
1, 41269, Note_off_c, 0, 60, 61
1, 41270, Control_c, 0, 64, 53
1, 41285, Control_c, 0, 64, 21
1, 41300, Control_c, 0, 64, 0
1, 41384, Note_on_c, 0, 64, 58
1, 41418, Note_off_c, 0, 64, 65
1, 41448, Control_c, 0, 64, 47
1, 41463, Control_c, 0, 64, 55
1, 41478, Control_c, 0, 64, 56
1, 41493, Control_c, 0, 64, 57
1, 41507, Control_c, 0, 64, 59
1, 41522, Control_c, 0, 64, 61
1, 41537, Control_c, 0, 64, 62
1, 41540, Note_on_c, 0, 68, 65
1, 41552, Control_c, 0, 64, 63
1, 41567, Control_c, 0, 64, 64
1, 41575, Note_off_c, 0, 48, 36
1, 41582, Control_c, 0, 64, 64
1, 41611, Control_c, 0, 64, 65
1, 41627, Control_c, 0, 64, 65
1, 41657, Control_c, 0, 64, 66
1, 41666, Note_off_c, 0, 52, 33
1, 41671, Control_c, 0, 64, 66
1, 41686, Control_c, 0, 64, 67
1, 41687, Note_off_c, 0, 68, 61
1, 41710, Note_on_c, 0, 69, 66
1, 41731, Control_c, 0, 64, 67
1, 41805, Control_c, 0, 64, 66
1, 41820, Control_c, 0, 64, 64
1, 41834, Control_c, 0, 64, 53
1, 41849, Control_c, 0, 64, 0
1, 41870, Note_on_c, 0, 72, 76
1, 41916, Control_c, 0, 64, 40
1, 41931, Control_c, 0, 64, 55
1, 41934, Note_off_c, 0, 69, 49
1, 41946, Control_c, 0, 64, 60
1, 41960, Control_c, 0, 64, 61
1, 41960, Control_c, 0, 67, 8
1, 41975, Control_c, 0, 64, 61
1, 41975, Control_c, 0, 67, 9
1, 41990, Control_c, 0, 64, 62
1, 41990, Control_c, 0, 67, 10
1, 42005, Control_c, 0, 64, 64
1, 42005, Control_c, 0, 67, 12
1, 42020, Control_c, 0, 64, 65
1, 42020, Control_c, 0, 67, 14
1, 42030, Note_on_c, 0, 76, 68
1, 42034, Control_c, 0, 64, 66
1, 42034, Control_c, 0, 67, 15
1, 42041, Note_off_c, 0, 72, 60
1, 42049, Control_c, 0, 64, 67
1, 42049, Control_c, 0, 67, 17
1, 42064, Control_c, 0, 64, 68
1, 42064, Control_c, 0, 67, 19
1, 42075, Note_off_c, 0, 76, 51
1, 42078, Control_c, 0, 64, 70
1, 42078, Control_c, 0, 67, 21
1, 42093, Control_c, 0, 64, 71
1, 42093, Control_c, 0, 67, 22
1, 42108, Control_c, 0, 64, 73
1, 42108, Control_c, 0, 67, 23
1, 42123, Control_c, 0, 64, 74
1, 42123, Control_c, 0, 67, 24
1, 42138, Control_c, 0, 64, 76
1, 42138, Control_c, 0, 67, 25
1, 42152, Control_c, 0, 64, 77
1, 42152, Control_c, 0, 67, 26
1, 42167, Control_c, 0, 67, 27
1, 42182, Control_c, 0, 67, 30
1, 42197, Note_on_c, 0, 76, 67
1, 42197, Control_c, 0, 64, 76
1, 42197, Control_c, 0, 67, 32
1, 42212, Control_c, 0, 64, 67
1, 42212, Control_c, 0, 67, 35
1, 42226, Control_c, 0, 64, 46
1, 42226, Control_c, 0, 67, 39
1, 42241, Control_c, 0, 64, 0
1, 42241, Control_c, 0, 67, 42
1, 42256, Control_c, 0, 67, 46
1, 42271, Control_c, 0, 67, 49
1, 42285, Control_c, 0, 64, 35
1, 42285, Control_c, 0, 67, 52
1, 42300, Control_c, 0, 64, 57
1, 42300, Control_c, 0, 67, 56
1, 42315, Control_c, 0, 64, 64
1, 42315, Control_c, 0, 67, 59
1, 42330, Control_c, 0, 64, 66
1, 42330, Control_c, 0, 67, 62
1, 42345, Control_c, 0, 64, 69
1, 42345, Control_c, 0, 67, 64
1, 42359, Control_c, 0, 64, 72
1, 42359, Control_c, 0, 67, 65
1, 42364, Note_on_c, 0, 67, 54
1, 42374, Control_c, 0, 64, 75
1, 42389, Control_c, 0, 64, 77
1, 42403, Control_c, 0, 64, 78
1, 42413, Note_off_c, 0, 67, 56
1, 42418, Control_c, 0, 64, 79
1, 42435, Control_c, 0, 64, 81
1, 42449, Control_c, 0, 64, 82
1, 42464, Control_c, 0, 64, 82
1, 42464, Control_c, 0, 67, 65
1, 42493, Control_c, 0, 64, 83
1, 42523, Control_c, 0, 64, 82
1, 42528, Note_on_c, 0, 50, 50
1, 42538, Control_c, 0, 64, 78
1, 42539, Note_on_c, 0, 67, 56
1, 42540, Note_on_c, 0, 59, 47
1, 42553, Control_c, 0, 64, 68
1, 42567, Control_c, 0, 64, 39
1, 42582, Control_c, 0, 64, 0
1, 42598, Note_off_c, 0, 76, 57
1, 42612, Control_c, 0, 67, 65
1, 42627, Control_c, 0, 64, 43
1, 42649, Control_c, 0, 64, 59
1, 42664, Control_c, 0, 64, 65
1, 42679, Control_c, 0, 64, 67
1, 42694, Control_c, 0, 64, 69
1, 42708, Control_c, 0, 64, 71
1, 42708, Control_c, 0, 67, 65
1, 42723, Control_c, 0, 64, 73
1, 42738, Control_c, 0, 64, 74
1, 42753, Control_c, 0, 64, 76
1, 42753, Control_c, 0, 67, 64
1, 42768, Control_c, 0, 64, 77
1, 42782, Control_c, 0, 64, 79
1, 42797, Control_c, 0, 64, 79
1, 42812, Control_c, 0, 64, 80
1, 42826, Control_c, 0, 64, 80
1, 42900, Control_c, 0, 64, 75
1, 42915, Control_c, 0, 64, 65
1, 42915, Control_c, 0, 67, 64
1, 42917, Note_off_c, 0, 59, 60
1, 42921, Note_on_c, 0, 60, 55
1, 42930, Control_c, 0, 64, 25
1, 42945, Control_c, 0, 64, 0
1, 43004, Control_c, 0, 64, 45
1, 43019, Control_c, 0, 64, 61
1, 43034, Control_c, 0, 64, 65
1, 43034, Control_c, 0, 67, 63
1, 43049, Control_c, 0, 64, 67
1, 43063, Control_c, 0, 64, 69
1, 43063, Control_c, 0, 67, 62
1, 43078, Control_c, 0, 64, 70
1, 43078, Control_c, 0, 67, 62
1, 43093, Control_c, 0, 64, 72
1, 43093, Control_c, 0, 67, 61
1, 43108, Control_c, 0, 64, 73
1, 43108, Control_c, 0, 67, 60
1, 43123, Control_c, 0, 64, 74
1, 43123, Control_c, 0, 67, 60
1, 43138, Control_c, 0, 64, 74
1, 43138, Control_c, 0, 67, 59
1, 43153, Control_c, 0, 64, 75
1, 43153, Control_c, 0, 67, 59
1, 43168, Control_c, 0, 64, 75
1, 43168, Control_c, 0, 67, 58
1, 43186, Note_off_c, 0, 60, 56
1, 43199, Note_off_c, 0, 67, 58
1, 43227, Control_c, 0, 64, 76
1, 43228, Note_on_c, 0, 71, 46
1, 43237, Note_on_c, 0, 66, 45
1, 43264, Note_off_c, 0, 50, 43
1, 43331, Control_c, 0, 67, 59
1, 43384, Note_off_c, 0, 71, 49
1, 43388, Note_on_c, 0, 69, 52
1, 43398, Note_off_c, 0, 66, 34
1, 43487, Control_c, 0, 67, 59
1, 43517, Control_c, 0, 67, 60
1, 43531, Control_c, 0, 64, 73
1, 43545, Note_off_c, 0, 69, 54
1, 43546, Control_c, 0, 64, 65
1, 43561, Control_c, 0, 64, 0
1, 43561, Control_c, 0, 67, 60
1, 43576, Control_c, 0, 67, 61
1, 43588, Note_on_c, 0, 55, 36
1, 43590, Note_on_c, 0, 67, 39
1, 43609, Note_on_c, 0, 59, 25
1, 43620, Control_c, 0, 67, 61
1, 43635, Control_c, 0, 64, 30
1, 43635, Control_c, 0, 67, 62
1, 43649, Control_c, 0, 64, 60
1, 43649, Control_c, 0, 67, 62
1, 43664, Control_c, 0, 64, 64
1, 43664, Control_c, 0, 67, 63
1, 43679, Control_c, 0, 64, 65
1, 43679, Control_c, 0, 67, 63
1, 43694, Control_c, 0, 64, 67
1, 43705, Note_off_c, 0, 59, 61
1, 43709, Control_c, 0, 64, 68
1, 43711, Note_off_c, 0, 55, 62
1, 43723, Control_c, 0, 64, 69
1, 43738, Control_c, 0, 64, 70
1, 43738, Control_c, 0, 67, 64
1, 43768, Control_c, 0, 64, 70
1, 43768, Control_c, 0, 67, 64
1, 43798, Control_c, 0, 67, 65
1, 43828, Control_c, 0, 67, 66
1, 43931, Control_c, 0, 64, 70
1, 43946, Control_c, 0, 64, 69
1, 43961, Control_c, 0, 64, 68
1, 43966, Note_on_c, 0, 43, 37
1, 43976, Control_c, 0, 64, 66
1, 43991, Control_c, 0, 64, 65
1, 44005, Control_c, 0, 64, 62
1, 44009, Note_off_c, 0, 67, 59
1, 44021, Control_c, 0, 64, 60
1, 44036, Control_c, 0, 64, 59
1, 44080, Control_c, 0, 64, 58
1, 44095, Control_c, 0, 64, 57
1, 44110, Control_c, 0, 64, 55
1, 44125, Control_c, 0, 64, 53
1, 44140, Control_c, 0, 64, 51
1, 44162, Control_c, 0, 64, 48
1, 44177, Control_c, 0, 64, 42
1, 44192, Control_c, 0, 64, 36
1, 44207, Control_c, 0, 64, 28
1, 44222, Control_c, 0, 64, 17
1, 44222, Control_c, 0, 67, 65
1, 44236, Control_c, 0, 64, 0
1, 44236, Control_c, 0, 67, 65
1, 44251, Control_c, 0, 67, 64
1, 44266, Control_c, 0, 67, 62
1, 44280, Control_c, 0, 67, 60
1, 44295, Control_c, 0, 67, 58
1, 44310, Control_c, 0, 67, 56
1, 44325, Control_c, 0, 67, 54
1, 44340, Control_c, 0, 67, 51
1, 44354, Control_c, 0, 67, 47
1, 44369, Control_c, 0, 67, 43
1, 44374, Note_off_c, 0, 43, 61
1, 44379, Note_on_c, 0, 74, 71
1, 44384, Control_c, 0, 67, 41
1, 44399, Control_c, 0, 67, 39
1, 44414, Control_c, 0, 67, 34
1, 44429, Control_c, 0, 67, 28
1, 44444, Control_c, 0, 67, 21
1, 44459, Control_c, 0, 67, 16
1, 44473, Control_c, 0, 67, 12
1, 44488, Control_c, 0, 67, 9
1, 44503, Control_c, 0, 67, 0
1, 44538, Note_on_c, 0, 71, 65
1, 44648, Note_off_c, 0, 74, 55
1, 44667, Note_off_c, 0, 71, 60
1, 44688, Note_on_c, 0, 79, 63
1, 44718, Note_off_c, 0, 79, 67
1, 44852, Note_on_c, 0, 78, 55
1, 44885, Note_off_c, 0, 78, 65
1, 45004, Note_on_c, 0, 76, 62
1, 45034, Note_off_c, 0, 76, 65
1, 45163, Note_on_c, 0, 74, 55
1, 45191, Note_off_c, 0, 74, 62
1, 45313, Note_on_c, 0, 72, 54
1, 45338, Note_off_c, 0, 72, 62
1, 45466, Note_on_c, 0, 71, 40
1, 45493, Note_off_c, 0, 71, 50
1, 45637, Note_on_c, 0, 69, 55
1, 45665, Note_off_c, 0, 69, 63
1, 45983, Note_on_c, 0, 71, 49
1, 46007, Note_off_c, 0, 71, 60
1, 46267, Control_c, 0, 64, 52
1, 46282, Control_c, 0, 64, 59
1, 46297, Control_c, 0, 64, 62
1, 46301, Note_on_c, 0, 74, 54
1, 46311, Control_c, 0, 64, 64
1, 46326, Control_c, 0, 64, 67
1, 46341, Control_c, 0, 64, 69
1, 46356, Control_c, 0, 64, 73
1, 46370, Control_c, 0, 64, 76
1, 46393, Control_c, 0, 64, 79
1, 46408, Control_c, 0, 64, 81
1, 46423, Control_c, 0, 64, 84
1, 46438, Control_c, 0, 64, 85
1, 46453, Control_c, 0, 64, 87
1, 46460, Note_on_c, 0, 73, 45
1, 46468, Control_c, 0, 64, 88
1, 46483, Control_c, 0, 64, 89
1, 46489, Note_off_c, 0, 74, 34
1, 46497, Control_c, 0, 64, 91
1, 46512, Control_c, 0, 64, 92
1, 46527, Control_c, 0, 64, 93
1, 46542, Control_c, 0, 64, 93
1, 46557, Control_c, 0, 64, 94
1, 46601, Control_c, 0, 64, 93
1, 46616, Note_off_c, 0, 73, 53
1, 46616, Control_c, 0, 64, 85
1, 46631, Control_c, 0, 64, 73
1, 46632, Note_on_c, 0, 54, 39
1, 46635, Note_on_c, 0, 72, 45
1, 46644, Note_on_c, 0, 62, 29
1, 46646, Control_c, 0, 64, 62
1, 46661, Control_c, 0, 64, 51
1, 46675, Control_c, 0, 64, 53
1, 46690, Control_c, 0, 64, 58
1, 46705, Control_c, 0, 64, 62
1, 46720, Control_c, 0, 64, 66
1, 46735, Control_c, 0, 64, 69
1, 46749, Control_c, 0, 64, 74
1, 46764, Control_c, 0, 64, 77
1, 46779, Control_c, 0, 64, 80
1, 46793, Control_c, 0, 64, 82
1, 46808, Control_c, 0, 64, 84
1, 46823, Control_c, 0, 64, 87
1, 46838, Control_c, 0, 64, 88
1, 46853, Control_c, 0, 64, 89
1, 46867, Control_c, 0, 64, 90
1, 46942, Control_c, 0, 64, 84
1, 46943, Note_off_c, 0, 72, 51
1, 46956, Note_on_c, 0, 55, 61
1, 46957, Control_c, 0, 64, 73
1, 46964, Note_on_c, 0, 71, 51
1, 46971, Control_c, 0, 64, 60
1, 46986, Control_c, 0, 64, 19
1, 47001, Control_c, 0, 64, 9
1, 47016, Control_c, 0, 64, 32
1, 47031, Control_c, 0, 64, 51
1, 47038, Note_off_c, 0, 54, 36
1, 47046, Control_c, 0, 64, 62
1, 47061, Control_c, 0, 64, 66
1, 47075, Control_c, 0, 64, 70
1, 47083, Note_off_c, 0, 71, 52
1, 47090, Control_c, 0, 64, 74
1, 47105, Control_c, 0, 64, 78
1, 47119, Control_c, 0, 64, 81
1, 47122, Note_on_c, 0, 72, 68
1, 47134, Control_c, 0, 64, 83
1, 47150, Note_off_c, 0, 62, 36
1, 47156, Control_c, 0, 64, 86
1, 47171, Control_c, 0, 64, 89
1, 47186, Control_c, 0, 64, 90
1, 47201, Control_c, 0, 64, 92
1, 47204, Note_off_c, 0, 72, 60
1, 47216, Control_c, 0, 64, 94
1, 47228, Note_off_c, 0, 55, 61
1, 47231, Control_c, 0, 64, 95
1, 47246, Control_c, 0, 64, 97
1, 47261, Control_c, 0, 64, 99
1, 47276, Control_c, 0, 64, 101
1, 47283, Note_on_c, 0, 74, 73
1, 47290, Control_c, 0, 64, 102
1, 47305, Control_c, 0, 64, 103
1, 47320, Control_c, 0, 64, 105
1, 47321, Note_off_c, 0, 74, 59
1, 47335, Control_c, 0, 64, 106
1, 47350, Control_c, 0, 64, 108
1, 47365, Control_c, 0, 64, 109
1, 47380, Control_c, 0, 64, 110
1, 47395, Control_c, 0, 64, 112
1, 47410, Control_c, 0, 64, 113
1, 47424, Control_c, 0, 64, 114
1, 47426, Note_on_c, 0, 75, 80
1, 47439, Control_c, 0, 64, 116
1, 47454, Control_c, 0, 64, 118
1, 47469, Control_c, 0, 64, 120
1, 47478, Note_off_c, 0, 75, 58
1, 47484, Control_c, 0, 64, 121
1, 47498, Control_c, 0, 64, 127
1, 47572, Control_c, 0, 64, 102
1, 47582, Note_on_c, 0, 55, 54
1, 47586, Note_on_c, 0, 48, 52
1, 47587, Control_c, 0, 64, 76
1, 47602, Control_c, 0, 64, 60
1, 47615, Note_on_c, 0, 78, 66
1, 47616, Control_c, 0, 64, 51
1, 47631, Control_c, 0, 64, 56
1, 47646, Control_c, 0, 64, 63
1, 47659, Note_off_c, 0, 78, 59
1, 47661, Control_c, 0, 64, 67
1, 47676, Control_c, 0, 64, 73
1, 47690, Control_c, 0, 64, 82
1, 47703, Note_on_c, 0, 76, 42
1, 47705, Control_c, 0, 64, 90
1, 47720, Control_c, 0, 64, 93
1, 47730, Note_off_c, 0, 76, 57
1, 47735, Note_on_c, 0, 78, 62
1, 47735, Control_c, 0, 64, 97
1, 47749, Control_c, 0, 64, 101
1, 47764, Control_c, 0, 64, 102
1, 47770, Note_off_c, 0, 78, 62
1, 47775, Note_on_c, 0, 76, 73
1, 47835, Note_on_c, 0, 78, 70
1, 47864, Note_off_c, 0, 76, 61
1, 47884, Control_c, 0, 64, 99
1, 47885, Note_on_c, 0, 79, 79
1, 47905, Control_c, 0, 64, 87
1, 47913, Note_off_c, 0, 78, 62
1, 47920, Control_c, 0, 64, 68
1, 47935, Control_c, 0, 64, 42
1, 47942, Note_off_c, 0, 79, 63
1, 47949, Control_c, 0, 64, 0
1, 48064, Note_on_c, 0, 78, 70
1, 48106, Note_off_c, 0, 78, 56
1, 48224, Note_on_c, 0, 76, 62
1, 48253, Note_off_c, 0, 76, 65
1, 48381, Note_on_c, 0, 74, 56
1, 48424, Note_off_c, 0, 74, 56
1, 48507, Note_off_c, 0, 48, 59
1, 48524, Note_on_c, 0, 52, 43
1, 48525, Note_off_c, 0, 55, 54
1, 48527, Note_on_c, 0, 49, 41
1, 48529, Note_on_c, 0, 72, 53
1, 48551, Note_off_c, 0, 72, 60
1, 48686, Note_on_c, 0, 71, 47
1, 48849, Note_off_c, 0, 49, 37
1, 48851, Note_off_c, 0, 71, 25
1, 48853, Note_off_c, 0, 52, 37
1, 48865, Note_on_c, 0, 50, 33
1, 48879, Note_on_c, 0, 55, 28
1, 48886, Note_on_c, 0, 74, 44
1, 49232, Note_on_c, 0, 71, 40
1, 49249, Note_off_c, 0, 74, 33
1, 49273, Note_off_c, 0, 55, 52
1, 49307, Control_c, 0, 64, 50
1, 49308, Note_off_c, 0, 71, 51
1, 49321, Control_c, 0, 64, 58
1, 49323, Note_on_c, 0, 54, 36
1, 49327, Note_on_c, 0, 69, 42
1, 49336, Control_c, 0, 64, 61
1, 49351, Control_c, 0, 64, 64
1, 49366, Control_c, 0, 64, 65
1, 49381, Control_c, 0, 64, 67
1, 49403, Control_c, 0, 64, 70
1, 49410, Note_off_c, 0, 50, 60
1, 49418, Control_c, 0, 64, 73
1, 49433, Control_c, 0, 64, 76
1, 49443, Note_off_c, 0, 54, 60
1, 49444, Note_off_c, 0, 69, 59
1, 49448, Control_c, 0, 64, 78
1, 49463, Control_c, 0, 64, 80
1, 49477, Control_c, 0, 64, 82
1, 49492, Control_c, 0, 64, 82
1, 49507, Control_c, 0, 64, 83
1, 49566, Control_c, 0, 64, 78
1, 49581, Control_c, 0, 64, 67
1, 49595, Control_c, 0, 64, 0
1, 49752, Note_on_c, 0, 62, 68
1, 49755, Note_on_c, 0, 74, 70
1, 49774, Control_c, 0, 64, 61
1, 49789, Control_c, 0, 64, 65
1, 49804, Control_c, 0, 64, 68
1, 49818, Control_c, 0, 64, 71
1, 49833, Control_c, 0, 64, 76
1, 49848, Control_c, 0, 64, 81
1, 49863, Control_c, 0, 64, 85
1, 49878, Control_c, 0, 64, 88
1, 49893, Control_c, 0, 64, 90
1, 49908, Control_c, 0, 64, 93
1, 49923, Control_c, 0, 64, 96
1, 49937, Control_c, 0, 64, 100
1, 49945, Note_on_c, 0, 64, 72
1, 49952, Control_c, 0, 64, 103
1, 49962, Note_on_c, 0, 76, 70
1, 49967, Control_c, 0, 64, 104
1, 49983, Note_off_c, 0, 62, 59
1, 49988, Note_off_c, 0, 74, 57
1, 50008, Note_on_c, 0, 66, 68
1, 50009, Note_on_c, 0, 78, 70
1, 50011, Control_c, 0, 64, 103
1, 50012, Note_off_c, 0, 64, 62
1, 50026, Control_c, 0, 64, 96
1, 50034, Note_off_c, 0, 76, 64
1, 50041, Control_c, 0, 64, 79
1, 50046, Note_on_c, 0, 67, 83
1, 50056, Note_on_c, 0, 79, 79
1, 50056, Control_c, 0, 64, 62
1, 50060, Note_off_c, 0, 66, 60
1, 50071, Control_c, 0, 64, 0
1, 50072, Note_off_c, 0, 78, 63
1, 50088, Note_off_c, 0, 67, 59
1, 50104, Note_off_c, 0, 79, 63
1, 50230, Note_on_c, 0, 66, 57
1, 50235, Note_on_c, 0, 78, 61
1, 50263, Note_off_c, 0, 66, 62
1, 50274, Note_off_c, 0, 78, 57
1, 50380, Note_on_c, 0, 76, 59
1, 50388, Note_on_c, 0, 64, 48
1, 50411, Note_off_c, 0, 76, 67
1, 50417, Note_off_c, 0, 64, 57
1, 50539, Note_on_c, 0, 74, 57
1, 50542, Note_on_c, 0, 62, 51
1, 50569, Note_off_c, 0, 62, 61
1, 50570, Note_off_c, 0, 74, 66
1, 50694, Note_on_c, 0, 72, 56
1, 50700, Note_on_c, 0, 60, 52
1, 50724, Note_off_c, 0, 72, 59
1, 50738, Note_off_c, 0, 60, 62
1, 50852, Note_on_c, 0, 71, 46
1, 50859, Note_on_c, 0, 59, 41
1, 50877, Note_off_c, 0, 71, 58
1, 50896, Note_off_c, 0, 59, 56
1, 51017, Note_on_c, 0, 57, 54
1, 51025, Note_on_c, 0, 69, 49
1, 51043, Note_off_c, 0, 57, 61
1, 51046, Note_off_c, 0, 69, 60
1, 51361, Note_on_c, 0, 59, 55
1, 51362, Note_on_c, 0, 71, 55
1, 51384, Note_off_c, 0, 71, 63
1, 51387, Note_off_c, 0, 59, 61
1, 51709, Note_on_c, 0, 60, 65
1, 51709, Note_on_c, 0, 72, 71
1, 51738, Note_off_c, 0, 60, 62
1, 51738, Note_off_c, 0, 72, 64
1, 52051, Note_on_c, 0, 73, 72
1, 52055, Note_on_c, 0, 61, 65
1, 52087, Note_off_c, 0, 61, 66
1, 52089, Note_off_c, 0, 73, 58
1, 52398, Note_on_c, 0, 74, 80
1, 52401, Note_on_c, 0, 62, 74
1, 52444, Note_off_c, 0, 74, 61
1, 52445, Note_off_c, 0, 62, 59
1, 52728, Note_on_c, 0, 75, 79
1, 52732, Note_on_c, 0, 63, 74
1, 52768, Note_off_c, 0, 63, 60
1, 52774, Note_off_c, 0, 75, 64
1, 53097, Note_on_c, 0, 76, 80
1, 53109, Note_on_c, 0, 64, 78
1, 53110, Control_c, 0, 64, 56
1, 53125, Control_c, 0, 64, 71
1, 53148, Control_c, 0, 64, 80
1, 53157, Note_off_c, 0, 64, 62
1, 53162, Control_c, 0, 64, 102
1, 53177, Control_c, 0, 64, 127
1, 53389, Note_off_c, 0, 76, 60
1, 53452, Note_on_c, 0, 64, 60
1, 53532, Note_on_c, 0, 72, 82
1, 53532, Control_c, 0, 64, 118
1, 53535, Note_on_c, 0, 48, 66
1, 53535, Note_on_c, 0, 57, 63
1, 53547, Control_c, 0, 64, 67
1, 53562, Control_c, 0, 64, 0
1, 53592, Control_c, 0, 64, 29
1, 53607, Control_c, 0, 64, 57
1, 53617, Note_off_c, 0, 64, 49
1, 53622, Control_c, 0, 64, 66
1, 53637, Control_c, 0, 64, 74
1, 53652, Control_c, 0, 64, 85
1, 53667, Control_c, 0, 64, 91
1, 53681, Control_c, 0, 64, 95
1, 53696, Control_c, 0, 64, 99
1, 53711, Control_c, 0, 64, 104
1, 53726, Control_c, 0, 64, 109
1, 53732, Note_off_c, 0, 57, 34
1, 53741, Control_c, 0, 64, 115
1, 53756, Control_c, 0, 64, 127
1, 53788, Note_off_c, 0, 48, 37
1, 53808, Note_on_c, 0, 69, 65
1, 53859, Control_c, 0, 64, 124
1, 53861, Note_off_c, 0, 72, 60
1, 53866, Note_off_c, 0, 69, 61
1, 53874, Control_c, 0, 64, 78
1, 53884, Note_on_c, 0, 50, 70
1, 53885, Note_on_c, 0, 67, 76
1, 53890, Note_on_c, 0, 59, 68
1, 53896, Control_c, 0, 64, 48
1, 53911, Control_c, 0, 64, 0
1, 53956, Control_c, 0, 64, 58
1, 53971, Control_c, 0, 64, 65
1, 53985, Control_c, 0, 64, 68
1, 54000, Control_c, 0, 64, 72
1, 54015, Control_c, 0, 64, 75
1, 54030, Control_c, 0, 64, 79
1, 54045, Control_c, 0, 64, 82
1, 54059, Control_c, 0, 64, 85
1, 54074, Control_c, 0, 64, 87
1, 54089, Control_c, 0, 64, 90
1, 54104, Control_c, 0, 64, 92
1, 54118, Control_c, 0, 64, 93
1, 54133, Control_c, 0, 64, 94
1, 54163, Control_c, 0, 64, 87
1, 54178, Control_c, 0, 64, 69
1, 54180, Note_off_c, 0, 50, 54
1, 54181, Note_off_c, 0, 59, 58
1, 54187, Note_off_c, 0, 67, 60
1, 54193, Control_c, 0, 64, 12
1, 54197, Note_on_c, 0, 71, 60
1, 54208, Control_c, 0, 64, 0
1, 54209, Note_on_c, 0, 60, 49
1, 54215, Note_on_c, 0, 66, 47
1, 54252, Control_c, 0, 64, 61
1, 54267, Control_c, 0, 64, 66
1, 54283, Control_c, 0, 64, 69
1, 54298, Control_c, 0, 64, 72
1, 54312, Control_c, 0, 64, 75
1, 54327, Control_c, 0, 64, 77
1, 54342, Control_c, 0, 64, 79
1, 54357, Control_c, 0, 64, 80
1, 54358, Note_off_c, 0, 71, 56
1, 54372, Control_c, 0, 64, 81
1, 54374, Note_off_c, 0, 66, 55
1, 54386, Control_c, 0, 64, 81
1, 54389, Note_on_c, 0, 69, 46
1, 54401, Control_c, 0, 64, 82
1, 54417, Control_c, 0, 64, 83
1, 54432, Control_c, 0, 64, 84
1, 54491, Control_c, 0, 64, 82
1, 54506, Control_c, 0, 64, 71
1, 54515, Note_off_c, 0, 69, 62
1, 54516, Note_off_c, 0, 60, 58
1, 54521, Control_c, 0, 64, 32
1, 54535, Control_c, 0, 64, 0
1, 54546, Note_on_c, 0, 55, 39
1, 54546, Note_on_c, 0, 67, 52
1, 54595, Control_c, 0, 64, 57
1, 54609, Control_c, 0, 64, 64
1, 54624, Control_c, 0, 64, 66
1, 54647, Control_c, 0, 64, 68
1, 54656, Note_off_c, 0, 67, 60
1, 54661, Control_c, 0, 64, 69
1, 54676, Control_c, 0, 64, 70
1, 54691, Control_c, 0, 64, 70
1, 54710, Note_on_c, 0, 59, 38
1, 54815, Note_off_c, 0, 59, 56
1, 54824, Control_c, 0, 64, 70
1, 54839, Control_c, 0, 64, 69
1, 54854, Control_c, 0, 64, 67
1, 54868, Control_c, 0, 64, 63
1, 54883, Control_c, 0, 64, 38
1, 54886, Note_on_c, 0, 62, 29
1, 54898, Control_c, 0, 64, 0
1, 54955, Note_on_c, 0, 79, 47
1, 54975, Note_off_c, 0, 55, 56
1, 54996, Note_off_c, 0, 79, 63
1, 55016, Note_on_c, 0, 59, 21
1, 55021, Note_on_c, 0, 81, 56
1, 55053, Note_off_c, 0, 81, 59
1, 55082, Note_on_c, 0, 79, 62
1, 55112, Note_off_c, 0, 79, 68
1, 55121, Note_off_c, 0, 59, 59
1, 55133, Note_off_c, 0, 62, 40
1, 55134, Control_c, 0, 67, 8
1, 55149, Control_c, 0, 67, 9
1, 55156, Note_on_c, 0, 55, 39
1, 55160, Note_on_c, 0, 76, 49
1, 55164, Control_c, 0, 67, 12
1, 55178, Control_c, 0, 67, 16
1, 55193, Control_c, 0, 67, 19
1, 55199, Note_off_c, 0, 76, 62
1, 55201, Note_on_c, 0, 79, 61
1, 55210, Control_c, 0, 67, 21
1, 55225, Control_c, 0, 67, 22
1, 55239, Control_c, 0, 67, 23
1, 55262, Note_off_c, 0, 79, 58
1, 55283, Control_c, 0, 67, 24
1, 55291, Note_on_c, 0, 81, 58
1, 55298, Control_c, 0, 67, 24
1, 55313, Control_c, 0, 67, 25
1, 55321, Note_on_c, 0, 60, 45
1, 55328, Control_c, 0, 67, 26
1, 55329, Note_off_c, 0, 81, 62
1, 55343, Control_c, 0, 67, 27
1, 55357, Control_c, 0, 67, 27
1, 55363, Note_on_c, 0, 79, 53
1, 55406, Note_off_c, 0, 79, 66
1, 55409, Note_off_c, 0, 60, 52
1, 55433, Note_on_c, 0, 84, 63
1, 55453, Note_on_c, 0, 64, 37
1, 55472, Note_off_c, 0, 84, 57
1, 55500, Note_on_c, 0, 79, 61
1, 55513, Control_c, 0, 67, 27
1, 55554, Note_off_c, 0, 55, 54
1, 55559, Note_off_c, 0, 79, 61
1, 55572, Note_on_c, 0, 60, 36
1, 55583, Note_on_c, 0, 76, 50
1, 55610, Note_off_c, 0, 76, 63
1, 55653, Note_on_c, 0, 72, 42
1, 55684, Note_off_c, 0, 72, 54
1, 55706, Note_off_c, 0, 60, 53
1, 55711, Note_off_c, 0, 64, 46
1, 55711, Note_on_c, 0, 79, 64
1, 55722, Note_on_c, 0, 55, 45
1, 55735, Control_c, 0, 67, 26
1, 55739, Note_off_c, 0, 79, 66
1, 55888, Note_on_c, 0, 79, 65
1, 55910, Note_on_c, 0, 59, 43
1, 55914, Note_off_c, 0, 79, 69
1, 56010, Note_off_c, 0, 59, 36
1, 56067, Note_on_c, 0, 62, 47
1, 56076, Control_c, 0, 67, 25
1, 56177, Note_on_c, 0, 79, 54
1, 56191, Note_off_c, 0, 55, 57
1, 56215, Note_off_c, 0, 79, 65
1, 56230, Note_on_c, 0, 59, 37
1, 56236, Note_on_c, 0, 81, 65
1, 56276, Control_c, 0, 67, 25
1, 56282, Note_off_c, 0, 81, 61
1, 56305, Control_c, 0, 67, 24
1, 56311, Note_on_c, 0, 79, 61
1, 56320, Control_c, 0, 67, 24
1, 56335, Control_c, 0, 67, 23
1, 56340, Note_off_c, 0, 59, 61
1, 56340, Note_off_c, 0, 79, 68
1, 56344, Note_off_c, 0, 62, 41
1, 56371, Note_on_c, 0, 55, 48
1, 56374, Note_on_c, 0, 76, 58
1, 56417, Note_off_c, 0, 76, 59
1, 56427, Note_on_c, 0, 79, 65
1, 56439, Control_c, 0, 67, 24
1, 56487, Note_off_c, 0, 79, 60
1, 56516, Note_on_c, 0, 81, 64
1, 56534, Note_on_c, 0, 60, 49
1, 56558, Note_off_c, 0, 81, 55
1, 56588, Note_on_c, 0, 79, 65
1, 56619, Note_off_c, 0, 60, 51
1, 56621, Note_off_c, 0, 79, 65
1, 56659, Note_on_c, 0, 84, 68
1, 56674, Note_on_c, 0, 64, 38
1, 56706, Note_off_c, 0, 84, 55
1, 56728, Note_on_c, 0, 79, 67
1, 56761, Note_off_c, 0, 64, 57
1, 56764, Note_off_c, 0, 55, 60
1, 56765, Control_c, 0, 67, 23
1, 56788, Note_on_c, 0, 60, 37
1, 56795, Note_off_c, 0, 79, 61
1, 56812, Note_on_c, 0, 76, 62
1, 56847, Note_off_c, 0, 76, 62
1, 56869, Control_c, 0, 67, 22
1, 56906, Note_on_c, 0, 72, 53
1, 56907, Control_c, 0, 67, 22
1, 56940, Note_off_c, 0, 60, 34
1, 56941, Note_off_c, 0, 72, 63
1, 56946, Note_on_c, 0, 55, 54
1, 56948, Note_on_c, 0, 79, 72
1, 56951, Control_c, 0, 67, 21
1, 56955, Note_on_c, 0, 62, 48
1, 56970, Note_off_c, 0, 55, 58
1, 56973, Note_off_c, 0, 79, 68
1, 56981, Note_off_c, 0, 62, 59
1, 56981, Control_c, 0, 67, 21
1, 57010, Control_c, 0, 67, 20
1, 57114, Control_c, 0, 67, 21
1, 57133, Note_on_c, 0, 79, 55
1, 57154, Note_off_c, 0, 79, 63
1, 57173, Control_c, 0, 67, 21
1, 57297, Note_on_c, 0, 72, 60
1, 57366, Control_c, 0, 67, 22
1, 57368, Note_on_c, 0, 74, 50
1, 57412, Note_off_c, 0, 74, 59
1, 57444, Note_on_c, 0, 78, 53
1, 57493, Note_off_c, 0, 78, 58
1, 57530, Note_on_c, 0, 74, 48
1, 57571, Note_off_c, 0, 74, 60
1, 57581, Note_off_c, 0, 72, 56
1, 57592, Note_on_c, 0, 79, 70
1, 57613, Note_on_c, 0, 71, 43
1, 57627, Note_off_c, 0, 79, 68
1, 57785, Note_on_c, 0, 79, 65
1, 57803, Note_off_c, 0, 79, 67
1, 57925, Note_off_c, 0, 71, 53
1, 57938, Note_on_c, 0, 72, 77
1, 58010, Control_c, 0, 64, 21
1, 58019, Note_on_c, 0, 74, 56
1, 58025, Control_c, 0, 64, 29
1, 58040, Control_c, 0, 64, 34
1, 58055, Control_c, 0, 64, 38
1, 58065, Note_off_c, 0, 74, 56
1, 58070, Control_c, 0, 64, 40
1, 58084, Control_c, 0, 64, 41
1, 58099, Control_c, 0, 64, 42
1, 58103, Note_on_c, 0, 78, 57
1, 58114, Control_c, 0, 64, 43
1, 58129, Control_c, 0, 64, 43
1, 58129, Control_c, 0, 67, 22
1, 58144, Control_c, 0, 64, 44
1, 58147, Note_off_c, 0, 78, 60
1, 58174, Control_c, 0, 67, 23
1, 58178, Note_on_c, 0, 74, 61
1, 58189, Control_c, 0, 64, 44
1, 58189, Control_c, 0, 67, 23
1, 58217, Note_off_c, 0, 74, 58
1, 58218, Control_c, 0, 64, 44
1, 58222, Note_off_c, 0, 72, 56
1, 58233, Control_c, 0, 64, 36
1, 58247, Note_on_c, 0, 79, 71
1, 58248, Control_c, 0, 64, 0
1, 58254, Note_on_c, 0, 71, 59
1, 58274, Note_off_c, 0, 79, 66
1, 58281, Note_off_c, 0, 71, 63
1, 58422, Note_on_c, 0, 79, 66
1, 58478, Control_c, 0, 67, 24
1, 58577, Note_on_c, 0, 66, 48
1, 58603, Note_off_c, 0, 66, 56
1, 58618, Note_off_c, 0, 79, 46
1, 58626, Control_c, 0, 67, 23
1, 58648, Note_on_c, 0, 74, 54
1, 58691, Note_off_c, 0, 74, 60
1, 58720, Note_on_c, 0, 66, 50
1, 58729, Note_on_c, 0, 81, 75
1, 58756, Note_off_c, 0, 81, 64
1, 58758, Note_off_c, 0, 66, 63
1, 58760, Control_c, 0, 67, 23
1, 58803, Note_on_c, 0, 74, 63
1, 58804, Control_c, 0, 67, 22
1, 58833, Control_c, 0, 67, 22
1, 58861, Note_off_c, 0, 74, 60
1, 58863, Control_c, 0, 67, 21
1, 58878, Control_c, 0, 67, 21
1, 58880, Note_on_c, 0, 67, 67
1, 58883, Note_on_c, 0, 83, 80
1, 58893, Control_c, 0, 67, 20
1, 58907, Note_off_c, 0, 67, 66
1, 58907, Control_c, 0, 67, 20
1, 58910, Note_off_c, 0, 83, 60
1, 58922, Control_c, 0, 67, 19
1, 58937, Control_c, 0, 67, 19
1, 58959, Note_on_c, 0, 74, 67
1, 58967, Control_c, 0, 67, 18
1, 58982, Control_c, 0, 67, 18
1, 58996, Control_c, 0, 67, 17
1, 59011, Note_off_c, 0, 74, 59
1, 59011, Control_c, 0, 67, 16
1, 59026, Control_c, 0, 67, 15
1, 59029, Note_on_c, 0, 67, 68
1, 59031, Note_on_c, 0, 83, 84
1, 59041, Control_c, 0, 67, 12
1, 59056, Control_c, 0, 67, 9
1, 59056, Note_off_c, 0, 67, 65
1, 59065, Note_off_c, 0, 83, 63
1, 59071, Control_c, 0, 67, 0
1, 59101, Note_on_c, 0, 74, 74
1, 59178, Note_off_c, 0, 74, 60
1, 59187, Note_on_c, 0, 84, 90
1, 59187, Note_on_c, 0, 69, 71
1, 59217, Note_off_c, 0, 69, 63
1, 59230, Note_off_c, 0, 84, 62
1, 59266, Note_on_c, 0, 74, 77
1, 59324, Note_off_c, 0, 74, 61
1, 59331, Note_on_c, 0, 69, 65
1, 59334, Note_on_c, 0, 84, 87
1, 59388, Note_off_c, 0, 84, 62
1, 59421, Note_on_c, 0, 74, 77
1, 59459, Note_off_c, 0, 69, 57
1, 59509, Note_on_c, 0, 71, 48
1, 59509, Note_on_c, 0, 86, 84
1, 59568, Control_c, 0, 64, 43
1, 59580, Note_off_c, 0, 74, 59
1, 59582, Control_c, 0, 64, 59
1, 59597, Control_c, 0, 64, 62
1, 59612, Control_c, 0, 64, 64
1, 59627, Control_c, 0, 64, 67
1, 59642, Control_c, 0, 64, 71
1, 59656, Control_c, 0, 64, 76
1, 59671, Control_c, 0, 64, 81
1, 59686, Control_c, 0, 64, 87
1, 59701, Control_c, 0, 64, 93
1, 59703, Note_on_c, 0, 83, 55
1, 59707, Note_off_c, 0, 86, 62
1, 59712, Note_off_c, 0, 71, 52
1, 59716, Control_c, 0, 64, 99
1, 59724, Note_off_c, 0, 83, 63
1, 59730, Control_c, 0, 64, 108
1, 59745, Control_c, 0, 64, 127
1, 59847, Note_on_c, 0, 79, 78
1, 59864, Control_c, 0, 64, 97
1, 59886, Control_c, 0, 64, 71
1, 59901, Control_c, 0, 64, 53
1, 59916, Control_c, 0, 64, 47
1, 59930, Control_c, 0, 64, 51
1, 59945, Control_c, 0, 64, 59
1, 59960, Control_c, 0, 64, 63
1, 59974, Control_c, 0, 64, 67
1, 59989, Control_c, 0, 64, 74
1, 60005, Control_c, 0, 64, 80
1, 60013, Note_on_c, 0, 83, 60
1, 60020, Control_c, 0, 64, 84
1, 60031, Note_off_c, 0, 79, 60
1, 60035, Control_c, 0, 64, 86
1, 60042, Note_off_c, 0, 83, 59
1, 60050, Control_c, 0, 64, 89
1, 60065, Control_c, 0, 64, 91
1, 60079, Control_c, 0, 64, 94
1, 60094, Control_c, 0, 64, 95
1, 60109, Control_c, 0, 64, 97
1, 60124, Control_c, 0, 64, 98
1, 60139, Control_c, 0, 67, 11
1, 60153, Control_c, 0, 67, 16
1, 60168, Control_c, 0, 67, 23
1, 60180, Note_on_c, 0, 74, 72
1, 60183, Control_c, 0, 64, 92
1, 60183, Control_c, 0, 67, 29
1, 60198, Control_c, 0, 64, 76
1, 60198, Control_c, 0, 67, 34
1, 60213, Control_c, 0, 64, 61
1, 60213, Control_c, 0, 67, 37
1, 60228, Control_c, 0, 64, 32
1, 60228, Control_c, 0, 67, 40
1, 60242, Control_c, 0, 64, 34
1, 60242, Control_c, 0, 67, 42
1, 60257, Control_c, 0, 64, 44
1, 60257, Control_c, 0, 67, 44
1, 60272, Control_c, 0, 64, 57
1, 60272, Control_c, 0, 67, 45
1, 60287, Control_c, 0, 64, 63
1, 60287, Control_c, 0, 67, 47
1, 60302, Control_c, 0, 64, 67
1, 60302, Control_c, 0, 67, 48
1, 60317, Control_c, 0, 64, 71
1, 60317, Control_c, 0, 67, 49
1, 60332, Control_c, 0, 64, 76
1, 60347, Control_c, 0, 64, 79
1, 60350, Note_off_c, 0, 74, 60
1, 60352, Note_on_c, 0, 79, 52
1, 60361, Control_c, 0, 64, 80
1, 60376, Control_c, 0, 64, 81
1, 60385, Note_off_c, 0, 79, 59
1, 60391, Control_c, 0, 64, 82
1, 60405, Control_c, 0, 64, 82
1, 60420, Control_c, 0, 64, 84
1, 60435, Control_c, 0, 64, 85
1, 60450, Control_c, 0, 64, 85
1, 60465, Control_c, 0, 64, 86
1, 60479, Control_c, 0, 64, 86
1, 60479, Control_c, 0, 67, 49
1, 60494, Control_c, 0, 67, 51
1, 60509, Control_c, 0, 67, 53
1, 60523, Control_c, 0, 64, 85
1, 60523, Control_c, 0, 67, 58
1, 60531, Note_on_c, 0, 71, 55
1, 60538, Control_c, 0, 64, 77
1, 60538, Control_c, 0, 67, 64
1, 60553, Control_c, 0, 64, 64
1, 60553, Control_c, 0, 67, 72
1, 60568, Control_c, 0, 64, 0
1, 60568, Control_c, 0, 67, 77
1, 60583, Control_c, 0, 67, 81
1, 60597, Control_c, 0, 67, 84
1, 60612, Control_c, 0, 67, 85
1, 60635, Control_c, 0, 67, 85
1, 60650, Control_c, 0, 64, 43
1, 60665, Control_c, 0, 64, 59
1, 60672, Note_off_c, 0, 71, 56
1, 60679, Control_c, 0, 64, 64
1, 60694, Control_c, 0, 64, 65
1, 60694, Control_c, 0, 67, 85
1, 60705, Note_on_c, 0, 74, 42
1, 60709, Control_c, 0, 64, 66
1, 60709, Control_c, 0, 67, 84
1, 60723, Control_c, 0, 64, 68
1, 60731, Note_off_c, 0, 74, 57
1, 60738, Control_c, 0, 64, 69
1, 60738, Control_c, 0, 67, 84
1, 60753, Control_c, 0, 64, 70
1, 60753, Control_c, 0, 67, 83
1, 60768, Control_c, 0, 64, 71
1, 60768, Control_c, 0, 67, 82
1, 60783, Control_c, 0, 64, 73
1, 60783, Control_c, 0, 67, 82
1, 60799, Control_c, 0, 64, 74
1, 60814, Control_c, 0, 64, 74
1, 60828, Control_c, 0, 64, 75
1, 60866, Note_on_c, 0, 69, 48
1, 60873, Control_c, 0, 64, 74
1, 60888, Control_c, 0, 64, 68
1, 60902, Control_c, 0, 64, 53
1, 60917, Control_c, 0, 64, 0
1, 60946, Control_c, 0, 67, 82
1, 60976, Control_c, 0, 64, 27
1, 60991, Control_c, 0, 64, 56
1, 61006, Control_c, 0, 64, 62
1, 61020, Control_c, 0, 64, 63
1, 61035, Control_c, 0, 64, 65
1, 61035, Control_c, 0, 67, 82
1, 61050, Note_on_c, 0, 76, 28
1, 61050, Control_c, 0, 64, 66
1, 61065, Control_c, 0, 64, 67
1, 61065, Control_c, 0, 67, 81
1, 61080, Control_c, 0, 64, 69
1, 61080, Control_c, 0, 67, 80
1, 61095, Control_c, 0, 64, 70
1, 61095, Control_c, 0, 67, 79
1, 61110, Control_c, 0, 64, 71
1, 61125, Control_c, 0, 64, 71
1, 61140, Control_c, 0, 64, 72
1, 61140, Control_c, 0, 67, 79
1, 61169, Control_c, 0, 64, 71
1, 61184, Control_c, 0, 64, 68
1, 61184, Control_c, 0, 67, 79
1, 61199, Note_off_c, 0, 76, 42
1, 61199, Control_c, 0, 64, 59
1, 61199, Note_off_c, 0, 69, 18
1, 61205, Note_on_c, 0, 48, 35
1, 61211, Note_on_c, 0, 74, 40
1, 61214, Control_c, 0, 64, 0
1, 61214, Control_c, 0, 67, 80
1, 61228, Note_on_c, 0, 57, 20
1, 61238, Note_on_c, 0, 52, 14
1, 61279, Note_on_c, 0, 72, 48
1, 61302, Control_c, 0, 67, 79
1, 61317, Control_c, 0, 64, 31
1, 61317, Control_c, 0, 67, 79
1, 61322, Note_off_c, 0, 52, 0
1, 61332, Control_c, 0, 64, 58
1, 61332, Control_c, 0, 67, 78
1, 61336, Note_off_c, 0, 74, 32
1, 61346, Control_c, 0, 64, 63
1, 61346, Control_c, 0, 67, 76
1, 61349, Note_off_c, 0, 57, 43
1, 61359, Poly_aftertouch_c, 0, 52, 127
1, 61360, Note_off_c, 0, 72, 58
1, 61361, Control_c, 0, 64, 64
1, 61361, Control_c, 0, 67, 75
1, 61362, Note_on_c, 0, 71, 52
1, 61375, Note_off_c, 0, 48, 40
1, 61384, Control_c, 0, 64, 65
1, 61384, Control_c, 0, 67, 73
1, 61399, Control_c, 0, 64, 67
1, 61399, Control_c, 0, 67, 70
1, 61411, Note_off_c, 0, 71, 63
1, 61414, Control_c, 0, 64, 68
1, 61414, Control_c, 0, 67, 66
1, 61428, Control_c, 0, 64, 70
1, 61428, Control_c, 0, 67, 61
1, 61443, Control_c, 0, 64, 71
1, 61443, Control_c, 0, 67, 57
1, 61453, Note_on_c, 0, 69, 49
1, 61458, Control_c, 0, 64, 72
1, 61458, Control_c, 0, 67, 53
1, 61473, Control_c, 0, 64, 73
1, 61473, Control_c, 0, 67, 52
1, 61487, Control_c, 0, 64, 73
1, 61487, Control_c, 0, 67, 51
1, 61502, Control_c, 0, 64, 73
1, 61517, Note_off_c, 0, 69, 46
1, 61517, Control_c, 0, 64, 71
1, 61525, Poly_aftertouch_c, 0, 52, 0
1, 61532, Control_c, 0, 64, 64
1, 61532, Control_c, 0, 67, 50
1, 61546, Control_c, 0, 64, 0
1, 61552, Note_on_c, 0, 67, 47
1, 61558, Note_on_c, 0, 55, 36
1, 61561, Control_c, 0, 67, 49
1, 61573, Note_on_c, 0, 50, 31
1, 61576, Control_c, 0, 67, 48
1, 61578, Note_on_c, 0, 59, 27
1, 61581, Note_off_c, 0, 67, 55
1, 61591, Control_c, 0, 67, 45
1, 61607, Control_c, 0, 67, 43
1, 61622, Control_c, 0, 67, 41
1, 61623, Note_off_c, 0, 59, 49
1, 61626, Note_off_c, 0, 55, 58
1, 61637, Control_c, 0, 64, 51
1, 61637, Control_c, 0, 67, 38
1, 61651, Control_c, 0, 64, 60
1, 61651, Control_c, 0, 67, 35
1, 61666, Control_c, 0, 64, 61
1, 61666, Control_c, 0, 67, 33
1, 61681, Control_c, 0, 64, 62
1, 61681, Control_c, 0, 67, 31
1, 61696, Control_c, 0, 64, 63
1, 61696, Control_c, 0, 67, 30
1, 61711, Control_c, 0, 64, 64
1, 61711, Control_c, 0, 67, 28
1, 61725, Control_c, 0, 64, 65
1, 61725, Control_c, 0, 67, 26
1, 61740, Control_c, 0, 64, 66
1, 61740, Control_c, 0, 67, 25
1, 61755, Control_c, 0, 64, 67
1, 61755, Control_c, 0, 67, 23
1, 61769, Control_c, 0, 64, 67
1, 61769, Control_c, 0, 67, 21
1, 61784, Control_c, 0, 67, 19
1, 61799, Control_c, 0, 67, 17
1, 61814, Control_c, 0, 67, 16
1, 61829, Control_c, 0, 67, 15
1, 61837, Note_off_c, 0, 50, 57
1, 61843, Control_c, 0, 67, 14
1, 61858, Control_c, 0, 67, 13
1, 61864, Note_on_c, 0, 67, 48
1, 61873, Control_c, 0, 67, 12
1, 61888, Control_c, 0, 67, 11
1, 61894, Note_off_c, 0, 67, 57
1, 61897, Note_on_c, 0, 60, 16
1, 61903, Control_c, 0, 67, 10
1, 61905, Note_on_c, 0, 57, 3
1, 61914, Note_on_c, 0, 66, 59
1, 61918, Control_c, 0, 64, 67
1, 61918, Control_c, 0, 67, 9
1, 61933, Control_c, 0, 67, 8
1, 61943, Note_off_c, 0, 57, 34
1, 61946, Note_off_c, 0, 66, 63
1, 61948, Control_c, 0, 67, 8
1, 61983, Note_on_c, 0, 67, 46
1, 62007, Control_c, 0, 64, 66
1, 62011, Note_off_c, 0, 67, 54
1, 62028, Note_on_c, 0, 66, 54
1, 62037, Control_c, 0, 64, 66
1, 62051, Control_c, 0, 64, 65
1, 62061, Note_off_c, 0, 66, 63
1, 62066, Control_c, 0, 64, 63
1, 62080, Note_on_c, 0, 64, 53
1, 62081, Control_c, 0, 64, 51
1, 62095, Control_c, 0, 64, 0
1, 62129, Note_off_c, 0, 64, 62
1, 62157, Note_on_c, 0, 66, 52
1, 62190, Note_off_c, 0, 60, 40
1, 62197, Note_off_c, 0, 66, 62
1, 62213, Note_on_c, 0, 67, 54
1, 62234, Note_on_c, 0, 55, 41
1, 62266, Control_c, 0, 67, 0
1, 62281, Control_c, 0, 64, 43
1, 62295, Control_c, 0, 64, 54
1, 62310, Control_c, 0, 64, 56
1, 62319, Note_off_c, 0, 67, 58
1, 62325, Control_c, 0, 64, 58
1, 62340, Control_c, 0, 64, 60
1, 62355, Control_c, 0, 64, 61
1, 62370, Control_c, 0, 64, 62
1, 62384, Control_c, 0, 64, 62
1, 62400, Control_c, 0, 64, 63
1, 62415, Control_c, 0, 64, 63
1, 62418, Note_on_c, 0, 59, 29
1, 62445, Control_c, 0, 64, 64
1, 62460, Control_c, 0, 64, 64
1, 62474, Control_c, 0, 64, 65
1, 62504, Control_c, 0, 64, 65
1, 62506, Note_off_c, 0, 59, 54
1, 62533, Control_c, 0, 64, 66
1, 62563, Control_c, 0, 64, 67
1, 62578, Control_c, 0, 64, 67
1, 62585, Note_on_c, 0, 62, 29
1, 62607, Control_c, 0, 64, 68
1, 62622, Control_c, 0, 64, 68
1, 62637, Control_c, 0, 64, 69
1, 62642, Note_on_c, 0, 79, 59
1, 62652, Control_c, 0, 64, 69
1, 62663, Note_off_c, 0, 55, 49
1, 62681, Control_c, 0, 64, 70
1, 62701, Note_on_c, 0, 59, 29
1, 62710, Note_off_c, 0, 79, 63
1, 62723, Note_on_c, 0, 81, 64
1, 62778, Note_off_c, 0, 81, 59
1, 62782, Note_on_c, 0, 79, 56
1, 62785, Control_c, 0, 64, 67
1, 62800, Control_c, 0, 64, 61
1, 62815, Control_c, 0, 64, 17
1, 62825, Note_off_c, 0, 59, 46
1, 62827, Note_off_c, 0, 62, 40
1, 62830, Control_c, 0, 64, 0
1, 62830, Note_off_c, 0, 79, 63
1, 62853, Note_on_c, 0, 55, 42
1, 62873, Note_on_c, 0, 76, 56
1, 62881, Control_c, 0, 64, 37
1, 62896, Control_c, 0, 64, 55
1, 62911, Control_c, 0, 64, 61
1, 62925, Control_c, 0, 64, 62
1, 62934, Note_off_c, 0, 76, 56
1, 62940, Control_c, 0, 64, 64
1, 62950, Note_on_c, 0, 79, 60
1, 62955, Control_c, 0, 64, 65
1, 62970, Control_c, 0, 64, 66
1, 62985, Control_c, 0, 64, 67
1, 62991, Note_off_c, 0, 79, 60
1, 63000, Control_c, 0, 64, 68
1, 63015, Control_c, 0, 64, 68
1, 63015, Note_on_c, 0, 81, 66
1, 63030, Control_c, 0, 64, 69
1, 63046, Note_on_c, 0, 60, 40
1, 63077, Note_off_c, 0, 81, 61
1, 63089, Note_on_c, 0, 79, 64
1, 63113, Note_off_c, 0, 60, 54
1, 63129, Note_off_c, 0, 79, 62
1, 63156, Note_on_c, 0, 84, 72
1, 63176, Note_on_c, 0, 64, 34
1, 63207, Note_off_c, 0, 84, 58
1, 63232, Note_on_c, 0, 79, 70
1, 63253, Control_c, 0, 64, 68
1, 63273, Note_off_c, 0, 55, 51
1, 63283, Control_c, 0, 64, 68
1, 63286, Note_off_c, 0, 79, 60
1, 63309, Note_on_c, 0, 76, 52
1, 63312, Control_c, 0, 64, 67
1, 63320, Note_on_c, 0, 60, 26
1, 63327, Control_c, 0, 64, 67
1, 63341, Note_off_c, 0, 76, 64
1, 63341, Control_c, 0, 64, 66
1, 63356, Control_c, 0, 64, 65
1, 63371, Control_c, 0, 64, 63
1, 63380, Note_on_c, 0, 72, 45
1, 63386, Control_c, 0, 64, 48
1, 63401, Control_c, 0, 64, 0
1, 63421, Note_off_c, 0, 72, 60
1, 63423, Note_off_c, 0, 60, 30
1, 63438, Note_off_c, 0, 64, 43
1, 63445, Note_on_c, 0, 79, 66
1, 63450, Note_on_c, 0, 55, 48
1, 63473, Note_off_c, 0, 79, 67
1, 63548, Control_c, 0, 64, 54
1, 63563, Control_c, 0, 64, 57
1, 63578, Control_c, 0, 64, 58
1, 63593, Control_c, 0, 64, 59
1, 63608, Control_c, 0, 64, 60
1, 63626, Note_on_c, 0, 79, 64
1, 63629, Note_on_c, 0, 59, 47
1, 63653, Note_off_c, 0, 79, 69
1, 63733, Note_off_c, 0, 59, 53
1, 63786, Note_on_c, 0, 62, 48
1, 63859, Note_on_c, 0, 79, 77
1, 63899, Note_off_c, 0, 55, 61
1, 63916, Note_off_c, 0, 79, 66
1, 63918, Note_on_c, 0, 59, 54
1, 63921, Note_on_c, 0, 81, 79
1, 63956, Control_c, 0, 64, 59
1, 63971, Control_c, 0, 64, 55
1, 63986, Control_c, 0, 64, 36
1, 63995, Note_on_c, 0, 79, 81
1, 64001, Control_c, 0, 64, 0
1, 64006, Note_off_c, 0, 81, 61
1, 64040, Note_off_c, 0, 62, 49
1, 64049, Note_off_c, 0, 59, 60
1, 64055, Note_off_c, 0, 79, 65
1, 64061, Note_on_c, 0, 55, 69
1, 64066, Note_on_c, 0, 76, 74
1, 64106, Control_c, 0, 64, 37
1, 64120, Control_c, 0, 64, 57
1, 64134, Note_on_c, 0, 79, 78
1, 64135, Control_c, 0, 64, 61
1, 64146, Note_off_c, 0, 76, 62
1, 64150, Control_c, 0, 64, 63
1, 64165, Control_c, 0, 64, 64
1, 64179, Control_c, 0, 64, 65
1, 64194, Control_c, 0, 64, 66
1, 64201, Note_off_c, 0, 79, 64
1, 64207, Note_on_c, 0, 81, 79
1, 64209, Control_c, 0, 64, 67
1, 64224, Control_c, 0, 64, 69
1, 64225, Note_on_c, 0, 60, 62
1, 64238, Control_c, 0, 64, 71
1, 64253, Control_c, 0, 64, 72
1, 64268, Control_c, 0, 64, 73
1, 64279, Note_on_c, 0, 79, 77
1, 64283, Control_c, 0, 64, 74
1, 64287, Note_off_c, 0, 81, 59
1, 64297, Control_c, 0, 64, 75
1, 64312, Control_c, 0, 64, 76
1, 64327, Control_c, 0, 64, 77
1, 64329, Note_off_c, 0, 60, 56
1, 64342, Control_c, 0, 64, 78
1, 64347, Note_off_c, 0, 79, 63
1, 64352, Note_on_c, 0, 64, 59
1, 64357, Control_c, 0, 64, 79
1, 64358, Note_on_c, 0, 84, 81
1, 64379, Control_c, 0, 64, 79
1, 64394, Control_c, 0, 64, 80
1, 64432, Note_off_c, 0, 84, 61
1, 64439, Note_on_c, 0, 79, 76
1, 64439, Control_c, 0, 64, 80
1, 64475, Note_off_c, 0, 64, 61
1, 64478, Note_off_c, 0, 55, 59
1, 64501, Note_on_c, 0, 60, 47
1, 64508, Note_off_c, 0, 79, 63
1, 64512, Note_on_c, 0, 76, 70
1, 64542, Control_c, 0, 67, 9
1, 64557, Control_c, 0, 67, 12
1, 64564, Note_off_c, 0, 76, 62
1, 64571, Control_c, 0, 67, 13
1, 64582, Note_on_c, 0, 72, 68
1, 64586, Control_c, 0, 67, 15
1, 64601, Control_c, 0, 67, 17
1, 64616, Control_c, 0, 67, 18
1, 64631, Control_c, 0, 67, 19
1, 64644, Note_on_c, 0, 55, 61
1, 64645, Note_off_c, 0, 72, 60
1, 64645, Note_off_c, 0, 60, 44
1, 64645, Control_c, 0, 64, 78
1, 64645, Control_c, 0, 67, 20
1, 64648, Note_on_c, 0, 62, 71
1, 64654, Note_on_c, 0, 79, 79
1, 64660, Note_on_c, 0, 59, 59
1, 64660, Control_c, 0, 64, 72
1, 64675, Note_off_c, 0, 62, 64
1, 64675, Control_c, 0, 64, 63
1, 64675, Control_c, 0, 67, 21
1, 64678, Note_off_c, 0, 55, 64
1, 64681, Note_off_c, 0, 59, 62
1, 64687, Note_off_c, 0, 79, 64
1, 64690, Control_c, 0, 64, 0
1, 64690, Control_c, 0, 67, 21
1, 64735, Control_c, 0, 67, 21
1, 64764, Control_c, 0, 67, 20
1, 64845, Note_on_c, 0, 79, 56
1, 64864, Note_off_c, 0, 79, 64
1, 64928, Control_c, 0, 67, 21
1, 64973, Control_c, 0, 67, 21
1, 65018, Control_c, 0, 67, 22
1, 65033, Control_c, 0, 67, 23
1, 65048, Control_c, 0, 67, 24
1, 65062, Control_c, 0, 67, 26
1, 65066, Poly_aftertouch_c, 0, 72, 127
1, 65077, Control_c, 0, 67, 29
1, 65092, Control_c, 0, 67, 32
1, 65098, Note_on_c, 0, 74, 42
1, 65107, Control_c, 0, 67, 34
1, 65128, Control_c, 0, 67, 35
1, 65134, Note_off_c, 0, 74, 55
1, 65143, Control_c, 0, 67, 36
1, 65172, Note_on_c, 0, 78, 46
1, 65218, Note_off_c, 0, 78, 60
1, 65240, Note_on_c, 0, 74, 47
1, 65283, Note_off_c, 0, 74, 61
1, 65292, Poly_aftertouch_c, 0, 72, 0
1, 65307, Control_c, 0, 67, 36
1, 65310, Note_on_c, 0, 79, 51
1, 65330, Note_off_c, 0, 79, 63
1, 65332, Note_on_c, 0, 71, 29
1, 65381, Control_c, 0, 67, 35
1, 65439, Control_c, 0, 67, 35
1, 65454, Control_c, 0, 67, 34
1, 65469, Control_c, 0, 67, 34
1, 65471, Note_on_c, 0, 79, 49
1, 65484, Control_c, 0, 67, 33
1, 65503, Note_off_c, 0, 79, 65
1, 65513, Control_c, 0, 67, 33
1, 65557, Control_c, 0, 67, 32
1, 65609, Note_off_c, 0, 71, 56
1, 65617, Control_c, 0, 67, 31
1, 65626, Note_on_c, 0, 72, 61
1, 65647, Control_c, 0, 67, 31
1, 65662, Control_c, 0, 67, 30
1, 65677, Control_c, 0, 67, 30
1, 65692, Control_c, 0, 67, 29
1, 65706, Control_c, 0, 67, 29
1, 65721, Note_on_c, 0, 74, 43
1, 65721, Control_c, 0, 67, 28
1, 65736, Control_c, 0, 67, 28
1, 65751, Control_c, 0, 67, 27
1, 65755, Note_off_c, 0, 74, 56
1, 65766, Control_c, 0, 67, 27
1, 65781, Control_c, 0, 67, 26
1, 65790, Note_on_c, 0, 78, 52
1, 65796, Control_c, 0, 67, 26
1, 65810, Control_c, 0, 67, 25
1, 65825, Control_c, 0, 67, 25
1, 65831, Note_off_c, 0, 78, 62
1, 65855, Note_on_c, 0, 74, 58
1, 65855, Control_c, 0, 67, 24
1, 65891, Control_c, 0, 67, 24
1, 65906, Control_c, 0, 67, 22
1, 65909, Note_off_c, 0, 74, 56
1, 65921, Control_c, 0, 67, 21
1, 65924, Note_off_c, 0, 72, 57
1, 65936, Control_c, 0, 67, 19
1, 65941, Note_on_c, 0, 79, 64
1, 65951, Control_c, 0, 67, 17
1, 65954, Note_on_c, 0, 71, 50
1, 65966, Control_c, 0, 67, 15
1, 65969, Note_off_c, 0, 79, 69
1, 65976, Note_off_c, 0, 71, 60
1, 65981, Control_c, 0, 67, 13
1, 65996, Control_c, 0, 67, 12
1, 66010, Control_c, 0, 67, 10
1, 66025, Control_c, 0, 67, 9
1, 66040, Control_c, 0, 67, 8
1, 66055, Control_c, 0, 67, 0
1, 66113, Note_on_c, 0, 79, 56
1, 66268, Note_on_c, 0, 66, 43
1, 66295, Note_off_c, 0, 66, 55
1, 66309, Note_off_c, 0, 79, 42
1, 66332, Note_on_c, 0, 74, 53
1, 66380, Note_off_c, 0, 74, 57
1, 66413, Note_on_c, 0, 66, 45
1, 66416, Note_on_c, 0, 81, 73
1, 66440, Note_off_c, 0, 81, 69
1, 66442, Note_off_c, 0, 66, 59
1, 66486, Note_on_c, 0, 74, 65
1, 66547, Note_off_c, 0, 74, 60
1, 66571, Note_on_c, 0, 83, 79
1, 66574, Note_on_c, 0, 67, 63
1, 66598, Note_off_c, 0, 83, 60
1, 66603, Note_off_c, 0, 67, 62
1, 66651, Note_on_c, 0, 74, 66
1, 66711, Note_off_c, 0, 74, 59
1, 66726, Note_on_c, 0, 67, 61
1, 66729, Note_on_c, 0, 83, 79
1, 66756, Note_off_c, 0, 67, 64
1, 66764, Note_off_c, 0, 83, 63
1, 66795, Note_on_c, 0, 74, 74
1, 66871, Note_off_c, 0, 74, 61
1, 66881, Note_on_c, 0, 84, 90
1, 66883, Note_on_c, 0, 69, 72
1, 66908, Note_off_c, 0, 69, 65
1, 66926, Note_off_c, 0, 84, 62
1, 66960, Note_on_c, 0, 74, 73
1, 67015, Note_off_c, 0, 74, 61
1, 67027, Note_on_c, 0, 69, 71
1, 67029, Note_on_c, 0, 84, 85
1, 67078, Note_off_c, 0, 84, 62
1, 67083, Note_off_c, 0, 69, 61
1, 67111, Note_on_c, 0, 74, 75
1, 67189, Note_off_c, 0, 74, 56
1, 67201, Note_on_c, 0, 86, 86
1, 67204, Note_on_c, 0, 71, 80
1, 67219, Control_c, 0, 64, 63
1, 67234, Control_c, 0, 64, 65
1, 67249, Control_c, 0, 64, 68
1, 67263, Control_c, 0, 64, 72
1, 67278, Control_c, 0, 64, 77
1, 67286, Note_off_c, 0, 86, 62
1, 67293, Control_c, 0, 64, 82
1, 67295, Note_on_c, 0, 83, 69
1, 67307, Control_c, 0, 64, 88
1, 67322, Control_c, 0, 64, 94
1, 67337, Control_c, 0, 64, 100
1, 67352, Control_c, 0, 64, 108
1, 67366, Note_off_c, 0, 83, 59
1, 67375, Control_c, 0, 64, 118
1, 67377, Note_on_c, 0, 86, 68
1, 67389, Control_c, 0, 64, 127
1, 67444, Note_off_c, 0, 86, 61
1, 67453, Note_on_c, 0, 83, 71
1, 67519, Note_off_c, 0, 83, 62
1, 67522, Note_on_c, 0, 79, 75
1, 67576, Note_off_c, 0, 71, 58
1, 67587, Note_off_c, 0, 79, 59
1, 67598, Note_on_c, 0, 83, 82
1, 67651, Note_off_c, 0, 83, 63
1, 67668, Note_on_c, 0, 79, 65
1, 67736, Note_on_c, 0, 83, 79
1, 67739, Note_off_c, 0, 79, 62
1, 67760, Control_c, 0, 67, 9
1, 67775, Control_c, 0, 67, 12
1, 67790, Note_off_c, 0, 83, 63
1, 67790, Control_c, 0, 67, 18
1, 67805, Control_c, 0, 67, 25
1, 67813, Note_on_c, 0, 74, 79
1, 67820, Control_c, 0, 64, 80
1, 67820, Control_c, 0, 67, 31
1, 67834, Control_c, 0, 64, 56
1, 67834, Control_c, 0, 67, 36
1, 67849, Control_c, 0, 64, 33
1, 67849, Control_c, 0, 67, 39
1, 67862, Note_off_c, 0, 74, 61
1, 67864, Control_c, 0, 64, 39
1, 67864, Control_c, 0, 67, 40
1, 67879, Control_c, 0, 64, 53
1, 67879, Control_c, 0, 67, 42
1, 67888, Note_on_c, 0, 79, 79
1, 67894, Control_c, 0, 64, 63
1, 67909, Control_c, 0, 64, 68
1, 67909, Control_c, 0, 67, 42
1, 67923, Control_c, 0, 64, 76
1, 67938, Control_c, 0, 64, 86
1, 67948, Note_off_c, 0, 79, 66
1, 67953, Control_c, 0, 64, 90
1, 67968, Control_c, 0, 64, 92
1, 67968, Control_c, 0, 67, 42
1, 67971, Note_on_c, 0, 74, 71
1, 67984, Control_c, 0, 64, 94
1, 67999, Control_c, 0, 64, 96
1, 67999, Control_c, 0, 67, 41
1, 68014, Note_off_c, 0, 74, 55
1, 68041, Note_on_c, 0, 79, 79
1, 68097, Note_off_c, 0, 79, 64
1, 68134, Note_on_c, 0, 71, 68
1, 68169, Control_c, 0, 64, 95
1, 68169, Control_c, 0, 67, 42
1, 68175, Note_off_c, 0, 71, 54
1, 68184, Control_c, 0, 64, 94
1, 68198, Control_c, 0, 64, 86
1, 68198, Control_c, 0, 67, 42
1, 68213, Control_c, 0, 64, 74
1, 68213, Control_c, 0, 67, 43
1, 68216, Note_on_c, 0, 74, 64
1, 68228, Control_c, 0, 64, 61
1, 68228, Control_c, 0, 67, 43
1, 68243, Control_c, 0, 64, 0
1, 68243, Control_c, 0, 67, 44
1, 68252, Note_off_c, 0, 74, 60
1, 68258, Control_c, 0, 67, 45
1, 68272, Control_c, 0, 67, 46
1, 68287, Note_on_c, 0, 71, 61
1, 68287, Control_c, 0, 67, 48
1, 68302, Control_c, 0, 67, 50
1, 68317, Control_c, 0, 67, 52
1, 68324, Note_off_c, 0, 71, 60
1, 68332, Control_c, 0, 67, 54
1, 68346, Control_c, 0, 67, 56
1, 68353, Note_on_c, 0, 74, 63
1, 68361, Control_c, 0, 67, 58
1, 68376, Control_c, 0, 67, 60
1, 68391, Control_c, 0, 67, 62
1, 68406, Control_c, 0, 67, 63
1, 68417, Note_off_c, 0, 74, 59
1, 68420, Control_c, 0, 67, 64
1, 68435, Control_c, 0, 67, 65
1, 68445, Note_on_c, 0, 69, 54
1, 68450, Control_c, 0, 67, 66
1, 68464, Control_c, 0, 64, 28
1, 68479, Control_c, 0, 64, 56
1, 68479, Control_c, 0, 67, 66
1, 68487, Note_off_c, 0, 69, 61
1, 68494, Control_c, 0, 64, 59
1, 68509, Control_c, 0, 64, 61
1, 68515, Note_on_c, 0, 76, 47
1, 68524, Control_c, 0, 64, 63
1, 68524, Control_c, 0, 67, 66
1, 68538, Control_c, 0, 64, 64
1, 68538, Control_c, 0, 67, 65
1, 68553, Control_c, 0, 64, 65
1, 68568, Control_c, 0, 64, 67
1, 68568, Control_c, 0, 67, 65
1, 68577, Note_off_c, 0, 76, 64
1, 68583, Control_c, 0, 64, 68
1, 68595, Note_on_c, 0, 75, 54
1, 68598, Control_c, 0, 64, 70
1, 68598, Control_c, 0, 67, 64
1, 68613, Control_c, 0, 64, 72
1, 68628, Control_c, 0, 64, 74
1, 68643, Control_c, 0, 64, 75
1, 68657, Control_c, 0, 64, 77
1, 68661, Note_off_c, 0, 75, 59
1, 68672, Control_c, 0, 64, 77
1, 68683, Note_on_c, 0, 76, 49
1, 68687, Control_c, 0, 64, 78
1, 68702, Control_c, 0, 67, 65
1, 68717, Control_c, 0, 67, 65
1, 68731, Control_c, 0, 64, 76
1, 68746, Control_c, 0, 64, 67
1, 68761, Control_c, 0, 64, 44
1, 68763, Note_on_c, 0, 48, 40
1, 68776, Note_on_c, 0, 74, 48
1, 68776, Control_c, 0, 64, 0
1, 68783, Note_on_c, 0, 57, 35
1, 68786, Note_on_c, 0, 52, 33
1, 68795, Note_off_c, 0, 76, 37
1, 68836, Control_c, 0, 64, 49
1, 68836, Control_c, 0, 67, 65
1, 68842, Note_on_c, 0, 72, 56
1, 68851, Control_c, 0, 64, 62
1, 68851, Control_c, 0, 67, 64
1, 68873, Control_c, 0, 64, 65
1, 68873, Control_c, 0, 67, 64
1, 68887, Control_c, 0, 64, 67
1, 68887, Control_c, 0, 67, 62
1, 68894, Note_off_c, 0, 74, 33
1, 68902, Control_c, 0, 64, 69
1, 68902, Control_c, 0, 67, 60
1, 68905, Note_off_c, 0, 57, 51
1, 68916, Note_off_c, 0, 72, 56
1, 68917, Control_c, 0, 64, 71
1, 68917, Control_c, 0, 67, 58
1, 68929, Note_off_c, 0, 48, 53
1, 68930, Note_on_c, 0, 71, 50
1, 68932, Control_c, 0, 64, 72
1, 68932, Control_c, 0, 67, 56
1, 68947, Control_c, 0, 64, 74
1, 68947, Control_c, 0, 67, 54
1, 68962, Control_c, 0, 64, 76
1, 68962, Control_c, 0, 67, 54
1, 68967, Note_off_c, 0, 71, 63
1, 68976, Control_c, 0, 64, 78
1, 68976, Control_c, 0, 67, 53
1, 68991, Control_c, 0, 64, 80
1, 68991, Control_c, 0, 67, 52
1, 69006, Control_c, 0, 64, 81
1, 69007, Note_on_c, 0, 69, 58
1, 69021, Control_c, 0, 64, 82
1, 69036, Control_c, 0, 64, 82
1, 69066, Control_c, 0, 64, 82
1, 69066, Control_c, 0, 67, 52
1, 69081, Control_c, 0, 64, 74
1, 69092, Note_off_c, 0, 69, 56
1, 69095, Control_c, 0, 64, 56
1, 69095, Control_c, 0, 67, 51
1, 69096, Note_off_c, 0, 52, 50
1, 69104, Note_on_c, 0, 67, 57
1, 69110, Control_c, 0, 64, 0
1, 69110, Control_c, 0, 67, 51
1, 69118, Note_on_c, 0, 50, 39
1, 69119, Note_on_c, 0, 59, 39
1, 69123, Note_on_c, 0, 55, 39
1, 69125, Control_c, 0, 67, 50
1, 69140, Control_c, 0, 67, 48
1, 69146, Note_off_c, 0, 67, 59
1, 69155, Control_c, 0, 67, 46
1, 69169, Control_c, 0, 64, 59
1, 69169, Control_c, 0, 67, 44
1, 69184, Control_c, 0, 64, 66
1, 69184, Control_c, 0, 67, 42
1, 69199, Control_c, 0, 64, 69
1, 69199, Control_c, 0, 67, 39
1, 69207, Note_off_c, 0, 59, 56
1, 69213, Control_c, 0, 64, 72
1, 69213, Control_c, 0, 67, 34
1, 69218, Note_off_c, 0, 55, 59
1, 69228, Control_c, 0, 64, 74
1, 69228, Control_c, 0, 67, 27
1, 69243, Control_c, 0, 64, 76
1, 69243, Control_c, 0, 67, 20
1, 69257, Control_c, 0, 64, 78
1, 69257, Control_c, 0, 67, 14
1, 69272, Control_c, 0, 64, 79
1, 69272, Control_c, 0, 67, 10
1, 69286, Control_c, 0, 64, 81
1, 69286, Control_c, 0, 67, 0
1, 69301, Control_c, 0, 64, 82
1, 69316, Control_c, 0, 64, 84
1, 69331, Control_c, 0, 64, 84
1, 69346, Control_c, 0, 64, 85
1, 69361, Control_c, 0, 64, 85
1, 69391, Control_c, 0, 64, 82
1, 69405, Control_c, 0, 64, 70
1, 69420, Control_c, 0, 64, 35
1, 69430, Note_on_c, 0, 67, 64
1, 69435, Control_c, 0, 64, 0
1, 69440, Note_on_c, 0, 57, 56
1, 69441, Note_on_c, 0, 60, 54
1, 69463, Note_off_c, 0, 67, 63
1, 69464, Note_off_c, 0, 60, 60
1, 69473, Note_off_c, 0, 57, 63
1, 69474, Note_on_c, 0, 66, 67
1, 69479, Control_c, 0, 64, 46
1, 69494, Control_c, 0, 64, 63
1, 69509, Control_c, 0, 64, 66
1, 69517, Note_off_c, 0, 66, 56
1, 69524, Control_c, 0, 64, 69
1, 69538, Note_on_c, 0, 67, 54
1, 69539, Control_c, 0, 64, 71
1, 69553, Control_c, 0, 64, 72
1, 69568, Control_c, 0, 64, 74
1, 69579, Note_off_c, 0, 67, 59
1, 69584, Control_c, 0, 64, 75
1, 69591, Note_on_c, 0, 66, 48
1, 69599, Control_c, 0, 64, 75
1, 69632, Note_off_c, 0, 66, 63
1, 69636, Control_c, 0, 64, 76
1, 69644, Note_on_c, 0, 64, 66
1, 69650, Control_c, 0, 64, 78
1, 69665, Control_c, 0, 64, 79
1, 69680, Control_c, 0, 64, 80
1, 69695, Control_c, 0, 64, 81
1, 69711, Note_on_c, 0, 66, 68
1, 69722, Note_off_c, 0, 64, 58
1, 69736, Note_off_c, 0, 66, 67
1, 69750, Note_off_c, 0, 50, 60
1, 69755, Control_c, 0, 64, 77
1, 69757, Note_on_c, 0, 67, 87
1, 69760, Note_on_c, 0, 55, 83
1, 69769, Control_c, 0, 64, 65
1, 69784, Control_c, 0, 64, 0
1, 69858, Control_c, 0, 64, 52
1, 69873, Control_c, 0, 64, 63
1, 69888, Control_c, 0, 64, 65
1, 69903, Control_c, 0, 64, 67
1, 69917, Control_c, 0, 64, 70
1, 69932, Control_c, 0, 64, 73
1, 69947, Control_c, 0, 64, 76
1, 69962, Control_c, 0, 64, 79
1, 69977, Control_c, 0, 64, 84
1, 69991, Control_c, 0, 64, 90
1, 70006, Control_c, 0, 64, 99
1, 70021, Control_c, 0, 64, 111
1, 70029, Note_off_c, 0, 67, 60
1, 70035, Control_c, 0, 64, 127
1, 70038, Note_on_c, 0, 62, 70
1, 70041, Note_on_c, 0, 50, 73
1, 70062, Note_off_c, 0, 55, 60
1, 70108, Note_on_c, 0, 71, 86
1, 70108, Note_off_c, 0, 50, 61
1, 70110, Note_off_c, 0, 62, 59
1, 70112, Note_on_c, 0, 59, 88
1, 70124, Control_c, 0, 64, 80
1, 70139, Control_c, 0, 64, 59
1, 70154, Control_c, 0, 64, 43
1, 70169, Control_c, 0, 64, 52
1, 70184, Control_c, 0, 64, 62
1, 70199, Control_c, 0, 64, 67
1, 70214, Control_c, 0, 64, 75
1, 70228, Control_c, 0, 64, 85
1, 70243, Control_c, 0, 64, 92
1, 70258, Control_c, 0, 64, 96
1, 70273, Control_c, 0, 64, 104
1, 70288, Control_c, 0, 64, 113
1, 70302, Control_c, 0, 64, 127
1, 70378, Note_on_c, 0, 55, 65
1, 70378, Note_on_c, 0, 67, 76
1, 70379, Note_off_c, 0, 59, 60
1, 70398, Note_off_c, 0, 71, 53
1, 70429, Control_c, 0, 64, 91
1, 70444, Control_c, 0, 64, 64
1, 70458, Control_c, 0, 64, 0
1, 70471, Note_on_c, 0, 74, 81
1, 70474, Note_on_c, 0, 62, 73
1, 70503, Control_c, 0, 64, 49
1, 70518, Control_c, 0, 64, 65
1, 70523, Note_off_c, 0, 67, 57
1, 70533, Control_c, 0, 64, 70
1, 70547, Control_c, 0, 64, 76
1, 70562, Control_c, 0, 64, 84
1, 70575, Note_off_c, 0, 55, 40
1, 70577, Control_c, 0, 64, 94
1, 70591, Note_off_c, 0, 74, 61
1, 70592, Control_c, 0, 64, 106
1, 70598, Note_off_c, 0, 62, 56
1, 70607, Control_c, 0, 64, 118
1, 70622, Control_c, 0, 64, 127
1, 70740, Control_c, 0, 64, 104
1, 70754, Control_c, 0, 64, 86
1, 70769, Control_c, 0, 64, 68
1, 70783, Control_c, 0, 64, 47
1, 70798, Control_c, 0, 64, 0
1, 70925, Note_on_c, 0, 81, 53
1, 70995, Note_off_c, 0, 81, 59
1, 71003, Note_on_c, 0, 79, 57
1, 71076, Note_on_c, 0, 78, 57
1, 71123, Note_off_c, 0, 79, 43
1, 71153, Note_on_c, 0, 76, 55
1, 71178, Note_off_c, 0, 78, 48
1, 71203, Note_off_c, 0, 76, 59
1, 71233, Note_on_c, 0, 74, 58
1, 71239, Note_on_c, 0, 50, 40
1, 71242, Note_on_c, 0, 55, 37
1, 71242, Note_on_c, 0, 59, 43
1, 71263, Note_off_c, 0, 74, 66
1, 71271, Note_off_c, 0, 50, 57
1, 71289, Note_off_c, 0, 55, 61
1, 71290, Note_off_c, 0, 59, 62
1, 71603, Note_on_c, 0, 76, 48
1, 71670, Note_on_c, 0, 74, 60
1, 71684, Note_off_c, 0, 76, 50
1, 71734, Note_off_c, 0, 74, 58
1, 71754, Note_on_c, 0, 72, 53
1, 71782, Note_off_c, 0, 72, 58
1, 71829, Note_on_c, 0, 71, 49
1, 71914, Note_off_c, 0, 71, 57
1, 71937, Note_on_c, 0, 69, 48
1, 71950, Note_on_c, 0, 54, 39
1, 71957, Note_on_c, 0, 50, 17
1, 71961, Note_off_c, 0, 69, 60
1, 71971, Note_on_c, 0, 60, 27
1, 71990, Note_off_c, 0, 54, 62
1, 71999, Note_off_c, 0, 50, 36
1, 72000, Note_off_c, 0, 60, 44
1, 72292, Note_on_c, 0, 74, 53
1, 72355, Note_off_c, 0, 74, 60
1, 72378, Note_on_c, 0, 72, 51
1, 72437, Note_off_c, 0, 72, 55
1, 72457, Note_on_c, 0, 71, 51
1, 72488, Note_off_c, 0, 71, 60
1, 72512, Note_on_c, 0, 69, 53
1, 72546, Note_off_c, 0, 69, 64
1, 72563, Control_c, 0, 64, 64
1, 72577, Control_c, 0, 64, 70
1, 72580, Note_on_c, 0, 55, 75
1, 72586, Note_on_c, 0, 67, 78
1, 72592, Control_c, 0, 64, 78
1, 72615, Control_c, 0, 64, 88
1, 72630, Control_c, 0, 64, 99
1, 72644, Control_c, 0, 64, 116
1, 72659, Control_c, 0, 64, 127
1, 72664, Note_off_c, 0, 67, 59
1, 72666, Note_off_c, 0, 55, 58
1, 72681, Note_on_c, 0, 50, 72
1, 72685, Note_on_c, 0, 62, 72
1, 72736, Note_off_c, 0, 50, 55
1, 72759, Note_on_c, 0, 67, 80
1, 72762, Note_off_c, 0, 62, 59
1, 72763, Note_on_c, 0, 55, 63
1, 72824, Note_on_c, 0, 50, 71
1, 72825, Note_off_c, 0, 67, 60
1, 72833, Note_on_c, 0, 62, 74
1, 72839, Note_off_c, 0, 55, 56
1, 72874, Note_off_c, 0, 50, 58
1, 72902, Note_on_c, 0, 71, 84
1, 72905, Note_on_c, 0, 59, 72
1, 72905, Note_off_c, 0, 62, 60
1, 72978, Note_on_c, 0, 55, 77
1, 72981, Note_on_c, 0, 67, 76
1, 72982, Note_off_c, 0, 59, 59
1, 72998, Note_off_c, 0, 71, 60
1, 73054, Note_off_c, 0, 55, 59
1, 73057, Note_on_c, 0, 59, 73
1, 73063, Note_on_c, 0, 71, 78
1, 73078, Note_off_c, 0, 67, 60
1, 73120, Control_c, 0, 64, 98
1, 73126, Note_on_c, 0, 55, 60
1, 73133, Note_on_c, 0, 67, 68
1, 73134, Control_c, 0, 64, 84
1, 73135, Note_off_c, 0, 59, 60
1, 73149, Control_c, 0, 64, 70
1, 73153, Poly_aftertouch_c, 0, 70, 127
1, 73164, Control_c, 0, 64, 63
1, 73178, Control_c, 0, 64, 59
1, 73193, Control_c, 0, 64, 58
1, 73208, Control_c, 0, 64, 57
1, 73223, Control_c, 0, 64, 56
1, 73229, Note_off_c, 0, 71, 60
1, 73230, Note_on_c, 0, 74, 82
1, 73233, Note_on_c, 0, 62, 69
1, 73238, Control_c, 0, 64, 52
1, 73252, Control_c, 0, 64, 48
1, 73267, Control_c, 0, 64, 42
1, 73275, Poly_aftertouch_c, 0, 70, 0
1, 73282, Control_c, 0, 64, 37
1, 73293, Note_off_c, 0, 67, 56
1, 73297, Note_off_c, 0, 55, 60
1, 73297, Control_c, 0, 64, 29
1, 73312, Control_c, 0, 64, 12
1, 73326, Control_c, 0, 64, 0
1, 73367, Note_off_c, 0, 74, 63
1, 73383, Note_off_c, 0, 62, 58
1, 73761, Note_on_c, 0, 81, 38
1, 73814, Note_off_c, 0, 81, 60
1, 73829, Note_on_c, 0, 79, 57
1, 73902, Note_off_c, 0, 79, 56
1, 73905, Note_on_c, 0, 78, 52
1, 73973, Note_off_c, 0, 78, 55
1, 73977, Note_on_c, 0, 76, 46
1, 74013, Note_off_c, 0, 76, 64
1, 74032, Note_on_c, 0, 74, 61
1, 74056, Note_on_c, 0, 50, 34
1, 74060, Note_off_c, 0, 74, 67
1, 74069, Note_on_c, 0, 59, 30
1, 74071, Note_on_c, 0, 55, 30
1, 74089, Note_off_c, 0, 50, 53
1, 74112, Note_off_c, 0, 59, 53
1, 74113, Note_off_c, 0, 55, 56
1, 74260, Note_on_c, 0, 74, 46
1, 74282, Note_off_c, 0, 74, 59
1, 74443, Note_on_c, 0, 76, 50
1, 74508, Note_on_c, 0, 74, 57
1, 74537, Note_off_c, 0, 76, 45
1, 74550, Note_off_c, 0, 74, 61
1, 74579, Note_on_c, 0, 72, 46
1, 74607, Note_off_c, 0, 72, 58
1, 74648, Note_on_c, 0, 71, 50
1, 74726, Note_off_c, 0, 71, 59
1, 74747, Note_on_c, 0, 50, 35
1, 74754, Note_on_c, 0, 54, 43
1, 74754, Note_on_c, 0, 69, 42
1, 74762, Note_on_c, 0, 60, 37
1, 74777, Note_off_c, 0, 50, 53
1, 74781, Note_off_c, 0, 69, 56
1, 74789, Note_off_c, 0, 60, 55
1, 74795, Note_off_c, 0, 54, 63
1, 74961, Note_on_c, 0, 69, 35
1, 74992, Note_off_c, 0, 69, 56
1, 75159, Note_on_c, 0, 74, 42
1, 75201, Note_off_c, 0, 74, 60
1, 75221, Note_on_c, 0, 72, 53
1, 75293, Note_off_c, 0, 72, 54
1, 75308, Note_on_c, 0, 71, 45
1, 75368, Note_off_c, 0, 71, 57
1, 75397, Note_on_c, 0, 69, 36
1, 75436, Note_off_c, 0, 69, 56
1, 75439, Note_on_c, 0, 55, 36
1, 75451, Note_on_c, 0, 67, 52
1, 75454, Note_on_c, 0, 59, 43
1, 75487, Note_off_c, 0, 55, 59
1, 75490, Note_off_c, 0, 67, 63
1, 75496, Note_off_c, 0, 59, 62
1, 75794, Note_on_c, 0, 71, 54
1, 75798, Note_on_c, 0, 55, 46
1, 75800, Note_on_c, 0, 62, 49
1, 75831, Note_off_c, 0, 71, 64
1, 75836, Note_off_c, 0, 55, 63
1, 75836, Note_off_c, 0, 62, 58
1, 76178, Note_on_c, 0, 67, 50
1, 76190, Note_on_c, 0, 43, 43
1, 76190, Note_on_c, 0, 59, 35
1, 76228, Note_off_c, 0, 59, 53
1, 76240, Note_off_c, 0, 67, 56
1, 76245, Note_off_c, 0, 43, 61
1, 76389, Control_c, 0, 67, 8
1, 76403, Control_c, 0, 67, 8
1, 76418, Control_c, 0, 67, 9
1, 76433, Control_c, 0, 67, 11
1, 76448, Control_c, 0, 67, 14
1, 76463, Control_c, 0, 67, 19
1, 76477, Control_c, 0, 67, 27
1, 76492, Control_c, 0, 67, 33
1, 76507, Control_c, 0, 67, 40
1, 76521, Control_c, 0, 67, 46
1, 76536, Control_c, 0, 67, 53
1, 76551, Control_c, 0, 67, 59
1, 76566, Control_c, 0, 67, 65
1, 76581, Control_c, 0, 67, 72
1, 76596, Control_c, 0, 67, 77
1, 76611, Control_c, 0, 67, 82
1, 76625, Control_c, 0, 67, 86
1, 76640, Control_c, 0, 67, 89
1, 76655, Control_c, 0, 67, 91
1, 76670, Control_c, 0, 67, 93
1, 76685, Control_c, 0, 67, 94
1, 76700, Control_c, 0, 67, 96
1, 76715, Control_c, 0, 67, 97
1, 76729, Control_c, 0, 67, 98
1, 76744, Control_c, 0, 67, 98
1, 76759, Control_c, 0, 67, 99
1, 76775, Control_c, 0, 67, 99
1, 76804, Control_c, 0, 64, 49
1, 76819, Control_c, 0, 64, 56
1, 76834, Control_c, 0, 64, 59
1, 76849, Control_c, 0, 64, 62
1, 76864, Control_c, 0, 64, 63
1, 76879, Control_c, 0, 64, 65
1, 76893, Control_c, 0, 64, 67
1, 76908, Control_c, 0, 64, 69
1, 76923, Control_c, 0, 64, 71
1, 76938, Control_c, 0, 64, 74
1, 76952, Control_c, 0, 64, 76
1, 76965, Note_on_c, 0, 74, 45
1, 76967, Control_c, 0, 64, 78
1, 76967, Control_c, 0, 67, 99
1, 76971, Note_on_c, 0, 67, 32
1, 76982, Control_c, 0, 64, 80
1, 76997, Control_c, 0, 64, 83
1, 77012, Control_c, 0, 64, 85
1, 77026, Control_c, 0, 64, 87
1, 77041, Control_c, 0, 64, 90
1, 77056, Control_c, 0, 64, 91
1, 77070, Control_c, 0, 64, 93
1, 77085, Control_c, 0, 64, 94
1, 77108, Control_c, 0, 64, 95
1, 77123, Control_c, 0, 64, 96
1, 77137, Note_off_c, 0, 67, 34
1, 77138, Control_c, 0, 64, 98
1, 77152, Control_c, 0, 64, 99
1, 77159, Note_on_c, 0, 71, 34
1, 77167, Control_c, 0, 64, 99
1, 77167, Control_c, 0, 67, 98
1, 77197, Control_c, 0, 64, 100
1, 77212, Control_c, 0, 64, 101
1, 77226, Control_c, 0, 67, 98
1, 77241, Control_c, 0, 67, 97
1, 77256, Control_c, 0, 67, 97
1, 77271, Control_c, 0, 64, 101
1, 77271, Control_c, 0, 67, 96
1, 77300, Control_c, 0, 67, 96
1, 77310, Note_off_c, 0, 71, 23
1, 77314, Note_on_c, 0, 67, 30
1, 77315, Control_c, 0, 64, 102
1, 77315, Control_c, 0, 67, 95
1, 77330, Control_c, 0, 67, 94
1, 77345, Control_c, 0, 67, 94
1, 77374, Control_c, 0, 67, 93
1, 77389, Control_c, 0, 67, 93
1, 77404, Control_c, 0, 67, 92
1, 77418, Control_c, 0, 67, 92
1, 77448, Note_off_c, 0, 67, 42
1, 77451, Note_off_c, 0, 74, 60
1, 77463, Control_c, 0, 67, 91
1, 77467, Note_on_c, 0, 71, 38
1, 77468, Note_on_c, 0, 75, 56
1, 77478, Control_c, 0, 64, 102
1, 77567, Control_c, 0, 67, 91
1, 77597, Control_c, 0, 67, 90
1, 77611, Note_off_c, 0, 71, 54
1, 77627, Control_c, 0, 67, 90
1, 77630, Note_on_c, 0, 76, 49
1, 77631, Note_on_c, 0, 67, 47
1, 77657, Control_c, 0, 67, 89
1, 77672, Control_c, 0, 67, 88
1, 77687, Control_c, 0, 64, 103
1, 77701, Control_c, 0, 67, 88
1, 77716, Control_c, 0, 67, 87
1, 77740, Note_off_c, 0, 75, 23
1, 77746, Control_c, 0, 64, 103
1, 77775, Control_c, 0, 64, 104
1, 77778, Note_on_c, 0, 71, 47
1, 77788, Note_on_c, 0, 78, 64
1, 77790, Control_c, 0, 67, 87
1, 77805, Control_c, 0, 64, 104
1, 77820, Control_c, 0, 64, 105
1, 77835, Control_c, 0, 64, 106
1, 77857, Control_c, 0, 64, 106
1, 77872, Control_c, 0, 64, 107
1, 77886, Control_c, 0, 64, 108
1, 77888, Note_off_c, 0, 76, 37
1, 77901, Control_c, 0, 64, 108
1, 77922, Note_off_c, 0, 67, 51
1, 77946, Control_c, 0, 64, 108
1, 77946, Control_c, 0, 67, 87
1, 77954, Note_on_c, 0, 65, 56
1, 77954, Note_on_c, 0, 79, 73
1, 77961, Control_c, 0, 64, 97
1, 77975, Control_c, 0, 64, 79
1, 77978, Note_off_c, 0, 71, 38
1, 77990, Control_c, 0, 64, 63
1, 77990, Control_c, 0, 67, 88
1, 77999, Note_off_c, 0, 78, 59
1, 78005, Control_c, 0, 64, 45
1, 78005, Control_c, 0, 67, 88
1, 78020, Control_c, 0, 64, 47
1, 78035, Control_c, 0, 64, 52
1, 78035, Control_c, 0, 67, 89
1, 78049, Control_c, 0, 64, 58
1, 78049, Control_c, 0, 67, 90
1, 78064, Control_c, 0, 64, 63
1, 78064, Control_c, 0, 67, 91
1, 78079, Control_c, 0, 64, 66
1, 78079, Control_c, 0, 67, 92
1, 78094, Control_c, 0, 64, 70
1, 78094, Control_c, 0, 67, 93
1, 78108, Control_c, 0, 64, 74
1, 78108, Control_c, 0, 67, 95
1, 78117, Note_on_c, 0, 71, 45
1, 78123, Control_c, 0, 64, 77
1, 78123, Control_c, 0, 67, 96
1, 78125, Note_on_c, 0, 68, 49
1, 78138, Control_c, 0, 64, 79
1, 78138, Control_c, 0, 67, 97
1, 78153, Control_c, 0, 64, 81
1, 78153, Control_c, 0, 67, 98
1, 78162, Note_off_c, 0, 79, 59
1, 78168, Control_c, 0, 64, 82
1, 78168, Control_c, 0, 67, 99
1, 78182, Control_c, 0, 64, 83
1, 78182, Control_c, 0, 67, 101
1, 78197, Control_c, 0, 64, 84
1, 78197, Control_c, 0, 67, 103
1, 78212, Control_c, 0, 64, 85
1, 78212, Control_c, 0, 67, 106
1, 78226, Control_c, 0, 64, 86
1, 78226, Control_c, 0, 67, 109
1, 78242, Control_c, 0, 64, 86
1, 78242, Control_c, 0, 67, 111
1, 78257, Control_c, 0, 64, 87
1, 78257, Control_c, 0, 67, 112
1, 78272, Control_c, 0, 67, 113
1, 78287, Control_c, 0, 67, 114
1, 78301, Control_c, 0, 67, 116
1, 78314, Note_on_c, 0, 64, 43
1, 78316, Note_off_c, 0, 65, 26
1, 78316, Control_c, 0, 67, 117
1, 78322, Note_on_c, 0, 74, 49
1, 78329, Note_off_c, 0, 68, 36
1, 78331, Control_c, 0, 64, 82
1, 78331, Control_c, 0, 67, 119
1, 78346, Control_c, 0, 64, 72
1, 78346, Control_c, 0, 67, 120
1, 78361, Control_c, 0, 64, 60
1, 78361, Control_c, 0, 67, 121
1, 78377, Control_c, 0, 64, 22
1, 78377, Control_c, 0, 67, 121
1, 78391, Control_c, 0, 64, 0
1, 78421, Control_c, 0, 64, 17
1, 78436, Control_c, 0, 64, 35
1, 78441, Note_off_c, 0, 71, 31
1, 78451, Control_c, 0, 64, 51
1, 78465, Control_c, 0, 64, 59
1, 78480, Control_c, 0, 64, 63
1, 78495, Control_c, 0, 64, 65
1, 78497, Note_off_c, 0, 64, 43
1, 78502, Note_on_c, 0, 72, 46
1, 78510, Control_c, 0, 64, 67
1, 78512, Note_on_c, 0, 67, 39
1, 78524, Control_c, 0, 64, 68
1, 78539, Control_c, 0, 64, 70
1, 78545, Note_off_c, 0, 74, 37
1, 78554, Control_c, 0, 64, 71
1, 78564, Note_off_c, 0, 72, 52
1, 78569, Control_c, 0, 64, 72
1, 78584, Control_c, 0, 64, 73
1, 78606, Control_c, 0, 64, 73
1, 78621, Control_c, 0, 64, 74
1, 78621, Control_c, 0, 67, 121
1, 78626, Note_off_c, 0, 67, 57
1, 78636, Control_c, 0, 64, 74
1, 78643, Note_on_c, 0, 64, 42
1, 78665, Control_c, 0, 64, 75
1, 78680, Control_c, 0, 67, 120
1, 78695, Control_c, 0, 64, 75
1, 78724, Control_c, 0, 67, 120
1, 78769, Control_c, 0, 64, 75
1, 78784, Control_c, 0, 64, 72
1, 78784, Control_c, 0, 67, 119
1, 78793, Note_off_c, 0, 64, 52
1, 78799, Control_c, 0, 64, 66
1, 78805, Note_on_c, 0, 71, 55
1, 78813, Note_on_c, 0, 67, 39
1, 78813, Control_c, 0, 64, 49
1, 78813, Control_c, 0, 67, 119
1, 78828, Control_c, 0, 64, 0
1, 78828, Control_c, 0, 67, 118
1, 78843, Control_c, 0, 67, 118
1, 78858, Control_c, 0, 67, 117
1, 78873, Control_c, 0, 67, 117
1, 78888, Control_c, 0, 64, 12
1, 78888, Control_c, 0, 67, 116
1, 78903, Control_c, 0, 64, 40
1, 78903, Control_c, 0, 67, 115
1, 78917, Control_c, 0, 64, 54
1, 78917, Control_c, 0, 67, 114
1, 78930, Note_off_c, 0, 67, 58
1, 78932, Control_c, 0, 64, 60
1, 78932, Control_c, 0, 67, 113
1, 78947, Control_c, 0, 64, 63
1, 78947, Control_c, 0, 67, 111
1, 78958, Note_on_c, 0, 64, 44
1, 78962, Control_c, 0, 64, 64
1, 78962, Control_c, 0, 67, 109
1, 78969, Note_on_c, 0, 72, 58
1, 78977, Control_c, 0, 64, 65
1, 78977, Control_c, 0, 67, 108
1, 78991, Control_c, 0, 64, 65
1, 78991, Control_c, 0, 67, 105
1, 79006, Control_c, 0, 64, 66
1, 79006, Control_c, 0, 67, 100
1, 79021, Control_c, 0, 64, 67
1, 79021, Control_c, 0, 67, 94
1, 79036, Control_c, 0, 64, 68
1, 79036, Control_c, 0, 67, 86
1, 79048, Note_off_c, 0, 71, 49
1, 79050, Control_c, 0, 64, 69
1, 79050, Control_c, 0, 67, 77
1, 79065, Control_c, 0, 64, 69
1, 79065, Control_c, 0, 67, 66
1, 79079, Note_off_c, 0, 64, 59
1, 79080, Control_c, 0, 67, 59
1, 79095, Control_c, 0, 67, 53
1, 79110, Control_c, 0, 64, 70
1, 79110, Control_c, 0, 67, 48
1, 79112, Note_on_c, 0, 74, 69
1, 79115, Note_on_c, 0, 67, 45
1, 79124, Control_c, 0, 64, 70
1, 79124, Control_c, 0, 67, 46
1, 79139, Control_c, 0, 67, 45
1, 79154, Control_c, 0, 64, 71
1, 79155, Note_off_c, 0, 72, 54
1, 79170, Control_c, 0, 64, 71
1, 79185, Control_c, 0, 64, 72
1, 79229, Control_c, 0, 67, 45
1, 79244, Control_c, 0, 64, 69
1, 79244, Control_c, 0, 67, 47
1, 79249, Note_off_c, 0, 67, 60
1, 79259, Control_c, 0, 64, 63
1, 79259, Control_c, 0, 67, 49
1, 79267, Note_on_c, 0, 76, 68
1, 79273, Control_c, 0, 64, 46
1, 79273, Control_c, 0, 67, 52
1, 79275, Note_on_c, 0, 62, 51
1, 79288, Control_c, 0, 64, 45
1, 79288, Control_c, 0, 67, 54
1, 79303, Control_c, 0, 64, 46
1, 79303, Control_c, 0, 67, 57
1, 79318, Note_off_c, 0, 74, 53
1, 79318, Control_c, 0, 64, 48
1, 79318, Control_c, 0, 67, 58
1, 79333, Control_c, 0, 64, 53
1, 79333, Control_c, 0, 67, 62
1, 79355, Control_c, 0, 64, 59
1, 79355, Control_c, 0, 67, 69
1, 79370, Control_c, 0, 64, 63
1, 79370, Control_c, 0, 67, 75
1, 79385, Control_c, 0, 64, 67
1, 79385, Control_c, 0, 67, 82
1, 79400, Control_c, 0, 64, 70
1, 79400, Control_c, 0, 67, 88
1, 79407, Note_off_c, 0, 62, 59
1, 79413, Note_off_c, 0, 76, 63
1, 79415, Control_c, 0, 64, 73
1, 79415, Control_c, 0, 67, 93
1, 79429, Control_c, 0, 64, 75
1, 79429, Control_c, 0, 67, 96
1, 79431, Note_on_c, 0, 65, 49
1, 79431, Note_on_c, 0, 68, 60
1, 79444, Control_c, 0, 64, 76
1, 79444, Control_c, 0, 67, 99
1, 79459, Control_c, 0, 64, 76
1, 79459, Control_c, 0, 67, 101
1, 79473, Control_c, 0, 67, 101
1, 79488, Control_c, 0, 64, 77
1, 79488, Control_c, 0, 67, 102
1, 79577, Control_c, 0, 64, 76
1, 79577, Control_c, 0, 67, 102
1, 79584, Note_off_c, 0, 65, 54
1, 79592, Control_c, 0, 64, 71
1, 79602, Note_on_c, 0, 71, 46
1, 79607, Control_c, 0, 64, 60
1, 79621, Note_on_c, 0, 60, 33
1, 79621, Control_c, 0, 64, 0
1, 79701, Note_off_c, 0, 68, 21
1, 79739, Control_c, 0, 64, 17
1, 79744, Note_off_c, 0, 60, 57
1, 79754, Control_c, 0, 64, 22
1, 79762, Note_off_c, 0, 71, 53
1, 79767, Note_on_c, 0, 69, 48
1, 79769, Control_c, 0, 64, 23
1, 79779, Note_on_c, 0, 64, 35
1, 79799, Control_c, 0, 64, 17
1, 79813, Control_c, 0, 64, 12
1, 79828, Control_c, 0, 64, 0
1, 79858, Note_off_c, 0, 69, 57
1, 79885, Note_off_c, 0, 64, 61
1, 79925, Note_on_c, 0, 60, 36
1, 79977, Control_c, 0, 67, 102
1, 80007, Control_c, 0, 67, 101
1, 80022, Control_c, 0, 67, 100
1, 80037, Control_c, 0, 67, 99
1, 80051, Control_c, 0, 67, 98
1, 80060, Note_off_c, 0, 60, 51
1, 80066, Control_c, 0, 67, 97
1, 80074, Note_on_c, 0, 68, 49
1, 80081, Control_c, 0, 67, 96
1, 80103, Control_c, 0, 67, 95
1, 80104, Note_on_c, 0, 64, 35
1, 80118, Control_c, 0, 67, 94
1, 80133, Control_c, 0, 67, 93
1, 80148, Control_c, 0, 67, 92
1, 80163, Control_c, 0, 67, 90
1, 80177, Control_c, 0, 67, 89
1, 80192, Control_c, 0, 67, 86
1, 80207, Control_c, 0, 67, 82
1, 80217, Note_off_c, 0, 64, 62
1, 80221, Control_c, 0, 67, 79
1, 80233, Note_on_c, 0, 69, 56
1, 80235, Note_off_c, 0, 68, 56
1, 80236, Control_c, 0, 67, 77
1, 80248, Note_on_c, 0, 60, 44
1, 80251, Control_c, 0, 67, 75
1, 80266, Control_c, 0, 67, 73
1, 80281, Control_c, 0, 67, 72
1, 80295, Control_c, 0, 67, 70
1, 80310, Control_c, 0, 67, 69
1, 80325, Control_c, 0, 67, 68
1, 80340, Control_c, 0, 67, 68
1, 80355, Control_c, 0, 67, 67
1, 80367, Note_off_c, 0, 60, 57
1, 80371, Note_off_c, 0, 69, 57
1, 80376, Note_on_c, 0, 71, 58
1, 80384, Note_on_c, 0, 64, 42
1, 80499, Note_off_c, 0, 64, 63
1, 80503, Control_c, 0, 67, 68
1, 80513, Note_off_c, 0, 71, 58
1, 80518, Control_c, 0, 67, 68
1, 80526, Note_on_c, 0, 72, 56
1, 80533, Control_c, 0, 67, 69
1, 80541, Note_on_c, 0, 60, 33
1, 80548, Control_c, 0, 67, 69
1, 80562, Control_c, 0, 67, 70
1, 80577, Control_c, 0, 67, 70
1, 80592, Control_c, 0, 67, 71
1, 80607, Control_c, 0, 67, 72
1, 80636, Control_c, 0, 67, 72
1, 80651, Control_c, 0, 67, 73
1, 80663, Note_off_c, 0, 60, 47
1, 80694, Note_on_c, 0, 63, 48
1, 80697, Note_on_c, 0, 66, 46
1, 80755, Control_c, 0, 64, 36
1, 80771, Control_c, 0, 64, 53
1, 80785, Control_c, 0, 64, 56
1, 80800, Control_c, 0, 64, 58
1, 80815, Note_off_c, 0, 63, 61
1, 80815, Control_c, 0, 64, 60
1, 80817, Note_off_c, 0, 72, 59
1, 80830, Control_c, 0, 64, 61
1, 80852, Control_c, 0, 64, 61
1, 80860, Note_on_c, 0, 59, 45
1, 80863, Note_on_c, 0, 69, 55
1, 80863, Note_off_c, 0, 66, 49
1, 80986, Control_c, 0, 64, 60
1, 81000, Control_c, 0, 64, 57
1, 81014, Note_on_c, 0, 67, 58
1, 81015, Control_c, 0, 64, 51
1, 81021, Note_on_c, 0, 62, 38
1, 81030, Control_c, 0, 64, 42
1, 81044, Control_c, 0, 64, 32
1, 81059, Control_c, 0, 64, 23
1, 81074, Control_c, 0, 64, 14
1, 81085, Note_off_c, 0, 59, 24
1, 81089, Control_c, 0, 64, 0
1, 81133, Note_off_c, 0, 62, 59
1, 81148, Control_c, 0, 67, 73
1, 81156, Note_off_c, 0, 67, 60
1, 81162, Note_on_c, 0, 76, 74
1, 81165, Note_on_c, 0, 60, 56
1, 81178, Control_c, 0, 67, 74
1, 81183, Note_off_c, 0, 69, 51
1, 81222, Control_c, 0, 67, 75
1, 81311, Note_on_c, 0, 63, 43
1, 81332, Note_on_c, 0, 66, 51
1, 81431, Note_off_c, 0, 60, 55
1, 81444, Control_c, 0, 67, 75
1, 81459, Control_c, 0, 67, 76
1, 81466, Note_on_c, 0, 59, 56
1, 81475, Note_off_c, 0, 63, 48
1, 81489, Control_c, 0, 64, 51
1, 81489, Control_c, 0, 67, 76
1, 81492, Note_on_c, 0, 69, 56
1, 81504, Control_c, 0, 64, 54
1, 81504, Control_c, 0, 67, 77
1, 81518, Control_c, 0, 67, 77
1, 81526, Note_off_c, 0, 66, 56
1, 81564, Note_off_c, 0, 76, 23
1, 81624, Note_off_c, 0, 59, 54
1, 81645, Control_c, 0, 67, 78
1, 81648, Note_on_c, 0, 62, 44
1, 81653, Note_on_c, 0, 67, 59
1, 81675, Control_c, 0, 64, 53
1, 81675, Control_c, 0, 67, 78
1, 81705, Control_c, 0, 64, 52
1, 81705, Control_c, 0, 67, 79
1, 81720, Control_c, 0, 64, 43
1, 81720, Control_c, 0, 67, 79
1, 81735, Control_c, 0, 64, 0
1, 81735, Control_c, 0, 67, 80
1, 81749, Control_c, 0, 67, 83
1, 81764, Control_c, 0, 67, 85
1, 81779, Control_c, 0, 67, 88
1, 81779, Note_off_c, 0, 62, 55
1, 81789, Note_off_c, 0, 67, 60
1, 81794, Control_c, 0, 67, 92
1, 81802, Note_on_c, 0, 76, 62
1, 81809, Control_c, 0, 67, 96
1, 81816, Note_on_c, 0, 60, 39
1, 81823, Control_c, 0, 67, 99
1, 81824, Note_off_c, 0, 69, 56
1, 81838, Control_c, 0, 67, 102
1, 81853, Control_c, 0, 67, 104
1, 81867, Control_c, 0, 67, 106
1, 81882, Control_c, 0, 67, 107
1, 81897, Control_c, 0, 67, 109
1, 81912, Control_c, 0, 67, 111
1, 81927, Control_c, 0, 67, 113
1, 81941, Control_c, 0, 67, 115
1, 81954, Note_on_c, 0, 63, 35
1, 81956, Control_c, 0, 67, 118
1, 81971, Control_c, 0, 67, 120
1, 81987, Control_c, 0, 67, 122
1, 81989, Note_on_c, 0, 66, 38
1, 82001, Control_c, 0, 67, 124
1, 82016, Control_c, 0, 67, 126
1, 82031, Control_c, 0, 67, 127
1, 82061, Control_c, 0, 64, 51
1, 82075, Control_c, 0, 64, 56
1, 82090, Control_c, 0, 64, 58
1, 82098, Note_off_c, 0, 60, 35
1, 82100, Note_off_c, 0, 76, 42
1, 82103, Note_on_c, 0, 59, 47
1, 82105, Control_c, 0, 64, 60
1, 82120, Control_c, 0, 64, 62
1, 82131, Note_off_c, 0, 63, 40
1, 82135, Control_c, 0, 64, 63
1, 82138, Note_on_c, 0, 69, 43
1, 82149, Control_c, 0, 64, 64
1, 82164, Control_c, 0, 64, 65
1, 82179, Control_c, 0, 64, 65
1, 82188, Note_off_c, 0, 66, 31
1, 82247, Note_off_c, 0, 59, 50
1, 82290, Note_on_c, 0, 62, 36
1, 82295, Note_on_c, 0, 67, 44
1, 82349, Control_c, 0, 64, 64
1, 82365, Control_c, 0, 64, 58
1, 82380, Control_c, 0, 64, 0
1, 82404, Note_off_c, 0, 62, 54
1, 82409, Note_off_c, 0, 67, 60
1, 82436, Note_on_c, 0, 60, 39
1, 82441, Note_on_c, 0, 75, 50
1, 82489, Note_off_c, 0, 69, 37
1, 82603, Note_on_c, 0, 63, 27
1, 82607, Note_on_c, 0, 66, 41
1, 82677, Control_c, 0, 64, 23
1, 82691, Control_c, 0, 64, 56
1, 82706, Control_c, 0, 64, 58
1, 82707, Note_off_c, 0, 60, 41
1, 82721, Control_c, 0, 64, 61
1, 82736, Control_c, 0, 64, 62
1, 82737, Note_on_c, 0, 59, 44
1, 82751, Control_c, 0, 64, 64
1, 82753, Note_on_c, 0, 69, 42
1, 82757, Note_off_c, 0, 75, 35
1, 82760, Note_off_c, 0, 66, 37
1, 82765, Control_c, 0, 64, 65
1, 82769, Note_off_c, 0, 63, 39
1, 82780, Control_c, 0, 64, 66
1, 82795, Control_c, 0, 64, 67
1, 82810, Control_c, 0, 64, 68
1, 82824, Control_c, 0, 64, 69
1, 82839, Control_c, 0, 64, 70
1, 82854, Control_c, 0, 64, 71
1, 82869, Control_c, 0, 64, 71
1, 82894, Note_on_c, 0, 67, 53
1, 82898, Control_c, 0, 64, 72
1, 82906, Note_on_c, 0, 62, 33
1, 82928, Control_c, 0, 64, 72
1, 82932, Note_off_c, 0, 69, 27
1, 82940, Note_off_c, 0, 59, 25
1, 83018, Note_off_c, 0, 62, 48
1, 83031, Note_off_c, 0, 67, 60
1, 83031, Control_c, 0, 64, 72
1, 83046, Control_c, 0, 64, 67
1, 83052, Note_on_c, 0, 60, 49
1, 83054, Note_on_c, 0, 75, 59
1, 83061, Control_c, 0, 64, 54
1, 83076, Control_c, 0, 64, 0
1, 83215, Note_on_c, 0, 66, 64
1, 83222, Note_on_c, 0, 63, 43
1, 83324, Note_off_c, 0, 66, 55
1, 83328, Note_off_c, 0, 60, 54
1, 83332, Note_off_c, 0, 63, 56
1, 83374, Note_on_c, 0, 62, 70
1, 83375, Note_on_c, 0, 59, 72
1, 83377, Note_on_c, 0, 67, 77
1, 83380, Note_off_c, 0, 75, 53
1, 83395, Control_c, 0, 64, 59
1, 83410, Control_c, 0, 64, 65
1, 83425, Control_c, 0, 64, 67
1, 83440, Control_c, 0, 64, 68
1, 83455, Control_c, 0, 64, 70
1, 83470, Control_c, 0, 64, 72
1, 83485, Control_c, 0, 64, 74
1, 83499, Control_c, 0, 64, 74
1, 83543, Note_on_c, 0, 69, 71
1, 83547, Note_off_c, 0, 67, 61
1, 83613, Note_on_c, 0, 71, 76
1, 83615, Note_off_c, 0, 69, 61
1, 83664, Note_off_c, 0, 71, 62
1, 83677, Control_c, 0, 67, 127
1, 83690, Note_on_c, 0, 72, 74
1, 83692, Control_c, 0, 67, 126
1, 83707, Control_c, 0, 67, 125
1, 83721, Control_c, 0, 67, 124
1, 83736, Control_c, 0, 64, 73
1, 83736, Control_c, 0, 67, 123
1, 83751, Control_c, 0, 64, 71
1, 83751, Control_c, 0, 67, 122
1, 83755, Note_on_c, 0, 74, 72
1, 83759, Note_off_c, 0, 72, 60
1, 83765, Control_c, 0, 64, 65
1, 83765, Control_c, 0, 67, 120
1, 83780, Control_c, 0, 64, 39
1, 83780, Control_c, 0, 67, 119
1, 83795, Control_c, 0, 64, 0
1, 83795, Control_c, 0, 67, 117
1, 83810, Control_c, 0, 67, 117
1, 83824, Note_on_c, 0, 76, 69
1, 83825, Control_c, 0, 67, 116
1, 83847, Control_c, 0, 67, 115
1, 83867, Note_off_c, 0, 74, 61
1, 83892, Control_c, 0, 67, 115
1, 83896, Note_on_c, 0, 78, 73
1, 83904, Note_off_c, 0, 76, 58
1, 83921, Control_c, 0, 67, 114
1, 83946, Note_off_c, 0, 78, 61
1, 83975, Note_on_c, 0, 79, 74
1, 83996, Control_c, 0, 64, 58
1, 83996, Control_c, 0, 67, 114
1, 84011, Control_c, 0, 64, 63
1, 84026, Control_c, 0, 64, 64
1, 84041, Control_c, 0, 64, 66
1, 84041, Control_c, 0, 67, 113
1, 84043, Note_on_c, 0, 81, 74
1, 84056, Control_c, 0, 64, 69
1, 84057, Note_off_c, 0, 79, 61
1, 84070, Control_c, 0, 64, 72
1, 84085, Control_c, 0, 64, 75
1, 84085, Control_c, 0, 67, 113
1, 84100, Control_c, 0, 64, 77
1, 84100, Control_c, 0, 67, 112
1, 84115, Control_c, 0, 64, 79
1, 84122, Note_off_c, 0, 81, 59
1, 84125, Note_on_c, 0, 83, 75
1, 84130, Control_c, 0, 64, 80
1, 84130, Control_c, 0, 67, 112
1, 84144, Control_c, 0, 64, 82
1, 84159, Control_c, 0, 64, 83
1, 84159, Control_c, 0, 67, 111
1, 84174, Control_c, 0, 64, 84
1, 84174, Control_c, 0, 67, 111
1, 84180, Note_off_c, 0, 83, 62
1, 84188, Control_c, 0, 64, 87
1, 84188, Control_c, 0, 67, 110
1, 84193, Note_on_c, 0, 78, 69
1, 84203, Control_c, 0, 64, 88
1, 84203, Control_c, 0, 67, 109
1, 84210, Note_off_c, 0, 62, 49
1, 84218, Control_c, 0, 64, 90
1, 84218, Control_c, 0, 67, 107
1, 84233, Control_c, 0, 64, 90
1, 84233, Control_c, 0, 67, 102
1, 84245, Note_off_c, 0, 78, 58
1, 84248, Control_c, 0, 67, 96
1, 84248, Note_off_c, 0, 59, 52
1, 84255, Note_on_c, 0, 79, 79
1, 84262, Control_c, 0, 64, 91
1, 84262, Control_c, 0, 67, 89
1, 84277, Control_c, 0, 67, 81
1, 84292, Control_c, 0, 64, 91
1, 84292, Control_c, 0, 67, 73
1, 84307, Control_c, 0, 67, 67
1, 84320, Note_on_c, 0, 74, 71
1, 84322, Note_off_c, 0, 79, 64
1, 84322, Control_c, 0, 67, 63
1, 84336, Control_c, 0, 67, 58
1, 84351, Control_c, 0, 67, 54
1, 84366, Note_off_c, 0, 74, 59
1, 84366, Control_c, 0, 67, 51
1, 84380, Control_c, 0, 67, 48
1, 84395, Control_c, 0, 67, 45
1, 84397, Note_on_c, 0, 76, 77
1, 84410, Control_c, 0, 67, 41
1, 84425, Control_c, 0, 67, 33
1, 84440, Control_c, 0, 67, 26
1, 84453, Note_off_c, 0, 76, 64
1, 84455, Control_c, 0, 64, 90
1, 84455, Control_c, 0, 67, 20
1, 84469, Control_c, 0, 64, 87
1, 84469, Control_c, 0, 67, 15
1, 84476, Note_on_c, 0, 71, 75
1, 84484, Control_c, 0, 64, 82
1, 84484, Control_c, 0, 67, 10
1, 84499, Control_c, 0, 64, 75
1, 84499, Control_c, 0, 67, 0
1, 84514, Control_c, 0, 64, 64
1, 84528, Control_c, 0, 64, 0
1, 84568, Note_on_c, 0, 74, 80
1, 84573, Note_on_c, 0, 50, 50
1, 84600, Note_off_c, 0, 71, 53
1, 84669, Control_c, 0, 64, 51
1, 84684, Control_c, 0, 64, 60
1, 84699, Control_c, 0, 64, 61
1, 84713, Control_c, 0, 64, 63
1, 84728, Control_c, 0, 64, 64
1, 84743, Control_c, 0, 64, 65
1, 84759, Control_c, 0, 64, 66
1, 84772, Note_on_c, 0, 59, 46
1, 84774, Control_c, 0, 64, 67
1, 84789, Control_c, 0, 64, 68
1, 84804, Control_c, 0, 64, 69
1, 84818, Control_c, 0, 64, 70
1, 84833, Control_c, 0, 64, 71
1, 84848, Control_c, 0, 64, 72
1, 84863, Control_c, 0, 64, 73
1, 84878, Control_c, 0, 64, 74
1, 84887, Note_off_c, 0, 59, 58
1, 84892, Control_c, 0, 64, 75
1, 84907, Control_c, 0, 64, 76
1, 84922, Control_c, 0, 64, 76
1, 84925, Note_on_c, 0, 55, 46
1, 84933, Note_off_c, 0, 74, 49
1, 84952, Control_c, 0, 64, 77
1, 84966, Control_c, 0, 64, 77
1, 84981, Control_c, 0, 64, 78
1, 84996, Control_c, 0, 64, 80
1, 85011, Control_c, 0, 64, 81
1, 85026, Control_c, 0, 64, 83
1, 85028, Note_off_c, 0, 50, 60
1, 85041, Control_c, 0, 64, 85
1, 85055, Control_c, 0, 64, 87
1, 85070, Control_c, 0, 64, 88
1, 85079, Note_on_c, 0, 59, 44
1, 85085, Control_c, 0, 64, 90
1, 85100, Control_c, 0, 64, 92
1, 85115, Control_c, 0, 64, 94
1, 85129, Control_c, 0, 64, 96
1, 85144, Control_c, 0, 64, 98
1, 85159, Control_c, 0, 64, 99
1, 85174, Control_c, 0, 64, 99
1, 85230, Note_off_c, 0, 59, 45
1, 85233, Control_c, 0, 64, 91
1, 85237, Note_on_c, 0, 50, 50
1, 85239, Note_on_c, 0, 74, 57
1, 85248, Control_c, 0, 64, 75
1, 85253, Note_off_c, 0, 55, 30
1, 85263, Control_c, 0, 64, 61
1, 85277, Control_c, 0, 64, 46
1, 85288, Note_off_c, 0, 74, 59
1, 85292, Control_c, 0, 64, 49
1, 85307, Control_c, 0, 64, 56
1, 85322, Control_c, 0, 64, 61
1, 85341, Note_on_c, 0, 72, 45
1, 85344, Control_c, 0, 64, 64
1, 85359, Control_c, 0, 64, 68
1, 85365, Note_off_c, 0, 72, 56
1, 85374, Control_c, 0, 64, 72
1, 85389, Control_c, 0, 64, 76
1, 85398, Note_on_c, 0, 74, 57
1, 85404, Control_c, 0, 64, 78
1, 85418, Control_c, 0, 64, 79
1, 85419, Note_on_c, 0, 57, 41
1, 85419, Note_off_c, 0, 74, 62
1, 85433, Control_c, 0, 64, 80
1, 85444, Note_on_c, 0, 72, 62
1, 85448, Control_c, 0, 64, 80
1, 85465, Note_off_c, 0, 72, 61
1, 85478, Control_c, 0, 64, 81
1, 85485, Note_on_c, 0, 74, 76
1, 85492, Control_c, 0, 64, 81
1, 85511, Note_off_c, 0, 74, 64
1, 85535, Note_on_c, 0, 72, 70
1, 85548, Note_off_c, 0, 57, 37
1, 85562, Note_off_c, 0, 72, 64
1, 85562, Note_on_c, 0, 54, 44
1, 85567, Control_c, 0, 64, 82
1, 85583, Note_on_c, 0, 74, 78
1, 85619, Note_off_c, 0, 50, 59
1, 85627, Note_off_c, 0, 74, 58
1, 85628, Note_on_c, 0, 72, 71
1, 85655, Note_off_c, 0, 54, 61
1, 85693, Note_off_c, 0, 72, 60
1, 85700, Note_on_c, 0, 57, 41
1, 85715, Control_c, 0, 64, 81
1, 85718, Note_on_c, 0, 71, 66
1, 85751, Note_off_c, 0, 71, 61
1, 85759, Control_c, 0, 64, 80
1, 85771, Note_on_c, 0, 72, 59
1, 85774, Control_c, 0, 64, 79
1, 85789, Control_c, 0, 64, 78
1, 85804, Control_c, 0, 64, 76
1, 85819, Control_c, 0, 64, 73
1, 85833, Control_c, 0, 64, 69
1, 85848, Control_c, 0, 64, 65
1, 85863, Control_c, 0, 64, 60
1, 85874, Note_off_c, 0, 72, 58
1, 85875, Note_on_c, 0, 71, 50
1, 85878, Control_c, 0, 64, 57
1, 85893, Control_c, 0, 64, 56
1, 85901, Note_off_c, 0, 57, 54
1, 85908, Control_c, 0, 64, 55
1, 85923, Control_c, 0, 64, 54
1, 85928, Note_on_c, 0, 55, 41
1, 85938, Control_c, 0, 64, 48
1, 85952, Control_c, 0, 64, 36
1, 85967, Control_c, 0, 64, 12
1, 85982, Control_c, 0, 64, 0
1, 86105, Note_on_c, 0, 59, 40
1, 86214, Note_off_c, 0, 59, 60
1, 86248, Note_off_c, 0, 71, 58
1, 86270, Note_on_c, 0, 62, 35
1, 86396, Note_off_c, 0, 55, 59
1, 86436, Note_on_c, 0, 59, 40
1, 86650, Note_on_c, 0, 55, 21
1, 86765, Note_off_c, 0, 59, 36
1, 86805, Note_off_c, 0, 55, 43
1, 86832, Note_off_c, 0, 62, 50
1, 86862, Note_on_c, 0, 69, 50
1, 86916, Note_on_c, 0, 67, 51
1, 86922, Note_off_c, 0, 69, 51
1, 86939, Note_off_c, 0, 67, 59
1, 86947, Note_on_c, 0, 66, 58
1, 86978, Note_off_c, 0, 66, 64
1, 87017, Note_on_c, 0, 67, 52
1, 87040, Note_off_c, 0, 67, 59
1, 87180, Note_on_c, 0, 71, 50
1, 87202, Note_off_c, 0, 71, 59
1, 87345, Control_c, 0, 64, 53
1, 87359, Note_on_c, 0, 55, 45
1, 87360, Control_c, 0, 64, 60
1, 87367, Note_on_c, 0, 76, 53
1, 87375, Control_c, 0, 64, 63
1, 87390, Control_c, 0, 64, 66
1, 87404, Control_c, 0, 64, 69
1, 87419, Control_c, 0, 64, 73
1, 87434, Control_c, 0, 64, 77
1, 87449, Control_c, 0, 64, 81
1, 87464, Control_c, 0, 64, 85
1, 87479, Control_c, 0, 64, 89
1, 87494, Control_c, 0, 64, 93
1, 87509, Control_c, 0, 64, 95
1, 87522, Note_on_c, 0, 59, 40
1, 87524, Control_c, 0, 64, 97
1, 87538, Control_c, 0, 64, 99
1, 87553, Control_c, 0, 64, 101
1, 87568, Control_c, 0, 64, 103
1, 87590, Control_c, 0, 64, 104
1, 87605, Control_c, 0, 64, 104
1, 87634, Control_c, 0, 64, 105
1, 87676, Note_on_c, 0, 74, 52
1, 87679, Note_off_c, 0, 59, 32
1, 87692, Note_off_c, 0, 76, 35
1, 87697, Note_on_c, 0, 62, 40
1, 87737, Note_off_c, 0, 74, 52
1, 87819, Note_on_c, 0, 59, 46
1, 87823, Note_off_c, 0, 55, 40
1, 87989, Note_on_c, 0, 55, 56
1, 87991, Control_c, 0, 64, 102
1, 88006, Control_c, 0, 64, 89
1, 88014, Note_off_c, 0, 59, 35
1, 88021, Control_c, 0, 64, 72
1, 88035, Control_c, 0, 64, 47
1, 88042, Note_off_c, 0, 55, 56
1, 88050, Control_c, 0, 64, 0
1, 88066, Note_off_c, 0, 62, 52
1, 88191, Note_on_c, 0, 72, 47
1, 88218, Note_on_c, 0, 71, 62
1, 88226, Note_off_c, 0, 72, 53
1, 88260, Note_off_c, 0, 71, 57
1, 88268, Note_on_c, 0, 69, 58
1, 88299, Note_off_c, 0, 69, 62
1, 88312, Note_on_c, 0, 71, 72
1, 88349, Note_off_c, 0, 71, 65
1, 88479, Note_on_c, 0, 74, 79
1, 88505, Note_off_c, 0, 74, 66
1, 88671, Note_on_c, 0, 79, 83
1, 88675, Note_on_c, 0, 55, 58
1, 88679, Control_c, 0, 64, 56
1, 88694, Control_c, 0, 64, 63
1, 88709, Control_c, 0, 64, 66
1, 88725, Control_c, 0, 64, 70
1, 88740, Control_c, 0, 64, 76
1, 88755, Control_c, 0, 64, 84
1, 88770, Control_c, 0, 64, 93
1, 88785, Control_c, 0, 64, 107
1, 88799, Control_c, 0, 64, 127
1, 88842, Note_on_c, 0, 59, 58
1, 88960, Note_off_c, 0, 59, 59
1, 88978, Note_on_c, 0, 77, 79
1, 88981, Note_on_c, 0, 62, 66
1, 89020, Note_off_c, 0, 79, 62
1, 89040, Note_on_c, 0, 76, 27
1, 89053, Note_off_c, 0, 77, 61
1, 89081, Note_off_c, 0, 76, 55
1, 89121, Note_off_c, 0, 55, 59
1, 89126, Note_on_c, 0, 59, 61
1, 89291, Note_on_c, 0, 55, 67
1, 89294, Note_off_c, 0, 59, 59
1, 89370, Note_off_c, 0, 55, 60
1, 89370, Control_c, 0, 64, 82
1, 89383, Note_off_c, 0, 62, 58
1, 89384, Control_c, 0, 64, 63
1, 89399, Control_c, 0, 64, 0
1, 89435, Note_on_c, 0, 76, 56
1, 89483, Note_on_c, 0, 74, 58
1, 89512, Note_off_c, 0, 76, 41
1, 89523, Note_off_c, 0, 74, 61
1, 89524, Note_on_c, 0, 73, 62
1, 89557, Note_off_c, 0, 73, 65
1, 89601, Note_on_c, 0, 74, 50
1, 89667, Note_off_c, 0, 74, 43
1, 89804, Note_on_c, 0, 77, 43
1, 90025, Note_off_c, 0, 77, 47
1, 90047, Note_on_c, 0, 56, 37
1, 90057, Note_on_c, 0, 84, 49
1, 90104, Control_c, 0, 64, 33
1, 90119, Control_c, 0, 64, 47
1, 90133, Control_c, 0, 64, 52
1, 90148, Control_c, 0, 64, 56
1, 90163, Control_c, 0, 64, 59
1, 90178, Control_c, 0, 64, 61
1, 90193, Control_c, 0, 64, 62
1, 90207, Control_c, 0, 64, 63
1, 90221, Control_c, 0, 64, 64
1, 90236, Control_c, 0, 64, 64
1, 90248, Note_off_c, 0, 84, 62
1, 90251, Control_c, 0, 64, 65
1, 90266, Control_c, 0, 64, 66
1, 90266, Note_on_c, 0, 83, 56
1, 90281, Control_c, 0, 64, 66
1, 90296, Control_c, 0, 64, 67
1, 90311, Control_c, 0, 64, 67
1, 90325, Control_c, 0, 64, 68
1, 90340, Control_c, 0, 64, 68
1, 90356, Control_c, 0, 64, 69
1, 90370, Control_c, 0, 64, 70
1, 90385, Control_c, 0, 64, 71
1, 90400, Control_c, 0, 64, 71
1, 90412, Note_on_c, 0, 59, 50
1, 90415, Control_c, 0, 64, 72
1, 90430, Control_c, 0, 64, 73
1, 90445, Control_c, 0, 64, 73
1, 90460, Control_c, 0, 64, 74
1, 90469, Note_off_c, 0, 56, 28
1, 90474, Control_c, 0, 64, 74
1, 90489, Control_c, 0, 64, 75
1, 90504, Control_c, 0, 64, 75
1, 90534, Control_c, 0, 64, 76
1, 90549, Control_c, 0, 64, 76
1, 90563, Control_c, 0, 64, 77
1, 90566, Note_on_c, 0, 86, 75
1, 90600, Control_c, 0, 64, 77
1, 90603, Note_off_c, 0, 83, 58
1, 90630, Control_c, 0, 64, 78
1, 90674, Control_c, 0, 64, 78
1, 90719, Control_c, 0, 64, 79
1, 90745, Note_on_c, 0, 62, 64
1, 90763, Control_c, 0, 64, 79
1, 90789, Note_off_c, 0, 59, 31
1, 90822, Control_c, 0, 64, 80
1, 90852, Control_c, 0, 64, 80
1, 90896, Control_c, 0, 64, 81
1, 90902, Note_on_c, 0, 80, 77
1, 90925, Note_off_c, 0, 86, 65
1, 90926, Control_c, 0, 64, 81
1, 90985, Control_c, 0, 64, 82
1, 91044, Control_c, 0, 64, 82
1, 91067, Note_on_c, 0, 65, 70
1, 91104, Control_c, 0, 64, 83
1, 91130, Note_off_c, 0, 62, 37
1, 91149, Control_c, 0, 64, 83
1, 91178, Control_c, 0, 64, 84
1, 91220, Note_on_c, 0, 83, 79
1, 91238, Control_c, 0, 64, 84
1, 91253, Control_c, 0, 64, 85
1, 91283, Control_c, 0, 64, 85
1, 91312, Control_c, 0, 64, 86
1, 91349, Control_c, 0, 64, 86
1, 91357, Note_off_c, 0, 80, 28
1, 91364, Control_c, 0, 64, 87
1, 91371, Note_off_c, 0, 65, 52
1, 91387, Note_on_c, 0, 62, 65
1, 91438, Control_c, 0, 64, 85
1, 91452, Control_c, 0, 64, 76
1, 91467, Control_c, 0, 64, 67
1, 91482, Control_c, 0, 64, 59
1, 91497, Control_c, 0, 64, 58
1, 91512, Control_c, 0, 64, 59
1, 91527, Control_c, 0, 64, 61
1, 91542, Control_c, 0, 64, 64
1, 91548, Note_on_c, 0, 74, 75
1, 91557, Control_c, 0, 64, 67
1, 91569, Note_off_c, 0, 83, 63
1, 91571, Control_c, 0, 64, 70
1, 91586, Control_c, 0, 64, 73
1, 91601, Control_c, 0, 64, 75
1, 91616, Control_c, 0, 64, 76
1, 91630, Control_c, 0, 64, 77
1, 91645, Control_c, 0, 64, 77
1, 91660, Control_c, 0, 64, 78
1, 91697, Note_off_c, 0, 62, 55
1, 91704, Control_c, 0, 64, 78
1, 91708, Note_on_c, 0, 59, 51
1, 91866, Note_on_c, 0, 77, 66
1, 91882, Note_off_c, 0, 74, 56
1, 92052, Note_off_c, 0, 59, 31
1, 92061, Control_c, 0, 64, 73
1, 92061, Control_c, 0, 67, 9
1, 92073, Note_on_c, 0, 56, 37
1, 92083, Control_c, 0, 64, 63
1, 92083, Control_c, 0, 67, 10
1, 92098, Control_c, 0, 64, 16
1, 92098, Control_c, 0, 67, 11
1, 92113, Control_c, 0, 64, 0
1, 92113, Control_c, 0, 67, 12
1, 92127, Control_c, 0, 67, 13
1, 92142, Control_c, 0, 64, 28
1, 92142, Control_c, 0, 67, 14
1, 92157, Control_c, 0, 64, 48
1, 92157, Control_c, 0, 67, 16
1, 92172, Control_c, 0, 64, 59
1, 92172, Control_c, 0, 67, 18
1, 92187, Control_c, 0, 64, 64
1, 92187, Control_c, 0, 67, 21
1, 92201, Control_c, 0, 64, 67
1, 92201, Control_c, 0, 67, 24
1, 92216, Control_c, 0, 64, 69
1, 92216, Control_c, 0, 67, 25
1, 92221, Note_on_c, 0, 76, 54
1, 92222, Note_off_c, 0, 77, 57
1, 92231, Control_c, 0, 64, 72
1, 92231, Control_c, 0, 67, 27
1, 92246, Control_c, 0, 64, 74
1, 92246, Control_c, 0, 67, 28
1, 92260, Control_c, 0, 64, 75
1, 92260, Control_c, 0, 67, 29
1, 92275, Control_c, 0, 64, 75
1, 92275, Control_c, 0, 67, 30
1, 92290, Control_c, 0, 64, 76
1, 92290, Control_c, 0, 67, 31
1, 92305, Control_c, 0, 67, 33
1, 92320, Control_c, 0, 64, 77
1, 92320, Control_c, 0, 67, 36
1, 92331, Note_off_c, 0, 56, 30
1, 92335, Control_c, 0, 64, 77
1, 92335, Control_c, 0, 67, 39
1, 92350, Control_c, 0, 64, 78
1, 92350, Control_c, 0, 67, 43
1, 92365, Control_c, 0, 64, 78
1, 92365, Control_c, 0, 67, 47
1, 92380, Control_c, 0, 67, 52
1, 92385, Note_on_c, 0, 64, 41
1, 92394, Control_c, 0, 67, 56
1, 92409, Control_c, 0, 67, 60
1, 92424, Control_c, 0, 67, 63
1, 92439, Control_c, 0, 64, 79
1, 92439, Control_c, 0, 67, 66
1, 92453, Control_c, 0, 67, 67
1, 92469, Control_c, 0, 67, 69
1, 92484, Control_c, 0, 67, 70
1, 92499, Control_c, 0, 67, 72
1, 92514, Control_c, 0, 67, 73
1, 92523, Note_off_c, 0, 76, 49
1, 92528, Control_c, 0, 67, 74
1, 92533, Note_on_c, 0, 74, 49
1, 92543, Control_c, 0, 67, 75
1, 92558, Control_c, 0, 67, 76
1, 92676, Control_c, 0, 64, 77
1, 92691, Control_c, 0, 64, 70
1, 92699, Note_off_c, 0, 74, 60
1, 92706, Control_c, 0, 64, 56
1, 92720, Control_c, 0, 64, 0
1, 92737, Note_on_c, 0, 72, 40
1, 92740, Note_on_c, 0, 57, 27
1, 92761, Note_off_c, 0, 64, 32
1, 92811, Control_c, 0, 64, 23
1, 92811, Control_c, 0, 67, 75
1, 92833, Control_c, 0, 64, 58
1, 92848, Control_c, 0, 64, 64
1, 92862, Control_c, 0, 64, 64
1, 92877, Control_c, 0, 64, 65
1, 92877, Control_c, 0, 67, 75
1, 92892, Control_c, 0, 64, 67
1, 92907, Control_c, 0, 64, 68
1, 92907, Control_c, 0, 67, 74
1, 92912, Note_on_c, 0, 60, 31
1, 92922, Control_c, 0, 64, 70
1, 92937, Control_c, 0, 64, 71
1, 92937, Control_c, 0, 67, 73
1, 92951, Control_c, 0, 64, 72
1, 92951, Control_c, 0, 67, 73
1, 92966, Control_c, 0, 64, 73
1, 92981, Control_c, 0, 64, 74
1, 92981, Control_c, 0, 67, 72
1, 92996, Control_c, 0, 64, 75
1, 93011, Control_c, 0, 64, 76
1, 93011, Control_c, 0, 67, 72
1, 93021, Note_off_c, 0, 60, 31
1, 93025, Control_c, 0, 64, 77
1, 93040, Control_c, 0, 64, 78
1, 93040, Control_c, 0, 67, 71
1, 93055, Control_c, 0, 64, 78
1, 93070, Note_on_c, 0, 64, 36
1, 93084, Control_c, 0, 64, 79
1, 93084, Control_c, 0, 67, 71
1, 93099, Control_c, 0, 64, 79
1, 93099, Control_c, 0, 67, 70
1, 93129, Control_c, 0, 64, 80
1, 93144, Control_c, 0, 67, 70
1, 93158, Control_c, 0, 64, 80
1, 93173, Control_c, 0, 67, 69
1, 93188, Control_c, 0, 67, 69
1, 93202, Control_c, 0, 64, 81
1, 93203, Note_off_c, 0, 57, 39
1, 93224, Note_on_c, 0, 60, 31
1, 93232, Control_c, 0, 64, 81
1, 93232, Control_c, 0, 67, 68
1, 93336, Control_c, 0, 64, 78
1, 93351, Control_c, 0, 64, 70
1, 93351, Note_off_c, 0, 60, 34
1, 93366, Control_c, 0, 64, 57
1, 93368, Note_off_c, 0, 64, 37
1, 93381, Control_c, 0, 64, 37
1, 93386, Note_on_c, 0, 57, 33
1, 93395, Control_c, 0, 64, 40
1, 93410, Control_c, 0, 64, 47
1, 93410, Control_c, 0, 67, 68
1, 93425, Control_c, 0, 64, 56
1, 93425, Control_c, 0, 67, 67
1, 93429, Note_off_c, 0, 72, 61
1, 93440, Control_c, 0, 64, 62
1, 93455, Control_c, 0, 64, 65
1, 93455, Control_c, 0, 67, 67
1, 93469, Control_c, 0, 64, 68
1, 93484, Control_c, 0, 64, 70
1, 93484, Control_c, 0, 67, 66
1, 93499, Control_c, 0, 64, 72
1, 93499, Control_c, 0, 67, 65
1, 93514, Control_c, 0, 64, 73
1, 93514, Control_c, 0, 67, 64
1, 93529, Control_c, 0, 64, 74
1, 93529, Control_c, 0, 67, 64
1, 93545, Control_c, 0, 64, 75
1, 93545, Control_c, 0, 67, 63
1, 93550, Note_on_c, 0, 74, 43
1, 93560, Control_c, 0, 64, 76
1, 93560, Control_c, 0, 67, 61
1, 93563, Note_on_c, 0, 60, 35
1, 93581, Control_c, 0, 64, 76
1, 93581, Control_c, 0, 67, 58
1, 93589, Note_on_c, 0, 72, 56
1, 93596, Control_c, 0, 67, 56
1, 93602, Note_off_c, 0, 74, 59
1, 93611, Control_c, 0, 64, 77
1, 93611, Control_c, 0, 67, 54
1, 93626, Control_c, 0, 67, 51
1, 93626, Note_off_c, 0, 72, 62
1, 93640, Control_c, 0, 67, 49
1, 93642, Note_on_c, 0, 71, 56
1, 93655, Control_c, 0, 64, 77
1, 93655, Control_c, 0, 67, 48
1, 93659, Note_off_c, 0, 60, 56
1, 93670, Control_c, 0, 67, 47
1, 93673, Note_off_c, 0, 71, 65
1, 93707, Note_on_c, 0, 72, 59
1, 93719, Note_on_c, 0, 65, 43
1, 93774, Control_c, 0, 67, 48
1, 93818, Control_c, 0, 67, 48
1, 93835, Note_off_c, 0, 57, 41
1, 93847, Note_on_c, 0, 60, 39
1, 93857, Note_on_c, 0, 74, 58
1, 93863, Note_off_c, 0, 72, 37
1, 93863, Control_c, 0, 67, 49
1, 94011, Control_c, 0, 64, 77
1, 94019, Note_off_c, 0, 60, 32
1, 94025, Note_off_c, 0, 74, 57
1, 94025, Control_c, 0, 64, 73
1, 94040, Control_c, 0, 64, 65
1, 94043, Note_on_c, 0, 72, 43
1, 94043, Note_on_c, 0, 55, 40
1, 94055, Control_c, 0, 64, 41
1, 94070, Control_c, 0, 64, 0
1, 94079, Note_off_c, 0, 65, 28
1, 94129, Control_c, 0, 64, 45
1, 94144, Control_c, 0, 64, 59
1, 94159, Control_c, 0, 64, 63
1, 94174, Control_c, 0, 64, 65
1, 94189, Control_c, 0, 64, 67
1, 94204, Control_c, 0, 64, 68
1, 94218, Control_c, 0, 64, 70
1, 94233, Control_c, 0, 64, 71
1, 94234, Note_on_c, 0, 62, 35
1, 94248, Control_c, 0, 64, 72
1, 94263, Control_c, 0, 64, 74
1, 94278, Control_c, 0, 64, 74
1, 94292, Control_c, 0, 64, 75
1, 94307, Control_c, 0, 64, 76
1, 94329, Control_c, 0, 64, 76
1, 94345, Control_c, 0, 64, 77
1, 94360, Control_c, 0, 64, 77
1, 94373, Note_off_c, 0, 62, 58
1, 94375, Control_c, 0, 64, 78
1, 94390, Control_c, 0, 64, 78
1, 94393, Note_on_c, 0, 65, 50
1, 94419, Control_c, 0, 64, 79
1, 94493, Note_off_c, 0, 55, 62
1, 94493, Control_c, 0, 64, 79
1, 94517, Note_on_c, 0, 62, 53
1, 94523, Control_c, 0, 64, 80
1, 94538, Control_c, 0, 64, 80
1, 94553, Control_c, 0, 64, 81
1, 94568, Control_c, 0, 64, 83
1, 94578, Note_off_c, 0, 72, 15
1, 94582, Control_c, 0, 64, 84
1, 94597, Control_c, 0, 64, 85
1, 94597, Control_c, 0, 67, 49
1, 94612, Control_c, 0, 64, 85
1, 94627, Control_c, 0, 64, 86
1, 94641, Control_c, 0, 67, 50
1, 94656, Control_c, 0, 67, 50
1, 94669, Note_off_c, 0, 62, 57
1, 94671, Control_c, 0, 64, 85
1, 94671, Control_c, 0, 67, 51
1, 94686, Control_c, 0, 64, 76
1, 94686, Control_c, 0, 67, 52
1, 94701, Control_c, 0, 64, 65
1, 94701, Control_c, 0, 67, 52
1, 94702, Note_on_c, 0, 55, 41
1, 94703, Note_on_c, 0, 72, 52
1, 94714, Control_c, 0, 64, 46
1, 94726, Note_off_c, 0, 65, 35
1, 94729, Control_c, 0, 64, 47
1, 94729, Control_c, 0, 67, 53
1, 94744, Control_c, 0, 64, 53
1, 94744, Control_c, 0, 67, 53
1, 94758, Note_off_c, 0, 72, 56
1, 94759, Control_c, 0, 64, 60
1, 94773, Control_c, 0, 64, 64
1, 94773, Control_c, 0, 67, 54
1, 94788, Control_c, 0, 64, 68
1, 94788, Control_c, 0, 67, 54
1, 94801, Note_on_c, 0, 70, 43
1, 94803, Control_c, 0, 64, 72
1, 94818, Control_c, 0, 64, 76
1, 94830, Note_off_c, 0, 70, 55
1, 94833, Control_c, 0, 64, 79
1, 94848, Control_c, 0, 64, 82
1, 94863, Control_c, 0, 64, 84
1, 94870, Note_on_c, 0, 72, 48
1, 94875, Note_on_c, 0, 60, 52
1, 94878, Control_c, 0, 64, 87
1, 94892, Control_c, 0, 64, 91
1, 94893, Note_off_c, 0, 72, 58
1, 94907, Control_c, 0, 64, 95
1, 94922, Control_c, 0, 64, 98
1, 94928, Note_on_c, 0, 70, 42
1, 94937, Control_c, 0, 64, 102
1, 94952, Control_c, 0, 64, 105
1, 94957, Note_off_c, 0, 70, 54
1, 94962, Note_on_c, 0, 72, 68
1, 94966, Control_c, 0, 64, 108
1, 94975, Note_off_c, 0, 60, 59
1, 94981, Control_c, 0, 64, 111
1, 94992, Note_off_c, 0, 72, 65
1, 94996, Control_c, 0, 64, 115
1, 94999, Note_on_c, 0, 64, 57
1, 95008, Note_on_c, 0, 70, 59
1, 95011, Control_c, 0, 64, 124
1, 95026, Control_c, 0, 64, 127
1, 95033, Note_off_c, 0, 70, 59
1, 95067, Note_on_c, 0, 72, 65
1, 95097, Note_off_c, 0, 72, 60
1, 95113, Note_off_c, 0, 55, 51
1, 95123, Note_on_c, 0, 70, 65
1, 95135, Note_on_c, 0, 60, 52
1, 95153, Note_off_c, 0, 70, 65
1, 95169, Note_on_c, 0, 69, 72
1, 95237, Note_off_c, 0, 69, 59
1, 95241, Control_c, 0, 67, 54
1, 95244, Note_on_c, 0, 70, 70
1, 95271, Control_c, 0, 67, 53
1, 95286, Control_c, 0, 67, 52
1, 95298, Note_off_c, 0, 70, 57
1, 95301, Control_c, 0, 64, 85
1, 95316, Control_c, 0, 64, 63
1, 95323, Note_on_c, 0, 69, 69
1, 95331, Control_c, 0, 64, 28
1, 95331, Control_c, 0, 67, 51
1, 95331, Note_on_c, 0, 53, 56
1, 95332, Note_off_c, 0, 60, 55
1, 95343, Note_off_c, 0, 64, 43
1, 95345, Control_c, 0, 67, 50
1, 95360, Control_c, 0, 64, 44
1, 95360, Control_c, 0, 67, 49
1, 95375, Control_c, 0, 64, 59
1, 95375, Control_c, 0, 67, 47
1, 95389, Control_c, 0, 64, 65
1, 95389, Control_c, 0, 67, 47
1, 95404, Control_c, 0, 64, 71
1, 95404, Control_c, 0, 67, 46
1, 95419, Control_c, 0, 64, 78
1, 95419, Control_c, 0, 67, 46
1, 95434, Control_c, 0, 64, 83
1, 95449, Control_c, 0, 64, 86
1, 95463, Control_c, 0, 64, 88
1, 95463, Control_c, 0, 67, 45
1, 95478, Control_c, 0, 64, 91
1, 95478, Control_c, 0, 67, 44
1, 95488, Note_off_c, 0, 69, 58
1, 95490, Note_on_c, 0, 60, 62
1, 95493, Control_c, 0, 64, 93
1, 95493, Control_c, 0, 67, 42
1, 95501, Note_on_c, 0, 72, 75
1, 95508, Control_c, 0, 64, 94
1, 95508, Control_c, 0, 67, 39
1, 95523, Control_c, 0, 64, 96
1, 95523, Control_c, 0, 67, 36
1, 95537, Control_c, 0, 64, 97
1, 95537, Control_c, 0, 67, 34
1, 95552, Control_c, 0, 64, 98
1, 95552, Control_c, 0, 67, 33
1, 95567, Control_c, 0, 64, 99
1, 95567, Control_c, 0, 67, 32
1, 95582, Control_c, 0, 64, 101
1, 95596, Control_c, 0, 64, 101
1, 95611, Control_c, 0, 64, 102
1, 95611, Control_c, 0, 67, 32
1, 95626, Control_c, 0, 64, 102
1, 95626, Control_c, 0, 67, 31
1, 95641, Control_c, 0, 64, 103
1, 95641, Control_c, 0, 67, 31
1, 95644, Note_off_c, 0, 60, 56
1, 95653, Note_on_c, 0, 65, 69
1, 95656, Control_c, 0, 64, 104
1, 95656, Control_c, 0, 67, 30
1, 95670, Control_c, 0, 67, 29
1, 95685, Control_c, 0, 64, 105
1, 95700, Control_c, 0, 64, 105
1, 95700, Control_c, 0, 67, 28
1, 95715, Control_c, 0, 64, 106
1, 95715, Control_c, 0, 67, 26
1, 95730, Control_c, 0, 64, 107
1, 95730, Control_c, 0, 67, 23
1, 95745, Control_c, 0, 64, 107
1, 95745, Control_c, 0, 67, 20
1, 95760, Control_c, 0, 64, 108
1, 95760, Control_c, 0, 67, 16
1, 95775, Control_c, 0, 64, 108
1, 95775, Control_c, 0, 67, 13
1, 95789, Control_c, 0, 67, 10
1, 95796, Note_on_c, 0, 77, 82
1, 95804, Control_c, 0, 64, 109
1, 95804, Control_c, 0, 67, 0
1, 95807, Note_on_c, 0, 60, 58
1, 95825, Note_off_c, 0, 53, 38
1, 95841, Control_c, 0, 64, 109
1, 95856, Control_c, 0, 64, 110
1, 95870, Control_c, 0, 64, 110
1, 95885, Control_c, 0, 64, 112
1, 95886, Note_off_c, 0, 72, 50
1, 95900, Control_c, 0, 64, 113
1, 95915, Control_c, 0, 64, 116
1, 95930, Control_c, 0, 64, 118
1, 95946, Control_c, 0, 64, 127
1, 95963, Note_on_c, 0, 53, 68
1, 95975, Note_off_c, 0, 65, 36
1, 95992, Note_off_c, 0, 60, 55
1, 96034, Control_c, 0, 64, 101
1, 96049, Control_c, 0, 64, 82
1, 96064, Control_c, 0, 64, 67
1, 96079, Control_c, 0, 64, 57
1, 96109, Control_c, 0, 64, 62
1, 96124, Control_c, 0, 64, 65
1, 96134, Note_on_c, 0, 81, 81
1, 96138, Note_on_c, 0, 57, 62
1, 96138, Control_c, 0, 64, 70
1, 96153, Control_c, 0, 64, 77
1, 96167, Note_off_c, 0, 77, 63
1, 96168, Control_c, 0, 64, 83
1, 96183, Control_c, 0, 64, 85
1, 96198, Control_c, 0, 64, 87
1, 96213, Control_c, 0, 64, 89
1, 96228, Control_c, 0, 64, 90
1, 96243, Control_c, 0, 64, 91
1, 96258, Control_c, 0, 64, 92
1, 96270, Note_off_c, 0, 57, 61
1, 96273, Control_c, 0, 64, 92
1, 96287, Control_c, 0, 64, 93
1, 96299, Note_on_c, 0, 62, 62
1, 96302, Control_c, 0, 64, 94
1, 96317, Control_c, 0, 64, 95
1, 96332, Control_c, 0, 64, 96
1, 96347, Control_c, 0, 64, 96
1, 96376, Control_c, 0, 64, 97
1, 96406, Control_c, 0, 64, 98
1, 96420, Control_c, 0, 64, 98
1, 96448, Note_off_c, 0, 53, 61
1, 96450, Control_c, 0, 64, 99
1, 96494, Control_c, 0, 64, 99
1, 96495, Note_on_c, 0, 57, 44
1, 96495, Note_on_c, 0, 82, 83
1, 96517, Note_off_c, 0, 81, 59
1, 96553, Control_c, 0, 64, 100
1, 96576, Control_c, 0, 64, 100
1, 96606, Control_c, 0, 64, 101
1, 96650, Control_c, 0, 64, 101
1, 96680, Control_c, 0, 64, 102
1, 96800, Note_on_c, 0, 81, 71
1, 96806, Note_off_c, 0, 57, 37
1, 96813, Note_off_c, 0, 82, 51
1, 96827, Note_on_c, 0, 52, 48
1, 96829, Control_c, 0, 64, 99
1, 96843, Control_c, 0, 64, 89
1, 96852, Note_off_c, 0, 62, 51
1, 96858, Control_c, 0, 64, 74
1, 96873, Control_c, 0, 64, 61
1, 96873, Control_c, 0, 67, 8
1, 96888, Control_c, 0, 64, 37
1, 96888, Control_c, 0, 67, 12
1, 96903, Control_c, 0, 64, 38
1, 96903, Control_c, 0, 67, 16
1, 96917, Control_c, 0, 64, 41
1, 96917, Control_c, 0, 67, 22
1, 96932, Control_c, 0, 64, 46
1, 96932, Control_c, 0, 67, 27
1, 96947, Control_c, 0, 64, 54
1, 96947, Control_c, 0, 67, 33
1, 96961, Control_c, 0, 64, 60
1, 96961, Control_c, 0, 67, 39
1, 96976, Control_c, 0, 64, 64
1, 96976, Control_c, 0, 67, 44
1, 96991, Control_c, 0, 64, 67
1, 96991, Control_c, 0, 67, 48
1, 97006, Control_c, 0, 64, 71
1, 97006, Control_c, 0, 67, 52
1, 97021, Control_c, 0, 64, 75
1, 97021, Control_c, 0, 67, 55
1, 97036, Control_c, 0, 64, 78
1, 97036, Control_c, 0, 67, 58
1, 97051, Control_c, 0, 64, 79
1, 97051, Control_c, 0, 67, 61
1, 97066, Control_c, 0, 64, 80
1, 97066, Control_c, 0, 67, 63
1, 97080, Control_c, 0, 64, 81
1, 97080, Control_c, 0, 67, 65
1, 97082, Note_on_c, 0, 57, 41
1, 97095, Control_c, 0, 64, 83
1, 97095, Control_c, 0, 67, 66
1, 97110, Control_c, 0, 64, 84
1, 97110, Control_c, 0, 67, 67
1, 97125, Control_c, 0, 64, 85
1, 97125, Control_c, 0, 67, 68
1, 97140, Control_c, 0, 64, 85
1, 97140, Control_c, 0, 67, 68
1, 97155, Control_c, 0, 67, 69
1, 97169, Control_c, 0, 64, 86
1, 97199, Control_c, 0, 64, 86
1, 97214, Control_c, 0, 64, 87
1, 97231, Note_off_c, 0, 57, 54
1, 97243, Control_c, 0, 64, 87
1, 97259, Note_on_c, 0, 61, 43
1, 97273, Control_c, 0, 64, 88
1, 97325, Control_c, 0, 64, 88
1, 97369, Control_c, 0, 64, 89
1, 97391, Note_off_c, 0, 52, 58
1, 97426, Note_on_c, 0, 57, 36
1, 97434, Note_off_c, 0, 61, 0
1, 97471, Poly_aftertouch_c, 0, 61, 127
1, 97473, Control_c, 0, 64, 89
1, 97517, Control_c, 0, 64, 90
1, 97573, Poly_aftertouch_c, 0, 61, 0
1, 97578, Control_c, 0, 64, 87
1, 97581, Note_on_c, 0, 79, 61
1, 97587, Note_on_c, 0, 52, 47
1, 97592, Control_c, 0, 64, 74
1, 97592, Control_c, 0, 67, 69
1, 97607, Control_c, 0, 64, 63
1, 97607, Control_c, 0, 67, 70
1, 97608, Note_off_c, 0, 57, 33
1, 97622, Control_c, 0, 64, 48
1, 97622, Control_c, 0, 67, 72
1, 97623, Note_off_c, 0, 81, 56
1, 97637, Control_c, 0, 64, 45
1, 97637, Control_c, 0, 67, 74
1, 97652, Control_c, 0, 64, 46
1, 97652, Control_c, 0, 67, 77
1, 97666, Control_c, 0, 64, 50
1, 97666, Control_c, 0, 67, 81
1, 97681, Control_c, 0, 64, 59
1, 97681, Control_c, 0, 67, 83
1, 97696, Control_c, 0, 64, 64
1, 97696, Control_c, 0, 67, 85
1, 97711, Control_c, 0, 64, 67
1, 97711, Control_c, 0, 67, 87
1, 97726, Control_c, 0, 64, 72
1, 97726, Control_c, 0, 67, 88
1, 97740, Control_c, 0, 64, 77
1, 97740, Control_c, 0, 67, 89
1, 97742, Note_on_c, 0, 57, 44
1, 97755, Control_c, 0, 64, 81
1, 97770, Control_c, 0, 64, 82
1, 97785, Control_c, 0, 64, 83
1, 97799, Control_c, 0, 64, 85
1, 97814, Control_c, 0, 64, 86
1, 97829, Control_c, 0, 64, 87
1, 97844, Control_c, 0, 64, 88
1, 97859, Control_c, 0, 64, 89
1, 97888, Control_c, 0, 64, 89
1, 97902, Note_off_c, 0, 79, 54
1, 97903, Control_c, 0, 64, 90
1, 97907, Note_off_c, 0, 57, 34
1, 97921, Note_on_c, 0, 61, 46
1, 97992, Control_c, 0, 64, 90
1, 98016, Note_off_c, 0, 52, 49
1, 98049, Note_off_c, 0, 61, 33
1, 98055, Note_on_c, 0, 57, 40
1, 98252, Control_c, 0, 67, 90
1, 98266, Control_c, 0, 67, 90
1, 98272, Note_on_c, 0, 79, 63
1, 98281, Control_c, 0, 64, 87
1, 98281, Control_c, 0, 67, 91
1, 98291, Note_on_c, 0, 50, 46
1, 98296, Control_c, 0, 64, 76
1, 98296, Control_c, 0, 67, 92
1, 98310, Control_c, 0, 64, 64
1, 98310, Control_c, 0, 67, 95
1, 98325, Control_c, 0, 64, 51
1, 98325, Control_c, 0, 67, 100
1, 98329, Note_off_c, 0, 57, 38
1, 98341, Control_c, 0, 64, 50
1, 98341, Control_c, 0, 67, 105
1, 98356, Control_c, 0, 64, 53
1, 98356, Control_c, 0, 67, 111
1, 98371, Control_c, 0, 64, 57
1, 98371, Control_c, 0, 67, 115
1, 98386, Control_c, 0, 64, 63
1, 98386, Control_c, 0, 67, 117
1, 98401, Control_c, 0, 64, 66
1, 98401, Control_c, 0, 67, 118
1, 98415, Control_c, 0, 64, 70
1, 98430, Control_c, 0, 64, 74
1, 98445, Control_c, 0, 64, 78
1, 98459, Control_c, 0, 64, 79
1, 98474, Control_c, 0, 64, 80
1, 98492, Note_on_c, 0, 57, 37
1, 98503, Control_c, 0, 64, 80
1, 98533, Control_c, 0, 64, 81
1, 98547, Control_c, 0, 67, 117
1, 98562, Control_c, 0, 64, 82
1, 98592, Control_c, 0, 64, 82
1, 98607, Control_c, 0, 67, 117
1, 98614, Note_off_c, 0, 57, 50
1, 98622, Control_c, 0, 67, 116
1, 98651, Control_c, 0, 67, 116
1, 98660, Note_on_c, 0, 60, 32
1, 98666, Control_c, 0, 67, 115
1, 98681, Control_c, 0, 67, 115
1, 98711, Control_c, 0, 67, 114
1, 98740, Control_c, 0, 67, 114
1, 98762, Note_off_c, 0, 60, 0
1, 98776, Note_off_c, 0, 50, 50
1, 98788, Note_on_c, 0, 57, 40
1, 98800, Poly_aftertouch_c, 0, 60, 127
1, 98803, Note_on_c, 0, 78, 52
1, 98851, Control_c, 0, 67, 113
1, 98866, Note_off_c, 0, 79, 34
1, 98914, Note_off_c, 0, 57, 54
1, 98922, Note_off_c, 0, 78, 62
1, 98951, Note_on_c, 0, 50, 42
1, 98955, Control_c, 0, 64, 82
1, 98959, Poly_aftertouch_c, 0, 60, 0
1, 98970, Control_c, 0, 64, 75
1, 98984, Note_on_c, 0, 77, 43
1, 98985, Control_c, 0, 64, 64
1, 98985, Control_c, 0, 67, 114
1, 99000, Control_c, 0, 64, 45
1, 99014, Control_c, 0, 64, 34
1, 99029, Control_c, 0, 64, 34
1, 99044, Control_c, 0, 64, 36
1, 99044, Control_c, 0, 67, 114
1, 99059, Control_c, 0, 64, 44
1, 99074, Control_c, 0, 64, 57
1, 99088, Control_c, 0, 64, 63
1, 99103, Control_c, 0, 64, 66
1, 99118, Control_c, 0, 64, 69
1, 99134, Control_c, 0, 64, 74
1, 99149, Control_c, 0, 64, 77
1, 99154, Note_on_c, 0, 55, 31
1, 99163, Control_c, 0, 64, 78
1, 99178, Control_c, 0, 64, 78
1, 99193, Control_c, 0, 64, 79
1, 99216, Note_off_c, 0, 77, 52
1, 99224, Control_c, 0, 64, 79
1, 99238, Control_c, 0, 64, 80
1, 99245, Note_off_c, 0, 55, 56
1, 99288, Note_on_c, 0, 59, 40
1, 99298, Control_c, 0, 64, 80
1, 99391, Note_off_c, 0, 50, 50
1, 99443, Note_on_c, 0, 55, 19
1, 99631, Control_c, 0, 64, 80
1, 99645, Control_c, 0, 64, 75
1, 99660, Control_c, 0, 64, 65
1, 99661, Note_on_c, 0, 48, 37
1, 99664, Note_on_c, 0, 77, 42
1, 99673, Note_off_c, 0, 55, 33
1, 99675, Control_c, 0, 64, 43
1, 99687, Note_off_c, 0, 59, 29
1, 99689, Control_c, 0, 64, 28
1, 99749, Control_c, 0, 64, 30
1, 99763, Control_c, 0, 64, 37
1, 99778, Control_c, 0, 64, 49
1, 99793, Control_c, 0, 64, 59
1, 99808, Control_c, 0, 64, 63
1, 99823, Control_c, 0, 64, 65
1, 99838, Control_c, 0, 64, 68
1, 99844, Note_on_c, 0, 55, 37
1, 99853, Control_c, 0, 64, 70
1, 99868, Control_c, 0, 64, 72
1, 99882, Control_c, 0, 64, 73
1, 99897, Control_c, 0, 64, 74
1, 99912, Control_c, 0, 64, 75
1, 99927, Control_c, 0, 64, 75
1, 99942, Control_c, 0, 64, 76
1, 99957, Control_c, 0, 64, 76
1, 99978, Note_off_c, 0, 55, 52
1, 100032, Note_on_c, 0, 60, 27
1, 100155, Note_off_c, 0, 48, 39
1, 100166, Note_on_c, 0, 55, 30
1, 100177, Note_on_c, 0, 76, 41
1, 100177, Note_off_c, 0, 77, 40
1, 100298, Control_c, 0, 64, 76
1, 100319, Note_off_c, 0, 55, 36
1, 100320, Control_c, 0, 64, 71
1, 100330, Note_on_c, 0, 48, 38
1, 100335, Control_c, 0, 64, 63
1, 100336, Note_off_c, 0, 60, 11
1, 100350, Control_c, 0, 64, 41
1, 100353, Note_on_c, 0, 75, 40
1, 100355, Note_off_c, 0, 76, 37
1, 100365, Control_c, 0, 64, 28
1, 100394, Control_c, 0, 64, 29
1, 100409, Control_c, 0, 64, 32
1, 100424, Control_c, 0, 64, 41
1, 100439, Control_c, 0, 64, 52
1, 100454, Control_c, 0, 64, 60
1, 100468, Control_c, 0, 64, 64
1, 100483, Control_c, 0, 64, 66
1, 100498, Control_c, 0, 64, 68
1, 100512, Note_on_c, 0, 55, 34
1, 100512, Control_c, 0, 64, 70
1, 100527, Control_c, 0, 64, 72
1, 100542, Control_c, 0, 64, 73
1, 100551, Note_off_c, 0, 75, 53
1, 100557, Control_c, 0, 64, 74
1, 100557, Control_c, 0, 67, 114
1, 100572, Control_c, 0, 64, 75
1, 100586, Control_c, 0, 64, 76
1, 100601, Control_c, 0, 64, 76
1, 100616, Note_off_c, 0, 55, 58
1, 100631, Control_c, 0, 64, 77
1, 100646, Control_c, 0, 67, 113
1, 100661, Control_c, 0, 64, 77
1, 100680, Note_on_c, 0, 60, 28
1, 100690, Control_c, 0, 67, 112
1, 100718, Control_c, 0, 67, 112
1, 100749, Control_c, 0, 67, 111
1, 100779, Control_c, 0, 67, 111
1, 100827, Note_on_c, 0, 55, 33
1, 100868, Control_c, 0, 67, 110
1, 100942, Note_off_c, 0, 48, 38
1, 100967, Note_off_c, 0, 55, 58
1, 100971, Control_c, 0, 67, 110
1, 100986, Control_c, 0, 67, 109
1, 101000, Control_c, 0, 64, 76
1, 101000, Control_c, 0, 67, 108
1, 101012, Note_on_c, 0, 75, 43
1, 101015, Note_on_c, 0, 53, 34
1, 101015, Control_c, 0, 64, 72
1, 101015, Control_c, 0, 67, 107
1, 101030, Control_c, 0, 64, 66
1, 101030, Control_c, 0, 67, 105
1, 101033, Note_off_c, 0, 60, 30
1, 101045, Control_c, 0, 64, 58
1, 101045, Control_c, 0, 67, 102
1, 101068, Control_c, 0, 64, 54
1, 101068, Control_c, 0, 67, 96
1, 101082, Control_c, 0, 64, 53
1, 101082, Control_c, 0, 67, 89
1, 101097, Control_c, 0, 64, 52
1, 101097, Control_c, 0, 67, 82
1, 101112, Control_c, 0, 64, 52
1, 101112, Control_c, 0, 67, 76
1, 101127, Control_c, 0, 64, 51
1, 101127, Control_c, 0, 67, 71
1, 101134, Note_off_c, 0, 75, 29
1, 101141, Control_c, 0, 64, 51
1, 101141, Control_c, 0, 67, 65
1, 101156, Control_c, 0, 64, 50
1, 101156, Control_c, 0, 67, 62
1, 101170, Note_on_c, 0, 74, 46
1, 101171, Control_c, 0, 64, 49
1, 101171, Control_c, 0, 67, 59
1, 101184, Note_on_c, 0, 56, 42
1, 101186, Control_c, 0, 64, 48
1, 101186, Control_c, 0, 67, 56
1, 101201, Control_c, 0, 64, 46
1, 101201, Control_c, 0, 67, 54
1, 101213, Note_off_c, 0, 74, 61
1, 101215, Control_c, 0, 64, 45
1, 101215, Control_c, 0, 67, 51
1, 101230, Control_c, 0, 64, 42
1, 101230, Control_c, 0, 67, 49
1, 101245, Control_c, 0, 64, 37
1, 101245, Control_c, 0, 67, 48
1, 101260, Control_c, 0, 64, 28
1, 101260, Control_c, 0, 67, 47
1, 101275, Control_c, 0, 64, 14
1, 101275, Control_c, 0, 67, 46
1, 101282, Note_off_c, 0, 56, 49
1, 101289, Control_c, 0, 64, 0
1, 101289, Control_c, 0, 67, 45
1, 101304, Control_c, 0, 67, 44
1, 101319, Control_c, 0, 67, 43
1, 101334, Note_on_c, 0, 74, 41
1, 101334, Control_c, 0, 67, 41
1, 101349, Control_c, 0, 67, 40
1, 101358, Note_on_c, 0, 60, 13
1, 101360, Note_off_c, 0, 74, 57
1, 101364, Control_c, 0, 67, 38
1, 101379, Control_c, 0, 67, 36
1, 101394, Control_c, 0, 67, 33
1, 101408, Control_c, 0, 67, 30
1, 101423, Control_c, 0, 67, 27
1, 101438, Control_c, 0, 67, 24
1, 101453, Control_c, 0, 67, 21
1, 101466, Note_off_c, 0, 53, 50
1, 101467, Control_c, 0, 67, 19
1, 101468, Note_on_c, 0, 74, 43
1, 101482, Control_c, 0, 67, 16
1, 101497, Note_on_c, 0, 56, 39
1, 101497, Control_c, 0, 67, 13
1, 101512, Control_c, 0, 67, 11
1, 101513, Note_off_c, 0, 74, 61
1, 101527, Control_c, 0, 67, 0
1, 101623, Note_off_c, 0, 56, 48
1, 101629, Note_off_c, 0, 60, 31
1, 101637, Note_on_c, 0, 74, 48
1, 101646, Note_on_c, 0, 53, 41
1, 101678, Note_off_c, 0, 74, 63
1, 101820, Note_on_c, 0, 56, 38
1, 101915, Note_off_c, 0, 56, 46
1, 101962, Note_on_c, 0, 74, 63
1, 101994, Note_on_c, 0, 60, 21
1, 101994, Note_off_c, 0, 74, 63
1, 102088, Note_off_c, 0, 53, 56
1, 102130, Note_on_c, 0, 56, 45
1, 102231, Control_c, 0, 64, 52
1, 102246, Control_c, 0, 64, 58
1, 102261, Control_c, 0, 64, 61
1, 102274, Note_off_c, 0, 56, 56
1, 102276, Control_c, 0, 64, 63
1, 102277, Note_off_c, 0, 60, 39
1, 102282, Note_on_c, 0, 74, 71
1, 102290, Control_c, 0, 64, 64
1, 102294, Note_on_c, 0, 54, 56
1, 102305, Control_c, 0, 64, 64
1, 102320, Control_c, 0, 64, 65
1, 102351, Control_c, 0, 64, 65
1, 102450, Note_on_c, 0, 57, 49
1, 102469, Control_c, 0, 64, 65
1, 102513, Control_c, 0, 64, 64
1, 102528, Control_c, 0, 64, 64
1, 102543, Control_c, 0, 64, 63
1, 102565, Control_c, 0, 64, 62
1, 102566, Note_off_c, 0, 57, 57
1, 102580, Control_c, 0, 64, 61
1, 102595, Control_c, 0, 64, 60
1, 102610, Control_c, 0, 64, 59
1, 102610, Note_on_c, 0, 77, 62
1, 102613, Note_on_c, 0, 60, 37
1, 102625, Control_c, 0, 64, 57
1, 102640, Control_c, 0, 64, 51
1, 102655, Control_c, 0, 64, 37
1, 102655, Note_off_c, 0, 74, 54
1, 102669, Control_c, 0, 64, 0
1, 102733, Note_off_c, 0, 54, 59
1, 102742, Note_off_c, 0, 77, 57
1, 102762, Note_on_c, 0, 75, 40
1, 102769, Note_on_c, 0, 57, 44
1, 102804, Note_off_c, 0, 75, 47
1, 102874, Note_off_c, 0, 60, 37
1, 102883, Note_off_c, 0, 57, 43
1, 102905, Note_on_c, 0, 54, 72
1, 102935, Control_c, 0, 64, 65
1, 102951, Control_c, 0, 64, 71
1, 102966, Control_c, 0, 64, 80
1, 102980, Control_c, 0, 64, 91
1, 102995, Control_c, 0, 64, 106
1, 103010, Control_c, 0, 64, 127
1, 103053, Note_on_c, 0, 57, 50
1, 103187, Note_off_c, 0, 57, 57
1, 103216, Note_on_c, 0, 74, 77
1, 103218, Note_on_c, 0, 60, 60
1, 103367, Note_off_c, 0, 54, 59
1, 103370, Note_on_c, 0, 72, 84
1, 103376, Note_on_c, 0, 57, 60
1, 103404, Note_off_c, 0, 74, 58
1, 103519, Note_on_c, 0, 71, 83
1, 103521, Note_on_c, 0, 55, 76
1, 103521, Note_off_c, 0, 72, 57
1, 103522, Note_off_c, 0, 57, 59
1, 103527, Note_off_c, 0, 60, 50
1, 103567, Control_c, 0, 64, 89
1, 103579, Note_off_c, 0, 55, 62
1, 103582, Control_c, 0, 64, 65
1, 103597, Control_c, 0, 64, 0
1, 103644, Note_off_c, 0, 71, 60
1, 103678, Note_on_c, 0, 79, 64
1, 103707, Note_off_c, 0, 79, 68
1, 103829, Note_on_c, 0, 55, 59
1, 103864, Note_off_c, 0, 55, 63
1, 103989, Note_on_c, 0, 79, 63
1, 104112, Note_off_c, 0, 79, 60
1, 104129, Note_on_c, 0, 57, 66
1, 104133, Note_on_c, 0, 55, 60
1, 104164, Note_off_c, 0, 55, 65
1, 104164, Note_off_c, 0, 57, 63
1, 104279, Note_on_c, 0, 78, 62
1, 104350, Note_off_c, 0, 78, 50
1, 104424, Note_on_c, 0, 55, 61
1, 104425, Note_on_c, 0, 59, 63
1, 104455, Note_off_c, 0, 55, 64
1, 104456, Note_off_c, 0, 59, 65
1, 104570, Note_on_c, 0, 77, 64
1, 104618, Note_off_c, 0, 77, 53
1, 104701, Control_c, 0, 64, 57
1, 104716, Control_c, 0, 64, 64
1, 104732, Control_c, 0, 64, 67
1, 104737, Note_on_c, 0, 77, 64
1, 104738, Note_on_c, 0, 60, 55
1, 104747, Control_c, 0, 64, 70
1, 104762, Control_c, 0, 64, 75
1, 104762, Note_on_c, 0, 55, 21
1, 104776, Control_c, 0, 64, 80
1, 104791, Control_c, 0, 64, 85
1, 104813, Note_off_c, 0, 55, 44
1, 104813, Control_c, 0, 64, 90
1, 104828, Control_c, 0, 64, 94
1, 104833, Note_off_c, 0, 60, 56
1, 104843, Control_c, 0, 64, 97
1, 104858, Control_c, 0, 64, 101
1, 104873, Control_c, 0, 64, 105
1, 104887, Control_c, 0, 64, 110
1, 104894, Note_on_c, 0, 76, 64
1, 104902, Control_c, 0, 64, 120
1, 104907, Note_off_c, 0, 77, 50
1, 104917, Control_c, 0, 64, 127
1, 105018, Note_off_c, 0, 76, 55
1, 105042, Note_on_c, 0, 67, 70
1, 105048, Note_on_c, 0, 55, 63
1, 105065, Control_c, 0, 64, 87
1, 105080, Control_c, 0, 64, 68
1, 105095, Control_c, 0, 64, 56
1, 105109, Control_c, 0, 64, 57
1, 105124, Control_c, 0, 64, 60
1, 105139, Control_c, 0, 64, 63
1, 105154, Control_c, 0, 64, 68
1, 105169, Control_c, 0, 64, 74
1, 105178, Note_off_c, 0, 55, 57
1, 105183, Control_c, 0, 64, 82
1, 105187, Note_on_c, 0, 75, 61
1, 105197, Control_c, 0, 64, 87
1, 105206, Note_off_c, 0, 67, 51
1, 105212, Control_c, 0, 64, 90
1, 105227, Control_c, 0, 64, 96
1, 105242, Control_c, 0, 64, 102
1, 105257, Control_c, 0, 64, 109
1, 105272, Control_c, 0, 64, 118
1, 105287, Control_c, 0, 64, 127
1, 105299, Note_off_c, 0, 75, 51
1, 105332, Note_on_c, 0, 55, 62
1, 105338, Note_on_c, 0, 65, 66
1, 105390, Control_c, 0, 64, 89
1, 105405, Control_c, 0, 64, 65
1, 105420, Control_c, 0, 64, 45
1, 105434, Control_c, 0, 64, 48
1, 105449, Control_c, 0, 64, 56
1, 105464, Control_c, 0, 64, 63
1, 105479, Control_c, 0, 64, 69
1, 105480, Note_on_c, 0, 74, 60
1, 105494, Control_c, 0, 64, 78
1, 105508, Control_c, 0, 64, 85
1, 105515, Note_off_c, 0, 55, 58
1, 105524, Control_c, 0, 64, 89
1, 105539, Control_c, 0, 64, 92
1, 105558, Note_off_c, 0, 65, 52
1, 105561, Control_c, 0, 64, 95
1, 105576, Control_c, 0, 64, 98
1, 105586, Note_off_c, 0, 74, 52
1, 105591, Control_c, 0, 64, 99
1, 105606, Control_c, 0, 64, 99
1, 105639, Note_on_c, 0, 63, 65
1, 105647, Poly_aftertouch_c, 0, 77, 127
1, 105650, Control_c, 0, 64, 95
1, 105654, Note_on_c, 0, 55, 54
1, 105665, Control_c, 0, 64, 80
1, 105680, Control_c, 0, 64, 65
1, 105695, Control_c, 0, 64, 54
1, 105710, Control_c, 0, 64, 57
1, 105716, Note_off_c, 0, 55, 47
1, 105724, Control_c, 0, 64, 62
1, 105739, Control_c, 0, 64, 65
1, 105754, Control_c, 0, 64, 70
1, 105769, Control_c, 0, 64, 76
1, 105782, Note_on_c, 0, 72, 47
1, 105784, Control_c, 0, 64, 82
1, 105798, Control_c, 0, 64, 87
1, 105813, Control_c, 0, 64, 92
1, 105828, Control_c, 0, 64, 98
1, 105839, Note_off_c, 0, 72, 53
1, 105842, Poly_aftertouch_c, 0, 77, 0
1, 105843, Control_c, 0, 64, 104
1, 105857, Control_c, 0, 64, 109
1, 105872, Control_c, 0, 64, 113
1, 105878, Poly_aftertouch_c, 0, 55, 0
1, 105887, Control_c, 0, 64, 114
1, 105902, Control_c, 0, 64, 115
1, 105916, Note_off_c, 0, 63, 25
1, 105946, Control_c, 0, 64, 114
1, 105961, Control_c, 0, 64, 96
1, 105962, Note_on_c, 0, 55, 29
1, 105966, Note_on_c, 0, 62, 44
1, 105972, Note_on_c, 0, 72, 51
1, 105976, Control_c, 0, 64, 73
1, 105991, Control_c, 0, 64, 53
1, 106005, Control_c, 0, 64, 26
1, 106020, Control_c, 0, 64, 29
1, 106035, Control_c, 0, 64, 34
1, 106050, Control_c, 0, 64, 46
1, 106065, Control_c, 0, 64, 59
1, 106072, Note_off_c, 0, 55, 37
1, 106080, Control_c, 0, 64, 64
1, 106095, Control_c, 0, 64, 70
1, 106102, Note_off_c, 0, 72, 58
1, 106110, Control_c, 0, 64, 77
1, 106124, Control_c, 0, 64, 83
1, 106125, Note_on_c, 0, 71, 45
1, 106139, Control_c, 0, 64, 85
1, 106140, Note_off_c, 0, 62, 30
1, 106150, Note_off_c, 0, 71, 55
1, 106154, Control_c, 0, 64, 87
1, 106169, Control_c, 0, 64, 89
1, 106183, Control_c, 0, 64, 90
1, 106260, Note_on_c, 0, 55, 36
1, 106277, Note_on_c, 0, 59, 44
1, 106287, Control_c, 0, 64, 86
1, 106309, Control_c, 0, 64, 78
1, 106319, Note_off_c, 0, 59, 51
1, 106323, Note_off_c, 0, 55, 41
1, 106324, Control_c, 0, 64, 69
1, 106340, Control_c, 0, 64, 60
1, 106354, Control_c, 0, 64, 51
1, 106369, Control_c, 0, 64, 49
1, 106378, Note_on_c, 0, 79, 41
1, 106384, Control_c, 0, 64, 48
1, 106399, Control_c, 0, 64, 44
1, 106413, Note_off_c, 0, 79, 64
1, 106414, Control_c, 0, 64, 37
1, 106424, Note_on_c, 0, 81, 57
1, 106429, Control_c, 0, 64, 22
1, 106443, Control_c, 0, 64, 0
1, 106484, Note_off_c, 0, 81, 57
1, 106506, Note_on_c, 0, 79, 51
1, 106528, Note_off_c, 0, 79, 64
1, 106568, Note_on_c, 0, 57, 50
1, 106616, Note_off_c, 0, 57, 61
1, 106669, Note_on_c, 0, 78, 57
1, 106714, Note_off_c, 0, 78, 61
1, 106733, Note_on_c, 0, 79, 56
1, 106786, Note_off_c, 0, 79, 57
1, 106795, Note_on_c, 0, 78, 55
1, 106833, Note_off_c, 0, 78, 63
1, 106864, Note_on_c, 0, 59, 55
1, 106871, Note_on_c, 0, 55, 40
1, 106897, Note_off_c, 0, 59, 63
1, 106901, Note_off_c, 0, 55, 55
1, 106956, Note_on_c, 0, 77, 57
1, 106995, Note_off_c, 0, 77, 59
1, 107004, Note_on_c, 0, 79, 63
1, 107089, Note_off_c, 0, 79, 60
1, 107092, Note_on_c, 0, 77, 61
1, 107131, Note_off_c, 0, 77, 61
1, 107149, Control_c, 0, 64, 49
1, 107163, Note_on_c, 0, 60, 49
1, 107164, Control_c, 0, 64, 62
1, 107178, Control_c, 0, 64, 65
1, 107182, Note_on_c, 0, 55, 29
1, 107193, Control_c, 0, 64, 68
1, 107208, Control_c, 0, 64, 72
1, 107218, Note_off_c, 0, 55, 51
1, 107223, Control_c, 0, 64, 79
1, 107237, Control_c, 0, 64, 86
1, 107252, Control_c, 0, 64, 93
1, 107254, Note_on_c, 0, 76, 61
1, 107267, Control_c, 0, 64, 100
1, 107269, Note_off_c, 0, 60, 33
1, 107282, Control_c, 0, 64, 109
1, 107297, Control_c, 0, 64, 127
1, 107301, Note_off_c, 0, 76, 61
1, 107319, Note_on_c, 0, 77, 60
1, 107376, Note_off_c, 0, 77, 57
1, 107385, Note_on_c, 0, 76, 58
1, 107419, Note_off_c, 0, 76, 64
1, 107447, Note_on_c, 0, 67, 62
1, 107452, Note_on_c, 0, 55, 59
1, 107460, Control_c, 0, 64, 85
1, 107475, Control_c, 0, 64, 66
1, 107490, Control_c, 0, 64, 52
1, 107504, Control_c, 0, 64, 55
1, 107519, Control_c, 0, 64, 61
1, 107534, Control_c, 0, 64, 65
1, 107536, Note_on_c, 0, 75, 64
1, 107548, Control_c, 0, 64, 70
1, 107563, Control_c, 0, 64, 78
1, 107565, Note_off_c, 0, 67, 50
1, 107575, Note_off_c, 0, 55, 55
1, 107578, Control_c, 0, 64, 87
1, 107590, Note_off_c, 0, 75, 60
1, 107593, Control_c, 0, 64, 93
1, 107594, Note_on_c, 0, 77, 71
1, 107608, Control_c, 0, 64, 101
1, 107622, Control_c, 0, 64, 117
1, 107637, Control_c, 0, 64, 127
1, 107645, Note_on_c, 0, 75, 61
1, 107659, Note_off_c, 0, 77, 61
1, 107706, Note_off_c, 0, 75, 61
1, 107734, Note_on_c, 0, 55, 69
1, 107740, Note_on_c, 0, 65, 72
1, 107755, Control_c, 0, 64, 101
1, 107770, Control_c, 0, 64, 72
1, 107785, Control_c, 0, 64, 60
1, 107808, Control_c, 0, 64, 62
1, 107821, Note_on_c, 0, 74, 68
1, 107823, Control_c, 0, 64, 65
1, 107824, Note_off_c, 0, 65, 60
1, 107837, Control_c, 0, 64, 70
1, 107842, Note_off_c, 0, 55, 61
1, 107852, Control_c, 0, 64, 80
1, 107867, Control_c, 0, 64, 97
1, 107882, Control_c, 0, 64, 127
1, 107889, Note_off_c, 0, 74, 61
1, 107897, Note_on_c, 0, 75, 68
1, 107952, Note_on_c, 0, 74, 67
1, 107973, Note_off_c, 0, 75, 59
1, 108012, Note_off_c, 0, 74, 62
1, 108048, Note_on_c, 0, 54, 78
1, 108050, Note_on_c, 0, 63, 77
1, 108075, Control_c, 0, 64, 68
1, 108090, Control_c, 0, 64, 22
1, 108105, Control_c, 0, 64, 31
1, 108120, Control_c, 0, 64, 53
1, 108133, Note_on_c, 0, 72, 72
1, 108134, Control_c, 0, 64, 65
1, 108149, Control_c, 0, 64, 74
1, 108164, Control_c, 0, 64, 90
1, 108178, Control_c, 0, 64, 127
1, 108211, Note_on_c, 0, 74, 79
1, 108211, Note_off_c, 0, 72, 60
1, 108277, Note_off_c, 0, 74, 62
1, 108294, Note_on_c, 0, 72, 79
1, 108344, Note_off_c, 0, 63, 61
1, 108393, Note_off_c, 0, 54, 59
1, 108417, Note_on_c, 0, 62, 66
1, 108420, Note_on_c, 0, 71, 84
1, 108420, Note_on_c, 0, 55, 68
1, 108431, Control_c, 0, 64, 124
1, 108444, Note_off_c, 0, 72, 58
1, 108445, Control_c, 0, 64, 78
1, 108460, Control_c, 0, 64, 60
1, 108475, Control_c, 0, 64, 0
1, 108482, Note_off_c, 0, 71, 62
1, 108620, Note_on_c, 0, 72, 60
1, 108667, Note_on_c, 0, 71, 70
1, 108703, Note_off_c, 0, 72, 60
1, 108715, Note_on_c, 0, 69, 72
1, 108721, Note_off_c, 0, 71, 61
1, 108766, Note_off_c, 0, 69, 62
1, 108773, Note_on_c, 0, 71, 76
1, 108818, Note_off_c, 0, 71, 63
1, 108834, Note_off_c, 0, 55, 57
1, 108866, Note_off_c, 0, 62, 55
1, 108933, Note_on_c, 0, 72, 84
1, 108968, Note_off_c, 0, 72, 61
1, 109087, Note_on_c, 0, 74, 81
1, 109117, Note_off_c, 0, 74, 61
1, 109244, Note_on_c, 0, 76, 67
1, 109301, Note_on_c, 0, 74, 69
1, 109339, Note_off_c, 0, 76, 62
1, 109347, Note_on_c, 0, 73, 68
1, 109351, Note_off_c, 0, 74, 61
1, 109398, Note_on_c, 0, 74, 69
1, 109398, Note_off_c, 0, 73, 61
1, 109445, Note_off_c, 0, 74, 64
1, 109606, Note_on_c, 0, 76, 80
1, 109652, Note_off_c, 0, 76, 65
1, 109921, Note_on_c, 0, 77, 73
1, 109928, Control_c, 0, 64, 48
1, 109929, Note_on_c, 0, 55, 45
1, 109929, Note_on_c, 0, 62, 41
1, 109943, Control_c, 0, 64, 57
1, 109958, Control_c, 0, 64, 61
1, 109973, Control_c, 0, 64, 63
1, 109988, Control_c, 0, 64, 65
1, 110003, Control_c, 0, 64, 66
1, 110017, Control_c, 0, 64, 68
1, 110032, Control_c, 0, 64, 71
1, 110054, Control_c, 0, 64, 73
1, 110069, Control_c, 0, 64, 76
1, 110084, Control_c, 0, 64, 78
1, 110098, Control_c, 0, 64, 80
1, 110113, Control_c, 0, 64, 82
1, 110128, Control_c, 0, 64, 84
1, 110143, Control_c, 0, 64, 85
1, 110158, Control_c, 0, 64, 85
1, 110173, Control_c, 0, 64, 86
1, 110217, Control_c, 0, 64, 86
1, 110269, Note_off_c, 0, 55, 33
1, 110368, Note_off_c, 0, 77, 55
1, 110458, Note_off_c, 0, 62, 34
1, 110500, Control_c, 0, 64, 87
1, 110661, Note_on_c, 0, 79, 56
1, 110699, Note_off_c, 0, 79, 65
1, 110707, Note_on_c, 0, 61, 34
1, 110738, Note_on_c, 0, 76, 50
1, 110774, Note_off_c, 0, 76, 58
1, 110781, Control_c, 0, 64, 86
1, 110803, Control_c, 0, 64, 85
1, 110809, Note_on_c, 0, 79, 58
1, 110818, Control_c, 0, 64, 79
1, 110833, Control_c, 0, 64, 70
1, 110840, Note_off_c, 0, 79, 68
1, 110847, Control_c, 0, 64, 52
1, 110854, Note_off_c, 0, 61, 41
1, 110862, Control_c, 0, 64, 0
1, 110879, Note_on_c, 0, 62, 32
1, 110880, Note_on_c, 0, 77, 49
1, 110900, Note_on_c, 0, 55, 19
1, 111189, Control_c, 0, 67, 9
1, 111204, Control_c, 0, 67, 11
1, 111219, Control_c, 0, 67, 13
1, 111234, Control_c, 0, 67, 15
1, 111249, Control_c, 0, 67, 16
1, 111263, Control_c, 0, 67, 17
1, 111278, Control_c, 0, 64, 51
1, 111278, Control_c, 0, 67, 19
1, 111293, Control_c, 0, 64, 57
1, 111293, Control_c, 0, 67, 20
1, 111308, Control_c, 0, 64, 60
1, 111308, Control_c, 0, 67, 22
1, 111322, Control_c, 0, 64, 62
1, 111322, Control_c, 0, 67, 24
1, 111337, Control_c, 0, 64, 64
1, 111337, Control_c, 0, 67, 25
1, 111352, Control_c, 0, 64, 65
1, 111352, Control_c, 0, 67, 27
1, 111367, Control_c, 0, 64, 67
1, 111367, Control_c, 0, 67, 28
1, 111382, Control_c, 0, 64, 69
1, 111382, Control_c, 0, 67, 30
1, 111396, Control_c, 0, 64, 70
1, 111396, Control_c, 0, 67, 32
1, 111400, Note_off_c, 0, 77, 40
1, 111411, Control_c, 0, 64, 72
1, 111411, Control_c, 0, 67, 33
1, 111426, Control_c, 0, 64, 73
1, 111426, Control_c, 0, 67, 33
1, 111441, Control_c, 0, 64, 75
1, 111441, Control_c, 0, 67, 34
1, 111456, Control_c, 0, 64, 75
1, 111470, Control_c, 0, 67, 34
1, 111500, Control_c, 0, 67, 35
1, 111514, Control_c, 0, 67, 35
1, 111529, Note_on_c, 0, 79, 55
1, 111530, Note_off_c, 0, 55, 34
1, 111534, Note_off_c, 0, 62, 37
1, 111567, Control_c, 0, 67, 36
1, 111577, Note_off_c, 0, 79, 63
1, 111582, Control_c, 0, 64, 73
1, 111582, Control_c, 0, 67, 36
1, 111586, Note_on_c, 0, 61, 37
1, 111596, Control_c, 0, 64, 68
1, 111596, Control_c, 0, 67, 37
1, 111611, Control_c, 0, 64, 55
1, 111611, Control_c, 0, 67, 37
1, 111618, Note_on_c, 0, 76, 42
1, 111626, Control_c, 0, 64, 0
1, 111626, Control_c, 0, 67, 39
1, 111641, Control_c, 0, 67, 40
1, 111648, Note_off_c, 0, 76, 58
1, 111656, Control_c, 0, 67, 41
1, 111670, Control_c, 0, 67, 43
1, 111672, Note_on_c, 0, 79, 61
1, 111685, Control_c, 0, 67, 44
1, 111700, Control_c, 0, 67, 45
1, 111714, Note_off_c, 0, 79, 60
1, 111715, Control_c, 0, 67, 46
1, 111729, Control_c, 0, 67, 46
1, 111736, Note_off_c, 0, 61, 48
1, 111744, Control_c, 0, 67, 47
1, 111764, Note_on_c, 0, 77, 43
1, 111774, Control_c, 0, 67, 48
1, 111780, Note_on_c, 0, 62, 31
1, 111785, Note_on_c, 0, 55, 29
1, 111803, Control_c, 0, 64, 52
1, 111818, Control_c, 0, 64, 58
1, 111833, Control_c, 0, 64, 60
1, 111848, Control_c, 0, 64, 62
1, 111863, Control_c, 0, 64, 63
1, 111878, Control_c, 0, 64, 64
1, 111878, Control_c, 0, 67, 47
1, 111893, Control_c, 0, 64, 65
1, 111907, Control_c, 0, 64, 65
1, 111907, Control_c, 0, 67, 47
1, 111923, Control_c, 0, 64, 66
1, 111923, Control_c, 0, 67, 46
1, 111937, Control_c, 0, 64, 66
1, 111967, Control_c, 0, 64, 67
1, 112012, Control_c, 0, 64, 67
1, 112165, Note_off_c, 0, 77, 49
1, 112301, Control_c, 0, 67, 46
1, 112331, Control_c, 0, 67, 45
1, 112340, Note_on_c, 0, 79, 61
1, 112360, Control_c, 0, 67, 45
1, 112375, Control_c, 0, 67, 44
1, 112390, Control_c, 0, 67, 43
1, 112390, Note_off_c, 0, 62, 59
1, 112390, Note_off_c, 0, 79, 61
1, 112405, Control_c, 0, 67, 42
1, 112405, Note_off_c, 0, 55, 43
1, 112416, Note_on_c, 0, 76, 66
1, 112419, Control_c, 0, 67, 41
1, 112426, Note_on_c, 0, 61, 51
1, 112434, Control_c, 0, 67, 40
1, 112449, Control_c, 0, 64, 67
1, 112449, Control_c, 0, 67, 39
1, 112464, Control_c, 0, 67, 38
1, 112467, Note_off_c, 0, 76, 59
1, 112478, Control_c, 0, 64, 66
1, 112493, Control_c, 0, 64, 66
1, 112498, Note_on_c, 0, 79, 71
1, 112508, Control_c, 0, 67, 38
1, 112523, Control_c, 0, 64, 65
1, 112530, Note_off_c, 0, 61, 59
1, 112538, Control_c, 0, 64, 65
1, 112538, Control_c, 0, 67, 37
1, 112543, Note_off_c, 0, 79, 57
1, 112552, Control_c, 0, 67, 37
1, 112572, Note_on_c, 0, 55, 40
1, 112574, Note_on_c, 0, 62, 41
1, 112575, Note_on_c, 0, 77, 63
1, 112582, Control_c, 0, 67, 36
1, 112597, Control_c, 0, 64, 64
1, 112617, Note_off_c, 0, 77, 51
1, 112644, Note_on_c, 0, 79, 75
1, 112671, Control_c, 0, 67, 36
1, 112692, Note_off_c, 0, 55, 51
1, 112694, Note_off_c, 0, 62, 59
1, 112706, Note_off_c, 0, 79, 62
1, 112720, Note_on_c, 0, 61, 58
1, 112733, Note_on_c, 0, 76, 64
1, 112746, Control_c, 0, 64, 64
1, 112787, Note_off_c, 0, 76, 59
1, 112805, Note_on_c, 0, 79, 74
1, 112833, Note_off_c, 0, 61, 62
1, 112839, Note_off_c, 0, 79, 57
1, 112849, Control_c, 0, 67, 35
1, 112864, Control_c, 0, 67, 35
1, 112867, Note_on_c, 0, 62, 49
1, 112876, Note_on_c, 0, 77, 71
1, 112879, Note_on_c, 0, 55, 41
1, 112879, Control_c, 0, 67, 34
1, 112894, Control_c, 0, 67, 34
1, 112909, Control_c, 0, 67, 33
1, 112924, Control_c, 0, 67, 33
1, 112930, Note_off_c, 0, 77, 54
1, 112934, Note_on_c, 0, 79, 73
1, 112939, Control_c, 0, 67, 31
1, 112954, Control_c, 0, 67, 30
1, 112968, Control_c, 0, 67, 28
1, 112983, Control_c, 0, 67, 26
1, 112997, Note_off_c, 0, 62, 59
1, 112998, Control_c, 0, 67, 24
1, 112998, Note_off_c, 0, 55, 37
1, 113010, Note_off_c, 0, 79, 64
1, 113013, Control_c, 0, 67, 22
1, 113016, Note_on_c, 0, 76, 73
1, 113020, Note_on_c, 0, 61, 62
1, 113028, Control_c, 0, 67, 20
1, 113049, Control_c, 0, 67, 18
1, 113064, Control_c, 0, 67, 15
1, 113079, Control_c, 0, 67, 12
1, 113081, Note_off_c, 0, 76, 64
1, 113088, Note_on_c, 0, 79, 81
1, 113094, Control_c, 0, 67, 9
1, 113109, Control_c, 0, 67, 0
1, 113145, Note_off_c, 0, 61, 62
1, 113153, Control_c, 0, 64, 63
1, 113160, Note_on_c, 0, 77, 90
1, 113165, Note_off_c, 0, 79, 63
1, 113168, Note_on_c, 0, 62, 71
1, 113168, Control_c, 0, 64, 59
1, 113176, Note_on_c, 0, 55, 69
1, 113183, Control_c, 0, 64, 34
1, 113198, Control_c, 0, 64, 0
1, 113199, Note_off_c, 0, 77, 65
1, 113351, Note_on_c, 0, 76, 62
1, 113382, Note_off_c, 0, 76, 66
1, 113502, Note_on_c, 0, 74, 55
1, 113543, Note_off_c, 0, 74, 56
1, 113668, Note_on_c, 0, 72, 45
1, 113693, Note_off_c, 0, 72, 56
1, 113820, Note_on_c, 0, 71, 53
1, 113844, Note_off_c, 0, 71, 60
1, 113880, Note_off_c, 0, 62, 37
1, 113886, Note_off_c, 0, 55, 49
1, 113964, Note_on_c, 0, 72, 52
1, 113974, Note_on_c, 0, 57, 50
1, 113991, Note_off_c, 0, 72, 61
1, 114021, Note_off_c, 0, 57, 59
1, 114113, Note_on_c, 0, 74, 58
1, 114119, Note_on_c, 0, 59, 48
1, 114144, Note_off_c, 0, 74, 62
1, 114147, Note_off_c, 0, 59, 58
1, 114264, Note_on_c, 0, 76, 48
1, 114268, Note_on_c, 0, 60, 37
1, 114286, Note_off_c, 0, 76, 60
1, 114298, Note_off_c, 0, 60, 52
1, 114417, Note_on_c, 0, 77, 49
1, 114422, Note_on_c, 0, 62, 38
1, 114439, Note_off_c, 0, 77, 60
1, 114458, Note_off_c, 0, 62, 51
1, 114567, Note_on_c, 0, 76, 51
1, 114569, Note_on_c, 0, 60, 46
1, 114592, Note_off_c, 0, 76, 60
1, 114605, Note_off_c, 0, 60, 52
1, 114721, Note_on_c, 0, 74, 55
1, 114724, Note_on_c, 0, 59, 47
1, 114742, Note_off_c, 0, 74, 61
1, 114755, Note_off_c, 0, 59, 58
1, 114862, Note_on_c, 0, 76, 63
1, 114870, Note_on_c, 0, 60, 54
1, 114890, Note_off_c, 0, 76, 67
1, 114905, Note_off_c, 0, 60, 62
1, 115015, Note_on_c, 0, 77, 73
1, 115021, Note_on_c, 0, 62, 56
1, 115052, Note_off_c, 0, 77, 60
1, 115069, Note_off_c, 0, 62, 52
1, 115168, Note_on_c, 0, 76, 79
1, 115178, Note_on_c, 0, 61, 54
1, 115207, Note_off_c, 0, 76, 61
1, 115225, Note_off_c, 0, 61, 57
1, 115337, Note_on_c, 0, 77, 75
1, 115344, Note_on_c, 0, 62, 52
1, 115368, Note_off_c, 0, 77, 58
1, 115382, Note_off_c, 0, 62, 54
1, 115503, Note_on_c, 0, 78, 81
1, 115522, Note_on_c, 0, 63, 54
1, 115556, Note_off_c, 0, 78, 63
1, 115615, Note_off_c, 0, 63, 35
1, 115732, Note_on_c, 0, 79, 70
1, 115739, Control_c, 0, 64, 53
1, 115754, Control_c, 0, 64, 59
1, 115767, Note_on_c, 0, 64, 27
1, 115768, Control_c, 0, 64, 61
1, 115783, Control_c, 0, 64, 63
1, 115789, Note_off_c, 0, 79, 58
1, 115798, Control_c, 0, 64, 65
1, 115812, Control_c, 0, 64, 67
1, 115827, Control_c, 0, 64, 70
1, 115842, Control_c, 0, 64, 72
1, 115857, Control_c, 0, 64, 75
1, 115872, Control_c, 0, 64, 77
1, 115887, Control_c, 0, 64, 81
1, 115902, Control_c, 0, 64, 85
1, 115917, Control_c, 0, 64, 87
1, 115932, Control_c, 0, 64, 90
1, 115941, Note_off_c, 0, 64, 41
1, 115947, Control_c, 0, 64, 91
1, 115962, Control_c, 0, 64, 92
1, 115977, Control_c, 0, 64, 93
1, 115979, Note_on_c, 0, 60, 39
1, 115991, Control_c, 0, 64, 94
1, 116006, Control_c, 0, 64, 95
1, 116021, Control_c, 0, 64, 96
1, 116044, Control_c, 0, 64, 97
1, 116058, Control_c, 0, 64, 98
1, 116073, Control_c, 0, 64, 98
1, 116088, Control_c, 0, 64, 99
1, 116103, Control_c, 0, 64, 99
1, 116159, Note_on_c, 0, 79, 63
1, 116160, Note_off_c, 0, 60, 18
1, 116162, Control_c, 0, 64, 100
1, 116177, Note_on_c, 0, 64, 43
1, 116206, Control_c, 0, 64, 100
1, 116310, Control_c, 0, 64, 101
1, 116313, Note_off_c, 0, 64, 36
1, 116326, Note_on_c, 0, 60, 38
1, 116425, Note_off_c, 0, 60, 40
1, 116464, Note_on_c, 0, 64, 42
1, 116614, Note_off_c, 0, 64, 39
1, 116630, Note_off_c, 0, 79, 41
1, 116631, Note_on_c, 0, 77, 51
1, 116652, Note_on_c, 0, 60, 32
1, 116676, Note_off_c, 0, 77, 61
1, 116698, Note_on_c, 0, 76, 48
1, 116711, Control_c, 0, 64, 100
1, 116732, Note_off_c, 0, 76, 46
1, 116757, Note_off_c, 0, 60, 37
1, 116762, Note_on_c, 0, 65, 47
1, 116766, Note_on_c, 0, 76, 45
1, 116793, Control_c, 0, 64, 100
1, 116822, Control_c, 0, 64, 99
1, 116831, Note_on_c, 0, 74, 66
1, 116852, Control_c, 0, 64, 99
1, 116881, Control_c, 0, 64, 97
1, 116893, Note_off_c, 0, 76, 33
1, 116896, Control_c, 0, 64, 95
1, 116900, Note_off_c, 0, 65, 35
1, 116909, Note_off_c, 0, 74, 59
1, 116911, Control_c, 0, 64, 92
1, 116919, Note_on_c, 0, 60, 42
1, 116919, Note_on_c, 0, 72, 59
1, 116926, Control_c, 0, 64, 89
1, 116940, Control_c, 0, 64, 86
1, 116955, Control_c, 0, 64, 82
1, 116956, Note_off_c, 0, 72, 61
1, 116970, Control_c, 0, 64, 78
1, 116985, Control_c, 0, 64, 72
1, 116987, Note_on_c, 0, 71, 58
1, 117000, Control_c, 0, 64, 68
1, 117014, Control_c, 0, 64, 63
1, 117017, Note_off_c, 0, 60, 56
1, 117029, Control_c, 0, 64, 60
1, 117037, Note_off_c, 0, 71, 51
1, 117044, Control_c, 0, 64, 59
1, 117058, Note_on_c, 0, 74, 44
1, 117058, Control_c, 0, 64, 58
1, 117060, Note_on_c, 0, 64, 39
1, 117073, Control_c, 0, 64, 57
1, 117088, Control_c, 0, 64, 57
1, 117098, Note_off_c, 0, 74, 64
1, 117103, Control_c, 0, 64, 56
1, 117118, Note_on_c, 0, 72, 53
1, 117118, Control_c, 0, 64, 54
1, 117133, Control_c, 0, 64, 52
1, 117148, Control_c, 0, 64, 51
1, 117163, Control_c, 0, 64, 49
1, 117164, Note_off_c, 0, 72, 61
1, 117175, Note_off_c, 0, 64, 47
1, 117178, Control_c, 0, 64, 48
1, 117190, Note_on_c, 0, 60, 36
1, 117193, Control_c, 0, 64, 45
1, 117194, Note_on_c, 0, 74, 58
1, 117208, Control_c, 0, 64, 43
1, 117222, Control_c, 0, 64, 40
1, 117230, Note_off_c, 0, 74, 62
1, 117237, Control_c, 0, 64, 37
1, 117252, Note_on_c, 0, 72, 51
1, 117252, Control_c, 0, 64, 32
1, 117267, Control_c, 0, 64, 24
1, 117282, Control_c, 0, 64, 0
1, 117287, Note_off_c, 0, 72, 63
1, 117292, Note_off_c, 0, 60, 58
1, 117323, Note_on_c, 0, 71, 54
1, 117333, Note_on_c, 0, 64, 39
1, 117368, Note_off_c, 0, 71, 57
1, 117407, Note_on_c, 0, 72, 33
1, 117447, Note_off_c, 0, 72, 54
1, 117462, Note_off_c, 0, 64, 50
1, 117463, Note_on_c, 0, 74, 47
1, 117505, Note_off_c, 0, 74, 60
1, 117512, Note_on_c, 0, 60, 14
1, 117520, Control_c, 0, 64, 33
1, 117540, Note_on_c, 0, 76, 49
1, 117542, Control_c, 0, 64, 51
1, 117557, Control_c, 0, 64, 54
1, 117571, Control_c, 0, 64, 57
1, 117586, Control_c, 0, 64, 60
1, 117601, Control_c, 0, 64, 62
1, 117616, Control_c, 0, 64, 63
1, 117626, Note_off_c, 0, 60, 50
1, 117631, Control_c, 0, 64, 64
1, 117646, Control_c, 0, 64, 65
1, 117652, Note_off_c, 0, 76, 37
1, 117657, Note_on_c, 0, 67, 40
1, 117661, Control_c, 0, 64, 66
1, 117672, Note_on_c, 0, 64, 30
1, 117676, Control_c, 0, 64, 67
1, 117690, Control_c, 0, 64, 68
1, 117705, Control_c, 0, 64, 69
1, 117720, Control_c, 0, 64, 70
1, 117735, Control_c, 0, 64, 71
1, 117750, Control_c, 0, 64, 72
1, 117764, Control_c, 0, 64, 73
1, 117779, Control_c, 0, 64, 74
1, 117780, Note_off_c, 0, 67, 48
1, 117794, Control_c, 0, 64, 75
1, 117808, Control_c, 0, 64, 75
1, 117823, Control_c, 0, 64, 76
1, 117825, Note_off_c, 0, 64, 41
1, 117838, Control_c, 0, 64, 77
1, 117842, Note_on_c, 0, 60, 33
1, 117853, Control_c, 0, 64, 77
1, 117868, Control_c, 0, 64, 78
1, 117897, Control_c, 0, 64, 79
1, 117912, Control_c, 0, 64, 79
1, 117942, Control_c, 0, 64, 80
1, 117954, Note_off_c, 0, 60, 54
1, 117980, Note_on_c, 0, 64, 48
1, 117986, Control_c, 0, 64, 80
1, 118030, Control_c, 0, 64, 81
1, 118045, Control_c, 0, 64, 81
1, 118075, Control_c, 0, 64, 82
1, 118105, Control_c, 0, 64, 82
1, 118108, Note_off_c, 0, 64, 52
1, 118120, Control_c, 0, 64, 83
1, 118134, Note_on_c, 0, 60, 47
1, 118135, Control_c, 0, 64, 83
1, 118149, Control_c, 0, 64, 84
1, 118164, Control_c, 0, 64, 84
1, 118179, Control_c, 0, 64, 85
1, 118208, Control_c, 0, 64, 85
1, 118257, Note_off_c, 0, 60, 52
1, 118268, Control_c, 0, 64, 86
1, 118276, Note_on_c, 0, 79, 80
1, 118288, Note_on_c, 0, 64, 48
1, 118342, Note_off_c, 0, 79, 62
1, 118430, Note_off_c, 0, 64, 50
1, 118443, Note_on_c, 0, 79, 76
1, 118452, Note_on_c, 0, 60, 42
1, 118485, Note_off_c, 0, 79, 63
1, 118513, Control_c, 0, 67, 8
1, 118528, Control_c, 0, 67, 9
1, 118543, Control_c, 0, 67, 11
1, 118558, Control_c, 0, 67, 13
1, 118573, Control_c, 0, 67, 15
1, 118577, Note_off_c, 0, 60, 50
1, 118587, Control_c, 0, 67, 17
1, 118602, Control_c, 0, 64, 85
1, 118602, Control_c, 0, 67, 19
1, 118609, Note_on_c, 0, 79, 60
1, 118613, Note_on_c, 0, 64, 41
1, 118617, Control_c, 0, 67, 21
1, 118631, Control_c, 0, 64, 85
1, 118631, Control_c, 0, 67, 22
1, 118646, Control_c, 0, 64, 84
1, 118646, Control_c, 0, 67, 23
1, 118661, Control_c, 0, 64, 81
1, 118661, Control_c, 0, 67, 24
1, 118676, Control_c, 0, 64, 75
1, 118691, Control_c, 0, 64, 64
1, 118705, Control_c, 0, 64, 0
1, 118748, Note_off_c, 0, 64, 57
1, 118784, Note_on_c, 0, 60, 25
1, 118794, Control_c, 0, 67, 23
1, 118809, Control_c, 0, 64, 33
1, 118809, Control_c, 0, 67, 23
1, 118823, Control_c, 0, 64, 51
1, 118823, Control_c, 0, 67, 22
1, 118838, Control_c, 0, 64, 59
1, 118838, Control_c, 0, 67, 22
1, 118853, Control_c, 0, 64, 62
1, 118853, Control_c, 0, 67, 21
1, 118868, Control_c, 0, 64, 64
1, 118868, Control_c, 0, 67, 20
1, 118883, Control_c, 0, 64, 65
1, 118883, Control_c, 0, 67, 19
1, 118891, Note_off_c, 0, 60, 51
1, 118898, Control_c, 0, 64, 66
1, 118898, Control_c, 0, 67, 19
1, 118913, Control_c, 0, 64, 68
1, 118913, Control_c, 0, 67, 18
1, 118927, Control_c, 0, 64, 69
1, 118927, Control_c, 0, 67, 17
1, 118930, Note_on_c, 0, 64, 29
1, 118942, Control_c, 0, 64, 71
1, 118942, Control_c, 0, 67, 17
1, 118957, Control_c, 0, 64, 72
1, 118957, Control_c, 0, 67, 16
1, 118972, Control_c, 0, 64, 73
1, 118972, Control_c, 0, 67, 15
1, 118987, Control_c, 0, 64, 74
1, 118987, Control_c, 0, 67, 15
1, 119002, Control_c, 0, 64, 74
1, 119002, Control_c, 0, 67, 14
1, 119017, Control_c, 0, 64, 75
1, 119017, Control_c, 0, 67, 14
1, 119038, Control_c, 0, 64, 75
1, 119038, Control_c, 0, 67, 13
1, 119053, Control_c, 0, 64, 76
1, 119053, Control_c, 0, 67, 13
1, 119068, Control_c, 0, 64, 76
1, 119068, Control_c, 0, 67, 12
1, 119083, Control_c, 0, 67, 12
1, 119088, Note_off_c, 0, 79, 60
1, 119098, Control_c, 0, 67, 11
1, 119104, Note_off_c, 0, 64, 34
1, 119105, Note_on_c, 0, 77, 48
1, 119114, Control_c, 0, 64, 77
1, 119114, Control_c, 0, 67, 9
1, 119121, Note_on_c, 0, 60, 22
1, 119129, Control_c, 0, 67, 8
1, 119143, Control_c, 0, 67, 0
1, 119154, Note_off_c, 0, 77, 63
1, 119166, Note_on_c, 0, 76, 62
1, 119195, Note_off_c, 0, 76, 66
1, 119203, Note_off_c, 0, 60, 56
1, 119242, Note_on_c, 0, 65, 44
1, 119243, Note_on_c, 0, 76, 54
1, 119300, Note_on_c, 0, 74, 65
1, 119352, Note_off_c, 0, 65, 45
1, 119353, Note_off_c, 0, 76, 35
1, 119372, Note_off_c, 0, 74, 61
1, 119375, Note_on_c, 0, 72, 66
1, 119401, Note_on_c, 0, 60, 32
1, 119416, Note_off_c, 0, 72, 60
1, 119439, Control_c, 0, 64, 75
1, 119452, Note_on_c, 0, 71, 62
1, 119453, Control_c, 0, 64, 69
1, 119468, Control_c, 0, 64, 63
1, 119479, Note_off_c, 0, 60, 59
1, 119483, Control_c, 0, 64, 55
1, 119499, Note_off_c, 0, 71, 52
1, 119513, Control_c, 0, 64, 56
1, 119524, Note_on_c, 0, 64, 44
1, 119527, Control_c, 0, 64, 60
1, 119531, Note_on_c, 0, 72, 50
1, 119542, Control_c, 0, 64, 63
1, 119557, Control_c, 0, 64, 66
1, 119568, Note_off_c, 0, 72, 63
1, 119571, Control_c, 0, 64, 67
1, 119580, Note_on_c, 0, 74, 65
1, 119586, Control_c, 0, 64, 69
1, 119601, Control_c, 0, 64, 70
1, 119610, Note_off_c, 0, 74, 64
1, 119616, Control_c, 0, 64, 71
1, 119629, Note_off_c, 0, 64, 49
1, 119631, Note_on_c, 0, 72, 60
1, 119631, Control_c, 0, 64, 72
1, 119646, Control_c, 0, 64, 73
1, 119655, Note_on_c, 0, 60, 41
1, 119661, Note_off_c, 0, 72, 64
1, 119661, Control_c, 0, 64, 73
1, 119676, Control_c, 0, 64, 74
1, 119684, Note_on_c, 0, 74, 72
1, 119691, Control_c, 0, 64, 74
1, 119716, Note_off_c, 0, 74, 62
1, 119727, Note_on_c, 0, 72, 65
1, 119735, Control_c, 0, 64, 75
1, 119756, Note_off_c, 0, 60, 59
1, 119764, Note_off_c, 0, 72, 64
1, 119792, Note_on_c, 0, 71, 61
1, 119797, Note_on_c, 0, 64, 48
1, 119831, Control_c, 0, 64, 74
1, 119840, Note_on_c, 0, 72, 58
1, 119842, Note_off_c, 0, 71, 56
1, 119861, Control_c, 0, 64, 73
1, 119875, Control_c, 0, 64, 72
1, 119890, Control_c, 0, 64, 70
1, 119906, Control_c, 0, 64, 67
1, 119917, Note_on_c, 0, 74, 61
1, 119921, Control_c, 0, 64, 64
1, 119926, Note_off_c, 0, 64, 51
1, 119932, Note_off_c, 0, 72, 53
1, 119936, Control_c, 0, 64, 60
1, 119936, Control_c, 0, 67, 8
1, 119951, Control_c, 0, 64, 59
1, 119951, Control_c, 0, 67, 10
1, 119965, Note_on_c, 0, 60, 34
1, 119965, Control_c, 0, 64, 59
1, 119965, Control_c, 0, 67, 11
1, 119980, Control_c, 0, 64, 58
1, 119980, Control_c, 0, 67, 13
1, 119987, Note_off_c, 0, 74, 54
1, 119989, Note_on_c, 0, 76, 55
1, 119995, Control_c, 0, 64, 56
1, 119995, Control_c, 0, 67, 15
1, 120010, Control_c, 0, 64, 54
1, 120010, Control_c, 0, 67, 17
1, 120024, Control_c, 0, 64, 50
1, 120024, Control_c, 0, 67, 19
1, 120039, Control_c, 0, 64, 46
1, 120039, Control_c, 0, 67, 21
1, 120054, Control_c, 0, 64, 42
1, 120054, Control_c, 0, 67, 23
1, 120060, Note_off_c, 0, 76, 62
1, 120069, Control_c, 0, 64, 38
1, 120069, Control_c, 0, 67, 25
1, 120084, Control_c, 0, 64, 30
1, 120084, Control_c, 0, 67, 27
1, 120084, Note_on_c, 0, 67, 50
1, 120084, Note_off_c, 0, 60, 59
1, 120099, Control_c, 0, 64, 0
1, 120099, Control_c, 0, 67, 29
1, 120114, Control_c, 0, 67, 31
1, 120129, Control_c, 0, 67, 33
1, 120132, Note_on_c, 0, 64, 37
1, 120144, Control_c, 0, 67, 34
1, 120158, Control_c, 0, 67, 35
1, 120174, Control_c, 0, 67, 36
1, 120188, Control_c, 0, 67, 36
1, 120203, Control_c, 0, 67, 37
1, 120218, Control_c, 0, 67, 37
1, 120233, Control_c, 0, 67, 38
1, 120248, Control_c, 0, 67, 39
1, 120260, Note_off_c, 0, 64, 60
1, 120277, Control_c, 0, 67, 39
1, 120290, Note_on_c, 0, 60, 39
1, 120322, Control_c, 0, 67, 40
1, 120351, Control_c, 0, 67, 40
1, 120366, Control_c, 0, 67, 41
1, 120381, Control_c, 0, 67, 42
1, 120386, Note_off_c, 0, 60, 58
1, 120395, Control_c, 0, 67, 43
1, 120410, Control_c, 0, 67, 44
1, 120423, Note_on_c, 0, 64, 39
1, 120425, Control_c, 0, 67, 45
1, 120440, Control_c, 0, 67, 46
1, 120455, Control_c, 0, 67, 47
1, 120470, Control_c, 0, 67, 48
1, 120484, Control_c, 0, 67, 48
1, 120499, Control_c, 0, 67, 49
1, 120514, Control_c, 0, 64, 53
1, 120514, Control_c, 0, 67, 49
1, 120536, Control_c, 0, 64, 60
1, 120536, Control_c, 0, 67, 50
1, 120551, Control_c, 0, 64, 62
1, 120551, Control_c, 0, 67, 50
1, 120559, Note_off_c, 0, 64, 60
1, 120566, Control_c, 0, 64, 64
1, 120566, Control_c, 0, 67, 51
1, 120581, Control_c, 0, 64, 66
1, 120590, Note_on_c, 0, 60, 39
1, 120596, Control_c, 0, 64, 68
1, 120610, Control_c, 0, 64, 71
1, 120625, Control_c, 0, 64, 74
1, 120640, Control_c, 0, 64, 76
1, 120655, Control_c, 0, 64, 78
1, 120670, Control_c, 0, 64, 80
1, 120684, Control_c, 0, 64, 81
1, 120692, Note_off_c, 0, 60, 58
1, 120699, Control_c, 0, 64, 81
1, 120715, Note_off_c, 0, 67, 58
1, 120728, Note_on_c, 0, 69, 58
1, 120732, Note_on_c, 0, 65, 52
1, 120745, Control_c, 0, 64, 81
1, 120749, Note_off_c, 0, 69, 61
1, 120760, Control_c, 0, 64, 79
1, 120775, Control_c, 0, 64, 74
1, 120789, Control_c, 0, 64, 66
1, 120804, Control_c, 0, 64, 53
1, 120819, Control_c, 0, 64, 25
1, 120833, Control_c, 0, 64, 14
1, 120848, Control_c, 0, 64, 0
1, 120883, Note_off_c, 0, 65, 39
1, 120891, Note_on_c, 0, 72, 56
1, 120893, Note_on_c, 0, 60, 42
1, 120893, Control_c, 0, 67, 50
1, 120942, Note_off_c, 0, 72, 50
1, 120982, Note_off_c, 0, 60, 47
1, 121039, Note_on_c, 0, 77, 58
1, 121050, Note_on_c, 0, 65, 30
1, 121070, Note_off_c, 0, 77, 66
1, 121170, Note_off_c, 0, 65, 39
1, 121174, Control_c, 0, 67, 50
1, 121178, Note_on_c, 0, 81, 60
1, 121187, Note_on_c, 0, 60, 47
1, 121208, Note_off_c, 0, 81, 66
1, 121291, Note_off_c, 0, 60, 54
1, 121341, Note_on_c, 0, 65, 32
1, 121389, Control_c, 0, 67, 50
1, 121448, Control_c, 0, 67, 51
1, 121463, Control_c, 0, 67, 52
1, 121478, Control_c, 0, 67, 52
1, 121492, Note_off_c, 0, 65, 48
1, 121493, Control_c, 0, 67, 53
1, 121503, Note_on_c, 0, 89, 72
1, 121509, Control_c, 0, 67, 55
1, 121522, Note_on_c, 0, 60, 36
1, 121524, Control_c, 0, 67, 59
1, 121524, Note_off_c, 0, 89, 70
1, 121538, Control_c, 0, 67, 62
1, 121553, Control_c, 0, 67, 64
1, 121568, Control_c, 0, 67, 66
1, 121582, Control_c, 0, 67, 67
1, 121597, Control_c, 0, 67, 67
1, 121612, Control_c, 0, 67, 68
1, 121634, Note_off_c, 0, 60, 57
1, 121661, Note_on_c, 0, 65, 39
1, 121780, Note_off_c, 0, 65, 52
1, 121804, Control_c, 0, 67, 68
1, 121816, Note_on_c, 0, 60, 42
1, 121834, Control_c, 0, 64, 55
1, 121849, Control_c, 0, 64, 60
1, 121849, Control_c, 0, 67, 67
1, 121864, Control_c, 0, 64, 62
1, 121879, Control_c, 0, 64, 64
1, 121893, Control_c, 0, 64, 66
1, 121908, Control_c, 0, 64, 68
1, 121923, Control_c, 0, 64, 71
1, 121935, Note_off_c, 0, 60, 60
1, 121938, Control_c, 0, 64, 73
1, 121953, Control_c, 0, 64, 75
1, 121953, Control_c, 0, 67, 67
1, 121968, Control_c, 0, 64, 76
1, 121974, Note_on_c, 0, 64, 57
1, 121974, Note_on_c, 0, 67, 60
1, 121995, Note_off_c, 0, 67, 63
1, 122049, Control_c, 0, 64, 74
1, 122063, Control_c, 0, 64, 71
1, 122078, Control_c, 0, 64, 67
1, 122093, Control_c, 0, 64, 60
1, 122108, Control_c, 0, 64, 45
1, 122118, Note_off_c, 0, 64, 59
1, 122123, Control_c, 0, 64, 42
1, 122139, Note_on_c, 0, 72, 70
1, 122147, Note_on_c, 0, 60, 50
1, 122153, Control_c, 0, 64, 40
1, 122164, Note_off_c, 0, 72, 66
1, 122168, Control_c, 0, 64, 35
1, 122182, Control_c, 0, 64, 23
1, 122197, Control_c, 0, 64, 0
1, 122256, Control_c, 0, 67, 67
1, 122261, Note_off_c, 0, 60, 56
1, 122293, Note_on_c, 0, 64, 47
1, 122379, Poly_aftertouch_c, 0, 76, 0
1, 122407, Note_off_c, 0, 64, 50
1, 122445, Note_on_c, 0, 79, 65
1, 122447, Note_on_c, 0, 60, 46
1, 122472, Note_off_c, 0, 79, 67
1, 122549, Note_off_c, 0, 60, 56
1, 122585, Note_on_c, 0, 84, 60
1, 122586, Note_on_c, 0, 64, 43
1, 122615, Note_off_c, 0, 84, 62
1, 122716, Control_c, 0, 67, 67
1, 122719, Note_off_c, 0, 64, 61
1, 122731, Control_c, 0, 67, 66
1, 122745, Note_on_c, 0, 88, 74
1, 122746, Control_c, 0, 64, 38
1, 122746, Control_c, 0, 67, 66
1, 122758, Note_on_c, 0, 60, 40
1, 122761, Control_c, 0, 64, 57
1, 122761, Control_c, 0, 67, 64
1, 122768, Note_off_c, 0, 88, 71
1, 122783, Control_c, 0, 64, 60
1, 122783, Control_c, 0, 67, 63
1, 122798, Control_c, 0, 64, 63
1, 122798, Control_c, 0, 67, 62
1, 122812, Control_c, 0, 64, 65
1, 122812, Control_c, 0, 67, 61
1, 122827, Control_c, 0, 64, 68
1, 122827, Control_c, 0, 67, 60
1, 122842, Control_c, 0, 64, 71
1, 122842, Control_c, 0, 67, 59
1, 122857, Control_c, 0, 64, 76
1, 122857, Control_c, 0, 67, 58
1, 122872, Control_c, 0, 64, 80
1, 122872, Control_c, 0, 67, 57
1, 122873, Note_off_c, 0, 60, 53
1, 122886, Control_c, 0, 64, 84
1, 122886, Control_c, 0, 67, 57
1, 122901, Control_c, 0, 64, 88
1, 122901, Control_c, 0, 67, 56
1, 122915, Note_on_c, 0, 64, 46
1, 122916, Control_c, 0, 64, 92
1, 122916, Control_c, 0, 67, 55
1, 122931, Control_c, 0, 64, 99
1, 122931, Control_c, 0, 67, 54
1, 122946, Control_c, 0, 64, 106
1, 122946, Control_c, 0, 67, 51
1, 122961, Control_c, 0, 64, 115
1, 122961, Control_c, 0, 67, 49
1, 122976, Control_c, 0, 64, 127
1, 122976, Control_c, 0, 67, 46
1, 122990, Control_c, 0, 67, 43
1, 123005, Control_c, 0, 67, 40
1, 123020, Control_c, 0, 67, 37
1, 123035, Control_c, 0, 67, 33
1, 123050, Control_c, 0, 67, 28
1, 123064, Note_off_c, 0, 64, 47
1, 123065, Control_c, 0, 67, 23
1, 123079, Control_c, 0, 67, 18
1, 123086, Note_on_c, 0, 60, 54
1, 123095, Control_c, 0, 67, 12
1, 123110, Control_c, 0, 67, 0
1, 123116, Note_off_c, 0, 60, 59
1, 123309, Note_on_c, 0, 67, 81
1, 123312, Note_on_c, 0, 60, 59
1, 123320, Note_on_c, 0, 64, 65
1, 123391, Control_c, 0, 64, 82
1, 123406, Control_c, 0, 64, 66
1, 123420, Control_c, 0, 64, 62
1, 123435, Control_c, 0, 64, 63
1, 123450, Control_c, 0, 64, 66
1, 123465, Control_c, 0, 64, 70
1, 123480, Control_c, 0, 64, 77
1, 123494, Control_c, 0, 64, 86
1, 123509, Control_c, 0, 64, 94
1, 123532, Control_c, 0, 64, 102
1, 123547, Control_c, 0, 64, 118
1, 123561, Control_c, 0, 64, 127
1, 123582, Note_on_c, 0, 55, 61
1, 123594, Note_on_c, 0, 79, 85
1, 123602, Note_off_c, 0, 64, 57
1, 123610, Note_off_c, 0, 60, 52
1, 123745, Note_off_c, 0, 67, 52
1, 123757, Note_off_c, 0, 55, 61
1, 123760, Note_on_c, 0, 60, 64
1, 123771, Note_on_c, 0, 64, 65
1, 123897, Note_off_c, 0, 64, 55
1, 123908, Note_on_c, 0, 55, 66
1, 123995, Note_off_c, 0, 60, 34
1, 124007, Control_c, 0, 64, 96
1, 124022, Control_c, 0, 64, 64
1, 124037, Control_c, 0, 64, 0
1, 124040, Note_off_c, 0, 55, 62
1, 124068, Note_on_c, 0, 59, 52
1, 124069, Note_on_c, 0, 62, 54
1, 124096, Control_c, 0, 64, 46
1, 124111, Control_c, 0, 64, 64
1, 124125, Control_c, 0, 64, 67
1, 124140, Control_c, 0, 64, 70
1, 124146, Note_off_c, 0, 79, 49
1, 124155, Control_c, 0, 64, 74
1, 124169, Control_c, 0, 64, 77
1, 124180, Note_off_c, 0, 62, 55
1, 124184, Control_c, 0, 64, 79
1, 124199, Control_c, 0, 64, 82
1, 124201, Note_off_c, 0, 59, 38
1, 124214, Control_c, 0, 64, 83
1, 124228, Note_on_c, 0, 55, 54
1, 124229, Control_c, 0, 64, 84
1, 124243, Control_c, 0, 64, 85
1, 124258, Control_c, 0, 64, 86
1, 124281, Control_c, 0, 64, 87
1, 124295, Control_c, 0, 64, 88
1, 124310, Control_c, 0, 64, 89
1, 124332, Note_off_c, 0, 55, 61
1, 124356, Note_on_c, 0, 59, 53
1, 124357, Note_on_c, 0, 79, 58
1, 124368, Note_on_c, 0, 62, 43
1, 124370, Control_c, 0, 64, 89
1, 124375, Note_off_c, 0, 79, 64
1, 124380, Note_on_c, 0, 77, 66
1, 124399, Control_c, 0, 64, 90
1, 124409, Note_off_c, 0, 77, 64
1, 124429, Control_c, 0, 64, 90
1, 124437, Note_on_c, 0, 79, 71
1, 124444, Control_c, 0, 64, 91
1, 124458, Control_c, 0, 64, 91
1, 124464, Note_on_c, 0, 77, 60
1, 124468, Note_off_c, 0, 79, 64
1, 124488, Control_c, 0, 64, 92
1, 124491, Note_off_c, 0, 62, 36
1, 124502, Control_c, 0, 64, 93
1, 124507, Note_off_c, 0, 59, 59
1, 124510, Note_off_c, 0, 77, 61
1, 124517, Control_c, 0, 64, 94
1, 124520, Note_on_c, 0, 76, 71
1, 124532, Control_c, 0, 64, 95
1, 124536, Note_on_c, 0, 55, 51
1, 124547, Control_c, 0, 64, 95
1, 124562, Control_c, 0, 64, 97
1, 124576, Control_c, 0, 64, 98
1, 124585, Note_on_c, 0, 77, 61
1, 124591, Control_c, 0, 64, 99
1, 124606, Control_c, 0, 64, 101
1, 124615, Note_off_c, 0, 76, 54
1, 124621, Control_c, 0, 64, 102
1, 124662, Note_off_c, 0, 55, 61
1, 124671, Note_on_c, 0, 75, 80
1, 124690, Note_off_c, 0, 77, 57
1, 124694, Note_on_c, 0, 60, 66
1, 124696, Control_c, 0, 64, 88
1, 124711, Control_c, 0, 64, 71
1, 124725, Control_c, 0, 64, 48
1, 124740, Control_c, 0, 64, 0
1, 124770, Control_c, 0, 64, 36
1, 124785, Control_c, 0, 64, 57
1, 124800, Control_c, 0, 64, 65
1, 124815, Control_c, 0, 64, 70
1, 124830, Control_c, 0, 64, 74
1, 124845, Control_c, 0, 64, 78
1, 124848, Note_on_c, 0, 48, 76
1, 124859, Control_c, 0, 64, 81
1, 124874, Control_c, 0, 64, 83
1, 124889, Control_c, 0, 64, 84
1, 124904, Control_c, 0, 64, 84
1, 124925, Note_off_c, 0, 60, 30
1, 124991, Note_on_c, 0, 52, 72
1, 124994, Note_off_c, 0, 48, 58
1, 124995, Note_on_c, 0, 76, 75
1, 125010, Note_off_c, 0, 75, 62
1, 125029, Control_c, 0, 64, 83
1, 125044, Control_c, 0, 64, 82
1, 125059, Control_c, 0, 64, 79
1, 125074, Control_c, 0, 64, 76
1, 125089, Control_c, 0, 64, 73
1, 125104, Control_c, 0, 64, 67
1, 125119, Control_c, 0, 64, 63
1, 125133, Control_c, 0, 64, 59
1, 125148, Control_c, 0, 64, 57
1, 125152, Note_on_c, 0, 55, 67
1, 125163, Control_c, 0, 64, 56
1, 125178, Control_c, 0, 64, 55
1, 125192, Control_c, 0, 64, 52
1, 125207, Control_c, 0, 64, 47
1, 125222, Control_c, 0, 64, 43
1, 125237, Control_c, 0, 64, 37
1, 125252, Control_c, 0, 64, 22
1, 125256, Note_off_c, 0, 52, 31
1, 125266, Control_c, 0, 64, 0
1, 125283, Note_off_c, 0, 55, 62
1, 125288, Note_off_c, 0, 76, 62
1, 125311, Control_c, 0, 67, 9
1, 125317, Note_on_c, 0, 60, 59
1, 125325, Control_c, 0, 67, 11
1, 125340, Control_c, 0, 67, 13
1, 125355, Control_c, 0, 67, 15
1, 125370, Control_c, 0, 67, 17
1, 125385, Control_c, 0, 67, 20
1, 125399, Control_c, 0, 67, 23
1, 125414, Control_c, 0, 67, 28
1, 125429, Control_c, 0, 67, 32
1, 125441, Note_off_c, 0, 60, 59
1, 125444, Control_c, 0, 67, 35
1, 125459, Control_c, 0, 67, 37
1, 125460, Note_on_c, 0, 64, 52
1, 125474, Control_c, 0, 67, 39
1, 125488, Control_c, 0, 67, 40
1, 125504, Control_c, 0, 67, 41
1, 125519, Control_c, 0, 67, 42
1, 125534, Control_c, 0, 67, 43
1, 125548, Control_c, 0, 67, 45
1, 125563, Control_c, 0, 67, 47
1, 125572, Note_off_c, 0, 64, 62
1, 125578, Control_c, 0, 67, 49
1, 125593, Control_c, 0, 67, 52
1, 125608, Control_c, 0, 67, 55
1, 125611, Note_on_c, 0, 67, 47
1, 125623, Control_c, 0, 67, 58
1, 125637, Control_c, 0, 67, 63
1, 125652, Control_c, 0, 67, 67
1, 125667, Control_c, 0, 67, 72
1, 125682, Control_c, 0, 67, 78
1, 125697, Control_c, 0, 67, 83
1, 125711, Note_off_c, 0, 67, 58
1, 125712, Control_c, 0, 67, 89
1, 125727, Control_c, 0, 67, 93
1, 125741, Control_c, 0, 67, 95
1, 125754, Note_on_c, 0, 64, 42
1, 125756, Control_c, 0, 67, 96
1, 125808, Control_c, 0, 64, 58
1, 125822, Control_c, 0, 64, 64
1, 125837, Control_c, 0, 64, 67
1, 125852, Control_c, 0, 64, 71
1, 125852, Control_c, 0, 67, 95
1, 125867, Control_c, 0, 64, 78
1, 125867, Control_c, 0, 67, 95
1, 125870, Note_off_c, 0, 64, 62
1, 125882, Control_c, 0, 64, 85
1, 125882, Control_c, 0, 67, 94
1, 125892, Note_on_c, 0, 69, 73
1, 125897, Control_c, 0, 64, 93
1, 125897, Control_c, 0, 67, 94
1, 125910, Note_on_c, 0, 65, 50
1, 125912, Control_c, 0, 64, 99
1, 125927, Control_c, 0, 64, 105
1, 125927, Control_c, 0, 67, 93
1, 125942, Control_c, 0, 64, 108
1, 125955, Note_off_c, 0, 69, 50
1, 125956, Control_c, 0, 64, 109
1, 125956, Control_c, 0, 67, 92
1, 125968, Note_on_c, 0, 72, 68
1, 125971, Control_c, 0, 64, 110
1, 125971, Control_c, 0, 67, 92
1, 125986, Control_c, 0, 64, 110
1, 126001, Control_c, 0, 64, 111
1, 126042, Note_off_c, 0, 65, 34
1, 126048, Note_on_c, 0, 74, 66
1, 126052, Note_off_c, 0, 72, 55
1, 126052, Note_on_c, 0, 60, 46
1, 126104, Note_off_c, 0, 74, 58
1, 126104, Control_c, 0, 64, 110
1, 126111, Note_on_c, 0, 76, 58
1, 126134, Control_c, 0, 64, 110
1, 126134, Control_c, 0, 67, 92
1, 126138, Note_off_c, 0, 76, 65
1, 126148, Control_c, 0, 64, 109
1, 126163, Control_c, 0, 64, 108
1, 126164, Note_off_c, 0, 60, 53
1, 126178, Control_c, 0, 64, 105
1, 126180, Note_on_c, 0, 77, 63
1, 126193, Control_c, 0, 64, 101
1, 126194, Note_on_c, 0, 65, 44
1, 126208, Control_c, 0, 64, 96
1, 126213, Note_off_c, 0, 77, 61
1, 126222, Control_c, 0, 64, 91
1, 126237, Control_c, 0, 64, 86
1, 126252, Control_c, 0, 64, 82
1, 126255, Note_on_c, 0, 79, 50
1, 126266, Control_c, 0, 64, 77
1, 126281, Control_c, 0, 64, 71
1, 126284, Note_off_c, 0, 65, 51
1, 126297, Control_c, 0, 64, 67
1, 126297, Control_c, 0, 67, 93
1, 126306, Note_off_c, 0, 79, 48
1, 126312, Control_c, 0, 64, 63
1, 126321, Note_on_c, 0, 60, 40
1, 126327, Control_c, 0, 64, 61
1, 126332, Note_on_c, 0, 81, 46
1, 126342, Control_c, 0, 64, 60
1, 126357, Control_c, 0, 64, 59
1, 126364, Note_off_c, 0, 81, 52
1, 126371, Control_c, 0, 64, 58
1, 126386, Control_c, 0, 64, 56
1, 126401, Control_c, 0, 64, 52
1, 126413, Note_on_c, 0, 83, 46
1, 126416, Control_c, 0, 64, 48
1, 126431, Control_c, 0, 64, 44
1, 126433, Note_off_c, 0, 60, 58
1, 126445, Control_c, 0, 64, 40
1, 126451, Note_off_c, 0, 83, 62
1, 126460, Control_c, 0, 64, 35
1, 126475, Control_c, 0, 64, 25
1, 126479, Note_on_c, 0, 65, 37
1, 126484, Note_on_c, 0, 84, 50
1, 126490, Control_c, 0, 64, 0
1, 126527, Control_c, 0, 67, 93
1, 126589, Note_off_c, 0, 65, 55
1, 126642, Note_on_c, 0, 60, 36
1, 126675, Control_c, 0, 67, 94
1, 126703, Note_off_c, 0, 84, 60
1, 126720, Control_c, 0, 67, 94
1, 126734, Control_c, 0, 67, 95
1, 126749, Control_c, 0, 67, 96
1, 126759, Note_off_c, 0, 60, 59
1, 126764, Control_c, 0, 67, 98
1, 126779, Control_c, 0, 67, 99
1, 126794, Control_c, 0, 67, 103
1, 126809, Control_c, 0, 67, 107
1, 126815, Note_on_c, 0, 65, 29
1, 126824, Control_c, 0, 67, 111
1, 126839, Control_c, 0, 67, 114
1, 126853, Control_c, 0, 67, 117
1, 126868, Control_c, 0, 67, 119
1, 126883, Control_c, 0, 67, 121
1, 126895, Note_off_c, 0, 65, 40
1, 126897, Control_c, 0, 67, 123
1, 126912, Control_c, 0, 67, 124
1, 126927, Control_c, 0, 67, 126
1, 126942, Control_c, 0, 67, 127
1, 126955, Note_on_c, 0, 60, 30
1, 127045, Control_c, 0, 64, 54
1, 127057, Note_off_c, 0, 60, 50
1, 127060, Control_c, 0, 64, 62
1, 127075, Control_c, 0, 64, 65
1, 127091, Control_c, 0, 64, 67
1, 127106, Control_c, 0, 64, 71
1, 127108, Note_on_c, 0, 64, 38
1, 127117, Note_on_c, 0, 67, 52
1, 127120, Control_c, 0, 64, 75
1, 127135, Control_c, 0, 64, 78
1, 127150, Control_c, 0, 64, 80
1, 127164, Note_off_c, 0, 67, 57
1, 127165, Control_c, 0, 64, 82
1, 127180, Control_c, 0, 64, 83
1, 127194, Control_c, 0, 64, 84
1, 127197, Note_on_c, 0, 72, 45
1, 127209, Control_c, 0, 64, 84
1, 127235, Note_off_c, 0, 64, 36
1, 127239, Control_c, 0, 64, 85
1, 127262, Note_on_c, 0, 60, 35
1, 127274, Note_on_c, 0, 74, 56
1, 127283, Note_off_c, 0, 72, 34
1, 127334, Note_off_c, 0, 74, 56
1, 127342, Note_on_c, 0, 76, 62
1, 127369, Note_off_c, 0, 60, 58
1, 127375, Note_off_c, 0, 76, 64
1, 127402, Note_on_c, 0, 64, 42
1, 127424, Control_c, 0, 64, 84
1, 127425, Note_on_c, 0, 77, 56
1, 127453, Control_c, 0, 64, 83
1, 127460, Note_off_c, 0, 77, 60
1, 127468, Control_c, 0, 64, 81
1, 127483, Control_c, 0, 64, 79
1, 127490, Note_on_c, 0, 79, 54
1, 127498, Control_c, 0, 64, 75
1, 127511, Note_off_c, 0, 64, 60
1, 127513, Control_c, 0, 64, 71
1, 127527, Control_c, 0, 64, 66
1, 127542, Control_c, 0, 64, 61
1, 127546, Note_off_c, 0, 79, 57
1, 127557, Control_c, 0, 64, 57
1, 127560, Note_on_c, 0, 81, 53
1, 127569, Note_on_c, 0, 60, 29
1, 127572, Control_c, 0, 64, 57
1, 127587, Control_c, 0, 64, 56
1, 127590, Note_off_c, 0, 81, 51
1, 127602, Control_c, 0, 64, 53
1, 127617, Control_c, 0, 64, 50
1, 127632, Note_on_c, 0, 83, 55
1, 127632, Control_c, 0, 64, 45
1, 127647, Control_c, 0, 64, 38
1, 127662, Control_c, 0, 64, 23
1, 127665, Note_off_c, 0, 60, 55
1, 127676, Control_c, 0, 64, 0
1, 127679, Note_off_c, 0, 83, 61
1, 127706, Note_on_c, 0, 84, 58
1, 127709, Note_on_c, 0, 64, 33
1, 127781, Control_c, 0, 67, 126
1, 127795, Control_c, 0, 67, 124
1, 127810, Control_c, 0, 67, 122
1, 127825, Control_c, 0, 64, 31
1, 127825, Control_c, 0, 67, 120
1, 127839, Control_c, 0, 64, 60
1, 127839, Control_c, 0, 67, 117
1, 127846, Note_off_c, 0, 64, 62
1, 127854, Control_c, 0, 64, 63
1, 127854, Control_c, 0, 67, 113
1, 127869, Control_c, 0, 64, 65
1, 127869, Control_c, 0, 67, 108
1, 127880, Note_on_c, 0, 60, 47
1, 127885, Control_c, 0, 64, 67
1, 127885, Control_c, 0, 67, 101
1, 127900, Control_c, 0, 64, 69
1, 127900, Control_c, 0, 67, 93
1, 127915, Control_c, 0, 64, 73
1, 127915, Control_c, 0, 67, 84
1, 127930, Control_c, 0, 64, 76
1, 127930, Control_c, 0, 67, 75
1, 127938, Note_off_c, 0, 84, 53
1, 127944, Control_c, 0, 64, 79
1, 127944, Control_c, 0, 67, 66
1, 127959, Control_c, 0, 64, 83
1, 127959, Control_c, 0, 67, 59
1, 127974, Control_c, 0, 64, 87
1, 127974, Control_c, 0, 67, 54
1, 127989, Control_c, 0, 64, 92
1, 127989, Control_c, 0, 67, 49
1, 128004, Control_c, 0, 64, 96
1, 128004, Control_c, 0, 67, 45
1, 128004, Note_off_c, 0, 60, 59
1, 128025, Control_c, 0, 64, 101
1, 128025, Control_c, 0, 67, 41
1, 128038, Note_on_c, 0, 64, 50
1, 128040, Control_c, 0, 64, 105
1, 128040, Control_c, 0, 67, 37
1, 128055, Control_c, 0, 64, 109
1, 128055, Control_c, 0, 67, 34
1, 128070, Control_c, 0, 64, 113
1, 128070, Control_c, 0, 67, 30
1, 128085, Control_c, 0, 64, 118
1, 128085, Control_c, 0, 67, 27
1, 128100, Control_c, 0, 64, 127
1, 128100, Control_c, 0, 67, 24
1, 128115, Control_c, 0, 67, 21
1, 128130, Control_c, 0, 67, 18
1, 128144, Control_c, 0, 67, 15
1, 128150, Note_off_c, 0, 64, 60
1, 128159, Control_c, 0, 67, 12
1, 128166, Note_on_c, 0, 60, 63
1, 128174, Control_c, 0, 67, 9
1, 128189, Control_c, 0, 67, 0
1, 128213, Note_off_c, 0, 60, 57
1, 128317, Note_on_c, 0, 64, 53
1, 128318, Note_on_c, 0, 81, 79
1, 128329, Note_on_c, 0, 60, 59
1, 128366, Control_c, 0, 64, 118
1, 128381, Control_c, 0, 64, 97
1, 128396, Control_c, 0, 64, 82
1, 128411, Control_c, 0, 64, 69
1, 128425, Control_c, 0, 64, 57
1, 128440, Control_c, 0, 64, 45
1, 128455, Control_c, 0, 64, 45
1, 128469, Control_c, 0, 64, 43
1, 128471, Note_off_c, 0, 60, 58
1, 128478, Note_off_c, 0, 64, 60
1, 128481, Note_on_c, 0, 55, 57
1, 128484, Control_c, 0, 64, 39
1, 128485, Note_on_c, 0, 79, 75
1, 128491, Note_off_c, 0, 81, 62
1, 128499, Control_c, 0, 64, 28
1, 128514, Control_c, 0, 64, 0
1, 128526, Note_off_c, 0, 79, 63
1, 128596, Note_off_c, 0, 55, 61
1, 128625, Note_on_c, 0, 77, 79
1, 128628, Note_on_c, 0, 60, 50
1, 128632, Note_on_c, 0, 64, 49
1, 128660, Note_off_c, 0, 77, 61
1, 128725, Note_off_c, 0, 60, 50
1, 128729, Note_off_c, 0, 64, 39
1, 128774, Note_on_c, 0, 55, 60
1, 128779, Note_on_c, 0, 76, 77
1, 128833, Note_off_c, 0, 76, 64
1, 128909, Note_off_c, 0, 55, 61
1, 128928, Note_on_c, 0, 76, 84
1, 128931, Note_on_c, 0, 62, 61
1, 128935, Note_on_c, 0, 65, 64
1, 128937, Control_c, 0, 64, 61
1, 128952, Control_c, 0, 64, 63
1, 128967, Control_c, 0, 64, 64
1, 128982, Control_c, 0, 64, 65
1, 128997, Control_c, 0, 64, 67
1, 129011, Control_c, 0, 64, 67
1, 129026, Control_c, 0, 64, 68
1, 129060, Note_off_c, 0, 65, 57
1, 129061, Note_off_c, 0, 62, 59
1, 129079, Note_on_c, 0, 55, 57
1, 129079, Note_on_c, 0, 74, 70
1, 129082, Note_off_c, 0, 76, 62
1, 129109, Note_off_c, 0, 74, 61
1, 129130, Control_c, 0, 64, 66
1, 129145, Control_c, 0, 64, 61
1, 129160, Control_c, 0, 64, 0
1, 129212, Note_off_c, 0, 55, 61
1, 129229, Note_on_c, 0, 72, 73
1, 129232, Note_on_c, 0, 62, 56
1, 129236, Note_on_c, 0, 65, 58
1, 129256, Note_off_c, 0, 72, 62
1, 129346, Note_off_c, 0, 65, 57
1, 129358, Note_off_c, 0, 62, 56
1, 129382, Note_on_c, 0, 71, 66
1, 129388, Note_on_c, 0, 55, 57
1, 129420, Note_off_c, 0, 71, 54
1, 129525, Note_off_c, 0, 55, 61
1, 129538, Control_c, 0, 64, 51
1, 129539, Note_on_c, 0, 60, 72
1, 129540, Note_on_c, 0, 64, 69
1, 129546, Note_on_c, 0, 72, 74
1, 129553, Control_c, 0, 64, 70
1, 129568, Control_c, 0, 64, 74
1, 129583, Control_c, 0, 64, 81
1, 129597, Control_c, 0, 64, 91
1, 129605, Note_on_c, 0, 67, 69
1, 129605, Note_off_c, 0, 72, 61
1, 129611, Note_off_c, 0, 64, 52
1, 129612, Control_c, 0, 64, 109
1, 129627, Control_c, 0, 64, 127
1, 129676, Note_on_c, 0, 69, 70
1, 129678, Note_off_c, 0, 67, 59
1, 129682, Note_off_c, 0, 60, 27
1, 129748, Note_on_c, 0, 71, 79
1, 129753, Note_off_c, 0, 69, 60
1, 129797, Note_off_c, 0, 71, 62
1, 129817, Note_on_c, 0, 72, 78
1, 129883, Note_on_c, 0, 74, 76
1, 129884, Note_off_c, 0, 72, 60
1, 129954, Note_on_c, 0, 76, 80
1, 129963, Note_off_c, 0, 74, 60
1, 130003, Note_off_c, 0, 76, 64
1, 130027, Note_on_c, 0, 77, 78
1, 130090, Note_on_c, 0, 79, 80
1, 130093, Note_off_c, 0, 77, 59
1, 130160, Control_c, 0, 64, 98
1, 130164, Note_on_c, 0, 81, 80
1, 130175, Control_c, 0, 64, 79
1, 130189, Control_c, 0, 64, 64
1, 130193, Note_off_c, 0, 79, 63
1, 130204, Control_c, 0, 64, 35
1, 130219, Control_c, 0, 64, 0
1, 130228, Note_on_c, 0, 83, 80
1, 130228, Note_off_c, 0, 81, 63
1, 130300, Note_on_c, 0, 84, 76
1, 130312, Note_off_c, 0, 83, 59
1, 130365, Note_on_c, 0, 79, 79
1, 130374, Note_off_c, 0, 84, 63
1, 130401, Note_off_c, 0, 79, 63
1, 130528, Note_on_c, 0, 79, 66
1, 130538, Control_c, 0, 67, 8
1, 130553, Control_c, 0, 67, 9
1, 130565, Note_off_c, 0, 79, 58
1, 130568, Control_c, 0, 67, 11
1, 130583, Control_c, 0, 67, 12
1, 130598, Control_c, 0, 67, 14
1, 130613, Control_c, 0, 67, 16
1, 130628, Control_c, 0, 67, 18
1, 130642, Control_c, 0, 67, 20
1, 130657, Control_c, 0, 67, 22
1, 130671, Control_c, 0, 67, 25
1, 130686, Control_c, 0, 67, 27
1, 130698, Note_on_c, 0, 55, 31
1, 130701, Control_c, 0, 67, 30
1, 130708, Note_on_c, 0, 64, 40
1, 130716, Control_c, 0, 67, 32
1, 130731, Control_c, 0, 67, 34
1, 130745, Control_c, 0, 67, 35
1, 130760, Control_c, 0, 67, 36
1, 130775, Control_c, 0, 67, 36
1, 130843, Note_off_c, 0, 55, 53
1, 130876, Note_off_c, 0, 64, 37
1, 130891, Note_on_c, 0, 81, 25
1, 130926, Note_off_c, 0, 81, 52
1, 130929, Note_on_c, 0, 79, 41
1, 130971, Note_off_c, 0, 79, 65
1, 130982, Control_c, 0, 67, 36
1, 131016, Note_on_c, 0, 55, 36
1, 131019, Note_on_c, 0, 62, 50
1, 131081, Note_off_c, 0, 55, 53
1, 131085, Note_off_c, 0, 62, 53
1, 131109, Control_c, 0, 67, 35
1, 131131, Note_on_c, 0, 77, 52
1, 131154, Control_c, 0, 67, 35
1, 131170, Note_off_c, 0, 77, 62
1, 131183, Control_c, 0, 67, 34
1, 131190, Note_on_c, 0, 79, 49
1, 131226, Note_off_c, 0, 79, 51
1, 131227, Control_c, 0, 67, 34
1, 131242, Control_c, 0, 67, 33
1, 131272, Control_c, 0, 67, 33
1, 131277, Note_on_c, 0, 77, 30
1, 131286, Control_c, 0, 67, 32
1, 131311, Note_off_c, 0, 77, 46
1, 131340, Note_on_c, 0, 55, 36
1, 131342, Note_on_c, 0, 60, 44
1, 131385, Note_off_c, 0, 55, 58
1, 131387, Note_off_c, 0, 60, 57
1, 131486, Note_on_c, 0, 77, 22
1, 131516, Poly_aftertouch_c, 0, 76, 0
1, 131569, Note_off_c, 0, 77, 58
1, 131583, Control_c, 0, 67, 32
1, 131584, Note_on_c, 0, 76, 48
1, 131612, Control_c, 0, 67, 31
1, 131622, Note_off_c, 0, 76, 65
1, 131642, Control_c, 0, 67, 31
1, 131657, Control_c, 0, 67, 30
1, 131659, Note_on_c, 0, 59, 54
1, 131676, Note_on_c, 0, 55, 15
1, 131686, Control_c, 0, 67, 30
1, 131698, Note_off_c, 0, 59, 63
1, 131711, Note_off_c, 0, 55, 40
1, 131731, Control_c, 0, 67, 29
1, 131751, Note_on_c, 0, 74, 62
1, 131798, Control_c, 0, 67, 29
1, 131807, Note_off_c, 0, 74, 59
1, 131812, Control_c, 0, 67, 28
1, 131842, Control_c, 0, 67, 28
1, 131853, Note_on_c, 0, 76, 34
1, 131857, Control_c, 0, 67, 27
1, 131872, Control_c, 0, 67, 26
1, 131877, Note_on_c, 0, 74, 61
1, 131883, Note_off_c, 0, 76, 51
1, 131888, Control_c, 0, 67, 24
1, 131903, Control_c, 0, 67, 22
1, 131907, Note_off_c, 0, 74, 67
1, 131917, Control_c, 0, 67, 16
1, 131932, Control_c, 0, 67, 11
1, 131947, Control_c, 0, 64, 37
1, 131947, Control_c, 0, 67, 0
1, 131962, Control_c, 0, 64, 59
1, 131968, Note_on_c, 0, 60, 67
1, 131970, Note_on_c, 0, 72, 76
1, 131977, Control_c, 0, 64, 63
1, 131991, Control_c, 0, 64, 65
1, 132006, Control_c, 0, 64, 67
1, 132021, Control_c, 0, 64, 70
1, 132035, Control_c, 0, 64, 73
1, 132043, Note_off_c, 0, 72, 61
1, 132050, Control_c, 0, 64, 76
1, 132052, Note_on_c, 0, 67, 68
1, 132065, Control_c, 0, 64, 79
1, 132080, Control_c, 0, 64, 83
1, 132095, Control_c, 0, 64, 85
1, 132109, Control_c, 0, 64, 87
1, 132118, Note_on_c, 0, 69, 73
1, 132124, Note_off_c, 0, 67, 57
1, 132124, Control_c, 0, 64, 90
1, 132139, Control_c, 0, 64, 91
1, 132154, Control_c, 0, 64, 93
1, 132169, Control_c, 0, 64, 95
1, 132184, Control_c, 0, 64, 95
1, 132190, Note_on_c, 0, 71, 77
1, 132192, Note_off_c, 0, 69, 60
1, 132198, Control_c, 0, 64, 96
1, 132213, Control_c, 0, 64, 97
1, 132228, Control_c, 0, 64, 97
1, 132234, Note_off_c, 0, 71, 59
1, 132243, Control_c, 0, 64, 98
1, 132254, Note_on_c, 0, 72, 73
1, 132273, Control_c, 0, 64, 98
1, 132288, Control_c, 0, 64, 99
1, 132319, Note_off_c, 0, 72, 56
1, 132320, Note_on_c, 0, 74, 76
1, 132388, Note_on_c, 0, 76, 78
1, 132396, Note_off_c, 0, 74, 60
1, 132438, Note_off_c, 0, 76, 65
1, 132460, Note_on_c, 0, 77, 79
1, 132531, Note_off_c, 0, 60, 48
1, 132537, Note_on_c, 0, 79, 76
1, 132538, Note_off_c, 0, 77, 57
1, 132561, Control_c, 0, 64, 97
1, 132576, Control_c, 0, 64, 94
1, 132591, Control_c, 0, 64, 88
1, 132606, Control_c, 0, 64, 81
1, 132610, Note_on_c, 0, 81, 79
1, 132621, Control_c, 0, 64, 70
1, 132635, Control_c, 0, 64, 59
1, 132643, Note_off_c, 0, 79, 61
1, 132650, Control_c, 0, 64, 34
1, 132665, Control_c, 0, 64, 28
1, 132673, Note_off_c, 0, 81, 64
1, 132681, Note_on_c, 0, 83, 75
1, 132681, Control_c, 0, 64, 25
1, 132696, Control_c, 0, 64, 0
1, 132726, Control_c, 0, 67, 8
1, 132732, Note_on_c, 0, 84, 74
1, 132740, Control_c, 0, 67, 8
1, 132745, Note_off_c, 0, 83, 59
1, 132755, Control_c, 0, 67, 9
1, 132770, Control_c, 0, 67, 10
1, 132784, Control_c, 0, 67, 10
1, 132799, Control_c, 0, 67, 11
1, 132804, Note_on_c, 0, 79, 80
1, 132810, Note_off_c, 0, 84, 62
1, 132814, Control_c, 0, 67, 11
1, 132829, Control_c, 0, 67, 12
1, 132848, Note_off_c, 0, 79, 63
1, 132858, Control_c, 0, 67, 11
1, 132888, Control_c, 0, 67, 10
1, 132903, Control_c, 0, 67, 9
1, 132918, Control_c, 0, 67, 8
1, 132932, Control_c, 0, 67, 0
1, 132955, Note_on_c, 0, 79, 76
1, 132993, Note_off_c, 0, 79, 61
1, 133006, Control_c, 0, 64, 19
1, 133021, Control_c, 0, 64, 59
1, 133036, Control_c, 0, 64, 63
1, 133051, Control_c, 0, 64, 64
1, 133066, Control_c, 0, 64, 67
1, 133081, Control_c, 0, 64, 69
1, 133096, Control_c, 0, 64, 73
1, 133111, Control_c, 0, 64, 76
1, 133126, Control_c, 0, 64, 79
1, 133131, Note_on_c, 0, 55, 42
1, 133138, Note_on_c, 0, 64, 43
1, 133140, Control_c, 0, 64, 81
1, 133155, Control_c, 0, 64, 84
1, 133170, Control_c, 0, 64, 87
1, 133184, Control_c, 0, 64, 89
1, 133199, Control_c, 0, 64, 91
1, 133214, Control_c, 0, 64, 92
1, 133229, Control_c, 0, 64, 93
1, 133236, Note_on_c, 0, 79, 57
1, 133244, Control_c, 0, 64, 94
1, 133246, Note_off_c, 0, 55, 59
1, 133266, Control_c, 0, 64, 95
1, 133281, Control_c, 0, 64, 95
1, 133291, Note_off_c, 0, 79, 60
1, 133295, Control_c, 0, 64, 96
1, 133304, Note_on_c, 0, 81, 57
1, 133305, Note_off_c, 0, 64, 36
1, 133310, Control_c, 0, 64, 97
1, 133325, Control_c, 0, 64, 97
1, 133340, Control_c, 0, 64, 98
1, 133380, Note_on_c, 0, 79, 60
1, 133384, Control_c, 0, 64, 98
1, 133399, Control_c, 0, 64, 99
1, 133408, Note_off_c, 0, 81, 36
1, 133436, Note_off_c, 0, 79, 61
1, 133447, Note_on_c, 0, 55, 55
1, 133448, Note_on_c, 0, 62, 57
1, 133473, Control_c, 0, 64, 95
1, 133489, Control_c, 0, 64, 80
1, 133504, Control_c, 0, 64, 64
1, 133519, Control_c, 0, 64, 22
1, 133534, Control_c, 0, 64, 28
1, 133549, Control_c, 0, 64, 41
1, 133554, Note_on_c, 0, 77, 63
1, 133563, Control_c, 0, 64, 54
1, 133570, Note_off_c, 0, 55, 55
1, 133578, Note_off_c, 0, 62, 43
1, 133578, Control_c, 0, 64, 62
1, 133593, Control_c, 0, 64, 66
1, 133605, Note_off_c, 0, 77, 59
1, 133607, Control_c, 0, 64, 70
1, 133608, Note_on_c, 0, 79, 56
1, 133622, Control_c, 0, 64, 74
1, 133637, Control_c, 0, 64, 77
1, 133652, Control_c, 0, 64, 79
1, 133667, Control_c, 0, 64, 81
1, 133680, Note_on_c, 0, 77, 61
1, 133682, Control_c, 0, 64, 82
1, 133696, Control_c, 0, 64, 83
1, 133711, Note_off_c, 0, 79, 39
1, 133711, Control_c, 0, 64, 85
1, 133726, Control_c, 0, 64, 86
1, 133741, Control_c, 0, 64, 87
1, 133743, Note_off_c, 0, 77, 61
1, 133748, Note_on_c, 0, 60, 61
1, 133754, Note_on_c, 0, 55, 53
1, 133755, Control_c, 0, 64, 88
1, 133770, Control_c, 0, 64, 88
1, 133829, Control_c, 0, 64, 82
1, 133844, Control_c, 0, 64, 69
1, 133847, Note_on_c, 0, 76, 67
1, 133849, Note_off_c, 0, 55, 47
1, 133859, Control_c, 0, 64, 45
1, 133864, Note_off_c, 0, 60, 51
1, 133874, Control_c, 0, 64, 0
1, 133904, Control_c, 0, 64, 48
1, 133907, Note_on_c, 0, 77, 56
1, 133909, Note_off_c, 0, 76, 62
1, 133918, Control_c, 0, 64, 61
1, 133933, Control_c, 0, 64, 66
1, 133948, Control_c, 0, 64, 71
1, 133963, Control_c, 0, 64, 76
1, 133971, Note_on_c, 0, 76, 64
1, 133978, Control_c, 0, 64, 80
1, 133993, Control_c, 0, 64, 83
1, 134001, Note_off_c, 0, 77, 57
1, 134014, Control_c, 0, 64, 86
1, 134029, Control_c, 0, 64, 90
1, 134044, Control_c, 0, 64, 92
1, 134059, Control_c, 0, 64, 94
1, 134074, Control_c, 0, 64, 96
1, 134076, Note_off_c, 0, 76, 61
1, 134088, Control_c, 0, 64, 97
1, 134089, Note_on_c, 0, 55, 64
1, 134100, Note_on_c, 0, 59, 62
1, 134118, Control_c, 0, 64, 95
1, 134133, Control_c, 0, 64, 79
1, 134148, Control_c, 0, 64, 62
1, 134157, Note_off_c, 0, 55, 53
1, 134163, Control_c, 0, 64, 28
1, 134178, Note_off_c, 0, 59, 49
1, 134178, Control_c, 0, 64, 34
1, 134185, Note_on_c, 0, 74, 71
1, 134193, Control_c, 0, 64, 47
1, 134207, Control_c, 0, 64, 60
1, 134222, Control_c, 0, 64, 66
1, 134237, Control_c, 0, 64, 72
1, 134252, Control_c, 0, 64, 79
1, 134258, Note_off_c, 0, 74, 62
1, 134261, Note_on_c, 0, 76, 70
1, 134267, Control_c, 0, 64, 84
1, 134282, Control_c, 0, 64, 88
1, 134297, Control_c, 0, 64, 93
1, 134312, Control_c, 0, 64, 98
1, 134327, Control_c, 0, 64, 101
1, 134330, Note_on_c, 0, 74, 77
1, 134342, Control_c, 0, 64, 102
1, 134356, Control_c, 0, 64, 104
1, 134360, Note_off_c, 0, 76, 60
1, 134371, Control_c, 0, 64, 106
1, 134386, Control_c, 0, 64, 109
1, 134401, Control_c, 0, 64, 113
1, 134416, Control_c, 0, 64, 115
1, 134454, Note_on_c, 0, 72, 89
1, 134456, Note_off_c, 0, 74, 62
1, 134460, Control_c, 0, 64, 113
1, 134464, Note_on_c, 0, 48, 78
1, 134475, Control_c, 0, 64, 89
1, 134490, Control_c, 0, 64, 66
1, 134504, Control_c, 0, 64, 0
1, 134532, Note_off_c, 0, 48, 60
1, 134545, Note_off_c, 0, 72, 58
1, 134765, Note_on_c, 0, 60, 82
1, 134765, Note_on_c, 0, 72, 80
1, 134793, Control_c, 0, 64, 49
1, 134808, Control_c, 0, 64, 68
1, 134823, Control_c, 0, 64, 73
1, 134837, Control_c, 0, 64, 81
1, 134852, Control_c, 0, 64, 93
1, 134867, Control_c, 0, 64, 124
1, 134882, Control_c, 0, 64, 127
1, 134920, Note_on_c, 0, 59, 72
1, 134949, Note_off_c, 0, 60, 46
1, 135092, Note_off_c, 0, 59, 60
1, 135108, Note_on_c, 0, 58, 63
1, 135110, Note_on_c, 0, 74, 73
1, 135133, Note_off_c, 0, 72, 57
1, 135169, Note_on_c, 0, 76, 71
1, 135194, Note_off_c, 0, 58, 58
1, 135209, Note_off_c, 0, 74, 61
1, 135217, Note_on_c, 0, 57, 80
1, 135224, Control_c, 0, 64, 85
1, 135227, Note_on_c, 0, 77, 85
1, 135236, Note_off_c, 0, 76, 65
1, 135239, Control_c, 0, 64, 53
1, 135253, Control_c, 0, 64, 0
1, 135255, Note_off_c, 0, 57, 61
1, 135272, Note_off_c, 0, 77, 62
1, 135397, Note_on_c, 0, 77, 80
1, 135398, Note_on_c, 0, 57, 75
1, 135470, Note_off_c, 0, 57, 55
1, 135564, Note_on_c, 0, 55, 70
1, 135597, Note_off_c, 0, 55, 64
1, 135709, Note_on_c, 0, 53, 70
1, 135717, Note_off_c, 0, 77, 59
1, 135719, Note_on_c, 0, 79, 69
1, 135742, Note_off_c, 0, 53, 66
1, 135785, Note_off_c, 0, 79, 64
1, 135793, Note_on_c, 0, 81, 69
1, 135865, Note_off_c, 0, 81, 62
1, 135867, Note_on_c, 0, 52, 80
1, 135875, Note_on_c, 0, 79, 71
1, 135898, Control_c, 0, 64, 59
1, 135913, Control_c, 0, 64, 62
1, 135928, Control_c, 0, 64, 64
1, 135943, Control_c, 0, 64, 66
1, 135957, Control_c, 0, 64, 69
1, 135972, Control_c, 0, 64, 73
1, 135987, Control_c, 0, 64, 79
1, 136001, Note_off_c, 0, 79, 64
1, 136002, Control_c, 0, 64, 84
1, 136017, Control_c, 0, 64, 89
1, 136021, Note_on_c, 0, 76, 67
1, 136032, Control_c, 0, 64, 95
1, 136047, Control_c, 0, 64, 102
1, 136062, Control_c, 0, 64, 111
1, 136076, Control_c, 0, 64, 127
1, 136166, Note_off_c, 0, 76, 58
1, 136178, Note_on_c, 0, 48, 73
1, 136183, Note_on_c, 0, 84, 82
1, 136224, Control_c, 0, 64, 84
1, 136236, Note_off_c, 0, 84, 61
1, 136239, Control_c, 0, 64, 65
1, 136261, Control_c, 0, 64, 35
1, 136291, Control_c, 0, 64, 49
1, 136299, Note_off_c, 0, 52, 36
1, 136306, Control_c, 0, 64, 60
1, 136321, Control_c, 0, 64, 65
1, 136335, Control_c, 0, 64, 71
1, 136350, Control_c, 0, 64, 77
1, 136359, Note_on_c, 0, 84, 83
1, 136365, Control_c, 0, 64, 81
1, 136380, Control_c, 0, 64, 84
1, 136395, Control_c, 0, 64, 86
1, 136409, Control_c, 0, 64, 88
1, 136419, Note_off_c, 0, 84, 62
1, 136424, Control_c, 0, 64, 90
1, 136439, Control_c, 0, 64, 91
1, 136454, Control_c, 0, 64, 92
1, 136469, Control_c, 0, 64, 94
1, 136483, Control_c, 0, 64, 95
1, 136498, Control_c, 0, 64, 96
1, 136513, Control_c, 0, 64, 97
1, 136527, Control_c, 0, 64, 97
1, 136536, Note_off_c, 0, 48, 58
1, 136548, Note_on_c, 0, 86, 80
1, 136557, Control_c, 0, 64, 98
1, 136602, Control_c, 0, 64, 98
1, 136622, Note_on_c, 0, 84, 72
1, 136631, Control_c, 0, 64, 99
1, 136677, Note_off_c, 0, 86, 56
1, 136677, Control_c, 0, 64, 99
1, 136700, Note_on_c, 0, 83, 75
1, 136706, Note_off_c, 0, 84, 60
1, 136706, Control_c, 0, 67, 10
1, 136721, Control_c, 0, 67, 14
1, 136736, Control_c, 0, 67, 18
1, 136747, Note_off_c, 0, 83, 61
1, 136750, Control_c, 0, 67, 24
1, 136765, Control_c, 0, 67, 28
1, 136780, Control_c, 0, 64, 96
1, 136780, Control_c, 0, 67, 32
1, 136788, Note_on_c, 0, 81, 68
1, 136795, Control_c, 0, 64, 79
1, 136795, Control_c, 0, 67, 36
1, 136810, Control_c, 0, 64, 60
1, 136810, Control_c, 0, 67, 40
1, 136825, Control_c, 0, 64, 0
1, 136825, Control_c, 0, 67, 44
1, 136825, Note_off_c, 0, 81, 59
1, 136840, Control_c, 0, 67, 48
1, 136855, Control_c, 0, 67, 49
1, 136861, Note_on_c, 0, 48, 53
1, 136867, Note_on_c, 0, 60, 50
1, 136870, Control_c, 0, 67, 51
1, 136885, Note_on_c, 0, 81, 63
1, 136899, Control_c, 0, 64, 57
1, 136899, Control_c, 0, 67, 51
1, 136914, Control_c, 0, 64, 64
1, 136929, Control_c, 0, 64, 66
1, 136935, Note_off_c, 0, 48, 59
1, 136944, Control_c, 0, 64, 68
1, 136944, Control_c, 0, 67, 51
1, 136958, Control_c, 0, 64, 72
1, 136958, Control_c, 0, 67, 50
1, 136961, Note_on_c, 0, 79, 65
1, 136973, Note_off_c, 0, 81, 58
1, 136973, Control_c, 0, 64, 76
1, 136973, Control_c, 0, 67, 50
1, 136988, Control_c, 0, 64, 79
1, 136988, Control_c, 0, 67, 49
1, 137010, Control_c, 0, 64, 82
1, 137010, Control_c, 0, 67, 49
1, 137012, Note_off_c, 0, 60, 56
1, 137025, Control_c, 0, 64, 84
1, 137039, Control_c, 0, 64, 85
1, 137054, Control_c, 0, 64, 87
1, 137069, Note_off_c, 0, 79, 56
1, 137069, Control_c, 0, 64, 88
1, 137074, Note_on_c, 0, 77, 57
1, 137084, Control_c, 0, 64, 88
1, 137084, Control_c, 0, 67, 48
1, 137099, Control_c, 0, 64, 89
1, 137107, Note_off_c, 0, 77, 65
1, 137157, Note_on_c, 0, 76, 51
1, 137158, Control_c, 0, 64, 89
1, 137306, Control_c, 0, 64, 89
1, 137307, Note_on_c, 0, 79, 55
1, 137316, Note_off_c, 0, 76, 37
1, 137321, Control_c, 0, 64, 87
1, 137329, Note_on_c, 0, 55, 41
1, 137335, Note_on_c, 0, 64, 42
1, 137336, Control_c, 0, 64, 76
1, 137350, Control_c, 0, 64, 59
1, 137365, Control_c, 0, 64, 0
1, 137469, Control_c, 0, 64, 49
1, 137485, Control_c, 0, 64, 61
1, 137500, Control_c, 0, 64, 63
1, 137500, Control_c, 0, 67, 48
1, 137515, Control_c, 0, 64, 64
1, 137529, Control_c, 0, 64, 66
1, 137544, Control_c, 0, 64, 67
1, 137559, Control_c, 0, 64, 69
1, 137573, Control_c, 0, 64, 71
1, 137588, Control_c, 0, 64, 72
1, 137603, Control_c, 0, 64, 72
1, 137618, Control_c, 0, 64, 73
1, 137633, Control_c, 0, 64, 73
1, 137648, Control_c, 0, 64, 74
1, 137662, Control_c, 0, 67, 47
1, 137677, Control_c, 0, 64, 74
1, 137677, Control_c, 0, 67, 47
1, 137692, Control_c, 0, 67, 46
1, 137707, Control_c, 0, 67, 45
1, 137722, Control_c, 0, 64, 75
1, 137722, Control_c, 0, 67, 45
1, 137759, Control_c, 0, 67, 44
1, 137774, Control_c, 0, 64, 75
1, 137774, Control_c, 0, 67, 43
1, 137803, Control_c, 0, 67, 43
1, 137818, Control_c, 0, 67, 42
1, 137848, Control_c, 0, 67, 42
1, 137892, Control_c, 0, 67, 41
1, 137899, Note_off_c, 0, 79, 54
1, 137907, Control_c, 0, 64, 72
1, 137907, Control_c, 0, 67, 40
1, 137914, Note_on_c, 0, 60, 41
1, 137919, Note_on_c, 0, 76, 49
1, 137922, Control_c, 0, 64, 63
1, 137922, Control_c, 0, 67, 40
1, 137937, Control_c, 0, 64, 0
1, 137937, Control_c, 0, 67, 39
1, 137946, Note_off_c, 0, 64, 32
1, 137952, Control_c, 0, 67, 36
1, 137967, Control_c, 0, 67, 33
1, 137981, Control_c, 0, 67, 31
1, 137996, Control_c, 0, 67, 28
1, 138011, Control_c, 0, 64, 42
1, 138011, Control_c, 0, 67, 25
1, 138026, Control_c, 0, 64, 61
1, 138026, Control_c, 0, 67, 22
1, 138041, Control_c, 0, 64, 64
1, 138041, Control_c, 0, 67, 17
1, 138055, Control_c, 0, 64, 65
1, 138055, Control_c, 0, 67, 14
1, 138070, Control_c, 0, 64, 67
1, 138070, Control_c, 0, 67, 13
1, 138085, Control_c, 0, 64, 68
1, 138085, Control_c, 0, 67, 12
1, 138099, Control_c, 0, 64, 70
1, 138099, Control_c, 0, 67, 12
1, 138114, Control_c, 0, 64, 72
1, 138115, Note_off_c, 0, 60, 37
1, 138129, Control_c, 0, 64, 74
1, 138144, Control_c, 0, 64, 76
1, 138147, Note_on_c, 0, 59, 49
1, 138155, Note_on_c, 0, 74, 52
1, 138159, Control_c, 0, 64, 78
1, 138173, Control_c, 0, 64, 80
1, 138175, Note_off_c, 0, 55, 28
1, 138188, Control_c, 0, 64, 81
1, 138193, Note_off_c, 0, 59, 61
1, 138200, Note_off_c, 0, 76, 33
1, 138203, Control_c, 0, 64, 82
1, 138218, Control_c, 0, 64, 83
1, 138233, Control_c, 0, 64, 84
1, 138241, Note_off_c, 0, 74, 61
1, 138247, Control_c, 0, 64, 84
1, 138262, Control_c, 0, 64, 85
1, 138278, Control_c, 0, 64, 87
1, 138293, Control_c, 0, 64, 88
1, 138308, Control_c, 0, 64, 89
1, 138322, Control_c, 0, 64, 90
1, 138337, Control_c, 0, 64, 90
1, 138337, Control_c, 0, 67, 11
1, 138352, Control_c, 0, 64, 91
1, 138352, Control_c, 0, 67, 11
1, 138367, Control_c, 0, 64, 91
1, 138367, Control_c, 0, 67, 10
1, 138382, Control_c, 0, 67, 8
1, 138390, Note_on_c, 0, 43, 73
1, 138396, Control_c, 0, 64, 91
1, 138396, Control_c, 0, 67, 0
1, 138411, Control_c, 0, 64, 82
1, 138426, Control_c, 0, 64, 67
1, 138441, Control_c, 0, 64, 31
1, 138456, Control_c, 0, 64, 0
1, 138470, Control_c, 0, 64, 27
1, 138485, Control_c, 0, 64, 53
1, 138508, Control_c, 0, 64, 63
1, 138523, Control_c, 0, 64, 68
1, 138537, Control_c, 0, 64, 74
1, 138552, Control_c, 0, 64, 81
1, 138567, Control_c, 0, 64, 88
1, 138582, Control_c, 0, 64, 95
1, 138597, Control_c, 0, 64, 103
1, 138611, Control_c, 0, 64, 117
1, 138626, Control_c, 0, 64, 127
1, 138630, Note_on_c, 0, 47, 54
1, 138634, Note_off_c, 0, 43, 52
1, 138700, Control_c, 0, 64, 103
1, 138715, Control_c, 0, 64, 71
1, 138730, Control_c, 0, 64, 58
1, 138745, Control_c, 0, 64, 60
1, 138759, Control_c, 0, 64, 65
1, 138774, Control_c, 0, 64, 72
1, 138789, Control_c, 0, 64, 86
1, 138795, Note_off_c, 0, 47, 62
1, 138804, Control_c, 0, 64, 115
1, 138807, Note_on_c, 0, 50, 68
1, 138819, Control_c, 0, 64, 127
1, 138841, Note_off_c, 0, 50, 64
1, 138971, Note_on_c, 0, 73, 75
1, 138980, Note_on_c, 0, 55, 60
1, 139055, Control_c, 0, 64, 113
1, 139072, Control_c, 0, 64, 92
1, 139087, Control_c, 0, 64, 77
1, 139101, Control_c, 0, 64, 64
1, 139116, Control_c, 0, 64, 48
1, 139131, Control_c, 0, 64, 39
1, 139139, Note_on_c, 0, 74, 65
1, 139144, Note_on_c, 0, 59, 48
1, 139144, Note_off_c, 0, 73, 59
1, 139145, Control_c, 0, 64, 37
1, 139160, Control_c, 0, 64, 35
1, 139175, Control_c, 0, 64, 28
1, 139190, Control_c, 0, 64, 0
1, 139296, Note_off_c, 0, 74, 61
1, 139309, Note_on_c, 0, 62, 52
1, 139310, Note_on_c, 0, 72, 57
1, 139310, Note_off_c, 0, 55, 61
1, 139311, Note_off_c, 0, 59, 60
1, 139341, Note_off_c, 0, 62, 61
1, 139387, Note_on_c, 0, 71, 48
1, 139388, Note_off_c, 0, 72, 52
1, 139448, Note_off_c, 0, 71, 62
1, 139470, Note_on_c, 0, 69, 51
1, 139504, Note_off_c, 0, 69, 65
1, 139540, Note_on_c, 0, 67, 48
1, 139594, Note_off_c, 0, 67, 57
1, 139597, Control_c, 0, 64, 63
1, 139612, Note_on_c, 0, 73, 59
1, 139612, Control_c, 0, 64, 65
1, 139616, Note_on_c, 0, 55, 45
1, 139627, Control_c, 0, 64, 67
1, 139642, Control_c, 0, 64, 71
1, 139657, Control_c, 0, 64, 74
1, 139671, Control_c, 0, 64, 77
1, 139686, Control_c, 0, 64, 78
1, 139701, Control_c, 0, 64, 80
1, 139716, Control_c, 0, 64, 80
1, 139731, Control_c, 0, 64, 81
1, 139745, Control_c, 0, 64, 82
1, 139755, Note_off_c, 0, 73, 59
1, 139760, Control_c, 0, 64, 84
1, 139765, Note_on_c, 0, 59, 43
1, 139772, Note_on_c, 0, 74, 51
1, 139775, Control_c, 0, 64, 84
1, 139880, Control_c, 0, 64, 84
1, 139894, Control_c, 0, 64, 77
1, 139909, Control_c, 0, 64, 64
1, 139913, Note_off_c, 0, 55, 61
1, 139920, Note_off_c, 0, 74, 61
1, 139924, Control_c, 0, 64, 0
1, 139929, Note_off_c, 0, 59, 61
1, 139932, Note_on_c, 0, 62, 46
1, 139939, Note_on_c, 0, 72, 55
1, 139976, Note_off_c, 0, 62, 61
1, 140016, Note_on_c, 0, 71, 50
1, 140016, Note_off_c, 0, 72, 55
1, 140068, Note_off_c, 0, 71, 60
1, 140084, Note_on_c, 0, 69, 64
1, 140119, Note_off_c, 0, 69, 61
1, 140171, Note_on_c, 0, 67, 49
1, 140183, Control_c, 0, 64, 47
1, 140198, Control_c, 0, 64, 65
1, 140213, Control_c, 0, 64, 66
1, 140228, Control_c, 0, 64, 69
1, 140233, Note_off_c, 0, 67, 47
1, 140241, Note_on_c, 0, 75, 57
1, 140243, Control_c, 0, 64, 73
1, 140244, Note_on_c, 0, 55, 41
1, 140257, Control_c, 0, 64, 78
1, 140272, Control_c, 0, 64, 81
1, 140287, Control_c, 0, 64, 84
1, 140301, Control_c, 0, 64, 85
1, 140316, Control_c, 0, 64, 86
1, 140331, Control_c, 0, 64, 86
1, 140390, Control_c, 0, 64, 83
1, 140405, Note_on_c, 0, 76, 59
1, 140405, Control_c, 0, 64, 70
1, 140406, Note_on_c, 0, 60, 45
1, 140420, Control_c, 0, 64, 39
1, 140425, Note_off_c, 0, 75, 56
1, 140435, Control_c, 0, 64, 0
1, 140441, Note_off_c, 0, 76, 60
1, 140491, Note_off_c, 0, 60, 46
1, 140554, Note_on_c, 0, 64, 45
1, 140563, Note_on_c, 0, 76, 60
1, 140590, Note_off_c, 0, 76, 59
1, 140676, Note_off_c, 0, 55, 50
1, 140718, Note_on_c, 0, 76, 54
1, 140730, Note_on_c, 0, 60, 20
1, 140749, Note_off_c, 0, 76, 60
1, 140840, Note_off_c, 0, 60, 27
1, 140858, Control_c, 0, 64, 56
1, 140873, Control_c, 0, 64, 60
1, 140880, Note_on_c, 0, 55, 48
1, 140885, Note_on_c, 0, 76, 50
1, 140888, Control_c, 0, 64, 62
1, 140893, Note_off_c, 0, 64, 36
1, 140903, Control_c, 0, 64, 64
1, 140918, Control_c, 0, 64, 65
1, 140932, Control_c, 0, 64, 68
1, 140947, Control_c, 0, 64, 71
1, 140962, Control_c, 0, 64, 75
1, 140977, Control_c, 0, 64, 79
1, 140992, Control_c, 0, 64, 81
1, 141006, Control_c, 0, 64, 84
1, 141021, Control_c, 0, 64, 87
1, 141036, Control_c, 0, 64, 90
1, 141041, Note_on_c, 0, 60, 50
1, 141050, Control_c, 0, 64, 93
1, 141065, Control_c, 0, 64, 96
1, 141080, Control_c, 0, 64, 98
1, 141095, Control_c, 0, 64, 99
1, 141110, Control_c, 0, 64, 100
1, 141124, Control_c, 0, 64, 102
1, 141140, Control_c, 0, 64, 102
1, 141155, Control_c, 0, 64, 103
1, 141170, Control_c, 0, 64, 103
1, 141180, Note_on_c, 0, 64, 70
1, 141185, Control_c, 0, 64, 104
1, 141192, Note_off_c, 0, 60, 33
1, 141214, Control_c, 0, 64, 105
1, 141229, Control_c, 0, 64, 105
1, 141244, Control_c, 0, 64, 106
1, 141258, Control_c, 0, 64, 107
1, 141273, Note_off_c, 0, 55, 62
1, 141273, Control_c, 0, 64, 110
1, 141288, Control_c, 0, 64, 114
1, 141303, Control_c, 0, 64, 124
1, 141311, Note_on_c, 0, 60, 62
1, 141317, Control_c, 0, 64, 127
1, 141397, Note_off_c, 0, 76, 51
1, 141403, Note_on_c, 0, 69, 78
1, 141544, Note_on_c, 0, 54, 63
1, 141563, Control_c, 0, 64, 108
1, 141565, Note_off_c, 0, 64, 58
1, 141578, Control_c, 0, 64, 72
1, 141588, Note_off_c, 0, 60, 38
1, 141593, Control_c, 0, 64, 0
1, 141594, Note_on_c, 0, 81, 87
1, 141652, Control_c, 0, 64, 41
1, 141654, Note_off_c, 0, 69, 47
1, 141667, Control_c, 0, 64, 63
1, 141681, Control_c, 0, 64, 67
1, 141696, Control_c, 0, 64, 71
1, 141711, Control_c, 0, 64, 77
1, 141726, Control_c, 0, 64, 83
1, 141741, Control_c, 0, 64, 88
1, 141755, Control_c, 0, 64, 92
1, 141770, Note_on_c, 0, 57, 49
1, 141770, Control_c, 0, 64, 95
1, 141785, Control_c, 0, 64, 98
1, 141800, Control_c, 0, 64, 100
1, 141815, Control_c, 0, 64, 102
1, 141830, Control_c, 0, 64, 104
1, 141845, Control_c, 0, 64, 107
1, 141860, Control_c, 0, 64, 109
1, 141874, Control_c, 0, 64, 112
1, 141889, Control_c, 0, 64, 115
1, 141904, Control_c, 0, 64, 118
1, 141912, Note_off_c, 0, 54, 57
1, 141919, Control_c, 0, 64, 120
1, 141934, Control_c, 0, 64, 121
1, 141948, Control_c, 0, 64, 124
1, 141949, Note_on_c, 0, 60, 52
1, 141978, Control_c, 0, 64, 127
1, 141985, Note_off_c, 0, 81, 60
1, 141999, Note_on_c, 0, 79, 71
1, 142032, Note_off_c, 0, 57, 29
1, 142065, Note_off_c, 0, 60, 0
1, 142066, Note_on_c, 0, 78, 73
1, 142102, Poly_aftertouch_c, 0, 60, 127
1, 142104, Note_off_c, 0, 79, 61
1, 142111, Note_on_c, 0, 76, 78
1, 142143, Note_off_c, 0, 78, 60
1, 142151, Poly_aftertouch_c, 0, 60, 0
1, 142185, Note_off_c, 0, 76, 64
1, 142195, Note_on_c, 0, 74, 82
1, 142199, Control_c, 0, 64, 107
1, 142202, Note_on_c, 0, 54, 78
1, 142214, Control_c, 0, 64, 77
1, 142229, Control_c, 0, 64, 0
1, 142327, Control_c, 0, 64, 57
1, 142342, Control_c, 0, 64, 64
1, 142354, Note_off_c, 0, 74, 62
1, 142357, Control_c, 0, 64, 67
1, 142369, Note_on_c, 0, 86, 90
1, 142371, Note_on_c, 0, 57, 74
1, 142371, Control_c, 0, 64, 70
1, 142386, Control_c, 0, 64, 73
1, 142401, Control_c, 0, 64, 77
1, 142415, Note_off_c, 0, 86, 63
1, 142416, Control_c, 0, 64, 80
1, 142430, Control_c, 0, 64, 83
1, 142445, Control_c, 0, 64, 87
1, 142460, Control_c, 0, 64, 91
1, 142475, Control_c, 0, 64, 95
1, 142490, Control_c, 0, 64, 99
1, 142504, Control_c, 0, 64, 104
1, 142519, Control_c, 0, 64, 110
1, 142534, Control_c, 0, 64, 127
1, 142537, Note_on_c, 0, 86, 90
1, 142544, Note_on_c, 0, 60, 62
1, 142579, Note_off_c, 0, 86, 63
1, 142663, Note_off_c, 0, 54, 52
1, 142699, Note_on_c, 0, 86, 96
1, 142751, Note_off_c, 0, 86, 65
1, 142872, Note_off_c, 0, 60, 56
1, 142880, Note_on_c, 0, 53, 70
1, 142906, Note_off_c, 0, 57, 54
1, 142980, Note_on_c, 0, 86, 87
1, 143000, Control_c, 0, 64, 71
1, 143015, Control_c, 0, 64, 48
1, 143029, Control_c, 0, 64, 51
1, 143044, Control_c, 0, 64, 60
1, 143059, Control_c, 0, 64, 65
1, 143075, Control_c, 0, 64, 73
1, 143090, Control_c, 0, 64, 87
1, 143105, Control_c, 0, 64, 110
1, 143119, Control_c, 0, 64, 127
1, 143181, Note_on_c, 0, 55, 68
1, 143327, Note_on_c, 0, 59, 66
1, 143417, Note_off_c, 0, 86, 62
1, 143420, Note_on_c, 0, 83, 78
1, 143468, Note_off_c, 0, 55, 59
1, 143473, Note_off_c, 0, 53, 38
1, 143480, Note_off_c, 0, 59, 59
1, 143482, Note_on_c, 0, 86, 80
1, 143491, Note_off_c, 0, 83, 64
1, 143515, Note_on_c, 0, 62, 57
1, 143570, Note_on_c, 0, 83, 75
1, 143608, Control_c, 0, 67, 9
1, 143623, Control_c, 0, 64, 92
1, 143623, Control_c, 0, 67, 11
1, 143637, Control_c, 0, 64, 64
1, 143637, Control_c, 0, 67, 13
1, 143641, Note_on_c, 0, 79, 78
1, 143646, Note_on_c, 0, 65, 78
1, 143652, Control_c, 0, 64, 47
1, 143652, Control_c, 0, 67, 15
1, 143653, Note_off_c, 0, 62, 59
1, 143656, Note_off_c, 0, 86, 62
1, 143657, Note_off_c, 0, 83, 60
1, 143667, Control_c, 0, 64, 51
1, 143667, Control_c, 0, 67, 16
1, 143682, Control_c, 0, 64, 59
1, 143682, Control_c, 0, 67, 18
1, 143691, Note_off_c, 0, 79, 67
1, 143697, Control_c, 0, 64, 65
1, 143697, Control_c, 0, 67, 20
1, 143711, Control_c, 0, 64, 74
1, 143711, Control_c, 0, 67, 22
1, 143726, Control_c, 0, 64, 88
1, 143726, Control_c, 0, 67, 24
1, 143749, Control_c, 0, 64, 105
1, 143749, Control_c, 0, 67, 26
1, 143764, Control_c, 0, 64, 114
1, 143764, Control_c, 0, 67, 26
1, 143778, Control_c, 0, 64, 124
1, 143793, Control_c, 0, 64, 127
1, 143838, Control_c, 0, 67, 26
1, 143857, Note_on_c, 0, 74, 70
1, 143860, Note_on_c, 0, 71, 66
1, 143928, Control_c, 0, 67, 26
1, 143938, Note_off_c, 0, 71, 58
1, 143972, Control_c, 0, 67, 27
1, 144002, Control_c, 0, 67, 27
1, 144016, Control_c, 0, 67, 28
1, 144031, Control_c, 0, 64, 112
1, 144031, Control_c, 0, 67, 30
1, 144046, Note_off_c, 0, 65, 59
1, 144046, Control_c, 0, 64, 93
1, 144046, Control_c, 0, 67, 31
1, 144059, Note_on_c, 0, 64, 55
1, 144059, Note_off_c, 0, 74, 60
1, 144061, Control_c, 0, 64, 74
1, 144061, Control_c, 0, 67, 33
1, 144069, Note_on_c, 0, 76, 64
1, 144071, Note_on_c, 0, 72, 54
1, 144075, Control_c, 0, 64, 56
1, 144075, Control_c, 0, 67, 34
1, 144090, Control_c, 0, 64, 0
1, 144090, Control_c, 0, 67, 35
1, 144105, Control_c, 0, 67, 37
1, 144120, Control_c, 0, 67, 38
1, 144135, Control_c, 0, 67, 39
1, 144149, Control_c, 0, 67, 40
1, 144164, Control_c, 0, 67, 42
1, 144179, Control_c, 0, 67, 42
1, 144209, Control_c, 0, 67, 43
1, 144253, Control_c, 0, 67, 42
1, 144258, Note_off_c, 0, 72, 58
1, 144259, Note_off_c, 0, 76, 62
1, 144262, Note_off_c, 0, 64, 59
1, 144283, Control_c, 0, 67, 42
1, 144283, Note_on_c, 0, 74, 48
1, 144286, Note_on_c, 0, 77, 52
1, 144307, Note_on_c, 0, 62, 34
1, 144313, Control_c, 0, 67, 41
1, 144328, Control_c, 0, 67, 40
1, 144342, Control_c, 0, 67, 39
1, 144357, Control_c, 0, 67, 39
1, 144372, Control_c, 0, 67, 38
1, 144386, Control_c, 0, 67, 37
1, 144401, Control_c, 0, 67, 37
1, 144404, Note_off_c, 0, 77, 58
1, 144416, Control_c, 0, 67, 36
1, 144431, Control_c, 0, 67, 36
1, 144446, Control_c, 0, 67, 35
1, 144460, Control_c, 0, 67, 34
1, 144475, Control_c, 0, 67, 32
1, 144498, Control_c, 0, 67, 31
1, 144513, Control_c, 0, 67, 29
1, 144527, Control_c, 0, 67, 26
1, 144542, Control_c, 0, 67, 21
1, 144542, Note_off_c, 0, 62, 56
1, 144557, Control_c, 0, 67, 15
1, 144558, Note_off_c, 0, 74, 56
1, 144572, Control_c, 0, 67, 0
1, 144581, Note_on_c, 0, 60, 33
1, 144591, Note_on_c, 0, 78, 51
1, 144754, Note_off_c, 0, 78, 49
1, 144772, Note_on_c, 0, 64, 23
1, 144781, Note_on_c, 0, 79, 40
1, 144903, Note_off_c, 0, 60, 40
1, 144903, Note_off_c, 0, 79, 56
1, 144924, Note_on_c, 0, 67, 40
1, 144924, Note_on_c, 0, 77, 45
1, 144927, Note_off_c, 0, 64, 41
1, 144952, Note_off_c, 0, 67, 53
1, 144972, Note_off_c, 0, 77, 61
1, 144988, Note_on_c, 0, 76, 48
1, 145036, Note_off_c, 0, 76, 62
1, 145058, Note_on_c, 0, 74, 57
1, 145089, Note_off_c, 0, 74, 66
1, 145150, Note_on_c, 0, 72, 44
1, 145186, Note_off_c, 0, 72, 51
1, 145216, Note_on_c, 0, 78, 55
1, 145216, Note_on_c, 0, 60, 41
1, 145261, Note_off_c, 0, 78, 62
1, 145290, Note_on_c, 0, 79, 57
1, 145349, Note_off_c, 0, 79, 62
1, 145376, Note_on_c, 0, 81, 58
1, 145396, Note_on_c, 0, 64, 29
1, 145443, Note_off_c, 0, 81, 58
1, 145463, Note_on_c, 0, 79, 55
1, 145493, Note_off_c, 0, 60, 60
1, 145508, Note_on_c, 0, 67, 54
1, 145516, Note_off_c, 0, 64, 57
1, 145527, Note_on_c, 0, 77, 64
1, 145531, Note_off_c, 0, 67, 60
1, 145531, Note_off_c, 0, 79, 59
1, 145588, Note_off_c, 0, 77, 57
1, 145603, Note_on_c, 0, 76, 65
1, 145639, Note_off_c, 0, 76, 61
1, 145675, Note_on_c, 0, 74, 56
1, 145738, Note_off_c, 0, 74, 61
1, 145748, Note_on_c, 0, 72, 53
1, 145779, Control_c, 0, 64, 14
1, 145781, Note_off_c, 0, 72, 57
1, 145794, Control_c, 0, 64, 64
1, 145807, Note_on_c, 0, 60, 45
1, 145814, Note_on_c, 0, 80, 59
1, 145824, Control_c, 0, 64, 64
1, 145839, Control_c, 0, 64, 65
1, 145854, Control_c, 0, 64, 66
1, 145869, Control_c, 0, 64, 68
1, 145884, Control_c, 0, 64, 69
1, 145899, Control_c, 0, 64, 69
1, 145958, Control_c, 0, 64, 69
1, 145969, Note_on_c, 0, 81, 66
1, 145972, Control_c, 0, 64, 64
1, 145978, Note_off_c, 0, 80, 57
1, 145993, Note_on_c, 0, 65, 48
1, 145994, Control_c, 0, 64, 0
1, 146007, Note_off_c, 0, 81, 61
1, 146092, Note_off_c, 0, 65, 52
1, 146140, Note_on_c, 0, 81, 67
1, 146143, Note_on_c, 0, 69, 43
1, 146167, Note_off_c, 0, 81, 66
1, 146203, Note_off_c, 0, 69, 0
1, 146239, Poly_aftertouch_c, 0, 69, 127
1, 146274, Note_off_c, 0, 60, 50
1, 146294, Note_on_c, 0, 81, 68
1, 146310, Note_on_c, 0, 65, 40
1, 146319, Note_off_c, 0, 81, 68
1, 146439, Poly_aftertouch_c, 0, 69, 0
1, 146455, Control_c, 0, 64, 57
1, 146456, Note_off_c, 0, 65, 40
1, 146459, Note_on_c, 0, 60, 49
1, 146468, Note_on_c, 0, 81, 62
1, 146499, Control_c, 0, 64, 57
1, 146514, Control_c, 0, 64, 59
1, 146529, Control_c, 0, 64, 61
1, 146543, Control_c, 0, 64, 63
1, 146558, Control_c, 0, 64, 64
1, 146573, Control_c, 0, 64, 65
1, 146587, Control_c, 0, 64, 66
1, 146602, Control_c, 0, 64, 67
1, 146617, Control_c, 0, 64, 68
1, 146618, Note_on_c, 0, 65, 42
1, 146632, Control_c, 0, 64, 70
1, 146647, Control_c, 0, 64, 72
1, 146662, Control_c, 0, 64, 73
1, 146677, Control_c, 0, 64, 74
1, 146692, Control_c, 0, 64, 75
1, 146706, Control_c, 0, 64, 75
1, 146721, Control_c, 0, 64, 76
1, 146742, Note_off_c, 0, 81, 57
1, 146743, Control_c, 0, 64, 77
1, 146758, Control_c, 0, 64, 79
1, 146773, Control_c, 0, 64, 80
1, 146781, Note_on_c, 0, 69, 56
1, 146785, Note_off_c, 0, 65, 34
1, 146788, Control_c, 0, 64, 82
1, 146802, Control_c, 0, 64, 84
1, 146817, Control_c, 0, 64, 86
1, 146832, Control_c, 0, 64, 87
1, 146847, Control_c, 0, 64, 88
1, 146862, Control_c, 0, 64, 88
1, 146874, Note_off_c, 0, 60, 51
1, 146876, Note_off_c, 0, 69, 59
1, 146876, Control_c, 0, 64, 89
1, 146891, Control_c, 0, 64, 90
1, 146906, Control_c, 0, 64, 90
1, 146921, Control_c, 0, 64, 91
1, 146926, Note_on_c, 0, 65, 54
1, 146936, Control_c, 0, 64, 91
1, 146966, Control_c, 0, 64, 92
1, 146977, Note_off_c, 0, 65, 49
1, 147070, Control_c, 0, 64, 90
1, 147085, Control_c, 0, 64, 72
1, 147097, Note_on_c, 0, 65, 69
1, 147100, Note_on_c, 0, 86, 80
1, 147100, Control_c, 0, 64, 26
1, 147101, Note_on_c, 0, 67, 69
1, 147105, Note_on_c, 0, 62, 65
1, 147109, Note_on_c, 0, 59, 59
1, 147115, Control_c, 0, 64, 0
1, 147160, Note_off_c, 0, 86, 54
1, 147179, Note_on_c, 0, 88, 77
1, 147189, Control_c, 0, 64, 52
1, 147204, Control_c, 0, 64, 56
1, 147218, Control_c, 0, 64, 53
1, 147233, Control_c, 0, 64, 40
1, 147238, Note_off_c, 0, 88, 65
1, 147248, Control_c, 0, 64, 0
1, 147251, Note_on_c, 0, 89, 72
1, 147323, Note_on_c, 0, 88, 72
1, 147355, Note_off_c, 0, 89, 43
1, 147395, Note_on_c, 0, 86, 73
1, 147399, Note_off_c, 0, 88, 65
1, 147437, Note_off_c, 0, 86, 64
1, 147470, Note_on_c, 0, 84, 63
1, 147514, Note_off_c, 0, 84, 55
1, 147551, Note_on_c, 0, 83, 62
1, 147619, Note_on_c, 0, 81, 68
1, 147624, Note_off_c, 0, 83, 59
1, 147659, Note_off_c, 0, 81, 63
1, 147691, Note_on_c, 0, 79, 66
1, 147714, Control_c, 0, 64, 63
1, 147723, Note_off_c, 0, 79, 63
1, 147729, Control_c, 0, 64, 65
1, 147744, Control_c, 0, 64, 67
1, 147757, Note_on_c, 0, 83, 68
1, 147759, Control_c, 0, 64, 70
1, 147774, Control_c, 0, 64, 74
1, 147789, Control_c, 0, 64, 77
1, 147801, Note_off_c, 0, 83, 60
1, 147803, Control_c, 0, 64, 79
1, 147818, Control_c, 0, 64, 80
1, 147829, Note_on_c, 0, 86, 69
1, 147848, Control_c, 0, 64, 81
1, 147862, Note_off_c, 0, 62, 49
1, 147863, Control_c, 0, 64, 82
1, 147878, Control_c, 0, 64, 83
1, 147887, Note_off_c, 0, 67, 47
1, 147893, Control_c, 0, 64, 84
1, 147896, Note_off_c, 0, 59, 58
1, 147899, Note_off_c, 0, 65, 35
1, 147906, Note_off_c, 0, 86, 61
1, 147908, Note_on_c, 0, 84, 66
1, 147908, Control_c, 0, 64, 85
1, 147923, Control_c, 0, 64, 86
1, 147938, Control_c, 0, 64, 86
1, 147953, Control_c, 0, 64, 87
1, 147979, Note_on_c, 0, 83, 74
1, 147982, Control_c, 0, 64, 88
1, 147988, Note_off_c, 0, 84, 55
1, 147997, Control_c, 0, 64, 88
1, 148012, Control_c, 0, 64, 89
1, 148027, Control_c, 0, 64, 90
1, 148040, Note_off_c, 0, 83, 60
1, 148041, Control_c, 0, 64, 90
1, 148047, Note_on_c, 0, 81, 70
1, 148056, Control_c, 0, 64, 91
1, 148071, Control_c, 0, 64, 92
1, 148078, Note_off_c, 0, 81, 62
1, 148086, Control_c, 0, 64, 94
1, 148101, Control_c, 0, 64, 95
1, 148115, Control_c, 0, 64, 96
1, 148127, Note_on_c, 0, 79, 62
1, 148130, Control_c, 0, 64, 96
1, 148145, Control_c, 0, 64, 97
1, 148194, Note_off_c, 0, 79, 57
1, 148204, Note_on_c, 0, 77, 57
1, 148204, Control_c, 0, 64, 90
1, 148219, Control_c, 0, 64, 72
1, 148241, Control_c, 0, 64, 49
1, 148256, Control_c, 0, 64, 0
1, 148258, Note_off_c, 0, 77, 55
1, 148275, Note_on_c, 0, 60, 51
1, 148286, Control_c, 0, 64, 37
1, 148290, Note_on_c, 0, 76, 58
1, 148301, Control_c, 0, 64, 58
1, 148315, Control_c, 0, 64, 67
1, 148330, Control_c, 0, 64, 74
1, 148345, Control_c, 0, 64, 83
1, 148359, Control_c, 0, 64, 90
1, 148374, Control_c, 0, 64, 96
1, 148382, Note_off_c, 0, 60, 56
1, 148389, Control_c, 0, 64, 103
1, 148404, Note_on_c, 0, 64, 52
1, 148404, Control_c, 0, 64, 114
1, 148419, Control_c, 0, 64, 127
1, 148424, Note_off_c, 0, 76, 35
1, 148480, Note_off_c, 0, 64, 61
1, 148507, Note_on_c, 0, 72, 53
1, 148558, Note_on_c, 0, 79, 69
1, 148561, Note_on_c, 0, 62, 70
1, 148576, Note_off_c, 0, 72, 54
1, 148582, Note_off_c, 0, 79, 70
1, 148592, Note_on_c, 0, 77, 65
1, 148619, Note_off_c, 0, 77, 67
1, 148645, Note_on_c, 0, 79, 73
1, 148668, Note_on_c, 0, 65, 59
1, 148671, Note_off_c, 0, 62, 54
1, 148689, Note_on_c, 0, 77, 72
1, 148692, Note_off_c, 0, 79, 59
1, 148740, Note_off_c, 0, 77, 63
1, 148754, Note_on_c, 0, 76, 70
1, 148785, Note_off_c, 0, 65, 54
1, 148789, Note_on_c, 0, 72, 50
1, 148796, Note_on_c, 0, 77, 73
1, 148809, Note_off_c, 0, 76, 62
1, 148845, Note_off_c, 0, 72, 51
1, 148862, Note_off_c, 0, 77, 61
1, 148863, Note_on_c, 0, 79, 86
1, 148864, Control_c, 0, 64, 117
1, 148879, Control_c, 0, 64, 77
1, 148885, Note_on_c, 0, 64, 62
1, 148894, Control_c, 0, 64, 45
1, 148908, Control_c, 0, 64, 0
1, 148953, Control_c, 0, 64, 46
1, 148968, Control_c, 0, 64, 63
1, 148990, Control_c, 0, 64, 67
1, 149005, Control_c, 0, 64, 71
1, 149020, Control_c, 0, 64, 77
1, 149035, Control_c, 0, 64, 83
1, 149043, Note_on_c, 0, 67, 51
1, 149046, Note_off_c, 0, 64, 38
1, 149050, Control_c, 0, 64, 90
1, 149064, Control_c, 0, 64, 98
1, 149079, Control_c, 0, 64, 107
1, 149094, Control_c, 0, 64, 118
1, 149108, Control_c, 0, 64, 127
1, 149121, Note_on_c, 0, 72, 51
1, 149138, Note_off_c, 0, 79, 61
1, 149138, Control_c, 0, 67, 12
1, 149153, Control_c, 0, 67, 20
1, 149168, Control_c, 0, 67, 33
1, 149182, Control_c, 0, 67, 48
1, 149188, Note_off_c, 0, 72, 52
1, 149197, Control_c, 0, 67, 58
1, 149212, Control_c, 0, 67, 62
1, 149227, Control_c, 0, 67, 63
1, 149234, Note_off_c, 0, 67, 35
1, 149234, Note_on_c, 0, 60, 50
1, 149271, Control_c, 0, 67, 64
1, 149286, Control_c, 0, 67, 65
1, 149288, Note_off_c, 0, 60, 53
1, 149301, Control_c, 0, 67, 66
1, 149315, Note_on_c, 0, 64, 49
1, 149315, Control_c, 0, 67, 68
1, 149330, Control_c, 0, 67, 70
1, 149345, Control_c, 0, 67, 70
1, 149360, Control_c, 0, 67, 71
1, 149376, Note_off_c, 0, 64, 57
1, 149404, Control_c, 0, 67, 70
1, 149434, Note_on_c, 0, 72, 47
1, 149434, Control_c, 0, 67, 70
1, 149449, Control_c, 0, 67, 69
1, 149465, Control_c, 0, 67, 68
1, 149479, Control_c, 0, 67, 66
1, 149494, Control_c, 0, 67, 65
1, 149509, Note_on_c, 0, 81, 52
1, 149509, Control_c, 0, 67, 64
1, 149524, Control_c, 0, 64, 106
1, 149524, Control_c, 0, 67, 64
1, 149538, Control_c, 0, 64, 92
1, 149538, Control_c, 0, 67, 63
1, 149546, Note_off_c, 0, 72, 37
1, 149549, Note_on_c, 0, 65, 49
1, 149553, Control_c, 0, 64, 75
1, 149553, Control_c, 0, 67, 62
1, 149568, Control_c, 0, 64, 62
1, 149568, Control_c, 0, 67, 61
1, 149583, Control_c, 0, 64, 0
1, 149583, Control_c, 0, 67, 60
1, 149586, Note_off_c, 0, 81, 51
1, 149592, Note_on_c, 0, 83, 43
1, 149598, Control_c, 0, 67, 58
1, 149613, Control_c, 0, 67, 57
1, 149628, Control_c, 0, 67, 54
1, 149630, Note_off_c, 0, 83, 64
1, 149642, Note_on_c, 0, 84, 61
1, 149643, Control_c, 0, 67, 51
1, 149657, Note_off_c, 0, 65, 56
1, 149658, Control_c, 0, 67, 48
1, 149672, Note_off_c, 0, 84, 65
1, 149673, Control_c, 0, 67, 45
1, 149684, Note_on_c, 0, 69, 42
1, 149687, Control_c, 0, 67, 43
1, 149702, Control_c, 0, 67, 42
1, 149717, Control_c, 0, 67, 40
1, 149738, Control_c, 0, 67, 39
1, 149753, Note_off_c, 0, 69, 57
1, 149753, Control_c, 0, 67, 37
1, 149768, Control_c, 0, 67, 36
1, 149783, Control_c, 0, 67, 35
1, 149797, Note_on_c, 0, 72, 30
1, 149798, Control_c, 0, 67, 34
1, 149813, Control_c, 0, 67, 34
1, 149842, Control_c, 0, 67, 33
1, 149852, Note_off_c, 0, 72, 44
1, 149857, Control_c, 0, 67, 33
1, 149886, Note_on_c, 0, 84, 65
1, 149896, Note_on_c, 0, 65, 43
1, 149914, Note_off_c, 0, 84, 63
1, 149931, Control_c, 0, 67, 32
1, 149956, Note_off_c, 0, 65, 39
1, 150004, Note_on_c, 0, 69, 43
1, 150005, Control_c, 0, 67, 32
1, 150087, Note_off_c, 0, 69, 56
1, 150114, Note_on_c, 0, 72, 37
1, 150120, Note_on_c, 0, 84, 68
1, 150138, Control_c, 0, 67, 31
1, 150149, Note_off_c, 0, 72, 52
1, 150150, Note_off_c, 0, 84, 59
1, 150168, Control_c, 0, 67, 31
1, 150198, Control_c, 0, 67, 30
1, 150203, Note_on_c, 0, 84, 60
1, 150205, Note_on_c, 0, 65, 48
1, 150212, Control_c, 0, 67, 29
1, 150227, Control_c, 0, 67, 28
1, 150242, Control_c, 0, 67, 26
1, 150258, Control_c, 0, 67, 24
1, 150263, Note_off_c, 0, 65, 53
1, 150273, Control_c, 0, 67, 21
1, 150288, Control_c, 0, 67, 19
1, 150302, Control_c, 0, 67, 18
1, 150317, Control_c, 0, 67, 16
1, 150319, Note_on_c, 0, 69, 44
1, 150332, Control_c, 0, 67, 15
1, 150347, Control_c, 0, 67, 15
1, 150361, Control_c, 0, 67, 14
1, 150372, Note_off_c, 0, 69, 49
1, 150376, Control_c, 0, 67, 13
1, 150391, Control_c, 0, 67, 13
1, 150406, Control_c, 0, 67, 12
1, 150412, Note_on_c, 0, 72, 47
1, 150421, Control_c, 0, 67, 12
1, 150436, Control_c, 0, 67, 11
1, 150451, Control_c, 0, 67, 11
1, 150457, Note_off_c, 0, 72, 60
1, 150465, Control_c, 0, 67, 10
1, 150487, Control_c, 0, 67, 10
1, 150495, Note_off_c, 0, 84, 62
1, 150502, Control_c, 0, 67, 9
1, 150513, Note_on_c, 0, 65, 51
1, 150517, Control_c, 0, 67, 9
1, 150519, Note_on_c, 0, 83, 61
1, 150532, Control_c, 0, 67, 0
1, 150559, Note_off_c, 0, 65, 57
1, 150582, Note_on_c, 0, 81, 60
1, 150588, Note_off_c, 0, 83, 54
1, 150622, Note_on_c, 0, 69, 43
1, 150642, Note_off_c, 0, 81, 63
1, 150647, Note_off_c, 0, 69, 58
1, 150659, Note_on_c, 0, 79, 55
1, 150698, Note_off_c, 0, 79, 64
1, 150710, Control_c, 0, 64, 28
1, 150716, Note_on_c, 0, 72, 42
1, 150725, Control_c, 0, 64, 63
1, 150726, Note_on_c, 0, 77, 64
1, 150740, Control_c, 0, 64, 66
1, 150754, Control_c, 0, 64, 69
1, 150769, Control_c, 0, 64, 73
1, 150784, Control_c, 0, 64, 80
1, 150799, Control_c, 0, 64, 86
1, 150803, Note_off_c, 0, 77, 59
1, 150807, Note_off_c, 0, 72, 32
1, 150810, Note_on_c, 0, 60, 39
1, 150814, Control_c, 0, 64, 92
1, 150817, Note_on_c, 0, 76, 61
1, 150828, Control_c, 0, 64, 98
1, 150843, Control_c, 0, 64, 106
1, 150856, Note_off_c, 0, 76, 59
1, 150858, Control_c, 0, 64, 111
1, 150873, Control_c, 0, 64, 118
1, 150887, Control_c, 0, 64, 127
1, 150896, Note_off_c, 0, 60, 56
1, 150918, Note_on_c, 0, 64, 49
1, 150993, Note_off_c, 0, 64, 57
1, 151039, Note_on_c, 0, 72, 42
1, 151100, Note_off_c, 0, 72, 39
1, 151101, Note_on_c, 0, 79, 64
1, 151109, Note_on_c, 0, 62, 59
1, 151129, Note_off_c, 0, 79, 69
1, 151149, Note_on_c, 0, 77, 57
1, 151176, Note_off_c, 0, 77, 62
1, 151197, Note_on_c, 0, 79, 75
1, 151210, Note_on_c, 0, 65, 54
1, 151217, Note_off_c, 0, 62, 52
1, 151245, Note_off_c, 0, 79, 49
1, 151251, Note_on_c, 0, 77, 68
1, 151300, Note_off_c, 0, 77, 60
1, 151305, Note_off_c, 0, 65, 57
1, 151312, Note_on_c, 0, 76, 70
1, 151330, Note_on_c, 0, 72, 42
1, 151356, Note_on_c, 0, 77, 61
1, 151372, Note_off_c, 0, 76, 62
1, 151394, Note_off_c, 0, 72, 57
1, 151413, Note_on_c, 0, 79, 86
1, 151415, Note_off_c, 0, 77, 63
1, 151429, Control_c, 0, 64, 87
1, 151431, Note_on_c, 0, 64, 56
1, 151444, Control_c, 0, 64, 63
1, 151458, Control_c, 0, 64, 0
1, 151503, Control_c, 0, 64, 44
1, 151518, Control_c, 0, 64, 64
1, 151533, Control_c, 0, 64, 70
1, 151548, Control_c, 0, 64, 76
1, 151549, Note_off_c, 0, 64, 54
1, 151562, Control_c, 0, 64, 82
1, 151566, Note_on_c, 0, 67, 52
1, 151577, Control_c, 0, 64, 89
1, 151577, Control_c, 0, 67, 9
1, 151592, Control_c, 0, 64, 95
1, 151592, Control_c, 0, 67, 11
1, 151607, Control_c, 0, 64, 100
1, 151607, Control_c, 0, 67, 12
1, 151622, Control_c, 0, 64, 102
1, 151622, Control_c, 0, 67, 13
1, 151637, Control_c, 0, 64, 104
1, 151637, Control_c, 0, 67, 13
1, 151652, Control_c, 0, 64, 105
1, 151652, Control_c, 0, 67, 15
1, 151655, Note_off_c, 0, 79, 61
1, 151661, Note_on_c, 0, 72, 43
1, 151667, Control_c, 0, 64, 106
1, 151667, Control_c, 0, 67, 18
1, 151682, Control_c, 0, 64, 107
1, 151682, Control_c, 0, 67, 22
1, 151697, Control_c, 0, 64, 108
1, 151697, Control_c, 0, 67, 28
1, 151711, Control_c, 0, 67, 34
1, 151726, Control_c, 0, 67, 38
1, 151731, Note_off_c, 0, 72, 49
1, 151741, Control_c, 0, 67, 41
1, 151756, Control_c, 0, 67, 45
1, 151761, Note_on_c, 0, 60, 49
1, 151767, Note_off_c, 0, 67, 36
1, 151771, Control_c, 0, 67, 48
1, 151785, Control_c, 0, 67, 51
1, 151800, Control_c, 0, 67, 53
1, 151815, Control_c, 0, 67, 54
1, 151829, Control_c, 0, 67, 55
1, 151840, Note_off_c, 0, 60, 57
1, 151864, Note_on_c, 0, 64, 51
1, 151890, Control_c, 0, 64, 107
1, 151905, Control_c, 0, 64, 106
1, 151911, Note_off_c, 0, 64, 59
1, 151920, Control_c, 0, 64, 104
1, 151934, Control_c, 0, 64, 101
1, 151949, Control_c, 0, 64, 97
1, 151964, Control_c, 0, 64, 94
1, 151986, Control_c, 0, 64, 90
1, 152001, Note_on_c, 0, 72, 34
1, 152001, Control_c, 0, 64, 86
1, 152016, Control_c, 0, 64, 82
1, 152030, Control_c, 0, 64, 76
1, 152045, Control_c, 0, 64, 71
1, 152060, Control_c, 0, 64, 64
1, 152062, Note_on_c, 0, 81, 40
1, 152075, Control_c, 0, 64, 54
1, 152088, Note_off_c, 0, 72, 36
1, 152090, Control_c, 0, 64, 46
1, 152105, Control_c, 0, 64, 42
1, 152105, Control_c, 0, 67, 54
1, 152105, Note_on_c, 0, 65, 24
1, 152107, Note_off_c, 0, 81, 52
1, 152119, Note_on_c, 0, 83, 45
1, 152120, Control_c, 0, 64, 31
1, 152134, Control_c, 0, 64, 0
1, 152149, Control_c, 0, 67, 54
1, 152163, Note_off_c, 0, 83, 61
1, 152185, Note_on_c, 0, 84, 56
1, 152194, Note_off_c, 0, 65, 52
1, 152211, Note_off_c, 0, 84, 62
1, 152223, Note_on_c, 0, 69, 34
1, 152238, Control_c, 0, 67, 53
1, 152265, Note_off_c, 0, 69, 49
1, 152306, Note_on_c, 0, 72, 46
1, 152379, Note_off_c, 0, 72, 51
1, 152407, Note_on_c, 0, 84, 73
1, 152430, Note_on_c, 0, 65, 44
1, 152436, Note_off_c, 0, 84, 61
1, 152469, Note_off_c, 0, 65, 49
1, 152535, Note_on_c, 0, 69, 34
1, 152596, Note_off_c, 0, 69, 48
1, 152629, Note_on_c, 0, 72, 42
1, 152634, Note_on_c, 0, 84, 67
1, 152665, Note_off_c, 0, 84, 60
1, 152672, Note_off_c, 0, 72, 54
1, 152719, Note_on_c, 0, 84, 60
1, 152724, Note_on_c, 0, 65, 55
1, 152775, Note_off_c, 0, 65, 57
1, 152835, Note_on_c, 0, 69, 48
1, 152886, Note_off_c, 0, 69, 59
1, 152943, Note_on_c, 0, 72, 39
1, 152975, Note_off_c, 0, 72, 54
1, 153012, Note_off_c, 0, 84, 61
1, 153017, Control_c, 0, 67, 53
1, 153029, Note_on_c, 0, 65, 44
1, 153031, Control_c, 0, 67, 52
1, 153032, Note_on_c, 0, 83, 55
1, 153046, Control_c, 0, 67, 52
1, 153061, Control_c, 0, 67, 51
1, 153075, Control_c, 0, 67, 49
1, 153077, Note_off_c, 0, 65, 52
1, 153090, Control_c, 0, 67, 48
1, 153097, Note_on_c, 0, 81, 59
1, 153103, Note_off_c, 0, 83, 53
1, 153105, Control_c, 0, 67, 47
1, 153119, Control_c, 0, 67, 45
1, 153134, Control_c, 0, 67, 44
1, 153145, Note_on_c, 0, 69, 35
1, 153148, Control_c, 0, 67, 42
1, 153157, Note_off_c, 0, 81, 61
1, 153163, Control_c, 0, 67, 39
1, 153171, Note_on_c, 0, 79, 59
1, 153178, Control_c, 0, 67, 34
1, 153182, Note_off_c, 0, 69, 51
1, 153193, Control_c, 0, 67, 30
1, 153208, Control_c, 0, 67, 26
1, 153220, Note_off_c, 0, 79, 60
1, 153223, Control_c, 0, 67, 22
1, 153238, Control_c, 0, 67, 17
1, 153253, Control_c, 0, 67, 11
1, 153255, Note_on_c, 0, 77, 59
1, 153267, Control_c, 0, 67, 0
1, 153309, Poly_aftertouch_c, 0, 72, 127
1, 153312, Control_c, 0, 64, 47
1, 153327, Control_c, 0, 64, 55
1, 153333, Note_off_c, 0, 77, 61
1, 153339, Note_on_c, 0, 60, 34
1, 153342, Control_c, 0, 64, 59
1, 153347, Poly_aftertouch_c, 0, 72, 0
1, 153351, Note_on_c, 0, 76, 51
1, 153356, Control_c, 0, 64, 61
1, 153371, Control_c, 0, 64, 63
1, 153386, Note_off_c, 0, 76, 67
1, 153386, Control_c, 0, 64, 64
1, 153400, Control_c, 0, 64, 66
1, 153415, Control_c, 0, 64, 67
1, 153430, Control_c, 0, 64, 69
1, 153446, Control_c, 0, 64, 71
1, 153461, Control_c, 0, 64, 72
1, 153483, Control_c, 0, 64, 74
1, 153498, Control_c, 0, 64, 75
1, 153512, Control_c, 0, 64, 76
1, 153527, Control_c, 0, 64, 78
1, 153542, Control_c, 0, 64, 79
1, 153557, Control_c, 0, 64, 81
1, 153572, Control_c, 0, 64, 83
1, 153586, Control_c, 0, 64, 84
1, 153589, Note_on_c, 0, 84, 74
1, 153601, Control_c, 0, 64, 85
1, 153619, Note_off_c, 0, 60, 39
1, 153655, Note_on_c, 0, 86, 80
1, 153658, Note_off_c, 0, 84, 61
1, 153720, Control_c, 0, 64, 84
1, 153727, Note_on_c, 0, 88, 80
1, 153727, Note_off_c, 0, 86, 65
1, 153735, Control_c, 0, 64, 81
1, 153750, Control_c, 0, 64, 74
1, 153765, Control_c, 0, 64, 63
1, 153779, Control_c, 0, 64, 0
1, 153807, Note_on_c, 0, 86, 73
1, 153837, Note_off_c, 0, 88, 63
1, 153882, Note_on_c, 0, 84, 71
1, 153943, Note_off_c, 0, 86, 56
1, 153958, Note_on_c, 0, 83, 74
1, 153984, Note_off_c, 0, 84, 60
1, 154016, Note_off_c, 0, 83, 64
1, 154016, Control_c, 0, 64, 59
1, 154023, Note_on_c, 0, 81, 73
1, 154028, Note_on_c, 0, 53, 62
1, 154031, Control_c, 0, 64, 64
1, 154046, Control_c, 0, 64, 66
1, 154060, Control_c, 0, 64, 68
1, 154071, Note_off_c, 0, 81, 60
1, 154075, Control_c, 0, 64, 72
1, 154090, Control_c, 0, 64, 76
1, 154099, Note_on_c, 0, 79, 69
1, 154105, Control_c, 0, 64, 80
1, 154120, Control_c, 0, 64, 83
1, 154135, Control_c, 0, 64, 85
1, 154150, Control_c, 0, 64, 87
1, 154165, Control_c, 0, 64, 89
1, 154174, Note_on_c, 0, 77, 67
1, 154179, Control_c, 0, 64, 89
1, 154194, Control_c, 0, 64, 91
1, 154209, Control_c, 0, 64, 92
1, 154230, Control_c, 0, 64, 93
1, 154236, Note_off_c, 0, 79, 57
1, 154242, Note_on_c, 0, 76, 74
1, 154245, Control_c, 0, 64, 94
1, 154261, Control_c, 0, 64, 95
1, 154272, Note_off_c, 0, 77, 61
1, 154276, Control_c, 0, 64, 96
1, 154291, Control_c, 0, 64, 96
1, 154302, Note_off_c, 0, 76, 65
1, 154321, Note_on_c, 0, 74, 70
1, 154369, Note_off_c, 0, 74, 58
1, 154386, Note_on_c, 0, 72, 75
1, 154462, Note_on_c, 0, 71, 68
1, 154518, Note_off_c, 0, 72, 54
1, 154523, Note_on_c, 0, 69, 74
1, 154569, Note_off_c, 0, 71, 58
1, 154573, Control_c, 0, 64, 93
1, 154588, Control_c, 0, 64, 81
1, 154601, Note_off_c, 0, 69, 62
1, 154602, Control_c, 0, 64, 63
1, 154607, Note_on_c, 0, 67, 76
1, 154617, Control_c, 0, 64, 0
1, 154618, Note_on_c, 0, 55, 71
1, 154635, Note_off_c, 0, 53, 62
1, 154643, Note_off_c, 0, 67, 60
1, 154663, Note_off_c, 0, 55, 61
1, 154994, Control_c, 0, 64, 55
1, 155009, Control_c, 0, 64, 59
1, 155024, Control_c, 0, 64, 61
1, 155039, Control_c, 0, 64, 63
1, 155044, Note_on_c, 0, 65, 54
1, 155049, Note_on_c, 0, 59, 43
1, 155053, Note_on_c, 0, 56, 42
1, 155055, Control_c, 0, 64, 65
1, 155056, Note_on_c, 0, 62, 40
1, 155070, Control_c, 0, 64, 66
1, 155084, Control_c, 0, 64, 68
1, 155099, Control_c, 0, 64, 70
1, 155114, Control_c, 0, 64, 73
1, 155129, Control_c, 0, 64, 75
1, 155144, Control_c, 0, 64, 77
1, 155158, Control_c, 0, 64, 79
1, 155173, Control_c, 0, 64, 81
1, 155188, Control_c, 0, 64, 84
1, 155203, Control_c, 0, 64, 85
1, 155218, Control_c, 0, 64, 87
1, 155232, Control_c, 0, 64, 89
1, 155247, Control_c, 0, 64, 90
1, 155262, Control_c, 0, 64, 91
1, 155277, Control_c, 0, 64, 92
1, 155292, Control_c, 0, 64, 93
1, 155306, Control_c, 0, 64, 93
1, 155321, Control_c, 0, 64, 94
1, 155336, Control_c, 0, 64, 94
1, 155366, Control_c, 0, 64, 95
1, 155396, Control_c, 0, 64, 95
1, 155441, Control_c, 0, 64, 96
1, 155455, Control_c, 0, 67, 8
1, 155470, Control_c, 0, 67, 9
1, 155473, Note_off_c, 0, 62, 44
1, 155485, Control_c, 0, 64, 96
1, 155485, Control_c, 0, 67, 9
1, 155500, Control_c, 0, 67, 10
1, 155515, Control_c, 0, 64, 97
1, 155515, Control_c, 0, 67, 11
1, 155530, Control_c, 0, 64, 97
1, 155530, Control_c, 0, 67, 12
1, 155544, Control_c, 0, 64, 98
1, 155544, Control_c, 0, 67, 12
1, 155559, Control_c, 0, 67, 13
1, 155574, Control_c, 0, 64, 98
1, 155589, Control_c, 0, 64, 99
1, 155697, Note_off_c, 0, 59, 37
1, 155730, Control_c, 0, 67, 13
1, 155751, Note_off_c, 0, 56, 29
1, 155759, Control_c, 0, 67, 14
1, 155774, Control_c, 0, 67, 14
1, 155774, Note_off_c, 0, 65, 52
1, 155778, Note_on_c, 0, 57, 36
1, 155779, Note_on_c, 0, 60, 45
1, 155780, Note_on_c, 0, 64, 43
1, 155803, Control_c, 0, 64, 98
1, 155803, Control_c, 0, 67, 15
1, 155818, Note_off_c, 0, 57, 47
1, 155818, Control_c, 0, 64, 98
1, 155818, Control_c, 0, 67, 16
1, 155833, Control_c, 0, 64, 96
1, 155833, Control_c, 0, 67, 17
1, 155849, Control_c, 0, 64, 92
1, 155849, Control_c, 0, 67, 17
1, 155864, Control_c, 0, 64, 87
1, 155864, Control_c, 0, 67, 18
1, 155879, Control_c, 0, 64, 80
1, 155894, Control_c, 0, 64, 72
1, 155894, Control_c, 0, 67, 18
1, 155908, Control_c, 0, 64, 64
1, 155923, Control_c, 0, 64, 55
1, 155938, Control_c, 0, 64, 50
1, 155982, Control_c, 0, 64, 49
1, 155997, Control_c, 0, 64, 47
1, 156012, Control_c, 0, 64, 43
1, 156026, Control_c, 0, 64, 38
1, 156041, Control_c, 0, 64, 30
1, 156056, Control_c, 0, 64, 16
1, 156070, Note_off_c, 0, 64, 62
1, 156071, Control_c, 0, 64, 0
1, 156076, Note_off_c, 0, 60, 56
1, 156106, Note_on_c, 0, 53, 38
1, 156124, Note_on_c, 0, 57, 23
1, 156130, Control_c, 0, 67, 19
1, 156145, Control_c, 0, 67, 19
1, 156160, Control_c, 0, 67, 20
1, 156174, Control_c, 0, 67, 23
1, 156189, Control_c, 0, 67, 26
1, 156204, Control_c, 0, 67, 29
1, 156219, Control_c, 0, 67, 32
1, 156233, Control_c, 0, 67, 34
1, 156248, Control_c, 0, 67, 36
1, 156263, Control_c, 0, 67, 36
1, 156280, Note_on_c, 0, 62, 50
1, 156324, Note_off_c, 0, 62, 59
1, 156338, Control_c, 0, 67, 36
1, 156352, Control_c, 0, 67, 35
1, 156367, Control_c, 0, 67, 34
1, 156382, Control_c, 0, 67, 34
1, 156397, Control_c, 0, 67, 33
1, 156412, Control_c, 0, 67, 32
1, 156426, Control_c, 0, 67, 32
1, 156429, Note_on_c, 0, 65, 57
1, 156441, Control_c, 0, 67, 31
1, 156464, Note_off_c, 0, 65, 61
1, 156478, Control_c, 0, 67, 30
1, 156493, Control_c, 0, 67, 30
1, 156508, Control_c, 0, 67, 28
1, 156523, Control_c, 0, 67, 27
1, 156538, Control_c, 0, 67, 25
1, 156552, Control_c, 0, 67, 23
1, 156567, Control_c, 0, 67, 19
1, 156582, Control_c, 0, 67, 13
1, 156592, Note_on_c, 0, 69, 58
1, 156597, Control_c, 0, 67, 0
1, 156624, Note_off_c, 0, 69, 65
1, 156641, Control_c, 0, 64, 53
1, 156657, Control_c, 0, 64, 57
1, 156672, Control_c, 0, 64, 60
1, 156687, Control_c, 0, 64, 63
1, 156701, Control_c, 0, 64, 64
1, 156716, Control_c, 0, 64, 65
1, 156725, Note_off_c, 0, 53, 36
1, 156731, Control_c, 0, 64, 66
1, 156746, Control_c, 0, 64, 67
1, 156761, Note_on_c, 0, 73, 63
1, 156767, Note_off_c, 0, 57, 39
1, 156805, Control_c, 0, 64, 66
1, 156820, Control_c, 0, 64, 62
1, 156835, Control_c, 0, 64, 40
1, 156849, Control_c, 0, 64, 16
1, 156863, Control_c, 0, 64, 25
1, 156878, Control_c, 0, 64, 44
1, 156893, Control_c, 0, 64, 57
1, 156908, Control_c, 0, 64, 62
1, 156913, Note_off_c, 0, 73, 62
1, 156922, Control_c, 0, 64, 64
1, 156925, Note_on_c, 0, 74, 65
1, 156937, Control_c, 0, 64, 66
1, 156952, Control_c, 0, 64, 68
1, 156967, Control_c, 0, 64, 70
1, 156982, Control_c, 0, 64, 72
1, 156997, Control_c, 0, 64, 74
1, 157012, Control_c, 0, 64, 76
1, 157026, Control_c, 0, 64, 78
1, 157041, Control_c, 0, 64, 81
1, 157056, Control_c, 0, 64, 83
1, 157071, Control_c, 0, 64, 85
1, 157086, Note_on_c, 0, 77, 75
1, 157086, Control_c, 0, 64, 86
1, 157101, Control_c, 0, 64, 88
1, 157116, Control_c, 0, 64, 90
1, 157130, Control_c, 0, 64, 92
1, 157145, Control_c, 0, 64, 93
1, 157160, Control_c, 0, 64, 94
1, 157174, Control_c, 0, 64, 95
1, 157178, Note_off_c, 0, 74, 44
1, 157189, Control_c, 0, 64, 96
1, 157204, Control_c, 0, 64, 97
1, 157226, Control_c, 0, 64, 98
1, 157235, Note_on_c, 0, 81, 71
1, 157238, Note_off_c, 0, 77, 60
1, 157241, Control_c, 0, 64, 98
1, 157256, Control_c, 0, 64, 99
1, 157271, Control_c, 0, 64, 99
1, 157274, Note_off_c, 0, 81, 52
1, 157286, Control_c, 0, 64, 100
1, 157301, Control_c, 0, 64, 100
1, 157316, Control_c, 0, 64, 101
1, 157345, Control_c, 0, 64, 101
1, 157404, Control_c, 0, 64, 101
1, 157419, Control_c, 0, 64, 95
1, 157422, Note_on_c, 0, 81, 62
1, 157434, Control_c, 0, 64, 80
1, 157450, Control_c, 0, 64, 65
1, 157465, Control_c, 0, 64, 41
1, 157479, Control_c, 0, 64, 37
1, 157494, Control_c, 0, 64, 42
1, 157509, Control_c, 0, 64, 47
1, 157524, Control_c, 0, 64, 55
1, 157539, Control_c, 0, 64, 62
1, 157553, Control_c, 0, 64, 65
1, 157568, Control_c, 0, 64, 69
1, 157583, Control_c, 0, 64, 75
1, 157587, Note_on_c, 0, 72, 55
1, 157597, Control_c, 0, 64, 79
1, 157612, Control_c, 0, 64, 81
1, 157627, Control_c, 0, 64, 83
1, 157637, Note_off_c, 0, 72, 56
1, 157642, Control_c, 0, 64, 86
1, 157657, Control_c, 0, 64, 89
1, 157671, Control_c, 0, 64, 93
1, 157686, Control_c, 0, 64, 95
1, 157701, Control_c, 0, 64, 97
1, 157716, Control_c, 0, 64, 98
1, 157762, Note_on_c, 0, 55, 49
1, 157764, Note_off_c, 0, 81, 58
1, 157769, Note_on_c, 0, 64, 46
1, 157770, Note_on_c, 0, 72, 54
1, 157775, Control_c, 0, 64, 93
1, 157790, Control_c, 0, 64, 79
1, 157804, Control_c, 0, 64, 65
1, 157819, Control_c, 0, 64, 20
1, 157834, Control_c, 0, 64, 0
1, 157879, Control_c, 0, 64, 39
1, 157894, Control_c, 0, 64, 56
1, 157909, Control_c, 0, 64, 63
1, 157924, Control_c, 0, 64, 66
1, 157938, Control_c, 0, 64, 69
1, 157953, Control_c, 0, 64, 72
1, 157975, Control_c, 0, 64, 73
1, 157990, Control_c, 0, 64, 75
1, 158004, Control_c, 0, 64, 76
1, 158019, Control_c, 0, 64, 77
1, 158034, Control_c, 0, 64, 79
1, 158049, Control_c, 0, 64, 80
1, 158064, Control_c, 0, 64, 81
1, 158097, Note_off_c, 0, 64, 60
1, 158123, Control_c, 0, 64, 76
1, 158126, Note_on_c, 0, 65, 43
1, 158138, Control_c, 0, 64, 66
1, 158153, Control_c, 0, 64, 39
1, 158168, Control_c, 0, 64, 0
1, 158197, Control_c, 0, 64, 37
1, 158212, Control_c, 0, 64, 53
1, 158227, Control_c, 0, 64, 62
1, 158243, Control_c, 0, 64, 66
1, 158258, Control_c, 0, 64, 69
1, 158272, Control_c, 0, 64, 72
1, 158287, Control_c, 0, 64, 74
1, 158302, Control_c, 0, 64, 75
1, 158317, Control_c, 0, 64, 75
1, 158332, Control_c, 0, 64, 76
1, 158362, Control_c, 0, 64, 76
1, 158382, Note_off_c, 0, 65, 31
1, 158423, Note_off_c, 0, 72, 58
1, 158433, Note_off_c, 0, 55, 53
1, 158475, Note_on_c, 0, 71, 40
1, 158478, Note_on_c, 0, 76, 44
1, 158589, Note_off_c, 0, 76, 62
1, 158631, Note_on_c, 0, 74, 45
1, 158680, Note_off_c, 0, 71, 35
1, 158740, Control_c, 0, 64, 75
1, 158754, Control_c, 0, 64, 67
1, 158769, Control_c, 0, 64, 0
1, 158792, Note_off_c, 0, 74, 57
1, 158821, Note_on_c, 0, 72, 45
1, 158824, Note_on_c, 0, 60, 40
1, 158851, Note_on_c, 0, 64, 29
1, 158858, Control_c, 0, 64, 47
1, 158873, Control_c, 0, 64, 61
1, 158888, Control_c, 0, 64, 63
1, 158902, Control_c, 0, 64, 65
1, 158917, Control_c, 0, 64, 66
1, 158925, Note_off_c, 0, 60, 61
1, 158932, Control_c, 0, 64, 68
1, 158946, Control_c, 0, 64, 70
1, 158950, Note_off_c, 0, 64, 37
1, 158961, Control_c, 0, 64, 73
1, 158976, Control_c, 0, 64, 74
1, 158991, Control_c, 0, 64, 75
1, 159006, Control_c, 0, 64, 75
1, 159036, Control_c, 0, 64, 76
1, 159155, Control_c, 0, 64, 75
1, 159170, Control_c, 0, 64, 75
1, 159172, Note_on_c, 0, 48, 36
1, 159185, Control_c, 0, 64, 74
1, 159199, Control_c, 0, 64, 70
1, 159209, Note_off_c, 0, 72, 61
1, 159214, Control_c, 0, 64, 64
1, 159229, Control_c, 0, 64, 44
1, 159244, Control_c, 0, 64, 0
1, 159363, Note_off_c, 0, 48, 46
1, 159534, Note_on_c, 0, 79, 73
1, 159685, Note_on_c, 0, 76, 69
1, 159836, Note_off_c, 0, 76, 63
1, 159843, Note_off_c, 0, 79, 63
1, 159851, Note_on_c, 0, 84, 66
1, 159876, Note_off_c, 0, 84, 66
1, 160023, Note_on_c, 0, 83, 56
1, 160043, Note_off_c, 0, 83, 63
1, 160184, Note_on_c, 0, 81, 54
1, 160204, Note_off_c, 0, 81, 61
1, 160347, Note_on_c, 0, 79, 49
1, 160370, Note_off_c, 0, 79, 60
1, 160502, Note_on_c, 0, 77, 47
1, 160524, Note_off_c, 0, 77, 59
1, 160671, Note_on_c, 0, 76, 24
1, 160705, Note_off_c, 0, 76, 47
1, 160841, Note_on_c, 0, 74, 21
1, 160878, Note_off_c, 0, 74, 46
1, 161165, Note_on_c, 0, 76, 48
1, 161190, Note_off_c, 0, 76, 60
1, 161370, Control_c, 0, 64, 51
1, 161384, Control_c, 0, 64, 59
1, 161399, Control_c, 0, 64, 62
1, 161414, Control_c, 0, 64, 64
1, 161429, Control_c, 0, 64, 66
1, 161444, Control_c, 0, 64, 68
1, 161459, Control_c, 0, 64, 72
1, 161474, Control_c, 0, 64, 75
1, 161489, Control_c, 0, 64, 79
1, 161495, Note_on_c, 0, 79, 57
1, 161504, Control_c, 0, 64, 81
1, 161519, Control_c, 0, 64, 85
1, 161534, Control_c, 0, 64, 88
1, 161548, Control_c, 0, 64, 91
1, 161563, Control_c, 0, 64, 93
1, 161578, Control_c, 0, 64, 96
1, 161593, Control_c, 0, 64, 99
1, 161608, Control_c, 0, 64, 102
1, 161623, Control_c, 0, 64, 104
1, 161637, Control_c, 0, 64, 105
1, 161652, Control_c, 0, 64, 107
1, 161665, Note_on_c, 0, 78, 50
1, 161667, Control_c, 0, 64, 107
1, 161682, Control_c, 0, 64, 108
1, 161689, Note_off_c, 0, 79, 36
1, 161808, Control_c, 0, 64, 107
1, 161823, Control_c, 0, 64, 93
1, 161826, Note_on_c, 0, 59, 37
1, 161833, Note_on_c, 0, 77, 42
1, 161835, Note_on_c, 0, 67, 35
1, 161837, Control_c, 0, 64, 75
1, 161852, Control_c, 0, 64, 59
1, 161861, Note_off_c, 0, 78, 31
1, 161867, Control_c, 0, 64, 0
1, 161911, Control_c, 0, 64, 22
1, 161926, Control_c, 0, 64, 55
1, 161941, Control_c, 0, 64, 64
1, 161956, Control_c, 0, 64, 67
1, 161970, Control_c, 0, 64, 70
1, 161985, Control_c, 0, 64, 73
1, 162000, Control_c, 0, 64, 75
1, 162015, Control_c, 0, 64, 77
1, 162030, Control_c, 0, 64, 78
1, 162044, Control_c, 0, 64, 80
1, 162059, Control_c, 0, 64, 82
1, 162074, Control_c, 0, 64, 83
1, 162088, Control_c, 0, 64, 84
1, 162112, Note_off_c, 0, 59, 60
1, 162124, Note_off_c, 0, 77, 54
1, 162149, Control_c, 0, 64, 83
1, 162151, Note_on_c, 0, 60, 44
1, 162153, Note_on_c, 0, 76, 54
1, 162163, Control_c, 0, 64, 77
1, 162178, Control_c, 0, 64, 66
1, 162193, Control_c, 0, 64, 46
1, 162208, Control_c, 0, 64, 42
1, 162223, Control_c, 0, 64, 48
1, 162239, Control_c, 0, 64, 57
1, 162254, Control_c, 0, 64, 63
1, 162268, Control_c, 0, 64, 67
1, 162283, Control_c, 0, 64, 71
1, 162295, Note_off_c, 0, 67, 41
1, 162298, Control_c, 0, 64, 74
1, 162300, Note_off_c, 0, 76, 46
1, 162308, Note_on_c, 0, 77, 61
1, 162312, Control_c, 0, 64, 77
1, 162327, Control_c, 0, 64, 80
1, 162342, Control_c, 0, 64, 81
1, 162357, Control_c, 0, 64, 83
1, 162372, Control_c, 0, 64, 85
1, 162378, Note_off_c, 0, 77, 60
1, 162381, Note_off_c, 0, 60, 60
1, 162386, Control_c, 0, 64, 87
1, 162401, Control_c, 0, 64, 88
1, 162416, Control_c, 0, 64, 90
1, 162431, Control_c, 0, 64, 91
1, 162446, Control_c, 0, 64, 91
1, 162454, Note_on_c, 0, 79, 75
1, 162468, Control_c, 0, 64, 92
1, 162483, Control_c, 0, 64, 93
1, 162498, Control_c, 0, 64, 94
1, 162512, Control_c, 0, 64, 96
1, 162513, Note_off_c, 0, 79, 62
1, 162527, Control_c, 0, 64, 99
1, 162542, Control_c, 0, 64, 102
1, 162557, Control_c, 0, 64, 104
1, 162572, Control_c, 0, 64, 107
1, 162587, Control_c, 0, 64, 109
1, 162601, Control_c, 0, 64, 113
1, 162610, Note_on_c, 0, 80, 83
1, 162616, Control_c, 0, 64, 120
1, 162631, Control_c, 0, 64, 127
1, 162641, Note_off_c, 0, 80, 55
1, 162801, Note_on_c, 0, 83, 74
1, 162806, Note_on_c, 0, 60, 60
1, 162807, Note_on_c, 0, 53, 59
1, 162839, Control_c, 0, 64, 80
1, 162854, Control_c, 0, 64, 59
1, 162864, Note_off_c, 0, 83, 62
1, 162868, Control_c, 0, 64, 9
1, 162879, Note_on_c, 0, 81, 71
1, 162883, Control_c, 0, 64, 28
1, 162898, Control_c, 0, 64, 56
1, 162905, Note_off_c, 0, 81, 65
1, 162912, Control_c, 0, 64, 66
1, 162920, Note_on_c, 0, 83, 61
1, 162927, Control_c, 0, 64, 75
1, 162942, Control_c, 0, 64, 89
1, 162957, Control_c, 0, 64, 103
1, 162958, Note_off_c, 0, 83, 61
1, 162971, Note_on_c, 0, 81, 83
1, 162972, Control_c, 0, 64, 114
1, 162986, Control_c, 0, 64, 127
1, 163025, Note_on_c, 0, 83, 82
1, 163032, Note_off_c, 0, 81, 61
1, 163089, Note_on_c, 0, 84, 82
1, 163091, Note_off_c, 0, 83, 65
1, 163091, Control_c, 0, 64, 114
1, 163106, Control_c, 0, 64, 85
1, 163121, Control_c, 0, 64, 69
1, 163125, Note_off_c, 0, 84, 60
1, 163135, Control_c, 0, 64, 54
1, 163150, Control_c, 0, 64, 40
1, 163165, Control_c, 0, 64, 39
1, 163180, Control_c, 0, 64, 37
1, 163195, Control_c, 0, 64, 32
1, 163217, Control_c, 0, 64, 12
1, 163232, Control_c, 0, 64, 0
1, 163280, Note_on_c, 0, 83, 66
1, 163307, Note_off_c, 0, 83, 66
1, 163445, Note_on_c, 0, 81, 56
1, 163473, Note_off_c, 0, 81, 65
1, 163601, Note_on_c, 0, 79, 54
1, 163635, Note_off_c, 0, 79, 65
1, 163730, Note_off_c, 0, 53, 59
1, 163740, Note_on_c, 0, 77, 59
1, 163740, Note_off_c, 0, 60, 49
1, 163748, Note_on_c, 0, 57, 45
1, 163756, Note_on_c, 0, 54, 44
1, 163778, Note_off_c, 0, 77, 58
1, 163899, Note_on_c, 0, 76, 50
1, 164066, Note_off_c, 0, 54, 44
1, 164068, Note_off_c, 0, 76, 58
1, 164074, Note_off_c, 0, 57, 45
1, 164080, Note_on_c, 0, 79, 50
1, 164085, Note_on_c, 0, 55, 42
1, 164104, Note_on_c, 0, 60, 33
1, 164389, Note_off_c, 0, 79, 54
1, 164402, Note_on_c, 0, 76, 46
1, 164453, Note_off_c, 0, 76, 56
1, 164454, Note_off_c, 0, 60, 43
1, 164469, Control_c, 0, 64, 57
1, 164483, Note_on_c, 0, 74, 42
1, 164483, Control_c, 0, 64, 64
1, 164489, Note_on_c, 0, 59, 41
1, 164498, Control_c, 0, 64, 66
1, 164513, Control_c, 0, 64, 68
1, 164528, Control_c, 0, 64, 72
1, 164539, Note_off_c, 0, 55, 55
1, 164543, Control_c, 0, 64, 75
1, 164557, Note_off_c, 0, 59, 57
1, 164557, Control_c, 0, 64, 78
1, 164564, Note_off_c, 0, 74, 60
1, 164572, Control_c, 0, 64, 81
1, 164587, Control_c, 0, 64, 83
1, 164602, Control_c, 0, 64, 84
1, 164616, Control_c, 0, 64, 85
1, 164633, Control_c, 0, 64, 85
1, 164788, Control_c, 0, 64, 85
1, 164803, Control_c, 0, 64, 78
1, 164818, Control_c, 0, 64, 65
1, 164833, Control_c, 0, 64, 0
1, 164864, Note_on_c, 0, 79, 73
1, 164865, Note_on_c, 0, 67, 74
1, 164921, Control_c, 0, 64, 51
1, 164936, Control_c, 0, 64, 64
1, 164951, Control_c, 0, 64, 67
1, 164966, Control_c, 0, 64, 72
1, 164980, Control_c, 0, 64, 78
1, 164995, Control_c, 0, 64, 84
1, 165010, Control_c, 0, 64, 89
1, 165025, Control_c, 0, 64, 94
1, 165039, Control_c, 0, 64, 99
1, 165054, Control_c, 0, 64, 104
1, 165063, Note_on_c, 0, 69, 73
1, 165068, Note_on_c, 0, 81, 64
1, 165069, Control_c, 0, 64, 106
1, 165084, Control_c, 0, 64, 107
1, 165094, Note_off_c, 0, 67, 54
1, 165099, Control_c, 0, 64, 108
1, 165111, Note_off_c, 0, 79, 56
1, 165122, Note_on_c, 0, 83, 71
1, 165129, Note_on_c, 0, 71, 70
1, 165135, Note_off_c, 0, 69, 59
1, 165143, Control_c, 0, 64, 106
1, 165152, Note_off_c, 0, 81, 63
1, 165158, Control_c, 0, 64, 95
1, 165169, Note_on_c, 0, 84, 81
1, 165173, Control_c, 0, 64, 77
1, 165174, Note_on_c, 0, 72, 82
1, 165176, Note_off_c, 0, 71, 64
1, 165177, Note_off_c, 0, 83, 63
1, 165188, Control_c, 0, 64, 52
1, 165203, Control_c, 0, 64, 0
1, 165211, Note_off_c, 0, 84, 62
1, 165218, Note_off_c, 0, 72, 61
1, 165346, Note_on_c, 0, 83, 74
1, 165353, Note_on_c, 0, 71, 54
1, 165374, Note_off_c, 0, 71, 63
1, 165379, Note_off_c, 0, 83, 55
1, 165508, Note_on_c, 0, 81, 65
1, 165522, Note_on_c, 0, 69, 54
1, 165537, Note_off_c, 0, 81, 65
1, 165545, Note_off_c, 0, 69, 60
1, 165673, Note_on_c, 0, 67, 58
1, 165674, Note_on_c, 0, 79, 58
1, 165702, Note_off_c, 0, 67, 61
1, 165707, Note_off_c, 0, 79, 65
1, 165821, Note_on_c, 0, 77, 64
1, 165830, Note_on_c, 0, 65, 54
1, 165851, Note_off_c, 0, 77, 63
1, 165868, Note_off_c, 0, 65, 62
1, 165972, Note_on_c, 0, 64, 55
1, 165976, Note_on_c, 0, 76, 59
1, 166006, Note_off_c, 0, 64, 66
1, 166011, Note_off_c, 0, 76, 64
1, 166143, Note_on_c, 0, 74, 57
1, 166149, Note_on_c, 0, 62, 49
1, 166173, Note_off_c, 0, 74, 67
1, 166174, Note_off_c, 0, 62, 56
1, 166501, Note_on_c, 0, 64, 47
1, 166504, Note_on_c, 0, 76, 48
1, 166527, Note_off_c, 0, 76, 59
1, 166527, Note_off_c, 0, 64, 58
1, 166838, Note_on_c, 0, 77, 68
1, 166841, Note_on_c, 0, 65, 67
1, 166863, Note_off_c, 0, 77, 68
1, 166867, Note_off_c, 0, 65, 65
1, 167190, Note_on_c, 0, 78, 70
1, 167198, Note_on_c, 0, 66, 60
1, 167219, Note_off_c, 0, 78, 65
1, 167229, Note_off_c, 0, 66, 63
1, 167525, Note_on_c, 0, 79, 85
1, 167528, Note_on_c, 0, 67, 76
1, 167559, Note_off_c, 0, 67, 64
1, 167561, Note_off_c, 0, 79, 64
1, 167867, Note_on_c, 0, 80, 83
1, 167874, Note_on_c, 0, 68, 72
1, 167901, Note_off_c, 0, 68, 65
1, 167913, Note_off_c, 0, 80, 63
1, 168213, Note_on_c, 0, 81, 82
1, 168213, Control_c, 0, 64, 47
1, 168219, Note_on_c, 0, 69, 76
1, 168228, Control_c, 0, 64, 63
1, 168243, Control_c, 0, 64, 67
1, 168248, Note_off_c, 0, 69, 64
1, 168257, Control_c, 0, 64, 72
1, 168272, Control_c, 0, 64, 81
1, 168287, Control_c, 0, 64, 95
1, 168302, Control_c, 0, 64, 127
1, 168517, Note_off_c, 0, 81, 53
1, 168582, Note_on_c, 0, 69, 56
1, 168676, Note_on_c, 0, 77, 77
1, 168682, Note_on_c, 0, 53, 64
1, 168686, Note_on_c, 0, 62, 61
1, 168711, Control_c, 0, 64, 84
1, 168726, Control_c, 0, 64, 59
1, 168741, Control_c, 0, 64, 0
1, 168770, Control_c, 0, 64, 12
1, 168785, Control_c, 0, 64, 56
1, 168799, Control_c, 0, 64, 66
1, 168814, Control_c, 0, 64, 72
1, 168829, Control_c, 0, 64, 78
1, 168845, Control_c, 0, 64, 83
1, 168848, Note_off_c, 0, 69, 37
1, 168860, Control_c, 0, 64, 87
1, 168874, Control_c, 0, 64, 91
1, 168889, Control_c, 0, 64, 96
1, 168903, Note_off_c, 0, 62, 36
1, 168904, Control_c, 0, 64, 101
1, 168911, Note_off_c, 0, 53, 49
1, 168919, Control_c, 0, 64, 106
1, 168934, Control_c, 0, 64, 112
1, 168939, Note_on_c, 0, 74, 60
1, 168948, Control_c, 0, 64, 127
1, 169004, Note_off_c, 0, 74, 60
1, 169013, Note_off_c, 0, 77, 60
1, 169019, Note_on_c, 0, 72, 71
1, 169037, Note_on_c, 0, 55, 55
1, 169037, Control_c, 0, 64, 107
1, 169048, Note_on_c, 0, 64, 60
1, 169052, Control_c, 0, 64, 76
1, 169067, Control_c, 0, 64, 48
1, 169081, Control_c, 0, 64, 0
1, 169126, Control_c, 0, 64, 54
1, 169141, Control_c, 0, 64, 66
1, 169156, Control_c, 0, 64, 70
1, 169171, Control_c, 0, 64, 73
1, 169186, Control_c, 0, 64, 77
1, 169207, Control_c, 0, 64, 80
1, 169222, Control_c, 0, 64, 84
1, 169237, Control_c, 0, 64, 87
1, 169252, Control_c, 0, 64, 90
1, 169267, Control_c, 0, 64, 92
1, 169281, Control_c, 0, 64, 93
1, 169296, Control_c, 0, 64, 94
1, 169329, Note_off_c, 0, 64, 57
1, 169341, Control_c, 0, 64, 85
1, 169342, Note_off_c, 0, 72, 58
1, 169345, Note_off_c, 0, 55, 35
1, 169355, Control_c, 0, 64, 69
1, 169361, Note_on_c, 0, 71, 52
1, 169361, Note_on_c, 0, 76, 54
1, 169365, Note_on_c, 0, 65, 39
1, 169370, Control_c, 0, 64, 36
1, 169385, Control_c, 0, 64, 0
1, 169415, Control_c, 0, 64, 31
1, 169430, Control_c, 0, 64, 56
1, 169445, Control_c, 0, 64, 65
1, 169460, Control_c, 0, 64, 70
1, 169475, Control_c, 0, 64, 75
1, 169490, Control_c, 0, 64, 79
1, 169504, Note_off_c, 0, 71, 47
1, 169505, Control_c, 0, 64, 81
1, 169519, Control_c, 0, 64, 83
1, 169528, Note_on_c, 0, 74, 56
1, 169534, Control_c, 0, 64, 85
1, 169549, Control_c, 0, 64, 87
1, 169556, Note_off_c, 0, 76, 33
1, 169564, Control_c, 0, 64, 88
1, 169579, Control_c, 0, 64, 89
1, 169594, Control_c, 0, 64, 90
1, 169653, Control_c, 0, 64, 87
1, 169658, Note_off_c, 0, 74, 61
1, 169668, Control_c, 0, 64, 70
1, 169683, Control_c, 0, 64, 0
1, 169684, Note_off_c, 0, 65, 33
1, 169688, Note_on_c, 0, 60, 46
1, 169702, Note_on_c, 0, 72, 50
1, 169742, Control_c, 0, 64, 45
1, 169756, Control_c, 0, 64, 63
1, 169771, Control_c, 0, 64, 67
1, 169786, Control_c, 0, 64, 70
1, 169801, Control_c, 0, 64, 73
1, 169816, Control_c, 0, 64, 76
1, 169830, Control_c, 0, 64, 77
1, 169844, Note_on_c, 0, 64, 44
1, 169845, Control_c, 0, 64, 79
1, 169860, Control_c, 0, 64, 79
1, 169875, Control_c, 0, 64, 80
1, 169915, Note_off_c, 0, 72, 37
1, 169951, Note_off_c, 0, 64, 55
1, 170002, Note_on_c, 0, 67, 45
1, 170075, Control_c, 0, 67, 8
1, 170090, Note_on_c, 0, 72, 44
1, 170090, Control_c, 0, 67, 8
1, 170104, Control_c, 0, 67, 9
1, 170114, Note_off_c, 0, 72, 56
1, 170116, Note_off_c, 0, 60, 58
1, 170119, Control_c, 0, 67, 11
1, 170134, Control_c, 0, 67, 13
1, 170149, Control_c, 0, 67, 16
1, 170154, Note_on_c, 0, 74, 51
1, 170163, Note_on_c, 0, 64, 35
1, 170163, Control_c, 0, 67, 21
1, 170178, Control_c, 0, 64, 78
1, 170178, Control_c, 0, 67, 25
1, 170179, Note_off_c, 0, 74, 61
1, 170193, Control_c, 0, 64, 74
1, 170193, Control_c, 0, 67, 29
1, 170208, Control_c, 0, 64, 67
1, 170208, Control_c, 0, 67, 33
1, 170224, Note_on_c, 0, 76, 56
1, 170224, Control_c, 0, 64, 53
1, 170224, Control_c, 0, 67, 37
1, 170239, Control_c, 0, 64, 0
1, 170239, Control_c, 0, 67, 41
1, 170250, Note_off_c, 0, 76, 62
1, 170254, Control_c, 0, 67, 43
1, 170268, Control_c, 0, 67, 45
1, 170275, Note_off_c, 0, 64, 57
1, 170276, Note_on_c, 0, 77, 62
1, 170283, Control_c, 0, 67, 47
1, 170291, Note_off_c, 0, 67, 41
1, 170295, Note_on_c, 0, 60, 49
1, 170298, Control_c, 0, 67, 48
1, 170306, Note_off_c, 0, 77, 65
1, 170313, Control_c, 0, 67, 48
1, 170325, Note_on_c, 0, 79, 73
1, 170327, Control_c, 0, 67, 49
1, 170363, Note_off_c, 0, 79, 61
1, 170392, Note_on_c, 0, 77, 48
1, 170414, Note_off_c, 0, 77, 58
1, 170427, Note_on_c, 0, 76, 51
1, 170449, Note_off_c, 0, 76, 60
1, 170477, Note_on_c, 0, 65, 39
1, 170478, Note_on_c, 0, 77, 60
1, 170497, Note_off_c, 0, 77, 64
1, 170539, Note_on_c, 0, 79, 66
1, 170556, Note_off_c, 0, 65, 60
1, 170572, Note_off_c, 0, 79, 65
1, 170584, Note_on_c, 0, 81, 71
1, 170604, Note_on_c, 0, 69, 26
1, 170618, Note_off_c, 0, 81, 58
1, 170654, Note_on_c, 0, 83, 59
1, 170660, Note_off_c, 0, 60, 57
1, 170668, Control_c, 0, 67, 49
1, 170672, Note_off_c, 0, 83, 65
1, 170702, Note_on_c, 0, 81, 57
1, 170706, Control_c, 0, 67, 50
1, 170716, Note_on_c, 0, 65, 40
1, 170721, Control_c, 0, 67, 50
1, 170722, Note_off_c, 0, 81, 64
1, 170739, Note_on_c, 0, 79, 60
1, 170771, Note_off_c, 0, 79, 65
1, 170776, Note_on_c, 0, 81, 66
1, 170825, Note_on_c, 0, 83, 57
1, 170826, Note_off_c, 0, 81, 62
1, 170842, Note_off_c, 0, 69, 40
1, 170853, Note_off_c, 0, 65, 33
1, 170853, Control_c, 0, 67, 50
1, 170866, Note_off_c, 0, 83, 64
1, 170867, Note_on_c, 0, 60, 42
1, 170868, Control_c, 0, 67, 49
1, 170878, Note_on_c, 0, 84, 55
1, 170883, Control_c, 0, 67, 49
1, 170908, Note_off_c, 0, 84, 51
1, 171052, Note_on_c, 0, 84, 68
1, 171053, Note_on_c, 0, 64, 43
1, 171076, Note_off_c, 0, 84, 66
1, 171155, Note_off_c, 0, 64, 55
1, 171214, Note_on_c, 0, 67, 35
1, 171272, Note_on_c, 0, 72, 60
1, 171302, Note_off_c, 0, 72, 65
1, 171318, Note_off_c, 0, 60, 60
1, 171338, Note_on_c, 0, 74, 61
1, 171362, Note_on_c, 0, 64, 35
1, 171368, Note_off_c, 0, 74, 65
1, 171412, Note_on_c, 0, 76, 56
1, 171441, Note_off_c, 0, 76, 60
1, 171466, Note_on_c, 0, 77, 68
1, 171471, Note_off_c, 0, 64, 57
1, 171478, Note_off_c, 0, 67, 42
1, 171499, Note_off_c, 0, 77, 61
1, 171502, Note_on_c, 0, 60, 39
1, 171522, Note_on_c, 0, 79, 69
1, 171543, Control_c, 0, 67, 49
1, 171566, Note_off_c, 0, 79, 63
1, 171575, Note_on_c, 0, 77, 59
1, 171605, Note_off_c, 0, 77, 65
1, 171616, Note_on_c, 0, 76, 62
1, 171645, Note_off_c, 0, 76, 65
1, 171676, Control_c, 0, 67, 49
1, 171678, Note_on_c, 0, 77, 63
1, 171680, Note_on_c, 0, 65, 29
1, 171707, Note_off_c, 0, 77, 64
1, 171739, Note_on_c, 0, 79, 64
1, 171775, Note_off_c, 0, 65, 37
1, 171778, Note_off_c, 0, 79, 63
1, 171788, Note_on_c, 0, 81, 72
1, 171812, Note_on_c, 0, 69, 14
1, 171823, Note_off_c, 0, 81, 56
1, 171825, Control_c, 0, 67, 48
1, 171847, Note_on_c, 0, 83, 67
1, 171863, Note_off_c, 0, 69, 46
1, 171871, Note_off_c, 0, 60, 60
1, 171878, Note_off_c, 0, 83, 61
1, 171884, Control_c, 0, 67, 48
1, 171898, Control_c, 0, 67, 47
1, 171899, Note_on_c, 0, 81, 51
1, 171901, Note_on_c, 0, 65, 42
1, 171913, Control_c, 0, 67, 46
1, 171919, Note_off_c, 0, 81, 62
1, 171928, Control_c, 0, 67, 45
1, 171934, Note_on_c, 0, 79, 66
1, 171943, Control_c, 0, 67, 44
1, 171958, Control_c, 0, 67, 43
1, 171962, Note_off_c, 0, 79, 67
1, 171973, Control_c, 0, 67, 42
1, 171983, Note_on_c, 0, 81, 65
1, 171988, Control_c, 0, 67, 42
1, 172017, Control_c, 0, 67, 41
1, 172032, Control_c, 0, 67, 41
1, 172035, Note_on_c, 0, 83, 49
1, 172041, Note_off_c, 0, 65, 35
1, 172047, Note_off_c, 0, 81, 62
1, 172047, Control_c, 0, 67, 40
1, 172062, Control_c, 0, 67, 40
1, 172071, Note_on_c, 0, 84, 75
1, 172071, Note_off_c, 0, 83, 64
1, 172077, Control_c, 0, 67, 39
1, 172084, Note_on_c, 0, 60, 49
1, 172091, Control_c, 0, 67, 39
1, 172092, Note_on_c, 0, 67, 42
1, 172099, Note_off_c, 0, 84, 60
1, 172106, Control_c, 0, 67, 38
1, 172108, Note_off_c, 0, 60, 57
1, 172120, Note_off_c, 0, 67, 53
1, 172121, Control_c, 0, 67, 38
1, 172136, Control_c, 0, 67, 37
1, 172150, Control_c, 0, 67, 36
1, 172165, Control_c, 0, 67, 34
1, 172180, Control_c, 0, 67, 33
1, 172202, Control_c, 0, 67, 30
1, 172217, Control_c, 0, 67, 28
1, 172232, Control_c, 0, 67, 26
1, 172247, Control_c, 0, 67, 24
1, 172256, Note_on_c, 0, 84, 65
1, 172262, Control_c, 0, 67, 22
1, 172277, Control_c, 0, 67, 21
1, 172279, Note_off_c, 0, 84, 63
1, 172292, Control_c, 0, 67, 19
1, 172306, Control_c, 0, 67, 18
1, 172321, Control_c, 0, 67, 17
1, 172336, Control_c, 0, 67, 16
1, 172350, Control_c, 0, 67, 16
1, 172365, Control_c, 0, 67, 15
1, 172395, Control_c, 0, 67, 14
1, 172410, Control_c, 0, 67, 14
1, 172424, Control_c, 0, 67, 13
1, 172434, Note_on_c, 0, 65, 27
1, 172447, Note_on_c, 0, 67, 9
1, 172454, Control_c, 0, 67, 13
1, 172484, Control_c, 0, 67, 12
1, 172498, Control_c, 0, 67, 12
1, 172513, Control_c, 0, 67, 11
1, 172528, Control_c, 0, 67, 11
1, 172530, Note_on_c, 0, 79, 36
1, 172542, Control_c, 0, 67, 10
1, 172557, Control_c, 0, 67, 10
1, 172560, Note_off_c, 0, 79, 55
1, 172572, Control_c, 0, 67, 9
1, 172597, Note_on_c, 0, 83, 41
1, 172603, Control_c, 0, 67, 9
1, 172630, Note_off_c, 0, 83, 60
1, 172655, Note_on_c, 0, 79, 53
1, 172697, Note_off_c, 0, 65, 12
1, 172704, Note_off_c, 0, 79, 59
1, 172708, Note_off_c, 0, 67, 44
1, 172730, Note_on_c, 0, 84, 62
1, 172731, Note_on_c, 0, 64, 35
1, 172752, Control_c, 0, 67, 8
1, 172757, Note_off_c, 0, 84, 62
1, 172900, Control_c, 0, 67, 8
1, 172922, Note_on_c, 0, 84, 29
1, 172930, Control_c, 0, 67, 0
1, 172962, Note_off_c, 0, 84, 33
1, 173027, Note_off_c, 0, 64, 56
1, 173073, Note_on_c, 0, 67, 67
1, 173073, Note_on_c, 0, 65, 66
1, 173170, Note_on_c, 0, 79, 53
1, 173210, Note_off_c, 0, 79, 62
1, 173253, Note_on_c, 0, 83, 55
1, 173292, Note_off_c, 0, 83, 61
1, 173308, Note_on_c, 0, 79, 71
1, 173368, Note_off_c, 0, 79, 62
1, 173370, Note_off_c, 0, 65, 58
1, 173373, Note_off_c, 0, 67, 56
1, 173384, Note_on_c, 0, 64, 66
1, 173388, Note_on_c, 0, 84, 66
1, 173394, Note_on_c, 0, 86, 70
1, 173409, Note_off_c, 0, 86, 68
1, 173415, Note_off_c, 0, 84, 66
1, 173554, Note_on_c, 0, 84, 74
1, 173681, Note_off_c, 0, 64, 61
1, 173737, Note_on_c, 0, 65, 46
1, 173752, Note_off_c, 0, 84, 58
1, 173763, Note_off_c, 0, 65, 56
1, 173791, Note_on_c, 0, 79, 60
1, 173821, Poly_aftertouch_c, 0, 67, 0
1, 173823, Note_off_c, 0, 79, 65
1, 173871, Note_on_c, 0, 83, 75
1, 173874, Note_on_c, 0, 65, 55
1, 173896, Note_on_c, 0, 67, 46
1, 173905, Note_off_c, 0, 83, 61
1, 173909, Note_off_c, 0, 65, 63
1, 173922, Note_off_c, 0, 67, 56
1, 173946, Note_on_c, 0, 79, 64
1, 173999, Note_off_c, 0, 79, 56
1, 174021, Note_on_c, 0, 64, 75
1, 174022, Note_on_c, 0, 67, 56
1, 174024, Note_on_c, 0, 84, 86
1, 174050, Note_off_c, 0, 64, 64
1, 174054, Note_off_c, 0, 67, 61
1, 174069, Note_off_c, 0, 84, 59
1, 174101, Note_on_c, 0, 79, 73
1, 174152, Note_off_c, 0, 79, 52
1, 174164, Note_on_c, 0, 67, 65
1, 174170, Note_on_c, 0, 84, 87
1, 174173, Note_on_c, 0, 64, 61
1, 174195, Note_off_c, 0, 67, 63
1, 174203, Note_off_c, 0, 64, 63
1, 174211, Note_off_c, 0, 84, 61
1, 174253, Note_on_c, 0, 79, 76
1, 174310, Note_off_c, 0, 79, 62
1, 174319, Note_on_c, 0, 67, 68
1, 174321, Note_on_c, 0, 59, 74
1, 174326, Note_on_c, 0, 86, 86
1, 174344, Note_off_c, 0, 67, 66
1, 174349, Note_off_c, 0, 59, 63
1, 174372, Note_off_c, 0, 86, 61
1, 174412, Note_on_c, 0, 79, 75
1, 174468, Note_off_c, 0, 79, 57
1, 174484, Note_on_c, 0, 59, 65
1, 174486, Note_on_c, 0, 86, 83
1, 174486, Note_on_c, 0, 67, 65
1, 174516, Note_off_c, 0, 59, 62
1, 174518, Note_off_c, 0, 67, 62
1, 174543, Note_off_c, 0, 86, 63
1, 174576, Note_on_c, 0, 79, 70
1, 174655, Note_on_c, 0, 88, 84
1, 174657, Control_c, 0, 64, 54
1, 174671, Control_c, 0, 64, 61
1, 174681, Note_on_c, 0, 60, 53
1, 174685, Note_on_c, 0, 67, 47
1, 174686, Control_c, 0, 64, 64
1, 174701, Note_off_c, 0, 79, 63
1, 174701, Control_c, 0, 64, 67
1, 174716, Control_c, 0, 64, 71
1, 174731, Control_c, 0, 64, 76
1, 174745, Control_c, 0, 64, 82
1, 174757, Note_off_c, 0, 60, 49
1, 174760, Control_c, 0, 64, 87
1, 174763, Note_off_c, 0, 67, 51
1, 174775, Control_c, 0, 64, 94
1, 174790, Control_c, 0, 64, 103
1, 174805, Control_c, 0, 64, 115
1, 174819, Control_c, 0, 64, 127
1, 174820, Note_off_c, 0, 88, 64
1, 174824, Note_on_c, 0, 84, 63
1, 174852, Note_off_c, 0, 84, 64
1, 174978, Note_on_c, 0, 79, 87
1, 174998, Control_c, 0, 64, 97
1, 175013, Control_c, 0, 64, 72
1, 175028, Control_c, 0, 64, 57
1, 175043, Control_c, 0, 64, 55
1, 175058, Control_c, 0, 64, 60
1, 175073, Control_c, 0, 64, 64
1, 175087, Control_c, 0, 64, 70
1, 175102, Control_c, 0, 64, 77
1, 175117, Control_c, 0, 64, 86
1, 175132, Control_c, 0, 64, 90
1, 175147, Control_c, 0, 64, 94
1, 175152, Note_on_c, 0, 84, 54
1, 175159, Note_off_c, 0, 79, 63
1, 175161, Control_c, 0, 64, 99
1, 175176, Control_c, 0, 64, 107
1, 175180, Note_off_c, 0, 84, 52
1, 175198, Control_c, 0, 64, 114
1, 175213, Control_c, 0, 64, 124
1, 175228, Control_c, 0, 64, 127
1, 175319, Note_on_c, 0, 76, 67
1, 175332, Control_c, 0, 64, 101
1, 175347, Control_c, 0, 64, 75
1, 175362, Control_c, 0, 64, 57
1, 175376, Control_c, 0, 64, 9
1, 175391, Control_c, 0, 64, 21
1, 175406, Control_c, 0, 64, 43
1, 175421, Control_c, 0, 64, 58
1, 175436, Control_c, 0, 64, 64
1, 175450, Control_c, 0, 64, 68
1, 175465, Control_c, 0, 64, 72
1, 175472, Note_off_c, 0, 76, 62
1, 175480, Control_c, 0, 64, 76
1, 175481, Note_on_c, 0, 79, 55
1, 175494, Control_c, 0, 64, 79
1, 175509, Control_c, 0, 64, 80
1, 175514, Note_off_c, 0, 79, 66
1, 175524, Control_c, 0, 64, 82
1, 175539, Control_c, 0, 64, 84
1, 175554, Control_c, 0, 64, 86
1, 175568, Control_c, 0, 64, 88
1, 175582, Control_c, 0, 64, 91
1, 175597, Control_c, 0, 64, 94
1, 175612, Control_c, 0, 64, 96
1, 175627, Control_c, 0, 64, 96
1, 175641, Control_c, 0, 64, 97
1, 175662, Note_on_c, 0, 72, 57
1, 175671, Control_c, 0, 64, 96
1, 175686, Control_c, 0, 64, 89
1, 175700, Control_c, 0, 64, 74
1, 175715, Control_c, 0, 64, 58
1, 175730, Control_c, 0, 64, 0
1, 175774, Control_c, 0, 64, 41
1, 175789, Control_c, 0, 64, 57
1, 175791, Note_off_c, 0, 72, 51
1, 175804, Control_c, 0, 64, 63
1, 175820, Control_c, 0, 64, 65
1, 175835, Control_c, 0, 64, 66
1, 175850, Control_c, 0, 64, 68
1, 175852, Note_on_c, 0, 76, 31
1, 175864, Control_c, 0, 64, 70
1, 175879, Control_c, 0, 64, 72
1, 175894, Control_c, 0, 64, 73
1, 175908, Control_c, 0, 64, 73
1, 175923, Control_c, 0, 64, 74
1, 175946, Control_c, 0, 64, 75
1, 175961, Control_c, 0, 64, 75
1, 175976, Control_c, 0, 64, 76
1, 175990, Control_c, 0, 64, 76
1, 175997, Note_off_c, 0, 76, 56
1, 176020, Control_c, 0, 64, 77
1, 176054, Note_on_c, 0, 69, 40
1, 176108, Note_off_c, 0, 69, 0
1, 176109, Control_c, 0, 64, 76
1, 176123, Control_c, 0, 64, 70
1, 176138, Control_c, 0, 64, 58
1, 176145, Poly_aftertouch_c, 0, 69, 127
1, 176153, Control_c, 0, 64, 0
1, 176239, Note_on_c, 0, 81, 49
1, 176241, Control_c, 0, 64, 37
1, 176256, Control_c, 0, 64, 57
1, 176271, Control_c, 0, 64, 64
1, 176286, Control_c, 0, 64, 67
1, 176301, Control_c, 0, 64, 69
1, 176316, Control_c, 0, 64, 71
1, 176331, Control_c, 0, 64, 73
1, 176346, Control_c, 0, 64, 75
1, 176361, Control_c, 0, 64, 77
1, 176376, Control_c, 0, 64, 77
1, 176399, Note_off_c, 0, 81, 56
1, 176405, Control_c, 0, 64, 74
1, 176411, Poly_aftertouch_c, 0, 69, 0
1, 176412, Note_on_c, 0, 53, 27
1, 176420, Control_c, 0, 64, 66
1, 176429, Note_on_c, 0, 79, 38
1, 176435, Control_c, 0, 64, 53
1, 176450, Control_c, 0, 64, 45
1, 176460, Poly_aftertouch_c, 0, 57, 127
1, 176465, Control_c, 0, 64, 46
1, 176468, Poly_aftertouch_c, 0, 62, 127
1, 176480, Control_c, 0, 64, 51
1, 176486, Note_off_c, 0, 79, 58
1, 176495, Control_c, 0, 64, 58
1, 176496, Poly_aftertouch_c, 0, 62, 0
1, 176500, Note_on_c, 0, 77, 48
1, 176510, Control_c, 0, 64, 63
1, 176520, Note_off_c, 0, 53, 35
1, 176524, Control_c, 0, 64, 66
1, 176539, Control_c, 0, 64, 69
1, 176547, Note_off_c, 0, 77, 57
1, 176554, Control_c, 0, 64, 73
1, 176569, Note_on_c, 0, 76, 48
1, 176569, Control_c, 0, 64, 75
1, 176584, Control_c, 0, 64, 77
1, 176598, Control_c, 0, 64, 78
1, 176605, Note_off_c, 0, 76, 64
1, 176614, Control_c, 0, 64, 80
1, 176629, Control_c, 0, 64, 80
1, 176641, Note_on_c, 0, 74, 55
1, 176644, Control_c, 0, 64, 81
1, 176659, Control_c, 0, 64, 81
1, 176695, Control_c, 0, 64, 81
1, 176704, Note_off_c, 0, 74, 54
1, 176710, Control_c, 0, 64, 76
1, 176715, Poly_aftertouch_c, 0, 57, 0
1, 176725, Control_c, 0, 64, 65
1, 176738, Note_on_c, 0, 72, 56
1, 176739, Control_c, 0, 64, 36
1, 176754, Note_on_c, 0, 55, 25
1, 176754, Control_c, 0, 64, 23
1, 176763, Note_on_c, 0, 64, 23
1, 176764, Note_on_c, 0, 60, 28
1, 176769, Control_c, 0, 64, 33
1, 176784, Control_c, 0, 64, 48
1, 176799, Control_c, 0, 64, 58
1, 176814, Control_c, 0, 64, 64
1, 176817, Note_off_c, 0, 60, 49
1, 176823, Note_off_c, 0, 72, 46
1, 176828, Note_off_c, 0, 64, 47
1, 176829, Control_c, 0, 64, 67
1, 176843, Control_c, 0, 64, 70
1, 176858, Control_c, 0, 64, 73
1, 176873, Control_c, 0, 64, 75
1, 176888, Control_c, 0, 64, 76
1, 176903, Control_c, 0, 64, 77
1, 176918, Control_c, 0, 64, 78
1, 176933, Control_c, 0, 64, 79
1, 176947, Control_c, 0, 64, 79
1, 176992, Control_c, 0, 64, 77
1, 177007, Control_c, 0, 64, 71
1, 177018, Note_off_c, 0, 55, 56
1, 177021, Control_c, 0, 64, 64
1, 177036, Control_c, 0, 64, 61
1, 177044, Note_on_c, 0, 72, 52
1, 177051, Control_c, 0, 64, 62
1, 177052, Note_on_c, 0, 62, 26
1, 177064, Note_off_c, 0, 72, 62
1, 177065, Control_c, 0, 64, 64
1, 177080, Control_c, 0, 64, 66
1, 177088, Note_off_c, 0, 62, 44
1, 177089, Note_on_c, 0, 65, 15
1, 177090, Note_on_c, 0, 71, 54
1, 177095, Control_c, 0, 64, 68
1, 177110, Control_c, 0, 64, 70
1, 177112, Note_off_c, 0, 71, 61
1, 177125, Control_c, 0, 64, 71
1, 177144, Note_on_c, 0, 72, 53
1, 177166, Note_off_c, 0, 72, 58
1, 177186, Note_on_c, 0, 71, 65
1, 177199, Control_c, 0, 64, 72
1, 177211, Note_off_c, 0, 71, 67
1, 177237, Note_on_c, 0, 69, 54
1, 177258, Note_off_c, 0, 69, 58
1, 177273, Control_c, 0, 64, 70
1, 177285, Note_on_c, 0, 71, 63
1, 177288, Control_c, 0, 64, 62
1, 177303, Control_c, 0, 64, 0
1, 177323, Note_off_c, 0, 71, 57
1, 177349, Note_off_c, 0, 65, 48
1, 177372, Note_on_c, 0, 72, 58
1, 177385, Note_on_c, 0, 60, 41
1, 177444, Control_c, 0, 64, 56
1, 177459, Control_c, 0, 64, 60
1, 177474, Control_c, 0, 64, 61
1, 177489, Control_c, 0, 64, 63
1, 177503, Control_c, 0, 64, 64
1, 177518, Control_c, 0, 64, 65
1, 177532, Note_on_c, 0, 64, 32
1, 177533, Control_c, 0, 64, 66
1, 177548, Control_c, 0, 64, 67
1, 177563, Control_c, 0, 64, 69
1, 177573, Note_off_c, 0, 72, 43
1, 177577, Control_c, 0, 64, 70
1, 177592, Control_c, 0, 64, 72
1, 177607, Control_c, 0, 64, 73
1, 177622, Control_c, 0, 64, 74
1, 177632, Note_off_c, 0, 64, 33
1, 177637, Control_c, 0, 64, 75
1, 177651, Control_c, 0, 64, 76
1, 177666, Control_c, 0, 64, 78
1, 177680, Note_on_c, 0, 67, 39
1, 177681, Control_c, 0, 64, 79
1, 177696, Control_c, 0, 64, 80
1, 177711, Control_c, 0, 64, 81
1, 177726, Control_c, 0, 64, 82
1, 177741, Control_c, 0, 64, 83
1, 177756, Control_c, 0, 64, 84
1, 177770, Control_c, 0, 64, 85
1, 177779, Note_off_c, 0, 60, 34
1, 177785, Control_c, 0, 64, 87
1, 177800, Control_c, 0, 64, 88
1, 177810, Note_on_c, 0, 72, 7
1, 177814, Control_c, 0, 64, 90
1, 177821, Note_on_c, 0, 64, 35
1, 177828, Control_c, 0, 64, 93
1, 177831, Note_on_c, 0, 74, 63
1, 177843, Control_c, 0, 64, 95
1, 177856, Note_off_c, 0, 72, 50
1, 177858, Control_c, 0, 64, 98
1, 177862, Note_off_c, 0, 74, 63
1, 177873, Control_c, 0, 64, 100
1, 177887, Control_c, 0, 64, 102
1, 177902, Control_c, 0, 64, 104
1, 177908, Note_on_c, 0, 76, 60
1, 177917, Control_c, 0, 64, 104
1, 177937, Note_off_c, 0, 64, 53
1, 177943, Note_off_c, 0, 76, 65
1, 177947, Control_c, 0, 64, 104
1, 177949, Note_on_c, 0, 77, 76
1, 177955, Note_on_c, 0, 60, 56
1, 177961, Control_c, 0, 64, 95
1, 177968, Note_off_c, 0, 67, 39
1, 177976, Control_c, 0, 64, 76
1, 177991, Control_c, 0, 64, 61
1, 178005, Note_on_c, 0, 79, 75
1, 178006, Control_c, 0, 64, 40
1, 178021, Control_c, 0, 64, 42
1, 178033, Note_off_c, 0, 77, 0
1, 178036, Control_c, 0, 64, 47
1, 178045, Note_on_c, 0, 77, 17
1, 178051, Control_c, 0, 64, 56
1, 178052, Note_off_c, 0, 79, 42
1, 178066, Control_c, 0, 64, 62
1, 178080, Control_c, 0, 64, 66
1, 178095, Note_off_c, 0, 77, 63
1, 178095, Control_c, 0, 64, 70
1, 178100, Note_on_c, 0, 76, 62
1, 178110, Control_c, 0, 64, 74
1, 178125, Control_c, 0, 64, 78
1, 178134, Note_off_c, 0, 76, 63
1, 178140, Control_c, 0, 64, 80
1, 178149, Note_on_c, 0, 77, 67
1, 178155, Control_c, 0, 64, 82
1, 178157, Note_on_c, 0, 65, 39
1, 178169, Control_c, 0, 64, 84
1, 178189, Note_off_c, 0, 77, 63
1, 178191, Control_c, 0, 64, 87
1, 178206, Control_c, 0, 64, 89
1, 178222, Control_c, 0, 64, 91
1, 178233, Note_on_c, 0, 79, 66
1, 178237, Control_c, 0, 64, 92
1, 178247, Note_off_c, 0, 65, 49
1, 178252, Control_c, 0, 64, 95
1, 178266, Control_c, 0, 64, 97
1, 178270, Note_on_c, 0, 69, 49
1, 178273, Note_off_c, 0, 79, 62
1, 178274, Note_on_c, 0, 81, 79
1, 178281, Control_c, 0, 64, 99
1, 178290, Note_off_c, 0, 60, 0
1, 178290, Note_on_c, 0, 60, 3
1, 178296, Control_c, 0, 64, 102
1, 178310, Control_c, 0, 64, 104
1, 178324, Note_off_c, 0, 81, 60
1, 178325, Control_c, 0, 64, 104
1, 178340, Note_on_c, 0, 83, 75
1, 178340, Control_c, 0, 64, 105
1, 178342, Note_off_c, 0, 60, 57
1, 178355, Control_c, 0, 64, 105
1, 178384, Note_on_c, 0, 81, 49
1, 178384, Note_off_c, 0, 83, 61
1, 178397, Note_on_c, 0, 65, 42
1, 178413, Note_on_c, 0, 79, 71
1, 178414, Note_off_c, 0, 81, 61
1, 178429, Control_c, 0, 64, 105
1, 178444, Control_c, 0, 64, 104
1, 178459, Control_c, 0, 64, 103
1, 178462, Note_on_c, 0, 81, 68
1, 178471, Note_off_c, 0, 79, 63
1, 178474, Control_c, 0, 64, 98
1, 178489, Control_c, 0, 64, 89
1, 178504, Control_c, 0, 64, 77
1, 178509, Note_on_c, 0, 83, 69
1, 178518, Control_c, 0, 64, 65
1, 178533, Control_c, 0, 64, 30
1, 178534, Note_off_c, 0, 81, 64
1, 178540, Note_off_c, 0, 69, 51
1, 178548, Control_c, 0, 64, 0
1, 178553, Note_on_c, 0, 84, 80
1, 178557, Note_off_c, 0, 65, 44
1, 178560, Note_off_c, 0, 83, 63
1, 178563, Control_c, 0, 67, 8
1, 178572, Note_on_c, 0, 60, 54
1, 178578, Control_c, 0, 67, 9
1, 178600, Note_off_c, 0, 84, 62
1, 178607, Control_c, 0, 67, 9
1, 178725, Control_c, 0, 67, 9
1, 178733, Note_on_c, 0, 84, 87
1, 178745, Note_on_c, 0, 64, 52
1, 178755, Control_c, 0, 67, 8
1, 178757, Note_off_c, 0, 84, 62
1, 178784, Control_c, 0, 67, 0
1, 178853, Note_off_c, 0, 64, 61
1, 178896, Note_on_c, 0, 67, 54
1, 178969, Note_on_c, 0, 72, 72
1, 179002, Note_off_c, 0, 72, 61
1, 179031, Note_on_c, 0, 74, 76
1, 179038, Note_off_c, 0, 60, 60
1, 179054, Note_on_c, 0, 64, 59
1, 179074, Note_off_c, 0, 74, 57
1, 179115, Note_on_c, 0, 76, 65
1, 179156, Note_off_c, 0, 76, 62
1, 179161, Note_off_c, 0, 67, 54
1, 179163, Control_c, 0, 64, 66
1, 179164, Note_on_c, 0, 77, 76
1, 179178, Control_c, 0, 64, 72
1, 179180, Note_off_c, 0, 64, 59
1, 179182, Note_on_c, 0, 60, 73
1, 179193, Control_c, 0, 64, 83
1, 179207, Note_off_c, 0, 77, 61
1, 179208, Control_c, 0, 64, 95
1, 179215, Note_on_c, 0, 79, 76
1, 179222, Control_c, 0, 64, 112
1, 179237, Control_c, 0, 64, 127
1, 179266, Note_on_c, 0, 77, 66
1, 179271, Note_off_c, 0, 79, 63
1, 179309, Note_off_c, 0, 77, 62
1, 179325, Note_on_c, 0, 76, 63
1, 179348, Note_on_c, 0, 65, 52
1, 179353, Note_off_c, 0, 76, 63
1, 179367, Note_on_c, 0, 77, 68
1, 179409, Note_off_c, 0, 77, 58
1, 179442, Note_on_c, 0, 79, 65
1, 179448, Note_off_c, 0, 65, 55
1, 179469, Note_on_c, 0, 69, 56
1, 179483, Note_on_c, 0, 81, 81
1, 179486, Note_off_c, 0, 79, 47
1, 179533, Note_off_c, 0, 81, 60
1, 179542, Note_off_c, 0, 69, 58
1, 179545, Note_on_c, 0, 83, 81
1, 179557, Note_off_c, 0, 60, 52
1, 179590, Note_on_c, 0, 81, 58
1, 179598, Note_off_c, 0, 83, 61
1, 179601, Note_on_c, 0, 65, 48
1, 179619, Note_off_c, 0, 81, 66
1, 179621, Note_on_c, 0, 79, 74
1, 179676, Note_on_c, 0, 81, 83
1, 179708, Note_off_c, 0, 79, 62
1, 179739, Note_on_c, 0, 83, 78
1, 179762, Note_off_c, 0, 81, 62
1, 179783, Note_on_c, 0, 67, 66
1, 179792, Note_on_c, 0, 84, 88
1, 179792, Note_off_c, 0, 65, 34
1, 179795, Note_on_c, 0, 60, 48
1, 179797, Note_on_c, 0, 64, 53
1, 179809, Note_off_c, 0, 83, 64
1, 179809, Control_c, 0, 64, 98
1, 179814, Note_off_c, 0, 67, 64
1, 179819, Note_off_c, 0, 60, 58
1, 179824, Control_c, 0, 64, 71
1, 179829, Note_off_c, 0, 64, 64
1, 179838, Note_off_c, 0, 84, 60
1, 179839, Control_c, 0, 64, 0
1, 179973, Note_on_c, 0, 84, 74
1, 179997, Note_off_c, 0, 84, 63
1, 180169, Note_on_c, 0, 65, 32
1, 180183, Note_on_c, 0, 67, 22
1, 180272, Note_on_c, 0, 79, 33
1, 180303, Note_off_c, 0, 79, 55
1, 180318, Note_on_c, 0, 83, 53
1, 180360, Note_off_c, 0, 83, 59
1, 180398, Note_on_c, 0, 79, 50
1, 180444, Note_off_c, 0, 79, 66
1, 180446, Note_off_c, 0, 65, 39
1, 180450, Note_off_c, 0, 67, 47
1, 180462, Note_on_c, 0, 84, 52
1, 180467, Note_on_c, 0, 64, 47
1, 180485, Note_off_c, 0, 84, 61
1, 180642, Note_on_c, 0, 84, 64
1, 180674, Note_off_c, 0, 84, 59
1, 180761, Note_off_c, 0, 64, 62
1, 180790, Note_on_c, 0, 65, 70
1, 180792, Note_on_c, 0, 67, 76
1, 180854, Control_c, 0, 64, 62
1, 180869, Control_c, 0, 64, 66
1, 180880, Note_on_c, 0, 79, 68
1, 180884, Control_c, 0, 64, 70
1, 180899, Control_c, 0, 64, 79
1, 180913, Control_c, 0, 64, 93
1, 180928, Control_c, 0, 64, 127
1, 180953, Note_off_c, 0, 79, 59
1, 180966, Note_on_c, 0, 83, 69
1, 181014, Note_off_c, 0, 83, 56
1, 181045, Note_on_c, 0, 79, 66
1, 181079, Note_off_c, 0, 79, 62
1, 181093, Note_off_c, 0, 65, 58
1, 181094, Note_off_c, 0, 67, 58
1, 181099, Note_on_c, 0, 64, 67
1, 181100, Note_on_c, 0, 84, 83
1, 181133, Note_off_c, 0, 84, 58
1, 181202, Control_c, 0, 64, 95
1, 181217, Control_c, 0, 64, 76
1, 181232, Control_c, 0, 64, 65
1, 181246, Control_c, 0, 64, 53
1, 181261, Control_c, 0, 64, 49
1, 181276, Note_on_c, 0, 84, 69
1, 181321, Control_c, 0, 64, 48
1, 181336, Control_c, 0, 64, 46
1, 181351, Control_c, 0, 64, 45
1, 181395, Control_c, 0, 64, 44
1, 181398, Note_off_c, 0, 64, 60
1, 181425, Control_c, 0, 64, 44
1, 181440, Control_c, 0, 64, 43
1, 181446, Note_on_c, 0, 67, 46
1, 181450, Note_on_c, 0, 65, 40
1, 181455, Control_c, 0, 64, 42
1, 181470, Control_c, 0, 64, 41
1, 181471, Note_off_c, 0, 67, 55
1, 181476, Note_off_c, 0, 84, 58
1, 181478, Note_off_c, 0, 65, 51
1, 181485, Control_c, 0, 64, 40
1, 181500, Control_c, 0, 64, 37
1, 181505, Note_on_c, 0, 79, 64
1, 181515, Control_c, 0, 64, 34
1, 181529, Control_c, 0, 64, 29
1, 181542, Note_off_c, 0, 79, 60
1, 181544, Control_c, 0, 64, 23
1, 181559, Control_c, 0, 64, 12
1, 181574, Control_c, 0, 64, 0
1, 181576, Note_on_c, 0, 65, 62
1, 181576, Note_on_c, 0, 67, 59
1, 181583, Note_on_c, 0, 83, 80
1, 181610, Note_off_c, 0, 65, 61
1, 181613, Note_off_c, 0, 67, 63
1, 181623, Note_off_c, 0, 83, 60
1, 181652, Note_on_c, 0, 79, 72
1, 181715, Note_off_c, 0, 79, 60
1, 181728, Note_on_c, 0, 67, 76
1, 181729, Note_on_c, 0, 84, 87
1, 181732, Note_on_c, 0, 64, 77
1, 181762, Note_off_c, 0, 64, 65
1, 181762, Note_off_c, 0, 67, 61
1, 181777, Note_off_c, 0, 84, 59
1, 181807, Note_on_c, 0, 79, 77
1, 181855, Note_off_c, 0, 79, 60
1, 181878, Note_on_c, 0, 84, 89
1, 181878, Note_on_c, 0, 64, 75
1, 181879, Note_on_c, 0, 67, 71
1, 181906, Note_off_c, 0, 64, 65
1, 181911, Note_off_c, 0, 67, 61
1, 181931, Note_off_c, 0, 84, 60
1, 181962, Note_on_c, 0, 79, 78
1, 182022, Note_off_c, 0, 79, 62
1, 182034, Note_on_c, 0, 59, 86
1, 182036, Note_on_c, 0, 67, 74
1, 182041, Note_on_c, 0, 86, 86
1, 182069, Note_off_c, 0, 67, 57
1, 182069, Note_off_c, 0, 59, 55
1, 182093, Note_off_c, 0, 86, 62
1, 182124, Note_on_c, 0, 79, 78
1, 182170, Note_off_c, 0, 79, 62
1, 182191, Note_on_c, 0, 86, 84
1, 182194, Note_on_c, 0, 59, 72
1, 182197, Note_on_c, 0, 67, 71
1, 182228, Note_off_c, 0, 59, 63
1, 182233, Note_off_c, 0, 67, 58
1, 182249, Note_off_c, 0, 86, 63
1, 182285, Note_on_c, 0, 79, 72
1, 182322, Control_c, 0, 64, 56
1, 182337, Control_c, 0, 64, 74
1, 182351, Control_c, 0, 64, 89
1, 182358, Note_off_c, 0, 79, 63
1, 182366, Control_c, 0, 64, 127
1, 182369, Note_on_c, 0, 60, 92
1, 182370, Note_on_c, 0, 67, 87
1, 182373, Note_on_c, 0, 88, 91
1, 182453, Note_off_c, 0, 88, 65
1, 182455, Note_on_c, 0, 84, 76
1, 182525, Note_off_c, 0, 84, 56
1, 182544, Note_on_c, 0, 88, 74
1, 182610, Note_off_c, 0, 88, 64
1, 182619, Note_on_c, 0, 84, 71
1, 182695, Note_off_c, 0, 84, 60
1, 182698, Note_on_c, 0, 79, 71
1, 182761, Note_off_c, 0, 79, 64
1, 182768, Note_on_c, 0, 84, 79
1, 182820, Note_off_c, 0, 84, 60
1, 182839, Note_on_c, 0, 79, 73
1, 182906, Note_on_c, 0, 84, 76
1, 182919, Note_off_c, 0, 79, 60
1, 182957, Note_off_c, 0, 84, 61
1, 182975, Note_on_c, 0, 76, 81
1, 182990, Note_off_c, 0, 67, 60
1, 182993, Note_off_c, 0, 60, 59
1, 183011, Control_c, 0, 64, 100
1, 183026, Control_c, 0, 64, 68
1, 183032, Note_off_c, 0, 76, 60
1, 183038, Note_on_c, 0, 79, 79
1, 183041, Control_c, 0, 64, 0
1, 183100, Note_off_c, 0, 79, 64
1, 183132, Note_on_c, 0, 76, 74
1, 183169, Note_off_c, 0, 76, 58
1, 183197, Note_on_c, 0, 79, 79
1, 183250, Note_off_c, 0, 79, 63
1, 183279, Note_on_c, 0, 72, 71
1, 183339, Note_off_c, 0, 72, 59
1, 183349, Note_on_c, 0, 76, 71
1, 183407, Note_off_c, 0, 76, 60
1, 183463, Note_on_c, 0, 71, 59
1, 183465, Note_on_c, 0, 76, 39
1, 183497, Note_off_c, 0, 71, 63
1, 183577, Note_off_c, 0, 76, 57
1, 183607, Note_on_c, 0, 69, 66
1, 183656, Control_c, 0, 64, 42
1, 183671, Control_c, 0, 64, 56
1, 183686, Control_c, 0, 64, 61
1, 183700, Control_c, 0, 64, 63
1, 183715, Control_c, 0, 64, 64
1, 183730, Control_c, 0, 64, 65
1, 183745, Control_c, 0, 64, 66
1, 183759, Control_c, 0, 64, 68
1, 183774, Control_c, 0, 64, 70
1, 183789, Control_c, 0, 64, 72
1, 183805, Control_c, 0, 64, 75
1, 183808, Note_on_c, 0, 81, 64
1, 183820, Control_c, 0, 64, 77
1, 183835, Control_c, 0, 64, 78
1, 183849, Control_c, 0, 64, 80
1, 183864, Control_c, 0, 64, 82
1, 183879, Control_c, 0, 64, 84
1, 183894, Control_c, 0, 64, 88
1, 183909, Control_c, 0, 64, 90
1, 183910, Note_off_c, 0, 69, 30
1, 183924, Control_c, 0, 64, 91
1, 183968, Control_c, 0, 64, 89
1, 183980, Note_on_c, 0, 53, 46
1, 183983, Control_c, 0, 64, 79
1, 183991, Note_off_c, 0, 81, 59
1, 183996, Note_on_c, 0, 79, 59
1, 183997, Note_on_c, 0, 57, 40
1, 183998, Control_c, 0, 64, 69
1, 184000, Note_on_c, 0, 62, 38
1, 184013, Control_c, 0, 64, 63
1, 184027, Control_c, 0, 64, 63
1, 184042, Control_c, 0, 64, 64
1, 184057, Control_c, 0, 64, 66
1, 184072, Control_c, 0, 64, 68
1, 184082, Note_on_c, 0, 77, 53
1, 184082, Note_off_c, 0, 79, 56
1, 184087, Control_c, 0, 64, 72
1, 184089, Note_off_c, 0, 62, 56
1, 184102, Control_c, 0, 64, 75
1, 184114, Note_off_c, 0, 53, 57
1, 184117, Control_c, 0, 64, 78
1, 184123, Note_off_c, 0, 77, 60
1, 184131, Control_c, 0, 64, 80
1, 184143, Note_on_c, 0, 76, 54
1, 184146, Control_c, 0, 64, 83
1, 184161, Control_c, 0, 64, 85
1, 184182, Control_c, 0, 64, 87
1, 184188, Note_off_c, 0, 76, 64
1, 184197, Control_c, 0, 64, 87
1, 184212, Control_c, 0, 64, 88
1, 184240, Note_on_c, 0, 74, 51
1, 184302, Control_c, 0, 64, 84
1, 184311, Note_off_c, 0, 57, 36
1, 184316, Control_c, 0, 64, 72
1, 184331, Control_c, 0, 64, 56
1, 184342, Note_on_c, 0, 60, 38
1, 184342, Note_off_c, 0, 74, 56
1, 184343, Note_on_c, 0, 55, 44
1, 184346, Control_c, 0, 64, 0
1, 184347, Note_on_c, 0, 72, 56
1, 184364, Note_on_c, 0, 64, 29
1, 184390, Control_c, 0, 64, 33
1, 184405, Control_c, 0, 64, 58
1, 184420, Control_c, 0, 64, 65
1, 184435, Control_c, 0, 64, 68
1, 184449, Control_c, 0, 64, 71
1, 184464, Note_off_c, 0, 72, 48
1, 184464, Control_c, 0, 64, 74
1, 184479, Control_c, 0, 64, 77
1, 184494, Control_c, 0, 64, 79
1, 184508, Note_off_c, 0, 60, 36
1, 184508, Control_c, 0, 64, 81
1, 184514, Note_off_c, 0, 64, 40
1, 184523, Control_c, 0, 64, 82
1, 184538, Control_c, 0, 64, 83
1, 184568, Control_c, 0, 64, 83
1, 184659, Note_on_c, 0, 62, 63
1, 184661, Note_on_c, 0, 65, 60
1, 184668, Note_on_c, 0, 72, 64
1, 184673, Control_c, 0, 67, 8
1, 184682, Note_off_c, 0, 65, 59
1, 184686, Note_off_c, 0, 72, 64
1, 184687, Control_c, 0, 64, 82
1, 184687, Control_c, 0, 67, 9
1, 184689, Note_off_c, 0, 62, 64
1, 184702, Control_c, 0, 64, 81
1, 184704, Note_on_c, 0, 71, 61
1, 184717, Control_c, 0, 64, 77
1, 184731, Note_off_c, 0, 71, 62
1, 184731, Control_c, 0, 64, 71
1, 184746, Control_c, 0, 64, 64
1, 184752, Note_on_c, 0, 72, 74
1, 184761, Control_c, 0, 64, 53
1, 184761, Control_c, 0, 67, 8
1, 184776, Control_c, 0, 64, 49
1, 184791, Control_c, 0, 64, 49
1, 184791, Control_c, 0, 67, 8
1, 184792, Note_off_c, 0, 72, 59
1, 184799, Note_on_c, 0, 71, 71
1, 184805, Control_c, 0, 64, 50
1, 184805, Control_c, 0, 67, 0
1, 184841, Note_off_c, 0, 71, 60
1, 184850, Control_c, 0, 64, 49
1, 184856, Note_on_c, 0, 69, 71
1, 184865, Control_c, 0, 64, 48
1, 184880, Control_c, 0, 64, 40
1, 184895, Control_c, 0, 64, 0
1, 184928, Note_on_c, 0, 71, 71
1, 184933, Note_off_c, 0, 69, 59
1, 184966, Note_off_c, 0, 55, 58
1, 184975, Note_on_c, 0, 60, 86
1, 184984, Note_on_c, 0, 72, 91
1, 184988, Note_off_c, 0, 71, 61
1, 185050, Control_c, 0, 64, 57
1, 185065, Control_c, 0, 64, 64
1, 185080, Control_c, 0, 64, 67
1, 185095, Control_c, 0, 64, 70
1, 185110, Control_c, 0, 64, 73
1, 185124, Control_c, 0, 64, 77
1, 185139, Control_c, 0, 64, 80
1, 185154, Control_c, 0, 64, 83
1, 185169, Control_c, 0, 64, 86
1, 185184, Control_c, 0, 64, 88
1, 185199, Control_c, 0, 64, 90
1, 185213, Control_c, 0, 64, 91
1, 185228, Control_c, 0, 64, 92
1, 185233, Note_off_c, 0, 72, 59
1, 185243, Control_c, 0, 64, 93
1, 185246, Note_on_c, 0, 67, 71
1, 185256, Note_off_c, 0, 60, 58
1, 185257, Note_on_c, 0, 55, 71
1, 185258, Control_c, 0, 64, 94
1, 185287, Control_c, 0, 64, 92
1, 185302, Control_c, 0, 64, 80
1, 185306, Note_on_c, 0, 76, 89
1, 185306, Note_off_c, 0, 55, 62
1, 185306, Note_off_c, 0, 67, 60
1, 185310, Note_on_c, 0, 64, 86
1, 185317, Control_c, 0, 64, 63
1, 185331, Control_c, 0, 64, 0
1, 185391, Control_c, 0, 64, 59
1, 185407, Control_c, 0, 64, 66
1, 185421, Control_c, 0, 64, 68
1, 185436, Control_c, 0, 64, 71
1, 185451, Control_c, 0, 64, 73
1, 185466, Control_c, 0, 64, 76
1, 185481, Control_c, 0, 64, 78
1, 185495, Control_c, 0, 64, 78
1, 185510, Control_c, 0, 64, 79
1, 185525, Control_c, 0, 64, 80
1, 185540, Control_c, 0, 64, 81
1, 185551, Note_off_c, 0, 64, 62
1, 185554, Control_c, 0, 64, 82
1, 185557, Note_on_c, 0, 72, 75
1, 185559, Note_on_c, 0, 60, 62
1, 185563, Note_off_c, 0, 76, 62
1, 185614, Control_c, 0, 64, 79
1, 185628, Control_c, 0, 64, 72
1, 185637, Note_on_c, 0, 79, 85
1, 185643, Control_c, 0, 64, 61
1, 185644, Note_on_c, 0, 67, 77
1, 185658, Control_c, 0, 64, 0
1, 185699, Note_off_c, 0, 72, 60
1, 185724, Note_off_c, 0, 60, 56
1, 185764, Note_off_c, 0, 79, 63
1, 185780, Note_off_c, 0, 67, 61
1, 186081, Note_on_c, 0, 86, 57
1, 186149, Note_off_c, 0, 86, 61
1, 186161, Note_on_c, 0, 84, 52
1, 186248, Note_on_c, 0, 83, 46
1, 186254, Note_off_c, 0, 84, 46
1, 186294, Note_off_c, 0, 83, 57
1, 186307, Note_on_c, 0, 81, 51
1, 186364, Note_off_c, 0, 81, 61
1, 186382, Note_on_c, 0, 55, 39
1, 186395, Note_on_c, 0, 79, 49
1, 186397, Note_on_c, 0, 64, 42
1, 186397, Note_on_c, 0, 60, 39
1, 186417, Note_off_c, 0, 55, 59
1, 186418, Note_off_c, 0, 79, 62
1, 186447, Note_off_c, 0, 60, 60
1, 186452, Note_off_c, 0, 64, 61
1, 186779, Note_on_c, 0, 81, 49
1, 186848, Note_on_c, 0, 79, 58
1, 186859, Note_off_c, 0, 81, 51
1, 186899, Note_off_c, 0, 79, 61
1, 186928, Note_on_c, 0, 77, 46
1, 186957, Note_off_c, 0, 77, 56
1, 186999, Note_on_c, 0, 76, 51
1, 187083, Note_off_c, 0, 76, 60
1, 187095, Note_on_c, 0, 55, 42
1, 187101, Note_on_c, 0, 74, 49
1, 187113, Note_on_c, 0, 59, 38
1, 187114, Note_on_c, 0, 65, 37
1, 187125, Note_off_c, 0, 74, 61
1, 187130, Note_off_c, 0, 55, 60
1, 187143, Note_off_c, 0, 59, 58
1, 187143, Note_off_c, 0, 65, 56
1, 187444, Note_on_c, 0, 79, 58
1, 187488, Note_off_c, 0, 79, 51
1, 187514, Note_on_c, 0, 77, 65
1, 187581, Note_off_c, 0, 77, 58
1, 187596, Note_on_c, 0, 76, 54
1, 187628, Note_off_c, 0, 76, 64
1, 187719, Note_on_c, 0, 72, 58
1, 187726, Control_c, 0, 64, 62
1, 187730, Note_on_c, 0, 60, 79
1, 187741, Control_c, 0, 64, 69
1, 187756, Control_c, 0, 64, 76
1, 187771, Control_c, 0, 64, 85
1, 187786, Control_c, 0, 64, 96
1, 187791, Note_off_c, 0, 72, 63
1, 187801, Control_c, 0, 64, 113
1, 187807, Note_off_c, 0, 60, 52
1, 187816, Note_on_c, 0, 55, 79
1, 187816, Control_c, 0, 64, 127
1, 187817, Note_on_c, 0, 67, 73
1, 187866, Note_off_c, 0, 55, 56
1, 187889, Note_on_c, 0, 60, 64
1, 187889, Note_on_c, 0, 72, 77
1, 187889, Note_off_c, 0, 67, 59
1, 187952, Note_off_c, 0, 72, 62
1, 187959, Note_on_c, 0, 55, 73
1, 187966, Note_on_c, 0, 67, 67
1, 188001, Note_off_c, 0, 55, 62
1, 188015, Note_off_c, 0, 60, 50
1, 188034, Note_on_c, 0, 76, 88
1, 188036, Note_on_c, 0, 64, 75
1, 188037, Note_off_c, 0, 67, 59
1, 188108, Note_off_c, 0, 64, 57
1, 188114, Note_on_c, 0, 72, 74
1, 188114, Note_off_c, 0, 76, 64
1, 188118, Note_on_c, 0, 60, 70
1, 188157, Note_off_c, 0, 60, 58
1, 188171, Note_on_c, 0, 64, 65
1, 188186, Note_on_c, 0, 76, 85
1, 188190, Note_off_c, 0, 72, 63
1, 188239, Note_off_c, 0, 64, 62
1, 188242, Note_on_c, 0, 60, 73
1, 188259, Note_on_c, 0, 72, 78
1, 188307, Note_off_c, 0, 76, 58
1, 188332, Note_on_c, 0, 67, 76
1, 188339, Note_on_c, 0, 79, 88
1, 188378, Note_off_c, 0, 72, 61
1, 188389, Note_off_c, 0, 60, 59
1, 188401, Control_c, 0, 64, 89
1, 188402, Note_off_c, 0, 67, 60
1, 188415, Control_c, 0, 64, 67
1, 188430, Note_off_c, 0, 79, 65
1, 188430, Control_c, 0, 64, 31
1, 188445, Control_c, 0, 64, 0
1, 188898, Note_on_c, 0, 86, 35
1, 188946, Note_off_c, 0, 86, 47
1, 188970, Note_on_c, 0, 84, 49
1, 189042, Note_off_c, 0, 84, 55
1, 189052, Note_on_c, 0, 83, 46
1, 189099, Note_off_c, 0, 83, 60
1, 189125, Note_on_c, 0, 81, 41
1, 189155, Note_off_c, 0, 81, 57
1, 189185, Note_on_c, 0, 79, 54
1, 189208, Note_off_c, 0, 79, 64
1, 189211, Note_on_c, 0, 55, 38
1, 189220, Note_on_c, 0, 60, 30
1, 189228, Note_on_c, 0, 64, 32
1, 189241, Note_off_c, 0, 55, 55
1, 189254, Note_off_c, 0, 60, 53
1, 189262, Note_off_c, 0, 64, 55
1, 189398, Note_on_c, 0, 79, 48
1, 189427, Note_off_c, 0, 79, 61
1, 189583, Note_on_c, 0, 81, 53
1, 189647, Note_on_c, 0, 79, 58
1, 189666, Note_off_c, 0, 81, 50
1, 189703, Note_off_c, 0, 79, 60
1, 189727, Note_on_c, 0, 77, 48
1, 189758, Note_off_c, 0, 77, 59
1, 189806, Note_on_c, 0, 76, 50
1, 189867, Note_off_c, 0, 76, 50
1, 189896, Note_on_c, 0, 55, 43
1, 189903, Note_on_c, 0, 74, 48
1, 189912, Note_on_c, 0, 59, 39
1, 189912, Note_on_c, 0, 65, 43
1, 189927, Note_off_c, 0, 74, 61
1, 189930, Note_off_c, 0, 55, 61
1, 189945, Note_off_c, 0, 65, 59
1, 189950, Note_off_c, 0, 59, 61
1, 190083, Note_on_c, 0, 74, 36
1, 190117, Note_off_c, 0, 74, 60
1, 190312, Note_on_c, 0, 79, 34
1, 190347, Note_off_c, 0, 79, 54
1, 190386, Note_on_c, 0, 77, 46
1, 190443, Note_off_c, 0, 77, 56
1, 190455, Note_on_c, 0, 76, 48
1, 190484, Control_c, 0, 64, 42
1, 190499, Control_c, 0, 64, 51
1, 190509, Note_off_c, 0, 76, 59
1, 190514, Control_c, 0, 64, 56
1, 190529, Control_c, 0, 64, 60
1, 190541, Note_on_c, 0, 74, 48
1, 190544, Control_c, 0, 64, 62
1, 190558, Control_c, 0, 64, 64
1, 190573, Control_c, 0, 64, 65
1, 190581, Note_off_c, 0, 74, 63
1, 190588, Control_c, 0, 64, 66
1, 190591, Note_on_c, 0, 64, 34
1, 190603, Control_c, 0, 64, 67
1, 190617, Control_c, 0, 64, 69
1, 190624, Note_on_c, 0, 72, 45
1, 190632, Control_c, 0, 64, 71
1, 190647, Control_c, 0, 64, 72
1, 190662, Control_c, 0, 64, 74
1, 190676, Control_c, 0, 64, 75
1, 190691, Control_c, 0, 64, 76
1, 190706, Control_c, 0, 64, 77
1, 190721, Control_c, 0, 64, 78
1, 190736, Control_c, 0, 64, 79
1, 190750, Control_c, 0, 64, 79
1, 190755, Note_off_c, 0, 64, 35
1, 190765, Control_c, 0, 64, 80
1, 190780, Control_c, 0, 64, 81
1, 190781, Note_on_c, 0, 60, 40
1, 190794, Control_c, 0, 64, 82
1, 190809, Control_c, 0, 64, 82
1, 190824, Control_c, 0, 64, 83
1, 190839, Control_c, 0, 64, 83
1, 190854, Control_c, 0, 64, 84
1, 190869, Control_c, 0, 64, 84
1, 190898, Control_c, 0, 64, 85
1, 190902, Note_off_c, 0, 60, 46
1, 190950, Control_c, 0, 64, 85
1, 190953, Note_on_c, 0, 64, 38
1, 191011, Control_c, 0, 64, 86
1, 191110, Note_on_c, 0, 60, 33
1, 191118, Note_on_c, 0, 80, 55
1, 191253, Note_off_c, 0, 72, 29
1, 191278, Note_on_c, 0, 81, 63
1, 191280, Note_off_c, 0, 60, 37
1, 191292, Note_on_c, 0, 65, 49
1, 191305, Note_off_c, 0, 64, 37
1, 191396, Control_c, 0, 64, 85
1, 191411, Control_c, 0, 64, 84
1, 191425, Control_c, 0, 64, 80
1, 191426, Note_on_c, 0, 60, 52
1, 191438, Note_on_c, 0, 83, 73
1, 191440, Control_c, 0, 64, 75
1, 191455, Control_c, 0, 64, 69
1, 191470, Control_c, 0, 64, 65
1, 191478, Note_off_c, 0, 80, 28
1, 191499, Control_c, 0, 64, 66
1, 191514, Control_c, 0, 64, 68
1, 191529, Control_c, 0, 64, 71
1, 191544, Control_c, 0, 64, 73
1, 191559, Control_c, 0, 64, 75
1, 191569, Note_off_c, 0, 60, 60
1, 191583, Note_on_c, 0, 84, 77
1, 191589, Note_on_c, 0, 67, 62
1, 191603, Control_c, 0, 64, 74
1, 191617, Control_c, 0, 64, 71
1, 191631, Note_off_c, 0, 81, 43
1, 191632, Control_c, 0, 64, 67
1, 191647, Control_c, 0, 64, 66
1, 191667, Note_off_c, 0, 65, 25
1, 191670, Control_c, 0, 64, 66
1, 191685, Control_c, 0, 64, 67
1, 191693, Note_off_c, 0, 83, 34
1, 191699, Control_c, 0, 64, 68
1, 191714, Control_c, 0, 64, 71
1, 191729, Control_c, 0, 64, 74
1, 191736, Note_on_c, 0, 60, 66
1, 191737, Note_off_c, 0, 67, 60
1, 191744, Control_c, 0, 64, 76
1, 191748, Note_on_c, 0, 76, 62
1, 191759, Control_c, 0, 64, 79
1, 191773, Control_c, 0, 64, 82
1, 191789, Control_c, 0, 64, 84
1, 191804, Control_c, 0, 64, 86
1, 191819, Control_c, 0, 64, 87
1, 191834, Control_c, 0, 64, 88
1, 191848, Control_c, 0, 64, 88
1, 191863, Control_c, 0, 64, 89
1, 191876, Note_off_c, 0, 60, 60
1, 191890, Note_on_c, 0, 69, 72
1, 191893, Note_on_c, 0, 79, 73
1, 191893, Control_c, 0, 64, 87
1, 191895, Note_off_c, 0, 84, 61
1, 191908, Control_c, 0, 64, 77
1, 191922, Control_c, 0, 64, 67
1, 191937, Control_c, 0, 64, 57
1, 191952, Control_c, 0, 64, 54
1, 191958, Poly_aftertouch_c, 0, 65, 127
1, 191967, Control_c, 0, 64, 58
1, 191982, Control_c, 0, 64, 63
1, 191996, Control_c, 0, 64, 66
1, 192011, Control_c, 0, 64, 71
1, 192026, Control_c, 0, 64, 75
1, 192036, Note_off_c, 0, 69, 61
1, 192040, Control_c, 0, 64, 77
1, 192041, Note_on_c, 0, 77, 62
1, 192052, Note_on_c, 0, 60, 64
1, 192055, Control_c, 0, 64, 80
1, 192066, Note_off_c, 0, 79, 62
1, 192070, Control_c, 0, 64, 82
1, 192085, Control_c, 0, 64, 84
1, 192089, Note_off_c, 0, 76, 30
1, 192100, Control_c, 0, 64, 87
1, 192110, Note_off_c, 0, 77, 60
1, 192115, Control_c, 0, 64, 88
1, 192130, Control_c, 0, 64, 90
1, 192144, Control_c, 0, 64, 91
1, 192174, Control_c, 0, 64, 92
1, 192198, Note_off_c, 0, 60, 59
1, 192219, Control_c, 0, 64, 90
1, 192228, Note_on_c, 0, 70, 70
1, 192234, Control_c, 0, 64, 80
1, 192248, Control_c, 0, 64, 68
1, 192263, Control_c, 0, 64, 56
1, 192278, Control_c, 0, 64, 53
1, 192293, Control_c, 0, 64, 58
1, 192308, Control_c, 0, 64, 63
1, 192322, Control_c, 0, 64, 66
1, 192337, Control_c, 0, 64, 68
1, 192352, Control_c, 0, 64, 71
1, 192366, Control_c, 0, 64, 74
1, 192377, Poly_aftertouch_c, 0, 65, 0
1, 192381, Control_c, 0, 64, 76
1, 192396, Control_c, 0, 64, 78
1, 192419, Control_c, 0, 64, 80
1, 192425, Note_on_c, 0, 76, 52
1, 192434, Control_c, 0, 64, 82
1, 192435, Note_on_c, 0, 60, 49
1, 192448, Control_c, 0, 64, 83
1, 192463, Control_c, 0, 64, 83
1, 192478, Control_c, 0, 64, 84
1, 192493, Control_c, 0, 64, 84
1, 192511, Note_off_c, 0, 70, 25
1, 192537, Control_c, 0, 64, 84
1, 192552, Control_c, 0, 64, 79
1, 192553, Note_off_c, 0, 60, 50
1, 192566, Control_c, 0, 64, 71
1, 192570, Note_on_c, 0, 77, 64
1, 192579, Note_on_c, 0, 69, 42
1, 192581, Control_c, 0, 64, 62
1, 192598, Control_c, 0, 64, 58
1, 192602, Note_off_c, 0, 76, 53
1, 192612, Control_c, 0, 64, 61
1, 192627, Control_c, 0, 64, 63
1, 192642, Control_c, 0, 64, 65
1, 192657, Control_c, 0, 64, 68
1, 192671, Control_c, 0, 64, 71
1, 192686, Control_c, 0, 64, 74
1, 192701, Control_c, 0, 64, 75
1, 192716, Control_c, 0, 64, 77
1, 192726, Note_on_c, 0, 60, 45
1, 192730, Note_on_c, 0, 79, 62
1, 192731, Control_c, 0, 64, 78
1, 192745, Control_c, 0, 64, 80
1, 192760, Control_c, 0, 64, 81
1, 192775, Control_c, 0, 64, 82
1, 192789, Control_c, 0, 64, 84
1, 192803, Control_c, 0, 64, 85
1, 192818, Control_c, 0, 64, 86
1, 192863, Control_c, 0, 64, 85
1, 192876, Note_off_c, 0, 69, 16
1, 192878, Control_c, 0, 64, 80
1, 192878, Note_on_c, 0, 81, 64
1, 192885, Note_on_c, 0, 67, 47
1, 192886, Note_off_c, 0, 60, 33
1, 192893, Control_c, 0, 64, 69
1, 192894, Note_off_c, 0, 77, 36
1, 192908, Control_c, 0, 64, 59
1, 192922, Control_c, 0, 64, 53
1, 192937, Control_c, 0, 64, 56
1, 192944, Note_off_c, 0, 79, 33
1, 192952, Control_c, 0, 64, 61
1, 192967, Control_c, 0, 64, 64
1, 192981, Control_c, 0, 64, 67
1, 192996, Control_c, 0, 64, 70
1, 193011, Control_c, 0, 64, 73
1, 193024, Note_on_c, 0, 60, 44
1, 193026, Control_c, 0, 64, 74
1, 193030, Note_on_c, 0, 73, 48
1, 193041, Control_c, 0, 64, 76
1, 193056, Control_c, 0, 64, 77
1, 193070, Control_c, 0, 64, 79
1, 193085, Control_c, 0, 64, 80
1, 193087, Note_off_c, 0, 67, 36
1, 193095, Note_off_c, 0, 81, 38
1, 193100, Control_c, 0, 64, 81
1, 193115, Control_c, 0, 64, 82
1, 193144, Control_c, 0, 64, 83
1, 193167, Control_c, 0, 64, 82
1, 193182, Control_c, 0, 64, 80
1, 193188, Note_off_c, 0, 60, 33
1, 193192, Note_on_c, 0, 76, 51
1, 193196, Control_c, 0, 64, 71
1, 193197, Note_on_c, 0, 65, 46
1, 193211, Control_c, 0, 64, 61
1, 193226, Control_c, 0, 64, 46
1, 193241, Control_c, 0, 64, 48
1, 193256, Control_c, 0, 64, 53
1, 193270, Control_c, 0, 64, 59
1, 193285, Control_c, 0, 64, 63
1, 193300, Control_c, 0, 64, 67
1, 193308, Note_off_c, 0, 65, 51
1, 193315, Control_c, 0, 64, 69
1, 193325, Note_off_c, 0, 76, 57
1, 193330, Control_c, 0, 64, 72
1, 193334, Note_on_c, 0, 60, 37
1, 193334, Note_off_c, 0, 73, 27
1, 193339, Note_on_c, 0, 74, 53
1, 193344, Control_c, 0, 64, 73
1, 193359, Control_c, 0, 64, 75
1, 193374, Control_c, 0, 64, 76
1, 193390, Control_c, 0, 64, 77
1, 193405, Control_c, 0, 64, 77
1, 193417, Note_off_c, 0, 74, 59
1, 193419, Control_c, 0, 64, 78
1, 193434, Control_c, 0, 64, 79
1, 193449, Control_c, 0, 64, 79
1, 193464, Note_off_c, 0, 60, 49
1, 193464, Control_c, 0, 64, 80
1, 193490, Note_on_c, 0, 64, 46
1, 193493, Control_c, 0, 64, 79
1, 193508, Control_c, 0, 64, 75
1, 193523, Control_c, 0, 64, 66
1, 193538, Control_c, 0, 64, 55
1, 193554, Control_c, 0, 64, 51
1, 193568, Control_c, 0, 64, 53
1, 193583, Control_c, 0, 64, 55
1, 193598, Control_c, 0, 64, 59
1, 193612, Control_c, 0, 64, 63
1, 193627, Control_c, 0, 64, 66
1, 193642, Control_c, 0, 64, 68
1, 193645, Note_on_c, 0, 60, 38
1, 193648, Note_on_c, 0, 73, 51
1, 193657, Control_c, 0, 64, 71
1, 193672, Control_c, 0, 64, 72
1, 193686, Control_c, 0, 64, 73
1, 193701, Control_c, 0, 64, 74
1, 193716, Control_c, 0, 64, 74
1, 193731, Control_c, 0, 64, 75
1, 193790, Control_c, 0, 64, 73
1, 193805, Control_c, 0, 64, 66
1, 193806, Note_off_c, 0, 60, 33
1, 193820, Control_c, 0, 64, 52
1, 193820, Note_off_c, 0, 64, 32
1, 193824, Note_on_c, 0, 65, 39
1, 193825, Note_on_c, 0, 74, 51
1, 193835, Control_c, 0, 64, 32
1, 193836, Note_off_c, 0, 73, 50
1, 193850, Control_c, 0, 64, 34
1, 193864, Control_c, 0, 64, 41
1, 193879, Control_c, 0, 64, 53
1, 193894, Control_c, 0, 64, 61
1, 193916, Control_c, 0, 64, 65
1, 193931, Control_c, 0, 64, 67
1, 193946, Control_c, 0, 64, 69
1, 193960, Control_c, 0, 64, 71
1, 193963, Note_off_c, 0, 74, 61
1, 193975, Control_c, 0, 64, 73
1, 193984, Note_on_c, 0, 76, 56
1, 193987, Note_on_c, 0, 60, 34
1, 193990, Control_c, 0, 64, 73
1, 194005, Note_off_c, 0, 65, 35
1, 194005, Control_c, 0, 64, 74
1, 194019, Control_c, 0, 64, 75
1, 194034, Control_c, 0, 64, 75
1, 194049, Control_c, 0, 64, 76
1, 194064, Control_c, 0, 64, 76
1, 194108, Note_off_c, 0, 60, 53
1, 194109, Control_c, 0, 64, 73
1, 194118, Note_off_c, 0, 76, 53
1, 194123, Note_on_c, 0, 77, 57
1, 194124, Control_c, 0, 64, 66
1, 194138, Control_c, 0, 64, 46
1, 194146, Note_on_c, 0, 62, 39
1, 194153, Control_c, 0, 64, 0
1, 194183, Control_c, 0, 64, 17
1, 194198, Control_c, 0, 64, 40
1, 194213, Control_c, 0, 64, 56
1, 194228, Control_c, 0, 64, 63
1, 194243, Control_c, 0, 64, 65
1, 194258, Control_c, 0, 64, 67
1, 194273, Control_c, 0, 64, 69
1, 194275, Note_on_c, 0, 60, 42
1, 194288, Control_c, 0, 64, 71
1, 194288, Note_on_c, 0, 71, 51
1, 194303, Control_c, 0, 64, 72
1, 194317, Control_c, 0, 64, 73
1, 194332, Control_c, 0, 64, 74
1, 194347, Control_c, 0, 64, 75
1, 194361, Control_c, 0, 64, 75
1, 194406, Control_c, 0, 64, 74
1, 194410, Note_off_c, 0, 60, 51
1, 194420, Note_off_c, 0, 77, 60
1, 194421, Control_c, 0, 64, 68
1, 194430, Note_off_c, 0, 71, 60
1, 194435, Note_on_c, 0, 74, 64
1, 194435, Control_c, 0, 64, 56
1, 194438, Note_off_c, 0, 62, 37
1, 194444, Note_on_c, 0, 64, 49
1, 194450, Control_c, 0, 64, 21
1, 194465, Control_c, 0, 64, 17
1, 194480, Control_c, 0, 64, 35
1, 194495, Control_c, 0, 64, 53
1, 194509, Control_c, 0, 64, 62
1, 194524, Control_c, 0, 64, 66
1, 194539, Control_c, 0, 64, 69
1, 194554, Control_c, 0, 64, 72
1, 194568, Control_c, 0, 64, 75
1, 194574, Note_on_c, 0, 60, 42
1, 194582, Note_on_c, 0, 72, 65
1, 194583, Control_c, 0, 64, 77
1, 194598, Control_c, 0, 64, 79
1, 194613, Control_c, 0, 64, 79
1, 194628, Control_c, 0, 64, 80
1, 194680, Control_c, 0, 64, 78
1, 194695, Control_c, 0, 64, 70
1, 194695, Control_c, 0, 67, 8
1, 194709, Control_c, 0, 64, 56
1, 194709, Control_c, 0, 67, 9
1, 194711, Note_off_c, 0, 60, 56
1, 194723, Note_off_c, 0, 64, 42
1, 194723, Note_off_c, 0, 72, 61
1, 194724, Control_c, 0, 64, 0
1, 194724, Control_c, 0, 67, 9
1, 194735, Note_off_c, 0, 74, 61
1, 194738, Note_on_c, 0, 81, 70
1, 194754, Note_on_c, 0, 65, 44
1, 194754, Control_c, 0, 67, 10
1, 194768, Control_c, 0, 64, 47
1, 194783, Control_c, 0, 64, 62
1, 194783, Control_c, 0, 67, 10
1, 194798, Control_c, 0, 64, 66
1, 194813, Control_c, 0, 64, 69
1, 194828, Control_c, 0, 64, 73
1, 194842, Control_c, 0, 64, 76
1, 194857, Control_c, 0, 64, 78
1, 194872, Control_c, 0, 64, 80
1, 194881, Note_off_c, 0, 65, 54
1, 194887, Control_c, 0, 64, 82
1, 194890, Note_on_c, 0, 71, 53
1, 194893, Note_on_c, 0, 60, 47
1, 194902, Control_c, 0, 64, 83
1, 194917, Control_c, 0, 64, 84
1, 194917, Control_c, 0, 67, 11
1, 194932, Control_c, 0, 67, 11
1, 194946, Control_c, 0, 64, 84
1, 194946, Control_c, 0, 67, 12
1, 194961, Control_c, 0, 64, 79
1, 194961, Control_c, 0, 67, 13
1, 194976, Control_c, 0, 64, 68
1, 194976, Control_c, 0, 67, 13
1, 194991, Control_c, 0, 64, 56
1, 195006, Control_c, 0, 64, 51
1, 195021, Control_c, 0, 64, 54
1, 195021, Control_c, 0, 67, 14
1, 195029, Note_off_c, 0, 60, 59
1, 195036, Control_c, 0, 64, 59
1, 195036, Control_c, 0, 67, 14
1, 195051, Control_c, 0, 64, 64
1, 195051, Control_c, 0, 67, 15
1, 195054, Note_off_c, 0, 71, 61
1, 195062, Note_on_c, 0, 64, 46
1, 195063, Note_on_c, 0, 74, 65
1, 195066, Control_c, 0, 64, 68
1, 195066, Control_c, 0, 67, 18
1, 195081, Control_c, 0, 64, 72
1, 195081, Control_c, 0, 67, 21
1, 195096, Control_c, 0, 64, 74
1, 195096, Control_c, 0, 67, 22
1, 195110, Control_c, 0, 64, 76
1, 195110, Control_c, 0, 67, 23
1, 195125, Control_c, 0, 64, 77
1, 195140, Control_c, 0, 64, 78
1, 195155, Control_c, 0, 64, 78
1, 195155, Control_c, 0, 67, 24
1, 195184, Control_c, 0, 64, 79
1, 195190, Note_off_c, 0, 81, 60
1, 195199, Control_c, 0, 67, 24
1, 195206, Note_on_c, 0, 72, 59
1, 195212, Note_on_c, 0, 60, 33
1, 195236, Note_off_c, 0, 64, 0
1, 195244, Control_c, 0, 64, 79
1, 195273, Poly_aftertouch_c, 0, 64, 127
1, 195273, Control_c, 0, 67, 24
1, 195332, Control_c, 0, 64, 78
1, 195347, Control_c, 0, 64, 73
1, 195347, Control_c, 0, 67, 24
1, 195362, Control_c, 0, 64, 60
1, 195365, Note_off_c, 0, 72, 60
1, 195374, Poly_aftertouch_c, 0, 64, 0
1, 195377, Control_c, 0, 64, 0
1, 195377, Control_c, 0, 67, 24
1, 195381, Note_off_c, 0, 60, 43
1, 195382, Note_off_c, 0, 74, 57
1, 195397, Note_on_c, 0, 81, 63
1, 195424, Note_on_c, 0, 65, 41
1, 195429, Control_c, 0, 67, 23
1, 195444, Control_c, 0, 64, 43
1, 195459, Control_c, 0, 64, 59
1, 195473, Control_c, 0, 64, 65
1, 195488, Control_c, 0, 64, 66
1, 195503, Control_c, 0, 64, 68
1, 195517, Control_c, 0, 64, 69
1, 195517, Control_c, 0, 67, 22
1, 195532, Control_c, 0, 64, 70
1, 195532, Control_c, 0, 67, 22
1, 195547, Control_c, 0, 64, 70
1, 195547, Control_c, 0, 67, 21
1, 195562, Control_c, 0, 67, 21
1, 195587, Note_off_c, 0, 65, 41
1, 195590, Note_on_c, 0, 71, 44
1, 195591, Control_c, 0, 64, 71
1, 195609, Note_on_c, 0, 60, 26
1, 195609, Note_off_c, 0, 81, 54
1, 195659, Note_off_c, 0, 71, 56
1, 195725, Control_c, 0, 67, 21
1, 195726, Note_off_c, 0, 60, 50
1, 195754, Control_c, 0, 67, 22
1, 195763, Note_on_c, 0, 64, 41
1, 195785, Control_c, 0, 64, 70
1, 195800, Control_c, 0, 64, 70
1, 195814, Control_c, 0, 64, 69
1, 195829, Control_c, 0, 64, 67
1, 195844, Control_c, 0, 64, 64
1, 195859, Control_c, 0, 64, 59
1, 195859, Control_c, 0, 67, 22
1, 195874, Control_c, 0, 64, 57
1, 195874, Control_c, 0, 67, 23
1, 195888, Control_c, 0, 64, 56
1, 195900, Note_off_c, 0, 64, 59
1, 195903, Control_c, 0, 64, 54
1, 195918, Control_c, 0, 64, 50
1, 195918, Control_c, 0, 67, 23
1, 195930, Note_on_c, 0, 74, 43
1, 195932, Note_on_c, 0, 60, 41
1, 195933, Control_c, 0, 64, 44
1, 195948, Control_c, 0, 64, 34
1, 195961, Note_on_c, 0, 72, 53
1, 195963, Control_c, 0, 64, 0
1, 195963, Control_c, 0, 67, 24
1, 195972, Note_off_c, 0, 74, 61
1, 195978, Control_c, 0, 67, 24
1, 195993, Control_c, 0, 67, 25
1, 195998, Note_off_c, 0, 72, 62
1, 196022, Control_c, 0, 67, 25
1, 196037, Control_c, 0, 67, 26
1, 196052, Control_c, 0, 67, 26
1, 196067, Control_c, 0, 67, 27
1, 196077, Note_off_c, 0, 60, 59
1, 196081, Control_c, 0, 67, 28
1, 196096, Control_c, 0, 67, 28
1, 196111, Control_c, 0, 67, 29
1, 196121, Note_on_c, 0, 65, 35
1, 196126, Control_c, 0, 67, 31
1, 196140, Control_c, 0, 67, 32
1, 196163, Control_c, 0, 67, 33
1, 196178, Control_c, 0, 67, 34
1, 196193, Control_c, 0, 67, 35
1, 196207, Control_c, 0, 67, 36
1, 196222, Control_c, 0, 67, 36
1, 196237, Control_c, 0, 67, 37
1, 196259, Note_off_c, 0, 65, 44
1, 196267, Control_c, 0, 67, 37
1, 196270, Note_on_c, 0, 80, 44
1, 196303, Note_on_c, 0, 60, 36
1, 196319, Note_on_c, 0, 71, 53
1, 196353, Note_off_c, 0, 80, 58
1, 196355, Note_off_c, 0, 71, 62
1, 196430, Note_off_c, 0, 60, 54
1, 196476, Note_on_c, 0, 64, 34
1, 196653, Note_off_c, 0, 64, 40
1, 196663, Note_on_c, 0, 74, 41
1, 196667, Note_on_c, 0, 60, 36
1, 196696, Control_c, 0, 67, 37
1, 196712, Note_on_c, 0, 72, 46
1, 196717, Note_off_c, 0, 74, 54
1, 196763, Note_off_c, 0, 72, 59
1, 196827, Note_off_c, 0, 60, 52
1, 196877, Note_on_c, 0, 65, 32
1, 196911, Control_c, 0, 67, 36
1, 196970, Control_c, 0, 67, 36
1, 197000, Control_c, 0, 67, 35
1, 197015, Control_c, 0, 67, 35
1, 197030, Control_c, 0, 67, 34
1, 197044, Control_c, 0, 67, 33
1, 197059, Control_c, 0, 67, 32
1, 197066, Note_on_c, 0, 80, 44
1, 197074, Control_c, 0, 67, 31
1, 197089, Control_c, 0, 67, 29
1, 197104, Control_c, 0, 67, 28
1, 197118, Control_c, 0, 67, 27
1, 197133, Control_c, 0, 67, 26
1, 197148, Control_c, 0, 67, 26
1, 197178, Note_on_c, 0, 60, 38
1, 197192, Note_on_c, 0, 71, 48
1, 197222, Control_c, 0, 67, 25
1, 197230, Note_off_c, 0, 80, 52
1, 197245, Note_off_c, 0, 65, 39
1, 197251, Control_c, 0, 67, 25
1, 197265, Note_off_c, 0, 60, 59
1, 197266, Control_c, 0, 64, 40
1, 197266, Control_c, 0, 67, 24
1, 197281, Control_c, 0, 64, 55
1, 197281, Control_c, 0, 67, 22
1, 197292, Note_off_c, 0, 71, 52
1, 197296, Control_c, 0, 64, 60
1, 197296, Control_c, 0, 67, 19
1, 197311, Control_c, 0, 64, 63
1, 197311, Control_c, 0, 67, 17
1, 197326, Control_c, 0, 64, 65
1, 197326, Control_c, 0, 67, 16
1, 197341, Control_c, 0, 64, 66
1, 197341, Control_c, 0, 67, 14
1, 197355, Control_c, 0, 64, 69
1, 197355, Control_c, 0, 67, 13
1, 197370, Control_c, 0, 64, 73
1, 197370, Control_c, 0, 67, 12
1, 197386, Control_c, 0, 64, 76
1, 197386, Control_c, 0, 67, 11
1, 197401, Control_c, 0, 64, 79
1, 197416, Control_c, 0, 64, 82
1, 197431, Control_c, 0, 64, 86
1, 197446, Control_c, 0, 64, 90
1, 197460, Control_c, 0, 64, 94
1, 197475, Control_c, 0, 64, 98
1, 197490, Control_c, 0, 64, 100
1, 197490, Control_c, 0, 67, 12
1, 197505, Control_c, 0, 64, 103
1, 197520, Control_c, 0, 64, 106
1, 197534, Control_c, 0, 64, 110
1, 197534, Control_c, 0, 67, 12
1, 197549, Control_c, 0, 64, 116
1, 197549, Control_c, 0, 67, 13
1, 197564, Control_c, 0, 64, 124
1, 197579, Control_c, 0, 64, 127
1, 197579, Control_c, 0, 67, 13
1, 197608, Control_c, 0, 67, 14
1, 197660, Control_c, 0, 67, 15
1, 197690, Control_c, 0, 67, 15
1, 197704, Control_c, 0, 67, 16
1, 197734, Control_c, 0, 64, 124
1, 197737, Note_on_c, 0, 74, 58
1, 197739, Note_on_c, 0, 71, 56
1, 197743, Note_on_c, 0, 60, 52
1, 197743, Note_on_c, 0, 65, 49
1, 197746, Note_on_c, 0, 67, 51
1, 197749, Note_on_c, 0, 48, 50
1, 197749, Control_c, 0, 64, 93
1, 197764, Control_c, 0, 64, 77
1, 197779, Control_c, 0, 64, 63
1, 197793, Control_c, 0, 64, 20
1, 197808, Control_c, 0, 64, 0
1, 197838, Control_c, 0, 67, 15
1, 197868, Control_c, 0, 67, 15
1, 197898, Control_c, 0, 67, 14
1, 197912, Control_c, 0, 64, 26
1, 197912, Control_c, 0, 67, 13
1, 197927, Control_c, 0, 64, 51
1, 197927, Control_c, 0, 67, 12
1, 197942, Control_c, 0, 64, 61
1, 197942, Control_c, 0, 67, 12
1, 197957, Control_c, 0, 64, 64
1, 197972, Control_c, 0, 64, 65
1, 197972, Control_c, 0, 67, 11
1, 197986, Control_c, 0, 64, 66
1, 198001, Control_c, 0, 64, 68
1, 198001, Control_c, 0, 67, 11
1, 198016, Control_c, 0, 64, 69
1, 198016, Control_c, 0, 67, 10
1, 198031, Control_c, 0, 64, 71
1, 198031, Control_c, 0, 67, 10
1, 198046, Control_c, 0, 64, 72
1, 198046, Control_c, 0, 67, 9
1, 198060, Control_c, 0, 64, 73
1, 198060, Control_c, 0, 67, 8
1, 198075, Control_c, 0, 64, 74
1, 198075, Control_c, 0, 67, 0
1, 198090, Control_c, 0, 64, 76
1, 198104, Control_c, 0, 64, 77
1, 198119, Control_c, 0, 64, 79
1, 198134, Control_c, 0, 64, 80
1, 198149, Control_c, 0, 64, 82
1, 198164, Control_c, 0, 64, 83
1, 198180, Control_c, 0, 64, 84
1, 198195, Control_c, 0, 64, 85
1, 198209, Control_c, 0, 64, 86
1, 198224, Control_c, 0, 64, 87
1, 198239, Control_c, 0, 64, 88
1, 198254, Control_c, 0, 64, 89
1, 198269, Control_c, 0, 64, 90
1, 198283, Control_c, 0, 64, 91
1, 198298, Control_c, 0, 64, 92
1, 198313, Control_c, 0, 64, 93
1, 198327, Control_c, 0, 64, 94
1, 198342, Control_c, 0, 64, 96
1, 198357, Control_c, 0, 64, 97
1, 198372, Control_c, 0, 64, 98
1, 198387, Control_c, 0, 64, 100
1, 198409, Control_c, 0, 64, 101
1, 198424, Control_c, 0, 64, 103
1, 198439, Control_c, 0, 64, 104
1, 198454, Control_c, 0, 64, 105
1, 198469, Control_c, 0, 64, 106
1, 198483, Control_c, 0, 64, 107
1, 198498, Control_c, 0, 64, 108
1, 198513, Control_c, 0, 64, 109
1, 198527, Control_c, 0, 64, 110
1, 198542, Control_c, 0, 64, 111
1, 198557, Control_c, 0, 64, 112
1, 198572, Control_c, 0, 64, 113
1, 198587, Control_c, 0, 64, 113
1, 198601, Control_c, 0, 64, 114
1, 198601, Control_c, 0, 67, 8
1, 198616, Control_c, 0, 64, 116
1, 198616, Control_c, 0, 67, 10
1, 198631, Control_c, 0, 64, 118
1, 198631, Control_c, 0, 67, 11
1, 198646, Control_c, 0, 64, 120
1, 198646, Control_c, 0, 67, 12
1, 198661, Control_c, 0, 64, 124
1, 198661, Control_c, 0, 67, 13
1, 198676, Control_c, 0, 64, 127
1, 198676, Control_c, 0, 67, 14
1, 198691, Control_c, 0, 67, 14
1, 198735, Control_c, 0, 67, 15
1, 198750, Control_c, 0, 67, 15
1, 198765, Control_c, 0, 67, 16
1, 198780, Control_c, 0, 67, 16
1, 198824, Control_c, 0, 67, 17
1, 199038, Note_off_c, 0, 65, 23
1, 199047, Control_c, 0, 67, 16
1, 199188, Control_c, 0, 67, 16
1, 199247, Control_c, 0, 67, 15
1, 199306, Control_c, 0, 67, 15
1, 199365, Control_c, 0, 67, 14
1, 199424, Control_c, 0, 67, 14
1, 199454, Control_c, 0, 67, 13
1, 199498, Control_c, 0, 67, 13
1, 199558, Control_c, 0, 67, 12
1, 199618, Control_c, 0, 67, 12
1, 199721, Control_c, 0, 67, 11
1, 199772, Note_on_c, 0, 52, 33
1, 199786, Note_on_c, 0, 72, 45
1, 199790, Note_on_c, 0, 55, 20
1, 199790, Note_on_c, 0, 64, 23
1, 199811, Control_c, 0, 64, 110
1, 199811, Control_c, 0, 67, 11
1, 199826, Control_c, 0, 64, 89
1, 199841, Control_c, 0, 64, 76
1, 199855, Control_c, 0, 64, 65
1, 199855, Control_c, 0, 67, 10
1, 199870, Control_c, 0, 64, 55
1, 199870, Control_c, 0, 67, 10
1, 199885, Control_c, 0, 64, 51
1, 199907, Control_c, 0, 67, 9
1, 199937, Control_c, 0, 64, 51
1, 199951, Control_c, 0, 64, 50
1, 199951, Control_c, 0, 67, 9
1, 199963, Note_off_c, 0, 74, 42
1, 199966, Control_c, 0, 64, 49
1, 199981, Control_c, 0, 64, 47
1, 199996, Control_c, 0, 64, 45
1, 200011, Control_c, 0, 64, 43
1, 200011, Control_c, 0, 67, 8
1, 200026, Control_c, 0, 64, 39
1, 200041, Control_c, 0, 64, 35
1, 200041, Control_c, 0, 67, 8
1, 200043, Note_off_c, 0, 71, 36
1, 200055, Control_c, 0, 64, 33
1, 200055, Control_c, 0, 67, 0
1, 200070, Control_c, 0, 64, 31
1, 200085, Control_c, 0, 64, 28
1, 200100, Control_c, 0, 64, 24
1, 200114, Control_c, 0, 64, 16
1, 200129, Control_c, 0, 64, 0
1, 201701, Note_off_c, 0, 48, 39
1, 201724, Note_off_c, 0, 64, 38
1, 201736, Note_off_c, 0, 60, 38
1, 201749, Note_off_c, 0, 52, 37
1, 201754, Note_off_c, 0, 72, 37
1, 201757, Note_off_c, 0, 67, 38
1, 201761, Note_off_c, 0, 55, 41
1, 201761, End_track
0, 0, End_of_file
